<?xml version="1.0" encoding="UTF-8" standalone="no"?>
<!DOCTYPE svg PUBLIC "-//W3C//DTD SVG 1.1//EN" "http://www.w3.org/Graphics/SVG/1.1/DTD/svg11.dtd">
<svg width="128.40" height="181.68" viewBox="0.00 0.00 535.00 757.00" xmlns="http://www.w3.org/2000/svg" xmlns:xlink="http://www.w3.org/1999/xlink">
<g stroke-linecap="round" id="103">
<path d="M152.15,266.15 C152.15,266.15 152.42,265.79 152.42,265.79 C152.42,265.79 152.40,265.68 152.40,265.68 C150.50,266.27 142.17,274.70 141.21,276.14 C140.13,277.78 138.34,281.67 137.85,283.61 C137.30,285.84 137.10,290.13 137.41,292.67 C137.55,293.69 138.25,295.21 139.08,296.84" fill="none" stroke="rgb(0, 255, 0)" stroke-width="0.75" stroke-opacity="1.00" stroke-linejoin="round"/>
<path d="M128.87,278.96 C128.75,279.16 128.67,279.29 128.64,279.35 C128.60,279.41 128.55,279.48 128.48,279.57 C126.93,283.27 123.38,291.69 122.45,297.80 C122.17,299.71 121.89,303.37 121.89,303.57 C121.89,303.69 121.92,303.78 121.97,303.83" fill="none" stroke="rgb(0, 255, 0)" stroke-width="0.75" stroke-opacity="1.00" stroke-linejoin="round"/>
<path d="M107.93,272.40 C107.93,272.40 107.09,272.42 107.09,272.42 C106.16,273.59 96.81,294.54 96.30,297.11 C95.97,298.86 95.56,305.24 95.61,305.59 C95.71,306.24 96.07,307.94 96.27,308.76" fill="none" stroke="rgb(0, 255, 0)" stroke-width="0.75" stroke-opacity="1.00" stroke-linejoin="round"/>
<path d="M110.59,302.25 C110.59,302.25 109.77,302.26 109.77,302.26 C109.38,302.74 106.63,308.49 105.95,310.28 C105.06,312.71 104.36,317.45 104.61,319.37 C105.10,322.58 107.63,327.12 108.00,327.57 C108.28,327.91 109.58,329.09 109.96,329.44" fill="none" stroke="rgb(0, 255, 0)" stroke-width="0.75" stroke-opacity="1.00" stroke-linejoin="round"/>
<path d="M86.05,301.31 C86.05,301.31 85.43,301.15 85.43,301.15 C85.54,301.39 85.61,305.05 85.74,307.34 C85.89,310.22 85.70,314.78 85.90,317.38 C86.17,320.57 89.98,328.58 92.33,331.94 C93.00,332.88 93.67,333.82 94.33,334.75" fill="none" stroke="rgb(0, 255, 0)" stroke-width="0.75" stroke-opacity="1.00" stroke-linejoin="round"/>
<path d="M173.41,274.59 C173.41,274.59 173.16,273.43 173.16,273.43 C173.16,273.43 173.55,273.04 173.55,273.04 C173.23,274.02 168.24,285.25 166.10,293.82 C165.84,294.91 165.34,297.06 165.10,298.13 C164.53,300.83 164.39,303.15 164.34,304.75" fill="none" stroke="rgb(0, 255, 0)" stroke-width="0.75" stroke-opacity="1.00" stroke-linejoin="round"/>
<path d="M176.85,285.06 C176.33,285.09 176.03,285.09 175.73,285.50 C173.05,289.24 170.99,292.69 170.20,294.45 C169.60,295.89 168.51,302.30 168.47,304.97 C168.46,310.29 169.57,314.12 169.76,314.45 C169.77,314.45 169.84,314.55 169.97,314.75" fill="none" stroke="rgb(0, 255, 0)" stroke-width="0.75" stroke-opacity="1.00" stroke-linejoin="round"/>
<path d="M174.35,292.87 C174.35,292.87 173.72,292.19 173.72,292.19 C173.85,293.84 173.93,300.88 174.34,303.13 C174.89,306.05 176.88,311.25 177.48,312.34 C177.53,312.42 177.58,312.50 177.63,312.56" fill="none" stroke="rgb(0, 255, 0)" stroke-width="0.75" stroke-opacity="1.00" stroke-linejoin="round"/>
<path d="M176.85,289.90 C176.74,290.00 176.66,290.07 176.61,290.10 C176.56,290.14 176.46,290.20 176.31,290.28 C176.10,290.51 176.07,307.18 177.38,312.33 C177.59,313.12 177.81,313.90 178.02,314.69 C178.12,315.03 178.25,315.52 178.41,316.16" fill="none" stroke="rgb(0, 255, 0)" stroke-width="0.75" stroke-opacity="1.00" stroke-linejoin="round"/>
<path d="M162.62,302.25 C162.62,302.25 163.06,302.10 163.06,302.10 C163.04,302.13 162.46,301.25 162.18,301.00 C160.67,299.67 158.75,299.34 155.60,299.00 C152.50,298.67 147.73,298.78 146.04,299.14 C144.89,299.40 135.58,301.67 132.81,302.76 C131.52,303.28 129.18,304.93 128.37,305.91 C127.48,307.02 126.63,309.29 126.69,310.74 C126.85,313.62 128.53,315.23 129.17,315.07 C129.45,315.01 131.05,314.32 131.53,314.12" fill="none" stroke="rgb(229, 0, 16)" stroke-width="0.75" stroke-opacity="1.00" stroke-linejoin="round"/>
<path d="M131.84,313.97 C132.29,313.68 132.86,313.08 133.38,312.26 C134.69,310.22 134.81,308.96 134.81,308.81 C134.71,309.20 135.34,312.68 135.92,313.36 C136.39,313.85 138.08,313.77 138.94,313.28 C140.01,312.64 140.98,311.40 143.42,307.90 C143.48,308.01 144.35,312.26 145.12,313.07 C146.48,314.37 150.34,310.66 151.22,308.82 C151.40,309.44 152.29,310.60 153.11,310.75 C154.00,310.87 155.66,309.71 156.84,308.21 C157.71,308.82 162.38,303.96 162.31,303.22 C160.80,304.31 158.35,312.64 158.09,316.12 C158.09,316.12 158.25,315.84 158.25,315.84" fill="none" stroke="rgb(229, 0, 16)" stroke-width="0.75" stroke-opacity="1.00" stroke-linejoin="round"/>
<path d="M160.91,310.69 C160.78,310.69 160.65,310.69 160.52,310.69 C160.44,310.69 160.36,310.69 160.28,310.69 C160.28,310.69 158.63,323.74 158.63,323.74 C158.63,323.74 158.87,323.19 158.87,323.19" fill="none" stroke="rgb(229, 0, 16)" stroke-width="0.75" stroke-opacity="1.00" stroke-linejoin="round"/>
<path d="M162.00,316.47 C161.87,316.47 161.80,316.47 161.77,316.47 C161.73,316.47 161.71,316.46 161.69,316.44 C161.69,316.44 161.81,323.11 161.81,323.11 C161.81,323.11 162.00,322.09 162.00,322.09" fill="none" stroke="rgb(229, 0, 16)" stroke-width="0.75" stroke-opacity="1.00" stroke-linejoin="round"/>
<path d="M168.88,306.00 C168.88,305.98 168.88,305.95 168.88,305.92 C168.87,305.89 168.87,305.81 168.86,305.69 C168.67,305.66 167.97,306.32 166.29,309.28 C164.61,312.27 163.62,315.55 163.47,317.65 C163.38,318.92 163.35,321.19 163.38,321.49 C163.38,321.49 163.88,321.16 163.88,321.16" fill="none" stroke="rgb(229, 0, 16)" stroke-width="0.75" stroke-opacity="1.00" stroke-linejoin="round"/>
<path d="M165.28,316.00 C165.28,316.00 164.52,316.02 164.52,316.02 C164.52,316.02 165.57,320.97 165.57,320.97 C165.66,320.91 165.72,320.86 165.75,320.82 C165.78,320.78 165.84,320.68 165.91,320.53" fill="none" stroke="rgb(229, 0, 16)" stroke-width="0.75" stroke-opacity="1.00" stroke-linejoin="round"/>
<path d="M127.78,308.65 C127.28,308.85 126.26,309.02 126.07,309.09 C124.80,309.58 122.63,312.73 121.31,315.58 C120.25,317.87 119.08,322.30 119.08,322.40 C119.08,322.40 119.49,322.09 119.49,322.09" fill="none" stroke="rgb(229, 0, 16)" stroke-width="0.75" stroke-opacity="1.00" stroke-linejoin="round"/>
<path d="M124.96,313.97 C124.17,313.96 123.84,314.15 123.67,314.69 C122.41,318.93 122.05,326.67 122.56,328.34 C122.56,328.34 122.93,326.47 122.93,326.47" fill="none" stroke="rgb(229, 0, 16)" stroke-width="0.75" stroke-opacity="1.00" stroke-linejoin="round"/>
<path d="M129.34,321.78 C128.81,322.00 127.15,322.64 126.79,323.65 C125.29,328.00 126.23,330.70 126.75,331.73 C126.75,331.73 127.46,331.31 127.46,331.31" fill="none" stroke="rgb(229, 0, 16)" stroke-width="0.75" stroke-opacity="1.00" stroke-linejoin="round"/>
<path d="M126.84,312.41 C126.63,312.39 126.25,312.45 126.06,312.56 C126.01,312.59 125.93,312.67 125.82,312.80 C125.80,312.83 125.77,312.85 125.74,312.87 C125.74,312.87 125.74,312.87 125.74,312.87 C125.71,314.23 125.52,317.73 126.06,319.58 C126.43,320.82 128.97,325.58 130.23,326.61 C131.45,327.56 134.51,328.61 138.64,328.66 C141.50,328.67 145.21,327.70 147.17,326.82 C148.39,326.26 153.40,321.94 154.36,320.93 C155.26,319.97 157.19,316.28 157.41,315.72 C157.53,315.43 157.70,314.90 157.94,314.12" fill="none" stroke="rgb(229, 0, 16)" stroke-width="0.75" stroke-opacity="1.00" stroke-linejoin="round"/>
<path d="M139.50,315.84 C139.18,315.84 138.95,315.84 138.79,315.84 C138.40,315.85 130.70,315.87 130.47,315.84 C130.47,315.84 130.43,315.70 130.43,315.70" fill="none" stroke="rgb(229, 0, 16)" stroke-width="0.75" stroke-opacity="1.00" stroke-linejoin="round"/>
<path d="M129.96,319.12 C129.96,319.12 129.96,318.73 129.96,318.73 C129.96,318.73 130.02,318.66 130.02,318.66 C130.02,318.66 137.33,318.10 137.33,318.10 C137.33,318.10 137.06,318.04 137.06,318.04" fill="none" stroke="rgb(229, 0, 16)" stroke-width="0.75" stroke-opacity="1.00" stroke-linejoin="round"/>
<path d="M135.28,315.69 C134.94,315.81 134.73,315.88 134.65,315.92 C134.58,315.96 134.52,316.00 134.50,316.06 C134.50,316.06 134.78,321.25 134.78,321.25 C134.78,321.25 136.05,316.18 136.05,316.18 C136.05,316.18 135.75,320.50 135.75,320.50 C135.75,320.50 136.48,316.89 136.48,316.89 C136.33,318.07 136.02,321.51 135.56,322.16 C135.33,322.46 134.55,323.02 134.56,323.01 C135.05,322.53 135.84,320.16 135.82,318.86 C135.82,318.64 135.79,318.16 135.75,317.41" fill="none" stroke="rgb(229, 0, 16)" stroke-width="0.75" stroke-opacity="1.00" stroke-linejoin="round"/>
<path d="M135.43,316.62 C135.43,316.62 135.36,316.39 135.36,316.39 C135.36,316.39 135.11,316.31 135.11,316.31 C135.11,316.31 134.95,319.64 134.95,319.64 C134.95,319.64 135.51,316.54 135.51,316.54 C135.51,316.54 134.97,318.69 134.97,318.69" fill="none" stroke="rgb(229, 0, 16)" stroke-width="0.75" stroke-opacity="1.00" stroke-linejoin="round"/>
<path d="M137.47,318.34 C137.47,318.34 137.31,318.38 137.31,318.38 C137.31,318.38 140.43,321.87 140.43,321.87 C140.44,321.86 140.65,320.54 141.78,319.45 C142.13,319.12 142.90,318.45 143.08,318.30 C143.08,318.30 142.95,318.64 142.95,318.64" fill="none" stroke="rgb(229, 0, 16)" stroke-width="0.75" stroke-opacity="1.00" stroke-linejoin="round"/>
<path d="M137.00,321.31 C137.00,321.31 136.53,321.63 136.53,321.63 C136.53,321.63 144.35,321.92 144.35,321.92 C144.35,321.92 144.18,321.78 144.18,321.78" fill="none" stroke="rgb(229, 0, 16)" stroke-width="0.75" stroke-opacity="1.00" stroke-linejoin="round"/>
<path d="M154.34,315.69 C152.73,315.69 149.40,315.73 149.04,316.46 C148.85,316.93 148.97,318.05 149.52,318.23 C151.39,318.75 154.63,317.15 154.78,316.80 C154.78,316.80 151.43,316.02 151.43,316.02 C151.43,316.02 151.22,316.31 151.22,316.31" fill="none" stroke="rgb(229, 0, 16)" stroke-width="0.75" stroke-opacity="1.00" stroke-linejoin="round"/>
<path d="M151.84,316.16 C151.84,316.16 149.75,317.25 149.75,317.25 C149.75,317.25 149.53,316.98 149.53,316.98" fill="none" stroke="rgb(229, 0, 16)" stroke-width="0.75" stroke-opacity="1.00" stroke-linejoin="round"/>
<path d="M149.19,316.62 C149.19,316.62 148.09,317.09 148.09,317.09 C148.09,317.09 156.58,316.47 156.58,316.47 C154.92,316.51 152.02,316.60 151.99,316.60 C151.89,316.59 151.74,316.55 151.53,316.47" fill="none" stroke="rgb(229, 0, 16)" stroke-width="0.75" stroke-opacity="1.00" stroke-linejoin="round"/>
<path d="M154.34,315.53 C154.34,315.53 152.50,315.98 152.50,315.98 C152.50,315.98 152.47,316.11 152.47,316.11" fill="none" stroke="rgb(229, 0, 16)" stroke-width="0.75" stroke-opacity="1.00" stroke-linejoin="round"/>
<path d="M147.31,322.88 C147.31,322.88 147.23,322.88 147.23,322.88 C147.23,322.88 146.96,323.19 146.96,323.19 C146.96,323.19 145.58,322.88 145.58,322.88 C145.58,322.88 145.30,327.26 145.30,327.26 C146.56,327.78 146.86,324.87 146.74,323.67 C146.71,323.42 146.65,323.17 146.55,322.93" fill="none" stroke="rgb(229, 0, 16)" stroke-width="0.75" stroke-opacity="1.00" stroke-linejoin="round"/>
<path d="M148.87,326.78 C148.87,326.78 148.60,326.78 148.60,326.78 C148.57,326.87 148.55,327.41 148.56,328.31 C148.59,329.90 148.70,331.00 148.89,331.83 C148.89,331.83 149.19,331.78 149.19,331.78" fill="none" stroke="rgb(229, 0, 16)" stroke-width="0.75" stroke-opacity="1.00" stroke-linejoin="round"/>
<path d="M139.81,328.81 C139.81,328.81 139.36,329.09 139.36,329.09 C139.35,330.96 139.34,333.43 139.35,333.45 C139.38,333.52 139.43,333.64 139.50,333.81" fill="none" stroke="rgb(229, 0, 16)" stroke-width="0.75" stroke-opacity="1.00" stroke-linejoin="round"/>
<path d="M158.87,325.84 C158.87,325.84 158.87,325.77 158.87,325.77 C158.76,325.61 158.19,325.46 157.69,325.59 C157.36,325.67 154.77,327.67 151.93,329.09 C149.24,330.42 135.01,336.14 132.89,337.23 C128.12,339.58 119.81,343.79 119.61,345.08 C119.55,345.60 120.74,348.45 122.05,350.02 C123.13,351.30 124.89,351.75 125.64,351.66 C126.70,351.48 145.84,342.72 146.89,342.38 C146.89,342.38 146.69,342.57 146.69,342.57" fill="none" stroke="rgb(229, 0, 16)" stroke-width="0.75" stroke-opacity="1.00" stroke-linejoin="round"/>
<path d="M159.19,325.84 C159.19,325.84 158.72,325.84 158.72,325.84 C162.21,325.00 174.96,338.00 176.16,339.45 C176.84,340.28 179.09,343.59 179.51,344.04 C176.73,344.44 165.17,349.33 164.60,348.97 C164.17,348.66 158.08,341.35 157.24,340.12 C157.20,340.05 157.17,340.04 157.16,340.07" fill="none" stroke="rgb(229, 0, 16)" stroke-width="0.75" stroke-opacity="1.00" stroke-linejoin="round"/>
<path d="M147.62,342.57 C147.54,342.57 147.47,342.57 147.39,342.57 C147.31,342.57 147.23,342.57 147.15,342.57 C147.45,344.34 147.43,345.89 147.00,346.67 C144.94,350.43 143.88,355.83 144.04,356.44 C144.66,356.82 147.92,356.72 152.16,355.80 C155.64,355.03 163.81,352.66 164.13,351.99 C164.23,351.75 163.73,350.16 163.13,348.50 C163.02,348.22 162.96,348.07 162.94,348.04" fill="none" stroke="rgb(229, 0, 16)" stroke-width="0.75" stroke-opacity="1.00" stroke-linejoin="round"/>
<path d="M172.47,346.47 C172.47,346.47 171.69,346.88 171.69,346.88 C171.69,346.88 173.27,350.98 173.27,350.98 C173.27,350.98 173.41,350.07 173.41,350.07" fill="none" stroke="rgb(229, 0, 16)" stroke-width="0.75" stroke-opacity="1.00" stroke-linejoin="round"/>
<path d="M179.03,345.53 C179.03,345.53 177.94,345.07 177.94,345.07 C177.94,345.07 180.85,348.66 180.85,348.66 C180.85,348.66 173.52,351.43 173.52,351.43 C173.52,351.43 173.56,351.47 173.56,351.47" fill="none" stroke="rgb(229, 0, 16)" stroke-width="0.75" stroke-opacity="1.00" stroke-linejoin="round"/>
<path d="M171.53,355.22 C171.38,355.22 171.22,355.22 171.06,355.22 C170.90,355.22 170.73,355.22 170.56,355.22 C170.21,355.19 170.11,358.79 170.95,359.16 C171.62,359.40 173.85,358.89 174.67,358.14 C175.47,357.38 176.37,355.25 176.37,355.29 C176.53,356.11 177.40,357.29 178.35,357.62 C180.28,358.22 182.60,355.01 182.78,354.62 C182.77,354.61 183.77,355.70 184.78,355.84 C186.89,356.08 187.76,353.52 187.57,353.06 C188.33,353.77 189.56,353.47 189.85,352.86 C190.07,352.36 189.87,351.44 189.51,351.16 C191.06,351.12 192.83,350.53 193.31,349.87 C193.77,349.20 193.54,347.79 192.84,347.33 C191.81,346.71 187.03,345.91 186.31,346.01 C186.31,346.01 186.38,346.00 186.38,346.00" fill="none" stroke="rgb(229, 0, 16)" stroke-width="0.75" stroke-opacity="1.00" stroke-linejoin="round"/>
<path d="M164.19,352.57 C164.19,352.57 163.88,353.04 163.88,353.04 C163.95,352.99 164.01,352.95 164.04,352.92 C164.08,352.90 164.14,352.85 164.22,352.77 C164.22,352.77 164.39,352.76 164.39,352.76 C165.10,353.39 166.03,354.69 167.99,357.79 C169.09,359.58 170.69,364.87 170.74,365.01 C170.74,365.01 160.28,369.12 160.28,369.12 C160.28,369.12 157.94,358.52 157.94,358.52 C157.94,358.52 158.09,358.97 158.09,358.97" fill="none" stroke="rgb(229, 0, 16)" stroke-width="0.75" stroke-opacity="1.00" stroke-linejoin="round"/>
<path d="M159.50,362.57 C159.19,362.64 158.97,363.19 159.05,364.02 C159.35,367.14 159.34,372.69 159.19,372.82 C159.19,372.82 144.54,373.36 144.54,373.36 C144.54,373.36 143.72,357.00 143.72,357.00 C143.72,357.00 144.18,357.41 144.18,357.41" fill="none" stroke="rgb(229, 0, 16)" stroke-width="0.75" stroke-opacity="1.00" stroke-linejoin="round"/>
<path d="M153.56,373.66 C153.56,373.66 153.09,374.13 153.09,374.13 C153.06,374.08 149.62,375.64 148.48,375.85 C147.67,376.00 147.10,376.37 147.22,376.94 C147.42,377.65 148.93,378.94 150.25,378.96 C150.97,378.96 156.61,377.60 156.71,377.45 C157.00,376.86 156.93,373.94 156.69,373.33 C156.65,373.24 156.60,373.09 156.53,372.88" fill="none" stroke="rgb(229, 0, 16)" stroke-width="0.75" stroke-opacity="1.00" stroke-linejoin="round"/>
<path d="M165.75,367.57 C165.75,367.57 165.36,367.57 165.36,367.57 C165.54,368.09 166.25,369.33 167.52,372.92 C167.80,373.65 169.21,374.16 170.27,373.97 C171.53,373.73 173.38,372.55 173.72,371.77 C174.07,370.83 173.53,369.50 173.08,369.06 C171.95,368.95 168.83,369.63 168.80,369.64 C168.72,369.67 168.69,369.71 168.72,369.76" fill="none" stroke="rgb(229, 0, 16)" stroke-width="0.75" stroke-opacity="1.00" stroke-linejoin="round"/>
<path d="M174.03,368.82 C173.95,368.79 173.87,368.79 173.80,368.82 C173.72,368.85 173.55,368.94 173.28,369.10 C173.64,369.40 175.00,368.82 175.29,368.18 C175.84,366.83 170.38,366.29 168.99,366.54 C168.84,366.57 168.59,366.65 168.25,366.79" fill="none" stroke="rgb(229, 0, 16)" stroke-width="0.75" stroke-opacity="1.00" stroke-linejoin="round"/>
<path d="M170.13,369.13 C169.80,369.30 169.50,369.56 169.37,369.60 C168.95,369.74 168.61,369.99 167.41,371.03 C167.41,371.03 167.47,371.01 167.47,371.01" fill="none" stroke="rgb(229, 0, 16)" stroke-width="0.75" stroke-opacity="1.00" stroke-linejoin="round"/>
<path d="M120.28,347.10 C119.74,347.57 119.03,347.34 118.99,347.33 C118.48,347.17 116.21,347.46 114.70,348.14 C111.96,349.40 110.55,350.41 110.52,351.64 C110.51,352.42 110.83,353.29 111.07,353.44 C111.31,353.49 111.96,353.20 113.75,352.22 C114.20,351.97 114.66,351.72 115.12,351.47" fill="none" stroke="rgb(229, 0, 16)" stroke-width="0.75" stroke-opacity="1.00" stroke-linejoin="round"/>
<path d="M113.24,348.66 C113.24,348.66 112.85,348.86 112.85,348.86 C112.85,348.86 112.81,349.03 112.81,349.03 C112.81,349.03 114.96,351.57 114.96,351.57 C114.96,351.57 114.96,351.50 114.96,351.50" fill="none" stroke="rgb(229, 0, 16)" stroke-width="0.75" stroke-opacity="1.00" stroke-linejoin="round"/>
<path d="M114.49,351.16 C114.43,351.15 114.38,351.15 114.34,351.16 C114.30,351.17 114.22,351.19 114.10,351.24 C114.10,351.24 114.07,351.32 114.07,351.32 C115.97,351.57 119.92,351.78 120.99,351.41 C121.81,351.10 122.74,349.44 122.36,348.85 C122.28,348.72 122.06,348.50 121.68,348.19" fill="none" stroke="rgb(229, 0, 16)" stroke-width="0.75" stroke-opacity="1.00" stroke-linejoin="round"/>
<path d="M109.81,351.32 C109.67,351.32 109.40,351.31 109.32,351.28 C108.67,351.01 102.79,348.60 99.15,349.08 C97.86,349.25 96.77,349.75 96.06,350.35 C96.05,350.54 96.52,351.25 96.96,351.43 C97.14,351.50 97.62,351.68 98.40,351.94" fill="none" stroke="rgb(229, 0, 16)" stroke-width="0.75" stroke-opacity="1.00" stroke-linejoin="round"/>
<path d="M100.43,351.63 C100.43,351.63 99.65,351.94 99.65,351.94 C99.65,351.94 99.65,351.94 99.65,351.94 C98.72,351.93 95.25,352.79 94.70,353.59 C94.07,354.57 94.21,355.91 94.76,356.25 C95.20,356.50 96.53,356.59 97.15,356.63" fill="none" stroke="rgb(229, 0, 16)" stroke-width="0.75" stroke-opacity="1.00" stroke-linejoin="round"/>
<path d="M99.49,354.44 C99.05,354.77 98.53,355.00 98.30,355.18 C97.40,355.97 96.29,358.08 96.72,359.07 C96.97,359.50 98.80,359.43 102.09,357.70 C102.49,357.48 102.88,357.28 103.24,357.10" fill="none" stroke="rgb(229, 0, 16)" stroke-width="0.75" stroke-opacity="1.00" stroke-linejoin="round"/>
<path d="M104.18,357.72 C104.18,357.72 104.02,357.88 104.02,357.88 C103.96,357.90 103.20,359.34 103.91,360.14 C104.22,360.46 105.87,360.73 107.24,360.17 C108.88,359.46 111.03,356.08 111.24,354.08 C111.26,353.85 111.25,353.50 111.21,353.04" fill="none" stroke="rgb(229, 0, 16)" stroke-width="0.75" stroke-opacity="1.00" stroke-linejoin="round"/>
<path d="M104.02,357.72 C104.02,357.72 104.02,357.80 104.02,357.80 C104.02,357.80 103.94,357.88 103.94,357.88 C103.94,357.88 103.87,357.88 103.87,357.88 C104.09,357.51 103.65,356.74 103.18,356.87 C103.14,356.88 103.06,356.90 102.93,356.94" fill="none" stroke="rgb(229, 0, 16)" stroke-width="0.75" stroke-opacity="1.00" stroke-linejoin="round"/>
</g>
</svg>
