<?xml version="1.0" encoding="UTF-8" standalone="no"?>
<!DOCTYPE svg PUBLIC "-//W3C//DTD SVG 1.1//EN" "http://www.w3.org/Graphics/SVG/1.1/DTD/svg11.dtd">
<svg width="128.40" height="181.68" viewBox="0.00 0.00 535.00 757.00" xmlns="http://www.w3.org/2000/svg" xmlns:xlink="http://www.w3.org/1999/xlink">
<g stroke-linecap="round" id="105">
<path d="M83.20,193.74 C83.20,193.74 81.29,193.89 81.29,193.89 C80.87,195.75 81.55,198.46 82.87,203.28 C86.30,216.34 92.02,241.06 92.54,243.89 C93.27,247.95 93.65,252.79 93.35,255.39" fill="none" stroke="rgb(0, 255, 0)" stroke-width="2.34" stroke-opacity="1.00" stroke-linejoin="round"/>
<path d="M56.54,221.62 C55.61,222.04 54.86,224.24 55.38,227.57 C55.62,228.96 57.67,238.56 58.55,242.01 C59.61,246.07 61.44,251.17 63.13,255.01" fill="none" stroke="rgb(0, 255, 0)" stroke-width="2.34" stroke-opacity="1.00" stroke-linejoin="round"/>
<path d="M42.19,217.11 C42.19,217.11 42.19,217.01 42.19,217.01 C42.18,220.43 42.12,228.05 41.96,231.39 C41.79,234.80 41.09,241.81 40.74,242.98 C40.63,243.32 40.38,243.94 39.97,244.83" fill="none" stroke="rgb(0, 255, 0)" stroke-width="2.34" stroke-opacity="1.00" stroke-linejoin="round"/>
<path d="M43.01,179.39 C43.01,179.39 41.26,179.50 41.26,179.50 C40.60,180.16 40.12,181.54 40.14,183.43 C40.15,184.00 40.23,185.19 40.38,187.00" fill="none" stroke="rgb(0, 255, 0)" stroke-width="2.34" stroke-opacity="1.00" stroke-linejoin="round"/>
<path d="M125.02,173.65 C124.17,175.22 124.25,177.67 125.09,178.88 C126.39,180.73 132.66,185.52 135.03,187.96 C138.07,191.13 143.63,201.37 146.64,208.80 C151.65,221.58 153.45,235.49 153.62,238.29 C153.65,238.81 153.68,239.76 153.72,241.15" fill="none" stroke="rgb(0, 255, 0)" stroke-width="2.34" stroke-opacity="1.00" stroke-linejoin="round"/>
<path d="M184.06,247.86 C184.06,247.86 181.91,247.55 181.91,247.55 C180.65,245.54 178.38,233.65 177.37,222.89 C176.64,213.44 176.30,199.87 176.62,195.01 C176.99,189.72 179.50,178.84 181.77,173.72 C184.08,168.60 191.33,157.69 195.62,151.58 C196.64,150.14 198.34,147.75 199.01,146.81" fill="none" stroke="rgb(0, 255, 0)" stroke-width="2.34" stroke-opacity="1.00" stroke-linejoin="round"/>
<path d="M213.99,180.62 C213.99,180.62 212.17,180.86 212.17,180.86 C210.62,183.25 207.89,195.10 206.28,203.75 C202.76,224.83 203.83,232.99 204.02,234.37" fill="none" stroke="rgb(0, 255, 0)" stroke-width="2.34" stroke-opacity="1.00" stroke-linejoin="round"/>
<path d="M248.84,137.16 C248.76,137.13 245.64,137.89 245.11,138.39 C242.99,140.48 235.75,155.00 233.03,161.42 C230.46,167.82 225.09,180.89 221.96,187.93 C217.88,196.97 214.73,206.86 213.77,213.63 C212.96,219.51 212.76,234.78 213.42,241.17 C214.12,247.78 217.50,260.66 219.56,264.68 C220.39,266.27 223.15,270.47 223.87,271.55" fill="none" stroke="rgb(0, 255, 0)" stroke-width="2.34" stroke-opacity="1.00" stroke-linejoin="round"/>
<path d="M286.98,144.95 C286.98,144.95 284.67,144.76 284.67,144.76 C283.30,145.97 281.31,149.86 280.54,151.73 C279.56,154.17 271.49,175.15 270.34,178.59 C268.16,185.18 265.82,198.30 265.11,206.07 C264.48,214.12 265.13,223.69 266.09,228.36 C268.77,241.40 274.95,259.59 277.24,264.36 C279.08,268.19 282.02,273.09 282.79,274.36" fill="none" stroke="rgb(0, 255, 0)" stroke-width="2.34" stroke-opacity="1.00" stroke-linejoin="round"/>
<path d="M323.47,149.46 C321.85,151.22 320.34,153.88 318.20,158.76 C315.11,166.14 307.51,184.45 306.83,186.23 C304.41,192.62 302.38,203.90 301.98,211.63 C301.65,218.42 302.27,229.07 303.62,238.11 C304.91,246.15 307.45,255.44 309.94,261.56 C312.15,266.88 316.04,276.50 317.70,280.81" fill="none" stroke="rgb(0, 255, 0)" stroke-width="2.34" stroke-opacity="1.00" stroke-linejoin="round"/>
<path d="M357.50,159.71 C357.50,159.71 356.59,159.71 356.59,159.71 C354.55,163.08 349.04,177.75 346.02,185.85 C341.21,198.80 338.72,205.92 337.13,213.42 C335.61,220.73 334.30,236.25 334.57,242.39 C334.72,245.45 335.28,249.39 336.00,253.25" fill="none" stroke="rgb(0, 255, 0)" stroke-width="2.34" stroke-opacity="1.00" stroke-linejoin="round"/>
<path d="M396.45,172.42 C395.21,171.96 392.63,171.19 391.68,171.24 C390.02,171.34 385.46,174.99 383.71,176.75 C381.76,178.72 376.62,184.39 375.01,186.36 C372.89,188.96 370.10,193.76 369.15,196.67 C367.66,201.33 365.62,214.52 365.51,220.90 C365.46,224.39 365.99,232.00 366.39,234.41 C366.84,237.02 369.70,245.16 371.58,247.90 C372.42,249.10 374.03,250.90 375.49,252.39" fill="none" stroke="rgb(0, 255, 0)" stroke-width="2.34" stroke-opacity="1.00" stroke-linejoin="round"/>
<path d="M409.16,158.89 C409.16,158.89 408.96,156.32 408.96,156.32 C407.10,157.52 405.45,160.81 403.57,164.96 C400.06,172.90 394.36,188.41 393.03,192.49 C390.52,200.22 387.42,212.79 386.03,221.01 C384.90,228.04 385.57,235.79 386.28,238.70" fill="none" stroke="rgb(0, 255, 0)" stroke-width="2.34" stroke-opacity="1.00" stroke-linejoin="round"/>
<path d="M442.37,155.20 C441.57,155.63 440.98,156.30 440.73,156.48 C440.51,156.65 435.54,158.75 433.58,160.77 C430.45,164.07 424.50,174.78 421.29,181.04 C418.19,187.34 414.40,198.63 412.45,207.05 C410.21,217.00 408.76,224.90 408.10,234.08 C407.70,240.09 409.37,253.48 410.29,260.47 C410.38,261.09 410.47,261.71 410.56,262.33" fill="none" stroke="rgb(0, 255, 0)" stroke-width="2.34" stroke-opacity="1.00" stroke-linejoin="round"/>
<path d="M422.69,182.26 C422.69,182.26 421.07,181.64 421.07,181.64 C420.92,181.73 420.63,188.17 422.38,211.72 C423.52,223.94 424.74,233.79 426.07,238.16 C426.74,240.26 428.33,242.79 430.25,245.28" fill="none" stroke="rgb(0, 255, 0)" stroke-width="2.34" stroke-opacity="1.00" stroke-linejoin="round"/>
<path d="M441.14,241.30 C440.72,240.52 440.09,239.01 439.65,237.95 C439.34,237.26 436.66,231.73 436.04,228.85 C434.83,223.01 433.41,207.81 433.57,202.78 C433.70,199.57 434.95,193.15 436.23,189.56 C438.42,183.45 444.93,170.24 448.80,164.06 C453.02,157.49 457.92,149.87 458.60,148.81" fill="none" stroke="rgb(0, 255, 0)" stroke-width="2.34" stroke-opacity="1.00" stroke-linejoin="round"/>
<path d="M482.15,149.87 C482.15,148.94 482.15,148.02 482.15,147.10 C482.15,146.56 482.15,146.02 482.15,145.48 C481.01,148.25 478.49,154.55 477.30,158.04 C475.51,163.29 472.18,175.85 471.93,177.03 C471.48,179.23 470.94,182.37 470.68,184.13" fill="none" stroke="rgb(0, 255, 0)" stroke-width="2.34" stroke-opacity="1.00" stroke-linejoin="round"/>
<path d="M444.83,219.57 C444.83,219.57 442.58,220.39 442.58,220.39 C442.58,220.39 442.37,220.03 442.37,220.03 C442.56,219.12 463.05,177.96 465.01,175.83 C466.55,174.18 468.23,172.69 468.17,172.96 C467.94,174.81 460.83,187.48 458.19,194.69 C455.41,202.63 452.48,212.12 450.51,218.08 C447.50,227.43 445.60,233.95 444.83,240.88 C444.00,249.00 442.64,263.59 442.92,268.32 C443.34,275.07 445.97,285.19 449.78,294.97 C451.97,300.72 456.97,314.68 458.14,316.86 C460.55,321.22 461.53,322.66 462.80,324.29" fill="none" stroke="rgb(0, 255, 0)" stroke-width="2.34" stroke-opacity="1.00" stroke-linejoin="round"/>
<path d="M494.86,173.65 C494.86,173.65 494.69,171.84 494.69,171.84 C492.95,172.79 491.67,175.81 486.44,189.07 C483.31,196.78 477.70,210.53 476.23,215.61 C472.65,228.10 472.24,229.84 470.43,241.42 C468.57,253.63 467.58,262.02 467.46,266.90 C467.42,274.42 467.40,289.64 467.41,297.35 C467.51,304.24 469.31,316.10 471.34,323.99 C473.24,331.09 475.81,340.62 476.46,343.05" fill="none" stroke="rgb(0, 255, 0)" stroke-width="2.34" stroke-opacity="1.00" stroke-linejoin="round"/>
<path d="M507.98,239.25 C507.25,240.35 502.84,244.30 501.44,247.09 C499.70,250.67 494.43,264.10 492.74,271.92 C487.47,295.32 484.42,313.25 483.55,324.90 C483.21,331.43 482.65,346.08 482.69,350.89 C482.99,358.34 483.48,373.23 482.78,380.24 C481.53,391.83 481.65,409.57 481.66,410.63" fill="none" stroke="rgb(0, 255, 0)" stroke-width="2.34" stroke-opacity="1.00" stroke-linejoin="round"/>
<path d="M477.22,357.75 C477.25,355.76 477.19,354.60 476.92,354.30 C476.82,354.19 476.55,353.97 476.10,353.63 C474.66,353.50 472.62,356.17 469.90,360.69 C465.89,367.74 460.61,377.57 459.09,381.82 C457.76,385.56 450.14,410.04 449.20,412.80 C446.68,420.20 444.29,432.09 443.40,440.04 C442.89,444.90 442.57,461.03 443.17,466.95 C443.84,473.59 446.10,485.32 447.67,490.04 C450.15,497.34 456.85,508.67 459.47,513.10" fill="none" stroke="rgb(0, 255, 0)" stroke-width="2.34" stroke-opacity="1.00" stroke-linejoin="round"/>
<path d="M470.66,408.18 C470.66,408.18 470.66,407.77 470.66,407.77 C470.49,408.98 470.17,411.29 470.09,412.40 C469.87,415.30 469.36,428.92 468.30,439.47 C467.64,446.67 466.41,461.21 466.56,467.69 C467.18,483.28 468.46,514.82 469.12,530.78 C469.34,537.15 469.64,545.87 469.71,548.21" fill="none" stroke="rgb(0, 255, 0)" stroke-width="2.34" stroke-opacity="1.00" stroke-linejoin="round"/>
<path d="M491.58,453.69 C491.64,454.33 482.49,465.69 479.97,469.63 C478.96,471.22 475.29,477.68 474.45,480.27 C474.37,480.51 468.32,503.35 467.68,505.88 C465.40,515.06 460.95,547.13 459.20,567.02 C458.94,570.31 458.53,575.60 458.22,578.92 C457.78,583.08 456.92,590.98 456.51,594.70" fill="none" stroke="rgb(0, 255, 0)" stroke-width="2.34" stroke-opacity="1.00" stroke-linejoin="round"/>
<path d="M468.61,500.84 C467.75,500.89 466.95,501.08 466.53,501.46 C465.49,502.42 460.08,514.02 458.45,519.00 C456.31,525.62 453.62,538.93 453.12,545.01 C452.49,552.93 453.17,565.74 455.00,572.49 C456.19,576.77 457.89,580.86 459.94,584.16 C461.70,586.93 464.07,590.61 464.68,591.52" fill="none" stroke="rgb(0, 255, 0)" stroke-width="2.34" stroke-opacity="1.00" stroke-linejoin="round"/>
<path d="M510.85,536.11 C510.85,536.11 510.85,535.90 510.85,535.90 C510.85,535.90 510.50,535.83 510.50,535.83 C509.69,536.85 507.57,544.76 507.44,545.33 C506.90,547.90 505.76,556.72 505.26,560.67" fill="none" stroke="rgb(0, 255, 0)" stroke-width="2.34" stroke-opacity="1.00" stroke-linejoin="round"/>
<path d="M430.07,484.85 C430.07,484.85 429.66,484.85 429.66,484.85 C429.58,484.78 428.91,483.71 428.63,483.49 C427.76,482.85 425.33,482.92 424.06,483.72 C422.15,484.96 415.72,497.34 412.43,501.96 C407.22,509.28 403.78,516.78 400.91,525.67 C398.50,532.79 394.08,545.80 392.63,552.47 C391.38,558.38 390.10,572.55 390.24,577.20 C390.40,581.71 392.67,591.60 394.93,597.15 C397.93,604.42 403.11,612.12 403.80,613.14" fill="none" stroke="rgb(0, 255, 0)" stroke-width="2.34" stroke-opacity="1.00" stroke-linejoin="round"/>
<path d="M390.30,492.23 C390.30,492.23 390.30,491.21 390.30,491.21 C390.30,491.21 390.15,491.05 390.15,491.05 C388.23,492.78 386.44,496.52 385.03,500.88 C383.76,504.89 380.17,519.94 379.14,527.47 C377.17,542.09 378.35,562.07 379.06,564.57 C379.19,565.02 379.55,566.04 380.13,567.61" fill="none" stroke="rgb(0, 255, 0)" stroke-width="2.34" stroke-opacity="1.00" stroke-linejoin="round"/>
<path d="M411.21,372.51 C411.21,372.51 407.73,373.74 407.73,373.74 C407.65,373.56 409.05,370.90 416.26,369.98 C419.17,369.63 427.95,369.73 429.16,371.01 C430.47,372.48 430.95,378.46 430.93,379.88 C430.82,386.37 429.56,396.57 427.93,406.59 C426.53,414.25 423.61,428.15 422.09,435.07 C420.12,443.46 417.23,454.05 414.91,459.83 C413.51,463.27 408.91,472.64 408.61,473.16 C407.30,475.37 404.74,478.40 403.83,479.52" fill="none" stroke="rgb(0, 255, 0)" stroke-width="2.34" stroke-opacity="1.00" stroke-linejoin="round"/>
<path d="M414.49,320.84 C414.49,320.87 414.52,322.19 414.51,322.70 C414.39,330.77 408.98,367.02 406.70,377.28 C405.12,383.82 401.04,398.80 399.71,402.02 C397.17,408.00 393.37,412.60 391.65,414.60" fill="none" stroke="rgb(0, 255, 0)" stroke-width="2.34" stroke-opacity="1.00" stroke-linejoin="round"/>
<path d="M408.75,241.30 C407.66,242.69 407.08,244.51 406.64,248.46 C405.79,256.06 404.09,271.36 403.25,279.07 C402.44,286.87 402.19,296.13 403.40,302.23 C405.32,311.65 408.64,322.45 410.39,325.46 C411.75,327.74 413.55,329.61 415.37,331.33" fill="none" stroke="rgb(0, 255, 0)" stroke-width="2.34" stroke-opacity="1.00" stroke-linejoin="round"/>
<path d="M408.34,258.93 C408.34,258.93 406.70,259.01 406.70,259.01 C406.65,259.44 413.06,273.85 416.66,283.09 C419.28,290.17 424.20,303.45 426.70,308.14 C429.32,312.99 434.86,319.29 436.91,321.19 C437.21,321.47 439.26,323.26 439.95,323.87" fill="none" stroke="rgb(0, 255, 0)" stroke-width="2.34" stroke-opacity="1.00" stroke-linejoin="round"/>
<path d="M367.34,216.70 C367.34,216.70 365.89,216.29 365.89,216.29 C364.38,217.16 359.52,230.04 357.66,237.99 C356.95,241.04 353.56,259.29 352.15,267.40 C350.61,276.92 349.85,287.02 349.77,294.70 C349.74,298.31 351.11,312.72 351.58,317.53" fill="none" stroke="rgb(0, 255, 0)" stroke-width="2.34" stroke-opacity="1.00" stroke-linejoin="round"/>
<path d="M351.76,232.69 C351.76,232.69 350.73,232.28 350.73,232.28 C350.73,232.28 349.69,232.64 349.69,232.64 C348.66,235.57 346.76,250.07 345.64,258.62 C344.49,267.50 338.39,294.31 336.56,308.09 C335.22,319.20 329.74,373.81 329.21,378.25" fill="none" stroke="rgb(0, 255, 0)" stroke-width="2.34" stroke-opacity="1.00" stroke-linejoin="round"/>
<path d="M383.33,314.28 C383.33,314.28 383.33,313.67 383.33,313.67 C383.32,313.69 381.88,318.47 380.71,321.78 C374.12,340.47 368.59,358.21 360.86,377.92 C358.39,384.10 354.59,396.65 352.42,403.90 C349.54,413.83 347.19,424.75 346.59,428.32 C345.93,432.26 344.43,450.87 344.14,457.59 C344.07,460.54 343.99,466.77 343.97,470.07" fill="none" stroke="rgb(0, 255, 0)" stroke-width="2.34" stroke-opacity="1.00" stroke-linejoin="round"/>
<path d="M315.68,372.51 C315.68,372.51 312.47,373.33 312.47,373.33 C313.89,372.51 317.96,370.17 318.63,369.81 C320.84,368.60 322.46,368.35 324.30,368.69 C325.58,371.03 326.19,372.57 326.27,374.26 C326.42,377.77 325.22,420.50 325.35,432.30 C325.56,439.54 326.01,451.48 326.81,459.29 C327.62,466.02 330.63,477.97 332.08,483.62" fill="none" stroke="rgb(0, 255, 0)" stroke-width="2.34" stroke-opacity="1.00" stroke-linejoin="round"/>
<path d="M288.62,366.77 C288.67,366.80 288.19,368.16 288.24,371.09 C288.55,383.44 287.24,407.94 285.31,424.57 C282.87,444.20 282.20,458.16 282.08,460.70" fill="none" stroke="rgb(0, 255, 0)" stroke-width="2.34" stroke-opacity="1.00" stroke-linejoin="round"/>
<path d="M327.98,236.79 C327.98,236.79 329.11,231.46 329.11,231.46 C327.28,232.86 317.56,243.73 315.27,247.17 C311.65,252.66 304.71,265.58 302.27,271.63 C300.49,276.13 287.78,315.16 286.04,322.50 C284.41,329.73 282.38,340.15 281.53,348.97 C280.33,363.98 280.04,382.45 280.02,383.68" fill="none" stroke="rgb(0, 255, 0)" stroke-width="2.34" stroke-opacity="1.00" stroke-linejoin="round"/>
<path d="M257.86,242.94 C257.86,242.94 257.86,241.92 257.86,241.92 C257.86,241.92 257.37,241.76 257.37,241.76 C256.71,243.18 256.72,258.04 256.89,266.98 C257.91,289.36 260.45,315.63 261.79,318.04 C262.03,318.45 262.67,319.37 263.73,320.80" fill="none" stroke="rgb(0, 255, 0)" stroke-width="2.34" stroke-opacity="1.00" stroke-linejoin="round"/>
<path d="M248.43,275.33 C247.40,276.24 246.77,278.11 246.59,281.49 C246.43,285.06 247.05,300.07 247.17,306.17 C247.18,318.03 246.51,331.94 246.46,332.91" fill="none" stroke="rgb(0, 255, 0)" stroke-width="2.34" stroke-opacity="1.00" stroke-linejoin="round"/>
<path d="M225.06,279.02 C225.06,279.02 222.29,277.11 222.29,277.11 C223.23,276.87 226.77,288.64 229.87,300.69 C231.80,308.61 234.68,320.84 235.62,328.05 C235.96,330.73 236.37,335.65 236.47,336.88" fill="none" stroke="rgb(0, 255, 0)" stroke-width="2.34" stroke-opacity="1.00" stroke-linejoin="round"/>
<path d="M196.77,270.00 C196.77,270.00 196.77,268.57 196.77,268.57 C196.97,271.84 197.46,279.16 197.90,283.36 C199.14,294.22 200.25,301.82 201.68,308.38 C204.34,320.21 211.59,334.94 212.14,336.05" fill="none" stroke="rgb(0, 255, 0)" stroke-width="2.34" stroke-opacity="1.00" stroke-linejoin="round"/>
<path d="M175.45,290.09 C175.45,290.09 172.26,289.27 172.26,289.27 C171.14,290.96 169.60,300.82 169.02,311.00 C168.38,325.21 175.02,371.93 176.10,379.50 C176.76,384.03 177.80,391.11 178.18,393.67" fill="none" stroke="rgb(0, 255, 0)" stroke-width="2.34" stroke-opacity="1.00" stroke-linejoin="round"/>
<path d="M172.17,372.92 C171.31,374.48 170.85,375.63 170.94,376.56 C170.96,376.77 175.62,394.28 176.91,402.52 C180.23,424.94 184.77,445.19 185.04,450.54 C185.07,451.06 185.08,452.25 185.07,454.10" fill="none" stroke="rgb(0, 255, 0)" stroke-width="2.34" stroke-opacity="1.00" stroke-linejoin="round"/>
<path d="M144.29,282.71 C144.32,284.94 144.73,286.60 145.88,288.65 C146.69,290.12 149.62,295.74 150.45,298.72 C152.04,304.57 153.15,315.75 153.68,325.88 C153.98,332.27 155.06,349.63 155.64,353.43 C156.40,358.38 158.81,363.12 159.25,363.97" fill="none" stroke="rgb(0, 255, 0)" stroke-width="2.34" stroke-opacity="1.00" stroke-linejoin="round"/>
<path d="M146.34,276.56 C144.39,282.31 143.14,290.00 142.20,301.36 C141.60,310.81 140.59,351.06 139.81,358.37 C139.48,361.41 138.56,367.72 137.92,370.73 C137.16,374.28 135.69,379.20 134.33,383.04" fill="none" stroke="rgb(0, 255, 0)" stroke-width="2.34" stroke-opacity="1.00" stroke-linejoin="round"/>
<path d="M121.74,259.34 C121.74,259.34 119.82,261.97 119.82,261.97 C120.10,262.34 122.18,263.10 122.93,263.52 C124.30,264.33 123.27,272.74 121.47,284.69 C118.77,302.40 113.50,337.15 112.93,346.94 C112.74,350.97 113.54,358.40 114.55,361.52 C115.59,364.68 117.54,367.64 118.44,368.77" fill="none" stroke="rgb(0, 255, 0)" stroke-width="2.34" stroke-opacity="1.00" stroke-linejoin="round"/>
<path d="M124.61,354.47 C124.61,354.47 124.40,354.06 124.40,354.06 C124.40,354.06 123.70,354.06 123.70,354.06 C123.01,354.34 123.19,359.45 123.95,363.97 C124.77,368.63 129.94,381.85 133.43,387.02 C134.12,388.03 139.21,395.01 140.97,397.41" fill="none" stroke="rgb(0, 255, 0)" stroke-width="2.34" stroke-opacity="1.00" stroke-linejoin="round"/>
<path d="M90.17,269.18 C90.37,269.90 90.58,270.62 90.78,271.33 C90.85,271.57 90.92,271.81 90.99,272.05 C90.99,271.97 88.63,271.94 84.68,279.53 C81.76,285.19 77.84,296.00 76.52,302.04 C75.23,308.03 74.39,320.33 74.53,329.94 C74.66,334.91 76.74,345.68 78.96,353.48" fill="none" stroke="rgb(0, 255, 0)" stroke-width="2.34" stroke-opacity="1.00" stroke-linejoin="round"/>
<path d="M85.66,333.97 C85.66,333.97 84.84,335.40 84.84,335.40 C84.73,335.53 88.36,339.73 90.47,343.66 C92.78,348.03 99.03,362.37 102.68,372.09 C105.45,379.78 107.87,387.79 108.21,388.91" fill="none" stroke="rgb(0, 255, 0)" stroke-width="2.34" stroke-opacity="1.00" stroke-linejoin="round"/>
<path d="M59.00,264.26 C59.00,264.26 58.43,264.26 58.43,264.26 C57.73,265.14 57.34,265.99 57.04,267.65 C55.72,275.00 54.23,288.88 53.94,296.02 C53.50,306.82 54.50,332.39 55.47,338.60 C56.08,342.23 56.89,347.00 57.08,348.13" fill="none" stroke="rgb(0, 255, 0)" stroke-width="2.34" stroke-opacity="1.00" stroke-linejoin="round"/>
<path d="M54.08,343.81 C54.08,343.81 52.90,343.81 52.90,343.81 C53.03,349.24 56.39,360.63 59.99,368.64 C66.16,381.77 76.13,403.88 78.95,408.95 C81.15,412.78 84.12,417.92 84.88,419.24" fill="none" stroke="rgb(0, 255, 0)" stroke-width="2.34" stroke-opacity="1.00" stroke-linejoin="round"/>
<path d="M32.35,322.07 C32.35,322.07 28.70,322.13 28.70,322.13 C28.27,322.72 28.25,327.28 28.25,330.13 C28.21,334.86 27.85,339.57 27.26,344.55 C26.98,346.98 29.02,361.69 29.08,369.91 C29.02,377.14 28.58,394.62 29.54,400.29 C29.72,401.35 30.65,406.07 30.93,407.49" fill="none" stroke="rgb(0, 255, 0)" stroke-width="2.34" stroke-opacity="1.00" stroke-linejoin="round"/>
<path d="M30.71,370.05 C30.71,370.05 29.57,369.64 29.57,369.64 C29.57,369.64 29.16,369.86 29.16,369.86 C29.18,371.46 32.49,380.42 35.28,390.12 C37.38,398.06 42.86,426.03 44.38,434.09 C45.03,437.73 46.07,443.56 46.45,445.75" fill="none" stroke="rgb(0, 255, 0)" stroke-width="2.34" stroke-opacity="1.00" stroke-linejoin="round"/>
<path d="M229.07,367.06 C229.07,367.06 228.82,365.90 228.82,365.90 C228.82,365.90 228.21,365.79 228.21,365.79 C227.19,366.39 226.49,368.98 225.73,373.77 C225.09,378.30 224.96,411.95 223.85,429.19 C223.39,436.16 221.07,451.04 219.74,456.79 C218.83,460.76 217.58,466.14 217.26,467.56" fill="none" stroke="rgb(0, 255, 0)" stroke-width="2.34" stroke-opacity="1.00" stroke-linejoin="round"/>
<path d="M237.38,442.54 C236.16,442.94 234.71,443.18 234.22,443.29 C232.96,443.59 229.75,447.31 227.76,450.32 C224.08,455.96 220.06,464.59 218.77,469.78 C216.69,478.29 217.26,492.75 217.66,498.94" fill="none" stroke="rgb(0, 255, 0)" stroke-width="2.34" stroke-opacity="1.00" stroke-linejoin="round"/>
<path d="M253.67,453.18 C253.67,453.18 253.26,452.18 253.26,452.18 C252.40,452.75 251.13,454.91 249.81,457.99 C246.56,465.65 242.90,478.96 242.56,485.12 C242.41,488.12 242.34,494.78 242.31,497.77" fill="none" stroke="rgb(0, 255, 0)" stroke-width="2.34" stroke-opacity="1.00" stroke-linejoin="round"/>
<path d="M281.93,453.18 C280.57,453.12 278.88,455.37 276.89,459.18 C274.13,464.52 270.15,474.18 268.42,481.26 C266.86,488.14 263.33,503.29 262.89,506.53 C262.32,510.82 261.98,527.23 262.25,531.94 C262.49,535.31 262.95,541.46 263.17,544.24" fill="none" stroke="rgb(0, 255, 0)" stroke-width="2.34" stroke-opacity="1.00" stroke-linejoin="round"/>
<path d="M252.67,527.66 C251.83,528.02 251.33,530.10 251.73,534.14 C251.89,535.58 253.06,543.58 253.79,547.06 C254.62,551.05 255.91,555.80 257.03,558.01 C257.91,559.67 259.52,562.74 260.27,564.15" fill="none" stroke="rgb(0, 255, 0)" stroke-width="2.34" stroke-opacity="1.00" stroke-linejoin="round"/>
<path d="M295.57,494.08 C295.57,494.08 294.49,490.15 294.49,490.15 C293.25,490.14 289.38,493.07 287.15,494.32 C284.64,495.71 280.36,497.96 277.99,500.17 C274.78,503.21 264.95,515.69 261.95,520.68 C259.04,525.57 252.32,542.87 251.47,545.52 C249.85,550.69 249.41,560.09 250.21,565.91 C251.03,571.81 254.01,583.60 255.84,587.76 C257.63,591.77 259.42,595.53 260.64,598.07" fill="none" stroke="rgb(0, 255, 0)" stroke-width="2.34" stroke-opacity="1.00" stroke-linejoin="round"/>
<path d="M299.22,537.30 C299.22,537.30 298.39,537.97 298.39,537.97 C298.43,536.76 303.59,522.57 306.34,514.98 C308.28,509.55 309.73,501.20 309.13,500.59 C306.86,501.69 298.21,510.51 294.67,515.23 C291.20,519.88 286.50,528.92 283.34,536.53 C280.75,542.95 277.98,551.58 275.70,560.27 C274.57,564.84 273.49,575.20 274.34,580.86 C275.29,586.88 283.38,606.85 283.68,607.67 C283.91,608.30 284.26,609.31 284.73,610.67" fill="none" stroke="rgb(0, 255, 0)" stroke-width="2.34" stroke-opacity="1.00" stroke-linejoin="round"/>
<path d="M285.26,609.12 C286.94,605.97 283.04,587.09 281.59,581.78 C280.86,578.88 280.40,576.43 280.15,574.88" fill="none" stroke="rgb(0, 255, 0)" stroke-width="2.34" stroke-opacity="1.00" stroke-linejoin="round"/>
<path d="M283.26,515.02 C283.26,515.02 282.43,515.02 282.43,515.02 C282.43,515.02 281.93,514.36 281.93,514.36 C282.24,513.69 284.15,513.31 285.62,514.99 C287.24,516.87 290.20,522.26 291.07,524.33 C292.10,526.84 293.36,531.84 293.66,534.46 C293.91,536.77 294.87,550.91 296.34,556.20 C297.70,561.08 301.83,569.54 305.08,573.82 C308.73,578.41 313.53,580.92 314.86,581.64" fill="none" stroke="rgb(0, 255, 0)" stroke-width="2.34" stroke-opacity="1.00" stroke-linejoin="round"/>
<path d="M326.82,502.06 C326.82,502.06 327.15,500.39 327.15,500.39 C327.15,500.39 326.35,499.77 326.35,499.77 C325.26,500.55 319.42,516.14 316.65,523.45 C313.27,532.39 311.01,540.50 308.86,549.21 C307.68,554.19 303.91,573.40 303.68,578.51 C303.48,583.11 304.23,595.65 304.39,597.17 C304.59,599.02 304.97,601.35 305.21,602.43" fill="none" stroke="rgb(0, 255, 0)" stroke-width="2.34" stroke-opacity="1.00" stroke-linejoin="round"/>
<path d="M325.16,520.01 C325.16,520.01 323.41,517.41 323.41,517.41 C322.25,517.46 319.61,520.08 317.92,522.45 C313.55,528.70 307.82,539.37 303.62,548.69 C301.15,554.27 299.49,562.86 299.33,569.05 C299.28,570.94 299.31,583.64 299.39,584.83 C299.51,586.82 299.84,589.16 300.07,590.16" fill="none" stroke="rgb(0, 255, 0)" stroke-width="2.34" stroke-opacity="1.00" stroke-linejoin="round"/>
<path d="M374.70,491.08 C373.94,491.70 373.30,492.10 372.30,492.58 C371.93,492.75 367.22,493.12 364.70,494.47 C362.05,495.93 357.18,499.10 356.22,500.03 C353.88,502.34 346.71,514.53 344.73,520.16 C343.45,523.86 340.74,536.12 339.77,543.87 C338.78,551.94 338.58,563.35 339.44,569.89 C340.66,578.77 343.69,589.00 345.95,593.83 C347.40,596.88 351.09,603.01 352.68,605.13 C354.85,608.01 362.00,614.81 364.06,616.77" fill="none" stroke="rgb(0, 255, 0)" stroke-width="2.34" stroke-opacity="1.00" stroke-linejoin="round"/>
<path d="M198.96,462.91 C198.96,462.91 195.93,462.08 195.93,462.08 C193.38,465.06 184.98,498.57 182.74,510.45 C181.70,516.51 182.49,528.30 183.00,534.77 C183.48,540.11 184.02,544.64 184.59,546.95 C186.13,553.07 189.50,560.28 190.04,561.46" fill="none" stroke="rgb(0, 255, 0)" stroke-width="2.34" stroke-opacity="1.00" stroke-linejoin="round"/>
<path d="M161.34,491.89 C161.34,491.89 160.26,491.89 160.26,491.89 C160.40,491.10 161.19,490.02 163.36,487.78 C167.93,483.12 168.83,482.37 169.45,482.11 C170.50,483.15 163.93,513.39 162.35,526.29 C161.57,533.40 161.26,544.37 162.40,550.31 C163.34,555.03 168.04,569.63 170.90,574.20 C171.82,575.66 176.12,581.67 177.67,584.09 C178.50,585.39 182.20,591.61 183.76,594.31" fill="none" stroke="rgb(0, 255, 0)" stroke-width="2.34" stroke-opacity="1.00" stroke-linejoin="round"/>
<path d="M169.05,496.21 C167.84,496.17 166.87,497.89 166.06,501.28 C164.89,506.28 159.48,522.05 158.87,525.48 C157.53,532.91 156.88,542.44 157.41,549.08 C158.00,556.27 160.21,565.94 162.51,572.71 C164.31,577.89 169.72,589.72 170.39,591.12" fill="none" stroke="rgb(0, 255, 0)" stroke-width="2.34" stroke-opacity="1.00" stroke-linejoin="round"/>
<path d="M163.50,469.38 C163.50,469.38 161.67,467.34 161.67,467.34 C161.11,467.08 156.74,471.44 155.25,473.53 C152.74,477.11 149.00,486.35 147.54,491.65 C145.80,498.02 143.42,510.03 142.25,519.39 C141.54,525.97 140.15,539.47 140.37,545.56 C140.84,557.21 145.54,574.88 147.91,580.80 C149.42,584.43 152.09,590.68 153.24,593.30" fill="none" stroke="rgb(0, 255, 0)" stroke-width="2.34" stroke-opacity="1.00" stroke-linejoin="round"/>
<path d="M161.96,431.15 C161.96,431.15 160.73,427.83 160.73,427.83 C159.31,430.17 149.27,449.80 147.17,453.64 C143.29,460.68 139.03,472.16 136.48,479.09 C132.43,490.33 130.15,498.59 129.10,505.53 C128.01,513.48 127.62,522.72 127.83,529.50 C128.02,534.83 132.38,564.03 134.01,569.86 C134.61,571.98 136.00,575.01 137.93,578.87" fill="none" stroke="rgb(0, 255, 0)" stroke-width="2.34" stroke-opacity="1.00" stroke-linejoin="round"/>
<path d="M109.85,441.63 C108.79,441.86 107.07,443.01 106.09,445.45 C105.52,446.91 99.71,465.23 97.87,470.00 C97.50,470.94 90.35,490.10 88.96,495.64 C87.67,500.88 86.64,511.21 85.17,519.77 C84.24,525.76 84.02,538.08 83.95,544.69 C83.93,553.52 84.39,562.76 85.36,568.87 C85.75,571.24 87.00,576.16 87.70,578.89" fill="none" stroke="rgb(0, 255, 0)" stroke-width="2.34" stroke-opacity="1.00" stroke-linejoin="round"/>
<path d="M59.28,450.27 C59.28,450.27 59.05,448.00 59.05,448.00 C58.38,447.70 56.14,448.36 53.84,450.08 C52.49,451.11 49.74,454.51 48.48,456.96 C45.73,462.40 40.65,480.78 40.40,481.82 C39.78,484.37 35.17,507.77 35.03,512.05 C34.95,515.15 34.81,528.93 34.58,534.88 C34.30,540.97 35.43,553.20 36.67,560.01 C37.37,563.78 39.15,569.83 40.57,573.60 C42.40,578.37 47.90,588.23 48.52,589.33" fill="none" stroke="rgb(0, 255, 0)" stroke-width="2.34" stroke-opacity="1.00" stroke-linejoin="round"/>
<path d="M41.09,563.12 C40.22,560.86 38.77,544.97 38.55,540.70 C38.40,538.42 35.10,522.07 33.41,516.12 C32.32,512.33 25.50,498.72 24.69,496.23 C22.89,490.58 21.36,475.77 21.53,470.04 C21.64,466.73 22.31,459.67 23.36,455.35 C24.43,451.06 29.54,440.39 30.71,437.97" fill="none" stroke="rgb(0, 255, 0)" stroke-width="2.34" stroke-opacity="1.00" stroke-linejoin="round"/>
<path d="M249.09,496.35 C248.63,496.64 248.35,496.81 248.23,496.88 C248.11,496.94 248.00,496.99 247.89,497.01 C247.89,497.01 248.09,496.12 248.09,496.12 C247.60,495.49 241.55,494.39 240.53,494.13 C234.33,492.62 231.55,492.18 228.03,492.20 C224.65,492.24 218.09,493.09 215.45,493.81 C213.13,494.47 207.52,496.69 204.57,498.11 C201.97,499.39 197.60,503.04 196.09,505.15 C194.62,507.27 192.86,512.59 192.96,514.78 C193.13,517.26 195.41,521.41 197.71,523.05 C199.78,524.46 211.25,528.14 218.78,529.39 C222.57,530.01 225.61,530.24 229.96,529.63 C235.81,528.78 241.81,526.75 246.57,523.68 C248.60,522.35 251.12,519.73 252.62,517.56 C254.01,515.53 256.13,511.40 256.64,509.61 C257.21,507.51 257.14,502.99 256.35,501.47 C255.58,500.07 252.87,498.05 252.03,497.60 C251.50,497.32 248.68,496.00 247.86,495.61" fill="none" stroke="rgb(229, 0, 16)" stroke-width="2.34" stroke-opacity="1.00" stroke-linejoin="round"/>
<path d="M251.07,516.34 C251.07,516.34 249.77,516.59 249.77,516.59 C249.02,516.01 244.50,513.82 244.11,513.35 C243.79,512.96 242.51,510.05 242.24,510.07 C242.24,510.07 234.66,515.07 234.66,515.07 C234.43,515.07 231.55,509.91 228.76,507.90 C228.40,507.64 228.00,507.51 227.57,507.51 C226.26,507.91 221.11,511.28 220.05,511.88 C217.39,513.37 215.80,513.65 215.03,513.56 C215.03,513.56 209.78,505.13 209.78,505.13 C209.78,505.13 199.31,511.15 199.31,511.15 C199.31,511.15 198.38,504.62 198.38,504.62 C198.38,504.62 201.19,508.12 201.19,508.12 C201.19,508.12 201.07,503.36 201.07,503.36 C201.07,503.36 202.80,506.43 202.80,506.43 C202.80,506.43 203.98,500.11 203.98,500.11 C203.98,500.11 207.02,505.19 207.02,505.19 C207.02,505.19 207.35,497.98 207.35,497.98 C207.35,497.98 212.08,504.15 212.08,504.15 C212.08,504.15 211.31,497.65 211.31,497.65 C211.47,497.89 213.64,504.90 214.78,507.26 C215.42,508.59 216.09,509.35 216.49,509.46 C216.49,509.46 214.08,494.94 214.08,494.94 C214.08,494.94 220.63,511.38 220.63,511.38 C220.63,511.38 218.51,495.68 218.51,495.68 C218.51,495.68 224.48,508.90 224.48,508.90 C224.48,508.90 221.43,494.57 221.43,494.57 C221.43,494.57 228.29,509.41 228.29,509.41 C228.62,507.84 226.41,500.48 226.30,500.01 C225.74,497.80 225.44,495.73 225.44,494.40 C226.85,495.12 227.67,495.98 228.37,497.73 C230.39,503.54 233.22,511.40 233.94,512.04 C233.77,511.41 231.21,505.55 230.56,503.38 C229.11,498.41 229.27,495.51 229.46,494.43 C230.29,494.91 236.33,511.28 237.39,512.14 C237.50,512.23 237.73,512.32 238.08,512.42 C238.08,512.42 233.52,496.08 233.52,496.08 C235.70,498.29 240.03,508.01 241.55,512.91 C241.55,512.98 239.12,506.31 238.75,504.99 C237.84,501.77 237.27,497.17 237.64,496.85 C237.64,496.85 243.55,512.10 243.55,512.10 C243.55,512.10 241.41,497.45 241.41,497.45 C241.41,497.45 246.98,514.37 246.98,514.37 C246.98,514.37 244.80,496.86 244.80,496.86 C244.80,496.86 250.94,515.52 250.94,515.52 C249.09,510.67 248.56,502.42 248.75,499.89 C248.75,499.89 252.31,515.82 252.31,515.82 C252.31,515.82 251.96,501.37 251.96,501.37 C253.21,503.46 254.04,511.53 254.06,511.64 C254.10,511.96 254.20,512.48 254.33,513.20 C254.33,513.20 254.33,506.28 254.33,506.28 C254.33,506.28 254.77,508.94 254.77,508.94" fill="none" stroke="rgb(229, 0, 16)" stroke-width="2.34" stroke-opacity="1.00" stroke-linejoin="round"/>
<path d="M233.30,518.81 C233.30,518.81 233.21,517.97 233.21,517.97 C231.08,517.26 229.77,519.11 229.59,519.58 C231.87,521.57 234.38,519.85 234.69,519.46 C233.99,518.40 232.37,518.99 232.05,519.90 C232.94,520.97 233.66,521.34 234.50,520.99 C235.26,520.67 235.69,520.18 235.89,519.56 C235.89,519.56 232.31,519.79 232.31,519.79" fill="none" stroke="rgb(229, 0, 16)" stroke-width="2.34" stroke-opacity="1.00" stroke-linejoin="round"/>
<path d="M209.62,517.57 C209.50,517.42 209.42,517.32 209.37,517.26 C208.40,516.16 206.82,517.16 206.84,518.10 C207.43,518.97 209.49,519.11 210.24,518.34 C210.94,517.56 210.29,516.01 209.33,515.78 C209.33,515.78 208.35,516.57 208.35,516.57 C208.35,516.57 210.45,517.67 210.45,517.67 C210.45,517.67 209.68,515.92 209.68,515.92" fill="none" stroke="rgb(229, 0, 16)" stroke-width="2.34" stroke-opacity="1.00" stroke-linejoin="round"/>
<path d="M225.41,523.49 C225.30,523.47 225.17,523.47 225.04,523.49 C224.65,523.56 223.50,523.79 223.14,523.68 C221.81,523.29 214.58,523.21 213.82,523.29 C214.03,524.43 216.06,526.97 217.63,527.59 C221.09,528.84 224.44,525.92 224.94,525.42 C224.94,525.42 225.16,523.26 225.16,523.26" fill="none" stroke="rgb(229, 0, 16)" stroke-width="2.34" stroke-opacity="1.00" stroke-linejoin="round"/>
<path d="M212.58,529.91 C212.58,529.91 212.33,529.91 212.33,529.91 C212.52,531.31 212.80,532.73 213.14,533.75 C213.35,534.35 213.81,535.15 214.54,536.31" fill="none" stroke="rgb(229, 0, 16)" stroke-width="2.34" stroke-opacity="1.00" stroke-linejoin="round"/>
<path d="M227.13,530.65 C227.13,530.65 226.27,530.65 226.27,530.65 C226.27,530.65 225.90,531.08 225.90,531.08 C225.89,531.88 225.88,534.35 225.79,534.84 C225.51,536.31 220.05,538.06 218.01,537.97 C216.86,537.87 215.46,536.58 215.17,535.78 C215.01,535.30 214.86,532.90 214.80,532.13" fill="none" stroke="rgb(229, 0, 16)" stroke-width="2.34" stroke-opacity="1.00" stroke-linejoin="round"/>
<path d="M213.32,535.34 C213.11,535.34 212.98,535.34 212.96,535.34 C212.36,535.27 208.78,538.45 205.23,542.71 C202.32,546.24 200.88,549.92 200.54,551.60 C199.97,554.50 200.00,560.04 200.19,560.73 C200.77,561.24 204.78,561.24 207.33,561.24 C210.02,561.21 211.27,560.40 211.29,559.43 C211.14,552.21 211.78,545.59 211.99,544.83 C211.99,544.83 212.58,545.21 212.58,545.21" fill="none" stroke="rgb(229, 0, 16)" stroke-width="2.34" stroke-opacity="1.00" stroke-linejoin="round"/>
<path d="M201.97,561.74 C201.97,561.74 201.66,561.24 201.66,561.24 C201.66,561.24 201.04,561.49 201.04,561.49 C200.15,563.05 199.94,566.07 200.46,567.12 C201.09,568.27 203.62,569.32 205.05,568.81 C206.43,568.27 208.65,565.70 209.37,563.97 C209.94,562.53 209.82,561.32 209.62,559.76" fill="none" stroke="rgb(229, 0, 16)" stroke-width="2.34" stroke-opacity="1.00" stroke-linejoin="round"/>
<path d="M212.82,546.69 C212.82,546.69 211.96,547.18 211.96,547.18 C211.89,546.97 211.92,546.61 212.17,546.13 C213.16,544.27 214.55,543.67 215.32,544.13 C216.14,544.67 217.59,547.09 217.99,548.72 C218.59,551.26 217.83,557.30 217.79,559.28 C217.73,562.28 217.98,568.82 218.11,571.78 C218.23,573.88 218.78,575.59 219.89,575.98 C221.41,576.48 227.28,576.33 229.30,575.68 C230.15,575.38 230.67,573.71 230.44,569.28 C230.27,566.08 230.46,551.40 230.86,550.49 C231.31,549.53 233.02,548.90 233.75,549.10 C234.73,549.42 236.43,551.56 236.75,553.00 C237.22,555.28 237.42,561.81 238.14,563.84 C238.44,564.63 239.60,565.71 240.29,565.67 C241.06,565.61 244.41,564.25 245.19,563.77 C245.83,563.34 245.50,559.00 244.85,556.41 C244.16,553.73 237.27,542.05 237.21,541.97 C236.36,540.86 232.98,537.90 232.19,537.08 C231.81,536.69 231.19,535.94 230.34,534.84" fill="none" stroke="rgb(229, 0, 16)" stroke-width="2.34" stroke-opacity="1.00" stroke-linejoin="round"/>
<path d="M241.20,565.93 C241.20,565.93 240.29,566.33 240.29,566.33 C240.06,568.74 242.00,572.04 243.10,572.42 C245.74,571.76 246.85,566.67 247.23,563.99 C247.23,563.99 246.13,562.48 246.13,562.48" fill="none" stroke="rgb(229, 0, 16)" stroke-width="2.34" stroke-opacity="1.00" stroke-linejoin="round"/>
<path d="M221.71,577.03 C220.52,577.78 220.32,577.97 220.16,579.35 C219.66,583.75 213.48,598.18 212.76,600.70 C212.45,601.79 212.42,602.73 212.53,603.68 C212.53,603.68 212.82,603.93 212.82,603.93" fill="none" stroke="rgb(229, 0, 16)" stroke-width="2.34" stroke-opacity="1.00" stroke-linejoin="round"/>
<path d="M221.95,604.17 C221.95,604.17 222.08,604.42 222.08,604.42 C223.02,603.43 225.59,599.09 226.50,596.43 C226.58,596.17 228.46,587.90 229.04,586.31 C229.04,586.31 228.20,588.23 228.20,588.23" fill="none" stroke="rgb(229, 0, 16)" stroke-width="2.34" stroke-opacity="1.00" stroke-linejoin="round"/>
<path d="M219.49,606.64 C219.49,606.64 218.64,606.85 218.64,606.85 C218.00,606.09 215.86,605.24 212.78,605.01 C209.67,604.79 206.91,606.11 206.57,606.40 C206.25,607.32 207.59,609.48 209.83,610.55 C211.03,611.09 214.45,611.12 216.10,610.63 C217.88,610.06 218.84,609.30 220.14,608.06 C220.14,608.06 220.47,603.93 220.47,603.93" fill="none" stroke="rgb(229, 0, 16)" stroke-width="2.34" stroke-opacity="1.00" stroke-linejoin="round"/>
<path d="M231.82,586.16 C231.82,586.16 231.70,586.53 231.70,586.53 C231.70,586.53 231.33,586.66 231.33,586.66 C231.33,586.66 233.39,587.37 234.56,589.93 C236.03,593.18 238.07,601.00 238.76,602.90 C238.76,602.90 250.43,598.00 250.43,598.00 C250.43,598.00 237.41,575.65 237.41,575.65 C237.41,575.65 237.50,576.29 237.50,576.29" fill="none" stroke="rgb(229, 0, 16)" stroke-width="2.34" stroke-opacity="1.00" stroke-linejoin="round"/>
<path d="M248.85,598.75 C248.80,598.75 248.76,598.75 248.72,598.75 C248.60,598.75 248.48,598.75 248.35,598.75 C248.37,598.88 250.06,602.09 250.07,603.57 C250.05,604.78 247.87,607.18 246.79,607.56 C245.35,607.98 239.65,607.45 238.59,606.43 C237.31,605.07 237.28,603.77 237.61,603.01 C237.74,602.74 237.86,602.47 237.99,602.20" fill="none" stroke="rgb(229, 0, 16)" stroke-width="2.34" stroke-opacity="1.00" stroke-linejoin="round"/>
</g>
</svg>
