<?xml version="1.0" encoding="UTF-8" standalone="no"?>
<!DOCTYPE svg PUBLIC "-//W3C//DTD SVG 1.1//EN" "http://www.w3.org/Graphics/SVG/1.1/DTD/svg11.dtd">
<svg width="128.40" height="181.68" viewBox="0.00 0.00 535.00 757.00" xmlns="http://www.w3.org/2000/svg" xmlns:xlink="http://www.w3.org/1999/xlink">
<g stroke-linecap="round" id="156">
<path d="M136.64,24.51 C136.48,24.54 135.86,24.24 135.58,24.12 C133.66,23.29 128.58,19.67 126.21,18.92 C123.61,18.13 116.84,16.79 115.46,16.75 C112.87,16.72 108.72,18.72 107.30,19.75 C104.56,21.78 99.55,27.34 97.96,30.48 C96.61,33.22 95.08,37.97 95.00,38.90 C94.96,39.41 94.95,40.60 94.96,42.47" fill="none" stroke="rgb(0, 153, 67)" stroke-width="3.42" stroke-opacity="1.00" stroke-linejoin="round"/>
<path d="M93.24,57.66 C91.01,57.64 89.69,57.64 89.27,57.66 C88.19,57.73 85.85,61.18 85.13,63.90 C84.42,66.70 84.35,73.36 85.15,76.46 C86.00,79.61 89.85,85.04 91.88,86.45 C93.83,87.76 99.08,89.89 101.50,90.22 C103.96,90.53 108.13,89.82 110.47,88.66 C112.63,87.55 117.45,84.15 119.34,82.49 C124.00,78.33 125.58,74.43 125.79,72.92 C126.49,75.41 129.50,80.62 131.31,82.48 C133.73,84.90 138.43,87.67 141.56,87.92 C143.96,88.06 151.28,86.59 153.66,85.75 C155.70,85.02 161.94,81.81 163.60,80.09 C165.44,78.14 167.30,73.24 167.94,69.53 C168.32,67.26 168.51,65.53 168.59,63.96 C169.71,65.30 171.19,66.18 173.78,66.94 C176.77,67.79 181.98,68.40 185.26,68.05 C188.59,67.66 193.73,65.52 195.51,63.68 C197.17,61.91 199.24,57.17 199.73,54.47 C200.12,52.23 200.33,46.69 200.17,44.40 C199.92,41.60 198.05,36.20 195.39,34.57 C192.88,33.08 188.29,32.63 184.49,32.61 C184.44,32.45 185.89,26.78 185.64,24.31 C185.36,21.92 183.68,18.31 182.11,16.84 C180.70,15.55 176.76,13.67 175.04,13.28 C170.75,12.37 152.01,12.60 149.16,13.22 C148.53,13.37 141.51,16.22 139.75,17.48 C138.15,18.64 135.48,21.41 134.83,22.10" fill="none" stroke="rgb(0, 153, 67)" stroke-width="3.42" stroke-opacity="1.00" stroke-linejoin="round"/>
<path d="M333.76,49.83 C333.72,49.44 333.85,48.63 334.06,48.16 C334.57,46.91 334.05,41.10 332.98,38.15 C332.73,37.52 331.15,34.42 330.53,33.87 C327.98,31.67 322.53,30.61 320.79,30.42 C318.23,30.16 314.90,30.54 310.64,31.77 C308.18,32.52 306.06,33.44 304.84,34.41 C302.44,36.38 300.04,41.77 299.58,44.44 C299.21,46.87 299.53,51.17 300.24,53.55 C300.99,55.94 302.82,59.24 304.34,60.91 C305.67,62.34 309.40,65.31 311.26,66.39 C313.41,67.60 318.83,69.49 321.30,69.77 C324.10,70.05 329.57,69.05 332.10,67.80 C336.55,65.54 341.98,58.68 342.35,57.46 C342.92,55.37 342.54,52.31 341.32,50.74 C340.30,49.49 337.00,47.35 335.57,46.95 C334.02,46.59 331.98,47.16 330.89,48.21 C328.91,50.23 324.88,55.65 324.53,57.93 C324.38,59.26 325.18,62.58 326.04,63.94 C327.89,66.74 332.87,69.46 334.69,69.98 C335.98,70.33 337.77,70.49 339.05,70.40 C339.66,70.34 342.51,69.94 344.01,69.72" fill="none" stroke="rgb(0, 153, 67)" stroke-width="3.42" stroke-opacity="1.00" stroke-linejoin="round"/>
<path d="M304.82,55.25 C305.34,55.59 307.46,58.71 310.52,59.91 C313.76,61.10 318.51,61.04 321.36,59.96 C323.63,59.04 326.31,57.19 330.53,54.02" fill="none" stroke="rgb(0, 153, 67)" stroke-width="3.42" stroke-opacity="1.00" stroke-linejoin="round"/>
<path d="M342.80,70.93 C342.80,70.93 342.86,69.12 342.86,69.12 C346.55,69.67 350.52,69.78 353.84,69.16 C359.84,67.97 375.27,61.65 377.34,59.58 C378.45,58.40 379.85,55.34 379.85,53.94 C379.80,52.32 378.13,50.10 376.36,48.98 C373.51,47.28 364.11,46.21 362.15,46.35 C359.40,46.56 357.51,47.40 356.13,48.90 C355.66,50.74 356.86,54.28 358.75,56.31 C360.88,58.53 366.56,60.92 369.17,61.33 C371.26,61.63 376.50,61.57 378.92,61.14 C387.16,59.65 400.15,54.95 402.42,52.65 C404.13,50.84 405.53,46.69 404.89,44.67 C404.33,43.06 401.05,39.41 399.01,38.21 C395.11,36.00 392.48,36.48 391.70,36.97 C394.53,37.99 396.12,38.33 397.42,38.02 C400.10,37.38 404.69,35.28 407.22,32.94 C409.48,30.79 411.18,26.53 410.66,24.45 C410.07,22.40 406.87,19.43 403.94,18.09 C400.78,16.69 395.54,15.22 392.59,14.81 C387.51,14.15 376.17,15.20 371.39,16.77 C369.49,17.41 364.66,19.98 363.28,21.59 C362.42,22.61 361.94,24.27 362.16,24.93 C362.43,25.49 364.06,26.34 365.20,26.36 C366.60,26.33 369.21,24.56 369.95,23.07 C370.66,21.54 370.60,18.27 369.90,16.70 C368.93,14.72 362.12,9.77 359.66,8.55 C357.97,7.73 353.18,6.46 350.85,6.38 C348.87,6.32 343.40,6.98 340.84,8.02 C338.52,9.00 332.27,12.67 329.39,15.10 C326.71,17.39 322.61,21.55 321.77,23.11 C321.41,23.80 320.30,26.07 319.89,26.92" fill="none" stroke="rgb(0, 153, 67)" stroke-width="3.42" stroke-opacity="1.00" stroke-linejoin="round"/>
<path d="M201.14,57.06 C201.14,57.06 198.07,55.86 198.07,55.86 C197.86,57.32 198.35,58.81 199.91,61.14 C205.22,69.03 226.56,96.71 236.68,109.66 C240.26,114.45 248.27,125.89 252.39,132.19 C256.30,138.40 266.15,154.45 267.56,156.44 C271.99,162.14 278.64,171.05 280.87,174.27" fill="none" stroke="rgb(0, 255, 255)" stroke-width="3.42" stroke-opacity="1.00" stroke-linejoin="round"/>
<path d="M289.15,181.84 C289.15,181.84 289.45,183.95 289.45,183.95 C290.70,185.16 293.18,187.21 294.05,188.02 C294.54,188.48 299.36,193.92 300.19,194.85" fill="none" stroke="rgb(0, 255, 255)" stroke-width="3.42" stroke-opacity="1.00" stroke-linejoin="round"/>
<path d="M287.94,62.49 C287.32,62.99 287.40,65.67 288.86,68.15 C291.26,72.15 300.57,81.90 305.13,86.59 C311.22,93.10 342.28,133.34 343.02,134.15 C347.69,138.95 355.18,146.89 360.97,155.21 C365.35,161.56 376.33,176.54 376.77,177.14 C379.07,180.29 389.68,196.37 393.45,202.14" fill="none" stroke="rgb(0, 255, 255)" stroke-width="3.42" stroke-opacity="1.00" stroke-linejoin="round"/>
<path d="M421.16,136.63 C420.54,141.09 420.75,143.11 422.46,145.43 C429.54,154.97 434.91,163.31 436.81,167.35 C438.44,170.86 445.61,189.20 448.37,196.28 C449.27,198.45 460.32,220.27 461.48,222.93 C461.84,223.73 462.94,226.95 463.57,228.82" fill="none" stroke="rgb(0, 255, 255)" stroke-width="3.42" stroke-opacity="1.00" stroke-linejoin="round"/>
<path d="M429.60,278.29 C430.41,279.85 431.87,282.71 432.53,284.02 C437.51,293.94 441.89,303.87 444.71,311.26 C449.85,325.85 460.27,356.43 462.43,366.58 C463.30,370.86 468.94,408.09 469.28,411.47 C469.58,414.44 469.66,418.88 469.53,421.26" fill="none" stroke="rgb(0, 255, 255)" stroke-width="3.42" stroke-opacity="1.00" stroke-linejoin="round"/>
<path d="M397.65,330.13 C397.65,330.13 398.26,330.13 398.26,330.13 C398.26,330.13 390.79,327.89 390.79,327.89 C391.69,330.52 401.52,344.72 405.74,350.94 C408.55,355.29 418.61,373.25 420.80,377.75 C422.57,381.41 429.01,396.31 430.58,401.77 C430.92,402.94 431.58,405.51 431.80,406.40" fill="none" stroke="rgb(0, 255, 255)" stroke-width="3.42" stroke-opacity="1.00" stroke-linejoin="round"/>
<path d="M346.42,404.28 C346.50,408.53 347.37,411.70 349.64,414.20 C353.71,418.39 361.16,426.22 367.47,434.81 C371.92,441.14 380.95,453.92 385.39,459.92 C391.78,468.15 402.37,480.70 403.88,482.64 C406.75,486.34 409.19,490.23 409.74,491.10" fill="none" stroke="rgb(0, 255, 255)" stroke-width="3.42" stroke-opacity="1.00" stroke-linejoin="round"/>
<path d="M429.00,525.44 C429.00,525.44 427.32,525.44 427.32,525.44 C427.26,525.14 425.22,526.76 425.59,534.00 C426.00,541.23 428.50,549.57 432.58,560.68 C436.47,571.34 439.14,579.71 441.62,589.11 C443.60,597.52 445.15,605.73 446.65,615.59 C448.26,627.04 447.81,646.95 447.69,651.42" fill="none" stroke="rgb(0, 255, 255)" stroke-width="3.42" stroke-opacity="1.00" stroke-linejoin="round"/>
<path d="M290.96,661.67 C290.96,661.67 291.86,663.18 291.86,663.18 C291.86,663.18 293.32,663.33 293.32,663.33 C293.32,663.33 295.18,661.10 295.18,661.10 C295.18,661.10 288.74,662.12 288.74,662.12 C290.64,664.41 304.26,676.82 310.90,682.89 C319.66,691.37 326.21,698.38 333.92,707.27 C336.06,709.78 338.99,713.20 339.79,714.12" fill="none" stroke="rgb(0, 255, 255)" stroke-width="3.42" stroke-opacity="1.00" stroke-linejoin="round"/>
<path d="M197.52,657.45 C197.52,657.45 197.52,657.75 197.52,657.75 C199.47,659.54 213.43,670.90 220.14,676.37 C228.71,683.57 233.93,688.44 240.33,694.91 C250.63,705.54 261.51,719.16 263.23,721.35" fill="none" stroke="rgb(0, 255, 255)" stroke-width="3.42" stroke-opacity="1.00" stroke-linejoin="round"/>
<path d="M92.64,526.64 C92.63,527.85 92.63,528.60 92.64,528.90 C92.64,529.21 92.67,529.48 92.71,529.73 C96.47,533.30 101.46,540.09 108.27,550.96 C110.83,554.94 120.87,566.16 124.69,571.20 C126.94,574.18 135.45,586.55 139.26,592.45 C143.38,599.17 151.12,612.35 153.35,617.89 C154.87,621.73 158.70,635.68 159.55,638.77" fill="none" stroke="rgb(0, 255, 255)" stroke-width="3.42" stroke-opacity="1.00" stroke-linejoin="round"/>
<path d="M67.92,671.92 C67.92,671.92 66.72,675.84 66.72,675.84 C68.24,678.53 70.70,680.30 75.99,683.98 C84.15,689.76 96.34,700.09 99.09,703.47 C101.73,706.74 105.30,712.32 106.98,716.14 C107.68,717.75 109.70,723.93 110.64,727.41 C111.00,728.77 111.64,731.16 111.93,732.20" fill="none" stroke="rgb(0, 255, 255)" stroke-width="3.42" stroke-opacity="1.00" stroke-linejoin="round"/>
<path d="M180.65,410.91 C180.02,415.08 180.32,417.79 182.07,421.00 C184.45,425.27 187.95,431.02 190.06,434.48 C192.33,438.12 196.39,444.59 198.17,447.40" fill="none" stroke="rgb(0, 255, 255)" stroke-width="3.42" stroke-opacity="1.00" stroke-linejoin="round"/>
<path d="M70.94,318.07 C72.85,322.39 79.26,331.00 85.79,340.94 C90.29,347.94 98.71,361.09 102.63,367.24 C106.71,373.75 114.53,386.02 118.27,391.79" fill="none" stroke="rgb(0, 255, 255)" stroke-width="3.42" stroke-opacity="1.00" stroke-linejoin="round"/>
<path d="M97.46,142.66 C97.46,142.66 95.95,142.06 95.95,142.06 C95.95,142.06 95.81,141.53 95.81,141.53 C98.60,143.68 101.13,146.93 103.22,150.19 C109.41,159.94 116.14,168.64 123.09,176.07 C129.41,182.95 136.72,191.45 141.42,195.89 C144.58,198.86 156.43,208.86 159.10,211.10 C160.67,212.40 163.00,214.35 163.77,215.00" fill="none" stroke="rgb(0, 255, 255)" stroke-width="3.42" stroke-opacity="1.00" stroke-linejoin="round"/>
<path d="M262.63,249.36 C262.60,249.31 262.60,249.21 262.63,249.05 C262.71,248.27 262.68,247.75 262.53,247.48 C261.68,246.01 253.87,243.54 251.73,243.11 C248.70,242.53 239.32,241.68 236.09,241.82 C231.80,242.03 217.71,245.00 213.54,246.86 C209.59,248.66 204.43,252.31 202.80,254.62 C201.76,256.24 200.31,258.41 199.69,258.40 C196.48,258.20 192.15,258.14 188.72,258.29 C185.18,258.48 179.89,259.96 176.83,262.06 C174.12,263.98 170.76,267.66 170.91,268.68 C171.57,269.58 173.81,269.59 176.96,269.03 C179.91,268.49 186.93,266.63 188.89,265.87 C192.59,264.43 202.54,258.95 203.55,258.40" fill="none" stroke="rgb(228, 0, 126)" stroke-width="3.42" stroke-opacity="1.00" stroke-linejoin="round"/>
<path d="M268.05,240.92 C268.04,236.63 268.40,232.90 268.98,230.49 C269.48,228.39 271.74,221.86 273.02,219.73 C274.17,217.83 279.17,214.54 281.57,213.44 C286.76,211.14 291.82,212.77 292.47,213.29 C292.92,215.12 291.31,218.75 289.33,221.41 C286.94,224.55 270.46,240.28 269.47,242.22 C269.18,242.80 268.88,245.91 268.65,247.55" fill="none" stroke="rgb(228, 0, 126)" stroke-width="3.42" stroke-opacity="1.00" stroke-linejoin="round"/>
<path d="M271.07,255.38 C271.07,255.38 268.35,256.59 268.35,256.59 C268.20,255.55 267.93,253.73 267.45,253.26 C265.89,251.70 264.06,250.75 263.17,250.91 C262.56,253.72 262.63,255.29 263.57,256.39 C263.86,256.73 264.15,257.06 264.45,257.39 C264.45,257.39 259.70,258.90 259.70,258.90 C259.70,258.90 263.26,262.38 263.26,262.38 C263.26,262.38 262.66,264.13 262.66,264.13 C263.13,264.88 263.93,265.34 265.53,265.60 C269.82,266.26 273.59,267.14 276.23,268.42 C279.56,270.08 285.89,274.70 286.66,275.88 C287.97,277.99 288.21,281.92 288.74,288.14 C288.91,290.06 289.26,294.02 289.45,296.07 C289.79,299.96 289.80,304.89 289.75,306.62" fill="none" stroke="rgb(228, 0, 126)" stroke-width="3.42" stroke-opacity="1.00" stroke-linejoin="round"/>
<path d="M270.46,254.78 C270.46,254.78 268.11,254.09 268.11,254.09 C271.05,253.80 273.33,254.11 278.24,256.26 C279.05,256.61 290.97,261.47 291.91,261.90 C294.95,263.29 298.58,266.36 299.79,268.12 C301.54,270.78 302.72,276.42 302.74,280.54 C302.62,310.60 302.84,313.56 303.12,315.54 C303.28,316.79 303.45,318.03 303.62,319.28" fill="none" stroke="rgb(228, 0, 126)" stroke-width="3.42" stroke-opacity="1.00" stroke-linejoin="round"/>
<path d="M284.93,305.42 C284.92,305.68 284.92,305.88 284.93,306.02 C284.96,306.53 284.96,306.85 284.93,306.98 C282.73,318.45 275.40,333.77 274.66,335.06 C274.66,335.06 269.33,319.98 269.33,319.98 C264.83,323.53 259.12,331.30 258.89,332.44 C258.78,333.01 258.11,338.62 257.90,339.47 C257.78,339.98 251.88,345.49 250.86,346.13 C249.03,347.22 243.07,348.26 241.86,348.01 C240.52,347.69 234.42,339.98 233.77,339.35 C231.14,336.85 228.04,336.44 225.79,336.48 C225.17,337.00 226.19,342.96 226.67,345.84 C226.80,346.64 226.88,347.28 226.92,347.74 C226.95,348.15 227.00,349.11 227.06,350.63" fill="none" stroke="rgb(228, 0, 126)" stroke-width="3.42" stroke-opacity="1.00" stroke-linejoin="round"/>
<path d="M226.46,347.61 C225.97,347.59 225.67,347.55 225.55,347.50 C223.22,346.46 214.99,338.35 214.51,338.18 C213.56,337.86 211.55,338.24 210.90,338.92 C209.19,340.76 198.66,361.57 198.60,361.74 C198.51,361.99 198.49,362.30 198.55,362.68 C198.55,362.68 218.80,381.04 218.80,381.04 C218.47,385.05 221.35,402.14 222.23,406.02 C223.07,409.75 227.49,426.58 228.49,432.59 C229.56,439.12 230.53,449.41 231.09,451.56 C231.46,452.85 232.51,454.18 233.41,454.38 C234.99,454.67 258.43,453.66 271.20,452.31 C275.30,451.82 278.91,450.15 281.17,448.14 C283.29,446.20 296.91,432.37 303.19,425.94 C308.75,420.11 321.87,402.15 322.23,400.75 C322.45,399.79 321.73,397.83 320.86,396.60 C316.67,391.50 308.17,380.33 303.93,374.11 C298.75,366.42 293.71,356.21 293.74,354.66 C298.79,346.60 302.70,338.57 304.64,332.02 C305.10,330.35 305.56,327.15 305.45,325.65 C305.22,323.06 302.31,319.62 298.83,316.38 C296.22,314.06 284.50,305.65 283.96,304.68 C283.88,304.53 283.80,304.37 283.72,304.21" fill="none" stroke="rgb(228, 0, 126)" stroke-width="3.42" stroke-opacity="1.00" stroke-linejoin="round"/>
<path d="M259.01,348.82 C257.51,350.19 256.56,351.01 256.10,351.13 C254.58,351.18 252.84,351.28 252.36,351.61 C251.54,354.51 253.56,361.52 255.00,364.24 C256.54,363.35 257.33,362.36 257.68,360.56 C257.97,358.98 258.12,356.60 257.85,355.55 C257.54,354.37 256.47,351.48 256.45,350.92 C258.35,346.71 263.91,341.65 264.42,341.52 C264.42,341.52 267.15,362.70 267.15,362.70 C266.18,362.82 260.97,361.93 258.12,361.45 C257.01,361.26 255.90,361.06 254.79,360.87" fill="none" stroke="rgb(228, 0, 126)" stroke-width="3.42" stroke-opacity="1.00" stroke-linejoin="round"/>
<path d="M249.97,356.65 C249.97,356.65 248.16,357.86 248.16,357.86 C247.77,357.93 242.74,357.09 239.15,357.41 C236.55,357.68 235.76,358.25 235.35,358.87 C235.46,362.06 242.62,372.62 244.58,374.06 C246.85,373.23 248.02,372.39 248.90,370.73 C250.35,367.97 251.94,365.23 252.38,364.49" fill="none" stroke="rgb(228, 0, 126)" stroke-width="3.42" stroke-opacity="1.00" stroke-linejoin="round"/>
<path d="M238.51,333.14 C238.15,333.69 237.66,337.59 238.15,339.54 C238.44,340.61 240.05,344.49 240.64,345.44 C240.92,345.90 241.55,346.76 242.52,348.02" fill="none" stroke="rgb(228, 0, 126)" stroke-width="3.42" stroke-opacity="1.00" stroke-linejoin="round"/>
<path d="M251.17,328.93 C251.17,328.93 250.27,329.23 250.27,329.23 C250.27,329.23 250.08,330.16 250.08,330.16 C250.76,331.40 251.56,332.60 253.19,334.74 C254.03,335.84 255.54,337.83 256.22,338.72" fill="none" stroke="rgb(228, 0, 126)" stroke-width="3.42" stroke-opacity="1.00" stroke-linejoin="round"/>
<path d="M268.65,296.98 C268.65,296.98 268.05,296.98 268.05,296.98 C267.63,298.79 265.83,306.32 264.59,309.91 C262.59,315.54 260.71,319.83 258.87,322.52 C256.85,325.38 253.24,328.06 248.60,330.43 C245.02,332.23 241.02,333.83 238.75,333.94 C236.95,334.00 231.87,332.39 228.66,331.80 C223.13,330.81 219.28,329.64 217.02,327.88 C213.65,325.17 210.74,321.97 208.59,318.61 C206.62,315.46 203.27,305.74 203.00,305.17 C202.82,304.80 202.40,304.07 201.74,303.00" fill="none" stroke="rgb(228, 0, 126)" stroke-width="3.42" stroke-opacity="1.00" stroke-linejoin="round"/>
<path d="M190.29,278.89 C190.06,278.80 187.17,279.56 186.70,279.19 C186.11,278.67 185.49,277.66 185.47,276.76 C185.45,275.62 185.83,272.44 186.18,270.16 C187.08,269.57 188.32,269.73 190.73,271.01 C191.86,271.63 193.00,272.25 194.13,272.86 C194.13,272.86 196.41,264.61 196.41,264.61 C197.74,264.81 198.29,265.60 198.66,268.10 C198.74,268.66 198.87,269.40 199.05,270.31 C199.05,270.31 204.90,267.76 204.90,267.76 C205.52,268.59 205.38,269.95 204.27,272.30 C203.96,272.96 201.89,277.51 202.19,278.19 C202.19,278.19 203.62,279.00 203.62,279.00 C202.54,280.29 197.95,283.11 197.25,284.36 C197.24,284.38 195.34,290.79 193.80,293.57 C192.07,296.70 188.86,304.61 188.39,306.57 C187.85,308.99 190.06,314.35 191.29,316.20 C192.18,317.52 204.84,334.46 207.23,338.78 C207.42,339.12 207.80,339.85 208.37,340.98" fill="none" stroke="rgb(228, 0, 126)" stroke-width="3.42" stroke-opacity="1.00" stroke-linejoin="round"/>
<path d="M187.28,279.50 C187.07,280.19 186.39,283.61 186.21,283.94 C184.49,287.20 181.28,295.45 180.70,296.81 C178.18,302.74 177.79,304.09 177.62,307.15 C177.48,309.96 176.99,315.36 177.20,316.51 C177.75,319.38 183.87,330.38 189.65,339.65 C191.91,343.22 197.24,351.57 197.56,352.05 C198.41,353.28 199.83,355.17 200.54,356.05" fill="none" stroke="rgb(228, 0, 126)" stroke-width="3.42" stroke-opacity="1.00" stroke-linejoin="round"/>
<path d="M196.32,292.15 C196.32,292.15 196.32,291.35 196.32,291.35 C196.32,291.35 195.72,290.56 195.72,290.56 C195.72,290.56 202.95,307.77 202.95,307.77 C203.43,304.91 213.45,288.24 214.93,287.18 C215.12,287.05 215.55,286.90 216.21,286.73" fill="none" stroke="rgb(228, 0, 126)" stroke-width="3.42" stroke-opacity="1.00" stroke-linejoin="round"/>
<path d="M213.80,288.54 C213.80,288.54 212.29,288.84 212.29,288.84 C211.75,289.94 213.94,296.01 216.36,298.39 C218.50,300.44 220.96,300.52 221.69,300.31 C222.21,299.90 221.89,293.90 222.65,291.29 C224.23,286.10 230.08,278.75 231.57,277.79 C231.75,278.19 232.19,285.66 233.21,288.31 C233.33,288.62 233.54,288.94 233.82,289.28 C235.13,288.43 235.84,287.53 236.63,285.43 C238.62,280.29 241.55,273.73 242.58,273.17 C242.99,272.95 244.05,272.65 245.75,272.26" fill="none" stroke="rgb(228, 0, 126)" stroke-width="3.42" stroke-opacity="1.00" stroke-linejoin="round"/>
<path d="M244.54,274.67 C244.54,274.67 241.53,276.88 241.53,276.88 C241.89,278.65 246.93,284.02 247.97,285.18 C249.03,286.34 251.87,289.75 252.36,290.22 C253.89,291.68 255.66,292.74 256.33,292.76 C256.33,292.76 256.60,294.23 256.60,294.23 C256.45,288.34 259.90,284.26 260.43,284.10 C260.43,284.10 265.97,290.17 265.97,290.17 C265.97,290.17 269.26,273.47 269.26,273.47 C269.26,273.47 269.85,272.61 269.85,272.61 C270.30,273.65 271.19,281.51 271.28,283.15 C271.46,287.31 270.25,291.88 268.76,294.71 C268.12,295.86 267.48,297.02 266.85,298.18" fill="none" stroke="rgb(228, 0, 126)" stroke-width="3.42" stroke-opacity="1.00" stroke-linejoin="round"/>
<path d="M257.20,275.88 C257.20,275.88 255.40,275.96 255.40,275.96 C254.65,277.37 246.91,298.14 246.77,298.50 C245.97,300.64 245.36,302.52 245.41,302.60 C245.41,302.60 245.75,301.80 245.75,301.80" fill="none" stroke="rgb(228, 0, 126)" stroke-width="3.42" stroke-opacity="1.00" stroke-linejoin="round"/>
<path d="M210.18,290.95 C210.18,290.95 207.17,290.95 207.17,290.95 C207.17,290.95 208.36,290.53 208.36,290.53 C210.34,291.59 218.84,301.08 220.36,302.17 C220.64,302.36 221.06,302.64 221.64,303.00" fill="none" stroke="rgb(228, 0, 126)" stroke-width="3.42" stroke-opacity="1.00" stroke-linejoin="round"/>
<path d="M242.73,301.80 C242.73,301.80 238.41,301.80 238.41,301.80 C237.94,302.23 235.20,306.17 234.65,309.50 C234.56,310.07 233.77,322.31 233.28,324.08 C233.31,324.31 236.92,321.53 240.33,319.73 C242.36,318.66 256.36,311.97 257.71,310.99 C253.85,309.34 246.76,304.39 245.61,303.43 C244.27,302.31 242.77,300.79 242.13,299.99" fill="none" stroke="rgb(228, 0, 126)" stroke-width="3.42" stroke-opacity="1.00" stroke-linejoin="round"/>
<path d="M244.54,459.13 C243.71,459.47 243.21,459.67 243.04,459.73 C242.87,459.79 242.79,459.79 242.81,459.73 C245.35,461.38 247.13,462.72 248.24,464.07 C251.26,467.77 261.89,486.98 263.63,489.12 C264.95,489.43 268.60,488.42 271.14,486.99 C287.75,477.41 299.59,471.54 300.81,470.37 C300.39,468.78 296.61,462.36 294.92,458.79 C291.60,451.73 289.59,445.36 289.35,444.31 C298.54,456.86 311.54,470.10 312.04,470.31 C313.23,467.53 324.38,454.91 329.24,449.60 C330.75,447.84 331.50,446.26 331.07,445.38 C328.19,440.57 317.43,416.44 316.94,415.33 C316.94,415.33 318.08,416.93 318.08,416.93" fill="none" stroke="rgb(228, 0, 126)" stroke-width="3.42" stroke-opacity="1.00" stroke-linejoin="round"/>
<path d="M324.11,436.83 C324.07,437.04 323.97,437.24 323.81,437.43 C323.38,437.96 322.11,439.50 321.92,439.76 C321.67,440.11 310.02,454.80 306.93,458.67 C306.93,458.67 306.63,458.53 306.63,458.53" fill="none" stroke="rgb(228, 0, 126)" stroke-width="3.42" stroke-opacity="1.00" stroke-linejoin="round"/>
<path d="M286.74,472.39 C286.74,472.39 262.69,480.12 262.69,480.12 C262.69,480.12 265.64,479.63 265.64,479.63" fill="none" stroke="rgb(228, 0, 126)" stroke-width="3.42" stroke-opacity="1.00" stroke-linejoin="round"/>
<path d="M283.12,488.06 C282.82,488.06 282.52,488.06 282.22,488.06 C281.92,488.06 281.62,488.06 281.31,488.06 C281.31,488.06 289.80,508.14 289.80,508.14 C289.80,508.14 290.36,507.35 290.36,507.35" fill="none" stroke="rgb(228, 0, 126)" stroke-width="3.42" stroke-opacity="1.00" stroke-linejoin="round"/>
<path d="M295.18,476.01 C295.18,476.01 293.67,476.91 293.67,476.91 C293.51,477.28 293.43,477.57 293.45,477.76 C293.52,478.36 297.55,485.95 298.53,488.93 C299.51,491.99 301.38,499.57 301.56,499.92 C301.69,500.18 302.02,500.57 302.53,501.09 C308.98,500.44 316.93,500.46 319.36,500.98 C320.14,501.18 320.43,502.67 320.47,505.58 C320.46,511.15 319.76,518.43 319.58,520.05 C319.58,520.05 312.11,509.24 312.11,509.24 C310.00,511.26 305.60,512.28 301.69,512.45 C297.81,512.57 294.32,511.87 292.17,510.62 C291.37,510.13 290.56,509.65 289.75,509.16" fill="none" stroke="rgb(228, 0, 126)" stroke-width="3.42" stroke-opacity="1.00" stroke-linejoin="round"/>
<path d="M313.86,463.95 C313.86,463.95 312.66,466.36 312.66,466.36 C312.71,466.47 320.11,474.77 325.01,482.64 C329.22,489.51 339.10,505.28 339.59,506.49 C340.60,508.96 342.79,513.39 343.33,514.46 C343.33,514.46 343.12,522.02 343.12,522.02 C346.16,520.79 348.42,519.24 350.57,516.08 C352.28,513.54 355.37,508.94 355.56,506.97 C350.20,498.81 345.01,490.41 341.62,483.84 C337.70,476.04 331.16,461.81 329.28,458.14 C328.07,455.72 325.79,451.09 324.72,448.88" fill="none" stroke="rgb(228, 0, 126)" stroke-width="3.42" stroke-opacity="1.00" stroke-linejoin="round"/>
<path d="M299.40,530.86 C299.40,530.86 298.25,529.72 298.25,529.72 C298.24,529.67 298.19,529.80 298.19,529.84 C298.25,530.19 298.45,531.34 298.79,533.27" fill="none" stroke="rgb(0, 0, 255)" stroke-width="3.42" stroke-opacity="1.00" stroke-linejoin="round"/>
<path d="M306.03,532.07 C306.51,531.70 306.81,531.40 306.93,531.17 C307.05,530.93 307.15,530.45 307.23,529.71 C306.40,528.18 301.72,526.86 298.47,526.74 C296.36,526.69 290.09,527.37 287.56,528.09 C284.45,529.00 263.77,538.04 261.06,539.50 C254.57,543.05 245.78,550.53 242.01,555.39 C239.12,559.26 237.10,562.28 237.07,564.13 C238.26,565.63 241.55,566.06 246.06,566.24 C251.50,566.38 264.14,565.31 270.32,564.25 C276.44,563.18 292.12,559.01 298.23,556.71 C310.76,551.63 334.57,542.34 334.90,542.16 C335.60,541.78 337.09,539.58 337.55,538.57 C338.20,537.07 338.59,535.25 338.29,534.67 C337.32,533.12 332.35,532.40 328.40,532.62 C321.43,533.02 310.60,534.57 305.12,535.89 C298.18,537.58 285.88,542.54 279.14,546.71 C276.40,548.41 273.36,550.79 270.56,553.73 C269.11,555.25 268.96,556.89 269.63,559.72 C272.58,561.04 277.16,561.94 281.54,561.84 C288.58,561.63 301.66,559.51 311.11,557.11 C319.59,554.87 330.81,550.68 335.48,548.06 C338.20,546.52 341.65,543.78 343.40,541.87 C345.15,539.91 348.51,533.81 348.15,532.27 C348.02,531.75 347.45,530.67 346.43,529.02 C343.26,528.08 338.89,527.51 335.10,527.71 C329.74,528.03 317.72,530.06 308.45,532.02 C301.62,533.56 284.58,538.81 281.40,540.09 C276.37,542.13 267.64,548.19 267.07,549.36 C266.80,549.93 266.56,551.17 266.34,553.07 C268.82,554.61 272.72,555.49 278.03,555.08 C288.04,554.22 318.71,544.86 332.95,540.73 C344.82,537.27 348.43,535.79 350.73,534.23 C349.62,533.16 347.90,532.72 345.10,532.92 C339.49,533.33 323.72,537.44 321.75,539.13 C321.37,539.47 320.48,540.36 319.08,541.82 C319.20,544.39 319.79,545.84 321.46,546.97 C324.13,548.77 327.22,549.81 330.05,550.33 C332.69,550.78 338.18,550.97 341.19,550.68 C347.41,550.05 359.90,546.08 365.26,543.31 C367.09,542.35 372.93,538.62 373.57,537.69 C373.88,537.23 374.30,536.23 374.84,534.68 C373.62,532.82 372.67,531.85 371.31,531.30 C368.53,530.22 362.43,529.19 359.54,529.26 C354.22,529.42 340.50,532.57 335.14,534.67 C332.90,535.55 326.74,538.38 324.34,539.78 C321.23,541.66 318.99,544.28 318.17,546.01 C318.56,547.22 319.27,549.75 319.72,550.21 C320.98,551.46 327.38,553.19 329.33,553.42 C335.04,554.08 349.44,552.49 356.36,550.36 C366.10,547.32 377.53,542.26 382.98,539.19 C386.35,537.23 387.79,535.57 388.58,533.70 C386.88,532.11 382.17,531.32 377.50,530.88 C370.39,530.29 356.69,530.85 354.17,532.68 C353.81,532.95 353.08,533.64 351.97,534.76 C351.97,534.76 352.68,536.98 352.68,536.98 C355.24,538.45 359.71,539.80 364.06,539.95 C367.79,540.05 375.06,539.12 378.22,538.24 C381.79,537.19 383.48,535.88 385.34,534.01 C385.34,534.01 384.82,531.39 384.82,531.39 C382.22,529.56 378.61,528.14 373.80,527.34 C369.57,526.67 351.43,526.01 345.81,526.29 C342.21,526.49 335.30,527.67 332.75,528.60 C330.64,529.38 323.98,532.93 323.44,533.68 C323.44,533.68 327.84,534.45 327.84,534.45 C324.48,535.37 305.29,539.25 298.69,541.17 C293.29,542.79 290.12,543.89 287.32,545.35 C285.50,546.30 284.78,547.19 284.32,548.79 C286.41,549.71 287.85,550.08 289.63,550.02 C295.64,549.79 310.07,546.90 316.44,545.27 C319.50,544.47 325.84,542.46 329.77,540.59 C327.06,539.65 325.65,539.33 324.10,539.39 C319.02,539.63 301.75,541.87 294.07,543.57 C289.57,544.58 269.86,549.81 266.84,552.12 C266.66,552.26 266.08,553.41 265.42,553.85 C265.06,554.09 257.08,558.82 254.96,560.83 C252.83,562.93 252.62,565.22 253.12,566.80 C255.24,568.18 256.62,568.87 258.24,569.20 C263.44,570.24 275.24,570.28 284.18,569.44 C297.39,568.12 331.28,561.31 337.56,559.75 C334.99,558.32 330.49,557.75 326.80,557.97 C319.49,558.47 308.80,561.22 307.12,562.63 C309.17,564.31 310.79,565.09 313.32,565.38 C321.65,566.31 333.09,566.24 339.50,565.59 C343.65,565.17 359.65,562.48 366.37,560.62 C379.91,556.77 381.70,556.13 384.09,555.16 C384.09,555.16 382.79,556.57 382.79,556.57" fill="none" stroke="rgb(0, 0, 255)" stroke-width="3.42" stroke-opacity="1.00" stroke-linejoin="round"/>
</g>
</svg>
