<?xml version="1.0" encoding="UTF-8" standalone="no"?>
<!DOCTYPE svg PUBLIC "-//W3C//DTD SVG 1.1//EN" "http://www.w3.org/Graphics/SVG/1.1/DTD/svg11.dtd">
<svg width="64.20" height="90.84" viewBox="0.00 0.00 535.00 757.00" xmlns="http://www.w3.org/2000/svg" xmlns:xlink="http://www.w3.org/1999/xlink">
<g stroke-linecap="round" id="21">
<path d="M204.70,342.10 C202.91,342.08 201.80,342.10 201.36,342.16 C199.68,342.43 198.78,345.04 198.91,346.88 C199.10,349.05 200.12,349.48 200.31,349.48 C200.31,349.48 199.90,350.23 199.90,350.23" fill="none" stroke="rgb(33, 228, 63)" stroke-width="3.09" stroke-opacity="1.00" stroke-linejoin="round"/>
<path d="M204.70,342.48 C204.82,342.60 208.09,344.67 210.91,347.23 C212.27,348.50 213.32,349.81 214.38,352.57 C215.19,354.72 217.85,363.47 218.17,364.21 C218.68,365.34 226.91,376.91 230.38,379.24 C233.32,381.16 237.33,382.01 242.43,382.45 C243.78,382.54 251.02,382.87 251.48,382.85 C255.29,382.70 263.75,379.53 265.09,379.03 C265.39,378.92 265.75,378.77 266.16,378.60" fill="none" stroke="rgb(33, 228, 63)" stroke-width="3.09" stroke-opacity="1.00" stroke-linejoin="round"/>
<path d="M273.92,319.97 C272.91,320.31 272.13,320.80 270.95,321.95 C267.56,325.25 261.07,331.09 260.60,331.57 C258.44,333.79 254.91,339.21 253.60,342.38 C252.47,345.17 251.48,348.96 251.60,350.50 C251.85,353.16 262.72,373.61 263.30,374.18 C263.96,374.77 266.22,375.74 268.10,375.75 C270.34,375.74 275.70,374.18 278.07,372.91 C279.06,372.35 284.22,368.28 286.47,366.90 C290.38,364.55 293.41,363.74 293.66,363.67 C293.66,363.67 294.15,362.53 294.15,362.53" fill="none" stroke="rgb(33, 228, 63)" stroke-width="3.09" stroke-opacity="1.00" stroke-linejoin="round"/>
<path d="M274.67,320.16 C275.22,319.89 276.69,319.49 278.12,319.65 C280.20,319.89 285.50,320.88 286.91,321.50 C288.11,322.05 293.25,325.47 294.01,326.27 C296.11,328.59 299.79,338.54 300.75,344.29 C301.68,350.08 300.01,356.60 298.69,359.60 C298.15,360.76 297.28,361.06 296.05,361.39" fill="none" stroke="rgb(33, 228, 63)" stroke-width="3.09" stroke-opacity="1.00" stroke-linejoin="round"/>
<path d="M273.73,328.86 C273.80,328.87 275.82,328.95 276.87,329.66 C277.12,329.84 287.47,338.46 290.40,341.83 C292.30,344.04 294.11,347.27 294.35,349.27 C294.61,351.70 293.52,358.86 293.45,359.29 C293.45,359.29 292.64,360.07 292.64,360.07" fill="none" stroke="rgb(33, 228, 63)" stroke-width="3.09" stroke-opacity="1.00" stroke-linejoin="round"/>
<path d="M263.89,347.59 C263.86,347.45 267.78,348.46 268.46,348.92 C268.51,348.96 268.57,349.02 268.62,349.09 C268.62,349.09 261.43,348.72 261.43,348.72 C261.43,348.71 261.43,348.78 261.43,348.91 C261.58,350.61 262.99,352.10 264.54,352.35 C265.27,352.46 266.01,352.44 266.54,352.34 C266.45,352.16 265.86,352.10 265.65,351.99 C265.51,351.92 265.24,351.71 264.84,351.37" fill="none" stroke="rgb(33, 228, 63)" stroke-width="3.09" stroke-opacity="1.00" stroke-linejoin="round"/>
<path d="M276.19,347.02 C276.19,347.02 275.43,347.21 275.43,347.21 C277.76,345.76 280.62,345.70 283.71,346.83 C283.71,346.83 283.32,347.26 283.32,347.26" fill="none" stroke="rgb(33, 228, 63)" stroke-width="3.09" stroke-opacity="1.00" stroke-linejoin="round"/>
<path d="M278.08,348.91 C278.08,348.91 277.51,349.23 277.51,349.23 C277.91,350.78 280.06,350.21 280.25,349.87 C280.11,349.54 279.29,349.29 278.98,349.20 C278.81,349.14 278.40,349.00 277.77,348.76" fill="none" stroke="rgb(33, 228, 63)" stroke-width="3.09" stroke-opacity="1.00" stroke-linejoin="round"/>
<path d="M269.38,351.18 C269.38,351.18 269.00,351.42 269.00,351.42 C269.38,351.75 271.69,353.69 271.99,354.67 C272.11,355.09 272.24,356.08 272.23,356.24 C272.23,356.24 272.53,356.28 272.53,356.28" fill="none" stroke="rgb(33, 228, 63)" stroke-width="3.09" stroke-opacity="1.00" stroke-linejoin="round"/>
<path d="M277.70,361.01 C277.54,361.01 277.42,361.04 277.32,361.11 C277.09,361.26 274.85,363.45 274.32,363.81 C273.93,364.08 273.18,364.47 272.06,364.97 C272.06,364.97 272.37,364.82 272.37,364.82" fill="none" stroke="rgb(33, 228, 63)" stroke-width="3.09" stroke-opacity="1.00" stroke-linejoin="round"/>
<path d="M274.67,369.34 C274.67,369.34 274.58,369.34 274.58,369.34 C274.58,369.34 274.48,369.24 274.48,369.24 C274.48,369.24 274.78,368.78 274.78,368.78 C274.78,368.78 278.41,368.39 278.41,368.39 C278.41,368.39 278.46,368.25 278.46,368.25" fill="none" stroke="rgb(33, 228, 63)" stroke-width="3.09" stroke-opacity="1.00" stroke-linejoin="round"/>
<path d="M211.13,371.60 C211.14,371.72 210.93,373.77 211.73,374.96 C213.08,376.96 219.88,385.54 225.12,389.60 C227.58,391.49 233.36,395.01 236.29,396.27 C240.53,398.06 250.63,399.20 251.05,399.17 C251.28,399.15 251.46,399.04 251.60,398.84" fill="none" stroke="rgb(33, 228, 63)" stroke-width="3.09" stroke-opacity="1.00" stroke-linejoin="round"/>
<path d="M300.58,376.52 C301.90,377.08 303.98,378.04 304.73,378.54 C306.36,379.63 311.40,384.42 312.87,387.42 C313.89,389.56 317.80,402.74 318.44,407.78 C319.19,414.29 321.24,431.92 321.55,434.16 C322.07,437.80 324.11,445.82 323.86,447.18 C323.86,447.18 320.82,447.45 320.82,447.45" fill="none" stroke="rgb(33, 228, 63)" stroke-width="3.09" stroke-opacity="1.00" stroke-linejoin="round"/>
<path d="M298.32,396.19 C298.32,396.19 298.13,396.19 298.13,396.19 C298.39,396.37 300.24,398.24 301.12,399.87 C301.40,400.39 304.91,407.75 305.52,409.86 C306.23,412.40 307.66,425.75 309.52,434.11 C311.51,443.51 313.33,447.48 313.38,448.06 C313.57,450.10 314.41,451.75 316.11,451.94 C319.19,452.22 322.64,449.23 323.71,448.08 C323.91,447.86 324.14,447.59 324.42,447.26" fill="none" stroke="rgb(33, 228, 63)" stroke-width="3.09" stroke-opacity="1.00" stroke-linejoin="round"/>
<path d="M256.33,403.38 C255.91,403.58 255.20,404.31 255.19,405.36 C255.18,411.24 256.32,418.17 258.41,423.82 C259.18,425.86 261.03,430.49 262.58,432.97 C263.37,434.23 266.40,437.82 266.43,437.88 C266.43,437.88 266.92,437.61 266.92,437.61" fill="none" stroke="rgb(33, 228, 63)" stroke-width="3.09" stroke-opacity="1.00" stroke-linejoin="round"/>
<path d="M301.34,405.27 C301.35,405.34 301.34,405.48 301.43,405.68 C302.53,408.25 303.35,420.12 303.14,424.07 C302.90,428.16 301.38,432.99 301.11,433.79 C299.44,434.19 292.14,437.03 282.73,440.00 C280.43,440.70 277.11,440.79 275.38,440.11 C274.50,439.76 271.57,438.66 270.99,438.42 C270.75,438.32 270.33,438.11 269.76,437.80" fill="none" stroke="rgb(33, 228, 63)" stroke-width="3.09" stroke-opacity="1.00" stroke-linejoin="round"/>
<path d="M268.51,436.00 C267.88,437.52 267.47,438.58 266.77,440.56 C264.24,447.79 261.66,460.46 261.22,464.42 C260.57,471.01 259.56,481.13 259.53,489.12 C259.54,494.50 261.34,508.02 260.92,508.53 C258.00,511.88 255.21,515.42 254.32,517.06 C253.30,519.01 252.95,521.16 253.27,521.90 C253.62,522.61 255.18,523.19 256.48,523.15 C258.65,523.06 271.24,517.81 271.60,517.86 C272.01,517.92 272.42,517.98 272.83,518.05" fill="none" stroke="rgb(33, 228, 63)" stroke-width="3.09" stroke-opacity="1.00" stroke-linejoin="round"/>
<path d="M284.85,444.81 C284.63,445.73 284.21,447.48 283.95,448.73 C282.26,456.78 280.37,473.96 280.08,476.49 C278.19,492.07 277.59,503.33 277.22,510.01 C277.08,514.21 276.93,514.99 276.24,515.28 C275.31,515.65 274.06,516.15 273.92,516.21 C273.92,516.21 272.51,515.64 272.51,515.64" fill="none" stroke="rgb(33, 228, 63)" stroke-width="3.09" stroke-opacity="1.00" stroke-linejoin="round"/>
<path d="M285.01,447.37 C285.01,447.37 284.85,447.54 284.85,447.54 C285.04,449.52 285.19,450.74 285.52,452.75 C287.65,465.96 289.42,495.17 290.33,507.99 C290.64,511.73 290.48,513.87 290.06,514.88 C290.06,514.88 290.14,513.08 290.14,513.08" fill="none" stroke="rgb(33, 228, 63)" stroke-width="3.09" stroke-opacity="1.00" stroke-linejoin="round"/>
<path d="M301.36,434.55 C301.36,434.55 301.20,434.39 301.20,434.39 C301.26,434.71 301.71,436.18 302.04,437.28 C303.23,441.30 303.63,448.01 303.21,459.76 C302.94,467.46 303.79,483.40 307.54,496.52 C307.76,497.33 308.66,501.77 309.05,501.87 C310.03,502.06 311.51,502.72 312.23,504.22 C313.06,506.03 313.41,512.63 313.38,512.48 C313.38,512.48 313.86,511.32 313.86,511.32" fill="none" stroke="rgb(33, 228, 63)" stroke-width="3.09" stroke-opacity="1.00" stroke-linejoin="round"/>
<path d="M287.58,517.08 C287.59,517.10 291.79,516.35 301.53,513.58 C307.29,511.95 314.53,511.29 319.07,510.69 C319.07,510.69 318.99,510.35 318.99,510.35" fill="none" stroke="rgb(33, 228, 63)" stroke-width="3.09" stroke-opacity="1.00" stroke-linejoin="round"/>
<path d="M54.54,294.03 C54.54,294.03 54.54,293.71 54.54,293.71 C55.57,292.09 67.66,279.33 69.24,277.79 C71.44,275.66 84.05,266.31 90.27,262.31 C96.65,258.25 105.77,253.76 112.85,251.59 C119.72,249.59 137.44,244.62 140.31,243.99 C146.24,242.71 182.68,239.00 192.48,238.35 C210.16,237.40 241.93,236.52 248.49,236.95 C256.09,237.47 272.05,238.53 280.42,239.06 C290.06,239.71 298.95,240.95 306.42,242.74 C314.43,244.67 327.57,249.91 330.94,251.07 C333.51,251.96 351.87,257.50 357.13,259.51 C366.98,263.21 375.80,266.88 381.13,269.88 C384.74,271.92 388.82,274.89 390.86,276.92 C399.42,285.59 404.54,298.02 405.03,299.37 C405.03,299.37 404.11,299.68 404.11,299.68" fill="none" stroke="rgb(255, 242, 0)" stroke-width="3.09" stroke-opacity="1.00" stroke-linejoin="round"/>
<path d="M51.72,297.17 C51.72,297.17 51.72,296.85 51.72,296.85 C53.18,296.85 66.61,294.74 68.38,294.44 C73.86,293.52 88.43,289.80 95.85,288.01 C103.12,286.33 117.91,284.76 122.47,284.61 C132.02,284.32 144.79,285.97 152.35,287.01 C159.76,287.80 172.63,289.27 178.31,290.12 C186.08,291.40 196.74,294.19 201.38,294.97 C207.96,296.06 217.99,297.09 228.25,297.63 C247.29,298.43 307.14,296.37 314.24,296.32 C314.65,296.32 333.52,297.41 339.41,297.28 C361.03,296.64 395.02,296.87 397.00,296.74 C398.76,296.61 399.93,296.57 401.63,296.54 C401.63,296.54 401.29,296.85 401.29,296.85" fill="none" stroke="rgb(255, 242, 0)" stroke-width="3.09" stroke-opacity="1.00" stroke-linejoin="round"/>
<path d="M205.79,293.71 C205.79,293.71 204.92,293.71 204.92,293.71 C204.92,293.71 204.54,294.12 204.54,294.12 C204.89,297.65 203.56,311.93 203.43,313.57 C202.41,326.17 196.82,360.37 195.00,369.80 C194.38,373.03 194.04,379.08 194.69,380.59 C194.94,381.10 197.42,381.88 198.37,381.40 C199.42,380.81 200.70,377.55 201.66,373.73 C203.07,368.06 205.07,355.83 206.11,349.87 C206.12,349.73 206.12,349.56 206.11,349.35" fill="none" stroke="rgb(255, 242, 0)" stroke-width="3.09" stroke-opacity="1.00" stroke-linejoin="round"/>
<path d="M206.73,339.84 C206.75,336.61 206.96,333.60 207.36,330.54 C207.74,327.77 212.15,303.22 212.69,298.11 C212.69,298.11 212.69,297.80 212.69,297.80" fill="none" stroke="rgb(255, 242, 0)" stroke-width="3.09" stroke-opacity="1.00" stroke-linejoin="round"/>
<path d="M107.75,67.28 C107.75,67.28 107.75,66.97 107.75,66.97 C107.33,72.91 104.84,85.87 103.93,92.98 C102.53,104.80 99.89,134.13 99.45,151.01 C99.38,156.03 99.76,165.13 99.83,165.37 C99.90,165.59 100.14,166.27 100.56,167.41" fill="none" stroke="rgb(0, 165, 255)" stroke-width="3.09" stroke-opacity="1.00" stroke-linejoin="round"/>
<path d="M165.17,67.91 C165.17,67.91 164.85,67.60 164.85,67.60 C164.50,71.34 162.62,83.98 162.30,92.38 C162.19,95.50 160.86,118.01 160.89,121.58 C160.90,122.31 161.08,126.00 161.10,126.15 C161.14,126.38 161.25,126.52 161.42,126.57" fill="none" stroke="rgb(0, 165, 255)" stroke-width="3.09" stroke-opacity="1.00" stroke-linejoin="round"/>
<path d="M227.57,62.29 C227.63,62.89 226.90,68.64 226.65,70.85 C226.24,74.02 222.96,93.48 222.82,97.46 C222.70,101.14 222.53,107.29 222.59,108.12 C222.62,108.53 222.72,109.06 222.89,109.71" fill="none" stroke="rgb(0, 165, 255)" stroke-width="3.09" stroke-opacity="1.00" stroke-linejoin="round"/>
<path d="M300.27,65.41 C300.27,65.41 297.76,108.86 297.76,108.86 C297.76,108.86 298.28,108.61 298.28,108.61" fill="none" stroke="rgb(0, 165, 255)" stroke-width="3.09" stroke-opacity="1.00" stroke-linejoin="round"/>
<path d="M366.42,75.08 C366.42,75.08 365.64,75.24 365.64,75.24 C365.45,76.44 365.19,95.03 365.18,102.85 C365.17,106.30 365.19,112.41 365.21,115.08 C365.24,116.59 365.56,117.40 366.31,118.30 C366.31,118.30 368.48,118.51 368.48,118.51" fill="none" stroke="rgb(0, 165, 255)" stroke-width="3.09" stroke-opacity="1.00" stroke-linejoin="round"/>
<path d="M462.84,93.81 C462.84,93.81 462.84,93.49 462.84,93.49 C463.01,98.99 460.24,114.61 459.90,118.79 C458.56,135.23 458.90,161.40 459.48,174.84 C459.48,174.84 460.46,173.68 460.46,173.68" fill="none" stroke="rgb(0, 165, 255)" stroke-width="3.09" stroke-opacity="1.00" stroke-linejoin="round"/>
<path d="M104.95,213.94 C104.95,213.94 104.79,213.94 104.79,213.94 C104.38,214.28 104.00,217.40 104.01,220.14 C104.06,226.36 104.74,230.55 105.26,233.32 C105.26,233.32 105.73,232.90 105.73,232.90" fill="none" stroke="rgb(0, 165, 255)" stroke-width="3.09" stroke-opacity="1.00" stroke-linejoin="round"/>
<path d="M167.04,155.90 C165.95,159.28 165.52,163.79 165.49,167.00 C165.47,175.44 165.70,178.04 166.10,181.62 C166.10,181.62 166.31,181.39 166.31,181.39" fill="none" stroke="rgb(0, 165, 255)" stroke-width="3.09" stroke-opacity="1.00" stroke-linejoin="round"/>
<path d="M221.96,151.84 C220.92,152.59 220.73,156.43 220.67,161.34 C220.69,164.65 221.52,169.10 221.92,170.70 C221.92,170.70 222.14,170.86 222.14,170.86" fill="none" stroke="rgb(0, 165, 255)" stroke-width="3.09" stroke-opacity="1.00" stroke-linejoin="round"/>
<path d="M220.71,196.15 C219.58,196.31 218.58,198.74 218.52,202.05 C218.49,208.57 219.68,215.76 220.49,217.38 C220.49,217.38 221.86,217.34 221.86,217.34" fill="none" stroke="rgb(0, 165, 255)" stroke-width="3.09" stroke-opacity="1.00" stroke-linejoin="round"/>
<path d="M289.04,143.11 C289.04,143.11 288.89,143.11 288.89,143.11 C288.64,143.30 288.49,144.32 288.42,146.59 C288.23,153.90 286.35,178.38 286.29,179.12 C286.29,179.12 286.98,179.38 286.98,179.38" fill="none" stroke="rgb(0, 165, 255)" stroke-width="3.09" stroke-opacity="1.00" stroke-linejoin="round"/>
<path d="M286.55,204.26 C285.15,207.96 284.50,211.27 284.07,214.04 C283.63,217.12 284.00,219.44 284.29,219.56 C284.29,219.56 285.06,219.61 285.06,219.61" fill="none" stroke="rgb(0, 165, 255)" stroke-width="3.09" stroke-opacity="1.00" stroke-linejoin="round"/>
<path d="M363.93,159.96 C363.93,159.96 363.77,159.96 363.77,159.96 C363.06,160.79 362.62,163.16 362.39,166.12 C361.83,173.66 363.63,190.94 363.62,192.70 C363.62,192.70 363.62,191.29 363.62,191.29" fill="none" stroke="rgb(0, 165, 255)" stroke-width="3.09" stroke-opacity="1.00" stroke-linejoin="round"/>
<path d="M366.74,200.21 C365.79,200.65 364.87,204.14 364.89,207.84 C364.96,211.00 365.58,216.22 366.23,217.03 C366.36,217.19 366.68,217.44 367.18,217.79" fill="none" stroke="rgb(0, 165, 255)" stroke-width="3.09" stroke-opacity="1.00" stroke-linejoin="round"/>
<path d="M473.14,228.91 C473.14,228.91 470.73,229.19 470.73,229.19 C470.46,227.89 470.16,226.82 469.86,226.23 C469.79,226.09 469.66,225.89 469.48,225.62 C469.03,226.37 466.34,242.34 465.71,248.71 C465.07,255.81 465.00,267.21 465.34,267.87 C465.41,267.99 465.51,268.10 465.60,268.22" fill="none" stroke="rgb(0, 165, 255)" stroke-width="3.09" stroke-opacity="1.00" stroke-linejoin="round"/>
<path d="M80.16,375.92 C80.16,375.88 79.82,381.47 76.22,404.72 C75.81,407.35 75.12,411.85 75.13,412.42 C75.14,412.75 75.23,413.24 75.42,413.89" fill="none" stroke="rgb(0, 165, 255)" stroke-width="3.09" stroke-opacity="1.00" stroke-linejoin="round"/>
<path d="M70.10,451.02 C69.20,451.35 67.99,454.33 67.66,458.15 C67.09,465.49 68.91,487.67 68.45,489.26 C68.45,489.26 69.10,488.75 69.10,488.75" fill="none" stroke="rgb(0, 165, 255)" stroke-width="3.09" stroke-opacity="1.00" stroke-linejoin="round"/>
<path d="M70.87,530.38 C70.87,530.38 68.21,531.08 68.21,531.08 C67.44,533.51 67.11,536.94 66.94,540.83 C66.68,547.27 66.76,550.75 67.73,552.32 C67.73,552.32 70.26,553.46 70.26,553.46" fill="none" stroke="rgb(0, 165, 255)" stroke-width="3.09" stroke-opacity="1.00" stroke-linejoin="round"/>
<path d="M174.61,540.05 C174.61,540.05 174.42,540.05 174.42,540.05 C173.66,545.36 177.79,559.80 178.10,560.88 C178.10,560.88 178.35,559.62 178.35,559.62" fill="none" stroke="rgb(0, 165, 255)" stroke-width="3.09" stroke-opacity="1.00" stroke-linejoin="round"/>
<path d="M443.27,369.63 C443.27,369.45 443.27,369.26 443.27,369.08 C443.27,369.01 443.27,368.95 443.27,368.89 C441.57,374.24 438.82,387.20 438.33,392.94 C436.94,409.66 438.37,425.36 438.46,428.32 C438.46,428.32 438.46,428.07 438.46,428.07" fill="none" stroke="rgb(0, 165, 255)" stroke-width="3.09" stroke-opacity="1.00" stroke-linejoin="round"/>
<path d="M388.96,539.92 C388.96,539.92 387.49,540.48 387.49,540.48 C387.49,540.48 387.39,587.30 387.39,587.30 C387.39,587.30 388.64,583.02 388.64,583.02" fill="none" stroke="rgb(0, 165, 255)" stroke-width="3.09" stroke-opacity="1.00" stroke-linejoin="round"/>
<path d="M429.97,502.24 C428.05,503.36 425.85,506.70 424.97,510.09 C422.08,521.90 423.23,535.89 423.91,537.04 C423.91,537.04 425.17,536.53 425.17,536.53" fill="none" stroke="rgb(0, 165, 255)" stroke-width="3.09" stroke-opacity="1.00" stroke-linejoin="round"/>
<path d="M455.83,510.74 C454.74,510.71 452.89,513.34 452.01,516.85 C448.58,531.24 449.57,541.27 449.67,541.84 C449.67,541.84 450.43,541.83 450.43,541.83" fill="none" stroke="rgb(0, 165, 255)" stroke-width="3.09" stroke-opacity="1.00" stroke-linejoin="round"/>
</g>
</svg>
