<?xml version="1.0" encoding="UTF-8" standalone="no"?>
<!DOCTYPE svg PUBLIC "-//W3C//DTD SVG 1.1//EN" "http://www.w3.org/Graphics/SVG/1.1/DTD/svg11.dtd">
<svg width="128.40" height="181.68" viewBox="0.00 0.00 535.00 757.00" xmlns="http://www.w3.org/2000/svg" xmlns:xlink="http://www.w3.org/1999/xlink">
<g stroke-linecap="round" id="201">
<path d="M607.82,721.55" fill="none" stroke="rgb(0, 0, 0)" stroke-width="3.41" stroke-opacity="1.00" stroke-linejoin="round"/>
<path d="M214.93,540.77 C214.74,540.76 214.60,540.80 214.49,540.88 C214.11,541.20 212.12,543.11 211.55,543.78 C210.41,545.17 209.65,547.70 209.50,550.21 C209.40,552.53 209.73,557.48 210.16,559.38 C211.05,563.20 214.73,569.88 215.17,570.55 C216.50,572.50 221.76,573.53 224.30,573.40 C225.76,573.30 231.34,572.23 232.73,571.69 C235.19,570.72 238.49,568.37 240.12,565.96 C241.72,563.53 243.11,558.86 243.11,556.07 C243.06,553.33 241.61,547.73 240.06,545.87 C238.54,544.12 232.70,541.21 229.87,540.40 C226.89,539.58 220.93,539.59 218.08,540.51 C214.61,541.69 211.93,544.34 211.27,545.51 C211.12,545.78 210.93,546.23 210.70,546.85" fill="none" stroke="rgb(255, 0, 0)" stroke-width="3.41" stroke-opacity="1.00" stroke-linejoin="round"/>
<path d="M205.91,558.93 C205.93,558.70 205.95,558.51 205.97,558.36 C205.99,558.20 206.05,557.87 206.14,557.35 C206.14,557.35 205.87,557.02 205.87,557.02 C204.84,557.10 203.62,558.46 203.79,559.29 C204.00,560.04 206.52,561.19 209.86,561.21 C210.25,561.21 210.69,561.17 211.18,561.09" fill="none" stroke="rgb(255, 0, 0)" stroke-width="3.41" stroke-opacity="1.00" stroke-linejoin="round"/>
<path d="M244.85,551.49 C244.56,551.49 244.27,551.49 243.98,551.49 C243.51,551.49 242.62,551.48 242.21,551.47 C242.21,551.47 241.94,551.21 241.94,551.21 C242.44,550.88 244.60,551.67 244.84,552.62 C245.03,553.51 243.36,555.43 239.79,556.27 C239.29,556.39 238.57,556.48 237.65,556.53" fill="none" stroke="rgb(255, 0, 0)" stroke-width="3.41" stroke-opacity="1.00" stroke-linejoin="round"/>
<path d="M214.55,552.99 C214.30,552.90 214.08,552.85 213.88,552.84 C213.67,552.82 213.20,552.82 212.47,552.83 C212.52,552.73 214.04,552.46 215.22,552.42 C217.48,552.35 220.93,553.38 220.87,553.37" fill="none" stroke="rgb(255, 0, 0)" stroke-width="3.41" stroke-opacity="1.00" stroke-linejoin="round"/>
<path d="M214.97,556.61 C214.74,556.64 214.59,556.65 214.50,556.66 C214.42,556.67 214.30,556.68 214.13,556.69 C214.13,556.69 214.30,556.39 214.30,556.39 C216.02,555.73 218.52,555.30 219.40,555.67 C220.18,556.06 221.30,559.11 220.72,560.33 C219.42,561.20 216.37,560.66 215.03,559.41 C214.54,558.94 213.85,557.64 213.86,557.20 C213.88,556.80 214.25,556.21 214.36,556.17 C214.38,556.16 214.41,556.15 214.43,556.11" fill="none" stroke="rgb(255, 0, 0)" stroke-width="3.41" stroke-opacity="1.00" stroke-linejoin="round"/>
<path d="M218.36,556.31 C218.36,556.31 218.03,556.47 218.03,556.47 C218.03,556.47 217.83,561.32 217.83,561.32 C217.83,561.32 217.79,557.96 217.79,557.96 C217.79,557.96 218.06,560.34 218.06,560.34 C218.06,560.34 217.87,557.04 217.87,557.04 C217.87,557.04 216.59,558.25 216.59,558.25" fill="none" stroke="rgb(255, 0, 0)" stroke-width="3.41" stroke-opacity="1.00" stroke-linejoin="round"/>
<path d="M228.00,553.15 C228.00,553.15 227.61,553.14 227.61,553.14 C227.58,552.96 228.43,552.23 229.84,551.35 C231.57,550.27 233.27,549.43 235.35,548.57 C235.62,548.46 235.88,548.34 236.15,548.21 C236.15,548.21 236.15,548.14 236.15,548.14 C236.15,548.14 236.09,548.11 236.09,548.11" fill="none" stroke="rgb(255, 0, 0)" stroke-width="3.41" stroke-opacity="1.00" stroke-linejoin="round"/>
<path d="M236.02,553.95 C235.92,553.49 235.84,553.19 235.79,553.05 C235.74,552.92 235.63,552.75 235.47,552.56 C235.47,552.56 230.75,556.68 230.75,556.68 C232.20,557.50 233.70,557.50 235.90,556.47 C237.57,555.68 238.95,554.81 239.69,554.20 C239.69,554.20 233.97,553.48 233.97,553.48 C233.97,553.48 233.79,553.69 233.79,553.69 C233.79,553.69 234.13,553.95 234.13,553.95" fill="none" stroke="rgb(255, 0, 0)" stroke-width="3.41" stroke-opacity="1.00" stroke-linejoin="round"/>
<path d="M236.10,553.42 C236.10,553.42 235.78,553.17 235.78,553.17 C235.78,553.17 235.49,553.19 235.49,553.19 C235.49,553.19 235.66,556.99 235.66,556.99 C235.66,556.99 234.45,553.39 234.45,553.39 C234.66,554.13 234.87,554.88 235.09,555.62 C235.19,555.97 235.33,556.44 235.52,557.02" fill="none" stroke="rgb(255, 0, 0)" stroke-width="3.41" stroke-opacity="1.00" stroke-linejoin="round"/>
<path d="M226.42,560.59 C226.43,560.35 226.43,560.12 226.44,559.88 C226.46,559.41 226.47,559.09 226.50,558.94 C226.52,558.79 226.57,558.56 226.66,558.24 C226.88,559.15 227.09,560.07 227.30,560.98 C227.45,561.61 227.60,562.24 227.75,562.88" fill="none" stroke="rgb(255, 0, 0)" stroke-width="3.41" stroke-opacity="1.00" stroke-linejoin="round"/>
<path d="M231.51,566.18 C231.43,565.96 230.71,565.61 229.86,565.45 C226.26,564.86 224.35,568.19 224.38,568.48 C225.67,570.55 230.30,568.56 231.55,567.74 C231.46,566.58 231.24,565.99 230.59,565.75 C228.85,565.12 227.80,565.31 227.42,565.54" fill="none" stroke="rgb(255, 0, 0)" stroke-width="3.41" stroke-opacity="1.00" stroke-linejoin="round"/>
<path d="M225.23,576.28 C225.23,576.28 225.46,575.22 225.46,575.22 C225.46,575.22 226.04,580.80 226.04,580.80 C226.04,580.80 226.46,581.01 226.46,581.01" fill="none" stroke="rgb(255, 0, 0)" stroke-width="3.41" stroke-opacity="1.00" stroke-linejoin="round"/>
<path d="M239.18,573.00 C239.18,573.00 239.25,571.88 239.25,571.88 C239.25,571.88 238.93,571.75 238.93,571.75 C238.93,571.75 238.52,571.91 238.52,571.91 C238.22,572.20 237.61,574.68 237.53,576.45 C237.48,577.56 237.83,578.93 237.91,578.88" fill="none" stroke="rgb(255, 0, 0)" stroke-width="3.41" stroke-opacity="1.00" stroke-linejoin="round"/>
<path d="M224.34,584.02 C224.23,583.80 224.17,583.65 224.16,583.56 C224.16,583.48 224.18,583.35 224.24,583.17 C224.29,583.06 228.40,586.25 230.83,586.49 C232.27,586.59 234.85,586.04 235.99,585.32 C237.82,584.10 241.68,578.93 243.00,577.07 C243.15,576.87 243.34,576.65 243.57,576.39 C243.56,576.39 243.53,576.40 243.54,576.39 C243.64,576.32 241.76,576.74 240.36,577.04" fill="none" stroke="rgb(255, 0, 0)" stroke-width="3.41" stroke-opacity="1.00" stroke-linejoin="round"/>
<path d="M225.50,578.47 C225.50,578.47 225.08,578.34 225.08,578.34 C223.77,578.77 219.72,580.68 215.86,582.77 C211.83,584.97 206.76,588.51 205.67,590.30 C204.17,592.90 203.36,605.10 203.48,605.17 C203.48,605.17 217.34,604.76 217.34,604.76 C216.75,607.47 216.17,627.37 216.42,629.96 C216.73,632.23 217.53,638.62 218.27,640.55 C218.67,641.50 219.81,642.11 221.50,642.52 C225.93,643.50 230.00,643.26 232.34,642.72 C233.17,642.52 240.73,640.41 244.04,639.91 C248.00,639.38 252.83,638.46 255.61,637.81 C257.82,637.28 259.78,636.44 259.95,635.70 C260.33,633.30 256.56,621.76 252.85,612.11 C248.54,601.13 246.57,595.65 245.89,594.15 C245.66,593.63 245.57,593.68 245.60,593.59 C245.65,593.43 245.80,592.96 246.04,592.18" fill="none" stroke="rgb(255, 0, 0)" stroke-width="3.41" stroke-opacity="1.00" stroke-linejoin="round"/>
<path d="M243.58,580.90 C243.58,580.38 243.56,579.87 243.55,579.53 C243.54,579.41 243.54,579.17 243.54,578.83 C244.35,578.29 247.88,579.13 251.06,580.54 C253.05,581.44 257.16,583.89 258.23,585.03 C260.34,587.33 262.93,595.34 263.10,596.98 C262.46,597.70 254.25,598.04 253.55,598.10 C253.08,598.15 252.13,598.26 250.68,598.45 C250.68,598.45 265.23,595.89 265.23,595.89 C266.02,604.45 266.98,611.31 268.66,618.18 C271.13,628.24 271.59,631.49 271.60,632.18 C271.60,632.18 260.74,634.57 260.74,634.57 C260.74,634.57 271.07,630.34 271.07,630.34 C265.46,633.34 261.87,635.62 261.43,636.65 C261.07,637.72 262.43,639.29 264.28,639.80 C266.33,640.32 270.96,639.81 272.32,638.70 C273.04,638.06 273.69,636.42 273.55,635.48 C272.91,632.03 266.22,627.28 265.50,626.77" fill="none" stroke="rgb(255, 0, 0)" stroke-width="3.41" stroke-opacity="1.00" stroke-linejoin="round"/>
<path d="M205.10,608.00 C205.10,607.88 205.10,607.76 205.10,607.64 C205.10,607.56 205.10,607.48 205.10,607.40 C205.10,607.40 205.10,607.41 205.10,607.42 C204.89,608.39 204.36,610.85 204.04,612.33 C202.07,621.31 200.92,629.51 199.37,633.10 C198.96,634.04 197.53,636.39 197.05,637.77 C197.05,637.77 196.85,637.59 196.85,637.59" fill="none" stroke="rgb(255, 0, 0)" stroke-width="3.41" stroke-opacity="1.00" stroke-linejoin="round"/>
<path d="M215.55,635.95 C215.51,635.96 215.45,635.96 215.36,635.95 C214.75,635.94 213.34,636.52 211.94,637.45 C210.29,638.56 205.23,643.93 204.84,644.25 C204.29,644.70 201.97,646.11 201.97,646.11 C201.93,646.14 201.90,646.19 201.90,646.26 C201.90,646.26 201.85,646.30 201.85,646.30" fill="none" stroke="rgb(255, 0, 0)" stroke-width="3.41" stroke-opacity="1.00" stroke-linejoin="round"/>
<path d="M202.13,646.13 C201.87,646.44 200.60,646.96 199.31,647.22 C197.89,647.48 193.82,645.59 192.35,643.63 C191.62,642.65 190.36,638.43 190.41,637.97 C191.12,637.51 194.21,638.50 194.63,639.21 C195.10,640.07 195.02,641.13 194.87,641.63 C194.87,641.63 192.55,642.39 192.55,642.39 C192.55,642.39 192.91,642.39 192.91,642.39" fill="none" stroke="rgb(255, 0, 0)" stroke-width="3.41" stroke-opacity="1.00" stroke-linejoin="round"/>
<path d="M218.98,641.85 C218.98,641.95 218.91,642.60 218.85,643.11 C218.17,649.12 215.75,660.64 213.27,667.40 C210.98,673.43 206.21,686.46 204.39,693.56 C203.30,697.84 200.90,709.76 199.19,720.52 C198.11,726.60 195.49,738.61 195.32,745.02 C195.27,748.22 195.98,752.58 196.79,753.09 C196.79,753.09 197.12,753.09 197.12,753.09 C197.12,753.09 197.28,752.87 197.28,752.87" fill="none" stroke="rgb(255, 0, 0)" stroke-width="3.41" stroke-opacity="1.00" stroke-linejoin="round"/>
<path d="M241.73,673.15 C241.73,673.15 241.65,672.33 241.65,672.33 C241.56,672.33 241.34,672.48 241.03,672.88 C238.81,675.76 234.67,688.78 232.32,696.29 C229.94,704.16 223.42,718.51 221.67,723.21 C215.59,739.74 215.73,749.08 215.87,749.46 C215.87,749.46 216.04,749.37 216.04,749.37 C216.04,749.37 216.13,749.11 216.13,749.11" fill="none" stroke="rgb(255, 0, 0)" stroke-width="3.41" stroke-opacity="1.00" stroke-linejoin="round"/>
<path d="M244.60,671.27 C244.60,671.27 244.68,671.36 244.68,671.36 C244.68,671.36 244.73,671.26 244.73,671.26 C244.67,673.97 245.60,689.65 245.55,694.11 C245.56,701.12 247.66,715.87 247.70,720.95 C247.74,733.94 248.30,745.40 249.54,749.58 C249.97,751.01 250.66,752.22 251.12,752.64 C251.12,752.64 251.29,752.67 251.29,752.67 C251.29,752.67 251.38,752.39 251.38,752.39" fill="none" stroke="rgb(255, 0, 0)" stroke-width="3.41" stroke-opacity="1.00" stroke-linejoin="round"/>
<path d="M255.41,642.04 C255.53,641.72 255.64,641.54 255.75,641.53 C255.78,641.52 255.88,641.52 256.03,641.52 C256.31,642.61 256.63,646.69 256.87,649.10 C258.33,662.86 264.89,700.27 265.43,705.03 C266.19,712.28 268.12,724.35 268.91,733.46 C269.64,741.16 270.49,750.09 270.61,751.33 C270.50,750.66 270.40,749.99 270.30,749.32 C270.25,749.03 270.19,748.70 270.13,748.34" fill="none" stroke="rgb(255, 0, 0)" stroke-width="3.41" stroke-opacity="1.00" stroke-linejoin="round"/>
<path d="M228.08,643.47 C228.20,643.16 228.28,642.96 228.33,642.86 C228.38,642.76 228.46,642.63 228.58,642.47 C228.58,642.47 228.68,642.50 228.68,642.50 C228.87,643.27 227.31,646.70 225.02,648.84 C223.02,650.68 218.99,652.82 218.63,652.73 C218.63,652.73 218.56,652.64 218.56,652.64 C218.56,652.64 218.66,652.52 218.66,652.52" fill="none" stroke="rgb(255, 0, 0)" stroke-width="3.41" stroke-opacity="1.00" stroke-linejoin="round"/>
<path d="M245.66,641.23 C245.72,641.40 245.81,641.59 245.92,641.80 C247.09,643.93 250.26,647.05 251.80,647.75 C253.54,648.51 256.11,648.96 257.55,648.78 C257.73,648.75 259.45,648.42 259.41,648.44" fill="none" stroke="rgb(255, 0, 0)" stroke-width="3.41" stroke-opacity="1.00" stroke-linejoin="round"/>
<path d="M201.32,543.84 C201.32,543.84 201.23,543.22 201.23,543.22 C201.32,543.40 202.50,549.45 203.84,551.37 C205.16,553.24 206.73,554.96 207.25,555.21 C207.72,554.65 207.82,554.19 207.15,553.31 C205.04,550.51 199.88,545.05 199.79,544.87 C199.79,544.87 203.58,547.63 203.58,547.63 C203.58,547.63 203.53,547.16 203.53,547.16" fill="none" stroke="rgb(255, 0, 0)" stroke-width="3.41" stroke-opacity="1.00" stroke-linejoin="round"/>
<path d="M206.33,540.26 C206.33,540.26 204.62,540.26 204.62,540.26 C204.62,540.26 211.75,554.52 211.75,554.52 C212.04,552.59 210.18,547.52 208.88,544.70 C207.58,541.90 206.36,540.06 205.64,539.13 C205.64,539.13 207.32,540.63 207.32,540.63" fill="none" stroke="rgb(255, 0, 0)" stroke-width="3.41" stroke-opacity="1.00" stroke-linejoin="round"/>
<path d="M210.61,538.72 C210.61,538.72 210.91,537.84 210.91,537.84 C210.91,537.84 210.55,537.75 210.55,537.75" fill="none" stroke="rgb(255, 0, 0)" stroke-width="3.41" stroke-opacity="1.00" stroke-linejoin="round"/>
<path d="M210.88,536.33 C210.88,536.33 210.22,536.10 210.22,536.10 C210.22,536.10 209.93,536.57 209.93,536.57 C210.36,542.35 213.23,549.28 214.20,550.47 C214.93,549.77 215.17,548.82 214.89,547.00 C213.63,539.25 211.42,533.58 210.47,531.45 C210.47,531.45 210.77,531.94 210.77,531.94" fill="none" stroke="rgb(255, 0, 0)" stroke-width="3.41" stroke-opacity="1.00" stroke-linejoin="round"/>
<path d="M216.93,534.94 C216.96,534.82 216.98,534.74 216.99,534.70 C217.00,534.66 217.01,534.61 217.03,534.54 C216.89,534.76 216.58,536.64 216.52,538.13 C216.42,540.51 216.96,545.62 217.68,547.34 C218.58,546.48 219.00,545.52 219.09,543.77 C219.43,536.87 218.43,533.11 218.15,532.50 C218.15,532.50 216.97,534.96 216.97,534.96" fill="none" stroke="rgb(255, 0, 0)" stroke-width="3.41" stroke-opacity="1.00" stroke-linejoin="round"/>
<path d="M221.25,534.28 C221.25,534.05 221.25,533.28 221.22,533.14 C221.21,533.06 221.17,532.98 221.10,532.89 C221.10,532.89 222.89,547.66 222.89,547.66 C224.06,546.21 224.22,540.87 224.15,538.66 C224.07,536.56 223.72,533.68 223.55,532.52 C223.55,532.52 223.81,532.81 223.81,532.81" fill="none" stroke="rgb(255, 0, 0)" stroke-width="3.41" stroke-opacity="1.00" stroke-linejoin="round"/>
<path d="M226.65,534.21 C226.67,534.00 226.69,533.79 226.71,533.58 C226.71,533.49 226.72,533.37 226.73,533.23 C226.73,533.23 226.39,533.60 226.39,533.60 C226.39,533.60 227.82,548.21 227.82,548.21 C228.56,547.79 228.94,546.95 228.99,545.22 C229.15,538.99 227.83,534.82 227.28,533.48 C227.28,533.48 226.53,533.70 226.53,533.70 C226.53,533.70 226.39,533.65 226.39,533.65" fill="none" stroke="rgb(255, 0, 0)" stroke-width="3.41" stroke-opacity="1.00" stroke-linejoin="round"/>
<path d="M231.70,529.70 C231.70,529.70 230.45,529.31 230.45,529.31 C229.43,529.10 229.37,542.12 230.54,547.00 C231.30,546.45 231.68,545.52 231.78,543.53 C232.22,534.54 231.14,529.21 230.63,527.53 C230.63,527.53 230.62,530.75 230.62,530.75" fill="none" stroke="rgb(255, 0, 0)" stroke-width="3.41" stroke-opacity="1.00" stroke-linejoin="round"/>
<path d="M236.05,536.06 C236.05,536.06 235.75,535.05 235.75,535.05 C235.63,535.00 233.27,542.75 235.46,548.05 C235.46,548.05 235.07,532.93 235.07,532.93 C234.69,533.54 234.02,535.08 233.76,535.66 C233.65,535.90 233.48,536.22 233.27,536.60" fill="none" stroke="rgb(255, 0, 0)" stroke-width="3.41" stroke-opacity="1.00" stroke-linejoin="round"/>
<path d="M237.06,539.60 C236.75,540.32 236.81,541.24 236.81,541.60 C236.80,542.42 236.78,544.72 237.22,546.27 C238.23,546.34 238.93,545.90 239.14,544.76 C239.55,542.36 238.42,540.79 237.55,540.20 C237.55,540.20 232.61,542.42 232.61,542.42" fill="none" stroke="rgb(255, 0, 0)" stroke-width="3.41" stroke-opacity="1.00" stroke-linejoin="round"/>
<path d="M203.01,547.58 C202.71,547.38 202.49,546.85 202.40,546.66 C202.37,546.60 202.32,546.57 202.25,546.56 C202.25,546.56 205.58,552.71 205.58,552.71 C205.58,552.71 203.99,548.82 203.99,548.82 C203.99,548.82 207.38,552.25 207.38,552.25 C207.38,552.25 205.98,548.64 205.98,548.64 C205.98,548.64 207.60,552.50 207.60,552.50 C207.60,552.50 202.05,545.80 202.05,545.80 C202.05,545.80 205.50,550.87 205.50,550.87 C205.50,550.87 203.79,546.60 203.79,546.60 C203.79,546.60 209.78,551.18 209.78,551.18 C209.78,551.18 211.29,547.79 211.29,547.79 C211.29,547.79 212.35,550.39 212.35,550.39 C212.35,550.39 212.96,543.73 212.96,543.73 C212.96,543.73 213.81,547.27 213.81,547.27 C213.81,547.27 215.93,543.93 215.93,543.93 C215.93,543.93 217.23,545.97 217.23,545.97 C217.23,545.97 217.79,542.11 217.79,542.11 C217.79,542.11 218.27,546.48 218.27,546.48 C218.27,546.48 219.33,542.70 219.33,542.70 C219.33,542.70 220.16,545.00 220.16,545.00 C220.16,545.00 221.42,542.06 221.42,542.06 C221.42,542.06 222.48,546.17 222.48,546.17 C222.48,546.17 224.14,542.22 224.14,542.22 C224.14,542.22 225.36,544.74 225.36,544.74 C225.36,544.74 226.94,542.30 226.94,542.30 C226.94,542.30 228.38,545.72 228.38,545.72 C228.38,545.72 230.56,540.61 230.56,540.61 C230.56,540.61 231.92,545.32 231.92,545.32 C231.92,545.32 233.71,541.57 233.71,541.57 C233.71,541.57 235.48,545.57 235.48,545.57 C235.48,545.57 236.97,542.85 236.97,542.85 C236.97,542.85 237.24,548.69 237.24,548.69" fill="none" stroke="rgb(255, 0, 0)" stroke-width="3.41" stroke-opacity="1.00" stroke-linejoin="round"/>
<path d="M138.48,516.55 C138.38,516.15 138.31,515.88 138.26,515.73 C138.06,515.11 137.77,514.73 137.43,514.56 C135.02,515.26 131.18,518.99 130.62,520.64 C130.45,521.26 130.46,522.00 130.64,522.48 C131.17,523.53 136.29,523.92 140.05,523.20 C142.71,522.65 146.07,520.95 147.11,519.56 C148.15,518.11 147.86,515.67 146.42,514.75 C144.89,513.84 140.10,513.32 137.68,513.93 C135.02,514.65 131.17,518.66 130.39,520.49 C130.25,520.82 129.99,521.57 129.61,522.75" fill="none" stroke="rgb(0, 255, 0)" stroke-width="3.41" stroke-opacity="1.00" stroke-linejoin="round"/>
<path d="M137.71,526.46 C137.71,526.46 138.27,526.09 138.27,526.09 C138.27,526.09 138.24,525.85 138.24,525.85 C137.10,526.06 133.96,528.07 131.28,530.71 C127.09,534.86 118.64,545.68 114.67,551.07 C109.09,558.95 88.83,590.46 86.22,595.75 C80.05,608.56 71.11,634.06 70.89,635.27 C70.73,636.17 71.78,637.34 71.85,637.37" fill="none" stroke="rgb(0, 255, 0)" stroke-width="3.41" stroke-opacity="1.00" stroke-linejoin="round"/>
<path d="M136.51,534.48 C137.47,533.44 138.55,532.17 138.79,531.66 C138.89,531.45 138.98,531.08 139.06,530.55 C138.00,530.29 130.25,537.64 124.74,544.38 C119.28,551.23 112.21,560.98 108.56,566.99 C105.47,572.11 100.45,582.37 97.64,589.55 C94.39,598.21 91.78,606.33 89.35,615.09 C86.04,628.32 85.74,630.14 85.70,631.12 C85.70,631.12 85.96,631.21 85.96,631.21 C86.15,631.01 86.27,630.88 86.31,630.82 C86.36,630.76 86.40,630.69 86.42,630.61" fill="none" stroke="rgb(0, 255, 0)" stroke-width="3.41" stroke-opacity="1.00" stroke-linejoin="round"/>
<path d="M87.40,623.60 C86.85,624.02 86.47,624.30 86.24,624.47 C86.02,624.63 85.64,624.90 85.11,625.27 C86.42,622.39 93.80,612.53 99.28,605.78 C104.00,600.21 114.12,589.02 120.04,582.85 C126.86,575.88 134.95,568.87 139.77,565.53 C144.64,562.18 155.33,557.11 163.12,554.12 C169.63,551.71 181.91,547.52 188.53,545.35 C191.63,544.33 194.14,543.31 194.91,542.95" fill="none" stroke="rgb(0, 255, 0)" stroke-width="3.41" stroke-opacity="1.00" stroke-linejoin="round"/>
<path d="M148.12,521.83 C148.12,521.83 146.16,522.10 146.16,522.10 C151.89,520.46 160.30,518.71 169.00,517.32 C176.33,516.33 191.55,514.68 199.68,514.03 C207.83,513.59 222.25,513.16 230.39,513.08 C237.82,513.11 246.30,513.73 256.56,514.72 C272.42,516.54 301.73,523.23 302.33,524.61 C298.98,525.07 292.95,526.22 289.73,527.02 C278.41,529.91 269.54,530.99 268.36,531.26 C268.18,531.30 267.86,531.36 267.39,531.43" fill="none" stroke="rgb(0, 255, 0)" stroke-width="3.41" stroke-opacity="1.00" stroke-linejoin="round"/>
<path d="M244.92,535.67 C245.02,535.64 245.64,535.49 246.03,535.45 C250.92,534.98 282.91,528.77 286.45,527.38 C289.80,526.04 290.46,525.51 291.06,524.65 C291.06,524.65 290.43,524.14 290.43,524.14" fill="none" stroke="rgb(0, 255, 0)" stroke-width="3.41" stroke-opacity="1.00" stroke-linejoin="round"/>
<path d="M243.45,532.63 C243.37,532.70 243.31,532.77 243.27,532.82 C243.23,532.88 243.15,533.01 243.03,533.20 C243.17,533.23 243.37,533.21 243.63,533.12 C249.83,531.07 262.58,527.43 267.23,526.53 C273.50,525.33 285.26,524.37 291.90,524.40 C294.94,524.41 296.48,524.54 297.28,524.81 C297.28,524.81 297.17,524.98 297.17,524.98" fill="none" stroke="rgb(0, 255, 0)" stroke-width="3.41" stroke-opacity="1.00" stroke-linejoin="round"/>
<path d="M139.37,533.01 C139.37,533.01 139.58,532.30 139.58,532.30 C139.58,532.30 140.92,531.96 140.92,531.96 C141.25,532.31 144.63,545.23 146.44,552.08 C148.19,558.91 151.79,572.57 154.33,578.04 C155.60,580.72 173.10,612.26 176.30,616.95 C178.27,619.83 180.55,622.54 183.61,625.99 C186.93,629.72 190.70,632.85 191.07,633.27 C191.56,633.82 193.47,636.55 193.57,636.64 C193.64,636.70 193.78,636.77 193.99,636.86" fill="none" stroke="rgb(0, 255, 0)" stroke-width="3.41" stroke-opacity="1.00" stroke-linejoin="round"/>
<path d="M143.88,533.74 C144.08,533.80 144.58,534.49 144.80,534.78 C149.91,541.21 155.86,550.90 158.97,558.37 C160.35,561.71 162.26,567.72 162.67,569.57 C163.14,571.75 164.36,580.38 164.45,580.90 C165.12,584.77 168.39,591.34 169.10,592.73 C170.19,594.87 172.03,599.13 172.84,601.20 C174.11,604.39 179.08,609.91 179.88,610.97 C182.67,614.72 194.90,637.15 195.56,637.58 C195.72,637.68 196.01,637.75 196.43,637.79" fill="none" stroke="rgb(0, 255, 0)" stroke-width="3.41" stroke-opacity="1.00" stroke-linejoin="round"/>
<path d="M196.08,643.46 C196.12,643.99 196.32,644.70 196.36,644.97 C196.45,645.67 196.12,647.30 195.59,648.03 C194.44,649.51 188.42,651.13 187.67,651.95 C187.71,653.32 191.19,654.55 192.84,653.96 C194.63,653.25 196.72,650.13 196.59,648.12 C196.48,646.85 194.38,641.47 193.83,640.05" fill="none" stroke="rgb(0, 255, 0)" stroke-width="3.41" stroke-opacity="1.00" stroke-linejoin="round"/>
<path d="M132.62,539.64 C132.62,539.64 132.42,539.52 132.42,539.52 C132.42,539.52 131.95,539.56 131.95,539.56 C130.95,540.97 130.28,542.04 129.62,543.34 C127.15,548.26 123.41,557.46 120.36,565.87 C116.58,577.16 115.45,581.91 115.51,584.15 C115.51,584.15 115.92,584.51 115.92,584.51 C115.92,584.51 116.21,584.37 116.21,584.37" fill="none" stroke="rgb(0, 255, 0)" stroke-width="3.41" stroke-opacity="1.00" stroke-linejoin="round"/>
<path d="M156.60,534.48 C156.60,534.48 156.14,533.98 156.14,533.98 C156.85,533.61 162.26,532.56 165.28,531.98 C170.74,530.95 180.92,529.81 188.57,529.54 C191.48,529.49 197.57,529.43 200.60,529.71 C203.22,529.97 209.52,531.45 211.91,531.86 C212.61,531.97 213.30,532.08 214.00,532.19" fill="none" stroke="rgb(0, 255, 0)" stroke-width="3.41" stroke-opacity="1.00" stroke-linejoin="round"/>
<path d="M189.98,527.11 C189.98,527.11 186.22,526.65 186.22,526.65 C188.67,526.05 196.16,524.81 198.72,524.46 C210.40,522.90 249.11,520.71 255.36,520.87 C258.69,520.98 262.61,521.90 263.27,522.86 C263.27,522.86 262.81,523.70 262.81,523.70" fill="none" stroke="rgb(0, 255, 0)" stroke-width="3.41" stroke-opacity="1.00" stroke-linejoin="round"/>
<path d="M166.62,543.19 C166.62,543.19 163.69,543.44 163.69,543.44 C166.43,542.34 183.13,539.04 185.28,538.83 C191.75,538.22 197.81,538.56 198.84,539.08" fill="none" stroke="rgb(0, 255, 0)" stroke-width="3.41" stroke-opacity="1.00" stroke-linejoin="round"/>
<path d="M60.86,297.46 C60.86,297.46 61.63,290.38 61.63,290.38 C62.04,294.61 63.57,301.14 64.93,303.88 C65.64,305.30 66.53,306.45 67.66,307.61" fill="none" stroke="rgb(255, 0, 255)" stroke-width="3.41" stroke-opacity="1.00" stroke-linejoin="round"/>
<path d="M87.09,348.19 C87.09,348.19 86.09,347.97 86.09,347.97 C85.75,348.29 86.31,352.58 86.66,355.32 C87.12,358.96 87.98,365.84 88.38,369.07 C88.66,371.50 89.05,375.02 89.17,376.10" fill="none" stroke="rgb(255, 0, 255)" stroke-width="3.41" stroke-opacity="1.00" stroke-linejoin="round"/>
<path d="M85.68,423.86 C85.68,423.86 84.87,422.48 84.87,422.48 C85.22,424.05 86.17,428.27 86.53,429.75 C86.89,431.23 87.75,434.42 88.05,435.56" fill="none" stroke="rgb(255, 0, 255)" stroke-width="3.41" stroke-opacity="1.00" stroke-linejoin="round"/>
<path d="M88.95,460.22 C88.33,460.67 88.12,463.88 88.08,470.39 C88.08,476.54 88.22,481.10 88.51,482.30 C88.55,482.48 88.69,482.98 88.92,483.77 C89.09,483.49 89.18,483.22 89.21,482.95 C89.24,482.69 89.25,482.05 89.22,481.05" fill="none" stroke="rgb(255, 0, 255)" stroke-width="3.41" stroke-opacity="1.00" stroke-linejoin="round"/>
<path d="M102.41,306.51 C102.68,305.62 103.09,303.95 103.06,303.52 C103.05,303.32 102.93,303.14 102.70,302.97 C102.59,303.04 102.63,307.56 103.84,312.83 C105.22,318.70 107.93,325.70 108.27,326.44" fill="none" stroke="rgb(255, 0, 255)" stroke-width="3.41" stroke-opacity="1.00" stroke-linejoin="round"/>
<path d="M144.67,400.90 C144.39,399.65 144.10,398.40 143.81,397.15 C143.68,396.60 143.52,395.97 143.34,395.26 C143.34,395.26 142.76,395.08 142.76,395.08 C141.72,396.26 139.94,401.68 139.39,404.02 C138.71,406.96 137.51,414.98 137.14,418.55 C136.98,420.27 136.71,423.09 136.61,424.19" fill="none" stroke="rgb(255, 0, 255)" stroke-width="3.41" stroke-opacity="1.00" stroke-linejoin="round"/>
<path d="M144.67,352.87 C144.82,351.21 145.22,348.90 145.36,348.08 C145.41,347.76 145.46,347.34 145.51,346.83 C145.40,348.37 145.77,352.18 146.61,357.53 C147.21,361.17 148.23,365.46 148.63,366.95" fill="none" stroke="rgb(255, 0, 255)" stroke-width="3.41" stroke-opacity="1.00" stroke-linejoin="round"/>
<path d="M170.20,377.43 C170.20,377.43 169.93,377.51 169.93,377.51 C169.75,379.46 169.75,383.12 169.95,388.18 C170.07,391.84 170.28,400.88 170.24,402.53 C170.20,404.49 170.04,407.42 169.92,409.09" fill="none" stroke="rgb(255, 0, 255)" stroke-width="3.41" stroke-opacity="1.00" stroke-linejoin="round"/>
<path d="M158.53,424.63 C158.35,425.39 158.24,425.92 158.21,426.21 C158.01,428.02 158.72,432.96 159.78,437.29 C161.64,444.75 165.17,447.07 166.11,447.38" fill="none" stroke="rgb(255, 0, 255)" stroke-width="3.41" stroke-opacity="1.00" stroke-linejoin="round"/>
<path d="M181.48,437.51 C181.48,437.51 181.65,437.58 181.65,437.58 C182.14,438.29 182.53,439.35 183.01,441.46 C183.92,445.49 185.07,452.94 185.21,455.94 C185.22,456.29 185.24,456.91 185.25,457.79" fill="none" stroke="rgb(255, 0, 255)" stroke-width="3.41" stroke-opacity="1.00" stroke-linejoin="round"/>
<path d="M160.32,463.81 C159.53,466.34 159.24,467.87 159.44,469.21 C159.85,471.78 161.88,478.79 162.28,479.98 C163.29,482.96 163.97,484.16 164.55,484.99 C164.68,484.41 164.75,483.99 164.77,483.71 C164.83,482.99 164.37,440.55 164.23,427.84" fill="none" stroke="rgb(255, 0, 255)" stroke-width="3.41" stroke-opacity="1.00" stroke-linejoin="round"/>
<path d="M164.55,276.69 C164.55,276.69 165.89,275.67 165.89,275.67 C165.82,278.51 165.74,285.10 165.72,288.86 C165.76,292.34 165.82,296.90 165.83,297.98" fill="none" stroke="rgb(255, 0, 255)" stroke-width="3.41" stroke-opacity="1.00" stroke-linejoin="round"/>
<path d="M224.96,416.10 C224.96,416.10 224.53,416.32 224.53,416.32 C225.22,418.88 231.79,430.69 232.85,432.45 C233.52,433.54 234.18,434.63 234.85,435.72" fill="none" stroke="rgb(255, 0, 255)" stroke-width="3.41" stroke-opacity="1.00" stroke-linejoin="round"/>
<path d="M231.05,332.28 C231.05,332.28 228.31,325.65 228.31,325.65 C227.59,327.48 226.48,335.16 226.25,338.61 C225.85,344.90 226.25,351.84 226.49,354.78" fill="none" stroke="rgb(255, 0, 255)" stroke-width="3.41" stroke-opacity="1.00" stroke-linejoin="round"/>
<path d="M268.57,370.44 C268.64,370.17 268.72,369.97 268.80,369.82 C268.89,369.68 269.09,369.39 269.41,368.97 C270.21,369.13 272.76,377.50 273.18,378.88 C275.54,386.61 278.87,392.97 279.68,394.30" fill="none" stroke="rgb(255, 0, 255)" stroke-width="3.41" stroke-opacity="1.00" stroke-linejoin="round"/>
<path d="M306.60,327.09 C306.60,327.09 306.10,326.54 306.10,326.54 C305.91,328.10 305.64,334.34 305.72,336.86 C305.95,342.80 307.76,353.22 308.04,354.76" fill="none" stroke="rgb(255, 0, 255)" stroke-width="3.41" stroke-opacity="1.00" stroke-linejoin="round"/>
<path d="M346.74,285.66 C346.74,285.66 346.15,284.34 346.15,284.34 C345.85,287.07 345.80,293.07 345.77,296.52 C345.69,304.87 345.37,324.40 345.07,328.46 C344.87,331.08 344.23,334.13 343.93,335.27" fill="none" stroke="rgb(255, 0, 255)" stroke-width="3.41" stroke-opacity="1.00" stroke-linejoin="round"/>
<path d="M304.93,436.87 C304.93,436.87 303.13,436.07 303.13,436.07 C302.86,437.10 304.34,442.79 305.19,446.01 C306.33,450.36 308.74,459.70 309.55,463.50 C309.77,464.58 310.47,468.35 310.69,469.48" fill="none" stroke="rgb(255, 0, 255)" stroke-width="3.41" stroke-opacity="1.00" stroke-linejoin="round"/>
<path d="M302.36,492.47 C301.98,493.19 302.88,497.89 304.74,502.13 C305.98,504.94 306.66,506.38 307.90,508.85" fill="none" stroke="rgb(255, 0, 255)" stroke-width="3.41" stroke-opacity="1.00" stroke-linejoin="round"/>
<path d="M343.92,402.82 C343.92,402.82 341.44,403.22 341.44,403.22 C340.83,403.88 341.06,407.54 342.05,413.60 C342.75,417.57 343.85,422.02 345.04,426.48" fill="none" stroke="rgb(255, 0, 255)" stroke-width="3.41" stroke-opacity="1.00" stroke-linejoin="round"/>
<path d="M376.88,361.40 C376.88,361.40 376.88,361.20 376.88,361.20 C376.79,362.76 376.82,363.51 377.16,365.79 C377.71,369.51 378.54,377.07 378.94,380.71 C379.45,385.85 379.81,391.02 379.67,392.70 C379.65,392.91 379.58,393.57 379.47,394.69" fill="none" stroke="rgb(255, 0, 255)" stroke-width="3.41" stroke-opacity="1.00" stroke-linejoin="round"/>
<path d="M364.05,473.87 C363.76,474.21 363.68,475.29 364.06,476.47 C364.22,476.96 367.74,485.16 369.53,489.70 C370.82,493.07 372.57,497.69 373.03,498.95" fill="none" stroke="rgb(255, 0, 255)" stroke-width="3.41" stroke-opacity="1.00" stroke-linejoin="round"/>
<path d="M407.02,441.04 C407.02,441.04 406.96,441.10 406.96,441.10 C407.34,442.47 408.30,446.05 408.72,447.83 C410.14,453.96 410.31,472.47 410.05,476.05 C409.94,477.54 409.57,479.96 409.34,480.78 C409.28,480.98 409.13,481.46 408.88,482.22" fill="none" stroke="rgb(255, 0, 255)" stroke-width="3.41" stroke-opacity="1.00" stroke-linejoin="round"/>
<path d="M403.56,518.57 C403.76,519.92 403.94,520.80 404.39,522.52 C405.22,525.76 406.74,533.39 406.72,535.09 C406.69,536.29 405.68,541.51 404.20,544.57" fill="none" stroke="rgb(255, 0, 255)" stroke-width="3.41" stroke-opacity="1.00" stroke-linejoin="round"/>
<path d="M360.66,523.64 C360.66,523.64 360.21,523.55 360.21,523.55 C360.21,523.55 359.89,523.80 359.89,523.80 C360.05,524.84 362.35,530.57 363.26,533.67 C363.70,535.22 364.42,537.78 364.71,538.79" fill="none" stroke="rgb(255, 0, 255)" stroke-width="3.41" stroke-opacity="1.00" stroke-linejoin="round"/>
<path d="M315.45,553.71 C315.19,554.85 315.21,555.77 315.63,557.13 C317.48,563.25 318.72,571.30 318.88,572.35" fill="none" stroke="rgb(255, 0, 255)" stroke-width="3.41" stroke-opacity="1.00" stroke-linejoin="round"/>
<path d="M177.25,572.56 C177.03,575.46 177.34,580.41 178.00,585.14 C178.25,586.75 178.73,589.79 178.96,591.22 C179.35,593.56 179.98,597.31 180.23,598.72" fill="none" stroke="rgb(255, 0, 255)" stroke-width="3.41" stroke-opacity="1.00" stroke-linejoin="round"/>
<path d="M285.31,706.20 C283.60,707.04 282.64,707.67 282.35,708.53 C281.53,710.98 281.34,716.74 281.51,718.71 C282.07,724.59 284.64,731.26 285.31,732.53" fill="none" stroke="rgb(255, 0, 255)" stroke-width="3.41" stroke-opacity="1.00" stroke-linejoin="round"/>
<path d="M327.89,724.86 C325.92,725.29 322.94,728.66 321.93,731.10 C321.12,733.16 318.87,741.83 318.48,743.60 C318.04,745.62 317.39,749.00 317.05,750.93" fill="none" stroke="rgb(255, 0, 255)" stroke-width="3.41" stroke-opacity="1.00" stroke-linejoin="round"/>
<path d="M310.25,613.93 C310.17,614.14 310.18,614.36 310.30,614.59 C310.70,615.35 311.28,616.00 311.76,616.72 C312.17,617.35 313.93,620.39 314.57,621.50" fill="none" stroke="rgb(255, 0, 255)" stroke-width="3.41" stroke-opacity="1.00" stroke-linejoin="round"/>
<path d="M322.76,581.09 C322.75,580.91 322.75,580.79 322.76,580.72 C322.76,580.65 322.78,580.55 322.82,580.40 C323.75,582.53 324.55,584.16 325.41,585.57 C327.08,588.26 329.89,591.62 331.13,593.05" fill="none" stroke="rgb(255, 0, 255)" stroke-width="3.41" stroke-opacity="1.00" stroke-linejoin="round"/>
<path d="M344.24,600.59 C344.24,600.59 343.50,599.16 343.50,599.16 C343.97,599.23 346.07,603.12 347.01,605.61 C347.25,606.22 347.62,607.28 348.15,608.77 C348.26,609.09 348.34,609.32 348.37,609.44" fill="none" stroke="rgb(255, 0, 255)" stroke-width="3.41" stroke-opacity="1.00" stroke-linejoin="round"/>
<path d="M347.70,558.65 C347.70,558.65 347.63,555.81 347.63,555.81 C348.80,558.80 349.85,562.43 350.48,564.04 C353.22,571.03 356.39,576.08 356.92,576.79" fill="none" stroke="rgb(255, 0, 255)" stroke-width="3.41" stroke-opacity="1.00" stroke-linejoin="round"/>
<path d="M372.65,582.44 C372.65,582.44 368.60,581.03 368.60,581.03 C368.52,583.35 369.49,587.66 370.73,590.90 C372.73,595.97 373.14,596.86 373.54,597.54" fill="none" stroke="rgb(255, 0, 255)" stroke-width="3.41" stroke-opacity="1.00" stroke-linejoin="round"/>
<path d="M390.86,599.62 C390.86,599.62 388.84,595.98 388.84,595.98 C388.86,597.90 389.93,603.59 391.06,607.67 C391.34,608.65 391.62,609.63 391.90,610.61" fill="none" stroke="rgb(255, 0, 255)" stroke-width="3.41" stroke-opacity="1.00" stroke-linejoin="round"/>
<path d="M408.94,582.44 C408.94,582.44 408.49,581.50 408.49,581.50 C408.96,582.72 410.16,585.79 410.88,587.64 C412.36,591.28 414.40,594.64 415.14,595.67" fill="none" stroke="rgb(255, 0, 255)" stroke-width="3.41" stroke-opacity="1.00" stroke-linejoin="round"/>
<path d="M432.29,575.19 C432.29,575.19 432.15,575.22 432.15,575.22 C432.76,578.72 434.08,586.62 434.57,590.65 C434.77,592.53 435.11,595.61 435.24,596.80" fill="none" stroke="rgb(255, 0, 255)" stroke-width="3.41" stroke-opacity="1.00" stroke-linejoin="round"/>
<path d="M424.21,618.29 C424.21,618.29 423.21,618.07 423.21,618.07 C424.00,619.59 425.26,622.19 426.00,623.85 C426.49,624.96 427.65,627.98 428.19,629.40 C428.57,630.41 429.20,632.04 429.44,632.66" fill="none" stroke="rgb(255, 0, 255)" stroke-width="3.41" stroke-opacity="1.00" stroke-linejoin="round"/>
<path d="M433.25,637.78 C433.29,639.76 433.55,641.33 434.29,643.86 C434.81,645.58 436.22,650.18 436.53,650.99 C436.93,652.01 437.54,652.90 437.65,652.89" fill="none" stroke="rgb(255, 0, 255)" stroke-width="3.41" stroke-opacity="1.00" stroke-linejoin="round"/>
<path d="M387.78,627.65 C387.78,627.65 387.67,627.58 387.67,627.58 C387.67,627.58 388.91,627.44 388.91,627.44 C389.62,628.66 391.03,636.03 391.45,637.99 C391.75,639.40 392.36,641.84 392.74,643.37" fill="none" stroke="rgb(255, 0, 255)" stroke-width="3.41" stroke-opacity="1.00" stroke-linejoin="round"/>
<path d="M349.75,633.16 C349.17,634.30 349.03,635.33 349.39,637.02 C349.76,638.79 350.51,641.75 351.02,643.52 C352.15,647.56 351.76,650.13 351.33,650.79" fill="none" stroke="rgb(255, 0, 255)" stroke-width="3.41" stroke-opacity="1.00" stroke-linejoin="round"/>
<path d="M400.93,658.24 C400.93,658.24 400.14,658.64 400.14,658.64 C400.54,661.23 400.89,662.78 401.51,664.38 C402.13,665.95 402.83,667.65 403.28,668.73 C403.25,668.78 403.36,668.66 403.40,668.61 C405.78,665.28 408.99,661.73 410.01,660.60" fill="none" stroke="rgb(255, 0, 255)" stroke-width="3.41" stroke-opacity="1.00" stroke-linejoin="round"/>
<path d="M414.27,656.12 C414.13,657.70 414.20,658.72 414.64,660.83 C415.01,662.64 415.24,664.71 415.21,666.17 C415.18,667.38 414.96,668.42 414.61,669.42" fill="none" stroke="rgb(255, 0, 255)" stroke-width="3.41" stroke-opacity="1.00" stroke-linejoin="round"/>
<path d="M378.55,669.91 C378.55,669.91 378.26,669.61 378.26,669.61 C378.15,669.81 378.32,671.02 378.73,672.24 C378.76,672.34 381.83,680.42 382.75,683.73 C383.46,686.39 384.36,691.07 384.68,692.93" fill="none" stroke="rgb(255, 0, 255)" stroke-width="3.41" stroke-opacity="1.00" stroke-linejoin="round"/>
</g>
</svg>
