<?xml version="1.0" encoding="UTF-8" standalone="no"?>
<!DOCTYPE svg PUBLIC "-//W3C//DTD SVG 1.1//EN" "http://www.w3.org/Graphics/SVG/1.1/DTD/svg11.dtd">
<svg width="128.40" height="181.68" viewBox="0.00 0.00 535.00 757.00" xmlns="http://www.w3.org/2000/svg" xmlns:xlink="http://www.w3.org/1999/xlink">
<g stroke-linecap="round" id="76">
<path d="M292.36,250.57 C292.36,250.57 292.32,250.41 292.32,250.41 C292.32,250.41 293.14,249.07 293.14,249.07 C292.09,248.82 273.85,256.14 270.72,258.29 C267.42,260.62 263.96,265.71 262.77,268.86 C261.04,273.69 259.36,283.70 259.24,288.63 C259.13,293.85 261.65,307.42 262.74,309.76 C263.98,312.32 265.26,314.18 266.74,315.42 C269.18,317.43 270.51,317.41 271.25,317.05 C272.17,314.90 271.82,310.91 271.05,306.44 C270.15,301.17 270.75,294.29 272.30,289.09 C273.14,286.29 275.16,279.64 276.33,278.23 C277.73,276.61 282.81,273.18 285.34,272.22 C287.34,271.51 291.40,271.63 294.31,272.55 C297.20,273.49 300.07,274.76 304.03,276.59 C306.64,277.77 311.31,279.34 313.71,281.52 C314.67,282.40 317.34,284.76 317.56,284.79 C318.03,284.06 318.01,276.53 317.98,275.44 C317.86,272.42 316.17,267.33 314.22,264.41 C313.00,262.61 307.25,256.10 304.64,254.45 C301.40,252.46 293.16,251.71 290.92,252.10 C290.92,252.10 291.53,252.59 291.53,252.59" fill="none" stroke="rgb(255, 165, 0)" stroke-width="2.93" stroke-opacity="1.00" stroke-linejoin="round"/>
<path d="M271.65,323.21 C271.56,323.18 271.48,323.15 271.43,323.13 C270.39,322.64 269.89,322.12 269.65,321.57 C270.86,323.08 275.03,324.93 277.61,325.22 C280.17,325.48 288.87,325.83 290.83,325.65 C295.30,325.20 302.11,322.81 304.71,320.89 C306.53,319.51 309.85,314.40 310.62,311.76 C313.72,300.72 311.71,287.65 311.74,287.70 C311.74,287.70 312.25,288.62 312.25,288.62" fill="none" stroke="rgb(255, 165, 0)" stroke-width="2.93" stroke-opacity="1.00" stroke-linejoin="round"/>
<path d="M276.08,288.93 C275.78,289.01 275.53,289.09 275.33,289.19 C275.13,289.28 274.70,289.50 274.04,289.85 C274.04,289.85 273.87,289.77 273.87,289.77 C277.12,287.73 283.25,286.19 287.56,285.79 C287.93,285.74 288.13,285.67 288.16,285.57" fill="none" stroke="rgb(255, 165, 0)" stroke-width="2.93" stroke-opacity="1.00" stroke-linejoin="round"/>
<path d="M297.24,288.57 C297.24,288.57 296.22,288.04 296.22,288.04 C296.22,288.04 303.44,285.36 303.44,285.36 C303.44,285.36 304.05,285.86 304.05,285.86 C304.05,285.86 303.99,285.97 303.99,285.97" fill="none" stroke="rgb(255, 165, 0)" stroke-width="2.93" stroke-opacity="1.00" stroke-linejoin="round"/>
<path d="M283.71,293.10 C283.71,293.10 283.60,291.53 283.60,291.53 C283.60,291.53 282.92,291.10 282.92,291.10 C282.15,291.77 280.92,293.79 280.37,295.50 C280.06,296.49 280.58,298.04 281.15,298.50 C281.73,298.89 283.32,298.68 284.21,298.09 C285.07,297.50 286.41,295.79 286.61,295.04 C286.80,294.17 286.33,293.03 285.67,292.56 C284.81,292.00 282.69,292.55 282.06,292.88 C282.06,292.88 281.93,293.19 281.93,293.19" fill="none" stroke="rgb(255, 165, 0)" stroke-width="2.93" stroke-opacity="1.00" stroke-linejoin="round"/>
<path d="M302.43,294.72 C302.43,294.72 300.05,293.92 300.05,293.92 C299.49,294.79 299.21,295.53 299.38,296.04 C299.58,296.60 300.54,297.26 301.23,297.25 C301.97,297.21 303.44,296.28 303.93,295.53 C304.43,294.70 304.35,293.28 303.84,292.63 C303.46,292.21 302.31,291.92 301.66,292.11 C300.60,292.44 299.57,293.31 298.81,294.39" fill="none" stroke="rgb(255, 165, 0)" stroke-width="2.93" stroke-opacity="1.00" stroke-linejoin="round"/>
<path d="M292.71,301.74 C292.71,301.74 291.77,301.49 291.77,301.49 C291.77,301.49 291.50,300.85 291.50,300.85 C291.65,300.76 291.72,301.20 291.96,303.68 C292.20,306.14 292.59,307.18 293.29,307.47 C293.29,307.47 299.89,303.82 299.89,303.82 C299.89,303.82 299.79,304.26 299.79,304.26" fill="none" stroke="rgb(255, 165, 0)" stroke-width="2.93" stroke-opacity="1.00" stroke-linejoin="round"/>
<path d="M296.02,314.87 C296.23,314.32 296.45,313.77 296.67,313.22 C296.77,312.95 296.90,312.60 297.06,312.17 C296.60,312.04 296.03,311.96 295.47,312.05 C294.23,312.26 292.17,313.27 291.20,314.17 C290.76,314.60 290.77,315.79 291.04,316.25 C291.48,316.89 293.07,317.73 294.23,317.88 C300.30,318.49 303.40,313.50 303.64,312.55 C303.41,312.12 300.66,310.79 295.20,312.46 C293.81,312.88 292.59,313.43 292.38,313.67 C292.38,313.67 292.81,313.43 292.81,313.43" fill="none" stroke="rgb(255, 165, 0)" stroke-width="2.93" stroke-opacity="1.00" stroke-linejoin="round"/>
<path d="M270.83,330.48 C270.83,330.48 270.67,330.48 270.67,330.48 C270.67,330.48 270.50,330.25 270.50,330.25 C270.50,330.25 271.95,327.75 271.95,327.75 C271.56,328.55 268.32,332.32 268.13,332.46 C267.16,333.14 258.83,338.70 255.70,341.46 C254.44,342.60 253.56,344.76 253.30,347.04 C253.21,347.93 258.56,385.44 259.43,387.85 C259.88,389.06 261.22,391.46 262.36,393.28 C263.50,395.08 264.19,395.62 265.09,395.62 C266.93,394.43 267.69,391.87 268.19,387.29 C268.89,380.43 271.80,365.12 272.09,364.61 C272.09,364.61 272.56,364.30 272.56,364.30 C272.56,364.30 272.75,364.54 272.75,364.54" fill="none" stroke="rgb(255, 165, 0)" stroke-width="2.93" stroke-opacity="1.00" stroke-linejoin="round"/>
<path d="M271.39,361.86 C271.39,361.86 271.08,359.58 271.08,359.58 C271.30,365.39 271.11,379.55 270.98,386.90 C270.95,393.01 272.33,406.24 273.81,408.22 C274.09,408.57 275.23,409.38 275.67,409.44 C276.05,409.49 282.19,409.54 284.12,408.73 C288.11,407.05 306.24,403.08 311.16,401.32 C312.52,400.83 320.89,397.33 323.68,396.12 C325.11,395.49 329.71,393.64 330.16,392.89 C330.26,392.72 330.41,392.50 330.63,392.23" fill="none" stroke="rgb(255, 165, 0)" stroke-width="2.93" stroke-opacity="1.00" stroke-linejoin="round"/>
<path d="M319.20,353.01 C319.20,353.01 318.64,352.21 318.64,352.21 C318.14,353.94 320.18,370.80 321.94,376.56 C323.08,380.21 324.85,384.69 325.60,386.00 C326.55,387.57 329.36,388.82 331.18,388.30 C332.47,387.90 333.87,386.08 334.75,383.93 C335.67,381.55 337.31,364.37 336.70,357.44 C336.51,355.25 335.45,349.73 334.64,347.66 C334.27,346.70 327.81,330.97 324.73,325.11 C323.26,322.36 320.91,320.26 319.22,319.84 C315.33,318.92 305.75,318.84 305.43,319.26 C305.43,319.26 306.22,320.08 306.22,320.08" fill="none" stroke="rgb(255, 165, 0)" stroke-width="2.93" stroke-opacity="1.00" stroke-linejoin="round"/>
<path d="M338.02,394.16 C338.02,394.16 337.96,392.88 337.96,392.88" fill="none" stroke="rgb(255, 165, 0)" stroke-width="2.93" stroke-opacity="1.00" stroke-linejoin="round"/>
<path d="M339.75,385.97 C339.44,384.89 339.41,383.83 339.68,382.99 C339.72,382.86 339.76,382.81 339.80,382.84 C340.15,397.31 341.42,429.99 342.37,440.94 C343.30,450.20 344.14,454.41 344.58,456.16 C344.58,456.16 344.62,454.41 344.62,454.41" fill="none" stroke="rgb(255, 165, 0)" stroke-width="2.93" stroke-opacity="1.00" stroke-linejoin="round"/>
<path d="M278.81,411.45 C278.81,411.45 279.37,411.58 279.37,411.58 C279.37,411.58 280.46,411.07 280.46,411.07 C280.75,412.28 280.17,423.53 280.68,434.55 C281.57,450.16 283.06,483.88 283.30,483.99 C283.54,483.79 284.70,482.30 285.20,481.93 C287.19,480.49 305.25,474.50 312.81,471.92 C319.71,469.40 340.21,461.40 340.35,461.39 C340.78,461.34 344.12,461.61 344.54,461.54 C344.64,461.53 344.85,461.48 345.17,461.40" fill="none" stroke="rgb(255, 165, 0)" stroke-width="2.93" stroke-opacity="1.00" stroke-linejoin="round"/>
<path d="M300.28,475.94 C300.28,475.94 300.25,475.12 300.25,475.12 C300.18,475.35 301.15,478.74 301.23,483.13 C301.25,484.51 301.51,503.40 302.06,508.84 C302.83,516.27 305.71,530.40 306.96,531.27 C307.12,531.38 307.48,531.50 308.03,531.63 C309.47,530.89 311.99,526.95 313.07,523.59 C314.93,517.66 315.18,503.45 314.53,495.20 C314.18,491.43 313.25,481.75 313.21,481.29 C312.95,478.16 312.42,477.68 311.97,477.40" fill="none" stroke="rgb(255, 165, 0)" stroke-width="2.93" stroke-opacity="1.00" stroke-linejoin="round"/>
<path d="M325.91,472.99 C325.94,472.72 325.97,472.49 326.00,472.31 C326.18,471.33 326.64,469.91 326.96,469.49 C327.05,469.37 327.20,469.28 327.40,469.21 C327.69,471.00 329.57,487.00 331.61,498.74 C333.77,510.56 335.51,518.89 337.57,521.30 C337.74,521.49 337.95,521.63 338.20,521.71 C338.56,521.77 339.49,521.13 340.18,520.17 C341.34,518.51 341.51,513.77 341.02,510.23 C339.03,496.21 333.55,476.61 332.69,467.60 C332.69,467.60 331.99,468.89 331.99,468.89" fill="none" stroke="rgb(255, 165, 0)" stroke-width="2.93" stroke-opacity="1.00" stroke-linejoin="round"/>
<path d="M342.09,507.58 C342.09,507.58 340.34,508.95 340.34,508.95 C342.48,509.30 344.42,510.59 345.28,512.48 C346.08,514.36 345.54,518.20 344.21,519.79 C343.58,520.49 340.95,521.91 339.72,522.17 C338.79,522.36 337.23,522.10 337.32,522.02 C337.32,522.02 337.36,521.92 337.36,521.92" fill="none" stroke="rgb(255, 165, 0)" stroke-width="2.93" stroke-opacity="1.00" stroke-linejoin="round"/>
<path d="M309.84,530.37 C309.84,530.37 308.50,529.66 308.50,529.66 C308.50,529.66 311.94,540.94 311.94,540.94 C311.94,540.94 313.43,541.06 313.43,541.06 C315.02,539.04 316.45,533.89 316.63,531.49 C316.77,529.21 315.86,526.07 315.25,524.90 C314.74,523.92 313.43,521.91 313.44,522.02" fill="none" stroke="rgb(255, 165, 0)" stroke-width="2.93" stroke-opacity="1.00" stroke-linejoin="round"/>
<path d="M222.46,222.49 C222.46,222.49 221.22,221.10 221.22,221.10 C221.22,221.10 223.96,228.67 223.96,228.67" fill="none" stroke="rgb(0, 0, 255)" stroke-width="2.93" stroke-opacity="1.00" stroke-linejoin="round"/>
<path d="M188.58,282.77 C188.60,282.31 188.64,281.93 188.72,281.63 C189.02,280.39 189.65,279.04 190.09,278.55 C190.29,278.53 190.66,281.38 190.91,282.53 C191.17,283.72 192.04,285.56 192.53,286.40" fill="none" stroke="rgb(0, 0, 255)" stroke-width="2.93" stroke-opacity="1.00" stroke-linejoin="round"/>
<path d="M181.61,309.37 C181.61,309.37 180.88,309.64 180.88,309.64 C180.88,309.64 184.48,313.87 184.48,313.87" fill="none" stroke="rgb(0, 0, 255)" stroke-width="2.93" stroke-opacity="1.00" stroke-linejoin="round"/>
<path d="M218.89,268.12 C218.89,268.12 217.74,268.38 217.74,268.38 C217.74,268.38 220.15,274.18 220.15,274.18" fill="none" stroke="rgb(0, 0, 255)" stroke-width="2.93" stroke-opacity="1.00" stroke-linejoin="round"/>
<path d="M224.13,263.18 C224.13,263.18 223.91,262.46 223.91,262.46 C223.91,262.46 225.45,263.56 225.45,263.56" fill="none" stroke="rgb(0, 0, 255)" stroke-width="2.93" stroke-opacity="1.00" stroke-linejoin="round"/>
<path d="M244.94,246.65 C244.94,246.65 244.66,246.02 244.66,246.02 C244.42,246.82 244.78,248.27 245.92,250.66 C246.16,251.16 246.62,252.08 247.31,253.42" fill="none" stroke="rgb(0, 0, 255)" stroke-width="2.93" stroke-opacity="1.00" stroke-linejoin="round"/>
<path d="M242.60,283.53 C242.60,283.53 241.45,283.82 241.45,283.82 C241.84,283.90 242.49,283.82 244.03,283.49 C245.57,283.16 247.03,282.91 249.37,282.56" fill="none" stroke="rgb(0, 0, 255)" stroke-width="2.93" stroke-opacity="1.00" stroke-linejoin="round"/>
<path d="M235.93,297.82 C235.93,297.82 235.05,297.67 235.05,297.67 C235.05,297.67 240.86,298.51 240.86,298.51" fill="none" stroke="rgb(0, 0, 255)" stroke-width="2.93" stroke-opacity="1.00" stroke-linejoin="round"/>
<path d="M234.76,311.81 C235.57,311.85 236.32,312.14 237.65,312.98 C238.98,313.83 239.93,314.50 241.24,315.50" fill="none" stroke="rgb(0, 0, 255)" stroke-width="2.93" stroke-opacity="1.00" stroke-linejoin="round"/>
<path d="M219.00,309.67 C219.00,309.67 218.95,305.27 218.95,305.27 C219.10,306.29 219.75,311.89 220.53,315.45 C220.72,316.30 220.92,317.16 221.11,318.01" fill="none" stroke="rgb(0, 0, 255)" stroke-width="2.93" stroke-opacity="1.00" stroke-linejoin="round"/>
<path d="M203.33,338.31 C203.33,338.31 200.59,337.85 200.59,337.85 C201.02,338.32 201.80,338.60 203.68,338.88 C205.55,339.16 206.64,339.31 207.89,339.44" fill="none" stroke="rgb(0, 0, 255)" stroke-width="2.93" stroke-opacity="1.00" stroke-linejoin="round"/>
<path d="M222.66,346.09 C222.72,346.79 223.29,347.49 223.49,347.77 C224.25,348.82 225.79,351.84 226.26,352.89" fill="none" stroke="rgb(0, 0, 255)" stroke-width="2.93" stroke-opacity="1.00" stroke-linejoin="round"/>
<path d="M235.12,365.62 C235.12,365.62 234.73,363.76 234.73,363.76 C234.90,366.63 235.14,368.31 235.65,369.92 C236.16,371.52 236.51,372.37 236.96,373.21" fill="none" stroke="rgb(0, 0, 255)" stroke-width="2.93" stroke-opacity="1.00" stroke-linejoin="round"/>
<path d="M236.65,393.65 C236.65,393.65 236.61,392.38 236.61,392.38 C236.61,392.38 239.71,395.25 239.71,395.25" fill="none" stroke="rgb(0, 0, 255)" stroke-width="2.93" stroke-opacity="1.00" stroke-linejoin="round"/>
<path d="M265.13,282.92 C265.13,282.92 265.55,280.57 265.55,280.57 C265.55,280.57 267.32,286.22 267.32,286.22" fill="none" stroke="rgb(0, 0, 255)" stroke-width="2.93" stroke-opacity="1.00" stroke-linejoin="round"/>
<path d="M276.02,268.83 C276.02,268.83 275.03,267.57 275.03,267.57 C275.17,267.36 275.96,267.86 277.54,269.18 C277.79,269.40 278.09,269.65 278.42,269.95" fill="none" stroke="rgb(0, 0, 255)" stroke-width="2.93" stroke-opacity="1.00" stroke-linejoin="round"/>
<path d="M291.22,259.78 C291.22,259.78 290.73,257.77 290.73,257.77 C291.72,256.86 293.09,256.67 293.61,256.60 C294.05,256.54 295.04,256.32 296.59,255.95" fill="none" stroke="rgb(0, 0, 255)" stroke-width="2.93" stroke-opacity="1.00" stroke-linejoin="round"/>
<path d="M277.03,223.41 C277.03,223.41 274.14,223.89 274.14,223.89 C274.14,223.89 282.18,220.19 282.18,220.19" fill="none" stroke="rgb(0, 0, 255)" stroke-width="2.93" stroke-opacity="1.00" stroke-linejoin="round"/>
<path d="M293.36,192.84 C293.36,192.84 293.54,192.17 293.54,192.17 C295.01,192.08 297.14,192.07 298.22,192.26 C299.54,192.49 301.75,193.29 303.24,193.96" fill="none" stroke="rgb(0, 0, 255)" stroke-width="2.93" stroke-opacity="1.00" stroke-linejoin="round"/>
<path d="M315.43,224.43 C315.43,224.43 314.68,221.25 314.68,221.25 C314.68,221.25 315.80,220.93 315.80,220.93 C315.80,220.93 333.54,234.11 333.54,234.11" fill="none" stroke="rgb(0, 0, 255)" stroke-width="2.93" stroke-opacity="1.00" stroke-linejoin="round"/>
<path d="M367.72,211.30 C367.72,211.30 367.72,210.38 367.72,210.38 C367.64,210.72 367.66,211.12 367.77,211.57 C367.89,212.02 368.26,213.15 368.89,214.96" fill="none" stroke="rgb(0, 0, 255)" stroke-width="2.93" stroke-opacity="1.00" stroke-linejoin="round"/>
<path d="M365.28,197.42 C365.28,197.42 364.03,196.77 364.03,196.77 C364.03,196.77 370.82,207.50 370.82,207.50" fill="none" stroke="rgb(0, 0, 255)" stroke-width="2.93" stroke-opacity="1.00" stroke-linejoin="round"/>
<path d="M348.39,262.22 C348.39,262.22 346.94,262.32 346.94,262.32 C346.31,263.59 346.92,268.90 347.52,270.82 C347.66,271.26 347.99,272.09 348.51,273.31" fill="none" stroke="rgb(0, 0, 255)" stroke-width="2.93" stroke-opacity="1.00" stroke-linejoin="round"/>
<path d="M382.88,253.21 C382.88,253.21 382.88,253.05 382.88,253.05 C382.66,255.67 382.43,257.75 381.99,260.81 C381.83,261.97 381.66,263.14 381.49,264.30" fill="none" stroke="rgb(0, 0, 255)" stroke-width="2.93" stroke-opacity="1.00" stroke-linejoin="round"/>
<path d="M347.84,289.99 C347.84,289.99 346.11,290.20 346.11,290.20 C346.11,290.20 351.82,293.96 351.82,293.96" fill="none" stroke="rgb(0, 0, 255)" stroke-width="2.93" stroke-opacity="1.00" stroke-linejoin="round"/>
<path d="M360.81,319.74 C360.81,319.74 360.08,319.89 360.08,319.89 C360.13,320.84 360.28,323.47 360.39,324.62 C360.49,325.77 360.87,328.91 361.01,330.06" fill="none" stroke="rgb(0, 0, 255)" stroke-width="2.93" stroke-opacity="1.00" stroke-linejoin="round"/>
<path d="M366.50,379.10 C366.50,379.10 366.71,376.35 366.71,376.35 C366.71,376.35 369.39,381.93 369.39,381.93" fill="none" stroke="rgb(0, 0, 255)" stroke-width="2.93" stroke-opacity="1.00" stroke-linejoin="round"/>
</g>
</svg>
