<?xml version="1.0" encoding="UTF-8" standalone="no"?>
<!DOCTYPE svg PUBLIC "-//W3C//DTD SVG 1.1//EN" "http://www.w3.org/Graphics/SVG/1.1/DTD/svg11.dtd">
<svg width="128.40" height="181.68" viewBox="0.00 0.00 535.00 757.00" xmlns="http://www.w3.org/2000/svg" xmlns:xlink="http://www.w3.org/1999/xlink">
<g stroke-linecap="round" id="99">
<path d="M119.66,328.13 C119.66,328.13 120.39,327.13 120.39,327.13 C117.09,331.89 108.20,344.07 102.98,351.20 C87.44,372.18 82.98,377.38 80.46,379.37 C80.46,379.37 80.46,379.15 80.46,379.15 C80.46,379.15 81.00,378.59 81.00,378.59" fill="none" stroke="rgb(202, 65, 236)" stroke-width="2.85" stroke-opacity="1.00" stroke-linejoin="round"/>
<path d="M117.27,402.25 C117.27,402.25 115.83,399.26 115.83,399.26 C114.48,399.63 113.76,400.05 112.97,401.17 C109.04,406.77 98.65,421.59 97.02,424.10 C96.26,425.28 95.99,425.89 95.94,426.31 C95.94,426.31 96.66,426.44 96.66,426.44" fill="none" stroke="rgb(202, 65, 236)" stroke-width="2.85" stroke-opacity="1.00" stroke-linejoin="round"/>
<path d="M136.93,434.76 C136.93,434.76 137.07,434.58 137.07,434.58 C137.07,434.58 122.76,461.57 122.76,461.57 C122.76,461.57 123.51,458.56 123.51,458.56" fill="none" stroke="rgb(202, 65, 236)" stroke-width="2.85" stroke-opacity="1.00" stroke-linejoin="round"/>
<path d="M156.30,385.72 C156.39,385.51 156.46,385.35 156.51,385.25 C156.70,384.87 156.86,384.61 156.99,384.46 C157.09,384.36 157.27,384.23 157.53,384.08 C157.77,384.41 149.96,397.33 146.01,403.44 C144.12,406.31 142.04,408.70 141.37,409.35 C141.37,409.35 141.81,407.72 141.81,407.72" fill="none" stroke="rgb(202, 65, 236)" stroke-width="2.85" stroke-opacity="1.00" stroke-linejoin="round"/>
<path d="M154.01,351.53 C154.01,351.53 155.15,350.35 155.15,350.35 C155.12,350.49 154.88,350.94 154.41,351.62 C144.31,366.02 135.11,378.30 134.42,379.10 C134.48,378.94 134.53,378.82 134.56,378.75 C134.60,378.67 134.66,378.53 134.75,378.33" fill="none" stroke="rgb(202, 65, 236)" stroke-width="2.85" stroke-opacity="1.00" stroke-linejoin="round"/>
<path d="M178.10,246.89 C178.10,246.89 178.43,246.89 178.43,246.89 C178.26,247.02 176.91,248.16 176.49,248.61 C170.80,254.56 155.75,280.87 154.22,284.53 C153.23,286.93 153.23,288.77 153.50,288.93" fill="none" stroke="rgb(202, 65, 236)" stroke-width="2.85" stroke-opacity="1.00" stroke-linejoin="round"/>
<path d="M193.13,286.32 C193.13,286.32 193.70,285.05 193.70,285.05 C192.68,287.26 189.43,293.13 187.51,296.61 C185.85,299.62 182.74,305.31 181.29,307.98 C181.29,307.98 181.94,307.02 181.94,307.02" fill="none" stroke="rgb(202, 65, 236)" stroke-width="2.85" stroke-opacity="1.00" stroke-linejoin="round"/>
<path d="M254.36,229.62 C255.02,228.72 255.84,227.58 256.06,227.20 C256.13,227.07 256.19,226.94 256.22,226.81 C254.38,228.16 244.35,241.55 239.59,247.97 C232.51,257.63 229.22,262.59 228.59,264.60 C228.59,264.60 229.56,264.38 229.56,264.38" fill="none" stroke="rgb(202, 65, 236)" stroke-width="2.85" stroke-opacity="1.00" stroke-linejoin="round"/>
<path d="M264.17,256.70 C264.41,256.44 265.23,255.53 265.53,255.25 C265.74,255.06 266.18,254.68 266.87,254.11 C262.98,258.00 252.87,270.62 247.77,277.06 C243.23,282.78 238.07,289.26 237.44,290.01 C237.44,290.01 237.89,289.61 237.89,289.61" fill="none" stroke="rgb(202, 65, 236)" stroke-width="2.85" stroke-opacity="1.00" stroke-linejoin="round"/>
<path d="M298.62,271.38 C298.62,271.38 298.41,270.85 298.41,270.85 C297.61,271.19 286.55,281.98 283.65,284.86 C282.39,286.15 281.35,287.49 279.79,289.70 C279.79,289.70 280.02,290.11 280.02,290.11 C280.02,290.11 280.19,290.13 280.19,290.13" fill="none" stroke="rgb(202, 65, 236)" stroke-width="2.85" stroke-opacity="1.00" stroke-linejoin="round"/>
<path d="M295.43,313.15 C295.43,313.15 295.54,313.12 295.54,313.12 C295.97,313.11 293.12,317.71 289.61,322.21 C288.17,324.04 281.78,331.55 281.61,331.80 C281.51,331.95 281.39,332.21 281.24,332.58" fill="none" stroke="rgb(202, 65, 236)" stroke-width="2.85" stroke-opacity="1.00" stroke-linejoin="round"/>
<path d="M308.82,355.26 C308.76,355.28 308.73,355.28 308.73,355.26 C308.72,355.24 308.65,355.28 308.51,355.39 C304.88,358.31 295.82,368.95 291.11,375.37 C287.51,380.44 281.41,389.51 280.45,391.34 C280.28,391.68 280.27,391.84 280.43,391.80 C280.43,391.80 280.60,391.79 280.60,391.79" fill="none" stroke="rgb(202, 65, 236)" stroke-width="2.85" stroke-opacity="1.00" stroke-linejoin="round"/>
<path d="M289.88,401.92 C287.13,404.42 282.84,408.99 280.97,411.06 C278.21,414.16 263.98,432.05 263.12,433.21 C261.07,435.95 260.68,436.82 260.64,437.29 C260.64,437.29 261.51,436.95 261.51,436.95" fill="none" stroke="rgb(202, 65, 236)" stroke-width="2.85" stroke-opacity="1.00" stroke-linejoin="round"/>
<path d="M298.32,420.62 C298.32,420.62 299.66,419.72 299.66,419.72 C299.65,419.93 289.02,434.02 285.03,439.32 C283.85,440.86 282.32,442.88 282.29,443.01 C282.29,443.01 282.33,442.98 282.33,442.98" fill="none" stroke="rgb(202, 65, 236)" stroke-width="2.85" stroke-opacity="1.00" stroke-linejoin="round"/>
<path d="M177.50,500.26 C177.50,500.26 177.39,500.29 177.39,500.29 C176.50,499.19 176.02,498.39 175.39,496.85 C174.63,495.10 173.22,493.26 171.96,492.83 C169.99,492.19 164.32,493.25 162.17,493.94 C159.22,494.95 155.73,498.04 154.64,498.58 C153.74,499.03 149.59,499.28 149.39,499.31 C148.27,499.49 146.45,500.55 145.85,501.45 C145.22,502.49 145.23,504.51 145.89,505.56 C146.45,506.38 151.84,510.87 152.89,513.34 C153.96,515.94 154.67,516.54 155.61,516.22 C157.57,515.55 167.34,511.32 168.52,511.30 C171.47,511.32 177.51,514.69 179.62,514.71 C181.11,514.68 183.85,513.44 185.54,512.10 C186.53,511.30 190.19,508.09 191.32,507.50 C192.61,506.85 200.66,505.43 203.93,503.78 C207.47,501.95 209.88,499.86 209.90,498.43 C209.83,496.80 207.36,493.82 204.58,492.88 C202.37,492.17 196.22,491.51 195.44,490.74 C194.43,489.19 193.19,487.40 192.79,487.17" fill="none" stroke="rgb(164, 0, 1)" stroke-width="2.85" stroke-opacity="1.00" stroke-linejoin="round"/>
<path d="M226.24,495.43 C225.75,495.71 224.97,496.01 224.69,496.13 C224.18,496.34 223.91,496.61 223.84,496.88 C224.63,497.10 236.42,504.34 238.32,504.86 C239.73,505.21 242.02,504.80 243.83,503.93 C249.81,500.86 260.35,498.00 266.61,497.67 C269.04,497.55 274.60,497.97 276.21,496.98 C279.40,494.92 282.86,487.84 282.64,486.44 C282.35,484.96 279.68,484.00 276.97,484.31 C275.16,484.53 270.70,485.20 270.22,484.94 C269.86,483.63 269.84,482.88 270.49,482.00 C271.56,480.50 274.85,476.36 275.13,475.83 C275.38,475.36 275.56,474.61 275.68,473.59 C274.85,472.76 272.14,473.00 269.56,473.76 C265.29,475.06 253.28,483.08 251.40,484.13 C249.83,484.98 241.73,488.34 241.04,488.75 C240.10,489.29 239.27,490.00 238.38,490.62 C238.10,490.81 237.86,490.94 237.64,491.00" fill="none" stroke="rgb(164, 0, 1)" stroke-width="2.85" stroke-opacity="1.00" stroke-linejoin="round"/>
<path d="M214.54,337.70 C214.54,337.70 214.48,337.48 214.48,337.48 C214.37,338.73 216.88,344.82 218.29,346.18 C220.26,347.97 224.97,349.73 227.83,349.59 C230.14,349.44 236.39,347.50 238.42,346.62 C239.65,346.06 241.51,344.62 242.35,343.48 C244.12,341.00 246.31,333.91 246.58,329.75 C246.75,326.77 246.08,322.99 246.02,323.02" fill="none" stroke="rgb(0, 0, 255)" stroke-width="2.85" stroke-opacity="1.00" stroke-linejoin="round"/>
<path d="M218.65,307.19 C218.65,307.19 218.55,307.21 218.55,307.21 C218.49,307.11 218.08,306.37 217.82,306.15 C216.63,305.23 210.58,304.58 206.59,305.10 C203.25,305.56 197.59,307.56 195.31,308.59 C193.09,309.62 189.95,311.75 188.53,313.10 C186.82,314.78 183.97,319.70 183.62,322.81 C183.30,326.10 184.63,333.03 186.21,336.71 C186.99,338.47 189.60,342.91 190.96,344.56 C192.41,346.30 196.11,349.77 198.52,351.34 C199.49,351.97 206.40,356.17 209.17,357.90 C210.71,358.83 212.80,359.65 214.29,360.02 C214.51,360.07 214.64,360.08 214.66,360.04" fill="none" stroke="rgb(0, 0, 255)" stroke-width="2.85" stroke-opacity="1.00" stroke-linejoin="round"/>
<path d="M225.24,304.54 C225.29,304.29 225.32,304.12 225.35,304.01 C225.52,303.45 226.16,302.28 226.73,301.70 C227.98,300.46 233.66,298.21 235.93,297.56 C239.20,296.65 243.96,295.80 246.38,296.07 C248.90,296.38 253.90,298.53 256.42,300.27 C258.55,301.77 262.21,305.50 263.41,307.23 C266.13,311.20 270.23,321.86 270.98,326.95 C271.68,331.91 270.10,342.57 268.48,348.01 C267.72,350.50 265.90,354.42 264.61,356.27 C262.62,359.05 255.16,365.94 250.83,367.85 C250.70,367.90 250.57,367.97 250.44,368.04 C250.44,368.04 250.44,368.12 250.44,368.12" fill="none" stroke="rgb(0, 0, 255)" stroke-width="2.85" stroke-opacity="1.00" stroke-linejoin="round"/>
<path d="M225.52,349.41 C225.52,349.41 225.75,349.06 225.75,349.06 C225.75,349.06 225.95,349.06 225.95,349.06 C226.04,349.54 223.86,355.16 222.71,357.39 C221.50,359.68 218.05,363.86 216.06,365.21 C213.89,366.59 209.90,366.82 205.25,366.10 C199.03,365.17 195.20,364.77 191.21,364.72 C185.57,364.67 182.24,365.01 178.16,366.07 C174.57,367.01 173.98,367.32 173.39,367.87 C173.40,368.63 175.02,371.35 177.26,373.36 C179.16,375.02 181.17,375.40 184.61,374.82 C189.58,373.98 206.23,374.36 207.48,374.78 C208.81,375.30 209.57,379.04 209.30,383.39 C208.46,395.45 208.85,398.76 209.66,399.57 C211.31,401.09 215.89,402.52 218.70,402.94 C221.74,403.37 230.42,403.02 232.77,402.22 C234.37,401.65 236.72,399.72 237.93,398.12 C240.02,395.23 241.90,390.58 242.37,387.44 C242.78,384.37 243.82,376.31 243.92,375.77 C243.99,375.36 244.18,374.52 244.48,373.24" fill="none" stroke="rgb(0, 0, 255)" stroke-width="2.85" stroke-opacity="1.00" stroke-linejoin="round"/>
<path d="M239.68,348.96 C239.65,348.96 239.61,348.96 239.58,348.96 C239.55,348.96 239.51,348.96 239.48,348.96 C239.19,350.06 239.03,351.02 238.66,353.84 C238.33,356.41 238.16,359.13 238.30,360.51 C238.58,362.91 241.52,365.32 243.99,366.76 C245.91,367.85 253.42,370.41 256.51,371.36 C259.10,372.15 265.42,373.85 266.74,375.08 C268.22,376.56 269.69,381.27 269.92,385.08 C270.12,388.97 269.77,392.00 268.59,392.92 C267.10,394.00 262.37,395.47 260.64,395.08 C259.55,394.79 257.31,391.25 256.35,388.36 C254.68,383.04 252.98,379.71 251.09,378.04 C249.39,376.61 246.27,375.31 243.07,374.86 C242.83,374.82 242.68,374.75 242.64,374.65" fill="none" stroke="rgb(0, 0, 255)" stroke-width="2.85" stroke-opacity="1.00" stroke-linejoin="round"/>
<path d="M173.30,371.41 C173.30,371.41 173.30,371.12 173.30,371.12 C173.27,371.03 172.21,371.21 171.20,371.53 C166.04,373.24 163.09,377.34 162.85,377.88 C162.85,377.88 168.61,375.97 168.61,375.97 C165.05,378.42 163.49,380.24 163.26,382.02 C163.25,382.10 163.23,382.38 163.21,382.83 C163.21,382.83 169.16,377.66 169.16,377.66 C169.42,377.80 166.99,383.22 167.01,383.90 C167.01,384.08 167.09,384.44 167.22,384.96 C168.62,384.90 169.34,384.56 170.01,383.27 C171.43,380.49 171.89,379.68 172.12,379.51 C172.12,379.51 171.48,384.58 171.48,384.58 C171.48,384.58 174.24,379.85 174.24,379.85 C174.24,379.85 174.99,383.28 174.99,383.28 C175.63,383.42 176.32,382.81 176.74,381.32 C177.10,380.07 177.55,376.85 177.60,375.60 C177.62,375.21 177.61,374.85 177.58,374.54 C177.58,374.53 177.55,374.50 177.55,374.51" fill="none" stroke="rgb(0, 0, 255)" stroke-width="2.85" stroke-opacity="1.00" stroke-linejoin="round"/>
<path d="M256.27,393.79 C256.33,393.61 256.47,393.20 256.51,393.11 C256.54,393.07 256.57,393.04 256.61,393.02 C256.02,394.23 253.65,398.26 253.10,400.22 C252.56,402.17 252.82,403.34 253.09,403.79 C253.09,403.79 255.79,399.82 255.79,399.82 C255.86,400.32 254.74,405.48 254.79,406.54 C254.84,407.54 255.09,408.50 255.27,408.62 C256.44,407.54 257.94,402.00 258.10,401.56 C258.14,401.45 258.20,401.33 258.27,401.19 C258.27,401.19 259.65,409.52 259.65,409.52 C260.94,408.95 261.41,400.67 261.41,400.72 C261.41,400.72 262.10,404.95 262.10,404.95 C262.92,404.87 263.26,404.59 263.47,403.34 C264.01,400.22 264.16,399.19 264.19,398.40 C264.19,398.40 265.92,404.77 265.92,404.77 C267.27,403.61 268.31,397.79 268.41,394.78 C268.43,394.25 268.42,393.00 268.55,392.81 C268.55,392.81 268.94,393.09 268.94,393.09" fill="none" stroke="rgb(0, 0, 255)" stroke-width="2.85" stroke-opacity="1.00" stroke-linejoin="round"/>
<path d="M213.29,404.39 C213.18,404.52 213.08,404.66 212.98,404.79 C212.61,405.32 211.52,408.22 209.05,414.02 C205.75,421.66 201.00,428.93 197.70,433.76 C196.53,435.67 187.28,452.65 184.37,458.14 C181.13,464.41 179.64,468.47 179.69,468.42 C179.69,468.42 179.77,468.40 179.77,468.40 C179.77,468.40 179.94,468.19 179.94,468.19" fill="none" stroke="rgb(0, 0, 255)" stroke-width="2.85" stroke-opacity="1.00" stroke-linejoin="round"/>
<path d="M223.74,410.49 C223.87,410.31 223.96,410.19 224.01,410.13 C224.07,410.08 224.17,410.02 224.32,409.95 C224.78,410.62 224.71,414.49 224.30,417.43 C223.09,425.32 220.07,444.43 220.05,444.81 C219.97,446.74 220.05,454.31 219.85,456.92 C219.69,458.99 219.72,460.06 219.92,460.45 C219.92,460.45 220.22,460.26 220.22,460.26" fill="none" stroke="rgb(0, 0, 255)" stroke-width="2.85" stroke-opacity="1.00" stroke-linejoin="round"/>
<path d="M233.23,402.16 C233.20,402.10 233.17,402.06 233.16,402.03 C233.14,401.99 233.09,401.93 233.03,401.83 C233.02,401.82 233.06,401.84 233.07,401.85 C234.33,403.21 237.26,406.61 238.77,408.59 C243.10,414.32 249.91,426.65 251.82,432.43 C254.96,442.10 254.45,455.04 254.32,456.40 C254.28,456.87 254.19,457.42 254.08,458.06 C254.08,458.07 254.07,458.08 254.07,458.07 C254.08,458.08 254.06,458.05 254.05,458.04 C254.01,458.01 253.87,457.90 253.63,457.72" fill="none" stroke="rgb(0, 0, 255)" stroke-width="2.85" stroke-opacity="1.00" stroke-linejoin="round"/>
<path d="M219.35,468.26 C219.35,468.26 219.22,468.38 219.22,468.38 C219.27,468.60 223.04,467.94 227.40,467.01 C240.59,464.05 252.46,460.50 253.07,460.51 C253.07,460.51 253.09,460.56 253.09,460.56 C253.09,460.56 253.07,460.63 253.07,460.63" fill="none" stroke="rgb(0, 0, 255)" stroke-width="2.85" stroke-opacity="1.00" stroke-linejoin="round"/>
<path d="M182.88,467.28 C182.88,467.27 182.90,467.31 182.90,467.32 C183.26,467.75 184.55,469.12 185.34,469.72 C188.38,472.00 194.60,473.38 197.61,473.11 C199.48,472.90 210.47,469.69 212.68,469.15 C212.95,469.08 213.12,469.04 213.18,469.03" fill="none" stroke="rgb(0, 0, 255)" stroke-width="2.85" stroke-opacity="1.00" stroke-linejoin="round"/>
<path d="M195.40,471.75 C195.24,471.84 194.94,472.02 194.82,472.50 C194.13,475.06 193.77,475.86 192.94,476.18 C192.34,476.40 187.59,478.24 186.45,479.41 C185.45,480.48 184.30,483.15 184.42,484.25 C184.59,485.40 186.45,486.42 188.19,486.36 C190.33,486.25 207.24,480.90 207.68,480.77 C211.89,479.50 213.70,478.07 213.50,477.14 C213.22,476.02 212.54,474.51 211.49,472.65 C211.28,472.28 211.07,471.89 210.85,471.49" fill="none" stroke="rgb(0, 0, 255)" stroke-width="2.85" stroke-opacity="1.00" stroke-linejoin="round"/>
<path d="M231.35,466.73 C231.35,466.73 231.22,466.58 231.22,466.58 C231.09,466.74 230.75,468.14 230.61,469.48 C230.43,471.29 230.50,473.39 230.80,473.99 C231.48,475.23 234.16,475.93 236.36,475.69 C239.18,475.37 247.38,474.12 248.03,473.99 C251.30,473.32 252.70,472.14 252.80,471.28 C252.51,470.37 246.67,466.09 245.43,464.85 C244.94,464.36 242.90,462.06 242.16,461.23" fill="none" stroke="rgb(0, 0, 255)" stroke-width="2.85" stroke-opacity="1.00" stroke-linejoin="round"/>
<path d="M232.46,323.54 C232.46,323.54 232.73,322.89 232.73,322.89 C233.25,322.66 233.63,322.51 233.85,322.43 C235.18,321.99 237.86,321.95 239.82,322.37 C240.35,322.48 240.82,322.67 241.23,322.93 C241.30,322.98 241.40,323.07 241.54,323.20" fill="none" stroke="rgb(0, 0, 255)" stroke-width="2.85" stroke-opacity="1.00" stroke-linejoin="round"/>
<path d="M214.33,324.45 C214.33,324.45 214.34,324.57 214.34,324.57 C214.94,324.55 215.55,324.53 216.15,324.51 C217.38,324.48 218.29,324.46 218.88,324.46 C219.21,324.46 219.55,324.48 219.91,324.51" fill="none" stroke="rgb(0, 0, 255)" stroke-width="2.85" stroke-opacity="1.00" stroke-linejoin="round"/>
<path d="M215.52,330.58 C215.52,330.58 215.39,330.35 215.39,330.35 C216.21,330.30 217.12,330.22 218.85,330.02 C219.51,329.94 220.16,329.87 220.82,329.79 C219.12,329.97 217.81,330.53 217.71,331.19 C217.52,332.50 217.58,333.69 217.80,333.93 C217.80,333.93 218.92,330.66 218.92,330.66 C218.92,330.66 218.00,334.02 218.00,334.02 C218.00,334.02 219.17,331.80 219.17,331.80 C219.17,331.80 218.54,333.07 218.54,333.07 C218.54,333.07 219.28,332.95 219.28,332.95" fill="none" stroke="rgb(0, 0, 255)" stroke-width="2.85" stroke-opacity="1.00" stroke-linejoin="round"/>
<path d="M233.12,327.38 C233.12,327.38 232.74,327.29 232.74,327.29 C232.74,327.29 232.25,327.68 232.25,327.68 C232.22,327.82 239.52,327.56 239.82,327.55 C240.00,327.55 240.20,327.59 240.41,327.66 C240.41,327.66 240.27,327.80 240.27,327.80" fill="none" stroke="rgb(0, 0, 255)" stroke-width="2.85" stroke-opacity="1.00" stroke-linejoin="round"/>
<path d="M235.67,328.88 C235.68,328.88 235.33,328.89 235.22,328.93 C234.64,329.17 233.90,331.56 234.24,332.05 C234.24,332.05 236.05,328.77 236.05,328.77 C236.05,328.77 235.14,331.49 235.14,331.49 C235.14,331.49 235.99,329.99 235.99,329.99 C235.99,329.99 234.57,331.08 234.57,331.08 C234.57,331.08 235.72,329.32 235.72,329.32 C235.72,329.32 235.24,329.50 235.24,329.50 C235.24,329.50 235.00,329.92 235.00,329.92" fill="none" stroke="rgb(0, 0, 255)" stroke-width="2.85" stroke-opacity="1.00" stroke-linejoin="round"/>
<path d="M225.84,332.99 C225.84,332.99 226.09,332.23 226.09,332.23 C226.09,332.23 226.51,332.23 226.51,332.23 C226.51,332.23 227.43,333.08 227.43,333.08 C227.43,333.08 227.48,332.02 227.48,332.02 C227.10,332.59 227.22,333.14 227.92,333.60 C228.06,333.69 228.30,333.81 228.63,333.97" fill="none" stroke="rgb(0, 0, 255)" stroke-width="2.85" stroke-opacity="1.00" stroke-linejoin="round"/>
<path d="M224.65,340.63 C224.65,340.63 224.71,340.19 224.71,340.19 C224.71,340.19 225.08,340.10 225.08,340.10 C227.70,341.51 232.00,339.50 233.80,338.15 C233.53,339.02 233.09,341.97 232.85,343.08 C232.60,344.21 231.65,344.60 230.03,344.63 C228.04,344.58 226.12,343.33 225.25,341.59 C224.91,340.89 224.86,340.08 224.99,339.17 C225.07,339.20 224.61,342.16 225.07,343.12 C225.52,344.00 228.33,344.67 230.81,344.13 C231.95,343.84 232.68,340.73 232.58,340.88 C229.63,343.63 227.75,342.54 227.28,342.03 C227.28,342.03 231.93,341.28 231.93,341.28 C231.93,341.28 228.00,342.72 228.00,342.72 C228.00,342.72 232.65,341.61 232.65,341.61 C232.65,341.61 229.40,341.83 229.40,341.83" fill="none" stroke="rgb(0, 0, 255)" stroke-width="2.85" stroke-opacity="1.00" stroke-linejoin="round"/>
<path d="M211.89,318.49 C211.92,318.42 211.95,318.36 211.98,318.31 C212.02,318.27 212.10,318.18 212.23,318.03 C212.71,318.12 211.65,321.69 211.66,323.84 C211.67,325.30 213.33,337.26 214.14,338.96 C215.13,340.97 217.11,342.00 217.39,342.05" fill="none" stroke="rgb(0, 0, 255)" stroke-width="2.85" stroke-opacity="1.00" stroke-linejoin="round"/>
<path d="M214.33,319.71 C214.33,319.71 214.14,320.16 214.14,320.16 C215.46,320.94 222.09,321.90 224.59,321.94 C228.56,321.97 235.19,320.22 237.83,318.70 C239.42,317.76 242.74,314.50 243.24,314.39 C244.28,315.02 247.41,323.75 248.84,331.04 C249.37,333.76 249.43,337.87 248.90,340.94 C247.60,348.10 245.38,354.64 244.90,355.82 C244.57,356.58 244.23,357.42 244.24,357.40" fill="none" stroke="rgb(0, 0, 255)" stroke-width="2.85" stroke-opacity="1.00" stroke-linejoin="round"/>
<path d="M253.52,324.48 C253.52,324.48 253.59,324.52 253.59,324.52 C253.62,325.73 253.66,328.04 253.59,328.83 C253.31,331.72 248.01,358.41 248.15,359.78 C248.23,360.43 248.46,360.86 248.87,361.30" fill="none" stroke="rgb(0, 0, 255)" stroke-width="2.85" stroke-opacity="1.00" stroke-linejoin="round"/>
<path d="M254.91,319.99 C254.99,321.21 255.01,322.33 254.89,326.56 C254.71,333.81 248.66,357.92 247.51,361.39 C246.95,363.06 246.55,364.10 246.16,364.96 C246.16,364.96 246.46,364.19 246.46,364.19" fill="none" stroke="rgb(0, 0, 255)" stroke-width="2.85" stroke-opacity="1.00" stroke-linejoin="round"/>
<path d="M255.92,316.85 C255.92,316.85 256.09,316.73 256.09,316.73 C256.09,316.73 256.48,316.96 256.48,316.96 C257.98,320.47 259.39,330.86 259.34,335.02 C259.15,344.57 253.75,360.68 253.01,361.42 C252.87,361.37 252.94,360.67 253.27,359.25 C253.33,358.98 253.42,358.59 253.55,358.08" fill="none" stroke="rgb(0, 0, 255)" stroke-width="2.85" stroke-opacity="1.00" stroke-linejoin="round"/>
<path d="M267.39,329.43 C267.39,329.99 267.39,330.55 267.39,331.11 C267.40,337.32 266.13,345.10 264.84,349.07 C263.94,351.80 262.49,354.98 260.66,357.68 C258.57,360.72 256.27,362.79 255.71,363.01" fill="none" stroke="rgb(0, 0, 255)" stroke-width="2.85" stroke-opacity="1.00" stroke-linejoin="round"/>
<path d="M202.30,313.96 C202.38,313.74 202.43,313.57 202.45,313.46 C202.47,313.34 202.50,313.13 202.53,312.81 C202.01,312.41 199.42,313.05 197.82,314.45 C195.83,316.24 192.68,321.74 191.82,324.21 C191.01,326.61 190.41,331.59 190.65,333.37 C191.13,336.74 192.94,340.97 194.23,342.98 C195.76,345.30 200.12,349.74 203.64,351.85 C204.70,352.48 205.82,352.92 206.33,353.03" fill="none" stroke="rgb(0, 0, 255)" stroke-width="2.85" stroke-opacity="1.00" stroke-linejoin="round"/>
<path d="M214.02,311.51 C213.31,310.94 211.88,311.03 210.12,312.41 C208.34,313.85 204.55,318.81 203.24,321.71 C202.09,324.31 200.92,329.20 200.76,331.16 C200.60,333.37 200.92,337.34 201.46,339.40 C201.97,341.29 204.20,345.77 206.13,348.00 C208.09,350.24 213.96,354.24 215.58,354.84 C216.25,355.08 217.04,355.15 217.51,355.11 C217.51,355.11 217.89,354.74 217.89,354.74" fill="none" stroke="rgb(0, 0, 255)" stroke-width="2.85" stroke-opacity="1.00" stroke-linejoin="round"/>
<path d="M212.76,315.21 C212.65,315.04 212.56,314.91 212.48,314.82 C212.40,314.72 212.22,314.53 211.94,314.25 C211.94,314.25 211.60,314.41 211.60,314.41 C210.70,315.67 209.24,330.71 209.80,336.80 C209.99,338.80 210.97,343.18 211.62,344.83 C213.22,348.75 216.99,353.42 219.03,354.42 C219.22,354.50 219.48,354.58 219.82,354.64" fill="none" stroke="rgb(0, 0, 255)" stroke-width="2.85" stroke-opacity="1.00" stroke-linejoin="round"/>
<path d="M217.05,310.19 C217.05,310.19 217.08,309.87 217.08,309.87 C217.13,310.97 217.26,314.03 217.35,314.63 C217.64,316.80 218.33,317.73 218.48,317.86" fill="none" stroke="rgb(0, 0, 255)" stroke-width="2.85" stroke-opacity="1.00" stroke-linejoin="round"/>
<path d="M222.66,310.22 C222.66,310.22 223.09,309.20 223.09,309.20 C223.31,310.17 223.56,312.71 223.74,313.67 C224.02,315.21 224.73,317.08 225.22,317.91" fill="none" stroke="rgb(0, 0, 255)" stroke-width="2.85" stroke-opacity="1.00" stroke-linejoin="round"/>
<path d="M230.40,308.13 C230.27,308.47 230.21,308.79 230.21,309.10 C230.23,310.08 230.60,313.82 230.71,315.63 C230.75,316.17 230.86,317.01 231.02,318.14" fill="none" stroke="rgb(0, 0, 255)" stroke-width="2.85" stroke-opacity="1.00" stroke-linejoin="round"/>
<path d="M237.83,306.63 C237.46,307.71 237.24,308.49 237.17,309.00 C236.93,310.69 237.34,313.40 237.95,314.44 C238.10,314.68 238.43,315.13 238.95,315.78" fill="none" stroke="rgb(0, 0, 255)" stroke-width="2.85" stroke-opacity="1.00" stroke-linejoin="round"/>
<path d="M244.42,304.30 C244.42,304.30 244.51,303.52 244.51,303.52 C244.51,303.52 244.41,303.52 244.41,303.52 C245.99,304.40 248.67,306.99 249.70,309.41 C250.80,312.09 251.83,316.80 252.39,320.79 C252.92,324.66 253.53,326.80 253.65,326.74" fill="none" stroke="rgb(0, 0, 255)" stroke-width="2.85" stroke-opacity="1.00" stroke-linejoin="round"/>
<path d="M245.74,307.40 C245.74,307.46 245.79,307.62 245.92,307.89 C246.55,309.30 250.06,316.34 250.95,318.48 C254.30,326.63 254.92,343.45 255.05,346.34 C255.13,347.61 255.20,348.13 255.24,348.04 C255.31,348.03 255.36,347.94 255.40,347.77 C255.52,347.14 255.67,345.17 255.76,343.37" fill="none" stroke="rgb(0, 0, 255)" stroke-width="2.85" stroke-opacity="1.00" stroke-linejoin="round"/>
<path d="M256.38,304.96 C256.38,304.96 256.47,304.95 256.47,304.95 C257.70,305.85 261.41,315.68 263.11,323.28 C264.30,328.61 266.05,341.32 265.94,346.13 C265.85,349.00 264.75,354.99 263.92,357.30 C263.77,357.68 263.63,358.07 263.49,358.46" fill="none" stroke="rgb(0, 0, 255)" stroke-width="2.85" stroke-opacity="1.00" stroke-linejoin="round"/>
<path d="M268.72,340.00 C268.61,341.42 268.35,342.68 267.84,343.92 C266.03,348.24 257.66,359.53 254.49,362.79 C252.99,364.32 251.71,365.18 251.54,365.13" fill="none" stroke="rgb(0, 0, 255)" stroke-width="2.85" stroke-opacity="1.00" stroke-linejoin="round"/>
<path d="M247.88,338.30 C247.63,339.35 247.31,340.36 246.40,342.92 C244.84,347.29 242.03,355.17 241.73,356.38 C241.69,356.52 241.67,356.67 241.65,356.81" fill="none" stroke="rgb(0, 0, 255)" stroke-width="2.85" stroke-opacity="1.00" stroke-linejoin="round"/>
<path d="M248.08,340.21 C248.08,340.18 248.08,340.26 248.08,340.28 C247.93,341.55 247.58,343.62 247.24,345.15 C246.84,346.90 245.42,351.62 244.52,354.24 C243.66,356.69 243.50,357.20 243.51,357.38 C243.51,357.39 243.54,357.38 243.54,357.37 C243.79,357.09 244.15,356.68 244.36,356.47" fill="none" stroke="rgb(0, 0, 255)" stroke-width="2.85" stroke-opacity="1.00" stroke-linejoin="round"/>
<path d="M246.20,354.78 C246.13,355.51 246.02,356.08 245.88,356.48 C245.11,358.66 242.57,362.96 241.92,363.84 C241.92,363.84 241.69,363.88 241.69,363.88 C241.76,363.71 241.82,363.59 241.85,363.52 C241.88,363.46 241.94,363.37 242.01,363.25" fill="none" stroke="rgb(0, 0, 255)" stroke-width="2.85" stroke-opacity="1.00" stroke-linejoin="round"/>
<path d="M253.73,353.25 C253.63,355.52 253.42,356.95 252.89,358.56 C252.51,359.70 251.65,362.20 251.17,363.55 C251.06,363.84 250.98,364.08 250.92,364.27" fill="none" stroke="rgb(0, 0, 255)" stroke-width="2.85" stroke-opacity="1.00" stroke-linejoin="round"/>
<path d="M264.29,349.17 C263.87,350.16 263.45,351.16 263.04,352.16 C262.40,353.70 261.11,356.85 260.45,358.47 C259.93,359.71 259.12,361.70 258.81,362.44" fill="none" stroke="rgb(0, 0, 255)" stroke-width="2.85" stroke-opacity="1.00" stroke-linejoin="round"/>
<path d="M201.05,309.32 C200.00,309.50 198.53,309.49 198.02,309.62 C195.92,310.16 192.78,313.18 191.55,315.53 C190.21,318.15 189.02,323.94 189.10,325.91 C189.30,329.52 190.86,333.99 191.88,335.73 C192.86,337.34 195.77,340.90 198.24,343.10 C200.26,344.89 202.82,346.69 205.12,348.19" fill="none" stroke="rgb(0, 0, 255)" stroke-width="2.85" stroke-opacity="1.00" stroke-linejoin="round"/>
<path d="M203.11,311.72 C203.11,311.72 202.37,310.74 202.37,310.74 C201.64,310.83 199.62,313.49 198.62,317.07 C197.64,320.75 197.75,330.34 199.10,335.23 C199.75,337.53 201.67,342.16 202.66,343.96 C204.08,346.51 206.49,349.73 208.44,351.48 C210.56,353.36 212.33,354.34 212.91,354.50" fill="none" stroke="rgb(0, 0, 255)" stroke-width="2.85" stroke-opacity="1.00" stroke-linejoin="round"/>
<path d="M208.33,315.77 C208.33,315.77 206.98,313.99 206.98,313.99 C205.55,315.89 204.49,322.00 204.31,323.75 C203.87,328.21 204.65,337.33 205.95,341.41 C206.33,342.54 207.49,344.91 208.40,346.39 C209.14,347.59 210.17,348.62 211.25,349.47" fill="none" stroke="rgb(0, 0, 255)" stroke-width="2.85" stroke-opacity="1.00" stroke-linejoin="round"/>
<path d="M210.04,319.32 C210.04,319.32 209.46,319.28 209.46,319.28 C208.30,320.90 207.61,332.50 208.27,337.35 C208.62,339.77 209.78,344.37 210.40,345.93 C211.92,349.65 215.01,353.74 215.05,353.37" fill="none" stroke="rgb(0, 0, 255)" stroke-width="2.85" stroke-opacity="1.00" stroke-linejoin="round"/>
<path d="M207.39,309.00 C207.03,308.82 206.13,308.71 205.37,309.08 C202.58,310.50 198.44,315.61 197.19,318.03 C196.00,320.43 194.60,324.40 194.04,327.03 C192.75,333.54 194.88,337.44 195.24,337.86" fill="none" stroke="rgb(0, 0, 255)" stroke-width="2.85" stroke-opacity="1.00" stroke-linejoin="round"/>
<path d="M206.98,313.96 C206.06,314.03 203.30,316.38 201.97,319.15 C200.70,321.84 198.95,328.26 198.64,330.39 C197.78,336.65 199.50,341.30 200.19,342.25" fill="none" stroke="rgb(0, 0, 255)" stroke-width="2.85" stroke-opacity="1.00" stroke-linejoin="round"/>
<path d="M207.64,311.31 C205.72,310.63 204.02,311.29 203.11,312.59 C201.66,314.75 199.81,320.55 199.37,323.63 C198.98,326.49 198.78,331.28 198.88,333.24 C199.19,338.46 200.45,341.74 200.61,341.89" fill="none" stroke="rgb(0, 0, 255)" stroke-width="2.85" stroke-opacity="1.00" stroke-linejoin="round"/>
<path d="M199.51,307.68 C198.97,307.68 198.57,307.69 198.30,307.71 C195.86,307.99 191.05,310.82 189.75,312.16 C188.15,313.89 186.37,318.60 186.02,321.92 C185.73,324.95 186.12,330.75 186.76,333.69 C187.47,336.78 189.69,341.40 191.50,343.91 C193.30,346.35 198.00,350.68 201.23,353.00 C203.57,354.66 211.17,358.85 212.74,359.50 C214.48,360.21 216.59,360.88 216.46,360.73" fill="none" stroke="rgb(0, 0, 255)" stroke-width="2.85" stroke-opacity="1.00" stroke-linejoin="round"/>
<path d="M208.47,354.95 C208.53,354.91 208.62,354.92 208.76,355.00 C209.32,355.31 212.07,357.05 213.24,357.55 C214.41,358.06 217.04,358.88 216.94,358.81" fill="none" stroke="rgb(0, 0, 255)" stroke-width="2.85" stroke-opacity="1.00" stroke-linejoin="round"/>
<path d="M213.91,348.82 C213.91,348.82 213.63,349.37 213.63,349.37 C213.63,349.37 215.90,351.00 215.90,351.00" fill="none" stroke="rgb(0, 0, 255)" stroke-width="2.85" stroke-opacity="1.00" stroke-linejoin="round"/>
<path d="M215.27,308.69 C214.63,308.66 213.62,308.31 213.59,308.31 C211.00,308.29 206.61,310.10 204.67,311.94 C203.68,312.90 203.45,314.09 203.49,314.28" fill="none" stroke="rgb(0, 0, 255)" stroke-width="2.85" stroke-opacity="1.00" stroke-linejoin="round"/>
<path d="M219.28,311.24 C218.75,310.79 216.76,310.84 214.83,311.68 C214.42,311.87 211.47,313.47 210.98,313.83 C210.10,314.49 208.79,315.79 208.85,315.84" fill="none" stroke="rgb(0, 0, 255)" stroke-width="2.85" stroke-opacity="1.00" stroke-linejoin="round"/>
<path d="M233.89,304.09 C233.46,303.79 232.05,303.90 231.15,304.86 C230.26,305.83 229.04,307.56 228.81,308.19 C228.45,309.29 228.90,310.79 229.25,311.42" fill="none" stroke="rgb(0, 0, 255)" stroke-width="2.85" stroke-opacity="1.00" stroke-linejoin="round"/>
<path d="M236.23,302.03 C236.23,302.03 236.28,301.56 236.28,301.56 C236.28,302.41 236.43,304.81 236.70,306.03 C237.06,307.69 238.09,310.31 238.67,311.39" fill="none" stroke="rgb(0, 0, 255)" stroke-width="2.85" stroke-opacity="1.00" stroke-linejoin="round"/>
<path d="M240.31,303.04 C240.31,303.04 240.41,302.70 240.41,302.70 C240.62,304.20 241.05,307.34 241.27,308.97 C241.56,310.98 242.66,313.39 242.75,313.39" fill="none" stroke="rgb(0, 0, 255)" stroke-width="2.85" stroke-opacity="1.00" stroke-linejoin="round"/>
<path d="M244.70,301.75 C244.70,301.75 245.26,301.13 245.26,301.13 C245.49,301.49 246.25,306.39 246.78,309.81 C246.87,310.40 246.95,310.99 247.04,311.58" fill="none" stroke="rgb(0, 0, 255)" stroke-width="2.85" stroke-opacity="1.00" stroke-linejoin="round"/>
<path d="M245.74,299.10 C245.74,299.10 246.24,298.01 246.24,298.01 C247.91,297.91 251.21,300.56 252.44,302.08 C252.85,302.60 253.62,303.69 254.75,305.34" fill="none" stroke="rgb(0, 0, 255)" stroke-width="2.85" stroke-opacity="1.00" stroke-linejoin="round"/>
<path d="M236.44,300.46 C236.44,300.46 236.29,300.41 236.29,300.41 C236.25,300.41 237.11,300.19 238.47,299.98 C240.73,299.66 245.41,299.92 247.87,300.51 C250.52,301.19 255.55,304.09 257.51,305.98 C259.30,307.75 261.73,311.16 262.54,312.63 C262.78,313.06 263.12,313.77 263.55,314.74 C263.57,314.76 263.60,314.84 263.59,314.82" fill="none" stroke="rgb(0, 0, 255)" stroke-width="2.85" stroke-opacity="1.00" stroke-linejoin="round"/>
<path d="M262.69,315.21 C262.65,316.22 262.68,316.99 262.79,317.53 C263.05,318.77 264.85,326.55 265.09,329.50 C265.36,333.11 265.19,339.23 264.57,343.19 C263.97,346.89 261.77,353.82 260.63,355.58 C259.41,357.41 257.81,359.05 257.14,359.28 C257.05,359.30 257.02,359.30 257.04,359.28" fill="none" stroke="rgb(0, 0, 255)" stroke-width="2.85" stroke-opacity="1.00" stroke-linejoin="round"/>
<path d="M247.98,345.30 C247.98,345.30 247.98,344.88 247.98,344.88 C247.59,347.16 246.18,351.02 243.89,356.64 C243.68,357.14 243.47,357.64 243.26,358.13" fill="none" stroke="rgb(0, 0, 255)" stroke-width="2.85" stroke-opacity="1.00" stroke-linejoin="round"/>
<path d="M241.04,349.03 C241.04,349.03 240.99,349.09 240.99,349.09 C241.07,349.57 241.04,350.09 240.73,351.56 C240.47,352.79 240.21,354.02 239.96,355.25" fill="none" stroke="rgb(0, 0, 255)" stroke-width="2.85" stroke-opacity="1.00" stroke-linejoin="round"/>
<path d="M211.96,348.61 C211.92,348.64 211.94,348.67 212.01,348.72 C213.61,349.81 218.26,353.72 219.13,354.14 C219.14,353.83 219.07,353.53 218.86,353.13 C218.83,353.07 218.77,352.96 218.68,352.80" fill="none" stroke="rgb(0, 0, 255)" stroke-width="2.85" stroke-opacity="1.00" stroke-linejoin="round"/>
<path d="M215.52,348.50 C215.52,348.50 215.28,348.17 215.28,348.17 C215.29,348.36 215.91,349.21 216.66,349.95 C217.12,350.41 217.58,350.81 218.06,351.15 C218.24,351.29 218.52,351.46 218.89,351.66" fill="none" stroke="rgb(0, 0, 255)" stroke-width="2.85" stroke-opacity="1.00" stroke-linejoin="round"/>
</g>
</svg>
