<?xml version="1.0" encoding="UTF-8" standalone="no"?>
<!DOCTYPE svg PUBLIC "-//W3C//DTD SVG 1.1//EN" "http://www.w3.org/Graphics/SVG/1.1/DTD/svg11.dtd">
<svg width="128.40" height="181.68" viewBox="0.00 0.00 535.00 757.00" xmlns="http://www.w3.org/2000/svg" xmlns:xlink="http://www.w3.org/1999/xlink">
<g stroke-linecap="round" transform="translate(44.00, 155.00)" id="105-비">
<path d="M39.20,38.74 C39.20,38.74 37.29,38.89 37.29,38.89 C36.87,40.75 37.55,43.46 38.87,48.28 C42.30,61.34 48.02,86.06 48.54,88.89 C49.27,92.95 49.65,97.79 49.35,100.39" fill="none" stroke="rgb(0, 255, 0)" stroke-width="2.34" stroke-opacity="1.00" stroke-linejoin="round"/>
<path d="M12.54,66.62 C11.61,67.04 10.86,69.24 11.38,72.57 C11.62,73.96 13.67,83.56 14.55,87.01 C15.61,91.07 17.44,96.17 19.13,100.01" fill="none" stroke="rgb(0, 255, 0)" stroke-width="2.34" stroke-opacity="1.00" stroke-linejoin="round"/>
<path d="M-1.81,62.11 C-1.81,62.11 -1.81,62.01 -1.81,62.01 C-1.82,65.43 -1.88,73.05 -2.04,76.39 C-2.21,79.80 -2.91,86.81 -3.26,87.98 C-3.37,88.32 -3.62,88.94 -4.03,89.83" fill="none" stroke="rgb(0, 255, 0)" stroke-width="2.34" stroke-opacity="1.00" stroke-linejoin="round"/>
<path d="M-0.99,24.39 C-0.99,24.39 -2.74,24.50 -2.74,24.50 C-3.40,25.16 -3.88,26.54 -3.86,28.43 C-3.85,29.00 -3.77,30.19 -3.62,32.00" fill="none" stroke="rgb(0, 255, 0)" stroke-width="2.34" stroke-opacity="1.00" stroke-linejoin="round"/>
<path d="M81.02,18.65 C80.17,20.22 80.25,22.67 81.09,23.88 C82.39,25.73 88.66,30.52 91.03,32.96 C94.07,36.13 99.63,46.37 102.64,53.80 C107.65,66.58 109.45,80.49 109.62,83.29 C109.65,83.81 109.68,84.76 109.72,86.15" fill="none" stroke="rgb(0, 255, 0)" stroke-width="2.34" stroke-opacity="1.00" stroke-linejoin="round"/>
<path d="M140.06,92.86 C140.06,92.86 137.91,92.55 137.91,92.55 C136.65,90.54 134.38,78.65 133.37,67.89 C132.64,58.44 132.30,44.87 132.62,40.01 C132.99,34.72 135.50,23.84 137.77,18.72 C140.08,13.60 147.33,2.69 151.62,-3.42 C152.64,-4.86 154.34,-7.25 155.01,-8.19" fill="none" stroke="rgb(0, 255, 0)" stroke-width="2.34" stroke-opacity="1.00" stroke-linejoin="round"/>
<path d="M169.99,25.62 C169.99,25.62 168.17,25.86 168.17,25.86 C166.62,28.25 163.89,40.10 162.28,48.75 C158.76,69.83 159.83,77.99 160.02,79.37" fill="none" stroke="rgb(0, 255, 0)" stroke-width="2.34" stroke-opacity="1.00" stroke-linejoin="round"/>
<path d="M204.84,-17.84 C204.76,-17.87 201.64,-17.11 201.11,-16.61 C198.99,-14.52 191.75,0.00 189.03,6.42 C186.46,12.82 181.09,25.89 177.96,32.93 C173.88,41.97 170.73,51.86 169.77,58.63 C168.96,64.51 168.76,79.78 169.42,86.17 C170.12,92.78 173.50,105.66 175.56,109.68 C176.39,111.27 179.15,115.47 179.87,116.55" fill="none" stroke="rgb(0, 255, 0)" stroke-width="2.34" stroke-opacity="1.00" stroke-linejoin="round"/>
<path d="M242.98,-10.05 C242.98,-10.05 240.67,-10.24 240.67,-10.24 C239.30,-9.03 237.31,-5.14 236.54,-3.27 C235.56,-0.83 227.49,20.15 226.34,23.59 C224.16,30.18 221.82,43.30 221.11,51.07 C220.48,59.12 221.13,68.69 222.09,73.36 C224.77,86.40 230.95,104.59 233.24,109.36 C235.08,113.19 238.02,118.09 238.79,119.36" fill="none" stroke="rgb(0, 255, 0)" stroke-width="2.34" stroke-opacity="1.00" stroke-linejoin="round"/>
<path d="M279.47,-5.54 C277.85,-3.78 276.34,-1.12 274.20,3.76 C271.11,11.14 263.51,29.45 262.83,31.23 C260.41,37.62 258.38,48.90 257.98,56.63 C257.65,63.42 258.27,74.07 259.62,83.11 C260.91,91.15 263.45,100.44 265.94,106.56 C268.15,111.88 272.04,121.50 273.70,125.81" fill="none" stroke="rgb(0, 255, 0)" stroke-width="2.34" stroke-opacity="1.00" stroke-linejoin="round"/>
<path d="M313.50,4.71 C313.50,4.71 312.59,4.71 312.59,4.71 C310.55,8.08 305.04,22.75 302.02,30.85 C297.21,43.80 294.72,50.92 293.13,58.42 C291.61,65.73 290.30,81.25 290.57,87.39 C290.72,90.45 291.28,94.39 292.00,98.25" fill="none" stroke="rgb(0, 255, 0)" stroke-width="2.34" stroke-opacity="1.00" stroke-linejoin="round"/>
<path d="M352.45,17.42 C351.21,16.96 348.63,16.19 347.68,16.24 C346.02,16.34 341.46,19.99 339.71,21.75 C337.76,23.72 332.62,29.39 331.01,31.36 C328.89,33.96 326.10,38.76 325.15,41.67 C323.66,46.33 321.62,59.52 321.51,65.90 C321.46,69.39 321.99,77.00 322.39,79.41 C322.84,82.02 325.70,90.16 327.58,92.90 C328.42,94.10 330.03,95.90 331.49,97.39" fill="none" stroke="rgb(0, 255, 0)" stroke-width="2.34" stroke-opacity="1.00" stroke-linejoin="round"/>
<path d="M365.16,3.89 C365.16,3.89 364.96,1.32 364.96,1.32 C363.10,2.52 361.45,5.81 359.57,9.96 C356.06,17.90 350.36,33.41 349.03,37.49 C346.52,45.22 343.42,57.79 342.03,66.01 C340.90,73.04 341.57,80.79 342.28,83.70" fill="none" stroke="rgb(0, 255, 0)" stroke-width="2.34" stroke-opacity="1.00" stroke-linejoin="round"/>
<path d="M398.37,0.20 C397.57,0.63 396.98,1.30 396.73,1.48 C396.51,1.65 391.54,3.75 389.58,5.77 C386.45,9.07 380.50,19.78 377.29,26.04 C374.19,32.34 370.40,43.63 368.45,52.05 C366.21,62.00 364.76,69.90 364.10,79.08 C363.70,85.09 365.37,98.48 366.29,105.47 C366.38,106.09 366.47,106.71 366.56,107.33" fill="none" stroke="rgb(0, 255, 0)" stroke-width="2.34" stroke-opacity="1.00" stroke-linejoin="round"/>
<path d="M378.69,27.26 C378.69,27.26 377.07,26.64 377.07,26.64 C376.92,26.73 376.63,33.17 378.38,56.72 C379.52,68.94 380.74,78.79 382.07,83.16 C382.74,85.26 384.33,87.79 386.25,90.28" fill="none" stroke="rgb(0, 255, 0)" stroke-width="2.34" stroke-opacity="1.00" stroke-linejoin="round"/>
<path d="M397.14,86.30 C396.72,85.52 396.09,84.01 395.65,82.95 C395.34,82.26 392.66,76.73 392.04,73.85 C390.83,68.01 389.41,52.81 389.57,47.78 C389.70,44.57 390.95,38.15 392.23,34.56 C394.42,28.45 400.93,15.24 404.80,9.06 C409.02,2.49 413.92,-5.13 414.60,-6.19" fill="none" stroke="rgb(0, 255, 0)" stroke-width="2.34" stroke-opacity="1.00" stroke-linejoin="round"/>
<path d="M438.15,-5.13 C438.15,-6.06 438.15,-6.98 438.15,-7.90 C438.15,-8.44 438.15,-8.98 438.15,-9.52 C437.01,-6.75 434.49,-0.45 433.30,3.04 C431.51,8.29 428.18,20.85 427.93,22.03 C427.48,24.23 426.94,27.37 426.68,29.13" fill="none" stroke="rgb(0, 255, 0)" stroke-width="2.34" stroke-opacity="1.00" stroke-linejoin="round"/>
<path d="M400.83,64.57 C400.83,64.57 398.58,65.39 398.58,65.39 C398.58,65.39 398.37,65.03 398.37,65.03 C398.56,64.12 419.05,22.96 421.01,20.83 C422.55,19.18 424.23,17.69 424.17,17.96 C423.94,19.81 416.83,32.48 414.19,39.69 C411.41,47.63 408.48,57.12 406.51,63.08 C403.50,72.43 401.60,78.95 400.83,85.88 C400.00,94.00 398.64,108.59 398.92,113.32 C399.34,120.07 401.97,130.19 405.78,139.97 C407.97,145.72 412.97,159.68 414.14,161.86 C416.55,166.22 417.53,167.66 418.80,169.29" fill="none" stroke="rgb(0, 255, 0)" stroke-width="2.34" stroke-opacity="1.00" stroke-linejoin="round"/>
<path d="M450.86,18.65 C450.86,18.65 450.69,16.84 450.69,16.84 C448.95,17.79 447.67,20.81 442.44,34.07 C439.31,41.78 433.70,55.53 432.23,60.61 C428.65,73.10 428.24,74.84 426.43,86.42 C424.57,98.63 423.58,107.02 423.46,111.90 C423.42,119.42 423.40,134.64 423.41,142.35 C423.51,149.24 425.31,161.10 427.34,168.99 C429.24,176.09 431.81,185.62 432.46,188.05" fill="none" stroke="rgb(0, 255, 0)" stroke-width="2.34" stroke-opacity="1.00" stroke-linejoin="round"/>
<path d="M463.98,84.25 C463.25,85.35 458.84,89.30 457.44,92.09 C455.70,95.67 450.43,109.10 448.74,116.92 C443.47,140.32 440.42,158.25 439.55,169.90 C439.21,176.43 438.65,191.08 438.69,195.89 C438.99,203.34 439.48,218.23 438.78,225.24 C437.53,236.83 437.65,254.57 437.66,255.63" fill="none" stroke="rgb(0, 255, 0)" stroke-width="2.34" stroke-opacity="1.00" stroke-linejoin="round"/>
<path d="M433.22,202.75 C433.25,200.76 433.19,199.60 432.92,199.30 C432.82,199.19 432.55,198.97 432.10,198.63 C430.66,198.50 428.62,201.17 425.90,205.69 C421.89,212.74 416.61,222.57 415.09,226.82 C413.76,230.56 406.14,255.04 405.20,257.80 C402.68,265.20 400.29,277.09 399.40,285.04 C398.89,289.90 398.57,306.03 399.17,311.95 C399.84,318.59 402.10,330.32 403.67,335.04 C406.15,342.34 412.85,353.67 415.47,358.10" fill="none" stroke="rgb(0, 255, 0)" stroke-width="2.34" stroke-opacity="1.00" stroke-linejoin="round"/>
<path d="M426.66,253.18 C426.66,253.18 426.66,252.77 426.66,252.77 C426.49,253.98 426.17,256.29 426.09,257.40 C425.87,260.30 425.36,273.92 424.30,284.47 C423.64,291.67 422.41,306.21 422.56,312.69 C423.18,328.28 424.46,359.82 425.12,375.78 C425.34,382.15 425.64,390.87 425.71,393.21" fill="none" stroke="rgb(0, 255, 0)" stroke-width="2.34" stroke-opacity="1.00" stroke-linejoin="round"/>
<path d="M447.58,298.69 C447.64,299.33 438.49,310.69 435.97,314.63 C434.96,316.22 431.29,322.68 430.45,325.27 C430.37,325.51 424.32,348.35 423.68,350.88 C421.40,360.06 416.95,392.13 415.20,412.02 C414.94,415.31 414.53,420.60 414.22,423.92 C413.78,428.08 412.92,435.98 412.51,439.70" fill="none" stroke="rgb(0, 255, 0)" stroke-width="2.34" stroke-opacity="1.00" stroke-linejoin="round"/>
<path d="M424.61,345.84 C423.75,345.89 422.95,346.08 422.53,346.46 C421.49,347.42 416.08,359.02 414.45,364.00 C412.31,370.62 409.62,383.93 409.12,390.01 C408.49,397.93 409.17,410.74 411.00,417.49 C412.19,421.77 413.89,425.86 415.94,429.16 C417.70,431.93 420.07,435.61 420.68,436.52" fill="none" stroke="rgb(0, 255, 0)" stroke-width="2.34" stroke-opacity="1.00" stroke-linejoin="round"/>
<path d="M466.85,381.11 C466.85,381.11 466.85,380.90 466.85,380.90 C466.85,380.90 466.50,380.83 466.50,380.83 C465.69,381.85 463.57,389.76 463.44,390.33 C462.90,392.90 461.76,401.72 461.26,405.67" fill="none" stroke="rgb(0, 255, 0)" stroke-width="2.34" stroke-opacity="1.00" stroke-linejoin="round"/>
<path d="M386.07,329.85 C386.07,329.85 385.66,329.85 385.66,329.85 C385.58,329.78 384.91,328.71 384.63,328.49 C383.76,327.85 381.33,327.92 380.06,328.72 C378.15,329.96 371.72,342.34 368.43,346.96 C363.22,354.28 359.78,361.78 356.91,370.67 C354.50,377.79 350.08,390.80 348.63,397.47 C347.38,403.38 346.10,417.55 346.24,422.20 C346.40,426.71 348.67,436.60 350.93,442.15 C353.93,449.42 359.11,457.12 359.80,458.14" fill="none" stroke="rgb(0, 255, 0)" stroke-width="2.34" stroke-opacity="1.00" stroke-linejoin="round"/>
<path d="M346.30,337.23 C346.30,337.23 346.30,336.21 346.30,336.21 C346.30,336.21 346.15,336.05 346.15,336.05 C344.23,337.78 342.44,341.52 341.03,345.88 C339.76,349.89 336.17,364.94 335.14,372.47 C333.17,387.09 334.35,407.07 335.06,409.57 C335.19,410.02 335.55,411.04 336.13,412.61" fill="none" stroke="rgb(0, 255, 0)" stroke-width="2.34" stroke-opacity="1.00" stroke-linejoin="round"/>
<path d="M367.21,217.51 C367.21,217.51 363.73,218.74 363.73,218.74 C363.65,218.56 365.05,215.90 372.26,214.98 C375.17,214.63 383.95,214.73 385.16,216.01 C386.47,217.48 386.95,223.46 386.93,224.88 C386.82,231.37 385.56,241.57 383.93,251.59 C382.53,259.25 379.61,273.15 378.09,280.07 C376.12,288.46 373.23,299.05 370.91,304.83 C369.51,308.27 364.91,317.64 364.61,318.16 C363.30,320.37 360.74,323.40 359.83,324.52" fill="none" stroke="rgb(0, 255, 0)" stroke-width="2.34" stroke-opacity="1.00" stroke-linejoin="round"/>
<path d="M370.49,165.84 C370.49,165.87 370.52,167.19 370.51,167.70 C370.39,175.77 364.98,212.02 362.70,222.28 C361.12,228.82 357.04,243.80 355.71,247.02 C353.17,253.00 349.37,257.60 347.65,259.60" fill="none" stroke="rgb(0, 255, 0)" stroke-width="2.34" stroke-opacity="1.00" stroke-linejoin="round"/>
<path d="M364.75,86.30 C363.66,87.69 363.08,89.51 362.64,93.46 C361.79,101.06 360.09,116.36 359.25,124.07 C358.44,131.87 358.19,141.13 359.40,147.23 C361.32,156.65 364.64,167.45 366.39,170.46 C367.75,172.74 369.55,174.61 371.37,176.33" fill="none" stroke="rgb(0, 255, 0)" stroke-width="2.34" stroke-opacity="1.00" stroke-linejoin="round"/>
<path d="M364.34,103.93 C364.34,103.93 362.70,104.01 362.70,104.01 C362.65,104.44 369.06,118.85 372.66,128.09 C375.28,135.17 380.20,148.45 382.70,153.14 C385.32,157.99 390.86,164.29 392.91,166.19 C393.21,166.47 395.26,168.26 395.95,168.87" fill="none" stroke="rgb(0, 255, 0)" stroke-width="2.34" stroke-opacity="1.00" stroke-linejoin="round"/>
<path d="M323.34,61.70 C323.34,61.70 321.89,61.29 321.89,61.29 C320.38,62.16 315.52,75.04 313.66,82.99 C312.95,86.04 309.56,104.29 308.15,112.40 C306.61,121.92 305.85,132.02 305.77,139.70 C305.74,143.31 307.11,157.72 307.58,162.53" fill="none" stroke="rgb(0, 255, 0)" stroke-width="2.34" stroke-opacity="1.00" stroke-linejoin="round"/>
<path d="M307.76,77.69 C307.76,77.69 306.73,77.28 306.73,77.28 C306.73,77.28 305.69,77.64 305.69,77.64 C304.66,80.57 302.76,95.07 301.64,103.62 C300.49,112.50 294.39,139.31 292.56,153.09 C291.22,164.20 285.74,218.81 285.21,223.25" fill="none" stroke="rgb(0, 255, 0)" stroke-width="2.34" stroke-opacity="1.00" stroke-linejoin="round"/>
<path d="M339.33,159.28 C339.33,159.28 339.33,158.67 339.33,158.67 C339.32,158.69 337.88,163.47 336.71,166.78 C330.12,185.47 324.59,203.21 316.86,222.92 C314.39,229.10 310.59,241.65 308.42,248.90 C305.54,258.83 303.19,269.75 302.59,273.32 C301.93,277.26 300.43,295.87 300.14,302.59 C300.07,305.54 299.99,311.77 299.97,315.07" fill="none" stroke="rgb(0, 255, 0)" stroke-width="2.34" stroke-opacity="1.00" stroke-linejoin="round"/>
<path d="M271.68,217.51 C271.68,217.51 268.47,218.33 268.47,218.33 C269.89,217.51 273.96,215.17 274.63,214.81 C276.84,213.60 278.46,213.35 280.30,213.69 C281.58,216.03 282.19,217.57 282.27,219.26 C282.42,222.77 281.22,265.50 281.35,277.30 C281.56,284.54 282.01,296.48 282.81,304.29 C283.62,311.02 286.63,322.97 288.08,328.62" fill="none" stroke="rgb(0, 255, 0)" stroke-width="2.34" stroke-opacity="1.00" stroke-linejoin="round"/>
<path d="M244.62,211.77 C244.67,211.80 244.19,213.16 244.24,216.09 C244.55,228.44 243.24,252.94 241.31,269.57 C238.87,289.20 238.20,303.16 238.08,305.70" fill="none" stroke="rgb(0, 255, 0)" stroke-width="2.34" stroke-opacity="1.00" stroke-linejoin="round"/>
<path d="M283.98,81.79 C283.98,81.79 285.11,76.46 285.11,76.46 C283.28,77.86 273.56,88.73 271.27,92.17 C267.65,97.66 260.71,110.58 258.27,116.63 C256.49,121.13 243.78,160.16 242.04,167.50 C240.41,174.73 238.38,185.15 237.53,193.97 C236.33,208.98 236.04,227.45 236.02,228.68" fill="none" stroke="rgb(0, 255, 0)" stroke-width="2.34" stroke-opacity="1.00" stroke-linejoin="round"/>
<path d="M213.86,87.94 C213.86,87.94 213.86,86.92 213.86,86.92 C213.86,86.92 213.37,86.76 213.37,86.76 C212.71,88.18 212.72,103.04 212.89,111.98 C213.91,134.36 216.45,160.63 217.79,163.04 C218.03,163.45 218.67,164.37 219.73,165.80" fill="none" stroke="rgb(0, 255, 0)" stroke-width="2.34" stroke-opacity="1.00" stroke-linejoin="round"/>
<path d="M204.43,120.33 C203.40,121.24 202.77,123.11 202.59,126.49 C202.43,130.06 203.05,145.07 203.17,151.17 C203.18,163.03 202.51,176.94 202.46,177.91" fill="none" stroke="rgb(0, 255, 0)" stroke-width="2.34" stroke-opacity="1.00" stroke-linejoin="round"/>
<path d="M181.06,124.02 C181.06,124.02 178.29,122.11 178.29,122.11 C179.23,121.87 182.77,133.64 185.87,145.69 C187.80,153.61 190.68,165.84 191.62,173.05 C191.96,175.73 192.37,180.65 192.47,181.88" fill="none" stroke="rgb(0, 255, 0)" stroke-width="2.34" stroke-opacity="1.00" stroke-linejoin="round"/>
<path d="M152.77,115.00 C152.77,115.00 152.77,113.57 152.77,113.57 C152.97,116.84 153.46,124.16 153.90,128.36 C155.14,139.22 156.25,146.82 157.68,153.38 C160.34,165.21 167.59,179.94 168.14,181.05" fill="none" stroke="rgb(0, 255, 0)" stroke-width="2.34" stroke-opacity="1.00" stroke-linejoin="round"/>
<path d="M131.45,135.09 C131.45,135.09 128.26,134.27 128.26,134.27 C127.14,135.96 125.60,145.82 125.02,156.00 C124.38,170.21 131.02,216.93 132.10,224.50 C132.76,229.03 133.80,236.11 134.18,238.67" fill="none" stroke="rgb(0, 255, 0)" stroke-width="2.34" stroke-opacity="1.00" stroke-linejoin="round"/>
<path d="M128.17,217.92 C127.31,219.48 126.85,220.63 126.94,221.56 C126.96,221.77 131.62,239.28 132.91,247.52 C136.23,269.94 140.77,290.19 141.04,295.54 C141.07,296.06 141.08,297.25 141.07,299.10" fill="none" stroke="rgb(0, 255, 0)" stroke-width="2.34" stroke-opacity="1.00" stroke-linejoin="round"/>
<path d="M100.29,127.71 C100.32,129.94 100.73,131.60 101.88,133.65 C102.69,135.12 105.62,140.74 106.45,143.72 C108.04,149.57 109.15,160.75 109.68,170.88 C109.98,177.27 111.06,194.63 111.64,198.43 C112.40,203.38 114.81,208.12 115.25,208.97" fill="none" stroke="rgb(0, 255, 0)" stroke-width="2.34" stroke-opacity="1.00" stroke-linejoin="round"/>
<path d="M102.34,121.56 C100.39,127.31 99.14,135.00 98.20,146.36 C97.60,155.81 96.59,196.06 95.81,203.37 C95.48,206.41 94.56,212.72 93.92,215.73 C93.16,219.28 91.69,224.20 90.33,228.04" fill="none" stroke="rgb(0, 255, 0)" stroke-width="2.34" stroke-opacity="1.00" stroke-linejoin="round"/>
<path d="M77.74,104.34 C77.74,104.34 75.82,106.97 75.82,106.97 C76.10,107.34 78.18,108.10 78.93,108.52 C80.30,109.33 79.27,117.74 77.47,129.69 C74.77,147.40 69.50,182.15 68.93,191.94 C68.74,195.97 69.54,203.40 70.55,206.52 C71.59,209.68 73.54,212.64 74.44,213.77" fill="none" stroke="rgb(0, 255, 0)" stroke-width="2.34" stroke-opacity="1.00" stroke-linejoin="round"/>
<path d="M80.61,199.47 C80.61,199.47 80.40,199.06 80.40,199.06 C80.40,199.06 79.70,199.06 79.70,199.06 C79.01,199.34 79.19,204.45 79.95,208.97 C80.77,213.63 85.94,226.85 89.43,232.02 C90.12,233.03 95.21,240.01 96.97,242.41" fill="none" stroke="rgb(0, 255, 0)" stroke-width="2.34" stroke-opacity="1.00" stroke-linejoin="round"/>
<path d="M46.17,114.18 C46.37,114.90 46.58,115.62 46.78,116.33 C46.85,116.57 46.92,116.81 46.99,117.05 C46.99,116.97 44.63,116.94 40.68,124.53 C37.76,130.19 33.84,141.00 32.52,147.04 C31.23,153.03 30.39,165.33 30.53,174.94 C30.66,179.91 32.74,190.68 34.96,198.48" fill="none" stroke="rgb(0, 255, 0)" stroke-width="2.34" stroke-opacity="1.00" stroke-linejoin="round"/>
<path d="M41.66,178.97 C41.66,178.97 40.84,180.40 40.84,180.40 C40.73,180.53 44.36,184.73 46.47,188.66 C48.78,193.03 55.03,207.37 58.68,217.09 C61.45,224.78 63.87,232.79 64.21,233.91" fill="none" stroke="rgb(0, 255, 0)" stroke-width="2.34" stroke-opacity="1.00" stroke-linejoin="round"/>
<path d="M15.00,109.26 C15.00,109.26 14.43,109.26 14.43,109.26 C13.73,110.14 13.34,110.99 13.04,112.65 C11.72,120.00 10.23,133.88 9.94,141.02 C9.50,151.82 10.50,177.39 11.47,183.60 C12.08,187.23 12.89,192.00 13.08,193.13" fill="none" stroke="rgb(0, 255, 0)" stroke-width="2.34" stroke-opacity="1.00" stroke-linejoin="round"/>
<path d="M10.08,188.81 C10.08,188.81 8.90,188.81 8.90,188.81 C9.03,194.24 12.39,205.63 15.99,213.64 C22.16,226.77 32.13,248.88 34.95,253.95 C37.15,257.78 40.12,262.92 40.88,264.24" fill="none" stroke="rgb(0, 255, 0)" stroke-width="2.34" stroke-opacity="1.00" stroke-linejoin="round"/>
<path d="M-11.65,167.07 C-11.65,167.07 -15.30,167.13 -15.30,167.13 C-15.73,167.72 -15.75,172.28 -15.75,175.13 C-15.79,179.86 -16.15,184.57 -16.74,189.55 C-17.02,191.98 -14.98,206.69 -14.92,214.91 C-14.98,222.14 -15.42,239.62 -14.46,245.29 C-14.28,246.35 -13.35,251.07 -13.07,252.49" fill="none" stroke="rgb(0, 255, 0)" stroke-width="2.34" stroke-opacity="1.00" stroke-linejoin="round"/>
<path d="M-13.29,215.05 C-13.29,215.05 -14.43,214.64 -14.43,214.64 C-14.43,214.64 -14.84,214.86 -14.84,214.86 C-14.82,216.46 -11.51,225.42 -8.72,235.12 C-6.62,243.06 -1.14,271.03 0.38,279.09 C1.03,282.73 2.07,288.56 2.45,290.75" fill="none" stroke="rgb(0, 255, 0)" stroke-width="2.34" stroke-opacity="1.00" stroke-linejoin="round"/>
<path d="M185.07,212.06 C185.07,212.06 184.82,210.90 184.82,210.90 C184.82,210.90 184.21,210.79 184.21,210.79 C183.19,211.39 182.49,213.98 181.73,218.77 C181.09,223.30 180.96,256.95 179.85,274.19 C179.39,281.16 177.07,296.04 175.74,301.79 C174.83,305.76 173.58,311.14 173.26,312.56" fill="none" stroke="rgb(0, 255, 0)" stroke-width="2.34" stroke-opacity="1.00" stroke-linejoin="round"/>
<path d="M193.38,287.54 C192.16,287.94 190.71,288.18 190.22,288.29 C188.96,288.59 185.75,292.31 183.76,295.32 C180.08,300.96 176.06,309.59 174.77,314.78 C172.69,323.29 173.26,337.75 173.66,343.94" fill="none" stroke="rgb(0, 255, 0)" stroke-width="2.34" stroke-opacity="1.00" stroke-linejoin="round"/>
<path d="M209.67,298.18 C209.67,298.18 209.26,297.18 209.26,297.18 C208.40,297.75 207.13,299.91 205.81,302.99 C202.56,310.65 198.90,323.96 198.56,330.12 C198.41,333.12 198.34,339.78 198.31,342.77" fill="none" stroke="rgb(0, 255, 0)" stroke-width="2.34" stroke-opacity="1.00" stroke-linejoin="round"/>
<path d="M237.93,298.18 C236.57,298.12 234.88,300.37 232.89,304.18 C230.13,309.52 226.15,319.18 224.42,326.26 C222.86,333.14 219.33,348.29 218.89,351.53 C218.32,355.82 217.98,372.23 218.25,376.94 C218.49,380.31 218.95,386.46 219.17,389.24" fill="none" stroke="rgb(0, 255, 0)" stroke-width="2.34" stroke-opacity="1.00" stroke-linejoin="round"/>
<path d="M208.67,372.66 C207.83,373.02 207.33,375.10 207.73,379.14 C207.89,380.58 209.06,388.58 209.79,392.06 C210.62,396.05 211.91,400.80 213.03,403.01 C213.91,404.67 215.52,407.74 216.27,409.15" fill="none" stroke="rgb(0, 255, 0)" stroke-width="2.34" stroke-opacity="1.00" stroke-linejoin="round"/>
<path d="M251.57,339.08 C251.57,339.08 250.49,335.15 250.49,335.15 C249.25,335.14 245.38,338.07 243.15,339.32 C240.64,340.71 236.36,342.96 233.99,345.17 C230.78,348.21 220.95,360.69 217.95,365.68 C215.04,370.57 208.32,387.87 207.47,390.52 C205.85,395.69 205.41,405.09 206.21,410.91 C207.03,416.81 210.01,428.60 211.84,432.76 C213.63,436.77 215.42,440.53 216.64,443.07" fill="none" stroke="rgb(0, 255, 0)" stroke-width="2.34" stroke-opacity="1.00" stroke-linejoin="round"/>
<path d="M255.22,382.30 C255.22,382.30 254.39,382.97 254.39,382.97 C254.43,381.76 259.59,367.57 262.34,359.98 C264.28,354.55 265.73,346.20 265.13,345.59 C262.86,346.69 254.21,355.51 250.67,360.23 C247.20,364.88 242.50,373.92 239.34,381.53 C236.75,387.95 233.98,396.58 231.70,405.27 C230.57,409.84 229.49,420.20 230.34,425.86 C231.29,431.88 239.38,451.85 239.68,452.67 C239.91,453.30 240.26,454.31 240.73,455.67" fill="none" stroke="rgb(0, 255, 0)" stroke-width="2.34" stroke-opacity="1.00" stroke-linejoin="round"/>
<path d="M241.26,454.12 C242.94,450.97 239.04,432.09 237.59,426.78 C236.86,423.88 236.40,421.43 236.15,419.88" fill="none" stroke="rgb(0, 255, 0)" stroke-width="2.34" stroke-opacity="1.00" stroke-linejoin="round"/>
<path d="M239.26,360.02 C239.26,360.02 238.43,360.02 238.43,360.02 C238.43,360.02 237.93,359.36 237.93,359.36 C238.24,358.69 240.15,358.31 241.62,359.99 C243.24,361.87 246.20,367.26 247.07,369.33 C248.10,371.84 249.36,376.84 249.66,379.46 C249.91,381.77 250.87,395.91 252.34,401.20 C253.70,406.08 257.83,414.54 261.08,418.82 C264.73,423.41 269.53,425.92 270.86,426.64" fill="none" stroke="rgb(0, 255, 0)" stroke-width="2.34" stroke-opacity="1.00" stroke-linejoin="round"/>
<path d="M282.82,347.06 C282.82,347.06 283.15,345.39 283.15,345.39 C283.15,345.39 282.35,344.77 282.35,344.77 C281.26,345.55 275.42,361.14 272.65,368.45 C269.27,377.39 267.01,385.50 264.86,394.21 C263.68,399.19 259.91,418.40 259.68,423.51 C259.48,428.11 260.23,440.65 260.39,442.17 C260.59,444.02 260.97,446.35 261.21,447.43" fill="none" stroke="rgb(0, 255, 0)" stroke-width="2.34" stroke-opacity="1.00" stroke-linejoin="round"/>
<path d="M281.16,365.01 C281.16,365.01 279.41,362.41 279.41,362.41 C278.25,362.46 275.61,365.08 273.92,367.45 C269.55,373.70 263.82,384.37 259.62,393.69 C257.15,399.27 255.49,407.86 255.33,414.05 C255.28,415.94 255.31,428.64 255.39,429.83 C255.51,431.82 255.84,434.16 256.07,435.16" fill="none" stroke="rgb(0, 255, 0)" stroke-width="2.34" stroke-opacity="1.00" stroke-linejoin="round"/>
<path d="M330.70,336.08 C329.94,336.70 329.30,337.10 328.30,337.58 C327.93,337.75 323.22,338.12 320.70,339.47 C318.05,340.93 313.18,344.10 312.22,345.03 C309.88,347.34 302.71,359.53 300.73,365.16 C299.45,368.86 296.74,381.12 295.77,388.87 C294.78,396.94 294.58,408.35 295.44,414.89 C296.66,423.77 299.69,434.00 301.95,438.83 C303.40,441.88 307.09,448.01 308.68,450.13 C310.85,453.01 318.00,459.81 320.06,461.77" fill="none" stroke="rgb(0, 255, 0)" stroke-width="2.34" stroke-opacity="1.00" stroke-linejoin="round"/>
<path d="M154.96,307.91 C154.96,307.91 151.93,307.08 151.93,307.08 C149.38,310.06 140.98,343.57 138.74,355.45 C137.70,361.51 138.49,373.30 139.00,379.77 C139.48,385.11 140.02,389.64 140.59,391.95 C142.13,398.07 145.50,405.28 146.04,406.46" fill="none" stroke="rgb(0, 255, 0)" stroke-width="2.34" stroke-opacity="1.00" stroke-linejoin="round"/>
<path d="M117.34,336.89 C117.34,336.89 116.26,336.89 116.26,336.89 C116.40,336.10 117.19,335.02 119.36,332.78 C123.93,328.12 124.83,327.37 125.45,327.11 C126.50,328.15 119.93,358.39 118.35,371.29 C117.57,378.40 117.26,389.37 118.40,395.31 C119.34,400.03 124.04,414.63 126.90,419.20 C127.82,420.66 132.12,426.67 133.67,429.09 C134.50,430.39 138.20,436.61 139.76,439.31" fill="none" stroke="rgb(0, 255, 0)" stroke-width="2.34" stroke-opacity="1.00" stroke-linejoin="round"/>
<path d="M125.05,341.21 C123.84,341.17 122.87,342.89 122.06,346.28 C120.89,351.28 115.48,367.05 114.87,370.48 C113.53,377.91 112.88,387.44 113.41,394.08 C114.00,401.27 116.21,410.94 118.51,417.71 C120.31,422.89 125.72,434.72 126.39,436.12" fill="none" stroke="rgb(0, 255, 0)" stroke-width="2.34" stroke-opacity="1.00" stroke-linejoin="round"/>
<path d="M119.50,314.38 C119.50,314.38 117.67,312.34 117.67,312.34 C117.11,312.08 112.74,316.44 111.25,318.53 C108.74,322.11 105.00,331.35 103.54,336.65 C101.80,343.02 99.42,355.03 98.25,364.39 C97.54,370.97 96.15,384.47 96.37,390.56 C96.84,402.21 101.54,419.88 103.91,425.80 C105.42,429.43 108.09,435.68 109.24,438.30" fill="none" stroke="rgb(0, 255, 0)" stroke-width="2.34" stroke-opacity="1.00" stroke-linejoin="round"/>
<path d="M117.96,276.15 C117.96,276.15 116.73,272.83 116.73,272.83 C115.31,275.17 105.27,294.80 103.17,298.64 C99.29,305.68 95.03,317.16 92.48,324.09 C88.43,335.33 86.15,343.59 85.10,350.53 C84.01,358.48 83.62,367.72 83.83,374.50 C84.02,379.83 88.38,409.03 90.01,414.86 C90.61,416.98 92.00,420.01 93.93,423.87" fill="none" stroke="rgb(0, 255, 0)" stroke-width="2.34" stroke-opacity="1.00" stroke-linejoin="round"/>
<path d="M65.85,286.63 C64.79,286.86 63.07,288.01 62.09,290.45 C61.52,291.91 55.71,310.23 53.87,315.00 C53.50,315.94 46.35,335.10 44.96,340.64 C43.67,345.88 42.64,356.21 41.17,364.77 C40.24,370.76 40.02,383.08 39.95,389.69 C39.93,398.52 40.39,407.76 41.36,413.87 C41.75,416.24 43.00,421.16 43.70,423.89" fill="none" stroke="rgb(0, 255, 0)" stroke-width="2.34" stroke-opacity="1.00" stroke-linejoin="round"/>
<path d="M15.28,295.27 C15.28,295.27 15.05,293.00 15.05,293.00 C14.38,292.70 12.14,293.36 9.84,295.08 C8.49,296.11 5.74,299.51 4.48,301.96 C1.73,307.40 -3.35,325.78 -3.60,326.82 C-4.22,329.37 -8.83,352.77 -8.97,357.05 C-9.05,360.15 -9.19,373.93 -9.42,379.88 C-9.70,385.97 -8.57,398.20 -7.33,405.01 C-6.63,408.78 -4.85,414.83 -3.43,418.60 C-1.60,423.37 3.90,433.23 4.52,434.33" fill="none" stroke="rgb(0, 255, 0)" stroke-width="2.34" stroke-opacity="1.00" stroke-linejoin="round"/>
<path d="M-2.91,408.12 C-3.78,405.86 -5.23,389.97 -5.45,385.70 C-5.60,383.42 -8.90,367.07 -10.59,361.12 C-11.68,357.33 -18.50,343.72 -19.31,341.23 C-21.11,335.58 -22.64,320.77 -22.47,315.04 C-22.36,311.73 -21.69,304.67 -20.64,300.35 C-19.57,296.06 -14.46,285.39 -13.29,282.97" fill="none" stroke="rgb(0, 255, 0)" stroke-width="2.34" stroke-opacity="1.00" stroke-linejoin="round"/>
</g>
</svg>
