<?xml version="1.0" encoding="UTF-8" standalone="no"?>
<!DOCTYPE svg PUBLIC "-//W3C//DTD SVG 1.1//EN" "http://www.w3.org/Graphics/SVG/1.1/DTD/svg11.dtd">
<svg width="64.20" height="90.84" viewBox="0.00 0.00 535.00 757.00" xmlns="http://www.w3.org/2000/svg" xmlns:xlink="http://www.w3.org/1999/xlink">
<g stroke-linecap="round" transform="translate(44.00, 155.00)" id="1-사람">
<path d="M191.34,129.59 C190.86,129.66 190.40,129.78 189.75,130.07 C187.59,131.08 182.07,135.62 180.58,137.62 C179.24,139.44 176.21,146.89 175.50,149.46 C174.77,152.20 173.84,157.68 173.73,160.81 C173.65,163.80 174.37,168.62 175.49,171.34 C176.40,173.46 179.78,178.77 181.00,180.31 C181.98,181.53 185.95,185.62 188.40,187.08 C191.16,188.69 198.55,190.41 202.19,190.58 C206.08,190.71 211.59,189.42 214.43,187.50 C216.25,186.23 220.10,182.77 221.95,180.51 C225.81,175.72 233.61,166.01 235.62,161.12 C236.58,158.72 237.64,155.00 237.87,153.00 C238.05,151.23 237.90,145.08 237.41,142.49 C236.80,139.46 232.12,132.34 230.98,131.13 C229.53,129.64 226.50,128.05 224.35,127.63 C222.28,127.24 211.49,125.19 205.64,125.64 C200.36,126.16 193.86,128.29 192.31,129.17 C191.92,129.39 191.07,129.92 189.75,130.77" fill="none" stroke="rgb(204, 20, 131)" stroke-width="5.79" stroke-opacity="1.00" stroke-linejoin="round"/>
<path d="M190.40,132.65 C190.40,132.65 190.25,132.67 190.25,132.67 C190.03,132.96 189.62,133.16 189.47,133.27 C189.22,133.47 183.55,138.34 182.85,139.12 C181.18,141.05 179.60,144.96 179.23,147.22 C179.03,148.59 180.38,150.03 181.40,150.23 C182.85,150.46 185.93,148.95 188.07,146.69 C188.92,145.79 189.97,144.25 191.13,142.40 C191.13,142.40 189.33,159.70 189.33,159.70 C189.56,159.54 198.82,144.57 201.29,142.19 C202.01,141.50 202.72,141.04 202.72,141.12 C202.80,141.28 202.62,147.76 203.16,148.80 C203.81,149.89 206.60,149.69 208.56,148.14 C209.73,147.19 213.29,143.19 214.27,142.08 C214.31,145.59 215.38,148.78 216.53,149.22 C217.82,149.65 220.14,148.40 221.54,146.42 C221.90,145.90 224.13,142.51 224.93,141.29 C226.01,143.50 229.59,148.13 231.01,148.84 C232.46,149.49 235.01,148.63 235.55,148.22 C235.75,148.06 236.10,147.70 236.59,147.14" fill="none" stroke="rgb(204, 20, 131)" stroke-width="5.79" stroke-opacity="1.00" stroke-linejoin="round"/>
<path d="M174.95,155.20 C174.99,155.90 173.75,161.22 173.40,164.46 C173.16,166.63 171.36,181.08 171.90,184.31 C172.44,187.34 174.02,192.09 175.86,194.96 C175.86,194.96 176.60,194.77 176.60,194.77" fill="none" stroke="rgb(204, 20, 131)" stroke-width="5.79" stroke-opacity="1.00" stroke-linejoin="round"/>
<path d="M238.28,148.58 C238.23,148.38 238.23,148.10 238.30,147.85 C238.32,147.80 238.40,147.58 238.54,147.19 C238.63,146.95 238.71,146.71 238.80,146.46 C238.80,146.46 241.30,159.73 241.47,165.97 C241.76,175.70 241.43,184.46 239.70,187.21 C239.70,187.21 239.45,187.27 239.45,187.27" fill="none" stroke="rgb(204, 20, 131)" stroke-width="5.79" stroke-opacity="1.00" stroke-linejoin="round"/>
<path d="M200.09,191.70 C200.30,193.23 201.04,196.11 201.24,197.21 C201.53,198.82 201.55,200.93 201.40,202.00 C199.10,202.97 195.16,202.80 192.04,204.08 C191.13,204.45 190.22,204.83 189.31,205.20 C189.31,205.20 189.63,205.30 189.63,205.30" fill="none" stroke="rgb(204, 20, 131)" stroke-width="5.79" stroke-opacity="1.00" stroke-linejoin="round"/>
<path d="M217.85,186.75 C217.85,186.75 217.80,186.47 217.80,186.47 C217.93,187.09 218.02,193.37 218.40,195.63 C218.55,196.45 218.89,198.27 219.11,198.65 C219.98,199.01 232.62,197.68 232.62,197.68 C232.72,197.70 232.91,197.81 233.18,197.99" fill="none" stroke="rgb(204, 20, 131)" stroke-width="5.79" stroke-opacity="1.00" stroke-linejoin="round"/>
<path d="M191.44,204.44 C191.84,205.29 192.35,205.93 193.34,206.69 C194.27,207.41 199.88,212.76 200.44,213.29 C203.13,215.83 206.10,217.36 207.96,217.98 C211.54,219.13 218.11,218.97 220.06,218.33 C222.06,217.64 225.12,215.54 226.58,214.00 C228.20,212.23 229.94,209.35 231.68,205.90 C233.35,202.48 233.86,198.56 233.69,196.93 C233.66,196.60 233.56,196.33 233.41,196.13" fill="none" stroke="rgb(204, 20, 131)" stroke-width="5.79" stroke-opacity="1.00" stroke-linejoin="round"/>
<path d="M191.30,205.33 C191.05,205.37 190.33,205.51 190.02,205.78 C188.20,207.37 185.88,211.01 185.29,214.07 C184.77,216.92 185.66,221.48 187.10,222.60 C188.59,223.67 193.87,223.44 195.86,222.20 C197.27,221.30 200.00,218.20 200.68,217.43 C200.44,218.01 201.10,223.76 202.73,226.45 C203.47,227.61 205.71,229.13 207.04,229.35 C208.76,229.59 211.20,229.44 212.73,228.87 C215.58,227.78 219.24,224.34 220.32,222.21 C220.72,221.41 221.03,220.26 221.07,220.25 C221.61,220.75 224.39,221.82 226.49,221.87 C228.79,221.90 232.88,220.27 233.98,218.61 C235.08,216.85 235.51,213.27 235.43,212.10 C237.48,213.16 241.17,213.52 242.83,212.68 C244.67,211.68 246.35,207.57 246.34,204.69 C246.31,203.31 245.74,201.51 245.07,200.76 C244.02,199.68 240.05,198.46 238.82,198.10 C237.72,197.80 236.62,197.50 235.52,197.20" fill="none" stroke="rgb(204, 20, 131)" stroke-width="5.79" stroke-opacity="1.00" stroke-linejoin="round"/>
<path d="M190.97,205.09 C190.14,204.93 187.52,204.22 184.56,204.73 C182.65,205.10 164.47,215.76 162.04,217.79 C159.13,220.26 149.76,231.49 146.33,237.75 C142.30,245.17 139.31,252.78 135.80,263.69 C134.18,268.83 131.16,283.15 130.97,286.97 C130.85,289.85 131.06,294.04 131.19,295.12 C131.19,295.12 131.48,294.63 131.48,294.63" fill="none" stroke="rgb(204, 20, 131)" stroke-width="5.79" stroke-opacity="1.00" stroke-linejoin="round"/>
<path d="M192.52,228.64 C192.30,228.70 192.03,228.69 191.79,228.88 C189.99,230.31 186.64,236.26 185.46,238.07 C181.93,243.19 178.58,249.70 176.70,255.98 C174.66,262.84 172.52,273.21 172.67,276.95 C172.79,279.34 172.98,282.93 173.04,284.12 C173.04,284.12 173.91,282.46 173.91,282.46" fill="none" stroke="rgb(204, 20, 131)" stroke-width="5.79" stroke-opacity="1.00" stroke-linejoin="round"/>
<path d="M132.81,294.44 C132.81,294.44 132.52,294.49 132.52,294.49 C136.05,293.95 141.42,292.89 145.23,292.12 C151.87,291.06 171.47,286.26 174.88,284.65 C174.88,284.65 174.80,284.89 174.80,284.89" fill="none" stroke="rgb(204, 20, 131)" stroke-width="5.79" stroke-opacity="1.00" stroke-linejoin="round"/>
<path d="M151.55,291.95 C151.29,292.03 150.48,292.47 150.10,292.88 C148.83,294.30 147.37,299.35 147.15,301.99 C147.10,302.93 147.71,304.20 148.51,304.88 C150.40,306.36 155.57,306.44 158.93,305.80 C161.70,305.23 165.23,303.67 166.61,301.99 C167.99,300.23 169.37,295.60 169.29,293.65 C169.13,291.27 167.30,288.69 166.38,288.04 C166.02,287.80 165.13,287.25 163.71,286.41" fill="none" stroke="rgb(204, 20, 131)" stroke-width="5.79" stroke-opacity="1.00" stroke-linejoin="round"/>
<path d="M190.49,230.42 C190.49,230.42 190.21,230.51 190.21,230.51 C190.50,234.62 189.45,245.96 189.43,256.41 C189.43,266.55 192.13,296.06 193.31,300.86 C193.31,300.86 193.57,300.76 193.57,300.76" fill="none" stroke="rgb(204, 20, 131)" stroke-width="5.79" stroke-opacity="1.00" stroke-linejoin="round"/>
<path d="M246.37,208.48 C246.58,211.38 247.02,217.45 247.25,220.62 C247.88,228.75 249.81,238.84 251.05,245.09 C252.38,250.96 255.55,265.64 257.06,269.78 C258.01,272.34 260.74,277.51 260.89,277.90 C260.97,278.11 261.05,278.43 261.11,278.84" fill="none" stroke="rgb(204, 20, 131)" stroke-width="5.79" stroke-opacity="1.00" stroke-linejoin="round"/>
<path d="M198.79,302.18 C198.79,302.18 198.50,302.23 198.50,302.23 C199.21,302.36 200.85,302.19 203.28,301.69 C244.97,291.98 257.68,288.43 257.62,288.40 C257.62,288.40 257.28,286.88 257.28,286.88" fill="none" stroke="rgb(204, 20, 131)" stroke-width="5.79" stroke-opacity="1.00" stroke-linejoin="round"/>
<path d="M219.12,226.30 C218.65,226.43 218.27,226.62 218.05,227.13 C217.17,229.19 217.18,232.77 217.18,233.70 C217.18,233.70 218.05,234.88 218.05,234.88 C219.69,234.85 221.51,234.45 222.41,233.71 C223.86,232.51 223.50,229.49 222.64,228.69 C222.28,228.40 220.76,227.80 219.93,227.72 C219.55,227.68 218.80,227.68 217.68,227.73" fill="none" stroke="rgb(204, 20, 131)" stroke-width="5.79" stroke-opacity="1.00" stroke-linejoin="round"/>
<path d="M221.61,245.04 C221.24,244.92 220.96,244.84 220.78,244.82 C219.43,244.66 217.80,246.57 217.42,248.04 C217.12,249.32 217.62,251.98 218.55,252.68 C219.67,253.47 223.07,253.35 224.59,252.44 C225.92,251.60 227.59,248.97 227.59,247.95 C227.55,247.00 225.30,245.11 223.04,244.92 C222.52,244.88 221.49,244.92 219.95,245.04" fill="none" stroke="rgb(204, 20, 131)" stroke-width="5.79" stroke-opacity="1.00" stroke-linejoin="round"/>
<path d="M223.60,262.42 C222.91,262.51 222.46,262.65 222.27,262.94 C221.78,263.76 221.92,267.33 222.58,269.04 C222.99,270.08 224.08,271.55 224.74,271.96 C225.97,272.64 228.49,270.94 229.41,268.95 C230.17,267.22 230.18,264.24 229.34,263.27 C228.30,262.19 225.44,261.44 223.85,261.28 C223.32,261.23 222.33,261.19 220.88,261.14" fill="none" stroke="rgb(204, 20, 131)" stroke-width="5.79" stroke-opacity="1.00" stroke-linejoin="round"/>
<path d="M220.00,233.41 C219.60,236.25 219.52,238.65 219.76,240.81 C219.80,241.15 219.85,241.48 219.92,241.79 C219.92,241.79 220.09,241.61 220.09,241.61" fill="none" stroke="rgb(204, 20, 131)" stroke-width="5.79" stroke-opacity="1.00" stroke-linejoin="round"/>
<path d="M223.56,256.91 C223.56,256.91 223.52,256.63 223.52,256.63 C223.51,256.61 223.52,256.66 223.52,256.67 C224.28,261.14 224.41,263.42 224.54,264.21 C224.60,264.57 224.77,265.15 225.05,265.95" fill="none" stroke="rgb(204, 20, 131)" stroke-width="5.79" stroke-opacity="1.00" stroke-linejoin="round"/>
<path d="M227.70,278.57 C227.70,278.57 227.61,278.01 227.61,278.01 C227.61,277.99 227.62,278.04 227.62,278.06 C227.71,280.46 228.96,287.96 229.56,291.60 C229.56,291.60 230.12,291.11 230.12,291.11" fill="none" stroke="rgb(204, 20, 131)" stroke-width="5.79" stroke-opacity="1.00" stroke-linejoin="round"/>
<path d="M198.63,306.56 C197.97,308.35 197.61,309.64 197.43,311.15 C195.32,340.61 193.00,365.86 192.99,369.12 C193.59,368.10 196.63,366.18 200.41,364.63 C205.17,362.79 209.70,361.30 213.49,360.87 C219.31,360.25 235.70,360.07 238.40,359.75 C243.80,359.08 260.91,355.93 264.69,355.42 C279.59,353.42 288.46,354.02 292.33,353.57 C292.33,353.57 291.76,353.42 291.76,353.42" fill="none" stroke="rgb(204, 20, 131)" stroke-width="5.79" stroke-opacity="1.00" stroke-linejoin="round"/>
<path d="M256.43,290.98 C257.36,291.49 261.40,298.42 264.48,305.98 C267.91,314.48 271.57,322.32 274.92,328.12 C277.48,332.58 283.19,346.67 285.83,352.85 C285.83,352.85 284.92,350.23 284.92,350.23" fill="none" stroke="rgb(204, 20, 131)" stroke-width="5.79" stroke-opacity="1.00" stroke-linejoin="round"/>
<path d="M236.82,195.43 C236.82,195.43 236.93,195.81 236.93,195.81 C237.57,196.20 240.05,196.18 241.78,195.53 C245.34,194.17 258.73,183.44 260.13,182.16 C263.80,178.79 272.63,172.12 277.58,166.75 C277.71,166.62 277.92,166.45 278.23,166.23 C279.96,171.36 284.16,174.33 284.21,174.39 C282.87,175.65 280.63,179.77 279.98,182.36 C279.35,184.82 278.59,186.11 276.93,187.44 C275.67,188.41 248.83,207.62 243.81,211.35 C243.81,211.35 243.89,211.42 243.89,211.42" fill="none" stroke="rgb(204, 20, 131)" stroke-width="5.79" stroke-opacity="1.00" stroke-linejoin="round"/>
<path d="M276.74,166.93 C276.74,166.93 276.96,166.89 276.96,166.89 C277.19,166.64 278.78,160.47 278.98,159.76 C279.64,157.53 280.27,155.00 280.39,154.92 C280.39,154.92 290.20,159.25 290.20,159.25 C290.20,159.25 283.51,172.16 283.51,172.16 C283.51,172.16 282.95,172.06 282.95,172.06" fill="none" stroke="rgb(204, 20, 131)" stroke-width="5.79" stroke-opacity="1.00" stroke-linejoin="round"/>
<path d="M281.66,156.51 C280.96,156.65 279.07,156.09 278.29,154.15 C277.85,153.01 277.35,148.56 277.76,146.36 C278.07,144.82 281.77,141.60 283.93,140.99 C285.99,140.45 289.82,141.00 291.72,142.20 C293.66,143.47 296.38,146.95 297.02,148.93 C297.62,150.96 297.01,154.93 295.82,156.78 C294.56,158.65 290.82,160.84 289.74,160.72 C289.42,160.68 288.53,160.50 287.07,160.20" fill="none" stroke="rgb(204, 20, 131)" stroke-width="5.79" stroke-opacity="1.00" stroke-linejoin="round"/>
<path d="M216.24,359.85 C215.84,359.80 214.07,364.22 212.94,368.79 C211.75,373.80 210.55,393.38 209.87,416.54 C209.29,435.17 207.55,449.16 207.38,453.55 C204.83,452.07 202.22,451.34 200.17,451.44 C198.08,451.56 194.34,452.79 193.44,454.05 C192.56,455.36 192.76,458.14 193.35,459.42 C193.92,460.53 197.78,464.08 200.68,465.38 C204.34,466.97 216.74,468.22 222.74,467.80 C226.02,467.54 229.17,466.58 232.07,464.59 C234.00,463.24 237.92,459.44 238.45,458.01 C239.04,456.35 239.17,450.78 238.82,448.91 C238.70,448.26 236.17,440.79 236.08,440.50 C234.74,435.93 234.45,419.30 234.60,416.42 C235.13,409.62 235.78,400.49 235.28,392.80 C235.01,388.65 236.59,376.80 236.57,369.05 C236.55,365.83 237.27,360.30 237.22,359.57 C237.22,359.57 237.01,359.47 237.01,359.47" fill="none" stroke="rgb(204, 20, 131)" stroke-width="5.79" stroke-opacity="1.00" stroke-linejoin="round"/>
<path d="M211.53,405.21 C211.53,405.21 210.80,405.02 210.80,405.02 C216.28,405.04 219.16,404.96 223.34,404.33 C225.25,404.03 232.68,403.53 235.45,402.85 C235.77,402.77 236.02,402.67 236.19,402.58" fill="none" stroke="rgb(204, 20, 131)" stroke-width="5.79" stroke-opacity="1.00" stroke-linejoin="round"/>
<path d="M255.20,357.78 C255.20,357.78 255.20,357.59 255.20,357.59 C255.18,361.11 252.29,398.74 252.26,400.34 C252.00,411.50 251.56,453.42 252.39,458.91 C252.39,458.91 252.67,458.15 252.67,458.15" fill="none" stroke="rgb(204, 20, 131)" stroke-width="5.79" stroke-opacity="1.00" stroke-linejoin="round"/>
<path d="M253.88,452.83 C253.88,452.83 253.32,452.83 253.32,452.83 C256.90,452.83 262.95,452.86 266.41,453.25 C268.52,453.43 275.03,452.96 277.17,452.27 C278.82,451.70 284.73,448.96 285.62,448.24 C287.81,446.39 289.68,440.87 289.22,439.57 C288.68,439.01 286.70,438.54 284.80,438.81 C282.73,439.12 276.67,441.49 274.61,441.51 C272.81,441.53 271.90,440.73 271.87,439.65 C271.73,434.21 274.82,400.01 274.91,395.38 C275.09,381.41 272.65,355.47 272.78,354.16 C272.84,353.58 272.91,353.16 272.98,352.92 C273.02,352.80 273.10,352.68 273.21,352.56" fill="none" stroke="rgb(204, 20, 131)" stroke-width="5.79" stroke-opacity="1.00" stroke-linejoin="round"/>
<path d="M252.56,402.01 C252.56,402.01 252.00,402.01 252.00,402.01 C256.00,401.24 261.55,399.76 264.34,399.08 C267.07,398.44 272.40,398.10 272.98,397.90 C272.98,397.90 273.46,398.25 273.46,398.25" fill="none" stroke="rgb(204, 20, 131)" stroke-width="5.79" stroke-opacity="1.00" stroke-linejoin="round"/>
<path d="M191.32,165.64 C191.49,165.63 191.93,165.66 192.35,165.58 C195.42,164.97 201.01,163.47 202.53,162.87 C202.59,162.85 202.69,162.83 202.83,162.81" fill="none" stroke="rgb(204, 20, 131)" stroke-width="5.79" stroke-opacity="1.00" stroke-linejoin="round"/>
<path d="M207.51,168.73 C207.68,170.01 208.05,172.17 208.16,172.98 C208.28,173.91 208.50,176.22 208.54,176.42 C208.54,176.42 208.95,174.80 208.95,174.80" fill="none" stroke="rgb(204, 20, 131)" stroke-width="5.79" stroke-opacity="1.00" stroke-linejoin="round"/>
<path d="M210.86,164.10 C211.31,164.11 212.10,164.06 213.04,163.84 C214.26,163.56 217.47,162.84 218.62,162.81 C218.62,162.81 218.82,162.97 218.82,162.97" fill="none" stroke="rgb(204, 20, 131)" stroke-width="5.79" stroke-opacity="1.00" stroke-linejoin="round"/>
<path d="M206.49,181.58 C206.49,181.58 206.23,182.09 206.23,182.09 C206.23,182.09 214.39,180.82 214.39,180.82 C214.39,180.82 214.45,181.00 214.45,181.00" fill="none" stroke="rgb(204, 20, 131)" stroke-width="5.79" stroke-opacity="1.00" stroke-linejoin="round"/>
</g>
</svg>
