<?xml version="1.0" encoding="UTF-8" standalone="no"?>
<!DOCTYPE svg PUBLIC "-//W3C//DTD SVG 1.1//EN" "http://www.w3.org/Graphics/SVG/1.1/DTD/svg11.dtd">
<svg width="64.20" height="90.84" viewBox="0.00 0.00 535.00 757.00" xmlns="http://www.w3.org/2000/svg" xmlns:xlink="http://www.w3.org/1999/xlink">
<g stroke-linecap="round" transform="translate(44.00, 155.00)" id="10-길">
<path d="M161.03,273.37 C161.03,273.37 160.74,273.08 160.74,273.08 C157.22,276.60 139.84,307.79 133.30,316.46 C130.39,320.26 121.39,332.87 118.25,337.02 C115.55,340.56 91.58,368.31 83.57,378.09 C79.61,383.05 74.69,389.33 73.66,390.57 C73.37,390.93 72.94,391.53 72.35,392.37" fill="none" stroke="rgb(0, 255, 215)" stroke-width="2.49" stroke-opacity="1.00" stroke-linejoin="round"/>
<path d="M174.63,308.38 C174.63,308.38 174.63,308.53 174.63,308.53 C173.98,309.18 173.28,310.48 171.90,313.90 C169.47,319.88 162.81,332.51 159.67,338.44 C157.82,341.96 145.40,363.21 135.67,378.92 C130.60,387.68 116.38,410.67 110.17,422.52 C109.98,422.87 109.56,423.59 108.92,424.69 C108.92,424.69 110.48,422.92 110.48,422.92" fill="none" stroke="rgb(0, 255, 215)" stroke-width="2.49" stroke-opacity="1.00" stroke-linejoin="round"/>
<path d="M210.51,308.96 C209.06,314.20 198.20,341.05 192.47,356.66 C188.44,367.89 182.90,380.03 182.13,381.77 C178.72,389.71 174.59,398.35 171.87,406.77 C169.78,413.46 167.44,421.44 167.01,422.94 C167.01,422.94 167.31,423.05 167.31,423.05" fill="none" stroke="rgb(0, 255, 215)" stroke-width="2.49" stroke-opacity="1.00" stroke-linejoin="round"/>
<path d="M224.40,373.20 C224.40,373.20 223.74,373.72 223.74,373.72 C223.28,375.36 224.58,390.25 224.64,397.25 C224.67,405.40 224.87,421.14 225.54,427.50 C225.54,427.50 227.59,422.10 227.59,422.10" fill="none" stroke="rgb(0, 255, 215)" stroke-width="2.49" stroke-opacity="1.00" stroke-linejoin="round"/>
<path d="M263.75,373.20 C263.74,377.74 265.96,385.92 268.82,394.91 C270.52,400.27 271.89,411.02 271.96,411.05 C271.96,411.05 272.60,410.80 272.60,410.80" fill="none" stroke="rgb(0, 255, 215)" stroke-width="2.49" stroke-opacity="1.00" stroke-linejoin="round"/>
<path d="M272.15,313.59 C272.20,314.08 272.32,314.53 272.53,314.94 C273.21,316.27 281.06,328.24 285.51,336.21 C291.97,347.88 309.98,378.97 313.06,384.78 C315.32,389.21 321.65,401.23 325.04,407.66 C329.47,416.48 331.64,420.09 338.03,429.32 C338.27,429.65 338.48,429.95 338.68,430.21" fill="none" stroke="rgb(0, 255, 215)" stroke-width="2.49" stroke-opacity="1.00" stroke-linejoin="round"/>
<path d="M285.46,302.02 C285.46,302.02 285.46,302.42 285.46,302.42 C286.26,303.52 297.46,316.88 300.06,320.10 C307.36,329.20 356.68,396.20 356.93,396.51 C356.93,396.51 356.58,395.83 356.58,395.83" fill="none" stroke="rgb(0, 255, 215)" stroke-width="2.49" stroke-opacity="1.00" stroke-linejoin="round"/>
<path d="M288.93,285.81 C288.93,285.81 288.93,285.52 288.93,285.52 C292.18,287.22 300.36,298.27 304.59,304.09 C319.42,324.30 335.18,343.19 339.48,348.07 C341.35,350.21 352.83,364.60 354.13,366.55 C358.67,373.40 363.99,379.16 367.09,383.42 C371.72,389.98 374.91,394.76 375.09,395.11 C375.17,395.28 375.25,395.51 375.33,395.82" fill="none" stroke="rgb(0, 255, 215)" stroke-width="2.49" stroke-opacity="1.00" stroke-linejoin="round"/>
<path d="M134.12,315.33 C134.19,314.96 134.77,314.25 135.46,313.81 C137.28,312.70 175.87,313.36 187.62,312.82 C194.38,312.54 208.76,312.10 209.68,312.17 C209.97,312.19 210.19,312.32 210.34,312.55" fill="none" stroke="rgb(0, 255, 215)" stroke-width="2.49" stroke-opacity="1.00" stroke-linejoin="round"/>
<path d="M126.02,341.66 C126.12,341.51 126.25,341.42 126.41,341.40 C139.70,339.71 156.93,338.96 179.86,339.05 C194.02,339.05 212.50,339.04 212.59,339.06 C212.92,339.11 213.68,339.31 214.85,339.63" fill="none" stroke="rgb(0, 255, 215)" stroke-width="2.49" stroke-opacity="1.00" stroke-linejoin="round"/>
<path d="M263.18,338.77 C263.62,338.55 263.91,338.40 264.04,338.33 C264.24,338.22 264.43,338.09 264.64,337.99 C265.60,337.53 269.09,336.86 272.59,336.61 C287.40,335.97 305.66,335.18 309.12,335.03 C309.12,335.03 309.49,335.48 309.49,335.48" fill="none" stroke="rgb(0, 255, 215)" stroke-width="2.49" stroke-opacity="1.00" stroke-linejoin="round"/>
<path d="M102.01,372.62 C103.89,372.60 116.89,371.41 126.67,370.78 C134.01,370.23 154.06,368.22 155.19,368.14 C159.06,367.91 219.03,366.58 219.30,366.59 C219.30,366.59 218.85,367.49 218.85,367.49" fill="none" stroke="rgb(0, 255, 215)" stroke-width="2.49" stroke-opacity="1.00" stroke-linejoin="round"/>
<path d="M278.22,364.52 C278.22,364.52 277.35,364.23 277.35,364.23 C278.75,364.01 280.68,363.68 280.88,363.66 C283.25,363.38 305.29,363.38 308.15,363.27 C332.57,362.12 337.27,361.74 338.17,361.68 C338.17,361.68 338.11,362.28 338.11,362.28" fill="none" stroke="rgb(0, 255, 215)" stroke-width="2.49" stroke-opacity="1.00" stroke-linejoin="round"/>
<path d="M167.40,399.24 C168.82,398.85 170.45,398.50 171.78,398.33 C173.06,398.17 190.38,397.47 195.84,396.75 C204.82,395.50 218.19,394.04 222.65,394.34 C228.41,394.80 257.35,394.25 275.85,393.16 C282.40,392.93 296.13,392.93 303.41,392.99 C313.05,393.02 324.27,391.99 325.71,391.90 C329.34,391.68 355.58,391.80 358.52,391.46 C358.52,391.46 357.00,392.63 357.00,392.63" fill="none" stroke="rgb(0, 255, 215)" stroke-width="2.49" stroke-opacity="1.00" stroke-linejoin="round"/>
</g>
</svg>
