<?xml version="1.0" encoding="UTF-8" standalone="no"?>
<!DOCTYPE svg PUBLIC "-//W3C//DTD SVG 1.1//EN" "http://www.w3.org/Graphics/SVG/1.1/DTD/svg11.dtd">
<svg width="64.20" height="90.84" viewBox="0.00 0.00 535.00 757.00" xmlns="http://www.w3.org/2000/svg" xmlns:xlink="http://www.w3.org/1999/xlink">
<g stroke-linecap="round" transform="translate(156.00, 267.00)" id="10-비">
<path d="M-15.17,-151.26 C-15.25,-151.29 -15.33,-151.29 -15.42,-151.26 C-15.51,-151.24 -15.74,-151.16 -16.10,-151.01 C-16.34,-139.20 -15.47,-118.70 -13.76,-101.53 C-13.09,-95.51 -10.07,-80.46 -8.92,-76.74 C-7.78,-73.06 -4.91,-66.36 -4.92,-66.08 C-4.93,-65.88 -5.03,-65.41 -5.22,-64.66" fill="none" stroke="rgb(57, 77, 239)" stroke-width="2.49" stroke-opacity="1.00" stroke-linejoin="round"/>
<path d="M-13.43,-74.61 C-13.32,-72.84 -10.43,-69.07 -8.26,-66.56 C-6.32,-64.32 -4.82,-63.07 -4.24,-62.67 C-4.18,-66.07 -3.96,-69.50 -3.51,-71.43 C-3.19,-72.68 -1.40,-74.97 -0.24,-76.35" fill="none" stroke="rgb(57, 77, 239)" stroke-width="2.49" stroke-opacity="1.00" stroke-linejoin="round"/>
<path d="M77.66,-196.31 C77.15,-193.38 77.30,-188.24 77.68,-185.66 C80.15,-169.37 96.87,-90.79 100.07,-84.12 C100.07,-84.12 100.66,-84.00 100.66,-84.00" fill="none" stroke="rgb(57, 77, 239)" stroke-width="2.49" stroke-opacity="1.00" stroke-linejoin="round"/>
<path d="M97.82,-182.37 C97.82,-182.37 96.94,-182.37 96.94,-182.37 C96.84,-182.40 96.80,-181.87 96.82,-179.98 C96.92,-171.53 97.71,-163.85 99.60,-152.43 C100.82,-144.91 102.99,-129.33 104.23,-123.60 C105.63,-117.42 107.98,-105.37 109.13,-99.15 C111.30,-88.36 116.36,-71.73 116.69,-70.24 C116.69,-70.24 116.52,-71.80 116.52,-71.80" fill="none" stroke="rgb(57, 77, 239)" stroke-width="2.49" stroke-opacity="1.00" stroke-linejoin="round"/>
<path d="M-20.82,73.85 C-20.82,73.85 -20.35,73.93 -20.35,73.93 C-19.16,76.58 -18.88,88.69 -18.11,97.13 C-15.88,119.64 -12.82,140.74 -10.07,153.73 C-7.79,164.48 -5.70,177.19 -4.40,182.98 C-3.63,186.40 3.87,219.93 9.81,239.27 C11.64,244.94 14.63,253.22 14.93,254.04 C14.93,254.04 15.63,253.29 15.63,253.29" fill="none" stroke="rgb(57, 77, 239)" stroke-width="2.49" stroke-opacity="1.00" stroke-linejoin="round"/>
<path d="M-0.26,123.38 C-0.23,123.69 -0.54,127.45 -0.12,131.09 C1.88,147.63 4.63,177.45 6.99,188.56 C10.05,201.25 17.23,232.17 17.71,234.80 C17.71,234.80 16.73,233.31 16.73,233.31" fill="none" stroke="rgb(57, 77, 239)" stroke-width="2.49" stroke-opacity="1.00" stroke-linejoin="round"/>
<path d="M-16.46,235.21 C-16.46,235.21 -17.62,237.00 -17.62,237.00 C-16.13,240.30 -12.80,244.79 -11.43,246.26 C-9.92,247.87 -4.85,251.91 -3.05,254.33 C-3.05,254.33 -2.80,253.77 -2.80,253.77" fill="none" stroke="rgb(57, 77, 239)" stroke-width="2.49" stroke-opacity="1.00" stroke-linejoin="round"/>
<path d="M175.63,29.38 C175.63,29.38 175.07,29.38 175.07,29.38 C176.13,34.87 179.32,70.00 180.00,82.08 C180.34,88.95 185.38,139.60 186.99,161.00 C187.70,170.05 192.51,202.68 194.47,218.23 C195.61,230.09 196.99,244.20 197.57,247.72 C197.57,247.72 197.58,247.49 197.58,247.49" fill="none" stroke="rgb(57, 77, 239)" stroke-width="2.49" stroke-opacity="1.00" stroke-linejoin="round"/>
</g>
</svg>
