<?xml version="1.0" encoding="UTF-8" standalone="no"?>
<!DOCTYPE svg PUBLIC "-//W3C//DTD SVG 1.1//EN" "http://www.w3.org/Graphics/SVG/1.1/DTD/svg11.dtd">
<svg width="64.20" height="90.84" viewBox="0.00 0.00 535.00 757.00" xmlns="http://www.w3.org/2000/svg" xmlns:xlink="http://www.w3.org/1999/xlink">
<g stroke-linecap="round" transform="translate(156.00, 267.00)" id="10-우산">
<path d="M26.21,-129.90 C26.21,-129.90 26.43,-129.69 26.43,-129.69 C26.30,-130.42 25.61,-132.89 25.10,-134.69 C23.90,-139.12 23.09,-148.85 23.52,-149.46 C24.41,-149.64 27.20,-148.76 27.87,-147.36 C29.17,-144.56 29.33,-132.92 29.34,-131.90 C29.34,-131.45 29.36,-130.79 29.41,-129.90" fill="none" stroke="rgb(255, 0, 41)" stroke-width="2.49" stroke-opacity="1.00" stroke-linejoin="round"/>
<path d="M28.77,-129.90 C28.77,-129.90 28.77,-129.80 28.77,-129.80 C28.63,-129.70 26.51,-126.89 26.21,-126.46 C23.98,-123.24 11.80,-111.41 10.50,-110.16 C7.97,-107.68 -1.20,-96.46 -5.83,-91.47 C-42.06,-52.89 -50.54,-43.80 -57.78,-34.78 C-58.27,-34.15 -58.35,-32.49 -57.09,-29.89 C-55.84,-27.36 -51.78,-22.36 -49.99,-21.07 C-49.72,-20.88 -49.43,-20.77 -49.11,-20.75" fill="none" stroke="rgb(255, 0, 41)" stroke-width="2.49" stroke-opacity="1.00" stroke-linejoin="round"/>
<path d="M18.32,-111.78 C17.87,-111.34 16.88,-110.53 16.80,-110.44 C13.71,-107.21 4.54,-95.19 3.81,-94.20 C-0.86,-87.84 -12.79,-73.44 -14.04,-71.62 C-14.72,-70.62 -21.91,-59.52 -27.71,-52.39 C-34.70,-43.81 -35.84,-41.97 -42.78,-31.73 C-42.98,-31.44 -48.37,-23.15 -48.75,-22.84 C-48.84,-22.77 -48.94,-22.71 -49.04,-22.65" fill="none" stroke="rgb(255, 0, 41)" stroke-width="2.49" stroke-opacity="1.00" stroke-linejoin="round"/>
<path d="M-47.55,-21.17 C-47.55,-21.17 -48.26,-20.69 -48.26,-20.69 C-47.99,-20.52 -36.80,-15.20 -33.05,-13.51 C-26.70,-10.49 -16.77,-8.02 -12.13,-8.06 C-11.94,-8.06 -11.55,-8.09 -10.98,-8.13" fill="none" stroke="rgb(255, 0, 41)" stroke-width="2.49" stroke-opacity="1.00" stroke-linejoin="round"/>
<path d="M24.08,-118.39 C24.08,-118.39 24.29,-119.24 24.29,-119.24 C24.26,-119.09 16.83,-97.75 15.79,-95.11 C12.87,-87.87 10.21,-78.24 8.82,-74.00 C1.54,-51.72 -8.58,-19.45 -11.42,-9.47 C-11.42,-9.47 -10.82,-10.09 -10.82,-10.09" fill="none" stroke="rgb(255, 0, 41)" stroke-width="2.49" stroke-opacity="1.00" stroke-linejoin="round"/>
<path d="M-10.03,-7.10 C-10.03,-7.10 -10.24,-7.10 -10.24,-7.10 C-9.49,-7.13 -7.38,-7.00 -5.85,-6.89 C-5.29,-6.87 4.73,-6.75 6.51,-6.47 C7.62,-6.30 16.34,-5.00 19.61,-5.39 C21.96,-5.69 30.00,-8.31 30.14,-8.39 C30.20,-8.43 30.44,-8.61 30.86,-8.93" fill="none" stroke="rgb(255, 0, 41)" stroke-width="2.49" stroke-opacity="1.00" stroke-linejoin="round"/>
<path d="M27.92,-122.23 C27.73,-122.24 27.70,-121.90 27.70,-119.64 C27.69,-117.28 26.09,-102.28 25.98,-92.63 C26.05,-75.67 27.33,-41.14 27.66,-37.51 C27.75,-36.48 28.48,-10.29 28.57,-7.90 C28.57,-7.90 28.76,-7.73 28.76,-7.73" fill="none" stroke="rgb(255, 0, 41)" stroke-width="2.49" stroke-opacity="1.00" stroke-linejoin="round"/>
<path d="M29.41,-1.13 C29.66,-1.39 30.02,-1.70 30.64,-2.04 C35.97,-4.88 43.31,-9.85 49.79,-12.74 C51.49,-13.50 65.14,-19.27 67.73,-20.43 C67.73,-20.43 68.00,-21.83 68.00,-21.83" fill="none" stroke="rgb(255, 0, 41)" stroke-width="2.49" stroke-opacity="1.00" stroke-linejoin="round"/>
<path d="M31.12,-126.07 C31.12,-126.07 30.69,-126.07 30.69,-126.07 C30.77,-124.93 33.90,-110.76 35.57,-106.14 C37.98,-99.50 41.24,-89.14 44.28,-81.22 C45.86,-77.05 49.39,-64.30 50.73,-60.73 C50.89,-60.30 62.43,-32.30 63.20,-28.53 C63.26,-28.21 63.36,-27.61 63.49,-26.74" fill="none" stroke="rgb(255, 0, 41)" stroke-width="2.49" stroke-opacity="1.00" stroke-linejoin="round"/>
<path d="M30.48,-101.34 C30.37,-100.36 30.12,-98.08 29.98,-96.79 C29.64,-93.43 29.62,-75.51 29.63,-67.50 C29.79,-59.02 31.17,-47.16 32.81,-40.17 C37.80,-16.70 46.64,22.84 47.30,26.56 C47.30,26.56 47.11,25.52 47.11,25.52" fill="none" stroke="rgb(255, 0, 41)" stroke-width="2.49" stroke-opacity="1.00" stroke-linejoin="round"/>
<path d="M35.38,-46.54 C35.45,-45.12 35.67,-43.41 36.11,-41.18 C38.56,-28.57 49.75,25.60 50.25,28.30 C50.25,28.30 50.12,27.61 50.12,27.61" fill="none" stroke="rgb(255, 0, 41)" stroke-width="2.49" stroke-opacity="1.00" stroke-linejoin="round"/>
<path d="M50.58,48.54 C50.82,51.37 51.29,57.27 51.43,60.75 C51.52,66.44 51.64,72.91 51.98,75.62 C52.59,76.19 55.26,76.28 56.27,75.48 C57.08,74.76 57.03,72.59 56.57,66.33 C56.45,64.50 56.20,60.46 56.21,59.51 C56.21,58.96 56.26,57.84 56.36,56.15" fill="none" stroke="rgb(255, 0, 41)" stroke-width="2.49" stroke-opacity="1.00" stroke-linejoin="round"/>
<path d="M56.42,55.36" fill="none" stroke="rgb(255, 0, 41)" stroke-width="2.49" stroke-opacity="1.00" stroke-linejoin="round"/>
<path d="M52.77,77.02 C52.77,77.02 52.41,77.14 52.41,77.14 C52.09,77.37 51.95,78.77 52.22,80.44 C52.35,81.25 55.18,91.35 55.55,92.04 C56.54,93.83 58.47,94.23 59.15,93.87 C59.75,93.51 61.32,91.20 60.96,89.61 C60.61,88.15 57.91,81.07 57.58,79.81 C57.46,79.32 57.27,78.39 57.01,77.01" fill="none" stroke="rgb(255, 0, 41)" stroke-width="2.49" stroke-opacity="1.00" stroke-linejoin="round"/>
<path d="M40.72,-122.37 C41.01,-122.24 41.43,-121.10 42.79,-119.19 C46.95,-113.69 63.40,-89.72 72.39,-77.88 C74.97,-74.45 99.00,-40.33 99.47,-39.82 C99.47,-39.82 99.54,-40.57 99.54,-40.57" fill="none" stroke="rgb(255, 0, 41)" stroke-width="2.49" stroke-opacity="1.00" stroke-linejoin="round"/>
<path d="M68.41,-23.09 C68.41,-23.09 68.25,-22.99 68.25,-22.99 C69.50,-23.60 70.44,-24.10 71.04,-24.57 C71.86,-25.22 76.70,-29.43 78.33,-30.20 C78.85,-30.44 87.89,-34.08 89.80,-35.21 C90.48,-35.62 96.55,-39.81 97.34,-40.25 C97.81,-40.51 98.72,-40.95 100.07,-41.56" fill="none" stroke="rgb(255, 0, 41)" stroke-width="2.49" stroke-opacity="1.00" stroke-linejoin="round"/>
<path d="M34.77,-130.14 C36.79,-128.47 82.37,-108.89 89.21,-105.87 C92.38,-104.43 108.61,-97.85 110.85,-97.15 C113.63,-96.28 140.27,-84.21 148.43,-80.65 C148.56,-80.59 148.89,-80.48 149.42,-80.31" fill="none" stroke="rgb(255, 0, 41)" stroke-width="2.49" stroke-opacity="1.00" stroke-linejoin="round"/>
<path d="M128.94,-43.18 C128.94,-43.18 128.44,-42.93 128.44,-42.93 C128.19,-43.31 128.34,-44.73 128.97,-45.46 C130.81,-47.58 140.57,-62.21 146.39,-71.75 C147.70,-73.75 152.24,-79.41 152.32,-79.57 C152.32,-79.57 152.46,-79.16 152.46,-79.16" fill="none" stroke="rgb(255, 0, 41)" stroke-width="2.49" stroke-opacity="1.00" stroke-linejoin="round"/>
<path d="M46.13,-117.58 C46.80,-116.57 47.45,-115.79 48.50,-114.84 C53.22,-110.66 60.81,-103.96 68.25,-96.91 C74.92,-90.53 81.66,-85.65 86.48,-82.47 C98.91,-74.44 126.59,-56.19 126.91,-55.93 C127.11,-55.77 127.46,-55.46 127.95,-55.01" fill="none" stroke="rgb(255, 0, 41)" stroke-width="2.49" stroke-opacity="1.00" stroke-linejoin="round"/>
<path d="M99.91,-38.76 C99.91,-38.76 99.73,-37.99 99.73,-37.99 C101.19,-38.78 112.32,-42.88 116.97,-45.05 C120.48,-46.70 128.55,-52.02 130.48,-52.80 C130.48,-52.80 130.54,-53.00 130.54,-53.00" fill="none" stroke="rgb(255, 0, 41)" stroke-width="2.49" stroke-opacity="1.00" stroke-linejoin="round"/>
</g>
</svg>
