<?xml version="1.0" encoding="UTF-8" standalone="no"?>
<!DOCTYPE svg PUBLIC "-//W3C//DTD SVG 1.1//EN" "http://www.w3.org/Graphics/SVG/1.1/DTD/svg11.dtd">
<svg width="128.40" height="181.68" viewBox="0.00 0.00 535.00 757.00" xmlns="http://www.w3.org/2000/svg" xmlns:xlink="http://www.w3.org/1999/xlink">
<g stroke-linecap="round" transform="translate(44.00, 155.00)" id="100-구름_2_">
<path d="M93.73,191.64 C93.73,191.64 93.28,191.89 93.28,191.89 C92.09,191.55 91.22,191.45 89.14,191.46 C85.88,191.54 82.37,193.43 78.37,196.66 C76.44,198.21 74.43,199.49 73.27,199.72 C71.83,199.97 69.79,198.99 68.66,197.59 C68.08,196.85 65.92,193.35 65.42,192.78 C64.53,191.80 62.38,191.18 60.62,191.30 C57.84,191.56 53.38,194.07 50.66,196.33 C49.78,197.06 43.78,202.03 43.54,202.38 C43.54,202.38 44.69,202.14 44.69,202.14" fill="none" stroke="rgb(229, 0, 80)" stroke-width="4.09" stroke-opacity="1.00" stroke-linejoin="round"/>
<path d="M54.60,205.96 C54.60,205.96 54.60,205.77 54.60,205.77 C54.60,205.77 54.74,205.73 54.74,205.73 C54.74,205.73 58.38,210.02 58.38,210.02 C60.87,209.83 67.15,207.25 68.36,206.80 C71.09,205.82 86.70,205.26 93.50,203.64 C95.81,203.08 102.66,200.94 105.62,200.19 C109.65,199.19 114.74,198.87 118.99,199.98 C124.00,201.28 130.67,201.96 133.99,201.44 C135.54,201.17 138.00,200.16 138.76,199.49 C139.12,199.15 138.86,197.01 138.63,196.40 C138.09,195.06 135.90,192.84 134.08,191.72 C132.50,190.79 128.65,190.45 125.02,190.69 C122.24,190.84 116.87,190.15 114.68,188.81 C114.42,188.65 114.12,188.39 113.77,188.04" fill="none" stroke="rgb(229, 0, 80)" stroke-width="4.09" stroke-opacity="1.00" stroke-linejoin="round"/>
</g>
</svg>
