<?xml version="1.0" encoding="UTF-8" standalone="no"?>
<!DOCTYPE svg PUBLIC "-//W3C//DTD SVG 1.1//EN" "http://www.w3.org/Graphics/SVG/1.1/DTD/svg11.dtd">
<svg width="128.40" height="181.68" viewBox="0.00 0.00 535.00 757.00" xmlns="http://www.w3.org/2000/svg" xmlns:xlink="http://www.w3.org/1999/xlink">
<g stroke-linecap="round" transform="translate(44.00, 155.00)" id="100-웅덩이_2">
<path d="M400.30,490.26 C400.30,490.26 401.95,489.13 401.95,489.13 C401.48,486.83 398.82,483.76 396.85,482.02 C394.28,479.77 388.40,476.35 384.99,475.37 C381.72,474.46 375.97,474.31 373.14,474.78 C371.58,475.05 365.86,476.40 363.72,476.75 C361.75,477.06 354.41,475.88 353.92,476.11 C352.92,476.67 353.06,479.05 354.10,480.18 C355.64,481.80 363.21,486.52 363.70,486.87 C364.89,487.73 366.35,489.30 366.88,490.29 C367.39,491.34 366.09,497.33 366.52,498.55 C367.10,499.99 370.61,502.09 373.63,502.91 C378.39,504.15 387.79,505.05 389.15,504.89 C391.17,504.60 392.18,502.21 392.09,501.15 C392.09,501.15 391.61,501.05 391.61,501.05 C391.61,501.05 391.38,501.26 391.38,501.26" fill="none" stroke="rgb(234, 104, 162)" stroke-width="4.09" stroke-opacity="1.00" stroke-linejoin="round"/>
</g>
</svg>
