<?xml version="1.0" encoding="UTF-8" standalone="no"?>
<!DOCTYPE svg PUBLIC "-//W3C//DTD SVG 1.1//EN" "http://www.w3.org/Graphics/SVG/1.1/DTD/svg11.dtd">
<svg width="128.40" height="181.68" viewBox="0.00 0.00 535.00 757.00" xmlns="http://www.w3.org/2000/svg" xmlns:xlink="http://www.w3.org/1999/xlink">
<g stroke-linecap="round" transform="translate(44.00, 155.00)" id="100-구름_5">
<path d="M138.36,-3.79 C138.36,-3.79 136.70,-4.12 136.70,-4.12 C136.44,-4.52 132.47,-7.81 130.94,-8.69 C128.32,-10.15 123.74,-11.37 120.83,-10.79 C117.92,-10.14 112.47,-6.54 109.64,-3.88 C100.99,4.46 96.52,8.24 90.95,11.52 C86.14,14.37 81.33,17.58 80.21,19.14 C79.01,20.89 77.88,26.08 78.31,29.23 C78.53,30.75 79.61,33.66 80.37,34.73 C81.16,35.78 83.39,37.30 84.60,37.63 C87.31,38.26 93.40,36.67 97.49,34.73 C98.78,34.10 112.18,26.10 117.81,24.32 C123.55,22.53 130.66,22.36 142.48,22.74 C146.61,22.80 151.28,21.58 152.69,20.82 C154.55,19.75 156.58,15.45 156.62,12.17 C156.61,8.69 155.49,3.42 154.23,-1.23 C153.65,-3.31 152.09,-5.10 150.14,-5.86 C148.78,-6.36 140.26,-6.40 138.17,-6.30 C136.17,-6.20 130.82,-5.69 129.83,-5.59" fill="none" stroke="rgb(229, 0, 80)" stroke-width="4.09" stroke-opacity="1.00" stroke-linejoin="round"/>
</g>
</svg>
