<?xml version="1.0" encoding="UTF-8" standalone="no"?>
<!DOCTYPE svg PUBLIC "-//W3C//DTD SVG 1.1//EN" "http://www.w3.org/Graphics/SVG/1.1/DTD/svg11.dtd">
<svg width="128.40" height="181.68" viewBox="0.00 0.00 535.00 757.00" xmlns="http://www.w3.org/2000/svg" xmlns:xlink="http://www.w3.org/1999/xlink">
<g stroke-linecap="round" transform="translate(44.00, 155.00)" id="100-웅덩이_1">
<path d="M135.13,520.74 C135.16,520.60 133.57,520.26 131.95,520.13 C131.51,520.10 108.90,519.39 105.66,518.98 C100.93,518.38 95.32,516.55 92.75,515.95 C89.95,515.34 84.49,515.72 83.31,516.77 C82.33,517.77 82.23,520.17 83.16,522.43 C84.25,524.99 87.40,529.65 89.17,531.70 C90.53,533.25 94.36,536.66 95.49,537.05 C96.91,537.50 102.47,535.30 103.96,534.69 C109.65,532.44 114.42,531.05 117.60,531.27 C120.05,531.47 126.68,533.82 129.75,534.91 C132.82,535.95 138.32,536.78 142.11,536.88 C149.08,537.01 166.02,534.45 169.73,533.56 C173.21,532.70 178.30,530.64 180.46,528.92 C185.96,524.43 186.77,520.41 186.69,519.44 C186.06,518.41 183.50,517.84 180.23,517.83 C172.49,518.00 160.18,518.12 149.69,517.51 C143.09,517.22 139.62,518.67 139.38,518.96 C139.45,519.24 139.50,519.42 139.51,519.48 C139.53,519.54 139.55,519.58 139.56,519.59" fill="none" stroke="rgb(234, 104, 162)" stroke-width="4.09" stroke-opacity="1.00" stroke-linejoin="round"/>
</g>
</svg>
