<?xml version="1.0" encoding="UTF-8" standalone="no"?>
<!DOCTYPE svg PUBLIC "-//W3C//DTD SVG 1.1//EN" "http://www.w3.org/Graphics/SVG/1.1/DTD/svg11.dtd">
<svg width="128.40" height="181.68" viewBox="0.00 0.00 535.00 757.00" xmlns="http://www.w3.org/2000/svg" xmlns:xlink="http://www.w3.org/1999/xlink">
<g stroke-linecap="round" transform="translate(44.00, 155.00)" id="102-사람">
<path d="M187.99,268.93 C187.99,268.93 186.26,269.28 186.26,269.28 C185.34,268.48 170.08,268.58 165.06,269.65 C162.14,270.30 157.74,273.64 155.56,275.99 C153.83,277.90 140.60,293.49 137.25,298.99 C135.85,301.31 129.14,315.21 124.62,323.53 C120.62,330.66 116.73,339.08 114.37,347.54 C111.46,358.21 110.01,366.04 109.42,373.88 C109.12,378.06 109.33,383.00 109.93,385.95 C110.36,387.95 111.91,392.60 113.52,395.44 C115.26,398.46 117.20,399.84 118.11,400.20 C119.34,400.00 122.10,397.25 125.96,393.25 C132.36,386.69 137.31,383.22 146.15,378.27 C151.51,375.25 152.35,374.74 153.58,373.91 C153.58,373.91 154.33,373.98 154.33,373.98" fill="none" stroke="rgb(0, 255, 0)" stroke-width="2.39" stroke-opacity="1.00" stroke-linejoin="round"/>
<path d="M159.20,373.17 C159.20,373.17 156.25,374.76 156.25,374.76 C155.35,374.10 150.99,371.69 149.57,370.27 C146.20,366.85 141.25,358.44 139.73,354.12 C139.66,354.09 139.59,354.06 139.51,354.02 C139.43,353.98 139.23,353.87 138.91,353.70" fill="none" stroke="rgb(0, 255, 0)" stroke-width="2.39" stroke-opacity="1.00" stroke-linejoin="round"/>
<path d="M157.57,374.39 C157.57,374.39 156.76,374.39 156.76,374.39 C163.33,374.38 174.72,374.35 180.89,375.29 C185.87,375.93 203.84,373.49 208.65,372.42 C212.98,371.44 219.36,368.99 222.16,367.35 C223.84,366.36 232.66,360.40 233.63,359.53 C235.64,357.68 238.73,352.20 239.62,349.74 C240.75,346.57 241.52,340.92 241.61,338.44 C241.76,332.65 239.42,323.55 236.99,318.70 C235.78,316.30 233.28,312.41 232.13,311.19 C229.18,308.12 214.23,299.17 208.47,296.31 C203.68,293.98 194.32,291.55 186.79,290.22 C179.85,289.01 173.54,288.73 172.33,288.91 C172.33,288.91 172.99,291.23 172.99,291.23" fill="none" stroke="rgb(0, 255, 0)" stroke-width="2.39" stroke-opacity="1.00" stroke-linejoin="round"/>
<path d="M177.04,293.26 C177.04,293.26 176.23,293.26 176.23,293.26 C176.67,296.31 176.29,301.48 175.56,304.86 C174.41,309.83 167.75,321.23 162.44,329.77 C159.61,334.31 153.95,342.18 152.19,343.42 C152.19,343.42 155.78,330.06 155.78,330.06" fill="none" stroke="rgb(0, 255, 0)" stroke-width="2.39" stroke-opacity="1.00" stroke-linejoin="round"/>
<path d="M168.93,302.19 C168.93,301.21 168.93,300.23 168.93,299.25 C168.93,298.08 168.93,296.91 168.93,295.74 C168.38,299.37 164.05,311.09 161.02,317.61 C158.28,323.33 151.83,334.27 146.95,340.91 C140.40,349.70 140.02,350.31 140.18,350.33 C140.18,350.33 144.73,343.59 144.73,343.59" fill="none" stroke="rgb(0, 255, 0)" stroke-width="2.39" stroke-opacity="1.00" stroke-linejoin="round"/>
<path d="M170.96,294.89 C167.75,297.73 165.74,300.88 164.46,302.88 C162.17,306.46 152.96,322.16 149.15,328.67 C144.37,336.67 138.89,344.59 138.51,345.32 C138.51,345.32 141.79,341.09 141.79,341.09" fill="none" stroke="rgb(0, 255, 0)" stroke-width="2.39" stroke-opacity="1.00" stroke-linejoin="round"/>
<path d="M162.85,293.67 C160.11,295.76 157.92,298.94 156.03,302.45 C152.98,308.28 135.04,346.20 135.10,346.60 C137.69,342.08 140.00,337.71 141.68,334.05 C142.70,331.82 146.61,322.49 147.64,319.81 C148.29,318.10 150.87,310.81 151.59,308.44 C152.43,305.64 153.72,300.54 153.99,299.48 C152.40,301.83 151.62,303.12 151.07,304.47 C144.78,319.25 134.81,339.38 132.97,342.65 C132.88,342.58 138.63,327.57 141.29,320.74 C145.16,310.59 146.73,305.23 147.16,302.59 C147.16,302.59 146.38,301.98 146.38,301.98 C144.22,304.75 138.84,316.28 135.63,324.83 C132.78,332.68 130.95,338.29 130.09,342.24 C130.09,342.24 132.17,339.95 132.17,339.95" fill="none" stroke="rgb(0, 255, 0)" stroke-width="2.39" stroke-opacity="1.00" stroke-linejoin="round"/>
<path d="M161.22,283.93 C158.80,283.96 156.98,284.19 156.02,284.85 C154.11,286.18 143.04,300.70 138.45,306.83 C135.18,311.24 129.23,322.24 126.48,328.15 C123.77,334.09 119.21,346.36 117.73,351.75 C116.58,355.97 112.39,376.21 112.67,377.11 C112.77,377.40 113.15,377.87 113.83,378.52" fill="none" stroke="rgb(0, 255, 0)" stroke-width="2.39" stroke-opacity="1.00" stroke-linejoin="round"/>
<path d="M123.91,333.01 C121.19,334.02 119.68,334.78 119.14,335.68 C117.54,338.40 116.21,348.37 115.07,360.48 C114.10,371.36 113.47,384.91 113.47,387.82 C113.52,396.43 115.79,400.97 116.59,401.74 C117.43,400.54 117.73,399.71 117.55,398.48 C117.32,396.96 115.88,388.71 115.53,385.33 C114.79,377.95 115.07,365.91 116.10,360.44 C117.24,354.63 120.77,345.59 121.34,344.15 C119.72,350.19 120.61,377.87 121.40,386.01 C121.93,391.27 122.50,393.19 123.32,394.76 C124.36,392.28 124.77,390.85 124.70,389.44 C124.59,387.31 123.15,367.08 122.77,358.98 C122.16,340.31 124.04,333.90 124.95,331.36 C125.34,333.52 127.82,373.06 129.02,387.58 C129.13,388.94 129.38,390.14 130.02,392.50 C131.08,389.69 131.19,377.31 130.73,366.67 C129.67,347.82 129.89,335.76 130.53,333.42 C130.82,339.36 130.96,354.11 131.46,361.28 C131.88,367.12 134.17,383.86 135.50,386.32 C136.33,385.76 136.43,380.28 136.39,379.38 C136.29,377.22 133.81,350.89 133.80,347.52 C134.49,348.78 140.15,375.07 140.32,375.80 C140.85,378.09 141.43,379.54 142.16,380.64 C142.16,380.64 142.16,371.95 142.16,371.95" fill="none" stroke="rgb(0, 255, 0)" stroke-width="2.39" stroke-opacity="1.00" stroke-linejoin="round"/>
<path d="M163.66,278.26 C163.66,278.26 164.47,275.62 164.47,275.62 C164.47,275.62 163.86,275.42 163.86,275.42 C161.82,276.20 158.31,279.55 157.14,281.04 C155.37,283.32 142.43,304.06 142.33,304.35 C142.22,304.67 142.07,305.43 141.89,306.61 C145.36,304.25 152.93,296.60 160.31,288.15 C164.48,283.23 174.19,271.04 174.41,271.26 C170.46,278.16 163.54,289.55 159.19,295.02 C156.92,297.84 153.85,301.16 153.28,301.78 C153.28,301.78 185.29,274.50 185.29,274.50 C182.31,276.50 172.15,286.20 167.38,291.32 C164.01,294.96 163.34,296.03 163.15,297.03 C167.75,294.57 188.09,276.47 191.17,273.69 C191.17,273.69 172.88,295.04 172.88,295.04 C172.88,295.04 175.37,294.50 175.37,294.50" fill="none" stroke="rgb(0, 255, 0)" stroke-width="2.39" stroke-opacity="1.00" stroke-linejoin="round"/>
<path d="M193.27,269.33 C193.27,269.33 190.43,268.93 190.43,268.93 C192.49,268.84 199.36,270.64 201.83,270.95 C202.92,271.09 211.12,271.68 213.84,272.26 C219.98,273.58 232.83,277.04 238.70,280.67 C242.50,283.04 250.11,290.70 252.67,294.85 C255.58,299.60 258.66,308.53 260.59,316.46 C263.73,329.97 268.35,350.00 269.12,358.57" fill="none" stroke="rgb(0, 255, 0)" stroke-width="2.39" stroke-opacity="1.00" stroke-linejoin="round"/>
<path d="M268.71,354.51 C268.71,354.51 268.51,354.51 268.51,354.51 C268.33,354.41 268.24,356.28 268.40,358.14 C268.46,358.80 272.22,383.18 272.77,385.78 C271.18,386.09 266.24,383.62 262.34,381.20 C258.63,378.88 251.85,374.63 250.03,373.74 C248.57,373.06 236.85,370.19 234.99,368.97 C233.91,368.25 230.62,365.66 229.37,364.65" fill="none" stroke="rgb(0, 255, 0)" stroke-width="2.39" stroke-opacity="1.00" stroke-linejoin="round"/>
<path d="M229.37,366.68 C229.37,366.68 226.53,369.01 226.53,369.01 C226.53,369.01 226.53,369.06 226.53,369.06 C226.81,368.53 229.79,367.73 232.57,368.36 C233.31,368.53 240.81,371.23 242.16,371.60 C245.93,372.61 248.95,372.97 251.98,373.17 C252.05,373.24 246.62,371.70 241.69,369.13 C238.97,367.64 235.66,365.84 233.93,364.98 C233.93,364.98 257.04,381.58 257.04,381.58 C257.04,381.58 237.21,359.42 237.21,359.42 C237.18,359.15 250.93,370.80 254.60,374.81 C256.52,376.92 257.57,378.34 258.52,379.72 C257.75,381.03 241.38,353.73 240.73,352.20 C244.51,355.62 258.71,377.34 260.74,380.44 C260.74,380.44 244.95,347.83 244.95,347.83 C246.81,348.37 264.59,382.32 265.40,382.77 C264.83,380.75 246.45,342.45 244.68,336.77 C244.40,335.86 243.60,333.07 243.29,332.00 C243.29,332.00 268.21,377.73 268.21,377.73 C267.36,375.29 259.78,358.02 258.18,353.86 C256.01,348.21 252.17,335.91 251.14,329.90 C251.14,329.90 271.45,378.61 271.45,378.61 C266.55,366.88 257.14,343.74 252.69,328.87 C247.66,310.71 246.36,301.96 246.27,301.10 C249.86,309.40 267.84,371.80 268.31,373.24 C267.57,368.88 253.41,327.73 250.42,317.71 C248.37,310.14 245.18,298.28 245.09,294.48 C247.13,296.43 252.61,308.04 255.07,314.59 C256.53,318.51 262.24,336.92 263.18,340.80 C264.90,347.91 267.16,360.57 267.33,365.06 C264.27,358.20 262.03,351.68 259.18,342.24 C254.29,325.29 248.88,303.20 246.91,292.99 C246.91,292.99 254.62,330.95 254.62,330.95 C252.59,324.93 246.77,313.61 243.39,307.13 C239.96,300.55 232.65,285.86 231.19,283.36 C230.33,284.26 231.60,288.43 233.44,293.72 C237.59,305.20 244.50,319.17 245.36,320.88 C241.53,317.20 236.43,308.36 231.11,298.13 C227.30,290.58 220.91,277.53 219.19,274.03 C219.30,277.17 219.89,280.27 221.42,284.61 C225.11,294.92 236.65,318.50 238.56,320.47 C234.84,315.34 226.27,303.83 222.04,298.04 C217.33,291.78 209.27,281.53 205.71,278.49 C205.71,278.49 203.14,279.13 203.14,279.13 C203.25,281.86 205.22,286.62 206.64,288.88 C209.20,292.87 217.79,302.12 221.30,304.86 C223.14,306.29 225.14,307.43 227.51,308.47 C227.73,308.27 222.91,304.99 219.87,302.25 C216.73,299.39 202.70,283.90 200.07,281.15 C198.44,279.44 192.91,274.82 190.84,274.39 C190.36,274.30 189.65,274.40 188.70,274.71 C188.70,274.71 186.88,277.61 186.88,277.61 C187.69,280.20 188.51,281.62 190.07,282.64 C193.00,284.56 210.33,293.62 212.63,294.98 C216.45,297.25 223.37,302.64 223.89,303.71 C217.03,301.70 207.99,296.42 200.80,291.17 C194.86,286.73 187.26,281.12 184.01,279.40 C184.74,280.45 198.14,286.00 205.42,289.01 C213.74,292.59 232.01,302.29 232.55,303.17 C230.16,303.22 226.55,301.94 223.88,300.12 C220.56,297.81 212.07,288.34 205.37,280.27 C203.21,277.71 197.82,272.77 195.30,272.01 C194.21,271.70 192.67,272.22 190.77,273.22 C190.68,273.51 197.41,274.60 201.41,275.91 C206.50,277.60 218.08,284.62 224.37,289.25 C231.40,294.45 234.24,297.38 235.52,299.08 C233.84,300.85 225.61,297.15 223.79,296.25" fill="none" stroke="rgb(0, 255, 0)" stroke-width="2.39" stroke-opacity="1.00" stroke-linejoin="round"/>
<path d="M194.08,273.39 C192.88,273.35 190.50,273.48 189.52,273.69 C189.20,273.76 188.91,273.90 188.64,274.10 C188.72,274.14 206.52,276.71 210.77,278.39 C213.53,279.51 218.56,282.28 222.74,284.92 C225.78,286.87 229.63,290.19 233.92,294.38 C236.69,297.14 238.67,299.78 239.85,302.05 C239.85,302.05 238.20,304.52 238.20,304.52" fill="none" stroke="rgb(0, 255, 0)" stroke-width="2.39" stroke-opacity="1.00" stroke-linejoin="round"/>
<path d="M203.81,272.98 C203.81,272.98 201.79,272.88 201.79,272.88 C201.79,272.88 201.58,272.68 201.58,272.68 C203.93,272.28 209.11,272.52 212.07,273.24 C217.17,274.52 226.99,279.77 233.87,284.65 C236.34,286.41 250.52,297.41 251.88,299.72 C252.43,300.69 253.10,303.12 253.10,304.08 C253.07,305.26 252.41,306.84 251.34,308.62" fill="none" stroke="rgb(0, 255, 0)" stroke-width="2.39" stroke-opacity="1.00" stroke-linejoin="round"/>
<path d="M219.63,273.79 C219.63,273.79 218.82,274.72 218.82,274.72 C220.32,276.35 233.88,284.39 239.24,287.97 C242.29,290.06 244.04,291.41 246.82,293.96 C252.37,299.14 252.97,303.48 252.97,305.50 C252.97,305.50 252.08,306.42 252.08,306.42 C249.91,306.29 245.75,303.67 242.81,300.93 C233.96,292.48 226.17,285.81 221.28,282.83 C216.83,280.16 206.60,277.26 198.53,275.64 C191.44,274.28 183.97,274.22 171.84,274.87 C169.00,275.01 168.20,275.08 167.43,275.26 C167.43,275.26 167.71,277.04 167.71,277.04" fill="none" stroke="rgb(0, 255, 0)" stroke-width="2.39" stroke-opacity="1.00" stroke-linejoin="round"/>
<path d="M170.96,293.67 C170.96,293.67 169.54,293.97 169.54,293.97 C168.84,295.25 169.84,297.87 172.07,300.83 C176.02,305.98 186.15,315.92 191.36,319.19 C193.12,320.29 210.58,330.11 213.54,332.22 C214.58,332.98 217.04,335.11 217.49,335.66 C217.67,335.89 217.75,336.16 217.72,336.45" fill="none" stroke="rgb(0, 255, 0)" stroke-width="2.39" stroke-opacity="1.00" stroke-linejoin="round"/>
<path d="M179.48,305.43 C179.48,305.43 177.25,306.04 177.25,306.04 C177.44,306.39 180.95,308.45 186.05,311.65 C194.44,316.97 202.99,323.16 212.53,330.43 C219.73,335.84 232.94,342.86 235.22,344.37 C237.55,345.94 239.08,347.50 240.49,349.10 C237.67,347.76 229.39,340.24 222.76,333.58 C211.69,321.98 185.62,294.63 181.55,291.03 C179.19,288.99 176.81,287.87 174.93,287.34 C176.12,289.05 188.65,301.76 193.14,306.30 C196.72,309.82 207.44,318.94 213.32,323.88 C218.71,328.13 230.27,337.14 233.32,339.71 C229.14,337.70 225.57,335.15 223.09,332.93 C211.24,322.30 184.85,298.73 179.71,295.51 C176.79,293.73 175.22,293.54 173.42,293.62 C172.63,294.57 172.33,295.84 172.85,297.27 C174.11,300.67 182.83,308.04 190.46,313.98 C205.68,325.24 223.12,336.81 226.71,338.28 C229.98,339.60 234.39,340.71 235.32,340.48 C230.04,336.82 221.79,329.68 217.06,324.67 C211.92,319.22 192.50,294.40 186.88,285.66 C192.94,293.19 220.44,323.87 225.88,329.02 C227.88,330.90 244.11,344.70 244.11,344.71 C240.54,341.22 230.47,330.53 225.21,324.92 C213.86,312.50 200.73,295.26 196.51,289.54 C199.42,293.76 208.84,305.83 212.99,311.02 C218.47,317.56 227.24,326.82 233.61,332.58 C239.51,337.76 246.98,344.32 247.52,345.18 C243.48,341.88 233.85,330.21 229.14,323.78 C219.73,310.59 211.87,296.30 210.81,293.57 C213.48,295.98 222.76,309.20 227.42,315.84 C239.29,332.84 245.82,341.62 247.72,344.34 C247.35,344.85 243.29,340.13 240.79,336.02 C234.72,325.87 228.61,307.75 227.58,303.37 C227.58,303.37 228.93,302.73 228.93,302.73 C232.53,307.98 238.31,319.48 242.18,328.67 C244.47,334.23 248.90,347.47 249.45,350.25 C249.45,350.25 246.88,346.14 246.88,346.14" fill="none" stroke="rgb(0, 255, 0)" stroke-width="2.39" stroke-opacity="1.00" stroke-linejoin="round"/>
<path d="M236.26,332.20 C235.95,333.35 235.61,336.08 235.76,337.37 C236.02,339.52 246.42,351.98 247.57,352.98 C247.90,353.27 248.59,353.78 249.65,354.51" fill="none" stroke="rgb(0, 255, 0)" stroke-width="2.39" stroke-opacity="1.00" stroke-linejoin="round"/>
<path d="M209.49,331.80 C209.49,331.80 209.49,331.39 209.49,331.39 C209.17,331.36 205.22,332.48 202.64,333.19 C199.83,334.02 195.73,335.03 194.58,336.10 C193.66,337.02 193.79,338.63 195.15,341.68 C196.82,345.36 199.85,349.92 201.58,350.83 C202.75,351.41 208.45,352.30 209.86,352.16 C212.23,351.89 217.31,349.06 219.28,346.82 C220.87,344.95 222.35,341.57 222.24,339.02 C222.19,337.97 221.82,334.97 221.66,333.82" fill="none" stroke="rgb(0, 255, 0)" stroke-width="2.39" stroke-opacity="1.00" stroke-linejoin="round"/>
<path d="M199.76,336.66 C199.76,336.66 197.12,336.66 197.12,336.66 C197.02,336.75 198.16,346.60 203.34,349.76 C203.34,349.76 204.38,349.04 204.38,349.04 C205.18,346.60 204.83,341.25 203.75,338.78 C203.17,337.49 202.28,336.44 201.37,335.78 C201.37,335.78 200.17,336.12 200.17,336.12 C199.47,337.49 199.13,339.34 199.43,341.14 C200.08,344.78 202.26,346.30 203.72,346.62 C205.12,345.75 206.17,344.31 206.34,342.54 C206.45,341.25 205.85,338.45 205.27,337.18 C204.62,335.82 203.71,334.99 202.63,334.53 C201.55,334.93 200.77,336.22 200.54,338.30 C200.49,338.89 200.77,341.69 200.95,342.37 C201.64,344.83 202.79,346.42 204.24,347.18 C205.73,346.74 206.97,345.49 207.33,343.62 C208.40,337.70 203.20,332.39 201.97,331.53 C201.97,331.53 200.36,331.78 200.36,331.78 C199.36,333.67 198.92,334.96 198.89,336.45 C198.77,343.47 201.51,347.46 202.91,348.57 C202.91,348.57 204.85,348.32 204.85,348.32 C205.87,346.50 206.46,344.30 206.25,342.10 C206.08,340.47 204.90,336.67 204.16,335.26 C203.21,333.51 201.89,332.65 200.31,332.41 C198.78,334.04 198.07,335.22 197.88,336.76 C197.70,338.39 197.68,340.63 197.85,342.20 C198.04,343.85 198.74,345.48 200.13,347.82 C200.13,347.82 204.63,345.99 204.63,345.99" fill="none" stroke="rgb(0, 255, 0)" stroke-width="2.39" stroke-opacity="1.00" stroke-linejoin="round"/>
<path d="M157.17,333.42 C157.17,333.42 155.71,334.23 155.71,334.23 C157.58,334.75 166.97,335.61 168.74,335.73 C172.66,335.97 175.00,335.81 177.51,335.58 C177.51,335.58 175.83,335.45 175.83,335.45" fill="none" stroke="rgb(0, 255, 0)" stroke-width="2.39" stroke-opacity="1.00" stroke-linejoin="round"/>
<path d="M172.58,336.26 C172.58,336.26 172.01,336.42 172.01,336.42 C172.01,336.42 171.89,336.93 171.89,336.93 C173.05,337.92 174.50,339.80 175.06,341.43 C175.60,343.03 175.79,346.23 175.53,347.62 C175.35,348.37 172.95,349.23 172.02,349.53 C170.13,350.12 166.03,352.22 162.41,352.22 C161.90,352.22 153.85,351.59 153.25,351.49 C150.95,351.06 146.67,348.13 146.29,346.17 C146.15,345.38 146.51,341.48 146.62,340.31" fill="none" stroke="rgb(0, 255, 0)" stroke-width="2.39" stroke-opacity="1.00" stroke-linejoin="round"/>
<path d="M162.85,335.85 C162.85,335.85 159.06,337.07 159.06,337.07 C159.06,337.07 158.79,336.66 158.79,336.66 C158.78,340.41 160.30,347.28 162.26,349.23 C162.59,349.54 163.25,349.94 164.23,350.41 C165.62,350.08 166.78,349.27 167.53,347.81 C168.13,346.61 168.83,343.76 168.83,342.53 C168.80,341.29 168.06,339.31 167.37,338.55 C166.68,337.86 164.87,337.10 163.97,337.17 C162.91,337.29 161.00,338.67 160.40,339.85 C159.75,341.23 159.68,344.87 160.37,346.55 C161.24,348.47 164.26,350.55 166.05,350.36 C167.79,350.11 170.71,347.52 171.47,345.76 C172.00,344.41 171.82,341.84 171.25,340.76 C170.68,339.80 168.94,338.31 167.86,337.84 C166.69,337.38 164.36,337.34 163.29,337.84 C162.04,338.49 160.30,341.00 160.14,342.63 C160.01,344.53 161.70,348.08 163.24,348.98 C164.85,349.85 168.23,349.09 169.45,347.67 C170.45,346.44 170.87,343.60 170.41,342.35 C169.98,341.29 168.92,340.41 167.79,339.89 C166.60,340.09 165.52,340.91 165.18,342.21 C164.57,344.71 166.06,347.47 166.97,348.51 C166.97,348.51 168.25,348.39 168.25,348.39 C169.43,346.31 168.80,343.08 167.61,342.08 C167.61,342.08 166.41,342.79 166.41,342.79 C166.41,342.79 168.52,345.59 168.52,345.59" fill="none" stroke="rgb(0, 255, 0)" stroke-width="2.39" stroke-opacity="1.00" stroke-linejoin="round"/>
<path d="M168.12,343.15 C166.76,343.19 165.88,343.19 165.48,343.15 C165.09,343.11 164.61,342.98 164.06,342.75 C164.06,342.75 167.58,345.31 167.58,345.31 C170.45,342.14 166.28,340.32 165.07,340.18 C163.84,340.71 163.14,341.49 162.81,342.98 C162.71,343.44 162.27,345.91 162.03,347.21" fill="none" stroke="rgb(0, 255, 0)" stroke-width="2.39" stroke-opacity="1.00" stroke-linejoin="round"/>
<path d="M187.59,345.18 C186.47,345.66 185.73,345.99 185.70,345.99 C185.63,346.00 185.43,346.01 185.10,346.02 C180.86,349.81 180.84,355.23 181.27,356.37 C182.35,356.99 183.61,357.36 186.45,357.82 C187.01,357.91 187.66,358.03 188.40,358.16" fill="none" stroke="rgb(0, 255, 0)" stroke-width="2.39" stroke-opacity="1.00" stroke-linejoin="round"/>
<path d="M199.35,366.27 C199.35,366.27 198.95,366.27 198.95,366.27 C198.59,366.43 196.60,368.43 194.59,368.65 C191.65,368.92 187.86,368.12 186.39,366.40 C185.28,365.07 183.53,364.61 181.91,365.69 C181.12,366.24 179.49,367.79 178.81,368.68 C178.54,369.03 177.96,369.85 177.04,371.14" fill="none" stroke="rgb(0, 255, 0)" stroke-width="2.39" stroke-opacity="1.00" stroke-linejoin="round"/>
<path d="M160.82,355.73 C159.41,356.55 158.54,357.11 158.24,357.40 C157.87,357.76 155.94,371.95 155.15,372.94 C155.15,372.94 153.76,356.92 153.76,356.92 C153.76,356.92 150.71,366.42 150.71,366.42 C150.71,366.42 148.98,356.43 148.98,356.43 C148.98,356.43 146.11,369.04 146.11,369.04 C146.11,369.04 144.76,357.18 144.76,357.18 C144.76,357.18 143.38,363.44 143.38,363.44" fill="none" stroke="rgb(0, 255, 0)" stroke-width="2.39" stroke-opacity="1.00" stroke-linejoin="round"/>
<path d="M215.58,351.27 C215.58,351.27 214.36,350.86 214.36,350.86 C214.36,350.86 217.42,364.36 217.42,364.36 C217.42,364.36 221.73,345.80 221.73,345.80 C221.94,347.26 221.73,354.24 221.91,356.97 C222.02,358.54 222.26,359.26 222.70,359.67 C224.23,358.36 225.94,347.87 226.23,345.38 C226.30,345.46 226.29,350.38 226.54,353.69 C226.86,357.60 227.79,358.92 228.58,359.12 C228.58,359.12 231.75,347.67 231.75,347.67 C231.84,348.88 232.21,351.04 232.74,353.03 C232.87,353.54 233.10,354.30 233.42,355.32" fill="none" stroke="rgb(0, 255, 0)" stroke-width="2.39" stroke-opacity="1.00" stroke-linejoin="round"/>
<path d="M176.64,377.23 C176.64,377.23 175.62,377.83 175.62,377.83 C175.62,377.83 175.57,378.31 175.57,378.31 C176.13,378.88 179.81,381.72 181.09,384.87 C181.79,386.65 183.31,401.03 183.99,407.92 C184.59,415.68 184.90,425.06 182.61,430.82 C182.16,431.92 181.79,432.52 181.58,432.64 C180.32,432.80 175.96,402.05 175.00,394.47 C174.58,391.12 174.88,388.69 175.01,388.61 C174.48,388.63 173.11,392.74 172.59,396.25 C171.89,401.15 172.52,415.87 174.05,422.83 C174.76,426.02 176.24,430.89 178.05,435.19 C178.05,435.19 178.32,435.02 178.32,435.02" fill="none" stroke="rgb(0, 255, 0)" stroke-width="2.39" stroke-opacity="1.00" stroke-linejoin="round"/>
<path d="M176.23,428.33 C176.19,429.42 176.19,430.09 176.23,430.36 C176.32,430.99 176.65,431.18 176.64,431.62 C176.57,436.12 176.32,439.36 176.23,440.45 C173.27,433.91 170.13,422.72 169.20,416.60 C168.33,410.77 168.07,394.95 168.69,391.60 C169.46,387.64 173.60,377.70 174.96,375.55 C175.05,376.52 170.45,384.81 169.74,386.29 C168.79,388.28 165.69,397.24 165.73,400.58 C165.74,401.14 166.43,407.61 167.06,411.95 C167.14,412.54 167.22,413.14 167.31,413.73" fill="none" stroke="rgb(0, 255, 0)" stroke-width="2.39" stroke-opacity="1.00" stroke-linejoin="round"/>
<path d="M190.83,392.64 C190.83,392.64 190.63,392.64 190.63,392.64 C190.63,392.64 190.43,392.84 190.43,392.84 C190.67,394.32 191.22,395.98 191.44,396.59 C193.18,401.47 196.61,417.83 196.33,423.60 C196.22,425.35 195.40,427.99 194.66,429.09 C194.41,429.44 188.15,437.30 187.76,437.53 C187.27,436.76 186.53,432.41 186.11,429.86 C185.90,428.56 185.42,425.56 185.16,423.87" fill="none" stroke="rgb(0, 255, 0)" stroke-width="2.39" stroke-opacity="1.00" stroke-linejoin="round"/>
<path d="M211.52,378.44 C211.52,378.44 209.70,379.05 209.70,379.05 C209.15,380.20 209.03,381.19 209.29,383.05 C210.09,388.59 213.23,398.84 216.59,407.67 C217.68,410.43 220.99,416.29 221.45,416.90 C223.04,418.98 227.18,421.80 227.63,421.95 C227.99,422.07 228.70,422.17 229.77,422.25" fill="none" stroke="rgb(0, 255, 0)" stroke-width="2.39" stroke-opacity="1.00" stroke-linejoin="round"/>
<path d="M207.46,388.58 C207.37,388.95 206.86,390.14 206.86,390.51 C206.85,392.85 213.98,406.17 217.33,411.15 C218.40,412.74 221.91,417.44 223.97,419.20 C226.41,421.25 233.36,424.12 233.35,423.77 C231.76,420.78 229.79,416.03 227.81,410.26 C226.48,406.41 224.16,399.72 223.16,396.87" fill="none" stroke="rgb(0, 255, 0)" stroke-width="2.39" stroke-opacity="1.00" stroke-linejoin="round"/>
<path d="M218.82,371.95 C218.82,371.95 217.20,371.55 217.20,371.55 C218.65,371.98 227.50,384.67 231.64,390.64 C235.20,395.87 239.96,405.29 240.91,411.38 C241.79,418.83 242.84,427.47 243.24,428.92 C243.24,428.92 243.56,427.12 243.56,427.12" fill="none" stroke="rgb(0, 255, 0)" stroke-width="2.39" stroke-opacity="1.00" stroke-linejoin="round"/>
<path d="M224.50,378.04 C225.30,378.14 228.26,380.55 230.47,383.01 C232.83,385.70 236.52,391.81 237.81,395.14 C239.20,398.85 240.06,403.53 240.21,406.78 C240.33,409.79 239.79,412.73 239.52,413.90 C238.38,411.78 237.22,406.91 236.23,404.45 C235.06,401.55 231.86,395.76 230.72,394.13 C228.70,391.25 219.68,380.77 219.67,379.66 C219.67,379.40 219.79,378.73 220.03,377.65" fill="none" stroke="rgb(0, 255, 0)" stroke-width="2.39" stroke-opacity="1.00" stroke-linejoin="round"/>
<path d="M241.54,409.68 C241.54,409.68 240.36,409.33 240.36,409.33 C240.43,411.54 241.14,418.57 241.13,421.91 C241.07,429.05 240.08,431.98 239.53,432.42 C236.94,432.92 234.05,433.15 232.60,432.27 C231.35,431.47 220.74,420.06 217.58,416.61 C221.59,421.31 228.45,430.85 232.22,436.16 C232.49,436.52 232.75,436.89 233.02,437.26" fill="none" stroke="rgb(0, 255, 0)" stroke-width="2.39" stroke-opacity="1.00" stroke-linejoin="round"/>
<path d="M235.45,434.01 C235.37,434.17 235.30,434.31 235.25,434.42 C235.13,434.66 235.02,434.90 234.90,435.14 C233.66,435.23 228.49,435.25 221.49,435.68 C213.09,436.25 203.23,438.23 197.74,439.70 C194.44,440.59 186.60,443.17 185.40,443.53 C181.57,444.69 180.11,444.75 178.91,444.54 C178.32,443.99 177.92,443.31 177.82,442.40 C177.66,440.65 178.99,438.96 180.29,437.26" fill="none" stroke="rgb(0, 255, 0)" stroke-width="2.39" stroke-opacity="1.00" stroke-linejoin="round"/>
<path d="M193.27,424.68 C193.27,424.68 190.02,425.90 190.02,425.90 C191.01,427.69 192.72,433.09 193.21,436.21 C193.54,438.38 193.70,442.97 193.47,442.89 C193.47,442.89 191.52,433.77 191.52,433.77 C190.59,437.51 190.28,439.31 190.18,439.46 C190.04,439.66 189.63,440.02 188.96,440.53" fill="none" stroke="rgb(0, 255, 0)" stroke-width="2.39" stroke-opacity="1.00" stroke-linejoin="round"/>
<path d="M187.59,443.75 C187.59,443.75 186.17,443.75 186.17,443.75 C186.17,443.75 185.56,443.06 185.56,443.06 C185.56,443.06 185.70,441.20 185.70,441.20 C186.55,441.31 187.02,441.68 187.55,442.95 C194.58,459.73 198.13,469.98 198.53,471.15 C198.53,471.15 199.76,468.90 199.76,468.90" fill="none" stroke="rgb(0, 255, 0)" stroke-width="2.39" stroke-opacity="1.00" stroke-linejoin="round"/>
<path d="M206.25,440.10 C206.25,440.10 205.32,440.30 205.32,440.30 C205.14,440.43 205.04,440.63 205.03,440.89 C204.84,446.26 212.13,466.10 212.89,466.54 C212.89,466.54 213.55,462.81 213.55,462.81" fill="none" stroke="rgb(0, 255, 0)" stroke-width="2.39" stroke-opacity="1.00" stroke-linejoin="round"/>
<path d="M215.98,435.64 C215.98,435.64 214.77,436.85 214.77,436.85 C214.76,437.35 214.86,437.60 215.64,438.59 C218.55,442.33 221.47,449.81 225.27,461.83 C225.63,462.89 226.00,463.96 226.36,465.02 C226.36,465.02 228.15,464.43 228.15,464.43" fill="none" stroke="rgb(0, 255, 0)" stroke-width="2.39" stroke-opacity="1.00" stroke-linejoin="round"/>
<path d="M236.26,433.20 C236.26,433.20 235.25,433.81 235.25,433.81 C235.25,433.81 235.11,434.28 235.11,434.28 C235.28,434.62 249.06,457.89 250.79,460.40 C251.76,461.80 253.24,463.51 254.19,464.37 C254.44,464.59 254.82,464.88 255.33,465.25" fill="none" stroke="rgb(0, 255, 0)" stroke-width="2.39" stroke-opacity="1.00" stroke-linejoin="round"/>
<path d="M239.91,429.55 C239.91,429.28 239.91,429.01 239.91,428.74 C239.91,428.62 239.91,428.50 239.91,428.39 C242.13,433.38 241.83,437.14 241.60,438.00 C241.60,438.00 237.07,435.64 237.07,435.64" fill="none" stroke="rgb(0, 255, 0)" stroke-width="2.39" stroke-opacity="1.00" stroke-linejoin="round"/>
</g>
</svg>
