<?xml version="1.0" encoding="UTF-8" standalone="no"?>
<!DOCTYPE svg PUBLIC "-//W3C//DTD SVG 1.1//EN" "http://www.w3.org/Graphics/SVG/1.1/DTD/svg11.dtd">
<svg width="128.40" height="181.68" viewBox="0.00 0.00 535.00 757.00" xmlns="http://www.w3.org/2000/svg" xmlns:xlink="http://www.w3.org/1999/xlink">
<g stroke-linecap="round" transform="translate(44.00, 155.00)" id="102-비">
<path d="M70.36,167.93 C70.36,167.93 69.76,167.72 69.76,167.72 C68.93,166.28 66.32,148.91 65.52,141.89 C64.13,125.48 63.06,93.15 63.60,89.95 C63.66,89.62 63.84,88.65 64.14,87.05" fill="none" stroke="rgb(255, 255, 0)" stroke-width="2.39" stroke-opacity="1.00" stroke-linejoin="round"/>
<path d="M87.00,53.95 C87.00,53.95 85.47,54.76 85.47,54.76 C85.47,54.76 84.31,54.20 84.31,54.20 C83.47,50.62 81.70,31.50 80.99,22.99 C80.48,15.51 80.47,0.10 81.32,-1.93 C81.44,-2.21 81.79,-2.94 82.37,-4.11" fill="none" stroke="rgb(255, 255, 0)" stroke-width="2.39" stroke-opacity="1.00" stroke-linejoin="round"/>
<path d="M-1.02,57.19 C-2.60,54.96 -3.46,51.85 -3.47,48.36 C-3.44,45.15 -6.70,-0.34 -6.97,-2.43 C-7.00,-2.64 -7.05,-2.82 -7.11,-2.96" fill="none" stroke="rgb(255, 255, 0)" stroke-width="2.39" stroke-opacity="1.00" stroke-linejoin="round"/>
<path d="M-19.28,108.30 C-19.28,108.30 -20.90,109.52 -20.90,109.52 C-21.24,110.49 -21.27,111.32 -20.89,112.70 C-19.17,118.73 -16.28,130.89 -14.56,138.17 C-12.82,145.10 -8.09,158.58 -5.71,164.88 C-3.02,171.66 0.40,176.89 1.82,178.50" fill="none" stroke="rgb(255, 255, 0)" stroke-width="2.39" stroke-opacity="1.00" stroke-linejoin="round"/>
<path d="M-14.82,179.69 C-14.82,179.69 -16.84,180.57 -16.84,180.57 C-16.72,181.97 -8.02,224.19 -5.37,234.34 C-0.71,250.97 4.09,258.22 4.79,258.89 C5.17,259.25 6.05,259.94 7.43,260.97" fill="none" stroke="rgb(255, 255, 0)" stroke-width="2.39" stroke-opacity="1.00" stroke-linejoin="round"/>
<path d="M1.82,293.26 C1.82,293.26 0.19,293.47 0.19,293.47 C-0.32,294.90 1.15,333.00 1.90,338.93 C2.92,346.46 5.20,353.98 5.98,356.52" fill="none" stroke="rgb(255, 255, 0)" stroke-width="2.39" stroke-opacity="1.00" stroke-linejoin="round"/>
<path d="M48.06,279.07 C47.81,279.48 45.73,282.18 45.49,284.05 C45.33,285.33 43.21,354.48 43.32,371.43 C43.43,376.63 44.57,383.92 44.91,384.53 C45.10,384.84 45.57,385.39 46.34,386.15" fill="none" stroke="rgb(255, 255, 0)" stroke-width="2.39" stroke-opacity="1.00" stroke-linejoin="round"/>
<path d="M9.52,352.08 C8.08,352.94 6.66,353.70 6.38,354.00 C4.98,355.54 4.00,357.97 3.96,360.20 C3.93,364.38 7.21,379.25 10.21,387.60 C12.23,393.05 14.41,398.18 16.00,400.71 C17.67,403.32 21.07,408.17 23.10,410.48 C23.92,411.41 29.81,417.69 31.63,419.80" fill="none" stroke="rgb(255, 255, 0)" stroke-width="2.39" stroke-opacity="1.00" stroke-linejoin="round"/>
<path d="M67.93,385.74 C67.93,385.74 66.71,386.70 66.71,386.70 C67.08,387.72 93.02,429.58 95.33,432.90 C98.65,437.54 107.33,449.09 112.87,454.64 C117.36,459.09 123.69,463.06 125.53,464.16" fill="none" stroke="rgb(255, 255, 0)" stroke-width="2.39" stroke-opacity="1.00" stroke-linejoin="round"/>
<path d="M116.61,394.67 C115.69,396.03 115.47,397.65 116.03,399.86 C116.83,402.92 121.73,413.03 126.83,422.53 C131.98,431.76 138.45,441.97 141.96,446.26 C145.15,450.14 150.50,453.75 152.76,454.85" fill="none" stroke="rgb(255, 255, 0)" stroke-width="2.39" stroke-opacity="1.00" stroke-linejoin="round"/>
<path d="M133.64,390.61 C133.01,391.36 134.26,395.34 135.80,398.80 C141.82,411.55 153.04,436.28 153.80,437.94 C155.50,441.61 158.76,445.56 159.99,446.58" fill="none" stroke="rgb(255, 255, 0)" stroke-width="2.39" stroke-opacity="1.00" stroke-linejoin="round"/>
<path d="M138.51,214.17 C137.79,212.29 135.35,210.83 134.24,211.13 C132.76,213.04 131.14,226.77 130.68,235.98 C130.32,245.16 130.43,256.38 131.23,262.74 C131.67,266.21 132.89,272.14 133.49,274.07 C134.08,275.94 135.84,279.87 136.29,280.87" fill="none" stroke="rgb(255, 255, 0)" stroke-width="2.39" stroke-opacity="1.00" stroke-linejoin="round"/>
<path d="M92.67,285.56 C92.67,285.56 92.07,285.56 92.07,285.56 C92.07,285.56 91.86,285.33 91.86,285.33 C91.67,282.93 91.43,281.52 90.83,279.65 C88.77,273.03 84.96,259.62 83.32,253.29 C81.92,247.55 81.09,235.47 81.75,230.69 C81.96,229.26 82.35,226.65 82.54,225.47" fill="none" stroke="rgb(255, 255, 0)" stroke-width="2.39" stroke-opacity="1.00" stroke-linejoin="round"/>
<path d="M207.06,199.97 C205.80,202.60 204.87,218.74 204.48,226.47 C204.39,229.81 204.24,237.42 204.26,238.68 C204.31,240.80 205.03,247.49 205.22,249.22" fill="none" stroke="rgb(255, 255, 0)" stroke-width="2.39" stroke-opacity="1.00" stroke-linejoin="round"/>
<path d="M270.74,208.49 C268.51,209.19 267.17,210.33 265.74,212.51 C262.93,216.84 256.26,230.28 255.05,234.20 C253.98,237.76 252.49,248.59 251.99,259.69 C251.83,264.16 251.56,272.30 251.45,275.96 C251.28,283.91 251.49,291.65 251.54,292.88" fill="none" stroke="rgb(255, 255, 0)" stroke-width="2.39" stroke-opacity="1.00" stroke-linejoin="round"/>
<path d="M319.42,208.08 C319.42,208.08 318.81,207.88 318.81,207.88 C318.32,208.26 318.23,212.03 318.35,214.80 C319.21,233.45 321.00,254.39 321.66,258.09 C321.86,259.22 322.57,261.89 322.92,263.19" fill="none" stroke="rgb(255, 255, 0)" stroke-width="2.39" stroke-opacity="1.00" stroke-linejoin="round"/>
<path d="M331.99,256.35 C331.99,256.35 330.59,255.91 330.59,255.91 C330.15,259.23 330.02,275.51 330.05,282.93 C330.26,290.51 330.96,303.61 331.80,313.08 C332.59,321.04 334.30,326.54 334.98,328.51" fill="none" stroke="rgb(255, 255, 0)" stroke-width="2.39" stroke-opacity="1.00" stroke-linejoin="round"/>
<path d="M338.89,337.88 C338.89,337.88 336.96,338.59 336.96,338.59 C336.89,340.79 336.99,341.86 337.57,343.83 C338.43,346.80 343.68,368.53 344.55,371.75 C346.26,378.04 352.61,394.38 354.11,397.63 C357.58,405.10 360.86,410.13 361.57,411.13" fill="none" stroke="rgb(255, 255, 0)" stroke-width="2.39" stroke-opacity="1.00" stroke-linejoin="round"/>
<path d="M413.52,196.32 C413.52,196.32 413.52,195.10 413.52,195.10 C412.28,195.49 405.19,207.52 400.76,216.16 C397.81,222.13 392.92,234.28 390.89,240.79 C389.62,244.89 385.47,261.16 384.89,266.55 C384.61,269.21 384.62,274.07 384.89,276.80" fill="none" stroke="rgb(255, 255, 0)" stroke-width="2.39" stroke-opacity="1.00" stroke-linejoin="round"/>
<path d="M401.35,259.19 C401.35,259.19 399.73,259.19 399.73,259.19 C399.27,259.24 399.33,266.35 399.35,269.94 C399.25,277.55 399.11,290.12 399.50,301.28 C399.70,305.56 400.32,309.76 401.24,312.81 C401.93,315.05 403.78,319.14 405.00,321.25" fill="none" stroke="rgb(255, 255, 0)" stroke-width="2.39" stroke-opacity="1.00" stroke-linejoin="round"/>
<path d="M443.54,263.65 C441.24,262.92 440.22,262.77 439.70,263.37 C437.04,266.55 432.29,277.42 430.93,283.27 C429.34,290.24 427.98,301.38 427.50,310.04 C426.87,324.28 427.52,351.83 428.83,356.84 C429.40,358.98 430.46,361.92 431.20,363.58" fill="none" stroke="rgb(255, 255, 0)" stroke-width="2.39" stroke-opacity="1.00" stroke-linejoin="round"/>
<path d="M295.48,372.76 C295.48,372.76 294.06,372.76 294.06,372.76 C294.06,372.76 294.01,372.92 294.01,372.92 C297.27,377.13 300.66,386.83 302.86,396.57 C304.54,404.20 308.11,419.77 310.12,427.51 C312.35,436.12 313.98,446.80 314.02,451.67 C314.02,456.68 313.49,460.35 312.93,463.22" fill="none" stroke="rgb(255, 255, 0)" stroke-width="2.39" stroke-opacity="1.00" stroke-linejoin="round"/>
<path d="M289.81,75.04 C289.81,75.04 288.59,76.26 288.59,76.26 C290.20,80.54 290.60,87.97 289.90,98.96 C289.40,105.90 288.68,122.99 288.70,125.85 C288.76,132.19 290.85,142.66 293.60,151.86 C294.62,155.19 295.97,159.57 296.30,160.63" fill="none" stroke="rgb(255, 255, 0)" stroke-width="2.39" stroke-opacity="1.00" stroke-linejoin="round"/>
<path d="M218.82,81.12 C218.82,81.12 218.77,76.73 218.77,76.73 C218.05,77.11 218.09,90.99 218.97,100.11 C219.58,106.15 223.39,122.05 225.08,126.28 C225.60,127.56 227.98,132.64 228.56,133.85" fill="none" stroke="rgb(255, 255, 0)" stroke-width="2.39" stroke-opacity="1.00" stroke-linejoin="round"/>
<path d="M164.06,84.37 C162.84,85.51 162.85,89.43 163.07,93.59 C164.09,108.21 166.09,138.30 166.87,141.63 C167.34,143.60 167.99,145.49 168.85,147.49" fill="none" stroke="rgb(255, 255, 0)" stroke-width="2.39" stroke-opacity="1.00" stroke-linejoin="round"/>
<path d="M177.85,48.67 C177.85,48.67 176.23,50.09 176.23,50.09 C176.23,50.09 176.23,50.30 176.23,50.30 C175.80,51.78 171.34,36.37 170.55,30.38 C170.14,27.14 170.21,21.70 170.82,19.03 C171.94,14.36 178.78,1.99 182.61,-3.31 C183.87,-5.04 188.74,-11.13 190.41,-12.94 C192.61,-15.25 195.56,-16.96 197.81,-17.76" fill="none" stroke="rgb(255, 255, 0)" stroke-width="2.39" stroke-opacity="1.00" stroke-linejoin="round"/>
<path d="M286.56,-17.44 C286.56,-17.44 286.49,-18.86 286.49,-18.86 C285.81,-19.28 283.09,-17.96 281.30,-15.67 C277.98,-11.37 272.17,0.42 269.33,7.69 C266.48,15.00 262.39,27.60 261.82,32.15 C261.55,34.45 262.01,37.55 262.80,40.46" fill="none" stroke="rgb(255, 255, 0)" stroke-width="2.39" stroke-opacity="1.00" stroke-linejoin="round"/>
<path d="M392.43,-8.11 C392.43,-8.11 391.56,-8.92 391.56,-8.92 C391.35,-9.34 378.87,4.18 375.09,9.85 C370.21,17.20 363.44,30.80 361.52,37.00 C360.59,40.06 359.40,46.41 359.21,48.49 C358.72,54.38 359.99,60.22 361.19,64.87" fill="none" stroke="rgb(255, 255, 0)" stroke-width="2.39" stroke-opacity="1.00" stroke-linejoin="round"/>
<path d="M433.39,74.23 C433.39,74.23 433.39,74.03 433.39,74.03 C433.39,74.03 432.99,73.62 432.99,73.62 C433.00,77.58 432.45,84.01 431.64,88.07 C430.85,91.92 428.11,99.87 426.79,102.93 C424.85,107.36 418.56,115.96 415.07,119.35 C414.21,120.18 409.51,124.54 408.65,125.34" fill="none" stroke="rgb(255, 255, 0)" stroke-width="2.39" stroke-opacity="1.00" stroke-linejoin="round"/>
</g>
</svg>
