<?xml version="1.0" encoding="UTF-8" standalone="no"?>
<!DOCTYPE svg PUBLIC "-//W3C//DTD SVG 1.1//EN" "http://www.w3.org/Graphics/SVG/1.1/DTD/svg11.dtd">
<svg width="128.40" height="181.68" viewBox="0.00 0.00 535.00 757.00" xmlns="http://www.w3.org/2000/svg" xmlns:xlink="http://www.w3.org/1999/xlink">
<g stroke-linecap="round" transform="translate(44.00, 155.00)" id="103-비">
<path d="M108.15,111.15 C108.15,111.15 108.42,110.79 108.42,110.79 C108.42,110.79 108.40,110.68 108.40,110.68 C106.50,111.27 98.17,119.70 97.21,121.14 C96.13,122.78 94.34,126.67 93.85,128.61 C93.30,130.84 93.10,135.13 93.41,137.67 C93.55,138.69 94.25,140.21 95.08,141.84" fill="none" stroke="rgb(0, 255, 0)" stroke-width="0.75" stroke-opacity="1.00" stroke-linejoin="round"/>
<path d="M84.87,123.96 C84.75,124.16 84.67,124.29 84.64,124.35 C84.60,124.41 84.55,124.48 84.48,124.57 C82.93,128.27 79.38,136.69 78.45,142.80 C78.17,144.71 77.89,148.37 77.89,148.57 C77.89,148.69 77.92,148.78 77.97,148.83" fill="none" stroke="rgb(0, 255, 0)" stroke-width="0.75" stroke-opacity="1.00" stroke-linejoin="round"/>
<path d="M63.93,117.40 C63.93,117.40 63.09,117.42 63.09,117.42 C62.16,118.59 52.81,139.54 52.30,142.11 C51.97,143.86 51.56,150.24 51.61,150.59 C51.71,151.24 52.07,152.94 52.27,153.76" fill="none" stroke="rgb(0, 255, 0)" stroke-width="0.75" stroke-opacity="1.00" stroke-linejoin="round"/>
<path d="M66.59,147.25 C66.59,147.25 65.77,147.26 65.77,147.26 C65.38,147.74 62.63,153.49 61.95,155.28 C61.06,157.71 60.36,162.45 60.61,164.37 C61.10,167.58 63.63,172.12 64.00,172.57 C64.28,172.91 65.58,174.09 65.96,174.44" fill="none" stroke="rgb(0, 255, 0)" stroke-width="0.75" stroke-opacity="1.00" stroke-linejoin="round"/>
<path d="M42.05,146.31 C42.05,146.31 41.43,146.15 41.43,146.15 C41.54,146.39 41.61,150.05 41.74,152.34 C41.89,155.22 41.70,159.78 41.90,162.38 C42.17,165.57 45.98,173.58 48.33,176.94 C49.00,177.88 49.67,178.82 50.33,179.75" fill="none" stroke="rgb(0, 255, 0)" stroke-width="0.75" stroke-opacity="1.00" stroke-linejoin="round"/>
<path d="M129.41,119.59 C129.41,119.59 129.16,118.43 129.16,118.43 C129.16,118.43 129.55,118.04 129.55,118.04 C129.23,119.02 124.24,130.25 122.10,138.82 C121.84,139.91 121.34,142.06 121.10,143.13 C120.53,145.83 120.39,148.15 120.34,149.75" fill="none" stroke="rgb(0, 255, 0)" stroke-width="0.75" stroke-opacity="1.00" stroke-linejoin="round"/>
<path d="M132.85,130.06 C132.33,130.09 132.03,130.09 131.73,130.50 C129.05,134.24 126.99,137.69 126.20,139.45 C125.60,140.89 124.51,147.30 124.47,149.97 C124.46,155.29 125.57,159.12 125.76,159.45 C125.77,159.45 125.84,159.55 125.97,159.75" fill="none" stroke="rgb(0, 255, 0)" stroke-width="0.75" stroke-opacity="1.00" stroke-linejoin="round"/>
<path d="M130.35,137.87 C130.35,137.87 129.72,137.19 129.72,137.19 C129.85,138.84 129.93,145.88 130.34,148.13 C130.89,151.05 132.88,156.25 133.48,157.34 C133.53,157.42 133.58,157.50 133.63,157.56" fill="none" stroke="rgb(0, 255, 0)" stroke-width="0.75" stroke-opacity="1.00" stroke-linejoin="round"/>
<path d="M132.85,134.90 C132.74,135.00 132.66,135.07 132.61,135.10 C132.56,135.14 132.46,135.20 132.31,135.28 C132.10,135.51 132.07,152.18 133.38,157.33 C133.59,158.12 133.81,158.90 134.02,159.69 C134.12,160.03 134.25,160.52 134.41,161.16" fill="none" stroke="rgb(0, 255, 0)" stroke-width="0.75" stroke-opacity="1.00" stroke-linejoin="round"/>
</g>
</svg>
