<?xml version="1.0" encoding="UTF-8" standalone="no"?>
<!DOCTYPE svg PUBLIC "-//W3C//DTD SVG 1.1//EN" "http://www.w3.org/Graphics/SVG/1.1/DTD/svg11.dtd">
<svg width="128.40" height="181.68" viewBox="0.00 0.00 535.00 757.00" xmlns="http://www.w3.org/2000/svg" xmlns:xlink="http://www.w3.org/1999/xlink">
<g stroke-linecap="round" transform="translate(44.00, 155.00)" id="103-사람">
<path d="M118.62,147.25 C118.62,147.25 119.06,147.10 119.06,147.10 C119.04,147.13 118.46,146.25 118.18,146.00 C116.67,144.67 114.75,144.34 111.60,144.00 C108.50,143.67 103.73,143.78 102.04,144.14 C100.89,144.40 91.58,146.67 88.81,147.76 C87.52,148.28 85.18,149.93 84.37,150.91 C83.48,152.02 82.63,154.29 82.69,155.74 C82.85,158.62 84.53,160.23 85.17,160.07 C85.45,160.01 87.05,159.32 87.53,159.12" fill="none" stroke="rgb(229, 0, 16)" stroke-width="0.75" stroke-opacity="1.00" stroke-linejoin="round"/>
<path d="M87.84,158.97 C88.29,158.68 88.86,158.08 89.38,157.26 C90.69,155.22 90.81,153.96 90.81,153.81 C90.71,154.20 91.34,157.68 91.92,158.36 C92.39,158.85 94.08,158.77 94.94,158.28 C96.01,157.64 96.98,156.40 99.42,152.90 C99.48,153.01 100.35,157.26 101.12,158.07 C102.48,159.37 106.34,155.66 107.22,153.82 C107.40,154.44 108.29,155.60 109.11,155.75 C110.00,155.87 111.66,154.71 112.84,153.21 C113.71,153.82 118.38,148.96 118.31,148.22 C116.80,149.31 114.35,157.64 114.09,161.12 C114.09,161.12 114.25,160.84 114.25,160.84" fill="none" stroke="rgb(229, 0, 16)" stroke-width="0.75" stroke-opacity="1.00" stroke-linejoin="round"/>
<path d="M116.91,155.69 C116.78,155.69 116.65,155.69 116.52,155.69 C116.44,155.69 116.36,155.69 116.28,155.69 C116.28,155.69 114.63,168.74 114.63,168.74 C114.63,168.74 114.87,168.19 114.87,168.19" fill="none" stroke="rgb(229, 0, 16)" stroke-width="0.75" stroke-opacity="1.00" stroke-linejoin="round"/>
<path d="M118.00,161.47 C117.87,161.47 117.80,161.47 117.77,161.47 C117.73,161.47 117.71,161.46 117.69,161.44 C117.69,161.44 117.81,168.11 117.81,168.11 C117.81,168.11 118.00,167.09 118.00,167.09" fill="none" stroke="rgb(229, 0, 16)" stroke-width="0.75" stroke-opacity="1.00" stroke-linejoin="round"/>
<path d="M124.88,151.00 C124.88,150.98 124.88,150.95 124.88,150.92 C124.87,150.89 124.87,150.81 124.86,150.69 C124.67,150.66 123.97,151.32 122.29,154.28 C120.61,157.27 119.62,160.55 119.47,162.65 C119.38,163.92 119.35,166.19 119.38,166.49 C119.38,166.49 119.88,166.16 119.88,166.16" fill="none" stroke="rgb(229, 0, 16)" stroke-width="0.75" stroke-opacity="1.00" stroke-linejoin="round"/>
<path d="M121.28,161.00 C121.28,161.00 120.52,161.02 120.52,161.02 C120.52,161.02 121.57,165.97 121.57,165.97 C121.66,165.91 121.72,165.86 121.75,165.82 C121.78,165.78 121.84,165.68 121.91,165.53" fill="none" stroke="rgb(229, 0, 16)" stroke-width="0.75" stroke-opacity="1.00" stroke-linejoin="round"/>
<path d="M83.78,153.65 C83.28,153.85 82.26,154.02 82.07,154.09 C80.80,154.58 78.63,157.73 77.31,160.58 C76.25,162.87 75.08,167.30 75.08,167.40 C75.08,167.40 75.49,167.09 75.49,167.09" fill="none" stroke="rgb(229, 0, 16)" stroke-width="0.75" stroke-opacity="1.00" stroke-linejoin="round"/>
<path d="M80.96,158.97 C80.17,158.96 79.84,159.15 79.67,159.69 C78.41,163.93 78.05,171.67 78.56,173.34 C78.56,173.34 78.93,171.47 78.93,171.47" fill="none" stroke="rgb(229, 0, 16)" stroke-width="0.75" stroke-opacity="1.00" stroke-linejoin="round"/>
<path d="M85.34,166.78 C84.81,167.00 83.15,167.64 82.79,168.65 C81.29,173.00 82.23,175.70 82.75,176.73 C82.75,176.73 83.46,176.31 83.46,176.31" fill="none" stroke="rgb(229, 0, 16)" stroke-width="0.75" stroke-opacity="1.00" stroke-linejoin="round"/>
<path d="M82.84,157.41 C82.63,157.39 82.25,157.45 82.06,157.56 C82.01,157.59 81.93,157.67 81.82,157.80 C81.80,157.83 81.77,157.85 81.74,157.87 C81.74,157.87 81.74,157.87 81.74,157.87 C81.71,159.23 81.52,162.73 82.06,164.58 C82.43,165.82 84.97,170.58 86.23,171.61 C87.45,172.56 90.51,173.61 94.64,173.66 C97.50,173.67 101.21,172.70 103.17,171.82 C104.39,171.26 109.40,166.94 110.36,165.93 C111.26,164.97 113.19,161.28 113.41,160.72 C113.53,160.43 113.70,159.90 113.94,159.12" fill="none" stroke="rgb(229, 0, 16)" stroke-width="0.75" stroke-opacity="1.00" stroke-linejoin="round"/>
<path d="M95.50,160.84 C95.18,160.84 94.95,160.84 94.79,160.84 C94.40,160.85 86.70,160.87 86.47,160.84 C86.47,160.84 86.43,160.70 86.43,160.70" fill="none" stroke="rgb(229, 0, 16)" stroke-width="0.75" stroke-opacity="1.00" stroke-linejoin="round"/>
<path d="M85.96,164.12 C85.96,164.12 85.96,163.73 85.96,163.73 C85.96,163.73 86.02,163.66 86.02,163.66 C86.02,163.66 93.33,163.10 93.33,163.10 C93.33,163.10 93.06,163.04 93.06,163.04" fill="none" stroke="rgb(229, 0, 16)" stroke-width="0.75" stroke-opacity="1.00" stroke-linejoin="round"/>
<path d="M91.28,160.69 C90.94,160.81 90.73,160.88 90.65,160.92 C90.58,160.96 90.52,161.00 90.50,161.06 C90.50,161.06 90.78,166.25 90.78,166.25 C90.78,166.25 92.05,161.18 92.05,161.18 C92.05,161.18 91.75,165.50 91.75,165.50 C91.75,165.50 92.48,161.89 92.48,161.89 C92.33,163.07 92.02,166.51 91.56,167.16 C91.33,167.46 90.55,168.02 90.56,168.01 C91.05,167.53 91.84,165.16 91.82,163.86 C91.82,163.64 91.79,163.16 91.75,162.41" fill="none" stroke="rgb(229, 0, 16)" stroke-width="0.75" stroke-opacity="1.00" stroke-linejoin="round"/>
<path d="M91.43,161.62 C91.43,161.62 91.36,161.39 91.36,161.39 C91.36,161.39 91.11,161.31 91.11,161.31 C91.11,161.31 90.95,164.64 90.95,164.64 C90.95,164.64 91.51,161.54 91.51,161.54 C91.51,161.54 90.97,163.69 90.97,163.69" fill="none" stroke="rgb(229, 0, 16)" stroke-width="0.75" stroke-opacity="1.00" stroke-linejoin="round"/>
<path d="M93.47,163.34 C93.47,163.34 93.31,163.38 93.31,163.38 C93.31,163.38 96.43,166.87 96.43,166.87 C96.44,166.86 96.65,165.54 97.78,164.45 C98.13,164.12 98.90,163.45 99.08,163.30 C99.08,163.30 98.95,163.64 98.95,163.64" fill="none" stroke="rgb(229, 0, 16)" stroke-width="0.75" stroke-opacity="1.00" stroke-linejoin="round"/>
<path d="M93.00,166.31 C93.00,166.31 92.53,166.63 92.53,166.63 C92.53,166.63 100.35,166.92 100.35,166.92 C100.35,166.92 100.18,166.78 100.18,166.78" fill="none" stroke="rgb(229, 0, 16)" stroke-width="0.75" stroke-opacity="1.00" stroke-linejoin="round"/>
<path d="M110.34,160.69 C108.73,160.69 105.40,160.73 105.04,161.46 C104.85,161.93 104.97,163.05 105.52,163.23 C107.39,163.75 110.63,162.15 110.78,161.80 C110.78,161.80 107.43,161.02 107.43,161.02 C107.43,161.02 107.22,161.31 107.22,161.31" fill="none" stroke="rgb(229, 0, 16)" stroke-width="0.75" stroke-opacity="1.00" stroke-linejoin="round"/>
<path d="M107.84,161.16 C107.84,161.16 105.75,162.25 105.75,162.25 C105.75,162.25 105.53,161.98 105.53,161.98" fill="none" stroke="rgb(229, 0, 16)" stroke-width="0.75" stroke-opacity="1.00" stroke-linejoin="round"/>
<path d="M105.19,161.62 C105.19,161.62 104.09,162.09 104.09,162.09 C104.09,162.09 112.58,161.47 112.58,161.47 C110.92,161.51 108.02,161.60 107.99,161.60 C107.89,161.59 107.74,161.55 107.53,161.47" fill="none" stroke="rgb(229, 0, 16)" stroke-width="0.75" stroke-opacity="1.00" stroke-linejoin="round"/>
<path d="M110.34,160.53 C110.34,160.53 108.50,160.98 108.50,160.98 C108.50,160.98 108.47,161.11 108.47,161.11" fill="none" stroke="rgb(229, 0, 16)" stroke-width="0.75" stroke-opacity="1.00" stroke-linejoin="round"/>
<path d="M103.31,167.88 C103.31,167.88 103.23,167.88 103.23,167.88 C103.23,167.88 102.96,168.19 102.96,168.19 C102.96,168.19 101.58,167.88 101.58,167.88 C101.58,167.88 101.30,172.26 101.30,172.26 C102.56,172.78 102.86,169.87 102.74,168.67 C102.71,168.42 102.65,168.17 102.55,167.93" fill="none" stroke="rgb(229, 0, 16)" stroke-width="0.75" stroke-opacity="1.00" stroke-linejoin="round"/>
<path d="M104.87,171.78 C104.87,171.78 104.60,171.78 104.60,171.78 C104.57,171.87 104.55,172.41 104.56,173.31 C104.59,174.90 104.70,176.00 104.89,176.83 C104.89,176.83 105.19,176.78 105.19,176.78" fill="none" stroke="rgb(229, 0, 16)" stroke-width="0.75" stroke-opacity="1.00" stroke-linejoin="round"/>
<path d="M95.81,173.81 C95.81,173.81 95.36,174.09 95.36,174.09 C95.35,175.96 95.34,178.43 95.35,178.45 C95.38,178.52 95.43,178.64 95.50,178.81" fill="none" stroke="rgb(229, 0, 16)" stroke-width="0.75" stroke-opacity="1.00" stroke-linejoin="round"/>
<path d="M114.87,170.84 C114.87,170.84 114.87,170.77 114.87,170.77 C114.76,170.61 114.19,170.46 113.69,170.59 C113.36,170.67 110.77,172.67 107.93,174.09 C105.24,175.42 91.01,181.14 88.89,182.23 C84.12,184.58 75.81,188.79 75.61,190.08 C75.55,190.60 76.74,193.45 78.05,195.02 C79.13,196.30 80.89,196.75 81.64,196.66 C82.70,196.48 101.84,187.72 102.89,187.38 C102.89,187.38 102.69,187.57 102.69,187.57" fill="none" stroke="rgb(229, 0, 16)" stroke-width="0.75" stroke-opacity="1.00" stroke-linejoin="round"/>
<path d="M115.19,170.84 C115.19,170.84 114.72,170.84 114.72,170.84 C118.21,170.00 130.96,183.00 132.16,184.45 C132.84,185.28 135.09,188.59 135.51,189.04 C132.73,189.44 121.17,194.33 120.60,193.97 C120.17,193.66 114.08,186.35 113.24,185.12 C113.20,185.05 113.17,185.04 113.16,185.07" fill="none" stroke="rgb(229, 0, 16)" stroke-width="0.75" stroke-opacity="1.00" stroke-linejoin="round"/>
<path d="M103.62,187.57 C103.54,187.57 103.47,187.57 103.39,187.57 C103.31,187.57 103.23,187.57 103.15,187.57 C103.45,189.34 103.43,190.89 103.00,191.67 C100.94,195.43 99.88,200.83 100.04,201.44 C100.66,201.82 103.92,201.72 108.16,200.80 C111.64,200.03 119.81,197.66 120.13,196.99 C120.23,196.75 119.73,195.16 119.13,193.50 C119.02,193.22 118.96,193.07 118.94,193.04" fill="none" stroke="rgb(229, 0, 16)" stroke-width="0.75" stroke-opacity="1.00" stroke-linejoin="round"/>
<path d="M128.47,191.47 C128.47,191.47 127.69,191.88 127.69,191.88 C127.69,191.88 129.27,195.98 129.27,195.98 C129.27,195.98 129.41,195.07 129.41,195.07" fill="none" stroke="rgb(229, 0, 16)" stroke-width="0.75" stroke-opacity="1.00" stroke-linejoin="round"/>
<path d="M135.03,190.53 C135.03,190.53 133.94,190.07 133.94,190.07 C133.94,190.07 136.85,193.66 136.85,193.66 C136.85,193.66 129.52,196.43 129.52,196.43 C129.52,196.43 129.56,196.47 129.56,196.47" fill="none" stroke="rgb(229, 0, 16)" stroke-width="0.75" stroke-opacity="1.00" stroke-linejoin="round"/>
<path d="M127.53,200.22 C127.38,200.22 127.22,200.22 127.06,200.22 C126.90,200.22 126.73,200.22 126.56,200.22 C126.21,200.19 126.11,203.79 126.95,204.16 C127.62,204.40 129.85,203.89 130.67,203.14 C131.47,202.38 132.37,200.25 132.37,200.29 C132.53,201.11 133.40,202.29 134.35,202.62 C136.28,203.22 138.60,200.01 138.78,199.62 C138.77,199.61 139.77,200.70 140.78,200.84 C142.89,201.08 143.76,198.52 143.57,198.06 C144.33,198.77 145.56,198.47 145.85,197.86 C146.07,197.36 145.87,196.44 145.51,196.16 C147.06,196.12 148.83,195.53 149.31,194.87 C149.77,194.20 149.54,192.79 148.84,192.33 C147.81,191.71 143.03,190.91 142.31,191.01 C142.31,191.01 142.38,191.00 142.38,191.00" fill="none" stroke="rgb(229, 0, 16)" stroke-width="0.75" stroke-opacity="1.00" stroke-linejoin="round"/>
<path d="M120.19,197.57 C120.19,197.57 119.88,198.04 119.88,198.04 C119.95,197.99 120.01,197.95 120.04,197.92 C120.08,197.90 120.14,197.85 120.22,197.77 C120.22,197.77 120.39,197.76 120.39,197.76 C121.10,198.39 122.03,199.69 123.99,202.79 C125.09,204.58 126.69,209.87 126.74,210.01 C126.74,210.01 116.28,214.12 116.28,214.12 C116.28,214.12 113.94,203.52 113.94,203.52 C113.94,203.52 114.09,203.97 114.09,203.97" fill="none" stroke="rgb(229, 0, 16)" stroke-width="0.75" stroke-opacity="1.00" stroke-linejoin="round"/>
<path d="M115.50,207.57 C115.19,207.64 114.97,208.19 115.05,209.02 C115.35,212.14 115.34,217.69 115.19,217.82 C115.19,217.82 100.54,218.36 100.54,218.36 C100.54,218.36 99.72,202.00 99.72,202.00 C99.72,202.00 100.18,202.41 100.18,202.41" fill="none" stroke="rgb(229, 0, 16)" stroke-width="0.75" stroke-opacity="1.00" stroke-linejoin="round"/>
<path d="M109.56,218.66 C109.56,218.66 109.09,219.13 109.09,219.13 C109.06,219.08 105.62,220.64 104.48,220.85 C103.67,221.00 103.10,221.37 103.22,221.94 C103.42,222.65 104.93,223.94 106.25,223.96 C106.97,223.96 112.61,222.60 112.71,222.45 C113.00,221.86 112.93,218.94 112.69,218.33 C112.65,218.24 112.60,218.09 112.53,217.88" fill="none" stroke="rgb(229, 0, 16)" stroke-width="0.75" stroke-opacity="1.00" stroke-linejoin="round"/>
<path d="M121.75,212.57 C121.75,212.57 121.36,212.57 121.36,212.57 C121.54,213.09 122.25,214.33 123.52,217.92 C123.80,218.65 125.21,219.16 126.27,218.97 C127.53,218.73 129.38,217.55 129.72,216.77 C130.07,215.83 129.53,214.50 129.08,214.06 C127.95,213.95 124.83,214.63 124.80,214.64 C124.72,214.67 124.69,214.71 124.72,214.76" fill="none" stroke="rgb(229, 0, 16)" stroke-width="0.75" stroke-opacity="1.00" stroke-linejoin="round"/>
<path d="M130.03,213.82 C129.95,213.79 129.87,213.79 129.80,213.82 C129.72,213.85 129.55,213.94 129.28,214.10 C129.64,214.40 131.00,213.82 131.29,213.18 C131.84,211.83 126.38,211.29 124.99,211.54 C124.84,211.57 124.59,211.65 124.25,211.79" fill="none" stroke="rgb(229, 0, 16)" stroke-width="0.75" stroke-opacity="1.00" stroke-linejoin="round"/>
<path d="M126.13,214.13 C125.80,214.30 125.50,214.56 125.37,214.60 C124.95,214.74 124.61,214.99 123.41,216.03 C123.41,216.03 123.47,216.01 123.47,216.01" fill="none" stroke="rgb(229, 0, 16)" stroke-width="0.75" stroke-opacity="1.00" stroke-linejoin="round"/>
<path d="M76.28,192.10 C75.74,192.57 75.03,192.34 74.99,192.33 C74.48,192.17 72.21,192.46 70.70,193.14 C67.96,194.40 66.55,195.41 66.52,196.64 C66.51,197.42 66.83,198.29 67.07,198.44 C67.31,198.49 67.96,198.20 69.75,197.22 C70.20,196.97 70.66,196.72 71.12,196.47" fill="none" stroke="rgb(229, 0, 16)" stroke-width="0.75" stroke-opacity="1.00" stroke-linejoin="round"/>
<path d="M69.24,193.66 C69.24,193.66 68.85,193.86 68.85,193.86 C68.85,193.86 68.81,194.03 68.81,194.03 C68.81,194.03 70.96,196.57 70.96,196.57 C70.96,196.57 70.96,196.50 70.96,196.50" fill="none" stroke="rgb(229, 0, 16)" stroke-width="0.75" stroke-opacity="1.00" stroke-linejoin="round"/>
<path d="M70.49,196.16 C70.43,196.15 70.38,196.15 70.34,196.16 C70.30,196.17 70.22,196.19 70.10,196.24 C70.10,196.24 70.07,196.32 70.07,196.32 C71.97,196.57 75.92,196.78 76.99,196.41 C77.81,196.10 78.74,194.44 78.36,193.85 C78.28,193.72 78.06,193.50 77.68,193.19" fill="none" stroke="rgb(229, 0, 16)" stroke-width="0.75" stroke-opacity="1.00" stroke-linejoin="round"/>
<path d="M65.81,196.32 C65.67,196.32 65.40,196.31 65.32,196.28 C64.67,196.01 58.79,193.60 55.15,194.08 C53.86,194.25 52.77,194.75 52.06,195.35 C52.05,195.54 52.52,196.25 52.96,196.43 C53.14,196.50 53.62,196.68 54.40,196.94" fill="none" stroke="rgb(229, 0, 16)" stroke-width="0.75" stroke-opacity="1.00" stroke-linejoin="round"/>
<path d="M56.43,196.63 C56.43,196.63 55.65,196.94 55.65,196.94 C55.65,196.94 55.65,196.94 55.65,196.94 C54.72,196.93 51.25,197.79 50.70,198.59 C50.07,199.57 50.21,200.91 50.76,201.25 C51.20,201.50 52.53,201.59 53.15,201.63" fill="none" stroke="rgb(229, 0, 16)" stroke-width="0.75" stroke-opacity="1.00" stroke-linejoin="round"/>
<path d="M55.49,199.44 C55.05,199.77 54.53,200.00 54.30,200.18 C53.40,200.97 52.29,203.08 52.72,204.07 C52.97,204.50 54.80,204.43 58.09,202.70 C58.49,202.48 58.88,202.28 59.24,202.10" fill="none" stroke="rgb(229, 0, 16)" stroke-width="0.75" stroke-opacity="1.00" stroke-linejoin="round"/>
<path d="M60.18,202.72 C60.18,202.72 60.02,202.88 60.02,202.88 C59.96,202.90 59.20,204.34 59.91,205.14 C60.22,205.46 61.87,205.73 63.24,205.17 C64.88,204.46 67.03,201.08 67.24,199.08 C67.26,198.85 67.25,198.50 67.21,198.04" fill="none" stroke="rgb(229, 0, 16)" stroke-width="0.75" stroke-opacity="1.00" stroke-linejoin="round"/>
<path d="M60.02,202.72 C60.02,202.72 60.02,202.80 60.02,202.80 C60.02,202.80 59.94,202.88 59.94,202.88 C59.94,202.88 59.87,202.88 59.87,202.88 C60.09,202.51 59.65,201.74 59.18,201.87 C59.14,201.88 59.06,201.90 58.93,201.94" fill="none" stroke="rgb(229, 0, 16)" stroke-width="0.75" stroke-opacity="1.00" stroke-linejoin="round"/>
</g>
</svg>
