<?xml version="1.0" encoding="UTF-8" standalone="no"?>
<!DOCTYPE svg PUBLIC "-//W3C//DTD SVG 1.1//EN" "http://www.w3.org/Graphics/SVG/1.1/DTD/svg11.dtd">
<svg width="128.40" height="181.68" viewBox="0.00 0.00 535.00 757.00" xmlns="http://www.w3.org/2000/svg" xmlns:xlink="http://www.w3.org/1999/xlink">
<g stroke-linecap="round" transform="translate(44.00, 155.00)" id="104-비">
<path d="M246.84,43.64 C246.37,43.57 246.01,43.64 245.77,43.84 C245.10,44.45 240.17,53.41 239.17,55.78 C238.37,57.67 232.03,75.30 229.69,81.07 C226.66,88.33 224.23,96.55 223.55,101.97 C223.23,104.59 222.24,120.65 222.35,126.76 C222.55,135.63 224.75,146.72 227.15,152.97 C227.86,154.82 231.54,163.33 233.11,166.91 C234.43,169.89 236.07,173.62 236.40,174.36" fill="none" stroke="rgb(254, 240, 0)" stroke-width="2.37" stroke-opacity="1.00" stroke-linejoin="round"/>
<path d="M328.84,36.67 C327.75,37.24 326.73,38.35 326.06,39.88 C325.88,40.31 320.02,58.14 317.88,63.97 C316.57,67.39 308.32,86.89 307.41,89.24 C306.45,91.72 300.30,110.37 297.50,118.50 C294.30,127.65 293.46,131.19 291.16,142.92 C289.22,152.62 287.84,164.14 287.68,169.65 C287.54,175.28 289.49,187.17 291.16,190.85 C291.94,192.58 294.84,198.41 295.58,199.89" fill="none" stroke="rgb(254, 240, 0)" stroke-width="2.37" stroke-opacity="1.00" stroke-linejoin="round"/>
<path d="M379.50,52.53 C379.57,53.73 379.02,55.39 377.20,58.88 C372.21,68.40 367.53,78.87 364.69,85.27 C360.21,95.11 356.07,105.74 354.29,112.35 C352.72,118.24 351.04,128.89 350.32,136.49 C349.59,145.15 349.39,151.40 349.42,163.71 C349.55,174.33 350.27,181.30 351.61,191.76 C352.08,195.36 353.51,202.27 354.31,205.29 C355.35,209.16 357.10,213.09 359.00,216.90" fill="none" stroke="rgb(254, 240, 0)" stroke-width="2.37" stroke-opacity="1.00" stroke-linejoin="round"/>
<path d="M434.42,68.39 C434.42,68.39 434.81,67.04 434.81,67.04 C434.81,67.04 434.49,66.65 434.49,66.65 C434.10,66.65 431.65,68.24 422.49,86.91 C418.64,94.92 414.21,105.44 411.04,114.18 C408.88,120.30 406.00,132.02 405.39,137.75 C403.77,153.00 404.23,176.06 404.61,184.41 C405.22,195.35 405.94,202.26 406.19,204.53" fill="none" stroke="rgb(254, 240, 0)" stroke-width="2.37" stroke-opacity="1.00" stroke-linejoin="round"/>
<path d="M403.87,213.81 C403.87,213.81 403.09,214.20 403.09,214.20 C403.11,214.10 402.71,214.50 401.22,216.13 C379.06,240.17 350.54,266.30 345.09,272.55 C342.56,275.46 336.67,282.97 335.73,284.25 C334.29,286.23 331.15,290.97 330.00,292.71" fill="none" stroke="rgb(254, 240, 0)" stroke-width="2.37" stroke-opacity="1.00" stroke-linejoin="round"/>
<path d="M360.55,180.55 C360.55,180.55 360.68,179.97 360.68,179.97 C360.68,179.97 365.42,177.07 365.42,177.07 C366.38,177.28 360.28,190.26 357.31,194.42 C354.83,197.87 346.57,206.79 339.57,213.11 C333.86,218.16 322.55,227.81 320.82,229.58 C318.91,231.55 307.30,245.07 304.14,250.74 C298.64,260.73 294.94,267.07 291.08,273.45 C284.26,284.86 276.33,302.53 274.69,306.25" fill="none" stroke="rgb(254, 240, 0)" stroke-width="2.37" stroke-opacity="1.00" stroke-linejoin="round"/>
<path d="M303.70,190.22 C302.73,190.37 302.29,190.57 302.15,190.60 C301.99,190.67 292.38,203.77 288.42,208.99 C284.64,213.94 271.26,226.56 270.81,227.00 C266.27,231.61 256.35,241.52 250.97,246.82 C243.37,254.45 233.24,266.65 232.06,267.99 C228.62,271.92 216.42,283.75 213.61,287.06 C211.82,289.17 208.99,292.78 208.25,293.75" fill="none" stroke="rgb(254, 240, 0)" stroke-width="2.37" stroke-opacity="1.00" stroke-linejoin="round"/>
<path d="M209.71,194.09 C209.22,193.58 208.89,193.25 208.75,193.12 C208.60,192.98 208.43,192.85 208.22,192.71 C208.95,197.05 209.13,200.58 208.51,203.50 C207.44,208.30 202.92,218.42 200.94,221.30 C199.88,222.82 189.40,235.09 186.64,239.80 C182.83,246.47 173.96,259.09 173.03,260.52 C169.61,265.75 159.98,284.65 158.91,286.96 C157.84,289.28 154.06,301.75 153.63,303.15" fill="none" stroke="rgb(254, 240, 0)" stroke-width="2.37" stroke-opacity="1.00" stroke-linejoin="round"/>
<path d="M123.47,195.63 C123.47,195.63 122.69,195.83 122.69,195.83 C122.69,202.26 122.38,211.28 121.37,217.68 C120.28,223.77 118.58,233.68 117.42,244.57 C116.83,251.04 115.75,264.00 116.01,268.92 C116.36,275.17 118.71,288.67 120.12,293.64 C120.60,295.35 121.83,299.32 122.31,300.83" fill="none" stroke="rgb(254, 240, 0)" stroke-width="2.37" stroke-opacity="1.00" stroke-linejoin="round"/>
<path d="M151.31,65.29 C150.37,66.66 149.83,68.09 149.77,69.81 C149.83,78.78 148.60,89.07 147.03,100.16 C145.89,109.20 145.16,120.05 145.20,127.42 C145.26,135.38 147.07,148.83 149.12,155.30 C151.20,161.72 156.29,170.96 158.56,174.60" fill="none" stroke="rgb(254, 240, 0)" stroke-width="2.37" stroke-opacity="1.00" stroke-linejoin="round"/>
<path d="M228.67,16.95 C228.67,16.95 227.12,17.65 227.12,17.65 C227.78,19.56 227.83,21.70 226.78,23.84 C225.64,26.12 222.70,30.34 220.72,32.43 C219.12,34.10 188.12,58.53 175.46,68.65 C165.57,76.53 161.48,79.96 153.39,87.50 C148.38,92.19 143.02,99.17 137.70,107.84 C137.08,108.87 136.46,109.90 135.84,110.93" fill="none" stroke="rgb(254, 240, 0)" stroke-width="2.37" stroke-opacity="1.00" stroke-linejoin="round"/>
<path d="M316.85,12.31 C316.85,12.31 316.79,11.24 316.79,11.24 C314.97,12.81 301.64,23.46 297.86,27.03 C294.70,30.03 280.17,45.69 276.68,48.82 C265.92,58.35 249.91,72.81 245.03,77.64 C238.95,83.54 231.90,90.38 230.92,91.32" fill="none" stroke="rgb(254, 240, 0)" stroke-width="2.37" stroke-opacity="1.00" stroke-linejoin="round"/>
<path d="M380.28,24.68 C379.79,24.68 379.31,24.68 378.83,24.68 C378.66,24.68 378.50,24.68 378.34,24.68 C378.61,25.57 378.73,26.76 378.37,27.61 C377.00,30.73 369.52,36.71 361.30,42.65 C354.02,47.89 340.55,57.56 334.36,62.00 C328.78,65.96 316.60,73.70 310.20,77.80 C308.71,78.79 306.27,80.43 305.31,81.07" fill="none" stroke="rgb(254, 240, 0)" stroke-width="2.37" stroke-opacity="1.00" stroke-linejoin="round"/>
<path d="M431.33,40.93 C431.10,41.15 429.55,42.70 429.10,43.07 C420.32,50.34 399.51,60.57 397.03,62.38 C392.29,65.90 383.82,77.79 380.42,83.75 C378.40,87.33 376.26,92.60 376.66,94.72 C376.75,95.16 377.59,98.03 377.82,98.74 C378.45,100.56 379.29,102.98 379.50,103.58" fill="none" stroke="rgb(254, 240, 0)" stroke-width="2.37" stroke-opacity="1.00" stroke-linejoin="round"/>
<path d="M145.13,7.28 C145.13,7.28 142.75,7.86 142.75,7.86 C140.68,12.76 134.59,21.67 129.74,27.74 C123.73,35.27 118.03,43.11 114.83,46.96 C101.80,62.24 86.91,76.85 74.09,90.29 C69.64,94.94 61.63,103.21 58.80,107.04 C56.97,109.57 55.62,112.89 54.40,117.88 C54.12,119.16 53.65,121.30 53.46,122.15" fill="none" stroke="rgb(254, 240, 0)" stroke-width="2.37" stroke-opacity="1.00" stroke-linejoin="round"/>
<path d="M67.77,107.45 C67.77,107.45 66.32,107.06 66.32,107.06 C66.00,107.48 65.98,107.88 66.35,109.12 C67.60,113.34 74.39,142.44 77.15,159.15 C78.13,164.98 80.86,173.70 84.53,183.76 C86.63,189.60 90.24,199.79 91.75,204.14" fill="none" stroke="rgb(254, 240, 0)" stroke-width="2.37" stroke-opacity="1.00" stroke-linejoin="round"/>
<path d="M56.94,18.88 C57.46,20.15 57.84,20.82 58.33,21.01 C58.46,21.06 58.86,21.19 59.52,21.40 C59.33,21.78 51.75,32.63 49.24,37.27 C39.18,54.81 24.45,76.66 18.34,87.41 C12.97,97.15 8.54,105.92 5.16,113.58 C3.90,116.39 1.31,121.95 0.53,123.59" fill="none" stroke="rgb(254, 240, 0)" stroke-width="2.37" stroke-opacity="1.00" stroke-linejoin="round"/>
<path d="M-3.39,74.96 C-3.50,74.70 -3.88,74.14 -4.16,74.00 C-4.29,73.93 -4.55,73.89 -4.94,73.85 C-4.89,75.07 -1.33,87.69 -0.03,95.97 C1.82,108.03 3.01,114.73 5.10,122.00 C8.54,133.58 10.32,142.16 10.60,148.53 C10.68,150.53 10.75,160.76 10.78,161.91 C10.89,165.67 13.37,176.26 14.40,180.55" fill="none" stroke="rgb(254, 240, 0)" stroke-width="2.37" stroke-opacity="1.00" stroke-linejoin="round"/>
</g>
</svg>
