<?xml version="1.0" encoding="UTF-8" standalone="no"?>
<!DOCTYPE svg PUBLIC "-//W3C//DTD SVG 1.1//EN" "http://www.w3.org/Graphics/SVG/1.1/DTD/svg11.dtd">
<svg width="128.40" height="181.68" viewBox="0.00 0.00 535.00 757.00" xmlns="http://www.w3.org/2000/svg" xmlns:xlink="http://www.w3.org/1999/xlink">
<g stroke-linecap="round" transform="translate(44.00, 155.00)" id="104-버스정류장">
<path d="M115.99,284.17 C115.99,284.17 114.06,282.77 114.06,282.77 C114.03,282.81 115.49,291.61 115.62,292.27 C116.35,295.92 120.32,302.84 121.45,305.61 C123.46,310.55 130.06,337.57 130.26,338.55 C130.26,338.55 130.57,338.70 130.57,338.70 C130.57,338.70 130.78,338.33 130.78,338.33" fill="none" stroke="rgb(28, 31, 136)" stroke-width="2.37" stroke-opacity="1.00" stroke-linejoin="round"/>
<path d="M118.22,283.89 C117.26,284.53 116.65,284.95 116.40,285.15 C116.16,285.34 115.93,285.57 115.71,285.84 C125.73,285.83 135.23,286.76 135.98,286.79 C139.97,286.96 175.40,283.34 175.74,284.33 C175.74,284.33 175.10,298.12 175.10,298.12 C172.58,296.75 161.31,296.45 150.12,297.14 C132.98,297.90 121.74,297.53 120.19,296.77 C120.08,296.72 119.70,296.52 119.06,296.17" fill="none" stroke="rgb(28, 31, 136)" stroke-width="2.37" stroke-opacity="1.00" stroke-linejoin="round"/>
<path d="M176.01,287.80 C176.01,287.80 175.46,287.88 175.46,287.88 C174.84,288.25 175.43,295.22 175.52,296.10 C177.50,318.49 179.30,329.79 180.76,338.48 C180.76,338.38 180.76,338.29 180.76,338.19 C180.76,338.15 180.76,338.10 180.76,338.05" fill="none" stroke="rgb(28, 31, 136)" stroke-width="2.37" stroke-opacity="1.00" stroke-linejoin="round"/>
<path d="M167.08,319.07 C166.94,319.07 166.80,319.07 166.66,319.07 C166.52,319.07 166.38,319.07 166.24,319.07 C166.24,319.07 166.24,318.84 166.24,318.84 C165.65,318.31 161.63,317.84 158.29,318.28 C146.88,320.06 129.67,321.02 128.26,321.02 C128.01,320.83 127.84,320.69 127.76,320.60 C127.68,320.52 127.57,320.38 127.43,320.19" fill="none" stroke="rgb(28, 31, 136)" stroke-width="2.37" stroke-opacity="1.00" stroke-linejoin="round"/>
</g>
</svg>
