<?xml version="1.0" encoding="UTF-8" standalone="no"?>
<!DOCTYPE svg PUBLIC "-//W3C//DTD SVG 1.1//EN" "http://www.w3.org/Graphics/SVG/1.1/DTD/svg11.dtd">
<svg width="128.40" height="181.68" viewBox="0.00 0.00 535.00 757.00" xmlns="http://www.w3.org/2000/svg" xmlns:xlink="http://www.w3.org/1999/xlink">
<g stroke-linecap="round" transform="translate(44.00, 155.00)" id="104-집-2">
<path d="M365.58,231.60 C365.58,231.41 365.58,231.21 365.58,231.02 C365.58,230.58 365.58,230.14 365.58,229.70 C365.58,229.70 356.30,239.72 356.30,239.72 C356.75,240.06 430.87,241.24 434.30,241.62 C436.85,241.91 461.99,245.95 463.02,245.80 C463.02,245.80 451.92,232.35 451.92,232.35 C451.57,232.22 414.22,230.52 401.77,229.67 C381.84,228.15 366.02,228.03 363.90,228.48 C363.45,228.58 362.59,228.85 361.32,229.28" fill="none" stroke="rgb(255, 0, 255)" stroke-width="2.37" stroke-opacity="1.00" stroke-linejoin="round"/>
<path d="M369.45,242.82 C369.25,242.56 369.06,242.30 368.87,242.04 C368.78,241.93 368.68,241.80 368.56,241.66 C368.29,248.24 367.64,263.28 367.47,265.04 C367.26,267.22 366.42,280.51 367.07,289.41 C367.59,297.03 366.80,323.99 366.91,324.85 C366.97,325.31 367.17,326.46 367.51,328.29" fill="none" stroke="rgb(255, 0, 255)" stroke-width="2.37" stroke-opacity="1.00" stroke-linejoin="round"/>
<path d="M439.06,246.69 C439.06,246.69 440.22,243.24 440.22,243.24 C440.24,244.20 434.42,266.96 434.21,267.69 C432.29,274.12 425.66,289.07 424.15,293.68 C422.87,297.69 419.82,311.86 419.35,317.82 C418.82,325.18 418.21,333.38 418.09,334.41 C417.99,335.21 417.89,336.00 417.79,336.80" fill="none" stroke="rgb(255, 0, 255)" stroke-width="2.37" stroke-opacity="1.00" stroke-linejoin="round"/>
<path d="M431.71,310.11 C430.47,310.13 429.72,310.13 429.48,310.11 C429.04,310.09 423.75,308.37 418.87,308.01 C416.44,307.84 410.45,307.82 407.39,307.51 C397.58,306.43 388.61,304.94 378.35,302.55 C372.81,301.13 369.07,299.79 368.05,299.20 C367.58,298.93 367.02,298.44 366.35,297.74" fill="none" stroke="rgb(255, 0, 255)" stroke-width="2.37" stroke-opacity="1.00" stroke-linejoin="round"/>
<path d="M434.42,272.98 C434.28,273.02 434.15,273.02 434.04,272.98 C433.75,272.91 431.24,271.95 430.65,271.86 C429.74,271.72 409.92,269.90 405.44,269.00 C400.92,268.10 383.13,267.14 377.09,265.51 C375.80,265.13 372.55,264.03 371.81,263.50 C371.38,263.18 370.72,262.48 369.83,261.38" fill="none" stroke="rgb(255, 0, 255)" stroke-width="2.37" stroke-opacity="1.00" stroke-linejoin="round"/>
<path d="M385.69,252.49 C385.69,252.49 384.53,251.71 384.53,251.71 C384.53,251.71 383.04,260.00 383.04,260.00 C383.04,260.00 397.87,255.32 397.87,255.32 C397.84,254.59 396.94,252.13 396.13,251.33 C395.44,250.67 392.82,250.34 391.29,250.42 C389.70,250.56 386.71,250.82 385.30,250.94" fill="none" stroke="rgb(255, 0, 255)" stroke-width="2.37" stroke-opacity="1.00" stroke-linejoin="round"/>
<path d="M411.60,250.94 C411.07,250.63 410.75,250.44 410.64,250.36 C410.52,250.28 410.46,250.22 410.44,250.17 C411.58,250.46 412.26,252.06 413.16,255.54 C413.49,256.90 414.05,259.38 414.19,259.90 C414.84,262.17 415.86,264.17 416.84,264.42 C417.98,264.67 426.74,263.09 428.24,262.11 C428.89,260.70 428.35,255.30 427.95,254.14 C427.49,252.95 426.31,251.95 424.91,251.66 C424.17,251.52 423.17,251.40 421.90,251.30 C421.02,251.24 416.73,251.01 415.47,250.94" fill="none" stroke="rgb(255, 0, 255)" stroke-width="2.37" stroke-opacity="1.00" stroke-linejoin="round"/>
<path d="M385.69,276.85 C385.69,276.85 384.53,277.42 384.53,277.42 C384.53,277.42 385.28,276.89 385.28,276.89 C385.28,276.89 373.84,276.90 373.84,276.90 C373.12,277.48 372.53,281.35 372.18,285.60 C371.84,290.01 371.76,294.32 372.07,294.71 C372.07,294.71 387.77,292.32 387.77,292.32 C387.12,284.35 386.27,278.17 386.14,277.43 C386.11,277.26 386.09,277.20 386.08,277.24" fill="none" stroke="rgb(255, 0, 255)" stroke-width="2.37" stroke-opacity="1.00" stroke-linejoin="round"/>
<path d="M410.83,283.04 C410.87,282.75 410.87,282.52 410.83,282.33 C410.79,282.15 410.66,281.76 410.44,281.16 C411.11,281.88 411.32,282.90 411.19,285.62 C410.68,297.12 410.86,301.99 410.90,302.69 C411.05,302.72 413.07,300.97 416.74,299.99 C420.70,298.96 423.91,298.44 423.95,298.39 C423.95,298.39 420.89,281.20 420.89,281.20 C420.89,281.20 411.04,280.73 411.04,280.73 C411.04,280.73 411.85,280.39 411.85,280.39" fill="none" stroke="rgb(255, 0, 255)" stroke-width="2.37" stroke-opacity="1.00" stroke-linejoin="round"/>
<path d="M411.22,317.85 C411.22,317.85 413.15,314.75 413.15,314.75 C413.15,314.75 403.54,316.69 403.54,316.69 C403.54,316.69 405.44,330.76 405.44,330.76 C405.44,330.76 418.64,327.15 418.64,327.15 C418.64,327.15 415.47,314.58 415.47,314.58 C415.47,314.58 415.47,315.92 415.47,315.92" fill="none" stroke="rgb(255, 0, 255)" stroke-width="2.37" stroke-opacity="1.00" stroke-linejoin="round"/>
<path d="M397.68,329.45 C397.68,329.45 397.68,329.65 397.68,329.65 C397.68,329.65 397.29,330.14 397.29,330.14 C397.29,330.14 401.55,315.05 401.55,315.05 C401.50,314.25 400.71,312.64 396.54,311.49 C394.05,310.82 392.15,311.02 391.29,311.37 C390.51,313.73 390.55,318.94 390.72,321.84 C391.00,325.99 391.75,333.94 392.03,334.91 C392.12,335.23 392.33,335.61 392.65,336.03" fill="none" stroke="rgb(255, 0, 255)" stroke-width="2.37" stroke-opacity="1.00" stroke-linejoin="round"/>
<path d="M385.69,312.43 C385.69,312.43 382.84,313.59 382.84,313.59 C382.53,313.42 380.44,311.25 378.45,310.77 C377.36,310.54 374.75,310.63 374.04,311.03 C373.24,311.54 372.78,313.40 372.56,316.31 C372.48,317.63 372.28,321.12 372.31,322.93 C372.31,322.93 373.29,323.83 373.29,323.83 C373.29,323.83 390.54,323.04 390.54,323.04 C390.07,322.25 387.03,317.00 385.07,312.65 C384.87,312.21 384.56,311.49 384.14,310.50" fill="none" stroke="rgb(255, 0, 255)" stroke-width="2.37" stroke-opacity="1.00" stroke-linejoin="round"/>
</g>
</svg>
