<?xml version="1.0" encoding="UTF-8" standalone="no"?>
<!DOCTYPE svg PUBLIC "-//W3C//DTD SVG 1.1//EN" "http://www.w3.org/Graphics/SVG/1.1/DTD/svg11.dtd">
<svg width="128.40" height="181.68" viewBox="0.00 0.00 535.00 757.00" xmlns="http://www.w3.org/2000/svg" xmlns:xlink="http://www.w3.org/1999/xlink">
<g stroke-linecap="round" transform="translate(44.00, 155.00)" id="104-나무">
<path d="M-6.66,227.09 C-6.66,227.09 -6.66,227.71 -6.66,227.71 C-5.70,224.94 -3.66,219.24 -2.60,216.30 C-1.81,214.13 1.21,205.04 1.76,202.28 C2.47,198.53 1.81,192.63 0.37,189.72 C-0.96,187.11 -4.74,182.36 -7.04,180.19 C-8.05,179.26 -10.57,177.54 -11.79,177.02 C-13.21,176.43 -21.91,176.24 -23.23,176.33 C-25.72,176.54 -27.83,178.51 -29.20,181.09 C-32.17,186.24 -37.09,195.09 -38.55,200.44 C-39.52,204.01 -40.27,208.83 -40.40,210.96 C-40.50,213.03 -39.31,218.83 -37.69,221.66 C-36.14,224.29 -31.83,228.28 -29.95,229.47 C-27.99,230.67 -23.92,231.81 -21.38,232.04 C-19.15,232.20 -13.85,231.28 -12.06,229.95 C-11.01,229.12 -10.06,227.23 -10.00,225.83 C-9.98,224.12 -11.81,216.67 -12.40,214.75 C-12.92,213.08 -15.17,206.87 -16.14,205.09 C-17.48,202.70 -22.05,197.68 -24.28,197.11 C-25.81,196.77 -28.21,197.88 -29.59,199.40 C-30.65,200.64 -32.37,206.21 -32.49,209.40 C-32.57,213.01 -31.20,218.92 -30.16,221.30 C-28.99,223.79 -25.56,227.98 -22.98,228.88 C-20.56,229.64 -15.71,227.98 -14.25,226.35 C-12.88,224.73 -10.55,221.16 -7.70,216.37" fill="none" stroke="rgb(229, 0, 16)" stroke-width="2.37" stroke-opacity="1.00" stroke-linejoin="round"/>
<path d="M-0.09,192.17 C-3.11,191.09 -8.10,189.51 -9.62,189.17 C-10.98,188.88 -17.03,188.99 -18.72,189.47 C-21.13,190.19 -24.97,192.96 -26.53,195.11 C-27.71,196.78 -30.53,203.08 -31.09,205.42 C-31.72,208.12 -31.79,214.52 -30.90,217.29 C-30.32,219.02 -28.60,221.69 -27.04,223.57 C-26.42,224.27 -23.92,226.01 -22.90,226.46 C-21.46,227.05 -17.86,227.22 -16.23,226.75 C-13.54,225.93 -8.81,222.57 -7.48,221.37 C-5.83,219.87 -3.13,216.82 -1.73,214.86 C-0.14,212.56 1.97,207.36 2.38,203.23 C2.45,202.55 3.64,180.27 3.05,178.52 C1.73,177.63 0.60,177.44 -1.25,178.00 C-4.09,178.86 -11.74,181.80 -13.83,182.90 C-16.76,184.45 -20.66,187.53 -21.69,188.70 C-23.10,190.34 -25.31,195.04 -26.06,198.04 C-27.15,202.56 -26.82,214.49 -25.41,219.40 C-24.47,222.56 -21.91,227.38 -20.44,228.90 C-19.48,229.87 -17.84,230.61 -15.65,231.24" fill="none" stroke="rgb(229, 0, 16)" stroke-width="2.37" stroke-opacity="1.00" stroke-linejoin="round"/>
<path d="M-11.85,201.85 C-13.13,201.81 -15.25,202.65 -16.00,204.45 C-16.90,206.76 -17.07,224.76 -16.60,230.06 C-18.28,227.24 -19.69,222.93 -20.18,220.11 C-20.67,217.22 -21.02,209.57 -20.70,206.36 C-20.43,203.84 -18.97,198.14 -17.45,195.76 C-16.63,194.52 -14.27,192.47 -12.93,191.76 C-10.37,190.50 -3.22,190.11 0.06,191.01 C2.86,191.80 7.22,194.44 8.80,196.65 C9.70,197.95 10.74,201.07 10.91,202.80 C11.15,205.83 9.66,212.27 8.35,215.08 C7.18,217.50 3.95,221.93 2.77,222.87 C1.20,224.04 -1.42,225.10 -3.22,225.14 C-5.06,225.14 -8.20,224.10 -9.52,223.03 C-10.68,222.03 -12.42,219.16 -12.90,217.61 C-13.66,214.84 -12.43,209.55 -10.36,205.90 C-9.32,204.10 -6.20,200.11 -4.75,198.67 C-2.72,196.71 1.58,194.64 3.60,194.98 C4.67,195.20 6.46,196.33 7.24,197.28 C8.76,199.22 9.75,204.76 9.02,207.53 C8.28,210.15 4.77,214.50 3.09,215.53 C0.44,217.12 -4.27,218.52 -4.74,218.45 C-5.05,218.40 -5.54,218.11 -6.21,217.60" fill="none" stroke="rgb(229, 0, 16)" stroke-width="2.37" stroke-opacity="1.00" stroke-linejoin="round"/>
<path d="M-7.35,214.99 C-8.68,214.85 -10.82,214.53 -11.59,214.21 C-12.84,213.68 -14.20,211.46 -14.80,209.34 C-15.22,207.74 -15.19,202.62 -14.67,200.15 C-13.42,194.53 -6.62,182.40 -3.26,178.55 C0.05,174.83 6.90,169.19 10.39,167.40 C12.32,166.42 16.53,164.96 18.09,164.72 C20.31,164.43 23.88,164.51 25.67,165.05 C28.79,166.02 32.89,169.21 34.06,170.62 C35.40,172.29 37.46,176.35 38.14,178.66 C39.41,183.16 39.36,193.50 38.33,198.75 C37.94,200.74 36.32,206.59 35.20,209.20 C33.73,212.50 29.08,217.38 25.35,219.60 C20.60,222.36 12.25,225.69 8.14,226.52 C7.11,226.71 4.24,226.89 2.96,226.77 C1.39,226.61 -1.37,225.39 -2.57,224.35 C-5.03,222.09 -7.08,215.57 -7.11,212.62 C-7.09,210.01 -6.44,205.88 -5.64,203.63 C-4.10,199.35 1.71,190.89 6.13,186.30 C10.86,181.41 19.26,175.27 23.67,173.43 C25.53,172.67 30.37,171.66 32.67,172.36 C33.93,172.78 35.82,175.00 36.29,176.51 C37.04,179.12 36.86,184.58 36.56,186.42 C36.18,188.60 35.01,192.58 34.04,194.93 C32.86,197.69 29.11,202.78 25.61,205.35 C22.61,207.51 15.18,211.10 12.36,211.71 C10.81,212.02 8.14,211.93 7.20,211.50 C6.28,211.03 5.07,209.23 4.74,207.90 C4.18,205.42 4.89,199.29 5.55,196.81 C6.24,194.36 8.19,190.06 9.67,187.82 C11.24,185.50 14.55,182.30 16.30,181.20 C18.12,180.08 21.97,179.22 23.99,179.47 C25.94,179.74 29.70,181.41 31.40,182.75 C33.32,184.34 37.04,189.13 37.47,192.35 C37.66,194.05 36.97,197.71 36.16,199.37 C34.57,202.50 28.90,207.22 25.32,208.90 C23.75,209.61 21.40,210.40 19.68,210.81 C18.30,211.09 15.47,210.68 14.34,209.92 C13.28,209.15 12.70,207.04 13.21,205.91 C13.34,205.65 13.86,204.64 14.77,202.89" fill="none" stroke="rgb(229, 0, 16)" stroke-width="2.37" stroke-opacity="1.00" stroke-linejoin="round"/>
<path d="M23.07,203.24 C23.07,203.24 17.40,206.49 17.40,206.49 C16.28,205.35 16.30,200.79 16.92,198.15 C17.57,195.54 20.32,190.17 22.49,187.38 C24.08,185.38 28.99,181.06 31.97,179.25 C34.28,177.88 40.27,176.07 42.64,176.37 C44.01,176.57 46.45,177.83 47.26,178.78 C48.83,180.71 49.32,186.77 48.31,189.70 C47.35,192.35 43.31,197.82 40.77,200.10 C38.18,202.39 32.58,205.51 30.09,205.97 C28.82,206.18 26.52,205.96 25.60,205.52 C24.70,205.04 23.31,203.36 22.87,202.21 C21.94,199.57 22.55,193.26 23.46,190.73 C25.03,186.61 30.91,178.66 34.78,175.36 C38.62,172.14 47.05,168.04 51.57,167.11 C53.92,166.66 59.59,166.89 61.07,167.55 C62.69,168.34 64.65,170.14 65.25,171.57 C66.18,173.95 65.15,179.62 64.18,182.15 C62.54,186.30 56.91,194.96 54.07,198.16 C49.79,202.95 40.34,210.99 34.88,214.41 C31.37,216.57 29.29,217.05 26.79,217.29 C26.79,217.29 25.65,213.35 25.65,213.35" fill="none" stroke="rgb(229, 0, 16)" stroke-width="2.37" stroke-opacity="1.00" stroke-linejoin="round"/>
<path d="M44.85,199.78 C44.85,199.78 42.43,200.47 42.43,200.47 C42.32,198.86 44.52,192.79 45.22,189.98 C45.97,186.91 46.73,180.60 46.70,177.52 C46.65,174.89 45.76,168.85 44.49,165.17 C43.65,162.84 40.33,158.48 37.70,157.73 C35.17,157.12 29.15,159.21 26.40,160.87 C21.88,163.67 12.58,171.96 9.41,176.09 C8.12,177.81 6.04,182.08 6.45,184.64 C6.88,187.16 12.55,196.78 13.28,198.01" fill="none" stroke="rgb(229, 0, 16)" stroke-width="2.37" stroke-opacity="1.00" stroke-linejoin="round"/>
<path d="M42.43,209.11 C40.99,208.69 38.32,207.49 37.50,206.61 C36.61,205.60 37.03,202.58 38.06,200.43 C40.36,195.93 48.43,186.99 51.99,184.22 C56.50,180.74 65.03,176.55 69.32,175.65 C70.39,175.45 73.10,175.34 74.36,175.52 C75.76,175.76 77.99,177.17 78.67,178.27 C79.86,180.35 79.76,186.41 79.25,189.18 C78.31,194.00 74.23,204.67 71.33,209.08 C68.32,213.59 60.08,221.23 54.33,225.19 C49.14,228.73 37.78,234.99 33.79,236.63 C29.45,238.38 25.05,239.29 23.47,238.64 C23.00,236.26 23.14,234.56 24.09,232.51 C25.51,229.45 32.07,218.28 37.72,210.07 C43.35,202.05 50.42,193.66 54.60,189.59 C58.66,185.67 65.36,181.13 67.52,180.42 C68.74,180.04 70.86,180.35 71.61,180.97 C72.36,181.65 73.22,184.02 73.23,185.55 C73.20,188.38 71.49,193.80 70.63,195.76 C68.46,200.65 61.52,210.72 57.47,214.60 C55.31,216.64 51.17,219.54 48.51,220.86 C46.54,221.82 41.75,223.24 39.14,222.97 C37.76,222.80 35.47,221.39 34.76,220.33 C33.61,218.49 33.14,210.96 33.75,207.75 C34.31,204.95 36.35,200.15 37.99,198.19 C38.93,197.11 41.42,195.27 42.69,194.71 C44.09,194.11 46.41,193.71 49.15,193.45" fill="none" stroke="rgb(229, 0, 16)" stroke-width="2.37" stroke-opacity="1.00" stroke-linejoin="round"/>
<path d="M45.54,174.89 C45.54,174.89 45.71,174.20 45.71,174.20 C45.71,174.20 46.84,173.33 46.84,173.33 C50.76,173.85 55.85,176.22 58.08,178.02 C59.37,179.09 61.43,181.51 62.15,182.86 C63.46,185.44 63.74,191.48 63.37,194.16 C62.63,199.08 57.51,210.03 53.58,215.80 C51.93,218.20 48.37,222.88 46.69,224.87 C45.01,226.86 42.75,229.15 40.52,231.27" fill="none" stroke="rgb(229, 0, 16)" stroke-width="2.37" stroke-opacity="1.00" stroke-linejoin="round"/>
<path d="M60.75,203.58 C60.48,199.67 60.94,195.80 62.27,194.03 C63.63,192.29 68.41,189.74 71.32,189.06 C72.84,188.73 75.52,188.54 76.68,188.72 C77.90,188.94 79.96,190.10 80.87,191.11 C82.68,193.20 84.36,198.70 84.61,201.33 C84.98,205.90 82.90,215.65 80.75,219.83 C79.56,222.07 75.99,226.94 73.48,228.81 C70.86,230.72 63.72,233.49 59.94,234.26 C56.21,234.98 50.23,235.17 47.45,234.65 C46.23,234.39 44.73,232.87 44.19,231.41 C43.81,230.28 45.67,224.38 47.38,221.64 C49.15,218.90 53.60,214.91 56.80,213.20 C58.16,212.48 63.26,210.51 64.21,210.15" fill="none" stroke="rgb(229, 0, 16)" stroke-width="2.37" stroke-opacity="1.00" stroke-linejoin="round"/>
<path d="M78.38,208.77 C75.30,210.23 72.04,211.27 69.31,211.62 C65.74,212.02 63.12,211.82 61.72,211.43 C61.08,210.36 61.33,208.78 62.60,206.97 C63.61,205.56 68.43,202.54 71.32,201.71 C72.85,201.30 76.38,200.84 78.01,200.89 C81.49,201.03 87.02,203.75 88.58,205.28 C89.92,206.68 91.79,210.58 91.82,211.95 C91.81,213.85 90.93,216.80 89.78,218.33 C87.98,220.62 80.52,225.20 76.98,226.56 C73.42,227.91 67.40,228.81 65.65,228.70 C63.58,228.53 60.93,227.79 59.77,226.92 C58.70,226.06 57.34,223.57 57.21,222.13 C57.02,219.48 58.84,214.53 59.79,212.84 C60.96,210.77 64.09,206.79 65.91,205.05 C67.79,203.30 71.88,200.58 74.10,199.58 C76.31,198.61 80.92,197.47 83.14,197.34 C85.00,197.24 90.39,198.07 92.83,199.70 C94.19,200.64 96.26,203.67 96.82,205.41 C97.74,208.45 96.96,214.51 96.16,217.06 C95.53,218.99 93.52,223.49 92.70,224.87 C90.37,228.73 85.50,233.23 82.04,234.72 C78.16,236.32 71.89,236.58 69.47,235.78 C68.31,235.31 66.16,233.85 65.39,232.72 C63.88,230.45 63.65,224.38 64.02,222.17 C64.48,219.48 66.44,213.95 67.90,211.33 C69.39,208.71 72.97,204.30 74.87,202.79 C76.74,201.34 80.81,199.61 82.98,199.31 C85.17,199.03 89.11,199.49 91.43,200.36 C93.50,201.17 96.57,203.53 97.85,205.35 C99.13,207.22 100.75,211.80 101.08,214.52 C101.39,217.42 100.95,223.25 100.23,226.57 C98.95,232.33 93.26,244.67 90.27,248.08 C87.50,251.17 79.95,255.14 75.64,255.94 C73.37,256.34 69.03,256.36 67.43,255.98 C65.26,255.41 62.21,253.98 60.77,252.70 C58.04,250.19 55.44,243.63 55.20,241.37 C55.03,239.24 55.18,236.97 55.70,236.01 C56.19,235.14 58.01,234.07 59.42,233.73 C61.89,233.18 67.99,233.22 70.14,233.46 C72.87,233.81 77.30,235.52 79.10,236.92 C80.02,237.68 81.46,239.43 82.04,240.60 C82.62,241.84 82.73,244.35 82.30,245.47 C81.43,247.50 77.16,250.07 74.63,251.02 C69.35,252.92 58.81,254.69 54.51,253.93 C52.45,253.53 48.71,251.48 47.31,249.97 C45.93,248.43 44.25,244.58 43.80,242.08 C43.40,239.66 43.66,235.84 44.19,233.38 C44.45,232.38 45.72,230.15 46.64,229.34 C48.60,227.69 55.29,227.99 58.54,228.84 C63.78,230.28 72.08,234.93 75.04,238.17 C75.78,239.01 77.21,241.47 77.54,242.65 C77.87,243.90 77.24,246.41 76.41,247.55 C74.84,249.58 68.58,253.21 64.83,254.53 C61.02,255.84 54.19,256.64 51.40,256.04 C50.12,255.74 48.31,254.79 47.34,253.97 C46.54,253.22 46.53,251.16 47.27,249.73 C48.76,247.07 59.75,244.96 61.98,245.27 C63.17,245.47 65.05,246.48 65.70,247.31 C67.15,249.34 66.91,255.96 65.87,258.34 C64.87,260.49 62.71,263.62 61.22,265.07 C59.77,266.46 56.27,268.85 54.33,269.80 C52.62,270.63 48.14,272.12 44.48,272.32 C42.58,272.40 37.10,270.28 35.49,267.68 C34.01,265.20 33.37,259.87 33.49,258.08 C33.67,255.82 34.95,251.66 36.10,249.90 C37.06,248.47 40.80,245.06 43.90,244.12 C47.45,243.10 54.38,244.55 57.03,245.94 C59.29,247.22 62.85,250.81 63.55,252.59 C64.20,254.41 64.45,257.14 63.98,258.69 C63.50,260.15 61.69,262.51 60.26,263.59 C56.27,266.51 44.90,269.42 40.61,269.55 C38.28,269.60 33.53,269.00 32.07,268.45 C29.99,267.62 27.05,265.73 25.82,264.27 C24.68,262.85 23.23,259.29 23.11,257.56 C22.88,252.58 26.22,247.30 26.99,246.14" fill="none" stroke="rgb(229, 0, 16)" stroke-width="2.37" stroke-opacity="1.00" stroke-linejoin="round"/>
<path d="M41.05,252.67 C40.94,253.46 40.62,256.18 40.53,256.65 C40.27,257.89 39.43,259.13 38.67,259.41 C37.92,259.63 36.30,259.16 35.65,258.35 C34.47,256.85 20.87,223.82 20.07,220.74 C21.39,219.88 26.15,219.34 27.21,219.35 C29.10,219.38 33.93,220.50 35.42,222.39 C35.70,222.74 35.95,223.39 36.18,224.33 C35.72,225.47 34.64,226.40 33.02,226.54 C29.98,226.78 16.16,223.85 10.48,223.37 C6.31,223.04 -2.96,224.07 -7.06,225.44 C-9.31,226.21 -14.77,228.89 -17.06,230.98 C-19.58,233.31 -22.07,238.60 -22.74,241.37 C-23.28,243.71 -23.82,249.20 -23.78,251.98 C-23.71,255.03 -22.83,260.77 -21.96,263.65 C-21.04,266.59 -18.53,271.67 -16.86,273.93 C-15.18,276.17 -11.41,279.57 -9.23,280.82 C-7.10,282.00 -2.34,283.51 0.34,283.87 C5.35,284.52 16.39,282.96 21.14,281.28 C23.46,280.44 27.52,278.35 29.18,277.10 C30.92,275.77 33.46,272.77 34.48,270.85 C36.36,267.22 38.09,257.93 37.68,252.79 C37.24,247.72 33.87,236.63 31.51,231.70 C30.23,229.06 27.50,224.84 25.86,223.03 C23.90,220.91 19.14,217.85 15.55,217.28 C12.01,216.77 5.06,218.02 1.54,219.92 C-1.79,221.78 -8.23,229.15 -10.40,233.69 C-11.43,235.90 -12.97,240.98 -13.11,242.55 C-13.44,246.88 -12.05,249.02 -10.96,249.91 C-10.96,249.91 -5.97,248.87 -5.97,248.87" fill="none" stroke="rgb(229, 0, 16)" stroke-width="2.37" stroke-opacity="1.00" stroke-linejoin="round"/>
<path d="M-2.17,232.28 C-5.80,231.91 -9.20,232.02 -11.80,232.69 C-13.00,233.02 -15.31,234.02 -16.50,234.75 C-17.80,235.57 -19.45,240.09 -19.30,243.08 C-19.13,246.02 -17.67,251.57 -16.93,253.51 C-16.02,255.89 -13.62,260.22 -12.18,262.09 C-10.94,263.67 -6.90,267.29 -3.90,268.57 C-2.17,269.27 1.64,269.74 3.32,269.45 C4.96,269.12 8.25,267.40 9.79,266.14 C11.24,264.90 13.69,261.95 14.56,260.37 C15.39,258.81 16.35,255.49 16.49,253.73 C16.69,250.63 15.19,244.74 14.20,242.30 C13.38,240.34 11.13,236.05 9.99,234.29 C8.45,231.98 4.11,227.48 1.28,226.40 C-1.15,225.49 -6.47,225.49 -8.91,226.31 C-12.07,227.42 -16.85,232.01 -18.44,234.40 C-19.75,236.45 -21.48,240.12 -22.09,242.25 C-22.75,244.61 -23.09,248.73 -22.63,251.26 C-22.19,253.51 -20.35,257.07 -18.84,258.51 C-17.36,259.89 -13.43,261.90 -11.40,262.35 C-9.34,262.79 -5.08,262.64 -3.01,262.07 C-0.82,261.43 2.87,259.31 4.66,257.74 C7.64,255.09 13.14,245.90 13.71,242.43 C14.32,238.36 13.10,233.13 11.80,230.32 C10.38,227.33 7.16,224.07 5.50,224.18 C3.70,224.40 -0.06,228.41 -1.52,230.81 C-4.20,235.33 -8.09,245.83 -8.69,251.50 C-8.91,253.85 -8.24,258.42 -6.48,259.69 C-5.54,260.32 -2.45,260.31 -0.73,259.83 C2.07,258.99 6.71,255.65 8.49,253.94 C11.63,250.87 16.79,243.62 18.00,239.74 C18.69,237.41 19.28,231.59 18.68,228.13 C18.35,226.34 17.27,223.19 16.57,221.93 C15.84,220.70 14.09,218.99 13.07,218.52 C11.99,218.07 9.64,218.06 8.43,218.54 C5.98,219.57 2.31,224.31 0.94,227.09 C-0.29,229.68 -1.79,235.03 -2.17,237.69 C-2.55,240.63 -1.98,245.66 -1.02,247.89 C-0.04,250.04 2.81,252.91 4.31,253.34 C6.23,253.81 9.34,253.70 11.17,252.93 C13.90,251.75 18.35,248.00 19.66,246.62 C21.28,244.91 24.28,241.03 25.47,239.08 C26.48,237.40 28.68,232.32 29.03,229.30 C29.39,225.97 27.16,219.01 25.36,217.10 C24.47,216.21 22.45,215.31 21.38,215.33 C19.07,215.48 14.73,219.62 13.15,222.17 C11.80,224.41 9.87,228.72 9.21,230.95 C8.58,233.10 8.17,237.57 8.42,239.53 C8.58,240.54 9.72,242.42 10.71,243.14 C11.68,243.80 14.56,244.10 16.04,243.80 C18.76,243.17 24.14,239.31 26.44,236.83 C29.15,233.79 29.63,231.98 29.73,229.66 C28.31,228.59 26.48,228.09 24.92,228.75 C22.45,229.81 19.47,234.31 18.78,236.15 C18.07,238.15 17.57,243.11 17.98,244.64 C18.26,245.56 19.20,246.91 20.03,247.56 C21.82,248.85 26.70,248.50 32.40,247.49" fill="none" stroke="rgb(229, 0, 16)" stroke-width="2.37" stroke-opacity="1.00" stroke-linejoin="round"/>
<path d="M34.82,241.96 C34.82,241.96 32.82,241.40 32.82,241.40 C32.90,242.14 34.76,247.43 34.98,248.91 C35.13,250.05 34.84,252.35 34.27,253.37 C33.00,255.53 28.18,259.74 26.46,260.94 C24.45,262.32 19.55,264.61 17.61,264.92 C15.20,265.27 9.69,264.59 6.43,263.53 C2.82,262.34 -2.86,259.09 -4.77,256.99 C-6.44,255.10 -7.69,250.94 -7.09,249.37 C-6.33,247.54 -2.37,244.80 0.32,244.31 C1.65,244.10 4.13,244.40 5.36,244.97 C7.82,246.16 11.69,250.93 12.86,253.22 C13.96,255.46 15.18,259.43 15.15,260.89 C15.06,262.81 14.20,265.01 12.99,266.07 C11.11,267.64 4.63,269.80 1.35,270.19 C-2.16,270.56 -8.94,269.43 -11.82,267.74 C-14.93,265.83 -19.30,260.54 -20.52,257.99 C-22.47,253.74 -24.35,244.74 -24.44,239.88 C-24.44,239.17 -24.17,235.94 -23.80,235.53 C-22.97,234.68 -21.12,234.05 -19.67,234.06 C-16.20,234.06 -13.93,234.32 -11.80,234.65" fill="none" stroke="rgb(229, 0, 16)" stroke-width="2.37" stroke-opacity="1.00" stroke-linejoin="round"/>
<path d="M-20.84,223.63 C-20.84,223.63 -23.46,221.90 -23.46,221.90 C-24.44,222.08 -27.49,225.08 -29.20,227.36 C-32.59,231.95 -36.25,242.53 -36.96,247.13 C-37.33,249.57 -37.34,254.79 -36.97,257.15 C-36.75,258.37 -35.58,260.80 -34.60,261.85 C-33.69,262.80 -30.96,263.93 -29.54,264.08 C-26.54,264.30 -22.21,262.52 -18.76,259.83 C-18.07,259.29 -17.38,258.75 -16.69,258.20" fill="none" stroke="rgb(229, 0, 16)" stroke-width="2.37" stroke-opacity="1.00" stroke-linejoin="round"/>
<path d="M-22.91,232.62 C-22.91,232.62 -28.01,229.25 -28.01,229.25 C-29.28,229.61 -31.59,233.65 -32.62,236.81 C-33.49,239.61 -34.19,244.98 -34.19,247.43 C-34.17,249.79 -33.42,253.89 -32.71,256.25 C-32.36,257.30 -30.82,259.71 -29.75,260.71 C-28.67,261.68 -25.96,262.63 -24.55,262.64 C-22.11,262.58 -16.54,260.14 -14.41,258.29 C-12.45,256.54 -10.34,252.50 -10.32,250.95 C-10.32,247.59 -11.87,243.29 -13.06,240.93 C-14.33,238.44 -17.05,235.13 -18.78,234.18 C-20.54,233.28 -24.54,233.80 -26.15,235.35 C-27.95,237.18 -29.72,243.44 -29.20,246.53 C-28.93,247.99 -27.61,250.69 -26.73,251.57 C-25.08,253.17 -20.69,253.75 -18.72,252.93 C-16.98,252.16 -13.04,248.64 -12.52,245.94 C-12.29,244.58 -13.63,241.48 -14.91,240.12 C-16.04,238.97 -18.33,237.35 -19.49,236.78 C-20.57,236.35 -22.98,236.08 -24.05,236.52 C-26.66,237.66 -27.03,240.93 -27.12,243.28" fill="none" stroke="rgb(229, 0, 16)" stroke-width="2.37" stroke-opacity="1.00" stroke-linejoin="round"/>
<path d="M-24.64,226.40 C-27.07,223.94 -30.77,219.90 -32.40,220.20 C-33.58,220.48 -35.09,222.72 -35.75,224.99 C-36.23,226.78 -36.61,233.44 -36.13,236.32 C-35.58,239.34 -33.11,244.41 -31.09,246.66 C-28.91,249.02 -23.59,252.47 -19.54,253.68 C-17.97,254.14 -13.27,254.83 -10.92,254.85 C-7.23,254.87 1.94,253.10 2.98,252.90" fill="none" stroke="rgb(229, 0, 16)" stroke-width="2.37" stroke-opacity="1.00" stroke-linejoin="round"/>
<path d="M32.88,256.78 C32.88,256.78 32.04,256.81 32.04,256.81 C31.84,257.16 29.81,263.28 28.73,266.51 C27.72,269.49 25.99,273.42 23.95,275.84 C23.61,276.23 19.71,280.26 18.56,281.54 C17.65,282.55 16.41,284.11 15.73,285.02" fill="none" stroke="rgb(229, 0, 16)" stroke-width="2.37" stroke-opacity="1.00" stroke-linejoin="round"/>
<path d="M34.45,261.50 C34.45,261.50 32.56,261.74 32.56,261.74 C32.58,263.46 32.67,264.13 33.17,265.48 C34.06,267.91 38.45,284.60 39.09,286.30 C39.62,287.70 40.41,288.85 41.38,289.86" fill="none" stroke="rgb(229, 0, 16)" stroke-width="2.37" stroke-opacity="1.00" stroke-linejoin="round"/>
<path d="M33.19,224.96 C33.19,224.96 31.14,226.93 31.14,226.93 C33.20,227.66 34.25,227.84 35.17,227.51 C37.18,226.76 40.28,224.59 42.70,222.32 C47.65,217.63 50.88,212.26 51.24,209.92 C51.24,209.92 48.89,209.44 48.89,209.44" fill="none" stroke="rgb(229, 0, 16)" stroke-width="2.37" stroke-opacity="1.00" stroke-linejoin="round"/>
<path d="M48.95,204.16 C48.47,204.24 46.74,204.59 46.35,205.11 C44.87,207.10 44.18,224.63 45.27,229.06 C45.60,230.30 46.75,232.62 47.56,233.73 C49.00,235.59 51.95,237.34 53.71,238.25" fill="none" stroke="rgb(229, 0, 16)" stroke-width="2.37" stroke-opacity="1.00" stroke-linejoin="round"/>
<path d="M53.67,199.12 C53.67,199.12 52.88,198.02 52.88,198.02 C52.32,199.08 51.85,202.61 51.81,205.29 C51.78,208.88 52.68,214.49 53.45,216.37 C54.90,219.70 57.93,222.80 60.26,223.58 C61.51,223.99 63.30,224.11 65.27,224.05" fill="none" stroke="rgb(229, 0, 16)" stroke-width="2.37" stroke-opacity="1.00" stroke-linejoin="round"/>
<path d="M53.67,207.31 C53.68,208.75 53.87,209.68 54.38,210.07 C54.84,210.41 55.67,210.69 56.17,210.75 C56.23,210.63 52.74,208.04 50.49,206.23 C48.55,204.65 45.35,200.93 44.14,199.02 C42.76,196.79 41.00,191.28 41.11,188.94 C41.19,187.66 42.02,185.27 42.75,184.28 C44.22,182.38 50.18,179.32 53.34,178.69 C54.89,178.41 57.84,178.38 58.97,178.65 C60.03,178.93 61.63,179.99 62.34,180.78 C62.85,181.44 63.36,183.73 63.12,184.99 C63.01,185.54 62.63,186.60 61.98,188.16" fill="none" stroke="rgb(229, 0, 16)" stroke-width="2.37" stroke-opacity="1.00" stroke-linejoin="round"/>
<path d="M56.51,187.78 C56.51,187.78 56.67,187.78 56.67,187.78 C57.09,187.31 57.40,186.98 57.61,186.81 C61.06,183.90 63.14,181.41 62.90,179.10 C62.74,177.94 61.34,175.83 59.99,174.57 C57.47,172.31 52.75,170.08 50.22,169.44 C46.28,168.49 35.43,167.52 32.13,168.43 C29.73,169.13 24.74,172.56 23.10,174.37 C21.48,176.18 19.53,179.55 19.08,180.33" fill="none" stroke="rgb(229, 0, 16)" stroke-width="2.37" stroke-opacity="1.00" stroke-linejoin="round"/>
<path d="M41.70,168.24 C39.97,167.61 32.77,164.73 32.14,164.60 C30.85,164.36 28.74,164.63 27.87,165.17 C25.77,166.59 22.10,171.44 20.87,173.86 C19.85,175.94 17.84,181.53 17.39,183.67 C16.34,188.95 18.43,195.34 19.23,197.05" fill="none" stroke="rgb(229, 0, 16)" stroke-width="2.37" stroke-opacity="1.00" stroke-linejoin="round"/>
<path d="M-11.86,273.48 C-11.86,273.48 -13.60,270.91 -13.60,270.91 C-12.79,279.34 -8.57,299.66 -5.63,310.50 C-4.51,314.74 -3.44,331.93 -3.06,335.05 C-2.78,337.31 -1.79,342.32 -1.17,344.14 C-0.75,345.34 0.90,349.34 1.06,349.72" fill="none" stroke="rgb(229, 0, 16)" stroke-width="2.37" stroke-opacity="1.00" stroke-linejoin="round"/>
<path d="M29.73,268.12 C29.73,268.12 27.84,268.12 27.84,268.12 C27.74,268.26 30.07,281.44 31.69,293.02 C33.59,307.03 34.87,315.22 36.92,322.02 C37.80,324.90 40.07,330.50 40.49,331.27 C41.49,333.07 45.87,339.05 46.67,340.98 C46.93,341.64 47.52,343.51 47.69,344.05" fill="none" stroke="rgb(229, 0, 16)" stroke-width="2.37" stroke-opacity="1.00" stroke-linejoin="round"/>
<path d="M26.89,269.70 C27.08,269.31 27.19,269.02 27.21,268.83 C27.23,268.64 27.19,268.30 27.09,267.79 C25.27,267.85 20.14,271.08 17.04,271.43 C14.48,271.69 7.61,270.66 5.10,270.20 C2.92,269.77 1.13,265.99 0.77,264.77" fill="none" stroke="rgb(229, 0, 16)" stroke-width="2.37" stroke-opacity="1.00" stroke-linejoin="round"/>
<path d="M-4.30,249.22 C-4.30,249.22 -6.03,249.85 -6.03,249.85 C-1.85,245.66 4.09,236.28 5.84,231.45 C6.49,229.63 8.09,223.08 8.65,222.28 C8.65,222.28 10.51,223.67 10.51,223.67" fill="none" stroke="rgb(229, 0, 16)" stroke-width="2.37" stroke-opacity="1.00" stroke-linejoin="round"/>
<path d="M-3.99,237.24 C-3.99,237.24 -6.03,238.58 -6.03,238.58 C-3.28,239.00 -1.85,238.94 -0.59,238.16 C3.80,235.38 17.18,221.35 18.54,220.94 C18.80,220.86 19.26,220.86 19.93,220.94 C20.67,221.66 21.15,222.72 21.27,224.29 C21.33,225.04 21.52,232.09 22.45,233.33 C23.86,233.80 26.90,232.27 29.76,230.41 C30.87,229.68 34.25,227.36 35.97,226.16 C38.81,224.17 42.61,221.50 43.56,220.83" fill="none" stroke="rgb(229, 0, 16)" stroke-width="2.37" stroke-opacity="1.00" stroke-linejoin="round"/>
<path d="M46.11,203.53 C44.66,204.61 43.06,205.85 42.39,206.54 C42.09,206.85 41.52,207.50 40.68,208.49" fill="none" stroke="rgb(229, 0, 16)" stroke-width="2.37" stroke-opacity="1.00" stroke-linejoin="round"/>
<path d="M37.29,218.65 C36.89,221.35 36.19,226.43 36.23,228.95 C36.29,230.26 37.01,233.35 37.72,234.82 C38.51,236.38 41.21,238.87 42.95,239.72 C45.82,241.05 50.78,241.80 53.68,242.07 C55.42,242.23 58.32,242.49 59.48,242.59" fill="none" stroke="rgb(229, 0, 16)" stroke-width="2.37" stroke-opacity="1.00" stroke-linejoin="round"/>
<path d="M45.17,197.86 C42.99,198.67 38.44,200.61 37.21,202.58 C35.10,206.16 32.79,218.82 32.54,224.53 C32.42,227.89 32.84,234.26 33.89,236.38 C34.10,236.80 34.60,237.61 35.39,238.81" fill="none" stroke="rgb(229, 0, 16)" stroke-width="2.37" stroke-opacity="1.00" stroke-linejoin="round"/>
<path d="M43.27,209.20 C43.27,209.20 42.49,208.41 42.49,208.41 C42.49,208.41 42.33,208.43 42.33,208.43 C41.83,211.20 41.18,214.35 40.28,218.37 C39.71,221.00 38.56,227.47 38.30,230.21 C38.09,232.62 37.94,238.08 37.91,239.18" fill="none" stroke="rgb(229, 0, 16)" stroke-width="2.37" stroke-opacity="1.00" stroke-linejoin="round"/>
<path d="M50.21,215.82 C49.56,216.00 52.67,232.26 54.56,237.27 C55.48,239.70 58.21,245.53 59.65,247.81 C59.86,248.13 60.17,248.60 60.60,249.22" fill="none" stroke="rgb(229, 0, 16)" stroke-width="2.37" stroke-opacity="1.00" stroke-linejoin="round"/>
</g>
</svg>
