<?xml version="1.0" encoding="UTF-8" standalone="no"?>
<!DOCTYPE svg PUBLIC "-//W3C//DTD SVG 1.1//EN" "http://www.w3.org/Graphics/SVG/1.1/DTD/svg11.dtd">
<svg width="128.40" height="181.68" viewBox="0.00 0.00 535.00 757.00" xmlns="http://www.w3.org/2000/svg" xmlns:xlink="http://www.w3.org/1999/xlink">
<g stroke-linecap="round" transform="translate(44.00, 155.00)" id="106-구름-1">
<path d="M478.97,23.29 C478.97,23.29 478.97,23.43 478.97,23.43 C478.97,23.43 479.11,23.57 479.11,23.57 C479.11,23.57 479.25,23.57 479.25,23.57 C479.00,23.58 467.81,20.65 460.26,19.67 C456.00,19.16 447.65,18.19 443.67,18.11 C438.66,18.04 422.76,21.59 415.72,23.26 C410.04,24.45 390.97,23.85 386.65,22.99 C381.99,21.98 378.63,21.43 376.25,21.23 C373.89,21.05 367.14,21.65 363.39,22.57 C359.88,23.45 354.69,25.50 351.74,27.01 C348.98,28.48 347.33,30.11 344.95,33.29 C344.56,33.81 344.18,34.32 343.80,34.83 C343.80,34.83 343.91,35.00 343.91,35.00" fill="none" stroke="rgb(255, 0, 0)" stroke-width="2.36" stroke-opacity="1.00" stroke-linejoin="round"/>
<path d="M341.45,46.45 C341.45,46.45 340.05,45.61 340.05,45.61 C340.22,46.05 340.80,49.32 341.36,50.10 C342.26,51.32 347.68,55.13 351.31,56.84 C355.49,58.76 360.99,60.63 365.35,61.31 C366.06,61.41 385.27,63.81 390.90,63.55 C394.61,63.39 399.15,63.75 401.64,64.46 C408.73,66.62 414.33,67.60 425.46,69.13 C432.55,70.08 446.82,71.90 451.85,71.98 C460.87,72.06 467.69,70.56 468.91,70.12 C469.37,69.96 470.21,69.59 471.44,69.04" fill="none" stroke="rgb(255, 0, 0)" stroke-width="2.36" stroke-opacity="1.00" stroke-linejoin="round"/>
<path d="M345.35,33.06 C345.35,33.06 344.82,33.16 344.82,33.16 C343.87,36.07 341.84,40.04 341.66,40.73 C341.51,41.33 341.40,43.19 341.45,44.14 C341.47,44.51 341.53,45.18 341.64,46.16" fill="none" stroke="rgb(255, 0, 0)" stroke-width="2.36" stroke-opacity="1.00" stroke-linejoin="round"/>
</g>
</svg>
