<?xml version="1.0" encoding="UTF-8" standalone="no"?>
<!DOCTYPE svg PUBLIC "-//W3C//DTD SVG 1.1//EN" "http://www.w3.org/Graphics/SVG/1.1/DTD/svg11.dtd">
<svg width="128.40" height="181.68" viewBox="0.00 0.00 535.00 757.00" xmlns="http://www.w3.org/2000/svg" xmlns:xlink="http://www.w3.org/1999/xlink">
<g stroke-linecap="round" transform="translate(44.00, 155.00)" id="106-물웅덩이-1">
<path d="M356.63,443.68 C356.63,443.68 356.45,443.68 356.45,443.68 C356.45,443.68 356.27,444.04 356.27,444.04" fill="none" stroke="rgb(28, 31, 136)" stroke-width="2.36" stroke-opacity="1.00" stroke-linejoin="round"/>
<path d="M355.91,444.04 C355.91,444.04 356.27,443.67 356.27,443.67 C356.27,443.04 356.27,442.66 356.27,442.51 C356.22,441.31 354.90,439.12 352.97,438.28 C346.86,435.74 341.15,437.52 340.28,438.05 C339.59,439.36 340.11,443.71 341.10,445.19 C341.80,446.19 343.73,447.30 345.23,447.61 C347.99,448.14 352.32,447.40 353.42,446.20 C353.78,445.79 354.06,445.34 354.26,444.87 C354.38,444.58 354.61,443.90 354.93,442.84" fill="none" stroke="rgb(28, 31, 136)" stroke-width="2.36" stroke-opacity="1.00" stroke-linejoin="round"/>
<path d="M360.59,434.31 C360.59,434.31 359.51,433.23 359.51,433.23 C358.98,433.19 356.27,435.37 354.74,437.06 C353.64,438.30 352.60,440.42 352.43,441.78 C352.31,443.00 352.81,444.86 353.46,445.50 C354.70,446.63 360.79,447.87 364.22,447.57 C365.93,447.40 369.13,446.60 370.40,446.02 C371.74,445.37 373.25,443.92 373.63,442.92 C374.21,441.27 374.06,437.50 373.62,436.09 C373.62,436.09 371.50,434.70 371.50,434.70" fill="none" stroke="rgb(28, 31, 136)" stroke-width="2.36" stroke-opacity="1.00" stroke-linejoin="round"/>
<path d="M364.92,437.55 C364.92,437.55 363.66,436.47 363.66,436.47 C362.50,437.48 361.11,440.88 361.41,443.04 C361.55,443.88 363.36,444.38 364.79,443.93 C369.25,442.40 367.95,439.00 367.33,438.13 C367.33,438.13 365.49,437.89 365.49,437.89" fill="none" stroke="rgb(28, 31, 136)" stroke-width="2.36" stroke-opacity="1.00" stroke-linejoin="round"/>
<path d="M365.64,441.52 C365.64,441.52 365.10,441.52 365.10,441.52 C365.10,441.52 365.87,443.79 365.87,443.79 C367.32,443.39 367.39,442.40 367.31,441.13 C367.31,441.13 365.90,440.72 365.90,440.72" fill="none" stroke="rgb(28, 31, 136)" stroke-width="2.36" stroke-opacity="1.00" stroke-linejoin="round"/>
<path d="M394.83,445.84 C394.83,445.84 394.65,445.84 394.65,445.84 C394.37,445.50 394.15,444.67 393.99,444.40 C393.91,444.26 393.71,444.07 393.41,443.81 C393.41,443.81 392.05,445.02 392.05,445.02 C392.26,445.90 393.77,446.80 394.86,446.79 C395.89,446.75 397.09,445.64 397.13,444.74 C396.80,444.14 396.50,443.77 396.23,443.61 C395.96,443.46 395.35,443.30 394.40,443.14" fill="none" stroke="rgb(28, 31, 136)" stroke-width="2.36" stroke-opacity="1.00" stroke-linejoin="round"/>
<path d="M408.16,439.36 C407.90,439.03 407.60,438.30 407.39,437.80 C406.95,436.98 403.34,435.49 399.79,435.11 C395.96,434.71 372.40,435.58 369.95,435.01 C369.25,434.85 363.74,433.51 361.02,433.32 C356.62,433.07 350.78,434.63 347.05,435.69 C345.01,436.21 336.94,437.91 333.69,438.29 C328.78,438.88 321.83,442.39 320.91,443.78 C320.90,445.38 322.67,448.39 324.58,449.14 C327.62,450.25 341.75,449.69 346.20,451.12 C350.37,452.46 354.17,453.05 357.71,453.04 C361.00,452.99 364.55,452.48 368.60,451.48 C371.85,450.69 379.06,449.01 382.25,449.43 C382.88,449.52 392.08,451.05 395.06,451.53 C397.13,451.85 402.07,451.76 404.48,450.99 C406.99,450.14 409.85,447.40 410.42,445.60 C410.88,443.98 410.69,440.23 409.76,438.74 C408.80,437.30 406.57,435.73 404.92,434.67" fill="none" stroke="rgb(28, 31, 136)" stroke-width="2.36" stroke-opacity="1.00" stroke-linejoin="round"/>
</g>
</svg>
