<?xml version="1.0" encoding="UTF-8" standalone="no"?>
<!DOCTYPE svg PUBLIC "-//W3C//DTD SVG 1.1//EN" "http://www.w3.org/Graphics/SVG/1.1/DTD/svg11.dtd">
<svg width="128.40" height="181.68" viewBox="0.00 0.00 535.00 757.00" xmlns="http://www.w3.org/2000/svg" xmlns:xlink="http://www.w3.org/1999/xlink">
<g stroke-linecap="round" transform="translate(44.00, 155.00)" id="106-사람">
<path d="M137.77,362.79 C137.77,362.79 137.27,364.14 137.27,364.14 C137.18,364.09 136.82,361.24 133.21,359.69 C130.30,358.48 123.34,357.55 121.99,357.46 C118.55,357.26 101.98,360.16 99.07,361.34 C96.19,362.55 92.72,365.04 91.09,366.90 C89.47,368.84 88.21,372.86 87.77,376.43 C87.59,378.18 87.78,380.97 88.29,382.73 C88.86,384.56 90.48,386.77 91.95,387.90 C94.78,389.98 100.00,392.71 102.82,393.63 C106.26,394.68 110.02,395.04 114.61,394.86 C120.84,394.55 128.42,392.72 132.01,390.75 C134.07,389.60 137.14,386.71 138.75,384.59 C140.62,382.04 143.32,375.72 143.02,372.70 C142.71,370.18 139.58,364.73 138.45,363.57 C138.15,363.27 137.47,362.67 136.41,361.77" fill="none" stroke="rgb(255, 0, 255)" stroke-width="2.36" stroke-opacity="1.00" stroke-linejoin="round"/>
<path d="M123.51,359.74 C123.51,359.74 122.17,359.08 122.17,359.08 C122.08,360.23 123.22,363.29 125.04,364.43 C130.95,367.89 135.55,364.63 136.01,363.95 C133.14,361.68 124.98,360.70 124.05,360.76 C124.67,361.84 129.41,363.22 131.46,363.50 C132.21,363.61 132.95,363.71 133.69,363.81" fill="none" stroke="rgb(255, 0, 255)" stroke-width="2.36" stroke-opacity="1.00" stroke-linejoin="round"/>
<path d="M129.62,360.75 C129.62,360.75 126.94,359.84 126.94,359.84 C127.09,360.79 129.27,362.48 131.53,362.88 C133.51,363.20 135.09,362.94 135.66,362.73 C135.66,362.73 129.95,360.17 129.95,360.17 C129.95,360.17 135.73,364.15 135.73,364.15" fill="none" stroke="rgb(255, 0, 255)" stroke-width="2.36" stroke-opacity="1.00" stroke-linejoin="round"/>
<path d="M107.56,360.08 C107.56,360.08 106.59,360.75 106.59,360.75 C106.59,360.75 106.54,359.47 106.54,359.47 C106.54,359.47 106.15,363.94 105.24,365.57 C103.67,368.08 91.34,369.67 91.01,369.74 C91.01,369.74 103.74,362.62 103.74,362.62 C102.96,362.04 101.54,361.97 99.88,362.72 C96.67,364.17 94.06,367.45 93.93,368.07 C95.30,368.30 96.45,368.07 97.89,367.14 C100.38,365.51 102.90,363.44 103.65,362.05 C102.37,361.88 101.47,362.05 100.49,362.74 C98.78,363.98 98.12,365.14 97.86,366.03 C99.27,366.95 100.36,367.10 101.74,366.37 C103.87,365.23 104.81,364.06 105.25,363.27 C104.48,362.61 103.79,362.70 102.60,363.83 C101.75,364.65 100.15,366.16 99.41,366.86" fill="none" stroke="rgb(255, 0, 255)" stroke-width="2.36" stroke-opacity="1.00" stroke-linejoin="round"/>
<path d="M113.67,368.22 C113.67,368.22 112.99,367.80 112.99,367.80 C113.03,367.18 114.84,365.82 116.48,365.87 C117.42,365.92 119.16,366.49 119.72,366.93 C119.88,367.05 120.01,367.26 120.12,367.54" fill="none" stroke="rgb(255, 0, 255)" stroke-width="2.36" stroke-opacity="1.00" stroke-linejoin="round"/>
<path d="M108.24,395.04 C107.72,395.07 107.35,395.07 107.12,395.04 C106.47,394.96 96.68,393.89 95.11,393.61 C92.41,393.15 89.26,393.67 88.89,394.59 C88.53,395.58 89.19,398.33 90.08,399.02 C90.55,399.37 91.96,399.60 94.71,399.89 C95.49,399.97 96.26,400.05 97.04,400.13" fill="none" stroke="rgb(255, 0, 255)" stroke-width="2.36" stroke-opacity="1.00" stroke-linejoin="round"/>
<path d="M88.55,395.38 C88.55,395.38 88.04,395.38 88.04,395.38 C87.60,394.93 86.61,394.49 85.59,394.36 C84.66,394.25 83.28,395.75 83.67,396.65 C84.30,397.93 86.91,398.66 88.69,399.02" fill="none" stroke="rgb(255, 0, 255)" stroke-width="2.36" stroke-opacity="1.00" stroke-linejoin="round"/>
<path d="M97.72,400.47 C97.72,400.47 97.56,399.79 97.56,399.79 C97.56,399.79 111.59,400.47 111.59,400.47 C111.38,401.89 111.30,403.23 111.29,405.87 C111.32,407.66 111.55,408.83 112.19,409.10 C113.99,409.79 119.19,410.47 121.40,410.10 C126.35,408.85 131.79,407.52 132.03,407.43 C132.03,407.43 130.71,399.48 130.71,399.48 C131.75,400.45 145.17,403.97 147.75,403.48 C149.20,403.18 150.80,402.54 152.42,401.63 C153.40,401.04 153.23,397.80 152.31,396.65 C150.45,394.52 145.80,395.48 145.58,396.00 C145.24,396.87 144.50,399.49 143.87,401.35 C143.87,401.35 143.88,400.81 143.88,400.81" fill="none" stroke="rgb(255, 0, 255)" stroke-width="2.36" stroke-opacity="1.00" stroke-linejoin="round"/>
<path d="M146.25,394.70 C146.25,394.70 145.24,395.04 145.24,395.04 C144.04,394.99 135.44,391.64 132.45,391.39 C131.90,391.35 130.95,391.32 129.62,391.30" fill="none" stroke="rgb(255, 0, 255)" stroke-width="2.36" stroke-opacity="1.00" stroke-linejoin="round"/>
<path d="M112.65,410.31 C112.65,410.31 112.01,410.65 112.01,410.65 C112.01,410.65 112.66,420.12 112.66,420.12 C113.44,420.59 113.99,420.73 115.12,420.42 C116.88,419.91 120.75,418.72 121.31,418.27 C122.46,417.31 123.39,412.20 123.47,411.84 C123.47,411.84 123.37,419.10 123.37,419.10 C124.43,419.66 129.78,419.03 131.49,418.14 C132.35,417.65 133.20,416.46 133.31,415.53 C133.38,414.75 132.91,411.29 132.57,410.07 C132.42,409.55 132.12,408.73 131.66,407.60" fill="none" stroke="rgb(255, 0, 255)" stroke-width="2.36" stroke-opacity="1.00" stroke-linejoin="round"/>
<path d="M115.03,420.15 C115.03,420.15 113.03,420.83 113.03,420.83 C113.03,420.83 111.87,425.21 111.87,425.21 C112.94,426.13 115.02,425.87 116.06,425.21 C117.46,424.28 119.63,422.04 120.28,420.72 C120.48,420.32 120.65,419.68 120.80,418.80" fill="none" stroke="rgb(255, 0, 255)" stroke-width="2.36" stroke-opacity="1.00" stroke-linejoin="round"/>
<path d="M124.19,419.48 C123.97,419.45 123.56,419.52 123.34,419.64 C123.28,419.68 123.23,419.73 123.17,419.81 C124.16,421.64 127.00,425.56 129.16,426.42 C131.02,427.12 132.83,426.38 133.23,425.63 C133.64,424.81 133.65,421.66 132.53,419.49 C132.23,418.91 130.56,416.83 129.96,416.08" fill="none" stroke="rgb(255, 0, 255)" stroke-width="2.36" stroke-opacity="1.00" stroke-linejoin="round"/>
</g>
</svg>
