<?xml version="1.0" encoding="UTF-8" standalone="no"?>
<!DOCTYPE svg PUBLIC "-//W3C//DTD SVG 1.1//EN" "http://www.w3.org/Graphics/SVG/1.1/DTD/svg11.dtd">
<svg width="128.40" height="181.68" viewBox="0.00 0.00 535.00 757.00" xmlns="http://www.w3.org/2000/svg" xmlns:xlink="http://www.w3.org/1999/xlink">
<g stroke-linecap="round" transform="translate(44.00, 155.00)" id="106-우산">
<path d="M69.88,313.58 C69.89,313.14 69.86,312.30 69.79,312.13 C69.31,310.87 69.83,306.62 70.14,306.02 C70.14,306.02 78.09,307.49 78.09,307.49 C78.23,307.83 78.29,308.18 78.29,308.53 C78.29,308.88 78.23,309.72 78.11,311.04" fill="none" stroke="rgb(0, 255, 255)" stroke-width="2.36" stroke-opacity="1.00" stroke-linejoin="round"/>
<path d="M76.67,311.20 C73.52,311.16 63.07,315.02 60.76,316.65 C56.97,319.37 46.87,328.65 44.93,330.26 C43.28,331.61 38.97,334.60 37.34,336.08 C36.07,337.24 28.97,344.15 28.12,345.05 C26.18,347.15 23.17,351.95 22.85,353.71 C22.72,354.48 23.93,356.66 25.10,357.58 C26.06,358.29 35.15,358.94 36.46,359.02 C39.47,359.19 41.16,358.90 45.46,357.86 C47.54,357.32 60.23,352.17 60.23,352.17 C60.54,352.02 61.04,351.72 61.74,351.25" fill="none" stroke="rgb(0, 255, 255)" stroke-width="2.36" stroke-opacity="1.00" stroke-linejoin="round"/>
<path d="M65.13,352.61 C65.13,352.61 64.50,352.71 64.50,352.71 C65.78,352.93 73.31,354.83 74.49,354.99 C76.37,355.21 79.23,354.74 81.15,353.97 C84.00,352.77 90.46,347.51 91.02,347.24 C92.13,346.75 93.73,347.04 94.80,347.76 C96.41,348.87 101.37,350.50 105.77,350.98 C110.12,351.41 116.05,350.38 118.74,348.93 C121.37,347.46 127.07,343.32 127.82,342.85 C129.57,343.32 135.40,344.54 137.91,344.64 C140.50,344.72 146.09,343.97 147.61,343.16 C149.60,342.04 152.91,337.41 153.31,335.09 C153.45,333.99 152.28,332.71 150.41,331.72 C148.60,330.80 138.02,328.12 131.31,324.91 C130.26,324.45 112.85,317.64 107.11,316.47 C103.99,315.84 97.48,314.53 94.10,313.84 C89.78,312.95 80.88,313.47 80.45,313.44 C79.89,313.40 78.75,313.22 77.01,312.90" fill="none" stroke="rgb(0, 255, 255)" stroke-width="2.36" stroke-opacity="1.00" stroke-linejoin="round"/>
<path d="M80.41,318.33 C80.41,318.33 79.05,318.33 79.05,318.33 C80.02,318.27 80.98,317.60 81.73,316.89 C82.05,316.58 82.37,316.28 82.70,315.98" fill="none" stroke="rgb(0, 255, 255)" stroke-width="2.36" stroke-opacity="1.00" stroke-linejoin="round"/>
<path d="M89.23,319.68 C89.23,319.68 88.55,319.55 88.55,319.55 C89.23,318.80 90.16,317.92 90.71,317.53 C90.85,317.44 90.99,317.38 91.13,317.34" fill="none" stroke="rgb(0, 255, 255)" stroke-width="2.36" stroke-opacity="1.00" stroke-linejoin="round"/>
<path d="M86.85,328.85 C86.85,328.85 86.76,327.45 86.76,327.45 C87.72,326.40 88.37,325.73 88.72,325.45 C89.06,325.17 89.59,324.87 90.30,324.57" fill="none" stroke="rgb(0, 255, 255)" stroke-width="2.36" stroke-opacity="1.00" stroke-linejoin="round"/>
<path d="M73.62,327.15 C73.62,327.15 73.28,326.13 73.28,326.13 C73.33,326.39 73.11,328.99 72.85,330.69 C72.79,331.10 72.72,331.35 72.64,331.44" fill="none" stroke="rgb(0, 255, 255)" stroke-width="2.36" stroke-opacity="1.00" stroke-linejoin="round"/>
<path d="M63.09,325.79 C63.09,325.64 63.09,325.49 63.09,325.34 C63.09,325.27 63.09,325.19 63.09,325.12 C63.16,325.68 63.36,326.41 63.68,326.87 C63.79,327.04 64.06,327.37 64.48,327.85" fill="none" stroke="rgb(0, 255, 255)" stroke-width="2.36" stroke-opacity="1.00" stroke-linejoin="round"/>
<path d="M59.36,333.60 C59.36,333.60 59.41,332.29 59.41,332.29 C59.41,332.29 61.45,332.68 61.45,332.68" fill="none" stroke="rgb(0, 255, 255)" stroke-width="2.36" stroke-opacity="1.00" stroke-linejoin="round"/>
<path d="M60.38,335.98 C60.21,335.94 60.04,335.94 59.87,335.98 C59.70,336.01 59.31,336.12 58.68,336.32 C59.18,336.36 61.23,336.21 63.06,335.99 C63.51,335.93 64.05,335.84 64.68,335.72" fill="none" stroke="rgb(0, 255, 255)" stroke-width="2.36" stroke-opacity="1.00" stroke-linejoin="round"/>
<path d="M47.14,339.37 C47.14,339.37 47.14,338.69 47.14,338.69 C47.46,339.34 47.69,339.79 47.82,340.03 C47.95,340.28 48.17,340.66 48.47,341.18" fill="none" stroke="rgb(0, 255, 255)" stroke-width="2.36" stroke-opacity="1.00" stroke-linejoin="round"/>
<path d="M45.44,346.50 C45.44,346.50 43.63,346.33 43.63,346.33 C43.70,346.23 43.85,346.18 44.06,346.16 C44.27,346.14 44.86,346.14 45.81,346.16" fill="none" stroke="rgb(0, 255, 255)" stroke-width="2.36" stroke-opacity="1.00" stroke-linejoin="round"/>
<path d="M68.19,346.16 C68.19,346.16 66.66,347.40 66.66,347.40 C66.66,347.40 67.74,347.95 67.74,347.95" fill="none" stroke="rgb(0, 255, 255)" stroke-width="2.36" stroke-opacity="1.00" stroke-linejoin="round"/>
<path d="M99.75,337.00 C99.75,337.00 99.41,336.49 99.41,336.49 C99.41,336.49 99.58,336.03 99.58,336.03 C99.76,335.98 99.96,335.96 100.19,335.98 C100.42,335.99 101.00,336.05 101.92,336.16" fill="none" stroke="rgb(0, 255, 255)" stroke-width="2.36" stroke-opacity="1.00" stroke-linejoin="round"/>
<path d="M105.18,328.51 C105.18,328.51 103.49,328.51 103.49,328.51 C104.59,329.32 105.57,330.21 106.20,330.80 C106.52,331.07 107.25,331.65 108.40,332.55" fill="none" stroke="rgb(0, 255, 255)" stroke-width="2.36" stroke-opacity="1.00" stroke-linejoin="round"/>
<path d="M111.63,327.15 C111.63,327.15 110.67,327.32 110.67,327.32 C110.37,327.47 110.19,329.13 110.50,330.32 C110.60,330.69 110.85,331.19 111.27,331.81" fill="none" stroke="rgb(0, 255, 255)" stroke-width="2.36" stroke-opacity="1.00" stroke-linejoin="round"/>
<path d="M120.12,328.51 C120.12,328.51 118.17,328.51 118.17,328.51 C118.10,329.21 118.07,329.69 118.08,329.95 C118.09,330.22 118.16,330.63 118.28,331.20" fill="none" stroke="rgb(0, 255, 255)" stroke-width="2.36" stroke-opacity="1.00" stroke-linejoin="round"/>
<path d="M124.87,329.19 C124.87,329.19 124.36,329.36 124.36,329.36 C123.69,330.29 123.47,330.72 123.14,331.83 C123.07,332.09 122.91,332.56 122.67,333.24" fill="none" stroke="rgb(0, 255, 255)" stroke-width="2.36" stroke-opacity="1.00" stroke-linejoin="round"/>
<path d="M110.61,341.07 C110.61,341.07 110.61,340.73 110.61,340.73 C110.62,340.73 110.82,340.96 110.97,341.16 C111.05,341.26 111.21,341.48 111.46,341.83" fill="none" stroke="rgb(0, 255, 255)" stroke-width="2.36" stroke-opacity="1.00" stroke-linejoin="round"/>
<path d="M131.66,324.78 C131.42,324.75 131.25,324.75 131.15,324.78 C131.04,324.80 130.86,324.89 130.59,325.04 C130.07,326.27 129.72,327.65 129.60,328.11 C129.56,328.28 129.49,328.46 129.39,328.66" fill="none" stroke="rgb(0, 255, 255)" stroke-width="2.36" stroke-opacity="1.00" stroke-linejoin="round"/>
<path d="M129.62,341.41 C129.62,341.41 129.62,341.75 129.62,341.75 C128.78,341.62 122.28,336.70 121.78,336.37 C120.39,335.49 92.59,322.13 83.80,317.58 C82.04,316.63 76.60,312.99 75.03,312.91 C78.05,316.95 81.98,323.21 86.46,328.33 C88.27,330.43 90.72,334.69 92.10,338.76 C93.47,342.88 93.94,345.21 93.98,346.63 C93.99,346.93 93.99,347.57 93.98,348.54" fill="none" stroke="rgb(0, 255, 255)" stroke-width="2.36" stroke-opacity="1.00" stroke-linejoin="round"/>
<path d="M71.24,314.59 C71.24,314.59 71.24,314.17 71.24,314.17 C71.07,314.04 62.91,336.11 62.57,337.11 C61.43,340.46 60.27,348.46 60.19,349.57 C60.15,350.06 60.10,351.06 60.04,352.56" fill="none" stroke="rgb(0, 255, 255)" stroke-width="2.36" stroke-opacity="1.00" stroke-linejoin="round"/>
<path d="M77.69,354.31 C77.69,354.31 76.84,354.31 76.84,354.31 C76.51,354.77 76.29,355.40 76.33,356.27 C76.98,370.77 77.93,381.32 79.29,392.52 C79.95,398.24 81.40,404.27 82.75,406.42 C84.00,408.33 85.83,409.79 87.80,410.47 C90.70,411.41 92.73,411.06 95.05,409.54 C96.19,408.75 97.47,407.19 97.77,406.05 C98.32,403.74 97.45,399.91 97.08,398.95 C96.75,399.02 96.54,399.10 95.97,399.42 C94.99,400.05 94.25,406.53 93.19,407.04 C92.49,407.33 89.25,407.51 88.33,407.27 C87.14,406.93 85.50,405.28 84.87,403.90 C83.60,400.89 82.00,384.59 81.42,376.04 C81.14,372.20 81.09,356.50 81.08,353.04 C81.08,353.04 81.08,353.29 81.08,353.29" fill="none" stroke="rgb(0, 255, 255)" stroke-width="2.36" stroke-opacity="1.00" stroke-linejoin="round"/>
</g>
</svg>
