<?xml version="1.0" encoding="UTF-8" standalone="no"?>
<!DOCTYPE svg PUBLIC "-//W3C//DTD SVG 1.1//EN" "http://www.w3.org/Graphics/SVG/1.1/DTD/svg11.dtd">
<svg width="128.40" height="181.68" viewBox="0.00 0.00 535.00 757.00" xmlns="http://www.w3.org/2000/svg" xmlns:xlink="http://www.w3.org/1999/xlink">
<g stroke-linecap="round" transform="translate(44.00, 155.00)" id="106-구름-4">
<path d="M43.95,12.58 C43.95,12.58 43.38,12.80 43.38,12.80 C43.38,12.80 43.34,12.73 43.34,12.73 C44.39,11.65 45.07,10.60 44.52,8.72 C43.66,6.00 41.71,3.42 40.12,2.91 C37.35,2.11 25.89,3.08 21.02,4.79 C17.24,6.14 11.77,10.33 11.75,10.32 C11.57,10.09 7.56,6.60 5.32,5.18 C2.23,3.27 -2.99,1.86 -6.21,2.04 C-9.09,2.25 -13.49,3.69 -15.15,4.74 C-16.82,5.84 -19.81,9.47 -20.25,10.47 C-22.95,10.37 -28.66,10.23 -30.02,10.72 C-31.36,11.24 -34.34,14.58 -35.28,16.31 C-36.34,18.34 -36.94,23.75 -36.17,26.20 C-35.45,28.41 -33.20,31.53 -33.11,31.81 C-33.17,31.92 -36.48,32.40 -37.57,33.93 C-38.73,35.65 -39.52,40.08 -39.00,42.01 C-38.41,44.00 -35.56,47.60 -33.40,48.59 C-31.30,49.50 -26.98,49.61 -23.91,49.10 C-23.48,49.04 -22.62,48.95 -21.33,48.83" fill="none" stroke="rgb(255, 0, 0)" stroke-width="2.36" stroke-opacity="1.00" stroke-linejoin="round"/>
<path d="M-19.88,50.42 C-19.88,50.42 -21.21,50.42 -21.21,50.42 C-21.35,50.56 -17.38,54.67 -14.50,55.93 C-12.20,56.92 -5.93,57.93 -3.18,57.55 C-0.64,57.17 4.71,54.98 6.90,53.77 C8.42,52.92 13.77,49.07 14.37,48.92 C14.64,48.88 17.53,50.37 19.86,51.06 C22.82,51.91 30.01,52.29 33.00,52.22 C37.88,52.04 44.00,47.28 46.83,44.90 C47.23,45.21 49.84,45.36 52.40,44.72 C54.29,44.22 57.23,42.78 58.50,41.69 C59.49,40.79 60.78,38.64 61.04,37.56 C61.49,35.32 60.15,31.66 58.61,30.29 C58.06,29.81 57.24,29.32 56.57,29.00 C59.48,27.44 63.10,24.22 63.65,22.80 C64.10,21.44 63.14,19.29 61.29,17.57 C59.24,15.71 55.20,13.77 52.56,13.45 C51.39,13.32 48.15,13.47 46.97,13.68 C46.56,13.76 46.01,13.92 45.32,14.17" fill="none" stroke="rgb(255, 0, 0)" stroke-width="2.36" stroke-opacity="1.00" stroke-linejoin="round"/>
</g>
</svg>
