<?xml version="1.0" encoding="UTF-8" standalone="no"?>
<!DOCTYPE svg PUBLIC "-//W3C//DTD SVG 1.1//EN" "http://www.w3.org/Graphics/SVG/1.1/DTD/svg11.dtd">
<svg width="128.40" height="181.68" viewBox="0.00 0.00 535.00 757.00" xmlns="http://www.w3.org/2000/svg" xmlns:xlink="http://www.w3.org/1999/xlink">
<g stroke-linecap="round" transform="translate(44.00, 155.00)" id="107-가방">
<path d="M209.09,124.73 C209.09,124.73 208.16,124.73 208.16,124.73 C209.09,125.59 210.10,130.04 210.80,136.51 C211.30,141.45 211.55,151.86 212.02,155.22 C212.02,155.22 212.60,155.52 212.60,155.52" fill="none" stroke="rgb(0, 0, 255)" stroke-width="2.58" stroke-opacity="1.00" stroke-linejoin="round"/>
<path d="M213.28,124.26 C213.28,124.26 212.81,123.40 212.81,123.40 C213.08,124.22 215.63,131.07 215.97,134.53 C216.56,140.82 216.55,154.74 217.00,161.07 C217.00,161.07 217.47,158.71 217.47,158.71" fill="none" stroke="rgb(0, 0, 255)" stroke-width="2.58" stroke-opacity="1.00" stroke-linejoin="round"/>
<path d="M212.81,123.33 C212.81,123.10 212.81,122.87 212.81,122.63 C212.81,122.27 212.81,121.91 212.81,121.55 C210.90,121.37 209.40,121.69 208.69,122.58 C208.40,122.95 208.28,123.43 208.32,124.02 C208.36,124.36 208.52,125.29 208.81,126.80" fill="none" stroke="rgb(0, 0, 255)" stroke-width="2.58" stroke-opacity="1.00" stroke-linejoin="round"/>
<path d="M202.57,217.83 C202.57,217.83 202.57,217.59 202.57,217.59 C202.57,217.59 202.80,217.36 202.80,217.36 C202.80,217.36 203.04,217.36 203.04,217.36" fill="none" stroke="rgb(0, 0, 255)" stroke-width="2.58" stroke-opacity="1.00" stroke-linejoin="round"/>
<path d="M203.97,216.43 C203.97,216.43 203.04,216.43 203.04,216.43 C203.10,216.53 202.30,225.07 198.88,236.13 C197.83,239.37 195.34,246.98 195.22,248.00 C195.06,249.77 198.32,255.13 200.00,257.88 C202.73,262.41 206.01,269.01 206.26,269.27 C206.48,269.49 206.95,269.72 207.69,269.96" fill="none" stroke="rgb(0, 0, 255)" stroke-width="2.58" stroke-opacity="1.00" stroke-linejoin="round"/>
<path d="M208.16,230.86 C208.16,230.86 207.69,230.40 207.69,230.40 C207.69,230.40 205.40,255.89 205.40,255.89 C205.40,255.89 209.35,247.69 209.35,247.69 C209.35,247.69 209.60,252.54 209.60,252.54" fill="none" stroke="rgb(0, 0, 255)" stroke-width="2.58" stroke-opacity="1.00" stroke-linejoin="round"/>
<path d="M217.93,238.31 C217.93,238.31 217.70,238.31 217.70,238.31 C217.70,238.31 217.00,239.08 217.00,239.08 C216.94,239.43 218.15,256.13 217.41,262.41 C216.93,266.26 215.42,273.39 214.76,274.31 C214.56,274.58 214.08,274.91 213.35,275.30 C211.81,275.06 210.39,274.12 209.20,272.30 C207.68,269.78 205.53,266.28 204.90,265.31" fill="none" stroke="rgb(0, 0, 255)" stroke-width="2.58" stroke-opacity="1.00" stroke-linejoin="round"/>
</g>
</svg>
