<?xml version="1.0" encoding="UTF-8" standalone="no"?>
<!DOCTYPE svg PUBLIC "-//W3C//DTD SVG 1.1//EN" "http://www.w3.org/Graphics/SVG/1.1/DTD/svg11.dtd">
<svg width="128.40" height="181.68" viewBox="0.00 0.00 535.00 757.00" xmlns="http://www.w3.org/2000/svg" xmlns:xlink="http://www.w3.org/1999/xlink">
<g stroke-linecap="round" transform="translate(44.00, 155.00)" id="107-우산">
<path d="M163.00,14.87 C163.00,14.87 162.92,12.67 162.92,12.67 C161.64,14.23 158.62,18.61 154.77,23.59 C151.26,28.04 119.87,58.31 119.66,58.96 C117.92,64.69 112.85,75.16 109.72,81.47 C108.65,83.85 103.36,99.59 101.24,106.32 C100.39,109.12 99.22,114.82 99.94,115.83 C100.50,116.54 106.70,116.79 108.62,116.70 C109.68,116.64 112.20,116.49 113.66,116.40" fill="none" stroke="rgb(0, 255, 255)" stroke-width="2.58" stroke-opacity="1.00" stroke-linejoin="round"/>
<path d="M102.95,112.16" fill="none" stroke="rgb(0, 255, 255)" stroke-width="2.58" stroke-opacity="1.00" stroke-linejoin="round"/>
<path d="M102.95,112.62 C102.88,113.43 102.80,113.97 102.72,114.25 C102.64,114.54 102.43,114.95 102.10,115.50" fill="none" stroke="rgb(0, 255, 255)" stroke-width="2.58" stroke-opacity="1.00" stroke-linejoin="round"/>
<path d="M101.56,118.68 C101.56,118.68 101.56,117.75 101.56,117.75 C101.56,117.75 101.79,117.51 101.79,117.51 C101.79,117.51 102.49,117.98 102.49,117.98 C103.23,116.98 105.07,114.29 105.47,113.88 C106.91,112.42 114.35,109.85 117.12,108.39 C119.71,107.02 123.68,103.76 127.45,102.26 C136.69,98.44 149.38,93.08 150.05,92.90 C153.74,92.19 160.16,90.70 162.91,89.92 C164.87,89.41 172.03,87.35 175.13,86.44" fill="none" stroke="rgb(0, 255, 255)" stroke-width="2.58" stroke-opacity="1.00" stroke-linejoin="round"/>
<path d="M192.33,84.23 C192.33,84.23 190.47,82.56 190.47,82.56 C192.27,82.93 196.28,82.35 198.99,81.51 C201.05,80.85 205.85,79.06 206.69,79.05 C206.69,79.05 206.39,79.91 206.39,79.91" fill="none" stroke="rgb(0, 255, 255)" stroke-width="2.58" stroke-opacity="1.00" stroke-linejoin="round"/>
<path d="M268.21,67.94 C268.21,67.94 266.11,67.70 266.11,67.70 C266.11,67.70 265.88,67.24 265.88,67.24 C266.41,66.30 280.54,65.85 286.66,66.90 C287.49,67.04 291.39,67.94 293.11,68.34 C293.03,68.41 282.60,58.08 282.24,57.79 C281.91,57.52 281.14,57.03 279.94,56.32" fill="none" stroke="rgb(0, 255, 255)" stroke-width="2.58" stroke-opacity="1.00" stroke-linejoin="round"/>
<path d="M292.41,67.94 C291.79,67.96 290.91,67.89 290.08,67.70 C289.89,67.66 289.60,67.58 289.21,67.47 C291.84,67.41 296.77,69.03 297.29,69.14 C297.58,69.21 298.06,69.26 298.72,69.31 C291.49,63.87 285.58,55.83 284.65,54.97 C283.81,54.23 275.49,54.20 272.67,53.99 C268.38,53.64 253.91,50.41 248.91,49.81 C244.65,49.31 218.94,47.25 216.21,47.10 C213.34,46.97 208.31,48.04 204.81,49.71 C204.34,49.94 188.50,57.68 181.99,60.00 C177.12,61.75 141.12,76.44 140.27,76.81 C136.98,78.28 133.49,80.58 131.29,82.80 C127.73,86.48 115.02,102.14 114.88,102.41 C114.62,102.94 114.20,104.14 113.64,105.99" fill="none" stroke="rgb(0, 255, 255)" stroke-width="2.58" stroke-opacity="1.00" stroke-linejoin="round"/>
<path d="M211.41,44.66 C211.41,44.66 211.88,44.66 211.88,44.66 C211.90,44.66 205.72,43.25 203.49,42.15 C201.27,41.01 199.13,38.12 197.58,35.06 C196.59,33.14 193.95,29.23 192.69,27.91 C191.56,26.76 185.63,22.68 184.61,21.78 C183.79,21.04 181.91,18.69 181.44,18.08 C181.10,17.64 180.39,16.72 179.30,15.34" fill="none" stroke="rgb(0, 255, 255)" stroke-width="2.58" stroke-opacity="1.00" stroke-linejoin="round"/>
<path d="M176.50,16.73 C176.50,16.73 172.43,16.27 172.43,16.27 C175.41,14.98 204.43,13.39 206.65,13.54 C208.43,13.66 218.09,16.85 219.48,16.89 C219.88,16.90 220.60,16.85 221.63,16.73" fill="none" stroke="rgb(0, 255, 255)" stroke-width="2.58" stroke-opacity="1.00" stroke-linejoin="round"/>
<path d="M223.52,16.73 C223.52,16.73 221.89,17.20 221.89,17.20 C221.66,17.65 222.50,18.31 225.37,19.90 C228.02,21.38 231.14,22.97 237.09,25.85 C239.33,26.93 245.27,29.93 248.76,30.38 C251.92,30.76 256.93,31.57 259.19,32.07 C259.19,32.07 258.43,32.56 258.43,32.56" fill="none" stroke="rgb(0, 255, 255)" stroke-width="2.58" stroke-opacity="1.00" stroke-linejoin="round"/>
<path d="M266.34,35.35 C266.34,35.35 262.93,35.74 262.93,35.74 C262.82,36.71 265.26,38.82 266.25,39.62 C267.37,40.54 271.90,46.70 272.57,47.51 C274.53,49.81 279.35,53.39 280.06,54.16 C280.22,54.34 280.46,54.59 280.77,54.90" fill="none" stroke="rgb(0, 255, 255)" stroke-width="2.58" stroke-opacity="1.00" stroke-linejoin="round"/>
<path d="M283.57,41.87 C283.57,41.87 282.40,41.40 282.40,41.40 C282.40,41.40 281.75,41.71 281.75,41.71 C283.64,45.32 286.83,59.14 288.81,64.71 C288.90,64.95 289.02,65.25 289.15,65.61" fill="none" stroke="rgb(0, 255, 255)" stroke-width="2.58" stroke-opacity="1.00" stroke-linejoin="round"/>
<path d="M214.21,40.47 C214.14,40.52 214.06,40.52 213.97,40.47 C213.89,40.43 213.68,40.27 213.35,40.01 C213.34,38.81 213.47,38.07 214.08,36.85 C215.51,33.99 215.97,32.79 215.83,32.33 C214.45,31.87 212.87,31.87 211.13,32.70 C206.73,34.83 192.57,46.98 187.49,51.26 C179.84,58.09 177.31,60.50 176.69,61.11 C176.69,61.11 178.82,58.76 178.82,58.76 C178.82,58.76 176.83,59.76 176.83,59.76 C177.07,57.20 193.50,31.71 193.76,30.99 C192.04,30.26 186.47,34.90 176.41,44.11 C158.86,59.80 152.95,65.88 150.66,67.85 C150.52,67.70 159.75,54.33 163.38,48.72 C173.40,32.56 175.06,25.65 174.96,24.75 C174.08,24.69 164.18,35.81 156.50,45.14 C151.61,51.24 141.19,64.64 139.20,67.01 C137.08,69.50 133.68,72.86 130.79,75.40 C130.79,75.40 153.31,32.87 153.31,32.87 C149.84,36.55 141.21,50.46 137.39,56.93 C130.20,69.52 123.54,83.49 122.78,84.81 C122.78,84.81 122.47,84.19 122.47,84.19" fill="none" stroke="rgb(0, 255, 255)" stroke-width="2.58" stroke-opacity="1.00" stroke-linejoin="round"/>
<path d="M127.62,60.49 C127.62,60.49 128.56,60.11 128.56,60.11 C124.43,68.00 119.14,83.70 117.91,86.92 C115.07,94.32 108.18,106.95 108.11,106.15 C108.11,106.15 110.41,101.47 110.41,101.47" fill="none" stroke="rgb(0, 255, 255)" stroke-width="2.58" stroke-opacity="1.00" stroke-linejoin="round"/>
<path d="M109.47,107.04 C109.47,107.04 106.68,109.60 106.68,109.60 C108.58,107.53 112.99,102.76 115.50,100.07 C116.73,98.78 118.75,96.65 119.53,95.82" fill="none" stroke="rgb(0, 255, 255)" stroke-width="2.58" stroke-opacity="1.00" stroke-linejoin="round"/>
<path d="M114.13,110.30 C114.13,110.30 112.26,111.23 112.26,111.23 C114.14,109.41 129.28,93.61 133.72,89.69 C137.31,86.55 143.66,80.73 143.97,80.46 C147.38,77.55 148.78,77.26 149.31,77.26 C149.03,79.45 148.80,80.46 148.22,81.30 C141.10,91.76 140.30,93.11 139.85,94.07 C139.85,94.07 163.07,74.46 163.07,74.46 C163.86,76.02 156.32,88.26 155.95,89.11 C159.02,87.07 163.86,83.13 166.26,81.41 C168.66,79.71 172.65,77.23 173.63,76.63" fill="none" stroke="rgb(0, 255, 255)" stroke-width="2.58" stroke-opacity="1.00" stroke-linejoin="round"/>
<path d="M191.40,75.85 C191.40,75.85 190.47,75.72 190.47,75.72 C192.86,74.61 194.65,73.88 195.79,73.74 C196.22,73.69 197.23,73.62 198.84,73.52" fill="none" stroke="rgb(0, 255, 255)" stroke-width="2.58" stroke-opacity="1.00" stroke-linejoin="round"/>
<path d="M237.02,35.82 C237.02,35.82 237.48,35.35 237.48,35.35 C237.48,35.35 237.48,34.89 237.48,34.89 C234.35,36.77 230.92,39.16 228.53,41.38 C226.41,43.37 222.83,47.24 220.37,50.01" fill="none" stroke="rgb(0, 255, 255)" stroke-width="2.58" stroke-opacity="1.00" stroke-linejoin="round"/>
<path d="M174.17,64.21 C174.17,64.21 173.71,64.21 173.71,64.21 C173.64,64.18 176.66,69.26 178.29,73.16 C179.43,75.94 180.85,81.05 182.32,87.08 C183.16,90.47 187.29,102.35 189.06,107.88 C190.57,112.43 199.51,145.90 200.23,147.81 C200.23,147.81 200.71,148.00 200.71,148.00" fill="none" stroke="rgb(0, 255, 255)" stroke-width="2.58" stroke-opacity="1.00" stroke-linejoin="round"/>
<path d="M181.16,62.82 C181.16,62.82 181.16,63.05 181.16,63.05 C181.16,63.05 180.51,63.37 180.51,63.37 C180.51,63.37 180.23,63.75 180.23,63.75 C180.95,63.74 181.37,64.12 181.88,65.60 C186.34,78.57 195.11,103.52 198.75,117.59 C200.63,125.43 203.86,140.59 205.58,148.31 C208.21,159.04 211.69,169.65 212.79,173.34 C212.79,173.34 212.81,173.24 212.81,173.24" fill="none" stroke="rgb(0, 255, 255)" stroke-width="2.58" stroke-opacity="1.00" stroke-linejoin="round"/>
<path d="M203.97,161.04 C205.46,163.84 208.56,174.41 208.68,174.77 C208.81,175.15 209.03,175.71 209.34,176.44" fill="none" stroke="rgb(0, 255, 255)" stroke-width="2.58" stroke-opacity="1.00" stroke-linejoin="round"/>
<path d="M213.74,182.45 C213.74,182.45 213.04,182.68 213.04,182.68 C212.84,183.34 212.72,184.13 212.94,184.92 C213.28,186.16 213.65,187.15 214.04,187.89 C214.23,188.25 214.54,188.58 214.96,188.88" fill="none" stroke="rgb(0, 255, 255)" stroke-width="2.58" stroke-opacity="1.00" stroke-linejoin="round"/>
<path d="M217.93,184.31 C217.58,184.57 217.36,184.75 217.27,184.84 C217.18,184.93 217.09,185.07 217.00,185.24 C216.99,185.23 217.38,185.82 217.66,186.45 C218.09,187.42 219.09,189.94 219.33,190.36" fill="none" stroke="rgb(0, 255, 255)" stroke-width="2.58" stroke-opacity="1.00" stroke-linejoin="round"/>
<path d="M215.60,202.93 C215.60,202.93 214.21,202.93 214.21,202.93 C214.20,210.34 214.15,231.69 214.22,232.45 C214.46,234.86 214.99,236.74 215.42,236.78 C216.43,236.69 217.97,234.66 218.27,232.93 C218.65,230.61 218.87,204.78 218.86,202.45 C218.86,202.45 218.86,224.14 218.86,224.14" fill="none" stroke="rgb(0, 255, 255)" stroke-width="2.58" stroke-opacity="1.00" stroke-linejoin="round"/>
<path d="M213.28,182.45 C213.28,182.45 213.04,182.45 213.04,182.45 C213.04,182.45 212.81,182.68 212.81,182.68 C212.78,182.85 212.78,183.02 212.81,183.19 C212.84,183.37 212.93,183.81 213.09,184.50" fill="none" stroke="rgb(0, 255, 255)" stroke-width="2.58" stroke-opacity="1.00" stroke-linejoin="round"/>
</g>
</svg>
