<?xml version="1.0" encoding="UTF-8" standalone="no"?>
<!DOCTYPE svg PUBLIC "-//W3C//DTD SVG 1.1//EN" "http://www.w3.org/Graphics/SVG/1.1/DTD/svg11.dtd">
<svg width="128.40" height="181.68" viewBox="0.00 0.00 535.00 757.00" xmlns="http://www.w3.org/2000/svg" xmlns:xlink="http://www.w3.org/1999/xlink">
<g stroke-linecap="round" transform="translate(44.00, 155.00)" id="108-사람">
<path d="M231.99,228.99 C232.29,228.53 232.59,228.08 232.89,227.63 C232.99,227.48 233.09,227.33 233.19,227.18 C227.88,227.11 223.57,227.31 221.49,228.07 C220.79,228.34 218.06,229.61 217.07,230.17 C214.60,231.60 212.86,233.23 212.26,234.79 C211.53,236.82 210.94,249.53 210.94,258.47 C211.16,276.33 213.26,291.83 213.68,293.33 C213.68,293.33 213.58,239.05 213.58,239.05 C213.58,239.05 218.06,287.71 218.06,287.71 C218.06,287.71 215.79,235.07 215.79,235.07 C215.79,235.07 222.80,292.66 222.80,292.66 C223.05,288.18 219.52,249.01 218.91,235.02 C218.87,233.66 218.83,230.79 218.82,229.09 C218.82,229.09 227.01,291.20 227.01,291.20 C227.38,289.54 223.44,245.92 223.17,237.19 C223.10,235.07 223.00,231.89 222.98,230.84 C222.98,230.84 231.75,294.36 231.75,294.36 C232.17,289.33 228.55,256.81 227.27,243.76 C226.78,237.22 226.04,226.76 226.38,226.88 C226.38,226.88 235.84,293.46 235.84,293.46 C235.89,291.85 233.38,273.43 232.21,264.75 C230.16,247.82 229.66,231.99 229.59,228.78 C229.63,228.81 236.35,277.51 237.49,282.22 C238.25,285.28 239.73,289.95 240.05,290.96 C240.05,290.96 233.79,230.04 233.79,230.04 C234.38,233.11 238.20,248.55 239.76,255.43 C242.55,268.99 245.39,288.31 245.80,292.56 C237.89,246.41 236.78,232.27 237.03,231.26 C238.19,234.73 241.45,247.00 243.11,255.37 C246.11,272.09 247.68,287.19 248.21,294.41 C248.07,290.99 240.73,249.85 240.63,239.26 C240.63,238.83 240.64,238.22 240.66,237.43 C240.66,237.43 250.49,291.09 250.49,291.09 C250.49,291.09 245.83,242.18 245.83,242.18 C245.83,242.18 252.22,288.24 252.22,288.24 C252.32,287.77 250.35,273.59 249.35,266.38 C248.14,258.22 245.67,248.17 242.08,239.08 C240.61,235.43 237.89,229.93 236.89,228.41 C234.89,225.42 231.46,222.75 229.37,222.48 C227.12,222.26 221.27,223.72 219.65,225.22 C217.62,227.17 215.14,230.22 213.38,233.05 C211.87,235.52 211.08,239.10 210.67,242.99 C209.99,252.18 214.17,277.12 215.50,284.61 C215.86,286.77 216.50,290.91 217.57,292.24 C217.57,292.24 218.67,280.50 218.67,280.50 C218.67,280.50 222.03,293.68 222.03,293.68 C222.03,293.68 223.08,280.96 223.08,280.96 C223.08,280.96 226.18,295.31 226.18,295.31 C226.18,295.31 227.44,282.84 227.44,282.84 C227.44,282.84 231.23,293.05 231.23,293.05 C232.35,289.80 232.20,282.89 232.24,281.73 C232.30,280.05 232.49,277.50 232.65,276.04 C233.33,275.88 234.49,280.23 235.88,285.94 C236.36,287.92 236.90,289.49 237.99,292.19 C237.99,292.19 236.66,262.49 236.66,262.49 C236.66,262.49 243.07,290.96 243.07,290.96 C243.07,290.96 238.48,248.26 238.48,248.26 C238.48,248.26 245.02,285.13 245.02,285.13 C245.02,285.13 244.60,278.84 244.60,278.84" fill="none" stroke="rgb(255, 0, 255)" stroke-width="3.05" stroke-opacity="1.00" stroke-linejoin="round"/>
<path d="M245.20,250.61 C245.20,250.61 244.90,250.61 244.90,250.61 C244.73,250.51 244.15,249.52 244.00,248.84 C243.87,248.23 242.76,240.23 241.68,237.59 C240.54,234.90 237.54,230.60 235.66,229.20 C233.79,227.86 229.81,226.20 227.34,225.59 C224.61,224.95 220.63,225.04 218.23,226.28 C216.95,226.97 214.61,228.76 213.94,229.30 C211.56,231.34 210.09,235.03 208.87,241.44 C208.44,244.14 208.10,259.15 208.70,268.82 C210.26,289.14 213.01,296.06 213.36,296.31 C213.36,296.31 214.22,293.29 214.22,293.29 C214.22,293.29 214.03,297.11 214.03,297.11 C214.03,297.11 216.26,290.96 216.26,290.96 C216.26,290.96 218.40,293.99 218.40,293.99 C218.40,293.99 219.97,293.26 219.97,293.26" fill="none" stroke="rgb(255, 0, 255)" stroke-width="3.05" stroke-opacity="1.00" stroke-linejoin="round"/>
<path d="M210.96,294.46 C210.96,294.46 209.16,295.23 209.16,295.23 C209.18,295.68 211.22,300.74 212.25,301.37 C213.00,301.79 217.14,302.83 218.25,302.72 C218.84,302.66 219.82,302.31 221.18,301.67" fill="none" stroke="rgb(255, 0, 255)" stroke-width="3.05" stroke-opacity="1.00" stroke-linejoin="round"/>
<path d="M221.18,293.86 C220.72,294.27 219.56,295.34 219.43,295.65 C219.34,295.90 221.07,318.26 221.18,320.63 C221.09,321.03 251.27,314.23 253.07,313.09 C254.26,312.30 255.58,310.32 255.53,309.39 C255.29,306.74 250.87,291.98 250.67,291.53 C250.51,291.18 250.09,290.36 249.41,289.06" fill="none" stroke="rgb(255, 0, 255)" stroke-width="3.05" stroke-opacity="1.00" stroke-linejoin="round"/>
<path d="M250.01,296.86 C250.01,296.86 249.41,298.84 249.41,298.84 C249.41,298.84 249.73,299.27 249.73,299.27 C253.35,299.28 255.55,298.90 257.14,297.33 C257.79,296.62 258.82,294.19 258.90,292.90 C258.99,290.53 253.63,283.08 252.46,281.05 C251.60,279.56 251.06,278.61 250.84,278.20 C250.64,277.82 250.37,277.23 250.01,276.44" fill="none" stroke="rgb(255, 0, 255)" stroke-width="3.05" stroke-opacity="1.00" stroke-linejoin="round"/>
<path d="M235.59,326.30 C234.73,327.12 234.18,327.62 233.94,327.80 C233.71,327.98 233.45,328.08 233.19,328.10 C233.19,328.10 226.90,327.13 226.90,327.13 C226.90,327.13 230.40,333.86 230.40,333.86 C231.48,332.36 232.97,329.99 233.29,328.88 C233.61,327.78 233.45,325.49 233.20,324.06" fill="none" stroke="rgb(255, 0, 255)" stroke-width="3.05" stroke-opacity="1.00" stroke-linejoin="round"/>
<path d="M225.38,316.09 C225.38,316.09 225.38,315.49 225.38,315.49 C225.38,315.49 224.36,316.10 224.36,316.10 C224.16,319.54 224.25,336.96 224.81,340.65 C227.09,355.07 235.63,376.55 236.48,377.71 C239.35,377.57 243.83,376.11 244.42,374.74 C245.41,372.31 243.68,355.39 242.76,346.44 C242.41,343.08 241.65,335.88 241.72,335.55 C241.76,335.37 241.92,335.09 242.20,334.71" fill="none" stroke="rgb(255, 0, 255)" stroke-width="3.05" stroke-opacity="1.00" stroke-linejoin="round"/>
<path d="M241.60,367.15 C241.26,367.96 241.06,368.51 241.00,368.80 C240.94,369.08 240.94,369.50 241.00,370.05 C241.00,370.05 241.60,370.15 241.60,370.15 C238.81,368.91 235.24,368.54 234.85,368.40 C234.60,368.32 234.25,368.10 233.79,367.75" fill="none" stroke="rgb(255, 0, 255)" stroke-width="3.05" stroke-opacity="1.00" stroke-linejoin="round"/>
<path d="M243.40,335.91 C243.40,335.91 242.20,334.11 242.20,334.11 C242.21,336.48 245.33,345.57 249.65,360.65 C250.64,364.08 252.74,371.03 253.24,372.42 C253.55,373.16 258.05,373.12 263.40,372.83 C265.39,372.72 266.25,372.30 266.87,371.35 C266.22,368.02 262.95,354.99 260.74,343.69 C259.29,336.00 255.43,315.82 254.97,313.98 C254.86,313.58 254.61,312.68 254.21,311.28" fill="none" stroke="rgb(255, 0, 255)" stroke-width="3.05" stroke-opacity="1.00" stroke-linejoin="round"/>
<path d="M265.03,366.55 C264.61,366.52 263.99,366.62 263.53,366.85 C263.13,367.04 261.78,367.95 261.45,368.06 C260.38,368.39 255.98,368.36 254.75,368.35 C253.77,368.35 252.79,368.35 251.81,368.35" fill="none" stroke="rgb(255, 0, 255)" stroke-width="3.05" stroke-opacity="1.00" stroke-linejoin="round"/>
<path d="M242.20,368.95 C242.20,368.95 241.08,370.15 241.08,370.15 C243.51,368.14 244.13,367.74 244.51,367.75 C244.70,367.76 245.07,367.76 245.63,367.75" fill="none" stroke="rgb(255, 0, 255)" stroke-width="3.05" stroke-opacity="1.00" stroke-linejoin="round"/>
<path d="M239.20,379.16 C239.20,379.16 236.79,378.89 236.79,378.89 C237.29,382.10 237.69,384.27 238.11,384.94 C238.29,385.25 238.81,385.89 239.64,386.87" fill="none" stroke="rgb(255, 0, 255)" stroke-width="3.05" stroke-opacity="1.00" stroke-linejoin="round"/>
<path d="M244.00,376.76 C243.21,378.31 242.71,379.49 242.88,380.19 C242.97,380.59 244.44,383.93 245.20,385.77 C243.93,385.77 241.73,385.79 241.39,385.93 C240.15,386.52 239.51,390.08 239.93,393.15 C240.17,394.85 240.89,395.87 242.51,397.10 C244.65,396.61 245.83,396.08 246.17,395.14 C246.81,393.24 246.02,388.49 245.20,384.57" fill="none" stroke="rgb(255, 0, 255)" stroke-width="3.05" stroke-opacity="1.00" stroke-linejoin="round"/>
<path d="M260.22,374.96 C260.22,374.96 256.62,375.56 256.62,375.56 C256.79,376.53 257.52,379.71 257.98,380.43 C258.23,380.84 258.78,381.21 259.61,381.56" fill="none" stroke="rgb(255, 0, 255)" stroke-width="3.05" stroke-opacity="1.00" stroke-linejoin="round"/>
<path d="M264.43,373.15 C264.14,373.57 263.94,373.87 263.83,374.05 C263.11,375.22 262.71,376.02 262.62,376.46 C262.55,376.84 264.01,380.87 264.43,382.16 C261.40,382.18 259.74,382.32 258.99,382.77 C258.11,383.34 257.23,384.77 257.15,385.87 C257.07,387.89 259.30,392.92 260.67,393.83 C261.12,394.09 263.18,393.86 265.17,393.46 C267.62,392.94 268.64,392.33 268.81,391.51 C268.45,389.39 264.99,381.10 264.82,380.54 C264.74,380.27 264.61,379.61 264.43,378.56" fill="none" stroke="rgb(255, 0, 255)" stroke-width="3.05" stroke-opacity="1.00" stroke-linejoin="round"/>
</g>
</svg>
