<?xml version="1.0" encoding="UTF-8" standalone="no"?>
<!DOCTYPE svg PUBLIC "-//W3C//DTD SVG 1.1//EN" "http://www.w3.org/Graphics/SVG/1.1/DTD/svg11.dtd">
<svg width="128.40" height="181.68" viewBox="0.00 0.00 535.00 757.00" xmlns="http://www.w3.org/2000/svg" xmlns:xlink="http://www.w3.org/1999/xlink">
<g stroke-linecap="round" transform="translate(44.00, 155.00)" id="108-우산">
<path d="M210.36,165.31 C210.24,165.36 208.01,163.82 207.96,163.54 C207.85,162.66 208.23,159.90 208.73,159.21 C209.23,158.52 211.54,158.00 212.68,158.16 C213.96,158.41 215.08,159.74 215.54,161.44 C216.15,163.92 216.28,166.51 216.15,167.11 C209.99,166.80 204.53,166.64 201.75,167.00 C199.48,167.31 193.63,169.03 190.56,170.55 C188.96,171.35 183.07,174.98 180.38,176.95 C177.06,179.40 173.68,182.33 170.87,186.09 C166.92,191.51 158.89,202.61 155.73,209.29 C154.11,212.75 152.21,218.42 151.76,220.61 C150.58,226.55 151.17,232.07 151.37,233.21 C153.50,229.13 155.61,226.31 157.32,224.91 C160.77,222.16 172.73,217.67 177.43,217.29 C179.70,217.12 184.11,217.43 186.18,217.92 C187.80,218.31 193.39,220.36 195.44,221.76 C197.57,223.24 199.06,227.29 198.95,227.74 C198.93,226.26 200.95,222.36 202.80,220.28 C204.51,218.42 209.29,214.81 210.84,213.96 C213.00,212.80 222.01,209.78 222.18,209.74 C224.12,209.27 226.71,209.07 228.36,209.34 C232.06,209.99 238.90,213.07 240.51,214.31 C243.86,216.96 245.53,220.08 246.41,222.24 C246.05,221.97 248.90,215.44 251.45,212.81 C252.83,211.43 255.81,209.72 257.60,209.26 C260.01,208.69 269.16,208.53 271.98,209.03 C277.16,210.02 289.06,217.58 289.12,217.57 C289.32,217.54 291.88,217.56 291.79,217.55 C287.17,208.08 282.38,199.15 277.18,192.08 C274.60,188.63 271.58,185.34 268.75,182.97 C263.07,178.30 253.97,173.27 246.80,170.91 C241.41,169.15 221.74,165.01 219.40,164.96 C218.24,164.94 216.93,165.34 214.86,166.20 C215.42,167.82 215.96,168.66 217.18,169.62 C222.48,173.80 229.16,182.28 235.15,190.84 C238.19,195.23 239.43,197.38 241.49,202.10 C245.86,212.36 247.42,218.02 247.82,219.82 C247.82,219.82 247.61,219.37 247.61,219.37" fill="none" stroke="rgb(0, 255, 255)" stroke-width="3.05" stroke-opacity="1.00" stroke-linejoin="round"/>
<path d="M209.16,168.31 C209.16,168.31 209.76,168.31 209.76,168.31 C209.23,171.69 204.81,189.07 203.90,196.59 C201.02,222.02 200.94,223.43 200.86,225.58 C200.83,226.52 200.79,227.45 200.75,228.38" fill="none" stroke="rgb(0, 255, 255)" stroke-width="3.05" stroke-opacity="1.00" stroke-linejoin="round"/>
<path d="M215.77,213.97 C215.40,213.97 215.04,213.97 214.67,213.97 C214.43,213.97 214.20,213.97 213.97,213.97 C213.97,213.97 217.43,227.19 217.43,227.19 C217.43,227.19 218.17,227.18 218.17,227.18" fill="none" stroke="rgb(0, 255, 255)" stroke-width="3.05" stroke-opacity="1.00" stroke-linejoin="round"/>
<path d="M221.78,213.37 C221.78,213.37 220.58,213.37 220.58,213.37 C220.83,214.82 221.48,218.47 221.87,220.67 C222.32,223.07 223.08,226.13 223.58,227.58 C223.71,227.96 223.91,228.43 224.18,228.99" fill="none" stroke="rgb(0, 255, 255)" stroke-width="3.05" stroke-opacity="1.00" stroke-linejoin="round"/>
</g>
</svg>
