<?xml version="1.0" encoding="UTF-8" standalone="no"?>
<!DOCTYPE svg PUBLIC "-//W3C//DTD SVG 1.1//EN" "http://www.w3.org/Graphics/SVG/1.1/DTD/svg11.dtd">
<svg width="128.40" height="181.68" viewBox="0.00 0.00 535.00 757.00" xmlns="http://www.w3.org/2000/svg" xmlns:xlink="http://www.w3.org/1999/xlink">
<g stroke-linecap="round" transform="translate(44.00, 155.00)" id="108-물웅덩이">
<path d="M173.72,350.93 C172.58,352.17 171.86,353.42 171.91,356.30 C171.99,358.10 172.41,359.68 173.15,360.47 C173.87,361.19 176.49,362.30 177.98,362.57 C179.56,362.81 183.00,362.67 184.33,362.24 C185.83,361.71 188.03,359.76 188.86,358.30 C189.42,357.23 190.26,354.13 190.10,353.15 C189.87,351.89 189.40,350.82 188.70,349.94 C188.28,349.43 187.29,348.56 185.73,347.32" fill="none" stroke="rgb(0, 0, 255)" stroke-width="3.05" stroke-opacity="1.00" stroke-linejoin="round"/>
<path d="M166.51,352.13 C166.02,352.84 165.73,353.32 165.71,353.33 C164.53,354.01 162.18,357.22 161.41,359.90 C160.74,362.36 160.55,367.25 161.45,369.03 C162.44,370.88 166.40,373.62 169.19,374.40 C172.44,375.25 178.60,375.08 182.46,374.15 C186.22,373.20 192.81,370.22 195.05,368.36 C197.16,366.54 199.19,362.68 199.37,360.32 C199.61,356.44 197.48,350.10 197.15,349.13" fill="none" stroke="rgb(0, 0, 255)" stroke-width="3.05" stroke-opacity="1.00" stroke-linejoin="round"/>
<path d="M210.96,350.93 C209.81,352.03 209.69,354.17 210.90,356.01 C211.33,356.67 213.38,359.26 213.87,360.23 C215.21,362.94 215.58,368.23 214.51,370.53 C212.98,373.70 208.70,379.00 206.49,381.59 C204.55,383.85 201.76,386.55 198.06,388.37 C194.57,390.06 184.26,392.23 179.42,392.27 C177.21,392.28 172.05,391.64 169.74,391.08 C166.92,390.38 162.12,388.23 160.18,386.62 C158.14,384.86 155.12,380.17 153.89,377.07 C152.80,374.27 151.64,369.33 151.35,366.53 C151.11,363.79 151.97,360.87 153.71,357.90 C154.37,356.77 155.04,355.65 155.70,354.53" fill="none" stroke="rgb(0, 0, 255)" stroke-width="3.05" stroke-opacity="1.00" stroke-linejoin="round"/>
<path d="M147.29,357.54 C145.60,358.66 143.96,360.21 143.28,361.46 C143.08,361.86 143.07,379.27 143.99,382.05 C144.87,384.63 147.65,389.01 149.40,390.55 C152.22,392.95 165.60,397.56 170.78,398.45 C180.71,400.04 188.70,400.16 194.77,398.93 C197.35,398.40 207.03,395.39 209.50,394.50 C213.61,392.99 218.50,389.87 220.48,387.91 C221.92,386.44 224.20,382.58 224.85,380.41 C225.14,379.44 226.87,370.88 227.01,368.74 C227.06,367.87 226.80,361.76 225.74,359.12 C224.38,355.84 220.05,352.63 215.89,350.75 C213.84,349.85 189.64,345.31 186.02,345.01 C185.55,344.97 175.78,344.96 172.75,345.38 C168.96,345.94 163.91,347.50 160.40,349.03 C157.32,350.40 150.65,353.38 148.61,354.85 C148.04,355.27 143.46,362.31 143.01,363.46 C141.98,366.20 143.56,376.58 143.69,377.36" fill="none" stroke="rgb(0, 0, 255)" stroke-width="3.05" stroke-opacity="1.00" stroke-linejoin="round"/>
</g>
</svg>
