<?xml version="1.0" encoding="UTF-8" standalone="no"?>
<!DOCTYPE svg PUBLIC "-//W3C//DTD SVG 1.1//EN" "http://www.w3.org/Graphics/SVG/1.1/DTD/svg11.dtd">
<svg width="128.40" height="181.68" viewBox="0.00 0.00 535.00 757.00" xmlns="http://www.w3.org/2000/svg" xmlns:xlink="http://www.w3.org/1999/xlink">
<g stroke-linecap="round" transform="translate(44.00, 155.00)" id="109-비">
<path d="M103.78,-90.79 C102.65,-90.55 100.30,-89.64 99.44,-88.83 C98.57,-87.98 89.13,-68.78 86.11,-63.91 C83.35,-59.50 70.12,-41.43 69.21,-39.97 C69.21,-39.97 70.03,-39.07 70.03,-39.07" fill="none" stroke="rgb(229, 0, 16)" stroke-width="2.85" stroke-opacity="1.00" stroke-linejoin="round"/>
<path d="M88.09,-36.37 C88.09,-36.37 88.01,-39.07 88.01,-39.07 C88.01,-39.07 74.93,27.65 74.93,27.65 C74.93,27.65 75.49,28.07 75.49,28.07" fill="none" stroke="rgb(229, 0, 16)" stroke-width="2.85" stroke-opacity="1.00" stroke-linejoin="round"/>
<path d="M127.80,-59.91 C128.37,-59.40 128.29,-55.21 128.29,-53.06 C128.28,-47.00 128.28,-32.41 128.29,-23.88 C128.29,12.09 128.29,53.75 128.29,59.43 C128.29,60.71 128.29,62.78 128.29,63.57" fill="none" stroke="rgb(229, 0, 16)" stroke-width="2.85" stroke-opacity="1.00" stroke-linejoin="round"/>
<path d="M7.19,-7.45 C7.19,-7.45 7.68,-7.28 7.68,-7.28 C7.13,-5.53 5.25,-0.41 4.15,2.57 C1.88,8.93 -2.42,21.46 -4.46,27.63 C-5.91,32.29 -7.85,41.34 -8.42,44.12" fill="none" stroke="rgb(229, 0, 16)" stroke-width="2.85" stroke-opacity="1.00" stroke-linejoin="round"/>
<path d="M183.69,-35.39 C181.65,-32.96 180.06,-22.71 179.70,-15.62 C179.12,0.87 178.34,25.61 178.30,31.48 C178.30,38.44 178.30,46.56 178.30,47.72" fill="none" stroke="rgb(229, 0, 16)" stroke-width="2.85" stroke-opacity="1.00" stroke-linejoin="round"/>
<path d="M234.19,-4.02 C234.08,-3.71 232.67,0.00 232.70,4.07 C232.70,11.69 232.71,27.78 232.71,36.25 C232.70,44.02 232.74,61.08 233.09,64.85 C233.15,65.50 233.26,66.39 233.42,67.53" fill="none" stroke="rgb(229, 0, 16)" stroke-width="2.85" stroke-opacity="1.00" stroke-linejoin="round"/>
<path d="M255.76,-91.77 C255.76,-91.77 254.29,-92.75 254.29,-92.75 C252.18,-86.94 247.61,-74.65 245.16,-68.16 C244.42,-66.12 243.03,-62.16 242.36,-60.24 C241.60,-58.02 240.92,-55.86 240.44,-54.35" fill="none" stroke="rgb(229, 0, 16)" stroke-width="2.85" stroke-opacity="1.00" stroke-linejoin="round"/>
<path d="M307.73,-63.83 C307.73,-63.83 307.48,-64.69 307.48,-64.69 C307.15,-64.93 304.91,-65.45 301.09,-60.46 C299.35,-58.16 288.36,-42.20 283.57,-35.28 C278.19,-27.84 268.35,-15.05 267.77,-14.23 C267.53,-13.89 267.27,-13.37 266.97,-12.67" fill="none" stroke="rgb(229, 0, 16)" stroke-width="2.85" stroke-opacity="1.00" stroke-linejoin="round"/>
<path d="M329.30,-49.12 C327.33,-48.61 326.36,-47.89 325.78,-46.30 C324.58,-42.93 313.88,-8.64 308.18,6.93 C302.25,23.37 297.37,44.20 297.63,46.40 C297.70,46.94 298.01,48.15 298.55,50.02" fill="none" stroke="rgb(229, 0, 16)" stroke-width="2.85" stroke-opacity="1.00" stroke-linejoin="round"/>
<path d="M387.64,-79.03 C387.64,-79.03 387.64,-78.78 387.64,-78.78 C387.52,-78.63 386.09,-77.32 384.26,-74.15 C383.92,-73.56 372.87,-53.54 369.58,-48.10 C365.64,-41.87 358.94,-31.26 358.59,-30.65 C357.55,-28.85 356.40,-26.66 355.90,-25.54" fill="none" stroke="rgb(229, 0, 16)" stroke-width="2.85" stroke-opacity="1.00" stroke-linejoin="round"/>
<path d="M411.17,-55.00 C410.16,-55.06 408.41,-53.03 406.53,-48.41 C403.18,-40.13 399.48,-28.21 397.15,-20.51 C394.73,-12.11 390.16,4.11 388.01,11.94 C386.85,16.40 383.68,32.53 382.33,39.94 C381.84,42.92 381.30,51.02 381.27,52.04 C381.25,52.44 381.25,52.94 381.27,53.54" fill="none" stroke="rgb(229, 0, 16)" stroke-width="2.85" stroke-opacity="1.00" stroke-linejoin="round"/>
<path d="M349.89,31.28 C349.89,31.28 348.17,30.39 348.17,30.39 C347.82,31.92 340.10,80.73 339.14,85.91 C339.10,86.21 339.08,86.64 339.08,87.20" fill="none" stroke="rgb(229, 0, 16)" stroke-width="2.85" stroke-opacity="1.00" stroke-linejoin="round"/>
<path d="M308.71,87.66 C308.71,87.66 308.22,85.95 308.22,85.95 C308.30,92.87 308.47,106.74 308.44,114.23 C308.25,123.10 306.94,134.01 306.05,137.63 C306.05,137.63 306.26,136.69 306.26,136.69" fill="none" stroke="rgb(229, 0, 16)" stroke-width="2.85" stroke-opacity="1.00" stroke-linejoin="round"/>
<path d="M460.20,-10.88 C460.20,-10.88 459.58,-13.58 459.58,-13.58 C456.88,-11.64 450.52,-2.79 444.33,6.45 C435.39,20.18 423.78,39.09 423.63,39.74 C423.57,40.04 423.62,40.49 423.79,41.07" fill="none" stroke="rgb(229, 0, 16)" stroke-width="2.85" stroke-opacity="1.00" stroke-linejoin="round"/>
<path d="M433.23,63.64 C431.75,64.85 431.31,65.28 431.27,65.81 C430.85,72.21 416.41,140.76 416.20,144.33 C416.16,145.13 416.12,145.93 416.07,146.73" fill="none" stroke="rgb(229, 0, 16)" stroke-width="2.85" stroke-opacity="1.00" stroke-linejoin="round"/>
</g>
</svg>
