<?xml version="1.0" encoding="UTF-8" standalone="no"?>
<!DOCTYPE svg PUBLIC "-//W3C//DTD SVG 1.1//EN" "http://www.w3.org/Graphics/SVG/1.1/DTD/svg11.dtd">
<svg width="128.40" height="181.68" viewBox="0.00 0.00 535.00 757.00" xmlns="http://www.w3.org/2000/svg" xmlns:xlink="http://www.w3.org/1999/xlink">
<g stroke-linecap="round" transform="translate(44.00, 155.00)" id="109-우산-2">
<path d="M205.03,80.25 C205.03,80.25 204.10,80.25 204.10,80.25 C204.10,80.25 205.02,67.22 205.02,67.22 C205.73,68.29 206.57,75.18 206.68,76.09 C206.88,78.07 206.47,80.29 206.21,82.02 C206.21,82.02 204.45,69.57 204.45,69.57 C202.82,71.69 203.21,79.29 203.43,81.59 C204.74,80.94 204.87,70.11 204.78,68.50 C203.57,71.91 204.13,79.35 204.28,79.97 C204.28,79.97 205.26,70.10 205.26,70.10 C205.64,70.86 205.77,76.59 206.02,78.13 C206.07,78.40 206.15,78.80 206.26,79.33" fill="none" stroke="rgb(50, 0, 74)" stroke-width="2.85" stroke-opacity="1.00" stroke-linejoin="round"/>
<path d="M208.11,83.02 C207.53,82.37 207.26,82.13 206.97,82.10 C205.85,82.05 199.67,84.02 197.92,84.18 C195.30,84.42 189.88,83.75 187.81,83.88 C184.51,84.11 170.16,87.65 166.01,89.25 C158.08,92.29 146.54,98.69 145.70,99.20 C141.42,101.84 131.60,110.83 126.97,116.48 C121.58,123.11 118.26,127.88 113.01,137.84 C110.70,142.20 108.44,146.83 107.68,149.43 C106.48,153.69 105.48,166.15 105.62,168.25 C105.62,168.25 106.30,168.64 106.30,168.64" fill="none" stroke="rgb(50, 0, 74)" stroke-width="2.85" stroke-opacity="1.00" stroke-linejoin="round"/>
<path d="M276.19,176.68 C276.01,176.32 270.02,174.29 266.69,173.20 C263.34,172.01 258.63,167.62 255.75,166.13 C251.17,163.84 247.02,161.44 243.27,158.64 C239.73,156.00 237.73,155.15 233.22,153.69 C226.02,151.35 212.42,148.23 204.53,146.42 C193.19,143.92 186.09,142.84 181.30,142.80 C174.91,142.93 157.23,143.06 155.28,143.49 C154.25,143.74 129.80,152.57 128.66,153.11 C122.95,155.90 112.42,163.57 107.31,169.18 C104.28,172.54 102.65,174.28 102.10,174.87" fill="none" stroke="rgb(50, 0, 74)" stroke-width="2.85" stroke-opacity="1.00" stroke-linejoin="round"/>
<path d="M193.94,144.64 C193.94,144.64 192.70,144.33 192.70,144.33 C193.44,144.40 194.32,148.21 194.94,156.74 C195.15,159.82 197.26,207.46 197.32,212.51 C197.33,212.94 197.32,214.88 197.32,215.34 C197.32,215.34 197.38,214.18 197.38,214.18 C197.38,214.18 203.44,213.57 203.44,213.57 C203.54,213.34 201.90,202.35 201.55,191.79 C201.19,165.25 200.48,154.21 198.44,145.21 C198.37,144.88 198.31,144.64 198.29,144.50" fill="none" stroke="rgb(50, 0, 74)" stroke-width="2.85" stroke-opacity="1.00" stroke-linejoin="round"/>
<path d="M197.32,213.95 C197.63,219.43 197.93,229.70 196.64,233.19 C192.86,234.89 184.02,233.03 183.41,233.25 C182.63,234.61 184.06,238.64 185.38,239.31 C186.67,239.91 198.96,241.10 201.37,240.35 C202.46,239.97 203.00,238.59 203.41,235.88 C204.99,223.92 203.48,212.87 203.31,212.38 C203.22,212.11 203.03,211.85 202.73,211.60" fill="none" stroke="rgb(50, 0, 74)" stroke-width="2.85" stroke-opacity="1.00" stroke-linejoin="round"/>
<path d="M197.32,217.03 C197.32,217.03 203.49,217.96 203.49,217.96" fill="none" stroke="rgb(50, 0, 74)" stroke-width="2.85" stroke-opacity="1.00" stroke-linejoin="round"/>
<path d="M198.86,223.50 C198.81,223.50 198.76,223.50 198.71,223.50 C198.66,223.50 198.61,223.50 198.56,223.50 C198.95,224.06 202.26,224.08 202.62,224.12 C202.85,224.15 203.45,224.25 204.41,224.43" fill="none" stroke="rgb(50, 0, 74)" stroke-width="2.85" stroke-opacity="1.00" stroke-linejoin="round"/>
<path d="M199.17,229.05 C199.17,229.05 198.71,229.17 198.71,229.17 C198.71,229.17 198.56,229.39 198.56,229.39 C199.30,231.14 203.31,233.40 204.47,233.97 C204.76,234.14 205.15,234.45 205.64,234.90" fill="none" stroke="rgb(50, 0, 74)" stroke-width="2.85" stroke-opacity="1.00" stroke-linejoin="round"/>
<path d="M196.71,235.21 C196.88,235.48 197.06,235.82 197.26,236.22 C197.64,237.01 198.15,238.10 198.79,239.50 C198.96,239.88 199.07,240.14 199.12,240.28" fill="none" stroke="rgb(50, 0, 74)" stroke-width="2.85" stroke-opacity="1.00" stroke-linejoin="round"/>
<path d="M192.39,235.52 C192.23,235.59 193.43,240.22 193.63,240.75 C193.69,240.92 193.77,241.02 193.86,241.05" fill="none" stroke="rgb(50, 0, 74)" stroke-width="2.85" stroke-opacity="1.00" stroke-linejoin="round"/>
<path d="M188.08,235.52 C188.08,235.52 187.77,235.62 187.77,235.62 C187.74,235.91 187.92,238.28 188.12,239.18 C188.20,239.54 188.36,239.91 188.59,240.27" fill="none" stroke="rgb(50, 0, 74)" stroke-width="2.85" stroke-opacity="1.00" stroke-linejoin="round"/>
<path d="M209.65,83.02 C209.65,83.02 209.49,82.25 209.49,82.25 C209.49,82.25 209.03,82.10 209.03,82.10 C210.60,81.34 217.63,82.02 218.90,82.05 C220.36,82.10 237.09,84.47 241.07,86.24 C245.46,88.29 247.85,89.57 252.68,92.96 C253.78,93.74 260.47,97.10 260.61,97.19 C263.28,99.15 269.82,103.61 270.89,104.45 C272.84,105.99 275.60,109.11 276.83,111.29 C277.87,113.16 285.47,130.50 286.09,132.95 C287.22,137.52 288.00,147.51 287.88,152.54 C287.71,158.77 286.31,167.85 284.71,171.48 C283.10,175.04 278.37,180.80 278.10,181.18 C276.25,178.81 275.21,177.80 273.83,176.80 C273.48,176.55 273.14,176.31 272.80,176.06" fill="none" stroke="rgb(50, 0, 74)" stroke-width="2.85" stroke-opacity="1.00" stroke-linejoin="round"/>
<path d="M276.50,178.22 C276.50,178.22 276.19,179.14 276.19,179.14 C273.60,156.30 262.73,122.79 260.77,118.07 C259.67,115.45 258.27,113.00 255.36,109.38 C250.56,103.50 245.56,98.68 244.97,98.19 C244.65,97.92 244.17,97.59 243.53,97.20" fill="none" stroke="rgb(50, 0, 74)" stroke-width="2.85" stroke-opacity="1.00" stroke-linejoin="round"/>
<path d="M218.27,83.33 C217.63,83.34 217.22,83.34 217.04,83.33 C216.86,83.32 216.68,83.28 216.48,83.22 C216.48,83.22 217.03,81.68 217.03,81.68 C218.07,81.37 220.11,82.97 221.85,85.16 C222.82,86.39 229.83,94.91 230.66,96.07 C233.90,100.64 237.00,110.60 239.87,122.14 C242.60,133.47 244.03,143.30 244.13,149.03 C244.15,151.66 244.34,158.81 244.39,158.86 C244.51,158.99 244.73,159.28 245.07,159.73" fill="none" stroke="rgb(50, 0, 74)" stroke-width="2.85" stroke-opacity="1.00" stroke-linejoin="round"/>
<path d="M205.33,143.41 C205.33,143.41 204.72,143.46 204.72,143.46 C204.72,143.46 205.29,144.30 205.29,144.30 C205.59,143.39 203.75,129.74 201.47,118.73 C199.66,110.21 192.18,89.44 190.67,87.64 C190.11,86.99 188.71,85.37 188.45,85.16 C188.34,85.08 188.23,84.99 188.10,84.88" fill="none" stroke="rgb(50, 0, 74)" stroke-width="2.85" stroke-opacity="1.00" stroke-linejoin="round"/>
<path d="M185.62,86.41 C185.62,86.41 185.62,84.93 185.62,84.93 C185.41,85.28 174.60,100.32 172.55,104.66 C170.34,109.35 166.13,125.30 165.39,128.16 C164.16,133.13 163.13,141.19 163.14,142.17 C163.14,142.52 163.22,142.86 163.37,143.20" fill="none" stroke="rgb(50, 0, 74)" stroke-width="2.85" stroke-opacity="1.00" stroke-linejoin="round"/>
<path d="M129.24,152.03 C128.85,152.03 128.56,152.03 128.38,152.03 C128.20,152.03 127.88,152.02 127.42,152.00 C127.19,150.53 130.61,130.63 130.64,130.46 C132.04,122.51 142.87,103.54 145.01,100.78 C145.30,100.42 145.95,99.62 146.96,98.39" fill="none" stroke="rgb(50, 0, 74)" stroke-width="2.85" stroke-opacity="1.00" stroke-linejoin="round"/>
<path d="M140.33,115.37 C140.19,114.48 143.55,110.47 147.63,106.20 C154.00,99.62 166.00,92.60 168.35,90.72 C168.56,90.57 168.67,90.53 168.71,90.58" fill="none" stroke="rgb(50, 0, 74)" stroke-width="2.85" stroke-opacity="1.00" stroke-linejoin="round"/>
<path d="M166.52,96.27 C165.29,96.45 161.83,99.60 161.17,100.21 C156.06,105.17 140.72,127.99 139.20,130.65 C139.11,130.82 139.07,130.96 139.10,131.08" fill="none" stroke="rgb(50, 0, 74)" stroke-width="2.85" stroke-opacity="1.00" stroke-linejoin="round"/>
<path d="M139.10,130.77 C142.94,126.36 145.73,123.43 147.36,122.16 C149.39,120.61 153.82,117.58 156.20,115.96 C159.27,113.88 164.18,111.76 164.67,111.37" fill="none" stroke="rgb(50, 0, 74)" stroke-width="2.85" stroke-opacity="1.00" stroke-linejoin="round"/>
<path d="M141.26,129.85 C141.05,130.10 140.90,130.28 140.79,130.40 C140.04,131.25 131.98,140.31 131.45,141.72 C131.45,141.72 131.71,141.56 131.71,141.56" fill="none" stroke="rgb(50, 0, 74)" stroke-width="2.85" stroke-opacity="1.00" stroke-linejoin="round"/>
<path d="M158.20,124.61 C158.20,124.61 157.37,124.82 157.37,124.82 C155.72,127.22 144.68,141.38 143.06,144.37 C142.94,144.59 142.92,144.70 142.99,144.72" fill="none" stroke="rgb(50, 0, 74)" stroke-width="2.85" stroke-opacity="1.00" stroke-linejoin="round"/>
<path d="M154.50,139.09 C154.50,139.09 154.58,139.40 154.58,139.40 C156.19,137.75 158.94,135.57 159.42,135.27 C159.72,135.09 160.33,134.77 161.24,134.32" fill="none" stroke="rgb(50, 0, 74)" stroke-width="2.85" stroke-opacity="1.00" stroke-linejoin="round"/>
<path d="M201.64,86.10 C201.64,86.10 201.17,86.10 201.17,86.10 C201.00,86.21 198.83,91.03 195.82,96.97 C195.61,97.37 195.34,97.88 195.01,98.49" fill="none" stroke="rgb(50, 0, 74)" stroke-width="2.85" stroke-opacity="1.00" stroke-linejoin="round"/>
<path d="M213.34,83.33 C213.34,83.33 212.91,82.72 212.91,82.72 C211.75,83.19 203.38,102.24 203.32,102.56 C203.29,102.77 203.34,103.05 203.47,103.41" fill="none" stroke="rgb(50, 0, 74)" stroke-width="2.85" stroke-opacity="1.00" stroke-linejoin="round"/>
<path d="M221.05,91.34 C221.05,91.34 220.19,91.34 220.19,91.34 C218.81,92.57 212.20,105.84 210.30,110.87 C209.19,113.85 207.62,119.20 206.93,121.63 C206.78,122.16 206.63,122.69 206.49,123.23" fill="none" stroke="rgb(50, 0, 74)" stroke-width="2.85" stroke-opacity="1.00" stroke-linejoin="round"/>
<path d="M223.51,103.05 C222.93,103.08 221.77,103.85 219.48,107.59 C216.46,112.58 209.63,124.45 206.03,130.47 C204.99,132.19 203.59,134.40 202.56,136.32" fill="none" stroke="rgb(50, 0, 74)" stroke-width="2.85" stroke-opacity="1.00" stroke-linejoin="round"/>
<path d="M226.90,115.06 C226.08,115.05 225.26,116.11 223.70,119.04 C220.92,124.22 214.20,136.42 212.82,140.05 C212.43,141.15 211.94,143.27 212.06,144.01 C212.11,144.33 212.33,144.85 212.73,145.56" fill="none" stroke="rgb(50, 0, 74)" stroke-width="2.85" stroke-opacity="1.00" stroke-linejoin="round"/>
<path d="M229.98,123.38 C228.76,123.37 227.66,124.04 226.09,126.42 C225.51,127.33 222.47,133.47 220.82,136.84 C217.01,144.61 216.74,145.47 216.42,146.79" fill="none" stroke="rgb(50, 0, 74)" stroke-width="2.85" stroke-opacity="1.00" stroke-linejoin="round"/>
<path d="M236.76,128.62 C236.54,128.68 236.38,128.73 236.29,128.77 C235.83,129.01 227.29,143.16 227.23,143.32 C227.13,143.58 226.96,144.18 226.72,145.15" fill="none" stroke="rgb(50, 0, 74)" stroke-width="2.85" stroke-opacity="1.00" stroke-linejoin="round"/>
<path d="M241.07,133.24 C239.01,134.93 236.36,138.95 234.67,141.75 C234.55,141.95 234.25,142.42 233.78,143.15 C233.70,143.27 233.64,143.38 233.59,143.46" fill="none" stroke="rgb(50, 0, 74)" stroke-width="2.85" stroke-opacity="1.00" stroke-linejoin="round"/>
<path d="M254.62,98.12 C254.62,98.12 254.16,98.12 254.16,98.12 C254.06,98.03 253.17,101.60 253.07,102.11 C253.01,102.44 252.92,102.96 252.80,103.68" fill="none" stroke="rgb(50, 0, 74)" stroke-width="2.85" stroke-opacity="1.00" stroke-linejoin="round"/>
<path d="M259.55,101.51 C259.55,101.51 259.14,100.89 259.14,100.89 C259.14,100.89 256.64,107.67 256.64,107.67" fill="none" stroke="rgb(50, 0, 74)" stroke-width="2.85" stroke-opacity="1.00" stroke-linejoin="round"/>
<path d="M266.64,104.90 C266.64,104.90 265.48,104.97 265.48,104.97 C264.94,105.57 264.14,109.66 263.72,111.95 C263.33,113.87 262.61,117.35 262.28,118.90" fill="none" stroke="rgb(50, 0, 74)" stroke-width="2.85" stroke-opacity="1.00" stroke-linejoin="round"/>
<path d="M272.49,116.60 C272.42,116.60 272.37,116.60 272.34,116.60 C272.08,116.67 271.81,117.02 271.28,118.00 C269.43,121.48 267.19,125.94 266.89,127.05 C266.73,127.69 266.57,128.32 266.41,128.96" fill="none" stroke="rgb(50, 0, 74)" stroke-width="2.85" stroke-opacity="1.00" stroke-linejoin="round"/>
<path d="M275.88,127.69 C275.88,127.69 274.30,127.94 274.30,127.94 C273.98,128.66 272.52,132.42 272.52,132.43 C272.15,133.29 270.19,137.28 269.48,138.72" fill="none" stroke="rgb(50, 0, 74)" stroke-width="2.85" stroke-opacity="1.00" stroke-linejoin="round"/>
<path d="M276.50,136.63 C276.50,136.63 276.50,136.47 276.50,136.47 C276.50,136.47 276.34,136.32 276.34,136.32 C276.34,136.32 276.12,136.32 276.12,136.32 C275.75,137.25 274.73,139.81 274.40,140.56 C271.92,146.32 271.40,148.18 271.35,149.25" fill="none" stroke="rgb(50, 0, 74)" stroke-width="2.85" stroke-opacity="1.00" stroke-linejoin="round"/>
<path d="M277.73,144.64 C277.73,144.64 276.50,144.80 276.50,144.80 C276.34,145.32 275.95,146.68 275.66,147.70 C275.30,149.00 274.61,151.52 274.27,152.74 C274.12,153.29 273.97,153.85 273.82,154.40" fill="none" stroke="rgb(50, 0, 74)" stroke-width="2.85" stroke-opacity="1.00" stroke-linejoin="round"/>
<path d="M282.35,148.95 C281.86,149.04 281.50,149.21 281.25,149.47 C280.74,150.04 278.48,154.09 277.63,155.79 C276.52,158.06 275.82,160.20 275.32,162.07" fill="none" stroke="rgb(50, 0, 74)" stroke-width="2.85" stroke-opacity="1.00" stroke-linejoin="round"/>
<path d="M285.43,156.04 C285.43,156.04 284.57,156.19 284.57,156.19 C284.31,156.43 283.88,157.08 282.40,159.54 C281.05,161.79 279.39,164.45 278.07,166.49 C277.57,167.26 277.08,168.03 276.58,168.79" fill="none" stroke="rgb(50, 0, 74)" stroke-width="2.85" stroke-opacity="1.00" stroke-linejoin="round"/>
</g>
</svg>
