<?xml version="1.0" encoding="UTF-8" standalone="no"?>
<!DOCTYPE svg PUBLIC "-//W3C//DTD SVG 1.1//EN" "http://www.w3.org/Graphics/SVG/1.1/DTD/svg11.dtd">
<svg width="64.20" height="90.84" viewBox="0.00 0.00 535.00 757.00" xmlns="http://www.w3.org/2000/svg" xmlns:xlink="http://www.w3.org/1999/xlink">
<g stroke-linecap="round" transform="translate(156.00, 267.00)" id="11-비">
<path d="M-69.25,-146.17 C-69.50,-146.10 -70.10,-145.58 -70.35,-144.90 C-72.53,-138.70 -71.58,-83.80 -71.59,-82.72 C-71.59,-82.34 -71.53,-81.95 -71.41,-81.55" fill="none" stroke="rgb(57, 77, 239)" stroke-width="2.76" stroke-opacity="1.00" stroke-linejoin="round"/>
<path d="M-41.96,-150.36 C-43.33,-146.93 -44.65,-142.42 -45.21,-139.05 C-46.20,-132.44 -45.77,-115.18 -45.79,-112.45 C-45.85,-106.52 -47.99,-98.63 -48.11,-98.45 C-48.18,-98.35 -48.36,-98.16 -48.66,-97.90" fill="none" stroke="rgb(57, 77, 239)" stroke-width="2.76" stroke-opacity="1.00" stroke-linejoin="round"/>
<path d="M46.62,-147.43 C45.90,-146.69 45.52,-143.84 45.00,-139.43 C44.52,-135.16 42.86,-112.56 42.48,-109.25 C42.01,-105.29 37.44,-87.30 37.03,-85.73 C35.88,-81.26 33.37,-67.02 32.21,-59.56 C30.78,-49.31 29.39,-32.12 29.38,-32.09 C29.13,-29.56 26.60,-13.27 26.47,-6.72 C26.40,5.28 26.06,25.92 26.05,32.01 C26.05,32.01 25.25,30.73 25.25,30.73" fill="none" stroke="rgb(57, 77, 239)" stroke-width="2.76" stroke-opacity="1.00" stroke-linejoin="round"/>
<path d="M-61.69,21.76 C-61.69,21.76 -62.11,21.97 -62.11,21.97 C-62.12,24.22 -60.54,62.78 -59.91,79.22 C-58.92,95.75 -55.36,119.06 -54.48,132.99 C-54.02,142.12 -53.53,147.10 -52.15,159.28 C-51.40,166.63 -50.92,183.66 -50.51,188.69 C-49.60,199.79 -37.70,270.79 -37.54,271.21 C-37.37,271.64 -36.89,272.52 -36.10,273.85" fill="none" stroke="rgb(57, 77, 239)" stroke-width="2.76" stroke-opacity="1.00" stroke-linejoin="round"/>
<path d="M193.63,-144.03 C193.63,-144.03 192.87,-145.92 192.87,-145.92 C191.86,-139.49 188.15,-125.23 186.66,-119.57 C184.23,-109.27 183.37,-104.18 182.19,-93.74 C181.37,-86.02 181.06,-75.29 180.42,-69.74 C180.05,-66.55 174.49,-31.43 172.51,-12.67 C170.97,4.64 169.93,24.27 169.64,46.07 C169.32,64.29 169.70,98.37 170.08,104.88 C170.50,111.82 175.12,159.13 175.11,160.28 C175.11,160.28 175.62,160.44 175.62,160.44" fill="none" stroke="rgb(57, 77, 239)" stroke-width="2.76" stroke-opacity="1.00" stroke-linejoin="round"/>
<path d="M268.17,-131.92 C268.08,-131.91 267.57,-131.89 267.42,-131.92 C266.60,-132.00 265.01,-127.38 263.39,-120.75 C261.09,-110.87 259.54,-99.01 258.75,-92.88 C256.82,-74.06 255.31,-62.44 255.04,-60.68 C255.04,-60.68 254.93,-60.89 254.93,-60.89" fill="none" stroke="rgb(57, 77, 239)" stroke-width="2.76" stroke-opacity="1.00" stroke-linejoin="round"/>
<path d="M111.52,-147.06 C111.06,-146.62 110.84,-146.13 110.69,-144.95 C109.71,-138.65 108.34,-129.49 107.26,-118.82 C105.22,-90.03 101.57,-35.51 99.96,-9.79 C99.82,-4.28 100.52,28.80 100.54,29.05 C100.57,29.59 100.68,30.85 100.85,32.82" fill="none" stroke="rgb(57, 77, 239)" stroke-width="2.76" stroke-opacity="1.00" stroke-linejoin="round"/>
</g>
</svg>
