<?xml version="1.0" encoding="UTF-8" standalone="no"?>
<!DOCTYPE svg PUBLIC "-//W3C//DTD SVG 1.1//EN" "http://www.w3.org/Graphics/SVG/1.1/DTD/svg11.dtd">
<svg width="64.20" height="90.84" viewBox="0.00 0.00 535.00 757.00" xmlns="http://www.w3.org/2000/svg" xmlns:xlink="http://www.w3.org/1999/xlink">
<g stroke-linecap="round" transform="translate(156.00, 267.00)" id="11-우산">
<path d="M38.77,-160.38 C38.77,-160.96 37.58,-162.32 35.62,-162.23 C31.98,-161.96 24.15,-161.97 21.92,-161.62 C17.58,-160.90 3.60,-155.42 -4.47,-152.25 C-15.91,-147.70 -23.34,-144.31 -29.05,-141.31 C-35.37,-137.99 -42.44,-133.50 -48.12,-129.20 C-53.43,-125.07 -63.63,-116.98 -69.20,-111.02 C-74.19,-105.47 -85.75,-92.44 -87.40,-90.01 C-88.94,-87.68 -91.16,-82.60 -92.49,-78.70 C-93.65,-75.21 -93.41,-72.94 -92.96,-71.09" fill="none" stroke="rgb(255, 0, 8)" stroke-width="2.76" stroke-opacity="1.00" stroke-linejoin="round"/>
<path d="M-86.63,-66.34 C-86.51,-66.53 -86.37,-67.08 -86.31,-67.29 C-86.21,-67.65 -85.92,-68.03 -85.40,-68.55 C-84.90,-68.52 -78.98,-69.20 -76.64,-69.13 C-70.10,-68.81 -64.01,-69.12 -51.37,-70.57 C-30.66,-72.88 -10.44,-75.09 -9.98,-75.17 C-9.59,-75.25 -8.64,-75.47 -7.15,-75.84" fill="none" stroke="rgb(255, 0, 8)" stroke-width="2.76" stroke-opacity="1.00" stroke-linejoin="round"/>
<path d="M91.33,-144.23 C95.75,-144.68 99.45,-144.23 102.40,-142.62 C107.47,-139.83 123.49,-134.81 125.72,-134.00 C131.15,-132.01 140.25,-126.70 144.02,-123.50 C147.60,-120.39 156.58,-106.76 160.41,-102.60 C162.40,-100.46 170.59,-92.81 174.13,-87.36 C175.76,-84.81 182.06,-72.45 183.73,-70.20 C173.27,-71.63 158.69,-72.17 156.92,-72.35 C151.87,-72.90 139.20,-76.63 133.77,-77.92 C126.62,-79.60 78.83,-84.11 73.12,-84.38 C62.51,-84.86 27.06,-80.35 24.38,-80.59 C24.09,-80.61 23.60,-80.72 22.94,-80.90" fill="none" stroke="rgb(255, 0, 8)" stroke-width="2.76" stroke-opacity="1.00" stroke-linejoin="round"/>
<path d="M82.78,-146.45 C82.78,-146.45 82.15,-146.29 82.15,-146.29 C83.77,-144.29 87.12,-142.24 90.52,-140.32 C108.78,-130.09 126.20,-120.01 127.05,-119.44 C129.15,-118.02 141.03,-105.63 144.60,-100.85 C145.85,-99.16 152.74,-89.09 152.94,-88.24 C152.99,-88.01 153.03,-87.78 153.08,-87.55" fill="none" stroke="rgb(255, 0, 8)" stroke-width="2.76" stroke-opacity="1.00" stroke-linejoin="round"/>
<path d="M-6.83,-73.94 C-6.83,-73.94 -7.46,-73.87 -7.46,-73.87 C-6.99,-73.04 2.80,-73.01 8.68,-72.24 C12.04,-71.90 23.94,-73.44 31.50,-73.79 C37.18,-74.14 49.00,-74.84 55.61,-74.89 C58.40,-74.89 90.24,-72.92 95.25,-72.99 C95.63,-72.99 96.02,-72.99 96.40,-72.99" fill="none" stroke="rgb(255, 0, 8)" stroke-width="2.76" stroke-opacity="1.00" stroke-linejoin="round"/>
<path d="M3.94,-91.04 C3.94,-91.04 3.78,-91.04 3.78,-91.04 C3.60,-89.63 3.59,-77.94 2.70,-70.04 C1.57,-60.40 -0.73,-49.49 -2.30,-42.38 C-3.06,-38.70 -10.42,15.06 -10.83,17.82 C-10.83,17.82 -11.26,16.63 -11.26,16.63" fill="none" stroke="rgb(255, 0, 8)" stroke-width="2.76" stroke-opacity="1.00" stroke-linejoin="round"/>
<path d="M-6.51,-90.72 C-6.51,-90.72 -7.15,-90.72 -7.15,-90.72 C-7.15,-90.74 -6.89,-83.30 -7.17,-81.40 C-7.57,-78.79 -10.60,-68.27 -11.98,-58.60 C-14.26,-41.69 -16.69,-12.35 -16.89,-3.44 C-16.95,2.67 -17.35,20.81 -17.67,22.90 C-17.74,23.35 -17.93,24.21 -18.23,25.49" fill="none" stroke="rgb(255, 0, 8)" stroke-width="2.76" stroke-opacity="1.00" stroke-linejoin="round"/>
<path d="M-14.75,55.89 C-14.75,55.89 -14.75,55.58 -14.75,55.58 C-14.74,55.56 -14.74,55.62 -14.75,55.64 C-16.59,60.29 -17.62,66.87 -18.31,78.01 C-19.57,97.76 -20.34,120.11 -20.70,133.54 C-21.08,140.73 -24.19,154.20 -24.63,155.11 C-26.19,158.33 -27.65,159.79 -28.59,160.54 C-30.20,160.67 -33.47,159.71 -34.73,158.29 C-36.33,156.42 -42.71,139.69 -43.15,139.18 C-44.50,139.64 -45.24,140.13 -45.71,141.06 C-46.58,142.83 -47.07,148.27 -46.58,150.97 C-46.05,153.67 -43.10,159.59 -41.70,161.35 C-39.83,163.66 -36.65,166.35 -34.24,167.14 C-33.30,167.43 -31.01,166.97 -29.02,165.31 C-28.15,164.58 -26.88,163.07 -25.72,161.53" fill="none" stroke="rgb(255, 0, 8)" stroke-width="2.76" stroke-opacity="1.00" stroke-linejoin="round"/>
<path d="M-9.36,59.69 C-9.73,60.51 -9.96,61.34 -10.19,63.00 C-11.87,76.60 -15.37,113.54 -15.35,119.16 C-15.29,134.08 -17.40,157.61 -17.92,162.60 C-17.92,162.60 -21.08,161.97 -21.08,161.97" fill="none" stroke="rgb(255, 0, 8)" stroke-width="2.76" stroke-opacity="1.00" stroke-linejoin="round"/>
</g>
</svg>
