<?xml version="1.0" encoding="UTF-8" standalone="no"?>
<!DOCTYPE svg PUBLIC "-//W3C//DTD SVG 1.1//EN" "http://www.w3.org/Graphics/SVG/1.1/DTD/svg11.dtd">
<svg width="128.40" height="181.68" viewBox="0.00 0.00 535.00 757.00" xmlns="http://www.w3.org/2000/svg" xmlns:xlink="http://www.w3.org/1999/xlink">
<g stroke-linecap="round" transform="translate(44.00, 155.00)" id="110-지면">
<path d="M293.30,527.30 C293.30,527.30 293.30,527.06 293.30,527.06 C293.30,527.06 292.35,526.29 292.35,526.29 C294.53,519.92 298.22,513.89 305.27,503.28 C309.72,496.43 316.88,482.70 318.69,479.85 C319.40,478.73 330.38,462.59 334.68,456.21 C338.82,450.21 345.05,443.12 351.91,435.82 C356.71,430.80 367.58,422.94 369.92,421.53 C382.40,414.03 410.59,400.20 419.69,397.16 C446.77,388.54 483.89,377.48 486.66,376.67 C486.66,376.67 484.88,376.98 484.88,376.98" fill="none" stroke="rgb(255, 255, 0)" stroke-width="2.84" stroke-opacity="1.00" stroke-linejoin="round"/>
<path d="M483.46,317.70 C483.13,317.71 482.83,317.71 482.56,317.70 C477.22,317.57 463.28,319.13 457.07,319.79 C449.91,320.63 417.39,329.90 402.20,334.26 C386.68,338.66 358.23,349.34 350.01,352.25 C342.81,354.79 326.35,360.76 321.13,363.41 C320.48,363.74 296.61,377.32 295.59,378.18 C295.29,378.44 294.57,379.10 293.43,380.16" fill="none" stroke="rgb(255, 255, 0)" stroke-width="2.84" stroke-opacity="1.00" stroke-linejoin="round"/>
<path d="M206.52,431.98 C206.52,431.59 206.52,431.19 206.52,430.80 C206.52,430.24 206.52,429.69 206.52,429.14 C187.11,450.89 154.18,487.36 149.71,493.90 C140.03,508.50 134.38,517.61 126.78,531.39 C126.78,531.39 126.86,531.56 126.86,531.56" fill="none" stroke="rgb(255, 255, 0)" stroke-width="2.84" stroke-opacity="1.00" stroke-linejoin="round"/>
<path d="M186.61,363.70 C186.61,363.70 184.00,361.33 184.00,361.33 C181.79,361.82 176.76,363.28 172.85,363.24 C166.63,363.20 165.68,363.25 164.45,363.43 C163.94,364.31 161.66,376.08 159.69,380.88 C157.84,385.35 152.39,394.32 149.18,398.19 C145.39,402.71 137.58,408.63 129.82,412.67 C122.27,416.53 107.65,424.13 105.29,425.26 C94.48,430.38 73.27,437.47 72.84,437.66 C72.45,437.83 71.55,438.28 70.11,439.00" fill="none" stroke="rgb(255, 255, 0)" stroke-width="2.84" stroke-opacity="1.00" stroke-linejoin="round"/>
<path d="M66.64,437.20 C66.64,437.20 64.49,435.35 64.49,435.35 C59.39,437.29 46.59,442.09 38.89,444.96 C35.21,446.34 32.11,447.94 29.87,449.61 C21.72,455.87 13.86,462.86 8.30,467.88 C3.04,472.36 -12.60,482.99 -12.65,483.05 C-12.78,483.22 -13.06,483.69 -13.50,484.46" fill="none" stroke="rgb(255, 255, 0)" stroke-width="2.84" stroke-opacity="1.00" stroke-linejoin="round"/>
<path d="M-22.99,493.63 C-24.03,494.29 -26.20,495.71 -26.90,496.00 C-28.78,496.79 -31.16,497.03 -33.06,496.77 C-32.93,496.51 -14.76,488.17 -10.34,485.62 C-0.09,479.69 15.77,465.50 30.49,454.53 C36.95,449.80 48.81,441.20 54.45,438.51 C59.07,436.40 67.83,434.77 72.59,433.91" fill="none" stroke="rgb(255, 255, 0)" stroke-width="2.84" stroke-opacity="1.00" stroke-linejoin="round"/>
<path d="M295.20,327.66 C295.20,327.42 295.23,326.62 295.65,326.13 C298.12,323.30 301.16,322.27 304.99,321.71 C310.40,321.02 321.07,318.31 328.80,317.48 C338.61,316.46 354.67,316.27 357.94,316.04 C361.32,315.79 369.17,314.48 370.18,314.27 C370.90,314.12 380.82,310.68 387.09,308.74 C387.09,308.74 364.47,314.03 364.47,314.03 C368.44,313.24 379.68,310.11 390.01,306.64 C396.97,304.26 410.09,299.86 415.93,299.17 C430.22,297.48 453.29,296.02 460.84,295.90 C460.84,295.90 460.22,296.36 460.22,296.36" fill="none" stroke="rgb(255, 255, 0)" stroke-width="2.84" stroke-opacity="1.00" stroke-linejoin="round"/>
<path d="M461.64,304.90 C461.64,304.90 461.08,302.28 461.08,302.28 C459.78,301.34 456.62,300.99 452.17,301.25 C440.17,301.91 431.49,301.69 425.95,301.51 C417.95,301.44 410.70,301.98 399.28,303.19 C397.77,303.38 395.38,303.68 394.50,303.81 C393.57,303.93 392.64,304.06 391.72,304.19" fill="none" stroke="rgb(255, 255, 0)" stroke-width="2.84" stroke-opacity="1.00" stroke-linejoin="round"/>
<path d="M479.19,285.46 C479.19,285.46 479.10,284.27 479.10,284.27 C478.85,283.74 462.75,280.48 455.23,278.51 C448.56,276.72 436.78,273.61 426.91,271.96 C414.59,270.06 406.05,269.02 397.92,268.71 C378.86,268.11 352.70,266.35 338.04,266.37 C324.48,266.72 301.44,267.30 285.34,268.36 C280.49,268.78 270.92,270.81 270.26,270.90 C269.82,270.95 268.85,271.04 267.34,271.17" fill="none" stroke="rgb(255, 255, 0)" stroke-width="2.84" stroke-opacity="1.00" stroke-linejoin="round"/>
<path d="M213.16,271.23 C212.01,270.40 206.43,269.98 196.14,269.72 C184.56,269.31 179.30,269.40 167.77,270.41 C157.33,271.38 147.37,272.65 139.77,273.65 C127.49,275.38 124.19,275.94 113.72,278.72 C107.86,280.42 92.31,284.61 89.19,285.54 C87.79,285.96 83.96,287.16 82.53,287.62" fill="none" stroke="rgb(255, 255, 0)" stroke-width="2.84" stroke-opacity="1.00" stroke-linejoin="round"/>
<path d="M158.63,275.50 C157.29,275.50 154.75,275.50 153.54,275.50 C148.64,275.52 137.93,277.39 130.13,279.32 C122.20,281.39 104.46,286.25 101.76,286.90 C83.34,291.02 59.80,297.21 46.99,300.65 C31.76,304.93 -1.25,314.16 -8.74,316.89 C-14.87,319.15 -29.01,326.84 -31.53,328.59 C-31.86,328.82 -32.49,329.30 -33.42,330.03" fill="none" stroke="rgb(255, 255, 0)" stroke-width="2.84" stroke-opacity="1.00" stroke-linejoin="round"/>
<path d="M-35.79,322.92 C-36.03,322.92 -17.97,315.93 -11.76,313.47 C-4.84,310.66 0.94,309.28 9.14,307.89 C12.41,307.32 17.35,306.08 19.74,305.46 C20.89,305.18 23.43,304.55 24.83,304.20" fill="none" stroke="rgb(255, 255, 0)" stroke-width="2.84" stroke-opacity="1.00" stroke-linejoin="round"/>
<path d="M48.14,318.65 C46.39,318.65 41.38,318.62 40.77,318.65 C36.75,318.83 30.02,322.20 21.71,326.86 C17.81,328.99 0.22,337.12 -6.98,340.37 C-17.40,345.26 -34.24,357.39 -38.90,360.82 C-39.17,361.01 -39.80,361.46 -40.80,362.15" fill="none" stroke="rgb(255, 255, 0)" stroke-width="2.84" stroke-opacity="1.00" stroke-linejoin="round"/>
<path d="M199.41,300.63 C198.74,300.79 198.30,300.94 198.10,301.09 C197.78,301.31 194.49,306.04 191.32,309.85 C188.69,312.98 178.68,321.72 176.34,323.74" fill="none" stroke="rgb(255, 255, 0)" stroke-width="2.84" stroke-opacity="1.00" stroke-linejoin="round"/>
</g>
</svg>
