<?xml version="1.0" encoding="UTF-8" standalone="no"?>
<!DOCTYPE svg PUBLIC "-//W3C//DTD SVG 1.1//EN" "http://www.w3.org/Graphics/SVG/1.1/DTD/svg11.dtd">
<svg width="128.40" height="181.68" viewBox="0.00 0.00 535.00 757.00" xmlns="http://www.w3.org/2000/svg" xmlns:xlink="http://www.w3.org/1999/xlink">
<g stroke-linecap="round" transform="translate(44.00, 155.00)" id="110-사람">
<path d="M243.08,239.51 C241.73,239.70 237.41,240.10 236.16,240.61 C235.73,240.79 228.26,244.28 227.28,245.21 C226.03,246.46 223.82,252.49 223.22,255.54 C222.64,258.59 222.52,265.61 223.01,268.47 C223.48,271.08 225.74,276.61 227.08,278.66 C228.43,280.68 232.65,285.05 234.99,286.95 C237.53,288.97 242.07,291.07 244.50,291.00 C247.49,290.84 253.45,288.71 255.86,286.20 C258.18,283.71 260.91,277.25 261.86,273.47 C262.54,270.69 263.16,264.00 263.03,261.78 C262.89,259.68 261.57,254.47 260.58,252.11 C259.06,248.57 256.32,244.48 253.88,242.96 C251.87,241.75 244.99,240.62 242.57,240.77 C241.42,240.87 239.49,241.03 236.96,241.17" fill="none" stroke="rgb(0, 255, 0)" stroke-width="2.84" stroke-opacity="1.00" stroke-linejoin="round"/>
<path d="M233.62,268.44 C233.62,268.44 232.51,268.44 232.51,268.44 C232.51,268.44 238.48,267.89 238.48,267.89 C238.48,267.89 236.13,268.27 236.13,268.27 C237.02,268.69 237.56,268.93 237.75,269.00 C237.94,269.07 238.05,269.07 238.07,269.00" fill="none" stroke="rgb(0, 255, 0)" stroke-width="2.84" stroke-opacity="1.00" stroke-linejoin="round"/>
<path d="M239.74,266.22 C239.74,266.22 238.07,267.23 238.07,267.23 C238.07,267.23 238.63,262.35 238.63,262.35 C238.63,262.35 238.63,266.22 238.63,266.22" fill="none" stroke="rgb(0, 255, 0)" stroke-width="2.84" stroke-opacity="1.00" stroke-linejoin="round"/>
<path d="M235.85,268.44 C235.85,268.44 234.73,270.67 234.73,270.67 C234.73,270.67 235.12,271.06 235.12,271.06" fill="none" stroke="rgb(0, 255, 0)" stroke-width="2.84" stroke-opacity="1.00" stroke-linejoin="round"/>
<path d="M254.77,265.10 C254.21,265.10 253.65,265.10 253.10,265.10 C252.73,265.10 252.35,265.10 251.98,265.10 C252.32,265.07 257.30,266.15 257.60,266.22 C257.80,266.26 258.31,266.43 259.15,266.72" fill="none" stroke="rgb(0, 255, 0)" stroke-width="2.84" stroke-opacity="1.00" stroke-linejoin="round"/>
<path d="M255.88,266.77 C255.88,266.77 253.79,267.51 253.79,267.51 C253.79,267.51 255.11,268.29 255.11,268.29 C255.11,268.29 255.84,266.88 255.84,266.88 C255.84,266.88 255.88,268.44 255.88,268.44" fill="none" stroke="rgb(0, 255, 0)" stroke-width="2.84" stroke-opacity="1.00" stroke-linejoin="round"/>
<path d="M242.52,274.56 C242.52,274.56 241.97,274.56 241.97,274.56 C241.97,274.56 243.02,275.08 243.02,275.08" fill="none" stroke="rgb(0, 255, 0)" stroke-width="2.84" stroke-opacity="1.00" stroke-linejoin="round"/>
<path d="M242.52,280.68 C242.26,280.68 242.00,280.68 241.74,280.68 C241.63,280.68 241.52,280.68 241.41,280.68 C242.70,280.68 246.28,280.67 246.96,280.62 C248.35,280.52 250.02,280.12 251.02,279.74 C251.21,279.66 251.35,279.60 251.43,279.57" fill="none" stroke="rgb(0, 255, 0)" stroke-width="2.84" stroke-opacity="1.00" stroke-linejoin="round"/>
<path d="M235.85,269.55 C235.85,269.55 235.29,270.67 235.29,270.67 C235.29,270.67 236.40,269.00 236.40,269.00 C236.40,269.00 236.96,268.67 236.96,268.67" fill="none" stroke="rgb(0, 255, 0)" stroke-width="2.84" stroke-opacity="1.00" stroke-linejoin="round"/>
<path d="M235.85,269.00 C235.85,269.00 234.32,271.22 234.32,271.22 C235.68,271.03 237.69,267.94 237.52,266.46 C237.52,266.46 237.15,266.60 237.15,266.60" fill="none" stroke="rgb(0, 255, 0)" stroke-width="2.84" stroke-opacity="1.00" stroke-linejoin="round"/>
<path d="M230.76,247.82 C230.76,247.82 230.28,247.28 230.28,247.28 C229.33,247.57 228.73,249.56 227.15,254.24 C226.21,256.96 224.65,261.22 224.28,262.20 C224.28,262.20 233.12,243.16 233.12,243.16 C233.12,243.16 229.26,258.91 229.26,258.91 C229.26,258.91 237.23,240.67 237.23,240.67 C237.23,240.67 233.29,260.03 233.29,260.03 C233.85,259.99 236.17,255.28 237.20,252.24 C238.10,249.56 240.66,240.46 240.85,240.29 C240.85,240.29 238.20,259.19 238.20,259.19 C238.20,259.19 243.97,240.35 243.97,240.35 C243.97,240.35 241.71,259.99 241.71,259.99 C241.71,259.99 247.30,239.71 247.30,239.71 C247.30,239.71 245.16,261.40 245.16,261.40 C245.16,261.40 249.42,245.26 249.42,245.26 C249.42,245.26 250.01,261.80 250.01,261.80 C250.01,261.80 251.76,242.81 251.76,242.81 C251.76,242.81 253.68,260.35 253.68,260.35 C253.68,260.35 255.48,246.26 255.48,246.26 C255.48,246.26 258.00,260.24 258.00,260.24 C258.00,260.24 258.43,248.49 258.43,248.49 C258.43,248.49 260.37,259.40 260.37,259.40 C260.37,259.40 260.84,251.70 260.84,251.70 C260.84,251.70 262.94,261.78 262.94,261.78 C263.48,259.44 264.24,256.10 263.89,254.80 C263.30,252.78 260.39,247.00 258.65,245.01 C256.74,242.87 250.96,239.16 250.78,239.03 C252.22,238.99 256.76,240.96 258.86,242.49 C261.14,244.19 263.78,247.68 264.25,249.35 C265.15,252.77 264.90,260.46 264.85,261.32 C265.50,257.77 265.13,253.28 264.19,251.52 C263.14,249.70 260.11,246.90 257.02,244.99 C254.05,243.17 249.57,240.04 248.76,239.68 C247.30,239.06 241.67,239.07 238.24,239.31 C234.81,239.56 231.20,240.42 229.40,241.57 C228.55,242.13 223.55,246.90 222.81,248.21 C219.80,253.69 220.75,258.98 220.95,259.13 C221.19,258.55 221.33,258.14 221.37,257.91 C221.99,255.06 223.36,251.86 225.19,248.77 C225.68,247.96 225.94,247.67 226.11,247.61 C225.74,248.70 224.71,251.63 224.50,252.18 C223.69,254.32 223.09,258.75 222.92,260.26" fill="none" stroke="rgb(0, 255, 0)" stroke-width="2.84" stroke-opacity="1.00" stroke-linejoin="round"/>
<path d="M232.38,267.02 C232.38,267.02 229.97,267.56 229.97,267.56 C229.96,267.56 230.66,267.23 231.12,267.07 C231.50,266.94 234.60,266.12 235.08,266.01 C236.16,265.76 237.03,265.63 237.25,265.66" fill="none" stroke="rgb(0, 255, 0)" stroke-width="2.84" stroke-opacity="1.00" stroke-linejoin="round"/>
<path d="M256.17,267.29 C256.17,267.29 256.17,267.56 256.17,267.56" fill="none" stroke="rgb(0, 255, 0)" stroke-width="2.84" stroke-opacity="1.00" stroke-linejoin="round"/>
<path d="M237.48,291.04 C237.48,291.04 234.66,294.66 234.66,294.66 C236.57,296.85 238.14,299.23 238.59,299.63 C239.02,299.98 240.46,300.55 241.29,300.45 C241.87,300.37 250.68,298.50 251.14,298.27 C252.14,297.67 252.81,295.06 252.67,291.23 C252.62,290.00 252.54,287.75 252.50,286.75" fill="none" stroke="rgb(0, 255, 0)" stroke-width="2.84" stroke-opacity="1.00" stroke-linejoin="round"/>
<path d="M236.76,298.19 C236.76,298.19 235.51,298.55 235.51,298.55 C235.39,298.47 235.18,297.84 235.01,297.64 C234.91,297.52 234.68,297.35 234.30,297.12 C234.30,297.12 222.25,302.47 222.25,302.47 C222.25,302.47 222.11,303.19 222.11,303.19" fill="none" stroke="rgb(0, 255, 0)" stroke-width="2.84" stroke-opacity="1.00" stroke-linejoin="round"/>
<path d="M215.31,305.70 C215.04,305.70 214.86,305.70 214.78,305.70 C214.55,305.70 214.36,305.70 214.22,305.70 C212.41,305.71 207.24,307.52 206.27,308.38 C206.01,308.63 204.81,314.08 203.45,317.79 C202.39,320.65 201.00,324.43 200.65,325.36" fill="none" stroke="rgb(0, 255, 0)" stroke-width="2.84" stroke-opacity="1.00" stroke-linejoin="round"/>
<path d="M205.30,311.06 C205.21,311.10 205.09,311.10 204.94,311.06 C204.24,310.92 203.79,310.92 203.60,311.06 C202.77,311.68 199.26,320.45 197.74,324.27 C196.06,328.70 193.33,342.00 193.16,350.91 C193.12,355.33 193.29,362.11 193.37,363.07 C193.64,366.14 195.76,370.99 197.56,372.82 C198.50,373.72 200.74,374.89 201.88,375.00 C204.35,375.16 209.51,371.50 211.46,369.34 C213.41,367.12 216.22,361.87 217.19,359.07 C219.19,353.18 221.49,340.81 221.16,336.57 C220.27,335.85 217.20,333.05 216.17,331.13 C214.22,327.42 214.50,324.83 214.52,324.70 C211.26,327.34 205.30,337.88 203.36,343.77 C202.83,345.36 201.77,348.61 201.42,349.62 C200.91,351.10 200.28,352.77 199.94,353.61" fill="none" stroke="rgb(0, 255, 0)" stroke-width="2.84" stroke-opacity="1.00" stroke-linejoin="round"/>
<path d="M215.31,326.43 C215.31,326.43 214.06,326.79 214.06,326.79 C214.03,325.93 214.55,324.96 216.21,323.04 C218.19,320.77 220.86,317.53 223.20,316.56 C224.24,316.13 227.78,315.61 228.77,315.62 C229.68,315.66 231.04,318.19 230.94,321.76 C230.86,323.65 229.79,327.21 228.86,328.59 C228.17,329.57 225.71,332.04 225.11,332.41 C224.07,333.01 219.01,335.21 217.82,335.73" fill="none" stroke="rgb(0, 255, 0)" stroke-width="2.84" stroke-opacity="1.00" stroke-linejoin="round"/>
<path d="M257.50,295.33 C257.32,295.33 257.14,295.33 256.97,295.33 C256.68,295.33 256.40,295.33 256.12,295.33 C256.61,295.35 277.23,305.34 278.08,305.73 C281.06,307.12 285.15,309.59 286.65,311.38 C288.31,313.41 289.92,317.71 290.72,320.84 C291.39,323.61 293.53,341.68 293.73,344.61 C294.10,350.41 293.66,363.79 292.75,369.55 C292.12,373.39 287.95,393.14 286.31,397.19 C284.05,402.64 282.68,405.47 281.41,406.22 C279.79,406.15 276.04,402.95 274.30,399.96 C272.64,397.05 271.71,393.57 272.17,390.56 C275.04,372.51 276.99,332.65 276.97,332.04 C276.96,331.62 276.91,330.82 276.81,329.65" fill="none" stroke="rgb(0, 255, 0)" stroke-width="2.84" stroke-opacity="1.00" stroke-linejoin="round"/>
<path d="M273.95,399.73 C273.95,399.27 273.95,398.97 273.95,398.83 C273.94,398.69 273.93,398.51 273.90,398.30 C272.77,398.72 270.13,403.32 270.09,406.50 C270.09,407.03 270.56,407.48 270.69,407.59 C270.69,407.59 272.80,406.57 272.80,406.57" fill="none" stroke="rgb(0, 255, 0)" stroke-width="2.84" stroke-opacity="1.00" stroke-linejoin="round"/>
<path d="M271.80,405.45 C271.80,405.45 271.27,405.63 271.27,405.63 C271.27,405.63 271.09,406.09 271.09,406.09 C271.63,407.30 276.85,411.62 277.98,412.83 C278.61,413.50 279.93,415.08 279.98,415.17 C279.74,412.08 279.68,410.04 279.89,408.43 C279.95,408.01 280.11,406.90 280.38,405.11" fill="none" stroke="rgb(0, 255, 0)" stroke-width="2.84" stroke-opacity="1.00" stroke-linejoin="round"/>
<path d="M281.81,406.52 C281.09,407.17 280.38,408.61 280.38,413.01 C280.34,426.16 280.76,438.21 280.71,440.77 C279.92,455.95 279.05,473.76 278.53,475.97 C278.46,476.25 278.36,476.58 278.24,476.95" fill="none" stroke="rgb(0, 255, 0)" stroke-width="2.84" stroke-opacity="1.00" stroke-linejoin="round"/>
<path d="M273.95,481.60 C273.54,482.04 273.18,482.29 272.81,482.32 C272.36,482.33 267.55,480.76 263.46,480.43 C262.43,480.30 260.93,477.59 260.12,474.34 C259.82,473.10 252.09,441.07 247.97,424.30 C247.69,423.26 247.41,422.22 247.13,421.18" fill="none" stroke="rgb(0, 255, 0)" stroke-width="2.84" stroke-opacity="1.00" stroke-linejoin="round"/>
<path d="M245.35,410.09 C245.35,410.09 244.63,409.74 244.63,409.74 C244.66,410.90 244.76,411.86 245.04,413.32 C245.52,415.75 246.19,419.04 246.37,419.90" fill="none" stroke="rgb(0, 255, 0)" stroke-width="2.84" stroke-opacity="1.00" stroke-linejoin="round"/>
<path d="M248.56,429.40 C248.56,429.40 248.21,428.33 248.21,428.33 C248.20,429.75 248.23,433.73 248.26,436.27 C249.14,458.82 249.69,465.39 251.09,472.28 C251.84,476.02 251.75,491.76 251.41,499.26 C250.02,498.35 244.25,496.09 241.04,495.63 C239.54,495.43 232.77,495.20 231.36,494.55 C229.79,493.78 227.20,490.27 226.39,487.88 C225.50,485.19 222.75,471.99 220.19,462.72 C217.99,454.58 213.51,436.14 212.85,432.48 C211.95,427.40 211.42,404.14 211.44,403.87 C211.47,403.40 211.57,402.14 211.74,400.08" fill="none" stroke="rgb(0, 255, 0)" stroke-width="2.84" stroke-opacity="1.00" stroke-linejoin="round"/>
<path d="M217.82,401.87 C217.81,402.19 217.82,403.06 217.82,403.38 C217.79,404.00 214.28,410.11 213.76,411.08 C213.48,411.60 213.04,412.57 212.43,414.00" fill="none" stroke="rgb(0, 255, 0)" stroke-width="2.84" stroke-opacity="1.00" stroke-linejoin="round"/>
<path d="M273.59,394.72 C273.59,394.72 272.73,396.69 272.73,396.69 C272.32,396.94 266.30,399.39 264.14,399.64 C261.96,399.87 250.29,399.28 248.99,399.27 C246.68,399.27 236.94,400.36 234.08,400.55 C231.93,400.68 224.94,400.56 221.99,400.06 C218.79,399.50 209.86,396.47 209.35,396.17 C207.92,395.27 207.12,393.69 207.07,391.57 C207.03,385.88 207.39,382.90 208.35,378.10 C208.40,377.80 208.46,377.50 208.52,377.20" fill="none" stroke="rgb(0, 255, 0)" stroke-width="2.84" stroke-opacity="1.00" stroke-linejoin="round"/>
<path d="M233.55,498.76 C232.54,499.21 231.25,499.60 231.18,499.66 C229.88,500.70 226.48,510.38 226.26,511.72 C226.05,513.22 226.64,515.06 227.60,515.75 C228.47,516.34 236.87,519.50 237.13,519.53 C237.42,519.57 238.01,519.55 238.91,519.50" fill="none" stroke="rgb(0, 255, 0)" stroke-width="2.84" stroke-opacity="1.00" stroke-linejoin="round"/>
<path d="M248.56,499.83 C248.56,499.83 248.38,499.83 248.38,499.83 C248.38,499.83 248.21,500.01 248.21,500.01 C248.21,500.56 248.38,501.24 248.78,501.92 C250.51,504.73 252.47,509.19 252.91,512.45 C253.29,515.64 252.17,518.95 250.53,520.21 C249.00,521.31 245.48,521.89 244.88,521.78 C244.88,521.78 243.20,519.86 243.20,519.86" fill="none" stroke="rgb(0, 255, 0)" stroke-width="2.84" stroke-opacity="1.00" stroke-linejoin="round"/>
<path d="M244.63,514.49 C244.63,514.49 244.45,514.49 244.45,514.49 C244.45,514.49 244.27,514.31 244.27,514.31 C244.03,514.21 243.52,513.89 243.31,513.85 C242.67,513.76 233.39,512.96 232.53,513.52 C232.22,513.74 231.93,514.07 231.67,514.52 C231.60,514.66 231.51,514.89 231.40,515.21" fill="none" stroke="rgb(0, 255, 0)" stroke-width="2.84" stroke-opacity="1.00" stroke-linejoin="round"/>
<path d="M237.84,499.48 C237.84,499.48 237.12,499.66 237.12,499.66 C237.12,499.66 238.05,506.91 238.05,506.91 C239.47,506.63 240.36,506.09 241.21,504.82 C241.60,504.24 243.22,501.72 243.95,500.56 C244.41,499.80 245.64,497.70 246.06,496.97" fill="none" stroke="rgb(0, 255, 0)" stroke-width="2.84" stroke-opacity="1.00" stroke-linejoin="round"/>
<path d="M263.94,481.24 C263.94,481.24 262.15,482.20 262.15,482.20 C262.20,484.80 262.51,487.51 263.07,489.57 C263.57,491.36 265.78,494.04 267.23,494.59 C268.72,495.11 272.27,494.76 273.64,493.99 C275.09,493.12 276.99,491.40 277.36,490.46 C277.85,489.11 276.58,483.03 276.09,480.89" fill="none" stroke="rgb(0, 255, 0)" stroke-width="2.84" stroke-opacity="1.00" stroke-linejoin="round"/>
<path d="M268.58,481.24 C268.58,481.24 267.15,482.01 267.15,482.01 C267.15,482.01 268.94,489.41 268.94,489.41 C270.37,489.02 271.14,488.51 271.71,487.10 C272.44,485.29 272.84,484.03 272.92,483.32 C272.98,482.72 272.85,481.79 272.52,480.53" fill="none" stroke="rgb(0, 255, 0)" stroke-width="2.84" stroke-opacity="1.00" stroke-linejoin="round"/>
<path d="M237.48,496.62 C237.48,496.62 236.23,496.62 236.23,496.62 C236.23,496.62 236.05,496.84 236.05,496.84 C236.33,497.68 236.55,498.27 236.72,498.62 C236.89,498.97 237.23,499.56 237.74,500.40" fill="none" stroke="rgb(0, 255, 0)" stroke-width="2.84" stroke-opacity="1.00" stroke-linejoin="round"/>
<path d="M236.05,496.97 C234.82,497.63 234.08,498.04 233.83,498.19 C233.80,498.20 233.55,498.43 233.06,498.86 C232.84,499.05 232.30,499.49 231.42,500.18" fill="none" stroke="rgb(0, 255, 0)" stroke-width="2.84" stroke-opacity="1.00" stroke-linejoin="round"/>
</g>
</svg>
