<?xml version="1.0" encoding="UTF-8" standalone="no"?>
<!DOCTYPE svg PUBLIC "-//W3C//DTD SVG 1.1//EN" "http://www.w3.org/Graphics/SVG/1.1/DTD/svg11.dtd">
<svg width="128.40" height="181.68" viewBox="0.00 0.00 535.00 757.00" xmlns="http://www.w3.org/2000/svg" xmlns:xlink="http://www.w3.org/1999/xlink">
<g stroke-linecap="round" transform="translate(44.00, 155.00)" id="110-비">
<path d="M253.47,109.53 C253.47,109.53 253.31,107.31 253.31,107.31 C251.44,107.94 250.45,108.46 249.63,109.38 C248.48,110.69 244.12,116.05 243.03,117.41" fill="none" stroke="rgb(228, 0, 126)" stroke-width="2.84" stroke-opacity="1.00" stroke-linejoin="round"/>
<path d="M281.92,144.14 C281.92,144.14 281.92,143.91 281.92,143.91 C281.92,143.91 281.68,143.67 281.68,143.67 C281.35,145.03 281.00,146.84 280.83,147.47 C280.74,147.79 280.55,148.40 280.25,149.29" fill="none" stroke="rgb(228, 0, 126)" stroke-width="2.84" stroke-opacity="1.00" stroke-linejoin="round"/>
<path d="M308.00,157.90 C307.91,157.83 307.84,157.75 307.77,157.66 C307.70,157.57 307.54,157.33 307.29,156.95 C307.12,157.28 307.02,157.91 306.72,160.71 C306.46,163.10 306.08,165.70 305.74,167.44 C305.50,168.61 304.99,171.10 304.72,172.42" fill="none" stroke="rgb(228, 0, 126)" stroke-width="2.84" stroke-opacity="1.00" stroke-linejoin="round"/>
<path d="M368.23,209.11 C368.23,209.11 367.04,209.96 367.04,209.96 C366.73,210.85 366.56,211.95 366.26,215.10 C366.00,217.87 365.66,220.52 365.38,222.02 C365.32,222.34 365.21,222.85 365.05,223.56" fill="none" stroke="rgb(228, 0, 126)" stroke-width="2.84" stroke-opacity="1.00" stroke-linejoin="round"/>
<path d="M415.65,237.56 C415.65,237.56 415.01,237.56 415.01,237.56 C414.77,238.89 414.77,240.16 415.10,242.41 C415.52,245.29 416.72,252.22 417.01,253.82" fill="none" stroke="rgb(228, 0, 126)" stroke-width="2.84" stroke-opacity="1.00" stroke-linejoin="round"/>
<path d="M341.20,263.64 C341.15,263.60 341.08,263.60 340.96,263.64 C340.84,263.69 340.53,263.85 340.01,264.12 C339.73,264.63 339.78,269.98 339.81,273.34 C339.94,279.65 340.08,286.47 340.12,287.26" fill="none" stroke="rgb(228, 0, 126)" stroke-width="2.84" stroke-opacity="1.00" stroke-linejoin="round"/>
<path d="M405.21,299.68 C405.21,300.87 405.20,303.60 405.20,305.13 C405.18,308.69 404.33,323.83 404.30,324.89 C404.24,326.70 404.23,328.69 404.26,329.56" fill="none" stroke="rgb(228, 0, 126)" stroke-width="2.84" stroke-opacity="1.00" stroke-linejoin="round"/>
<path d="M356.37,326.71 C356.42,327.55 356.25,329.72 355.90,331.57 C355.77,332.24 355.49,333.51 355.04,335.38" fill="none" stroke="rgb(228, 0, 126)" stroke-width="2.84" stroke-opacity="1.00" stroke-linejoin="round"/>
<path d="M455.00,291.62 C455.00,291.62 453.82,292.33 453.82,292.33 C453.55,293.19 453.57,298.64 453.39,301.89 C453.25,304.29 453.18,306.22 453.14,308.36 C453.13,309.90 453.11,313.39 453.11,315.33" fill="none" stroke="rgb(228, 0, 126)" stroke-width="2.84" stroke-opacity="1.00" stroke-linejoin="round"/>
<path d="M345.94,382.19 C344.90,383.22 344.52,383.65 344.52,384.03 C344.47,386.94 344.24,390.39 343.67,396.21 C343.19,401.28 343.90,409.12 344.04,410.64" fill="none" stroke="rgb(228, 0, 126)" stroke-width="2.84" stroke-opacity="1.00" stroke-linejoin="round"/>
<path d="M397.63,436.72 C397.63,436.72 396.68,436.25 396.68,436.25 C396.79,442.75 397.10,458.20 397.30,467.16 C397.71,479.09 398.88,486.02 399.05,486.99" fill="none" stroke="rgb(228, 0, 126)" stroke-width="2.84" stroke-opacity="1.00" stroke-linejoin="round"/>
<path d="M435.56,475.13 C435.56,475.13 434.26,475.13 434.26,475.13 C433.67,475.57 433.73,478.94 433.93,484.61 C434.04,488.32 434.18,496.35 434.16,500.16 C434.15,503.90 434.14,508.94 434.14,510.23" fill="none" stroke="rgb(228, 0, 126)" stroke-width="2.84" stroke-opacity="1.00" stroke-linejoin="round"/>
<path d="M347.84,484.14 C347.50,484.26 347.11,484.41 346.93,484.62 C346.39,485.40 347.83,491.45 348.33,494.02 C348.87,496.85 349.58,501.91 350.19,507.27 C350.35,508.67 350.59,510.86 350.68,511.65" fill="none" stroke="rgb(228, 0, 126)" stroke-width="2.84" stroke-opacity="1.00" stroke-linejoin="round"/>
<path d="M330.29,499.32 C330.01,500.10 329.85,500.68 329.82,501.06 C329.68,502.60 332.40,520.17 333.33,531.14 C333.50,533.29 333.58,535.53 333.59,535.58 C333.64,535.92 333.80,536.64 334.08,537.73" fill="none" stroke="rgb(228, 0, 126)" stroke-width="2.84" stroke-opacity="1.00" stroke-linejoin="round"/>
<path d="M84.65,367.97 C84.65,367.97 83.94,368.12 83.94,368.12 C83.65,370.42 84.01,379.61 84.02,382.13 C84.02,389.85 82.96,395.78 82.70,396.94" fill="none" stroke="rgb(228, 0, 126)" stroke-width="2.84" stroke-opacity="1.00" stroke-linejoin="round"/>
<path d="M49.09,484.62 C48.48,483.58 48.06,482.79 47.83,482.25 C46.64,479.11 43.91,472.38 42.38,468.78 C39.44,461.57 34.06,447.89 31.61,441.42" fill="none" stroke="rgb(228, 0, 126)" stroke-width="2.84" stroke-opacity="1.00" stroke-linejoin="round"/>
<path d="M-5.44,415.86 C-6.21,415.31 -6.54,412.35 -6.31,407.21 C-6.12,403.40 -5.03,395.97 -4.32,393.09 C-4.20,392.59 -3.94,391.67 -3.55,390.32" fill="none" stroke="rgb(228, 0, 126)" stroke-width="2.84" stroke-opacity="1.00" stroke-linejoin="round"/>
<path d="M52.88,343.31 C52.88,343.31 53.36,343.31 53.36,343.31 C53.76,342.51 53.91,341.78 53.86,340.17 C53.66,333.76 53.36,319.74 53.51,313.87 C53.65,309.84 53.92,302.50 54.05,299.18" fill="none" stroke="rgb(228, 0, 126)" stroke-width="2.84" stroke-opacity="1.00" stroke-linejoin="round"/>
<path d="M76.59,291.15 C76.59,291.15 75.65,292.33 75.65,292.33 C75.65,292.33 75.65,292.49 75.65,292.49 C75.78,289.17 76.00,282.10 76.09,278.35 C76.10,276.79 76.12,274.24 76.12,273.25" fill="none" stroke="rgb(228, 0, 126)" stroke-width="2.84" stroke-opacity="1.00" stroke-linejoin="round"/>
<path d="M28.23,301.10 C26.95,300.24 26.66,299.82 26.28,296.91 C25.18,288.75 23.34,274.70 22.72,268.07 C22.37,264.42 21.90,259.51 21.78,258.25" fill="none" stroke="rgb(228, 0, 126)" stroke-width="2.84" stroke-opacity="1.00" stroke-linejoin="round"/>
<path d="M-22.99,265.54 C-22.99,265.54 -24.17,265.54 -24.17,265.54 C-24.51,265.16 -24.32,260.66 -23.91,258.47 C-23.75,257.62 -21.48,248.15 -20.58,244.24 C-19.73,240.36 -18.65,235.33 -18.41,234.18" fill="none" stroke="rgb(228, 0, 126)" stroke-width="2.84" stroke-opacity="1.00" stroke-linejoin="round"/>
<path d="M57.63,220.96 C57.63,220.96 55.88,221.91 55.88,221.91 C55.88,221.91 55.41,221.34 55.41,221.34 C55.73,219.51 56.03,218.29 56.49,217.24 C57.38,215.20 60.01,210.80 60.72,209.62" fill="none" stroke="rgb(228, 0, 126)" stroke-width="2.84" stroke-opacity="1.00" stroke-linejoin="round"/>
<path d="M27.75,178.29 C27.75,178.29 24.79,178.64 24.79,178.64 C23.86,177.77 24.54,172.46 25.69,168.79 C26.25,167.03 32.26,150.50 34.27,145.12 C35.34,142.18 36.77,138.24 37.13,137.23" fill="none" stroke="rgb(228, 0, 126)" stroke-width="2.84" stroke-opacity="1.00" stroke-linejoin="round"/>
<path d="M92.72,198.68 C92.72,198.68 90.11,199.15 90.11,199.15 C90.61,198.76 90.97,198.46 91.18,198.24 C92.08,197.25 92.98,195.47 93.85,192.95 C94.44,191.22 95.60,187.74 96.16,186.00" fill="none" stroke="rgb(228, 0, 126)" stroke-width="2.84" stroke-opacity="1.00" stroke-linejoin="round"/>
<path d="M94.61,152.68 C94.61,152.68 93.31,152.68 93.31,152.68 C92.67,152.05 92.92,148.00 93.42,142.73 C94.15,134.97 94.45,128.39 94.53,126.92" fill="none" stroke="rgb(228, 0, 126)" stroke-width="2.84" stroke-opacity="1.00" stroke-linejoin="round"/>
<path d="M149.62,138.93 C149.62,138.93 147.64,140.11 147.64,140.11 C146.85,136.60 147.91,128.43 150.19,115.69 C151.03,111.33 152.07,107.50 153.20,103.93" fill="none" stroke="rgb(228, 0, 126)" stroke-width="2.84" stroke-opacity="1.00" stroke-linejoin="round"/>
<path d="M133.02,259.37 C132.24,259.64 131.43,260.25 130.61,261.41 C130.06,262.19 128.16,265.22 127.54,266.22 C127.22,266.74 126.90,267.26 126.58,267.79" fill="none" stroke="rgb(228, 0, 126)" stroke-width="2.84" stroke-opacity="1.00" stroke-linejoin="round"/>
<path d="M137.29,326.71 C136.38,329.33 136.32,332.80 137.37,337.22 C137.72,338.61 138.30,340.91 138.55,341.83" fill="none" stroke="rgb(228, 0, 126)" stroke-width="2.84" stroke-opacity="1.00" stroke-linejoin="round"/>
<path d="M-0.23,131.34 C-0.89,135.24 -1.52,138.13 -1.69,139.16 C-1.80,139.82 -2.04,142.58 -2.12,143.59" fill="none" stroke="rgb(228, 0, 126)" stroke-width="2.84" stroke-opacity="1.00" stroke-linejoin="round"/>
<path d="M41.50,110.00 C41.50,110.00 40.08,110.09 40.08,110.09 C40.91,111.53 41.46,112.46 41.72,112.89 C42.13,113.54 43.54,115.50 44.06,116.21" fill="none" stroke="rgb(228, 0, 126)" stroke-width="2.84" stroke-opacity="1.00" stroke-linejoin="round"/>
<path d="M13.53,80.60 C13.45,80.60 13.37,80.60 13.29,80.60 C13.05,80.60 12.81,80.60 12.58,80.60" fill="none" stroke="rgb(228, 0, 126)" stroke-width="2.84" stroke-opacity="1.00" stroke-linejoin="round"/>
<path d="M12.58,79.65 C12.58,79.33 12.58,79.00 12.58,78.67 C12.58,78.30 12.58,77.93 12.58,77.57" fill="none" stroke="rgb(228, 0, 126)" stroke-width="2.84" stroke-opacity="1.00" stroke-linejoin="round"/>
<path d="M12.58,75.39 C12.57,73.81 12.56,69.87 12.55,67.50 C12.54,64.64 12.69,61.22 12.93,59.95 C13.07,59.27 13.31,58.66 13.64,58.14 C13.73,58.01 13.85,57.91 14.00,57.84" fill="none" stroke="rgb(228, 0, 126)" stroke-width="2.84" stroke-opacity="1.00" stroke-linejoin="round"/>
<path d="M69.95,80.13 C69.95,80.13 70.43,79.53 70.43,79.53 C70.43,78.58 70.44,76.58 70.45,75.53 C70.51,72.39 70.70,65.50 70.84,61.75 C71.04,57.90 71.31,52.86 71.38,51.68" fill="none" stroke="rgb(228, 0, 126)" stroke-width="2.84" stroke-opacity="1.00" stroke-linejoin="round"/>
<path d="M34.39,36.98 C34.39,36.98 33.68,37.92 33.68,37.92 C32.82,36.81 32.45,35.49 32.47,32.99 C32.50,30.59 32.66,27.94 32.88,26.39 C32.99,25.64 33.48,22.92 33.72,21.65" fill="none" stroke="rgb(228, 0, 126)" stroke-width="2.84" stroke-opacity="1.00" stroke-linejoin="round"/>
<path d="M84.65,7.57 C84.60,5.44 84.71,3.85 85.09,1.61 C85.47,-0.63 85.71,-2.84 85.87,-4.33 C85.95,-4.91 86.15,-6.06 86.46,-7.78" fill="none" stroke="rgb(228, 0, 126)" stroke-width="2.84" stroke-opacity="1.00" stroke-linejoin="round"/>
<path d="M41.50,-9.97 C41.50,-9.97 41.38,-8.79 41.38,-8.79 C41.38,-8.79 41.07,-8.55 41.07,-8.55 C40.16,-9.07 43.49,-27.31 43.89,-29.82 C44.51,-33.75 45.18,-40.22 45.50,-45.39 C45.68,-48.80 45.29,-51.96 45.08,-53.01" fill="none" stroke="rgb(228, 0, 126)" stroke-width="2.84" stroke-opacity="1.00" stroke-linejoin="round"/>
<path d="M10.68,-40.32 C10.68,-40.32 10.68,-39.61 10.68,-39.61 C10.68,-39.61 10.44,-39.37 10.44,-39.37 C10.42,-48.10 10.90,-56.72 11.93,-66.20 C12.27,-69.07 13.03,-71.66 13.36,-72.56" fill="none" stroke="rgb(228, 0, 126)" stroke-width="2.84" stroke-opacity="1.00" stroke-linejoin="round"/>
<path d="M29.17,-67.82 C29.17,-67.82 27.75,-68.20 27.75,-68.20 C27.75,-68.20 27.28,-69.34 27.28,-69.34 C27.92,-71.85 31.15,-78.01 31.81,-79.20 C32.52,-80.47 33.41,-81.98 33.86,-82.70" fill="none" stroke="rgb(228, 0, 126)" stroke-width="2.84" stroke-opacity="1.00" stroke-linejoin="round"/>
<path d="M108.84,-77.78 C108.18,-78.24 106.89,-79.41 106.47,-80.15 C105.74,-81.48 105.48,-88.97 105.56,-89.34 C105.59,-89.50 105.71,-89.73 105.89,-90.03" fill="none" stroke="rgb(228, 0, 126)" stroke-width="2.84" stroke-opacity="1.00" stroke-linejoin="round"/>
<path d="M145.83,-19.93 C145.83,-19.93 143.20,-20.92 143.20,-20.92 C141.96,-24.44 143.43,-36.50 144.22,-40.66 C144.62,-42.73 145.02,-44.27 145.60,-46.12" fill="none" stroke="rgb(228, 0, 126)" stroke-width="2.84" stroke-opacity="1.00" stroke-linejoin="round"/>
<path d="M108.84,37.92 C108.84,37.92 108.36,38.87 108.36,38.87 C108.34,37.86 109.11,33.96 109.91,30.89 C111.56,24.63 114.03,14.38 114.72,11.33" fill="none" stroke="rgb(228, 0, 126)" stroke-width="2.84" stroke-opacity="1.00" stroke-linejoin="round"/>
<path d="M145.35,63.53 C145.35,63.53 143.46,63.39 143.46,63.39 C142.62,61.60 142.56,56.21 142.63,55.13 C142.81,52.41 143.97,46.53 144.49,43.93" fill="none" stroke="rgb(228, 0, 126)" stroke-width="2.84" stroke-opacity="1.00" stroke-linejoin="round"/>
<path d="M179.97,30.81 C179.89,29.36 179.83,28.43 179.79,28.00 C179.52,25.11 179.49,18.70 179.46,15.22 C179.45,13.19 179.77,9.70 179.86,8.77" fill="none" stroke="rgb(228, 0, 126)" stroke-width="2.84" stroke-opacity="1.00" stroke-linejoin="round"/>
<path d="M192.77,69.22 C192.75,68.85 192.75,68.57 192.77,68.37 C193.14,65.69 193.61,61.96 194.01,57.08 C194.62,47.64 195.46,23.95 195.50,22.71" fill="none" stroke="rgb(228, 0, 126)" stroke-width="2.84" stroke-opacity="1.00" stroke-linejoin="round"/>
<path d="M209.84,-37.47 C209.84,-37.47 207.95,-36.59 207.95,-36.59 C207.89,-37.18 208.71,-43.40 209.09,-46.34 C209.43,-49.23 209.92,-53.51 210.08,-54.90" fill="none" stroke="rgb(228, 0, 126)" stroke-width="2.84" stroke-opacity="1.00" stroke-linejoin="round"/>
<path d="M247.31,-71.14 C247.72,-73.25 247.91,-74.85 247.60,-75.75 C247.26,-76.76 245.54,-81.87 245.39,-82.62 C245.25,-83.32 245.12,-84.01 244.98,-84.71" fill="none" stroke="rgb(228, 0, 126)" stroke-width="2.84" stroke-opacity="1.00" stroke-linejoin="round"/>
<path d="M251.10,19.90 C250.07,17.14 249.18,13.37 249.20,11.72 C249.25,10.23 251.82,4.61 253.43,0.77 C253.93,-0.47 254.98,-3.07 255.52,-4.43" fill="none" stroke="rgb(228, 0, 126)" stroke-width="2.84" stroke-opacity="1.00" stroke-linejoin="round"/>
<path d="M300.89,-4.75 C300.89,-4.75 297.73,-4.64 297.73,-4.64 C297.60,-6.60 297.53,-8.16 297.56,-9.23 C297.64,-11.69 298.54,-16.47 298.79,-17.74" fill="none" stroke="rgb(228, 0, 126)" stroke-width="2.84" stroke-opacity="1.00" stroke-linejoin="round"/>
<path d="M308.00,37.45 C308.00,37.45 305.39,38.24 305.39,38.24 C305.02,37.29 306.27,32.17 307.09,28.92 C307.40,27.61 308.00,24.68 308.21,23.61" fill="none" stroke="rgb(228, 0, 126)" stroke-width="2.84" stroke-opacity="1.00" stroke-linejoin="round"/>
<path d="M291.88,76.81 C291.88,76.81 290.69,76.71 290.69,76.71 C290.34,75.91 289.94,71.00 289.95,68.24 C289.97,64.56 289.99,57.40 289.98,53.92" fill="none" stroke="rgb(228, 0, 126)" stroke-width="2.84" stroke-opacity="1.00" stroke-linejoin="round"/>
<path d="M232.13,94.83 C232.01,93.58 231.71,90.18 231.66,88.78 C231.61,87.60 231.58,77.41 231.25,74.52 C231.11,73.38 230.75,71.45 230.50,70.26" fill="none" stroke="rgb(228, 0, 126)" stroke-width="2.84" stroke-opacity="1.00" stroke-linejoin="round"/>
<path d="M212.21,136.56 C212.21,136.56 209.37,137.86 209.37,137.86 C209.37,137.86 208.54,137.49 208.54,137.49 C208.95,136.07 210.06,132.24 210.55,130.78 C211.17,128.91 213.72,122.21 214.42,120.37" fill="none" stroke="rgb(228, 0, 126)" stroke-width="2.84" stroke-opacity="1.00" stroke-linejoin="round"/>
<path d="M345.46,75.39 C345.46,75.39 344.14,75.86 344.14,75.86 C344.18,73.97 348.92,60.78 349.21,60.04 C349.37,59.64 349.63,59.03 349.98,58.22" fill="none" stroke="rgb(228, 0, 126)" stroke-width="2.84" stroke-opacity="1.00" stroke-linejoin="round"/>
<path d="M357.79,30.34 C357.49,30.12 357.29,29.85 357.20,29.51 C356.54,26.94 358.14,10.78 358.54,6.92 C358.54,6.92 358.27,8.05 358.27,8.05" fill="none" stroke="rgb(228, 0, 126)" stroke-width="2.84" stroke-opacity="1.00" stroke-linejoin="round"/>
<path d="M363.01,-29.89 C363.01,-30.81 363.01,-32.97 363.01,-34.21 C362.98,-37.85 364.94,-52.46 365.03,-52.85 C365.11,-53.23 365.31,-53.96 365.63,-55.02" fill="none" stroke="rgb(228, 0, 126)" stroke-width="2.84" stroke-opacity="1.00" stroke-linejoin="round"/>
<path d="M407.11,-39.37 C407.20,-37.93 407.40,-36.36 407.78,-34.72 C408.23,-32.75 409.12,-29.55 409.74,-27.62 C410.31,-25.88 411.27,-23.00 411.64,-21.87" fill="none" stroke="rgb(228, 0, 126)" stroke-width="2.84" stroke-opacity="1.00" stroke-linejoin="round"/>
<path d="M418.97,-78.26 C418.97,-78.26 419.81,-78.73 419.81,-78.73 C422.53,-77.51 425.41,-70.57 426.15,-67.89 C426.40,-66.97 427.06,-64.38 427.30,-63.42" fill="none" stroke="rgb(228, 0, 126)" stroke-width="2.84" stroke-opacity="1.00" stroke-linejoin="round"/>
<path d="M422.76,20.38 C422.76,20.38 422.52,20.38 422.52,20.38 C422.33,20.64 422.20,21.21 422.28,22.04 C422.42,23.30 423.07,25.78 423.84,28.02 C424.09,28.73 425.05,31.27 425.39,32.18" fill="none" stroke="rgb(228, 0, 126)" stroke-width="2.84" stroke-opacity="1.00" stroke-linejoin="round"/>
<path d="M428.45,87.24 C429.16,88.60 429.76,90.05 430.19,91.58 C430.30,91.94 430.46,92.59 430.70,93.53" fill="none" stroke="rgb(228, 0, 126)" stroke-width="2.84" stroke-opacity="1.00" stroke-linejoin="round"/>
<path d="M407.58,94.83 C407.48,94.81 407.22,95.31 406.41,97.24 C405.74,98.87 404.32,102.29 403.95,103.29 C403.39,104.79 402.79,106.67 402.55,107.58" fill="none" stroke="rgb(228, 0, 126)" stroke-width="2.84" stroke-opacity="1.00" stroke-linejoin="round"/>
<path d="M390.99,135.13 C390.99,135.13 392.17,135.96 392.17,135.96 C392.29,137.80 392.48,140.94 392.55,142.24 C392.64,143.94 392.82,147.40 392.92,149.16 C393.14,152.82 393.63,157.39 393.83,158.84" fill="none" stroke="rgb(228, 0, 126)" stroke-width="2.84" stroke-opacity="1.00" stroke-linejoin="round"/>
<path d="M334.56,104.79 C334.57,105.04 334.52,107.59 334.56,108.22 C334.59,108.73 334.68,109.60 334.85,110.84" fill="none" stroke="rgb(228, 0, 126)" stroke-width="2.84" stroke-opacity="1.00" stroke-linejoin="round"/>
<path d="M429.40,192.04 C429.40,192.04 428.73,192.04 428.73,192.04 C428.53,192.40 428.41,193.52 428.59,194.83 C428.79,196.16 429.39,198.85 429.74,200.09 C430.11,201.36 431.73,207.90 432.12,209.50" fill="none" stroke="rgb(228, 0, 126)" stroke-width="2.84" stroke-opacity="1.00" stroke-linejoin="round"/>
<path d="M455.00,130.87 C455.00,130.87 453.82,131.10 453.82,131.10 C453.21,132.29 453.12,133.19 453.62,134.57 C454.87,138.09 456.48,143.16 457.08,145.89 C457.73,148.87 459.16,157.23 459.75,160.74" fill="none" stroke="rgb(228, 0, 126)" stroke-width="2.84" stroke-opacity="1.00" stroke-linejoin="round"/>
</g>
</svg>
