<?xml version="1.0" encoding="UTF-8" standalone="no"?>
<!DOCTYPE svg PUBLIC "-//W3C//DTD SVG 1.1//EN" "http://www.w3.org/Graphics/SVG/1.1/DTD/svg11.dtd">
<svg width="535.00" height="757.00" viewBox="0.00 0.00 535.00 757.00" xmlns="http://www.w3.org/2000/svg" xmlns:xlink="http://www.w3.org/1999/xlink">
<g stroke-linecap="round" transform="translate(44.00, 155.00)" id="111-지붕">
<path d="M12.86,179.98 C12.86,179.98 10.98,181.06 10.98,181.06 C10.10,180.87 9.37,180.59 7.69,179.72 C3.69,177.62 0.23,175.01 -2.60,171.70 C-5.58,168.20 -9.90,163.60 -12.59,161.60 C-13.55,160.89 -19.97,156.52 -22.27,154.21 C-23.05,153.42 -35.31,142.22 -34.88,141.90 C-35.31,141.64 -35.60,141.46 -35.76,141.35 C-35.92,141.24 -36.16,141.07 -36.49,140.82" fill="none" stroke="rgb(181, 143, 123)" stroke-width="2.90" stroke-opacity="1.00" stroke-linejoin="round"/>
<path d="M-39.71,139.75 C-39.71,139.75 -26.70,138.54 -26.70,138.54 C-26.70,138.54 -29.83,138.27 -29.83,138.27 C-29.90,138.04 -23.08,137.65 -21.58,137.09 C-21.41,137.02 -20.84,136.62 -20.67,136.53 C-20.54,136.47 -20.27,136.29 -19.86,136.00" fill="none" stroke="rgb(181, 143, 123)" stroke-width="2.90" stroke-opacity="1.00" stroke-linejoin="round"/>
<path d="M-19.86,136.00" fill="none" stroke="rgb(181, 143, 123)" stroke-width="2.90" stroke-opacity="1.00" stroke-linejoin="round"/>
<path d="M-19.33,136.00 C-19.12,135.87 -18.94,135.78 -18.79,135.73 C-18.64,135.67 -18.31,135.58 -17.80,135.46" fill="none" stroke="rgb(181, 143, 123)" stroke-width="2.90" stroke-opacity="1.00" stroke-linejoin="round"/>
<path d="M-17.18,135.46 C-17.18,135.46 -17.18,134.92 -17.18,134.92" fill="none" stroke="rgb(181, 143, 123)" stroke-width="2.90" stroke-opacity="1.00" stroke-linejoin="round"/>
<path d="M100.84,116.15 C90.01,116.41 31.15,127.04 -2.44,133.90 C-5.54,134.50 -12.74,135.84 -16.84,136.59 C-19.52,137.05 -23.65,137.92 -24.69,138.14" fill="none" stroke="rgb(181, 143, 123)" stroke-width="2.90" stroke-opacity="1.00" stroke-linejoin="round"/>
<path d="M97.08,118.29 C95.36,118.50 91.64,121.79 89.63,123.66 C85.79,127.12 70.62,137.14 67.68,139.31 C64.46,141.69 16.36,180.01 12.74,182.60 C12.47,182.80 11.98,183.18 11.25,183.74" fill="none" stroke="rgb(181, 143, 123)" stroke-width="2.90" stroke-opacity="1.00" stroke-linejoin="round"/>
<path d="M96.01,118.29 C96.01,118.29 95.47,118.51 95.47,118.51 C95.47,118.51 95.47,118.83 95.47,118.83 C96.51,117.86 99.76,116.99 104.92,116.35 C114.92,115.23 141.91,111.80 156.55,111.96 C174.58,112.23 239.76,108.45 270.07,106.81 C292.09,106.00 305.86,104.96 324.54,104.78 C354.35,105.34 407.46,105.97 441.81,107.49 C464.43,107.96 477.80,107.13 483.76,105.97 C483.76,105.97 483.32,105.95 483.32,105.95" fill="none" stroke="rgb(181, 143, 123)" stroke-width="2.90" stroke-opacity="1.00" stroke-linejoin="round"/>
<path d="M485.46,105.42 C484.95,105.86 484.66,106.21 484.59,106.46 C484.42,107.04 484.58,109.02 484.01,109.69 C483.79,109.94 478.64,114.70 477.40,116.46 C475.54,119.23 467.48,127.51 463.16,132.98 C460.95,135.83 449.10,153.97 445.41,158.24 C442.92,161.12 436.35,171.74 435.57,173.01 C435.57,173.01 433.20,175.94 433.20,175.94 C433.20,175.94 484.32,154.31 484.32,154.31 C484.32,154.31 483.85,154.23 483.85,154.23" fill="none" stroke="rgb(181, 143, 123)" stroke-width="2.90" stroke-opacity="1.00" stroke-linejoin="round"/>
<path d="M16.08,182.67 C16.08,182.67 14.05,183.74 14.05,183.74 C29.07,183.75 67.06,183.50 70.70,183.55 C84.39,183.74 114.37,182.27 129.52,181.58 C142.58,181.18 172.49,180.02 189.08,179.64 C189.09,179.64 288.65,179.96 305.20,179.67 C319.20,179.44 348.95,179.03 364.70,178.84 C378.64,179.13 410.16,179.49 420.47,178.69 C429.12,178.00 434.84,177.07 436.62,176.76 C436.98,176.71 437.16,176.71 437.18,176.76" fill="none" stroke="rgb(181, 143, 123)" stroke-width="2.90" stroke-opacity="1.00" stroke-linejoin="round"/>
</g>
</svg>
