<?xml version="1.0" encoding="UTF-8" standalone="no"?>
<!DOCTYPE svg PUBLIC "-//W3C//DTD SVG 1.1//EN" "http://www.w3.org/Graphics/SVG/1.1/DTD/svg11.dtd">
<svg width="535.00" height="757.00" viewBox="0.00 0.00 535.00 757.00" xmlns="http://www.w3.org/2000/svg" xmlns:xlink="http://www.w3.org/1999/xlink">
<g stroke-linecap="round" transform="translate(44.00, 155.00)" id="111-우산">
<path d="M23.05,373.10 C23.05,373.10 23.05,373.64 23.05,373.64 C16.57,372.11 6.82,371.97 4.53,372.28 C6.07,379.22 9.32,395.54 10.08,397.56 C10.17,397.80 10.35,398.02 10.63,398.23" fill="none" stroke="rgb(255, 255, 0)" stroke-width="2.90" stroke-opacity="1.00" stroke-linejoin="round"/>
<path d="M19.83,400.46 C19.83,400.46 23.59,374.71 23.59,374.71 C23.59,374.71 24.06,375.18 24.06,375.18" fill="none" stroke="rgb(255, 255, 0)" stroke-width="2.90" stroke-opacity="1.00" stroke-linejoin="round"/>
<path d="M13.93,370.95 C13.93,370.95 13.93,370.42 13.93,370.42 C13.52,370.60 13.27,369.85 12.98,367.07 C12.53,362.90 11.69,354.91 11.82,352.96 C11.94,351.32 12.91,346.02 13.79,343.63 C14.28,342.36 15.82,340.10 17.07,338.91 C18.26,337.82 21.14,336.39 22.39,336.28 C23.81,336.22 26.83,337.43 28.18,338.63 C29.49,339.87 30.71,342.77 30.99,345.04 C31.21,347.10 31.03,349.32 30.64,351.10 C30.64,351.10 25.85,352.61 25.85,352.61 C25.85,352.61 23.11,342.04 23.11,342.04 C21.82,342.42 20.13,347.98 19.92,351.12 C19.83,352.70 19.84,367.44 19.83,368.84 C19.83,369.49 19.83,370.15 19.83,370.80" fill="none" stroke="rgb(255, 255, 0)" stroke-width="2.90" stroke-opacity="1.00" stroke-linejoin="round"/>
</g>
</svg>
