<?xml version="1.0" encoding="UTF-8" standalone="no"?>
<!DOCTYPE svg PUBLIC "-//W3C//DTD SVG 1.1//EN" "http://www.w3.org/Graphics/SVG/1.1/DTD/svg11.dtd">
<svg width="535.00" height="757.00" viewBox="0.00 0.00 535.00 757.00" xmlns="http://www.w3.org/2000/svg" xmlns:xlink="http://www.w3.org/1999/xlink">
<g stroke-linecap="round" transform="translate(44.00, 155.00)" id="111-사람-2">
<path d="M134.10,254.55 C134.10,254.55 134.26,257.63 134.26,257.63 C134.78,257.33 135.08,257.00 135.17,256.65 C135.26,256.30 135.26,255.43 135.17,254.04 C135.17,254.04 134.65,255.87 134.65,255.87" fill="none" stroke="rgb(255, 0, 0)" stroke-width="2.90" stroke-opacity="1.00" stroke-linejoin="round"/>
<path d="M161.45,254.55 C161.45,254.82 161.45,255.08 161.45,255.35 C161.45,255.98 161.45,256.60 161.45,257.23 C161.45,257.23 161.45,252.33 161.45,252.33 C161.25,252.68 161.15,253.02 161.14,253.35 C161.14,253.69 161.22,254.49 161.39,255.76" fill="none" stroke="rgb(255, 0, 0)" stroke-width="2.90" stroke-opacity="1.00" stroke-linejoin="round"/>
<path d="M160.92,271.18 C157.80,271.15 150.41,271.12 146.13,271.11 C142.05,271.14 136.56,271.98 135.51,273.32 C134.94,274.15 134.89,277.17 135.54,278.04 C136.70,279.50 143.36,280.16 144.75,280.13 C147.07,280.05 154.03,279.11 155.52,278.71 C161.05,277.18 166.05,272.27 166.69,270.85 C166.47,270.76 162.77,270.35 162.05,270.27 C161.70,270.23 161.10,270.18 160.27,270.13" fill="none" stroke="rgb(255, 0, 0)" stroke-width="2.90" stroke-opacity="1.00" stroke-linejoin="round"/>
<path d="M133.56,233.09 C133.56,233.09 128.33,241.20 128.33,241.20 C128.33,241.20 129.47,241.24 129.47,241.24" fill="none" stroke="rgb(255, 0, 0)" stroke-width="2.90" stroke-opacity="1.00" stroke-linejoin="round"/>
<path d="M147.51,233.09 C147.51,233.09 149.09,243.16 149.09,243.16 C149.09,243.16 149.12,241.67 149.12,241.67" fill="none" stroke="rgb(255, 0, 0)" stroke-width="2.90" stroke-opacity="1.00" stroke-linejoin="round"/>
<path d="M160.38,232.02 C160.38,232.02 166.54,240.25 166.54,240.25 C166.54,240.25 166.82,240.06 166.82,240.06" fill="none" stroke="rgb(255, 0, 0)" stroke-width="2.90" stroke-opacity="1.00" stroke-linejoin="round"/>
<path d="M147.51,220.75 C143.30,220.68 139.19,221.19 138.61,221.32 C136.59,221.82 128.66,226.02 126.25,227.63 C121.44,230.89 112.17,240.91 110.28,243.97 C108.78,246.44 106.39,251.32 105.79,253.30 C105.20,255.25 104.38,261.05 104.19,263.92 C104.00,267.02 104.56,272.39 105.32,275.15 C106.21,278.25 109.46,284.45 111.77,287.24 C113.52,289.31 117.16,292.41 120.46,293.40 C124.80,294.66 137.96,295.45 145.47,295.30 C150.92,295.16 160.09,292.82 166.39,289.70 C172.14,286.82 176.56,284.43 178.33,283.01 C181.05,280.78 184.27,276.81 185.94,273.50 C187.43,270.50 189.44,264.15 189.89,261.08 C190.45,257.00 190.14,252.29 188.81,249.23 C187.46,246.05 184.00,238.16 183.29,236.67 C181.96,233.94 177.36,228.00 174.69,226.21 C173.04,225.14 168.38,223.13 164.15,221.71 C157.34,219.53 148.80,219.05 147.63,219.14 C147.01,219.19 145.71,219.37 143.75,219.68" fill="none" stroke="rgb(255, 0, 0)" stroke-width="2.90" stroke-opacity="1.00" stroke-linejoin="round"/>
<path d="M127.12,295.32 C127.12,295.32 126.59,295.32 126.59,295.32 C126.59,295.32 126.64,298.85 126.64,298.85 C128.35,300.04 133.38,300.82 138.67,300.56 C140.13,300.48 149.41,299.57 152.98,299.58 C158.25,299.67 163.56,299.30 166.02,298.66 C167.22,298.30 169.24,297.15 169.74,296.21 C170.19,295.35 170.61,294.09 171.02,292.44 C171.16,291.83 171.35,290.79 171.58,289.31" fill="none" stroke="rgb(255, 0, 0)" stroke-width="2.90" stroke-opacity="1.00" stroke-linejoin="round"/>
<path d="M170.04,295.32 C170.05,295.72 170.05,295.99 170.04,296.12 C170.02,296.43 174.10,299.66 176.04,301.79 C180.14,306.37 186.10,317.71 189.44,325.32 C191.09,329.10 191.41,330.00 191.26,329.95 C189.29,329.74 182.44,332.37 182.02,332.47 C180.53,332.80 178.95,332.37 177.83,331.25 C175.24,328.64 168.13,320.48 166.28,318.38 C166.53,325.80 166.86,336.65 165.74,346.48 C165.33,349.76 164.81,353.84 164.70,354.64 C164.38,354.12 145.32,354.94 138.98,354.74 C135.55,354.60 127.88,354.30 127.69,354.09 C128.13,350.50 129.16,333.90 129.25,329.89 C129.37,323.68 128.28,314.48 128.20,313.86 C126.42,315.69 119.44,319.75 118.53,320.38 C116.18,322.04 106.42,331.04 100.84,334.92 C100.82,334.18 97.17,329.17 96.24,326.36 C96.09,325.88 95.86,325.25 95.56,324.47 C95.85,324.17 110.33,314.56 112.69,312.21 C113.67,311.23 119.04,304.88 121.25,302.78 C123.64,300.54 129.00,297.44 130.66,296.74 C130.81,296.68 131.05,296.57 131.38,296.41" fill="none" stroke="rgb(255, 0, 0)" stroke-width="2.90" stroke-opacity="1.00" stroke-linejoin="round"/>
<path d="M182.38,335.55 C182.38,335.73 182.38,335.91 182.38,336.09 C182.38,336.13 182.38,336.29 182.38,336.41" fill="none" stroke="rgb(255, 0, 0)" stroke-width="2.90" stroke-opacity="1.00" stroke-linejoin="round"/>
<path d="M181.84,334.48 C181.75,334.57 181.66,334.66 181.57,334.75 C181.48,334.83 181.39,334.92 181.30,335.01 C181.61,336.97 182.19,338.37 183.50,339.94 C184.58,341.19 186.28,342.48 187.28,342.59 C188.55,342.70 191.16,341.41 192.62,340.00 C193.97,338.65 195.15,336.20 195.20,334.67 C195.20,333.40 194.27,331.22 193.45,330.48 C192.69,329.84 190.43,328.91 189.62,328.95 C189.28,328.97 188.59,329.12 187.53,329.39" fill="none" stroke="rgb(255, 0, 0)" stroke-width="2.90" stroke-opacity="1.00" stroke-linejoin="round"/>
<path d="M94.40,331.26 C92.47,331.35 91.27,331.76 90.39,332.88 C89.56,333.93 88.56,335.78 88.25,336.85 C87.99,337.94 88.21,339.62 89.00,340.48 C90.64,342.17 92.89,343.40 93.95,342.97 C95.95,342.08 98.76,339.17 98.98,338.76 C99.13,338.46 99.34,337.83 99.60,336.87" fill="none" stroke="rgb(255, 0, 0)" stroke-width="2.90" stroke-opacity="1.00" stroke-linejoin="round"/>
<path d="M129.80,358.08 C129.80,358.08 129.27,358.08 129.27,358.08 C125.30,367.39 123.39,373.95 119.59,384.52 C117.07,392.03 113.86,401.50 113.17,403.46 C113.17,403.46 133.65,409.01 133.65,409.01 C134.32,408.44 138.10,392.05 139.95,384.14 C141.40,377.87 144.77,371.44 146.41,367.50 C146.53,370.33 147.81,374.73 149.07,377.08 C152.47,383.23 154.70,389.34 158.23,402.39 C158.70,404.16 159.45,406.54 159.93,407.90 C159.93,407.90 180.17,400.98 180.17,400.98 C182.02,398.41 170.03,369.13 164.40,357.40 C164.25,357.10 163.93,356.46 163.42,355.47" fill="none" stroke="rgb(255, 0, 0)" stroke-width="2.90" stroke-opacity="1.00" stroke-linejoin="round"/>
<path d="M159.31,409.58 C159.31,409.40 159.31,409.22 159.31,409.04 C159.31,408.86 159.31,408.68 159.31,408.51 C159.31,408.51 159.88,416.49 159.88,416.49 C161.35,417.11 164.97,417.01 170.01,416.61 C173.57,416.28 180.29,414.68 183.21,413.44 C185.01,412.65 191.25,409.09 192.34,407.41 C192.95,406.40 193.37,404.23 193.10,403.37 C192.75,402.40 191.25,401.19 189.97,400.84 C187.96,400.34 182.60,400.38 181.96,400.46 C181.50,400.52 180.59,400.69 179.24,400.98" fill="none" stroke="rgb(255, 0, 0)" stroke-width="2.90" stroke-opacity="1.00" stroke-linejoin="round"/>
<path d="M113.17,404.75 C113.17,404.75 113.98,402.60 113.98,402.60 C114.12,402.60 114.20,402.61 114.21,402.64 C114.25,402.79 103.66,405.11 102.93,405.58 C101.64,406.46 100.71,407.99 100.92,408.98 C101.22,410.07 102.16,411.81 102.95,412.52 C104.74,414.09 109.06,415.20 115.14,416.15 C118.23,416.62 126.20,417.82 127.10,417.91 C130.17,418.22 133.45,417.82 134.27,416.92 C134.89,416.20 135.71,411.18 135.71,409.36 C135.71,408.82 135.71,408.27 135.71,407.72" fill="none" stroke="rgb(255, 0, 0)" stroke-width="2.90" stroke-opacity="1.00" stroke-linejoin="round"/>
</g>
</svg>
