<?xml version="1.0" encoding="UTF-8" standalone="no"?>
<!DOCTYPE svg PUBLIC "-//W3C//DTD SVG 1.1//EN" "http://www.w3.org/Graphics/SVG/1.1/DTD/svg11.dtd">
<svg width="535.00" height="757.00" viewBox="0.00 0.00 535.00 757.00" xmlns="http://www.w3.org/2000/svg" xmlns:xlink="http://www.w3.org/1999/xlink">
<g stroke-linecap="round" transform="translate(44.00, 155.00)" id="111-고양이">
<path d="M275.72,119.37 C276.22,118.91 277.92,115.23 279.16,113.07 C280.96,110.01 284.74,106.24 284.83,105.95 C284.83,105.95 285.37,116.79 285.37,116.79 C285.37,116.79 276.58,117.54 276.58,117.54 C276.58,117.54 280.58,115.90 280.58,115.90" fill="none" stroke="rgb(0, 255, 255)" stroke-width="2.90" stroke-opacity="1.00" stroke-linejoin="round"/>
<path d="M280.01,115.07 C280.01,115.07 279.47,115.61 279.47,115.61 C279.47,115.61 279.03,115.42 279.03,115.42 C279.03,115.42 282.59,107.88 282.59,107.88 C282.76,108.00 281.69,112.31 281.42,113.16 C281.34,113.43 281.22,113.71 281.08,114.00" fill="none" stroke="rgb(0, 255, 255)" stroke-width="2.90" stroke-opacity="1.00" stroke-linejoin="round"/>
<path d="M284.83,115.61 C286.78,115.71 293.30,114.33 296.07,114.07 C298.84,113.83 303.50,114.53 308.31,115.58 C307.76,112.53 309.66,105.68 310.56,104.64 C310.56,104.64 315.81,115.07 315.81,115.07 C314.42,115.04 312.23,115.02 311.22,115.07 C310.21,115.12 308.16,115.35 306.89,115.51" fill="none" stroke="rgb(0, 255, 255)" stroke-width="2.90" stroke-opacity="1.00" stroke-linejoin="round"/>
<path d="M311.12,108.64 C311.12,108.64 310.32,108.90 310.32,108.90 C310.32,108.90 309.60,110.34 309.60,110.34 C309.60,110.34 311.28,113.36 311.28,113.36 C311.46,112.81 311.57,112.42 311.61,112.20 C311.65,111.98 311.68,111.60 311.69,111.08 C311.75,111.06 311.83,111.16 311.95,111.38 C312.07,111.60 312.38,112.24 312.89,113.30" fill="none" stroke="rgb(0, 255, 255)" stroke-width="2.90" stroke-opacity="1.00" stroke-linejoin="round"/>
<path d="M315.41,115.07 C315.41,115.07 314.88,115.24 314.88,115.24 C316.34,117.23 317.60,119.97 318.04,123.34 C318.29,125.72 316.69,130.81 314.27,134.09 C312.28,136.72 307.67,140.53 305.85,141.44 C303.37,142.64 301.10,143.30 298.71,143.48 C295.35,143.70 289.67,143.29 284.93,142.50 C281.97,141.99 277.61,140.71 275.37,138.76 C274.28,137.78 272.09,134.69 271.60,133.40 C271.15,132.12 270.86,128.54 271.03,127.01 C271.34,124.67 274.80,118.93 276.28,116.48 C276.42,116.24 276.58,115.98 276.75,115.68" fill="none" stroke="rgb(0, 255, 255)" stroke-width="2.90" stroke-opacity="1.00" stroke-linejoin="round"/>
<path d="M283.76,125.80 C283.76,125.80 283.23,125.80 283.23,125.80 C283.23,125.78 283.23,127.00 283.23,128.11 C283.23,128.24 283.23,128.37 283.23,128.50 C283.25,127.94 283.29,127.43 283.34,126.96 C283.39,126.50 283.53,125.44 283.75,123.78 C283.56,124.92 283.01,128.07 282.92,128.44 C282.86,128.69 282.79,128.88 282.69,129.02" fill="none" stroke="rgb(0, 255, 255)" stroke-width="2.90" stroke-opacity="1.00" stroke-linejoin="round"/>
<path d="M302.54,125.27 C302.54,125.27 302.00,124.73 302.00,124.73 C302.00,124.73 301.46,128.84 301.46,128.84 C301.46,128.84 302.41,123.47 302.41,123.47 C302.41,123.47 301.67,128.93 301.67,128.93 C301.67,128.93 302.00,126.88 302.00,126.88" fill="none" stroke="rgb(0, 255, 255)" stroke-width="2.90" stroke-opacity="1.00" stroke-linejoin="round"/>
<path d="M294.49,132.24 C294.49,132.24 290.85,131.76 290.85,131.76 C290.85,131.76 294.13,132.65 294.13,132.65 C294.13,132.65 292.80,130.87 292.80,130.87" fill="none" stroke="rgb(0, 255, 255)" stroke-width="2.90" stroke-opacity="1.00" stroke-linejoin="round"/>
<path d="M292.34,133.31 C292.25,133.33 292.16,133.33 292.08,133.31 C291.66,133.25 291.34,133.25 291.12,133.31 C290.43,133.51 288.18,134.58 286.11,135.63 C285.83,135.78 285.63,135.88 285.49,135.94" fill="none" stroke="rgb(0, 255, 255)" stroke-width="2.90" stroke-opacity="1.00" stroke-linejoin="round"/>
<path d="M292.34,133.31 C292.32,133.71 292.32,133.98 292.34,134.12 C292.56,135.11 294.58,137.06 295.57,137.80 C295.90,138.04 296.23,138.28 296.56,138.51" fill="none" stroke="rgb(0, 255, 255)" stroke-width="2.90" stroke-opacity="1.00" stroke-linejoin="round"/>
<path d="M272.50,138.14 C272.61,137.94 265.45,141.34 263.96,141.81 C261.70,142.49 243.55,142.30 237.45,143.06 C235.84,143.26 233.04,143.51 231.02,143.63 C229.89,143.72 227.37,144.94 226.31,145.94 C224.97,147.24 223.57,150.63 223.26,152.74 C223.07,154.40 225.15,158.02 227.37,159.72 C229.60,161.37 233.42,162.50 236.76,162.69 C246.76,163.32 252.77,164.31 262.07,164.42 C275.59,164.43 277.77,164.26 288.70,162.48 C290.71,162.15 293.67,161.52 295.15,161.06 C296.53,160.60 297.81,159.42 298.34,158.19 C299.87,154.31 299.86,146.81 299.86,144.90 C299.86,144.90 299.86,145.11 299.86,145.11" fill="none" stroke="rgb(0, 255, 255)" stroke-width="2.90" stroke-opacity="1.00" stroke-linejoin="round"/>
<path d="M267.13,167.11 C267.13,167.11 267.13,166.57 267.13,166.57 C266.69,166.95 265.33,171.95 265.91,173.20 C266.29,173.98 267.27,174.42 268.34,174.51 C270.04,173.54 271.50,169.76 272.52,165.98 C272.62,165.62 272.76,165.03 272.95,164.22" fill="none" stroke="rgb(0, 255, 255)" stroke-width="2.90" stroke-opacity="1.00" stroke-linejoin="round"/>
<path d="M277.32,165.50 C277.32,165.59 277.32,165.68 277.32,165.77 C277.32,165.86 277.32,165.95 277.32,166.04 C277.32,166.04 277.42,165.04 277.42,165.04 C278.79,173.05 280.50,174.94 281.44,175.48 C282.51,175.01 283.71,173.73 284.36,171.97 C285.55,168.69 285.48,164.35 285.23,162.50 C285.23,162.50 284.44,161.71 284.44,161.71" fill="none" stroke="rgb(0, 255, 255)" stroke-width="2.90" stroke-opacity="1.00" stroke-linejoin="round"/>
<path d="M246.75,167.11 C246.75,167.11 246.21,167.11 246.21,167.11 C246.22,167.09 245.70,168.81 245.49,169.63 C244.93,171.82 245.60,173.17 246.23,173.76 C248.35,172.65 249.59,171.45 250.21,169.67 C251.29,166.48 251.44,164.32 251.25,162.96 C251.25,162.96 251.04,163.35 251.04,163.35" fill="none" stroke="rgb(0, 255, 255)" stroke-width="2.90" stroke-opacity="1.00" stroke-linejoin="round"/>
<path d="M233.34,164.43 C233.30,170.61 233.73,174.65 235.35,176.57 C237.03,176.60 238.07,175.71 238.68,173.46 C240.13,167.96 238.28,162.84 237.89,161.72 C237.89,161.72 237.72,162.40 237.72,162.40" fill="none" stroke="rgb(0, 255, 255)" stroke-width="2.90" stroke-opacity="1.00" stroke-linejoin="round"/>
<path d="M223.68,145.65 C223.68,146.19 223.68,146.72 223.68,147.26 C223.68,147.62 223.68,147.98 223.68,148.33 C223.23,147.84 218.07,147.49 214.89,146.67 C211.52,145.78 208.94,144.31 204.84,141.49 C202.86,140.11 201.91,139.54 201.15,139.21 C201.15,139.21 202.63,141.70 202.63,141.70 C202.63,141.70 202.22,142.43 202.22,142.43" fill="none" stroke="rgb(0, 255, 255)" stroke-width="2.90" stroke-opacity="1.00" stroke-linejoin="round"/>
<path d="M203.30,138.68 C203.30,138.68 202.76,139.21 202.76,139.21 C202.76,139.21 202.22,139.75 202.22,139.75 C202.36,142.55 202.44,143.27 202.93,143.67 C204.38,144.79 206.80,145.79 209.26,146.22 C212.99,146.76 218.35,147.57 221.15,148.28 C221.30,148.32 221.43,148.33 221.54,148.33" fill="none" stroke="rgb(0, 255, 255)" stroke-width="2.90" stroke-opacity="1.00" stroke-linejoin="round"/>
<path d="M205.98,141.90 C205.67,140.85 205.49,140.23 205.44,140.02 C205.39,139.81 205.39,139.72 205.44,139.75 C205.44,139.75 205.44,140.39 205.44,140.39 C206.36,141.38 209.73,144.84 212.36,146.10 C214.15,146.91 215.99,147.53 218.22,148.03 C218.91,148.19 223.65,149.09 225.29,149.41" fill="none" stroke="rgb(0, 255, 255)" stroke-width="2.90" stroke-opacity="1.00" stroke-linejoin="round"/>
</g>
</svg>
