<?xml version="1.0" encoding="UTF-8" standalone="no"?>
<!DOCTYPE svg PUBLIC "-//W3C//DTD SVG 1.1//EN" "http://www.w3.org/Graphics/SVG/1.1/DTD/svg11.dtd">
<svg width="535.00" height="757.00" viewBox="0.00 0.00 535.00 757.00" xmlns="http://www.w3.org/2000/svg" xmlns:xlink="http://www.w3.org/1999/xlink">
<g stroke-linecap="round" transform="translate(44.00, 155.00)" id="111-우산통">
<path d="M9.64,367.20 C8.57,367.12 4.03,368.60 2.33,369.50 C0.42,370.53 -1.62,372.79 -4.29,376.30 C-6.76,379.60 -8.03,384.09 -7.97,387.04 C-7.87,389.42 -6.74,392.95 -5.39,394.91 C-4.11,396.69 -0.49,398.66 2.95,399.84 C5.69,400.73 20.80,401.13 26.84,400.20 C30.58,399.60 38.84,397.18 40.49,396.57 C43.91,395.27 47.12,392.42 50.06,388.96 C51.27,387.51 52.49,385.54 52.98,384.02 C53.59,382.01 53.43,378.60 52.75,376.39 C52.24,374.90 49.11,371.01 47.07,369.24 C45.67,368.04 41.59,365.26 39.34,364.31 C37.36,363.49 31.01,361.43 28.12,361.27 C25.21,361.14 22.70,361.33 22.64,361.57 C22.64,361.63 22.60,361.72 22.52,361.84" fill="none" stroke="rgb(0, 255, 0)" stroke-width="2.90" stroke-opacity="1.00" stroke-linejoin="round"/>
<path d="M-7.52,391.34 C-7.52,391.34 -6.99,391.34 -6.99,391.34 C-6.99,392.90 -8.43,401.75 -8.47,402.19 C-8.55,403.08 -9.14,439.88 -9.61,453.48 C-9.66,467.84 -9.19,493.65 -9.16,494.64 C-9.11,496.13 -8.85,503.62 -7.87,504.31 C-6.33,505.28 -2.78,507.08 3.23,509.87 C7.69,511.91 11.89,513.20 15.68,513.60 C22.99,514.33 35.60,513.74 42.70,512.14 C45.75,511.44 51.49,508.91 51.75,508.79 C52.77,508.24 53.42,505.74 53.50,501.32 C53.72,483.63 52.54,459.18 52.56,441.60 C52.53,424.56 52.80,395.43 53.09,383.35 C53.09,382.97 53.09,382.60 53.09,382.22" fill="none" stroke="rgb(0, 255, 0)" stroke-width="2.90" stroke-opacity="1.00" stroke-linejoin="round"/>
</g>
</svg>
