<?xml version="1.0" encoding="UTF-8" standalone="no"?>
<!DOCTYPE svg PUBLIC "-//W3C//DTD SVG 1.1//EN" "http://www.w3.org/Graphics/SVG/1.1/DTD/svg11.dtd">
<svg width="128.40" height="181.68" viewBox="0.00 0.00 535.00 757.00" xmlns="http://www.w3.org/2000/svg" xmlns:xlink="http://www.w3.org/1999/xlink">
<g stroke-linecap="round" transform="translate(44.00, 155.00)" id="112-비">
<path d="M23.00,504.14 C22.83,504.14 22.67,504.14 22.50,504.14 C22.32,504.14 22.14,504.14 21.96,504.14 C20.01,504.13 14.77,503.45 11.19,502.98 C7.11,502.42 0.05,501.47 -2.92,501.07" fill="none" stroke="rgb(0, 255, 255)" stroke-width="3.16" stroke-opacity="1.00" stroke-linejoin="round"/>
<path d="M78.07,494.40 C77.29,494.90 76.49,495.28 75.74,495.46 C74.47,495.75 69.71,495.52 67.15,494.70 C62.46,493.17 49.69,486.24 43.39,482.18 C37.55,478.33 30.06,472.17 22.58,465.60" fill="none" stroke="rgb(0, 255, 255)" stroke-width="3.16" stroke-opacity="1.00" stroke-linejoin="round"/>
<path d="M104.33,503.72 C104.33,503.72 104.33,504.14 104.33,504.14 C104.18,504.15 104.08,504.15 104.02,504.14 C103.65,504.09 71.57,488.53 62.46,482.57 C54.28,477.20 32.74,459.95 19.35,447.87 C10.48,439.62 -2.53,424.58 -6.23,420.28" fill="none" stroke="rgb(0, 255, 255)" stroke-width="3.16" stroke-opacity="1.00" stroke-linejoin="round"/>
<path d="M63.66,411.38 C62.58,412.42 62.38,412.67 62.34,412.65 C58.61,411.19 57.48,410.51 51.81,406.50 C46.94,402.99 34.51,392.28 29.46,387.71 C26.15,384.63 12.63,370.58 7.22,364.70 C2.86,359.77 -5.72,349.30 -8.15,345.84" fill="none" stroke="rgb(0, 255, 255)" stroke-width="3.16" stroke-opacity="1.00" stroke-linejoin="round"/>
<path d="M165.75,506.26 C165.81,506.37 164.40,505.79 163.53,505.29 C161.36,504.02 130.83,473.72 122.52,466.10 C114.08,458.43 85.71,434.98 73.11,424.98 C61.18,416.00 44.17,403.06 39.10,399.10" fill="none" stroke="rgb(0, 255, 255)" stroke-width="3.16" stroke-opacity="1.00" stroke-linejoin="round"/>
<path d="M203.87,497.79 C203.87,497.79 203.44,498.21 203.44,498.21 C199.63,497.53 193.60,494.53 190.17,492.82 C182.55,488.92 155.04,471.66 142.65,463.03 C128.72,452.78 109.50,437.26 97.77,427.12 C88.22,418.49 67.11,397.81 57.73,388.51" fill="none" stroke="rgb(0, 255, 255)" stroke-width="3.16" stroke-opacity="1.00" stroke-linejoin="round"/>
<path d="M73.83,363.94 C73.83,363.94 72.56,364.79 72.56,364.79 C69.11,363.01 65.42,359.57 62.54,357.08 C44.09,341.09 31.20,328.75 19.70,315.74 C2.74,295.40 -1.27,291.02 -1.99,290.24" fill="none" stroke="rgb(0, 255, 255)" stroke-width="3.16" stroke-opacity="1.00" stroke-linejoin="round"/>
<path d="M170.83,455.01 C168.33,453.58 164.72,450.62 161.00,446.87 C156.68,442.51 128.41,418.06 115.65,406.98 C110.87,402.66 90.01,380.44 79.69,368.36 C74.52,362.12 68.59,354.95 67.84,354.04" fill="none" stroke="rgb(0, 255, 255)" stroke-width="3.16" stroke-opacity="1.00" stroke-linejoin="round"/>
<path d="M146.68,371.99 C146.68,371.99 146.68,373.20 146.68,373.20 C146.44,371.90 122.20,341.60 115.96,335.07 C111.39,330.44 101.28,320.25 95.73,314.69 C83.47,302.31 69.36,288.04 67.49,286.15" fill="none" stroke="rgb(0, 255, 255)" stroke-width="3.16" stroke-opacity="1.00" stroke-linejoin="round"/>
<path d="M189.89,359.28 C189.89,359.28 189.31,359.70 189.31,359.70 C188.29,359.66 154.90,336.05 147.56,330.32 C143.70,327.31 129.56,315.22 123.30,309.63 C115.74,302.61 100.86,287.13 100.20,286.45" fill="none" stroke="rgb(0, 255, 255)" stroke-width="3.16" stroke-opacity="1.00" stroke-linejoin="round"/>
<path d="M81.88,254.23 C81.88,254.23 80.29,254.18 80.29,254.18 C79.55,253.52 38.69,207.84 22.44,190.06 C11.94,178.72 -1.10,164.72 -3.64,162.07" fill="none" stroke="rgb(0, 255, 255)" stroke-width="3.16" stroke-opacity="1.00" stroke-linejoin="round"/>
<path d="M90.77,205.10 C90.77,205.10 90.56,206.16 90.56,206.16 C90.56,206.16 90.24,206.37 90.24,206.37 C88.44,204.97 61.72,177.24 50.13,164.19 C42.95,155.86 21.74,128.45 16.65,123.35" fill="none" stroke="rgb(0, 255, 255)" stroke-width="3.16" stroke-opacity="1.00" stroke-linejoin="round"/>
<path d="M156.85,264.82 C156.85,264.82 157.70,266.45 157.70,266.45 C155.58,266.13 130.28,250.36 114.65,239.66 C102.18,230.87 83.87,217.86 66.09,203.68 C59.51,198.40 50.88,191.49 48.84,189.85" fill="none" stroke="rgb(0, 255, 255)" stroke-width="3.16" stroke-opacity="1.00" stroke-linejoin="round"/>
<path d="M40.37,193.24 C44.26,195.63 71.14,221.17 82.40,231.81 C93.91,242.95 111.13,259.82 122.40,272.55 C129.04,280.30 142.48,297.42 144.14,299.56" fill="none" stroke="rgb(0, 255, 255)" stroke-width="3.16" stroke-opacity="1.00" stroke-linejoin="round"/>
<path d="M101.36,196.20 C101.26,196.20 113.58,207.41 119.12,213.24 C151.61,249.43 159.70,259.37 160.24,260.03" fill="none" stroke="rgb(0, 255, 255)" stroke-width="3.16" stroke-opacity="1.00" stroke-linejoin="round"/>
<path d="M49.69,250.42 C56.06,255.03 67.73,265.49 70.18,267.85 C72.63,270.22 95.55,296.43 100.41,302.09 C104.30,306.77 107.39,311.03 108.56,312.69" fill="none" stroke="rgb(0, 255, 255)" stroke-width="3.16" stroke-opacity="1.00" stroke-linejoin="round"/>
<path d="M21.73,243.64 C19.18,244.42 17.68,245.81 13.95,245.54 C12.39,245.42 7.80,243.65 4.34,241.99 C-0.14,239.79 -16.00,225.86 -16.76,225.18" fill="none" stroke="rgb(0, 255, 255)" stroke-width="3.16" stroke-opacity="1.00" stroke-linejoin="round"/>
<path d="M281.81,414.77 C281.81,414.77 280.90,415.62 280.90,415.62 C280.38,415.65 250.69,394.32 237.27,383.99 C231.26,379.22 220.09,368.81 217.04,365.66 C204.89,352.85 197.14,342.46 192.41,335.70" fill="none" stroke="rgb(0, 255, 255)" stroke-width="3.16" stroke-opacity="1.00" stroke-linejoin="round"/>
<path d="M250.04,445.27 C250.04,445.27 250.46,444.84 250.46,444.84 C247.22,440.22 232.41,427.53 230.47,426.13 C227.54,424.04 192.51,402.60 179.13,393.87 C165.87,384.95 146.02,371.32 136.70,364.34" fill="none" stroke="rgb(0, 255, 255)" stroke-width="3.16" stroke-opacity="1.00" stroke-linejoin="round"/>
<path d="M141.18,362.24 C141.18,362.24 140.27,363.82 140.27,363.82 C138.12,363.75 123.59,356.79 116.72,353.30 C109.85,349.66 97.65,342.83 90.64,338.23 C85.37,334.73 74.97,326.57 69.21,320.70 C63.34,314.51 56.55,307.33 55.62,306.33" fill="none" stroke="rgb(0, 255, 255)" stroke-width="3.16" stroke-opacity="1.00" stroke-linejoin="round"/>
<path d="M272.06,489.32 C272.06,489.32 272.06,488.79 272.06,488.79 C271.51,488.60 271.08,488.45 270.78,488.31 C268.94,487.50 253.75,476.78 248.65,473.73 C239.34,468.33 205.31,450.61 195.78,445.12 C182.10,436.86 158.58,420.57 147.47,411.77 C135.83,402.10 123.36,391.74 122.54,391.05" fill="none" stroke="rgb(0, 255, 255)" stroke-width="3.16" stroke-opacity="1.00" stroke-linejoin="round"/>
<path d="M227.16,347.42 C225.44,347.56 223.31,346.50 219.93,343.68 C217.98,342.00 207.15,329.72 201.73,323.58 C200.63,322.34 198.76,320.23 198.00,319.37" fill="none" stroke="rgb(0, 255, 255)" stroke-width="3.16" stroke-opacity="1.00" stroke-linejoin="round"/>
<path d="M288.58,352.08 C288.58,352.08 287.62,352.50 287.62,352.50 C284.52,351.44 272.27,342.60 269.03,339.98 C263.02,335.12 238.77,311.78 229.57,301.82 C218.23,289.04 209.75,278.52 208.99,277.58" fill="none" stroke="rgb(0, 255, 255)" stroke-width="3.16" stroke-opacity="1.00" stroke-linejoin="round"/>
<path d="M325.43,341.49 C325.43,341.49 325.31,342.13 325.31,342.13 C325.31,342.13 324.55,342.28 324.55,342.28 C323.74,341.75 320.31,337.58 318.68,335.94 C315.73,333.00 300.13,322.79 296.97,320.57 C276.58,306.70 263.07,296.12 252.67,287.86 C229.70,269.42 200.38,245.54 194.02,240.10" fill="none" stroke="rgb(0, 255, 255)" stroke-width="3.16" stroke-opacity="1.00" stroke-linejoin="round"/>
<path d="M311.03,403.33 C310.65,403.57 310.40,403.72 310.29,403.76 C309.38,404.04 305.38,401.87 301.79,399.20 C264.27,369.75 251.47,358.48 248.80,356.09" fill="none" stroke="rgb(0, 255, 255)" stroke-width="3.16" stroke-opacity="1.00" stroke-linejoin="round"/>
<path d="M444.04,440.18 C443.70,440.17 443.46,440.17 443.32,440.18 C441.71,440.26 432.72,434.40 425.67,428.59 C414.32,419.30 391.29,401.36 380.21,392.81 C366.87,381.91 351.39,369.26 349.27,367.51" fill="none" stroke="rgb(0, 255, 255)" stroke-width="3.16" stroke-opacity="1.00" stroke-linejoin="round"/>
<path d="M342.38,216.11 C339.56,215.83 309.89,196.19 299.95,190.20 C288.56,183.39 267.77,168.04 256.31,158.28 C243.33,146.84 233.04,136.29 230.76,133.94" fill="none" stroke="rgb(0, 255, 255)" stroke-width="3.16" stroke-opacity="1.00" stroke-linejoin="round"/>
<path d="M262.75,182.22 C262.32,182.22 262.16,182.21 261.84,182.06 C257.68,180.00 229.53,159.67 217.76,151.13 C215.97,149.81 201.97,139.12 196.99,135.86 C195.57,134.93 194.55,134.33 192.75,133.34 C192.75,133.34 192.03,133.70 192.03,133.70" fill="none" stroke="rgb(0, 255, 255)" stroke-width="3.16" stroke-opacity="1.00" stroke-linejoin="round"/>
<path d="M223.78,176.72 C221.73,176.63 220.04,176.07 218.55,174.85 C215.84,172.60 207.02,159.15 205.63,157.50 C204.41,156.06 188.84,139.05 186.39,136.68" fill="none" stroke="rgb(0, 255, 255)" stroke-width="3.16" stroke-opacity="1.00" stroke-linejoin="round"/>
<path d="M236.06,211.03 C235.79,210.82 235.52,210.60 235.26,210.39 C232.74,208.35 202.90,178.81 195.68,171.16 C183.79,158.08 165.45,140.22 154.81,130.10 C149.08,124.58 138.89,115.40 135.65,112.74 C130.78,108.74 118.43,100.97 112.59,97.28 C111.03,96.28 109.91,95.46 107.75,93.75" fill="none" stroke="rgb(0, 255, 255)" stroke-width="3.16" stroke-opacity="1.00" stroke-linejoin="round"/>
<path d="M263.59,218.23 C263.24,218.19 261.68,218.34 261.11,218.23 C257.93,217.54 252.26,213.94 248.75,211.54 C245.39,209.21 237.36,203.52 235.42,202.05 C231.93,199.41 226.52,194.89 224.41,193.11" fill="none" stroke="rgb(0, 255, 255)" stroke-width="3.16" stroke-opacity="1.00" stroke-linejoin="round"/>
<path d="M264.86,243.22 C262.16,242.96 253.48,238.10 243.97,231.93 C236.37,226.92 223.28,217.83 217.83,213.78 C205.80,204.34 189.94,191.34 187.76,189.55" fill="none" stroke="rgb(0, 255, 255)" stroke-width="3.16" stroke-opacity="1.00" stroke-linejoin="round"/>
<path d="M214.03,269.06 C214.03,269.06 214.46,269.06 214.46,269.06 C212.18,267.39 206.86,263.47 203.83,261.22 C201.79,259.69 174.82,237.21 163.47,225.91 C154.16,216.42 132.66,193.87 128.07,189.65 C128.05,189.63 116.92,178.44 109.54,171.54 C103.67,166.12 94.02,156.93 91.84,155.17" fill="none" stroke="rgb(0, 255, 255)" stroke-width="3.16" stroke-opacity="1.00" stroke-linejoin="round"/>
<path d="M147.11,186.46 C147.11,186.46 147.11,186.04 147.11,186.04 C145.74,184.93 73.80,120.65 64.86,113.35 C58.81,108.68 47.21,99.87 40.50,95.02 C35.15,91.36 20.65,81.91 17.92,80.05 C12.77,76.53 4.62,69.05 1.98,66.85" fill="none" stroke="rgb(0, 255, 255)" stroke-width="3.16" stroke-opacity="1.00" stroke-linejoin="round"/>
<path d="M205.99,244.07 C202.44,241.72 200.12,239.65 198.23,237.15 C196.37,234.64 187.88,222.20 182.05,214.82 C178.02,209.72 169.85,199.89 165.65,194.92 C159.65,187.82 150.96,174.95 150.60,174.42 C146.03,167.66 129.05,151.13 114.63,134.74 C104.96,123.29 79.32,92.30 77.75,90.65 C76.39,89.24 74.23,87.18 72.98,86.07" fill="none" stroke="rgb(0, 255, 255)" stroke-width="3.16" stroke-opacity="1.00" stroke-linejoin="round"/>
<path d="M31.05,84.80 C31.05,84.80 28.08,85.79 28.08,85.79 C23.26,77.70 13.25,47.56 11.56,42.02" fill="none" stroke="rgb(0, 255, 255)" stroke-width="3.16" stroke-opacity="1.00" stroke-linejoin="round"/>
<path d="M99.67,67.86 C96.51,67.12 92.78,64.96 90.61,63.16 C90.49,63.06 59.23,29.98 53.88,24.03 C48.59,17.81 39.65,7.20 35.99,2.82" fill="none" stroke="rgb(0, 255, 255)" stroke-width="3.16" stroke-opacity="1.00" stroke-linejoin="round"/>
<path d="M153.46,94.54 C151.49,94.03 150.45,93.59 149.65,92.73 C149.21,92.25 137.59,79.75 129.21,72.00 C114.20,58.41 89.92,39.09 85.46,35.45 C80.86,31.60 72.84,24.21 72.07,23.49" fill="none" stroke="rgb(0, 255, 255)" stroke-width="3.16" stroke-opacity="1.00" stroke-linejoin="round"/>
<path d="M451.24,330.05 C448.60,328.86 447.12,328.08 445.36,326.84 C439.25,322.68 426.87,314.22 422.64,311.03 C414.50,304.85 398.87,289.24 396.74,287.10" fill="none" stroke="rgb(0, 255, 255)" stroke-width="3.16" stroke-opacity="1.00" stroke-linejoin="round"/>
<path d="M361.02,192.81 C361.31,192.91 363.73,190.53 364.67,186.66 C365.15,184.61 364.89,177.76 364.37,174.73 C363.30,168.67 359.10,157.80 358.05,155.12" fill="none" stroke="rgb(0, 255, 255)" stroke-width="3.16" stroke-opacity="1.00" stroke-linejoin="round"/>
<path d="M391.09,194.08 C389.10,193.90 380.74,182.54 375.22,173.55 C372.93,169.75 369.05,163.29 367.45,160.62" fill="none" stroke="rgb(0, 255, 255)" stroke-width="3.16" stroke-opacity="1.00" stroke-linejoin="round"/>
<path d="M355.93,220.77 C355.50,220.75 353.11,220.29 351.46,218.98 C346.64,215.14 339.56,207.11 333.86,199.72" fill="none" stroke="rgb(0, 255, 255)" stroke-width="3.16" stroke-opacity="1.00" stroke-linejoin="round"/>
<path d="M464.79,191.12 C464.79,191.12 464.08,192.39 464.08,192.39 C463.15,191.45 450.74,176.51 444.65,169.16 C439.26,162.59 431.48,153.00 429.09,149.98" fill="none" stroke="rgb(0, 255, 255)" stroke-width="3.16" stroke-opacity="1.00" stroke-linejoin="round"/>
<path d="M389.87,151.05 C389.88,151.04 365.02,120.02 356.59,109.62 C342.90,92.32 330.96,75.50 321.39,61.43 C317.14,55.03 312.27,47.71 311.65,46.78" fill="none" stroke="rgb(0, 255, 255)" stroke-width="3.16" stroke-opacity="1.00" stroke-linejoin="round"/>
<path d="M375.83,82.62 C374.32,80.84 350.63,56.69 341.54,47.28 C319.91,23.96 290.75,-7.17 281.55,-17.02 C276.68,-22.19 268.85,-30.35 265.89,-33.34" fill="none" stroke="rgb(0, 255, 255)" stroke-width="3.16" stroke-opacity="1.00" stroke-linejoin="round"/>
<path d="M319.64,-4.38 C319.64,-4.38 319.19,-4.38 319.19,-4.38 C317.18,-7.59 314.73,-10.99 311.73,-14.31 C302.70,-24.04 283.24,-45.06 272.80,-56.34 C261.75,-68.64 233.26,-98.39 229.08,-103.55 C228.10,-104.77 226.48,-106.81 225.83,-107.62" fill="none" stroke="rgb(0, 255, 255)" stroke-width="3.16" stroke-opacity="1.00" stroke-linejoin="round"/>
<path d="M382.17,53.17 C382.17,53.17 382.62,53.17 382.62,53.17 C365.77,33.26 314.36,-18.71 305.06,-29.42 C298.02,-37.86 275.74,-68.44 269.86,-75.50 C260.34,-87.27 247.56,-102.31 246.62,-103.34" fill="none" stroke="rgb(0, 255, 255)" stroke-width="3.16" stroke-opacity="1.00" stroke-linejoin="round"/>
<path d="M356.80,-4.38 C356.72,-4.38 356.65,-4.38 356.57,-4.38 C356.46,-4.38 356.35,-4.38 356.24,-4.38 C352.83,-6.84 338.77,-27.39 327.32,-46.06 C324.22,-51.33 313.62,-73.13 311.75,-77.03" fill="none" stroke="rgb(0, 255, 255)" stroke-width="3.16" stroke-opacity="1.00" stroke-linejoin="round"/>
<path d="M426.12,39.58 C426.12,39.58 426.05,40.03 426.05,40.03 C425.68,40.06 416.13,29.08 411.17,23.47 C401.22,12.34 390.64,0.50 390.02,-0.20" fill="none" stroke="rgb(0, 255, 255)" stroke-width="3.16" stroke-opacity="1.00" stroke-linejoin="round"/>
<path d="M403.02,-53.77 C403.02,-53.77 402.79,-53.54 402.79,-53.54 C402.79,-53.54 402.00,-53.65 402.00,-53.65 C399.91,-55.77 386.44,-72.54 383.96,-75.93 C377.36,-85.19 364.47,-104.94 361.63,-109.44" fill="none" stroke="rgb(0, 255, 255)" stroke-width="3.16" stroke-opacity="1.00" stroke-linejoin="round"/>
<path d="M459.20,50.00 C459.25,49.51 459.02,48.23 458.56,47.34 C458.51,47.25 453.61,40.00 451.40,37.29 C450.54,36.25 443.79,28.37 441.43,25.64" fill="none" stroke="rgb(0, 255, 255)" stroke-width="3.16" stroke-opacity="1.00" stroke-linejoin="round"/>
<path d="M431.56,104.83 C431.56,104.83 431.11,105.69 431.11,105.69 C431.11,105.69 389.81,58.84 389.81,58.84" fill="none" stroke="rgb(0, 255, 255)" stroke-width="3.16" stroke-opacity="1.00" stroke-linejoin="round"/>
<path d="M240.80,34.14 C241.35,34.46 241.70,34.69 241.83,34.82 C241.96,34.95 242.07,35.18 242.16,35.50 C242.14,31.93 240.05,27.83 237.99,24.44 C236.08,21.43 225.41,6.86 221.88,2.96 C211.70,-8.07 189.00,-32.62 176.47,-46.15 C172.27,-50.69 167.27,-56.09 166.48,-56.94" fill="none" stroke="rgb(0, 255, 255)" stroke-width="3.16" stroke-opacity="1.00" stroke-linejoin="round"/>
<path d="M219.05,46.37 C219.05,46.37 218.48,46.83 218.48,46.83 C215.19,41.89 207.08,31.86 204.60,28.04 C201.43,23.16 189.93,10.96 185.06,6.50 C177.08,-0.60 152.37,-21.63 137.35,-35.25 C131.81,-40.43 121.91,-50.14 116.87,-55.64 C106.43,-67.64 95.28,-81.02 93.79,-82.83" fill="none" stroke="rgb(0, 255, 255)" stroke-width="3.16" stroke-opacity="1.00" stroke-linejoin="round"/>
<path d="M319.64,98.48 C319.64,98.48 319.58,100.75 319.58,100.75 C316.85,95.23 309.57,84.65 304.55,78.44 C291.51,62.64 270.17,33.98 268.31,31.33 C260.38,19.48 248.81,1.99 245.18,-3.64" fill="none" stroke="rgb(0, 255, 255)" stroke-width="3.16" stroke-opacity="1.00" stroke-linejoin="round"/>
<path d="M293.36,19.19 C293.36,19.19 293.81,21.00 293.81,21.00 C292.94,21.15 281.00,8.94 277.57,4.94 C272.61,-1.08 262.96,-12.98 258.27,-18.85 C257.48,-19.87 256.17,-21.56 255.65,-22.23" fill="none" stroke="rgb(0, 255, 255)" stroke-width="3.16" stroke-opacity="1.00" stroke-linejoin="round"/>
<path d="M228.11,99.39 C228.11,99.39 227.91,100.23 227.91,100.23 C226.87,99.31 219.21,90.38 211.41,82.78 C205.75,77.42 194.73,67.04 189.37,62.02 C178.31,51.29 166.17,39.47 165.09,38.36" fill="none" stroke="rgb(0, 255, 255)" stroke-width="3.16" stroke-opacity="1.00" stroke-linejoin="round"/>
<path d="M182.34,69.48 C182.34,69.48 181.44,69.48 181.44,69.48 C180.64,68.88 171.60,57.63 165.55,51.49 C146.15,31.63 108.14,-5.04 107.26,-6.07 C89.56,-26.83 61.91,-57.98 50.00,-72.41 C39.65,-85.50 31.57,-98.76 29.27,-102.59" fill="none" stroke="rgb(0, 255, 255)" stroke-width="3.16" stroke-opacity="1.00" stroke-linejoin="round"/>
<path d="M229.92,146.06 C230.02,145.81 229.05,144.85 226.64,142.90 C220.82,138.24 209.35,128.96 202.85,122.97 C192.99,113.71 175.03,92.53 168.01,84.10" fill="none" stroke="rgb(0, 255, 255)" stroke-width="3.16" stroke-opacity="1.00" stroke-linejoin="round"/>
<path d="M231.69,42.10 C230.97,41.15 230.40,40.47 229.98,40.04 C228.37,38.45 217.18,29.83 210.73,23.59 C203.33,16.14 201.22,13.28 200.52,12.26" fill="none" stroke="rgb(0, 255, 255)" stroke-width="3.16" stroke-opacity="1.00" stroke-linejoin="round"/>
</g>
</svg>
