<?xml version="1.0" encoding="UTF-8" standalone="no"?>
<!DOCTYPE svg PUBLIC "-//W3C//DTD SVG 1.1//EN" "http://www.w3.org/Graphics/SVG/1.1/DTD/svg11.dtd">
<svg width="128.40" height="181.68" viewBox="0.00 0.00 535.00 757.00" xmlns="http://www.w3.org/2000/svg" xmlns:xlink="http://www.w3.org/1999/xlink">
<g stroke-linecap="round" transform="translate(44.00, 155.00)" id="112-우산">
<path d="M345.13,319.22 C345.04,319.22 342.90,316.12 339.28,312.08 C337.73,310.39 333.88,307.90 328.24,304.59 C324.32,302.32 321.97,301.28 319.22,300.65 C316.78,300.11 314.03,300.20 312.84,300.96 C312.03,301.54 310.08,307.49 310.25,309.67 C310.47,311.87 313.15,316.90 314.89,318.26 C316.59,319.53 318.68,319.84 319.58,319.81 C320.19,318.56 320.21,317.61 319.48,316.22 C317.57,312.62 316.91,311.46 316.04,309.99 C316.43,308.70 319.70,307.28 322.18,307.36 C325.21,307.51 328.67,309.94 330.62,312.62 C332.63,315.43 338.62,321.53 340.61,323.55 C341.35,324.28 342.09,325.01 342.83,325.74" fill="none" stroke="rgb(19, 26, 118)" stroke-width="3.16" stroke-opacity="1.00" stroke-linejoin="round"/>
<path d="M345.52,329.20 C345.52,329.20 335.57,327.66 335.57,327.66 C337.68,327.54 348.32,335.51 348.89,335.96 C349.25,336.25 349.92,336.81 350.89,337.64" fill="none" stroke="rgb(19, 26, 118)" stroke-width="3.16" stroke-opacity="1.00" stroke-linejoin="round"/>
<path d="M365.85,320.37 C370.05,326.61 378.23,334.01 378.51,334.18 C378.51,334.18 378.51,333.85 378.51,333.85" fill="none" stroke="rgb(19, 26, 118)" stroke-width="3.16" stroke-opacity="1.00" stroke-linejoin="round"/>
<path d="M377.36,332.65 C377.36,332.65 375.98,332.72 375.98,332.72 C374.93,334.13 371.88,342.08 371.43,342.94 C370.85,344.04 369.16,346.69 368.93,347.46 C369.21,347.60 369.71,347.62 370.80,347.46 C372.97,347.10 374.19,344.81 376.07,339.61 C377.45,335.72 378.15,334.20 378.13,333.45 C378.13,333.45 371.22,346.46 371.22,346.46 C371.33,345.91 366.22,344.07 363.62,343.16 C363.31,343.04 362.90,342.86 362.40,342.62" fill="none" stroke="rgb(19, 26, 118)" stroke-width="3.16" stroke-opacity="1.00" stroke-linejoin="round"/>
<path d="M377.75,333.80 C377.84,333.81 383.00,333.91 385.84,334.81 C390.48,336.32 398.17,341.70 405.90,345.76 C409.53,347.68 430.49,364.22 447.08,379.11 C452.34,384.00 461.08,392.86 463.98,394.97 C467.65,397.64 471.19,400.53 473.17,402.51 C475.24,404.63 475.13,406.12 474.83,407.46 C474.02,408.17 469.86,408.23 467.83,407.54 C465.48,406.72 462.46,404.85 459.21,402.20 C455.87,399.48 452.77,398.02 448.45,396.48 C444.12,394.96 436.72,391.42 427.95,387.84 C421.45,385.12 410.48,377.49 403.97,373.04 C400.00,370.27 391.02,363.26 381.04,356.57 C378.11,354.60 370.91,349.53 370.42,349.09 C369.78,348.54 367.07,345.78 366.24,344.93" fill="none" stroke="rgb(19, 26, 118)" stroke-width="3.16" stroke-opacity="1.00" stroke-linejoin="round"/>
<path d="M475.19,405.93 C475.19,405.93 474.81,405.93 474.81,405.93 C478.09,406.34 486.06,411.20 487.40,412.73 C486.78,415.13 477.36,409.22 476.09,408.34 C476.09,408.34 485.63,412.44 485.63,412.44 C485.63,412.44 475.78,407.24 475.78,407.24 C477.35,407.91 480.33,409.31 481.45,410.04 C481.98,410.39 482.84,411.07 484.02,412.06" fill="none" stroke="rgb(19, 26, 118)" stroke-width="3.16" stroke-opacity="1.00" stroke-linejoin="round"/>
<path d="M378.51,342.24 C379.50,343.24 385.56,348.62 386.68,349.52 C389.99,352.18 393.17,355.79 395.28,359.05 C396.96,361.64 400.28,366.13 401.91,368.33" fill="none" stroke="rgb(19, 26, 118)" stroke-width="3.16" stroke-opacity="1.00" stroke-linejoin="round"/>
<path d="M377.36,346.46 C377.36,346.46 376.98,346.46 376.98,346.46 C376.91,346.44 377.05,346.59 377.11,346.63 C377.19,346.70 380.42,349.10 381.14,349.69 C383.41,351.54 397.65,365.07 399.72,366.88 C401.72,368.64 405.57,371.82 406.90,372.93" fill="none" stroke="rgb(19, 26, 118)" stroke-width="3.16" stroke-opacity="1.00" stroke-linejoin="round"/>
<path d="M395.78,353.37 C396.32,353.91 397.53,355.11 398.02,355.55 C399.82,357.15 407.83,363.44 408.14,363.67 C411.04,365.83 424.09,372.78 425.61,374.08 C425.93,374.35 426.21,374.74 426.47,375.23" fill="none" stroke="rgb(19, 26, 118)" stroke-width="3.16" stroke-opacity="1.00" stroke-linejoin="round"/>
<path d="M408.44,370.25 C408.44,370.25 408.44,371.21 408.44,371.21 C408.44,371.21 408.05,371.40 408.05,371.40 C407.91,370.93 426.95,375.30 428.79,376.43 C433.71,379.47 442.36,383.70 449.21,388.25 C452.21,390.32 458.70,394.82 459.28,395.30 C459.65,395.60 460.48,396.33 461.76,397.49" fill="none" stroke="rgb(19, 26, 118)" stroke-width="3.16" stroke-opacity="1.00" stroke-linejoin="round"/>
<path d="M457.93,394.42 C457.16,394.43 456.22,394.33 455.60,393.88 C454.48,393.07 448.87,387.36 447.55,386.22 C443.98,383.18 429.01,372.88 426.79,370.94 C423.58,368.15 407.94,356.83 405.88,355.45 C400.94,352.14 390.64,343.29 386.96,340.79 C385.99,340.13 384.09,338.82 383.38,338.28 C382.37,337.52 378.48,334.30 377.33,333.34" fill="none" stroke="rgb(19, 26, 118)" stroke-width="3.16" stroke-opacity="1.00" stroke-linejoin="round"/>
<path d="M407.29,348.76 C414.02,355.61 426.59,366.30 427.35,367.15 C427.48,367.29 431.55,372.59 432.87,373.81 C433.80,374.67 446.10,383.48 454.35,390.52 C457.11,392.87 462.90,397.75 464.35,398.89 C467.08,401.00 471.16,404.14 472.51,405.16" fill="none" stroke="rgb(19, 26, 118)" stroke-width="3.16" stroke-opacity="1.00" stroke-linejoin="round"/>
<path d="M427.62,381.76 C427.62,381.95 431.01,383.49 447.65,391.55 C456.61,395.52 458.95,397.09 468.35,404.01 C474.98,408.77 478.62,410.77 479.11,411.09 C479.30,411.21 479.52,411.40 479.80,411.68" fill="none" stroke="rgb(19, 26, 118)" stroke-width="3.16" stroke-opacity="1.00" stroke-linejoin="round"/>
</g>
</svg>
