<?xml version="1.0" encoding="UTF-8" standalone="no"?>
<!DOCTYPE svg PUBLIC "-//W3C//DTD SVG 1.1//EN" "http://www.w3.org/Graphics/SVG/1.1/DTD/svg11.dtd">
<svg width="128.40" height="181.68" viewBox="0.00 0.00 535.00 757.00" xmlns="http://www.w3.org/2000/svg" xmlns:xlink="http://www.w3.org/1999/xlink">
<g stroke-linecap="round" transform="translate(44.00, 155.00)" id="113-물웅덩이-1">
<path d="M128.15,417.82 C128.15,417.82 126.45,416.98 126.45,416.98 C115.24,416.99 106.32,416.11 103.73,416.28 C100.49,416.52 93.53,420.40 81.92,427.27 C77.16,430.06 72.29,432.79 70.55,433.50 C65.75,435.39 54.81,436.07 46.02,436.14 C42.62,436.10 35.63,436.04 33.72,436.20 C31.99,436.37 26.82,437.81 24.43,438.99 C19.69,441.37 8.87,450.06 6.80,453.34 C4.80,456.60 3.88,465.59 3.71,475.38 C3.61,481.62 5.09,491.32 7.23,495.81 C8.35,498.13 11.22,502.34 12.97,504.32 C14.90,506.44 19.16,510.08 21.81,511.77 C25.01,513.75 29.28,514.59 33.85,514.76 C36.43,514.84 42.52,515.15 44.87,516.16 C55.98,520.98 69.58,528.57 73.26,529.51 C77.52,530.56 91.72,529.62 99.09,528.35 C105.45,527.23 116.04,524.66 122.00,522.20 C125.26,520.83 152.79,505.12 159.41,498.85 C161.57,496.78 164.24,493.08 165.27,490.85 C166.08,489.03 168.91,475.11 170.26,469.05 C171.15,464.40 171.00,457.99 170.15,453.76 C169.37,450.11 164.98,442.65 162.16,440.36 C160.58,439.10 157.31,437.22 155.62,436.57 C154.90,436.31 143.15,432.93 142.05,432.51 C138.47,431.14 134.38,428.00 133.18,425.73 C131.73,422.95 127.84,419.15 126.91,418.95 C125.93,418.76 124.65,418.58 123.06,418.43 C122.43,418.38 121.34,418.31 119.80,418.24" fill="none" stroke="rgb(0, 153, 67)" stroke-width="2.80" stroke-opacity="1.00" stroke-linejoin="round"/>
</g>
</svg>
