<?xml version="1.0" encoding="UTF-8" standalone="no"?>
<!DOCTYPE svg PUBLIC "-//W3C//DTD SVG 1.1//EN" "http://www.w3.org/Graphics/SVG/1.1/DTD/svg11.dtd">
<svg width="128.40" height="181.68" viewBox="0.00 0.00 535.00 757.00" xmlns="http://www.w3.org/2000/svg" xmlns:xlink="http://www.w3.org/1999/xlink">
<g stroke-linecap="round" transform="translate(44.00, 155.00)" id="113-구름-2">
<path d="M389.17,-53.18 C388.63,-53.25 387.73,-53.80 387.30,-54.45 C386.94,-55.00 387.49,-61.50 387.26,-63.42 C387.05,-65.10 385.86,-67.61 384.76,-68.77 C383.36,-70.18 377.96,-73.14 376.30,-73.77 C374.16,-74.56 368.60,-75.65 365.50,-75.75 C362.31,-75.84 356.34,-75.30 353.40,-74.46 C347.81,-72.81 337.51,-66.59 333.76,-63.34 C329.27,-59.43 321.83,-50.33 319.62,-45.03 C318.47,-42.22 317.26,-36.53 317.17,-33.78 C317.12,-31.63 317.79,-26.13 318.89,-23.24 C319.51,-21.68 321.59,-18.53 322.74,-17.49 C325.28,-15.28 330.62,-13.45 333.05,-13.16 C337.90,-12.63 351.83,-14.85 356.55,-16.85 C359.00,-17.89 360.77,-18.77 362.17,-19.61 C360.63,-15.82 358.98,-9.58 358.48,-7.03 C357.96,-4.26 357.43,3.62 358.08,6.31 C358.72,8.81 361.90,11.77 364.54,13.33 C367.95,15.33 371.10,16.95 374.31,17.93 C377.46,18.86 383.21,19.20 387.20,18.56 C392.14,17.73 405.68,12.97 412.73,9.58 C419.71,6.19 429.67,-0.38 435.87,-5.33 C439.16,-2.34 450.37,4.13 456.28,6.08 C459.59,7.14 465.44,7.51 468.87,6.78 C470.07,6.51 473.26,5.46 474.11,5.03 C475.00,4.57 476.51,3.40 477.40,2.61" fill="none" stroke="rgb(255, 0, 0)" stroke-width="2.80" stroke-opacity="1.00" stroke-linejoin="round"/>
<path d="M470.05,-59.24 C470.05,-59.24 470.05,-59.67 470.05,-59.67 C469.65,-60.38 469.58,-61.08 470.07,-61.70 C471.50,-63.42 475.85,-65.13 479.08,-65.22 C480.23,-65.24 482.83,-65.26 483.59,-65.06 C484.03,-64.94 485.00,-64.58 486.49,-64.00" fill="none" stroke="rgb(255, 0, 0)" stroke-width="2.80" stroke-opacity="1.00" stroke-linejoin="round"/>
<path d="M470.05,-58.81 C470.18,-59.37 470.48,-60.23 470.48,-60.46 C470.45,-62.35 466.99,-66.42 464.88,-68.25 C463.97,-69.03 455.43,-75.95 454.38,-76.72 C452.90,-77.77 448.09,-79.65 444.83,-80.02 C440.26,-80.50 422.68,-79.56 417.32,-78.83 C412.78,-78.18 403.63,-74.93 399.44,-72.54 C397.78,-71.57 393.62,-68.52 392.01,-66.42 C391.00,-65.08 389.26,-61.72 388.53,-59.81 C388.24,-59.05 387.01,-55.37 386.57,-54.05" fill="none" stroke="rgb(255, 0, 0)" stroke-width="2.80" stroke-opacity="1.00" stroke-linejoin="round"/>
</g>
</svg>
