<?xml version="1.0" encoding="UTF-8" standalone="no"?>
<!DOCTYPE svg PUBLIC "-//W3C//DTD SVG 1.1//EN" "http://www.w3.org/Graphics/SVG/1.1/DTD/svg11.dtd">
<svg width="128.40" height="181.68" viewBox="0.00 0.00 535.00 757.00" xmlns="http://www.w3.org/2000/svg" xmlns:xlink="http://www.w3.org/1999/xlink">
<g stroke-linecap="round" transform="translate(44.00, 155.00)" id="113-번개-2">
<path d="M434.15,12.99 C433.93,12.93 433.00,13.30 432.64,13.42 C432.52,13.47 432.45,13.47 432.42,13.42 C431.06,12.69 424.23,11.47 423.77,11.51 C423.05,11.62 418.66,16.63 416.84,17.91 C414.54,19.50 397.73,29.27 394.63,31.55 C392.17,33.34 387.14,36.97 386.20,37.95 C386.54,38.63 392.37,39.18 396.53,39.70 C403.84,40.64 415.18,43.29 416.42,43.92 C415.69,47.87 415.20,50.78 414.23,52.99 C412.60,56.67 409.22,62.48 407.54,65.32 C405.64,68.47 402.40,73.51 401.34,76.92 C400.95,78.20 400.89,78.73 401.02,78.91 C401.02,78.91 416.60,88.19 416.60,88.19 C416.64,88.15 413.96,90.70 412.22,93.96 C402.77,111.86 397.12,128.93 397.20,130.74 C397.89,129.89 408.81,113.96 413.39,107.40 C419.60,98.55 427.20,89.68 428.82,87.52 C430.10,85.80 430.28,83.06 430.12,82.75 C430.12,82.75 411.98,75.46 411.98,75.46 C411.92,75.48 424.02,63.34 429.39,56.94 C432.53,53.11 438.44,45.79 439.83,43.90 C438.98,43.56 433.74,42.04 431.31,40.92 C423.00,37.00 414.45,35.31 414.58,35.18 C414.58,35.18 432.14,14.13 432.14,14.13 C431.25,14.04 429.91,14.62 425.47,17.75 C418.03,23.19 407.24,31.74 405.57,33.50 C409.31,31.83 428.78,14.58 429.30,13.68 C423.13,16.31 416.11,21.02 406.36,28.51 C403.13,31.02 400.36,33.58 399.68,34.32 C403.85,32.55 407.13,30.10 410.47,27.41 C416.21,22.71 426.55,14.21 428.86,12.12 C428.86,12.12 394.49,37.35 394.49,37.35 C403.42,34.04 414.03,26.17 414.83,25.56 C398.84,32.97 393.17,38.50 393.00,38.92 C393.00,38.92 402.98,36.72 402.98,36.72 C402.98,36.72 392.65,37.86 392.65,37.86 C392.65,37.86 414.45,45.59 414.45,45.59 C403.70,39.70 393.70,39.06 393.06,39.19 C394.93,42.70 415.83,47.32 417.42,47.63 C417.42,47.63 416.42,47.59 416.42,47.59" fill="none" stroke="rgb(0, 255, 0)" stroke-width="2.80" stroke-opacity="1.00" stroke-linejoin="round"/>
<path d="M401.71,37.65 C401.71,37.65 398.03,37.65 398.03,37.65 C398.01,37.64 398.08,37.64 398.11,37.65 C401.69,38.40 411.46,41.69 413.99,42.30 C413.99,42.30 408.03,33.65 408.03,33.65 C408.03,33.65 413.91,40.26 413.91,40.26 C413.53,38.41 411.42,35.65 409.99,35.04 C409.23,34.73 408.30,34.75 407.45,34.97 C408.88,35.90 410.15,35.79 411.82,34.30 C414.37,32.01 417.55,28.25 419.21,25.68 C419.21,25.68 410.32,37.11 410.32,37.11 C410.32,37.11 422.17,24.24 422.17,24.24 C422.17,24.24 407.31,39.58 407.31,39.58 C407.39,39.45 410.81,34.42 412.25,31.14 C413.01,29.37 413.76,26.86 413.82,25.81 C413.83,25.48 413.77,24.99 413.62,24.36 C412.58,24.01 408.84,26.80 403.54,31.02 C400.72,33.31 397.20,36.20 396.49,36.79 C396.49,36.79 415.95,20.03 415.95,20.03 C415.95,20.03 393.78,34.56 393.78,34.56 C393.78,34.56 395.22,34.62 395.22,34.62" fill="none" stroke="rgb(0, 255, 0)" stroke-width="2.80" stroke-opacity="1.00" stroke-linejoin="round"/>
<path d="M411.66,37.65 C411.66,37.65 404.20,37.65 404.20,37.65 C404.26,37.70 410.28,38.74 413.31,39.54 C415.63,40.16 421.06,42.50 423.05,43.79 C425.93,45.66 430.02,49.11 429.80,49.11 C429.80,49.11 409.20,33.31 409.20,33.31 C409.20,33.31 431.47,44.86 431.47,44.86 C431.47,44.86 413.28,36.14 413.28,36.14 C413.28,36.14 433.49,44.34 433.49,44.34 C433.49,44.34 419.18,41.53 419.18,41.53 C419.36,42.87 420.02,43.83 421.85,45.13 C423.67,46.43 424.86,47.21 426.42,48.19 C426.42,48.19 419.84,45.56 419.84,45.56 C418.03,46.84 416.46,51.25 415.35,56.07 C414.31,60.73 414.35,62.60 414.68,63.03 C417.21,60.30 421.38,50.56 421.46,49.45 C421.46,49.45 409.13,71.42 409.13,71.42 C409.13,71.42 422.98,49.79 422.98,49.79 C422.98,49.79 407.42,73.59 407.42,73.59 C412.58,69.56 431.30,46.60 431.89,45.67 C431.89,45.67 405.49,77.60 405.49,77.60 C407.67,77.09 417.16,67.80 422.21,61.87 C427.69,55.29 432.27,48.08 432.85,45.69 C430.60,44.74 412.49,69.10 410.86,72.36 C412.27,72.08 422.18,60.40 425.41,55.49 C428.18,51.24 429.30,48.64 430.19,46.13 C427.60,47.33 426.24,48.22 424.78,49.88 C413.57,62.49 405.82,73.30 404.00,75.90 C406.38,74.13 409.80,70.95 412.14,67.95 C417.56,60.88 420.90,53.48 421.89,50.26 C419.82,52.35 407.90,70.81 406.51,73.78 C406.36,74.11 406.32,74.35 406.39,74.51 C409.56,71.65 412.14,64.19 412.54,62.85 C411.81,63.01 410.27,65.70 407.92,70.22 C405.32,75.30 404.71,76.01 404.36,76.34 C404.40,77.35 407.21,79.34 411.67,82.11 C416.53,85.14 416.72,85.33 416.68,85.32 C416.68,85.32 405.87,79.07 405.87,79.07 C405.87,79.07 419.92,85.52 419.92,85.52 C419.92,85.52 410.74,79.84 410.74,79.84 C410.74,79.84 423.85,84.97 423.85,84.97 C421.62,84.90 414.73,80.07 413.35,78.73 C414.66,78.26 419.04,80.28 423.07,81.99 C424.09,82.42 425.10,82.85 426.12,83.28 C426.12,83.28 413.35,77.33 413.35,77.33 C413.22,78.07 414.07,79.45 415.79,80.96 C416.41,81.51 419.28,83.61 420.31,84.36" fill="none" stroke="rgb(0, 255, 0)" stroke-width="2.80" stroke-opacity="1.00" stroke-linejoin="round"/>
<path d="M421.17,90.41 C421.16,89.54 421.12,88.97 421.07,88.68 C421.01,88.40 420.87,88.02 420.63,87.53 C417.35,87.35 410.15,104.76 408.79,108.25 C408.79,108.25 421.19,85.41 421.19,85.41 C421.19,85.41 404.18,116.95 404.18,116.95 C404.18,116.95 417.20,87.40 417.20,87.40 C417.20,87.40 401.97,121.49 401.97,121.49 C405.47,114.25 411.44,104.49 416.11,98.67 C423.41,89.35 425.21,87.13 426.32,85.90 C426.32,85.90 414.59,101.32 414.59,101.32 C414.59,101.32 423.80,85.61 423.80,85.61 C423.80,85.61 404.02,119.65 404.02,119.65 C403.76,119.20 402.21,124.24 402.05,124.43 C401.94,124.57 401.39,125.20 400.41,126.31" fill="none" stroke="rgb(0, 255, 0)" stroke-width="2.80" stroke-opacity="1.00" stroke-linejoin="round"/>
<path d="M435.45,44.13 C435.45,44.13 436.31,44.13 436.31,44.13 C434.71,45.33 433.57,46.52 432.04,48.72 C431.02,50.19 430.35,51.21 430.04,51.78 C429.74,52.32 429.24,53.38 428.53,54.95" fill="none" stroke="rgb(0, 255, 0)" stroke-width="2.80" stroke-opacity="1.00" stroke-linejoin="round"/>
</g>
</svg>
