<?xml version="1.0" encoding="UTF-8" standalone="no"?>
<!DOCTYPE svg PUBLIC "-//W3C//DTD SVG 1.1//EN" "http://www.w3.org/Graphics/SVG/1.1/DTD/svg11.dtd">
<svg width="128.40" height="181.68" viewBox="0.00 0.00 535.00 757.00" xmlns="http://www.w3.org/2000/svg" xmlns:xlink="http://www.w3.org/1999/xlink">
<g stroke-linecap="round" transform="translate(44.00, 155.00)" id="113-사람">
<path d="M230.24,96.18 C230.24,96.18 228.73,96.45 228.73,96.45 C226.84,98.99 225.48,102.42 223.80,106.06 C223.07,107.64 221.83,110.35 221.32,111.49 C221.32,111.49 222.50,111.20 222.50,111.20" fill="none" stroke="rgb(0, 255, 255)" stroke-width="2.80" stroke-opacity="1.00" stroke-linejoin="round"/>
<path d="M233.05,94.21 C231.97,94.99 231.29,95.73 230.85,96.86 C228.96,101.73 226.52,112.34 226.51,113.76 C226.51,113.76 228.21,111.67 228.21,111.67" fill="none" stroke="rgb(0, 255, 255)" stroke-width="2.80" stroke-opacity="1.00" stroke-linejoin="round"/>
<path d="M236.43,93.36 C236.43,93.36 236.43,92.85 236.43,92.85 C236.43,92.85 231.54,114.16 231.54,114.16 C231.54,114.16 233.01,111.61 233.01,111.61" fill="none" stroke="rgb(0, 255, 255)" stroke-width="2.80" stroke-opacity="1.00" stroke-linejoin="round"/>
<path d="M242.07,88.29 C241.46,88.32 240.97,88.62 240.80,88.71 C240.74,88.76 238.17,113.31 238.21,114.18 C238.21,114.18 239.34,110.66 239.34,110.66" fill="none" stroke="rgb(0, 255, 255)" stroke-width="2.80" stroke-opacity="1.00" stroke-linejoin="round"/>
<path d="M246.02,86.60 C246.02,86.60 244.75,87.61 244.75,87.61 C244.62,88.92 244.36,95.61 244.01,100.03 C243.67,104.24 243.09,111.43 243.08,113.54 C243.08,113.54 243.76,113.37 243.76,113.37" fill="none" stroke="rgb(0, 255, 255)" stroke-width="2.80" stroke-opacity="1.00" stroke-linejoin="round"/>
<path d="M252.22,91.67 C252.22,91.67 251.93,90.26 251.93,90.26 C251.93,90.26 250.62,111.03 250.62,111.03 C250.62,111.03 251.09,109.71 251.09,109.71" fill="none" stroke="rgb(0, 255, 255)" stroke-width="2.80" stroke-opacity="1.00" stroke-linejoin="round"/>
<path d="M256.44,91.39 C256.04,91.86 255.49,93.20 255.31,94.42 C255.31,94.45 255.32,108.25 255.31,109.49 C255.31,109.49 255.59,106.64 255.59,106.64" fill="none" stroke="rgb(0, 255, 255)" stroke-width="2.80" stroke-opacity="1.00" stroke-linejoin="round"/>
<path d="M260.67,91.11 C260.51,91.54 260.42,91.89 260.39,92.15 C260.29,93.06 260.65,103.97 260.67,109.57 C260.67,109.57 260.67,109.43 260.67,109.43" fill="none" stroke="rgb(0, 255, 255)" stroke-width="2.80" stroke-opacity="1.00" stroke-linejoin="round"/>
<path d="M260.67,90.55 C260.67,90.55 259.61,91.60 259.61,91.60 C260.21,92.22 264.91,94.46 265.64,94.76 C269.24,96.20 271.73,97.75 272.24,98.48 C273.09,99.78 273.74,102.17 273.76,104.30 C273.77,105.03 273.39,113.19 273.07,114.45 C273.02,114.65 272.92,114.95 272.79,115.34" fill="none" stroke="rgb(0, 255, 255)" stroke-width="2.80" stroke-opacity="1.00" stroke-linejoin="round"/>
<path d="M265.74,80.12 C265.74,80.35 265.74,80.57 265.74,80.80 C265.74,82.66 265.74,86.09 265.74,87.66 C265.52,101.00 265.89,121.48 266.28,124.27 C266.28,124.27 267.15,124.92 267.15,124.92" fill="none" stroke="rgb(0, 255, 255)" stroke-width="2.80" stroke-opacity="1.00" stroke-linejoin="round"/>
<path d="M271.09,91.11 C271.09,91.11 269.83,92.03 269.83,92.03 C269.69,95.12 269.71,113.47 268.54,120.89 C268.30,122.34 267.90,124.88 267.74,125.96 C267.74,125.96 267.71,125.49 267.71,125.49" fill="none" stroke="rgb(0, 255, 255)" stroke-width="2.80" stroke-opacity="1.00" stroke-linejoin="round"/>
<path d="M271.94,100.69 C271.36,101.19 271.04,101.72 271.09,102.12 C271.10,102.27 271.10,102.35 271.09,102.38 C270.92,102.95 270.75,103.52 270.57,104.09 C267.84,113.87 264.48,146.48 264.20,152.01 C264.14,153.12 263.82,164.79 263.78,165.81 C263.78,165.81 263.77,165.50 263.77,165.50" fill="none" stroke="rgb(0, 255, 255)" stroke-width="2.80" stroke-opacity="1.00" stroke-linejoin="round"/>
<path d="M267.15,121.26 C266.19,124.84 265.65,130.39 264.05,144.05 C263.22,151.49 262.85,164.44 263.04,171.10 C263.52,186.36 265.94,195.72 266.84,197.30 C266.84,197.30 266.87,189.45 266.87,189.45" fill="none" stroke="rgb(0, 255, 255)" stroke-width="2.80" stroke-opacity="1.00" stroke-linejoin="round"/>
<path d="M265.46,186.64 C265.46,186.64 264.17,185.79 264.17,185.79 C264.21,185.69 268.60,192.69 269.01,193.24 C271.91,197.08 275.56,196.90 275.65,196.79 C273.96,196.37 268.72,187.49 266.85,182.93 C266.85,182.93 272.71,192.94 272.71,192.94 C272.79,192.92 271.61,186.12 271.43,183.13 C271.17,177.99 273.22,163.03 273.18,159.32 C273.09,154.45 271.26,143.74 270.75,138.27 C270.47,135.25 269.88,123.08 269.78,122.44 C269.68,125.25 269.51,141.25 269.17,150.53 C268.48,164.53 267.73,180.20 267.74,181.40 C267.74,181.40 268.07,111.12 268.07,111.12 C268.19,113.30 267.10,159.44 267.29,168.70 C267.47,173.47 267.59,174.49 267.85,175.98 C268.95,175.10 269.46,173.96 269.69,171.54 C270.89,159.85 271.64,130.88 271.91,115.57 C272.03,112.35 272.21,111.32 272.50,109.97 C273.62,114.48 275.98,127.65 276.58,133.49 C277.25,140.12 277.34,152.36 276.81,158.38 C276.04,166.81 274.72,170.13 273.87,171.47 C272.89,170.03 272.57,132.10 272.39,116.98 C272.51,107.87 273.25,104.25 273.58,103.13 C273.58,103.13 274.55,103.53 274.55,103.53 C275.60,106.29 277.47,117.18 278.26,127.03 C279.42,142.60 277.57,162.01 276.78,165.62 C276.78,165.62 276.96,153.97 276.96,153.97" fill="none" stroke="rgb(0, 255, 255)" stroke-width="2.80" stroke-opacity="1.00" stroke-linejoin="round"/>
<path d="M275.32,120.98 C275.32,120.98 274.76,106.58 274.76,106.58 C275.19,110.08 277.35,119.36 280.02,128.31 C281.66,133.82 282.99,141.69 282.95,146.45 C282.89,151.41 281.15,160.47 280.07,163.60 C279.71,164.62 279.04,165.26 278.09,165.88" fill="none" stroke="rgb(0, 255, 255)" stroke-width="2.80" stroke-opacity="1.00" stroke-linejoin="round"/>
<path d="M281.80,137.32 C281.51,140.57 280.81,148.42 280.26,151.75 C277.92,165.48 271.40,180.30 269.99,182.13 C269.99,182.13 272.10,175.60 272.10,175.60" fill="none" stroke="rgb(0, 255, 255)" stroke-width="2.80" stroke-opacity="1.00" stroke-linejoin="round"/>
<path d="M276.17,164.09 C276.17,164.09 276.45,163.67 276.45,163.67 C276.45,163.67 276.73,163.88 276.73,163.88 C276.35,165.84 276.07,167.04 275.68,168.33 C275.37,169.36 274.46,172.30 273.88,174.20 C273.70,174.78 273.53,175.35 273.35,175.93" fill="none" stroke="rgb(0, 255, 255)" stroke-width="2.80" stroke-opacity="1.00" stroke-linejoin="round"/>
<path d="M234.46,91.39 C234.46,91.39 234.18,89.77 234.18,89.77 C233.23,89.22 231.90,89.35 230.21,90.29 C227.64,91.75 219.27,99.70 216.52,104.06 C214.13,107.92 210.51,118.16 209.05,124.75 C207.70,130.90 206.60,140.13 206.82,140.89 C206.89,141.11 207.11,141.45 207.48,141.92" fill="none" stroke="rgb(0, 255, 255)" stroke-width="2.80" stroke-opacity="1.00" stroke-linejoin="round"/>
<path d="M217.56,109.14 C217.56,109.14 216.29,108.94 216.29,108.94 C215.13,109.75 213.50,113.55 211.62,118.87 C209.70,124.50 207.12,138.78 207.28,146.03 C207.45,152.13 209.86,164.65 211.87,170.54 C213.22,174.45 214.72,177.15 214.97,177.41 C214.94,177.10 214.91,176.85 214.88,176.68 C213.27,168.29 210.18,137.73 209.95,129.03 C210.03,138.03 210.31,144.01 211.19,154.26 C212.06,162.22 214.02,176.80 215.12,182.29 C216.12,187.15 216.65,188.28 217.44,189.20 C218.17,185.58 216.68,171.41 215.79,163.51 C214.08,150.19 211.03,129.64 210.28,124.74 C210.63,127.58 214.99,147.12 215.74,151.45 C217.79,164.99 220.95,185.69 221.64,188.59 C222.64,188.15 214.75,154.17 214.31,148.57 C217.11,153.36 219.54,163.06 221.42,172.55 C222.52,178.55 223.94,190.73 224.58,196.59 C224.09,193.54 222.72,184.67 222.55,183.37 C221.96,178.72 221.99,176.96 222.06,176.17 C222.06,176.17 224.17,183.68 224.17,183.68 C224.02,182.10 220.32,164.73 219.05,157.81 C217.70,149.96 214.82,123.71 214.65,121.96 C214.47,119.86 214.55,115.53 215.26,114.52 C215.74,113.87 216.38,113.35 216.77,112.65 C216.94,112.37 217.03,111.94 217.05,111.37" fill="none" stroke="rgb(0, 255, 255)" stroke-width="2.80" stroke-opacity="1.00" stroke-linejoin="round"/>
<path d="M218.12,105.76 C217.11,106.92 216.35,109.69 216.22,113.84 C216.07,121.39 215.95,135.77 216.12,141.96 C217.14,160.37 219.40,171.43 220.16,172.97 C221.49,172.44 221.91,171.10 221.66,167.90 C221.46,164.82 218.39,144.57 217.98,140.83 C217.11,132.57 217.17,128.29 217.30,125.46 C218.17,128.10 221.79,146.35 222.75,152.12 C223.61,158.20 225.15,172.74 225.16,172.76 C224.94,169.27 224.61,165.32 223.82,160.46 C222.68,153.78 219.95,137.63 219.67,135.49 C219.38,133.28 219.19,131.37 219.15,130.33 C221.36,131.49 225.56,159.54 226.04,167.67 C226.37,173.12 226.89,174.87 227.42,175.36" fill="none" stroke="rgb(0, 255, 255)" stroke-width="2.80" stroke-opacity="1.00" stroke-linejoin="round"/>
<path d="M225.73,116.19 C225.73,116.19 224.04,116.75 224.04,116.75 C224.92,116.74 228.60,116.53 229.08,116.55 C229.87,116.59 234.24,117.58 234.70,117.58 C234.70,117.58 234.18,117.88 234.18,117.88" fill="none" stroke="rgb(0, 255, 255)" stroke-width="2.80" stroke-opacity="1.00" stroke-linejoin="round"/>
<path d="M231.36,117.88 C231.26,117.90 231.16,117.95 231.08,118.02 C231.00,118.09 230.81,118.30 230.52,118.64 C230.52,118.64 231.23,123.61 231.23,123.61 C231.23,123.61 232.77,117.52 232.77,117.52 C232.78,117.93 232.87,119.45 233.10,119.94 C233.23,120.23 233.59,120.67 234.18,121.26" fill="none" stroke="rgb(0, 255, 255)" stroke-width="2.80" stroke-opacity="1.00" stroke-linejoin="round"/>
<path d="M251.65,116.47 C251.65,116.47 250.27,116.42 250.27,116.42 C250.27,116.42 257.65,115.34 257.65,115.34" fill="none" stroke="rgb(0, 255, 255)" stroke-width="2.80" stroke-opacity="1.00" stroke-linejoin="round"/>
<path d="M255.88,115.63 C255.69,115.61 255.39,115.66 255.17,115.77 C255.07,115.84 254.76,116.10 254.75,116.50 C254.68,120.03 255.06,121.82 255.31,122.58 C255.80,122.60 256.20,121.72 256.33,119.80 C256.39,119.01 256.44,116.57 256.44,116.58 C256.41,117.14 256.42,117.65 256.47,118.11 C256.53,118.57 256.71,119.62 257.01,121.26" fill="none" stroke="rgb(0, 255, 255)" stroke-width="2.80" stroke-opacity="1.00" stroke-linejoin="round"/>
<path d="M245.17,118.16 C245.17,118.16 244.18,118.72 244.18,118.72 C243.95,119.61 243.81,120.32 243.76,120.87 C243.66,122.11 243.66,123.34 243.76,124.57 C243.80,124.98 243.89,125.29 244.04,125.49" fill="none" stroke="rgb(0, 255, 255)" stroke-width="2.80" stroke-opacity="1.00" stroke-linejoin="round"/>
<path d="M247.14,131.41 C247.14,131.41 246.72,131.55 246.72,131.55 C246.72,131.55 246.58,131.95 246.58,131.95 C246.57,132.04 242.73,131.19 239.41,131.49 C237.34,131.70 235.10,132.21 234.90,132.29 C235.15,132.49 238.24,135.54 239.61,135.97 C240.64,136.26 242.97,135.84 244.08,135.16 C244.97,134.59 246.42,133.01 247.71,131.41" fill="none" stroke="rgb(0, 255, 255)" stroke-width="2.80" stroke-opacity="1.00" stroke-linejoin="round"/>
<path d="M228.83,123.52 C228.83,123.52 228.40,122.95 228.40,122.95 C230.14,122.97 231.29,122.94 231.86,122.89 C232.43,122.83 233.20,122.67 234.18,122.39" fill="none" stroke="rgb(0, 255, 255)" stroke-width="2.80" stroke-opacity="1.00" stroke-linejoin="round"/>
<path d="M255.60,122.39 C255.60,122.39 254.89,122.11 254.89,122.11 C255.75,121.76 257.23,121.59 257.77,121.53 C258.02,121.50 258.37,121.42 258.82,121.31" fill="none" stroke="rgb(0, 255, 255)" stroke-width="2.80" stroke-opacity="1.00" stroke-linejoin="round"/>
<path d="M258.70,115.06 C258.70,115.06 257.99,115.20 257.99,115.20 C257.84,115.73 257.86,116.52 258.13,118.31 C258.25,119.08 258.36,119.84 258.48,120.61 C258.55,121.11 258.62,121.61 258.70,122.11" fill="none" stroke="rgb(0, 255, 255)" stroke-width="2.80" stroke-opacity="1.00" stroke-linejoin="round"/>
<path d="M267.15,125.77 C266.96,125.77 266.77,125.77 266.59,125.77 C266.33,125.77 266.08,125.77 265.83,125.77 C265.19,126.22 260.24,132.23 258.07,134.18 C256.74,135.37 249.70,140.85 246.65,142.07 C245.43,142.54 240.87,142.16 238.64,141.55 C235.87,140.75 230.91,138.39 228.91,136.36 C227.17,134.56 222.56,127.83 221.06,124.97 C220.33,123.54 218.01,117.27 217.41,115.71 C217.17,115.12 216.94,114.53 216.71,113.93" fill="none" stroke="rgb(0, 255, 255)" stroke-width="2.80" stroke-opacity="1.00" stroke-linejoin="round"/>
<path d="M238.69,140.99 C238.34,141.34 237.85,141.83 237.84,142.12 C237.81,143.19 237.87,144.34 238.01,145.76 C240.08,146.93 241.54,147.25 243.46,146.74 C245.49,146.21 246.58,145.80 247.63,145.23 C247.63,145.23 248.02,139.56 248.02,139.56" fill="none" stroke="rgb(0, 255, 255)" stroke-width="2.80" stroke-opacity="1.00" stroke-linejoin="round"/>
<path d="M256.72,136.76 C256.72,136.76 254.86,137.64 254.86,137.64 C258.44,138.97 262.30,141.83 263.43,142.91 C263.53,143.02 263.65,143.13 263.77,143.24" fill="none" stroke="rgb(0, 255, 255)" stroke-width="2.80" stroke-opacity="1.00" stroke-linejoin="round"/>
<path d="M229.95,138.73 C229.07,138.96 226.53,139.82 224.37,141.91 C223.42,142.84 221.97,144.12 221.56,144.54 C221.45,144.65 221.41,144.75 221.42,144.82 C221.42,144.82 221.78,144.65 221.78,144.65" fill="none" stroke="rgb(0, 255, 255)" stroke-width="2.80" stroke-opacity="1.00" stroke-linejoin="round"/>
<path d="M224.04,132.53 C224.04,132.53 223.00,132.04 223.00,132.04 C222.92,132.63 222.88,134.31 223.03,135.61 C223.18,136.98 223.71,139.87 223.95,140.89" fill="none" stroke="rgb(0, 255, 255)" stroke-width="2.80" stroke-opacity="1.00" stroke-linejoin="round"/>
<path d="M209.66,147.75 C209.81,147.89 209.95,148.03 210.09,148.17 C210.13,148.22 210.18,148.27 210.23,148.31 C209.26,147.82 206.63,149.09 203.82,151.22 C201.78,152.80 198.34,156.10 196.99,157.88 C195.70,159.61 193.92,163.22 193.22,165.33 C191.93,169.39 191.27,180.76 191.12,188.69 C191.04,197.84 192.22,207.51 193.59,212.62 C194.04,214.27 195.93,220.04 196.69,221.14 C197.36,222.02 201.61,223.17 204.82,223.00 C208.21,222.79 212.08,221.86 211.96,221.78 C211.96,221.78 211.33,191.41 211.33,191.41 C211.33,191.41 211.19,191.36 211.19,191.36 C211.19,191.36 211.07,192.27 211.07,192.27" fill="none" stroke="rgb(0, 255, 255)" stroke-width="2.80" stroke-opacity="1.00" stroke-linejoin="round"/>
<path d="M201.49,222.42 C199.25,223.47 197.77,224.91 197.47,225.88 C196.36,229.88 198.71,232.81 199.83,233.57 C201.15,233.66 202.43,233.29 203.36,232.32 C204.06,231.57 205.38,229.24 205.68,228.31 C205.86,227.71 205.71,226.64 205.35,224.87" fill="none" stroke="rgb(0, 255, 255)" stroke-width="2.80" stroke-opacity="1.00" stroke-linejoin="round"/>
<path d="M195.86,165.50 C195.86,165.50 194.76,165.82 194.76,165.82 C194.34,167.07 195.25,183.29 196.03,191.88 C198.81,216.83 199.23,218.68 199.50,219.44 C199.50,219.44 200.53,218.83 200.53,218.83" fill="none" stroke="rgb(0, 255, 255)" stroke-width="2.80" stroke-opacity="1.00" stroke-linejoin="round"/>
<path d="M201.49,154.51 C199.81,158.43 199.57,164.34 199.61,168.00 C199.76,176.20 200.76,187.26 201.43,194.16 C202.33,201.23 204.72,218.68 205.04,219.89 C205.04,219.89 205.42,219.43 205.42,219.43" fill="none" stroke="rgb(0, 255, 255)" stroke-width="2.80" stroke-opacity="1.00" stroke-linejoin="round"/>
<path d="M207.41,148.03 C206.84,151.81 206.31,167.52 206.15,174.94 C206.19,186.85 208.12,219.42 208.75,220.71 C208.84,220.89 209.09,221.20 209.48,221.62" fill="none" stroke="rgb(0, 255, 255)" stroke-width="2.80" stroke-opacity="1.00" stroke-linejoin="round"/>
<path d="M212.20,173.39 C211.36,175.18 211.05,178.01 211.08,181.52 C211.13,184.55 211.29,191.42 211.41,195.27 C211.59,199.45 212.39,207.78 212.77,211.48" fill="none" stroke="rgb(0, 255, 255)" stroke-width="2.80" stroke-opacity="1.00" stroke-linejoin="round"/>
<path d="M217.56,187.20 C217.56,187.20 216.85,185.65 216.85,185.65 C216.48,185.80 216.42,188.52 216.42,196.01 C216.42,197.05 216.43,198.08 216.43,199.12 C216.43,199.12 217.66,193.17 217.66,193.17 C217.66,193.17 218.10,201.57 218.10,201.57 C218.10,201.57 223.05,191.01 223.05,191.01 C223.05,191.01 218.43,200.78 218.43,200.78 C218.43,200.78 224.42,194.50 224.42,194.50 C223.57,195.72 222.94,196.58 222.55,197.10 C221.95,197.88 218.79,201.75 217.64,203.15" fill="none" stroke="rgb(0, 255, 255)" stroke-width="2.80" stroke-opacity="1.00" stroke-linejoin="round"/>
<path d="M227.42,196.22 C227.42,196.22 226.47,197.18 226.47,197.18 C226.46,197.40 227.69,224.13 227.70,226.09 C227.70,226.39 227.70,226.69 227.70,226.99" fill="none" stroke="rgb(0, 255, 255)" stroke-width="2.80" stroke-opacity="1.00" stroke-linejoin="round"/>
<path d="M232.21,145.21 C232.14,144.84 231.87,144.09 231.64,143.80 C231.57,143.70 231.42,143.59 231.22,143.48 C230.87,145.03 230.55,150.31 230.46,153.13 C230.19,172.13 231.39,192.96 233.21,208.94 C233.65,212.58 234.65,220.89 234.67,220.94 C234.77,221.22 235.02,221.56 235.43,221.98" fill="none" stroke="rgb(0, 255, 255)" stroke-width="2.80" stroke-opacity="1.00" stroke-linejoin="round"/>
<path d="M235.59,147.19 C235.59,147.19 235.45,147.19 235.45,147.19 C235.45,147.19 235.03,146.47 235.03,146.47 C235.28,173.59 238.55,217.64 238.60,217.96 C238.66,218.39 238.84,219.27 239.13,220.59" fill="none" stroke="rgb(0, 255, 255)" stroke-width="2.80" stroke-opacity="1.00" stroke-linejoin="round"/>
<path d="M241.79,146.90 C241.79,146.90 241.79,144.44 241.79,144.44 C241.72,151.40 241.46,165.50 241.38,173.14 C241.46,185.38 242.61,209.02 242.68,209.48 C242.74,209.83 242.88,210.45 243.12,211.35" fill="none" stroke="rgb(0, 255, 255)" stroke-width="2.80" stroke-opacity="1.00" stroke-linejoin="round"/>
<path d="M247.14,148.31 C247.14,148.31 246.79,147.47 246.79,147.47 C246.29,151.14 244.77,189.62 245.12,191.68 C245.20,192.11 245.43,193.17 245.81,194.86" fill="none" stroke="rgb(0, 255, 255)" stroke-width="2.80" stroke-opacity="1.00" stroke-linejoin="round"/>
<path d="M249.40,142.96 C248.46,143.29 248.06,145.25 248.32,149.23 C249.12,160.49 252.87,199.17 253.20,207.46 C253.69,217.77 253.91,219.63 254.14,221.04" fill="none" stroke="rgb(0, 255, 255)" stroke-width="2.80" stroke-opacity="1.00" stroke-linejoin="round"/>
<path d="M253.62,141.55 C253.55,142.41 253.50,143.09 253.48,143.60 C253.27,149.58 254.64,166.35 255.46,173.88 C256.34,180.51 258.07,193.64 258.39,199.77 C258.64,206.32 259.03,215.92 259.12,216.39 C259.19,216.76 259.40,217.42 259.73,218.38" fill="none" stroke="rgb(0, 255, 255)" stroke-width="2.80" stroke-opacity="1.00" stroke-linejoin="round"/>
<path d="M263.77,162.68 C263.17,170.61 263.39,180.46 263.72,187.25 C264.22,195.57 264.95,207.71 265.19,211.53 C265.43,215.40 265.96,217.76 266.59,219.89" fill="none" stroke="rgb(0, 255, 255)" stroke-width="2.80" stroke-opacity="1.00" stroke-linejoin="round"/>
<path d="M268.00,197.63 C268.00,197.63 268.00,197.06 268.00,197.06 C268.19,196.86 269.96,200.43 270.78,203.28 C272.26,208.52 274.96,225.97 275.06,226.25 C275.18,226.56 275.45,226.97 275.89,227.50" fill="none" stroke="rgb(0, 255, 255)" stroke-width="2.80" stroke-opacity="1.00" stroke-linejoin="round"/>
<path d="M275.89,198.47" fill="none" stroke="rgb(0, 255, 255)" stroke-width="2.80" stroke-opacity="1.00" stroke-linejoin="round"/>
<path d="M277.29,168.60 C276.41,169.99 276.64,172.92 277.19,177.90 C278.65,192.09 277.66,221.60 277.95,222.75 C277.95,222.75 278.91,222.52 278.91,222.52" fill="none" stroke="rgb(0, 255, 255)" stroke-width="2.80" stroke-opacity="1.00" stroke-linejoin="round"/>
<path d="M285.47,152.82 C285.47,152.82 284.41,152.96 284.41,152.96 C284.37,153.06 286.99,157.61 288.02,160.49 C289.53,164.87 291.39,178.85 291.62,187.36 C291.81,197.23 290.24,215.06 290.06,216.12 C289.61,218.75 289.11,220.62 288.65,221.48" fill="none" stroke="rgb(0, 255, 255)" stroke-width="2.80" stroke-opacity="1.00" stroke-linejoin="round"/>
<path d="M284.34,170.86 C284.34,170.86 283.92,170.65 283.92,170.65 C283.77,171.97 285.93,185.00 286.43,191.17 C286.58,192.98 286.69,217.29 286.73,219.21 C286.73,219.21 287.11,219.19 287.11,219.19" fill="none" stroke="rgb(0, 255, 255)" stroke-width="2.80" stroke-opacity="1.00" stroke-linejoin="round"/>
<path d="M290.26,223.27 C290.26,223.27 290.26,223.41 290.26,223.41 C290.26,223.41 290.12,223.55 290.12,223.55 C290.12,223.55 289.84,223.46 289.84,223.46 C289.57,222.61 288.76,221.86 287.46,221.68 C286.48,221.56 283.65,222.51 282.71,223.43 C281.93,224.21 280.61,226.02 280.49,226.77 C280.03,230.17 280.87,231.48 281.70,232.28 C283.54,232.78 287.01,231.19 288.47,229.75 C289.86,228.31 291.51,224.44 291.42,223.08 C291.37,222.52 290.47,221.31 288.85,219.32" fill="none" stroke="rgb(0, 255, 255)" stroke-width="2.80" stroke-opacity="1.00" stroke-linejoin="round"/>
<path d="M277.86,226.93 C277.86,226.93 278.14,226.04 278.14,226.04 C278.11,225.93 263.89,227.90 261.43,228.27 C258.42,228.71 241.45,228.68 237.54,229.07 C226.49,230.20 212.35,230.54 212.24,230.57 C212.04,229.75 211.64,223.01 211.78,221.12 C211.83,220.62 211.87,220.11 211.92,219.61" fill="none" stroke="rgb(0, 255, 255)" stroke-width="2.80" stroke-opacity="1.00" stroke-linejoin="round"/>
<path d="M213.33,228.62 C213.33,228.62 212.63,228.34 212.63,228.34 C211.52,230.49 215.50,259.70 217.00,265.38 C217.00,265.38 218.09,265.01 218.09,265.01" fill="none" stroke="rgb(0, 255, 255)" stroke-width="2.80" stroke-opacity="1.00" stroke-linejoin="round"/>
<path d="M216.99,233.13 C216.99,233.13 215.72,233.55 215.72,233.55 C215.60,234.45 215.56,235.31 215.60,236.63 C215.73,240.20 218.63,279.46 220.36,289.36 C223.02,304.17 227.16,315.24 227.51,315.30 C228.19,314.96 233.83,316.67 235.87,316.94 C238.75,317.32 240.58,316.97 240.74,315.90 C240.84,315.12 242.39,293.94 243.32,287.57 C245.09,276.08 245.65,270.85 245.53,261.61 C245.40,251.83 246.49,241.88 247.41,239.33 C249.71,239.56 256.27,266.25 259.72,283.85 C261.88,294.67 267.93,311.09 268.37,311.25 C270.57,311.96 281.81,312.12 283.73,312.10 C283.76,311.74 281.03,299.84 279.63,292.56 C278.82,288.08 276.78,272.39 276.01,265.93 C275.18,257.31 277.48,230.82 277.86,228.97 C277.91,228.72 278.01,228.32 278.14,227.78" fill="none" stroke="rgb(0, 255, 255)" stroke-width="2.80" stroke-opacity="1.00" stroke-linejoin="round"/>
<path d="M276.17,312.88 C275.60,313.09 274.57,313.48 274.34,313.44 C272.36,313.17 271.19,313.66 271.06,314.62 C271.03,314.87 270.98,315.56 270.90,316.69 C272.70,317.83 274.08,318.05 276.12,317.29 C281.11,315.43 282.38,314.89 283.75,314.21 C282.37,314.40 272.96,319.22 272.47,320.14 C271.94,321.24 273.06,325.46 273.89,326.51 C274.86,327.67 277.82,328.37 279.90,328.18 C282.07,327.94 286.12,326.47 287.65,325.30 C288.82,324.37 289.72,322.36 289.74,320.90 C289.74,319.63 288.76,315.22 287.44,313.78 C286.86,313.16 284.05,311.63 283.21,311.19" fill="none" stroke="rgb(0, 255, 255)" stroke-width="2.80" stroke-opacity="1.00" stroke-linejoin="round"/>
<path d="M231.08,315.98 C230.89,315.92 230.75,315.87 230.66,315.84 C230.51,315.77 229.96,315.48 229.83,315.41 C228.49,315.90 228.06,325.13 228.05,326.71 C228.68,327.54 234.73,330.56 236.97,331.35 C237.96,331.69 240.10,331.47 241.16,330.41 C242.12,329.41 242.81,326.01 242.66,323.19 C242.46,320.00 241.83,317.80 241.47,317.05 C241.22,318.21 241.45,323.83 241.08,325.23 C240.68,326.54 238.86,327.66 236.88,327.14 C235.35,326.71 230.44,324.10 227.35,323.28 C226.93,323.18 226.43,323.09 225.86,323.02 C225.93,324.44 228.22,331.75 229.50,333.98 C230.58,335.81 235.78,338.04 238.29,338.52 C239.42,338.71 241.53,338.02 242.30,337.09 C243.06,336.11 244.42,332.63 244.54,331.27 C244.87,327.03 242.08,319.04 241.81,318.20 C241.81,318.20 241.79,319.64 241.79,319.64" fill="none" stroke="rgb(0, 255, 255)" stroke-width="2.80" stroke-opacity="1.00" stroke-linejoin="round"/>
</g>
</svg>
