<?xml version="1.0" encoding="UTF-8" standalone="no"?>
<!DOCTYPE svg PUBLIC "-//W3C//DTD SVG 1.1//EN" "http://www.w3.org/Graphics/SVG/1.1/DTD/svg11.dtd">
<svg width="128.40" height="181.68" viewBox="0.00 0.00 535.00 757.00" xmlns="http://www.w3.org/2000/svg" xmlns:xlink="http://www.w3.org/1999/xlink">
<g stroke-linecap="round" transform="translate(44.00, 155.00)" id="114-물웅덩이">
<path d="M154.94,453.19 C154.94,453.19 154.53,452.93 154.53,452.93 C153.71,453.04 150.19,453.69 147.71,453.72 C144.07,453.97 140.04,453.94 136.32,454.25 C136.32,454.25 136.42,454.51 136.42,454.51" fill="none" stroke="rgb(0, 0, 255)" stroke-width="2.98" stroke-opacity="1.00" stroke-linejoin="round"/>
<path d="M153.62,452.40 C153.62,452.40 153.40,452.40 153.40,452.40 C153.40,452.40 163.25,455.46 163.25,455.46 C163.49,457.64 162.55,462.22 161.39,463.66 C157.39,468.40 146.27,474.51 141.16,476.56 C137.38,478.07 129.46,479.80 116.37,482.17 C110.27,483.25 96.31,484.41 89.02,483.55 C83.25,482.83 70.94,477.91 69.87,477.31 C68.27,476.39 65.77,473.34 65.27,471.77 C64.75,469.92 65.75,464.72 67.23,462.55 C68.35,460.95 73.16,458.23 73.87,458.03 C74.04,457.99 74.34,457.96 74.76,457.95" fill="none" stroke="rgb(0, 0, 255)" stroke-width="2.98" stroke-opacity="1.00" stroke-linejoin="round"/>
<path d="M152.03,461.39 C152.03,461.39 151.24,460.60 151.24,460.60 C147.41,471.40 145.01,473.90 144.73,474.01 C144.39,474.12 144.07,474.22 143.75,474.33" fill="none" stroke="rgb(0, 0, 255)" stroke-width="2.98" stroke-opacity="1.00" stroke-linejoin="round"/>
<path d="M113.40,467.21 C112.80,466.96 112.12,467.24 110.72,468.52 C107.95,471.08 106.89,472.56 106.87,473.20 C107.03,474.97 113.02,474.83 114.61,474.71 C114.88,474.68 115.08,474.66 115.22,474.63" fill="none" stroke="rgb(0, 0, 255)" stroke-width="2.98" stroke-opacity="1.00" stroke-linejoin="round"/>
</g>
</svg>
