<?xml version="1.0" encoding="UTF-8" standalone="no"?>
<!DOCTYPE svg PUBLIC "-//W3C//DTD SVG 1.1//EN" "http://www.w3.org/Graphics/SVG/1.1/DTD/svg11.dtd">
<svg width="128.40" height="181.68" viewBox="0.00 0.00 535.00 757.00" xmlns="http://www.w3.org/2000/svg" xmlns:xlink="http://www.w3.org/1999/xlink">
<g stroke-linecap="round" transform="translate(44.00, 155.00)" id="114-비">
<path d="M74.23,286.06 C74.23,286.06 73.79,286.06 73.79,286.06 C73.42,289.52 71.67,302.17 70.39,308.97 C70.20,310.47 71.35,312.62 72.60,312.90 C74.24,313.20 76.97,311.48 77.71,309.44 C78.34,307.60 78.22,304.21 77.59,299.84 C76.09,289.76 75.92,284.30 75.72,283.37 C75.65,283.06 75.49,282.80 75.23,282.61" fill="none" stroke="rgb(0, 255, 255)" stroke-width="2.98" stroke-opacity="1.00" stroke-linejoin="round"/>
<path d="M439.74,-4.84 C439.74,-4.84 438.41,-4.43 438.41,-4.43 C438.41,-4.43 438.24,-5.18 438.24,-5.18 C438.16,-5.37 433.51,2.48 432.93,3.59 C431.79,5.83 431.44,9.79 431.84,11.83 C432.08,12.95 432.84,14.52 433.39,14.94 C434.33,15.60 438.37,14.88 439.66,13.78 C440.91,12.65 441.36,8.83 441.00,6.07 C440.93,5.54 439.61,-3.54 439.74,-6.46 C439.74,-6.46 440.04,-6.31 440.04,-6.31" fill="none" stroke="rgb(0, 255, 255)" stroke-width="2.98" stroke-opacity="1.00" stroke-linejoin="round"/>
</g>
</svg>
