<?xml version="1.0" encoding="UTF-8" standalone="no"?>
<!DOCTYPE svg PUBLIC "-//W3C//DTD SVG 1.1//EN" "http://www.w3.org/Graphics/SVG/1.1/DTD/svg11.dtd">
<svg width="128.40" height="181.68" viewBox="0.00 0.00 535.00 757.00" xmlns="http://www.w3.org/2000/svg" xmlns:xlink="http://www.w3.org/1999/xlink">
<g stroke-linecap="round" transform="translate(44.00, 155.00)" id="114-우산-1">
<path d="M403.37,304.45 C401.94,304.45 400.85,304.17 400.13,303.39 C399.74,302.98 395.24,297.10 393.08,295.68 C392.38,295.23 389.44,293.51 388.35,292.67 C387.10,291.73 383.74,288.62 383.29,288.32 C380.98,286.79 375.78,285.60 372.12,284.51 C368.88,283.56 364.55,282.97 361.35,283.38 C354.16,284.35 340.46,289.52 337.08,290.01 C334.66,290.35 331.84,291.25 331.53,291.27 C331.53,291.27 345.25,301.11 345.25,301.11 C345.25,301.11 324.65,312.05 324.65,312.05 C324.81,312.71 335.62,320.30 340.45,323.82 C342.83,325.48 347.34,327.54 349.85,328.17 C354.24,329.22 368.40,329.26 372.49,328.56 C379.45,327.37 390.19,324.24 393.68,322.60 C395.44,321.76 400.18,318.83 401.74,316.99 C402.46,316.12 404.32,312.45 404.77,311.26 C405.62,308.80 404.24,305.92 403.40,305.00 C403.07,304.65 402.39,304.07 401.37,303.25" fill="none" stroke="rgb(255, 0, 0)" stroke-width="2.98" stroke-opacity="1.00" stroke-linejoin="round"/>
<path d="M406.17,310.46 C406.17,310.46 404.57,311.71 404.57,311.71 C404.55,312.58 404.71,338.40 405.11,349.87 C405.31,356.93 405.44,371.13 406.52,375.86 C407.52,380.19 408.39,385.44 408.76,387.69 C408.76,387.69 409.22,388.07 409.22,388.07" fill="none" stroke="rgb(255, 0, 0)" stroke-width="2.98" stroke-opacity="1.00" stroke-linejoin="round"/>
<path d="M411.78,396.10 C411.78,396.10 411.29,396.10 411.29,396.10 C411.29,396.10 410.97,395.83 410.97,395.83 C410.97,395.83 414.58,411.87 414.58,411.87 C414.58,411.87 414.58,411.71 414.58,411.71" fill="none" stroke="rgb(255, 0, 0)" stroke-width="2.98" stroke-opacity="1.00" stroke-linejoin="round"/>
</g>
</svg>
