<?xml version="1.0" encoding="UTF-8" standalone="no"?>
<!DOCTYPE svg PUBLIC "-//W3C//DTD SVG 1.1//EN" "http://www.w3.org/Graphics/SVG/1.1/DTD/svg11.dtd">
<svg width="128.40" height="181.68" viewBox="0.00 0.00 535.00 757.00" xmlns="http://www.w3.org/2000/svg" xmlns:xlink="http://www.w3.org/1999/xlink">
<g stroke-linecap="round" transform="translate(44.00, 155.00)" id="114-강아지">
<path d="M373.66,352.33 C373.66,352.33 374.00,351.95 374.00,351.95 C374.03,348.34 375.90,341.77 376.79,340.04 C378.15,337.44 379.99,335.43 381.25,334.67 C381.51,335.41 382.48,340.82 383.49,343.46 C384.41,345.87 386.90,349.80 387.58,351.43 C388.45,353.57 390.16,360.73 389.95,362.15 C389.63,363.89 387.91,366.07 386.64,366.52 C383.82,367.44 382.08,366.49 381.42,365.82" fill="none" stroke="rgb(0, 255, 0)" stroke-width="2.98" stroke-opacity="1.00" stroke-linejoin="round"/>
<path d="M382.76,366.16 C382.76,366.16 382.68,367.00 382.68,367.00 C382.68,367.00 381.98,367.08 381.98,367.08 C380.87,366.27 379.15,364.76 378.69,363.81 C377.78,361.93 377.85,356.10 378.87,352.67 C379.47,350.78 380.12,348.72 380.22,348.66 C382.44,350.99 385.38,359.23 384.93,360.78 C384.61,361.77 382.48,364.01 381.39,364.62 C381.05,364.80 380.53,364.96 379.82,365.10" fill="none" stroke="rgb(0, 255, 0)" stroke-width="2.98" stroke-opacity="1.00" stroke-linejoin="round"/>
<path d="M370.63,352.67 C370.63,352.67 369.38,352.04 369.38,352.04 C366.39,352.02 358.51,351.91 357.64,351.86 C354.59,351.71 349.64,352.92 349.14,352.93 C348.76,352.55 346.73,345.72 341.74,335.78 C341.15,334.61 340.56,333.43 339.97,332.26 C337.75,337.03 328.47,350.30 327.46,352.91 C326.51,355.47 326.32,361.20 327.35,363.45 C327.96,364.70 330.59,366.85 332.16,367.36 C332.67,367.52 333.48,367.57 334.59,367.52" fill="none" stroke="rgb(0, 255, 0)" stroke-width="2.98" stroke-opacity="1.00" stroke-linejoin="round"/>
<path d="M335.90,363.12 C335.90,363.12 335.06,363.12 335.06,363.12 C334.33,362.40 333.51,359.85 333.52,356.61 C333.61,350.56 336.77,346.12 336.93,346.10 C337.66,346.31 339.17,348.96 339.80,351.40 C340.55,354.43 340.44,359.21 339.64,360.52 C339.61,360.56 336.92,362.80 335.98,363.73" fill="none" stroke="rgb(0, 255, 0)" stroke-width="2.98" stroke-opacity="1.00" stroke-linejoin="round"/>
<path d="M335.23,369.19 C335.23,369.19 333.88,369.22 333.88,369.22 C333.88,369.22 333.54,384.38 333.54,384.38 C333.54,384.38 333.78,384.46 333.78,384.46" fill="none" stroke="rgb(0, 255, 0)" stroke-width="2.98" stroke-opacity="1.00" stroke-linejoin="round"/>
<path d="M383.78,369.53 C383.78,369.53 383.10,369.53 383.10,369.53 C383.10,369.53 382.10,376.47 382.10,376.47 C382.10,376.47 382.32,376.13 382.32,376.13" fill="none" stroke="rgb(0, 255, 0)" stroke-width="2.98" stroke-opacity="1.00" stroke-linejoin="round"/>
<path d="M349.73,373.24 C349.73,373.24 348.04,372.33 348.04,372.33 C348.37,374.38 349.39,372.06 349.41,371.54 C349.02,372.01 348.79,372.30 348.72,372.43 C348.66,372.55 348.65,372.69 348.71,372.83" fill="none" stroke="rgb(0, 255, 0)" stroke-width="2.98" stroke-opacity="1.00" stroke-linejoin="round"/>
<path d="M363.21,373.57 C363.21,373.57 362.06,373.24 362.06,373.24 C361.56,374.23 361.66,374.92 362.43,375.15 C362.71,375.24 363.13,375.07 363.53,374.85 C363.53,374.85 362.63,373.55 362.63,373.55 C362.63,373.55 363.26,373.39 363.26,373.39" fill="none" stroke="rgb(0, 255, 0)" stroke-width="2.98" stroke-opacity="1.00" stroke-linejoin="round"/>
<path d="M356.13,385.04 C356.02,384.39 354.21,383.50 353.19,383.77 C352.73,383.92 352.32,385.71 352.65,386.35 C353.07,387.08 355.22,387.35 356.19,386.84 C357.08,386.33 357.41,384.68 356.83,383.92 C356.23,383.17 354.60,382.76 353.91,383.24 C353.26,383.74 352.92,385.54 353.47,386.13 C355.00,387.63 356.17,384.90 355.90,384.19 C355.90,384.19 354.30,384.45 354.30,384.45 C354.30,384.45 354.19,386.07 354.19,386.07 C354.19,386.07 354.45,385.38 354.45,385.38" fill="none" stroke="rgb(0, 255, 0)" stroke-width="2.98" stroke-opacity="1.00" stroke-linejoin="round"/>
<path d="M353.77,388.41 C353.77,388.73 353.77,390.25 353.77,391.45 C353.77,391.54 353.77,391.81 353.77,391.72" fill="none" stroke="rgb(0, 255, 0)" stroke-width="2.98" stroke-opacity="1.00" stroke-linejoin="round"/>
<path d="M353.43,393.46 C353.43,393.46 353.27,393.46 353.27,393.46 C353.00,393.18 352.76,393.05 352.71,392.97 C352.32,392.30 349.17,388.05 348.40,387.69 C345.28,386.32 338.96,385.57 336.64,385.82 C335.95,385.92 334.71,386.71 334.31,387.31 C333.78,388.20 333.45,390.37 333.72,391.63 C334.34,394.17 337.59,397.70 339.89,399.07 C341.25,399.85 342.94,400.66 344.34,401.19 C345.61,401.67 347.83,402.37 349.32,402.78 C349.91,402.93 350.49,403.09 351.07,403.24" fill="none" stroke="rgb(0, 255, 0)" stroke-width="2.98" stroke-opacity="1.00" stroke-linejoin="round"/>
<path d="M349.05,398.86 C349.05,398.86 347.70,398.63 347.70,398.63 C348.91,397.72 353.68,397.81 357.53,397.64 C360.60,397.51 361.25,397.49 362.30,397.51 C362.30,397.51 361.98,397.51 361.98,397.51" fill="none" stroke="rgb(0, 255, 0)" stroke-width="2.98" stroke-opacity="1.00" stroke-linejoin="round"/>
<path d="M351.75,403.24 C351.75,403.24 350.60,403.24 350.60,403.24 C351.42,403.61 359.86,403.13 360.51,403.02 C364.14,402.37 377.42,392.72 378.57,391.93 C380.09,390.88 386.07,386.02 386.34,385.77 C387.32,384.82 386.66,381.97 385.12,380.96 C383.47,379.94 378.66,379.75 376.09,380.62 C371.80,382.15 361.00,390.98 357.98,392.63 C357.25,393.02 356.52,393.41 355.79,393.80" fill="none" stroke="rgb(0, 255, 0)" stroke-width="2.98" stroke-opacity="1.00" stroke-linejoin="round"/>
<path d="M332.53,387.40 C332.53,387.40 333.54,387.06 333.54,387.06 C333.19,386.96 332.58,386.81 331.88,386.72 C327.57,386.20 323.08,385.44 322.11,385.40 C321.56,385.40 319.00,385.89 318.36,386.25 C317.95,386.51 309.54,395.58 308.69,396.59 C306.91,398.74 305.29,402.13 305.61,403.30 C306.16,405.00 311.33,407.89 314.30,408.96 C316.10,409.59 321.94,411.31 322.73,411.38 C323.25,411.41 324.38,411.40 326.13,411.33" fill="none" stroke="rgb(0, 255, 0)" stroke-width="2.98" stroke-opacity="1.00" stroke-linejoin="round"/>
<path d="M317.36,388.74 C317.03,388.08 316.70,387.02 316.55,386.65 C316.09,385.49 313.99,378.07 312.99,376.46 C312.46,375.64 311.19,374.77 310.81,374.73 C309.90,375.32 309.12,378.47 309.01,381.14 C308.93,383.30 309.28,388.30 309.47,390.91" fill="none" stroke="rgb(0, 255, 0)" stroke-width="2.98" stroke-opacity="1.00" stroke-linejoin="round"/>
<path d="M384.45,390.43 C383.79,390.89 383.40,391.17 383.27,391.27 C383.14,391.37 383.08,391.43 383.10,391.44 C383.10,391.44 396.72,385.52 396.72,385.52 C397.26,387.30 398.39,391.05 399.23,394.15 C400.26,398.08 400.24,402.82 399.14,403.89 C396.80,406.01 390.47,408.20 387.17,409.34 C385.70,409.84 383.02,410.75 381.81,411.16 C381.59,411.23 381.46,411.29 381.41,411.33" fill="none" stroke="rgb(0, 255, 0)" stroke-width="2.98" stroke-opacity="1.00" stroke-linejoin="round"/>
<path d="M399.62,390.43 C399.20,390.43 398.78,390.43 398.36,390.43 C398.22,390.43 398.07,390.43 397.93,390.43 C399.54,390.26 408.63,387.75 409.61,387.53 C412.15,386.99 416.73,387.26 417.21,388.29 C417.27,389.80 415.39,392.46 413.37,393.24 C412.66,393.50 400.09,396.25 399.26,396.46 C398.98,396.54 398.57,396.65 398.01,396.81" fill="none" stroke="rgb(0, 255, 0)" stroke-width="2.98" stroke-opacity="1.00" stroke-linejoin="round"/>
<path d="M379.39,413.35 C379.39,413.35 378.72,413.02 378.72,413.02 C378.72,413.02 378.72,412.34 378.72,412.34 C378.70,412.35 379.70,415.64 379.89,417.50 C380.92,427.96 379.73,445.58 379.73,445.55 C379.69,445.51 376.04,447.78 373.62,448.34 C368.68,449.42 341.94,447.20 339.94,447.10 C338.57,447.03 327.98,447.08 324.81,446.50 C323.34,446.22 322.38,445.61 321.62,444.75 C321.52,443.65 324.74,431.56 325.52,423.58 C325.78,420.57 326.40,413.62 326.42,413.41 C326.44,413.20 326.45,412.88 326.46,412.45" fill="none" stroke="rgb(0, 255, 0)" stroke-width="2.98" stroke-opacity="1.00" stroke-linejoin="round"/>
<path d="M357.14,404.25 C356.16,405.12 355.33,406.98 355.76,408.25 C357.15,412.33 358.32,428.60 357.62,431.33 C356.27,436.42 352.97,445.46 352.21,446.13 C352.02,446.30 351.59,446.49 350.94,446.69" fill="none" stroke="rgb(0, 255, 0)" stroke-width="2.98" stroke-opacity="1.00" stroke-linejoin="round"/>
<path d="M350.06,414.36 C350.06,414.36 349.39,415.21 349.39,415.21 C349.39,415.21 349.52,416.33 349.52,416.33 C349.52,416.33 350.97,416.55 350.97,416.55 C350.97,416.55 350.22,414.86 350.22,414.86 C350.22,414.86 349.79,416.17 349.79,416.17" fill="none" stroke="rgb(0, 255, 0)" stroke-width="2.98" stroke-opacity="1.00" stroke-linejoin="round"/>
<path d="M351.75,425.49 C351.75,425.49 349.73,425.49 349.73,425.49 C349.73,425.49 351.58,424.75 351.58,424.75 C351.58,424.75 350.73,426.02 350.73,426.02" fill="none" stroke="rgb(0, 255, 0)" stroke-width="2.98" stroke-opacity="1.00" stroke-linejoin="round"/>
<path d="M351.41,432.57 C351.41,432.57 351.45,433.54 351.45,433.54 C351.45,433.54 352.02,431.39 352.02,431.39 C352.02,431.39 350.87,431.76 350.87,431.76" fill="none" stroke="rgb(0, 255, 0)" stroke-width="2.98" stroke-opacity="1.00" stroke-linejoin="round"/>
<path d="M349.73,404.93 C349.30,405.20 349.44,410.64 349.72,416.32 C350.28,426.12 350.17,429.50 350.06,431.22" fill="none" stroke="rgb(0, 255, 0)" stroke-width="2.98" stroke-opacity="1.00" stroke-linejoin="round"/>
<path d="M341.64,400.54 C341.64,400.54 341.64,400.21 341.64,400.21 C341.64,403.61 341.59,412.12 341.64,414.09 C342.18,431.77 341.84,444.60 341.64,446.73" fill="none" stroke="rgb(0, 255, 0)" stroke-width="2.98" stroke-opacity="1.00" stroke-linejoin="round"/>
<path d="M337.93,398.86 C337.93,398.86 336.92,403.37 336.92,403.37 C336.67,403.40 336.36,403.58 336.07,413.91 C335.95,418.00 335.70,426.72 335.56,431.34 C335.46,434.89 335.30,441.25 335.24,444.05 C335.24,444.62 335.23,445.19 335.23,445.76" fill="none" stroke="rgb(0, 255, 0)" stroke-width="2.98" stroke-opacity="1.00" stroke-linejoin="round"/>
<path d="M331.52,389.08 C330.79,392.75 330.47,402.72 330.52,411.66 C330.17,422.14 330.21,439.62 330.17,440.13 C330.15,440.46 330.08,441.31 329.96,442.66" fill="none" stroke="rgb(0, 255, 0)" stroke-width="2.98" stroke-opacity="1.00" stroke-linejoin="round"/>
<path d="M323.77,388.74 C323.77,388.74 322.42,389.42 322.42,389.42 C322.42,389.42 322.72,389.67 322.72,389.67 C322.72,389.67 323.73,408.43 323.73,408.43 C323.73,408.43 323.77,407.33 323.77,407.33" fill="none" stroke="rgb(0, 255, 0)" stroke-width="2.98" stroke-opacity="1.00" stroke-linejoin="round"/>
<path d="M320.06,387.73 C320.06,387.73 319.05,387.06 319.05,387.06 C318.69,389.02 318.54,394.35 318.45,397.29 C318.37,400.85 318.39,405.55 318.58,407.29 C318.58,407.29 317.70,408.63 317.70,408.63" fill="none" stroke="rgb(0, 255, 0)" stroke-width="2.98" stroke-opacity="1.00" stroke-linejoin="round"/>
<path d="M312.98,393.80 C312.98,393.80 312.14,394.31 312.14,394.31 C311.95,394.89 312.00,406.01 312.13,406.45 C312.20,406.71 312.41,407.08 312.76,407.57" fill="none" stroke="rgb(0, 255, 0)" stroke-width="2.98" stroke-opacity="1.00" stroke-linejoin="round"/>
<path d="M317.03,391.10 C317.03,391.10 315.37,390.80 315.37,390.80 C317.35,391.92 320.48,392.74 323.18,392.70 C323.80,392.69 329.94,392.32 331.42,392.26 C331.42,392.26 331.07,392.78 331.07,392.78" fill="none" stroke="rgb(0, 255, 0)" stroke-width="2.98" stroke-opacity="1.00" stroke-linejoin="round"/>
<path d="M306.58,399.53 C306.58,399.53 305.90,399.53 305.90,399.53 C308.83,399.53 314.80,399.57 318.29,399.78 C321.46,399.97 327.38,400.29 329.07,400.09 C330.20,399.95 333.37,399.48 334.65,399.29" fill="none" stroke="rgb(0, 255, 0)" stroke-width="2.98" stroke-opacity="1.00" stroke-linejoin="round"/>
<path d="M315.68,406.27 C315.34,406.27 315.00,406.27 314.67,406.27 C314.44,406.27 314.22,406.27 313.99,406.27 C317.82,407.08 332.33,406.63 334.96,407.00 C336.55,407.22 338.92,407.40 340.77,407.37 C341.93,407.35 346.06,407.04 347.41,406.93 C348.12,406.87 348.83,406.82 349.54,406.76" fill="none" stroke="rgb(0, 255, 0)" stroke-width="2.98" stroke-opacity="1.00" stroke-linejoin="round"/>
<path d="M350.74,412.00 C348.85,411.97 345.06,412.55 343.01,412.88 C339.62,413.37 328.09,413.36 327.27,413.49 C326.82,413.55 326.36,413.75 325.89,414.07" fill="none" stroke="rgb(0, 255, 0)" stroke-width="2.98" stroke-opacity="1.00" stroke-linejoin="round"/>
<path d="M327.81,419.42 C328.83,419.44 329.80,419.39 331.30,419.21 C338.85,418.34 345.58,418.59 348.09,418.69 C349.61,418.76 350.48,418.57 351.52,418.03" fill="none" stroke="rgb(0, 255, 0)" stroke-width="2.98" stroke-opacity="1.00" stroke-linejoin="round"/>
<path d="M351.41,423.47 C351.03,423.46 350.47,423.49 350.08,423.60 C346.22,424.67 334.18,425.45 330.05,425.37 C330.05,425.37 330.32,425.70 330.32,425.70" fill="none" stroke="rgb(0, 255, 0)" stroke-width="2.98" stroke-opacity="1.00" stroke-linejoin="round"/>
<path d="M324.44,433.92 C324.44,433.92 323.84,433.41 323.84,433.41 C323.86,433.40 339.12,432.53 342.86,432.73 C348.37,433.05 350.40,433.24 350.78,433.15 C351.10,433.06 351.75,432.75 352.73,432.21" fill="none" stroke="rgb(0, 255, 0)" stroke-width="2.98" stroke-opacity="1.00" stroke-linejoin="round"/>
<path d="M333.21,439.99 C333.21,439.99 332.53,440.15 332.53,440.15 C332.53,440.15 332.72,440.32 332.72,440.32 C335.67,440.32 344.30,440.31 345.51,440.34 C347.82,440.40 350.25,440.54 351.30,440.64" fill="none" stroke="rgb(0, 255, 0)" stroke-width="2.98" stroke-opacity="1.00" stroke-linejoin="round"/>
<path d="M360.85,405.94 C360.85,405.94 357.99,406.67 357.99,406.67 C361.09,407.09 374.89,405.14 378.88,405.15 C380.61,405.17 382.31,405.30 383.01,405.54 C383.26,405.62 383.70,405.84 384.33,406.17" fill="none" stroke="rgb(0, 255, 0)" stroke-width="2.98" stroke-opacity="1.00" stroke-linejoin="round"/>
<path d="M360.51,412.00 C361.07,412.00 362.81,412.00 364.00,412.00 C371.91,411.99 377.91,411.16 378.74,411.00 C379.06,410.95 379.62,410.83 380.40,410.66" fill="none" stroke="rgb(0, 255, 0)" stroke-width="2.98" stroke-opacity="1.00" stroke-linejoin="round"/>
<path d="M361.53,417.06 C361.53,417.06 360.85,417.06 360.85,417.06 C361.26,417.58 369.56,416.77 371.13,416.58 C374.22,416.20 378.99,416.06 380.80,416.05" fill="none" stroke="rgb(0, 255, 0)" stroke-width="2.98" stroke-opacity="1.00" stroke-linejoin="round"/>
<path d="M362.20,421.78 C362.20,421.78 361.02,422.62 361.02,422.62 C361.17,422.85 376.38,421.90 377.46,421.84 C377.90,421.81 378.53,421.80 379.35,421.78" fill="none" stroke="rgb(0, 255, 0)" stroke-width="2.98" stroke-opacity="1.00" stroke-linejoin="round"/>
<path d="M359.50,429.87 C359.50,429.87 358.49,429.70 358.49,429.70 C358.76,429.37 363.44,428.42 367.24,428.26 C370.60,428.14 376.31,428.28 377.16,428.34 C377.50,428.37 378.09,428.42 378.91,428.51" fill="none" stroke="rgb(0, 255, 0)" stroke-width="2.98" stroke-opacity="1.00" stroke-linejoin="round"/>
<path d="M360.85,433.58 C360.85,433.58 360.35,434.09 360.35,434.09 C361.06,434.99 365.44,434.88 368.98,434.43 C371.84,434.08 373.67,433.90 374.91,433.93 C375.38,433.94 376.29,434.01 377.64,434.13" fill="none" stroke="rgb(0, 255, 0)" stroke-width="2.98" stroke-opacity="1.00" stroke-linejoin="round"/>
<path d="M355.12,442.01 C355.12,442.01 354.45,442.01 354.45,442.01 C357.90,441.35 364.57,440.75 366.06,440.72 C367.85,440.69 370.06,440.75 372.63,440.89 C373.35,440.92 374.07,440.95 374.79,440.99" fill="none" stroke="rgb(0, 255, 0)" stroke-width="2.98" stroke-opacity="1.00" stroke-linejoin="round"/>
<path d="M365.23,402.90 C364.59,403.66 364.15,404.77 364.24,409.16 C364.25,409.74 365.26,435.90 365.24,440.32 C365.24,441.39 365.24,443.90 365.22,444.09 C365.20,444.26 365.12,444.46 365.00,444.68" fill="none" stroke="rgb(0, 255, 0)" stroke-width="2.98" stroke-opacity="1.00" stroke-linejoin="round"/>
<path d="M373.32,398.86 C373.32,398.86 373.16,398.86 373.16,398.86 C372.90,398.73 370.84,415.02 371.20,424.68 C371.27,426.58 371.78,432.90 372.02,435.18 C372.23,437.15 372.69,442.77 372.44,443.21 C372.32,443.40 371.94,443.90 371.30,444.71" fill="none" stroke="rgb(0, 255, 0)" stroke-width="2.98" stroke-opacity="1.00" stroke-linejoin="round"/>
<path d="M379.39,393.80 C379.39,393.80 379.06,394.05 379.06,394.05 C379.07,400.13 379.74,417.77 379.75,417.84 C379.77,417.95 379.84,418.07 379.96,418.21" fill="none" stroke="rgb(0, 255, 0)" stroke-width="2.98" stroke-opacity="1.00" stroke-linejoin="round"/>
<path d="M387.82,392.79 C387.82,392.79 387.65,392.79 387.65,392.79 C387.65,392.79 387.48,392.96 387.48,392.96 C387.23,394.83 387.17,396.41 387.32,398.73 C387.57,402.32 388.02,405.67 388.01,406.06 C388.01,406.35 387.94,406.98 387.82,407.96" fill="none" stroke="rgb(0, 255, 0)" stroke-width="2.98" stroke-opacity="1.00" stroke-linejoin="round"/>
<path d="M392.88,391.10 C392.88,391.10 392.54,391.10 392.54,391.10 C392.52,391.37 392.58,391.79 392.78,392.37 C393.51,394.63 394.19,400.37 394.17,402.94 C394.17,403.48 394.11,404.49 394.00,405.97" fill="none" stroke="rgb(0, 255, 0)" stroke-width="2.98" stroke-opacity="1.00" stroke-linejoin="round"/>
<path d="M378.72,399.19 C378.72,399.19 377.75,399.19 377.75,399.19 C379.34,399.21 385.17,398.96 388.43,398.82 C393.22,398.52 398.01,397.14 398.47,397.08 C398.47,397.08 398.36,397.62 398.36,397.62" fill="none" stroke="rgb(0, 255, 0)" stroke-width="2.98" stroke-opacity="1.00" stroke-linejoin="round"/>
<path d="M382.43,435.27 C382.43,435.27 381.75,435.22 381.75,435.22 C381.75,435.22 392.08,432.96 392.08,432.96 C392.95,435.19 387.08,440.04 385.35,440.65 C384.84,440.83 383.77,441.10 382.16,441.45" fill="none" stroke="rgb(0, 255, 0)" stroke-width="2.98" stroke-opacity="1.00" stroke-linejoin="round"/>
<path d="M365.57,450.10 C365.57,450.10 364.22,450.94 364.22,450.94 C364.26,450.97 363.85,452.88 363.69,457.34 C363.59,460.68 364.62,464.19 365.96,465.14 C368.21,466.60 380.90,468.52 384.12,467.93 C385.19,467.71 387.17,466.83 387.88,466.20 C388.62,465.49 389.68,463.31 389.76,462.25 C389.86,460.08 387.45,456.81 384.93,454.68 C382.95,453.03 379.90,449.62 379.74,449.45 C379.35,449.05 378.45,448.14 377.03,446.73" fill="none" stroke="rgb(0, 255, 0)" stroke-width="2.98" stroke-opacity="1.00" stroke-linejoin="round"/>
<path d="M333.54,448.75 C333.54,448.75 332.48,449.09 332.48,449.09 C332.48,449.09 331.54,448.51 331.54,448.51 C330.76,449.75 328.08,454.01 325.06,456.20 C321.65,458.67 320.27,460.45 320.20,461.93 C320.19,463.50 322.10,466.07 324.57,466.66 C326.58,467.12 335.44,467.07 337.04,466.88 C339.56,466.54 342.52,464.95 343.66,463.14 C344.26,462.11 344.02,449.11 343.99,447.01 C343.99,447.01 343.66,447.74 343.66,447.74" fill="none" stroke="rgb(0, 255, 0)" stroke-width="2.98" stroke-opacity="1.00" stroke-linejoin="round"/>
</g>
</svg>
