<?xml version="1.0" encoding="UTF-8" standalone="no"?>
<!DOCTYPE svg PUBLIC "-//W3C//DTD SVG 1.1//EN" "http://www.w3.org/Graphics/SVG/1.1/DTD/svg11.dtd">
<svg width="128.40" height="181.68" viewBox="0.00 0.00 535.00 757.00" xmlns="http://www.w3.org/2000/svg" xmlns:xlink="http://www.w3.org/1999/xlink">
<g stroke-linecap="round" transform="translate(44.00, 155.00)" id="115-지면">
<path d="M-31.19,472.72 C-31.19,472.72 -33.01,472.65 -33.01,472.65 C-32.29,471.23 -31.77,470.78 -30.54,470.90 C-22.49,471.65 -14.29,471.04 -0.96,469.63 C5.48,469.02 16.30,468.02 24.79,467.93 C51.64,467.87 70.94,466.67 84.46,466.64 C89.44,466.66 126.33,465.79 146.73,466.03 C157.98,466.02 188.24,466.72 203.39,466.63 C209.65,466.48 226.26,466.03 231.24,466.44 C234.67,466.73 248.59,468.53 257.62,468.88 C270.33,469.17 317.64,467.88 318.06,467.88 C349.26,467.84 409.83,467.48 439.20,467.15 C452.69,467.39 476.32,468.20 476.47,468.21 C476.82,468.24 477.39,468.33 478.16,468.47" fill="none" stroke="rgb(0, 255, 0)" stroke-width="2.91" stroke-opacity="1.00" stroke-linejoin="round"/>
<path d="M-35.44,484.24 C-35.44,484.24 -36.05,483.63 -36.05,483.63 C-34.70,482.92 -29.47,483.02 -25.95,483.10 C-11.75,483.36 -0.83,482.43 2.60,482.12 C11.04,481.43 29.82,480.08 37.02,480.12 C45.52,480.25 54.74,481.12 59.73,481.31 C66.38,481.54 104.69,479.66 120.51,478.98 C136.36,478.55 167.47,477.86 182.72,477.59 C213.93,477.89 294.42,478.16 304.95,478.42 C321.67,478.95 354.47,480.06 370.56,480.63 C377.85,480.96 423.61,481.34 429.16,481.67 C447.86,483.07 470.29,483.54 484.14,483.63 C484.14,483.63 483.65,484.24 483.65,484.24" fill="none" stroke="rgb(0, 255, 0)" stroke-width="2.91" stroke-opacity="1.00" stroke-linejoin="round"/>
<path d="M486.68,490.91 C485.10,490.91 484.09,490.91 483.63,490.91 C479.12,491.00 440.91,489.94 426.62,489.67 C415.99,489.58 407.76,489.12 399.43,487.93 C392.23,486.75 378.24,484.39 369.54,483.47 C353.39,481.98 328.57,480.37 321.69,480.16 C316.32,480.03 303.76,480.40 300.12,480.49" fill="none" stroke="rgb(0, 255, 0)" stroke-width="2.91" stroke-opacity="1.00" stroke-linejoin="round"/>
</g>
</svg>
