<?xml version="1.0" encoding="UTF-8" standalone="no"?>
<!DOCTYPE svg PUBLIC "-//W3C//DTD SVG 1.1//EN" "http://www.w3.org/Graphics/SVG/1.1/DTD/svg11.dtd">
<svg width="128.40" height="181.68" viewBox="0.00 0.00 535.00 757.00" xmlns="http://www.w3.org/2000/svg" xmlns:xlink="http://www.w3.org/1999/xlink">
<g stroke-linecap="round" transform="translate(44.00, 155.00)" id="115-물웅덩이-1">
<path d="M407.84,453.92 C407.84,453.92 407.46,451.85 407.46,451.85 C405.95,451.54 404.27,451.39 403.31,451.67 C402.33,451.97 399.87,453.45 398.92,454.30 C397.61,455.53 396.67,457.26 396.29,459.12 C396.06,460.45 396.06,463.45 396.42,464.58 C396.92,466.05 398.56,468.53 399.64,469.51 C402.00,471.57 408.36,474.81 411.53,475.98 C422.24,479.78 442.47,482.34 446.15,483.17 C448.83,483.80 453.90,485.62 456.10,487.69 C457.00,488.57 458.02,491.01 458.09,492.23 C458.14,494.62 456.72,497.21 456.31,497.57 C454.59,497.60 447.22,497.12 443.71,497.61 C435.58,498.78 419.90,501.17 412.35,502.38 C405.40,503.63 389.59,508.86 387.73,509.55 C381.65,511.81 377.39,514.95 377.00,516.30 C376.75,517.60 381.74,521.03 384.36,521.90 C387.17,522.80 397.63,525.59 399.05,526.02 C402.50,527.07 406.32,529.00 407.04,530.12 C407.35,530.65 407.53,532.25 407.20,532.89 C405.82,535.37 400.95,538.18 397.52,539.41 C394.73,540.37 375.85,543.13 367.95,544.01 C360.67,544.67 347.18,545.47 340.25,545.67 C329.17,545.81 304.17,544.12 296.57,543.69 C291.35,543.30 285.80,542.22 284.44,540.86 C284.20,540.61 283.61,539.92 282.67,538.79 C282.64,536.93 283.41,535.13 285.25,533.13 C287.01,531.23 291.61,528.04 295.35,526.19 C298.55,524.64 340.58,511.58 350.83,508.01 C359.08,505.00 369.44,499.99 371.45,498.24 C373.29,496.62 374.22,495.16 374.53,493.60 C373.84,492.13 372.74,490.69 371.05,489.38 C367.30,486.52 350.54,479.07 348.31,477.01 C347.00,475.75 345.89,473.62 346.19,472.52 C346.54,471.40 348.00,469.90 349.32,469.14 C353.81,466.70 370.41,462.18 373.31,461.59 C374.47,461.36 386.13,460.11 387.23,459.98" fill="none" stroke="rgb(28, 31, 136)" stroke-width="2.91" stroke-opacity="1.00" stroke-linejoin="round"/>
<path d="M449.08,490.30 C449.08,490.30 448.87,489.11 448.87,489.11 C448.00,490.34 447.69,491.58 448.25,492.67 C448.78,493.70 454.35,498.55 456.38,500.86 C459.30,504.30 461.82,507.79 461.49,509.24 C460.92,511.29 449.04,516.39 441.99,518.23 C435.77,519.76 423.48,522.96 417.72,525.06 C415.50,525.87 400.73,531.32 398.67,532.39 C397.36,533.07 396.76,533.82 396.36,534.96 C396.70,536.16 397.41,537.08 398.93,537.87 C403.59,540.27 415.70,542.04 426.91,543.23 C438.32,544.44 441.61,545.17 443.56,545.69 C444.00,545.81 444.42,545.94 444.84,546.09" fill="none" stroke="rgb(28, 31, 136)" stroke-width="2.91" stroke-opacity="1.00" stroke-linejoin="round"/>
</g>
</svg>
