<?xml version="1.0" encoding="UTF-8" standalone="no"?>
<!DOCTYPE svg PUBLIC "-//W3C//DTD SVG 1.1//EN" "http://www.w3.org/Graphics/SVG/1.1/DTD/svg11.dtd">
<svg width="128.40" height="181.68" viewBox="0.00 0.00 535.00 757.00" xmlns="http://www.w3.org/2000/svg" xmlns:xlink="http://www.w3.org/1999/xlink">
<g stroke-linecap="round" transform="translate(44.00, 155.00)" id="115-사람">
<path d="M210.54,220.92 C210.28,221.05 214.76,220.47 205.59,226.96 C204.03,228.03 195.60,230.60 194.45,230.87 C191.80,231.49 171.05,232.57 169.33,232.60 C164.85,232.65 158.85,231.24 155.58,230.12 C153.71,229.46 150.48,227.95 149.40,227.16 C148.19,226.22 146.66,223.91 146.23,222.42 C145.64,220.22 145.91,213.35 146.25,210.66 C146.66,207.71 148.31,203.31 150.54,201.13 C154.04,197.78 164.55,193.17 169.78,191.98 C172.38,191.40 176.79,190.80 179.21,190.74 C181.93,190.72 187.52,191.97 191.21,194.06 C195.09,196.30 201.71,201.00 202.72,201.93 C204.31,203.45 208.40,209.75 209.14,211.35 C209.86,212.97 210.65,215.73 210.82,217.32 C210.97,218.88 211.03,225.14 211.05,227.11" fill="none" stroke="rgb(228, 0, 126)" stroke-width="2.91" stroke-opacity="1.00" stroke-linejoin="round"/>
<path d="M164.16,195.16 C164.16,195.16 164.16,195.68 164.16,195.68 C164.16,195.68 157.67,200.65 157.67,200.65 C157.67,200.65 168.94,193.94 168.94,193.94 C168.94,193.94 168.34,195.81 168.34,195.81 C169.25,195.37 170.55,194.28 171.07,193.93 C171.31,193.77 171.74,193.56 172.34,193.32" fill="none" stroke="rgb(228, 0, 126)" stroke-width="2.91" stroke-opacity="1.00" stroke-linejoin="round"/>
<path d="M176.01,191.04 C175.32,191.00 174.01,191.75 173.95,193.02 C173.89,194.64 173.98,197.71 174.07,198.37 C174.07,198.37 174.80,198.81 174.80,198.81" fill="none" stroke="rgb(228, 0, 126)" stroke-width="2.91" stroke-opacity="1.00" stroke-linejoin="round"/>
<path d="M178.08,192.59 C178.08,192.59 177.05,192.71 177.05,192.71 C177.05,192.71 177.90,198.83 177.90,198.83 C177.90,198.83 178.83,199.02 178.83,199.02 C179.57,198.48 180.17,197.81 180.72,196.81 C181.01,196.29 181.21,195.85 181.32,195.52 C181.39,195.28 181.51,194.77 181.68,193.98 C181.68,193.98 184.00,197.47 184.00,197.47 C184.00,197.47 186.74,195.47 186.74,195.47 C187.18,195.49 187.61,195.61 188.03,195.84 C188.44,196.06 189.42,196.69 190.96,197.74" fill="none" stroke="rgb(228, 0, 126)" stroke-width="2.91" stroke-opacity="1.00" stroke-linejoin="round"/>
<path d="M156.95,210.62 C156.95,210.62 154.89,211.13 154.89,211.13 C154.89,211.13 160.10,206.71 160.10,206.71 C161.02,206.98 161.76,207.48 162.42,208.47 C162.68,208.86 164.15,211.29 164.68,212.16" fill="none" stroke="rgb(228, 0, 126)" stroke-width="2.91" stroke-opacity="1.00" stroke-linejoin="round"/>
<path d="M180.14,208.56 C180.14,208.56 177.88,210.10 177.88,210.10 C177.88,210.10 177.60,209.93 177.60,209.93 C178.16,208.80 179.47,207.65 181.39,206.73 C182.21,206.36 185.43,206.38 186.38,206.80 C186.85,207.01 187.52,207.60 188.38,208.56" fill="none" stroke="rgb(228, 0, 126)" stroke-width="2.91" stroke-opacity="1.00" stroke-linejoin="round"/>
<path d="M165.20,218.86 C165.02,218.86 164.85,218.86 164.68,218.86 C164.42,218.86 164.16,218.86 163.91,218.86 C163.91,218.86 163.65,219.43 163.65,219.43 C164.46,220.73 165.22,221.61 166.12,222.10 C167.21,222.64 169.44,222.82 170.82,222.27 C175.15,220.48 179.70,214.61 180.26,213.80 C180.48,213.47 180.96,212.76 181.68,211.65" fill="none" stroke="rgb(228, 0, 126)" stroke-width="2.91" stroke-opacity="1.00" stroke-linejoin="round"/>
<path d="M178.08,232.77 C178.08,232.77 176.79,232.77 176.79,232.77 C176.79,232.77 176.10,233.55 176.10,233.55 C175.99,235.06 176.10,237.98 176.48,238.95 C176.63,239.31 176.96,239.65 177.49,239.96" fill="none" stroke="rgb(228, 0, 126)" stroke-width="2.91" stroke-opacity="1.00" stroke-linejoin="round"/>
<path d="M197.14,230.71 C197.14,230.71 195.59,230.78 195.59,230.78 C195.59,234.18 195.59,239.01 195.59,240.43 C195.59,240.80 195.59,241.17 195.59,241.53" fill="none" stroke="rgb(228, 0, 126)" stroke-width="2.91" stroke-opacity="1.00" stroke-linejoin="round"/>
<path d="M252.78,317.27 C252.82,316.47 252.77,315.96 252.52,314.10 C252.26,312.22 250.96,291.84 250.57,289.39 C249.36,282.40 247.54,268.89 245.79,263.45 C244.84,260.55 242.81,256.27 240.80,252.57 C239.08,249.46 236.27,246.61 234.00,245.76 C231.56,244.88 214.54,241.06 209.19,240.83 C202.55,240.57 185.00,242.50 181.96,242.69 C178.89,242.87 160.99,241.99 156.48,242.44 C153.42,242.77 146.84,244.65 144.46,245.59 C142.18,246.51 137.18,249.79 135.39,252.38 C134.24,254.11 131.54,275.42 131.38,277.01 C130.70,283.74 131.50,292.87 132.55,300.08 C133.07,303.78 133.03,306.61 132.27,313.72 C131.67,319.05 131.30,323.25 131.33,326.78 C131.48,332.16 132.06,337.49 133.33,339.53 C134.49,341.30 139.32,342.63 142.34,342.71 C144.10,342.75 162.31,342.55 167.94,342.66 C175.86,342.80 189.74,341.45 195.33,342.11 C197.43,342.36 205.98,343.93 209.05,344.49 C212.53,345.14 228.67,345.13 234.30,345.09 C234.80,345.09 235.29,345.09 235.78,345.09" fill="none" stroke="rgb(228, 0, 126)" stroke-width="2.91" stroke-opacity="1.00" stroke-linejoin="round"/>
<path d="M238.87,324.48 C238.87,324.48 237.64,324.48 237.64,324.48 C236.76,323.27 234.44,319.17 233.06,316.13 C232.15,314.08 228.65,293.11 227.98,290.31 C227.62,288.87 223.57,277.24 222.99,275.19 C222.79,274.45 222.59,273.71 222.39,272.96" fill="none" stroke="rgb(228, 0, 126)" stroke-width="2.91" stroke-opacity="1.00" stroke-linejoin="round"/>
<path d="M244.54,347.15 C244.54,347.15 242.54,346.54 242.54,346.54 C245.18,348.13 250.13,350.10 252.28,350.07 C253.58,350.02 255.38,348.85 256.13,347.62 C256.67,346.67 257.76,343.01 257.79,342.07 C257.80,341.67 257.68,341.13 257.42,340.46" fill="none" stroke="rgb(228, 0, 126)" stroke-width="2.91" stroke-opacity="1.00" stroke-linejoin="round"/>
<path d="M144.59,248.23 C143.35,248.12 140.92,245.42 139.13,245.93 C135.59,247.00 127.97,254.71 126.06,257.99 C125.24,259.42 113.90,280.13 112.69,282.79 C109.02,291.26 106.42,298.90 105.62,304.74 C104.48,313.30 104.15,327.75 105.19,332.73 C105.51,334.14 106.76,336.39 107.70,337.26 C109.33,338.68 113.97,340.48 119.54,342.33 C128.04,345.01 133.63,343.25 134.47,342.41 C134.75,342.10 135.03,341.79 135.31,341.49" fill="none" stroke="rgb(228, 0, 126)" stroke-width="2.91" stroke-opacity="1.00" stroke-linejoin="round"/>
<path d="M112.13,337.36 C111.43,337.19 110.51,336.85 110.50,336.85 C110.34,336.83 109.95,336.85 109.33,336.90 C107.94,338.43 106.90,343.14 106.66,345.73 C106.42,348.54 107.14,354.38 108.17,356.05 C109.26,357.73 113.69,360.39 116.62,361.20 C119.71,362.01 124.61,361.56 127.17,359.84 C129.43,358.25 133.66,352.98 134.03,351.51 C134.25,350.56 133.49,346.43 133.25,345.09" fill="none" stroke="rgb(228, 0, 126)" stroke-width="2.91" stroke-opacity="1.00" stroke-linejoin="round"/>
<path d="M115.22,346.12 C113.81,347.02 112.67,347.72 112.64,348.18 C112.53,350.71 114.53,357.96 114.65,358.16 C114.83,358.48 115.32,359.08 116.11,359.97" fill="none" stroke="rgb(228, 0, 126)" stroke-width="2.91" stroke-opacity="1.00" stroke-linejoin="round"/>
<path d="M120.89,343.55 C119.88,346.25 119.22,349.31 119.47,351.62 C119.74,353.93 120.30,356.35 120.52,357.08 C120.52,357.08 121.92,356.43 121.92,356.43" fill="none" stroke="rgb(228, 0, 126)" stroke-width="2.91" stroke-opacity="1.00" stroke-linejoin="round"/>
<path d="M125.01,347.15 C125.01,347.07 124.97,349.99 125.01,350.67 C125.15,353.46 125.93,355.19 126.49,355.74 C126.49,355.74 127.28,355.91 127.28,355.91" fill="none" stroke="rgb(228, 0, 126)" stroke-width="2.91" stroke-opacity="1.00" stroke-linejoin="round"/>
<path d="M129.13,349.73 C129.13,349.99 129.13,350.25 129.13,350.50 C129.13,351.23 129.13,351.95 129.13,352.67" fill="none" stroke="rgb(228, 0, 126)" stroke-width="2.91" stroke-opacity="1.00" stroke-linejoin="round"/>
<path d="M137.37,343.55 C137.45,343.71 136.93,345.57 136.86,346.35 C136.69,348.33 143.04,366.42 143.91,370.12 C144.37,372.14 146.40,382.68 147.20,385.68 C148.14,389.19 154.05,404.03 156.44,411.23 C158.71,418.43 162.85,431.33 165.26,437.35 C166.95,441.52 169.99,446.35 171.97,447.62 C175.30,449.65 188.25,452.25 190.26,451.89 C191.62,451.60 193.62,450.20 194.15,449.01 C197.41,441.26 200.00,371.68 201.45,359.03 C201.82,355.91 202.19,350.99 202.29,349.22" fill="none" stroke="rgb(228, 0, 126)" stroke-width="2.91" stroke-opacity="1.00" stroke-linejoin="round"/>
<path d="M235.27,344.06 C235.27,344.06 233.98,344.32 233.98,344.32 C233.76,345.43 233.68,346.22 233.69,347.58 C233.82,364.52 231.65,385.81 231.67,401.67 C231.69,410.67 231.65,432.08 231.40,435.78 C231.15,439.35 230.04,443.53 228.56,444.92 C226.32,446.91 210.81,450.64 206.19,450.72 C201.68,450.71 201.05,450.63 200.78,450.31 C199.69,448.12 199.99,434.61 200.20,428.31 C200.21,425.91 200.22,421.91 200.23,420.32" fill="none" stroke="rgb(228, 0, 126)" stroke-width="2.91" stroke-opacity="1.00" stroke-linejoin="round"/>
<path d="M205.38,451.23 C205.38,451.23 203.49,451.23 203.49,451.23 C203.37,451.15 203.18,459.17 203.39,460.47 C203.61,461.67 204.91,463.03 206.08,463.31 C207.27,463.56 215.64,463.82 220.66,464.37 C222.06,464.52 226.64,464.98 227.80,464.23 C228.53,462.57 227.58,459.16 225.69,456.10 C223.53,452.66 221.04,449.13 218.81,447.06 C218.26,446.56 215.46,444.13 214.14,442.99" fill="none" stroke="rgb(228, 0, 126)" stroke-width="2.91" stroke-opacity="1.00" stroke-linejoin="round"/>
<path d="M174.98,446.08 C174.98,446.08 174.73,446.08 174.73,446.08 C174.34,446.52 173.83,446.70 173.70,446.83 C172.84,447.73 169.11,457.14 168.38,458.93 C171.72,460.55 177.25,461.24 180.30,461.63 C181.96,461.85 187.93,462.52 189.60,461.73 C191.21,460.91 192.22,458.21 191.73,455.65 C191.16,452.87 189.97,449.60 189.41,448.14" fill="none" stroke="rgb(228, 0, 126)" stroke-width="2.91" stroke-opacity="1.00" stroke-linejoin="round"/>
</g>
</svg>
