<?xml version="1.0" encoding="UTF-8" standalone="no"?>
<!DOCTYPE svg PUBLIC "-//W3C//DTD SVG 1.1//EN" "http://www.w3.org/Graphics/SVG/1.1/DTD/svg11.dtd">
<svg width="128.40" height="181.68" viewBox="0.00 0.00 535.00 757.00" xmlns="http://www.w3.org/2000/svg" xmlns:xlink="http://www.w3.org/1999/xlink">
<g stroke-linecap="round" transform="translate(44.00, 155.00)" id="115-비">
<path d="M74.32,121.00 C74.32,121.00 74.19,123.03 74.19,123.03 C74.19,123.03 73.71,123.28 73.71,123.28 C73.66,119.69 67.65,77.26 65.26,60.24 C64.60,55.15 63.59,40.44 63.21,33.73 C62.45,9.34 64.98,-33.53 65.20,-35.55 C65.35,-36.93 66.56,-44.00 67.05,-46.79" fill="none" stroke="rgb(0, 160, 232)" stroke-width="2.91" stroke-opacity="1.00" stroke-linejoin="round"/>
<path d="M33.69,-5.74 C33.69,-5.74 33.39,-5.74 33.39,-5.74 C32.91,-5.69 32.44,-8.59 32.48,-13.61 C32.47,-24.33 31.93,-33.56 30.46,-39.58 C27.89,-50.00 24.50,-71.94 24.18,-74.40" fill="none" stroke="rgb(0, 160, 232)" stroke-width="2.91" stroke-opacity="1.00" stroke-linejoin="round"/>
<path d="M25.20,-8.77 C25.20,-8.77 22.78,-8.77 22.78,-8.77 C22.06,-9.14 22.26,-15.19 22.35,-18.10 C22.47,-21.28 25.17,-65.68 25.89,-74.95 C26.63,-81.89 28.17,-92.27 28.38,-93.26 C28.77,-95.04 29.42,-97.37 29.79,-98.46" fill="none" stroke="rgb(0, 160, 232)" stroke-width="2.91" stroke-opacity="1.00" stroke-linejoin="round"/>
<path d="M6.40,125.85 C6.40,125.85 2.97,128.13 2.97,128.13 C2.02,125.89 2.17,119.06 2.24,115.32 C2.52,100.19 3.43,64.63 4.27,53.69 C4.69,49.62 5.75,40.35 5.99,38.86 C6.52,35.58 7.87,30.35 9.49,28.37 C9.49,28.37 11.42,29.42 11.42,29.42" fill="none" stroke="rgb(0, 160, 232)" stroke-width="2.91" stroke-opacity="1.00" stroke-linejoin="round"/>
<path d="M-23.92,83.40 C-25.54,81.20 -22.69,73.25 -18.85,63.69 C-15.22,54.77 -11.36,46.36 -6.57,37.08 C-2.74,30.07 6.16,15.04 6.50,14.53 C6.76,14.15 7.31,13.38 8.15,12.20" fill="none" stroke="rgb(0, 160, 232)" stroke-width="2.91" stroke-opacity="1.00" stroke-linejoin="round"/>
<path d="M128.29,73.10 C128.04,65.63 127.39,44.80 127.33,43.83 C127.09,40.02 125.43,21.66 124.83,13.89 C124.41,6.37 124.15,-8.13 124.29,-15.34 C125.68,-52.49 130.58,-73.74 132.34,-79.91" fill="none" stroke="rgb(0, 160, 232)" stroke-width="2.91" stroke-opacity="1.00" stroke-linejoin="round"/>
<path d="M161.64,-39.70 C160.91,-39.78 159.53,-38.64 158.11,-36.60 C156.91,-34.87 149.96,-14.44 148.68,-9.78 C147.56,-5.69 144.03,9.65 143.02,17.42 C142.12,25.21 139.71,46.70 139.61,47.90 C139.45,49.80 139.26,52.95 139.21,54.39" fill="none" stroke="rgb(0, 160, 232)" stroke-width="2.91" stroke-opacity="1.00" stroke-linejoin="round"/>
<path d="M185.29,-74.87 C184.56,-74.62 182.55,-71.64 181.70,-68.80 C177.09,-53.44 170.46,-26.18 167.03,-8.58 C165.93,-2.36 164.95,7.45 164.68,10.30" fill="none" stroke="rgb(0, 160, 232)" stroke-width="2.91" stroke-opacity="1.00" stroke-linejoin="round"/>
<path d="M175.59,7.60 C175.59,7.60 175.29,7.60 175.29,7.60 C173.68,8.49 170.09,24.69 169.80,31.59 C169.46,40.06 170.16,54.91 170.78,59.31 C171.05,61.20 173.09,69.90 173.44,71.01 C174.29,73.66 177.28,78.44 180.30,80.84" fill="none" stroke="rgb(0, 160, 232)" stroke-width="2.91" stroke-opacity="1.00" stroke-linejoin="round"/>
<path d="M241.08,-71.84 C240.01,-72.08 238.36,-69.89 237.65,-66.07 C236.83,-61.51 234.91,-42.19 234.46,-34.72 C234.15,-26.99 234.00,-12.47 234.16,-5.66 C234.91,12.72 237.69,29.60 239.62,34.60 C241.26,38.67 244.25,40.93 246.87,42.51" fill="none" stroke="rgb(0, 160, 232)" stroke-width="2.91" stroke-opacity="1.00" stroke-linejoin="round"/>
<path d="M292.63,-42.12 C292.63,-42.12 291.72,-42.12 291.72,-42.12 C291.24,-41.24 288.04,-19.12 287.01,-14.31 C285.66,-8.05 281.37,7.14 279.24,14.07 C274.68,27.92 266.95,47.58 264.66,52.15 C263.61,54.20 260.97,56.97 259.69,58.26" fill="none" stroke="rgb(0, 160, 232)" stroke-width="2.91" stroke-opacity="1.00" stroke-linejoin="round"/>
<path d="M337.50,-90.03 C336.81,-89.61 335.78,-88.69 335.68,-87.91 C335.61,-87.27 336.20,-83.58 336.35,-82.90 C336.98,-80.14 338.65,-74.59 339.46,-71.93" fill="none" stroke="rgb(0, 160, 232)" stroke-width="2.91" stroke-opacity="1.00" stroke-linejoin="round"/>
<path d="M338.11,-29.39 C338.11,-29.39 338.11,-32.81 338.11,-32.81 C337.79,-28.78 335.57,-10.30 334.80,-2.53 C333.58,12.14 332.89,36.97 333.04,40.93 C333.15,43.72 333.83,51.21 334.47,54.90" fill="none" stroke="rgb(0, 160, 232)" stroke-width="2.91" stroke-opacity="1.00" stroke-linejoin="round"/>
<path d="M366.61,7.60 C366.61,7.60 364.38,7.00 364.38,7.00 C363.39,7.16 362.40,11.11 361.56,17.03 C360.47,25.96 359.73,34.42 359.24,45.95 C358.96,56.04 359.88,68.81 360.67,72.56 C361.67,77.16 363.57,82.13 365.24,84.53 C367.06,87.06 369.63,89.15 370.85,90.08" fill="none" stroke="rgb(0, 160, 232)" stroke-width="2.91" stroke-opacity="1.00" stroke-linejoin="round"/>
<path d="M396.93,-42.12 C396.93,-42.12 396.93,-45.46 396.93,-45.46 C396.93,-45.46 396.93,-45.46 396.93,-45.46 C398.06,-38.58 400.33,-24.50 401.47,-17.28 C402.72,-8.87 404.65,7.31 405.32,15.11 C406.43,31.49 406.02,52.22 405.26,58.85 C405.01,61.09 404.58,64.81 404.41,66.31" fill="none" stroke="rgb(0, 160, 232)" stroke-width="2.91" stroke-opacity="1.00" stroke-linejoin="round"/>
<path d="M445.44,14.27 C444.43,15.12 443.87,15.66 443.75,16.23 C443.68,16.61 442.92,26.08 442.47,29.29 C441.56,35.53 438.02,47.80 435.11,53.82 C432.91,58.33 423.85,73.00 420.70,77.20 C417.75,81.10 411.24,87.88 410.38,88.78" fill="none" stroke="rgb(0, 160, 232)" stroke-width="2.91" stroke-opacity="1.00" stroke-linejoin="round"/>
<path d="M457.57,25.19 C457.08,26.26 456.77,26.98 456.66,27.36 C456.53,27.81 452.91,52.35 451.97,56.92 C450.64,63.29 446.16,77.37 442.68,84.36 C441.00,87.73 437.37,93.96 435.77,96.30 C434.10,98.71 429.69,103.93 426.64,107.05" fill="none" stroke="rgb(0, 160, 232)" stroke-width="2.91" stroke-opacity="1.00" stroke-linejoin="round"/>
<path d="M463.63,111.30 C462.44,106.82 455.29,89.20 454.49,87.09 C452.24,81.01 448.02,67.40 446.95,61.93 C445.58,54.87 443.93,41.35 443.28,32.02 C442.98,27.14 442.83,7.81 443.08,2.05 C443.96,-12.08 446.59,-32.72 447.17,-37.07" fill="none" stroke="rgb(0, 160, 232)" stroke-width="2.91" stroke-opacity="1.00" stroke-linejoin="round"/>
<path d="M47.03,157.99 C47.03,157.99 46.73,157.08 46.73,157.08 C46.13,157.69 47.32,171.75 48.37,181.49 C49.17,188.45 50.96,204.08 51.95,212.76 C54.04,234.05 55.08,251.18 55.31,255.13" fill="none" stroke="rgb(0, 160, 232)" stroke-width="2.91" stroke-opacity="1.00" stroke-linejoin="round"/>
<path d="M34.30,177.40 C34.30,177.40 34.30,177.16 34.30,177.16 C34.15,177.05 32.99,178.58 19.15,237.95 C16.25,251.88 12.91,280.39 12.22,292.42 C11.80,301.35 12.35,369.23 12.45,383.26 C12.33,394.16 11.87,399.55 11.60,402.23" fill="none" stroke="rgb(0, 160, 232)" stroke-width="2.91" stroke-opacity="1.00" stroke-linejoin="round"/>
<path d="M35.51,225.30 C35.30,225.98 32.93,239.96 30.63,249.74 C25.17,270.62 17.10,303.57 16.50,306.37 C15.13,313.34 6.22,353.04 2.99,365.65 C-1.20,382.76 -8.05,405.68 -12.11,418.83 C-16.62,434.38 -22.18,457.54 -24.60,472.63 C-26.90,488.90 -28.42,504.20 -28.91,513.42 C-29.17,522.03 -27.80,534.83 -27.56,537.60" fill="none" stroke="rgb(0, 160, 232)" stroke-width="2.91" stroke-opacity="1.00" stroke-linejoin="round"/>
</g>
</svg>
