<?xml version="1.0" encoding="UTF-8" standalone="no"?>
<!DOCTYPE svg PUBLIC "-//W3C//DTD SVG 1.1//EN" "http://www.w3.org/Graphics/SVG/1.1/DTD/svg11.dtd">
<svg width="128.40" height="181.68" viewBox="0.00 0.00 535.00 757.00" xmlns="http://www.w3.org/2000/svg" xmlns:xlink="http://www.w3.org/1999/xlink">
<g stroke-linecap="round" transform="translate(44.00, 155.00)" id="115-우산">
<path d="M250.21,85.42 C250.21,85.42 248.23,86.40 248.23,86.40 C248.19,84.29 248.11,78.81 248.15,77.49 C248.23,74.64 248.46,73.03 248.70,71.88 C251.24,73.66 256.13,75.32 256.70,76.17 C257.25,77.03 257.53,79.55 257.53,82.32 C257.51,83.51 257.48,85.86 257.46,87.03 C257.45,88.04 257.43,89.05 257.42,90.06" fill="none" stroke="rgb(220, 215, 24)" stroke-width="2.91" stroke-opacity="1.00" stroke-linejoin="round"/>
<path d="M256.91,86.45 C256.91,86.45 256.26,85.93 256.26,85.93 C256.07,85.68 253.51,84.93 248.43,84.90 C245.01,84.93 227.45,88.09 220.99,90.05 C177.06,103.76 150.81,112.19 139.96,116.14 C130.82,119.76 121.94,123.84 116.37,126.94 C108.92,131.10 98.96,138.77 94.11,144.07 C90.01,148.54 78.93,160.20 76.84,164.85 C76.29,166.11 75.91,167.51 75.55,169.40 C82.80,165.35 94.73,160.85 100.15,160.48 C102.35,160.35 110.82,161.33 111.40,161.44 C114.76,162.10 119.52,163.99 121.18,164.92 C124.90,167.03 132.10,173.99 134.81,176.62 C135.07,176.87 135.40,177.21 135.83,177.64" fill="none" stroke="rgb(220, 215, 24)" stroke-width="2.91" stroke-opacity="1.00" stroke-linejoin="round"/>
<path d="M238.36,167.85 C238.36,167.85 236.81,168.89 236.81,168.89 C236.91,168.33 237.77,166.07 238.04,165.16 C238.39,163.92 238.17,162.03 237.47,161.08 C235.92,159.07 232.00,156.75 229.87,155.88 C226.49,154.56 212.50,153.53 207.17,153.69 C202.81,153.85 187.01,156.99 179.14,158.59 C169.68,160.55 154.08,164.91 151.09,165.88 C145.03,167.89 136.85,173.65 136.33,174.18 C136.07,174.44 135.74,174.91 135.31,175.58" fill="none" stroke="rgb(220, 215, 24)" stroke-width="2.91" stroke-opacity="1.00" stroke-linejoin="round"/>
<path d="M241.45,166.82 C241.45,166.82 239.90,166.31 239.90,166.31 C239.89,166.32 247.02,161.39 249.76,159.90 C252.53,158.41 259.04,156.13 261.29,155.66 C263.66,155.18 271.00,154.51 273.40,154.54 C275.36,154.58 291.65,156.09 297.24,156.46 C299.94,156.67 304.94,157.73 307.99,159.40 C311.19,161.19 316.14,165.08 317.25,166.81 C318.18,168.29 318.65,169.78 318.50,170.35 C318.74,169.08 319.17,168.35 320.27,167.60 C325.23,164.28 336.27,158.85 340.66,158.11 C342.35,157.83 366.32,156.01 366.56,156.00 C370.08,156.00 374.48,157.64 377.09,159.31 C379.02,160.60 381.45,165.19 382.29,168.17 C383.01,170.87 383.22,177.07 383.39,177.73 C383.48,178.04 383.57,178.36 383.65,178.67" fill="none" stroke="rgb(220, 215, 24)" stroke-width="2.91" stroke-opacity="1.00" stroke-linejoin="round"/>
<path d="M385.20,172.49 C384.54,172.42 384.11,172.34 383.91,172.23 C383.71,172.13 383.45,171.87 383.14,171.44 C383.55,170.54 394.18,166.17 401.11,165.13 C403.57,164.78 407.02,165.01 412.29,166.06 C425.13,168.77 432.06,170.66 439.81,174.34 C442.56,175.69 448.12,179.32 450.71,181.56 C453.37,183.93 455.09,186.96 455.78,188.90 C453.87,181.93 447.75,165.34 446.98,163.49 C445.72,160.52 436.68,147.22 433.11,141.52 C429.76,136.30 420.51,125.81 415.13,121.63 C410.09,117.90 396.11,107.12 392.97,105.03 C390.66,103.50 376.80,96.01 370.86,93.30 C363.36,89.99 353.61,86.54 347.16,85.69 C344.30,85.33 327.33,83.78 320.45,83.77 C312.05,83.83 268.72,85.80 263.33,87.02 C260.21,87.74 256.30,88.28 254.14,88.51 C254.14,88.51 254.84,88.51 254.84,88.51" fill="none" stroke="rgb(220, 215, 24)" stroke-width="2.91" stroke-opacity="1.00" stroke-linejoin="round"/>
<path d="M254.33,90.06 C254.33,90.06 252.81,90.06 252.81,90.06 C255.91,90.09 262.69,90.23 264.98,91.09 C268.26,92.38 279.13,100.38 283.60,104.95 C288.30,109.78 295.41,119.57 299.50,126.55 C302.50,131.48 309.09,142.52 311.31,148.68 C311.38,148.87 315.27,160.27 315.91,161.99 C316.97,164.83 318.61,167.85 319.25,168.89" fill="none" stroke="rgb(220, 215, 24)" stroke-width="2.91" stroke-opacity="1.00" stroke-linejoin="round"/>
<path d="M387.77,173.52 C387.11,173.77 386.68,173.94 386.49,174.04 C386.10,174.26 385.58,174.54 385.35,174.55 C385.29,174.50 384.02,168.87 383.39,166.89 C382.37,163.73 378.25,157.20 376.50,155.05 C372.86,150.61 362.20,140.03 356.45,134.40 C349.64,127.93 339.48,121.05 331.77,117.32 C322.59,112.96 315.71,109.16 307.00,104.79 C298.10,100.40 290.95,97.39 282.98,94.65 C275.26,92.14 260.46,87.37 253.69,86.45 C252.85,86.35 251.82,87.65 251.35,88.82 C249.05,95.02 244.92,134.73 243.19,142.56 C241.84,148.30 239.62,157.79 238.79,159.77 C238.17,161.22 236.77,163.61 236.30,164.25" fill="none" stroke="rgb(220, 215, 24)" stroke-width="2.91" stroke-opacity="1.00" stroke-linejoin="round"/>
<path d="M252.78,89.54 C252.78,89.54 252.78,87.22 252.78,87.22 C252.62,87.13 247.87,90.09 243.92,91.58 C233.75,95.33 220.15,100.50 218.56,101.12 C213.90,102.97 201.19,110.52 195.41,113.98 C191.83,116.16 179.59,124.43 175.38,127.93 C171.28,131.39 155.91,145.05 154.11,146.73 C149.42,151.15 141.14,161.47 137.26,166.61 C135.36,169.17 132.09,173.99 130.67,176.10" fill="none" stroke="rgb(220, 215, 24)" stroke-width="2.91" stroke-opacity="1.00" stroke-linejoin="round"/>
<path d="M249.69,164.76 C249.69,164.76 247.20,164.76 247.20,164.76 C247.20,164.76 248.40,165.22 248.40,165.22 C249.58,168.11 250.71,180.82 251.27,187.56 C251.88,201.13 254.28,234.15 254.30,241.50 C254.31,256.57 254.35,286.33 254.38,301.01 C254.42,302.97 254.94,306.36 255.46,307.57 C255.87,308.50 257.21,309.09 258.58,309.43 C259.50,308.83 259.94,302.48 260.03,300.90 C260.48,293.23 262.81,281.49 264.10,275.54 C265.07,269.95 265.20,257.16 264.85,251.40 C264.57,246.96 261.51,229.50 260.59,221.96 C259.50,212.40 259.03,179.32 258.53,164.65 C258.53,163.63 258.50,162.93 258.44,162.55 C258.39,162.17 258.22,161.37 257.94,160.13" fill="none" stroke="rgb(220, 215, 24)" stroke-width="2.91" stroke-opacity="1.00" stroke-linejoin="round"/>
<path d="M255.36,304.39 C255.36,304.39 255.10,304.39 255.10,304.39 C254.95,304.63 254.42,306.12 254.33,307.10 C254.28,307.63 254.33,317.70 254.27,321.05 C254.22,322.99 253.78,325.92 253.23,327.68 C252.74,329.13 251.15,331.51 250.30,331.83 C248.55,332.42 242.35,331.79 239.60,330.49 C238.08,329.75 224.69,319.39 223.55,318.55 C222.74,321.02 222.52,322.92 223.06,324.92 C223.96,328.24 225.99,332.26 227.20,333.98 C228.82,336.19 233.82,339.91 237.70,341.26 C240.25,342.11 246.56,342.96 248.76,343.02 C251.18,343.06 254.11,342.34 256.00,340.45 C257.95,338.44 261.68,332.71 262.80,329.36 C263.89,325.97 264.62,319.25 264.36,316.02 C263.71,308.90 262.12,305.97 261.61,305.42 C261.61,305.42 261.03,301.81 261.03,301.81" fill="none" stroke="rgb(220, 215, 24)" stroke-width="2.91" stroke-opacity="1.00" stroke-linejoin="round"/>
</g>
</svg>
