<?xml version="1.0" encoding="UTF-8" standalone="no"?>
<!DOCTYPE svg PUBLIC "-//W3C//DTD SVG 1.1//EN" "http://www.w3.org/Graphics/SVG/1.1/DTD/svg11.dtd">
<svg width="128.40" height="181.68" viewBox="0.00 0.00 535.00 757.00" xmlns="http://www.w3.org/2000/svg" xmlns:xlink="http://www.w3.org/1999/xlink">
<g stroke-linecap="round" transform="translate(44.00, 155.00)" id="116-구름-2">
<path d="M192.73,-64.41 C192.73,-64.41 189.47,-65.13 189.47,-65.13 C188.81,-64.88 187.82,-64.21 186.83,-63.24 C184.44,-60.87 181.29,-56.85 180.85,-54.91 C180.74,-54.29 180.79,-52.47 181.16,-51.86 C182.44,-49.83 186.38,-45.77 188.44,-44.37 C191.79,-42.15 202.01,-38.73 212.40,-34.67 C225.86,-29.27 232.03,-25.91 236.73,-23.22 C239.62,-21.94 244.68,-21.02 246.69,-21.04 C252.82,-21.19 260.53,-24.91 261.24,-24.98 C261.88,-25.02 269.51,-23.51 272.25,-23.60 C275.14,-23.72 278.28,-24.11 282.53,-25.04 C286.45,-25.84 294.15,-26.32 294.68,-26.40 C296.74,-26.70 327.92,-34.24 328.41,-34.27 C329.47,-34.31 335.46,-33.89 337.94,-34.17 C340.74,-34.50 345.51,-36.03 347.04,-37.05 C348.44,-37.99 350.99,-40.27 351.68,-40.76 C353.21,-41.80 358.69,-41.84 362.36,-41.30 C363.85,-41.08 368.17,-40.12 368.19,-40.12 C370.62,-39.71 374.20,-40.87 377.43,-42.48 C384.96,-46.29 393.54,-51.18 399.14,-54.40 C401.62,-55.84 407.10,-59.40 407.34,-60.65 C407.43,-61.25 407.27,-62.56 407.14,-63.10 C407.14,-63.10 403.68,-63.70 403.68,-63.70" fill="none" stroke="rgb(0, 255, 255)" stroke-width="2.60" stroke-opacity="1.00" stroke-linejoin="round"/>
</g>
</svg>
