<?xml version="1.0" encoding="UTF-8" standalone="no"?>
<!DOCTYPE svg PUBLIC "-//W3C//DTD SVG 1.1//EN" "http://www.w3.org/Graphics/SVG/1.1/DTD/svg11.dtd">
<svg width="128.40" height="181.68" viewBox="0.00 0.00 535.00 757.00" xmlns="http://www.w3.org/2000/svg" xmlns:xlink="http://www.w3.org/1999/xlink">
<g stroke-linecap="round" transform="translate(44.00, 155.00)" id="117-물웅덩이">
<path d="M351.55,277.63 C351.55,277.63 351.55,276.81 351.55,276.81 C344.83,276.87 332.84,276.25 327.57,277.09 C325.67,277.38 319.48,277.75 318.38,277.89 C315.41,278.29 313.68,279.11 312.44,279.94 C312.49,281.46 314.71,284.27 316.83,284.82 C319.51,285.44 337.87,285.49 345.79,285.48 C348.80,285.44 352.67,284.86 354.40,284.39 C358.83,283.12 360.14,281.08 360.44,279.95 C359.24,278.86 353.14,277.26 352.57,276.80 C352.09,276.39 351.61,275.98 351.14,275.57" fill="none" stroke="rgb(0, 255, 255)" stroke-width="1.92" stroke-opacity="1.00" stroke-linejoin="round"/>
</g>
</svg>
