<?xml version="1.0" encoding="UTF-8" standalone="no"?>
<!DOCTYPE svg PUBLIC "-//W3C//DTD SVG 1.1//EN" "http://www.w3.org/Graphics/SVG/1.1/DTD/svg11.dtd">
<svg width="128.40" height="181.68" viewBox="0.00 0.00 535.00 757.00" xmlns="http://www.w3.org/2000/svg" xmlns:xlink="http://www.w3.org/1999/xlink">
<g stroke-linecap="round" transform="translate(44.00, 155.00)" id="117-비">
<path d="M178.54,53.43 C178.54,53.43 177.30,53.46 177.30,53.46 C176.08,56.49 174.55,61.03 174.05,64.48 C173.77,66.47 173.59,73.23 174.00,75.82 C174.35,77.90 176.23,80.68 177.72,81.00 C179.42,81.30 182.86,79.43 184.15,77.38 C184.70,76.46 185.15,74.98 185.22,73.90 C185.27,72.65 181.31,66.02 180.85,65.08 C179.42,62.05 178.76,54.54 179.10,53.18 C179.19,52.85 179.28,52.52 179.37,52.19" fill="none" stroke="rgb(0, 255, 0)" stroke-width="1.92" stroke-opacity="1.00" stroke-linejoin="round"/>
<path d="M243.78,1.81 C243.78,1.81 243.78,1.19 243.78,1.19 C243.78,1.19 243.60,0.99 243.60,0.99 C242.45,2.28 240.64,8.13 239.23,11.05 C237.43,14.83 236.27,19.19 236.68,22.39 C236.91,23.99 237.95,26.36 238.76,27.14 C239.58,27.86 241.30,28.26 242.31,27.99 C243.18,27.70 244.86,26.32 245.30,25.42 C246.16,23.52 245.47,15.28 245.11,11.34 C244.74,6.55 244.81,2.58 245.06,1.65 C245.17,1.26 245.43,1.04 245.85,0.99" fill="none" stroke="rgb(0, 255, 0)" stroke-width="1.92" stroke-opacity="1.00" stroke-linejoin="round"/>
<path d="M310.26,38.15 C310.26,38.15 309.85,37.74 309.85,37.74 C309.85,37.53 308.11,45.24 307.94,46.97 C307.80,48.58 307.76,57.35 307.96,58.17 C308.34,59.59 311.33,62.56 312.71,62.66 C313.47,62.68 314.90,61.84 315.46,61.01 C316.67,59.14 317.09,54.01 316.52,51.60 C314.61,45.93 312.31,38.74 312.03,36.78 C311.97,36.35 311.93,35.84 311.91,35.26" fill="none" stroke="rgb(0, 255, 0)" stroke-width="1.92" stroke-opacity="1.00" stroke-linejoin="round"/>
<path d="M318.52,154.59 C318.52,154.59 318.52,153.35 318.52,153.35 C317.79,154.30 316.18,159.61 315.68,161.81 C315.08,164.59 314.79,169.00 315.22,171.58 C315.66,173.91 317.69,176.26 319.48,176.16 C320.38,176.08 322.35,175.20 323.01,174.53 C323.73,173.76 324.63,171.55 324.68,170.44 C324.68,169.52 324.02,167.22 323.44,166.45 C322.72,165.50 320.27,162.54 319.63,160.86 C318.71,158.40 318.22,154.01 318.10,153.00 C318.10,152.98 318.10,152.91 318.10,152.94" fill="none" stroke="rgb(0, 255, 0)" stroke-width="1.92" stroke-opacity="1.00" stroke-linejoin="round"/>
<path d="M370.13,245.84 C370.13,245.84 369.30,245.71 369.30,245.71 C369.30,245.71 368.89,244.63 368.89,244.63 C368.90,249.36 368.88,253.59 369.67,254.01 C370.43,254.34 372.50,254.25 373.36,253.73 C374.31,253.12 375.30,251.53 375.20,250.91 C374.87,249.52 369.47,244.56 369.00,243.53 C369.00,243.53 369.30,242.95 369.30,242.95" fill="none" stroke="rgb(0, 255, 0)" stroke-width="1.92" stroke-opacity="1.00" stroke-linejoin="round"/>
<path d="M159.55,162.43 C159.63,163.77 158.17,169.24 157.31,172.43 C156.40,175.97 156.10,181.06 156.51,182.61 C156.68,183.17 157.47,184.19 158.04,184.37 C159.16,184.68 161.96,184.74 163.15,184.48 C164.45,184.15 165.92,181.09 165.45,178.94 C165.05,177.29 160.63,171.24 160.48,170.94 C159.45,168.92 159.06,163.15 159.16,162.78 C159.24,162.53 159.51,162.00 159.96,161.19" fill="none" stroke="rgb(0, 255, 0)" stroke-width="1.92" stroke-opacity="1.00" stroke-linejoin="round"/>
<path d="M161.61,234.69 C161.61,234.90 161.61,235.10 161.61,235.31 C161.61,235.38 161.61,235.45 161.61,235.52 C161.32,235.44 160.28,235.80 157.75,242.59 C156.61,245.88 155.64,250.19 156.86,252.04 C157.53,252.98 160.98,252.43 162.90,251.08 C164.92,249.60 167.16,246.00 166.82,244.02 C166.54,242.57 162.80,235.78 162.65,235.46 C162.14,234.34 161.81,232.48 161.62,230.42 C161.62,230.42 162.03,230.15 162.03,230.15" fill="none" stroke="rgb(0, 255, 0)" stroke-width="1.92" stroke-opacity="1.00" stroke-linejoin="round"/>
</g>
</svg>
