<?xml version="1.0" encoding="UTF-8" standalone="no"?>
<!DOCTYPE svg PUBLIC "-//W3C//DTD SVG 1.1//EN" "http://www.w3.org/Graphics/SVG/1.1/DTD/svg11.dtd">
<svg width="128.40" height="181.68" viewBox="0.00 0.00 535.00 757.00" xmlns="http://www.w3.org/2000/svg" xmlns:xlink="http://www.w3.org/1999/xlink">
<g stroke-linecap="round" transform="translate(44.00, 155.00)" id="117-우산">
<path d="M244.61,83.15 C244.61,83.15 244.61,83.57 244.61,83.57 C244.61,83.57 245.19,80.54 245.19,80.54 C242.65,80.17 241.02,80.95 240.05,82.21 C239.58,82.86 239.16,84.11 239.30,84.63 C239.60,85.61 242.98,86.47 244.59,86.32 C246.30,86.13 247.86,84.50 247.47,83.26 C247.18,82.37 246.79,81.78 246.31,81.48 C245.95,81.27 245.10,81.06 243.75,80.84" fill="none" stroke="rgb(255, 0, 0)" stroke-width="1.92" stroke-opacity="1.00" stroke-linejoin="round"/>
<path d="M239.24,86.04 C238.93,86.04 238.02,86.04 238.00,86.04 C237.98,86.05 233.68,85.40 230.32,86.32 C228.10,86.95 219.10,91.49 217.63,92.32 C213.66,94.57 209.73,97.70 207.28,100.17 C205.29,102.21 202.25,105.75 198.46,110.40 C195.85,113.67 193.79,117.62 192.78,121.28 C191.93,124.49 189.74,132.74 189.60,133.68 C189.20,136.47 189.53,144.59 189.69,148.22 C190.77,145.49 193.80,141.10 195.58,139.26 C196.92,137.91 200.27,135.19 203.10,133.73 C205.27,132.65 211.71,131.99 213.81,132.73 C215.29,133.29 217.52,135.59 219.02,137.89 C221.04,141.10 221.88,144.53 222.31,146.65 C222.31,146.65 222.31,146.40 222.31,146.40" fill="none" stroke="rgb(255, 0, 0)" stroke-width="1.92" stroke-opacity="1.00" stroke-linejoin="round"/>
<path d="M224.79,145.92 C224.79,145.92 223.55,145.92 223.55,145.92 C224.51,144.16 228.24,139.76 229.82,138.26 C233.69,134.66 240.91,132.12 243.20,131.95 C244.41,131.89 246.84,132.86 248.34,133.96 C250.79,135.82 253.61,144.06 253.69,145.45 C253.45,145.22 255.44,139.93 257.29,137.48 C259.15,135.11 263.52,132.62 266.45,132.03 C267.85,131.78 271.83,132.77 273.14,133.69 C274.98,135.02 276.76,137.13 277.57,138.95 C277.79,139.47 279.56,143.93 279.70,144.26 C280.63,141.02 283.09,136.71 284.67,135.63 C286.28,134.58 292.78,133.89 294.96,134.18 C295.99,134.34 298.02,135.17 298.69,135.83 C300.09,137.26 304.59,143.49 304.72,143.64 C304.16,137.77 303.02,126.17 301.48,121.67 C300.35,118.44 298.86,113.68 298.00,112.26 C297.43,111.34 294.91,108.50 294.12,107.10 C291.63,102.28 289.49,99.81 286.77,98.10 C283.65,96.26 277.76,91.93 277.76,91.93 C276.57,91.21 270.34,88.63 268.16,87.72 C265.12,86.55 254.49,85.63 246.56,85.63 C246.17,85.63 245.97,85.63 245.96,85.63" fill="none" stroke="rgb(255, 0, 0)" stroke-width="1.92" stroke-opacity="1.00" stroke-linejoin="round"/>
<path d="M245.43,87.28 C245.43,87.28 244.61,86.32 244.61,86.32 C244.73,86.20 250.61,92.94 251.88,94.35 C254.22,96.96 255.56,100.56 256.21,103.46 C257.50,109.39 258.42,120.47 258.02,126.62 C257.86,128.83 256.80,135.41 256.60,136.19 C256.48,136.63 256.25,137.29 255.90,138.19" fill="none" stroke="rgb(255, 0, 0)" stroke-width="1.92" stroke-opacity="1.00" stroke-linejoin="round"/>
<path d="M243.78,88.11 C243.57,88.11 241.28,89.08 238.64,90.91 C234.93,93.49 231.31,96.61 229.67,98.88 C228.53,100.47 224.85,107.49 224.06,109.11 C221.89,113.62 218.47,128.06 217.60,135.50 C217.53,136.11 217.46,136.71 217.39,137.31" fill="none" stroke="rgb(255, 0, 0)" stroke-width="1.92" stroke-opacity="1.00" stroke-linejoin="round"/>
<path d="M252.45,141.37 C252.45,141.37 251.21,141.50 251.21,141.50 C251.32,142.44 252.15,146.54 252.72,152.61 C253.35,160.45 250.54,175.53 250.39,175.89 C250.29,176.10 250.08,176.38 249.75,176.73" fill="none" stroke="rgb(255, 0, 0)" stroke-width="1.92" stroke-opacity="1.00" stroke-linejoin="round"/>
<path d="M259.88,137.66 C259.88,137.66 259.47,139.72 259.47,139.72 C259.48,145.75 259.46,162.87 259.31,165.43 C258.97,170.79 257.57,179.57 256.45,181.70 C256.26,182.06 255.84,182.78 255.20,183.87" fill="none" stroke="rgb(255, 0, 0)" stroke-width="1.92" stroke-opacity="1.00" stroke-linejoin="round"/>
</g>
</svg>
