<?xml version="1.0" encoding="UTF-8" standalone="no"?>
<!DOCTYPE svg PUBLIC "-//W3C//DTD SVG 1.1//EN" "http://www.w3.org/Graphics/SVG/1.1/DTD/svg11.dtd">
<svg width="128.40" height="181.68" viewBox="0.00 0.00 535.00 757.00" xmlns="http://www.w3.org/2000/svg" xmlns:xlink="http://www.w3.org/1999/xlink">
<g stroke-linecap="round" transform="translate(44.00, 155.00)" id="118-물웅덩이-3">
<path d="M350.01,517.17 C350.01,517.17 350.01,517.62 350.01,517.62 C350.01,517.62 340.49,527.46 340.49,527.46 C340.49,527.46 340.61,527.46 340.61,527.46" fill="none" stroke="rgb(229, 0, 16)" stroke-width="3.01" stroke-opacity="1.00" stroke-linejoin="round"/>
<path d="M333.61,535.79 C333.61,535.79 332.94,535.79 332.94,535.79 C332.83,535.57 338.36,538.30 339.69,538.54 C341.38,538.82 378.33,539.64 381.14,539.28 C389.16,538.20 393.36,535.06 394.11,534.11 C394.27,533.38 393.45,531.56 391.93,529.91 C391.48,529.41 390.58,528.58 389.24,527.42" fill="none" stroke="rgb(229, 0, 16)" stroke-width="3.01" stroke-opacity="1.00" stroke-linejoin="round"/>
<path d="M376.16,534.02 C376.16,534.02 375.94,534.02 375.94,534.02 C375.94,534.02 375.72,533.80 375.72,533.80 C375.72,533.57 383.74,532.83 385.82,531.84 C386.68,531.41 387.59,530.33 387.64,530.05 C387.64,530.05 387.38,529.62 387.38,529.62" fill="none" stroke="rgb(229, 0, 16)" stroke-width="3.01" stroke-opacity="1.00" stroke-linejoin="round"/>
</g>
</svg>
