<?xml version="1.0" encoding="UTF-8" standalone="no"?>
<!DOCTYPE svg PUBLIC "-//W3C//DTD SVG 1.1//EN" "http://www.w3.org/Graphics/SVG/1.1/DTD/svg11.dtd">
<svg width="128.40" height="181.68" viewBox="0.00 0.00 535.00 757.00" xmlns="http://www.w3.org/2000/svg" xmlns:xlink="http://www.w3.org/1999/xlink">
<g stroke-linecap="round" transform="translate(44.00, 155.00)" id="118-물웅덩이-2">
<path d="M174.92,503.87 C174.47,503.87 172.15,503.88 171.39,503.94 C151.63,505.51 130.10,508.49 115.25,510.65 C108.23,511.70 91.22,514.30 87.74,514.73 C80.13,515.61 62.27,519.61 61.88,519.65 C61.38,519.69 53.82,519.71 51.15,519.88 C47.90,520.11 43.53,520.78 39.42,521.68 C36.03,522.45 30.81,524.77 28.48,527.04 C27.35,528.16 26.69,529.40 26.28,530.87 C26.76,532.06 27.68,533.20 29.23,534.11 C34.07,536.91 46.21,539.19 51.77,539.61 C54.45,539.81 74.40,540.76 82.56,541.11 C93.12,541.45 98.79,541.42 108.64,540.71 C124.08,539.51 149.65,537.71 153.19,538.02 C149.75,542.15 149.03,544.32 149.22,545.16 C150.37,546.39 156.18,547.41 156.55,547.49 C158.14,547.86 159.28,548.79 160.16,550.38 C160.96,551.83 162.39,553.57 163.65,554.29 C167.65,556.51 181.35,557.13 191.96,557.14 C199.87,557.08 215.71,556.94 223.64,556.85 C234.27,556.65 245.22,555.93 248.66,554.43 C250.11,553.77 251.37,552.39 251.40,551.47 C251.36,549.92 249.31,545.64 246.76,541.79 C244.54,538.44 241.79,533.73 241.51,532.46 C244.95,531.36 253.95,531.35 256.64,531.28 C258.08,531.24 258.97,531.20 259.32,531.16 C259.57,531.14 259.82,531.06 260.07,530.95" fill="none" stroke="rgb(229, 0, 16)" stroke-width="3.01" stroke-opacity="1.00" stroke-linejoin="round"/>
<path d="M274.21,515.40 C274.21,515.40 274.08,514.73 274.08,514.73 C274.08,514.73 266.07,522.61 266.07,522.61 C266.07,522.61 266.14,522.90 266.14,522.90" fill="none" stroke="rgb(229, 0, 16)" stroke-width="3.01" stroke-opacity="1.00" stroke-linejoin="round"/>
<path d="M266.67,515.84 C266.67,515.84 266.23,515.40 266.23,515.40 C265.92,515.41 265.64,515.57 265.38,515.87 C264.03,517.45 261.76,521.72 261.35,522.49" fill="none" stroke="rgb(229, 0, 16)" stroke-width="3.01" stroke-opacity="1.00" stroke-linejoin="round"/>
<path d="M263.13,518.50 C261.88,518.49 260.72,519.14 259.69,520.01 C259.36,520.30 258.60,520.98 257.42,522.05" fill="none" stroke="rgb(229, 0, 16)" stroke-width="3.01" stroke-opacity="1.00" stroke-linejoin="round"/>
<path d="M77.84,526.48 C77.45,526.55 73.36,525.22 71.11,526.30 C69.91,526.89 69.00,527.97 68.59,529.01 C70.15,530.73 71.23,531.37 73.08,531.35 C80.74,531.36 96.13,529.14 97.74,528.85 C98.30,528.75 99.56,528.50 101.54,528.12" fill="none" stroke="rgb(229, 0, 16)" stroke-width="3.01" stroke-opacity="1.00" stroke-linejoin="round"/>
<path d="M85.82,522.94 C85.95,522.61 86.11,522.40 86.49,522.05 C86.55,521.99 86.63,521.91 86.71,521.83 C86.71,521.83 84.91,520.02 84.91,520.02 C84.91,520.02 82.95,521.75 82.95,521.75 C84.66,523.11 86.14,523.37 88.01,522.62 C88.01,522.62 87.28,523.68 87.28,523.68 C87.32,524.13 92.00,522.64 95.47,521.23 C98.45,519.97 98.89,519.89 98.84,519.94 C98.84,519.94 95.09,522.89 95.09,522.89 C95.09,522.89 98.68,522.49 98.68,522.49" fill="none" stroke="rgb(229, 0, 16)" stroke-width="3.01" stroke-opacity="1.00" stroke-linejoin="round"/>
<path d="M108.43,516.73 C104.99,518.88 101.28,521.47 99.65,523.11 C99.35,523.41 99.04,523.81 98.72,524.30 C98.72,524.30 101.49,523.70 101.49,523.70" fill="none" stroke="rgb(229, 0, 16)" stroke-width="3.01" stroke-opacity="1.00" stroke-linejoin="round"/>
<path d="M115.52,514.51 C115.57,514.46 115.37,514.49 115.30,514.51 C113.72,515.06 112.10,515.93 110.66,517.10 C108.21,519.11 103.39,523.70 101.84,525.50 C101.84,525.50 106.63,523.45 106.63,523.45" fill="none" stroke="rgb(229, 0, 16)" stroke-width="3.01" stroke-opacity="1.00" stroke-linejoin="round"/>
<path d="M120.40,516.29 C120.40,516.29 122.17,514.96 122.17,514.96 C119.42,516.65 113.37,520.40 110.63,522.42 C109.59,523.19 108.28,524.31 107.00,525.45 C109.82,524.58 111.37,524.01 113.16,523.14 C114.67,522.41 117.18,521.20 118.18,520.72" fill="none" stroke="rgb(229, 0, 16)" stroke-width="3.01" stroke-opacity="1.00" stroke-linejoin="round"/>
<path d="M127.93,515.40 C127.93,515.40 134.14,512.96 134.14,512.96 C134.14,512.96 113.60,526.89 113.60,526.89 C115.68,526.41 118.54,525.15 122.47,523.05 C124.51,521.95 127.91,520.12 129.26,519.39" fill="none" stroke="rgb(229, 0, 16)" stroke-width="3.01" stroke-opacity="1.00" stroke-linejoin="round"/>
<path d="M140.34,515.40 C140.34,515.40 142.12,514.96 142.12,514.96 C137.77,516.75 133.87,519.09 131.06,521.16 C126.92,524.28 123.29,527.21 120.80,529.40 C122.78,528.24 129.75,524.25 131.24,523.44 C138.99,519.24 143.35,517.88 144.18,517.75 C144.18,517.75 136.38,525.64 136.38,525.64 C138.84,524.69 140.37,524.00 142.62,522.82 C146.01,521.03 150.07,519.14 151.12,518.65 C151.12,518.65 143.82,525.16 143.82,525.16 C143.82,525.16 160.73,516.73 160.73,516.73" fill="none" stroke="rgb(229, 0, 16)" stroke-width="3.01" stroke-opacity="1.00" stroke-linejoin="round"/>
<path d="M166.94,512.74 C166.42,513.60 161.37,516.32 159.76,517.62 C153.88,522.42 150.01,526.26 149.39,526.98 C149.39,526.98 152.75,526.04 152.75,526.04" fill="none" stroke="rgb(229, 0, 16)" stroke-width="3.01" stroke-opacity="1.00" stroke-linejoin="round"/>
<path d="M164.72,516.29 C164.72,516.29 149.58,530.67 149.58,530.67 C149.58,530.67 152.88,529.52 152.88,529.52" fill="none" stroke="rgb(229, 0, 16)" stroke-width="3.01" stroke-opacity="1.00" stroke-linejoin="round"/>
<path d="M172.26,514.96 C172.26,514.96 172.70,513.85 172.70,513.85 C172.70,513.85 172.48,513.70 172.48,513.70 C172.48,513.70 154.82,531.18 154.82,531.18 C154.82,531.18 157.57,529.64 157.57,529.64" fill="none" stroke="rgb(229, 0, 16)" stroke-width="3.01" stroke-opacity="1.00" stroke-linejoin="round"/>
<path d="M182.90,512.74 C177.72,516.56 166.42,524.97 162.43,527.50 C159.35,529.42 154.16,532.65 150.68,535.02 C150.68,535.02 152.25,534.78 152.25,534.78" fill="none" stroke="rgb(229, 0, 16)" stroke-width="3.01" stroke-opacity="1.00" stroke-linejoin="round"/>
<path d="M187.33,513.63 C185.24,514.85 180.05,518.79 177.00,521.09 C174.91,522.63 161.25,532.28 157.46,535.21 C155.92,536.41 154.65,537.67 152.81,539.73 C152.81,539.73 155.86,538.45 155.86,538.45" fill="none" stroke="rgb(229, 0, 16)" stroke-width="3.01" stroke-opacity="1.00" stroke-linejoin="round"/>
<path d="M194.42,513.63 C194.42,513.63 194.75,512.52 194.75,512.52 C192.89,512.05 184.33,518.16 176.03,525.08 C167.99,531.86 164.77,534.84 162.10,537.44 C162.10,537.44 164.72,536.23 164.72,536.23" fill="none" stroke="rgb(229, 0, 16)" stroke-width="3.01" stroke-opacity="1.00" stroke-linejoin="round"/>
<path d="M202.84,510.97 C199.77,512.21 197.62,513.33 194.68,515.70 C183.63,525.07 168.99,537.42 164.18,541.85 C164.18,541.85 164.54,542.28 164.54,542.28 C164.54,542.28 169.60,538.45 169.60,538.45" fill="none" stroke="rgb(229, 0, 16)" stroke-width="3.01" stroke-opacity="1.00" stroke-linejoin="round"/>
<path d="M204.17,512.74 C202.78,513.45 201.89,513.93 201.48,514.20 C201.06,514.47 184.38,529.07 178.44,534.31 C174.43,537.91 171.42,540.78 168.88,543.86 C168.88,543.86 169.61,544.36 169.61,544.36" fill="none" stroke="rgb(229, 0, 16)" stroke-width="3.01" stroke-opacity="1.00" stroke-linejoin="round"/>
<path d="M204.62,516.29 C202.84,516.26 201.08,517.10 198.34,520.46 C193.39,526.62 185.78,534.30 182.42,538.34 C183.87,538.40 184.83,538.17 186.28,537.09 C192.21,532.57 204.52,523.11 210.91,518.18 C212.67,516.86 214.62,515.38 214.60,515.31 C209.35,518.87 199.07,527.79 193.36,533.03 C183.24,542.58 182.12,543.91 180.92,545.59 C180.92,545.59 182.26,545.08 182.26,545.08" fill="none" stroke="rgb(229, 0, 16)" stroke-width="3.01" stroke-opacity="1.00" stroke-linejoin="round"/>
<path d="M221.02,512.30 C218.85,513.63 215.31,517.11 212.30,520.24 C206.85,525.99 194.06,539.59 192.46,541.88 C192.35,542.04 192.21,542.27 192.04,542.57" fill="none" stroke="rgb(229, 0, 16)" stroke-width="3.01" stroke-opacity="1.00" stroke-linejoin="round"/>
<path d="M225.89,513.63 C225.82,513.63 225.15,513.68 224.61,514.03 C222.59,515.32 212.73,525.19 204.56,532.72 C201.68,535.38 198.06,539.12 195.57,542.52 C195.57,542.52 196.32,542.82 196.32,542.82" fill="none" stroke="rgb(229, 0, 16)" stroke-width="3.01" stroke-opacity="1.00" stroke-linejoin="round"/>
<path d="M231.21,512.30 C229.04,512.83 226.53,514.93 223.63,517.88 C215.80,525.94 201.87,538.82 200.44,541.04 C200.44,541.04 200.86,541.22 200.86,541.22" fill="none" stroke="rgb(229, 0, 16)" stroke-width="3.01" stroke-opacity="1.00" stroke-linejoin="round"/>
<path d="M232.54,514.51 C222.62,525.18 209.19,539.37 208.93,539.70 C208.64,540.07 208.14,540.86 207.43,542.06" fill="none" stroke="rgb(229, 0, 16)" stroke-width="3.01" stroke-opacity="1.00" stroke-linejoin="round"/>
<path d="M236.09,518.50 C236.09,518.50 236.86,517.17 236.86,517.17 C227.20,525.47 213.47,541.63 213.17,542.59 C213.11,542.82 213.14,543.23 213.26,543.83" fill="none" stroke="rgb(229, 0, 16)" stroke-width="3.01" stroke-opacity="1.00" stroke-linejoin="round"/>
<path d="M239.63,518.95 C238.91,519.05 238.42,519.17 238.18,519.29 C237.76,519.52 223.45,537.77 221.63,540.26 C220.90,541.26 220.26,542.44 219.29,544.38" fill="none" stroke="rgb(229, 0, 16)" stroke-width="3.01" stroke-opacity="1.00" stroke-linejoin="round"/>
<path d="M247.61,517.17 C247.61,517.17 248.50,516.06 248.50,516.06 C248.50,516.06 221.80,544.46 221.80,544.46 C221.80,544.46 222.40,544.45 222.40,544.45" fill="none" stroke="rgb(229, 0, 16)" stroke-width="3.01" stroke-opacity="1.00" stroke-linejoin="round"/>
<path d="M251.60,517.17 C251.60,517.17 251.93,516.62 251.93,516.62 C250.32,518.12 236.83,533.50 235.48,535.86 C235.30,536.18 235.28,536.46 235.40,536.71" fill="none" stroke="rgb(229, 0, 16)" stroke-width="3.01" stroke-opacity="1.00" stroke-linejoin="round"/>
<path d="M255.59,517.62 C253.67,518.58 252.71,519.19 252.16,520.02 C252.02,520.22 247.24,527.25 246.61,528.25 C246.31,528.72 245.88,529.56 245.29,530.75" fill="none" stroke="rgb(229, 0, 16)" stroke-width="3.01" stroke-opacity="1.00" stroke-linejoin="round"/>
<path d="M259.14,517.17 C259.14,517.17 259.58,517.17 259.58,517.17 C258.32,518.46 255.76,522.09 255.37,522.72 C255.13,523.12 254.68,523.91 254.03,525.09" fill="none" stroke="rgb(229, 0, 16)" stroke-width="3.01" stroke-opacity="1.00" stroke-linejoin="round"/>
<path d="M213.04,514.51 C212.98,514.45 212.91,514.38 212.82,514.29 C212.72,514.20 212.48,513.98 212.09,513.63 C210.14,515.21 205.35,520.50 201.99,523.88 C198.81,527.06 194.63,531.23 193.63,532.24" fill="none" stroke="rgb(229, 0, 16)" stroke-width="3.01" stroke-opacity="1.00" stroke-linejoin="round"/>
</g>
</svg>
