<?xml version="1.0" encoding="UTF-8" standalone="no"?>
<!DOCTYPE svg PUBLIC "-//W3C//DTD SVG 1.1//EN" "http://www.w3.org/Graphics/SVG/1.1/DTD/svg11.dtd">
<svg width="128.40" height="181.68" viewBox="0.00 0.00 535.00 757.00" xmlns="http://www.w3.org/2000/svg" xmlns:xlink="http://www.w3.org/1999/xlink">
<g stroke-linecap="round" transform="translate(44.00, 155.00)" id="119-우산-2">
<path d="M250.61,316.44 C250.61,316.44 249.38,314.53 249.38,314.53 C247.16,314.63 242.34,317.43 240.23,318.44 C239.11,318.98 238.45,319.24 238.23,319.26 C238.67,319.36 242.40,323.37 243.45,324.84 C245.84,328.28 246.12,330.11 245.97,330.78 C245.97,330.78 250.07,328.07 250.07,328.07" fill="none" stroke="rgb(255, 255, 0)" stroke-width="2.38" stroke-opacity="1.00" stroke-linejoin="round"/>
<path d="M250.61,330.95 C250.61,330.95 249.20,330.95 249.20,330.95 C250.09,330.19 253.90,331.09 256.59,332.47 C257.60,332.99 258.48,332.54 260.12,330.64 C260.95,329.67 262.72,327.68 263.79,326.49 C262.50,325.64 249.44,319.28 249.04,318.89 C248.81,318.67 248.18,316.46 247.64,315.93 C246.51,314.78 244.72,315.22 244.42,315.85 C243.51,318.14 247.99,319.43 248.55,319.49 C248.55,319.49 242.69,319.01 242.69,319.01 C242.69,319.01 245.86,322.01 245.86,322.01" fill="none" stroke="rgb(255, 255, 0)" stroke-width="2.38" stroke-opacity="1.00" stroke-linejoin="round"/>
<path d="M245.37,322.08 C245.37,322.08 243.52,322.49 243.52,322.49 C246.96,320.84 249.51,319.92 251.03,320.46 C252.55,321.07 253.91,324.91 253.57,326.27 C253.44,326.68 252.70,327.60 252.24,327.72 C249.93,328.24 247.74,327.35 247.22,326.87 C247.22,326.87 253.47,325.47 253.47,325.47 C253.47,325.47 251.32,318.72 251.32,318.72 C251.32,318.72 256.18,326.89 256.18,326.89 C257.30,326.47 257.82,325.43 257.62,323.56 C257.49,322.34 257.16,321.22 257.00,321.15 C257.00,321.15 261.22,328.60 261.22,328.60 C261.35,327.24 258.48,323.29 255.15,319.21 C251.58,314.86 251.09,313.91 250.46,313.00 C250.46,313.00 265.06,327.59 265.06,327.59 C262.75,326.25 261.39,325.57 260.74,325.61 C259.02,325.73 257.63,327.03 257.82,327.70 C258.11,328.52 260.11,328.83 261.12,328.19 C260.74,326.67 260.14,325.79 258.87,325.20 C253.61,322.75 250.27,322.76 249.54,322.95 C249.54,322.95 253.54,325.19 253.54,325.19 C253.54,325.19 246.74,323.36 246.74,323.36 C246.74,323.36 246.40,323.70 246.40,323.70 C246.40,323.70 246.58,324.10 246.58,324.10" fill="none" stroke="rgb(255, 255, 0)" stroke-width="2.38" stroke-opacity="1.00" stroke-linejoin="round"/>
<path d="M243.36,317.65 C242.45,317.63 241.52,317.72 240.47,318.05 C238.66,318.64 236.42,319.63 234.19,320.80 C234.50,321.93 235.11,322.63 236.81,323.54 C239.54,325.03 243.91,327.82 246.60,329.93 C246.60,329.93 243.78,328.14 243.78,328.14" fill="none" stroke="rgb(255, 255, 0)" stroke-width="2.38" stroke-opacity="1.00" stroke-linejoin="round"/>
<path d="M259.48,326.11 C259.48,326.11 257.46,326.11 257.46,326.11 C258.62,325.70 260.92,325.81 261.44,326.82 C262.76,329.47 263.84,335.38 263.85,338.59 C263.83,342.83 260.43,353.64 259.59,354.73 C258.57,356.00 253.88,356.32 252.31,356.32 C256.03,354.81 260.11,351.45 261.44,348.68 C262.25,346.90 263.13,340.61 263.27,339.19 C263.75,333.81 261.98,325.44 260.87,324.27 C260.67,324.08 260.48,323.89 260.28,323.70" fill="none" stroke="rgb(255, 255, 0)" stroke-width="2.38" stroke-opacity="1.00" stroke-linejoin="round"/>
<path d="M258.67,328.93 C256.66,329.70 254.74,329.75 250.04,329.74 C249.45,329.74 248.86,329.74 248.27,329.74 C248.27,329.74 259.42,331.15 259.42,331.15 C259.42,331.15 248.90,329.27 248.90,329.27 C248.90,329.27 253.43,331.75 253.43,331.75" fill="none" stroke="rgb(255, 255, 0)" stroke-width="2.38" stroke-opacity="1.00" stroke-linejoin="round"/>
<path d="M246.58,328.93 C246.58,328.93 245.83,329.85 245.83,329.85 C246.40,330.39 247.04,330.47 248.99,330.12 C250.77,329.81 253.70,329.72 255.01,330.04 C257.37,330.64 258.43,332.58 258.54,333.09 C257.73,333.10 253.81,328.39 251.99,328.67 C250.77,328.88 246.43,333.20 245.68,333.47 C245.46,333.50 244.87,328.04 243.25,325.04 C242.05,322.87 239.25,319.89 238.55,319.14 C238.55,319.14 238.93,319.67 238.93,319.67" fill="none" stroke="rgb(255, 255, 0)" stroke-width="2.38" stroke-opacity="1.00" stroke-linejoin="round"/>
<path d="M248.19,321.68 C248.19,321.68 247.99,321.68 247.99,321.68 C247.99,321.68 247.79,322.04 247.79,322.04 C247.79,322.04 248.06,322.54 248.06,322.54 C248.06,322.54 248.82,322.85 248.82,322.85" fill="none" stroke="rgb(255, 255, 0)" stroke-width="2.38" stroke-opacity="1.00" stroke-linejoin="round"/>
</g>
</svg>
