<?xml version="1.0" encoding="UTF-8" standalone="no"?>
<!DOCTYPE svg PUBLIC "-//W3C//DTD SVG 1.1//EN" "http://www.w3.org/Graphics/SVG/1.1/DTD/svg11.dtd">
<svg width="128.40" height="181.68" viewBox="0.00 0.00 535.00 757.00" xmlns="http://www.w3.org/2000/svg" xmlns:xlink="http://www.w3.org/1999/xlink">
<g stroke-linecap="round" transform="translate(44.00, 155.00)" id="119-구름-2">
<path d="M132.15,123.45 C132.08,121.87 131.27,120.19 128.35,117.24 C125.09,114.00 121.69,111.66 118.83,110.99 C116.32,110.45 109.76,110.77 107.51,111.34 C105.15,111.97 100.58,113.90 98.65,115.42 C96.75,116.97 93.41,121.11 91.97,123.46 C89.16,128.14 87.47,133.94 86.93,136.35 C86.24,135.13 84.07,132.55 82.10,131.20 C79.72,129.61 73.81,127.18 70.32,126.33 C67.54,125.68 61.73,125.13 59.58,125.39 C56.57,125.79 51.50,127.52 49.11,129.25 C46.65,131.07 42.17,136.01 40.62,138.69 C39.00,141.57 37.48,146.30 37.04,148.89 C36.66,151.22 37.06,156.54 37.86,158.23 C38.92,160.33 42.97,162.38 46.12,162.78 C49.15,163.14 55.66,162.82 58.83,162.27 C62.02,161.69 67.00,159.72 69.47,157.99 C73.53,155.05 75.82,150.84 75.84,150.95 C75.84,152.78 77.94,157.18 80.35,159.82 C82.51,162.11 86.77,165.03 89.48,165.88 C92.56,166.78 98.39,166.30 101.46,164.92 C104.46,163.53 110.01,159.46 112.67,156.97 C115.33,154.42 119.32,148.58 120.64,145.35 C122.34,141.05 122.62,135.30 122.60,133.63 C122.53,135.27 124.20,139.67 125.74,142.66 C127.70,146.40 132.16,152.33 134.57,154.25 C136.47,155.72 140.27,157.32 144.34,157.99 C145.86,158.23 149.75,158.32 154.55,158.24 C158.98,158.16 163.88,156.94 165.86,155.12 C167.66,153.36 169.90,149.71 170.60,147.48 C171.16,145.62 171.30,140.58 170.07,137.46 C169.38,135.72 164.59,128.32 164.33,127.93 C163.54,126.77 159.18,120.32 156.46,118.22 C155.18,117.26 151.03,115.62 148.55,115.08 C145.94,114.55 141.84,114.71 139.16,115.32 C136.93,115.87 131.88,119.54 129.33,121.43" fill="none" stroke="rgb(0, 255, 255)" stroke-width="2.38" stroke-opacity="1.00" stroke-linejoin="round"/>
<path d="M173.25,145.61 C173.25,145.61 171.73,146.01 171.73,146.01 C171.63,146.45 172.00,148.76 172.14,149.68 C172.48,152.30 171.13,158.06 169.45,159.28 C168.56,159.87 166.13,160.29 164.45,160.23 C163.18,160.17 157.10,159.25 156.78,159.02 C156.49,158.80 155.94,158.13 155.15,157.03" fill="none" stroke="rgb(0, 255, 255)" stroke-width="2.38" stroke-opacity="1.00" stroke-linejoin="round"/>
<path d="M61.24,134.73 C61.24,134.73 62.63,129.47 62.63,129.47 C62.63,129.47 44.54,141.42 44.54,141.42 C48.31,140.15 53.14,137.99 58.00,135.36 C58.70,134.97 59.41,134.59 60.11,134.20" fill="none" stroke="rgb(0, 255, 255)" stroke-width="2.38" stroke-opacity="1.00" stroke-linejoin="round"/>
<path d="M76.95,126.67 C73.87,128.61 65.49,133.90 63.93,134.93 C55.52,140.50 53.45,143.29 52.99,144.42 C52.99,144.42 58.02,142.79 58.02,142.79" fill="none" stroke="rgb(0, 255, 255)" stroke-width="2.38" stroke-opacity="1.00" stroke-linejoin="round"/>
<path d="M83.40,128.68 C75.60,132.69 53.08,149.31 50.40,152.04 C50.40,152.04 56.47,150.99 56.47,150.99" fill="none" stroke="rgb(0, 255, 255)" stroke-width="2.38" stroke-opacity="1.00" stroke-linejoin="round"/>
<path d="M72.52,141.98 C69.13,144.61 56.89,153.59 50.82,157.95 C46.39,161.08 45.47,161.65 43.01,163.09 C48.03,160.55 115.30,120.68 121.01,116.03 C121.13,115.81 106.02,126.00 101.86,128.37 C96.65,131.33 86.55,138.50 84.17,140.55 C84.17,140.55 84.24,141.66 84.24,141.66" fill="none" stroke="rgb(0, 255, 255)" stroke-width="2.38" stroke-opacity="1.00" stroke-linejoin="round"/>
<path d="M125.71,114.99 C123.56,117.27 114.04,124.63 105.98,131.51 C95.99,140.37 81.96,151.27 80.68,152.19 C80.68,152.19 87.40,147.40 87.40,147.40" fill="none" stroke="rgb(0, 255, 255)" stroke-width="2.38" stroke-opacity="1.00" stroke-linejoin="round"/>
<path d="M121.68,124.25 C121.68,124.25 122.28,123.85 122.28,123.85 C122.28,123.85 122.28,123.75 122.28,123.75 C122.28,123.75 82.09,157.49 82.09,157.49 C85.76,155.86 100.15,146.48 106.75,142.13 C112.88,138.05 124.88,130.24 130.74,126.52 C131.36,126.13 131.97,125.75 132.59,125.36 C130.69,126.67 126.65,129.48 121.75,133.14 C109.66,142.59 91.56,156.64 90.72,157.49 C94.51,156.08 103.89,150.19 115.02,142.75 C124.81,136.30 126.41,135.33 127.08,135.00 C120.23,139.95 114.14,144.01 105.60,150.10 C93.83,158.58 92.95,159.29 92.00,160.18 C92.00,160.18 95.56,158.87 95.56,158.87" fill="none" stroke="rgb(0, 255, 255)" stroke-width="2.38" stroke-opacity="1.00" stroke-linejoin="round"/>
<path d="M145.85,118.61 C145.85,118.61 146.66,118.01 146.66,118.01 C146.66,118.01 146.59,117.81 146.59,117.81 C142.87,121.31 131.54,130.94 125.71,135.86 C124.15,137.17 121.41,139.46 121.58,139.60 C121.58,139.60 132.81,131.97 132.81,131.97" fill="none" stroke="rgb(0, 255, 255)" stroke-width="2.38" stroke-opacity="1.00" stroke-linejoin="round"/>
<path d="M150.28,120.63 C150.28,120.63 155.82,118.11 155.82,118.11 C153.64,120.22 148.20,125.42 144.65,128.68 C138.53,134.05 131.49,140.21 130.58,141.00 C130.58,141.00 133.19,139.66 133.19,139.66" fill="none" stroke="rgb(0, 255, 255)" stroke-width="2.38" stroke-opacity="1.00" stroke-linejoin="round"/>
<path d="M156.73,124.66 C156.73,124.66 156.93,124.86 156.93,124.86 C156.92,125.60 142.74,136.88 136.37,141.93 C134.69,143.27 132.71,144.75 131.18,145.88 C131.18,145.88 136.70,143.55 136.70,143.55" fill="none" stroke="rgb(0, 255, 255)" stroke-width="2.38" stroke-opacity="1.00" stroke-linejoin="round"/>
<path d="M157.54,131.10 C157.86,131.00 158.06,130.93 158.14,130.90 C158.22,130.87 158.29,130.84 158.34,130.80 C155.88,132.29 140.71,143.73 136.29,147.41 C134.51,148.91 133.64,149.78 133.06,150.54 C133.06,150.54 141.82,146.01 141.82,146.01" fill="none" stroke="rgb(0, 255, 255)" stroke-width="2.38" stroke-opacity="1.00" stroke-linejoin="round"/>
<path d="M162.78,134.73 C162.78,134.73 164.49,133.62 164.49,133.62 C161.95,135.24 160.68,136.14 158.75,137.72 C152.42,142.93 140.00,153.35 139.24,154.89 C139.24,154.89 151.82,147.42 151.82,147.42" fill="none" stroke="rgb(0, 255, 255)" stroke-width="2.38" stroke-opacity="1.00" stroke-linejoin="round"/>
<path d="M163.98,141.18 C163.98,141.18 167.11,140.07 167.11,140.07 C165.99,140.72 164.98,141.34 164.07,141.96 C160.50,144.39 150.34,153.74 149.17,155.04 C151.82,154.63 153.24,154.16 155.29,152.82 C157.08,151.68 160.62,149.39 162.38,148.23 C163.65,147.41 166.08,145.82 167.26,145.06 C167.66,144.80 168.06,144.55 168.46,144.30 C168.47,144.34 163.00,148.81 160.49,151.28 C157.70,154.05 156.86,155.30 156.29,156.52 C156.29,156.52 165.37,151.56 165.37,151.56 C165.37,151.56 162.90,154.66 162.90,154.66" fill="none" stroke="rgb(0, 255, 255)" stroke-width="2.38" stroke-opacity="1.00" stroke-linejoin="round"/>
</g>
</svg>
