<?xml version="1.0" encoding="UTF-8" standalone="no"?>
<!DOCTYPE svg PUBLIC "-//W3C//DTD SVG 1.1//EN" "http://www.w3.org/Graphics/SVG/1.1/DTD/svg11.dtd">
<svg width="128.40" height="181.68" viewBox="0.00 0.00 535.00 757.00" xmlns="http://www.w3.org/2000/svg" xmlns:xlink="http://www.w3.org/1999/xlink">
<g stroke-linecap="round" transform="translate(44.00, 155.00)" id="119-지면">
<path d="M55.60,384.94 C55.60,384.94 55.14,383.53 55.14,383.53 C55.14,383.53 51.63,383.24 51.63,383.24 C51.50,384.54 53.05,387.03 55.70,388.49 C58.35,389.90 67.40,391.68 68.08,391.85 C71.87,392.83 78.12,393.81 80.52,394.03 C83.19,394.27 97.18,394.93 107.37,396.45 C117.07,398.04 148.11,402.21 163.61,404.34 C170.01,405.11 184.77,404.91 192.67,404.74 C219.09,403.95 237.66,402.96 252.86,402.18 C266.49,401.40 296.02,400.83 311.48,400.32 C341.15,398.84 409.57,393.52 412.40,393.44 C413.52,393.42 414.65,393.40 415.78,393.39" fill="none" stroke="rgb(255, 0, 255)" stroke-width="2.38" stroke-opacity="1.00" stroke-linejoin="round"/>
<path d="M441.59,392.19 C441.59,392.19 440.79,390.88 440.79,390.88 C441.74,389.41 454.03,388.36 464.31,387.19 C472.42,386.23 482.27,385.07 482.66,385.08 C482.86,385.08 483.14,385.13 483.50,385.23" fill="none" stroke="rgb(255, 0, 255)" stroke-width="2.38" stroke-opacity="1.00" stroke-linejoin="round"/>
<path d="M466.98,405.89 C466.98,405.89 468.94,405.09 468.94,405.09 C467.71,405.06 462.13,408.02 460.48,408.58 C455.16,410.32 440.91,411.41 433.68,412.10 C415.83,414.36 359.91,419.77 321.44,422.62 C308.08,423.56 280.76,425.68 266.81,426.86 C249.86,428.22 223.69,428.92 208.36,429.35 C192.89,429.72 179.20,429.31 152.71,426.82 C147.39,426.40 129.03,425.31 125.70,424.94 C118.86,424.16 102.76,420.74 96.86,419.82 C89.11,418.71 70.78,415.91 65.96,414.91 C58.70,413.33 43.97,409.36 41.42,408.05 C39.55,407.09 34.14,402.86 32.73,402.01 C31.84,401.48 22.93,396.90 21.96,396.27 C20.22,395.14 14.51,390.16 11.80,388.51 C10.83,387.93 7.33,386.24 6.54,385.69 C6.54,385.69 6.71,385.68 6.71,385.68" fill="none" stroke="rgb(255, 0, 255)" stroke-width="2.38" stroke-opacity="1.00" stroke-linejoin="round"/>
</g>
</svg>
