<?xml version="1.0" encoding="UTF-8" standalone="no"?>
<!DOCTYPE svg PUBLIC "-//W3C//DTD SVG 1.1//EN" "http://www.w3.org/Graphics/SVG/1.1/DTD/svg11.dtd">
<svg width="128.40" height="181.68" viewBox="0.00 0.00 535.00 757.00" xmlns="http://www.w3.org/2000/svg" xmlns:xlink="http://www.w3.org/1999/xlink">
<g stroke-linecap="round" transform="translate(44.00, 155.00)" id="119-구름-3">
<path d="M189.77,75.90 C189.77,75.90 187.39,76.27 187.39,76.27 C187.39,76.27 187.00,76.71 187.00,76.71 C188.01,75.73 189.31,74.04 189.67,73.04 C189.88,72.42 186.20,67.20 184.42,64.90 C181.55,61.21 179.34,59.39 177.41,59.43 C175.38,59.52 169.43,60.75 166.23,62.26 C162.87,63.90 158.12,68.47 156.11,70.97 C154.38,73.15 151.33,77.53 149.90,80.04 C148.17,83.12 146.06,88.72 145.68,91.68 C145.39,94.18 146.00,98.61 146.99,100.60 C147.96,102.47 150.85,105.37 152.85,106.34 C156.43,108.02 168.37,109.35 173.24,108.74 C175.81,108.40 180.58,106.95 182.72,105.89 C186.44,104.03 191.97,98.82 195.22,95.07 C195.23,95.08 198.74,100.23 201.46,102.63 C203.59,104.46 207.38,107.01 209.49,107.91 C211.48,108.74 215.57,109.63 217.62,109.78 C221.86,110.03 230.54,107.41 235.74,105.02 C237.37,104.27 242.17,101.59 244.49,99.37 C245.12,98.76 250.66,92.62 251.64,92.26 C254.06,94.96 257.14,97.12 260.41,98.68 C263.73,100.23 269.92,101.82 273.00,101.83 C275.55,101.80 280.49,100.39 282.36,99.29 C284.33,98.10 287.24,94.58 288.18,92.34 C288.94,90.45 289.84,84.94 289.80,82.75 C289.73,80.24 288.60,75.59 287.41,73.36 C286.36,71.45 283.72,67.87 281.99,65.86 C280.31,63.94 274.65,59.63 271.94,58.71 C268.93,57.75 263.74,58.98 261.36,60.20 C258.91,61.50 254.22,64.96 251.85,67.21 C249.50,69.49 246.33,73.54 245.83,75.17 C245.76,75.11 244.78,70.63 243.39,67.92 C241.97,65.25 238.30,60.89 235.85,59.07 C233.75,57.55 229.83,55.68 227.14,55.63 C226.91,55.63 222.88,55.72 221.20,55.76" fill="none" stroke="rgb(0, 255, 255)" stroke-width="2.38" stroke-opacity="1.00" stroke-linejoin="round"/>
<path d="M218.38,56.97 C217.01,57.31 213.07,58.28 212.74,58.38 C210.31,59.10 196.80,67.91 194.54,69.98 C193.95,70.52 192.42,72.17 191.23,73.05 C190.48,73.60 189.72,74.15 188.96,74.69" fill="none" stroke="rgb(0, 255, 255)" stroke-width="2.38" stroke-opacity="1.00" stroke-linejoin="round"/>
<path d="M160.76,75.50 C160.76,75.50 164.11,72.52 164.11,72.52 C162.50,73.16 158.37,78.03 155.92,80.91 C151.81,85.69 150.03,87.67 148.89,89.28 C148.89,89.28 151.49,88.80 151.49,88.80" fill="none" stroke="rgb(0, 255, 255)" stroke-width="2.38" stroke-opacity="1.00" stroke-linejoin="round"/>
<path d="M180.91,67.44 C180.65,67.42 179.86,67.56 179.27,67.96 C177.35,69.25 152.58,96.33 151.73,97.64 C151.73,97.64 161.16,90.41 161.16,90.41" fill="none" stroke="rgb(0, 255, 255)" stroke-width="2.38" stroke-opacity="1.00" stroke-linejoin="round"/>
<path d="M179.70,73.49 C179.70,73.49 181.21,72.68 181.21,72.68 C180.24,73.21 170.40,85.98 165.65,90.87 C163.08,93.45 159.71,96.84 158.91,97.64 C161.29,95.59 167.01,90.67 170.35,87.80 C173.40,85.20 179.74,79.92 180.28,79.52 C180.63,79.27 181.45,78.70 182.75,77.79 C182.75,77.79 183.11,77.96 183.11,77.96 C183.11,77.96 167.25,97.80 167.25,97.80 C168.75,97.03 169.76,96.49 170.29,96.17 C170.82,95.86 171.61,95.33 172.65,94.59" fill="none" stroke="rgb(0, 255, 255)" stroke-width="2.38" stroke-opacity="1.00" stroke-linejoin="round"/>
<path d="M190.17,81.54 C190.17,81.54 189.97,80.94 189.97,80.94 C189.97,80.94 189.07,80.44 189.07,80.44 C189.07,80.44 171.82,102.03 171.82,102.03 C171.82,102.03 174.29,100.92 174.29,100.92" fill="none" stroke="rgb(0, 255, 255)" stroke-width="2.38" stroke-opacity="1.00" stroke-linejoin="round"/>
<path d="M187.35,90.41 C186.03,91.16 183.50,92.85 182.22,93.93 C181.80,94.28 181.28,94.80 180.65,95.49 C180.65,95.49 209.58,63.04 209.58,63.04 C209.58,63.04 207.97,65.60 207.97,65.60" fill="none" stroke="rgb(0, 255, 255)" stroke-width="2.38" stroke-opacity="1.00" stroke-linejoin="round"/>
<path d="M215.56,62.20 C215.56,62.20 215.96,62.72 215.96,62.72 C215.97,63.21 207.70,72.85 199.35,83.48 C196.80,86.76 192.63,92.12 191.01,94.20 C191.01,94.20 191.25,94.87 191.25,94.87" fill="none" stroke="rgb(0, 255, 255)" stroke-width="2.38" stroke-opacity="1.00" stroke-linejoin="round"/>
<path d="M222.41,60.19 C222.41,60.19 222.71,60.19 222.71,60.19 C220.65,63.57 212.37,76.17 208.78,81.72 C205.11,87.20 198.20,97.22 197.66,98.06 C197.66,98.06 199.35,95.92 199.35,95.92" fill="none" stroke="rgb(0, 255, 255)" stroke-width="2.38" stroke-opacity="1.00" stroke-linejoin="round"/>
<path d="M226.44,65.83 C226.44,65.83 226.64,66.03 226.64,66.03 C225.64,68.95 216.05,82.15 210.68,89.50 C203.16,99.79 202.51,100.88 202.14,101.82 C202.14,101.82 213.14,90.01 213.14,90.01" fill="none" stroke="rgb(0, 255, 255)" stroke-width="2.38" stroke-opacity="1.00" stroke-linejoin="round"/>
<path d="M232.08,70.26 C232.08,70.26 233.29,69.46 233.29,69.46 C233.29,69.46 233.89,69.76 233.89,69.76 C229.46,76.39 223.66,84.37 216.77,92.89 C214.57,95.57 210.84,100.10 210.08,101.19 C210.08,101.19 213.77,97.90 213.77,97.90" fill="none" stroke="rgb(0, 255, 255)" stroke-width="2.38" stroke-opacity="1.00" stroke-linejoin="round"/>
<path d="M240.14,72.28 C240.14,72.28 240.54,72.28 240.54,72.28 C240.41,73.27 240.00,74.23 238.87,75.87 C229.61,89.13 218.18,101.39 217.14,102.50 C219.23,100.33 223.74,95.60 226.17,93.04 C228.48,90.55 233.52,85.22 236.23,82.38 C238.13,80.41 245.11,73.67 245.51,73.38 C245.84,73.14 246.73,72.56 248.16,71.64 C244.98,76.67 235.99,87.67 230.70,94.08 C221.96,104.60 221.49,105.21 221.13,105.79 C223.06,104.07 227.08,99.56 229.48,96.85 C232.26,93.73 235.95,89.60 236.85,88.58" fill="none" stroke="rgb(0, 255, 255)" stroke-width="2.38" stroke-opacity="1.00" stroke-linejoin="round"/>
<path d="M259.48,66.64 C259.48,66.64 262.70,65.43 262.70,65.43 C262.70,65.43 230.77,103.74 230.77,103.74 C230.77,103.74 235.07,99.50 235.07,99.50" fill="none" stroke="rgb(0, 255, 255)" stroke-width="2.38" stroke-opacity="1.00" stroke-linejoin="round"/>
<path d="M265.52,65.02 C265.91,65.01 256.80,77.64 252.11,83.75 C247.25,89.90 238.84,100.53 238.36,101.54 C238.36,101.54 245.78,93.63 245.78,93.63" fill="none" stroke="rgb(0, 255, 255)" stroke-width="2.38" stroke-opacity="1.00" stroke-linejoin="round"/>
<path d="M265.92,69.46 C265.92,69.46 270.15,65.63 270.15,65.63 C270.03,67.44 267.18,71.84 265.45,74.40 C261.29,80.45 256.02,87.45 254.81,89.07 C256.60,87.98 261.13,83.29 263.09,81.08 C265.10,78.84 268.42,75.15 271.11,72.35 C272.30,71.10 274.03,69.36 274.48,69.05 C274.71,68.89 275.02,68.81 275.38,68.82 C275.38,68.82 258.23,91.75 258.23,91.75 C259.91,90.70 273.73,76.93 277.74,73.51 C279.34,72.14 279.96,71.80 280.60,71.88 C280.60,71.88 266.95,90.40 266.95,90.40 C266.95,90.40 281.05,79.26 281.05,79.26 C281.05,79.26 271.33,94.25 271.33,94.25 C272.65,92.99 273.53,92.15 273.96,91.73 C274.38,91.30 274.96,90.71 275.69,89.94" fill="none" stroke="rgb(0, 255, 255)" stroke-width="2.38" stroke-opacity="1.00" stroke-linejoin="round"/>
</g>
</svg>
