<?xml version="1.0" encoding="UTF-8" standalone="no"?>
<!DOCTYPE svg PUBLIC "-//W3C//DTD SVG 1.1//EN" "http://www.w3.org/Graphics/SVG/1.1/DTD/svg11.dtd">
<svg width="128.40" height="181.68" viewBox="0.00 0.00 535.00 757.00" xmlns="http://www.w3.org/2000/svg" xmlns:xlink="http://www.w3.org/1999/xlink">
<g stroke-linecap="round" transform="translate(44.00, 155.00)" id="119-건물">
<path d="M32.23,318.86 C32.23,318.86 31.11,319.13 31.11,319.13 C30.99,317.15 31.07,314.97 31.39,312.55 C31.52,311.64 33.86,297.49 34.23,295.27 C34.23,295.27 -6.65,300.77 -6.65,300.77 C-7.30,301.63 -7.09,314.60 -7.06,314.69 C-6.92,315.10 -6.45,315.95 -5.64,317.25" fill="none" stroke="rgb(229, 0, 16)" stroke-width="2.38" stroke-opacity="1.00" stroke-linejoin="round"/>
<path d="M18.53,303.15 C17.32,303.13 16.49,303.18 16.42,303.15 C14.20,302.21 9.78,302.65 7.37,303.45 C5.06,304.24 2.41,305.91 1.74,307.29 C1.46,307.94 1.27,310.35 1.48,311.61 C1.77,313.18 3.41,316.06 4.67,317.43 C5.82,318.63 9.48,319.62 11.77,319.37 C13.74,319.12 18.24,317.71 19.99,316.57 C21.87,315.31 24.43,312.52 24.85,310.86 C25.25,309.11 24.19,305.41 22.80,304.01 C22.27,303.50 20.02,301.99 19.38,301.85 C18.32,301.63 13.28,302.73 12.12,302.98" fill="none" stroke="rgb(229, 0, 16)" stroke-width="2.38" stroke-opacity="1.00" stroke-linejoin="round"/>
<path d="M13.29,304.76 C13.29,304.76 11.68,304.43 11.68,304.43 C11.68,304.43 11.33,311.93 11.33,311.93 C13.83,311.71 18.26,312.77 18.95,312.95 C19.75,313.18 20.55,313.40 21.35,313.62" fill="none" stroke="rgb(229, 0, 16)" stroke-width="2.38" stroke-opacity="1.00" stroke-linejoin="round"/>
<path d="M7.65,294.28 C7.65,294.28 7.65,294.48 7.65,294.48 C7.65,294.48 7.45,294.69 7.45,294.69 C7.45,294.69 7.05,294.69 7.05,294.69 C7.05,294.69 6.85,295.02 6.85,295.02 C6.85,295.02 10.40,276.06 10.40,276.06 C10.47,276.54 16.94,277.65 21.80,279.47 C23.34,280.05 29.22,282.77 32.07,284.32 C24.99,284.15 20.40,284.73 9.38,286.63 C9.09,286.68 8.92,286.77 8.86,286.91 C8.86,286.91 8.08,299.86 8.08,299.86 C8.08,299.86 8.46,299.12 8.46,299.12" fill="none" stroke="rgb(229, 0, 16)" stroke-width="2.38" stroke-opacity="1.00" stroke-linejoin="round"/>
<path d="M37.07,321.68 C37.07,321.68 36.06,322.08 36.06,322.08 C35.64,321.99 32.21,321.16 29.66,321.42 C27.73,321.63 16.83,323.24 16.35,323.27 C13.20,323.50 5.58,320.84 2.70,320.51 C-0.27,320.19 -5.12,320.72 -9.26,321.29 C-14.61,322.06 -18.01,321.93 -22.79,320.77 C-26.55,319.83 -32.55,318.98 -34.29,319.16 C-35.28,319.83 -35.36,325.15 -35.53,328.18 C-36.02,336.34 -39.46,353.12 -39.57,356.59 C-40.03,375.13 -37.69,378.80 -37.21,379.03 C-34.52,378.50 -23.21,378.47 -14.32,379.75 C-2.84,381.53 31.75,384.30 33.55,384.21 C34.49,384.16 65.24,380.67 66.85,380.29 C66.93,374.28 67.13,362.91 67.90,355.16 C68.75,347.11 70.55,329.69 70.79,328.13 C71.62,322.87 73.09,316.26 72.83,315.87 C65.86,317.25 46.28,319.16 40.50,319.91 C36.49,320.42 32.36,320.79 31.02,320.88" fill="none" stroke="rgb(229, 0, 16)" stroke-width="2.38" stroke-opacity="1.00" stroke-linejoin="round"/>
<path d="M53.18,330.95 C52.37,331.00 51.22,331.31 50.79,331.35 C49.75,331.46 38.02,330.79 32.79,330.15 C30.09,329.94 27.25,330.26 26.33,331.06 C25.25,332.06 25.66,339.24 25.83,342.21 C25.95,344.14 25.92,347.53 25.94,347.62 C26.00,347.91 26.21,348.12 26.59,348.27" fill="none" stroke="rgb(229, 0, 16)" stroke-width="2.38" stroke-opacity="1.00" stroke-linejoin="round"/>
<path d="M41.50,346.26 C41.50,346.26 38.34,346.66 38.34,346.66 C38.34,346.66 53.54,345.78 53.54,345.78 C53.43,345.42 51.96,342.32 51.81,338.78 C51.74,337.16 51.59,333.59 51.58,333.01 C51.57,332.58 51.57,331.70 51.57,330.37" fill="none" stroke="rgb(229, 0, 16)" stroke-width="2.38" stroke-opacity="1.00" stroke-linejoin="round"/>
<path d="M51.97,336.19 C51.87,336.19 51.57,336.19 51.37,336.19 C45.90,336.19 30.68,336.17 29.23,335.26 C29.23,335.26 30.06,335.67 30.06,335.67" fill="none" stroke="rgb(229, 0, 16)" stroke-width="2.38" stroke-opacity="1.00" stroke-linejoin="round"/>
<path d="M41.09,332.56 C41.09,332.56 41.50,332.56 41.50,332.56 C41.69,334.13 41.79,335.69 41.82,338.32 C41.87,341.03 41.97,343.45 42.10,344.67 C42.14,344.98 42.21,345.38 42.30,345.86" fill="none" stroke="rgb(229, 0, 16)" stroke-width="2.38" stroke-opacity="1.00" stroke-linejoin="round"/>
<path d="M-22.97,353.51 C-22.97,353.51 -23.77,353.51 -23.77,353.51 C-23.77,353.51 -0.68,349.65 -0.68,349.65 C-1.37,348.29 -1.87,345.63 -2.13,341.53 C-2.52,336.32 -3.07,335.03 -4.13,334.60 C-8.15,336.74 -10.80,337.90 -13.48,338.71 C-15.84,339.41 -24.21,340.87 -24.91,341.24 C-25.16,341.37 -25.31,341.62 -25.38,342.00 C-25.36,342.61 -24.77,344.90 -24.14,346.49 C-23.84,347.25 -21.03,352.34 -20.24,353.75" fill="none" stroke="rgb(229, 0, 16)" stroke-width="2.38" stroke-opacity="1.00" stroke-linejoin="round"/>
<path d="M-13.70,341.42 C-13.70,341.42 -15.11,342.63 -15.11,342.63 C-15.12,343.99 -15.09,344.92 -15.01,345.42 C-14.90,346.19 -13.48,350.38 -13.31,350.85 C-13.21,351.12 -13.09,351.42 -12.95,351.76" fill="none" stroke="rgb(229, 0, 16)" stroke-width="2.38" stroke-opacity="1.00" stroke-linejoin="round"/>
<path d="M-20.95,346.26 C-20.95,346.26 -22.77,347.27 -22.77,347.27 C-20.83,347.89 -3.92,345.38 -3.36,345.30 C-3.02,345.26 -2.30,345.18 -1.21,345.05" fill="none" stroke="rgb(229, 0, 16)" stroke-width="2.38" stroke-opacity="1.00" stroke-linejoin="round"/>
<path d="M54.39,354.72 C54.39,354.72 53.59,354.52 53.59,354.52 C53.59,354.52 53.51,352.53 53.51,352.53 C51.10,352.06 49.72,351.97 48.19,352.36 C36.98,355.25 35.91,355.77 34.80,356.61 C34.80,356.61 35.19,371.45 35.19,371.45 C36.38,370.47 37.34,369.90 38.56,369.56 C38.98,369.45 41.82,368.74 42.83,368.49" fill="none" stroke="rgb(229, 0, 16)" stroke-width="2.38" stroke-opacity="1.00" stroke-linejoin="round"/>
<path d="M54.79,353.91 C54.79,353.91 54.79,352.30 54.79,352.30 C54.86,352.38 58.25,355.10 58.94,357.52 C59.66,360.25 59.44,367.08 58.33,367.61 C56.83,367.65 35.11,371.71 34.61,371.86 C34.22,371.97 33.83,372.17 33.44,372.45" fill="none" stroke="rgb(229, 0, 16)" stroke-width="2.38" stroke-opacity="1.00" stroke-linejoin="round"/>
<path d="M46.74,353.91 C46.74,353.91 46.13,354.22 46.13,354.22 C46.13,354.22 47.62,367.36 47.62,367.36 C47.62,367.36 47.90,366.95 47.90,366.95" fill="none" stroke="rgb(229, 0, 16)" stroke-width="2.38" stroke-opacity="1.00" stroke-linejoin="round"/>
<path d="M58.82,359.96 C58.82,359.96 59.63,359.29 59.63,359.29 C59.28,359.20 45.56,359.54 41.10,360.73 C39.97,361.03 38.71,361.49 37.17,362.10 C37.17,362.10 36.26,361.57 36.26,361.57" fill="none" stroke="rgb(229, 0, 16)" stroke-width="2.38" stroke-opacity="1.00" stroke-linejoin="round"/>
<path d="M13.70,364.39 C13.39,364.39 12.22,364.39 11.80,364.39 C7.57,364.43 1.48,363.24 -0.14,362.87 C-2.98,362.24 -6.57,362.39 -10.52,363.78 C-11.11,363.98 -15.98,365.71 -16.16,365.94 C-16.16,365.94 -16.14,377.10 -16.14,377.10 C-16.14,377.10 -15.23,375.51 -15.23,375.51" fill="none" stroke="rgb(229, 0, 16)" stroke-width="2.38" stroke-opacity="1.00" stroke-linejoin="round"/>
<path d="M-14.91,369.63 C-14.91,369.63 -16.44,369.63 -16.44,369.63 C-16.46,369.77 -11.73,370.43 -11.35,370.41 C-11.06,370.39 -10.35,370.31 -9.23,370.15" fill="none" stroke="rgb(229, 0, 16)" stroke-width="2.38" stroke-opacity="1.00" stroke-linejoin="round"/>
<path d="M-6.05,363.58 C-7.25,364.80 -7.70,365.39 -7.61,366.02 C-6.95,369.99 -6.66,372.03 -6.61,372.21 C-6.55,372.47 -6.40,372.90 -6.17,373.49" fill="none" stroke="rgb(229, 0, 16)" stroke-width="2.38" stroke-opacity="1.00" stroke-linejoin="round"/>
<path d="M-14.10,375.27 C-14.10,375.27 -15.31,375.67 -15.31,375.67 C-15.11,375.98 -12.51,376.13 -10.07,375.53 C-8.86,375.22 -3.00,373.03 -0.57,372.37 C3.32,371.34 13.47,370.29 17.63,369.65 C17.48,368.09 16.89,365.89 16.65,365.07 C16.49,364.52 16.21,363.46 15.79,361.86" fill="none" stroke="rgb(229, 0, 16)" stroke-width="2.38" stroke-opacity="1.00" stroke-linejoin="round"/>
<path d="M26.59,368.42 C26.18,368.52 25.60,368.78 25.37,368.82 C25.36,368.82 19.86,368.40 16.73,368.64 C14.13,368.87 9.45,369.76 8.98,370.56 C7.98,372.51 8.82,380.79 9.13,381.16 C9.38,381.45 10.12,381.99 11.36,382.78" fill="none" stroke="rgb(229, 0, 16)" stroke-width="2.38" stroke-opacity="1.00" stroke-linejoin="round"/>
<path d="M29.01,367.61 C29.01,367.61 25.99,368.96 25.99,368.96 C25.99,368.96 26.59,381.01 26.59,381.01 C26.59,381.01 26.26,379.98 26.26,379.98" fill="none" stroke="rgb(229, 0, 16)" stroke-width="2.38" stroke-opacity="1.00" stroke-linejoin="round"/>
<path d="M21.75,369.63 C21.75,369.63 20.55,369.80 20.55,369.80 C20.55,369.80 21.12,376.69 21.12,376.69 C22.58,376.97 23.59,377.09 24.15,377.03 C24.72,376.97 25.65,376.66 26.92,376.10" fill="none" stroke="rgb(229, 0, 16)" stroke-width="2.38" stroke-opacity="1.00" stroke-linejoin="round"/>
<path d="M30.62,372.45 C30.62,372.45 28.40,372.45 28.40,372.45 C28.79,372.50 29.18,372.56 29.56,372.61 C30.15,372.69 30.75,372.77 31.34,372.84" fill="none" stroke="rgb(229, 0, 16)" stroke-width="2.38" stroke-opacity="1.00" stroke-linejoin="round"/>
</g>
</svg>
