<?xml version="1.0" encoding="UTF-8" standalone="no"?>
<!DOCTYPE svg PUBLIC "-//W3C//DTD SVG 1.1//EN" "http://www.w3.org/Graphics/SVG/1.1/DTD/svg11.dtd">
<svg width="64.20" height="90.84" viewBox="0.00 0.00 535.00 757.00" xmlns="http://www.w3.org/2000/svg" xmlns:xlink="http://www.w3.org/1999/xlink">
<g stroke-linecap="round" transform="translate(156.00, 267.00)" id="12-우산">
<path d="M87.52,-96.55 C87.30,-98.99 86.35,-103.55 85.85,-105.47 C85.54,-106.72 83.75,-112.19 84.21,-112.76 C86.11,-114.61 87.72,-115.35 89.87,-115.13 C90.73,-115.02 91.21,-114.81 91.73,-114.40 C92.45,-112.29 94.83,-98.69 94.86,-98.62 C94.93,-98.46 95.12,-98.18 95.44,-97.78" fill="none" stroke="rgb(57, 77, 239)" stroke-width="2.98" stroke-opacity="1.00" stroke-linejoin="round"/>
<path d="M93.39,-96.55 C92.43,-96.27 92.18,-96.20 92.15,-96.24 C90.66,-97.04 80.73,-91.32 74.09,-86.08 C68.03,-81.19 52.78,-71.30 51.88,-70.54 C51.07,-69.86 36.38,-56.12 32.10,-51.25 C26.10,-44.60 18.71,-36.96 15.58,-32.19 C13.65,-29.18 9.42,-22.64 8.29,-21.30 C6.91,-19.69 2.66,-15.59 1.39,-13.94 C-1.12,-10.64 -8.14,1.34 -9.44,4.21 C-11.84,9.53 -15.03,20.63 -17.17,25.57 C-17.23,25.74 -17.28,26.06 -17.33,26.51 C-17.13,26.34 -12.50,30.60 -17.65,34.13 C-19.99,33.83 -20.27,26.87 -19.85,24.99 C-19.85,24.99 -17.45,23.96 -17.45,23.96" fill="none" stroke="rgb(57, 77, 239)" stroke-width="2.98" stroke-opacity="1.00" stroke-linejoin="round"/>
<path d="M-13.37,29.33 C-13.29,26.82 -13.11,25.23 -12.69,24.38 C-11.98,23.02 -10.23,22.03 -6.81,20.35 C-1.80,17.91 9.91,14.55 12.68,13.35 C22.78,8.89 31.49,6.01 36.16,5.63 C42.62,5.25 56.41,4.52 63.69,5.25 C66.86,5.58 70.41,6.21 74.08,7.36 C77.32,8.39 80.88,10.76 81.02,10.79 C81.19,10.82 81.91,10.94 83.18,11.13" fill="none" stroke="rgb(57, 77, 239)" stroke-width="2.98" stroke-opacity="1.00" stroke-linejoin="round"/>
<path d="M92.46,-95.93 C91.21,-94.30 90.74,-91.07 90.24,-86.57 C89.69,-82.12 82.57,-44.68 81.64,-36.53 C79.62,-18.69 78.34,2.73 78.98,13.22 C79.05,14.09 79.14,15.36 79.18,15.78 C79.04,15.90 77.39,15.76 76.69,16.75 C75.89,17.97 75.74,20.74 76.68,22.35 C78.53,22.21 79.45,21.76 79.92,20.53 C80.33,19.42 80.64,18.07 80.67,17.24 C80.68,15.71 79.39,14.24 77.59,12.28" fill="none" stroke="rgb(57, 77, 239)" stroke-width="2.98" stroke-opacity="1.00" stroke-linejoin="round"/>
<path d="M81.97,10.82 C81.97,10.82 81.66,11.13 81.66,11.13 C81.67,11.07 81.66,10.53 81.70,10.32 C82.02,8.98 85.13,5.54 88.05,3.47 C94.09,-0.75 105.62,-5.66 109.76,-7.04 C115.88,-9.05 127.68,-9.65 133.89,-9.95 C138.78,-10.22 153.29,-8.81 155.88,-8.53 C163.05,-7.95 176.86,-6.74 181.93,-5.48 C181.93,-5.48 181.93,-4.91 181.93,-4.91" fill="none" stroke="rgb(57, 77, 239)" stroke-width="2.98" stroke-opacity="1.00" stroke-linejoin="round"/>
<path d="M181.93,-5.53 C181.93,-4.38 181.92,-1.17 181.93,-0.59 C182.03,1.86 183.96,6.60 184.28,6.77 C185.11,7.09 186.30,6.84 187.10,6.02 C187.97,5.08 189.20,2.60 189.37,1.45 C189.48,0.43 188.43,-0.94 187.56,-1.69 C187.23,-1.97 186.58,-2.55 185.59,-3.44" fill="none" stroke="rgb(57, 77, 239)" stroke-width="2.98" stroke-opacity="1.00" stroke-linejoin="round"/>
<path d="M102.64,-96.24 C102.96,-96.32 105.46,-95.25 107.56,-93.64 C109.88,-91.85 127.88,-75.76 129.99,-73.51 C131.76,-71.59 143.65,-56.03 147.57,-50.59 C149.04,-48.58 161.29,-33.92 165.39,-28.14 C167.21,-25.58 176.26,-12.04 176.47,-11.54 C176.63,-11.16 176.95,-10.24 177.44,-8.77" fill="none" stroke="rgb(57, 77, 239)" stroke-width="2.98" stroke-opacity="1.00" stroke-linejoin="round"/>
<path d="M98.94,-101.17 C99.54,-101.17 104.70,-101.08 114.76,-99.46 C133.68,-96.18 154.12,-93.77 165.28,-89.08 C168.35,-87.78 181.54,-81.39 185.12,-79.26 C189.75,-76.48 221.85,-51.61 226.39,-48.46 C236.03,-41.97 238.39,-40.25 246.44,-33.73 C256.07,-25.81 263.79,-15.58 264.12,-15.10 C264.12,-15.10 262.65,-15.05 262.65,-15.05" fill="none" stroke="rgb(57, 77, 239)" stroke-width="2.98" stroke-opacity="1.00" stroke-linejoin="round"/>
<path d="M267.71,-12.93 C267.47,-13.40 267.09,-14.17 267.09,-14.32 C267.09,-14.40 267.11,-14.61 267.15,-14.95 C267.15,-14.95 268.57,-16.21 268.57,-16.21 C269.31,-15.57 269.33,-11.24 268.27,-9.92 C267.28,-8.77 264.36,-7.10 263.11,-7.12 C262.17,-7.86 262.18,-10.73 262.85,-12.24 C263.05,-12.69 263.76,-13.38 264.98,-14.46" fill="none" stroke="rgb(57, 77, 239)" stroke-width="2.98" stroke-opacity="1.00" stroke-linejoin="round"/>
<path d="M267.09,-12.63 C266.16,-12.64 265.43,-12.62 265.30,-12.70 C263.38,-13.83 259.69,-14.99 257.26,-15.25 C256.42,-15.34 249.81,-15.75 246.29,-16.34 C244.78,-16.60 223.60,-20.06 220.63,-19.77 C215.77,-19.25 205.66,-15.94 198.48,-12.48 C195.32,-10.89 190.90,-8.65 189.65,-8.00" fill="none" stroke="rgb(57, 77, 239)" stroke-width="2.98" stroke-opacity="1.00" stroke-linejoin="round"/>
<path d="M104.80,-7.07 C103.63,-5.68 103.20,-4.91 103.26,-4.03 C103.40,-1.66 102.32,18.60 102.31,23.36 C102.27,38.18 106.46,66.08 108.56,80.43 C109.27,84.82 110.46,92.13 110.94,95.05 C110.94,95.05 109.92,95.05 109.92,95.05 C109.92,95.05 116.67,93.76 116.67,93.76 C112.40,95.35 109.42,96.77 108.98,98.24 C108.63,99.52 108.94,101.10 109.11,101.75 C109.11,101.75 110.38,101.64 110.38,101.64" fill="none" stroke="rgb(57, 77, 239)" stroke-width="2.98" stroke-opacity="1.00" stroke-linejoin="round"/>
<path d="M113.13,-8.00 C113.03,-1.29 112.72,9.30 112.04,16.00 C111.30,24.43 111.36,29.70 112.02,39.46 C112.38,51.25 115.62,85.62 118.75,96.18 C118.83,96.44 119.02,96.89 119.30,97.52" fill="none" stroke="rgb(57, 77, 239)" stroke-width="2.98" stroke-opacity="1.00" stroke-linejoin="round"/>
</g>
</svg>
