<?xml version="1.0" encoding="UTF-8" standalone="no"?>
<!DOCTYPE svg PUBLIC "-//W3C//DTD SVG 1.1//EN" "http://www.w3.org/Graphics/SVG/1.1/DTD/svg11.dtd">
<svg width="128.40" height="181.68" viewBox="0.00 0.00 535.00 757.00" xmlns="http://www.w3.org/2000/svg" xmlns:xlink="http://www.w3.org/1999/xlink">
<g stroke-linecap="round" transform="translate(44.00, 155.00)" id="120-풀-11">
<path d="M148.91,514.37 C148.91,514.37 148.52,511.92 148.52,511.92 C149.17,513.58 150.57,519.57 151.83,521.88 C152.10,522.37 152.78,522.93 152.89,523.02 C153.28,522.56 155.73,518.21 158.59,515.43 C161.08,513.04 163.61,510.96 164.72,510.16 C164.72,510.16 164.40,510.33 164.40,510.33" fill="none" stroke="rgb(0, 255, 0)" stroke-width="2.81" stroke-opacity="1.00" stroke-linejoin="round"/>
<path d="M153.36,496.75 C152.81,497.44 152.71,497.60 152.73,498.09 C152.73,498.33 153.65,518.46 153.81,522.24 C153.81,522.24 154.85,519.46 154.85,519.46" fill="none" stroke="rgb(0, 255, 0)" stroke-width="2.81" stroke-opacity="1.00" stroke-linejoin="round"/>
</g>
</svg>
