<?xml version="1.0" encoding="UTF-8" standalone="no"?>
<!DOCTYPE svg PUBLIC "-//W3C//DTD SVG 1.1//EN" "http://www.w3.org/Graphics/SVG/1.1/DTD/svg11.dtd">
<svg width="128.40" height="181.68" viewBox="0.00 0.00 535.00 757.00" xmlns="http://www.w3.org/2000/svg" xmlns:xlink="http://www.w3.org/1999/xlink">
<g stroke-linecap="round" transform="translate(44.00, 155.00)" id="120-물웅덩이-4">
<path d="M120.72,425.25 C120.54,425.24 120.28,425.28 120.03,425.25 C116.31,424.82 111.38,424.85 109.44,425.44 C106.92,426.24 92.99,435.76 90.47,436.75 C87.98,437.68 84.11,437.17 81.81,435.90 C79.12,434.37 76.18,431.94 74.48,429.65 C72.61,427.13 70.35,425.25 67.53,424.01 C64.60,422.75 59.13,420.63 57.06,420.11 C54.20,419.42 49.11,419.16 46.84,419.78 C43.60,420.73 31.47,431.35 29.36,432.60 C27.60,433.62 23.75,434.88 20.36,435.69 C17.44,436.36 9.31,437.36 8.94,437.42 C7.18,437.74 4.88,440.79 3.84,443.21 C2.94,445.38 2.17,448.73 2.08,450.63 C1.04,451.71 -7.96,455.49 -8.36,456.15 C-8.87,457.04 -13.14,466.33 -13.47,467.43 C-14.11,469.58 -13.62,471.91 -13.00,472.74 C-12.05,473.91 -8.29,475.69 -5.82,476.25 C-2.82,476.88 2.40,477.34 7.36,477.01 C11.88,476.71 14.92,477.51 17.32,478.97 C18.75,479.85 25.36,484.66 26.49,485.39 C28.30,486.56 32.31,488.24 33.90,488.56 C35.73,488.88 41.57,487.67 43.17,487.53 C46.07,487.40 53.59,486.86 54.77,486.84 C61.33,486.73 86.39,492.73 95.04,493.00 C98.78,493.09 102.34,492.70 103.39,492.04 C104.62,491.19 106.45,488.34 106.66,486.31 C106.83,484.39 105.18,481.18 103.72,479.04 C101.01,475.05 100.31,472.85 100.61,471.27 C101.14,468.91 104.13,465.28 106.99,462.86 C109.10,461.11 114.15,457.59 115.62,456.72 C120.10,454.05 121.86,452.57 123.88,449.01 C124.88,447.20 126.94,441.56 127.27,438.60 C127.61,435.07 126.16,429.91 124.26,427.31 C123.38,426.22 121.40,425.95 118.72,425.69" fill="none" stroke="rgb(255, 255, 0)" stroke-width="2.81" stroke-opacity="1.00" stroke-linejoin="round"/>
<path d="M87.41,443.90 C87.41,443.90 86.52,443.68 86.52,443.68 C86.52,443.68 86.13,444.19 86.13,444.19 C86.41,445.48 86.62,446.38 86.76,446.88 C86.91,447.39 87.18,448.21 87.59,449.36" fill="none" stroke="rgb(255, 255, 0)" stroke-width="2.81" stroke-opacity="1.00" stroke-linejoin="round"/>
<path d="M94.07,441.46 C93.92,441.43 93.79,441.54 93.67,441.81 C92.73,443.97 91.60,449.05 91.42,449.85 C91.37,450.10 91.29,450.34 91.19,450.55" fill="none" stroke="rgb(255, 255, 0)" stroke-width="2.81" stroke-opacity="1.00" stroke-linejoin="round"/>
<path d="M84.30,448.57 C83.68,448.14 83.28,447.89 83.08,447.80 C82.30,447.48 80.02,448.38 79.24,449.43 C78.38,450.66 79.05,453.54 80.49,454.85 C81.90,456.08 85.39,456.73 87.84,456.37 C92.41,455.66 94.51,453.59 94.56,452.54 C94.56,451.63 93.88,450.61 92.97,449.31" fill="none" stroke="rgb(255, 255, 0)" stroke-width="2.81" stroke-opacity="1.00" stroke-linejoin="round"/>
<path d="M104.73,446.35 C104.73,446.35 104.28,446.35 104.28,446.35 C104.43,446.12 105.30,446.23 105.70,446.46 C105.83,446.54 106.10,446.72 106.49,447.02" fill="none" stroke="rgb(255, 255, 0)" stroke-width="2.81" stroke-opacity="1.00" stroke-linejoin="round"/>
<path d="M73.64,453.90 C73.64,453.90 72.86,454.23 72.86,454.23 C72.86,454.23 72.73,454.55 72.73,454.55 C73.38,454.90 73.85,455.13 74.13,455.26 C74.40,455.39 74.88,455.59 75.55,455.86" fill="none" stroke="rgb(255, 255, 0)" stroke-width="2.81" stroke-opacity="1.00" stroke-linejoin="round"/>
<path d="M76.75,459.00 C76.75,459.00 76.19,459.07 76.19,459.07 C76.19,459.07 76.08,459.18 76.08,459.18 C76.16,459.29 76.23,459.37 76.28,459.43 C76.33,459.48 76.44,459.59 76.61,459.76" fill="none" stroke="rgb(255, 255, 0)" stroke-width="2.81" stroke-opacity="1.00" stroke-linejoin="round"/>
<path d="M58.54,449.45 C58.54,449.45 57.96,449.72 57.96,449.72 C58.24,449.81 58.88,449.87 59.13,449.90 C59.33,449.92 59.72,449.96 60.31,450.03" fill="none" stroke="rgb(255, 255, 0)" stroke-width="2.81" stroke-opacity="1.00" stroke-linejoin="round"/>
<path d="M57.65,455.45 C57.65,455.45 57.43,455.45 57.43,455.45 C57.82,455.42 58.11,455.43 58.31,455.48 C58.50,455.53 58.88,455.69 59.43,455.95" fill="none" stroke="rgb(255, 255, 0)" stroke-width="2.81" stroke-opacity="1.00" stroke-linejoin="round"/>
<path d="M43.21,439.24 C42.87,439.56 41.96,443.85 43.29,447.86 C43.36,448.04 43.58,448.56 43.96,449.40" fill="none" stroke="rgb(255, 255, 0)" stroke-width="2.81" stroke-opacity="1.00" stroke-linejoin="round"/>
<path d="M48.77,439.68 C48.77,439.68 47.88,440.02 47.88,440.02 C47.45,441.31 46.78,446.99 46.77,448.24 C46.77,448.47 46.77,448.69 46.77,448.92" fill="none" stroke="rgb(255, 255, 0)" stroke-width="2.81" stroke-opacity="1.00" stroke-linejoin="round"/>
<path d="M43.44,449.45 C43.04,449.25 42.24,448.80 41.94,448.73 C40.37,448.38 37.81,449.12 37.14,450.08 C36.45,451.15 36.66,454.54 37.60,455.68 C38.53,456.72 41.71,457.54 44.49,457.71 C47.42,457.86 50.75,457.59 51.90,456.87 C52.62,456.38 53.51,454.98 53.61,454.09 C53.78,452.24 51.59,448.98 49.94,448.19 C49.46,447.97 48.09,447.88 45.62,447.80" fill="none" stroke="rgb(255, 255, 0)" stroke-width="2.81" stroke-opacity="1.00" stroke-linejoin="round"/>
<path d="M33.66,450.56 C32.79,450.12 31.76,450.16 31.14,451.01 C30.34,452.15 30.07,455.19 30.74,456.38 C30.92,456.69 32.16,458.08 32.88,458.87" fill="none" stroke="rgb(255, 255, 0)" stroke-width="2.81" stroke-opacity="1.00" stroke-linejoin="round"/>
<path d="M60.31,465.22 C58.67,466.41 57.66,468.15 57.02,470.34 C56.73,471.32 56.58,472.32 56.57,472.91 C56.57,472.91 56.89,473.20 56.89,473.20" fill="none" stroke="rgb(255, 255, 0)" stroke-width="2.81" stroke-opacity="1.00" stroke-linejoin="round"/>
<path d="M51.87,467.00 C51.87,467.00 51.76,466.66 51.76,466.66 C51.76,466.66 51.65,466.60 51.65,466.60 C51.66,471.15 51.97,475.04 52.09,475.61 C52.15,475.88 52.27,476.17 52.47,476.45" fill="none" stroke="rgb(255, 255, 0)" stroke-width="2.81" stroke-opacity="1.00" stroke-linejoin="round"/>
<path d="M50.76,475.44 C49.64,475.20 48.36,474.50 47.87,474.32 C46.04,473.66 44.01,474.73 43.76,475.66 C43.51,476.75 45.44,479.33 47.27,480.29 C49.46,481.39 63.76,483.26 64.70,482.62 C66.09,481.45 62.92,477.74 61.18,476.14 C60.65,475.66 58.66,473.92 58.12,473.46" fill="none" stroke="rgb(255, 255, 0)" stroke-width="2.81" stroke-opacity="1.00" stroke-linejoin="round"/>
<path d="M71.42,476.10 C71.23,476.08 71.08,476.08 70.97,476.10 C70.86,476.12 70.64,476.20 70.31,476.33 C70.97,476.62 72.20,477.08 73.42,477.48 C73.71,477.57 74.13,477.70 74.68,477.86" fill="none" stroke="rgb(255, 255, 0)" stroke-width="2.81" stroke-opacity="1.00" stroke-linejoin="round"/>
<path d="M73.19,480.77 C73.08,480.91 73.01,481.02 72.97,481.10 C72.93,481.18 72.88,481.32 72.81,481.54 C72.98,481.65 73.81,481.81 74.58,481.88 C74.76,481.89 74.95,481.89 75.14,481.88" fill="none" stroke="rgb(255, 255, 0)" stroke-width="2.81" stroke-opacity="1.00" stroke-linejoin="round"/>
</g>
</svg>
