<?xml version="1.0" encoding="UTF-8" standalone="no"?>
<!DOCTYPE svg PUBLIC "-//W3C//DTD SVG 1.1//EN" "http://www.w3.org/Graphics/SVG/1.1/DTD/svg11.dtd">
<svg width="128.40" height="181.68" viewBox="0.00 0.00 535.00 757.00" xmlns="http://www.w3.org/2000/svg" xmlns:xlink="http://www.w3.org/1999/xlink">
<g stroke-linecap="round" transform="translate(44.00, 155.00)" id="120-풀-13">
<path d="M-8.41,509.91 C-8.41,509.91 -9.04,509.32 -9.04,509.32 C-9.04,509.32 -4.41,519.06 -4.41,519.06 C-3.92,515.10 8.01,506.87 8.72,506.39 C8.72,506.39 8.36,506.30 8.36,506.30" fill="none" stroke="rgb(0, 255, 0)" stroke-width="2.81" stroke-opacity="1.00" stroke-linejoin="round"/>
<path d="M-2.25,499.08 C-2.18,498.99 -2.11,498.73 -2.04,498.28 C-2.04,498.27 -2.04,498.25 -2.04,498.25 C-3.11,501.88 -3.47,506.47 -3.52,510.06 C-3.47,514.63 -3.37,517.66 -3.31,519.20 C-3.31,519.20 -2.89,516.49 -2.89,516.49" fill="none" stroke="rgb(0, 255, 0)" stroke-width="2.81" stroke-opacity="1.00" stroke-linejoin="round"/>
</g>
</svg>
