<?xml version="1.0" encoding="UTF-8" standalone="no"?>
<!DOCTYPE svg PUBLIC "-//W3C//DTD SVG 1.1//EN" "http://www.w3.org/Graphics/SVG/1.1/DTD/svg11.dtd">
<svg width="128.40" height="181.68" viewBox="0.00 0.00 535.00 757.00" xmlns="http://www.w3.org/2000/svg" xmlns:xlink="http://www.w3.org/1999/xlink">
<g stroke-linecap="round" transform="translate(44.00, 155.00)" id="120-풀-1">
<path d="M432.69,344.78 C432.69,344.78 430.63,344.66 430.63,344.66 C430.63,344.66 430.44,344.39 430.44,344.39 C431.13,344.01 434.05,346.63 435.55,348.94 C436.24,350.01 437.15,351.81 437.39,352.40 C437.39,352.40 445.01,342.41 445.01,342.41 C445.01,342.41 444.53,342.87 444.53,342.87" fill="none" stroke="rgb(0, 255, 0)" stroke-width="2.81" stroke-opacity="1.00" stroke-linejoin="round"/>
<path d="M435.75,341.92 C435.75,341.92 435.56,342.12 435.56,342.12 C435.56,342.12 437.11,352.81 437.11,352.81 C437.11,352.81 437.47,352.61 437.47,352.61" fill="none" stroke="rgb(0, 255, 0)" stroke-width="2.81" stroke-opacity="1.00" stroke-linejoin="round"/>
</g>
</svg>
