<?xml version="1.0" encoding="UTF-8" standalone="no"?>
<!DOCTYPE svg PUBLIC "-//W3C//DTD SVG 1.1//EN" "http://www.w3.org/Graphics/SVG/1.1/DTD/svg11.dtd">
<svg width="128.40" height="181.68" viewBox="0.00 0.00 535.00 757.00" xmlns="http://www.w3.org/2000/svg" xmlns:xlink="http://www.w3.org/1999/xlink">
<g stroke-linecap="round" transform="translate(44.00, 155.00)" id="120-구름-1">
<path d="M243.25,-76.89 C242.89,-77.41 242.53,-77.93 242.17,-78.46 C242.04,-78.64 241.97,-78.75 241.95,-78.79 C241.98,-74.79 241.89,-71.24 241.82,-69.04 C241.81,-65.76 242.23,-62.29 243.19,-60.63 C244.69,-58.14 252.72,-53.43 255.19,-52.86 C257.57,-52.33 262.52,-53.07 262.69,-53.19 C262.76,-53.27 262.38,-49.48 263.34,-46.80 C263.96,-45.16 265.89,-42.50 267.38,-41.30 C269.83,-39.40 277.77,-36.91 280.91,-36.58 C282.89,-36.40 286.70,-36.67 288.52,-37.15 C291.96,-38.11 294.96,-40.60 297.59,-44.02 C297.79,-44.28 298.06,-44.56 298.41,-44.87 C297.98,-42.33 298.20,-36.65 298.84,-34.43 C299.64,-31.79 302.30,-28.48 304.12,-27.58 C307.58,-25.95 314.00,-25.11 317.41,-25.49 C320.32,-25.87 324.46,-27.68 325.74,-28.64 C325.62,-28.01 326.56,-25.87 328.77,-23.99 C331.65,-21.61 337.98,-18.92 342.43,-18.65 C344.10,-18.57 348.45,-19.12 350.72,-19.68 C352.89,-20.24 358.46,-22.26 360.96,-24.09 C362.80,-25.46 365.38,-29.19 365.28,-29.11 C367.91,-28.03 380.97,-23.17 384.55,-22.43 C389.17,-21.53 395.66,-21.83 398.72,-23.52 C401.74,-25.28 404.86,-30.03 405.48,-32.42 C406.46,-36.64 407.03,-38.08 407.24,-38.43 C408.70,-37.91 415.74,-37.32 418.23,-37.45 C420.57,-37.59 424.88,-38.43 427.17,-39.28 C429.62,-40.24 433.81,-43.87 435.13,-47.10 C436.42,-50.45 436.15,-56.31 435.02,-59.14 C434.01,-61.56 430.07,-65.81 427.41,-67.06 C424.89,-68.20 422.25,-68.64 421.26,-68.68 C423.06,-68.10 427.67,-67.68 430.30,-68.14 C432.58,-68.57 437.23,-70.50 439.71,-72.93 C441.63,-74.85 444.16,-80.23 444.33,-80.77 C444.33,-80.77 443.73,-81.09 443.73,-81.09" fill="none" stroke="rgb(255, 0, 255)" stroke-width="2.81" stroke-opacity="1.00" stroke-linejoin="round"/>
</g>
</svg>
