<?xml version="1.0" encoding="UTF-8" standalone="no"?>
<!DOCTYPE svg PUBLIC "-//W3C//DTD SVG 1.1//EN" "http://www.w3.org/Graphics/SVG/1.1/DTD/svg11.dtd">
<svg width="128.40" height="181.68" viewBox="0.00 0.00 535.00 757.00" xmlns="http://www.w3.org/2000/svg" xmlns:xlink="http://www.w3.org/1999/xlink">
<g stroke-linecap="round" transform="translate(44.00, 155.00)" id="120-우산">
<path d="M199.61,83.72 C199.21,83.61 198.59,83.02 198.43,82.41 C198.42,82.37 198.31,79.30 198.41,78.51 C198.51,77.81 199.16,76.68 199.51,76.41 C200.86,75.67 206.80,76.45 207.16,77.98 C207.21,78.31 207.24,78.71 207.24,79.20 C207.22,80.10 207.20,81.00 207.18,81.90" fill="none" stroke="rgb(28, 31, 136)" stroke-width="2.81" stroke-opacity="1.00" stroke-linejoin="round"/>
<path d="M358.69,182.44 C358.74,182.65 358.49,183.34 358.29,183.84 C358.24,183.98 358.30,184.31 358.29,184.44 C358.24,184.01 358.81,177.50 357.92,173.10 C357.25,169.93 349.73,148.56 347.91,145.01 C347.42,144.06 342.88,135.19 342.19,133.88 C340.66,131.02 330.44,119.25 327.84,116.74 C325.80,114.78 310.38,101.82 308.40,100.77 C302.68,98.34 289.13,91.98 282.77,89.97 C275.05,87.55 246.22,82.47 243.65,82.13 C238.15,81.41 210.85,82.05 206.85,82.37 C197.01,83.21 187.45,83.57 182.20,84.61 C169.12,87.25 156.19,91.94 144.68,96.50 C139.80,98.48 136.60,100.02 133.06,102.40 C130.22,104.33 115.19,116.45 113.18,118.93 C112.89,119.30 107.64,127.26 105.44,130.58 C103.32,133.82 101.03,138.82 100.53,141.67 C100.42,142.30 99.65,153.39 99.49,154.96 C99.18,158.04 97.72,165.77 97.66,167.12 C97.56,169.77 100.05,182.18 100.21,183.76 C100.27,184.29 100.34,185.30 100.44,186.79" fill="none" stroke="rgb(28, 31, 136)" stroke-width="2.81" stroke-opacity="1.00" stroke-linejoin="round"/>
<path d="M102.49,187.24 C102.49,187.24 100.49,187.44 100.49,187.44 C100.49,187.13 112.55,183.63 151.04,179.56 C159.18,178.75 173.96,177.29 180.92,177.58 C187.80,177.78 202.02,177.96 207.27,178.43 C219.34,179.57 225.87,179.96 235.74,179.98 C246.79,179.81 275.53,181.14 287.96,181.90 C300.17,182.21 336.20,183.71 342.47,184.40 C347.26,184.90 358.66,185.96 358.73,185.97 C359.14,186.04 359.66,186.20 360.28,186.44" fill="none" stroke="rgb(28, 31, 136)" stroke-width="2.81" stroke-opacity="1.00" stroke-linejoin="round"/>
<path d="M199.21,90.52 C199.21,90.52 198.41,90.52 198.41,90.52 C201.70,90.96 209.67,92.78 211.50,93.48 C213.20,94.14 217.99,97.39 220.73,98.95 C224.13,100.91 226.62,103.03 229.57,106.46 C239.25,117.91 243.97,124.05 246.04,130.47 C248.14,137.23 250.05,141.81 255.23,152.74 C256.97,156.45 259.68,165.38 260.96,173.28 C261.46,176.46 262.23,185.01 261.97,188.15 C261.84,189.76 261.36,191.89 260.78,193.97" fill="none" stroke="rgb(28, 31, 136)" stroke-width="2.81" stroke-opacity="1.00" stroke-linejoin="round"/>
<path d="M196.01,86.12 C196.01,86.12 195.21,86.52 195.21,86.52 C196.67,87.84 204.35,100.97 207.10,108.91 C208.60,113.26 213.36,124.79 214.09,130.18 C215.65,141.87 216.83,175.43 216.63,176.34 C216.53,176.78 216.22,177.81 215.68,179.44" fill="none" stroke="rgb(28, 31, 136)" stroke-width="2.81" stroke-opacity="1.00" stroke-linejoin="round"/>
<path d="M192.42,82.52 C192.47,83.46 192.24,84.22 191.33,85.66 C189.48,88.57 183.55,94.50 182.85,95.26 C180.04,98.37 172.32,114.09 171.07,117.98 C168.97,124.96 164.85,137.37 164.08,143.35 C162.63,155.09 164.53,173.00 164.75,173.78 C164.89,174.25 165.27,175.32 165.90,176.98" fill="none" stroke="rgb(28, 31, 136)" stroke-width="2.81" stroke-opacity="1.00" stroke-linejoin="round"/>
<path d="M181.62,86.52 C180.73,87.28 178.97,88.08 178.33,88.42 C178.00,88.59 170.22,93.26 168.06,94.47 C165.49,96.04 161.46,99.17 158.95,101.88 C153.55,107.73 146.93,115.93 143.55,122.14 C139.82,129.13 133.51,141.79 130.98,147.78 C126.64,158.13 125.43,170.08 125.55,171.53 C125.83,174.74 127.32,177.76 127.84,178.86" fill="none" stroke="rgb(28, 31, 136)" stroke-width="2.81" stroke-opacity="1.00" stroke-linejoin="round"/>
<path d="M220.39,82.92 C219.62,83.49 218.78,84.14 218.79,84.12 C218.81,84.11 218.94,84.73 219.17,85.05 C220.27,86.50 226.11,89.03 229.53,90.82 C231.17,91.67 245.78,96.91 251.00,99.84 C257.84,103.72 268.61,113.13 273.27,118.37 C275.27,120.64 283.46,131.25 289.39,137.99 C295.04,144.51 298.11,149.41 305.54,161.92 C307.41,164.98 312.17,172.68 312.24,172.79 C313.92,175.96 315.09,181.29 315.30,184.85 C315.38,186.23 315.48,188.22 315.52,189.63 C315.52,189.63 315.12,189.64 315.12,189.64" fill="none" stroke="rgb(28, 31, 136)" stroke-width="2.81" stroke-opacity="1.00" stroke-linejoin="round"/>
<path d="M244.37,90.92 C244.37,90.92 243.98,90.72 243.98,90.72 C243.98,90.72 244.03,89.92 244.03,89.92 C244.15,89.67 248.55,88.72 252.14,87.79 C255.43,86.96 261.60,87.30 264.79,88.43 C266.65,89.11 280.28,97.84 284.65,102.01 C290.62,107.82 294.06,111.61 300.19,119.43 C304.93,125.51 309.91,133.71 312.73,139.70 C314.13,142.68 319.87,156.32 321.82,161.94 C325.11,171.71 327.95,195.38 328.03,196.33 C328.12,197.56 328.22,198.80 328.31,200.03" fill="none" stroke="rgb(28, 31, 136)" stroke-width="2.81" stroke-opacity="1.00" stroke-linejoin="round"/>
<path d="M223.99,180.05 C223.99,180.05 222.89,179.25 222.89,179.25 C222.85,180.65 223.63,189.74 223.29,200.28 C222.87,214.51 222.79,239.02 222.79,250.74 C222.79,251.52 222.79,252.30 222.79,253.08" fill="none" stroke="rgb(28, 31, 136)" stroke-width="2.81" stroke-opacity="1.00" stroke-linejoin="round"/>
<path d="M234.38,180.05 C234.38,180.05 233.78,179.75 233.78,179.75 C233.32,180.65 231.57,221.17 231.57,230.08 C231.59,237.43 231.58,255.35 231.58,255.40 C231.63,255.61 231.76,255.94 231.98,256.39" fill="none" stroke="rgb(28, 31, 136)" stroke-width="2.81" stroke-opacity="1.00" stroke-linejoin="round"/>
<path d="M224.39,263.58 C224.39,263.58 222.79,263.18 222.79,263.18 C222.79,263.18 223.19,263.18 223.19,263.18 C223.50,263.49 223.73,268.19 223.59,269.62 C223.37,271.57 222.78,273.09 221.99,273.59 C220.65,274.34 217.88,275.68 217.06,275.94 C215.95,276.25 213.53,275.21 212.22,274.05 C210.94,272.86 207.96,267.65 207.00,266.55 C205.37,266.31 204.28,266.36 203.65,266.87 C203.03,267.40 202.34,268.84 202.30,269.81 C202.29,271.92 204.86,277.02 207.03,279.32 C208.01,280.33 209.77,281.73 210.93,282.43 C212.64,283.42 218.26,284.00 220.55,283.45 C221.07,283.31 223.69,282.33 224.42,281.89 C226.38,280.64 228.28,278.61 229.03,276.78 C230.17,273.92 230.47,268.21 230.19,268.06 C230.13,268.04 230.06,268.02 229.99,267.98" fill="none" stroke="rgb(28, 31, 136)" stroke-width="2.81" stroke-opacity="1.00" stroke-linejoin="round"/>
</g>
</svg>
