<?xml version="1.0" encoding="UTF-8" standalone="no"?>
<!DOCTYPE svg PUBLIC "-//W3C//DTD SVG 1.1//EN" "http://www.w3.org/Graphics/SVG/1.1/DTD/svg11.dtd">
<svg width="128.40" height="181.68" viewBox="0.00 0.00 535.00 757.00" xmlns="http://www.w3.org/2000/svg" xmlns:xlink="http://www.w3.org/1999/xlink">
<g stroke-linecap="round" transform="translate(44.00, 155.00)" id="120-구름-2">
<path d="M118.63,-78.18 C118.28,-78.28 117.60,-78.61 117.33,-79.07 C117.19,-79.32 116.93,-79.95 116.56,-80.97 C112.71,-76.74 110.94,-67.19 111.10,-65.31 C110.45,-66.34 109.61,-66.83 108.20,-66.71 C106.67,-66.56 103.96,-65.74 102.39,-64.90 C100.62,-63.90 97.84,-61.54 97.00,-60.14 C95.60,-57.70 94.59,-51.11 94.74,-48.35 C94.77,-47.80 95.58,-39.63 95.70,-38.47" fill="none" stroke="rgb(255, 0, 255)" stroke-width="2.81" stroke-opacity="1.00" stroke-linejoin="round"/>
<path d="M96.03,-38.47 C96.76,-37.52 97.29,-36.90 97.64,-36.62 C97.99,-36.33 98.63,-35.98 99.56,-35.57" fill="none" stroke="rgb(255, 0, 255)" stroke-width="2.81" stroke-opacity="1.00" stroke-linejoin="round"/>
<path d="M100.87,-35.57 C102.56,-35.03 103.64,-34.68 104.10,-34.52 C105.11,-34.17 110.91,-31.99 114.47,-32.01 C115.84,-32.01 117.66,-32.02 117.95,-32.02 C117.48,-31.82 116.40,-28.85 116.28,-26.75 C116.24,-25.74 117.55,-22.92 119.75,-21.60 C121.90,-20.36 128.04,-19.67 129.98,-20.65 C131.64,-21.52 133.87,-24.64 134.27,-25.73 C134.15,-24.92 135.37,-22.20 137.93,-20.71 C140.54,-19.23 145.38,-18.24 147.32,-18.17 C151.40,-18.05 160.18,-19.56 164.03,-21.49 C167.77,-23.41 174.41,-28.97 176.84,-31.03 C176.97,-30.09 179.92,-27.55 182.06,-26.40 C184.13,-25.32 189.26,-23.65 191.66,-23.25 C193.99,-22.89 199.30,-22.82 201.84,-23.65 C204.58,-24.60 209.44,-30.34 209.62,-30.40 C210.98,-28.98 213.23,-27.27 215.49,-26.25 C217.48,-25.37 223.69,-23.71 226.80,-23.44 C230.09,-23.18 235.10,-23.84 237.32,-24.72 C239.76,-25.72 244.37,-29.11 244.72,-30.13 C244.82,-30.47 244.86,-31.65 244.86,-31.94 C245.43,-30.89 248.90,-28.91 252.48,-28.88 C253.85,-28.89 257.92,-30.50 259.76,-32.63 C261.27,-34.44 262.54,-40.45 262.87,-41.14 C262.96,-41.33 263.09,-41.52 263.26,-41.70" fill="none" stroke="rgb(255, 0, 255)" stroke-width="2.81" stroke-opacity="1.00" stroke-linejoin="round"/>
</g>
</svg>
