<?xml version="1.0" encoding="UTF-8" standalone="no"?>
<!DOCTYPE svg PUBLIC "-//W3C//DTD SVG 1.1//EN" "http://www.w3.org/Graphics/SVG/1.1/DTD/svg11.dtd">
<svg width="128.40" height="181.68" viewBox="0.00 0.00 535.00 757.00" xmlns="http://www.w3.org/2000/svg" xmlns:xlink="http://www.w3.org/1999/xlink">
<g stroke-linecap="round" transform="translate(44.00, 155.00)" id="120-풀-5">
<path d="M346.84,463.39 C346.84,463.39 345.66,463.39 345.66,463.39 C345.65,463.43 350.68,466.72 351.93,468.80 C352.43,469.66 353.70,472.28 354.05,473.02 C355.06,470.13 358.08,466.66 361.69,463.72 C361.69,463.72 361.51,463.62 361.51,463.62" fill="none" stroke="rgb(0, 255, 0)" stroke-width="2.81" stroke-opacity="1.00" stroke-linejoin="round"/>
<path d="M354.84,453.17 C354.73,453.19 354.62,453.19 354.51,453.17 C354.09,453.06 353.53,452.92 353.51,452.98 C353.51,452.98 353.52,474.07 353.52,474.07 C353.52,474.07 353.73,472.95 353.73,472.95" fill="none" stroke="rgb(0, 255, 0)" stroke-width="2.81" stroke-opacity="1.00" stroke-linejoin="round"/>
</g>
</svg>
