<?xml version="1.0" encoding="UTF-8" standalone="no"?>
<!DOCTYPE svg PUBLIC "-//W3C//DTD SVG 1.1//EN" "http://www.w3.org/Graphics/SVG/1.1/DTD/svg11.dtd">
<svg width="128.40" height="181.68" viewBox="0.00 0.00 535.00 757.00" xmlns="http://www.w3.org/2000/svg" xmlns:xlink="http://www.w3.org/1999/xlink">
<g stroke-linecap="round" transform="translate(44.00, 155.00)" id="120-물웅덩이-2">
<path d="M201.88,445.64 C201.67,445.79 201.31,446.08 201.05,446.29 C200.81,446.46 192.70,446.69 191.20,447.73 C190.48,448.27 189.33,450.00 188.15,452.65 C186.76,455.72 184.25,458.94 182.15,460.71 C180.32,462.24 178.29,464.67 177.80,465.89 C177.29,467.28 177.60,470.35 178.50,471.90 C179.46,473.47 182.50,475.93 184.18,476.72 C189.66,479.20 201.55,481.69 205.71,481.32 C206.71,481.22 213.05,479.99 214.15,479.96 C215.67,479.94 229.50,483.80 230.93,483.81 C232.47,483.79 236.76,482.24 239.30,480.77 C241.75,479.35 245.90,476.53 247.57,475.00 C249.95,472.81 253.46,468.44 254.18,466.65 C254.87,464.83 254.05,461.58 252.77,460.22 C251.40,458.84 246.28,457.23 245.85,456.95 C244.76,456.14 243.99,450.24 243.57,449.07 C242.79,446.99 240.03,444.56 237.88,443.74 C236.12,443.09 230.01,441.87 227.68,441.96 C225.53,442.06 220.22,443.28 218.10,443.76 C217.80,443.84 217.30,443.98 216.60,444.18" fill="none" stroke="rgb(255, 255, 0)" stroke-width="2.81" stroke-opacity="1.00" stroke-linejoin="round"/>
<path d="M227.43,458.25 C227.43,458.25 226.46,458.12 226.46,458.12 C226.46,458.12 226.48,457.88 226.48,457.88 C227.23,457.63 228.95,457.62 229.89,458.04 C230.94,458.53 232.87,460.22 233.22,461.01 C233.57,461.88 231.88,464.00 231.76,464.36 C231.90,464.88 232.71,467.30 232.53,467.68 C232.28,468.11 231.27,468.46 230.53,468.38 C226.24,467.81 223.66,464.32 223.65,464.20 C223.64,464.12 223.66,463.92 223.71,463.58" fill="none" stroke="rgb(255, 255, 0)" stroke-width="2.81" stroke-opacity="1.00" stroke-linejoin="round"/>
</g>
</svg>
