<?xml version="1.0" encoding="UTF-8" standalone="no"?>
<!DOCTYPE svg PUBLIC "-//W3C//DTD SVG 1.1//EN" "http://www.w3.org/Graphics/SVG/1.1/DTD/svg11.dtd">
<svg width="128.40" height="181.68" viewBox="0.00 0.00 535.00 757.00" xmlns="http://www.w3.org/2000/svg" xmlns:xlink="http://www.w3.org/1999/xlink">
<g stroke-linecap="round" transform="translate(44.00, 155.00)" id="120-지면">
<path d="M-35.26,339.46 C-31.08,341.00 -27.93,341.80 -24.25,342.09 C-17.67,342.55 -4.46,340.99 -0.86,340.69 C2.13,340.43 17.00,338.14 25.93,337.91 C42.90,337.48 69.81,336.08 79.93,336.36 C85.12,336.42 134.89,335.22 136.57,335.04 C136.89,335.00 137.09,334.93 137.14,334.83" fill="none" stroke="rgb(0, 153, 67)" stroke-width="2.81" stroke-opacity="1.00" stroke-linejoin="round"/>
<path d="M219.68,333.67 C219.22,332.45 218.59,331.52 217.86,331.36 C217.21,331.21 216.08,331.41 215.85,331.58 C216.19,332.42 220.26,333.62 224.75,334.33 C232.97,335.61 245.41,336.81 249.79,336.96 C264.15,337.23 294.25,337.49 308.00,337.18 C323.78,336.52 348.56,335.38 364.80,335.22 C379.57,335.02 401.87,334.20 421.63,334.79 C431.33,334.90 462.00,333.29 474.52,333.60 C476.53,333.65 483.77,334.01 486.84,334.43 C486.84,334.43 485.42,334.44 485.42,334.44" fill="none" stroke="rgb(0, 153, 67)" stroke-width="2.81" stroke-opacity="1.00" stroke-linejoin="round"/>
</g>
</svg>
