<?xml version="1.0" encoding="UTF-8" standalone="no"?>
<!DOCTYPE svg PUBLIC "-//W3C//DTD SVG 1.1//EN" "http://www.w3.org/Graphics/SVG/1.1/DTD/svg11.dtd">
<svg width="128.40" height="181.68" viewBox="0.00 0.00 535.00 757.00" xmlns="http://www.w3.org/2000/svg" xmlns:xlink="http://www.w3.org/1999/xlink">
<g stroke-linecap="round" transform="translate(44.00, 155.00)" id="120-비">
<path d="M347.89,283.57 C347.89,283.57 347.81,283.17 347.81,283.17 C347.81,283.17 347.33,283.23 347.33,283.23 C346.66,283.98 343.92,287.76 340.61,291.92 C338.50,294.56 337.70,297.15 338.12,300.37 C338.65,303.83 340.42,305.88 341.69,306.82 C343.16,307.01 344.58,306.70 345.80,305.68 C347.01,304.63 348.76,301.91 349.44,300.01 C351.13,294.99 349.42,285.39 349.30,284.98 C349.21,284.68 349.00,284.21 348.69,283.57" fill="none" stroke="rgb(0, 160, 232)" stroke-width="2.81" stroke-opacity="1.00" stroke-linejoin="round"/>
<path d="M389.86,288.76 C389.86,288.76 387.88,288.76 387.88,288.76 C386.98,289.32 381.11,302.55 380.97,302.88 C380.44,304.17 380.48,305.02 380.87,305.83 C381.69,306.36 382.80,306.67 383.72,306.38 C384.73,306.02 387.30,304.05 388.36,302.79 C389.42,301.46 391.18,297.97 391.52,296.46 C391.85,294.84 391.44,292.12 390.76,290.87 C390.18,289.85 388.65,288.43 387.48,287.64 C387.26,287.50 386.99,287.34 386.66,287.16" fill="none" stroke="rgb(0, 160, 232)" stroke-width="2.81" stroke-opacity="1.00" stroke-linejoin="round"/>
<path d="M430.23,293.96 C429.44,293.75 425.94,297.71 424.85,299.81 C424.10,301.35 424.87,303.37 426.18,303.83 C427.59,304.27 429.87,304.29 430.73,303.65 C431.66,302.92 432.93,300.10 433.00,298.68 C433.04,297.51 432.23,295.26 431.58,294.69 C431.34,294.48 430.76,294.11 429.83,293.56" fill="none" stroke="rgb(0, 160, 232)" stroke-width="2.81" stroke-opacity="1.00" stroke-linejoin="round"/>
<path d="M464.60,274.77 C464.60,274.77 464.60,274.57 464.60,274.57 C464.60,274.57 464.15,274.01 464.15,274.01 C463.24,275.08 454.44,286.57 453.89,288.60 C453.58,289.86 454.50,293.02 456.44,294.55 C457.46,295.32 460.36,296.12 461.78,296.03 C463.27,295.89 465.84,294.60 466.67,293.50 C469.99,288.78 467.34,278.63 466.76,277.64 C466.52,277.24 465.94,276.42 465.00,275.17" fill="none" stroke="rgb(0, 160, 232)" stroke-width="2.81" stroke-opacity="1.00" stroke-linejoin="round"/>
<path d="M465.80,228.41 C465.60,228.41 465.40,228.41 465.20,228.41 C465.00,228.41 464.80,228.41 464.60,228.41 C464.23,228.89 462.88,232.98 461.62,235.64 C460.31,238.43 457.21,243.56 456.82,245.25 C456.72,245.66 456.70,246.28 456.75,247.10 C457.37,248.01 458.40,248.72 459.63,248.80 C460.95,248.85 463.32,247.80 464.24,246.55 C465.89,244.20 467.10,238.60 467.34,236.19 C467.47,234.74 467.51,231.30 467.26,230.32 C467.14,229.84 466.78,229.20 466.20,228.41" fill="none" stroke="rgb(0, 160, 232)" stroke-width="2.81" stroke-opacity="1.00" stroke-linejoin="round"/>
<path d="M432.23,231.61 C432.23,231.61 431.87,230.10 431.87,230.10 C431.87,230.10 421.24,249.69 421.24,249.69 C422.11,250.48 426.73,250.01 428.23,248.36 C429.92,246.45 431.30,241.36 431.61,239.22 C431.79,237.94 432.31,231.97 432.63,229.61" fill="none" stroke="rgb(0, 160, 232)" stroke-width="2.81" stroke-opacity="1.00" stroke-linejoin="round"/>
<path d="M419.44,214.82 C419.44,214.82 419.24,215.42 419.24,215.42 C418.97,215.58 418.67,215.74 418.54,215.87 C417.55,216.85 414.30,222.69 413.60,224.53 C412.87,226.50 412.74,227.97 413.11,228.94 C414.14,229.55 415.79,229.75 417.34,229.16 C418.64,228.65 420.47,227.35 421.13,226.54 C422.19,225.05 422.21,219.06 421.14,217.19 C420.89,216.77 420.22,215.87 419.13,214.50" fill="none" stroke="rgb(0, 160, 232)" stroke-width="2.81" stroke-opacity="1.00" stroke-linejoin="round"/>
<path d="M391.46,191.24 C391.46,191.24 392.66,190.84 392.66,190.84 C392.39,190.66 390.21,192.76 386.30,196.75 C383.55,199.57 381.45,202.18 381.16,203.71 C380.91,205.23 382.53,207.49 383.91,207.84 C385.25,208.12 388.45,207.15 389.87,205.99 C391.32,204.75 393.08,201.10 392.90,199.54 C392.47,196.16 389.75,191.84 389.41,191.45 C389.16,191.17 388.64,190.70 387.86,190.04" fill="none" stroke="rgb(0, 160, 232)" stroke-width="2.81" stroke-opacity="1.00" stroke-linejoin="round"/>
<path d="M381.07,146.87 C380.63,147.36 380.20,147.85 379.76,148.34 C377.86,150.45 372.81,155.13 371.00,157.52 C368.56,160.79 368.35,162.98 368.63,164.01 C369.86,165.12 373.36,165.47 375.61,164.82 C377.98,164.09 381.58,161.14 382.50,158.99 C383.26,157.07 383.78,150.18 383.36,147.53 C383.28,147.07 383.08,146.27 382.75,145.13" fill="none" stroke="rgb(0, 160, 232)" stroke-width="2.81" stroke-opacity="1.00" stroke-linejoin="round"/>
<path d="M437.42,128.49 C437.42,128.49 438.22,127.69 438.22,127.69 C436.62,132.81 435.24,147.87 436.91,148.42 C437.97,148.60 440.26,147.14 441.45,145.56 C442.77,143.77 444.13,139.56 444.15,136.84 C444.12,134.09 442.70,127.95 441.67,126.61 C441.38,126.23 440.76,125.78 439.82,125.29" fill="none" stroke="rgb(0, 160, 232)" stroke-width="2.81" stroke-opacity="1.00" stroke-linejoin="round"/>
<path d="M468.20,159.66 C468.20,159.66 469.60,158.66 469.60,158.66 C469.60,158.66 469.77,157.66 469.77,157.66 C469.07,157.81 467.26,161.91 466.55,164.74 C466.02,166.98 465.33,172.37 465.82,175.43 C466.02,176.57 467.98,177.25 469.00,176.69 C470.26,175.93 471.99,174.09 472.56,172.66 C474.38,167.76 470.22,158.96 469.78,158.04 C469.52,157.52 469.26,156.99 469.00,156.46" fill="none" stroke="rgb(0, 160, 232)" stroke-width="2.81" stroke-opacity="1.00" stroke-linejoin="round"/>
<path d="M342.70,240.40 C342.70,240.40 342.30,238.43 342.30,238.43 C342.30,238.43 336.08,255.24 336.08,255.24 C336.08,255.24 336.68,256.60 336.68,256.60 C337.92,256.92 338.52,256.95 339.24,256.63 C340.50,256.01 342.31,251.94 342.66,248.85 C342.90,246.32 342.52,239.59 342.44,238.35 C342.41,237.68 342.37,237.01 342.33,236.34" fill="none" stroke="rgb(0, 160, 232)" stroke-width="2.81" stroke-opacity="1.00" stroke-linejoin="round"/>
<path d="M313.92,222.81 C313.92,222.35 313.92,221.88 313.92,221.41 C313.92,221.35 313.92,221.15 313.92,221.21 C313.92,221.21 302.16,235.22 302.16,235.22 C302.34,235.60 303.74,236.39 305.11,236.61 C306.90,236.89 309.89,236.15 311.68,235.09 C312.79,234.40 314.63,231.02 314.70,227.37 C314.71,226.91 314.64,225.82 314.51,224.09 C314.46,223.49 314.39,222.59 314.32,221.40" fill="none" stroke="rgb(0, 160, 232)" stroke-width="2.81" stroke-opacity="1.00" stroke-linejoin="round"/>
<path d="M283.14,210.02 C283.14,210.02 283.54,208.42 283.54,208.42 C283.19,208.57 282.50,209.59 281.66,211.32 C278.66,217.61 277.60,225.81 278.16,227.22 C279.54,227.28 280.33,227.06 281.02,226.26 C282.33,224.70 283.88,221.18 284.22,219.02 C284.52,217.00 284.07,213.11 283.71,210.91 C283.62,210.36 283.46,209.47 283.23,208.25" fill="none" stroke="rgb(0, 160, 232)" stroke-width="2.81" stroke-opacity="1.00" stroke-linejoin="round"/>
<path d="M283.94,249.59 C283.94,249.59 284.14,249.59 284.14,249.59 C284.14,249.59 284.34,249.39 284.34,249.39 C284.34,249.39 284.29,248.86 284.29,248.86 C282.90,248.99 281.93,249.94 281.25,252.09 C280.65,254.01 279.51,261.31 279.68,262.80 C279.89,264.59 280.62,266.03 281.13,266.05 C282.22,265.97 284.10,264.30 284.86,262.77 C286.53,259.26 285.89,250.41 285.59,249.84 C285.36,249.41 284.63,248.34 283.40,246.66" fill="none" stroke="rgb(0, 160, 232)" stroke-width="2.81" stroke-opacity="1.00" stroke-linejoin="round"/>
<path d="M283.94,295.16 C283.94,295.16 283.23,295.47 283.23,295.47 C281.37,298.76 279.95,303.82 279.67,306.88 C279.55,308.34 279.72,310.35 280.01,310.88 C280.54,311.70 283.37,311.97 284.50,311.47 C285.76,310.86 287.54,308.13 287.81,306.22 C288.27,302.51 286.14,297.33 285.61,296.36 C285.61,296.36 283.58,295.55 283.58,295.55" fill="none" stroke="rgb(0, 160, 232)" stroke-width="2.81" stroke-opacity="1.00" stroke-linejoin="round"/>
<path d="M247.97,303.55 C247.97,303.55 247.97,303.75 247.97,303.75 C247.97,303.75 246.88,303.95 246.88,303.95 C246.88,303.95 238.19,315.54 238.19,315.54 C239.38,317.23 240.38,318.03 241.70,318.04 C243.05,318.01 245.14,317.16 246.15,316.06 C249.17,312.68 250.75,303.43 250.66,302.79 C250.62,302.51 250.45,301.94 250.16,301.09" fill="none" stroke="rgb(0, 160, 232)" stroke-width="2.81" stroke-opacity="1.00" stroke-linejoin="round"/>
<path d="M320.72,345.92 C320.72,345.92 319.52,345.92 319.52,345.92 C318.78,350.28 318.72,354.67 318.95,356.96 C319.10,358.33 319.61,359.35 320.70,360.71 C321.57,360.90 323.55,359.66 324.02,357.55 C324.44,355.53 323.43,348.96 322.63,346.91 C322.43,346.40 322.03,345.58 321.44,344.45" fill="none" stroke="rgb(0, 160, 232)" stroke-width="2.81" stroke-opacity="1.00" stroke-linejoin="round"/>
<path d="M296.90,368.43 C296.90,368.43 295.80,368.23 295.80,368.23 C295.80,368.23 294.89,366.74 294.89,366.74 C293.07,367.00 291.53,367.90 290.56,369.64 C288.83,372.77 289.04,376.21 289.31,376.64 C290.08,377.23 292.15,376.66 293.60,375.50 C296.72,372.92 297.54,368.82 297.65,367.71 C297.65,367.71 295.95,366.17 295.95,366.17" fill="none" stroke="rgb(0, 160, 232)" stroke-width="2.81" stroke-opacity="1.00" stroke-linejoin="round"/>
<path d="M252.70,390.13 C249.96,394.37 248.64,402.84 249.27,403.98 C250.43,404.42 252.73,402.89 253.54,401.31 C255.37,397.61 255.79,390.37 255.04,389.51 C254.89,389.34 254.37,388.91 253.49,388.22" fill="none" stroke="rgb(0, 160, 232)" stroke-width="2.81" stroke-opacity="1.00" stroke-linejoin="round"/>
<path d="M326.90,385.40 C327.13,384.93 327.26,384.60 327.29,384.41 C327.32,384.22 327.28,383.89 327.17,383.42 C326.79,383.32 321.80,389.32 319.94,392.05 C319.12,393.28 318.13,395.72 317.95,396.87 C317.78,398.16 318.15,399.44 318.82,400.50 C319.81,401.05 320.92,401.22 321.95,400.75 C323.93,399.82 327.38,395.06 328.22,392.24 C328.60,390.94 328.71,389.34 328.63,388.02 C328.63,388.02 326.10,386.95 326.10,386.95" fill="none" stroke="rgb(0, 160, 232)" stroke-width="2.81" stroke-opacity="1.00" stroke-linejoin="round"/>
<path d="M64.45,505.77 C63.31,506.25 59.67,507.82 58.65,509.92 C57.70,511.96 57.79,522.44 58.50,523.64 C59.82,523.99 63.82,522.08 65.56,520.85 C67.73,519.22 69.16,516.91 68.84,514.97 C68.59,513.62 66.58,509.07 65.94,508.12 C65.68,507.75 65.22,507.25 64.55,506.62" fill="none" stroke="rgb(0, 160, 232)" stroke-width="2.81" stroke-opacity="1.00" stroke-linejoin="round"/>
<path d="M16.30,506.95 C16.30,506.95 16.30,506.56 16.30,506.56 C14.64,508.34 12.16,513.73 12.48,517.10 C12.62,518.25 14.28,519.16 15.37,518.62 C15.90,518.31 17.40,516.39 18.08,515.02 C18.87,513.35 19.45,509.89 19.37,507.66 C19.30,506.23 18.88,503.80 18.45,501.85" fill="none" stroke="rgb(0, 160, 232)" stroke-width="2.81" stroke-opacity="1.00" stroke-linejoin="round"/>
<path d="M65.24,372.77 C65.24,372.77 64.45,373.56 64.45,373.56 C64.45,373.56 60.46,390.15 60.46,390.15 C62.19,389.94 63.90,389.30 64.79,388.21 C66.41,386.22 67.24,381.64 67.21,378.61 C67.20,377.28 67.13,376.33 67.01,375.77 C66.90,375.30 66.60,374.40 66.11,373.07" fill="none" stroke="rgb(0, 160, 232)" stroke-width="2.81" stroke-opacity="1.00" stroke-linejoin="round"/>
<path d="M50.64,346.72 C49.85,346.97 48.07,347.54 47.74,347.97 C47.39,348.44 40.08,361.81 39.42,364.25 C40.04,365.13 41.08,365.53 42.86,365.30 C46.18,364.87 49.86,362.78 50.90,361.05 C51.76,359.41 51.78,353.75 51.32,352.54 C51.14,352.07 50.66,351.27 49.88,350.15" fill="none" stroke="rgb(0, 160, 232)" stroke-width="2.81" stroke-opacity="1.00" stroke-linejoin="round"/>
<path d="M73.92,401.97 C73.14,402.78 72.44,403.82 72.34,404.87 C72.14,407.04 72.96,418.25 73.78,420.52 C75.75,420.15 77.09,419.22 77.70,417.32 C78.73,414.07 78.04,408.30 77.58,406.63 C76.97,404.52 75.37,401.81 74.65,400.69" fill="none" stroke="rgb(0, 160, 232)" stroke-width="2.81" stroke-opacity="1.00" stroke-linejoin="round"/>
<path d="M98.78,367.64 C98.78,367.64 98.00,367.64 98.00,367.64 C97.82,367.54 95.46,374.90 95.31,377.52 C95.29,377.91 95.35,378.29 95.49,378.65 C96.74,379.00 97.51,378.97 98.24,378.39 C99.38,377.44 101.04,373.96 100.76,370.51 C100.71,369.89 100.50,368.91 100.13,367.59 C100.13,367.59 99.02,367.19 99.02,367.19" fill="none" stroke="rgb(0, 160, 232)" stroke-width="2.81" stroke-opacity="1.00" stroke-linejoin="round"/>
<path d="M51.43,306.07 C50.39,306.47 48.86,307.53 47.07,310.26 C44.99,313.44 41.67,317.80 41.00,319.11 C39.95,321.24 39.68,326.48 40.71,328.85 C41.06,329.60 43.45,330.17 45.29,328.75 C46.37,327.89 47.75,325.65 48.14,324.31 C48.86,321.60 49.55,315.74 49.67,312.58 C49.74,310.74 49.83,309.57 50.07,307.44" fill="none" stroke="rgb(0, 160, 232)" stroke-width="2.81" stroke-opacity="1.00" stroke-linejoin="round"/>
<path d="M77.08,312.38 C77.08,312.38 78.66,313.22 78.66,313.22 C78.61,313.66 74.98,316.41 73.42,318.46 C71.67,320.82 69.56,325.61 69.72,327.36 C69.83,328.19 70.68,329.37 71.32,329.59 C72.71,329.98 76.28,327.54 77.63,325.00 C78.88,322.56 80.11,316.24 79.80,315.37 C79.70,315.11 79.36,314.72 78.77,314.20" fill="none" stroke="rgb(0, 160, 232)" stroke-width="2.81" stroke-opacity="1.00" stroke-linejoin="round"/>
<path d="M20.64,295.02 C20.64,295.02 20.64,293.09 20.64,293.09 C20.64,293.09 12.80,313.49 12.80,313.49 C14.39,314.46 15.49,314.81 16.77,314.60 C19.15,314.18 22.75,311.73 23.98,309.58 C25.20,307.32 25.82,301.84 25.36,298.90 C24.93,296.45 23.87,295.09 22.49,293.46" fill="none" stroke="rgb(0, 160, 232)" stroke-width="2.81" stroke-opacity="1.00" stroke-linejoin="round"/>
<path d="M-17.24,291.86 C-18.11,291.84 -19.44,291.95 -20.20,292.24 C-22.14,293.01 -25.07,297.21 -25.96,299.62 C-27.13,302.90 -27.39,307.91 -26.40,309.24 C-25.91,309.83 -24.52,310.46 -23.77,310.42 C-22.12,310.27 -18.84,307.04 -17.96,304.44 C-17.16,301.96 -17.02,295.89 -17.29,293.79 C-17.36,293.32 -17.52,292.36 -17.80,290.91" fill="none" stroke="rgb(0, 160, 232)" stroke-width="2.81" stroke-opacity="1.00" stroke-linejoin="round"/>
<path d="M53.40,280.02 C52.91,279.90 51.98,280.37 51.35,281.26 C49.16,284.46 46.83,292.58 46.91,294.29 C48.23,295.07 49.12,295.24 50.21,294.77 C52.26,293.87 55.16,291.47 55.87,289.62 C56.53,287.77 56.42,283.46 55.16,279.83 C55.16,279.83 54.26,279.27 54.26,279.27" fill="none" stroke="rgb(0, 160, 232)" stroke-width="2.81" stroke-opacity="1.00" stroke-linejoin="round"/>
<path d="M59.71,247.66 C59.78,246.89 59.57,245.83 59.16,245.31 C59.06,245.19 58.90,245.09 58.67,245.03 C57.72,245.39 55.38,249.16 54.78,251.64 C54.16,254.35 54.39,260.37 55.25,261.85 C56.09,263.17 58.34,262.91 59.22,261.58 C60.00,260.35 60.92,255.62 60.85,253.06 C60.80,251.74 60.29,248.07 59.97,247.10 C59.83,246.68 59.56,246.28 59.15,245.89" fill="none" stroke="rgb(0, 160, 232)" stroke-width="2.81" stroke-opacity="1.00" stroke-linejoin="round"/>
<path d="M85.37,229.90 C85.00,229.77 84.63,229.64 84.27,229.51 C83.91,229.38 83.55,229.24 83.20,229.11 C82.50,229.94 82.55,235.05 82.41,239.74 C82.41,243.74 83.71,245.16 84.68,245.61 C86.31,245.45 87.92,243.29 88.05,241.28 C88.23,237.29 85.21,230.52 84.79,230.11 C84.57,229.89 84.03,229.53 83.18,229.03" fill="none" stroke="rgb(0, 160, 232)" stroke-width="2.81" stroke-opacity="1.00" stroke-linejoin="round"/>
<path d="M9.99,255.55 C9.99,255.55 9.99,255.16 9.99,255.16 C9.99,255.16 9.49,255.36 9.49,255.36 C9.14,256.37 8.27,259.90 7.56,263.92 C6.78,268.40 6.60,272.17 7.51,272.98 C8.88,273.08 11.85,271.50 13.15,269.92 C14.53,268.17 15.58,263.74 15.23,261.23 C14.85,258.83 13.10,255.62 12.47,254.96 C12.24,254.72 11.91,254.55 11.46,254.44" fill="none" stroke="rgb(0, 160, 232)" stroke-width="2.81" stroke-opacity="1.00" stroke-linejoin="round"/>
<path d="M-14.48,223.98 C-14.48,223.98 -14.48,223.59 -14.48,223.59 C-14.48,223.59 -14.77,223.59 -14.77,223.59 C-16.38,225.28 -20.65,236.85 -20.88,239.87 C-20.98,241.71 -20.59,243.71 -19.90,244.37 C-19.29,244.89 -17.69,245.08 -16.96,244.74 C-15.53,243.97 -13.72,239.76 -13.41,236.76 C-13.12,233.62 -13.48,229.69 -13.68,228.63 C-13.76,228.20 -13.97,227.22 -14.30,225.70" fill="none" stroke="rgb(0, 160, 232)" stroke-width="2.81" stroke-opacity="1.00" stroke-linejoin="round"/>
<path d="M41.56,203.46 C40.26,204.21 38.64,207.64 37.97,210.58 C37.33,213.46 37.21,219.76 37.66,220.67 C38.83,220.93 42.50,218.85 44.02,217.32 C45.54,215.73 45.70,213.01 44.64,210.31 C43.64,207.80 42.06,204.08 41.73,203.70 C41.53,203.47 41.05,203.11 40.29,202.62" fill="none" stroke="rgb(0, 160, 232)" stroke-width="2.81" stroke-opacity="1.00" stroke-linejoin="round"/>
<path d="M17.49,165.18 C17.49,165.18 14.97,165.00 14.97,165.00 C13.71,166.10 11.49,170.66 10.25,173.84 C9.52,175.75 8.30,182.53 8.21,184.30 C8.10,186.53 8.61,188.29 9.52,189.47 C10.85,189.86 12.17,189.83 13.52,189.22 C15.56,188.28 19.04,184.77 19.45,183.50 C20.49,180.08 20.03,175.20 19.19,171.38 C18.82,169.76 18.53,168.62 18.32,167.95 C18.14,167.41 17.76,166.42 17.18,164.99" fill="none" stroke="rgb(0, 160, 232)" stroke-width="2.81" stroke-opacity="1.00" stroke-linejoin="round"/>
<path d="M66.42,136.76 C66.42,136.76 63.89,135.33 63.89,135.33 C62.21,137.14 56.53,151.89 56.01,154.24 C55.71,155.74 55.70,157.73 56.08,158.65 C56.81,160.30 60.83,162.38 62.54,162.33 C63.40,162.27 64.73,161.47 65.27,160.66 C67.46,157.12 67.30,144.75 66.84,141.71 C66.63,140.37 65.97,137.53 65.52,135.72" fill="none" stroke="rgb(0, 160, 232)" stroke-width="2.81" stroke-opacity="1.00" stroke-linejoin="round"/>
<path d="M-15.27,180.18 C-15.82,180.49 -16.18,180.68 -16.37,180.77 C-16.56,180.85 -16.83,180.93 -17.19,181.02 C-17.47,181.36 -19.45,186.05 -21.76,190.81 C-24.34,196.16 -25.27,198.75 -24.35,200.42 C-23.24,201.05 -21.85,201.39 -20.52,201.16 C-18.11,200.71 -13.26,197.31 -11.91,195.22 C-9.91,191.94 -10.98,185.08 -11.27,184.32 C-11.47,183.81 -12.01,182.64 -12.89,180.82" fill="none" stroke="rgb(0, 160, 232)" stroke-width="2.81" stroke-opacity="1.00" stroke-linejoin="round"/>
<path d="M84.00,84.10 C84.00,84.10 83.25,82.09 83.25,82.09 C83.10,82.26 81.09,86.88 79.65,89.51 C78.23,92.08 76.40,95.74 76.15,98.13 C76.15,98.13 77.12,99.28 77.12,99.28 C79.47,99.42 82.73,98.07 84.68,96.08 C86.08,94.62 87.83,90.86 87.91,89.08 C87.97,86.92 85.85,80.89 85.17,79.80 C85.17,79.80 85.00,79.97 85.00,79.97" fill="none" stroke="rgb(0, 160, 232)" stroke-width="2.81" stroke-opacity="1.00" stroke-linejoin="round"/>
<path d="M32.83,80.58 C32.83,80.58 32.11,80.48 32.11,80.48 C32.11,80.48 32.07,80.39 32.07,80.39 C31.48,84.97 27.07,100.87 27.42,102.57 C27.68,103.70 28.93,105.96 29.59,106.31 C30.37,106.68 32.63,105.75 33.80,104.58 C35.04,103.30 37.10,99.02 37.32,96.37 C37.78,89.58 34.08,83.87 32.34,81.65 C32.34,81.65 30.60,81.44 30.60,81.44" fill="none" stroke="rgb(0, 160, 232)" stroke-width="2.81" stroke-opacity="1.00" stroke-linejoin="round"/>
<path d="M-19.35,97.64 C-19.35,97.64 -21.61,96.96 -21.61,96.96 C-21.61,96.96 -25.57,113.46 -25.57,113.46 C-25.09,113.77 -21.66,112.23 -20.68,110.97 C-19.67,109.57 -18.73,106.23 -18.75,103.96 C-18.78,102.91 -19.44,99.50 -19.97,98.16 C-20.20,97.56 -20.70,96.62 -21.47,95.34" fill="none" stroke="rgb(0, 160, 232)" stroke-width="2.81" stroke-opacity="1.00" stroke-linejoin="round"/>
<path d="M4.91,24.85 C4.91,24.85 4.07,24.02 4.07,24.02 C2.75,25.81 -0.07,34.17 -0.41,35.10 C-0.96,36.60 -2.30,40.13 -2.88,42.35 C-2.00,43.21 -0.10,43.30 2.64,42.48 C4.72,41.84 7.89,39.77 8.56,38.14 C9.61,35.39 7.64,25.28 6.92,23.37 C6.78,23.01 6.50,22.45 6.08,21.70" fill="none" stroke="rgb(0, 160, 232)" stroke-width="2.81" stroke-opacity="1.00" stroke-linejoin="round"/>
<path d="M67.53,42.17 C67.53,42.17 67.53,41.84 67.53,41.84 C66.79,42.04 64.20,48.58 63.49,51.88 C62.97,54.40 62.38,62.25 63.17,63.32 C64.16,64.58 66.80,65.18 68.01,64.49 C69.11,63.81 71.20,61.22 71.52,60.10 C72.35,56.90 71.44,52.85 69.14,46.36 C68.93,45.77 68.58,44.67 68.11,43.07" fill="none" stroke="rgb(0, 160, 232)" stroke-width="2.81" stroke-opacity="1.00" stroke-linejoin="round"/>
<path d="M115.17,13.86 C115.17,13.86 113.76,13.52 113.76,13.52 C112.81,15.63 111.64,20.66 110.66,24.15 C109.56,28.13 109.12,31.88 109.61,33.06 C110.02,33.96 111.70,34.53 112.51,34.08 C113.43,33.52 115.25,30.81 115.83,28.84 C116.46,26.60 116.27,18.77 116.27,18.72 C116.26,18.15 116.30,17.27 116.41,16.08" fill="none" stroke="rgb(0, 160, 232)" stroke-width="2.81" stroke-opacity="1.00" stroke-linejoin="round"/>
<path d="M152.81,28.85 C152.90,29.04 151.59,31.41 151.06,32.38 C147.90,38.23 146.76,44.64 147.16,45.66 C147.79,46.98 151.24,48.08 152.58,47.58 C153.77,47.07 155.26,44.84 155.50,42.90 C155.67,41.44 155.05,34.04 154.54,32.15 C154.40,31.65 154.12,31.01 153.71,30.25" fill="none" stroke="rgb(0, 160, 232)" stroke-width="2.81" stroke-opacity="1.00" stroke-linejoin="round"/>
<path d="M200.78,0.53 C200.78,0.53 200.78,0.20 200.78,0.20 C200.22,0.98 199.85,1.68 199.18,3.33 C194.68,14.12 192.36,18.71 192.59,19.29 C194.53,19.66 197.84,18.35 199.03,16.57 C200.15,14.82 201.96,9.75 202.36,7.23 C202.55,5.91 202.64,2.16 202.44,1.06 C202.35,0.59 202.10,0.08 201.69,-0.46" fill="none" stroke="rgb(0, 160, 232)" stroke-width="2.81" stroke-opacity="1.00" stroke-linejoin="round"/>
<path d="M205.78,49.17 C205.68,49.20 205.57,49.20 205.44,49.17 C205.32,49.13 205.00,49.02 204.49,48.83 C203.56,49.47 201.73,52.96 199.84,56.06 C196.69,61.24 195.28,63.95 195.31,65.64 C195.35,66.55 195.84,67.34 196.53,67.93 C198.21,68.28 201.83,66.40 203.70,63.91 C207.72,58.41 207.92,52.33 207.81,51.22 C207.81,51.22 206.43,52.21 206.43,52.21" fill="none" stroke="rgb(0, 160, 232)" stroke-width="2.81" stroke-opacity="1.00" stroke-linejoin="round"/>
<path d="M260.41,8.19 C253.09,12.87 246.82,25.27 246.63,26.66 C247.16,27.56 251.57,28.44 253.17,28.39 C255.43,28.28 259.33,25.92 260.89,23.56 C262.36,21.23 262.47,16.96 261.44,15.51 C260.71,14.52 259.14,12.78 258.36,12.07 C258.15,11.88 257.71,11.46 257.03,10.81" fill="none" stroke="rgb(0, 160, 232)" stroke-width="2.81" stroke-opacity="1.00" stroke-linejoin="round"/>
<path d="M302.05,44.50 C301.67,43.54 301.40,43.09 301.05,43.00 C300.19,42.87 296.95,46.22 295.36,48.78 C292.97,52.69 292.43,62.36 293.11,63.40 C293.90,64.51 295.93,65.55 296.81,65.49 C297.82,65.37 299.82,63.05 300.76,60.86 C301.76,58.46 303.00,52.64 303.03,50.79 C303.06,48.55 302.36,46.27 301.21,44.34 C301.21,44.34 300.17,43.86 300.17,43.86" fill="none" stroke="rgb(0, 160, 232)" stroke-width="2.81" stroke-opacity="1.00" stroke-linejoin="round"/>
<path d="M338.88,57.81 C338.88,57.81 337.15,56.92 337.15,56.92 C336.73,56.92 335.95,57.76 334.81,59.60 C333.13,62.36 332.24,67.93 332.28,69.89 C332.34,72.22 332.82,74.00 333.63,75.21 C334.71,75.91 335.86,75.92 336.84,75.10 C337.60,74.45 339.19,70.93 339.88,68.48 C340.44,66.40 340.70,59.75 340.35,58.24 C340.25,57.84 339.98,57.18 339.53,56.25" fill="none" stroke="rgb(0, 160, 232)" stroke-width="2.81" stroke-opacity="1.00" stroke-linejoin="round"/>
<path d="M349.63,101.84 C349.63,101.84 348.79,101.67 348.79,101.67 C348.79,101.67 347.33,100.24 347.33,100.24 C346.26,100.36 342.89,103.09 340.85,105.23 C338.75,107.50 336.80,112.05 337.19,113.50 C337.58,114.73 340.44,115.24 342.39,114.52 C344.45,113.72 347.55,110.97 348.29,109.09 C348.62,108.16 348.59,105.64 348.20,104.06 C348.06,103.50 347.72,102.54 347.18,101.15" fill="none" stroke="rgb(0, 160, 232)" stroke-width="2.81" stroke-opacity="1.00" stroke-linejoin="round"/>
<path d="M379.88,30.93 C379.88,30.93 378.87,30.93 378.87,30.93 C378.35,31.54 378.07,32.41 377.88,34.26 C377.54,37.60 376.33,46.11 376.61,46.88 C377.65,47.63 380.27,46.73 381.40,45.07 C384.49,40.29 382.95,33.65 382.49,32.80 C382.35,32.57 382.03,32.09 381.51,31.34" fill="none" stroke="rgb(0, 160, 232)" stroke-width="2.81" stroke-opacity="1.00" stroke-linejoin="round"/>
<path d="M354.34,-3.02 C354.34,-3.02 354.34,-3.45 354.34,-3.45 C354.34,-3.45 353.74,-3.69 353.74,-3.69 C353.02,-3.30 351.85,-0.07 351.47,2.61 C351.10,5.36 351.15,9.93 351.87,12.02 C353.45,11.80 354.28,11.17 354.90,9.41 C356.06,6.11 356.74,0.77 356.18,-0.57 C356.04,-0.91 355.62,-1.62 354.93,-2.69 C354.93,-2.69 353.57,-2.11 353.57,-2.11" fill="none" stroke="rgb(0, 160, 232)" stroke-width="2.81" stroke-opacity="1.00" stroke-linejoin="round"/>
<path d="M395.67,98.14 C395.67,98.14 393.51,97.92 393.51,97.92 C392.82,98.16 391.68,101.02 391.02,103.66 C390.31,106.60 389.77,110.72 390.31,111.78 C391.24,112.25 393.37,111.20 394.30,109.76 C396.48,106.24 396.04,99.96 395.55,98.88 C395.36,98.47 394.91,97.92 394.20,97.22" fill="none" stroke="rgb(0, 160, 232)" stroke-width="2.81" stroke-opacity="1.00" stroke-linejoin="round"/>
<path d="M445.75,60.84 C445.75,60.84 443.77,59.61 443.77,59.61 C443.67,60.09 442.88,64.93 442.39,67.92 C441.70,72.26 441.44,75.96 442.14,77.10 C443.72,76.70 444.60,76.21 445.15,75.22 C446.79,72.17 446.48,63.79 445.83,60.74 C445.83,60.74 444.54,59.69 444.54,59.69" fill="none" stroke="rgb(0, 160, 232)" stroke-width="2.81" stroke-opacity="1.00" stroke-linejoin="round"/>
<path d="M471.97,70.59 C471.97,70.59 471.20,69.58 471.20,69.58 C471.07,69.47 467.38,74.22 465.61,76.35 C464.49,77.70 460.04,83.08 459.90,84.51 C460.57,85.49 463.49,85.73 465.46,85.06 C467.53,84.32 471.23,81.49 472.34,79.72 C473.29,78.14 474.17,72.72 473.25,70.84 C473.03,70.40 472.46,69.80 471.54,69.03" fill="none" stroke="rgb(0, 160, 232)" stroke-width="2.81" stroke-opacity="1.00" stroke-linejoin="round"/>
<path d="M471.97,-9.07 C471.97,-9.07 470.65,-9.94 470.65,-9.94 C469.63,-9.43 467.41,-6.83 465.87,-4.43 C464.20,-1.78 462.32,2.40 462.09,4.51 C461.93,6.29 462.76,8.67 463.35,9.18 C463.95,9.64 466.27,8.88 467.70,6.62 C469.78,3.27 472.25,-4.84 472.90,-8.06 C472.90,-8.06 472.16,-8.13 472.16,-8.13" fill="none" stroke="rgb(0, 160, 232)" stroke-width="2.81" stroke-opacity="1.00" stroke-linejoin="round"/>
<path d="M426.59,9.75 C426.59,9.75 426.43,9.31 426.43,9.31 C426.43,9.31 425.81,9.08 425.81,9.08 C425.81,9.08 424.49,23.91 424.49,23.91 C425.66,24.12 428.81,21.46 430.34,19.15 C431.77,16.92 432.87,12.78 432.78,10.48 C432.67,8.30 431.58,5.78 430.38,5.18 C430.38,5.18 426.91,6.76 426.91,6.76" fill="none" stroke="rgb(0, 160, 232)" stroke-width="2.81" stroke-opacity="1.00" stroke-linejoin="round"/>
<path d="M296.51,492.31 C296.51,492.31 296.51,491.41 296.51,491.41 C295.27,493.90 292.28,497.83 291.26,499.54 C290.23,501.32 290.04,503.64 290.74,504.93 C291.54,506.32 293.66,507.18 294.88,506.54 C295.95,505.93 297.28,503.87 297.53,502.39 C297.64,501.66 297.41,499.19 297.08,497.63 C296.92,496.90 296.12,494.42 295.82,493.52" fill="none" stroke="rgb(0, 160, 232)" stroke-width="2.81" stroke-opacity="1.00" stroke-linejoin="round"/>
<path d="M376.90,519.31 C376.38,519.31 375.74,519.72 374.93,520.76 C374.11,521.85 369.69,527.78 369.91,528.57 C370.35,529.30 372.13,530.01 373.14,529.97 C374.28,529.88 376.73,528.35 377.53,527.19 C378.25,526.09 378.76,523.14 378.25,521.32 C378.17,521.04 378.00,520.63 377.74,520.09" fill="none" stroke="rgb(0, 160, 232)" stroke-width="2.81" stroke-opacity="1.00" stroke-linejoin="round"/>
<path d="M457.59,510.31 C457.32,510.31 456.84,510.31 456.50,510.31 C454.62,510.36 452.00,511.94 450.34,513.85 C448.77,515.70 447.19,518.71 447.28,519.70 C447.85,520.39 450.03,520.49 451.75,519.97 C453.59,519.39 456.42,517.38 457.62,515.63 C458.16,514.80 459.31,511.95 459.34,510.94 C459.36,510.46 459.17,509.69 458.79,508.65" fill="none" stroke="rgb(0, 160, 232)" stroke-width="2.81" stroke-opacity="1.00" stroke-linejoin="round"/>
<path d="M451.29,420.01 C451.29,420.01 450.57,419.71 450.57,419.71 C450.27,420.22 449.68,425.55 449.93,427.85 C450.23,430.30 451.51,431.47 452.18,431.81 C453.12,431.55 453.71,430.26 454.07,427.38 C454.38,424.86 453.87,421.46 453.14,420.31 C453.01,420.12 452.66,419.62 452.08,418.80" fill="none" stroke="rgb(0, 160, 232)" stroke-width="2.81" stroke-opacity="1.00" stroke-linejoin="round"/>
<path d="M396.10,462.31 C395.55,463.95 394.36,472.49 394.33,474.09 C394.32,474.44 394.36,474.91 394.43,475.48 C396.10,474.76 398.36,470.77 398.84,468.80 C399.07,467.79 399.21,465.38 398.99,464.59 C398.88,464.22 398.56,463.39 398.01,462.12" fill="none" stroke="rgb(0, 160, 232)" stroke-width="2.81" stroke-opacity="1.00" stroke-linejoin="round"/>
<path d="M438.39,392.72 C438.39,392.72 438.24,392.27 438.24,392.27 C438.24,392.27 437.88,392.12 437.88,392.12 C437.05,392.85 436.05,396.83 435.72,399.58 C435.33,403.04 435.83,404.34 436.33,404.76 C437.44,404.44 439.05,401.73 439.56,399.12 C439.81,397.78 439.77,394.08 439.46,392.79 C439.35,392.35 439.10,391.97 438.71,391.66" fill="none" stroke="rgb(0, 160, 232)" stroke-width="2.81" stroke-opacity="1.00" stroke-linejoin="round"/>
<path d="M471.39,371.42 C471.36,371.20 471.31,371.05 471.24,370.97 C471.17,370.88 470.99,370.74 470.69,370.55 C469.33,373.44 470.62,378.33 471.21,379.48 C473.04,379.09 473.98,378.38 474.45,376.74 C475.23,373.94 474.87,370.79 473.89,369.90 C473.89,369.90 472.32,370.77 472.32,370.77" fill="none" stroke="rgb(0, 160, 232)" stroke-width="2.81" stroke-opacity="1.00" stroke-linejoin="round"/>
<path d="M421.90,375.62 C421.90,375.62 421.75,375.62 421.75,375.62 C421.75,375.62 421.27,374.79 421.27,374.79 C420.23,379.33 420.70,384.26 421.39,384.95 C422.45,383.92 422.97,383.20 423.20,382.00 C423.67,379.42 423.78,376.40 423.31,374.99 C423.16,374.56 422.79,373.81 422.20,372.75" fill="none" stroke="rgb(0, 160, 232)" stroke-width="2.81" stroke-opacity="1.00" stroke-linejoin="round"/>
<path d="M356.80,356.42 C356.26,356.45 355.49,356.37 355.28,356.50 C354.37,357.07 349.62,361.94 348.21,364.33 C346.51,367.31 346.67,369.40 347.09,370.35 C347.95,370.89 349.04,371.14 350.15,370.85 C352.22,370.28 356.53,366.72 357.78,364.82 C358.69,363.38 358.87,360.96 358.12,358.56 C358.03,358.29 357.90,357.91 357.72,357.41" fill="none" stroke="rgb(0, 160, 232)" stroke-width="2.81" stroke-opacity="1.00" stroke-linejoin="round"/>
<path d="M-21.76,321.72 C-21.76,321.72 -25.24,324.75 -25.24,324.75 C-25.62,324.79 -28.04,326.61 -28.43,331.98 C-27.43,332.70 -26.73,332.83 -25.83,332.25 C-24.13,331.13 -21.64,328.26 -21.15,326.80 C-20.98,326.21 -20.88,324.64 -21.07,323.99 C-21.49,322.64 -22.97,320.15 -23.27,319.44 C-23.38,319.18 -23.44,318.80 -23.45,318.30" fill="none" stroke="rgb(0, 160, 232)" stroke-width="2.81" stroke-opacity="1.00" stroke-linejoin="round"/>
</g>
</svg>
