<?xml version="1.0" encoding="UTF-8" standalone="no"?>
<!DOCTYPE svg PUBLIC "-//W3C//DTD SVG 1.1//EN" "http://www.w3.org/Graphics/SVG/1.1/DTD/svg11.dtd">
<svg width="128.40" height="181.68" viewBox="0.00 0.00 535.00 757.00" xmlns="http://www.w3.org/2000/svg" xmlns:xlink="http://www.w3.org/1999/xlink">
<g stroke-linecap="round" transform="translate(44.00, 155.00)" id="120-가방">
<path d="M139.62,248.82 C139.35,248.81 138.76,248.83 138.64,248.82 C135.13,248.18 131.51,248.85 130.80,249.16 C130.80,249.16 129.85,280.40 129.85,280.40 C131.28,280.71 132.20,280.66 133.40,280.12 C135.65,279.07 137.79,276.69 138.41,274.25 C139.82,268.41 140.81,252.05 140.33,249.59 C140.26,249.20 140.02,248.41 139.62,247.22" fill="none" stroke="rgb(0, 0, 255)" stroke-width="2.81" stroke-opacity="1.00" stroke-linejoin="round"/>
<path d="M131.10,247.75 C130.89,247.75 130.68,247.75 130.49,247.75 C128.75,247.74 100.66,248.93 99.32,249.07 C96.16,249.41 92.40,250.91 90.88,252.41 C89.23,254.11 86.68,258.71 86.14,261.35 C85.98,262.15 85.97,310.81 86.27,310.63 C86.61,310.83 97.20,311.07 97.67,311.12 C97.99,311.15 98.58,311.24 99.41,311.39" fill="none" stroke="rgb(0, 0, 255)" stroke-width="2.81" stroke-opacity="1.00" stroke-linejoin="round"/>
<path d="M116.72,319.11 C116.62,319.15 116.53,319.19 116.45,319.24 C116.38,319.30 116.20,319.43 115.92,319.64 C118.15,319.43 124.46,319.61 125.53,319.61 C128.65,319.62 134.18,318.46 134.91,318.51 C134.91,318.51 134.56,319.38 134.56,319.38" fill="none" stroke="rgb(0, 0, 255)" stroke-width="2.81" stroke-opacity="1.00" stroke-linejoin="round"/>
<path d="M109.53,250.15 C108.97,250.73 108.80,251.13 108.71,251.21 C108.54,251.37 106.04,253.80 105.90,254.76 C105.84,255.28 106.19,258.06 105.09,258.75 C104.09,259.37 101.17,260.93 100.87,261.29 C100.19,262.18 99.91,267.72 99.47,269.64 C99.16,270.98 98.23,272.96 97.65,273.54 C96.78,274.35 94.29,273.76 91.06,271.95 C90.75,271.79 90.50,271.69 90.31,271.65 C90.12,271.77 92.38,277.12 92.37,277.96 C92.26,279.28 88.37,280.87 87.41,281.34 C87.09,281.48 86.92,281.65 86.90,281.83" fill="none" stroke="rgb(0, 0, 255)" stroke-width="2.81" stroke-opacity="1.00" stroke-linejoin="round"/>
<path d="M88.76,285.29 C88.76,285.29 87.70,285.29 87.70,285.29 C88.00,285.28 92.61,286.03 96.26,286.07 C99.11,286.07 102.94,284.45 105.66,282.06 C106.59,281.22 112.79,275.19 114.65,272.53 C114.86,272.22 114.93,272.04 114.86,271.99" fill="none" stroke="rgb(0, 0, 255)" stroke-width="2.81" stroke-opacity="1.00" stroke-linejoin="round"/>
<path d="M200.06,250.15 C200.06,250.15 199.34,249.91 199.34,249.91 C199.34,249.91 201.02,267.45 201.02,267.45 C201.02,267.45 201.12,266.16 201.12,266.16" fill="none" stroke="rgb(0, 0, 255)" stroke-width="2.81" stroke-opacity="1.00" stroke-linejoin="round"/>
<path d="M200.06,250.15 C200.06,250.15 199.26,249.88 199.26,249.88 C200.64,249.90 204.90,249.62 206.62,250.24 C207.48,250.58 208.23,251.28 208.39,251.96 C208.52,252.63 208.36,263.63 208.30,264.93 C208.28,265.44 208.19,266.10 208.05,266.92" fill="none" stroke="rgb(0, 0, 255)" stroke-width="2.81" stroke-opacity="1.00" stroke-linejoin="round"/>
</g>
</svg>
