<?xml version="1.0" encoding="UTF-8" standalone="no"?>
<!DOCTYPE svg PUBLIC "-//W3C//DTD SVG 1.1//EN" "http://www.w3.org/Graphics/SVG/1.1/DTD/svg11.dtd">
<svg width="128.40" height="181.68" viewBox="0.00 0.00 535.00 757.00" xmlns="http://www.w3.org/2000/svg" xmlns:xlink="http://www.w3.org/1999/xlink">
<g stroke-linecap="round" transform="translate(44.00, 155.00)" id="121-구름-4">
<path d="M67.22,46.15 C67.22,46.15 65.64,46.74 65.64,46.74 C65.64,46.74 66.03,46.04 66.03,46.04 C66.58,45.89 71.69,47.69 72.09,47.83 C73.24,48.25 74.50,50.36 74.74,52.94 C74.88,54.54 74.21,56.63 73.51,57.11 C72.69,57.63 70.30,57.98 69.13,57.34 C67.12,56.12 66.88,44.83 66.69,44.64 C66.35,44.33 62.45,43.69 60.11,43.77 C57.38,43.88 51.74,45.00 49.34,45.95 C46.49,47.10 42.80,49.32 41.40,51.03 C40.31,52.46 39.49,60.12 39.94,61.72 C40.55,63.55 43.33,67.21 45.44,68.38 C45.72,68.52 46.02,68.58 46.37,68.53" fill="none" stroke="rgb(255, 0, 255)" stroke-width="2.39" stroke-opacity="1.00" stroke-linejoin="round"/>
<path d="M66.27,49.62 C66.27,49.62 65.64,49.05 65.64,49.05 C65.66,48.80 65.70,48.60 65.76,48.47 C65.98,47.97 67.72,45.73 69.17,44.05 C70.07,43.02 75.14,40.72 78.02,40.51 C78.71,40.46 84.55,40.10 90.89,39.42 C94.69,39.05 100.64,39.89 102.66,41.04 C103.61,41.62 105.57,43.61 106.12,44.52 C107.12,46.28 106.44,49.01 105.89,50.65" fill="none" stroke="rgb(255, 0, 255)" stroke-width="2.39" stroke-opacity="1.00" stroke-linejoin="round"/>
<path d="M105.05,52.14 C104.81,52.66 104.01,53.35 102.63,54.15 C101.03,55.07 98.58,55.35 97.36,54.66 C96.12,53.93 94.24,51.20 94.22,49.97 C94.24,48.86 96.00,46.49 99.59,44.32 C101.04,43.46 105.08,41.74 106.53,41.68 C107.48,41.65 108.43,41.62 109.38,41.60" fill="none" stroke="rgb(255, 0, 255)" stroke-width="2.39" stroke-opacity="1.00" stroke-linejoin="round"/>
<path d="M114.51,41.74 C117.07,42.06 118.74,42.33 121.34,42.84 C124.15,43.40 126.24,44.83 127.35,46.70 C128.33,48.41 128.32,54.33 127.73,55.59 C127.14,56.75 123.52,57.94 122.02,57.32 C121.39,56.41 121.07,55.27 121.36,54.18 C121.70,53.00 123.22,50.87 124.29,50.20 C126.24,49.03 132.46,49.24 134.68,50.17 C135.07,50.34 138.67,53.36 139.05,53.79 C139.50,54.29 140.25,55.32 141.31,56.87" fill="none" stroke="rgb(255, 0, 255)" stroke-width="2.39" stroke-opacity="1.00" stroke-linejoin="round"/>
<path d="M115.45,44.57 C115.23,44.39 115.07,44.26 114.98,44.17 C114.65,43.83 114.43,43.42 114.38,43.35 C113.94,42.89 112.67,42.44 111.08,42.37 C110.55,42.34 109.38,42.34 107.57,42.37" fill="none" stroke="rgb(255, 0, 255)" stroke-width="2.39" stroke-opacity="1.00" stroke-linejoin="round"/>
<path d="M140.67,55.61 C140.67,55.61 140.67,55.76 140.67,55.76 C140.67,55.76 140.07,55.98 140.07,55.98 C140.21,56.16 142.28,57.24 142.31,57.26 C143.39,58.07 144.43,59.95 144.44,61.16 C144.41,62.11 143.66,64.57 143.06,65.22 C141.92,66.42 135.21,69.72 133.89,70.17 C133.14,70.42 127.40,71.70 122.29,72.60 C123.49,72.66 126.31,73.89 127.37,75.19 C128.72,76.95 129.17,81.08 128.41,82.97 C127.62,84.75 124.96,86.09 121.77,86.83 C120.31,87.17 109.85,89.77 109.32,89.88 C106.05,90.49 100.24,89.30 97.45,87.54 C92.26,84.15 92.60,80.45 92.88,79.83 C94.39,80.10 95.46,80.61 96.25,81.65 C97.73,83.63 98.93,88.00 98.60,89.75 C98.27,91.24 95.96,94.21 94.38,95.07 C93.17,95.71 85.84,97.13 83.85,97.10 C82.23,97.04 79.79,96.23 78.78,95.35 C77.73,94.39 71.11,84.45 69.94,82.98 C70.48,85.61 70.51,91.50 69.40,94.99 C68.82,96.69 66.30,98.77 63.39,99.26 C59.31,99.91 53.28,100.13 51.75,99.56 C50.35,98.98 48.08,96.69 46.81,93.45 C45.99,91.32 44.83,86.25 44.39,85.60 C41.00,87.81 37.98,89.52 35.56,90.37 C32.57,91.35 26.72,91.78 23.62,90.81 C22.25,90.33 20.55,89.01 19.97,87.91 C19.39,86.71 19.16,83.82 19.55,82.16 C20.02,80.39 21.91,76.94 23.15,75.68 C24.44,74.42 27.56,72.91 29.63,72.43 C30.45,72.26 36.71,71.40 38.17,71.10 C38.17,71.10 37.90,71.37 37.90,71.37" fill="none" stroke="rgb(255, 0, 255)" stroke-width="2.39" stroke-opacity="1.00" stroke-linejoin="round"/>
</g>
</svg>
