<?xml version="1.0" encoding="UTF-8" standalone="no"?>
<!DOCTYPE svg PUBLIC "-//W3C//DTD SVG 1.1//EN" "http://www.w3.org/Graphics/SVG/1.1/DTD/svg11.dtd">
<svg width="128.40" height="181.68" viewBox="0.00 0.00 535.00 757.00" xmlns="http://www.w3.org/2000/svg" xmlns:xlink="http://www.w3.org/1999/xlink">
<g stroke-linecap="round" transform="translate(44.00, 155.00)" id="121-우산-2">
<path d="M-3.60,250.06 C-3.60,250.06 -5.14,250.44 -5.14,250.44 C-5.14,250.44 -5.42,277.00 -5.42,277.00 C-5.42,277.00 -5.69,277.30 -5.69,277.30 C-5.69,277.30 -5.91,276.58 -5.91,276.58" fill="none" stroke="rgb(0, 153, 67)" stroke-width="2.39" stroke-opacity="1.00" stroke-linejoin="round"/>
<path d="M-2.83,252.75 C-2.83,252.75 -5.33,251.79 -5.33,251.79 C-5.59,251.16 -1.59,249.29 3.97,247.15 C13.91,243.38 25.88,240.32 27.67,239.86 C39.60,236.74 56.97,228.38 65.21,223.41 C69.12,221.03 73.40,217.64 74.62,214.85 C75.60,212.43 75.36,205.93 73.91,203.70 C72.31,201.36 68.02,198.72 62.40,195.93 C58.16,193.91 52.68,191.74 49.06,191.02 C43.87,190.01 34.27,189.91 30.34,190.44 C25.28,191.14 13.44,194.13 5.81,196.66 C-0.99,198.99 -7.43,201.96 -10.77,204.37 C-14.96,207.42 -20.77,214.38 -22.93,219.22 C-23.90,221.44 -25.33,226.20 -25.67,228.34 C-26.04,230.86 -25.69,235.96 -24.45,239.29 C-23.74,241.11 -22.21,243.62 -21.17,244.59 C-19.15,246.38 -12.70,248.39 -8.12,249.27 C-6.09,249.64 -4.19,249.78 -3.37,249.56 C-2.95,249.44 -2.13,249.22 -0.91,248.91" fill="none" stroke="rgb(0, 153, 67)" stroke-width="2.39" stroke-opacity="1.00" stroke-linejoin="round"/>
<path d="M-13.21,211.62 C-13.25,211.09 -13.32,210.73 -13.40,210.55 C-13.49,210.37 -13.71,210.10 -14.08,209.75 C-14.08,209.75 -20.56,236.92 -20.56,236.92 C-20.56,236.92 -19.97,236.91 -19.97,236.91" fill="none" stroke="rgb(0, 153, 67)" stroke-width="2.39" stroke-opacity="1.00" stroke-linejoin="round"/>
<path d="M-18.59,239.30 C-18.59,239.30 -19.55,239.30 -19.55,239.30 C-19.61,239.19 -12.39,227.46 -7.10,219.53 C0.82,208.00 9.32,195.66 9.90,194.84 C9.90,194.84 8.04,197.79 8.04,197.79" fill="none" stroke="rgb(0, 153, 67)" stroke-width="2.39" stroke-opacity="1.00" stroke-linejoin="round"/>
<path d="M5.63,201.24 C5.21,201.69 4.63,202.32 4.60,202.43 C4.60,202.44 4.56,202.64 4.47,203.03" fill="none" stroke="rgb(0, 153, 67)" stroke-width="2.39" stroke-opacity="1.00" stroke-linejoin="round"/>
<path d="M-9.36,237.76 C-9.36,237.76 -9.94,237.57 -9.94,237.57 C-10.31,236.88 -9.40,234.89 -7.25,231.35 C-0.38,220.54 14.45,199.70 18.26,194.57 C18.26,194.57 18.75,194.76 18.75,194.76" fill="none" stroke="rgb(0, 153, 67)" stroke-width="2.39" stroke-opacity="1.00" stroke-linejoin="round"/>
<path d="M24.46,197.40 C23.09,198.18 21.21,201.38 18.69,206.09 C14.82,213.62 6.42,229.92 3.99,233.27 C1.23,237.06 -4.36,245.80 -4.99,246.78 C-4.99,246.78 -4.88,246.48 -4.88,246.48" fill="none" stroke="rgb(0, 153, 67)" stroke-width="2.39" stroke-opacity="1.00" stroke-linejoin="round"/>
<path d="M10.24,229.69 C10.24,229.69 10.24,230.07 10.24,230.07 C11.74,227.02 22.13,213.79 25.05,210.45 C27.23,207.97 32.12,202.96 33.53,201.76 C35.58,200.02 38.98,198.10 42.17,196.42 C42.17,196.42 40.75,197.26 40.75,197.26" fill="none" stroke="rgb(0, 153, 67)" stroke-width="2.39" stroke-opacity="1.00" stroke-linejoin="round"/>
<path d="M44.45,198.17 C44.45,198.17 44.26,197.78 44.26,197.78 C43.58,198.21 40.71,201.58 38.74,203.91 C33.62,210.07 27.83,217.41 22.97,224.33 C17.54,232.53 14.31,238.76 13.76,240.71 C13.72,240.85 13.70,240.93 13.70,240.94" fill="none" stroke="rgb(0, 153, 67)" stroke-width="2.39" stroke-opacity="1.00" stroke-linejoin="round"/>
<path d="M34.07,232.76 C34.07,232.76 32.73,233.53 32.73,233.53 C32.87,233.35 59.28,206.06 65.36,200.80 C65.39,200.78 65.48,200.70 65.45,200.73 C65.45,200.73 63.75,202.31 63.75,202.31" fill="none" stroke="rgb(0, 153, 67)" stroke-width="2.39" stroke-opacity="1.00" stroke-linejoin="round"/>
</g>
</svg>
