<?xml version="1.0" encoding="UTF-8" standalone="no"?>
<!DOCTYPE svg PUBLIC "-//W3C//DTD SVG 1.1//EN" "http://www.w3.org/Graphics/SVG/1.1/DTD/svg11.dtd">
<svg width="128.40" height="181.68" viewBox="0.00 0.00 535.00 757.00" xmlns="http://www.w3.org/2000/svg" xmlns:xlink="http://www.w3.org/1999/xlink">
<g stroke-linecap="round" transform="translate(44.00, 155.00)" id="121-번개-1">
<path d="M329.86,179.47 C329.86,179.47 329.89,178.22 329.89,178.22 C326.70,179.89 314.06,182.71 312.51,183.31 C310.36,184.20 309.37,184.92 308.81,186.07 C307.24,189.44 297.83,199.62 290.70,206.19 C287.46,209.21 276.00,220.85 275.03,221.96 C291.08,212.15 302.07,209.94 302.36,210.15 C302.33,210.44 297.78,220.69 293.91,231.00 C292.47,234.85 289.91,239.27 289.95,239.23 C291.55,237.92 304.48,222.24 306.66,219.74 C311.37,214.45 318.44,206.42 321.69,200.90 C321.69,200.90 290.69,212.46 290.69,212.46 C293.35,209.78 321.33,187.96 329.32,179.91 C329.99,179.23 330.67,178.55 331.34,177.87 C331.34,177.87 330.85,178.97 330.85,178.97" fill="none" stroke="rgb(0, 160, 232)" stroke-width="2.39" stroke-opacity="1.00" stroke-linejoin="round"/>
</g>
</svg>
