<?xml version="1.0" encoding="UTF-8" standalone="no"?>
<!DOCTYPE svg PUBLIC "-//W3C//DTD SVG 1.1//EN" "http://www.w3.org/Graphics/SVG/1.1/DTD/svg11.dtd">
<svg width="128.40" height="181.68" viewBox="0.00 0.00 535.00 757.00" xmlns="http://www.w3.org/2000/svg" xmlns:xlink="http://www.w3.org/1999/xlink">
<g stroke-linecap="round" transform="translate(44.00, 155.00)" id="121-번개-3">
<path d="M280.00,53.52 C280.00,53.27 280.00,53.02 280.00,52.77 C280.00,52.42 280.00,52.07 280.00,51.72 C276.93,54.82 267.12,61.06 260.74,66.32 C257.47,69.05 244.77,82.69 243.30,85.04 C243.84,84.96 262.81,79.66 265.45,80.02 C265.57,80.04 265.74,80.09 265.97,80.18 C265.77,83.15 248.91,100.07 248.47,100.60 C250.45,100.98 277.48,81.36 278.47,79.99 C278.46,79.91 262.03,79.35 259.22,79.46 C257.42,79.53 255.62,79.66 254.65,79.78 C254.65,79.78 280.17,51.49 280.17,51.49 C280.17,51.49 278.43,52.90 278.43,52.90" fill="none" stroke="rgb(0, 160, 232)" stroke-width="2.39" stroke-opacity="1.00" stroke-linejoin="round"/>
</g>
</svg>
