<?xml version="1.0" encoding="UTF-8" standalone="no"?>
<!DOCTYPE svg PUBLIC "-//W3C//DTD SVG 1.1//EN" "http://www.w3.org/Graphics/SVG/1.1/DTD/svg11.dtd">
<svg width="128.40" height="181.68" viewBox="0.00 0.00 535.00 757.00" xmlns="http://www.w3.org/2000/svg" xmlns:xlink="http://www.w3.org/1999/xlink">
<g stroke-linecap="round" transform="translate(44.00, 155.00)" id="121-사람-1">
<path d="M156.30,265.05 C156.30,265.05 152.76,264.73 152.76,264.73 C152.76,264.73 151.89,266.46 151.89,266.46 C154.73,265.65 154.73,259.23 154.51,257.95 C154.51,257.95 153.64,257.05 153.64,257.05 C153.64,257.05 149.27,258.83 149.27,258.83 C151.95,256.78 151.13,252.31 150.86,251.47 C149.20,250.81 147.58,252.24 146.60,253.14 C146.60,253.14 144.99,250.42 144.99,250.42 C143.75,250.32 143.07,250.45 142.64,251.17 C141.32,253.32 141.11,255.38 141.22,255.50 C141.22,255.50 140.57,253.09 140.57,253.09 C137.61,254.98 138.01,260.21 138.19,260.65 C138.64,260.23 136.89,258.45 135.12,257.98 C133.97,257.71 131.70,257.84 130.82,258.32 C129.92,258.84 128.80,260.66 128.56,261.87 C128.36,263.16 128.96,265.16 129.85,265.93 C130.54,266.48 133.24,267.43 134.57,267.66 C135.04,267.74 136.13,267.90 137.85,268.13" fill="none" stroke="rgb(0, 255, 0)" stroke-width="2.39" stroke-opacity="1.00" stroke-linejoin="round"/>
<path d="M139.01,268.51 C138.90,268.37 138.56,268.17 138.24,268.13 C138.12,268.11 137.87,268.11 137.51,268.13 C139.31,268.11 146.42,267.06 148.07,267.01 C149.85,266.95 152.45,267.12 153.90,267.32 C153.90,267.32 152.37,268.01 152.37,268.01" fill="none" stroke="rgb(0, 255, 0)" stroke-width="2.39" stroke-opacity="1.00" stroke-linejoin="round"/>
<path d="M154.38,268.13 C154.38,268.13 153.23,268.13 153.23,268.13 C152.91,268.10 157.54,283.80 159.20,290.04 C160.36,294.64 161.48,308.31 162.07,316.08 C162.07,316.08 162.32,314.93 162.32,314.93 C165.21,313.74 179.43,312.41 185.39,312.51 C197.66,312.87 208.73,311.90 208.94,311.94 C208.94,311.94 207.76,288.31 207.76,288.31 C207.43,288.17 202.72,289.52 199.30,290.52 C196.76,291.20 191.23,291.59 188.69,290.79 C185.11,289.62 179.21,286.82 177.43,284.68 C175.85,282.69 175.11,277.59 175.14,274.23 C175.19,270.21 175.47,266.45 176.01,262.48 C176.46,259.28 178.43,253.32 180.44,250.43 C182.53,247.53 187.66,243.37 191.75,241.44 C195.43,239.75 206.43,237.25 211.78,237.67 C212.31,237.71 232.19,239.60 236.62,240.44 C240.18,241.15 256.95,248.83 258.52,250.01 C260.42,251.47 263.47,256.46 264.84,259.70 C266.24,263.12 267.35,268.33 266.55,271.39 C265.76,274.25 262.21,279.98 260.36,281.35 C258.84,282.44 250.30,286.25 248.74,286.83 C246.12,287.78 242.73,287.86 237.82,287.11 C236.86,286.96 236.50,287.07 235.98,287.39 C235.18,292.69 237.17,316.25 237.57,316.78 C242.65,314.72 258.25,312.76 263.23,312.74 C269.86,312.91 286.18,313.02 286.33,313.05 C286.33,313.05 287.65,333.61 287.65,333.61 C284.39,332.62 270.06,333.58 265.75,333.63 C253.13,333.74 240.56,330.81 239.11,330.06 C239.18,340.54 238.51,356.83 238.80,362.37 C238.86,363.49 239.22,368.08 239.33,369.46 C238.85,369.60 221.78,372.58 216.12,372.51 C206.27,372.37 201.94,372.82 201.14,372.22 C201.21,370.34 202.46,357.25 202.65,347.25 C202.65,336.72 202.93,326.60 202.37,323.17 C202.19,322.07 201.74,321.32 201.14,320.83 C200.84,320.76 181.50,322.59 180.44,322.69 C177.15,323.01 160.35,325.57 154.17,326.05 C144.53,326.75 142.95,326.39 142.15,325.93 C141.88,324.45 142.75,318.19 143.02,314.62 C143.36,309.69 141.86,293.14 141.09,285.70 C140.01,277.09 138.22,270.07 138.19,267.84 C138.18,267.49 138.20,266.95 138.24,266.20" fill="none" stroke="rgb(0, 255, 0)" stroke-width="2.39" stroke-opacity="1.00" stroke-linejoin="round"/>
<path d="M227.80,372.29 C227.80,372.29 227.22,372.48 227.22,372.48 C226.94,373.14 227.35,376.66 227.63,378.99 C228.03,382.99 228.23,392.62 228.53,393.05 C228.53,393.05 246.89,391.76 246.89,391.76 C247.43,391.10 247.33,390.33 246.25,387.70 C243.95,382.07 240.75,372.10 240.73,372.05 C240.69,371.97 240.60,371.92 240.48,371.91" fill="none" stroke="rgb(0, 255, 0)" stroke-width="2.39" stroke-opacity="1.00" stroke-linejoin="round"/>
<path d="M244.33,391.13 C244.33,391.13 244.27,390.40 244.27,390.40 C242.25,388.37 233.20,388.22 230.58,389.04 C228.43,389.79 225.62,393.78 225.25,396.44 C225.13,397.54 225.25,399.74 225.50,400.43 C225.84,401.23 227.16,402.19 228.29,402.33 C230.45,402.57 235.35,401.76 237.41,401.15 C239.83,400.39 243.99,397.43 244.83,395.73 C245.43,394.38 245.38,391.51 244.85,390.59 C244.62,390.22 242.53,388.39 241.25,387.28" fill="none" stroke="rgb(0, 255, 0)" stroke-width="2.39" stroke-opacity="1.00" stroke-linejoin="round"/>
<path d="M212.42,373.06 C212.42,373.14 212.35,373.20 212.23,373.25 C212.11,373.31 211.77,373.42 211.20,373.59 C210.86,374.46 212.41,378.73 213.21,381.70 C214.80,387.69 215.21,397.47 214.95,397.65 C214.95,397.65 202.85,401.29 202.85,401.29 C202.04,398.37 202.57,391.00 202.67,389.13 C202.76,387.45 203.14,375.09 203.17,374.16 C203.17,374.16 203.58,375.37 203.58,375.37" fill="none" stroke="rgb(0, 255, 0)" stroke-width="2.39" stroke-opacity="1.00" stroke-linejoin="round"/>
<path d="M205.12,395.74 C204.83,395.74 204.53,395.74 204.24,395.74 C204.05,395.74 203.86,395.74 203.66,395.74 C205.39,395.00 208.30,394.52 209.87,395.01 C211.37,395.54 215.71,400.04 215.77,402.04 C215.75,403.96 213.46,406.32 211.26,406.69 C204.45,407.65 200.36,402.87 199.57,401.76 C199.57,401.76 201.28,396.89 201.28,396.89" fill="none" stroke="rgb(0, 255, 0)" stroke-width="2.39" stroke-opacity="1.00" stroke-linejoin="round"/>
<path d="M284.30,311.56 C283.84,311.57 283.52,311.57 283.34,311.56 C283.16,311.55 282.87,311.53 282.46,311.48 C283.14,310.72 288.13,306.74 289.47,306.34 C291.82,305.74 292.31,312.15 291.64,313.35 C291.64,313.35 290.38,313.86 290.38,313.86 C290.38,313.86 295.23,313.79 295.23,313.79 C295.23,313.79 295.60,315.15 295.60,315.15 C295.60,315.15 292.66,317.86 292.66,317.86 C292.66,317.86 296.78,319.92 296.78,319.92 C296.58,321.72 292.54,322.56 291.73,322.62 C291.80,322.39 295.28,322.67 297.12,323.91 C297.89,324.45 298.23,326.55 297.13,327.37 C296.16,328.09 294.32,328.83 293.73,328.86 C293.99,329.00 293.05,331.53 290.97,331.58 C289.03,331.62 287.78,331.54 287.21,331.32 C286.71,331.12 286.13,330.56 285.46,329.63" fill="none" stroke="rgb(0, 255, 0)" stroke-width="2.39" stroke-opacity="1.00" stroke-linejoin="round"/>
<path d="M205.89,249.67 C205.70,249.48 205.50,249.29 205.31,249.10 C205.12,248.91 204.93,248.71 204.74,248.52 C204.74,248.52 213.37,254.19 213.37,254.19 C213.37,254.19 213.19,253.90 213.19,253.90" fill="none" stroke="rgb(0, 255, 0)" stroke-width="2.39" stroke-opacity="1.00" stroke-linejoin="round"/>
<path d="M200.89,259.67 C200.49,259.68 200.13,259.68 199.80,259.67 C197.99,259.65 196.99,259.84 196.42,260.56 C194.82,262.63 194.14,265.45 194.05,266.54 C195.60,267.51 196.68,267.78 198.21,267.43 C200.95,266.78 204.19,264.68 204.80,263.10 C205.11,262.21 204.89,260.72 204.35,260.18 C203.91,259.79 202.54,259.10 202.16,259.11 C201.75,259.13 200.42,259.55 197.96,260.38" fill="none" stroke="rgb(0, 255, 0)" stroke-width="2.39" stroke-opacity="1.00" stroke-linejoin="round"/>
<path d="M199.74,263.51 C199.74,263.51 198.20,263.90 198.20,263.90 C198.20,263.90 200.12,262.74 200.12,262.74 C200.12,262.74 200.53,262.79 200.53,262.79" fill="none" stroke="rgb(0, 255, 0)" stroke-width="2.39" stroke-opacity="1.00" stroke-linejoin="round"/>
<path d="M237.41,248.52 C237.22,248.52 237.02,248.52 236.83,248.52 C236.64,248.52 236.45,248.52 236.26,248.52 C236.26,248.52 227.91,257.13 227.91,257.13 C227.91,257.13 228.95,256.98 228.95,256.98" fill="none" stroke="rgb(0, 255, 0)" stroke-width="2.39" stroke-opacity="1.00" stroke-linejoin="round"/>
<path d="M239.33,256.59 C239.33,256.59 238.80,255.50 238.80,255.50 C237.94,255.35 235.70,257.20 235.13,258.60 C234.51,260.23 236.25,263.36 237.52,263.93 C238.71,264.43 240.93,264.48 242.40,264.04 C243.05,263.83 244.37,262.59 244.66,262.08 C245.04,261.34 244.98,259.85 244.53,259.02 C243.39,257.16 239.60,255.92 238.51,256.31 C238.04,256.48 237.29,257.08 236.26,258.13" fill="none" stroke="rgb(0, 255, 0)" stroke-width="2.39" stroke-opacity="1.00" stroke-linejoin="round"/>
<path d="M239.71,260.82 C239.71,260.82 238.56,260.82 238.56,260.82 C238.56,260.82 238.64,262.17 238.64,262.17 C238.64,262.17 239.67,260.83 239.67,260.83 C239.67,260.83 239.33,260.44 239.33,260.44" fill="none" stroke="rgb(0, 255, 0)" stroke-width="2.39" stroke-opacity="1.00" stroke-linejoin="round"/>
<path d="M219.73,265.05 C219.24,265.08 218.92,265.08 218.77,265.05 C218.62,265.02 218.42,264.91 218.19,264.72 C218.19,264.72 213.65,275.00 213.65,275.00 C213.65,275.00 224.74,271.20 224.74,271.20 C224.88,270.19 222.07,264.69 221.92,264.49 C221.66,264.12 221.31,263.93 220.88,263.90" fill="none" stroke="rgb(0, 255, 0)" stroke-width="2.39" stroke-opacity="1.00" stroke-linejoin="round"/>
<path d="M238.18,274.28 C237.20,274.06 233.06,275.60 228.81,277.55 C226.10,278.82 224.75,279.04 219.14,279.34 C217.87,279.39 214.34,279.70 213.74,279.66 C212.25,279.53 210.40,278.94 209.94,278.57 C209.94,278.57 223.45,288.22 223.45,288.22 C224.27,287.68 229.29,282.88 230.77,281.21 C231.31,280.61 235.05,276.15 235.32,274.80 C235.32,274.80 235.10,274.28 235.10,274.28" fill="none" stroke="rgb(0, 255, 0)" stroke-width="2.39" stroke-opacity="1.00" stroke-linejoin="round"/>
<path d="M220.50,281.96 C220.50,281.96 220.11,282.16 220.11,282.16 C220.11,282.16 220.59,285.38 220.59,285.38 C220.59,285.38 221.54,286.15 221.54,286.15" fill="none" stroke="rgb(0, 255, 0)" stroke-width="2.39" stroke-opacity="1.00" stroke-linejoin="round"/>
<path d="M227.41,278.89 C226.98,279.29 226.21,280.23 226.26,280.91 C226.29,281.29 226.55,282.16 227.04,283.51 C227.04,283.51 227.37,283.58 227.37,283.58" fill="none" stroke="rgb(0, 255, 0)" stroke-width="2.39" stroke-opacity="1.00" stroke-linejoin="round"/>
<path d="M219.73,283.50 C219.73,283.50 218.73,284.27 218.73,284.27 C219.98,284.20 227.69,282.03 228.70,281.98 C228.95,281.98 229.55,281.97 230.49,281.96" fill="none" stroke="rgb(0, 255, 0)" stroke-width="2.39" stroke-opacity="1.00" stroke-linejoin="round"/>
</g>
</svg>
