<?xml version="1.0" encoding="UTF-8" standalone="no"?>
<!DOCTYPE svg PUBLIC "-//W3C//DTD SVG 1.1//EN" "http://www.w3.org/Graphics/SVG/1.1/DTD/svg11.dtd">
<svg width="128.40" height="181.68" viewBox="0.00 0.00 535.00 757.00" xmlns="http://www.w3.org/2000/svg" xmlns:xlink="http://www.w3.org/1999/xlink">
<g stroke-linecap="round" transform="translate(44.00, 155.00)" id="121-번개-2">
<path d="M425.56,51.01 C425.56,51.01 423.85,50.64 423.85,50.64 C423.85,50.64 424.65,49.54 424.65,49.54 C424.42,50.67 421.61,52.88 418.41,54.97 C412.07,59.08 406.36,62.21 394.65,69.78 C389.42,73.22 376.99,83.95 377.10,85.00 C377.39,85.48 382.07,87.32 383.73,88.32 C386.73,90.17 397.16,98.60 397.08,98.71 C395.03,99.35 389.48,105.64 381.95,115.43 C378.10,120.41 375.07,124.16 373.66,125.63 C376.28,123.66 384.41,118.61 391.64,114.56 C394.48,113.02 419.15,101.40 419.55,100.68 C419.55,100.68 389.60,86.45 389.60,86.45 C395.05,84.35 411.15,77.29 411.81,76.98 C411.92,76.92 416.35,63.68 419.32,58.59 C420.29,56.93 423.68,51.67 424.25,50.14 C424.28,50.06 424.30,50.04 424.31,50.07" fill="none" stroke="rgb(0, 160, 232)" stroke-width="2.39" stroke-opacity="1.00" stroke-linejoin="round"/>
</g>
</svg>
