<?xml version="1.0" encoding="UTF-8" standalone="no"?>
<!DOCTYPE svg PUBLIC "-//W3C//DTD SVG 1.1//EN" "http://www.w3.org/Graphics/SVG/1.1/DTD/svg11.dtd">
<svg width="128.40" height="181.68" viewBox="0.00 0.00 535.00 757.00" xmlns="http://www.w3.org/2000/svg" xmlns:xlink="http://www.w3.org/1999/xlink">
<g stroke-linecap="round" transform="translate(44.00, 155.00)" id="121-비">
<path d="M135.93,307.72 C135.93,307.72 133.17,308.56 133.17,308.56 C133.05,310.36 134.85,326.66 135.54,337.52 C136.06,347.21 136.21,356.91 136.29,363.21 C136.30,366.31 136.32,370.29 136.32,371.18" fill="none" stroke="rgb(229, 0, 16)" stroke-width="2.39" stroke-opacity="1.00" stroke-linejoin="round"/>
<path d="M133.63,323.48 C131.74,325.20 130.84,326.97 130.39,329.74 C129.58,335.06 128.90,351.37 128.61,359.70 C128.41,367.68 128.79,382.64 129.19,385.77 C129.85,390.82 132.07,398.35 132.42,399.54" fill="none" stroke="rgb(229, 0, 16)" stroke-width="2.39" stroke-opacity="1.00" stroke-linejoin="round"/>
<path d="M152.08,340.39 C152.08,340.39 151.88,340.39 151.88,340.39 C151.70,341.27 150.27,355.90 149.49,362.14 C146.68,380.45 141.50,398.22 140.74,400.13 C140.17,401.53 139.11,404.14 138.61,405.35" fill="none" stroke="rgb(229, 0, 16)" stroke-width="2.39" stroke-opacity="1.00" stroke-linejoin="round"/>
<path d="M164.38,339.24 C163.11,340.34 162.51,341.14 162.31,342.30 C161.93,344.57 157.62,378.35 156.35,385.43 C155.67,389.01 153.59,400.05 153.30,401.77" fill="none" stroke="rgb(229, 0, 16)" stroke-width="2.39" stroke-opacity="1.00" stroke-linejoin="round"/>
<path d="M161.69,366.91 C161.65,363.88 162.59,357.96 163.81,352.79 C165.84,345.05 170.22,330.12 172.42,322.91 C174.76,315.54 180.30,302.25 182.66,297.87 C186.37,291.03 193.36,280.12 197.44,275.44 C198.91,273.75 203.01,269.50 203.77,268.48 C204.08,268.07 204.73,267.14 205.72,265.70" fill="none" stroke="rgb(229, 0, 16)" stroke-width="2.39" stroke-opacity="1.00" stroke-linejoin="round"/>
<path d="M245.86,148.58 C245.86,148.58 244.78,148.33 244.78,148.33 C242.85,151.61 220.37,219.04 215.52,233.62 C213.29,240.22 208.67,254.69 206.28,262.55 C205.91,263.79 205.23,266.04 204.93,267.04" fill="none" stroke="rgb(229, 0, 16)" stroke-width="2.39" stroke-opacity="1.00" stroke-linejoin="round"/>
<path d="M223.19,157.04 C223.19,157.04 223.47,154.19 223.47,154.19 C222.83,156.63 218.24,172.70 216.62,179.18 C213.00,194.80 212.35,208.48 212.52,209.64 C212.57,209.95 212.72,210.72 212.97,211.94" fill="none" stroke="rgb(229, 0, 16)" stroke-width="2.39" stroke-opacity="1.00" stroke-linejoin="round"/>
<path d="M215.50,178.56 C215.50,178.56 215.11,178.76 215.11,178.76 C214.21,180.96 210.32,197.75 208.93,202.71 C207.00,209.15 203.95,219.39 203.42,221.39 C203.15,222.43 202.90,224.06 202.50,226.96" fill="none" stroke="rgb(229, 0, 16)" stroke-width="2.39" stroke-opacity="1.00" stroke-linejoin="round"/>
<path d="M182.44,334.62 C182.44,334.62 179.94,331.29 179.94,331.29 C179.88,333.90 180.73,351.05 180.96,359.63 C181.07,367.83 181.34,387.52 181.44,389.39 C181.63,392.85 182.26,396.69 182.39,397.51" fill="none" stroke="rgb(229, 0, 16)" stroke-width="2.39" stroke-opacity="1.00" stroke-linejoin="round"/>
<path d="M276.62,256.98 C274.83,263.44 272.14,272.95 268.18,284.26 C265.57,291.63 261.55,303.01 261.15,304.63 C260.92,305.55 260.35,308.20 260.14,309.21" fill="none" stroke="rgb(229, 0, 16)" stroke-width="2.39" stroke-opacity="1.00" stroke-linejoin="round"/>
<path d="M266.24,310.02 C265.99,310.22 264.84,308.48 265.29,287.77 C265.51,281.09 266.40,265.43 267.07,261.65 C269.90,248.52 273.88,229.23 278.97,209.60 C280.73,203.56 285.34,187.46 286.10,183.75 C287.20,177.38 289.03,167.40 291.25,158.37 C293.22,150.98 297.17,137.00 299.14,130.42 C300.25,126.82 318.74,75.29 321.04,68.32 C322.70,63.06 323.66,59.32 323.89,57.10" fill="none" stroke="rgb(229, 0, 16)" stroke-width="2.39" stroke-opacity="1.00" stroke-linejoin="round"/>
<path d="M326.58,52.87 C324.42,53.03 315.10,60.58 309.94,66.38 C301.41,76.15 282.59,97.66 276.26,106.88 C267.31,120.21 254.94,136.35 249.11,143.59 C248.75,144.06 247.96,145.10 246.76,146.73" fill="none" stroke="rgb(229, 0, 16)" stroke-width="2.39" stroke-opacity="1.00" stroke-linejoin="round"/>
<path d="M270.85,144.35 C270.85,144.35 268.42,143.97 268.42,143.97 C270.56,147.12 273.71,156.90 274.48,162.52 C274.90,165.71 275.44,176.15 275.47,177.75 C275.52,181.29 274.90,188.34 274.28,191.79 C274.04,193.18 272.64,199.37 272.39,200.47" fill="none" stroke="rgb(229, 0, 16)" stroke-width="2.39" stroke-opacity="1.00" stroke-linejoin="round"/>
<path d="M267.39,150.89 C267.39,150.89 267.26,146.24 267.26,146.24 C267.26,146.24 266.54,146.29 266.54,146.29 C263.61,149.23 259.05,159.68 256.35,167.95 C255.29,171.20 251.29,187.28 250.28,192.33 C249.57,196.05 247.38,212.18 248.00,216.50 C248.08,217.01 248.30,217.99 248.65,219.46" fill="none" stroke="rgb(229, 0, 16)" stroke-width="2.39" stroke-opacity="1.00" stroke-linejoin="round"/>
<path d="M267.01,157.81 C265.27,158.75 262.66,162.15 261.45,165.31 C259.34,171.03 255.73,186.69 254.72,193.34 C254.06,197.78 253.41,205.18 253.45,208.83 C253.58,216.20 255.99,222.65 256.60,224.25" fill="none" stroke="rgb(229, 0, 16)" stroke-width="2.39" stroke-opacity="1.00" stroke-linejoin="round"/>
<path d="M278.92,155.50 C278.92,155.50 277.20,152.74 277.20,152.74 C275.37,155.72 270.10,169.24 267.92,176.31 C265.34,184.96 262.27,197.97 261.27,205.57 C260.66,210.30 260.58,221.90 261.24,231.22" fill="none" stroke="rgb(229, 0, 16)" stroke-width="2.39" stroke-opacity="1.00" stroke-linejoin="round"/>
<path d="M284.30,132.05 C284.30,132.05 282.57,131.67 282.57,131.67 C282.91,133.07 285.63,140.72 286.03,142.00 C288.80,151.16 289.98,169.38 290.15,172.20 C290.24,173.81 290.39,176.41 290.45,177.41" fill="none" stroke="rgb(229, 0, 16)" stroke-width="2.39" stroke-opacity="1.00" stroke-linejoin="round"/>
<path d="M295.83,165.88 C294.72,166.91 294.68,168.10 295.45,174.03 C295.84,176.95 295.95,182.08 295.97,183.41" fill="none" stroke="rgb(229, 0, 16)" stroke-width="2.39" stroke-opacity="1.00" stroke-linejoin="round"/>
<path d="M315.82,153.96 C315.46,153.65 315.20,153.39 315.05,153.20 C314.90,153.00 314.65,152.58 314.28,151.95 C314.28,151.95 314.99,151.37 314.99,151.37 C316.41,152.15 317.33,152.99 317.69,154.21 C318.64,157.37 318.86,166.68 318.90,168.19" fill="none" stroke="rgb(229, 0, 16)" stroke-width="2.39" stroke-opacity="1.00" stroke-linejoin="round"/>
<path d="M237.41,127.06 C237.41,127.06 237.41,126.29 237.41,126.29 C238.19,128.76 240.05,134.53 241.13,137.83 C241.76,139.71 243.08,143.60 243.50,144.70 C244.42,147.14 245.60,149.93 246.25,151.27" fill="none" stroke="rgb(229, 0, 16)" stroke-width="2.39" stroke-opacity="1.00" stroke-linejoin="round"/>
<path d="M229.72,128.98 C229.72,128.98 228.38,128.21 228.38,128.21 C228.20,128.72 231.17,134.66 232.51,137.29 C233.44,139.17 234.91,142.29 235.53,143.82 C236.91,147.21 238.59,152.79 238.95,153.96" fill="none" stroke="rgb(229, 0, 16)" stroke-width="2.39" stroke-opacity="1.00" stroke-linejoin="round"/>
<path d="M226.65,135.13 C225.93,136.85 225.81,137.97 226.52,139.20 C227.19,140.37 228.60,142.54 229.20,143.37 C230.56,145.19 233.34,148.83 234.15,149.88" fill="none" stroke="rgb(229, 0, 16)" stroke-width="2.39" stroke-opacity="1.00" stroke-linejoin="round"/>
<path d="M254.32,124.75 C255.02,126.09 255.46,127.23 256.41,131.11 C256.82,132.88 257.46,138.27 257.73,141.39 C258.01,144.85 258.13,151.12 258.16,153.87" fill="none" stroke="rgb(229, 0, 16)" stroke-width="2.39" stroke-opacity="1.00" stroke-linejoin="round"/>
<path d="M225.11,135.90 C225.11,135.90 223.19,135.90 223.19,135.90 C222.99,136.09 223.28,139.06 223.75,141.83 C224.09,143.84 224.74,147.72 225.05,149.59 C225.40,151.72 225.97,155.25 226.20,156.64" fill="none" stroke="rgb(229, 0, 16)" stroke-width="2.39" stroke-opacity="1.00" stroke-linejoin="round"/>
<path d="M214.35,149.35 C214.35,149.35 214.54,148.28 214.54,148.28 C214.54,148.28 215.32,148.25 215.32,148.25 C217.05,151.70 217.67,155.75 218.23,161.00 C218.88,168.30 219.63,176.69 219.73,177.80" fill="none" stroke="rgb(229, 0, 16)" stroke-width="2.39" stroke-opacity="1.00" stroke-linejoin="round"/>
<path d="M198.59,145.51 C198.59,145.51 197.05,143.39 197.05,143.39 C195.09,145.87 193.46,150.43 192.30,154.08 C190.17,161.07 185.81,175.88 183.60,183.71 C181.16,192.90 179.03,204.54 178.30,211.57 C177.60,218.38 177.34,230.98 177.92,238.30 C178.56,244.92 180.00,254.28 180.20,255.61" fill="none" stroke="rgb(229, 0, 16)" stroke-width="2.39" stroke-opacity="1.00" stroke-linejoin="round"/>
<path d="M186.67,147.43 C186.67,147.43 186.67,146.85 186.67,146.85 C186.67,146.85 186.27,146.66 186.27,146.66 C184.63,146.63 181.31,151.00 179.25,155.85 C177.03,161.22 172.66,176.13 170.95,182.63 C169.28,189.49 166.46,203.30 165.27,210.37 C163.68,220.67 162.57,231.51 161.78,239.60 C161.45,243.28 161.02,248.12 160.92,249.29" fill="none" stroke="rgb(229, 0, 16)" stroke-width="2.39" stroke-opacity="1.00" stroke-linejoin="round"/>
<path d="M159.38,162.42 C159.38,162.42 158.12,157.30 158.12,157.30 C156.30,159.43 151.59,173.18 149.51,181.08 C145.42,197.86 140.99,223.44 140.04,233.28 C139.70,237.42 139.24,243.02 139.12,244.47" fill="none" stroke="rgb(229, 0, 16)" stroke-width="2.39" stroke-opacity="1.00" stroke-linejoin="round"/>
<path d="M148.23,162.42 C146.22,164.27 144.91,167.35 144.08,171.30 C143.62,173.56 141.13,190.55 140.16,197.85 C139.33,205.51 137.96,222.05 137.85,226.61" fill="none" stroke="rgb(229, 0, 16)" stroke-width="2.39" stroke-opacity="1.00" stroke-linejoin="round"/>
<path d="M167.45,140.51 C167.45,140.51 167.35,137.05 167.35,137.05 C166.71,137.37 165.87,140.07 164.77,144.36 C163.49,149.76 159.65,170.14 159.39,171.95 C158.95,175.19 159.10,176.61 159.32,177.69" fill="none" stroke="rgb(229, 0, 16)" stroke-width="2.39" stroke-opacity="1.00" stroke-linejoin="round"/>
<path d="M175.14,134.36 C172.95,139.93 172.08,147.28 171.77,158.67 C171.69,163.28 171.90,168.13 172.33,171.69 C172.52,173.23 172.81,174.62 173.47,177.34" fill="none" stroke="rgb(229, 0, 16)" stroke-width="2.39" stroke-opacity="1.00" stroke-linejoin="round"/>
<path d="M185.90,136.67 C184.98,136.89 183.37,138.26 182.83,139.65 C182.61,140.20 182.16,147.36 182.00,150.46 C181.39,158.91 180.68,168.67 180.58,169.98" fill="none" stroke="rgb(229, 0, 16)" stroke-width="2.39" stroke-opacity="1.00" stroke-linejoin="round"/>
<path d="M138.62,136.67 C138.62,136.67 137.28,136.09 137.28,136.09 C136.01,137.22 135.30,140.64 134.78,143.73 C133.79,150.11 131.74,164.04 131.01,170.97 C130.23,179.72 129.04,193.52 128.63,198.55" fill="none" stroke="rgb(229, 0, 16)" stroke-width="2.39" stroke-opacity="1.00" stroke-linejoin="round"/>
<path d="M138.62,110.14 C138.09,112.31 132.06,128.34 129.67,136.09 C127.06,145.20 120.29,175.80 117.66,189.89 C116.51,197.13 115.03,208.89 114.52,213.23" fill="none" stroke="rgb(229, 0, 16)" stroke-width="2.39" stroke-opacity="1.00" stroke-linejoin="round"/>
<path d="M127.86,170.49 C126.12,174.63 123.07,184.22 119.73,193.76 C117.14,201.09 111.99,215.87 109.43,223.32 C107.24,229.82 104.35,238.38 103.65,240.44" fill="none" stroke="rgb(229, 0, 16)" stroke-width="2.39" stroke-opacity="1.00" stroke-linejoin="round"/>
<path d="M128.63,195.48 C128.20,195.64 127.88,196.78 127.50,199.74 C126.12,210.41 124.01,221.44 122.26,228.18 C120.37,235.04 116.34,248.38 114.26,255.11 C113.19,258.60 111.79,263.17 111.46,264.24" fill="none" stroke="rgb(229, 0, 16)" stroke-width="2.39" stroke-opacity="1.00" stroke-linejoin="round"/>
<path d="M115.18,229.30 C114.05,230.95 113.27,234.27 112.60,240.12 C111.52,250.07 109.34,262.87 107.52,271.72 C104.78,284.37 98.53,297.85 97.88,299.26" fill="none" stroke="rgb(229, 0, 16)" stroke-width="2.39" stroke-opacity="1.00" stroke-linejoin="round"/>
<path d="M110.56,231.99 C109.55,234.31 106.35,246.17 103.04,256.72 C98.51,270.73 90.58,293.28 88.24,298.40 C86.94,301.21 84.75,305.29 82.50,309.25" fill="none" stroke="rgb(229, 0, 16)" stroke-width="2.39" stroke-opacity="1.00" stroke-linejoin="round"/>
<path d="M112.87,154.35 C111.46,155.99 110.77,157.03 110.45,158.24 C107.06,171.55 103.41,222.68 102.87,230.84" fill="none" stroke="rgb(229, 0, 16)" stroke-width="2.39" stroke-opacity="1.00" stroke-linejoin="round"/>
<path d="M102.87,235.45 C102.65,238.76 102.15,245.49 101.87,248.91 C101.48,252.55 100.85,257.07 100.41,260.13" fill="none" stroke="rgb(229, 0, 16)" stroke-width="2.39" stroke-opacity="1.00" stroke-linejoin="round"/>
<path d="M106.72,171.26 C106.72,171.26 106.18,171.26 106.18,171.26 C105.43,171.97 102.88,179.97 99.50,191.79 C96.60,202.77 89.35,236.25 86.36,251.77 C84.99,259.38 81.88,279.38 81.43,283.33 C80.74,289.82 79.93,297.40 79.81,298.49" fill="none" stroke="rgb(229, 0, 16)" stroke-width="2.39" stroke-opacity="1.00" stroke-linejoin="round"/>
<path d="M106.72,138.59 C106.79,139.75 106.68,142.01 106.40,143.68 C106.16,145.07 100.19,166.75 99.14,171.16 C98.24,174.96 96.98,181.62 96.39,186.14 C95.73,191.29 96.25,197.16 96.34,198.17" fill="none" stroke="rgb(229, 0, 16)" stroke-width="2.39" stroke-opacity="1.00" stroke-linejoin="round"/>
<path d="M94.03,150.50 C94.03,150.50 94.03,150.31 94.03,150.31 C94.03,150.31 93.20,150.21 93.20,150.21 C91.82,151.70 90.48,155.22 89.26,158.96 C86.43,167.95 83.70,178.12 82.20,184.31 C80.41,192.67 78.42,204.94 78.14,207.46 C77.38,215.61 76.36,226.91 76.09,230.06" fill="none" stroke="rgb(229, 0, 16)" stroke-width="2.39" stroke-opacity="1.00" stroke-linejoin="round"/>
<path d="M97.49,145.89 C96.40,148.94 95.52,152.35 94.95,155.08 C93.47,162.25 90.25,186.75 89.81,190.48" fill="none" stroke="rgb(229, 0, 16)" stroke-width="2.39" stroke-opacity="1.00" stroke-linejoin="round"/>
<path d="M90.19,198.94 C90.19,198.94 90.96,203.55 90.96,203.55" fill="none" stroke="rgb(229, 0, 16)" stroke-width="2.39" stroke-opacity="1.00" stroke-linejoin="round"/>
<path d="M99.80,128.21 C99.80,128.21 98.65,125.28 98.65,125.28 C97.41,126.18 94.41,137.66 93.42,141.58 C92.88,143.87 92.04,147.56 91.73,148.97" fill="none" stroke="rgb(229, 0, 16)" stroke-width="2.39" stroke-opacity="1.00" stroke-linejoin="round"/>
<path d="M115.94,136.28 C115.94,136.28 113.54,136.57 113.54,136.57 C112.55,138.85 111.76,146.18 111.30,150.48 C110.93,154.84 110.44,160.69 110.32,162.19 C110.27,162.78 110.23,163.37 110.18,163.96" fill="none" stroke="rgb(229, 0, 16)" stroke-width="2.39" stroke-opacity="1.00" stroke-linejoin="round"/>
<path d="M62.51,167.03 C62.51,167.03 62.32,167.99 62.32,167.99 C62.32,167.99 62.00,168.19 62.00,168.19" fill="none" stroke="rgb(229, 0, 16)" stroke-width="2.39" stroke-opacity="1.00" stroke-linejoin="round"/>
<path d="M61.75,167.80 C60.89,169.13 60.34,170.03 60.07,170.49 C58.01,174.14 51.04,190.02 49.21,195.44 C46.98,202.06 44.25,213.98 43.55,219.54 C42.88,224.97 42.61,240.09 42.54,247.47 C42.54,249.00 42.53,251.64 42.53,252.75" fill="none" stroke="rgb(229, 0, 16)" stroke-width="2.39" stroke-opacity="1.00" stroke-linejoin="round"/>
<path d="M64.82,148.97 C64.82,148.97 64.82,149.35 64.82,149.35 C64.93,149.33 65.44,151.24 65.68,152.98 C65.82,153.97 66.20,159.04 66.34,160.88" fill="none" stroke="rgb(229, 0, 16)" stroke-width="2.39" stroke-opacity="1.00" stroke-linejoin="round"/>
<path d="M84.81,171.26 C84.81,171.26 85.10,169.53 85.10,169.53 C83.56,169.05 80.77,170.86 78.33,173.60 C77.60,174.43 75.60,176.86 74.78,177.87 C74.28,178.49 73.78,179.10 73.28,179.72" fill="none" stroke="rgb(229, 0, 16)" stroke-width="2.39" stroke-opacity="1.00" stroke-linejoin="round"/>
<path d="M66.74,157.04 C66.57,158.31 66.10,161.73 65.96,163.04 C65.79,164.65 65.21,173.02 64.94,175.10 C64.77,176.39 64.17,180.11 63.94,181.51" fill="none" stroke="rgb(229, 0, 16)" stroke-width="2.39" stroke-opacity="1.00" stroke-linejoin="round"/>
<path d="M35.22,163.19 C35.22,163.19 34.45,162.42 34.45,162.42 C33.91,163.53 33.42,166.74 32.74,170.69 C31.01,180.51 29.99,188.36 29.03,199.16 C28.48,206.93 27.95,223.61 28.03,229.82 C28.38,241.45 28.65,246.38 28.91,249.83" fill="none" stroke="rgb(229, 0, 16)" stroke-width="2.39" stroke-opacity="1.00" stroke-linejoin="round"/>
<path d="M52.52,157.81 C52.07,158.31 51.46,159.72 50.59,162.32 C49.62,165.34 47.30,172.59 45.95,176.81 C42.62,187.11 41.34,190.68 41.11,191.34" fill="none" stroke="rgb(229, 0, 16)" stroke-width="2.39" stroke-opacity="1.00" stroke-linejoin="round"/>
<path d="M19.08,148.58 C19.08,148.58 17.06,147.81 17.06,147.81 C15.82,148.23 13.77,153.67 12.86,157.79 C12.03,161.62 10.96,168.20 10.62,172.17 C10.03,179.29 9.87,185.43 9.86,186.12" fill="none" stroke="rgb(229, 0, 16)" stroke-width="2.39" stroke-opacity="1.00" stroke-linejoin="round"/>
<path d="M0.24,140.89 C0.24,140.89 -0.91,139.36 -0.91,139.36 C-0.88,142.23 -1.91,156.83 -2.45,164.36 C-2.76,169.10 -3.14,175.05 -3.21,176.26" fill="none" stroke="rgb(229, 0, 16)" stroke-width="2.39" stroke-opacity="1.00" stroke-linejoin="round"/>
<path d="M-13.21,147.05 C-14.14,146.19 -13.53,158.29 -12.43,170.52 C-12.04,174.25 -11.31,180.88 -10.94,182.64 C-10.13,186.28 -9.76,187.66 -9.26,189.28" fill="none" stroke="rgb(229, 0, 16)" stroke-width="2.39" stroke-opacity="1.00" stroke-linejoin="round"/>
<path d="M15.62,29.04 C14.12,32.36 11.15,49.68 10.11,54.00 C8.70,59.78 -2.88,96.81 -7.31,111.27 C-9.79,119.45 -14.36,134.49 -16.45,141.34" fill="none" stroke="rgb(229, 0, 16)" stroke-width="2.39" stroke-opacity="1.00" stroke-linejoin="round"/>
<path d="M15.24,49.80 C15.24,49.80 16.00,48.45 16.00,48.45 C14.76,53.05 13.39,58.59 12.28,63.10 C11.36,66.97 9.46,75.04 8.48,79.25 C6.30,88.87 5.58,93.06 5.45,93.81" fill="none" stroke="rgb(229, 0, 16)" stroke-width="2.39" stroke-opacity="1.00" stroke-linejoin="round"/>
<path d="M5.24,62.10 C4.25,61.76 3.26,61.60 2.67,61.99 C0.62,63.39 -8.46,80.80 -10.20,83.95 C-13.48,89.91 -19.25,100.63 -22.09,107.62 C-24.85,114.47 -29.88,129.83 -31.22,135.13 C-31.76,137.33 -32.38,143.73 -32.04,145.00 C-31.78,145.93 -30.91,146.99 -29.59,148.20" fill="none" stroke="rgb(229, 0, 16)" stroke-width="2.39" stroke-opacity="1.00" stroke-linejoin="round"/>
<path d="M-28.20,83.62 C-28.20,83.62 -28.20,82.28 -28.20,82.28 C-28.19,85.56 -28.14,94.33 -28.11,95.72 C-27.79,103.73 -26.84,120.05 -26.32,128.57 C-26.08,132.51 -25.70,138.78 -25.57,142.61" fill="none" stroke="rgb(229, 0, 16)" stroke-width="2.39" stroke-opacity="1.00" stroke-linejoin="round"/>
<path d="M-9.75,65.94 C-9.90,74.68 -11.00,82.27 -13.26,94.90 C-17.26,117.01 -21.30,144.83 -22.26,149.77 C-23.53,156.24 -25.58,162.97 -25.90,163.98" fill="none" stroke="rgb(229, 0, 16)" stroke-width="2.39" stroke-opacity="1.00" stroke-linejoin="round"/>
<path d="M-5.52,92.85 C-5.52,92.85 -7.06,92.56 -7.06,92.56 C-7.93,94.61 -8.87,110.97 -8.74,118.47 C-8.64,122.88 -7.31,127.54 -6.76,129.18" fill="none" stroke="rgb(229, 0, 16)" stroke-width="2.39" stroke-opacity="1.00" stroke-linejoin="round"/>
<path d="M8.32,91.31 C7.52,91.82 7.15,92.86 7.16,94.90 C7.19,97.04 7.89,104.73 8.46,107.78 C9.21,111.64 10.84,116.04 12.17,116.91 C12.94,117.38 14.45,117.52 16.39,117.45" fill="none" stroke="rgb(229, 0, 16)" stroke-width="2.39" stroke-opacity="1.00" stroke-linejoin="round"/>
<path d="M-5.14,44.80 C-5.14,44.80 -5.52,43.77 -5.52,43.77 C-5.41,47.13 -5.15,55.43 -5.14,57.70 C-5.12,64.57 -6.09,73.46 -6.28,75.07" fill="none" stroke="rgb(229, 0, 16)" stroke-width="2.39" stroke-opacity="1.00" stroke-linejoin="round"/>
<path d="M-15.90,49.41 C-15.71,49.41 -14.92,49.46 -14.68,49.86 C-12.87,53.00 -13.07,64.90 -14.15,73.12 C-14.37,74.81 -14.87,78.09 -15.05,79.26" fill="none" stroke="rgb(229, 0, 16)" stroke-width="2.39" stroke-opacity="1.00" stroke-linejoin="round"/>
<path d="M-32.04,50.18 C-31.20,52.08 -30.48,55.79 -30.30,58.57 C-30.12,61.65 -30.12,68.32 -30.12,71.42" fill="none" stroke="rgb(229, 0, 16)" stroke-width="2.39" stroke-opacity="1.00" stroke-linejoin="round"/>
<path d="M43.68,32.50 C43.68,32.50 43.68,30.67 43.68,30.67 C43.01,30.25 35.77,40.94 30.57,49.30 C23.23,61.57 10.81,86.24 3.47,102.64 C1.31,107.75 0.48,109.82 0.02,113.40" fill="none" stroke="rgb(229, 0, 16)" stroke-width="2.39" stroke-opacity="1.00" stroke-linejoin="round"/>
<path d="M48.29,35.19 C48.10,37.28 46.21,42.81 45.16,45.89 C42.94,52.56 35.71,67.39 34.07,70.45 C33.44,71.61 32.30,73.65 31.91,74.33" fill="none" stroke="rgb(229, 0, 16)" stroke-width="2.39" stroke-opacity="1.00" stroke-linejoin="round"/>
<path d="M57.52,33.27 C55.72,34.31 54.54,35.66 53.17,38.30 C51.61,41.33 45.41,56.30 42.50,63.34 C41.38,65.95 35.57,77.47 30.35,86.78 C25.76,95.17 22.47,102.32 20.96,109.57 C19.86,114.98 17.85,131.51 17.39,136.41" fill="none" stroke="rgb(229, 0, 16)" stroke-width="2.39" stroke-opacity="1.00" stroke-linejoin="round"/>
<path d="M27.92,108.22 C27.12,110.85 26.36,114.55 26.05,118.12 C25.90,119.80 25.30,129.75 25.22,130.64 C25.19,131.03 25.12,131.72 25.01,132.70" fill="none" stroke="rgb(229, 0, 16)" stroke-width="2.39" stroke-opacity="1.00" stroke-linejoin="round"/>
<path d="M34.07,105.53 C33.35,106.25 32.56,107.13 32.53,107.65 C32.52,107.84 34.60,114.63 35.16,117.43 C35.98,121.60 36.27,131.98 35.70,136.91 C34.79,144.50 32.80,152.19 32.53,153.20" fill="none" stroke="rgb(229, 0, 16)" stroke-width="2.39" stroke-opacity="1.00" stroke-linejoin="round"/>
<path d="M34.84,118.60 C32.67,122.15 28.69,135.98 26.65,143.17 C24.57,150.95 22.64,158.76 22.40,159.75" fill="none" stroke="rgb(229, 0, 16)" stroke-width="2.39" stroke-opacity="1.00" stroke-linejoin="round"/>
<path d="M49.06,103.61 C47.44,107.17 44.80,115.38 44.32,117.83 C43.62,121.56 42.65,126.70 42.39,128.10" fill="none" stroke="rgb(229, 0, 16)" stroke-width="2.39" stroke-opacity="1.00" stroke-linejoin="round"/>
<path d="M3.70,117.06 C3.70,117.06 4.15,114.18 4.15,114.18 C4.62,114.74 3.56,133.42 4.19,137.58 C4.57,139.85 5.86,142.27 7.23,144.63" fill="none" stroke="rgb(229, 0, 16)" stroke-width="2.39" stroke-opacity="1.00" stroke-linejoin="round"/>
<path d="M11.78,119.75 C10.57,121.31 9.23,125.12 9.09,128.31 C9.06,128.95 9.07,132.55 9.13,133.26 C9.35,135.67 10.36,139.04 10.71,140.29" fill="none" stroke="rgb(229, 0, 16)" stroke-width="2.39" stroke-opacity="1.00" stroke-linejoin="round"/>
<path d="M66.36,108.22 C65.58,110.53 62.90,117.70 62.51,118.79 C61.24,122.46 61.08,125.23 61.36,126.72 C61.45,127.17 61.68,127.84 62.04,128.72" fill="none" stroke="rgb(229, 0, 16)" stroke-width="2.39" stroke-opacity="1.00" stroke-linejoin="round"/>
<path d="M78.66,102.46 C76.71,104.36 75.25,106.99 74.35,110.16 C73.24,114.17 69.69,129.41 68.94,134.54 C68.33,138.78 68.73,140.98 69.28,142.89" fill="none" stroke="rgb(229, 0, 16)" stroke-width="2.39" stroke-opacity="1.00" stroke-linejoin="round"/>
<path d="M60.59,121.68 C60.41,123.15 58.92,128.86 57.86,132.33 C57.23,134.42 54.34,143.24 53.31,146.36" fill="none" stroke="rgb(229, 0, 16)" stroke-width="2.39" stroke-opacity="1.00" stroke-linejoin="round"/>
<path d="M52.14,150.12 C51.97,150.62 51.30,152.64 50.79,154.16 C50.00,156.56 49.49,158.44 49.13,160.11" fill="none" stroke="rgb(229, 0, 16)" stroke-width="2.39" stroke-opacity="1.00" stroke-linejoin="round"/>
<path d="M49.06,161.27 C49.06,161.27 49.45,163.57 49.45,163.57" fill="none" stroke="rgb(229, 0, 16)" stroke-width="2.39" stroke-opacity="1.00" stroke-linejoin="round"/>
<path d="M92.88,61.71 C92.93,61.59 92.93,61.47 92.88,61.37 C92.83,61.26 92.66,61.01 92.38,60.62 C91.34,62.73 83.03,82.83 82.07,85.35 C80.58,89.29 78.34,97.44 78.06,98.46" fill="none" stroke="rgb(229, 0, 16)" stroke-width="2.39" stroke-opacity="1.00" stroke-linejoin="round"/>
<path d="M102.87,68.25 C102.87,68.25 102.11,67.29 102.11,67.29 C102.11,67.29 101.46,67.44 101.46,67.44 C100.46,70.53 99.21,77.04 98.77,80.23 C98.32,83.62 97.98,89.08 97.90,90.43" fill="none" stroke="rgb(229, 0, 16)" stroke-width="2.39" stroke-opacity="1.00" stroke-linejoin="round"/>
<path d="M77.89,65.94 C77.89,65.94 77.89,64.88 77.89,64.88 C77.70,64.72 75.05,65.48 70.48,69.42 C69.11,70.60 66.84,72.58 65.93,73.36" fill="none" stroke="rgb(229, 0, 16)" stroke-width="2.39" stroke-opacity="1.00" stroke-linejoin="round"/>
<path d="M59.82,80.16 C59.82,80.16 57.52,82.47 57.52,82.47" fill="none" stroke="rgb(229, 0, 16)" stroke-width="2.39" stroke-opacity="1.00" stroke-linejoin="round"/>
<path d="M55.98,84.01 C54.13,85.70 51.46,88.25 50.61,89.23 C49.75,90.20 48.84,91.77 48.43,92.66" fill="none" stroke="rgb(229, 0, 16)" stroke-width="2.39" stroke-opacity="1.00" stroke-linejoin="round"/>
<path d="M129.01,65.17 C128.78,64.77 127.98,63.94 127.28,63.83 C125.14,63.53 119.19,66.74 117.22,68.20 C115.21,69.73 111.50,73.45 110.35,74.80 C108.93,76.49 102.11,85.94 100.94,87.32" fill="none" stroke="rgb(229, 0, 16)" stroke-width="2.39" stroke-opacity="1.00" stroke-linejoin="round"/>
<path d="M111.33,64.40 C111.32,64.23 111.32,64.11 111.33,64.02 C111.36,63.85 111.43,63.65 111.52,63.44 C111.56,63.36 111.62,63.26 111.72,63.12 C111.38,62.97 110.32,62.51 109.91,62.40 C109.33,62.26 107.65,62.66 106.32,63.24 C105.71,63.50 102.83,65.00 101.80,65.54" fill="none" stroke="rgb(229, 0, 16)" stroke-width="2.39" stroke-opacity="1.00" stroke-linejoin="round"/>
<path d="M94.42,69.40 C94.42,69.40 93.36,70.55 93.36,70.55 C96.72,69.42 105.12,66.69 106.47,66.31 C111.22,65.03 113.07,65.14 115.69,65.73 C116.30,67.17 114.52,71.46 112.81,74.29 C109.86,79.06 94.36,99.59 93.65,100.53" fill="none" stroke="rgb(229, 0, 16)" stroke-width="2.39" stroke-opacity="1.00" stroke-linejoin="round"/>
<path d="M153.61,50.18 C152.40,50.87 150.31,54.14 149.38,57.38 C148.42,60.81 146.77,69.03 146.23,72.50 C144.79,81.75 144.90,89.20 144.99,91.07" fill="none" stroke="rgb(229, 0, 16)" stroke-width="2.39" stroke-opacity="1.00" stroke-linejoin="round"/>
<path d="M164.38,60.56 C164.38,60.56 164.18,58.54 164.18,58.54 C163.61,60.20 159.81,80.24 159.37,84.26 C159.03,87.41 158.89,92.93 158.88,95.13" fill="none" stroke="rgb(229, 0, 16)" stroke-width="2.39" stroke-opacity="1.00" stroke-linejoin="round"/>
<path d="M173.99,28.66 C173.05,31.04 171.83,37.45 171.14,41.15 C170.83,42.90 170.24,46.30 169.96,47.95 C169.44,51.11 168.79,56.54 168.63,57.92" fill="none" stroke="rgb(229, 0, 16)" stroke-width="2.39" stroke-opacity="1.00" stroke-linejoin="round"/>
<path d="M185.90,45.18 C185.04,45.13 183.06,45.38 182.25,45.76 C180.94,46.41 178.17,56.60 176.69,65.44 C174.06,82.21 174.57,93.17 174.69,93.97 C175.03,96.26 175.82,98.70 176.93,101.11" fill="none" stroke="rgb(229, 0, 16)" stroke-width="2.39" stroke-opacity="1.00" stroke-linejoin="round"/>
<path d="M186.67,50.57 C186.67,50.57 186.48,50.57 186.48,50.57 C186.30,51.01 186.27,51.46 186.38,52.79 C186.80,58.20 186.99,66.24 187.00,70.39 C187.02,73.35 187.31,79.53 187.40,81.14" fill="none" stroke="rgb(229, 0, 16)" stroke-width="2.39" stroke-opacity="1.00" stroke-linejoin="round"/>
<path d="M167.84,76.32 C167.84,76.32 166.30,76.51 166.30,76.51 C165.62,78.60 165.53,84.02 165.55,86.51 C165.61,89.40 165.83,95.64 165.97,98.99 C166.15,102.17 166.55,107.63 166.66,108.97" fill="none" stroke="rgb(229, 0, 16)" stroke-width="2.39" stroke-opacity="1.00" stroke-linejoin="round"/>
<path d="M162.07,88.62 C161.12,92.55 160.90,96.11 160.89,100.05 C160.90,104.18 160.92,112.05 160.92,115.79 C160.92,117.19 160.92,119.44 160.92,120.30" fill="none" stroke="rgb(229, 0, 16)" stroke-width="2.39" stroke-opacity="1.00" stroke-linejoin="round"/>
<path d="M160.92,112.84 C160.92,112.84 160.15,112.84 160.15,112.84 C159.08,113.97 155.97,129.48 154.31,137.83 C153.47,142.04 152.05,149.30 151.45,152.35 C150.84,155.62 150.16,161.58 149.77,165.01" fill="none" stroke="rgb(229, 0, 16)" stroke-width="2.39" stroke-opacity="1.00" stroke-linejoin="round"/>
<path d="M144.39,89.77 C144.45,89.44 144.20,87.83 144.00,86.67 C143.97,86.39 143.98,86.18 144.04,86.04 C144.69,93.10 145.89,107.01 146.45,113.87 C146.78,117.31 147.25,121.87 147.38,122.99" fill="none" stroke="rgb(229, 0, 16)" stroke-width="2.39" stroke-opacity="1.00" stroke-linejoin="round"/>
<path d="M132.47,83.24 C132.47,83.24 131.90,83.24 131.90,83.24 C131.53,84.89 128.96,108.79 128.85,110.12 C128.72,111.86 128.63,114.14 128.64,115.16" fill="none" stroke="rgb(229, 0, 16)" stroke-width="2.39" stroke-opacity="1.00" stroke-linejoin="round"/>
<path d="M114.79,90.54 C114.79,90.54 114.60,90.54 114.60,90.54 C113.78,92.05 111.31,107.35 110.08,115.06 C109.82,116.89 109.48,119.55 109.59,120.19 C109.65,120.53 109.88,121.41 110.27,122.81" fill="none" stroke="rgb(229, 0, 16)" stroke-width="2.39" stroke-opacity="1.00" stroke-linejoin="round"/>
<path d="M100.18,97.46 C99.41,106.97 99.38,118.27 99.11,122.61 C98.95,125.13 98.53,129.25 98.37,130.75" fill="none" stroke="rgb(229, 0, 16)" stroke-width="2.39" stroke-opacity="1.00" stroke-linejoin="round"/>
<path d="M87.88,91.31 C87.88,91.31 85.96,91.12 85.96,91.12 C85.41,92.40 84.93,99.54 84.64,103.74 C83.95,115.03 83.76,124.35 83.66,129.78" fill="none" stroke="rgb(229, 0, 16)" stroke-width="2.39" stroke-opacity="1.00" stroke-linejoin="round"/>
<path d="M-17.82,153.58 C-18.04,159.28 -18.59,171.60 -19.08,178.98 C-20.00,189.93 -21.70,201.73 -23.26,208.22 C-24.87,214.78 -29.33,224.72 -29.89,225.98" fill="none" stroke="rgb(229, 0, 16)" stroke-width="2.39" stroke-opacity="1.00" stroke-linejoin="round"/>
<path d="M-26.28,137.82 C-26.73,141.74 -26.45,145.67 -26.19,148.91 C-25.48,157.00 -23.60,177.99 -23.26,180.98 C-22.38,188.58 -19.08,201.84 -16.49,207.37 C-15.47,209.54 -14.56,211.07 -13.32,212.84" fill="none" stroke="rgb(229, 0, 16)" stroke-width="2.39" stroke-opacity="1.00" stroke-linejoin="round"/>
<path d="M12.16,185.10 C11.07,185.20 10.19,185.33 9.69,185.57 C8.02,186.41 5.33,190.09 4.18,192.64 C0.70,200.44 -3.71,223.95 -3.98,225.41" fill="none" stroke="rgb(229, 0, 16)" stroke-width="2.39" stroke-opacity="1.00" stroke-linejoin="round"/>
<path d="M-25.89,252.37 C-25.89,252.37 -26.85,251.40 -26.85,251.40 C-27.02,251.38 -26.39,256.13 -25.77,262.64 C-25.11,270.43 -24.23,308.21 -23.90,323.76 C-23.55,333.59 -22.69,340.62 -22.58,341.53" fill="none" stroke="rgb(229, 0, 16)" stroke-width="2.39" stroke-opacity="1.00" stroke-linejoin="round"/>
<path d="M-22.43,268.89 C-22.43,268.89 -22.05,268.32 -22.05,268.32 C-22.05,268.32 -22.37,268.38 -22.37,268.38 C-23.17,269.38 -26.13,273.36 -28.75,276.50 C-30.10,278.18 -31.96,282.64 -32.63,285.48 C-33.64,289.90 -34.95,302.05 -35.42,312.28 C-35.58,318.23 -35.61,331.84 -35.58,338.75" fill="none" stroke="rgb(229, 0, 16)" stroke-width="2.39" stroke-opacity="1.00" stroke-linejoin="round"/>
<path d="M-24.74,325.40 C-25.85,327.08 -27.16,331.32 -27.65,335.78 C-28.00,339.06 -28.92,355.16 -29.06,361.91 C-29.08,371.98 -28.89,379.26 -28.05,387.23 C-27.23,393.80 -26.24,401.48 -26.08,402.59" fill="none" stroke="rgb(229, 0, 16)" stroke-width="2.39" stroke-opacity="1.00" stroke-linejoin="round"/>
<path d="M-15.51,302.34 C-15.51,302.34 -16.22,300.32 -16.22,300.32 C-15.24,301.52 -13.46,314.68 -12.91,322.00 C-12.50,329.24 -11.87,341.48 -11.85,348.34 C-11.93,358.40 -12.21,361.43 -12.33,362.28" fill="none" stroke="rgb(229, 0, 16)" stroke-width="2.39" stroke-opacity="1.00" stroke-linejoin="round"/>
<path d="M-9.36,256.21 C-9.79,256.55 -13.52,259.75 -14.37,262.31 C-15.82,266.88 -17.06,278.84 -17.51,288.65 C-17.79,299.20 -17.27,329.34 -16.12,346.27 C-15.61,352.58 -12.62,367.53 -12.05,369.75" fill="none" stroke="rgb(229, 0, 16)" stroke-width="2.39" stroke-opacity="1.00" stroke-linejoin="round"/>
<path d="M-4.75,319.63 C-5.61,320.64 -6.96,323.78 -7.41,326.52 C-8.05,330.64 -7.96,341.98 -6.73,350.75 C-5.60,358.40 -1.72,373.43 -0.39,377.73 C0.37,380.14 3.00,387.81 4.06,390.83" fill="none" stroke="rgb(229, 0, 16)" stroke-width="2.39" stroke-opacity="1.00" stroke-linejoin="round"/>
<path d="M7.93,316.17 C6.86,318.93 6.16,321.56 6.06,324.97 C5.94,331.43 5.55,344.03 5.15,350.66 C4.53,359.05 2.75,371.63 1.38,379.77 C-3.12,404.10 -4.24,411.71 -5.00,418.33" fill="none" stroke="rgb(229, 0, 16)" stroke-width="2.39" stroke-opacity="1.00" stroke-linejoin="round"/>
<path d="M60.98,240.07 C60.98,240.07 60.79,240.07 60.79,240.07 C60.79,240.07 59.97,240.69 59.97,240.69 C61.01,246.95 61.92,260.55 62.00,266.24 C62.04,269.70 62.11,274.68 62.13,276.20" fill="none" stroke="rgb(229, 0, 16)" stroke-width="2.39" stroke-opacity="1.00" stroke-linejoin="round"/>
<path d="M79.81,251.98 C79.81,251.98 78.47,251.98 78.47,251.98 C77.34,252.95 76.94,258.21 76.69,263.88 C76.53,268.47 76.61,286.33 77.59,291.91 C77.97,294.05 78.38,295.77 79.04,298.11" fill="none" stroke="rgb(229, 0, 16)" stroke-width="2.39" stroke-opacity="1.00" stroke-linejoin="round"/>
<path d="M-5.52,219.31 C-6.31,220.95 -6.61,223.46 -6.67,229.06 C-6.65,236.16 -6.58,250.45 -6.53,257.65 C-6.42,263.19 -5.01,273.39 -4.53,276.74" fill="none" stroke="rgb(229, 0, 16)" stroke-width="2.39" stroke-opacity="1.00" stroke-linejoin="round"/>
<path d="M112.87,279.27 C112.87,279.27 112.80,276.48 112.80,276.48 C112.16,276.74 108.07,294.08 106.78,301.39 C104.24,317.44 102.38,340.69 102.35,346.54 C102.34,352.86 103.03,359.88 103.15,361.08" fill="none" stroke="rgb(229, 0, 16)" stroke-width="2.39" stroke-opacity="1.00" stroke-linejoin="round"/>
<path d="M114.41,285.42 C113.09,287.65 111.76,291.55 111.52,293.56 C111.21,296.25 110.10,338.81 108.86,349.07 C107.47,360.32 103.22,375.64 102.87,376.87" fill="none" stroke="rgb(229, 0, 16)" stroke-width="2.39" stroke-opacity="1.00" stroke-linejoin="round"/>
<path d="M117.48,291.96 C117.48,291.96 116.41,292.64 116.41,292.64 C115.85,294.48 115.70,297.44 115.63,301.63 C115.50,309.26 115.20,321.23 114.45,329.69 C113.60,338.07 109.03,363.65 107.72,371.30 C107.09,375.32 107.04,379.88 107.50,382.76 C107.74,384.37 107.82,386.51 107.50,387.73 C107.16,388.98 102.66,402.24 102.11,403.81" fill="none" stroke="rgb(229, 0, 16)" stroke-width="2.39" stroke-opacity="1.00" stroke-linejoin="round"/>
<path d="M127.09,301.57 C127.14,301.62 125.70,302.42 125.16,302.83 C122.84,304.67 118.94,316.39 118.06,322.06 C116.62,331.53 115.90,361.36 115.63,376.88 C115.63,386.39 115.89,388.33 116.25,390.36" fill="none" stroke="rgb(229, 0, 16)" stroke-width="2.39" stroke-opacity="1.00" stroke-linejoin="round"/>
<path d="M124.02,281.58 C124.02,281.58 123.44,281.58 123.44,281.58 C123.44,281.58 122.86,282.16 122.86,282.16 C124.03,292.72 124.83,303.12 125.02,309.23 C125.09,317.10 125.17,326.19 125.17,327.40" fill="none" stroke="rgb(229, 0, 16)" stroke-width="2.39" stroke-opacity="1.00" stroke-linejoin="round"/>
<path d="M89.81,296.95 C89.16,298.20 89.19,301.12 89.48,307.15 C89.70,311.62 90.10,319.74 90.27,323.39 C90.61,332.07 90.10,340.03 89.91,342.80" fill="none" stroke="rgb(229, 0, 16)" stroke-width="2.39" stroke-opacity="1.00" stroke-linejoin="round"/>
<path d="M87.50,300.80 C86.00,303.85 85.64,312.88 85.56,323.81 C85.54,332.55 84.71,342.23 83.30,349.89 C80.60,363.47 76.03,379.47 75.68,380.69" fill="none" stroke="rgb(229, 0, 16)" stroke-width="2.39" stroke-opacity="1.00" stroke-linejoin="round"/>
<path d="M105.18,309.64 C103.92,310.13 103.04,311.02 102.46,312.55 C99.97,319.23 94.42,373.01 93.77,380.71 C93.50,384.48 92.96,392.34 93.02,396.43 C93.03,397.12 93.08,397.96 93.16,398.94" fill="none" stroke="rgb(229, 0, 16)" stroke-width="2.39" stroke-opacity="1.00" stroke-linejoin="round"/>
<path d="M82.89,316.94 C82.89,316.94 82.69,315.98 82.69,315.98 C82.69,315.98 82.31,315.79 82.31,315.79 C80.68,318.74 77.06,353.78 75.96,368.70 C75.56,376.19 74.89,390.64 74.61,397.60 C74.46,401.58 74.21,408.05 74.11,410.53" fill="none" stroke="rgb(229, 0, 16)" stroke-width="2.39" stroke-opacity="1.00" stroke-linejoin="round"/>
<path d="M70.20,310.79 C69.73,311.37 70.06,316.38 70.27,319.30 C71.19,332.55 71.61,360.31 70.87,372.93 C70.13,384.71 70.07,385.28 69.90,386.49" fill="none" stroke="rgb(229, 0, 16)" stroke-width="2.39" stroke-opacity="1.00" stroke-linejoin="round"/>
<path d="M68.28,323.09 C68.10,323.01 67.91,323.01 67.70,323.09 C67.50,323.17 67.00,323.45 66.20,323.92 C65.28,328.31 65.09,343.96 65.05,352.50 C65.08,361.88 65.15,378.27 65.19,385.27 C65.19,386.07 65.20,386.87 65.21,387.67" fill="none" stroke="rgb(229, 0, 16)" stroke-width="2.39" stroke-opacity="1.00" stroke-linejoin="round"/>
<path d="M260.09,332.70 C260.09,332.70 259.13,331.93 259.13,331.93 C259.02,333.01 258.17,383.14 258.50,389.61 C258.91,396.03 260.27,399.83 260.86,401.12" fill="none" stroke="rgb(229, 0, 16)" stroke-width="2.39" stroke-opacity="1.00" stroke-linejoin="round"/>
<path d="M265.08,339.62 C265.08,339.62 265.47,337.70 265.47,337.70 C265.47,337.70 265.28,337.76 265.28,337.76 C264.50,339.54 263.94,340.77 262.95,342.84 C261.48,345.90 259.48,350.03 258.96,351.10" fill="none" stroke="rgb(229, 0, 16)" stroke-width="2.39" stroke-opacity="1.00" stroke-linejoin="round"/>
<path d="M256.63,359.61 C255.13,362.36 251.96,368.14 250.28,371.18 C249.17,373.16 246.47,377.30 244.75,379.94" fill="none" stroke="rgb(229, 0, 16)" stroke-width="2.39" stroke-opacity="1.00" stroke-linejoin="round"/>
<path d="M301.98,243.91 C302.45,244.61 302.79,245.60 302.68,246.52 C302.39,248.72 294.71,259.04 291.91,264.82 C290.54,267.65 288.11,274.02 287.09,276.99 C285.39,282.02 284.81,286.66 284.69,288.20" fill="none" stroke="rgb(229, 0, 16)" stroke-width="2.39" stroke-opacity="1.00" stroke-linejoin="round"/>
<path d="M296.99,232.76 C296.99,232.76 296.80,231.42 296.80,231.42 C296.36,232.40 294.10,251.38 293.11,260.24 C292.37,268.16 290.95,284.47 290.27,292.86 C290.00,296.63 289.64,301.57 289.56,302.72" fill="none" stroke="rgb(229, 0, 16)" stroke-width="2.39" stroke-opacity="1.00" stroke-linejoin="round"/>
<path d="M304.68,227.38 C304.68,227.38 304.43,224.66 304.43,224.66 C304.72,232.38 298.57,261.04 296.88,268.53 C295.12,276.53 293.14,285.59 292.91,286.65" fill="none" stroke="rgb(229, 0, 16)" stroke-width="2.39" stroke-opacity="1.00" stroke-linejoin="round"/>
<path d="M333.89,202.40 C333.89,202.40 331.68,202.68 331.68,202.68 C330.13,204.67 329.21,207.54 328.20,211.03 C321.91,234.01 316.32,252.06 312.53,263.94 C309.93,272.81 307.65,282.67 307.39,286.34 C307.33,287.22 307.26,289.74 307.24,290.67" fill="none" stroke="rgb(229, 0, 16)" stroke-width="2.39" stroke-opacity="1.00" stroke-linejoin="round"/>
<path d="M311.21,278.12 C311.21,278.12 310.15,277.16 310.15,277.16 C309.29,280.21 308.60,290.69 308.37,300.52 C308.25,313.94 307.82,344.34 307.53,361.32 C307.45,369.49 307.38,380.00 307.58,385.89" fill="none" stroke="rgb(229, 0, 16)" stroke-width="2.39" stroke-opacity="1.00" stroke-linejoin="round"/>
<path d="M317.74,265.82 C318.27,265.51 318.59,265.32 318.71,265.24 C318.82,265.17 318.88,265.10 318.90,265.05 C318.90,265.05 319.45,265.05 319.45,265.05" fill="none" stroke="rgb(229, 0, 16)" stroke-width="2.39" stroke-opacity="1.00" stroke-linejoin="round"/>
<path d="M319.28,264.67 C319.28,264.67 316.64,265.82 316.64,265.82 C317.38,265.88 318.82,268.70 319.94,274.10 C320.59,277.36 322.04,292.86 322.52,299.81 C322.87,307.00 323.10,314.78 323.13,315.79" fill="none" stroke="rgb(229, 0, 16)" stroke-width="2.39" stroke-opacity="1.00" stroke-linejoin="round"/>
<path d="M314.67,280.81 C314.67,280.81 313.52,281.58 313.52,281.58 C313.52,280.94 319.85,269.81 322.65,262.98 C327.45,250.54 345.74,207.95 346.86,205.31 C347.34,204.16 347.83,203.01 348.31,201.86" fill="none" stroke="rgb(229, 0, 16)" stroke-width="2.39" stroke-opacity="1.00" stroke-linejoin="round"/>
<path d="M353.88,212.01 C353.88,212.01 353.11,212.01 353.11,212.01 C350.68,215.53 344.66,227.11 342.03,232.50 C334.25,249.49 324.49,274.26 319.66,287.79 C314.82,301.32 307.98,320.91 306.36,327.73 C305.97,329.38 305.76,330.61 305.45,332.82" fill="none" stroke="rgb(229, 0, 16)" stroke-width="2.39" stroke-opacity="1.00" stroke-linejoin="round"/>
<path d="M338.12,250.06 C335.43,252.79 330.20,263.08 327.19,270.71 C324.58,277.58 312.25,321.97 311.98,323.54 C311.98,323.54 311.98,322.50 311.98,322.50" fill="none" stroke="rgb(229, 0, 16)" stroke-width="2.39" stroke-opacity="1.00" stroke-linejoin="round"/>
<path d="M285.46,330.78 C285.46,330.78 282.67,327.32 282.67,327.32 C282.67,327.32 281.90,327.26 281.90,327.26 C281.59,329.68 282.53,374.49 282.19,381.90 C281.97,385.97 281.44,395.82 281.48,396.57 C281.52,397.18 281.68,398.28 281.95,399.86" fill="none" stroke="rgb(229, 0, 16)" stroke-width="2.39" stroke-opacity="1.00" stroke-linejoin="round"/>
<path d="M306.21,333.09 C306.21,333.09 301.57,333.66 301.57,333.66 C302.22,339.23 302.58,350.99 301.69,358.44 C300.21,370.51 295.19,387.83 294.19,390.74 C293.64,392.33 293.15,393.37 292.53,394.43" fill="none" stroke="rgb(229, 0, 16)" stroke-width="2.39" stroke-opacity="1.00" stroke-linejoin="round"/>
<path d="M271.62,358.07 C271.08,358.65 270.72,360.02 270.38,362.98 C269.01,375.18 265.38,386.51 264.43,388.52 C263.88,389.69 262.02,393.04 261.32,394.29" fill="none" stroke="rgb(229, 0, 16)" stroke-width="2.39" stroke-opacity="1.00" stroke-linejoin="round"/>
<path d="M348.49,330.01 C346.82,336.00 345.85,343.96 345.38,355.16 C345.19,363.00 344.91,381.78 345.04,384.23 C345.13,385.77 346.54,394.16 347.60,396.77 C348.12,398.03 349.06,399.66 349.89,400.94" fill="none" stroke="rgb(229, 0, 16)" stroke-width="2.39" stroke-opacity="1.00" stroke-linejoin="round"/>
<path d="M347.34,342.31 C346.49,342.98 346.23,346.52 347.15,349.96 C353.64,372.37 354.47,376.55 354.67,377.28 C354.79,377.73 355.13,378.92 355.69,380.83" fill="none" stroke="rgb(229, 0, 16)" stroke-width="2.39" stroke-opacity="1.00" stroke-linejoin="round"/>
<path d="M376.55,305.41 C376.55,305.41 375.64,301.74 375.64,301.74 C373.99,304.53 372.33,311.38 371.92,313.02 C369.88,321.48 366.14,337.00 364.44,344.07 C361.43,356.62 359.60,366.04 358.13,374.65 C357.10,380.86 356.85,382.66 356.65,384.15" fill="none" stroke="rgb(229, 0, 16)" stroke-width="2.39" stroke-opacity="1.00" stroke-linejoin="round"/>
<path d="M389.24,301.18 C389.24,301.18 388.25,301.27 388.25,301.27 C387.07,302.56 384.06,307.35 383.20,308.95 C380.68,313.71 377.40,324.22 376.42,330.51 C375.55,336.14 374.73,346.76 374.48,356.80 C374.39,364.37 374.45,380.17 374.70,387.33 C374.99,393.76 376.34,404.89 377.07,410.52" fill="none" stroke="rgb(229, 0, 16)" stroke-width="2.39" stroke-opacity="1.00" stroke-linejoin="round"/>
<path d="M425.37,229.69 C425.34,229.63 425.36,229.82 425.37,229.88 C425.98,234.16 424.42,247.90 422.78,254.98 C418.59,272.02 411.92,295.95 408.09,309.82 C406.27,316.38 403.17,323.27 402.50,324.74" fill="none" stroke="rgb(229, 0, 16)" stroke-width="2.39" stroke-opacity="1.00" stroke-linejoin="round"/>
<path d="M433.06,288.50 C432.12,289.20 431.31,291.93 430.45,296.38 C429.35,302.47 428.29,312.16 427.51,322.93 C426.96,332.08 427.13,344.84 427.83,349.16 C428.45,352.72 429.92,355.76 431.23,358.02" fill="none" stroke="rgb(229, 0, 16)" stroke-width="2.39" stroke-opacity="1.00" stroke-linejoin="round"/>
<path d="M442.28,273.12 C442.28,273.12 442.09,273.08 442.09,273.08 C441.56,276.92 437.73,326.12 437.88,332.76 C438.00,337.27 439.05,342.72 439.45,344.49" fill="none" stroke="rgb(229, 0, 16)" stroke-width="2.39" stroke-opacity="1.00" stroke-linejoin="round"/>
<path d="M458.04,297.34 C458.04,297.34 458.43,296.57 458.43,296.57 C458.13,298.19 457.87,299.30 457.31,301.22 C452.47,317.37 446.50,331.58 444.16,336.38 C443.08,338.60 441.68,341.53 441.35,342.23" fill="none" stroke="rgb(229, 0, 16)" stroke-width="2.39" stroke-opacity="1.00" stroke-linejoin="round"/>
<path d="M458.81,308.49 C457.57,310.14 455.10,328.25 454.32,332.44 C452.98,339.58 450.08,348.72 449.20,351.12 C448.74,352.38 448.02,354.16 447.67,355.00" fill="none" stroke="rgb(229, 0, 16)" stroke-width="2.39" stroke-opacity="1.00" stroke-linejoin="round"/>
<path d="M476.11,281.58 C476.16,283.37 476.02,284.89 475.61,286.11 C475.19,287.35 466.51,303.85 462.45,311.58 C461.21,314.06 459.39,317.70 458.81,318.86" fill="none" stroke="rgb(229, 0, 16)" stroke-width="2.39" stroke-opacity="1.00" stroke-linejoin="round"/>
<path d="M471.11,302.34 C471.11,302.34 470.73,301.95 470.73,301.95 C470.73,301.95 469.96,301.98 469.96,301.98 C469.85,312.20 465.54,334.65 464.43,339.81 C463.52,344.04 463.27,345.49 463.05,347.20" fill="none" stroke="rgb(229, 0, 16)" stroke-width="2.39" stroke-opacity="1.00" stroke-linejoin="round"/>
<path d="M473.42,299.26 C473.45,300.90 473.56,305.17 473.63,306.38 C475.08,324.17 474.60,341.27 474.10,344.21 C474.03,344.62 473.84,345.48 473.51,346.78" fill="none" stroke="rgb(229, 0, 16)" stroke-width="2.39" stroke-opacity="1.00" stroke-linejoin="round"/>
<path d="M478.03,278.89 C478.03,278.89 478.03,278.50 478.03,278.50 C478.30,279.56 478.80,281.59 478.96,282.51 C479.85,287.55 480.74,298.81 481.10,310.17 C481.27,320.46 480.93,330.82 480.70,336.79 C480.55,339.50 480.15,342.87 479.98,344.08" fill="none" stroke="rgb(229, 0, 16)" stroke-width="2.39" stroke-opacity="1.00" stroke-linejoin="round"/>
<path d="M466.12,338.08 C466.12,338.08 465.92,338.08 465.92,338.08 C465.92,338.08 465.54,338.47 465.54,338.47 C465.36,339.14 466.31,343.74 467.45,350.14 C470.06,364.80 471.48,372.01 473.33,377.43 C476.80,387.51 484.39,395.67 485.24,396.38 C485.48,396.58 485.75,396.74 486.07,396.88" fill="none" stroke="rgb(229, 0, 16)" stroke-width="2.39" stroke-opacity="1.00" stroke-linejoin="round"/>
<path d="M469.57,350.00 C469.57,350.00 468.61,350.38 468.61,350.38 C468.36,352.15 468.67,356.45 469.04,359.46 C469.73,364.79 472.81,382.07 473.99,387.35 C476.74,398.65 478.26,401.82 478.77,402.63 C478.77,402.63 479.18,402.27 479.18,402.27" fill="none" stroke="rgb(229, 0, 16)" stroke-width="2.39" stroke-opacity="1.00" stroke-linejoin="round"/>
<path d="M460.35,356.92 C460.35,356.92 459.43,357.39 459.43,357.39 C459.10,360.09 461.86,371.65 464.47,380.65 C466.63,388.07 471.09,404.46 471.24,404.74 C471.41,405.07 471.88,405.65 472.65,406.50" fill="none" stroke="rgb(229, 0, 16)" stroke-width="2.39" stroke-opacity="1.00" stroke-linejoin="round"/>
<path d="M455.74,341.54 C455.65,341.77 455.91,343.40 456.42,345.74 C456.65,346.79 459.93,359.94 460.17,360.77 C460.25,361.04 460.31,361.20 460.35,361.23" fill="none" stroke="rgb(229, 0, 16)" stroke-width="2.39" stroke-opacity="1.00" stroke-linejoin="round"/>
<path d="M454.58,344.23 C454.58,344.23 454.20,344.23 454.20,344.23 C454.07,344.02 451.97,356.16 449.22,368.71 C446.63,380.25 445.69,382.14 444.88,383.42" fill="none" stroke="rgb(229, 0, 16)" stroke-width="2.39" stroke-opacity="1.00" stroke-linejoin="round"/>
<path d="M441.51,341.54 C441.51,341.54 439.79,341.61 439.79,341.61 C439.54,342.10 444.02,375.10 445.50,379.78 C446.41,382.48 448.00,383.71 449.36,384.26" fill="none" stroke="rgb(229, 0, 16)" stroke-width="2.39" stroke-opacity="1.00" stroke-linejoin="round"/>
<path d="M444.21,347.69 C444.21,347.69 442.48,348.65 442.48,348.65 C442.29,348.70 444.71,353.51 445.69,357.41 C445.86,358.08 448.05,367.81 449.01,372.09 C449.86,375.81 451.52,383.03 452.41,385.40 C452.56,385.80 452.80,386.33 453.11,386.98" fill="none" stroke="rgb(229, 0, 16)" stroke-width="2.39" stroke-opacity="1.00" stroke-linejoin="round"/>
<path d="M453.05,372.68 C453.05,372.68 451.70,372.29 451.70,372.29 C451.72,372.63 451.75,372.88 451.80,373.03 C456.52,388.27 460.14,402.02 460.39,402.78 C460.54,403.23 460.78,403.83 461.12,404.58" fill="none" stroke="rgb(229, 0, 16)" stroke-width="2.39" stroke-opacity="1.00" stroke-linejoin="round"/>
<path d="M428.45,331.55 C428.45,331.55 427.87,331.87 427.87,331.87 C428.26,334.52 434.23,352.71 436.98,361.01 C439.43,368.10 444.53,382.45 447.35,387.39 C449.84,391.68 451.76,394.34 453.52,396.58" fill="none" stroke="rgb(229, 0, 16)" stroke-width="2.39" stroke-opacity="1.00" stroke-linejoin="round"/>
<path d="M385.78,360.76 C384.12,361.58 383.04,363.34 382.44,365.32 C381.08,370.02 379.39,384.77 379.11,392.18 C378.78,401.63 379.94,407.20 380.34,408.69" fill="none" stroke="rgb(229, 0, 16)" stroke-width="2.39" stroke-opacity="1.00" stroke-linejoin="round"/>
<path d="M403.46,306.18 C403.46,306.18 402.69,303.07 402.69,303.07 C402.82,305.46 409.46,339.03 410.89,345.81 C412.43,352.42 414.65,358.60 416.53,363.07" fill="none" stroke="rgb(229, 0, 16)" stroke-width="2.39" stroke-opacity="1.00" stroke-linejoin="round"/>
<path d="M416.53,336.55 C415.97,336.81 415.02,337.36 414.61,337.70 C413.99,338.23 412.93,344.34 412.43,347.37 C410.73,357.28 409.27,362.36 408.84,363.84" fill="none" stroke="rgb(229, 0, 16)" stroke-width="2.39" stroke-opacity="1.00" stroke-linejoin="round"/>
<path d="M408.46,173.57 C407.77,174.66 408.16,177.92 409.74,182.60 C411.84,188.44 417.18,202.69 418.87,205.37 C419.41,206.22 420.65,207.85 421.49,208.89" fill="none" stroke="rgb(229, 0, 16)" stroke-width="2.39" stroke-opacity="1.00" stroke-linejoin="round"/>
<path d="M400.00,178.95 C400.00,178.95 399.62,178.95 399.62,178.95 C398.60,179.51 398.10,184.53 398.39,188.61 C398.52,190.28 399.00,193.67 399.33,195.11 C399.63,196.40 400.46,199.16 401.02,200.94" fill="none" stroke="rgb(229, 0, 16)" stroke-width="2.39" stroke-opacity="1.00" stroke-linejoin="round"/>
<path d="M382.70,167.80 C382.70,167.80 382.32,167.23 382.32,167.23 C382.26,167.16 382.41,168.34 382.82,171.12 C383.32,174.42 384.40,181.16 384.97,184.60 C385.68,188.45 386.95,193.43 388.16,197.28" fill="none" stroke="rgb(229, 0, 16)" stroke-width="2.39" stroke-opacity="1.00" stroke-linejoin="round"/>
<path d="M372.71,192.79 C372.71,192.79 372.13,193.09 372.13,193.09 C372.16,193.30 376.69,212.22 377.83,218.72 C378.44,222.32 378.49,226.25 378.51,228.24" fill="none" stroke="rgb(229, 0, 16)" stroke-width="2.39" stroke-opacity="1.00" stroke-linejoin="round"/>
<path d="M350.80,190.48 C350.70,196.19 353.66,213.19 354.16,217.31 C354.25,217.98 354.69,220.77 354.84,221.75" fill="none" stroke="rgb(229, 0, 16)" stroke-width="2.39" stroke-opacity="1.00" stroke-linejoin="round"/>
<path d="M370.40,128.59 C370.75,135.82 369.92,145.90 368.77,155.24 C367.36,165.43 364.69,179.57 363.16,187.13 C362.28,191.12 357.50,207.00 354.91,212.54 C353.60,215.30 351.32,219.32 350.42,220.85" fill="none" stroke="rgb(229, 0, 16)" stroke-width="2.39" stroke-opacity="1.00" stroke-linejoin="round"/>
<path d="M361.18,125.52 C359.30,127.87 358.34,129.30 357.90,130.72 C356.86,134.06 353.34,150.82 352.54,157.21 C351.74,164.01 350.74,179.03 350.79,183.52 C350.89,190.46 351.65,195.74 352.64,201.12" fill="none" stroke="rgb(229, 0, 16)" stroke-width="2.39" stroke-opacity="1.00" stroke-linejoin="round"/>
<path d="M394.24,37.88 C394.24,37.88 393.19,38.14 393.19,38.14 C390.52,44.26 380.76,83.56 379.08,92.26 C375.79,110.48 372.43,135.75 370.86,151.32 C370.21,159.18 369.48,168.22 369.39,169.39" fill="none" stroke="rgb(229, 0, 16)" stroke-width="2.39" stroke-opacity="1.00" stroke-linejoin="round"/>
<path d="M387.32,81.70 C386.22,82.68 385.41,86.70 384.48,92.30 C383.05,101.05 380.35,117.52 379.09,125.24 C377.53,134.49 375.32,145.77 374.00,152.13 C373.32,155.22 372.47,158.46 372.18,159.46" fill="none" stroke="rgb(229, 0, 16)" stroke-width="2.39" stroke-opacity="1.00" stroke-linejoin="round"/>
<path d="M400.39,65.56 C398.09,68.95 396.47,73.14 395.57,76.37 C391.17,92.29 380.70,153.60 378.32,162.06 C375.40,172.02 367.70,188.79 366.56,191.25" fill="none" stroke="rgb(229, 0, 16)" stroke-width="2.39" stroke-opacity="1.00" stroke-linejoin="round"/>
<path d="M376.55,54.02 C374.71,58.86 372.32,68.29 370.58,77.34 C368.00,91.72 365.48,112.39 364.64,119.97 C364.26,123.91 363.59,131.02 363.31,134.17 C363.26,134.81 363.20,135.44 363.15,136.08" fill="none" stroke="rgb(229, 0, 16)" stroke-width="2.39" stroke-opacity="1.00" stroke-linejoin="round"/>
<path d="M363.10,53.26 C363.10,53.26 362.37,53.41 362.37,53.41 C361.08,55.87 354.13,98.57 353.60,105.16 C353.35,108.34 352.78,121.96 352.73,123.29" fill="none" stroke="rgb(229, 0, 16)" stroke-width="2.39" stroke-opacity="1.00" stroke-linejoin="round"/>
<path d="M349.26,50.18 C349.26,50.18 348.30,47.30 348.30,47.30 C348.10,48.03 347.83,59.84 346.93,72.07 C346.22,80.64 344.93,95.87 344.36,102.53 C343.70,109.44 341.61,120.45 341.01,123.05" fill="none" stroke="rgb(229, 0, 16)" stroke-width="2.39" stroke-opacity="1.00" stroke-linejoin="round"/>
<path d="M330.81,57.87 C330.81,57.87 331.20,57.29 331.20,57.29 C331.87,60.28 333.36,77.75 333.75,84.64 C334.13,91.70 334.99,105.73 335.47,112.68 C336.20,120.15 337.49,130.72 337.83,133.34" fill="none" stroke="rgb(229, 0, 16)" stroke-width="2.39" stroke-opacity="1.00" stroke-linejoin="round"/>
<path d="M343.88,136.28 C343.67,137.18 344.89,141.01 347.18,147.05 C350.03,154.54 353.95,164.89 354.64,166.38 C355.11,167.40 358.29,173.91 358.87,175.10" fill="none" stroke="rgb(229, 0, 16)" stroke-width="2.39" stroke-opacity="1.00" stroke-linejoin="round"/>
<path d="M393.47,145.51 C392.05,146.52 391.65,149.45 391.55,153.27 C391.51,154.97 391.50,157.73 391.55,158.99 C391.59,160.21 391.82,163.73 391.91,165.03" fill="none" stroke="rgb(229, 0, 16)" stroke-width="2.39" stroke-opacity="1.00" stroke-linejoin="round"/>
<path d="M398.08,128.98 C396.25,129.95 394.67,131.31 393.21,133.27 C392.64,134.05 388.21,141.36 386.62,144.02 C381.88,151.91 377.99,156.80 376.74,158.35" fill="none" stroke="rgb(229, 0, 16)" stroke-width="2.39" stroke-opacity="1.00" stroke-linejoin="round"/>
<path d="M388.09,139.36 C387.24,140.37 385.39,142.31 384.05,143.49 C383.57,143.91 382.72,144.60 381.49,145.57" fill="none" stroke="rgb(229, 0, 16)" stroke-width="2.39" stroke-opacity="1.00" stroke-linejoin="round"/>
<path d="M407.31,52.49 C407.31,52.49 408.46,51.72 408.46,51.72 C408.46,52.33 408.46,54.13 408.46,55.32 C408.45,61.08 407.69,77.54 407.12,85.10 C406.42,91.96 405.03,104.39 403.47,112.30 C402.65,116.26 400.99,124.19 400.48,126.00 C400.23,126.88 399.50,129.25 399.22,130.12" fill="none" stroke="rgb(229, 0, 16)" stroke-width="2.39" stroke-opacity="1.00" stroke-linejoin="round"/>
<path d="M423.83,65.17 C423.83,65.17 423.64,63.83 423.64,63.83 C423.64,63.83 422.15,63.25 422.15,63.25 C420.59,63.42 417.95,67.60 415.89,72.11 C414.24,75.85 409.59,89.88 408.07,95.79 C406.46,102.13 405.37,114.60 406.45,118.79 C407.11,121.23 409.44,124.06 410.93,125.69" fill="none" stroke="rgb(229, 0, 16)" stroke-width="2.39" stroke-opacity="1.00" stroke-linejoin="round"/>
<path d="M427.29,52.49 C428.03,52.98 428.07,56.20 427.75,59.78 C427.07,65.90 422.43,85.05 422.35,85.50 C422.27,86.02 422.13,87.18 421.93,88.99" fill="none" stroke="rgb(229, 0, 16)" stroke-width="2.39" stroke-opacity="1.00" stroke-linejoin="round"/>
<path d="M443.82,40.19 C443.82,40.19 443.82,39.99 443.82,39.99 C443.82,39.99 443.63,39.80 443.63,39.80 C443.63,39.80 443.07,39.80 443.07,39.80 C441.87,41.62 433.73,73.40 432.10,77.92 C431.18,80.36 430.22,82.25 428.27,85.86" fill="none" stroke="rgb(229, 0, 16)" stroke-width="2.39" stroke-opacity="1.00" stroke-linejoin="round"/>
<path d="M444.59,52.49 C444.59,52.49 444.21,52.49 444.21,52.49 C443.06,52.98 442.32,57.21 442.28,61.88 C442.28,63.25 442.67,72.26 442.83,73.93 C443.16,77.24 444.44,83.07 445.01,85.56" fill="none" stroke="rgb(229, 0, 16)" stroke-width="2.39" stroke-opacity="1.00" stroke-linejoin="round"/>
<path d="M452.28,54.41 C451.80,54.41 451.32,54.41 450.84,54.41 C450.55,54.41 450.26,54.41 449.97,54.41 C449.97,56.87 440.54,91.66 436.29,107.14 C434.38,113.56 430.93,125.04 429.40,130.11" fill="none" stroke="rgb(229, 0, 16)" stroke-width="2.39" stroke-opacity="1.00" stroke-linejoin="round"/>
<path d="M430.75,83.62 C429.98,86.64 429.98,89.87 430.32,95.26 C431.46,112.90 432.04,129.39 432.53,132.95 C432.80,134.90 433.30,136.72 434.22,139.42" fill="none" stroke="rgb(229, 0, 16)" stroke-width="2.39" stroke-opacity="1.00" stroke-linejoin="round"/>
<path d="M426.14,105.92 C425.63,106.30 424.98,108.40 424.72,111.91 C424.66,112.88 424.27,123.13 424.27,124.35 C424.31,128.31 424.99,132.50 425.31,134.47" fill="none" stroke="rgb(229, 0, 16)" stroke-width="2.39" stroke-opacity="1.00" stroke-linejoin="round"/>
<path d="M419.61,130.90 C419.61,131.49 419.61,132.07 419.61,132.66 C419.64,135.86 420.03,139.24 420.88,143.23 C421.84,147.84 422.07,148.78 422.45,150.13" fill="none" stroke="rgb(229, 0, 16)" stroke-width="2.39" stroke-opacity="1.00" stroke-linejoin="round"/>
<path d="M425.37,168.57 C425.37,168.57 425.27,167.99 425.27,167.99 C424.75,168.18 423.01,172.88 422.20,176.08 C421.95,177.10 421.31,180.05 421.11,181.12 C420.92,182.24 420.72,183.36 420.53,184.48" fill="none" stroke="rgb(229, 0, 16)" stroke-width="2.39" stroke-opacity="1.00" stroke-linejoin="round"/>
<path d="M425.76,185.10 C425.28,185.62 424.99,186.11 424.99,186.76 C424.98,187.56 425.78,199.53 425.73,200.49 C425.70,201.04 425.59,202.27 425.39,204.17" fill="none" stroke="rgb(229, 0, 16)" stroke-width="2.39" stroke-opacity="1.00" stroke-linejoin="round"/>
<path d="M437.67,173.95 C437.63,174.20 438.00,175.12 438.17,175.52 C439.35,178.49 440.09,184.47 440.15,186.58 C440.22,189.19 439.78,196.61 439.38,199.41 C439.22,200.56 438.88,202.09 438.44,203.93" fill="none" stroke="rgb(229, 0, 16)" stroke-width="2.39" stroke-opacity="1.00" stroke-linejoin="round"/>
<path d="M464.96,192.40 C464.96,192.40 463.23,192.50 463.23,192.50 C462.94,193.16 463.65,198.21 464.07,200.98 C464.51,204.42 464.66,212.36 464.48,216.50 C464.36,219.20 463.90,223.77 463.81,224.69" fill="none" stroke="rgb(229, 0, 16)" stroke-width="2.39" stroke-opacity="1.00" stroke-linejoin="round"/>
<path d="M476.11,184.71 C476.11,184.71 476.11,185.29 476.11,185.29 C476.83,186.08 477.37,187.00 477.90,188.52 C479.35,192.83 479.46,206.90 479.37,208.51 C479.17,211.62 478.38,215.99 478.14,217.31" fill="none" stroke="rgb(229, 0, 16)" stroke-width="2.39" stroke-opacity="1.00" stroke-linejoin="round"/>
<path d="M482.64,145.51 C482.64,145.51 482.64,144.55 482.64,144.55 C482.64,144.55 482.77,144.61 482.77,144.61 C483.14,150.02 481.57,165.76 480.50,171.39 C479.18,178.24 475.80,190.34 475.53,191.12 C475.37,191.61 474.97,192.70 474.35,194.39" fill="none" stroke="rgb(229, 0, 16)" stroke-width="2.39" stroke-opacity="1.00" stroke-linejoin="round"/>
<path d="M469.57,109.76 C469.57,109.76 470.63,106.08 470.63,106.08 C471.64,108.01 472.26,111.78 472.07,116.21 C471.58,126.47 467.10,157.29 465.47,168.06 C465.30,169.25 465.13,170.45 464.96,171.65" fill="none" stroke="rgb(229, 0, 16)" stroke-width="2.39" stroke-opacity="1.00" stroke-linejoin="round"/>
<path d="M472.27,68.25 C472.27,68.25 471.88,67.86 471.88,67.86 C471.88,67.86 471.50,67.86 471.50,67.86 C470.38,83.37 468.30,114.26 467.55,129.56 C467.34,136.48 467.03,152.77 467.68,157.70 C468.39,162.52 468.63,163.76 468.99,165.44" fill="none" stroke="rgb(229, 0, 16)" stroke-width="2.39" stroke-opacity="1.00" stroke-linejoin="round"/>
<path d="M483.41,91.69 C483.41,91.69 482.84,91.82 482.84,91.82 C481.97,93.26 481.57,94.10 481.05,95.70 C480.08,98.65 478.37,103.97 476.82,109.43 C474.75,117.23 472.00,128.33 471.33,131.06" fill="none" stroke="rgb(229, 0, 16)" stroke-width="2.39" stroke-opacity="1.00" stroke-linejoin="round"/>
<path d="M473.03,37.50 C473.03,37.50 472.94,36.15 472.94,36.15 C471.21,38.64 468.88,44.60 467.55,48.15 C465.04,55.33 461.30,67.23 459.57,73.49 C457.94,79.73 455.31,93.36 454.52,99.35 C453.91,104.08 453.21,118.52 453.75,124.25 C454.12,127.84 455.06,130.72 455.81,132.60" fill="none" stroke="rgb(229, 0, 16)" stroke-width="2.39" stroke-opacity="1.00" stroke-linejoin="round"/>
<path d="M450.36,99.38 C450.36,99.38 451.22,97.94 451.22,97.94 C452.56,99.87 453.44,104.39 453.83,107.98 C453.95,109.19 454.66,118.13 455.01,122.03 C455.23,124.13 455.59,127.58 455.73,128.94" fill="none" stroke="rgb(229, 0, 16)" stroke-width="2.39" stroke-opacity="1.00" stroke-linejoin="round"/>
<path d="M466.88,49.03 C467.10,56.57 467.67,71.39 468.11,78.34 C468.90,88.02 469.82,91.83 470.44,93.28 C470.60,93.65 470.95,94.40 471.50,95.54" fill="none" stroke="rgb(229, 0, 16)" stroke-width="2.39" stroke-opacity="1.00" stroke-linejoin="round"/>
<path d="M319.67,37.88 C319.67,37.88 317.36,33.92 317.36,33.92 C316.48,45.83 311.32,77.88 308.60,90.13 C307.48,94.87 305.88,100.86 304.54,104.70 C303.99,106.26 301.15,113.57 300.16,116.07" fill="none" stroke="rgb(229, 0, 16)" stroke-width="2.39" stroke-opacity="1.00" stroke-linejoin="round"/>
<path d="M295.07,36.34 C295.07,36.34 294.30,31.79 294.30,31.79 C294.24,36.02 292.92,53.46 292.34,60.47 C291.60,70.45 291.39,78.04 291.41,79.27 C291.46,81.51 291.60,85.02 291.72,87.17" fill="none" stroke="rgb(229, 0, 16)" stroke-width="2.39" stroke-opacity="1.00" stroke-linejoin="round"/>
<path d="M300.45,41.34 C298.75,43.42 297.06,46.84 296.02,50.77 C293.70,59.71 291.39,84.23 291.08,89.89 C290.82,97.81 291.02,104.12 291.07,105.60" fill="none" stroke="rgb(229, 0, 16)" stroke-width="2.39" stroke-opacity="1.00" stroke-linejoin="round"/>
<path d="M307.37,49.80 C307.37,49.80 307.17,49.80 307.17,49.80 C305.98,50.16 303.76,67.63 302.85,75.30 C301.89,85.02 301.73,98.32 302.48,103.35 C303.08,107.21 305.31,115.10 305.52,115.84" fill="none" stroke="rgb(229, 0, 16)" stroke-width="2.39" stroke-opacity="1.00" stroke-linejoin="round"/>
<path d="M286.22,37.11 C285.46,36.99 283.47,37.87 282.78,39.57 C281.42,43.14 278.38,58.51 277.57,65.76 C276.97,71.91 275.96,87.82 275.96,91.40 C275.97,99.21 277.06,110.67 277.87,114.78 C279.08,120.81 282.55,126.82 283.15,127.83" fill="none" stroke="rgb(229, 0, 16)" stroke-width="2.39" stroke-opacity="1.00" stroke-linejoin="round"/>
<path d="M284.69,57.87 C284.69,57.87 282.73,56.43 282.73,56.43 C282.43,57.74 282.26,75.66 282.23,83.96 C282.40,93.06 283.49,108.23 284.78,112.47 C285.11,113.54 285.88,115.51 286.34,116.58" fill="none" stroke="rgb(229, 0, 16)" stroke-width="2.39" stroke-opacity="1.00" stroke-linejoin="round"/>
<path d="M282.77,64.79 C282.56,65.63 288.74,80.10 290.46,87.53 C291.12,90.39 292.16,97.29 292.59,100.82 C292.92,103.53 293.85,108.71 294.12,110.19" fill="none" stroke="rgb(229, 0, 16)" stroke-width="2.39" stroke-opacity="1.00" stroke-linejoin="round"/>
<path d="M274.69,45.18 C274.69,45.18 272.29,44.03 272.29,44.03 C271.81,46.20 272.74,64.87 273.19,69.48 C273.43,71.97 274.46,80.46 274.90,83.96 C275.36,87.62 275.95,92.35 276.08,93.42" fill="none" stroke="rgb(229, 0, 16)" stroke-width="2.39" stroke-opacity="1.00" stroke-linejoin="round"/>
<path d="M261.62,59.02 C261.62,59.02 261.43,59.02 261.43,59.02 C261.43,59.02 261.24,58.83 261.24,58.83 C262.89,61.21 263.98,64.78 264.97,68.47 C266.88,75.67 269.12,84.07 269.45,85.27" fill="none" stroke="rgb(229, 0, 16)" stroke-width="2.39" stroke-opacity="1.00" stroke-linejoin="round"/>
<path d="M259.70,50.95 C259.70,50.95 259.32,50.95 259.32,50.95 C258.85,51.45 258.62,52.05 258.53,53.37 C258.42,55.21 258.26,61.58 258.20,64.78 C258.19,68.13 258.17,74.13 258.16,76.78" fill="none" stroke="rgb(229, 0, 16)" stroke-width="2.39" stroke-opacity="1.00" stroke-linejoin="round"/>
<path d="M235.87,68.63 C235.87,68.63 235.49,68.63 235.49,68.63 C235.62,68.04 237.25,73.63 237.76,77.08 C238.24,80.49 239.62,93.25 240.26,104.43 C240.98,117.43 241.45,122.59 241.62,123.89" fill="none" stroke="rgb(229, 0, 16)" stroke-width="2.39" stroke-opacity="1.00" stroke-linejoin="round"/>
<path d="M241.64,39.42 C241.64,39.42 239.11,39.42 239.11,39.42 C237.76,41.04 236.47,45.17 235.69,48.41 C233.89,56.03 231.83,68.85 231.19,76.01 C230.87,79.68 230.38,97.98 230.55,101.48 C230.97,109.86 232.74,119.54 234.41,124.17 C235.18,126.29 236.94,130.04 237.40,131.00" fill="none" stroke="rgb(229, 0, 16)" stroke-width="2.39" stroke-opacity="1.00" stroke-linejoin="round"/>
<path d="M227.41,35.19 C227.44,35.73 226.66,40.06 226.12,42.98 C225.36,47.11 223.90,55.42 223.38,59.27 C222.89,62.97 222.96,66.88 223.48,70.98" fill="none" stroke="rgb(229, 0, 16)" stroke-width="2.39" stroke-opacity="1.00" stroke-linejoin="round"/>
<path d="M224.34,80.93 C224.34,80.93 223.96,77.22 223.96,77.22 C223.94,82.05 223.68,99.71 223.76,102.97 C223.82,105.39 224.51,111.81 224.95,113.60 C225.22,114.73 226.09,117.32 226.69,119.02" fill="none" stroke="rgb(229, 0, 16)" stroke-width="2.39" stroke-opacity="1.00" stroke-linejoin="round"/>
<path d="M206.66,47.11 C206.66,47.11 206.20,47.34 206.20,47.34 C205.82,51.72 206.02,62.39 206.82,73.36 C207.63,82.77 209.64,94.41 210.19,97.15 C211.82,105.10 214.64,111.90 217.51,117.63" fill="none" stroke="rgb(229, 0, 16)" stroke-width="2.39" stroke-opacity="1.00" stroke-linejoin="round"/>
<path d="M205.89,41.34 C205.89,41.34 204.63,40.76 204.63,40.76 C204.63,40.76 203.65,41.04 203.65,41.04 C201.92,46.15 200.37,61.87 200.33,68.29 C200.32,74.16 202.11,84.30 203.84,87.89 C204.32,88.89 207.29,94.61 207.83,95.65" fill="none" stroke="rgb(229, 0, 16)" stroke-width="2.39" stroke-opacity="1.00" stroke-linejoin="round"/>
<path d="M195.13,84.78 C194.61,90.52 195.23,99.63 195.56,101.29 C195.66,101.79 195.91,102.89 196.32,104.60" fill="none" stroke="rgb(229, 0, 16)" stroke-width="2.39" stroke-opacity="1.00" stroke-linejoin="round"/>
<path d="M218.19,86.31 C216.76,86.33 212.77,86.37 212.10,86.41 C209.03,86.60 203.30,88.98 200.74,91.09 C195.42,95.58 183.95,114.67 179.90,122.85 C177.89,126.96 176.57,130.49 176.18,133.46 C175.98,135.09 176.13,136.27 176.64,137.73" fill="none" stroke="rgb(229, 0, 16)" stroke-width="2.39" stroke-opacity="1.00" stroke-linejoin="round"/>
<path d="M205.50,105.92 C204.32,106.20 202.77,109.28 202.66,112.92 C202.57,117.80 204.27,129.59 206.37,136.32 C207.33,139.36 209.97,146.08 210.50,147.43" fill="none" stroke="rgb(229, 0, 16)" stroke-width="2.39" stroke-opacity="1.00" stroke-linejoin="round"/>
<path d="M252.78,67.48 C252.78,67.48 252.59,66.13 252.59,66.13 C252.59,66.13 252.27,66.00 252.27,66.00 C251.10,69.10 249.33,81.54 248.71,90.54 C248.12,100.77 247.95,108.16 248.95,116.39 C249.39,119.79 250.18,123.69 250.49,125.02" fill="none" stroke="rgb(229, 0, 16)" stroke-width="2.39" stroke-opacity="1.00" stroke-linejoin="round"/>
<path d="M265.47,95.54 C264.73,96.19 264.67,98.87 265.26,103.18 C265.96,108.08 267.01,121.10 267.16,122.25 C267.43,124.41 267.87,126.95 268.16,128.21" fill="none" stroke="rgb(229, 0, 16)" stroke-width="2.39" stroke-opacity="1.00" stroke-linejoin="round"/>
<path d="M311.98,194.71 C312.07,196.92 312.38,202.45 312.59,205.77 C313.43,217.69 315.03,231.53 316.62,236.78 C316.86,237.54 317.94,240.54 318.26,241.43" fill="none" stroke="rgb(229, 0, 16)" stroke-width="2.39" stroke-opacity="1.00" stroke-linejoin="round"/>
<path d="M163.99,133.98 C162.12,133.83 155.46,135.46 152.49,136.38 C147.92,137.83 122.04,152.01 121.23,152.53 C119.15,153.87 116.97,155.48 116.08,156.28" fill="none" stroke="rgb(229, 0, 16)" stroke-width="2.39" stroke-opacity="1.00" stroke-linejoin="round"/>
<path d="M229.72,109.38 C228.21,109.41 224.01,109.56 221.17,110.63 C220.53,110.87 184.28,124.17 180.09,126.57 C178.13,127.69 177.31,128.62 176.97,129.80" fill="none" stroke="rgb(229, 0, 16)" stroke-width="2.39" stroke-opacity="1.00" stroke-linejoin="round"/>
<path d="M180.14,132.44 C180.14,132.44 180.14,131.48 180.14,131.48 C180.13,131.40 198.62,128.83 207.06,127.57 C214.65,126.53 229.43,124.61 236.60,123.73 C237.58,123.63 240.66,123.36 241.58,123.28" fill="none" stroke="rgb(229, 0, 16)" stroke-width="2.39" stroke-opacity="1.00" stroke-linejoin="round"/>
</g>
</svg>
