<?xml version="1.0" encoding="UTF-8" standalone="no"?>
<!DOCTYPE svg PUBLIC "-//W3C//DTD SVG 1.1//EN" "http://www.w3.org/Graphics/SVG/1.1/DTD/svg11.dtd">
<svg width="128.40" height="181.68" viewBox="0.00 0.00 535.00 757.00" xmlns="http://www.w3.org/2000/svg" xmlns:xlink="http://www.w3.org/1999/xlink">
<g stroke-linecap="round" transform="translate(44.00, 155.00)" id="121-번개-4">
<path d="M169.58,109.36 C169.58,109.36 166.87,110.24 166.87,110.24 C167.08,110.16 167.39,110.02 168.11,109.63 C171.11,107.98 184.29,98.71 187.12,96.35 C186.59,96.66 185.12,95.81 183.83,93.46 C183.54,92.94 181.32,88.63 180.72,88.17 C180.72,88.17 159.90,115.63 159.90,115.63 C164.94,112.59 172.83,108.59 178.90,106.21 C187.24,103.01 189.07,102.83 190.11,102.96 C191.13,105.84 195.61,110.71 197.76,112.41 C197.57,112.59 194.48,114.17 191.06,116.96 C180.97,125.62 160.90,142.30 158.10,145.24 C158.10,145.24 183.54,109.90 183.54,109.90 C182.10,110.38 178.71,111.50 176.75,112.14 C173.37,113.19 167.82,114.90 165.64,115.57" fill="none" stroke="rgb(0, 160, 232)" stroke-width="2.39" stroke-opacity="1.00" stroke-linejoin="round"/>
<path d="M170.83,114.70 C170.83,114.70 169.41,114.07 169.41,114.07 C168.05,114.52 163.12,116.23 160.52,116.80 C160.30,116.86 160.04,116.95 159.75,117.07" fill="none" stroke="rgb(0, 160, 232)" stroke-width="2.39" stroke-opacity="1.00" stroke-linejoin="round"/>
</g>
</svg>
