<?xml version="1.0" encoding="UTF-8" standalone="no"?>
<!DOCTYPE svg PUBLIC "-//W3C//DTD SVG 1.1//EN" "http://www.w3.org/Graphics/SVG/1.1/DTD/svg11.dtd">
<svg width="128.40" height="181.68" viewBox="0.00 0.00 535.00 757.00" xmlns="http://www.w3.org/2000/svg" xmlns:xlink="http://www.w3.org/1999/xlink">
<g stroke-linecap="round" transform="translate(44.00, 155.00)" id="121-구름-3">
<path d="M84.56,115.19 C84.56,115.19 82.57,115.51 82.57,115.51 C82.95,117.20 86.56,121.34 88.34,122.74 C89.16,123.37 91.64,123.79 92.99,123.04 C94.10,122.38 94.21,119.14 93.20,117.95 C92.07,116.75 85.61,115.62 83.78,115.06 C79.59,113.81 69.41,113.74 64.70,114.31 C62.50,114.59 56.72,116.44 54.55,117.71 C52.03,119.23 48.21,123.51 47.80,125.37 C47.65,126.09 47.80,129.11 47.85,130.01" fill="none" stroke="rgb(255, 0, 255)" stroke-width="2.39" stroke-opacity="1.00" stroke-linejoin="round"/>
<path d="M59.97,136.94 C58.54,135.92 55.90,133.95 55.44,133.70 C54.03,132.97 46.01,132.47 44.19,132.69 C41.87,133.00 34.84,135.38 31.55,136.50 C28.31,137.63 23.93,140.70 22.42,143.01 C21.56,144.40 20.56,147.34 20.53,148.77 C20.55,150.25 21.60,153.48 22.54,154.73 C24.22,156.89 28.92,159.98 30.42,160.66 C32.05,161.37 37.11,162.57 40.26,162.57 C46.14,162.53 54.17,158.67 54.08,158.85 C54.83,163.75 55.67,167.18 57.29,169.09 C58.87,170.85 63.78,172.71 66.29,173.12 C68.73,173.48 74.04,172.27 76.39,170.76 C78.73,169.21 82.45,165.79 82.76,164.07 C83.23,161.04 83.18,158.92 82.45,158.16 C81.26,158.86 80.66,159.56 80.58,160.60 C80.52,161.71 81.00,163.47 81.67,164.36 C83.00,166.04 88.02,167.63 91.85,168.13 C95.83,168.61 101.98,168.60 105.24,168.12 C108.35,167.64 112.38,166.23 114.43,164.95 C116.60,163.53 119.56,159.96 119.94,158.09 C120.19,156.50 119.90,154.95 119.24,154.47 C118.30,154.47 116.60,156.08 116.37,157.40 C116.16,158.86 118.15,161.43 120.05,161.85 C121.27,162.10 128.91,162.19 130.20,162.07 C133.83,161.72 138.39,160.39 142.73,158.56 C147.33,156.58 153.12,153.24 155.12,150.87 C157.31,148.18 158.52,142.03 158.58,138.78 C158.57,137.24 157.88,134.21 157.18,132.95 C155.74,130.47 149.25,126.01 146.25,124.77 C142.80,123.42 135.88,123.20 132.11,124.21 C129.04,125.08 128.02,125.97 127.80,126.52 C128.36,127.29 131.65,128.25 134.46,127.69 C137.87,126.96 145.04,123.16 146.48,121.41 C147.45,120.15 148.53,115.40 148.60,112.96 C148.62,111.46 148.21,108.69 147.69,107.45 C147.03,105.95 144.89,103.50 143.36,102.52 C140.42,100.72 133.45,99.96 129.64,100.69 C126.10,101.41 118.60,104.16 115.63,105.92 C112.45,107.84 107.80,112.42 107.55,114.27 C107.49,114.99 108.85,116.18 109.70,116.23 C112.28,116.32 116.76,114.13 117.81,112.30 C117.81,110.91 115.94,108.47 114.28,107.64 C110.55,105.83 96.79,104.54 94.35,105.17 C92.59,105.66 88.42,108.75 86.74,110.43 C84.92,112.30 83.24,115.17 82.52,116.52 C82.25,117.02 81.99,117.53 81.72,118.03" fill="none" stroke="rgb(255, 0, 255)" stroke-width="2.39" stroke-opacity="1.00" stroke-linejoin="round"/>
</g>
</svg>
