<?xml version="1.0" encoding="UTF-8" standalone="no"?>
<!DOCTYPE svg PUBLIC "-//W3C//DTD SVG 1.1//EN" "http://www.w3.org/Graphics/SVG/1.1/DTD/svg11.dtd">
<svg width="128.40" height="181.68" viewBox="0.00 0.00 535.00 757.00" xmlns="http://www.w3.org/2000/svg" xmlns:xlink="http://www.w3.org/1999/xlink">
<g stroke-linecap="round" transform="translate(44.00, 155.00)" id="121-사람-2">
<path d="M14.47,245.83 C14.47,245.83 14.85,246.22 14.85,246.22 C14.85,246.22 14.81,246.50 14.81,246.50 C12.98,247.70 8.44,252.48 7.35,254.11 C5.68,256.66 3.95,262.70 3.80,264.92 C3.69,267.01 4.65,270.77 5.70,272.49 C6.19,273.27 14.31,281.43 15.02,281.89 C16.49,282.82 19.19,283.55 20.81,283.60 C23.81,283.60 26.16,282.67 26.20,282.40 C26.20,282.40 25.95,297.90 25.95,297.90 C25.66,298.02 20.04,298.95 15.39,300.63 C11.33,302.11 10.20,302.17 8.31,301.91 C7.28,300.70 6.97,297.61 6.50,290.62 C6.26,287.34 6.03,285.93 5.81,284.86 C5.81,284.86 6.57,281.08 6.57,281.08 C5.59,279.99 2.47,280.76 1.51,281.36 C1.99,278.90 1.51,276.43 0.36,275.80 C-0.14,275.54 -1.20,275.45 -2.83,275.43 C-2.83,275.43 -3.33,273.48 -3.33,273.48 C-3.92,273.07 -5.65,272.79 -7.08,273.00 C-8.57,273.23 -10.51,275.82 -10.41,276.78 C-10.05,279.10 -6.05,277.19 -5.71,276.33 C-5.64,276.16 -5.58,275.98 -5.52,275.81" fill="none" stroke="rgb(0, 255, 0)" stroke-width="2.39" stroke-opacity="1.00" stroke-linejoin="round"/>
<path d="M-9.36,278.50 C-9.36,278.50 -9.36,278.31 -9.36,278.31 C-9.36,278.31 -9.56,278.12 -9.56,278.12 C-9.56,278.12 -9.75,278.12 -9.75,278.12 C-9.75,278.12 -10.52,277.73 -10.52,277.73" fill="none" stroke="rgb(0, 255, 0)" stroke-width="2.39" stroke-opacity="1.00" stroke-linejoin="round"/>
<path d="M-15.90,275.04 C-15.90,276.49 -15.89,278.86 -15.60,279.63 C-14.84,281.67 -13.58,284.10 -12.98,284.53 C-10.04,286.49 -7.39,284.54 -6.75,283.83 C-6.75,283.83 -7.06,283.50 -7.06,283.50" fill="none" stroke="rgb(0, 255, 0)" stroke-width="2.39" stroke-opacity="1.00" stroke-linejoin="round"/>
<path d="M-8.21,285.81 C-8.21,285.81 -10.07,287.09 -10.07,287.09 C-9.87,288.78 -6.61,301.28 -5.46,307.16 C-4.97,309.23 -4.42,311.59 -4.30,312.31 C-4.30,312.31 21.09,308.95 21.09,308.95 C20.53,309.16 17.55,327.75 17.60,329.18 C17.64,330.03 18.11,331.08 18.57,331.55 C20.23,332.97 23.88,333.40 28.63,332.97 C42.12,331.77 47.11,331.72 48.58,331.57 C48.58,331.57 43.03,302.96 43.03,302.96 C48.40,306.13 73.02,303.67 75.21,302.94 C75.90,301.67 75.61,295.32 74.60,291.99 C74.34,291.16 73.54,290.38 73.02,290.18 C72.48,290.03 56.37,294.75 49.35,295.80 C42.07,296.93 38.21,298.25 36.65,298.92 C36.65,298.92 41.78,279.25 41.78,279.25 C42.64,278.95 46.94,277.67 49.34,276.46 C51.85,275.16 56.36,271.74 57.24,269.40 C57.97,267.22 56.59,261.32 54.85,258.34 C53.43,256.02 51.21,253.18 49.35,251.63 C48.39,250.83 45.99,249.27 45.22,248.67 C44.75,248.29 44.13,246.20 44.04,246.00 C43.44,244.73 38.56,242.68 35.35,242.39 C32.77,242.18 29.34,242.42 27.46,242.66 C27.46,242.66 44.16,238.83 44.16,238.83 C44.16,238.83 39.65,243.56 39.65,243.56 C39.65,243.56 47.54,244.15 47.54,244.15 C47.54,244.15 46.21,246.04 46.21,246.04 C46.21,246.04 50.56,246.60 50.56,246.60" fill="none" stroke="rgb(0, 255, 0)" stroke-width="2.39" stroke-opacity="1.00" stroke-linejoin="round"/>
<path d="M51.37,248.52 C49.11,248.42 41.73,254.06 40.76,255.95 C41.63,256.67 42.49,256.87 43.62,256.33 C44.27,256.03 53.82,250.72 55.93,250.31 C55.93,250.31 48.84,253.90 48.84,253.90 C48.84,253.90 54.75,254.16 54.75,254.16 C54.75,254.16 45.59,244.59 45.59,244.59 C47.08,245.17 50.18,247.56 52.23,250.18 C56.69,256.04 57.62,261.27 57.89,263.91 C57.89,263.91 56.75,264.28 56.75,264.28" fill="none" stroke="rgb(0, 255, 0)" stroke-width="2.39" stroke-opacity="1.00" stroke-linejoin="round"/>
<path d="M25.61,250.83 C25.42,250.83 25.23,250.83 25.04,250.83 C24.82,250.83 24.69,250.83 24.65,250.83 C24.12,250.80 20.23,252.16 18.36,253.68 C16.17,255.48 12.68,260.32 11.81,263.33 C11.96,263.30 14.15,258.25 15.23,256.82 C15.96,255.88 17.96,254.48 19.18,254.00 C21.00,253.32 25.57,253.45 25.83,253.52 C25.83,253.52 24.82,250.96 24.82,250.96 C24.82,250.96 15.62,254.67 15.62,254.67" fill="none" stroke="rgb(0, 255, 0)" stroke-width="2.39" stroke-opacity="1.00" stroke-linejoin="round"/>
<path d="M18.70,260.82 C18.70,260.82 18.70,260.28 18.70,260.28 C18.70,260.28 17.30,260.31 17.30,260.31 C16.21,262.38 16.13,264.51 16.95,265.09 C17.93,265.74 20.83,265.28 21.85,264.33 C22.76,263.43 22.91,261.38 22.24,260.68 C21.66,260.08 21.11,259.73 20.60,259.62 C20.19,259.54 19.30,259.55 17.93,259.67" fill="none" stroke="rgb(0, 255, 0)" stroke-width="2.39" stroke-opacity="1.00" stroke-linejoin="round"/>
<path d="M46.37,262.74 C46.37,262.74 45.52,260.57 45.52,260.57 C44.43,262.57 44.04,263.62 44.15,264.61 C44.35,266.34 45.79,268.10 46.86,268.11 C47.91,268.07 48.91,266.03 48.63,264.45 C48.48,263.65 47.84,262.55 46.61,260.81 C46.61,260.81 44.51,260.43 44.51,260.43" fill="none" stroke="rgb(0, 255, 0)" stroke-width="2.39" stroke-opacity="1.00" stroke-linejoin="round"/>
<path d="M32.15,263.90 C32.15,263.90 30.87,263.57 30.87,263.57 C30.87,263.57 25.97,271.69 25.97,271.69 C27.51,272.10 33.26,271.15 33.86,270.38 C34.48,269.40 34.18,266.84 33.77,266.08 C33.57,265.72 33.07,265.15 32.27,264.38" fill="none" stroke="rgb(0, 255, 0)" stroke-width="2.39" stroke-opacity="1.00" stroke-linejoin="round"/>
<path d="M38.30,275.81 C38.24,275.69 36.63,274.95 35.13,274.76 C34.61,274.69 22.98,276.71 22.42,276.87 C22.41,277.03 25.25,278.80 27.02,278.79 C28.05,278.78 31.27,278.03 32.66,277.68 C33.28,277.53 35.83,277.12 36.76,276.97" fill="none" stroke="rgb(0, 255, 0)" stroke-width="2.39" stroke-opacity="1.00" stroke-linejoin="round"/>
<path d="M58.29,257.75 C55.18,257.78 54.85,256.41 54.86,256.02 C55.28,255.34 57.86,254.57 59.24,254.73 C60.86,254.97 62.94,258.21 63.29,260.82 C63.57,263.17 62.23,266.31 60.58,267.77 C60.22,268.08 57.75,270.05 57.17,270.53 C56.93,270.74 56.53,271.09 55.98,271.58" fill="none" stroke="rgb(0, 255, 0)" stroke-width="2.39" stroke-opacity="1.00" stroke-linejoin="round"/>
<path d="M41.37,241.60 C41.37,241.60 41.18,240.16 41.18,240.16 C39.90,239.67 39.04,239.38 38.59,239.30 C36.94,239.01 32.42,239.87 30.03,241.12 C26.94,242.77 23.37,244.86 22.22,245.54 C22.22,245.54 29.87,240.13 29.87,240.13 C29.69,239.35 28.38,239.13 26.19,239.66 C25.46,239.85 20.06,242.04 18.31,242.76" fill="none" stroke="rgb(0, 255, 0)" stroke-width="2.39" stroke-opacity="1.00" stroke-linejoin="round"/>
<path d="M75.97,290.80 C76.01,290.42 76.01,290.10 75.97,289.84 C75.92,289.59 75.77,289.03 75.52,288.18 C79.12,286.58 84.05,286.73 84.74,287.61 C85.22,288.35 84.71,290.83 82.96,292.49 C81.19,294.12 78.90,294.43 78.22,294.34 C78.97,293.05 83.53,292.29 85.19,292.86 C85.99,293.16 86.91,293.92 87.08,294.45 C87.21,294.94 86.89,296.32 86.40,296.80 C84.86,298.24 79.76,300.09 78.79,300.31 C78.58,300.17 83.31,299.71 86.27,300.53 C87.12,300.78 87.62,301.27 88.00,301.92 C87.68,303.21 84.77,304.70 82.03,304.92 C80.92,305.01 79.81,304.96 79.34,304.86 C77.68,305.13 76.56,305.21 75.98,305.10 C75.29,304.96 72.19,303.00 70.97,302.34" fill="none" stroke="rgb(0, 255, 0)" stroke-width="2.39" stroke-opacity="1.00" stroke-linejoin="round"/>
<path d="M37.53,332.70 C37.53,332.70 35.80,333.76 35.80,333.76 C35.59,334.83 35.61,335.72 35.92,338.11 C36.13,339.93 35.04,359.27 35.22,363.55 C35.38,366.92 35.61,368.26 35.80,368.80 C36.01,368.86 39.56,366.74 43.32,365.94 C45.55,365.47 50.73,364.94 51.96,364.69 C51.96,364.69 46.23,333.53 46.23,333.53 C46.23,333.53 46.76,335.78 46.76,335.78" fill="none" stroke="rgb(0, 255, 0)" stroke-width="2.39" stroke-opacity="1.00" stroke-linejoin="round"/>
<path d="M35.99,370.76 C35.70,370.76 34.81,370.77 34.68,370.76 C33.97,370.74 33.29,370.89 32.87,371.37 C31.46,373.02 30.58,379.05 31.39,380.48 C32.25,381.82 35.64,383.04 38.20,383.29 C40.14,383.47 45.63,382.82 47.02,382.30 C48.98,381.54 51.12,380.36 51.88,379.59 C52.60,378.79 53.58,376.61 53.84,375.02 C54.11,373.31 53.58,370.44 52.78,368.28 C52.07,366.54 50.15,365.34 47.52,363.84" fill="none" stroke="rgb(0, 255, 0)" stroke-width="2.39" stroke-opacity="1.00" stroke-linejoin="round"/>
<path d="M26.77,333.85 C26.77,333.85 25.28,335.30 25.28,335.30 C26.10,337.26 28.25,342.72 28.72,346.18 C29.58,352.90 28.13,366.63 27.22,367.59 C26.22,368.52 16.73,369.37 15.84,368.76 C15.84,368.76 17.73,333.13 17.73,333.13 C17.73,333.13 18.31,332.70 18.31,332.70" fill="none" stroke="rgb(0, 255, 0)" stroke-width="2.39" stroke-opacity="1.00" stroke-linejoin="round"/>
<path d="M16.39,373.06 C16.21,372.82 15.35,372.24 14.72,372.01 C13.38,371.58 7.35,373.23 4.75,375.87 C3.76,376.92 3.41,378.80 3.92,379.81 C4.48,380.78 6.59,382.61 7.81,383.13 C9.17,383.67 12.12,383.81 13.92,383.45 C17.02,382.79 23.24,379.54 24.40,377.81 C24.86,377.07 25.44,374.79 25.38,373.80 C25.23,372.03 24.75,370.24 24.10,369.53 C23.79,369.20 23.14,368.46 22.15,367.30" fill="none" stroke="rgb(0, 255, 0)" stroke-width="2.39" stroke-opacity="1.00" stroke-linejoin="round"/>
</g>
</svg>
