<?xml version="1.0" encoding="UTF-8" standalone="no"?>
<!DOCTYPE svg PUBLIC "-//W3C//DTD SVG 1.1//EN" "http://www.w3.org/Graphics/SVG/1.1/DTD/svg11.dtd">
<svg width="128.40" height="181.68" viewBox="0.00 0.00 535.00 757.00" xmlns="http://www.w3.org/2000/svg" xmlns:xlink="http://www.w3.org/1999/xlink">
<g stroke-linecap="round" transform="translate(44.00, 155.00)" id="122-비">
<path d="M55.96,104.90 C55.96,104.90 54.61,105.54 54.61,105.54 C54.61,105.54 54.43,104.10 54.43,104.10 C51.93,104.19 46.99,111.78 41.68,120.82 C39.49,124.50 35.50,134.48 34.51,137.01" fill="none" stroke="rgb(0, 255, 0)" stroke-width="2.32" stroke-opacity="1.00" stroke-linejoin="round"/>
<path d="M57.32,110.00 C57.32,110.00 56.47,110.00 56.47,110.00 C56.27,110.32 56.30,114.84 56.41,115.63 C56.47,116.15 56.67,117.17 56.99,118.69" fill="none" stroke="rgb(0, 255, 0)" stroke-width="2.32" stroke-opacity="1.00" stroke-linejoin="round"/>
<path d="M55.96,96.41 C54.35,96.81 52.92,97.11 52.78,97.21 C52.20,97.62 48.31,102.73 47.44,104.51 C47.24,104.94 46.86,105.79 46.32,107.07" fill="none" stroke="rgb(0, 255, 0)" stroke-width="2.32" stroke-opacity="1.00" stroke-linejoin="round"/>
<path d="M51.21,80.43 C51.21,80.43 50.09,79.75 50.09,79.75 C49.86,80.39 49.74,81.11 49.65,82.64 C49.35,87.62 49.31,89.45 49.36,90.93" fill="none" stroke="rgb(0, 255, 0)" stroke-width="2.32" stroke-opacity="1.00" stroke-linejoin="round"/>
<path d="M62.08,78.73 C62.08,78.73 61.23,78.90 61.23,78.90 C61.02,80.17 61.24,83.91 61.30,84.74 C61.41,85.91 61.51,87.07 61.61,88.24" fill="none" stroke="rgb(0, 255, 0)" stroke-width="2.32" stroke-opacity="1.00" stroke-linejoin="round"/>
<path d="M42.03,76.69 C40.65,76.65 39.78,76.65 39.41,76.69 C38.18,76.86 35.63,79.80 34.59,81.60 C33.39,83.72 30.83,89.24 29.98,91.36 C29.04,93.69 28.25,96.93 27.94,98.30" fill="none" stroke="rgb(0, 255, 0)" stroke-width="2.32" stroke-opacity="1.00" stroke-linejoin="round"/>
<path d="M30.14,62.76 C28.87,63.15 26.50,64.14 26.19,64.24 C24.46,64.83 19.38,67.42 17.76,68.85 C15.67,70.72 11.53,76.45 9.02,80.56 C8.17,81.96 4.93,87.67 4.35,88.69" fill="none" stroke="rgb(0, 255, 0)" stroke-width="2.32" stroke-opacity="1.00" stroke-linejoin="round"/>
<path d="M16.54,56.64 C16.06,56.61 15.10,57.16 13.74,58.34 C6.86,64.34 -3.01,76.48 -3.55,77.11 C-3.92,77.53 -4.74,78.45 -6.02,79.89" fill="none" stroke="rgb(0, 255, 0)" stroke-width="2.32" stroke-opacity="1.00" stroke-linejoin="round"/>
<path d="M-11.32,81.11 C-11.32,81.11 -12.51,80.69 -12.51,80.69 C-12.99,82.09 -16.06,96.27 -17.85,101.10 C-18.85,103.80 -20.66,108.97 -21.18,110.46" fill="none" stroke="rgb(0, 255, 0)" stroke-width="2.32" stroke-opacity="1.00" stroke-linejoin="round"/>
<path d="M7.03,110.00 C5.74,109.96 4.91,110.07 4.34,110.51 C2.02,112.31 -4.09,121.42 -7.18,127.97 C-8.67,131.13 -9.91,134.93 -10.28,136.27" fill="none" stroke="rgb(0, 255, 0)" stroke-width="2.32" stroke-opacity="1.00" stroke-linejoin="round"/>
<path d="M14.50,129.71 C14.50,129.71 14.33,128.86 14.33,128.86 C13.45,128.74 12.83,128.84 12.19,129.39 C9.04,132.13 3.18,142.08 -1.64,152.03 C-9.12,168.06 -9.70,173.51 -9.75,175.29" fill="none" stroke="rgb(0, 255, 0)" stroke-width="2.32" stroke-opacity="1.00" stroke-linejoin="round"/>
<path d="M31.84,136.51 C31.09,136.73 30.55,136.90 30.21,137.02 C28.82,137.49 27.00,137.54 26.27,137.62 C24.73,137.80 21.17,141.67 18.98,144.88 C15.26,150.41 7.30,163.50 5.50,167.61 C3.88,171.33 2.23,176.51 1.58,179.06" fill="none" stroke="rgb(0, 255, 0)" stroke-width="2.32" stroke-opacity="1.00" stroke-linejoin="round"/>
<path d="M49.85,153.16 C48.36,153.12 47.39,153.18 46.93,153.33 C45.54,153.79 41.33,158.87 39.87,161.36 C38.40,163.92 35.49,170.56 34.84,173.14 C34.26,175.53 34.06,178.76 34.02,180.30" fill="none" stroke="rgb(0, 255, 0)" stroke-width="2.32" stroke-opacity="1.00" stroke-linejoin="round"/>
<path d="M98.11,128.35 C97.72,127.94 97.24,127.59 96.46,127.43 C92.33,126.62 81.27,128.93 75.38,130.97 C69.82,132.89 66.21,134.03 63.81,134.77 C63.54,134.86 63.00,135.06 62.19,135.37" fill="none" stroke="rgb(0, 255, 0)" stroke-width="2.32" stroke-opacity="1.00" stroke-linejoin="round"/>
<path d="M89.27,107.28 C89.27,107.28 89.10,106.43 89.10,106.43 C88.41,106.61 87.76,107.87 86.87,110.97 C84.88,118.14 80.44,134.37 80.29,135.43 C80.22,135.96 80.17,136.90 80.16,138.24" fill="none" stroke="rgb(0, 255, 0)" stroke-width="2.32" stroke-opacity="1.00" stroke-linejoin="round"/>
<path d="M95.73,114.76 C95.73,114.76 94.78,114.76 94.78,114.76 C94.70,114.84 93.78,126.56 93.58,129.23 C93.52,130.24 93.42,132.02 93.39,132.80" fill="none" stroke="rgb(0, 255, 0)" stroke-width="2.32" stroke-opacity="1.00" stroke-linejoin="round"/>
<path d="M88.93,79.41 C88.32,79.71 86.38,80.38 85.97,80.71 C84.89,81.57 80.69,87.12 79.55,88.74 C78.06,90.88 76.28,93.66 75.85,94.34" fill="none" stroke="rgb(0, 255, 0)" stroke-width="2.32" stroke-opacity="1.00" stroke-linejoin="round"/>
<path d="M95.73,65.48 C95.51,65.27 95.34,65.13 95.22,65.06 C94.72,64.76 93.79,64.56 92.79,64.49 C91.67,65.11 89.19,76.83 87.60,86.95 C87.12,90.22 87.08,93.01 87.13,93.86" fill="none" stroke="rgb(0, 255, 0)" stroke-width="2.32" stroke-opacity="1.00" stroke-linejoin="round"/>
<path d="M106.26,85.53 C106.26,86.35 106.25,86.51 105.92,87.12 C105.10,88.65 103.90,90.86 103.18,92.11 C102.47,93.33 101.76,94.71 100.58,97.13" fill="none" stroke="rgb(0, 255, 0)" stroke-width="2.32" stroke-opacity="1.00" stroke-linejoin="round"/>
<path d="M117.48,63.44 C117.48,63.44 116.97,61.91 116.97,61.91 C116.38,62.62 116.44,68.04 116.48,71.17 C116.55,73.35 116.69,77.00 116.75,78.48" fill="none" stroke="rgb(0, 255, 0)" stroke-width="2.32" stroke-opacity="1.00" stroke-linejoin="round"/>
<path d="M124.61,80.09 C124.61,80.09 124.52,79.24 124.52,79.24 C124.52,79.24 124.16,78.90 124.16,78.90 C123.67,79.11 122.88,80.12 122.24,81.67 C121.07,84.53 120.03,90.29 119.77,91.72" fill="none" stroke="rgb(0, 255, 0)" stroke-width="2.32" stroke-opacity="1.00" stroke-linejoin="round"/>
<path d="M117.48,101.84 C117.28,101.92 117.11,101.97 116.97,102.01 C115.48,102.49 114.32,104.39 112.95,107.91 C110.34,114.63 105.78,129.12 105.23,132.98 C104.97,134.87 104.75,138.06 104.70,139.99" fill="none" stroke="rgb(0, 255, 0)" stroke-width="2.32" stroke-opacity="1.00" stroke-linejoin="round"/>
<path d="M126.65,102.52 C126.65,102.52 126.60,99.61 126.60,99.61 C126.49,99.48 125.68,101.90 124.79,111.31 C124.62,113.15 124.45,115.43 124.40,116.54" fill="none" stroke="rgb(0, 255, 0)" stroke-width="2.32" stroke-opacity="1.00" stroke-linejoin="round"/>
<path d="M131.41,108.98 C131.41,108.98 130.73,108.64 130.73,108.64 C131.20,111.25 132.24,116.74 132.80,119.62 C134.14,126.24 135.98,135.47 136.68,139.51" fill="none" stroke="rgb(0, 255, 0)" stroke-width="2.32" stroke-opacity="1.00" stroke-linejoin="round"/>
<path d="M112.38,143.30 C112.38,143.30 113.96,140.70 113.96,140.70 C113.78,140.87 113.61,141.02 113.45,141.12 C112.20,141.99 109.33,141.93 108.28,142.62 C104.63,145.14 94.27,165.68 92.55,169.27" fill="none" stroke="rgb(0, 255, 0)" stroke-width="2.32" stroke-opacity="1.00" stroke-linejoin="round"/>
<path d="M96.75,146.36 C96.41,146.35 95.69,146.44 95.30,146.62 C94.29,147.12 91.72,159.27 90.51,165.06 C89.52,169.44 83.97,190.95 83.67,193.09" fill="none" stroke="rgb(0, 255, 0)" stroke-width="2.32" stroke-opacity="1.00" stroke-linejoin="round"/>
<path d="M89.95,153.50 C89.95,153.50 89.95,153.67 89.95,153.67 C89.95,153.67 89.48,154.18 89.48,154.18 C82.98,154.18 76.06,156.93 72.67,158.47 C71.61,158.94 70.55,159.40 69.49,159.87" fill="none" stroke="rgb(0, 255, 0)" stroke-width="2.32" stroke-opacity="1.00" stroke-linejoin="round"/>
<path d="M76.36,152.48 C76.74,151.98 77.30,151.19 77.37,150.95 C77.41,150.83 77.40,150.66 77.33,150.44 C76.20,150.22 69.06,155.90 66.16,159.81 C64.42,162.19 51.16,184.28 47.13,190.20" fill="none" stroke="rgb(0, 255, 0)" stroke-width="2.32" stroke-opacity="1.00" stroke-linejoin="round"/>
<path d="M76.02,182.05 C75.41,182.08 75.00,182.08 74.78,182.05 C74.37,181.98 73.24,181.70 72.29,181.90 C71.66,183.64 71.69,199.49 72.07,204.79 C72.35,208.44 73.07,212.75 73.93,217.21" fill="none" stroke="rgb(0, 255, 0)" stroke-width="2.32" stroke-opacity="1.00" stroke-linejoin="round"/>
<path d="M106.60,170.49 C105.40,170.46 104.65,170.46 104.35,170.49 C103.81,170.54 94.57,172.18 93.39,172.41 C90.39,173.01 86.18,174.86 82.93,176.90 C81.58,177.75 79.25,179.24 78.27,179.88" fill="none" stroke="rgb(0, 255, 0)" stroke-width="2.32" stroke-opacity="1.00" stroke-linejoin="round"/>
<path d="M73.98,182.39 C73.07,182.52 71.85,182.76 71.11,183.14 C69.13,184.15 63.80,188.27 62.45,189.47 C61.01,190.78 55.98,195.89 54.83,196.83 C54.41,197.18 53.79,197.58 52.99,198.05" fill="none" stroke="rgb(0, 255, 0)" stroke-width="2.32" stroke-opacity="1.00" stroke-linejoin="round"/>
<path d="M48.83,196.66 C48.49,196.75 47.80,197.07 47.47,197.34 C46.87,197.85 45.70,202.25 45.03,203.69 C43.71,206.48 40.03,210.76 38.33,212.60" fill="none" stroke="rgb(0, 255, 0)" stroke-width="2.32" stroke-opacity="1.00" stroke-linejoin="round"/>
<path d="M36.59,198.36 C35.06,198.36 32.04,198.38 31.40,198.51 C29.99,198.81 23.44,201.90 20.85,203.93 C9.07,213.28 -1.87,224.05 -5.55,227.93" fill="none" stroke="rgb(0, 255, 0)" stroke-width="2.32" stroke-opacity="1.00" stroke-linejoin="round"/>
<path d="M19.26,209.91 C19.14,210.35 18.79,210.67 18.69,210.82 C18.32,211.40 14.70,218.77 13.06,222.11 C8.82,230.87 6.29,235.61 5.67,236.76" fill="none" stroke="rgb(0, 255, 0)" stroke-width="2.32" stroke-opacity="1.00" stroke-linejoin="round"/>
<path d="M13.14,230.30 C12.78,230.42 11.68,230.78 11.29,231.32 C10.85,231.94 1.12,248.50 -2.27,254.15 C-4.06,257.04 -7.08,261.85 -8.30,263.77" fill="none" stroke="rgb(0, 255, 0)" stroke-width="2.32" stroke-opacity="1.00" stroke-linejoin="round"/>
<path d="M45.43,210.59 C45.43,210.59 43.68,210.59 43.68,210.59 C43.10,212.35 43.23,242.07 43.14,243.30 C43.10,243.77 43.00,244.65 42.83,245.95" fill="none" stroke="rgb(0, 255, 0)" stroke-width="2.32" stroke-opacity="1.00" stroke-linejoin="round"/>
<path d="M46.11,215.69 C46.11,215.69 44.63,215.35 44.63,215.35 C43.61,216.02 53.38,247.80 55.32,252.14 C56.38,254.47 58.83,258.85 59.32,259.73" fill="none" stroke="rgb(0, 255, 0)" stroke-width="2.32" stroke-opacity="1.00" stroke-linejoin="round"/>
<path d="M54.61,194.96 C53.21,196.64 52.37,200.30 52.70,204.36 C53.11,209.17 55.89,222.20 57.81,226.51 C58.38,227.77 59.94,230.77 60.53,231.88" fill="none" stroke="rgb(0, 255, 0)" stroke-width="2.32" stroke-opacity="1.00" stroke-linejoin="round"/>
<path d="M62.08,197.34 C61.39,198.73 61.64,201.21 62.46,206.03 C63.99,214.50 65.47,220.38 65.70,221.25" fill="none" stroke="rgb(0, 255, 0)" stroke-width="2.32" stroke-opacity="1.00" stroke-linejoin="round"/>
<path d="M63.10,190.54 C63.10,190.54 62.59,190.54 62.59,190.54 C62.51,190.62 70.42,200.09 74.02,204.89 C75.95,207.50 78.88,211.45 79.87,212.79" fill="none" stroke="rgb(0, 255, 0)" stroke-width="2.32" stroke-opacity="1.00" stroke-linejoin="round"/>
<path d="M76.36,202.78 C75.07,203.35 73.61,204.17 72.50,205.00 C70.62,206.44 67.16,210.08 65.54,212.48 C62.49,217.06 59.92,223.46 59.36,224.87" fill="none" stroke="rgb(0, 255, 0)" stroke-width="2.32" stroke-opacity="1.00" stroke-linejoin="round"/>
<path d="M89.27,178.31 C89.27,178.31 88.08,178.73 88.08,178.73 C87.66,179.41 92.98,195.65 94.87,200.03 C95.80,202.17 99.62,210.10 101.39,213.03 C101.52,213.24 103.34,216.10 103.92,217.02" fill="none" stroke="rgb(0, 255, 0)" stroke-width="2.32" stroke-opacity="1.00" stroke-linejoin="round"/>
<path d="M107.96,163.36 C107.96,163.36 107.79,163.36 107.79,163.36 C107.34,163.02 106.75,161.56 107.24,160.70 C108.23,159.12 110.26,158.85 111.73,159.09 C113.22,161.03 113.90,162.35 114.11,164.03 C114.66,168.50 114.42,177.50 113.44,187.96 C111.10,209.48 111.27,214.15 111.48,216.46" fill="none" stroke="rgb(0, 255, 0)" stroke-width="2.32" stroke-opacity="1.00" stroke-linejoin="round"/>
<path d="M142.96,174.91 C141.57,174.90 140.71,174.92 140.49,174.84 C137.13,173.61 133.61,173.13 131.49,173.69 C129.97,174.14 124.91,177.07 123.28,178.53 C121.57,180.10 109.70,197.34 108.63,198.97 C104.65,205.10 96.85,223.59 89.61,237.10" fill="none" stroke="rgb(0, 255, 0)" stroke-width="2.32" stroke-opacity="1.00" stroke-linejoin="round"/>
<path d="M105.58,205.84 C105.09,205.79 104.70,205.87 104.40,206.07 C102.86,207.12 92.95,218.53 89.83,223.61 C87.80,226.91 82.15,236.95 80.82,238.99" fill="none" stroke="rgb(0, 255, 0)" stroke-width="2.32" stroke-opacity="1.00" stroke-linejoin="round"/>
<path d="M99.12,213.65 C98.75,213.38 97.96,212.99 97.27,213.01 C94.29,213.10 81.30,217.59 74.36,219.31 C71.21,220.11 55.76,226.97 53.03,228.38 C42.07,234.08 29.07,242.21 28.10,242.83" fill="none" stroke="rgb(0, 255, 0)" stroke-width="2.32" stroke-opacity="1.00" stroke-linejoin="round"/>
<path d="M37.95,236.76 C37.95,236.76 35.86,237.21 35.86,237.21 C35.34,238.40 41.06,255.04 43.87,263.14 C45.07,266.50 48.75,276.45 49.64,278.54 C51.02,281.76 53.59,286.55 55.39,289.24" fill="none" stroke="rgb(0, 255, 0)" stroke-width="2.32" stroke-opacity="1.00" stroke-linejoin="round"/>
<path d="M17.22,243.90 C17.22,244.35 17.22,245.92 17.22,247.03 C17.23,250.18 17.55,257.66 17.71,261.21 C17.75,261.91 17.79,262.61 17.82,263.31" fill="none" stroke="rgb(0, 255, 0)" stroke-width="2.32" stroke-opacity="1.00" stroke-linejoin="round"/>
<path d="M19.60,266.33 C18.89,265.60 18.41,265.06 18.16,264.71 C17.91,264.37 17.54,263.74 17.05,262.82 C17.05,262.82 16.58,262.93 16.58,262.93 C15.77,265.31 17.47,276.57 18.94,281.81 C20.91,288.72 24.89,297.04 28.77,304.25" fill="none" stroke="rgb(0, 255, 0)" stroke-width="2.32" stroke-opacity="1.00" stroke-linejoin="round"/>
<path d="M3.63,279.24 C3.63,279.24 3.63,279.41 3.63,279.41 C3.63,279.41 3.80,279.58 3.80,279.58 C2.30,277.46 0.77,275.71 -0.63,274.61 C-1.34,274.06 -2.17,273.74 -3.09,273.51 C-4.21,275.67 -4.62,276.99 -4.41,278.49 C-2.76,290.13 3.69,308.40 5.51,313.47" fill="none" stroke="rgb(0, 255, 0)" stroke-width="2.32" stroke-opacity="1.00" stroke-linejoin="round"/>
<path d="M-16.76,287.40 C-16.76,287.40 -17.10,287.68 -17.10,287.68 C-17.07,288.45 -16.98,290.28 -16.93,290.81 C-16.50,294.50 -14.54,302.62 -14.21,303.85" fill="none" stroke="rgb(0, 255, 0)" stroke-width="2.32" stroke-opacity="1.00" stroke-linejoin="round"/>
<path d="M42.37,272.44 C42.37,272.44 39.92,272.10 39.92,272.10 C37.94,273.24 23.39,301.62 15.55,314.70 C12.70,319.54 6.78,329.46 3.54,335.12 C2.03,337.83 0.45,341.08 -1.13,343.81" fill="none" stroke="rgb(0, 255, 0)" stroke-width="2.32" stroke-opacity="1.00" stroke-linejoin="round"/>
<path d="M16.54,289.10 C16.54,289.10 16.54,287.93 16.54,287.93 C16.35,287.69 9.99,288.93 -0.19,316.23 C-0.45,316.94 -1.44,319.83 -1.73,320.69" fill="none" stroke="rgb(0, 255, 0)" stroke-width="2.32" stroke-opacity="1.00" stroke-linejoin="round"/>
<path d="M-6.91,327.50 C-6.91,327.50 -7.42,327.67 -7.42,327.67 C-8.30,329.07 -13.15,338.51 -13.69,339.35 C-14.00,339.82 -14.63,340.70 -15.57,342.00" fill="none" stroke="rgb(0, 255, 0)" stroke-width="2.32" stroke-opacity="1.00" stroke-linejoin="round"/>
<path d="M5.33,295.89 C3.83,295.89 2.32,296.48 0.08,299.05 C-0.41,299.61 -8.20,309.29 -9.78,311.35 C-10.17,311.87 -10.56,312.39 -10.95,312.92" fill="none" stroke="rgb(0, 255, 0)" stroke-width="2.32" stroke-opacity="1.00" stroke-linejoin="round"/>
<path d="M80.77,261.23 C78.21,262.91 74.48,266.46 72.26,268.56 C62.66,277.41 48.44,293.76 48.17,294.09 C47.89,294.43 47.32,295.17 46.44,296.31" fill="none" stroke="rgb(0, 255, 0)" stroke-width="2.32" stroke-opacity="1.00" stroke-linejoin="round"/>
<path d="M76.69,262.59 C76.69,262.59 76.53,262.59 76.53,262.59 C75.14,263.75 73.71,266.84 72.70,270.17 C69.20,281.55 67.22,287.41 64.13,294.04 C61.34,299.85 52.76,314.78 52.71,314.93 C52.53,315.39 52.44,316.03 52.42,316.85" fill="none" stroke="rgb(0, 255, 0)" stroke-width="2.32" stroke-opacity="1.00" stroke-linejoin="round"/>
<path d="M59.36,298.27 C57.98,299.12 53.77,304.98 51.85,307.66 C49.75,310.58 48.30,313.86 47.16,317.60 C46.65,319.51 44.10,334.59 42.75,340.79 C38.84,357.47 33.87,367.53 32.89,369.20" fill="none" stroke="rgb(0, 255, 0)" stroke-width="2.32" stroke-opacity="1.00" stroke-linejoin="round"/>
<path d="M62.42,312.21 C62.42,312.21 62.76,311.53 62.76,311.53 C61.44,311.64 60.64,311.80 59.72,312.38 C56.38,314.49 52.43,318.21 51.72,318.98 C49.89,321.01 43.97,328.92 42.95,330.15 C41.63,331.75 39.66,333.94 38.52,335.13" fill="none" stroke="rgb(0, 255, 0)" stroke-width="2.32" stroke-opacity="1.00" stroke-linejoin="round"/>
<path d="M34.55,313.23 C34.61,313.08 34.66,312.97 34.72,312.89 C34.97,312.56 35.35,312.30 35.57,312.26 C35.54,312.98 34.01,316.15 33.34,317.99 C32.93,319.12 30.11,328.35 28.96,331.20 C26.80,336.53 18.50,349.75 16.55,352.07 C16.22,352.47 15.51,353.20 14.45,354.27" fill="none" stroke="rgb(0, 255, 0)" stroke-width="2.32" stroke-opacity="1.00" stroke-linejoin="round"/>
<path d="M7.71,356.05 C5.54,361.79 2.14,370.17 1.92,370.88 C1.78,371.37 1.51,372.41 1.12,374.01" fill="none" stroke="rgb(0, 255, 0)" stroke-width="2.32" stroke-opacity="1.00" stroke-linejoin="round"/>
<path d="M70.24,309.83 C69.15,309.54 67.80,309.41 66.90,309.57 C65.83,309.81 57.92,325.14 55.58,329.07 C51.95,334.98 46.41,343.99 46.13,344.83 C46.04,345.11 45.96,345.61 45.88,346.33" fill="none" stroke="rgb(0, 255, 0)" stroke-width="2.32" stroke-opacity="1.00" stroke-linejoin="round"/>
<path d="M87.91,299.97 C87.91,299.97 85.57,299.33 85.57,299.33 C86.76,301.90 87.08,306.10 86.61,308.27 C85.70,312.11 80.04,321.93 76.11,327.74 C71.84,333.98 68.74,336.95 67.09,338.33" fill="none" stroke="rgb(0, 255, 0)" stroke-width="2.32" stroke-opacity="1.00" stroke-linejoin="round"/>
<path d="M102.52,324.10 C101.38,325.10 97.14,326.61 95.76,327.33 C92.41,329.11 83.76,337.48 78.14,344.10 C75.66,347.13 70.01,354.12 68.48,355.90 C66.94,357.70 62.99,361.95 62.24,362.75" fill="none" stroke="rgb(0, 255, 0)" stroke-width="2.32" stroke-opacity="1.00" stroke-linejoin="round"/>
<path d="M65.82,346.53 C65.00,346.77 63.33,348.03 62.04,351.68 C61.82,352.32 59.60,359.28 58.45,362.29 C56.63,366.89 56.03,368.17 54.93,370.29" fill="none" stroke="rgb(0, 255, 0)" stroke-width="2.32" stroke-opacity="1.00" stroke-linejoin="round"/>
<path d="M57.32,359.44 C57.32,359.44 57.66,358.26 57.66,358.26 C56.93,358.13 46.68,367.35 41.60,372.01 C40.06,373.38 37.62,375.10 36.56,375.75" fill="none" stroke="rgb(0, 255, 0)" stroke-width="2.32" stroke-opacity="1.00" stroke-linejoin="round"/>
<path d="M102.86,247.98 C102.86,247.98 102.52,247.64 102.52,247.64 C102.19,247.83 102.16,266.09 102.16,275.36 C102.19,281.68 102.34,286.64 102.61,289.24" fill="none" stroke="rgb(0, 255, 0)" stroke-width="2.32" stroke-opacity="1.00" stroke-linejoin="round"/>
<path d="M124.61,238.46 C124.61,238.46 123.08,238.12 123.08,238.12 C122.73,238.24 119.89,250.67 117.35,259.70 C116.76,261.73 114.73,268.15 113.92,270.72 C113.76,271.27 113.59,271.81 113.43,272.35" fill="none" stroke="rgb(0, 255, 0)" stroke-width="2.32" stroke-opacity="1.00" stroke-linejoin="round"/>
<path d="M158.26,183.41 C158.26,183.41 156.90,181.24 156.90,181.24 C156.37,182.92 141.84,214.39 136.25,226.69 C135.19,229.19 133.60,232.93 133.08,234.17" fill="none" stroke="rgb(0, 255, 0)" stroke-width="2.32" stroke-opacity="1.00" stroke-linejoin="round"/>
<path d="M166.07,153.50 C166.07,153.50 165.95,151.95 165.95,151.95 C165.69,151.59 152.73,160.64 149.64,163.65 C144.57,168.98 133.70,179.74 127.90,185.18 C122.94,189.99 117.58,197.48 116.81,198.65" fill="none" stroke="rgb(0, 255, 0)" stroke-width="2.32" stroke-opacity="1.00" stroke-linejoin="round"/>
<path d="M148.40,158.60 C146.30,165.72 143.87,192.97 143.86,193.22 C143.84,193.54 143.84,194.04 143.86,194.72" fill="none" stroke="rgb(0, 255, 0)" stroke-width="2.32" stroke-opacity="1.00" stroke-linejoin="round"/>
<path d="M133.45,173.89 C133.53,173.89 137.64,179.66 139.82,190.29 C140.07,191.54 140.58,194.82 140.76,196.04" fill="none" stroke="rgb(0, 255, 0)" stroke-width="2.32" stroke-opacity="1.00" stroke-linejoin="round"/>
<path d="M176.95,140.25 C174.98,140.98 172.71,140.85 172.27,141.22 C169.70,143.52 165.41,152.40 162.33,160.10 C160.09,166.05 155.62,177.07 153.83,181.37" fill="none" stroke="rgb(0, 255, 0)" stroke-width="2.32" stroke-opacity="1.00" stroke-linejoin="round"/>
<path d="M170.83,123.93 C170.45,123.53 169.90,123.11 169.27,123.02 C167.20,122.74 162.73,123.31 159.28,124.69 C154.85,126.50 148.17,132.08 144.99,136.56 C140.93,142.48 130.34,157.91 128.47,160.49 C127.77,161.45 125.81,163.82 124.66,165.20" fill="none" stroke="rgb(0, 255, 0)" stroke-width="2.32" stroke-opacity="1.00" stroke-linejoin="round"/>
<path d="M176.95,107.62 C176.95,107.62 175.93,107.11 175.93,107.11 C174.59,109.69 173.86,114.43 172.94,118.50 C172.14,122.01 163.31,156.67 163.24,159.25 C163.23,159.64 163.28,160.35 163.39,161.38" fill="none" stroke="rgb(0, 255, 0)" stroke-width="2.32" stroke-opacity="1.00" stroke-linejoin="round"/>
<path d="M187.48,81.45 C187.16,81.04 186.71,80.81 186.03,80.77 C184.57,80.74 176.66,86.91 172.68,91.18 C168.32,95.87 163.81,102.05 156.93,112.30 C150.85,121.30 148.16,124.98 147.67,125.65" fill="none" stroke="rgb(0, 255, 0)" stroke-width="2.32" stroke-opacity="1.00" stroke-linejoin="round"/>
<path d="M184.77,68.54 C184.77,68.54 183.41,68.64 183.41,68.64 C182.64,69.19 181.41,71.83 179.34,76.52 C178.60,78.21 177.43,80.55 176.59,81.96 C176.28,82.48 175.70,83.38 174.83,84.67" fill="none" stroke="rgb(0, 255, 0)" stroke-width="2.32" stroke-opacity="1.00" stroke-linejoin="round"/>
<path d="M162.34,67.52 C162.32,67.78 162.42,68.91 162.50,69.80 C162.72,72.35 162.72,78.60 162.64,79.56 C162.60,80.07 162.47,80.99 162.26,82.32" fill="none" stroke="rgb(0, 255, 0)" stroke-width="2.32" stroke-opacity="1.00" stroke-linejoin="round"/>
<path d="M168.11,69.90 C168.11,69.90 167.60,70.41 167.60,70.41 C167.60,70.41 171.10,66.56 172.26,65.08 C173.67,63.26 175.81,60.01 176.80,57.69 C176.92,57.41 177.14,56.87 177.46,56.07" fill="none" stroke="rgb(0, 255, 0)" stroke-width="2.32" stroke-opacity="1.00" stroke-linejoin="round"/>
<path d="M146.02,84.51 C146.03,82.37 147.70,79.17 150.47,74.70 C151.25,73.45 152.96,70.81 153.87,69.40 C154.52,68.44 155.79,66.50 156.41,65.53" fill="none" stroke="rgb(0, 255, 0)" stroke-width="2.32" stroke-opacity="1.00" stroke-linejoin="round"/>
<path d="M157.92,65.14 C158.28,64.21 158.54,63.58 158.69,63.25 C158.89,62.83 167.16,47.48 168.81,45.93 C169.21,45.55 170.11,44.92 171.49,44.04" fill="none" stroke="rgb(0, 255, 0)" stroke-width="2.32" stroke-opacity="1.00" stroke-linejoin="round"/>
<path d="M152.14,50.87 C152.14,50.87 150.27,49.68 150.27,49.68 C149.89,52.47 150.52,56.83 150.97,59.58 C151.50,62.70 152.36,64.91 153.16,66.63" fill="none" stroke="rgb(0, 255, 0)" stroke-width="2.32" stroke-opacity="1.00" stroke-linejoin="round"/>
<path d="M162.00,46.79 C162.00,46.79 162.00,45.57 162.00,45.57 C162.02,45.70 162.02,45.91 162.00,46.21 C161.97,46.50 161.89,47.30 161.75,48.59" fill="none" stroke="rgb(0, 255, 0)" stroke-width="2.32" stroke-opacity="1.00" stroke-linejoin="round"/>
<path d="M131.75,40.33 C131.75,40.33 131.41,40.43 131.41,40.43 C131.38,48.23 132.25,61.58 133.24,66.75 C133.83,69.73 134.97,73.32 135.37,73.95 C135.60,74.30 136.19,75.11 137.16,76.37" fill="none" stroke="rgb(0, 255, 0)" stroke-width="2.32" stroke-opacity="1.00" stroke-linejoin="round"/>
<path d="M136.85,62.42 C136.84,63.14 136.86,64.29 136.91,65.55 C137.00,68.01 137.96,81.15 138.28,83.82 C138.48,85.41 138.76,86.85 139.22,88.76" fill="none" stroke="rgb(0, 255, 0)" stroke-width="2.32" stroke-opacity="1.00" stroke-linejoin="round"/>
<path d="M203.46,34.55 C203.46,34.55 203.46,34.21 203.46,34.21 C203.35,34.34 203.21,34.58 203.04,34.93 C202.88,35.29 202.44,36.26 201.74,37.85" fill="none" stroke="rgb(0, 255, 0)" stroke-width="2.32" stroke-opacity="1.00" stroke-linejoin="round"/>
<path d="M198.36,51.55 C198.36,51.55 197.85,51.38 197.85,51.38 C197.56,50.93 200.09,49.78 201.14,49.31 C203.26,48.35 207.34,45.09 208.80,43.82" fill="none" stroke="rgb(0, 255, 0)" stroke-width="2.32" stroke-opacity="1.00" stroke-linejoin="round"/>
<path d="M221.47,53.25 C221.47,53.25 220.58,53.59 220.58,53.59 C221.71,53.29 225.19,50.93 227.19,48.23 C228.04,47.07 230.13,43.03 231.08,41.12" fill="none" stroke="rgb(0, 255, 0)" stroke-width="2.32" stroke-opacity="1.00" stroke-linejoin="round"/>
<path d="M196.32,61.06 C196.32,61.06 195.98,57.70 195.98,57.70 C195.94,60.00 196.70,65.30 197.90,71.49 C198.78,75.80 200.80,85.50 201.30,87.64 C201.48,88.42 202.07,90.73 202.25,91.42" fill="none" stroke="rgb(0, 255, 0)" stroke-width="2.32" stroke-opacity="1.00" stroke-linejoin="round"/>
<path d="M189.52,63.10 C189.52,63.10 189.01,62.76 189.01,62.76 C187.72,65.27 189.39,69.65 189.74,70.05 C189.74,70.05 196.89,61.95 196.89,61.95" fill="none" stroke="rgb(0, 255, 0)" stroke-width="2.32" stroke-opacity="1.00" stroke-linejoin="round"/>
<path d="M202.44,71.60 C201.71,71.60 200.34,71.62 199.97,71.94 C198.54,73.21 196.06,78.81 196.01,78.93 C195.42,80.62 193.50,88.01 192.64,91.35" fill="none" stroke="rgb(0, 255, 0)" stroke-width="2.32" stroke-opacity="1.00" stroke-linejoin="round"/>
<path d="M220.11,77.71 C220.11,77.71 220.45,76.86 220.45,76.86 C218.32,77.92 214.64,81.74 213.60,83.20 C212.01,85.50 205.30,101.38 204.59,102.65 C199.97,110.43 196.30,118.36 192.06,128.01 C189.25,134.20 185.37,142.65 184.31,144.91" fill="none" stroke="rgb(0, 255, 0)" stroke-width="2.32" stroke-opacity="1.00" stroke-linejoin="round"/>
<path d="M195.30,112.04 C194.46,112.75 193.97,113.11 193.66,113.34 C191.40,115.05 188.54,116.25 185.63,117.14 C184.41,117.51 180.17,118.71 178.58,119.15" fill="none" stroke="rgb(0, 255, 0)" stroke-width="2.32" stroke-opacity="1.00" stroke-linejoin="round"/>
<path d="M226.23,86.21 C226.23,86.21 224.53,87.51 224.53,87.51 C226.51,86.03 231.93,83.40 234.38,82.08 C241.96,77.95 247.13,73.61 248.40,72.44" fill="none" stroke="rgb(0, 255, 0)" stroke-width="2.32" stroke-opacity="1.00" stroke-linejoin="round"/>
<path d="M227.93,76.69 C227.93,76.69 227.93,76.53 227.93,76.53 C227.93,76.53 227.64,76.36 227.64,76.36 C226.93,76.52 225.06,79.70 222.94,83.87 C220.29,89.25 217.43,96.49 216.90,97.86" fill="none" stroke="rgb(0, 255, 0)" stroke-width="2.32" stroke-opacity="1.00" stroke-linejoin="round"/>
<path d="M234.04,73.64 C234.04,73.64 233.36,73.98 233.36,73.98 C233.11,73.85 230.47,65.34 228.71,62.61 C228.33,62.04 226.75,60.05 226.18,59.33" fill="none" stroke="rgb(0, 255, 0)" stroke-width="2.32" stroke-opacity="1.00" stroke-linejoin="round"/>
<path d="M252.39,63.10 C251.53,62.91 250.23,63.58 248.86,65.10 C246.94,67.23 239.01,79.65 236.23,85.72 C234.11,90.37 229.59,104.08 228.14,110.01 C227.61,112.21 226.72,116.03 226.34,117.63" fill="none" stroke="rgb(0, 255, 0)" stroke-width="2.32" stroke-opacity="1.00" stroke-linejoin="round"/>
<path d="M256.13,80.43 C256.05,80.44 254.97,80.49 253.93,82.77 C252.72,85.36 250.09,90.94 248.21,94.13 C247.30,95.66 246.02,97.45 244.25,99.76" fill="none" stroke="rgb(0, 255, 0)" stroke-width="2.32" stroke-opacity="1.00" stroke-linejoin="round"/>
<path d="M252.73,62.08 C252.23,63.14 251.81,64.21 251.80,64.89 C251.79,66.64 256.18,74.84 256.30,75.09 C258.28,79.23 259.69,86.81 259.92,88.10" fill="none" stroke="rgb(0, 255, 0)" stroke-width="2.32" stroke-opacity="1.00" stroke-linejoin="round"/>
<path d="M249.34,108.64 C249.11,108.69 248.50,108.59 247.23,108.30 C246.78,108.21 239.92,110.26 237.87,111.05 C235.97,111.79 232.14,113.98 228.63,116.16 C226.14,117.74 220.37,121.82 218.14,123.55" fill="none" stroke="rgb(0, 255, 0)" stroke-width="2.32" stroke-opacity="1.00" stroke-linejoin="round"/>
<path d="M261.57,103.88 C261.57,104.70 260.88,105.98 258.55,108.34 C257.76,109.14 253.57,113.35 251.92,115.79 C249.45,119.47 244.01,132.56 242.46,136.74 C241.32,139.74 236.99,149.99 236.56,150.99" fill="none" stroke="rgb(0, 255, 0)" stroke-width="2.32" stroke-opacity="1.00" stroke-linejoin="round"/>
<path d="M233.36,132.77 C233.36,132.77 232.77,131.49 232.77,131.49 C232.57,131.88 231.34,146.91 230.72,154.43 C230.00,161.74 227.82,175.99 226.04,182.98 C224.17,189.91 220.26,204.87 219.64,210.27 C219.29,213.50 219.14,216.00 219.11,217.15" fill="none" stroke="rgb(0, 255, 0)" stroke-width="2.32" stroke-opacity="1.00" stroke-linejoin="round"/>
<path d="M222.15,154.86 C222.15,154.86 222.49,152.89 222.49,152.89 C221.77,155.13 218.45,165.52 215.01,172.45 C203.90,194.13 200.25,200.20 199.78,200.98" fill="none" stroke="rgb(0, 255, 0)" stroke-width="2.32" stroke-opacity="1.00" stroke-linejoin="round"/>
<path d="M202.10,161.66 C202.10,161.66 201.25,161.74 201.25,161.74 C201.14,163.48 206.84,176.04 211.86,185.58 C216.65,194.39 219.42,199.81 222.79,206.84" fill="none" stroke="rgb(0, 255, 0)" stroke-width="2.32" stroke-opacity="1.00" stroke-linejoin="round"/>
<path d="M189.52,166.75 C189.52,166.75 189.01,165.73 189.01,165.73 C188.82,165.97 187.79,169.46 186.61,171.90 C185.99,173.17 175.56,188.47 170.75,195.46 C168.81,198.17 161.49,207.30 160.67,208.31" fill="none" stroke="rgb(0, 255, 0)" stroke-width="2.32" stroke-opacity="1.00" stroke-linejoin="round"/>
<path d="M183.75,148.40 C184.78,149.24 187.43,151.41 188.36,152.23 C189.45,153.19 191.05,154.88 191.71,155.79 C193.16,157.83 194.50,160.48 195.12,161.86" fill="none" stroke="rgb(0, 255, 0)" stroke-width="2.32" stroke-opacity="1.00" stroke-linejoin="round"/>
<path d="M203.80,128.01 C203.80,128.01 202.86,128.69 202.86,128.69 C202.86,128.69 203.09,127.13 203.09,127.13 C201.77,128.27 198.67,132.02 196.87,134.56 C193.73,139.04 182.68,157.47 180.88,160.84 C176.19,169.76 174.78,172.94 174.40,173.85" fill="none" stroke="rgb(0, 255, 0)" stroke-width="2.32" stroke-opacity="1.00" stroke-linejoin="round"/>
<path d="M205.50,134.47 C205.50,134.47 205.16,134.64 205.16,134.64 C205.04,135.41 202.85,151.65 201.29,159.11 C199.75,166.05 196.44,180.50 195.02,187.10 C194.22,191.07 193.67,194.41 193.41,199.11" fill="none" stroke="rgb(0, 255, 0)" stroke-width="2.32" stroke-opacity="1.00" stroke-linejoin="round"/>
<path d="M218.75,142.28 C217.24,143.14 214.83,144.62 210.02,146.37 C207.10,147.44 201.35,149.57 198.74,150.85 C195.94,152.23 189.72,155.62 186.03,158.26 C185.49,158.65 184.66,159.27 183.55,160.12" fill="none" stroke="rgb(0, 255, 0)" stroke-width="2.32" stroke-opacity="1.00" stroke-linejoin="round"/>
<path d="M187.82,167.09 C186.71,167.08 182.31,170.53 179.85,172.20 C177.73,173.63 165.85,179.75 161.20,183.80 C156.37,188.13 153.94,190.15 151.31,192.01" fill="none" stroke="rgb(0, 255, 0)" stroke-width="2.32" stroke-opacity="1.00" stroke-linejoin="round"/>
<path d="M160.98,175.25 C160.98,175.25 160.98,174.91 160.98,174.91 C162.25,178.72 163.69,184.44 164.53,187.75 C165.12,190.05 166.12,193.91 166.52,195.48" fill="none" stroke="rgb(0, 255, 0)" stroke-width="2.32" stroke-opacity="1.00" stroke-linejoin="round"/>
<path d="M289.10,118.50 C289.11,118.45 280.30,129.81 274.56,135.32 C266.24,143.29 261.90,148.44 255.55,153.43 C247.70,159.46 238.22,166.00 230.40,170.22 C211.89,180.16 188.25,192.26 182.36,195.31 C176.67,198.15 170.49,200.14 168.31,200.67" fill="none" stroke="rgb(0, 255, 0)" stroke-width="2.32" stroke-opacity="1.00" stroke-linejoin="round"/>
<path d="M252.05,153.50 C252.02,153.68 251.35,154.39 251.11,154.69 C250.59,155.35 252.21,165.03 254.62,177.56 C257.56,191.98 261.46,204.31 261.80,204.90 C262.03,205.31 262.63,206.15 263.58,207.41" fill="none" stroke="rgb(0, 255, 0)" stroke-width="2.32" stroke-opacity="1.00" stroke-linejoin="round"/>
<path d="M232.34,152.48 C232.20,153.30 237.52,171.17 238.49,174.59 C240.90,182.64 243.00,187.49 243.95,189.65" fill="none" stroke="rgb(0, 255, 0)" stroke-width="2.32" stroke-opacity="1.00" stroke-linejoin="round"/>
<path d="M266.67,163.02 C266.57,163.00 266.46,163.00 266.33,163.02 C266.19,163.03 265.85,163.10 265.31,163.20 C265.58,163.93 279.66,194.64 282.43,200.77 C283.89,203.87 286.39,209.21 287.51,211.35" fill="none" stroke="rgb(0, 255, 0)" stroke-width="2.32" stroke-opacity="1.00" stroke-linejoin="round"/>
<path d="M297.59,148.06 C295.95,148.48 294.41,148.78 293.49,148.74 C292.58,148.71 289.86,148.62 288.76,149.10 C286.71,150.02 282.25,153.71 279.15,157.97 C277.79,159.88 266.88,177.60 263.33,183.66 C261.45,186.83 258.88,191.14 258.20,192.27" fill="none" stroke="rgb(0, 255, 0)" stroke-width="2.32" stroke-opacity="1.00" stroke-linejoin="round"/>
<path d="M258.85,177.97 C256.80,178.94 254.31,181.84 252.73,184.57 C252.14,185.60 244.16,200.94 241.82,203.90 C239.59,206.64 236.47,209.76 234.06,211.08 C232.97,211.67 231.56,211.91 229.40,212.05" fill="none" stroke="rgb(0, 255, 0)" stroke-width="2.32" stroke-opacity="1.00" stroke-linejoin="round"/>
<path d="M269.39,139.23 C269.08,139.50 263.66,143.48 262.05,144.77 C255.14,150.35 250.71,155.10 247.98,159.74 C243.44,167.63 238.84,174.93 235.15,179.63 C233.43,181.82 230.59,184.94 229.49,186.11" fill="none" stroke="rgb(0, 255, 0)" stroke-width="2.32" stroke-opacity="1.00" stroke-linejoin="round"/>
<path d="M277.88,115.78 C277.23,116.40 275.64,117.24 275.11,117.66 C273.74,118.76 270.41,124.73 269.39,127.22 C268.04,130.58 266.16,137.33 265.36,140.24" fill="none" stroke="rgb(0, 255, 0)" stroke-width="2.32" stroke-opacity="1.00" stroke-linejoin="round"/>
<path d="M288.42,80.77 C288.42,80.77 288.42,79.92 288.42,79.92 C288.61,81.45 287.61,84.94 286.51,87.89 C284.81,92.36 282.72,97.33 280.97,101.01 C280.36,102.28 279.35,104.36 278.96,105.16" fill="none" stroke="rgb(0, 255, 0)" stroke-width="2.32" stroke-opacity="1.00" stroke-linejoin="round"/>
<path d="M288.76,54.61 C286.63,57.68 282.80,64.24 281.64,66.34 C280.07,69.20 277.14,75.13 276.02,77.96 C275.86,78.38 275.63,78.99 275.34,79.82" fill="none" stroke="rgb(0, 255, 0)" stroke-width="2.32" stroke-opacity="1.00" stroke-linejoin="round"/>
<path d="M298.27,62.08 C296.92,62.42 296.48,62.56 296.29,62.99 C295.82,64.06 294.00,70.27 293.07,73.50 C292.53,75.49 291.62,78.80 291.26,80.12" fill="none" stroke="rgb(0, 255, 0)" stroke-width="2.32" stroke-opacity="1.00" stroke-linejoin="round"/>
<path d="M308.13,58.34 C308.13,58.34 307.45,58.05 307.45,58.05 C307.17,63.90 303.45,75.36 300.76,81.23 C299.41,84.16 296.59,89.02 295.44,90.91" fill="none" stroke="rgb(0, 255, 0)" stroke-width="2.32" stroke-opacity="1.00" stroke-linejoin="round"/>
<path d="M299.63,70.58 C299.63,70.58 297.93,70.83 297.93,70.83 C296.64,73.64 295.30,81.57 295.09,83.26 C294.86,85.19 294.63,87.96 294.55,89.50" fill="none" stroke="rgb(0, 255, 0)" stroke-width="2.32" stroke-opacity="1.00" stroke-linejoin="round"/>
<path d="M316.28,62.42 C316.28,62.42 316.11,62.42 316.11,62.42 C315.71,62.61 314.88,63.77 314.01,65.47 C313.84,65.80 305.13,84.94 302.76,89.08 C301.86,90.62 300.65,92.53 299.93,93.50 C299.38,94.25 297.26,96.88 296.49,97.82" fill="none" stroke="rgb(0, 255, 0)" stroke-width="2.32" stroke-opacity="1.00" stroke-linejoin="round"/>
<path d="M310.85,79.75 C310.85,79.75 309.10,79.55 309.10,79.55 C308.64,80.32 297.61,109.55 295.54,116.35 C294.28,120.60 294.17,122.37 294.26,123.40" fill="none" stroke="rgb(0, 255, 0)" stroke-width="2.32" stroke-opacity="1.00" stroke-linejoin="round"/>
<path d="M298.61,98.11 C296.92,99.90 295.03,105.39 294.32,108.47 C292.10,118.32 291.53,123.54 291.49,124.42" fill="none" stroke="rgb(0, 255, 0)" stroke-width="2.32" stroke-opacity="1.00" stroke-linejoin="round"/>
<path d="M293.18,84.51 C293.03,84.92 292.92,85.31 292.84,85.70 C292.33,88.07 291.52,94.85 291.18,96.78 C290.66,99.72 288.95,106.31 287.90,109.29 C286.38,113.49 285.90,114.69 285.16,116.43" fill="none" stroke="rgb(0, 255, 0)" stroke-width="2.32" stroke-opacity="1.00" stroke-linejoin="round"/>
<path d="M322.40,82.81 C319.77,83.01 318.56,83.20 317.51,83.71 C315.00,84.93 302.86,90.18 299.32,91.59 C297.50,92.33 294.20,93.68 292.71,94.29" fill="none" stroke="rgb(0, 255, 0)" stroke-width="2.32" stroke-opacity="1.00" stroke-linejoin="round"/>
<path d="M328.52,60.72 C328.52,60.72 328.52,60.38 328.52,60.38 C326.83,61.30 322.22,71.30 318.48,80.58 C316.17,86.58 310.34,103.57 310.20,103.94 C310.03,104.35 309.64,105.25 309.02,106.63" fill="none" stroke="rgb(0, 255, 0)" stroke-width="2.32" stroke-opacity="1.00" stroke-linejoin="round"/>
<path d="M325.46,71.94 C324.20,72.76 320.59,86.73 318.63,92.38 C316.91,97.28 313.47,103.87 312.48,105.66" fill="none" stroke="rgb(0, 255, 0)" stroke-width="2.32" stroke-opacity="1.00" stroke-linejoin="round"/>
<path d="M310.17,97.77 C310.08,97.88 308.36,99.38 307.34,101.28 C304.81,106.05 298.70,119.55 297.50,123.28 C297.03,124.75 295.67,131.11 295.35,132.67" fill="none" stroke="rgb(0, 255, 0)" stroke-width="2.32" stroke-opacity="1.00" stroke-linejoin="round"/>
<path d="M353.33,79.41 C353.33,79.41 351.47,79.65 351.47,79.65 C350.23,81.65 341.28,103.42 339.58,108.36 C338.01,113.10 336.29,118.74 335.28,122.61 C334.43,125.92 333.18,132.02 332.86,133.57" fill="none" stroke="rgb(0, 255, 0)" stroke-width="2.32" stroke-opacity="1.00" stroke-linejoin="round"/>
<path d="M344.49,65.82 C344.47,68.38 342.60,73.92 340.90,77.82 C337.76,84.84 330.21,101.36 328.68,104.34 C327.01,107.56 326.08,109.00 325.19,110.27" fill="none" stroke="rgb(0, 255, 0)" stroke-width="2.32" stroke-opacity="1.00" stroke-linejoin="round"/>
<path d="M342.79,50.87 C342.79,50.87 342.28,50.70 342.28,50.70 C342.82,54.80 342.18,61.73 340.66,71.60 C340.03,75.41 338.83,82.83 338.25,86.45 C337.53,91.30 337.02,101.89 336.88,105.32" fill="none" stroke="rgb(0, 255, 0)" stroke-width="2.32" stroke-opacity="1.00" stroke-linejoin="round"/>
<path d="M335.66,95.05 C334.74,95.73 334.28,96.24 333.93,97.13 C331.63,103.05 324.01,119.94 323.61,121.27 C323.51,121.63 321.77,130.04 320.62,133.25 C320.30,134.13 314.08,148.90 310.66,158.19 C308.99,162.71 303.67,173.95 301.48,178.61" fill="none" stroke="rgb(0, 255, 0)" stroke-width="2.32" stroke-opacity="1.00" stroke-linejoin="round"/>
<path d="M311.87,133.11 C311.87,133.11 311.98,132.77 311.98,132.77 C313.00,133.41 316.50,144.81 319.01,154.71 C319.88,158.41 320.71,162.73 321.59,168.09 C322.27,172.66 323.42,180.45 323.89,183.68" fill="none" stroke="rgb(0, 255, 0)" stroke-width="2.32" stroke-opacity="1.00" stroke-linejoin="round"/>
<path d="M306.09,149.42 C305.11,150.83 304.73,155.51 304.50,158.39 C303.94,166.70 303.03,182.82 302.84,189.59 C302.72,196.23 303.42,205.34 303.81,210.17" fill="none" stroke="rgb(0, 255, 0)" stroke-width="2.32" stroke-opacity="1.00" stroke-linejoin="round"/>
<path d="M302.35,140.93 C302.35,140.93 300.99,141.61 300.99,141.61 C300.99,141.61 307.48,136.56 307.48,136.56 C307.81,137.53 306.17,141.73 305.17,144.29 C302.42,151.22 297.59,159.80 293.12,165.92 C290.10,170.03 282.46,177.87 278.80,180.60 C276.86,182.03 273.39,184.09 270.10,185.90" fill="none" stroke="rgb(0, 255, 0)" stroke-width="2.32" stroke-opacity="1.00" stroke-linejoin="round"/>
<path d="M296.57,170.49 C295.27,171.66 295.18,174.62 295.68,178.38 C295.85,179.61 297.18,187.05 297.92,190.46 C299.87,199.05 301.90,204.76 303.03,207.87" fill="none" stroke="rgb(0, 255, 0)" stroke-width="2.32" stroke-opacity="1.00" stroke-linejoin="round"/>
<path d="M305.41,186.80 C305.58,188.86 309.29,206.59 310.65,213.19 C312.45,221.33 315.68,236.35 316.94,244.55 C317.23,246.22 317.71,248.73 318.00,250.17" fill="none" stroke="rgb(0, 255, 0)" stroke-width="2.32" stroke-opacity="1.00" stroke-linejoin="round"/>
<path d="M299.63,198.02 C299.63,198.02 299.29,196.49 299.29,196.49 C299.76,200.46 307.67,240.13 309.04,244.68 C309.52,246.28 311.22,250.20 311.50,250.75 C311.65,251.06 311.96,251.63 312.42,252.46" fill="none" stroke="rgb(0, 255, 0)" stroke-width="2.32" stroke-opacity="1.00" stroke-linejoin="round"/>
<path d="M295.89,198.70 C295.89,198.70 295.89,198.36 295.89,198.36 C295.89,198.36 295.12,197.74 295.12,197.74 C294.67,198.80 290.67,212.46 288.73,216.34 C287.37,219.00 285.21,221.65 283.70,223.18" fill="none" stroke="rgb(0, 255, 0)" stroke-width="2.32" stroke-opacity="1.00" stroke-linejoin="round"/>
<path d="M278.22,207.19 C278.10,207.17 278.10,207.29 278.22,207.53 C279.14,209.40 291.75,226.60 293.18,228.98 C294.05,230.45 296.40,235.57 297.15,237.88 C297.97,240.45 299.54,246.60 300.22,249.26" fill="none" stroke="rgb(0, 255, 0)" stroke-width="2.32" stroke-opacity="1.00" stroke-linejoin="round"/>
<path d="M276.86,193.60 C276.86,193.60 276.38,193.60 276.38,193.60 C275.53,194.74 262.95,223.23 260.83,227.08 C259.47,229.51 257.56,232.04 254.36,236.11" fill="none" stroke="rgb(0, 255, 0)" stroke-width="2.32" stroke-opacity="1.00" stroke-linejoin="round"/>
<path d="M238.12,203.12 C238.12,203.12 237.78,203.63 237.78,203.63 C237.83,203.76 248.01,217.82 252.37,223.87 C257.63,231.39 271.62,253.55 274.48,256.94 C275.32,257.92 277.31,260.00 278.68,261.43" fill="none" stroke="rgb(0, 255, 0)" stroke-width="2.32" stroke-opacity="1.00" stroke-linejoin="round"/>
<path d="M243.22,234.04 C241.89,234.46 239.69,235.33 238.93,236.00 C237.95,236.87 229.98,249.80 223.69,257.87 C221.69,260.49 217.89,266.13 216.19,268.68" fill="none" stroke="rgb(0, 255, 0)" stroke-width="2.32" stroke-opacity="1.00" stroke-linejoin="round"/>
<path d="M230.98,219.09 C230.36,219.39 229.81,222.73 229.54,224.41 C228.54,230.44 223.89,246.35 223.16,249.20 C222.68,251.07 221.00,258.72 220.41,261.44" fill="none" stroke="rgb(0, 255, 0)" stroke-width="2.32" stroke-opacity="1.00" stroke-linejoin="round"/>
<path d="M193.94,227.25 C193.86,227.37 192.65,228.58 192.23,230.87 C191.09,237.23 187.86,254.83 186.94,259.05 C186.50,261.01 185.26,265.97 185.05,266.82" fill="none" stroke="rgb(0, 255, 0)" stroke-width="2.32" stroke-opacity="1.00" stroke-linejoin="round"/>
<path d="M170.15,226.57 C170.15,226.57 170.49,226.57 170.49,226.57 C170.25,229.34 166.77,244.82 165.51,251.68 C164.94,255.18 163.83,262.75 163.28,266.82 C162.76,271.15 161.89,278.49 161.54,281.49" fill="none" stroke="rgb(0, 255, 0)" stroke-width="2.32" stroke-opacity="1.00" stroke-linejoin="round"/>
<path d="M164.37,228.27 C163.90,228.04 160.19,230.66 156.25,233.35 C151.51,236.68 141.47,244.28 136.47,248.15 C130.64,252.71 123.60,257.19 120.73,259.01" fill="none" stroke="rgb(0, 255, 0)" stroke-width="2.32" stroke-opacity="1.00" stroke-linejoin="round"/>
<path d="M194.96,309.83 C195.24,311.04 197.41,316.21 198.33,319.36 C199.18,322.45 200.96,329.03 201.60,332.49 C202.31,336.34 204.14,348.24 204.24,349.00" fill="none" stroke="rgb(0, 255, 0)" stroke-width="2.32" stroke-opacity="1.00" stroke-linejoin="round"/>
<path d="M218.41,298.27 C218.41,298.27 217.90,298.44 217.90,298.44 C217.70,299.56 218.34,314.91 218.22,317.90 C217.92,324.72 215.87,335.97 214.08,341.44 C212.70,345.61 209.29,354.03 208.90,354.99" fill="none" stroke="rgb(0, 255, 0)" stroke-width="2.32" stroke-opacity="1.00" stroke-linejoin="round"/>
<path d="M224.53,265.31 C223.31,265.28 222.40,265.31 221.81,265.40 C218.73,265.90 213.29,268.97 211.95,269.88 C210.12,271.13 198.15,280.03 192.57,283.48 C187.72,286.45 186.22,287.42 185.06,288.17" fill="none" stroke="rgb(0, 255, 0)" stroke-width="2.32" stroke-opacity="1.00" stroke-linejoin="round"/>
<path d="M246.62,294.53 C246.62,294.53 245.94,294.02 245.94,294.02 C245.94,294.02 246.16,294.02 246.16,294.02 C249.45,297.74 261.77,320.29 265.56,327.31 C267.37,330.78 270.13,336.11 271.08,337.99" fill="none" stroke="rgb(0, 255, 0)" stroke-width="2.32" stroke-opacity="1.00" stroke-linejoin="round"/>
<path d="M232.34,301.33 C232.34,301.33 231.83,301.33 231.83,301.33 C231.75,301.40 235.32,303.13 238.14,305.59 C241.27,308.37 248.70,318.90 251.55,324.80 C252.98,327.80 254.51,331.82 255.79,335.66" fill="none" stroke="rgb(0, 255, 0)" stroke-width="2.32" stroke-opacity="1.00" stroke-linejoin="round"/>
<path d="M248.66,263.61 C247.23,265.01 246.13,267.30 245.63,270.16 C245.42,271.42 243.29,292.70 242.40,299.50 C241.49,305.65 239.00,319.66 238.03,323.36" fill="none" stroke="rgb(0, 255, 0)" stroke-width="2.32" stroke-opacity="1.00" stroke-linejoin="round"/>
<path d="M271.43,242.20 C268.13,246.66 263.18,254.89 261.95,257.98 C261.61,258.84 258.59,267.31 257.58,269.72 C256.31,272.71 252.59,280.23 251.72,282.75 C251.59,283.14 249.28,290.72 248.25,294.07 C245.94,301.72 242.60,312.81 241.57,316.24" fill="none" stroke="rgb(0, 255, 0)" stroke-width="2.32" stroke-opacity="1.00" stroke-linejoin="round"/>
<path d="M245.26,322.74 C245.26,322.74 244.02,322.79 244.02,322.79 C243.61,323.19 239.81,336.72 236.24,346.96 C234.06,352.97 229.42,362.76 226.50,366.63 C225.78,367.58 223.39,370.57 222.49,371.68" fill="none" stroke="rgb(0, 255, 0)" stroke-width="2.32" stroke-opacity="1.00" stroke-linejoin="round"/>
<path d="M266.67,303.03 C266.24,303.40 265.81,303.64 264.47,304.20 C261.71,305.36 244.43,313.85 236.99,317.75 C230.68,321.29 218.79,328.10 213.23,331.37 C205.56,335.65 198.78,338.09 196.29,338.75" fill="none" stroke="rgb(0, 255, 0)" stroke-width="2.32" stroke-opacity="1.00" stroke-linejoin="round"/>
<path d="M230.30,303.37 C229.55,303.84 222.36,307.19 221.47,307.62 C218.29,309.19 195.35,319.45 192.42,320.62 C186.24,323.09 180.59,324.67 177.64,325.43" fill="none" stroke="rgb(0, 255, 0)" stroke-width="2.32" stroke-opacity="1.00" stroke-linejoin="round"/>
<path d="M262.59,266.67 C262.59,266.67 262.76,266.67 262.76,266.67 C264.08,269.22 266.86,274.69 268.32,277.60 C272.90,287.30 277.15,297.87 278.26,301.59 C279.66,306.54 281.06,311.98 281.89,315.99 C282.59,319.54 283.50,324.18 283.72,325.28" fill="none" stroke="rgb(0, 255, 0)" stroke-width="2.32" stroke-opacity="1.00" stroke-linejoin="round"/>
<path d="M291.14,253.07 C291.14,253.07 290.80,253.07 290.80,253.07 C290.80,253.07 290.61,253.45 290.61,253.45 C294.09,259.37 299.39,268.54 303.78,277.00 C306.75,282.99 316.29,304.63 316.72,305.62" fill="none" stroke="rgb(0, 255, 0)" stroke-width="2.32" stroke-opacity="1.00" stroke-linejoin="round"/>
<path d="M311.53,292.50 C311.53,292.50 310.85,293.01 310.85,293.01 C311.21,293.02 313.85,293.00 314.38,293.06 C315.97,293.27 320.22,296.52 322.03,298.42 C325.55,302.19 332.56,312.37 335.63,318.05 C342.97,331.65 345.66,340.30 345.97,341.31" fill="none" stroke="rgb(0, 255, 0)" stroke-width="2.32" stroke-opacity="1.00" stroke-linejoin="round"/>
<path d="M298.95,279.24 C298.95,279.24 298.10,280.02 298.10,280.02 C299.23,282.55 305.74,293.26 308.87,298.39 C312.05,303.54 314.60,307.36 316.73,309.83 C317.25,310.42 319.50,312.87 320.17,313.60" fill="none" stroke="rgb(0, 255, 0)" stroke-width="2.32" stroke-opacity="1.00" stroke-linejoin="round"/>
<path d="M288.42,303.71 C288.42,303.71 288.08,303.37 288.08,303.37 C289.04,303.16 293.05,305.17 296.08,307.51 C300.00,310.60 309.32,320.45 313.45,326.33 C318.44,333.47 322.38,341.54 326.10,350.41 C327.45,353.87 329.21,358.38 329.61,359.44" fill="none" stroke="rgb(0, 255, 0)" stroke-width="2.32" stroke-opacity="1.00" stroke-linejoin="round"/>
<path d="M276.52,321.04 C276.69,322.98 279.79,338.69 279.96,342.29 C280.15,347.81 279.47,355.38 277.77,361.29 C276.96,364.06 274.96,368.94 274.12,370.86" fill="none" stroke="rgb(0, 255, 0)" stroke-width="2.32" stroke-opacity="1.00" stroke-linejoin="round"/>
<path d="M332.94,321.38 C332.59,323.27 332.52,331.67 332.17,334.31 C331.50,339.25 327.57,350.83 324.78,356.61 C319.71,366.83 311.90,374.81 310.84,375.88" fill="none" stroke="rgb(0, 255, 0)" stroke-width="2.32" stroke-opacity="1.00" stroke-linejoin="round"/>
<path d="M321.72,330.56 C321.72,330.56 321.72,328.69 321.72,328.69 C321.72,328.69 321.51,328.69 321.51,328.69 C320.03,330.17 299.16,345.91 292.83,350.73 C288.19,354.23 281.49,357.28 280.16,357.87" fill="none" stroke="rgb(0, 255, 0)" stroke-width="2.32" stroke-opacity="1.00" stroke-linejoin="round"/>
<path d="M291.82,316.96 C291.82,316.96 291.65,316.96 291.65,316.96 C293.81,315.59 294.85,314.91 296.10,314.00 C300.22,311.01 307.51,303.39 310.51,299.37 C316.97,290.66 320.01,281.50 320.70,279.24" fill="none" stroke="rgb(0, 255, 0)" stroke-width="2.32" stroke-opacity="1.00" stroke-linejoin="round"/>
<path d="M329.20,249.00 C328.39,248.79 327.81,247.88 327.67,247.69 C327.26,247.19 326.31,246.65 325.70,246.74 C323.81,247.06 311.81,256.62 307.31,261.78 C303.79,265.85 296.64,276.62 293.95,281.95 C285.66,298.59 275.86,316.44 274.15,319.36" fill="none" stroke="rgb(0, 255, 0)" stroke-width="2.32" stroke-opacity="1.00" stroke-linejoin="round"/>
<path d="M319.68,262.59 C320.15,268.91 320.27,277.66 319.68,282.87 C319.56,283.97 319.06,287.66 318.82,289.44 C318.34,292.83 317.68,296.28 317.43,297.40" fill="none" stroke="rgb(0, 255, 0)" stroke-width="2.32" stroke-opacity="1.00" stroke-linejoin="round"/>
<path d="M322.40,209.57 C321.16,212.47 319.18,216.53 317.58,219.28 C308.94,234.14 299.14,247.57 298.50,248.32 C297.32,249.69 295.70,251.37 294.80,252.19" fill="none" stroke="rgb(0, 255, 0)" stroke-width="2.32" stroke-opacity="1.00" stroke-linejoin="round"/>
<path d="M322.06,181.71 C322.07,190.49 321.71,197.01 320.71,208.09 C320.41,211.82 319.84,220.37 319.81,221.85 C319.79,223.56 319.83,226.18 319.89,227.68" fill="none" stroke="rgb(0, 255, 0)" stroke-width="2.32" stroke-opacity="1.00" stroke-linejoin="round"/>
<path d="M336.34,151.46 C336.34,151.46 334.95,151.52 334.95,151.52 C333.46,152.62 330.81,187.71 330.34,204.48 C330.30,209.41 330.77,218.84 331.84,228.97" fill="none" stroke="rgb(0, 255, 0)" stroke-width="2.32" stroke-opacity="1.00" stroke-linejoin="round"/>
<path d="M363.18,183.75 C362.42,183.93 357.69,184.38 355.76,185.21 C351.44,187.13 342.84,194.53 339.91,198.06 C335.93,202.89 330.08,212.57 327.85,217.86 C327.05,219.79 325.72,224.40 325.46,226.54" fill="none" stroke="rgb(0, 255, 0)" stroke-width="2.32" stroke-opacity="1.00" stroke-linejoin="round"/>
<path d="M341.43,189.18 C341.43,189.18 341.43,188.84 341.43,188.84 C339.64,192.16 337.29,202.74 336.18,213.09 C335.99,215.10 335.66,218.43 335.52,219.75" fill="none" stroke="rgb(0, 255, 0)" stroke-width="2.32" stroke-opacity="1.00" stroke-linejoin="round"/>
<path d="M360.46,177.29 C359.06,178.58 357.28,182.31 355.34,187.45 C353.12,193.38 351.31,201.26 350.86,203.40" fill="none" stroke="rgb(0, 255, 0)" stroke-width="2.32" stroke-opacity="1.00" stroke-linejoin="round"/>
<path d="M336.00,220.79 C335.30,222.25 335.39,225.16 335.87,231.58 C336.98,244.76 338.39,253.72 340.48,262.09 C341.96,267.98 346.27,281.28 348.46,287.85 C349.08,289.80 350.05,293.06 350.41,294.30" fill="none" stroke="rgb(0, 255, 0)" stroke-width="2.32" stroke-opacity="1.00" stroke-linejoin="round"/>
<path d="M376.44,165.39 C376.44,165.39 376.44,165.05 376.44,165.05 C375.67,168.39 373.93,179.00 371.90,189.10 C370.53,196.25 367.97,210.41 366.78,217.41 C365.70,224.07 363.40,237.65 362.16,244.58" fill="none" stroke="rgb(0, 255, 0)" stroke-width="2.32" stroke-opacity="1.00" stroke-linejoin="round"/>
<path d="M345.17,151.80 C345.08,151.79 351.27,168.03 353.80,174.99 C355.06,178.46 357.72,185.66 359.11,189.38 C361.15,194.45 363.86,201.71 364.25,202.77" fill="none" stroke="rgb(0, 255, 0)" stroke-width="2.32" stroke-opacity="1.00" stroke-linejoin="round"/>
<path d="M368.62,157.24 C367.54,156.58 366.85,156.08 366.64,155.94 C366.22,155.67 365.29,155.50 364.56,155.64 C361.90,156.20 350.37,165.88 347.13,169.63 C346.26,170.65 342.67,175.29 342.02,176.14" fill="none" stroke="rgb(0, 255, 0)" stroke-width="2.32" stroke-opacity="1.00" stroke-linejoin="round"/>
<path d="M351.29,150.10 C351.29,150.10 350.85,149.76 350.85,149.76 C349.45,150.00 348.54,150.41 347.52,151.32 C346.45,152.26 344.33,153.93 342.68,155.04 C341.35,155.93 338.74,157.47 337.60,158.09" fill="none" stroke="rgb(0, 255, 0)" stroke-width="2.32" stroke-opacity="1.00" stroke-linejoin="round"/>
<path d="M346.53,143.64 C344.65,145.48 344.03,147.46 342.27,152.82 C341.05,156.61 338.51,164.61 337.70,167.76 C337.48,168.63 336.85,171.56 336.66,172.44" fill="none" stroke="rgb(0, 255, 0)" stroke-width="2.32" stroke-opacity="1.00" stroke-linejoin="round"/>
<path d="M356.05,101.84 C356.05,101.84 355.11,98.87 355.11,98.87 C354.38,106.43 353.01,122.48 352.80,130.47 C352.64,139.81 353.19,150.86 353.60,154.09 C353.81,155.75 354.44,159.86 354.69,161.40" fill="none" stroke="rgb(0, 255, 0)" stroke-width="2.32" stroke-opacity="1.00" stroke-linejoin="round"/>
<path d="M378.48,99.46 C378.48,99.46 378.39,98.95 378.39,98.95 C376.13,100.39 373.63,103.99 372.25,106.27 C370.97,108.42 355.71,137.16 352.25,143.64 C349.47,148.97 348.06,151.82 347.67,152.60" fill="none" stroke="rgb(0, 255, 0)" stroke-width="2.32" stroke-opacity="1.00" stroke-linejoin="round"/>
<path d="M364.88,80.43 C364.88,80.43 363.01,80.66 363.01,80.66 C362.91,81.94 363.01,93.89 362.50,102.05 C361.91,110.05 358.52,137.87 357.99,142.19" fill="none" stroke="rgb(0, 255, 0)" stroke-width="2.32" stroke-opacity="1.00" stroke-linejoin="round"/>
<path d="M343.13,120.53 C343.13,120.53 342.54,117.65 342.54,117.65 C341.61,117.36 339.14,118.98 337.50,120.73 C334.23,124.29 325.74,134.86 322.91,139.36 C321.95,140.92 320.38,143.50 319.77,144.51" fill="none" stroke="rgb(0, 255, 0)" stroke-width="2.32" stroke-opacity="1.00" stroke-linejoin="round"/>
<path d="M405.32,82.81 C405.32,82.81 405.15,82.81 405.15,82.81 C405.15,82.81 404.98,81.83 404.98,81.83 C404.50,84.68 390.79,126.20 386.94,135.26 C384.61,140.63 378.30,150.46 377.12,152.14" fill="none" stroke="rgb(0, 255, 0)" stroke-width="2.32" stroke-opacity="1.00" stroke-linejoin="round"/>
<path d="M380.18,113.06 C380.18,113.06 379.67,113.76 379.67,113.76 C379.79,115.22 382.09,134.39 382.23,137.90 C382.32,141.42 382.45,148.58 382.50,152.24 C382.64,162.35 383.12,167.90 383.42,171.33" fill="none" stroke="rgb(0, 255, 0)" stroke-width="2.32" stroke-opacity="1.00" stroke-linejoin="round"/>
<path d="M371.00,135.49 C371.00,135.49 370.42,136.09 370.42,136.09 C373.72,140.27 378.11,147.69 379.90,152.60 C380.66,154.69 381.64,157.58 382.14,159.22 C382.77,161.32 384.16,166.78 384.42,167.81" fill="none" stroke="rgb(0, 255, 0)" stroke-width="2.32" stroke-opacity="1.00" stroke-linejoin="round"/>
<path d="M395.81,75.34 C395.81,75.34 395.30,75.51 395.30,75.51 C395.02,76.15 395.35,78.97 396.21,84.32 C397.57,92.20 400.53,104.99 402.03,107.85 C402.24,108.24 403.43,110.01 404.29,111.34" fill="none" stroke="rgb(0, 255, 0)" stroke-width="2.32" stroke-opacity="1.00" stroke-linejoin="round"/>
<path d="M407.02,116.46 C407.02,116.46 406.17,116.54 406.17,116.54 C406.17,116.54 406.06,116.71 406.06,116.71 C407.71,117.96 410.98,130.64 412.03,137.44 C412.92,143.26 413.40,153.01 413.45,154.22" fill="none" stroke="rgb(0, 255, 0)" stroke-width="2.32" stroke-opacity="1.00" stroke-linejoin="round"/>
<path d="M402.26,124.27 C402.26,124.27 399.55,125.97 399.55,125.97 C399.76,126.10 403.63,129.00 404.78,131.47 C406.92,136.20 409.51,149.16 409.99,156.04 C410.25,159.88 410.38,163.95 410.41,165.77" fill="none" stroke="rgb(0, 255, 0)" stroke-width="2.32" stroke-opacity="1.00" stroke-linejoin="round"/>
<path d="M439.65,108.30 C439.65,108.30 437.22,107.45 437.22,107.45 C437.09,107.54 436.05,113.90 435.28,116.70 C434.09,120.94 428.78,133.85 427.64,136.86 C426.25,140.33 422.16,148.23 417.28,154.30 C412.62,159.98 404.00,170.36 399.81,174.52 C394.05,180.23 384.32,187.74 379.69,190.43 C373.70,193.89 366.25,196.60 353.39,199.82 C342.74,202.55 307.04,215.41 295.78,218.85 C289.30,220.73 281.90,222.87 280.99,223.13" fill="none" stroke="rgb(0, 255, 0)" stroke-width="2.32" stroke-opacity="1.00" stroke-linejoin="round"/>
<path d="M285.02,222.49 C285.02,222.49 283.86,223.17 283.86,223.17 C283.45,223.09 281.13,224.11 277.85,224.82 C274.12,225.61 267.94,225.92 266.83,226.03 C265.80,226.13 253.98,229.13 252.65,229.47" fill="none" stroke="rgb(0, 255, 0)" stroke-width="2.32" stroke-opacity="1.00" stroke-linejoin="round"/>
<path d="M421.30,168.79 C421.33,168.74 420.56,170.73 419.82,172.51 C418.96,174.64 413.56,190.31 411.70,197.51 C406.64,218.55 404.70,221.90 402.97,224.41 C402.97,224.41 401.93,224.19 401.93,224.19" fill="none" stroke="rgb(0, 255, 0)" stroke-width="2.32" stroke-opacity="1.00" stroke-linejoin="round"/>
<path d="M405.66,189.52 C405.66,189.52 404.47,189.69 404.47,189.69 C404.27,191.42 404.48,197.21 404.69,200.22 C404.91,203.15 406.83,220.61 407.76,228.63 C410.95,255.23 412.15,262.99 412.46,264.97" fill="none" stroke="rgb(0, 255, 0)" stroke-width="2.32" stroke-opacity="1.00" stroke-linejoin="round"/>
<path d="M411.78,225.55 C411.18,226.11 410.61,227.56 410.09,230.84 C409.83,232.45 409.43,234.57 409.14,235.85 C408.90,236.87 408.23,239.16 407.80,240.57" fill="none" stroke="rgb(0, 255, 0)" stroke-width="2.32" stroke-opacity="1.00" stroke-linejoin="round"/>
<path d="M427.07,225.21 C426.86,225.10 426.65,225.16 426.43,225.38 C424.94,226.89 422.55,232.23 421.01,235.90 C419.80,238.91 417.23,245.42 415.87,248.91 C414.34,252.94 412.77,257.59 411.11,262.74" fill="none" stroke="rgb(0, 255, 0)" stroke-width="2.32" stroke-opacity="1.00" stroke-linejoin="round"/>
<path d="M418.24,268.03 C418.24,268.03 417.62,267.69 417.62,267.69 C419.94,269.84 423.38,273.73 425.27,276.19 C428.77,280.78 434.50,289.79 437.02,294.88 C438.22,297.31 440.70,303.08 441.35,304.60" fill="none" stroke="rgb(0, 255, 0)" stroke-width="2.32" stroke-opacity="1.00" stroke-linejoin="round"/>
<path d="M453.24,283.32 C453.09,283.42 452.53,284.45 452.46,284.56 C449.61,288.93 442.32,296.54 437.74,301.17 C433.43,305.27 424.46,313.86 419.80,318.35 C418.67,319.40 416.82,321.13 416.09,321.80" fill="none" stroke="rgb(0, 255, 0)" stroke-width="2.32" stroke-opacity="1.00" stroke-linejoin="round"/>
<path d="M456.64,332.26 C456.74,332.17 455.43,334.27 454.60,335.49 C453.54,337.04 450.05,341.31 448.72,342.62 C444.98,346.09 440.63,350.18 438.52,352.36" fill="none" stroke="rgb(0, 255, 0)" stroke-width="2.32" stroke-opacity="1.00" stroke-linejoin="round"/>
<path d="M439.99,308.81 C439.76,309.08 439.65,309.34 439.65,309.58 C439.64,309.94 440.21,312.60 440.33,313.34 C440.68,315.44 441.19,321.38 441.31,322.97" fill="none" stroke="rgb(0, 255, 0)" stroke-width="2.32" stroke-opacity="1.00" stroke-linejoin="round"/>
<path d="M413.82,278.22 C413.82,278.22 413.34,278.22 413.34,278.22 C413.27,278.57 413.38,279.13 413.90,280.81 C414.39,282.40 415.01,284.56 415.52,286.43 C415.99,288.15 416.30,289.48 416.60,290.95" fill="none" stroke="rgb(0, 255, 0)" stroke-width="2.32" stroke-opacity="1.00" stroke-linejoin="round"/>
<path d="M392.41,268.37 C392.33,268.30 392.27,268.25 392.24,268.20 C392.21,268.15 392.15,268.03 392.07,267.86 C392.11,267.79 394.22,270.14 392.83,291.02 C392.08,300.48 390.58,311.58 389.17,317.18 C387.45,323.91 385.03,333.50 384.64,335.27" fill="none" stroke="rgb(0, 255, 0)" stroke-width="2.32" stroke-opacity="1.00" stroke-linejoin="round"/>
<path d="M411.44,333.62 C411.32,333.19 410.99,332.63 410.98,332.58 C410.71,331.65 408.34,323.86 407.12,321.52 C406.39,320.15 393.63,303.73 392.46,302.22 C390.42,299.62 382.29,291.24 376.20,286.51 C373.83,284.69 370.05,282.11 368.84,281.20 C367.43,280.15 362.90,276.50 361.85,275.65" fill="none" stroke="rgb(0, 255, 0)" stroke-width="2.32" stroke-opacity="1.00" stroke-linejoin="round"/>
<path d="M381.53,257.15 C381.56,257.28 381.30,257.62 381.19,257.77 C377.59,263.21 370.76,271.67 364.98,277.41 C363.39,278.98 347.89,293.53 346.18,294.80 C338.57,300.33 326.31,307.90 322.96,310.36 C320.77,311.98 306.52,323.79 304.11,325.61 C302.05,327.14 296.82,330.48 295.42,331.36" fill="none" stroke="rgb(0, 255, 0)" stroke-width="2.32" stroke-opacity="1.00" stroke-linejoin="round"/>
<path d="M337.35,276.52 C337.35,276.52 337.18,276.52 337.18,276.52 C337.18,276.52 337.02,276.66 337.02,276.66 C337.14,276.91 342.82,279.30 345.15,280.53 C349.06,282.61 357.48,290.08 360.75,294.00 C364.11,298.04 371.30,310.25 375.60,317.56 C381.58,327.87 383.81,332.20 384.40,333.47" fill="none" stroke="rgb(0, 255, 0)" stroke-width="2.32" stroke-opacity="1.00" stroke-linejoin="round"/>
<path d="M350.95,269.73 C350.95,270.99 352.90,276.48 353.17,277.75 C353.50,279.28 353.83,281.86 354.01,284.18 C354.16,286.17 354.28,289.63 354.34,291.55" fill="none" stroke="rgb(0, 255, 0)" stroke-width="2.32" stroke-opacity="1.00" stroke-linejoin="round"/>
<path d="M367.26,297.93 C367.26,297.93 366.41,298.54 366.41,298.54 C366.11,299.67 365.36,306.29 365.13,307.76 C364.15,313.77 360.92,323.46 356.41,333.91 C354.61,337.97 350.42,347.21 349.72,348.63 C347.49,353.09 344.24,358.18 342.79,360.46" fill="none" stroke="rgb(0, 255, 0)" stroke-width="2.32" stroke-opacity="1.00" stroke-linejoin="round"/>
<path d="M381.87,241.18 C381.87,241.18 380.59,241.24 380.59,241.24 C380.57,244.24 380.59,250.74 380.61,254.23 C380.70,258.55 380.69,262.67 380.57,266.94 C380.52,268.76 380.45,269.67 380.29,270.87" fill="none" stroke="rgb(0, 255, 0)" stroke-width="2.32" stroke-opacity="1.00" stroke-linejoin="round"/>
<path d="M400.23,198.70 C398.75,199.36 389.15,208.52 384.85,212.44 C380.92,216.36 374.77,225.22 372.83,228.54 C371.86,230.20 370.90,232.07 369.81,234.29" fill="none" stroke="rgb(0, 255, 0)" stroke-width="2.32" stroke-opacity="1.00" stroke-linejoin="round"/>
<path d="M372.70,220.79 C372.04,220.85 370.15,223.13 368.18,226.75 C367.57,227.86 363.13,236.77 361.61,239.84" fill="none" stroke="rgb(0, 255, 0)" stroke-width="2.32" stroke-opacity="1.00" stroke-linejoin="round"/>
<path d="M428.43,82.81 C428.43,82.81 428.43,82.64 428.43,82.64 C429.01,83.10 429.18,83.80 429.14,86.15 C428.98,102.58 428.78,127.08 429.23,132.09 C429.41,134.15 429.90,136.81 430.44,139.07" fill="none" stroke="rgb(0, 255, 0)" stroke-width="2.32" stroke-opacity="1.00" stroke-linejoin="round"/>
<path d="M422.66,109.32 C422.66,109.32 422.15,109.43 422.15,109.43 C421.98,109.99 421.97,110.76 422.13,112.48 C422.25,113.81 422.51,116.34 422.63,117.55 C422.80,119.09 422.87,119.87 422.95,121.06" fill="none" stroke="rgb(0, 255, 0)" stroke-width="2.32" stroke-opacity="1.00" stroke-linejoin="round"/>
<path d="M455.96,70.58 C455.96,70.58 455.62,69.05 455.62,69.05 C454.62,69.46 453.99,69.89 453.12,70.92 C451.29,73.08 447.75,77.25 446.05,79.27" fill="none" stroke="rgb(0, 255, 0)" stroke-width="2.32" stroke-opacity="1.00" stroke-linejoin="round"/>
<path d="M464.12,81.45 C464.12,81.45 463.44,81.51 463.44,81.51 C463.40,81.97 465.04,94.45 465.23,103.45 C465.29,107.70 465.05,111.82 464.64,115.11 C464.26,117.97 463.10,123.49 462.78,124.94" fill="none" stroke="rgb(0, 255, 0)" stroke-width="2.32" stroke-opacity="1.00" stroke-linejoin="round"/>
<path d="M446.44,86.89 C445.40,87.62 444.69,88.81 444.77,93.60 C445.04,105.71 447.69,129.88 448.29,132.41 C449.09,135.54 450.24,138.93 451.35,140.78" fill="none" stroke="rgb(0, 255, 0)" stroke-width="2.32" stroke-opacity="1.00" stroke-linejoin="round"/>
<path d="M461.06,104.22 C461.06,104.03 461.06,103.83 461.06,103.64 C461.06,103.62 461.06,103.55 461.06,103.57 C460.23,105.43 458.90,108.69 458.13,110.86 C457.52,112.60 455.56,119.56 455.21,120.80" fill="none" stroke="rgb(0, 255, 0)" stroke-width="2.32" stroke-opacity="1.00" stroke-linejoin="round"/>
<path d="M472.61,108.64 C472.61,108.64 472.44,108.64 472.44,108.64 C472.28,108.80 471.90,109.15 471.93,109.68 C472.07,111.67 474.38,125.76 474.95,135.60 C475.21,139.08 475.78,146.39 476.38,149.19 C476.80,151.12 477.72,153.41 478.89,155.77" fill="none" stroke="rgb(0, 255, 0)" stroke-width="2.32" stroke-opacity="1.00" stroke-linejoin="round"/>
<path d="M452.56,151.12 C452.58,151.37 455.14,163.87 457.38,172.94 C460.11,183.72 461.60,191.86 461.94,199.12 C462.14,204.45 462.28,206.91 462.60,210.45" fill="none" stroke="rgb(0, 255, 0)" stroke-width="2.32" stroke-opacity="1.00" stroke-linejoin="round"/>
<path d="M453.58,143.98 C453.54,143.12 453.61,142.13 453.86,139.89 C453.95,139.15 453.90,138.90 453.75,138.64 C453.03,138.92 450.86,142.03 449.09,145.28 C447.05,149.04 444.65,154.20 442.43,159.47 C441.71,161.19 440.53,164.05 440.07,165.19" fill="none" stroke="rgb(0, 255, 0)" stroke-width="2.32" stroke-opacity="1.00" stroke-linejoin="round"/>
<path d="M452.90,195.98 C451.70,196.81 449.89,199.02 448.28,202.10 C447.74,203.12 447.33,203.86 447.04,204.30 C446.78,204.68 446.24,205.42 445.40,206.51" fill="none" stroke="rgb(0, 255, 0)" stroke-width="2.32" stroke-opacity="1.00" stroke-linejoin="round"/>
<path d="M438.97,223.51 C439.00,223.46 438.97,223.62 438.97,223.68 C438.58,226.78 438.37,228.85 438.01,233.33 C437.85,235.28 437.54,238.78 437.41,240.33" fill="none" stroke="rgb(0, 255, 0)" stroke-width="2.32" stroke-opacity="1.00" stroke-linejoin="round"/>
<path d="M453.92,235.06 C453.79,235.63 453.64,236.53 453.64,237.12 C454.01,244.22 453.36,249.26 452.73,252.22" fill="none" stroke="rgb(0, 255, 0)" stroke-width="2.32" stroke-opacity="1.00" stroke-linejoin="round"/>
<path d="M467.85,254.43 C467.85,254.43 468.19,254.87 468.19,254.87 C468.14,255.47 466.33,258.87 465.02,260.81 C464.47,261.61 462.97,263.57 462.42,264.29" fill="none" stroke="rgb(0, 255, 0)" stroke-width="2.32" stroke-opacity="1.00" stroke-linejoin="round"/>
<path d="M385.95,69.22 C385.53,70.62 385.33,71.72 385.30,73.00 C385.26,75.28 385.75,79.42 385.83,80.15 C385.86,80.49 385.90,81.06 385.95,81.86" fill="none" stroke="rgb(0, 255, 0)" stroke-width="2.32" stroke-opacity="1.00" stroke-linejoin="round"/>
<path d="M277.88,230.30 C277.88,230.30 277.54,226.96 277.54,226.96 C277.58,231.98 272.68,258.62 272.21,261.86 C271.60,266.12 270.39,278.28 270.27,279.50" fill="none" stroke="rgb(0, 255, 0)" stroke-width="2.32" stroke-opacity="1.00" stroke-linejoin="round"/>
<path d="M284.34,228.94 C284.34,228.94 284.34,228.58 284.34,228.58 C284.28,229.99 283.61,233.81 282.28,240.27 C281.85,242.32 281.14,245.72 280.86,247.07" fill="none" stroke="rgb(0, 255, 0)" stroke-width="2.32" stroke-opacity="1.00" stroke-linejoin="round"/>
<path d="M291.14,232.00 C291.14,232.00 290.63,232.08 290.63,232.08 C289.17,236.76 285.08,249.04 282.45,256.62 C280.23,263.23 277.67,270.94 277.33,272.04" fill="none" stroke="rgb(0, 255, 0)" stroke-width="2.32" stroke-opacity="1.00" stroke-linejoin="round"/>
</g>
</svg>
