<?xml version="1.0" encoding="UTF-8" standalone="no"?>
<!DOCTYPE svg PUBLIC "-//W3C//DTD SVG 1.1//EN" "http://www.w3.org/Graphics/SVG/1.1/DTD/svg11.dtd">
<svg width="128.40" height="181.68" viewBox="0.00 0.00 535.00 757.00" xmlns="http://www.w3.org/2000/svg" xmlns:xlink="http://www.w3.org/1999/xlink">
<g stroke-linecap="round" transform="translate(44.00, 155.00)" id="123-사람">
<path d="M209.64,313.63 C209.64,313.63 208.78,313.29 208.78,313.29 C208.38,315.75 208.09,320.67 208.10,322.09 C208.18,329.96 208.56,334.97 208.05,341.54 C207.62,345.67 206.19,360.50 206.05,361.22 C205.99,361.49 205.88,361.83 205.70,362.22" fill="none" stroke="rgb(255, 0, 0)" stroke-width="2.35" stroke-opacity="1.00" stroke-linejoin="round"/>
<path d="M208.44,315.85 C208.10,316.22 207.59,316.99 207.39,317.69 C207.38,317.70 205.77,329.18 205.10,335.30 C204.87,337.42 203.30,353.92 203.32,359.85 C203.32,361.08 203.46,362.72 203.65,364.28" fill="none" stroke="rgb(255, 0, 0)" stroke-width="2.35" stroke-opacity="1.00" stroke-linejoin="round"/>
<path d="M208.10,314.31 C207.21,314.96 206.83,315.78 205.57,320.33 C204.39,324.48 201.79,334.07 200.82,340.42 C199.75,347.66 201.03,362.23 201.23,364.86 C201.27,365.19 201.32,365.42 201.38,365.55" fill="none" stroke="rgb(255, 0, 0)" stroke-width="2.35" stroke-opacity="1.00" stroke-linejoin="round"/>
<path d="M208.78,311.23 C208.78,311.23 208.53,311.23 208.53,311.23 C208.53,311.23 208.35,310.74 208.35,310.74 C207.17,311.33 204.62,313.33 202.55,315.45 C201.21,316.84 199.33,319.59 198.44,322.09 C196.97,326.27 195.02,335.70 195.26,341.16 C195.50,345.81 199.58,376.25 200.57,380.32 C200.66,380.69 200.72,381.05 200.74,381.39" fill="none" stroke="rgb(255, 0, 0)" stroke-width="2.35" stroke-opacity="1.00" stroke-linejoin="round"/>
<path d="M199.89,381.05 C199.89,381.05 199.39,381.73 199.39,381.73 C199.15,381.48 196.06,370.08 195.13,365.44 C193.98,359.70 192.71,347.83 192.61,339.93 C192.61,337.67 193.01,334.40 193.77,330.99 C194.53,327.71 196.58,322.98 198.19,321.05 C200.13,318.75 203.40,315.90 205.55,314.13 C206.93,313.01 207.69,312.33 208.61,311.40" fill="none" stroke="rgb(255, 0, 0)" stroke-width="2.35" stroke-opacity="1.00" stroke-linejoin="round"/>
<path d="M208.95,310.55 C208.47,310.53 204.45,311.11 203.40,311.45 C200.26,312.50 197.69,315.02 194.99,318.76 C193.20,321.29 191.01,330.90 190.82,338.19 C190.84,343.62 190.99,354.18 192.12,360.27 C192.48,362.14 193.08,365.20 193.36,366.46 C193.60,367.57 194.08,368.72 195.09,370.78" fill="none" stroke="rgb(255, 0, 0)" stroke-width="2.35" stroke-opacity="1.00" stroke-linejoin="round"/>
<path d="M194.07,366.50 C193.23,366.25 192.41,365.59 191.97,364.61 C191.85,364.33 189.29,356.94 188.09,353.84 C186.46,349.28 185.20,334.35 185.51,331.17 C185.68,329.50 186.81,325.24 188.25,320.84 C189.23,317.89 190.97,314.36 192.62,312.21 C194.43,309.92 198.64,307.10 200.64,306.54 C202.63,306.02 207.84,304.13 209.35,303.80 C211.39,303.36 216.91,303.21 219.31,303.38 C221.78,303.58 224.07,304.45 227.39,307.05 C228.09,307.65 230.38,309.42 231.09,310.10 C231.89,310.88 235.86,317.59 236.56,320.37 C236.87,321.66 236.71,324.24 236.67,324.75" fill="none" stroke="rgb(255, 0, 0)" stroke-width="2.35" stroke-opacity="1.00" stroke-linejoin="round"/>
<path d="M234.96,326.12 C234.96,326.12 234.13,325.69 234.13,325.69 C234.09,325.28 234.23,320.47 233.49,318.22 C232.74,316.10 228.93,311.93 226.75,310.32 C224.66,308.81 220.63,307.03 218.64,306.74 C216.81,306.51 210.20,307.19 207.60,307.99 C205.13,308.78 201.43,310.82 200.37,312.01 C199.58,312.89 198.79,313.77 198.00,314.65" fill="none" stroke="rgb(255, 0, 0)" stroke-width="2.35" stroke-opacity="1.00" stroke-linejoin="round"/>
<path d="M205.36,311.92 C205.36,311.92 205.19,311.66 205.19,311.66 C205.37,311.49 205.57,311.37 205.79,311.32 C207.17,310.97 213.79,310.55 215.54,310.93 C215.55,310.93 222.23,313.40 222.24,313.40 C223.78,313.94 230.97,319.19 231.79,319.99 C232.16,320.35 232.96,321.67 233.35,322.23" fill="none" stroke="rgb(255, 0, 0)" stroke-width="2.35" stroke-opacity="1.00" stroke-linejoin="round"/>
<path d="M232.91,322.01 C232.91,322.01 232.48,322.27 232.48,322.27 C232.41,322.76 232.37,323.79 232.47,324.46 C232.91,326.74 232.84,329.84 232.12,332.39 C231.68,333.90 229.36,338.46 228.06,339.93 C226.50,341.67 224.66,342.72 224.27,342.80 C224.04,342.84 223.63,342.83 223.04,342.75" fill="none" stroke="rgb(255, 0, 0)" stroke-width="2.35" stroke-opacity="1.00" stroke-linejoin="round"/>
<path d="M228.80,321.50 C228.80,321.50 228.80,321.17 228.80,321.17 C228.80,321.17 216.71,320.46 216.71,320.46 C217.81,321.03 228.84,321.19 229.03,321.22 C229.30,321.25 229.56,321.29 229.83,321.33" fill="none" stroke="rgb(255, 0, 0)" stroke-width="2.35" stroke-opacity="1.00" stroke-linejoin="round"/>
<path d="M225.89,324.92 C225.89,324.92 224.90,324.98 224.90,324.98 C224.90,324.98 225.01,327.80 225.01,327.80 C225.01,327.80 225.65,325.63 225.65,325.63 C225.65,325.63 225.50,326.98 225.50,326.98 C225.50,326.98 225.72,326.29 225.72,326.29" fill="none" stroke="rgb(255, 0, 0)" stroke-width="2.35" stroke-opacity="1.00" stroke-linejoin="round"/>
<path d="M230.34,334.50 C229.99,334.52 229.68,334.68 229.38,335.01 C229.02,335.37 224.84,335.52 224.28,335.76 C224.28,335.76 224.53,335.87 224.53,335.87" fill="none" stroke="rgb(255, 0, 0)" stroke-width="2.35" stroke-opacity="1.00" stroke-linejoin="round"/>
<path d="M209.47,319.96 C209.57,319.96 209.70,319.96 209.86,319.96 C211.34,319.97 217.41,319.22 219.85,319.43 C219.94,319.44 233.37,320.79 233.65,320.79 C233.75,320.79 233.97,320.80 234.34,320.81" fill="none" stroke="rgb(255, 0, 0)" stroke-width="2.35" stroke-opacity="1.00" stroke-linejoin="round"/>
<path d="M218.02,345.97 C217.62,345.99 216.96,345.86 216.72,345.81 C216.57,345.77 215.76,345.84 215.25,345.89 C214.45,346.93 214.18,349.27 214.46,351.86 C215.30,359.55 216.09,372.27 216.38,372.18 C216.94,372.42 219.05,372.01 219.36,371.69 C219.82,371.00 218.44,348.22 217.91,346.72 C217.87,346.61 217.80,346.53 217.68,346.48" fill="none" stroke="rgb(255, 0, 0)" stroke-width="2.35" stroke-opacity="1.00" stroke-linejoin="round"/>
<path d="M216.65,370.78 C216.65,370.78 216.48,370.75 216.48,370.75 C216.82,370.08 218.84,369.45 220.56,369.86 C221.88,370.22 222.66,371.81 222.77,373.22 C222.82,374.25 222.31,375.54 221.58,375.74 C220.70,375.94 218.61,375.36 217.60,374.78 C217.20,374.53 216.92,374.00 216.69,373.07 C216.64,372.86 216.57,372.49 216.48,371.98" fill="none" stroke="rgb(255, 0, 0)" stroke-width="2.35" stroke-opacity="1.00" stroke-linejoin="round"/>
<path d="M221.79,349.90 C221.79,349.90 220.78,349.07 220.78,349.07 C220.90,349.46 221.48,350.24 222.19,350.88 C222.54,351.20 222.90,351.34 222.94,351.38 C226.89,355.56 228.79,358.23 229.39,359.69 C229.13,360.20 220.82,364.96 220.55,365.15 C220.50,365.18 220.40,365.24 220.25,365.30" fill="none" stroke="rgb(255, 0, 0)" stroke-width="2.35" stroke-opacity="1.00" stroke-linejoin="round"/>
<path d="M215.46,367.19 C215.46,367.19 215.37,367.19 215.37,367.19 C215.37,367.19 215.29,367.27 215.29,367.27 C215.29,367.27 215.29,367.36 215.29,367.36 C215.09,367.32 214.28,367.57 213.45,368.15 C213.05,368.44 212.12,369.16 210.67,370.32 C210.67,370.32 211.18,370.10 211.18,370.10" fill="none" stroke="rgb(255, 0, 0)" stroke-width="2.35" stroke-opacity="1.00" stroke-linejoin="round"/>
<path d="M211.35,369.75 C210.98,369.85 210.43,370.37 210.35,370.99 C209.40,379.05 210.56,391.75 210.92,392.05 C210.92,392.05 217.19,391.29 217.19,391.29 C218.08,388.81 217.74,383.62 217.95,380.13 C217.96,379.94 218.03,378.91 218.17,377.01 C218.20,376.74 218.20,376.60 218.19,376.60" fill="none" stroke="rgb(255, 0, 0)" stroke-width="2.35" stroke-opacity="1.00" stroke-linejoin="round"/>
<path d="M219.91,387.89 C219.91,387.89 218.76,388.92 218.76,388.92 C218.79,388.96 227.22,388.37 227.23,388.37 C227.23,388.37 227.27,388.34 227.35,388.29 C227.03,386.33 227.54,362.57 227.54,362.45 C227.54,362.17 227.56,361.69 227.61,361.03" fill="none" stroke="rgb(255, 0, 0)" stroke-width="2.35" stroke-opacity="1.00" stroke-linejoin="round"/>
<path d="M228.80,386.86 C228.80,386.86 228.29,387.46 228.29,387.46 C228.37,387.55 229.83,387.93 231.50,389.65 C234.43,392.74 234.79,397.44 234.73,398.11 C233.42,398.68 222.39,397.87 221.97,396.55 C221.74,392.58 221.45,389.75 221.40,389.53 C221.36,389.36 221.26,389.09 221.10,388.75" fill="none" stroke="rgb(255, 0, 0)" stroke-width="2.35" stroke-opacity="1.00" stroke-linejoin="round"/>
<path d="M219.05,390.29 C219.05,390.29 218.79,390.37 218.79,390.37 C218.79,390.37 218.71,390.50 218.71,390.50 C218.71,390.50 221.70,397.15 221.70,397.15 C219.58,397.64 216.82,398.14 215.89,397.94 C212.34,397.15 208.42,397.11 208.28,396.86 C208.84,393.70 208.47,389.29 208.27,388.46 C208.26,388.42 208.26,388.40 208.27,388.40" fill="none" stroke="rgb(255, 0, 0)" stroke-width="2.35" stroke-opacity="1.00" stroke-linejoin="round"/>
<path d="M209.47,365.30 C209.47,365.30 209.07,365.65 209.07,365.65 C209.07,365.65 209.09,366.38 209.09,366.38 C209.47,366.75 210.41,367.65 210.49,367.76 C210.57,367.85 210.66,368.02 210.78,368.26" fill="none" stroke="rgb(255, 0, 0)" stroke-width="2.35" stroke-opacity="1.00" stroke-linejoin="round"/>
</g>
</svg>
