<?xml version="1.0" encoding="UTF-8" standalone="no"?>
<!DOCTYPE svg PUBLIC "-//W3C//DTD SVG 1.1//EN" "http://www.w3.org/Graphics/SVG/1.1/DTD/svg11.dtd">
<svg width="128.40" height="181.68" viewBox="0.00 0.00 535.00 757.00" xmlns="http://www.w3.org/2000/svg" xmlns:xlink="http://www.w3.org/1999/xlink">
<g stroke-linecap="round" transform="translate(44.00, 155.00)" id="123-가방">
<path d="M209.13,341.18 C209.13,341.18 208.44,341.86 208.44,341.86 C207.17,341.00 196.48,341.96 194.70,343.43 C191.80,346.03 190.39,366.03 190.47,366.21 C190.68,367.62 206.60,365.62 207.03,365.47 C207.18,364.83 209.90,343.64 209.88,343.41 C209.87,343.28 209.82,342.94 209.71,342.40" fill="none" stroke="rgb(0, 0, 255)" stroke-width="2.35" stroke-opacity="1.00" stroke-linejoin="round"/>
<path d="M213.23,342.37 C213.09,342.37 212.95,342.37 212.80,342.37 C212.80,342.37 212.78,342.37 212.78,342.37 C216.32,342.41 220.13,343.72 221.39,345.03 C222.39,346.16 223.78,350.04 223.56,351.82 C223.35,353.29 221.78,355.31 221.42,355.55 C221.21,355.68 220.79,355.84 220.17,356.03" fill="none" stroke="rgb(0, 0, 255)" stroke-width="2.35" stroke-opacity="1.00" stroke-linejoin="round"/>
<path d="M214.09,356.75 C213.97,356.74 213.83,356.77 213.70,356.83 C213.67,356.85 213.63,356.88 213.57,356.92 C213.57,356.92 209.73,357.33 209.73,357.33 C209.73,357.33 209.47,357.09 209.47,357.09" fill="none" stroke="rgb(0, 0, 255)" stroke-width="2.35" stroke-opacity="1.00" stroke-linejoin="round"/>
<path d="M210.15,358.46 C209.45,358.47 209.19,358.40 209.06,358.31 C209.03,358.28 208.97,358.24 208.89,358.19" fill="none" stroke="rgb(0, 0, 255)" stroke-width="2.35" stroke-opacity="1.00" stroke-linejoin="round"/>
<path d="M213.23,342.37 C212.91,342.61 212.69,342.75 212.59,342.80 C212.49,342.85 212.36,342.88 212.21,342.89" fill="none" stroke="rgb(0, 0, 255)" stroke-width="2.35" stroke-opacity="1.00" stroke-linejoin="round"/>
<path d="M191.16,366.50 C191.14,366.64 191.12,366.72 191.11,366.76 C191.10,366.79 191.07,366.82 191.04,366.84" fill="none" stroke="rgb(0, 0, 255)" stroke-width="2.35" stroke-opacity="1.00" stroke-linejoin="round"/>
</g>
</svg>
