<?xml version="1.0" encoding="UTF-8" standalone="no"?>
<!DOCTYPE svg PUBLIC "-//W3C//DTD SVG 1.1//EN" "http://www.w3.org/Graphics/SVG/1.1/DTD/svg11.dtd">
<svg width="128.40" height="181.68" viewBox="0.00 0.00 535.00 757.00" xmlns="http://www.w3.org/2000/svg" xmlns:xlink="http://www.w3.org/1999/xlink">
<g stroke-linecap="round" transform="translate(44.00, 155.00)" id="126-지면">
<path d="M-14.82,264.80 C-14.82,264.80 -19.70,263.87 -19.70,263.87 C-18.00,262.82 -10.67,262.72 -9.32,262.63 C-7.65,262.55 -4.58,262.65 -3.37,262.96 C-2.46,263.20 0.68,264.55 2.66,264.81 C6.01,265.23 17.14,264.55 26.02,264.60 C50.35,264.93 64.39,265.51 80.89,265.52 C93.43,265.55 127.42,261.27 134.71,261.73 C142.42,262.24 155.75,261.83 161.97,262.07 C164.75,262.19 169.43,262.63 172.32,262.91" fill="none" stroke="rgb(229, 0, 16)" stroke-width="2.41" stroke-opacity="1.00" stroke-linejoin="round"/>
<path d="M241.76,271.85 C241.76,271.85 241.56,271.85 241.56,271.85 C241.56,271.85 240.98,271.44 240.98,271.44 C244.51,272.35 258.91,274.28 267.13,274.35 C281.52,274.30 316.51,273.94 322.83,274.53 C330.34,275.33 341.51,276.54 349.66,276.63 C376.04,276.63 397.38,277.55 408.54,277.31 C416.39,277.11 432.19,276.82 440.10,276.88 C450.68,277.10 455.36,277.59 465.12,279.52 C475.78,281.51 482.46,283.05 483.94,283.78 C483.94,283.78 483.09,283.89 483.09,283.89" fill="none" stroke="rgb(229, 0, 16)" stroke-width="2.41" stroke-opacity="1.00" stroke-linejoin="round"/>
</g>
</svg>
