<?xml version="1.0" encoding="UTF-8" standalone="no"?>
<!DOCTYPE svg PUBLIC "-//W3C//DTD SVG 1.1//EN" "http://www.w3.org/Graphics/SVG/1.1/DTD/svg11.dtd">
<svg width="128.40" height="181.68" viewBox="0.00 0.00 535.00 757.00" xmlns="http://www.w3.org/2000/svg" xmlns:xlink="http://www.w3.org/1999/xlink">
<g stroke-linecap="round" transform="translate(44.00, 155.00)" id="126-사람">
<path d="M164.96,188.82 C164.96,188.82 163.84,188.42 163.84,188.42 C163.27,187.37 163.30,181.69 162.95,178.24 C162.06,169.50 162.14,163.96 163.46,153.17 C164.09,148.25 164.75,144.42 165.45,142.06 C166.67,138.02 171.96,130.27 174.89,127.07 C176.69,125.14 180.72,121.95 183.02,120.69 C187.65,118.19 196.95,116.58 203.13,116.28 C208.73,116.03 220.49,117.57 224.19,119.46 C228.13,121.51 235.05,128.04 238.23,132.76 C239.71,134.99 241.63,138.43 242.24,140.40 C243.35,144.10 243.94,152.76 243.28,158.43 C242.67,163.44 239.48,171.46 236.96,175.51 C233.10,181.69 228.30,190.71 226.64,194.90 C226.64,194.90 226.98,194.32 226.98,194.32" fill="none" stroke="rgb(255, 0, 255)" stroke-width="2.41" stroke-opacity="1.00" stroke-linejoin="round"/>
<path d="M230.14,187.99 C230.14,186.96 230.17,186.26 230.23,185.91 C230.42,184.80 233.69,178.48 234.81,175.19 C235.28,173.79 237.33,166.07 238.32,162.85 C238.92,160.88 240.95,143.26 240.55,141.58 C240.55,141.57 240.21,141.13 239.91,140.60 C239.91,140.60 235.48,159.47 235.48,159.47 C235.48,159.47 232.48,131.78 232.48,131.78 C232.48,131.78 231.00,152.71 231.00,152.71 C231.00,152.71 229.72,145.22 229.72,145.22" fill="none" stroke="rgb(255, 0, 255)" stroke-width="2.41" stroke-opacity="1.00" stroke-linejoin="round"/>
<path d="M227.65,126.13 C227.65,126.13 226.82,124.10 226.82,124.10 C226.82,124.10 226.57,154.59 226.57,154.59 C225.48,148.93 223.96,131.30 223.02,126.42 C222.57,124.08 222.02,122.27 221.94,122.59 C221.94,122.59 220.87,151.74 220.87,151.74 C220.87,151.74 215.00,116.39 215.00,116.39 C214.28,119.14 214.41,124.05 214.27,129.49 C213.92,137.88 213.25,152.80 213.10,153.97 C213.10,153.97 209.80,119.12 209.80,119.12 C209.80,119.12 209.38,146.73 209.38,146.73 C209.38,146.73 208.97,129.45 208.97,129.45" fill="none" stroke="rgb(255, 0, 255)" stroke-width="2.41" stroke-opacity="1.00" stroke-linejoin="round"/>
<path d="M208.55,123.64 C208.55,123.64 208.14,120.21 208.14,120.21 C208.14,120.21 207.10,119.48 207.10,119.48 C207.10,119.48 203.26,151.34 203.26,151.34 C202.55,147.84 202.19,132.11 202.12,130.66 C202.04,128.97 201.68,125.57 201.32,123.14 C200.95,120.71 200.57,119.28 200.22,118.67 C199.42,121.25 199.09,137.87 199.00,145.14 C198.99,146.52 198.97,148.61 198.96,149.30 C198.96,149.30 196.13,112.34 196.13,112.34 C196.13,112.34 195.68,126.69 195.68,126.69 C195.68,126.69 195.98,126.30 195.98,126.30" fill="none" stroke="rgb(255, 0, 255)" stroke-width="2.41" stroke-opacity="1.00" stroke-linejoin="round"/>
<path d="M194.85,119.48 C194.85,119.48 195.26,117.82 195.26,117.82 C194.31,118.93 193.38,124.28 192.77,129.40 C192.18,134.94 191.94,148.80 191.94,150.68 C191.93,148.05 191.95,141.29 191.99,137.16 C192.12,129.62 192.27,120.19 192.29,118.30 C192.29,118.30 187.82,154.20 187.82,154.20 C187.82,154.20 189.29,118.23 189.29,118.23 C189.29,118.23 181.29,153.89 181.29,153.89 C181.29,153.89 183.83,123.08 183.83,123.08 C183.83,123.08 176.46,156.41 176.46,156.41 C176.46,156.41 178.85,125.25 178.85,125.25 C178.85,125.25 171.57,159.01 171.57,159.01 C171.57,159.01 174.84,129.00 174.84,129.00 C174.84,129.00 165.35,166.71 165.35,166.71 C165.35,166.71 166.84,143.49 166.84,143.49 C166.23,146.12 164.23,163.30 163.88,168.02 C163.67,171.19 164.00,174.43 164.22,175.37" fill="none" stroke="rgb(255, 0, 255)" stroke-width="2.41" stroke-opacity="1.00" stroke-linejoin="round"/>
<path d="M175.75,159.34 C175.75,159.34 174.30,159.34 174.30,159.34 C174.26,159.36 174.37,159.31 174.40,159.29 C175.86,158.59 178.15,157.87 179.84,157.82 C181.13,157.78 184.69,158.05 185.46,157.90 C186.26,157.75 186.94,157.39 187.35,156.99 C187.35,156.99 186.74,156.10 186.74,156.10" fill="none" stroke="rgb(255, 0, 255)" stroke-width="2.41" stroke-opacity="1.00" stroke-linejoin="round"/>
<path d="M216.02,156.85 C216.02,156.85 214.45,158.50 214.45,158.50 C217.79,160.01 225.95,158.26 228.27,157.23 C228.27,157.23 228.06,156.43 228.06,156.43" fill="none" stroke="rgb(255, 0, 255)" stroke-width="2.41" stroke-opacity="1.00" stroke-linejoin="round"/>
<path d="M221.84,171.80 C221.63,171.80 221.42,171.80 221.21,171.80 C220.77,171.80 220.32,171.80 219.88,171.80 C219.88,171.80 220.81,169.71 220.81,169.71 C220.81,169.71 219.76,171.80 219.76,171.80" fill="none" stroke="rgb(255, 0, 255)" stroke-width="2.41" stroke-opacity="1.00" stroke-linejoin="round"/>
<path d="M178.24,170.97 C178.24,170.97 176.79,171.04 176.79,171.04 C176.79,171.04 178.02,171.97 178.02,171.97 C178.02,171.97 178.26,169.81 178.26,169.81 C178.26,169.81 177.46,170.49 177.46,170.49" fill="none" stroke="rgb(255, 0, 255)" stroke-width="2.41" stroke-opacity="1.00" stroke-linejoin="round"/>
<path d="M213.12,183.84 C212.59,184.38 212.24,184.73 212.08,184.87 C211.77,185.12 211.39,185.43 211.41,185.50 C209.97,185.55 192.86,189.29 189.12,189.80 C186.79,190.11 185.54,190.29 185.38,190.33 C184.95,190.42 184.51,190.61 184.06,190.89" fill="none" stroke="rgb(255, 0, 255)" stroke-width="2.41" stroke-opacity="1.00" stroke-linejoin="round"/>
<path d="M190.28,193.80 C190.28,193.80 190.08,193.80 190.08,193.80 C190.08,193.80 189.66,193.39 189.66,193.39 C189.56,195.56 191.29,204.34 191.07,206.96 C191.04,207.30 190.92,207.46 190.72,207.43 C190.72,207.43 190.70,207.12 190.70,207.12 C190.65,207.10 190.58,207.09 190.49,207.09 C190.41,207.08 190.18,207.08 189.81,207.07 C192.96,206.31 199.93,205.15 203.11,204.97 C208.27,204.72 210.87,204.23 211.76,202.73 C213.13,200.01 211.51,189.98 211.09,187.79 C210.97,187.17 210.84,186.55 210.71,185.93" fill="none" stroke="rgb(255, 0, 255)" stroke-width="2.41" stroke-opacity="1.00" stroke-linejoin="round"/>
<path d="M215.61,191.72 C214.82,192.08 214.51,192.19 214.36,192.14 C214.08,192.07 208.16,194.15 207.45,194.32 C207.30,194.35 198.20,196.15 196.21,196.91 C195.12,197.33 190.44,200.24 190.08,200.54 C190.00,200.60 189.93,200.70 189.87,200.84" fill="none" stroke="rgb(255, 0, 255)" stroke-width="2.41" stroke-opacity="1.00" stroke-linejoin="round"/>
<path d="M194.43,192.14 C194.43,192.14 193.40,192.35 193.40,192.35 C192.83,192.92 192.83,193.81 193.49,196.07 C193.55,196.28 195.45,203.20 195.77,204.18 C195.89,204.52 195.99,204.75 196.08,204.85 C196.08,204.85 196.10,203.77 196.10,203.77" fill="none" stroke="rgb(255, 0, 255)" stroke-width="2.41" stroke-opacity="1.00" stroke-linejoin="round"/>
<path d="M197.34,190.48 C197.34,190.48 197.76,190.85 197.76,190.85 C197.97,192.30 198.47,195.79 198.60,196.99 C198.91,200.20 199.27,203.96 199.43,204.75 C199.43,204.75 199.83,204.60 199.83,204.60" fill="none" stroke="rgb(255, 0, 255)" stroke-width="2.41" stroke-opacity="1.00" stroke-linejoin="round"/>
<path d="M202.32,188.82 C202.32,188.82 201.70,188.40 201.70,188.40 C201.70,188.40 201.08,188.68 201.08,188.68 C201.16,191.29 202.31,199.78 202.41,200.36 C202.49,200.79 202.70,201.69 203.03,203.07" fill="none" stroke="rgb(255, 0, 255)" stroke-width="2.41" stroke-opacity="1.00" stroke-linejoin="round"/>
<path d="M205.23,187.57 C205.23,187.57 204.68,187.57 204.68,187.57 C204.15,188.10 204.95,192.56 206.23,196.73 C206.92,198.88 207.90,201.53 208.46,202.48 C209.00,203.40 210.36,204.90 211.26,205.77" fill="none" stroke="rgb(255, 0, 255)" stroke-width="2.41" stroke-opacity="1.00" stroke-linejoin="round"/>
<path d="M208.97,188.82 C208.43,189.34 208.13,189.72 208.14,190.11 C208.15,190.62 208.67,193.06 209.06,194.31 C209.25,194.89 209.68,196.14 210.35,198.06" fill="none" stroke="rgb(255, 0, 255)" stroke-width="2.41" stroke-opacity="1.00" stroke-linejoin="round"/>
<path d="M228.48,192.14 C227.47,193.11 226.66,194.02 226.60,194.11 C226.23,194.61 222.31,200.85 220.13,203.70 C217.84,206.66 215.96,208.36 212.48,210.59 C209.76,212.30 205.69,214.29 202.90,215.03 C200.04,215.77 192.95,216.91 190.38,216.79 C188.39,216.65 184.42,215.19 179.72,212.87 C176.56,211.31 172.57,207.72 170.61,204.64 C169.02,202.07 166.91,195.67 166.62,193.95 C166.54,193.48 166.41,192.45 166.23,190.84" fill="none" stroke="rgb(255, 0, 255)" stroke-width="2.41" stroke-opacity="1.00" stroke-linejoin="round"/>
<path d="M167.86,205.43 C167.86,205.43 167.86,205.84 167.86,205.84 C165.77,206.42 161.61,208.54 159.73,209.83 C155.92,212.49 151.69,219.06 144.98,227.35 C143.54,229.20 142.59,230.95 142.59,231.89 C142.63,232.87 148.77,243.82 150.80,246.68 C150.81,246.68 159.80,234.89 164.58,230.68 C165.50,229.87 166.99,228.81 167.86,228.26" fill="none" stroke="rgb(255, 0, 255)" stroke-width="2.41" stroke-opacity="1.00" stroke-linejoin="round"/>
<path d="M171.18,207.92 C169.76,208.66 169.50,209.76 169.52,214.39 C169.53,217.46 169.54,223.60 169.55,226.67 C169.57,231.22 173.37,245.78 174.70,248.90 C176.24,252.33 178.83,255.61 181.06,256.50 C182.42,257.01 190.21,258.89 192.65,259.74 C195.00,260.58 213.19,267.87 218.21,268.66 C222.08,269.22 228.49,268.03 230.63,266.90 C231.19,266.60 234.19,264.72 234.62,264.46 C234.57,264.38 232.82,262.10 231.12,240.00 C230.62,231.42 230.53,219.56 230.28,216.36 C230.17,214.91 229.61,209.31 229.03,207.03 C228.08,203.44 226.76,198.48 226.40,197.12" fill="none" stroke="rgb(255, 0, 255)" stroke-width="2.41" stroke-opacity="1.00" stroke-linejoin="round"/>
<path d="M230.97,193.80 C229.80,194.40 229.08,194.78 228.79,194.94 C228.51,195.11 228.26,195.28 228.06,195.46 C230.13,195.02 231.85,195.21 233.53,196.20 C237.35,198.46 242.25,202.58 248.18,209.17 C249.16,210.25 265.59,227.08 267.42,229.43 C269.48,232.12 272.71,239.45 274.15,242.79 C273.83,242.75 268.51,243.46 267.12,242.97 C264.40,241.94 254.34,233.90 248.24,228.63 C244.12,225.05 234.90,219.57 233.08,217.67 C232.92,217.49 232.63,217.15 232.22,216.64" fill="none" stroke="rgb(255, 0, 255)" stroke-width="2.41" stroke-opacity="1.00" stroke-linejoin="round"/>
<path d="M272.07,244.87 C272.07,244.87 270.14,245.28 270.14,245.28 C270.12,245.13 272.40,248.00 272.77,248.38 C273.60,249.21 276.30,250.80 277.50,251.20 C278.97,251.63 280.92,251.33 281.68,250.56 C282.31,249.84 282.59,247.88 282.25,246.60 C281.57,244.18 277.78,239.66 277.55,239.53 C277.17,239.31 276.03,238.73 274.15,237.81" fill="none" stroke="rgb(255, 0, 255)" stroke-width="2.41" stroke-opacity="1.00" stroke-linejoin="round"/>
<path d="M142.12,237.39 C142.12,237.39 142.23,237.71 142.23,237.71 C142.23,237.71 142.54,234.93 142.54,234.93 C141.93,234.98 138.97,238.71 138.60,240.91 C138.34,242.83 139.79,246.95 141.37,248.57 C142.14,249.32 144.10,250.53 144.97,250.69 C146.79,250.97 150.25,249.19 150.81,248.65 C151.18,248.28 152.03,247.29 153.33,245.70" fill="none" stroke="rgb(255, 0, 255)" stroke-width="2.41" stroke-opacity="1.00" stroke-linejoin="round"/>
<path d="M178.24,256.08 C178.24,256.08 177.41,255.34 177.41,255.34 C179.16,257.57 184.04,265.22 184.86,266.59 C188.68,273.03 195.95,297.85 200.85,316.88 C202.24,322.23 203.56,328.27 204.16,329.80 C207.73,331.11 216.27,332.50 223.39,332.75 C225.25,332.81 229.52,332.03 229.67,331.88 C229.72,331.42 223.98,310.95 222.69,307.31 C221.81,304.86 213.57,286.68 212.90,284.54 C212.03,281.72 211.01,277.21 211.30,275.84 C211.44,275.28 212.99,274.76 215.76,276.05 C219.27,277.72 225.87,284.81 227.62,288.49 C230.00,293.82 239.19,312.10 240.17,314.62 C241.27,317.48 244.50,327.89 244.69,328.51 C244.90,328.56 260.92,318.92 261.53,317.52 C261.93,316.43 261.13,314.15 258.80,310.89 C253.71,303.68 245.80,289.10 245.06,288.06 C244.84,287.76 238.34,280.47 237.41,279.38 C233.98,275.33 232.43,271.02 231.95,269.18 C231.87,268.91 231.83,268.69 231.80,268.53" fill="none" stroke="rgb(255, 0, 255)" stroke-width="2.41" stroke-opacity="1.00" stroke-linejoin="round"/>
<path d="M195.68,129.45 C195.68,129.45 196.10,126.96 196.10,126.96 C196.10,126.96 195.68,152.28 195.68,152.28 C195.68,152.28 197.23,136.05 197.23,136.05" fill="none" stroke="rgb(255, 0, 255)" stroke-width="2.41" stroke-opacity="1.00" stroke-linejoin="round"/>
<path d="M211.04,332.89 C211.04,332.89 211.04,332.68 211.04,332.68 C211.04,332.68 210.33,332.08 210.33,332.08 C209.60,331.93 206.57,335.77 206.27,338.02 C206.17,339.11 206.99,340.61 208.00,341.23 C210.05,342.38 214.96,341.94 217.29,340.72 C219.43,339.55 223.65,333.79 224.35,333.13 C224.51,332.98 224.78,332.76 225.16,332.47" fill="none" stroke="rgb(255, 0, 255)" stroke-width="2.41" stroke-opacity="1.00" stroke-linejoin="round"/>
<path d="M252.14,325.83 C252.14,325.83 250.07,325.21 250.07,325.21 C250.07,325.10 254.98,329.24 258.05,330.84 C260.11,331.88 264.81,332.16 266.25,331.88 C268.33,331.42 269.08,330.30 269.36,329.28 C268.37,325.94 261.40,319.64 259.50,318.26 C259.50,318.26 259.62,318.35 259.62,318.35" fill="none" stroke="rgb(255, 0, 255)" stroke-width="2.41" stroke-opacity="1.00" stroke-linejoin="round"/>
</g>
</svg>
