<?xml version="1.0" encoding="UTF-8" standalone="no"?>
<!DOCTYPE svg PUBLIC "-//W3C//DTD SVG 1.1//EN" "http://www.w3.org/Graphics/SVG/1.1/DTD/svg11.dtd">
<svg width="128.40" height="181.68" viewBox="0.00 0.00 535.00 757.00" xmlns="http://www.w3.org/2000/svg" xmlns:xlink="http://www.w3.org/1999/xlink">
<g stroke-linecap="round" id="127-사람">
<path d="M209.43,439.25 C209.43,439.25 209.43,439.39 209.43,439.39 C209.43,439.39 209.14,439.63 209.14,439.63 C207.20,442.10 200.83,449.67 199.98,450.55 C199.70,450.83 193.75,452.13 192.27,452.12 C190.32,452.06 187.00,449.82 185.29,447.77 C184.41,446.67 182.82,443.94 182.46,442.75 C181.78,440.38 182.98,435.26 183.98,432.23 C184.78,429.96 187.13,424.70 188.92,422.27 C191.03,419.45 197.02,414.04 199.97,412.47 C203.82,410.47 215.45,408.00 220.57,407.55 C224.61,407.21 229.62,407.70 234.30,408.99 C241.08,410.95 255.54,415.30 258.55,417.15 C261.08,418.75 264.77,423.51 266.28,426.61 C267.66,429.53 268.82,434.31 268.97,436.71 C269.08,438.99 268.61,443.31 268.00,445.30 C267.16,447.93 264.82,451.77 262.93,452.76 C261.95,453.25 259.36,453.84 258.16,453.83 C255.49,453.73 249.96,450.16 247.07,447.01 C245.94,445.75 244.83,444.30 243.69,442.71" fill="none" stroke="rgb(0, 255, 255)" stroke-width="2.43" stroke-opacity="1.00" stroke-linejoin="round"/>
<path d="M246.00,417.37 C246.00,417.37 245.90,416.98 245.90,416.98 C245.34,416.80 244.72,416.79 243.99,417.14 C241.30,418.49 228.33,428.44 226.35,430.78 C225.22,432.12 224.80,433.04 224.97,433.63 C227.38,434.15 243.40,426.76 249.17,422.57 C251.78,420.66 255.13,417.49 255.14,417.13 C254.90,416.90 250.11,418.84 247.91,420.25 C241.37,424.59 240.07,429.74 240.09,430.79 C242.31,431.13 243.65,430.87 245.50,429.54 C246.23,429.02 248.77,427.31 250.33,426.27" fill="none" stroke="rgb(0, 255, 255)" stroke-width="2.43" stroke-opacity="1.00" stroke-linejoin="round"/>
<path d="M255.21,421.11 C255.21,421.11 255.21,420.97 255.21,420.97 C255.21,420.97 255.06,420.82 255.06,420.82 C254.79,420.89 246.51,430.08 240.72,434.95 C239.99,435.56 239.27,436.17 238.55,436.79 C245.19,435.75 257.76,425.37 257.91,425.05 C254.69,426.59 251.17,429.57 249.21,432.04 C247.19,434.62 246.69,436.18 246.67,436.99 C246.67,436.99 251.18,434.93 251.18,434.93" fill="none" stroke="rgb(0, 255, 255)" stroke-width="2.43" stroke-opacity="1.00" stroke-linejoin="round"/>
<path d="M252.91,433.49 C252.68,433.75 251.54,434.62 251.11,435.00 C250.76,435.31 244.79,441.12 244.63,441.85 C251.79,441.51 262.92,430.54 263.13,429.50 C262.11,429.18 257.15,431.96 255.06,433.84 C253.41,435.36 250.99,438.37 250.05,440.08 C249.48,441.14 249.32,442.23 249.35,444.14 C250.48,444.77 252.09,444.49 254.23,443.12 C257.75,440.86 264.72,432.91 264.47,431.98 C263.29,432.59 259.52,436.66 257.87,438.88 C256.21,441.18 254.18,445.18 254.82,446.66 C256.80,446.82 262.11,442.85 264.28,440.39 C265.07,439.48 265.50,438.71 265.61,438.24 C262.90,439.07 259.62,448.50 259.72,450.37 C260.91,450.69 261.69,450.54 262.37,449.40 C263.24,447.98 264.34,445.81 264.64,445.04 C264.64,445.04 263.20,450.03 263.20,450.03 C263.80,449.02 264.95,444.39 265.46,441.75 C265.62,440.85 265.74,440.12 265.82,439.58 C266.11,437.47 266.03,436.27 265.64,435.69 C263.44,434.71 261.65,427.21 261.58,426.56 C261.58,426.56 262.23,427.60 262.23,427.60 C262.41,426.92 261.44,424.26 260.03,422.60 C258.52,420.86 256.73,419.98 255.62,419.64 C255.62,419.64 253.19,421.40 253.19,421.40" fill="none" stroke="rgb(0, 255, 255)" stroke-width="2.43" stroke-opacity="1.00" stroke-linejoin="round"/>
<path d="M249.16,415.35 C247.66,415.32 246.68,415.32 246.21,415.35 C245.75,415.38 245.15,415.48 244.41,415.64 C244.27,415.27 242.08,414.26 236.34,419.01 C234.20,420.79 233.40,421.52 232.65,422.31 C237.90,420.49 238.75,415.12 238.55,414.09 C237.37,413.55 236.51,413.40 235.60,413.75 C231.59,415.35 223.38,424.36 221.83,427.27 C222.91,427.49 223.61,427.27 224.55,426.24 C226.23,424.37 228.11,421.07 228.53,419.13 C228.92,417.10 228.20,413.33 226.31,411.59 C224.34,411.40 223.14,411.55 222.01,412.33 C217.35,415.62 211.53,424.29 210.79,426.84 C213.17,425.62 214.36,424.80 214.97,423.76 C215.95,422.11 217.67,417.97 218.08,415.97 C218.31,414.82 218.21,413.63 217.82,411.54 C217.82,411.54 216.33,410.64 216.33,410.64 C214.84,411.11 211.66,414.02 208.93,417.69 C206.46,421.05 201.09,430.47 201.04,432.20 C204.04,429.05 206.18,424.73 206.86,423.14 C207.58,421.42 208.86,416.96 209.19,414.44 C209.38,412.99 209.15,411.71 208.47,409.74 C207.10,409.63 205.75,410.42 204.44,412.43 C197.39,423.30 194.92,435.06 194.70,436.71 C194.70,436.71 195.75,438.22 195.75,438.22 C197.36,437.92 199.08,437.07 199.83,435.80 C201.77,432.45 201.59,423.90 201.19,421.91 C200.94,420.74 200.34,419.81 199.06,418.44 C197.48,418.85 196.08,420.06 194.90,422.36 C192.83,426.44 190.60,437.14 190.69,441.10 C190.74,442.70 190.98,443.71 191.51,444.80 C191.51,444.80 193.28,445.49 193.28,445.49 C194.66,444.51 195.34,443.84 195.67,442.96 C196.32,441.19 196.73,437.23 196.49,434.85 C196.23,432.52 194.97,428.49 193.83,426.21 C193.28,425.13 192.52,424.58 190.98,423.96 C189.62,424.66 187.03,428.24 185.61,431.64 C184.21,435.06 183.06,441.31 183.18,442.68 C183.35,444.30 184.10,446.46 184.83,447.24 C186.00,448.42 189.41,448.30 190.65,447.22 C191.92,446.06 193.97,441.69 194.51,439.10 C195.65,433.32 194.07,429.78 193.51,428.93 C193.51,428.93 191.69,428.20 191.69,428.20 C189.73,429.65 188.76,430.58 188.07,431.76 C186.61,434.31 184.77,439.34 184.54,443.07 C184.48,444.74 186.44,448.29 188.36,449.20 C189.98,449.89 194.03,449.75 195.78,448.81 C197.45,447.88 199.66,444.81 199.84,443.51 C200.22,440.33 198.83,437.34 198.04,436.18 C197.14,437.70 196.81,439.95 197.40,441.94 C197.87,443.50 200.12,445.35 200.79,445.87" fill="none" stroke="rgb(0, 255, 255)" stroke-width="2.43" stroke-opacity="1.00" stroke-linejoin="round"/>
<path d="M216.05,427.16 C216.05,427.16 213.21,425.25 213.21,425.25 C210.58,425.49 206.80,430.90 206.35,431.88 C208.25,432.52 209.71,432.58 211.76,431.92 C218.10,429.85 221.93,426.83 222.27,426.37 C217.96,425.87 216.19,430.17 216.10,431.25 C216.10,431.25 217.16,432.24 217.16,432.24 C218.96,432.24 221.22,431.69 223.23,430.56 C226.25,428.85 228.14,426.66 228.71,425.81 C228.57,425.92 228.16,426.08 228.05,426.46 C227.97,426.74 227.81,427.55 227.57,428.89" fill="none" stroke="rgb(0, 255, 255)" stroke-width="2.43" stroke-opacity="1.00" stroke-linejoin="round"/>
<path d="M216.05,439.25 C216.05,439.25 214.04,440.96 214.04,440.96 C217.36,441.03 218.18,437.48 218.06,437.06 C218.06,437.06 214.88,439.43 214.88,439.43 C214.88,439.43 216.34,440.69 216.34,440.69" fill="none" stroke="rgb(0, 255, 255)" stroke-width="2.43" stroke-opacity="1.00" stroke-linejoin="round"/>
<path d="M235.34,441.27 C235.34,441.27 234.17,440.29 234.17,440.29 C234.17,440.29 233.86,440.29 233.86,440.29 C233.86,440.29 233.45,441.97 233.45,441.97 C235.21,442.56 235.67,439.85 235.59,439.36 C235.59,439.36 232.50,442.20 232.50,442.20 C232.50,442.20 233.74,441.06 233.74,441.06 C233.74,441.06 232.17,442.71 232.17,442.71" fill="none" stroke="rgb(0, 255, 255)" stroke-width="2.43" stroke-opacity="1.00" stroke-linejoin="round"/>
<path d="M227.28,448.18 C227.28,448.18 226.70,448.13 226.70,448.13 C226.25,447.48 221.37,447.70 220.59,448.47 C220.46,448.60 220.32,448.86 220.16,449.26 C220.16,449.26 221.10,450.43 221.10,450.43 C221.10,450.43 228.37,447.35 228.37,447.35 C228.37,447.35 224.37,448.43 224.37,448.43 C224.37,448.43 224.11,449.04 224.11,449.04" fill="none" stroke="rgb(0, 255, 255)" stroke-width="2.43" stroke-opacity="1.00" stroke-linejoin="round"/>
<path d="M225.55,450.19 C225.55,450.19 224.47,450.19 224.47,450.19 C224.47,450.19 224.11,450.48 224.11,450.48 C224.11,450.48 225.49,448.41 225.49,448.41 C225.49,448.41 222.93,448.89 222.93,448.89 C222.93,448.89 223.54,449.90 223.54,449.90" fill="none" stroke="rgb(0, 255, 255)" stroke-width="2.43" stroke-opacity="1.00" stroke-linejoin="round"/>
<path d="M215.19,451.92 C215.19,451.92 215.19,452.50 215.19,452.50 C215.19,452.50 213.89,447.43 213.89,447.43 C212.49,447.07 210.30,448.51 209.82,449.06 C209.63,449.29 209.31,449.76 208.85,450.48" fill="none" stroke="rgb(0, 255, 255)" stroke-width="2.43" stroke-opacity="1.00" stroke-linejoin="round"/>
<path d="M209.43,440.11 C209.43,440.11 208.13,440.22 208.13,440.22 C208.13,440.22 208.17,451.35 208.17,451.35 C209.57,452.11 211.85,452.39 216.57,452.82 C218.83,453.02 221.80,452.16 223.03,451.72 C223.11,452.38 222.91,454.24 222.86,454.99 C222.69,457.17 222.67,461.63 222.67,462.57" fill="none" stroke="rgb(0, 255, 255)" stroke-width="2.43" stroke-opacity="1.00" stroke-linejoin="round"/>
<path d="M233.90,453.65 C233.90,453.65 233.47,453.36 233.47,453.36 C233.47,453.36 232.97,453.40 232.97,453.40 C232.97,453.40 232.81,461.38 232.81,461.38 C232.81,461.38 233.33,460.56 233.33,460.56" fill="none" stroke="rgb(0, 255, 255)" stroke-width="2.43" stroke-opacity="1.00" stroke-linejoin="round"/>
<path d="M233.61,453.65 C233.61,453.65 232.22,454.51 232.22,454.51 C233.51,454.38 239.28,453.19 240.83,451.97 C241.56,451.37 242.86,448.07 243.00,444.78 C243.10,442.27 242.66,440.59 242.50,440.34 C242.50,440.34 241.96,440.98 241.96,440.98" fill="none" stroke="rgb(0, 255, 255)" stroke-width="2.43" stroke-opacity="1.00" stroke-linejoin="round"/>
<path d="M240.52,447.31 C240.52,447.31 240.52,447.60 240.52,447.60 C240.52,447.60 240.21,447.89 240.21,447.89 C238.27,447.87 235.18,448.55 234.28,449.71 C233.85,450.29 233.10,452.44 233.15,452.95 C233.18,453.16 233.33,453.49 233.61,453.94" fill="none" stroke="rgb(0, 255, 255)" stroke-width="2.43" stroke-opacity="1.00" stroke-linejoin="round"/>
<path d="M233.61,462.00 C232.90,462.07 231.82,461.62 231.41,461.48 C229.01,460.74 223.58,459.90 222.68,460.71 C217.63,465.36 207.12,473.96 207.08,474.24 C207.15,474.80 209.43,476.78 210.93,477.23 C212.58,477.66 215.61,475.54 218.77,472.50 C220.25,471.06 221.31,470.13 222.37,469.32 C222.37,469.32 220.53,483.11 220.53,483.11 C220.53,483.11 232.66,484.11 232.66,484.11 C232.66,484.11 231.89,472.70 231.89,472.70 C231.73,473.04 237.15,476.70 239.24,477.74 C240.63,478.39 241.79,477.81 243.43,475.82 C244.48,474.49 245.19,473.28 245.30,472.64 C245.42,471.61 239.90,466.61 239.26,466.02 C237.90,464.75 236.93,463.67 236.13,462.59 C236.13,462.59 236.21,461.13 236.21,461.13" fill="none" stroke="rgb(0, 255, 255)" stroke-width="2.43" stroke-opacity="1.00" stroke-linejoin="round"/>
<path d="M207.99,474.95 C207.84,474.35 206.48,473.30 205.38,473.26 C203.84,473.26 200.42,476.34 200.16,477.97 C200.03,478.86 200.57,479.82 201.40,480.57 C201.40,480.57 206.18,479.62 206.18,479.62 C206.18,479.62 203.85,486.70 203.85,486.70 C203.85,486.70 204.97,487.22 204.97,487.22 C204.97,487.22 209.29,484.25 209.29,484.25 C209.29,484.25 209.08,487.20 209.08,487.20 C210.02,487.36 210.53,487.31 210.92,486.78 C212.02,485.30 212.57,483.73 212.74,483.15 C213.34,482.47 213.75,481.36 213.76,480.16 C213.77,479.82 213.35,478.63 212.88,477.26" fill="none" stroke="rgb(0, 255, 255)" stroke-width="2.43" stroke-opacity="1.00" stroke-linejoin="round"/>
<path d="M243.40,477.83 C243.40,477.83 242.68,478.27 242.68,478.27 C242.30,479.03 242.14,480.35 242.52,481.28 C242.99,482.42 245.66,485.21 246.40,485.13 C248.88,484.66 250.64,480.12 250.38,478.93 C251.08,479.82 252.78,480.90 253.97,481.09 C255.05,481.25 256.72,480.69 256.94,480.03 C257.38,478.37 256.77,475.59 255.38,475.53 C255.38,475.53 257.69,473.12 257.69,473.12 C257.69,473.12 254.83,470.61 254.83,470.61 C254.83,470.61 255.42,468.13 255.42,468.13 C254.99,467.60 253.61,467.23 252.11,467.53 C250.67,467.84 248.53,468.91 247.43,469.84 C246.66,470.49 245.90,471.14 245.13,471.79" fill="none" stroke="rgb(0, 255, 255)" stroke-width="2.43" stroke-opacity="1.00" stroke-linejoin="round"/>
<path d="M223.25,485.03 C223.25,485.03 222.60,485.14 222.60,485.14 C222.42,485.42 220.60,490.11 218.59,492.94 C217.86,493.96 215.80,498.08 214.06,501.09 C211.44,505.54 208.04,509.61 207.69,510.05 C207.42,510.35 206.11,511.18 205.71,511.27 C202.22,512.04 199.97,513.61 199.77,514.30 C199.62,515.00 201.27,516.82 203.52,517.35 C206.39,517.98 214.08,517.58 218.12,516.92 C221.38,516.37 223.15,515.19 223.83,514.48 C223.83,514.48 223.73,513.26 223.73,513.26 C222.44,511.76 218.47,510.16 214.90,510.30 C214.20,510.33 210.89,510.75 210.12,510.87 C209.75,510.93 209.04,511.05 207.99,511.23" fill="none" stroke="rgb(0, 255, 255)" stroke-width="2.43" stroke-opacity="1.00" stroke-linejoin="round"/>
<path d="M224.69,509.51 C224.69,509.51 224.11,510.20 224.11,510.20 C223.71,510.22 223.98,506.49 224.62,501.02 C225.09,496.93 227.09,487.49 227.28,484.60 C229.00,489.50 232.26,505.30 233.20,508.22 C233.55,509.32 234.01,510.48 234.12,510.69 C234.12,510.69 242.99,511.40 242.99,511.40 C242.62,510.21 232.88,485.00 232.77,484.73 C232.67,484.46 232.47,483.98 232.17,483.30" fill="none" stroke="rgb(0, 255, 255)" stroke-width="2.43" stroke-opacity="1.00" stroke-linejoin="round"/>
<path d="M236.21,510.95 C236.20,510.85 235.48,510.65 235.20,510.55 C235.08,510.51 234.94,510.45 234.79,510.37 C234.85,512.71 235.77,515.06 236.66,515.84 C237.69,516.65 242.42,517.50 245.72,517.05 C249.59,516.49 251.61,514.72 252.23,513.73 C252.23,513.73 252.18,512.41 252.18,512.41 C251.45,511.44 250.60,510.73 249.36,510.21 C248.89,510.02 246.12,509.00 245.13,508.64" fill="none" stroke="rgb(0, 255, 255)" stroke-width="2.43" stroke-opacity="1.00" stroke-linejoin="round"/>
<path d="M214.61,506.91 C214.61,506.91 212.34,506.63 212.34,506.63 C213.48,506.70 217.72,508.57 218.48,508.95 C218.72,509.06 219.25,509.24 220.08,509.51" fill="none" stroke="rgb(0, 255, 255)" stroke-width="2.43" stroke-opacity="1.00" stroke-linejoin="round"/>
<path d="M216.34,505.19 C216.34,505.19 215.55,507.13 215.55,507.13 C215.93,507.50 216.58,507.87 217.24,507.97 C217.48,508.00 218.00,508.04 218.80,508.07" fill="none" stroke="rgb(0, 255, 255)" stroke-width="2.43" stroke-opacity="1.00" stroke-linejoin="round"/>
<path d="M218.07,502.60 C217.79,503.95 217.76,504.88 218.07,505.47 C218.33,505.96 219.22,506.88 219.61,506.96 C219.81,506.99 220.25,506.97 220.95,506.91" fill="none" stroke="rgb(0, 255, 255)" stroke-width="2.43" stroke-opacity="1.00" stroke-linejoin="round"/>
<path d="M220.95,502.88 C220.95,502.88 219.65,505.26 219.65,505.26 C219.65,505.26 219.84,506.11 219.84,506.11 C220.12,506.19 220.35,506.19 220.51,506.13 C220.68,506.07 221.01,505.85 221.52,505.47" fill="none" stroke="rgb(0, 255, 255)" stroke-width="2.43" stroke-opacity="1.00" stroke-linejoin="round"/>
<path d="M220.66,497.99 C220.66,497.99 218.76,500.44 218.76,500.44 C219.57,500.15 220.09,499.95 220.33,499.82 C220.58,499.70 220.88,499.47 221.23,499.14" fill="none" stroke="rgb(0, 255, 255)" stroke-width="2.43" stroke-opacity="1.00" stroke-linejoin="round"/>
<path d="M220.95,494.53 C220.95,494.53 219.22,496.69 219.22,496.69 C219.22,496.69 219.36,497.41 219.36,497.41 C219.88,497.77 220.66,498.15 221.25,497.96 C221.58,497.86 222.34,497.48 223.54,496.84" fill="none" stroke="rgb(0, 255, 255)" stroke-width="2.43" stroke-opacity="1.00" stroke-linejoin="round"/>
<path d="M222.96,493.09 C222.96,493.09 221.57,495.11 221.57,495.11 C222.47,495.01 223.16,494.77 223.71,494.33 C223.81,494.25 223.94,494.13 224.11,493.96" fill="none" stroke="rgb(0, 255, 255)" stroke-width="2.43" stroke-opacity="1.00" stroke-linejoin="round"/>
<path d="M224.69,488.77 C224.69,488.77 223.03,489.64 223.03,489.64 C224.57,490.06 225.41,489.86 225.98,488.74 C226.30,488.12 226.52,487.66 226.63,487.36 C226.87,486.69 226.87,486.16 226.73,485.83 C226.73,485.83 226.37,485.77 226.37,485.77 C226.37,485.77 226.06,486.06 226.06,486.06" fill="none" stroke="rgb(0, 255, 255)" stroke-width="2.43" stroke-opacity="1.00" stroke-linejoin="round"/>
<path d="M231.31,489.64 C231.26,489.64 231.21,489.64 231.17,489.64 C231.02,489.64 230.88,489.64 230.73,489.64 C230.94,489.92 231.41,490.32 231.94,490.55 C232.15,490.65 232.61,490.82 233.33,491.08" fill="none" stroke="rgb(0, 255, 255)" stroke-width="2.43" stroke-opacity="1.00" stroke-linejoin="round"/>
<path d="M233.90,491.08 C233.90,491.08 231.98,494.20 231.98,494.20 C232.31,494.44 232.91,494.60 233.40,494.48 C233.57,494.43 233.88,494.30 234.35,494.07" fill="none" stroke="rgb(0, 255, 255)" stroke-width="2.43" stroke-opacity="1.00" stroke-linejoin="round"/>
<path d="M233.61,495.97 C233.61,495.97 232.80,497.89 232.80,497.89 C233.15,498.17 233.67,498.43 234.26,498.49 C234.50,498.52 235.05,498.54 235.92,498.56" fill="none" stroke="rgb(0, 255, 255)" stroke-width="2.43" stroke-opacity="1.00" stroke-linejoin="round"/>
<path d="M233.90,500.00 C233.90,500.00 232.75,501.30 232.75,501.30 C232.86,501.52 234.13,501.79 235.24,501.73 C235.58,501.71 236.09,501.62 236.78,501.44" fill="none" stroke="rgb(0, 255, 255)" stroke-width="2.43" stroke-opacity="1.00" stroke-linejoin="round"/>
<path d="M235.05,502.60 C234.78,502.98 234.58,503.27 234.48,503.46 C234.37,503.65 234.20,504.01 233.97,504.54 C234.16,504.78 235.71,505.15 236.90,505.16 C237.24,505.16 237.63,505.09 238.09,504.94" fill="none" stroke="rgb(0, 255, 255)" stroke-width="2.43" stroke-opacity="1.00" stroke-linejoin="round"/>
<path d="M236.78,506.34 C236.78,506.34 236.49,507.78 236.49,507.78 C236.76,508.13 237.17,508.33 237.86,508.35 C238.03,508.36 238.40,508.36 238.96,508.35" fill="none" stroke="rgb(0, 255, 255)" stroke-width="2.43" stroke-opacity="1.00" stroke-linejoin="round"/>
<path d="M239.08,508.07 C238.89,508.58 238.74,508.96 238.65,509.22 C238.24,510.37 237.98,511.27 237.93,511.66 C237.93,511.66 239.08,510.66 239.08,510.66" fill="none" stroke="rgb(0, 255, 255)" stroke-width="2.43" stroke-opacity="1.00" stroke-linejoin="round"/>
<path d="M225.26,466.03 C224.61,466.03 224.17,466.03 223.95,466.03 C223.72,466.02 223.40,466.01 222.97,465.99 C222.97,465.99 224.50,465.97 224.50,465.97" fill="none" stroke="rgb(0, 255, 255)" stroke-width="2.43" stroke-opacity="1.00" stroke-linejoin="round"/>
<path d="M230.16,464.88 C230.16,464.88 229.73,465.60 229.73,465.60 C229.73,465.60 229.76,465.85 229.76,465.85 C229.76,465.85 231.16,466.27 231.16,466.27" fill="none" stroke="rgb(0, 255, 255)" stroke-width="2.43" stroke-opacity="1.00" stroke-linejoin="round"/>
<path d="M229.30,469.77 C229.12,469.76 228.98,469.76 228.86,469.77 C228.75,469.78 228.51,469.81 228.14,469.87 C228.35,470.26 228.52,470.54 228.65,470.72 C228.79,470.90 229.06,471.22 229.48,471.68" fill="none" stroke="rgb(0, 255, 255)" stroke-width="2.43" stroke-opacity="1.00" stroke-linejoin="round"/>
<path d="M225.55,475.82 C225.55,475.82 224.98,476.19 224.98,476.19 C224.98,476.19 225.17,476.51 225.17,476.51 C225.17,476.51 225.71,476.68 225.71,476.68" fill="none" stroke="rgb(0, 255, 255)" stroke-width="2.43" stroke-opacity="1.00" stroke-linejoin="round"/>
<path d="M236.49,468.62 C236.49,468.62 234.91,469.41 234.91,469.41 C234.91,469.41 236.08,470.06 236.08,470.06" fill="none" stroke="rgb(0, 255, 255)" stroke-width="2.43" stroke-opacity="1.00" stroke-linejoin="round"/>
<path d="M241.10,472.94 C240.91,473.06 240.77,473.16 240.67,473.23 C240.57,473.30 240.38,473.44 240.09,473.66 C240.09,473.66 240.03,474.05 240.03,474.05 C240.15,474.07 240.25,474.09 240.32,474.09 C240.39,474.09 240.54,474.09 240.77,474.09" fill="none" stroke="rgb(0, 255, 255)" stroke-width="2.43" stroke-opacity="1.00" stroke-linejoin="round"/>
<path d="M217.49,470.92 C217.49,470.92 216.63,470.92 216.63,470.92" fill="none" stroke="rgb(0, 255, 255)" stroke-width="2.43" stroke-opacity="1.00" stroke-linejoin="round"/>
<path d="M212.88,474.09 C212.88,474.09 211.55,474.09 211.55,474.09 C211.55,474.09 212.14,474.09 212.14,474.09" fill="none" stroke="rgb(0, 255, 255)" stroke-width="2.43" stroke-opacity="1.00" stroke-linejoin="round"/>
<path d="M197.91,416.50 C197.91,416.50 196.22,414.92 196.22,414.92 C196.22,414.92 197.60,426.75 197.60,426.75 C198.80,425.76 201.59,423.14 204.47,422.66 C204.86,422.60 205.53,422.53 206.47,422.46 C206.22,424.40 202.36,428.83 200.70,431.09 C199.73,432.41 199.39,432.94 199.14,433.50 C199.14,433.50 211.24,422.20 211.24,422.20 C211.24,422.20 200.22,420.65 200.22,420.65 C200.22,420.65 197.20,415.35 197.20,415.35 C197.20,415.35 199.74,422.15 199.74,422.15 C199.74,422.15 199.57,421.05 199.57,421.05 C200.79,422.35 205.21,422.65 206.52,422.33 C206.52,422.33 203.47,423.25 203.47,423.25 C203.47,423.25 209.30,423.21 209.30,423.21 C209.30,423.21 205.17,429.68 205.17,429.68 C205.17,429.68 206.77,428.21 206.77,428.21 C206.77,428.21 204.25,430.90 204.25,430.90" fill="none" stroke="rgb(0, 255, 0)" stroke-width="2.43" stroke-opacity="1.00" stroke-linejoin="round"/>
<path d="M217.49,411.32 C217.49,411.32 217.49,410.53 217.49,410.53 C217.49,410.53 217.20,410.21 217.20,410.21 C217.20,410.21 223.45,422.31 223.45,422.31 C223.64,421.09 225.01,419.42 228.14,417.76 C228.90,417.36 230.89,416.33 231.85,415.89 C231.85,415.89 228.63,425.71 228.63,425.71 C230.75,423.11 236.27,411.48 235.81,409.72 C235.81,409.72 224.42,415.70 224.42,415.70 C224.42,415.70 217.58,411.48 217.58,411.48 C217.58,411.48 223.64,418.02 223.64,418.02 C223.64,418.02 222.86,416.71 222.86,416.71 C227.77,416.73 230.78,414.78 231.16,414.45 C231.16,414.45 227.40,416.35 227.40,416.35 C227.40,416.35 233.27,412.94 233.27,412.94 C233.27,412.94 232.72,414.31 232.72,414.31 C233.03,414.48 233.17,414.75 233.15,415.14 C233.12,415.52 232.89,416.55 232.46,418.23" fill="none" stroke="rgb(0, 255, 0)" stroke-width="2.43" stroke-opacity="1.00" stroke-linejoin="round"/>
<path d="M254.92,425.72 C254.92,425.72 254.78,424.94 254.78,424.94 C254.78,424.94 247.80,437.54 247.80,437.54 C247.80,437.54 254.23,441.73 254.23,441.73 C254.23,441.73 248.41,446.37 248.41,446.37 C248.95,447.27 252.90,446.33 257.82,444.96 C259.65,444.45 260.69,444.11 262.15,443.55 C262.15,443.55 251.51,435.84 251.51,435.84 C251.51,435.84 254.89,424.40 254.89,424.40 C254.89,424.40 250.18,437.08 250.18,437.08 C250.18,437.08 257.42,441.92 257.42,441.92 C257.42,441.92 254.00,440.44 254.00,440.44 C254.00,440.44 256.40,444.64 256.40,444.64 C256.37,444.85 254.48,444.99 253.02,445.08 C252.50,445.14 251.69,445.31 250.60,445.59" fill="none" stroke="rgb(0, 255, 0)" stroke-width="2.43" stroke-opacity="1.00" stroke-linejoin="round"/>
</g>
</svg>
