<?xml version="1.0" encoding="UTF-8" standalone="no"?>
<!DOCTYPE svg PUBLIC "-//W3C//DTD SVG 1.1//EN" "http://www.w3.org/Graphics/SVG/1.1/DTD/svg11.dtd">
<svg width="128.40" height="181.68" viewBox="0.00 0.00 535.00 757.00" xmlns="http://www.w3.org/2000/svg" xmlns:xlink="http://www.w3.org/1999/xlink">
<g stroke-linecap="round" transform="translate(44.00, 155.00)" id="127-비">
<path d="M299.03,134.82 C299.03,134.82 299.03,134.24 299.03,134.24 C294.49,142.79 281.97,158.08 278.37,161.39 C277.18,162.47 273.89,165.04 271.96,166.49" fill="none" stroke="rgb(28, 31, 136)" stroke-width="2.43" stroke-opacity="1.00" stroke-linejoin="round"/>
<path d="M279.74,137.41 C279.74,137.41 279.74,136.69 279.74,136.69 C279.71,136.61 279.37,136.88 278.19,137.94 C274.39,141.38 265.44,149.81 260.80,154.22 C255.81,158.77 250.09,163.77 248.26,165.26" fill="none" stroke="rgb(28, 31, 136)" stroke-width="2.43" stroke-opacity="1.00" stroke-linejoin="round"/>
<path d="M275.99,127.91 C275.99,127.91 276.57,127.91 276.57,127.91 C275.36,128.65 273.38,130.07 271.72,131.42 C271.02,131.99 268.65,134.09 267.66,134.97 C265.07,137.25 262.08,139.64 261.24,140.31" fill="none" stroke="rgb(28, 31, 136)" stroke-width="2.43" stroke-opacity="1.00" stroke-linejoin="round"/>
<path d="M267.93,126.18 C266.51,126.76 265.28,127.54 262.56,130.46 C260.89,132.33 258.80,134.65 257.52,136.01" fill="none" stroke="rgb(28, 31, 136)" stroke-width="2.43" stroke-opacity="1.00" stroke-linejoin="round"/>
<path d="M242.31,124.45 C242.31,124.45 242.31,124.16 242.31,124.16 C241.84,124.89 241.12,125.91 239.74,127.78 C237.36,130.96 232.98,136.77 230.97,139.40 C230.24,140.33 229.52,141.26 228.79,142.19" fill="none" stroke="rgb(28, 31, 136)" stroke-width="2.43" stroke-opacity="1.00" stroke-linejoin="round"/>
<path d="M254.40,129.63 C253.39,130.17 251.32,131.28 250.78,131.64 C248.69,133.00 234.27,145.00 228.64,149.77 C223.49,154.35 217.47,159.75 216.60,160.56" fill="none" stroke="rgb(28, 31, 136)" stroke-width="2.43" stroke-opacity="1.00" stroke-linejoin="round"/>
<path d="M219.85,127.04 C219.00,127.03 217.56,127.13 216.82,127.62 C215.34,128.61 204.54,141.37 198.14,147.98 C192.37,153.97 186.97,159.18 185.77,160.32" fill="none" stroke="rgb(28, 31, 136)" stroke-width="2.43" stroke-opacity="1.00" stroke-linejoin="round"/>
<path d="M212.36,119.56 C210.79,120.92 209.77,121.99 208.29,123.89 C205.43,127.54 201.80,132.00 200.76,133.19 C197.81,136.57 194.64,139.73 192.78,141.35" fill="none" stroke="rgb(28, 31, 136)" stroke-width="2.43" stroke-opacity="1.00" stroke-linejoin="round"/>
<path d="M192.49,129.63 C191.14,130.37 189.93,131.29 188.77,132.63 C187.40,134.23 171.22,154.16 170.39,154.99 C170.06,155.33 169.49,155.88 168.67,156.64" fill="none" stroke="rgb(28, 31, 136)" stroke-width="2.43" stroke-opacity="1.00" stroke-linejoin="round"/>
<path d="M187.02,142.01 C185.60,143.20 184.83,144.01 184.10,145.22 C183.36,146.44 182.42,147.93 181.43,149.45 C181.07,150.00 180.71,150.55 180.35,151.10" fill="none" stroke="rgb(28, 31, 136)" stroke-width="2.43" stroke-opacity="1.00" stroke-linejoin="round"/>
<path d="M207.75,107.17 C207.75,107.17 209.15,106.02 209.15,106.02 C205.93,107.57 198.13,115.01 190.23,123.04 C185.45,128.02 176.39,137.30 172.12,141.58 C170.84,142.90 169.42,144.42 168.76,145.16" fill="none" stroke="rgb(28, 31, 136)" stroke-width="2.43" stroke-opacity="1.00" stroke-linejoin="round"/>
<path d="M171.47,126.75 C169.07,129.27 166.32,133.19 164.61,135.63 C162.44,138.67 158.74,143.30 157.76,144.52" fill="none" stroke="rgb(28, 31, 136)" stroke-width="2.43" stroke-opacity="1.00" stroke-linejoin="round"/>
<path d="M272.25,80.68 C271.00,81.75 270.02,82.71 268.24,84.70 C265.75,87.46 261.57,92.07 259.87,93.93" fill="none" stroke="rgb(28, 31, 136)" stroke-width="2.43" stroke-opacity="1.00" stroke-linejoin="round"/>
<path d="M121.95,112.36 C121.95,112.36 121.95,112.50 121.95,112.50 C121.77,112.63 119.43,113.24 117.56,114.79 C114.53,117.35 107.25,126.14 106.31,127.30" fill="none" stroke="rgb(28, 31, 136)" stroke-width="2.43" stroke-opacity="1.00" stroke-linejoin="round"/>
<path d="M77.03,50.16 C77.11,50.71 76.84,52.36 76.29,54.22 C75.39,57.22 72.04,63.93 70.07,67.10 C69.04,68.75 67.72,70.68 66.06,73.04" fill="none" stroke="rgb(28, 31, 136)" stroke-width="2.43" stroke-opacity="1.00" stroke-linejoin="round"/>
<path d="M61.77,66.58 C61.36,67.69 61.05,68.50 60.84,69.02 C60.29,70.39 59.14,73.07 58.54,74.41 C57.93,75.77 57.44,76.73 56.64,78.17" fill="none" stroke="rgb(28, 31, 136)" stroke-width="2.43" stroke-opacity="1.00" stroke-linejoin="round"/>
<path d="M35.86,61.97 C35.83,62.24 35.73,63.03 35.33,63.66 C34.49,65.00 33.77,66.08 33.19,66.88 C32.35,68.03 30.35,70.43 29.41,71.50" fill="none" stroke="rgb(28, 31, 136)" stroke-width="2.43" stroke-opacity="1.00" stroke-linejoin="round"/>
<path d="M31.83,52.18 C31.38,52.22 31.06,52.29 30.88,52.41 C29.99,53.00 27.47,57.29 24.73,62.36 C22.93,65.68 19.22,72.57 17.83,74.70 C17.45,75.28 14.55,79.32 13.53,80.76" fill="none" stroke="rgb(28, 31, 136)" stroke-width="2.43" stroke-opacity="1.00" stroke-linejoin="round"/>
<path d="M2.17,73.49 C2.17,73.49 -0.04,76.19 -0.04,76.19" fill="none" stroke="rgb(28, 31, 136)" stroke-width="2.43" stroke-opacity="1.00" stroke-linejoin="round"/>
<path d="M404.65,56.27 C404.65,56.27 397.25,57.32 397.25,57.32 C398.09,57.79 413.21,50.60 419.05,47.79 C428.26,43.60 434.17,41.25 435.98,40.66" fill="none" stroke="rgb(28, 31, 136)" stroke-width="2.43" stroke-opacity="1.00" stroke-linejoin="round"/>
<path d="M411.52,65.81 C411.08,65.97 409.90,66.80 409.04,67.62 C408.73,67.92 397.82,79.36 397.79,79.39 C397.46,79.71 396.81,80.35 395.86,81.31" fill="none" stroke="rgb(28, 31, 136)" stroke-width="2.43" stroke-opacity="1.00" stroke-linejoin="round"/>
<path d="M410.38,78.40 C410.38,78.40 405.88,80.31 405.88,80.31 C407.15,80.09 411.16,77.64 413.97,75.83 C414.48,75.50 414.99,75.16 415.51,74.82" fill="none" stroke="rgb(28, 31, 136)" stroke-width="2.43" stroke-opacity="1.00" stroke-linejoin="round"/>
<path d="M435.95,60.08 C434.48,60.49 433.56,60.78 433.18,60.94 C431.85,61.54 427.74,67.01 426.07,70.04 C424.83,72.29 424.41,73.84 424.64,74.82 C424.64,74.82 433.72,72.89 433.72,72.89" fill="none" stroke="rgb(28, 31, 136)" stroke-width="2.43" stroke-opacity="1.00" stroke-linejoin="round"/>
<path d="M440.15,63.52 C439.96,63.52 439.77,63.52 439.58,63.52 C439.45,63.52 439.32,63.52 439.20,63.52 C439.11,63.16 452.27,52.90 458.48,48.05 C462.04,45.18 467.75,40.54 469.89,38.77" fill="none" stroke="rgb(28, 31, 136)" stroke-width="2.43" stroke-opacity="1.00" stroke-linejoin="round"/>
<path d="M462.29,56.65 C460.31,56.91 459.12,57.34 455.72,60.22 C452.32,63.09 450.75,64.36 449.80,65.12" fill="none" stroke="rgb(28, 31, 136)" stroke-width="2.43" stroke-opacity="1.00" stroke-linejoin="round"/>
<path d="M440.53,75.73 C440.53,75.73 440.91,75.03 440.91,75.03 C440.91,75.03 440.59,74.64 440.59,74.64 C438.89,75.68 432.72,80.40 430.09,82.54 C426.99,85.13 421.53,89.74 419.16,91.76" fill="none" stroke="rgb(28, 31, 136)" stroke-width="2.43" stroke-opacity="1.00" stroke-linejoin="round"/>
<path d="M437.86,87.56 C436.22,87.60 435.25,87.77 434.39,88.49 C433.14,89.54 430.95,91.62 429.75,92.89 C427.62,95.18 424.68,98.35 423.86,99.24" fill="none" stroke="rgb(28, 31, 136)" stroke-width="2.43" stroke-opacity="1.00" stroke-linejoin="round"/>
<path d="M439.39,99.40 C439.39,99.40 439.20,99.40 439.20,99.40 C439.20,99.40 439.00,98.91 439.00,98.91 C439.85,97.62 440.50,96.84 441.50,96.06 C443.69,94.37 454.43,86.70 456.72,85.06" fill="none" stroke="rgb(28, 31, 136)" stroke-width="2.43" stroke-opacity="1.00" stroke-linejoin="round"/>
<path d="M442.82,128.79 C442.82,128.79 441.29,128.69 441.29,128.69 C443.93,125.90 448.05,123.04 451.13,121.14 C452.67,120.21 455.21,118.67 456.22,118.06" fill="none" stroke="rgb(28, 31, 136)" stroke-width="2.43" stroke-opacity="1.00" stroke-linejoin="round"/>
<path d="M474.12,211.23 C473.99,211.26 473.56,211.10 473.14,211.23 C470.98,211.92 457.19,219.92 449.68,224.73 C443.95,228.58 434.74,235.36 431.79,237.76 C430.08,239.16 423.46,244.87 420.79,247.20" fill="none" stroke="rgb(28, 31, 136)" stroke-width="2.43" stroke-opacity="1.00" stroke-linejoin="round"/>
<path d="M470.68,233.37 C470.40,233.46 469.63,233.73 469.06,234.03 C464.30,236.62 455.46,243.41 450.03,248.32 C442.55,255.20 422.02,279.71 414.24,290.25 C409.47,297.05 403.10,306.18 401.49,308.51" fill="none" stroke="rgb(28, 31, 136)" stroke-width="2.43" stroke-opacity="1.00" stroke-linejoin="round"/>
<path d="M372.59,278.02 C372.36,277.62 373.70,275.22 376.71,270.91 C377.97,269.14 381.66,265.36 384.41,262.83 C389.21,258.43 396.95,253.19 398.90,252.04" fill="none" stroke="rgb(28, 31, 136)" stroke-width="2.43" stroke-opacity="1.00" stroke-linejoin="round"/>
<path d="M389.39,274.21 C389.39,274.21 388.62,274.21 388.62,274.21 C388.58,273.93 389.66,272.63 391.16,271.24 C391.69,270.76 398.54,265.26 401.76,262.45 C404.63,259.92 408.40,256.59 409.29,255.80" fill="none" stroke="rgb(28, 31, 136)" stroke-width="2.43" stroke-opacity="1.00" stroke-linejoin="round"/>
<path d="M366.10,190.62 C365.37,190.67 364.79,190.81 364.36,191.03 C362.53,191.97 356.84,197.35 354.30,199.73 C351.76,202.12 349.52,204.04 348.90,204.52" fill="none" stroke="rgb(28, 31, 136)" stroke-width="2.43" stroke-opacity="1.00" stroke-linejoin="round"/>
<path d="M373.74,191.38 C371.66,192.65 369.63,194.05 367.95,195.42 C366.72,196.42 362.55,200.46 360.72,202.40 C354.95,208.69 345.66,218.86 342.14,222.74" fill="none" stroke="rgb(28, 31, 136)" stroke-width="2.43" stroke-opacity="1.00" stroke-linejoin="round"/>
<path d="M407.32,197.49 C406.23,198.07 405.26,198.68 403.67,199.81 C401.65,201.27 396.93,204.77 394.23,206.80 C393.30,207.51 392.37,208.22 391.44,208.92" fill="none" stroke="rgb(28, 31, 136)" stroke-width="2.43" stroke-opacity="1.00" stroke-linejoin="round"/>
<path d="M279.84,281.08 C278.76,282.06 278.06,282.76 277.73,283.18 C276.30,285.00 271.48,298.16 269.24,306.32 C267.77,311.87 266.68,319.84 266.48,322.69" fill="none" stroke="rgb(28, 31, 136)" stroke-width="2.43" stroke-opacity="1.00" stroke-linejoin="round"/>
<path d="M280.61,297.11 C280.24,295.75 283.19,291.08 286.28,286.99 C288.29,284.47 290.99,281.09 291.68,280.23" fill="none" stroke="rgb(28, 31, 136)" stroke-width="2.43" stroke-opacity="1.00" stroke-linejoin="round"/>
<path d="M300.84,276.12 C300.00,277.45 298.71,281.52 296.35,292.21 C296.03,293.77 295.59,295.90 295.44,296.70" fill="none" stroke="rgb(28, 31, 136)" stroke-width="2.43" stroke-opacity="1.00" stroke-linejoin="round"/>
<path d="M392.44,362.76 C391.50,363.14 390.58,363.72 389.93,364.47 C389.62,364.83 387.41,367.79 386.31,369.23 C384.14,372.07 380.44,376.18 378.99,377.71" fill="none" stroke="rgb(28, 31, 136)" stroke-width="2.43" stroke-opacity="1.00" stroke-linejoin="round"/>
<path d="M401.98,378.02 C401.98,378.02 399.69,377.83 399.69,377.83 C399.85,376.61 408.93,367.74 411.12,365.86 C413.91,363.48 418.83,359.81 419.86,359.04" fill="none" stroke="rgb(28, 31, 136)" stroke-width="2.43" stroke-opacity="1.00" stroke-linejoin="round"/>
<path d="M427.17,366.57 C426.41,366.95 421.02,375.11 412.90,386.82 C411.92,388.27 410.59,390.25 410.08,391.05" fill="none" stroke="rgb(28, 31, 136)" stroke-width="2.43" stroke-opacity="1.00" stroke-linejoin="round"/>
<path d="M434.42,395.20 C434.42,395.20 428.89,395.10 428.89,395.10 C427.76,393.62 427.71,388.09 428.41,384.08 C429.46,378.33 434.49,363.08 436.63,357.16 C438.72,351.70 443.49,340.11 445.64,336.41 C447.40,333.40 450.08,329.32 451.60,327.26" fill="none" stroke="rgb(28, 31, 136)" stroke-width="2.43" stroke-opacity="1.00" stroke-linejoin="round"/>
<path d="M461.91,337.57 C461.91,337.57 461.33,335.85 461.33,335.85 C460.48,336.97 458.68,341.65 457.71,344.15 C456.39,347.47 450.65,360.10 449.28,363.07" fill="none" stroke="rgb(28, 31, 136)" stroke-width="2.43" stroke-opacity="1.00" stroke-linejoin="round"/>
<path d="M474.12,360.09 C472.47,363.71 469.08,369.93 467.94,371.85 C464.08,378.19 456.17,391.50 452.14,398.47 C450.44,401.27 448.23,404.91 447.72,405.75" fill="none" stroke="rgb(28, 31, 136)" stroke-width="2.43" stroke-opacity="1.00" stroke-linejoin="round"/>
<path d="M124.50,281.84 C124.54,284.04 123.92,287.26 122.74,289.69 C121.38,292.44 118.30,297.75 116.63,300.59 C113.15,306.25 109.33,312.24 108.80,313.05" fill="none" stroke="rgb(28, 31, 136)" stroke-width="2.43" stroke-opacity="1.00" stroke-linejoin="round"/>
<path d="M148.93,294.44 C148.12,294.74 141.86,308.51 138.41,314.35 C134.53,320.76 126.30,333.62 123.13,338.09 C118.59,344.19 113.35,351.25 112.63,352.20" fill="none" stroke="rgb(28, 31, 136)" stroke-width="2.43" stroke-opacity="1.00" stroke-linejoin="round"/>
<path d="M228.70,292.91 C227.41,293.95 217.03,310.84 215.77,312.97 C215.04,314.23 214.45,315.42 213.78,316.92" fill="none" stroke="rgb(28, 31, 136)" stroke-width="2.43" stroke-opacity="1.00" stroke-linejoin="round"/>
<path d="M233.66,300.92 C232.98,301.56 232.28,302.30 231.96,302.92 C231.51,303.83 230.60,306.55 229.85,309.02 C229.57,309.94 229.30,310.87 229.02,311.79" fill="none" stroke="rgb(28, 31, 136)" stroke-width="2.43" stroke-opacity="1.00" stroke-linejoin="round"/>
<path d="M236.71,308.56 C236.71,308.56 235.76,308.18 235.76,308.18 C235.38,308.39 234.55,309.65 233.74,311.39 C233.47,311.97 230.71,318.88 230.24,320.06" fill="none" stroke="rgb(28, 31, 136)" stroke-width="2.43" stroke-opacity="1.00" stroke-linejoin="round"/>
<path d="M277.17,411.23 C277.21,409.98 277.23,407.60 277.32,407.09 C277.61,405.50 280.59,398.89 281.37,397.50 C283.04,394.57 287.75,387.94 289.86,384.99" fill="none" stroke="rgb(28, 31, 136)" stroke-width="2.43" stroke-opacity="1.00" stroke-linejoin="round"/>
<path d="M292.06,404.74 C292.02,404.80 292.04,404.61 292.06,404.55 C293.11,401.42 296.21,396.74 297.20,395.23 C297.84,394.25 298.47,393.26 299.11,392.28" fill="none" stroke="rgb(28, 31, 136)" stroke-width="2.43" stroke-opacity="1.00" stroke-linejoin="round"/>
<path d="M220.30,393.29 C218.25,393.37 216.99,393.65 216.12,394.41 C215.13,395.30 213.82,397.18 212.82,399.13 C211.36,402.10 209.46,405.94 209.02,406.82" fill="none" stroke="rgb(28, 31, 136)" stroke-width="2.43" stroke-opacity="1.00" stroke-linejoin="round"/>
<path d="M202.36,395.96 C201.23,396.29 200.50,396.54 200.17,396.73 C199.53,397.10 198.50,398.49 197.99,399.40 C196.70,401.77 194.10,406.58 192.80,409.01" fill="none" stroke="rgb(28, 31, 136)" stroke-width="2.43" stroke-opacity="1.00" stroke-linejoin="round"/>
<path d="M22.97,215.81 C23.12,213.53 24.28,209.84 26.65,204.05 C31.78,192.08 36.26,183.22 39.14,179.22 C39.71,178.42 45.45,170.85 47.39,168.41" fill="none" stroke="rgb(28, 31, 136)" stroke-width="2.43" stroke-opacity="1.00" stroke-linejoin="round"/>
<path d="M45.11,181.08 C45.11,181.08 44.43,180.50 44.43,180.50 C43.60,181.47 42.08,185.42 41.19,187.73 C40.18,190.40 39.02,194.74 38.72,195.88" fill="none" stroke="rgb(28, 31, 136)" stroke-width="2.43" stroke-opacity="1.00" stroke-linejoin="round"/>
<path d="M47.40,192.91 C47.21,193.05 45.75,194.14 45.49,194.63 C45.32,194.95 45.07,195.71 44.73,196.92 C44.73,196.92 45.20,197.84 45.20,197.84" fill="none" stroke="rgb(28, 31, 136)" stroke-width="2.43" stroke-opacity="1.00" stroke-linejoin="round"/>
<path d="M21.06,183.75 C20.11,184.79 19.26,185.95 18.65,187.21 C18.32,187.87 17.89,188.85 17.36,190.15 C16.89,191.29 16.43,192.44 15.97,193.58" fill="none" stroke="rgb(28, 31, 136)" stroke-width="2.43" stroke-opacity="1.00" stroke-linejoin="round"/>
<path d="M11.52,186.42 C11.52,186.42 10.47,186.04 10.47,186.04 C9.97,186.22 9.59,186.60 8.77,187.95 C8.23,188.82 7.69,189.69 7.15,190.56" fill="none" stroke="rgb(28, 31, 136)" stroke-width="2.43" stroke-opacity="1.00" stroke-linejoin="round"/>
<path d="M77.93,280.31 C77.93,280.31 76.79,280.12 76.79,280.12 C79.17,275.94 86.81,268.21 90.27,265.30" fill="none" stroke="rgb(28, 31, 136)" stroke-width="2.43" stroke-opacity="1.00" stroke-linejoin="round"/>
<path d="M92.06,292.15 C92.06,292.15 90.62,292.34 90.62,292.34 C92.18,290.47 95.84,286.12 97.95,283.65 C100.44,280.78 105.29,275.26 107.66,272.61" fill="none" stroke="rgb(28, 31, 136)" stroke-width="2.43" stroke-opacity="1.00" stroke-linejoin="round"/>
<path d="M26.03,312.37 C26.03,312.37 24.69,312.37 24.69,312.37 C24.69,312.37 33.57,301.41 33.57,301.41" fill="none" stroke="rgb(28, 31, 136)" stroke-width="2.43" stroke-opacity="1.00" stroke-linejoin="round"/>
</g>
</svg>
