<?xml version="1.0" encoding="UTF-8" standalone="no"?>
<!DOCTYPE svg PUBLIC "-//W3C//DTD SVG 1.1//EN" "http://www.w3.org/Graphics/SVG/1.1/DTD/svg11.dtd">
<svg width="128.40" height="181.68" viewBox="0.00 0.00 535.00 757.00" xmlns="http://www.w3.org/2000/svg" xmlns:xlink="http://www.w3.org/1999/xlink">
<g stroke-linecap="round" transform="translate(44.00, 155.00)" id="127-구름-2">
<path d="M207.75,177.34 C207.75,177.34 207.98,174.09 207.98,174.09 C207.44,173.52 205.54,171.67 204.24,168.51 C203.23,166.10 200.70,163.63 197.74,161.29 C195.75,159.78 191.50,157.56 189.25,156.74 C186.29,155.70 180.43,155.31 177.79,155.96 C174.88,156.72 169.25,160.03 166.41,162.37 C161.85,166.21 158.43,169.45 157.32,171.65 C156.30,173.76 155.85,180.16 156.62,182.56 C157.46,184.97 161.52,188.28 163.78,189.13 C164.68,189.46 166.90,190.17 166.94,190.26 C166.86,190.78 163.07,196.69 162.61,197.46 C160.52,201.01 159.51,205.59 159.84,207.09 C160.21,208.43 163.19,211.82 165.79,212.82 C168.25,213.75 173.73,214.40 175.30,214.43 C177.40,214.44 181.67,213.83 183.70,213.21 C185.80,212.55 189.50,210.64 191.28,209.20 C192.70,208.04 196.19,204.18 197.48,201.34 C199.89,195.89 199.47,190.45 199.37,190.35 C199.16,193.14 200.43,198.51 202.50,201.13 C204.43,203.50 209.89,206.43 212.22,207.28 C215.09,208.29 220.91,208.05 223.23,207.60 C225.38,207.15 233.24,204.95 233.92,204.72 C237.93,203.35 243.47,199.38 245.43,197.01 C246.86,195.23 247.82,191.95 247.81,191.76 C247.99,193.13 249.80,197.64 251.80,200.02 C254.07,202.64 260.13,205.48 262.86,205.65 C265.25,205.74 271.62,203.88 273.94,202.54 C276.19,201.22 280.46,197.52 282.56,194.96 C284.51,192.53 286.03,188.45 285.93,186.59 C285.78,184.74 285.13,183.89 284.70,183.66 C284.70,183.66 282.90,183.93 282.90,183.93 C282.79,183.77 281.51,176.13 280.51,173.84 C279.49,171.58 275.73,167.13 273.50,165.58 C270.83,163.78 264.97,162.15 262.10,162.67 C260.66,162.97 258.28,164.20 257.05,165.27 C251.97,169.86 249.82,177.69 249.38,179.70 C248.95,176.21 247.65,171.49 246.36,169.32 C245.19,167.41 241.98,163.90 239.52,162.55 C237.15,161.29 230.75,160.04 227.09,159.96 C224.70,159.95 222.73,160.16 221.51,160.70 C219.38,161.67 212.10,168.09 210.77,169.66 C210.19,170.38 209.20,171.60 207.79,173.25" fill="none" stroke="rgb(229, 0, 16)" stroke-width="2.43" stroke-opacity="1.00" stroke-linejoin="round"/>
<path d="M190.97,166.47 C190.97,166.47 190.23,165.23 190.23,165.23 C189.15,165.47 179.70,179.56 178.13,181.56 C177.59,182.24 168.59,192.15 167.64,193.24 C167.64,193.24 168.46,193.07 168.46,193.07" fill="none" stroke="rgb(229, 0, 16)" stroke-width="2.43" stroke-opacity="1.00" stroke-linejoin="round"/>
<path d="M183.82,182.94 C183.47,182.90 183.14,183.03 182.81,183.32 C182.15,183.93 172.65,194.71 172.34,195.07 C172.04,195.40 171.61,195.95 171.03,196.71" fill="none" stroke="rgb(229, 0, 16)" stroke-width="2.43" stroke-opacity="1.00" stroke-linejoin="round"/>
<path d="M195.94,187.91 C194.54,188.33 193.73,188.75 192.91,189.62 C186.75,196.05 172.49,209.65 171.06,211.27 C171.06,211.27 172.33,210.28 172.33,210.28" fill="none" stroke="rgb(229, 0, 16)" stroke-width="2.43" stroke-opacity="1.00" stroke-linejoin="round"/>
<path d="M182.58,206.55 C182.67,205.75 183.40,203.70 190.54,196.99 C198.42,189.35 207.43,180.59 209.72,177.81 C209.72,177.81 209.06,178.30 209.06,178.30" fill="none" stroke="rgb(229, 0, 16)" stroke-width="2.43" stroke-opacity="1.00" stroke-linejoin="round"/>
<path d="M219.86,172.99 C219.86,172.99 200.96,192.74 200.96,192.74 C200.96,192.74 201.21,193.46 201.21,193.46" fill="none" stroke="rgb(229, 0, 16)" stroke-width="2.43" stroke-opacity="1.00" stroke-linejoin="round"/>
<path d="M208.99,191.01 C208.99,191.01 208.21,191.63 208.21,191.63 C208.13,191.61 216.98,179.48 227.83,172.99 C228.04,172.86 228.44,172.67 229.02,172.41" fill="none" stroke="rgb(229, 0, 16)" stroke-width="2.43" stroke-opacity="1.00" stroke-linejoin="round"/>
<path d="M232.60,174.24 C231.49,174.34 229.13,176.44 226.52,179.58 C222.75,184.21 213.61,195.89 211.37,198.68 C211.15,198.96 210.62,199.65 209.78,200.75" fill="none" stroke="rgb(229, 0, 16)" stroke-width="2.43" stroke-opacity="1.00" stroke-linejoin="round"/>
<path d="M243.79,170.82 C241.88,171.72 230.94,185.38 228.40,187.98 C227.42,188.99 221.08,194.56 219.01,196.35 C219.01,196.35 219.24,196.61 219.24,196.61" fill="none" stroke="rgb(229, 0, 16)" stroke-width="2.43" stroke-opacity="1.00" stroke-linejoin="round"/>
<path d="M232.91,191.63 C232.37,191.62 231.16,191.74 230.58,192.02 C229.81,192.41 227.79,194.49 226.48,196.11 C226.00,196.71 224.23,199.15 223.59,200.02" fill="none" stroke="rgb(229, 0, 16)" stroke-width="2.43" stroke-opacity="1.00" stroke-linejoin="round"/>
<path d="M242.85,186.04 C241.88,186.85 232.48,201.14 230.34,203.30 C229.73,203.89 229.12,204.49 228.51,205.09" fill="none" stroke="rgb(229, 0, 16)" stroke-width="2.43" stroke-opacity="1.00" stroke-linejoin="round"/>
<path d="M260.56,181.07 C260.56,181.07 260.44,180.76 260.44,180.76 C260.30,180.81 251.94,191.39 248.74,195.40 C248.38,195.85 248.02,196.30 247.66,196.75" fill="none" stroke="rgb(229, 0, 16)" stroke-width="2.43" stroke-opacity="1.00" stroke-linejoin="round"/>
<path d="M256.83,177.03 C255.64,177.88 254.19,179.80 250.87,185.02 C249.73,186.80 247.67,190.04 246.75,191.49 C245.92,192.80 244.73,194.69 244.37,195.26" fill="none" stroke="rgb(229, 0, 16)" stroke-width="2.43" stroke-opacity="1.00" stroke-linejoin="round"/>
<path d="M265.84,181.38 C265.84,181.38 264.60,181.54 264.60,181.54 C264.60,181.54 253.83,198.77 253.83,198.77 C253.83,198.77 254.68,198.11 254.68,198.11" fill="none" stroke="rgb(229, 0, 16)" stroke-width="2.43" stroke-opacity="1.00" stroke-linejoin="round"/>
<path d="M276.41,180.14 C275.86,180.46 269.15,189.43 261.33,198.75 C261.11,199.02 260.82,199.37 260.48,199.81 C260.48,199.81 260.68,200.02 260.68,200.02" fill="none" stroke="rgb(229, 0, 16)" stroke-width="2.43" stroke-opacity="1.00" stroke-linejoin="round"/>
<path d="M272.06,193.50 C271.52,193.87 271.08,194.21 270.74,194.51 C269.76,195.36 267.73,197.38 266.83,198.35 C266.83,198.35 270.50,195.67 270.50,195.67" fill="none" stroke="rgb(229, 0, 16)" stroke-width="2.43" stroke-opacity="1.00" stroke-linejoin="round"/>
<path d="M275.48,190.39 C275.67,191.69 273.66,195.19 271.75,198.09 C270.96,199.29 270.38,200.12 270.01,200.59 C269.69,200.99 269.06,201.72 268.09,202.79" fill="none" stroke="rgb(229, 0, 16)" stroke-width="2.43" stroke-opacity="1.00" stroke-linejoin="round"/>
</g>
</svg>
