<?xml version="1.0" encoding="UTF-8" standalone="no"?>
<!DOCTYPE svg PUBLIC "-//W3C//DTD SVG 1.1//EN" "http://www.w3.org/Graphics/SVG/1.1/DTD/svg11.dtd">
<svg width="128.40" height="181.68" viewBox="0.00 0.00 535.00 757.00" xmlns="http://www.w3.org/2000/svg" xmlns:xlink="http://www.w3.org/1999/xlink">
<g stroke-linecap="round" transform="translate(44.00, 155.00)" id="127-나무">
<path d="M255.84,205.65 C255.28,205.65 254.13,205.64 254.02,205.61 C251.22,204.94 239.39,206.42 235.24,208.41 C233.26,209.38 223.95,214.53 222.65,215.35 C219.85,217.14 215.96,221.13 214.16,223.26 C212.14,225.69 209.84,230.13 209.22,232.57 C208.81,234.24 208.33,238.87 208.34,240.85 C208.39,243.55 209.60,247.56 211.52,249.71 C213.40,251.78 218.01,255.27 220.16,256.38 C223.08,257.83 238.31,259.82 242.91,259.97 C243.27,259.98 272.01,258.75 275.84,257.88 C279.51,257.02 285.90,255.14 288.70,253.99 C292.72,252.30 298.50,249.01 301.64,246.26 C304.65,243.58 307.52,239.07 308.25,236.51 C308.83,234.34 309.60,229.52 309.16,227.08 C308.55,224.02 304.78,218.50 301.87,216.39 C301.01,215.78 292.94,211.03 289.80,209.72 C285.28,207.85 274.60,206.32 269.06,206.25 C266.15,206.23 262.29,206.54 257.17,207.12 C256.44,207.20 255.71,207.29 254.97,207.37" fill="none" stroke="rgb(255, 255, 0)" stroke-width="2.43" stroke-opacity="1.00" stroke-linejoin="round"/>
<path d="M242.02,210.54 C241.44,209.91 237.16,210.04 234.27,211.15 C230.77,212.52 226.55,215.62 225.31,216.76 C223.66,218.32 220.22,222.84 219.40,224.41 C218.06,227.05 218.26,228.30 218.99,229.79 C220.59,230.17 224.72,229.27 228.52,227.59 C231.98,226.03 241.88,219.96 244.87,216.41 C245.79,215.30 246.93,213.26 247.43,211.94 C247.86,210.79 247.70,209.75 247.03,208.14 C244.40,207.29 239.14,207.85 235.46,209.13 C230.88,210.77 221.87,216.22 218.09,219.47 C212.58,224.27 211.77,227.49 212.00,228.44 C213.26,229.66 217.97,230.59 221.21,230.36 C226.18,229.97 236.30,226.37 240.80,223.76 C242.66,222.66 247.06,219.44 248.97,217.37 C250.87,215.28 251.57,212.93 251.71,211.86 C250.91,210.20 250.34,209.48 249.44,209.25 C247.56,208.79 243.89,209.48 241.38,211.07 C238.64,212.84 234.29,217.61 233.40,219.23 C232.45,221.02 231.64,223.08 231.50,224.08 C231.43,225.10 231.78,226.97 232.34,227.77 C232.97,228.60 235.60,229.65 237.28,229.84 C240.29,230.12 245.95,228.77 248.45,227.74 C252.43,226.07 261.70,219.90 264.54,216.14 C266.24,213.85 266.64,211.81 266.64,210.83 C265.48,209.48 264.69,208.95 263.58,208.96 C261.14,209.04 256.79,210.87 253.86,213.26 C248.02,218.11 247.28,221.71 247.16,223.50 C247.91,224.82 248.95,225.82 250.42,226.39 C253.00,227.36 259.26,227.30 262.37,226.19 C265.54,225.02 271.12,221.05 273.12,218.70 C274.94,216.51 275.70,214.40 275.92,213.32 C275.92,213.32 275.03,211.38 275.03,211.38 C272.92,210.66 271.61,210.40 270.47,210.61 C267.96,211.11 263.44,213.94 260.83,216.81 C259.73,218.06 257.56,222.20 258.04,223.68 C258.61,225.24 263.48,226.94 266.35,226.83 C269.13,226.68 274.68,224.46 277.29,222.66 C282.71,218.82 283.22,215.51 283.13,214.02 C281.83,213.50 280.91,213.38 279.76,213.75 C277.13,214.61 273.03,217.35 270.89,219.31 C268.96,221.12 266.39,224.39 265.46,226.04 C264.40,228.02 263.86,231.79 265.14,233.23 C266.32,234.48 270.95,235.53 273.11,235.12 C275.69,234.58 280.42,231.56 282.78,229.01 C284.86,226.72 287.43,222.12 287.52,220.44 C287.53,219.60 286.94,218.19 286.38,217.67 C285.12,216.63 280.75,216.79 277.40,218.48 C274.13,220.18 264.58,228.74 261.01,233.16 C256.97,238.19 256.08,240.84 255.77,242.33 C255.77,242.33 257.28,243.87 257.28,243.87 C259.02,244.05 261.99,243.31 263.64,242.14 C265.34,240.89 267.45,237.62 267.70,235.80 C267.92,233.88 266.41,229.87 264.63,228.12 C262.72,226.30 257.91,224.82 255.88,225.03 C253.95,225.27 249.45,227.16 247.45,228.58 C243.03,231.77 235.98,240.87 235.17,243.57 C234.71,245.16 234.86,246.50 235.48,247.50 C237.18,248.51 241.58,248.37 243.76,247.40 C245.76,246.48 249.45,243.16 250.32,242.07 C252.33,239.46 253.63,234.98 252.93,232.74 C252.19,230.53 248.38,227.11 246.14,226.71 C243.82,226.35 238.94,228.75 236.98,230.39 C227.39,238.62 225.92,245.97 225.80,247.66 C226.33,248.65 227.11,249.34 228.22,249.56 C230.15,249.90 234.95,248.91 237.36,247.47 C239.63,246.07 242.99,242.45 243.63,241.27 C245.07,238.51 245.43,233.72 244.52,231.55 C244.06,230.54 242.72,228.94 241.86,228.39 C240.95,227.84 238.79,227.38 237.58,227.50 C235.19,227.78 230.67,230.62 228.65,232.45 C225.05,235.77 218.98,244.48 218.34,247.06 C217.92,248.75 218.12,250.01 218.82,250.87 C220.67,251.74 224.81,251.83 227.14,251.04 C229.61,250.16 233.40,246.48 234.44,244.06 C235.42,241.62 235.32,236.33 234.22,233.70 C233.08,231.09 229.82,227.48 227.84,227.14 C226.76,227.01 224.54,227.59 223.35,228.32 C220.98,229.87 217.25,235.60 216.10,239.19 C215.60,240.88 215.62,244.66 216.75,245.76 C217.78,246.71 221.82,246.99 223.59,246.42 C225.64,245.71 228.86,242.74 229.74,240.61 C230.56,238.48 230.46,233.88 229.68,231.73 C228.92,229.75 226.47,227.16 225.03,227.15 C224.19,227.18 222.37,228.13 221.48,229.05 C219.43,231.27 216.58,237.57 215.96,240.13 C215.75,241.18 215.64,243.29 215.84,244.30 C216.08,245.48 217.18,246.86 218.61,248.15" fill="none" stroke="rgb(255, 255, 0)" stroke-width="2.43" stroke-opacity="1.00" stroke-linejoin="round"/>
<path d="M218.41,244.52 C218.41,244.52 212.86,244.56 212.86,244.56 C212.93,247.25 213.26,248.53 214.33,249.45 C216.65,251.38 220.70,253.40 223.29,253.92 C225.82,254.39 230.35,253.88 232.62,252.87 C234.57,251.96 238.56,249.19 239.79,247.03 C239.15,246.16 237.91,245.31 236.63,245.17 C235.35,245.05 233.26,245.50 232.53,246.04 C230.87,247.37 229.40,250.86 229.92,253.04 C230.27,254.28 231.72,256.65 232.74,257.46 C233.84,258.29 236.98,259.29 238.57,259.33 C241.67,259.31 247.85,256.25 251.13,253.50 C256.90,248.57 257.98,245.03 258.09,244.20 C258.09,244.20 257.08,243.01 257.08,243.01 C255.51,242.97 251.36,244.80 248.69,247.04 C245.97,249.35 242.90,254.21 242.71,255.45 C242.56,256.94 243.12,259.05 244.07,259.99 C245.77,261.56 252.56,263.22 255.41,262.85 C258.18,262.44 264.37,259.09 267.13,256.71 C269.82,254.33 273.13,249.55 273.45,247.57 C273.69,245.74 271.80,242.74 270.05,242.02 C268.08,241.26 263.25,242.35 260.60,244.32 C258.16,246.18 255.03,250.55 254.59,251.83 C254.15,253.26 254.15,255.00 254.71,255.75 C255.24,256.39 257.15,257.17 258.41,257.26 C261.06,257.38 267.29,255.08 271.07,252.60 C276.42,249.04 281.46,243.08 282.78,240.31 C283.37,239.05 283.30,237.95 282.71,236.17 C281.26,235.50 277.57,235.85 274.17,237.41 C270.91,238.96 263.37,245.68 261.28,248.91 C260.06,250.89 260.06,252.02 260.35,253.49 C261.37,254.42 262.65,255.12 264.14,255.36 C266.88,255.77 272.95,254.44 276.35,252.63 C279.59,250.87 285.57,246.23 287.56,243.89 C289.46,241.59 290.50,238.01 289.72,236.91 C288.89,235.86 284.96,234.88 282.62,235.45 C279.73,236.21 274.63,240.60 272.98,243.03 C271.82,244.83 270.10,248.51 270.31,250.66 C270.45,251.82 271.87,253.50 273.04,254.04 C275.26,254.97 281.24,254.65 284.34,253.30 C287.27,251.98 293.10,247.64 295.07,245.43 C296.95,243.25 298.34,239.24 297.92,237.77 C297.45,236.35 294.25,234.76 291.90,234.97 C290.54,235.12 287.81,236.13 286.31,237.05 C283.53,238.82 280.25,243.45 279.89,244.79 C279.52,246.31 279.59,248.59 280.14,249.62 C280.65,250.51 282.41,251.78 283.55,252.14 C285.84,252.79 290.98,251.67 293.42,249.97 C295.77,248.27 299.24,243.79 300.23,241.93 C301.15,240.03 301.95,235.62 301.11,233.10 C300.25,230.66 296.51,226.74 294.04,226.07 C291.27,225.39 286.16,227.17 284.54,228.53 C282.86,230.08 281.06,233.96 281.93,236.18 C282.80,238.19 287.44,240.94 290.26,241.16 C293.09,241.32 298.19,239.13 300.48,236.93 C302.60,234.84 304.30,230.73 303.92,228.56 C303.49,226.45 300.34,222.63 297.99,221.67 C295.21,220.63 288.89,221.31 285.04,223.09 C283.51,223.84 279.65,227.06 279.16,228.75 C278.93,229.66 279.34,231.35 279.95,232.14 C281.23,233.66 286.01,235.44 289.26,235.49 C290.86,235.49 295.26,234.29 297.28,232.75 C299.37,231.12 301.80,226.75 301.79,224.70 C301.73,222.68 299.30,218.53 297.23,216.88 C296.06,215.99 293.52,214.76 292.10,214.47 C289.11,213.91 283.73,215.37 281.32,216.66 C279.02,217.94 275.08,221.28 273.80,222.97 C273.18,223.86 272.39,225.57 272.27,226.47 C272.18,227.46 273.19,229.24 274.19,230.02 C275.94,231.33 280.67,232.55 282.06,232.55 C285.24,232.47 290.22,230.32 292.06,228.36 C293.77,226.45 294.82,221.95 294.13,219.60 C293.35,217.18 289.56,212.82 286.84,211.58 C283.98,210.33 278.31,210.32 275.71,210.90 C273.46,211.44 269.31,213.17 267.04,214.50 C261.95,217.56 257.81,222.81 257.59,224.10 C257.49,224.84 258.32,226.13 259.13,226.62 C260.78,227.53 266.56,228.26 269.27,227.67 C272.10,227.01 276.64,223.73 277.74,221.60 C278.27,220.52 278.59,218.41 278.39,217.33 C277.93,215.22 274.22,211.69 271.51,210.66 C268.79,209.68 263.06,209.77 260.69,210.29 C256.41,211.31 247.64,216.04 244.84,218.81 C243.51,220.17 241.90,223.66 242.62,225.35 C243.42,227.10 248.09,230.16 251.18,230.82 C254.04,231.38 258.98,230.73 260.21,230.20 C262.95,228.95 265.57,225.72 265.47,223.92 C265.30,222.21 261.96,218.32 259.65,217.29 C257.23,216.24 253.53,216.27 251.90,216.76 C250.03,217.34 246.22,219.51 244.38,221.06 C242.52,222.66 239.27,226.38 238.14,228.23 C236.99,230.15 235.90,233.61 235.98,235.21 C236.19,238.27 239.66,242.16 241.03,243.57" fill="none" stroke="rgb(255, 255, 0)" stroke-width="2.43" stroke-opacity="1.00" stroke-linejoin="round"/>
<path d="M247.20,240.77 C246.05,241.05 242.85,241.81 242.31,242.00 C240.98,242.46 240.12,243.40 239.61,244.64 C240.20,246.32 240.76,247.30 241.69,247.92 C243.63,249.19 248.30,250.48 251.14,250.53 C253.87,250.53 257.70,249.53 259.53,248.42 C260.36,247.90 260.71,247.09 261.02,245.40 C260.37,243.97 257.39,241.61 254.90,240.51 C252.13,239.32 246.41,238.77 244.31,239.15 C242.38,239.54 238.51,241.38 236.96,242.59 C235.49,243.77 233.08,247.01 232.76,248.01 C232.39,249.34 232.53,251.17 233.17,251.98 C234.28,253.29 239.28,254.47 241.79,254.26 C242.92,254.15 245.16,253.58 246.25,253.16 C248.28,252.34 250.22,250.83 251.52,249.70" fill="none" stroke="rgb(255, 255, 0)" stroke-width="2.43" stroke-opacity="1.00" stroke-linejoin="round"/>
<path d="M237.41,260.64 C237.41,260.64 237.49,265.82 237.49,265.82 C237.42,265.22 235.01,264.00 232.23,263.66 C228.77,263.23 226.72,262.82 223.98,260.84 C223.28,260.32 221.54,259.03 221.16,258.85 C220.67,259.99 221.76,264.22 223.40,266.28 C225.08,268.34 236.35,276.05 236.67,276.43 C236.98,276.83 238.20,331.33 237.98,331.66 C237.23,332.75 232.43,339.89 231.44,341.95 C226.85,351.49 223.98,355.98 217.41,365.33 C211.33,373.84 206.02,382.02 203.30,385.57 C201.19,388.29 196.59,394.14 194.58,396.15 C194.36,396.36 182.79,405.00 181.61,405.31 C181.43,405.36 181.12,405.41 180.69,405.47" fill="none" stroke="rgb(255, 255, 0)" stroke-width="2.43" stroke-opacity="1.00" stroke-linejoin="round"/>
<path d="M257.57,271.01 C257.57,271.01 255.65,269.09 255.65,269.09 C255.67,269.00 257.98,268.74 260.98,267.28 C263.97,265.78 267.53,263.09 269.59,260.83 C271.52,258.62 273.87,255.95 274.41,255.48 C274.41,255.48 273.40,256.03 273.40,256.03" fill="none" stroke="rgb(255, 255, 0)" stroke-width="2.43" stroke-opacity="1.00" stroke-linejoin="round"/>
<path d="M257.85,271.01 C257.85,271.01 256.61,271.01 256.61,271.01 C256.61,271.01 256.41,270.72 256.41,270.72 C256.66,271.06 257.69,274.13 259.47,280.32 C261.54,287.49 265.05,325.92 265.39,326.52 C265.56,326.82 273.18,339.14 276.61,344.25 C280.87,350.63 287.63,361.36 291.82,367.75 C293.85,370.81 296.41,373.30 296.85,374.24 C300.48,382.32 303.01,390.98 303.97,397.80 C304.05,398.41 304.07,399.16 304.03,400.05 C304.02,400.20 303.98,400.66 303.92,401.44" fill="none" stroke="rgb(255, 255, 0)" stroke-width="2.43" stroke-opacity="1.00" stroke-linejoin="round"/>
<path d="M245.47,286.27 C245.47,286.27 244.32,287.06 244.32,287.06 C244.26,286.09 245.88,283.46 246.75,282.96 C247.62,282.50 250.12,282.24 251.49,282.46 C252.81,282.70 254.77,284.19 255.07,286.42 C255.28,288.28 253.75,292.25 252.61,292.85 C251.28,293.46 246.96,292.82 245.31,291.93 C243.71,291.02 242.20,288.18 242.19,286.23 C242.23,284.22 243.78,279.27 245.14,277.55 C245.93,276.60 247.68,275.52 248.72,275.41 C249.79,275.33 252.25,276.08 253.37,276.81 C255.59,278.36 257.80,283.34 257.99,286.33 C258.10,288.69 257.82,294.36 257.09,295.88 C256.80,296.46 255.58,298.12 255.32,298.30 C255.03,298.50 254.08,298.68 252.38,298.94" fill="none" stroke="rgb(255, 255, 0)" stroke-width="2.43" stroke-opacity="1.00" stroke-linejoin="round"/>
</g>
</svg>
