<?xml version="1.0" encoding="UTF-8" standalone="no"?>
<!DOCTYPE svg PUBLIC "-//W3C//DTD SVG 1.1//EN" "http://www.w3.org/Graphics/SVG/1.1/DTD/svg11.dtd">
<svg width="128.40" height="181.68" viewBox="0.00 0.00 535.00 757.00" xmlns="http://www.w3.org/2000/svg" xmlns:xlink="http://www.w3.org/1999/xlink">
<g stroke-linecap="round" transform="translate(44.00, 155.00)" id="127-구름-3">
<path d="M368.06,166.47 C368.06,166.47 368.06,166.16 368.06,166.16 C367.91,165.99 365.78,161.60 364.82,160.44 C363.72,159.15 360.24,157.56 357.64,157.06 C354.27,156.43 351.50,156.16 348.69,156.54 C346.07,156.92 341.69,159.04 340.19,160.36 C337.10,163.16 335.59,165.86 335.16,168.24 C334.72,170.85 335.22,173.44 335.42,173.61 C335.04,173.50 331.48,175.63 330.61,177.41 C330.32,178.07 331.18,179.82 333.28,180.78 C335.75,181.89 343.00,183.45 346.72,183.85 C353.22,184.52 357.37,182.84 358.64,182.13 C358.64,182.13 357.99,182.25 357.99,182.25" fill="none" stroke="rgb(229, 0, 16)" stroke-width="2.43" stroke-opacity="1.00" stroke-linejoin="round"/>
<path d="M357.19,181.07 C357.19,181.07 357.03,181.07 357.03,181.07 C357.03,181.07 356.88,180.92 356.88,180.92 C356.88,180.92 356.88,180.76 356.88,180.76 C356.86,182.41 357.17,184.06 357.92,185.14 C359.42,187.21 364.18,190.04 368.42,191.21 C372.82,192.37 376.86,192.68 379.22,192.16 C380.86,191.77 387.01,188.85 389.36,187.48 C393.54,185.02 396.83,181.15 397.08,181.00 C397.38,181.20 398.86,187.64 399.13,188.52 C399.78,190.57 401.23,193.45 402.18,194.44 C403.70,195.95 408.81,197.15 411.06,196.32 C412.21,195.86 414.97,194.02 415.98,193.06 C417.96,191.10 419.22,186.83 419.79,181.75 C420.38,176.30 420.55,170.40 419.80,167.11 C419.01,163.84 415.32,158.48 413.17,156.69 C411.24,155.13 406.55,153.50 404.17,153.78 C402.82,153.97 399.76,155.09 398.67,155.86 C395.33,158.33 393.07,166.13 392.92,166.83 C392.65,165.37 390.90,161.13 389.01,158.87 C387.01,156.52 382.65,154.44 380.41,153.75 C378.71,153.28 375.14,154.63 371.34,157.35 C369.65,158.59 367.02,161.98 365.17,164.48 C364.69,165.14 364.20,165.81 363.71,166.47" fill="none" stroke="rgb(229, 0, 16)" stroke-width="2.43" stroke-opacity="1.00" stroke-linejoin="round"/>
<path d="M344.14,162.74 C344.14,162.74 342.62,163.03 342.62,163.03 C339.91,167.42 337.69,170.52 336.98,171.52 C336.77,171.81 336.64,172.00 336.61,172.10" fill="none" stroke="rgb(229, 0, 16)" stroke-width="2.43" stroke-opacity="1.00" stroke-linejoin="round"/>
<path d="M353.15,161.81 C352.66,162.11 352.32,162.35 352.13,162.52 C351.77,162.84 347.10,168.11 345.40,169.59 C343.70,171.06 338.12,175.28 337.90,175.62 C337.90,175.62 339.31,175.31 339.31,175.31" fill="none" stroke="rgb(229, 0, 16)" stroke-width="2.43" stroke-opacity="1.00" stroke-linejoin="round"/>
<path d="M355.32,164.29 C355.32,164.29 356.10,164.37 356.10,164.37 C356.15,164.63 354.90,167.10 349.34,171.28 C348.46,171.94 346.30,173.57 345.95,173.91 C345.95,173.91 346.40,173.97 346.40,173.97" fill="none" stroke="rgb(229, 0, 16)" stroke-width="2.43" stroke-opacity="1.00" stroke-linejoin="round"/>
<path d="M355.63,168.33 C355.63,168.33 356.88,168.18 356.88,168.18 C356.69,168.91 352.45,173.62 350.82,174.92 C350.57,175.12 350.08,175.47 349.34,175.99" fill="none" stroke="rgb(229, 0, 16)" stroke-width="2.43" stroke-opacity="1.00" stroke-linejoin="round"/>
<path d="M378.93,160.57 C378.37,160.43 374.04,163.26 371.87,165.36 C370.85,166.35 364.87,172.53 363.78,173.85 C363.78,173.85 364.69,173.86 364.69,173.86" fill="none" stroke="rgb(229, 0, 16)" stroke-width="2.43" stroke-opacity="1.00" stroke-linejoin="round"/>
<path d="M378.93,166.16 C378.94,166.15 378.88,166.15 378.78,166.16 C377.92,166.28 376.72,167.02 374.66,168.73 C372.53,170.54 368.65,173.83 366.49,176.03 C366.49,176.03 366.65,176.40 366.65,176.40" fill="none" stroke="rgb(229, 0, 16)" stroke-width="2.43" stroke-opacity="1.00" stroke-linejoin="round"/>
<path d="M382.04,166.16 C382.04,166.16 382.66,165.85 382.66,165.85 C382.72,166.31 379.92,169.24 377.15,171.57 C375.04,173.33 370.64,176.65 369.43,177.56 C369.43,177.56 370.94,176.24 370.94,176.24" fill="none" stroke="rgb(229, 0, 16)" stroke-width="2.43" stroke-opacity="1.00" stroke-linejoin="round"/>
<path d="M385.77,166.47 C385.77,166.47 386.39,166.16 386.39,166.16 C385.97,166.66 384.79,167.97 383.89,168.96 C379.22,174.09 372.80,180.86 372.74,181.20 C372.74,181.20 375.52,179.83 375.52,179.83" fill="none" stroke="rgb(229, 0, 16)" stroke-width="2.43" stroke-opacity="1.00" stroke-linejoin="round"/>
<path d="M408.76,161.81 C408.76,161.81 408.61,161.81 408.61,161.81 C408.61,161.81 408.29,161.50 408.29,161.50 C408.29,161.50 396.30,174.97 396.30,174.97 C396.30,174.97 397.21,174.46 397.21,174.46" fill="none" stroke="rgb(229, 0, 16)" stroke-width="2.43" stroke-opacity="1.00" stroke-linejoin="round"/>
<path d="M410.31,169.27 C410.01,169.51 409.82,169.65 409.74,169.68 C409.34,169.89 404.56,174.73 402.27,176.59 C401.00,177.60 398.96,179.11 397.72,179.94 C397.29,180.23 396.60,180.66 395.66,181.23" fill="none" stroke="rgb(229, 0, 16)" stroke-width="2.43" stroke-opacity="1.00" stroke-linejoin="round"/>
<path d="M410.00,172.37 C409.97,173.08 409.76,173.71 409.17,174.47 C407.57,176.49 404.30,179.30 403.60,179.71 C403.35,179.85 402.92,180.03 402.33,180.23" fill="none" stroke="rgb(229, 0, 16)" stroke-width="2.43" stroke-opacity="1.00" stroke-linejoin="round"/>
<path d="M416.84,173.30 C416.84,173.30 419.17,173.30 419.17,173.30 C419.17,173.30 419.64,173.77 419.64,173.77 C418.92,175.32 412.58,180.24 410.49,181.37 C409.93,181.67 408.81,182.17 407.14,182.87" fill="none" stroke="rgb(229, 0, 16)" stroke-width="2.43" stroke-opacity="1.00" stroke-linejoin="round"/>
<path d="M415.60,178.59 C415.60,178.59 416.45,179.00 416.45,179.00 C416.52,179.60 414.83,181.35 413.86,181.91 C413.37,182.18 412.20,182.76 410.34,183.64" fill="none" stroke="rgb(229, 0, 16)" stroke-width="2.43" stroke-opacity="1.00" stroke-linejoin="round"/>
</g>
</svg>
