<?xml version="1.0" encoding="UTF-8" standalone="no"?>
<!DOCTYPE svg PUBLIC "-//W3C//DTD SVG 1.1//EN" "http://www.w3.org/Graphics/SVG/1.1/DTD/svg11.dtd">
<svg width="128.40" height="181.68" viewBox="0.00 0.00 535.00 757.00" xmlns="http://www.w3.org/2000/svg" xmlns:xlink="http://www.w3.org/1999/xlink">
<g stroke-linecap="round" transform="translate(44.00, 155.00)" id="127-구름-1">
<path d="M120.13,161.19 C120.13,161.19 118.58,161.19 118.58,161.19 C120.20,161.68 126.12,166.60 127.06,167.32 C128.83,168.65 132.78,170.20 135.10,170.25 C137.69,170.27 142.40,169.60 143.73,168.49 C145.39,167.03 148.01,161.47 148.01,159.42 C147.99,158.57 146.45,156.21 146.61,154.91 C146.72,154.02 147.51,146.17 146.60,143.28 C145.72,140.60 141.57,136.25 139.48,135.50 C137.15,134.74 130.22,135.55 126.63,136.93 C124.74,137.70 122.10,139.34 121.03,140.49 C119.17,142.58 117.10,148.25 116.40,150.32 C115.47,149.91 112.88,144.05 112.09,142.48 C111.44,141.19 108.49,136.25 106.81,134.73 C105.33,133.42 99.71,132.64 97.73,132.91 C94.60,133.42 89.17,137.43 87.62,139.32 C86.24,141.07 82.77,146.55 81.94,148.16 C80.30,151.38 77.88,158.41 77.55,158.59 C77.19,157.88 74.99,152.35 73.06,149.80 C70.75,146.80 65.46,142.75 63.47,141.99 C61.72,141.37 57.83,142.38 55.11,144.63 C52.19,147.08 43.34,157.81 40.97,161.75 C40.52,162.51 38.06,167.79 37.66,170.82 C37.47,172.31 39.09,175.53 40.25,176.11 C43.01,177.42 48.23,177.16 50.25,176.32 C50.87,179.96 52.51,184.47 53.49,186.13 C54.23,187.36 55.75,189.09 56.76,189.89 C58.31,191.02 64.43,191.90 69.32,191.46 C73.88,190.98 79.18,188.47 81.52,186.18 C83.25,184.42 85.29,179.60 85.85,176.81 C86.18,175.04 84.94,172.11 83.61,172.13 C82.15,172.22 79.69,174.60 78.20,176.24" fill="none" stroke="rgb(229, 0, 16)" stroke-width="2.43" stroke-opacity="1.00" stroke-linejoin="round"/>
<path d="M79.74,173.93 C79.75,174.03 78.88,174.28 78.53,174.39 C77.81,174.68 78.00,182.30 78.77,183.56 C78.92,183.80 79.28,184.18 79.83,184.69" fill="none" stroke="rgb(229, 0, 16)" stroke-width="2.43" stroke-opacity="1.00" stroke-linejoin="round"/>
<path d="M86.58,175.17 C86.58,175.17 85.18,175.63 85.18,175.63 C85.18,175.63 85.49,176.54 85.49,176.54 C88.16,178.33 91.88,180.67 94.70,182.89 C97.78,185.28 101.03,186.44 102.79,186.35 C104.72,186.20 109.57,183.83 111.86,181.85 C113.72,180.21 116.52,176.10 117.35,174.03 C119.52,168.41 119.38,164.06 119.16,162.53 C119.16,162.53 118.10,161.88 118.10,161.88" fill="none" stroke="rgb(229, 0, 16)" stroke-width="2.43" stroke-opacity="1.00" stroke-linejoin="round"/>
<path d="M58.31,147.83 C58.31,147.83 58.25,146.74 58.25,146.74 C56.66,148.41 44.70,167.19 44.51,167.65 C44.38,167.95 44.25,168.55 44.12,169.43" fill="none" stroke="rgb(229, 0, 16)" stroke-width="2.43" stroke-opacity="1.00" stroke-linejoin="round"/>
<path d="M59.86,150.62 C59.60,150.82 59.40,150.97 59.24,151.09 C58.65,151.52 57.21,152.59 56.88,152.93 C55.84,154.04 52.79,161.07 52.32,162.16 C51.56,163.95 50.44,166.14 50.04,166.76 C50.04,166.76 52.40,162.43 52.40,162.43" fill="none" stroke="rgb(229, 0, 16)" stroke-width="2.43" stroke-opacity="1.00" stroke-linejoin="round"/>
<path d="M60.17,152.18 C60.17,152.18 61.26,151.56 61.26,151.56 C61.62,152.01 61.66,152.43 61.24,153.37 C58.25,159.84 51.25,174.66 49.49,177.09 C49.49,177.09 49.96,175.80 49.96,175.80" fill="none" stroke="rgb(229, 0, 16)" stroke-width="2.43" stroke-opacity="1.00" stroke-linejoin="round"/>
<path d="M68.25,150.31 C68.20,150.60 62.97,162.82 60.49,169.95 C59.35,173.19 56.03,181.47 55.93,181.75 C55.83,182.01 55.75,182.29 55.68,182.59" fill="none" stroke="rgb(229, 0, 16)" stroke-width="2.43" stroke-opacity="1.00" stroke-linejoin="round"/>
<path d="M71.66,159.63 C71.66,159.63 70.28,159.24 70.28,159.24 C67.09,165.23 61.77,184.77 61.65,186.54 C61.65,186.54 62.38,186.06 62.38,186.06" fill="none" stroke="rgb(229, 0, 16)" stroke-width="2.43" stroke-opacity="1.00" stroke-linejoin="round"/>
<path d="M75.70,163.05 C75.19,163.56 74.85,163.96 74.68,164.23 C74.18,165.03 68.50,181.46 68.21,182.35 C67.47,184.69 66.77,187.12 66.55,188.09" fill="none" stroke="rgb(229, 0, 16)" stroke-width="2.43" stroke-opacity="1.00" stroke-linejoin="round"/>
<path d="M79.12,171.13 C79.12,171.13 78.81,171.35 78.81,171.35 C78.81,171.35 94.41,142.68 94.41,142.68 C94.41,142.68 94.52,142.83 94.52,142.83" fill="none" stroke="rgb(229, 0, 16)" stroke-width="2.43" stroke-opacity="1.00" stroke-linejoin="round"/>
<path d="M99.63,142.86 C98.83,144.35 87.20,176.36 87.04,176.83 C86.95,177.12 86.76,177.76 86.48,178.77" fill="none" stroke="rgb(229, 0, 16)" stroke-width="2.43" stroke-opacity="1.00" stroke-linejoin="round"/>
<path d="M105.53,150.93 C104.22,152.89 102.80,156.13 100.89,160.81 C99.71,163.67 96.66,170.17 96.57,170.59 C96.50,170.90 96.57,171.27 96.78,171.68" fill="none" stroke="rgb(229, 0, 16)" stroke-width="2.43" stroke-opacity="1.00" stroke-linejoin="round"/>
<path d="M108.64,153.42 C108.08,153.49 107.74,153.54 107.62,153.58 C106.40,153.95 101.31,168.43 98.80,175.57 C98.09,177.60 97.85,178.36 97.64,179.28 C98.65,178.49 100.47,174.59 101.77,171.78 C102.62,169.90 104.04,166.78 104.60,165.54" fill="none" stroke="rgb(229, 0, 16)" stroke-width="2.43" stroke-opacity="1.00" stroke-linejoin="round"/>
<path d="M115.47,152.49 C113.86,154.57 113.04,155.82 112.24,157.52 C109.44,163.33 103.79,174.57 102.54,178.46 C102.15,179.71 101.74,181.49 101.60,182.44" fill="none" stroke="rgb(229, 0, 16)" stroke-width="2.43" stroke-opacity="1.00" stroke-linejoin="round"/>
<path d="M129.14,139.75 C129.14,139.75 128.13,139.98 128.13,139.98 C126.77,141.75 116.69,162.24 116.37,163.67 C116.27,164.15 116.26,164.88 116.33,165.86" fill="none" stroke="rgb(229, 0, 16)" stroke-width="2.43" stroke-opacity="1.00" stroke-linejoin="round"/>
<path d="M131.94,144.72 C130.14,148.00 123.89,161.59 123.77,161.95 C123.68,162.21 123.58,162.63 123.47,163.21" fill="none" stroke="rgb(229, 0, 16)" stroke-width="2.43" stroke-opacity="1.00" stroke-linejoin="round"/>
<path d="M136.29,146.27 C134.11,148.69 132.84,151.40 131.33,154.93 C128.22,162.34 127.06,165.80 126.75,166.74 C126.75,166.74 127.04,166.77 127.04,166.77" fill="none" stroke="rgb(229, 0, 16)" stroke-width="2.43" stroke-opacity="1.00" stroke-linejoin="round"/>
<path d="M139.39,149.07 C139.42,149.02 139.41,149.18 139.39,149.23 C138.79,151.70 135.75,158.14 135.39,158.93 C135.18,159.41 134.86,160.12 134.46,161.06" fill="none" stroke="rgb(229, 0, 16)" stroke-width="2.43" stroke-opacity="1.00" stroke-linejoin="round"/>
<path d="M141.57,153.42 C141.57,153.42 142.35,153.50 142.35,153.50 C142.64,154.09 141.75,156.61 141.18,157.81 C140.98,158.23 140.54,159.08 139.87,160.36" fill="none" stroke="rgb(229, 0, 16)" stroke-width="2.43" stroke-opacity="1.00" stroke-linejoin="round"/>
</g>
</svg>
