<?xml version="1.0" encoding="UTF-8" standalone="no"?>
<!DOCTYPE svg PUBLIC "-//W3C//DTD SVG 1.1//EN" "http://www.w3.org/Graphics/SVG/1.1/DTD/svg11.dtd">
<svg width="535.00" height="757.00" viewBox="0.00 0.00 535.00 757.00" xmlns="http://www.w3.org/2000/svg" xmlns:xlink="http://www.w3.org/1999/xlink">
<g stroke-linecap="round" transform="translate(44.00, 155.00)" id="128-지면">
<path d="M-36.23,352.82 C-36.29,352.85 -30.30,351.72 -26.06,351.26 C-22.94,350.93 -5.95,349.99 -2.81,350.00 C0.13,350.05 10.87,350.27 21.78,351.79 C41.73,354.64 107.96,359.93 137.60,363.12 C146.42,363.89 166.89,365.58 170.99,365.76 C173.67,365.87 188.67,365.27 194.85,364.99 C203.48,364.52 218.50,364.63 222.23,364.50 C227.49,364.31 246.55,361.68 248.85,361.46 C249.85,361.37 269.88,359.99 277.55,359.47 C284.97,359.06 298.62,359.25 305.91,358.99 C321.59,358.21 364.85,355.77 383.79,357.09 C390.07,357.64 426.31,364.69 439.97,368.40 C447.83,370.56 462.56,374.55 469.43,376.38 C471.37,376.91 478.16,377.71 479.38,377.90 C479.38,377.90 478.59,377.61 478.59,377.61" fill="none" stroke="rgb(186, 153, 255)" stroke-width="2.41" stroke-opacity="1.00" stroke-linejoin="round"/>
</g>
</svg>
