<?xml version="1.0" encoding="UTF-8" standalone="no"?>
<!DOCTYPE svg PUBLIC "-//W3C//DTD SVG 1.1//EN" "http://www.w3.org/Graphics/SVG/1.1/DTD/svg11.dtd">
<svg width="535.00" height="757.00" viewBox="0.00 0.00 535.00 757.00" xmlns="http://www.w3.org/2000/svg" xmlns:xlink="http://www.w3.org/1999/xlink">
<g stroke-linecap="round" transform="translate(44.00, 155.00)" id="128-비">
<path d="M329.27,158.42 C328.78,158.40 328.17,158.46 327.87,158.72 C323.56,162.64 305.47,192.93 303.05,198.40 C302.67,199.26 300.89,204.31 300.46,205.54" fill="none" stroke="rgb(70, 75, 85)" stroke-width="2.41" stroke-opacity="1.00" stroke-linejoin="round"/>
<path d="M351.90,162.98 C348.53,172.15 347.93,174.16 346.01,184.99 C342.05,209.45 341.40,217.29 341.29,224.00 C341.24,226.16 341.13,227.83 340.93,229.40" fill="none" stroke="rgb(70, 75, 85)" stroke-width="2.41" stroke-opacity="1.00" stroke-linejoin="round"/>
<path d="M356.87,180.39 C356.15,185.39 355.99,188.43 356.10,192.51 C356.33,201.36 355.85,210.08 356.18,213.75 C356.21,214.07 356.26,214.74 356.32,215.76" fill="none" stroke="rgb(70, 75, 85)" stroke-width="2.41" stroke-opacity="1.00" stroke-linejoin="round"/>
<path d="M366.32,159.94 C366.33,159.86 366.81,164.66 366.98,170.94 C367.04,173.26 366.96,175.33 367.00,175.54 C367.07,175.95 367.33,176.95 367.78,178.54" fill="none" stroke="rgb(70, 75, 85)" stroke-width="2.41" stroke-opacity="1.00" stroke-linejoin="round"/>
<path d="M381.84,161.11 C381.81,162.03 382.09,168.87 381.21,171.87 C380.90,172.89 380.54,173.67 380.13,174.21 C379.87,174.54 379.24,175.15 378.24,176.03" fill="none" stroke="rgb(70, 75, 85)" stroke-width="2.41" stroke-opacity="1.00" stroke-linejoin="round"/>
<path d="M403.28,170.93 C403.43,170.74 402.86,182.05 402.84,182.68 C402.66,188.56 405.67,196.64 405.45,198.88 C405.39,199.44 404.90,202.45 404.72,203.53" fill="none" stroke="rgb(70, 75, 85)" stroke-width="2.41" stroke-opacity="1.00" stroke-linejoin="round"/>
<path d="M408.06,166.23 C408.33,166.93 413.06,182.64 414.03,187.16 C414.60,189.92 414.92,198.90 415.07,200.81 C415.10,201.18 415.16,201.80 415.25,202.67" fill="none" stroke="rgb(70, 75, 85)" stroke-width="2.41" stroke-opacity="1.00" stroke-linejoin="round"/>
<path d="M426.67,144.62 C425.95,146.64 423.89,151.19 422.75,154.21 C421.14,158.55 420.19,162.65 420.29,165.13 C420.44,169.12 419.52,176.22 419.16,179.99 C418.84,183.40 419.61,190.37 419.67,191.81 C419.71,192.80 419.79,195.01 419.83,196.24" fill="none" stroke="rgb(70, 75, 85)" stroke-width="2.41" stroke-opacity="1.00" stroke-linejoin="round"/>
<path d="M396.16,196.41 C395.62,196.98 398.24,207.60 399.75,210.96 C399.77,211.00 399.86,211.11 399.85,211.07" fill="none" stroke="rgb(70, 75, 85)" stroke-width="2.41" stroke-opacity="1.00" stroke-linejoin="round"/>
<path d="M402.29,244.63 C402.29,244.63 402.58,244.87 402.58,244.87 C402.48,247.30 401.24,259.08 401.61,260.71 C401.67,260.96 401.85,261.29 402.15,261.69" fill="none" stroke="rgb(70, 75, 85)" stroke-width="2.41" stroke-opacity="1.00" stroke-linejoin="round"/>
<path d="M408.19,257.45 C408.18,257.39 407.05,262.81 406.93,263.55 C404.98,274.87 404.91,293.84 404.53,303.10 C404.29,308.91 404.35,314.44 404.71,317.32" fill="none" stroke="rgb(70, 75, 85)" stroke-width="2.41" stroke-opacity="1.00" stroke-linejoin="round"/>
<path d="M424.12,231.80 C424.01,232.66 423.96,233.76 423.94,236.40 C423.81,248.42 420.67,267.27 420.82,272.55 C420.92,275.68 421.63,280.04 422.89,283.48" fill="none" stroke="rgb(70, 75, 85)" stroke-width="2.41" stroke-opacity="1.00" stroke-linejoin="round"/>
<path d="M383.47,201.98 C382.90,204.55 382.41,221.12 382.23,229.11 C381.84,241.52 382.03,251.72 383.50,256.96 C383.71,257.69 383.93,258.42 384.14,259.14 C384.14,259.14 383.74,258.82 383.74,258.82" fill="none" stroke="rgb(70, 75, 85)" stroke-width="2.41" stroke-opacity="1.00" stroke-linejoin="round"/>
<path d="M366.45,258.37 C366.65,259.52 367.18,262.59 367.50,264.52 C369.22,274.78 370.59,280.21 370.88,281.44 C370.88,281.44 370.61,281.66 370.61,281.66" fill="none" stroke="rgb(70, 75, 85)" stroke-width="2.41" stroke-opacity="1.00" stroke-linejoin="round"/>
<path d="M362.70,266.48 C362.70,266.48 362.76,266.31 362.76,266.31 C362.76,266.31 363.15,266.27 363.15,266.27 C361.29,270.95 360.00,283.17 359.68,292.02 C359.47,301.76 359.93,311.60 359.53,319.22 C359.22,326.11 361.05,347.08 361.20,348.74" fill="none" stroke="rgb(70, 75, 85)" stroke-width="2.41" stroke-opacity="1.00" stroke-linejoin="round"/>
<path d="M329.47,212.43 C329.47,212.43 329.59,212.10 329.59,212.10 C330.32,215.09 332.20,238.10 332.31,239.87 C332.85,248.82 334.70,261.30 334.69,264.84 C334.59,267.42 334.48,270.70 334.46,273.14" fill="none" stroke="rgb(70, 75, 85)" stroke-width="2.41" stroke-opacity="1.00" stroke-linejoin="round"/>
<path d="M332.49,167.21 C332.51,168.22 332.36,169.26 331.84,171.12 C330.99,174.17 328.45,182.61 328.46,183.12 C328.46,183.17 328.47,183.19 328.48,183.20" fill="none" stroke="rgb(70, 75, 85)" stroke-width="2.41" stroke-opacity="1.00" stroke-linejoin="round"/>
<path d="M310.37,238.43 C310.37,238.43 310.65,238.72 310.65,238.72 C310.92,242.08 308.93,256.22 307.90,263.40 C306.34,275.12 308.05,287.09 308.24,287.94 C308.24,287.94 308.16,286.62 308.16,286.62" fill="none" stroke="rgb(70, 75, 85)" stroke-width="2.41" stroke-opacity="1.00" stroke-linejoin="round"/>
<path d="M301.82,262.63 C301.56,262.60 300.37,265.20 299.73,267.93 C299.31,269.74 295.72,291.11 295.08,297.24 C294.56,302.59 294.71,311.63 295.23,321.13 C295.42,325.39 295.56,342.39 295.84,347.78" fill="none" stroke="rgb(70, 75, 85)" stroke-width="2.41" stroke-opacity="1.00" stroke-linejoin="round"/>
<path d="M293.28,198.31 C293.86,199.53 293.76,202.55 293.44,206.50 C291.54,228.21 292.42,235.52 292.44,236.23 C292.44,236.59 292.41,237.33 292.32,238.43" fill="none" stroke="rgb(70, 75, 85)" stroke-width="2.41" stroke-opacity="1.00" stroke-linejoin="round"/>
<path d="M309.37,156.77 C307.67,163.99 306.75,173.23 306.82,174.22 C306.84,174.57 306.96,175.01 307.16,175.53" fill="none" stroke="rgb(70, 75, 85)" stroke-width="2.41" stroke-opacity="1.00" stroke-linejoin="round"/>
<path d="M291.13,162.96 C291.29,162.95 289.29,167.54 287.20,171.38 C283.32,178.58 278.57,190.51 277.88,194.10 C277.56,195.77 277.14,198.64 277.14,198.65 C277.10,198.73 276.97,198.93 276.74,199.24" fill="none" stroke="rgb(70, 75, 85)" stroke-width="2.41" stroke-opacity="1.00" stroke-linejoin="round"/>
<path d="M269.79,220.79 C268.73,221.12 272.23,258.51 272.18,264.32 C272.15,266.36 271.63,272.29 271.31,275.73 C270.90,279.87 271.53,283.00 272.10,283.81 C272.23,283.99 272.48,284.24 272.85,284.56" fill="none" stroke="rgb(70, 75, 85)" stroke-width="2.41" stroke-opacity="1.00" stroke-linejoin="round"/>
<path d="M260.45,237.86 C260.60,239.57 258.86,247.73 258.67,248.74 C257.56,255.44 252.93,279.17 252.46,283.84 C252.46,283.84 252.71,284.14 252.71,284.14" fill="none" stroke="rgb(70, 75, 85)" stroke-width="2.41" stroke-opacity="1.00" stroke-linejoin="round"/>
<path d="M259.19,301.97 C259.37,302.86 259.40,303.74 259.28,305.38 C258.90,310.92 260.33,327.52 260.43,330.39 C260.49,332.22 260.21,338.25 259.96,341.88 C259.78,344.61 259.50,350.35 259.83,352.72" fill="none" stroke="rgb(70, 75, 85)" stroke-width="2.41" stroke-opacity="1.00" stroke-linejoin="round"/>
<path d="M234.74,259.13 C234.27,260.89 235.22,274.56 234.68,282.10 C234.03,291.66 233.89,301.10 234.87,307.99 C235.41,311.54 236.16,316.37 236.37,317.66 C236.54,318.72 236.72,319.77 236.90,320.82" fill="none" stroke="rgb(70, 75, 85)" stroke-width="2.41" stroke-opacity="1.00" stroke-linejoin="round"/>
<path d="M239.60,230.54 C239.60,230.54 239.76,230.60 239.76,230.60 C239.92,230.74 238.61,235.66 237.54,238.02 C237.37,238.40 229.34,254.52 226.46,260.50 C223.43,266.71 214.12,281.46 213.81,281.99 C213.60,282.33 213.22,283.03 212.65,284.09" fill="none" stroke="rgb(70, 75, 85)" stroke-width="2.41" stroke-opacity="1.00" stroke-linejoin="round"/>
<path d="M225.64,208.67 C225.55,208.58 222.97,229.47 222.69,232.28 C222.17,237.86 222.96,254.41 223.66,257.00 C223.72,257.25 223.86,257.54 224.06,257.88" fill="none" stroke="rgb(70, 75, 85)" stroke-width="2.41" stroke-opacity="1.00" stroke-linejoin="round"/>
<path d="M258.20,181.19 C256.52,183.05 253.67,186.28 251.93,188.62 C245.84,196.96 241.72,201.90 235.05,208.57 C232.59,211.11 223.11,223.97 218.79,229.91 C215.69,234.21 208.33,241.35 207.36,242.28" fill="none" stroke="rgb(70, 75, 85)" stroke-width="2.41" stroke-opacity="1.00" stroke-linejoin="round"/>
<path d="M263.14,160.60 C262.84,162.69 257.51,186.33 257.37,189.11 C257.31,190.42 257.55,195.38 257.70,196.86 C257.96,199.16 258.45,201.36 258.96,202.87" fill="none" stroke="rgb(70, 75, 85)" stroke-width="2.41" stroke-opacity="1.00" stroke-linejoin="round"/>
<path d="M250.52,156.70 C249.58,157.76 243.62,165.67 236.06,173.43 C233.44,176.12 228.80,180.86 227.49,182.68 C226.53,184.03 214.27,202.30 212.79,204.51 C210.83,207.35 207.26,212.49 205.65,214.79" fill="none" stroke="rgb(70, 75, 85)" stroke-width="2.41" stroke-opacity="1.00" stroke-linejoin="round"/>
<path d="M228.11,170.08 C228.12,170.16 226.25,173.22 223.87,177.55 C219.15,185.90 216.80,189.04 215.49,190.67 C215.34,190.89 215.09,191.34 214.73,192.02" fill="none" stroke="rgb(70, 75, 85)" stroke-width="2.41" stroke-opacity="1.00" stroke-linejoin="round"/>
<path d="M224.21,150.79 C223.25,153.70 213.74,166.69 211.45,170.15 C209.78,172.73 205.37,179.49 204.60,180.58 C201.56,184.88 200.05,186.23 198.58,187.29" fill="none" stroke="rgb(70, 75, 85)" stroke-width="2.41" stroke-opacity="1.00" stroke-linejoin="round"/>
<path d="M210.71,160.62 C209.54,162.61 205.74,167.15 203.60,169.72 C202.39,171.20 200.01,174.13 199.60,174.69 C199.41,174.94 199.13,175.34 198.76,175.90" fill="none" stroke="rgb(70, 75, 85)" stroke-width="2.41" stroke-opacity="1.00" stroke-linejoin="round"/>
<path d="M180.05,142.84 C180.05,142.84 180.38,142.97 180.38,142.97 C179.66,144.43 166.43,162.28 166.14,162.82 C166.02,163.06 165.87,163.46 165.70,164.01" fill="none" stroke="rgb(70, 75, 85)" stroke-width="2.41" stroke-opacity="1.00" stroke-linejoin="round"/>
<path d="M164.86,141.80 C164.76,142.26 153.76,150.58 150.79,153.92 C149.13,155.80 144.20,161.93 142.67,163.23 C142.22,163.60 134.67,169.08 132.62,171.23 C128.99,175.50 124.97,180.19 123.57,181.63" fill="none" stroke="rgb(70, 75, 85)" stroke-width="2.41" stroke-opacity="1.00" stroke-linejoin="round"/>
<path d="M144.68,166.63 C144.68,166.63 144.25,166.47 144.25,166.47 C144.25,166.47 131.59,182.06 131.59,182.06 C131.59,182.06 132.49,181.13 132.49,181.13" fill="none" stroke="rgb(70, 75, 85)" stroke-width="2.41" stroke-opacity="1.00" stroke-linejoin="round"/>
<path d="M149.58,139.96 C149.62,139.91 147.46,144.00 145.17,148.78 C143.80,151.62 141.88,154.84 141.50,155.13 C141.33,155.27 140.93,155.46 140.31,155.71" fill="none" stroke="rgb(70, 75, 85)" stroke-width="2.41" stroke-opacity="1.00" stroke-linejoin="round"/>
<path d="M126.50,160.30 C115.13,176.80 98.94,196.13 98.21,197.03 C96.44,199.20 84.63,212.21 81.37,217.35 C80.45,218.80 78.40,222.24 77.85,223.32 C77.05,224.92 75.93,227.52 75.37,228.98" fill="none" stroke="rgb(70, 75, 85)" stroke-width="2.41" stroke-opacity="1.00" stroke-linejoin="round"/>
<path d="M105.98,192.23 C105.58,193.30 105.31,194.03 105.18,194.40 C97.32,217.17 91.58,236.33 91.39,236.89 C91.32,237.11 91.22,237.38 91.09,237.72" fill="none" stroke="rgb(70, 75, 85)" stroke-width="2.41" stroke-opacity="1.00" stroke-linejoin="round"/>
<path d="M98.38,246.78 C97.93,246.91 97.47,247.19 96.44,248.05 C93.97,250.11 87.29,255.70 86.28,256.73 C84.26,258.84 78.97,268.13 78.56,268.78 C76.61,271.90 65.60,282.65 60.49,288.37 C58.02,291.19 53.69,296.13 51.95,298.19 C51.32,298.94 50.74,299.81 49.78,301.33" fill="none" stroke="rgb(70, 75, 85)" stroke-width="2.41" stroke-opacity="1.00" stroke-linejoin="round"/>
<path d="M101.53,268.08 C101.34,268.60 101.15,269.12 100.95,269.64 C97.73,278.77 93.29,286.59 90.78,290.81 C82.44,307.31 74.93,318.47 74.01,320.16 C73.36,321.36 71.47,325.06 70.73,326.53" fill="none" stroke="rgb(70, 75, 85)" stroke-width="2.41" stroke-opacity="1.00" stroke-linejoin="round"/>
<path d="M95.27,284.00 C94.63,286.82 93.41,292.10 92.08,297.24 C91.56,299.15 90.46,303.19 90.30,303.80 C90.21,304.17 90.05,304.80 89.84,305.69" fill="none" stroke="rgb(70, 75, 85)" stroke-width="2.41" stroke-opacity="1.00" stroke-linejoin="round"/>
<path d="M120.81,278.61 C120.53,278.93 120.26,279.24 119.98,279.55 C118.76,280.92 118.15,281.66 117.08,283.04 C111.47,290.21 102.14,298.59 100.66,300.26 C93.86,308.19 89.77,312.64 85.36,316.42 C84.60,317.07 83.85,317.72 83.09,318.37" fill="none" stroke="rgb(70, 75, 85)" stroke-width="2.41" stroke-opacity="1.00" stroke-linejoin="round"/>
<path d="M115.96,292.78 C115.15,294.99 112.68,301.68 111.03,306.15 C101.58,331.58 99.41,337.95 98.65,340.71" fill="none" stroke="rgb(70, 75, 85)" stroke-width="2.41" stroke-opacity="1.00" stroke-linejoin="round"/>
<path d="M67.35,215.58 C67.23,215.88 67.08,216.36 66.76,217.54 C60.50,240.60 56.93,250.84 56.59,251.45 C56.37,251.87 55.82,252.72 54.95,253.99" fill="none" stroke="rgb(70, 75, 85)" stroke-width="2.41" stroke-opacity="1.00" stroke-linejoin="round"/>
<path d="M105.28,146.77 C104.54,148.53 103.86,149.90 102.42,152.50 C100.01,156.82 98.01,159.45 95.40,161.92 C93.12,164.07 82.88,176.28 79.11,180.82 C75.36,185.36 69.24,192.79 67.00,195.14" fill="none" stroke="rgb(70, 75, 85)" stroke-width="2.41" stroke-opacity="1.00" stroke-linejoin="round"/>
<path d="M65.29,138.85 C64.95,139.84 64.08,141.88 63.49,142.93 C63.27,143.34 58.40,147.68 56.65,150.67 C55.85,152.06 52.81,158.21 51.43,160.43 C42.23,174.84 26.59,197.25 20.59,207.25 C18.25,211.19 17.45,212.71 15.44,216.97 C14.68,218.58 13.42,221.26 12.92,222.33" fill="none" stroke="rgb(70, 75, 85)" stroke-width="2.41" stroke-opacity="1.00" stroke-linejoin="round"/>
<path d="M61.10,135.78 C57.74,143.60 55.40,150.73 54.47,153.62 C54.32,154.06 53.99,155.00 53.48,156.42" fill="none" stroke="rgb(70, 75, 85)" stroke-width="2.41" stroke-opacity="1.00" stroke-linejoin="round"/>
<path d="M61.45,170.86 C61.13,171.74 60.91,172.35 60.77,172.69 C60.64,173.04 53.64,191.40 51.73,197.09 C49.90,201.87 42.94,211.20 40.95,215.16 C36.91,223.20 23.26,245.33 20.17,250.70 C19.15,252.35 15.67,257.51 14.49,259.24" fill="none" stroke="rgb(70, 75, 85)" stroke-width="2.41" stroke-opacity="1.00" stroke-linejoin="round"/>
<path d="M31.89,196.41 C31.89,196.41 31.20,196.72 31.20,196.72 C30.62,198.04 28.50,215.44 27.64,221.83 C27.15,225.72 23.63,249.29 22.96,252.72 C21.66,259.22 19.87,272.58 19.27,277.29" fill="none" stroke="rgb(70, 75, 85)" stroke-width="2.41" stroke-opacity="1.00" stroke-linejoin="round"/>
<path d="M42.57,140.72 C42.57,140.72 41.93,140.48 41.93,140.48 C39.04,146.78 32.88,160.12 31.37,163.13 C29.98,165.97 26.73,175.33 22.49,184.04 C21.35,186.43 17.98,194.17 16.62,197.39 C13.09,206.23 10.61,213.50 9.78,215.95" fill="none" stroke="rgb(70, 75, 85)" stroke-width="2.41" stroke-opacity="1.00" stroke-linejoin="round"/>
<path d="M25.23,168.12 C24.89,169.85 23.10,188.43 22.51,192.23 C20.96,201.69 20.64,204.26 20.43,206.24" fill="none" stroke="rgb(70, 75, 85)" stroke-width="2.41" stroke-opacity="1.00" stroke-linejoin="round"/>
<path d="M23.09,139.98 C23.09,139.98 22.42,139.73 22.42,139.73 C21.20,144.22 17.44,160.37 17.33,163.79 C17.31,164.24 17.32,165.25 17.33,166.81" fill="none" stroke="rgb(70, 75, 85)" stroke-width="2.41" stroke-opacity="1.00" stroke-linejoin="round"/>
<path d="M10.61,188.18 C9.21,190.03 4.12,201.34 1.92,206.68 C-0.51,212.81 -11.05,243.87 -15.37,257.68 C-16.51,261.42 -21.86,284.21 -22.85,287.81 C-23.04,288.47 -24.58,293.58 -24.88,294.63" fill="none" stroke="rgb(70, 75, 85)" stroke-width="2.41" stroke-opacity="1.00" stroke-linejoin="round"/>
<path d="M-1.41,218.69 C-1.41,218.69 -2.02,218.46 -2.02,218.46 C-2.22,221.10 -2.60,225.95 -3.18,229.31 C-7.57,252.65 -11.46,266.08 -14.87,287.27 C-16.25,295.13 -17.60,301.19 -20.67,310.79" fill="none" stroke="rgb(70, 75, 85)" stroke-width="2.41" stroke-opacity="1.00" stroke-linejoin="round"/>
<path d="M55.57,227.94 C55.28,230.49 47.03,249.47 45.29,253.75 C43.57,258.00 28.53,289.46 22.87,301.81 C21.66,304.35 16.34,314.13 15.83,315.05" fill="none" stroke="rgb(70, 75, 85)" stroke-width="2.41" stroke-opacity="1.00" stroke-linejoin="round"/>
<path d="M47.29,240.08 C45.83,243.78 45.23,247.62 44.63,254.20 C44.14,259.56 43.36,266.00 42.78,269.04 C41.64,274.88 39.00,282.98 38.24,285.18" fill="none" stroke="rgb(70, 75, 85)" stroke-width="2.41" stroke-opacity="1.00" stroke-linejoin="round"/>
<path d="M25.04,283.90 C25.78,288.53 25.51,302.14 24.81,308.11 C24.33,312.13 23.38,317.87 22.31,323.21 C21.65,326.29 20.75,330.40 20.53,331.43" fill="none" stroke="rgb(70, 75, 85)" stroke-width="2.41" stroke-opacity="1.00" stroke-linejoin="round"/>
<path d="M77.14,262.11 C76.74,263.67 75.62,267.93 75.09,269.62 C74.55,271.31 72.97,275.53 72.38,277.07" fill="none" stroke="rgb(70, 75, 85)" stroke-width="2.41" stroke-opacity="1.00" stroke-linejoin="round"/>
</g>
</svg>
