<?xml version="1.0" encoding="UTF-8" standalone="no"?>
<!DOCTYPE svg PUBLIC "-//W3C//DTD SVG 1.1//EN" "http://www.w3.org/Graphics/SVG/1.1/DTD/svg11.dtd">
<svg width="535.00" height="757.00" viewBox="0.00 0.00 535.00 757.00" xmlns="http://www.w3.org/2000/svg" xmlns:xlink="http://www.w3.org/1999/xlink">
<g stroke-linecap="round" transform="translate(44.00, 155.00)" id="128-사람">
<path d="M157.82,248.79 C157.80,249.16 156.25,253.77 156.03,256.31 C155.71,260.27 155.76,268.76 156.35,273.17 C156.99,277.47 161.73,283.97 162.15,284.57 C162.15,284.57 162.47,284.46 162.47,284.46 C162.47,284.46 162.63,284.11 162.63,284.11" fill="none" stroke="rgb(0, 255, 0)" stroke-width="2.41" stroke-opacity="1.00" stroke-linejoin="round"/>
<path d="M161.94,251.78 C161.94,251.78 161.48,251.32 161.48,251.32 C161.50,256.14 162.39,261.27 163.28,263.81 C163.94,265.67 166.09,271.82 166.21,272.05 C166.21,272.05 166.30,272.09 166.30,272.09 C166.30,272.09 166.30,271.96 166.30,271.96" fill="none" stroke="rgb(0, 255, 0)" stroke-width="2.41" stroke-opacity="1.00" stroke-linejoin="round"/>
<path d="M164.24,260.49 C164.16,260.19 164.01,260.00 164.01,259.94 C164.00,258.15 166.00,254.11 167.52,252.23 C168.28,251.31 173.91,248.50 176.13,248.28 C177.47,248.17 181.21,248.86 182.34,249.40 C185.15,250.78 188.75,254.61 189.31,256.15 C189.80,257.67 189.77,261.35 189.20,262.85 C187.75,266.52 185.41,269.63 183.21,271.46 C181.54,272.78 174.28,273.79 171.90,273.29 C170.61,273.00 167.50,271.56 166.73,271.18 C166.45,271.04 166.16,270.64 165.38,269.66" fill="none" stroke="rgb(0, 255, 0)" stroke-width="2.41" stroke-opacity="1.00" stroke-linejoin="round"/>
<path d="M170.20,261.18 C170.20,261.92 170.19,263.39 170.20,263.49 C170.21,263.60 170.26,263.67 170.34,263.68" fill="none" stroke="rgb(0, 255, 0)" stroke-width="2.41" stroke-opacity="1.00" stroke-linejoin="round"/>
<path d="M178.46,261.18 C178.46,261.85 178.46,262.51 178.46,263.18 C178.46,263.33 178.46,263.49 178.46,263.64" fill="none" stroke="rgb(0, 255, 0)" stroke-width="2.41" stroke-opacity="1.00" stroke-linejoin="round"/>
<path d="M171.12,266.68 C171.37,266.74 174.56,268.32 176.05,268.29 C180.67,268.13 182.42,266.54 182.81,266.01 C182.82,266.00 182.82,265.99 182.81,265.99" fill="none" stroke="rgb(0, 255, 0)" stroke-width="2.41" stroke-opacity="1.00" stroke-linejoin="round"/>
<path d="M187.17,261.18 C184.82,261.20 181.35,260.97 167.33,260.72 C166.32,260.70 164.17,260.53 163.74,260.49 C163.69,260.49 163.63,260.49 163.55,260.49" fill="none" stroke="rgb(0, 255, 0)" stroke-width="2.41" stroke-opacity="1.00" stroke-linejoin="round"/>
<path d="M169.74,254.53 C169.49,254.57 169.36,254.68 168.92,255.28 C167.62,257.09 166.65,258.93 166.65,259.63 C167.36,259.67 170.33,256.87 172.41,253.89 C173.99,251.58 174.23,250.72 174.15,250.56 C174.15,250.56 167.64,258.65 167.64,258.65 C168.97,258.68 169.96,258.25 170.95,257.06 C172.30,255.42 173.31,253.12 173.12,252.30 C172.14,251.97 170.75,252.34 169.26,253.52 C167.15,255.19 166.81,256.28 166.75,256.82 C168.69,257.24 172.11,252.86 172.31,252.29 C171.45,251.87 170.78,251.89 169.83,252.67 C167.18,254.88 166.74,255.87 166.51,256.64 C170.00,256.66 171.63,253.53 171.81,252.82 C170.45,252.52 169.52,252.68 168.43,253.55 C166.81,254.86 165.35,256.69 165.39,257.73 C166.35,258.20 168.96,257.18 170.49,255.84 C171.91,254.56 172.80,253.13 173.19,252.30 C173.19,252.30 170.42,256.68 170.42,256.68 C171.87,256.54 172.86,256.07 173.79,254.93 C175.18,253.23 176.25,250.61 175.89,249.83 C174.88,250.14 172.99,252.88 172.53,254.65 C172.11,256.40 172.55,257.57 172.99,258.19 C174.65,257.97 175.49,257.59 175.97,256.70 C177.40,253.97 176.90,252.27 176.67,251.89 C175.46,252.37 174.76,254.48 174.80,255.39 C174.85,256.14 175.36,257.21 175.87,257.51 C176.99,258.10 179.71,256.58 179.75,255.27 C179.74,253.85 177.23,252.34 175.91,252.54 C175.16,252.66 174.56,253.18 174.14,253.93 C174.13,255.58 175.88,257.61 177.44,258.25 C178.86,258.80 179.89,258.67 180.27,258.47 C179.69,257.12 171.45,257.31 171.10,257.75 C171.10,257.75 180.29,259.55 180.29,259.55 C180.29,259.55 170.27,258.27 170.27,258.27 C170.27,258.27 186.54,258.70 186.54,258.70 C186.54,258.70 178.66,253.41 178.66,253.41 C178.66,253.41 184.41,257.07 184.41,257.07 C184.41,257.07 178.20,251.63 178.20,251.63 C178.20,251.63 182.65,258.41 182.65,258.41 C182.65,258.41 180.06,251.56 180.06,251.56 C181.71,251.98 185.39,258.18 185.16,258.67 C182.47,257.60 181.90,252.94 181.92,252.41 C184.95,252.50 187.00,257.57 186.87,257.65 C186.87,257.65 185.16,253.65 185.16,253.65 C185.16,253.65 187.48,259.73 187.48,259.73 C187.48,259.73 169.04,260.24 169.04,260.24 C169.04,260.24 187.03,259.43 187.03,259.43 C185.42,256.65 178.83,252.61 177.56,252.62 C177.56,252.62 180.38,258.29 180.38,258.29 C180.38,255.46 177.28,253.22 177.02,253.09 C177.02,253.09 180.95,256.20 180.95,256.20 C180.95,256.20 175.00,251.08 175.00,251.08 C175.00,251.08 180.32,251.07 180.32,251.07" fill="none" stroke="rgb(0, 255, 0)" stroke-width="2.41" stroke-opacity="1.00" stroke-linejoin="round"/>
<path d="M182.13,251.32 C182.13,251.32 182.13,251.55 182.13,251.55 C182.23,251.69 184.34,253.20 185.62,255.12 C186.18,255.96 187.86,256.49 187.88,257.00 C187.89,257.26 187.81,257.92 187.94,258.11 C187.94,258.11 180.53,250.61 180.53,250.61 C180.53,250.61 182.13,251.09 182.13,251.09" fill="none" stroke="rgb(0, 255, 0)" stroke-width="2.41" stroke-opacity="1.00" stroke-linejoin="round"/>
<path d="M183.96,251.55 C184.49,251.81 185.39,252.46 186.14,253.21 C187.84,254.90 190.06,256.46 190.13,257.67 C190.14,257.84 190.08,258.09 189.96,258.42 C188.56,258.52 187.52,258.08 186.37,256.81 C185.62,255.99 185.09,254.65 185.17,254.17 C187.75,254.54 189.56,259.63 189.62,260.32 C189.62,260.32 187.45,258.37 187.45,258.37 C187.43,258.03 184.23,254.65 182.00,253.27 C179.76,251.93 176.87,251.97 175.61,252.05 C174.88,252.11 174.14,252.17 173.41,252.23" fill="none" stroke="rgb(0, 255, 0)" stroke-width="2.41" stroke-opacity="1.00" stroke-linejoin="round"/>
<path d="M173.41,252.23 C173.27,252.23 173.16,252.23 173.07,252.23 C172.56,252.26 172.23,252.28 172.07,252.32 C171.84,252.37 169.97,253.48 169.80,253.61 C169.44,253.87 168.73,254.48 167.68,255.44" fill="none" stroke="rgb(0, 255, 0)" stroke-width="2.41" stroke-opacity="1.00" stroke-linejoin="round"/>
<path d="M167.45,255.67 C167.33,255.79 167.22,255.90 167.10,256.02 C166.67,256.46 166.39,256.75 166.28,256.88 C165.59,257.71 165.05,258.62 164.49,259.79 C164.49,259.79 164.70,259.80 164.70,259.80" fill="none" stroke="rgb(0, 255, 0)" stroke-width="2.41" stroke-opacity="1.00" stroke-linejoin="round"/>
<path d="M166.07,259.34 C166.07,259.34 166.99,259.34 166.99,259.34 C167.13,258.69 167.88,257.73 169.41,256.34 C170.16,255.66 172.90,253.51 173.84,252.84 C175.16,251.94 177.01,251.41 178.10,251.67 C178.44,251.76 179.11,252.03 180.09,252.49" fill="none" stroke="rgb(0, 255, 0)" stroke-width="2.41" stroke-opacity="1.00" stroke-linejoin="round"/>
<path d="M178.46,275.17 C178.46,275.17 178.69,275.17 178.69,275.17 C178.69,276.23 178.69,278.40 178.69,279.52 C178.70,280.22 181.24,284.79 182.07,287.60 C182.17,287.93 184.23,295.79 184.94,298.50 C185.80,302.04 186.22,306.49 185.76,306.61 C185.41,306.68 182.50,307.25 181.89,306.84 C180.64,305.90 176.74,297.33 175.71,292.02 C175.71,292.02 175.33,291.73 175.33,291.73" fill="none" stroke="rgb(0, 255, 0)" stroke-width="2.41" stroke-opacity="1.00" stroke-linejoin="round"/>
<path d="M175.25,290.99 C175.25,290.99 175.44,290.99 175.44,290.99 C175.18,290.97 172.45,291.42 171.30,291.08 C169.66,290.56 168.78,288.25 168.70,287.09 C168.64,285.74 169.61,283.22 170.65,282.01 C172.29,280.15 173.86,279.68 174.93,280.45 C176.22,281.40 177.22,284.25 177.36,285.63 C177.68,289.69 175.31,290.94 174.57,291.20 C174.57,291.20 174.10,290.99 174.10,290.99" fill="none" stroke="rgb(0, 255, 0)" stroke-width="2.41" stroke-opacity="1.00" stroke-linejoin="round"/>
<path d="M172.72,282.74 C172.51,283.21 171.60,284.78 171.31,285.41 C170.59,286.96 171.31,288.09 171.70,288.41 C171.70,288.41 172.03,285.72 172.03,285.72" fill="none" stroke="rgb(0, 255, 0)" stroke-width="2.41" stroke-opacity="1.00" stroke-linejoin="round"/>
<path d="M171.35,286.86 C171.17,286.92 171.05,286.96 171.00,286.98 C170.93,287.01 170.75,287.12 170.66,287.14 C172.51,287.55 175.76,284.53 175.97,283.66 C175.97,283.66 173.37,283.08 173.37,283.08 C173.37,283.08 173.87,284.57 173.87,284.57" fill="none" stroke="rgb(0, 255, 0)" stroke-width="2.41" stroke-opacity="1.00" stroke-linejoin="round"/>
<path d="M174.10,282.97 C174.07,283.78 174.19,284.27 174.77,285.66 C175.07,286.41 175.46,287.40 175.58,287.60 C175.58,287.60 175.93,287.09 175.93,287.09" fill="none" stroke="rgb(0, 255, 0)" stroke-width="2.41" stroke-opacity="1.00" stroke-linejoin="round"/>
<path d="M175.70,285.95 C175.70,285.95 175.70,286.06 175.70,286.06 C175.70,286.06 175.47,286.25 175.47,286.25 C175.48,286.28 175.59,287.99 175.83,288.71 C175.89,288.88 175.98,289.07 176.10,289.27" fill="none" stroke="rgb(0, 255, 0)" stroke-width="2.41" stroke-opacity="1.00" stroke-linejoin="round"/>
<path d="M164.92,285.26 C165.15,290.20 165.38,304.40 165.77,305.38 C166.33,306.63 174.84,307.49 176.77,306.76 C177.48,305.82 177.77,301.27 177.74,299.87 C177.74,299.40 177.69,298.70 177.60,297.77" fill="none" stroke="rgb(0, 255, 0)" stroke-width="2.41" stroke-opacity="1.00" stroke-linejoin="round"/>
<path d="M166.30,307.50 C165.61,307.67 164.63,309.39 162.89,313.74 C162.19,315.50 162.34,318.47 162.22,319.97 C161.87,323.14 161.04,347.95 161.84,352.26 C161.84,352.26 165.74,352.06 165.74,352.06 C166.28,350.94 166.93,345.37 167.23,341.58 C167.47,338.33 167.24,329.79 167.31,328.22 C167.61,322.35 169.85,314.93 170.15,314.26 C171.17,315.22 172.35,320.73 172.25,324.69 C172.22,325.63 170.44,349.97 170.54,350.13 C170.54,350.13 176.69,349.16 176.69,349.16 C176.71,349.11 176.31,309.75 176.20,309.55 C176.16,309.47 175.99,309.24 175.70,308.88" fill="none" stroke="rgb(0, 255, 0)" stroke-width="2.41" stroke-opacity="1.00" stroke-linejoin="round"/>
<path d="M162.17,352.46 C161.99,352.40 161.88,352.36 161.83,352.34 C161.78,352.32 161.72,352.28 161.65,352.23 C159.98,352.13 158.74,354.57 158.60,355.22 C159.02,356.12 161.61,356.91 162.33,356.82 C163.15,356.66 164.93,354.90 165.83,352.58 C165.94,352.29 166.02,351.96 166.07,351.56" fill="none" stroke="rgb(0, 255, 0)" stroke-width="2.41" stroke-opacity="1.00" stroke-linejoin="round"/>
<path d="M172.26,352.46 C172.26,352.46 171.48,352.46 171.48,352.46 C171.48,352.46 171.35,352.01 171.35,352.01 C171.79,353.86 172.94,355.70 174.16,355.81 C175.69,355.89 177.75,354.74 178.05,353.46 C178.53,350.99 176.29,348.45 176.06,348.37 C175.93,348.33 175.66,348.32 175.25,348.33" fill="none" stroke="rgb(0, 255, 0)" stroke-width="2.41" stroke-opacity="1.00" stroke-linejoin="round"/>
</g>
</svg>
