<?xml version="1.0" encoding="UTF-8" standalone="no"?>
<!DOCTYPE svg PUBLIC "-//W3C//DTD SVG 1.1//EN" "http://www.w3.org/Graphics/SVG/1.1/DTD/svg11.dtd">
<svg width="535.00" height="757.00" viewBox="0.00 0.00 535.00 757.00" xmlns="http://www.w3.org/2000/svg" xmlns:xlink="http://www.w3.org/1999/xlink">
<g stroke-linecap="round" transform="translate(44.00, 155.00)" id="128-구름">
<path d="M429.09,104.11 C428.64,103.65 423.18,100.85 420.68,98.26 C419.89,97.43 415.38,92.16 412.16,89.74 C404.20,83.74 398.92,80.47 391.25,77.06 C386.92,75.15 375.01,71.80 366.58,70.09 C360.22,68.96 345.82,66.73 340.45,66.43 C333.11,66.15 318.28,65.33 310.78,64.80 C302.06,64.24 290.38,65.06 285.86,66.43 C285.63,66.50 278.33,68.62 274.86,68.98 C270.92,69.36 263.34,69.23 259.56,68.74 C258.55,68.61 210.99,59.99 204.00,59.60 C195.72,59.20 156.84,60.50 150.77,61.12 C116.92,64.65 96.13,72.79 86.57,75.68 C82.45,76.93 78.63,77.41 75.02,77.23 C72.34,77.07 67.30,76.37 62.47,75.56 C58.36,74.88 54.36,74.72 51.49,75.22 C46.66,76.11 35.97,80.30 27.16,85.07 C24.19,86.75 18.80,89.80 16.99,91.03 C15.26,92.24 10.91,96.74 9.04,99.50 C6.64,103.08 3.93,108.18 2.54,111.69 C1.13,115.37 0.69,121.81 1.86,124.47 C3.31,127.54 9.23,131.61 11.89,132.48 C15.65,133.63 24.55,133.94 30.01,133.42 C36.80,132.72 52.18,130.14 56.36,129.98 C62.59,129.79 94.43,125.83 103.36,125.36 C105.23,125.26 112.43,125.50 113.21,125.57 C113.61,125.61 125.91,129.40 148.09,133.45 C152.36,134.32 221.59,146.30 230.67,147.28 C237.73,147.89 254.92,149.33 256.49,149.36 C259.46,149.39 280.36,148.07 283.96,147.98 C298.29,147.95 333.24,148.20 339.80,148.27 C345.83,148.27 361.11,150.82 364.47,150.71 C366.65,150.62 374.06,149.54 376.21,149.03 C379.17,148.31 384.56,145.83 385.35,145.58 C389.20,144.39 427.41,142.22 430.61,141.14 C431.87,140.68 435.54,135.78 436.88,133.52 C438.25,131.16 439.99,126.87 440.39,125.08 C440.82,122.96 440.04,118.50 438.93,116.32 C436.68,112.07 430.23,106.99 427.24,104.93 C426.84,104.66 426.44,104.39 426.05,104.12" fill="none" stroke="rgb(255, 0, 255)" stroke-width="2.41" stroke-opacity="1.00" stroke-linejoin="round"/>
<path d="M402.70,90.19 C402.45,90.95 402.10,91.64 401.60,92.15 C400.27,93.50 387.17,103.00 382.32,107.61 C379.93,109.91 373.91,117.76 373.13,118.69 C371.67,120.42 367.16,124.10 363.36,126.13 C362.66,126.50 355.10,130.98 353.27,132.71 C352.96,133.00 341.20,144.98 340.73,145.52 C340.35,145.94 339.53,146.92 338.27,148.45" fill="none" stroke="rgb(255, 0, 255)" stroke-width="2.41" stroke-opacity="1.00" stroke-linejoin="round"/>
<path d="M406.80,92.46 C406.80,92.46 406.97,92.52 406.97,92.52 C407.08,93.61 396.24,104.45 383.29,115.35 C378.76,119.18 353.09,146.50 352.69,146.95 C351.20,148.62 349.89,150.46 349.22,151.73" fill="none" stroke="rgb(255, 0, 255)" stroke-width="2.41" stroke-opacity="1.00" stroke-linejoin="round"/>
<path d="M413.57,95.72 C413.57,95.72 412.57,95.35 412.57,95.35 C412.60,95.36 412.63,95.37 412.67,95.38 C412.70,95.40 412.78,95.43 412.90,95.48 C413.14,97.01 411.94,99.14 410.27,101.37 C406.84,105.88 384.15,130.31 375.24,140.43 C373.94,141.91 372.29,144.00 371.30,145.46 C370.99,145.91 369.36,148.61 368.43,150.09" fill="none" stroke="rgb(255, 0, 255)" stroke-width="2.41" stroke-opacity="1.00" stroke-linejoin="round"/>
<path d="M420.94,101.48 C420.94,101.48 421.28,101.60 421.28,101.60 C415.82,106.92 404.68,117.82 398.99,123.40 C391.75,130.71 380.46,147.49 378.68,149.42 C378.68,149.42 377.57,149.60 377.57,149.60" fill="none" stroke="rgb(255, 0, 255)" stroke-width="2.41" stroke-opacity="1.00" stroke-linejoin="round"/>
<path d="M427.96,111.29 C427.71,111.61 424.98,114.80 423.28,116.78 C413.64,127.96 404.07,137.65 398.96,144.71 C398.87,144.84 398.76,145.03 398.65,145.28" fill="none" stroke="rgb(255, 0, 255)" stroke-width="2.41" stroke-opacity="1.00" stroke-linejoin="round"/>
<path d="M432.48,114.47 C432.48,114.47 432.94,114.64 432.94,114.64 C432.86,115.23 424.59,124.09 419.66,130.56 C417.99,132.81 414.83,137.08 413.05,139.60 C411.46,141.90 410.70,145.87 410.12,146.30 C410.12,146.30 408.56,143.25 408.56,143.25" fill="none" stroke="rgb(255, 0, 255)" stroke-width="2.41" stroke-opacity="1.00" stroke-linejoin="round"/>
<path d="M437.09,118.45 C435.26,120.84 427.92,129.02 421.13,138.42 C419.37,140.87 418.76,141.67 418.67,141.71 C418.67,141.71 420.06,139.90 420.06,139.90" fill="none" stroke="rgb(255, 0, 255)" stroke-width="2.41" stroke-opacity="1.00" stroke-linejoin="round"/>
<path d="M435.97,128.68 C435.78,129.23 435.66,129.57 435.59,129.71 C435.39,130.14 428.34,138.18 426.13,140.91 C425.92,141.16 425.56,141.54 425.05,142.05" fill="none" stroke="rgb(255, 0, 255)" stroke-width="2.41" stroke-opacity="1.00" stroke-linejoin="round"/>
<path d="M393.62,84.94 C393.00,85.06 381.62,94.82 374.02,100.82 C366.53,107.04 360.55,113.52 357.74,115.86 C340.39,130.13 327.60,141.69 324.48,145.06 C324.48,145.06 323.16,145.15 323.16,145.15" fill="none" stroke="rgb(255, 0, 255)" stroke-width="2.41" stroke-opacity="1.00" stroke-linejoin="round"/>
<path d="M379.25,79.63 C378.84,79.54 378.26,79.96 376.35,81.78 C370.71,87.06 360.09,97.01 355.12,101.67 C352.31,104.36 341.88,115.71 334.05,122.86 C327.40,128.83 315.19,141.88 312.47,144.54 C311.33,145.63 309.42,147.09 307.70,148.25 C307.31,148.51 306.59,148.98 305.54,149.66" fill="none" stroke="rgb(255, 0, 255)" stroke-width="2.41" stroke-opacity="1.00" stroke-linejoin="round"/>
<path d="M360.09,75.98 C360.09,75.98 359.88,75.52 359.88,75.52 C358.29,78.29 349.95,87.06 344.35,92.10 C340.46,95.60 332.48,104.88 327.66,110.48 C317.75,120.71 297.76,142.32 292.19,147.52 C290.57,149.02 286.63,151.75 284.45,153.27" fill="none" stroke="rgb(255, 0, 255)" stroke-width="2.41" stroke-opacity="1.00" stroke-linejoin="round"/>
<path d="M350.55,78.15 C351.99,77.73 352.60,77.50 353.23,77.15 C353.32,77.10 353.43,77.04 353.57,76.99 C353.58,76.98 353.55,77.00 353.53,77.01 C350.18,78.74 337.80,88.45 332.06,93.03 C323.65,99.82 317.89,105.37 313.54,109.62 C310.35,112.61 298.62,122.11 291.62,128.43 C287.37,132.34 270.42,146.30 270.28,146.38 C270.04,146.52 269.45,146.73 268.53,147.02" fill="none" stroke="rgb(255, 0, 255)" stroke-width="2.41" stroke-opacity="1.00" stroke-linejoin="round"/>
<path d="M340.59,72.20 C338.96,72.18 336.43,73.46 333.74,75.58 C331.48,77.40 318.31,90.68 314.94,93.09 C306.55,99.17 287.84,115.23 274.82,127.47 C269.13,132.70 259.70,139.65 253.65,145.20 C251.89,146.82 250.51,148.14 250.32,148.26 C250.14,148.37 249.81,148.50 249.31,148.66" fill="none" stroke="rgb(255, 0, 255)" stroke-width="2.41" stroke-opacity="1.00" stroke-linejoin="round"/>
<path d="M227.74,146.39 C235.25,140.99 257.30,124.10 266.95,115.54 C270.23,112.64 281.42,105.22 283.62,103.48 C293.05,96.02 302.25,89.42 305.13,87.19 C307.65,85.25 316.21,78.63 325.98,72.64 C326.88,72.09 327.41,71.77 327.57,71.69 C327.72,71.61 327.87,71.57 328.00,71.56" fill="none" stroke="rgb(255, 0, 255)" stroke-width="2.41" stroke-opacity="1.00" stroke-linejoin="round"/>
<path d="M314.97,69.58 C314.63,69.77 314.10,69.79 313.93,69.89 C313.60,70.10 304.81,77.81 296.68,83.22 C292.53,86.03 283.08,94.30 274.02,100.93 C270.10,103.84 260.56,112.72 254.77,116.62 C247.54,121.52 236.90,129.33 235.78,130.04 C234.73,130.70 222.84,137.86 222.32,138.15 C221.96,138.36 221.25,138.75 220.19,139.32" fill="none" stroke="rgb(255, 0, 255)" stroke-width="2.41" stroke-opacity="1.00" stroke-linejoin="round"/>
<path d="M295.75,71.22 C295.75,71.22 296.26,70.69 296.26,70.69 C294.33,73.25 268.94,92.88 266.54,94.61 C264.69,95.95 254.18,103.13 245.49,110.29 C235.16,118.22 208.37,139.66 208.06,139.84 C207.68,140.05 206.82,140.38 205.48,140.84" fill="none" stroke="rgb(255, 0, 255)" stroke-width="2.41" stroke-opacity="1.00" stroke-linejoin="round"/>
<path d="M280.37,72.76 C275.66,77.59 267.24,84.22 258.15,90.93 C256.41,92.22 238.87,104.48 237.13,105.85 C233.38,109.06 227.70,113.78 218.64,119.23 C209.79,124.69 195.22,136.58 194.99,136.68 C194.73,136.78 194.21,136.82 193.41,136.81" fill="none" stroke="rgb(255, 0, 255)" stroke-width="2.41" stroke-opacity="1.00" stroke-linejoin="round"/>
<path d="M267.35,70.99 C267.35,70.99 267.68,71.11 267.68,71.11 C267.19,72.63 261.79,76.56 249.80,84.70 C244.40,88.41 236.26,95.19 227.86,100.39 C218.71,106.02 209.39,112.53 205.96,115.41 C203.67,117.34 188.89,130.66 188.56,131.14 C188.39,131.40 188.02,132.03 187.46,133.05" fill="none" stroke="rgb(255, 0, 255)" stroke-width="2.41" stroke-opacity="1.00" stroke-linejoin="round"/>
<path d="M252.88,72.11 C252.88,72.11 251.63,71.39 251.63,71.39 C251.63,71.39 251.66,71.28 251.66,71.28 C249.47,73.93 239.89,81.23 234.78,84.35 C229.15,87.73 217.58,98.04 215.17,99.73 C213.59,100.82 204.51,106.86 198.31,112.39 C193.70,116.52 183.38,124.05 181.70,125.51 C178.14,128.66 173.37,132.86 172.16,133.92" fill="none" stroke="rgb(255, 0, 255)" stroke-width="2.41" stroke-opacity="1.00" stroke-linejoin="round"/>
<path d="M248.44,69.71 C248.44,69.71 248.38,69.88 248.38,69.88 C247.68,70.23 245.80,71.16 244.63,71.73 C236.97,75.48 231.97,78.41 224.97,84.56 C219.46,89.47 210.95,95.92 204.95,100.44 C199.72,104.29 186.16,112.68 183.38,114.79 C177.46,119.44 163.30,130.44 162.97,130.62 C162.65,130.80 162.08,130.97 161.27,131.12" fill="none" stroke="rgb(255, 0, 255)" stroke-width="2.41" stroke-opacity="1.00" stroke-linejoin="round"/>
<path d="M243.89,67.65 C242.55,67.18 241.96,66.93 241.81,67.01 C235.34,70.82 224.95,78.85 222.89,80.15 C212.75,86.57 189.16,101.26 181.98,106.43 C171.28,113.84 160.10,122.76 159.17,123.40 C158.76,123.68 158.15,124.03 157.34,124.47" fill="none" stroke="rgb(255, 0, 255)" stroke-width="2.41" stroke-opacity="1.00" stroke-linejoin="round"/>
<path d="M230.20,65.63 C230.20,65.63 230.23,64.60 230.23,64.60 C228.89,64.60 224.11,67.15 221.91,68.83 C219.77,70.48 208.29,80.01 199.29,86.33 C193.94,90.00 189.11,93.69 187.84,94.60 C184.86,96.71 178.04,100.50 177.22,101.04 C177.08,101.13 165.30,111.00 158.74,115.59 C153.72,119.14 147.77,124.67 144.57,127.80 C142.41,129.88 139.58,132.09 138.54,132.84" fill="none" stroke="rgb(255, 0, 255)" stroke-width="2.41" stroke-opacity="1.00" stroke-linejoin="round"/>
<path d="M212.76,64.51 C212.76,64.51 212.77,64.14 212.77,64.14 C212.77,64.14 211.22,63.22 211.22,63.22 C209.24,64.37 197.39,73.85 192.00,77.19 C185.68,81.05 175.66,87.28 168.19,92.51 C160.52,97.99 132.04,122.78 129.33,125.33 C128.88,125.75 128.42,126.17 127.96,126.60" fill="none" stroke="rgb(255, 0, 255)" stroke-width="2.41" stroke-opacity="1.00" stroke-linejoin="round"/>
<path d="M201.11,62.11 C201.11,62.11 200.78,61.99 200.78,61.99 C200.78,61.99 200.87,61.65 200.87,61.65 C193.15,65.35 167.15,86.08 164.36,88.31 C153.05,97.63 131.65,115.57 130.05,117.11 C130.05,117.11 131.12,117.95 131.12,117.95" fill="none" stroke="rgb(255, 0, 255)" stroke-width="2.41" stroke-opacity="1.00" stroke-linejoin="round"/>
<path d="M169.90,68.45 C169.90,68.45 169.32,68.23 169.32,68.23 C166.17,71.89 159.70,78.99 153.16,83.70 C147.10,87.97 139.35,95.03 133.63,99.80 C126.83,105.46 122.50,110.07 115.52,118.26 C113.30,120.89 108.55,126.61 108.19,126.93 C107.90,127.20 107.31,127.63 106.44,128.21" fill="none" stroke="rgb(255, 0, 255)" stroke-width="2.41" stroke-opacity="1.00" stroke-linejoin="round"/>
<path d="M154.89,68.98 C154.89,68.98 155.06,69.05 155.06,69.05 C155.06,69.05 155.29,68.94 155.29,68.94 C155.29,68.94 155.33,68.81 155.33,68.81 C154.41,70.11 146.34,77.00 142.78,79.41 C138.21,82.25 128.49,88.54 124.05,92.93 C117.97,99.12 109.37,106.60 107.11,108.93 C104.03,112.14 98.40,119.32 97.20,120.84 C97.20,120.84 97.68,120.04 97.68,120.04" fill="none" stroke="rgb(255, 0, 255)" stroke-width="2.41" stroke-opacity="1.00" stroke-linejoin="round"/>
<path d="M132.26,64.43 C132.26,64.43 132.51,63.76 132.51,63.76 C132.53,63.72 124.49,76.91 119.92,81.82 C119.02,82.78 105.65,96.15 99.95,101.89 C87.23,114.84 80.59,123.55 79.69,124.71 C79.69,124.71 79.83,124.97 79.83,124.97" fill="none" stroke="rgb(255, 0, 255)" stroke-width="2.41" stroke-opacity="1.00" stroke-linejoin="round"/>
<path d="M114.17,73.32 C114.07,73.27 113.64,73.23 113.33,73.39 C113.07,73.54 101.58,85.31 96.66,90.25 C90.71,96.26 84.31,101.52 79.27,106.20 C72.41,112.70 63.04,123.36 61.41,125.06 C60.56,125.93 58.41,128.00 57.61,128.76" fill="none" stroke="rgb(255, 0, 255)" stroke-width="2.41" stroke-opacity="1.00" stroke-linejoin="round"/>
<path d="M97.36,73.58 C97.36,73.58 97.02,73.45 97.02,73.45 C95.52,75.55 81.97,87.60 80.50,89.28 C74.80,95.78 70.32,100.19 62.94,106.77 C56.27,112.87 46.10,125.17 44.72,126.71 C44.72,126.71 44.83,126.36 44.83,126.36" fill="none" stroke="rgb(255, 0, 255)" stroke-width="2.41" stroke-opacity="1.00" stroke-linejoin="round"/>
<path d="M78.91,79.30 C78.91,79.30 79.03,78.97 79.03,78.97 C74.92,84.18 69.33,90.01 60.83,98.34 C57.00,102.36 51.36,108.14 44.33,113.35 C42.48,114.74 29.57,128.47 28.93,129.10 C27.92,130.09 26.44,131.44 25.59,132.17" fill="none" stroke="rgb(255, 0, 255)" stroke-width="2.41" stroke-opacity="1.00" stroke-linejoin="round"/>
<path d="M66.73,79.36 C66.73,79.36 69.10,80.04 69.10,80.04 C68.30,79.20 57.14,87.71 52.39,91.44 C48.38,94.52 20.52,119.74 16.48,124.19 C13.47,127.58 10.37,130.67 9.49,131.54" fill="none" stroke="rgb(255, 0, 255)" stroke-width="2.41" stroke-opacity="1.00" stroke-linejoin="round"/>
<path d="M55.26,78.55 C55.26,78.55 56.63,77.15 56.63,77.15 C56.63,77.15 57.87,77.66 57.87,77.66 C57.75,77.76 45.09,86.71 41.32,89.83 C28.07,100.88 16.14,111.92 9.96,117.57 C9.03,118.44 8.10,119.31 7.17,120.18" fill="none" stroke="rgb(255, 0, 255)" stroke-width="2.41" stroke-opacity="1.00" stroke-linejoin="round"/>
<path d="M38.10,82.85 C38.15,82.87 38.21,82.89 38.27,82.91 C38.43,82.97 38.60,83.03 38.77,83.10 C31.11,88.57 15.60,103.42 9.28,107.94 C8.48,108.50 7.69,109.06 6.89,109.62" fill="none" stroke="rgb(255, 0, 255)" stroke-width="2.41" stroke-opacity="1.00" stroke-linejoin="round"/>
</g>
</svg>
