<?xml version="1.0" encoding="UTF-8" standalone="no"?>
<!DOCTYPE svg PUBLIC "-//W3C//DTD SVG 1.1//EN" "http://www.w3.org/Graphics/SVG/1.1/DTD/svg11.dtd">
<svg width="535.00" height="757.00" viewBox="0.00 0.00 535.00 757.00" xmlns="http://www.w3.org/2000/svg" xmlns:xlink="http://www.w3.org/1999/xlink">
<g stroke-linecap="round" transform="translate(44.00, 155.00)" id="128-우산">
<path d="M157.36,215.54 C156.99,220.53 156.72,233.12 156.56,236.33 C156.33,241.31 156.93,245.23 158.26,246.63 C159.22,247.53 161.19,247.96 161.91,247.71 C162.57,247.44 163.32,245.20 162.99,241.63 C162.94,241.10 161.32,238.47 161.26,235.91 C161.09,227.16 161.69,217.45 162.56,215.41 C162.56,215.41 203.91,213.70 203.91,213.70 C203.25,202.08 202.61,195.75 199.78,189.12 C198.40,185.96 192.73,177.76 192.11,177.04 C190.50,175.21 183.83,171.30 181.34,170.69 C179.75,170.32 170.41,169.58 167.29,170.03 C161.93,170.82 153.95,174.34 149.91,176.95 C146.70,179.05 136.83,189.34 135.29,191.46 C133.38,194.40 127.57,202.46 126.83,203.63 C124.04,208.02 122.80,214.82 123.26,215.43 C123.59,215.67 135.68,214.93 144.96,214.85 C147.83,214.85 157.40,215.31 157.68,215.48 C157.71,215.50 157.83,215.60 158.04,215.77" fill="none" stroke="rgb(255, 0, 0)" stroke-width="2.41" stroke-opacity="1.00" stroke-linejoin="round"/>
<path d="M166.76,173.11 C166.76,173.11 166.76,173.00 166.76,173.00 C166.76,173.00 166.30,172.42 166.30,172.42 C166.63,181.80 165.45,188.84 165.12,192.91 C164.43,203.30 164.39,211.14 164.92,214.30 C164.94,214.39 164.94,214.49 164.92,214.60" fill="none" stroke="rgb(255, 0, 0)" stroke-width="2.41" stroke-opacity="1.00" stroke-linejoin="round"/>
<path d="M166.99,174.95 C167.78,178.40 168.15,189.64 168.38,195.77 C168.39,203.41 169.60,214.69 169.40,215.45 C169.40,215.45 168.34,192.67 168.34,192.67 C168.34,192.67 166.82,215.90 166.82,215.90 C166.82,215.90 166.07,193.28 166.07,193.28 C166.07,193.28 166.51,213.83 166.51,213.83 C166.51,213.83 166.26,196.52 166.26,196.52 C166.26,196.52 167.91,182.06 167.91,182.06" fill="none" stroke="rgb(255, 0, 0)" stroke-width="2.41" stroke-opacity="1.00" stroke-linejoin="round"/>
<path d="M165.61,173.80 C164.47,173.83 163.93,174.04 162.15,175.84 C160.22,177.81 155.16,183.98 153.34,186.78 C151.28,189.97 147.36,194.30 146.60,195.42 C146.21,196.02 140.80,205.72 138.76,209.08 C137.69,210.89 137.45,213.74 137.40,214.39" fill="none" stroke="rgb(255, 0, 0)" stroke-width="2.41" stroke-opacity="1.00" stroke-linejoin="round"/>
<path d="M140.39,214.16 C140.39,214.16 139.49,214.39 139.49,214.39 C140.83,212.82 146.44,198.80 148.69,195.31 C155.49,184.80 163.98,173.42 164.24,172.88 C160.87,176.24 152.56,186.85 148.95,192.31 C145.80,197.10 137.62,213.55 137.63,213.54 C137.63,213.54 144.19,202.74 144.19,202.74 C144.19,202.74 138.33,213.87 138.33,213.87 C138.33,213.87 141.11,209.52 141.11,209.52" fill="none" stroke="rgb(255, 0, 0)" stroke-width="2.41" stroke-opacity="1.00" stroke-linejoin="round"/>
<path d="M167.22,171.51 C167.22,171.51 166.53,171.51 166.53,171.51 C169.36,172.14 179.48,177.43 182.61,181.01 C183.78,182.39 186.29,185.24 187.63,186.70 C188.83,188.07 191.44,191.63 191.99,192.38" fill="none" stroke="rgb(255, 0, 0)" stroke-width="2.41" stroke-opacity="1.00" stroke-linejoin="round"/>
<path d="M192.22,192.61 C192.71,193.38 193.36,194.65 193.73,195.70 C194.81,199.15 198.93,206.57 199.43,207.87 C199.85,208.98 200.28,210.08 200.70,211.18" fill="none" stroke="rgb(255, 0, 0)" stroke-width="2.41" stroke-opacity="1.00" stroke-linejoin="round"/>
<path d="M201.16,212.79 C201.29,212.97 201.37,213.09 201.39,213.13 C201.41,213.18 201.41,213.21 201.39,213.25" fill="none" stroke="rgb(255, 0, 0)" stroke-width="2.41" stroke-opacity="1.00" stroke-linejoin="round"/>
<path d="M203.45,212.79 C203.45,212.79 203.00,212.79 203.00,212.79 C202.43,209.39 201.15,205.63 200.42,204.04 C199.15,201.34 191.06,188.23 187.73,184.87 C187.38,184.51 181.10,178.87 179.92,177.96 C178.67,177.00 170.55,172.94 169.69,172.30 C170.55,172.25 175.84,173.90 178.45,175.03 C181.42,176.33 184.31,178.43 187.74,181.30 C190.43,183.60 193.02,186.58 195.00,189.71 C199.46,196.79 200.81,199.77 201.53,201.73 C201.79,202.43 202.05,203.14 202.31,203.84" fill="none" stroke="rgb(255, 0, 0)" stroke-width="2.41" stroke-opacity="1.00" stroke-linejoin="round"/>
<path d="M202.31,204.30 C202.78,205.88 202.91,206.45 203.00,207.30 C203.03,207.63 203.14,207.88 203.22,207.93 C203.23,207.71 193.39,191.48 193.01,190.88 C190.99,187.73 187.41,184.83 185.67,183.43 C185.48,183.27 185.29,183.12 185.11,182.97" fill="none" stroke="rgb(255, 0, 0)" stroke-width="2.41" stroke-opacity="1.00" stroke-linejoin="round"/>
<path d="M185.79,182.74 C185.52,181.72 184.28,180.20 183.17,179.15 C182.31,178.37 181.36,178.15 180.90,178.12 C183.20,178.01 186.71,181.71 187.92,183.01" fill="none" stroke="rgb(255, 0, 0)" stroke-width="2.41" stroke-opacity="1.00" stroke-linejoin="round"/>
<path d="M188.09,184.58 C188.09,184.58 187.46,184.84 187.46,184.84 C187.54,185.06 190.48,187.08 191.45,188.33 C192.96,190.31 198.02,201.37 199.21,203.23 C196.56,201.37 192.68,195.13 189.33,187.48 C189.07,186.87 188.81,186.26 188.55,185.65 C188.55,185.65 187.93,183.94 187.93,183.94 C190.62,184.10 201.52,205.25 201.37,205.81 C200.07,204.90 193.31,188.66 193.28,188.60 C193.17,188.35 192.97,187.93 192.66,187.31 C192.57,188.43 201.39,203.85 202.40,206.79 C202.50,207.11 202.61,207.53 202.72,208.04 C202.72,208.04 195.64,196.90 195.64,196.90 C197.40,198.90 200.55,204.43 201.43,206.41 C201.82,207.32 202.16,208.65 202.53,210.37" fill="none" stroke="rgb(255, 0, 0)" stroke-width="2.41" stroke-opacity="1.00" stroke-linejoin="round"/>
<path d="M127.54,203.61 C127.54,203.61 127.66,203.61 127.66,203.61 C128.15,204.13 128.87,204.62 132.40,205.95 C133.39,206.34 140.74,209.58 143.22,209.72 C147.24,209.91 152.50,209.11 156.83,207.53 C160.41,206.30 161.85,205.68 162.93,205.71 C168.03,205.97 177.88,205.44 181.60,204.70 C183.92,204.23 188.66,202.80 191.98,201.56" fill="none" stroke="rgb(255, 0, 0)" stroke-width="2.41" stroke-opacity="1.00" stroke-linejoin="round"/>
<path d="M201.39,196.05 C201.39,196.05 201.25,196.00 201.25,196.00 C201.25,196.00 200.66,194.92 200.66,194.92 C200.21,194.97 196.62,198.48 196.16,198.81 C195.46,199.31 192.28,201.18 190.63,202.22 C190.07,202.55 187.86,203.71 187.17,204.07" fill="none" stroke="rgb(255, 0, 0)" stroke-width="2.41" stroke-opacity="1.00" stroke-linejoin="round"/>
<path d="M193.82,181.83 C193.67,182.12 188.31,184.54 184.95,186.03 C181.37,187.63 177.39,188.69 174.54,189.53 C171.46,190.42 163.02,191.71 152.12,193.40 C147.39,194.11 135.86,193.47 135.47,193.37 C135.32,193.33 135.13,193.23 134.88,193.06" fill="none" stroke="rgb(255, 0, 0)" stroke-width="2.41" stroke-opacity="1.00" stroke-linejoin="round"/>
<path d="M184.88,174.26 C184.88,174.26 184.42,174.26 184.42,174.26 C184.17,174.68 183.74,175.21 183.15,175.80 C181.81,177.11 177.70,179.86 176.09,180.47 C172.75,181.70 167.37,182.96 164.48,183.29 C162.91,183.45 148.62,184.77 143.89,184.81 C143.52,184.81 143.11,184.81 142.68,184.81" fill="none" stroke="rgb(255, 0, 0)" stroke-width="2.41" stroke-opacity="1.00" stroke-linejoin="round"/>
<path d="M161.94,173.57 C161.98,173.55 158.27,174.75 156.63,175.59 C154.65,176.65 151.78,180.89 150.94,181.67 C149.02,183.32 139.30,193.10 134.60,202.78 C130.91,210.46 128.99,214.79 128.99,214.87 C129.05,215.17 129.10,215.47 129.15,215.77" fill="none" stroke="rgb(255, 0, 0)" stroke-width="2.41" stroke-opacity="1.00" stroke-linejoin="round"/>
<path d="M166.07,173.57 C166.07,173.57 164.70,173.34 164.70,173.34 C162.47,175.00 156.81,205.13 156.61,207.04 C156.57,207.48 156.31,213.04 156.18,215.03 C156.17,215.35 156.17,215.97 156.20,216.86" fill="none" stroke="rgb(255, 0, 0)" stroke-width="2.41" stroke-opacity="1.00" stroke-linejoin="round"/>
<path d="M168.82,173.11 C168.82,173.11 168.36,173.11 168.36,173.11 C168.84,173.35 169.56,173.78 170.03,174.18 C171.33,175.29 174.55,181.34 175.12,182.51 C177.30,187.02 178.66,192.99 179.04,194.26 C179.08,194.40 180.92,200.44 181.24,203.21 C181.62,206.97 182.24,213.06 182.36,213.71 C182.42,214.04 182.55,214.42 182.72,214.86" fill="none" stroke="rgb(255, 0, 0)" stroke-width="2.41" stroke-opacity="1.00" stroke-linejoin="round"/>
</g>
</svg>
