<?xml version="1.0" encoding="UTF-8" standalone="no"?>
<!DOCTYPE svg PUBLIC "-//W3C//DTD SVG 1.1//EN" "http://www.w3.org/Graphics/SVG/1.1/DTD/svg11.dtd">
<svg width="128.40" height="181.68" viewBox="0.00 0.00 535.00 757.00" xmlns="http://www.w3.org/2000/svg" xmlns:xlink="http://www.w3.org/1999/xlink">
<g stroke-linecap="round" transform="translate(44.00, 155.00)" id="129-번개">
<path d="M234.73,143.02 C234.73,143.02 234.73,141.07 234.73,141.07 C235.09,146.06 224.34,177.29 218.92,192.21 C214.70,203.69 210.18,223.14 205.98,239.01 C205.98,239.01 245.22,219.34 245.22,219.34 C239.53,230.10 221.02,259.32 216.96,264.74 C214.41,268.13 205.26,284.53 203.95,287.06 C201.16,292.49 194.29,310.34 192.82,313.47 C191.71,315.84 188.88,320.93 188.88,322.65 C203.23,300.91 228.60,263.17 232.01,259.01 C235.44,254.76 244.45,240.07 245.87,237.98 C252.93,228.29 271.52,202.75 275.00,196.51 C274.75,196.64 270.58,197.17 267.71,198.10 C264.41,199.18 242.21,207.36 242.27,207.36 C242.82,205.47 242.83,192.24 242.67,185.05 C242.41,176.70 240.75,164.58 239.67,156.55 C238.88,150.62 236.51,141.24 236.10,137.78 C236.09,137.69 236.09,137.61 236.10,137.54" fill="none" stroke="rgb(255, 0, 0)" stroke-width="2.37" stroke-opacity="1.00" stroke-linejoin="round"/>
<path d="M191.60,278.89 C191.60,278.89 191.60,278.55 191.60,278.55 C191.17,278.16 189.34,274.47 187.94,271.64 C185.18,266.12 183.86,263.15 183.05,260.08 C183.04,260.08 183.46,260.07 183.66,260.10 C190.99,261.14 195.23,262.47 195.72,262.72 C195.72,262.72 195.37,221.07 195.37,221.07 C195.37,221.07 200.52,223.07 200.52,223.07 C200.61,222.99 203.69,207.09 205.42,199.63 C206.34,195.78 208.45,188.24 208.71,186.82 C208.71,186.82 211.69,187.41 211.69,187.41 C212.01,186.71 214.69,175.78 218.44,165.89 C226.65,145.18 231.14,135.91 233.90,132.20 C233.90,132.20 239.01,134.41 239.01,134.41 C239.01,134.41 245.66,126.57 245.66,126.57 C245.40,127.46 245.51,131.46 246.21,134.00 C246.52,135.10 249.59,144.68 250.13,147.80 C251.06,154.59 252.62,164.81 252.82,165.22 C252.82,165.22 266.00,147.27 266.00,147.27 C266.00,147.27 256.99,186.97 256.99,186.97 C256.98,186.98 267.54,179.99 272.76,176.68 C275.53,174.98 281.75,171.68 283.20,170.84 C282.85,171.43 279.56,176.31 277.87,179.51 C275.22,184.57 273.46,189.07 273.49,189.03 C273.49,189.03 288.84,188.88 288.84,188.88 C284.97,195.22 278.56,203.17 274.90,207.58 C273.38,209.52 263.67,226.79 263.52,227.47 C263.52,227.47 272.52,225.19 272.52,225.19 C269.98,228.58 258.00,240.88 255.80,243.34 C254.30,245.03 244.81,256.62 242.47,259.83 C242.47,259.83 256.02,253.12 256.02,253.12 C255.96,253.17 242.28,265.96 240.77,267.29 C235.44,272.17 229.24,277.79 228.38,278.53 C228.38,278.53 241.87,276.19 241.87,276.19 C241.87,276.19 218.83,298.87 218.83,298.87 C218.83,298.87 218.97,298.44 218.97,298.44" fill="none" stroke="rgb(255, 0, 0)" stroke-width="2.37" stroke-opacity="1.00" stroke-linejoin="round"/>
<path d="M183.05,281.63 C183.12,273.70 179.59,257.06 176.61,239.22 C176.61,239.22 185.84,245.38 185.84,245.38 C186.52,237.40 187.54,229.32 188.42,224.64 C189.63,218.72 191.63,209.73 191.94,203.29 C191.94,203.29 195.86,205.79 195.86,205.79 C196.27,204.32 198.77,193.09 202.22,181.10 C204.40,173.87 206.17,169.00 206.66,167.95 C206.66,167.95 210.08,172.72 210.08,172.72 C210.08,172.72 216.97,148.17 216.97,148.17 C218.20,147.63 219.84,145.68 221.64,141.61 C222.77,139.02 226.23,126.88 227.93,119.44 C227.93,119.44 240.00,129.65 240.00,129.65 C240.00,129.65 249.10,110.84 249.10,110.84 C251.75,113.05 257.77,121.74 260.94,128.63 C262.30,131.59 265.90,138.06 266.09,138.22 C266.09,138.22 272.67,125.64 272.67,125.64 C272.67,125.64 277.16,155.00 277.16,155.00 C277.16,155.00 283.25,165.35 283.25,165.35 C286.01,160.67 299.70,146.64 300.07,146.16 C299.91,149.22 297.42,161.62 296.03,166.49 C294.65,171.28 287.01,191.01 286.52,192.49 C286.50,192.51 301.90,182.85 305.44,180.99 C306.82,180.27 312.83,177.47 314.36,176.66 C314.41,176.83 313.51,182.42 312.76,184.88 C312.40,186.07 310.37,190.24 308.77,192.19 C304.20,197.50 295.41,208.11 291.19,213.42 C286.91,219.02 276.39,232.98 274.93,236.46 C274.79,236.80 274.77,237.01 274.86,237.08 C274.86,237.08 296.91,228.74 296.91,228.74 C287.46,236.73 265.45,252.69 256.73,261.25 C255.16,262.79 253.37,264.79 252.54,265.86 C252.54,265.86 265.41,270.36 265.41,270.36 C244.87,287.83 222.64,306.70 222.23,307.06 C221.87,307.36 221.13,308.02 220.01,309.01" fill="none" stroke="rgb(255, 0, 0)" stroke-width="2.37" stroke-opacity="1.00" stroke-linejoin="round"/>
<path d="M175.17,315.17 C175.11,315.29 174.98,315.27 174.78,315.12 C173.03,313.74 170.60,310.44 169.09,307.72 C164.57,299.33 160.72,293.27 157.80,291.06 C157.54,290.86 156.96,290.46 156.05,289.85 C170.51,294.84 181.83,300.21 184.11,301.91 C184.11,301.76 171.20,286.93 167.25,281.76 C164.65,278.35 154.78,264.13 152.18,258.30 C151.22,256.12 150.40,253.90 149.50,251.19 C149.50,251.19 157.65,254.36 157.65,254.36 C157.73,254.16 156.47,248.95 156.17,245.90 C155.82,242.05 156.38,232.78 157.19,228.67 C158.44,222.50 166.40,200.00 167.62,196.49 C170.98,213.72 173.40,218.39 173.78,218.77 C174.13,216.12 177.26,199.12 178.70,191.37 C179.18,188.70 181.00,174.36 181.92,171.07 C184.38,162.47 185.92,158.78 186.40,157.93 C186.40,157.93 192.85,180.17 192.85,180.17 C195.38,172.07 199.10,161.83 202.34,154.61 C204.19,150.51 213.74,131.42 215.23,128.97 C217.00,126.11 224.33,116.28 227.83,110.08 C231.53,103.40 233.78,100.68 234.62,99.74 C234.62,99.74 235.67,110.77 235.67,110.77 C246.24,99.44 257.07,90.01 263.47,86.08 C259.33,100.55 258.10,111.40 258.00,112.76 C267.34,104.87 293.95,82.78 294.79,82.25 C296.84,80.97 299.43,79.75 302.46,78.52 C302.46,78.52 302.78,78.67 302.78,78.67 C302.47,79.36 296.11,92.80 293.44,98.01 C289.46,106.16 288.42,109.38 286.08,120.44 C285.36,124.12 284.34,129.27 284.03,130.75 C285.11,129.18 309.55,109.30 315.50,104.50 C319.68,101.09 324.93,96.10 325.62,95.46" fill="none" stroke="rgb(255, 0, 0)" stroke-width="2.37" stroke-opacity="1.00" stroke-linejoin="round"/>
<path d="M325.08,96.81 C324.70,97.47 320.63,108.24 316.92,119.27 C315.11,124.67 312.25,138.20 311.57,140.75 C310.62,144.23 306.84,154.75 306.60,155.52 C312.07,151.37 324.15,142.32 330.76,137.43 C343.51,128.45 366.23,115.04 367.55,114.32 C367.56,114.31 346.09,147.57 341.36,155.82 C339.66,158.71 331.85,170.92 328.42,177.55 C328.07,178.24 327.19,179.95 326.90,180.42 C326.90,180.42 347.04,172.73 347.04,172.73 C347.20,172.92 318.78,209.09 315.37,212.85 C309.71,218.88 301.81,226.81 301.81,227.90 C301.81,227.90 330.05,223.12 330.05,223.12 C323.63,226.95 316.20,232.37 308.90,238.93 C301.36,245.77 278.15,263.45 277.09,264.41 C277.09,264.41 306.23,263.85 306.23,263.85 C306.13,263.95 298.08,268.92 288.64,275.94 C286.58,277.43 251.74,297.99 250.00,299.28 C250.00,299.28 273.81,302.80 273.81,302.80 C266.81,303.53 257.03,305.53 248.48,307.60 C231.97,311.98 217.44,316.63 215.82,316.89 C215.82,316.89 236.37,326.08 236.37,326.08 C219.99,325.08 205.33,326.05 201.87,326.29 C199.01,326.50 196.88,325.83 195.71,325.44" fill="none" stroke="rgb(255, 0, 0)" stroke-width="2.37" stroke-opacity="1.00" stroke-linejoin="round"/>
</g>
</svg>
