<?xml version="1.0" encoding="UTF-8" standalone="no"?>
<!DOCTYPE svg PUBLIC "-//W3C//DTD SVG 1.1//EN" "http://www.w3.org/Graphics/SVG/1.1/DTD/svg11.dtd">
<svg width="128.40" height="181.68" viewBox="0.00 0.00 535.00 757.00" xmlns="http://www.w3.org/2000/svg" xmlns:xlink="http://www.w3.org/1999/xlink">
<g stroke-linecap="round" transform="translate(44.00, 155.00)" id="129-사람-2">
<path d="M194.68,332.28 C194.68,332.28 193.66,332.28 193.66,332.28 C194.40,332.03 189.09,328.87 186.36,327.95 C184.52,327.36 180.31,326.73 178.02,326.88 C175.14,327.10 170.51,328.17 168.41,329.44 C166.88,330.40 161.30,335.76 160.02,337.77 C158.47,340.24 156.90,345.87 156.62,349.08 C156.40,352.14 157.72,356.43 159.46,358.79 C161.18,361.06 164.54,363.99 167.60,365.81 C169.16,366.72 173.34,367.88 176.38,368.22 C179.12,368.50 185.35,368.57 187.24,368.21 C189.78,367.68 193.67,365.99 195.75,364.26 C197.57,362.71 199.96,359.01 200.74,356.51 C201.57,353.74 201.69,349.73 201.19,347.26 C200.66,344.82 195.81,334.71 195.26,333.86 C195.03,333.50 194.49,332.75 193.66,331.60" fill="none" stroke="rgb(0, 160, 232)" stroke-width="2.37" stroke-opacity="1.00" stroke-linejoin="round"/>
<path d="M200.16,357.95 C200.26,357.11 196.93,351.08 194.86,348.88 C192.84,346.80 188.93,344.32 185.68,343.13 C183.34,342.31 179.81,341.54 177.64,341.38 C174.98,341.20 171.33,341.71 169.22,342.56 C162.71,345.28 157.47,348.33 156.79,349.14 C156.57,349.40 156.42,349.83 156.35,350.41" fill="none" stroke="rgb(0, 160, 232)" stroke-width="2.37" stroke-opacity="1.00" stroke-linejoin="round"/>
<path d="M180.65,329.20 C180.65,329.20 178.94,329.20 178.94,329.20 C178.94,329.20 180.58,337.00 180.58,337.00 C180.58,337.00 180.89,336.58 180.89,336.58" fill="none" stroke="rgb(0, 160, 232)" stroke-width="2.37" stroke-opacity="1.00" stroke-linejoin="round"/>
<path d="M185.78,336.05 C185.51,336.52 185.34,336.80 185.27,336.90 C185.20,337.01 185.15,337.06 185.10,337.08 C185.43,336.00 186.89,332.42 187.05,332.07 C187.15,331.85 187.29,331.59 187.47,331.29" fill="none" stroke="rgb(0, 160, 232)" stroke-width="2.37" stroke-opacity="1.00" stroke-linejoin="round"/>
<path d="M166.27,348.03 C166.27,348.03 165.25,348.37 165.25,348.37 C165.25,348.37 166.11,348.99 166.11,348.99 C166.11,348.99 168.08,348.29 168.08,348.29 C168.08,348.29 166.99,347.77 166.99,347.77 C166.99,347.77 166.90,348.76 166.90,348.76" fill="none" stroke="rgb(0, 160, 232)" stroke-width="2.37" stroke-opacity="1.00" stroke-linejoin="round"/>
<path d="M185.78,352.14 C185.78,352.14 185.44,352.31 185.44,352.31 C185.43,352.54 185.43,352.70 185.44,352.79 C185.45,352.87 185.47,352.99 185.51,353.16 C185.51,353.16 186.51,352.14 186.51,352.14 C186.51,352.14 187.85,351.95 187.85,351.95 C187.85,351.95 187.31,351.28 187.31,351.28" fill="none" stroke="rgb(0, 160, 232)" stroke-width="2.37" stroke-opacity="1.00" stroke-linejoin="round"/>
<path d="M187.49,346.32 C187.44,346.32 187.38,346.32 187.32,346.32 C187.15,346.32 186.98,346.32 186.81,346.32 C186.81,346.32 193.22,347.23 193.22,347.23 C193.22,347.23 192.97,347.34 192.97,347.34" fill="none" stroke="rgb(0, 160, 232)" stroke-width="2.37" stroke-opacity="1.00" stroke-linejoin="round"/>
<path d="M167.99,343.24 C167.99,343.24 167.30,343.24 167.30,343.24 C167.30,343.24 170.60,346.53 170.60,346.53 C170.60,346.53 170.38,346.66 170.38,346.66" fill="none" stroke="rgb(0, 160, 232)" stroke-width="2.37" stroke-opacity="1.00" stroke-linejoin="round"/>
<path d="M180.65,356.24 C180.65,356.24 180.31,356.24 180.31,356.24 C180.31,356.24 167.64,357.27 167.64,357.27 C168.13,359.21 175.24,364.70 177.56,366.17 C177.56,366.17 181.98,355.10 181.98,355.10 C181.98,355.10 181.76,355.15 181.76,355.15" fill="none" stroke="rgb(0, 160, 232)" stroke-width="2.37" stroke-opacity="1.00" stroke-linejoin="round"/>
<path d="M165.93,365.83 C165.08,366.86 159.99,372.10 157.45,375.76 C155.63,378.39 154.37,380.90 153.32,383.38 C153.32,383.38 161.07,388.70 161.07,388.70 C161.07,388.70 170.35,378.20 170.35,378.20 C170.35,378.20 170.38,378.44 170.38,378.44" fill="none" stroke="rgb(0, 160, 232)" stroke-width="2.37" stroke-opacity="1.00" stroke-linejoin="round"/>
<path d="M153.95,383.97 C153.95,383.97 153.78,383.97 153.78,383.97 C153.56,384.22 151.84,385.27 151.18,387.15 C150.78,388.38 151.44,390.39 152.63,390.56 C155.40,390.90 158.07,389.71 158.41,389.48 C158.41,389.48 158.75,388.65 158.75,388.65" fill="none" stroke="rgb(0, 160, 232)" stroke-width="2.37" stroke-opacity="1.00" stroke-linejoin="round"/>
<path d="M157.03,380.88 C157.01,380.98 157.01,381.09 157.03,381.23 C157.06,381.36 157.13,381.70 157.26,382.26 C158.86,382.79 161.23,382.19 161.60,381.86 C161.66,381.80 161.98,381.49 162.55,380.92" fill="none" stroke="rgb(0, 160, 232)" stroke-width="2.37" stroke-opacity="1.00" stroke-linejoin="round"/>
<path d="M161.14,374.04 C161.14,374.04 160.11,374.04 160.11,374.04 C160.10,375.29 161.30,377.34 162.43,377.66 C163.10,377.84 163.81,377.70 164.49,377.35" fill="none" stroke="rgb(0, 160, 232)" stroke-width="2.37" stroke-opacity="1.00" stroke-linejoin="round"/>
<path d="M165.25,370.62 C165.19,370.62 165.13,370.62 165.08,370.62 C165.02,370.62 164.96,370.62 164.91,370.62 C164.91,370.62 164.58,370.96 164.58,370.96 C164.58,370.96 164.66,371.53 164.66,371.53 C165.09,371.89 166.31,372.12 167.14,371.87 C167.38,371.80 167.67,371.60 168.03,371.27" fill="none" stroke="rgb(0, 160, 232)" stroke-width="2.37" stroke-opacity="1.00" stroke-linejoin="round"/>
<path d="M175.17,369.25 C175.17,369.25 174.15,369.74 174.15,369.74 C174.30,370.60 174.70,371.67 175.22,372.27 C175.88,372.96 177.80,373.30 179.22,372.84 C180.54,372.40 183.33,370.72 184.48,369.83 C184.67,369.68 184.85,369.51 185.03,369.33" fill="none" stroke="rgb(0, 160, 232)" stroke-width="2.37" stroke-opacity="1.00" stroke-linejoin="round"/>
<path d="M185.78,376.09 C185.78,376.09 185.10,376.09 185.10,376.09 C185.69,377.04 186.09,377.64 186.30,377.90 C186.52,378.15 186.84,378.41 187.28,378.68" fill="none" stroke="rgb(0, 160, 232)" stroke-width="2.37" stroke-opacity="1.00" stroke-linejoin="round"/>
<path d="M187.15,376.78 C187.15,376.78 186.64,376.95 186.64,376.95 C187.98,377.34 188.86,377.10 189.72,376.05 C189.96,375.76 190.08,375.61 190.09,375.59" fill="none" stroke="rgb(0, 160, 232)" stroke-width="2.37" stroke-opacity="1.00" stroke-linejoin="round"/>
<path d="M185.44,380.88 C185.44,380.88 185.10,380.88 185.10,380.88 C186.93,381.71 189.69,380.87 190.68,380.23 C190.82,380.13 191.07,379.95 191.42,379.68" fill="none" stroke="rgb(0, 160, 232)" stroke-width="2.37" stroke-opacity="1.00" stroke-linejoin="round"/>
<path d="M187.49,385.33 C187.44,385.33 187.38,385.33 187.32,385.33 C187.27,385.33 187.21,385.33 187.15,385.33 C187.85,385.35 188.32,385.35 188.57,385.33 C188.82,385.32 189.21,385.25 189.72,385.15" fill="none" stroke="rgb(0, 160, 232)" stroke-width="2.37" stroke-opacity="1.00" stroke-linejoin="round"/>
<path d="M192.63,382.94 C192.63,382.94 191.60,382.94 191.60,382.94 C191.60,382.94 201.49,393.44 201.49,393.44 C201.49,393.44 210.55,386.80 210.55,386.80 C210.32,386.19 199.14,368.02 198.16,367.46 C197.26,366.98 195.70,366.51 194.36,366.33 C193.83,366.26 192.68,366.09 190.92,365.83" fill="none" stroke="rgb(0, 160, 232)" stroke-width="2.37" stroke-opacity="1.00" stroke-linejoin="round"/>
<path d="M191.94,375.07 C191.94,375.07 191.26,375.07 191.26,375.07 C191.26,375.07 196.51,377.05 196.51,377.05 C197.11,376.58 197.39,376.12 197.41,375.40 C197.42,375.30 197.42,375.05 197.42,374.63" fill="none" stroke="rgb(0, 160, 232)" stroke-width="2.37" stroke-opacity="1.00" stroke-linejoin="round"/>
<path d="M195.71,381.57 C195.71,381.57 195.02,381.57 195.02,381.57 C195.02,381.57 199.17,382.54 199.17,382.54 C199.17,382.54 199.94,380.46 199.94,380.46" fill="none" stroke="rgb(0, 160, 232)" stroke-width="2.37" stroke-opacity="1.00" stroke-linejoin="round"/>
<path d="M199.13,388.76 C199.13,388.76 198.51,388.76 198.51,388.76 C198.51,388.76 202.50,387.44 202.50,387.44 C202.50,387.44 202.29,385.71 202.29,385.71" fill="none" stroke="rgb(0, 160, 232)" stroke-width="2.37" stroke-opacity="1.00" stroke-linejoin="round"/>
<path d="M173.12,390.81 C173.12,390.81 174.65,394.41 174.65,394.41 C174.65,394.41 177.33,389.51 177.33,389.51 C177.33,389.51 178.66,396.06 178.66,396.06 C178.66,396.06 181.61,389.89 181.61,389.89 C181.61,389.89 183.36,393.25 183.36,393.25 C183.36,393.25 186.14,389.63 186.14,389.63 C186.14,389.63 187.29,392.02 187.29,392.02 C187.29,392.02 189.76,390.65 189.76,390.65 C189.76,390.65 191.30,391.14 191.30,391.14" fill="none" stroke="rgb(0, 160, 232)" stroke-width="2.37" stroke-opacity="1.00" stroke-linejoin="round"/>
<path d="M192.97,382.94 C192.97,382.94 192.63,383.28 192.63,383.28 C192.63,383.28 194.34,394.82 194.34,394.82 C194.34,394.45 173.17,398.58 172.47,398.67 C171.51,398.77 169.89,398.62 168.61,398.43 C168.11,397.20 168.36,394.16 168.76,390.61 C169.33,385.90 169.89,382.11 170.52,378.55 C170.52,378.55 170.48,378.83 170.48,378.83" fill="none" stroke="rgb(0, 160, 232)" stroke-width="2.37" stroke-opacity="1.00" stroke-linejoin="round"/>
<path d="M170.72,399.37 C170.72,399.41 170.72,399.53 170.72,399.71 C170.74,403.27 170.96,405.77 171.26,406.70 C171.37,407.06 171.60,407.34 171.95,407.54" fill="none" stroke="rgb(0, 160, 232)" stroke-width="2.37" stroke-opacity="1.00" stroke-linejoin="round"/>
<path d="M174.49,403.13 C174.20,403.13 173.92,403.13 173.63,403.13 C173.46,403.13 173.29,403.13 173.12,403.13 C172.75,403.36 176.93,404.05 178.82,403.43 C179.03,403.35 179.17,403.26 179.26,403.14 C179.36,402.97 179.46,402.80 179.56,402.64" fill="none" stroke="rgb(0, 160, 232)" stroke-width="2.37" stroke-opacity="1.00" stroke-linejoin="round"/>
<path d="M178.60,405.53 C178.60,405.53 178.25,405.53 178.25,405.53 C178.25,405.53 180.21,405.72 180.21,405.72 C180.21,405.72 181.58,404.66 181.58,404.66" fill="none" stroke="rgb(0, 160, 232)" stroke-width="2.37" stroke-opacity="1.00" stroke-linejoin="round"/>
<path d="M184.41,405.53 C184.41,405.70 184.41,405.81 184.41,405.87 C184.42,405.93 184.44,406.01 184.46,406.11 C184.46,406.11 184.62,406.21 184.62,406.21" fill="none" stroke="rgb(0, 160, 232)" stroke-width="2.37" stroke-opacity="1.00" stroke-linejoin="round"/>
<path d="M188.52,398.34 C188.52,398.34 187.49,399.02 187.49,399.02 C187.53,398.91 190.02,400.52 190.05,400.53 C190.77,400.82 192.43,400.03 192.94,399.47 C193.07,399.31 193.18,399.06 193.28,398.71" fill="none" stroke="rgb(0, 160, 232)" stroke-width="2.37" stroke-opacity="1.00" stroke-linejoin="round"/>
<path d="M190.58,404.16 C190.58,404.16 190.23,404.16 190.23,404.16 C191.31,405.02 192.37,405.56 193.15,405.53 C193.35,405.52 193.65,405.45 194.07,405.31" fill="none" stroke="rgb(0, 160, 232)" stroke-width="2.37" stroke-opacity="1.00" stroke-linejoin="round"/>
<path d="M195.02,393.21 C195.03,393.28 195.03,393.40 195.02,393.55 C195.04,394.40 196.41,401.63 197.04,404.95 C197.26,406.24 197.51,407.30 198.04,409.29 C198.04,409.29 198.45,408.95 198.45,408.95" fill="none" stroke="rgb(0, 160, 232)" stroke-width="2.37" stroke-opacity="1.00" stroke-linejoin="round"/>
<path d="M201.19,394.92 C201.52,394.87 202.05,395.02 202.78,395.48 C206.22,397.61 209.96,398.73 211.40,397.52 C214.21,394.93 212.29,389.47 211.61,388.34 C211.34,387.91 210.84,387.25 210.08,386.36" fill="none" stroke="rgb(0, 160, 232)" stroke-width="2.37" stroke-opacity="1.00" stroke-linejoin="round"/>
</g>
</svg>
