<?xml version="1.0" encoding="UTF-8" standalone="no"?>
<!DOCTYPE svg PUBLIC "-//W3C//DTD SVG 1.1//EN" "http://www.w3.org/Graphics/SVG/1.1/DTD/svg11.dtd">
<svg width="128.40" height="181.68" viewBox="0.00 0.00 535.00 757.00" xmlns="http://www.w3.org/2000/svg" xmlns:xlink="http://www.w3.org/1999/xlink">
<g stroke-linecap="round" transform="translate(44.00, 155.00)" id="129-구름-1">
<path d="M206.32,78.33 C206.32,78.33 205.29,79.01 205.29,79.01 C206.26,77.99 207.45,75.63 208.13,71.94 C208.77,68.35 209.40,63.58 209.24,61.51 C209.02,59.11 206.51,55.82 204.63,54.74 C203.41,54.06 198.04,51.91 195.72,51.36 C192.98,50.75 187.03,50.45 184.19,50.59 C180.20,50.83 169.57,54.75 163.21,58.24 C157.89,61.13 154.82,62.61 153.16,62.78 C152.50,62.83 148.21,60.00 143.64,57.70 C140.91,56.28 135.07,53.35 132.00,52.61 C126.42,51.33 109.07,51.95 104.98,52.49 C96.02,53.70 87.30,56.18 81.64,58.98 C77.68,60.97 67.68,69.61 67.01,70.14 C66.81,70.05 65.03,67.16 62.52,65.83 C62.14,65.63 53.41,61.61 50.64,59.92 C47.69,58.08 41.70,54.96 40.55,54.54 C37.95,53.62 32.40,53.44 29.94,53.89 C25.25,54.77 14.61,59.21 10.46,62.20 C6.99,64.72 -2.29,75.15 -4.70,78.82 C-6.42,81.46 -10.88,89.80 -11.21,90.36 C-12.38,92.37 -14.88,94.78 -17.09,96.41 C-22.58,100.34 -31.67,106.09 -32.24,107.49 C-32.87,109.20 -30.91,114.18 -28.98,117.65 C-28.50,118.52 -25.61,123.16 -24.48,125.37 C-22.96,128.50 -21.79,132.41 -21.52,135.26 C-21.38,136.80 -20.37,143.55 -19.54,145.39 C-18.34,147.93 -14.36,150.75 -9.68,152.63 C-3.73,154.98 8.72,158.34 15.75,158.80 C16.80,158.87 20.04,159.12 21.25,159.38 C22.39,159.65 26.31,163.95 29.15,165.97 C32.98,168.69 36.88,171.94 39.55,174.20 C42.77,176.81 47.92,179.22 51.25,180.01 C54.30,180.71 70.38,183.83 74.99,184.36 C78.74,184.77 94.58,184.61 95.59,184.92 C95.70,184.96 95.87,185.02 96.11,185.11" fill="none" stroke="rgb(0, 0, 255)" stroke-width="2.37" stroke-opacity="1.00" stroke-linejoin="round"/>
<path d="M98.51,183.40 C97.88,183.56 97.48,183.68 97.31,183.74 C97.14,183.81 96.97,183.93 96.80,184.09 C97.27,183.61 97.67,183.35 97.96,183.45 C98.26,183.56 102.82,184.99 106.25,184.64 C109.34,184.28 113.52,181.84 116.88,179.32 C118.96,177.75 123.41,173.87 124.20,173.04 C124.99,172.26 126.25,172.04 129.00,172.18 C131.40,172.31 137.48,172.83 142.00,173.33 C144.93,173.62 151.46,173.21 155.23,172.48 C163.49,170.83 172.83,166.69 175.98,164.41 C177.50,163.29 181.12,159.65 182.83,156.65 C184.37,153.90 186.16,148.18 186.52,145.17 C186.87,142.07 187.15,137.88 187.82,134.74 C188.75,134.04 193.91,133.03 196.15,132.42 C199.76,131.43 204.78,129.27 207.74,127.40 C210.05,125.92 213.91,122.73 214.85,121.58 C216.24,119.82 217.97,116.75 218.53,114.83 C218.99,113.17 219.31,108.82 219.11,107.13 C218.74,104.50 213.05,93.18 206.21,80.28 C206.21,80.28 205.98,80.38 205.98,80.38" fill="none" stroke="rgb(0, 0, 255)" stroke-width="2.37" stroke-opacity="1.00" stroke-linejoin="round"/>
</g>
</svg>
