<?xml version="1.0" encoding="UTF-8" standalone="no"?>
<!DOCTYPE svg PUBLIC "-//W3C//DTD SVG 1.1//EN" "http://www.w3.org/Graphics/SVG/1.1/DTD/svg11.dtd">
<svg width="128.40" height="181.68" viewBox="0.00 0.00 535.00 757.00" xmlns="http://www.w3.org/2000/svg" xmlns:xlink="http://www.w3.org/1999/xlink">
<g stroke-linecap="round" transform="translate(44.00, 155.00)" id="129-구름-2">
<path d="M314.47,51.97 C314.04,51.34 313.77,50.93 313.65,50.73 C313.29,50.13 313.03,49.36 312.85,48.58 C311.53,47.94 303.19,45.65 300.19,43.96 C296.06,41.62 292.15,40.10 289.12,39.65 C286.58,39.31 283.53,39.80 281.27,40.85 C275.07,43.77 262.71,47.86 261.06,48.34 C259.57,48.76 251.76,50.78 249.72,52.45 C247.52,54.30 244.67,58.64 243.90,60.34 C242.27,64.01 240.35,72.82 240.16,77.25 C240.09,79.99 241.18,85.84 243.05,89.55 C244.74,92.78 248.16,96.94 252.24,100.72 C256.91,104.98 262.97,107.22 263.81,107.63 C264.12,107.78 264.47,108.05 264.85,108.45" fill="none" stroke="rgb(0, 0, 255)" stroke-width="2.37" stroke-opacity="1.00" stroke-linejoin="round"/>
<path d="M266.21,109.82 C266.21,109.82 265.36,109.65 265.36,109.65 C265.36,109.65 264.57,107.58 264.57,107.58 C265.23,108.29 267.24,115.40 267.57,116.37 C268.50,119.05 271.14,123.00 273.99,125.05 C276.31,126.69 282.55,129.80 285.70,131.01 C289.45,132.43 295.36,134.13 298.46,134.29 C301.40,134.39 306.90,132.33 310.05,130.52 C314.43,128.00 318.41,125.40 321.23,123.26 C322.76,122.07 325.31,118.33 325.79,117.62 C326.11,117.86 335.51,126.13 339.28,128.27 C340.97,129.21 344.68,130.96 348.49,132.26 C351.18,133.16 366.02,135.16 370.92,135.91 C373.00,136.17 378.80,136.04 381.07,135.38 C383.87,134.53 388.32,131.52 390.28,129.45 C392.08,127.49 394.48,123.90 395.67,120.95 C396.41,119.09 397.72,113.48 398.27,111.95 C398.40,112.15 401.23,115.62 404.15,116.91 C408.74,118.87 416.37,120.03 427.24,120.92 C437.35,121.65 445.71,122.01 451.87,121.15 C455.16,120.61 460.07,119.25 462.39,117.41 C463.85,116.24 470.04,109.43 470.46,108.93 C473.29,105.41 475.53,100.39 476.04,96.84 C476.24,95.25 476.38,92.05 476.39,90.88 C478.38,88.40 480.15,85.17 480.45,83.12 C480.71,81.06 480.14,77.08 479.40,75.20 C478.66,73.42 476.05,70.32 472.63,68.42 C471.57,67.83 464.21,64.30 461.96,62.24 C460.46,60.81 459.15,59.15 458.49,57.73 C458.19,57.09 457.35,53.80 457.06,53.09 C456.42,51.53 452.54,47.85 450.63,46.91 C449.74,46.51 446.29,45.66 445.04,45.57 C443.07,45.45 441.58,46.98 441.51,47.06 C440.86,46.66 436.13,43.88 434.13,43.20 C431.71,42.41 426.21,41.59 422.67,41.62 C417.35,41.70 402.82,44.30 398.25,45.49 C390.96,47.41 375.46,55.42 375.19,55.32 C366.84,51.68 360.04,49.44 347.64,46.15 C343.13,44.98 336.69,43.77 333.31,43.57 C330.02,43.41 325.64,44.89 322.00,46.89 C320.57,47.69 315.20,50.65 315.16,50.80 C315.16,50.80 315.50,50.95 315.50,50.95" fill="none" stroke="rgb(0, 0, 255)" stroke-width="2.37" stroke-opacity="1.00" stroke-linejoin="round"/>
</g>
</svg>
