<?xml version="1.0" encoding="UTF-8" standalone="no"?>
<!DOCTYPE svg PUBLIC "-//W3C//DTD SVG 1.1//EN" "http://www.w3.org/Graphics/SVG/1.1/DTD/svg11.dtd">
<svg width="128.40" height="181.68" viewBox="0.00 0.00 535.00 757.00" xmlns="http://www.w3.org/2000/svg" xmlns:xlink="http://www.w3.org/1999/xlink">
<g stroke-linecap="round" transform="translate(44.00, 155.00)" id="129-우산-1">
<path d="M80.37,346.66 C80.37,346.66 80.34,347.34 80.34,347.34 C80.01,347.51 67.40,362.05 67.27,362.22 C67.12,362.42 59.79,374.45 55.95,377.99 C55.06,378.80 52.23,381.30 52.18,381.48 C55.85,380.65 76.16,360.21 78.63,356.96 C81.72,352.91 83.18,351.32 85.99,349.74 C86.77,350.29 98.84,358.16 104.71,361.57 C109.69,364.66 112.31,365.97 115.77,366.97 C121.47,368.68 127.66,372.29 137.43,376.22 C138.92,376.83 144.26,378.70 144.54,378.79 C143.60,375.88 138.91,359.21 138.04,355.60 C137.56,353.72 135.83,350.22 132.90,344.99 C130.38,340.55 129.31,338.99 126.71,336.23 C124.62,334.03 120.97,330.17 119.30,328.88 C116.79,326.97 111.85,323.82 109.37,321.87 C105.27,318.63 92.39,312.93 90.98,312.39 C86.25,310.60 76.48,309.83 70.74,310.50 C64.68,311.22 49.68,315.80 48.23,316.23 C46.31,316.79 40.15,318.29 36.30,319.73 C37.58,320.71 55.62,329.59 58.91,331.33 C65.07,334.61 77.29,342.34 80.35,345.60 C80.35,345.60 80.71,345.63 80.71,345.63" fill="none" stroke="rgb(255, 255, 0)" stroke-width="2.37" stroke-opacity="1.00" stroke-linejoin="round"/>
<path d="M73.52,311.06 C73.52,311.06 72.15,312.09 72.15,312.09 C73.49,312.17 91.62,320.14 92.76,320.82 C93.31,321.14 97.88,323.91 102.61,326.32 C105.75,327.90 111.13,332.34 111.85,332.80 C113.64,333.94 121.30,337.60 123.95,339.79 C124.93,340.62 127.62,342.82 128.35,343.35 C128.57,343.53 129.00,343.94 129.65,344.61" fill="none" stroke="rgb(255, 255, 0)" stroke-width="2.37" stroke-opacity="1.00" stroke-linejoin="round"/>
<path d="M139.24,362.75 C139.24,362.75 139.58,362.75 139.58,362.75 C139.58,362.75 129.02,370.60 129.02,370.60 C129.02,370.60 130.37,345.04 130.37,345.04 C130.40,345.01 126.78,349.09 123.89,351.47 C120.54,354.20 108.11,361.18 107.91,361.20 C107.82,361.21 107.63,361.23 107.32,361.24 C106.44,354.21 108.02,330.22 108.09,328.21 C106.29,330.13 77.17,340.98 76.48,341.87 C76.48,341.87 84.47,316.90 84.47,316.90 C83.61,317.20 72.38,323.04 64.34,325.88 C61.03,327.04 57.81,328.02 57.24,328.18 C57.24,328.18 62.57,311.18 62.57,311.18 C59.53,314.51 50.05,321.50 48.78,322.44 C48.36,322.75 47.93,323.07 47.51,323.39" fill="none" stroke="rgb(255, 255, 0)" stroke-width="2.37" stroke-opacity="1.00" stroke-linejoin="round"/>
</g>
</svg>
