<?xml version="1.0" encoding="UTF-8" standalone="no"?>
<!DOCTYPE svg PUBLIC "-//W3C//DTD SVG 1.1//EN" "http://www.w3.org/Graphics/SVG/1.1/DTD/svg11.dtd">
<svg width="64.20" height="90.84" viewBox="0.00 0.00 535.00 757.00" xmlns="http://www.w3.org/2000/svg" xmlns:xlink="http://www.w3.org/1999/xlink">
<g stroke-linecap="round" transform="translate(44.00, 155.00)" id="13-길">
<path d="M-4.36,560.56 C-4.36,560.56 -4.63,560.37 -4.63,560.37 C7.39,559.06 34.72,555.23 48.06,554.50 C61.92,553.40 89.76,551.51 106.37,550.84 C116.71,550.52 148.59,550.86 157.01,550.83 C179.50,551.02 208.69,552.43 210.21,552.49 C226.44,553.16 252.86,553.30 262.10,554.25 C267.14,554.83 289.04,555.19 291.10,555.13 C297.75,554.91 312.96,555.52 317.89,555.57 C323.41,555.67 337.83,557.08 344.73,556.90 C350.51,556.76 383.65,557.52 398.43,559.02 C411.61,560.35 438.62,563.69 443.42,565.22 C443.42,565.22 443.94,566.60 443.94,566.60" fill="none" stroke="rgb(255, 0, 238)" stroke-width="3.28" stroke-opacity="1.00" stroke-linejoin="round"/>
</g>
</svg>
