<?xml version="1.0" encoding="UTF-8" standalone="no"?>
<!DOCTYPE svg PUBLIC "-//W3C//DTD SVG 1.1//EN" "http://www.w3.org/Graphics/SVG/1.1/DTD/svg11.dtd">
<svg width="64.20" height="90.84" viewBox="0.00 0.00 535.00 757.00" xmlns="http://www.w3.org/2000/svg" xmlns:xlink="http://www.w3.org/1999/xlink">
<g stroke-linecap="round" transform="translate(44.00, 155.00)" id="13-나무">
<path d="M24.91,-62.62 C23.47,-58.27 18.78,-45.58 16.77,-39.99 C16.00,-37.89 13.13,-21.99 11.89,-14.73 C10.94,-8.45 9.59,6.63 8.94,13.48 C8.27,20.27 7.61,61.97 7.80,64.73 C7.80,64.73 9.91,64.41 9.91,64.41" fill="none" stroke="rgb(0, 255, 10)" stroke-width="3.28" stroke-opacity="1.00" stroke-linejoin="round"/>
<path d="M16.15,87.36 C16.15,87.36 15.47,87.84 15.47,87.84 C20.76,88.65 24.52,88.96 30.19,88.48 C37.27,87.86 51.15,86.63 57.14,85.05 C65.07,82.92 84.58,77.72 88.39,76.84 C91.64,76.09 126.43,70.87 140.91,68.35 C151.09,66.42 160.98,64.23 166.82,62.96 C181.24,60.48 197.09,57.73 197.59,57.44 C197.85,57.28 198.39,56.83 199.20,56.10" fill="none" stroke="rgb(0, 255, 10)" stroke-width="3.28" stroke-opacity="1.00" stroke-linejoin="round"/>
<path d="M195.37,58.21 C195.37,58.21 195.13,58.17 195.13,58.17 C195.39,57.08 198.36,53.52 200.68,50.78 C203.69,47.16 216.60,34.65 219.31,30.90 C222.88,25.73 227.32,21.15 233.87,15.39 C242.93,7.47 245.70,5.28 246.44,4.74 C246.11,5.60 238.63,19.03 235.20,25.11 C231.75,30.99 222.02,43.33 221.15,44.52 C229.83,41.45 259.63,26.57 271.37,21.88 C277.42,19.43 280.24,18.42 283.96,17.35 C284.27,17.26 284.78,17.09 285.49,16.85" fill="none" stroke="rgb(0, 255, 10)" stroke-width="3.28" stroke-opacity="1.00" stroke-linejoin="round"/>
<path d="M285.06,21.68 C284.19,21.41 281.82,23.21 278.19,26.52 C273.76,30.53 258.49,39.42 256.91,40.39 C246.09,47.04 234.76,54.00 233.32,54.79 C236.85,55.68 255.42,57.91 261.04,59.03 C264.83,59.78 268.81,60.90 270.10,61.60 C269.88,61.69 255.19,64.61 250.43,66.08 C249.42,66.39 241.24,69.11 238.51,69.86 C232.46,71.49 225.63,71.95 225.55,72.00 C225.49,72.03 225.12,72.26 224.41,72.71" fill="none" stroke="rgb(0, 255, 10)" stroke-width="3.28" stroke-opacity="1.00" stroke-linejoin="round"/>
<path d="M227.87,72.57 C227.87,72.57 227.07,72.08 227.07,72.08 C225.83,72.14 222.00,74.73 220.38,75.63 C216.18,77.96 203.47,81.96 200.49,83.30 C199.54,83.74 193.86,86.63 191.32,87.93 C185.54,90.78 171.22,94.69 165.87,96.23 C159.68,98.13 147.74,103.30 140.83,107.11 C129.30,113.60 103.29,125.11 90.16,131.09 C66.39,141.64 35.43,158.09 34.74,158.50 C34.43,158.69 34.22,158.86 34.12,159.01" fill="none" stroke="rgb(0, 255, 10)" stroke-width="3.28" stroke-opacity="1.00" stroke-linejoin="round"/>
<path d="M13.93,217.16 C13.49,217.56 13.27,218.10 12.99,219.59 C12.39,222.86 10.26,257.88 9.71,267.03 C8.79,281.72 8.73,296.12 8.73,297.59 C8.73,297.59 9.62,297.49 9.62,297.49" fill="none" stroke="rgb(0, 255, 10)" stroke-width="3.28" stroke-opacity="1.00" stroke-linejoin="round"/>
<path d="M10.14,298.83 C10.40,297.69 10.63,296.59 11.02,296.19 C15.23,291.95 38.07,274.09 39.68,272.40 C40.41,271.63 49.48,262.22 50.44,261.70 C50.94,261.43 52.12,260.91 53.98,260.16" fill="none" stroke="rgb(0, 255, 10)" stroke-width="3.28" stroke-opacity="1.00" stroke-linejoin="round"/>
<path d="M60.17,276.54 C60.17,276.54 59.49,276.39 59.49,276.39 C59.45,276.42 49.15,290.11 44.78,294.78 C42.77,296.88 38.51,301.30 36.96,303.47 C36.11,304.68 26.33,318.65 20.36,327.27 C17.83,330.90 12.65,335.89 12.58,336.05 C12.52,336.19 12.38,336.65 12.16,337.43" fill="none" stroke="rgb(0, 255, 10)" stroke-width="3.28" stroke-opacity="1.00" stroke-linejoin="round"/>
<path d="M8.77,349.08 C8.77,349.08 8.86,344.34 8.86,344.34 C7.67,348.45 5.91,354.08 5.76,355.25 C5.36,358.57 5.72,384.20 5.84,386.85 C5.98,389.96 5.55,405.01 5.45,412.56 C5.50,417.04 6.93,458.26 7.36,474.11 C7.65,490.79 7.20,532.29 7.56,535.72 C7.80,538.03 8.71,543.77 8.92,544.21 C9.18,544.74 10.81,545.60 13.72,546.95" fill="none" stroke="rgb(0, 255, 10)" stroke-width="3.28" stroke-opacity="1.00" stroke-linejoin="round"/>
<path d="M28.16,140.35 C28.16,140.35 26.56,140.70 26.56,140.70 C26.56,140.70 26.17,140.16 26.17,140.16 C29.87,140.08 35.09,139.28 37.62,139.03 C42.55,138.58 60.47,140.24 62.20,140.91 C65.53,142.25 68.35,146.03 70.03,148.78 C71.25,150.90 73.90,156.70 74.17,159.07 C74.46,161.81 73.04,165.18 71.84,166.37 C70.41,167.73 65.50,170.11 61.85,171.05 C58.44,171.90 48.56,173.16 48.59,173.17 C51.32,173.67 56.85,176.52 58.07,178.32 C59.17,180.04 59.04,183.83 58.29,185.74 C57.51,187.62 53.59,192.66 51.57,194.35 C49.63,195.96 45.27,198.66 43.12,199.32 C40.81,199.99 37.78,200.06 33.70,199.64 C27.84,199.02 23.62,198.46 19.79,197.86 C22.61,197.88 26.00,198.80 28.62,199.95 C31.30,201.16 33.92,204.14 34.19,206.35 C34.36,208.16 33.31,212.22 32.04,214.35 C30.77,216.44 27.76,219.93 25.45,221.82 C20.97,225.43 11.30,230.04 6.33,231.42 C1.48,232.75 -9.54,234.12 -14.05,233.25 C-16.17,232.80 -21.57,228.73 -21.65,228.67 C-22.16,228.29 -22.48,227.95 -22.64,227.64 C-22.82,227.27 -23.25,226.16 -23.95,224.32" fill="none" stroke="rgb(0, 255, 10)" stroke-width="3.28" stroke-opacity="1.00" stroke-linejoin="round"/>
<path d="M-14.26,173.06 C-14.26,173.06 -14.73,173.36 -14.73,173.36 C-13.56,173.02 -12.43,172.82 -10.11,172.62 C0.38,171.66 7.60,170.60 7.71,170.63 C7.71,170.63 13.22,160.11 14.22,159.12 C14.93,158.52 18.37,160.67 18.86,162.19 C18.86,162.19 12.49,176.54 12.49,176.54 C12.49,176.54 -9.53,183.32 -9.53,183.32 C-9.53,183.32 -9.83,184.15 -9.83,184.15" fill="none" stroke="rgb(0, 255, 10)" stroke-width="3.28" stroke-opacity="1.00" stroke-linejoin="round"/>
<path d="M98.78,58.18 C98.78,58.18 96.30,58.18 96.30,58.18 C95.16,57.42 90.16,43.50 89.55,37.60 C89.18,33.81 90.61,21.24 92.12,15.90 C93.59,10.81 98.24,2.13 101.05,-1.57 C102.49,-3.45 105.91,-7.24 108.04,-9.05 C110.47,-11.08 112.74,-12.36 115.97,-13.52 C120.65,-15.15 125.73,-16.63 128.80,-17.13 C132.87,-17.77 137.68,-18.03 140.02,-17.58 C144.10,-16.75 151.79,-12.75 159.54,-7.34 C161.24,-6.16 162.12,-5.41 162.46,-5.20 C162.73,-5.03 163.47,-4.60 164.67,-3.92" fill="none" stroke="rgb(0, 255, 10)" stroke-width="3.28" stroke-opacity="1.00" stroke-linejoin="round"/>
<path d="M170.00,-3.24 C170.00,-3.24 169.45,-3.38 169.45,-3.38 C168.90,-4.44 173.54,-18.49 176.66,-23.42 C178.60,-26.43 183.83,-32.74 186.28,-34.73 C188.65,-36.61 195.68,-40.03 199.33,-41.34 C203.01,-42.64 210.22,-44.21 214.25,-44.50 C216.21,-44.64 222.50,-44.61 224.68,-44.32 C227.49,-43.92 231.78,-42.44 233.55,-40.92 C236.76,-38.10 243.03,-27.03 243.33,-26.55 C243.62,-26.07 244.29,-25.01 245.35,-23.34" fill="none" stroke="rgb(0, 255, 10)" stroke-width="3.28" stroke-opacity="1.00" stroke-linejoin="round"/>
<path d="M246.40,-23.42 C246.30,-23.79 245.38,-25.86 246.18,-27.40 C247.66,-30.17 257.48,-39.57 263.04,-43.68 C269.41,-48.30 277.36,-52.87 282.07,-54.79 C287.44,-56.97 295.28,-58.80 299.47,-59.07 C300.65,-59.14 308.02,-59.40 312.09,-59.23 C315.72,-59.06 320.56,-57.98 322.78,-56.83 C329.13,-53.44 337.09,-41.65 337.21,-41.45 C337.21,-41.45 338.45,-41.62 338.45,-41.62" fill="none" stroke="rgb(0, 255, 10)" stroke-width="3.28" stroke-opacity="1.00" stroke-linejoin="round"/>
<path d="M338.79,-42.91 C338.30,-43.77 338.29,-45.37 338.86,-47.05 C339.40,-48.54 343.17,-51.04 346.96,-52.38 C351.33,-53.88 361.51,-54.88 368.29,-54.35 C372.09,-54.03 377.42,-52.67 379.82,-51.28 C381.95,-50.02 385.39,-46.84 386.94,-44.89 C388.27,-43.17 390.74,-38.39 391.34,-36.28 C392.05,-33.66 392.52,-28.33 392.08,-25.42 C391.51,-22.01 388.59,-16.00 385.71,-12.83 C383.68,-10.63 376.57,-6.00 368.39,-1.89 C361.31,1.59 352.40,4.28 352.40,4.28 C354.53,4.83 358.68,6.99 361.19,8.85 C363.47,10.57 366.07,13.82 367.60,16.63 C368.91,19.12 370.40,23.67 370.91,27.13 C371.44,30.98 371.55,36.52 371.22,39.62 C370.87,42.74 369.35,48.60 368.15,51.25 C366.95,53.83 364.38,57.48 362.21,59.65 C360.25,61.57 356.02,64.51 353.57,65.89 C349.88,67.93 343.24,70.43 339.37,71.21 C335.99,71.86 327.99,72.03 319.78,71.11 C312.96,70.35 303.74,67.24 302.39,65.83 C302.39,65.83 303.32,65.21 303.32,65.21" fill="none" stroke="rgb(0, 255, 10)" stroke-width="3.28" stroke-opacity="1.00" stroke-linejoin="round"/>
<path d="M302.55,70.86 C302.55,70.86 302.98,70.53 302.98,70.53 C302.98,70.53 303.92,68.53 303.92,68.53 C304.96,68.27 306.21,69.29 307.58,71.61 C309.06,74.19 310.59,78.84 310.90,82.03 C311.10,84.29 311.03,89.45 310.65,91.64 C310.21,94.07 308.62,98.18 307.34,99.82 C304.74,103.08 295.08,109.07 287.98,112.38 C281.19,115.49 270.00,119.15 263.74,120.54 C256.88,122.04 241.53,123.89 239.13,123.95 C234.21,124.03 223.70,121.26 215.14,118.62 C209.09,116.67 199.71,112.40 195.66,109.65 C195.66,109.65 197.26,109.72 197.26,109.72" fill="none" stroke="rgb(0, 255, 10)" stroke-width="3.28" stroke-opacity="1.00" stroke-linejoin="round"/>
<path d="M103.52,115.80 C103.30,115.75 103.09,115.69 102.87,115.64 C102.78,115.61 102.69,115.59 102.59,115.56 C103.11,116.53 107.58,121.79 110.22,123.85 C120.89,131.86 126.64,135.52 135.87,138.78 C143.17,141.32 158.10,144.29 161.66,144.42 C164.62,144.52 170.52,144.15 174.23,143.37 C179.15,142.31 184.70,140.82 186.81,139.90 C188.37,139.21 193.10,136.35 194.51,134.48 C196.12,132.27 197.90,125.71 197.94,122.56 C197.93,119.09 196.83,114.35 196.62,113.44 C196.53,113.07 196.44,112.56 196.35,111.90" fill="none" stroke="rgb(0, 255, 10)" stroke-width="3.28" stroke-opacity="1.00" stroke-linejoin="round"/>
<path d="M57.07,259.06 C56.79,258.97 56.37,258.79 56.17,258.55 C55.85,258.17 54.57,256.23 53.80,255.39 C53.28,254.81 47.60,249.25 46.23,247.03 C45.60,245.98 44.38,243.24 43.86,241.70 C42.91,238.81 43.57,233.76 44.30,230.99 C44.91,228.81 46.87,223.39 48.19,220.91 C50.15,217.26 53.95,213.37 56.80,211.81 C60.50,209.83 66.30,208.25 68.95,208.35 C71.56,208.50 79.42,212.15 79.72,212.32 C79.92,212.43 80.12,212.57 80.33,212.76" fill="none" stroke="rgb(0, 255, 10)" stroke-width="3.28" stroke-opacity="1.00" stroke-linejoin="round"/>
<path d="M81.90,211.42 C81.18,211.85 80.73,212.11 80.56,212.20 C80.38,212.29 80.23,212.32 80.11,212.31 C80.29,210.63 81.69,206.15 82.92,203.86 C84.21,201.51 88.42,195.74 90.23,193.75 C92.12,191.72 96.13,188.96 98.35,187.86 C100.14,187.00 104.73,185.47 107.47,185.23 C112.58,184.81 119.57,186.39 124.80,187.92 C125.04,185.34 126.03,179.48 126.83,177.46 C127.85,175.01 131.73,170.67 134.54,168.62 C136.69,167.09 140.92,165.25 142.32,165.05 C145.73,164.63 151.33,165.86 153.60,166.98 C156.23,168.32 160.15,171.42 160.85,172.41 C161.23,170.00 163.48,164.03 164.71,162.20 C165.92,160.46 168.58,158.94 170.31,158.61 C171.96,158.33 176.39,158.42 178.31,158.89 C180.09,159.35 183.23,161.23 184.22,162.38 C185.24,163.60 186.53,166.83 186.81,168.61 C187.05,170.25 186.88,173.13 186.39,174.67 C185.91,176.09 184.67,177.66 183.02,179.36 C183.31,179.61 187.27,181.99 188.63,183.33 C189.97,184.68 191.59,187.51 191.99,189.32 C192.40,191.40 192.07,197.84 190.87,201.42 C190.41,202.56 189.73,204.26 189.54,204.38 C189.37,204.47 188.68,204.81 187.48,205.38" fill="none" stroke="rgb(0, 255, 10)" stroke-width="3.28" stroke-opacity="1.00" stroke-linejoin="round"/>
<path d="M57.96,277.85 C57.96,277.85 57.52,278.17 57.52,278.17 C57.67,279.28 60.73,285.00 61.50,286.39 C63.18,289.26 67.92,294.03 70.45,294.84 C72.56,295.48 78.88,295.66 81.74,295.57 C84.31,295.47 89.99,293.87 92.85,292.39 C95.07,291.22 100.73,287.66 103.01,285.70 C104.99,283.97 107.48,279.89 108.47,277.45 C110.24,272.94 112.53,262.42 112.49,262.57 C112.49,262.57 112.99,262.64 112.99,262.64" fill="none" stroke="rgb(0, 255, 10)" stroke-width="3.28" stroke-opacity="1.00" stroke-linejoin="round"/>
<path d="M94.20,295.30 C94.06,295.30 93.93,295.30 93.79,295.30 C93.71,295.30 93.63,295.30 93.55,295.30 C95.94,297.32 100.45,299.25 103.47,299.71 C106.07,300.08 115.42,297.01 115.77,296.94 C115.91,296.91 116.16,296.89 116.51,296.86" fill="none" stroke="rgb(0, 255, 10)" stroke-width="3.28" stroke-opacity="1.00" stroke-linejoin="round"/>
<path d="M114.78,291.05 C114.51,291.63 115.04,293.36 116.33,294.32 C117.77,295.35 122.12,295.61 124.81,295.38 C125.91,295.29 134.45,294.19 136.20,293.88 C139.97,293.20 145.16,291.27 147.91,289.71 C150.68,288.12 155.46,285.03 156.72,283.83 C159.60,281.04 163.44,274.43 164.70,271.70 C164.70,271.70 165.09,271.52 165.09,271.52 C165.09,271.52 165.34,271.59 165.34,271.59" fill="none" stroke="rgb(0, 255, 10)" stroke-width="3.28" stroke-opacity="1.00" stroke-linejoin="round"/>
<path d="M90.85,241.84 C90.85,241.84 91.24,241.30 91.24,241.30 C91.24,241.30 89.55,240.54 89.55,240.54 C89.53,240.44 89.53,239.84 109.60,226.49 C115.96,222.11 139.21,205.93 139.30,205.79 C139.73,205.08 141.54,199.30 142.41,197.49 C144.14,193.96 146.30,191.55 146.54,191.57 C146.54,191.57 146.23,201.93 146.23,201.93 C146.23,201.93 174.40,184.34 174.40,184.34 C174.40,184.34 174.71,185.23 174.71,185.23" fill="none" stroke="rgb(0, 255, 10)" stroke-width="3.28" stroke-opacity="1.00" stroke-linejoin="round"/>
<path d="M179.65,187.03 C179.65,187.03 178.70,186.36 178.70,186.36 C178.13,186.86 177.71,187.22 177.44,187.43 C175.60,188.93 171.40,191.41 168.39,194.05 C165.35,196.71 157.60,201.86 151.04,205.50 C142.01,210.62 135.87,215.11 130.51,219.61 C129.24,220.69 116.28,232.88 112.17,236.07 C94.71,249.32 91.50,251.16 91.37,251.28 C91.22,251.42 90.99,251.74 90.68,252.25" fill="none" stroke="rgb(0, 255, 10)" stroke-width="3.28" stroke-opacity="1.00" stroke-linejoin="round"/>
</g>
</svg>
