<?xml version="1.0" encoding="UTF-8" standalone="no"?>
<!DOCTYPE svg PUBLIC "-//W3C//DTD SVG 1.1//EN" "http://www.w3.org/Graphics/SVG/1.1/DTD/svg11.dtd">
<svg width="128.40" height="181.68" viewBox="0.00 0.00 535.00 757.00" xmlns="http://www.w3.org/2000/svg" xmlns:xlink="http://www.w3.org/1999/xlink">
<g stroke-linecap="round" transform="translate(44.00, 155.00)" id="130-사람">
<path d="M222.38,288.41 C222.44,288.88 221.95,290.39 221.76,291.00 C221.75,291.03 220.28,295.98 219.90,296.81 C219.34,297.99 211.55,302.30 211.00,302.50 C208.99,303.25 202.89,303.70 201.27,302.96 C200.15,302.42 196.61,298.16 195.28,295.89 C194.04,293.69 193.71,290.15 194.55,288.36 C195.34,286.81 198.72,284.23 201.31,283.02 C204.57,281.55 210.55,280.79 213.99,281.36 C216.83,281.86 223.33,284.50 224.01,286.24 C224.31,287.07 224.29,288.87 224.14,290.17 C224.14,290.17 223.82,290.43 223.82,290.43 C223.82,290.43 223.16,288.80 223.16,288.80" fill="none" stroke="rgb(0, 160, 232)" stroke-width="2.33" stroke-opacity="1.00" stroke-linejoin="round"/>
<path d="M223.16,288.02 C223.16,288.02 223.16,288.22 223.16,288.22 C223.16,288.22 222.50,288.80 222.50,288.80 C221.44,288.85 214.88,288.27 212.03,288.01 C206.10,287.47 199.23,288.77 197.83,289.04 C197.83,289.04 197.02,288.41 197.02,288.41" fill="none" stroke="rgb(0, 160, 232)" stroke-width="2.33" stroke-opacity="1.00" stroke-linejoin="round"/>
<path d="M202.09,283.73 C202.09,283.73 199.13,285.74 199.13,285.74 C201.99,286.08 208.12,285.25 211.52,285.06 C212.72,284.99 215.68,284.88 216.97,284.83 C215.42,284.29 210.82,283.67 207.98,283.61 C204.86,283.56 199.60,284.32 198.69,285.11 C199.14,286.19 205.30,286.88 209.24,286.41 C212.37,286.01 214.19,285.37 214.55,285.03 C213.17,284.05 198.68,285.80 196.75,286.92 C196.59,287.01 196.39,287.19 196.15,287.45 C196.34,287.72 197.24,287.93 198.88,287.99 C199.28,288.00 200.06,288.01 201.21,288.02" fill="none" stroke="rgb(0, 160, 232)" stroke-width="2.33" stroke-opacity="1.00" stroke-linejoin="round"/>
<path d="M211.46,285.29 C211.46,285.29 208.01,285.29 208.01,285.29 C208.01,285.29 220.88,287.98 220.88,287.98 C220.88,287.98 214.50,284.21 214.50,284.21 C214.50,284.21 220.84,286.90 220.84,286.90 C220.84,286.90 218.37,284.36 218.37,284.36 C218.37,284.36 222.77,288.80 222.77,288.80" fill="none" stroke="rgb(0, 160, 232)" stroke-width="2.33" stroke-opacity="1.00" stroke-linejoin="round"/>
<path d="M198.97,295.43 C198.92,295.06 199.13,294.23 199.61,293.57 C201.20,291.41 203.22,290.39 203.59,290.51 C204.00,290.90 204.26,291.28 204.48,292.04 C204.66,292.72 204.85,293.40 205.04,294.08" fill="none" stroke="rgb(0, 160, 232)" stroke-width="2.33" stroke-opacity="1.00" stroke-linejoin="round"/>
<path d="M211.46,291.92 C211.46,291.92 210.40,291.92 210.40,291.92 C210.40,291.92 212.90,290.09 212.90,290.09 C213.39,290.26 213.73,290.44 213.92,290.63 C214.11,290.82 214.40,291.30 214.80,292.06" fill="none" stroke="rgb(0, 160, 232)" stroke-width="2.33" stroke-opacity="1.00" stroke-linejoin="round"/>
<path d="M207.16,295.04 C207.16,295.04 206.38,294.65 206.38,294.65 C206.41,295.53 206.44,296.06 206.47,296.24 C206.51,296.43 206.59,296.54 206.72,296.57" fill="none" stroke="rgb(0, 160, 232)" stroke-width="2.33" stroke-opacity="1.00" stroke-linejoin="round"/>
<path d="M212.24,298.16 C211.75,298.30 210.98,298.72 209.30,298.55 C208.34,298.45 203.15,296.34 201.57,296.25 C201.57,296.25 204.24,302.17 204.24,302.17 C207.59,301.78 212.09,297.46 212.30,297.10 C212.40,296.91 212.50,296.56 212.60,296.04" fill="none" stroke="rgb(0, 160, 232)" stroke-width="2.33" stroke-opacity="1.00" stroke-linejoin="round"/>
<path d="M213.80,294.26 C213.60,294.33 212.94,294.56 212.82,294.85 C212.62,295.35 212.50,295.88 212.34,296.40 C212.26,296.65 212.16,296.95 212.02,297.32" fill="none" stroke="rgb(0, 160, 232)" stroke-width="2.33" stroke-opacity="1.00" stroke-linejoin="round"/>
<path d="M202.48,305.97 C202.48,305.97 202.09,305.97 202.09,305.97 C202.40,306.65 202.61,307.10 202.71,307.31 C202.81,307.52 202.95,307.77 203.12,308.07" fill="none" stroke="rgb(0, 160, 232)" stroke-width="2.33" stroke-opacity="1.00" stroke-linejoin="round"/>
<path d="M211.07,304.02 C211.07,304.02 209.98,304.71 209.98,304.71 C209.53,305.82 209.62,307.34 210.32,308.48 C210.46,308.71 210.68,308.91 210.99,309.08" fill="none" stroke="rgb(0, 160, 232)" stroke-width="2.33" stroke-opacity="1.00" stroke-linejoin="round"/>
<path d="M211.46,308.70 C211.46,308.70 209.05,309.48 209.05,309.48 C209.05,309.48 201.70,308.31 201.70,308.31 C201.70,308.31 201.31,307.53 201.31,307.53" fill="none" stroke="rgb(0, 160, 232)" stroke-width="2.33" stroke-opacity="1.00" stroke-linejoin="round"/>
<path d="M203.65,303.24 C203.52,303.24 203.39,303.24 203.26,303.24 C203.17,303.24 203.07,303.24 202.98,303.24 C202.92,303.53 202.88,303.74 202.87,303.87 C202.86,304.01 202.86,304.24 202.87,304.57" fill="none" stroke="rgb(0, 160, 232)" stroke-width="2.33" stroke-opacity="1.00" stroke-linejoin="round"/>
<path d="M202.09,308.31 C202.09,308.31 201.70,308.31 201.70,308.31 C201.70,307.77 201.71,307.42 201.74,307.28 C201.76,307.14 201.85,307.00 201.99,306.86" fill="none" stroke="rgb(0, 160, 232)" stroke-width="2.33" stroke-opacity="1.00" stroke-linejoin="round"/>
<path d="M202.87,304.02 C202.87,304.02 200.92,304.02 200.92,304.02 C201.09,304.91 201.23,305.56 201.33,305.95 C201.44,306.35 201.66,307.04 201.99,308.03" fill="none" stroke="rgb(0, 160, 232)" stroke-width="2.33" stroke-opacity="1.00" stroke-linejoin="round"/>
<path d="M202.87,306.36 C202.11,306.84 201.55,307.10 201.00,307.14 C200.18,307.18 191.42,304.72 190.14,304.08 C189.46,303.74 184.46,300.40 182.06,300.06 C180.03,299.80 177.45,299.72 176.73,299.97 C175.71,300.37 174.41,301.44 173.92,302.42 C173.34,303.66 173.42,306.00 174.02,307.46 C174.57,308.71 177.48,310.16 178.91,310.01 C180.26,309.82 181.99,309.00 182.75,308.10 C183.26,307.46 184.14,304.79 184.43,303.35 C184.59,302.51 184.39,301.90 184.06,301.37 C182.97,301.72 182.48,302.30 182.42,303.64 C182.30,306.73 182.41,309.21 182.57,311.06 C183.28,310.43 191.19,310.34 191.97,310.35 C196.15,310.45 197.24,310.95 199.91,312.53 C199.98,312.58 200.19,312.66 200.14,312.60" fill="none" stroke="rgb(0, 160, 232)" stroke-width="2.33" stroke-opacity="1.00" stroke-linejoin="round"/>
<path d="M200.53,312.99 C200.53,312.99 198.58,312.99 198.58,312.99 C198.58,312.99 197.80,313.75 197.80,313.75 C197.80,313.75 198.45,326.20 198.45,326.20 C200.81,325.57 204.75,324.67 209.02,325.13 C211.15,325.47 213.60,325.85 214.24,325.87 C214.24,325.87 214.65,314.52 214.65,314.52 C214.65,314.52 226.37,320.56 226.37,320.56 C226.37,320.56 228.65,315.23 228.65,315.23 C227.66,314.64 223.34,313.00 219.85,311.40 C216.02,309.68 213.83,309.39 211.51,309.24 C210.45,309.19 209.39,309.14 208.33,309.09" fill="none" stroke="rgb(0, 160, 232)" stroke-width="2.33" stroke-opacity="1.00" stroke-linejoin="round"/>
<path d="M230.57,316.50 C230.19,316.48 229.59,316.55 229.11,316.70 C228.99,316.73 228.83,316.80 228.62,316.89 C231.60,316.02 233.63,315.57 234.55,315.80 C236.66,316.34 237.98,318.58 237.83,319.80 C237.59,321.26 234.56,324.75 232.63,324.89 C230.76,324.97 224.24,322.69 223.41,322.01 C223.15,321.79 222.68,321.26 221.99,320.40" fill="none" stroke="rgb(0, 160, 232)" stroke-width="2.33" stroke-opacity="1.00" stroke-linejoin="round"/>
<path d="M198.58,328.99 C198.58,328.99 198.58,328.79 198.58,328.79 C198.58,328.79 197.96,328.67 197.96,328.67 C197.96,328.67 188.53,342.16 188.53,342.16 C188.53,342.16 189.56,342.25 189.56,342.25" fill="none" stroke="rgb(0, 160, 232)" stroke-width="2.33" stroke-opacity="1.00" stroke-linejoin="round"/>
<path d="M203.26,337.96 C202.76,338.31 202.54,338.42 202.42,338.54 C199.90,341.06 195.57,345.04 193.15,347.27 C192.93,346.77 180.83,338.66 176.35,337.24 C174.19,336.57 172.27,336.07 171.89,336.14 C170.23,336.59 167.75,343.02 166.88,345.55 C167.60,346.96 179.43,356.34 182.26,357.50 C183.82,358.09 185.91,357.46 188.44,355.13 C189.09,354.51 189.63,354.29 189.79,353.95 C191.69,349.80 193.48,346.30 193.71,345.96 C193.85,345.75 194.04,345.56 194.29,345.37" fill="none" stroke="rgb(0, 160, 232)" stroke-width="2.33" stroke-opacity="1.00" stroke-linejoin="round"/>
<path d="M203.65,339.13 C203.65,339.13 202.91,339.13 202.91,339.13 C203.45,339.00 206.10,342.00 207.60,344.18 C209.10,346.39 211.74,351.84 212.13,352.00 C212.13,352.00 213.04,350.95 213.04,350.95 C213.04,350.95 218.94,357.89 218.94,357.89 C219.92,357.85 222.82,356.04 227.66,353.28 C231.33,351.22 232.47,350.29 232.82,348.40 C233.23,345.77 231.45,341.84 230.18,341.31 C228.93,340.91 225.73,342.16 223.23,344.29 C222.64,344.79 216.55,350.76 215.78,351.28 C215.78,351.28 215.75,351.22 215.75,351.22" fill="none" stroke="rgb(0, 160, 232)" stroke-width="2.33" stroke-opacity="1.00" stroke-linejoin="round"/>
<path d="M221.99,344.98 C221.99,344.98 221.40,345.96 221.40,345.96 C221.40,345.96 220.82,346.15 220.82,346.15 C220.54,345.11 214.97,334.76 213.63,330.23 C213.17,328.72 212.83,327.71 212.60,327.22 C212.44,326.88 212.19,326.55 211.85,326.25" fill="none" stroke="rgb(0, 160, 232)" stroke-width="2.33" stroke-opacity="1.00" stroke-linejoin="round"/>
</g>
</svg>
