<?xml version="1.0" encoding="UTF-8" standalone="no"?>
<!DOCTYPE svg PUBLIC "-//W3C//DTD SVG 1.1//EN" "http://www.w3.org/Graphics/SVG/1.1/DTD/svg11.dtd">
<svg width="128.40" height="181.68" viewBox="0.00 0.00 535.00 757.00" xmlns="http://www.w3.org/2000/svg" xmlns:xlink="http://www.w3.org/1999/xlink">
<g stroke-linecap="round" transform="translate(44.00, 155.00)" id="130-우산">
<path d="M246.18,287.24 C246.18,287.24 245.59,287.24 245.59,287.24 C245.59,287.24 245.40,286.85 245.40,286.85 C245.40,286.85 245.28,286.85 245.28,286.85 C241.95,291.82 236.98,312.95 235.99,315.25 C235.82,315.64 235.58,316.04 235.28,316.47" fill="none" stroke="rgb(0, 0, 255)" stroke-width="2.33" stroke-opacity="1.00" stroke-linejoin="round"/>
<path d="M237.99,315.72 C237.99,315.72 237.99,316.50 237.99,316.50 C237.99,316.50 249.60,286.09 249.60,286.09 C249.60,286.09 249.69,286.07 249.69,286.07 C249.69,286.07 249.69,286.07 249.69,286.07 C249.69,286.07 249.69,286.24 249.69,286.24 C249.69,286.24 249.29,286.59 249.29,286.59 C243.98,286.81 224.74,280.75 224.67,280.24 C225.16,279.49 229.44,274.35 231.14,271.71 C233.66,267.64 236.50,262.66 237.70,261.45 C239.82,259.37 246.73,255.38 249.57,254.67 C252.04,254.10 259.38,254.70 262.72,255.74 C266.02,256.80 270.83,259.36 272.44,261.36 C272.85,261.88 278.63,270.92 279.52,273.33 C280.33,275.60 282.39,287.30 282.28,289.42 C281.57,289.35 266.97,286.67 261.72,286.70 C258.04,286.80 250.68,286.70 250.52,286.65 C250.33,286.59 249.79,286.40 248.91,286.07" fill="none" stroke="rgb(0, 0, 255)" stroke-width="2.33" stroke-opacity="1.00" stroke-linejoin="round"/>
<path d="M253.59,288.02 C253.53,288.01 252.73,288.03 252.62,288.02 C251.80,287.87 251.00,284.42 250.72,280.74 C250.14,273.35 247.44,258.42 247.36,255.63 C247.35,255.45 247.35,255.07 247.35,254.50" fill="none" stroke="rgb(0, 0, 255)" stroke-width="2.33" stroke-opacity="1.00" stroke-linejoin="round"/>
<path d="M258.66,288.41 C258.47,288.41 257.57,288.37 257.30,288.14 C256.48,287.41 247.80,267.99 247.17,266.75 C245.72,263.93 243.12,261.15 240.25,258.51 C240.25,258.51 240.72,260.32 240.72,260.32" fill="none" stroke="rgb(0, 0, 255)" stroke-width="2.33" stroke-opacity="1.00" stroke-linejoin="round"/>
<path d="M231.74,265.00 C231.74,265.00 230.96,263.83 230.96,263.83 C235.14,270.99 241.34,288.34 241.54,288.74 C241.65,288.96 241.89,289.37 242.28,289.97" fill="none" stroke="rgb(0, 0, 255)" stroke-width="2.33" stroke-opacity="1.00" stroke-linejoin="round"/>
<path d="M254.76,253.30 C254.76,253.30 253.01,253.25 253.01,253.25 C252.74,251.76 254.49,248.30 255.96,245.46 C256.15,245.05 256.40,244.41 256.71,243.56 C256.85,244.86 257.16,247.94 257.35,249.72 C257.51,251.36 257.77,254.12 257.88,255.23" fill="none" stroke="rgb(0, 0, 255)" stroke-width="2.33" stroke-opacity="1.00" stroke-linejoin="round"/>
<path d="M257.10,252.52 C257.10,252.52 255.54,252.52 255.54,252.52 C256.71,255.02 257.29,256.65 257.61,258.59 C258.13,261.91 259.23,268.56 260.07,270.59 C260.50,271.59 264.03,276.89 264.99,280.37 C266.18,284.70 267.02,288.17 267.42,290.29 C267.42,290.29 267.25,289.97 267.25,289.97" fill="none" stroke="rgb(0, 0, 255)" stroke-width="2.33" stroke-opacity="1.00" stroke-linejoin="round"/>
<path d="M262.95,273.19 C262.95,273.19 262.06,273.19 262.06,273.19 C262.06,273.19 261.87,273.39 261.87,273.39 C261.77,273.49 266.67,278.24 268.68,280.99 C272.04,285.71 274.26,293.76 274.24,293.72 C274.24,293.72 273.88,292.70 273.88,292.70" fill="none" stroke="rgb(0, 0, 255)" stroke-width="2.33" stroke-opacity="1.00" stroke-linejoin="round"/>
<path d="M274.66,291.53 C274.66,291.53 274.07,292.51 274.07,292.51 C274.07,292.51 273.88,292.47 273.88,292.47 C273.80,279.84 271.26,263.19 271.12,262.85 C271.03,262.67 270.78,262.21 270.37,261.49" fill="none" stroke="rgb(0, 0, 255)" stroke-width="2.33" stroke-opacity="1.00" stroke-linejoin="round"/>
</g>
</svg>
