<?xml version="1.0" encoding="UTF-8" standalone="no"?>
<!DOCTYPE svg PUBLIC "-//W3C//DTD SVG 1.1//EN" "http://www.w3.org/Graphics/SVG/1.1/DTD/svg11.dtd">
<svg width="128.40" height="181.68" viewBox="0.00 0.00 535.00 757.00" xmlns="http://www.w3.org/2000/svg" xmlns:xlink="http://www.w3.org/1999/xlink">
<g stroke-linecap="round" transform="translate(44.00, 155.00)" id="130-구름-1">
<path d="M49.16,46.52 C49.16,46.52 46.03,45.74 46.03,45.74 C46.49,46.47 47.48,47.87 47.86,48.40 C49.42,50.55 52.89,53.11 55.59,53.81 C58.59,54.54 64.09,53.85 66.63,52.48 C67.94,51.75 73.11,46.93 76.49,44.63 C79.66,42.51 85.82,39.73 90.20,38.63 C95.33,37.38 101.93,37.63 109.26,39.19 C115.46,40.52 126.23,44.61 129.42,47.17 C132.07,49.44 139.55,54.31 140.67,55.61 C140.76,57.04 139.14,59.95 137.19,61.21 C135.96,61.99 128.12,65.68 126.51,66.70 C124.07,68.28 121.72,70.53 118.28,74.75 C115.85,77.66 110.01,80.32 107.00,80.87 C104.49,81.29 79.81,81.25 74.78,80.50 C70.62,79.85 57.97,75.01 56.87,73.94 C56.14,73.18 55.36,70.66 55.24,69.02 C55.16,67.34 55.60,64.05 56.15,62.33 C57.19,59.21 60.79,54.95 62.81,53.17 C64.66,51.58 68.41,49.06 70.84,47.87 C73.78,46.46 79.50,44.56 82.72,43.98 C85.89,43.44 91.54,43.15 94.00,43.38 C96.87,43.68 102.23,45.38 103.05,47.14 C103.17,47.42 103.28,47.97 103.37,48.79 C102.78,49.78 101.66,50.87 100.36,51.44 C98.54,52.21 93.25,52.87 91.99,53.02" fill="none" stroke="rgb(228, 0, 126)" stroke-width="2.33" stroke-opacity="1.00" stroke-linejoin="round"/>
</g>
</svg>
