<?xml version="1.0" encoding="UTF-8" standalone="no"?>
<!DOCTYPE svg PUBLIC "-//W3C//DTD SVG 1.1//EN" "http://www.w3.org/Graphics/SVG/1.1/DTD/svg11.dtd">
<svg width="535.00" height="757.00" viewBox="0.00 0.00 535.00 757.00" xmlns="http://www.w3.org/2000/svg" xmlns:xlink="http://www.w3.org/1999/xlink">
<g stroke-linecap="round" transform="translate(44.00, 155.00)" id="131-구름-2">
<path d="M282.21,54.04 C282.21,54.04 282.52,54.09 282.52,54.09 C281.64,53.55 277.33,51.35 275.92,49.42 C275.47,48.77 275.11,48.00 274.96,47.33 C274.84,46.26 278.48,41.35 281.83,39.35 C283.35,38.48 288.09,37.88 290.03,37.99 C292.09,38.13 298.03,39.49 299.37,40.18 C301.23,41.18 303.82,44.51 303.76,45.19 C303.68,45.86 303.58,46.36 303.46,46.68 C303.38,46.89 303.20,47.17 302.94,47.52" fill="none" stroke="rgb(255, 0, 255)" stroke-width="2.40" stroke-opacity="1.00" stroke-linejoin="round"/>
<path d="M298.12,49.11 C299.04,49.27 305.21,46.07 306.23,45.58 C308.51,44.48 315.85,42.64 317.91,42.81 C320.94,43.09 322.31,43.64 323.06,43.90 C324.12,44.97 324.80,45.40 325.35,45.21 C326.37,44.90 331.69,46.87 332.69,47.90 C333.24,48.49 333.55,49.56 333.38,50.24 C332.89,51.85 328.01,53.77 328.01,53.76 C330.48,53.21 337.17,52.99 339.42,53.56 C340.71,53.90 342.83,55.07 343.33,55.71 C343.95,56.58 344.76,62.40 344.72,65.33 C344.69,66.55 342.78,68.22 340.76,68.49 C338.62,68.74 333.28,68.13 331.34,67.45 C329.73,66.86 328.82,65.94 328.26,65.21 C328.14,65.45 326.70,72.56 325.48,74.73 C324.47,76.45 320.99,79.44 319.15,80.28 C317.86,80.85 312.61,82.62 311.58,82.58 C310.18,82.50 306.31,79.92 305.07,78.12 C303.82,76.22 303.49,72.35 303.78,70.69 C303.73,70.83 301.92,73.89 300.14,75.41 C298.21,77.03 295.73,77.98 291.67,79.29 C287.76,80.55 285.44,81.07 282.88,80.77 C280.24,80.43 275.82,79.00 274.99,78.08 C274.12,77.08 271.59,73.20 271.49,73.15 C269.93,73.78 262.05,74.57 259.07,73.78 C255.55,72.81 252.12,69.54 251.34,68.13 C250.57,66.63 250.73,62.92 251.68,60.68 C252.92,57.88 256.53,55.10 259.21,54.44 C263.78,53.37 277.04,53.93 280.46,55.22 C280.80,55.35 281.05,55.55 281.20,55.83 C281.20,55.83 281.23,56.14 281.23,56.14" fill="none" stroke="rgb(255, 0, 255)" stroke-width="2.40" stroke-opacity="1.00" stroke-linejoin="round"/>
<path d="M260.94,58.14 C259.71,59.05 259.02,59.82 258.36,61.18 C257.17,63.64 255.51,67.08 255.03,68.05 C257.26,67.59 266.48,57.80 269.53,54.41 C268.34,54.07 257.27,62.90 256.50,65.16 C259.32,65.24 260.88,65.05 262.19,64.29 C266.81,61.60 273.19,56.87 273.28,56.43 C272.02,56.44 267.48,58.26 265.54,59.57 C260.20,63.28 258.94,66.44 258.49,68.65 C259.40,69.55 263.16,69.01 265.85,68.03 C271.54,65.92 282.29,59.30 285.34,56.44 C285.34,56.44 285.30,55.04 285.30,55.04 C283.57,54.71 279.24,54.82 276.74,55.53 C270.40,57.43 263.08,64.24 261.84,66.24 C261.84,66.24 262.47,68.19 262.47,68.19 C264.53,68.80 270.23,68.70 273.65,67.73 C278.30,66.39 287.83,61.33 291.67,58.26 C294.28,56.15 296.52,53.43 297.29,52.34 C297.29,52.34 296.81,50.62 296.81,50.62 C295.13,50.20 290.53,50.33 287.66,50.93 C279.83,52.60 277.08,53.96 276.33,54.50 C277.71,54.89 283.14,55.20 285.36,55.17 C289.46,55.07 295.77,53.69 299.32,52.13 C300.83,51.45 301.87,50.54 303.14,49.00 C302.06,47.78 301.13,47.14 299.64,46.76 C287.60,43.73 278.90,46.26 277.25,46.88 C279.75,47.93 284.89,48.12 287.75,48.02 C290.90,47.90 295.53,47.09 298.34,45.90 C296.89,44.17 295.83,43.39 294.26,43.07 C291.12,42.44 287.27,42.16 284.30,42.43 C282.55,42.60 278.65,43.53 277.15,44.53 C277.70,45.57 284.29,46.39 288.02,46.27 C291.21,46.14 296.16,45.12 297.14,44.30 C296.58,43.04 289.85,41.51 287.99,41.17 C287.99,41.17 292.37,44.95 292.37,44.95" fill="none" stroke="rgb(255, 0, 255)" stroke-width="2.40" stroke-opacity="1.00" stroke-linejoin="round"/>
<path d="M304.46,49.77 C301.73,50.02 297.59,51.20 296.04,51.92 C286.96,56.26 279.20,64.50 278.63,65.20 C280.86,66.27 282.26,66.50 284.04,65.94 C290.40,63.92 303.19,58.18 308.74,54.16 C312.31,51.55 314.49,49.60 314.90,49.09 C311.90,48.30 310.24,48.05 308.86,48.30 C304.52,49.11 295.31,54.05 287.90,59.31 C281.13,64.27 277.74,67.59 276.77,68.60 C277.42,69.27 278.00,69.51 279.34,69.50 C282.89,69.42 287.59,68.25 290.23,67.12 C298.07,63.65 321.74,48.17 321.96,47.05 C320.48,46.67 315.80,47.23 312.37,48.27 C302.78,51.26 290.64,58.67 289.87,59.15 C294.89,58.98 303.39,56.77 314.15,53.29 C317.10,52.34 326.80,49.25 328.88,48.34 C326.74,47.28 317.57,47.85 308.83,49.80 C306.75,50.26 305.67,50.59 304.27,51.13 C304.43,52.05 326.06,51.58 329.26,50.37 C329.60,50.24 329.88,50.00 330.10,49.67 C326.95,48.53 314.54,48.68 311.37,49.48 C312.61,51.36 313.58,52.31 315.13,52.97 C318.14,54.23 321.84,55.00 324.53,54.69 C325.78,54.53 326.88,53.87 328.56,52.44 C328.56,52.44 327.80,50.30 327.80,50.30 C325.65,48.95 320.68,47.82 317.97,47.67 C313.22,47.46 302.78,48.82 297.05,50.38 C291.10,52.07 278.75,57.06 277.08,58.32 C276.09,59.11 276.32,60.88 276.64,62.10 C275.20,61.97 274.17,61.86 272.28,61.62 C263.41,60.45 261.29,59.91 259.17,59.33 C259.17,59.33 266.21,59.64 266.21,59.64 C265.75,59.23 260.59,59.01 257.78,59.50 C254.47,60.13 252.88,61.88 252.18,63.33 C252.41,64.94 253.37,66.45 255.07,67.65 C256.15,68.39 260.12,69.26 264.28,68.97 C266.51,68.79 269.18,67.83 269.92,67.31 C269.48,66.57 263.41,65.34 260.85,65.42 C259.25,65.49 258.01,65.91 257.06,66.55 C257.06,66.55 256.95,68.00 256.95,68.00 C258.37,69.44 259.41,70.15 261.01,70.66 C263.73,71.49 268.04,71.84 271.18,71.48 C274.28,71.07 279.35,68.81 279.60,67.63 C278.46,66.65 273.02,65.94 269.80,66.38 C268.01,66.64 266.74,67.24 265.75,68.10 C265.75,68.10 266.34,69.67 266.34,69.67 C267.99,70.73 272.70,72.03 276.03,72.21 C279.71,72.37 286.48,70.88 289.34,69.35 C292.44,67.63 293.30,66.26 293.66,64.95 C291.40,64.44 287.35,65.18 285.18,65.76 C281.12,66.86 275.01,69.57 273.57,71.18 C274.14,72.49 274.77,73.22 276.11,73.94 C278.54,75.22 283.86,76.47 287.04,76.21 C289.64,75.96 294.21,74.22 296.65,72.40 C295.26,70.92 293.56,70.22 290.58,70.03 C286.04,69.76 279.43,71.76 276.83,73.71 C276.83,73.71 276.75,75.19 276.75,75.19 C279.31,76.90 284.16,77.77 286.15,77.72 C288.00,77.65 293.36,76.40 295.46,75.43 C298.09,74.16 299.54,72.80 301.09,71.03 C301.09,71.03 300.75,69.09 300.75,69.09 C299.28,68.11 295.03,67.17 292.04,67.23 C285.77,67.42 281.31,70.23 279.60,71.54 C279.95,72.73 280.56,73.36 282.10,73.91 C284.86,74.87 290.66,75.51 294.67,74.65 C298.40,73.81 306.34,68.72 310.61,64.77 C316.56,59.22 318.02,56.39 318.58,54.63 C316.28,54.06 312.49,54.94 309.63,55.90 C305.61,57.30 295.09,64.32 292.80,67.18 C292.80,67.18 293.08,68.78 293.08,68.78 C295.00,69.20 299.91,68.34 302.39,67.35 C311.47,63.65 325.21,54.18 326.57,52.95 C323.65,52.55 313.91,54.53 308.83,56.44 C303.88,58.32 298.44,61.58 295.94,63.33 C294.25,64.51 293.35,65.80 292.66,67.75 C293.89,68.79 298.17,70.12 301.05,69.94 C303.69,69.75 309.62,67.56 311.77,66.42 C317.44,63.36 325.92,56.95 326.81,55.38 C324.37,55.10 320.22,55.60 317.78,56.28 C313.22,57.60 304.51,62.74 301.11,65.64 C299.00,67.47 297.53,69.46 297.28,70.19 C298.66,71.00 299.69,71.32 301.17,71.25 C304.21,71.07 309.16,69.60 313.57,67.42 C317.06,65.67 324.47,60.39 326.39,58.80 C324.25,58.59 322.86,58.69 321.30,59.29 C316.44,61.17 307.09,67.33 305.12,69.95 C305.12,69.95 305.05,71.78 305.05,71.78 C307.03,72.64 308.41,73.01 309.78,72.92 C312.88,72.67 317.72,70.39 320.77,67.85 C321.39,67.32 326.05,62.95 326.65,61.43 C324.08,61.60 319.90,63.59 318.21,64.68 C315.43,66.50 310.52,71.17 308.55,73.56 C306.40,76.23 306.19,77.14 306.33,78.43 C308.07,78.97 309.27,79.15 310.44,78.89 C313.11,78.27 317.57,75.51 320.38,72.83 C320.92,72.30 325.14,67.88 325.58,66.32 C324.10,65.64 319.02,66.71 316.68,68.22 C312.72,70.87 308.47,76.97 308.10,78.69 C308.10,78.69 308.98,80.44 308.98,80.44 C311.33,80.71 312.86,80.64 314.11,80.06 C318.78,77.85 324.82,70.10 326.10,67.69 C326.68,66.57 326.73,65.65 326.44,64.18 C324.77,63.95 323.67,64.01 322.67,64.56 C320.59,65.73 317.58,68.92 315.93,71.60 C315.25,72.73 315.10,73.71 315.23,75.33 C316.76,75.78 317.73,75.84 318.87,75.39 C323.37,73.56 328.89,67.76 329.86,66.53" fill="none" stroke="rgb(255, 0, 255)" stroke-width="2.40" stroke-opacity="1.00" stroke-linejoin="round"/>
<path d="M334.00,56.63 C332.60,56.41 331.93,56.33 331.59,56.42 C330.51,56.76 328.25,60.42 328.22,63.00 C328.22,63.00 329.30,64.38 329.30,64.38 C330.75,64.79 332.28,64.80 333.72,64.26 C336.60,63.13 337.86,61.43 338.16,60.40 C337.79,59.31 337.04,58.24 335.96,57.52 C334.85,56.82 332.51,56.21 331.32,56.40 C329.90,56.66 328.15,58.30 327.55,59.78 C327.08,61.06 328.51,64.56 330.13,65.59 C331.76,66.56 336.05,66.70 337.45,66.10 C339.09,65.37 340.16,64.28 340.62,63.03 C340.20,61.56 339.18,60.09 337.53,58.93 C335.05,57.20 332.17,56.26 331.15,56.08 C330.84,57.55 331.20,58.85 332.59,60.33 C333.85,61.65 336.10,63.28 337.39,63.77 C338.75,64.28 340.22,64.17 341.56,63.68 C341.56,63.68 342.14,62.08 342.14,62.08 C341.33,60.45 340.14,59.04 338.56,58.06 C336.23,56.62 334.15,56.35 333.39,56.43 C333.58,57.89 334.13,58.89 335.32,59.50 C337.43,60.56 339.01,59.87 339.76,59.14 C339.92,57.98 339.59,56.76 338.68,55.90 C337.34,54.63 335.82,54.64 335.40,54.81 C335.40,54.81 338.94,58.05 338.94,58.05" fill="none" stroke="rgb(255, 0, 255)" stroke-width="2.40" stroke-opacity="1.00" stroke-linejoin="round"/>
<path d="M335.65,58.50 C335.61,58.70 336.98,57.58 335.99,56.70 C334.75,55.64 332.54,55.72 331.34,55.98 C331.34,55.98 329.90,58.03 329.90,58.03" fill="none" stroke="rgb(255, 0, 255)" stroke-width="2.40" stroke-opacity="1.00" stroke-linejoin="round"/>
<path d="M324.39,48.04 C324.39,48.04 319.40,50.06 319.40,50.06 C319.40,50.06 320.63,52.17 320.63,52.17 C320.63,52.17 321.22,52.03 321.22,52.03 C321.12,50.87 320.61,50.12 319.30,49.66 C312.56,47.35 303.10,48.43 302.35,49.22 C302.35,49.22 310.07,49.56 310.07,49.56 C309.54,48.31 308.60,47.60 306.48,47.07 C302.11,46.03 297.75,45.34 297.83,45.60 C297.83,45.60 303.63,45.79 303.63,45.79 C302.90,45.22 301.68,44.75 298.85,44.04 C296.01,43.32 294.82,42.93 294.14,42.53 C294.14,42.53 294.31,42.05 294.31,42.05 C294.31,42.05 295.09,41.38 295.09,41.38 C294.69,41.12 294.29,40.98 293.89,40.94 C293.49,40.91 292.54,40.93 291.04,41.02" fill="none" stroke="rgb(255, 0, 255)" stroke-width="2.40" stroke-opacity="1.00" stroke-linejoin="round"/>
</g>
</svg>
