<?xml version="1.0" encoding="UTF-8" standalone="no"?>
<!DOCTYPE svg PUBLIC "-//W3C//DTD SVG 1.1//EN" "http://www.w3.org/Graphics/SVG/1.1/DTD/svg11.dtd">
<svg width="535.00" height="757.00" viewBox="0.00 0.00 535.00 757.00" xmlns="http://www.w3.org/2000/svg" xmlns:xlink="http://www.w3.org/1999/xlink">
<g stroke-linecap="round" transform="translate(44.00, 155.00)" id="131-구름-1">
<path d="M109.91,68.59 C111.90,67.55 116.07,66.84 118.78,66.90 C123.80,67.05 128.88,68.73 130.60,70.34 C132.14,71.84 133.12,76.47 132.68,78.40 C132.22,80.21 129.57,83.64 127.87,84.86 C126.23,86.01 121.63,87.92 119.52,88.43 C116.37,89.17 107.76,87.12 107.83,86.75 C107.89,87.16 105.18,91.07 103.66,92.77 C100.98,95.71 96.29,99.25 94.36,100.10 C90.39,101.79 79.17,101.99 73.11,101.28 C71.19,101.05 65.15,100.12 63.65,99.58 C61.85,98.91 57.40,96.36 55.96,95.08 C53.14,92.49 51.85,85.94 51.67,85.03 C51.57,85.40 42.63,93.30 38.64,95.33 C36.42,96.44 32.48,97.81 29.96,98.18 C27.28,98.56 22.61,98.80 21.08,98.44 C19.15,97.95 15.35,95.48 14.73,94.43 C14.20,93.44 14.32,89.44 14.87,87.12 C15.27,85.54 18.53,78.83 19.92,75.93 C20.81,74.20 23.90,69.49 25.70,67.66 C27.06,66.29 31.25,62.81 32.94,61.86 C34.67,60.91 39.44,59.29 40.94,58.97 C42.73,58.62 45.23,59.37 46.82,60.42 C47.93,61.17 49.81,63.49 49.87,63.60 C49.87,63.60 49.41,63.20 49.41,63.20" fill="none" stroke="rgb(255, 0, 255)" stroke-width="2.40" stroke-opacity="1.00" stroke-linejoin="round"/>
<path d="M115.56,64.25 C115.56,64.25 115.27,66.10 115.27,66.10 C115.84,61.81 114.78,57.66 113.62,55.95 C112.27,54.06 100.85,45.90 96.94,44.68 C94.68,44.00 90.86,43.84 88.19,44.17 C82.56,44.92 77.29,46.79 66.42,51.09 C62.60,52.62 52.78,58.85 50.28,60.84 C49.88,61.16 49.05,61.85 47.77,62.93" fill="none" stroke="rgb(255, 0, 255)" stroke-width="2.40" stroke-opacity="1.00" stroke-linejoin="round"/>
<path d="M59.20,59.50 C63.06,56.25 65.62,54.38 69.32,53.11 C71.57,52.35 76.48,50.30 80.04,49.36 C83.82,48.38 89.41,47.70 93.44,47.89 C101.97,48.37 103.64,49.94 103.77,50.34 C103.66,50.59 89.41,53.28 82.75,55.06 C81.04,55.52 61.77,61.55 59.05,63.29 C58.28,63.79 56.95,65.01 55.80,66.12" fill="none" stroke="rgb(255, 0, 255)" stroke-width="2.40" stroke-opacity="1.00" stroke-linejoin="round"/>
<path d="M54.74,66.86 C54.74,66.86 54.81,67.16 54.81,67.16 C55.12,67.20 55.81,67.12 56.39,66.88 C57.46,66.42 62.75,62.77 63.61,62.32 C64.13,62.04 65.18,61.58 66.74,60.93" fill="none" stroke="rgb(255, 0, 255)" stroke-width="2.40" stroke-opacity="1.00" stroke-linejoin="round"/>
<path d="M71.57,60.72 C72.21,60.62 72.86,60.52 73.51,60.43 C74.69,60.26 75.80,60.19 77.02,60.18" fill="none" stroke="rgb(255, 0, 255)" stroke-width="2.40" stroke-opacity="1.00" stroke-linejoin="round"/>
<path d="M79.18,60.48 C79.18,60.48 80.34,60.66 80.34,60.66" fill="none" stroke="rgb(255, 0, 255)" stroke-width="2.40" stroke-opacity="1.00" stroke-linejoin="round"/>
<path d="M80.80,60.73 C81.07,60.48 84.66,57.00 87.17,56.54 C89.50,56.13 92.85,54.81 95.38,54.89 C96.00,54.92 100.96,55.26 102.98,55.00 C102.98,55.00 101.91,54.55 101.91,54.55" fill="none" stroke="rgb(255, 0, 255)" stroke-width="2.40" stroke-opacity="1.00" stroke-linejoin="round"/>
<path d="M92.56,55.22 C92.23,55.42 91.55,55.69 90.92,55.83 C85.32,56.79 72.70,61.11 66.00,63.38 C62.75,64.50 58.95,65.93 57.47,66.43 C54.64,67.28 49.61,68.88 46.01,71.54 C42.75,74.03 39.51,76.41 38.08,77.15 C38.39,74.26 47.10,66.79 47.19,66.64 C40.65,68.09 32.59,73.01 28.83,75.88 C28.83,75.88 44.30,61.97 44.30,61.97 C43.09,62.16 37.61,64.10 34.98,65.24 C27.67,68.45 24.71,72.86 24.76,73.11 C24.76,73.11 30.21,69.20 30.21,69.20" fill="none" stroke="rgb(255, 0, 255)" stroke-width="2.40" stroke-opacity="1.00" stroke-linejoin="round"/>
<path d="M35.35,68.10 C34.63,68.25 33.48,68.78 31.48,71.88 C29.89,74.27 20.54,84.49 18.33,88.24 C18.32,88.24 28.95,82.49 37.26,76.83 C37.95,76.35 38.64,75.87 39.33,75.39 C37.07,76.97 35.56,78.14 34.24,79.45 C31.53,82.13 23.38,91.59 20.82,94.58 C21.88,94.12 36.06,86.25 41.58,83.97 C44.68,82.69 61.67,76.26 67.87,73.94 C72.34,72.28 85.36,67.76 90.98,66.96 C92.32,66.77 98.65,65.96 101.33,65.35 C101.25,65.39 100.80,65.55 100.51,65.70 C98.35,66.67 92.96,66.76 91.00,66.87 C84.18,67.26 68.43,68.34 64.00,69.61 C57.42,71.55 55.77,74.31 55.63,75.29 C57.21,75.30 70.29,70.21 75.33,68.72 C76.75,68.29 94.05,63.41 98.45,61.66 C101.15,60.58 106.14,58.30 106.88,57.73 C105.47,58.01 97.26,61.55 95.85,62.13 C93.77,62.98 78.42,68.45 74.97,69.99 C67.19,73.48 62.13,76.98 59.62,78.83 C60.79,79.33 64.87,78.60 68.15,77.60 C68.62,77.45 86.30,72.33 93.73,70.51 C97.04,69.63 106.28,66.59 106.93,66.37 C105.52,65.81 95.95,68.83 83.33,73.17 C73.77,76.54 58.02,82.67 57.33,82.98 C52.89,85.07 48.11,87.91 47.78,88.67 C47.78,88.67 49.35,89.24 49.35,89.24" fill="none" stroke="rgb(255, 0, 255)" stroke-width="2.40" stroke-opacity="1.00" stroke-linejoin="round"/>
<path d="M63.81,80.12 C63.28,80.09 59.95,81.13 55.70,82.87 C53.00,83.98 47.19,85.97 45.33,86.85 C42.43,88.25 32.41,94.34 32.55,94.34 C33.98,94.15 36.56,93.21 40.13,91.29 C40.84,90.90 41.56,90.52 42.27,90.13" fill="none" stroke="rgb(255, 0, 255)" stroke-width="2.40" stroke-opacity="1.00" stroke-linejoin="round"/>
<path d="M47.21,86.30 C47.21,86.30 49.01,85.39 49.01,85.39" fill="none" stroke="rgb(255, 0, 255)" stroke-width="2.40" stroke-opacity="1.00" stroke-linejoin="round"/>
<path d="M47.91,80.25 C47.91,80.25 46.71,82.25 46.71,82.25" fill="none" stroke="rgb(255, 0, 255)" stroke-width="2.40" stroke-opacity="1.00" stroke-linejoin="round"/>
<path d="M46.65,80.76 C46.65,80.76 44.10,80.36 44.10,80.36" fill="none" stroke="rgb(255, 0, 255)" stroke-width="2.40" stroke-opacity="1.00" stroke-linejoin="round"/>
<path d="M42.16,82.19 C42.16,82.19 43.16,81.88 43.16,81.88" fill="none" stroke="rgb(255, 0, 255)" stroke-width="2.40" stroke-opacity="1.00" stroke-linejoin="round"/>
<path d="M41.61,81.16 C41.61,81.16 41.66,80.81 41.66,80.81 C48.18,77.84 53.68,75.18 61.23,73.26 C69.14,71.36 73.17,70.22 75.56,69.65 C74.99,69.56 74.48,69.55 74.03,69.62 C73.59,69.69 72.58,69.96 71.01,70.41" fill="none" stroke="rgb(255, 0, 255)" stroke-width="2.40" stroke-opacity="1.00" stroke-linejoin="round"/>
<path d="M87.80,78.17 C87.27,77.86 86.26,77.15 85.95,76.76 C85.62,76.36 84.63,75.13 83.62,74.91 C81.72,74.57 68.27,79.98 63.24,82.01 C56.15,85.01 54.00,87.44 53.32,88.44 C54.92,88.80 59.36,87.88 63.63,86.48 C115.46,68.95 118.34,67.60 120.35,66.58 C118.90,66.87 104.64,72.37 98.45,73.51 C88.66,75.14 82.86,76.96 82.23,77.48 C82.23,77.48 84.22,78.32 84.22,78.32" fill="none" stroke="rgb(255, 0, 255)" stroke-width="2.40" stroke-opacity="1.00" stroke-linejoin="round"/>
<path d="M113.71,71.55 C112.20,71.95 107.97,73.95 102.40,75.75 C98.97,76.87 84.35,82.24 78.42,84.39 C73.71,86.19 67.83,90.06 66.66,90.91 C67.27,91.04 68.96,90.88 71.10,90.44 C73.38,89.97 87.88,85.60 98.28,83.02 C106.54,80.96 109.36,79.41 110.79,78.48 C109.52,77.51 108.81,77.16 107.52,77.14 C103.38,77.09 97.47,77.97 93.73,78.89 C82.86,81.60 70.06,84.25 66.01,86.01 C63.06,87.30 59.80,88.55 59.63,88.66 C59.85,88.97 62.54,90.43 65.38,91.08 C71.09,92.36 82.45,91.14 87.28,89.74 C90.33,88.84 94.11,87.29 94.56,87.12 C88.82,86.40 62.76,90.88 62.52,91.27 C62.87,91.39 69.35,94.11 73.53,94.72 C79.29,95.50 91.34,93.86 98.71,91.80 C101.22,91.10 105.90,90.08 106.39,89.66 C102.16,89.33 97.63,89.91 93.96,90.61 C86.95,91.98 72.67,94.78 68.90,96.06 C67.01,96.72 65.30,98.01 65.26,98.29 C67.58,98.90 82.20,99.35 88.27,98.49 C91.46,98.03 98.54,96.09 98.42,96.17 C98.52,96.01 95.64,96.68 95.25,96.73 C95.08,96.75 94.75,96.75 94.25,96.73" fill="none" stroke="rgb(255, 0, 255)" stroke-width="2.40" stroke-opacity="1.00" stroke-linejoin="round"/>
<path d="M103.74,82.31 C103.74,82.31 94.52,83.93 94.52,83.93 C94.98,83.86 108.34,79.23 119.75,76.02 C125.91,74.30 129.97,73.01 130.49,72.56 C130.30,72.33 124.61,71.11 122.35,71.04 C120.00,71.00 115.07,71.48 112.41,72.20 C105.69,74.07 101.43,76.83 101.00,77.21 C105.16,78.49 125.51,73.75 125.79,73.45 C124.89,73.23 118.55,71.85 116.45,72.05 C114.10,72.31 110.41,73.57 108.68,74.69 C106.90,75.87 106.41,77.10 106.32,77.97 C106.91,79.42 110.69,81.43 113.95,81.96 C119.33,82.78 128.93,79.93 129.71,79.31 C127.05,79.15 122.55,79.62 117.53,80.33 C110.38,81.44 108.46,82.85 107.95,83.50 C109.31,84.43 115.44,85.33 118.48,85.14 C121.10,84.93 125.51,83.73 127.32,83.13 C125.27,82.36 118.98,81.59 116.48,81.66 C111.00,81.88 104.00,84.79 102.49,85.89 C103.13,86.82 104.01,87.36 105.61,87.62 C108.21,88.03 112.22,87.61 112.53,87.19 C112.53,87.19 94.74,87.37 94.74,87.37 C94.74,87.37 96.06,87.14 96.06,87.14" fill="none" stroke="rgb(255, 0, 255)" stroke-width="2.40" stroke-opacity="1.00" stroke-linejoin="round"/>
<path d="M126.94,77.87 C126.75,77.84 126.55,77.81 126.36,77.78 C126.09,77.74 125.82,77.70 125.55,77.66 C125.55,77.66 127.22,78.71 127.22,78.71" fill="none" stroke="rgb(255, 0, 255)" stroke-width="2.40" stroke-opacity="1.00" stroke-linejoin="round"/>
</g>
</svg>
