<?xml version="1.0" encoding="UTF-8" standalone="no"?>
<!DOCTYPE svg PUBLIC "-//W3C//DTD SVG 1.1//EN" "http://www.w3.org/Graphics/SVG/1.1/DTD/svg11.dtd">
<svg width="128.40" height="181.68" viewBox="0.00 0.00 535.00 757.00" xmlns="http://www.w3.org/2000/svg" xmlns:xlink="http://www.w3.org/1999/xlink">
<g stroke-linecap="round" transform="translate(44.00, 155.00)" id="132-구름-3">
<path d="M176.42,58.49 C174.18,59.64 172.34,59.72 168.01,59.34 C167.72,59.32 160.04,58.74 158.14,58.19 C154.43,57.11 151.00,55.64 150.61,54.62 C150.92,53.25 153.18,50.74 155.71,48.73 C158.24,46.75 164.15,43.39 166.59,42.39 C169.37,41.29 174.23,41.00 175.66,41.89 C177.04,42.78 178.44,44.20 180.52,46.71 C181.93,48.36 183.98,49.83 185.44,50.00 C188.32,50.29 201.59,46.02 205.68,45.43 C207.11,45.25 210.09,45.42 211.64,45.79 C212.92,46.11 214.73,48.96 214.53,50.16 C214.06,52.62 210.92,56.84 208.66,58.87 C206.64,60.65 202.53,63.33 200.40,64.17 C198.69,64.83 193.60,66.01 190.97,65.90 C189.76,65.84 179.67,64.74 178.53,64.56 C176.96,64.30 172.04,62.30 170.72,61.06 C170.04,60.39 169.05,58.77 168.96,58.16 C168.91,57.72 169.88,55.23 170.47,53.73" fill="none" stroke="rgb(0, 160, 232)" stroke-width="2.34" stroke-opacity="1.00" stroke-linejoin="round"/>
</g>
</svg>
