<?xml version="1.0" encoding="UTF-8" standalone="no"?>
<!DOCTYPE svg PUBLIC "-//W3C//DTD SVG 1.1//EN" "http://www.w3.org/Graphics/SVG/1.1/DTD/svg11.dtd">
<svg width="128.40" height="181.68" viewBox="0.00 0.00 535.00 757.00" xmlns="http://www.w3.org/2000/svg" xmlns:xlink="http://www.w3.org/1999/xlink">
<g stroke-linecap="round" transform="translate(44.00, 155.00)" id="132-구름-1">
<path d="M62.23,62.85 C62.23,62.85 61.83,63.25 61.83,63.25 C60.86,65.63 58.04,69.18 55.73,70.87 C54.14,72.00 53.03,72.69 51.02,73.79 C51.05,73.49 51.08,73.27 51.12,73.15 C51.16,73.03 51.27,72.83 51.43,72.54" fill="none" stroke="rgb(0, 160, 232)" stroke-width="2.34" stroke-opacity="1.00" stroke-linejoin="round"/>
<path d="M62.62,64.44 C62.43,64.42 62.30,64.42 62.23,64.44 C62.15,64.45 62.03,64.51 61.87,64.61 C62.14,64.92 64.06,60.01 64.56,57.18 C64.89,55.26 65.09,48.31 64.24,45.44 C63.90,44.39 60.73,42.74 57.65,42.09 C53.90,41.34 46.75,41.94 43.21,43.32 C41.51,44.01 37.79,46.07 36.37,47.13 C34.74,48.40 32.76,50.88 32.20,52.41 C31.32,55.00 32.41,61.89 33.88,64.37 C35.54,67.07 40.39,69.20 42.98,69.32 C45.06,69.36 50.77,68.40 53.48,66.91 C53.48,66.91 51.52,67.21 51.52,67.21" fill="none" stroke="rgb(0, 160, 232)" stroke-width="2.34" stroke-opacity="1.00" stroke-linejoin="round"/>
<path d="M39.23,66.81 C39.23,66.81 36.89,68.36 36.89,68.36 C37.36,67.15 40.76,62.47 41.34,61.54 C42.51,59.62 44.28,53.79 44.39,51.76 C44.46,49.88 43.38,47.75 41.27,46.41 C39.21,45.15 35.45,45.06 32.73,45.72 C29.60,46.52 24.09,48.81 21.81,50.31 C18.87,52.35 15.09,56.61 13.77,60.95 C13.29,62.65 13.94,67.32 15.37,68.84 C16.28,69.73 19.01,70.78 20.67,70.81 C23.70,70.82 29.21,68.82 30.60,68.10 C32.41,67.12 35.70,64.35 37.64,62.45" fill="none" stroke="rgb(0, 160, 232)" stroke-width="2.34" stroke-opacity="1.00" stroke-linejoin="round"/>
</g>
</svg>
