<?xml version="1.0" encoding="UTF-8" standalone="no"?>
<!DOCTYPE svg PUBLIC "-//W3C//DTD SVG 1.1//EN" "http://www.w3.org/Graphics/SVG/1.1/DTD/svg11.dtd">
<svg width="128.40" height="181.68" viewBox="0.00 0.00 535.00 757.00" xmlns="http://www.w3.org/2000/svg" xmlns:xlink="http://www.w3.org/1999/xlink">
<g stroke-linecap="round" transform="translate(44.00, 155.00)" id="132-구름-4">
<path d="M320.35,53.33 C320.35,53.33 320.35,54.29 320.35,54.29 C320.35,54.29 319.97,54.71 319.97,54.71 C319.82,54.69 314.01,56.49 308.79,57.77 C304.06,58.90 303.15,59.00 300.63,58.14 C292.44,55.34 286.65,52.85 279.86,48.88 C277.93,47.76 273.53,46.27 270.94,46.01 C268.23,45.77 264.33,45.94 262.58,46.73 C260.62,47.65 256.06,52.17 254.98,54.27 C254.38,55.49 254.18,57.65 254.69,58.55 C255.86,60.48 260.77,61.57 261.60,61.42 C261.94,61.35 262.47,61.09 263.18,60.63" fill="none" stroke="rgb(0, 160, 232)" stroke-width="2.34" stroke-opacity="1.00" stroke-linejoin="round"/>
<path d="M254.93,48.97 C254.93,48.97 253.54,48.58 253.54,48.58 C253.29,48.65 251.33,54.13 250.91,55.63 C250.31,57.84 249.66,63.41 250.85,65.38 C252.09,67.31 259.40,69.80 269.94,72.36 C273.72,73.27 288.72,75.89 293.62,77.05 C298.36,77.97 303.72,78.48 308.25,78.15 C311.35,77.88 313.82,77.45 315.57,76.78 C318.87,75.47 325.46,70.19 327.23,67.34 C328.72,64.83 328.97,59.45 328.22,57.30 C327.40,55.14 323.93,52.74 321.93,52.88 C320.97,52.96 319.17,53.80 317.18,54.92" fill="none" stroke="rgb(0, 160, 232)" stroke-width="2.34" stroke-opacity="1.00" stroke-linejoin="round"/>
</g>
</svg>
