<?xml version="1.0" encoding="UTF-8" standalone="no"?>
<!DOCTYPE svg PUBLIC "-//W3C//DTD SVG 1.1//EN" "http://www.w3.org/Graphics/SVG/1.1/DTD/svg11.dtd">
<svg width="128.40" height="181.68" viewBox="0.00 0.00 535.00 757.00" xmlns="http://www.w3.org/2000/svg" xmlns:xlink="http://www.w3.org/1999/xlink">
<g stroke-linecap="round" transform="translate(44.00, 155.00)" id="133-우산-2">
<path d="M335.76,244.55 C335.76,244.55 335.39,244.55 335.39,244.55 C335.13,244.32 334.74,243.79 334.66,243.74 C333.82,243.29 328.34,242.46 324.80,242.72 C322.08,242.93 314.41,243.64 311.71,244.14 C307.56,244.94 299.52,250.51 292.19,256.52 C289.81,258.54 286.06,262.52 284.29,264.71 C281.22,268.57 279.41,271.26 278.62,273.63 C278.01,275.53 277.95,277.05 278.01,277.41 C278.47,276.91 281.97,272.61 284.52,270.87 C285.41,270.27 287.87,269.71 289.62,270.33 C291.61,271.07 293.08,272.60 293.62,273.44 C293.23,274.01 293.29,273.62 293.91,272.51 C295.50,269.79 300.15,265.56 301.78,265.65 C303.27,265.82 305.55,268.89 306.18,271.06 C306.62,272.66 306.53,274.70 306.52,274.66 C306.91,273.96 309.86,271.06 313.11,269.26 C316.49,267.42 320.44,267.33 321.92,268.16 C323.42,269.05 325.52,271.17 326.75,273.14 C326.75,273.14 326.65,273.90 326.65,273.90" fill="none" stroke="rgb(229, 0, 16)" stroke-width="2.41" stroke-opacity="1.00" stroke-linejoin="round"/>
<path d="M328.31,274.10 C328.31,274.10 328.19,274.10 328.19,274.10 C327.83,273.15 329.50,271.39 332.40,270.30 C333.62,269.86 341.22,268.55 343.36,269.40 C346.40,270.68 349.63,273.35 350.89,275.94 C351.46,277.14 351.99,278.06 352.50,278.77 C352.64,278.61 353.17,276.37 355.00,274.76 C355.85,274.02 358.52,273.06 360.16,272.88 C362.01,272.73 365.95,274.16 368.19,276.08 C369.45,277.21 372.47,282.01 372.52,281.99 C372.49,281.45 375.99,277.06 367.54,265.94 C365.59,263.37 363.45,260.75 361.34,258.38 C359.25,256.07 348.15,248.64 346.47,247.55 C344.31,246.19 339.40,244.48 336.07,243.74 C335.20,243.55 334.34,243.36 333.47,243.17 C332.91,243.05 332.35,242.93 331.79,242.81" fill="none" stroke="rgb(229, 0, 16)" stroke-width="2.41" stroke-opacity="1.00" stroke-linejoin="round"/>
<path d="M348.18,248.77 C348.18,248.77 347.56,248.77 347.56,248.77 C347.56,248.77 347.74,249.43 347.74,249.43 C351.32,252.10 355.25,256.13 356.00,256.91 C356.80,257.76 360.00,260.82 360.63,262.96 C361.12,264.63 364.12,271.48 364.66,272.57 C364.77,272.79 364.95,273.16 365.22,273.67" fill="none" stroke="rgb(229, 0, 16)" stroke-width="2.41" stroke-opacity="1.00" stroke-linejoin="round"/>
<path d="M351.16,275.34 C351.16,275.34 351.16,275.59 351.16,275.59 C351.43,274.88 351.41,266.50 351.38,265.82 C351.22,262.95 349.18,258.89 347.33,256.63 C345.88,254.89 342.40,251.34 340.54,249.81 C339.09,248.64 335.61,246.63 330.59,243.87 C330.60,245.17 331.35,262.61 330.26,265.61 C329.94,266.44 329.05,268.07 328.34,269.04 C328.07,269.42 327.35,270.38 326.18,271.90" fill="none" stroke="rgb(229, 0, 16)" stroke-width="2.41" stroke-opacity="1.00" stroke-linejoin="round"/>
<path d="M330.05,244.05 C330.05,244.05 329.93,244.42 329.93,244.42 C329.26,244.77 327.51,245.68 326.90,246.10 C325.17,247.32 320.40,252.21 318.46,254.52 C316.18,257.27 314.57,260.01 313.25,263.51 C312.29,266.09 310.82,269.45 310.45,270.28" fill="none" stroke="rgb(229, 0, 16)" stroke-width="2.41" stroke-opacity="1.00" stroke-linejoin="round"/>
<path d="M317.63,244.80 C317.63,244.80 318.87,242.65 318.87,242.65 C318.67,242.80 317.44,243.88 317.26,244.02 C305.37,253.09 297.69,262.17 295.45,265.17 C294.69,266.21 292.49,269.63 291.79,270.69" fill="none" stroke="rgb(229, 0, 16)" stroke-width="2.41" stroke-opacity="1.00" stroke-linejoin="round"/>
<path d="M328.31,273.61 C328.31,273.61 327.74,273.22 327.74,273.22 C327.58,273.59 327.49,291.81 327.07,295.86 C326.44,301.85 325.42,311.87 325.62,319.60 C325.73,323.42 325.93,332.67 325.92,333.98 C325.87,337.67 325.19,341.18 324.22,341.80 C323.34,342.29 320.22,341.52 319.37,340.20 C318.69,339.14 316.97,336.04 316.46,335.67 C315.38,334.93 312.61,335.66 311.80,336.80 C310.94,338.09 310.75,342.41 311.84,344.41 C313.08,346.55 318.03,349.08 320.39,349.01 C322.48,348.91 326.14,346.75 327.32,345.05 C329.47,341.80 331.65,330.28 331.97,323.08 C332.56,309.38 333.54,280.59 335.59,270.92 C335.82,269.79 336.26,267.66 336.46,266.65" fill="none" stroke="rgb(229, 0, 16)" stroke-width="2.41" stroke-opacity="1.00" stroke-linejoin="round"/>
</g>
</svg>
