<?xml version="1.0" encoding="UTF-8" standalone="no"?>
<!DOCTYPE svg PUBLIC "-//W3C//DTD SVG 1.1//EN" "http://www.w3.org/Graphics/SVG/1.1/DTD/svg11.dtd">
<svg width="128.40" height="181.68" viewBox="0.00 0.00 535.00 757.00" xmlns="http://www.w3.org/2000/svg" xmlns:xlink="http://www.w3.org/1999/xlink">
<g stroke-linecap="round" transform="translate(44.00, 155.00)" id="133-가방-2">
<path d="M270.45,345.39 C270.45,345.39 269.77,345.39 269.77,345.39 C269.77,345.39 269.37,345.07 269.37,345.07 C269.34,344.34 267.64,343.00 266.47,342.97 C265.28,342.98 261.76,345.34 261.02,346.70 C260.58,347.54 259.61,350.77 259.46,351.84 C259.41,352.26 259.37,353.02 259.34,354.10" fill="none" stroke="rgb(0, 255, 255)" stroke-width="2.41" stroke-opacity="1.00" stroke-linejoin="round"/>
<path d="M262.61,354.58 C262.61,354.58 261.94,354.58 261.94,354.58 C261.94,354.58 261.80,354.44 261.80,354.44 C261.88,352.52 263.64,348.31 265.15,347.00 C266.32,346.03 268.91,346.52 269.43,347.96 C269.86,349.27 269.51,352.98 269.33,353.92 C269.26,354.26 269.11,354.97 268.86,356.04" fill="none" stroke="rgb(0, 255, 255)" stroke-width="2.41" stroke-opacity="1.00" stroke-linejoin="round"/>
<path d="M269.91,345.12 C271.67,346.81 272.16,352.96 271.71,354.20 C271.63,354.40 271.43,354.75 271.13,355.23" fill="none" stroke="rgb(0, 255, 255)" stroke-width="2.41" stroke-opacity="1.00" stroke-linejoin="round"/>
<path d="M268.56,356.47 C268.56,356.47 267.75,356.47 267.75,356.47 C266.92,355.98 261.95,355.58 260.30,355.34 C258.69,355.10 255.08,354.45 254.11,355.36 C253.54,355.94 252.95,366.20 253.11,366.30 C253.11,366.30 269.74,364.67 269.74,364.67 C269.74,364.67 268.56,364.58 268.56,364.58" fill="none" stroke="rgb(0, 255, 255)" stroke-width="2.41" stroke-opacity="1.00" stroke-linejoin="round"/>
<path d="M258.83,354.31 C258.82,354.24 258.68,351.77 257.76,349.54 C256.53,346.63 253.90,344.98 251.97,344.72 C249.92,344.48 246.35,344.84 244.79,345.50 C242.17,346.66 241.37,348.99 241.36,349.33 C244.40,347.96 248.75,347.95 250.94,348.73 C252.83,349.48 255.45,351.91 256.32,353.12 C256.53,353.42 256.74,353.82 256.94,354.31" fill="none" stroke="rgb(0, 255, 255)" stroke-width="2.41" stroke-opacity="1.00" stroke-linejoin="round"/>
<path d="M255.58,349.18 C255.57,348.55 254.94,346.70 252.07,344.73 C249.22,342.74 245.28,337.24 243.93,336.14 C243.02,335.40 241.30,334.52 241.04,334.50 C240.96,335.65 243.05,339.19 243.75,340.15 C244.22,340.79 246.25,343.22 246.84,343.93" fill="none" stroke="rgb(0, 255, 255)" stroke-width="2.41" stroke-opacity="1.00" stroke-linejoin="round"/>
</g>
</svg>
