<?xml version="1.0" encoding="UTF-8" standalone="no"?>
<!DOCTYPE svg PUBLIC "-//W3C//DTD SVG 1.1//EN" "http://www.w3.org/Graphics/SVG/1.1/DTD/svg11.dtd">
<svg width="128.40" height="181.68" viewBox="0.00 0.00 535.00 757.00" xmlns="http://www.w3.org/2000/svg" xmlns:xlink="http://www.w3.org/1999/xlink">
<g stroke-linecap="round" transform="translate(44.00, 155.00)" id="133-차">
<path d="M64.21,349.60 C64.21,349.60 63.21,351.34 63.21,351.34 C63.24,349.34 62.99,343.48 63.17,339.79 C63.58,333.05 64.19,319.51 63.47,318.85 C62.29,318.11 53.83,318.06 43.89,318.50 C31.20,319.31 -6.73,321.19 -7.09,321.35 C-7.09,321.35 -6.66,353.70 -6.66,353.70 C-8.60,352.70 -19.71,352.64 -25.71,353.57 C-28.83,354.06 -38.79,356.73 -39.57,357.11 C-39.57,357.11 -41.08,400.26 -41.08,400.26 C-37.61,399.76 -24.80,398.75 -23.37,398.84 C-23.13,398.86 -22.62,398.94 -21.83,399.08" fill="none" stroke="rgb(255, 255, 0)" stroke-width="2.41" stroke-opacity="1.00" stroke-linejoin="round"/>
<path d="M-4.42,390.88 C-5.80,390.06 -7.54,389.72 -9.89,390.68 C-12.62,391.83 -17.24,395.00 -18.19,396.42 C-19.02,397.78 -19.44,402.30 -18.99,404.81 C-18.52,407.20 -15.97,410.92 -13.46,412.29 C-10.46,413.84 -3.20,414.36 0.47,413.75 C3.61,413.19 7.85,411.04 9.14,409.78 C10.27,408.63 11.67,405.57 11.85,403.68 C12.01,401.77 10.96,398.43 9.67,396.90 C8.32,395.38 3.49,392.44 0.51,391.47 C-1.14,390.95 -4.19,390.55 -5.42,390.70 C-6.52,390.88 -8.53,391.84 -9.17,392.65 C-9.94,393.63 -14.36,399.18 -15.20,401.27 C-15.65,402.42 -15.88,403.36 -15.91,404.08 C-15.94,404.87 -15.31,408.08 -15.12,409.03" fill="none" stroke="rgb(255, 255, 0)" stroke-width="2.41" stroke-opacity="1.00" stroke-linejoin="round"/>
<path d="M-2.93,391.13 C-2.93,391.13 -4.02,390.93 -4.02,390.93 C-4.38,391.28 -4.68,391.59 -4.92,391.89 C-7.64,395.33 -9.80,399.99 -9.88,403.65 C-9.89,406.34 -8.32,408.88 -6.92,409.83 C-5.53,410.69 -0.15,411.87 1.87,411.04 C3.71,410.23 5.68,407.44 5.90,406.34 C6.13,405.11 5.34,402.58 4.57,401.51 C3.81,400.49 1.40,398.83 0.14,398.54 C-1.83,398.16 -4.49,398.99 -8.45,401.32 C-9.01,401.65 -9.58,401.98 -10.14,402.31" fill="none" stroke="rgb(255, 255, 0)" stroke-width="2.41" stroke-opacity="1.00" stroke-linejoin="round"/>
<path d="M54.01,386.15 C54.01,386.15 53.93,385.90 53.93,385.90 C50.48,385.90 45.88,386.00 43.91,386.19 C41.70,386.44 38.41,389.55 36.57,392.71 C35.69,394.27 34.55,397.14 34.35,398.50 C33.93,401.69 36.17,407.45 37.64,408.99 C38.93,410.26 41.53,411.53 43.55,411.88 C45.63,412.21 50.23,412.32 52.54,412.03 C57.02,411.43 62.01,409.39 63.24,408.40 C64.52,407.28 66.50,403.96 67.02,401.52 C67.43,399.48 67.05,396.73 66.37,395.27 C66.27,395.06 66.13,394.75 65.95,394.36" fill="none" stroke="rgb(255, 255, 0)" stroke-width="2.41" stroke-opacity="1.00" stroke-linejoin="round"/>
<path d="M63.46,394.11 C63.46,394.11 62.84,394.61 62.84,394.61 C62.84,394.61 62.71,394.48 62.71,394.48 C62.71,393.79 62.62,389.98 61.78,388.60 C60.78,387.04 57.68,385.76 55.04,385.30 C49.82,384.45 45.63,385.48 44.85,385.77 C44.29,385.98 41.82,387.07 41.08,387.40" fill="none" stroke="rgb(255, 255, 0)" stroke-width="2.41" stroke-opacity="1.00" stroke-linejoin="round"/>
<path d="M43.82,389.14 C41.84,389.24 40.32,390.30 39.53,391.62 C38.67,393.09 37.14,397.20 36.98,398.71 C36.82,400.47 37.95,403.63 39.10,404.86 C40.18,405.96 42.95,407.09 44.92,407.22 C46.76,407.32 51.78,406.95 53.38,406.60 C55.36,406.13 58.22,404.14 58.89,402.57 C59.51,400.98 59.01,397.01 58.11,395.07 C57.11,393.00 53.79,389.67 51.46,388.93 C49.35,388.33 45.96,389.45 41.33,391.13" fill="none" stroke="rgb(255, 255, 0)" stroke-width="2.41" stroke-opacity="1.00" stroke-linejoin="round"/>
<path d="M32.13,396.35 C32.47,396.62 33.04,397.21 33.25,397.53 C33.31,397.62 33.34,397.73 33.35,397.85 C33.35,397.85 9.16,399.31 9.16,399.31 C9.16,399.31 10.25,399.33 10.25,399.33" fill="none" stroke="rgb(255, 255, 0)" stroke-width="2.41" stroke-opacity="1.00" stroke-linejoin="round"/>
<path d="M66.44,396.10 C66.44,396.10 66.32,396.10 66.32,396.10 C66.32,396.10 66.19,396.22 66.19,396.22 C66.57,397.23 79.41,398.22 89.66,397.56 C92.07,397.40 102.86,397.01 104.08,396.62 C104.35,396.36 103.79,380.09 103.70,371.68 C103.83,364.67 103.96,348.92 103.58,348.67 C103.58,348.67 62.16,348.36 62.16,348.36 C62.16,348.36 62.22,348.11 62.22,348.11" fill="none" stroke="rgb(255, 255, 0)" stroke-width="2.41" stroke-opacity="1.00" stroke-linejoin="round"/>
<path d="M63.46,342.39 C63.46,342.39 62.59,342.39 62.59,342.39 C62.57,342.39 62.63,342.39 62.65,342.39 C65.30,342.18 66.55,342.17 67.14,342.45 C68.56,343.16 70.12,345.70 70.44,347.10 C70.54,347.61 70.40,348.57 70.05,350.06 C69.92,350.57 69.80,351.08 69.68,351.59" fill="none" stroke="rgb(255, 255, 0)" stroke-width="2.41" stroke-opacity="1.00" stroke-linejoin="round"/>
<path d="M102.75,380.43 C102.49,380.44 101.96,380.42 101.69,380.36 C99.99,380.07 95.39,380.76 93.44,382.44 C91.86,383.84 91.86,386.45 92.34,387.57 C92.97,388.97 94.96,391.30 96.46,392.09 C97.72,392.72 101.75,393.53 103.26,393.76 C103.26,393.76 103.49,393.36 103.49,393.36" fill="none" stroke="rgb(255, 255, 0)" stroke-width="2.41" stroke-opacity="1.00" stroke-linejoin="round"/>
<path d="M93.30,385.16 C93.17,385.16 93.05,385.16 92.93,385.16 C92.72,385.16 92.51,385.16 92.30,385.16 C92.30,385.16 103.29,386.82 103.29,386.82 C103.29,386.82 103.99,385.90 103.99,385.90" fill="none" stroke="rgb(255, 255, 0)" stroke-width="2.41" stroke-opacity="1.00" stroke-linejoin="round"/>
<path d="M96.03,387.64 C95.70,387.64 95.37,387.64 95.04,387.64 C94.97,387.64 94.90,387.64 94.82,387.64 C95.39,387.96 98.97,392.00 99.55,392.09 C99.68,392.10 99.98,392.09 100.47,392.05 C101.90,390.43 98.69,386.59 98.50,386.54 C98.32,386.52 98.91,387.88 99.80,389.40 C100.30,390.24 101.19,391.13 101.86,391.46 C102.09,391.56 102.80,391.87 103.99,392.37" fill="none" stroke="rgb(255, 255, 0)" stroke-width="2.41" stroke-opacity="1.00" stroke-linejoin="round"/>
<path d="M62.96,355.32 C62.96,355.32 62.96,355.07 62.96,355.07 C62.96,355.07 62.84,354.82 62.84,354.82 C60.67,354.83 57.38,354.46 55.75,353.87 C48.24,351.00 43.41,350.39 42.50,350.38 C42.50,350.38 41.83,351.09 41.83,351.09" fill="none" stroke="rgb(255, 255, 0)" stroke-width="2.41" stroke-opacity="1.00" stroke-linejoin="round"/>
<path d="M41.33,347.36 C41.33,347.36 40.36,347.36 40.36,347.36 C40.36,347.36 39.91,382.82 39.91,382.82 C40.53,382.72 50.75,380.62 51.47,380.17 C52.03,379.76 53.12,374.04 53.75,371.97 C55.63,365.87 62.83,354.05 62.65,353.69 C62.59,353.59 62.52,353.47 62.46,353.33" fill="none" stroke="rgb(255, 255, 0)" stroke-width="2.41" stroke-opacity="1.00" stroke-linejoin="round"/>
<path d="M42.32,356.31 C41.95,356.34 41.70,356.36 41.58,356.38 C41.46,356.41 41.29,356.47 41.08,356.56 C42.41,356.64 44.06,357.50 44.68,358.66 C45.01,359.28 45.11,359.98 45.05,360.66 C44.62,361.25 44.07,361.73 43.25,361.94 C42.46,362.14 39.79,362.60 38.59,362.78" fill="none" stroke="rgb(255, 255, 0)" stroke-width="2.41" stroke-opacity="1.00" stroke-linejoin="round"/>
<path d="M28.90,353.58 C28.30,354.06 26.89,354.76 26.28,354.49 C23.90,353.36 18.89,351.65 15.76,351.46 C12.42,351.29 9.58,352.37 9.36,352.40 C9.31,352.41 9.19,352.39 9.00,352.33" fill="none" stroke="rgb(255, 255, 0)" stroke-width="2.41" stroke-opacity="1.00" stroke-linejoin="round"/>
<path d="M9.00,349.60 C7.70,350.11 7.14,350.56 6.95,350.51 C6.79,350.51 6.43,355.03 5.38,361.12 C4.82,364.35 3.71,371.07 4.37,372.73 C5.10,374.43 7.25,375.71 7.95,375.72 C7.95,375.72 8.01,376.21 8.01,376.21" fill="none" stroke="rgb(255, 255, 0)" stroke-width="2.41" stroke-opacity="1.00" stroke-linejoin="round"/>
<path d="M7.51,372.23 C7.51,372.23 5.89,372.72 5.89,372.72 C5.89,372.72 5.86,372.85 5.86,372.85 C6.29,373.16 22.53,377.28 22.81,377.69 C22.88,377.80 23.00,378.09 23.18,378.56 C22.61,377.64 27.38,361.47 27.54,360.41 C27.61,359.91 27.90,356.23 27.86,355.85 C27.82,355.55 27.67,355.05 27.40,354.32" fill="none" stroke="rgb(255, 255, 0)" stroke-width="2.41" stroke-opacity="1.00" stroke-linejoin="round"/>
<path d="M16.71,361.04 C16.41,361.25 16.19,361.35 15.85,361.29 C13.76,360.93 11.22,361.27 10.42,362.33 C11.00,363.96 11.69,364.83 12.89,365.12 C15.11,365.61 18.91,364.18 19.59,362.85 C19.86,362.27 19.70,361.12 19.30,360.56 C18.42,359.48 16.03,359.36 12.98,359.30" fill="none" stroke="rgb(255, 255, 0)" stroke-width="2.41" stroke-opacity="1.00" stroke-linejoin="round"/>
<path d="M10.25,345.37 C10.05,345.54 9.92,345.65 9.87,345.70 C9.82,345.75 9.78,345.81 9.75,345.87 C9.78,338.84 10.44,328.98 10.79,328.83 C10.92,328.80 12.85,327.16 15.99,327.09 C19.84,327.04 27.20,328.34 29.94,329.84 C30.49,330.16 31.40,331.22 31.65,331.54 C32.37,332.60 31.97,336.69 30.83,342.78 C30.52,344.57 29.63,349.52 29.44,350.17 C29.44,350.17 29.64,349.10 29.64,349.10" fill="none" stroke="rgb(255, 255, 0)" stroke-width="2.41" stroke-opacity="1.00" stroke-linejoin="round"/>
<path d="M29.14,345.12 C29.14,345.12 28.08,345.06 28.08,345.06 C27.80,344.46 24.45,343.14 22.18,343.50 C17.47,344.24 14.41,343.68 11.32,342.27 C11.06,342.15 10.79,342.02 10.49,341.89" fill="none" stroke="rgb(255, 255, 0)" stroke-width="2.41" stroke-opacity="1.00" stroke-linejoin="round"/>
<path d="M21.93,326.47 C21.93,326.47 21.81,325.85 21.81,325.85 C21.81,325.85 21.56,325.73 21.56,325.73 C21.50,325.68 20.30,341.55 20.44,347.03 C20.49,348.28 20.54,349.54 20.58,350.79 C20.58,350.79 20.69,349.85 20.69,349.85" fill="none" stroke="rgb(255, 255, 0)" stroke-width="2.41" stroke-opacity="1.00" stroke-linejoin="round"/>
<path d="M29.89,338.66 C29.72,338.65 29.61,338.65 29.56,338.66 C29.38,338.67 24.12,337.21 21.34,336.91 C20.51,336.82 10.66,336.09 10.14,335.92 C10.14,335.92 11.74,335.18 11.74,335.18" fill="none" stroke="rgb(255, 255, 0)" stroke-width="2.41" stroke-opacity="1.00" stroke-linejoin="round"/>
<path d="M55.50,327.22 C55.50,327.22 43.85,327.22 43.85,327.22 C44.10,328.25 42.51,344.41 42.61,345.26 C42.68,345.76 42.79,346.27 42.96,346.79 C43.03,346.98 43.14,347.26 43.32,347.61" fill="none" stroke="rgb(255, 255, 0)" stroke-width="2.41" stroke-opacity="1.00" stroke-linejoin="round"/>
<path d="M55.00,327.22 C54.97,327.26 54.92,327.30 54.88,327.34 C54.84,327.39 54.73,327.48 54.56,327.64 C54.56,328.18 56.79,330.84 57.39,332.60 C57.54,333.03 58.38,337.27 58.41,337.71 C58.48,339.37 55.60,346.35 55.49,346.79 C55.39,347.17 55.39,347.61 55.50,348.11" fill="none" stroke="rgb(255, 255, 0)" stroke-width="2.41" stroke-opacity="1.00" stroke-linejoin="round"/>
<path d="M55.25,342.89 C55.25,342.89 42.42,338.25 42.42,338.25 C42.42,338.25 45.56,337.91 45.56,337.91" fill="none" stroke="rgb(255, 255, 0)" stroke-width="2.41" stroke-opacity="1.00" stroke-linejoin="round"/>
<path d="M54.51,327.72 C54.51,327.72 54.05,327.92 54.05,327.92 C53.68,328.62 53.05,334.27 52.81,335.84 C52.20,339.57 51.47,344.09 51.27,345.84 C51.27,345.84 51.27,345.37 51.27,345.37" fill="none" stroke="rgb(255, 255, 0)" stroke-width="2.41" stroke-opacity="1.00" stroke-linejoin="round"/>
<path d="M46.05,333.93 C46.05,333.93 45.36,333.98 45.36,333.98 C47.95,334.64 55.25,336.47 57.56,336.90 C58.08,337.00 58.81,337.11 59.76,337.24 C59.76,337.24 59.73,337.17 59.73,337.17" fill="none" stroke="rgb(255, 255, 0)" stroke-width="2.41" stroke-opacity="1.00" stroke-linejoin="round"/>
</g>
</svg>
