<?xml version="1.0" encoding="UTF-8" standalone="no"?>
<!DOCTYPE svg PUBLIC "-//W3C//DTD SVG 1.1//EN" "http://www.w3.org/Graphics/SVG/1.1/DTD/svg11.dtd">
<svg width="128.40" height="181.68" viewBox="0.00 0.00 535.00 757.00" xmlns="http://www.w3.org/2000/svg" xmlns:xlink="http://www.w3.org/1999/xlink">
<g stroke-linecap="round" transform="translate(44.00, 155.00)" id="133-우산-1">
<path d="M209.60,266.65 C209.50,266.66 209.38,266.66 209.23,266.65 C207.55,266.61 204.05,268.35 201.04,270.34 C198.65,271.94 194.72,275.43 193.67,276.66 C192.53,278.02 188.33,284.99 186.93,287.04 C186.39,287.82 185.05,289.75 184.25,290.91" fill="none" stroke="rgb(229, 0, 16)" stroke-width="2.41" stroke-opacity="1.00" stroke-linejoin="round"/>
<path d="M208.11,269.88 C208.11,269.88 207.53,269.88 207.53,269.88 C207.53,269.88 206.95,268.33 206.95,268.33 C205.89,268.38 204.99,268.91 203.86,270.34 C201.62,273.19 197.94,278.62 197.17,281.46 C196.87,282.59 196.16,287.75 196.11,288.77 C196.09,289.28 196.10,290.15 196.16,291.37" fill="none" stroke="rgb(229, 0, 16)" stroke-width="2.41" stroke-opacity="1.00" stroke-linejoin="round"/>
<path d="M205.88,270.13 C205.11,270.36 204.29,270.91 204.02,271.77 C203.63,273.08 202.27,292.71 202.30,293.34 C202.30,293.34 202.70,293.71 202.70,293.71" fill="none" stroke="rgb(229, 0, 16)" stroke-width="2.41" stroke-opacity="1.00" stroke-linejoin="round"/>
<path d="M203.89,291.24 C203.89,291.24 203.20,291.44 203.20,291.44 C202.82,291.49 206.35,287.18 207.86,286.30 C209.28,285.52 212.14,286.59 213.20,287.76 C215.03,289.85 216.43,294.32 216.47,294.24 C215.49,288.26 213.37,279.07 210.87,275.10 C210.58,274.64 210.20,274.02 209.73,273.24 C209.38,272.67 209.04,272.10 208.69,271.53" fill="none" stroke="rgb(229, 0, 16)" stroke-width="2.41" stroke-opacity="1.00" stroke-linejoin="round"/>
<path d="M210.10,270.38 C210.10,270.38 209.60,270.75 209.60,270.75 C209.78,271.29 214.42,276.31 217.15,281.36 C217.88,282.72 218.39,283.74 218.67,284.43 C218.90,285.00 219.27,286.07 219.76,287.64" fill="none" stroke="rgb(229, 0, 16)" stroke-width="2.41" stroke-opacity="1.00" stroke-linejoin="round"/>
<path d="M219.53,285.03 C219.53,285.03 219.29,285.03 219.29,285.03 C219.16,285.19 221.37,290.39 221.55,292.40 C221.56,292.53 221.60,292.72 221.67,292.99 C221.76,293.30 221.85,293.61 221.94,293.92" fill="none" stroke="rgb(229, 0, 16)" stroke-width="2.41" stroke-opacity="1.00" stroke-linejoin="round"/>
<path d="M222.76,292.98 C222.39,293.00 222.21,292.96 222.00,292.78 C221.50,292.41 217.53,292.63 216.73,293.13 C216.60,293.21 216.26,293.46 215.70,293.86" fill="none" stroke="rgb(229, 0, 16)" stroke-width="2.41" stroke-opacity="1.00" stroke-linejoin="round"/>
<path d="M224.01,293.72 C224.01,293.72 222.76,293.72 222.76,293.72 C222.73,293.74 225.20,293.21 225.84,293.56 C227.21,294.34 228.03,295.52 228.18,295.83 C228.08,295.16 228.13,288.95 228.10,288.35 C227.96,285.47 226.18,280.18 224.66,278.02 C223.12,275.91 209.46,267.50 207.56,266.30 C205.77,265.16 201.33,264.87 198.45,265.68 C195.40,266.57 191.61,268.10 187.65,270.01 C183.52,272.02 178.78,275.37 177.00,277.13 C173.23,280.93 169.54,286.92 169.46,287.54 C169.44,287.70 169.41,288.22 169.36,289.12" fill="none" stroke="rgb(229, 0, 16)" stroke-width="2.41" stroke-opacity="1.00" stroke-linejoin="round"/>
<path d="M191.72,278.57 C190.52,278.68 188.13,280.74 184.79,283.23 C181.93,285.47 179.22,289.79 178.95,290.63 C178.95,290.63 179.55,290.61 179.55,290.61" fill="none" stroke="rgb(229, 0, 16)" stroke-width="2.41" stroke-opacity="1.00" stroke-linejoin="round"/>
<path d="M186.75,290.74 C185.98,290.74 185.21,290.74 184.45,290.74 C181.48,290.76 179.96,290.99 179.54,291.55 C179.47,291.65 179.35,291.89 179.18,292.28" fill="none" stroke="rgb(229, 0, 16)" stroke-width="2.41" stroke-opacity="1.00" stroke-linejoin="round"/>
<path d="M189.98,288.76 C189.98,288.76 188.24,289.00 188.24,289.00 C189.35,288.34 191.58,287.91 192.77,288.71 C193.35,289.12 194.78,290.80 195.12,291.52 C195.27,291.84 195.52,292.53 195.87,293.61" fill="none" stroke="rgb(229, 0, 16)" stroke-width="2.41" stroke-opacity="1.00" stroke-linejoin="round"/>
<path d="M197.43,291.24 C197.43,291.24 196.00,291.24 196.00,291.24 C195.98,290.84 197.11,289.22 198.14,288.66 C199.13,288.15 201.45,288.98 202.29,289.93 C202.48,290.14 202.87,290.66 203.45,291.48" fill="none" stroke="rgb(229, 0, 16)" stroke-width="2.41" stroke-opacity="1.00" stroke-linejoin="round"/>
<path d="M179.30,291.24 C178.98,290.69 178.77,290.42 178.23,290.25 C175.77,289.49 172.50,289.54 171.64,289.74 C170.44,290.06 167.47,294.81 166.81,295.49 C166.38,293.70 165.05,292.10 163.17,291.79 C161.08,291.49 156.10,292.03 153.71,293.05 C151.56,294.01 149.37,297.04 149.25,297.16 C149.18,297.21 149.05,297.29 148.84,297.39" fill="none" stroke="rgb(229, 0, 16)" stroke-width="2.41" stroke-opacity="1.00" stroke-linejoin="round"/>
<path d="M149.75,295.71 C149.75,295.71 149.07,295.71 149.07,295.71 C148.73,295.50 150.47,291.65 153.02,288.39 C155.05,285.84 167.08,276.29 172.28,273.62 C177.94,270.75 189.90,268.71 194.78,267.02 C196.38,266.46 200.07,265.15 200.37,265.05 C201.30,264.75 201.61,264.60 202.90,263.92" fill="none" stroke="rgb(229, 0, 16)" stroke-width="2.41" stroke-opacity="1.00" stroke-linejoin="round"/>
<path d="M202.65,264.42 C201.60,265.61 198.08,265.97 192.31,265.91 C188.04,265.88 183.29,266.44 179.26,267.53 C175.55,268.55 171.43,270.02 168.28,271.73 C166.95,272.47 157.93,278.16 156.14,279.80 C154.72,281.13 152.38,284.02 151.52,285.54 C150.36,287.62 148.55,292.16 148.17,293.12" fill="none" stroke="rgb(229, 0, 16)" stroke-width="2.41" stroke-opacity="1.00" stroke-linejoin="round"/>
<path d="M205.38,290.00 C205.38,290.00 204.63,290.00 204.63,290.00 C204.74,292.58 204.84,294.15 205.04,296.17 C205.57,301.79 206.13,318.04 205.74,322.04 C205.36,325.80 204.44,326.94 203.82,327.18 C202.16,327.77 196.67,327.52 195.82,327.94 C195.16,328.32 194.32,329.32 194.15,330.06 C193.78,331.90 195.71,336.94 197.49,338.22 C199.10,339.30 203.23,338.71 204.83,337.40 C206.47,336.00 209.55,330.68 210.12,328.35 C211.16,323.88 210.10,287.17 210.10,287.10 C210.08,286.89 210.00,286.55 209.87,286.06" fill="none" stroke="rgb(229, 0, 16)" stroke-width="2.41" stroke-opacity="1.00" stroke-linejoin="round"/>
</g>
</svg>
