<?xml version="1.0" encoding="UTF-8" standalone="no"?>
<!DOCTYPE svg PUBLIC "-//W3C//DTD SVG 1.1//EN" "http://www.w3.org/Graphics/SVG/1.1/DTD/svg11.dtd">
<svg width="128.40" height="181.68" viewBox="0.00 0.00 535.00 757.00" xmlns="http://www.w3.org/2000/svg" xmlns:xlink="http://www.w3.org/1999/xlink">
<g stroke-linecap="round" transform="translate(44.00, 155.00)" id="133-비">
<path d="M-25.54,217.66 C-26.46,218.85 -26.43,222.45 -26.30,227.59 C-25.82,244.29 -24.16,276.81 -23.30,291.46 C-23.24,292.34 -23.18,293.22 -23.12,294.10" fill="none" stroke="rgb(0, 153, 67)" stroke-width="2.41" stroke-opacity="1.00" stroke-linejoin="round"/>
<path d="M0.17,116.63 C0.17,116.63 -1.07,114.69 -1.07,114.69 C-1.90,116.27 -6.12,130.47 -7.12,135.38 C-9.79,149.75 -12.35,175.64 -13.02,191.56 C-13.26,208.89 -11.15,221.95 -10.47,225.87 C-10.39,226.36 -10.28,227.10 -10.15,228.10" fill="none" stroke="rgb(0, 153, 67)" stroke-width="2.41" stroke-opacity="1.00" stroke-linejoin="round"/>
<path d="M26.79,141.13 C26.79,141.13 26.48,139.62 26.48,139.62 C26.48,139.70 26.26,141.58 26.09,143.04 C23.90,161.01 22.37,184.90 22.32,200.18 C22.39,209.00 23.07,219.01 23.43,220.48 C23.52,220.82 23.75,221.65 24.14,222.97" fill="none" stroke="rgb(0, 153, 67)" stroke-width="2.41" stroke-opacity="1.00" stroke-linejoin="round"/>
<path d="M52.80,122.98 C52.72,132.51 52.49,137.37 51.33,149.89 C50.68,157.79 49.91,173.07 49.79,180.99 C49.79,190.71 49.92,193.76 50.01,195.42" fill="none" stroke="rgb(0, 153, 67)" stroke-width="2.41" stroke-opacity="1.00" stroke-linejoin="round"/>
<path d="M52.19,201.02 C52.19,201.02 51.44,200.80 51.44,200.80 C51.25,202.71 52.01,215.97 52.28,223.04 C52.43,233.42 52.30,238.69 52.25,240.36" fill="none" stroke="rgb(0, 153, 67)" stroke-width="2.41" stroke-opacity="1.00" stroke-linejoin="round"/>
<path d="M34.95,225.82 C34.21,226.15 34.00,227.56 34.35,231.29 C35.62,246.23 37.74,269.65 38.59,278.15 C38.94,281.40 39.56,287.10 39.98,290.28 C40.07,290.93 40.16,291.57 40.25,292.22" fill="none" stroke="rgb(0, 153, 67)" stroke-width="2.41" stroke-opacity="1.00" stroke-linejoin="round"/>
<path d="M13.48,238.23 C12.60,238.98 11.56,241.10 10.68,244.60 C9.38,250.15 6.81,262.40 5.63,270.26 C4.84,275.86 3.71,288.37 3.76,295.20 C3.84,302.80 5.38,311.65 5.80,313.34" fill="none" stroke="rgb(0, 153, 67)" stroke-width="2.41" stroke-opacity="1.00" stroke-linejoin="round"/>
<path d="M64.60,246.09 C63.29,246.82 63.22,250.59 64.02,254.18 C66.51,264.85 67.76,270.90 69.01,279.27 C69.68,284.23 69.84,285.10 70.12,286.35" fill="none" stroke="rgb(0, 153, 67)" stroke-width="2.41" stroke-opacity="1.00" stroke-linejoin="round"/>
<path d="M86.68,129.33 C84.84,132.83 81.55,145.06 80.35,151.26 C78.33,161.75 74.74,195.51 74.02,207.51 C73.66,214.71 73.33,230.37 73.52,232.55 C73.66,234.16 74.04,235.71 74.67,237.48" fill="none" stroke="rgb(0, 153, 67)" stroke-width="2.41" stroke-opacity="1.00" stroke-linejoin="round"/>
<path d="M95.45,180.15 C95.45,180.15 94.62,179.54 94.62,179.54 C94.27,180.62 93.97,225.85 94.09,237.21 C94.27,243.82 94.79,257.22 95.15,264.01 C95.94,274.94 97.05,280.65 97.33,281.91" fill="none" stroke="rgb(0, 153, 67)" stroke-width="2.41" stroke-opacity="1.00" stroke-linejoin="round"/>
<path d="M110.87,222.19 C110.87,222.19 109.51,222.50 109.51,222.50 C108.86,221.63 108.59,220.92 108.55,219.59 C108.21,206.76 108.27,172.31 108.95,165.59 C109.22,163.05 111.47,154.26 111.76,152.19 C111.85,151.54 112.67,143.82 113.61,140.27 C114.39,137.37 116.93,130.46 117.62,129.06 C118.90,126.44 122.52,120.56 123.64,118.72" fill="none" stroke="rgb(0, 153, 67)" stroke-width="2.41" stroke-opacity="1.00" stroke-linejoin="round"/>
<path d="M138.10,120.26 C138.10,120.26 137.34,119.50 137.34,119.50 C137.07,119.83 134.67,135.45 133.56,143.73 C132.70,151.40 131.33,169.87 131.31,174.05 C131.31,177.82 131.73,183.01 132.27,186.75" fill="none" stroke="rgb(0, 153, 67)" stroke-width="2.41" stroke-opacity="1.00" stroke-linejoin="round"/>
<path d="M125.09,188.01 C125.09,188.01 124.33,187.86 124.33,187.86 C124.32,187.82 126.29,190.74 127.06,192.93 C129.26,199.33 131.87,224.10 132.67,231.66 C133.10,235.50 133.98,242.84 134.41,246.33 C134.49,246.84 134.58,247.49 134.70,248.27" fill="none" stroke="rgb(0, 153, 67)" stroke-width="2.41" stroke-opacity="1.00" stroke-linejoin="round"/>
<path d="M119.65,227.03 C119.27,229.39 120.96,244.87 121.69,252.24 C122.02,256.03 122.60,263.14 122.86,266.45 C123.09,269.57 123.39,273.74 123.47,274.81" fill="none" stroke="rgb(0, 153, 67)" stroke-width="2.41" stroke-opacity="1.00" stroke-linejoin="round"/>
<path d="M143.54,281.18 C143.54,281.18 142.09,280.63 142.09,280.63 C142.10,285.56 142.22,297.56 142.22,304.18 C142.07,310.92 141.60,324.87 141.29,332.09 C141.07,336.40 140.70,343.66 140.55,346.61" fill="none" stroke="rgb(0, 153, 67)" stroke-width="2.41" stroke-opacity="1.00" stroke-linejoin="round"/>
<path d="M120.25,302.35 C120.25,302.35 119.50,302.45 119.50,302.45 C119.54,304.46 122.60,322.01 123.57,328.50 C124.48,335.29 126.70,351.95 127.56,355.55 C127.84,356.72 128.38,358.18 128.85,359.32" fill="none" stroke="rgb(0, 153, 67)" stroke-width="2.41" stroke-opacity="1.00" stroke-linejoin="round"/>
<path d="M105.43,312.94 C105.39,316.63 107.80,333.47 108.98,341.45 C109.23,343.07 109.79,346.70 109.91,347.41 C110.39,350.12 111.02,353.23 111.34,354.55" fill="none" stroke="rgb(0, 153, 67)" stroke-width="2.41" stroke-opacity="1.00" stroke-linejoin="round"/>
<path d="M148.08,163.21 C148.08,163.21 149.06,161.70 149.06,161.70 C150.42,164.02 151.17,173.16 151.30,180.41 C151.30,183.55 151.25,190.40 150.98,194.39 C150.71,198.22 149.31,210.34 149.07,212.30" fill="none" stroke="rgb(0, 153, 67)" stroke-width="2.41" stroke-opacity="1.00" stroke-linejoin="round"/>
<path d="M167.74,118.75 C167.74,118.75 166.30,118.44 166.30,118.44 C164.89,119.29 163.11,124.43 162.57,126.83 C161.47,131.86 160.46,143.40 160.58,151.25 C160.68,155.58 163.10,171.93 165.13,179.92 C166.92,186.65 168.95,194.25 169.19,195.12" fill="none" stroke="rgb(0, 153, 67)" stroke-width="2.41" stroke-opacity="1.00" stroke-linejoin="round"/>
<path d="M167.74,208.58 C167.74,208.58 166.83,208.28 166.83,208.28 C166.83,212.19 166.57,218.73 166.42,220.89 C166.14,224.93 164.27,239.64 163.15,246.80 C162.22,253.14 162.96,257.79 163.78,258.72 C164.00,258.96 164.60,259.54 165.58,260.45" fill="none" stroke="rgb(0, 153, 67)" stroke-width="2.41" stroke-opacity="1.00" stroke-linejoin="round"/>
<path d="M171.37,240.95 C171.37,240.95 170.16,240.80 170.16,240.80 C169.79,242.94 170.39,258.49 170.71,266.68 C170.81,269.88 170.97,276.11 171.03,279.15 C171.12,285.84 171.46,295.59 171.57,298.39" fill="none" stroke="rgb(0, 153, 67)" stroke-width="2.41" stroke-opacity="1.00" stroke-linejoin="round"/>
<path d="M153.83,253.65 C153.50,256.23 153.48,275.83 153.29,278.93 C152.89,285.13 151.33,294.36 150.38,297.92 C150.15,298.78 149.10,302.45 148.78,303.55" fill="none" stroke="rgb(0, 153, 67)" stroke-width="2.41" stroke-opacity="1.00" stroke-linejoin="round"/>
<path d="M185.28,188.01 C185.28,188.01 184.98,188.27 184.98,188.27 C186.65,198.23 187.45,205.80 187.61,214.35 C187.66,221.70 187.71,233.39 187.70,237.74" fill="none" stroke="rgb(0, 153, 67)" stroke-width="2.41" stroke-opacity="1.00" stroke-linejoin="round"/>
<path d="M184.98,123.28 C185.04,123.29 184.16,127.22 183.79,130.64 C183.49,133.70 182.79,141.23 182.68,143.12 C182.48,146.33 182.23,161.91 182.21,167.11" fill="none" stroke="rgb(0, 153, 67)" stroke-width="2.41" stroke-opacity="1.00" stroke-linejoin="round"/>
<path d="M209.18,198.90 C209.18,198.90 207.24,199.10 207.24,199.10 C206.04,200.82 204.80,210.66 204.13,219.42 C203.68,226.57 203.30,240.65 203.31,246.53 C203.39,252.11 204.04,259.71 204.14,260.77" fill="none" stroke="rgb(0, 153, 67)" stroke-width="2.41" stroke-opacity="1.00" stroke-linejoin="round"/>
<path d="M231.87,116.02 C231.87,116.02 231.26,114.21 231.26,114.21 C230.84,115.87 230.39,121.41 230.14,124.37 C229.46,132.52 227.99,150.25 227.21,159.83 C226.62,167.09 225.43,182.50 225.06,188.65 C224.92,191.25 224.52,195.54 224.41,196.64" fill="none" stroke="rgb(0, 153, 67)" stroke-width="2.41" stroke-opacity="1.00" stroke-linejoin="round"/>
<path d="M241.55,217.35 C241.55,217.35 240.79,217.05 240.79,217.05 C239.92,218.06 238.43,233.79 237.68,241.78 C235.92,260.11 231.96,286.89 230.76,291.31 C230.22,293.25 229.49,295.26 228.50,297.60" fill="none" stroke="rgb(0, 153, 67)" stroke-width="2.41" stroke-opacity="1.00" stroke-linejoin="round"/>
<path d="M282.30,118.51 C282.30,118.51 282.00,117.62 282.00,117.62 C282.49,121.49 282.73,125.18 282.77,129.31 C282.74,136.52 282.68,154.22 282.77,157.35 C282.83,159.46 282.99,162.70 283.04,163.47" fill="none" stroke="rgb(0, 153, 67)" stroke-width="2.41" stroke-opacity="1.00" stroke-linejoin="round"/>
<path d="M273.13,184.72 C272.91,185.24 272.53,186.50 272.62,187.38 C272.68,188.10 274.32,196.51 274.40,199.53 C274.61,209.53 269.95,232.57 268.92,236.28 C268.28,238.57 265.96,246.11 265.53,247.53" fill="none" stroke="rgb(0, 153, 67)" stroke-width="2.41" stroke-opacity="1.00" stroke-linejoin="round"/>
<path d="M299.44,182.65 C298.47,186.29 298.33,193.13 298.26,197.13 C298.23,200.96 298.11,209.68 298.02,211.87 C297.95,213.52 297.37,220.74 297.11,223.69 C296.81,226.80 296.40,231.04 296.29,232.19" fill="none" stroke="rgb(0, 153, 67)" stroke-width="2.41" stroke-opacity="1.00" stroke-linejoin="round"/>
<path d="M322.20,118.81 C322.20,118.81 321.31,115.65 321.31,115.65 C320.76,128.57 319.76,156.88 319.59,172.33 C319.51,179.84 319.17,190.49 319.05,193.34" fill="none" stroke="rgb(0, 153, 67)" stroke-width="2.41" stroke-opacity="1.00" stroke-linejoin="round"/>
<path d="M351.16,184.42 C350.09,185.43 349.22,187.83 348.92,190.53 C348.40,195.66 348.21,214.50 348.42,219.05 C348.79,226.91 350.19,232.46 350.45,233.46" fill="none" stroke="rgb(0, 153, 67)" stroke-width="2.41" stroke-opacity="1.00" stroke-linejoin="round"/>
<path d="M394.32,135.65 C394.08,135.67 393.91,137.60 393.85,138.39 C393.36,143.91 386.27,186.85 385.91,194.38 C385.82,196.38 385.85,198.53 385.97,201.40" fill="none" stroke="rgb(0, 153, 67)" stroke-width="2.41" stroke-opacity="1.00" stroke-linejoin="round"/>
<path d="M430.68,145.70 C430.68,145.70 429.35,145.85 429.35,145.85 C429.29,146.28 429.73,147.77 429.90,148.39 C431.11,152.94 432.41,166.46 432.59,173.65 C432.78,184.95 431.80,215.00 432.05,219.89 C432.09,220.54 432.12,221.19 432.15,221.83" fill="none" stroke="rgb(0, 153, 67)" stroke-width="2.41" stroke-opacity="1.00" stroke-linejoin="round"/>
<path d="M426.54,242.95 C425.46,243.42 424.75,243.99 424.47,245.04 C421.08,258.61 414.24,284.40 412.42,287.48 C412.17,287.91 411.78,288.35 411.25,288.80" fill="none" stroke="rgb(0, 153, 67)" stroke-width="2.41" stroke-opacity="1.00" stroke-linejoin="round"/>
<path d="M376.88,262.16 C376.58,262.64 376.59,264.37 376.96,269.30 C377.79,281.18 378.16,309.05 378.26,309.48 C378.33,309.75 378.52,310.24 378.85,310.96" fill="none" stroke="rgb(0, 153, 67)" stroke-width="2.41" stroke-opacity="1.00" stroke-linejoin="round"/>
</g>
</svg>
