<?xml version="1.0" encoding="UTF-8" standalone="no"?>
<!DOCTYPE svg PUBLIC "-//W3C//DTD SVG 1.1//EN" "http://www.w3.org/Graphics/SVG/1.1/DTD/svg11.dtd">
<svg width="128.40" height="181.68" viewBox="0.00 0.00 535.00 757.00" xmlns="http://www.w3.org/2000/svg" xmlns:xlink="http://www.w3.org/1999/xlink">
<g stroke-linecap="round" transform="translate(44.00, 155.00)" id="133-사람-1">
<path d="M175.70,301.30 C175.70,301.30 175.05,301.05 175.05,301.05 C175.39,301.27 175.85,302.97 175.85,305.43 C175.81,309.03 172.59,310.35 172.36,310.37 C172.04,310.39 171.73,310.41 171.41,310.43" fill="none" stroke="rgb(255, 0, 255)" stroke-width="2.41" stroke-opacity="1.00" stroke-linejoin="round"/>
<path d="M175.18,303.03 C175.18,303.03 174.75,303.03 174.75,303.03 C174.66,302.88 174.50,302.34 174.38,301.92 C173.87,300.46 172.11,297.74 170.99,297.03 C170.01,296.45 163.56,295.98 161.53,296.51 C159.34,297.14 156.20,299.67 155.47,301.63 C154.87,303.32 155.04,307.44 155.61,308.54 C156.02,309.26 157.44,310.38 158.32,310.57 C158.81,310.67 161.05,310.65 161.76,310.65" fill="none" stroke="rgb(255, 0, 255)" stroke-width="2.41" stroke-opacity="1.00" stroke-linejoin="round"/>
<path d="M155.73,303.20 C155.73,303.20 155.55,303.20 155.55,303.20 C156.88,303.45 158.12,303.55 160.02,303.52 C162.95,303.48 173.41,302.78 174.71,303.33 C174.71,303.33 174.25,303.48 174.25,303.48" fill="none" stroke="rgb(255, 0, 255)" stroke-width="2.41" stroke-opacity="1.00" stroke-linejoin="round"/>
<path d="M161.41,305.26 C161.41,305.26 160.92,305.26 160.92,305.26 C160.88,306.54 162.22,306.32 162.14,305.31 C162.14,305.31 161.79,305.32 161.79,305.32" fill="none" stroke="rgb(255, 0, 255)" stroke-width="2.41" stroke-opacity="1.00" stroke-linejoin="round"/>
<path d="M171.57,304.58 C171.57,304.58 171.01,304.58 171.01,304.58 C171.01,304.58 171.28,305.09 171.28,305.09 C171.28,305.09 171.40,305.44 171.40,305.44" fill="none" stroke="rgb(255, 0, 255)" stroke-width="2.41" stroke-opacity="1.00" stroke-linejoin="round"/>
<path d="M168.30,307.85 C168.30,307.85 168.05,307.26 168.05,307.26 C166.43,306.73 165.27,307.89 165.08,308.25 C165.53,309.07 166.07,309.42 166.85,309.23 C167.48,309.07 167.96,308.73 168.21,308.37 C168.21,308.37 166.98,307.69 166.98,307.69" fill="none" stroke="rgb(255, 0, 255)" stroke-width="2.41" stroke-opacity="1.00" stroke-linejoin="round"/>
<path d="M172.94,311.29 C172.94,311.29 172.89,311.12 172.89,311.12 C172.89,311.12 172.80,311.08 172.80,311.08 C172.79,311.04 173.27,317.73 173.26,317.77 C173.26,317.83 173.22,317.91 173.15,318.03" fill="none" stroke="rgb(255, 0, 255)" stroke-width="2.41" stroke-opacity="1.00" stroke-linejoin="round"/>
<path d="M163.30,311.98 C163.17,312.08 163.09,312.13 163.04,312.15 C162.96,312.20 162.97,314.87 162.89,315.26 C162.81,315.72 162.06,318.42 162.42,319.12 C162.82,319.75 166.36,321.23 167.60,321.20 C168.92,321.12 170.98,319.97 171.83,318.92 C172.54,318.00 172.60,317.07 172.63,315.94" fill="none" stroke="rgb(255, 0, 255)" stroke-width="2.41" stroke-opacity="1.00" stroke-linejoin="round"/>
<path d="M177.42,300.79 C177.42,300.79 176.99,300.70 176.99,300.70 C177.17,300.16 179.41,299.65 180.40,299.93 C181.68,300.31 183.57,302.55 183.88,303.36 C184.46,305.05 183.91,307.22 182.98,307.72 C182.19,308.10 179.81,307.95 178.49,306.72 C178.26,306.50 177.92,306.08 177.47,305.46" fill="none" stroke="rgb(255, 0, 255)" stroke-width="2.41" stroke-opacity="1.00" stroke-linejoin="round"/>
<path d="M174.32,314.56 C174.32,314.56 172.34,314.25 172.34,314.25 C172.93,313.33 183.02,313.50 183.38,314.61 C182.48,317.69 181.91,322.34 181.87,322.88 C181.86,323.21 181.86,323.70 181.89,324.35" fill="none" stroke="rgb(255, 0, 255)" stroke-width="2.41" stroke-opacity="1.00" stroke-linejoin="round"/>
<path d="M180.18,324.72 C180.18,324.72 180.36,324.50 180.36,324.50 C181.18,324.31 185.90,323.52 189.24,323.34 C189.67,323.32 190.05,323.32 190.39,323.34" fill="none" stroke="rgb(255, 0, 255)" stroke-width="2.41" stroke-opacity="1.00" stroke-linejoin="round"/>
<path d="M188.44,324.38 C188.34,324.26 187.59,323.46 187.98,322.57 C188.87,320.65 195.84,317.34 198.22,317.14 C200.03,317.02 202.41,317.86 203.16,318.85 C203.93,319.91 204.50,323.06 204.25,324.39 C203.99,325.56 202.80,326.74 201.93,326.92 C201.46,327.00 193.81,328.10 193.30,328.16 C189.60,328.56 188.43,326.29 188.43,325.89 C188.43,325.71 188.48,325.23 188.57,324.48" fill="none" stroke="rgb(255, 0, 255)" stroke-width="2.41" stroke-opacity="1.00" stroke-linejoin="round"/>
<path d="M196.19,328.51 C195.85,328.31 194.75,327.52 193.78,327.47 C192.41,327.44 187.54,328.50 185.11,329.06 C183.84,329.38 181.81,330.92 181.23,332.12 C180.46,333.81 180.32,337.88 180.96,340.93 C181.44,342.91 182.19,346.09 182.06,346.76 C182.06,346.76 157.77,345.41 157.77,345.41 C157.77,345.41 158.05,325.07 158.05,325.07 C158.05,325.07 157.65,326.47 157.65,326.47" fill="none" stroke="rgb(255, 0, 255)" stroke-width="2.41" stroke-opacity="1.00" stroke-linejoin="round"/>
<path d="M157.79,336.60 C157.66,336.60 157.48,336.60 157.25,336.60 C153.18,336.57 151.92,336.63 150.28,336.77 C150.28,336.77 150.68,336.77 150.68,336.77" fill="none" stroke="rgb(255, 0, 255)" stroke-width="2.41" stroke-opacity="1.00" stroke-linejoin="round"/>
<path d="M151.59,337.81 C151.59,337.81 150.20,337.98 150.20,337.98 C149.78,338.26 149.45,340.15 149.74,341.05 C150.12,342.16 152.01,343.50 153.46,343.42 C154.18,343.37 155.69,342.81 156.25,342.41 C156.59,342.16 157.06,341.40 157.81,340.08" fill="none" stroke="rgb(255, 0, 255)" stroke-width="2.41" stroke-opacity="1.00" stroke-linejoin="round"/>
<path d="M159.69,314.56 C159.69,314.56 160.03,313.88 160.03,313.88 C159.77,313.42 156.23,312.88 153.13,312.87 C151.93,312.88 150.81,313.60 150.81,314.44 C150.81,315.23 151.39,338.06 151.32,339.34 C151.29,339.85 151.22,340.53 151.11,341.38" fill="none" stroke="rgb(255, 0, 255)" stroke-width="2.41" stroke-opacity="1.00" stroke-linejoin="round"/>
<path d="M158.29,347.42 C158.29,347.42 157.79,346.44 157.79,346.44 C157.82,347.53 152.81,361.34 151.48,367.63 C149.73,376.15 151.27,378.86 151.42,378.97 C154.50,377.89 165.59,377.69 175.69,378.39 C187.03,379.20 187.54,379.28 189.41,379.62 C184.04,366.01 181.32,349.95 181.31,347.86 C181.31,347.67 181.34,347.45 181.40,347.20" fill="none" stroke="rgb(255, 0, 255)" stroke-width="2.41" stroke-opacity="1.00" stroke-linejoin="round"/>
<path d="M156.56,378.67 C156.56,378.67 155.96,378.72 155.96,378.72 C155.76,379.23 156.73,384.35 157.41,387.79 C158.18,392.00 158.57,401.16 158.63,401.88 C158.68,402.49 159.80,407.78 159.76,407.87 C159.76,407.87 167.65,406.88 167.65,406.88 C167.87,406.00 165.44,381.91 165.28,378.72 C165.26,378.49 165.23,378.32 165.19,378.20" fill="none" stroke="rgb(255, 0, 255)" stroke-width="2.41" stroke-opacity="1.00" stroke-linejoin="round"/>
<path d="M172.31,379.41 C172.31,379.41 171.45,379.78 171.45,379.78 C171.37,380.23 171.39,380.40 171.71,381.35 C172.52,383.84 174.30,402.22 174.94,405.50 C174.97,405.66 174.99,405.90 175.02,406.23 C175.02,406.23 179.01,405.37 179.01,405.37 C179.01,405.37 177.97,382.74 177.97,382.74 C177.97,382.74 177.72,383.59 177.72,383.59" fill="none" stroke="rgb(255, 0, 255)" stroke-width="2.41" stroke-opacity="1.00" stroke-linejoin="round"/>
<path d="M175.02,407.70 C174.87,407.69 174.76,407.69 174.69,407.70 C174.62,407.72 174.49,407.75 174.30,407.81 C174.26,408.99 174.63,411.50 175.21,412.77 C175.83,414.10 176.76,414.34 177.33,414.29 C178.23,413.65 179.17,411.18 179.20,409.57 C179.21,407.67 178.96,405.48 178.63,404.27 C178.63,404.27 178.27,404.79 178.27,404.79" fill="none" stroke="rgb(255, 0, 255)" stroke-width="2.41" stroke-opacity="1.00" stroke-linejoin="round"/>
<path d="M162.22,407.95 C162.04,408.01 161.32,408.27 161.12,408.38 C159.48,409.38 162.03,415.12 163.32,415.78 C164.77,415.75 166.91,413.45 167.68,411.18 C168.36,409.11 168.34,407.55 168.28,406.16" fill="none" stroke="rgb(255, 0, 255)" stroke-width="2.41" stroke-opacity="1.00" stroke-linejoin="round"/>
</g>
</svg>
