<?xml version="1.0" encoding="UTF-8" standalone="no"?>
<!DOCTYPE svg PUBLIC "-//W3C//DTD SVG 1.1//EN" "http://www.w3.org/Graphics/SVG/1.1/DTD/svg11.dtd">
<svg width="128.40" height="181.68" viewBox="0.00 0.00 535.00 757.00" xmlns="http://www.w3.org/2000/svg" xmlns:xlink="http://www.w3.org/1999/xlink">
<g stroke-linecap="round" transform="translate(44.00, 155.00)" id="134-비">
<path d="M333.41,123.75 C333.41,123.75 333.21,123.75 333.21,123.75 C333.21,123.75 332.59,124.26 332.59,124.26 C332.73,127.00 328.30,137.56 323.52,148.25 C320.70,154.62 315.71,170.89 314.58,174.93 C313.34,179.47 311.45,192.12 310.36,202.37 C309.25,214.60 309.67,236.73 309.01,255.86 C308.60,264.16 307.51,283.33 306.59,286.74 C305.96,289.00 303.80,294.70 302.96,297.02" fill="none" stroke="rgb(0, 0, 255)" stroke-width="2.39" stroke-opacity="1.00" stroke-linejoin="round"/>
<path d="M305.01,282.21 C305.01,282.21 304.51,282.99 304.51,282.99 C304.21,283.63 303.92,285.19 303.65,287.98 C302.95,295.50 301.76,307.71 301.65,316.32 C301.69,327.09 302.79,341.79 303.01,344.66 C303.08,345.30 303.24,346.54 303.49,348.39" fill="none" stroke="rgb(0, 0, 255)" stroke-width="2.39" stroke-opacity="1.00" stroke-linejoin="round"/>
<path d="M298.02,327.48 C298.02,327.48 297.93,325.92 297.93,325.92 C297.32,327.50 295.38,332.78 295.00,335.57 C294.30,340.80 293.92,353.64 293.98,360.07 C294.20,367.95 295.26,377.06 297.11,385.59 C299.18,394.30 302.69,405.58 303.79,408.22 C304.28,409.38 304.76,410.54 305.24,411.69" fill="none" stroke="rgb(0, 0, 255)" stroke-width="2.39" stroke-opacity="1.00" stroke-linejoin="round"/>
<path d="M319.01,348.47 C318.52,348.85 318.22,348.94 318.18,349.09 C317.69,351.48 318.67,368.59 319.12,376.51 C319.43,380.36 320.40,384.05 322.10,389.08 C322.63,390.63 323.51,393.21 323.85,394.23" fill="none" stroke="rgb(0, 0, 255)" stroke-width="2.39" stroke-opacity="1.00" stroke-linejoin="round"/>
<path d="M332.59,255.04 C332.59,255.04 330.98,254.63 330.98,254.63 C330.85,255.33 330.33,275.69 329.42,281.42 C328.73,285.74 327.52,303.16 327.02,310.93 C326.78,315.47 326.96,332.23 327.05,340.05 C327.26,350.58 328.61,366.89 328.70,368.73 C328.77,370.35 328.69,376.95 328.66,378.41" fill="none" stroke="rgb(0, 0, 255)" stroke-width="2.39" stroke-opacity="1.00" stroke-linejoin="round"/>
<path d="M352.34,122.52 C352.34,122.52 351.73,122.72 351.73,122.72 C351.28,123.68 349.19,137.24 346.98,146.66 C345.48,152.68 340.41,169.75 340.05,171.18 C339.91,171.72 330.89,208.37 327.18,228.59 C325.78,237.08 325.06,248.54 325.32,255.46 C325.59,261.89 327.54,274.75 328.06,278.09" fill="none" stroke="rgb(0, 0, 255)" stroke-width="2.39" stroke-opacity="1.00" stroke-linejoin="round"/>
<path d="M382.39,122.93 C380.92,123.66 380.19,125.10 378.55,129.78 C375.22,139.37 367.37,168.39 362.22,184.39 C360.81,188.91 357.80,204.26 356.37,211.77 C355.00,219.40 353.45,235.97 353.34,240.54 C353.24,245.32 353.51,257.57 353.54,258.92" fill="none" stroke="rgb(0, 0, 255)" stroke-width="2.39" stroke-opacity="1.00" stroke-linejoin="round"/>
<path d="M359.34,240.64 C359.34,240.64 358.93,239.53 358.93,239.53 C358.30,244.84 356.38,258.65 355.45,265.17 C354.93,269.28 351.52,307.00 351.74,320.39 C351.97,327.78 352.98,347.54 353.08,348.67 C353.29,351.02 353.99,355.90 354.13,356.88" fill="none" stroke="rgb(0, 0, 255)" stroke-width="2.39" stroke-opacity="1.00" stroke-linejoin="round"/>
<path d="M357.28,347.65 C357.28,347.65 358.45,345.61 358.45,345.61 C356.65,348.73 355.20,353.25 354.93,356.41 C353.76,371.48 354.49,389.03 355.45,397.57 C355.90,401.34 356.96,407.49 357.45,410.23" fill="none" stroke="rgb(0, 0, 255)" stroke-width="2.39" stroke-opacity="1.00" stroke-linejoin="round"/>
<path d="M384.45,232.41 C384.45,232.41 383.43,232.68 383.43,232.68 C383.31,232.91 383.23,233.18 383.21,233.48 C383.20,233.58 383.27,240.36 383.51,243.38 C383.94,249.08 383.85,265.56 383.74,272.69 C382.43,301.36 380.21,352.24 380.66,357.10 C380.81,358.64 382.16,367.11 382.72,370.59" fill="none" stroke="rgb(0, 0, 255)" stroke-width="2.39" stroke-opacity="1.00" stroke-linejoin="round"/>
<path d="M386.50,346.00 C386.50,346.00 385.89,346.08 385.89,346.08 C384.76,346.64 382.60,373.00 382.11,386.16 C381.92,390.65 382.30,395.55 383.15,399.41 C383.88,402.61 385.85,409.59 386.43,411.16 C386.97,412.57 388.77,416.26 389.80,418.44" fill="none" stroke="rgb(0, 0, 255)" stroke-width="2.39" stroke-opacity="1.00" stroke-linejoin="round"/>
<path d="M392.27,125.40 C392.27,125.40 392.27,125.61 392.27,125.61 C392.27,125.61 391.85,125.81 391.85,125.81 C390.28,135.25 388.95,147.72 387.84,151.91 C383.05,168.78 377.67,190.88 373.97,205.28 C372.54,211.24 372.00,222.48 372.95,230.37 C373.41,233.81 374.01,238.32 374.16,239.39" fill="none" stroke="rgb(0, 0, 255)" stroke-width="2.39" stroke-opacity="1.00" stroke-linejoin="round"/>
<path d="M403.79,127.46 C403.79,127.46 403.58,127.46 403.58,127.46 C403.40,128.02 401.26,144.45 401.00,147.18 C400.84,148.87 391.47,193.79 390.46,201.03 C390.03,204.11 387.60,226.96 387.56,227.43 C387.38,229.44 387.20,232.04 387.14,233.33" fill="none" stroke="rgb(0, 0, 255)" stroke-width="2.39" stroke-opacity="1.00" stroke-linejoin="round"/>
<path d="M390.21,236.11 C389.46,236.08 388.98,236.03 388.78,235.96 C388.58,235.89 388.37,235.70 388.15,235.39 C388.86,236.44 394.04,273.98 396.11,285.12 C403.49,320.22 411.04,349.96 411.14,350.67 C411.23,351.26 411.37,352.55 411.56,354.55" fill="none" stroke="rgb(0, 0, 255)" stroke-width="2.39" stroke-opacity="1.00" stroke-linejoin="round"/>
<path d="M415.31,358.35 C415.31,358.35 414.49,359.28 414.49,359.28 C414.62,359.62 416.30,362.41 417.00,365.85 C417.89,370.23 422.02,395.79 422.12,397.70 C422.17,398.91 422.26,401.08 422.29,402.06" fill="none" stroke="rgb(0, 0, 255)" stroke-width="2.39" stroke-opacity="1.00" stroke-linejoin="round"/>
<path d="M409.14,204.42 C408.70,205.16 408.08,207.38 407.91,209.20 C407.83,210.05 408.99,231.33 409.49,239.32 C410.21,249.64 410.60,251.61 414.72,263.71 C415.43,265.79 416.55,269.07 416.96,270.27" fill="none" stroke="rgb(0, 0, 255)" stroke-width="2.39" stroke-opacity="1.00" stroke-linejoin="round"/>
<path d="M412.02,234.47 C411.99,235.59 411.99,236.41 412.02,236.93 C412.11,238.32 414.76,256.08 415.76,263.20 C416.09,266.02 417.93,283.64 418.34,290.44 C418.56,297.30 419.22,312.54 419.67,320.91 C420.35,332.11 422.20,343.99 423.18,350.86 C423.80,354.85 426.57,366.68 426.84,367.82" fill="none" stroke="rgb(0, 0, 255)" stroke-width="2.39" stroke-opacity="1.00" stroke-linejoin="round"/>
<path d="M437.95,358.76 C437.95,358.76 436.83,358.39 436.83,358.39 C435.32,370.54 434.56,378.95 434.88,386.12 C435.09,389.64 435.56,396.15 435.82,399.14 C436.16,402.41 436.81,408.56 437.13,411.44" fill="none" stroke="rgb(0, 0, 255)" stroke-width="2.39" stroke-opacity="1.00" stroke-linejoin="round"/>
<path d="M446.59,360.82 C446.59,360.82 446.18,360.82 446.18,360.82 C446.18,360.82 445.89,360.41 445.89,360.41 C445.98,362.38 455.13,400.62 457.25,409.37 C457.65,411.04 458.29,413.72 458.53,414.73" fill="none" stroke="rgb(0, 0, 255)" stroke-width="2.39" stroke-opacity="1.00" stroke-linejoin="round"/>
<path d="M420.67,129.52 C420.67,129.52 419.64,130.13 419.64,130.13 C419.32,131.99 419.80,139.91 419.76,141.07 C419.71,142.22 416.71,159.09 415.85,165.66 C414.72,175.52 414.52,179.95 414.48,191.96 C414.51,195.83 414.95,202.45 415.15,205.32" fill="none" stroke="rgb(0, 0, 255)" stroke-width="2.39" stroke-opacity="1.00" stroke-linejoin="round"/>
<path d="M411.61,124.16 C411.61,124.16 412.02,122.11 412.02,122.11 C411.80,125.71 410.28,139.07 410.09,145.64 C410.02,152.25 409.97,167.06 409.99,175.27 C410.17,188.35 413.50,205.91 413.80,207.43" fill="none" stroke="rgb(0, 0, 255)" stroke-width="2.39" stroke-opacity="1.00" stroke-linejoin="round"/>
<path d="M420.25,198.25 C420.25,198.25 419.22,197.01 419.22,197.01 C418.45,197.19 419.00,205.47 419.16,207.35 C420.43,223.65 423.12,252.64 424.53,265.33 C427.24,301.60 429.74,319.56 432.40,342.10 C432.61,344.12 432.92,347.10 433.01,348.06" fill="none" stroke="rgb(0, 0, 255)" stroke-width="2.39" stroke-opacity="1.00" stroke-linejoin="round"/>
<path d="M459.35,339.01 C459.33,340.13 459.43,342.29 459.61,343.22 C459.66,343.48 464.98,361.60 467.43,366.80 C470.51,373.36 473.28,380.70 476.18,389.79 C478.32,396.22 481.60,403.33 484.87,409.80" fill="none" stroke="rgb(0, 0, 255)" stroke-width="2.39" stroke-opacity="1.00" stroke-linejoin="round"/>
<path d="M472.93,346.83 C472.93,346.83 472.93,344.97 472.93,344.97 C472.93,344.97 472.66,345.08 472.66,345.08 C472.38,347.82 472.77,362.69 473.30,367.77 C473.63,370.83 477.71,394.73 478.02,396.10 C479.17,401.13 482.05,411.36 482.41,412.57" fill="none" stroke="rgb(0, 0, 255)" stroke-width="2.39" stroke-opacity="1.00" stroke-linejoin="round"/>
<path d="M436.72,188.37 C436.72,188.37 435.89,189.78 435.89,189.78 C435.91,190.58 438.02,208.88 438.75,217.07 C439.85,231.36 441.62,267.38 442.50,273.92 C443.46,280.87 445.57,296.37 446.92,302.74 C447.88,307.28 451.83,322.65 454.30,331.10 C455.31,334.65 456.64,339.30 456.95,340.40" fill="none" stroke="rgb(0, 0, 255)" stroke-width="2.39" stroke-opacity="1.00" stroke-linejoin="round"/>
<path d="M437.95,120.46 C437.95,120.46 437.87,119.27 437.87,119.27 C437.59,120.09 435.83,134.44 434.97,141.32 C433.81,150.18 433.92,177.03 434.47,182.23 C434.94,186.33 435.60,191.93 435.77,193.44" fill="none" stroke="rgb(0, 0, 255)" stroke-width="2.39" stroke-opacity="1.00" stroke-linejoin="round"/>
<path d="M451.94,109.35 C451.87,109.75 451.11,110.85 450.93,111.35 C450.52,112.55 445.90,143.88 443.09,165.93 C442.30,173.26 440.94,187.10 440.91,190.48 C440.88,196.21 441.92,210.50 443.05,218.65 C444.13,225.43 446.72,238.40 447.98,244.34 C450.37,255.13 467.16,310.05 471.05,321.14 C472.21,324.38 474.18,329.81 474.99,332.01" fill="none" stroke="rgb(0, 0, 255)" stroke-width="2.39" stroke-opacity="1.00" stroke-linejoin="round"/>
<path d="M464.29,194.13 C464.30,194.84 464.28,196.10 464.45,196.60 C466.28,202.39 469.10,219.26 469.21,220.16 C470.58,232.07 470.31,258.65 471.11,272.13 C471.67,281.29 472.11,292.87 472.65,298.31 C473.16,303.32 476.05,318.70 477.12,327.93 C477.53,331.33 479.24,349.76 479.87,354.15 C480.33,357.29 481.73,364.45 482.49,367.70 C483.27,370.91 484.30,375.10 484.55,376.08" fill="none" stroke="rgb(0, 0, 255)" stroke-width="2.39" stroke-opacity="1.00" stroke-linejoin="round"/>
<path d="M455.24,113.05 C454.71,113.57 454.44,113.92 454.41,114.66 C453.73,134.19 458.64,188.02 458.60,194.17 C458.58,196.28 457.15,215.17 457.92,222.09 C458.56,227.72 461.04,240.45 462.42,247.35 C464.71,257.98 466.86,266.25 467.58,269.04" fill="none" stroke="rgb(0, 0, 255)" stroke-width="2.39" stroke-opacity="1.00" stroke-linejoin="round"/>
<path d="M463.47,109.76 C463.47,109.76 463.06,110.25 463.06,110.25 C463.07,111.52 464.23,123.45 464.34,133.65 C464.32,140.50 464.22,151.62 463.51,160.26 C461.82,180.46 461.09,201.52 459.35,213.89" fill="none" stroke="rgb(0, 0, 255)" stroke-width="2.39" stroke-opacity="1.00" stroke-linejoin="round"/>
<path d="M295.55,139.80 C294.63,142.44 294.31,143.44 294.31,144.23 C294.31,153.08 289.94,188.89 289.18,201.06 C288.89,205.88 286.63,224.08 285.66,231.44 C285.30,234.43 284.27,257.43 283.96,262.18 C283.68,266.63 283.62,271.36 283.61,272.61" fill="none" stroke="rgb(0, 0, 255)" stroke-width="2.39" stroke-opacity="1.00" stroke-linejoin="round"/>
<path d="M286.90,116.76 C286.90,116.76 285.67,114.07 285.67,114.07 C285.62,115.01 277.80,167.40 277.21,173.15 C276.13,183.13 273.62,228.14 273.71,232.76 C273.86,238.93 276.52,254.59 276.55,254.72 C276.65,255.19 276.86,255.88 277.19,256.81" fill="none" stroke="rgb(0, 0, 255)" stroke-width="2.39" stroke-opacity="1.00" stroke-linejoin="round"/>
<path d="M254.39,115.52 C254.40,116.38 254.37,116.86 254.39,116.96 C254.85,119.71 254.18,125.19 253.74,128.71 C252.68,136.71 250.16,155.70 249.85,157.54 C248.37,165.43 244.42,185.67 243.63,189.14 C243.21,190.97 237.94,209.80 236.82,216.56 C235.03,227.58 233.56,253.74 233.43,257.00 C233.34,258.91 233.18,262.08 233.12,263.34" fill="none" stroke="rgb(0, 0, 255)" stroke-width="2.39" stroke-opacity="1.00" stroke-linejoin="round"/>
<path d="M230.11,113.88 C229.24,115.94 228.30,118.52 228.01,119.95 C227.71,121.54 225.98,143.46 226.01,147.34 C226.16,156.57 227.58,164.75 230.13,177.57 C232.35,187.91 239.57,214.84 240.56,220.69 C240.85,222.43 241.32,228.20 241.44,229.66" fill="none" stroke="rgb(0, 0, 255)" stroke-width="2.39" stroke-opacity="1.00" stroke-linejoin="round"/>
<path d="M225.99,162.85 C226.02,166.37 225.89,171.35 226.20,174.46 C227.90,187.48 231.07,211.80 233.80,223.95 C235.03,229.20 238.33,240.03 239.16,242.70" fill="none" stroke="rgb(0, 0, 255)" stroke-width="2.39" stroke-opacity="1.00" stroke-linejoin="round"/>
<path d="M206.24,134.87 C206.24,134.87 204.63,134.17 204.63,134.17 C204.51,140.12 200.46,177.56 198.62,191.33 C198.07,196.17 194.96,231.29 193.48,245.65 C192.71,254.17 190.93,273.62 190.43,277.25 C190.34,277.88 190.21,278.73 190.03,279.80" fill="none" stroke="rgb(0, 0, 255)" stroke-width="2.39" stroke-opacity="1.00" stroke-linejoin="round"/>
<path d="M195.95,262.86 C195.95,262.86 195.83,261.84 195.83,261.84 C195.68,261.76 194.16,293.19 193.33,315.50 C192.72,338.12 193.38,384.16 193.47,391.60 C193.45,398.20 193.29,403.22 193.20,405.56" fill="none" stroke="rgb(0, 0, 255)" stroke-width="2.39" stroke-opacity="1.00" stroke-linejoin="round"/>
<path d="M160.55,105.64 C160.55,105.64 159.73,104.46 159.73,104.46 C157.62,118.44 154.18,142.58 152.99,159.50 C152.57,166.58 152.10,182.52 151.94,190.40 C151.96,201.05 152.61,213.78 153.14,220.66 C155.19,240.27 156.59,261.99 156.79,273.79" fill="none" stroke="rgb(0, 0, 255)" stroke-width="2.39" stroke-opacity="1.00" stroke-linejoin="round"/>
<path d="M159.73,272.33 C159.73,272.33 159.32,272.12 159.32,272.12 C159.32,274.21 161.66,293.94 161.92,300.84 C163.50,327.48 165.03,370.35 165.44,384.23 C165.64,389.87 167.01,404.41 167.61,410.45" fill="none" stroke="rgb(0, 0, 255)" stroke-width="2.39" stroke-opacity="1.00" stroke-linejoin="round"/>
<path d="M142.03,103.17 C142.03,103.17 141.41,101.99 141.41,101.99 C141.14,102.15 146.61,203.88 146.80,212.39 C146.89,219.44 147.13,234.26 147.29,242.02 C147.50,249.28 148.03,263.51 148.35,270.48 C148.43,272.27 148.56,275.26 148.62,276.45" fill="none" stroke="rgb(0, 0, 255)" stroke-width="2.39" stroke-opacity="1.00" stroke-linejoin="round"/>
<path d="M144.50,260.39 C144.50,260.39 143.88,260.39 143.88,260.39 C143.59,260.70 143.78,262.02 144.85,264.22 C147.61,270.01 149.75,283.76 150.61,290.27 C151.26,296.17 152.49,308.79 153.12,314.83 C153.62,319.75 155.05,356.15 156.68,368.18 C158.67,382.70 159.01,396.42 159.20,399.25 C159.20,399.25 159.30,398.83 159.30,398.83" fill="none" stroke="rgb(0, 0, 255)" stroke-width="2.39" stroke-opacity="1.00" stroke-linejoin="round"/>
<path d="M121.04,102.35 C120.71,102.45 120.50,102.52 120.42,102.56 C120.34,102.60 120.27,102.67 120.22,102.76 C120.13,102.41 116.90,108.71 116.90,127.65 C117.19,142.64 117.92,183.31 118.23,186.92 C118.82,193.17 120.14,207.48 120.88,215.55 C121.73,224.02 122.85,235.14 123.13,237.79" fill="none" stroke="rgb(0, 0, 255)" stroke-width="2.39" stroke-opacity="1.00" stroke-linejoin="round"/>
<path d="M118.16,226.23 C118.16,226.23 117.34,226.57 117.34,226.57 C121.36,234.54 124.67,243.82 125.59,250.51 C126.24,255.93 130.11,276.00 130.62,279.08 C130.85,280.50 133.32,299.81 134.27,307.33 C135.60,319.38 135.14,352.12 136.17,363.55 C136.45,366.95 136.73,375.24 136.48,377.59 C136.27,379.54 135.67,382.63 135.22,384.44" fill="none" stroke="rgb(0, 0, 255)" stroke-width="2.39" stroke-opacity="1.00" stroke-linejoin="round"/>
<path d="M95.11,127.87 C94.87,127.79 99.97,146.73 100.37,148.39 C101.32,152.49 103.64,193.60 104.16,198.51 C104.95,205.46 106.62,219.71 107.49,227.01 C108.23,232.45 108.79,235.95 108.95,236.91" fill="none" stroke="rgb(0, 0, 255)" stroke-width="2.39" stroke-opacity="1.00" stroke-linejoin="round"/>
<path d="M106.22,210.59 C106.22,210.59 104.78,210.59 104.78,210.59 C104.53,212.55 105.67,229.97 106.14,237.61 C106.80,246.13 112.00,276.40 114.11,288.49 C116.78,303.92 120.55,326.61 122.95,346.06 C123.93,353.89 125.92,368.69 126.93,375.65 C127.24,377.93 127.76,381.71 127.96,383.21" fill="none" stroke="rgb(0, 0, 255)" stroke-width="2.39" stroke-opacity="1.00" stroke-linejoin="round"/>
<path d="M84.41,111.82 C83.46,112.68 82.36,115.19 82.46,117.15 C83.01,122.61 83.13,135.81 83.18,143.25 C83.23,158.63 82.43,185.96 82.19,201.38 C82.30,214.78 82.51,231.97 83.85,257.62 C85.10,280.89 85.75,286.76 85.84,287.61" fill="none" stroke="rgb(0, 0, 255)" stroke-width="2.39" stroke-opacity="1.00" stroke-linejoin="round"/>
<path d="M92.64,241.05 C92.64,241.05 90.69,242.32 90.69,242.32 C90.72,242.71 92.58,256.11 93.15,262.97 C94.09,276.69 94.38,296.89 95.80,317.60 C96.45,325.74 97.72,340.71 98.33,347.53 C98.71,351.61 101.64,367.96 103.04,375.72 C106.94,397.03 109.12,407.56 109.33,408.58" fill="none" stroke="rgb(0, 0, 255)" stroke-width="2.39" stroke-opacity="1.00" stroke-linejoin="round"/>
<path d="M74.53,125.40 C74.53,125.40 73.71,124.99 73.71,124.99 C73.32,126.87 73.03,131.44 72.63,133.19 C70.68,141.87 69.31,153.23 69.21,157.41 C69.07,164.30 69.52,177.34 70.28,184.03 C70.75,188.16 73.45,203.86 74.48,209.30 C78.08,226.05 83.45,250.98 85.23,259.16" fill="none" stroke="rgb(0, 0, 255)" stroke-width="2.39" stroke-opacity="1.00" stroke-linejoin="round"/>
<path d="M66.30,181.37 C66.30,181.37 65.27,181.51 65.27,181.51 C64.67,182.30 64.65,185.22 65.31,188.57 C66.71,195.69 67.29,214.36 67.53,218.29 C68.89,236.50 69.89,262.89 70.85,274.90 C71.54,283.21 72.92,299.43 73.62,307.34 C73.92,310.32 74.30,314.07 74.38,314.84" fill="none" stroke="rgb(0, 0, 255)" stroke-width="2.39" stroke-opacity="1.00" stroke-linejoin="round"/>
<path d="M56.84,142.69 C56.84,142.69 55.60,142.85 55.60,142.85 C55.60,161.64 54.99,177.17 55.35,195.23 C55.62,203.16 57.14,214.38 58.97,223.16 C60.35,230.15 63.74,248.10 64.13,250.70 C64.83,255.33 66.51,292.27 68.80,304.26 C69.28,306.75 74.94,332.18 82.20,358.89 C83.60,364.39 86.38,379.47 87.59,386.23 C88.20,389.57 89.00,393.95 89.19,394.99" fill="none" stroke="rgb(0, 0, 255)" stroke-width="2.39" stroke-opacity="1.00" stroke-linejoin="round"/>
<path d="M77.00,341.89 C77.00,341.89 76.59,341.89 76.59,341.89 C76.57,345.79 78.30,381.80 78.69,389.65 C78.94,394.28 79.39,399.00 80.17,402.98 C80.34,403.80 80.50,404.62 80.67,405.43" fill="none" stroke="rgb(0, 0, 255)" stroke-width="2.39" stroke-opacity="1.00" stroke-linejoin="round"/>
<path d="M33.79,130.34 C33.79,130.34 32.35,131.47 32.35,131.47 C32.27,133.84 33.58,138.59 34.06,140.93 C34.95,145.44 35.07,162.41 35.21,165.90 C35.60,174.13 36.35,208.83 36.90,224.01 C37.96,242.94 45.26,285.90 45.77,290.12 C46.55,296.84 46.57,305.60 46.58,306.66" fill="none" stroke="rgb(0, 0, 255)" stroke-width="2.39" stroke-opacity="1.00" stroke-linejoin="round"/>
<path d="M51.90,288.38 C50.78,289.85 50.13,290.66 50.25,291.19 C51.67,297.50 52.29,313.24 52.33,320.79 C52.31,327.10 55.74,366.06 57.78,377.08 C59.55,386.22 61.72,395.88 63.12,401.29 C64.10,404.93 66.04,412.15 67.01,415.73" fill="none" stroke="rgb(0, 0, 255)" stroke-width="2.39" stroke-opacity="1.00" stroke-linejoin="round"/>
<path d="M10.33,130.34 C10.33,130.34 8.68,130.39 8.68,130.39 C8.69,130.87 11.93,142.00 13.09,149.48 C15.24,164.70 18.80,196.77 20.38,212.10 C21.52,222.79 22.65,230.28 24.26,239.04 C26.90,252.18 29.79,266.51 30.04,267.71" fill="none" stroke="rgb(0, 0, 255)" stroke-width="2.39" stroke-opacity="1.00" stroke-linejoin="round"/>
<path d="M31.32,246.81 C31.32,246.81 31.32,242.61 31.32,242.61 C31.17,242.47 30.75,242.54 32.68,292.06 C33.83,308.05 38.74,344.57 40.11,351.12 C41.86,358.90 46.21,377.63 47.39,381.93 C49.06,387.98 52.03,395.89 52.44,396.96" fill="none" stroke="rgb(0, 0, 255)" stroke-width="2.39" stroke-opacity="1.00" stroke-linejoin="round"/>
<path d="M-12.72,124.16 C-14.00,125.26 -13.95,126.24 -13.48,130.86 C-13.23,133.34 -13.00,150.69 -12.25,156.25 C-11.25,162.92 -9.02,197.59 -6.72,210.52 C-3.99,224.62 -0.39,243.93 0.49,249.13 C0.95,252.16 2.01,259.09 2.61,262.99" fill="none" stroke="rgb(0, 0, 255)" stroke-width="2.39" stroke-opacity="1.00" stroke-linejoin="round"/>
<path d="M4.98,235.29 C4.48,235.98 4.20,237.09 4.15,238.90 C4.09,241.71 5.20,256.86 5.39,266.93 C5.39,279.79 5.51,282.83 6.85,294.49 C7.30,298.02 13.43,336.84 16.09,353.02 C18.95,370.68 20.25,388.66 20.74,396.49 C20.92,400.67 20.97,406.19 20.98,407.33" fill="none" stroke="rgb(0, 0, 255)" stroke-width="2.39" stroke-opacity="1.00" stroke-linejoin="round"/>
</g>
</svg>
