<?xml version="1.0" encoding="UTF-8" standalone="no"?>
<!DOCTYPE svg PUBLIC "-//W3C//DTD SVG 1.1//EN" "http://www.w3.org/Graphics/SVG/1.1/DTD/svg11.dtd">
<svg width="128.40" height="181.68" viewBox="0.00 0.00 535.00 757.00" xmlns="http://www.w3.org/2000/svg" xmlns:xlink="http://www.w3.org/1999/xlink">
<g stroke-linecap="round" transform="translate(44.00, 155.00)" id="135-물고기-9">
<path d="M292.77,176.95 C292.66,176.89 292.19,177.27 291.96,177.35 C291.24,177.56 289.63,176.27 287.55,174.09 C281.00,167.12 275.87,163.85 274.37,163.49 C274.05,163.67 273.41,173.16 271.38,185.99 C271.27,186.76 271.16,187.53 271.05,188.30 C272.31,188.04 276.10,184.12 279.15,181.95 C282.46,179.61 287.24,176.83 290.52,175.70 C290.91,175.56 291.66,175.32 292.77,174.97" fill="none" stroke="rgb(255, 0, 0)" stroke-width="3.24" stroke-opacity="1.00" stroke-linejoin="round"/>
<path d="M297.93,176.16 C296.82,176.11 295.23,175.80 294.67,175.76 C293.99,175.73 292.40,178.81 291.94,181.63 C291.68,183.34 291.67,186.75 291.98,188.00 C292.38,189.39 294.04,191.32 295.27,191.84 C296.48,192.29 299.15,192.22 300.46,191.73 C302.86,190.76 305.86,186.69 306.39,184.23 C306.82,181.97 305.66,178.48 304.10,177.18 C303.42,176.65 301.30,175.57 300.60,175.48 C299.71,175.38 295.01,176.34 293.96,176.55" fill="none" stroke="rgb(255, 0, 0)" stroke-width="3.24" stroke-opacity="1.00" stroke-linejoin="round"/>
</g>
</svg>
