<?xml version="1.0" encoding="UTF-8" standalone="no"?>
<!DOCTYPE svg PUBLIC "-//W3C//DTD SVG 1.1//EN" "http://www.w3.org/Graphics/SVG/1.1/DTD/svg11.dtd">
<svg width="128.40" height="181.68" viewBox="0.00 0.00 535.00 757.00" xmlns="http://www.w3.org/2000/svg" xmlns:xlink="http://www.w3.org/1999/xlink">
<g stroke-linecap="round" transform="translate(44.00, 155.00)" id="135-물고기-7">
<path d="M204.57,177.75 C202.94,177.83 199.11,174.93 197.86,174.13 C192.31,170.60 185.47,168.38 181.72,167.59 C181.72,167.59 189.85,198.11 189.85,198.11 C190.19,197.63 192.39,193.83 194.58,191.06 C197.13,187.85 203.61,180.76 204.26,180.06" fill="none" stroke="rgb(255, 0, 0)" stroke-width="3.24" stroke-opacity="1.00" stroke-linejoin="round"/>
<path d="M220.86,163.44 C219.27,163.42 216.88,163.44 215.92,163.54 C214.06,163.77 209.01,165.78 207.37,167.37 C206.28,168.47 204.75,171.10 204.26,172.75 C203.39,175.86 203.70,183.13 205.11,185.11 C205.90,186.13 208.21,187.43 209.59,187.62 C210.99,187.77 214.07,187.19 215.65,186.49 C218.67,185.09 222.97,180.22 224.05,177.11 C224.56,175.57 224.89,172.62 224.69,171.23 C224.44,169.77 223.09,166.97 222.11,165.93 C221.20,165.02 218.22,163.46 217.23,163.42 C216.12,163.40 211.29,165.54 209.73,166.22" fill="none" stroke="rgb(255, 0, 0)" stroke-width="3.24" stroke-opacity="1.00" stroke-linejoin="round"/>
</g>
</svg>
