<?xml version="1.0" encoding="UTF-8" standalone="no"?>
<!DOCTYPE svg PUBLIC "-//W3C//DTD SVG 1.1//EN" "http://www.w3.org/Graphics/SVG/1.1/DTD/svg11.dtd">
<svg width="128.40" height="181.68" viewBox="0.00 0.00 535.00 757.00" xmlns="http://www.w3.org/2000/svg" xmlns:xlink="http://www.w3.org/1999/xlink">
<g stroke-linecap="round" transform="translate(44.00, 155.00)" id="135-구름-2">
<path d="M92.42,-117.11 C92.42,-117.11 91.98,-118.07 91.98,-118.07 C93.11,-116.99 95.27,-115.02 96.88,-114.57 C98.57,-114.14 101.43,-114.56 102.34,-115.50 C103.27,-116.52 103.38,-117.79 103.29,-118.47 C102.47,-119.52 101.48,-120.14 99.98,-120.37 C97.57,-120.70 92.45,-119.43 90.61,-118.21 C89.49,-117.44 87.77,-115.62 87.18,-114.54 C86.57,-113.34 86.05,-110.78 86.21,-109.48 C86.40,-108.25 87.80,-105.36 88.67,-104.50 C89.78,-103.46 92.73,-102.38 94.61,-102.26 C97.38,-102.14 100.94,-102.93 101.86,-103.24 C101.96,-103.32 100.96,-100.73 100.92,-100.56 C100.68,-99.52 101.30,-97.14 102.07,-96.17 C103.08,-94.96 105.76,-93.92 108.08,-93.73 C109.54,-93.64 114.78,-94.64 116.84,-95.40 C118.93,-96.20 124.07,-99.04 126.24,-100.85 C128.43,-102.72 130.27,-105.81 130.66,-108.03 C130.66,-108.03 130.90,-111.48 130.78,-112.13 C130.10,-115.60 127.05,-117.95 126.40,-118.23 C127.32,-118.47 129.85,-121.67 130.05,-125.06 C130.13,-126.96 128.90,-130.78 127.76,-132.15 C126.70,-133.35 123.90,-134.76 122.22,-135.09 C120.79,-135.32 117.93,-135.17 116.63,-134.78 C115.16,-134.29 112.65,-132.51 111.65,-131.17 C110.60,-129.71 109.43,-126.41 109.28,-124.59 C109.06,-121.24 110.43,-119.23 110.91,-119.07 C111.98,-119.19 114.09,-121.84 114.35,-124.31 C114.47,-125.70 113.72,-128.02 112.90,-129.01 C111.95,-130.09 106.94,-133.61 105.60,-134.18 C103.65,-134.94 100.31,-133.69 98.53,-131.75 C98.04,-131.19 96.10,-128.63 95.79,-127.99 C94.85,-125.93 94.68,-123.01 95.42,-121.25 C95.68,-120.66 97.02,-118.61 97.69,-117.55" fill="none" stroke="rgb(0, 255, 0)" stroke-width="3.24" stroke-opacity="1.00" stroke-linejoin="round"/>
</g>
</svg>
