<?xml version="1.0" encoding="UTF-8" standalone="no"?>
<!DOCTYPE svg PUBLIC "-//W3C//DTD SVG 1.1//EN" "http://www.w3.org/Graphics/SVG/1.1/DTD/svg11.dtd">
<svg width="128.40" height="181.68" viewBox="0.00 0.00 535.00 757.00" xmlns="http://www.w3.org/2000/svg" xmlns:xlink="http://www.w3.org/1999/xlink">
<g stroke-linecap="round" transform="translate(44.00, 155.00)" id="135-사람">
<path d="M135.04,133.35 C135.04,133.35 134.38,133.78 134.38,133.78 C134.38,133.78 133.80,133.73 133.80,133.73 C130.82,133.40 128.86,133.53 127.07,134.36 C125.25,135.23 123.78,136.31 123.10,137.29 C121.84,139.26 121.56,142.82 122.44,145.41 C123.36,147.98 125.95,152.22 127.15,152.98 C128.46,153.76 132.77,153.81 134.78,153.47 C137.15,153.03 140.83,150.71 141.82,148.71 C142.78,146.66 143.19,141.27 142.15,139.30 C140.88,137.02 138.86,135.75 135.95,134.53 C135.36,134.28 134.76,134.03 134.16,133.78" fill="none" stroke="rgb(228, 0, 126)" stroke-width="3.24" stroke-opacity="1.00" stroke-linejoin="round"/>
<path d="M124.50,138.62 C124.50,138.62 124.06,139.18 124.06,139.18 C124.40,140.41 124.96,141.20 126.27,142.09 C127.58,142.99 128.33,143.28 129.13,143.31 C129.13,143.31 133.58,135.31 133.58,135.31 C133.69,135.35 135.08,138.37 136.63,139.62 C136.83,139.78 137.13,139.94 137.53,140.11 C137.53,140.11 139.51,139.80 139.51,139.80 C139.51,139.80 141.60,136.66 141.60,136.66" fill="none" stroke="rgb(228, 0, 126)" stroke-width="3.24" stroke-opacity="1.00" stroke-linejoin="round"/>
<path d="M127.57,144.77 C127.04,145.25 126.70,145.73 126.69,146.14 C126.69,146.25 126.72,146.46 126.77,146.76 C126.77,146.76 128.35,145.31 128.35,145.31 C128.35,145.31 128.77,145.52 128.77,145.52" fill="none" stroke="rgb(228, 0, 126)" stroke-width="3.24" stroke-opacity="1.00" stroke-linejoin="round"/>
<path d="M137.68,143.89 C137.68,143.89 137.02,144.11 137.02,144.11 C137.02,144.11 136.90,144.74 136.90,144.74 C136.90,144.74 137.29,144.60 137.29,144.60" fill="none" stroke="rgb(228, 0, 126)" stroke-width="3.24" stroke-opacity="1.00" stroke-linejoin="round"/>
<path d="M132.85,147.41 C132.85,147.41 132.85,147.63 132.85,147.63 C132.85,147.63 132.41,147.94 132.41,147.94 C132.41,147.94 133.14,148.59 133.14,148.59" fill="none" stroke="rgb(228, 0, 126)" stroke-width="3.24" stroke-opacity="1.00" stroke-linejoin="round"/>
<path d="M132.41,152.24 C132.41,152.24 132.60,151.21 132.60,151.21 C133.07,151.01 136.36,150.71 137.63,150.52 C138.10,150.45 138.46,150.33 138.71,150.17" fill="none" stroke="rgb(228, 0, 126)" stroke-width="3.24" stroke-opacity="1.00" stroke-linejoin="round"/>
<path d="M131.53,155.75 C131.53,155.75 131.53,155.53 131.53,155.53 C131.53,155.53 131.97,155.64 131.97,155.64 C131.97,155.64 129.41,163.47 129.41,163.47 C129.41,163.47 133.63,164.35 133.63,164.35 C133.63,164.35 136.77,159.49 136.77,159.49 C136.77,159.49 139.10,169.35 139.10,169.35 C140.14,169.21 141.87,168.52 142.87,167.74 C143.32,167.37 143.67,166.00 143.53,165.16 C143.29,163.82 142.27,159.77 142.40,159.61 C142.40,159.61 146.12,163.18 146.12,163.18 C147.86,161.78 148.57,158.84 148.35,158.07 C147.60,157.16 145.74,155.60 145.02,155.01 C144.42,154.52 141.69,152.15 140.70,151.28" fill="none" stroke="rgb(228, 0, 126)" stroke-width="3.24" stroke-opacity="1.00" stroke-linejoin="round"/>
<path d="M148.66,158.39 C148.66,158.39 148.00,158.39 148.00,158.39 C148.00,158.39 147.84,157.95 147.84,157.95 C147.84,157.95 153.37,157.77 153.37,157.77 C154.92,159.14 155.38,161.85 154.60,162.62 C153.93,163.23 149.35,163.42 149.06,163.19 C148.79,162.97 148.07,162.28 146.89,161.11" fill="none" stroke="rgb(228, 0, 126)" stroke-width="3.24" stroke-opacity="1.00" stroke-linejoin="round"/>
<path d="M130.65,164.10 C130.65,164.10 129.62,164.10 129.62,164.10 C128.71,164.77 128.20,168.50 128.67,169.94 C128.92,170.60 129.73,171.43 130.32,171.55 C130.95,171.64 132.61,171.07 133.26,170.49 C133.61,170.16 135.27,168.02 135.87,167.24" fill="none" stroke="rgb(228, 0, 126)" stroke-width="3.24" stroke-opacity="1.00" stroke-linejoin="round"/>
<path d="M139.88,168.94 C139.88,168.94 139.22,169.11 139.22,169.11 C139.08,169.43 138.99,169.71 138.93,169.96 C138.49,171.93 138.57,178.17 138.60,179.90 C138.60,179.90 148.91,175.02 148.91,175.02 C148.15,174.73 147.04,174.12 145.94,173.30 C143.66,171.57 141.45,168.47 140.55,167.08" fill="none" stroke="rgb(228, 0, 126)" stroke-width="3.24" stroke-opacity="1.00" stroke-linejoin="round"/>
<path d="M139.00,178.60 C138.48,178.70 138.05,179.05 137.90,179.18 C137.56,179.44 136.63,179.63 135.64,180.36 C136.57,180.63 137.18,180.75 137.47,180.74 C137.76,180.72 138.12,180.54 138.56,180.19" fill="none" stroke="rgb(228, 0, 126)" stroke-width="3.24" stroke-opacity="1.00" stroke-linejoin="round"/>
</g>
</svg>
