<?xml version="1.0" encoding="UTF-8" standalone="no"?>
<!DOCTYPE svg PUBLIC "-//W3C//DTD SVG 1.1//EN" "http://www.w3.org/Graphics/SVG/1.1/DTD/svg11.dtd">
<svg width="128.40" height="181.68" viewBox="0.00 0.00 535.00 757.00" xmlns="http://www.w3.org/2000/svg" xmlns:xlink="http://www.w3.org/1999/xlink">
<g stroke-linecap="round" transform="translate(44.00, 155.00)" id="135-구름-3">
<path d="M199.19,-111.83 C199.19,-111.83 198.53,-111.39 198.53,-111.39 C198.03,-112.15 198.35,-113.25 199.91,-115.83 C201.51,-118.52 203.54,-123.92 202.71,-125.59 C201.73,-127.38 195.53,-129.84 191.72,-130.17 C187.95,-130.45 181.49,-128.43 179.65,-126.65 C177.60,-124.57 174.66,-117.83 174.21,-114.62 C174.01,-113.02 174.28,-110.79 174.68,-110.15 C175.56,-108.91 177.85,-108.60 179.44,-109.25 C181.03,-109.94 183.57,-112.28 184.01,-113.69 C184.24,-114.51 184.08,-115.72 183.68,-116.36 C182.99,-117.30 177.13,-118.55 173.26,-118.35 C170.03,-118.14 166.53,-116.54 165.45,-114.70 C164.21,-112.46 163.30,-106.55 164.56,-104.13 C165.80,-101.87 169.41,-100.46 171.31,-100.82 C169.97,-100.62 164.53,-98.18 163.22,-96.76 C162.31,-95.72 161.82,-93.64 162.23,-92.40 C163.12,-89.96 168.11,-86.84 170.98,-85.98 C173.44,-85.28 178.59,-84.78 181.16,-84.99 C185.67,-85.39 195.54,-89.73 198.09,-92.05 C199.70,-93.56 201.43,-95.93 201.86,-97.33 C202.44,-99.35 201.92,-101.59 201.65,-102.29 C202.36,-100.55 205.88,-96.98 208.10,-96.32 C210.43,-95.70 214.89,-96.01 217.35,-96.89 C219.27,-97.61 224.30,-100.72 226.26,-103.23 C227.34,-104.68 228.51,-108.14 228.44,-109.74 C228.19,-112.91 224.76,-117.26 220.06,-122.28 C218.40,-124.01 216.45,-125.64 215.20,-126.17 C212.94,-127.10 208.32,-127.08 207.64,-126.93 C207.17,-126.81 206.11,-126.47 204.47,-125.89" fill="none" stroke="rgb(0, 255, 0)" stroke-width="3.24" stroke-opacity="1.00" stroke-linejoin="round"/>
</g>
</svg>
