<?xml version="1.0" encoding="UTF-8" standalone="no"?>
<!DOCTYPE svg PUBLIC "-//W3C//DTD SVG 1.1//EN" "http://www.w3.org/Graphics/SVG/1.1/DTD/svg11.dtd">
<svg width="128.40" height="181.68" viewBox="0.00 0.00 535.00 757.00" xmlns="http://www.w3.org/2000/svg" xmlns:xlink="http://www.w3.org/1999/xlink">
<g stroke-linecap="round" transform="translate(44.00, 155.00)" id="135-강">
<path d="M468.76,310.04 C468.76,310.04 470.29,309.40 470.29,309.40 C468.85,307.36 465.88,305.19 461.70,303.24 C459.15,302.04 455.59,298.77 454.75,296.64 C454.64,296.37 450.23,280.49 447.70,275.78 C446.38,273.43 442.67,270.73 439.41,269.44 C436.19,268.18 430.54,265.47 427.63,263.73 C424.60,261.90 413.05,253.48 404.94,248.70 C401.05,246.44 381.02,238.01 378.68,236.96 C374.90,235.25 346.84,221.21 332.48,213.12 C328.78,211.03 317.54,206.05 307.84,203.20 C300.91,201.27 288.18,197.79 279.43,196.49 C275.10,195.82 255.60,196.95 253.55,197.00 C247.13,197.14 233.30,194.53 231.64,194.44 C226.08,194.15 215.29,196.26 207.66,198.44 C195.87,201.96 165.77,215.30 157.52,217.92 C150.64,220.01 134.89,224.87 130.72,226.72 C120.45,231.33 103.63,241.77 85.80,253.91 C79.94,257.91 68.35,265.96 62.39,271.44 C56.44,277.02 44.12,288.56 40.09,292.17 C33.95,297.70 23.01,307.65 19.61,312.24 C14.31,319.54 8.59,328.35 4.65,335.43 C2.57,339.12 -8.49,355.87 -10.79,360.27 C-17.93,373.70 -28.14,393.01 -29.19,396.81 C-29.57,398.17 -30.90,404.06 -31.02,404.60" fill="none" stroke="rgb(168, 66, 0)" stroke-width="3.24" stroke-opacity="1.00" stroke-linejoin="round"/>
<path d="M-39.76,367.65 C-39.76,367.65 -39.96,367.85 -39.96,367.85 C-40.00,366.58 -15.57,328.86 -13.59,325.07 C-12.59,323.15 -6.26,307.98 -4.17,302.90 C-1.00,295.38 5.46,282.84 8.80,277.80 C10.31,275.54 14.08,271.09 14.51,270.50 C14.51,270.50 13.48,272.30 13.48,272.30" fill="none" stroke="rgb(168, 66, 0)" stroke-width="3.24" stroke-opacity="1.00" stroke-linejoin="round"/>
<path d="M10.30,276.67 C10.30,276.67 10.30,275.33 10.30,275.33 C11.07,274.36 19.08,267.14 24.00,261.92 C29.74,255.93 43.43,241.78 46.87,239.01 C54.97,232.47 60.27,228.55 70.59,221.25 C79.46,215.01 83.49,212.63 92.87,207.51 C99.57,203.89 113.38,196.43 120.49,192.61 C125.66,189.97 141.08,182.74 144.91,180.44 C147.33,179.00 161.55,174.22 165.42,173.37 C169.73,172.42 183.95,167.51 188.61,166.34 C199.00,163.86 208.44,162.29 217.56,162.08 C221.53,162.00 245.12,163.55 245.65,163.55 C250.80,163.49 266.05,162.12 269.98,161.58 C277.91,160.50 288.80,161.08 295.26,162.51 C297.21,162.94 313.63,166.12 319.28,167.29 C327.76,169.18 335.17,172.08 342.68,174.52 C347.66,176.25 359.07,182.33 366.44,185.24 C376.17,188.90 381.75,192.02 391.11,196.17 C394.03,197.48 408.84,207.67 410.79,209.87 C412.58,211.92 416.90,217.41 418.43,218.69 C419.88,219.87 437.22,230.56 437.99,231.12 C441.46,233.67 451.47,243.72 455.40,248.59 C457.94,251.71 465.13,257.08 465.93,257.90 C466.51,258.50 470.19,263.54 473.78,267.09 C477.80,271.13 484.54,281.10 486.33,283.78 C486.33,283.78 485.45,284.22 485.45,284.22" fill="none" stroke="rgb(168, 66, 0)" stroke-width="3.24" stroke-opacity="1.00" stroke-linejoin="round"/>
</g>
</svg>
