<?xml version="1.0" encoding="UTF-8" standalone="no"?>
<!DOCTYPE svg PUBLIC "-//W3C//DTD SVG 1.1//EN" "http://www.w3.org/Graphics/SVG/1.1/DTD/svg11.dtd">
<svg width="128.40" height="181.68" viewBox="0.00 0.00 535.00 757.00" xmlns="http://www.w3.org/2000/svg" xmlns:xlink="http://www.w3.org/1999/xlink">
<g stroke-linecap="round" transform="translate(44.00, 155.00)" id="135-물고기-4">
<path d="M96.91,221.45 C96.37,220.09 95.65,218.69 94.73,218.40 C93.54,218.10 89.39,219.81 86.74,221.81 C85.33,222.92 83.36,225.11 82.87,226.29 C82.36,227.66 82.76,230.35 83.69,231.54 C84.67,232.70 87.71,234.19 89.44,234.35 C91.13,234.46 94.52,233.55 96.09,232.61 C97.53,231.70 99.69,229.32 100.42,227.88 C101.10,226.44 101.58,223.44 101.33,222.02 C100.60,218.50 97.54,216.96 95.41,216.53 C95.41,216.53 87.91,221.32 87.91,221.32" fill="none" stroke="rgb(255, 0, 0)" stroke-width="3.24" stroke-opacity="1.00" stroke-linejoin="round"/>
<path d="M85.38,228.60 C84.49,228.83 83.92,228.96 83.70,229.00 C83.57,229.02 83.28,229.02 82.83,229.00 C82.55,228.97 81.57,228.89 80.98,228.59 C77.62,226.77 74.08,225.62 71.72,225.36 C69.17,225.10 64.24,225.77 62.29,226.95 C62.29,226.95 74.02,252.29 74.02,252.29 C74.63,251.71 81.16,238.70 81.70,237.78 C82.27,236.84 82.83,235.90 83.40,234.96" fill="none" stroke="rgb(255, 0, 0)" stroke-width="3.24" stroke-opacity="1.00" stroke-linejoin="round"/>
</g>
</svg>
