<?xml version="1.0" encoding="UTF-8" standalone="no"?>
<!DOCTYPE svg PUBLIC "-//W3C//DTD SVG 1.1//EN" "http://www.w3.org/Graphics/SVG/1.1/DTD/svg11.dtd">
<svg width="128.40" height="181.68" viewBox="0.00 0.00 535.00 757.00" xmlns="http://www.w3.org/2000/svg" xmlns:xlink="http://www.w3.org/1999/xlink">
<g stroke-linecap="round" transform="translate(44.00, 155.00)" id="135-구름-5">
<path d="M312.56,-112.27 C313.79,-113.14 314.72,-114.61 315.18,-116.78 C315.47,-118.23 315.69,-121.75 315.54,-122.58 C315.37,-123.39 314.45,-124.40 313.90,-124.49 C313.16,-124.56 307.78,-122.20 306.93,-121.53 C305.58,-120.41 304.25,-115.75 304.11,-112.55 C303.97,-109.02 304.40,-106.33 304.75,-105.07 C304.75,-105.07 305.96,-104.37 305.96,-104.37" fill="none" stroke="rgb(0, 255, 0)" stroke-width="3.24" stroke-opacity="1.00" stroke-linejoin="round"/>
<path d="M313.43,-112.27 C313.43,-112.27 311.24,-111.83 311.24,-111.83 C308.75,-111.75 303.58,-108.85 302.57,-107.43 C299.01,-102.13 297.80,-82.23 297.90,-81.36 C298.10,-79.97 299.45,-77.79 300.57,-77.24 C302.69,-76.28 309.17,-77.19 311.14,-78.14 C313.41,-79.33 316.80,-83.23 317.62,-85.65 C319.02,-90.07 319.43,-97.98 319.59,-101.15 C319.85,-99.32 322.28,-91.66 323.66,-89.26 C324.55,-87.76 326.52,-85.68 327.61,-85.03 C329.48,-84.01 334.47,-84.42 336.77,-85.88 C339.10,-87.40 343.50,-91.68 344.85,-93.29 C346.61,-95.41 349.05,-99.66 349.78,-102.00 C350.37,-103.93 350.84,-109.10 350.10,-111.56 C349.60,-113.08 347.95,-114.50 346.40,-114.81 C344.89,-115.06 341.78,-114.80 340.46,-114.24 C337.66,-113.00 335.21,-108.86 333.30,-104.61 C333.22,-104.40 333.19,-104.28 333.21,-104.26 C334.56,-109.91 335.43,-121.51 334.83,-125.23 C334.43,-127.63 333.70,-129.41 332.79,-130.46 C330.97,-131.13 327.22,-129.89 324.81,-128.00 C322.51,-126.15 319.17,-121.80 317.62,-119.15 C316.45,-117.09 315.10,-112.76 314.60,-111.55 C314.42,-111.12 314.18,-110.77 313.87,-110.52" fill="none" stroke="rgb(0, 255, 0)" stroke-width="3.24" stroke-opacity="1.00" stroke-linejoin="round"/>
</g>
</svg>
