<?xml version="1.0" encoding="UTF-8" standalone="no"?>
<!DOCTYPE svg PUBLIC "-//W3C//DTD SVG 1.1//EN" "http://www.w3.org/Graphics/SVG/1.1/DTD/svg11.dtd">
<svg width="128.40" height="181.68" viewBox="0.00 0.00 535.00 757.00" xmlns="http://www.w3.org/2000/svg" xmlns:xlink="http://www.w3.org/1999/xlink">
<g stroke-linecap="round" transform="translate(44.00, 155.00)" id="135-물고기-1">
<path d="M-17.51,356.92 C-17.51,356.92 -17.51,356.72 -17.51,356.72 C-17.64,356.57 -18.89,355.74 -19.62,355.73 C-21.71,355.80 -26.72,359.52 -27.95,361.45 C-28.99,363.19 -30.46,367.96 -30.46,371.01 C-30.44,372.55 -29.51,374.75 -28.64,375.33 C-26.82,376.41 -20.79,374.75 -18.36,373.34 C-16.10,371.98 -11.88,368.15 -11.22,366.76 C-10.45,365.05 -9.87,362.54 -10.06,361.65 C-10.49,359.92 -12.79,357.52 -14.37,357.44 C-15.63,357.40 -23.65,361.20 -24.66,361.69" fill="none" stroke="rgb(255, 0, 0)" stroke-width="3.24" stroke-opacity="1.00" stroke-linejoin="round"/>
<path d="M-27.84,376.79 C-27.84,376.79 -27.84,376.39 -27.84,376.39 C-29.13,376.23 -31.07,377.40 -33.77,379.97 C-36.77,382.93 -39.66,386.00 -39.56,386.62 C-37.06,390.32 -35.25,397.68 -34.99,398.85 C-33.51,392.83 -24.36,375.37 -23.69,374.34 C-23.69,374.34 -24.84,376.42 -24.84,376.42" fill="none" stroke="rgb(255, 0, 0)" stroke-width="3.24" stroke-opacity="1.00" stroke-linejoin="round"/>
</g>
</svg>
