<?xml version="1.0" encoding="UTF-8" standalone="no"?>
<!DOCTYPE svg PUBLIC "-//W3C//DTD SVG 1.1//EN" "http://www.w3.org/Graphics/SVG/1.1/DTD/svg11.dtd">
<svg width="128.40" height="181.68" viewBox="0.00 0.00 535.00 757.00" xmlns="http://www.w3.org/2000/svg" xmlns:xlink="http://www.w3.org/1999/xlink">
<g stroke-linecap="round" transform="translate(44.00, 155.00)" id="135-번개-2">
<path d="M114.39,-89.42 C114.93,-90.64 115.26,-91.37 115.38,-91.62 C115.50,-91.87 115.59,-91.98 115.65,-91.95 C113.76,-87.88 109.80,-74.81 107.74,-69.67 C106.97,-67.76 103.62,-59.95 102.48,-57.22 C101.72,-55.53 96.98,-47.59 95.70,-45.15 C92.25,-38.53 87.73,-22.04 87.62,-21.75 C87.46,-21.31 87.01,-20.14 86.27,-18.24" fill="none" stroke="rgb(0, 255, 255)" stroke-width="3.24" stroke-opacity="1.00" stroke-linejoin="round"/>
<path d="M81.88,-23.08 C81.88,-23.08 78.36,-21.98 78.36,-21.98 C78.36,-21.98 78.14,-21.47 78.14,-21.47 C81.78,-18.58 83.33,-17.27 84.89,-15.41 C86.31,-13.69 89.09,-9.17 90.09,-6.67 C90.52,-5.61 94.23,4.55 94.88,5.40 C95.56,6.22 97.20,7.04 98.48,7.12 C103.01,7.35 107.96,9.34 109.46,9.32 C110.75,9.28 117.34,8.21 117.97,8.17 C121.52,7.99 125.31,8.97 129.97,10.64 C133.46,11.94 141.45,15.28 142.58,15.71 C146.44,17.18 157.22,17.98 158.29,18.84 C155.77,20.31 136.76,28.35 132.19,30.38 C124.66,33.79 113.01,41.72 110.17,44.16 C106.31,47.49 98.72,57.41 98.34,59.42 C98.34,59.42 105.00,66.34 105.00,66.34 C107.50,64.46 126.95,54.53 130.97,52.66 C139.76,48.68 146.39,44.48 151.21,40.16 C156.88,35.05 167.25,24.44 171.07,19.65 C176.04,13.37 178.91,6.38 178.68,5.45 C178.09,5.10 159.80,0.57 151.43,-1.52 C144.53,-3.25 131.92,-8.27 127.70,-9.52 C125.07,-10.28 117.42,-11.62 116.88,-11.78 C116.88,-11.78 117.47,-12.09 117.47,-12.09" fill="none" stroke="rgb(0, 255, 255)" stroke-width="3.24" stroke-opacity="1.00" stroke-linejoin="round"/>
<path d="M130.21,-5.06 C130.21,-5.06 129.99,-4.40 129.99,-4.40 C129.99,-4.40 129.77,-4.33 129.77,-4.33 C129.74,-5.03 130.21,-24.62 129.97,-26.63 C128.83,-33.80 126.95,-47.88 125.75,-52.79 C124.07,-60.03 122.27,-69.62 121.79,-75.02 C121.28,-81.13 121.73,-92.10 122.53,-100.43 C122.60,-101.30 122.67,-102.17 122.74,-103.05" fill="none" stroke="rgb(0, 255, 255)" stroke-width="3.24" stroke-opacity="1.00" stroke-linejoin="round"/>
</g>
</svg>
