<?xml version="1.0" encoding="UTF-8" standalone="no"?>
<!DOCTYPE svg PUBLIC "-//W3C//DTD SVG 1.1//EN" "http://www.w3.org/Graphics/SVG/1.1/DTD/svg11.dtd">
<svg width="128.40" height="181.68" viewBox="0.00 0.00 535.00 757.00" xmlns="http://www.w3.org/2000/svg" xmlns:xlink="http://www.w3.org/1999/xlink">
<g stroke-linecap="round" transform="translate(44.00, 155.00)" id="135-물고기-11">
<path d="M358.72,190.46 C358.72,190.46 358.01,174.72 358.01,174.72 C358.01,174.72 341.46,201.54 341.46,201.54 C341.46,201.54 359.35,190.37 359.35,190.37 C359.35,190.37 357.67,208.40 357.67,208.40 C358.34,208.48 359.83,208.83 360.85,209.18 C361.43,209.37 362.70,209.75 364.67,210.32" fill="none" stroke="rgb(255, 0, 0)" stroke-width="3.24" stroke-opacity="1.00" stroke-linejoin="round"/>
<path d="M361.10,192.45 C361.10,192.45 359.56,192.84 359.56,192.84 C360.43,192.79 367.08,191.38 370.67,191.36 C374.23,191.39 378.89,192.97 379.67,194.52 C380.32,195.95 379.40,200.74 378.35,202.70 C377.34,204.51 373.11,208.25 370.29,208.74 C369.71,208.84 368.77,208.73 367.47,208.43 C366.80,208.27 366.14,208.10 365.47,207.94" fill="none" stroke="rgb(255, 0, 0)" stroke-width="3.24" stroke-opacity="1.00" stroke-linejoin="round"/>
</g>
</svg>
