<?xml version="1.0" encoding="UTF-8" standalone="no"?>
<!DOCTYPE svg PUBLIC "-//W3C//DTD SVG 1.1//EN" "http://www.w3.org/Graphics/SVG/1.1/DTD/svg11.dtd">
<svg width="128.40" height="181.68" viewBox="0.00 0.00 535.00 757.00" xmlns="http://www.w3.org/2000/svg" xmlns:xlink="http://www.w3.org/1999/xlink">
<g stroke-linecap="round" transform="translate(44.00, 155.00)" id="135-우산">
<path d="M139.88,96.00 C139.88,96.00 139.00,96.00 139.00,96.00 C139.00,96.20 136.42,80.87 134.83,79.34 C134.83,79.34 137.52,84.00 137.52,84.00 C137.52,84.00 139.00,82.63 139.00,82.63 C139.00,82.63 138.42,84.05 138.42,84.05 C138.42,84.05 135.76,82.95 135.76,82.95 C135.76,82.95 139.74,80.82 139.74,80.82 C139.74,80.82 141.10,96.15 141.10,96.15 C141.10,96.15 138.12,81.89 138.12,81.89 C138.12,81.89 138.12,81.06 138.12,81.06" fill="none" stroke="rgb(0, 153, 67)" stroke-width="3.24" stroke-opacity="1.00" stroke-linejoin="round"/>
<path d="M138.56,81.06 C138.48,81.06 138.41,81.06 138.34,81.06 C138.26,81.06 138.19,81.06 138.12,81.06 C138.12,81.06 133.30,85.45 133.30,85.45 C135.16,86.57 137.88,91.78 138.82,93.86 C139.06,94.42 139.30,94.98 139.54,95.54 C139.80,96.13 140.06,96.72 140.31,97.32" fill="none" stroke="rgb(0, 153, 67)" stroke-width="3.24" stroke-opacity="1.00" stroke-linejoin="round"/>
<path d="M140.75,98.19 C140.75,98.19 140.09,96.70 140.09,96.70 C139.33,96.48 138.48,96.36 137.90,96.44 C135.81,96.77 125.08,103.92 118.99,109.27 C116.77,111.26 113.97,115.04 112.61,118.64 C111.27,122.27 109.31,131.15 109.22,134.12 C109.15,137.35 110.06,143.65 110.75,144.56 C111.30,144.26 113.91,140.65 116.39,138.08 C119.18,135.21 124.61,130.85 127.96,128.55 C129.41,127.57 131.77,126.88 133.78,126.80 C134.16,126.79 145.78,131.10 147.13,131.54 C147.51,130.16 149.14,125.78 150.24,124.42 C150.88,123.65 152.44,122.52 153.31,122.21 C153.78,122.06 157.21,121.29 157.74,121.14 C157.91,121.10 157.96,121.06 157.89,121.04" fill="none" stroke="rgb(0, 153, 67)" stroke-width="3.24" stroke-opacity="1.00" stroke-linejoin="round"/>
<path d="M153.94,123.24 C153.94,123.24 151.74,125.00 151.74,125.00 C152.37,125.04 157.35,123.37 159.71,123.31 C167.84,123.12 178.82,122.21 183.55,123.05 C186.79,123.63 189.19,123.56 190.11,123.31 C189.54,121.97 186.10,116.83 184.25,114.31 C181.59,110.71 177.69,106.63 174.37,104.24 C171.58,102.25 164.32,97.96 161.97,96.99 C159.17,95.86 154.46,95.22 151.15,95.34 C149.73,95.41 146.45,95.60 145.59,95.80 C145.05,95.93 143.88,96.29 142.07,96.88" fill="none" stroke="rgb(0, 153, 67)" stroke-width="3.24" stroke-opacity="1.00" stroke-linejoin="round"/>
<path d="M152.18,95.12 C152.18,95.12 149.43,96.34 149.43,96.34 C148.61,98.19 146.48,105.67 146.39,106.12 C145.72,109.25 145.62,112.87 145.39,118.21 C145.21,122.31 145.57,125.55 146.36,127.53 C146.72,128.43 147.63,130.38 147.62,130.37 C144.63,125.50 142.62,117.18 141.41,107.93 C141.20,106.38 139.57,99.21 139.57,99.18 C139.58,98.94 139.68,98.47 139.88,97.75" fill="none" stroke="rgb(0, 153, 67)" stroke-width="3.24" stroke-opacity="1.00" stroke-linejoin="round"/>
<path d="M125.38,102.59 C126.32,104.77 135.09,119.29 137.69,122.02 C138.97,123.35 143.31,126.99 145.19,130.12 C145.29,130.29 145.37,130.45 145.43,130.61 C144.13,130.06 126.02,119.10 124.03,118.39 C120.85,117.31 114.03,118.83 113.97,118.84 C113.80,118.87 113.65,118.87 113.51,118.85" fill="none" stroke="rgb(0, 153, 67)" stroke-width="3.24" stroke-opacity="1.00" stroke-linejoin="round"/>
<path d="M109.12,134.22 C109.12,134.22 107.04,135.92 107.04,135.92 C109.66,133.59 114.94,130.52 117.84,129.21 C121.48,127.60 127.67,126.04 130.50,126.31 C131.73,126.45 133.66,127.08 134.24,127.28 C134.89,127.52 137.19,128.23 138.12,128.51" fill="none" stroke="rgb(0, 153, 67)" stroke-width="3.24" stroke-opacity="1.00" stroke-linejoin="round"/>
<path d="M147.34,126.75 C147.34,126.75 145.59,127.08 145.59,127.08 C146.80,123.33 154.29,112.48 157.16,109.82 C158.94,108.19 169.95,100.96 169.97,100.95 C170.15,100.84 170.52,100.66 171.07,100.39" fill="none" stroke="rgb(0, 153, 67)" stroke-width="3.24" stroke-opacity="1.00" stroke-linejoin="round"/>
<path d="M175.91,109.18 C175.91,109.18 176.12,109.18 176.12,109.18 C176.12,109.18 176.34,108.96 176.34,108.96 C176.34,108.96 176.34,108.74 176.34,108.74 C173.51,108.84 167.94,110.53 165.91,111.41 C164.45,112.06 160.34,114.37 158.52,115.90 C156.40,117.70 151.60,122.36 149.54,124.92 C149.05,125.54 147.06,128.16 146.47,128.95" fill="none" stroke="rgb(0, 153, 67)" stroke-width="3.24" stroke-opacity="1.00" stroke-linejoin="round"/>
<path d="M144.71,132.03 C144.71,132.03 144.71,131.81 144.71,131.81 C144.71,131.81 144.49,131.59 144.49,131.59 C144.49,131.59 143.83,131.68 143.83,131.68 C145.13,134.96 147.93,141.96 149.43,145.69 C151.16,149.88 156.18,157.69 156.12,158.26 C152.85,144.08 149.30,128.73 149.25,128.29 C149.22,128.04 149.17,127.39 149.10,126.36" fill="none" stroke="rgb(0, 153, 67)" stroke-width="3.24" stroke-opacity="1.00" stroke-linejoin="round"/>
</g>
</svg>
