<?xml version="1.0" encoding="UTF-8" standalone="no"?>
<!DOCTYPE svg PUBLIC "-//W3C//DTD SVG 1.1//EN" "http://www.w3.org/Graphics/SVG/1.1/DTD/svg11.dtd">
<svg width="128.40" height="181.68" viewBox="0.00 0.00 535.00 757.00" xmlns="http://www.w3.org/2000/svg" xmlns:xlink="http://www.w3.org/1999/xlink">
<g stroke-linecap="round" transform="translate(44.00, 155.00)" id="135-구름-1">
<path d="M46.72,-101.29 C46.72,-101.29 45.63,-100.94 45.63,-100.94 C45.63,-100.94 45.41,-100.41 45.41,-100.41 C45.04,-100.79 42.70,-102.70 38.04,-107.44 C36.48,-109.07 34.68,-111.29 33.95,-112.50 C33.57,-113.14 32.57,-117.15 32.43,-118.19 C32.32,-119.06 33.10,-121.01 33.54,-121.52 C34.70,-122.77 37.84,-123.50 40.12,-123.77 C39.95,-124.36 35.55,-129.56 35.07,-130.73 C34.91,-131.12 34.77,-131.81 34.65,-132.79 C36.00,-134.26 41.00,-135.16 43.16,-135.29 C45.75,-135.41 48.67,-135.15 49.85,-134.55 C50.85,-134.02 51.77,-132.51 51.80,-131.60 C51.78,-129.91 50.62,-127.90 50.01,-127.78 C50.08,-128.95 53.01,-132.08 55.46,-132.43 C56.15,-132.51 57.38,-131.74 57.89,-131.14 C58.92,-129.78 59.79,-123.19 58.74,-120.96 C58.48,-120.44 57.63,-120.14 56.09,-119.74 C58.56,-120.59 62.57,-120.60 64.41,-119.74 C65.28,-119.28 66.35,-117.88 66.56,-116.75 C66.69,-115.88 66.04,-113.22 65.46,-112.21 C63.52,-108.93 59.19,-105.45 56.74,-104.61 C53.31,-103.49 51.02,-103.63 49.80,-104.05 C49.22,-104.91 50.46,-108.07 53.01,-109.93 C54.36,-110.89 56.78,-111.77 57.59,-111.67 C58.51,-111.50 59.49,-110.96 59.99,-110.36 C60.73,-109.32 60.09,-103.28 58.54,-100.16 C57.23,-97.63 53.78,-94.61 51.29,-93.41 C49.81,-92.74 47.41,-92.22 45.26,-92.13 C44.08,-92.10 41.04,-92.85 39.99,-93.42 C38.52,-94.27 36.27,-96.93 35.61,-98.53 C35.35,-99.18 35.03,-101.49 34.86,-102.61" fill="none" stroke="rgb(0, 255, 0)" stroke-width="3.24" stroke-opacity="1.00" stroke-linejoin="round"/>
</g>
</svg>
