<?xml version="1.0" encoding="UTF-8" standalone="no"?>
<!DOCTYPE svg PUBLIC "-//W3C//DTD SVG 1.1//EN" "http://www.w3.org/Graphics/SVG/1.1/DTD/svg11.dtd">
<svg width="128.40" height="181.68" viewBox="0.00 0.00 535.00 757.00" xmlns="http://www.w3.org/2000/svg" xmlns:xlink="http://www.w3.org/1999/xlink">
<g stroke-linecap="round" transform="translate(44.00, 155.00)" id="135-물고기-2">
<path d="M16.65,292.96 C15.92,292.95 15.16,292.98 15.01,292.91 C13.36,292.15 11.27,292.51 9.68,293.89 C8.74,294.75 7.13,297.04 6.66,298.31 C6.17,299.72 5.93,302.96 6.20,304.58 C6.53,306.24 7.97,308.78 9.10,309.60 C10.26,310.38 13.22,310.92 14.96,310.71 C16.54,310.48 19.72,309.30 21.01,308.48 C22.30,307.60 24.13,305.44 24.73,304.09 C25.75,301.64 25.24,296.04 24.04,294.12 C23.27,292.96 21.24,291.22 20.02,290.72 C19.09,290.37 16.22,290.22 15.37,290.52 C14.19,290.97 9.72,294.86 8.71,295.74" fill="none" stroke="rgb(255, 0, 0)" stroke-width="3.24" stroke-opacity="1.00" stroke-linejoin="round"/>
<path d="M7.91,309.64 C7.91,309.64 7.91,309.05 7.91,309.05 C7.91,309.05 7.46,308.85 7.46,308.85 C4.59,311.37 -7.05,318.52 -10.08,322.54 C-10.08,322.54 -2.72,333.70 -2.72,333.70 C-2.72,333.70 9.52,313.73 9.52,313.73 C9.52,313.73 9.50,314.01 9.50,314.01" fill="none" stroke="rgb(255, 0, 0)" stroke-width="3.24" stroke-opacity="1.00" stroke-linejoin="round"/>
</g>
</svg>
