<?xml version="1.0" encoding="UTF-8" standalone="no"?>
<!DOCTYPE svg PUBLIC "-//W3C//DTD SVG 1.1//EN" "http://www.w3.org/Graphics/SVG/1.1/DTD/svg11.dtd">
<svg width="128.40" height="181.68" viewBox="0.00 0.00 535.00 757.00" xmlns="http://www.w3.org/2000/svg" xmlns:xlink="http://www.w3.org/1999/xlink">
<g stroke-linecap="round" transform="translate(44.00, 155.00)" id="135-물고기-8">
<path d="M246.28,173.77 C246.38,173.76 243.61,172.78 242.42,172.28 C242.05,172.13 228.90,166.50 225.75,165.14 C225.75,165.14 225.11,186.80 225.11,186.80 C226.06,186.14 235.55,175.23 240.09,171.18 C241.25,170.15 242.04,169.57 242.90,169.07 C243.14,169.65 249.77,168.73 252.98,169.92 C254.49,170.52 256.95,172.38 257.63,173.54 C258.31,174.79 258.58,177.74 258.27,179.39 C257.76,181.75 255.37,185.62 253.80,186.98 C252.31,188.22 249.39,189.39 247.65,189.37 C245.76,189.30 242.31,187.76 240.99,186.32 C239.44,184.54 238.51,180.89 239.10,178.91 C239.68,177.23 241.54,175.62 244.09,173.51" fill="none" stroke="rgb(255, 0, 0)" stroke-width="3.24" stroke-opacity="1.00" stroke-linejoin="round"/>
</g>
</svg>
