<?xml version="1.0" encoding="UTF-8" standalone="no"?>
<!DOCTYPE svg PUBLIC "-//W3C//DTD SVG 1.1//EN" "http://www.w3.org/Graphics/SVG/1.1/DTD/svg11.dtd">
<svg width="128.40" height="181.68" viewBox="0.00 0.00 535.00 757.00" xmlns="http://www.w3.org/2000/svg" xmlns:xlink="http://www.w3.org/1999/xlink">
<g stroke-linecap="round" transform="translate(44.00, 155.00)" id="135-물고기-3">
<path d="M49.63,250.45 C47.38,250.33 45.60,249.98 45.03,249.85 C44.18,249.68 42.63,249.76 41.98,250.06 C41.28,250.43 40.36,251.79 40.11,252.87 C39.87,254.12 40.14,256.77 40.71,258.10 C41.34,259.47 43.35,261.70 44.65,262.43 C46.01,263.14 48.95,263.48 50.46,263.07 C51.94,262.62 54.76,260.64 55.92,259.29 C56.98,257.99 58.36,255.15 58.61,253.78 C58.81,252.48 58.38,250.24 57.78,249.35 C57.14,248.51 55.03,247.40 53.71,247.36 C52.21,247.34 49.46,247.95 48.62,248.52 C46.33,250.16 40.80,254.67 38.09,256.88" fill="none" stroke="rgb(255, 0, 0)" stroke-width="3.24" stroke-opacity="1.00" stroke-linejoin="round"/>
<path d="M39.70,263.16 C39.27,263.05 38.90,262.83 38.72,262.57 C38.32,262.09 34.32,263.55 31.61,265.62 C28.97,267.66 25.26,271.54 25.16,272.66 C25.16,272.66 37.86,279.68 37.86,279.68 C38.08,279.21 40.86,267.19 41.45,265.77 C41.61,265.41 41.94,264.69 42.44,263.60" fill="none" stroke="rgb(255, 0, 0)" stroke-width="3.24" stroke-opacity="1.00" stroke-linejoin="round"/>
</g>
</svg>
