<?xml version="1.0" encoding="UTF-8" standalone="no"?>
<!DOCTYPE svg PUBLIC "-//W3C//DTD SVG 1.1//EN" "http://www.w3.org/Graphics/SVG/1.1/DTD/svg11.dtd">
<svg width="128.40" height="181.68" viewBox="0.00 0.00 535.00 757.00" xmlns="http://www.w3.org/2000/svg" xmlns:xlink="http://www.w3.org/1999/xlink">
<g stroke-linecap="round" transform="translate(44.00, 155.00)" id="136-우산">
<path d="M206.93,269.61 C205.83,269.90 205.09,269.94 204.65,269.94 C197.78,271.06 173.02,288.15 172.49,288.86 C173.76,289.43 178.03,288.74 182.63,287.78 C201.16,283.71 211.37,279.23 216.70,276.78 C216.70,276.78 216.96,276.92 216.96,276.92" fill="none" stroke="rgb(0, 160, 232)" stroke-width="2.21" stroke-opacity="1.00" stroke-linejoin="round"/>
<path d="M218.52,276.70 C218.52,276.70 216.66,277.82 216.66,277.82 C216.66,277.82 216.46,278.43 216.46,278.43 C218.78,279.63 222.55,283.76 223.28,284.36 C223.59,284.61 231.61,290.40 234.75,293.34 C236.51,295.01 240.07,300.03 241.48,301.40 C245.10,304.90 253.25,310.65 260.54,315.06 C269.06,320.27 275.42,324.58 277.96,326.71 C280.05,326.27 283.67,322.70 285.27,320.75 C288.31,316.99 297.11,303.98 299.71,300.81 C304.16,295.49 313.21,284.61 315.39,281.34 C319.84,274.60 324.97,264.93 327.23,257.39 C329.82,248.20 331.17,241.29 331.73,233.05 C331.95,230.19 331.76,223.48 331.26,221.11 C330.57,218.05 328.01,212.58 325.67,209.67 C321.74,204.88 312.84,197.52 309.10,195.63 C305.22,193.70 296.75,191.60 292.33,191.46 C287.62,191.33 277.24,192.54 271.19,194.08 C265.88,195.44 254.21,200.53 247.76,204.17 C242.44,207.20 233.13,214.29 228.55,218.36 C220.94,225.22 215.60,231.21 213.85,234.11 C209.72,241.01 205.04,252.18 204.56,256.49 C204.31,258.92 204.30,266.53 204.41,267.56 C204.47,268.13 204.65,269.13 204.96,270.56" fill="none" stroke="rgb(0, 160, 232)" stroke-width="2.21" stroke-opacity="1.00" stroke-linejoin="round"/>
<path d="M256.50,236.78 C256.50,236.78 256.05,236.78 256.05,236.78 C256.05,236.78 255.86,236.13 255.86,236.13 C255.86,236.13 243.95,243.27 243.95,243.27 C244.01,251.07 242.28,256.92 241.93,257.25 C241.93,257.25 255.61,250.81 255.61,250.81 C255.61,250.81 257.15,235.90 257.15,235.90 C257.15,235.90 245.06,249.70 245.06,249.70 C245.06,249.70 250.79,241.27 250.79,241.27 C250.79,241.27 245.96,252.33 245.96,252.33 C247.47,251.95 252.59,240.98 252.42,240.76 C252.42,240.76 247.53,252.75 247.53,252.75 C249.12,252.46 251.90,248.56 252.93,246.96 C253.11,246.67 253.43,246.14 253.88,245.37 C253.88,245.37 249.97,252.06 249.97,252.06 C249.97,252.06 251.69,248.57 251.69,248.57 C251.69,248.57 243.85,253.31 243.85,253.31 C246.96,250.23 248.97,247.55 248.94,245.22 C248.94,245.22 248.19,244.09 248.19,244.09 C248.19,244.09 246.80,244.16 246.80,244.16 C246.80,244.16 244.72,248.80 244.72,248.80 C245.69,248.79 250.49,244.03 251.14,243.48 C251.43,243.24 251.78,243.03 252.18,242.85 C252.18,242.85 252.80,246.41 252.80,246.41" fill="none" stroke="rgb(0, 160, 232)" stroke-width="2.21" stroke-opacity="1.00" stroke-linejoin="round"/>
<path d="M227.85,231.30 C227.52,231.22 227.00,231.06 226.50,230.87 C225.30,230.40 224.53,230.28 223.47,230.36 C223.47,230.36 222.96,236.39 222.96,236.39 C222.96,236.39 228.13,230.43 228.13,230.43 C228.13,230.43 224.89,233.52 224.89,233.52 C224.89,233.52 225.17,233.04 225.17,233.04" fill="none" stroke="rgb(0, 160, 232)" stroke-width="2.21" stroke-opacity="1.00" stroke-linejoin="round"/>
<path d="M279.36,253.52 C279.14,253.54 278.78,253.47 278.63,253.36 C278.55,253.31 278.02,253.08 277.60,253.20 C274.23,254.24 273.59,261.60 274.12,262.17 C274.12,262.17 278.51,254.26 278.51,254.26 C278.51,254.26 276.23,260.29 276.23,260.29 C276.23,260.29 278.84,254.94 278.84,254.94 C278.84,254.94 278.29,257.26 278.29,257.26" fill="none" stroke="rgb(0, 160, 232)" stroke-width="2.21" stroke-opacity="1.00" stroke-linejoin="round"/>
<path d="M315.74,263.18 C315.74,263.18 315.74,262.69 315.74,262.69 C315.74,262.69 315.12,261.93 315.12,261.93 C314.12,261.74 303.70,268.84 303.09,269.45 C302.76,269.79 301.50,272.43 299.51,274.60 C294.93,279.59 294.34,281.05 294.29,281.72 C294.95,282.21 300.27,282.66 302.67,282.41 C305.37,282.11 307.28,280.87 307.65,279.89 C309.66,274.05 313.90,262.61 313.93,262.29 C313.93,262.29 296.93,278.65 296.93,278.65 C296.93,278.65 309.89,265.51 309.89,265.51 C309.89,265.51 297.27,281.70 297.27,281.70 C297.27,281.70 311.40,268.31 311.40,268.31 C311.40,268.31 300.65,282.92 300.65,282.92 C301.82,283.24 308.13,275.21 309.88,272.42 C309.88,272.42 305.24,282.56 305.24,282.56 C305.24,282.56 308.43,279.63 308.43,279.63 C308.43,279.63 305.76,283.78 305.76,283.78" fill="none" stroke="rgb(0, 160, 232)" stroke-width="2.21" stroke-opacity="1.00" stroke-linejoin="round"/>
<path d="M312.84,206.84 C312.84,206.84 312.84,206.51 312.84,206.51 C311.83,205.99 305.76,205.87 302.90,206.35 C298.54,207.14 291.38,209.06 291.09,209.98 C291.19,211.25 292.91,216.66 293.64,218.15 C294.73,220.31 297.46,222.30 300.06,223.18 C304.37,224.60 317.30,227.67 318.50,228.66 C316.94,229.83 312.81,230.16 308.84,230.96 C304.86,231.78 301.76,232.73 298.98,233.75 C296.15,234.82 292.59,237.35 291.12,240.07 C289.80,242.63 288.12,249.50 288.59,252.96 C289.02,255.86 292.95,266.15 292.98,266.28 C293.54,268.50 292.01,271.69 290.06,273.23 C287.46,275.25 280.57,279.19 277.26,281.07 C273.89,283.06 269.95,287.46 267.99,291.01 C264.20,297.94 256.64,307.21 255.98,311.10 C255.91,311.58 255.81,312.82 255.70,313.27 C255.70,313.27 254.51,312.71 254.51,312.71 C253.09,313.71 250.08,318.31 248.67,319.77 C246.65,321.79 242.20,323.34 240.91,322.99 C240.55,322.89 239.74,322.70 238.48,322.41" fill="none" stroke="rgb(0, 160, 232)" stroke-width="2.21" stroke-opacity="1.00" stroke-linejoin="round"/>
<path d="M228.50,298.27 C228.50,298.27 227.05,297.58 227.05,297.58 C226.90,296.80 229.92,291.46 230.78,290.51 C231.39,289.85 235.61,288.21 239.44,285.64 C243.20,283.08 247.61,278.84 249.18,276.29 C250.57,273.97 252.83,267.22 253.89,263.77 C254.96,260.73 257.66,255.31 259.55,252.72 C262.11,249.31 265.02,246.63 268.50,244.35 C271.32,242.54 275.71,239.71 275.95,238.85 C276.13,237.98 274.46,229.35 274.24,227.99 C273.68,224.52 273.68,219.33 274.11,217.31 C274.70,214.76 277.51,210.29 280.28,208.22 C282.24,206.79 287.47,203.86 290.63,202.33 C286.86,202.29 283.71,201.38 283.14,200.18 C282.60,198.91 284.08,195.92 286.33,193.52 C286.52,193.31 286.64,193.09 286.71,192.86" fill="none" stroke="rgb(0, 160, 232)" stroke-width="2.21" stroke-opacity="1.00" stroke-linejoin="round"/>
<path d="M268.09,194.93 C268.09,194.93 267.20,194.28 267.20,194.28 C267.20,194.28 271.09,195.49 271.09,195.49 C267.46,195.68 263.66,197.25 263.38,198.34 C263.24,199.40 264.34,200.86 267.16,203.50 C268.76,205.00 268.85,205.52 268.81,205.87 C268.81,205.87 263.16,205.99 263.16,205.99 C263.16,205.99 265.98,210.01 265.98,210.01 C266.08,210.18 258.47,207.61 256.93,207.63 C256.53,207.64 255.73,207.77 254.53,208.00 C254.53,208.00 255.78,218.69 255.78,218.69 C255.58,218.95 249.40,221.17 246.32,223.60 C244.16,225.37 243.19,227.28 242.30,229.43 C241.81,229.63 236.92,230.70 235.77,232.25 C235.65,232.41 235.55,232.65 235.44,232.95 C235.44,232.95 240.31,236.53 240.31,236.53 C239.82,236.91 234.29,238.89 231.38,240.57 C227.59,242.80 226.75,244.68 226.91,245.64 C226.91,245.64 229.27,248.23 229.27,248.23 C229.34,248.43 220.68,249.01 220.11,249.06 C218.78,249.21 217.25,249.80 216.70,250.49 C216.20,251.17 215.27,253.80 215.12,254.91 C214.96,256.39 215.46,258.41 216.22,259.16 C216.57,259.49 219.92,261.59 220.48,262.28 C220.32,262.73 217.83,264.98 217.15,266.58 C216.82,267.43 216.43,270.02 216.63,270.98 C216.92,272.28 220.32,278.66 221.09,280.10" fill="none" stroke="rgb(0, 160, 232)" stroke-width="2.21" stroke-opacity="1.00" stroke-linejoin="round"/>
</g>
</svg>
