<?xml version="1.0" encoding="UTF-8" standalone="no"?>
<!DOCTYPE svg PUBLIC "-//W3C//DTD SVG 1.1//EN" "http://www.w3.org/Graphics/SVG/1.1/DTD/svg11.dtd">
<svg width="128.40" height="181.68" viewBox="0.00 0.00 535.00 757.00" xmlns="http://www.w3.org/2000/svg" xmlns:xlink="http://www.w3.org/1999/xlink">
<g stroke-linecap="round" transform="translate(44.00, 155.00)" id="137-구름-3">
<path d="M317.53,48.07 C317.25,48.07 316.97,48.07 316.68,48.07 C316.63,48.07 316.57,48.07 316.52,48.07 C316.52,48.07 311.86,56.08 311.86,56.08 C312.96,56.38 314.92,55.61 316.77,53.94 C317.84,52.96 318.50,51.47 318.54,50.47 C318.51,48.54 318.25,48.12 317.87,47.70 C316.91,47.52 310.72,47.30 308.05,46.69 C304.31,45.78 300.28,45.27 298.08,45.49 C295.94,45.74 292.60,47.89 292.08,49.12 C291.54,50.54 292.84,54.31 294.57,55.85 C298.52,59.22 301.70,56.99 302.36,56.21 C302.34,54.76 299.07,51.90 296.67,50.64 C294.15,49.34 288.84,48.07 286.68,48.32 C284.68,48.59 281.54,50.13 280.30,51.40 C279.11,52.68 278.16,56.12 278.57,57.72 C279.06,59.48 282.38,61.76 285.11,62.61 C288.01,63.48 289.64,63.29 290.50,62.93 C290.30,61.51 289.87,60.70 288.84,60.27 C286.67,59.40 282.24,59.62 278.94,60.61 C275.78,61.59 274.53,62.55 273.68,63.48 C273.68,63.48 273.48,65.02 273.48,65.02 C274.40,66.81 277.24,69.23 279.49,70.18 C281.77,71.06 286.97,70.30 289.43,69.17 C286.12,71.01 282.23,74.76 282.12,76.27 C282.13,77.68 283.73,81.22 285.43,83.48 C286.47,84.85 291.33,90.09 293.10,90.94 C294.23,90.70 295.04,90.28 295.60,89.27 C297.38,86.09 297.18,85.42 297.18,85.41 C297.83,87.19 300.69,91.50 302.35,93.39 C304.18,95.45 307.28,97.39 309.99,98.74 C315.52,101.45 325.83,104.04 330.42,104.73 C337.20,105.74 339.35,105.51 339.84,105.31 C340.36,104.48 339.75,101.11 338.65,99.45 C338.51,99.23 338.20,98.72 337.73,97.92" fill="none" stroke="rgb(255, 0, 255)" stroke-width="2.40" stroke-opacity="1.00" stroke-linejoin="round"/>
<path d="M341.44,101.29 C341.44,101.29 340.77,101.29 340.77,101.29 C341.65,101.27 344.56,102.98 347.07,103.69 C353.05,105.33 354.96,103.56 355.15,103.17 C355.15,103.17 351.95,100.69 351.95,100.69 C352.27,101.65 356.58,103.92 358.64,104.54 C360.90,105.20 364.73,105.01 365.70,104.23 C366.69,103.33 366.35,98.68 365.78,98.65 C365.23,98.66 369.04,102.97 371.77,104.39 C373.89,105.43 380.11,106.20 381.51,106.04 C383.25,105.79 386.81,103.61 388.56,102.17 C390.59,100.46 392.20,98.17 392.78,96.14 C393.73,92.51 390.13,89.57 388.99,89.35 C388.46,90.10 388.38,90.63 388.85,91.34 C389.79,92.71 392.70,94.16 394.28,93.61 C395.96,92.95 398.36,89.29 398.72,87.11 C398.96,85.53 398.55,80.99 397.94,78.85 C397.32,76.79 395.14,74.01 393.15,72.63 C391.01,71.20 389.01,70.44 387.01,69.88 C387.36,69.62 389.32,63.02 389.27,59.95 C389.18,57.54 387.48,54.00 386.33,52.95 C385.10,51.87 381.79,51.28 380.23,51.80 C378.70,52.34 377.59,53.45 377.14,54.05 C377.40,54.24 374.58,47.59 372.92,45.35 C371.30,43.23 368.03,41.86 365.62,41.92 C363.33,42.01 357.61,43.15 355.01,45.12 C354.55,45.47 350.24,51.50 349.89,51.90 C349.32,52.54 348.55,52.88 347.88,52.82 C345.77,52.44 340.24,43.44 339.41,42.85 C336.96,41.16 328.53,40.12 327.96,40.17 C326.35,40.34 320.51,45.03 318.77,47.41 C318.48,47.80 318.12,48.40 317.67,49.19" fill="none" stroke="rgb(255, 0, 255)" stroke-width="2.40" stroke-opacity="1.00" stroke-linejoin="round"/>
</g>
</svg>
