<?xml version="1.0" encoding="UTF-8" standalone="no"?>
<!DOCTYPE svg PUBLIC "-//W3C//DTD SVG 1.1//EN" "http://www.w3.org/Graphics/SVG/1.1/DTD/svg11.dtd">
<svg width="128.40" height="181.68" viewBox="0.00 0.00 535.00 757.00" xmlns="http://www.w3.org/2000/svg" xmlns:xlink="http://www.w3.org/1999/xlink">
<g stroke-linecap="round" transform="translate(44.00, 155.00)" id="137-지면-3">
<path d="M-39.88,357.37 C-39.88,357.37 -41.02,355.51 -41.02,355.51 C-39.72,359.28 -39.26,367.02 -38.76,368.22 C-37.92,370.03 -33.92,372.59 -32.53,372.01 C-31.41,369.45 -30.29,363.62 -30.16,359.69 C-30.09,356.07 -30.00,350.13 -30.00,350.14 C-29.82,353.83 -26.73,370.39 -25.70,372.61 C-24.15,375.87 -23.70,376.13 -23.17,376.34 C-21.80,374.22 -20.02,366.54 -19.72,365.43 C-17.99,359.07 -14.80,353.45 -14.17,353.29 C-13.40,354.87 -13.03,363.61 -12.74,366.26 C-12.05,372.32 -10.05,378.37 -8.62,380.78 C-7.48,380.66 -5.95,377.29 -4.13,372.94 C-1.25,365.51 3.46,353.27 4.26,352.56 C4.52,353.14 4.65,358.38 4.74,361.23 C4.85,364.28 5.49,369.17 6.88,372.24 C7.43,373.43 10.12,374.68 11.52,374.54 C12.91,374.35 15.64,372.18 16.48,370.24 C17.69,367.28 18.68,353.43 19.10,351.42 C19.10,351.42 21.57,351.72 21.57,351.72 C21.41,360.92 22.19,372.08 24.44,376.20 C25.20,377.54 27.37,379.24 28.61,379.64 C29.75,379.95 32.37,379.82 33.36,379.30 C35.48,378.13 38.90,373.14 40.13,370.35 C42.45,364.98 44.17,356.00 45.09,348.62 C45.17,348.92 45.38,366.66 46.29,371.94 C47.57,379.01 50.37,381.57 51.30,382.00 C52.08,381.92 53.14,380.63 53.85,378.52 C55.77,372.71 57.54,345.07 58.11,344.05 C58.70,343.90 59.31,345.00 59.89,347.52 C60.30,349.37 60.98,355.62 61.53,361.93 C61.92,366.11 62.79,369.81 63.98,372.67 C64.50,373.85 65.94,375.86 67.07,376.84 C68.30,377.86 71.36,379.04 72.77,379.02 C74.08,378.95 76.28,378.12 77.04,377.47 C78.78,375.83 81.03,371.25 82.15,367.31 C84.15,360.07 85.00,348.95 85.20,347.58 C85.43,355.06 86.15,373.08 86.72,376.06 C87.01,377.52 90.89,384.56 91.77,385.01 C91.77,385.01 92.98,385.02 92.98,385.02 C94.71,383.84 96.77,379.91 97.79,376.69 C98.50,374.39 103.29,352.99 103.65,352.00 C103.75,352.42 103.85,366.60 104.41,370.47 C104.95,374.13 106.29,379.39 107.12,381.03 C108.37,383.45 112.42,388.18 113.12,389.34 C113.57,390.08 114.73,392.89 115.14,393.33 C115.67,391.71 117.81,376.98 118.82,372.25 C120.93,363.03 125.33,347.85 126.07,349.97 C126.75,350.34 126.86,373.26 127.00,375.20 C127.26,378.41 128.76,382.74 130.47,385.76 C132.31,388.97 133.69,390.06 134.15,390.13 C135.82,389.62 139.15,381.96 143.20,370.59 C145.42,364.25 149.10,349.45 149.81,348.18 C149.93,349.42 149.94,364.28 150.84,370.62 C151.93,378.00 154.21,382.82 154.96,383.76 C154.96,383.76 156.28,383.97 156.28,383.97 C159.84,381.54 167.89,370.45 171.41,363.55 C173.95,358.44 178.17,345.10 178.36,344.75 C178.45,345.26 176.70,353.98 176.30,356.70 C175.89,359.62 175.68,364.57 175.87,366.93 C176.13,369.62 177.91,375.84 179.48,378.09 C180.22,379.10 181.78,380.17 182.79,380.45 C184.93,380.95 188.37,379.55 190.38,377.50 C193.69,374.05 200.21,362.32 204.25,355.02 C207.04,349.90 208.32,347.38 208.83,345.81 C210.15,341.69 210.18,339.35 209.98,338.19 C208.36,338.32 207.39,338.79 206.18,340.26 C203.63,343.39 201.06,348.43 200.39,350.95 C199.78,353.35 199.14,356.85 198.78,359.60 C198.43,362.61 198.98,369.21 200.33,371.71 C201.47,373.70 206.03,376.56 208.03,376.97 C209.40,377.19 211.34,376.72 212.19,375.72 C213.48,374.14 227.02,345.67 231.75,334.38 C230.99,337.12 224.58,357.26 223.82,361.67 C223.45,364.09 224.21,367.49 225.67,368.66 C226.37,369.17 228.28,369.73 229.11,369.62 C231.00,369.29 234.34,365.44 236.51,362.04 C240.09,356.40 248.28,341.65 249.45,340.48 C250.60,339.38 254.40,338.06 256.29,338.21 C257.41,338.99 258.12,339.99 258.37,341.55 C259.39,347.87 258.43,364.74 259.00,368.27 C259.44,370.79 261.04,375.61 262.34,377.72 C263.46,379.46 265.81,380.38 267.32,379.83 C270.46,378.64 278.28,370.68 281.02,366.54 C283.63,362.54 290.26,352.81 294.70,347.46 C296.93,344.81 299.89,342.95 301.45,343.03 C302.26,343.10 303.90,343.72 304.49,344.23 C305.18,344.89 306.12,347.01 306.19,348.29 C306.27,350.29 304.02,360.16 303.70,362.23 C303.26,365.22 303.82,369.78 304.50,370.82 C304.88,371.35 306.33,372.41 307.13,372.54 C310.72,373.03 315.60,371.74 317.74,370.70 C321.64,368.76 329.52,362.39 332.74,359.07 C336.10,355.61 340.75,351.24 341.98,350.53 C343.07,349.92 344.63,349.45 345.09,349.54 C346.24,350.08 347.59,354.36 347.33,358.22 C347.06,361.60 346.37,366.38 346.68,367.45 C346.98,368.31 348.24,369.45 349.51,369.97 C352.33,371.04 357.40,370.32 359.73,369.11 C363.53,367.05 372.88,357.47 378.02,352.09 C380.37,349.71 383.51,347.64 386.01,346.38 C387.54,349.74 388.10,353.97 388.21,358.23 C388.31,361.61 388.41,362.98 388.70,363.70 C389.09,364.59 390.53,365.87 391.64,366.26 C394.10,367.05 400.82,367.04 403.69,366.52 C410.79,365.17 428.02,358.06 437.60,353.61 C441.32,351.81 450.58,346.57 451.56,346.19 C451.85,350.11 452.26,353.89 452.95,355.33 C453.39,356.21 454.65,357.29 455.46,357.46 C457.25,357.76 463.62,355.85 466.55,354.03 C467.96,353.15 469.23,351.97 470.55,350.50 C470.55,350.50 469.99,362.13 469.99,362.13 C471.32,362.35 473.67,360.37 477.30,357.07 C479.91,354.73 484.70,350.42 485.62,349.72 C485.78,349.60 484.08,354.53 484.05,357.30 C484.06,360.05 485.20,363.14 485.87,363.59 C485.87,363.59 485.18,362.30 485.18,362.30" fill="none" stroke="rgb(0, 255, 0)" stroke-width="2.40" stroke-opacity="1.00" stroke-linejoin="round"/>
</g>
</svg>
