<?xml version="1.0" encoding="UTF-8" standalone="no"?>
<!DOCTYPE svg PUBLIC "-//W3C//DTD SVG 1.1//EN" "http://www.w3.org/Graphics/SVG/1.1/DTD/svg11.dtd">
<svg width="128.40" height="181.68" viewBox="0.00 0.00 535.00 757.00" xmlns="http://www.w3.org/2000/svg" xmlns:xlink="http://www.w3.org/1999/xlink">
<g stroke-linecap="round" transform="translate(44.00, 155.00)" id="137-꽃-4">
<path d="M405.03,219.93 C405.03,219.84 405.03,219.76 405.03,219.68 C405.03,219.60 405.01,219.42 404.98,219.14 C403.55,218.62 399.44,218.92 397.03,218.96 C395.63,219.03 392.94,220.10 391.88,221.22 C390.80,222.40 389.45,225.71 389.27,227.30 C389.09,229.24 390.60,232.56 392.60,234.13 C394.62,235.66 399.26,236.96 402.03,236.95 C404.87,236.91 407.65,236.45 409.01,235.08 C410.41,233.60 412.54,228.73 412.45,226.97 C412.29,224.88 409.77,221.83 407.45,220.77 C405.74,220.03 402.36,220.47 401.57,220.57" fill="none" stroke="rgb(255, 0, 0)" stroke-width="2.40" stroke-opacity="1.00" stroke-linejoin="round"/>
<path d="M394.65,220.67 C394.65,220.67 393.41,220.85 393.41,220.85 C392.84,221.82 394.66,234.49 394.82,235.06 C394.88,235.30 395.04,235.72 395.28,236.30" fill="none" stroke="rgb(255, 0, 0)" stroke-width="2.40" stroke-opacity="1.00" stroke-linejoin="round"/>
<path d="M400.09,220.67 C400.09,220.67 399.47,220.79 399.47,220.79 C398.97,221.80 399.80,233.83 399.92,234.37 C399.99,234.69 400.17,235.27 400.46,236.10" fill="none" stroke="rgb(255, 0, 0)" stroke-width="2.40" stroke-opacity="1.00" stroke-linejoin="round"/>
<path d="M405.28,220.67 C404.74,221.00 404.22,221.79 404.48,225.19 C404.92,230.77 404.63,236.33 404.57,237.10 C404.57,237.10 404.93,236.68 404.93,236.68" fill="none" stroke="rgb(255, 0, 0)" stroke-width="2.40" stroke-opacity="1.00" stroke-linejoin="round"/>
<path d="M409.73,221.16 C409.73,221.16 408.86,221.72 408.86,221.72 C408.74,222.91 408.26,233.71 408.24,234.32 C408.24,234.42 408.24,234.50 408.24,234.56" fill="none" stroke="rgb(255, 0, 0)" stroke-width="2.40" stroke-opacity="1.00" stroke-linejoin="round"/>
<path d="M391.68,225.12 C391.68,225.12 390.26,225.12 390.26,225.12 C390.26,225.12 390.04,224.95 390.04,224.95 C390.04,224.95 409.72,224.03 409.72,224.03 C409.72,224.03 409.80,224.51 409.80,224.51" fill="none" stroke="rgb(255, 0, 0)" stroke-width="2.40" stroke-opacity="1.00" stroke-linejoin="round"/>
<path d="M391.68,227.84 C391.68,227.84 391.18,227.84 391.18,227.84 C392.15,228.59 395.38,229.34 398.78,229.25 C403.97,229.08 411.81,229.60 412.32,229.55 C412.71,229.52 413.06,229.33 413.39,229.00" fill="none" stroke="rgb(255, 0, 0)" stroke-width="2.40" stroke-opacity="1.00" stroke-linejoin="round"/>
<path d="M396.13,232.54 C396.13,232.54 394.89,232.54 394.89,232.54 C396.75,233.12 403.62,233.61 407.04,233.32 C408.62,233.18 409.85,233.02 410.72,232.86 C411.20,232.76 411.86,232.57 412.69,232.29" fill="none" stroke="rgb(255, 0, 0)" stroke-width="2.40" stroke-opacity="1.00" stroke-linejoin="round"/>
<path d="M398.60,215.48 C398.60,215.48 398.48,215.23 398.48,215.23 C398.48,215.23 397.81,215.23 397.81,215.23 C397.57,214.49 399.03,210.51 401.08,207.83 C403.29,205.00 408.35,201.94 410.82,201.59 C413.10,201.30 415.70,202.44 416.13,203.00 C417.34,204.71 417.79,209.58 417.33,211.93 C417.13,212.78 416.39,214.68 415.82,215.28 C415.25,215.86 409.74,220.79 409.43,221.22 C411.59,220.35 415.32,220.01 416.94,221.08 C418.47,222.16 419.09,225.76 418.75,227.93 C418.61,228.75 418.23,229.72 417.85,230.25 C417.44,230.75 413.10,231.22 411.89,231.30 C414.89,231.75 417.38,233.11 418.10,234.13 C418.63,234.95 418.74,237.04 417.79,238.09 C416.71,239.22 412.80,239.61 411.29,238.78 C410.80,238.50 408.64,236.76 408.00,236.25" fill="none" stroke="rgb(255, 0, 0)" stroke-width="2.40" stroke-opacity="1.00" stroke-linejoin="round"/>
<path d="M398.85,216.96 C398.85,216.96 398.60,218.15 398.60,218.15 C398.42,217.88 396.71,214.90 396.53,214.62 C395.45,212.96 392.22,211.05 389.78,210.73 C387.55,210.47 384.44,210.99 382.82,211.71 C381.17,212.50 377.39,216.08 376.95,217.44 C376.49,218.98 376.39,223.79 376.84,225.80 C377.14,226.99 378.14,228.76 378.91,229.38 C382.18,231.79 388.59,229.53 390.41,228.73 C389.80,228.97 384.47,231.97 383.52,232.67 C381.58,234.13 379.94,237.40 380.61,238.95 C381.28,240.35 385.66,242.35 388.00,242.74 C390.51,243.11 395.04,242.35 396.53,241.23 C397.20,240.70 398.03,239.47 398.25,238.76 C398.32,238.52 398.21,237.26 398.11,235.75" fill="none" stroke="rgb(255, 0, 0)" stroke-width="2.40" stroke-opacity="1.00" stroke-linejoin="round"/>
<path d="M404.04,237.48 C404.04,237.48 401.82,239.46 401.82,239.46 C401.83,239.47 402.96,239.58 403.94,241.15 C405.35,243.49 405.65,247.66 404.41,249.44 C403.31,250.90 397.36,254.48 396.99,254.82 C396.08,255.70 395.95,258.27 396.71,259.63 C397.52,261.02 403.23,265.20 403.27,265.24 C405.16,266.96 406.68,271.08 406.74,273.59 C406.74,276.32 404.97,282.02 402.48,285.55 C400.06,288.98 399.03,292.81 399.05,295.24 C399.06,296.02 400.27,309.33 399.42,313.86 C399.19,315.08 398.70,316.60 398.11,318.08" fill="none" stroke="rgb(255, 0, 0)" stroke-width="2.40" stroke-opacity="1.00" stroke-linejoin="round"/>
<path d="M416.16,306.71 C416.16,306.71 415.78,307.58 415.78,307.58 C415.78,307.58 415.66,307.64 415.66,307.64 C415.66,307.53 416.83,303.03 417.02,300.04 C417.39,293.82 414.71,280.34 414.99,278.39 C415.23,276.97 417.12,271.98 418.05,269.51 C418.99,267.03 419.18,263.64 418.58,261.54 C417.98,259.54 416.81,258.03 413.15,255.29 C412.57,254.84 411.97,253.69 411.87,253.12 C411.77,252.13 414.35,245.36 414.58,244.46 C414.84,243.40 414.59,241.52 412.72,240.02 C412.31,239.70 411.40,239.02 409.97,237.98" fill="none" stroke="rgb(255, 0, 0)" stroke-width="2.40" stroke-opacity="1.00" stroke-linejoin="round"/>
<path d="M416.90,256.52 C416.90,256.52 415.57,256.24 415.57,256.24 C415.50,256.09 426.06,238.82 445.51,233.95 C445.61,233.93 445.71,233.94 445.79,233.98 C446.13,234.45 439.79,249.02 436.03,255.28 C423.42,275.74 419.19,282.19 418.32,283.57 C418.09,283.93 417.78,284.39 417.39,284.95" fill="none" stroke="rgb(255, 0, 0)" stroke-width="2.40" stroke-opacity="1.00" stroke-linejoin="round"/>
<path d="M421.84,265.17 C421.84,265.17 420.55,265.17 420.55,265.17 C420.55,265.17 420.38,265.03 420.38,265.03 C420.26,264.48 436.53,246.48 441.77,239.86 C442.21,239.30 442.65,238.73 443.09,238.16" fill="none" stroke="rgb(255, 0, 0)" stroke-width="2.40" stroke-opacity="1.00" stroke-linejoin="round"/>
<path d="M430.74,242.92 C430.43,243.54 429.92,244.79 429.63,245.79 C427.60,253.96 423.51,263.30 423.82,263.43 C424.73,263.28 427.23,262.84 427.81,262.70 C428.35,262.57 430.99,261.80 431.75,261.58" fill="none" stroke="rgb(255, 0, 0)" stroke-width="2.40" stroke-opacity="1.00" stroke-linejoin="round"/>
<path d="M436.92,238.97 C436.33,239.80 435.52,241.04 435.28,241.68 C433.53,246.46 432.67,252.19 432.78,252.28 C433.50,252.12 434.04,251.98 434.42,251.89 C435.17,251.69 435.91,251.49 436.65,251.30" fill="none" stroke="rgb(255, 0, 0)" stroke-width="2.40" stroke-opacity="1.00" stroke-linejoin="round"/>
<path d="M418.38,288.66 C418.38,288.66 417.42,288.66 417.42,288.66 C417.71,287.66 419.86,285.07 421.96,283.52 C429.34,278.39 434.20,274.07 434.88,273.98 C435.66,273.88 436.70,274.19 436.92,274.46 C437.25,275.93 433.26,286.34 430.67,290.51 C426.83,296.64 421.21,302.45 420.08,303.38 C419.71,303.68 419.26,303.95 418.72,304.20" fill="none" stroke="rgb(255, 0, 0)" stroke-width="2.40" stroke-opacity="1.00" stroke-linejoin="round"/>
<path d="M418.88,294.10 C418.88,294.10 418.38,294.60 418.38,294.60 C421.45,291.78 424.88,288.76 426.16,287.47 C427.74,285.85 434.39,276.91 434.83,276.48 C435.00,276.32 435.19,276.17 435.38,276.06" fill="none" stroke="rgb(255, 0, 0)" stroke-width="2.40" stroke-opacity="1.00" stroke-linejoin="round"/>
<path d="M423.82,282.73 C423.82,282.73 423.45,282.81 423.45,282.81 C423.45,282.81 419.24,292.45 419.24,292.45 C420.31,293.74 423.62,294.38 426.45,294.71 C426.86,294.76 427.58,294.88 428.61,295.05" fill="none" stroke="rgb(255, 0, 0)" stroke-width="2.40" stroke-opacity="1.00" stroke-linejoin="round"/>
<path d="M427.03,281.00 C427.03,281.00 426.73,281.12 426.73,281.12 C426.73,281.12 426.16,289.04 426.16,289.04 C426.91,289.24 431.09,287.24 431.60,287.02 C431.88,286.90 432.31,286.74 432.91,286.54" fill="none" stroke="rgb(255, 0, 0)" stroke-width="2.40" stroke-opacity="1.00" stroke-linejoin="round"/>
<path d="M430.25,279.27 C429.91,279.84 429.70,280.21 429.63,280.39 C428.62,283.05 431.13,284.48 431.65,284.36 C431.94,284.29 432.68,284.03 433.88,283.56" fill="none" stroke="rgb(255, 0, 0)" stroke-width="2.40" stroke-opacity="1.00" stroke-linejoin="round"/>
<path d="M397.86,259.24 C397.67,259.26 396.24,259.78 396.09,259.67 C394.64,258.55 392.71,257.54 391.11,256.20 C390.51,255.70 386.80,250.30 385.45,249.52 C381.45,247.26 377.56,242.99 377.42,242.88 C377.38,242.93 378.24,248.46 378.53,249.96 C379.83,256.40 386.01,269.36 387.09,271.23 C389.14,274.74 395.56,281.94 398.15,284.77 C399.02,285.69 399.69,286.23 400.23,286.46 C400.29,286.48 400.49,286.56 400.83,286.68" fill="none" stroke="rgb(255, 0, 0)" stroke-width="2.40" stroke-opacity="1.00" stroke-linejoin="round"/>
<path d="M404.78,281.99 C404.78,281.99 405.52,281.13 405.52,281.13 C405.70,281.13 402.13,278.98 399.86,276.12 C397.91,273.59 381.49,248.22 381.27,247.97 C381.16,247.85 380.94,247.65 380.62,247.36" fill="none" stroke="rgb(255, 0, 0)" stroke-width="2.40" stroke-opacity="1.00" stroke-linejoin="round"/>
<path d="M380.80,257.26 C380.80,257.26 380.43,257.26 380.43,257.26 C380.43,257.26 380.31,257.14 380.31,257.14 C380.40,256.84 383.20,256.81 386.07,258.27 C387.66,259.09 388.78,259.83 389.45,260.45 C389.45,260.46 389.53,256.79 389.55,256.27 C389.57,255.93 389.60,255.36 389.65,254.57" fill="none" stroke="rgb(255, 0, 0)" stroke-width="2.40" stroke-opacity="1.00" stroke-linejoin="round"/>
<path d="M385.00,262.45 C385.00,262.45 383.64,263.13 383.64,263.13 C383.80,263.36 385.44,263.63 386.73,263.83 C389.40,264.41 394.72,266.75 396.28,267.54 C397.12,267.97 397.39,269.08 397.37,269.10 C397.34,267.93 397.27,264.70 397.31,263.91 C397.34,263.40 397.44,262.42 397.61,260.97" fill="none" stroke="rgb(255, 0, 0)" stroke-width="2.40" stroke-opacity="1.00" stroke-linejoin="round"/>
<path d="M403.55,263.94 C403.27,264.28 402.86,264.99 402.71,265.70 C402.02,270.99 401.33,277.04 401.32,277.46 C400.52,277.04 391.68,274.51 391.14,274.33 C390.78,274.20 390.14,273.95 389.21,273.58" fill="none" stroke="rgb(255, 0, 0)" stroke-width="2.40" stroke-opacity="1.00" stroke-linejoin="round"/>
<path d="M401.57,287.18 C400.86,287.17 399.38,287.15 396.54,285.47 C395.57,284.91 391.40,281.52 388.42,280.56 C383.76,279.18 380.16,278.35 377.75,278.34 C377.60,280.78 383.84,292.10 393.08,306.22 C394.54,308.46 396.18,311.59 396.69,312.58 C397.16,313.51 397.63,314.43 398.11,315.36" fill="none" stroke="rgb(255, 0, 0)" stroke-width="2.40" stroke-opacity="1.00" stroke-linejoin="round"/>
<path d="M401.32,298.30 C400.80,298.30 400.08,298.29 399.92,298.11 C397.09,294.89 383.11,282.32 381.36,281.32 C381.08,281.16 380.69,281.05 380.18,280.98" fill="none" stroke="rgb(255, 0, 0)" stroke-width="2.40" stroke-opacity="1.00" stroke-linejoin="round"/>
<path d="M382.04,287.18 C382.04,287.18 381.42,287.05 381.42,287.05 C381.42,287.05 381.05,286.62 381.05,286.62 C381.05,286.62 390.18,286.85 390.18,286.85 C389.69,286.23 389.31,283.87 389.29,282.82 C389.28,282.46 389.32,281.91 389.40,281.17" fill="none" stroke="rgb(255, 0, 0)" stroke-width="2.40" stroke-opacity="1.00" stroke-linejoin="round"/>
<path d="M395.39,283.22 C395.17,283.28 395.02,283.32 394.95,283.35 C394.87,283.37 394.77,283.41 394.65,283.47 C394.65,283.47 396.87,293.84 396.87,293.84 C396.27,292.54 386.32,290.93 384.20,290.66 C384.02,290.63 383.80,290.54 383.53,290.41" fill="none" stroke="rgb(255, 0, 0)" stroke-width="2.40" stroke-opacity="1.00" stroke-linejoin="round"/>
<path d="M387.23,297.07 C387.23,297.07 384.83,297.07 384.83,297.07 C384.83,297.07 398.90,297.31 398.90,297.31 C398.90,297.31 399.08,298.24 399.08,298.24" fill="none" stroke="rgb(255, 0, 0)" stroke-width="2.40" stroke-opacity="1.00" stroke-linejoin="round"/>
<path d="M420.11,304.24 C420.11,304.24 419.86,304.24 419.86,304.24 C419.86,304.24 419.62,304.48 419.62,304.48 C419.16,304.41 418.47,304.75 417.61,305.48 C417.48,305.59 417.41,305.67 417.39,305.71 C417.40,305.72 417.31,306.03 417.10,306.37 C415.20,309.43 407.73,317.34 407.17,317.96 C407.17,317.96 407.01,317.84 407.01,317.84" fill="none" stroke="rgb(255, 0, 0)" stroke-width="2.40" stroke-opacity="1.00" stroke-linejoin="round"/>
</g>
</svg>
