<?xml version="1.0" encoding="UTF-8" standalone="no"?>
<!DOCTYPE svg PUBLIC "-//W3C//DTD SVG 1.1//EN" "http://www.w3.org/Graphics/SVG/1.1/DTD/svg11.dtd">
<svg width="128.40" height="181.68" viewBox="0.00 0.00 535.00 757.00" xmlns="http://www.w3.org/2000/svg" xmlns:xlink="http://www.w3.org/1999/xlink">
<g stroke-linecap="round" transform="translate(44.00, 155.00)" id="137-번개-2">
<path d="M143.23,109.88 C143.23,109.88 142.19,110.00 142.19,110.00 C142.34,111.58 149.61,112.51 150.76,113.12 C151.48,113.50 154.06,116.06 154.38,116.26 C154.93,116.61 157.57,117.47 157.68,117.70 C157.81,118.02 157.96,118.34 158.11,118.67 C157.86,119.68 133.82,137.75 131.93,139.54 C129.12,142.24 127.95,144.74 128.29,145.51 C128.79,146.43 132.30,147.18 135.51,147.17 C145.96,147.15 148.65,148.15 149.62,148.76 C148.36,150.52 143.07,153.48 140.78,154.97 C125.09,165.28 125.60,169.39 125.77,169.90 C126.17,170.30 140.50,171.65 144.29,172.64 C146.54,173.26 151.33,176.07 152.74,177.75 C153.36,178.54 153.96,179.84 153.91,180.45 C153.71,181.85 150.36,184.78 146.36,187.35 C137.26,193.25 132.80,197.93 132.58,198.68 C133.87,200.15 137.54,201.10 140.72,201.27 C146.00,201.49 146.62,201.57 147.25,201.79 C147.20,202.00 141.55,206.22 139.39,208.30 C133.82,213.71 130.56,217.74 130.02,218.61 C132.05,219.43 136.70,218.70 140.17,217.95 C140.66,217.85 141.54,217.64 142.83,217.34 C138.01,221.83 124.98,231.53 124.13,232.67 C123.99,232.86 123.80,233.21 123.56,233.71 C125.22,234.89 130.29,235.16 133.01,235.32 C134.60,235.42 135.29,235.63 135.77,236.06 C135.64,236.58 130.21,240.39 128.85,241.70 C126.79,243.74 126.11,245.44 125.98,246.42 C126.66,247.18 132.32,248.27 132.72,248.57 C132.85,248.66 133.07,248.90 133.39,249.30 C133.28,249.94 128.63,253.56 127.59,254.81 C126.27,256.46 126.02,259.02 126.30,259.27 C126.30,259.27 129.88,260.34 129.88,260.34 C130.11,261.12 127.76,265.09 127.48,265.61 C127.33,265.88 127.03,266.49 126.58,267.43" fill="none" stroke="rgb(255, 255, 0)" stroke-width="2.40" stroke-opacity="1.00" stroke-linejoin="round"/>
</g>
</svg>
