<?xml version="1.0" encoding="UTF-8" standalone="no"?>
<!DOCTYPE svg PUBLIC "-//W3C//DTD SVG 1.1//EN" "http://www.w3.org/Graphics/SVG/1.1/DTD/svg11.dtd">
<svg width="128.40" height="181.68" viewBox="0.00 0.00 535.00 757.00" xmlns="http://www.w3.org/2000/svg" xmlns:xlink="http://www.w3.org/1999/xlink">
<g stroke-linecap="round" transform="translate(44.00, 155.00)" id="137-비-2">
<path d="M388.59,104.92 C387.68,105.14 387.37,105.24 387.24,105.49 C386.86,106.18 382.86,111.17 381.72,114.21 C380.51,117.55 379.74,121.22 380.31,122.94 C380.57,123.61 381.98,124.48 382.77,124.45 C384.80,124.32 389.10,122.28 390.46,120.69 C391.99,118.81 393.37,113.17 392.69,110.88 C392.41,110.00 391.06,107.50 390.44,106.40 C390.21,105.98 389.79,105.18 389.19,104.02" fill="none" stroke="rgb(0, 0, 255)" stroke-width="2.40" stroke-opacity="1.00" stroke-linejoin="round"/>
<path d="M402.00,98.75 C402.00,98.75 401.46,98.32 401.46,98.32 C401.36,98.32 398.23,97.36 397.49,117.82 C397.45,119.45 397.92,121.19 398.82,122.93 C400.18,125.49 400.74,126.20 401.53,126.44 C402.46,126.25 404.31,124.98 405.14,123.92 C406.33,122.34 407.70,118.16 407.72,115.09 C407.70,111.96 406.56,105.50 405.37,102.61 C404.88,101.42 403.41,98.90 403.05,98.07 C402.94,97.81 402.92,97.57 403.00,97.33" fill="none" stroke="rgb(0, 0, 255)" stroke-width="2.40" stroke-opacity="1.00" stroke-linejoin="round"/>
<path d="M419.03,110.03 C419.03,110.03 418.49,110.03 418.49,110.03 C418.25,110.29 413.68,123.90 413.84,126.26 C414.03,128.41 415.65,131.42 416.86,132.00 C417.99,132.50 420.57,131.58 421.63,130.41 C422.70,129.19 423.94,125.42 424.02,122.64 C424.09,119.98 423.17,113.01 422.58,111.50 C422.46,111.21 422.26,111.00 421.98,110.86" fill="none" stroke="rgb(0, 0, 255)" stroke-width="2.40" stroke-opacity="1.00" stroke-linejoin="round"/>
<path d="M415.83,140.89 C415.83,140.89 413.72,139.61 413.72,139.61 C413.28,140.63 411.68,146.62 411.25,149.99 C410.84,153.27 411.17,157.32 411.86,158.51 C412.53,159.57 414.99,160.04 416.16,159.47 C417.32,158.87 419.04,156.50 419.58,154.55 C420.90,149.52 418.96,142.37 418.07,140.92 C417.84,140.56 417.27,140.03 416.17,139.09" fill="none" stroke="rgb(0, 0, 255)" stroke-width="2.40" stroke-opacity="1.00" stroke-linejoin="round"/>
<path d="M402.00,129.61 C400.98,129.60 400.38,129.65 400.03,129.82 C399.30,130.24 396.13,135.91 395.06,138.98 C393.89,142.44 392.93,147.82 393.03,150.69 C393.10,152.08 394.61,155.01 396.14,155.51 C397.62,155.90 401.47,153.77 403.54,150.80 C404.82,148.94 407.08,143.59 407.60,140.99 C407.94,139.24 407.65,135.83 407.06,134.55 C406.61,133.59 404.97,131.51 403.19,130.04 C403.19,130.04 399.87,131.10 399.87,131.10" fill="none" stroke="rgb(0, 0, 255)" stroke-width="2.40" stroke-opacity="1.00" stroke-linejoin="round"/>
<path d="M387.95,127.69 C386.98,127.72 384.73,130.06 384.21,131.58 C383.67,133.38 383.23,138.21 383.47,140.20 C383.91,143.61 385.41,146.45 386.44,147.03 C387.57,147.60 390.00,146.67 390.96,145.27 C391.95,143.74 392.96,139.50 393.06,136.57 C393.24,129.26 391.86,126.34 391.30,125.44 C391.30,125.44 389.56,124.80 389.56,124.80 C389.56,124.80 386.94,126.87 386.94,126.87" fill="none" stroke="rgb(0, 0, 255)" stroke-width="2.40" stroke-opacity="1.00" stroke-linejoin="round"/>
<path d="M383.05,148.98 C383.05,148.98 383.27,148.77 383.27,148.77 C383.26,149.14 382.23,155.37 382.05,158.21 C381.85,161.53 381.92,165.95 382.20,166.96 C382.53,168.04 383.33,169.26 384.01,169.54 C385.37,170.06 388.21,168.39 389.01,166.79 C389.67,165.36 389.61,162.15 388.97,160.32 C387.50,156.35 381.59,151.16 380.74,150.85 C380.44,150.74 379.94,150.71 379.23,150.75" fill="none" stroke="rgb(0, 0, 255)" stroke-width="2.40" stroke-opacity="1.00" stroke-linejoin="round"/>
<path d="M397.95,158.77 C397.95,158.77 395.65,159.20 395.65,159.20 C395.81,159.19 394.66,163.00 393.88,166.00 C393.03,169.37 392.42,174.75 393.12,177.50 C393.48,178.75 395.66,181.18 397.18,181.32 C398.66,181.40 401.63,179.44 402.70,177.57 C404.04,175.09 404.50,169.74 403.37,167.05 C401.43,162.61 395.16,158.62 394.24,158.28 C393.90,158.16 393.55,158.18 393.19,158.32" fill="none" stroke="rgb(0, 0, 255)" stroke-width="2.40" stroke-opacity="1.00" stroke-linejoin="round"/>
<path d="M409.66,158.56 C408.75,158.55 408.40,158.58 408.19,158.73 C407.59,159.21 405.56,165.19 405.25,168.13 C405.01,170.80 405.84,173.82 406.88,174.44 C408.07,175.09 411.42,174.69 413.12,173.75 C414.77,172.80 416.74,170.33 416.87,168.99 C416.95,167.83 415.79,164.39 414.09,161.73 C413.17,160.32 411.94,158.78 411.53,158.57 C411.14,158.40 410.75,158.23 410.35,158.05" fill="none" stroke="rgb(0, 0, 255)" stroke-width="2.40" stroke-opacity="1.00" stroke-linejoin="round"/>
<path d="M416.05,174.95 C416.05,174.95 414.23,174.84 414.23,174.84 C413.11,176.32 410.73,189.36 411.46,191.61 C411.93,192.97 414.58,194.44 415.81,194.36 C416.95,194.25 418.53,192.49 418.88,190.83 C419.86,185.78 417.98,176.21 417.41,174.41 C417.41,174.41 415.83,174.73 415.83,174.73" fill="none" stroke="rgb(0, 0, 255)" stroke-width="2.40" stroke-opacity="1.00" stroke-linejoin="round"/>
<path d="M399.23,182.40 C399.23,182.40 398.38,182.50 398.38,182.50 C396.93,183.88 392.94,199.87 393.89,202.55 C394.63,204.37 397.11,205.61 398.59,205.37 C400.07,205.09 403.17,202.51 404.08,200.77 C405.13,198.68 405.83,194.96 405.83,193.19 C405.82,191.21 405.09,187.15 404.47,185.53 C403.91,184.11 402.33,181.97 401.43,181.72 C401.26,181.67 400.96,181.67 400.53,181.70" fill="none" stroke="rgb(0, 0, 255)" stroke-width="2.40" stroke-opacity="1.00" stroke-linejoin="round"/>
<path d="M388.80,179.84 C388.38,180.08 387.02,182.31 385.85,185.43 C384.59,188.89 383.91,193.10 383.99,195.08 C384.13,196.91 385.47,199.42 387.07,199.58 C388.42,199.67 390.97,197.80 391.97,196.18 C392.86,194.69 393.58,191.36 393.24,187.92 C393.11,186.75 392.48,184.06 391.99,182.42 C391.47,180.72 390.80,179.99 389.92,179.11" fill="none" stroke="rgb(0, 0, 255)" stroke-width="2.40" stroke-opacity="1.00" stroke-linejoin="round"/>
<path d="M382.63,168.13 C381.98,168.16 381.01,168.01 380.66,167.96 C379.23,167.77 376.52,170.19 375.71,171.79 C374.91,173.52 374.47,178.11 374.54,182.12 C374.63,185.08 376.26,187.98 378.06,188.69 C379.71,189.27 383.22,188.00 385.40,185.60 C386.44,184.43 388.15,180.40 388.31,178.78 C388.43,177.42 388.36,174.36 388.11,173.38 C388.00,172.96 387.70,172.09 387.22,170.75" fill="none" stroke="rgb(0, 0, 255)" stroke-width="2.40" stroke-opacity="1.00" stroke-linejoin="round"/>
<path d="M375.39,189.21 C375.39,189.21 374.54,189.63 374.54,189.63 C373.82,190.85 373.98,197.68 374.28,199.16 C375.09,202.84 376.78,205.40 377.59,205.87 C378.33,206.26 379.57,205.99 380.10,205.40 C380.65,204.76 381.26,202.75 381.19,201.52 C380.99,198.76 379.77,191.41 379.39,190.47 C379.29,190.21 379.08,189.86 378.77,189.40" fill="none" stroke="rgb(0, 0, 255)" stroke-width="2.40" stroke-opacity="1.00" stroke-linejoin="round"/>
<path d="M372.68,206.37 C371.64,206.07 370.71,206.53 369.90,207.81 C368.70,209.76 367.26,213.43 366.96,215.46 C366.82,216.52 367.52,218.96 368.47,220.07 C369.25,220.94 371.02,221.55 371.94,221.14 C372.90,220.67 374.25,218.69 374.70,217.20 C375.12,215.67 374.92,210.94 374.65,209.51 C374.57,209.08 374.41,208.64 374.17,208.16" fill="none" stroke="rgb(0, 0, 255)" stroke-width="2.40" stroke-opacity="1.00" stroke-linejoin="round"/>
<path d="M366.32,244.05 C366.32,244.05 365.04,244.05 365.04,244.05 C364.77,244.88 363.69,253.99 363.57,255.37 C363.27,258.91 363.90,262.55 365.14,265.45 C365.81,267.00 367.50,271.28 368.12,271.62 C368.90,271.45 370.56,269.89 371.22,268.73 C371.88,267.51 372.58,264.25 372.50,260.88 C372.41,257.95 371.18,252.25 370.47,251.10 C369.79,250.10 368.23,249.45 367.50,249.69 C367.21,249.79 365.50,251.19 364.46,252.05" fill="none" stroke="rgb(0, 0, 255)" stroke-width="2.40" stroke-opacity="1.00" stroke-linejoin="round"/>
</g>
</svg>
