<?xml version="1.0" encoding="UTF-8" standalone="no"?>
<!DOCTYPE svg PUBLIC "-//W3C//DTD SVG 1.1//EN" "http://www.w3.org/Graphics/SVG/1.1/DTD/svg11.dtd">
<svg width="128.40" height="181.68" viewBox="0.00 0.00 535.00 757.00" xmlns="http://www.w3.org/2000/svg" xmlns:xlink="http://www.w3.org/1999/xlink">
<g stroke-linecap="round" transform="translate(44.00, 155.00)" id="137-지면-2">
<path d="M99.11,335.83 C99.11,335.83 97.80,335.75 97.80,335.75 C97.73,335.39 99.01,333.56 101.87,330.16 C106.32,325.17 112.23,318.49 112.47,318.28 C112.47,318.28 107.47,337.08 107.47,337.08 C108.22,337.07 115.09,324.68 116.36,323.23 C117.49,321.94 118.39,321.15 118.62,321.19 C118.62,321.19 115.47,338.50 115.47,338.50 C115.47,338.50 129.95,317.56 129.95,317.56 C129.91,318.13 125.35,327.86 124.03,333.19 C124.00,333.32 123.95,333.43 123.87,333.54" fill="none" stroke="rgb(0, 255, 0)" stroke-width="2.40" stroke-opacity="1.00" stroke-linejoin="round"/>
<path d="M125.11,334.24 C125.11,334.24 124.85,334.24 124.85,334.24 C124.86,334.13 136.71,322.83 141.32,320.27 C143.13,319.28 143.57,319.05 144.72,318.48 C144.72,318.48 134.99,332.39 134.99,332.39 C134.99,332.39 149.81,320.67 149.81,320.67 C149.81,320.67 141.94,331.96 141.94,331.96 C143.69,330.42 149.43,324.76 151.05,323.41 C153.28,321.56 154.78,321.11 155.67,320.98 C155.67,320.98 147.93,333.12 147.93,333.12 C147.93,333.12 159.49,323.79 159.49,323.79 C159.49,323.79 155.27,333.01 155.27,333.01 C158.52,329.26 166.34,325.03 167.27,324.75 C167.27,324.75 160.74,335.14 160.74,335.14 C160.71,334.94 174.04,323.77 175.76,322.73 C176.36,322.37 176.97,322.00 177.58,321.64 C177.58,321.64 171.85,333.30 171.85,333.30 C171.85,333.30 186.53,320.58 186.53,320.58 C186.53,320.58 180.09,333.49 180.09,333.49 C184.62,327.61 194.00,319.01 197.37,317.83 C194.40,321.05 188.70,333.00 188.68,334.05 C191.49,330.33 202.17,322.33 204.49,321.98 C204.49,321.98 202.28,333.71 202.28,333.71 C206.23,326.97 216.09,319.27 216.57,319.26 C216.57,319.26 215.46,331.28 215.46,331.28 C215.62,331.23 228.99,320.11 229.76,320.18 C229.87,320.20 230.17,320.20 230.53,320.34 C230.53,320.34 232.82,331.60 232.82,331.60 C232.82,331.60 232.82,331.53 232.82,331.53" fill="none" stroke="rgb(0, 255, 0)" stroke-width="2.40" stroke-opacity="1.00" stroke-linejoin="round"/>
<path d="M236.80,330.79 C236.40,330.77 236.13,330.77 236.00,330.79 C235.98,330.79 235.77,330.85 235.37,330.96 C235.28,330.99 235.13,331.02 234.94,331.05 C234.94,331.05 253.20,318.41 253.20,318.41 C253.20,318.41 255.23,327.08 255.23,327.08 C255.23,327.08 270.20,315.41 270.20,315.41 C270.20,315.41 270.60,324.56 270.60,324.56 C270.64,324.56 283.10,315.90 285.84,314.86 C288.08,314.02 289.44,314.03 290.07,314.10 C290.07,314.10 289.21,326.48 289.21,326.48 C291.36,323.05 308.90,312.43 309.84,312.44 C309.84,312.44 310.98,321.98 310.98,321.98 C312.14,322.38 313.74,321.59 319.30,319.06 C325.63,316.10 334.47,312.48 341.32,310.90 C345.50,309.95 346.55,309.86 346.85,310.05 C347.24,310.75 345.89,316.14 345.77,316.70 C345.04,319.99 345.46,323.94 346.53,325.59 C346.91,326.16 347.49,326.68 347.92,326.93 C347.92,326.93 381.15,310.73 381.15,310.73 C381.21,311.23 378.22,316.49 377.03,318.88 C374.67,323.67 375.35,328.23 375.52,328.78 C376.43,329.12 387.48,324.20 394.51,320.27 C400.65,316.98 405.76,317.00 406.02,317.01 C406.04,317.41 404.60,321.16 403.89,323.28 C402.98,326.04 402.97,329.17 403.24,329.79 C404.39,330.64 412.54,327.50 421.91,323.12 C430.79,318.90 436.87,316.45 438.08,317.25 C438.08,317.25 436.43,326.10 436.43,326.10 C438.14,326.63 444.66,325.57 447.81,325.04 C458.49,323.06 467.02,320.73 467.85,320.50 C467.85,320.50 466.25,330.19 466.25,330.19 C466.25,330.19 468.98,331.30 468.98,331.30 C468.98,331.30 468.12,331.58 468.12,331.58" fill="none" stroke="rgb(0, 255, 0)" stroke-width="2.40" stroke-opacity="1.00" stroke-linejoin="round"/>
<path d="M469.05,332.18 C469.05,332.18 468.57,331.53 468.57,331.53 C468.55,331.78 474.91,335.13 482.80,330.12 C483.03,329.97 487.77,326.76 488.10,326.64 C488.21,326.68 488.22,327.68 488.24,328.10 C488.26,328.42 488.31,329.09 488.40,330.10" fill="none" stroke="rgb(0, 255, 0)" stroke-width="2.40" stroke-opacity="1.00" stroke-linejoin="round"/>
</g>
</svg>
