<?xml version="1.0" encoding="UTF-8" standalone="no"?>
<!DOCTYPE svg PUBLIC "-//W3C//DTD SVG 1.1//EN" "http://www.w3.org/Graphics/SVG/1.1/DTD/svg11.dtd">
<svg width="128.40" height="181.68" viewBox="0.00 0.00 535.00 757.00" xmlns="http://www.w3.org/2000/svg" xmlns:xlink="http://www.w3.org/1999/xlink">
<g stroke-linecap="round" transform="translate(44.00, 155.00)" id="137-풀-1">
<path d="M-39.45,327.56 C-39.45,327.56 -39.89,326.92 -39.89,326.92 C-39.75,325.96 -29.46,316.01 -26.01,313.35 C-18.85,307.88 -4.85,303.48 -0.64,302.41 C-5.21,305.63 -18.77,313.52 -23.17,317.00 C-32.20,324.31 -39.34,334.26 -39.83,334.94 C-39.83,334.94 -39.21,334.06 -39.21,334.06" fill="none" stroke="rgb(0, 255, 0)" stroke-width="2.40" stroke-opacity="1.00" stroke-linejoin="round"/>
<path d="M-26.61,323.14 C-26.61,323.14 -27.46,322.50 -27.46,322.50 C-28.77,323.57 -30.41,328.38 -30.37,329.57 C-30.28,330.92 -28.92,332.21 -27.90,332.22 C-27.10,332.19 -24.78,330.79 -23.68,329.10 C-22.68,327.54 -22.84,325.46 -23.25,324.84 C-24.34,323.23 -26.41,322.85 -27.11,322.80 C-27.11,322.80 -28.81,324.43 -28.81,324.43" fill="none" stroke="rgb(0, 255, 0)" stroke-width="2.40" stroke-opacity="1.00" stroke-linejoin="round"/>
<path d="M-16.65,316.06 C-17.21,315.91 -17.60,315.84 -17.81,315.83 C-19.01,315.82 -20.04,317.41 -20.15,318.45 C-20.27,319.71 -19.71,321.94 -18.94,322.65 C-18.12,323.35 -15.69,323.33 -14.13,322.47 C-12.49,321.52 -10.98,319.09 -11.48,317.95 C-12.92,315.03 -16.69,315.41 -17.57,315.66 C-17.57,315.66 -18.74,318.11 -18.74,318.11" fill="none" stroke="rgb(0, 255, 0)" stroke-width="2.40" stroke-opacity="1.00" stroke-linejoin="round"/>
<path d="M-6.69,311.19 C-6.69,311.19 -8.92,310.59 -8.92,310.59 C-9.51,311.04 -10.29,313.17 -10.13,314.33 C-9.92,315.62 -7.68,316.25 -6.29,315.37 C-4.89,314.44 -3.73,311.66 -4.48,310.73 C-4.84,310.32 -6.04,309.94 -6.62,310.04 C-7.03,310.12 -7.80,310.88 -8.99,312.18" fill="none" stroke="rgb(0, 255, 0)" stroke-width="2.40" stroke-opacity="1.00" stroke-linejoin="round"/>
<path d="M3.94,305.43 C3.85,305.50 2.60,305.66 2.11,305.76 C1.41,305.92 0.89,307.70 1.35,308.71 C1.64,309.30 2.64,309.98 3.28,309.98 C7.65,309.73 7.04,304.57 6.58,303.78 C5.57,303.49 4.25,303.70 3.13,304.46 C2.61,304.81 1.91,305.83 0.93,307.40" fill="none" stroke="rgb(0, 255, 0)" stroke-width="2.40" stroke-opacity="1.00" stroke-linejoin="round"/>
<path d="M12.35,306.32 C12.35,306.32 12.01,306.10 12.01,306.10 C12.01,306.10 3.44,309.13 3.44,309.13 C3.44,309.13 3.40,309.35 3.40,309.35" fill="none" stroke="rgb(0, 255, 0)" stroke-width="2.40" stroke-opacity="1.00" stroke-linejoin="round"/>
<path d="M-0.05,310.97 C-0.14,310.89 -0.18,310.82 -0.27,310.58 C-0.46,310.05 -0.52,309.75 -0.49,309.48 C-0.49,309.44 -1.86,310.19 -5.61,312.14 C-9.48,314.20 -14.28,317.34 -17.97,319.69 C-25.97,325.37 -35.67,335.40 -36.34,336.36 C-36.54,336.65 -36.78,337.12 -37.06,337.75" fill="none" stroke="rgb(0, 255, 0)" stroke-width="2.40" stroke-opacity="1.00" stroke-linejoin="round"/>
<path d="M-26.39,337.30 C-26.39,337.30 -27.25,337.30 -27.25,337.30 C-27.18,336.54 -25.73,334.54 -23.95,332.99 C-19.77,329.79 -10.15,321.99 6.99,312.59 C9.61,311.18 13.59,309.06 14.94,308.35 C14.94,308.35 14.56,308.53 14.56,308.53" fill="none" stroke="rgb(0, 255, 0)" stroke-width="2.40" stroke-opacity="1.00" stroke-linejoin="round"/>
<path d="M15.44,308.97 C15.44,308.97 15.00,308.88 15.00,308.88 C15.00,308.88 19.41,305.87 19.41,305.87 C17.82,305.88 15.55,306.13 13.62,306.59 C13.13,306.71 12.41,306.92 11.45,307.22" fill="none" stroke="rgb(0, 255, 0)" stroke-width="2.40" stroke-opacity="1.00" stroke-linejoin="round"/>
<path d="M-12.22,322.25 C-13.91,322.25 -17.25,323.69 -17.76,324.41 C-18.45,325.46 -18.91,328.58 -18.47,329.90 C-17.96,331.31 -15.33,332.21 -13.57,331.57 C-11.81,330.88 -9.28,327.93 -9.08,326.33 C-8.91,324.58 -11.19,322.20 -12.75,322.31 C-13.19,322.35 -14.11,323.04 -15.65,324.32" fill="none" stroke="rgb(0, 255, 0)" stroke-width="2.40" stroke-opacity="1.00" stroke-linejoin="round"/>
<path d="M-3.81,314.29 C-4.78,314.29 -6.24,314.29 -6.38,314.32 C-7.76,314.74 -8.32,320.35 -7.79,321.67 C-7.43,322.49 -6.12,323.54 -5.14,323.77 C-3.10,324.19 0.75,322.32 1.56,320.60 C1.90,319.79 1.88,318.15 1.49,317.40 C1.04,316.61 -0.47,315.52 -1.42,315.31 C-3.28,314.96 -4.60,316.16 -5.89,317.50" fill="none" stroke="rgb(0, 255, 0)" stroke-width="2.40" stroke-opacity="1.00" stroke-linejoin="round"/>
<path d="M-24.17,338.63 C-24.17,338.63 -24.99,338.82 -24.99,338.82 C-24.93,337.91 -11.24,328.93 -10.25,328.25 C-1.80,322.47 4.32,319.35 11.32,317.13 C12.32,316.81 13.33,316.48 14.33,316.16 C12.94,315.95 6.05,320.65 -2.76,328.48 C-6.58,331.87 -10.59,336.41 -10.80,336.62 C-9.68,335.95 3.59,325.91 8.23,323.08 C10.77,321.54 14.07,320.04 14.31,320.02 C14.36,320.05 10.78,323.38 8.36,326.09 C4.52,330.40 -0.05,337.72 -0.68,338.61 C-0.69,338.63 -0.74,338.69 -0.73,338.66" fill="none" stroke="rgb(0, 255, 0)" stroke-width="2.40" stroke-opacity="1.00" stroke-linejoin="round"/>
</g>
</svg>
