<?xml version="1.0" encoding="UTF-8" standalone="no"?>
<!DOCTYPE svg PUBLIC "-//W3C//DTD SVG 1.1//EN" "http://www.w3.org/Graphics/SVG/1.1/DTD/svg11.dtd">
<svg width="128.40" height="181.68" viewBox="0.00 0.00 535.00 757.00" xmlns="http://www.w3.org/2000/svg" xmlns:xlink="http://www.w3.org/1999/xlink">
<g stroke-linecap="round" transform="translate(44.00, 155.00)" id="138-구름-1">
<path d="M7.75,59.33 C7.75,59.33 7.08,63.27 7.08,63.27 C7.09,61.94 5.51,58.31 5.45,56.17 C5.43,55.51 5.41,54.85 5.40,54.19 C5.33,56.33 4.52,62.62 3.49,64.48 C3.43,64.59 -2.40,67.12 -3.39,68.13 C-4.30,69.13 -4.84,73.32 -5.13,75.77 C-5.60,80.04 -5.67,82.32 -4.86,83.21 C-2.90,85.12 2.93,82.19 3.55,81.50 C0.68,84.74 -3.21,92.38 -2.99,94.16 C-2.82,95.18 -1.58,96.69 -0.50,97.26 C3.34,99.13 12.84,97.53 14.42,97.05 C14.08,98.96 13.43,104.38 13.78,106.74 C14.15,108.95 16.00,112.99 17.44,113.99 C17.85,114.24 19.70,114.89 20.41,114.87 C22.26,114.76 25.23,113.82 27.41,112.60 C30.77,110.68 37.10,105.02 38.76,102.82 C40.78,100.08 42.20,95.07 42.02,91.79 C41.82,88.95 40.06,84.23 38.51,82.75 C36.73,81.12 31.77,78.97 29.49,79.33 C28.53,79.50 27.59,80.04 26.62,80.80 C28.50,75.06 29.64,71.20 30.02,68.91 C30.52,65.48 30.54,61.12 29.48,59.68 C28.60,58.59 22.84,57.70 20.28,57.82 C18.48,57.92 15.79,58.63 14.09,59.42 C13.47,59.72 9.15,62.40 7.95,63.14" fill="none" stroke="rgb(0, 160, 232)" stroke-width="2.33" stroke-opacity="1.00" stroke-linejoin="round"/>
</g>
</svg>
