<?xml version="1.0" encoding="UTF-8" standalone="no"?>
<!DOCTYPE svg PUBLIC "-//W3C//DTD SVG 1.1//EN" "http://www.w3.org/Graphics/SVG/1.1/DTD/svg11.dtd">
<svg width="128.40" height="181.68" viewBox="0.00 0.00 535.00 757.00" xmlns="http://www.w3.org/2000/svg" xmlns:xlink="http://www.w3.org/1999/xlink">
<g stroke-linecap="round" transform="translate(44.00, 155.00)" id="138-비-3">
<path d="M207.54,115.64 C207.45,115.65 206.46,115.71 205.31,117.79 C204.96,118.41 200.94,126.05 199.51,129.05 C197.83,132.60 196.07,137.00 195.17,139.80" fill="none" stroke="rgb(28, 31, 136)" stroke-width="2.33" stroke-opacity="1.00" stroke-linejoin="round"/>
<path d="M214.34,121.37 C214.34,121.37 212.73,121.09 212.73,121.09 C212.66,121.09 212.20,133.66 211.65,141.32 C211.52,143.11 211.33,146.05 211.26,147.20" fill="none" stroke="rgb(28, 31, 136)" stroke-width="2.33" stroke-opacity="1.00" stroke-linejoin="round"/>
<path d="M224.72,121.73 C224.72,121.73 224.37,120.83 224.37,120.83 C224.19,120.64 223.59,123.94 222.71,129.93 C222.12,134.07 220.92,142.79 220.66,145.74 C220.59,146.57 220.48,149.11 220.44,149.88" fill="none" stroke="rgb(28, 31, 136)" stroke-width="2.33" stroke-opacity="1.00" stroke-linejoin="round"/>
<path d="M234.39,116.00 C234.15,116.38 233.71,117.65 233.49,118.77 C233.39,119.31 232.39,127.07 231.47,131.34 C230.61,135.12 228.55,144.22 228.39,145.09 C228.00,147.20 227.70,149.55 227.65,150.61" fill="none" stroke="rgb(28, 31, 136)" stroke-width="2.33" stroke-opacity="1.00" stroke-linejoin="round"/>
<path d="M224.37,151.79 C224.31,151.79 224.25,151.79 224.19,151.79 C224.13,151.79 224.07,151.79 224.01,151.79 C224.01,154.87 224.00,162.12 224.00,166.30 C224.01,168.20 224.02,172.42 224.08,172.98 C224.13,173.48 224.30,174.51 224.60,176.07" fill="none" stroke="rgb(28, 31, 136)" stroke-width="2.33" stroke-opacity="1.00" stroke-linejoin="round"/>
<path d="M218.64,159.31 C218.64,159.31 218.28,159.31 218.28,159.31 C218.29,159.32 218.21,159.77 218.34,160.31 C218.43,160.69 218.72,161.69 219.21,163.31" fill="none" stroke="rgb(28, 31, 136)" stroke-width="2.33" stroke-opacity="1.00" stroke-linejoin="round"/>
<path d="M206.83,148.57 C206.83,148.57 206.83,148.39 206.83,148.39 C206.83,148.39 206.65,148.21 206.65,148.21 C206.43,148.68 206.53,156.27 206.59,160.25 C206.62,162.02 206.64,163.21 206.66,163.81 C206.72,165.14 206.77,166.46 206.83,167.79" fill="none" stroke="rgb(28, 31, 136)" stroke-width="2.33" stroke-opacity="1.00" stroke-linejoin="round"/>
<path d="M201.10,148.21 C201.10,148.21 200.20,148.21 200.20,148.21 C199.89,148.68 200.98,154.77 201.47,157.43 C201.80,159.22 202.37,162.38 202.62,163.75" fill="none" stroke="rgb(28, 31, 136)" stroke-width="2.33" stroke-opacity="1.00" stroke-linejoin="round"/>
</g>
</svg>
