<?xml version="1.0" encoding="UTF-8" standalone="no"?>
<!DOCTYPE svg PUBLIC "-//W3C//DTD SVG 1.1//EN" "http://www.w3.org/Graphics/SVG/1.1/DTD/svg11.dtd">
<svg width="128.40" height="181.68" viewBox="0.00 0.00 535.00 757.00" xmlns="http://www.w3.org/2000/svg" xmlns:xlink="http://www.w3.org/1999/xlink">
<g stroke-linecap="round" transform="translate(44.00, 155.00)" id="138-비-1">
<path d="M8.53,113.49 C8.53,113.49 8.17,113.49 8.17,113.49 C8.15,120.15 8.12,135.87 8.09,144.93 C7.96,165.52 6.36,172.52 5.96,173.57 C5.96,173.57 5.49,173.24 5.49,173.24" fill="none" stroke="rgb(28, 31, 136)" stroke-width="2.33" stroke-opacity="1.00" stroke-linejoin="round"/>
<path d="M-1.50,131.39 C-1.50,131.39 -1.86,130.50 -1.86,130.50 C-1.64,140.51 2.45,166.29 5.51,180.19 C5.76,181.24 6.00,182.30 6.24,183.35" fill="none" stroke="rgb(28, 31, 136)" stroke-width="2.33" stroke-opacity="1.00" stroke-linejoin="round"/>
<path d="M10.67,170.76 C10.90,174.37 15.73,192.31 16.58,196.14 C17.66,201.22 18.06,202.89 18.39,204.25" fill="none" stroke="rgb(28, 31, 136)" stroke-width="2.33" stroke-opacity="1.00" stroke-linejoin="round"/>
<path d="M3.16,196.18 C5.57,200.01 9.24,208.65 10.55,212.10 C10.89,212.98 12.00,215.64 12.40,216.61" fill="none" stroke="rgb(28, 31, 136)" stroke-width="2.33" stroke-opacity="1.00" stroke-linejoin="round"/>
<path d="M14.61,195.82 C14.61,195.82 14.07,196.00 14.07,196.00 C14.07,196.00 13.54,196.82 13.54,196.82 C13.84,199.58 14.85,203.01 16.18,206.72 C17.46,210.23 19.53,215.84 20.32,217.95" fill="none" stroke="rgb(28, 31, 136)" stroke-width="2.33" stroke-opacity="1.00" stroke-linejoin="round"/>
<path d="M23.56,205.49 C23.54,208.29 23.88,212.85 24.19,216.09 C24.35,217.72 24.48,219.63 24.54,221.30 C24.59,222.62 24.62,224.88 24.63,226.08" fill="none" stroke="rgb(28, 31, 136)" stroke-width="2.33" stroke-opacity="1.00" stroke-linejoin="round"/>
<path d="M25.35,177.21 C25.50,177.99 25.60,178.54 25.67,178.85 C27.52,186.71 29.82,199.79 29.91,200.23 C30.02,200.71 30.30,201.82 30.74,203.54" fill="none" stroke="rgb(28, 31, 136)" stroke-width="2.33" stroke-opacity="1.00" stroke-linejoin="round"/>
<path d="M35.01,181.50 C34.41,184.56 36.07,194.92 36.76,198.24 C37.21,200.32 38.02,203.96 38.37,205.53" fill="none" stroke="rgb(28, 31, 136)" stroke-width="2.33" stroke-opacity="1.00" stroke-linejoin="round"/>
<path d="M28.93,202.26 C28.62,203.40 28.51,204.47 28.63,206.10 C28.75,207.75 29.02,209.92 29.30,211.51 C29.54,212.89 29.98,214.76 30.69,217.58" fill="none" stroke="rgb(28, 31, 136)" stroke-width="2.33" stroke-opacity="1.00" stroke-linejoin="round"/>
<path d="M35.73,204.05 C35.60,204.81 35.43,206.62 35.37,208.26 C35.32,210.10 35.44,214.00 35.64,215.06 C35.72,215.49 35.92,216.14 36.24,217.02" fill="none" stroke="rgb(28, 31, 136)" stroke-width="2.33" stroke-opacity="1.00" stroke-linejoin="round"/>
<path d="M42.53,199.04 C41.41,200.96 41.02,204.06 41.30,209.37 C41.42,211.23 41.71,213.66 41.97,214.97 C42.04,215.32 42.15,215.78 42.31,216.35" fill="none" stroke="rgb(28, 31, 136)" stroke-width="2.33" stroke-opacity="1.00" stroke-linejoin="round"/>
<path d="M20.34,125.31 C20.34,132.20 20.34,147.57 20.33,156.04 C20.34,160.20 20.40,169.58 20.44,170.92 C20.58,176.04 21.14,181.26 21.54,183.38" fill="none" stroke="rgb(28, 31, 136)" stroke-width="2.33" stroke-opacity="1.00" stroke-linejoin="round"/>
<path d="M27.85,136.40 C27.85,136.34 27.85,136.52 27.85,136.58 C28.05,139.71 28.52,146.41 28.79,149.99 C29.09,153.12 29.75,159.64 30.21,162.85 C30.97,167.83 31.19,169.01 31.50,170.43" fill="none" stroke="rgb(28, 31, 136)" stroke-width="2.33" stroke-opacity="1.00" stroke-linejoin="round"/>
<path d="M32.51,132.82 C32.13,133.37 32.18,134.50 32.77,137.11 C33.92,142.24 34.80,146.46 35.22,149.63 C35.86,154.55 36.06,165.83 36.09,167.20" fill="none" stroke="rgb(28, 31, 136)" stroke-width="2.33" stroke-opacity="1.00" stroke-linejoin="round"/>
</g>
</svg>
