<?xml version="1.0" encoding="UTF-8" standalone="no"?>
<!DOCTYPE svg PUBLIC "-//W3C//DTD SVG 1.1//EN" "http://www.w3.org/Graphics/SVG/1.1/DTD/svg11.dtd">
<svg width="128.40" height="181.68" viewBox="0.00 0.00 535.00 757.00" xmlns="http://www.w3.org/2000/svg" xmlns:xlink="http://www.w3.org/1999/xlink">
<g stroke-linecap="round" transform="translate(44.00, 155.00)" id="139-번개-7">
<path d="M373.01,91.52 C373.01,91.52 369.26,91.34 369.26,91.34 C369.26,91.34 368.93,90.81 368.93,90.81 C369.68,89.37 373.90,86.15 376.85,85.31 C379.03,84.72 387.51,83.71 391.35,83.66 C395.05,83.63 400.27,84.30 403.51,85.11 C410.99,87.05 412.42,89.25 412.62,89.91 C411.10,90.51 407.89,100.25 403.89,113.54 C400.68,123.90 396.66,133.13 392.12,140.91 C390.74,143.28 390.32,144.08 390.06,144.77 C393.62,143.41 398.07,141.90 402.45,141.20 C409.49,140.12 423.10,139.44 427.33,140.40 C427.42,141.53 422.26,146.31 420.27,148.50 C416.57,152.55 397.27,180.43 387.82,195.13 C386.21,197.64 383.38,202.67 383.83,203.44 C388.50,203.87 415.19,201.92 422.68,200.57 C425.48,200.05 429.95,198.70 432.70,198.00 C436.74,196.99 439.67,197.10 440.52,197.33 C430.41,203.53 424.22,207.77 418.48,213.45 C416.43,215.51 412.85,220.04 410.28,223.71 C408.06,226.87 399.61,240.54 396.77,243.25 C407.32,241.56 437.77,238.40 441.17,238.66 C441.76,238.71 447.90,239.96 449.42,240.23 C444.53,243.55 438.03,249.47 431.27,257.61 C426.02,263.91 418.54,270.58 413.46,275.14 C406.13,281.88 401.07,286.19 400.98,286.72 C402.79,287.12 419.93,285.30 427.51,284.49 C431.32,284.16 447.60,286.09 451.82,285.93 C454.95,285.80 460.37,285.57 460.93,285.50 C461.30,285.45 461.79,285.33 462.41,285.15" fill="none" stroke="rgb(0, 0, 255)" stroke-width="3.30" stroke-opacity="1.00" stroke-linejoin="round"/>
<path d="M460.30,286.20 C459.69,286.78 458.60,288.09 457.61,289.28 C454.44,292.84 445.80,304.37 443.47,306.89 C438.52,312.36 433.64,320.27 431.04,326.10 C428.80,331.16 426.26,341.63 425.39,345.20 C428.41,344.90 443.45,345.37 450.75,345.86 C459.15,346.62 462.87,348.00 463.70,348.31 C461.55,349.98 443.92,363.37 441.94,364.70 C436.99,368.01 426.75,371.23 426.21,371.95 C427.26,374.42 437.35,385.05 440.77,386.63 C443.71,387.95 451.88,388.48 454.43,389.26 C457.33,390.19 460.21,393.16 460.05,394.57 C459.75,396.16 454.92,398.75 452.61,399.31 C450.26,399.85 442.60,400.86 440.77,400.89 C437.63,400.93 429.29,399.62 428.44,399.62 C428.61,401.32 432.55,405.74 434.63,407.47 C434.78,407.59 437.84,410.02 439.13,411.06" fill="none" stroke="rgb(0, 0, 255)" stroke-width="3.30" stroke-opacity="1.00" stroke-linejoin="round"/>
</g>
</svg>
