<?xml version="1.0" encoding="UTF-8" standalone="no"?>
<!DOCTYPE svg PUBLIC "-//W3C//DTD SVG 1.1//EN" "http://www.w3.org/Graphics/SVG/1.1/DTD/svg11.dtd">
<svg width="128.40" height="181.68" viewBox="0.00 0.00 535.00 757.00" xmlns="http://www.w3.org/2000/svg" xmlns:xlink="http://www.w3.org/1999/xlink">
<g stroke-linecap="round" transform="translate(44.00, 155.00)" id="139-구름-1">
<path d="M33.59,-90.41 C33.59,-90.41 32.26,-90.41 32.26,-90.41 C31.78,-90.88 31.45,-95.81 30.76,-98.41 C30.41,-99.72 27.16,-106.87 26.04,-108.39 C24.58,-110.32 15.44,-116.21 14.07,-116.10 C12.41,-115.90 7.73,-111.61 5.84,-109.18 C2.57,-104.86 0.99,-99.62 -0.07,-94.37 C-0.35,-99.55 -0.70,-103.69 -1.22,-106.02 C-2.02,-109.39 -3.60,-112.96 -5.54,-114.38 C-6.10,-114.78 -8.66,-116.24 -9.30,-116.46 C-10.60,-116.85 -12.72,-116.38 -14.10,-115.31 C-15.31,-114.32 -18.13,-110.95 -19.05,-109.43 C-19.97,-107.84 -20.76,-105.14 -20.64,-104.05 C-20.45,-102.74 -16.25,-99.72 -16.03,-99.50 C-18.50,-99.98 -20.27,-100.19 -21.32,-99.98 C-23.72,-99.47 -27.64,-96.01 -28.32,-94.07 C-28.91,-92.21 -27.41,-87.79 -25.46,-85.50 C-23.48,-83.21 -16.21,-76.57 -15.17,-75.54 C-15.17,-75.54 -19.39,-74.15 -19.39,-74.15 C-19.68,-72.93 -19.54,-71.80 -18.75,-70.74 C-17.36,-68.91 -12.08,-64.99 -10.26,-64.87 C-9.79,-64.84 -9.22,-64.98 -8.55,-65.27 C-8.27,-65.40 -7.47,-65.79 -6.15,-66.46" fill="none" stroke="rgb(0, 255, 0)" stroke-width="3.30" stroke-opacity="1.00" stroke-linejoin="round"/>
<path d="M-4.19,-64.98 C-5.27,-63.95 -5.90,-62.34 -5.63,-60.59 C-5.08,-57.22 -3.04,-55.36 -1.77,-54.94 C2.79,-55.66 9.45,-62.07 10.12,-63.68 C9.54,-61.36 10.23,-55.34 11.37,-53.06 C11.67,-52.50 12.81,-51.37 13.31,-51.14 C14.67,-50.60 16.98,-50.43 18.39,-50.93 C20.98,-51.90 26.27,-57.05 27.29,-57.91 C27.29,-57.91 27.62,-56.86 27.62,-56.86" fill="none" stroke="rgb(0, 255, 0)" stroke-width="3.30" stroke-opacity="1.00" stroke-linejoin="round"/>
<path d="M29.10,-56.01 C29.10,-56.01 27.23,-55.94 27.23,-55.94 C27.66,-53.32 30.69,-46.93 31.30,-46.30 C31.33,-46.28 34.63,-44.15 35.42,-43.83 C36.97,-44.14 40.93,-47.31 42.31,-49.51 C43.60,-51.62 43.84,-53.79 43.83,-54.89 C45.11,-50.93 46.44,-48.25 47.56,-47.77 C48.61,-47.41 51.43,-48.53 53.58,-50.48 C56.38,-53.07 65.42,-65.22 65.81,-66.71 C66.04,-67.73 65.50,-69.72 64.75,-70.67 C63.81,-71.78 61.39,-73.13 59.78,-73.38 C56.45,-73.83 53.72,-72.12 53.07,-71.27 C53.97,-71.18 56.00,-76.62 56.29,-79.87 C56.70,-85.15 53.51,-96.82 51.48,-101.01 C50.32,-103.36 48.28,-105.41 46.76,-105.70 C45.22,-105.94 41.53,-105.15 39.51,-103.98 C37.28,-102.61 36.14,-100.23 34.81,-97.19" fill="none" stroke="rgb(0, 255, 0)" stroke-width="3.30" stroke-opacity="1.00" stroke-linejoin="round"/>
</g>
</svg>
