<?xml version="1.0" encoding="UTF-8" standalone="no"?>
<!DOCTYPE svg PUBLIC "-//W3C//DTD SVG 1.1//EN" "http://www.w3.org/Graphics/SVG/1.1/DTD/svg11.dtd">
<svg width="128.40" height="181.68" viewBox="0.00 0.00 535.00 757.00" xmlns="http://www.w3.org/2000/svg" xmlns:xlink="http://www.w3.org/1999/xlink">
<g stroke-linecap="round" transform="translate(44.00, 155.00)" id="139-사람-5">
<path d="M287.09,455.11 C287.09,455.11 287.09,454.67 287.09,454.67 C285.98,453.71 281.01,453.26 278.93,453.62 C276.87,454.01 273.88,455.16 272.52,456.17 C271.08,457.31 269.89,459.70 269.67,461.72 C269.53,463.27 270.97,469.66 272.08,472.05 C273.38,474.79 276.21,478.23 278.28,479.28 C280.22,480.20 285.31,481.08 287.50,480.74 C288.84,480.50 291.70,479.43 292.84,478.67 C294.11,477.77 295.99,475.40 296.65,473.91 C297.63,471.57 297.89,465.11 297.16,462.40 C296.77,461.03 295.60,458.53 294.75,457.22 C293.65,455.63 292.00,454.38 290.08,453.72 C289.38,453.48 285.33,452.34 283.89,451.93" fill="none" stroke="rgb(255, 0, 255)" stroke-width="3.30" stroke-opacity="1.00" stroke-linejoin="round"/>
<path d="M276.48,463.51 C276.35,463.47 276.20,463.47 276.04,463.51 C275.87,463.55 275.46,463.70 274.81,463.95 C276.03,464.64 281.73,466.60 282.49,466.93 C282.98,467.14 283.79,467.54 284.93,468.15" fill="none" stroke="rgb(255, 0, 255)" stroke-width="3.30" stroke-opacity="1.00" stroke-linejoin="round"/>
<path d="M292.40,464.84 C292.40,464.84 292.17,464.84 292.17,464.84 C292.81,464.11 293.73,463.86 294.95,464.25 C295.20,464.33 295.61,464.50 296.18,464.75" fill="none" stroke="rgb(255, 0, 255)" stroke-width="3.30" stroke-opacity="1.00" stroke-linejoin="round"/>
<path d="M281.34,475.00 C281.34,475.00 278.83,475.18 278.83,475.18 C279.95,476.71 283.52,478.71 286.23,479.50 C288.56,480.13 290.85,479.66 293.72,478.98" fill="none" stroke="rgb(255, 0, 255)" stroke-width="3.30" stroke-opacity="1.00" stroke-linejoin="round"/>
<path d="M284.44,482.52 C284.44,482.52 282.45,482.74 282.45,482.74 C281.89,484.32 281.80,485.72 282.22,488.19 C283.20,493.81 284.27,498.16 285.42,500.03 C285.81,500.62 290.58,503.35 291.03,503.55 C292.69,504.20 297.78,503.60 299.87,501.81 C300.26,498.67 298.61,491.03 298.52,490.64 C297.80,487.79 295.80,484.03 294.89,482.41" fill="none" stroke="rgb(255, 0, 255)" stroke-width="3.30" stroke-opacity="1.00" stroke-linejoin="round"/>
<path d="M285.32,485.17 C284.79,485.32 284.25,485.60 284.06,485.61 C281.01,485.67 276.38,486.51 274.57,487.80 C273.74,488.45 273.31,490.62 273.49,492.44 C273.77,494.84 274.54,497.12 275.54,498.96 C277.33,499.53 278.51,499.59 279.89,498.99 C282.16,498.02 287.77,494.99 290.59,493.44" fill="none" stroke="rgb(255, 0, 255)" stroke-width="3.30" stroke-opacity="1.00" stroke-linejoin="round"/>
<path d="M299.03,479.43 C299.03,479.43 295.99,479.43 295.99,479.43 C298.11,479.31 303.79,478.24 305.03,478.28 C306.05,478.34 307.30,479.11 307.68,479.93 C309.30,483.72 307.49,491.02 306.93,491.83 C306.01,491.90 304.24,491.47 302.96,491.14 C302.18,490.99 297.92,490.61 296.37,490.48" fill="none" stroke="rgb(255, 0, 255)" stroke-width="3.30" stroke-opacity="1.00" stroke-linejoin="round"/>
<path d="M281.79,501.97 C281.79,501.97 279.80,501.09 279.80,501.09 C279.28,502.32 279.05,507.51 280.06,509.06 C280.62,509.87 282.39,510.81 283.38,510.90 C283.95,510.94 285.29,510.49 287.75,509.58" fill="none" stroke="rgb(255, 0, 255)" stroke-width="3.30" stroke-opacity="1.00" stroke-linejoin="round"/>
<path d="M290.63,506.83 C290.63,506.83 288.86,507.78 288.86,507.78 C290.55,508.94 295.17,509.65 297.27,508.89 C299.66,507.93 301.41,505.60 301.33,504.95 C300.91,504.52 300.54,504.13 300.23,503.77 C299.93,503.42 299.26,502.60 298.22,501.32" fill="none" stroke="rgb(255, 0, 255)" stroke-width="3.30" stroke-opacity="1.00" stroke-linejoin="round"/>
<path d="M291.51,510.37 C291.51,510.37 288.44,510.37 288.44,510.37 C287.27,511.37 289.71,521.52 290.80,525.17 C291.33,526.92 292.05,527.72 293.39,528.37 C293.39,528.37 302.33,521.54 302.33,521.54 C302.33,521.54 296.60,506.90 296.60,506.90" fill="none" stroke="rgb(255, 0, 255)" stroke-width="3.30" stroke-opacity="1.00" stroke-linejoin="round"/>
<path d="M278.69,510.37 C278.69,510.37 278.03,510.59 278.03,510.59 C277.45,511.57 277.35,514.60 277.42,519.87 C277.51,523.53 277.69,526.30 278.62,529.22 C281.61,528.94 283.36,528.30 285.22,526.56 C288.08,523.88 290.29,522.26 291.18,521.65" fill="none" stroke="rgb(255, 0, 255)" stroke-width="3.30" stroke-opacity="1.00" stroke-linejoin="round"/>
</g>
</svg>
