<?xml version="1.0" encoding="UTF-8" standalone="no"?>
<!DOCTYPE svg PUBLIC "-//W3C//DTD SVG 1.1//EN" "http://www.w3.org/Graphics/SVG/1.1/DTD/svg11.dtd">
<svg width="128.40" height="181.68" viewBox="0.00 0.00 535.00 757.00" xmlns="http://www.w3.org/2000/svg" xmlns:xlink="http://www.w3.org/1999/xlink">
<g stroke-linecap="round" transform="translate(44.00, 155.00)" id="139-번개-6">
<path d="M274.08,70.36 C274.08,70.36 272.12,70.36 272.12,70.36 C273.77,71.88 277.77,75.50 279.33,76.70 C281.54,78.38 285.70,80.03 288.38,80.24 C290.85,80.40 294.90,79.93 299.60,79.24 C304.95,78.46 309.13,78.52 311.65,80.07 C313.35,81.17 318.29,87.34 320.66,90.31 C322.98,93.28 325.51,96.87 325.53,98.05 C324.37,99.48 306.68,112.08 304.44,113.94 C299.09,118.62 287.53,128.61 282.02,131.49 C280.46,132.31 275.82,134.53 274.91,135.54 C277.20,136.96 292.53,139.11 295.04,139.19 C298.93,139.30 319.18,138.80 326.94,138.60 C335.66,138.51 342.85,139.92 343.77,140.70 C338.35,140.79 322.72,143.07 319.31,143.92 C314.31,145.18 303.34,149.92 299.03,152.84 C297.36,153.97 296.66,154.72 296.29,155.60 C297.63,157.40 311.35,157.95 321.67,157.75 C333.42,157.39 342.07,157.85 348.88,159.45 C351.65,160.11 367.14,164.64 369.06,165.80 C371.79,167.51 373.21,169.38 373.68,170.20 C372.44,170.61 366.98,171.23 363.69,172.40 C356.21,175.04 346.60,179.45 337.20,184.15 C331.09,187.35 318.69,194.14 315.64,196.25 C311.83,198.98 308.98,201.54 308.54,203.77 C309.08,205.21 312.62,206.65 315.67,207.24 C317.00,207.48 336.82,210.62 340.18,211.71 C348.71,214.50 364.61,222.30 365.61,222.98 C372.63,227.84 374.85,231.32 375.00,231.71 C370.37,232.19 358.13,236.66 351.70,239.80 C338.72,246.37 314.73,258.71 311.35,261.20 C311.60,261.47 349.87,277.12 360.01,281.76 C365.82,284.55 385.17,293.68 387.20,295.09 C385.66,296.56 373.53,302.77 364.06,308.85 C356.79,313.64 336.82,328.64 334.34,330.77 C336.80,332.10 341.46,332.63 344.46,332.81 C350.85,333.15 364.34,331.90 368.85,331.09 C378.79,329.18 387.73,327.82 394.38,327.75 C396.32,327.74 397.94,327.98 400.02,328.51 C399.30,329.49 386.17,339.68 381.12,343.76 C369.92,352.59 360.70,357.24 349.39,362.39 C346.10,363.95 341.25,368.51 341.39,369.46 C343.43,371.07 352.40,372.20 365.38,373.23 C377.50,374.23 383.80,375.59 389.27,378.16 C393.60,380.18 400.94,383.00 401.11,383.08 C404.07,384.47 405.90,387.25 406.53,388.80 C405.22,390.38 403.28,390.90 402.56,391.03 C398.56,391.77 389.40,397.21 381.58,402.64 C379.21,404.29 367.67,412.83 367.15,413.04 C365.92,413.52 360.61,413.63 358.72,413.70" fill="none" stroke="rgb(0, 0, 255)" stroke-width="3.30" stroke-opacity="1.00" stroke-linejoin="round"/>
</g>
</svg>
