<?xml version="1.0" encoding="UTF-8" standalone="no"?>
<!DOCTYPE svg PUBLIC "-//W3C//DTD SVG 1.1//EN" "http://www.w3.org/Graphics/SVG/1.1/DTD/svg11.dtd">
<svg width="128.40" height="181.68" viewBox="0.00 0.00 535.00 757.00" xmlns="http://www.w3.org/2000/svg" xmlns:xlink="http://www.w3.org/1999/xlink">
<g stroke-linecap="round" transform="translate(44.00, 155.00)" id="139-번개-2">
<path d="M19.61,50.78 C18.64,51.52 16.52,52.16 16.17,52.26 C16.08,52.28 16.01,52.32 15.96,52.37 C17.77,51.60 18.78,51.34 19.66,51.66 C21.34,52.27 27.93,55.35 31.21,56.90 C35.62,58.95 36.95,59.29 41.16,59.06 C44.51,58.84 51.69,58.35 53.60,58.68 C56.03,59.16 58.49,61.41 59.27,62.73 C58.69,66.50 52.09,81.24 48.30,87.33 C46.13,90.79 37.04,102.44 36.07,105.22 C37.93,105.69 44.30,105.83 47.14,106.68 C50.46,107.69 52.90,109.47 53.58,110.15 C48.89,112.04 29.75,123.46 28.15,124.36 C22.92,127.32 14.76,131.03 14.65,131.24 C15.30,131.77 35.13,138.48 36.72,139.11 C40.44,140.58 59.69,150.89 60.35,151.28 C60.35,151.28 23.48,157.54 23.48,157.54 C24.23,159.92 33.77,170.23 39.37,175.04 C42.22,177.47 52.20,185.03 53.56,186.60 C47.78,187.00 34.10,188.02 27.13,188.70 C22.81,189.23 21.71,189.56 19.82,190.34 C19.82,190.34 15.72,192.67 15.72,192.67 C17.51,193.92 31.06,199.99 35.57,202.39 C38.33,203.87 44.59,208.03 46.55,209.66 C48.73,211.49 55.89,218.76 57.14,219.92 C60.67,223.22 65.43,226.32 65.50,226.39 C60.86,227.09 44.31,226.35 38.09,225.20 C34.87,224.59 29.37,222.71 27.69,221.30 C33.65,224.76 46.18,232.09 52.74,235.97 C58.08,239.17 73.15,247.38 77.32,250.78 C79.47,252.55 85.06,258.39 87.55,261.34 C88.96,263.01 89.47,263.97 89.61,264.91 C88.50,266.18 70.23,276.80 67.10,278.27 C56.62,283.15 36.17,286.84 32.81,286.73 C32.73,286.84 48.10,294.34 54.66,298.18 C60.97,301.88 73.35,311.19 76.13,313.11 C78.97,315.06 88.57,321.05 89.51,321.69 C92.04,323.42 96.02,327.46 96.62,328.17 C99.33,331.45 99.43,333.35 99.02,334.48 C97.02,335.97 93.54,337.31 90.61,337.91 C85.43,338.91 70.56,338.59 61.94,337.28 C34.69,332.68 32.17,332.37 30.80,332.25 C30.77,332.24 37.77,333.88 41.17,335.04 C47.94,337.38 61.50,342.89 67.64,345.63 C73.84,348.63 87.10,355.19 94.17,358.76 C100.18,361.95 111.36,369.64 115.16,372.93 C120.05,377.23 129.60,389.69 131.11,392.77 C129.78,394.39 128.12,395.22 125.37,395.52 C120.56,396.04 106.22,396.51 98.54,396.60 C90.11,396.57 74.07,395.04 67.93,393.76 C63.11,392.74 50.14,388.63 48.58,387.95 C48.52,387.92 59.77,391.55 70.38,394.36 C77.86,396.33 92.97,400.42 98.38,402.65 C101.15,403.80 107.37,406.85 107.73,406.98 C108.11,407.12 108.72,407.24 109.55,407.35" fill="none" stroke="rgb(0, 0, 255)" stroke-width="3.30" stroke-opacity="1.00" stroke-linejoin="round"/>
</g>
</svg>
