<?xml version="1.0" encoding="UTF-8" standalone="no"?>
<!DOCTYPE svg PUBLIC "-//W3C//DTD SVG 1.1//EN" "http://www.w3.org/Graphics/SVG/1.1/DTD/svg11.dtd">
<svg width="128.40" height="181.68" viewBox="0.00 0.00 535.00 757.00" xmlns="http://www.w3.org/2000/svg" xmlns:xlink="http://www.w3.org/1999/xlink">
<g stroke-linecap="round" transform="translate(44.00, 155.00)" id="139-사람-8">
<path d="M421.04,459.97 C421.07,460.26 420.97,460.79 420.82,461.08 C420.78,461.16 420.70,461.23 420.60,461.30 C420.39,460.20 417.95,458.49 412.06,455.21 C410.11,454.16 408.87,453.73 407.77,453.62 C406.38,454.65 405.40,460.45 405.43,463.41 C405.50,466.20 406.69,472.07 407.50,473.63 C408.53,475.52 410.14,477.61 411.05,478.17 C412.88,479.23 416.37,479.52 418.07,479.06 C419.85,478.55 422.63,475.84 423.04,474.25 C423.90,470.72 422.95,465.15 422.55,463.82 C422.15,462.53 421.31,461.01 420.43,459.96 C419.98,459.44 417.79,457.19 416.62,456.00" fill="none" stroke="rgb(255, 0, 255)" stroke-width="3.30" stroke-opacity="1.00" stroke-linejoin="round"/>
<path d="M410.43,463.07 C411.32,463.12 412.93,463.59 414.77,464.39 C415.18,464.57 415.78,464.85 416.57,465.25" fill="none" stroke="rgb(255, 0, 255)" stroke-width="3.30" stroke-opacity="1.00" stroke-linejoin="round"/>
<path d="M413.97,471.47 C413.97,471.47 412.86,471.69 412.86,471.69 C412.86,471.69 412.64,472.13 412.64,472.13 C413.38,473.94 419.96,474.57 420.67,474.46 C421.14,474.39 422.15,474.13 423.69,473.68" fill="none" stroke="rgb(255, 0, 255)" stroke-width="3.30" stroke-opacity="1.00" stroke-linejoin="round"/>
<path d="M412.20,479.43 C411.98,479.54 411.76,484.09 412.87,486.38 C413.84,488.29 416.54,489.59 418.68,489.16 C420.51,488.74 423.40,486.85 423.91,485.81 C424.12,485.35 424.31,482.36 424.01,481.89 C423.76,481.50 422.95,480.54 421.59,478.98" fill="none" stroke="rgb(255, 0, 255)" stroke-width="3.30" stroke-opacity="1.00" stroke-linejoin="round"/>
<path d="M414.41,481.64 C413.68,481.63 411.29,481.66 410.92,481.64 C410.37,481.60 407.43,481.12 406.93,481.26 C406.62,481.35 406.07,481.69 405.26,482.27 C404.71,483.66 405.25,486.32 406.53,487.04 C407.75,487.67 412.38,486.40 414.85,485.61" fill="none" stroke="rgb(255, 0, 255)" stroke-width="3.30" stroke-opacity="1.00" stroke-linejoin="round"/>
<path d="M425.46,478.10 C425.46,478.10 424.25,478.10 424.25,478.10 C425.49,478.10 427.91,478.05 428.41,478.16 C429.73,478.46 430.60,480.16 430.69,482.25 C430.71,483.13 430.41,483.92 429.98,484.70 C429.18,485.20 428.50,485.42 427.92,485.38 C427.35,485.34 426.09,484.98 424.13,484.29" fill="none" stroke="rgb(255, 0, 255)" stroke-width="3.30" stroke-opacity="1.00" stroke-linejoin="round"/>
<path d="M414.85,488.27 C413.43,489.78 412.98,490.83 413.21,493.83 C413.38,495.57 413.84,497.58 414.43,498.88 C415.07,500.21 416.82,501.97 417.88,502.31 C418.98,502.61 421.26,502.03 422.42,501.17 C423.43,500.38 425.57,497.76 426.12,496.65 C426.41,496.05 427.20,493.38 427.59,492.10" fill="none" stroke="rgb(255, 0, 255)" stroke-width="3.30" stroke-opacity="1.00" stroke-linejoin="round"/>
<path d="M420.60,498.43 C418.83,498.40 417.73,498.40 417.31,498.43 C416.44,498.52 414.70,499.69 414.43,500.46 C413.86,502.25 414.69,509.32 415.08,512.04 C415.33,513.66 415.85,514.49 416.97,515.34 C419.86,514.02 423.37,511.06 423.37,509.90 C423.33,508.88 422.19,502.92 421.92,501.53" fill="none" stroke="rgb(255, 0, 255)" stroke-width="3.30" stroke-opacity="1.00" stroke-linejoin="round"/>
<path d="M423.25,501.53 C423.19,501.55 423.12,501.62 423.03,501.75 C422.94,501.88 422.72,502.23 422.37,502.81 C422.37,502.81 425.89,514.32 425.89,514.32 C426.65,514.54 427.31,514.56 427.97,514.10 C429.26,513.16 431.23,510.93 431.63,509.71 C433.14,504.64 428.02,496.94 427.63,496.62 C427.63,496.62 425.02,496.67 425.02,496.67" fill="none" stroke="rgb(255, 0, 255)" stroke-width="3.30" stroke-opacity="1.00" stroke-linejoin="round"/>
</g>
</svg>
