<?xml version="1.0" encoding="UTF-8" standalone="no"?>
<!DOCTYPE svg PUBLIC "-//W3C//DTD SVG 1.1//EN" "http://www.w3.org/Graphics/SVG/1.1/DTD/svg11.dtd">
<svg width="64.20" height="90.84" viewBox="0.00 0.00 535.00 757.00" xmlns="http://www.w3.org/2000/svg" xmlns:xlink="http://www.w3.org/1999/xlink">
<g stroke-linecap="round" transform="translate(44.00, 155.00)" id="14-자갈_">
<path d="M-16.52,393.32 C-16.52,393.32 -16.87,393.41 -16.87,393.41 C-18.22,395.31 -18.12,402.08 -17.23,403.33 C-17.23,403.33 -15.95,403.80 -15.95,403.80 C-14.59,402.55 -13.85,399.74 -13.74,398.23 C-13.62,396.40 -14.31,394.38 -14.65,393.97 C-14.65,393.97 -14.95,395.27 -14.95,395.27" fill="none" stroke="rgb(51, 153, 67)" stroke-width="2.59" stroke-opacity="1.00" stroke-linejoin="round"/>
<path d="M-11.67,412.91 C-13.63,413.51 -13.62,416.25 -13.45,417.51 C-12.79,418.20 -11.92,418.63 -11.13,418.47 C-10.39,418.31 -9.76,417.58 -9.40,416.69 C-9.40,416.69 -11.43,415.82 -11.43,415.82" fill="none" stroke="rgb(51, 153, 67)" stroke-width="2.59" stroke-opacity="1.00" stroke-linejoin="round"/>
<path d="M-11.67,438.05 C-11.67,438.05 -12.27,437.96 -12.27,437.96 C-13.56,438.65 -14.49,441.53 -14.69,443.15 C-14.93,445.08 -14.75,448.47 -14.56,449.25 C-14.10,450.94 -12.50,452.33 -11.22,452.31 C-9.82,452.23 -7.09,449.94 -6.09,447.77 C-5.23,445.85 -4.76,442.49 -4.86,441.64 C-5.14,439.81 -6.66,437.85 -7.86,437.41 C-8.90,437.06 -9.97,437.40 -10.60,437.71" fill="none" stroke="rgb(51, 153, 67)" stroke-width="2.59" stroke-opacity="1.00" stroke-linejoin="round"/>
<path d="M20.93,434.41 C20.53,434.35 19.06,434.82 18.24,435.85 C17.39,436.96 15.91,440.20 15.66,441.72 C15.42,443.35 16.03,446.43 16.97,447.78 C18.02,449.23 20.96,450.33 22.70,449.78 C24.50,449.17 28.60,445.46 30.27,443.14 C32.65,439.80 33.45,436.20 32.91,435.22 C32.43,434.41 30.98,433.85 30.02,433.56" fill="none" stroke="rgb(51, 153, 67)" stroke-width="2.59" stroke-opacity="1.00" stroke-linejoin="round"/>
<path d="M80.22,426.44 C78.73,427.40 77.28,429.01 76.38,430.86 C75.57,432.54 74.90,435.31 74.90,436.14 C74.94,437.98 76.50,439.99 77.88,440.21 C79.36,440.38 82.84,438.52 84.06,436.72 C85.18,435.01 85.87,431.63 85.56,430.09 C85.24,428.63 84.01,426.78 83.44,426.12 C83.30,425.96 83.15,425.83 82.98,425.72" fill="none" stroke="rgb(51, 153, 67)" stroke-width="2.59" stroke-opacity="1.00" stroke-linejoin="round"/>
<path d="M112.12,446.55 C112.12,446.55 112.03,446.46 112.03,446.46 C111.04,447.83 110.39,452.69 110.70,453.89 C110.86,454.48 111.28,454.96 111.81,455.31 C113.10,455.33 113.78,455.19 114.18,454.70 C115.67,452.83 116.24,446.13 115.69,445.65 C115.69,445.65 115.60,446.62 115.60,446.62" fill="none" stroke="rgb(51, 153, 67)" stroke-width="2.59" stroke-opacity="1.00" stroke-linejoin="round"/>
<path d="M117.32,480.01 C116.75,480.55 116.26,481.80 116.37,484.80 C116.45,486.49 117.07,487.55 117.87,488.56 C119.44,488.35 120.08,487.93 120.16,486.89 C120.20,486.24 120.21,485.83 120.18,485.65 C120.14,485.45 120.00,485.06 119.76,484.49" fill="none" stroke="rgb(51, 153, 67)" stroke-width="2.59" stroke-opacity="1.00" stroke-linejoin="round"/>
<path d="M148.75,390.26 C148.18,389.99 147.03,389.20 146.22,388.63 C145.36,388.06 143.15,388.05 142.88,388.12 C142.55,389.09 142.57,390.10 143.09,391.13 C144.14,393.13 147.17,394.65 148.64,394.28 C148.88,392.88 148.75,392.07 148.09,391.43 C147.65,391.02 146.43,390.14 145.62,389.56" fill="none" stroke="rgb(51, 153, 67)" stroke-width="2.59" stroke-opacity="1.00" stroke-linejoin="round"/>
<path d="M154.00,440.33 C151.78,440.32 150.60,440.36 150.06,440.58 C148.53,441.21 147.05,443.83 147.59,445.05 C151.15,446.09 153.23,441.07 153.33,440.28 C153.33,440.28 152.48,439.74 152.48,439.74" fill="none" stroke="rgb(51, 153, 67)" stroke-width="2.59" stroke-opacity="1.00" stroke-linejoin="round"/>
<path d="M208.22,427.88 C208.22,427.88 207.95,427.88 207.95,427.88 C206.65,428.41 205.43,438.52 205.72,439.50 C206.15,440.80 207.62,442.32 208.74,442.44 C210.60,442.60 213.04,440.22 213.82,438.83 C214.55,437.50 215.89,433.48 215.67,431.46 C215.54,430.46 214.39,429.26 212.85,428.26 C212.57,428.09 212.04,427.78 211.27,427.33" fill="none" stroke="rgb(51, 153, 67)" stroke-width="2.59" stroke-opacity="1.00" stroke-linejoin="round"/>
</g>
</svg>
