<?xml version="1.0" encoding="UTF-8" standalone="no"?>
<!DOCTYPE svg PUBLIC "-//W3C//DTD SVG 1.1//EN" "http://www.w3.org/Graphics/SVG/1.1/DTD/svg11.dtd">
<svg width="64.20" height="90.84" viewBox="0.00 0.00 535.00 757.00" xmlns="http://www.w3.org/2000/svg" xmlns:xlink="http://www.w3.org/1999/xlink">
<g stroke-linecap="round" transform="translate(44.00, 155.00)" id="14-그네">
<path d="M277.89,301.99 C277.89,301.99 277.57,301.94 277.57,301.94 C277.57,301.89 272.68,314.20 271.45,318.38 C269.72,324.32 268.20,332.01 265.73,343.54 C264.23,350.95 261.04,361.19 260.33,366.39 C259.39,372.86 257.30,388.91 257.11,392.59 C256.79,399.00 257.91,428.41 258.19,429.52 C258.19,429.52 259.10,429.73 259.10,429.73" fill="none" stroke="rgb(230, 57, 239)" stroke-width="2.59" stroke-opacity="1.00" stroke-linejoin="round"/>
<path d="M277.89,301.83 C277.89,301.83 277.57,301.43 277.57,301.43 C277.57,301.43 277.57,301.35 277.57,301.35 C277.58,311.02 275.13,339.54 276.02,346.94 C276.19,348.34 278.30,360.40 278.62,365.78 C278.97,371.82 281.50,390.25 281.57,390.74 C282.84,399.84 288.52,418.09 289.27,419.80 C289.27,419.80 289.76,420.08 289.76,420.08" fill="none" stroke="rgb(230, 57, 239)" stroke-width="2.59" stroke-opacity="1.00" stroke-linejoin="round"/>
<path d="M275.46,300.38 C277.72,300.19 282.22,300.24 283.08,300.43 C286.28,301.19 289.34,301.51 291.23,301.30 C296.44,300.70 323.65,294.98 340.47,289.93 C345.46,288.53 352.67,287.24 357.69,286.66 C357.69,286.66 357.56,286.49 357.56,286.49" fill="none" stroke="rgb(230, 57, 239)" stroke-width="2.59" stroke-opacity="1.00" stroke-linejoin="round"/>
<path d="M324.32,290.35 C324.33,290.36 324.47,290.33 324.72,290.27 C325.98,289.92 327.75,289.45 328.81,289.21 C334.73,287.93 349.70,284.90 352.84,284.46 C375.42,281.81 389.01,281.13 393.51,281.31 C393.51,281.31 393.31,281.78 393.31,281.78" fill="none" stroke="rgb(230, 57, 239)" stroke-width="2.59" stroke-opacity="1.00" stroke-linejoin="round"/>
<path d="M390.32,285.33 C389.75,285.57 388.58,287.22 388.01,289.58 C387.10,294.34 383.11,310.78 382.74,312.81 C382.71,312.99 380.86,327.62 379.80,331.94 C376.26,346.25 371.38,368.19 370.55,377.22 C370.17,381.46 370.42,394.21 370.45,394.80 C370.45,394.80 370.92,395.18 370.92,395.18" fill="none" stroke="rgb(230, 57, 239)" stroke-width="2.59" stroke-opacity="1.00" stroke-linejoin="round"/>
<path d="M393.07,293.58 C393.07,293.58 392.50,293.58 392.50,293.58 C392.28,293.98 395.02,311.53 395.19,312.39 C395.47,313.77 399.20,327.87 399.93,333.08 C400.52,337.43 400.85,347.57 400.82,357.34 C400.83,360.86 401.69,369.09 401.77,372.39 C401.93,379.97 401.09,384.85 400.55,385.74 C400.55,385.74 398.79,385.84 398.79,385.84" fill="none" stroke="rgb(230, 57, 239)" stroke-width="2.59" stroke-opacity="1.00" stroke-linejoin="round"/>
<path d="M354.24,293.91 C354.27,294.11 353.62,295.93 353.37,296.68 C352.15,300.22 351.09,308.31 350.67,316.70 C348.04,357.08 349.41,369.87 349.36,370.09 C348.58,370.33 346.30,372.04 345.49,373.35 C344.87,374.37 343.63,378.03 343.42,380.30 C343.25,382.35 344.12,384.16 344.85,384.34 C345.55,384.45 354.66,380.53 357.00,379.87 C358.94,379.42 361.31,378.86 362.49,378.46" fill="none" stroke="rgb(230, 57, 239)" stroke-width="2.59" stroke-opacity="1.00" stroke-linejoin="round"/>
<path d="M363.79,303.94 C363.78,309.87 363.71,319.76 363.22,329.71 C363.00,335.49 362.44,354.13 362.31,356.31 C362.15,358.64 360.46,373.93 360.07,379.48 C360.06,379.58 360.04,379.90 360.07,379.79" fill="none" stroke="rgb(230, 57, 239)" stroke-width="2.59" stroke-opacity="1.00" stroke-linejoin="round"/>
<path d="M307.66,297.95 C307.66,297.95 307.66,297.79 307.66,297.79 C307.69,297.85 307.78,299.65 307.80,300.99 C307.81,302.68 306.30,317.54 306.21,322.75 C306.10,330.06 304.85,343.06 305.48,347.98 C306.66,356.78 308.74,368.70 308.84,369.16 C309.54,372.37 312.06,381.32 312.00,381.64 C311.64,381.85 307.38,383.73 306.13,384.89 C305.65,385.34 304.55,387.22 304.37,388.63 C304.26,389.59 304.96,393.36 305.90,395.01 C306.69,396.36 308.16,397.25 308.80,397.26 C309.70,397.24 323.41,391.03 324.73,390.49 C326.45,389.80 331.18,389.72 332.48,389.66 C333.72,389.61 335.36,388.97 335.96,387.96 C336.52,386.93 336.82,382.08 336.27,379.44 C335.90,377.76 334.02,373.93 332.47,372.52 C330.32,370.70 327.74,368.16 326.58,367.02" fill="none" stroke="rgb(230, 57, 239)" stroke-width="2.59" stroke-opacity="1.00" stroke-linejoin="round"/>
<path d="M326.91,303.77 C327.10,306.36 327.51,312.14 327.55,314.99 C327.56,315.80 328.50,354.88 327.86,362.00 C327.42,367.04 327.56,371.96 327.56,372.49 C327.56,372.49 327.87,372.68 327.87,372.68" fill="none" stroke="rgb(230, 57, 239)" stroke-width="2.59" stroke-opacity="1.00" stroke-linejoin="round"/>
<path d="M337.91,395.01 C337.91,395.01 336.03,394.90 336.03,394.90 C335.06,395.60 333.23,399.69 332.86,401.29 C332.56,402.80 333.03,404.96 334.33,405.55 C335.37,405.99 339.83,405.95 341.45,405.30 C345.01,403.79 345.08,401.10 344.86,400.14 C344.86,400.14 341.09,398.05 341.09,398.05" fill="none" stroke="rgb(230, 57, 239)" stroke-width="2.59" stroke-opacity="1.00" stroke-linejoin="round"/>
<path d="M289.05,417.17 C289.24,416.28 291.26,414.21 292.36,413.65 C293.21,413.24 295.56,412.70 296.57,413.21 C297.57,413.75 298.51,417.01 298.17,418.31 C297.34,421.12 294.15,421.71 293.44,421.70 C293.44,421.70 292.35,419.30 292.35,419.30" fill="none" stroke="rgb(230, 57, 239)" stroke-width="2.59" stroke-opacity="1.00" stroke-linejoin="round"/>
<path d="M313.80,428.33 C313.80,428.33 312.02,431.98 312.02,431.98 C312.02,431.98 314.13,430.92 314.13,430.92" fill="none" stroke="rgb(230, 57, 239)" stroke-width="2.59" stroke-opacity="1.00" stroke-linejoin="round"/>
<path d="M333.21,429.79 C333.21,429.79 332.73,429.95 332.73,429.95 C332.63,429.82 337.97,431.34 339.12,431.54 C342.67,432.14 354.63,431.37 360.40,429.87 C364.25,428.85 367.77,427.76 368.55,427.52 C368.55,427.52 368.02,427.21 368.02,427.21" fill="none" stroke="rgb(230, 57, 239)" stroke-width="2.59" stroke-opacity="1.00" stroke-linejoin="round"/>
</g>
</svg>
