<?xml version="1.0" encoding="UTF-8" standalone="no"?>
<!DOCTYPE svg PUBLIC "-//W3C//DTD SVG 1.1//EN" "http://www.w3.org/Graphics/SVG/1.1/DTD/svg11.dtd">
<svg width="128.40" height="181.68" viewBox="0.00 0.00 535.00 757.00" xmlns="http://www.w3.org/2000/svg" xmlns:xlink="http://www.w3.org/1999/xlink">
<g stroke-linecap="round" transform="translate(44.00, 155.00)" id="140-비">
<path d="M3.74,72.99 C3.04,74.29 0.44,83.68 -0.18,84.94 C-0.31,85.20 -0.60,85.73 -1.05,86.52" fill="none" stroke="rgb(0, 255, 0)" stroke-width="2.40" stroke-opacity="1.00" stroke-linejoin="round"/>
<path d="M-14.50,72.99 C-14.50,72.99 -15.56,73.16 -15.56,73.16 C-16.35,74.49 -18.26,80.22 -19.44,83.72 C-22.28,92.05 -28.05,101.98 -30.52,106.07 C-30.52,106.07 -30.30,106.48 -30.30,106.48" fill="none" stroke="rgb(0, 255, 0)" stroke-width="2.40" stroke-opacity="1.00" stroke-linejoin="round"/>
<path d="M-30.42,64.84 C-30.80,65.50 -31.06,65.95 -31.19,66.20 C-32.37,68.40 -35.26,77.35 -35.35,77.73 C-35.39,77.93 -35.43,78.23 -35.46,78.63" fill="none" stroke="rgb(0, 255, 0)" stroke-width="2.40" stroke-opacity="1.00" stroke-linejoin="round"/>
<path d="M-27.70,111.03 C-29.71,112.47 -30.26,114.10 -31.11,117.60 C-31.86,121.08 -32.69,124.07 -33.46,126.13 C-34.34,128.36 -37.37,132.31 -38.18,132.91 C-38.41,133.07 -38.73,133.20 -39.16,133.29" fill="none" stroke="rgb(0, 255, 0)" stroke-width="2.40" stroke-opacity="1.00" stroke-linejoin="round"/>
<path d="M-18.39,115.68 C-18.98,116.03 -19.34,116.26 -19.47,116.38 C-19.85,116.73 -21.40,122.76 -22.84,126.02 C-24.50,129.76 -28.98,135.71 -30.02,136.89 C-30.49,137.43 -31.40,138.38 -32.74,139.76" fill="none" stroke="rgb(0, 255, 0)" stroke-width="2.40" stroke-opacity="1.00" stroke-linejoin="round"/>
<path d="M-4.41,110.64 C-5.53,111.84 -7.05,115.82 -8.16,118.20 C-10.17,122.47 -17.61,134.21 -19.53,137.19 C-19.89,137.73 -20.25,138.28 -20.62,138.82" fill="none" stroke="rgb(0, 255, 0)" stroke-width="2.40" stroke-opacity="1.00" stroke-linejoin="round"/>
<path d="M-33.52,161.87 C-33.93,162.71 -33.93,180.45 -35.16,186.34 C-35.74,189.08 -37.49,194.39 -38.49,196.32 C-38.64,196.59 -38.80,196.82 -38.98,196.99" fill="none" stroke="rgb(0, 255, 0)" stroke-width="2.40" stroke-opacity="1.00" stroke-linejoin="round"/>
<path d="M-29.25,171.57 C-28.94,172.98 -28.77,174.18 -28.67,175.94 C-28.46,179.61 -28.57,190.64 -28.66,191.43 C-28.72,191.91 -28.87,192.75 -29.13,193.93" fill="none" stroke="rgb(0, 255, 0)" stroke-width="2.40" stroke-opacity="1.00" stroke-linejoin="round"/>
<path d="M-21.49,164.58 C-22.30,165.98 -22.65,166.97 -22.65,168.17 C-22.65,169.18 -22.34,177.65 -22.34,179.13 C-22.35,182.52 -22.89,188.24 -23.34,190.68 C-23.40,191.01 -23.54,191.69 -23.75,192.72" fill="none" stroke="rgb(0, 255, 0)" stroke-width="2.40" stroke-opacity="1.00" stroke-linejoin="round"/>
<path d="M-16.06,165.75 C-16.06,165.75 -16.64,165.90 -16.64,165.90 C-16.86,166.87 -16.85,172.62 -16.85,176.04 C-16.90,179.43 -16.96,184.74 -16.99,185.34 C-17.02,185.83 -17.09,186.92 -17.22,188.62" fill="none" stroke="rgb(0, 255, 0)" stroke-width="2.40" stroke-opacity="1.00" stroke-linejoin="round"/>
<path d="M0.24,136.25 C0.24,136.25 0.63,135.47 0.63,135.47 C0.48,141.80 -10.58,155.81 -12.59,157.76 C-13.38,158.52 -15.52,160.42 -16.31,161.11" fill="none" stroke="rgb(0, 255, 0)" stroke-width="2.40" stroke-opacity="1.00" stroke-linejoin="round"/>
<path d="M10.33,141.68 C10.33,141.68 11.11,140.91 11.11,140.91 C11.04,140.87 10.78,141.36 9.99,143.11 C6.62,150.30 -1.89,168.12 -2.85,169.84 C-3.54,171.08 -6.47,175.12 -9.04,177.12 C-9.04,177.12 -10.26,176.47 -10.26,176.47" fill="none" stroke="rgb(0, 255, 0)" stroke-width="2.40" stroke-opacity="1.00" stroke-linejoin="round"/>
<path d="M18.87,145.95 C18.87,145.95 18.13,145.95 18.13,145.95 C17.57,145.97 15.05,153.50 14.59,154.77 C13.56,157.58 11.08,163.43 9.97,165.57 C8.63,168.11 7.25,169.98 5.81,171.78" fill="none" stroke="rgb(0, 255, 0)" stroke-width="2.40" stroke-opacity="1.00" stroke-linejoin="round"/>
<path d="M11.11,173.12 C11.11,173.12 10.92,173.12 10.92,173.12 C10.66,173.33 10.43,173.84 9.83,175.62 C9.27,177.28 8.52,179.28 7.87,180.89 C7.62,181.50 7.37,182.10 7.12,182.71" fill="none" stroke="rgb(0, 255, 0)" stroke-width="2.40" stroke-opacity="1.00" stroke-linejoin="round"/>
<path d="M24.69,74.54 C23.37,77.28 22.42,79.73 21.23,83.66 C19.52,89.29 14.97,101.56 12.80,106.09 C10.35,111.14 3.86,120.88 3.05,122.03 C2.21,123.20 1.00,124.83 0.43,125.56" fill="none" stroke="rgb(0, 255, 0)" stroke-width="2.40" stroke-opacity="1.00" stroke-linejoin="round"/>
<path d="M35.56,91.23 C35.44,91.98 29.69,102.87 26.58,107.22 C25.28,109.01 21.42,113.62 20.43,114.80" fill="none" stroke="rgb(0, 255, 0)" stroke-width="2.40" stroke-opacity="1.00" stroke-linejoin="round"/>
<path d="M34.01,110.25 C34.23,110.91 34.36,111.33 34.39,111.52 C34.76,113.64 28.99,129.37 26.27,134.90 C25.59,136.26 22.71,141.50 22.19,142.45" fill="none" stroke="rgb(0, 255, 0)" stroke-width="2.40" stroke-opacity="1.00" stroke-linejoin="round"/>
<path d="M58.07,90.46 C57.37,91.96 55.45,97.68 54.45,100.65 C53.04,104.82 49.93,113.04 49.50,114.14 C49.26,114.74 49.02,115.34 48.79,115.94" fill="none" stroke="rgb(0, 255, 0)" stroke-width="2.40" stroke-opacity="1.00" stroke-linejoin="round"/>
<path d="M51.08,76.87 C50.58,77.42 50.23,77.94 50.02,78.43 C49.80,78.91 49.43,80.05 48.91,81.84" fill="none" stroke="rgb(0, 255, 0)" stroke-width="2.40" stroke-opacity="1.00" stroke-linejoin="round"/>
<path d="M59.23,77.26 C57.75,78.57 56.67,79.61 56.22,80.27 C55.98,80.64 54.66,83.01 54.19,83.86" fill="none" stroke="rgb(0, 255, 0)" stroke-width="2.40" stroke-opacity="1.00" stroke-linejoin="round"/>
<path d="M38.28,71.44 C38.28,71.44 38.08,71.44 38.08,71.44 C38.08,71.44 37.69,71.79 37.69,71.79 C37.69,71.79 37.50,73.38 37.50,73.38" fill="none" stroke="rgb(0, 255, 0)" stroke-width="2.40" stroke-opacity="1.00" stroke-linejoin="round"/>
<path d="M80.58,75.32 C79.61,75.51 78.11,75.84 77.86,76.16 C77.41,76.76 75.73,79.85 74.91,81.56 C74.54,82.33 73.33,85.13 72.89,86.14" fill="none" stroke="rgb(0, 255, 0)" stroke-width="2.40" stroke-opacity="1.00" stroke-linejoin="round"/>
<path d="M95.71,73.38 C94.89,74.09 94.37,74.57 94.16,74.84 C94.14,74.86 91.69,80.39 90.25,82.96 C88.48,86.09 86.91,88.39 85.13,90.85" fill="none" stroke="rgb(0, 255, 0)" stroke-width="2.40" stroke-opacity="1.00" stroke-linejoin="round"/>
<path d="M107.36,72.60 C107.36,72.60 106.31,72.76 106.31,72.76 C105.24,74.38 97.28,92.64 95.88,95.42 C94.62,97.88 92.74,100.51 89.93,104.16" fill="none" stroke="rgb(0, 255, 0)" stroke-width="2.40" stroke-opacity="1.00" stroke-linejoin="round"/>
<path d="M80.19,97.83 C80.00,98.32 77.06,105.18 74.33,111.56 C71.60,117.73 66.41,126.02 64.41,128.70 C64.11,129.10 63.67,129.66 63.10,130.38" fill="none" stroke="rgb(0, 255, 0)" stroke-width="2.40" stroke-opacity="1.00" stroke-linejoin="round"/>
<path d="M48.37,141.68 C46.86,143.51 42.11,152.48 41.33,153.78 C40.32,155.48 38.98,157.41 38.29,158.26" fill="none" stroke="rgb(0, 255, 0)" stroke-width="2.40" stroke-opacity="1.00" stroke-linejoin="round"/>
<path d="M48.75,163.81 C48.75,163.81 47.78,163.88 47.78,163.88 C47.34,164.56 45.64,169.33 44.03,172.91 C43.20,174.72 41.83,177.74 41.28,178.94" fill="none" stroke="rgb(0, 255, 0)" stroke-width="2.40" stroke-opacity="1.00" stroke-linejoin="round"/>
<path d="M71.26,157.21 C69.49,158.62 66.87,163.28 65.53,165.66 C64.16,168.08 61.00,172.78 58.85,175.29 C57.02,177.43 51.99,182.46 50.48,184.05 C49.97,184.58 49.46,185.12 48.96,185.65" fill="none" stroke="rgb(0, 255, 0)" stroke-width="2.40" stroke-opacity="1.00" stroke-linejoin="round"/>
<path d="M42.54,188.26 C41.33,189.61 40.65,190.59 39.97,192.12 C39.52,193.11 39.16,193.89 38.89,194.46 C38.52,195.25 37.44,197.40 37.06,198.15" fill="none" stroke="rgb(0, 255, 0)" stroke-width="2.40" stroke-opacity="1.00" stroke-linejoin="round"/>
<path d="M75.53,140.13 C73.35,140.88 71.33,142.85 69.00,146.25 C63.45,154.31 58.04,159.82 55.00,162.57" fill="none" stroke="rgb(0, 255, 0)" stroke-width="2.40" stroke-opacity="1.00" stroke-linejoin="round"/>
<path d="M108.52,95.89 C108.42,95.99 108.20,96.22 107.84,96.76 C106.83,98.30 105.39,100.48 104.60,101.55 C102.13,104.91 86.21,128.70 86.00,128.98 C85.79,129.24 85.40,129.65 84.85,130.21" fill="none" stroke="rgb(0, 255, 0)" stroke-width="2.40" stroke-opacity="1.00" stroke-linejoin="round"/>
<path d="M118.22,95.89 C114.50,105.86 111.49,112.38 106.88,118.58 C105.56,120.33 101.73,124.91 99.34,127.55 C95.82,131.39 92.44,134.71 89.65,137.17" fill="none" stroke="rgb(0, 255, 0)" stroke-width="2.40" stroke-opacity="1.00" stroke-linejoin="round"/>
<path d="M118.22,71.83 C118.22,71.83 117.14,72.02 117.14,72.02 C116.23,72.81 113.65,77.30 111.62,81.02 C110.95,82.27 109.81,84.41 109.33,85.30" fill="none" stroke="rgb(0, 255, 0)" stroke-width="2.40" stroke-opacity="1.00" stroke-linejoin="round"/>
<path d="M136.85,71.44 C136.13,71.82 135.71,72.05 135.58,72.13 C134.35,72.88 132.34,76.19 129.83,81.06 C129.20,82.27 128.82,83.06 128.67,83.42 C128.52,83.79 128.27,84.52 127.93,85.61" fill="none" stroke="rgb(0, 255, 0)" stroke-width="2.40" stroke-opacity="1.00" stroke-linejoin="round"/>
<path d="M139.96,74.54 C138.12,75.60 137.27,76.25 136.76,77.19 C133.86,82.52 128.72,91.85 124.49,98.12 C123.92,99.01 123.34,99.90 122.77,100.79" fill="none" stroke="rgb(0, 255, 0)" stroke-width="2.40" stroke-opacity="1.00" stroke-linejoin="round"/>
<path d="M139.57,95.89 C139.57,95.89 138.14,95.96 138.14,95.96 C137.38,96.72 121.66,123.60 120.89,125.32 C120.47,126.27 120.05,127.22 119.64,128.17" fill="none" stroke="rgb(0, 255, 0)" stroke-width="2.40" stroke-opacity="1.00" stroke-linejoin="round"/>
<path d="M119.39,119.18 C119.04,119.43 118.23,120.57 117.58,121.84 C117.33,122.33 114.15,129.49 112.40,132.42 C109.80,136.72 99.95,149.06 95.21,154.92 C93.19,157.35 90.88,159.69 90.08,160.44" fill="none" stroke="rgb(0, 255, 0)" stroke-width="2.40" stroke-opacity="1.00" stroke-linejoin="round"/>
<path d="M96.10,141.30 C96.10,141.30 95.97,140.52 95.97,140.52 C93.83,142.20 81.73,158.66 80.69,159.99 C79.60,161.38 75.78,165.91 75.22,166.29 C74.82,166.55 73.88,167.03 72.37,167.72" fill="none" stroke="rgb(0, 255, 0)" stroke-width="2.40" stroke-opacity="1.00" stroke-linejoin="round"/>
<path d="M82.13,165.75 C82.13,165.75 82.52,164.78 82.52,164.78 C82.52,164.78 82.32,164.73 82.32,164.73 C81.71,165.53 73.84,175.72 66.93,183.16 C61.57,188.73 53.83,196.71 51.44,199.11" fill="none" stroke="rgb(0, 255, 0)" stroke-width="2.40" stroke-opacity="1.00" stroke-linejoin="round"/>
<path d="M62.73,199.12 C61.76,199.78 61.40,200.28 61.07,201.63 C59.46,208.18 55.54,215.29 54.61,216.08 C54.37,216.28 53.91,216.50 53.22,216.74" fill="none" stroke="rgb(0, 255, 0)" stroke-width="2.40" stroke-opacity="1.00" stroke-linejoin="round"/>
<path d="M76.31,188.26 C76.26,188.80 76.19,189.19 76.11,189.42 C75.80,190.32 69.21,201.90 67.59,203.90 C67.28,204.28 66.77,204.83 66.08,205.54" fill="none" stroke="rgb(0, 255, 0)" stroke-width="2.40" stroke-opacity="1.00" stroke-linejoin="round"/>
<path d="M69.32,203.00 C69.32,203.00 69.52,203.00 69.52,203.00 C69.71,202.84 69.81,202.53 69.97,202.36 C71.76,200.51 76.17,197.19 77.42,196.26 C78.31,195.62 79.20,194.97 80.10,194.32" fill="none" stroke="rgb(0, 255, 0)" stroke-width="2.40" stroke-opacity="1.00" stroke-linejoin="round"/>
<path d="M67.77,206.50 C66.34,208.22 63.90,212.40 62.18,215.35 C58.84,221.09 55.95,225.62 55.08,226.46 C55.00,226.54 54.91,226.58 54.82,226.59" fill="none" stroke="rgb(0, 255, 0)" stroke-width="2.40" stroke-opacity="1.00" stroke-linejoin="round"/>
<path d="M76.31,209.60 C76.31,209.60 75.34,208.82 75.34,208.82 C74.87,209.32 67.20,221.66 63.00,226.86 C61.82,228.31 60.51,229.82 58.74,231.79" fill="none" stroke="rgb(0, 255, 0)" stroke-width="2.40" stroke-opacity="1.00" stroke-linejoin="round"/>
<path d="M78.25,229.01 C77.83,229.61 75.96,232.79 73.47,236.10 C71.77,238.33 67.49,242.86 65.68,244.53 C65.43,244.77 65.04,245.10 64.53,245.52" fill="none" stroke="rgb(0, 255, 0)" stroke-width="2.40" stroke-opacity="1.00" stroke-linejoin="round"/>
<path d="M100.37,196.02 C99.52,196.85 98.84,197.57 97.56,199.04 C93.55,203.63 85.72,212.34 82.06,216.17 C81.30,216.95 80.55,217.73 79.80,218.51" fill="none" stroke="rgb(0, 255, 0)" stroke-width="2.40" stroke-opacity="1.00" stroke-linejoin="round"/>
<path d="M103.48,204.56 C103.47,205.82 101.59,209.95 98.79,215.14 C96.34,219.64 90.31,226.84 88.28,228.28 C87.22,229.02 85.74,229.67 84.44,230.09" fill="none" stroke="rgb(0, 255, 0)" stroke-width="2.40" stroke-opacity="1.00" stroke-linejoin="round"/>
<path d="M134.52,153.33 C132.83,154.38 132.09,154.99 131.51,155.96 C128.46,161.06 117.80,174.51 115.41,176.43 C115.00,176.75 113.97,177.48 112.33,178.61" fill="none" stroke="rgb(0, 255, 0)" stroke-width="2.40" stroke-opacity="1.00" stroke-linejoin="round"/>
<path d="M135.30,133.53 C134.58,134.22 134.09,134.70 133.84,134.99 C131.01,138.82 125.84,145.37 119.47,151.88 C113.09,158.11 108.15,162.13 107.14,162.86 C106.77,163.13 106.06,163.62 105.01,164.33" fill="none" stroke="rgb(0, 255, 0)" stroke-width="2.40" stroke-opacity="1.00" stroke-linejoin="round"/>
<path d="M164.79,72.22 C164.54,71.97 164.34,71.77 164.21,71.63 C164.08,71.49 163.82,71.21 163.44,70.78 C162.20,72.81 160.65,76.88 159.51,79.12 C158.30,81.50 154.42,87.29 152.83,88.74 C152.47,89.07 151.69,89.70 150.51,90.65" fill="none" stroke="rgb(0, 255, 0)" stroke-width="2.40" stroke-opacity="1.00" stroke-linejoin="round"/>
<path d="M176.44,76.10 C176.08,76.68 175.82,77.10 175.66,77.36 C173.70,80.35 167.20,90.04 161.38,95.45 C158.70,97.91 149.15,105.12 145.84,107.59 C144.00,108.96 141.97,110.56 140.53,111.70" fill="none" stroke="rgb(0, 255, 0)" stroke-width="2.40" stroke-opacity="1.00" stroke-linejoin="round"/>
<path d="M195.84,72.99 C195.84,72.99 196.23,73.10 196.23,73.10 C193.84,77.19 181.56,91.76 180.74,92.67 C180.42,93.01 179.76,93.70 178.76,94.75" fill="none" stroke="rgb(0, 255, 0)" stroke-width="2.40" stroke-opacity="1.00" stroke-linejoin="round"/>
<path d="M209.04,87.35 C208.22,88.20 207.70,88.78 207.47,89.10 C207.32,89.30 204.75,94.43 202.57,98.40 C200.68,101.83 198.09,106.51 197.41,107.76" fill="none" stroke="rgb(0, 255, 0)" stroke-width="2.40" stroke-opacity="1.00" stroke-linejoin="round"/>
<path d="M181.48,104.04 C181.26,104.28 180.38,105.01 180.03,105.30 C179.54,105.71 174.34,110.25 172.32,112.35 C167.29,117.83 161.31,124.28 160.56,124.91 C160.18,125.23 159.20,126.02 157.61,127.28" fill="none" stroke="rgb(0, 255, 0)" stroke-width="2.40" stroke-opacity="1.00" stroke-linejoin="round"/>
<path d="M186.91,116.46 C186.46,118.27 183.82,123.32 182.15,126.54 C178.02,134.54 173.83,139.57 173.26,140.25" fill="none" stroke="rgb(0, 255, 0)" stroke-width="2.40" stroke-opacity="1.00" stroke-linejoin="round"/>
<path d="M109.68,213.48 C109.18,214.48 108.88,215.19 108.91,215.94 C110.15,233.51 109.37,248.63 108.76,250.93 C108.66,251.32 108.37,252.22 107.91,253.62" fill="none" stroke="rgb(0, 255, 0)" stroke-width="2.40" stroke-opacity="1.00" stroke-linejoin="round"/>
<path d="M117.83,203.78 C117.86,204.72 117.17,219.70 116.98,227.72 C116.72,235.76 115.85,250.54 114.34,258.94 C113.66,262.42 112.14,269.95 111.28,273.99 C110.61,277.29 109.41,282.96 109.68,285.67" fill="none" stroke="rgb(0, 255, 0)" stroke-width="2.40" stroke-opacity="1.00" stroke-linejoin="round"/>
<path d="M106.97,266.65 C105.85,268.22 105.36,272.06 104.76,277.52 C102.03,303.00 101.07,308.25 100.93,308.67 C100.83,308.96 100.57,309.61 100.15,310.61" fill="none" stroke="rgb(0, 255, 0)" stroke-width="2.40" stroke-opacity="1.00" stroke-linejoin="round"/>
<path d="M96.88,233.66 C96.88,233.63 97.83,248.15 97.25,262.05 C96.90,268.10 95.76,282.19 94.89,286.16 C94.53,287.74 93.54,290.23 92.77,291.16 C92.47,291.53 91.87,292.01 90.98,292.62" fill="none" stroke="rgb(0, 255, 0)" stroke-width="2.40" stroke-opacity="1.00" stroke-linejoin="round"/>
<path d="M90.28,272.86 C90.28,272.86 89.31,273.55 89.31,273.55 C89.04,274.76 90.01,289.81 89.48,295.11 C88.51,304.34 82.32,325.80 81.91,326.70 C81.70,327.15 81.19,328.16 80.38,329.72" fill="none" stroke="rgb(0, 255, 0)" stroke-width="2.40" stroke-opacity="1.00" stroke-linejoin="round"/>
<path d="M84.46,240.26 C84.46,240.26 83.68,240.39 83.68,240.39 C82.96,241.05 82.65,260.27 82.19,267.08 C81.55,275.04 79.87,295.75 79.90,296.50 C79.92,297.06 80.06,298.05 80.30,299.46" fill="none" stroke="rgb(0, 255, 0)" stroke-width="2.40" stroke-opacity="1.00" stroke-linejoin="round"/>
<path d="M67.38,251.13 C67.30,251.17 67.70,253.52 68.02,255.33 C68.37,257.67 68.53,265.48 68.21,269.22 C67.56,276.44 64.71,282.89 63.88,284.30 C63.58,284.80 63.05,285.59 62.29,286.65" fill="none" stroke="rgb(0, 255, 0)" stroke-width="2.40" stroke-opacity="1.00" stroke-linejoin="round"/>
<path d="M63.50,290.71 C63.50,290.71 63.31,290.71 63.31,290.71 C62.91,290.45 63.87,297.34 64.33,300.30 C64.61,302.91 63.93,307.54 63.25,309.77 C62.68,311.58 59.81,316.52 58.68,318.15" fill="none" stroke="rgb(0, 255, 0)" stroke-width="2.40" stroke-opacity="1.00" stroke-linejoin="round"/>
<path d="M75.14,296.53 C74.22,297.94 73.54,299.46 71.70,311.64 C71.38,313.61 70.81,316.76 70.51,318.37 C69.96,321.42 69.23,327.00 69.06,328.43" fill="none" stroke="rgb(0, 255, 0)" stroke-width="2.40" stroke-opacity="1.00" stroke-linejoin="round"/>
<path d="M123.27,211.54 C123.27,211.54 123.27,211.15 123.27,211.15 C122.96,211.38 122.80,212.09 122.88,213.55 C123.05,216.43 124.54,227.07 124.87,237.36 C125.14,245.07 125.93,264.52 125.84,267.71 C125.67,273.21 121.77,290.25 121.31,293.59 C120.77,297.58 120.18,300.59 119.39,303.91" fill="none" stroke="rgb(0, 255, 0)" stroke-width="2.40" stroke-opacity="1.00" stroke-linejoin="round"/>
<path d="M131.03,202.23 C130.98,202.86 131.80,211.75 131.87,212.94 C132.67,225.97 131.90,258.32 131.90,258.66 C131.91,259.12 131.96,260.18 132.04,261.84" fill="none" stroke="rgb(0, 255, 0)" stroke-width="2.40" stroke-opacity="1.00" stroke-linejoin="round"/>
<path d="M141.90,202.61 C141.23,205.32 140.90,217.74 140.25,227.94 C139.12,243.73 137.57,264.76 137.53,265.00 C137.47,265.33 137.32,265.89 137.07,266.71" fill="none" stroke="rgb(0, 255, 0)" stroke-width="2.40" stroke-opacity="1.00" stroke-linejoin="round"/>
<path d="M150.82,207.27 C150.85,208.41 150.74,210.36 150.47,211.59 C149.33,215.98 148.81,231.98 148.13,237.07 C147.60,240.70 146.57,247.67 146.06,251.01 C145.90,252.19 145.75,253.37 145.59,254.55" fill="none" stroke="rgb(0, 255, 0)" stroke-width="2.40" stroke-opacity="1.00" stroke-linejoin="round"/>
<path d="M144.22,260.44 C143.51,263.38 143.47,280.20 143.50,288.47 C143.57,293.97 143.73,298.21 143.89,301.08 C144.23,305.82 144.49,306.83 145.14,308.34" fill="none" stroke="rgb(0, 255, 0)" stroke-width="2.40" stroke-opacity="1.00" stroke-linejoin="round"/>
<path d="M153.15,264.32 C153.15,264.32 153.15,263.16 153.15,263.16 C153.26,266.89 152.85,273.60 152.15,277.94 C151.82,279.87 151.00,283.36 150.52,284.89 C150.28,285.62 149.20,288.57 148.87,289.46" fill="none" stroke="rgb(0, 255, 0)" stroke-width="2.40" stroke-opacity="1.00" stroke-linejoin="round"/>
<path d="M224.56,95.11 C219.55,103.99 217.83,106.67 210.76,117.24 C209.88,118.55 209.35,119.35 209.15,119.65 C208.96,119.96 208.67,120.43 208.27,121.08" fill="none" stroke="rgb(0, 255, 0)" stroke-width="2.40" stroke-opacity="1.00" stroke-linejoin="round"/>
<path d="M198.17,141.68 C198.23,142.41 196.07,145.73 195.60,146.47 C192.97,150.53 186.96,157.07 183.27,159.91 C182.80,160.28 182.05,160.80 181.02,161.49" fill="none" stroke="rgb(0, 255, 0)" stroke-width="2.40" stroke-opacity="1.00" stroke-linejoin="round"/>
<path d="M228.05,135.09 C227.19,135.80 226.63,136.29 226.39,136.56 C226.02,136.97 214.92,154.74 214.37,155.49 C212.16,158.45 207.93,163.19 207.04,164.19" fill="none" stroke="rgb(0, 255, 0)" stroke-width="2.40" stroke-opacity="1.00" stroke-linejoin="round"/>
<path d="M245.52,152.55 C245.51,152.96 245.51,153.46 245.42,153.67 C244.57,155.42 230.22,168.94 228.78,170.81 C226.74,173.56 226.23,174.63 225.72,176.22" fill="none" stroke="rgb(0, 255, 0)" stroke-width="2.40" stroke-opacity="1.00" stroke-linejoin="round"/>
<path d="M260.26,96.28 C258.94,96.38 258.02,96.65 257.45,97.44 C256.65,98.57 248.95,111.27 245.72,114.89 C244.81,115.89 242.90,117.58 241.28,118.82 C239.73,120.00 238.64,120.41 237.75,120.34" fill="none" stroke="rgb(0, 255, 0)" stroke-width="2.40" stroke-opacity="1.00" stroke-linejoin="round"/>
<path d="M280.83,101.32 C280.83,101.32 280.33,100.93 280.33,100.93 C273.34,109.54 263.93,127.90 263.57,129.20 C263.49,129.50 263.29,130.28 262.99,131.56" fill="none" stroke="rgb(0, 255, 0)" stroke-width="2.40" stroke-opacity="1.00" stroke-linejoin="round"/>
<path d="M304.12,87.35 C303.49,88.07 302.81,89.02 301.97,90.39 C300.60,92.62 297.15,99.27 295.55,101.76 C292.32,106.73 285.64,112.48 284.98,112.98 C284.67,113.21 284.10,113.60 283.29,114.13" fill="none" stroke="rgb(0, 255, 0)" stroke-width="2.40" stroke-opacity="1.00" stroke-linejoin="round"/>
<path d="M318.09,92.01 C317.09,92.98 316.44,93.63 316.15,93.95 C315.34,94.83 311.71,99.93 310.18,101.69 C309.23,102.77 303.36,108.98 301.22,110.94" fill="none" stroke="rgb(0, 255, 0)" stroke-width="2.40" stroke-opacity="1.00" stroke-linejoin="round"/>
<path d="M345.64,110.25 C345.09,110.24 344.77,110.24 344.67,110.25 C344.62,110.26 336.77,120.29 330.85,127.28 C325.99,132.85 316.92,139.93 315.31,141.40 C314.26,142.36 313.42,143.57 312.24,145.64" fill="none" stroke="rgb(0, 255, 0)" stroke-width="2.40" stroke-opacity="1.00" stroke-linejoin="round"/>
<path d="M347.20,123.44 C346.94,123.66 334.76,137.94 329.10,144.55 C325.00,149.28 313.69,159.34 313.49,159.59 C313.31,159.80 313.13,160.15 312.93,160.62" fill="none" stroke="rgb(0, 255, 0)" stroke-width="2.40" stroke-opacity="1.00" stroke-linejoin="round"/>
<path d="M358.06,118.01 C357.70,118.32 354.33,125.07 352.83,128.03 C345.63,141.61 330.33,164.57 329.83,165.16 C329.49,165.57 328.68,166.41 327.40,167.69" fill="none" stroke="rgb(0, 255, 0)" stroke-width="2.40" stroke-opacity="1.00" stroke-linejoin="round"/>
<path d="M309.55,164.97 C308.78,164.97 307.62,165.44 305.91,166.49 C303.86,167.77 293.25,177.10 285.64,183.21 C283.09,185.26 280.15,187.83 279.28,188.62" fill="none" stroke="rgb(0, 255, 0)" stroke-width="2.40" stroke-opacity="1.00" stroke-linejoin="round"/>
<path d="M329.34,171.57 C329.34,171.57 328.67,171.18 328.67,171.18 C327.78,171.45 315.29,182.90 309.89,186.96 C304.98,190.46 298.27,195.29 297.86,195.70 C297.63,195.93 297.39,196.30 297.13,196.79" fill="none" stroke="rgb(0, 255, 0)" stroke-width="2.40" stroke-opacity="1.00" stroke-linejoin="round"/>
<path d="M288.98,204.56 C287.00,204.47 283.83,206.82 279.37,211.11 C276.81,213.59 274.21,215.58 273.37,216.14" fill="none" stroke="rgb(0, 255, 0)" stroke-width="2.40" stroke-opacity="1.00" stroke-linejoin="round"/>
<path d="M280.83,196.79 C280.83,196.79 280.64,196.79 280.64,196.79 C280.10,197.22 279.42,197.79 278.26,198.82 C273.70,202.82 266.89,207.04 266.38,207.31 C266.01,207.52 265.17,207.95 263.87,208.61" fill="none" stroke="rgb(0, 255, 0)" stroke-width="2.40" stroke-opacity="1.00" stroke-linejoin="round"/>
<path d="M271.13,192.52 C268.08,194.95 259.65,201.90 256.34,202.90 C255.91,203.03 255.08,203.15 253.87,203.25" fill="none" stroke="rgb(0, 255, 0)" stroke-width="2.40" stroke-opacity="1.00" stroke-linejoin="round"/>
<path d="M296.36,159.54 C295.96,160.30 295.35,160.95 293.91,162.03 C290.60,164.51 287.92,166.42 284.84,168.42 C278.61,172.40 271.84,176.53 270.93,177.08" fill="none" stroke="rgb(0, 255, 0)" stroke-width="2.40" stroke-opacity="1.00" stroke-linejoin="round"/>
<path d="M312.27,122.67 C312.27,122.67 312.66,121.70 312.66,121.70 C310.51,123.21 307.69,126.94 304.91,130.91 C299.93,138.18 291.78,146.46 279.40,160.15 C275.39,164.57 260.10,178.81 257.01,181.21 C252.95,184.35 250.32,186.24 246.17,189.08" fill="none" stroke="rgb(0, 255, 0)" stroke-width="2.40" stroke-opacity="1.00" stroke-linejoin="round"/>
<path d="M285.88,125.00 C285.88,125.00 286.85,125.00 286.85,125.00 C284.44,129.01 279.65,142.06 277.44,146.25 C274.81,151.15 269.01,157.63 262.40,164.17 C260.11,166.45 247.82,179.82 244.21,182.62 C241.16,184.95 229.95,192.01 227.28,193.69" fill="none" stroke="rgb(0, 255, 0)" stroke-width="2.40" stroke-opacity="1.00" stroke-linejoin="round"/>
<path d="M249.01,164.58 C249.02,164.85 249.02,165.04 249.01,165.16 C248.86,167.06 244.74,171.64 242.25,173.76 C233.70,180.96 214.69,193.50 213.78,194.24 C213.35,194.59 212.46,195.38 211.11,196.59" fill="none" stroke="rgb(0, 255, 0)" stroke-width="2.40" stroke-opacity="1.00" stroke-linejoin="round"/>
<path d="M230.77,201.06 C230.67,201.16 230.12,204.17 230.44,212.11 C230.46,212.64 230.52,213.35 230.61,214.23" fill="none" stroke="rgb(0, 255, 0)" stroke-width="2.40" stroke-opacity="1.00" stroke-linejoin="round"/>
<path d="M238.14,204.94 C238.08,205.56 238.01,206.18 237.95,206.80 C237.83,207.86 237.52,210.52 237.44,211.08 C237.39,211.44 237.29,212.12 237.14,213.10" fill="none" stroke="rgb(0, 255, 0)" stroke-width="2.40" stroke-opacity="1.00" stroke-linejoin="round"/>
<path d="M247.46,212.71 C246.36,214.92 245.66,219.65 245.28,222.17 C245.09,223.58 244.87,225.48 244.72,227.10 C244.58,228.53 244.44,230.84 244.35,232.26" fill="none" stroke="rgb(0, 255, 0)" stroke-width="2.40" stroke-opacity="1.00" stroke-linejoin="round"/>
<path d="M236.59,233.66 C236.59,233.66 236.40,233.66 236.40,233.66 C236.21,235.04 235.00,249.95 233.91,256.76 C233.28,260.37 232.18,266.53 232.12,266.95 C232.06,267.32 232.00,267.89 231.94,268.65" fill="none" stroke="rgb(0, 255, 0)" stroke-width="2.40" stroke-opacity="1.00" stroke-linejoin="round"/>
<path d="M245.13,243.75 C245.13,243.75 244.16,243.95 244.16,243.95 C243.90,244.30 242.77,258.32 241.49,266.24 C241.14,268.37 240.43,272.74 240.29,273.96 C240.08,275.74 239.96,277.82 239.98,278.77" fill="none" stroke="rgb(0, 255, 0)" stroke-width="2.40" stroke-opacity="1.00" stroke-linejoin="round"/>
<path d="M262.98,230.56 C262.98,230.56 262.98,228.74 262.98,228.74 C263.02,231.61 261.12,245.31 259.35,254.16 C257.23,263.78 254.76,273.11 252.57,279.48 C251.68,282.03 248.76,289.09 248.46,290.81 C248.38,291.28 248.30,292.15 248.23,293.43" fill="none" stroke="rgb(0, 255, 0)" stroke-width="2.40" stroke-opacity="1.00" stroke-linejoin="round"/>
<path d="M265.70,263.93 C265.74,264.05 260.93,294.10 260.89,294.38 C260.84,294.72 260.78,295.30 260.69,296.11" fill="none" stroke="rgb(0, 255, 0)" stroke-width="2.40" stroke-opacity="1.00" stroke-linejoin="round"/>
<path d="M277.34,229.01 C277.34,229.01 276.95,228.62 276.95,228.62 C276.94,229.09 277.32,246.30 276.93,252.37 C276.71,255.64 276.07,259.92 275.79,261.47" fill="none" stroke="rgb(0, 255, 0)" stroke-width="2.40" stroke-opacity="1.00" stroke-linejoin="round"/>
<path d="M288.21,268.20 C286.85,270.57 286.00,275.78 285.44,279.27 C284.19,287.44 282.04,300.88 282.02,300.99 C281.96,301.39 281.83,302.37 281.63,303.94" fill="none" stroke="rgb(0, 255, 0)" stroke-width="2.40" stroke-opacity="1.00" stroke-linejoin="round"/>
<path d="M302.18,216.59 C302.18,216.59 301.40,216.20 301.40,216.20 C301.40,216.20 300.82,216.59 300.82,216.59 C300.42,219.32 299.63,239.46 299.27,248.31 C299.07,251.92 297.48,266.90 296.74,272.25 C296.74,272.25 296.74,271.71 296.74,271.71" fill="none" stroke="rgb(0, 255, 0)" stroke-width="2.40" stroke-opacity="1.00" stroke-linejoin="round"/>
<path d="M321.58,200.67 C321.58,200.67 321.19,200.67 321.19,200.67 C321.61,207.11 322.23,217.73 322.25,225.97 C321.86,244.49 319.28,261.72 319.16,262.19 C319.07,262.50 318.89,262.99 318.60,263.64" fill="none" stroke="rgb(0, 255, 0)" stroke-width="2.40" stroke-opacity="1.00" stroke-linejoin="round"/>
<path d="M347.97,203.00 C347.97,203.00 346.84,202.36 346.84,202.36 C346.33,204.19 343.08,223.78 341.67,232.15 C341.11,235.25 337.47,251.11 337.11,254.49 C337.07,254.84 337.07,254.98 337.11,254.92" fill="none" stroke="rgb(0, 255, 0)" stroke-width="2.40" stroke-opacity="1.00" stroke-linejoin="round"/>
<path d="M378.24,128.49 C378.24,128.49 378.05,128.49 378.05,128.49 C377.70,129.21 374.72,142.38 371.50,153.12 C369.30,159.80 365.56,170.24 364.08,174.38 C364.08,174.38 364.14,174.25 364.14,174.25" fill="none" stroke="rgb(0, 255, 0)" stroke-width="2.40" stroke-opacity="1.00" stroke-linejoin="round"/>
<path d="M392.60,137.03 C391.82,137.97 391.45,138.83 391.20,140.49 C390.47,145.43 386.35,156.16 383.02,161.15 C380.71,164.58 378.34,166.72 377.40,167.48" fill="none" stroke="rgb(0, 255, 0)" stroke-width="2.40" stroke-opacity="1.00" stroke-linejoin="round"/>
<path d="M400.75,128.88 C400.75,128.88 400.75,127.91 400.75,127.91 C400.75,127.91 400.95,127.91 400.95,127.91 C401.24,131.33 397.58,144.98 395.58,152.34 C395.01,154.33 394.18,157.19 393.92,158.07" fill="none" stroke="rgb(0, 255, 0)" stroke-width="2.40" stroke-opacity="1.00" stroke-linejoin="round"/>
<path d="M415.50,123.06 C415.01,123.95 414.07,125.80 413.37,127.33 C407.82,139.78 398.88,159.41 397.70,163.98 C397.56,164.53 397.42,165.27 397.29,166.23" fill="none" stroke="rgb(0, 255, 0)" stroke-width="2.40" stroke-opacity="1.00" stroke-linejoin="round"/>
<path d="M418.99,131.59 C418.35,132.68 417.79,139.86 417.68,140.95 C416.55,152.69 411.93,171.05 411.01,174.70 C410.73,175.86 410.45,177.02 410.17,178.17" fill="none" stroke="rgb(0, 255, 0)" stroke-width="2.40" stroke-opacity="1.00" stroke-linejoin="round"/>
<path d="M438.40,128.49 C438.40,128.49 437.82,128.49 437.82,128.49 C437.71,128.59 434.34,143.08 432.31,149.35 C430.93,153.56 424.75,166.85 424.49,167.33 C424.22,167.82 423.58,168.91 422.56,170.62" fill="none" stroke="rgb(0, 255, 0)" stroke-width="2.40" stroke-opacity="1.00" stroke-linejoin="round"/>
<path d="M448.88,141.68 C448.88,141.68 448.88,141.49 448.88,141.49 C448.88,141.49 448.42,141.12 448.42,141.12 C447.46,145.58 443.41,176.08 442.73,183.82 C442.63,184.96 442.53,186.10 442.42,187.24" fill="none" stroke="rgb(0, 255, 0)" stroke-width="2.40" stroke-opacity="1.00" stroke-linejoin="round"/>
<path d="M464.01,135.09 C462.95,135.79 462.03,137.56 460.02,142.87 C456.45,152.14 450.42,165.59 450.25,165.98 C450.11,166.33 449.91,166.87 449.67,167.61" fill="none" stroke="rgb(0, 255, 0)" stroke-width="2.40" stroke-opacity="1.00" stroke-linejoin="round"/>
<path d="M473.33,140.91 C473.33,140.91 472.74,140.91 472.74,140.91 C472.42,141.17 471.74,147.05 471.17,149.17 C470.18,152.80 464.14,169.22 461.91,173.91 C461.82,174.10 461.74,174.26 461.65,174.39" fill="none" stroke="rgb(0, 255, 0)" stroke-width="2.40" stroke-opacity="1.00" stroke-linejoin="round"/>
<path d="M481.48,136.25 C481.48,136.25 481.67,136.25 481.67,136.25 C481.67,136.25 482.06,135.86 482.06,135.86 C482.86,138.10 482.99,142.10 482.83,145.91 C482.37,154.83 481.66,163.74 481.48,172.52 C481.48,173.33 481.48,174.14 481.48,174.95" fill="none" stroke="rgb(0, 255, 0)" stroke-width="2.40" stroke-opacity="1.00" stroke-linejoin="round"/>
<path d="M486.13,192.52 C486.13,192.52 485.75,190.58 485.75,190.58 C485.88,190.63 484.02,207.51 483.03,216.60 C480.55,245.94 479.69,252.08 478.92,253.81 C478.79,254.10 478.52,254.53 478.11,255.11" fill="none" stroke="rgb(0, 255, 0)" stroke-width="2.40" stroke-opacity="1.00" stroke-linejoin="round"/>
<path d="M465.57,187.48 C465.54,187.65 465.54,187.85 465.57,188.06 C466.28,195.00 466.24,235.16 465.22,249.47 C465.07,251.38 464.78,255.22 464.63,257.14 C464.46,259.35 464.34,260.59 464.14,262.30" fill="none" stroke="rgb(0, 255, 0)" stroke-width="2.40" stroke-opacity="1.00" stroke-linejoin="round"/>
<path d="M457.80,196.02 C457.37,195.95 457.42,201.05 457.39,206.42 C457.00,223.61 454.97,237.92 452.94,248.59 C451.90,253.72 450.62,258.44 449.25,262.44" fill="none" stroke="rgb(0, 255, 0)" stroke-width="2.40" stroke-opacity="1.00" stroke-linejoin="round"/>
<path d="M446.55,199.51 C446.55,199.51 446.35,199.32 446.35,199.32 C446.35,199.32 445.48,199.32 445.48,199.32 C445.31,200.88 444.12,216.85 443.56,223.21 C441.59,241.08 439.18,254.74 438.95,255.72 C438.84,256.17 438.71,256.56 438.54,256.89" fill="none" stroke="rgb(0, 255, 0)" stroke-width="2.40" stroke-opacity="1.00" stroke-linejoin="round"/>
<path d="M436.46,203.39 C435.81,210.56 434.48,224.19 433.80,230.66 C432.64,239.68 431.28,247.10 428.92,257.86 C428.57,259.39 428.00,261.90 427.78,262.88" fill="none" stroke="rgb(0, 255, 0)" stroke-width="2.40" stroke-opacity="1.00" stroke-linejoin="round"/>
<path d="M430.25,217.36 C429.11,218.05 428.27,220.24 427.38,225.39 C425.64,235.24 424.23,241.45 423.39,244.60 C422.90,246.45 422.28,248.15 421.27,250.62" fill="none" stroke="rgb(0, 255, 0)" stroke-width="2.40" stroke-opacity="1.00" stroke-linejoin="round"/>
<path d="M424.43,193.30 C424.43,193.30 423.65,194.17 423.65,194.17 C423.73,197.04 423.87,202.78 423.72,206.02 C423.10,218.95 419.34,234.98 418.58,237.59 C418.24,238.76 417.48,240.93 417.03,242.19" fill="none" stroke="rgb(0, 255, 0)" stroke-width="2.40" stroke-opacity="1.00" stroke-linejoin="round"/>
<path d="M418.61,198.73 C417.90,199.57 417.30,213.72 416.80,220.65 C416.20,227.64 414.44,236.85 414.27,237.49 C414.14,237.94 413.82,238.89 413.33,240.33" fill="none" stroke="rgb(0, 255, 0)" stroke-width="2.40" stroke-opacity="1.00" stroke-linejoin="round"/>
<path d="M415.11,204.94 C414.67,207.06 412.67,223.47 411.19,231.15 C410.17,236.21 407.20,245.00 407.04,245.39 C406.92,245.68 406.69,246.16 406.36,246.82" fill="none" stroke="rgb(0, 255, 0)" stroke-width="2.40" stroke-opacity="1.00" stroke-linejoin="round"/>
<path d="M403.08,196.79 C403.21,201.43 403.34,219.12 402.90,223.58 C402.15,231.00 399.55,243.59 397.67,249.57 C397.15,251.22 396.37,253.27 395.27,255.97" fill="none" stroke="rgb(0, 255, 0)" stroke-width="2.40" stroke-opacity="1.00" stroke-linejoin="round"/>
<path d="M396.48,201.06 C396.48,201.06 396.48,200.87 396.48,200.87 C396.46,201.79 396.39,203.63 396.35,204.55 C396.18,208.08 393.08,231.91 392.95,233.11 C392.79,234.54 392.66,236.46 392.62,237.47" fill="none" stroke="rgb(0, 255, 0)" stroke-width="2.40" stroke-opacity="1.00" stroke-linejoin="round"/>
<path d="M433.74,268.20 C433.74,268.20 432.58,268.42 432.58,268.42 C432.53,274.42 431.72,283.76 430.12,291.77 C429.75,293.61 429.13,296.34 428.77,297.82" fill="none" stroke="rgb(0, 255, 0)" stroke-width="2.40" stroke-opacity="1.00" stroke-linejoin="round"/>
<path d="M445.38,268.20 C445.32,268.20 445.25,268.20 445.19,268.20 C445.13,268.20 445.06,268.20 445.00,268.20 C445.39,269.30 445.66,271.55 445.61,273.95 C445.53,277.23 443.19,288.36 440.15,296.40 C436.36,306.35 426.69,320.86 424.82,323.31" fill="none" stroke="rgb(0, 255, 0)" stroke-width="2.40" stroke-opacity="1.00" stroke-linejoin="round"/>
<path d="M455.86,274.80 C455.86,274.80 455.47,273.81 455.47,273.81 C456.32,275.31 456.54,289.08 455.83,296.03 C455.47,299.56 454.68,305.03 454.21,307.63" fill="none" stroke="rgb(0, 255, 0)" stroke-width="2.40" stroke-opacity="1.00" stroke-linejoin="round"/>
<path d="M467.12,267.43 C466.80,267.69 466.61,267.99 466.54,268.31 C466.32,269.28 465.94,288.84 465.22,293.98 C465.14,294.48 462.72,306.75 462.58,307.52" fill="none" stroke="rgb(0, 255, 0)" stroke-width="2.40" stroke-opacity="1.00" stroke-linejoin="round"/>
<path d="M480.70,265.10 C479.48,267.80 479.13,271.64 479.13,274.99 C479.14,281.71 477.42,295.37 475.59,300.58 C474.91,302.47 473.78,305.60 473.33,306.84" fill="none" stroke="rgb(0, 255, 0)" stroke-width="2.40" stroke-opacity="1.00" stroke-linejoin="round"/>
<path d="M355.68,82.70 C355.68,82.70 354.72,82.15 354.72,82.15 C354.54,82.31 350.58,97.06 348.64,101.22 C348.09,102.37 346.90,104.29 346.36,104.83 C346.17,105.02 345.89,105.15 345.55,105.22" fill="none" stroke="rgb(0, 255, 0)" stroke-width="2.40" stroke-opacity="1.00" stroke-linejoin="round"/>
<path d="M377.39,90.60 C376.36,91.59 375.37,93.32 374.55,95.84 C374.25,96.74 372.75,102.13 372.42,102.93 C372.24,103.38 371.88,104.02 371.36,104.85" fill="none" stroke="rgb(0, 255, 0)" stroke-width="2.40" stroke-opacity="1.00" stroke-linejoin="round"/>
<path d="M348.11,69.22 C347.98,69.30 347.87,69.35 347.78,69.38 C347.56,69.44 347.34,69.49 347.12,69.55 C347.02,69.58 346.85,69.65 346.63,69.77 C346.24,70.26 346.15,71.77 346.11,72.37 C346.08,72.88 345.60,76.06 345.40,76.76 C345.28,77.18 344.98,78.04 344.51,79.33" fill="none" stroke="rgb(0, 255, 0)" stroke-width="2.40" stroke-opacity="1.00" stroke-linejoin="round"/>
<path d="M335.61,87.31 C335.61,87.31 335.45,87.31 335.45,87.31 C335.24,87.61 332.09,94.62 330.38,96.90 C330.05,97.35 329.41,98.08 328.46,99.10" fill="none" stroke="rgb(0, 255, 0)" stroke-width="2.40" stroke-opacity="1.00" stroke-linejoin="round"/>
<path d="M413.24,53.76 C413.24,53.76 411.19,54.58 411.19,54.58 C410.32,56.82 408.38,65.53 408.06,66.77 C407.32,69.63 405.16,74.72 404.36,75.57 C404.27,75.68 404.13,75.78 403.96,75.89" fill="none" stroke="rgb(0, 255, 0)" stroke-width="2.40" stroke-opacity="1.00" stroke-linejoin="round"/>
<path d="M401.40,55.73 C401.35,55.73 401.29,55.73 401.24,55.73 C401.07,55.73 400.91,55.73 400.74,55.73 C400.23,55.95 396.02,68.89 395.46,70.38 C395.23,71.00 394.10,73.50 393.40,75.06" fill="none" stroke="rgb(0, 255, 0)" stroke-width="2.40" stroke-opacity="1.00" stroke-linejoin="round"/>
<path d="M399.43,94.55 C398.06,95.19 397.04,96.88 395.05,100.89 C393.62,103.87 392.60,105.76 391.07,108.34 C391.07,108.34 391.04,108.07 391.04,108.07" fill="none" stroke="rgb(0, 255, 0)" stroke-width="2.40" stroke-opacity="1.00" stroke-linejoin="round"/>
<path d="M409.30,96.52 C408.19,97.58 407.40,98.98 406.49,101.63 C406.03,102.98 405.14,105.64 404.65,107.04 C404.29,108.04 403.94,109.04 403.58,110.04" fill="none" stroke="rgb(0, 255, 0)" stroke-width="2.40" stroke-opacity="1.00" stroke-linejoin="round"/>
<path d="M437.91,71.19 C436.50,75.08 435.97,79.78 435.69,82.32 C435.52,83.83 435.27,85.47 434.76,88.47" fill="none" stroke="rgb(0, 255, 0)" stroke-width="2.40" stroke-opacity="1.00" stroke-linejoin="round"/>
<path d="M443.18,52.11 C442.81,52.33 442.19,52.88 442.03,53.35 C441.85,53.85 441.67,56.99 441.59,57.88 C441.54,58.42 441.41,59.46 441.20,60.99" fill="none" stroke="rgb(0, 255, 0)" stroke-width="2.40" stroke-opacity="1.00" stroke-linejoin="round"/>
<path d="M456.99,74.15 C456.93,74.96 455.33,81.73 454.79,83.77 C453.13,89.82 450.21,99.59 447.24,108.26 C446.93,109.20 446.61,110.13 446.30,111.07" fill="none" stroke="rgb(0, 255, 0)" stroke-width="2.40" stroke-opacity="1.00" stroke-linejoin="round"/>
<path d="M466.20,79.09 C466.20,79.09 466.04,79.09 466.04,79.09 C465.52,79.45 464.99,82.12 464.11,87.55 C462.26,99.02 461.59,102.36 460.42,107.49 C459.97,109.43 459.56,110.95 458.91,113.18" fill="none" stroke="rgb(0, 255, 0)" stroke-width="2.40" stroke-opacity="1.00" stroke-linejoin="round"/>
<path d="M480.02,89.94 C479.66,90.29 479.38,91.49 479.01,94.42 C478.82,95.93 478.40,99.32 478.24,100.39 C478.09,101.39 477.94,102.40 477.79,103.41" fill="none" stroke="rgb(0, 255, 0)" stroke-width="2.40" stroke-opacity="1.00" stroke-linejoin="round"/>
<path d="M483.97,63.95 C483.97,63.95 484.13,63.95 484.13,63.95 C484.24,63.86 484.30,63.96 484.30,64.25 C484.26,66.68 483.02,72.35 482.41,74.64 C482.05,75.99 481.68,77.08 481.15,78.48" fill="none" stroke="rgb(0, 255, 0)" stroke-width="2.40" stroke-opacity="1.00" stroke-linejoin="round"/>
<path d="M380.35,41.91 C380.35,41.91 380.13,41.75 380.13,41.75 C379.78,43.62 379.60,45.06 379.54,45.51 C379.52,45.70 379.48,46.01 379.41,46.44" fill="none" stroke="rgb(0, 255, 0)" stroke-width="2.40" stroke-opacity="1.00" stroke-linejoin="round"/>
</g>
</svg>
