<?xml version="1.0" encoding="UTF-8" standalone="no"?>
<!DOCTYPE svg PUBLIC "-//W3C//DTD SVG 1.1//EN" "http://www.w3.org/Graphics/SVG/1.1/DTD/svg11.dtd">
<svg width="128.40" height="181.68" viewBox="0.00 0.00 535.00 757.00" xmlns="http://www.w3.org/2000/svg" xmlns:xlink="http://www.w3.org/1999/xlink">
<g stroke-linecap="round" transform="translate(44.00, 155.00)" id="140-건물-2">
<path d="M384.99,258.12 C385.00,258.29 384.95,258.61 384.85,258.79 C384.83,258.83 384.78,258.88 384.72,258.92 C384.99,257.25 385.07,234.93 385.24,230.97 C386.03,212.64 388.50,195.23 388.54,194.99 C388.83,193.67 395.20,180.25 397.20,176.10 C397.11,176.06 381.85,177.56 375.45,177.36 C365.36,177.01 349.62,172.36 349.53,172.36 C350.09,177.83 350.43,186.38 350.43,198.07 C350.38,211.27 347.85,244.17 346.77,250.50 C345.54,257.55 343.12,265.29 342.75,266.44 C342.75,266.44 342.81,266.13 342.81,266.13" fill="none" stroke="rgb(255, 255, 0)" stroke-width="2.40" stroke-opacity="1.00" stroke-linejoin="round"/>
<path d="M348.41,266.66 C348.41,266.66 348.15,266.53 348.15,266.53 C348.12,265.75 348.37,263.40 348.73,261.72 C348.97,260.66 351.30,252.57 351.59,249.36 C353.27,235.26 355.96,194.40 354.82,190.81 C354.79,190.75 354.71,190.59 354.57,190.33" fill="none" stroke="rgb(255, 255, 0)" stroke-width="2.40" stroke-opacity="1.00" stroke-linejoin="round"/>
<path d="M392.73,188.98 C392.73,188.98 392.73,188.71 392.73,188.71 C392.87,188.38 389.09,187.52 384.33,187.38 C383.58,187.36 380.78,187.19 380.13,187.27 C375.73,188.14 361.06,190.45 358.27,191.14 C357.16,191.42 351.14,193.46 350.96,193.57 C350.89,193.61 350.84,193.69 350.82,193.78" fill="none" stroke="rgb(255, 255, 0)" stroke-width="2.40" stroke-opacity="1.00" stroke-linejoin="round"/>
<path d="M351.88,199.66 C351.78,199.33 351.73,199.22 351.56,199.01 C351.48,198.92 351.33,198.72 351.08,198.41 C351.27,198.33 352.87,197.87 354.06,197.54 C354.35,197.45 354.65,197.37 354.94,197.29" fill="none" stroke="rgb(255, 255, 0)" stroke-width="2.40" stroke-opacity="1.00" stroke-linejoin="round"/>
<path d="M350.55,205.26 C350.55,205.26 350.28,205.17 350.28,205.17 C350.30,204.96 351.94,204.10 353.43,203.60 C353.79,203.48 354.16,203.41 354.55,203.39" fill="none" stroke="rgb(255, 255, 0)" stroke-width="2.40" stroke-opacity="1.00" stroke-linejoin="round"/>
<path d="M351.62,211.40 C351.62,211.40 350.82,211.67 350.82,211.67 C351.60,211.33 352.14,211.12 352.46,211.04 C352.77,210.96 353.29,210.90 354.02,210.87" fill="none" stroke="rgb(255, 255, 0)" stroke-width="2.40" stroke-opacity="1.00" stroke-linejoin="round"/>
<path d="M350.82,218.08 C350.82,218.08 349.75,218.58 349.75,218.58 C350.14,218.20 351.57,217.22 352.20,217.09 C352.48,217.03 352.91,217.09 353.49,217.28" fill="none" stroke="rgb(255, 255, 0)" stroke-width="2.40" stroke-opacity="1.00" stroke-linejoin="round"/>
<path d="M350.82,224.22 C350.82,224.22 350.28,224.22 350.28,224.22 C350.53,224.41 351.17,224.51 352.03,224.42 C352.26,224.40 352.72,224.33 353.38,224.22" fill="none" stroke="rgb(255, 255, 0)" stroke-width="2.40" stroke-opacity="1.00" stroke-linejoin="round"/>
<path d="M350.55,230.89 C350.55,230.89 349.82,231.16 349.82,231.16 C349.84,231.21 350.72,230.95 352.35,230.41 C352.61,230.32 352.82,230.25 352.99,230.19" fill="none" stroke="rgb(255, 255, 0)" stroke-width="2.40" stroke-opacity="1.00" stroke-linejoin="round"/>
<path d="M350.02,237.83 C350.02,237.83 349.35,238.15 349.35,238.15 C349.33,238.26 350.09,238.10 350.87,237.83 C350.99,237.79 351.28,237.71 351.72,237.60" fill="none" stroke="rgb(255, 255, 0)" stroke-width="2.40" stroke-opacity="1.00" stroke-linejoin="round"/>
<path d="M347.88,246.64 C347.88,246.64 347.35,246.91 347.35,246.91 C347.88,246.91 348.41,246.91 348.95,246.91 C349.17,246.91 349.39,246.91 349.61,246.91" fill="none" stroke="rgb(255, 255, 0)" stroke-width="2.40" stroke-opacity="1.00" stroke-linejoin="round"/>
<path d="M347.08,253.58 C347.08,253.58 346.81,253.58 346.81,253.58 C346.81,253.58 346.81,253.41 346.81,253.41 C347.02,253.23 347.84,253.10 348.17,253.05 C348.34,253.02 348.60,252.97 348.96,252.89" fill="none" stroke="rgb(255, 255, 0)" stroke-width="2.40" stroke-opacity="1.00" stroke-linejoin="round"/>
<path d="M345.48,259.19 C345.48,259.19 344.41,259.19 344.41,259.19 C345.28,259.19 345.86,259.21 346.16,259.26 C346.45,259.30 346.88,259.43 347.44,259.65" fill="none" stroke="rgb(255, 255, 0)" stroke-width="2.40" stroke-opacity="1.00" stroke-linejoin="round"/>
<path d="M343.88,264.79 C343.88,264.79 342.67,265.46 342.67,265.46 C342.67,265.46 342.67,265.59 342.67,265.59 C343.43,265.59 346.06,265.58 346.36,265.61 C346.61,265.63 346.83,265.71 347.04,265.84" fill="none" stroke="rgb(255, 255, 0)" stroke-width="2.40" stroke-opacity="1.00" stroke-linejoin="round"/>
<path d="M383.92,246.64 C383.92,246.64 382.55,247.71 382.55,247.71 C382.55,247.71 380.06,247.11 380.06,247.11 C379.93,250.25 380.29,256.20 380.41,257.99 C380.41,258.01 380.43,258.08 380.43,258.06 C380.43,258.06 380.45,257.85 380.45,257.85" fill="none" stroke="rgb(255, 255, 0)" stroke-width="2.40" stroke-opacity="1.00" stroke-linejoin="round"/>
<path d="M382.05,248.24 C381.31,248.98 380.95,249.53 381.01,250.39 C381.38,254.17 381.51,257.52 381.56,258.69 C381.56,258.69 382.05,255.18 382.05,255.18" fill="none" stroke="rgb(255, 255, 0)" stroke-width="2.40" stroke-opacity="1.00" stroke-linejoin="round"/>
<path d="M382.85,248.24 C382.70,248.60 382.61,248.89 382.58,249.11 C382.44,250.31 382.88,257.48 383.05,257.50 C383.05,257.50 383.34,257.14 383.34,257.14" fill="none" stroke="rgb(255, 255, 0)" stroke-width="2.40" stroke-opacity="1.00" stroke-linejoin="round"/>
<path d="M373.24,247.71 C373.24,247.71 373.24,247.17 373.24,247.17 C373.24,247.17 369.39,248.51 369.39,248.51 C369.39,248.51 369.39,262.93 369.39,262.93 C369.39,262.93 369.74,261.47 369.74,261.47" fill="none" stroke="rgb(255, 255, 0)" stroke-width="2.40" stroke-opacity="1.00" stroke-linejoin="round"/>
<path d="M372.71,247.98 C372.71,247.98 371.93,248.24 371.93,248.24 C371.93,248.24 373.30,261.37 373.30,261.37 C373.30,261.37 373.26,260.63 373.26,260.63" fill="none" stroke="rgb(255, 255, 0)" stroke-width="2.40" stroke-opacity="1.00" stroke-linejoin="round"/>
<path d="M370.84,249.31 C370.84,249.31 369.83,249.31 369.83,249.31 C370.09,251.75 370.64,257.53 370.93,260.86 C370.96,261.12 371.01,261.29 371.09,261.35 C371.36,261.39 371.68,256.69 371.84,250.29 C371.87,248.96 371.91,247.53 371.90,247.55 C371.96,254.48 371.95,256.18 372.02,256.49 C372.08,256.74 372.31,257.55 372.71,258.92" fill="none" stroke="rgb(255, 255, 0)" stroke-width="2.40" stroke-opacity="1.00" stroke-linejoin="round"/>
<path d="M363.90,246.37 C363.90,246.37 363.83,245.71 363.83,245.71 C363.83,245.71 362.92,245.36 362.92,245.36 C361.20,246.01 357.25,248.51 357.19,248.70 C355.34,254.61 352.72,263.35 352.37,265.86 C352.37,265.86 353.22,264.79 353.22,264.79" fill="none" stroke="rgb(255, 255, 0)" stroke-width="2.40" stroke-opacity="1.00" stroke-linejoin="round"/>
<path d="M362.29,247.17 C361.97,247.50 361.46,248.08 361.32,248.35 C361.23,248.53 360.09,261.85 359.71,262.80 C359.71,262.80 359.89,258.92 359.89,258.92" fill="none" stroke="rgb(255, 255, 0)" stroke-width="2.40" stroke-opacity="1.00" stroke-linejoin="round"/>
<path d="M359.63,247.98 C358.73,248.61 358.25,249.08 358.16,249.67 C358.13,249.84 356.42,264.01 356.23,265.40 C356.23,265.40 357.13,262.69 357.13,262.69" fill="none" stroke="rgb(255, 255, 0)" stroke-width="2.40" stroke-opacity="1.00" stroke-linejoin="round"/>
<path d="M360.16,248.24 C359.19,249.63 358.57,251.36 357.11,257.30 C355.44,263.94 355.31,264.50 355.15,265.31 C355.15,265.31 356.47,263.10 356.47,263.10" fill="none" stroke="rgb(255, 255, 0)" stroke-width="2.40" stroke-opacity="1.00" stroke-linejoin="round"/>
<path d="M362.03,247.44 C361.89,248.34 361.73,249.09 361.42,250.20 C360.61,253.05 358.09,261.92 358.14,261.96 C358.14,261.96 358.81,260.28 358.81,260.28" fill="none" stroke="rgb(255, 255, 0)" stroke-width="2.40" stroke-opacity="1.00" stroke-linejoin="round"/>
<path d="M364.16,246.91 C363.31,247.41 362.76,248.98 362.19,252.61 C361.64,256.02 360.68,260.62 360.27,261.55 C360.27,261.55 360.16,259.99 360.16,259.99" fill="none" stroke="rgb(255, 255, 0)" stroke-width="2.40" stroke-opacity="1.00" stroke-linejoin="round"/>
<path d="M363.90,248.24 C363.62,248.66 363.04,249.85 362.76,250.84 C362.56,251.56 360.78,259.64 360.03,262.46 C360.03,262.46 360.69,261.32 360.69,261.32" fill="none" stroke="rgb(255, 255, 0)" stroke-width="2.40" stroke-opacity="1.00" stroke-linejoin="round"/>
<path d="M361.76,218.61 C361.77,218.42 361.77,218.29 361.76,218.21 C361.76,218.13 361.74,218.00 361.72,217.81 C361.72,217.81 357.27,219.58 357.27,219.58 C356.95,220.08 357.01,227.80 357.09,228.06 C357.18,228.35 357.49,229.12 358.02,230.36" fill="none" stroke="rgb(255, 255, 0)" stroke-width="2.40" stroke-opacity="1.00" stroke-linejoin="round"/>
<path d="M362.03,218.34 C361.95,218.39 361.87,218.48 361.76,218.61 C361.66,218.74 361.39,219.09 360.96,219.66 C360.96,219.66 361.76,227.78 361.76,227.78 C361.65,227.30 361.18,225.28 360.83,223.73 C360.09,220.46 359.91,219.71 359.75,219.36 C359.75,219.36 359.36,227.91 359.36,227.91 C359.36,227.91 359.28,221.88 359.28,221.88 C358.87,222.70 358.51,224.04 358.39,225.43 C358.33,226.25 358.58,227.09 359.09,228.22" fill="none" stroke="rgb(255, 255, 0)" stroke-width="2.40" stroke-opacity="1.00" stroke-linejoin="round"/>
<path d="M369.77,218.61 C369.77,218.61 369.77,218.48 369.77,218.48 C369.77,218.48 369.64,218.34 369.64,218.34 C369.64,218.34 369.50,218.34 369.50,218.34 C369.50,218.34 369.50,224.94 369.50,224.94 C369.50,224.94 369.71,224.45 369.71,224.45" fill="none" stroke="rgb(255, 255, 0)" stroke-width="2.40" stroke-opacity="1.00" stroke-linejoin="round"/>
<path d="M369.24,218.08 C369.14,218.12 369.05,218.16 368.97,218.21 C368.89,218.26 368.71,218.37 368.43,218.54 C368.43,218.54 374.98,217.60 374.98,217.60 C373.92,220.51 373.41,223.03 373.29,224.62 C373.27,224.84 373.26,225.15 373.24,225.55" fill="none" stroke="rgb(255, 255, 0)" stroke-width="2.40" stroke-opacity="1.00" stroke-linejoin="round"/>
<path d="M371.37,218.34 C371.37,218.34 370.70,218.52 370.70,218.52 C370.70,218.52 370.95,224.39 370.95,224.39 C370.95,224.39 371.66,218.77 371.66,218.77 C371.74,219.46 371.83,220.15 371.91,220.84 C372.00,221.53 372.22,222.51 372.71,224.48" fill="none" stroke="rgb(255, 255, 0)" stroke-width="2.40" stroke-opacity="1.00" stroke-linejoin="round"/>
<path d="M382.85,209.53 C382.85,209.53 382.85,208.20 382.85,208.20 C382.85,208.16 382.84,209.92 382.81,210.78 C382.72,214.43 382.26,220.10 382.05,222.63 C382.05,222.63 382.27,222.58 382.27,222.58" fill="none" stroke="rgb(255, 255, 0)" stroke-width="2.40" stroke-opacity="1.00" stroke-linejoin="round"/>
<path d="M381.78,218.08 C381.78,218.08 381.25,218.34 381.25,218.34 C381.25,218.34 379.25,217.55 379.25,217.55 C377.81,219.28 379.45,224.66 379.56,224.81 C379.56,224.81 380.68,219.34 380.68,219.34 C380.68,219.34 381.60,223.67 381.60,223.67 C381.60,223.67 381.97,221.67 381.97,221.67 C381.97,221.67 382.58,224.22 382.58,224.22" fill="none" stroke="rgb(255, 255, 0)" stroke-width="2.40" stroke-opacity="1.00" stroke-linejoin="round"/>
<path d="M373.77,211.67 C373.77,211.67 373.51,210.72 373.51,210.72 C373.82,212.63 374.15,220.35 374.17,220.66 C374.19,220.99 374.24,221.55 374.31,222.35" fill="none" stroke="rgb(255, 255, 0)" stroke-width="2.40" stroke-opacity="1.00" stroke-linejoin="round"/>
<path d="M360.16,212.74 C360.16,212.74 360.43,212.47 360.43,212.47 C360.78,212.66 361.29,214.40 361.50,216.84 C361.62,218.28 361.68,221.63 361.76,222.94 C361.80,223.51 361.88,224.30 362.03,225.28" fill="none" stroke="rgb(255, 255, 0)" stroke-width="2.40" stroke-opacity="1.00" stroke-linejoin="round"/>
<path d="M365.23,197.26 C365.23,197.26 365.23,197.12 365.23,197.12 C365.19,197.05 364.86,196.86 364.50,196.72 C364.31,196.66 361.12,197.86 360.77,198.26 C360.70,198.81 360.73,201.21 360.86,202.13 C360.92,202.58 361.33,202.76 361.49,202.86" fill="none" stroke="rgb(255, 255, 0)" stroke-width="2.40" stroke-opacity="1.00" stroke-linejoin="round"/>
<path d="M364.16,198.06 C364.16,198.06 362.62,202.47 362.62,202.47 C362.62,202.47 364.13,198.58 364.13,198.58 C364.13,198.58 364.07,202.25 364.07,202.25 C364.07,202.25 364.94,199.86 364.94,199.86 C364.94,199.86 365.18,201.00 365.18,201.00" fill="none" stroke="rgb(255, 255, 0)" stroke-width="2.40" stroke-opacity="1.00" stroke-linejoin="round"/>
<path d="M368.17,189.78 C368.17,189.78 367.14,189.78 367.14,189.78 C367.14,189.78 366.71,201.85 366.71,201.85 C366.71,201.85 367.63,200.99 367.63,200.99" fill="none" stroke="rgb(255, 255, 0)" stroke-width="2.40" stroke-opacity="1.00" stroke-linejoin="round"/>
<path d="M377.51,188.45 C377.51,188.45 377.11,188.51 377.11,188.51 C377.11,188.51 376.98,197.68 376.98,197.68 C376.98,197.68 377.19,196.21 377.19,196.21" fill="none" stroke="rgb(255, 255, 0)" stroke-width="2.40" stroke-opacity="1.00" stroke-linejoin="round"/>
<path d="M376.44,195.12 C376.28,195.24 375.21,195.62 374.41,195.74 C374.02,195.79 371.78,195.96 370.91,196.22 C370.91,196.22 371.75,200.78 371.75,200.78 C371.75,200.78 372.97,196.93 372.97,196.93 C372.97,196.93 374.02,199.64 374.02,199.64 C374.02,199.64 375.90,197.06 375.90,197.06 C375.90,197.06 376.18,199.12 376.18,199.12" fill="none" stroke="rgb(255, 255, 0)" stroke-width="2.40" stroke-opacity="1.00" stroke-linejoin="round"/>
<path d="M385.25,189.25 C385.25,189.25 384.99,188.71 384.99,188.71 C384.99,188.71 385.27,199.71 385.27,199.71 C385.27,199.71 385.25,197.52 385.25,197.52" fill="none" stroke="rgb(255, 255, 0)" stroke-width="2.40" stroke-opacity="1.00" stroke-linejoin="round"/>
<path d="M385.25,194.59 C385.25,194.59 384.65,195.39 384.65,195.39 C384.65,195.39 381.65,194.37 381.65,194.37 C381.65,194.37 381.71,199.76 381.71,199.76 C381.71,199.76 382.55,195.38 382.55,195.38 C382.53,195.80 382.54,196.19 382.60,196.56 C382.66,196.93 382.83,197.78 383.12,199.12" fill="none" stroke="rgb(255, 255, 0)" stroke-width="2.40" stroke-opacity="1.00" stroke-linejoin="round"/>
<path d="M387.65,201.53 C387.65,201.48 387.65,201.44 387.65,201.39 C387.65,201.25 387.65,201.17 387.65,201.15 C387.66,201.07 387.66,201.00 387.65,200.96 C387.65,200.88 387.62,200.64 387.57,200.25 C386.96,199.86 383.05,200.64 381.55,200.77 C377.52,201.16 368.42,201.88 367.42,202.10 C366.16,202.39 355.91,206.31 355.74,204.60 C355.75,204.56 355.71,204.52 355.62,204.46" fill="none" stroke="rgb(255, 255, 0)" stroke-width="2.40" stroke-opacity="1.00" stroke-linejoin="round"/>
<path d="M385.25,225.02 C385.25,225.02 384.72,224.55 384.72,224.55 C384.59,224.25 374.80,224.79 374.04,224.92 C372.43,225.18 362.23,228.77 361.33,229.15 C358.23,230.49 354.99,233.28 353.98,234.18 C353.98,234.18 354.55,233.56 354.55,233.56" fill="none" stroke="rgb(255, 255, 0)" stroke-width="2.40" stroke-opacity="1.00" stroke-linejoin="round"/>
<path d="M360.69,227.42 C358.99,228.21 358.52,229.21 358.58,229.39 C358.66,229.55 358.71,229.66 358.74,229.72" fill="none" stroke="rgb(255, 255, 0)" stroke-width="2.40" stroke-opacity="1.00" stroke-linejoin="round"/>
<path d="M383.12,259.19 C382.65,259.18 382.37,259.18 382.29,259.19 C381.16,259.35 371.12,262.77 367.36,263.85 C359.30,266.24 350.77,269.68 346.96,269.33 C346.68,269.30 346.36,269.21 346.01,269.06" fill="none" stroke="rgb(255, 255, 0)" stroke-width="2.40" stroke-opacity="1.00" stroke-linejoin="round"/>
<path d="M349.48,268.80 C348.47,268.80 347.46,268.80 346.45,268.80 C344.70,268.79 343.95,268.84 341.86,269.06 C341.82,269.07 341.70,269.07 341.74,269.06" fill="none" stroke="rgb(255, 255, 0)" stroke-width="2.40" stroke-opacity="1.00" stroke-linejoin="round"/>
<path d="M343.61,264.53 C343.61,264.53 343.21,264.26 343.21,264.26 C343.21,264.26 342.97,264.40 342.97,264.40 C342.86,264.58 342.81,265.56 342.81,267.78 C342.81,268.01 342.81,268.24 342.81,268.47" fill="none" stroke="rgb(255, 255, 0)" stroke-width="2.40" stroke-opacity="1.00" stroke-linejoin="round"/>
<path d="M361.23,260.25 C361.23,260.25 359.64,260.47 359.64,260.47 C359.64,260.47 359.09,265.85 359.09,265.85 C359.09,265.85 359.04,262.95 359.04,262.95 C359.04,262.95 358.01,265.87 358.01,265.87 C357.14,265.07 352.79,267.85 352.36,268.26 C352.36,268.26 353.22,267.73 353.22,267.73" fill="none" stroke="rgb(255, 255, 0)" stroke-width="2.40" stroke-opacity="1.00" stroke-linejoin="round"/>
<path d="M386.32,258.92 C386.16,258.92 385.99,258.92 385.83,258.92 C385.64,258.92 385.45,258.92 385.25,258.92 C387.30,258.42 392.25,260.23 393.17,260.66 C393.38,260.76 397.55,262.81 398.42,263.15 C400.83,264.06 409.52,263.55 411.66,263.41 C414.83,263.20 421.79,261.44 424.20,261.73 C425.23,261.86 426.12,262.26 426.36,262.54 C426.18,266.01 426.24,282.12 426.36,288.31 C426.46,295.07 425.37,305.50 423.84,312.51 C423.24,315.21 421.40,319.36 420.84,321.02 C420.75,320.88 420.68,320.78 420.65,320.71 C420.62,320.65 420.56,320.51 420.49,320.32" fill="none" stroke="rgb(255, 255, 0)" stroke-width="2.40" stroke-opacity="1.00" stroke-linejoin="round"/>
<path d="M305.70,322.19 C305.70,322.19 305.21,321.00 305.21,321.00 C304.03,321.39 302.82,322.36 301.97,323.95 C300.26,327.18 300.36,329.60 301.14,330.09 C302.23,330.70 305.47,330.56 307.07,329.36 C311.05,326.24 310.62,322.26 310.15,320.64 C310.15,320.64 308.64,320.32 308.64,320.32" fill="none" stroke="rgb(255, 255, 0)" stroke-width="2.40" stroke-opacity="1.00" stroke-linejoin="round"/>
<path d="M342.27,322.19 C341.20,322.17 339.84,322.74 338.37,324.11 C336.75,325.61 335.25,327.44 335.06,327.99 C335.89,329.17 336.71,329.70 338.13,329.70 C341.12,329.68 345.53,327.98 347.24,326.70 C348.80,325.44 350.32,322.86 349.77,321.52 C349.15,321.06 348.39,320.80 347.79,320.94 C347.46,321.02 346.59,321.68 344.99,322.95" fill="none" stroke="rgb(255, 255, 0)" stroke-width="2.40" stroke-opacity="1.00" stroke-linejoin="round"/>
<path d="M390.59,323.79 C389.58,323.79 386.78,323.79 386.39,323.82 C385.23,323.91 381.94,325.99 380.69,327.51 C379.18,329.39 378.95,330.77 379.09,331.41 C380.07,332.11 383.92,331.88 386.68,330.98 C389.48,330.04 393.54,327.29 394.19,325.99 C394.72,324.84 393.52,323.21 392.18,322.97 C391.04,322.81 388.93,323.57 387.87,323.97" fill="none" stroke="rgb(255, 255, 0)" stroke-width="2.40" stroke-opacity="1.00" stroke-linejoin="round"/>
<path d="M411.95,322.99 C411.45,322.82 410.30,322.47 409.74,322.45 C407.43,322.42 403.50,325.11 403.16,325.90 C402.86,326.73 404.33,328.45 405.76,328.83 C407.44,329.24 411.07,327.94 412.72,326.38 C414.25,324.88 414.68,323.40 414.72,322.63 C414.72,322.63 412.29,321.91 412.29,321.91" fill="none" stroke="rgb(255, 255, 0)" stroke-width="2.40" stroke-opacity="1.00" stroke-linejoin="round"/>
<path d="M420.22,321.65 C420.22,321.65 419.56,321.52 419.56,321.52 C419.56,321.52 419.46,320.87 419.46,320.87 C419.46,320.87 419.92,319.84 419.92,319.84 C418.44,318.99 403.62,320.83 400.17,320.76 C397.25,320.69 382.28,321.25 374.58,320.71 C371.37,320.56 358.01,320.82 349.99,320.03 C344.22,319.54 333.70,321.02 324.22,321.10 C315.32,321.10 304.43,322.13 303.91,322.12 C302.61,322.10 298.21,321.68 296.62,321.61 C295.53,320.79 294.26,316.89 294.18,312.10 C294.14,308.29 293.37,292.85 293.44,291.21 C293.97,281.14 300.31,269.95 300.88,269.84 C301.81,269.68 317.87,270.78 319.82,270.95 C328.33,271.71 335.31,273.02 343.04,272.12 C344.29,271.97 347.51,271.21 348.69,270.80 C349.13,270.65 349.92,270.34 351.08,269.86" fill="none" stroke="rgb(255, 255, 0)" stroke-width="2.40" stroke-opacity="1.00" stroke-linejoin="round"/>
<path d="M346.01,284.28 C346.01,284.28 344.14,285.08 344.14,285.08 C344.16,285.07 336.69,287.33 334.89,287.92 C332.13,288.81 322.32,289.65 322.13,290.10 C322.05,290.28 321.88,298.08 321.82,299.41 C321.55,304.92 318.55,313.67 317.23,316.14 C317.14,316.30 317.03,316.45 316.91,316.58" fill="none" stroke="rgb(255, 255, 0)" stroke-width="2.40" stroke-opacity="1.00" stroke-linejoin="round"/>
<path d="M345.48,287.48 C345.27,287.23 345.11,287.05 345.01,286.95 C344.91,286.84 344.70,286.67 344.41,286.42 C344.41,292.96 343.56,300.15 341.08,306.89 C338.08,314.86 336.50,317.04 335.99,317.25 C335.99,317.25 335.60,315.25 335.60,315.25" fill="none" stroke="rgb(255, 255, 0)" stroke-width="2.40" stroke-opacity="1.00" stroke-linejoin="round"/>
<path d="M342.54,298.43 C341.85,298.43 340.24,298.48 339.91,298.90 C339.39,299.60 339.07,301.38 339.52,302.02 C340.64,301.87 341.26,301.57 341.55,300.90 C342.15,299.48 341.88,298.20 341.55,297.53 C339.64,297.47 339.09,298.81 338.89,299.62 C339.36,300.01 339.70,300.24 339.90,300.34 C340.10,300.43 340.45,300.50 340.94,300.56" fill="none" stroke="rgb(255, 255, 0)" stroke-width="2.40" stroke-opacity="1.00" stroke-linejoin="round"/>
<path d="M322.52,282.41 C322.52,282.41 320.70,282.77 320.70,282.77 C320.50,284.35 319.50,288.61 318.69,290.90 C317.75,293.49 313.95,301.84 313.37,304.49 C313.17,305.44 312.37,312.20 311.47,314.15 C311.26,314.62 310.70,315.73 309.80,317.49 C309.80,317.49 310.24,316.85 310.24,316.85" fill="none" stroke="rgb(255, 255, 0)" stroke-width="2.40" stroke-opacity="1.00" stroke-linejoin="round"/>
<path d="M315.31,297.09 C314.78,297.10 314.11,297.09 313.99,297.13 C313.67,297.23 309.05,298.57 306.15,298.39 C305.75,298.37 305.05,298.29 304.04,298.17 C304.04,298.17 298.93,317.99 298.93,317.99 C298.93,317.99 299.48,317.00 299.48,317.00" fill="none" stroke="rgb(255, 255, 0)" stroke-width="2.40" stroke-opacity="1.00" stroke-linejoin="round"/>
<path d="M305.97,299.50 C305.39,299.52 304.82,299.82 304.32,300.44 C303.68,301.26 299.78,317.11 300.11,318.57 C300.11,318.57 306.10,300.87 306.10,300.87 C306.10,300.87 303.01,318.02 303.01,318.02 C303.01,318.02 309.03,301.81 309.03,301.81 C309.03,301.81 306.70,317.03 306.70,317.03 C306.70,317.03 311.74,299.66 311.74,299.66 C311.74,299.66 309.30,317.84 309.30,317.84 C309.30,317.84 312.85,303.01 312.85,303.01 C312.85,303.01 310.80,318.14 310.80,318.14 C310.80,318.14 310.51,317.92 310.51,317.92" fill="none" stroke="rgb(255, 255, 0)" stroke-width="2.40" stroke-opacity="1.00" stroke-linejoin="round"/>
<path d="M311.04,317.11 C311.04,317.11 308.54,320.53 308.54,320.53 C307.08,320.52 302.42,318.56 301.29,318.70 C301.14,318.73 301.00,318.80 300.86,318.91 C300.86,318.91 306.67,320.03 306.67,320.03 C306.67,320.03 299.90,320.21 299.90,320.21 C299.90,320.21 300.10,321.65 300.10,321.65" fill="none" stroke="rgb(255, 255, 0)" stroke-width="2.40" stroke-opacity="1.00" stroke-linejoin="round"/>
<path d="M306.77,311.78 C306.06,311.77 305.33,311.79 305.27,311.78 C304.95,311.71 299.46,310.81 299.41,310.73 C299.41,310.73 301.16,311.24 301.16,311.24" fill="none" stroke="rgb(255, 255, 0)" stroke-width="2.40" stroke-opacity="1.00" stroke-linejoin="round"/>
<path d="M311.84,303.77 C310.92,304.59 308.90,307.52 308.62,308.86 C308.55,309.19 308.44,309.98 308.28,311.22" fill="none" stroke="rgb(255, 255, 0)" stroke-width="2.40" stroke-opacity="1.00" stroke-linejoin="round"/>
<path d="M302.77,297.63 C302.77,297.63 301.30,297.37 301.30,297.37 C300.78,294.00 307.62,287.27 309.32,285.77 C308.81,284.27 308.24,283.55 307.15,283.33 C305.25,282.97 303.38,284.15 302.82,285.12 C301.25,287.94 300.51,292.29 300.72,293.56 C301.61,293.37 302.08,293.10 302.54,292.23 C304.27,288.96 304.78,286.38 304.62,286.19 C303.13,287.23 301.29,294.47 301.79,295.10 C304.85,292.98 305.52,287.52 305.52,286.28 C304.19,286.35 303.06,287.35 302.31,289.45 C301.74,291.06 301.05,296.18 300.90,297.36" fill="none" stroke="rgb(255, 255, 0)" stroke-width="2.40" stroke-opacity="1.00" stroke-linejoin="round"/>
<path d="M369.77,290.69 C369.77,290.69 369.32,290.42 369.32,290.42 C368.60,291.34 367.04,292.23 364.03,292.29 C359.86,292.31 358.34,292.53 357.71,292.71 C355.78,295.31 351.60,317.74 351.37,318.98 C351.37,318.98 352.42,315.78 352.42,315.78" fill="none" stroke="rgb(255, 255, 0)" stroke-width="2.40" stroke-opacity="1.00" stroke-linejoin="round"/>
<path d="M371.90,282.14 C371.53,282.14 371.28,282.14 371.15,282.14 C371.02,282.15 370.82,282.17 370.57,282.19 C370.40,285.35 367.47,303.65 366.98,305.18 C366.45,306.82 363.47,315.54 362.99,317.89 C362.99,317.89 363.10,316.31 363.10,316.31" fill="none" stroke="rgb(255, 255, 0)" stroke-width="2.40" stroke-opacity="1.00" stroke-linejoin="round"/>
<path d="M368.17,294.69 C368.17,294.69 368.03,294.29 368.03,294.29 C367.49,293.97 367.21,293.81 367.20,293.80 C363.78,292.05 358.06,295.14 357.59,295.53 C357.59,295.53 351.91,317.99 351.91,317.99 C353.49,315.50 358.85,297.95 358.95,297.65 C359.08,297.24 359.37,296.41 359.81,295.17 C359.59,297.15 354.91,315.84 354.92,316.78 C354.92,316.99 355.01,317.16 355.18,317.29 C356.58,315.69 361.10,298.73 362.01,295.76 C362.15,295.33 362.34,294.73 362.60,293.95 C362.60,293.95 357.59,317.22 357.59,317.22 C357.59,317.22 364.78,294.47 364.78,294.47 C364.78,294.47 359.43,318.43 359.43,318.43 C359.43,318.43 366.70,294.76 366.70,294.76 C366.70,294.76 361.07,319.31 361.07,319.31 C361.07,319.31 367.24,296.53 367.24,296.53 C367.24,296.53 362.92,315.25 362.92,315.25 C362.92,315.25 363.36,314.18 363.36,314.18" fill="none" stroke="rgb(255, 255, 0)" stroke-width="2.40" stroke-opacity="1.00" stroke-linejoin="round"/>
<path d="M361.23,317.65 C361.01,317.65 360.01,317.64 359.87,317.65 C359.23,317.69 353.14,319.58 352.01,319.97 C352.01,319.97 358.49,318.87 358.49,318.87 C358.38,318.87 357.24,318.99 356.48,318.97 C355.95,318.95 354.69,318.87 352.68,318.72" fill="none" stroke="rgb(255, 255, 0)" stroke-width="2.40" stroke-opacity="1.00" stroke-linejoin="round"/>
<path d="M348.41,319.78 C348.41,319.78 347.07,320.01 347.07,320.01 C346.41,318.33 350.42,287.57 349.87,278.22 C349.81,277.16 349.48,273.55 349.37,272.52 C349.34,272.21 349.28,271.77 349.21,271.20" fill="none" stroke="rgb(255, 255, 0)" stroke-width="2.40" stroke-opacity="1.00" stroke-linejoin="round"/>
<path d="M385.25,260.79 C385.25,260.79 384.45,260.25 384.45,260.25 C384.45,260.21 384.45,261.40 384.45,262.42 C384.46,267.75 382.64,277.40 380.05,286.80 C374.08,309.34 370.75,317.75 370.52,318.27 C370.52,318.27 370.30,318.18 370.30,318.18" fill="none" stroke="rgb(255, 255, 0)" stroke-width="2.40" stroke-opacity="1.00" stroke-linejoin="round"/>
<path d="M378.58,303.23 C378.58,303.23 377.58,303.23 377.58,303.23 C377.58,303.23 377.24,303.50 377.24,303.50 C377.35,303.47 378.25,303.69 380.18,304.26 C380.54,304.36 380.89,304.46 381.25,304.57" fill="none" stroke="rgb(255, 255, 0)" stroke-width="2.40" stroke-opacity="1.00" stroke-linejoin="round"/>
<path d="M379.65,296.29 C379.38,296.29 379.11,296.29 378.85,296.29 C378.77,296.29 378.69,296.29 378.61,296.29 C380.51,296.34 381.17,296.46 381.33,296.48 C381.46,296.50 381.88,296.53 382.58,296.56" fill="none" stroke="rgb(255, 255, 0)" stroke-width="2.40" stroke-opacity="1.00" stroke-linejoin="round"/>
<path d="M382.85,283.48 C382.85,283.48 382.08,284.45 382.08,284.45 C383.16,284.96 384.81,285.27 385.88,285.04 C386.16,284.98 386.48,284.82 386.85,284.55" fill="none" stroke="rgb(255, 255, 0)" stroke-width="2.40" stroke-opacity="1.00" stroke-linejoin="round"/>
<path d="M384.99,271.47 C384.99,271.47 383.12,271.73 383.12,271.73 C383.56,271.72 385.01,271.94 385.59,271.98 C385.92,272.00 386.52,272.01 387.39,272.00" fill="none" stroke="rgb(255, 255, 0)" stroke-width="2.40" stroke-opacity="1.00" stroke-linejoin="round"/>
<path d="M406.61,288.28 C406.61,288.28 406.61,288.15 406.61,288.15 C406.50,288.04 406.16,287.97 405.86,288.02 C404.83,288.24 389.78,294.83 387.20,295.97 C387.20,295.97 387.39,295.76 387.39,295.76" fill="none" stroke="rgb(255, 255, 0)" stroke-width="2.40" stroke-opacity="1.00" stroke-linejoin="round"/>
<path d="M388.99,290.42 C388.99,290.42 386.32,292.00 386.32,292.00 C386.49,294.07 386.40,295.90 385.55,299.23 C383.31,307.57 379.54,315.19 379.46,315.47 C379.36,315.82 379.33,316.37 379.38,317.11" fill="none" stroke="rgb(255, 255, 0)" stroke-width="2.40" stroke-opacity="1.00" stroke-linejoin="round"/>
<path d="M404.21,290.15 C404.21,290.15 404.47,290.15 404.47,290.15 C404.51,290.07 404.57,289.92 404.70,289.89 C405.97,289.48 407.74,287.89 408.38,287.14 C408.37,287.23 404.64,300.55 401.84,306.78 C399.72,311.41 394.08,318.63 393.88,318.81 C393.88,318.81 393.53,317.65 393.53,317.65" fill="none" stroke="rgb(255, 255, 0)" stroke-width="2.40" stroke-opacity="1.00" stroke-linejoin="round"/>
<path d="M402.60,300.03 C402.07,300.02 401.69,300.02 401.47,300.03 C401.25,300.04 400.87,300.05 400.33,300.08 C400.33,300.08 399.22,304.96 399.22,304.96 C400.32,304.79 400.94,304.44 401.35,303.62 C402.08,302.14 402.43,299.55 401.88,298.68 C400.38,299.46 399.48,300.28 399.11,301.42 C398.78,302.42 398.84,303.30 399.15,304.06 C401.04,303.61 402.04,303.10 402.51,302.20 C402.87,301.52 402.95,301.03 402.87,300.58 C402.87,300.58 400.59,301.77 400.59,301.77 C400.82,302.10 400.99,302.30 401.11,302.39 C401.23,302.49 401.46,302.59 401.80,302.70" fill="none" stroke="rgb(255, 255, 0)" stroke-width="2.40" stroke-opacity="1.00" stroke-linejoin="round"/>
<path d="M381.25,314.98 C381.25,314.98 380.18,314.98 380.18,314.98 C380.18,314.98 378.32,319.42 378.32,319.42 C378.32,319.42 378.58,318.98 378.58,318.98" fill="none" stroke="rgb(255, 255, 0)" stroke-width="2.40" stroke-opacity="1.00" stroke-linejoin="round"/>
<path d="M405.54,317.11 C405.54,317.11 403.97,317.06 403.97,317.06 C403.97,317.06 410.28,304.03 410.28,304.03 C414.11,304.11 417.59,304.44 417.78,304.28 C417.85,304.21 417.95,304.13 418.09,304.03" fill="none" stroke="rgb(255, 255, 0)" stroke-width="2.40" stroke-opacity="1.00" stroke-linejoin="round"/>
<path d="M423.43,290.95 C423.43,290.95 423.16,289.64 423.16,289.64 C423.16,289.64 415.36,317.10 415.36,317.10 C415.36,317.10 414.88,316.85 414.88,316.85" fill="none" stroke="rgb(255, 255, 0)" stroke-width="2.40" stroke-opacity="1.00" stroke-linejoin="round"/>
<path d="M415.42,307.77 C415.08,307.78 414.85,307.78 414.75,307.77 C414.65,307.76 414.51,307.73 414.35,307.66 C414.35,307.66 414.12,306.08 414.12,306.08 C414.12,306.08 410.52,305.82 410.52,305.82 C410.52,305.82 405.41,319.66 405.41,319.66 C405.41,319.66 412.82,306.92 412.82,306.92 C412.82,306.92 409.42,318.37 409.42,318.37 C409.42,318.37 414.64,307.15 414.64,307.15 C414.64,307.15 412.61,318.53 412.61,318.53 C412.61,318.53 415.56,307.58 415.56,307.58 C415.56,307.58 414.14,318.10 414.14,318.10 C414.14,318.10 416.12,307.31 416.12,307.31 C416.12,307.31 413.83,321.04 413.83,321.04 C413.83,321.04 413.62,319.12 413.62,319.12 C412.03,317.90 404.35,319.04 403.18,319.60 C403.18,319.60 405.50,316.16 405.50,316.16 C405.50,316.16 402.87,324.06 402.87,324.06" fill="none" stroke="rgb(255, 255, 0)" stroke-width="2.40" stroke-opacity="1.00" stroke-linejoin="round"/>
<path d="M416.22,304.03 C415.27,304.64 414.62,305.10 414.39,305.42 C414.13,305.81 413.50,307.35 413.46,307.89 C413.45,308.16 413.47,308.75 413.55,309.64" fill="none" stroke="rgb(255, 255, 0)" stroke-width="2.40" stroke-opacity="1.00" stroke-linejoin="round"/>
</g>
</svg>
