<?xml version="1.0" encoding="UTF-8" standalone="no"?>
<!DOCTYPE svg PUBLIC "-//W3C//DTD SVG 1.1//EN" "http://www.w3.org/Graphics/SVG/1.1/DTD/svg11.dtd">
<svg width="128.40" height="181.68" viewBox="0.00 0.00 535.00 757.00" xmlns="http://www.w3.org/2000/svg" xmlns:xlink="http://www.w3.org/1999/xlink">
<g stroke-linecap="round" id="140-지면">
<path d="M3.88,508.97 C3.88,508.97 3.38,508.67 3.38,508.67 C3.38,508.67 2.77,507.03 2.77,507.03 C4.93,507.79 9.39,509.25 11.91,509.27 C17.65,509.28 92.33,498.45 94.67,498.19 C124.13,495.60 176.82,491.21 205.94,489.05 C228.61,487.15 247.28,486.14 262.59,485.78 C287.71,485.49 299.60,484.79 321.82,484.33 C351.90,484.24 411.58,483.96 441.65,484.38 C460.32,484.60 514.57,478.66 531.63,476.77 C531.63,476.77 530.97,477.12 530.97,477.12" fill="none" stroke="rgb(0, 0, 255)" stroke-width="2.40" stroke-opacity="1.00" stroke-linejoin="round"/>
<path d="M6.60,525.27 C6.60,525.27 6.99,523.56 6.99,523.56 C6.99,523.56 6.53,523.42 6.53,523.42 C6.53,523.42 4.03,524.91 4.03,524.91 C4.95,525.66 9.15,525.67 12.13,525.34 C15.42,524.96 20.78,523.69 22.13,523.36 C22.13,523.36 21.79,523.91 21.79,523.91" fill="none" stroke="rgb(0, 255, 255)" stroke-width="2.40" stroke-opacity="1.00" stroke-linejoin="round"/>
<path d="M12.03,539.63 C11.51,539.61 10.64,539.69 10.19,539.82 C10.07,539.86 9.96,539.93 9.86,540.02 C9.86,540.02 33.33,536.59 33.33,536.59 C33.33,536.59 31.62,537.11 31.62,537.11" fill="none" stroke="rgb(0, 255, 255)" stroke-width="2.40" stroke-opacity="1.00" stroke-linejoin="round"/>
<path d="M14.75,556.32 C14.75,556.32 14.75,556.12 14.75,556.12 C14.75,556.12 14.36,555.74 14.36,555.74 C14.36,555.74 14.36,555.29 14.36,555.29 C14.36,555.29 40.64,548.99 40.64,548.99 C40.64,548.99 39.72,548.94 39.72,548.94" fill="none" stroke="rgb(0, 255, 255)" stroke-width="2.40" stroke-opacity="1.00" stroke-linejoin="round"/>
<path d="M45.41,518.29 C44.60,518.23 44.08,518.16 43.85,518.09 C43.63,518.02 43.37,517.85 43.08,517.57 C43.08,517.57 60.99,515.62 60.99,515.62 C60.99,515.62 60.39,516.12 60.39,516.12" fill="none" stroke="rgb(0, 255, 255)" stroke-width="2.40" stroke-opacity="1.00" stroke-linejoin="round"/>
<path d="M47.35,531.09 C47.35,531.09 44.63,530.70 44.63,530.70 C44.63,530.70 62.88,529.70 62.88,529.70 C62.88,529.70 62.24,529.81 62.24,529.81" fill="none" stroke="rgb(0, 255, 255)" stroke-width="2.40" stroke-opacity="1.00" stroke-linejoin="round"/>
<path d="M54.33,542.73 C54.33,542.73 53.56,541.62 53.56,541.62 C58.79,543.55 65.20,543.09 66.51,542.79 C67.03,542.67 68.08,542.37 69.67,541.89" fill="none" stroke="rgb(0, 255, 255)" stroke-width="2.40" stroke-opacity="1.00" stroke-linejoin="round"/>
<path d="M72.57,516.73 C72.57,516.73 72.83,515.87 72.83,515.87 C74.75,515.61 90.74,516.55 97.28,515.70 C100.40,515.28 103.34,514.54 104.28,514.24 C104.28,514.24 103.83,514.26 103.83,514.26" fill="none" stroke="rgb(0, 255, 255)" stroke-width="2.40" stroke-opacity="1.00" stroke-linejoin="round"/>
<path d="M76.84,526.82 C76.84,526.82 75.48,526.82 75.48,526.82 C92.34,528.39 102.48,526.50 104.40,526.02 C104.40,526.02 104.18,525.64 104.18,525.64" fill="none" stroke="rgb(0, 255, 255)" stroke-width="2.40" stroke-opacity="1.00" stroke-linejoin="round"/>
<path d="M83.83,543.12 C83.83,543.12 82.47,542.54 82.47,542.54 C82.37,542.35 82.54,541.64 89.99,541.21 C94.04,541.00 100.63,540.66 101.45,540.54 C102.02,540.45 103.15,540.22 104.87,539.83" fill="none" stroke="rgb(0, 255, 255)" stroke-width="2.40" stroke-opacity="1.00" stroke-linejoin="round"/>
<path d="M117.59,520.23 C117.59,520.23 116.23,518.67 116.23,518.67 C116.23,518.67 116.43,517.57 116.43,517.57 C116.43,517.57 142.57,517.23 142.57,517.23 C142.57,517.23 141.89,517.75 141.89,517.75" fill="none" stroke="rgb(0, 255, 255)" stroke-width="2.40" stroke-opacity="1.00" stroke-linejoin="round"/>
<path d="M113.71,534.97 C113.71,534.97 113.08,534.43 113.08,534.43 C113.08,534.43 148.72,531.62 148.72,531.62 C148.72,531.62 148.27,532.04 148.27,532.04" fill="none" stroke="rgb(0, 255, 255)" stroke-width="2.40" stroke-opacity="1.00" stroke-linejoin="round"/>
<path d="M120.70,549.72 C120.70,549.72 119.92,549.72 119.92,549.72 C122.07,549.34 149.10,548.30 149.99,548.13 C150.37,548.05 151.16,547.87 152.36,547.58" fill="none" stroke="rgb(0, 255, 255)" stroke-width="2.40" stroke-opacity="1.00" stroke-linejoin="round"/>
<path d="M158.73,518.29 C158.73,518.29 157.95,517.59 157.95,517.59 C159.47,517.30 160.33,517.28 162.31,517.57 C165.99,518.11 180.85,518.94 184.30,519.08 C184.30,519.08 183.61,519.34 183.61,519.34" fill="none" stroke="rgb(0, 255, 255)" stroke-width="2.40" stroke-opacity="1.00" stroke-linejoin="round"/>
<path d="M161.06,536.14 C161.06,536.14 160.67,534.58 160.67,534.58 C162.14,533.03 175.44,534.09 183.59,534.64 C187.64,534.85 194.14,535.15 194.51,535.21 C194.79,535.26 195.13,535.40 195.52,535.63" fill="none" stroke="rgb(0, 255, 255)" stroke-width="2.40" stroke-opacity="1.00" stroke-linejoin="round"/>
<path d="M165.33,550.88 C165.33,550.88 165.73,549.14 165.73,549.14 C168.11,548.42 181.97,548.99 189.42,548.72 C196.08,548.47 203.72,548.19 204.70,548.17" fill="none" stroke="rgb(0, 255, 255)" stroke-width="2.40" stroke-opacity="1.00" stroke-linejoin="round"/>
<path d="M214.23,513.63 C214.23,513.63 213.45,513.56 213.45,513.56 C214.40,512.85 222.59,513.00 234.66,514.29 C238.00,514.66 243.64,515.29 245.94,515.55 C245.94,515.55 244.11,515.57 244.11,515.57" fill="none" stroke="rgb(0, 255, 255)" stroke-width="2.40" stroke-opacity="1.00" stroke-linejoin="round"/>
<path d="M209.57,529.15 C209.57,529.15 208.75,525.72 208.75,525.72 C208.75,525.72 241.96,533.25 241.96,533.25 C241.96,533.25 241.95,533.42 241.95,533.42" fill="none" stroke="rgb(0, 255, 255)" stroke-width="2.40" stroke-opacity="1.00" stroke-linejoin="round"/>
<path d="M216.94,542.35 C216.94,542.35 216.75,542.35 216.75,542.35 C216.75,542.35 216.36,542.04 216.36,542.04 C216.36,542.04 216.38,541.65 216.38,541.65 C218.82,541.38 229.31,543.93 238.36,544.92 C240.12,545.11 243.30,545.36 243.41,545.38 C243.58,545.42 243.83,545.54 244.15,545.72" fill="none" stroke="rgb(0, 255, 255)" stroke-width="2.40" stroke-opacity="1.00" stroke-linejoin="round"/>
<path d="M262.35,511.30 C262.35,511.30 260.41,509.36 260.41,509.36 C261.89,509.42 278.64,512.17 282.53,512.63 C295.78,514.18 313.15,514.40 314.68,514.40 C314.68,514.40 310.09,514.79 310.09,514.79" fill="none" stroke="rgb(0, 255, 255)" stroke-width="2.40" stroke-opacity="1.00" stroke-linejoin="round"/>
<path d="M261.19,530.70 C261.75,530.70 263.32,530.71 264.32,530.71 C267.88,530.76 282.35,533.11 287.66,533.47 C301.53,534.40 316.00,532.63 318.28,531.87 C318.28,531.87 314.74,532.64 314.74,532.64" fill="none" stroke="rgb(0, 255, 255)" stroke-width="2.40" stroke-opacity="1.00" stroke-linejoin="round"/>
<path d="M267.78,550.11 C269.74,549.32 271.00,549.37 274.09,550.53 C279.15,552.44 293.29,553.95 301.50,553.89 C303.81,553.86 308.83,553.79 309.37,553.69 C309.74,553.61 310.25,553.39 310.89,553.01" fill="none" stroke="rgb(0, 255, 255)" stroke-width="2.40" stroke-opacity="1.00" stroke-linejoin="round"/>
<path d="M324.06,514.79 C324.06,514.79 324.51,513.05 324.51,513.05 C324.51,513.05 324.83,512.85 324.83,512.85 C326.12,514.10 330.31,515.59 333.24,516.22 C338.60,517.34 348.05,517.88 349.26,517.59 C349.46,517.54 349.73,517.41 350.06,517.20" fill="none" stroke="rgb(0, 255, 255)" stroke-width="2.40" stroke-opacity="1.00" stroke-linejoin="round"/>
<path d="M332.59,533.81 C332.59,533.81 331.58,533.42 331.58,533.42 C344.94,533.99 366.38,534.60 367.27,534.40 C367.58,534.33 368.15,534.12 368.98,533.76" fill="none" stroke="rgb(0, 255, 255)" stroke-width="2.40" stroke-opacity="1.00" stroke-linejoin="round"/>
<path d="M321.73,553.21 C321.73,553.21 321.86,552.63 321.86,552.63 C322.95,552.46 323.77,552.53 325.18,553.00 C330.32,554.69 343.32,556.69 351.16,556.54 C358.56,556.36 366.60,554.44 367.11,554.23 C367.36,554.13 367.60,553.94 367.81,553.67" fill="none" stroke="rgb(0, 255, 255)" stroke-width="2.40" stroke-opacity="1.00" stroke-linejoin="round"/>
<path d="M376.84,519.06 C377.23,518.62 378.22,518.15 379.18,518.07 C380.07,518.02 387.02,520.22 390.49,520.93 C396.98,522.23 405.45,522.55 406.53,522.59 C406.53,522.59 404.39,523.33 404.39,523.33" fill="none" stroke="rgb(0, 255, 255)" stroke-width="2.40" stroke-opacity="1.00" stroke-linejoin="round"/>
<path d="M374.90,533.03 C375.90,532.78 378.37,532.05 381.55,532.48 C383.02,532.69 398.65,536.46 404.67,537.29 C412.96,538.41 420.16,538.30 420.80,537.92 C420.80,537.92 418.36,537.30 418.36,537.30" fill="none" stroke="rgb(0, 255, 255)" stroke-width="2.40" stroke-opacity="1.00" stroke-linejoin="round"/>
<path d="M380.33,553.21 C380.33,553.21 379.55,553.21 379.55,553.21 C383.98,553.84 399.14,553.98 400.16,553.67 C400.43,553.59 400.85,553.34 401.43,552.93" fill="none" stroke="rgb(0, 255, 255)" stroke-width="2.40" stroke-opacity="1.00" stroke-linejoin="round"/>
<path d="M432.33,506.64 C432.33,506.64 430.05,506.59 430.05,506.59 C435.97,504.56 463.38,501.90 471.56,501.23 C471.56,501.23 466.87,503.15 466.87,503.15" fill="none" stroke="rgb(0, 255, 255)" stroke-width="2.40" stroke-opacity="1.00" stroke-linejoin="round"/>
<path d="M427.29,525.66 C429.06,524.63 431.56,524.02 434.25,524.11 C437.26,524.24 452.89,525.45 461.39,525.44 C465.18,525.41 470.55,524.85 472.41,524.57 C472.41,524.57 470.76,525.27 470.76,525.27" fill="none" stroke="rgb(0, 255, 255)" stroke-width="2.40" stroke-opacity="1.00" stroke-linejoin="round"/>
<path d="M431.56,552.83 C431.56,552.83 425.50,554.38 425.50,554.38 C425.50,554.38 476.29,547.05 476.29,547.05 C476.29,547.05 474.64,547.78 474.64,547.78" fill="none" stroke="rgb(0, 255, 255)" stroke-width="2.40" stroke-opacity="1.00" stroke-linejoin="round"/>
<path d="M486.67,506.25 C486.67,506.25 486.47,506.25 486.47,506.25 C486.47,506.25 485.91,505.48 485.91,505.48 C485.88,505.48 503.84,505.66 509.94,505.76 C513.57,505.80 515.55,505.70 515.80,505.61 C515.80,505.61 513.06,505.48 513.06,505.48" fill="none" stroke="rgb(0, 255, 255)" stroke-width="2.40" stroke-opacity="1.00" stroke-linejoin="round"/>
<path d="M482.79,524.11 C482.79,524.11 480.46,523.72 480.46,523.72 C482.49,523.77 506.10,525.56 509.69,525.64 C510.11,525.65 510.69,525.66 511.42,525.66 C511.42,525.66 509.18,526.44 509.18,526.44" fill="none" stroke="rgb(0, 255, 255)" stroke-width="2.40" stroke-opacity="1.00" stroke-linejoin="round"/>
<path d="M482.40,548.17 C482.49,547.04 483.02,545.94 484.02,545.05 C485.11,544.10 490.76,544.96 492.53,545.15 C498.26,545.77 506.19,545.87 511.69,545.55 C511.69,545.55 510.76,545.15 510.76,545.15" fill="none" stroke="rgb(0, 255, 255)" stroke-width="2.40" stroke-opacity="1.00" stroke-linejoin="round"/>
</g>
</svg>
