<?xml version="1.0" encoding="UTF-8" standalone="no"?>
<!DOCTYPE svg PUBLIC "-//W3C//DTD SVG 1.1//EN" "http://www.w3.org/Graphics/SVG/1.1/DTD/svg11.dtd">
<svg width="128.40" height="181.68" viewBox="0.00 0.00 535.00 757.00" xmlns="http://www.w3.org/2000/svg" xmlns:xlink="http://www.w3.org/1999/xlink">
<g stroke-linecap="round" transform="translate(44.00, 155.00)" id="141-번개-3">
<path d="M154.77,119.23 C154.77,119.23 151.52,119.23 151.52,119.23 C149.68,125.90 145.63,134.18 140.65,142.09 C138.34,145.75 130.93,164.42 130.00,167.31 C129.12,170.11 124.58,188.41 124.90,189.69 C125.12,190.47 136.26,202.58 139.42,207.17 C141.41,210.07 148.23,222.04 149.41,223.57 C141.68,231.03 131.95,241.43 129.37,244.90 C128.09,246.66 127.26,250.63 127.15,251.53 C128.01,251.21 141.74,243.13 148.26,240.29 C152.33,238.56 157.02,236.76 159.25,236.14 C161.63,235.51 169.36,235.14 170.78,234.91 C171.86,234.73 172.50,234.43 172.98,233.97 C167.34,223.75 158.69,201.95 150.72,186.56 C149.56,184.28 146.51,177.93 146.49,177.78 C146.32,176.46 155.82,164.51 159.65,160.33 C169.66,150.12 192.46,126.02 193.68,124.92 C193.68,124.92 192.89,125.72 192.89,125.72" fill="none" stroke="rgb(0, 255, 0)" stroke-width="2.40" stroke-opacity="1.00" stroke-linejoin="round"/>
</g>
</svg>
