<?xml version="1.0" encoding="UTF-8" standalone="no"?>
<!DOCTYPE svg PUBLIC "-//W3C//DTD SVG 1.1//EN" "http://www.w3.org/Graphics/SVG/1.1/DTD/svg11.dtd">
<svg width="128.40" height="181.68" viewBox="0.00 0.00 535.00 757.00" xmlns="http://www.w3.org/2000/svg" xmlns:xlink="http://www.w3.org/1999/xlink">
<g stroke-linecap="round" transform="translate(44.00, 155.00)" id="141-번개-2">
<path d="M100.01,119.64 C100.01,119.64 97.59,120.85 97.59,120.85 C97.74,120.88 98.95,120.57 99.45,120.53 C100.97,120.44 105.17,123.13 107.03,124.93 C108.55,126.43 111.59,130.36 111.72,131.98 C111.92,135.59 107.04,146.55 104.87,151.26 C101.68,159.00 97.60,169.32 96.62,171.82 C97.94,172.32 106.10,172.67 108.26,172.91 C111.07,173.25 113.54,174.12 114.23,174.64 C113.65,176.10 110.22,179.44 108.86,181.26 C106.76,184.09 93.91,207.19 92.47,209.50 C92.47,209.50 105.77,210.90 105.77,210.90 C101.56,217.22 98.50,224.66 95.28,234.11 C82.95,271.78 79.79,290.43 79.59,291.89 C82.06,288.15 89.77,274.42 93.15,268.28 C99.75,256.72 101.75,253.06 104.60,245.81 C106.86,239.98 115.49,213.95 115.56,212.04 C115.58,211.20 112.06,205.24 111.30,203.40 C110.90,202.41 112.23,199.93 113.82,196.30 C115.19,193.15 122.82,173.91 124.36,170.58 C125.16,168.86 125.29,168.09 125.06,167.21 C125.06,167.21 113.78,161.13 113.78,161.13 C114.03,160.72 120.11,154.60 121.91,152.41 C127.29,145.80 128.15,142.92 128.06,141.96 C128.06,141.96 117.11,120.73 117.11,120.73 C117.11,120.73 116.64,121.67 116.64,121.67" fill="none" stroke="rgb(0, 255, 0)" stroke-width="2.40" stroke-opacity="1.00" stroke-linejoin="round"/>
</g>
</svg>
