<?xml version="1.0" encoding="UTF-8" standalone="no"?>
<!DOCTYPE svg PUBLIC "-//W3C//DTD SVG 1.1//EN" "http://www.w3.org/Graphics/SVG/1.1/DTD/svg11.dtd">
<svg width="128.40" height="181.68" viewBox="0.00 0.00 535.00 757.00" xmlns="http://www.w3.org/2000/svg" xmlns:xlink="http://www.w3.org/1999/xlink">
<g stroke-linecap="round" transform="translate(44.00, 155.00)" id="141-우산">
<path d="M345.40,172.37 C345.40,172.37 344.19,173.18 344.19,173.18 C344.56,170.93 344.43,169.74 342.41,167.32 C339.34,163.83 336.59,161.75 331.83,159.99 C329.75,159.26 325.13,158.25 322.94,158.21 C320.93,158.20 315.97,159.22 313.79,159.96 C311.19,160.86 306.14,163.47 303.61,166.15 C302.51,167.33 295.87,175.92 294.50,177.52 C292.61,179.76 290.23,183.26 288.66,187.83 C286.82,192.90 286.33,197.92 286.89,199.12 C286.94,199.21 288.35,201.38 288.84,201.48 C291.90,202.02 299.07,201.98 299.05,201.98 C298.35,201.70 299.51,196.85 300.56,193.89 C304.50,182.87 318.50,157.90 319.46,157.21 C319.69,157.06 320.19,156.84 320.96,156.57" fill="none" stroke="rgb(229, 0, 16)" stroke-width="2.40" stroke-opacity="1.00" stroke-linejoin="round"/>
<path d="M322.28,159.79 C322.28,159.79 321.47,160.20 321.47,160.20 C321.06,160.98 317.67,186.33 316.83,191.95 C316.33,194.58 314.25,201.51 313.83,204.40 C313.83,204.40 313.77,204.01 313.77,204.01" fill="none" stroke="rgb(229, 0, 16)" stroke-width="2.40" stroke-opacity="1.00" stroke-linejoin="round"/>
<path d="M300.38,203.60 C300.38,203.60 298.81,204.01 298.81,204.01 C303.47,203.98 323.06,202.88 324.99,203.30 C325.13,203.33 325.45,203.43 325.93,203.60" fill="none" stroke="rgb(229, 0, 16)" stroke-width="2.40" stroke-opacity="1.00" stroke-linejoin="round"/>
<path d="M317.01,206.03 C317.01,206.03 315.19,207.05 315.19,207.05 C315.00,207.25 337.61,207.23 339.31,207.56 C341.15,207.96 345.16,211.17 345.77,211.54 C346.10,192.05 345.39,177.88 345.28,176.53 C345.03,173.67 343.89,169.49 343.38,167.91" fill="none" stroke="rgb(229, 0, 16)" stroke-width="2.40" stroke-opacity="1.00" stroke-linejoin="round"/>
<path d="M324.31,163.04 C324.31,163.04 323.70,163.04 323.70,163.04 C323.70,164.76 326.25,169.65 326.81,170.80 C329.36,176.05 332.11,185.39 334.49,195.77 C337.00,206.23 337.35,207.87 337.56,208.89 C337.74,209.83 337.92,210.77 338.10,211.71" fill="none" stroke="rgb(229, 0, 16)" stroke-width="2.40" stroke-opacity="1.00" stroke-linejoin="round"/>
<path d="M319.04,158.58 C319.04,158.58 318.23,158.58 318.23,158.58 C318.20,157.37 318.59,155.45 319.30,153.95 C319.96,152.58 320.89,151.63 321.41,151.53 C322.14,151.62 322.77,151.92 323.44,152.61 C324.13,153.35 324.50,155.10 324.47,157.35 C324.46,157.85 324.40,158.66 324.31,159.79" fill="none" stroke="rgb(229, 0, 16)" stroke-width="2.40" stroke-opacity="1.00" stroke-linejoin="round"/>
<path d="M317.82,205.63 C317.27,205.40 316.93,205.26 316.81,205.22 C316.69,205.18 316.62,205.18 316.61,205.22 C316.61,208.25 316.62,214.84 316.64,218.42 C316.62,221.51 314.78,239.69 314.30,246.71 C314.19,248.34 314.17,255.94 314.14,256.57 C313.95,260.59 310.62,268.49 309.50,269.52 C307.92,270.95 306.04,272.03 305.35,272.03 C304.38,271.53 303.68,270.90 303.35,269.70 C302.95,268.23 302.37,265.20 302.38,264.88 C301.17,265.52 300.90,268.58 301.87,271.46 C302.80,274.14 304.80,277.23 305.84,277.69 C306.96,277.49 310.58,274.65 312.50,272.29 C314.77,269.43 317.27,263.80 317.80,261.20 C318.70,256.48 322.07,235.46 322.24,233.62 C322.49,230.69 323.12,215.31 322.80,207.95 C322.74,206.31 322.70,203.51 322.69,202.38" fill="none" stroke="rgb(229, 0, 16)" stroke-width="2.40" stroke-opacity="1.00" stroke-linejoin="round"/>
</g>
</svg>
