<?xml version="1.0" encoding="UTF-8" standalone="no"?>
<!DOCTYPE svg PUBLIC "-//W3C//DTD SVG 1.1//EN" "http://www.w3.org/Graphics/SVG/1.1/DTD/svg11.dtd">
<svg width="128.40" height="181.68" viewBox="0.00 0.00 535.00 757.00" xmlns="http://www.w3.org/2000/svg" xmlns:xlink="http://www.w3.org/1999/xlink">
<g stroke-linecap="round" transform="translate(44.00, 155.00)" id="141-나무-1">
<path d="M39.98,253.08 C39.76,253.09 39.59,253.09 39.48,253.08 C37.86,252.99 32.63,249.84 31.38,249.18 C30.11,248.50 19.12,242.51 18.90,242.58 C18.90,242.58 25.51,259.75 25.51,259.75 C25.51,259.75 10.82,259.29 10.82,259.29 C10.82,259.29 30.40,271.66 30.40,271.66 C30.63,272.29 37.77,309.89 40.57,325.33 C44.31,346.02 46.59,368.26 48.24,381.08 C48.47,382.95 49.07,389.96 49.17,392.69 C49.29,396.08 48.78,400.84 47.88,403.68 C47.41,405.11 46.18,407.97 45.49,409.17 C45.22,409.63 44.73,410.33 44.03,411.27" fill="none" stroke="rgb(0, 255, 255)" stroke-width="2.40" stroke-opacity="1.00" stroke-linejoin="round"/>
<path d="M61.47,412.49 C61.50,412.14 61.43,411.09 61.27,409.50 C61.06,407.32 60.83,391.64 60.35,383.38 C60.01,377.87 58.32,366.09 57.31,359.09 C56.30,352.07 50.08,319.27 47.68,306.18 C46.95,302.06 43.00,269.30 42.18,262.40 C41.59,258.10 37.53,250.29 34.14,246.08 C32.23,243.71 29.42,240.59 27.49,239.05 C25.74,237.72 22.15,237.31 20.14,237.85 C17.89,238.52 12.73,242.48 12.27,242.47 C11.11,242.47 9.95,242.17 8.81,242.37 C7.77,242.57 7.03,244.64 6.68,247.01 C6.39,249.15 6.12,250.26 5.74,250.67 C5.34,251.06 1.87,253.62 0.91,255.50 C-0.23,257.87 0.38,264.00 1.91,266.60 C3.07,268.47 7.06,271.31 11.23,273.28 C16.33,275.63 24.99,276.22 28.98,276.20 C29.38,276.20 29.66,276.20 29.84,276.20" fill="none" stroke="rgb(0, 255, 255)" stroke-width="2.40" stroke-opacity="1.00" stroke-linejoin="round"/>
</g>
</svg>
