<?xml version="1.0" encoding="UTF-8" standalone="no"?>
<!DOCTYPE svg PUBLIC "-//W3C//DTD SVG 1.1//EN" "http://www.w3.org/Graphics/SVG/1.1/DTD/svg11.dtd">
<svg width="128.40" height="181.68" viewBox="0.00 0.00 535.00 757.00" xmlns="http://www.w3.org/2000/svg" xmlns:xlink="http://www.w3.org/1999/xlink">
<g stroke-linecap="round" transform="translate(44.00, 155.00)" id="141-사람">
<path d="M325.93,268.09 C325.63,268.43 325.43,268.63 325.33,268.70 C325.20,268.79 324.24,269.00 323.83,269.23 C320.78,270.79 316.93,271.03 313.25,270.50 C311.71,270.24 310.15,269.35 309.30,268.26 C308.03,266.56 306.75,261.68 307.08,260.43 C307.35,259.54 309.10,257.63 310.47,256.79 C313.46,255.01 319.26,254.45 320.96,255.17 C322.50,255.92 325.39,260.07 326.12,263.59 C326.46,265.25 326.56,268.78 326.45,270.84 C326.44,270.92 326.36,271.10 326.34,271.03 C327.04,273.46 327.51,274.96 328.26,277.22 C330.80,284.69 334.74,295.72 336.06,302.33 C337.85,311.36 339.62,316.20 339.79,316.96 C339.93,317.57 340.05,318.59 340.13,320.01" fill="none" stroke="rgb(255, 255, 0)" stroke-width="2.40" stroke-opacity="1.00" stroke-linejoin="round"/>
<path d="M319.85,272.55 C319.85,272.55 319.65,270.02 319.65,270.02 C319.65,270.02 319.24,269.71 319.24,269.71 C317.97,270.25 318.63,279.87 319.95,289.83 C320.89,296.33 323.95,308.12 326.29,312.72 C328.33,316.71 335.27,327.86 335.73,328.65 C335.86,328.87 335.98,329.10 336.07,329.34" fill="none" stroke="rgb(255, 255, 0)" stroke-width="2.40" stroke-opacity="1.00" stroke-linejoin="round"/>
<path d="M320.66,308.65 C320.66,308.65 319.04,308.87 319.04,308.87 C319.07,310.86 317.57,326.83 315.86,332.26 C311.84,344.87 310.40,359.95 310.59,360.45 C311.07,361.53 312.64,362.47 314.75,363.07 C318.87,364.25 321.91,364.84 325.18,365.12 C327.76,365.28 343.99,362.21 348.41,362.21 C353.85,362.24 367.21,361.89 370.47,361.79 C370.46,361.82 372.12,346.67 373.34,339.53 C375.24,328.28 376.30,318.92 374.92,314.51 C373.95,311.52 371.04,306.93 368.60,304.74 C366.80,303.17 361.10,300.45 357.90,299.78 C355.69,299.34 337.93,297.96 337.56,298.11 C337.18,298.28 336.14,298.82 334.45,299.73" fill="none" stroke="rgb(255, 255, 0)" stroke-width="2.40" stroke-opacity="1.00" stroke-linejoin="round"/>
<path d="M334.05,298.11 C334.11,298.13 334.11,298.20 334.05,298.31 C333.76,298.81 333.05,299.58 332.73,299.64 C332.34,299.72 330.68,300.17 328.13,301.24 C325.52,302.37 323.57,303.93 322.16,306.05 C321.07,307.75 319.92,310.10 319.12,312.10 C318.82,312.84 318.52,313.59 318.23,314.33" fill="none" stroke="rgb(255, 255, 0)" stroke-width="2.40" stroke-opacity="1.00" stroke-linejoin="round"/>
<path d="M319.04,313.12 C318.83,313.31 318.62,313.51 318.43,313.72 C317.21,315.03 314.35,318.82 314.09,319.05 C312.79,320.17 309.97,321.07 308.38,321.15 C304.05,321.21 301.39,321.00 300.19,320.09 C297.95,318.35 295.82,315.30 295.54,314.81 C295.71,316.09 293.96,319.56 292.02,320.82 C290.79,321.58 288.32,322.08 287.10,321.75 C285.90,321.39 283.98,319.48 283.55,318.17 C282.77,315.57 284.87,309.91 286.10,308.80 C287.43,307.68 289.95,307.73 291.61,308.59 C292.33,309.01 294.37,311.16 294.62,312.18 C294.75,312.75 294.61,313.83 294.20,315.44 C293.96,316.29 293.72,317.14 293.49,317.98" fill="none" stroke="rgb(255, 255, 0)" stroke-width="2.40" stroke-opacity="1.00" stroke-linejoin="round"/>
<path d="M292.27,322.85 C291.15,323.73 290.47,324.27 290.24,324.47 C290.01,324.67 289.91,324.81 289.94,324.88 C291.89,324.84 297.73,328.41 299.09,328.98 C303.26,330.68 309.95,330.20 311.31,329.47 C311.76,329.22 312.58,328.64 313.77,327.72" fill="none" stroke="rgb(255, 255, 0)" stroke-width="2.40" stroke-opacity="1.00" stroke-linejoin="round"/>
<path d="M312.14,368.68 C312.14,368.55 312.14,368.41 312.14,368.28 C312.14,368.14 312.14,368.01 312.14,367.87 C311.65,368.01 311.09,370.61 310.61,372.88 C309.35,378.55 302.64,396.41 302.22,398.17 C302.08,398.79 300.59,405.95 300.13,407.32 C299.45,409.28 298.57,411.16 297.54,412.90" fill="none" stroke="rgb(255, 255, 0)" stroke-width="2.40" stroke-opacity="1.00" stroke-linejoin="round"/>
<path d="M332.42,410.06 C332.42,410.06 329.99,410.87 329.99,410.87 C331.95,408.64 335.22,403.03 336.15,401.73 C338.03,399.12 352.05,382.87 352.49,382.36 C355.30,379.07 363.40,367.46 363.77,366.80 C364.02,366.36 364.52,365.37 365.28,363.82" fill="none" stroke="rgb(255, 255, 0)" stroke-width="2.40" stroke-opacity="1.00" stroke-linejoin="round"/>
<path d="M349.46,380.04 C348.67,380.60 348.19,380.94 348.04,381.06 C347.89,381.18 347.84,381.24 347.89,381.26 C348.80,381.63 350.63,384.37 351.38,386.58 C352.15,388.92 356.94,405.06 357.66,406.65 C357.83,407.03 358.21,407.76 358.79,408.84" fill="none" stroke="rgb(255, 255, 0)" stroke-width="2.40" stroke-opacity="1.00" stroke-linejoin="round"/>
<path d="M370.15,363.41 C370.15,363.41 368.12,365.64 368.12,365.64 C370.13,369.98 371.30,376.36 372.74,386.65 C375.51,405.82 378.09,413.04 378.42,413.93 C378.42,413.93 378.26,414.11 378.26,414.11" fill="none" stroke="rgb(255, 255, 0)" stroke-width="2.40" stroke-opacity="1.00" stroke-linejoin="round"/>
<path d="M339.73,250.25 C339.73,250.25 338.10,251.46 338.10,251.46 C338.10,251.46 341.61,249.73 341.61,249.73 C343.42,251.68 344.86,255.94 344.96,256.75 C345.02,257.26 345.05,258.34 345.04,259.97" fill="none" stroke="rgb(255, 255, 0)" stroke-width="2.40" stroke-opacity="1.00" stroke-linejoin="round"/>
<path d="M341.35,256.74 C341.35,256.74 339.75,256.74 339.75,256.74 C339.75,256.74 341.12,258.32 341.12,258.32 C341.12,258.32 342.40,255.53 342.40,255.53 C342.40,255.53 340.97,256.99 340.97,256.99" fill="none" stroke="rgb(255, 255, 0)" stroke-width="2.40" stroke-opacity="1.00" stroke-linejoin="round"/>
<path d="M352.71,254.30 C352.71,254.30 351.89,253.90 351.89,253.90 C351.89,253.90 351.07,266.87 351.07,266.87 C351.07,266.87 350.68,266.88 350.68,266.88" fill="none" stroke="rgb(255, 255, 0)" stroke-width="2.40" stroke-opacity="1.00" stroke-linejoin="round"/>
<path d="M361.63,280.67 C361.37,280.68 360.72,280.63 360.61,280.67 C360.40,280.74 359.95,281.08 359.44,281.07 C359.16,281.07 349.03,281.08 347.35,280.87 C345.09,280.59 340.82,279.45 339.99,279.14 C340.40,280.18 343.49,283.66 345.89,285.65 C347.24,286.72 349.69,287.79 351.12,287.75 C353.25,287.65 357.52,284.23 359.27,282.43 C360.42,281.23 362.35,278.94 363.13,277.81 C363.39,277.43 363.70,276.90 364.06,276.20" fill="none" stroke="rgb(255, 255, 0)" stroke-width="2.40" stroke-opacity="1.00" stroke-linejoin="round"/>
<path d="M339.32,277.02 C339.32,277.02 338.91,277.02 338.91,277.02 C338.81,276.85 337.18,258.48 337.46,255.88 C337.74,253.58 339.53,247.65 340.37,245.87 C343.29,239.80 351.27,228.93 355.34,225.59 C355.42,225.54 361.00,221.40 363.10,220.22 C365.95,218.65 371.31,217.25 375.82,216.63 C379.67,216.14 385.16,216.93 387.61,218.40 C389.39,219.51 393.84,223.04 395.01,224.87 C396.38,227.13 397.16,233.41 396.73,237.56 C396.37,240.73 391.36,258.53 389.52,263.36 C386.65,270.85 381.36,280.90 378.27,284.12 C376.85,285.57 371.34,289.55 369.47,290.44 C367.00,291.60 362.00,292.64 358.94,292.74 C354.40,292.83 349.05,291.76 348.28,291.46 C347.82,291.27 346.72,290.79 345.00,290.00" fill="none" stroke="rgb(255, 255, 0)" stroke-width="2.40" stroke-opacity="1.00" stroke-linejoin="round"/>
<path d="M356.76,285.94 C356.76,285.94 355.58,287.03 355.58,287.03 C355.55,287.30 355.54,289.35 355.54,290.92 C355.57,295.72 355.69,297.29 355.95,299.53 C355.95,299.53 356.76,298.11 356.76,298.11" fill="none" stroke="rgb(255, 255, 0)" stroke-width="2.40" stroke-opacity="1.00" stroke-linejoin="round"/>
<path d="M349.46,291.21 C349.39,291.14 349.32,291.08 349.26,291.01 C349.05,290.81 348.85,290.60 348.65,290.40 C348.35,291.12 347.66,296.86 347.60,297.57 C347.57,297.99 347.51,298.85 347.43,300.14" fill="none" stroke="rgb(255, 255, 0)" stroke-width="2.40" stroke-opacity="1.00" stroke-linejoin="round"/>
<path d="M337.29,249.84 C337.16,249.84 337.02,249.84 336.89,249.84 C336.71,249.85 336.57,249.85 336.48,249.84 C335.38,249.83 334.45,250.01 334.02,250.67 C332.53,252.97 332.46,258.52 332.95,259.48 C333.37,260.26 335.05,261.71 336.07,262.41" fill="none" stroke="rgb(255, 255, 0)" stroke-width="2.40" stroke-opacity="1.00" stroke-linejoin="round"/>
<path d="M347.03,228.34 C347.16,228.27 347.30,228.21 347.43,228.14 C347.57,228.07 347.70,228.00 347.84,227.94 C347.84,228.34 347.84,230.28 347.84,231.81 C347.90,237.38 349.73,245.34 350.29,245.66 C350.29,245.66 358.62,229.62 358.62,229.62 C359.76,230.67 360.32,231.81 360.58,234.01 C361.20,239.11 361.51,240.51 361.98,241.91 C361.98,241.91 365.17,227.30 365.17,227.30 C365.17,227.30 367.57,242.74 367.57,242.74 C367.57,242.74 375.26,226.64 375.26,226.64 C375.26,226.64 374.94,245.26 374.94,245.26 C377.98,235.70 380.46,232.08 381.22,231.23 C381.22,231.23 383.80,248.74 383.80,248.74 C384.71,244.67 387.81,233.09 390.44,230.13 C390.70,230.98 391.27,238.43 391.42,239.95 C391.58,241.39 391.89,244.19 392.04,245.55 C392.18,246.71 392.32,247.87 392.46,249.03" fill="none" stroke="rgb(255, 255, 0)" stroke-width="2.40" stroke-opacity="1.00" stroke-linejoin="round"/>
<path d="M392.05,257.14 C392.05,257.14 391.24,257.14 391.24,257.14 C391.24,257.14 397.43,256.23 397.43,256.23 C398.27,256.97 398.80,258.11 398.66,259.41 C398.34,262.09 396.18,264.26 392.90,266.45 C392.90,266.45 390.43,265.66 390.43,265.66" fill="none" stroke="rgb(255, 255, 0)" stroke-width="2.40" stroke-opacity="1.00" stroke-linejoin="round"/>
<path d="M367.71,257.95 C367.71,257.95 366.90,257.95 366.90,257.95 C366.80,257.21 369.70,253.72 372.07,251.88 C373.11,251.08 374.28,250.81 375.37,250.91 C376.77,252.01 377.56,255.93 377.43,258.17 C377.40,258.66 377.27,259.66 377.04,261.20" fill="none" stroke="rgb(255, 255, 0)" stroke-width="2.40" stroke-opacity="1.00" stroke-linejoin="round"/>
<path d="M371.77,259.57 C371.54,259.33 371.40,259.12 371.36,258.97 C371.32,258.81 371.32,258.47 371.36,257.95 C371.36,257.95 371.45,262.55 371.45,262.55 C371.45,262.55 372.12,258.54 372.12,258.54 C372.12,258.54 371.41,263.29 371.41,263.29 C371.41,263.29 372.36,258.39 372.36,258.39 C372.36,258.39 372.24,260.21 372.24,260.21 C372.24,260.21 372.56,257.64 372.56,257.64 C372.56,257.64 371.36,262.41 371.36,262.41" fill="none" stroke="rgb(255, 255, 0)" stroke-width="2.40" stroke-opacity="1.00" stroke-linejoin="round"/>
<path d="M372.58,257.95 C372.58,257.95 370.80,258.06 370.80,258.06 C370.80,258.06 370.89,263.40 370.89,263.40 C370.89,263.40 372.09,258.20 372.09,258.20 C371.95,259.21 371.81,260.22 371.67,261.24 C371.57,262.03 371.47,262.83 371.36,263.63" fill="none" stroke="rgb(255, 255, 0)" stroke-width="2.40" stroke-opacity="1.00" stroke-linejoin="round"/>
</g>
</svg>
