<?xml version="1.0" encoding="UTF-8" standalone="no"?>
<!DOCTYPE svg PUBLIC "-//W3C//DTD SVG 1.1//EN" "http://www.w3.org/Graphics/SVG/1.1/DTD/svg11.dtd">
<svg width="128.40" height="181.68" viewBox="0.00 0.00 535.00 757.00" xmlns="http://www.w3.org/2000/svg" xmlns:xlink="http://www.w3.org/1999/xlink">
<g stroke-linecap="round" transform="translate(44.00, 155.00)" id="142-구름-3">
<path d="M226.24,69.93 C226.24,69.93 222.84,70.65 222.84,70.65 C224.20,69.69 228.45,67.10 231.01,64.82 C234.88,61.28 237.48,58.62 238.85,56.82 C240.29,54.85 240.76,52.25 239.99,50.13 C239.64,49.26 237.59,48.57 236.29,48.49 C234.19,48.43 224.23,50.05 222.99,50.36 C219.54,51.27 212.09,56.17 208.20,60.02 C205.39,62.82 203.64,65.82 203.28,67.29 C202.82,67.08 201.02,67.71 199.31,69.85 C197.50,72.19 195.60,76.52 193.63,81.81 C192.61,84.73 192.65,87.13 193.80,87.94 C196.71,89.78 204.08,87.03 205.19,86.23 C204.10,85.94 198.65,89.05 196.48,91.06 C194.22,93.22 191.77,97.78 192.13,99.82 C192.56,101.79 196.38,105.72 199.14,107.24 C201.96,108.75 207.65,109.53 210.52,109.22 C213.39,108.87 218.23,107.56 219.94,106.43 C221.38,105.44 223.32,101.73 223.43,98.55 C223.47,96.85 222.69,93.18 222.11,92.16 C221.75,91.55 220.68,91.06 219.04,90.44 C222.31,90.61 233.06,86.61 236.86,83.76 C238.70,82.35 241.30,79.88 241.99,78.70 C242.72,77.38 242.99,74.56 242.52,73.15 C241.56,70.51 238.71,67.94 237.36,67.46 C235.79,66.93 230.57,67.15 228.34,67.81 C226.65,68.32 220.46,71.23 218.59,72.12" fill="none" stroke="rgb(255, 255, 0)" stroke-width="2.40" stroke-opacity="1.00" stroke-linejoin="round"/>
</g>
</svg>
