<?xml version="1.0" encoding="UTF-8" standalone="no"?>
<!DOCTYPE svg PUBLIC "-//W3C//DTD SVG 1.1//EN" "http://www.w3.org/Graphics/SVG/1.1/DTD/svg11.dtd">
<svg width="128.40" height="181.68" viewBox="0.00 0.00 535.00 757.00" xmlns="http://www.w3.org/2000/svg" xmlns:xlink="http://www.w3.org/1999/xlink">
<g stroke-linecap="round" transform="translate(44.00, 155.00)" id="142-집">
<path d="M397.32,70.78 C397.32,70.48 397.32,70.17 397.32,69.87 C397.32,69.59 397.32,69.30 397.32,69.02 C395.90,70.47 392.90,74.15 391.59,76.18 C390.15,78.44 386.01,87.03 385.83,87.37 C385.64,87.73 375.14,103.55 371.49,109.86 C370.34,111.81 359.16,127.54 356.92,130.89 C352.79,137.07 344.23,147.74 340.99,152.50 C336.68,158.97 330.53,167.35 325.15,175.99 C323.58,178.48 314.10,190.50 309.13,198.04 C309.13,198.04 309.21,197.71 309.21,197.71" fill="none" stroke="rgb(0, 153, 67)" stroke-width="2.40" stroke-opacity="1.00" stroke-linejoin="round"/>
<path d="M312.85,195.85 C312.85,195.85 309.00,197.74 309.00,197.74 C309.00,197.74 315.38,197.48 315.38,197.48 C316.42,196.19 341.45,156.24 343.43,153.45 C345.72,150.25 355.12,138.32 360.04,130.88 C363.83,125.32 373.09,111.89 375.17,108.64 C376.89,105.94 388.90,85.65 389.26,85.08 C391.06,82.19 396.38,77.38 396.64,77.39 C400.35,81.69 408.18,92.68 412.69,95.89 C417.02,98.95 420.82,102.36 422.40,104.41 C426.11,109.29 430.90,115.05 433.60,120.01 C436.29,124.80 458.12,151.74 464.01,157.42 C464.75,158.14 475.48,168.40 481.46,175.81 C484.86,180.13 485.55,181.06 486.49,182.43 C486.26,180.26 485.29,173.77 484.78,172.95 C484.51,172.53 474.51,160.09 469.59,155.96 C467.25,153.99 455.27,141.27 453.72,139.17 C450.98,135.10 446.83,129.07 441.27,122.42 C438.94,119.62 433.50,107.99 430.24,103.31 C428.91,101.46 423.32,94.21 420.57,90.64 C417.70,86.98 415.67,84.87 412.63,82.50 C410.96,81.24 406.05,77.78 404.44,76.31 C402.73,74.73 398.58,69.71 398.52,69.65 C398.52,69.65 398.40,70.05 398.40,70.05" fill="none" stroke="rgb(0, 153, 67)" stroke-width="2.40" stroke-opacity="1.00" stroke-linejoin="round"/>
<path d="M311.76,200.56 C311.76,200.56 310.96,198.91 310.96,198.91 C310.44,199.73 310.36,215.63 310.32,224.24 C310.24,234.59 309.79,242.09 308.72,251.38 C306.70,267.13 301.82,301.86 300.70,310.96 C299.89,318.43 298.10,335.77 297.89,339.32 C297.42,349.60 297.29,358.20 297.87,368.79 C298.96,385.38 300.89,402.56 301.63,406.80 C302.14,409.53 303.22,415.34 303.79,418.43" fill="none" stroke="rgb(0, 153, 67)" stroke-width="2.40" stroke-opacity="1.00" stroke-linejoin="round"/>
<path d="M334.60,298.07 C334.60,298.07 334.06,298.26 334.06,298.26 C334.06,298.26 333.36,299.16 333.36,299.16 C333.36,299.16 316.04,300.55 316.04,300.55 C314.57,302.99 311.49,319.01 311.13,322.80 C310.04,338.44 308.57,363.36 308.50,380.21 C308.56,391.57 309.13,406.81 309.18,407.29 C309.23,407.83 309.36,408.89 309.59,410.45" fill="none" stroke="rgb(0, 153, 67)" stroke-width="2.40" stroke-opacity="1.00" stroke-linejoin="round"/>
<path d="M315.39,354.99 C315.20,355.04 314.43,354.73 314.12,354.63 C314.00,354.59 313.73,354.65 313.47,354.68 C312.49,355.59 311.26,360.76 311.56,362.10 C311.85,363.16 313.47,364.29 316.07,364.30 C317.04,364.29 319.26,362.63 319.52,360.29 C319.76,357.65 318.03,355.33 316.95,354.42 C316.95,354.42 313.47,355.36 313.47,355.36" fill="none" stroke="rgb(0, 153, 67)" stroke-width="2.40" stroke-opacity="1.00" stroke-linejoin="round"/>
<path d="M315.03,359.34 C315.03,359.34 313.76,360.79 313.76,360.79 C313.76,360.79 313.72,361.46 313.72,361.46 C314.06,361.49 314.48,361.35 314.79,361.07 C314.86,361.01 314.94,360.92 315.03,360.79" fill="none" stroke="rgb(0, 153, 67)" stroke-width="2.40" stroke-opacity="1.00" stroke-linejoin="round"/>
<path d="M328.80,317.29 C328.80,317.29 328.70,316.77 328.70,316.77 C321.87,313.68 316.36,315.16 315.59,315.43 C315.59,315.43 315.38,332.34 315.38,332.34 C315.38,332.34 327.05,331.10 327.05,331.10 C327.87,330.01 327.53,324.23 327.37,320.92 C327.28,319.62 327.18,318.33 327.09,317.03" fill="none" stroke="rgb(0, 153, 67)" stroke-width="2.40" stroke-opacity="1.00" stroke-linejoin="round"/>
<path d="M320.46,316.56 C320.46,316.56 320.10,316.74 320.10,316.74 C320.10,316.74 319.39,323.32 319.39,323.32 C318.55,323.46 317.91,323.38 314.95,322.76 C314.62,322.69 314.41,322.66 314.32,322.69" fill="none" stroke="rgb(0, 153, 67)" stroke-width="2.40" stroke-opacity="1.00" stroke-linejoin="round"/>
<path d="M323.36,316.20 C323.36,316.20 322.90,316.20 322.90,316.20 C322.90,316.20 322.64,315.98 322.64,315.98 C322.59,320.52 322.92,322.99 323.75,322.99 C324.76,322.94 325.35,322.86 326.01,322.68 C326.18,322.63 326.54,322.55 327.09,322.42" fill="none" stroke="rgb(0, 153, 67)" stroke-width="2.40" stroke-opacity="1.00" stroke-linejoin="round"/>
<path d="M316.11,325.62 C316.11,325.62 316.20,325.99 316.20,325.99 C316.20,325.99 319.99,326.83 319.99,326.83 C320.41,327.56 320.61,328.02 320.67,328.54 C320.68,328.66 320.72,329.10 320.80,329.88" fill="none" stroke="rgb(0, 153, 67)" stroke-width="2.40" stroke-opacity="1.00" stroke-linejoin="round"/>
<path d="M326.63,325.26 C326.63,325.26 326.26,325.99 326.26,325.99 C326.26,325.99 323.99,325.28 323.99,325.28 C323.70,325.63 323.77,330.06 323.87,330.99 C323.92,331.51 324.07,332.11 324.30,332.80" fill="none" stroke="rgb(0, 153, 67)" stroke-width="2.40" stroke-opacity="1.00" stroke-linejoin="round"/>
<path d="M320.10,328.89 C320.10,328.89 319.74,329.07 319.74,329.07 C319.75,330.31 319.72,331.85 319.74,332.00 C319.76,332.22 319.84,332.65 319.97,333.31" fill="none" stroke="rgb(0, 153, 67)" stroke-width="2.40" stroke-opacity="1.00" stroke-linejoin="round"/>
<path d="M414.72,178.44 C414.72,178.44 413.81,178.44 413.81,178.44 C413.68,178.11 413.47,177.81 413.17,177.69 C412.13,177.29 405.74,176.25 403.85,176.37 C401.60,176.54 394.78,178.24 393.39,178.87 C393.39,178.87 393.89,201.95 393.89,201.95 C393.89,201.95 415.63,197.69 415.63,197.69 C415.05,193.97 414.71,179.61 414.69,179.31 C414.60,178.34 414.23,177.11 413.99,176.63" fill="none" stroke="rgb(0, 153, 67)" stroke-width="2.40" stroke-opacity="1.00" stroke-linejoin="round"/>
<path d="M403.12,176.99 C403.12,176.99 402.21,177.18 402.21,177.18 C402.21,177.18 401.44,185.30 401.44,185.30 C400.42,184.96 395.99,184.69 395.68,184.64 C395.49,184.61 394.88,184.50 393.85,184.30" fill="none" stroke="rgb(0, 153, 67)" stroke-width="2.40" stroke-opacity="1.00" stroke-linejoin="round"/>
<path d="M407.10,178.44 C407.10,178.44 406.12,178.61 406.12,178.61 C406.12,178.61 406.74,185.85 406.74,185.85 C407.90,186.10 411.94,185.76 412.42,185.73 C412.73,185.72 413.21,185.70 413.84,185.69" fill="none" stroke="rgb(0, 153, 67)" stroke-width="2.40" stroke-opacity="1.00" stroke-linejoin="round"/>
<path d="M413.63,190.04 C413.63,190.04 413.27,190.04 413.27,190.04 C413.27,190.04 406.93,190.99 406.93,190.99 C406.40,191.63 406.83,197.30 406.94,197.81 C407.01,198.11 407.17,198.53 407.42,199.07" fill="none" stroke="rgb(0, 153, 67)" stroke-width="2.40" stroke-opacity="1.00" stroke-linejoin="round"/>
<path d="M394.05,190.41 C394.05,190.41 393.33,190.41 393.33,190.41 C393.33,190.41 402.96,189.33 402.96,189.33 C402.96,189.33 402.39,200.48 402.39,200.48 C402.39,200.48 402.03,200.20 402.03,200.20" fill="none" stroke="rgb(0, 153, 67)" stroke-width="2.40" stroke-opacity="1.00" stroke-linejoin="round"/>
</g>
</svg>
