<?xml version="1.0" encoding="UTF-8" standalone="no"?>
<!DOCTYPE svg PUBLIC "-//W3C//DTD SVG 1.1//EN" "http://www.w3.org/Graphics/SVG/1.1/DTD/svg11.dtd">
<svg width="128.40" height="181.68" viewBox="0.00 0.00 535.00 757.00" xmlns="http://www.w3.org/2000/svg" xmlns:xlink="http://www.w3.org/1999/xlink">
<g stroke-linecap="round" transform="translate(44.00, 155.00)" id="142-우산">
<path d="M209.17,266.54 C209.20,266.05 209.20,265.72 209.17,265.55 C209.15,265.38 209.05,265.13 208.89,264.81 C208.40,264.33 201.80,264.37 199.01,263.76 C198.14,263.57 195.24,262.75 194.67,262.68 C192.65,262.46 187.85,263.98 185.26,265.57 C182.73,267.16 177.57,270.54 174.65,272.27 C170.83,274.48 166.83,275.74 166.01,275.21 C165.28,274.57 164.88,271.74 165.71,269.18 C167.09,265.03 173.22,256.14 177.40,251.50 C180.00,248.64 184.71,245.28 187.33,244.39 C190.48,243.37 195.94,243.02 198.35,243.94 C200.42,244.79 204.31,248.85 205.66,251.06 C207.58,254.30 209.84,264.85 209.96,265.24 C210.09,265.65 210.31,266.08 210.62,266.54" fill="none" stroke="rgb(229, 0, 16)" stroke-width="2.40" stroke-opacity="1.00" stroke-linejoin="round"/>
<path d="M205.18,264.36" fill="none" stroke="rgb(229, 0, 16)" stroke-width="2.40" stroke-opacity="1.00" stroke-linejoin="round"/>
<path d="M203.37,263.64 C203.37,263.64 202.27,263.58 202.27,263.58 C201.95,263.01 201.39,260.81 199.78,256.75 C197.20,250.62 191.50,246.31 189.79,245.22 C189.70,245.16 189.63,245.13 189.60,245.15" fill="none" stroke="rgb(229, 0, 16)" stroke-width="2.40" stroke-opacity="1.00" stroke-linejoin="round"/>
<path d="M189.60,245.15 C189.60,245.15 189.42,245.15 189.42,245.15 C189.42,245.15 189.23,245.33 189.23,245.33 C189.22,245.33 189.30,247.08 189.37,247.71 C190.32,253.74 190.95,261.52 191.05,262.81 C191.05,262.81 191.05,261.80 191.05,261.80" fill="none" stroke="rgb(229, 0, 16)" stroke-width="2.40" stroke-opacity="1.00" stroke-linejoin="round"/>
<path d="M187.42,246.96 C187.42,246.96 186.91,246.96 186.91,246.96 C186.91,246.96 186.32,246.63 186.32,246.63 C184.39,250.48 182.80,264.15 183.11,266.16 C183.16,266.47 183.35,266.84 183.68,267.26" fill="none" stroke="rgb(229, 0, 16)" stroke-width="2.40" stroke-opacity="1.00" stroke-linejoin="round"/>
<path d="M184.88,247.32 C184.88,247.32 183.25,247.41 183.25,247.41 C182.63,247.93 179.09,252.70 178.15,255.07 C176.21,260.09 174.82,269.05 174.83,269.69 C174.83,270.03 174.88,270.75 174.98,271.86" fill="none" stroke="rgb(229, 0, 16)" stroke-width="2.40" stroke-opacity="1.00" stroke-linejoin="round"/>
<path d="M184.16,267.26 C183.28,268.16 182.76,268.74 182.59,269.01 C182.22,269.63 183.95,301.19 183.16,304.70 C182.60,306.98 181.69,307.54 180.52,308.05 C179.63,308.31 176.48,303.53 175.27,300.20 C174.79,298.84 173.87,295.24 173.39,294.97 C172.12,296.25 170.89,300.86 171.28,303.05 C171.72,305.18 173.97,308.18 175.47,308.90 C176.80,309.50 180.01,309.35 181.27,308.70 C182.58,307.99 184.83,305.39 185.68,303.40 C186.96,300.29 187.05,285.80 187.06,278.36 C187.06,275.36 187.04,266.84 187.06,266.73 C187.09,266.60 187.19,266.33 187.36,265.93" fill="none" stroke="rgb(229, 0, 16)" stroke-width="2.40" stroke-opacity="1.00" stroke-linejoin="round"/>
</g>
</svg>
