<?xml version="1.0" encoding="UTF-8" standalone="no"?>
<!DOCTYPE svg PUBLIC "-//W3C//DTD SVG 1.1//EN" "http://www.w3.org/Graphics/SVG/1.1/DTD/svg11.dtd">
<svg width="128.40" height="181.68" viewBox="0.00 0.00 535.00 757.00" xmlns="http://www.w3.org/2000/svg" xmlns:xlink="http://www.w3.org/1999/xlink">
<g stroke-linecap="round" transform="translate(44.00, 155.00)" id="142-지면">
<path d="M-35.16,401.03 C-35.16,401.03 -37.48,401.55 -37.48,401.55 C-36.47,401.81 -32.31,401.66 -29.38,401.47 C-21.82,401.04 1.91,402.97 5.53,402.71 C5.75,402.70 12.10,404.77 14.77,405.80 C18.28,407.13 22.45,407.93 25.70,408.15 C31.90,408.52 47.53,405.56 49.04,405.40 C68.72,403.46 95.18,402.59 111.60,402.05 C118.03,401.70 131.48,401.55 139.60,401.48 C146.77,401.13 160.03,400.61 165.97,401.78 C166.96,401.99 173.37,405.43 176.43,406.33 C181.91,407.88 198.00,409.99 202.48,409.88 C207.96,409.70 213.38,408.60 227.72,404.71 C233.25,403.22 243.29,401.80 250.14,401.55 C264.69,401.37 300.29,400.51 302.57,400.66 C303.06,400.70 303.59,400.82 304.15,401.03" fill="none" stroke="rgb(228, 0, 126)" stroke-width="2.40" stroke-opacity="1.00" stroke-linejoin="round"/>
</g>
</svg>
