<?xml version="1.0" encoding="UTF-8" standalone="no"?>
<!DOCTYPE svg PUBLIC "-//W3C//DTD SVG 1.1//EN" "http://www.w3.org/Graphics/SVG/1.1/DTD/svg11.dtd">
<svg width="128.40" height="181.68" viewBox="0.00 0.00 535.00 757.00" xmlns="http://www.w3.org/2000/svg" xmlns:xlink="http://www.w3.org/1999/xlink">
<g stroke-linecap="round" transform="translate(44.00, 155.00)" id="142-구름-2">
<path d="M127.83,61.92 C127.83,61.92 127.83,61.19 127.83,61.19 C127.83,61.19 127.74,62.17 127.74,62.17 C127.97,61.56 130.23,56.27 130.13,54.87 C130.02,53.79 128.05,51.25 125.15,50.06 C123.78,49.52 120.46,48.97 119.11,49.07 C115.93,49.37 108.89,52.46 105.83,55.02 C103.15,57.31 100.08,62.44 99.78,63.68 C99.62,62.20 98.71,59.82 95.80,58.91 C93.16,58.13 87.47,59.47 86.46,60.52 C85.36,61.75 84.06,64.32 83.55,66.40 C83.10,68.41 83.00,71.78 83.42,73.41 C84.15,76.11 88.43,80.71 90.50,82.42 C92.63,84.14 97.72,87.29 100.33,88.31 C103.05,89.34 110.26,90.29 110.76,90.35 C112.23,90.54 117.17,91.50 118.72,91.80" fill="none" stroke="rgb(255, 255, 0)" stroke-width="2.40" stroke-opacity="1.00" stroke-linejoin="round"/>
<path d="M131.84,62.64 C131.84,62.64 130.38,62.64 130.38,62.64 C130.84,62.34 136.97,60.07 139.79,59.84 C145.98,59.41 154.34,59.90 156.96,60.58 C156.90,60.31 155.23,55.33 155.59,53.63 C156.07,51.67 159.17,48.03 161.81,46.77 C164.02,45.78 170.13,44.76 173.26,44.95 C176.80,45.20 180.63,46.11 183.56,47.32 C186.13,48.43 188.18,50.56 188.20,52.17 C188.04,55.94 181.82,61.03 181.25,61.36 C182.35,60.52 186.76,58.67 189.23,58.17 C192.78,57.50 199.78,58.11 202.18,59.33 C204.28,60.45 206.18,63.51 206.18,65.18 C206.12,66.84 203.02,70.45 200.98,71.86 C196.83,74.66 189.04,77.74 183.36,78.78 C180.67,79.27 175.31,80.26 175.01,80.51 C177.82,83.78 179.49,86.88 179.18,89.37 C178.80,91.74 176.06,95.38 173.94,96.94 C172.13,98.22 167.46,100.04 165.24,100.33 C162.91,100.60 159.20,99.59 157.28,98.18 C154.09,95.76 148.63,86.52 147.56,84.93 C147.14,85.43 142.87,89.44 140.39,90.97 C137.11,92.95 129.44,95.24 125.76,95.69 C124.25,95.85 120.84,95.84 120.02,95.56 C119.63,95.42 118.83,95.02 117.62,94.36" fill="none" stroke="rgb(255, 255, 0)" stroke-width="2.40" stroke-opacity="1.00" stroke-linejoin="round"/>
<path d="M120.17,96.54 C120.17,96.54 117.26,96.54 117.26,96.54 C116.30,95.48 112.04,92.83 111.48,92.50 C111.13,92.29 110.55,91.96 109.74,91.51" fill="none" stroke="rgb(255, 255, 0)" stroke-width="2.40" stroke-opacity="1.00" stroke-linejoin="round"/>
</g>
</svg>
