<?xml version="1.0" encoding="UTF-8" standalone="no"?>
<!DOCTYPE svg PUBLIC "-//W3C//DTD SVG 1.1//EN" "http://www.w3.org/Graphics/SVG/1.1/DTD/svg11.dtd">
<svg width="128.40" height="181.68" viewBox="0.00 0.00 535.00 757.00" xmlns="http://www.w3.org/2000/svg" xmlns:xlink="http://www.w3.org/1999/xlink">
<g stroke-linecap="round" transform="translate(44.00, 155.00)" id="142-구름-1">
<path d="M-4.48,65.92 C-4.48,65.92 -5.94,67.02 -5.94,67.02 C-5.08,65.60 -4.81,63.84 -4.85,60.05 C-4.86,56.94 -3.83,50.83 -3.89,49.98 C-3.99,48.92 -5.99,47.19 -7.50,47.26 C-9.27,47.36 -15.30,49.11 -18.42,50.58 C-22.34,52.47 -26.51,55.30 -28.67,57.49 C-30.48,59.39 -32.07,62.21 -32.38,64.27 C-32.92,68.21 -31.35,80.10 -29.87,82.61 C-28.65,84.58 -24.49,87.38 -21.90,88.34 C-19.44,89.22 -16.00,89.85 -14.44,89.31 C-12.93,88.76 -10.02,85.42 -9.08,83.81 C-6.83,79.94 -6.17,77.48 -6.25,77.12 C-6.69,78.47 -5.37,83.29 -2.55,86.46 C-1.20,87.93 2.79,90.47 7.08,92.44 C7.34,92.57 14.40,96.10 17.00,96.37 C20.17,96.65 24.73,96.47 27.14,95.91 C29.69,95.28 34.32,92.98 35.75,90.64 C36.09,90.06 39.30,83.81 39.92,83.03 C40.49,85.18 42.99,89.55 45.25,91.63 C46.41,92.68 49.61,94.79 50.96,95.38 C52.57,96.03 55.66,96.50 57.60,96.38 C61.05,96.12 67.60,93.28 71.02,90.80 C72.24,89.90 80.68,82.17 81.54,81.44 C81.54,81.44 81.17,81.23 81.17,81.23" fill="none" stroke="rgb(255, 255, 0)" stroke-width="2.40" stroke-opacity="1.00" stroke-linejoin="round"/>
<path d="M134.03,63.37 C134.03,63.37 133.66,63.37 133.66,63.37 C133.66,63.37 133.88,62.58 133.88,62.58 C136.49,60.65 138.99,57.62 139.07,55.03 C139.07,53.37 135.39,48.00 133.38,47.20 C130.50,46.11 115.28,44.71 108.91,45.55 C101.84,46.52 86.11,51.10 78.14,53.42 C72.82,55.05 67.26,57.06 64.97,58.42 C64.12,58.93 50.74,68.22 50.23,68.28 C50.55,67.18 51.41,64.79 51.42,64.78 C51.98,62.24 50.03,57.11 47.84,53.90 C46.52,52.05 44.71,49.88 43.69,49.04 C42.60,48.17 35.98,47.29 33.48,47.43 C29.21,47.70 19.11,50.18 13.85,52.48 C9.78,54.27 3.87,57.51 1.37,59.53 C0.54,60.21 -3.12,63.79 -3.29,64.22 C-3.42,64.59 -3.70,65.65 -4.12,67.38" fill="none" stroke="rgb(255, 255, 0)" stroke-width="2.40" stroke-opacity="1.00" stroke-linejoin="round"/>
<path d="M143.14,61.92 C143.14,61.92 140.73,62.47 140.73,62.47 C140.73,62.47 140.67,60.14 140.67,60.14 C141.95,60.65 144.08,64.55 144.83,67.25 C145.51,69.83 145.78,71.73 145.51,72.62 C144.75,74.77 140.96,78.63 138.07,79.56 C137.16,79.84 135.21,79.84 135.02,79.92 C136.36,81.38 137.53,83.15 137.83,84.67 C138.15,86.32 138.06,89.19 137.70,90.14 C137.37,90.92 136.48,92.41 135.94,92.85 C133.70,94.57 128.89,94.96 125.11,94.58 C122.00,94.26 115.40,93.53 113.14,93.08 C112.77,93.00 91.56,85.96 88.87,84.66 C87.32,83.90 85.83,82.79 83.73,80.96 C83.73,80.96 83.73,82.33 83.73,82.33" fill="none" stroke="rgb(255, 255, 0)" stroke-width="2.40" stroke-opacity="1.00" stroke-linejoin="round"/>
</g>
</svg>
