<?xml version="1.0" encoding="UTF-8" standalone="no"?>
<!DOCTYPE svg PUBLIC "-//W3C//DTD SVG 1.1//EN" "http://www.w3.org/Graphics/SVG/1.1/DTD/svg11.dtd">
<svg width="128.40" height="181.68" viewBox="0.00 0.00 535.00 757.00" xmlns="http://www.w3.org/2000/svg" xmlns:xlink="http://www.w3.org/1999/xlink">
<g stroke-linecap="round" transform="translate(44.00, 155.00)" id="143-비">
<path d="M-34.06,69.54 C-34.06,69.91 -34.04,71.33 -34.03,72.43 C-33.95,75.33 -33.79,81.09 -33.75,83.92 C-33.73,85.83 -33.70,86.95 -33.59,88.81" fill="none" stroke="rgb(0, 255, 0)" stroke-width="2.36" stroke-opacity="1.00" stroke-linejoin="round"/>
<path d="M-8.30,88.11 C-8.67,88.37 -10.66,91.30 -10.97,98.07 C-11.03,99.72 -10.97,101.91 -10.82,103.36 C-10.69,104.52 -10.48,105.67 -10.21,106.84" fill="none" stroke="rgb(0, 255, 0)" stroke-width="2.36" stroke-opacity="1.00" stroke-linejoin="round"/>
<path d="M29.13,116.26 C28.57,116.93 28.31,119.13 28.00,125.03 C27.91,126.61 27.63,130.08 27.45,131.57 C27.39,132.11 27.28,132.79 27.12,133.63" fill="none" stroke="rgb(0, 255, 0)" stroke-width="2.36" stroke-opacity="1.00" stroke-linejoin="round"/>
<path d="M27.03,78.22 C26.00,78.88 25.42,80.76 25.60,83.87 C25.76,86.11 26.32,89.02 26.83,91.47" fill="none" stroke="rgb(0, 255, 0)" stroke-width="2.36" stroke-opacity="1.00" stroke-linejoin="round"/>
<path d="M64.77,107.57 C63.57,111.41 63.29,118.69 63.12,122.77 C63.01,124.90 62.83,128.23 62.76,129.43" fill="none" stroke="rgb(0, 255, 0)" stroke-width="2.36" stroke-opacity="1.00" stroke-linejoin="round"/>
<path d="M59.68,147.10 C59.68,147.10 59.68,145.16 59.68,145.16 C59.66,146.88 59.62,149.36 59.54,150.74 C59.21,156.35 58.84,162.81 58.80,163.65" fill="none" stroke="rgb(0, 255, 0)" stroke-width="2.36" stroke-opacity="1.00" stroke-linejoin="round"/>
<path d="M88.13,155.49 C86.92,157.86 86.93,162.73 86.84,169.54 C86.81,171.28 86.74,174.81 86.70,176.01 C86.68,176.36 86.66,176.79 86.63,177.30" fill="none" stroke="rgb(0, 255, 0)" stroke-width="2.36" stroke-opacity="1.00" stroke-linejoin="round"/>
<path d="M95.32,82.12 C95.32,82.12 94.72,82.42 94.72,82.42 C93.82,84.18 93.92,88.40 94.29,91.53 C94.67,94.72 95.54,98.61 95.76,99.54" fill="none" stroke="rgb(0, 255, 0)" stroke-width="2.36" stroke-opacity="1.00" stroke-linejoin="round"/>
<path d="M122.87,110.27 C121.48,111.96 121.35,120.24 121.44,124.68 C121.50,126.31 121.60,129.11 121.64,130.29" fill="none" stroke="rgb(0, 255, 0)" stroke-width="2.36" stroke-opacity="1.00" stroke-linejoin="round"/>
<path d="M151.32,127.64 C151.32,127.64 150.42,128.17 150.42,128.17 C150.11,128.78 150.14,130.24 150.63,132.80 C150.78,133.61 151.76,138.16 152.16,140.02 C152.46,141.47 152.94,143.79 153.12,144.67" fill="none" stroke="rgb(0, 255, 0)" stroke-width="2.36" stroke-opacity="1.00" stroke-linejoin="round"/>
<path d="M142.93,170.16 C142.93,170.16 142.48,169.94 142.48,169.94 C142.02,171.76 140.82,187.63 141.07,189.12 C141.15,189.55 141.40,190.47 141.84,191.88" fill="none" stroke="rgb(0, 255, 0)" stroke-width="2.36" stroke-opacity="1.00" stroke-linejoin="round"/>
<path d="M150.72,168.67 C149.83,170.05 149.81,172.48 151.04,177.49 C151.88,180.82 153.39,186.90 153.93,190.68 C154.06,191.58 154.18,192.48 154.30,193.39" fill="none" stroke="rgb(0, 255, 0)" stroke-width="2.36" stroke-opacity="1.00" stroke-linejoin="round"/>
<path d="M175.87,97.99 C175.16,100.70 174.66,104.80 174.53,107.82 C174.40,110.97 174.38,117.21 174.38,119.91 C174.38,120.78 174.38,121.65 174.38,122.52" fill="none" stroke="rgb(0, 255, 0)" stroke-width="2.36" stroke-opacity="1.00" stroke-linejoin="round"/>
<path d="M192.35,120.75 C192.15,120.90 191.13,121.73 191.00,122.32 C190.78,123.33 190.98,130.82 191.06,133.93 C191.15,141.46 191.33,147.17 191.38,148.52" fill="none" stroke="rgb(0, 255, 0)" stroke-width="2.36" stroke-opacity="1.00" stroke-linejoin="round"/>
<path d="M202.53,145.01 C202.18,146.64 202.25,153.10 202.23,155.03 C202.20,157.07 202.01,162.29 201.98,163.28" fill="none" stroke="rgb(0, 255, 0)" stroke-width="2.36" stroke-opacity="1.00" stroke-linejoin="round"/>
<path d="M220.50,177.35 C220.50,177.35 220.50,177.20 220.50,177.20 C220.50,177.20 220.35,177.05 220.35,177.05 C220.23,177.08 220.17,177.68 220.11,179.89 C220.01,183.28 219.79,190.51 219.68,194.37 C219.64,196.95 219.60,200.90 219.60,202.28" fill="none" stroke="rgb(0, 255, 0)" stroke-width="2.36" stroke-opacity="1.00" stroke-linejoin="round"/>
<path d="M229.78,174.06 C229.43,178.03 229.51,181.74 229.40,184.35 C229.33,185.76 229.09,189.04 228.93,190.57 C228.87,191.09 228.78,191.77 228.66,192.62" fill="none" stroke="rgb(0, 255, 0)" stroke-width="2.36" stroke-opacity="1.00" stroke-linejoin="round"/>
<path d="M241.46,130.33 C241.48,131.98 241.55,133.32 241.61,134.17 C241.72,136.76 241.14,148.18 240.86,149.91 C240.56,151.66 239.99,154.96 239.72,156.50" fill="none" stroke="rgb(0, 255, 0)" stroke-width="2.36" stroke-opacity="1.00" stroke-linejoin="round"/>
<path d="M226.49,120.75 C226.22,122.10 225.31,127.32 225.30,131.54 C225.30,135.17 225.05,141.91 224.90,142.90 C224.81,143.47 224.57,144.58 224.18,146.24" fill="none" stroke="rgb(0, 255, 0)" stroke-width="2.36" stroke-opacity="1.00" stroke-linejoin="round"/>
<path d="M231.58,84.51 C231.30,84.98 231.41,87.67 231.47,88.77 C231.51,89.79 231.58,97.50 231.58,98.47" fill="none" stroke="rgb(0, 255, 0)" stroke-width="2.36" stroke-opacity="1.00" stroke-linejoin="round"/>
<path d="M260.93,104.88 C260.92,107.44 260.93,113.33 260.94,116.67 C260.94,120.00 260.72,125.14 260.66,126.49" fill="none" stroke="rgb(0, 255, 0)" stroke-width="2.36" stroke-opacity="1.00" stroke-linejoin="round"/>
<path d="M296.02,95.99 C296.02,95.99 294.80,96.56 294.80,96.56 C294.44,98.42 294.43,103.84 294.43,107.06 C294.53,111.12 294.78,118.84 294.93,122.51" fill="none" stroke="rgb(0, 255, 0)" stroke-width="2.36" stroke-opacity="1.00" stroke-linejoin="round"/>
<path d="M321.80,122.09 C321.35,123.52 321.09,124.48 321.00,124.99 C320.85,125.82 320.68,144.48 320.44,149.88 C320.38,151.13 320.32,152.39 320.26,153.64" fill="none" stroke="rgb(0, 255, 0)" stroke-width="2.36" stroke-opacity="1.00" stroke-linejoin="round"/>
<path d="M343.72,134.66 C343.72,134.66 342.59,135.40 342.59,135.40 C342.42,136.80 342.44,138.27 342.70,141.06 C342.88,143.02 343.21,146.34 343.35,147.70 C343.48,148.99 343.63,149.86 343.88,151.00" fill="none" stroke="rgb(0, 255, 0)" stroke-width="2.36" stroke-opacity="1.00" stroke-linejoin="round"/>
<path d="M344.69,106.30 C344.69,106.30 343.75,106.59 343.75,106.59 C343.96,109.36 344.83,116.58 344.94,117.33 C345.14,118.56 345.34,119.78 345.54,121.01" fill="none" stroke="rgb(0, 255, 0)" stroke-width="2.36" stroke-opacity="1.00" stroke-linejoin="round"/>
<path d="M376.59,116.94 C375.72,117.77 375.57,119.03 375.68,123.36 C375.83,126.71 376.25,133.20 376.46,136.39" fill="none" stroke="rgb(0, 255, 0)" stroke-width="2.36" stroke-opacity="1.00" stroke-linejoin="round"/>
<path d="M384.00,154.97 C384.00,154.97 383.52,154.81 383.52,154.81 C383.52,154.81 382.88,155.15 382.88,155.15 C382.65,157.73 383.18,162.51 383.68,165.71 C384.31,169.68 385.20,175.34 385.46,177.02" fill="none" stroke="rgb(0, 255, 0)" stroke-width="2.36" stroke-opacity="1.00" stroke-linejoin="round"/>
<path d="M422.03,127.89 C421.23,130.82 420.88,132.47 420.81,133.96 C420.72,135.82 420.43,144.01 420.09,148.00 C419.15,158.66 419.35,160.51 419.58,161.85" fill="none" stroke="rgb(0, 255, 0)" stroke-width="2.36" stroke-opacity="1.00" stroke-linejoin="round"/>
<path d="M436.86,131.76 C436.58,131.95 436.49,132.84 436.57,135.20 C436.88,145.10 436.67,156.02 436.01,160.00 C435.77,161.39 435.27,163.46 434.94,164.59" fill="none" stroke="rgb(0, 255, 0)" stroke-width="2.36" stroke-opacity="1.00" stroke-linejoin="round"/>
<path d="M452.01,159.48 C452.01,159.48 451.28,159.48 451.28,159.48 C451.15,159.75 451.05,160.90 451.04,162.70 C451.07,170.35 450.70,178.17 450.38,182.27 C450.21,184.25 449.90,188.00 449.75,189.77" fill="none" stroke="rgb(0, 255, 0)" stroke-width="2.36" stroke-opacity="1.00" stroke-linejoin="round"/>
</g>
</svg>
