<?xml version="1.0" encoding="UTF-8" standalone="no"?>
<!DOCTYPE svg PUBLIC "-//W3C//DTD SVG 1.1//EN" "http://www.w3.org/Graphics/SVG/1.1/DTD/svg11.dtd">
<svg width="128.40" height="181.68" viewBox="0.00 0.00 535.00 757.00" xmlns="http://www.w3.org/2000/svg" xmlns:xlink="http://www.w3.org/1999/xlink">
<g stroke-linecap="round" transform="translate(44.00, 155.00)" id="143-우산-2">
<path d="M233.50,222.65 C233.23,222.65 232.96,222.65 232.69,222.65 C232.64,222.65 232.58,222.65 232.53,222.65 C231.90,220.76 230.48,218.56 227.65,214.67 C225.68,212.04 223.32,210.47 219.34,208.54 C213.44,205.74 200.94,202.77 194.18,202.11 C189.15,201.63 181.07,201.45 174.24,202.35 C170.12,202.90 162.67,204.42 160.01,205.26 C158.23,205.83 149.88,209.45 147.82,210.65 C145.79,211.84 140.41,215.66 137.68,218.36 C136.48,219.56 126.88,229.75 126.73,230.16 C126.85,230.36 131.60,231.56 133.67,231.41 C136.13,231.20 144.02,228.97 145.38,228.84 C145.70,228.82 164.68,228.45 165.54,228.44 C167.78,228.41 175.43,227.66 176.59,227.59 C178.80,227.48 186.15,227.73 188.46,227.56 C190.11,227.42 196.71,226.02 199.61,225.35 C200.22,225.23 230.48,223.40 232.06,223.94 C232.22,224.00 232.70,224.21 233.50,224.58" fill="none" stroke="rgb(0, 255, 255)" stroke-width="2.36" stroke-opacity="1.00" stroke-linejoin="round"/>
<path d="M213.19,209.43 C213.19,209.43 213.19,207.68 213.19,207.68 C211.35,210.91 209.24,213.76 206.82,216.00 C203.91,218.66 197.56,225.22 196.72,225.88 C196.72,225.88 197.28,225.34 197.28,225.34" fill="none" stroke="rgb(0, 255, 255)" stroke-width="2.36" stroke-opacity="1.00" stroke-linejoin="round"/>
<path d="M203.20,225.87 C203.20,225.87 202.56,225.29 202.56,225.29 C202.55,224.47 205.25,222.37 207.17,220.92 C210.79,217.96 218.24,209.27 220.04,207.71 C220.04,207.71 219.55,207.99 219.55,207.99" fill="none" stroke="rgb(0, 255, 255)" stroke-width="2.36" stroke-opacity="1.00" stroke-linejoin="round"/>
<path d="M199.98,205.56 C199.98,205.56 200.54,204.92 200.54,204.92 C200.54,204.92 201.49,205.05 201.49,205.05 C202.51,206.02 182.45,225.65 180.53,227.32 C180.32,227.50 180.15,227.66 180.00,227.80" fill="none" stroke="rgb(0, 255, 255)" stroke-width="2.36" stroke-opacity="1.00" stroke-linejoin="round"/>
<path d="M192.24,203.95 C192.24,203.95 192.24,202.66 192.24,202.66 C191.80,203.83 190.83,205.61 189.70,207.23 C187.02,211.06 171.82,227.35 170.16,229.27 C170.16,229.27 170.91,228.52 170.91,228.52" fill="none" stroke="rgb(0, 255, 255)" stroke-width="2.36" stroke-opacity="1.00" stroke-linejoin="round"/>
<path d="M167.11,207.82 C165.58,207.82 165.03,207.84 164.80,207.99 C162.58,209.52 160.40,214.84 160.10,215.98 C160.10,215.98 163.28,215.83 163.28,215.83 C163.04,216.27 162.01,217.09 161.60,217.43 C161.29,217.70 160.62,218.29 159.61,219.21" fill="none" stroke="rgb(0, 255, 255)" stroke-width="2.36" stroke-opacity="1.00" stroke-linejoin="round"/>
<path d="M156.47,221.03 C156.47,221.03 155.34,221.03 155.34,221.03 C154.93,221.61 154.78,221.96 154.86,222.40 C154.92,222.70 154.98,223.01 155.04,223.31" fill="none" stroke="rgb(0, 255, 255)" stroke-width="2.36" stroke-opacity="1.00" stroke-linejoin="round"/>
<path d="M194.18,207.50 C194.18,207.50 193.31,206.69 193.31,206.69 C193.31,206.69 192.19,206.74 192.19,206.74 C192.19,206.74 190.74,210.99 190.74,210.99 C190.74,210.99 193.44,211.71 193.44,211.71 C193.44,211.71 188.60,217.53 188.60,217.53" fill="none" stroke="rgb(0, 255, 255)" stroke-width="2.36" stroke-opacity="1.00" stroke-linejoin="round"/>
<path d="M184.51,215.88 C184.26,216.24 184.10,216.49 184.03,216.61 C183.56,217.51 183.54,219.06 183.61,220.81 C183.61,220.81 186.23,222.19 186.23,222.19 C186.23,222.19 185.80,223.18 185.80,223.18" fill="none" stroke="rgb(0, 255, 255)" stroke-width="2.36" stroke-opacity="1.00" stroke-linejoin="round"/>
<path d="M176.45,205.24 C176.45,205.24 177.10,204.44 177.10,204.44 C177.07,204.44 163.14,220.26 161.40,222.77 C160.92,223.54 159.96,225.01 159.38,225.48 C159.18,225.64 158.72,225.94 158.01,226.38" fill="none" stroke="rgb(0, 255, 255)" stroke-width="2.36" stroke-opacity="1.00" stroke-linejoin="round"/>
<path d="M164.85,202.34 C164.20,202.72 163.58,203.16 163.17,203.74 C161.42,206.37 156.92,212.89 156.31,213.84 C156.14,214.11 147.45,223.28 146.01,225.03 C145.28,225.92 144.56,226.82 143.83,227.72" fill="none" stroke="rgb(0, 255, 255)" stroke-width="2.36" stroke-opacity="1.00" stroke-linejoin="round"/>
<path d="M163.56,230.06 C163.56,230.06 161.95,230.06 161.95,230.06 C162.58,236.50 161.96,249.35 162.21,251.40 C162.71,255.34 166.20,262.24 167.57,263.45 C168.78,264.44 174.92,265.64 175.57,265.10 C175.57,265.10 175.53,263.23 175.53,263.23 C174.48,262.78 171.59,261.72 171.40,261.62 C170.38,261.04 168.50,255.17 167.87,251.62 C166.69,244.68 168.16,229.40 168.18,228.28 C168.18,227.93 168.16,227.38 168.11,226.64" fill="none" stroke="rgb(0, 255, 255)" stroke-width="2.36" stroke-opacity="1.00" stroke-linejoin="round"/>
</g>
</svg>
