<?xml version="1.0" encoding="UTF-8" standalone="no"?>
<!DOCTYPE svg PUBLIC "-//W3C//DTD SVG 1.1//EN" "http://www.w3.org/Graphics/SVG/1.1/DTD/svg11.dtd">
<svg width="128.40" height="181.68" viewBox="0.00 0.00 535.00 757.00" xmlns="http://www.w3.org/2000/svg" xmlns:xlink="http://www.w3.org/1999/xlink">
<g stroke-linecap="round" transform="translate(44.00, 155.00)" id="144-사람">
<path d="M198.06,150.21 C197.63,150.21 197.30,150.21 197.06,150.21 C195.94,150.22 179.66,149.08 177.08,149.31 C174.61,149.56 166.36,152.02 163.48,153.39 C159.67,155.25 145.60,165.53 142.98,168.85 C140.99,171.44 138.02,177.56 137.15,181.26 C136.01,186.31 136.31,196.64 137.39,201.61 C138.41,206.17 140.43,213.91 140.88,215.27 C142.13,218.99 145.84,224.66 148.55,227.02 C151.03,229.12 156.60,232.79 159.92,233.66 C162.60,234.34 168.19,234.85 171.51,234.64 C174.92,234.39 180.07,232.78 184.70,230.52 C187.28,229.24 189.89,227.52 191.93,225.91 C194.15,224.13 202.01,213.28 204.83,207.92 C207.05,203.69 210.72,191.01 211.44,184.89 C211.62,183.33 212.15,175.09 212.31,171.83 C212.41,169.47 212.33,164.15 211.46,161.52 C210.65,159.17 207.19,153.85 204.92,151.80 C203.12,150.19 198.72,147.98 195.21,147.52 C194.28,147.41 193.35,147.29 192.42,147.17" fill="none" stroke="rgb(255, 0, 255)" stroke-width="2.41" stroke-opacity="1.00" stroke-linejoin="round"/>
<path d="M211.07,179.72 C211.07,179.72 211.07,179.28 211.07,179.28 C207.94,182.44 204.18,185.55 201.07,187.19 C200.03,187.72 196.52,189.33 195.62,189.66 C193.71,190.37 191.93,190.11 191.42,190.26 C190.31,190.58 187.58,192.16 186.45,192.55 C186.45,192.55 200.52,180.18 200.52,180.18 C200.52,180.18 181.59,189.73 181.59,189.73 C181.59,189.73 190.84,181.05 190.84,181.05 C190.84,181.05 171.84,191.34 171.84,191.34 C171.84,191.34 178.27,184.09 178.27,184.09 C176.26,184.12 171.97,186.09 169.12,187.40 C166.03,188.88 160.73,191.43 158.66,192.52 C158.66,192.52 155.89,191.79 155.89,191.79 C155.89,191.79 169.02,177.21 169.02,177.21 C168.15,176.96 164.47,179.39 160.63,181.45 C156.55,183.62 154.87,184.18 154.36,184.21 C154.36,184.21 158.76,173.97 158.76,173.97 C158.76,173.97 144.54,183.79 144.54,183.79 C143.97,183.66 140.77,177.65 140.28,177.23 C139.96,176.97 139.26,176.64 138.18,176.24" fill="none" stroke="rgb(255, 0, 255)" stroke-width="2.41" stroke-opacity="1.00" stroke-linejoin="round"/>
<path d="M151.20,204.01 C151.20,204.01 150.40,203.88 150.40,203.88 C153.43,201.62 158.27,199.02 161.41,198.64 C163.27,198.45 166.79,198.86 168.15,199.45 C170.44,200.51 172.67,204.44 173.28,207.37 C173.28,207.37 172.89,207.48 172.89,207.48" fill="none" stroke="rgb(255, 0, 255)" stroke-width="2.41" stroke-opacity="1.00" stroke-linejoin="round"/>
<path d="M161.61,206.62 C161.44,206.68 160.46,206.40 159.75,206.18 C159.59,206.14 159.49,206.16 159.44,206.23 C159.44,206.23 161.72,208.16 161.72,208.16 C161.72,208.16 162.52,205.28 162.52,205.28 C162.52,205.28 159.96,207.47 159.96,207.47 C159.96,207.47 162.91,206.18 162.91,206.18" fill="none" stroke="rgb(255, 0, 255)" stroke-width="2.41" stroke-opacity="1.00" stroke-linejoin="round"/>
<path d="M180.70,207.05 C180.70,207.05 179.02,206.94 179.02,206.94 C181.48,204.89 187.89,201.47 190.23,200.60 C191.99,199.97 194.68,199.50 195.89,199.64 C198.07,199.96 199.78,201.67 201.00,203.15 C201.00,203.15 200.23,203.58 200.23,203.58" fill="none" stroke="rgb(255, 0, 255)" stroke-width="2.41" stroke-opacity="1.00" stroke-linejoin="round"/>
<path d="M190.68,208.35 C190.68,208.35 189.81,208.35 189.81,208.35 C189.81,208.35 189.92,211.48 189.92,211.48 C189.92,211.48 191.25,211.49 191.25,211.49 C191.25,211.49 191.87,209.06 191.87,209.06 C191.87,209.06 190.42,210.83 190.42,210.83 C190.42,210.83 191.12,210.09 191.12,210.09" fill="none" stroke="rgb(255, 0, 255)" stroke-width="2.41" stroke-opacity="1.00" stroke-linejoin="round"/>
<path d="M174.63,210.95 C174.63,210.95 174.19,210.95 174.19,210.95 C173.84,211.14 172.86,212.87 172.46,213.57 C171.97,214.42 170.70,216.63 170.40,217.58 C172.15,217.45 173.34,217.15 175.79,216.13 C176.40,215.88 177.37,215.49 178.71,214.96" fill="none" stroke="rgb(255, 0, 255)" stroke-width="2.41" stroke-opacity="1.00" stroke-linejoin="round"/>
<path d="M179.83,228.74 C179.83,228.74 180.27,228.74 180.27,228.74 C176.69,225.94 173.22,223.74 170.62,223.82 C168.79,223.92 163.83,228.43 163.18,229.44 C162.94,229.81 162.56,230.59 162.05,231.78" fill="none" stroke="rgb(255, 0, 255)" stroke-width="2.41" stroke-opacity="1.00" stroke-linejoin="round"/>
<path d="M166.38,235.25 C166.38,235.25 165.95,235.47 165.95,235.47 C165.95,235.47 165.95,241.39 165.95,241.39 C167.31,241.86 171.19,240.67 171.91,239.11 C172.19,238.46 172.34,237.73 172.34,236.93 C172.34,236.43 172.24,235.24 172.06,233.37" fill="none" stroke="rgb(255, 0, 255)" stroke-width="2.41" stroke-opacity="1.00" stroke-linejoin="round"/>
<path d="M164.21,236.55 C163.70,236.42 157.44,239.98 156.82,240.31 C154.25,241.66 148.20,244.12 146.09,243.79 C143.03,243.29 138.89,241.98 138.46,241.76 C140.21,240.63 147.03,240.25 149.64,240.11 C151.05,240.03 154.26,239.85 154.73,239.79 C155.56,239.70 156.89,239.20 158.97,238.31" fill="none" stroke="rgb(255, 0, 255)" stroke-width="2.41" stroke-opacity="1.00" stroke-linejoin="round"/>
<path d="M175.50,242.63 C175.50,242.63 176.49,240.52 176.49,240.52 C176.49,241.50 172.53,243.89 169.66,244.85 C169.38,244.94 149.61,249.74 148.11,249.80 C146.66,249.83 138.45,248.01 137.01,248.10 C136.30,248.15 135.76,248.72 135.20,249.52 C136.37,251.23 137.63,252.19 139.71,252.80 C144.37,254.15 154.56,254.48 158.63,253.46 C159.67,253.19 167.01,250.80 169.51,249.77 C172.68,248.46 175.72,246.24 178.95,243.02 C180.45,241.50 182.96,238.98 183.95,237.97 C183.95,237.97 183.31,238.29 183.31,238.29" fill="none" stroke="rgb(255, 0, 255)" stroke-width="2.41" stroke-opacity="1.00" stroke-linejoin="round"/>
<path d="M175.06,236.55 C174.83,236.51 174.62,236.51 174.41,236.55 C174.21,236.60 173.72,236.74 172.96,236.99 C175.75,236.98 182.70,236.95 184.11,237.44 C185.32,237.89 186.81,239.46 187.55,240.87 C188.87,243.55 189.75,248.60 189.82,251.89 C189.92,259.42 187.57,269.61 185.35,275.92 C183.45,281.47 182.96,289.39 182.86,290.27 C181.46,289.26 178.50,287.74 173.77,286.72 C172.39,286.42 159.30,284.46 158.79,284.37 C156.62,283.94 154.95,283.37 154.72,282.85 C154.36,281.82 153.57,261.64 152.83,257.05 C152.65,255.96 152.23,253.83 152.07,253.04" fill="none" stroke="rgb(255, 0, 255)" stroke-width="2.41" stroke-opacity="1.00" stroke-linejoin="round"/>
<path d="M139.92,250.00 C139.92,250.17 139.92,250.31 139.92,250.44 C139.91,250.79 139.92,251.04 139.96,251.17 C139.99,251.32 140.11,251.62 140.30,252.07" fill="none" stroke="rgb(255, 0, 255)" stroke-width="2.41" stroke-opacity="1.00" stroke-linejoin="round"/>
<path d="M155.97,283.85 C155.57,284.65 154.46,285.64 154.14,286.09 C153.60,286.89 152.46,294.72 151.00,297.40 C148.12,302.57 143.60,313.40 139.77,320.36 C136.41,326.32 130.77,335.46 130.33,336.55 C131.01,336.72 145.46,335.31 147.00,335.25 C149.01,335.15 151.04,334.17 152.07,332.78 C152.29,332.46 158.12,315.01 160.81,308.22 C162.29,304.68 164.87,298.56 165.93,296.58 C165.93,296.58 168.95,329.93 168.95,329.93 C168.95,329.93 191.19,331.04 191.19,331.04 C191.12,327.54 186.55,308.00 184.30,298.54 C183.46,295.04 182.09,289.25 182.00,288.95 C181.91,288.65 181.77,288.25 181.57,287.75" fill="none" stroke="rgb(255, 0, 255)" stroke-width="2.41" stroke-opacity="1.00" stroke-linejoin="round"/>
<path d="M177.23,331.57 C177.23,331.57 176.80,331.65 176.80,331.65 C176.80,331.65 178.44,342.93 178.44,342.93 C178.44,342.93 178.97,342.85 178.97,342.85" fill="none" stroke="rgb(255, 0, 255)" stroke-width="2.41" stroke-opacity="1.00" stroke-linejoin="round"/>
<path d="M183.74,330.27 C183.67,330.49 183.59,330.70 183.52,330.92 C183.23,331.86 183.07,332.48 183.05,332.77 C183.04,332.98 186.17,343.56 186.16,344.09 C186.16,344.32 186.07,344.63 185.92,345.01" fill="none" stroke="rgb(255, 0, 255)" stroke-width="2.41" stroke-opacity="1.00" stroke-linejoin="round"/>
<path d="M187.21,338.51 C185.68,338.44 184.58,338.32 181.71,337.94 C179.12,337.63 176.85,338.00 175.21,339.03 C174.19,339.71 173.07,341.22 172.94,342.03 C172.83,342.97 173.55,352.15 174.04,354.58 C174.41,356.26 175.36,358.48 176.10,359.13 C176.94,359.80 179.83,360.35 181.34,360.08 C182.87,359.77 185.85,358.40 186.87,357.59 C189.23,355.61 191.17,351.32 191.41,347.56 C191.50,345.61 191.30,340.13 191.04,339.56 C190.82,339.07 190.12,338.00 188.95,336.35" fill="none" stroke="rgb(255, 0, 255)" stroke-width="2.41" stroke-opacity="1.00" stroke-linejoin="round"/>
<path d="M174.19,354.57 C174.18,356.55 174.18,357.81 174.19,358.36 C174.34,365.52 178.74,385.78 178.95,386.66 C178.09,387.21 171.59,387.09 169.38,387.46 C167.78,387.73 165.79,388.51 165.48,388.94 C165.23,389.38 165.06,390.41 165.31,390.95 C166.66,393.61 171.60,396.87 174.26,397.39 C176.56,397.78 180.32,397.71 183.09,397.36 C186.54,396.87 191.35,395.02 193.15,392.55 C194.45,390.66 195.63,384.53 195.64,381.29 C195.60,368.87 192.75,349.87 191.96,343.07 C191.72,341.11 191.29,337.74 191.12,336.35" fill="none" stroke="rgb(255, 0, 255)" stroke-width="2.41" stroke-opacity="1.00" stroke-linejoin="round"/>
<path d="M143.39,336.78 C143.21,336.86 143.06,336.93 142.95,337.00 C142.85,337.06 142.63,337.20 142.30,337.43 C141.96,337.66 142.40,344.95 142.62,345.78 C142.73,346.18 142.99,346.51 143.39,346.76" fill="none" stroke="rgb(255, 0, 255)" stroke-width="2.41" stroke-opacity="1.00" stroke-linejoin="round"/>
<path d="M137.31,336.35 C137.23,336.84 136.47,337.57 136.45,337.73 C136.20,339.45 137.49,346.82 137.64,347.40 C137.67,347.51 137.71,347.59 137.75,347.63" fill="none" stroke="rgb(255, 0, 255)" stroke-width="2.41" stroke-opacity="1.00" stroke-linejoin="round"/>
<path d="M137.75,341.12 C137.72,341.18 137.65,341.25 137.53,341.33 C136.77,341.86 136.17,342.04 135.30,341.99 C134.30,341.99 133.01,344.42 132.96,347.09 C132.97,348.63 133.26,351.53 133.61,352.71 C134.03,353.98 135.88,355.87 136.94,356.17 C138.15,356.44 140.97,355.70 142.66,354.71 C144.20,353.76 146.35,351.60 146.86,350.45 C147.30,349.37 147.27,347.22 146.86,345.95 C146.38,344.66 144.44,342.09 143.15,341.35 C142.62,341.05 141.54,340.68 139.92,340.25" fill="none" stroke="rgb(255, 0, 255)" stroke-width="2.41" stroke-opacity="1.00" stroke-linejoin="round"/>
<path d="M147.29,349.80 C147.29,349.80 147.08,349.80 147.08,349.80 C147.08,349.80 146.86,350.01 146.86,350.01 C146.83,350.81 146.90,351.70 147.16,353.13 C148.67,360.73 149.02,367.09 149.05,379.19 C149.08,381.17 152.59,387.36 152.86,388.63 C153.00,389.37 152.06,391.22 151.36,391.81 C149.56,393.22 144.00,393.83 139.90,393.41 C133.05,392.65 128.68,391.72 126.55,389.68 C125.44,388.57 124.26,385.75 123.99,383.90 C123.83,382.41 124.06,379.48 124.47,378.39 C125.01,377.08 126.91,375.13 128.40,374.35 C129.54,373.76 134.39,372.11 135.42,371.42 C135.67,369.48 134.56,357.37 134.46,354.89 C134.41,353.35 134.32,350.59 134.28,349.36" fill="none" stroke="rgb(255, 0, 255)" stroke-width="2.41" stroke-opacity="1.00" stroke-linejoin="round"/>
</g>
</svg>
