<?xml version="1.0" encoding="UTF-8" standalone="no"?>
<!DOCTYPE svg PUBLIC "-//W3C//DTD SVG 1.1//EN" "http://www.w3.org/Graphics/SVG/1.1/DTD/svg11.dtd">
<svg width="128.40" height="181.68" viewBox="0.00 0.00 535.00 757.00" xmlns="http://www.w3.org/2000/svg" xmlns:xlink="http://www.w3.org/1999/xlink">
<g stroke-linecap="round" transform="translate(44.00, 155.00)" id="144-바람-3">
<path d="M134.71,292.52 C134.70,293.28 134.71,293.79 134.76,294.03 C134.85,294.56 135.66,297.50 135.41,298.76 C134.82,301.61 130.20,306.28 128.72,307.33 C127.17,308.42 120.31,312.91 117.33,314.85 C113.52,317.31 111.65,318.28 107.34,319.94 C99.59,322.81 84.62,326.42 80.22,327.06 C72.84,328.12 62.06,328.40 57.94,327.64 C55.83,327.23 52.18,325.92 50.31,324.84 C49.09,324.13 44.17,320.81 42.08,318.66 C39.64,316.10 37.59,310.86 37.63,308.28 C37.73,305.64 39.92,300.12 41.60,297.60 C43.58,294.70 47.18,291.53 49.51,290.22 C51.91,288.92 69.98,285.01 73.62,285.99 C75.45,286.53 78.62,289.98 79.03,291.40 C79.19,292.06 79.22,293.87 78.92,294.62 C77.75,297.43 73.25,302.81 71.19,304.77 C69.01,306.79 65.53,308.98 63.86,309.01 C62.12,308.97 51.09,303.67 50.42,303.05 C48.93,301.65 47.52,299.40 47.75,298.65 C48.34,297.06 50.62,295.02 54.26,292.17 C57.52,289.70 61.02,288.51 61.48,288.43 C61.81,288.37 62.65,288.29 63.99,288.18" fill="none" stroke="rgb(28, 31, 136)" stroke-width="2.41" stroke-opacity="1.00" stroke-linejoin="round"/>
<path d="M78.74,293.83 C78.74,293.83 78.52,293.83 78.52,293.83 C78.27,293.61 69.35,293.39 67.33,294.05 C65.90,294.54 63.97,296.13 63.48,297.03 C62.82,298.42 62.19,304.60 62.31,306.60 C62.41,307.76 63.21,309.71 63.81,310.25 C65.16,311.32 70.02,311.03 73.01,309.58 C75.26,308.46 77.42,306.16 78.22,303.60 C79.17,300.36 79.17,299.14 78.85,297.78 C78.85,297.78 78.31,297.73 78.31,297.73" fill="none" stroke="rgb(28, 31, 136)" stroke-width="2.41" stroke-opacity="1.00" stroke-linejoin="round"/>
</g>
</svg>
