<?xml version="1.0" encoding="UTF-8" standalone="no"?>
<!DOCTYPE svg PUBLIC "-//W3C//DTD SVG 1.1//EN" "http://www.w3.org/Graphics/SVG/1.1/DTD/svg11.dtd">
<svg width="128.40" height="181.68" viewBox="0.00 0.00 535.00 757.00" xmlns="http://www.w3.org/2000/svg" xmlns:xlink="http://www.w3.org/1999/xlink">
<g stroke-linecap="round" transform="translate(44.00, 155.00)" id="144-물웅덩이">
<path d="M199.36,381.03 C199.36,381.03 196.76,382.34 196.76,382.34 C198.51,382.25 200.71,382.67 202.23,383.68 C202.84,384.09 207.51,388.43 207.94,388.96 C209.75,391.24 209.25,394.47 209.08,394.80 C209.08,394.80 208.53,394.94 208.53,394.94" fill="none" stroke="rgb(255, 255, 0)" stroke-width="2.41" stroke-opacity="1.00" stroke-linejoin="round"/>
<path d="M209.77,394.05 C209.77,394.05 208.47,394.92 208.47,394.92 C208.39,394.10 207.88,393.48 206.75,393.35 C202.44,392.85 196.52,391.01 194.63,391.45 C193.71,391.67 187.40,395.47 184.17,396.29 C180.90,397.10 170.26,396.34 161.20,397.57 C158.21,398.00 142.32,398.91 139.37,399.38 C139.37,399.38 140.21,400.11 140.21,400.11 C137.91,400.83 134.04,400.44 132.42,399.17 C132.12,398.93 126.51,393.55 125.06,392.81 C124.04,392.29 120.93,390.90 120.37,390.25 C119.81,389.60 115.54,384.86 113.79,384.09 C112.75,383.68 110.95,383.81 110.29,384.46 C107.23,387.78 109.37,397.50 109.63,398.26 C107.67,394.19 106.36,389.23 106.99,385.10 C107.26,383.52 108.97,379.38 110.17,377.35 C111.56,375.05 115.22,370.99 117.77,369.84 C119.26,369.18 129.95,366.46 130.44,366.33 C130.96,366.20 132.23,365.89 134.28,365.42" fill="none" stroke="rgb(255, 255, 0)" stroke-width="2.41" stroke-opacity="1.00" stroke-linejoin="round"/>
<path d="M155.10,366.28 C155.10,366.28 148.76,365.85 148.76,365.85 C148.89,365.85 152.96,365.80 154.65,365.47 C158.54,364.68 163.57,360.68 164.33,360.07 C164.53,360.04 166.04,367.68 167.41,368.41 C168.84,369.07 173.76,366.65 174.76,366.27 C174.76,366.27 175.50,369.28 175.50,369.28" fill="none" stroke="rgb(255, 255, 0)" stroke-width="2.41" stroke-opacity="1.00" stroke-linejoin="round"/>
<path d="M174.19,373.23 C174.66,373.53 175.13,373.88 175.42,374.09 C175.43,374.10 175.47,374.10 175.46,374.09 C173.27,373.45 167.81,372.99 164.19,372.74 C161.93,372.47 161.30,370.75 161.11,369.96 C159.92,370.69 158.42,371.99 157.88,372.47 C156.88,373.32 154.61,374.02 153.48,373.44 C153.00,373.19 152.09,372.39 150.76,371.06" fill="none" stroke="rgb(255, 255, 0)" stroke-width="2.41" stroke-opacity="1.00" stroke-linejoin="round"/>
<path d="M196.32,370.19 C196.32,370.19 195.02,370.75 195.02,370.75 C195.15,371.19 202.09,372.83 204.42,373.84 C206.83,374.93 210.41,378.34 210.47,380.18 C210.48,381.39 208.78,385.28 208.33,385.91 C208.00,386.35 207.18,387.32 205.87,388.84" fill="none" stroke="rgb(255, 255, 0)" stroke-width="2.41" stroke-opacity="1.00" stroke-linejoin="round"/>
<path d="M211.94,391.88 C211.94,391.88 211.07,391.93 211.07,391.93 C211.07,391.93 212.83,397.91 212.83,397.91 C211.82,398.30 196.21,400.46 195.02,400.96 C194.53,401.17 188.11,404.74 185.79,405.06 C182.34,405.53 178.38,406.37 176.04,407.07 C173.74,407.73 172.19,407.20 168.87,405.48 C167.48,404.76 164.57,403.94 163.09,404.15 C161.59,404.37 154.13,408.72 151.62,408.92 C149.44,409.06 141.56,406.27 141.32,406.18 C138.71,405.22 137.27,405.32 132.41,406.10 C128.16,406.83 123.88,406.49 122.27,405.22 C119.72,403.16 117.52,402.19 114.01,402.39 C111.49,402.56 103.19,403.90 102.50,403.63 C102.27,403.54 100.80,401.71 100.91,401.35 C101.02,401.01 101.44,400.03 102.17,398.39" fill="none" stroke="rgb(255, 255, 0)" stroke-width="2.41" stroke-opacity="1.00" stroke-linejoin="round"/>
</g>
</svg>
