<?xml version="1.0" encoding="UTF-8" standalone="no"?>
<!DOCTYPE svg PUBLIC "-//W3C//DTD SVG 1.1//EN" "http://www.w3.org/Graphics/SVG/1.1/DTD/svg11.dtd">
<svg width="128.40" height="181.68" viewBox="0.00 0.00 535.00 757.00" xmlns="http://www.w3.org/2000/svg" xmlns:xlink="http://www.w3.org/1999/xlink">
<g stroke-linecap="round" transform="translate(44.00, 155.00)" id="144-비">
<path d="M72.23,94.67 C71.13,94.54 67.97,97.26 64.01,100.47 C56.12,106.75 23.82,127.67 17.80,132.09 C11.99,136.42 0.11,145.24 -5.97,149.74 C-8.33,151.43 -24.03,161.31 -28.20,164.50 C-37.20,171.40 -38.64,172.18 -39.58,172.58" fill="none" stroke="rgb(229, 0, 16)" stroke-width="2.41" stroke-opacity="1.00" stroke-linejoin="round"/>
<path d="M55.31,136.33 C55.31,136.33 55.96,135.89 55.96,135.89 C55.95,136.01 41.62,149.34 35.80,154.53 C20.74,167.55 10.38,174.96 8.15,176.54" fill="none" stroke="rgb(229, 0, 16)" stroke-width="2.41" stroke-opacity="1.00" stroke-linejoin="round"/>
<path d="M86.12,53.89 C86.12,53.89 86.12,52.81 86.12,52.81 C86.12,52.81 85.94,52.59 85.94,52.59 C84.95,52.97 69.54,58.68 62.04,61.22 C44.50,66.93 26.60,73.33 11.22,80.58 C5.16,83.52 -10.43,91.37 -13.27,93.81 C-13.61,94.11 -14.07,94.55 -14.65,95.15" fill="none" stroke="rgb(229, 0, 16)" stroke-width="2.41" stroke-opacity="1.00" stroke-linejoin="round"/>
<path d="M36.65,85.13 C37.30,84.03 39.15,83.05 42.50,82.39 C54.29,80.04 93.71,69.62 105.57,67.09 C116.19,64.86 156.23,53.41 159.93,52.62 C164.01,51.76 219.36,42.29 222.17,41.76 C223.33,41.53 225.32,41.18 226.69,40.94" fill="none" stroke="rgb(229, 0, 16)" stroke-width="2.41" stroke-opacity="1.00" stroke-linejoin="round"/>
<path d="M266.18,55.19 C265.43,54.28 264.25,53.86 262.54,54.06 C258.35,54.74 234.58,54.81 233.59,54.84 C228.62,54.98 220.11,56.53 210.83,58.90 C195.61,62.97 166.46,71.04 155.93,74.62 C149.26,77.01 136.27,81.59 129.94,83.47 C120.76,86.17 102.44,90.50 101.30,90.77" fill="none" stroke="rgb(229, 0, 16)" stroke-width="2.41" stroke-opacity="1.00" stroke-linejoin="round"/>
<path d="M301.32,46.51 C300.08,46.86 297.89,47.58 296.55,48.12 C291.96,49.99 283.24,54.48 274.15,60.00 C261.52,67.56 241.67,79.59 224.83,88.35 C213.55,94.07 205.82,97.67 200.66,100.75" fill="none" stroke="rgb(229, 0, 16)" stroke-width="2.41" stroke-opacity="1.00" stroke-linejoin="round"/>
<path d="M344.27,59.53 C343.35,59.03 339.02,61.10 336.61,61.92 C335.20,62.39 293.59,74.47 281.08,78.26 C277.47,79.38 259.85,85.87 253.15,88.48 C248.30,90.46 234.87,97.12 229.22,99.97 C225.08,101.98 222.86,102.77 220.07,103.68" fill="none" stroke="rgb(229, 0, 16)" stroke-width="2.41" stroke-opacity="1.00" stroke-linejoin="round"/>
<path d="M382.02,59.10 C382.02,59.10 382.02,58.66 382.02,58.66 C381.14,58.26 380.45,58.36 379.47,59.22 C376.47,61.89 373.20,64.28 369.33,65.93 C362.22,68.69 351.49,72.97 343.04,76.94 C330.39,82.60 316.91,88.65 316.07,89.03" fill="none" stroke="rgb(229, 0, 16)" stroke-width="2.41" stroke-opacity="1.00" stroke-linejoin="round"/>
<path d="M306.09,93.81 C303.55,94.55 299.98,96.09 296.36,97.39 C292.49,98.81 262.73,110.89 258.17,112.25 C253.54,113.59 250.75,114.55 246.73,116.15" fill="none" stroke="rgb(229, 0, 16)" stroke-width="2.41" stroke-opacity="1.00" stroke-linejoin="round"/>
<path d="M406.32,74.72 C406.32,74.72 406.97,73.41 406.97,73.41 C406.83,73.75 400.10,79.48 398.58,80.68 C394.82,83.60 380.75,89.11 373.03,91.96 C362.69,95.66 325.38,108.26 317.54,111.65 C310.55,114.51 292.07,122.06 289.61,123.13 C285.35,125.00 278.60,129.02 277.80,129.50" fill="none" stroke="rgb(229, 0, 16)" stroke-width="2.41" stroke-opacity="1.00" stroke-linejoin="round"/>
<path d="M427.58,104.65 C427.53,104.70 427.46,104.70 427.36,104.65 C426.08,104.21 422.80,105.56 417.13,108.08 C413.19,109.94 399.60,115.08 391.25,117.45 C386.86,118.69 365.33,123.77 362.97,124.43 C359.42,125.42 342.54,131.53 338.09,132.84 C330.63,134.97 315.08,139.44 306.53,142.07 C298.56,144.65 291.55,147.99 289.97,148.82" fill="none" stroke="rgb(229, 0, 16)" stroke-width="2.41" stroke-opacity="1.00" stroke-linejoin="round"/>
<path d="M314.77,151.08 C314.77,151.08 314.99,150.43 314.99,150.43 C314.94,150.30 301.06,159.97 294.02,164.68 C279.60,174.11 262.43,183.76 257.57,186.51 C257.57,186.51 258.04,186.52 258.04,186.52" fill="none" stroke="rgb(229, 0, 16)" stroke-width="2.41" stroke-opacity="1.00" stroke-linejoin="round"/>
<path d="M408.49,133.29 C407.17,133.66 405.60,133.78 404.57,133.83 C403.52,133.97 363.03,149.68 346.85,155.94 C340.53,158.31 328.40,162.82 322.58,164.96" fill="none" stroke="rgb(229, 0, 16)" stroke-width="2.41" stroke-opacity="1.00" stroke-linejoin="round"/>
<path d="M462.29,125.48 C462.29,125.48 463.30,124.61 463.30,124.61 C463.30,124.61 466.53,125.11 466.53,125.11 C464.54,125.81 457.14,126.93 452.85,127.59 C446.37,128.69 430.31,131.96 424.50,133.53 C394.83,142.10 362.87,151.55 353.39,154.12" fill="none" stroke="rgb(229, 0, 16)" stroke-width="2.41" stroke-opacity="1.00" stroke-linejoin="round"/>
<path d="M318.68,166.26 C318.38,166.14 317.34,166.56 315.98,167.46 C314.53,168.42 297.36,181.52 293.56,183.98 C285.14,189.38 261.29,200.71 253.33,204.46" fill="none" stroke="rgb(229, 0, 16)" stroke-width="2.41" stroke-opacity="1.00" stroke-linejoin="round"/>
<path d="M399.81,157.59 C399.81,157.59 401.55,156.39 401.55,156.39 C399.51,156.74 360.66,170.53 345.78,175.85 C334.12,180.23 310.05,193.46 294.94,202.55 C292.04,204.24 285.34,208.07 282.38,209.56 C278.28,211.59 276.35,212.45 274.85,213.12" fill="none" stroke="rgb(229, 0, 16)" stroke-width="2.41" stroke-opacity="1.00" stroke-linejoin="round"/>
<path d="M454.91,157.15 C454.91,157.15 454.80,156.50 454.80,156.50 C453.19,155.94 441.64,158.45 431.25,162.05 C409.80,169.60 393.37,173.91 373.76,179.66 C359.21,184.06 333.18,192.43 319.15,196.90 C310.85,199.53 307.31,201.04 306.52,201.38" fill="none" stroke="rgb(229, 0, 16)" stroke-width="2.41" stroke-opacity="1.00" stroke-linejoin="round"/>
<path d="M443.20,196.20 C441.30,194.53 439.22,194.20 433.76,194.00 C423.83,193.65 413.99,193.62 406.91,194.37 C403.19,194.77 383.28,197.98 377.21,199.43 C369.23,201.36 334.93,211.99 320.42,216.32 C317.07,217.30 303.22,221.29 292.05,223.61 C289.95,224.03 288.52,224.45 285.95,225.33" fill="none" stroke="rgb(229, 0, 16)" stroke-width="2.41" stroke-opacity="1.00" stroke-linejoin="round"/>
<path d="M461.86,263.02 C458.83,262.53 442.10,262.01 435.02,262.35 C429.73,262.62 416.66,264.78 408.24,266.51 C398.83,268.68 389.59,271.13 379.67,274.30 C369.52,277.58 354.49,280.99 354.18,281.06 C353.88,281.13 353.30,281.29 352.43,281.53" fill="none" stroke="rgb(229, 0, 16)" stroke-width="2.41" stroke-opacity="1.00" stroke-linejoin="round"/>
<path d="M435.39,328.97 C424.84,326.43 416.86,324.91 409.82,324.77 C403.62,324.66 390.99,325.59 383.36,326.46 C364.46,329.09 337.96,333.79 322.63,337.53 C314.61,339.54 294.60,344.57 292.66,345.14 C291.16,345.57 284.60,347.86 281.98,348.77" fill="none" stroke="rgb(229, 0, 16)" stroke-width="2.41" stroke-opacity="1.00" stroke-linejoin="round"/>
</g>
</svg>
