<?xml version="1.0" encoding="UTF-8" standalone="no"?>
<!DOCTYPE svg PUBLIC "-//W3C//DTD SVG 1.1//EN" "http://www.w3.org/Graphics/SVG/1.1/DTD/svg11.dtd">
<svg width="128.40" height="181.68" viewBox="0.00 0.00 535.00 757.00" xmlns="http://www.w3.org/2000/svg" xmlns:xlink="http://www.w3.org/1999/xlink">
<g stroke-linecap="round" transform="translate(44.00, 155.00)" id="144-나무">
<path d="M27.98,293.39 C28.28,293.43 32.24,292.35 35.09,291.70 C37.21,291.08 51.82,280.31 52.75,279.44 C56.02,276.35 62.77,265.75 64.21,261.66 C65.71,257.29 67.57,240.40 67.64,238.22 C67.77,233.45 67.06,229.34 65.82,225.89 C65.17,223.97 65.10,222.89 65.71,222.08 C67.20,220.16 69.47,214.55 69.90,212.04 C70.29,209.34 69.42,204.06 67.69,201.48 C66.16,199.30 63.98,197.73 59.98,195.66 C55.33,193.16 51.86,191.01 49.03,188.44 C47.62,187.15 44.73,184.40 44.23,183.97 C41.77,181.96 34.76,179.59 30.98,179.22 C27.80,178.95 21.54,179.74 18.47,180.97 C15.72,182.09 9.52,185.39 8.82,185.35 C8.61,185.33 2.84,183.66 0.05,183.85 C-4.65,184.21 -15.17,187.39 -18.85,189.99 C-20.84,191.42 -24.18,194.57 -25.56,196.57 C-26.73,198.29 -29.26,203.47 -30.05,205.89 C-30.97,208.75 -30.96,216.12 -31.36,216.80 C-31.75,217.45 -36.16,223.81 -37.14,226.09 C-38.06,228.32 -38.89,232.10 -38.84,234.35 C-38.71,238.46 -36.40,249.27 -34.26,253.66 C-33.19,255.82 -30.82,259.22 -29.14,261.03 C-26.99,263.25 -22.29,265.71 -18.45,266.52 C-17.26,266.75 -16.42,266.88 -15.95,266.91 C-15.42,266.94 -14.23,266.94 -12.37,266.92" fill="none" stroke="rgb(0, 255, 255)" stroke-width="2.41" stroke-opacity="1.00" stroke-linejoin="round"/>
<path d="M-7.17,250.44 C-7.61,250.80 -8.34,251.02 -8.96,250.81 C-10.50,250.25 -26.96,237.56 -27.12,236.75 C-27.23,235.97 -26.68,233.40 -26.29,232.78 C-25.73,231.99 -24.11,231.04 -23.14,231.05 C-21.26,231.11 -16.93,234.55 -15.06,236.94 C-14.40,237.81 -10.34,243.48 -9.03,244.97 C-8.61,243.44 -8.91,221.75 -8.65,216.80 C-8.53,214.52 -8.37,213.26 -8.18,212.66 C-8.16,212.19 -2.49,213.44 -1.39,214.84 C0.03,216.82 -0.34,223.92 -1.33,237.54 C-1.55,241.09 -1.46,243.53 -1.41,244.72 C-0.75,243.47 7.63,225.82 11.59,218.19 C13.30,214.90 16.65,211.81 18.87,211.00 C20.01,210.61 21.68,210.59 22.44,210.98 C23.12,211.39 23.88,212.96 23.65,214.05 C23.27,215.71 13.34,235.95 12.53,238.81 C12.44,239.15 12.30,239.82 12.14,240.81 C13.93,240.26 21.15,231.45 28.57,221.79 C35.59,212.79 37.46,211.91 38.31,211.84 C38.31,211.84 38.88,234.05 38.88,234.05 C37.81,234.49 32.12,234.37 30.22,235.05 C29.63,235.27 28.84,236.36 28.62,236.95 C28.31,237.90 28.87,242.44 29.71,247.93 C30.25,251.68 30.24,256.58 29.36,259.25 C28.91,260.56 27.13,262.82 26.49,263.62 C26.20,263.98 25.83,264.50 25.37,265.19" fill="none" stroke="rgb(0, 255, 255)" stroke-width="2.41" stroke-opacity="1.00" stroke-linejoin="round"/>
<path d="M26.68,263.02 C26.68,263.02 26.02,263.13 26.02,263.13 C25.26,263.52 25.68,267.91 26.19,275.06 C26.75,283.49 25.73,298.10 25.59,300.02 C25.33,303.47 19.17,350.06 19.01,351.86 C18.66,356.03 17.87,375.38 18.27,382.68 C19.03,393.20 22.83,411.94 23.17,414.26 C23.17,414.26 14.78,412.18 14.78,412.18 C14.78,412.18 11.02,416.28 11.02,416.28 C11.02,416.28 7.21,412.35 7.21,412.35 C7.21,412.35 -0.21,417.85 -0.21,417.85 C-0.67,417.51 -1.03,414.02 -1.09,410.75 C-1.14,407.81 -1.03,401.87 -2.38,398.90 C-4.79,394.14 -7.45,384.45 -7.97,379.67 C-8.70,372.80 -9.24,352.96 -9.20,349.34 C-9.12,342.35 -4.81,308.14 -5.01,297.39 C-5.11,293.05 -7.57,251.32 -7.62,251.20 C-7.70,251.04 -7.98,250.64 -8.47,250.00" fill="none" stroke="rgb(0, 255, 255)" stroke-width="2.41" stroke-opacity="1.00" stroke-linejoin="round"/>
</g>
</svg>
