<?xml version="1.0" encoding="UTF-8" standalone="no"?>
<!DOCTYPE svg PUBLIC "-//W3C//DTD SVG 1.1//EN" "http://www.w3.org/Graphics/SVG/1.1/DTD/svg11.dtd">
<svg width="128.40" height="181.68" viewBox="0.00 0.00 535.00 757.00" xmlns="http://www.w3.org/2000/svg" xmlns:xlink="http://www.w3.org/1999/xlink">
<g stroke-linecap="round" transform="translate(44.00, 155.00)" id="145-우산">
<path d="M88.30,128.62 C88.30,128.62 87.84,126.26 87.84,126.26 C86.29,126.32 84.04,127.64 82.96,129.30 C82.34,130.30 81.93,132.21 82.22,133.10 C82.56,134.03 84.24,135.35 85.36,135.56 C86.47,135.73 88.62,135.08 89.55,134.33 C91.25,132.86 92.08,128.67 91.19,127.05 C90.74,126.27 89.84,125.63 88.84,125.22 C88.84,125.22 84.30,128.21 84.30,128.21" fill="none" stroke="rgb(0, 153, 67)" stroke-width="2.33" stroke-opacity="1.00" stroke-linejoin="round"/>
<path d="M86.95,135.70 C86.95,135.70 86.78,135.36 86.78,135.36 C85.95,135.37 84.93,135.36 84.73,135.41 C81.60,136.22 57.90,147.85 46.04,155.90 C37.83,161.65 30.88,167.23 25.25,172.59 C21.93,175.80 19.76,178.13 19.93,178.52 C20.24,178.94 41.45,170.74 44.48,169.65 C50.45,167.53 56.80,165.73 67.82,163.38 C77.97,161.30 87.95,159.62 92.14,159.52 C94.46,159.47 113.64,159.78 117.99,159.89 C120.59,159.94 124.81,159.60 130.77,158.95 C127.20,157.14 114.42,150.23 108.09,146.76 C104.83,144.99 91.56,135.55 91.53,135.54 C91.53,135.54 90.47,136.26 90.47,136.26" fill="none" stroke="rgb(0, 153, 67)" stroke-width="2.33" stroke-opacity="1.00" stroke-linejoin="round"/>
<path d="M88.64,136.71 C88.64,136.71 88.13,136.88 88.13,136.88 C87.96,137.42 88.61,138.43 90.57,140.57 C92.31,142.49 94.72,146.15 97.50,150.95 C99.32,154.09 101.50,157.04 104.09,158.64 C104.09,158.64 104.53,158.08 104.53,158.08" fill="none" stroke="rgb(0, 153, 67)" stroke-width="2.33" stroke-opacity="1.00" stroke-linejoin="round"/>
<path d="M86.28,138.06 C86.23,138.09 86.18,138.09 86.11,138.06 C86.04,138.03 85.87,137.91 85.60,137.72 C85.60,137.72 86.85,160.24 86.85,160.24 C86.85,160.24 87.21,159.43 87.21,159.43" fill="none" stroke="rgb(0, 153, 67)" stroke-width="2.33" stroke-opacity="1.00" stroke-linejoin="round"/>
<path d="M85.60,139.75 C85.60,139.75 85.94,137.55 85.94,137.55 C85.94,137.55 86.22,137.58 86.22,137.58 C86.22,137.58 75.69,163.89 75.69,163.89 C75.69,163.89 76.02,164.26 76.02,164.26" fill="none" stroke="rgb(0, 153, 67)" stroke-width="2.33" stroke-opacity="1.00" stroke-linejoin="round"/>
<path d="M84.93,136.71 C83.87,136.91 82.24,137.58 80.97,138.38 C79.43,139.34 75.47,141.33 69.39,144.58 C65.50,146.67 63.93,147.74 59.78,151.08 C56.65,153.58 49.72,159.17 47.76,160.83 C40.53,167.08 37.80,170.10 36.48,171.58" fill="none" stroke="rgb(0, 153, 67)" stroke-width="2.33" stroke-opacity="1.00" stroke-linejoin="round"/>
<path d="M85.27,161.33 C84.88,161.21 84.54,161.03 84.42,160.99 C84.38,160.98 84.33,160.98 84.25,160.99 C84.55,171.92 85.22,193.43 85.23,193.46 C85.44,194.99 87.15,197.39 88.94,198.54 C88.94,198.54 89.65,198.43 89.65,198.43" fill="none" stroke="rgb(0, 153, 67)" stroke-width="2.33" stroke-opacity="1.00" stroke-linejoin="round"/>
</g>
</svg>
