<?xml version="1.0" encoding="UTF-8" standalone="no"?>
<!DOCTYPE svg PUBLIC "-//W3C//DTD SVG 1.1//EN" "http://www.w3.org/Graphics/SVG/1.1/DTD/svg11.dtd">
<svg width="128.40" height="181.68" viewBox="0.00 0.00 535.00 757.00" xmlns="http://www.w3.org/2000/svg" xmlns:xlink="http://www.w3.org/1999/xlink">
<g stroke-linecap="round" transform="translate(44.00, 155.00)" id="145-물웅덩이-2">
<path d="M233.07,312.30 C233.07,312.30 232.58,312.41 232.58,312.41 C231.98,314.18 231.13,332.96 231.23,333.90 C231.44,335.49 233.82,337.19 235.15,336.99 C236.54,336.72 238.97,333.60 239.81,331.35 C240.59,329.16 240.50,324.91 239.67,322.23 C238.97,320.05 237.01,315.32 235.77,313.00 C235.77,313.00 235.65,315.42 235.65,315.42" fill="none" stroke="rgb(255, 0, 255)" stroke-width="2.33" stroke-opacity="1.00" stroke-linejoin="round"/>
<path d="M230.78,337.53 C230.78,337.53 229.38,337.33 229.38,337.33 C229.10,337.91 229.21,342.38 230.13,343.26 C230.71,343.74 232.45,344.15 233.61,344.03 C239.65,343.25 243.84,337.57 244.49,336.38 C244.49,336.38 244.10,334.98 244.10,334.98" fill="none" stroke="rgb(255, 0, 255)" stroke-width="2.33" stroke-opacity="1.00" stroke-linejoin="round"/>
<path d="M236.02,336.54 C236.02,336.54 234.87,337.36 234.87,337.36 C234.87,337.36 234.77,338.03 234.77,338.03 C235.49,339.44 238.29,340.73 239.20,340.60 C239.62,340.54 240.50,340.23 241.84,339.68" fill="none" stroke="rgb(255, 0, 255)" stroke-width="2.33" stroke-opacity="1.00" stroke-linejoin="round"/>
<path d="M230.78,331.30 C230.53,331.30 228.76,331.34 228.12,331.56 C226.42,332.15 221.98,336.01 220.65,337.84 C219.32,339.73 218.94,342.27 219.69,343.64 C220.48,344.98 223.27,347.25 225.03,347.75 C226.87,348.25 232.17,347.98 235.05,347.42 C238.14,346.80 243.76,344.75 245.90,343.27 C247.61,342.05 250.00,338.75 250.57,337.24 C251.10,335.77 250.93,333.13 250.04,332.07 C249.50,331.47 247.99,330.57 246.82,330.14 C244.79,329.45 241.46,329.74 236.71,330.26" fill="none" stroke="rgb(255, 0, 255)" stroke-width="2.33" stroke-opacity="1.00" stroke-linejoin="round"/>
</g>
</svg>
