<?xml version="1.0" encoding="UTF-8" standalone="no"?>
<!DOCTYPE svg PUBLIC "-//W3C//DTD SVG 1.1//EN" "http://www.w3.org/Graphics/SVG/1.1/DTD/svg11.dtd">
<svg width="128.40" height="181.68" viewBox="0.00 0.00 535.00 757.00" xmlns="http://www.w3.org/2000/svg" xmlns:xlink="http://www.w3.org/1999/xlink">
<g stroke-linecap="round" transform="translate(44.00, 155.00)" id="145-집-1">
<path d="M388.02,215.01 C388.02,215.01 387.07,214.36 387.07,214.36 C387.00,214.32 382.65,217.60 380.59,218.79 C378.60,219.92 371.31,223.17 370.87,223.38 C369.27,224.14 339.50,244.41 331.08,250.82 C328.25,252.98 318.85,261.21 318.60,261.79 C320.39,261.99 331.65,261.04 341.78,259.86 C369.18,256.81 411.56,260.70 412.80,259.95 C412.01,257.16 397.09,237.67 394.82,232.93 C391.99,226.23 386.61,214.57 386.52,214.45 C386.37,214.27 386.11,214.13 385.72,214.03" fill="none" stroke="rgb(229, 0, 16)" stroke-width="2.33" stroke-opacity="1.00" stroke-linejoin="round"/>
<path d="M386.71,217.30 C386.71,217.30 386.45,216.20 386.45,216.20 C386.06,217.43 383.12,240.28 382.75,243.85 C381.90,252.36 381.41,254.78 381.32,255.32 C381.27,255.59 381.21,256.09 381.12,256.81" fill="none" stroke="rgb(229, 0, 16)" stroke-width="2.33" stroke-opacity="1.00" stroke-linejoin="round"/>
<path d="M372.29,222.87 C372.29,222.87 372.29,221.34 372.29,221.34 C371.18,228.01 368.91,241.97 367.75,249.26 C366.84,255.70 366.88,256.71 367.08,257.62 C367.08,257.62 367.81,257.22 367.81,257.22" fill="none" stroke="rgb(229, 0, 16)" stroke-width="2.33" stroke-opacity="1.00" stroke-linejoin="round"/>
<path d="M360.17,232.37 C360.17,232.37 360.17,232.21 360.17,232.21 C360.11,232.18 359.94,232.67 359.69,233.71 C359.06,236.32 355.14,257.68 355.58,258.80 C355.58,258.80 356.09,258.19 356.09,258.19" fill="none" stroke="rgb(229, 0, 16)" stroke-width="2.33" stroke-opacity="1.00" stroke-linejoin="round"/>
<path d="M349.69,240.56 C349.69,240.56 349.25,240.07 349.25,240.07 C349.25,240.07 348.96,240.23 348.96,240.23 C347.38,245.10 345.22,259.29 345.09,260.12 C345.06,260.37 344.98,260.67 344.87,261.03" fill="none" stroke="rgb(229, 0, 16)" stroke-width="2.33" stroke-opacity="1.00" stroke-linejoin="round"/>
<path d="M341.83,245.80 C341.83,245.80 341.83,245.15 341.83,245.15 C340.97,245.57 336.75,253.90 334.77,257.58 C334.53,258.04 334.20,258.70 333.78,259.57" fill="none" stroke="rgb(229, 0, 16)" stroke-width="2.33" stroke-opacity="1.00" stroke-linejoin="round"/>
<path d="M336.26,250.06 C336.26,250.06 332.82,250.06 332.82,250.06 C332.82,250.06 332.78,250.31 332.78,250.31 C333.87,251.13 338.92,251.44 341.61,251.22 C354.85,249.87 381.73,247.01 395.36,245.50 C397.93,245.21 402.73,243.88 403.16,243.68 C403.16,243.68 402.32,243.79 402.32,243.79" fill="none" stroke="rgb(229, 0, 16)" stroke-width="2.33" stroke-opacity="1.00" stroke-linejoin="round"/>
<path d="M392.60,233.03 C392.60,233.03 390.97,233.03 390.97,233.03 C391.32,233.03 389.24,232.68 382.24,234.40 C377.97,235.47 369.22,237.66 367.02,237.67 C364.85,237.65 357.24,235.40 357.03,235.33 C356.52,235.16 355.60,234.83 354.28,234.34" fill="none" stroke="rgb(229, 0, 16)" stroke-width="2.33" stroke-opacity="1.00" stroke-linejoin="round"/>
<path d="M350.35,260.22 C350.05,260.54 349.75,260.81 349.72,261.37 C349.41,268.71 349.42,280.61 349.48,288.64 C349.79,308.00 348.46,321.74 348.89,322.02 C348.89,322.02 349.69,321.48 349.69,321.48" fill="none" stroke="rgb(229, 0, 16)" stroke-width="2.33" stroke-opacity="1.00" stroke-linejoin="round"/>
<path d="M407.35,262.51 C407.35,262.51 407.02,262.84 407.02,262.84 C407.01,263.27 407.25,277.67 406.90,282.79 C406.30,293.00 405.88,317.48 404.92,324.38 C404.47,324.39 398.66,326.04 394.69,326.56 C392.34,326.86 370.75,327.08 370.44,327.08 C367.79,327.07 350.74,328.86 347.84,328.67 C347.84,328.67 348.28,315.98 348.28,315.98" fill="none" stroke="rgb(229, 0, 16)" stroke-width="2.33" stroke-opacity="1.00" stroke-linejoin="round"/>
<path d="M403.09,296.91 C403.09,296.91 403.09,297.23 403.09,297.23 C402.83,297.49 389.12,303.20 387.22,304.59 C386.40,305.25 386.29,306.19 386.66,308.98 C386.96,311.14 387.43,319.10 387.61,324.28 C387.63,324.99 387.66,325.69 387.69,326.39" fill="none" stroke="rgb(229, 0, 16)" stroke-width="2.33" stroke-opacity="1.00" stroke-linejoin="round"/>
<path d="M403.09,299.86 C403.09,299.86 402.17,299.20 402.17,299.20 C402.14,299.74 402.03,301.32 401.95,302.35 C401.42,308.76 400.22,320.97 400.28,325.07 C400.28,325.07 400.43,323.60 400.43,323.60" fill="none" stroke="rgb(229, 0, 16)" stroke-width="2.33" stroke-opacity="1.00" stroke-linejoin="round"/>
<path d="M402.10,312.96 C402.10,312.96 401.28,312.70 401.28,312.70 C401.28,312.70 400.49,311.73 400.49,311.73 C400.49,311.73 399.38,312.55 399.38,312.55 C399.86,313.28 400.39,313.59 401.25,313.49 C402.83,313.28 404.59,312.06 404.72,311.00 C404.42,309.85 402.32,309.71 401.47,310.01 C401.47,310.01 400.14,310.99 400.14,310.99" fill="none" stroke="rgb(229, 0, 16)" stroke-width="2.33" stroke-opacity="1.00" stroke-linejoin="round"/>
<path d="M387.03,271.03 C387.03,271.03 386.95,270.70 386.95,270.70 C386.95,270.70 376.40,273.78 376.40,273.78 C376.06,274.26 376.54,287.68 375.99,297.15 C375.85,299.26 375.29,305.29 375.56,307.34 C378.59,307.45 383.84,305.18 384.77,304.29 C386.01,303.02 387.27,299.84 387.40,297.72 C387.57,294.37 387.43,286.96 387.35,283.29 C387.09,275.40 386.21,271.70 385.83,269.97" fill="none" stroke="rgb(229, 0, 16)" stroke-width="2.33" stroke-opacity="1.00" stroke-linejoin="round"/>
<path d="M377.53,290.68 C377.53,290.68 376.55,290.68 376.55,290.68 C377.92,290.63 378.81,290.54 380.47,290.26 C382.05,289.98 383.57,289.68 384.22,289.40 C384.55,289.25 385.29,288.87 386.41,288.26" fill="none" stroke="rgb(229, 0, 16)" stroke-width="2.33" stroke-opacity="1.00" stroke-linejoin="round"/>
<path d="M381.79,273.65 C381.79,273.65 381.79,273.32 381.79,273.32 C381.78,281.14 381.67,294.97 381.36,299.82 C381.25,301.51 381.23,302.19 381.25,303.27 C381.25,303.27 381.68,303.20 381.68,303.20" fill="none" stroke="rgb(229, 0, 16)" stroke-width="2.33" stroke-opacity="1.00" stroke-linejoin="round"/>
</g>
</svg>
