<?xml version="1.0" encoding="UTF-8" standalone="no"?>
<!DOCTYPE svg PUBLIC "-//W3C//DTD SVG 1.1//EN" "http://www.w3.org/Graphics/SVG/1.1/DTD/svg11.dtd">
<svg width="128.40" height="181.68" viewBox="0.00 0.00 535.00 757.00" xmlns="http://www.w3.org/2000/svg" xmlns:xlink="http://www.w3.org/1999/xlink">
<g stroke-linecap="round" transform="translate(44.00, 155.00)" id="146-물웅덩이">
<path d="M256.97,240.15 C256.73,240.39 256.49,240.62 256.26,240.86 C256.09,241.03 255.92,241.20 255.75,241.37 C255.68,239.26 253.99,231.31 253.68,228.63 C253.01,222.55 254.54,211.47 255.81,207.50 C256.65,204.99 259.33,200.57 262.36,197.65 C265.60,194.57 273.33,190.67 277.98,189.94 C283.04,189.19 294.10,190.36 298.46,192.11 C302.73,193.86 308.04,198.32 318.21,207.55 C324.63,213.52 332.77,223.93 335.97,230.12 C338.41,234.89 343.15,248.73 344.17,253.98 C345.50,261.00 345.15,275.50 343.89,280.83 C343.21,283.58 341.53,287.62 340.12,290.12 C338.06,293.69 328.37,303.06 320.52,308.73 C315.36,312.45 303.56,319.10 296.45,321.76 C290.15,324.17 271.10,332.05 269.82,332.41 C268.40,332.78 265.76,333.09 264.64,332.90 C261.51,332.35 243.99,326.33 238.73,323.97 C235.42,322.46 222.67,314.94 216.72,311.64 C209.35,307.62 201.05,301.35 195.77,297.30 C188.59,291.50 178.47,282.31 176.63,280.78 C174.37,278.93 161.24,269.21 157.26,265.36 C155.27,263.42 151.67,259.25 150.17,257.15 C148.52,254.82 146.39,250.39 145.80,247.96 C145.21,245.49 144.78,240.92 145.15,238.12 C145.54,235.48 147.77,230.99 150.35,228.41 C153.02,225.80 168.81,216.43 171.64,215.08 C178.54,211.79 191.58,208.11 197.16,207.41 C205.53,206.38 218.70,206.36 225.03,207.18 C230.74,207.98 242.92,212.21 247.61,214.69 C249.66,215.79 254.13,219.95 255.42,222.09 C257.00,224.80 258.43,230.08 258.40,232.73 C258.32,235.54 257.07,241.95 256.45,244.01 C256.45,244.01 256.15,243.82 256.15,243.82" fill="none" stroke="rgb(0, 0, 255)" stroke-width="2.43" stroke-opacity="1.00" stroke-linejoin="round"/>
</g>
</svg>
