<?xml version="1.0" encoding="UTF-8" standalone="no"?>
<!DOCTYPE svg PUBLIC "-//W3C//DTD SVG 1.1//EN" "http://www.w3.org/Graphics/SVG/1.1/DTD/svg11.dtd">
<svg width="128.40" height="181.68" viewBox="0.00 0.00 535.00 757.00" xmlns="http://www.w3.org/2000/svg" xmlns:xlink="http://www.w3.org/1999/xlink">
<g stroke-linecap="round" transform="translate(44.00, 155.00)" id="146-우산-2">
<path d="M468.27,133.91 C468.27,133.91 466.76,133.83 466.76,133.83 C466.75,133.22 468.38,127.58 468.89,124.34 C469.26,121.93 469.73,115.18 469.68,114.24 C469.44,110.06 467.64,104.94 465.51,101.91 C462.67,97.89 459.50,93.68 457.27,91.49 C454.76,89.06 440.96,79.13 435.27,76.50 C428.61,73.45 423.58,72.21 412.46,70.52 C409.27,70.01 388.74,69.87 387.79,69.98 C383.43,70.53 373.32,75.03 370.39,77.32 C367.78,79.39 360.91,89.71 359.07,95.22 C357.20,100.93 355.75,112.05 356.08,118.49 C356.10,118.86 356.37,122.26 356.48,122.93 C356.77,124.78 357.37,126.81 358.16,128.79" fill="none" stroke="rgb(228, 0, 126)" stroke-width="2.43" stroke-opacity="1.00" stroke-linejoin="round"/>
<path d="M465.62,134.67 C465.62,134.67 460.32,134.67 460.32,134.67 C456.79,134.67 448.26,134.25 436.28,135.59 C430.04,136.22 409.29,135.81 407.97,135.81 C405.35,135.82 400.90,136.20 400.60,136.26 C400.37,136.30 400.07,136.40 399.70,136.56" fill="none" stroke="rgb(228, 0, 126)" stroke-width="2.43" stroke-opacity="1.00" stroke-linejoin="round"/>
<path d="M407.66,136.18 C407.66,136.18 407.47,136.18 407.47,136.18 C407.47,136.18 407.09,135.84 407.09,135.84 C406.58,135.82 392.49,137.39 383.40,137.38 C379.97,137.33 372.32,137.14 370.08,136.78 C365.80,136.08 357.60,133.91 356.16,133.78 C356.16,133.78 355.76,119.89 355.76,119.89" fill="none" stroke="rgb(228, 0, 126)" stroke-width="2.43" stroke-opacity="1.00" stroke-linejoin="round"/>
</g>
</svg>
