<?xml version="1.0" encoding="UTF-8" standalone="no"?>
<!DOCTYPE svg PUBLIC "-//W3C//DTD SVG 1.1//EN" "http://www.w3.org/Graphics/SVG/1.1/DTD/svg11.dtd">
<svg width="128.40" height="181.68" viewBox="0.00 0.00 535.00 757.00" xmlns="http://www.w3.org/2000/svg" xmlns:xlink="http://www.w3.org/1999/xlink">
<g stroke-linecap="round" transform="translate(44.00, 155.00)" id="147-비">
<path d="M67.56,-88.43 C65.17,-87.25 64.32,-86.76 64.26,-86.35 C63.28,-80.07 59.90,-66.33 60.19,-64.39 C60.44,-63.05 62.56,-61.82 64.05,-61.77 C65.64,-61.77 69.34,-63.66 70.23,-65.85 C71.01,-67.87 71.44,-74.59 71.09,-77.10 C70.59,-80.40 67.39,-88.95 67.57,-90.01 C67.62,-90.21 67.79,-90.42 68.08,-90.64 C68.08,-90.64 67.68,-88.41 67.68,-88.41" fill="none" stroke="rgb(0, 255, 255)" stroke-width="2.25" stroke-opacity="1.00" stroke-linejoin="round"/>
<path d="M8.77,207.06 C8.32,207.06 7.86,207.06 7.41,207.06 C7.21,207.06 7.02,207.06 6.83,207.06 C7.24,208.32 7.03,211.22 5.47,216.17 C4.60,218.86 3.20,222.42 3.45,224.19 C3.60,225.12 4.03,225.78 4.66,226.24 C6.10,226.47 8.95,224.58 10.02,222.48 C11.15,220.18 11.03,215.65 10.20,212.57 C9.49,209.93 8.81,206.06 8.84,205.12 C8.85,204.58 8.96,203.28 9.16,201.22" fill="none" stroke="rgb(0, 255, 255)" stroke-width="2.25" stroke-opacity="1.00" stroke-linejoin="round"/>
<path d="M378.24,89.88 C377.91,89.88 377.59,89.88 377.26,89.88 C377.07,89.88 376.87,89.88 376.68,89.88 C376.83,90.60 374.85,97.35 374.43,99.27 C374.05,101.05 374.04,102.93 374.42,104.06 C374.72,104.90 377.69,106.36 379.40,106.18 C380.41,106.07 381.31,105.50 382.16,104.60 C382.54,102.73 381.66,100.41 379.66,96.37 C377.76,92.61 376.68,88.69 376.87,87.09 C376.87,87.09 377.46,86.37 377.46,86.37" fill="none" stroke="rgb(0, 255, 255)" stroke-width="2.25" stroke-opacity="1.00" stroke-linejoin="round"/>
<path d="M419.12,-95.83 C419.12,-95.83 418.53,-96.02 418.53,-96.02 C418.53,-96.02 418.34,-97.21 418.34,-97.21 C418.23,-94.07 417.96,-91.54 417.27,-87.56 C416.84,-84.89 416.27,-79.14 417.24,-78.02 C419.36,-77.46 423.63,-77.71 424.90,-78.85 C425.61,-79.55 426.16,-81.24 426.03,-82.38 C425.71,-84.55 421.44,-91.25 420.87,-92.30 C419.81,-94.26 418.74,-97.69 418.77,-98.15 C418.78,-98.38 418.90,-98.77 419.12,-99.33" fill="none" stroke="rgb(0, 255, 255)" stroke-width="2.25" stroke-opacity="1.00" stroke-linejoin="round"/>
</g>
</svg>
