<?xml version="1.0" encoding="UTF-8" standalone="no"?>
<!DOCTYPE svg PUBLIC "-//W3C//DTD SVG 1.1//EN" "http://www.w3.org/Graphics/SVG/1.1/DTD/svg11.dtd">
<svg width="128.40" height="181.68" viewBox="0.00 0.00 535.00 757.00" xmlns="http://www.w3.org/2000/svg" xmlns:xlink="http://www.w3.org/1999/xlink">
<g stroke-linecap="round" transform="translate(44.00, 155.00)" id="149-사람">
<path d="M253.98,244.03 C252.90,244.07 249.73,242.80 244.85,241.03 C241.66,239.92 239.20,239.54 236.18,239.54 C230.88,239.63 222.76,241.20 221.09,242.50 C218.59,244.53 211.98,255.97 210.94,260.02 C210.42,262.12 210.18,266.67 210.53,268.86 C210.91,271.09 212.80,275.59 213.83,276.79 C215.20,278.32 218.01,280.32 219.92,280.99 C223.85,282.33 240.79,283.89 244.78,283.48 C246.86,283.23 253.78,280.64 256.63,277.88 C259.30,275.21 262.47,268.44 263.44,264.85 C264.12,262.23 263.88,257.33 263.15,254.46 C262.74,252.96 261.68,250.16 261.03,249.07 C260.42,248.06 258.70,245.92 257.53,244.54" fill="none" stroke="rgb(0, 255, 255)" stroke-width="2.66" stroke-opacity="1.00" stroke-linejoin="round"/>
<path d="M264.12,257.73 C264.12,257.73 262.60,258.09 262.60,258.09 C262.60,258.09 262.60,255.77 262.60,255.77 C262.60,255.77 261.26,255.31 261.26,255.31 C261.26,255.31 256.29,257.56 256.29,257.56 C256.29,257.56 255.33,255.31 255.33,255.31 C253.37,255.12 251.61,255.35 250.07,254.30 C248.73,253.40 244.22,254.57 242.90,254.22 C242.90,254.22 242.02,251.58 242.02,251.58 C240.85,251.56 237.99,253.27 237.33,253.13 C236.27,252.91 232.97,251.32 231.25,251.23 C228.98,251.09 225.30,249.90 221.60,249.98 C220.12,250.02 219.15,250.07 218.70,250.12 C218.23,250.18 217.34,250.34 216.04,250.60" fill="none" stroke="rgb(0, 255, 255)" stroke-width="2.66" stroke-opacity="1.00" stroke-linejoin="round"/>
<path d="M219.50,263.30 C220.87,263.22 221.82,263.22 222.33,263.30 C222.85,263.39 223.67,263.66 224.78,264.14" fill="none" stroke="rgb(0, 255, 255)" stroke-width="2.66" stroke-opacity="1.00" stroke-linejoin="round"/>
<path d="M249.92,264.32 C249.73,264.27 249.56,264.27 249.41,264.32 C249.26,264.37 248.93,264.54 248.40,264.82 C248.95,265.06 251.58,265.79 253.51,266.31 C254.01,266.46 254.50,266.64 254.99,266.85" fill="none" stroke="rgb(0, 255, 255)" stroke-width="2.66" stroke-opacity="1.00" stroke-linejoin="round"/>
<path d="M233.69,273.95 C233.69,273.95 231.33,274.56 231.33,274.56 C231.73,275.62 232.20,276.27 233.28,276.58 C235.52,277.20 237.86,277.43 238.91,277.03 C240.80,276.26 242.59,274.00 243.33,272.94" fill="none" stroke="rgb(0, 255, 255)" stroke-width="2.66" stroke-opacity="1.00" stroke-linejoin="round"/>
<path d="M212.90,280.04 C212.90,280.04 211.00,281.05 211.00,281.05 C211.00,281.05 212.31,279.07 212.31,279.07 C209.41,283.61 202.81,291.43 197.41,296.88 C191.15,303.18 171.55,319.05 170.86,320.43 C171.24,321.58 171.60,322.44 171.95,323.00 C172.29,323.57 173.10,324.63 174.37,326.18" fill="none" stroke="rgb(0, 255, 255)" stroke-width="2.66" stroke-opacity="1.00" stroke-linejoin="round"/>
<path d="M171.32,321.11 C170.55,321.47 170.04,321.72 169.80,321.87 C169.44,322.09 168.48,322.67 168.33,322.73 C167.59,323.03 166.48,324.64 166.13,326.10 C165.93,326.93 166.33,327.99 166.95,329.03 C166.95,329.03 171.83,330.24 171.83,330.24" fill="none" stroke="rgb(0, 255, 255)" stroke-width="2.66" stroke-opacity="1.00" stroke-linejoin="round"/>
<path d="M218.99,299.31 C218.99,299.31 218.99,296.53 218.99,296.53 C219.00,300.55 218.85,302.83 218.26,305.97 C217.63,309.40 209.65,328.32 209.03,331.10 C207.49,338.28 207.90,342.33 208.19,342.74 C208.59,342.84 229.70,345.02 230.03,345.04 C235.99,345.53 240.34,345.15 240.65,344.35 C240.87,343.68 247.57,325.14 248.42,321.47 C250.52,312.15 251.43,284.52 251.31,283.90 C251.22,283.46 250.92,282.51 250.43,281.05" fill="none" stroke="rgb(0, 255, 255)" stroke-width="2.66" stroke-opacity="1.00" stroke-linejoin="round"/>
<path d="M210.37,346.46 C210.52,348.53 208.01,359.32 204.93,370.08 C203.04,376.82 201.66,386.50 199.72,391.12 C199.32,392.11 191.44,417.32 190.08,422.48 C190.03,422.54 183.88,423.12 182.66,424.63 C181.92,425.61 181.29,427.74 181.35,429.03 C181.44,430.15 182.24,432.43 182.83,433.28 C184.06,434.93 189.22,436.79 192.96,437.27 C196.03,437.65 203.75,437.26 205.12,436.91 C206.91,436.37 208.62,432.71 209.74,428.99 C212.28,420.47 220.74,379.81 222.37,369.36 C223.26,362.53 224.65,351.54 225.30,349.24 C225.36,349.04 225.45,348.79 225.58,348.49" fill="none" stroke="rgb(0, 255, 255)" stroke-width="2.66" stroke-opacity="1.00" stroke-linejoin="round"/>
<path d="M238.26,349.00 C238.26,349.00 236.74,349.06 236.74,349.06 C237.80,350.95 237.69,361.17 236.96,371.30 C236.51,376.41 234.62,390.82 233.51,397.89 C232.45,403.80 229.16,419.98 228.28,422.59 C227.20,425.73 223.85,431.66 222.36,433.61 C220.85,435.53 217.10,437.23 214.57,436.91 C210.81,436.36 209.30,435.16 208.58,433.74 C208.33,433.21 208.08,432.69 207.83,432.16" fill="none" stroke="rgb(0, 255, 255)" stroke-width="2.66" stroke-opacity="1.00" stroke-linejoin="round"/>
</g>
</svg>
