<?xml version="1.0" encoding="UTF-8" standalone="no"?>
<!DOCTYPE svg PUBLIC "-//W3C//DTD SVG 1.1//EN" "http://www.w3.org/Graphics/SVG/1.1/DTD/svg11.dtd">
<svg width="128.40" height="181.68" viewBox="0.00 0.00 535.00 757.00" xmlns="http://www.w3.org/2000/svg" xmlns:xlink="http://www.w3.org/1999/xlink">
<g stroke-linecap="round" transform="translate(44.00, 155.00)" id="149-우산">
<path d="M225.58,218.68 C225.33,218.68 225.07,218.68 224.82,218.68 C224.74,218.68 224.65,218.68 224.57,218.68 C226.44,218.76 237.87,224.15 243.34,228.14 C246.65,230.57 252.44,235.17 253.89,236.92 C261.55,246.30 270.50,268.06 273.61,272.61 C274.70,274.20 280.62,282.44 281.93,284.70 C282.05,284.90 300.86,326.83 303.17,333.58 C304.03,336.12 307.90,349.12 308.33,349.55 C311.12,344.53 320.62,332.28 322.33,329.30 C325.41,323.87 330.14,312.11 331.76,305.91 C333.48,299.26 335.28,284.16 335.39,277.09 C335.49,269.12 334.06,258.70 332.06,250.37 C331.24,247.11 328.36,241.03 326.00,238.33 C320.91,232.64 312.62,226.41 306.28,222.74 C299.75,219.00 292.73,216.00 282.33,212.74 C278.34,211.54 274.84,210.88 270.93,210.52 C262.11,209.88 248.75,209.54 246.84,209.71 C240.81,210.30 230.69,214.61 225.72,216.63 C225.37,216.78 224.64,217.13 223.55,217.67" fill="none" stroke="rgb(0, 0, 255)" stroke-width="2.66" stroke-opacity="1.00" stroke-linejoin="round"/>
<path d="M249.92,230.85 C249.92,230.85 248.40,231.86 248.40,231.86 C248.98,231.67 249.83,231.08 251.46,229.70 C255.87,225.92 269.07,212.02 269.79,211.41 C269.79,211.41 270.20,211.58 270.20,211.58" fill="none" stroke="rgb(0, 0, 255)" stroke-width="2.66" stroke-opacity="1.00" stroke-linejoin="round"/>
<path d="M315.33,229.84 C314.57,229.88 314.00,229.75 313.81,229.84 C309.87,231.72 296.49,241.50 293.21,243.69 C287.03,247.77 271.56,259.81 271.11,260.12 C270.75,260.37 270.11,260.75 269.19,261.28" fill="none" stroke="rgb(0, 0, 255)" stroke-width="2.66" stroke-opacity="1.00" stroke-linejoin="round"/>
<path d="M285.92,289.16 C285.92,289.16 285.15,289.07 285.15,289.07 C291.79,286.07 304.10,279.87 309.27,276.55 C317.72,271.09 332.27,259.52 332.69,259.30 C332.92,259.18 333.38,258.99 334.09,258.74" fill="none" stroke="rgb(0, 0, 255)" stroke-width="2.66" stroke-opacity="1.00" stroke-linejoin="round"/>
<path d="M333.08,296.77 C333.08,296.77 332.07,296.77 332.07,296.77 C331.66,297.10 330.07,298.38 328.88,299.33 C325.98,301.64 318.87,307.27 318.13,307.81 C315.69,309.56 307.65,313.40 305.28,315.23 C304.84,315.58 303.22,316.81 301.99,317.45 C301.70,317.59 301.25,317.80 300.63,318.07" fill="none" stroke="rgb(0, 0, 255)" stroke-width="2.66" stroke-opacity="1.00" stroke-linejoin="round"/>
<path d="M273.25,274.97 C273.16,274.97 273.08,274.97 272.99,274.97 C272.77,274.97 272.54,274.97 272.32,274.97 C272.49,274.97 272.49,273.96 264.22,276.98 C260.34,278.43 228.23,295.23 214.15,302.39 C208.08,305.45 198.96,310.13 189.31,316.41 C186.15,318.46 180.02,322.39 177.29,324.06 C174.48,325.74 168.20,328.24 165.23,328.46 C163.92,328.52 161.73,325.70 160.97,322.72 C160.19,319.53 160.36,313.87 160.25,312.98 C160.09,312.58 158.25,313.17 156.13,314.43 C154.95,315.15 152.98,317.42 152.41,318.67 C151.23,321.42 152.43,328.05 153.37,329.54 C154.60,331.36 157.23,333.49 159.17,334.01 C161.98,334.72 167.81,333.97 168.75,333.73 C178.81,331.13 198.55,319.78 201.46,318.28 C203.63,317.17 222.31,309.08 225.98,307.89 C227.42,307.43 247.40,302.52 252.44,300.71 C263.21,296.83 283.33,286.76 285.58,286.63 C285.58,286.63 284.91,286.63 284.91,286.63" fill="none" stroke="rgb(0, 0, 255)" stroke-width="2.66" stroke-opacity="1.00" stroke-linejoin="round"/>
</g>
</svg>
