<?xml version="1.0" encoding="UTF-8" standalone="no"?>
<!DOCTYPE svg PUBLIC "-//W3C//DTD SVG 1.1//EN" "http://www.w3.org/Graphics/SVG/1.1/DTD/svg11.dtd">
<svg width="64.20" height="90.84" viewBox="0.00 0.00 535.00 757.00" xmlns="http://www.w3.org/2000/svg" xmlns:xlink="http://www.w3.org/1999/xlink">
<g stroke-linecap="round" transform="translate(44.00, 155.00)" id="15-사람">
<path d="M183.71,62.63 C183.71,62.63 183.71,62.46 183.71,62.46 C183.71,62.46 183.58,62.37 183.58,62.37 C183.60,62.96 183.83,69.36 183.94,70.01 C184.36,72.30 187.86,79.06 188.18,79.62 C189.50,81.86 191.80,84.28 193.46,85.52 C195.00,86.64 197.13,87.44 198.38,86.86 C199.75,86.16 205.04,82.93 206.62,81.67 C209.01,79.75 211.21,77.18 213.94,73.62 C214.10,73.41 214.72,72.71 215.99,71.09" fill="none" stroke="rgb(33, 228, 63)" stroke-width="3.06" stroke-opacity="1.00" stroke-linejoin="round"/>
<path d="M222.53,66.22 C221.36,67.00 218.86,74.29 216.82,76.83 C216.25,77.52 215.52,78.24 215.27,78.42 C215.27,78.42 215.03,78.01 215.03,78.01" fill="none" stroke="rgb(33, 228, 63)" stroke-width="3.06" stroke-opacity="1.00" stroke-linejoin="round"/>
<path d="M188.96,61.73 C188.96,61.73 188.26,61.54 188.26,61.54 C188.26,61.54 188.22,61.48 188.22,61.48 C190.51,63.13 193.98,62.63 194.24,62.58 C194.33,62.56 194.45,62.58 194.60,62.63" fill="none" stroke="rgb(33, 228, 63)" stroke-width="3.06" stroke-opacity="1.00" stroke-linejoin="round"/>
<path d="M194.73,62.37 C194.73,62.37 194.79,62.31 194.79,62.31 C194.85,62.34 194.87,62.62 194.81,63.38 C194.65,65.59 194.02,68.55 193.12,71.31 C192.81,72.26 196.79,73.60 196.83,73.63 C196.86,73.67 196.95,73.80 197.11,74.03" fill="none" stroke="rgb(33, 228, 63)" stroke-width="3.06" stroke-opacity="1.00" stroke-linejoin="round"/>
<path d="M193.45,77.11 C192.97,77.37 195.54,77.30 199.48,76.58 C200.28,76.43 201.52,76.32 201.63,76.38 C201.75,76.46 201.82,76.51 201.83,76.52" fill="none" stroke="rgb(33, 228, 63)" stroke-width="3.06" stroke-opacity="1.00" stroke-linejoin="round"/>
<path d="M201.52,63.02 C201.52,63.02 201.13,63.02 201.13,63.02 C201.91,63.03 202.88,63.09 203.63,63.20 C204.43,63.32 206.04,63.80 206.94,64.18 C207.19,64.29 207.54,64.47 207.99,64.72" fill="none" stroke="rgb(33, 228, 63)" stroke-width="3.06" stroke-opacity="1.00" stroke-linejoin="round"/>
<path d="M196.39,86.72 C196.39,86.72 196.27,86.72 196.27,86.72 C196.27,86.72 196.07,86.92 196.07,86.92 C196.07,86.92 196.23,94.41 196.23,94.41 C195.44,95.06 183.97,96.40 181.67,96.97 C179.24,97.59 174.60,99.40 173.26,100.22 C171.55,101.27 170.04,103.15 169.56,104.28 C166.67,111.14 163.14,124.49 163.21,124.64 C163.21,124.64 168.72,128.28 168.72,128.28 C168.72,128.28 168.74,127.71 168.74,127.71" fill="none" stroke="rgb(33, 228, 63)" stroke-width="3.06" stroke-opacity="1.00" stroke-linejoin="round"/>
<path d="M165.78,121.30 C165.78,121.30 165.55,121.34 165.55,121.34 C166.64,122.33 169.49,124.96 170.94,126.47 C171.28,126.82 171.61,127.16 171.95,127.51" fill="none" stroke="rgb(33, 228, 63)" stroke-width="3.06" stroke-opacity="1.00" stroke-linejoin="round"/>
<path d="M214.97,79.03 C214.97,79.03 214.65,79.16 214.65,79.16 C213.61,79.44 215.22,89.67 216.12,90.43 C216.14,90.39 216.14,90.35 216.12,90.31 C216.11,90.26 216.07,90.15 215.99,89.97" fill="none" stroke="rgb(33, 228, 63)" stroke-width="3.06" stroke-opacity="1.00" stroke-linejoin="round"/>
<path d="M197.68,94.79 C197.68,94.79 197.42,94.85 197.42,94.85 C197.87,95.41 207.62,96.61 211.18,96.08 C213.24,95.75 216.37,94.33 217.79,93.54 C217.79,93.54 215.41,94.57 215.41,94.57" fill="none" stroke="rgb(33, 228, 63)" stroke-width="3.06" stroke-opacity="1.00" stroke-linejoin="round"/>
<path d="M201.90,97.99 C201.90,97.99 201.77,98.05 201.77,98.05 C201.77,98.13 202.87,98.67 204.21,98.71 C206.72,98.78 210.81,97.60 215.09,96.00 C217.89,94.94 223.06,93.32 223.53,93.00 C223.53,93.00 227.40,90.02 242.70,104.21 C244.38,105.81 247.70,110.43 248.46,112.67 C250.15,117.89 252.48,139.91 252.76,140.38 C249.60,140.55 233.50,142.54 233.06,142.51 C232.78,142.50 232.27,142.36 231.56,142.12" fill="none" stroke="rgb(33, 228, 63)" stroke-width="3.06" stroke-opacity="1.00" stroke-linejoin="round"/>
<path d="M227.14,132.83 C226.98,133.59 227.41,135.44 227.91,136.35 C228.72,137.80 229.36,138.75 229.72,139.05 C229.72,139.05 229.70,138.86 229.70,138.86" fill="none" stroke="rgb(33, 228, 63)" stroke-width="3.06" stroke-opacity="1.00" stroke-linejoin="round"/>
<path d="M228.93,119.13 C228.93,119.13 228.87,119.19 228.87,119.19 C228.87,119.19 233.93,142.45 233.93,142.45 C233.93,142.45 234.04,142.49 234.04,142.49" fill="none" stroke="rgb(33, 228, 63)" stroke-width="3.06" stroke-opacity="1.00" stroke-linejoin="round"/>
<path d="M250.84,141.55 C250.89,141.59 250.95,141.94 250.97,142.46 C251.03,145.21 248.94,155.51 247.90,162.09 C246.89,168.00 243.26,173.72 242.83,174.65 C242.80,174.71 242.78,174.74 242.77,174.73" fill="none" stroke="rgb(33, 228, 63)" stroke-width="3.06" stroke-opacity="1.00" stroke-linejoin="round"/>
<path d="M197.80,143.08 C197.80,143.08 197.71,144.63 197.71,144.63 C197.71,144.63 190.66,132.08 190.66,132.08 C190.66,132.08 194.43,131.01 194.43,131.01 C194.43,131.01 191.31,122.42 191.31,122.42 C191.31,122.42 197.72,127.17 197.72,127.17 C197.94,126.97 198.77,118.77 199.87,116.88 C200.23,116.29 201.37,115.43 201.74,115.47 C204.01,115.85 204.56,128.31 204.62,130.24 C204.90,130.05 208.80,126.53 210.96,125.43 C211.46,125.17 211.84,125.13 212.31,125.14 C212.77,126.51 211.69,131.03 211.28,132.22 C210.91,133.27 209.63,137.05 210.20,137.84 C211.03,138.94 215.39,144.67 218.05,147.02 C220.40,149.09 231.11,153.51 233.93,156.06 C234.07,156.19 234.21,156.32 234.35,156.45 C234.35,156.45 234.46,156.32 234.46,156.32" fill="none" stroke="rgb(33, 228, 63)" stroke-width="3.06" stroke-opacity="1.00" stroke-linejoin="round"/>
<path d="M232.14,143.85 C232.07,145.11 232.02,145.92 231.99,146.28 C231.88,147.71 230.92,152.07 230.89,152.46 C230.89,152.46 230.80,152.48 230.80,152.48 C230.80,152.48 230.73,152.31 230.73,152.31" fill="none" stroke="rgb(33, 228, 63)" stroke-width="3.06" stroke-opacity="1.00" stroke-linejoin="round"/>
<path d="M197.03,142.31 C197.03,142.31 197.03,142.44 197.03,142.44 C199.15,144.39 203.14,148.23 204.94,149.73 C208.09,152.29 213.12,156.45 224.50,165.13 C236.29,174.30 240.10,174.42 240.59,174.34 C240.59,174.34 241.74,172.04 241.74,172.04" fill="none" stroke="rgb(33, 228, 63)" stroke-width="3.06" stroke-opacity="1.00" stroke-linejoin="round"/>
<path d="M170.52,128.61 C170.52,128.61 169.24,130.14 169.24,130.14 C169.24,130.14 169.31,130.31 169.31,130.31" fill="none" stroke="rgb(33, 228, 63)" stroke-width="3.06" stroke-opacity="1.00" stroke-linejoin="round"/>
<path d="M162.57,122.71 C162.19,122.72 161.92,122.75 161.77,122.81 C161.19,123.05 159.55,124.78 158.94,126.10 C156.32,131.73 151.94,144.32 151.08,147.50 C150.52,149.62 148.45,162.66 148.91,163.60 C149.09,163.93 150.10,164.32 150.66,164.26 C152.34,164.03 156.40,161.92 157.73,160.84 C161.43,157.81 168.34,150.68 171.58,147.18 C175.95,142.34 185.66,129.03 185.82,128.75 C185.82,128.75 184.88,129.13 184.88,129.13" fill="none" stroke="rgb(33, 228, 63)" stroke-width="3.06" stroke-opacity="1.00" stroke-linejoin="round"/>
<path d="M155.78,152.18 C155.32,151.47 157.56,146.08 160.30,142.14 C163.92,137.01 175.61,125.54 175.63,125.52 C174.03,123.07 173.02,120.28 172.85,118.62 C172.76,117.51 174.08,110.81 174.58,110.05 C175.33,108.99 177.60,107.81 178.60,107.80 C179.62,107.82 180.50,108.60 181.27,110.37 C181.51,110.92 183.93,110.65 184.86,110.88 C185.97,111.18 186.69,112.94 186.37,114.34 C186.13,115.27 185.06,116.90 184.70,117.35 C184.79,117.58 186.98,119.16 187.80,120.36 C189.08,122.30 189.26,126.13 188.56,126.96 C188.06,127.53 187.21,128.15 186.35,128.58 C185.70,128.88 184.00,128.96 183.11,128.99" fill="none" stroke="rgb(33, 228, 63)" stroke-width="3.06" stroke-opacity="1.00" stroke-linejoin="round"/>
<path d="M177.95,114.51 C177.92,114.46 181.89,116.68 183.02,117.60 C185.12,119.33 185.58,120.77 185.63,121.53 C185.63,121.59 185.63,121.73 185.63,121.95" fill="none" stroke="rgb(33, 228, 63)" stroke-width="3.06" stroke-opacity="1.00" stroke-linejoin="round"/>
<path d="M180.31,139.65 C180.31,139.65 179.95,139.68 179.95,139.68 C179.95,139.68 186.72,173.88 186.72,173.88 C186.39,174.15 184.10,176.20 183.76,177.61 C182.99,181.06 184.45,193.85 184.69,196.87 C184.82,198.70 184.95,201.07 185.00,201.44 C185.46,200.34 187.04,199.27 189.56,198.87 C195.41,198.01 206.74,198.98 210.61,198.91 C217.26,198.79 233.33,198.59 233.62,198.54 C233.62,198.54 233.52,196.62 233.52,196.62" fill="none" stroke="rgb(33, 228, 63)" stroke-width="3.06" stroke-opacity="1.00" stroke-linejoin="round"/>
<path d="M233.34,173.15 C233.92,175.09 233.86,192.57 234.01,194.48 C234.18,196.40 234.71,200.22 234.81,200.83 C234.84,201.01 234.88,201.37 234.95,201.91" fill="none" stroke="rgb(33, 228, 63)" stroke-width="3.06" stroke-opacity="1.00" stroke-linejoin="round"/>
<path d="M183.89,194.29 C183.78,197.00 183.18,210.09 183.18,216.83 C183.49,236.11 186.52,281.45 186.98,284.64 C187.79,289.88 189.83,304.04 189.96,304.80 C191.57,312.96 193.19,321.26 193.28,321.50 C194.13,320.56 196.76,318.79 199.23,318.39 C199.82,318.31 201.47,318.16 202.72,317.90" fill="none" stroke="rgb(33, 228, 63)" stroke-width="3.06" stroke-opacity="1.00" stroke-linejoin="round"/>
<path d="M208.44,221.71 C208.27,221.99 208.25,222.06 208.26,222.73 C208.28,225.41 207.40,241.39 206.99,248.40 C206.79,251.72 207.43,290.20 206.84,301.41 C206.27,311.34 206.48,316.15 207.18,320.29 C207.18,320.29 207.54,319.00 207.54,319.00" fill="none" stroke="rgb(33, 228, 63)" stroke-width="3.06" stroke-opacity="1.00" stroke-linejoin="round"/>
<path d="M208.62,228.34 C208.55,228.61 210.78,244.75 215.38,258.14 C215.76,259.26 221.00,276.94 220.98,277.39 C220.95,277.97 220.46,296.11 220.41,302.92 C220.42,308.95 221.77,316.22 222.05,318.24 C222.05,318.24 229.25,318.05 229.25,318.05" fill="none" stroke="rgb(33, 228, 63)" stroke-width="3.06" stroke-opacity="1.00" stroke-linejoin="round"/>
<path d="M236.93,199.13 C236.89,199.21 237.37,205.30 237.47,206.58 C237.61,208.38 238.42,214.82 238.44,217.95 C238.46,223.87 236.35,239.80 236.26,243.29 C236.16,256.24 235.80,278.40 236.54,291.47 C236.82,297.36 238.15,310.02 238.66,313.53 C238.80,314.60 238.01,315.87 237.97,316.07 C237.97,316.07 233.25,315.64 233.25,315.64" fill="none" stroke="rgb(33, 228, 63)" stroke-width="3.06" stroke-opacity="1.00" stroke-linejoin="round"/>
<path d="M192.19,320.67 C192.21,321.22 191.56,323.79 191.29,323.99 C191.10,324.11 184.83,326.01 184.52,326.87 C184.37,327.36 185.94,330.62 185.25,331.55 C185.03,331.85 183.47,333.67 183.32,334.15 C183.84,334.67 185.57,334.24 186.56,333.73 C187.95,333.00 192.85,329.86 193.22,329.53 C194.68,328.22 194.10,326.42 193.51,326.11 C192.84,325.81 191.47,326.32 189.67,327.03" fill="none" stroke="rgb(33, 228, 63)" stroke-width="3.06" stroke-opacity="1.00" stroke-linejoin="round"/>
<path d="M182.84,334.51 C182.84,334.51 182.93,334.32 182.93,334.32 C182.93,334.32 175.09,339.73 175.09,339.73 C175.10,340.11 179.63,346.84 180.37,347.33 C181.61,348.09 184.44,347.38 184.66,347.28 C184.66,347.28 184.85,346.91 184.85,346.91" fill="none" stroke="rgb(33, 228, 63)" stroke-width="3.06" stroke-opacity="1.00" stroke-linejoin="round"/>
<path d="M179.10,339.65 C179.10,339.65 179.01,339.73 179.01,339.73 C179.08,340.29 179.79,342.56 180.11,343.15 C180.86,344.50 183.75,345.95 183.81,345.97 C184.50,346.27 184.95,346.12 188.85,343.39 C190.71,342.10 193.71,340.47 195.23,339.99 C196.14,339.71 201.95,338.91 205.37,338.11 C208.23,337.40 210.51,336.42 210.99,335.85 C211.87,334.73 211.08,330.86 209.07,327.17 C207.68,324.60 207.28,320.90 207.82,319.57 C207.87,319.45 207.96,319.25 208.09,318.98" fill="none" stroke="rgb(33, 228, 63)" stroke-width="3.06" stroke-opacity="1.00" stroke-linejoin="round"/>
<path d="M221.65,320.01 C221.71,319.82 221.74,319.70 221.75,319.66 C221.76,319.61 221.76,319.57 221.75,319.54 C222.46,320.43 222.70,326.47 221.57,330.85 C219.46,338.84 218.83,342.64 218.99,346.14 C219.23,350.76 220.27,352.68 220.56,352.74 C222.15,352.02 233.77,338.04 235.68,336.76 C236.16,336.45 240.47,334.59 243.04,333.30 C244.61,332.49 246.09,330.80 246.34,329.75 C246.44,329.29 246.19,328.09 245.68,327.29 C245.07,326.36 238.28,318.94 237.75,317.96 C237.70,317.87 237.60,317.71 237.46,317.49" fill="none" stroke="rgb(33, 228, 63)" stroke-width="3.06" stroke-opacity="1.00" stroke-linejoin="round"/>
<path d="M225.67,322.07 C225.67,322.07 225.58,322.07 225.58,322.07 C225.58,322.07 224.57,326.77 224.57,326.77 C224.57,326.77 227.40,326.24 227.40,326.24 C227.40,326.24 228.06,333.87 228.06,333.87 C228.06,333.87 234.75,328.81 234.75,328.81 C234.27,327.70 228.32,326.65 228.23,325.69 C228.22,325.11 230.10,321.56 230.22,321.44 C230.29,321.39 230.63,321.10 231.27,320.58" fill="none" stroke="rgb(33, 228, 63)" stroke-width="3.06" stroke-opacity="1.00" stroke-linejoin="round"/>
<path d="M240.17,324.78 C240.17,324.78 239.21,325.30 239.21,325.30 C239.08,325.82 238.38,329.53 237.87,331.18 C237.13,333.54 235.00,337.35 233.34,338.93 C231.64,340.51 223.23,346.49 223.13,346.80 C223.11,346.87 223.09,346.95 223.06,347.04" fill="none" stroke="rgb(33, 228, 63)" stroke-width="3.06" stroke-opacity="1.00" stroke-linejoin="round"/>
</g>
</svg>
