<?xml version="1.0" encoding="UTF-8" standalone="no"?>
<!DOCTYPE svg PUBLIC "-//W3C//DTD SVG 1.1//EN" "http://www.w3.org/Graphics/SVG/1.1/DTD/svg11.dtd">
<svg width="64.20" height="90.84" viewBox="0.00 0.00 535.00 757.00" xmlns="http://www.w3.org/2000/svg" xmlns:xlink="http://www.w3.org/1999/xlink">
<g stroke-linecap="round" transform="translate(44.00, 155.00)" id="15-길">
<path d="M-26.24,331.07 C-26.24,331.07 -26.20,330.09 -26.20,330.09 C-24.57,330.25 -22.60,330.51 -21.27,330.69 C-9.46,331.90 14.65,333.83 15.41,333.94 C21.19,334.80 59.81,345.82 67.25,347.01 C71.08,347.61 87.26,349.33 92.42,350.04 C106.04,352.37 129.74,356.28 148.62,357.63 C156.55,358.36 169.88,360.71 176.92,362.03 C186.39,363.73 232.87,370.44 234.55,370.74 C241.13,371.90 294.18,385.41 347.83,400.44 C361.73,404.63 377.77,410.32 401.30,416.63 C413.79,420.03 448.19,432.00 451.63,433.13 C459.60,435.68 470.20,439.07 472.40,439.89 C472.40,439.89 469.49,441.66 469.49,441.66" fill="none" stroke="rgb(236, 0, 140)" stroke-width="3.06" stroke-opacity="1.00" stroke-linejoin="round"/>
<path d="M-33.30,344.78 C-33.30,344.78 -33.09,344.39 -33.09,344.39 C-27.87,345.70 -16.97,348.73 -13.87,349.05 C-11.82,349.24 -4.81,348.70 -1.75,348.67 C3.07,348.65 19.55,351.59 27.68,353.05 C44.58,356.30 75.75,363.17 87.39,366.70 C94.29,368.72 106.12,371.55 114.90,373.00 C122.13,374.06 136.97,375.76 144.29,376.58 C151.77,377.51 188.18,386.08 202.85,389.07 C249.81,398.20 279.37,402.71 314.23,412.53 C327.21,416.21 362.73,421.61 395.09,432.54 C410.11,437.69 438.29,447.54 445.05,450.47 C445.05,450.47 444.72,451.98 444.72,451.98" fill="none" stroke="rgb(236, 0, 140)" stroke-width="3.06" stroke-opacity="1.00" stroke-linejoin="round"/>
<path d="M-33.73,374.72 C-33.45,374.48 -28.74,376.46 -26.90,377.35 C-25.51,377.86 -17.33,378.42 -13.62,379.22 C-11.93,379.59 -4.86,381.48 -1.29,382.03 C14.27,384.26 40.44,386.74 53.25,387.58 C62.77,388.31 69.35,389.43 79.85,392.02 C83.42,392.94 100.20,397.80 106.12,398.95 C113.32,400.22 129.79,403.22 133.93,404.60 C138.13,406.01 148.80,410.82 157.83,414.27 C174.53,420.37 251.98,438.37 265.58,440.60 C278.72,442.56 312.45,447.18 319.75,448.43 C362.95,456.67 388.83,462.30 404.30,465.77 C412.06,467.65 426.88,471.40 434.09,474.09 C449.96,480.00 464.50,484.41 465.22,484.41 C466.73,484.39 469.78,483.00 471.40,481.95" fill="none" stroke="rgb(236, 0, 140)" stroke-width="3.06" stroke-opacity="1.00" stroke-linejoin="round"/>
<path d="M-22.49,355.27 C-22.46,354.38 -22.57,353.86 -23.07,352.48 C-23.17,352.21 -23.22,351.98 -23.22,351.78 C-23.22,351.68 -23.20,351.43 -23.17,351.03 C-23.40,352.07 -26.26,369.21 -26.25,369.27 C-26.24,369.46 -26.11,369.87 -25.87,370.51" fill="none" stroke="rgb(236, 0, 140)" stroke-width="3.06" stroke-opacity="1.00" stroke-linejoin="round"/>
<path d="M-11.68,351.18 C-12.03,351.56 -12.61,353.41 -13.01,355.65 C-13.14,356.41 -13.94,363.54 -14.46,365.60 C-15.20,368.47 -17.93,376.27 -17.94,376.36 C-17.98,376.71 -17.96,377.39 -17.88,378.43" fill="none" stroke="rgb(236, 0, 140)" stroke-width="3.06" stroke-opacity="1.00" stroke-linejoin="round"/>
<path d="M-3.03,356.45 C-3.28,356.71 -3.80,358.26 -4.31,360.44 C-6.35,369.19 -8.59,375.31 -9.41,376.08 C-9.54,376.19 -9.81,376.33 -10.22,376.49" fill="none" stroke="rgb(236, 0, 140)" stroke-width="3.06" stroke-opacity="1.00" stroke-linejoin="round"/>
<path d="M12.55,361.03 C12.55,361.03 12.17,360.82 12.17,360.82 C12.17,360.82 11.39,361.32 11.39,361.32 C10.17,364.68 9.56,369.03 9.52,371.20 C9.50,373.52 10.01,376.58 10.29,377.19 C10.37,377.36 10.57,377.69 10.88,378.16" fill="none" stroke="rgb(236, 0, 140)" stroke-width="3.06" stroke-opacity="1.00" stroke-linejoin="round"/>
<path d="M37.02,360.44 C37.02,360.44 36.63,360.23 36.63,360.23 C36.74,362.76 36.75,364.30 36.63,366.53 C36.44,370.12 35.81,379.42 35.80,379.61 C35.79,379.96 35.78,380.63 35.77,381.62" fill="none" stroke="rgb(236, 0, 140)" stroke-width="3.06" stroke-opacity="1.00" stroke-linejoin="round"/>
<path d="M113.08,380.28 C113.40,381.42 114.24,384.36 114.74,386.17 C115.92,390.51 116.79,395.37 117.46,397.48 C117.46,397.48 117.95,397.69 117.95,397.69" fill="none" stroke="rgb(236, 0, 140)" stroke-width="3.06" stroke-opacity="1.00" stroke-linejoin="round"/>
<path d="M127.20,382.04 C126.98,382.38 126.86,382.72 126.84,383.05 C126.79,383.89 127.47,389.71 127.42,393.59 C127.40,395.62 127.29,397.90 127.14,400.51 C127.14,400.51 127.60,400.96 127.60,400.96" fill="none" stroke="rgb(236, 0, 140)" stroke-width="3.06" stroke-opacity="1.00" stroke-linejoin="round"/>
<path d="M140.96,392.65 C141.27,393.96 141.92,396.47 142.01,397.18 C142.45,400.64 141.55,404.45 141.27,405.75 C141.27,405.75 142.00,405.13 142.00,405.13" fill="none" stroke="rgb(236, 0, 140)" stroke-width="3.06" stroke-opacity="1.00" stroke-linejoin="round"/>
<path d="M154.62,386.11 C154.48,386.09 154.21,387.71 154.16,389.38 C154.03,394.07 156.73,405.51 158.14,407.46 C158.34,407.74 158.82,408.22 159.55,408.90" fill="none" stroke="rgb(236, 0, 140)" stroke-width="3.06" stroke-opacity="1.00" stroke-linejoin="round"/>
<path d="M170.98,391.11 C170.27,392.68 170.02,396.30 171.20,399.64 C172.29,402.61 175.10,406.59 176.66,407.92 C177.82,408.88 182.73,411.62 183.50,411.35 C183.69,411.28 184.05,411.05 184.60,410.66" fill="none" stroke="rgb(236, 0, 140)" stroke-width="3.06" stroke-opacity="1.00" stroke-linejoin="round"/>
<path d="M189.15,390.07 C189.30,390.34 189.42,390.57 189.52,390.78 C192.41,397.45 198.17,409.35 201.68,416.06 C203.16,418.81 205.77,423.74 206.91,425.94 C206.91,425.94 207.35,425.45 207.35,425.45" fill="none" stroke="rgb(236, 0, 140)" stroke-width="3.06" stroke-opacity="1.00" stroke-linejoin="round"/>
<path d="M205.69,400.21 C206.08,400.19 209.05,403.49 213.91,409.16 C216.40,412.06 222.77,419.58 223.12,419.65 C223.12,419.65 223.83,418.37 223.83,418.37" fill="none" stroke="rgb(236, 0, 140)" stroke-width="3.06" stroke-opacity="1.00" stroke-linejoin="round"/>
<path d="M232.81,402.10 C233.99,405.68 235.84,409.66 237.55,412.89 C242.02,421.20 247.10,430.77 248.61,433.63 C248.61,433.63 251.04,433.78 251.04,433.78" fill="none" stroke="rgb(236, 0, 140)" stroke-width="3.06" stroke-opacity="1.00" stroke-linejoin="round"/>
<path d="M293.34,406.33 C293.34,406.33 292.40,405.30 292.40,405.30 C292.81,405.64 293.61,409.29 294.72,415.98 C295.47,420.44 296.15,422.77 298.26,427.56 C299.84,431.04 301.66,434.68 302.06,435.47 C302.06,435.47 302.98,432.92 302.98,432.92" fill="none" stroke="rgb(236, 0, 140)" stroke-width="3.06" stroke-opacity="1.00" stroke-linejoin="round"/>
<path d="M309.63,417.83 C309.70,417.70 309.77,417.57 309.84,417.44 C309.91,417.31 309.98,417.18 310.05,417.06 C311.31,419.28 312.87,423.26 314.40,428.31 C315.25,431.25 316.63,436.35 317.12,437.24 C317.12,437.24 318.41,437.85 318.41,437.85" fill="none" stroke="rgb(236, 0, 140)" stroke-width="3.06" stroke-opacity="1.00" stroke-linejoin="round"/>
<path d="M335.00,419.25 C335.00,419.25 334.05,418.23 334.05,418.23 C333.62,420.37 333.48,421.91 333.60,424.04 C334.11,431.94 337.81,447.31 338.23,449.45 C338.34,450.05 338.50,451.24 338.55,451.60 C338.55,451.60 340.11,450.67 340.11,450.67" fill="none" stroke="rgb(236, 0, 140)" stroke-width="3.06" stroke-opacity="1.00" stroke-linejoin="round"/>
<path d="M365.30,425.41 C365.30,425.41 363.75,424.56 363.75,424.56 C363.48,430.07 369.19,458.92 369.36,459.79 C369.36,459.79 370.82,459.14 370.82,459.14" fill="none" stroke="rgb(236, 0, 140)" stroke-width="3.06" stroke-opacity="1.00" stroke-linejoin="round"/>
<path d="M388.53,430.69 C388.53,430.69 388.36,430.09 388.36,430.09 C389.65,433.88 391.21,441.09 392.13,445.30 C393.66,452.22 396.75,460.93 397.79,461.76 C397.79,461.76 400.78,460.98 400.78,460.98" fill="none" stroke="rgb(236, 0, 140)" stroke-width="3.06" stroke-opacity="1.00" stroke-linejoin="round"/>
<path d="M436.94,456.90 C436.94,456.90 436.36,456.58 436.36,456.58 C436.02,456.66 437.30,462.65 437.85,465.11 C439.11,471.08 439.67,472.11 440.69,472.86 C440.69,472.86 444.53,471.11 444.53,471.11" fill="none" stroke="rgb(236, 0, 140)" stroke-width="3.06" stroke-opacity="1.00" stroke-linejoin="round"/>
</g>
</svg>
