<?xml version="1.0" encoding="UTF-8" standalone="no"?>
<!DOCTYPE svg PUBLIC "-//W3C//DTD SVG 1.1//EN" "http://www.w3.org/Graphics/SVG/1.1/DTD/svg11.dtd">
<svg width="128.40" height="181.68" viewBox="0.00 0.00 535.00 757.00" xmlns="http://www.w3.org/2000/svg" xmlns:xlink="http://www.w3.org/1999/xlink">
<g stroke-linecap="round" transform="translate(44.00, 155.00)" id="150-구름-1">
<path d="M65.67,-56.69 C65.66,-57.37 65.69,-58.97 65.62,-59.24 C65.35,-60.16 61.90,-63.28 58.74,-64.04 C57.41,-64.34 55.99,-64.54 54.85,-64.54 C53.44,-64.47 49.27,-60.18 47.74,-57.48 C46.58,-55.36 44.31,-49.63 43.66,-47.29 C42.96,-44.69 42.56,-39.92 42.85,-37.35 C43.18,-34.66 44.90,-30.07 46.26,-28.43 C46.62,-28.04 48.79,-26.21 49.55,-25.98 C51.41,-25.46 54.21,-25.37 55.56,-25.77 C60.03,-27.17 64.82,-30.39 65.73,-31.04 C65.83,-30.57 66.33,-24.90 67.26,-21.94 C68.18,-19.12 71.23,-13.31 73.04,-11.17 C74.88,-9.03 79.18,-6.14 81.89,-4.98 C84.61,-3.85 88.27,-2.95 91.18,-2.67 C93.14,-2.51 96.98,-3.17 102.28,-4.42 C105.92,-5.30 109.65,-6.72 111.78,-8.09 C113.96,-9.54 116.49,-12.87 118.23,-16.97 C118.90,-18.59 119.34,-19.77 119.53,-20.53 C119.68,-21.16 119.89,-22.40 120.15,-24.25" fill="none" stroke="rgb(0, 255, 255)" stroke-width="3.21" stroke-opacity="1.00" stroke-linejoin="round"/>
<path d="M121.37,-22.41 C121.37,-22.41 119.01,-21.22 119.01,-21.22 C119.20,-20.25 122.35,-17.11 124.29,-15.60 C126.60,-13.83 131.52,-11.35 133.98,-10.88 C136.61,-10.41 145.67,-10.07 147.74,-10.20 C152.90,-10.56 164.92,-14.73 166.77,-15.95 C168.22,-16.93 170.28,-19.82 170.75,-21.45 C171.18,-23.09 170.91,-26.10 170.28,-27.92 C169.79,-29.25 168.75,-30.93 167.39,-32.85 C170.50,-31.94 174.61,-30.99 176.72,-31.14 C180.11,-31.43 185.00,-33.40 186.62,-35.62 C188.04,-37.68 187.98,-42.15 186.88,-44.51 C185.65,-47.02 182.95,-49.68 180.79,-50.85 C175.06,-53.78 170.82,-51.38 169.89,-50.53 C170.35,-55.05 170.03,-59.29 169.51,-61.43 C168.87,-63.95 165.79,-68.46 164.40,-69.51 C161.58,-71.60 148.00,-79.26 144.31,-80.16 C141.89,-80.70 134.57,-79.20 132.32,-77.82 C130.44,-76.62 126.60,-73.36 125.13,-70.54 C124.41,-69.14 124.11,-67.00 124.16,-65.47 C122.97,-68.15 121.38,-71.05 119.62,-73.31 C117.44,-76.06 113.21,-79.97 110.51,-81.62 C107.89,-83.19 103.14,-84.89 100.51,-85.35 C98.63,-85.65 92.48,-85.30 88.97,-84.35 C87.30,-83.89 80.26,-80.67 78.36,-79.34 C76.24,-77.82 73.47,-74.48 71.64,-70.62 C67.85,-62.30 64.57,-54.40 63.22,-51.18" fill="none" stroke="rgb(0, 255, 255)" stroke-width="3.21" stroke-opacity="1.00" stroke-linejoin="round"/>
</g>
</svg>
