<?xml version="1.0" encoding="UTF-8" standalone="no"?>
<!DOCTYPE svg PUBLIC "-//W3C//DTD SVG 1.1//EN" "http://www.w3.org/Graphics/SVG/1.1/DTD/svg11.dtd">
<svg width="128.40" height="181.68" viewBox="0.00 0.00 535.00 757.00" xmlns="http://www.w3.org/2000/svg" xmlns:xlink="http://www.w3.org/1999/xlink">
<g stroke-linecap="round" transform="translate(44.00, 155.00)" id="150-구름-2">
<path d="M289.72,-7.72 C289.72,-7.72 289.44,-6.28 289.44,-6.28 C289.44,-6.28 288.70,-5.88 288.70,-5.88 C288.51,-6.94 288.39,-8.25 288.24,-8.52 C287.13,-10.39 279.94,-13.21 277.92,-13.72 C274.93,-14.44 268.22,-14.93 264.61,-14.71 C260.99,-14.46 256.71,-12.91 254.87,-11.08 C253.29,-9.44 250.42,-4.20 249.36,-1.23 C248.31,1.76 247.23,7.83 247.45,10.28 C247.77,13.35 249.66,18.24 251.72,19.94 C253.93,21.68 260.76,23.40 265.07,23.12 C266.02,23.05 271.93,21.95 273.95,21.18 C281.69,18.17 286.18,14.61 288.54,12.60 C287.79,14.22 287.64,17.92 288.91,21.00 C290.23,24.12 293.09,29.36 294.34,31.20 C295.68,33.16 299.60,37.70 302.27,39.65 C305.13,41.71 309.31,43.57 312.82,44.46 C322.46,46.82 330.95,48.22 336.06,47.60 C338.90,47.23 344.51,45.63 347.10,44.34 C349.79,42.98 353.71,39.67 355.32,37.52 C357.12,34.96 357.91,28.86 357.05,29.01 C357.62,30.07 363.16,35.17 365.22,36.47 C366.89,37.50 373.00,40.27 374.38,40.71 C376.50,41.36 384.55,42.56 385.70,42.69 C388.27,42.97 392.52,42.58 394.55,42.10 C397.02,41.50 401.97,39.32 404.04,37.86 C406.21,36.29 409.33,32.44 409.87,30.90 C410.86,27.93 410.31,22.00 409.80,20.57 C412.10,21.91 416.71,22.30 419.17,21.49 C421.89,20.54 426.01,17.49 427.13,15.12 C428.10,12.93 428.08,6.57 427.24,3.91 C426.40,1.36 423.44,-4.36 421.86,-6.38 C420.24,-8.41 416.62,-10.90 414.24,-11.94 C413.10,-12.41 410.05,-13.21 408.43,-13.41 C406.72,-13.62 404.16,-13.23 401.22,-12.53 C401.14,-12.82 402.87,-18.36 403.14,-20.64 C403.42,-23.39 402.64,-28.59 401.52,-30.59 C400.43,-32.47 396.70,-35.46 394.16,-36.79 C392.09,-37.86 387.11,-39.78 385.07,-40.29 C382.74,-40.86 378.24,-41.16 376.15,-40.79 C373.82,-40.35 369.51,-38.24 366.99,-36.33 C364.04,-34.04 358.46,-25.67 357.28,-22.98 C357.01,-23.14 354.81,-30.00 353.84,-32.02 C352.71,-34.32 348.89,-39.31 346.52,-41.44 C344.12,-43.55 338.97,-46.61 336.09,-47.56 C333.39,-48.42 327.74,-49.17 325.10,-49.12 C322.33,-49.04 316.92,-47.76 314.38,-46.60 C310.17,-44.62 301.54,-36.78 298.32,-32.86 C296.63,-30.78 293.73,-26.23 292.68,-23.80 C291.61,-21.28 290.47,-16.05 290.26,-13.34 C290.10,-10.94 290.30,-8.45 291.35,-3.80 C291.44,-3.40 291.51,-2.87 291.55,-2.21" fill="none" stroke="rgb(0, 255, 255)" stroke-width="3.21" stroke-opacity="1.00" stroke-linejoin="round"/>
</g>
</svg>
