<?xml version="1.0" encoding="UTF-8" standalone="no"?>
<!DOCTYPE svg PUBLIC "-//W3C//DTD SVG 1.1//EN" "http://www.w3.org/Graphics/SVG/1.1/DTD/svg11.dtd">
<svg width="128.40" height="181.68" viewBox="0.00 0.00 535.00 757.00" xmlns="http://www.w3.org/2000/svg" xmlns:xlink="http://www.w3.org/1999/xlink">
<g stroke-linecap="round" transform="translate(44.00, 155.00)" id="150-구름-3">
<path d="M119.54,42.48 C119.54,42.48 117.30,43.70 117.30,43.70 C116.45,43.20 114.23,39.29 112.12,37.15 C108.18,33.19 96.90,26.61 90.11,24.24 C87.49,23.36 82.84,22.80 77.45,22.49 C72.14,22.27 67.61,22.38 65.61,23.14 C62.38,24.43 57.73,27.16 55.70,29.17 C53.58,31.33 49.81,37.68 49.00,40.72 C48.33,43.36 48.15,52.01 48.63,54.74 C48.95,56.48 50.99,62.67 51.59,64.52" fill="none" stroke="rgb(0, 255, 255)" stroke-width="3.21" stroke-opacity="1.00" stroke-linejoin="round"/>
<path d="M39.96,59.01 C39.96,59.01 39.96,57.78 39.96,57.78 C39.76,57.81 37.97,57.35 37.23,57.25 C35.49,57.02 29.15,58.27 26.38,59.69 C23.05,61.44 19.00,65.42 18.21,68.17 C17.55,70.66 17.91,76.57 19.08,80.25 C20.10,83.35 22.55,87.92 24.03,89.20 C25.59,90.48 30.44,91.95 33.48,92.19 C36.67,92.41 43.20,91.71 46.96,90.76 C53.35,89.08 57.06,86.44 58.06,85.61 C57.43,86.51 58.77,90.33 60.98,93.36 C63.09,96.20 67.37,100.38 70.27,102.61 C72.80,104.50 79.19,107.80 82.96,108.99 C85.94,109.91 92.91,111.42 95.61,111.66 C98.49,111.89 103.66,110.69 105.11,109.91 C107.23,108.77 121.54,98.01 123.53,96.17 C127.39,92.53 131.55,84.40 133.62,78.63 C134.36,80.97 136.19,84.63 137.72,87.02 C139.70,90.08 144.68,95.65 147.47,97.76 C150.34,99.89 156.29,102.07 159.44,102.44 C162.31,102.74 167.83,102.43 170.23,101.56 C172.64,100.65 176.99,97.36 179.21,95.07 C181.32,92.85 184.49,88.35 185.54,85.85 C186.72,82.96 187.25,79.43 186.98,76.11 C186.57,71.72 185.73,67.99 184.88,66.37 C185.11,66.85 186.03,67.57 187.05,67.71 C188.74,67.93 191.48,66.66 193.17,64.92 C194.42,63.57 195.98,58.04 195.79,55.23 C195.55,52.38 193.29,47.64 191.35,45.67 C189.52,43.86 185.03,41.46 182.50,40.95 C180.21,40.52 174.73,40.79 172.56,41.41 C170.21,42.11 166.58,44.46 165.19,46.01 C164.21,47.17 162.81,48.79 162.15,49.37 C161.65,44.52 160.73,39.58 159.35,36.33 C157.76,32.68 154.24,27.58 152.23,26.13 C150.28,24.79 146.53,23.87 143.84,23.83 C141.38,23.81 136.23,24.19 134.17,24.69 C131.40,25.38 127.09,27.50 125.36,29.56 C123.56,31.77 120.71,38.38 120.43,41.66 C120.39,42.18 120.23,46.65 120.15,48.60" fill="none" stroke="rgb(0, 255, 255)" stroke-width="3.21" stroke-opacity="1.00" stroke-linejoin="round"/>
</g>
</svg>
