<?xml version="1.0" encoding="UTF-8" standalone="no"?>
<!DOCTYPE svg PUBLIC "-//W3C//DTD SVG 1.1//EN" "http://www.w3.org/Graphics/SVG/1.1/DTD/svg11.dtd">
<svg width="128.40" height="181.68" viewBox="0.00 0.00 535.00 757.00" xmlns="http://www.w3.org/2000/svg" xmlns:xlink="http://www.w3.org/1999/xlink">
<g stroke-linecap="round" transform="translate(44.00, 155.00)" id="151-물웅덩이-3">
<path d="M-37.43,415.46 C-37.43,415.46 -39.64,418.24 -39.64,418.24 C-39.64,418.24 -39.18,418.32 -39.18,418.32 C-35.65,416.56 -31.83,414.92 -29.41,414.30 C-26.60,413.60 -20.88,413.19 -17.68,413.64 C-15.44,413.98 -8.36,415.76 -4.62,416.56 C2.37,418.04 7.64,419.40 9.23,421.38 C10.52,423.05 12.94,432.04 13.50,433.10 C13.62,433.32 25.59,435.79 26.32,436.13 C26.54,436.24 26.96,436.50 27.57,436.92" fill="none" stroke="rgb(0, 0, 255)" stroke-width="3.31" stroke-opacity="1.00" stroke-linejoin="round"/>
<path d="M26.94,444.49 C26.94,444.49 23.99,444.49 23.99,444.49 C23.82,447.12 29.27,461.42 31.87,467.86 C33.03,471.20 34.23,478.05 34.27,481.04 C34.28,483.66 33.10,488.93 32.34,490.88 C29.87,497.07 23.98,504.90 16.79,513.14 C14.35,515.98 10.11,521.47 8.80,523.72 C6.40,527.90 -1.42,548.50 -2.33,550.20 C-2.33,550.20 -4.61,548.62 -4.61,548.62" fill="none" stroke="rgb(0, 0, 255)" stroke-width="3.31" stroke-opacity="1.00" stroke-linejoin="round"/>
<path d="M-34.28,505.07 C-35.23,506.01 -37.87,508.60 -38.38,509.02 C-38.71,509.29 -39.23,509.66 -39.96,510.12 C-36.45,510.16 -13.74,511.39 -12.61,511.39 C-12.47,511.39 -12.33,511.39 -12.19,511.39" fill="none" stroke="rgb(0, 0, 255)" stroke-width="3.31" stroke-opacity="1.00" stroke-linejoin="round"/>
<path d="M-34.91,479.20 C-34.91,479.20 -36.01,481.72 -36.01,481.72 C-34.12,483.00 -28.79,484.14 -25.79,484.80 C-13.03,487.27 4.50,490.92 5.51,491.75 C5.72,491.93 6.13,492.37 6.75,493.08" fill="none" stroke="rgb(0, 0, 255)" stroke-width="3.31" stroke-opacity="1.00" stroke-linejoin="round"/>
<path d="M-16.61,462.79 C-16.61,462.79 -19.13,462.16 -19.13,462.16 C-10.99,462.66 12.59,470.60 13.56,471.39 C13.89,471.67 14.56,472.38 15.58,473.52" fill="none" stroke="rgb(0, 0, 255)" stroke-width="3.31" stroke-opacity="1.00" stroke-linejoin="round"/>
</g>
</svg>
