<?xml version="1.0" encoding="UTF-8" standalone="no"?>
<!DOCTYPE svg PUBLIC "-//W3C//DTD SVG 1.1//EN" "http://www.w3.org/Graphics/SVG/1.1/DTD/svg11.dtd">
<svg width="128.40" height="181.68" viewBox="0.00 0.00 535.00 757.00" xmlns="http://www.w3.org/2000/svg" xmlns:xlink="http://www.w3.org/1999/xlink">
<g stroke-linecap="round" transform="translate(44.00, 155.00)" id="151-물웅덩이-2">
<path d="M-22.28,188.89 C-22.28,188.89 -23.48,188.89 -23.48,188.89 C-23.48,188.89 -24.18,189.65 -24.18,189.65 C-23.51,191.08 -17.82,195.34 -15.46,197.08 C-12.89,198.92 -9.30,200.11 -7.16,200.17 C-5.10,200.21 11.56,198.09 22.60,198.27 C28.63,198.42 33.04,198.72 34.92,199.39 C37.25,200.25 42.92,203.49 45.12,206.07 C46.23,207.41 50.53,214.99 51.39,217.23 C52.02,218.93 53.26,225.01 53.23,227.32 C53.16,229.72 51.87,234.75 50.66,237.73 C48.71,242.44 39.79,255.35 38.91,257.98 C37.98,260.89 37.08,266.02 37.31,270.17 C37.93,276.88 39.01,290.90 38.74,295.69 C38.54,298.89 36.85,304.80 35.94,306.69 C34.70,309.22 30.48,314.04 27.88,315.98 C25.65,317.60 20.44,320.39 17.25,321.64 C13.83,322.95 8.25,324.60 4.81,324.83 C1.31,325.03 -4.40,324.58 -7.33,323.76 C-10.96,322.71 -18.41,319.90 -19.62,319.51 C-21.53,318.91 -27.90,317.45 -29.86,317.01" fill="none" stroke="rgb(0, 0, 255)" stroke-width="3.31" stroke-opacity="1.00" stroke-linejoin="round"/>
<path d="M-21.02,295.55 C-21.02,295.55 -22.92,296.71 -22.92,296.71 C-21.20,298.04 -8.95,299.44 -5.70,299.70 C-3.56,299.85 -0.29,299.69 1.32,299.34 C1.79,299.23 2.34,299.02 2.96,298.71" fill="none" stroke="rgb(0, 0, 255)" stroke-width="3.31" stroke-opacity="1.00" stroke-linejoin="round"/>
<path d="M-33.01,287.35 C-33.01,287.35 -37.27,287.35 -37.27,287.35 C-33.33,287.35 -17.32,286.98 -10.85,286.82 C-2.64,286.71 8.49,287.51 12.80,288.97 C12.80,288.97 12.43,291.13 12.43,291.13" fill="none" stroke="rgb(0, 0, 255)" stroke-width="3.31" stroke-opacity="1.00" stroke-linejoin="round"/>
<path d="M-18.50,270.94 C-18.50,270.94 -20.91,272.20 -20.91,272.20 C-14.66,271.27 -3.55,269.69 2.98,269.71 C6.33,269.78 12.23,269.93 15.09,270.58 C15.09,270.58 14.95,271.57 14.95,271.57" fill="none" stroke="rgb(0, 0, 255)" stroke-width="3.31" stroke-opacity="1.00" stroke-linejoin="round"/>
<path d="M-19.13,245.69 C-19.13,245.69 -21.57,245.69 -21.57,245.69 C-20.73,245.76 -17.46,244.80 -11.76,243.03 C-8.20,241.97 -1.91,241.12 1.75,241.03 C5.10,240.98 10.02,241.26 14.34,242.11 C15.51,242.34 26.86,244.85 28.59,245.06 C24.09,244.88 19.92,244.26 15.28,242.74 C6.00,239.62 -4.84,236.43 -11.09,235.20 C-14.12,234.62 -17.11,234.77 -18.13,235.01 C-18.89,235.21 -19.64,235.40 -20.39,235.60" fill="none" stroke="rgb(0, 0, 255)" stroke-width="3.31" stroke-opacity="1.00" stroke-linejoin="round"/>
<path d="M-16.61,224.87 C-16.61,224.87 -17.24,224.87 -17.24,224.87 C-14.82,224.85 -13.60,224.88 -11.58,224.99 C-4.13,225.40 10.05,226.23 17.37,227.32 C26.01,228.64 30.35,230.68 34.00,232.62 C34.00,232.62 33.88,236.86 33.88,236.86" fill="none" stroke="rgb(0, 0, 255)" stroke-width="3.31" stroke-opacity="1.00" stroke-linejoin="round"/>
<path d="M-22.92,214.14 C-22.92,214.14 -26.91,214.14 -26.91,214.14 C-20.07,213.95 -1.87,213.62 2.07,213.78 C8.34,214.05 20.51,216.43 24.99,218.30 C27.09,219.20 31.36,221.50 32.73,223.25 C33.42,224.14 33.82,224.71 33.95,224.96 C34.09,225.26 34.28,225.86 34.51,226.76" fill="none" stroke="rgb(0, 0, 255)" stroke-width="3.31" stroke-opacity="1.00" stroke-linejoin="round"/>
</g>
</svg>
