<?xml version="1.0" encoding="UTF-8" standalone="no"?>
<!DOCTYPE svg PUBLIC "-//W3C//DTD SVG 1.1//EN" "http://www.w3.org/Graphics/SVG/1.1/DTD/svg11.dtd">
<svg width="128.40" height="181.68" viewBox="0.00 0.00 535.00 757.00" xmlns="http://www.w3.org/2000/svg" xmlns:xlink="http://www.w3.org/1999/xlink">
<g stroke-linecap="round" transform="translate(44.00, 155.00)" id="151-사람-1">
<path d="M132.97,72.14 C132.97,72.14 134.39,72.46 134.39,72.46 C134.39,72.46 134.86,73.64 134.86,73.64 C133.63,74.54 128.42,75.14 125.64,76.17 C122.99,77.17 113.54,81.54 112.09,82.53 C110.71,83.50 108.73,85.46 108.09,86.47 C107.37,87.67 107.17,88.66 107.07,90.92 C107.02,91.88 103.91,94.91 102.65,96.15" fill="none" stroke="rgb(255, 0, 255)" stroke-width="3.31" stroke-opacity="1.00" stroke-linejoin="round"/>
<path d="M121.61,86.02 C121.61,86.02 121.29,86.91 121.29,86.91 C120.39,87.42 117.35,89.17 116.57,89.67 C112.85,92.09 107.89,97.18 106.03,99.39 C104.52,101.21 101.55,106.51 100.02,109.25 C99.64,109.91 99.27,110.58 98.90,111.24" fill="none" stroke="rgb(255, 0, 255)" stroke-width="3.31" stroke-opacity="1.00" stroke-linejoin="round"/>
<path d="M114.03,72.77 C114.03,72.77 115.61,72.14 115.61,72.14 C115.61,72.14 115.84,72.39 115.84,72.39 C115.14,73.48 110.79,79.91 109.48,82.09 C107.08,86.15 101.63,99.25 101.10,103.23 C100.77,105.97 101.22,112.49 101.35,114.22" fill="none" stroke="rgb(255, 0, 255)" stroke-width="3.31" stroke-opacity="1.00" stroke-linejoin="round"/>
<path d="M98.89,80.34 C98.89,80.34 98.89,80.03 98.89,80.03 C98.89,80.03 99.52,79.12 99.52,79.12 C97.74,79.05 92.29,80.72 89.49,82.55 C87.87,83.63 84.19,87.55 82.66,90.04 C81.14,92.58 79.42,97.31 78.87,100.21 C78.39,102.99 79.82,119.43 79.76,122.01 C79.62,126.80 77.08,138.79 74.95,145.50 C72.38,153.22 66.76,163.55 66.80,164.20 C70.91,158.55 77.38,147.10 80.32,140.87 C82.31,136.65 88.59,121.71 88.66,121.45 C88.76,121.04 88.90,120.17 89.06,118.84" fill="none" stroke="rgb(255, 0, 255)" stroke-width="3.31" stroke-opacity="1.00" stroke-linejoin="round"/>
<path d="M81.22,160.49 C81.28,161.67 81.33,162.41 81.37,162.70 C81.85,166.13 92.72,190.11 93.73,191.46 C94.21,192.10 96.73,194.23 97.93,195.28" fill="none" stroke="rgb(255, 0, 255)" stroke-width="3.31" stroke-opacity="1.00" stroke-linejoin="round"/>
<path d="M90.05,162.39 C90.05,162.39 88.79,161.76 88.79,161.76 C89.32,166.95 93.63,181.63 95.75,187.25 C98.38,194.15 104.66,205.12 107.67,207.54 C108.79,208.43 109.87,208.88 110.64,208.88 C110.56,209.03 106.99,200.83 102.45,183.96 C101.12,178.82 100.39,175.69 99.60,171.96 C100.98,176.83 104.23,184.70 109.41,195.16 C113.84,203.65 119.89,211.92 122.87,216.03" fill="none" stroke="rgb(255, 0, 255)" stroke-width="3.31" stroke-opacity="1.00" stroke-linejoin="round"/>
<path d="M111.51,122.00 C111.51,122.00 110.25,118.32 110.25,118.32 C109.87,129.77 109.28,137.58 108.01,145.70 C106.76,153.20 105.36,161.86 105.20,163.02" fill="none" stroke="rgb(255, 0, 255)" stroke-width="3.31" stroke-opacity="1.00" stroke-linejoin="round"/>
<path d="M117.19,120.74 C117.19,120.74 114.98,120.26 114.98,120.26 C114.98,120.26 114.66,119.21 114.66,119.21 C115.01,117.90 121.43,112.45 122.69,111.25 C125.62,108.44 131.80,98.24 133.97,92.44 C135.28,88.87 137.74,76.88 137.77,76.36 C137.79,76.00 137.73,75.44 137.59,74.68" fill="none" stroke="rgb(255, 0, 255)" stroke-width="3.31" stroke-opacity="1.00" stroke-linejoin="round"/>
<path d="M141.17,74.03 C141.17,74.03 138.80,74.03 138.80,74.03 C142.01,73.02 148.19,70.32 149.94,69.64 C153.81,68.17 159.16,66.91 163.09,66.64 C164.76,66.53 189.39,64.59 191.69,64.47 C194.99,64.32 198.40,64.61 201.25,65.65 C202.50,66.11 209.84,69.12 212.76,70.56 C217.10,72.76 220.95,75.33 222.72,78.40 C223.04,78.96 226.53,85.95 228.69,89.51 C230.67,92.72 242.51,107.45 243.60,109.72 C247.50,118.17 252.15,130.37 252.54,134.55 C252.76,137.18 251.81,145.17 251.19,146.74 C250.88,147.49 248.13,150.54 247.19,151.66" fill="none" stroke="rgb(255, 0, 255)" stroke-width="3.31" stroke-opacity="1.00" stroke-linejoin="round"/>
<path d="M247.19,124.52 C247.19,124.52 244.76,124.52 244.76,124.52 C244.71,127.67 244.57,134.89 244.26,137.18 C244.00,139.07 242.27,144.43 241.13,146.54 C239.86,148.85 238.18,150.42 237.58,150.64 C237.11,146.67 238.30,139.96 238.98,136.01 C239.68,131.91 240.56,126.56 240.75,125.30 C239.92,126.53 232.83,142.45 230.22,145.69 C229.71,146.33 227.09,149.01 225.74,150.40" fill="none" stroke="rgb(255, 0, 255)" stroke-width="3.31" stroke-opacity="1.00" stroke-linejoin="round"/>
<path d="M220.69,119.47 C220.69,119.47 220.69,116.95 220.69,116.95 C220.19,120.26 214.66,130.34 209.86,136.09 C203.06,144.08 198.77,149.52 195.06,154.82 C196.12,152.97 198.54,150.71 202.33,148.03 C207.95,144.09 223.05,130.20 225.12,127.37 C224.92,129.30 224.83,130.54 224.85,131.08 C224.88,131.92 225.71,134.16 226.01,134.97" fill="none" stroke="rgb(255, 0, 255)" stroke-width="3.31" stroke-opacity="1.00" stroke-linejoin="round"/>
<path d="M218.16,94.86 C216.76,94.80 214.65,94.96 213.76,95.45 C211.36,96.81 203.16,112.01 200.93,117.56 C196.59,128.53 194.73,133.55 194.05,135.62 C194.05,135.62 196.25,132.76 196.25,132.76" fill="none" stroke="rgb(255, 0, 255)" stroke-width="3.31" stroke-opacity="1.00" stroke-linejoin="round"/>
<path d="M199.23,127.68 C199.23,127.68 199.39,129.99 199.39,129.99 C200.60,130.32 204.36,127.83 207.36,123.80 C207.36,123.80 203.62,126.63 203.62,126.63" fill="none" stroke="rgb(255, 0, 255)" stroke-width="3.31" stroke-opacity="1.00" stroke-linejoin="round"/>
<path d="M191.03,95.49 C191.03,95.49 191.34,94.86 191.34,94.86 C191.34,94.86 192.20,94.86 192.20,94.86 C192.22,96.37 184.09,106.87 177.42,116.59 C175.66,119.17 172.80,123.33 171.70,124.92 C171.48,123.76 175.81,111.02 178.75,104.93 C182.13,98.20 186.68,89.22 187.52,87.14 C186.82,87.38 182.47,91.31 179.89,93.63 C179.19,94.25 178.48,94.87 177.77,95.49" fill="none" stroke="rgb(255, 0, 255)" stroke-width="3.31" stroke-opacity="1.00" stroke-linejoin="round"/>
<path d="M165.78,101.17 C165.78,101.17 164.52,102.75 164.52,102.75 C164.52,102.75 164.52,103.06 164.52,103.06 C163.84,104.41 151.84,117.50 148.60,121.60 C145.99,124.92 136.20,138.42 133.43,142.21 C133.43,142.21 133.24,140.58 133.24,140.58" fill="none" stroke="rgb(255, 0, 255)" stroke-width="3.31" stroke-opacity="1.00" stroke-linejoin="round"/>
<path d="M139.91,119.47 C137.19,120.77 134.33,121.85 134.09,122.20 C133.94,122.43 129.22,129.50 127.55,132.04 C126.21,134.09 124.15,136.91 123.59,137.67" fill="none" stroke="rgb(255, 0, 255)" stroke-width="3.31" stroke-opacity="1.00" stroke-linejoin="round"/>
<path d="M163.89,86.66 C161.73,87.11 158.36,89.36 155.85,92.30 C153.76,94.73 148.06,101.40 147.02,102.66 C144.24,106.08 143.08,108.08 141.80,110.64" fill="none" stroke="rgb(255, 0, 255)" stroke-width="3.31" stroke-opacity="1.00" stroke-linejoin="round"/>
<path d="M170.83,124.52 C170.83,124.52 170.83,123.89 170.83,123.89 C169.43,123.73 168.50,123.96 167.25,125.18 C153.95,138.18 147.14,147.75 145.86,150.07 C146.57,148.64 147.06,147.40 147.53,145.66 C148.02,143.83 148.54,141.54 148.96,139.38 C149.60,135.95 149.27,134.73 148.90,134.38 C146.52,137.32 144.31,142.94 143.68,144.68 C142.41,148.35 140.29,154.47 139.44,156.93" fill="none" stroke="rgb(255, 0, 255)" stroke-width="3.31" stroke-opacity="1.00" stroke-linejoin="round"/>
<path d="M139.91,149.77 C139.91,149.77 137.54,152.29 137.54,152.29 C137.78,153.99 150.06,186.33 152.91,193.50 C154.06,196.37 155.97,201.14 157.36,202.49 C154.73,199.58 145.75,185.98 141.00,178.74 C136.87,172.46 128.45,159.79 125.00,154.97 C125.00,154.97 125.89,155.86 125.89,155.86 C125.89,155.86 125.86,156.06 125.86,156.06 C125.86,156.06 125.47,156.08 125.47,156.08 C126.23,159.00 129.61,164.82 131.61,168.27 C137.12,177.57 145.46,190.13 147.43,192.36 C149.13,194.27 153.54,198.21 154.42,198.99" fill="none" stroke="rgb(255, 0, 255)" stroke-width="3.31" stroke-opacity="1.00" stroke-linejoin="round"/>
<path d="M114.66,159.86 C114.66,159.86 112.93,159.86 112.93,159.86 C112.93,159.86 112.30,160.81 112.30,160.81 C112.71,162.99 113.10,164.37 113.79,165.28 C115.43,167.43 132.32,183.60 133.21,184.54 C133.77,185.15 140.83,194.17 142.18,196.11 C143.56,198.08 148.86,206.98 149.33,207.76" fill="none" stroke="rgb(255, 0, 255)" stroke-width="3.31" stroke-opacity="1.00" stroke-linejoin="round"/>
<path d="M122.87,175.64 C122.86,175.52 117.62,173.76 116.67,173.75 C115.76,173.76 113.76,176.17 113.40,178.29 C112.95,181.10 113.81,186.30 114.69,188.42 C115.77,190.96 119.15,195.26 121.29,196.69 C123.19,197.91 128.69,199.23 131.96,198.45 C133.13,198.15 137.35,195.41 138.65,194.57" fill="none" stroke="rgb(255, 0, 255)" stroke-width="3.31" stroke-opacity="1.00" stroke-linejoin="round"/>
<path d="M120.97,182.58 C120.68,182.85 120.47,183.06 120.34,183.21 C120.22,183.37 120.01,183.68 119.71,184.16 C120.80,184.42 121.78,184.53 123.78,184.54 C125.52,184.56 129.19,184.61 130.47,184.67 C132.37,184.75 135.18,184.96 136.75,185.11" fill="none" stroke="rgb(255, 0, 255)" stroke-width="3.31" stroke-opacity="1.00" stroke-linejoin="round"/>
<path d="M152.53,147.24 C152.53,147.24 147.48,150.40 147.48,150.40 C149.83,150.49 163.00,147.85 170.77,145.33 C176.47,143.46 184.81,138.54 188.15,135.85 C188.15,135.85 187.24,135.88 187.24,135.88" fill="none" stroke="rgb(255, 0, 255)" stroke-width="3.31" stroke-opacity="1.00" stroke-linejoin="round"/>
<path d="M186.61,130.20 C184.84,131.81 183.66,133.86 183.53,136.04 C183.43,137.95 184.33,142.64 184.79,144.46 C184.79,144.46 185.35,131.76 185.35,131.76 C185.35,131.76 185.98,138.41 185.98,138.41" fill="none" stroke="rgb(255, 0, 255)" stroke-width="3.31" stroke-opacity="1.00" stroke-linejoin="round"/>
<path d="M193.55,134.62 C193.55,134.62 191.03,135.59 191.03,135.59 C191.03,135.59 193.55,144.14 193.55,144.14 C193.55,144.14 194.59,143.29 194.59,143.29" fill="none" stroke="rgb(255, 0, 255)" stroke-width="3.31" stroke-opacity="1.00" stroke-linejoin="round"/>
<path d="M182.19,139.04 C180.66,139.14 179.70,139.24 179.31,139.32 C178.74,139.45 159.24,151.28 158.81,151.49 C158.32,151.74 157.49,152.00 156.32,152.29" fill="none" stroke="rgb(255, 0, 255)" stroke-width="3.31" stroke-opacity="1.00" stroke-linejoin="round"/>
<path d="M184.08,152.92 C182.45,154.04 181.48,154.16 181.15,154.18 C175.33,154.63 164.31,155.09 158.67,157.21 C156.47,158.06 152.07,160.69 151.00,161.75 C150.65,162.10 149.89,162.94 148.74,164.28" fill="none" stroke="rgb(255, 0, 255)" stroke-width="3.31" stroke-opacity="1.00" stroke-linejoin="round"/>
<path d="M199.86,152.29 C199.86,152.29 199.86,151.03 199.86,151.03 C199.80,151.46 200.08,153.80 200.44,155.38 C200.65,156.27 209.80,172.56 211.07,175.05 C209.27,176.09 204.56,176.79 197.46,178.11 C195.33,178.50 191.80,179.17 190.40,179.43" fill="none" stroke="rgb(255, 0, 255)" stroke-width="3.31" stroke-opacity="1.00" stroke-linejoin="round"/>
<path d="M211.22,148.50 C210.49,148.50 209.75,148.50 209.01,148.50 C208.73,148.50 208.44,148.50 208.15,148.50 C211.28,148.54 218.15,147.88 220.63,148.00 C223.41,148.15 227.18,149.80 227.92,150.90 C225.60,150.73 216.80,149.22 215.36,149.03 C213.52,148.78 211.14,148.56 209.96,148.50" fill="none" stroke="rgb(255, 0, 255)" stroke-width="3.31" stroke-opacity="1.00" stroke-linejoin="round"/>
<path d="M231.42,147.87 C230.80,148.33 229.56,149.00 228.89,149.13 C228.65,149.18 228.28,149.18 227.79,149.13 C229.36,149.66 231.09,152.62 233.65,157.61 C235.27,160.73 238.08,164.87 238.78,166.94 C239.72,169.81 239.43,177.40 238.35,179.71 C237.32,181.77 231.91,187.23 229.19,189.27 C225.64,191.92 221.37,194.61 218.57,195.90 C215.28,197.39 212.47,198.42 208.70,199.62" fill="none" stroke="rgb(255, 0, 255)" stroke-width="3.31" stroke-opacity="1.00" stroke-linejoin="round"/>
<path d="M219.43,145.35 C219.43,145.35 216.27,147.82 216.27,147.82 C216.60,146.86 221.74,142.95 222.36,142.67 C223.92,142.00 226.01,142.63 228.23,144.28 C228.54,144.52 228.97,144.87 229.52,145.35" fill="none" stroke="rgb(255, 0, 255)" stroke-width="3.31" stroke-opacity="1.00" stroke-linejoin="round"/>
<path d="M201.12,180.69 C201.12,180.69 200.81,181.57 200.81,181.57 C200.81,181.57 199.62,181.89 199.62,181.89 C199.62,181.89 181.70,178.17 181.70,178.17 C180.31,180.83 179.76,182.28 179.78,183.53 C179.83,185.72 180.13,191.31 180.64,193.87 C181.24,196.79 182.89,200.68 184.62,202.28 C186.14,203.62 191.42,203.65 194.38,203.04 C196.80,202.51 200.59,200.81 202.22,199.34 C203.96,197.70 206.89,192.77 207.74,189.95 C208.58,187.07 209.09,180.21 208.84,179.82 C208.58,179.39 207.69,178.42 206.17,176.90" fill="none" stroke="rgb(255, 0, 255)" stroke-width="3.31" stroke-opacity="1.00" stroke-linejoin="round"/>
<path d="M207.44,185.11 C207.44,185.11 206.49,186.37 206.49,186.37 C205.43,186.42 199.40,185.58 195.85,186.23 C191.78,186.98 182.93,186.70 182.47,186.46 C182.20,186.31 181.68,185.86 180.93,185.11" fill="none" stroke="rgb(255, 0, 255)" stroke-width="3.31" stroke-opacity="1.00" stroke-linejoin="round"/>
<path d="M153.79,172.49 C153.79,172.49 151.90,172.49 151.90,172.49 C155.07,170.75 159.63,168.66 163.11,167.55 C164.74,167.04 165.61,166.76 165.71,166.72 C165.97,166.61 166.18,166.46 166.35,166.27" fill="none" stroke="rgb(255, 0, 255)" stroke-width="3.31" stroke-opacity="1.00" stroke-linejoin="round"/>
<path d="M158.84,175.01 C158.84,175.01 156.95,176.27 156.95,176.27 C156.92,176.29 161.56,174.72 162.42,174.41 C162.97,174.21 164.06,173.79 165.68,173.16" fill="none" stroke="rgb(255, 0, 255)" stroke-width="3.31" stroke-opacity="1.00" stroke-linejoin="round"/>
<path d="M182.19,204.67 C180.74,204.62 179.81,204.62 179.41,204.67 C178.78,204.75 176.90,205.29 174.46,205.30 C172.65,205.30 168.81,205.30 166.77,205.30 C165.11,205.30 162.41,205.30 161.36,205.30" fill="none" stroke="rgb(255, 0, 255)" stroke-width="3.31" stroke-opacity="1.00" stroke-linejoin="round"/>
<path d="M218.79,198.36 C218.79,198.36 217.65,199.62 217.65,199.62 C220.32,199.63 225.72,200.13 229.44,201.26 C232.69,202.28 250.02,213.49 251.60,214.69 C254.22,216.69 258.05,220.93 260.24,222.98 C262.29,224.88 265.97,227.36 266.74,227.04 C267.89,225.23 268.00,219.50 268.07,216.96 C268.35,209.27 269.44,192.35 270.05,183.85 C270.85,171.04 270.11,154.24 270.66,153.27 C272.80,152.59 288.25,154.23 294.79,156.33 C301.16,158.38 310.86,160.04 314.28,159.55 C314.66,159.49 315.23,159.39 315.98,159.23" fill="none" stroke="rgb(255, 0, 255)" stroke-width="3.31" stroke-opacity="1.00" stroke-linejoin="round"/>
<path d="M270.54,151.03 C270.54,151.03 268.19,150.40 268.19,150.40 C269.91,150.39 271.19,150.30 273.67,150.00 C282.05,148.96 296.38,145.88 300.15,146.04 C303.15,146.21 310.85,148.60 312.73,149.91 C314.02,150.86 314.64,152.84 314.71,155.32 C314.72,157.08 316.11,178.51 316.26,181.76 C316.77,198.49 316.35,215.15 316.01,218.19 C316.01,218.19 315.98,217.00 315.98,217.00" fill="none" stroke="rgb(255, 0, 255)" stroke-width="3.31" stroke-opacity="1.00" stroke-linejoin="round"/>
<path d="M313.46,258.31 C313.47,259.05 313.47,259.54 313.46,259.79 C313.40,261.61 308.80,275.16 306.61,279.98 C305.79,281.76 298.85,296.47 296.77,301.40 C296.77,301.40 295.16,299.97 295.16,299.97" fill="none" stroke="rgb(255, 0, 255)" stroke-width="3.31" stroke-opacity="1.00" stroke-linejoin="round"/>
<path d="M301.47,261.47 C300.24,263.26 299.20,265.48 298.94,267.26 C298.84,267.98 298.80,278.56 298.22,281.71 C297.78,284.01 295.43,291.95 294.49,294.41 C293.58,296.69 292.82,297.95 291.94,298.43 C289.11,299.81 285.21,299.94 281.85,299.00 C277.43,297.70 261.25,290.05 257.29,287.44 C254.92,285.86 252.87,283.72 252.24,282.93" fill="none" stroke="rgb(255, 0, 255)" stroke-width="3.31" stroke-opacity="1.00" stroke-linejoin="round"/>
<path d="M275.59,114.42 C275.59,114.42 274.96,114.42 274.96,114.42 C274.96,114.42 274.33,113.79 274.33,113.79 C272.64,113.69 270.54,114.16 269.32,115.12 C268.00,116.19 266.66,121.64 266.61,124.30 C266.57,129.07 268.65,141.28 269.05,143.10 C269.88,146.72 272.12,148.74 273.07,149.13" fill="none" stroke="rgb(255, 0, 255)" stroke-width="3.31" stroke-opacity="1.00" stroke-linejoin="round"/>
<path d="M273.70,115.06 C273.70,115.06 271.96,115.13 271.96,115.13 C277.58,117.49 281.65,119.71 283.51,121.94 C284.95,123.71 288.54,129.33 289.67,132.02 C290.19,133.30 292.84,141.10 292.93,142.58 C292.20,143.13 290.70,143.57 289.28,143.51 C287.74,143.43 284.23,140.93 281.95,138.41 C279.64,135.84 271.41,124.58 270.98,123.50 C270.69,122.73 270.20,120.81 269.91,119.47" fill="none" stroke="rgb(255, 0, 255)" stroke-width="3.31" stroke-opacity="1.00" stroke-linejoin="round"/>
<path d="M278.75,114.42 C276.99,114.80 275.94,115.01 275.59,115.06 C275.25,115.10 275.11,115.05 275.20,114.90 C277.29,113.75 280.76,112.23 283.62,112.01 C285.04,111.93 287.55,112.17 288.71,112.57 C290.28,113.15 292.34,115.20 293.36,117.06 C294.13,118.52 295.06,124.05 295.18,127.54 C295.28,131.03 294.85,137.02 294.94,138.16 C295.02,139.19 295.45,141.75 295.79,143.45" fill="none" stroke="rgb(255, 0, 255)" stroke-width="3.31" stroke-opacity="1.00" stroke-linejoin="round"/>
<path d="M295.79,110.64 C295.30,110.79 294.88,110.89 294.53,110.95 C294.17,111.02 293.38,111.12 292.16,111.27 C293.58,111.29 295.35,111.46 296.37,111.81 C298.87,112.68 302.34,117.05 303.27,119.46 C305.08,124.33 304.88,131.80 304.41,135.06 C303.97,137.86 302.23,140.66 301.47,141.56" fill="none" stroke="rgb(255, 0, 255)" stroke-width="3.31" stroke-opacity="1.00" stroke-linejoin="round"/>
<path d="M305.89,111.27 C305.89,111.27 303.99,111.27 303.99,111.27 C305.13,112.82 310.95,114.71 312.25,115.96 C314.14,117.84 314.44,123.53 314.04,127.29 C313.63,130.39 309.05,143.69 306.58,149.37 C306.58,149.37 306.52,147.87 306.52,147.87" fill="none" stroke="rgb(255, 0, 255)" stroke-width="3.31" stroke-opacity="1.00" stroke-linejoin="round"/>
<path d="M199.23,204.04 C199.19,205.23 199.19,206.04 199.23,206.46 C199.37,207.86 200.86,212.75 201.28,213.77 C201.44,214.15 201.76,214.82 202.24,215.78" fill="none" stroke="rgb(255, 0, 255)" stroke-width="3.31" stroke-opacity="1.00" stroke-linejoin="round"/>
<path d="M192.29,222.34 C192.29,222.34 187.98,224.08 187.98,224.08 C190.48,224.23 207.95,217.73 210.41,217.32 C217.16,216.23 219.00,216.15 220.86,216.35 C220.40,217.45 218.85,221.15 218.65,221.84 C218.40,222.71 218.18,226.05 218.07,226.55 C217.69,228.28 214.18,228.96 208.67,229.44 C203.43,229.89 200.45,230.22 194.75,230.95 C193.46,231.10 186.57,231.70 185.35,231.81" fill="none" stroke="rgb(255, 0, 255)" stroke-width="3.31" stroke-opacity="1.00" stroke-linejoin="round"/>
<path d="M193.55,228.02 C193.35,227.96 193.14,227.96 192.92,228.02 C192.19,228.22 189.26,228.83 187.66,228.54 C186.40,228.29 182.29,223.88 179.95,220.72 C176.09,215.49 172.14,211.09 169.69,209.79 C167.66,208.76 162.24,207.33 161.67,206.94 C161.75,206.54 164.07,209.27 167.44,214.05 C169.85,217.44 170.44,220.35 170.11,220.94 C168.96,221.41 163.65,220.04 160.90,219.49 C157.39,218.81 151.41,218.23 147.65,218.20 C144.13,218.19 142.89,218.88 142.47,219.53 C143.29,221.41 157.64,230.84 165.26,235.82 C167.05,237.00 171.54,239.95 171.83,240.13 C174.94,242.13 179.60,247.33 180.93,248.85" fill="none" stroke="rgb(255, 0, 255)" stroke-width="3.31" stroke-opacity="1.00" stroke-linejoin="round"/>
<path d="M187.87,241.91 C187.87,241.91 183.61,242.54 183.61,242.54 C184.37,241.32 190.13,236.64 191.17,236.16 C191.62,235.95 192.61,235.60 194.15,235.09" fill="none" stroke="rgb(255, 0, 255)" stroke-width="3.31" stroke-opacity="1.00" stroke-linejoin="round"/>
<path d="M187.87,245.69 C187.75,245.72 187.65,245.72 187.56,245.69 C187.46,245.67 187.25,245.57 186.92,245.41 C187.04,244.21 187.61,243.42 189.20,242.49 C190.80,241.56 191.53,241.38 192.06,241.67 C193.52,245.03 191.95,253.61 191.10,257.71 C191.10,257.71 181.80,253.66 181.80,253.66 C181.80,253.66 185.35,253.90 185.35,253.90" fill="none" stroke="rgb(255, 0, 255)" stroke-width="3.31" stroke-opacity="1.00" stroke-linejoin="round"/>
<path d="M186.61,248.85 C185.35,248.85 182.87,248.85 181.67,248.85 C179.45,248.84 177.32,248.92 176.60,249.12 C175.96,249.33 174.42,251.18 173.95,252.11 C173.29,253.50 172.67,256.45 172.55,258.78 C172.38,263.18 174.20,265.73 175.37,266.83 C176.17,267.57 176.97,268.31 177.77,269.04" fill="none" stroke="rgb(255, 0, 255)" stroke-width="3.31" stroke-opacity="1.00" stroke-linejoin="round"/>
<path d="M150.01,207.83 C150.01,207.83 150.64,210.04 150.64,210.04 C150.64,210.04 150.55,210.22 150.55,210.22 C149.32,209.48 144.24,208.14 140.23,207.89 C137.72,207.76 122.51,211.23 118.04,212.61 C110.82,214.80 93.38,220.20 90.25,221.88 C85.18,224.62 72.70,233.02 69.37,235.98 C65.64,239.35 58.56,249.82 54.56,256.79 C53.67,258.37 52.16,261.02 51.55,262.10" fill="none" stroke="rgb(255, 0, 255)" stroke-width="3.31" stroke-opacity="1.00" stroke-linejoin="round"/>
<path d="M78.69,244.43 C77.17,245.00 74.87,245.77 73.80,246.01 C72.53,246.29 70.20,246.32 69.63,246.39 C67.90,246.64 58.77,260.26 54.50,266.42 C52.52,269.48 48.91,276.53 47.56,279.71 C46.00,283.42 43.82,290.59 43.03,295.05 C42.23,299.70 41.58,306.16 41.80,309.09 C42.12,312.85 42.94,317.77 43.81,320.24 C44.89,323.17 48.01,327.58 50.63,329.71 C52.66,331.32 59.08,335.05 61.98,336.41 C67.44,338.95 81.40,341.86 87.34,343.08 C88.03,343.23 88.73,343.37 89.42,343.51" fill="none" stroke="rgb(255, 0, 255)" stroke-width="3.31" stroke-opacity="1.00" stroke-linejoin="round"/>
<path d="M218.16,249.48 C215.76,250.10 214.43,250.13 213.96,249.45 C213.78,249.21 213.36,248.52 212.86,248.28 C210.77,249.03 209.55,249.71 208.33,250.97 C205.15,254.31 202.03,258.00 200.73,260.86 C200.00,262.50 199.98,263.57 200.45,264.59 C202.03,265.27 205.55,263.52 210.92,260.74" fill="none" stroke="rgb(255, 0, 255)" stroke-width="3.31" stroke-opacity="1.00" stroke-linejoin="round"/>
<path d="M227.63,245.69 C227.66,245.58 227.66,245.47 227.63,245.38 C227.60,245.28 227.49,245.07 227.31,244.75 C227.31,244.75 226.34,244.43 226.34,244.43 C224.10,245.73 220.17,251.14 218.52,253.88 C216.95,256.57 213.34,262.89 212.21,265.77 C211.65,267.21 209.39,274.48 209.12,277.20 C210.34,278.22 211.31,278.55 212.54,278.08 C214.82,277.18 220.42,272.38 222.21,270.16 C223.98,267.91 227.31,263.06 228.74,260.66 C230.06,258.40 231.54,254.70 232.05,253.27" fill="none" stroke="rgb(255, 0, 255)" stroke-width="3.31" stroke-opacity="1.00" stroke-linejoin="round"/>
<path d="M223.84,248.85 C223.33,248.86 223.01,248.86 222.90,248.85 C222.78,248.84 222.70,248.81 222.67,248.76 C223.86,247.16 225.70,245.21 226.87,244.72 C228.06,244.25 231.69,244.97 233.03,245.89 C234.33,246.84 235.56,248.62 236.79,250.96 C238.19,253.66 241.37,256.53 242.78,257.68" fill="none" stroke="rgb(255, 0, 255)" stroke-width="3.31" stroke-opacity="1.00" stroke-linejoin="round"/>
<path d="M240.88,257.68 C239.67,257.68 238.46,257.68 237.25,257.68 C234.86,257.69 232.34,258.92 230.79,261.26 C224.84,270.45 221.44,282.04 220.99,284.08 C222.39,284.34 223.37,284.25 224.57,283.58 C226.90,282.27 231.36,278.82 234.03,276.01 C238.69,271.05 241.45,266.07 241.85,265.31" fill="none" stroke="rgb(255, 0, 255)" stroke-width="3.31" stroke-opacity="1.00" stroke-linejoin="round"/>
<path d="M243.41,270.94 C242.74,270.47 241.79,269.92 241.24,269.74 C240.50,269.51 237.86,271.34 235.91,274.05 C233.56,277.37 229.88,285.78 229.64,286.60 C228.90,289.08 228.92,291.15 229.55,292.61 C230.83,293.24 232.26,293.20 234.52,292.41 C236.11,291.84 240.45,288.92 242.92,286.83 C245.46,284.65 247.92,281.54 250.26,278.25" fill="none" stroke="rgb(255, 0, 255)" stroke-width="3.31" stroke-opacity="1.00" stroke-linejoin="round"/>
<path d="M245.30,265.26 C245.30,265.26 242.91,265.26 242.91,265.26 C243.64,267.81 251.36,280.32 251.99,282.06 C252.70,284.06 252.96,286.97 252.70,289.33 C251.88,296.06 251.58,300.03 251.84,303.59 C252.14,307.93 251.83,310.72 250.93,312.25 C250.75,312.53 250.39,313.21 249.82,314.26" fill="none" stroke="rgb(255, 0, 255)" stroke-width="3.31" stroke-opacity="1.00" stroke-linejoin="round"/>
<path d="M251.61,307.54 C249.73,309.49 247.99,313.14 246.38,315.73 C245.45,317.15 243.97,318.78 242.94,319.33 C240.08,320.73 228.01,319.50 223.92,318.96 C223.39,320.58 223.31,321.76 223.76,323.90 C224.82,328.94 226.38,335.01 227.48,337.36 C229.18,340.89 232.19,344.75 234.36,345.41 C236.33,345.89 241.84,342.63 244.08,340.18 C245.87,338.14 248.11,334.50 249.00,331.92 C250.58,327.21 251.16,315.14 251.43,308.65 C251.63,303.46 252.13,294.77 252.24,293.03" fill="none" stroke="rgb(255, 0, 255)" stroke-width="3.31" stroke-opacity="1.00" stroke-linejoin="round"/>
<path d="M203.02,253.27 C203.02,253.27 204.28,252.00 204.28,252.00 C203.93,252.98 202.71,254.21 200.65,255.53 C200.00,255.95 194.37,259.83 192.54,262.09 C192.22,262.48 188.17,267.33 186.39,268.17 C184.17,269.15 177.73,269.13 173.33,268.08 C169.65,267.17 163.18,265.59 160.61,265.36 C158.17,265.18 152.34,266.57 149.51,268.50 C146.76,270.42 142.95,276.30 141.85,279.59 C140.98,282.31 140.04,289.10 140.16,291.36 C140.36,294.61 141.57,301.38 142.67,304.73 C143.79,308.07 147.22,314.68 149.11,317.16 C150.99,319.59 156.07,324.00 156.43,324.11 C156.91,324.24 158.13,324.40 160.10,324.58" fill="none" stroke="rgb(255, 0, 255)" stroke-width="3.31" stroke-opacity="1.00" stroke-linejoin="round"/>
<path d="M171.46,271.57 C171.46,271.36 171.46,271.15 171.46,270.94 C171.46,270.73 171.46,270.52 171.46,270.31 C169.81,271.12 167.29,275.07 165.13,279.86 C164.30,281.72 162.38,287.43 161.20,291.27 C159.03,298.74 157.35,306.83 156.97,308.71" fill="none" stroke="rgb(255, 0, 255)" stroke-width="3.31" stroke-opacity="1.00" stroke-linejoin="round"/>
<path d="M157.58,270.94 C157.58,270.94 154.42,270.57 154.42,270.57 C154.42,271.87 154.42,276.06 154.43,277.13 C154.48,279.33 154.88,282.74 155.32,284.74 C155.50,285.54 156.67,289.29 157.19,290.96" fill="none" stroke="rgb(255, 0, 255)" stroke-width="3.31" stroke-opacity="1.00" stroke-linejoin="round"/>
<path d="M176.51,286.71 C176.51,286.71 173.20,286.87 173.20,286.87 C172.39,287.87 172.09,288.69 172.23,289.96 C172.50,292.34 173.95,299.01 175.15,303.44 C176.84,309.51 179.22,314.92 179.73,316.05" fill="none" stroke="rgb(255, 0, 255)" stroke-width="3.31" stroke-opacity="1.00" stroke-linejoin="round"/>
<path d="M197.34,272.83 C197.34,272.83 195.13,273.04 195.13,273.04 C195.00,273.40 197.59,277.96 198.12,281.28 C198.79,285.45 199.22,289.42 199.47,293.54 C199.64,296.31 200.14,299.28 200.36,300.28" fill="none" stroke="rgb(255, 0, 255)" stroke-width="3.31" stroke-opacity="1.00" stroke-linejoin="round"/>
<path d="M193.55,288.61 C193.54,288.50 193.58,290.74 193.62,291.80 C193.79,295.95 194.88,304.27 195.01,305.05 C195.08,305.45 195.22,306.23 195.44,307.40" fill="none" stroke="rgb(255, 0, 255)" stroke-width="3.31" stroke-opacity="1.00" stroke-linejoin="round"/>
<path d="M223.21,286.08 C223.21,286.08 221.63,286.08 221.63,286.08 C221.63,286.08 221.32,286.51 221.32,286.51 C222.23,288.11 227.85,294.86 228.73,296.04 C230.78,298.80 233.73,304.61 234.49,306.70 C235.44,309.40 235.64,312.18 235.49,313.20 C235.45,313.45 235.36,313.67 235.20,313.85" fill="none" stroke="rgb(255, 0, 255)" stroke-width="3.31" stroke-opacity="1.00" stroke-linejoin="round"/>
<path d="M241.51,294.29 C240.88,294.29 240.25,294.29 239.62,294.29 C238.36,294.29 236.78,294.29 236.47,294.29 C237.99,294.29 241.46,295.45 243.34,298.77 C244.17,300.28 246.05,305.26 246.39,306.35 C246.45,306.54 246.50,306.72 246.56,306.91" fill="none" stroke="rgb(255, 0, 255)" stroke-width="3.31" stroke-opacity="1.00" stroke-linejoin="round"/>
<path d="M237.73,316.38 C237.73,316.38 235.00,318.27 235.00,318.27 C234.00,318.40 226.55,320.80 223.04,320.86 C215.99,320.94 209.40,318.94 207.97,319.28 C205.72,319.88 197.40,326.25 196.99,326.53 C195.03,327.82 188.09,329.41 185.77,329.77 C182.22,330.30 175.98,330.45 173.67,330.21 C170.48,329.83 165.58,328.09 162.71,325.91 C161.75,325.18 156.97,321.41 155.45,320.78 C155.16,320.66 154.60,320.46 153.79,320.16" fill="none" stroke="rgb(255, 0, 255)" stroke-width="3.31" stroke-opacity="1.00" stroke-linejoin="round"/>
<path d="M162.00,328.37 C162.03,327.95 161.90,327.20 161.68,326.79 C161.60,326.63 161.33,326.26 161.36,325.84 C156.51,331.54 146.57,343.08 143.20,345.13 C139.13,347.53 133.87,349.03 130.07,349.26 C127.92,349.36 124.35,348.33 122.87,347.93" fill="none" stroke="rgb(255, 0, 255)" stroke-width="3.31" stroke-opacity="1.00" stroke-linejoin="round"/>
<path d="M170.20,330.26 C170.20,330.26 169.57,330.26 169.57,330.26 C168.36,331.30 162.53,337.33 159.77,339.79 C158.08,341.27 155.54,343.32 154.67,343.78 C153.36,344.47 151.58,344.83 150.64,344.78" fill="none" stroke="rgb(255, 0, 255)" stroke-width="3.31" stroke-opacity="1.00" stroke-linejoin="round"/>
<path d="M120.97,313.85 C120.97,313.85 120.97,314.48 120.97,314.48 C118.12,315.77 102.35,323.56 95.67,325.43 C91.48,326.59 86.11,327.60 84.04,327.70 C84.04,327.70 86.26,327.10 86.26,327.10" fill="none" stroke="rgb(255, 0, 255)" stroke-width="3.31" stroke-opacity="1.00" stroke-linejoin="round"/>
<path d="M95.73,301.86 C95.73,301.86 91.99,299.34 91.99,299.34 C96.07,299.33 101.27,298.78 105.30,297.84 C108.54,297.07 123.35,292.99 124.02,293.16 C124.02,293.16 121.61,294.92 121.61,294.92" fill="none" stroke="rgb(255, 0, 255)" stroke-width="3.31" stroke-opacity="1.00" stroke-linejoin="round"/>
<path d="M102.67,285.45 C102.67,285.45 99.52,286.71 99.52,286.71 C103.86,286.67 107.63,286.17 109.93,285.49 C115.46,283.81 120.91,279.70 122.06,278.81 C122.06,278.81 120.95,277.82 120.95,277.82" fill="none" stroke="rgb(255, 0, 255)" stroke-width="3.31" stroke-opacity="1.00" stroke-linejoin="round"/>
<path d="M96.36,284.82 C96.36,284.82 92.71,282.61 92.71,282.61 C93.21,282.16 93.64,281.90 93.99,281.81 C94.47,281.70 107.82,281.29 119.07,279.72 C122.30,279.29 127.07,279.56 128.66,280.69 C129.12,281.02 131.47,283.11 132.69,284.19 C132.69,284.19 131.84,284.72 131.84,284.72" fill="none" stroke="rgb(255, 0, 255)" stroke-width="3.31" stroke-opacity="1.00" stroke-linejoin="round"/>
<path d="M126.02,284.19 C126.02,284.19 124.62,284.19 124.62,284.19 C124.62,284.19 124.20,284.97 124.20,284.97 C124.20,284.97 140.16,286.11 140.16,286.11 C140.16,286.11 139.99,286.60 139.99,286.60" fill="none" stroke="rgb(255, 0, 255)" stroke-width="3.31" stroke-opacity="1.00" stroke-linejoin="round"/>
<path d="M139.91,294.92 C138.44,296.28 137.78,296.79 137.07,296.81 C135.96,296.85 135.09,296.81 134.45,296.69 C133.89,296.59 132.75,296.28 131.01,295.76" fill="none" stroke="rgb(255, 0, 255)" stroke-width="3.31" stroke-opacity="1.00" stroke-linejoin="round"/>
<path d="M136.75,276.62 C135.04,276.63 133.91,276.61 133.38,276.56 C125.45,275.26 116.88,274.74 109.05,272.93 C104.06,271.79 98.05,270.90 94.49,270.92 C87.87,271.07 67.21,271.48 66.63,271.49 C65.39,271.52 64.15,271.54 62.91,271.57" fill="none" stroke="rgb(255, 0, 255)" stroke-width="3.31" stroke-opacity="1.00" stroke-linejoin="round"/>
<path d="M107.09,235.60 C107.09,235.60 103.30,235.60 103.30,235.60 C108.84,235.67 113.88,235.94 116.96,236.80 C122.50,238.41 135.43,245.63 139.50,248.75 C142.16,250.81 147.14,256.18 148.21,257.80 C149.15,259.26 151.03,262.90 151.21,263.88 C151.29,264.33 151.31,265.21 151.27,266.52" fill="none" stroke="rgb(255, 0, 255)" stroke-width="3.31" stroke-opacity="1.00" stroke-linejoin="round"/>
<path d="M118.45,267.15 C118.45,267.15 115.93,265.89 115.93,265.89 C117.58,263.48 128.77,254.02 134.12,249.55 C141.77,243.30 145.82,240.48 149.14,238.43 C151.32,237.09 152.43,236.81 153.40,237.17 C153.40,237.17 151.46,240.34 151.46,240.34" fill="none" stroke="rgb(255, 0, 255)" stroke-width="3.31" stroke-opacity="1.00" stroke-linejoin="round"/>
<path d="M149.37,248.22 C149.37,248.22 146.85,245.69 146.85,245.69 C147.00,246.33 151.06,248.02 154.62,248.64 C158.06,249.19 163.35,250.02 164.03,250.14 C164.49,250.23 165.50,250.43 167.04,250.74" fill="none" stroke="rgb(255, 0, 255)" stroke-width="3.31" stroke-opacity="1.00" stroke-linejoin="round"/>
<path d="M248.46,221.71 C246.72,220.80 245.67,220.22 245.30,219.98 C244.93,219.73 244.72,219.47 244.67,219.19 C246.82,221.80 249.87,223.72 254.18,225.76 C258.58,227.81 269.27,231.60 270.36,231.55 C270.73,231.52 273.46,230.87 274.96,230.55" fill="none" stroke="rgb(255, 0, 255)" stroke-width="3.31" stroke-opacity="1.00" stroke-linejoin="round"/>
<path d="M252.24,233.07 C252.24,233.07 250.98,229.92 250.98,229.92 C259.42,233.33 271.63,239.71 272.63,239.75 C273.66,239.78 276.59,239.57 278.75,239.38" fill="none" stroke="rgb(255, 0, 255)" stroke-width="3.31" stroke-opacity="1.00" stroke-linejoin="round"/>
<path d="M304.62,161.76 C304.62,161.76 303.68,161.13 303.68,161.13 C303.46,162.34 304.20,176.62 304.40,187.49 C304.33,201.78 301.69,233.61 301.57,236.44 C301.57,236.44 302.59,237.49 302.59,237.49" fill="none" stroke="rgb(255, 0, 255)" stroke-width="3.31" stroke-opacity="1.00" stroke-linejoin="round"/>
<path d="M255.40,331.52 C255.39,331.72 244.98,342.93 242.18,344.02 C236.38,346.24 228.05,351.40 223.41,352.30 C219.85,352.95 175.94,352.60 167.51,353.13 C147.82,354.76 130.89,354.91 126.69,354.14 C124.71,353.76 118.52,351.97 113.88,351.25 C108.47,350.41 94.89,343.99 94.16,343.83 C92.29,343.44 90.15,343.34 87.02,343.46 C86.19,343.50 82.55,343.51 81.22,343.51" fill="none" stroke="rgb(255, 0, 255)" stroke-width="3.31" stroke-opacity="1.00" stroke-linejoin="round"/>
<path d="M253.51,323.95 C253.42,324.22 253.31,324.43 253.19,324.58 C253.07,324.73 252.75,325.05 252.24,325.53 C252.16,327.27 254.99,337.93 255.68,346.97 C256.55,358.62 258.29,372.45 258.45,376.67 C258.54,379.30 258.57,397.23 258.59,403.75 C258.66,407.75 259.38,418.14 259.12,421.44 C259.05,422.25 258.67,425.76 258.55,426.82" fill="none" stroke="rgb(255, 0, 255)" stroke-width="3.31" stroke-opacity="1.00" stroke-linejoin="round"/>
<path d="M258.55,424.92 C258.58,425.15 258.35,425.91 258.30,426.25 C258.03,428.11 257.87,431.18 257.89,433.70 C254.64,433.08 242.69,431.76 233.21,430.32 C221.74,428.53 214.52,427.75 204.80,427.95 C196.53,428.10 177.52,428.38 175.56,428.22 C159.53,426.91 131.00,422.31 121.14,418.92 C118.32,417.92 101.86,410.25 97.38,409.37 C95.38,409.00 92.09,409.08 90.68,409.15" fill="none" stroke="rgb(255, 0, 255)" stroke-width="3.31" stroke-opacity="1.00" stroke-linejoin="round"/>
<path d="M104.57,349.19 C104.57,349.19 104.57,348.56 104.57,348.56 C103.70,350.02 102.59,354.45 101.65,358.67 C95.81,385.34 92.76,396.77 91.14,401.57 C91.04,401.87 90.84,402.42 90.55,403.21" fill="none" stroke="rgb(255, 0, 255)" stroke-width="3.31" stroke-opacity="1.00" stroke-linejoin="round"/>
<path d="M252.24,388.95 C251.05,388.33 250.48,387.86 249.40,386.63 C248.68,385.85 244.51,385.79 237.39,385.38 C233.17,385.17 225.53,385.06 225.31,384.96 C224.40,384.54 217.65,380.92 215.15,380.15 C210.92,378.87 197.44,378.22 191.45,377.61 C184.42,377.05 165.44,375.41 161.68,374.75 C158.76,374.24 105.91,362.00 105.84,361.98 C101.65,361.14 89.46,360.37 79.07,359.26 C75.10,358.82 67.89,358.68 66.07,358.66" fill="none" stroke="rgb(255, 0, 255)" stroke-width="3.31" stroke-opacity="1.00" stroke-linejoin="round"/>
<path d="M82.48,344.78 C81.64,344.78 80.79,344.78 79.95,344.78 C79.53,344.78 79.11,344.78 78.69,344.78 C78.77,345.64 77.54,351.58 76.43,354.58 C74.60,359.46 63.16,378.90 60.69,382.52 C51.21,395.92 46.46,407.97 45.43,411.43 C47.66,413.90 71.92,419.20 73.27,419.52 C75.81,420.11 82.33,421.85 84.37,422.40" fill="none" stroke="rgb(255, 0, 255)" stroke-width="3.31" stroke-opacity="1.00" stroke-linejoin="round"/>
<path d="M88.79,416.09 C87.61,416.18 85.70,415.64 84.99,415.46 C82.84,414.88 79.77,413.16 78.04,411.24 C77.84,411.01 61.75,392.49 58.75,389.55 C56.27,386.81 54.88,383.92 54.66,380.33 C54.65,380.15 54.26,371.44 54.66,369.59 C55.29,366.89 57.13,362.98 59.00,360.73 C60.71,358.71 64.25,355.40 68.40,351.70 C70.88,349.46 73.52,346.62 76.17,343.51" fill="none" stroke="rgb(255, 0, 255)" stroke-width="3.31" stroke-opacity="1.00" stroke-linejoin="round"/>
<path d="M64.81,383.90 C64.81,383.90 61.74,382.89 61.74,382.89 C61.50,387.00 62.81,406.80 62.78,410.86 C62.77,412.57 62.54,413.98 62.18,415.32 C62.18,415.32 61.13,413.84 61.13,413.84" fill="none" stroke="rgb(255, 0, 255)" stroke-width="3.31" stroke-opacity="1.00" stroke-linejoin="round"/>
<path d="M182.19,356.14 C181.21,356.37 179.48,356.90 179.04,357.40 C178.38,358.15 178.14,360.32 178.42,361.78 C179.75,367.11 182.56,379.12 182.97,386.07 C183.37,393.45 181.80,405.40 179.73,412.93 C179.34,414.25 178.19,417.99 177.68,418.66 C177.37,419.07 176.56,419.90 175.25,421.14" fill="none" stroke="rgb(255, 0, 255)" stroke-width="3.31" stroke-opacity="1.00" stroke-linejoin="round"/>
<path d="M196.08,356.14 C196.08,356.14 193.55,357.08 193.55,357.08 C192.94,357.83 192.90,359.18 193.55,361.92 C195.31,369.32 197.30,383.41 197.71,389.87 C197.97,394.20 198.46,415.34 198.12,420.81 C197.97,423.21 197.17,429.64 195.78,432.18 C195.78,432.18 193.99,432.07 193.99,432.07" fill="none" stroke="rgb(255, 0, 255)" stroke-width="3.31" stroke-opacity="1.00" stroke-linejoin="round"/>
<path d="M194.81,378.22 C194.81,378.22 194.50,378.22 194.50,378.22 C194.50,378.22 193.87,377.59 193.87,377.59 C193.59,377.74 189.44,386.32 188.79,387.61 C188.13,388.90 187.15,391.31 186.61,392.74" fill="none" stroke="rgb(255, 0, 255)" stroke-width="3.31" stroke-opacity="1.00" stroke-linejoin="round"/>
<path d="M191.66,400.94 C190.38,401.57 188.42,402.68 187.59,403.40 C186.75,404.13 185.21,406.06 184.28,407.35 C184.28,407.35 197.76,399.75 197.76,399.75 C197.76,399.75 185.99,413.95 185.99,413.95 C187.76,414.34 189.00,414.20 190.61,413.27 C191.70,412.65 192.42,412.27 192.80,412.12 C193.17,411.97 193.84,411.77 194.81,411.54 C194.81,411.54 192.05,414.58 192.05,414.58" fill="none" stroke="rgb(255, 0, 255)" stroke-width="3.31" stroke-opacity="1.00" stroke-linejoin="round"/>
<path d="M245.30,436.28 C244.09,436.78 241.90,438.95 240.95,439.66 C239.69,440.59 236.91,441.73 235.80,441.81 C232.21,442.00 216.97,441.82 209.38,440.69 C202.62,439.75 183.17,439.49 179.89,439.31 C175.56,439.05 169.67,437.99 165.16,436.60 C161.11,435.33 140.07,429.48 138.56,429.09 C130.67,426.93 114.13,423.83 110.43,422.91 C106.30,421.87 99.01,419.30 97.28,418.47 C95.31,417.52 92.19,415.53 91.41,415.16 C91.13,415.04 90.68,414.92 90.05,414.83" fill="none" stroke="rgb(255, 0, 255)" stroke-width="3.31" stroke-opacity="1.00" stroke-linejoin="round"/>
<path d="M78.06,417.98 C77.96,417.50 77.85,417.08 77.74,416.72 C77.64,416.36 77.37,415.58 76.96,414.35" fill="none" stroke="rgb(255, 0, 255)" stroke-width="3.31" stroke-opacity="1.00" stroke-linejoin="round"/>
<path d="M81.85,407.25 C80.14,407.80 78.77,408.22 78.53,408.60 C77.68,409.96 74.03,417.07 72.84,419.61 C72.05,421.31 69.01,428.20 67.96,430.60" fill="none" stroke="rgb(255, 0, 255)" stroke-width="3.31" stroke-opacity="1.00" stroke-linejoin="round"/>
<path d="M87.53,419.88 C86.68,419.88 85.84,419.88 85.00,419.88 C84.61,419.88 84.22,419.88 83.82,419.88 C84.57,419.96 99.98,426.71 106.70,428.93 C112.68,430.91 125.08,436.01 131.48,436.19 C138.20,436.28 150.60,438.24 153.69,438.74 C161.00,439.82 176.66,442.11 185.00,443.32 C195.44,444.81 205.88,445.47 212.76,445.87 C221.59,446.48 231.98,449.05 237.18,450.42 C244.91,452.21 259.71,455.86 259.82,455.85 C256.90,450.35 255.47,430.33 255.40,429.21 C255.40,429.21 255.40,439.68 255.40,439.68" fill="none" stroke="rgb(255, 0, 255)" stroke-width="3.31" stroke-opacity="1.00" stroke-linejoin="round"/>
<path d="M177.14,476.04 C177.14,476.04 174.62,478.19 174.62,478.19 C174.79,479.72 177.66,494.44 178.40,503.03 C178.80,507.86 179.31,525.27 179.29,532.70 C178.98,547.16 176.47,574.53 175.46,584.75 C175.46,584.75 175.25,580.81 175.25,580.81" fill="none" stroke="rgb(255, 0, 255)" stroke-width="3.31" stroke-opacity="1.00" stroke-linejoin="round"/>
<path d="M170.83,490.56 C170.83,490.56 169.88,491.31 169.88,491.31 C169.58,491.98 171.33,508.75 171.34,513.27 C171.34,520.03 170.13,534.99 168.51,542.46 C165.68,555.34 159.05,572.26 157.26,575.13 C157.26,575.13 158.68,571.13 158.68,571.13" fill="none" stroke="rgb(255, 0, 255)" stroke-width="3.31" stroke-opacity="1.00" stroke-linejoin="round"/>
<path d="M174.62,508.23 C173.89,508.88 173.06,510.02 172.91,510.98 C172.76,512.05 174.09,530.51 173.75,537.86 C173.44,543.94 171.72,552.31 171.50,553.38 C170.37,549.45 169.44,544.51 169.27,541.51 C169.06,537.40 168.95,495.23 168.94,482.44 C167.09,487.71 149.26,526.90 145.10,534.02 C140.30,542.09 135.83,548.22 129.27,556.32 C123.79,562.82 119.72,566.37 119.08,566.92" fill="none" stroke="rgb(255, 0, 255)" stroke-width="3.31" stroke-opacity="1.00" stroke-linejoin="round"/>
<path d="M71.12,418.61 C71.12,418.61 71.12,418.93 71.12,418.93 C71.02,419.05 70.92,419.16 70.80,419.25 C70.68,419.33 70.39,419.52 69.92,419.81 C69.61,424.04 67.58,433.03 64.72,440.85 C52.44,473.68 25.38,526.57 23.79,529.57 C24.62,528.15 25.19,527.19 25.50,526.71 C25.81,526.23 26.29,525.54 26.94,524.64" fill="none" stroke="rgb(255, 0, 255)" stroke-width="3.31" stroke-opacity="1.00" stroke-linejoin="round"/>
<path d="M232.68,484.88 C231.75,484.78 230.85,485.81 228.63,490.01 C223.22,500.48 218.56,508.29 213.63,514.04 C212.05,515.88 205.62,522.83 203.01,525.63 C204.34,524.75 207.06,522.24 211.10,518.10 C213.78,515.33 217.31,511.65 218.16,510.75" fill="none" stroke="rgb(255, 0, 255)" stroke-width="3.31" stroke-opacity="1.00" stroke-linejoin="round"/>
<path d="M223.21,504.44 C224.29,503.00 227.26,499.02 227.63,498.45 C227.87,498.08 228.08,497.66 228.26,497.19 C228.26,497.19 228.18,496.87 228.18,496.87 C228.18,496.87 227.42,496.92 227.42,496.92 C225.72,498.28 222.23,507.73 218.97,517.83 C216.82,524.32 212.50,537.12 209.93,542.78 C209.04,544.74 204.86,553.45 204.57,554.25 C203.84,556.22 202.77,561.15 201.06,565.40 C199.58,569.04 197.57,573.99 197.03,575.30 C197.96,570.90 201.80,561.72 205.99,552.81 C209.17,546.37 215.50,533.61 218.85,526.61 C223.01,517.65 225.66,506.39 228.50,498.20 C229.75,494.66 231.61,489.49 232.59,487.11 C232.65,486.97 232.71,486.78 232.79,486.55" fill="none" stroke="rgb(255, 0, 255)" stroke-width="3.31" stroke-opacity="1.00" stroke-linejoin="round"/>
<path d="M242.78,455.22 C239.05,453.65 236.27,451.96 235.83,450.17 C235.79,449.97 235.79,449.68 235.83,449.29 C235.69,473.18 236.64,481.77 237.34,483.85 C238.44,483.98 244.12,467.96 244.42,467.13 C244.42,467.13 246.69,474.80 246.69,474.80" fill="none" stroke="rgb(255, 0, 255)" stroke-width="3.31" stroke-opacity="1.00" stroke-linejoin="round"/>
</g>
</svg>
