<?xml version="1.0" encoding="UTF-8" standalone="no"?>
<!DOCTYPE svg PUBLIC "-//W3C//DTD SVG 1.1//EN" "http://www.w3.org/Graphics/SVG/1.1/DTD/svg11.dtd">
<svg width="128.40" height="181.68" viewBox="0.00 0.00 535.00 757.00" xmlns="http://www.w3.org/2000/svg" xmlns:xlink="http://www.w3.org/1999/xlink">
<g stroke-linecap="round" transform="translate(44.00, 155.00)" id="152-사람">
<path d="M177.51,143.86 C175.84,144.69 175.39,145.29 174.93,148.33 C174.86,148.73 169.16,170.10 169.05,170.78 C167.45,180.37 165.98,183.91 165.75,184.16 C166.03,178.35 166.51,165.23 165.66,159.61 C165.18,156.48 164.19,149.69 164.22,146.55 C164.29,143.21 165.23,138.63 166.64,135.69 C167.99,132.96 171.43,128.48 173.78,126.92 C176.26,125.33 182.63,123.13 186.70,122.49 C193.31,121.50 210.74,122.81 214.78,123.74 C217.21,124.32 223.55,127.38 225.90,128.80 C227.56,129.83 229.72,131.76 230.47,133.05 C231.80,135.39 232.83,140.24 233.06,142.57 C235.10,166.39 235.68,189.63 235.19,190.92 C234.37,188.17 230.49,170.65 228.65,164.72 C227.03,159.70 223.05,149.03 222.55,148.37 C222.11,148.56 219.10,152.12 217.14,154.10 C214.36,156.90 210.61,159.95 208.00,161.34 C203.35,163.78 199.01,164.97 198.12,165.12 C201.98,160.09 202.59,153.03 202.56,151.83 C200.63,151.86 195.99,154.19 193.42,155.33 C191.04,156.36 187.23,156.88 186.54,156.57 C186.51,156.56 185.55,156.11 183.67,155.23" fill="none" stroke="rgb(0, 255, 0)" stroke-width="2.53" stroke-opacity="1.00" stroke-linejoin="round"/>
<path d="M191.25,147.65 C191.25,147.65 188.95,148.12 188.95,148.12 C188.95,149.41 185.76,152.62 184.11,153.87 C183.12,154.60 175.24,159.40 174.53,159.87 C174.12,160.14 173.37,160.65 172.30,161.39" fill="none" stroke="rgb(0, 255, 0)" stroke-width="2.53" stroke-opacity="1.00" stroke-linejoin="round"/>
<path d="M170.40,177.98 C169.69,178.53 168.98,179.08 168.27,179.64 C168.19,179.70 167.96,179.88 168.03,179.81 C168.93,179.10 169.55,178.75 169.89,178.78 C170.79,178.86 172.85,180.85 174.72,181.55 C179.47,183.36 184.14,184.45 188.25,184.30 C194.28,184.05 210.19,181.08 213.67,179.75 C217.18,178.44 224.29,175.80 226.64,174.17 C226.96,173.94 227.33,173.63 227.74,173.24" fill="none" stroke="rgb(0, 255, 0)" stroke-width="2.53" stroke-opacity="1.00" stroke-linejoin="round"/>
<path d="M214.00,166.13 C213.76,166.49 213.52,166.85 213.29,167.21 C213.19,167.35 213.12,167.47 213.05,167.55 C212.47,166.35 208.74,165.53 206.14,165.79 C205.86,165.83 205.54,165.89 205.20,165.99 C205.20,165.99 204.99,167.08 204.99,167.08" fill="none" stroke="rgb(0, 255, 0)" stroke-width="2.53" stroke-opacity="1.00" stroke-linejoin="round"/>
<path d="M212.58,165.66 C212.51,165.74 212.43,165.82 212.34,165.89 C212.25,165.96 212.03,166.12 211.68,166.37 C211.71,166.73 219.78,168.78 220.09,168.92 C220.32,169.03 220.66,169.20 221.11,169.45" fill="none" stroke="rgb(0, 255, 0)" stroke-width="2.53" stroke-opacity="1.00" stroke-linejoin="round"/>
<path d="M211.16,168.50 C211.16,168.50 210.92,168.50 210.92,168.50 C210.92,168.50 210.68,168.26 210.68,168.26 C210.68,168.26 210.68,168.03 210.68,168.03 C210.68,168.03 212.00,176.92 212.00,176.92 C212.00,176.92 211.42,168.66 211.42,168.66 C209.24,170.19 210.63,175.81 211.07,176.66 C212.37,176.52 213.12,175.89 213.31,174.44 C213.61,172.10 213.33,168.73 212.51,168.06 C210.17,170.02 211.74,174.60 212.11,175.18 C213.64,174.24 213.19,170.68 212.95,170.18 C212.95,170.18 211.16,171.82 211.16,171.82" fill="none" stroke="rgb(0, 255, 0)" stroke-width="2.53" stroke-opacity="1.00" stroke-linejoin="round"/>
<path d="M190.78,164.71 C190.78,164.71 190.78,166.13 190.78,166.13 C190.78,166.13 191.22,164.04 191.22,164.04 C188.93,163.41 187.60,163.24 186.38,163.55 C182.17,164.63 174.96,167.87 174.66,168.06 C174.50,168.16 174.34,168.30 174.19,168.50" fill="none" stroke="rgb(0, 255, 0)" stroke-width="2.53" stroke-opacity="1.00" stroke-linejoin="round"/>
<path d="M186.04,165.66 C185.43,165.63 185.03,165.63 184.86,165.66 C184.68,165.68 184.46,165.76 184.21,165.89 C184.21,165.89 183.96,176.13 183.96,176.13 C184.96,175.92 185.54,175.26 185.86,173.64 C186.45,170.61 186.23,166.59 185.33,165.75 C184.20,166.18 182.72,170.57 182.99,173.03 C183.13,174.21 183.64,175.24 184.27,175.96 C185.94,174.78 186.69,173.65 186.68,171.93 C186.66,168.97 185.93,167.56 185.37,167.09 C184.25,167.78 183.76,172.59 184.58,174.81 C186.08,173.70 186.83,172.25 186.75,170.13 C186.69,168.49 186.17,167.41 185.42,166.82 C184.90,167.28 184.31,168.58 183.53,171.15 C183.31,171.87 182.53,174.63 182.25,175.61" fill="none" stroke="rgb(0, 255, 0)" stroke-width="2.53" stroke-opacity="1.00" stroke-linejoin="round"/>
<path d="M196.94,177.50 C196.01,178.15 195.46,178.55 195.28,178.69 C195.10,178.83 195.04,178.91 195.10,178.93 C196.82,179.01 201.58,177.81 203.19,176.70 C203.48,176.49 203.76,176.29 204.05,176.08" fill="none" stroke="rgb(0, 255, 0)" stroke-width="2.53" stroke-opacity="1.00" stroke-linejoin="round"/>
<path d="M185.09,167.55 C185.09,167.55 183.91,167.32 183.91,167.32 C183.91,167.32 183.67,165.22 183.67,165.22 C183.67,165.22 184.40,174.97 184.40,174.97 C184.40,174.97 184.58,168.59 184.58,168.59 C183.47,168.91 182.87,169.75 182.68,171.58 C182.41,174.45 183.00,175.94 183.42,176.36 C185.96,175.41 184.27,168.90 183.99,168.57 C183.84,169.02 183.75,169.36 183.72,169.59 C183.69,169.81 183.67,170.24 183.67,170.87" fill="none" stroke="rgb(0, 255, 0)" stroke-width="2.53" stroke-opacity="1.00" stroke-linejoin="round"/>
<path d="M193.62,186.98 C193.62,186.98 192.67,185.61 192.67,185.61 C192.67,186.94 192.67,189.74 192.67,191.20 C192.67,191.69 192.67,192.18 192.67,192.67" fill="none" stroke="rgb(0, 255, 0)" stroke-width="2.53" stroke-opacity="1.00" stroke-linejoin="round"/>
<path d="M201.20,183.19 C200.95,183.45 200.71,183.69 200.49,183.90 C200.27,184.11 199.76,184.58 198.95,185.32 C198.87,186.41 199.74,190.32 199.71,190.46 C199.69,190.58 199.58,190.84 199.38,191.23" fill="none" stroke="rgb(0, 255, 0)" stroke-width="2.53" stroke-opacity="1.00" stroke-linejoin="round"/>
<path d="M199.31,191.25 C198.39,191.78 197.84,192.10 197.65,192.19 C197.46,192.29 197.38,192.29 197.41,192.19 C194.44,192.18 191.99,192.23 190.89,192.56 C190.44,192.69 186.40,194.10 183.67,194.69 C177.48,196.02 163.96,195.99 162.01,195.83 C159.33,195.60 156.34,194.43 153.24,192.04 C152.28,191.29 151.28,190.93 150.54,190.90 C149.71,191.86 148.78,193.89 148.34,195.95 C148.15,196.83 148.52,198.57 148.87,199.20 C149.82,200.67 154.91,202.71 159.24,203.44 C178.34,206.54 188.49,203.48 188.84,203.22 C188.84,203.22 188.88,203.09 188.88,203.09" fill="none" stroke="rgb(0, 255, 0)" stroke-width="2.53" stroke-opacity="1.00" stroke-linejoin="round"/>
<path d="M188.88,206.41 C188.55,206.02 188.31,205.78 188.17,205.70 C188.03,205.62 187.80,205.58 187.46,205.59 C189.84,216.97 189.29,230.87 188.88,234.88 C188.88,234.88 209.76,235.85 209.76,235.85 C210.49,235.93 210.51,227.39 210.44,224.91 C209.97,209.18 209.90,208.08 209.73,206.65 C215.00,219.17 217.37,232.70 217.47,233.21 C224.36,233.85 227.33,232.39 227.71,231.60 C226.74,229.27 219.74,215.67 217.11,211.84 C210.36,202.11 205.74,196.39 201.26,192.81 C200.76,192.42 200.25,192.04 199.77,191.63 C199.57,191.47 199.26,191.18 198.83,190.77" fill="none" stroke="rgb(0, 255, 0)" stroke-width="2.53" stroke-opacity="1.00" stroke-linejoin="round"/>
<path d="M219.68,235.79 C219.68,235.79 218.26,235.32 218.26,235.32 C217.69,236.50 218.07,240.99 219.49,243.97 C220.82,246.61 222.09,247.38 223.17,247.63 C224.97,247.13 227.48,244.10 228.08,242.08 C228.30,241.22 228.43,239.04 228.21,238.03 C227.71,235.93 226.78,233.71 225.90,232.46 C225.60,232.05 225.26,231.57 224.90,231.05" fill="none" stroke="rgb(0, 255, 0)" stroke-width="2.53" stroke-opacity="1.00" stroke-linejoin="round"/>
<path d="M191.73,239.11 C191.73,239.11 190.64,238.97 190.64,238.97 C190.64,238.97 190.76,234.20 190.76,234.20 C189.45,241.04 186.45,257.98 186.85,261.69 C187.18,264.35 187.93,265.69 188.52,266.10 C191.35,265.92 197.34,264.59 197.85,264.06 C198.99,262.84 199.29,257.51 199.32,254.13 C199.37,247.55 199.48,242.91 199.62,241.07 C199.62,241.07 204.63,265.11 204.63,265.11 C204.63,265.11 214.97,262.46 214.97,262.46 C214.97,262.46 208.63,232.38 208.63,232.38 C208.61,233.02 208.61,233.53 208.62,233.92 C208.64,234.30 208.69,235.08 208.79,236.26" fill="none" stroke="rgb(0, 255, 0)" stroke-width="2.53" stroke-opacity="1.00" stroke-linejoin="round"/>
<path d="M206.42,266.59 C206.18,266.59 205.94,266.59 205.71,266.59 C205.63,266.59 205.55,266.59 205.47,266.59 C205.47,266.59 209.26,295.80 209.26,295.80 C209.26,295.80 209.26,294.55 209.26,294.55" fill="none" stroke="rgb(0, 255, 0)" stroke-width="2.53" stroke-opacity="1.00" stroke-linejoin="round"/>
<path d="M211.63,264.22 C211.63,264.22 210.68,264.22 210.68,264.22 C210.68,264.22 213.95,297.84 213.95,297.84 C213.95,297.84 213.52,295.50 213.52,295.50" fill="none" stroke="rgb(0, 255, 0)" stroke-width="2.53" stroke-opacity="1.00" stroke-linejoin="round"/>
<path d="M213.52,301.66 C213.05,301.17 212.76,300.80 212.66,300.53 C212.55,300.27 212.49,299.75 212.46,298.98 C211.87,298.60 210.80,298.32 209.98,298.60 C207.12,299.64 205.55,302.81 205.33,304.31 C205.33,304.31 206.67,305.63 206.67,305.63 C208.62,305.65 210.91,305.08 212.36,303.95 C214.56,302.22 214.94,299.87 214.98,299.50 C214.08,298.59 213.43,297.99 213.06,297.69 C212.68,297.39 212.05,296.98 211.16,296.45" fill="none" stroke="rgb(0, 255, 0)" stroke-width="2.53" stroke-opacity="1.00" stroke-linejoin="round"/>
<path d="M192.67,263.27 C192.67,263.27 191.96,263.27 191.96,263.27 C191.96,263.27 191.81,293.91 191.81,293.91 C191.81,293.91 193.00,289.42 193.00,289.42" fill="none" stroke="rgb(0, 255, 0)" stroke-width="2.53" stroke-opacity="1.00" stroke-linejoin="round"/>
<path d="M195.04,263.27 C195.04,263.27 194.33,263.27 194.33,263.27 C194.00,263.20 194.11,266.63 194.39,271.92 C194.97,282.88 195.06,288.42 195.03,295.91 C193.93,295.32 191.02,296.61 189.24,298.44 C188.16,299.56 187.33,300.85 186.03,303.26 C187.35,304.15 188.35,304.47 189.84,304.31 C193.07,303.92 197.21,302.24 197.77,300.75 C198.21,299.32 196.35,295.84 195.13,293.95 C194.85,293.52 194.35,292.78 193.62,291.71" fill="none" stroke="rgb(0, 255, 0)" stroke-width="2.53" stroke-opacity="1.00" stroke-linejoin="round"/>
</g>
</svg>
