<?xml version="1.0" encoding="UTF-8" standalone="no"?>
<!DOCTYPE svg PUBLIC "-//W3C//DTD SVG 1.1//EN" "http://www.w3.org/Graphics/SVG/1.1/DTD/svg11.dtd">
<svg width="128.40" height="181.68" viewBox="0.00 0.00 535.00 757.00" xmlns="http://www.w3.org/2000/svg" xmlns:xlink="http://www.w3.org/1999/xlink">
<g stroke-linecap="round" id="155-사람-1">
<path d="M169.48,379.34 C169.48,379.81 169.48,380.36 169.48,380.45 C169.55,386.22 171.12,396.27 174.00,405.46 C175.84,411.51 178.82,421.59 179.12,422.13 C179.33,422.50 179.89,423.30 180.80,424.55" fill="none" stroke="rgb(255, 0, 255)" stroke-width="2.34" stroke-opacity="1.00" stroke-linejoin="round"/>
<path d="M174.79,379.34 C174.75,379.53 174.04,380.33 173.82,380.69 C173.21,381.77 173.91,385.54 174.79,391.11 C175.85,398.13 178.04,408.21 179.17,413.93 C180.09,418.53 182.61,427.22 184.18,429.89 C184.75,430.85 190.52,435.39 192.07,436.42 C194.55,438.04 199.35,440.00 202.51,440.85 C205.70,441.68 211.04,441.83 213.11,441.01 C213.43,440.88 221.26,437.22 224.29,435.94 C227.11,434.62 231.46,430.34 232.63,427.88 C235.99,420.58 236.37,398.42 236.13,386.89 C236.05,383.61 235.56,379.37 235.28,377.21" fill="none" stroke="rgb(255, 0, 255)" stroke-width="2.34" stroke-opacity="1.00" stroke-linejoin="round"/>
<path d="M235.99,374.74 C235.99,374.74 235.99,374.09 235.99,374.09 C238.28,381.50 239.53,390.69 239.53,400.35 C239.52,413.19 238.99,419.06 237.05,422.86 C236.55,423.83 235.33,425.68 234.01,427.51 C233.17,428.67 232.03,430.23 231.74,430.63" fill="none" stroke="rgb(255, 0, 255)" stroke-width="2.34" stroke-opacity="1.00" stroke-linejoin="round"/>
<path d="M235.64,391.01 C235.51,391.43 235.21,391.85 235.20,391.86 C235.02,392.56 234.55,394.42 233.92,394.83 C233.11,395.35 232.53,395.51 232.11,395.40 C230.51,394.07 228.82,385.47 227.86,378.49 C227.86,382.94 226.68,389.06 225.17,391.64 C224.40,392.93 223.14,394.11 221.96,394.89 C221.96,394.89 220.58,394.87 220.58,394.87 C218.11,392.96 214.98,385.30 214.73,384.44 C214.93,385.01 213.81,388.62 211.85,391.19 C210.00,393.58 207.52,394.64 206.89,394.30 C205.44,393.44 194.74,381.28 194.60,381.31 C193.18,387.72 189.21,393.27 188.39,393.52 C188.39,393.52 183.24,387.09 183.24,387.09 C182.96,387.34 182.50,387.59 181.38,388.04 C180.12,388.54 177.71,389.49 176.56,389.95" fill="none" stroke="rgb(255, 0, 255)" stroke-width="2.34" stroke-opacity="1.00" stroke-linejoin="round"/>
<path d="M199.20,411.17 C199.20,411.17 198.85,410.82 198.85,410.82 C198.63,410.83 198.51,410.83 198.49,410.82 C198.27,410.76 195.97,409.17 194.81,408.71 C194.01,408.40 189.06,407.60 188.55,407.55 C187.43,407.47 186.57,407.89 185.78,408.61 C185.78,408.61 185.40,412.59 185.40,412.59" fill="none" stroke="rgb(255, 0, 255)" stroke-width="2.34" stroke-opacity="1.00" stroke-linejoin="round"/>
<path d="M215.47,409.40 C215.47,409.40 213.70,408.34 213.70,408.34 C213.71,408.42 220.46,407.61 222.87,408.26 C226.05,409.21 228.14,411.29 229.96,413.61 C229.96,413.61 229.27,415.42 229.27,415.42" fill="none" stroke="rgb(255, 0, 255)" stroke-width="2.34" stroke-opacity="1.00" stroke-linejoin="round"/>
<path d="M215.47,423.91 C215.39,423.88 214.89,424.03 214.70,424.19 C214.56,424.30 213.66,425.75 213.08,426.11 C209.42,428.33 198.94,428.27 197.56,427.47 C197.56,427.47 198.49,424.97 198.49,424.97" fill="none" stroke="rgb(255, 0, 255)" stroke-width="2.34" stroke-opacity="1.00" stroke-linejoin="round"/>
<path d="M189.29,440.18 C189.29,440.18 188.23,440.89 188.23,440.89 C187.62,440.93 183.88,447.58 182.26,450.37 C179.63,455.22 177.60,458.67 176.20,461.01 C173.03,466.66 171.89,471.11 171.38,473.38" fill="none" stroke="rgb(255, 0, 255)" stroke-width="2.34" stroke-opacity="1.00" stroke-linejoin="round"/>
<path d="M174.08,452.21 C174.08,452.21 172.14,452.65 172.14,452.65 C171.99,452.72 171.93,453.42 171.96,455.34 C171.99,458.68 171.80,464.16 171.38,467.01 C170.94,469.89 168.77,477.80 168.84,479.34 C169.01,481.60 171.59,484.06 175.06,486.38 C178.12,488.40 181.35,490.01 182.68,490.02 C187.49,486.70 193.20,470.04 193.54,468.73 C193.54,468.73 192.28,500.71 192.28,500.71 C192.28,500.71 235.73,499.04 235.73,499.04 C235.73,499.04 233.40,470.31 233.40,470.31 C234.17,470.93 237.99,474.54 240.41,476.60 C242.76,478.53 247.93,478.72 249.86,477.73 C251.02,477.02 253.36,472.34 254.45,468.65 C255.57,464.82 255.68,461.30 254.65,459.48 C253.03,456.79 233.45,438.95 233.23,438.86 C232.98,438.75 232.37,438.60 231.39,438.41" fill="none" stroke="rgb(255, 0, 255)" stroke-width="2.34" stroke-opacity="1.00" stroke-linejoin="round"/>
<path d="M260.04,465.30 C260.04,465.30 257.09,465.60 257.09,465.60 C256.28,467.90 256.08,473.78 256.62,474.31 C257.68,475.05 261.02,475.23 262.80,474.17 C263.63,473.64 264.70,472.11 264.86,471.20 C265.11,469.40 263.27,466.10 261.16,464.97 C261.16,464.97 257.21,466.00 257.21,466.00" fill="none" stroke="rgb(255, 0, 255)" stroke-width="2.34" stroke-opacity="1.00" stroke-linejoin="round"/>
<path d="M193.89,503.86 C193.89,503.86 193.19,504.21 193.19,504.21 C193.48,504.06 194.27,524.22 194.03,526.37 C191.12,548.57 190.74,552.87 191.25,554.99 C192.31,556.08 195.27,556.47 200.48,557.01 C208.33,557.73 212.22,557.64 213.26,556.92 C216.46,554.20 214.38,529.93 213.95,527.03 C213.95,527.03 217.55,556.33 217.55,556.33 C217.45,556.51 236.80,557.50 239.57,556.66 C240.43,556.35 240.99,553.90 241.08,550.14 C241.31,540.80 240.09,529.72 238.65,521.28 C237.94,517.20 236.52,509.24 235.82,505.36 C235.21,502.01 234.42,498.36 234.22,497.49" fill="none" stroke="rgb(255, 0, 255)" stroke-width="2.34" stroke-opacity="1.00" stroke-linejoin="round"/>
<path d="M198.49,558.69 C197.48,559.05 195.75,559.78 195.14,560.21 C194.52,560.64 193.66,561.83 192.97,562.95 C193.21,563.89 197.97,565.21 200.47,565.61 C202.68,565.93 206.85,565.52 211.85,564.65 C216.01,563.90 217.27,563.31 217.93,562.63 C218.02,561.43 217.84,560.11 217.30,558.90 C217.07,558.39 215.64,555.75 215.12,554.79" fill="none" stroke="rgb(255, 0, 255)" stroke-width="2.34" stroke-opacity="1.00" stroke-linejoin="round"/>
<path d="M221.13,559.75 C221.13,559.75 220.96,558.33 220.96,558.33 C220.96,558.33 220.56,558.54 220.56,558.54 C219.98,560.62 220.37,563.36 221.69,564.54 C223.16,565.72 227.62,566.60 232.02,565.80 C237.18,564.81 239.11,563.66 240.14,562.59 C240.34,561.37 240.13,560.21 239.16,559.07 C238.22,557.95 237.30,557.05 236.43,556.36 C235.94,555.98 235.09,555.46 233.87,554.79" fill="none" stroke="rgb(255, 0, 255)" stroke-width="2.34" stroke-opacity="1.00" stroke-linejoin="round"/>
<path d="M173.02,485.46 C173.02,485.46 172.14,484.45 172.14,484.45 C171.09,484.98 170.51,485.77 170.33,487.21 C170.17,488.61 170.41,491.00 170.87,492.17 C171.39,493.40 172.96,494.87 173.90,494.95 C175.73,495.03 179.29,491.90 179.94,490.01 C179.94,490.01 179.39,488.29 179.39,488.29" fill="none" stroke="rgb(255, 0, 255)" stroke-width="2.34" stroke-opacity="1.00" stroke-linejoin="round"/>
<path d="M192.83,441.24 C192.43,441.60 192.03,441.89 191.77,441.95 C191.53,442.00 189.96,441.52 188.72,441.75 C187.69,442.40 187.26,446.35 187.35,450.50 C187.68,456.64 188.52,469.01 188.92,469.86 C189.09,470.20 189.54,470.79 190.29,471.64" fill="none" stroke="rgb(0, 153, 67)" stroke-width="2.34" stroke-opacity="1.00" stroke-linejoin="round"/>
<path d="M193.89,441.24 C193.93,440.87 193.83,440.44 193.59,440.09 C193.54,440.01 193.46,439.93 193.35,439.83 C193.30,439.85 191.22,464.85 191.29,465.58 C191.45,466.99 192.85,471.69 193.16,472.72 C193.09,472.53 192.63,472.11 192.21,472.02 C192.03,471.99 191.66,471.98 191.10,471.99" fill="none" stroke="rgb(0, 153, 67)" stroke-width="2.34" stroke-opacity="1.00" stroke-linejoin="round"/>
<path d="M227.85,436.29 C227.31,436.26 226.95,436.26 226.79,436.29 C226.63,436.32 226.43,436.42 226.20,436.58 C226.07,436.58 226.77,439.98 227.27,445.39 C227.56,449.01 227.82,456.72 228.05,458.95 C228.30,461.44 229.81,470.97 230.61,472.59 C231.95,474.98 237.05,473.12 237.26,472.89 C237.27,472.87 234.72,462.85 233.97,454.83 C233.24,447.14 230.26,434.46 230.16,434.28 C230.16,434.28 228.56,434.87 228.56,434.87" fill="none" stroke="rgb(0, 153, 67)" stroke-width="2.34" stroke-opacity="1.00" stroke-linejoin="round"/>
</g>
</svg>
