<?xml version="1.0" encoding="UTF-8" standalone="no"?>
<!DOCTYPE svg PUBLIC "-//W3C//DTD SVG 1.1//EN" "http://www.w3.org/Graphics/SVG/1.1/DTD/svg11.dtd">
<svg width="128.40" height="181.68" viewBox="0.00 0.00 535.00 757.00" xmlns="http://www.w3.org/2000/svg" xmlns:xlink="http://www.w3.org/1999/xlink">
<g stroke-linecap="round" transform="translate(44.00, 155.00)" id="155-가방-1">
<path d="M119.83,344.96 C119.83,344.96 118.84,345.72 118.84,345.72 C118.84,345.72 118.76,346.03 118.76,346.03 C119.12,345.88 119.85,340.31 120.60,338.49 C121.22,337.05 122.67,335.19 123.55,334.82 C125.21,334.21 130.29,336.42 131.98,338.44 C133.50,340.35 134.61,347.20 134.63,347.29 C134.71,347.62 134.96,348.49 135.39,349.92" fill="none" stroke="rgb(0, 153, 67)" stroke-width="2.34" stroke-opacity="1.00" stroke-linejoin="round"/>
<path d="M132.91,347.44 C132.91,347.44 132.51,347.44 132.51,347.44 C128.28,340.77 125.05,339.75 123.82,339.71 C123.82,339.71 122.54,340.51 122.54,340.51 C122.08,341.34 122.65,345.33 122.87,345.82 C122.95,346.00 123.12,346.18 123.36,346.38" fill="none" stroke="rgb(0, 153, 67)" stroke-width="2.34" stroke-opacity="1.00" stroke-linejoin="round"/>
<path d="M135.39,347.79 C134.90,347.77 134.37,347.84 134.25,347.97 C134.11,348.08 134.00,348.14 133.90,348.15 C133.14,348.19 126.60,348.19 124.58,347.59 C121.75,346.76 116.23,346.75 114.74,347.78 C113.38,348.86 112.99,351.41 112.71,356.44 C112.36,365.58 112.56,377.37 113.13,378.62 C113.55,379.40 117.66,380.01 121.92,380.19 C129.60,380.49 132.36,380.66 135.99,381.88 C136.96,382.22 137.25,382.26 137.91,382.25 C139.36,381.55 140.22,376.94 140.50,372.41 C141.00,361.81 140.96,348.20 140.03,348.23 C139.55,348.36 139.11,348.44 137.38,348.70 C135.30,349.00 130.22,348.60 129.02,348.50" fill="none" stroke="rgb(0, 153, 67)" stroke-width="2.34" stroke-opacity="1.00" stroke-linejoin="round"/>
</g>
</svg>
