<?xml version="1.0" encoding="UTF-8" standalone="no"?>
<!DOCTYPE svg PUBLIC "-//W3C//DTD SVG 1.1//EN" "http://www.w3.org/Graphics/SVG/1.1/DTD/svg11.dtd">
<svg width="128.40" height="181.68" viewBox="0.00 0.00 535.00 757.00" xmlns="http://www.w3.org/2000/svg" xmlns:xlink="http://www.w3.org/1999/xlink">
<g stroke-linecap="round" id="155-사람-2">
<path d="M287.28,370.14 C286.60,370.82 286.12,371.35 286.00,371.67 C285.88,371.99 285.82,390.09 286.35,396.58 C287.23,406.19 288.84,417.17 291.11,421.52 C292.92,424.85 297.17,427.90 301.26,429.75 C312.04,434.57 323.38,439.08 329.13,439.90 C333.38,440.45 339.80,439.51 342.23,438.41 C344.24,437.46 348.56,434.78 350.90,432.81 C353.04,430.97 357.44,425.27 359.33,422.13 C361.27,418.85 363.63,413.32 364.55,409.35 C365.85,403.51 366.27,388.81 365.24,381.77 C364.91,379.60 364.69,378.34 364.49,377.80 C364.39,377.54 364.12,376.99 363.69,376.15" fill="none" stroke="rgb(255, 0, 255)" stroke-width="2.34" stroke-opacity="1.00" stroke-linejoin="round"/>
<path d="M367.23,403.75 C367.23,403.75 367.41,403.75 367.41,403.75 C367.41,403.75 367.58,403.57 367.58,403.57 C367.58,403.57 367.61,403.04 367.61,403.04 C368.29,403.44 369.27,405.66 369.25,407.31 C369.17,409.42 367.74,410.95 366.72,411.66 C366.72,411.66 362.63,409.76 362.63,409.76" fill="none" stroke="rgb(255, 0, 255)" stroke-width="2.34" stroke-opacity="1.00" stroke-linejoin="round"/>
<path d="M287.28,401.27 C287.28,401.27 287.11,401.27 287.11,401.27 C286.56,400.86 285.65,400.13 285.52,400.05 C284.93,399.69 283.44,399.23 282.68,399.24 C281.67,399.30 280.26,400.30 279.75,401.47 C279.24,402.75 279.23,405.70 279.79,406.86 C280.38,407.99 282.00,409.03 283.32,409.07 C283.59,409.08 284.79,409.07 286.93,409.05" fill="none" stroke="rgb(255, 0, 255)" stroke-width="2.34" stroke-opacity="1.00" stroke-linejoin="round"/>
<path d="M289.05,388.53 C288.82,388.41 288.33,388.26 288.17,388.18 C288.10,388.15 288.05,388.09 287.99,388.00 C288.43,388.64 293.41,392.39 294.77,392.61 C298.95,393.13 302.86,388.29 303.05,387.72 C303.11,389.03 306.09,392.91 309.18,393.67 C315.75,395.17 320.47,391.03 320.68,390.72 C320.68,390.72 320.53,391.01 320.53,391.01" fill="none" stroke="rgb(255, 0, 255)" stroke-width="2.34" stroke-opacity="1.00" stroke-linejoin="round"/>
<path d="M320.89,392.07 C320.89,392.07 319.83,392.83 319.83,392.83 C320.31,394.70 322.32,397.34 323.61,397.86 C325.23,398.46 328.88,397.22 330.30,395.70 C331.28,394.63 332.56,392.86 332.86,392.29 C333.10,392.33 336.38,394.86 338.34,395.04 C342.03,395.30 349.16,391.59 350.53,389.92 C350.36,391.33 352.10,394.76 354.59,396.03 C356.92,397.14 362.72,395.47 363.28,395.69 C363.71,395.88 364.56,396.20 365.81,396.67" fill="none" stroke="rgb(255, 0, 255)" stroke-width="2.34" stroke-opacity="1.00" stroke-linejoin="round"/>
<path d="M285.16,375.09 C285.52,375.17 285.81,375.23 286.04,375.27 C286.28,375.30 286.77,375.36 287.52,375.45" fill="none" stroke="rgb(255, 0, 255)" stroke-width="2.34" stroke-opacity="1.00" stroke-linejoin="round"/>
<path d="M289.76,371.20 C289.76,371.20 288.17,371.20 288.17,371.20 C287.77,372.10 287.77,372.93 288.30,374.43 C290.12,379.51 292.65,384.49 294.20,385.60 C294.20,385.60 289.23,373.50 289.23,373.50 C288.96,374.18 291.14,380.27 292.66,383.06 C294.34,386.06 295.86,387.38 297.54,388.48 C297.54,388.48 298.87,388.18 298.87,388.18 C299.42,386.46 297.78,382.57 295.55,378.02 C294.20,375.20 291.87,370.28 291.96,370.29 C299.24,382.82 305.13,387.12 306.16,387.62 C306.14,385.04 303.68,381.30 301.00,377.41 C299.36,375.05 297.15,372.11 296.63,371.42 C296.64,371.40 306.59,383.89 310.71,388.21 C311.88,389.42 313.26,390.53 315.19,391.87 C314.83,389.79 314.33,388.47 313.01,386.54 C308.13,379.33 303.49,371.56 302.43,370.23 C302.99,372.93 309.34,382.67 313.69,386.91 C315.79,388.92 320.26,392.39 321.64,392.79 C321.06,389.89 318.04,385.10 316.28,382.29 C314.57,379.49 311.62,374.60 310.35,372.39 C321.92,388.25 325.93,391.05 326.55,391.24 C326.55,391.24 315.71,373.27 315.71,373.27 C316.27,373.70 323.89,384.77 327.40,388.48 C329.16,390.31 332.87,393.49 334.81,394.25 C334.42,391.92 326.91,381.54 322.97,376.19 C321.97,374.86 321.22,373.95 319.93,372.45 C319.93,372.45 338.74,394.28 338.74,394.28 C338.74,394.28 326.75,373.92 326.75,373.92 C340.12,393.21 342.62,394.80 342.90,394.72 C342.90,394.72 332.85,376.25 332.85,376.25 C332.85,376.25 347.21,391.79 347.21,391.79 C347.21,391.79 338.19,379.02 338.19,379.02 C338.19,379.02 349.78,391.66 349.78,391.66 C349.78,391.66 343.75,378.61 343.75,378.61 C343.75,378.61 352.94,391.50 352.94,391.50 C353.03,389.22 352.96,388.11 352.53,387.31 C351.80,385.96 348.37,380.13 346.88,377.63 C346.88,377.63 356.61,392.67 356.61,392.67 C356.56,390.52 353.55,383.27 353.06,381.90 C352.40,380.04 351.50,377.15 351.03,375.47 C351.03,375.47 359.63,392.28 359.63,392.28 C358.98,391.27 358.33,390.26 357.68,389.25 C357.20,388.54 356.73,387.83 356.26,387.12" fill="none" stroke="rgb(255, 0, 255)" stroke-width="2.34" stroke-opacity="1.00" stroke-linejoin="round"/>
<path d="M352.37,376.15 C352.37,376.15 352.19,376.15 352.19,376.15 C352.19,376.15 352.19,376.33 352.19,376.33 C353.78,377.41 356.19,380.18 357.50,382.98 C358.50,385.19 359.75,389.64 360.76,393.88 C360.76,393.88 360.51,393.49 360.51,393.49" fill="none" stroke="rgb(255, 0, 255)" stroke-width="2.34" stroke-opacity="1.00" stroke-linejoin="round"/>
<path d="M355.20,370.85 C354.95,371.07 354.47,371.72 354.32,372.19 C353.96,373.39 357.39,380.02 357.96,381.20 C360.74,386.92 362.67,394.94 362.49,395.63 C362.49,395.63 361.57,394.19 361.57,394.19" fill="none" stroke="rgb(255, 0, 255)" stroke-width="2.34" stroke-opacity="1.00" stroke-linejoin="round"/>
<path d="M358.39,375.09 C358.39,375.09 357.85,375.09 357.85,375.09 C357.85,375.09 357.82,375.34 357.82,375.34 C359.49,377.14 362.47,381.68 363.70,384.75 C364.84,387.70 365.90,393.32 365.73,394.79 C365.73,394.79 364.81,393.25 364.81,393.25" fill="none" stroke="rgb(255, 0, 255)" stroke-width="2.34" stroke-opacity="1.00" stroke-linejoin="round"/>
<path d="M358.03,372.26 C358.03,372.26 357.15,372.26 357.15,372.26 C357.01,372.36 357.29,372.97 358.44,374.97 C359.85,377.44 362.62,382.76 363.72,385.29 C365.02,388.32 366.75,394.20 365.79,395.44 C365.67,395.59 365.44,395.76 365.11,395.96" fill="none" stroke="rgb(255, 0, 255)" stroke-width="2.34" stroke-opacity="1.00" stroke-linejoin="round"/>
<path d="M360.51,373.68 C360.51,373.68 360.33,373.68 360.33,373.68 C360.33,373.68 360.15,373.85 360.15,373.85 C360.17,374.28 360.48,374.90 361.43,376.22 C364.10,379.94 365.99,383.80 366.73,386.51 C367.21,388.33 367.57,391.91 367.50,392.37 C367.44,392.71 367.23,393.56 366.88,394.90" fill="none" stroke="rgb(255, 0, 255)" stroke-width="2.34" stroke-opacity="1.00" stroke-linejoin="round"/>
<path d="M356.62,392.07 C356.62,392.07 354.32,392.07 354.32,392.07 C354.32,392.07 354.27,392.38 354.27,392.38 C355.30,393.71 358.71,395.80 361.29,395.74 C361.58,395.72 362.03,395.68 362.63,395.61" fill="none" stroke="rgb(255, 0, 255)" stroke-width="2.34" stroke-opacity="1.00" stroke-linejoin="round"/>
<path d="M325.49,388.89 C324.59,389.67 323.81,392.11 324.84,394.00 C325.90,394.66 327.06,394.96 327.92,394.61 C329.63,393.87 329.90,391.65 329.75,390.69 C328.17,390.48 327.02,390.81 326.66,391.88 C326.37,392.76 326.38,394.39 326.55,395.26" fill="none" stroke="rgb(255, 0, 255)" stroke-width="2.34" stroke-opacity="1.00" stroke-linejoin="round"/>
<path d="M290.47,380.04 C290.17,380.45 290.04,380.79 290.11,381.34 C290.43,383.31 292.75,386.75 293.60,387.21 C294.02,387.44 295.02,387.78 296.59,388.22" fill="none" stroke="rgb(255, 0, 255)" stroke-width="2.34" stroke-opacity="1.00" stroke-linejoin="round"/>
<path d="M288.70,381.46 C287.98,383.54 288.05,386.54 290.17,388.50 C291.25,389.45 293.78,390.37 295.32,390.46 C296.11,390.49 297.39,390.04 299.31,389.24" fill="none" stroke="rgb(255, 0, 255)" stroke-width="2.34" stroke-opacity="1.00" stroke-linejoin="round"/>
<path d="M303.55,389.60 C303.55,389.60 302.49,389.60 302.49,389.60 C303.33,389.67 304.38,389.94 305.71,390.48 C306.22,390.69 309.60,392.15 310.16,392.37 C310.44,392.48 310.83,392.61 311.34,392.78" fill="none" stroke="rgb(255, 0, 255)" stroke-width="2.34" stroke-opacity="1.00" stroke-linejoin="round"/>
<path d="M305.32,413.65 C305.32,413.65 303.86,413.41 303.86,413.41 C303.43,412.54 304.38,410.67 305.94,409.87 C307.46,409.14 313.22,408.60 315.24,409.13 C317.30,409.71 319.29,412.18 319.41,412.67 C319.46,412.88 319.48,413.33 319.47,414.00" fill="none" stroke="rgb(255, 0, 255)" stroke-width="2.34" stroke-opacity="1.00" stroke-linejoin="round"/>
<path d="M334.33,415.42 C334.33,415.42 332.24,415.42 332.24,415.42 C333.72,414.27 339.34,412.07 342.07,412.21 C343.36,412.30 345.59,412.97 346.74,413.56 C347.77,414.11 348.50,415.02 349.27,416.48 C349.27,416.48 348.48,417.54 348.48,417.54" fill="none" stroke="rgb(255, 0, 255)" stroke-width="2.34" stroke-opacity="1.00" stroke-linejoin="round"/>
<path d="M317.35,427.09 C317.35,427.09 317.17,427.09 317.17,427.09 C317.17,427.09 317.00,427.27 317.00,427.27 C317.00,427.27 317.00,427.45 317.00,427.45 C319.97,428.89 325.33,430.34 327.75,430.34 C329.07,430.32 331.21,429.83 332.31,429.30 C333.32,428.80 334.39,427.69 335.78,425.89 C335.78,425.89 335.75,424.97 335.75,424.97" fill="none" stroke="rgb(255, 0, 255)" stroke-width="2.34" stroke-opacity="1.00" stroke-linejoin="round"/>
<path d="M291.53,430.28 C291.28,430.36 290.80,430.57 290.71,430.79 C290.67,430.90 288.93,437.19 287.43,440.12 C286.99,440.95 281.71,450.45 279.53,454.35 C277.40,458.15 275.42,462.79 274.92,465.72 C274.64,467.61 274.59,468.66 274.80,469.23 C275.68,471.27 286.45,477.79 288.30,478.48 C289.09,478.26 290.83,475.02 292.85,471.99 C294.77,469.21 297.48,465.28 298.27,464.14 C298.73,463.47 299.20,462.79 299.66,462.11" fill="none" stroke="rgb(255, 0, 255)" stroke-width="2.34" stroke-opacity="1.00" stroke-linejoin="round"/>
<path d="M278.44,472.73 C278.03,472.82 277.31,473.11 276.82,473.40 C276.13,473.83 274.64,476.70 274.39,478.89 C274.26,480.35 274.72,482.82 275.37,483.63 C276.08,484.44 278.38,484.87 279.61,484.46 C280.61,484.10 284.93,480.86 285.87,480.15" fill="none" stroke="rgb(255, 0, 255)" stroke-width="2.34" stroke-opacity="1.00" stroke-linejoin="round"/>
<path d="M336.10,461.05 C335.80,461.05 335.51,461.05 335.21,461.05 C335.16,461.05 335.10,461.05 335.04,461.05 C335.51,461.08 345.36,468.34 350.34,473.91 C352.36,476.20 356.78,481.19 357.89,482.24 C360.22,484.46 365.24,488.34 365.47,488.63 C366.65,487.73 370.86,482.74 372.79,480.08 C375.75,475.91 377.83,472.53 377.81,470.76 C377.71,468.75 374.19,464.34 372.22,462.56 C370.45,461.00 364.48,456.25 363.38,455.30 C359.96,452.35 349.77,440.43 349.45,440.00 C349.19,439.65 348.87,439.12 348.48,438.41" fill="none" stroke="rgb(255, 0, 255)" stroke-width="2.34" stroke-opacity="1.00" stroke-linejoin="round"/>
<path d="M376.43,478.03 C376.43,478.03 375.62,478.03 375.62,478.03 C375.62,478.03 375.37,478.39 375.37,478.39 C375.38,478.57 378.51,483.79 378.15,485.75 C378.09,486.04 377.87,486.52 377.50,487.19 C375.54,488.29 370.23,487.96 368.06,486.66 C367.72,486.44 367.19,484.86 366.52,482.98" fill="none" stroke="rgb(255, 0, 255)" stroke-width="2.34" stroke-opacity="1.00" stroke-linejoin="round"/>
<path d="M339.28,467.07 C339.28,467.07 338.22,465.69 338.22,465.69 C338.18,465.68 340.78,471.18 341.66,473.72 C342.77,477.00 343.95,482.99 344.11,485.51 C344.26,488.26 343.91,492.95 343.90,495.40 C343.87,499.14 343.67,502.20 342.76,503.45 C341.89,504.50 337.20,505.61 332.38,505.90 C328.49,506.05 322.59,506.27 320.39,505.94 C314.91,505.08 300.52,503.00 299.07,502.03 C298.00,501.22 296.69,496.34 296.51,493.93 C296.30,490.83 296.31,465.72 296.32,465.65 C296.37,465.15 296.54,464.45 296.83,463.53" fill="none" stroke="rgb(255, 0, 255)" stroke-width="2.34" stroke-opacity="1.00" stroke-linejoin="round"/>
<path d="M301.79,501.73 C301.29,502.09 300.49,502.77 300.19,503.15 C299.99,503.44 300.05,504.25 300.28,505.31 C301.81,512.08 302.67,523.00 302.41,529.06 C301.94,536.70 301.36,547.81 301.83,557.21 C301.92,558.91 302.33,560.41 302.89,561.19 C303.98,562.54 316.80,563.82 320.83,562.98 C322.42,562.62 323.92,560.05 324.00,556.91 C324.01,556.20 323.38,528.31 323.36,527.46 C323.36,527.46 326.21,562.72 326.21,562.72 C327.57,563.58 342.11,565.56 346.26,564.97 C347.71,564.72 349.15,563.64 349.54,562.44 C350.77,558.27 352.31,545.71 352.28,540.24 C352.26,537.12 349.68,515.98 349.11,512.90 C348.65,510.75 347.82,506.59 347.21,502.66 C347.17,502.36 347.12,502.05 347.07,501.73" fill="none" stroke="rgb(255, 0, 255)" stroke-width="2.34" stroke-opacity="1.00" stroke-linejoin="round"/>
<path d="M330.79,564.35 C330.79,564.35 325.80,568.14 325.80,568.14 C325.62,568.99 327.52,571.12 329.53,571.79 C331.70,572.48 336.64,572.11 339.78,571.49 C342.35,570.95 345.04,568.99 345.21,567.66 C345.28,567.09 345.27,566.18 345.18,564.94 C345.14,564.54 345.07,563.87 344.94,562.93" fill="none" stroke="rgb(255, 0, 255)" stroke-width="2.34" stroke-opacity="1.00" stroke-linejoin="round"/>
<path d="M306.74,562.93 C306.74,562.93 306.74,564.07 306.74,564.07 C306.69,564.19 303.81,565.50 302.90,567.11 C302.47,567.93 302.01,569.66 302.10,570.36 C302.25,571.17 303.47,572.42 304.55,572.81 C305.77,573.20 308.92,573.25 310.53,572.84 C312.22,572.38 315.28,570.60 316.65,569.34 C319.09,567.02 319.99,564.35 320.15,563.15 C320.15,563.15 317.35,561.52 317.35,561.52" fill="none" stroke="rgb(255, 0, 255)" stroke-width="2.34" stroke-opacity="1.00" stroke-linejoin="round"/>
<path d="M299.31,429.57 C299.31,429.57 298.20,428.15 298.20,428.15 C298.20,428.15 295.89,428.35 295.89,428.35 C294.93,429.51 294.72,432.03 294.75,439.07 C294.88,447.46 295.28,466.46 295.33,466.71 C295.41,467.15 295.68,467.98 296.13,469.19" fill="none" stroke="rgb(0, 153, 67)" stroke-width="2.34" stroke-opacity="1.00" stroke-linejoin="round"/>
<path d="M302.85,431.34 C302.65,431.05 302.53,430.88 302.49,430.81 C302.46,430.74 302.46,430.68 302.49,430.63 C302.51,433.13 302.72,447.09 301.97,452.98 C301.70,455.32 301.23,465.82 301.15,466.27 C300.73,468.41 299.79,469.94 298.55,470.39 C298.07,470.55 297.26,470.86 296.13,471.31" fill="none" stroke="rgb(0, 153, 67)" stroke-width="2.34" stroke-opacity="1.00" stroke-linejoin="round"/>
<path d="M342.11,439.47 C342.11,439.47 340.35,466.59 340.35,466.59 C340.35,466.59 340.70,466.71 340.70,466.71" fill="none" stroke="rgb(0, 153, 67)" stroke-width="2.34" stroke-opacity="1.00" stroke-linejoin="round"/>
<path d="M348.48,438.41 C348.48,438.41 348.44,437.75 348.44,437.75 C348.44,437.75 347.29,469.66 347.29,469.66 C347.29,469.66 346.71,468.83 346.71,468.83" fill="none" stroke="rgb(0, 153, 67)" stroke-width="2.34" stroke-opacity="1.00" stroke-linejoin="round"/>
<path d="M351.31,435.94 C351.31,435.94 350.43,437.00 350.43,437.00 C350.43,437.00 350.25,437.00 350.25,437.00 C351.63,436.49 355.28,437.58 357.44,439.33 C359.34,440.91 362.69,447.78 363.09,449.55 C363.22,450.18 363.28,452.68 363.34,453.98" fill="none" stroke="rgb(0, 153, 67)" stroke-width="2.34" stroke-opacity="1.00" stroke-linejoin="round"/>
<path d="M360.15,483.34 C359.49,483.76 358.96,484.26 358.56,484.89 C358.19,485.52 359.01,489.65 358.85,489.90 C358.12,490.94 356.68,491.76 355.06,492.05 C354.29,492.16 351.48,491.66 349.97,491.21 C349.37,491.03 348.28,490.64 346.71,490.06" fill="none" stroke="rgb(0, 153, 67)" stroke-width="2.34" stroke-opacity="1.00" stroke-linejoin="round"/>
</g>
</svg>
