<?xml version="1.0" encoding="UTF-8" standalone="no"?>
<!DOCTYPE svg PUBLIC "-//W3C//DTD SVG 1.1//EN" "http://www.w3.org/Graphics/SVG/1.1/DTD/svg11.dtd">
<svg width="128.40" height="181.68" viewBox="0.00 0.00 535.00 757.00" xmlns="http://www.w3.org/2000/svg" xmlns:xlink="http://www.w3.org/1999/xlink">
<g stroke-linecap="round" transform="translate(44.00, 155.00)" id="156-구름-1">
<path d="M92.64,-130.49 C92.48,-130.46 91.86,-130.76 91.58,-130.88 C89.66,-131.71 84.58,-135.33 82.21,-136.08 C79.61,-136.87 72.84,-138.21 71.46,-138.25 C68.87,-138.28 64.72,-136.28 63.30,-135.25 C60.56,-133.22 55.55,-127.66 53.96,-124.52 C52.61,-121.78 51.08,-117.03 51.00,-116.10 C50.96,-115.59 50.95,-114.40 50.96,-112.53" fill="none" stroke="rgb(0, 153, 67)" stroke-width="3.42" stroke-opacity="1.00" stroke-linejoin="round"/>
<path d="M49.24,-97.34 C47.01,-97.36 45.69,-97.36 45.27,-97.34 C44.19,-97.27 41.85,-93.82 41.13,-91.10 C40.42,-88.30 40.35,-81.64 41.15,-78.54 C42.00,-75.39 45.85,-69.96 47.88,-68.55 C49.83,-67.24 55.08,-65.11 57.50,-64.78 C59.96,-64.47 64.13,-65.18 66.47,-66.34 C68.63,-67.45 73.45,-70.85 75.34,-72.51 C80.00,-76.67 81.58,-80.57 81.79,-82.08 C82.49,-79.59 85.50,-74.38 87.31,-72.52 C89.73,-70.10 94.43,-67.33 97.56,-67.08 C99.96,-66.94 107.28,-68.41 109.66,-69.25 C111.70,-69.98 117.94,-73.19 119.60,-74.91 C121.44,-76.86 123.30,-81.76 123.94,-85.47 C124.32,-87.74 124.51,-89.47 124.59,-91.04 C125.71,-89.70 127.19,-88.82 129.78,-88.06 C132.77,-87.21 137.98,-86.60 141.26,-86.95 C144.59,-87.34 149.73,-89.48 151.51,-91.32 C153.17,-93.09 155.24,-97.83 155.73,-100.53 C156.12,-102.77 156.33,-108.31 156.17,-110.60 C155.92,-113.40 154.05,-118.80 151.39,-120.43 C148.88,-121.92 144.29,-122.37 140.49,-122.39 C140.44,-122.55 141.89,-128.22 141.64,-130.69 C141.36,-133.08 139.68,-136.69 138.11,-138.16 C136.70,-139.45 132.76,-141.33 131.04,-141.72 C126.75,-142.63 108.01,-142.40 105.16,-141.78 C104.53,-141.63 97.51,-138.78 95.75,-137.52 C94.15,-136.36 91.48,-133.59 90.83,-132.90" fill="none" stroke="rgb(0, 153, 67)" stroke-width="3.42" stroke-opacity="1.00" stroke-linejoin="round"/>
</g>
</svg>
