<?xml version="1.0" encoding="UTF-8" standalone="no"?>
<!DOCTYPE svg PUBLIC "-//W3C//DTD SVG 1.1//EN" "http://www.w3.org/Graphics/SVG/1.1/DTD/svg11.dtd">
<svg width="128.40" height="181.68" viewBox="0.00 0.00 535.00 757.00" xmlns="http://www.w3.org/2000/svg" xmlns:xlink="http://www.w3.org/1999/xlink">
<g stroke-linecap="round" transform="translate(44.00, 155.00)" id="156-물웅덩이">
<path d="M255.40,375.86 C255.40,375.86 254.25,374.72 254.25,374.72 C254.24,374.67 254.19,374.80 254.19,374.84 C254.25,375.19 254.45,376.34 254.79,378.27" fill="none" stroke="rgb(0, 0, 255)" stroke-width="3.42" stroke-opacity="1.00" stroke-linejoin="round"/>
<path d="M262.03,377.07 C262.51,376.70 262.81,376.40 262.93,376.17 C263.05,375.93 263.15,375.45 263.23,374.71 C262.40,373.18 257.72,371.86 254.47,371.74 C252.36,371.69 246.09,372.37 243.56,373.09 C240.45,374.00 219.77,383.04 217.06,384.50 C210.57,388.05 201.78,395.53 198.01,400.39 C195.12,404.26 193.10,407.28 193.07,409.13 C194.26,410.63 197.55,411.06 202.06,411.24 C207.50,411.38 220.14,410.31 226.32,409.25 C232.44,408.18 248.12,404.01 254.23,401.71 C266.76,396.63 290.57,387.34 290.90,387.16 C291.60,386.78 293.09,384.58 293.55,383.57 C294.20,382.07 294.59,380.25 294.29,379.67 C293.32,378.12 288.35,377.40 284.40,377.62 C277.43,378.02 266.60,379.57 261.12,380.89 C254.18,382.58 241.88,387.54 235.14,391.71 C232.40,393.41 229.36,395.79 226.56,398.73 C225.11,400.25 224.96,401.89 225.63,404.72 C228.58,406.04 233.16,406.94 237.54,406.84 C244.58,406.63 257.66,404.51 267.11,402.11 C275.59,399.87 286.81,395.68 291.48,393.06 C294.20,391.52 297.65,388.78 299.40,386.87 C301.15,384.91 304.51,378.81 304.15,377.27 C304.02,376.75 303.45,375.67 302.43,374.02 C299.26,373.08 294.89,372.51 291.10,372.71 C285.74,373.03 273.72,375.06 264.45,377.02 C257.62,378.56 240.58,383.81 237.40,385.09 C232.37,387.13 223.64,393.19 223.07,394.36 C222.80,394.93 222.56,396.17 222.34,398.07 C224.82,399.61 228.72,400.49 234.03,400.08 C244.04,399.22 274.71,389.86 288.95,385.73 C300.82,382.27 304.43,380.79 306.73,379.23 C305.62,378.16 303.90,377.72 301.10,377.92 C295.49,378.33 279.72,382.44 277.75,384.13 C277.37,384.47 276.48,385.36 275.08,386.82 C275.20,389.39 275.79,390.84 277.46,391.97 C280.13,393.77 283.22,394.81 286.05,395.33 C288.69,395.78 294.18,395.97 297.19,395.68 C303.41,395.05 315.90,391.08 321.26,388.31 C323.09,387.35 328.93,383.62 329.57,382.69 C329.88,382.23 330.30,381.23 330.84,379.68 C329.62,377.82 328.67,376.85 327.31,376.30 C324.53,375.22 318.43,374.19 315.54,374.26 C310.22,374.42 296.50,377.57 291.14,379.67 C288.90,380.55 282.74,383.38 280.34,384.78 C277.23,386.66 274.99,389.28 274.17,391.01 C274.56,392.22 275.27,394.75 275.72,395.21 C276.98,396.46 283.38,398.19 285.33,398.42 C291.04,399.08 305.44,397.49 312.36,395.36 C322.10,392.32 333.53,387.26 338.98,384.19 C342.35,382.23 343.79,380.57 344.58,378.70 C342.88,377.11 338.17,376.32 333.50,375.88 C326.39,375.29 312.69,375.85 310.17,377.68 C309.81,377.95 309.08,378.64 307.97,379.76 C307.97,379.76 308.68,381.98 308.68,381.98 C311.24,383.45 315.71,384.80 320.06,384.95 C323.79,385.05 331.06,384.12 334.22,383.24 C337.79,382.19 339.48,380.88 341.34,379.01 C341.34,379.01 340.82,376.39 340.82,376.39 C338.22,374.56 334.61,373.14 329.80,372.34 C325.57,371.67 307.43,371.01 301.81,371.29 C298.21,371.49 291.30,372.67 288.75,373.60 C286.64,374.38 279.98,377.93 279.44,378.68 C279.44,378.68 283.84,379.45 283.84,379.45 C280.48,380.37 261.29,384.25 254.69,386.17 C249.29,387.79 246.12,388.89 243.32,390.35 C241.50,391.30 240.78,392.19 240.32,393.79 C242.41,394.71 243.85,395.08 245.63,395.02 C251.64,394.79 266.07,391.90 272.44,390.27 C275.50,389.47 281.84,387.46 285.77,385.59 C283.06,384.65 281.65,384.33 280.10,384.39 C275.02,384.63 257.75,386.87 250.07,388.57 C245.57,389.58 225.86,394.81 222.84,397.12 C222.66,397.26 222.08,398.41 221.42,398.85 C221.06,399.09 213.08,403.82 210.96,405.83 C208.83,407.93 208.62,410.22 209.12,411.80 C211.24,413.18 212.62,413.87 214.24,414.20 C219.44,415.24 231.24,415.28 240.18,414.44 C253.39,413.12 287.28,406.31 293.56,404.75 C290.99,403.32 286.49,402.75 282.80,402.97 C275.49,403.47 264.80,406.22 263.12,407.63 C265.17,409.31 266.79,410.09 269.32,410.38 C277.65,411.31 289.09,411.24 295.50,410.59 C299.65,410.17 315.65,407.48 322.37,405.62 C335.91,401.77 337.70,401.13 340.09,400.16 C340.09,400.16 338.79,401.57 338.79,401.57" fill="none" stroke="rgb(0, 0, 255)" stroke-width="3.42" stroke-opacity="1.00" stroke-linejoin="round"/>
</g>
</svg>
