<?xml version="1.0" encoding="UTF-8" standalone="no"?>
<!DOCTYPE svg PUBLIC "-//W3C//DTD SVG 1.1//EN" "http://www.w3.org/Graphics/SVG/1.1/DTD/svg11.dtd">
<svg width="128.40" height="181.68" viewBox="0.00 0.00 535.00 757.00" xmlns="http://www.w3.org/2000/svg" xmlns:xlink="http://www.w3.org/1999/xlink">
<g stroke-linecap="round" transform="translate(44.00, 155.00)" id="156-구름-2">
<path d="M289.76,-105.17 C289.72,-105.56 289.85,-106.37 290.06,-106.84 C290.57,-108.09 290.05,-113.90 288.98,-116.85 C288.73,-117.48 287.15,-120.58 286.53,-121.13 C283.98,-123.33 278.53,-124.39 276.79,-124.58 C274.23,-124.84 270.90,-124.46 266.64,-123.23 C264.18,-122.48 262.06,-121.56 260.84,-120.59 C258.44,-118.62 256.04,-113.23 255.58,-110.56 C255.21,-108.13 255.53,-103.83 256.24,-101.45 C256.99,-99.06 258.82,-95.76 260.34,-94.09 C261.67,-92.66 265.40,-89.69 267.26,-88.61 C269.41,-87.40 274.83,-85.51 277.30,-85.23 C280.10,-84.95 285.57,-85.95 288.10,-87.20 C292.55,-89.46 297.98,-96.32 298.35,-97.54 C298.92,-99.63 298.54,-102.69 297.32,-104.26 C296.30,-105.51 293.00,-107.65 291.57,-108.05 C290.02,-108.41 287.98,-107.84 286.89,-106.79 C284.91,-104.77 280.88,-99.35 280.53,-97.07 C280.38,-95.74 281.18,-92.42 282.04,-91.06 C283.89,-88.26 288.87,-85.54 290.69,-85.02 C291.98,-84.67 293.77,-84.51 295.05,-84.60 C295.66,-84.66 298.51,-85.06 300.01,-85.28" fill="none" stroke="rgb(0, 153, 67)" stroke-width="3.42" stroke-opacity="1.00" stroke-linejoin="round"/>
<path d="M260.82,-99.75 C261.34,-99.41 263.46,-96.29 266.52,-95.09 C269.76,-93.90 274.51,-93.96 277.36,-95.04 C279.63,-95.96 282.31,-97.81 286.53,-100.98" fill="none" stroke="rgb(0, 153, 67)" stroke-width="3.42" stroke-opacity="1.00" stroke-linejoin="round"/>
<path d="M298.80,-84.07 C298.80,-84.07 298.86,-85.88 298.86,-85.88 C302.55,-85.33 306.52,-85.22 309.84,-85.84 C315.84,-87.03 331.27,-93.35 333.34,-95.42 C334.45,-96.60 335.85,-99.66 335.85,-101.06 C335.80,-102.68 334.13,-104.90 332.36,-106.02 C329.51,-107.72 320.11,-108.79 318.15,-108.65 C315.40,-108.44 313.51,-107.60 312.13,-106.10 C311.66,-104.26 312.86,-100.72 314.75,-98.69 C316.88,-96.47 322.56,-94.08 325.17,-93.67 C327.26,-93.37 332.50,-93.43 334.92,-93.86 C343.16,-95.35 356.15,-100.05 358.42,-102.35 C360.13,-104.16 361.53,-108.31 360.89,-110.33 C360.33,-111.94 357.05,-115.59 355.01,-116.79 C351.11,-119.00 348.48,-118.52 347.70,-118.03 C350.53,-117.01 352.12,-116.67 353.42,-116.98 C356.10,-117.62 360.69,-119.72 363.22,-122.06 C365.48,-124.21 367.18,-128.47 366.66,-130.55 C366.07,-132.60 362.87,-135.57 359.94,-136.91 C356.78,-138.31 351.54,-139.78 348.59,-140.19 C343.51,-140.85 332.17,-139.80 327.39,-138.23 C325.49,-137.59 320.66,-135.02 319.28,-133.41 C318.42,-132.39 317.94,-130.73 318.16,-130.07 C318.43,-129.51 320.06,-128.66 321.20,-128.64 C322.60,-128.67 325.21,-130.44 325.95,-131.93 C326.66,-133.46 326.60,-136.73 325.90,-138.30 C324.93,-140.28 318.12,-145.23 315.66,-146.45 C313.97,-147.27 309.18,-148.54 306.85,-148.62 C304.87,-148.68 299.40,-148.02 296.84,-146.98 C294.52,-146.00 288.27,-142.33 285.39,-139.90 C282.71,-137.61 278.61,-133.45 277.77,-131.89 C277.41,-131.20 276.30,-128.93 275.89,-128.08" fill="none" stroke="rgb(0, 153, 67)" stroke-width="3.42" stroke-opacity="1.00" stroke-linejoin="round"/>
</g>
</svg>
