<?xml version="1.0" encoding="UTF-8" standalone="no"?>
<!DOCTYPE svg PUBLIC "-//W3C//DTD SVG 1.1//EN" "http://www.w3.org/Graphics/SVG/1.1/DTD/svg11.dtd">
<svg width="128.40" height="181.68" viewBox="0.00 0.00 535.00 757.00" xmlns="http://www.w3.org/2000/svg" xmlns:xlink="http://www.w3.org/1999/xlink">
<g stroke-linecap="round" transform="translate(44.00, 155.00)" id="157-사람">
<path d="M240.06,119.11 C240.06,119.11 238.61,119.11 238.61,119.11 C238.42,118.01 236.89,115.44 235.11,114.11 C231.31,111.30 220.21,107.25 215.97,106.48 C212.50,105.87 205.37,106.09 201.28,106.94 C197.50,107.77 191.86,110.16 189.02,112.53 C187.10,114.17 180.83,121.45 179.48,123.30 C177.74,125.72 174.48,132.77 173.75,135.32 C172.50,139.74 171.87,150.28 172.14,155.15 C172.29,157.66 173.02,162.04 173.70,164.13 C174.42,166.27 176.32,169.67 177.85,171.72 C179.70,174.08 184.01,177.15 188.28,178.65 C195.74,181.19 210.10,183.37 215.89,183.47 C218.00,183.50 226.90,183.32 228.45,183.02 C230.75,182.55 238.71,179.05 242.05,176.95 C245.11,174.98 248.01,171.98 249.60,169.67 C252.08,165.96 255.50,156.10 255.65,150.73 C255.72,146.89 254.72,142.08 253.77,139.36 C253.00,137.22 250.64,131.92 249.69,130.33 C248.44,128.27 242.57,121.85 242.15,121.45 C241.92,121.23 239.68,119.38 238.88,118.72" fill="none" stroke="rgb(0, 255, 255)" stroke-width="2.08" stroke-opacity="1.00" stroke-linejoin="round"/>
<path d="M249.56,131.38 C248.67,132.06 248.08,132.50 247.81,132.68 C246.10,133.87 242.17,140.18 241.26,141.56 C238.69,145.46 237.35,146.70 236.95,146.69 C234.41,142.62 231.76,131.88 231.38,130.84 C230.72,130.92 228.57,135.89 227.46,138.42 C226.01,141.70 223.29,146.02 222.57,146.10 C222.57,146.10 214.10,129.35 214.10,129.35 C213.11,133.50 207.18,143.83 205.71,145.83 C205.28,145.35 201.23,139.05 200.57,137.78 C198.97,134.67 198.11,130.66 197.64,127.92 C196.32,129.01 192.63,136.17 191.57,137.87 C190.45,139.66 188.24,142.15 187.32,142.26 C186.71,142.24 184.69,139.20 183.50,136.53 C182.60,134.45 181.34,130.74 180.30,127.42" fill="none" stroke="rgb(0, 255, 255)" stroke-width="2.08" stroke-opacity="1.00" stroke-linejoin="round"/>
<path d="M191.39,117.92 C191.39,117.92 190.40,117.73 190.40,117.73 C190.40,117.73 190.93,115.24 190.93,115.24 C190.93,115.24 181.17,125.95 181.17,125.95 C181.17,125.95 198.58,110.47 198.58,110.47 C198.58,110.47 180.06,128.94 180.06,128.94 C182.71,128.03 185.96,126.23 188.68,124.03 C194.25,119.41 204.34,111.02 206.29,109.26 C204.26,109.89 192.28,121.22 187.64,127.21 C185.11,130.52 184.75,131.51 184.70,132.59 C193.07,127.91 212.61,106.66 214.11,104.76 C211.53,106.10 200.61,117.90 196.03,122.80 C193.75,125.20 189.30,130.25 188.22,131.81 C191.15,130.45 195.97,126.23 198.83,123.75 C206.87,116.61 209.27,114.25 210.44,112.76 C210.44,112.76 189.21,134.68 189.21,134.68 C189.21,134.68 192.15,133.08 192.15,133.08" fill="none" stroke="rgb(0, 255, 255)" stroke-width="2.08" stroke-opacity="1.00" stroke-linejoin="round"/>
<path d="M186.24,132.96 C186.24,132.96 185.65,132.96 185.65,132.96 C185.65,132.96 185.45,133.23 185.45,133.23 C185.46,133.85 185.62,134.84 185.89,135.32 C186.00,135.50 186.24,135.79 186.62,136.19" fill="none" stroke="rgb(0, 255, 255)" stroke-width="2.08" stroke-opacity="1.00" stroke-linejoin="round"/>
<path d="M214.74,110.01 C213.18,110.03 212.22,110.08 211.83,110.15 C210.49,110.43 197.76,124.65 196.37,127.02 C196.37,127.02 196.85,128.12 196.85,128.12 C200.40,127.11 204.97,124.13 207.70,121.97 C211.93,118.58 221.61,108.99 222.53,107.86 C220.77,107.60 201.13,127.09 196.34,132.87 C199.22,132.24 207.06,125.81 215.51,118.48 C218.72,115.66 220.76,113.58 222.83,111.34 C220.29,113.05 208.51,123.32 204.71,127.54 C200.99,131.83 200.38,132.92 199.85,134.52 C202.95,133.61 206.33,131.24 208.70,129.35 C213.70,125.25 223.41,116.78 225.44,114.10 C221.99,115.73 216.43,120.61 214.67,122.26 C209.32,127.28 202.60,135.02 200.92,138.38 C200.92,138.38 201.69,139.41 201.69,139.41 C209.75,136.55 220.84,122.52 222.00,120.80 C220.70,120.98 207.77,133.90 205.41,137.65 C205.19,137.99 205.11,138.31 205.15,138.59 C205.15,138.59 207.48,137.61 207.48,137.61" fill="none" stroke="rgb(0, 255, 255)" stroke-width="2.08" stroke-opacity="1.00" stroke-linejoin="round"/>
<path d="M227.40,115.15 C227.40,115.15 227.13,114.16 227.13,114.16 C226.32,113.83 224.32,115.96 219.71,121.57 C217.29,124.54 213.45,129.27 212.63,131.71 C214.41,131.86 218.13,129.75 220.57,127.93 C225.69,124.06 233.29,115.91 235.32,113.28 C232.24,114.24 215.66,133.95 215.24,135.06 C215.24,135.06 233.71,119.46 233.71,119.46 C231.36,120.36 220.72,133.34 220.26,135.30 C220.20,135.55 220.20,136.03 220.24,136.75 C224.14,134.41 235.03,122.22 235.66,120.89 C233.60,121.73 224.85,132.07 221.91,137.18 C221.23,138.37 221.08,139.09 221.20,140.03 C221.20,140.03 237.37,122.92 237.37,122.92 C237.37,122.92 227.24,135.71 227.24,135.71" fill="none" stroke="rgb(0, 255, 255)" stroke-width="2.08" stroke-opacity="1.00" stroke-linejoin="round"/>
<path d="M240.46,122.67 C238.63,123.10 237.40,123.57 236.80,124.32 C235.84,125.53 233.13,131.28 233.06,132.15 C233.06,132.15 243.01,123.84 243.01,123.84 C243.01,123.84 234.40,139.01 234.40,139.01 C238.13,136.00 242.71,129.23 244.09,126.91 C238.99,134.21 238.25,138.72 238.35,139.42 C240.14,139.30 243.32,132.64 243.44,132.11 C239.78,136.21 238.97,141.32 239.17,141.88 C242.13,140.19 246.75,132.43 247.26,131.50 C247.26,131.50 244.44,134.20 244.44,134.20 C244.68,133.70 244.91,133.20 245.15,132.69 C246.05,130.70 246.27,128.61 244.61,127.12 C242.65,125.38 236.74,119.45 234.40,117.88 C231.81,116.18 223.54,113.50 222.55,113.02 C222.55,113.02 225.83,112.44 225.83,112.44" fill="none" stroke="rgb(0, 255, 255)" stroke-width="2.08" stroke-opacity="1.00" stroke-linejoin="round"/>
<path d="M188.62,149.58 C188.62,149.58 185.85,149.98 185.85,149.98 C186.40,149.30 189.96,148.89 191.82,148.95 C193.38,149.00 199.75,149.59 200.20,149.58 C200.20,149.58 200.09,149.98 200.09,149.98" fill="none" stroke="rgb(0, 255, 255)" stroke-width="2.08" stroke-opacity="1.00" stroke-linejoin="round"/>
<path d="M227.00,153.54 C226.87,153.54 226.74,153.54 226.61,153.54 C226.24,153.54 225.87,153.54 225.51,153.54 C225.51,153.54 237.25,154.68 237.25,154.68 C237.25,154.68 237.69,155.13 237.69,155.13" fill="none" stroke="rgb(0, 255, 255)" stroke-width="2.08" stroke-opacity="1.00" stroke-linejoin="round"/>
<path d="M201.28,163.04 C201.07,163.00 200.88,163.00 200.69,163.04 C200.50,163.08 200.05,163.21 199.35,163.44 C200.25,163.46 200.83,163.46 201.09,163.44 C201.34,163.41 201.62,163.32 201.93,163.16" fill="none" stroke="rgb(0, 255, 255)" stroke-width="2.08" stroke-opacity="1.00" stroke-linejoin="round"/>
<path d="M210.78,161.85 C210.78,161.85 209.59,161.85 209.59,161.85 C209.59,161.85 210.27,160.75 210.27,160.75 C210.27,160.75 209.99,161.06 209.99,161.06" fill="none" stroke="rgb(0, 255, 255)" stroke-width="2.08" stroke-opacity="1.00" stroke-linejoin="round"/>
<path d="M218.30,169.37 C218.31,169.32 218.31,169.25 218.30,169.17 C218.29,169.10 218.26,168.90 218.21,168.58 C217.19,169.03 208.14,170.20 208.10,170.21 C204.78,170.74 196.86,174.00 195.94,174.29 C195.74,174.35 195.41,174.43 194.95,174.52" fill="none" stroke="rgb(0, 255, 255)" stroke-width="2.08" stroke-opacity="1.00" stroke-linejoin="round"/>
<path d="M201.68,185.99 C201.68,185.99 201.28,185.60 201.28,185.60 C201.28,185.60 203.83,199.88 203.83,199.88 C205.05,199.87 206.81,196.98 208.22,192.52 C208.50,191.52 209.15,189.24 209.35,188.57 C209.63,187.61 210.46,185.02 210.78,184.02" fill="none" stroke="rgb(0, 255, 255)" stroke-width="2.08" stroke-opacity="1.00" stroke-linejoin="round"/>
<path d="M201.68,182.43 C201.68,182.43 200.88,181.64 200.88,181.64 C200.86,183.71 200.91,185.18 201.06,187.09 C201.12,187.81 201.18,188.54 201.24,189.26" fill="none" stroke="rgb(0, 255, 255)" stroke-width="2.08" stroke-opacity="1.00" stroke-linejoin="round"/>
<path d="M201.28,192.72 C200.27,192.46 198.48,191.96 198.18,191.93 C194.17,191.57 179.43,198.10 176.15,200.13 C172.70,202.33 163.79,212.89 160.38,218.75 C157.10,224.45 151.96,235.85 150.63,241.31 C150.23,242.97 148.80,250.66 148.04,254.08 C146.83,259.54 146.80,261.90 147.14,263.52 C147.14,263.52 163.81,264.74 163.81,264.74 C164.03,261.37 169.11,248.61 173.35,241.72 C175.15,238.82 180.97,232.25 187.17,227.40 C188.81,226.13 190.82,224.62 191.37,224.28 C191.62,224.13 191.89,224.04 192.18,223.99" fill="none" stroke="rgb(0, 255, 255)" stroke-width="2.08" stroke-opacity="1.00" stroke-linejoin="round"/>
<path d="M191.78,225.17 C191.78,225.17 190.59,225.97 190.59,225.97 C196.03,224.65 197.04,224.28 197.34,224.27 C197.46,224.27 197.85,224.31 198.51,224.38" fill="none" stroke="rgb(0, 255, 255)" stroke-width="2.08" stroke-opacity="1.00" stroke-linejoin="round"/>
<path d="M193.36,227.55 C193.36,227.55 191.90,227.04 191.90,227.04 C191.79,228.05 191.77,234.52 191.36,237.82 C191.16,239.39 188.51,249.33 186.99,259.64 C185.23,271.59 184.65,280.78 185.64,281.85 C188.34,281.78 199.12,281.94 211.07,281.51 C215.41,281.35 219.76,281.71 222.85,282.68 C224.01,283.04 226.24,283.75 227.30,284.10 C227.84,283.07 226.71,262.63 226.67,258.86 C226.61,236.09 228.16,227.19 228.47,226.01 C228.60,226.05 228.80,227.03 228.85,227.09 C228.89,227.14 238.10,233.79 238.90,234.47 C240.42,235.79 244.74,240.81 246.86,244.63 C248.52,247.62 255.16,262.99 256.65,269.03 C259.21,265.31 266.47,258.62 272.11,254.43 C275.57,251.84 277.05,249.78 276.84,248.54 C275.44,241.34 261.55,223.12 257.06,217.30 C253.90,213.23 252.63,211.89 248.47,208.30 C245.18,205.52 239.24,200.46 236.78,198.93 C234.70,197.66 229.99,196.08 225.14,194.96 C222.20,194.33 213.85,192.60 213.40,192.43 C213.09,192.31 212.48,192.01 211.57,191.53" fill="none" stroke="rgb(0, 255, 255)" stroke-width="2.08" stroke-opacity="1.00" stroke-linejoin="round"/>
<path d="M150.62,261.98 C150.62,261.98 149.55,261.98 149.55,261.98 C148.33,262.76 147.60,268.68 147.92,270.66 C148.27,272.54 149.78,274.30 152.02,275.43 C154.11,276.43 157.50,277.46 158.95,277.39 C161.84,277.21 165.71,274.40 166.54,272.89 C167.30,271.46 168.24,265.65 167.70,263.45 C167.59,262.99 167.30,262.37 166.85,261.58" fill="none" stroke="rgb(0, 255, 255)" stroke-width="2.08" stroke-opacity="1.00" stroke-linejoin="round"/>
<path d="M260.64,267.52 C260.05,267.84 259.65,268.03 259.46,268.11 C259.26,268.20 259.00,268.27 258.66,268.35 C259.51,270.37 261.64,273.94 264.03,274.46 C265.29,274.69 268.63,274.48 269.83,274.01 C271.18,273.45 273.93,271.14 274.83,269.87 C276.28,267.71 277.20,261.77 276.78,258.72 C276.52,256.99 275.80,254.48 275.24,253.13 C275.14,252.89 275.02,252.67 274.89,252.48" fill="none" stroke="rgb(0, 255, 255)" stroke-width="2.08" stroke-opacity="1.00" stroke-linejoin="round"/>
<path d="M189.41,283.75 C189.41,283.75 188.22,283.75 188.22,283.75 C188.48,286.59 188.63,291.53 188.58,297.78 C188.50,302.17 187.68,307.29 186.66,310.84 C183.52,321.30 179.51,340.69 176.27,370.58 C176.07,372.59 176.14,374.30 176.49,375.34 C177.14,377.03 182.27,380.17 185.25,380.85 C187.06,381.23 190.44,380.98 191.99,380.30 C194.69,379.06 197.86,373.68 198.81,370.70 C199.82,367.38 205.48,341.73 210.36,315.19 C209.84,322.09 208.28,342.06 208.20,343.53 C207.36,360.39 210.00,374.00 210.38,375.88 C213.90,378.68 217.93,381.37 221.12,382.36 C223.60,383.10 225.77,382.70 226.28,382.51 C226.41,382.62 224.85,368.39 224.69,358.89 C224.71,327.08 224.93,288.35 225.32,285.16 C225.34,284.97 225.38,284.76 225.42,284.54" fill="none" stroke="rgb(0, 255, 255)" stroke-width="2.08" stroke-opacity="1.00" stroke-linejoin="round"/>
<path d="M178.72,379.52 C178.47,379.11 178.30,378.84 178.23,378.73 C178.15,378.61 178.05,378.48 177.93,378.33 C177.87,379.02 173.45,382.86 172.24,384.11 C170.95,385.47 169.66,387.61 169.47,388.93 C169.30,390.38 170.01,393.66 170.82,395.09 C171.68,396.52 174.24,398.66 175.84,399.27 C179.19,400.44 186.28,399.21 188.55,397.97 C190.56,396.80 193.10,394.26 194.33,392.28 C195.71,389.95 196.93,384.07 196.38,381.04 C196.28,380.52 195.66,378.30 195.34,377.15" fill="none" stroke="rgb(0, 255, 255)" stroke-width="2.08" stroke-opacity="1.00" stroke-linejoin="round"/>
<path d="M213.94,381.50 C213.53,381.17 213.00,380.99 212.56,381.10 C211.79,381.36 211.01,384.41 210.59,388.03 C210.25,391.08 209.73,396.80 209.93,397.74 C210.05,398.20 210.77,399.30 211.34,399.59 C213.77,400.71 222.38,401.43 224.67,400.79 C227.32,399.99 230.94,395.57 231.73,392.85 C232.22,390.89 230.12,387.36 226.76,383.48 C225.57,382.11 224.83,381.21 224.46,380.68 C224.39,380.58 224.32,380.46 224.23,380.31" fill="none" stroke="rgb(0, 255, 255)" stroke-width="2.08" stroke-opacity="1.00" stroke-linejoin="round"/>
</g>
</svg>
