<?xml version="1.0" encoding="UTF-8" standalone="no"?>
<!DOCTYPE svg PUBLIC "-//W3C//DTD SVG 1.1//EN" "http://www.w3.org/Graphics/SVG/1.1/DTD/svg11.dtd">
<svg width="128.40" height="181.68" viewBox="0.00 0.00 535.00 757.00" xmlns="http://www.w3.org/2000/svg" xmlns:xlink="http://www.w3.org/1999/xlink">
<g stroke-linecap="round" transform="translate(44.00, 155.00)" id="158-비">
<path d="M58.22,-61.53 C56.54,-59.70 55.97,-58.45 56.19,-56.64 C56.85,-50.83 59.72,-35.47 61.74,-28.00 C62.56,-25.00 63.84,-22.24 65.25,-19.46" fill="none" stroke="rgb(0, 255, 255)" stroke-width="3.41" stroke-opacity="1.00" stroke-linejoin="round"/>
<path d="M116.91,-70.01 C116.91,-70.01 114.09,-70.01 114.09,-70.01 C113.20,-68.27 113.77,-63.18 114.43,-59.19 C115.86,-50.85 118.20,-37.51 118.92,-34.32 C119.13,-33.41 119.82,-30.89 120.03,-30.13" fill="none" stroke="rgb(0, 255, 255)" stroke-width="3.41" stroke-opacity="1.00" stroke-linejoin="round"/>
<path d="M157.22,-78.50 C160.21,-73.09 163.07,-64.84 166.18,-53.27 C167.02,-50.02 168.81,-42.96 169.05,-41.75 C170.55,-33.99 172.33,-24.81 172.60,-23.38" fill="none" stroke="rgb(0, 255, 255)" stroke-width="3.41" stroke-opacity="1.00" stroke-linejoin="round"/>
<path d="M115.50,-138.61 C115.50,-138.61 114.20,-138.61 114.20,-138.61 C113.38,-137.26 113.39,-130.61 113.40,-126.73 C113.55,-110.76 113.86,-88.05 114.10,-85.76 C114.41,-83.05 115.91,-78.90 116.59,-77.27" fill="none" stroke="rgb(0, 255, 255)" stroke-width="3.41" stroke-opacity="1.00" stroke-linejoin="round"/>
<path d="M79.43,-123.05 C79.37,-123.35 79.25,-123.58 79.08,-123.76 C78.91,-123.93 78.44,-124.29 77.67,-124.82 C77.31,-121.75 77.17,-107.08 77.10,-99.81 C76.93,-93.58 76.21,-80.38 75.97,-76.26" fill="none" stroke="rgb(0, 255, 255)" stroke-width="3.41" stroke-opacity="1.00" stroke-linejoin="round"/>
<path d="M46.90,-123.76 C46.88,-122.16 46.99,-119.81 47.61,-117.04 C47.71,-116.59 48.90,-112.13 49.26,-110.68 C49.63,-109.16 51.21,-101.79 51.49,-100.46" fill="none" stroke="rgb(0, 255, 255)" stroke-width="3.41" stroke-opacity="1.00" stroke-linejoin="round"/>
<path d="M174.20,-137.90 C174.20,-137.90 173.49,-137.90 173.49,-137.90 C172.68,-137.62 172.08,-136.12 171.72,-133.23 C171.31,-129.84 173.63,-100.66 173.71,-100.02 C174.10,-97.27 174.69,-94.24 175.06,-92.96" fill="none" stroke="rgb(0, 255, 255)" stroke-width="3.41" stroke-opacity="1.00" stroke-linejoin="round"/>
<path d="M209.55,-61.53 C211.20,-61.55 214.95,-60.82 216.63,-58.75 C220.00,-54.45 225.64,-41.84 228.02,-34.78 C228.70,-32.75 229.62,-29.80 230.06,-28.29" fill="none" stroke="rgb(0, 255, 255)" stroke-width="3.41" stroke-opacity="1.00" stroke-linejoin="round"/>
<path d="M209.55,-125.17 C209.60,-125.10 209.01,-121.41 209.16,-116.08 C209.21,-114.39 210.63,-88.31 210.86,-86.49 C211.08,-84.81 212.46,-80.66 212.81,-79.63" fill="none" stroke="rgb(0, 255, 255)" stroke-width="3.41" stroke-opacity="1.00" stroke-linejoin="round"/>
<path d="M261.18,-133.66 C261.18,-133.66 259.23,-133.31 259.23,-133.31 C258.37,-131.07 258.38,-126.44 258.59,-122.84 C258.83,-118.87 259.37,-110.66 259.67,-106.42 C260.27,-98.89 261.51,-91.16 261.65,-90.29" fill="none" stroke="rgb(0, 255, 255)" stroke-width="3.41" stroke-opacity="1.00" stroke-linejoin="round"/>
<path d="M265.42,-65.77 C265.42,-65.77 264.36,-65.77 264.36,-65.77 C264.94,-66.46 269.77,-68.65 272.86,-69.24 C274.63,-69.56 279.32,-69.36 281.34,-68.65 C283.55,-67.84 287.77,-64.61 289.43,-62.41 C292.66,-58.01 295.70,-46.34 297.06,-37.37 C297.33,-35.47 297.78,-32.35 297.95,-31.12" fill="none" stroke="rgb(0, 255, 255)" stroke-width="3.41" stroke-opacity="1.00" stroke-linejoin="round"/>
<path d="M302.90,-142.85 C302.90,-142.85 302.55,-142.85 302.55,-142.85 C301.81,-140.80 301.02,-134.16 300.53,-129.98 C300.07,-125.91 299.18,-117.89 298.75,-113.95 C298.33,-109.96 297.65,-103.52 297.39,-101.06" fill="none" stroke="rgb(0, 255, 255)" stroke-width="3.41" stroke-opacity="1.00" stroke-linejoin="round"/>
<path d="M337.55,-77.79 C337.55,-77.79 337.55,-78.50 337.55,-78.50 C338.99,-78.76 341.84,-76.75 344.47,-72.84 C346.45,-69.81 350.23,-56.45 351.32,-47.70 C352.02,-41.95 352.35,-31.49 352.39,-30.38" fill="none" stroke="rgb(0, 255, 255)" stroke-width="3.41" stroke-opacity="1.00" stroke-linejoin="round"/>
<path d="M348.87,-151.34 C347.20,-149.57 346.05,-147.75 345.69,-146.03 C345.44,-144.84 345.60,-138.80 346.00,-135.57 C346.18,-134.21 346.83,-129.83 347.07,-128.20" fill="none" stroke="rgb(0, 255, 255)" stroke-width="3.41" stroke-opacity="1.00" stroke-linejoin="round"/>
<path d="M355.94,-146.39 C355.40,-145.20 354.73,-142.85 354.53,-141.08 C354.46,-140.47 354.74,-132.09 354.91,-128.47 C355.04,-124.64 355.23,-116.89 355.28,-112.96 C355.27,-109.16 355.25,-102.91 355.23,-100.46" fill="none" stroke="rgb(0, 255, 255)" stroke-width="3.41" stroke-opacity="1.00" stroke-linejoin="round"/>
<path d="M387.76,-148.51 C387.78,-148.49 387.78,-148.37 387.76,-148.16 C387.68,-147.21 385.30,-126.12 384.45,-119.12 C384.28,-117.35 383.71,-109.73 383.52,-107.02" fill="none" stroke="rgb(0, 255, 255)" stroke-width="3.41" stroke-opacity="1.00" stroke-linejoin="round"/>
<path d="M401.91,-142.85 C401.91,-142.85 401.55,-142.85 401.55,-142.85 C400.69,-141.89 400.17,-141.08 399.94,-140.06 C399.41,-137.62 398.40,-122.09 398.45,-121.11 C398.57,-118.38 399.00,-115.76 399.41,-114.72" fill="none" stroke="rgb(0, 255, 255)" stroke-width="3.41" stroke-opacity="1.00" stroke-linejoin="round"/>
<path d="M408.98,-142.14 C407.69,-139.22 407.54,-134.70 407.56,-128.15 C407.56,-121.41 407.56,-111.89 407.56,-109.10" fill="none" stroke="rgb(0, 255, 255)" stroke-width="3.41" stroke-opacity="1.00" stroke-linejoin="round"/>
<path d="M377.16,-89.81 C375.99,-87.74 375.45,-84.73 375.16,-77.96 C375.06,-74.62 374.92,-68.70 375.03,-66.21 C375.13,-64.32 375.61,-58.02 375.71,-56.82" fill="none" stroke="rgb(0, 255, 255)" stroke-width="3.41" stroke-opacity="1.00" stroke-linejoin="round"/>
<path d="M399.79,-95.47 C399.43,-94.42 396.67,-90.67 395.44,-87.62 C393.04,-81.55 388.62,-68.19 387.24,-62.30 C386.82,-60.51 386.10,-56.94 385.84,-55.61" fill="none" stroke="rgb(0, 255, 255)" stroke-width="3.41" stroke-opacity="1.00" stroke-linejoin="round"/>
<path d="M408.27,-95.47 C406.65,-93.77 405.97,-92.83 405.68,-91.68 C404.86,-88.50 400.43,-67.95 399.68,-65.13 C398.55,-60.93 397.28,-58.05 396.96,-57.28" fill="none" stroke="rgb(0, 255, 255)" stroke-width="3.41" stroke-opacity="1.00" stroke-linejoin="round"/>
</g>
</svg>
