<?xml version="1.0" encoding="UTF-8" standalone="no"?>
<!DOCTYPE svg PUBLIC "-//W3C//DTD SVG 1.1//EN" "http://www.w3.org/Graphics/SVG/1.1/DTD/svg11.dtd">
<svg width="128.40" height="181.68" viewBox="0.00 0.00 535.00 757.00" xmlns="http://www.w3.org/2000/svg" xmlns:xlink="http://www.w3.org/1999/xlink">
<g stroke-linecap="round" transform="translate(44.00, 155.00)" id="159-구름-2">
<path d="M155.35,-22.04 C155.35,-22.04 153.62,-20.94 153.62,-20.94 C153.75,-23.20 154.35,-26.74 154.38,-28.02 C154.39,-29.18 151.09,-38.90 150.20,-40.27 C149.02,-42.03 145.88,-44.03 143.40,-44.86 C141.80,-45.38 135.18,-46.87 131.89,-47.04 C129.14,-47.18 123.94,-46.60 119.14,-45.77 C117.40,-47.02 115.94,-48.41 115.42,-48.83 C114.50,-49.53 112.55,-50.04 111.30,-49.85 C108.95,-49.41 106.01,-47.31 103.63,-45.43 C102.44,-45.31 96.02,-47.34 94.12,-47.33 C91.97,-47.23 87.37,-43.40 87.19,-43.40 C86.91,-43.51 82.07,-47.37 80.28,-47.42 C78.32,-47.41 73.76,-44.56 72.22,-42.98 C70.72,-41.38 68.78,-38.10 67.66,-35.47 C66.89,-33.59 66.34,-29.73 66.12,-25.68 C65.97,-22.74 66.55,-18.34 67.30,-16.33 C68.11,-14.27 71.13,-11.40 73.17,-10.73 C75.34,-10.06 79.53,-10.11 81.22,-10.74 C84.98,-12.18 87.20,-14.63 88.15,-16.05 C88.48,-12.81 90.54,-8.26 92.49,-7.09 C93.56,-6.48 95.87,-6.35 97.36,-6.72 C98.78,-7.11 103.44,-9.97 103.96,-10.25 C104.37,-9.79 108.85,-4.00 111.38,-2.63 C112.87,-1.86 116.04,-1.13 117.38,-1.28 C118.65,-1.46 120.64,-2.68 121.06,-3.61 C121.51,-4.97 122.14,-6.79 122.57,-7.03 C122.57,-7.03 124.62,-6.94 124.62,-6.94" fill="none" stroke="rgb(255, 0, 255)" stroke-width="3.44" stroke-opacity="1.00" stroke-linejoin="round"/>
<path d="M123.84,-3.05 C123.84,-3.05 122.11,-2.18 122.11,-2.18 C124.02,-1.78 132.23,1.69 133.88,1.71 C136.47,1.68 140.32,-1.70 142.06,-4.05 C143.22,-5.66 144.17,-11.33 145.37,-12.44 C146.27,-12.52 151.81,-12.41 153.67,-13.52 C154.58,-14.11 156.36,-15.61 156.80,-16.45 C157.69,-18.22 158.26,-21.41 157.97,-23.22 C157.71,-24.64 156.75,-26.80 155.92,-28.04 C155.61,-28.48 153.50,-31.38 152.76,-32.40" fill="none" stroke="rgb(255, 0, 255)" stroke-width="3.44" stroke-opacity="1.00" stroke-linejoin="round"/>
<path d="M157.50,-26.78 C157.22,-26.73 156.67,-27.11 156.44,-27.22 C155.79,-27.58 152.74,-32.23 151.09,-33.40 C150.85,-33.56 148.12,-35.03 147.23,-35.59 C147.23,-35.59 147.07,-36.45 147.07,-36.45" fill="none" stroke="rgb(255, 0, 255)" stroke-width="3.44" stroke-opacity="1.00" stroke-linejoin="round"/>
</g>
</svg>
