<?xml version="1.0" encoding="UTF-8" standalone="no"?>
<!DOCTYPE svg PUBLIC "-//W3C//DTD SVG 1.1//EN" "http://www.w3.org/Graphics/SVG/1.1/DTD/svg11.dtd">
<svg width="128.40" height="181.68" viewBox="0.00 0.00 535.00 757.00" xmlns="http://www.w3.org/2000/svg" xmlns:xlink="http://www.w3.org/1999/xlink">
<g stroke-linecap="round" transform="translate(44.00, 155.00)" id="159-지면">
<path d="M-28.65,342.43 C-28.65,342.43 -28.18,339.72 -28.18,339.72 C-28.18,339.72 -28.57,339.22 -28.57,339.22 C-28.57,339.22 -30.18,339.13 -30.18,339.13 C-24.01,340.35 -12.53,340.99 -3.53,340.63 C5.37,340.34 21.78,340.52 25.42,340.81 C31.63,341.33 50.69,345.79 53.94,346.45 C59.88,347.64 86.22,349.99 109.42,353.42 C121.08,355.25 133.51,358.01 137.47,358.71 C146.53,360.19 155.14,361.11 166.18,361.83 C169.98,362.08 199.15,367.44 202.40,368.14 C207.20,369.15 211.49,369.10 212.61,369.28 C213.06,369.35 213.72,369.61 214.59,370.07" fill="none" stroke="rgb(0, 255, 0)" stroke-width="3.44" stroke-opacity="1.00" stroke-linejoin="round"/>
<path d="M241.71,371.63 C241.78,370.65 241.85,370.02 241.95,369.74 C242.04,369.47 242.27,369.15 242.65,368.80 C242.87,368.83 246.07,370.46 249.63,371.32 C252.79,372.04 266.38,373.17 268.40,373.79 C268.75,373.90 268.93,374.07 268.92,374.30" fill="none" stroke="rgb(0, 255, 0)" stroke-width="3.44" stroke-opacity="1.00" stroke-linejoin="round"/>
<path d="M301.06,365.03 C301.06,365.03 299.65,364.09 299.65,364.09 C301.37,364.13 319.26,366.28 326.79,366.93 C330.58,367.18 351.43,367.67 357.11,368.18 C371.86,369.56 399.63,369.68 416.68,371.03 C432.06,372.04 464.95,372.23 467.71,373.16 C468.23,373.34 469.40,373.85 471.22,374.71" fill="none" stroke="rgb(0, 255, 0)" stroke-width="3.44" stroke-opacity="1.00" stroke-linejoin="round"/>
<path d="M473.45,441.81 C473.45,441.81 473.30,440.65 473.30,440.65 C471.63,439.90 420.82,439.97 413.35,439.44 C384.63,437.22 341.76,433.33 338.11,433.33 C337.23,433.33 336.35,433.33 335.47,433.33" fill="none" stroke="rgb(0, 255, 0)" stroke-width="3.44" stroke-opacity="1.00" stroke-linejoin="round"/>
<path d="M412.22,432.39 C409.33,432.37 407.76,432.40 401.34,432.71 C398.18,432.86 360.47,433.77 346.76,434.29 C339.44,434.66 321.16,435.83 319.36,435.90 C308.62,436.26 291.96,433.08 290.90,432.88 C290.90,432.88 291.42,432.86 291.42,432.86" fill="none" stroke="rgb(0, 255, 0)" stroke-width="3.44" stroke-opacity="1.00" stroke-linejoin="round"/>
<path d="M279.86,426.27 C275.80,426.30 261.25,424.19 254.02,422.97 C246.03,422.10 205.84,423.19 195.05,422.64 C180.27,421.78 152.94,420.45 140.03,419.45 C127.35,418.23 119.96,417.87 108.93,418.02 C96.36,418.19 64.88,417.37 54.59,416.65 C23.59,413.79 -25.05,409.16 -29.29,409.31 C-29.29,409.31 -29.12,409.31 -29.12,409.31" fill="none" stroke="rgb(0, 255, 0)" stroke-width="3.44" stroke-opacity="1.00" stroke-linejoin="round"/>
</g>
</svg>
