<?xml version="1.0" encoding="UTF-8" standalone="no"?>
<!DOCTYPE svg PUBLIC "-//W3C//DTD SVG 1.1//EN" "http://www.w3.org/Graphics/SVG/1.1/DTD/svg11.dtd">
<svg width="128.40" height="181.68" viewBox="0.00 0.00 535.00 757.00" xmlns="http://www.w3.org/2000/svg" xmlns:xlink="http://www.w3.org/1999/xlink">
<g stroke-linecap="round" transform="translate(44.00, 155.00)" id="159-구름-3">
<path d="M323.66,-33.26 C323.66,-33.26 323.52,-34.12 323.52,-34.12 C321.62,-34.05 320.48,-34.22 319.31,-34.98 C315.64,-37.35 308.17,-39.96 307.84,-40.09 C304.08,-41.65 301.76,-41.99 299.13,-41.43 C296.51,-40.82 294.32,-38.13 294.27,-37.25 C294.25,-37.45 292.31,-38.26 290.48,-38.76 C289.10,-39.12 286.97,-38.86 285.98,-38.28 C284.26,-37.14 282.40,-30.21 282.18,-30.02 C281.02,-29.89 275.71,-31.23 273.49,-31.29 C272.10,-31.31 269.92,-30.91 268.69,-30.44 C266.66,-29.58 263.57,-24.83 263.08,-22.41 C261.80,-21.49 257.43,-18.23 256.50,-15.53 C255.60,-12.83 255.99,-4.45 255.92,-4.17 C255.70,-3.29 253.85,0.87 253.76,1.46 C253.60,2.59 253.84,4.47 254.27,5.53 C255.09,7.35 259.00,9.88 262.46,10.93 C264.78,11.56 268.58,11.70 273.58,11.51 C277.45,11.34 280.72,10.67 284.20,8.77 C284.47,8.63 284.65,8.58 284.76,8.61 C285.43,11.89 287.95,16.56 290.38,17.84 C292.12,18.71 301.67,19.73 303.64,20.32 C304.56,20.58 305.48,20.85 306.40,21.12" fill="none" stroke="rgb(255, 0, 255)" stroke-width="3.44" stroke-opacity="1.00" stroke-linejoin="round"/>
<path d="M306.40,19.40 C306.40,19.40 304.24,18.53 304.24,18.53 C308.09,17.97 316.31,15.00 316.53,14.92 C317.88,14.51 319.14,14.61 320.06,15.23 C320.63,15.62 323.00,17.55 323.68,17.97 C326.30,19.58 334.45,20.93 337.52,20.54 C340.66,20.09 343.33,18.06 346.27,15.06 C347.10,14.19 348.49,12.72 349.06,12.13" fill="none" stroke="rgb(255, 0, 255)" stroke-width="3.44" stroke-opacity="1.00" stroke-linejoin="round"/>
<path d="M346.11,11.63 C346.11,11.63 344.38,12.49 344.38,12.49 C345.35,13.13 352.30,16.81 353.50,17.32 C356.60,18.61 360.13,18.72 361.44,17.51 C362.31,16.67 365.19,11.25 365.48,8.94 C365.71,6.74 363.90,3.67 362.25,1.07 C363.50,1.55 367.49,-0.37 370.02,-3.16 C372.00,-5.45 373.86,-9.80 373.81,-12.17 C373.74,-13.92 371.76,-18.03 370.38,-19.71 C369.61,-20.60 367.15,-22.72 366.03,-23.33 C363.53,-24.65 360.92,-23.63 359.63,-22.85 C359.64,-23.51 359.58,-28.84 358.38,-30.34 C357.57,-31.32 355.48,-31.89 353.91,-31.72 C352.98,-31.61 350.12,-31.11 349.40,-30.96 C347.73,-30.63 344.22,-32.35 339.59,-35.35 C334.95,-38.29 331.23,-40.17 328.44,-39.82 C327.53,-39.69 320.32,-38.02 319.12,-37.78 C318.04,-37.56 316.97,-37.35 315.90,-37.14" fill="none" stroke="rgb(255, 0, 255)" stroke-width="3.44" stroke-opacity="1.00" stroke-linejoin="round"/>
</g>
</svg>
