<?xml version="1.0" encoding="UTF-8" standalone="no"?>
<!DOCTYPE svg PUBLIC "-//W3C//DTD SVG 1.1//EN" "http://www.w3.org/Graphics/SVG/1.1/DTD/svg11.dtd">
<svg width="128.40" height="181.68" viewBox="0.00 0.00 535.00 757.00" xmlns="http://www.w3.org/2000/svg" xmlns:xlink="http://www.w3.org/1999/xlink">
<g stroke-linecap="round" transform="translate(44.00, 155.00)" id="160-비">
<path d="M35.99,142.05 C35.49,142.05 34.99,142.05 34.50,142.05 C33.56,142.05 31.92,142.05 31.22,142.05 C30.96,142.09 29.53,159.75 28.91,167.98 C27.69,189.91 29.46,198.44 30.22,201.29" fill="none" stroke="rgb(0, 255, 255)" stroke-width="3.44" stroke-opacity="1.00" stroke-linejoin="round"/>
<path d="M74.04,133.32 C74.04,133.32 74.04,133.01 74.04,133.01 C74.04,133.01 73.42,133.15 73.42,133.15 C73.38,153.76 75.07,196.18 76.60,217.43 C78.65,240.77 80.19,248.33 80.40,249.37" fill="none" stroke="rgb(0, 255, 255)" stroke-width="3.44" stroke-opacity="1.00" stroke-linejoin="round"/>
<path d="M87.14,285.52 C86.07,286.12 84.06,287.59 83.40,288.48 C82.68,289.51 82.98,291.34 84.05,294.20 C86.64,300.87 88.22,310.20 89.25,322.13 C90.05,332.96 88.23,351.12 87.89,353.81" fill="none" stroke="rgb(0, 255, 255)" stroke-width="3.44" stroke-opacity="1.00" stroke-linejoin="round"/>
<path d="M44.73,277.41 C44.73,277.41 45.04,276.79 45.04,276.79 C45.04,276.79 45.97,276.63 45.97,276.63 C47.95,281.62 48.63,290.93 48.96,303.09 C49.04,308.22 47.78,322.86 47.10,330.37" fill="none" stroke="rgb(0, 255, 255)" stroke-width="3.44" stroke-opacity="1.00" stroke-linejoin="round"/>
<path d="M15.41,259.95 C15.41,259.95 13.85,260.26 13.85,260.26 C12.46,263.94 10.92,277.52 10.39,285.17 C10.12,290.04 10.12,309.50 10.18,317.59 C10.39,331.57 12.58,350.31 13.20,355.49" fill="none" stroke="rgb(0, 255, 255)" stroke-width="3.44" stroke-opacity="1.00" stroke-linejoin="round"/>
<path d="M51.59,384.08 C52.10,399.19 52.76,421.35 52.41,427.91 C52.05,434.31 50.80,441.40 50.59,442.52" fill="none" stroke="rgb(0, 255, 255)" stroke-width="3.44" stroke-opacity="1.00" stroke-linejoin="round"/>
<path d="M87.77,378.46 C85.66,387.30 85.34,393.63 85.21,404.15 C85.16,407.87 84.93,416.79 84.79,419.29 C84.67,421.35 84.17,427.03 84.08,428.00" fill="none" stroke="rgb(0, 255, 255)" stroke-width="3.44" stroke-opacity="1.00" stroke-linejoin="round"/>
<path d="M176.97,135.81 C176.97,135.81 174.78,135.19 174.78,135.19 C174.27,136.80 173.25,154.68 172.77,163.45 C171.90,181.86 171.83,196.66 171.81,203.31" fill="none" stroke="rgb(0, 255, 255)" stroke-width="3.44" stroke-opacity="1.00" stroke-linejoin="round"/>
<path d="M178.21,270.55 C178.21,270.55 177.59,269.61 177.59,269.61 C177.83,272.76 179.90,289.98 180.86,298.16 C181.66,305.77 182.87,321.06 183.23,328.09 C183.67,342.14 183.82,360.66 183.83,361.88" fill="none" stroke="rgb(0, 255, 255)" stroke-width="3.44" stroke-opacity="1.00" stroke-linejoin="round"/>
<path d="M251.82,127.70 C251.82,127.70 249.64,127.70 249.64,127.70 C249.25,128.89 249.58,134.80 249.72,137.32 C250.13,145.06 250.90,161.00 251.25,169.19 C251.45,177.14 251.70,187.40 251.75,189.72" fill="none" stroke="rgb(0, 255, 255)" stroke-width="3.44" stroke-opacity="1.00" stroke-linejoin="round"/>
<path d="M332.91,113.98 C331.68,115.14 330.38,118.26 329.96,121.07 C329.69,122.94 328.82,131.42 328.49,134.87 C327.71,142.90 326.31,154.93 325.91,158.17" fill="none" stroke="rgb(0, 255, 255)" stroke-width="3.44" stroke-opacity="1.00" stroke-linejoin="round"/>
<path d="M351.63,87.16 C349.77,89.10 349.08,90.65 349.44,92.41 C349.61,93.20 352.81,100.92 354.23,104.21 C354.99,105.95 356.24,108.83 356.74,109.97" fill="none" stroke="rgb(0, 255, 255)" stroke-width="3.44" stroke-opacity="1.00" stroke-linejoin="round"/>
<path d="M395.92,118.97 C395.92,118.97 395.29,119.49 395.29,119.49 C395.26,125.15 399.51,161.82 401.25,177.28 C402.84,192.61 405.87,220.99 407.23,228.06" fill="none" stroke="rgb(0, 255, 255)" stroke-width="3.44" stroke-opacity="1.00" stroke-linejoin="round"/>
<path d="M372.21,244.35 C372.21,244.35 374.08,238.82 374.08,238.82 C374.03,250.20 375.23,283.52 375.86,299.08 C376.34,320.96 375.73,327.49 375.65,328.43" fill="none" stroke="rgb(0, 255, 255)" stroke-width="3.44" stroke-opacity="1.00" stroke-linejoin="round"/>
<path d="M428.35,243.73 C428.35,243.73 429.60,242.48 429.60,242.48 C429.18,243.05 424.80,245.60 422.98,249.04 C419.80,255.24 416.60,268.25 415.45,275.93 C414.32,283.86 412.63,320.27 411.74,332.93 C411.02,342.09 410.06,354.17 409.82,357.08" fill="none" stroke="rgb(0, 255, 255)" stroke-width="3.44" stroke-opacity="1.00" stroke-linejoin="round"/>
<path d="M389.68,361.00 C388.78,363.97 388.39,369.37 388.43,375.02 C388.65,383.44 389.00,399.62 389.13,407.37 C389.09,419.70 387.57,436.41 387.18,439.60" fill="none" stroke="rgb(0, 255, 255)" stroke-width="3.44" stroke-opacity="1.00" stroke-linejoin="round"/>
<path d="M429.60,387.82 C429.60,387.82 428.35,387.20 428.35,387.20 C428.36,394.54 429.02,403.78 430.30,415.92 C431.12,423.10 432.30,433.17 432.66,436.06" fill="none" stroke="rgb(0, 255, 255)" stroke-width="3.44" stroke-opacity="1.00" stroke-linejoin="round"/>
</g>
</svg>
