<?xml version="1.0" encoding="UTF-8" standalone="no"?>
<!DOCTYPE svg PUBLIC "-//W3C//DTD SVG 1.1//EN" "http://www.w3.org/Graphics/SVG/1.1/DTD/svg11.dtd">
<svg width="128.40" height="181.68" viewBox="0.00 0.00 535.00 757.00" xmlns="http://www.w3.org/2000/svg" xmlns:xlink="http://www.w3.org/1999/xlink">
<g stroke-linecap="round" transform="translate(44.00, 155.00)" id="160-우산">
<path d="M120.20,-148.63 C119.82,-148.99 119.51,-149.19 119.27,-149.26 C119.03,-149.32 118.52,-149.32 117.75,-149.26 C118.80,-149.23 124.68,-144.30 126.54,-144.04 C130.96,-143.54 137.50,-148.54 138.58,-149.58 C138.58,-149.58 122.40,-148.03 122.40,-148.03 C124.50,-147.94 131.07,-148.19 137.62,-148.56 C141.93,-148.83 147.56,-149.17 148.90,-149.26" fill="none" stroke="rgb(255, 255, 0)" stroke-width="3.44" stroke-opacity="1.00" stroke-linejoin="round"/>
<path d="M261.80,-149.26 C261.66,-148.75 261.55,-148.44 261.49,-148.32 C261.43,-148.20 261.32,-148.09 261.18,-148.01 C262.24,-148.63 281.92,-147.90 282.71,-147.78 C285.99,-147.26 293.96,-143.81 297.65,-142.12 C302.78,-139.75 304.56,-138.72 308.34,-135.52 C315.54,-129.39 324.71,-122.99 330.84,-117.72 C341.88,-107.72 359.43,-91.63 371.30,-79.77 C379.35,-71.75 385.63,-65.13 389.26,-60.36 C392.36,-56.26 414.24,-24.71 421.54,-13.90 C425.20,-8.48 433.82,4.46 435.31,8.38 C436.03,10.33 438.28,17.09 438.96,19.17" fill="none" stroke="rgb(255, 255, 0)" stroke-width="3.44" stroke-opacity="1.00" stroke-linejoin="round"/>
<path d="M442.70,31.02 C442.70,31.02 442.18,32.27 442.18,32.27 C440.62,24.33 436.10,13.29 433.00,8.16 C431.03,4.91 421.84,-8.52 417.95,-12.92 C415.69,-15.47 402.49,-28.42 397.79,-34.21 C395.65,-36.85 384.08,-52.02 379.62,-57.64 C375.19,-62.96 363.21,-77.42 361.82,-79.00 C356.99,-84.46 347.15,-92.82 339.80,-97.93 C336.12,-100.50 323.92,-110.64 316.56,-115.71 C311.21,-119.38 296.18,-127.41 293.11,-129.62 C287.38,-133.82 274.64,-142.95 271.16,-144.09 C267.90,-145.14 259.47,-147.85 258.41,-148.60 C257.98,-148.91 257.45,-149.54 256.81,-150.50" fill="none" stroke="rgb(255, 255, 0)" stroke-width="3.44" stroke-opacity="1.00" stroke-linejoin="round"/>
<path d="M154.51,-144.89 C154.51,-144.89 151.39,-147.35 151.39,-147.35 C151.50,-147.68 170.90,-147.78 174.06,-146.95 C177.39,-146.06 195.90,-139.64 203.08,-137.10 C205.68,-136.14 222.82,-128.39 228.49,-126.07 C234.16,-123.84 252.92,-117.16 256.45,-115.64 C263.06,-112.77 272.17,-107.88 278.84,-103.48 C284.64,-99.57 297.90,-89.14 304.26,-84.08 C310.03,-79.42 319.74,-71.59 325.43,-65.82 C343.91,-46.55 349.29,-40.00 354.57,-32.94 C357.48,-28.83 363.16,-16.60 366.32,-9.74 C370.55,-0.90 374.74,6.20 380.16,14.40 C384.26,20.39 392.33,32.43 395.88,38.42 C402.69,50.22 411.63,71.76 413.27,77.16 C413.51,78.00 413.76,78.83 414.00,79.67" fill="none" stroke="rgb(255, 255, 0)" stroke-width="3.44" stroke-opacity="1.00" stroke-linejoin="round"/>
<path d="M148.27,-145.51 C148.27,-145.51 147.03,-144.27 147.03,-144.27 C149.47,-144.53 154.54,-145.66 156.74,-145.39 C159.98,-144.97 165.54,-142.49 167.90,-141.08 C173.15,-137.91 185.27,-126.47 189.76,-122.74 C192.45,-120.51 205.82,-110.55 211.94,-105.81 C221.34,-98.43 223.99,-96.13 230.93,-88.92 C236.28,-83.29 246.09,-72.67 250.56,-67.67 C256.16,-61.12 283.38,-23.89 286.22,-19.08 C289.88,-12.79 296.02,-2.14 300.66,6.93 C306.51,19.24 318.92,45.01 325.11,57.09 C331.04,69.09 336.81,87.17 337.16,87.86 C337.33,88.20 337.79,89.00 338.53,90.28" fill="none" stroke="rgb(255, 255, 0)" stroke-width="3.44" stroke-opacity="1.00" stroke-linejoin="round"/>
<path d="M142.04,-146.76 C142.04,-146.76 138.92,-146.76 138.92,-146.76 C141.67,-145.55 147.40,-143.06 150.01,-140.87 C151.38,-139.67 162.12,-122.97 164.05,-120.33 C164.66,-119.51 169.68,-113.54 169.95,-113.15 C171.79,-110.45 182.45,-90.11 184.31,-86.94 C188.03,-81.01 194.48,-69.64 196.48,-64.92 C199.31,-58.17 202.88,-47.00 205.82,-36.17 C211.59,-13.81 218.90,9.99 221.66,20.34 C226.75,40.64 234.45,67.67 238.91,78.81 C239.89,81.24 243.07,88.41 244.22,90.97 C244.84,92.30 245.73,94.20 246.21,95.27" fill="none" stroke="rgb(255, 255, 0)" stroke-width="3.44" stroke-opacity="1.00" stroke-linejoin="round"/>
<path d="M121.45,-139.90 C120.59,-138.54 120.07,-137.71 119.89,-137.40 C119.72,-137.10 119.64,-136.89 119.66,-136.78 C121.38,-133.03 122.05,-127.11 122.47,-123.56 C123.96,-107.08 126.09,-75.15 126.68,-58.86 C127.15,-39.81 126.58,-9.26 126.84,-1.68 C127.37,13.57 128.47,43.19 127.86,58.16 C126.71,77.87 127.27,91.98 127.24,92.16 C127.15,92.62 125.86,94.68 125.19,95.89" fill="none" stroke="rgb(255, 255, 0)" stroke-width="3.44" stroke-opacity="1.00" stroke-linejoin="round"/>
<path d="M122.07,-148.63 C122.07,-148.63 118.33,-146.14 118.33,-146.14 C118.33,-146.14 106.84,-131.08 102.68,-125.67 C99.91,-122.08 90.47,-102.55 89.23,-100.10 C82.58,-87.57 68.04,-58.58 63.79,-51.30 C60.39,-45.66 52.11,-32.48 49.32,-27.31 C42.83,-14.75 24.78,17.78 21.23,25.56 C20.39,27.39 1.75,71.92 -1.71,83.68 C-4.32,92.88 -5.01,96.56 -5.31,97.03 C-5.52,97.35 -6.10,98.01 -7.05,99.01" fill="none" stroke="rgb(255, 255, 0)" stroke-width="3.44" stroke-opacity="1.00" stroke-linejoin="round"/>
<path d="M108.98,-149.26 C107.71,-149.35 105.53,-149.28 104.22,-148.99 C103.42,-148.81 70.53,-131.65 56.90,-124.62 C49.08,-120.56 36.95,-112.34 30.33,-107.77 C18.67,-99.60 12.72,-95.23 8.03,-90.44 C2.36,-84.60 -4.42,-74.12 -7.05,-70.03" fill="none" stroke="rgb(255, 255, 0)" stroke-width="3.44" stroke-opacity="1.00" stroke-linejoin="round"/>
<path d="M-4.55,108.99 C-4.55,108.99 -5.80,106.50 -5.80,106.50 C-3.63,105.37 2.43,100.85 6.07,98.62 C8.28,97.29 14.72,93.92 19.21,91.72 C22.91,89.95 27.94,88.12 32.89,87.19 C36.36,86.57 52.44,84.44 61.66,84.38 C66.22,84.39 82.76,88.45 86.83,89.90 C90.29,91.14 96.64,93.44 97.72,94.16 C98.63,94.78 105.87,100.12 107.76,101.05 C108.97,101.64 117.53,105.16 118.35,105.84 C121.85,102.42 132.22,95.99 139.57,92.80 C143.45,91.12 157.73,85.63 163.93,84.00 C170.86,82.21 184.59,80.09 191.54,79.61 C194.56,79.42 198.16,79.64 201.10,80.00 C204.11,80.38 217.69,85.22 224.15,87.38 C229.38,89.43 233.50,92.44 235.97,94.35 C239.13,96.45 245.32,99.29 249.09,100.50 C249.57,97.82 251.21,95.26 253.29,94.04 C256.71,92.12 273.15,87.39 280.83,85.27 C289.43,83.03 300.50,81.50 306.98,81.99 C317.05,82.81 341.46,91.99 341.65,92.10 C342.64,90.10 346.96,87.21 349.18,86.36 C352.06,85.30 370.45,80.44 374.83,80.05 C379.07,79.69 396.80,80.17 402.67,81.11 C406.37,81.73 420.43,88.27 420.89,88.19 C421.82,85.89 422.87,83.89 423.94,82.95 C426.63,80.63 431.62,79.00 435.09,78.26 C440.97,77.04 445.16,76.07 447.10,75.49 C447.10,75.49 453.71,75.89 453.71,75.89 C453.71,75.89 452.06,77.18 452.06,77.18" fill="none" stroke="rgb(255, 255, 0)" stroke-width="3.44" stroke-opacity="1.00" stroke-linejoin="round"/>
<path d="M114.59,102.13 C114.59,102.13 111.16,104.31 111.16,104.31 C111.16,104.31 111.73,105.25 111.73,105.25 C111.73,105.25 114.21,105.89 114.21,105.89 C114.93,107.88 115.23,111.20 114.98,115.53 C114.51,124.68 113.76,133.68 113.17,140.66 C112.61,149.03 113.10,182.48 113.38,197.70 C113.46,212.20 114.19,246.12 113.55,257.74 C112.23,274.36 110.05,296.70 108.70,314.14 C108.21,320.27 110.92,354.61 110.78,370.41 C110.66,377.74 110.43,393.55 110.84,399.92 C113.25,428.93 115.89,461.72 116.15,462.49 C116.19,462.61 116.30,462.88 116.46,463.30" fill="none" stroke="rgb(255, 255, 0)" stroke-width="3.44" stroke-opacity="1.00" stroke-linejoin="round"/>
<path d="M113.97,428.99 C113.97,428.99 113.34,431.38 113.34,431.38 C113.36,430.80 113.61,429.80 113.98,429.13 C114.43,428.42 116.17,427.84 118.19,427.74 C129.07,427.33 131.39,427.59 131.77,428.38 C131.77,428.38 131.43,428.37 131.43,428.37" fill="none" stroke="rgb(255, 255, 0)" stroke-width="3.44" stroke-opacity="1.00" stroke-linejoin="round"/>
<path d="M130.81,464.55 C130.46,462.86 130.25,461.75 130.18,461.21 C129.77,457.71 132.10,445.43 132.53,438.39 C133.48,420.81 132.72,395.19 132.68,379.70 C132.77,370.68 134.86,336.19 135.17,321.74 C135.27,313.96 135.51,300.58 136.55,293.03 C137.27,287.70 137.36,283.75 136.63,281.16 C135.45,277.11 136.37,240.75 136.80,225.84 C137.01,212.68 137.53,192.35 137.32,171.80 C137.29,154.67 138.68,123.80 138.36,115.12 C138.33,112.81 139.74,91.82 139.58,89.34 C139.58,89.34 140.16,89.03 140.16,89.03" fill="none" stroke="rgb(255, 255, 0)" stroke-width="3.44" stroke-opacity="1.00" stroke-linejoin="round"/>
<path d="M132.68,347.28 C132.71,347.44 132.43,348.52 132.37,348.99 C131.43,356.04 131.48,404.56 131.28,410.47 C130.70,424.47 131.77,448.54 131.29,457.79 C131.24,458.63 131.00,461.58 130.93,462.47" fill="none" stroke="rgb(255, 255, 0)" stroke-width="3.44" stroke-opacity="1.00" stroke-linejoin="round"/>
<path d="M130.81,498.85 C130.81,498.85 129.04,499.17 129.04,499.17 C128.97,502.44 130.78,509.43 131.29,512.18 C132.13,516.85 134.26,541.35 135.03,552.51 C135.25,556.21 134.77,561.13 133.77,563.85 C132.80,566.42 128.51,573.65 127.74,574.78 C125.41,578.10 121.10,581.62 117.03,583.65 C114.88,584.70 108.37,587.21 105.50,587.96 C100.40,589.26 87.30,589.67 81.64,588.69 C78.53,588.13 73.41,586.17 71.20,584.67 C69.02,583.15 65.67,579.20 64.13,576.52 C61.54,571.92 57.00,556.65 55.37,550.26 C53.79,543.92 52.98,533.78 54.11,528.89 C54.68,526.57 57.09,521.94 58.29,520.34 C59.70,518.46 65.90,511.54 67.91,509.56 C69.65,507.86 74.25,504.03 76.61,503.25 C77.83,503.76 78.80,507.18 79.23,510.35 C79.56,513.02 79.63,518.25 79.36,519.51 C78.92,521.45 71.25,538.91 70.20,543.53 C69.89,544.95 69.90,549.75 70.52,551.74 C71.17,553.75 73.46,557.38 75.04,559.10 C76.59,560.76 80.14,563.11 81.58,563.61 C83.27,564.18 92.12,565.60 94.93,565.61 C97.76,565.58 101.07,564.27 103.62,562.14 C106.34,559.82 110.36,555.83 111.26,553.53 C112.84,549.35 113.29,539.40 113.33,527.70 C113.33,524.88 113.34,521.29 113.34,520.53 C113.34,520.38 113.34,520.22 113.34,520.06" fill="none" stroke="rgb(255, 255, 0)" stroke-width="3.44" stroke-opacity="1.00" stroke-linejoin="round"/>
</g>
</svg>
