<?xml version="1.0" encoding="UTF-8" standalone="no"?>
<!DOCTYPE svg PUBLIC "-//W3C//DTD SVG 1.1//EN" "http://www.w3.org/Graphics/SVG/1.1/DTD/svg11.dtd">
<svg width="128.40" height="181.68" viewBox="0.00 0.00 535.00 757.00" xmlns="http://www.w3.org/2000/svg" xmlns:xlink="http://www.w3.org/1999/xlink">
<g stroke-linecap="round" transform="translate(44.00, 155.00)" id="161-가로등">
<path d="M271.80,61.50 C271.63,60.80 267.20,56.94 264.22,55.77 C264.21,55.77 248.96,52.85 248.17,52.82 C244.37,52.71 233.54,56.28 227.42,59.22 C223.66,61.07 219.05,65.11 218.09,67.64 C217.71,68.73 218.65,71.49 219.62,72.12 C222.40,73.87 227.98,74.78 229.87,74.85 C236.89,75.04 250.30,73.08 257.97,70.75 C262.49,69.34 266.55,67.86 269.53,65.88 C271.24,64.72 274.44,62.12 275.48,60.96 C276.75,59.49 278.60,56.08 278.91,54.58 C279.13,53.35 278.69,49.97 278.23,48.93 C277.30,46.99 271.08,42.99 268.04,42.28 C263.61,41.31 250.87,42.07 243.94,42.55 C233.32,43.39 225.81,44.50 220.94,46.34 C218.76,47.18 214.95,49.01 212.67,50.36 C209.87,52.11 206.81,56.48 206.11,59.34 C205.51,62.04 201.54,83.59 201.05,86.22 C199.71,93.47 198.38,110.54 198.03,113.32 C197.32,118.84 192.92,134.93 192.43,137.28 C186.10,167.55 180.60,205.70 177.73,217.32 C174.15,231.02 166.83,261.25 164.06,270.55 C162.08,276.60 157.82,289.87 156.76,295.02 C156.24,297.58 154.28,309.16 154.69,309.87 C160.27,309.43 175.42,309.73 177.89,309.66 C181.59,309.55 200.24,306.57 200.81,306.55 C200.82,306.38 195.01,288.11 194.13,283.69 C193.44,280.15 191.24,262.71 191.06,257.61 C190.71,246.78 191.74,220.85 193.26,202.12 C194.35,191.78 195.88,182.28 197.99,171.59 C199.75,162.65 200.55,152.11 201.16,146.26 C204.94,115.66 211.84,77.56 212.53,76.21 C213.18,75.04 215.44,74.32 217.99,73.73 C218.48,73.62 219.27,73.42 220.36,73.14" fill="none" stroke="rgb(0, 153, 67)" stroke-width="2.52" stroke-opacity="1.00" stroke-linejoin="round"/>
</g>
</svg>
