<?xml version="1.0" encoding="UTF-8" standalone="no"?>
<!DOCTYPE svg PUBLIC "-//W3C//DTD SVG 1.1//EN" "http://www.w3.org/Graphics/SVG/1.1/DTD/svg11.dtd">
<svg width="128.40" height="181.68" viewBox="0.00 0.00 535.00 757.00" xmlns="http://www.w3.org/2000/svg" xmlns:xlink="http://www.w3.org/1999/xlink">
<g stroke-linecap="round" transform="translate(44.00, 155.00)" id="161-물웅덩이">
<path d="M246.55,369.49 C246.58,369.45 246.57,369.60 246.55,369.65 C245.82,372.04 242.20,372.34 241.54,371.95 C241.54,371.95 240.63,370.01 240.63,370.01 C240.63,370.01 235.84,375.56 235.84,375.56 C235.48,375.94 234.29,380.70 232.15,381.92 C231.39,382.34 228.36,382.44 227.97,382.53 C228.26,383.07 230.52,386.81 230.49,387.79 C230.39,388.98 227.73,390.84 227.59,391.14 C227.42,391.60 229.64,395.58 229.90,396.67 C230.48,399.40 227.96,400.58 227.67,400.61 C229.24,400.21 233.18,400.32 234.71,400.98 C236.24,401.69 237.66,404.29 237.36,406.74 C237.25,407.65 236.91,408.62 236.67,409.03 C237.06,407.93 240.08,404.24 243.43,402.47 C247.05,400.62 249.21,402.77 249.63,403.55 C250.07,401.25 252.19,398.32 253.64,397.34 C255.01,396.48 258.89,396.29 260.48,396.92 C260.55,396.69 260.49,393.04 261.68,391.83 C262.86,390.70 265.96,389.90 269.05,389.92 C269.05,389.92 265.25,384.24 265.25,384.24 C265.25,384.24 270.59,380.54 270.59,380.54 C270.26,379.53 269.19,377.33 269.47,376.26 C269.77,375.38 272.96,373.80 276.20,373.25 C276.14,373.22 270.94,372.95 268.53,372.29 C265.78,371.51 264.14,369.78 264.10,368.57 C264.09,367.82 264.19,366.86 264.26,366.85 C263.86,367.71 262.92,369.22 261.81,370.67 C261.51,371.06 260.99,371.71 260.24,372.60" fill="none" stroke="rgb(28, 31, 136)" stroke-width="2.52" stroke-opacity="1.00" stroke-linejoin="round"/>
</g>
</svg>
