<?xml version="1.0" encoding="UTF-8" standalone="no"?>
<!DOCTYPE svg PUBLIC "-//W3C//DTD SVG 1.1//EN" "http://www.w3.org/Graphics/SVG/1.1/DTD/svg11.dtd">
<svg width="128.40" height="181.68" viewBox="0.00 0.00 535.00 757.00" xmlns="http://www.w3.org/2000/svg" xmlns:xlink="http://www.w3.org/1999/xlink">
<g stroke-linecap="round" transform="translate(44.00, 155.00)" id="161-비-2">
<path d="M294.33,38.22 C293.10,39.61 292.48,41.81 292.45,43.42 C292.44,43.72 292.44,44.64 292.45,46.17" fill="none" stroke="rgb(0, 255, 255)" stroke-width="2.52" stroke-opacity="1.00" stroke-linejoin="round"/>
<path d="M292.07,70.89 C292.07,70.89 291.13,71.55 291.13,71.55 C290.84,72.34 290.60,73.53 290.57,75.08 C290.56,75.61 290.56,76.84 290.57,78.75" fill="none" stroke="rgb(0, 255, 255)" stroke-width="2.52" stroke-opacity="1.00" stroke-linejoin="round"/>
<path d="M293.57,89.66 C292.48,91.59 292.46,95.69 292.55,96.46 C292.61,96.93 292.79,97.93 293.08,99.44" fill="none" stroke="rgb(0, 255, 255)" stroke-width="2.52" stroke-opacity="1.00" stroke-linejoin="round"/>
<path d="M292.82,112.19 C292.38,113.20 291.95,115.37 292.07,117.15 C292.12,117.78 292.30,119.00 292.62,120.79" fill="none" stroke="rgb(0, 255, 255)" stroke-width="2.52" stroke-opacity="1.00" stroke-linejoin="round"/>
<path d="M292.45,130.59 C292.50,130.92 292.15,133.96 292.07,135.19 C292.04,135.78 292.04,136.62 292.07,137.70" fill="none" stroke="rgb(0, 255, 255)" stroke-width="2.52" stroke-opacity="1.00" stroke-linejoin="round"/>
<path d="M289.07,158.00 C288.62,158.69 288.31,160.23 288.32,162.23 C288.34,164.71 288.83,167.98 289.18,169.69" fill="none" stroke="rgb(0, 255, 255)" stroke-width="2.52" stroke-opacity="1.00" stroke-linejoin="round"/>
<path d="M293.95,190.29 C293.55,193.12 293.22,196.01 292.82,200.36 C292.63,202.65 292.32,206.11 292.20,207.28" fill="none" stroke="rgb(0, 255, 255)" stroke-width="2.52" stroke-opacity="1.00" stroke-linejoin="round"/>
<path d="M317.23,-38.37 C315.35,-34.32 315.36,-32.24 315.54,-31.68 C315.59,-31.54 315.71,-31.34 315.89,-31.08" fill="none" stroke="rgb(0, 255, 255)" stroke-width="2.52" stroke-opacity="1.00" stroke-linejoin="round"/>
<path d="M316.85,-18.10 C316.85,-18.10 316.85,-19.79 316.85,-19.79 C316.85,-19.22 316.85,-18.65 316.85,-18.08 C316.85,-16.98 316.85,-15.88 316.85,-14.79" fill="none" stroke="rgb(0, 255, 255)" stroke-width="2.52" stroke-opacity="1.00" stroke-linejoin="round"/>
<path d="M316.10,-3.45 C315.61,-2.22 315.37,-1.59 315.35,-1.11 C315.34,-0.88 315.34,-0.21 315.35,0.90" fill="none" stroke="rgb(0, 255, 255)" stroke-width="2.52" stroke-opacity="1.00" stroke-linejoin="round"/>
<path d="M314.60,8.56 C314.32,9.25 314.13,9.79 314.04,10.17 C313.90,10.74 313.75,11.57 313.59,12.68 C313.55,12.99 313.51,13.37 313.47,13.81" fill="none" stroke="rgb(0, 255, 255)" stroke-width="2.52" stroke-opacity="1.00" stroke-linejoin="round"/>
<path d="M313.10,17.57 C312.28,18.94 311.88,19.70 311.97,20.42 C312.01,20.75 312.18,21.74 312.48,23.39" fill="none" stroke="rgb(0, 255, 255)" stroke-width="2.52" stroke-opacity="1.00" stroke-linejoin="round"/>
<path d="M310.47,37.85 C309.30,40.28 309.38,40.93 309.63,41.62 C309.84,42.19 310.06,42.76 310.28,43.33" fill="none" stroke="rgb(0, 255, 255)" stroke-width="2.52" stroke-opacity="1.00" stroke-linejoin="round"/>
<path d="M311.60,64.51 C311.60,64.51 310.66,65.26 310.66,65.26 C310.53,66.25 310.46,66.99 310.47,67.48 C310.48,67.97 310.57,68.89 310.74,70.25" fill="none" stroke="rgb(0, 255, 255)" stroke-width="2.52" stroke-opacity="1.00" stroke-linejoin="round"/>
<path d="M308.97,117.07 C307.77,119.76 308.00,121.96 308.28,123.08 C308.36,123.40 308.55,124.01 308.83,124.92" fill="none" stroke="rgb(0, 255, 255)" stroke-width="2.52" stroke-opacity="1.00" stroke-linejoin="round"/>
<path d="M307.47,141.10 C307.26,141.80 307.13,142.37 307.09,142.79 C307.04,143.41 307.04,144.46 307.09,145.92 C307.12,146.59 307.29,149.05 307.35,149.93" fill="none" stroke="rgb(0, 255, 255)" stroke-width="2.52" stroke-opacity="1.00" stroke-linejoin="round"/>
<path d="M306.72,160.25 C305.94,160.96 305.53,162.28 305.59,164.39 C305.61,165.06 305.87,167.88 305.97,168.89" fill="none" stroke="rgb(0, 255, 255)" stroke-width="2.52" stroke-opacity="1.00" stroke-linejoin="round"/>
<path d="M305.59,176.40 C305.59,176.40 305.40,176.40 305.40,176.40 C305.29,176.36 304.96,177.36 304.86,178.28 C304.81,178.75 304.82,179.40 304.88,180.22 C304.91,180.57 305.00,181.40 305.14,182.71" fill="none" stroke="rgb(0, 255, 255)" stroke-width="2.52" stroke-opacity="1.00" stroke-linejoin="round"/>
<path d="M325.11,-36.50 C325.12,-35.71 325.14,-33.48 325.11,-32.31 C325.09,-31.15 324.94,-27.55 324.88,-26.20" fill="none" stroke="rgb(0, 255, 255)" stroke-width="2.52" stroke-opacity="1.00" stroke-linejoin="round"/>
<path d="M322.86,-10.59 C322.86,-10.59 322.49,-10.59 322.49,-10.59 C322.49,-10.59 322.11,-10.28 322.11,-10.28 C322.06,-9.33 322.08,-8.62 322.16,-8.14 C322.25,-7.66 322.52,-6.74 322.98,-5.38" fill="none" stroke="rgb(0, 255, 255)" stroke-width="2.52" stroke-opacity="1.00" stroke-linejoin="round"/>
<path d="M321.74,7.43 C321.77,7.60 321.77,7.79 321.74,8.00 C321.62,8.72 321.42,9.43 321.36,10.16 C321.28,11.14 321.30,12.17 321.43,13.25 C321.50,13.76 321.67,14.65 321.95,15.94" fill="none" stroke="rgb(0, 255, 255)" stroke-width="2.52" stroke-opacity="1.00" stroke-linejoin="round"/>
<path d="M322.11,24.71 C322.11,24.71 321.25,25.38 321.25,25.38 C321.12,26.68 321.07,27.57 321.08,28.04 C321.11,28.76 321.76,31.79 321.99,32.88" fill="none" stroke="rgb(0, 255, 255)" stroke-width="2.52" stroke-opacity="1.00" stroke-linejoin="round"/>
<path d="M322.11,40.10 C321.33,42.33 321.00,44.13 320.98,46.42 C320.98,47.01 320.98,47.60 320.98,48.20" fill="none" stroke="rgb(0, 255, 255)" stroke-width="2.52" stroke-opacity="1.00" stroke-linejoin="round"/>
<path d="M319.86,60.00 C319.49,61.17 319.10,62.80 319.11,63.66 C319.11,64.04 319.19,64.77 319.35,65.86" fill="none" stroke="rgb(0, 255, 255)" stroke-width="2.52" stroke-opacity="1.00" stroke-linejoin="round"/>
<path d="M319.86,72.39 C319.61,73.75 319.42,74.72 319.29,75.30 C318.96,76.88 318.79,77.77 318.78,77.99 C318.76,78.38 318.86,79.00 319.05,79.86" fill="none" stroke="rgb(0, 255, 255)" stroke-width="2.52" stroke-opacity="1.00" stroke-linejoin="round"/>
<path d="M319.11,89.66 C318.87,90.55 318.43,92.24 318.50,92.51 C318.54,92.68 318.71,93.03 319.02,93.57" fill="none" stroke="rgb(0, 255, 255)" stroke-width="2.52" stroke-opacity="1.00" stroke-linejoin="round"/>
<path d="M319.11,100.18 C318.73,101.30 318.45,103.06 318.36,105.00 C318.34,105.36 318.34,105.76 318.36,106.19" fill="none" stroke="rgb(0, 255, 255)" stroke-width="2.52" stroke-opacity="1.00" stroke-linejoin="round"/>
<path d="M316.48,119.33 C316.48,119.33 316.53,118.29 316.53,118.29 C316.66,118.41 316.85,121.00 316.93,122.05 C316.98,122.60 317.06,123.42 317.18,124.50" fill="none" stroke="rgb(0, 255, 255)" stroke-width="2.52" stroke-opacity="1.00" stroke-linejoin="round"/>
<path d="M317.60,139.23 C317.56,139.64 317.52,140.02 317.48,140.35 C317.33,141.57 317.25,142.35 317.23,142.70 C317.21,143.14 317.21,143.94 317.23,145.10" fill="none" stroke="rgb(0, 255, 255)" stroke-width="2.52" stroke-opacity="1.00" stroke-linejoin="round"/>
<path d="M317.60,151.24 C317.32,152.51 316.51,156.18 316.48,156.78 C316.46,157.15 316.54,157.60 316.73,158.12" fill="none" stroke="rgb(0, 255, 255)" stroke-width="2.52" stroke-opacity="1.00" stroke-linejoin="round"/>
<path d="M317.23,164.76 C316.77,166.47 316.57,169.45 316.48,170.53 C316.45,170.89 316.37,171.18 316.25,171.41" fill="none" stroke="rgb(0, 255, 255)" stroke-width="2.52" stroke-opacity="1.00" stroke-linejoin="round"/>
<path d="M317.23,174.14 C317.27,175.16 317.27,175.91 317.23,176.40 C317.17,177.21 317.01,178.33 316.76,179.76 C316.67,180.27 316.49,181.15 316.23,182.41" fill="none" stroke="rgb(0, 255, 255)" stroke-width="2.52" stroke-opacity="1.00" stroke-linejoin="round"/>
<path d="M317.60,187.29 C317.34,189.05 316.62,193.93 316.54,194.56 C316.49,194.97 316.47,195.37 316.48,195.74" fill="none" stroke="rgb(0, 255, 255)" stroke-width="2.52" stroke-opacity="1.00" stroke-linejoin="round"/>
<path d="M317.23,199.30 C316.90,201.44 316.63,202.94 316.23,204.70 C316.07,205.39 316.13,205.90 316.36,206.94" fill="none" stroke="rgb(0, 255, 255)" stroke-width="2.52" stroke-opacity="1.00" stroke-linejoin="round"/>
<path d="M317.23,214.69 C317.18,215.73 317.12,216.51 317.04,217.04 C316.87,218.18 316.24,221.16 316.20,221.92 C316.17,222.55 316.13,223.18 316.10,223.81" fill="none" stroke="rgb(0, 255, 255)" stroke-width="2.52" stroke-opacity="1.00" stroke-linejoin="round"/>
<path d="M316.10,234.97 C316.16,236.40 315.92,238.80 315.73,240.46 C315.66,241.27 315.69,245.56 315.73,246.18 C315.76,246.56 315.84,247.16 315.97,247.98" fill="none" stroke="rgb(0, 255, 255)" stroke-width="2.52" stroke-opacity="1.00" stroke-linejoin="round"/>
<path d="M315.35,252.24 C315.34,253.22 315.32,255.91 315.35,256.61 C315.37,257.06 315.45,257.96 315.57,259.31" fill="none" stroke="rgb(0, 255, 255)" stroke-width="2.52" stroke-opacity="1.00" stroke-linejoin="round"/>
<path d="M316.85,265.76 C317.16,267.34 317.12,268.11 316.60,270.76 C316.53,271.11 316.49,271.50 316.48,271.94 C316.48,271.94 317.23,272.14 317.23,272.14" fill="none" stroke="rgb(0, 255, 255)" stroke-width="2.52" stroke-opacity="1.00" stroke-linejoin="round"/>
<path d="M338.26,-42.50 C338.16,-42.22 337.93,-41.51 337.88,-41.13 C337.65,-38.95 337.32,-36.02 336.97,-33.51" fill="none" stroke="rgb(0, 255, 255)" stroke-width="2.52" stroke-opacity="1.00" stroke-linejoin="round"/>
<path d="M337.50,-18.10 C337.50,-18.10 337.13,-17.53 337.13,-17.53 C337.55,-16.20 337.83,-15.29 337.96,-14.81 C338.09,-14.34 338.26,-13.63 338.47,-12.68" fill="none" stroke="rgb(0, 255, 255)" stroke-width="2.52" stroke-opacity="1.00" stroke-linejoin="round"/>
<path d="M339.76,-6.83 C339.03,-5.34 338.35,-3.75 338.26,-3.09 C338.24,-2.98 338.28,-2.62 338.37,-2.02 C338.42,-1.73 338.49,-1.14 338.59,-0.25" fill="none" stroke="rgb(0, 255, 255)" stroke-width="2.52" stroke-opacity="1.00" stroke-linejoin="round"/>
<path d="M339.01,8.19 C338.23,9.63 337.85,11.28 337.88,13.43 C337.89,14.13 337.94,14.69 338.03,15.10 C338.08,15.31 338.22,15.77 338.46,16.47" fill="none" stroke="rgb(0, 255, 255)" stroke-width="2.52" stroke-opacity="1.00" stroke-linejoin="round"/>
<path d="M339.38,22.45 C339.23,23.65 338.15,27.17 338.30,28.04 C338.36,28.33 338.54,29.20 338.86,30.64" fill="none" stroke="rgb(0, 255, 255)" stroke-width="2.52" stroke-opacity="1.00" stroke-linejoin="round"/>
<path d="M339.76,41.23 C337.93,44.13 337.93,46.13 338.27,46.57 C338.46,46.81 338.77,47.20 339.19,47.74" fill="none" stroke="rgb(0, 255, 255)" stroke-width="2.52" stroke-opacity="1.00" stroke-linejoin="round"/>
<path d="M339.76,57.75 C338.99,60.03 338.55,62.16 338.63,63.85 C338.65,64.25 338.73,64.91 338.87,65.84" fill="none" stroke="rgb(0, 255, 255)" stroke-width="2.52" stroke-opacity="1.00" stroke-linejoin="round"/>
<path d="M339.38,72.39 C339.08,73.46 338.89,74.24 338.82,74.74 C338.71,75.50 338.65,76.52 338.63,77.80 C338.63,78.33 338.60,79.79 338.36,81.13" fill="none" stroke="rgb(0, 255, 255)" stroke-width="2.52" stroke-opacity="1.00" stroke-linejoin="round"/>
<path d="M339.38,86.28 C338.64,88.71 337.89,91.62 337.93,92.57 C337.95,93.00 338.13,93.67 338.48,94.58" fill="none" stroke="rgb(0, 255, 255)" stroke-width="2.52" stroke-opacity="1.00" stroke-linejoin="round"/>
<path d="M339.38,100.93 C339.41,101.39 339.31,102.42 339.10,103.27 C338.74,104.80 338.65,105.65 338.63,107.84 C338.62,109.12 338.84,110.15 339.38,111.82" fill="none" stroke="rgb(0, 255, 255)" stroke-width="2.52" stroke-opacity="1.00" stroke-linejoin="round"/>
<path d="M339.01,112.94 C339.06,113.98 338.92,115.57 338.55,117.39 C338.36,118.34 338.11,119.28 337.96,120.23 C337.90,120.58 337.87,120.99 337.88,121.47" fill="none" stroke="rgb(0, 255, 255)" stroke-width="2.52" stroke-opacity="1.00" stroke-linejoin="round"/>
<path d="M337.88,126.08 C337.33,127.82 336.58,129.76 336.57,129.84 C336.41,130.76 336.42,131.70 336.34,132.64 C336.31,133.01 336.25,133.42 336.15,133.87" fill="none" stroke="rgb(0, 255, 255)" stroke-width="2.52" stroke-opacity="1.00" stroke-linejoin="round"/>
<path d="M336.00,139.60 C335.55,141.27 335.30,142.87 335.25,144.72 C335.22,146.23 335.39,147.23 335.74,148.10" fill="none" stroke="rgb(0, 255, 255)" stroke-width="2.52" stroke-opacity="1.00" stroke-linejoin="round"/>
<path d="M335.63,158.00 C335.63,158.00 334.13,165.47 334.13,165.47 C334.13,165.47 334.41,165.76 334.41,165.76" fill="none" stroke="rgb(0, 255, 255)" stroke-width="2.52" stroke-opacity="1.00" stroke-linejoin="round"/>
<path d="M335.63,169.26 C335.57,172.76 334.92,178.47 334.88,178.96 C334.85,179.27 334.85,179.57 334.88,179.85" fill="none" stroke="rgb(0, 255, 255)" stroke-width="2.52" stroke-opacity="1.00" stroke-linejoin="round"/>
<path d="M333.37,193.29 C331.83,197.18 331.92,201.03 332.01,201.69 C332.07,202.09 332.24,202.93 332.51,204.19" fill="none" stroke="rgb(0, 255, 255)" stroke-width="2.52" stroke-opacity="1.00" stroke-linejoin="round"/>
<path d="M333.00,217.32 C332.22,220.27 331.88,221.78 331.87,222.55 C331.87,222.90 331.87,223.25 331.87,223.60" fill="none" stroke="rgb(0, 255, 255)" stroke-width="2.52" stroke-opacity="1.00" stroke-linejoin="round"/>
<path d="M333.75,234.22 C333.23,236.43 332.27,240.57 332.25,240.99 C332.24,241.26 332.33,241.55 332.52,241.87" fill="none" stroke="rgb(0, 255, 255)" stroke-width="2.52" stroke-opacity="1.00" stroke-linejoin="round"/>
<path d="M333.75,248.11 C333.47,249.52 332.65,253.51 332.62,253.98 C332.60,254.36 332.69,254.83 332.87,255.39" fill="none" stroke="rgb(0, 255, 255)" stroke-width="2.52" stroke-opacity="1.00" stroke-linejoin="round"/>
<path d="M334.50,261.63 C334.29,262.83 333.78,264.91 333.19,266.89 C332.33,269.75 332.17,270.44 332.02,272.01 C331.87,273.63 331.88,274.24 332.04,274.69 C332.04,274.69 332.25,274.77 332.25,274.77" fill="none" stroke="rgb(0, 255, 255)" stroke-width="2.52" stroke-opacity="1.00" stroke-linejoin="round"/>
<path d="M358.53,-44.76 C358.53,-44.76 358.53,-44.38 358.53,-44.38 C358.53,-43.39 358.53,-42.41 358.53,-41.42 C358.53,-40.49 358.53,-39.56 358.53,-38.63" fill="none" stroke="rgb(0, 255, 255)" stroke-width="2.52" stroke-opacity="1.00" stroke-linejoin="round"/>
<path d="M358.53,-25.98 C358.42,-26.00 358.14,-25.93 357.97,-25.82 C357.92,-25.78 357.85,-25.72 357.78,-25.63 C357.78,-25.63 357.55,-24.39 357.55,-24.39" fill="none" stroke="rgb(0, 255, 255)" stroke-width="2.52" stroke-opacity="1.00" stroke-linejoin="round"/>
<path d="M357.78,-8.34 C357.78,-8.34 356.28,-6.93 356.28,-6.93 C356.29,-6.16 356.32,-5.62 356.37,-5.32 C356.43,-5.01 356.58,-4.52 356.84,-3.84" fill="none" stroke="rgb(0, 255, 255)" stroke-width="2.52" stroke-opacity="1.00" stroke-linejoin="round"/>
<path d="M357.78,2.18 C357.10,3.18 356.66,4.28 356.70,5.07 C356.71,5.25 356.77,5.45 356.89,5.70" fill="none" stroke="rgb(0, 255, 255)" stroke-width="2.52" stroke-opacity="1.00" stroke-linejoin="round"/>
<path d="M359.28,13.07 C358.41,14.18 357.75,15.62 357.78,16.13 C357.80,16.33 357.87,16.85 358.01,17.68" fill="none" stroke="rgb(0, 255, 255)" stroke-width="2.52" stroke-opacity="1.00" stroke-linejoin="round"/>
<path d="M358.16,27.71 C356.99,31.89 357.06,33.73 357.26,34.37 C357.35,34.64 357.59,35.20 357.98,36.07" fill="none" stroke="rgb(0, 255, 255)" stroke-width="2.52" stroke-opacity="1.00" stroke-linejoin="round"/>
<path d="M356.65,51.74 C355.84,54.30 355.50,56.73 355.87,58.45 C355.96,58.86 356.18,59.50 356.53,60.35" fill="none" stroke="rgb(0, 255, 255)" stroke-width="2.52" stroke-opacity="1.00" stroke-linejoin="round"/>
<path d="M357.03,67.13 C356.25,68.83 355.86,70.97 356.00,73.49 C356.04,74.29 356.41,76.96 356.58,78.31" fill="none" stroke="rgb(0, 255, 255)" stroke-width="2.52" stroke-opacity="1.00" stroke-linejoin="round"/>
<path d="M356.28,87.79 C355.76,89.71 355.45,90.93 355.34,91.45 C355.22,92.01 355.16,92.66 355.15,93.39 C355.15,93.79 355.15,94.20 355.15,94.61" fill="none" stroke="rgb(0, 255, 255)" stroke-width="2.52" stroke-opacity="1.00" stroke-linejoin="round"/>
<path d="M355.90,103.18 C355.39,105.01 354.52,108.11 354.50,108.53 C354.47,108.87 354.52,109.29 354.64,109.80 C354.68,109.98 354.84,110.54 355.10,111.47" fill="none" stroke="rgb(0, 255, 255)" stroke-width="2.52" stroke-opacity="1.00" stroke-linejoin="round"/>
<path d="M351.02,121.20 C350.99,121.45 350.99,121.74 351.02,122.06 C351.13,123.04 351.31,124.01 351.45,124.98 C351.52,125.51 351.63,126.33 351.76,127.45" fill="none" stroke="rgb(0, 255, 255)" stroke-width="2.52" stroke-opacity="1.00" stroke-linejoin="round"/>
<path d="M351.40,139.98 C351.22,139.95 351.10,139.95 351.02,139.98 C350.95,140.00 350.82,140.08 350.65,140.21 C350.66,141.26 350.69,141.99 350.75,142.41 C350.81,142.83 350.98,143.51 351.26,144.45" fill="none" stroke="rgb(0, 255, 255)" stroke-width="2.52" stroke-opacity="1.00" stroke-linejoin="round"/>
<path d="M351.77,159.13 C351.46,159.94 351.29,160.85 351.40,161.88 C351.49,162.82 351.87,164.90 352.15,166.26" fill="none" stroke="rgb(0, 255, 255)" stroke-width="2.52" stroke-opacity="1.00" stroke-linejoin="round"/>
<path d="M351.02,173.02 C350.98,173.65 350.65,175.58 350.55,176.34 C350.41,177.33 350.32,178.26 350.27,179.14 C350.25,179.49 350.25,179.90 350.27,180.38" fill="none" stroke="rgb(0, 255, 255)" stroke-width="2.52" stroke-opacity="1.00" stroke-linejoin="round"/>
<path d="M351.02,186.91 C351.08,187.57 350.05,191.14 349.90,193.20 C349.88,193.41 349.88,193.86 349.90,194.53" fill="none" stroke="rgb(0, 255, 255)" stroke-width="2.52" stroke-opacity="1.00" stroke-linejoin="round"/>
<path d="M348.02,209.06 C347.46,210.98 347.12,212.20 346.99,212.72 C346.66,213.99 346.50,214.92 346.52,215.49 C346.52,215.86 346.65,216.47 346.89,217.32" fill="none" stroke="rgb(0, 255, 255)" stroke-width="2.52" stroke-opacity="1.00" stroke-linejoin="round"/>
<path d="M348.77,220.70 C348.31,222.74 348.05,224.45 348.02,226.04 C348.01,226.44 348.01,227.29 348.02,228.59" fill="none" stroke="rgb(0, 255, 255)" stroke-width="2.52" stroke-opacity="1.00" stroke-linejoin="round"/>
<path d="M348.02,240.60 C348.02,242.15 348.02,244.94 348.02,246.19 C348.02,246.74 348.07,246.89 348.27,247.21" fill="none" stroke="rgb(0, 255, 255)" stroke-width="2.52" stroke-opacity="1.00" stroke-linejoin="round"/>
<path d="M347.27,258.25 C346.95,260.51 346.77,262.56 346.94,263.41 C347.00,263.73 347.20,264.32 347.52,265.16" fill="none" stroke="rgb(0, 255, 255)" stroke-width="2.52" stroke-opacity="1.00" stroke-linejoin="round"/>
<path d="M348.39,281.15 C347.94,283.49 347.69,285.20 347.64,286.47 C347.63,286.67 347.63,286.86 347.64,287.05" fill="none" stroke="rgb(0, 255, 255)" stroke-width="2.52" stroke-opacity="1.00" stroke-linejoin="round"/>
<path d="M347.64,290.92 C347.14,294.22 346.96,296.57 346.89,298.83 C346.88,299.28 346.88,299.73 346.89,300.19" fill="none" stroke="rgb(0, 255, 255)" stroke-width="2.52" stroke-opacity="1.00" stroke-linejoin="round"/>
<path d="M375.43,-44.76 C375.43,-44.76 373.17,-44.01 373.17,-44.01 C373.17,-44.01 374.68,-43.72 374.68,-43.72 C374.68,-43.72 375.65,-40.86 375.65,-40.86" fill="none" stroke="rgb(0, 255, 255)" stroke-width="2.52" stroke-opacity="1.00" stroke-linejoin="round"/>
<path d="M374.68,-29.36 C374.60,-29.01 374.54,-28.78 374.49,-28.69 C374.02,-27.70 373.90,-23.89 373.99,-22.67 C374.01,-22.39 374.08,-21.75 374.18,-20.76" fill="none" stroke="rgb(0, 255, 255)" stroke-width="2.52" stroke-opacity="1.00" stroke-linejoin="round"/>
<path d="M374.68,-10.59 C374.22,-9.50 373.96,-8.46 373.93,-7.24 C373.92,-6.92 373.92,-6.19 373.93,-5.05" fill="none" stroke="rgb(0, 255, 255)" stroke-width="2.52" stroke-opacity="1.00" stroke-linejoin="round"/>
<path d="M375.43,1.80 C374.58,2.30 374.13,2.72 374.02,3.34 C373.93,3.81 373.90,4.37 373.93,5.03 C373.95,5.48 374.03,6.65 374.17,8.51" fill="none" stroke="rgb(0, 255, 255)" stroke-width="2.52" stroke-opacity="1.00" stroke-linejoin="round"/>
<path d="M375.43,20.20 C375.16,20.98 374.97,21.52 374.86,21.80 C374.54,22.70 374.34,23.61 374.30,24.57 C374.29,24.74 374.29,25.37 374.30,26.48 C374.30,26.82 374.30,27.32 374.30,27.98" fill="none" stroke="rgb(0, 255, 255)" stroke-width="2.52" stroke-opacity="1.00" stroke-linejoin="round"/>
<path d="M375.05,35.97 C374.62,37.71 374.32,40.45 374.49,41.79 C374.54,42.20 374.66,42.74 374.84,43.38" fill="none" stroke="rgb(0, 255, 255)" stroke-width="2.52" stroke-opacity="1.00" stroke-linejoin="round"/>
<path d="M375.05,54.74 C374.86,56.01 374.40,59.16 374.40,59.53 C374.39,59.98 375.14,61.85 375.56,62.85" fill="none" stroke="rgb(0, 255, 255)" stroke-width="2.52" stroke-opacity="1.00" stroke-linejoin="round"/>
<path d="M375.43,68.64 C374.95,69.51 374.30,72.62 374.30,72.74 C374.31,73.06 374.39,73.90 374.54,75.23" fill="none" stroke="rgb(0, 255, 255)" stroke-width="2.52" stroke-opacity="1.00" stroke-linejoin="round"/>
<path d="M373.93,87.03 C373.80,87.22 373.18,88.23 372.99,88.83 C372.54,90.29 372.28,93.31 372.52,94.84 C372.59,95.25 372.76,95.80 373.03,96.49" fill="none" stroke="rgb(0, 255, 255)" stroke-width="2.52" stroke-opacity="1.00" stroke-linejoin="round"/>
<path d="M372.80,104.31 C372.02,106.01 371.54,107.97 371.81,109.28 C371.90,109.69 372.17,110.40 372.62,111.43" fill="none" stroke="rgb(0, 255, 255)" stroke-width="2.52" stroke-opacity="1.00" stroke-linejoin="round"/>
<path d="M372.80,118.20 C372.12,120.38 371.61,123.18 371.67,125.05 C371.69,125.56 371.80,126.29 371.99,127.25" fill="none" stroke="rgb(0, 255, 255)" stroke-width="2.52" stroke-opacity="1.00" stroke-linejoin="round"/>
<path d="M371.30,130.96 C370.54,133.03 370.56,134.90 370.78,135.77 C370.87,136.09 371.09,136.73 371.45,137.68" fill="none" stroke="rgb(0, 255, 255)" stroke-width="2.52" stroke-opacity="1.00" stroke-linejoin="round"/>
<path d="M370.17,144.86 C370.17,144.86 369.98,144.86 369.98,144.86 C369.82,145.04 369.74,145.38 369.80,146.31 C369.87,147.36 369.95,148.40 370.02,149.45" fill="none" stroke="rgb(0, 255, 255)" stroke-width="2.52" stroke-opacity="1.00" stroke-linejoin="round"/>
<path d="M369.04,159.50 C368.58,159.93 368.26,160.35 368.29,160.72 C368.31,160.87 368.39,161.24 368.54,161.81" fill="none" stroke="rgb(0, 255, 255)" stroke-width="2.52" stroke-opacity="1.00" stroke-linejoin="round"/>
<path d="M368.29,168.89 C368.18,168.88 367.63,170.37 367.54,171.88 C367.52,172.34 367.53,172.91 367.59,173.58 C367.62,173.94 367.71,174.82 367.86,176.21" fill="none" stroke="rgb(0, 255, 255)" stroke-width="2.52" stroke-opacity="1.00" stroke-linejoin="round"/>
<path d="M367.54,185.03 C367.60,185.26 367.22,187.05 367.17,187.79 C367.12,188.44 367.16,189.32 367.29,190.42 C367.32,190.75 367.40,191.23 367.51,191.84" fill="none" stroke="rgb(0, 255, 255)" stroke-width="2.52" stroke-opacity="1.00" stroke-linejoin="round"/>
<path d="M367.92,196.30 C367.62,197.01 367.43,197.60 367.35,198.09 C367.19,199.14 367.13,200.32 367.17,201.65 C367.18,202.10 367.25,202.63 367.39,203.21" fill="none" stroke="rgb(0, 255, 255)" stroke-width="2.52" stroke-opacity="1.00" stroke-linejoin="round"/>
<path d="M367.17,208.69 C366.68,210.70 366.16,212.63 366.13,212.82 C366.03,213.69 366.00,214.47 366.04,215.15 C366.06,215.43 366.15,215.72 366.29,216.00" fill="none" stroke="rgb(0, 255, 255)" stroke-width="2.52" stroke-opacity="1.00" stroke-linejoin="round"/>
<path d="M366.42,221.08 C365.90,224.21 366.07,228.21 366.57,230.49 C366.63,230.71 366.70,231.16 366.79,231.83" fill="none" stroke="rgb(0, 255, 255)" stroke-width="2.52" stroke-opacity="1.00" stroke-linejoin="round"/>
<path d="M364.91,236.85 C364.91,237.65 364.91,239.18 364.91,239.91 C364.91,240.21 364.91,240.51 364.91,240.81" fill="none" stroke="rgb(0, 255, 255)" stroke-width="2.52" stroke-opacity="1.00" stroke-linejoin="round"/>
<path d="M365.29,249.99 C365.18,251.39 365.07,251.92 364.73,252.77 C364.56,253.24 364.62,253.99 364.92,254.80 C365.02,255.04 365.29,255.68 365.73,256.74" fill="none" stroke="rgb(0, 255, 255)" stroke-width="2.52" stroke-opacity="1.00" stroke-linejoin="round"/>
<path d="M364.54,267.26 C364.59,267.46 364.27,268.25 364.16,268.58 C364.10,268.77 364.28,269.69 364.36,269.94 C364.80,271.21 365.00,271.92 365.67,274.77" fill="none" stroke="rgb(0, 255, 255)" stroke-width="2.52" stroke-opacity="1.00" stroke-linejoin="round"/>
<path d="M363.79,283.41 C363.79,284.49 363.79,286.84 363.79,288.10 C363.79,288.79 363.79,289.48 363.79,290.16" fill="none" stroke="rgb(0, 255, 255)" stroke-width="2.52" stroke-opacity="1.00" stroke-linejoin="round"/>
<path d="M363.79,293.54 C363.79,294.69 363.79,295.83 363.79,296.97 C363.79,297.96 363.79,298.94 363.79,299.93" fill="none" stroke="rgb(0, 255, 255)" stroke-width="2.52" stroke-opacity="1.00" stroke-linejoin="round"/>
<path d="M364.54,302.93 C364.58,304.47 364.58,305.50 364.54,306.03 C364.48,306.84 364.11,308.83 364.16,309.31" fill="none" stroke="rgb(0, 255, 255)" stroke-width="2.52" stroke-opacity="1.00" stroke-linejoin="round"/>
<path d="M365.29,311.94 C365.27,313.48 364.30,315.88 364.09,316.82 C363.83,317.95 363.89,319.12 363.76,320.27 C363.72,320.61 363.65,320.78 363.53,320.80" fill="none" stroke="rgb(0, 255, 255)" stroke-width="2.52" stroke-opacity="1.00" stroke-linejoin="round"/>
<path d="M364.54,323.58 C364.67,323.78 364.88,324.54 364.91,325.19 C364.95,326.09 364.44,327.49 363.38,329.64 C363.14,330.13 362.90,330.61 362.66,331.09" fill="none" stroke="rgb(0, 255, 255)" stroke-width="2.52" stroke-opacity="1.00" stroke-linejoin="round"/>
<path d="M362.66,333.72 C362.95,335.29 362.91,336.37 362.42,337.70 C361.93,339.05 361.39,340.93 361.16,342.18 C361.11,342.43 361.11,342.58 361.16,342.62" fill="none" stroke="rgb(0, 255, 255)" stroke-width="2.52" stroke-opacity="1.00" stroke-linejoin="round"/>
</g>
</svg>
