<?xml version="1.0" encoding="UTF-8" standalone="no"?>
<!DOCTYPE svg PUBLIC "-//W3C//DTD SVG 1.1//EN" "http://www.w3.org/Graphics/SVG/1.1/DTD/svg11.dtd">
<svg width="128.40" height="181.68" viewBox="0.00 0.00 535.00 757.00" xmlns="http://www.w3.org/2000/svg" xmlns:xlink="http://www.w3.org/1999/xlink">
<g stroke-linecap="round" transform="translate(44.00, 155.00)" id="161-집">
<path d="M425.37,-78.17 C425.37,-78.17 425.32,-79.68 425.32,-79.68 C425.27,-79.81 420.16,-76.08 417.70,-74.91 C416.13,-74.18 398.32,-67.03 391.48,-65.04 C377.33,-60.99 358.41,-56.21 339.07,-49.99 C335.13,-48.76 314.97,-43.27 312.08,-41.78 C322.34,-41.51 351.71,-39.09 370.58,-36.32 C379.53,-35.08 418.81,-34.38 426.71,-33.97 C442.62,-32.97 463.28,-31.15 470.82,-30.37 C476.40,-29.78 481.48,-29.32 483.01,-29.01 C483.54,-28.90 484.60,-28.64 486.19,-28.24" fill="none" stroke="rgb(255, 0, 255)" stroke-width="2.52" stroke-opacity="1.00" stroke-linejoin="round"/>
<path d="M429.87,-79.30 C429.87,-79.30 427.31,-79.30 427.31,-79.30 C427.31,-79.30 427.99,-79.30 427.99,-79.30" fill="none" stroke="rgb(255, 0, 255)" stroke-width="2.52" stroke-opacity="1.00" stroke-linejoin="round"/>
<path d="M427.62,-79.30 C427.62,-79.30 426.60,-79.30 426.60,-79.30 C426.56,-79.31 441.75,-73.88 447.11,-72.84 C457.48,-70.78 476.68,-64.70 482.22,-63.24 C483.09,-62.99 486.17,-62.02 487.32,-61.65" fill="none" stroke="rgb(255, 0, 255)" stroke-width="2.52" stroke-opacity="1.00" stroke-linejoin="round"/>
<path d="M385.57,-30.49 C385.61,-30.40 385.67,-30.52 385.75,-30.86 C385.83,-31.21 386.05,-32.24 386.39,-33.97 C386.60,-33.31 385.65,-27.19 385.62,-24.85 C385.61,-22.17 386.84,1.24 386.91,3.95 C387.00,7.13 386.26,25.26 386.30,29.63 C386.44,36.58 387.09,50.46 386.80,55.95 C386.65,58.71 384.94,80.09 384.82,83.46 C384.27,98.43 383.34,119.83 381.28,142.01 C379.97,156.88 379.14,188.23 378.50,198.12 C377.91,208.90 377.93,214.70 378.64,225.19 C379.19,232.21 380.60,276.94 380.60,281.62 C380.54,289.98 378.73,315.99 378.83,318.32 C379.93,319.17 401.54,318.37 402.08,318.36 C402.94,318.36 415.68,318.93 425.61,318.29 C440.90,317.08 458.70,315.21 479.35,314.89 C482.25,314.86 484.60,315.63 485.48,315.97 C485.48,315.97 483.19,308.56 483.19,308.56" fill="none" stroke="rgb(255, 0, 255)" stroke-width="2.52" stroke-opacity="1.00" stroke-linejoin="round"/>
</g>
</svg>
