<?xml version="1.0" encoding="UTF-8" standalone="no"?>
<!DOCTYPE svg PUBLIC "-//W3C//DTD SVG 1.1//EN" "http://www.w3.org/Graphics/SVG/1.1/DTD/svg11.dtd">
<svg width="128.40" height="181.68" viewBox="0.00 0.00 535.00 757.00" xmlns="http://www.w3.org/2000/svg" xmlns:xlink="http://www.w3.org/1999/xlink">
<g stroke-linecap="round" transform="translate(43.00, 155.00)" id="162-비">
<path d="M144.67,40.22 C144.67,40.22 142.17,40.00 142.17,40.00 C142.17,40.00 141.70,39.21 141.70,39.21 C142.72,37.31 165.69,15.47 167.70,13.06 C168.08,12.60 168.89,11.58 170.14,10.00" fill="none" stroke="rgb(28, 31, 136)" stroke-width="2.10" stroke-opacity="1.00" stroke-linejoin="round"/>
<path d="M175.20,64.11 C174.99,63.18 176.48,59.94 179.25,56.59 C190.20,44.02 206.93,26.66 215.77,15.11 C218.42,11.64 225.04,1.55 226.33,-0.84 C226.33,-0.84 225.31,0.53 225.31,0.53" fill="none" stroke="rgb(28, 31, 136)" stroke-width="2.10" stroke-opacity="1.00" stroke-linejoin="round"/>
<path d="M257.04,56.59 C257.04,56.59 254.16,57.40 254.16,57.40 C254.78,55.80 262.56,46.89 268.08,41.37 C273.61,35.97 282.04,27.72 284.19,25.12 C284.95,24.21 285.82,22.76 286.78,21.10" fill="none" stroke="rgb(28, 31, 136)" stroke-width="2.10" stroke-opacity="1.00" stroke-linejoin="round"/>
<path d="M301.27,59.69 C301.27,59.69 298.29,61.90 298.29,61.90 C298.04,61.50 299.17,57.75 300.79,55.01 C302.90,51.49 315.98,32.24 318.17,29.41 C318.76,28.65 320.36,26.80 321.11,25.95" fill="none" stroke="rgb(28, 31, 136)" stroke-width="2.10" stroke-opacity="1.00" stroke-linejoin="round"/>
<path d="M337.99,52.17 C337.99,52.17 337.55,52.61 337.55,52.61 C337.82,52.43 338.29,52.06 339.20,51.26 C349.92,41.89 364.40,29.34 367.16,27.38 C367.72,26.98 368.27,26.59 368.82,26.19" fill="none" stroke="rgb(28, 31, 136)" stroke-width="2.10" stroke-opacity="1.00" stroke-linejoin="round"/>
<path d="M380.46,53.94 C380.46,53.94 378.47,53.94 378.47,53.94 C378.47,53.94 378.31,53.65 378.31,53.65 C378.69,53.20 382.74,49.58 384.98,47.12 C389.92,41.65 397.54,29.39 398.10,26.63 C398.16,26.31 398.20,25.71 398.23,24.83" fill="none" stroke="rgb(28, 31, 136)" stroke-width="2.10" stroke-opacity="1.00" stroke-linejoin="round"/>
<path d="M382.67,77.82 C382.67,77.82 381.57,77.82 381.57,77.82 C381.57,77.82 381.40,77.03 381.40,77.03 C382.01,76.08 386.86,70.32 389.00,67.25 C393.35,60.76 408.16,38.70 409.92,36.61 C409.92,36.61 409.54,36.74 409.54,36.74" fill="none" stroke="rgb(28, 31, 136)" stroke-width="2.10" stroke-opacity="1.00" stroke-linejoin="round"/>
<path d="M372.06,145.95 C371.40,145.96 369.21,146.01 368.82,146.46 C366.19,149.53 353.59,163.54 348.54,169.19 C343.19,175.07 331.87,190.28 329.43,193.03 C328.18,194.45 322.89,199.90 321.01,201.81" fill="none" stroke="rgb(28, 31, 136)" stroke-width="2.10" stroke-opacity="1.00" stroke-linejoin="round"/>
<path d="M338.88,218.06 C337.54,218.94 336.53,219.99 335.71,221.49 C333.46,225.52 322.06,239.85 320.28,242.28 C316.14,248.06 307.58,260.58 303.30,266.94 C302.10,268.81 293.74,282.60 293.44,282.84 C293.13,283.08 292.51,283.26 291.57,283.38" fill="none" stroke="rgb(28, 31, 136)" stroke-width="2.10" stroke-opacity="1.00" stroke-linejoin="round"/>
<path d="M291.10,217.62 C289.42,218.40 288.27,219.34 287.19,220.88 C281.62,228.95 266.67,245.28 255.98,258.01 C255.98,258.01 256.95,256.65 256.95,256.65" fill="none" stroke="rgb(28, 31, 136)" stroke-width="2.10" stroke-opacity="1.00" stroke-linejoin="round"/>
<path d="M262.79,217.62 C262.02,218.47 261.52,219.01 261.29,219.22 C260.62,219.82 255.21,222.35 252.69,224.14 C250.27,225.89 233.56,239.57 232.84,240.18 C229.56,243.00 222.43,254.03 218.72,259.85 C217.15,262.30 213.87,266.03 211.63,268.35 C210.91,269.09 209.02,270.96 208.38,271.59" fill="none" stroke="rgb(28, 31, 136)" stroke-width="2.10" stroke-opacity="1.00" stroke-linejoin="round"/>
<path d="M221.65,208.77 C221.28,208.73 219.71,208.94 219.09,209.24 C216.42,210.57 186.97,241.01 186.82,241.20 C186.82,241.20 188.03,240.62 188.03,240.62" fill="none" stroke="rgb(28, 31, 136)" stroke-width="2.10" stroke-opacity="1.00" stroke-linejoin="round"/>
<path d="M157.06,262.30 C156.56,262.28 156.02,262.32 155.95,262.30 C155.86,262.25 155.63,262.11 155.27,261.85 C154.31,262.09 153.73,262.35 153.11,262.88 C152.77,263.18 152.43,263.47 152.09,263.77" fill="none" stroke="rgb(28, 31, 136)" stroke-width="2.10" stroke-opacity="1.00" stroke-linejoin="round"/>
<path d="M204.39,200.36 C204.02,200.28 203.54,200.79 202.46,202.47 C194.35,214.98 181.71,228.76 180.00,230.21 C179.68,230.47 178.98,231.04 177.88,231.90" fill="none" stroke="rgb(28, 31, 136)" stroke-width="2.10" stroke-opacity="1.00" stroke-linejoin="round"/>
<path d="M184.93,184.88 C184.93,184.88 184.93,182.89 184.93,182.89 C184.28,182.89 183.73,183.26 182.22,184.81 C164.39,202.79 154.16,214.21 143.99,227.48 C136.08,237.96 131.63,244.46 130.74,245.65 C130.74,245.65 130.12,245.32 130.12,245.32" fill="none" stroke="rgb(28, 31, 136)" stroke-width="2.10" stroke-opacity="1.00" stroke-linejoin="round"/>
<path d="M138.48,170.72 C136.52,173.20 134.77,175.86 133.12,178.71 C128.74,186.30 122.89,194.13 115.88,202.63 C107.82,212.06 102.12,218.25 96.53,223.37 C96.53,223.37 96.58,223.27 96.58,223.27" fill="none" stroke="rgb(28, 31, 136)" stroke-width="2.10" stroke-opacity="1.00" stroke-linejoin="round"/>
<path d="M154.41,149.49 C154.41,149.49 154.41,149.93 154.41,149.93 C154.66,149.30 157.16,147.17 161.12,144.08 C169.91,137.18 191.61,114.51 193.79,112.65 C193.79,112.65 194.33,112.91 194.33,112.91" fill="none" stroke="rgb(28, 31, 136)" stroke-width="2.10" stroke-opacity="1.00" stroke-linejoin="round"/>
<path d="M105.74,128.26 C105.74,128.26 105.08,128.03 105.08,128.03 C104.88,126.35 105.24,125.14 106.70,123.38 C115.27,113.19 136.11,92.76 136.58,92.31 C136.87,92.05 137.40,91.57 138.18,90.87" fill="none" stroke="rgb(28, 31, 136)" stroke-width="2.10" stroke-opacity="1.00" stroke-linejoin="round"/>
<path d="M196.87,169.84 C196.87,169.81 203.82,162.79 213.19,152.86 C220.68,144.79 226.50,136.52 230.47,129.90 C233.03,125.59 238.10,115.17 238.53,114.43 C238.83,113.93 239.53,112.81 240.64,111.07" fill="none" stroke="rgb(28, 31, 136)" stroke-width="2.10" stroke-opacity="1.00" stroke-linejoin="round"/>
<path d="M306.14,136.22 C305.34,137.04 303.15,139.29 302.55,139.98 C298.29,145.20 287.49,157.03 284.65,160.90 C281.02,166.02 273.74,176.64 270.15,181.85 C268.05,184.81 264.04,190.42 262.12,193.07" fill="none" stroke="rgb(28, 31, 136)" stroke-width="2.10" stroke-opacity="1.00" stroke-linejoin="round"/>
<path d="M138.04,271.14 C137.32,271.41 136.60,271.67 135.89,271.93 C133.81,272.70 132.76,273.38 131.74,274.58 C128.23,278.89 122.97,289.65 119.71,296.77 C115.61,306.07 112.64,314.65 111.73,317.31" fill="none" stroke="rgb(28, 31, 136)" stroke-width="2.10" stroke-opacity="1.00" stroke-linejoin="round"/>
<path d="M153.08,298.13 C151.64,298.10 150.82,298.18 150.35,298.50 C149.12,299.40 148.07,302.15 146.12,308.69 C142.95,319.21 139.71,327.21 136.35,334.39" fill="none" stroke="rgb(28, 31, 136)" stroke-width="2.10" stroke-opacity="1.00" stroke-linejoin="round"/>
<path d="M99.99,260.53 C99.99,260.53 100.44,259.70 100.44,259.70 C99.83,262.87 97.88,267.68 96.80,269.60 C94.24,274.06 84.26,285.64 79.33,291.26 C76.19,294.96 65.23,309.65 63.97,310.82 C63.97,310.82 62.60,310.38 62.60,310.38" fill="none" stroke="rgb(28, 31, 136)" stroke-width="2.10" stroke-opacity="1.00" stroke-linejoin="round"/>
<path d="M180.95,308.75 C180.56,311.62 179.69,317.76 178.99,321.21 C177.84,326.82 175.58,334.16 175.15,335.13 C174.92,335.65 174.37,336.77 173.49,338.51" fill="none" stroke="rgb(28, 31, 136)" stroke-width="2.10" stroke-opacity="1.00" stroke-linejoin="round"/>
<path d="M222.09,303.44 C221.16,303.92 219.94,304.73 219.60,305.32 C218.69,306.91 218.39,326.92 218.19,330.57 C217.67,338.22 216.92,348.88 216.69,351.90 C216.59,353.23 216.43,355.28 216.38,356.01" fill="none" stroke="rgb(28, 31, 136)" stroke-width="2.10" stroke-opacity="1.00" stroke-linejoin="round"/>
<path d="M276.94,317.15 C275.71,318.39 275.06,321.97 274.44,324.74 C273.87,327.26 272.34,331.96 270.90,334.82 C270.28,336.03 267.19,341.44 266.63,342.43" fill="none" stroke="rgb(28, 31, 136)" stroke-width="2.10" stroke-opacity="1.00" stroke-linejoin="round"/>
<path d="M339.32,315.82 C339.32,315.82 339.32,315.60 339.32,315.60 C339.32,315.60 338.42,314.94 338.42,314.94 C337.06,315.07 335.64,317.37 333.04,322.06 C329.66,328.11 321.98,340.99 318.12,347.30 C314.85,352.44 307.99,361.91 302.09,369.17 C302.09,369.17 302.38,368.77 302.38,368.77" fill="none" stroke="rgb(28, 31, 136)" stroke-width="2.10" stroke-opacity="1.00" stroke-linejoin="round"/>
<path d="M317.20,294.15 C317.20,294.15 316.98,295.25 316.98,295.25 C316.98,295.25 315.86,295.25 315.86,295.25 C312.12,291.39 310.78,289.82 310.40,288.93 C310.29,288.66 309.96,287.79 309.41,286.31" fill="none" stroke="rgb(28, 31, 136)" stroke-width="2.10" stroke-opacity="1.00" stroke-linejoin="round"/>
</g>
</svg>
