<?xml version="1.0" encoding="UTF-8" standalone="no"?>
<!DOCTYPE svg PUBLIC "-//W3C//DTD SVG 1.1//EN" "http://www.w3.org/Graphics/SVG/1.1/DTD/svg11.dtd">
<svg width="128.40" height="181.68" viewBox="0.00 0.00 535.00 757.00" xmlns="http://www.w3.org/2000/svg" xmlns:xlink="http://www.w3.org/1999/xlink">
<g stroke-linecap="round" transform="translate(44.00, 155.00)" id="163-사람">
<path d="M255.90,113.57 C255.12,113.55 254.10,113.62 254.00,113.57 C253.59,113.40 252.22,112.38 251.14,112.17 C245.59,111.12 238.37,112.54 227.00,115.19 C222.86,116.12 219.51,117.03 217.63,117.88 C215.37,118.92 211.75,121.86 209.99,124.05 C208.56,125.87 205.22,131.36 204.15,133.66 C203.03,136.10 201.30,141.93 201.05,144.29 C200.79,147.00 201.39,152.87 202.25,156.47 C203.18,160.29 205.50,166.81 207.00,169.66 C208.45,172.38 212.14,177.14 214.02,178.63 C215.93,180.10 220.61,182.03 223.56,182.75 C226.62,183.47 230.32,183.77 233.88,183.66 C237.09,183.52 251.79,180.30 254.88,178.90 C257.07,177.89 260.89,174.95 262.72,173.05 C264.57,171.10 267.84,166.55 269.05,164.06 C270.27,161.50 271.66,156.19 271.97,153.22 C272.24,150.43 271.99,144.94 271.55,142.24 C271.00,139.08 269.96,135.79 268.34,132.56 C264.25,124.59 260.14,119.05 258.14,116.94 C257.14,115.88 254.86,113.83 253.41,112.58" fill="none" stroke="rgb(0, 0, 255)" stroke-width="2.63" stroke-opacity="1.00" stroke-linejoin="round"/>
<path d="M258.39,113.57 C257.31,113.65 256.60,113.73 256.27,113.82 C255.95,113.91 255.55,114.13 255.07,114.49 C255.99,113.77 259.92,110.43 261.75,109.54 C263.90,108.51 268.60,108.20 272.16,108.48 C273.77,108.64 277.11,109.37 278.25,109.99 C279.96,110.94 283.56,116.93 284.34,119.32 C285.67,123.55 287.98,135.88 288.32,142.66 C288.51,146.74 288.63,165.19 289.61,168.53 C290.59,171.81 292.39,176.14 293.91,177.99 C295.84,180.31 298.93,183.25 299.56,183.76 C295.88,182.27 287.23,176.49 283.45,171.52 C282.04,169.64 278.73,163.30 278.44,161.53 C278.29,160.53 278.29,158.10 278.35,156.48" fill="none" stroke="rgb(0, 0, 255)" stroke-width="2.63" stroke-opacity="1.00" stroke-linejoin="round"/>
<path d="M261.89,112.58 C261.89,112.58 259.89,113.47 259.89,113.47 C259.46,114.20 259.23,115.21 259.59,115.99 C260.18,117.24 264.33,121.62 266.11,124.00 C274.04,134.69 276.02,145.62 276.15,146.79 C274.73,145.74 269.31,133.48 266.53,125.74 C264.35,119.19 263.09,113.11 262.70,111.06 C263.85,111.35 266.59,116.01 267.83,118.22 C270.44,122.96 275.74,136.20 276.93,141.43 C277.78,145.18 278.12,148.47 278.24,149.81 C277.53,148.93 271.63,128.63 270.87,125.68 C268.12,114.84 268.61,112.48 269.29,111.64 C272.39,116.37 277.40,129.73 278.95,136.07 C280.64,143.08 281.90,153.27 281.40,156.10 C280.12,155.03 278.86,150.40 278.30,146.93 C276.92,137.94 274.90,113.87 275.23,109.11 C276.96,112.15 278.47,117.38 279.39,121.14 C281.28,129.30 283.79,142.14 284.81,148.79 C286.00,157.42 285.70,158.78 285.36,159.44 C283.68,156.86 281.91,142.24 281.44,133.71 C280.91,120.26 280.87,116.18 280.94,113.16 C280.94,113.16 287.61,160.76 287.61,160.76 C287.61,160.76 286.38,161.94 286.38,161.94" fill="none" stroke="rgb(0, 0, 255)" stroke-width="2.63" stroke-opacity="1.00" stroke-linejoin="round"/>
<path d="M279.85,142.51 C279.35,143.45 278.10,146.28 278.55,150.04 C280.13,162.30 285.92,170.58 287.10,172.00 C287.10,172.00 288.33,170.94 288.33,170.94" fill="none" stroke="rgb(0, 0, 255)" stroke-width="2.63" stroke-opacity="1.00" stroke-linejoin="round"/>
<path d="M277.35,147.99 C276.33,148.92 275.66,151.06 275.92,153.50 C276.30,156.97 281.76,167.79 282.78,169.47 C283.93,171.33 285.95,173.52 286.83,174.44" fill="none" stroke="rgb(0, 0, 255)" stroke-width="2.63" stroke-opacity="1.00" stroke-linejoin="round"/>
<path d="M277.35,147.00 C277.35,147.00 276.10,147.39 276.10,147.39 C275.76,148.79 276.36,154.02 277.21,156.73 C279.05,162.44 284.41,172.74 286.14,174.64 C286.14,174.64 287.24,174.11 287.24,174.11" fill="none" stroke="rgb(0, 0, 255)" stroke-width="2.63" stroke-opacity="1.00" stroke-linejoin="round"/>
<path d="M278.35,146.50 C278.15,148.33 277.93,151.01 277.98,152.11 C278.15,155.65 286.49,172.50 288.81,174.52 C289.07,174.74 289.65,175.14 290.55,175.73 C290.55,175.73 291.32,174.44 291.32,174.44" fill="none" stroke="rgb(0, 0, 255)" stroke-width="2.63" stroke-opacity="1.00" stroke-linejoin="round"/>
<path d="M283.84,155.98 C283.51,158.07 283.61,161.91 284.28,164.35 C284.99,166.85 287.19,172.18 288.54,174.40 C288.99,175.14 289.36,175.69 289.64,176.06 C289.83,176.30 290.22,176.76 290.82,177.43" fill="none" stroke="rgb(0, 0, 255)" stroke-width="2.63" stroke-opacity="1.00" stroke-linejoin="round"/>
<path d="M210.50,137.52 C210.50,137.52 206.55,137.39 206.55,137.39 C210.55,136.91 215.69,138.22 219.08,139.60 C226.53,142.68 228.75,142.88 228.91,142.75 C228.91,142.75 220.49,133.90 220.49,133.90 C220.49,133.90 242.16,142.35 242.16,142.35 C242.16,142.35 237.54,136.67 237.54,136.67 C237.88,136.42 249.98,141.44 254.91,142.95 C257.63,143.78 263.26,145.01 265.02,145.15 C265.02,145.15 263.38,145.50 263.38,145.50" fill="none" stroke="rgb(0, 0, 255)" stroke-width="2.63" stroke-opacity="1.00" stroke-linejoin="round"/>
<path d="M258.39,143.51 C259.58,143.49 261.56,143.52 262.69,143.61 C264.78,143.78 270.75,144.65 272.53,144.92 C272.53,144.92 272.86,144.54 272.86,144.54" fill="none" stroke="rgb(0, 0, 255)" stroke-width="2.63" stroke-opacity="1.00" stroke-linejoin="round"/>
<path d="M210.50,132.53 C210.50,132.53 207.14,132.95 207.14,132.95 C207.14,132.95 207.32,134.07 207.32,134.07 C208.33,135.09 209.89,135.96 211.68,136.27 C214.62,136.77 217.43,135.97 218.40,135.51 C217.98,134.62 217.26,134.10 215.50,133.61 C212.60,132.83 207.13,131.46 206.65,131.75 C208.44,133.25 211.07,134.71 214.07,136.02 C218.99,138.14 222.15,139.31 222.94,138.78 C222.94,138.78 212.24,126.72 212.24,126.72 C212.24,126.72 225.29,134.86 225.29,134.86 C225.29,134.86 215.68,123.99 215.68,123.99 C215.86,123.69 221.60,127.82 222.99,128.66 C227.58,131.36 229.29,131.80 229.97,131.53 C229.97,131.53 221.34,119.66 221.34,119.66 C230.77,133.91 235.89,135.82 236.51,135.51 C236.15,132.49 229.33,121.05 227.20,118.17 C230.77,125.13 237.89,134.62 240.66,136.35 C241.19,134.45 241.16,133.29 240.29,131.68 C234.85,121.31 233.90,119.12 233.56,118.14 C234.14,118.57 238.98,125.25 240.54,127.14 C246.72,134.59 249.78,136.27 250.18,136.08 C250.18,136.08 237.10,116.14 237.10,116.14 C239.39,118.91 246.93,129.40 250.78,133.58 C253.87,136.89 255.74,138.27 257.74,139.52 C258.01,137.01 257.80,135.75 256.56,133.70 C252.28,126.39 246.48,116.52 245.14,114.94 C246.27,119.29 254.90,133.62 257.65,136.02 C259.17,137.34 260.62,137.93 261.37,137.71 C261.30,135.85 258.69,131.02 256.56,127.51 C254.56,124.23 251.12,118.62 249.60,116.51 C250.19,118.88 256.88,130.51 260.66,135.09 C263.47,138.41 266.58,139.74 267.55,139.52 C267.28,137.50 264.28,133.17 262.60,130.75 C259.62,126.50 254.84,117.81 254.22,116.67 C265.08,135.88 270.83,139.74 271.43,139.62 C271.43,139.62 261.97,125.66 261.97,125.66 C261.97,125.66 272.00,139.63 272.00,139.63 C272.00,139.63 271.86,139.51 271.86,139.51" fill="none" stroke="rgb(0, 0, 255)" stroke-width="2.63" stroke-opacity="1.00" stroke-linejoin="round"/>
<path d="M233.95,131.53 C233.95,131.53 230.96,131.62 230.96,131.62 C232.83,132.94 234.33,133.85 235.84,134.42 C239.22,135.70 264.27,143.29 266.27,143.79 C256.77,137.75 242.24,131.94 241.29,131.57 C248.28,134.24 262.66,139.79 266.92,140.65 C269.35,141.13 271.22,141.06 272.29,140.55 C271.18,138.84 266.93,136.87 264.07,135.79 C256.93,133.16 252.23,131.82 251.10,131.51 C252.36,132.54 257.21,134.73 258.63,135.07 C260.31,135.45 266.67,136.21 269.37,136.52" fill="none" stroke="rgb(0, 0, 255)" stroke-width="2.63" stroke-opacity="1.00" stroke-linejoin="round"/>
<path d="M259.39,119.06 C259.06,119.53 258.81,119.86 258.64,120.06 C258.47,120.25 258.14,120.59 257.65,121.06 C257.22,120.99 256.74,120.66 256.38,120.02 C254.70,117.10 253.08,115.26 249.73,114.13 C248.37,113.71 244.44,113.37 239.15,113.18 C236.04,113.08 231.25,113.45 228.43,114.79 C224.67,116.66 223.90,119.69 224.21,121.02 C225.70,121.93 227.79,122.39 230.06,122.05 C234.07,121.44 237.74,119.71 239.73,118.37 C236.66,115.00 220.33,120.39 218.27,121.31 C217.09,121.84 216.25,122.68 215.12,124.32 C216.25,125.55 217.16,126.08 218.50,126.03 C220.90,125.93 225.48,124.57 227.61,123.46 C228.70,122.88 229.61,121.91 230.94,120.07 C230.94,120.07 230.24,118.21 230.24,118.21 C227.45,117.93 225.71,117.99 224.07,118.56 C221.13,119.61 216.49,122.40 214.41,124.23 C213.36,125.16 212.31,126.56 210.64,129.10 C210.64,129.10 214.49,132.53 214.49,132.53" fill="none" stroke="rgb(0, 0, 255)" stroke-width="2.63" stroke-opacity="1.00" stroke-linejoin="round"/>
<path d="M213.50,150.99 C214.56,153.51 227.30,154.54 227.73,153.80 C227.73,153.80 227.53,153.09 227.53,153.09" fill="none" stroke="rgb(0, 0, 255)" stroke-width="2.63" stroke-opacity="1.00" stroke-linejoin="round"/>
<path d="M217.49,155.98 C217.49,155.98 217.20,160.92 217.20,160.92 C217.76,160.44 218.24,159.37 218.43,158.01 C218.47,157.72 218.49,157.33 218.48,156.82" fill="none" stroke="rgb(0, 0, 255)" stroke-width="2.63" stroke-opacity="1.00" stroke-linejoin="round"/>
<path d="M215.99,167.45 C215.99,167.45 215.99,166.95 215.99,166.95 C215.99,166.95 218.15,169.31 218.15,169.31 C218.15,169.31 219.25,167.26 219.25,167.26" fill="none" stroke="rgb(0, 0, 255)" stroke-width="2.63" stroke-opacity="1.00" stroke-linejoin="round"/>
<path d="M243.43,154.48 C243.43,154.48 241.54,154.73 241.54,154.73 C241.54,154.73 241.13,155.54 241.13,155.54 C244.62,156.45 256.34,156.55 257.30,156.00 C257.60,155.83 258.13,155.32 258.89,154.48" fill="none" stroke="rgb(0, 0, 255)" stroke-width="2.63" stroke-opacity="1.00" stroke-linejoin="round"/>
<path d="M251.41,164.46 C251.09,164.07 250.88,163.78 250.79,163.58 C250.69,163.39 250.56,163.03 250.41,162.50 C250.41,162.50 251.42,164.64 251.42,164.64 C252.01,163.05 252.31,162.04 252.34,161.61 C252.36,161.18 252.15,160.73 251.70,160.25" fill="none" stroke="rgb(0, 0, 255)" stroke-width="2.63" stroke-opacity="1.00" stroke-linejoin="round"/>
<path d="M249.91,174.93 C249.91,174.93 248.42,173.09 248.42,173.09 C248.42,173.09 250.04,173.74 250.04,173.74 C250.04,173.74 251.41,169.76 251.41,169.76 C251.41,169.76 250.42,169.73 250.42,169.73" fill="none" stroke="rgb(0, 0, 255)" stroke-width="2.63" stroke-opacity="1.00" stroke-linejoin="round"/>
<path d="M240.93,175.43 C240.16,175.32 236.35,172.28 234.73,171.74 C233.56,171.37 231.33,171.23 230.20,171.46 C228.96,171.74 227.56,172.85 226.69,174.14 C226.52,174.40 226.28,174.83 225.97,175.43" fill="none" stroke="rgb(0, 0, 255)" stroke-width="2.63" stroke-opacity="1.00" stroke-linejoin="round"/>
<path d="M228.46,183.41 C228.38,183.41 228.30,183.41 228.21,183.41 C228.13,183.41 228.05,183.41 227.96,183.41 C227.94,183.69 227.94,183.97 227.96,184.27 C228.07,185.48 228.23,186.45 228.46,187.18 C228.63,187.72 229.05,188.66 229.71,190.01" fill="none" stroke="rgb(0, 0, 255)" stroke-width="2.63" stroke-opacity="1.00" stroke-linejoin="round"/>
<path d="M241.93,182.92 C241.93,182.92 240.68,183.83 240.68,183.83 C241.11,185.88 241.47,188.22 241.43,189.44 C241.37,190.88 240.30,193.67 239.31,195.05 C238.41,196.24 236.84,196.88 235.72,196.56 C233.47,195.80 229.00,192.33 228.69,190.74 C228.63,190.36 228.55,189.42 228.46,187.90" fill="none" stroke="rgb(0, 0, 255)" stroke-width="2.63" stroke-opacity="1.00" stroke-linejoin="round"/>
<path d="M230.96,191.40 C230.96,191.40 229.46,192.73 229.46,192.73 C229.46,192.73 228.82,189.38 228.82,189.38 C228.13,188.83 227.23,188.38 226.09,188.17 C223.24,187.68 218.11,189.72 216.05,191.23 C214.28,192.58 211.71,195.03 210.88,196.36 C209.40,198.79 208.34,205.66 208.13,210.68 C208.03,213.27 208.04,233.18 208.12,240.80 C208.30,246.92 210.70,274.18 211.46,275.73 C216.30,276.62 223.33,275.36 223.47,274.92 C223.80,273.83 221.74,255.91 221.48,251.95 C221.09,245.87 221.76,226.60 221.69,223.03 C221.67,222.17 221.52,219.23 221.48,218.34" fill="none" stroke="rgb(0, 0, 255)" stroke-width="2.63" stroke-opacity="1.00" stroke-linejoin="round"/>
<path d="M243.93,189.40 C243.93,189.40 242.68,189.15 242.68,189.15 C242.68,189.15 242.56,188.20 242.56,188.20 C244.85,187.21 253.47,189.08 255.97,190.61 C257.42,191.54 259.61,193.92 260.46,195.56 C261.60,197.83 267.48,220.38 268.29,224.16 C269.17,228.30 270.87,240.91 271.15,248.94 C271.37,257.21 271.79,272.76 271.60,272.87 C269.28,271.36 260.40,270.13 259.40,268.98 C258.13,267.36 257.61,250.97 257.43,244.03 C257.24,238.90 256.04,223.18 256.01,222.74 C255.99,222.32 255.95,221.52 255.90,220.33" fill="none" stroke="rgb(0, 0, 255)" stroke-width="2.63" stroke-opacity="1.00" stroke-linejoin="round"/>
<path d="M212.50,276.20 C212.33,276.80 212.01,277.27 212.00,277.37 C211.93,278.37 212.60,299.55 212.36,302.72 C212.15,305.84 211.54,315.07 211.51,316.98 C211.44,322.44 212.72,329.83 212.21,331.03 C212.05,331.42 209.16,334.90 208.58,335.96 C208.26,336.52 208.26,337.11 208.38,337.73 C209.87,338.96 213.83,336.54 214.56,336.15 C214.56,336.15 215.72,339.94 215.72,339.94 C215.72,339.94 217.77,337.15 217.77,337.15 C218.93,334.93 219.34,333.65 219.22,332.03 C218.47,321.75 219.82,287.17 220.82,279.79 C221.00,278.48 221.51,275.16 221.72,273.86 C221.80,273.31 221.89,272.76 221.98,272.21" fill="none" stroke="rgb(0, 0, 255)" stroke-width="2.63" stroke-opacity="1.00" stroke-linejoin="round"/>
<path d="M266.38,271.71 C266.38,283.16 266.68,291.10 267.94,297.56 C268.64,301.08 273.46,321.68 273.36,325.09 C272.78,325.24 271.68,328.02 272.03,328.74 C272.08,328.84 272.23,329.04 272.48,329.35 C272.48,329.35 276.53,326.05 276.53,326.05 C276.53,326.05 278.24,329.03 278.24,329.03 C279.02,328.45 279.61,327.42 280.16,325.50 C280.65,323.64 278.70,317.49 277.09,313.65 C275.70,310.32 274.51,295.05 273.18,284.01 C272.81,280.63 272.09,273.23 272.04,272.39 C271.98,271.17 271.92,269.94 271.86,268.72" fill="none" stroke="rgb(0, 0, 255)" stroke-width="2.63" stroke-opacity="1.00" stroke-linejoin="round"/>
<path d="M266.38,320.60 C266.38,320.60 266.71,319.61 266.71,319.61 C267.04,319.44 267.06,318.60 244.11,320.68 C240.83,321.00 233.45,323.08 229.76,323.70 C226.10,324.29 224.16,324.02 223.57,323.60 C223.55,323.58 223.35,323.42 222.97,323.10" fill="none" stroke="rgb(0, 0, 255)" stroke-width="2.63" stroke-opacity="1.00" stroke-linejoin="round"/>
<path d="M241.17,325.15 C241.17,325.15 241.17,324.89 241.17,324.89 C241.17,324.89 240.20,324.20 240.20,324.20 C240.03,325.31 243.01,357.05 245.83,377.45 C248.59,396.60 249.70,406.92 249.81,407.82 C249.81,407.82 250.42,407.88 250.42,407.88" fill="none" stroke="rgb(0, 0, 255)" stroke-width="2.63" stroke-opacity="1.00" stroke-linejoin="round"/>
<path d="M260.19,405.31 C260.19,405.31 260.19,405.57 260.19,405.57 C259.37,404.35 258.75,398.00 258.37,394.35 C256.90,379.24 253.57,339.22 253.17,336.82 C252.92,335.38 252.33,332.66 252.03,331.30 C251.48,328.67 251.40,324.55 251.45,322.94" fill="none" stroke="rgb(0, 0, 255)" stroke-width="2.63" stroke-opacity="1.00" stroke-linejoin="round"/>
<path d="M260.70,320.01 C260.70,320.40 260.70,320.78 260.70,321.17 C260.65,334.44 264.73,394.91 265.84,412.11 C266.12,410.15 259.13,408.52 258.54,408.62 C257.83,409.18 257.71,414.50 258.11,416.56 C258.46,418.13 259.59,419.51 260.68,419.58 C261.45,419.61 270.19,417.09 270.52,416.86 C270.70,416.74 270.91,416.46 271.13,416.03 C270.70,415.15 269.89,413.80 268.98,412.61 C268.49,411.97 265.41,408.21 264.30,406.85" fill="none" stroke="rgb(0, 0, 255)" stroke-width="2.63" stroke-opacity="1.00" stroke-linejoin="round"/>
<path d="M258.64,409.42 C258.64,409.42 258.64,410.45 258.64,410.45 C258.60,410.57 251.63,408.96 250.24,409.13 C249.21,409.29 247.66,410.32 247.01,411.18 C246.51,411.90 245.87,414.37 245.84,415.48 C245.84,416.34 249.17,417.40 251.75,417.35 C253.50,417.30 255.36,416.91 256.67,416.33 C256.95,416.20 257.43,415.95 258.13,415.59" fill="none" stroke="rgb(0, 0, 255)" stroke-width="2.63" stroke-opacity="1.00" stroke-linejoin="round"/>
</g>
</svg>
