<?xml version="1.0" encoding="UTF-8" standalone="no"?>
<!DOCTYPE svg PUBLIC "-//W3C//DTD SVG 1.1//EN" "http://www.w3.org/Graphics/SVG/1.1/DTD/svg11.dtd">
<svg width="128.40" height="181.68" viewBox="0.00 0.00 535.00 757.00" xmlns="http://www.w3.org/2000/svg" xmlns:xlink="http://www.w3.org/1999/xlink">
<g stroke-linecap="round" transform="translate(44.00, 155.00)" id="163-비">
<path d="M180.57,-97.95 C178.92,-97.99 177.69,-96.98 177.27,-94.79 C175.77,-87.02 176.94,-82.97 177.45,-82.44 C178.71,-82.84 181.08,-86.98 181.78,-90.06 C182.48,-93.43 181.58,-96.90 180.78,-97.91 C180.50,-98.25 179.94,-98.67 179.08,-99.17" fill="none" stroke="rgb(255, 0, 255)" stroke-width="2.63" stroke-opacity="1.00" stroke-linejoin="round"/>
<path d="M86.28,-119.90 C86.28,-119.90 86.28,-120.40 86.28,-120.40 C86.28,-120.40 84.15,-103.86 84.15,-103.86 C85.91,-104.02 87.08,-104.70 87.97,-106.44 C89.56,-109.65 90.38,-116.41 89.50,-118.46 C88.94,-119.70 88.35,-120.68 87.73,-121.38 C87.44,-121.69 86.99,-121.96 86.38,-122.17" fill="none" stroke="rgb(255, 0, 255)" stroke-width="2.63" stroke-opacity="1.00" stroke-linejoin="round"/>
<path d="M-1.52,-101.94 C-1.52,-101.94 -1.77,-103.06 -1.77,-103.06 C-1.77,-103.06 -2.52,-103.89 -2.52,-103.89 C-2.52,-103.89 -2.33,-89.91 -2.33,-89.91 C-1.03,-89.67 -0.10,-89.80 0.60,-90.48 C1.92,-91.82 2.83,-95.90 2.25,-98.33 C2.12,-98.84 1.05,-101.68 0.66,-102.07 C0.39,-102.34 -0.26,-102.77 -1.31,-103.36" fill="none" stroke="rgb(255, 0, 255)" stroke-width="2.63" stroke-opacity="1.00" stroke-linejoin="round"/>
<path d="M33.40,-61.53 C33.40,-61.53 32.90,-61.03 32.90,-61.03 C32.90,-60.97 32.90,-60.90 32.90,-60.83 C32.90,-60.18 32.86,-59.60 32.79,-59.09 C32.06,-54.49 31.95,-50.50 32.82,-49.22 C32.82,-49.22 34.13,-48.84 34.13,-48.84 C35.23,-49.24 36.21,-50.00 36.74,-51.12 C37.82,-53.49 37.47,-57.85 36.83,-59.22 C36.57,-59.74 35.98,-60.49 35.04,-61.46" fill="none" stroke="rgb(255, 0, 255)" stroke-width="2.63" stroke-opacity="1.00" stroke-linejoin="round"/>
<path d="M70.82,-47.56 C69.67,-47.38 68.26,-44.09 67.83,-40.59 C67.49,-37.73 67.30,-33.11 67.70,-31.90 C69.09,-31.79 69.97,-32.04 70.73,-32.95 C72.07,-34.63 73.13,-38.37 72.87,-40.98 C72.81,-41.55 72.16,-45.06 71.94,-45.84 C71.78,-46.38 71.37,-47.60 70.73,-49.49" fill="none" stroke="rgb(255, 0, 255)" stroke-width="2.63" stroke-opacity="1.00" stroke-linejoin="round"/>
<path d="M36.90,-5.66 C36.90,-5.66 36.90,-5.41 36.90,-5.41 C36.20,-4.85 35.92,-4.56 35.90,-3.84 C35.74,3.09 37.99,6.02 38.68,6.54 C40.04,6.67 41.96,4.42 42.38,2.26 C43.07,-1.69 39.39,-8.07 39.07,-8.51 C38.82,-8.84 38.29,-9.51 37.46,-10.49" fill="none" stroke="rgb(255, 0, 255)" stroke-width="2.63" stroke-opacity="1.00" stroke-linejoin="round"/>
<path d="M2.47,-28.61 C0.95,-27.27 -0.76,-23.29 -0.97,-21.04 C-1.71,-11.68 0.92,-8.78 1.80,-8.27 C3.60,-9.61 4.47,-10.75 4.75,-12.54 C5.53,-17.87 2.98,-27.74 2.57,-28.69 C2.44,-29.01 2.16,-29.53 1.76,-30.25" fill="none" stroke="rgb(255, 0, 255)" stroke-width="2.63" stroke-opacity="1.00" stroke-linejoin="round"/>
<path d="M10.46,33.75 C10.46,33.75 7.06,31.39 7.06,31.39 C6.72,41.53 7.45,44.23 8.01,45.25 C9.73,45.08 10.63,44.55 11.03,43.15 C11.66,40.85 11.34,35.00 9.84,32.42 C9.59,31.99 9.13,31.55 8.48,31.08" fill="none" stroke="rgb(255, 0, 255)" stroke-width="2.63" stroke-opacity="1.00" stroke-linejoin="round"/>
<path d="M49.37,55.20 C49.37,55.20 50.37,55.20 50.37,55.20 C50.37,55.24 50.35,56.67 50.33,57.82 C50.27,63.26 50.53,64.54 51.25,66.61 C52.90,66.55 53.76,66.22 54.20,65.28 C54.89,63.74 54.74,60.46 52.88,56.31 C52.26,54.96 51.13,52.53 50.63,51.47" fill="none" stroke="rgb(255, 0, 255)" stroke-width="2.63" stroke-opacity="1.00" stroke-linejoin="round"/>
<path d="M23.92,84.14 C23.40,84.68 23.09,85.10 23.00,85.40 C22.85,85.89 23.18,92.91 23.77,94.16 C24.19,95.01 24.95,95.55 25.81,95.80 C27.35,95.33 28.94,92.15 28.82,89.53 C28.73,88.27 27.46,85.07 26.57,83.96 C26.26,83.58 25.74,83.23 25.02,82.91" fill="none" stroke="rgb(255, 0, 255)" stroke-width="2.63" stroke-opacity="1.00" stroke-linejoin="round"/>
<path d="M93.77,71.17 C93.77,71.17 92.66,71.67 92.66,71.67 C92.23,71.94 92.30,79.95 92.33,80.49 C92.41,82.18 92.81,83.43 93.42,84.37 C95.35,83.80 96.41,82.96 96.97,81.18 C98.00,77.82 97.52,71.80 96.31,70.42 C95.95,70.02 94.99,69.27 93.43,68.15" fill="none" stroke="rgb(255, 0, 255)" stroke-width="2.63" stroke-opacity="1.00" stroke-linejoin="round"/>
<path d="M80.80,15.30 C80.80,15.30 79.60,15.64 79.60,15.64 C78.36,24.00 79.51,27.44 80.49,28.71 C82.06,27.84 83.95,23.79 84.29,21.13 C84.38,20.20 84.13,17.85 83.81,17.18 C83.65,16.87 83.21,16.18 82.51,15.11" fill="none" stroke="rgb(255, 0, 255)" stroke-width="2.63" stroke-opacity="1.00" stroke-linejoin="round"/>
<path d="M118.71,-14.14 C117.64,-14.31 116.22,-13.71 115.65,-12.56 C114.41,-9.99 115.33,-2.64 115.57,-1.92 C116.92,-1.58 117.80,-1.71 118.59,-2.56 C120.08,-4.20 121.45,-8.27 121.23,-10.64 C121.11,-11.72 120.05,-14.31 119.34,-15.28 C119.10,-15.60 118.70,-15.95 118.14,-16.32" fill="none" stroke="rgb(255, 0, 255)" stroke-width="2.63" stroke-opacity="1.00" stroke-linejoin="round"/>
<path d="M123.70,-68.52 C121.73,-68.54 120.77,-68.47 120.41,-68.18 C119.64,-67.49 119.10,-62.46 119.42,-60.41 C119.92,-57.47 121.24,-55.99 121.97,-55.58 C123.37,-56.81 124.06,-57.91 124.25,-59.62 C124.65,-63.38 124.41,-67.54 123.68,-70.49 C123.68,-70.49 122.68,-70.87 122.68,-70.87" fill="none" stroke="rgb(255, 0, 255)" stroke-width="2.63" stroke-opacity="1.00" stroke-linejoin="round"/>
<path d="M164.61,-43.07 C164.61,-43.07 163.66,-42.57 163.66,-42.57 C162.43,-41.37 162.66,-32.26 163.41,-31.14 C165.18,-31.17 166.15,-31.53 166.70,-32.58 C167.73,-34.65 167.59,-38.24 166.65,-40.65 C166.28,-41.59 165.98,-42.25 165.78,-42.62 C165.55,-43.04 164.99,-43.95 164.10,-45.36" fill="none" stroke="rgb(255, 0, 255)" stroke-width="2.63" stroke-opacity="1.00" stroke-linejoin="round"/>
<path d="M161.11,11.80 C161.11,11.80 160.12,10.87 160.12,10.87 C159.67,16.56 159.54,21.62 159.90,23.12 C160.18,24.17 160.83,24.92 161.65,25.31 C162.50,25.11 163.25,24.52 163.74,23.44 C164.67,21.27 164.69,16.09 163.75,13.20 C163.36,12.03 162.99,11.23 162.66,10.80 C162.32,10.37 161.46,9.54 160.06,8.29" fill="none" stroke="rgb(255, 0, 255)" stroke-width="2.63" stroke-opacity="1.00" stroke-linejoin="round"/>
<path d="M125.20,43.73 C125.20,43.73 123.98,43.73 123.98,43.73 C123.64,43.74 122.86,51.47 123.32,52.83 C123.48,53.29 124.00,54.07 124.86,55.16 C124.86,55.16 126.18,55.07 126.18,55.07 C127.83,53.78 129.08,49.18 128.83,46.03 C128.70,44.56 128.06,43.13 126.92,41.31 C126.92,41.31 125.89,41.60 125.89,41.60" fill="none" stroke="rgb(255, 0, 255)" stroke-width="2.63" stroke-opacity="1.00" stroke-linejoin="round"/>
<path d="M173.09,71.67 C172.50,72.17 171.09,72.94 170.93,73.23 C168.48,77.86 170.85,84.38 171.34,85.15 C172.63,85.15 173.34,84.80 173.77,83.68 C175.52,78.89 173.92,72.75 173.55,72.11 C173.38,71.82 172.95,71.23 172.26,70.33" fill="none" stroke="rgb(255, 0, 255)" stroke-width="2.63" stroke-opacity="1.00" stroke-linejoin="round"/>
<path d="M218.98,21.78 C217.25,22.69 216.89,24.21 217.12,27.86 C217.52,32.67 217.88,35.15 219.04,35.90 C220.56,35.76 222.49,32.81 222.65,30.49 C222.77,28.37 221.26,24.05 220.26,22.31 C220.03,21.92 219.50,21.08 218.67,19.79" fill="none" stroke="rgb(255, 0, 255)" stroke-width="2.63" stroke-opacity="1.00" stroke-linejoin="round"/>
<path d="M202.52,-59.04 C202.52,-59.04 200.53,-59.54 200.53,-59.54 C200.53,-59.54 203.76,-46.98 203.76,-46.98 C204.15,-47.07 205.17,-48.38 206.04,-50.13 C206.98,-52.06 207.39,-55.09 207.05,-57.16 C206.70,-58.98 204.11,-62.38 203.01,-63.35 C202.67,-63.64 202.23,-63.89 201.69,-64.10" fill="none" stroke="rgb(255, 0, 255)" stroke-width="2.63" stroke-opacity="1.00" stroke-linejoin="round"/>
<path d="M241.43,-108.42 C239.78,-107.99 238.57,-107.15 238.11,-105.89 C237.81,-105.05 237.42,-93.19 237.77,-92.14 C238.15,-91.85 240.14,-92.64 241.33,-93.93 C242.53,-95.27 243.56,-98.07 243.56,-99.56 C243.46,-102.26 242.55,-106.14 241.16,-110.06" fill="none" stroke="rgb(255, 0, 255)" stroke-width="2.63" stroke-opacity="1.00" stroke-linejoin="round"/>
<path d="M284.34,-79.49 C284.34,-79.49 283.34,-79.42 283.34,-79.42 C283.32,-75.58 283.27,-66.72 283.82,-64.57 C283.94,-64.14 284.47,-64.14 285.08,-64.11 C285.55,-64.18 286.75,-65.42 287.20,-66.52 C287.67,-67.79 287.78,-71.33 287.42,-72.98 C287.11,-74.29 286.11,-76.83 285.23,-78.79 C284.91,-79.51 284.59,-80.23 284.26,-80.95" fill="none" stroke="rgb(255, 0, 255)" stroke-width="2.63" stroke-opacity="1.00" stroke-linejoin="round"/>
<path d="M246.92,-26.11 C246.92,-26.11 245.67,-25.86 245.67,-25.86 C245.03,-25.12 244.85,-24.14 244.92,-21.32 C244.96,-20.20 244.91,-16.81 244.92,-16.31 C245.02,-13.50 245.59,-12.03 246.69,-11.39 C247.96,-11.83 249.25,-13.05 249.78,-14.63 C250.43,-16.67 248.26,-24.04 247.47,-26.68 C247.32,-27.22 247.17,-27.75 247.01,-28.29" fill="none" stroke="rgb(255, 0, 255)" stroke-width="2.63" stroke-opacity="1.00" stroke-linejoin="round"/>
<path d="M275.85,26.77 C275.85,26.77 273.86,27.12 273.86,27.12 C273.86,27.12 273.25,44.54 273.25,44.54 C274.41,44.31 275.90,43.01 276.98,40.96 C277.95,39.04 278.17,36.08 277.60,33.78 C277.40,33.00 276.10,29.34 275.62,27.86 C275.47,27.42 275.24,26.69 274.93,25.68" fill="none" stroke="rgb(255, 0, 255)" stroke-width="2.63" stroke-opacity="1.00" stroke-linejoin="round"/>
<path d="M242.93,71.67 C242.93,71.67 241.68,72.42 241.68,72.42 C241.05,73.64 240.79,75.16 240.93,77.53 C241.21,81.05 241.76,88.46 242.97,90.03 C243.98,89.75 244.90,88.50 245.59,86.25 C247.23,80.66 243.77,74.30 242.96,73.28 C242.74,73.02 242.34,72.59 241.74,71.97" fill="none" stroke="rgb(255, 0, 255)" stroke-width="2.63" stroke-opacity="1.00" stroke-linejoin="round"/>
<path d="M316.76,-30.60 C316.76,-30.60 313.77,-30.60 313.77,-30.60 C313.77,-30.60 313.77,-30.60 313.77,-30.60 C313.90,-30.29 313.27,-23.73 312.93,-20.95 C312.82,-19.53 313.08,-18.39 313.58,-17.50 C314.82,-16.70 317.48,-17.33 318.07,-18.19 C319.43,-20.41 318.61,-24.20 316.25,-30.56 C316.07,-31.03 315.83,-31.86 315.52,-33.04" fill="none" stroke="rgb(255, 0, 255)" stroke-width="2.63" stroke-opacity="1.00" stroke-linejoin="round"/>
<path d="M341.71,-92.96 C341.33,-92.59 340.23,-91.45 340.01,-91.01 C336.78,-84.28 339.33,-78.49 340.32,-77.72 C341.33,-78.12 342.29,-79.29 342.67,-81.03 C343.20,-83.56 341.44,-91.64 341.28,-92.16 C341.13,-92.64 340.85,-93.29 340.45,-94.11" fill="none" stroke="rgb(255, 0, 255)" stroke-width="2.63" stroke-opacity="1.00" stroke-linejoin="round"/>
<path d="M399.08,-106.43 C399.08,-106.43 397.83,-107.43 397.83,-107.43 C397.11,-106.81 395.54,-103.16 395.02,-100.56 C394.52,-97.91 394.96,-94.60 396.25,-93.92 C397.51,-93.32 400.06,-94.18 401.25,-95.43 C401.78,-96.07 402.29,-98.32 402.04,-99.75 C401.55,-102.26 398.46,-106.40 398.23,-106.85 C398.13,-107.06 398.05,-107.36 398.02,-107.77" fill="none" stroke="rgb(255, 0, 255)" stroke-width="2.63" stroke-opacity="1.00" stroke-linejoin="round"/>
<path d="M382.61,-47.56 C382.61,-47.56 381.86,-47.31 381.86,-47.31 C381.39,-46.85 381.17,-46.10 380.82,-43.52 C380.27,-39.40 380.09,-35.03 380.39,-33.80 C380.63,-32.83 381.31,-32.13 382.18,-31.72 C383.61,-31.82 386.13,-34.03 386.34,-36.72 C386.48,-38.99 384.37,-46.06 384.18,-46.55 C384.00,-46.99 383.62,-47.77 383.05,-48.88" fill="none" stroke="rgb(255, 0, 255)" stroke-width="2.63" stroke-opacity="1.00" stroke-linejoin="round"/>
<path d="M435.49,-50.06 C435.49,-50.06 433.83,-50.06 433.83,-50.06 C432.75,-49.15 432.38,-45.29 432.53,-42.43 C432.78,-38.14 433.82,-33.24 435.12,-31.56 C436.83,-31.61 438.37,-32.59 439.33,-34.57 C440.02,-36.06 439.88,-38.37 439.06,-40.15 C438.61,-41.10 434.32,-49.01 434.20,-49.69 C434.14,-50.08 434.20,-50.76 434.38,-51.76" fill="none" stroke="rgb(255, 0, 255)" stroke-width="2.63" stroke-opacity="1.00" stroke-linejoin="round"/>
<path d="M411.05,14.80 C410.94,14.75 410.22,15.03 409.87,15.48 C408.36,17.45 407.46,27.58 407.91,31.18 C409.28,32.15 410.13,32.53 410.87,32.38 C412.06,32.11 414.38,29.74 414.18,27.36 C414.08,26.28 410.76,16.85 410.61,16.32 C410.50,15.92 410.30,15.11 410.02,13.89" fill="none" stroke="rgb(255, 0, 255)" stroke-width="2.63" stroke-opacity="1.00" stroke-linejoin="round"/>
<path d="M448.96,40.24 C448.96,40.24 448.71,40.24 448.71,40.24 C448.71,40.24 448.21,39.74 448.21,39.74 C447.58,39.58 447.19,40.86 447.02,43.97 C447.01,44.06 446.96,48.67 447.06,49.40 C447.43,51.79 448.60,54.06 449.75,54.42 C450.04,54.50 450.63,54.54 451.52,54.53 C452.42,53.81 452.79,52.35 452.40,50.21 C452.29,49.58 449.33,39.47 448.73,38.04 C448.58,37.68 448.37,37.31 448.09,36.91" fill="none" stroke="rgb(255, 0, 255)" stroke-width="2.63" stroke-opacity="1.00" stroke-linejoin="round"/>
<path d="M432.00,89.13 C431.03,90.72 430.18,92.79 430.01,94.54 C429.93,95.28 430.02,100.52 430.01,102.02 C429.99,105.09 430.22,106.10 431.01,106.86 C432.58,106.87 434.50,106.67 435.27,106.23 C436.28,105.64 436.72,103.36 436.51,100.89 C436.29,98.99 433.61,91.71 432.37,89.56 C432.07,89.06 431.44,88.11 430.48,86.73" fill="none" stroke="rgb(255, 0, 255)" stroke-width="2.63" stroke-opacity="1.00" stroke-linejoin="round"/>
<path d="M381.12,86.63 C381.12,86.63 378.62,88.69 378.62,88.69 C378.62,88.69 382.90,101.39 382.90,101.39 C384.02,101.40 384.80,100.63 385.00,98.90 C385.05,98.45 385.01,93.82 384.95,93.35 C384.54,90.88 380.14,86.51 379.97,86.27 C379.58,85.72 379.06,84.64 378.41,83.02" fill="none" stroke="rgb(255, 0, 255)" stroke-width="2.63" stroke-opacity="1.00" stroke-linejoin="round"/>
<path d="M341.71,35.75 C341.71,35.75 340.96,36.12 340.96,36.12 C339.36,42.56 339.99,49.18 340.61,49.62 C342.10,49.39 344.31,46.75 344.37,44.30 C344.39,42.04 341.13,35.67 340.90,35.09 C340.77,34.78 340.58,34.16 340.32,33.22" fill="none" stroke="rgb(255, 0, 255)" stroke-width="2.63" stroke-opacity="1.00" stroke-linejoin="round"/>
<path d="M345.20,120.06 C345.20,120.06 344.95,120.72 344.95,120.72 C344.95,120.72 343.68,121.17 343.68,121.17 C342.55,126.00 343.25,134.80 343.53,136.26 C344.34,136.37 345.42,136.10 346.18,135.41 C346.95,134.65 347.88,132.40 347.90,131.00 C347.89,128.91 345.16,118.86 345.07,118.43 C344.96,117.85 344.44,113.98 344.25,112.58" fill="none" stroke="rgb(255, 0, 255)" stroke-width="2.63" stroke-opacity="1.00" stroke-linejoin="round"/>
</g>
</svg>
