<?xml version="1.0" encoding="UTF-8" standalone="no"?>
<!DOCTYPE svg PUBLIC "-//W3C//DTD SVG 1.1//EN" "http://www.w3.org/Graphics/SVG/1.1/DTD/svg11.dtd">
<svg width="128.40" height="181.68" viewBox="0.00 0.00 535.00 757.00" xmlns="http://www.w3.org/2000/svg" xmlns:xlink="http://www.w3.org/1999/xlink">
<g stroke-linecap="round" transform="translate(44.00, 155.00)" id="164-사람-1">
<path d="M82.53,370.47 C82.53,370.47 81.86,370.47 81.86,370.47 C81.23,369.80 76.95,368.51 72.69,366.82 C70.73,366.10 66.65,366.00 63.76,366.70 C61.17,367.36 55.00,369.89 52.82,371.36 C50.24,373.14 46.46,377.48 45.07,380.02 C43.82,382.39 40.18,398.18 39.70,403.16 C39.51,405.36 39.49,412.35 39.91,415.12 C40.22,416.93 41.17,419.01 42.07,419.71 C43.61,420.81 51.12,420.94 54.81,420.95 C57.22,420.98 58.07,420.86 58.73,420.47 C56.16,416.77 50.45,408.01 48.21,401.58 C47.42,399.29 46.88,397.45 46.42,395.63 C46.95,394.51 52.07,393.47 54.60,393.42 C61.34,393.35 76.47,393.14 84.86,393.00 C88.32,392.97 92.56,393.80 94.48,395.42 C95.41,396.26 95.78,400.32 95.25,403.33 C94.70,406.31 92.32,410.79 89.58,413.57 C88.54,414.61 84.04,418.83 83.20,419.61 C85.50,420.83 89.55,422.23 91.99,422.52 C93.53,422.66 96.16,422.28 97.23,421.62 C99.33,420.28 100.80,415.38 101.37,411.82 C101.92,407.81 100.92,395.28 98.84,389.19 C97.95,386.62 95.39,380.89 93.06,377.16 C90.80,373.59 86.06,368.80 82.91,367.49 C80.19,366.41 70.23,365.78 67.66,365.96 C64.74,366.21 58.97,368.52 56.13,371.07 C54.97,372.13 50.57,377.14 48.98,379.43 C46.97,382.36 44.77,387.29 43.88,390.84 C43.15,393.83 43.06,411.71 43.94,416.30 C43.94,416.30 43.93,404.04 43.93,404.04 C43.02,407.89 45.48,414.54 46.06,415.98 C47.31,415.18 47.77,414.20 47.53,412.23 C47.14,409.09 46.22,405.73 45.81,404.35 C45.81,404.35 50.01,418.77 50.01,418.77 C50.01,418.77 47.55,410.64 47.55,410.64 C47.55,410.64 48.91,416.48 48.91,416.48 C48.91,416.48 40.80,419.72 40.80,419.72 C41.74,418.27 41.28,414.16 40.00,409.17 C39.15,405.91 38.44,401.66 38.54,400.41 C38.74,398.31 41.89,388.99 42.43,387.69 C43.63,384.87 46.82,380.99 48.82,379.08 C51.25,376.82 66.67,369.40 67.46,369.80 C66.58,370.02 61.77,371.26 59.83,372.58 C53.53,377.04 52.41,383.30 52.52,385.12 C52.52,385.12 53.88,386.29 53.88,386.29 C55.66,385.87 57.45,384.85 58.80,383.27 C60.79,380.89 63.56,375.57 63.31,373.23 C61.75,372.85 58.88,375.76 55.23,380.20 C52.72,383.31 51.64,386.00 51.55,387.18 C53.25,386.68 58.72,381.40 59.78,380.10 C63.01,376.11 63.61,373.97 63.51,372.86 C61.42,373.14 57.94,375.63 56.16,377.23 C54.26,378.95 51.42,382.22 50.16,384.10 C49.46,385.15 49.07,386.46 48.67,388.79 C48.67,388.79 50.54,389.87 50.54,389.87 C53.31,389.13 56.62,387.62 59.04,385.70 C60.90,384.20 64.38,380.41 65.26,379.09 C67.57,375.57 67.53,373.70 67.09,372.90 C65.97,373.04 64.63,373.85 63.45,375.33 C62.52,376.52 61.04,379.42 60.65,380.82 C60.18,382.59 60.35,384.15 60.95,385.36 C62.30,385.30 63.88,384.40 65.21,382.62 C66.85,380.40 68.93,374.11 69.05,373.08 C67.01,376.57 68.29,385.04 68.85,386.90 C70.96,384.60 72.35,381.68 72.91,377.67 C73.38,373.77 73.26,372.40 72.88,370.41 C71.20,373.19 70.22,376.51 70.36,380.04 C70.55,383.24 71.72,387.65 73.39,388.69 C74.52,388.30 75.52,387.06 75.85,385.16 C76.23,382.82 75.25,375.27 74.75,373.98 C74.57,381.64 79.35,386.50 80.71,387.29 C80.71,387.29 82.17,386.26 82.17,386.26 C82.61,381.79 81.94,378.22 80.44,374.30 C79.50,371.87 78.78,370.64 77.97,369.89 C77.30,372.11 83.77,385.41 86.36,388.05 C87.05,386.03 87.10,384.33 86.36,381.62 C85.24,377.51 84.00,373.75 83.69,372.84 C83.69,372.84 91.15,390.57 91.15,390.57 C91.35,387.43 89.16,380.23 88.60,377.62 C88.53,377.27 88.41,376.68 88.25,375.84 C89.34,376.53 90.08,377.56 90.96,379.88 C92.55,384.18 94.09,388.82 94.36,392.46 C92.74,392.11 87.79,390.98 82.00,390.57 C73.47,390.04 56.42,389.06 52.93,389.25 C52.93,389.25 84.52,389.07 84.52,389.07" fill="none" stroke="rgb(0, 255, 0)" stroke-width="3.40" stroke-opacity="1.00" stroke-linejoin="round"/>
<path d="M67.92,383.09 C67.92,383.09 66.93,383.42 66.93,383.42 C66.93,383.42 66.59,384.00 66.59,384.00 C66.97,384.51 68.65,385.36 70.68,385.94 C71.34,386.13 78.43,387.47 79.64,387.70" fill="none" stroke="rgb(0, 255, 0)" stroke-width="3.40" stroke-opacity="1.00" stroke-linejoin="round"/>
<path d="M95.14,387.74 C94.55,388.66 93.39,390.50 93.29,390.94 C92.93,392.83 96.45,399.19 96.98,400.53 C99.70,407.63 97.75,415.17 97.21,416.14 C97.21,416.14 97.14,400.22 97.14,400.22 C97.14,400.22 95.35,416.12 95.35,416.12 C95.35,416.12 95.60,409.36 95.60,409.36 C93.39,413.47 92.19,416.14 93.06,419.13 C93.18,419.53 93.43,420.13 93.82,420.93" fill="none" stroke="rgb(0, 255, 0)" stroke-width="3.40" stroke-opacity="1.00" stroke-linejoin="round"/>
<path d="M57.96,399.02 C57.96,399.02 56.63,400.19 56.63,400.19 C57.81,399.67 60.54,398.40 61.38,398.42 C62.88,398.45 64.11,398.84 65.07,399.59 C65.51,399.94 65.94,400.72 66.39,401.92" fill="none" stroke="rgb(0, 255, 0)" stroke-width="3.40" stroke-opacity="1.00" stroke-linejoin="round"/>
<path d="M75.23,401.02 C75.23,401.02 73.90,401.68 73.90,401.68 C74.82,400.52 76.69,399.29 78.36,399.14 C79.59,399.03 82.21,399.58 82.85,399.97 C83.27,400.24 83.83,400.59 84.52,401.02" fill="none" stroke="rgb(0, 255, 0)" stroke-width="3.40" stroke-opacity="1.00" stroke-linejoin="round"/>
<path d="M69.91,403.01 C69.12,403.71 68.52,405.10 68.59,406.69 C68.62,407.65 68.78,408.51 69.05,409.25 C69.16,409.54 69.39,409.87 69.72,410.25" fill="none" stroke="rgb(0, 255, 0)" stroke-width="3.40" stroke-opacity="1.00" stroke-linejoin="round"/>
<path d="M65.27,412.97 C66.14,414.75 67.02,415.51 68.65,415.56 C70.50,415.58 72.97,415.05 74.26,414.29 C74.83,413.94 76.75,412.12 77.67,411.26" fill="none" stroke="rgb(0, 255, 0)" stroke-width="3.40" stroke-opacity="1.00" stroke-linejoin="round"/>
<path d="M83.19,408.98 C83.19,408.98 81.20,408.98 81.20,408.98 C81.20,408.98 82.35,410.60 82.35,410.60" fill="none" stroke="rgb(0, 255, 0)" stroke-width="3.40" stroke-opacity="1.00" stroke-linejoin="round"/>
<path d="M57.30,406.99 C57.30,406.99 56.63,407.66 56.63,407.66 C56.63,407.66 57.63,407.66 57.63,407.66" fill="none" stroke="rgb(0, 255, 0)" stroke-width="3.40" stroke-opacity="1.00" stroke-linejoin="round"/>
<path d="M55.97,418.94 C55.97,418.94 55.31,419.08 55.31,419.08 C59.49,420.38 66.10,421.41 70.68,421.54 C73.22,421.59 75.23,421.31 76.77,420.67 C76.83,420.64 79.80,419.16 81.31,418.46" fill="none" stroke="rgb(0, 255, 0)" stroke-width="3.40" stroke-opacity="1.00" stroke-linejoin="round"/>
<path d="M69.25,422.26 C69.25,422.26 66.81,423.56 66.81,423.56 C66.64,425.08 66.57,426.14 66.59,426.76 C66.62,427.37 66.77,428.39 67.05,429.81" fill="none" stroke="rgb(0, 255, 0)" stroke-width="3.40" stroke-opacity="1.00" stroke-linejoin="round"/>
<path d="M73.90,422.26 C73.89,422.48 73.89,422.70 73.90,422.93 C73.92,424.02 74.05,426.69 73.90,427.33 C73.58,428.51 73.10,429.35 72.46,429.85 C71.45,430.60 69.29,430.10 67.27,429.07 C67.03,428.94 60.81,428.34 59.59,428.86 C59.59,428.86 58.75,430.44 58.75,430.44 C59.29,432.02 60.62,433.59 62.19,434.05 C63.48,434.42 65.57,433.83 67.42,432.90 C67.42,432.90 67.96,437.02 67.96,437.02 C69.46,437.01 70.44,436.47 71.94,434.67 C72.32,434.22 72.85,433.60 73.53,432.84 C73.53,432.84 77.14,432.55 77.14,432.55 C79.29,430.45 79.23,428.16 78.88,426.81 C78.88,426.81 76.84,426.88 76.84,426.88" fill="none" stroke="rgb(0, 255, 0)" stroke-width="3.40" stroke-opacity="1.00" stroke-linejoin="round"/>
<path d="M58.63,427.57 C58.63,427.57 56.97,428.24 56.97,428.24 C56.97,428.24 56.63,428.90 56.63,428.90 C55.83,429.11 46.31,436.05 39.62,442.40 C37.80,444.01 31.24,445.82 29.70,446.73 C28.11,447.73 26.07,450.39 25.72,452.11 C25.37,454.07 26.70,456.95 28.41,458.41 C29.82,459.53 35.49,459.88 38.81,458.87 C39.68,458.59 44.41,456.64 45.45,456.17 C47.61,455.13 48.57,454.14 49.23,452.29 C49.39,451.81 49.65,451.13 50.01,450.24" fill="none" stroke="rgb(0, 255, 0)" stroke-width="3.40" stroke-opacity="1.00" stroke-linejoin="round"/>
<path d="M25.43,454.13 C25.28,454.14 25.17,454.14 25.10,454.13 C24.80,454.12 24.57,454.12 24.43,454.13 C18.49,454.50 15.20,458.00 14.41,459.30 C14.41,459.30 18.42,459.62 18.42,459.62 C18.42,459.62 16.15,464.32 16.15,464.32 C17.82,465.31 19.93,465.40 22.24,464.34 C23.76,463.65 24.77,462.60 24.98,461.87 C24.98,461.87 34.85,456.47 34.85,456.47" fill="none" stroke="rgb(0, 255, 0)" stroke-width="3.40" stroke-opacity="1.00" stroke-linejoin="round"/>
<path d="M44.02,456.79 C44.02,456.79 44.02,454.80 44.02,454.80 C43.89,458.12 41.16,471.02 40.43,474.94 C40.11,476.81 40.25,477.95 40.93,479.11 C41.81,480.49 43.46,482.42 44.44,483.05 C47.33,484.83 60.81,485.05 72.26,484.44 C75.92,484.20 80.75,483.13 83.12,481.66 C84.44,480.80 86.91,478.13 87.65,476.65 C88.94,473.99 89.34,468.44 89.14,466.38 C88.89,463.90 87.42,458.69 86.48,456.39 C85.50,454.03 82.31,448.68 82.10,448.26 C81.90,447.87 81.60,447.17 81.20,446.16" fill="none" stroke="rgb(0, 255, 0)" stroke-width="3.40" stroke-opacity="1.00" stroke-linejoin="round"/>
<path d="M85.85,450.15 C85.85,450.15 84.19,451.81 84.19,451.81 C84.19,451.81 84.03,453.22 84.03,453.22 C85.99,455.27 93.13,455.46 95.57,454.78 C96.80,454.40 99.04,452.81 99.94,451.59 C100.79,450.39 100.33,448.20 99.05,445.78 C97.27,442.71 93.21,436.02 90.49,433.92 C88.32,432.31 79.75,429.79 79.50,429.55 C79.30,429.36 78.76,428.70 77.88,427.57" fill="none" stroke="rgb(0, 255, 0)" stroke-width="3.40" stroke-opacity="1.00" stroke-linejoin="round"/>
<path d="M95.14,452.80 C95.14,452.80 93.32,453.97 93.32,453.97 C92.79,456.53 92.86,458.09 93.76,459.72 C94.66,461.34 95.55,462.73 97.20,465.21 C97.20,465.21 98.36,464.96 98.36,464.96" fill="none" stroke="rgb(0, 255, 0)" stroke-width="3.40" stroke-opacity="1.00" stroke-linejoin="round"/>
<path d="M99.13,455.46 C99.13,455.46 98.24,455.46 98.24,455.46 C98.24,455.46 97.91,456.06 97.91,456.06 C98.09,457.61 101.28,464.19 101.37,464.38 C101.47,464.61 101.49,464.74 101.43,464.76 C101.17,464.77 100.92,464.81 100.68,464.88 C100.14,465.03 97.79,465.87 96.98,466.16 C96.20,467.13 96.00,469.12 96.67,470.94 C96.98,471.75 98.41,472.52 99.22,472.58 C100.99,472.59 104.59,468.93 105.68,467.42 C105.68,467.42 106.56,471.43 106.56,471.43 C108.07,470.49 109.08,469.39 109.48,467.89 C110.16,465.16 108.14,462.07 107.09,460.77" fill="none" stroke="rgb(0, 255, 0)" stroke-width="3.40" stroke-opacity="1.00" stroke-linejoin="round"/>
<path d="M43.36,485.34 C43.36,485.34 45.95,480.90 45.95,480.90 C46.07,484.08 45.03,498.97 44.78,505.29 C44.66,512.39 44.57,527.12 44.00,532.22 C42.84,542.05 42.62,549.98 41.49,558.68 C40.76,564.61 40.75,569.38 41.72,570.91 C43.13,573.01 44.50,574.24 45.75,574.39 C52.26,575.13 57.58,574.59 58.68,574.45 C58.69,574.37 54.04,574.68 49.87,574.43 C43.47,574.05 41.14,574.17 39.32,575.76 C39.96,578.09 41.09,579.17 43.22,579.21 C47.88,579.26 52.61,577.07 54.24,576.09 C54.61,575.86 55.19,575.49 55.97,574.97" fill="none" stroke="rgb(0, 255, 0)" stroke-width="3.40" stroke-opacity="1.00" stroke-linejoin="round"/>
<path d="M60.62,572.32 C60.42,572.25 60.20,572.25 59.95,572.32 C59.71,572.38 59.10,572.60 58.13,572.98 C58.05,572.94 61.62,558.79 62.45,552.84 C62.86,549.84 65.00,527.37 65.48,524.97 C66.29,521.01 67.42,518.26 67.96,517.18 C68.41,523.69 69.20,538.02 69.55,545.86 C70.09,556.87 70.80,564.78 72.34,567.72 C74.75,569.05 81.15,569.80 83.74,570.06 C88.03,570.68 92.54,570.81 94.55,570.29 C95.69,569.97 97.56,568.75 98.13,567.98 C99.14,566.49 98.43,563.00 97.02,562.04 C95.21,560.92 91.48,561.86 88.66,563.44 C88.00,563.81 82.28,566.95 81.57,567.29 C81.15,567.49 80.37,567.84 79.21,568.33" fill="none" stroke="rgb(0, 255, 0)" stroke-width="3.40" stroke-opacity="1.00" stroke-linejoin="round"/>
<path d="M97.80,559.70 C97.80,559.70 97.47,561.22 97.47,561.22 C97.47,561.22 96.47,561.69 96.47,561.69 C96.45,561.10 92.50,542.96 91.20,535.75 C89.81,527.76 84.54,495.60 82.83,483.30 C82.73,482.65 82.63,482.00 82.53,481.35" fill="none" stroke="rgb(0, 255, 0)" stroke-width="3.40" stroke-opacity="1.00" stroke-linejoin="round"/>
</g>
</svg>
