<?xml version="1.0" encoding="UTF-8" standalone="no"?>
<!DOCTYPE svg PUBLIC "-//W3C//DTD SVG 1.1//EN" "http://www.w3.org/Graphics/SVG/1.1/DTD/svg11.dtd">
<svg width="128.40" height="181.68" viewBox="0.00 0.00 535.00 757.00" xmlns="http://www.w3.org/2000/svg" xmlns:xlink="http://www.w3.org/1999/xlink">
<g stroke-linecap="round" transform="translate(44.00, 155.00)" id="164-지면">
<path d="M79.21,119.50 C79.21,119.50 76.50,119.75 76.50,119.75 C74.67,122.90 68.61,135.37 66.05,141.75 C64.72,145.05 55.93,155.99 51.83,162.75 C43.39,177.17 34.72,196.00 25.62,211.84 C22.08,217.88 13.84,232.43 11.65,236.84 C7.95,244.48 2.81,257.48 0.52,263.78 C-1.75,270.05 -7.36,281.76 -10.48,287.81 C-14.51,295.62 -22.32,319.21 -22.49,319.84 C-22.60,320.26 -22.78,321.20 -23.04,322.67" fill="none" stroke="rgb(255, 255, 0)" stroke-width="3.40" stroke-opacity="1.00" stroke-linejoin="round"/>
<path d="M-16.40,325.99 C-16.40,325.99 -18.47,325.47 -18.47,325.47 C-22.34,339.17 -29.04,360.30 -29.10,360.55 C-29.22,360.99 -29.41,361.87 -29.68,363.17" fill="none" stroke="rgb(255, 255, 0)" stroke-width="3.40" stroke-opacity="1.00" stroke-linejoin="round"/>
<path d="M455.67,160.00 C455.67,160.00 455.67,160.67 455.67,160.67 C455.67,160.67 456.33,161.39 456.33,161.39 C454.21,163.40 438.31,176.77 435.00,179.77 C431.90,182.59 418.74,195.96 416.16,198.93 C416.03,199.08 370.53,257.34 361.80,268.30 C356.98,274.33 337.51,304.28 328.05,319.00 C327.29,320.21 301.86,363.43 298.97,369.14 C292.31,382.70 279.28,408.37 272.91,420.49 C268.96,428.54 264.03,441.48 262.08,445.78 C260.28,449.71 251.60,466.66 248.04,473.47 C243.03,483.21 229.73,519.36 226.85,526.50 C223.71,533.82 215.94,551.78 214.33,555.89 C212.24,561.27 204.39,585.32 203.09,588.84 C203.09,588.84 202.04,588.25 202.04,588.25" fill="none" stroke="rgb(255, 255, 0)" stroke-width="3.40" stroke-opacity="1.00" stroke-linejoin="round"/>
</g>
</svg>
