<?xml version="1.0" encoding="UTF-8" standalone="no"?>
<!DOCTYPE svg PUBLIC "-//W3C//DTD SVG 1.1//EN" "http://www.w3.org/Graphics/SVG/1.1/DTD/svg11.dtd">
<svg width="128.40" height="181.68" viewBox="0.00 0.00 535.00 757.00" xmlns="http://www.w3.org/2000/svg" xmlns:xlink="http://www.w3.org/1999/xlink">
<g stroke-linecap="round" transform="translate(44.00, 155.00)" id="164-구름-2">
<path d="M190.75,-114.87 C190.75,-114.87 187.76,-114.54 187.76,-114.54 C187.76,-114.54 187.43,-113.54 187.43,-113.54 C188.49,-115.45 191.54,-121.74 193.17,-123.94 C194.95,-126.31 199.42,-129.89 201.58,-130.80 C203.70,-131.65 208.57,-131.84 211.63,-131.53 C214.84,-131.17 217.20,-130.24 217.77,-129.75 C218.25,-130.14 221.97,-134.78 224.26,-136.72 C226.73,-138.76 231.80,-141.49 234.34,-142.07 C236.54,-142.54 241.19,-142.16 243.12,-141.49 C245.39,-140.63 250.18,-136.60 250.94,-134.29 C251.07,-133.89 251.15,-133.17 251.17,-132.13" fill="none" stroke="rgb(0, 0, 255)" stroke-width="3.40" stroke-opacity="1.00" stroke-linejoin="round"/>
<path d="M257.15,-134.79 C257.15,-134.79 253.39,-134.96 253.39,-134.96 C256.36,-137.76 259.84,-140.64 262.01,-141.61 C264.35,-142.62 270.65,-143.36 274.49,-143.39 C278.31,-143.39 283.86,-142.28 285.89,-141.05 C287.76,-139.86 290.58,-136.32 291.73,-134.10 C293.03,-131.49 293.34,-129.05 293.18,-127.61 C294.47,-129.60 296.15,-131.07 298.37,-131.96 C300.59,-132.83 305.93,-133.09 308.56,-132.23 C311.07,-131.37 315.36,-127.97 316.21,-126.54 C317.24,-124.70 317.93,-121.97 317.88,-119.71 C317.73,-115.71 316.08,-111.45 314.24,-107.61 C316.08,-106.56 319.05,-104.17 320.59,-102.07 C322.07,-99.99 323.90,-94.97 323.75,-93.33 C323.50,-91.12 322.08,-88.10 320.56,-86.71 C317.38,-83.89 310.19,-81.29 309.60,-81.05 C311.94,-80.98 314.15,-80.28 315.89,-78.91 C317.29,-77.78 319.58,-73.52 319.81,-71.27 C319.86,-70.68 319.72,-67.52 319.44,-66.76 C318.76,-64.99 317.30,-62.81 316.29,-62.01 C314.16,-60.43 310.18,-58.41 307.72,-57.76 C305.06,-57.09 300.28,-57.15 297.81,-57.89 C295.29,-58.72 292.43,-61.36 290.70,-63.36 C290.82,-60.46 290.44,-56.74 289.55,-54.34 C288.63,-52.00 285.84,-48.31 283.85,-46.93 C281.98,-45.67 277.28,-44.09 274.90,-43.89 C272.39,-43.70 267.87,-44.46 265.29,-45.43 C261.73,-46.83 257.34,-50.81 257.15,-51.04 C254.89,-47.74 252.73,-45.59 250.15,-43.84 C247.48,-42.08 242.30,-40.83 239.35,-41.68 C236.29,-42.63 232.52,-46.50 230.39,-50.14 C229.29,-52.10 229.08,-53.50 229.47,-56.13 C229.61,-56.95 229.76,-57.94 229.93,-59.10" fill="none" stroke="rgb(0, 0, 255)" stroke-width="3.40" stroke-opacity="1.00" stroke-linejoin="round"/>
<path d="M228.60,-59.10 C228.60,-59.10 228.27,-59.10 228.27,-59.10 C228.27,-59.10 227.60,-58.44 227.60,-58.44 C227.37,-60.18 227.26,-61.28 227.27,-61.76 C227.28,-62.23 227.41,-62.73 227.67,-63.27" fill="none" stroke="rgb(0, 0, 255)" stroke-width="3.40" stroke-opacity="1.00" stroke-linejoin="round"/>
<path d="M202.70,-124.83 C199.39,-124.82 197.93,-124.59 197.23,-123.56 C195.12,-120.38 191.23,-114.32 191.56,-113.41 C191.56,-113.41 208.08,-128.22 208.08,-128.22 C200.07,-115.65 197.67,-111.32 198.24,-109.97 C201.38,-111.87 205.41,-116.24 207.88,-119.33 C210.14,-122.23 214.04,-127.22 215.40,-129.13 C215.40,-129.13 202.89,-103.12 202.89,-103.12 C206.04,-105.35 216.96,-120.09 221.72,-126.62 C224.76,-130.63 227.36,-133.67 227.93,-134.35 C217.18,-119.32 211.52,-107.94 210.85,-106.00 C213.14,-107.01 215.65,-109.42 219.45,-114.16 C224.57,-120.82 233.12,-131.83 236.57,-136.19 C236.57,-136.19 218.73,-106.73 218.73,-106.73 C218.73,-106.73 244.44,-136.42 244.44,-136.42 C244.44,-136.42 226.07,-105.39 226.07,-105.39 C226.07,-105.39 251.65,-133.50 251.65,-133.50 C251.65,-133.50 232.11,-101.66 232.11,-101.66 C234.51,-103.21 239.25,-108.77 242.06,-112.05 C256.18,-128.62 262.60,-135.28 265.78,-138.58 C265.78,-138.58 232.55,-93.50 232.55,-93.50 C235.54,-95.68 266.40,-127.26 272.13,-134.29 C274.26,-137.00 277.06,-140.56 277.73,-141.41 C275.86,-140.55 269.72,-133.12 261.62,-122.91 C245.18,-101.91 239.15,-92.97 238.11,-90.80 C241.55,-92.10 245.27,-94.58 248.20,-97.80 C260.00,-111.25 273.98,-128.91 279.97,-135.44 C270.50,-124.10 249.92,-99.20 238.82,-85.65 C233.87,-79.45 231.77,-75.51 230.87,-73.87 C235.11,-76.65 241.82,-83.79 249.49,-92.42 C266.50,-111.79 282.70,-131.61 288.16,-136.44 C288.42,-136.68 288.82,-137.01 289.35,-137.45 C278.73,-125.72 263.34,-108.49 249.74,-91.01 C247.94,-88.64 243.92,-83.28 242.57,-81.24 C241.49,-79.59 238.93,-75.53 238.17,-71.55 C240.76,-72.14 245.02,-75.76 247.11,-77.80 C250.50,-81.13 280.77,-116.75 289.02,-125.45 C290.80,-127.30 295.11,-131.70 295.38,-132.02 C286.09,-122.26 270.46,-105.59 258.73,-92.00 C242.75,-72.53 237.88,-65.88 234.30,-59.43 C236.64,-60.16 239.73,-62.32 243.63,-65.90 C252.47,-74.27 272.97,-97.56 282.27,-108.30 C287.87,-114.57 298.18,-125.99 302.96,-130.31 C302.96,-130.29 274.81,-96.97 264.12,-84.59 C258.60,-78.11 248.90,-66.48 247.02,-63.42 C247.77,-63.02 249.46,-63.23 251.39,-64.08 C253.71,-65.13 265.80,-78.96 270.29,-84.35 C280.52,-96.85 295.61,-113.37 303.92,-121.81 C290.36,-105.16 275.28,-88.65 263.96,-76.33 C258.68,-70.58 248.81,-59.74 245.81,-56.22 C247.64,-56.38 250.98,-56.53 251.56,-56.72 C255.10,-57.92 264.88,-67.20 272.48,-75.48 C282.23,-86.58 312.65,-122.96 314.30,-124.72 C312.32,-123.34 287.82,-92.93 278.84,-81.56 C267.16,-65.84 250.84,-41.82 249.07,-38.85 C251.06,-39.71 253.76,-42.08 256.74,-45.82 C265.98,-57.69 285.36,-82.21 295.50,-94.85 C303.91,-104.84 308.11,-109.04 313.25,-113.82 C305.85,-106.16 273.26,-63.75 268.60,-57.44 C270.51,-58.06 278.79,-66.45 285.93,-74.10 C294.84,-84.39 309.39,-100.82 309.98,-100.70 C309.98,-100.70 268.10,-49.81 268.10,-49.81 C268.10,-49.81 317.62,-101.10 317.62,-101.10 C307.35,-90.61 288.68,-67.62 278.73,-55.13 C276.02,-51.61 274.29,-48.70 271.92,-44.33 C274.06,-44.64 279.61,-49.49 280.28,-50.17 C283.66,-53.61 305.75,-79.79 311.59,-85.58 C311.58,-85.47 299.19,-71.44 293.58,-63.49 C292.30,-61.71 291.56,-60.41 290.23,-57.78 C291.79,-58.23 296.24,-62.85 299.16,-65.89 C309.57,-76.85 310.77,-77.95 312.79,-79.61 C312.79,-79.61 300.77,-61.87 300.77,-61.87 C300.77,-61.87 312.32,-73.53 312.32,-73.53 C312.32,-73.53 308.49,-64.43 308.49,-64.43 C310.71,-64.87 314.65,-69.11 315.83,-70.38 C315.83,-70.38 313.58,-67.07 313.58,-67.07" fill="none" stroke="rgb(0, 0, 255)" stroke-width="3.40" stroke-opacity="1.00" stroke-linejoin="round"/>
<path d="M318.23,-94.29 C318.23,-94.29 317.23,-94.29 317.23,-94.29 C317.23,-94.29 316.90,-94.86 316.90,-94.86 C316.90,-94.86 315.75,-88.13 315.75,-88.13 C315.75,-88.13 320.36,-93.41 320.36,-93.41 C320.36,-93.41 316.05,-88.38 316.05,-88.38" fill="none" stroke="rgb(0, 0, 255)" stroke-width="3.40" stroke-opacity="1.00" stroke-linejoin="round"/>
<path d="M239.88,-77.69 C239.88,-77.69 229.45,-67.05 229.45,-67.05 C230.99,-66.43 233.50,-68.35 237.67,-72.05 C238.35,-72.64 239.02,-73.24 239.70,-73.83 C239.70,-73.83 234.54,-63.30 234.54,-63.30 C234.54,-63.30 243.76,-70.26 243.76,-70.26 C243.76,-70.26 235.77,-56.25 235.77,-56.25 C238.45,-57.07 239.71,-57.67 241.09,-58.93 C246.37,-63.70 252.60,-69.32 253.55,-70.17 C253.11,-69.48 239.66,-53.67 238.39,-51.75 C237.86,-50.94 237.66,-50.09 237.54,-48.83 C237.54,-48.83 260.13,-67.98 260.13,-67.98 C251.43,-59.49 243.12,-50.79 240.71,-46.46 C241.90,-46.36 242.84,-46.52 244.05,-47.34 C246.87,-49.25 263.05,-62.36 265.22,-64.82 C248.81,-51.03 245.66,-44.94 244.91,-43.18 C245.95,-42.72 246.79,-42.68 248.03,-43.19 C252.77,-45.19 260.73,-51.64 263.20,-55.07 C263.20,-55.07 257.39,-50.83 257.39,-50.83 C257.39,-50.83 263.12,-55.78 263.12,-55.78" fill="none" stroke="rgb(0, 0, 255)" stroke-width="3.40" stroke-opacity="1.00" stroke-linejoin="round"/>
<path d="M233.91,-74.37 C233.91,-74.37 226.66,-68.45 226.66,-68.45 C227.75,-67.54 228.06,-66.52 227.93,-64.17 C227.91,-63.82 227.92,-63.52 227.96,-63.25 C227.96,-63.25 235.30,-66.10 235.30,-66.10 C235.30,-66.10 230.22,-57.40 230.22,-57.40 C230.22,-57.40 238.00,-62.95 238.00,-62.95 C238.00,-62.95 239.88,-61.76 239.88,-61.76" fill="none" stroke="rgb(0, 0, 255)" stroke-width="3.40" stroke-opacity="1.00" stroke-linejoin="round"/>
<path d="M231.25,-48.48 C231.25,-48.48 229.59,-47.48 229.59,-47.48 C229.59,-47.48 229.62,-47.27 229.62,-47.27 C233.69,-49.84 244.33,-60.13 244.81,-60.61 C245.10,-60.91 245.65,-61.48 246.45,-62.33" fill="none" stroke="rgb(0, 0, 255)" stroke-width="3.40" stroke-opacity="1.00" stroke-linejoin="round"/>
<path d="M237.89,-47.15 C237.89,-47.15 236.57,-46.15 236.57,-46.15 C236.57,-46.15 236.57,-45.82 236.57,-45.82 C237.35,-46.46 239.34,-48.09 240.54,-49.08 C242.97,-51.13 246.08,-54.49 247.19,-55.78" fill="none" stroke="rgb(0, 0, 255)" stroke-width="3.40" stroke-opacity="1.00" stroke-linejoin="round"/>
<path d="M308.94,-128.15 C308.94,-128.15 304.95,-125.89 304.95,-125.89 C304.91,-124.48 303.42,-122.65 299.45,-118.15 C293.97,-112.08 286.40,-103.83 284.30,-101.64 C283.63,-100.94 282.34,-99.59 281.71,-98.94" fill="none" stroke="rgb(0, 0, 255)" stroke-width="3.40" stroke-opacity="1.00" stroke-linejoin="round"/>
</g>
</svg>
