<?xml version="1.0" encoding="UTF-8" standalone="no"?>
<!DOCTYPE svg PUBLIC "-//W3C//DTD SVG 1.1//EN" "http://www.w3.org/Graphics/SVG/1.1/DTD/svg11.dtd">
<svg width="128.40" height="181.68" viewBox="0.00 0.00 535.00 757.00" xmlns="http://www.w3.org/2000/svg" xmlns:xlink="http://www.w3.org/1999/xlink">
<g stroke-linecap="round" transform="translate(44.00, 155.00)" id="164-구름-1">
<path d="M206.02,-99.60 C206.02,-99.60 200.20,-99.60 200.20,-99.60 C203.23,-99.73 211.52,-102.78 212.47,-103.06 C216.14,-104.12 221.80,-103.58 224.82,-102.39 C227.07,-101.46 229.73,-98.43 230.49,-96.28 C231.18,-94.22 231.92,-87.76 231.11,-84.23 C230.72,-82.61 229.30,-79.34 228.51,-78.24 C226.91,-76.12 221.47,-73.15 220.20,-72.61 C222.04,-70.19 223.70,-66.87 224.01,-64.61 C224.28,-62.14 222.40,-58.60 220.38,-57.08 C218.86,-55.99 213.71,-54.66 211.94,-54.65 C209.60,-54.67 206.35,-55.29 204.58,-56.11 C202.02,-57.56 198.73,-59.34 196.60,-60.10 C195.79,-59.35 194.69,-52.01 193.93,-49.86 C193.12,-47.63 190.36,-43.19 188.55,-41.81 C186.80,-40.53 182.54,-39.60 180.83,-39.73 C179.05,-39.88 171.69,-41.51 170.28,-42.04 C167.54,-43.10 164.96,-45.03 162.60,-46.88 C161.33,-46.37 157.61,-39.29 155.82,-37.44 C154.22,-35.87 151.11,-34.68 149.19,-34.94 C146.17,-35.45 139.90,-39.64 137.89,-42.35 C136.65,-44.05 136.10,-45.16 135.54,-46.94 C133.91,-46.06 126.82,-39.75 126.31,-39.38 C124.63,-38.22 121.33,-37.03 119.64,-37.18 C116.62,-37.50 111.67,-41.08 110.09,-42.93 C108.16,-45.24 105.68,-50.57 105.14,-53.70 C104.64,-56.76 105.18,-62.03 106.05,-64.59 C106.51,-65.84 108.16,-68.18 109.34,-69.19 C110.28,-69.98 112.07,-70.32 114.01,-70.41 C111.49,-73.29 109.70,-77.16 109.08,-79.73 C108.41,-82.65 108.87,-90.04 110.21,-92.58 C111.77,-95.43 116.10,-97.97 118.94,-98.53 C121.51,-98.98 127.34,-98.10 130.10,-96.95 C131.94,-96.16 137.65,-92.60 138.17,-91.82 C138.41,-91.45 138.90,-90.50 139.63,-88.98" fill="none" stroke="rgb(0, 0, 255)" stroke-width="3.40" stroke-opacity="1.00" stroke-linejoin="round"/>
<path d="M138.30,-96.28 C138.30,-96.28 136.31,-94.48 136.31,-94.48 C140.46,-98.24 144.43,-101.56 147.40,-103.08 C149.77,-104.27 155.16,-106.10 156.98,-106.29 C159.72,-106.53 162.66,-106.39 164.29,-105.81 C165.71,-105.29 167.74,-103.72 168.66,-102.54 C169.39,-101.54 170.58,-98.29 170.64,-97.02 C170.66,-96.53 170.50,-95.84 170.17,-94.95" fill="none" stroke="rgb(0, 0, 255)" stroke-width="3.40" stroke-opacity="1.00" stroke-linejoin="round"/>
<path d="M174.15,-100.27 C174.15,-100.27 171.50,-100.51 171.50,-100.51 C171.82,-101.75 174.70,-104.96 176.83,-106.64 C178.82,-108.19 183.14,-110.65 185.15,-111.20 C187.57,-111.82 192.02,-111.04 194.04,-109.60 C195.50,-108.53 199.11,-104.13 199.78,-102.28 C200.14,-101.25 201.04,-97.65 201.37,-96.30" fill="none" stroke="rgb(0, 0, 255)" stroke-width="3.40" stroke-opacity="1.00" stroke-linejoin="round"/>
<path d="M119.05,-90.97 C119.05,-90.97 116.45,-94.10 116.45,-94.10 C115.59,-93.39 112.68,-83.64 112.64,-81.65 C112.63,-81.16 112.75,-80.48 113.00,-79.60 C114.66,-79.57 117.59,-83.63 121.38,-89.89 C123.04,-92.70 125.39,-96.69 126.17,-97.40 C126.17,-97.40 116.84,-73.76 116.84,-73.76 C116.84,-73.76 129.90,-93.33 129.90,-93.33 C129.90,-93.33 113.37,-55.92 113.37,-55.92 C116.55,-58.72 123.02,-68.52 129.58,-79.63 C131.28,-82.55 134.44,-88.06 135.89,-90.65 C135.89,-90.65 112.95,-43.99 112.95,-43.99 C112.95,-43.99 115.07,-47.96 115.07,-47.96" fill="none" stroke="rgb(0, 0, 255)" stroke-width="3.40" stroke-opacity="1.00" stroke-linejoin="round"/>
<path d="M111.74,-64.41 C111.74,-64.41 109.42,-64.41 109.42,-64.41 C108.58,-62.57 108.27,-61.29 108.30,-59.13 C108.35,-53.39 108.49,-51.77 108.80,-49.32 C110.85,-49.74 112.01,-51.06 112.62,-53.99 C112.66,-54.18 113.97,-62.12 113.98,-64.11 C113.59,-63.12 112.58,-53.31 112.48,-51.43 C112.27,-47.07 112.94,-44.83 113.98,-42.00 C113.98,-42.00 116.40,-42.20 116.40,-42.20 C118.61,-44.94 120.99,-48.66 122.38,-51.86 C132.96,-77.38 136.32,-84.46 139.76,-91.07 C139.76,-91.07 121.77,-43.96 121.77,-43.96 C122.75,-44.14 125.21,-48.78 126.63,-51.44 C134.78,-67.11 154.92,-106.06 156.12,-108.15 C155.58,-103.95 132.08,-51.36 130.78,-47.70 C132.37,-48.99 140.84,-63.19 142.60,-66.60 C147.69,-76.77 158.51,-99.83 159.82,-102.09 C159.15,-98.33 153.67,-83.56 151.00,-76.60 C146.55,-65.69 136.77,-44.92 135.64,-42.28 C138.23,-45.02 144.06,-54.93 147.73,-61.92 C149.74,-65.80 157.35,-83.08 160.68,-90.86 C164.73,-100.16 167.25,-104.77 168.90,-106.79 C168.91,-102.90 167.28,-98.49 166.30,-95.89 C160.27,-80.25 146.13,-43.61 145.22,-39.74 C148.86,-44.04 151.98,-49.62 157.01,-59.79 C169.63,-85.61 175.95,-97.61 177.92,-100.38 C172.77,-88.55 161.03,-60.50 157.06,-47.85 C156.07,-44.57 154.01,-37.40 154.12,-36.97 C154.20,-36.72 154.49,-36.24 155.01,-35.53 C159.95,-43.70 164.39,-52.49 167.94,-60.24 C173.37,-72.76 184.58,-104.61 184.61,-104.69 C183.01,-97.88 167.70,-49.15 167.18,-47.30 C166.86,-46.17 166.87,-45.05 167.11,-43.15 C170.08,-46.76 175.87,-59.70 178.56,-67.67 C183.01,-81.51 188.74,-99.23 190.19,-101.29 C189.26,-96.66 176.52,-49.67 175.01,-42.27 C174.84,-41.37 174.66,-40.47 174.49,-39.57 C176.53,-41.73 189.52,-80.90 194.70,-92.05 C196.21,-95.29 198.96,-100.16 200.71,-102.42 C201.04,-99.59 199.90,-96.44 198.62,-93.17 C192.91,-78.76 184.48,-57.29 182.92,-51.00 C185.34,-56.80 192.24,-72.83 194.73,-77.87 C203.62,-95.83 208.78,-101.34 209.51,-102.11 C209.79,-100.21 209.72,-99.01 209.09,-97.17 C205.59,-87.03 189.55,-53.43 189.56,-53.11 C189.56,-53.11 215.00,-100.44 215.00,-100.44 C215.00,-100.44 198.33,-55.29 198.33,-55.29 C198.33,-55.29 221.27,-98.43 221.27,-98.43 C220.83,-94.89 218.60,-89.24 217.32,-85.93 C208.17,-62.88 207.21,-59.29 206.98,-58.29 C208.55,-60.50 216.20,-78.12 216.89,-79.55 C218.55,-82.86 221.95,-89.56 223.66,-92.21 C224.49,-93.49 225.50,-94.25 227.00,-95.01 C226.62,-90.75 222.80,-81.22 217.48,-69.02 C215.86,-65.35 213.73,-60.51 213.22,-59.34 C213.22,-59.34 214.65,-62.42 214.65,-62.42" fill="none" stroke="rgb(0, 0, 255)" stroke-width="3.40" stroke-opacity="1.00" stroke-linejoin="round"/>
<path d="M219.30,-68.40 C219.30,-68.40 218.31,-68.40 218.31,-68.40 C218.31,-68.40 216.22,-60.98 216.22,-60.98 C218.39,-62.13 220.33,-66.32 220.91,-67.57 C220.33,-65.92 219.90,-64.77 219.61,-64.14 C219.32,-63.50 218.78,-62.49 217.97,-61.09" fill="none" stroke="rgb(0, 0, 255)" stroke-width="3.40" stroke-opacity="1.00" stroke-linejoin="round"/>
<path d="M191.42,-55.78 C191.42,-55.78 189.76,-55.65 189.76,-55.65 C187.39,-53.73 183.65,-44.74 183.52,-44.19 C183.52,-44.19 186.94,-50.96 186.94,-50.96 C186.94,-50.96 184.32,-45.68 184.32,-45.68 C184.32,-45.68 184.11,-45.82 184.11,-45.82" fill="none" stroke="rgb(0, 0, 255)" stroke-width="3.40" stroke-opacity="1.00" stroke-linejoin="round"/>
</g>
</svg>
