<?xml version="1.0" encoding="UTF-8" standalone="no"?>
<!DOCTYPE svg PUBLIC "-//W3C//DTD SVG 1.1//EN" "http://www.w3.org/Graphics/SVG/1.1/DTD/svg11.dtd">
<svg width="128.40" height="181.68" viewBox="0.00 0.00 535.00 757.00" xmlns="http://www.w3.org/2000/svg" xmlns:xlink="http://www.w3.org/1999/xlink">
<g stroke-linecap="round" transform="translate(44.00, 155.00)" id="164-비">
<path d="M183.45,-9.97 C183.45,-9.97 181.64,-9.97 181.64,-9.97 C181.43,-6.86 181.05,1.40 180.94,2.91 C180.69,5.83 180.20,12.80 181.19,14.06 C182.17,13.94 183.25,13.17 184.08,11.69 C185.46,9.16 186.58,0.96 186.07,-2.49 C185.73,-4.70 184.39,-10.14 184.19,-10.75 C184.08,-11.06 183.85,-11.65 183.50,-12.51" fill="none" stroke="rgb(255, 0, 255)" stroke-width="3.40" stroke-opacity="1.00" stroke-linejoin="round"/>
<path d="M138.30,44.48 C138.30,44.48 135.64,44.35 135.64,44.35 C135.64,44.35 135.81,64.21 135.81,64.21 C138.52,62.95 140.29,61.11 141.07,58.09 C141.66,55.63 142.61,50.29 142.30,48.30 C142.11,47.07 141.24,43.78 140.60,41.53 C140.60,41.53 138.22,41.41 138.22,41.41" fill="none" stroke="rgb(255, 0, 255)" stroke-width="3.40" stroke-opacity="1.00" stroke-linejoin="round"/>
<path d="M97.80,-3.33 C97.80,-3.33 96.80,-3.99 96.80,-3.99 C96.80,-3.99 96.21,-3.86 96.21,-3.86 C95.70,-2.60 93.46,16.82 93.25,19.96 C93.16,21.30 93.34,22.85 93.79,25.61 C93.79,25.61 95.39,26.32 95.39,26.32 C98.11,24.51 100.35,21.11 101.26,19.00 C102.20,16.77 103.46,10.70 103.52,9.03 C103.57,6.68 102.19,-1.52 101.44,-2.63 C100.67,-3.74 98.98,-4.66 97.82,-4.87" fill="none" stroke="rgb(255, 0, 255)" stroke-width="3.40" stroke-opacity="1.00" stroke-linejoin="round"/>
<path d="M44.02,19.91 C43.81,20.20 40.25,23.21 40.15,23.62 C39.48,26.44 39.34,32.58 39.45,35.71 C39.68,41.05 40.26,45.07 41.77,46.09 C42.90,45.54 44.10,44.28 44.85,42.47 C45.99,39.72 46.79,34.64 46.89,32.35 C46.98,29.40 46.33,26.01 44.97,21.75 C44.97,21.75 43.71,22.66 43.71,22.66" fill="none" stroke="rgb(255, 0, 255)" stroke-width="3.40" stroke-opacity="1.00" stroke-linejoin="round"/>
<path d="M68.59,95.60 C68.59,95.60 69.25,95.60 69.25,95.60 C69.26,97.31 68.62,101.30 67.39,107.03 C66.69,110.31 65.86,116.37 66.62,118.12 C66.81,118.54 67.30,118.99 68.09,119.49 C69.63,119.34 71.14,118.67 72.31,117.38 C73.26,116.30 74.74,113.49 75.01,112.16 C75.47,109.55 72.58,101.38 71.86,99.56 C71.02,97.49 69.75,94.67 69.09,93.54 C68.79,93.01 67.39,91.31 66.64,90.32" fill="none" stroke="rgb(255, 0, 255)" stroke-width="3.40" stroke-opacity="1.00" stroke-linejoin="round"/>
<path d="M16.13,150.71 C16.04,158.13 15.79,176.86 15.93,177.22 C16.10,177.61 16.60,178.29 17.43,179.24 C19.18,178.50 20.13,177.81 20.76,176.62 C21.90,174.43 23.48,169.25 23.92,166.15 C24.33,162.97 24.23,156.96 23.68,154.09 C23.37,152.55 22.71,150.94 21.42,148.42 C21.42,148.42 18.67,148.32 18.67,148.32" fill="none" stroke="rgb(255, 0, 255)" stroke-width="3.40" stroke-opacity="1.00" stroke-linejoin="round"/>
<path d="M145.60,113.53 C145.60,113.53 142.95,113.70 142.95,113.70 C142.83,116.81 142.55,124.11 142.40,128.31 C142.28,132.13 142.46,134.74 143.87,137.35 C146.57,136.18 147.98,134.73 148.63,132.20 C149.23,129.85 149.50,126.47 149.26,123.70 C149.03,121.44 146.87,115.63 145.71,113.86 C145.47,113.50 145.01,112.96 144.32,112.24" fill="none" stroke="rgb(255, 0, 255)" stroke-width="3.40" stroke-opacity="1.00" stroke-linejoin="round"/>
<path d="M211.33,94.27 C211.21,94.98 210.42,95.88 210.19,96.28 C208.91,98.65 207.01,115.98 207.02,116.67 C207.06,119.08 207.81,120.56 208.99,121.07 C211.34,120.10 213.79,115.67 214.49,113.07 C215.09,110.70 215.33,106.59 215.09,103.82 C214.86,101.58 212.82,95.04 212.10,94.17 C211.89,93.92 211.48,93.72 210.85,93.56" fill="none" stroke="rgb(255, 0, 255)" stroke-width="3.40" stroke-opacity="1.00" stroke-linejoin="round"/>
<path d="M230.59,26.55 C229.30,27.09 228.26,28.40 227.93,30.24 C227.84,30.83 227.86,34.82 227.88,36.63 C228.03,40.11 229.67,42.55 230.44,43.16 C232.81,42.59 234.01,41.66 234.39,39.72 C235.07,36.16 234.97,29.86 234.05,28.05 C233.87,27.71 233.42,27.04 232.68,26.04" fill="none" stroke="rgb(255, 0, 255)" stroke-width="3.40" stroke-opacity="1.00" stroke-linejoin="round"/>
<path d="M259.14,61.74 C259.14,61.74 258.48,61.74 258.48,61.74 C258.52,64.97 258.65,72.08 258.98,74.73 C259.13,75.91 259.79,77.55 261.11,80.44 C261.11,80.44 263.17,81.20 263.17,81.20 C264.85,79.72 265.70,78.73 266.17,77.56 C267.01,75.43 267.74,71.70 267.70,69.35 C267.64,68.17 266.88,65.38 266.13,63.93 C265.40,62.55 262.75,59.91 262.08,59.24 C261.63,58.79 259.80,56.57 259.14,55.76" fill="none" stroke="rgb(255, 0, 255)" stroke-width="3.40" stroke-opacity="1.00" stroke-linejoin="round"/>
<path d="M291.67,-35.20 C291.67,-35.20 291.67,-37.05 291.67,-37.05 C290.79,-34.34 289.95,-27.71 289.72,-25.38 C289.48,-23.00 289.03,-16.65 289.71,-13.33 C292.14,-13.06 293.48,-13.54 294.36,-15.40 C295.65,-18.19 296.57,-24.14 296.40,-26.50 C296.30,-27.67 295.63,-32.77 295.26,-33.60 C295.04,-34.10 294.46,-34.92 293.52,-36.06" fill="none" stroke="rgb(255, 0, 255)" stroke-width="3.40" stroke-opacity="1.00" stroke-linejoin="round"/>
<path d="M341.47,36.51 C339.97,37.37 339.12,38.17 338.98,39.33 C338.68,41.81 338.90,58.16 339.86,62.00 C340.30,63.72 341.30,64.93 342.58,65.85 C343.92,65.75 345.23,65.11 346.25,63.78 C347.12,62.62 348.39,59.78 348.76,58.20 C349.42,55.06 348.14,49.97 346.08,44.94 C345.47,43.46 342.05,35.96 340.81,33.19" fill="none" stroke="rgb(255, 0, 255)" stroke-width="3.40" stroke-opacity="1.00" stroke-linejoin="round"/>
<path d="M385.29,75.68 C385.29,75.68 383.36,75.02 383.36,75.02 C383.23,76.31 383.71,82.97 384.94,87.06 C385.69,89.50 386.51,90.70 387.67,91.38 C388.88,90.95 389.95,89.95 390.58,88.33 C391.70,85.34 391.15,79.67 389.63,77.04 C389.33,76.57 387.47,74.08 386.93,73.64 C386.56,73.34 385.66,72.74 384.25,71.84" fill="none" stroke="rgb(255, 0, 255)" stroke-width="3.40" stroke-opacity="1.00" stroke-linejoin="round"/>
<path d="M383.30,168.63 C383.48,168.66 382.74,169.96 381.95,170.89 C381.34,171.64 381.26,172.29 381.31,175.17 C381.34,176.49 381.35,180.52 381.38,181.03 C381.50,182.72 382.05,184.03 382.90,185.06 C385.56,184.88 386.96,184.35 387.79,182.92 C388.60,181.49 389.29,179.33 389.30,178.05 C389.28,176.91 388.65,174.24 388.13,173.04 C386.90,170.30 383.62,166.90 382.07,165.40" fill="none" stroke="rgb(255, 0, 255)" stroke-width="3.40" stroke-opacity="1.00" stroke-linejoin="round"/>
<path d="M325.53,123.49 C325.53,123.49 324.54,123.49 324.54,123.49 C323.52,124.47 323.57,140.21 323.78,141.32 C324.18,143.31 324.87,144.54 325.86,145.20 C328.07,143.52 329.18,141.97 329.47,139.69 C329.96,135.48 329.29,128.44 327.68,126.31 C327.05,125.49 325.47,124.36 324.38,123.73" fill="none" stroke="rgb(255, 0, 255)" stroke-width="3.40" stroke-opacity="1.00" stroke-linejoin="round"/>
<path d="M324.21,182.58 C323.95,182.73 323.72,182.84 323.54,182.91 C323.36,182.97 322.97,183.08 322.36,183.24 C322.36,183.24 322.88,183.44 322.88,183.44 C322.79,185.93 321.56,193.82 321.28,198.44 C321.05,202.90 322.18,204.50 323.14,205.11 C324.28,205.11 325.41,204.80 326.28,204.08 C327.98,202.60 329.45,198.06 329.41,194.07 C329.37,192.41 327.95,185.77 326.99,182.81 C326.23,180.47 324.04,175.15 323.54,173.95" fill="none" stroke="rgb(255, 0, 255)" stroke-width="3.40" stroke-opacity="1.00" stroke-linejoin="round"/>
<path d="M261.80,174.61 C260.62,175.32 259.79,175.82 259.64,176.10 C257.79,179.83 256.48,183.38 255.97,186.52 C255.50,189.65 255.46,194.36 255.92,196.56 C256.18,197.75 256.91,198.73 258.40,200.11 C259.97,200.14 261.36,199.26 262.43,197.37 C263.14,196.10 264.50,190.68 264.76,187.92 C265.10,184.11 264.12,173.08 263.44,172.20 C262.83,171.43 260.54,169.77 258.89,168.70" fill="none" stroke="rgb(255, 0, 255)" stroke-width="3.40" stroke-opacity="1.00" stroke-linejoin="round"/>
</g>
</svg>
