<?xml version="1.0" encoding="UTF-8" standalone="no"?>
<!DOCTYPE svg PUBLIC "-//W3C//DTD SVG 1.1//EN" "http://www.w3.org/Graphics/SVG/1.1/DTD/svg11.dtd">
<svg width="128.40" height="181.68" viewBox="0.00 0.00 535.00 757.00" xmlns="http://www.w3.org/2000/svg" xmlns:xlink="http://www.w3.org/1999/xlink">
<g stroke-linecap="round" transform="translate(44.00, 155.00)" id="165-비">
<path d="M21.08,-139.32 C20.10,-138.76 18.22,-137.09 17.45,-135.91 C17.14,-135.43 12.00,-120.72 11.45,-119.24 C11.22,-118.63 11.00,-118.02 10.78,-117.41" fill="none" stroke="rgb(229, 0, 16)" stroke-width="2.44" stroke-opacity="1.00" stroke-linejoin="round"/>
<path d="M11.08,-98.34 C10.16,-97.95 8.99,-96.03 7.91,-91.36 C7.63,-90.16 7.35,-88.97 7.07,-87.77 C6.85,-86.86 6.62,-85.95 6.40,-85.04" fill="none" stroke="rgb(229, 0, 16)" stroke-width="2.44" stroke-opacity="1.00" stroke-linejoin="round"/>
<path d="M27.28,-94.05 C26.73,-90.62 25.44,-82.81 24.49,-79.08 C24.18,-77.86 23.05,-74.17 22.57,-72.65 C22.02,-70.95 21.48,-69.68 20.68,-68.06" fill="none" stroke="rgb(229, 0, 16)" stroke-width="2.44" stroke-opacity="1.00" stroke-linejoin="round"/>
<path d="M58.73,-93.10 C57.49,-91.47 55.79,-87.50 55.14,-84.70 C54.28,-81.03 53.43,-78.62 52.61,-76.70" fill="none" stroke="rgb(229, 0, 16)" stroke-width="2.44" stroke-opacity="1.00" stroke-linejoin="round"/>
<path d="M51.11,-138.85 C50.79,-138.88 50.00,-138.67 49.68,-138.24 C48.99,-137.28 48.02,-130.57 47.77,-128.84" fill="none" stroke="rgb(229, 0, 16)" stroke-width="2.44" stroke-opacity="1.00" stroke-linejoin="round"/>
<path d="M80.17,-127.41 C79.64,-126.58 78.73,-124.90 78.15,-123.60 C77.69,-122.55 75.83,-117.21 75.43,-116.05 C75.03,-114.96 74.64,-113.86 74.24,-112.76" fill="none" stroke="rgb(229, 0, 16)" stroke-width="2.44" stroke-opacity="1.00" stroke-linejoin="round"/>
<path d="M109.72,-151.24 C109.18,-149.99 108.77,-148.68 108.36,-146.68 C108.02,-144.99 107.38,-141.83 107.09,-140.35" fill="none" stroke="rgb(229, 0, 16)" stroke-width="2.44" stroke-opacity="1.00" stroke-linejoin="round"/>
<path d="M127.83,-125.50 C127.83,-125.50 127.29,-127.53 127.29,-127.53 C127.29,-127.53 125.07,-116.82 125.07,-116.82" fill="none" stroke="rgb(229, 0, 16)" stroke-width="2.44" stroke-opacity="1.00" stroke-linejoin="round"/>
<path d="M97.33,-96.91 C97.33,-96.91 97.33,-97.15 97.33,-97.15 C95.85,-95.16 94.47,-89.83 93.59,-86.44 C92.69,-82.94 91.49,-78.31 91.21,-77.20" fill="none" stroke="rgb(229, 0, 16)" stroke-width="2.44" stroke-opacity="1.00" stroke-linejoin="round"/>
<path d="M114.96,-72.13 C113.81,-70.98 113.10,-70.23 112.82,-69.87 C112.14,-68.97 111.75,-67.17 111.56,-65.07 C111.37,-62.65 111.36,-61.19 111.48,-58.30" fill="none" stroke="rgb(229, 0, 16)" stroke-width="2.44" stroke-opacity="1.00" stroke-linejoin="round"/>
<path d="M94.95,-42.59 C93.50,-42.19 92.07,-39.59 91.10,-35.10 C90.69,-33.16 88.61,-24.47 87.80,-21.15" fill="none" stroke="rgb(229, 0, 16)" stroke-width="2.44" stroke-opacity="1.00" stroke-linejoin="round"/>
<path d="M75.89,-62.60 C75.57,-62.05 75.25,-61.49 74.93,-60.93 C72.71,-56.94 71.66,-51.27 71.38,-50.05 C71.26,-49.52 71.01,-48.72 70.62,-47.65" fill="none" stroke="rgb(229, 0, 16)" stroke-width="2.44" stroke-opacity="1.00" stroke-linejoin="round"/>
<path d="M43.48,-56.41 C42.02,-54.45 40.38,-48.88 39.43,-45.71 C36.17,-35.09 35.22,-32.24 34.41,-30.14" fill="none" stroke="rgb(229, 0, 16)" stroke-width="2.44" stroke-opacity="1.00" stroke-linejoin="round"/>
<path d="M11.55,-44.97 C10.77,-44.55 10.30,-44.27 10.12,-44.14 C9.64,-43.72 9.18,-41.88 8.87,-39.69 C8.05,-33.22 7.85,-31.94 7.52,-30.27" fill="none" stroke="rgb(229, 0, 16)" stroke-width="2.44" stroke-opacity="1.00" stroke-linejoin="round"/>
<path d="M-10.85,-44.97 C-10.85,-44.97 -12.04,-44.61 -12.04,-44.61 C-13.11,-42.20 -14.75,-36.58 -15.65,-32.76 C-16.45,-29.19 -17.49,-24.52 -17.72,-23.42" fill="none" stroke="rgb(229, 0, 16)" stroke-width="2.44" stroke-opacity="1.00" stroke-linejoin="round"/>
<path d="M14.41,-3.51 C14.41,-3.51 14.65,-3.51 14.65,-3.51 C14.86,-3.21 14.94,-2.02 14.78,-0.57 C14.60,1.05 13.41,5.22 11.91,9.65 C11.50,10.86 10.83,12.86 10.57,13.64" fill="none" stroke="rgb(229, 0, 16)" stroke-width="2.44" stroke-opacity="1.00" stroke-linejoin="round"/>
<path d="M-18.47,16.98 C-19.59,18.16 -20.30,19.57 -20.69,21.63 C-20.77,22.04 -23.69,37.02 -24.47,39.58 C-24.81,40.69 -25.74,43.38 -26.08,44.37" fill="none" stroke="rgb(229, 0, 16)" stroke-width="2.44" stroke-opacity="1.00" stroke-linejoin="round"/>
<path d="M-11.80,67.02 C-11.80,67.02 -12.51,67.02 -12.51,67.02 C-12.85,66.29 -12.14,60.95 -11.48,58.32 C-10.74,55.52 -9.37,50.27 -8.17,47.28" fill="none" stroke="rgb(229, 0, 16)" stroke-width="2.44" stroke-opacity="1.00" stroke-linejoin="round"/>
<path d="M11.08,73.21 C11.08,73.21 9.65,75.36 9.65,75.36 C10.72,73.52 12.29,69.23 13.66,64.50 C14.10,62.90 14.89,59.97 15.25,58.65 C15.78,56.59 16.36,54.22 16.62,53.08" fill="none" stroke="rgb(229, 0, 16)" stroke-width="2.44" stroke-opacity="1.00" stroke-linejoin="round"/>
<path d="M13.93,41.29 C13.93,41.29 13.46,42.12 13.46,42.12 C13.59,40.26 15.36,35.19 16.78,32.41 C17.36,31.32 17.93,30.23 18.51,29.13" fill="none" stroke="rgb(229, 0, 16)" stroke-width="2.44" stroke-opacity="1.00" stroke-linejoin="round"/>
<path d="M50.15,32.71 C50.15,32.71 48.96,33.66 48.96,33.66 C48.99,32.02 49.16,30.92 49.80,28.91 C53.11,18.07 54.23,12.69 55.10,7.71" fill="none" stroke="rgb(229, 0, 16)" stroke-width="2.44" stroke-opacity="1.00" stroke-linejoin="round"/>
<path d="M57.30,-9.70 C57.18,-9.82 57.10,-9.90 57.06,-9.94 C56.76,-10.34 56.61,-10.71 56.59,-11.05 C56.51,-12.90 59.39,-17.08 60.12,-18.13" fill="none" stroke="rgb(229, 0, 16)" stroke-width="2.44" stroke-opacity="1.00" stroke-linejoin="round"/>
<path d="M85.89,25.56 C85.30,24.37 84.93,23.15 85.11,21.96 C85.32,20.65 86.22,17.41 87.02,14.95 C87.88,12.33 88.43,10.86 89.36,8.64" fill="none" stroke="rgb(229, 0, 16)" stroke-width="2.44" stroke-opacity="1.00" stroke-linejoin="round"/>
<path d="M42.53,70.83 C42.74,69.62 42.91,68.80 43.05,68.38 C43.51,67.03 45.96,62.99 47.12,61.19" fill="none" stroke="rgb(229, 0, 16)" stroke-width="2.44" stroke-opacity="1.00" stroke-linejoin="round"/>
<path d="M69.69,80.36 C69.69,80.36 69.21,80.36 69.21,80.36 C69.10,79.67 73.60,66.50 73.75,65.99 C73.91,65.47 74.24,64.32 74.74,62.54" fill="none" stroke="rgb(229, 0, 16)" stroke-width="2.44" stroke-opacity="1.00" stroke-linejoin="round"/>
<path d="M40.14,118.49 C39.55,117.81 39.12,117.13 39.19,116.34 C39.53,112.80 43.54,102.21 44.73,99.10 C45.02,98.34 45.31,97.58 45.60,96.82" fill="none" stroke="rgb(229, 0, 16)" stroke-width="2.44" stroke-opacity="1.00" stroke-linejoin="round"/>
<path d="M15.36,110.86 C15.49,109.81 15.58,109.15 15.65,108.86 C15.69,108.69 21.36,92.60 21.46,92.22 C21.57,91.85 21.75,91.14 22.02,90.09" fill="none" stroke="rgb(229, 0, 16)" stroke-width="2.44" stroke-opacity="1.00" stroke-linejoin="round"/>
<path d="M-22.28,126.59 C-21.99,122.81 -20.74,118.71 -19.12,114.95 C-16.67,109.37 -13.89,103.61 -13.66,103.10 C-12.52,100.47 -11.69,97.63 -11.02,95.05" fill="none" stroke="rgb(229, 0, 16)" stroke-width="2.44" stroke-opacity="1.00" stroke-linejoin="round"/>
<path d="M2.02,160.42 C2.02,160.42 1.78,160.42 1.78,160.42 C1.76,159.67 2.06,158.76 3.06,156.80 C3.83,155.27 5.35,152.28 6.09,150.83 C6.98,149.07 7.79,147.66 9.15,145.45" fill="none" stroke="rgb(229, 0, 16)" stroke-width="2.44" stroke-opacity="1.00" stroke-linejoin="round"/>
<path d="M41.10,154.70 C41.10,154.70 40.62,154.70 40.62,154.70 C40.89,154.19 41.95,152.38 42.75,151.01 C43.70,149.43 45.28,146.81 46.04,145.64 C46.31,145.23 46.58,144.82 46.85,144.41" fill="none" stroke="rgb(229, 0, 16)" stroke-width="2.44" stroke-opacity="1.00" stroke-linejoin="round"/>
<path d="M66.83,153.75 C66.83,153.75 66.12,153.38 66.12,153.38 C66.15,151.07 67.44,146.74 68.17,144.83 C69.01,142.66 71.68,136.95 72.37,135.48" fill="none" stroke="rgb(229, 0, 16)" stroke-width="2.44" stroke-opacity="1.00" stroke-linejoin="round"/>
<path d="M93.52,119.44 C93.25,119.03 93.09,118.75 93.04,118.59 C92.76,117.60 94.00,112.92 95.96,107.27 C96.59,105.43 97.65,101.88 98.03,100.35 C98.22,99.59 98.87,96.63 99.07,95.74" fill="none" stroke="rgb(229, 0, 16)" stroke-width="2.44" stroke-opacity="1.00" stroke-linejoin="round"/>
<path d="M76.84,96.09 C78.50,92.98 82.35,85.81 83.15,84.42 C83.49,83.85 84.70,82.08 85.45,80.99" fill="none" stroke="rgb(229, 0, 16)" stroke-width="2.44" stroke-opacity="1.00" stroke-linejoin="round"/>
<path d="M91.14,56.53 C91.14,56.53 89.94,56.34 89.94,56.34 C89.82,54.37 90.13,52.80 91.29,50.30 C92.18,48.38 93.90,44.69 94.72,42.93 C95.10,42.14 95.47,41.35 95.84,40.56" fill="none" stroke="rgb(229, 0, 16)" stroke-width="2.44" stroke-opacity="1.00" stroke-linejoin="round"/>
<path d="M115.92,44.14 C115.92,44.14 115.68,44.14 115.68,44.14 C115.68,44.14 115.44,43.91 115.44,43.91 C115.50,42.47 116.42,39.91 119.02,33.55 C119.53,32.27 120.32,30.27 120.60,29.55" fill="none" stroke="rgb(229, 0, 16)" stroke-width="2.44" stroke-opacity="1.00" stroke-linejoin="round"/>
<path d="M105.91,83.22 C105.91,83.22 104.72,83.70 104.72,83.70 C104.78,82.85 104.84,82.29 104.90,82.03 C105.03,81.44 109.22,72.35 110.93,68.74 C111.82,66.86 113.30,63.74 113.88,62.51" fill="none" stroke="rgb(229, 0, 16)" stroke-width="2.44" stroke-opacity="1.00" stroke-linejoin="round"/>
<path d="M132.59,47.96 C132.59,47.96 130.93,48.43 130.93,48.43 C130.81,48.31 131.21,45.86 134.44,40.03 C135.08,38.94 136.20,37.02 136.68,36.20" fill="none" stroke="rgb(229, 0, 16)" stroke-width="2.44" stroke-opacity="1.00" stroke-linejoin="round"/>
<path d="M143.55,53.20 C146.00,49.20 147.69,46.13 148.73,43.25 C149.43,41.30 150.70,37.68 151.29,36.03" fill="none" stroke="rgb(229, 0, 16)" stroke-width="2.44" stroke-opacity="1.00" stroke-linejoin="round"/>
<path d="M152.61,20.32 C152.61,20.32 152.13,20.32 152.13,20.32 C151.94,19.99 151.75,19.06 151.93,18.16 C152.05,17.58 154.76,8.36 155.13,6.41 C155.35,5.25 155.57,4.08 155.78,2.92" fill="none" stroke="rgb(229, 0, 16)" stroke-width="2.44" stroke-opacity="1.00" stroke-linejoin="round"/>
<path d="M130.21,17.93 C130.21,17.93 129.97,17.93 129.97,17.93 C129.96,16.87 134.89,5.77 136.29,3.13 C136.89,2.01 138.15,-0.38 138.82,-1.65" fill="none" stroke="rgb(229, 0, 16)" stroke-width="2.44" stroke-opacity="1.00" stroke-linejoin="round"/>
<path d="M103.05,5.07 C103.05,5.07 102.10,4.83 102.10,4.83 C101.97,3.20 103.74,-0.94 106.81,-6.44 C108.75,-9.83 111.19,-12.90 112.05,-13.84" fill="none" stroke="rgb(229, 0, 16)" stroke-width="2.44" stroke-opacity="1.00" stroke-linejoin="round"/>
<path d="M134.98,-19.71 C134.87,-19.79 134.79,-19.87 134.74,-19.95 C134.22,-20.96 135.16,-23.70 137.40,-28.65 C138.58,-31.33 140.65,-36.00 141.53,-37.98" fill="none" stroke="rgb(229, 0, 16)" stroke-width="2.44" stroke-opacity="1.00" stroke-linejoin="round"/>
<path d="M128.31,-52.59 C128.31,-52.59 127.59,-52.59 127.59,-52.59 C127.47,-52.86 127.78,-55.21 131.97,-65.17 C133.25,-68.24 134.58,-71.91 134.91,-72.85" fill="none" stroke="rgb(229, 0, 16)" stroke-width="2.44" stroke-opacity="1.00" stroke-linejoin="round"/>
<path d="M147.37,-91.67 C147.37,-91.67 146.65,-91.91 146.65,-91.91 C146.24,-92.63 148.14,-97.34 150.28,-101.88 C150.94,-103.25 152.45,-106.22 152.99,-107.27" fill="none" stroke="rgb(229, 0, 16)" stroke-width="2.44" stroke-opacity="1.00" stroke-linejoin="round"/>
<path d="M161.66,-123.12 C161.66,-123.12 160.47,-122.65 160.47,-122.65 C160.47,-122.65 160.23,-122.73 160.23,-122.73 C161.09,-125.22 161.78,-126.88 162.88,-128.94 C163.64,-130.38 165.21,-133.32 166.02,-134.82" fill="none" stroke="rgb(229, 0, 16)" stroke-width="2.44" stroke-opacity="1.00" stroke-linejoin="round"/>
<path d="M197.88,-135.51 C197.81,-136.91 197.77,-139.14 197.88,-140.28 C198.00,-141.41 198.70,-144.78 199.05,-146.01 C199.18,-146.48 199.50,-147.48 199.99,-149.02" fill="none" stroke="rgb(229, 0, 16)" stroke-width="2.44" stroke-opacity="1.00" stroke-linejoin="round"/>
<path d="M193.59,-75.94 C193.56,-77.21 193.63,-78.63 193.91,-81.71 C194.19,-85.07 194.63,-90.36 195.00,-92.81 C195.10,-93.41 195.20,-94.01 195.29,-94.62" fill="none" stroke="rgb(229, 0, 16)" stroke-width="2.44" stroke-opacity="1.00" stroke-linejoin="round"/>
<path d="M160.71,-44.97 C160.71,-44.97 159.04,-43.30 159.04,-43.30 C159.04,-43.30 158.96,-43.54 158.96,-43.54 C159.57,-45.36 162.17,-51.60 163.69,-55.24 C165.34,-59.11 167.52,-63.57 168.24,-64.91" fill="none" stroke="rgb(229, 0, 16)" stroke-width="2.44" stroke-opacity="1.00" stroke-linejoin="round"/>
<path d="M198.83,-35.44 C198.83,-35.44 197.96,-34.58 197.96,-34.58 C197.98,-36.04 199.05,-41.76 199.75,-44.84 C200.11,-46.36 200.69,-48.85 200.92,-49.84" fill="none" stroke="rgb(229, 0, 16)" stroke-width="2.44" stroke-opacity="1.00" stroke-linejoin="round"/>
<path d="M161.66,-13.04 C161.46,-13.03 161.30,-13.03 161.19,-13.04 C161.07,-13.05 160.83,-13.10 160.47,-13.18 C160.23,-13.86 160.26,-15.58 160.68,-16.86 C161.09,-18.08 163.43,-21.19 164.15,-22.16" fill="none" stroke="rgb(229, 0, 16)" stroke-width="2.44" stroke-opacity="1.00" stroke-linejoin="round"/>
<path d="M184.06,-0.17 C184.08,-2.60 185.50,-6.80 186.82,-9.61 C187.40,-10.80 187.98,-11.99 188.56,-13.18" fill="none" stroke="rgb(229, 0, 16)" stroke-width="2.44" stroke-opacity="1.00" stroke-linejoin="round"/>
<path d="M235.05,-3.03 C235.05,-3.03 234.34,-3.03 234.34,-3.03 C234.01,-3.95 234.68,-9.13 235.33,-11.89 C236.68,-17.42 238.51,-25.06 238.99,-27.15" fill="none" stroke="rgb(229, 0, 16)" stroke-width="2.44" stroke-opacity="1.00" stroke-linejoin="round"/>
<path d="M236.00,-49.73 C236.04,-51.22 236.29,-52.74 237.04,-55.58 C237.53,-57.48 237.85,-58.72 237.99,-59.31 C238.13,-59.88 238.35,-60.84 238.64,-62.17" fill="none" stroke="rgb(229, 0, 16)" stroke-width="2.44" stroke-opacity="1.00" stroke-linejoin="round"/>
<path d="M231.72,-74.99 C231.71,-75.43 231.71,-75.73 231.72,-75.86 C231.76,-77.12 232.21,-79.55 232.76,-81.08 C233.27,-82.47 236.10,-87.27 236.63,-88.16" fill="none" stroke="rgb(229, 0, 16)" stroke-width="2.44" stroke-opacity="1.00" stroke-linejoin="round"/>
<path d="M272.22,-108.35 C272.22,-108.35 271.27,-107.87 271.27,-107.87 C271.95,-110.11 272.41,-111.42 273.13,-113.13 C273.76,-114.62 274.91,-117.36 275.44,-118.61 C275.97,-119.89 276.77,-121.83 277.03,-122.49" fill="none" stroke="rgb(229, 0, 16)" stroke-width="2.44" stroke-opacity="1.00" stroke-linejoin="round"/>
<path d="M281.75,-71.18 C281.75,-71.18 280.44,-68.80 280.44,-68.80 C281.06,-70.07 282.10,-72.23 282.51,-73.29 C283.72,-76.39 288.23,-89.02 288.67,-90.24" fill="none" stroke="rgb(229, 0, 16)" stroke-width="2.44" stroke-opacity="1.00" stroke-linejoin="round"/>
<path d="M300.81,-108.83 C300.81,-108.83 299.62,-108.35 299.62,-108.35 C299.42,-108.90 299.60,-110.41 300.22,-112.08 C300.93,-114.00 303.55,-119.31 304.73,-121.60" fill="none" stroke="rgb(229, 0, 16)" stroke-width="2.44" stroke-opacity="1.00" stroke-linejoin="round"/>
<path d="M321.78,-75.94 C321.78,-75.94 321.07,-75.47 321.07,-75.47 C320.81,-76.37 322.23,-82.66 323.18,-85.45 C323.70,-86.90 324.80,-89.94 325.37,-91.52 C326.12,-93.62 326.70,-95.05 327.59,-97.09" fill="none" stroke="rgb(229, 0, 16)" stroke-width="2.44" stroke-opacity="1.00" stroke-linejoin="round"/>
<path d="M301.77,-36.39 C301.83,-37.40 301.91,-38.13 302.01,-38.57 C302.19,-39.45 305.62,-49.17 306.94,-52.81 C308.80,-58.10 310.35,-63.63 310.62,-64.64" fill="none" stroke="rgb(229, 0, 16)" stroke-width="2.44" stroke-opacity="1.00" stroke-linejoin="round"/>
<path d="M275.08,-30.20 C275.08,-30.20 273.89,-30.55 273.89,-30.55 C273.75,-32.05 273.70,-32.94 273.87,-33.59 C274.15,-34.67 275.07,-37.23 275.88,-39.21 C276.67,-41.09 277.97,-44.22 278.50,-45.46" fill="none" stroke="rgb(229, 0, 16)" stroke-width="2.44" stroke-opacity="1.00" stroke-linejoin="round"/>
<path d="M269.36,1.26 C269.36,1.26 268.41,2.69 268.41,2.69 C269.02,1.25 270.64,-2.61 271.15,-3.88 C271.66,-5.16 272.61,-7.71 272.95,-8.60" fill="none" stroke="rgb(229, 0, 16)" stroke-width="2.44" stroke-opacity="1.00" stroke-linejoin="round"/>
<path d="M301.29,12.69 C301.29,12.69 300.10,14.84 300.10,14.84 C299.98,14.88 300.88,11.45 301.79,8.76 C304.13,1.59 306.83,-6.70 307.19,-7.83" fill="none" stroke="rgb(229, 0, 16)" stroke-width="2.44" stroke-opacity="1.00" stroke-linejoin="round"/>
<path d="M340.84,-34.01 C340.81,-35.11 340.81,-35.91 340.84,-36.39 C341.10,-39.73 345.07,-53.15 346.97,-58.38 C348.06,-61.29 349.61,-65.35 350.06,-66.49" fill="none" stroke="rgb(229, 0, 16)" stroke-width="2.44" stroke-opacity="1.00" stroke-linejoin="round"/>
<path d="M344.18,-126.46 C344.18,-126.46 342.99,-127.91 342.99,-127.91 C343.08,-129.63 345.45,-134.39 346.99,-137.47 C348.64,-140.72 350.82,-145.00 351.35,-146.03" fill="none" stroke="rgb(229, 0, 16)" stroke-width="2.44" stroke-opacity="1.00" stroke-linejoin="round"/>
<path d="M398.03,-121.22 C398.03,-121.22 395.65,-118.89 395.65,-118.89 C396.08,-121.40 396.54,-123.22 397.39,-125.56 C398.22,-127.85 399.24,-130.49 399.90,-132.10 C400.17,-132.72 400.43,-133.35 400.69,-133.98" fill="none" stroke="rgb(229, 0, 16)" stroke-width="2.44" stroke-opacity="1.00" stroke-linejoin="round"/>
<path d="M444.25,-111.21 C444.25,-111.21 443.06,-109.30 443.06,-109.30 C443.09,-111.56 444.79,-116.19 446.61,-120.34 C448.33,-124.22 450.60,-129.35 451.15,-130.58" fill="none" stroke="rgb(229, 0, 16)" stroke-width="2.44" stroke-opacity="1.00" stroke-linejoin="round"/>
<path d="M398.98,-73.09 C399.66,-75.60 401.19,-81.17 402.15,-84.22 C403.02,-86.90 404.18,-90.51 404.47,-91.42" fill="none" stroke="rgb(229, 0, 16)" stroke-width="2.44" stroke-opacity="1.00" stroke-linejoin="round"/>
<path d="M449.97,-63.08 C449.97,-63.08 449.73,-61.89 449.73,-61.89 C449.73,-61.89 449.50,-61.71 449.50,-61.71 C451.71,-66.59 453.80,-71.39 455.16,-75.16 C455.49,-76.08 456.79,-79.88 457.18,-81.03" fill="none" stroke="rgb(229, 0, 16)" stroke-width="2.44" stroke-opacity="1.00" stroke-linejoin="round"/>
<path d="M437.58,-21.62 C437.58,-21.62 436.27,-19.24 436.27,-19.24 C436.19,-19.73 438.57,-25.81 439.85,-29.09 C441.13,-32.33 443.49,-38.27 444.56,-40.98" fill="none" stroke="rgb(229, 0, 16)" stroke-width="2.44" stroke-opacity="1.00" stroke-linejoin="round"/>
<path d="M403.75,-31.15 C403.75,-31.15 403.75,-30.20 403.75,-30.20 C404.80,-33.10 407.58,-40.68 408.17,-42.12 C408.76,-43.57 412.40,-51.58 413.82,-54.67" fill="none" stroke="rgb(229, 0, 16)" stroke-width="2.44" stroke-opacity="1.00" stroke-linejoin="round"/>
<path d="M374.68,-31.63 C375.55,-32.98 376.08,-33.88 376.83,-35.37 C378.72,-39.15 381.00,-44.03 382.59,-47.45 C382.80,-47.89 383.18,-48.67 383.73,-49.76" fill="none" stroke="rgb(229, 0, 16)" stroke-width="2.44" stroke-opacity="1.00" stroke-linejoin="round"/>
<path d="M453.31,11.26 C453.31,11.26 452.83,12.22 452.83,12.22 C454.19,7.94 459.69,-3.64 460.30,-4.76 C461.00,-6.07 462.03,-7.79 462.60,-8.65" fill="none" stroke="rgb(229, 0, 16)" stroke-width="2.44" stroke-opacity="1.00" stroke-linejoin="round"/>
<path d="M451.88,46.05 C451.88,46.05 451.40,46.05 451.40,46.05 C452.19,44.80 453.68,42.36 454.75,40.51 C455.61,39.03 459.41,32.18 460.09,30.94" fill="none" stroke="rgb(229, 0, 16)" stroke-width="2.44" stroke-opacity="1.00" stroke-linejoin="round"/>
<path d="M424.72,53.20 C424.72,53.20 422.33,55.82 422.33,55.82 C422.89,53.49 424.10,50.96 425.80,48.36 C427.63,45.60 431.47,39.82 433.47,36.79 C433.91,36.12 434.36,35.44 434.80,34.77" fill="none" stroke="rgb(229, 0, 16)" stroke-width="2.44" stroke-opacity="1.00" stroke-linejoin="round"/>
<path d="M422.33,27.94 C422.85,26.28 424.76,22.17 427.80,16.22 C428.34,15.17 428.88,14.12 429.42,13.07 C430.03,11.90 430.64,10.73 431.25,9.56" fill="none" stroke="rgb(229, 0, 16)" stroke-width="2.44" stroke-opacity="1.00" stroke-linejoin="round"/>
<path d="M397.08,13.17 C397.08,13.17 394.93,14.54 394.93,14.54 C394.72,14.44 394.61,12.88 394.93,11.56 C395.12,10.79 398.82,1.57 399.78,-1.07 C400.77,-3.91 402.11,-7.73 402.45,-8.73" fill="none" stroke="rgb(229, 0, 16)" stroke-width="2.44" stroke-opacity="1.00" stroke-linejoin="round"/>
<path d="M378.97,11.74 C378.97,11.74 378.49,12.22 378.49,12.22 C378.84,8.82 380.40,3.85 381.52,0.88 C382.69,-2.19 385.39,-8.46 386.07,-10.02" fill="none" stroke="rgb(229, 0, 16)" stroke-width="2.44" stroke-opacity="1.00" stroke-linejoin="round"/>
<path d="M331.79,30.32 C331.79,30.32 331.08,30.67 331.08,30.67 C331.20,29.55 331.43,28.78 332.39,26.58 C335.89,18.13 339.93,8.33 340.48,6.99" fill="none" stroke="rgb(229, 0, 16)" stroke-width="2.44" stroke-opacity="1.00" stroke-linejoin="round"/>
<path d="M332.27,56.53 C332.27,56.53 331.08,57.49 331.08,57.49 C330.82,56.42 332.61,52.36 334.55,48.85 C335.20,47.71 336.32,45.76 336.78,44.95" fill="none" stroke="rgb(229, 0, 16)" stroke-width="2.44" stroke-opacity="1.00" stroke-linejoin="round"/>
<path d="M356.09,59.87 C356.09,59.87 355.62,59.71 355.62,59.71 C355.69,58.42 355.78,57.50 355.99,56.85 C357.45,52.51 363.15,42.62 364.15,41.37" fill="none" stroke="rgb(229, 0, 16)" stroke-width="2.44" stroke-opacity="1.00" stroke-linejoin="round"/>
<path d="M390.88,57.96 C390.88,57.96 390.40,57.77 390.40,57.77 C390.53,56.92 391.21,54.96 392.22,52.71 C392.63,51.79 394.67,47.57 395.41,46.05" fill="none" stroke="rgb(229, 0, 16)" stroke-width="2.44" stroke-opacity="1.00" stroke-linejoin="round"/>
<path d="M412.80,91.32 C412.80,91.32 412.80,91.56 412.80,91.56 C412.80,91.56 412.41,92.02 412.41,92.02 C412.83,91.01 413.90,88.48 414.55,86.95 C415.30,85.20 416.62,82.15 417.18,80.83" fill="none" stroke="rgb(229, 0, 16)" stroke-width="2.44" stroke-opacity="1.00" stroke-linejoin="round"/>
<path d="M441.40,87.03 C441.40,87.03 440.68,87.99 440.68,87.99 C440.22,87.21 441.29,83.80 442.72,80.49 C443.25,79.31 444.18,77.27 444.58,76.40" fill="none" stroke="rgb(229, 0, 16)" stroke-width="2.44" stroke-opacity="1.00" stroke-linejoin="round"/>
<path d="M450.45,114.67 C450.33,114.38 450.72,113.04 451.48,111.34 C451.74,110.76 453.21,107.97 453.86,106.72 C454.56,105.35 455.77,102.98 456.28,101.97" fill="none" stroke="rgb(229, 0, 16)" stroke-width="2.44" stroke-opacity="1.00" stroke-linejoin="round"/>
<path d="M460.93,129.45 C461.45,128.02 462.11,125.78 462.38,124.98 C462.56,124.47 463.87,121.42 464.48,120.00 C465.59,117.44 467.01,114.15 467.33,113.42" fill="none" stroke="rgb(229, 0, 16)" stroke-width="2.44" stroke-opacity="1.00" stroke-linejoin="round"/>
<path d="M429.96,128.02 C430.10,125.39 430.65,121.84 431.67,118.25 C432.16,116.54 433.31,112.92 433.87,111.34 C434.34,110.02 435.63,106.67 436.10,105.45" fill="none" stroke="rgb(229, 0, 16)" stroke-width="2.44" stroke-opacity="1.00" stroke-linejoin="round"/>
<path d="M407.08,123.73 C407.16,123.44 407.24,123.16 407.32,122.88 C407.75,121.32 408.01,120.21 408.29,118.71 C408.55,117.24 409.17,114.44 409.60,112.54" fill="none" stroke="rgb(229, 0, 16)" stroke-width="2.44" stroke-opacity="1.00" stroke-linejoin="round"/>
<path d="M388.02,156.61 C388.02,156.61 387.55,158.52 387.55,158.52 C387.93,157.07 388.90,153.55 389.48,151.46 C390.09,149.31 393.23,139.16 393.51,138.26" fill="none" stroke="rgb(229, 0, 16)" stroke-width="2.44" stroke-opacity="1.00" stroke-linejoin="round"/>
<path d="M424.72,162.33 C424.60,162.13 424.52,161.97 424.48,161.85 C424.21,160.99 424.31,158.25 424.80,156.17 C425.03,155.18 426.60,150.65 427.16,149.02" fill="none" stroke="rgb(229, 0, 16)" stroke-width="2.44" stroke-opacity="1.00" stroke-linejoin="round"/>
<path d="M439.97,158.04 C439.90,157.93 440.13,156.70 440.52,155.18 C440.74,154.33 441.64,151.79 442.28,150.13 C442.85,148.67 445.68,141.77 446.20,140.51" fill="none" stroke="rgb(229, 0, 16)" stroke-width="2.44" stroke-opacity="1.00" stroke-linejoin="round"/>
<path d="M452.36,167.09 C452.36,166.92 452.34,166.58 452.36,166.43 C452.59,164.72 453.48,161.53 455.12,156.64 C456.26,152.97 458.17,146.91 458.93,144.51" fill="none" stroke="rgb(229, 0, 16)" stroke-width="2.44" stroke-opacity="1.00" stroke-linejoin="round"/>
<path d="M376.11,95.13 C376.03,95.21 375.95,95.29 375.87,95.37 C375.79,95.45 375.71,95.53 375.63,95.61 C375.82,93.61 375.97,92.29 376.07,91.65 C376.24,90.62 378.44,82.82 379.00,80.86" fill="none" stroke="rgb(229, 0, 16)" stroke-width="2.44" stroke-opacity="1.00" stroke-linejoin="round"/>
<path d="M358.48,121.34 C358.48,120.39 358.48,119.68 358.48,119.20 C358.46,116.07 358.49,113.67 358.63,112.11 C358.91,108.96 360.44,102.44 361.45,98.80" fill="none" stroke="rgb(229, 0, 16)" stroke-width="2.44" stroke-opacity="1.00" stroke-linejoin="round"/>
<path d="M366.10,138.98 C366.13,139.05 366.08,137.17 366.10,136.70 C366.27,133.27 369.39,120.58 369.73,119.18" fill="none" stroke="rgb(229, 0, 16)" stroke-width="2.44" stroke-opacity="1.00" stroke-linejoin="round"/>
<path d="M345.13,163.76 C345.13,163.76 344.66,163.76 344.66,163.76 C344.94,161.46 345.17,160.16 345.70,158.05 C348.45,147.20 350.58,139.93 350.85,138.98" fill="none" stroke="rgb(229, 0, 16)" stroke-width="2.44" stroke-opacity="1.00" stroke-linejoin="round"/>
<path d="M335.13,138.50 C335.13,138.50 334.41,138.50 334.41,138.50 C334.16,138.01 334.21,136.05 334.61,133.70 C334.77,132.80 335.69,129.38 336.11,127.81 C336.59,126.15 337.44,123.28 337.80,122.06" fill="none" stroke="rgb(229, 0, 16)" stroke-width="2.44" stroke-opacity="1.00" stroke-linejoin="round"/>
<path d="M342.75,92.75 C342.73,90.71 342.78,89.39 342.94,88.18 C343.11,86.89 343.46,84.99 343.75,83.66 C344.04,82.39 345.55,76.27 345.88,74.96" fill="none" stroke="rgb(229, 0, 16)" stroke-width="2.44" stroke-opacity="1.00" stroke-linejoin="round"/>
<path d="M326.07,94.66 C326.06,94.12 326.06,93.74 326.07,93.51 C326.14,92.22 326.74,89.79 327.54,87.68 C327.83,86.93 329.08,84.15 329.53,83.15" fill="none" stroke="rgb(229, 0, 16)" stroke-width="2.44" stroke-opacity="1.00" stroke-linejoin="round"/>
<path d="M326.55,130.40 C326.56,130.40 326.51,128.77 326.55,128.16 C326.59,127.47 327.10,123.45 327.29,121.99" fill="none" stroke="rgb(229, 0, 16)" stroke-width="2.44" stroke-opacity="1.00" stroke-linejoin="round"/>
<path d="M302.72,141.36 C302.72,141.36 302.72,142.22 302.72,142.22 C303.14,141.08 304.22,138.23 304.87,136.53 C306.33,132.91 308.55,127.42 309.31,125.54" fill="none" stroke="rgb(229, 0, 16)" stroke-width="2.44" stroke-opacity="1.00" stroke-linejoin="round"/>
<path d="M292.71,113.24 C292.72,112.90 292.72,112.66 292.71,112.53 C292.64,111.44 293.44,108.17 294.93,103.25 C295.94,99.90 297.83,93.62 298.71,90.70" fill="none" stroke="rgb(229, 0, 16)" stroke-width="2.44" stroke-opacity="1.00" stroke-linejoin="round"/>
<path d="M306.53,77.98 C306.53,77.98 305.58,78.84 305.58,78.84 C305.54,77.86 306.47,74.16 307.61,70.23 C307.99,68.92 308.65,66.63 308.92,65.66" fill="none" stroke="rgb(229, 0, 16)" stroke-width="2.44" stroke-opacity="1.00" stroke-linejoin="round"/>
<path d="M286.04,84.17 C286.05,84.17 286.05,84.09 286.04,83.94 C286.03,82.61 286.08,81.62 286.32,80.88 C287.04,78.71 290.43,72.67 292.00,69.90" fill="none" stroke="rgb(229, 0, 16)" stroke-width="2.44" stroke-opacity="1.00" stroke-linejoin="round"/>
<path d="M261.74,114.67 C261.83,114.51 262.67,111.49 263.77,109.08 C265.30,105.79 266.39,103.92 267.85,101.66" fill="none" stroke="rgb(229, 0, 16)" stroke-width="2.44" stroke-opacity="1.00" stroke-linejoin="round"/>
<path d="M282.23,139.93 C282.25,140.24 282.25,140.48 282.23,140.64 C282.21,140.81 282.13,141.13 281.99,141.60 C281.77,141.31 281.73,140.54 281.94,138.91 C282.35,135.89 283.81,129.52 284.21,127.81" fill="none" stroke="rgb(229, 0, 16)" stroke-width="2.44" stroke-opacity="1.00" stroke-linejoin="round"/>
<path d="M256.97,147.55 C256.97,147.55 256.50,148.03 256.50,148.03 C256.42,147.71 256.67,146.19 257.14,144.26 C257.50,142.82 260.43,135.26 261.71,132.05 C262.39,130.38 263.51,127.62 263.95,126.52" fill="none" stroke="rgb(229, 0, 16)" stroke-width="2.44" stroke-opacity="1.00" stroke-linejoin="round"/>
<path d="M235.53,142.31 C235.53,142.31 235.29,142.31 235.29,142.31 C234.84,141.62 235.93,135.81 237.08,132.17 C237.54,130.71 238.82,127.18 239.41,125.72 C239.88,124.55 241.05,121.89 241.48,120.92" fill="none" stroke="rgb(229, 0, 16)" stroke-width="2.44" stroke-opacity="1.00" stroke-linejoin="round"/>
<path d="M226.95,124.68 C227.21,123.86 227.44,123.25 227.62,122.87 C227.90,122.28 229.77,119.15 230.44,118.01" fill="none" stroke="rgb(229, 0, 16)" stroke-width="2.44" stroke-opacity="1.00" stroke-linejoin="round"/>
<path d="M254.11,100.85 C254.11,100.85 252.79,100.85 252.79,100.85 C252.71,100.59 254.72,96.44 255.60,93.97 C256.08,92.62 258.36,85.49 258.78,84.18" fill="none" stroke="rgb(229, 0, 16)" stroke-width="2.44" stroke-opacity="1.00" stroke-linejoin="round"/>
<path d="M258.40,78.46 C258.95,76.89 259.84,74.35 260.18,73.45 C260.91,71.56 262.23,68.66 262.68,67.71 C263.08,66.87 263.49,66.04 263.89,65.20" fill="none" stroke="rgb(229, 0, 16)" stroke-width="2.44" stroke-opacity="1.00" stroke-linejoin="round"/>
<path d="M245.06,76.07 C245.06,76.07 244.50,75.68 244.50,75.68 C245.02,73.74 245.45,72.43 246.10,70.91 C246.80,69.30 248.11,66.44 248.88,64.77 C249.28,63.92 249.68,63.07 250.08,62.23" fill="none" stroke="rgb(229, 0, 16)" stroke-width="2.44" stroke-opacity="1.00" stroke-linejoin="round"/>
<path d="M166.91,85.60 C166.91,85.60 165.00,87.38 165.00,87.38 C165.71,85.38 167.08,82.30 168.91,78.96 C169.84,77.28 171.52,74.37 172.43,72.80" fill="none" stroke="rgb(229, 0, 16)" stroke-width="2.44" stroke-opacity="1.00" stroke-linejoin="round"/>
<path d="M174.05,100.85 C174.05,100.85 173.34,100.85 173.34,100.85 C173.34,100.85 173.10,100.54 173.10,100.54 C173.53,98.99 174.31,96.41 174.87,94.96 C175.43,93.50 177.32,89.27 178.03,87.69" fill="none" stroke="rgb(229, 0, 16)" stroke-width="2.44" stroke-opacity="1.00" stroke-linejoin="round"/>
<path d="M145.46,113.72 C145.46,113.72 143.55,117.45 143.55,117.45 C143.95,114.02 148.93,102.07 151.72,96.81 C152.44,95.45 154.32,92.10 155.12,90.68 C155.68,89.68 156.57,88.10 156.90,87.51" fill="none" stroke="rgb(229, 0, 16)" stroke-width="2.44" stroke-opacity="1.00" stroke-linejoin="round"/>
<path d="M121.16,106.10 C121.16,106.10 120.92,106.10 120.92,106.10 C120.16,105.41 121.07,100.73 122.53,98.08 C123.17,96.95 125.36,93.50 126.21,92.20" fill="none" stroke="rgb(229, 0, 16)" stroke-width="2.44" stroke-opacity="1.00" stroke-linejoin="round"/>
<path d="M108.77,134.21 C108.54,134.31 108.38,134.39 108.29,134.45 C108.20,134.51 108.04,134.62 107.81,134.79 C107.73,134.04 109.07,130.38 111.17,126.41 C112.92,123.14 115.31,118.69 115.94,117.52" fill="none" stroke="rgb(229, 0, 16)" stroke-width="2.44" stroke-opacity="1.00" stroke-linejoin="round"/>
<path d="M123.06,139.45 C123.06,139.45 123.06,139.69 123.06,139.69 C123.06,139.69 122.83,139.93 122.83,139.93 C122.89,139.14 123.23,138.14 124.25,136.10 C125.30,134.01 127.30,130.09 128.24,128.27 C129.30,126.25 131.05,122.91 131.75,121.59" fill="none" stroke="rgb(229, 0, 16)" stroke-width="2.44" stroke-opacity="1.00" stroke-linejoin="round"/>
<path d="M108.29,164.23 C108.17,164.32 108.36,163.81 109.40,161.42 C110.08,159.84 110.51,158.86 110.69,158.48 C111.96,155.73 113.84,152.68 114.34,151.88" fill="none" stroke="rgb(229, 0, 16)" stroke-width="2.44" stroke-opacity="1.00" stroke-linejoin="round"/>
<path d="M144.98,167.09 C144.98,167.09 143.08,168.17 143.08,168.17 C143.87,166.36 147.27,160.68 149.17,157.15 C150.94,153.84 153.26,149.49 153.82,148.45" fill="none" stroke="rgb(229, 0, 16)" stroke-width="2.44" stroke-opacity="1.00" stroke-linejoin="round"/>
<path d="M159.28,130.88 C159.28,130.88 158.09,132.07 158.09,132.07 C158.01,131.95 160.41,126.06 163.75,121.71 C164.73,120.47 166.36,118.42 167.00,117.61" fill="none" stroke="rgb(229, 0, 16)" stroke-width="2.44" stroke-opacity="1.00" stroke-linejoin="round"/>
<path d="M175.96,128.49 C175.96,128.49 174.29,129.45 174.29,129.45 C174.29,129.45 174.05,129.37 174.05,129.37 C174.62,128.36 175.60,126.49 176.27,125.16 C178.57,120.53 181.33,113.83 181.70,112.91" fill="none" stroke="rgb(229, 0, 16)" stroke-width="2.44" stroke-opacity="1.00" stroke-linejoin="round"/>
<path d="M170.24,156.13 C170.07,156.12 173.32,151.62 174.85,149.16 C175.51,148.10 176.88,145.78 177.58,144.57" fill="none" stroke="rgb(229, 0, 16)" stroke-width="2.44" stroke-opacity="1.00" stroke-linejoin="round"/>
<path d="M184.54,162.80 C184.29,162.09 186.30,156.63 188.05,153.21 C188.69,151.98 190.53,148.60 191.23,147.33" fill="none" stroke="rgb(229, 0, 16)" stroke-width="2.44" stroke-opacity="1.00" stroke-linejoin="round"/>
</g>
</svg>
