<?xml version="1.0" encoding="UTF-8" standalone="no"?>
<!DOCTYPE svg PUBLIC "-//W3C//DTD SVG 1.1//EN" "http://www.w3.org/Graphics/SVG/1.1/DTD/svg11.dtd">
<svg width="128.40" height="181.68" viewBox="0.00 0.00 535.00 757.00" xmlns="http://www.w3.org/2000/svg" xmlns:xlink="http://www.w3.org/1999/xlink">
<g stroke-linecap="round" transform="translate(44.00, 155.00)" id="165-우산">
<path d="M256.02,10.79 C256.05,11.21 256.05,11.49 256.02,11.62 C255.99,11.75 255.88,11.93 255.70,12.16 C255.70,12.16 255.51,9.72 255.51,9.72 C254.38,8.35 241.64,7.83 234.66,7.55 C220.36,6.63 212.40,6.42 205.21,7.80 C201.75,8.49 196.49,10.29 194.15,11.33 C190.91,12.79 181.04,20.64 175.60,27.00 C171.78,31.49 161.99,46.50 159.82,49.66 C156.21,55.01 151.35,68.03 148.77,74.64 C148.67,74.93 148.56,75.32 148.45,75.80 C148.45,75.80 149.57,75.22 149.57,75.22" fill="none" stroke="rgb(0, 153, 67)" stroke-width="2.44" stroke-opacity="1.00" stroke-linejoin="round"/>
<path d="M228.86,65.59 C228.86,65.23 228.86,64.86 228.86,64.50 C228.86,64.39 228.86,64.27 228.86,64.16 C228.82,70.61 228.79,85.18 230.59,92.80 C231.25,95.58 232.17,99.43 232.41,100.04 C232.57,100.44 233.03,101.48 233.79,103.17" fill="none" stroke="rgb(0, 153, 67)" stroke-width="2.44" stroke-opacity="1.00" stroke-linejoin="round"/>
<path d="M232.67,63.21 C232.67,63.21 232.50,62.25 232.50,62.25 C232.22,64.53 232.45,69.61 233.01,75.59 C234.45,89.10 235.48,96.40 236.40,100.21 C236.53,100.78 236.79,101.57 237.17,102.60" fill="none" stroke="rgb(0, 153, 67)" stroke-width="2.44" stroke-opacity="1.00" stroke-linejoin="round"/>
<path d="M240.77,110.86 C240.77,110.86 240.77,109.91 240.77,109.91 C240.74,110.93 243.54,120.07 243.70,121.08 C243.80,121.72 243.89,122.97 243.97,124.83 C242.64,124.65 241.63,124.24 240.94,123.40 C240.26,122.55 239.27,120.68 238.72,119.22 C237.65,116.32 236.85,112.08 236.52,110.17" fill="none" stroke="rgb(0, 153, 67)" stroke-width="2.44" stroke-opacity="1.00" stroke-linejoin="round"/>
<path d="M240.77,61.30 C240.77,61.30 239.74,60.35 239.74,60.35 C239.58,60.41 237.20,59.60 235.80,60.31 C234.38,61.03 229.71,64.26 229.56,64.33 C227.90,65.07 222.83,63.77 217.55,62.03 C213.92,60.85 210.79,60.32 207.60,60.69 C204.67,61.06 197.94,63.01 196.30,63.71 C194.47,64.51 186.49,68.92 186.42,68.95 C184.77,69.67 177.16,67.92 175.72,67.55 C172.27,66.68 166.83,66.02 164.13,66.42 C161.47,66.85 154.44,69.42 152.93,70.36 C152.52,70.62 151.62,71.26 150.23,72.26" fill="none" stroke="rgb(0, 153, 67)" stroke-width="2.44" stroke-opacity="1.00" stroke-linejoin="round"/>
<path d="M185.01,35.09 C185.01,35.09 183.00,34.19 183.00,34.19 C181.46,35.80 181.13,38.56 181.87,39.33 C182.33,39.77 183.70,40.00 184.38,39.72 C185.96,38.96 186.47,36.72 186.68,34.54 C186.68,34.54 185.26,33.65 185.26,33.65" fill="none" stroke="rgb(0, 153, 67)" stroke-width="2.44" stroke-opacity="1.00" stroke-linejoin="round"/>
<path d="M197.88,47.96 C197.88,47.96 195.90,48.28 195.90,48.28 C195.34,49.77 196.36,52.07 198.05,52.10 C200.03,52.01 200.59,49.75 200.72,47.16 C200.72,47.16 198.50,46.04 198.50,46.04" fill="none" stroke="rgb(0, 153, 67)" stroke-width="2.44" stroke-opacity="1.00" stroke-linejoin="round"/>
<path d="M263.17,45.10 C261.96,45.93 261.40,46.46 261.40,46.99 C261.40,47.11 261.43,47.50 261.47,48.18 C262.11,48.99 263.14,49.63 264.22,49.66 C266.21,49.69 269.11,46.96 269.39,45.21 C269.39,45.21 268.71,44.17 268.71,44.17 C268.71,44.17 262.41,45.00 262.41,45.00" fill="none" stroke="rgb(0, 153, 67)" stroke-width="2.44" stroke-opacity="1.00" stroke-linejoin="round"/>
<path d="M238.39,62.73 C238.39,62.73 237.67,62.73 237.67,62.73 C237.67,62.73 236.96,61.99 236.96,61.99 C237.98,60.54 238.83,59.86 240.38,59.39 C243.81,58.39 248.99,57.43 254.38,56.86 C258.33,56.48 262.31,57.49 264.14,58.08 C266.25,58.78 271.56,60.94 272.84,62.67 C273.10,63.03 273.37,63.69 273.65,64.64 C273.24,64.37 278.36,58.97 281.81,57.00 C283.63,56.01 289.05,54.89 294.50,54.22 C299.74,53.64 304.11,53.32 305.06,53.68 C306.87,54.36 309.02,55.57 310.16,56.49 C309.59,52.81 300.18,41.82 296.00,36.48 C294.04,33.98 277.76,20.79 274.25,18.80 C272.30,17.71 260.43,12.47 257.17,11.24 C255.42,10.57 252.22,9.47 250.68,8.97 C250.08,8.78 249.47,8.59 248.87,8.40" fill="none" stroke="rgb(0, 153, 67)" stroke-width="2.44" stroke-opacity="1.00" stroke-linejoin="round"/>
</g>
</svg>
