<?xml version="1.0" encoding="UTF-8" standalone="no"?>
<!DOCTYPE svg PUBLIC "-//W3C//DTD SVG 1.1//EN" "http://www.w3.org/Graphics/SVG/1.1/DTD/svg11.dtd">
<svg width="128.40" height="181.68" viewBox="0.00 0.00 535.00 757.00" xmlns="http://www.w3.org/2000/svg" xmlns:xlink="http://www.w3.org/1999/xlink">
<g stroke-linecap="round" transform="translate(44.00, 155.00)" id="165-번개-1">
<path d="M226.47,-133.13 C226.49,-133.81 226.49,-134.24 226.47,-134.43 C226.46,-134.61 226.40,-134.82 226.31,-135.04 C226.31,-135.04 218.60,-117.57 218.60,-117.57 C218.91,-117.47 224.67,-116.61 227.33,-115.18 C229.14,-114.18 230.24,-113.29 230.09,-113.06 C230.09,-113.06 219.26,-95.05 219.26,-95.05 C219.26,-95.05 239.05,-120.73 239.05,-120.73 C239.05,-120.73 225.07,-118.55 225.07,-118.55 C225.25,-120.85 226.65,-128.88 226.84,-129.56 C226.98,-130.04 227.34,-131.08 227.90,-132.65" fill="none" stroke="rgb(0, 255, 255)" stroke-width="2.44" stroke-opacity="1.00" stroke-linejoin="round"/>
</g>
</svg>
