<?xml version="1.0" encoding="UTF-8" standalone="no"?>
<!DOCTYPE svg PUBLIC "-//W3C//DTD SVG 1.1//EN" "http://www.w3.org/Graphics/SVG/1.1/DTD/svg11.dtd">
<svg width="128.40" height="181.68" viewBox="0.00 0.00 535.00 757.00" xmlns="http://www.w3.org/2000/svg" xmlns:xlink="http://www.w3.org/1999/xlink">
<g stroke-linecap="round" transform="translate(44.00, 155.00)" id="166-사람">
<path d="M185.84,163.30 C185.24,163.32 184.85,163.32 184.68,163.30 C184.50,163.28 184.29,163.21 184.05,163.08 C184.05,163.08 184.16,160.33 184.16,160.33 C182.01,160.14 174.44,160.89 171.32,162.29 C168.09,163.78 161.49,168.27 159.56,170.41 C158.34,171.81 156.75,174.78 156.10,176.77 C155.02,180.35 155.29,187.07 156.71,190.26 C158.18,193.38 162.76,197.70 165.91,198.89 C169.45,200.14 175.93,200.04 178.66,199.14 C181.12,198.27 184.81,196.16 186.68,194.42 C188.53,192.67 191.38,188.72 192.25,186.68 C192.94,185.03 194.14,179.89 194.16,177.07 C194.15,175.61 193.48,172.36 192.92,171.20 C192.01,169.37 186.91,164.42 185.47,162.87 C184.75,162.09 182.85,159.95 182.13,159.13" fill="none" stroke="rgb(0, 255, 255)" stroke-width="2.38" stroke-opacity="1.00" stroke-linejoin="round"/>
<path d="M194.65,172.12 C194.12,172.12 193.59,172.12 193.06,172.12 C191.47,172.13 187.22,174.12 185.86,173.60 C185.02,173.25 183.10,170.23 182.43,169.44 C182.43,169.44 181.21,169.34 181.21,169.34 C181.21,169.34 176.95,172.75 176.95,172.75 C176.95,172.75 174.42,168.74 174.42,168.74 C174.42,168.74 166.90,175.37 166.90,175.37 C166.03,175.03 164.53,171.11 164.24,170.51 C164.06,170.12 163.68,169.42 163.10,168.41" fill="none" stroke="rgb(0, 255, 255)" stroke-width="2.38" stroke-opacity="1.00" stroke-linejoin="round"/>
<path d="M169.13,178.62 C169.13,178.62 166.97,177.69 166.97,177.69 C166.97,177.69 165.20,182.57 165.20,182.57 C166.57,183.21 167.52,183.16 168.32,182.17 C168.91,181.41 169.79,179.73 169.99,178.86 C170.07,178.49 170.21,177.64 170.42,176.28" fill="none" stroke="rgb(0, 255, 255)" stroke-width="2.38" stroke-opacity="1.00" stroke-linejoin="round"/>
<path d="M187.69,179.54 C187.69,179.54 185.20,178.73 185.20,178.73 C185.20,178.73 184.68,183.45 184.68,183.45 C184.68,183.45 185.68,179.87 185.68,179.87 C185.68,179.87 184.48,180.06 184.48,180.06" fill="none" stroke="rgb(0, 255, 255)" stroke-width="2.38" stroke-opacity="1.00" stroke-linejoin="round"/>
<path d="M186.30,192.54 C185.86,192.23 184.51,191.45 183.91,191.28 C183.68,191.22 175.98,190.60 172.33,189.89 C169.15,189.27 163.64,190.60 162.65,191.77 C162.52,191.92 162.37,192.18 162.17,192.54" fill="none" stroke="rgb(0, 255, 255)" stroke-width="2.38" stroke-opacity="1.00" stroke-linejoin="round"/>
<path d="M152.43,196.71 C152.43,196.71 152.89,196.71 152.89,196.71 C151.78,196.60 145.83,194.22 144.69,193.89 C141.90,193.12 137.43,193.39 135.48,194.33 C133.71,195.22 120.31,205.87 115.24,209.71 C112.97,211.53 106.95,217.08 106.78,218.24 C106.63,219.73 107.73,227.93 108.96,229.46 C109.58,230.17 111.59,229.36 114.73,227.47 C120.33,224.03 132.50,216.66 137.49,213.80 C137.99,213.52 138.48,213.23 138.97,212.95" fill="none" stroke="rgb(0, 255, 255)" stroke-width="2.38" stroke-opacity="1.00" stroke-linejoin="round"/>
<path d="M106.03,224.09 C106.03,224.09 105.79,224.09 105.79,224.09 C105.48,224.47 105.12,224.77 104.59,224.97 C100.52,226.57 88.98,234.84 82.75,237.70 C80.99,238.49 79.74,239.28 77.75,240.77 C75.43,240.98 70.31,243.44 68.69,244.93 C66.96,246.57 64.68,250.07 63.74,252.39 C62.85,254.70 62.95,259.79 64.01,261.06 C64.43,261.50 65.50,261.99 66.38,262.17 C67.90,262.42 73.25,260.49 75.55,258.86 C77.56,257.38 81.94,252.70 82.23,250.58 C82.33,249.65 81.68,247.85 81.06,247.40 C80.34,246.91 74.54,242.56 73.53,242.92 C73.16,243.06 72.27,243.57 70.84,244.45" fill="none" stroke="rgb(0, 255, 255)" stroke-width="2.38" stroke-opacity="1.00" stroke-linejoin="round"/>
<path d="M73.08,243.12 C72.58,243.63 70.47,245.99 69.88,247.35 C69.77,247.61 69.63,247.99 69.47,248.47" fill="none" stroke="rgb(0, 255, 255)" stroke-width="2.38" stroke-opacity="1.00" stroke-linejoin="round"/>
<path d="M87.00,248.22 C86.29,248.55 85.79,248.79 85.49,248.92 C85.20,249.04 84.69,249.25 83.98,249.53 C87.38,248.07 93.48,243.58 95.97,241.88 C103.45,236.81 106.80,233.80 107.61,232.95 C107.61,232.95 107.42,232.44 107.42,232.44" fill="none" stroke="rgb(0, 255, 255)" stroke-width="2.38" stroke-opacity="1.00" stroke-linejoin="round"/>
<path d="M138.97,212.03 C138.97,212.03 136.88,212.85 136.88,212.85 C136.95,214.64 138.47,219.71 138.82,223.64 C139.26,229.03 136.02,245.61 135.40,249.94 C134.77,254.42 134.55,264.07 134.52,264.35 C134.28,266.80 131.56,272.88 130.50,276.32 C130.15,277.47 129.82,279.23 129.69,280.24" fill="none" stroke="rgb(0, 255, 255)" stroke-width="2.38" stroke-opacity="1.00" stroke-linejoin="round"/>
<path d="M135.72,265.85 C135.72,265.85 135.72,265.62 135.72,265.62 C135.72,265.62 135.86,265.43 135.86,265.43 C137.35,266.03 141.30,267.71 141.68,267.83 C142.45,268.06 143.89,267.24 144.42,266.62 C145.49,265.25 147.95,258.10 148.74,255.33 C150.18,250.33 151.26,248.33 151.98,247.85 C153.61,247.69 156.12,248.85 157.91,251.17 C158.97,252.57 159.90,253.37 161.19,254.07 C162.21,254.01 164.18,251.48 167.19,246.89 C168.95,244.21 172.99,239.04 174.60,238.56 C177.12,240.48 178.78,241.44 180.04,240.74 C182.46,239.27 186.26,227.72 186.88,225.04 C187.40,222.78 188.03,221.61 189.42,220.12 C187.65,225.97 184.01,238.66 182.13,245.50 C179.45,256.10 177.02,268.51 175.56,272.73 C173.36,279.23 171.19,286.40 170.33,288.44 C169.98,288.48 166.81,286.51 162.87,285.20 C161.60,284.79 140.78,279.83 136.80,279.33 C135.46,279.16 129.80,278.95 129.72,278.90 C128.53,279.61 127.82,287.21 127.06,299.65 C126.81,303.31 126.21,311.82 126.54,312.53 C129.80,314.26 138.72,315.19 140.15,314.51 C141.59,313.77 142.59,310.86 143.92,306.15 C146.12,298.48 147.61,296.76 148.20,296.47 C148.20,296.47 148.27,320.33 148.27,320.33 C149.26,320.10 156.26,320.33 159.05,320.32 C161.74,320.29 165.77,319.36 166.57,317.46 C167.16,315.93 169.94,290.21 170.38,288.13 C170.38,288.13 170.52,288.59 170.52,288.59" fill="none" stroke="rgb(0, 255, 255)" stroke-width="2.38" stroke-opacity="1.00" stroke-linejoin="round"/>
<path d="M151.04,321.07 C151.04,321.07 150.57,320.61 150.57,320.61 C150.57,320.61 150.57,319.71 150.57,319.71 C150.57,319.71 150.57,332.96 150.57,332.96 C150.57,332.96 151.50,329.89 151.50,329.89" fill="none" stroke="rgb(0, 255, 255)" stroke-width="2.38" stroke-opacity="1.00" stroke-linejoin="round"/>
<path d="M155.68,322.46 C155.68,322.77 155.68,322.93 155.68,322.93 C155.68,323.02 156.50,327.38 156.60,332.37 C156.61,332.68 156.61,333.09 156.60,333.60" fill="none" stroke="rgb(0, 255, 255)" stroke-width="2.38" stroke-opacity="1.00" stroke-linejoin="round"/>
<path d="M131.08,312.25 C131.08,312.25 130.49,312.49 130.49,312.49 C130.29,313.18 130.18,313.64 130.15,313.87 C130.10,314.64 133.96,328.69 134.29,329.95 C134.29,329.95 134.33,327.10 134.33,327.10" fill="none" stroke="rgb(0, 255, 255)" stroke-width="2.38" stroke-opacity="1.00" stroke-linejoin="round"/>
<path d="M135.72,313.18 C135.79,313.39 135.34,316.95 135.34,317.07 C135.33,318.44 138.27,329.43 138.33,329.57 C138.43,329.77 138.64,330.03 138.97,330.35" fill="none" stroke="rgb(0, 255, 255)" stroke-width="2.38" stroke-opacity="1.00" stroke-linejoin="round"/>
<path d="M190.94,218.99 C190.94,218.99 189.67,218.52 189.67,218.52 C189.67,218.52 188.31,219.26 188.31,219.26 C188.23,220.77 188.24,221.30 188.70,221.64 C191.62,223.83 196.52,230.19 197.18,230.86 C197.42,230.76 201.29,228.39 204.85,227.02 C215.49,222.88 216.80,222.08 217.43,221.51 C217.40,221.29 204.09,207.85 203.54,207.39 C201.38,205.58 197.17,204.11 194.94,203.82 C190.13,203.24 179.74,203.50 178.67,203.10 C178.50,203.04 178.26,202.92 177.95,202.75" fill="none" stroke="rgb(0, 255, 255)" stroke-width="2.38" stroke-opacity="1.00" stroke-linejoin="round"/>
<path d="M210.43,226.87 C210.43,226.87 208.57,226.41 208.57,226.41 C210.56,227.80 220.00,240.23 225.16,246.37 C228.05,249.99 229.72,252.94 230.38,254.55 C230.40,254.60 230.42,254.76 230.38,254.72" fill="none" stroke="rgb(0, 255, 255)" stroke-width="2.38" stroke-opacity="1.00" stroke-linejoin="round"/>
<path d="M214.61,226.87 C214.61,226.87 211.82,225.95 211.82,225.95 C213.29,226.34 218.64,229.68 220.21,231.05 C223.94,234.35 234.48,249.03 235.73,252.09 C235.73,252.09 235.02,251.00 235.02,251.00" fill="none" stroke="rgb(0, 255, 255)" stroke-width="2.38" stroke-opacity="1.00" stroke-linejoin="round"/>
<path d="M238.74,250.54 C238.14,251.21 237.79,251.60 237.69,251.70 C237.57,251.82 237.38,251.92 237.11,252.01 C236.13,252.37 233.91,253.43 233.17,254.08 C232.21,254.97 231.80,257.35 232.40,258.66 C233.08,260.02 235.38,261.21 236.89,261.04 C237.55,260.94 239.73,259.98 239.82,259.57 C239.99,258.35 239.61,256.54 238.85,255.13 C237.51,252.73 235.48,250.53 234.56,249.61" fill="none" stroke="rgb(0, 255, 255)" stroke-width="2.38" stroke-opacity="1.00" stroke-linejoin="round"/>
<path d="M170.52,225.95 C170.52,225.95 169.36,225.95 169.36,225.95 C169.36,225.95 168.48,226.76 168.48,226.76 C168.39,227.28 168.32,227.76 168.25,228.21 C168.11,229.24 167.96,230.27 167.82,231.31" fill="none" stroke="rgb(0, 255, 255)" stroke-width="2.38" stroke-opacity="1.00" stroke-linejoin="round"/>
<path d="M152.43,232.44 C152.43,232.44 151.27,232.44 151.27,232.44 C151.24,232.66 151.87,233.63 152.11,234.05 C152.28,234.36 152.61,235.02 153.10,236.03" fill="none" stroke="rgb(0, 255, 255)" stroke-width="2.38" stroke-opacity="1.00" stroke-linejoin="round"/>
<path d="M180.27,209.24 C179.31,209.81 178.89,210.56 178.88,211.98 C178.88,212.48 178.88,212.98 178.88,213.48" fill="none" stroke="rgb(0, 255, 255)" stroke-width="2.38" stroke-opacity="1.00" stroke-linejoin="round"/>
</g>
</svg>
