<?xml version="1.0" encoding="UTF-8" standalone="no"?>
<!DOCTYPE svg PUBLIC "-//W3C//DTD SVG 1.1//EN" "http://www.w3.org/Graphics/SVG/1.1/DTD/svg11.dtd">
<svg width="128.40" height="181.68" viewBox="0.00 0.00 535.00 757.00" xmlns="http://www.w3.org/2000/svg" xmlns:xlink="http://www.w3.org/1999/xlink">
<g stroke-linecap="round" transform="translate(44.00, 155.00)" id="166-풀">
<path d="M117.63,326.64 C116.76,327.00 116.23,327.22 116.05,327.31 C115.87,327.40 115.77,327.49 115.77,327.57 C116.22,325.83 116.25,322.51 115.20,319.76 C114.01,316.77 111.12,311.27 109.26,308.93 C107.57,306.83 103.39,303.59 99.96,302.20 C99.39,301.97 95.17,300.49 94.23,299.89 C94.50,299.42 98.27,299.85 100.74,300.63 C104.24,301.77 110.07,304.48 113.01,306.84 C115.10,308.55 119.40,313.70 120.35,315.23 C124.08,321.26 125.84,325.89 126.47,327.96 C126.47,327.96 127.83,328.03 127.83,328.03" fill="none" stroke="rgb(0, 255, 0)" stroke-width="2.38" stroke-opacity="1.00" stroke-linejoin="round"/>
<path d="M129.69,326.64 C129.69,326.64 126.98,326.98 126.98,326.98 C127.07,325.08 127.40,320.48 127.00,318.11 C126.65,316.16 124.83,309.19 124.56,308.39 C124.02,306.86 120.49,301.51 119.22,298.54 C117.57,294.68 115.57,291.90 115.45,292.04 C118.68,293.78 121.33,295.51 125.32,298.60 C127.82,300.60 131.81,305.59 133.40,307.61" fill="none" stroke="rgb(0, 255, 0)" stroke-width="2.38" stroke-opacity="1.00" stroke-linejoin="round"/>
<path d="M120.41,294.16 C120.41,294.16 118.79,295.09 118.79,295.09 C118.65,295.02 118.57,294.90 118.55,294.74 C118.02,287.28 118.53,286.52 119.12,285.94 C120.59,285.60 123.61,287.43 124.94,289.49 C125.63,290.57 125.98,291.86 126.05,293.10 C126.05,293.10 122.26,294.97 122.26,294.97" fill="none" stroke="rgb(0, 255, 0)" stroke-width="2.38" stroke-opacity="1.00" stroke-linejoin="round"/>
<path d="M138.51,317.82 C138.51,317.82 138.27,317.13 138.27,317.13 C138.27,317.13 137.81,316.90 137.81,316.90 C137.81,316.90 145.38,330.50 145.38,330.50 C145.38,330.50 144.08,328.48 144.08,328.48 C144.08,328.48 149.59,314.59 149.59,314.59 C149.59,314.59 148.95,315.98 148.95,315.98" fill="none" stroke="rgb(0, 255, 0)" stroke-width="2.38" stroke-opacity="1.00" stroke-linejoin="round"/>
<path d="M172.38,300.19 C172.38,300.19 170.37,300.27 170.37,300.27 C170.37,300.27 177.30,294.72 177.30,294.72 C177.33,294.80 174.57,298.76 172.79,302.92 C170.36,308.79 161.28,330.83 160.89,332.85 C163.24,327.33 169.93,317.52 173.11,313.78 C178.60,307.35 183.06,303.60 184.86,302.26 C183.81,304.16 174.27,318.29 171.70,324.03 C170.50,326.78 168.92,333.47 168.67,334.10 C168.60,334.28 168.45,334.42 168.20,334.53" fill="none" stroke="rgb(0, 255, 0)" stroke-width="2.38" stroke-opacity="1.00" stroke-linejoin="round"/>
</g>
</svg>
