<?xml version="1.0" encoding="UTF-8" standalone="no"?>
<!DOCTYPE svg PUBLIC "-//W3C//DTD SVG 1.1//EN" "http://www.w3.org/Graphics/SVG/1.1/DTD/svg11.dtd">
<svg width="128.40" height="181.68" viewBox="0.00 0.00 535.00 757.00" xmlns="http://www.w3.org/2000/svg" xmlns:xlink="http://www.w3.org/1999/xlink">
<g stroke-linecap="round" transform="translate(44.00, 155.00)" id="166-지면">
<path d="M-36.89,330.35 C-36.89,330.35 -36.89,329.89 -36.89,329.89 C-35.83,329.36 1.12,324.01 7.11,323.74 C9.51,323.60 26.95,322.02 33.68,321.36 C48.39,319.97 60.55,321.82 85.25,325.05 C90.74,325.63 106.38,328.37 111.61,328.86 C118.45,329.43 136.11,330.35 140.55,330.66 C146.47,331.13 166.94,334.83 168.54,335.08 C172.14,335.65 186.08,336.39 193.58,336.29 C201.52,336.07 221.49,335.41 223.78,335.43 C225.59,335.45 241.57,335.96 248.81,335.10 C253.66,334.51 268.47,331.41 279.15,329.71 C284.72,328.88 298.25,327.24 304.60,326.54 C318.60,325.34 350.16,324.83 366.34,324.91 C379.18,325.01 409.33,323.33 420.10,323.22 C428.50,323.20 443.48,323.06 450.07,322.95 C459.69,323.06 469.60,325.02 475.45,326.12 C475.45,326.12 474.92,326.18 474.92,326.18" fill="none" stroke="rgb(0, 153, 67)" stroke-width="2.38" stroke-opacity="1.00" stroke-linejoin="round"/>
</g>
</svg>
