<?xml version="1.0" encoding="UTF-8" standalone="no"?>
<!DOCTYPE svg PUBLIC "-//W3C//DTD SVG 1.1//EN" "http://www.w3.org/Graphics/SVG/1.1/DTD/svg11.dtd">
<svg width="128.40" height="181.68" viewBox="0.00 0.00 535.00 757.00" xmlns="http://www.w3.org/2000/svg" xmlns:xlink="http://www.w3.org/1999/xlink">
<g stroke-linecap="round" transform="translate(44.00, 155.00)" id="166-우산">
<path d="M30.85,150.31 C30.37,150.70 29.88,151.08 29.39,151.47 C29.21,151.62 29.08,151.73 29.00,151.81 C28.92,153.78 27.68,157.37 26.05,159.87 C25.38,160.88 19.65,169.01 19.14,169.90 C18.18,171.65 11.58,187.45 8.60,192.43 C0.73,204.72 -11.22,227.49 -17.07,238.63 C-19.70,243.51 -23.66,249.57 -23.97,250.20 C-26.11,247.98 -32.47,232.46 -34.47,225.10 C-37.18,214.93 -38.41,208.99 -37.96,204.07 C-37.53,200.08 -36.72,196.74 -35.34,193.45 C-31.63,184.71 -27.71,177.92 -21.68,171.02 C-17.72,166.53 -7.62,160.02 0.36,155.71 C1.97,154.84 9.93,150.69 12.42,150.29 C12.73,150.24 20.55,149.45 23.74,148.66 C27.73,147.69 28.92,147.77 30.43,148.30 C30.74,148.42 31.19,148.62 31.78,148.92" fill="none" stroke="rgb(255, 0, 255)" stroke-width="2.38" stroke-opacity="1.00" stroke-linejoin="round"/>
<path d="M1.62,209.71 C1.62,209.71 0.38,210.17 0.38,210.17 C2.10,210.57 20.65,212.46 25.72,214.93 C27.09,215.61 39.98,222.94 46.84,225.65 C49.17,226.59 52.64,228.38 54.78,229.92 C54.78,229.92 54.52,230.12 54.52,230.12" fill="none" stroke="rgb(255, 0, 255)" stroke-width="2.38" stroke-opacity="1.00" stroke-linejoin="round"/>
<path d="M-1.16,213.88 C-1.16,213.88 -1.16,215.04 -1.16,215.04 C-1.16,215.04 -1.86,215.66 -1.86,215.66 C-1.86,215.66 -2.56,215.03 -2.56,215.03 C-1.12,214.73 5.55,215.40 8.86,215.99 C12.27,216.62 16.90,218.43 18.05,218.78 C19.77,219.31 25.48,220.32 26.60,220.64 C27.95,221.04 33.96,223.73 37.34,224.82 C40.62,225.88 46.90,229.28 48.26,229.77 C48.50,229.85 48.89,229.97 49.41,230.12" fill="none" stroke="rgb(255, 0, 255)" stroke-width="2.38" stroke-opacity="1.00" stroke-linejoin="round"/>
<path d="M55.45,230.59 C55.45,230.59 53.73,229.66 53.73,229.66 C50.28,232.38 49.46,234.18 49.58,235.33 C50.00,236.26 56.97,236.92 57.80,237.32 C59.31,238.08 60.61,241.05 60.32,242.38 C59.90,244.05 58.81,245.31 57.31,245.74 C54.49,246.53 54.17,246.88 53.87,247.40 C53.94,248.53 59.41,249.15 62.62,248.37 C64.92,247.75 68.33,245.07 68.61,243.70 C68.83,242.34 67.06,238.60 65.64,237.08 C64.41,235.80 55.19,229.82 54.10,228.93 C53.78,228.67 53.30,228.30 52.66,227.80" fill="none" stroke="rgb(255, 0, 255)" stroke-width="2.38" stroke-opacity="1.00" stroke-linejoin="round"/>
</g>
</svg>
