<?xml version="1.0" encoding="UTF-8" standalone="no"?>
<!DOCTYPE svg PUBLIC "-//W3C//DTD SVG 1.1//EN" "http://www.w3.org/Graphics/SVG/1.1/DTD/svg11.dtd">
<svg width="128.40" height="181.68" viewBox="0.00 0.00 535.00 757.00" xmlns="http://www.w3.org/2000/svg" xmlns:xlink="http://www.w3.org/1999/xlink">
<g stroke-linecap="round" transform="translate(44.00, 155.00)" id="168-물웅덩이-1">
<path d="M6.96,450.75 C6.96,450.75 2.90,449.00 2.90,449.00 C2.68,451.80 2.14,458.91 2.36,460.88 C2.69,463.63 5.12,468.50 6.52,470.32 C7.43,471.47 12.18,476.91 13.84,479.25 C14.95,480.82 18.38,486.29 20.19,488.70 C22.33,491.50 37.18,507.37 38.85,508.81 C42.80,512.14 52.65,516.58 62.25,519.64 C64.21,520.25 67.74,521.25 69.55,521.71 C70.42,521.94 73.91,522.76 74.95,523.00" fill="none" stroke="rgb(0, 0, 255)" stroke-width="3.39" stroke-opacity="1.00" stroke-linejoin="round"/>
<path d="M51.27,520.14 C50.00,520.47 49.22,520.66 48.94,520.72 C48.65,520.78 48.46,520.78 48.35,520.72 C50.20,521.07 55.42,521.37 57.62,521.30 C60.27,521.20 67.72,519.66 69.87,518.60 C72.48,517.29 76.00,514.29 78.71,511.45 C81.57,508.43 84.51,504.99 85.30,504.75 C85.62,504.66 87.12,504.55 87.93,504.05 C90.14,502.65 93.77,498.36 94.73,496.57 C95.80,494.50 97.14,488.29 96.86,486.32 C96.53,484.16 94.03,478.94 91.56,475.33 C88.59,471.04 76.99,456.65 73.14,454.13 C71.31,452.95 67.58,451.34 64.95,450.74 C58.37,449.30 46.21,448.33 36.54,448.32 C29.21,448.42 17.26,448.68 15.63,449.10 C14.07,449.52 11.74,450.58 10.45,451.34" fill="none" stroke="rgb(0, 0, 255)" stroke-width="3.39" stroke-opacity="1.00" stroke-linejoin="round"/>
<path d="M19.20,463.00 C19.20,463.00 14.66,462.48 14.66,462.48 C15.99,465.01 17.09,467.49 17.77,469.06 C18.08,469.72 19.67,472.32 20.25,473.26" fill="none" stroke="rgb(0, 0, 255)" stroke-width="3.39" stroke-opacity="1.00" stroke-linejoin="round"/>
<path d="M33.19,459.50 C33.19,459.50 32.90,458.04 32.90,458.04 C32.90,458.04 32.21,458.59 32.21,458.59 C32.04,463.41 31.99,466.20 32.07,467.41 C32.11,467.97 32.23,469.07 32.42,470.70" fill="none" stroke="rgb(0, 0, 255)" stroke-width="3.39" stroke-opacity="1.00" stroke-linejoin="round"/>
<path d="M30.86,481.66 C30.86,481.66 29.79,478.16 29.79,478.16 C30.10,479.25 30.87,482.03 31.33,483.71 C32.26,487.12 33.25,491.81 33.57,493.51" fill="none" stroke="rgb(0, 0, 255)" stroke-width="3.39" stroke-opacity="1.00" stroke-linejoin="round"/>
<path d="M26.20,480.49 C26.20,480.49 25.32,479.03 25.32,479.03 C25.03,479.03 23.86,481.29 24.00,483.73 C24.04,484.45 24.79,487.35 25.06,488.39" fill="none" stroke="rgb(0, 0, 255)" stroke-width="3.39" stroke-opacity="1.00" stroke-linejoin="round"/>
<path d="M43.11,453.67 C43.11,453.67 41.65,453.67 41.65,453.67 C40.82,454.57 40.75,459.78 41.55,465.67 C41.82,467.64 43.20,475.89 43.46,477.40" fill="none" stroke="rgb(0, 0, 255)" stroke-width="3.39" stroke-opacity="1.00" stroke-linejoin="round"/>
<path d="M47.19,484.57 C47.19,484.57 47.19,483.70 47.19,483.70 C47.19,483.70 46.50,484.07 46.50,484.07 C45.65,487.02 44.64,491.37 43.73,496.10 C43.15,499.26 42.71,502.72 42.59,503.89" fill="none" stroke="rgb(0, 0, 255)" stroke-width="3.39" stroke-opacity="1.00" stroke-linejoin="round"/>
<path d="M56.52,475.24 C56.52,475.24 56.35,474.08 56.35,474.08 C56.35,474.08 55.95,473.78 55.95,473.78 C55.55,473.89 55.09,474.71 54.63,476.46 C54.11,478.47 53.73,481.52 53.64,484.30 C53.63,484.90 53.61,486.00 53.60,487.62" fill="none" stroke="rgb(0, 0, 255)" stroke-width="3.39" stroke-opacity="1.00" stroke-linejoin="round"/>
<path d="M61.18,454.25 C60.79,454.39 59.97,455.07 59.56,455.88 C58.70,457.57 57.43,464.68 56.87,467.09 C56.38,469.18 55.49,472.61 54.90,474.76" fill="none" stroke="rgb(0, 0, 255)" stroke-width="3.39" stroke-opacity="1.00" stroke-linejoin="round"/>
<path d="M60.02,468.83 C60.02,468.83 60.02,468.25 60.02,468.25 C60.46,471.10 60.89,473.19 61.63,476.00 C61.92,477.07 62.20,478.13 62.48,479.20" fill="none" stroke="rgb(0, 0, 255)" stroke-width="3.39" stroke-opacity="1.00" stroke-linejoin="round"/>
<path d="M78.09,465.91 C78.09,465.91 76.92,465.33 76.92,465.33 C77.20,466.29 77.66,468.40 77.94,470.19 C78.16,471.64 78.92,479.02 79.05,480.36" fill="none" stroke="rgb(0, 0, 255)" stroke-width="3.39" stroke-opacity="1.00" stroke-linejoin="round"/>
<path d="M68.18,487.49 C68.18,487.49 68.18,487.20 68.18,487.20 C68.18,487.20 68.47,487.36 68.47,487.36 C68.56,488.11 68.90,502.32 69.03,505.86 C69.03,506.23 69.01,506.81 68.97,507.58" fill="none" stroke="rgb(0, 0, 255)" stroke-width="3.39" stroke-opacity="1.00" stroke-linejoin="round"/>
<path d="M62.35,492.73 C62.35,492.73 61.05,492.86 61.05,492.86 C60.89,493.87 60.47,496.44 60.22,497.99 C59.62,501.74 58.80,506.97 58.57,508.44" fill="none" stroke="rgb(0, 0, 255)" stroke-width="3.39" stroke-opacity="1.00" stroke-linejoin="round"/>
</g>
</svg>
