<?xml version="1.0" encoding="UTF-8" standalone="no"?>
<!DOCTYPE svg PUBLIC "-//W3C//DTD SVG 1.1//EN" "http://www.w3.org/Graphics/SVG/1.1/DTD/svg11.dtd">
<svg width="128.40" height="181.68" viewBox="0.00 0.00 535.00 757.00" xmlns="http://www.w3.org/2000/svg" xmlns:xlink="http://www.w3.org/1999/xlink">
<g stroke-linecap="round" transform="translate(44.00, 155.00)" id="168-우산">
<path d="M333.99,174.59 C333.99,174.59 331.02,176.96 331.02,176.96 C331.46,175.24 332.04,172.47 332.12,171.13 C332.20,169.78 331.73,164.06 331.91,162.67 C333.01,162.80 334.22,168.75 334.41,172.48 C334.47,173.65 334.52,176.65 334.53,177.77 C334.53,177.77 332.83,166.91 332.83,166.91 C332.83,166.91 333.39,171.62 333.39,171.62" fill="none" stroke="rgb(0, 255, 0)" stroke-width="3.39" stroke-opacity="1.00" stroke-linejoin="round"/>
<path d="M335.77,177.56 C335.60,177.77 335.11,178.08 334.71,178.15 C334.57,178.18 334.33,178.18 333.99,178.15 C333.77,177.46 333.04,176.97 331.29,176.57 C325.79,175.33 311.16,176.48 303.01,178.25 C296.75,179.62 287.16,180.44 277.68,182.26 C271.33,183.48 261.94,185.35 254.90,188.17 C241.86,193.33 212.65,201.70 197.29,206.21 C191.14,208.16 186.42,210.23 184.22,211.77 C181.18,213.94 172.88,221.92 170.04,225.08 C177.05,226.37 193.49,227.83 196.89,228.53 C199.96,229.17 208.57,231.86 210.53,232.86 C213.93,234.63 220.10,240.82 222.61,244.10 C222.91,244.49 223.20,244.88 223.50,245.28" fill="none" stroke="rgb(0, 255, 0)" stroke-width="3.39" stroke-opacity="1.00" stroke-linejoin="round"/>
<path d="M224.69,243.49 C224.69,243.49 222.31,244.09 222.31,244.09 C223.44,243.31 225.72,241.77 226.87,240.99 C228.90,239.61 234.95,234.89 237.82,233.37 C240.65,231.90 248.10,228.67 251.35,227.85 C254.66,227.06 257.84,227.13 262.25,227.79 C268.25,228.70 275.23,230.07 277.83,231.26 C278.27,231.47 281.27,233.44 281.50,233.62 C282.99,234.89 284.10,236.21 285.24,238.04 C285.48,238.44 285.89,239.07 286.47,239.93" fill="none" stroke="rgb(0, 255, 0)" stroke-width="3.39" stroke-opacity="1.00" stroke-linejoin="round"/>
<path d="M290.62,241.12 C290.62,241.12 289.79,240.82 289.79,240.82 C289.79,240.82 289.44,239.69 289.44,239.69 C290.44,238.07 296.49,234.28 299.48,232.04 C304.05,228.59 307.37,226.32 309.11,225.65 C311.17,224.89 315.16,223.99 317.83,224.28 C319.03,224.42 328.25,226.24 331.36,227.07 C334.28,227.87 340.24,230.61 342.03,232.51 C344.42,235.11 346.28,238.99 346.68,240.35 C346.80,240.80 346.93,241.26 347.06,241.71" fill="none" stroke="rgb(0, 255, 0)" stroke-width="3.39" stroke-opacity="1.00" stroke-linejoin="round"/>
<path d="M354.78,241.12 C354.11,241.54 353.52,241.83 353.00,242.01 C352.48,242.18 351.30,242.48 349.48,242.90 C349.30,242.54 353.70,239.14 355.34,237.98 C359.71,234.93 371.74,230.42 378.12,228.90 C386.01,227.05 397.41,226.54 403.35,226.79 C408.66,227.04 415.75,229.89 418.83,232.15 C421.98,234.46 425.03,235.89 426.06,236.37" fill="none" stroke="rgb(0, 255, 0)" stroke-width="3.39" stroke-opacity="1.00" stroke-linejoin="round"/>
<path d="M430.22,233.40 C430.22,233.40 427.25,233.99 427.25,233.99 C427.78,234.55 429.09,234.64 430.59,234.03 C431.03,233.85 438.72,229.52 441.80,228.12 C444.85,226.77 450.53,225.11 453.53,224.46 C457.95,223.54 474.89,223.16 478.56,224.26 C476.91,223.31 463.87,212.04 459.92,209.87 C455.54,207.49 413.00,190.28 408.61,188.77 C403.66,187.12 390.64,183.08 386.65,182.18 C381.75,181.10 348.22,176.66 345.71,176.51 C344.01,176.41 336.96,176.23 333.72,177.35 C333.45,177.45 330.73,180.75 327.52,183.57 C324.51,186.18 319.10,190.89 316.69,192.98 C315.36,194.18 291.81,224.64 290.52,227.63 C290.03,228.78 288.31,232.96 287.65,234.58" fill="none" stroke="rgb(0, 255, 0)" stroke-width="3.39" stroke-opacity="1.00" stroke-linejoin="round"/>
<path d="M333.99,182.91 C333.99,182.91 332.80,181.12 332.80,181.12 C332.61,181.21 337.31,186.25 338.23,187.93 C339.55,190.38 341.37,197.33 341.83,200.52 C342.23,203.43 343.44,217.88 345.16,229.57 C345.41,231.22 345.94,234.86 346.22,236.85 C346.30,237.48 346.38,238.11 346.46,238.74" fill="none" stroke="rgb(0, 255, 0)" stroke-width="3.39" stroke-opacity="1.00" stroke-linejoin="round"/>
<path d="M330.42,189.44 C330.42,189.44 325.66,188.90 325.66,188.90 C323.47,190.25 315.50,201.52 311.04,207.90 C306.92,214.08 301.68,221.98 299.63,225.33 C302.23,224.05 303.77,223.05 305.22,221.55 C310.68,215.83 316.49,206.89 321.88,196.99 C322.90,195.13 323.27,194.01 323.61,192.06 C321.29,193.06 317.17,197.62 314.76,200.63 C307.78,209.53 296.36,225.47 294.52,229.18 C302.43,224.23 314.77,208.19 316.87,204.34 C314.83,204.70 313.76,205.18 312.59,206.47 C303.13,216.86 293.44,230.66 292.65,231.87 C297.44,228.24 306.19,217.57 307.57,214.77 C304.96,216.11 301.95,218.66 298.65,222.71 C293.30,229.35 288.07,237.52 288.55,238.03 C291.73,235.42 299.14,225.61 299.82,222.91 C299.82,222.91 297.97,223.48 297.97,223.48 C299.35,224.10 310.67,212.43 314.37,207.71 C318.29,202.67 323.04,194.62 322.81,193.55 C319.53,197.23 313.44,208.87 311.17,214.94 C310.74,216.08 310.69,217.00 310.84,218.35 C313.66,215.50 316.75,210.60 318.77,207.04 C324.18,197.38 327.34,191.41 328.22,189.53 C328.22,189.53 320.33,213.87 320.33,213.87 C321.87,212.07 324.53,206.64 325.92,202.63 C327.18,198.84 329.33,192.35 330.13,188.67 C325.44,208.08 326.12,213.43 326.64,214.15 C328.10,211.36 329.03,206.73 329.42,202.97 C330.08,195.87 330.80,187.80 330.87,186.84 C330.87,186.84 332.40,216.27 332.40,216.27 C332.40,216.27 331.18,182.86 331.18,182.86 C331.18,182.86 336.59,216.34 336.59,216.34 C334.35,210.24 332.91,190.20 333.26,188.61 C333.26,188.61 341.20,222.21 341.20,222.21 C338.06,211.77 335.34,193.33 335.13,190.09 C335.13,190.09 341.96,221.88 341.96,221.88 C341.96,221.88 336.05,192.70 336.05,192.70 C336.05,192.70 341.15,225.63 341.15,225.63 C341.15,225.63 332.48,185.67 332.48,185.67 C332.48,185.67 340.24,211.06 340.24,211.06 C340.24,211.06 332.96,185.05 332.96,185.05 C332.96,185.05 324.40,191.88 324.40,191.88 C324.40,191.88 327.60,192.23 327.60,192.23 C327.76,193.51 326.03,195.98 321.98,201.17 C319.15,204.80 318.48,206.93 318.40,208.58 C319.39,209.61 320.63,210.10 322.92,210.21 C324.39,210.26 327.08,210.35 328.32,210.39 C324.35,212.42 318.87,214.62 314.84,215.76 C310.56,217.00 308.61,218.55 308.13,219.76 C310.81,221.21 316.28,221.69 319.20,221.73 C326.59,221.80 330.37,220.80 330.93,220.33 C327.03,219.30 307.10,219.58 303.81,220.88 C303.37,221.05 302.93,221.42 302.47,221.96 C304.92,223.29 311.08,223.97 313.57,224.04 C319.88,224.18 330.98,223.58 331.43,223.33 C311.02,222.43 303.36,224.86 302.22,225.41 C304.38,225.59 310.16,224.62 313.11,224.03 C320.13,222.53 330.28,220.38 333.39,219.73" fill="none" stroke="rgb(0, 255, 0)" stroke-width="3.39" stroke-opacity="1.00" stroke-linejoin="round"/>
<path d="M323.29,212.01 C323.29,212.01 320.03,213.50 320.03,213.50 C320.41,213.83 326.14,215.75 328.58,217.51 C332.79,220.63 338.06,229.41 339.09,232.25 C339.09,232.25 323.55,213.78 323.55,213.78 C324.53,213.64 335.25,221.42 338.46,224.73 C341.93,228.37 342.57,230.28 342.55,231.36 C341.52,231.04 339.27,230.40 338.69,229.95 C337.55,229.06 335.12,225.66 334.27,223.86 C333.43,222.05 333.11,220.15 333.14,218.30 C334.49,218.41 336.46,218.72 337.23,219.07 C339.24,220.04 345.29,229.05 345.86,230.14 C342.89,227.39 338.42,218.11 337.89,216.97 C337.89,216.97 340.60,224.39 340.60,224.39 C340.60,224.39 341.12,223.89 341.12,223.89" fill="none" stroke="rgb(0, 255, 0)" stroke-width="3.39" stroke-opacity="1.00" stroke-linejoin="round"/>
<path d="M330.42,179.34 C324.53,180.03 313.66,181.22 305.57,183.98 C298.26,186.50 292.64,189.15 282.94,194.11 C277.32,196.98 262.50,205.04 259.41,206.46 C253.21,209.19 243.10,215.78 238.43,220.69 C236.71,222.52 232.90,227.62 230.40,231.31 C228.88,233.57 227.68,235.27 226.85,236.34 C226.66,236.58 226.34,236.99 225.88,237.55" fill="none" stroke="rgb(0, 255, 0)" stroke-width="3.39" stroke-opacity="1.00" stroke-linejoin="round"/>
<path d="M208.06,213.20 C208.06,213.20 208.06,213.50 208.06,213.50 C207.82,213.76 206.46,213.87 205.32,213.62 C204.86,213.53 202.96,212.76 201.86,212.70 C198.96,212.58 193.01,214.18 190.44,215.28 C188.19,216.26 183.95,218.45 182.30,219.69 C184.53,220.61 205.33,210.70 205.49,210.27 C184.60,216.55 180.33,220.15 179.82,221.26 C181.38,221.83 182.65,221.95 184.50,221.53 C187.89,220.75 194.33,218.41 197.66,216.75 C201.97,214.51 203.58,212.26 203.50,210.89 C201.13,210.11 199.55,209.82 197.74,209.95 C194.36,210.22 188.50,211.52 185.66,212.80 C179.66,215.59 176.50,219.53 175.72,220.59 C175.72,220.59 176.18,222.81 176.18,222.81 C178.78,222.69 182.73,221.62 186.63,219.85 C191.40,217.64 201.15,212.32 204.66,210.35 C202.59,210.15 183.35,218.12 180.85,220.64 C180.57,220.94 180.40,221.38 180.37,221.97 C184.95,221.90 195.00,218.62 206.24,214.55 C208.34,213.77 220.65,208.77 227.25,205.55 C221.24,206.91 208.56,212.26 202.47,215.48 C194.64,219.64 191.88,221.77 190.21,223.40 C192.73,224.00 199.85,222.41 203.17,221.41 C208.69,219.73 226.17,212.70 229.53,210.55 C228.23,209.93 222.86,210.89 219.83,211.70 C205.14,215.70 194.79,222.21 194.05,222.69 C196.07,223.80 200.31,224.02 206.09,223.45 C214.12,222.39 224.57,220.98 226.99,220.63 C226.99,220.63 185.88,220.36 185.88,220.36 C201.82,222.04 210.42,224.88 212.12,225.58 C210.29,226.28 203.55,225.23 199.62,224.62 C189.53,222.99 185.71,222.58 181.33,222.26 C183.45,224.00 202.57,230.13 203.53,230.23 C204.00,230.28 205.10,230.32 206.84,230.36 C206.84,230.36 202.35,226.86 202.35,226.86 C202.35,226.86 220.45,234.58 220.45,234.58 C218.56,235.05 216.82,235.00 215.09,234.25 C212.49,233.12 211.36,231.38 211.08,230.45 C212.95,230.00 214.26,230.19 215.94,231.38 C218.55,233.23 222.30,236.46 223.17,237.01 C223.17,237.01 222.80,226.06 222.80,226.06 C224.38,225.84 225.56,225.15 229.61,221.47 C248.10,204.18 252.37,200.66 253.43,199.89 C245.16,205.73 228.23,218.29 223.91,221.63 C222.92,222.39 221.99,223.55 220.32,225.96 C222.63,225.64 226.40,224.15 231.92,221.31 C247.30,213.04 263.23,201.07 265.08,199.25 C264.09,198.81 262.21,198.50 260.89,198.74 C258.42,199.23 241.47,210.43 236.21,214.64 C229.02,220.42 223.97,225.17 221.33,228.16 C221.33,228.16 222.96,229.20 222.96,229.20 C227.89,227.97 236.59,224.04 242.64,220.11 C248.91,216.02 259.93,207.37 266.29,200.85 C272.68,194.18 274.24,191.94 275.43,190.13 C275.43,190.13 273.84,188.55 273.84,188.55 C269.12,189.31 259.57,193.40 252.68,197.74 C246.81,201.47 232.40,212.21 228.25,215.72 C224.45,218.94 223.84,219.66 223.85,220.28 C227.36,218.72 241.92,210.97 249.58,206.86 C259.86,201.26 268.57,195.80 270.40,193.59 C267.10,193.18 261.83,194.07 258.76,194.63 C251.96,196.01 212.24,210.05 209.89,211.12 C211.11,211.73 217.64,210.59 220.10,210.09 C232.87,207.49 261.06,197.73 266.37,194.49 C265.59,193.86 264.44,193.73 262.15,194.10 C256.11,195.12 212.30,207.30 208.85,208.48 C208.25,208.69 207.36,209.01 206.18,209.44 C214.32,208.19 222.36,206.25 231.45,203.68 C240.43,200.95 250.61,197.19 253.26,195.87 C249.89,194.79 247.50,194.53 244.01,195.37 C236.29,197.24 228.34,199.88 219.05,203.58 C212.09,206.51 201.69,210.95 198.23,212.46 C198.65,212.38 218.53,206.45 225.25,205.30 C233.55,203.90 239.39,203.35 242.21,203.15 C242.51,202.28 225.30,203.06 218.85,204.37 C211.70,205.83 204.74,208.61 199.11,211.39 C200.08,212.17 204.37,210.98 208.40,209.73 C214.33,207.79 228.21,202.17 237.14,198.19 C245.69,194.32 246.73,193.55 248.27,192.18 C246.18,192.32 242.29,193.34 239.24,194.66 C236.44,195.90 230.16,199.66 227.46,201.52 C224.82,203.35 215.03,211.72 214.00,212.61" fill="none" stroke="rgb(0, 255, 0)" stroke-width="3.39" stroke-opacity="1.00" stroke-linejoin="round"/>
<path d="M231.82,216.76 C221.21,220.61 219.04,221.48 216.89,222.86 C215.63,223.67 214.70,224.78 213.49,226.76 C213.49,226.76 215.13,227.53 215.13,227.53 C218.33,226.43 222.33,224.46 226.19,221.36 C227.45,220.34 230.95,217.30 232.66,215.80 C234.68,214.04 235.29,213.22 235.46,212.30 C223.09,214.66 212.17,224.46 211.30,225.29 C211.30,225.29 211.22,227.12 211.22,227.12 C214.91,228.21 220.48,227.78 223.59,227.16 C227.65,226.30 230.29,224.77 230.90,223.91 C230.03,222.78 224.26,223.00 221.75,223.74 C221.19,223.91 218.58,225.04 217.94,225.51 C216.24,226.85 214.70,229.24 214.85,230.72 C215.04,232.18 216.99,234.71 218.45,235.55 C220.85,236.84 222.94,236.53 223.31,236.23 C223.31,236.23 218.21,231.81 218.21,231.81 C218.21,231.81 223.40,238.01 223.40,238.01 C223.40,238.01 220.13,237.01 220.13,237.01 C220.94,235.20 231.64,226.60 237.39,221.97 C261.72,202.45 262.48,201.75 263.37,200.75 C263.37,200.75 222.16,230.21 222.16,230.21 C222.16,230.21 253.92,205.23 253.92,205.23 C248.04,208.62 240.13,214.64 231.87,222.05 C225.24,228.20 222.36,231.55 221.41,232.71 C221.41,232.71 251.45,207.96 251.45,207.96 C248.89,208.30 244.93,210.09 240.76,213.45 C235.42,217.81 230.77,222.75 224.93,230.43 C224.93,230.43 230.03,231.02 230.03,231.02" fill="none" stroke="rgb(0, 255, 0)" stroke-width="3.39" stroke-opacity="1.00" stroke-linejoin="round"/>
<path d="M238.35,220.92 C238.35,220.92 238.95,220.92 238.95,220.92 C238.40,221.75 233.10,226.83 231.03,229.58 C228.82,232.58 226.76,237.19 225.99,239.09 C225.99,239.09 226.47,240.09 226.47,240.09 C226.42,240.32 234.94,230.43 242.81,222.53 C250.56,215.05 257.35,209.23 264.17,204.28 C269.92,200.22 282.47,191.56 288.11,188.50 C291.14,186.87 296.47,184.59 297.40,183.99 C294.38,182.99 259.57,193.22 256.56,194.81 C259.73,195.14 263.67,194.81 267.55,193.74 C285.28,188.67 294.19,184.43 295.61,183.34 C284.49,183.33 261.48,188.13 255.12,190.45 C249.89,192.45 245.89,194.11 242.80,197.12 C244.73,198.21 245.93,198.54 247.73,198.30 C255.25,197.31 262.38,195.32 273.15,191.36 C275.88,190.35 281.65,187.71 282.15,186.51 C276.17,187.06 263.49,190.91 256.27,193.76 C249.56,196.42 222.55,209.27 214.89,213.69 C215.92,214.66 217.18,214.99 219.75,214.87 C226.49,214.55 234.15,213.29 239.23,211.45 C241.56,210.60 244.82,209.08 247.46,207.70 C249.42,206.66 250.54,205.55 251.56,203.75 C249.59,202.72 247.96,202.33 245.36,202.39 C239.64,202.53 229.34,204.94 221.92,208.11 C214.14,211.55 201.87,218.62 200.90,220.00 C200.64,220.38 200.55,221.05 200.61,222.02 C200.61,222.02 211.03,219.14 211.03,219.14" fill="none" stroke="rgb(0, 255, 0)" stroke-width="3.39" stroke-opacity="1.00" stroke-linejoin="round"/>
<path d="M293.00,182.91 C293.00,182.91 293.59,180.13 293.59,180.13 C297.44,178.76 313.09,176.74 321.09,175.91 C324.22,175.62 330.91,175.21 330.90,175.21 C330.90,175.21 299.68,180.14 299.68,180.14 C300.18,181.75 327.18,175.70 330.02,174.87 C330.02,174.87 295.82,184.03 295.82,184.03 C297.91,184.44 302.87,183.98 308.36,183.03 C312.37,182.27 321.91,180.41 322.20,180.34 C322.71,180.21 323.87,179.87 325.67,179.34" fill="none" stroke="rgb(0, 255, 0)" stroke-width="3.39" stroke-opacity="1.00" stroke-linejoin="round"/>
<path d="M337.55,178.75 C337.55,178.75 332.90,183.40 332.90,183.40 C333.08,181.98 333.86,181.47 336.17,181.57 C340.44,181.78 343.02,182.25 348.14,183.67 C349.89,184.16 358.92,186.38 361.94,187.43 C367.90,189.53 376.27,193.96 385.48,199.25 C390.92,202.41 401.18,210.20 405.03,214.29 C411.26,220.96 417.74,229.90 419.25,230.65 C416.12,226.21 408.75,215.83 404.89,211.66 C399.84,206.25 393.87,202.13 384.61,197.27 C377.63,193.68 369.47,190.44 360.77,186.60 C355.32,184.09 350.93,181.63 349.44,180.23 C349.44,180.23 394.75,196.99 394.75,196.99 C387.87,194.81 375.29,190.33 367.94,187.65 C359.62,184.64 346.05,181.72 340.64,182.17 C337.65,182.44 333.44,183.97 331.80,184.61 C333.26,182.98 334.28,182.29 335.69,182.25 C340.39,182.11 355.59,183.06 360.75,184.01 C366.70,185.12 377.36,188.97 382.51,191.84 C385.25,193.39 391.37,196.79 394.75,198.64 C390.81,197.40 374.52,190.01 367.00,186.67 C351.19,179.92 341.91,177.98 340.05,177.70 C340.18,178.02 355.54,179.64 362.50,180.33 C373.88,181.50 383.65,182.88 391.31,184.90 C395.75,186.10 410.57,192.71 412.83,195.12 C405.35,193.50 393.83,191.03 384.04,187.98 C361.46,180.93 354.79,180.22 353.69,180.18 C356.56,181.54 372.54,183.31 378.92,184.15 C386.36,185.24 400.05,188.14 405.54,189.89 C417.73,193.83 432.15,202.38 432.15,202.85 C425.93,201.52 413.76,198.86 405.62,196.53 C386.19,190.53 378.80,187.22 378.36,186.93 C389.07,189.64 414.33,199.35 427.77,206.26 C431.14,208.04 434.10,209.98 436.95,212.11 C436.19,213.55 420.02,209.34 414.39,206.66 C408.86,204.00 396.22,195.24 393.12,192.00 C396.26,193.41 413.18,204.04 416.77,206.57 C421.52,209.93 433.75,219.94 434.92,221.79 C431.74,222.27 419.63,218.91 414.23,216.09 C405.57,211.51 393.96,201.47 393.28,200.87 C398.42,203.66 421.12,223.83 427.47,229.59 C424.07,228.35 420.40,226.38 417.61,224.11 C413.12,220.37 394.68,197.78 392.30,195.54 C394.12,197.56 406.44,209.81 411.63,215.49 C417.94,222.60 421.93,227.50 426.04,233.18 C424.58,232.99 415.86,221.69 413.49,217.36 C411.53,213.76 404.24,196.81 403.87,194.98 C416.36,213.54 429.51,229.96 431.17,230.25 C431.17,230.25 409.82,204.94 409.82,204.94 C415.51,209.40 428.53,219.38 434.15,222.83 C439.96,226.29 441.25,226.75 443.18,227.08 C443.35,225.71 440.62,222.35 438.43,220.04 C429.51,210.69 418.03,203.04 414.97,201.73 C418.84,206.03 444.88,219.54 450.65,221.71 C453.84,222.89 454.87,222.71 455.53,222.21 C455.53,222.21 423.51,202.34 423.51,202.34 C423.51,202.34 462.11,222.05 462.11,222.05 C459.88,219.95 443.81,209.29 441.26,207.79 C438.83,206.37 429.59,202.39 427.88,202.36 C431.01,204.74 447.53,211.87 455.14,215.12 C458.78,216.73 464.42,219.23 464.72,219.53 C464.72,219.53 429.94,201.90 429.94,201.90 C429.94,201.90 465.81,219.37 465.81,219.37 C465.81,219.37 439.71,206.31 439.71,206.31 C441.35,207.84 444.83,209.74 450.38,212.24 C463.40,217.92 471.00,221.75 471.47,223.26 C470.53,222.71 467.93,221.20 467.17,220.78 C466.68,220.51 465.65,219.96 464.08,219.14" fill="none" stroke="rgb(0, 255, 0)" stroke-width="3.39" stroke-opacity="1.00" stroke-linejoin="round"/>
<path d="M471.80,217.95 C471.80,217.95 471.80,218.25 471.80,218.25 C471.80,218.25 471.20,219.14 471.20,219.14 C470.13,219.05 465.28,215.13 463.81,214.09 C460.46,211.70 455.30,209.22 451.36,207.73 C441.48,204.00 437.37,202.91 436.09,202.69 C436.71,203.07 449.52,208.48 455.17,211.67 C456.59,212.47 457.70,213.34 459.65,215.11 C459.65,215.11 429.61,199.89 429.61,199.89 C429.61,199.89 437.00,204.58 437.00,204.58 C437.05,204.59 424.59,199.17 413.98,195.25 C401.24,190.83 400.00,190.57 398.24,190.43 C400.17,192.51 405.64,195.84 408.28,197.14 C411.70,198.80 417.43,201.01 420.71,201.80 C424.16,202.61 426.19,202.48 428.21,202.14 C427.81,200.97 427.29,200.30 425.99,199.64 C421.45,197.31 406.15,190.79 398.61,188.82 C393.69,187.56 389.37,187.00 387.01,187.25 C387.01,187.25 386.47,189.11 386.47,189.11 C388.87,191.03 392.89,193.34 396.81,194.92 C402.86,197.32 411.97,199.57 414.98,199.39 C413.53,197.48 399.08,192.58 392.32,191.47 C390.75,191.21 389.82,191.54 388.75,192.52 C391.22,195.48 404.88,203.34 412.21,206.50 C421.01,210.15 424.15,211.17 429.33,212.28 C429.05,212.04 413.56,205.30 407.28,202.50 C399.11,199.01 394.55,198.40 392.12,198.25 C392.54,199.45 397.20,202.06 400.23,203.75 C407.26,207.59 418.24,213.51 422.72,215.39 C421.12,213.72 413.51,208.56 412.75,208.08 C410.35,206.56 408.72,205.96 407.45,206.02 C407.45,206.02 410.61,213.20 410.61,213.20" fill="none" stroke="rgb(0, 255, 0)" stroke-width="3.39" stroke-opacity="1.00" stroke-linejoin="round"/>
<path d="M409.43,198.94 C409.43,198.94 406.75,201.76 406.75,201.76 C407.01,203.53 408.14,205.34 410.12,206.84 C410.56,207.16 413.34,208.49 413.88,208.64 C416.33,209.25 419.43,209.02 420.76,207.90 C421.90,206.87 422.75,204.01 422.41,202.68 C422.05,201.43 420.78,200.28 419.37,199.58 C419.37,199.58 417.60,200.17 417.60,200.17 C416.62,202.28 416.20,203.62 416.28,204.84 C416.38,206.13 416.70,207.46 417.31,209.00 C417.84,210.20 420.14,212.55 421.67,213.09 C423.02,213.53 426.17,213.18 427.48,212.74 C430.24,211.67 432.66,209.68 432.89,209.12 C431.07,210.40 424.92,216.34 424.40,216.90 C422.65,218.78 421.81,220.25 421.69,221.46 C423.09,221.87 424.15,221.89 425.59,221.38 C430.59,219.60 436.04,216.18 438.12,214.42 C433.83,215.87 428.94,220.79 427.67,222.34 C429.53,223.83 430.72,224.28 432.16,223.78 C439.70,221.16 442.30,219.67 443.15,218.95 C437.05,219.95 430.90,225.27 430.19,225.99 C430.19,225.99 444.63,220.06 444.63,220.06 C438.64,221.26 432.57,225.94 431.15,227.33 C432.90,228.38 434.14,228.57 435.87,227.78 C442.79,224.60 447.49,221.19 448.55,220.40 C444.04,221.20 434.76,226.49 434.08,227.61 C436.05,227.50 439.95,225.90 443.39,224.19 C448.94,221.39 450.24,220.63 452.23,219.37 C452.23,219.37 435.97,227.64 435.97,227.64 C436.05,227.70 442.42,224.92 444.35,223.99 C446.35,223.02 451.59,220.19 452.62,218.68 C452.00,217.91 450.79,217.54 447.90,217.44 C443.39,217.28 439.05,217.42 437.97,217.47 C438.48,218.82 439.51,219.63 442.03,220.43 C444.56,221.22 446.02,221.51 447.61,221.61 C447.67,219.73 446.81,218.31 444.09,216.34 C443.05,215.59 442.02,214.85 440.99,214.10 C440.89,214.21 447.45,218.11 450.91,220.17 C451.34,220.42 451.77,220.67 452.20,220.92" fill="none" stroke="rgb(0, 255, 0)" stroke-width="3.39" stroke-opacity="1.00" stroke-linejoin="round"/>
<path d="M323.89,215.58 C322.69,215.96 320.67,216.68 319.73,217.06 C319.48,217.16 319.28,217.26 319.14,217.36 C319.64,216.96 324.60,222.21 326.03,222.71 C326.38,222.83 326.99,222.89 327.87,222.89 C327.72,220.60 326.63,219.07 324.10,217.94 C321.91,216.98 316.59,215.98 314.28,216.35 C314.28,216.35 326.27,214.39 326.27,214.39" fill="none" stroke="rgb(0, 255, 0)" stroke-width="3.39" stroke-opacity="1.00" stroke-linejoin="round"/>
<path d="M235.97,200.13 C235.81,200.93 235.36,202.21 234.79,203.25 C234.67,203.47 232.53,206.83 232.26,207.19 C230.44,209.57 227.45,211.84 224.74,213.29 C217.15,217.26 211.05,219.64 209.24,220.33" fill="none" stroke="rgb(0, 255, 0)" stroke-width="3.39" stroke-opacity="1.00" stroke-linejoin="round"/>
<path d="M335.77,233.99 C335.83,233.57 335.83,233.27 335.77,233.10 C335.71,232.92 335.51,232.63 335.18,232.21 C336.05,236.19 336.28,254.03 336.33,262.29 C336.40,275.19 336.29,280.60 335.41,287.73 C334.54,294.04 330.57,336.07 330.02,339.71 C330.02,339.71 330.95,336.97 330.95,336.97" fill="none" stroke="rgb(0, 255, 0)" stroke-width="3.39" stroke-opacity="1.00" stroke-linejoin="round"/>
<path d="M326.27,353.98 C325.87,353.56 325.62,353.26 325.50,353.09 C325.38,352.92 325.24,352.62 325.08,352.20 C325.21,356.03 326.16,359.25 327.63,359.44 C329.20,359.53 331.84,357.46 332.72,355.26 C333.60,352.91 333.71,349.36 333.21,346.37 C333.21,346.37 332.80,346.85 332.80,346.85" fill="none" stroke="rgb(0, 255, 0)" stroke-width="3.39" stroke-opacity="1.00" stroke-linejoin="round"/>
<path d="M333.39,340.32 C333.39,340.32 333.39,341.43 333.39,341.43 C334.45,334.49 336.76,318.09 337.29,312.63 C337.53,310.07 340.30,263.94 340.75,259.08 C341.77,248.54 342.28,241.33 341.30,237.29 C341.04,236.19 340.78,235.09 340.52,233.99" fill="none" stroke="rgb(0, 255, 0)" stroke-width="3.39" stroke-opacity="1.00" stroke-linejoin="round"/>
</g>
</svg>
