<?xml version="1.0" encoding="UTF-8" standalone="no"?>
<!DOCTYPE svg PUBLIC "-//W3C//DTD SVG 1.1//EN" "http://www.w3.org/Graphics/SVG/1.1/DTD/svg11.dtd">
<svg width="128.40" height="181.68" viewBox="0.00 0.00 535.00 757.00" xmlns="http://www.w3.org/2000/svg" xmlns:xlink="http://www.w3.org/1999/xlink">
<g stroke-linecap="round" transform="translate(44.00, 155.00)" id="168-구름-1">
<path d="M39.97,-83.80 C39.48,-84.70 38.80,-85.39 38.61,-85.67 C38.17,-86.28 37.34,-89.71 36.95,-90.85 C36.55,-92.02 31.95,-97.92 29.64,-100.45 C26.50,-103.85 22.37,-107.20 19.41,-108.16 C17.56,-108.73 11.40,-109.70 7.40,-109.89 C2.11,-110.11 -3.38,-109.77 -6.27,-108.87 C-9.86,-107.69 -14.13,-105.26 -16.31,-102.90 C-18.42,-100.55 -21.48,-95.23 -22.67,-92.23 C-23.65,-89.68 -24.93,-83.76 -25.15,-81.14 C-25.34,-78.71 -25.03,-72.15 -24.03,-68.60 C-22.97,-64.99 -18.80,-58.32 -16.12,-55.89 C-13.37,-53.47 -6.91,-50.47 -3.89,-49.67 C1.47,-48.32 13.81,-48.42 18.75,-49.50 C24.80,-50.86 33.41,-55.87 36.10,-58.26 C36.86,-58.95 39.20,-61.21 40.16,-62.13 C40.60,-62.56 41.04,-62.98 41.48,-63.40" fill="none" stroke="rgb(255, 0, 255)" stroke-width="3.39" stroke-opacity="1.00" stroke-linejoin="round"/>
<path d="M42.24,-55.09 C42.24,-55.09 38.70,-57.46 38.70,-57.46 C39.26,-57.92 40.00,-57.71 41.00,-56.52 C45.50,-50.97 55.40,-38.55 57.19,-36.49 C60.25,-33.03 73.00,-24.41 78.96,-20.40 C81.62,-18.62 84.55,-17.08 86.99,-16.39 C90.69,-15.40 107.60,-16.22 113.58,-17.19 C116.29,-17.64 125.22,-19.58 127.66,-20.77 C129.14,-21.52 135.54,-27.42 137.20,-29.53 C138.82,-31.62 142.35,-37.74 142.71,-38.25 C142.99,-38.63 143.49,-39.21 144.23,-39.98" fill="none" stroke="rgb(255, 0, 255)" stroke-width="3.39" stroke-opacity="1.00" stroke-linejoin="round"/>
<path d="M147.25,-39.98 C147.25,-39.98 145.74,-39.75 145.74,-39.75 C145.89,-37.81 146.29,-36.15 147.07,-34.97 C151.03,-29.08 159.16,-22.41 162.65,-20.56 C165.18,-19.28 170.01,-18.97 176.33,-19.27 C180.49,-19.51 183.67,-20.12 186.45,-21.07 C189.02,-21.98 193.83,-24.89 195.90,-26.98 C198.13,-29.28 201.30,-34.44 202.40,-36.78 C205.13,-42.65 208.28,-55.16 208.87,-62.14 C209.13,-65.43 209.11,-71.97 208.90,-74.05 C208.49,-77.94 206.69,-85.18 205.45,-88.08 C204.18,-90.99 200.48,-96.15 198.24,-98.22 C195.88,-100.34 190.95,-103.05 188.07,-103.76 C185.22,-104.42 179.15,-104.40 175.63,-103.76 C172.50,-103.16 165.43,-100.87 162.94,-99.58 C160.45,-98.26 155.32,-94.24 153.15,-91.57 C152.30,-90.51 147.72,-83.97 146.64,-82.97 C145.67,-87.33 144.49,-91.19 143.02,-93.75 C141.15,-96.92 137.31,-101.31 134.17,-103.97 C131.98,-105.80 126.64,-109.29 123.96,-110.82 C121.05,-112.47 115.42,-114.61 111.85,-115.55 C108.59,-116.39 101.66,-117.60 98.29,-117.75 C95.92,-117.84 88.04,-117.34 85.13,-116.41 C81.43,-115.18 69.86,-106.55 64.46,-103.00 C62.28,-101.52 57.57,-97.46 54.96,-94.41 C49.87,-88.44 45.55,-81.99 44.55,-80.34 C44.55,-80.34 46.01,-82.29 46.01,-82.29" fill="none" stroke="rgb(255, 0, 255)" stroke-width="3.39" stroke-opacity="1.00" stroke-linejoin="round"/>
<path d="M46.77,-80.78 C46.77,-80.78 46.01,-81.53 46.01,-81.53 C45.92,-81.47 41.72,-83.38 40.65,-84.92 C40.17,-85.61 39.47,-89.31 39.22,-90.60" fill="none" stroke="rgb(255, 0, 255)" stroke-width="3.39" stroke-opacity="1.00" stroke-linejoin="round"/>
<path d="M11.26,-101.18 C11.26,-101.18 11.26,-105.33 11.26,-105.33 C10.93,-105.47 2.49,-101.76 -1.11,-100.79 C-9.27,-98.66 -15.30,-96.51 -16.19,-96.20 C-16.19,-96.20 20.58,-99.94 20.58,-99.94 C17.45,-101.47 13.35,-102.69 9.54,-102.84 C5.75,-102.94 -0.60,-102.04 -4.56,-100.89 C-8.29,-99.77 -11.71,-97.87 -14.35,-95.80 C-14.35,-95.80 -14.81,-92.91 -14.81,-92.91 C-12.34,-91.70 -8.21,-90.76 -3.83,-90.54 C16.71,-89.64 23.21,-92.32 24.80,-93.33 C21.69,-94.48 14.09,-94.30 10.55,-93.99 C3.41,-93.33 -9.64,-90.90 -15.08,-89.42 C-20.33,-87.91 -21.32,-86.97 -21.92,-85.47 C-18.10,-84.39 -0.85,-84.65 6.61,-84.97 C23.72,-85.89 37.36,-86.10 40.49,-85.74 C38.60,-84.51 35.13,-83.43 31.49,-83.19 C23.75,-82.84 8.73,-82.24 1.46,-81.98 C-7.92,-81.59 -15.70,-80.19 -18.56,-79.66 C-17.03,-78.21 -13.42,-77.01 -8.36,-76.52 C3.49,-75.45 34.23,-75.96 47.13,-76.25 C36.88,-76.78 26.42,-76.80 17.75,-75.94 C0.20,-74.04 -14.42,-70.75 -18.95,-69.71 C-4.73,-68.61 49.14,-69.10 53.79,-69.36 C52.23,-69.90 35.36,-70.07 28.17,-70.11 C15.18,-69.94 -6.94,-66.70 -16.45,-64.28 C-13.82,-62.73 -7.80,-61.53 -4.46,-60.90 C2.17,-59.74 21.53,-59.04 25.30,-59.10 C32.62,-59.25 43.82,-61.04 45.82,-62.24 C41.45,-63.42 24.52,-62.88 18.05,-61.92 C14.72,-61.41 9.01,-60.27 5.00,-59.26 C1.65,-58.40 -5.17,-56.32 -7.31,-54.50 C-3.68,-53.31 3.08,-52.73 7.09,-52.37 C12.98,-51.91 18.78,-51.61 21.17,-51.83 C25.11,-52.26 26.11,-52.86 27.29,-54.09 C26.37,-55.59 25.51,-56.45 24.12,-57.02 C21.44,-58.09 15.12,-59.06 11.62,-58.82 C8.89,-58.61 3.40,-57.57 0.35,-55.85 C4.02,-54.27 8.20,-53.36 11.57,-53.61 C17.75,-54.20 28.55,-55.32 33.17,-55.85" fill="none" stroke="rgb(255, 0, 255)" stroke-width="3.39" stroke-opacity="1.00" stroke-linejoin="round"/>
<path d="M21.08,-66.42 C21.08,-66.42 21.46,-66.05 21.46,-66.05 C22.23,-65.71 23.73,-66.12 25.81,-67.37 C26.43,-67.74 35.94,-74.42 36.68,-75.68 C36.88,-76.03 36.98,-76.60 36.98,-77.41 C33.13,-81.83 28.30,-93.21 27.14,-94.56 C26.19,-95.61 23.88,-96.05 22.39,-95.68 C21.01,-95.29 19.80,-94.48 19.02,-93.62 C19.08,-92.69 19.58,-91.91 20.89,-91.03 C23.14,-89.53 26.37,-88.56 27.77,-88.20 C28.67,-90.10 28.44,-91.79 26.83,-93.86 C23.41,-98.21 15.15,-105.19 13.65,-105.92 C11.85,-106.76 7.43,-105.75 1.90,-104.63 C-3.38,-103.54 -8.37,-102.25 -10.85,-101.20 C-13.70,-99.97 -17.65,-97.44 -18.81,-95.77 C-20.17,-93.71 -21.87,-87.09 -21.98,-82.79 C-22.01,-81.27 -21.26,-72.95 -20.92,-71.55 C-20.59,-70.31 -17.83,-63.97 -16.47,-62.15 C-15.19,-60.45 -10.78,-56.45 -7.09,-52.99 C-6.51,-52.43 -5.94,-51.87 -5.36,-51.31" fill="none" stroke="rgb(255, 0, 255)" stroke-width="3.39" stroke-opacity="1.00" stroke-linejoin="round"/>
<path d="M45.26,-82.29 C45.26,-82.29 39.59,-82.92 39.59,-82.92 C47.28,-80.00 55.70,-78.15 63.43,-77.61 C69.03,-77.23 84.21,-77.24 91.35,-77.49 C98.37,-77.87 112.00,-78.96 120.81,-80.25 C129.52,-81.62 132.51,-82.84 134.79,-83.86 C134.79,-83.86 134.98,-86.19 134.98,-86.19 C132.14,-87.79 127.83,-89.54 124.14,-90.43 C118.58,-91.75 104.61,-92.80 97.88,-92.61 C86.23,-92.24 64.99,-88.12 55.08,-85.72 C51.98,-84.93 48.35,-83.04 46.71,-82.23 C52.34,-81.00 61.66,-81.00 71.67,-81.39 C77.86,-81.71 93.02,-83.61 99.78,-84.70 C119.68,-88.33 127.69,-91.06 130.32,-92.05 C130.32,-92.05 130.63,-93.81 130.63,-93.81 C122.53,-95.38 113.61,-96.30 103.59,-96.54 C88.38,-96.63 55.24,-94.21 47.40,-92.87 C56.82,-92.20 65.31,-92.08 76.23,-92.51 C94.16,-93.52 112.45,-95.43 119.72,-96.28 C122.15,-96.58 126.31,-97.18 128.62,-98.85 C121.75,-102.23 114.08,-104.88 106.27,-106.76 C99.67,-108.27 86.63,-109.82 79.48,-109.34 C76.60,-109.10 70.14,-108.51 68.55,-107.84 C67.58,-107.43 64.01,-105.66 62.67,-104.98 C62.73,-103.89 63.44,-102.18 64.46,-101.28 C67.59,-98.61 85.57,-95.20 90.96,-94.93 C97.64,-94.63 111.06,-96.05 113.69,-97.56 C114.41,-97.99 116.22,-99.42 117.44,-100.45 C116.95,-102.85 116.30,-104.18 114.88,-105.07 C112.36,-106.65 106.11,-109.44 103.31,-110.29 C100.61,-111.10 92.22,-112.79 89.86,-112.88 C88.55,-112.91 83.01,-112.48 79.88,-111.59 C76.09,-110.48 74.43,-107.99 73.91,-106.87 C76.38,-103.99 78.77,-102.29 81.94,-101.75 C86.15,-101.11 90.31,-100.84 94.54,-100.93 C100.15,-101.10 112.84,-104.23 115.81,-105.75 C117.31,-106.53 118.06,-107.88 118.63,-110.10 C116.93,-111.56 113.42,-113.06 110.08,-113.56 C104.33,-114.37 92.44,-113.39 88.39,-111.96 C87.44,-111.60 83.13,-109.71 82.55,-108.96 C82.19,-108.49 81.68,-107.34 81.01,-105.49 C84.39,-103.17 86.87,-101.81 90.20,-101.66 C99.02,-101.49 110.44,-102.31 116.68,-104.73 C117.24,-104.95 118.08,-105.31 119.23,-105.83 C117.34,-108.14 116.09,-109.17 114.45,-109.49 C106.26,-111.02 98.97,-111.18 95.31,-110.25 C95.31,-110.25 94.48,-108.45 94.48,-108.45 C96.31,-106.87 100.08,-105.02 104.43,-103.71 C111.40,-101.66 120.49,-100.20 128.92,-99.16 C128.92,-99.16 116.21,-107.21 116.21,-107.21 C118.62,-105.59 136.74,-95.03 139.10,-93.50 C142.66,-91.18 144.90,-89.15 145.50,-88.62 C142.46,-88.09 140.89,-88.00 139.85,-88.48 C134.17,-91.16 129.62,-94.53 128.26,-95.70 C128.26,-95.70 143.90,-83.48 143.90,-83.48 C142.04,-86.10 136.61,-93.68 135.88,-94.61 C133.54,-97.56 128.48,-101.55 126.88,-102.46 C124.47,-103.79 118.76,-105.47 115.64,-105.86 C112.37,-106.22 100.81,-104.49 99.20,-104.95 C98.28,-105.22 91.19,-107.84 88.70,-107.71 C86.06,-107.51 81.02,-105.86 77.90,-104.24 C74.89,-102.64 68.64,-98.29 65.12,-95.56 C61.99,-93.10 59.03,-88.17 58.20,-86.67 C56.91,-84.34 54.77,-79.92 54.15,-78.66" fill="none" stroke="rgb(255, 0, 255)" stroke-width="3.39" stroke-opacity="1.00" stroke-linejoin="round"/>
<path d="M84.55,-107.22 C81.87,-107.12 75.70,-108.72 75.31,-108.74 C72.75,-108.79 66.61,-106.88 64.11,-105.29 C61.71,-103.74 56.00,-99.38 54.14,-97.73 C51.59,-95.43 48.98,-91.08 47.92,-88.51 C47.33,-87.02 45.45,-79.48 45.71,-77.70 C45.88,-76.63 47.01,-75.12 47.88,-74.30" fill="none" stroke="rgb(255, 0, 255)" stroke-width="3.39" stroke-opacity="1.00" stroke-linejoin="round"/>
<path d="M89.83,-81.53 C87.14,-81.53 79.51,-81.51 76.80,-81.41 C72.52,-81.24 66.79,-80.22 62.61,-78.70 C59.80,-77.66 50.52,-73.52 49.55,-72.98 C48.37,-72.30 45.78,-69.47 45.12,-68.73 C47.67,-66.97 49.00,-66.25 50.23,-66.08 C58.21,-64.96 64.34,-64.65 77.10,-64.39 C105.79,-64.05 119.87,-64.82 125.02,-65.44 C126.34,-65.60 127.67,-66.20 130.00,-67.56 C126.04,-69.27 116.43,-70.55 105.26,-71.44 C97.36,-71.92 85.26,-72.27 76.72,-71.99 C61.43,-71.12 42.62,-70.03 36.82,-69.38 C42.40,-68.08 76.70,-66.23 91.40,-65.90 C99.02,-65.83 114.31,-65.83 121.99,-65.91 C138.41,-66.25 149.44,-67.97 150.84,-68.19 C147.82,-69.27 143.71,-69.59 140.79,-69.77 C121.52,-70.81 95.85,-70.72 78.62,-70.57 C62.31,-70.37 43.50,-70.15 40.79,-69.95 C43.33,-68.11 47.69,-66.88 51.86,-65.82 C59.96,-63.78 67.71,-62.54 78.00,-61.18 C88.03,-60.07 100.42,-59.36 107.82,-59.16 C125.67,-59.01 140.69,-60.31 149.52,-61.58 C140.98,-62.54 109.68,-62.57 93.01,-62.51 C78.16,-62.34 54.73,-61.75 46.14,-61.32 C47.59,-60.06 48.70,-59.45 50.80,-58.92 C60.98,-56.35 67.65,-55.44 79.93,-54.40 C108.70,-52.20 118.63,-52.19 121.18,-52.21 C112.72,-54.07 105.25,-55.39 95.92,-56.44 C89.14,-57.15 72.52,-57.65 64.80,-57.80 C54.54,-57.90 50.51,-57.42 44.79,-56.53 C46.44,-54.62 47.62,-53.69 49.71,-52.88 C57.71,-49.75 70.89,-46.32 76.79,-45.50 C83.21,-44.63 95.16,-44.07 102.59,-44.27 C119.18,-44.84 132.12,-48.47 135.61,-50.12 C135.61,-50.12 134.60,-52.19 134.60,-52.19 C128.67,-53.70 117.43,-54.22 107.15,-54.19 C91.08,-53.72 62.14,-50.15 59.93,-48.67 C59.22,-48.19 57.93,-46.58 57.10,-45.40 C60.39,-43.24 65.58,-41.25 69.29,-40.20 C76.35,-38.22 89.20,-36.50 97.64,-35.93 C105.62,-35.41 123.05,-35.95 130.20,-36.71 C139.73,-37.81 142.52,-38.72 144.55,-39.48 C142.94,-40.99 141.97,-41.63 140.70,-41.82 C132.04,-43.18 121.68,-44.14 114.23,-44.29 C98.12,-44.58 78.89,-41.93 73.13,-40.25 C71.62,-39.81 70.22,-39.01 68.13,-37.55 C68.76,-36.00 69.82,-33.77 70.46,-33.02 C71.49,-31.83 78.96,-29.00 81.46,-28.33 C86.47,-27.03 99.31,-26.44 106.91,-27.07 C115.88,-27.85 141.16,-34.15 148.13,-36.39 C145.68,-37.58 140.91,-38.41 135.60,-38.73 C131.37,-38.94 111.79,-39.13 104.72,-38.97 C97.73,-38.75 82.48,-36.54 81.15,-35.19 C80.47,-34.48 79.28,-32.12 78.56,-30.43 C80.05,-28.08 81.11,-26.78 82.46,-25.86 C85.02,-24.12 90.73,-21.53 94.19,-20.73 C97.61,-19.98 104.89,-19.52 108.50,-19.84 C111.85,-20.17 118.81,-21.86 120.40,-22.47 C122.47,-23.31 126.22,-26.36 127.90,-27.79 C127.90,-27.79 128.14,-30.95 128.14,-30.95 C126.22,-32.54 122.16,-33.92 117.13,-34.43 C112.41,-34.88 99.62,-32.97 94.29,-30.80 C93.01,-30.27 86.81,-27.19 85.90,-26.15 C85.26,-25.40 83.89,-23.11 83.00,-21.51 C86.15,-18.74 89.09,-17.24 92.69,-17.11 C100.98,-16.93 114.61,-18.79 119.74,-20.25 C122.84,-21.15 127.09,-23.06 127.98,-23.46 C127.98,-23.46 128.04,-25.18 128.04,-25.18 C124.68,-27.31 118.92,-29.23 115.71,-29.87 C111.81,-30.61 105.23,-30.37 102.19,-29.46 C100.54,-28.96 99.50,-27.65 98.27,-24.97 C100.70,-22.13 102.99,-20.44 105.69,-20.07 C108.92,-19.70 113.34,-19.72 115.94,-20.19 C121.01,-21.16 127.52,-25.03 129.18,-27.01 C130.24,-28.30 130.41,-29.46 130.01,-31.44 C127.39,-32.40 125.64,-32.70 123.72,-32.31 C120.26,-31.59 114.24,-28.97 111.51,-27.19 C110.12,-26.26 109.29,-25.05 108.36,-22.89 C111.16,-22.05 112.65,-21.85 114.32,-22.24 C120.82,-23.74 129.42,-27.41 132.08,-29.06 C133.53,-29.98 134.11,-31.03 134.38,-32.68 C132.28,-33.56 130.77,-33.85 128.80,-33.56 C124.50,-32.90 119.58,-31.14 115.27,-28.83 C102.75,-22.00 94.45,-17.88 90.05,-18.23 C87.53,-18.48 85.07,-21.07 81.76,-25.47 C79.09,-29.04 75.41,-32.99 72.02,-35.84 C69.76,-37.71 64.94,-40.65 60.06,-43.41 C55.00,-46.24 52.92,-47.30 51.74,-47.20 C52.10,-45.41 54.48,-42.36 59.09,-38.13 C62.58,-34.95 66.44,-31.97 69.66,-29.97 C71.25,-29.00 72.92,-28.39 75.76,-27.65 C75.84,-28.66 75.29,-30.53 74.28,-31.84 C73.27,-33.13 65.05,-39.18 63.08,-40.25 C62.25,-40.70 60.75,-40.78 57.81,-40.75 C57.81,-40.75 56.82,-37.85 56.82,-37.85 C59.88,-34.38 73.65,-24.55 80.63,-19.58 C82.00,-18.61 84.39,-16.92 85.41,-16.19" fill="none" stroke="rgb(255, 0, 255)" stroke-width="3.39" stroke-opacity="1.00" stroke-linejoin="round"/>
<path d="M141.96,-68.69 C139.19,-69.63 133.02,-71.76 130.25,-72.09 C126.79,-72.47 119.96,-71.38 117.98,-69.51 C117.22,-68.77 116.20,-66.95 115.63,-65.71 C117.37,-62.83 119.10,-61.26 122.02,-60.48 C126.59,-59.35 141.59,-58.38 147.34,-58.80 C154.17,-59.32 170.26,-62.11 174.71,-63.35 C184.53,-66.12 189.54,-69.16 191.70,-70.83 C190.03,-73.13 188.95,-74.09 187.57,-74.24 C185.89,-74.44 171.92,-75.89 162.34,-76.02 C128.68,-76.04 92.76,-76.05 89.46,-75.62 C90.87,-74.28 91.85,-73.67 93.40,-73.37 C98.92,-72.31 112.45,-70.51 121.40,-70.06 C128.65,-69.84 143.59,-69.87 151.18,-70.11 C166.64,-70.89 191.77,-74.10 192.77,-74.61 C193.24,-74.85 194.33,-75.54 196.05,-76.69 C188.81,-79.29 179.22,-80.50 168.96,-81.19 C154.75,-81.91 122.07,-81.56 104.26,-81.21 C78.36,-80.60 74.73,-80.08 73.46,-79.90 C77.54,-78.15 92.47,-75.84 99.59,-75.15 C111.66,-74.06 145.64,-73.95 157.69,-75.10 C174.16,-76.90 187.46,-79.08 188.74,-79.90 C181.46,-80.38 146.69,-80.73 141.60,-80.38 C136.41,-79.95 134.93,-79.19 134.09,-77.73 C137.57,-76.48 142.38,-75.56 146.97,-75.38 C152.92,-75.18 164.26,-75.96 170.41,-77.36 C176.03,-78.71 181.46,-80.18 183.28,-81.18 C184.32,-81.76 187.43,-83.67 188.63,-84.42 C188.63,-84.42 189.11,-86.72 189.11,-86.72 C186.52,-89.13 181.75,-91.07 178.79,-91.70 C172.58,-92.96 158.91,-92.32 156.01,-91.07 C155.08,-90.66 151.85,-88.81 150.65,-88.10 C150.65,-88.10 151.28,-84.25 151.28,-84.25 C154.70,-82.16 159.43,-81.06 162.15,-80.78 C165.16,-80.50 171.60,-80.78 174.95,-81.36 C178.74,-82.04 182.77,-83.40 185.46,-84.93 C189.00,-87.02 191.39,-89.80 192.02,-92.25 C192.02,-92.25 190.67,-95.59 190.67,-95.59 C187.80,-97.01 183.09,-97.88 179.15,-97.51 C173.08,-96.87 159.66,-92.01 157.89,-90.31 C157.21,-89.66 155.52,-87.44 154.39,-85.87 C155.58,-84.54 157.43,-82.69 158.32,-82.16 C159.67,-81.39 168.13,-81.18 170.07,-81.30 C173.68,-81.54 180.79,-82.99 184.09,-84.15 C186.08,-84.86 192.53,-87.92 193.41,-89.09 C193.95,-89.82 194.92,-91.97 195.51,-93.47 C192.54,-96.45 190.14,-97.75 187.22,-98.24 C184.82,-98.58 177.77,-98.57 175.12,-98.17 C172.52,-97.77 165.64,-95.65 163.24,-94.66 C160.06,-93.30 157.67,-91.63 154.23,-88.11 C154.23,-88.11 155.27,-84.81 155.27,-84.81 C160.21,-83.21 163.47,-82.57 166.85,-82.79 C172.22,-83.21 181.69,-86.00 184.19,-87.51 C185.41,-88.26 186.38,-89.74 187.58,-92.26 C187.10,-94.33 185.90,-95.98 183.97,-96.94 C182.37,-97.71 177.72,-97.38 175.55,-96.14 C173.59,-94.97 169.77,-90.06 169.42,-87.76 C169.25,-86.66 169.44,-84.05 169.65,-82.33 C170.72,-81.08 172.50,-79.38 173.55,-78.98 C174.74,-78.55 178.23,-78.96 179.88,-79.64 C183.21,-81.09 187.69,-85.91 188.73,-88.67 C189.44,-90.72 189.43,-95.67 188.31,-96.52 C186.81,-95.03 185.96,-91.09 186.12,-88.71 C186.33,-86.11 188.02,-81.48 189.52,-78.98 C191.62,-75.68 194.64,-74.26 196.66,-74.26 C197.70,-76.09 198.01,-77.25 197.64,-78.57 C196.38,-82.89 190.81,-91.14 189.82,-91.67 C190.38,-89.01 197.91,-78.78 199.75,-76.83 C199.75,-76.83 189.57,-95.38 189.57,-95.38 C192.22,-94.79 193.62,-94.22 194.63,-93.14 C196.49,-91.15 199.18,-87.69 200.22,-85.63 C201.11,-83.84 202.56,-78.73 202.47,-75.88 C202.40,-73.97 201.62,-72.27 200.56,-71.09 C199.27,-71.41 198.11,-72.83 197.37,-75.26 C197.15,-75.99 196.07,-83.89 196.24,-87.34 C196.51,-92.59 196.36,-94.78 194.99,-96.01 C193.36,-97.37 187.30,-98.76 183.52,-98.93 C178.92,-99.09 174.16,-98.83 171.86,-98.13 C171.77,-98.10 168.11,-96.76 167.39,-96.34 C165.18,-95.02 163.69,-93.24 163.04,-91.37 C163.04,-91.37 163.86,-89.27 163.86,-89.27 C165.63,-88.46 167.55,-88.16 169.55,-88.58 C173.33,-89.41 175.91,-90.87 177.02,-91.92 C174.33,-92.11 170.39,-91.10 167.18,-89.18 C164.47,-87.51 157.97,-82.43 156.18,-80.76 C152.49,-77.25 149.37,-70.21 149.32,-68.60 C149.29,-66.29 150.51,-63.59 152.20,-62.28 C153.38,-61.42 159.16,-60.47 162.18,-60.63 C168.66,-61.03 177.54,-63.64 186.99,-67.02 C190.16,-68.24 191.33,-69.28 193.43,-71.35 C191.32,-71.84 187.03,-71.68 181.82,-70.78 C174.21,-69.43 163.50,-66.35 153.49,-63.11 C145.53,-60.43 139.18,-57.15 137.22,-55.86 C137.22,-55.86 137.53,-52.62 137.53,-52.62 C142.57,-51.65 154.99,-52.10 160.94,-52.87 C166.43,-53.59 179.38,-56.27 186.38,-58.82 C191.12,-60.60 192.50,-61.77 192.93,-63.06 C186.50,-64.38 175.17,-64.19 166.88,-63.12 C159.49,-62.09 147.89,-59.59 137.71,-56.93 C116.25,-50.89 111.90,-47.42 110.67,-45.96 C115.19,-44.27 119.07,-43.39 124.19,-43.18 C132.55,-42.84 143.47,-42.99 150.39,-43.69 C164.70,-45.16 180.67,-49.71 183.46,-50.59 C185.03,-51.10 186.36,-52.12 188.49,-54.27 C180.51,-56.27 169.93,-56.92 160.85,-57.02 C148.39,-56.93 111.92,-53.70 99.13,-51.98 C85.99,-50.04 80.69,-48.98 77.56,-48.10 C80.63,-46.82 117.32,-44.47 132.27,-43.97 C139.94,-43.87 159.71,-45.07 160.98,-45.21 C167.21,-45.87 173.94,-48.17 175.58,-48.73 C173.94,-50.00 172.28,-50.62 169.43,-50.90 C159.89,-51.82 146.93,-51.89 140.20,-51.00 C137.96,-50.70 129.21,-49.22 126.98,-48.76 C125.78,-48.51 124.82,-47.43 123.18,-44.87 C126.28,-43.16 132.02,-41.89 134.09,-41.50 C137.58,-40.86 156.33,-40.69 162.96,-41.39 C172.15,-42.38 192.94,-47.99 194.07,-48.29 C188.63,-48.20 160.36,-44.09 155.61,-42.95 C153.35,-42.38 148.91,-39.98 147.71,-39.32 C147.71,-39.32 148.35,-36.03 148.35,-36.03 C151.54,-34.08 156.22,-32.62 158.93,-32.12 C162.09,-31.55 169.31,-31.32 173.01,-31.58 C176.52,-31.84 181.94,-32.93 185.00,-33.89 C189.11,-35.25 191.22,-36.74 193.27,-38.81 C192.49,-40.44 191.64,-41.30 190.03,-41.69 C187.19,-42.38 180.84,-42.95 178.16,-42.84 C175.65,-42.72 168.50,-41.65 166.18,-41.02 C163.19,-40.16 160.50,-38.79 156.39,-35.78 C156.39,-35.78 155.89,-32.49 155.89,-32.49 C157.97,-30.66 161.97,-29.14 166.06,-28.86 C169.31,-28.67 175.65,-29.19 178.22,-29.69 C182.39,-30.55 184.83,-31.69 187.18,-33.00 C184.95,-34.87 183.45,-35.64 181.55,-35.65 C177.97,-35.65 171.41,-34.98 168.86,-34.17 C166.36,-33.36 163.99,-31.38 163.06,-30.52 C163.06,-30.52 162.88,-27.20 162.88,-27.20 C163.94,-26.15 165.77,-24.63 166.92,-24.12 C169.56,-22.96 177.72,-22.78 181.15,-23.49 C184.43,-24.23 186.50,-25.51 188.53,-27.04 C188.53,-27.04 188.71,-29.04 188.71,-29.04 C186.42,-30.41 184.89,-31.05 183.07,-31.25 C179.85,-31.58 174.49,-31.47 171.24,-31.00 C169.71,-30.74 166.16,-29.53 165.33,-28.69 C164.93,-28.27 164.58,-27.40 164.29,-26.07 C166.21,-23.66 167.55,-22.42 169.20,-21.71 C171.68,-20.67 177.80,-19.24 180.80,-19.88 C182.53,-20.28 184.18,-22.41 184.46,-24.19 C184.66,-25.91 182.01,-30.89 179.49,-33.07 C177.06,-35.12 170.62,-38.30 167.23,-39.26 C164.33,-40.06 157.38,-40.79 155.47,-40.33 C154.56,-40.10 152.88,-39.22 151.83,-38.59 C151.24,-36.16 151.26,-34.79 152.14,-33.66 C153.74,-31.67 157.78,-28.52 160.45,-27.26 C163.00,-26.09 168.69,-24.56 171.38,-24.27 C173.66,-24.03 177.58,-24.12 180.91,-25.37 C180.91,-25.37 181.62,-27.25 181.62,-27.25 C179.70,-29.03 178.46,-29.88 176.55,-30.57 C171.04,-32.53 167.47,-33.40 165.05,-32.45 C165.15,-31.00 165.59,-30.10 166.84,-29.25 C169.23,-27.67 175.14,-25.48 178.24,-25.27 C181.36,-25.11 187.17,-26.72 189.57,-28.37 C191.86,-30.00 194.56,-34.17 195.08,-36.47 C195.46,-38.29 195.15,-43.27 193.95,-46.01 C193.16,-47.76 191.79,-49.00 190.25,-49.72 C190.25,-49.72 188.65,-48.66 188.65,-48.66 C188.34,-46.63 188.70,-43.85 189.85,-42.35 C190.22,-41.87 191.05,-41.14 192.34,-40.18 C194.75,-40.57 196.06,-41.13 196.83,-42.39 C198.21,-44.70 199.20,-50.25 198.86,-53.48 C198.53,-56.22 197.04,-61.48 196.07,-63.80 C195.54,-65.06 194.64,-65.81 192.87,-66.68 C191.35,-64.66 190.66,-63.17 190.51,-61.12 C190.26,-57.55 190.59,-51.20 191.04,-48.25 C191.28,-46.75 192.00,-45.48 193.54,-43.51 C195.92,-44.49 197.30,-45.58 198.33,-47.65 C200.08,-51.18 202.19,-57.55 202.75,-60.01 C203.28,-62.42 203.89,-68.63 203.63,-71.48 C203.33,-74.53 201.48,-77.35 200.65,-78.43 C200.65,-78.43 197.32,-77.40 197.32,-77.40 C195.53,-73.99 194.00,-69.65 193.80,-66.91 C193.56,-62.78 194.50,-47.69 195.31,-44.86 C195.41,-45.22 199.15,-66.01 200.21,-70.89 C200.59,-72.80 201.09,-74.03 202.37,-76.43 C202.37,-76.43 204.08,-76.08 204.08,-76.08 C205.19,-73.05 206.30,-67.42 206.16,-63.26 C205.97,-59.15 203.98,-52.96 202.08,-50.02 C200.17,-47.17 197.42,-45.28 194.60,-44.32 C194.60,-44.32 191.65,-45.95 191.65,-45.95 C191.10,-49.34 191.08,-53.47 192.44,-57.48 C193.06,-59.26 197.26,-69.30 198.48,-70.29 C198.82,-70.56 199.46,-70.76 200.39,-70.90 C201.84,-69.25 202.56,-68.07 202.88,-66.54 C203.45,-63.72 203.62,-57.97 203.14,-54.78 C202.65,-51.69 200.75,-45.92 199.46,-43.33 C196.30,-37.04 192.54,-34.34 191.35,-33.97 C192.88,-39.98 196.42,-43.01 197.65,-43.81 C199.38,-42.55 199.72,-40.99 198.74,-38.17 C198.00,-36.08 195.95,-32.15 193.88,-28.82 C192.16,-26.09 188.02,-21.32 184.97,-19.43 C184.96,-19.86 196.46,-30.74 199.38,-35.98 C200.74,-38.50 202.66,-44.35 203.22,-47.12 C204.88,-55.68 200.71,-80.71 199.85,-83.00 C198.65,-86.06 194.31,-90.64 190.92,-92.28 C189.05,-93.16 186.76,-93.65 185.36,-93.52 C183.20,-93.27 174.25,-91.60 172.94,-91.36" fill="none" stroke="rgb(255, 0, 255)" stroke-width="3.39" stroke-opacity="1.00" stroke-linejoin="round"/>
<path d="M114.01,-73.22 C110.94,-74.51 104.99,-78.42 103.87,-79.08 C103.15,-79.49 100.32,-79.93 99.25,-80.02 C95.46,-80.25 80.59,-75.25 77.19,-74.09 C92.50,-74.43 115.52,-75.03 123.24,-75.28 C129.65,-75.53 136.19,-77.58 137.71,-78.06 C137.71,-78.06 138.17,-80.87 138.17,-80.87 C135.18,-82.89 130.19,-84.94 124.52,-86.28 C116.41,-88.14 104.29,-89.07 94.99,-89.23 C78.93,-89.39 65.77,-86.48 64.14,-86.11 C66.25,-84.82 69.07,-83.90 74.50,-82.76 C82.96,-81.09 97.78,-79.27 103.32,-79.13 C107.25,-79.05 114.24,-79.53 117.73,-80.08 C122.32,-80.90 124.65,-82.61 126.40,-85.00 C125.29,-87.23 124.41,-88.47 123.21,-89.12 C120.84,-90.38 114.34,-91.97 111.89,-92.29 C106.18,-92.99 89.12,-90.35 82.22,-88.74 C66.84,-85.10 51.24,-78.96 48.76,-77.97 C48.76,-77.97 51.08,-77.02 51.08,-77.02" fill="none" stroke="rgb(255, 0, 255)" stroke-width="3.39" stroke-opacity="1.00" stroke-linejoin="round"/>
</g>
</svg>
