<?xml version="1.0" encoding="UTF-8" standalone="no"?>
<!DOCTYPE svg PUBLIC "-//W3C//DTD SVG 1.1//EN" "http://www.w3.org/Graphics/SVG/1.1/DTD/svg11.dtd">
<svg width="128.40" height="181.68" viewBox="0.00 0.00 535.00 757.00" xmlns="http://www.w3.org/2000/svg" xmlns:xlink="http://www.w3.org/1999/xlink">
<g stroke-linecap="round" transform="translate(44.00, 155.00)" id="168-구름-2">
<path d="M333.86,-77.76 C333.86,-77.76 332.35,-77.00 332.35,-77.00 C332.35,-77.00 332.99,-81.01 332.99,-81.01 C329.65,-81.61 324.80,-81.58 321.89,-82.22 C320.32,-82.59 317.13,-83.67 316.16,-84.30 C313.80,-85.89 306.31,-95.12 305.71,-95.83 C303.88,-97.95 299.72,-101.50 297.74,-102.70 C295.29,-104.15 288.87,-106.94 285.30,-107.61 C278.13,-108.89 267.86,-108.40 259.78,-106.96 C255.99,-106.26 248.88,-103.70 244.81,-101.75 C242.72,-100.73 233.40,-95.80 230.52,-93.97 C227.63,-92.10 223.19,-88.34 222.87,-86.27 C222.65,-84.69 223.21,-79.01 223.91,-77.06 C224.66,-75.06 227.20,-70.33 229.78,-67.38 C230.55,-66.51 244.19,-51.95 248.79,-46.77 C251.65,-43.62 256.15,-39.78 258.27,-38.50 C260.23,-37.33 266.08,-35.09 269.63,-34.74 C270.70,-34.65 292.68,-33.74 296.73,-32.49 C297.90,-32.12 302.76,-29.52 304.47,-28.13 C307.47,-25.63 315.30,-14.55 319.40,-10.31 C321.83,-7.81 325.42,-4.73 329.44,-1.49 C332.01,0.49 336.94,4.31 340.16,5.35 C341.56,5.78 346.37,6.00 349.59,5.64 C352.61,5.28 359.50,3.78 362.26,2.76 C368.50,0.38 376.73,-6.44 380.26,-10.00 C381.16,-10.93 382.07,-11.86 382.97,-12.78" fill="none" stroke="rgb(255, 0, 255)" stroke-width="3.39" stroke-opacity="1.00" stroke-linejoin="round"/>
<path d="M379.95,-5.98 C379.95,-5.98 379.95,-5.23 379.95,-5.23 C381.33,-7.56 385.03,-11.00 387.74,-12.64 C390.74,-14.38 396.99,-18.08 398.75,-19.49 C400.29,-20.73 404.00,-24.69 406.77,-26.27 C407.09,-26.17 415.79,-11.89 418.68,-7.94 C419.86,-6.38 422.12,-4.16 424.18,-2.54 C427.10,-0.30 432.60,0.86 435.21,0.61 C437.44,0.35 442.42,-1.84 444.51,-3.62 C446.70,-5.53 450.13,-10.74 451.18,-13.71 C452.15,-16.58 453.16,-23.19 453.12,-26.14 C453.06,-28.74 451.94,-35.15 451.12,-37.68 C450.16,-40.52 447.26,-45.49 445.26,-47.78 C443.32,-49.95 438.93,-53.33 435.65,-54.36 C434.22,-54.80 422.80,-57.33 421.20,-57.81 C417.99,-58.83 414.28,-62.86 411.80,-66.43 C409.38,-69.95 405.55,-74.88 403.29,-77.26 C400.79,-79.86 395.58,-83.59 392.25,-85.49 C388.99,-87.32 382.87,-90.03 379.15,-91.01 C374.75,-92.12 369.36,-92.74 366.35,-92.34 C359.39,-91.35 346.10,-87.25 340.96,-84.53 C339.58,-83.77 336.68,-81.90 335.74,-81.04 C334.32,-79.73 332.11,-77.17 330.84,-75.49" fill="none" stroke="rgb(255, 0, 255)" stroke-width="3.39" stroke-opacity="1.00" stroke-linejoin="round"/>
<path d="M236.40,-88.33 C233.70,-87.28 226.73,-84.56 225.26,-83.23 C224.76,-82.78 223.92,-81.77 222.74,-80.21 C226.72,-78.12 239.65,-75.69 246.84,-74.40 C263.56,-71.48 284.74,-67.38 302.42,-62.84 C302.23,-62.94 285.26,-70.49 278.98,-73.09 C271.96,-75.90 258.86,-79.97 250.45,-81.39 C244.51,-82.34 240.39,-82.81 236.61,-82.88 C232.93,-82.90 229.92,-82.17 225.31,-80.35 C226.90,-78.01 227.90,-77.10 229.71,-76.70 C249.64,-72.00 282.51,-63.29 286.28,-62.46 C293.88,-60.79 299.64,-60.63 302.13,-60.63 C300.04,-62.85 297.79,-64.18 292.75,-66.29 C284.82,-69.43 270.05,-75.17 263.20,-77.77 C248.61,-83.07 235.65,-84.39 234.27,-84.49 C238.03,-85.18 270.56,-78.07 285.74,-74.60 C296.26,-72.34 305.20,-70.82 314.81,-69.95 C318.80,-69.65 321.25,-69.91 325.05,-70.64 C323.18,-72.21 308.38,-79.91 301.91,-83.33 C295.05,-86.78 279.34,-94.16 276.04,-95.45 C271.61,-97.17 256.78,-101.16 252.05,-101.12 C243.92,-101.00 238.64,-98.88 237.79,-98.41 C237.79,-98.41 236.53,-95.20 236.53,-95.20 C239.75,-93.62 288.55,-77.16 292.26,-76.08 C298.99,-74.14 314.51,-71.18 316.36,-71.84 C316.78,-71.99 317.75,-72.50 319.26,-73.35 C316.38,-75.99 307.14,-80.10 298.81,-83.35 C285.61,-88.30 266.64,-92.68 260.56,-93.50 C259.18,-93.70 257.88,-93.34 255.65,-92.28 C259.11,-89.85 264.34,-87.13 269.76,-85.09 C277.98,-82.07 289.47,-78.99 295.49,-78.33 C300.97,-77.79 305.68,-77.59 308.15,-77.81 C311.61,-78.17 315.60,-80.48 317.37,-81.62 C316.60,-84.43 315.95,-85.57 314.38,-86.37 C306.50,-90.34 293.33,-95.36 285.87,-98.13 C273.97,-102.34 268.89,-103.70 265.64,-104.32 C266.18,-103.09 266.85,-102.35 268.59,-101.28 C276.00,-96.71 289.16,-90.16 296.00,-88.07 C299.54,-87.00 307.09,-86.17 308.25,-86.15 C310.75,-86.12 312.38,-86.95 313.78,-88.72 C311.95,-91.07 310.76,-92.36 309.43,-93.10 C306.16,-94.90 288.79,-102.45 286.31,-103.24 C280.77,-104.88 279.05,-104.78 276.75,-103.96 C276.66,-101.55 276.89,-100.08 277.73,-98.76 C279.36,-96.23 283.78,-91.96 286.83,-90.18 C288.42,-89.30 291.91,-88.37 293.23,-88.60 C293.71,-88.69 294.26,-89.09 294.88,-89.79 C293.91,-91.98 293.01,-93.30 291.54,-94.43 C288.68,-96.60 282.20,-99.73 279.02,-100.77 C273.97,-102.38 264.70,-103.41 261.31,-103.23 C257.69,-103.01 253.92,-100.94 252.57,-100.22 C252.75,-99.05 253.03,-96.59 253.46,-96.07 C254.69,-94.59 261.12,-91.96 263.13,-91.44 C266.37,-90.63 270.56,-90.13 273.84,-90.22 C278.22,-90.40 281.73,-91.68 283.34,-93.47 C283.34,-93.47 282.66,-97.19 282.66,-97.19 C278.26,-100.11 274.95,-101.78 271.92,-102.23 C267.89,-102.78 264.24,-102.96 260.71,-102.78 C256.65,-102.55 246.00,-99.15 242.55,-97.47 C240.59,-96.51 239.39,-95.06 238.09,-92.50 C240.12,-91.16 244.46,-90.28 249.16,-90.46 C253.00,-90.64 261.62,-91.73 264.39,-92.24 C266.45,-92.63 272.20,-94.27 274.92,-96.44 C273.27,-97.80 271.66,-98.56 269.41,-98.71 C264.19,-99.07 249.52,-97.15 243.96,-95.12 C237.56,-92.75 233.51,-89.68 230.59,-86.46 C230.59,-86.46 232.52,-84.12 232.52,-84.12 C236.58,-83.58 241.50,-83.50 245.44,-84.00 C248.38,-84.40 253.67,-85.50 256.44,-87.07 C253.88,-89.17 250.77,-90.52 246.84,-90.76 C243.13,-90.94 237.02,-90.41 235.17,-89.48 C234.32,-89.04 232.82,-87.76 231.92,-86.87 C231.89,-85.56 231.75,-82.94 231.96,-82.29 C232.69,-80.14 237.76,-75.28 238.82,-74.51 C243.62,-71.09 256.05,-65.23 264.45,-62.68 C269.41,-61.25 273.68,-60.42 275.96,-60.51 C274.83,-63.03 272.05,-65.66 268.05,-67.70 C258.29,-72.57 248.75,-76.53 243.14,-77.45 C239.85,-77.95 237.00,-76.58 235.90,-75.90 C236.64,-72.02 237.74,-69.11 240.41,-66.66 C247.97,-59.90 257.42,-53.43 264.89,-49.87 C267.90,-48.44 273.99,-46.83 275.06,-46.63 C277.20,-46.23 278.99,-46.57 281.21,-47.69 C280.78,-50.03 280.12,-51.49 278.58,-52.96 C273.94,-57.37 261.10,-66.76 255.53,-69.51 C251.71,-71.37 247.53,-72.95 245.59,-73.35 C243.01,-73.82 241.51,-73.64 239.78,-72.59 C239.27,-72.28 238.61,-71.89 237.81,-71.43 C238.03,-69.06 238.49,-65.62 238.88,-64.37 C239.93,-61.12 250.89,-50.40 255.80,-47.00 C260.33,-43.89 270.38,-38.70 276.84,-36.92 C281.23,-35.77 283.16,-35.85 285.00,-36.47 C283.91,-39.34 279.83,-43.95 276.87,-47.01 C268.67,-55.25 258.31,-65.02 252.62,-68.65 C248.61,-71.14 242.97,-73.02 239.65,-72.91 C239.65,-72.91 235.88,-69.17 235.88,-69.17 C236.03,-66.17 236.30,-64.46 236.96,-63.06 C238.22,-60.43 241.99,-55.27 244.80,-52.59 C249.62,-48.04 259.85,-41.66 265.62,-39.25 C272.13,-36.57 279.85,-35.26 282.49,-35.13 C284.92,-35.01 286.74,-35.69 288.89,-37.35 C287.99,-40.23 287.31,-41.68 285.90,-43.01 C267.41,-60.46 255.91,-70.20 252.27,-72.82 C250.29,-74.25 248.19,-75.01 245.34,-75.42 C245.61,-72.27 245.85,-70.76 246.40,-69.96 C249.52,-65.44 257.52,-56.98 263.16,-52.53 C269.55,-47.56 279.80,-41.40 285.86,-38.80 C290.96,-36.64 301.14,-34.49 304.57,-34.52 C304.57,-34.52 306.41,-36.47 306.41,-36.47 C304.13,-39.67 291.12,-49.75 285.03,-54.37 C277.36,-60.12 267.89,-66.10 259.71,-70.32 C256.05,-72.17 251.74,-73.64 248.90,-74.25 C245.12,-75.02 237.18,-75.12 235.73,-74.73 C233.68,-74.13 230.89,-70.70 229.73,-69.13 C231.36,-66.46 235.21,-63.12 238.94,-61.09 C251.02,-54.64 270.92,-48.01 277.23,-46.77 C279.38,-46.35 280.69,-46.54 282.04,-47.21 C279.36,-50.90 271.26,-57.92 262.20,-65.18 C252.46,-72.83 244.00,-79.10 239.16,-81.93 C237.78,-82.72 233.92,-83.72 232.88,-83.98 C232.44,-81.81 232.95,-79.86 234.72,-77.62 C238.61,-72.71 247.42,-65.02 253.53,-60.64 C259.30,-56.54 272.01,-49.93 278.65,-47.44 C284.06,-45.44 298.25,-43.47 299.38,-43.47 C301.12,-43.51 305.05,-45.70 306.80,-46.74 C306.81,-49.58 305.34,-53.67 302.84,-57.02 C299.73,-61.12 288.40,-73.23 283.11,-76.62 C281.56,-77.60 279.53,-78.68 278.00,-79.32 C276.56,-79.91 274.82,-79.99 271.73,-79.74 C270.23,-77.87 268.24,-75.11 267.82,-74.02 C267.40,-72.87 267.86,-70.73 268.63,-68.99 C270.43,-65.22 273.12,-61.29 275.53,-58.69 C279.44,-54.57 291.09,-46.77 297.84,-43.35 C301.99,-41.28 321.20,-34.22 327.21,-32.56 C343.62,-28.05 352.35,-28.31 356.97,-28.84 C356.59,-30.32 356.06,-30.99 354.26,-31.95 C340.14,-39.78 309.04,-56.53 301.29,-59.88 C293.66,-63.15 286.42,-64.37 285.45,-64.53 C298.96,-58.82 327.96,-48.39 338.80,-45.65 C347.72,-43.48 361.50,-40.97 369.98,-40.29 C379.29,-39.57 382.61,-40.35 386.94,-41.81 C385.51,-43.80 384.59,-44.70 383.18,-45.29 C377.29,-47.77 341.45,-60.61 330.50,-63.71 C319.19,-66.70 311.03,-68.67 307.55,-68.82 C306.19,-68.87 303.08,-68.64 301.06,-68.44 C302.78,-65.93 303.79,-64.88 305.50,-64.06 C313.99,-59.95 320.97,-57.21 329.12,-54.73 C336.07,-52.69 350.90,-49.86 358.84,-49.07 C366.16,-48.36 381.44,-48.40 386.90,-49.47 C389.26,-49.96 391.92,-51.66 393.04,-52.45 C389.88,-54.86 375.84,-60.88 369.81,-63.32 C365.45,-65.03 349.63,-70.23 343.12,-72.28 C336.45,-74.25 322.30,-77.13 315.73,-77.65 C313.62,-77.79 311.28,-77.68 310.44,-77.25 C309.67,-76.84 308.31,-75.29 307.48,-74.17 C310.01,-71.59 314.84,-69.05 317.96,-67.74 C323.76,-65.34 337.88,-60.95 344.93,-59.35 C352.47,-57.70 366.19,-55.42 375.54,-54.27 C383.09,-53.47 395.65,-53.18 399.89,-53.63 C402.70,-53.93 404.05,-54.69 404.69,-56.16 C399.91,-59.14 364.03,-71.08 349.70,-75.99 C346.04,-77.23 338.90,-79.59 335.41,-80.71 C330.84,-82.14 328.42,-82.67 325.81,-81.70 C325.55,-81.60 324.94,-81.35 323.98,-80.96 C326.23,-77.55 330.05,-73.87 334.34,-71.24 C340.14,-67.76 350.60,-63.35 356.72,-61.70 C363.18,-59.98 377.34,-57.93 383.13,-57.89 C392.64,-57.86 399.69,-59.04 403.43,-60.51 C403.43,-60.51 403.62,-62.71 403.62,-62.71 C398.78,-64.58 383.05,-69.13 374.54,-71.57 C367.01,-73.61 350.71,-77.85 345.18,-78.41 C342.52,-78.66 337.83,-78.31 336.13,-78.05 C336.13,-78.05 336.22,-75.12 336.22,-75.12 C340.75,-71.67 352.65,-66.92 359.77,-65.17 C368.18,-63.19 376.32,-62.14 386.70,-61.78 C391.11,-61.68 395.06,-61.99 399.45,-63.32 C400.41,-63.62 401.36,-63.92 402.31,-64.22 C402.31,-64.22 401.90,-66.22 401.90,-66.22 C398.14,-67.96 381.84,-73.74 373.96,-76.49 C365.73,-79.22 354.82,-81.81 350.83,-81.83 C348.73,-81.80 345.88,-79.89 344.57,-78.93 C346.62,-75.09 348.92,-72.40 352.31,-70.65 C358.73,-67.44 369.62,-64.17 375.81,-63.44 C378.21,-63.16 384.20,-62.89 387.36,-63.16 C389.77,-63.39 397.26,-65.24 398.05,-66.03 C398.40,-66.39 398.78,-67.22 399.19,-68.53 C396.47,-70.78 382.08,-76.96 374.79,-80.01 C365.37,-83.81 357.52,-85.31 353.43,-85.78 C353.43,-85.78 351.73,-84.34 351.73,-84.34 C353.87,-82.16 358.56,-78.96 362.97,-76.88 C369.13,-74.03 384.03,-69.87 391.58,-69.15 C396.50,-68.71 398.96,-68.86 400.67,-69.12 C398.56,-70.23 377.00,-78.13 376.84,-78.18 C370.02,-80.57 363.16,-81.91 361.09,-82.27 C361.70,-80.93 367.80,-78.06 371.42,-76.64 C378.56,-73.87 391.50,-70.18 397.04,-69.23 C399.77,-68.78 404.64,-68.26 405.71,-69.08 C405.71,-69.08 376.12,-84.87 376.12,-84.87 C377.77,-82.07 381.27,-78.22 385.17,-75.18 C388.30,-72.77 395.20,-68.30 398.01,-66.84 C400.30,-65.66 405.61,-63.73 408.11,-63.15 C409.50,-62.83 410.45,-62.93 411.56,-63.34 C410.60,-64.27 393.56,-75.51 387.47,-80.58 C386.96,-81.00 386.18,-81.67 385.13,-82.58 C399.58,-68.92 408.66,-62.71 410.54,-62.14 C410.08,-63.78 400.06,-74.13 395.16,-78.04 C386.97,-84.45 384.15,-85.34 381.63,-85.97 C382.09,-84.45 382.97,-82.22 383.62,-81.39 C386.48,-77.81 393.07,-76.65 395.25,-76.49 C394.71,-77.65 393.62,-79.37 392.71,-80.04 C391.06,-81.24 383.19,-83.28 380.10,-83.84 C377.10,-84.35 369.99,-84.58 366.30,-84.27 C363.47,-84.01 358.78,-83.08 357.29,-81.60 C360.50,-80.56 366.45,-80.72 369.24,-81.07 C371.91,-81.42 375.91,-82.43 377.84,-84.16 C376.97,-85.50 376.04,-86.22 374.32,-86.62 C369.04,-87.84 357.27,-88.08 351.01,-87.06 C342.12,-85.56 338.30,-82.66 337.36,-81.84 C338.61,-80.20 339.78,-79.47 341.79,-79.43 C345.30,-79.37 351.55,-80.34 354.14,-81.20 C355.40,-81.63 356.25,-82.25 357.26,-83.33 C355.73,-84.70 352.46,-85.16 348.85,-85.20 C341.01,-85.24 325.05,-83.47 324.79,-83.53 C324.61,-83.58 315.44,-92.07 315.43,-92.08 C313.82,-93.48 310.94,-94.67 309.69,-95.13" fill="none" stroke="rgb(255, 0, 255)" stroke-width="3.39" stroke-opacity="1.00" stroke-linejoin="round"/>
<path d="M320.26,-84.56 C319.50,-84.59 318.89,-84.52 318.58,-84.86 C315.14,-88.51 312.48,-90.27 310.28,-91.18 C308.27,-92.02 296.05,-99.35 295.74,-99.46 C295.35,-99.60 291.44,-100.76 290.04,-101.18" fill="none" stroke="rgb(255, 0, 255)" stroke-width="3.39" stroke-opacity="1.00" stroke-linejoin="round"/>
<path d="M292.31,-98.91 C292.31,-98.91 293.06,-99.16 293.06,-99.16 C293.06,-99.16 293.22,-99.54 293.22,-99.54 C295.57,-100.12 305.53,-93.42 308.98,-90.31 C310.39,-89.03 316.18,-83.33 317.24,-82.29" fill="none" stroke="rgb(255, 0, 255)" stroke-width="3.39" stroke-opacity="1.00" stroke-linejoin="round"/>
<path d="M314.22,-71.71 C312.19,-73.79 310.89,-74.98 309.27,-76.13 C307.64,-77.28 306.11,-77.46 303.58,-77.00 C303.58,-77.00 302.63,-74.26 302.63,-74.26 C305.73,-70.33 307.78,-68.36 311.19,-66.72 C317.54,-63.72 363.78,-49.24 375.12,-44.75 C376.50,-44.21 377.05,-43.48 377.74,-41.62 C367.95,-41.51 357.42,-42.32 350.38,-43.62 C342.21,-45.20 300.17,-54.85 292.20,-55.70 C281.51,-56.81 276.80,-55.85 274.30,-55.03 C275.96,-53.01 277.08,-52.12 278.79,-51.81 C286.53,-50.36 324.67,-41.83 341.37,-38.02 C361.25,-33.27 375.18,-29.18 380.33,-26.57 C377.89,-25.70 372.19,-25.82 370.00,-26.00 C364.83,-26.47 349.79,-29.14 344.81,-30.59 C340.42,-31.88 321.85,-38.19 314.00,-40.91 C305.04,-44.04 298.12,-45.79 294.51,-45.46 C294.51,-45.46 292.75,-41.81 292.75,-41.81 C294.43,-39.67 297.10,-37.20 300.68,-34.88 C304.96,-32.14 316.73,-26.31 322.88,-23.97 C329.18,-21.60 343.34,-18.24 349.17,-17.71 C352.55,-17.41 358.31,-17.34 361.71,-17.60 C365.26,-17.92 366.60,-18.68 368.24,-20.02 C356.08,-23.57 322.11,-34.22 316.31,-35.27 C314.36,-35.62 305.53,-36.25 304.05,-35.60 C303.44,-35.32 302.46,-34.52 301.11,-33.20 C302.93,-31.22 307.16,-28.64 311.68,-26.52 C322.70,-21.55 348.38,-12.05 352.77,-11.13 C358.21,-10.04 359.78,-10.33 360.46,-11.00 C357.25,-12.69 320.92,-28.22 319.26,-28.91 C314.05,-31.03 312.15,-31.12 310.21,-30.94 C312.19,-27.68 316.97,-23.41 319.03,-21.71 C324.70,-17.06 350.17,0.09 350.46,0.20 C343.36,-6.86 336.74,-12.99 332.47,-15.58 C328.25,-18.02 325.24,-19.46 321.67,-20.56 C319.54,-21.21 317.89,-21.18 315.28,-20.55 C315.44,-18.02 316.07,-16.39 317.91,-14.62 C330.63,-2.36 340.67,2.14 342.73,2.77 C342.48,0.12 341.14,-2.61 338.26,-5.42 C335.50,-8.05 331.72,-10.98 329.07,-12.59 C326.27,-14.25 324.86,-14.57 323.11,-14.71 C323.35,-13.17 323.93,-12.03 325.36,-10.72 C329.71,-6.76 341.30,-0.02 346.60,1.63 C348.06,2.07 350.67,2.60 352.21,2.78 C353.69,2.94 355.07,2.53 357.27,1.44 C357.12,-0.70 356.64,-1.92 355.33,-2.84 C353.02,-4.45 348.17,-6.37 344.97,-7.09 C340.78,-7.96 337.87,-7.49 336.94,-6.74 C338.38,-5.41 339.79,-4.58 341.91,-4.06 C345.78,-3.12 353.78,-2.29 357.01,-2.32 C364.66,-2.43 374.53,-5.00 378.94,-7.14 C381.20,-8.25 382.33,-9.65 383.30,-12.20 C381.14,-13.70 376.96,-14.51 371.52,-13.86 C369.23,-13.56 362.36,-11.93 359.32,-10.77 C356.24,-9.59 353.36,-7.39 352.27,-6.49 C352.27,-6.49 352.51,-4.10 352.51,-4.10 C356.58,-3.71 359.82,-3.88 362.95,-4.96 C369.46,-7.30 378.78,-12.50 385.51,-18.00 C389.13,-21.07 394.32,-26.15 394.99,-27.69 C395.19,-28.15 395.48,-29.19 395.87,-30.80 C393.85,-30.90 390.12,-29.80 386.09,-27.77 C379.37,-24.34 366.96,-16.17 362.07,-11.80 C360.48,-10.37 359.99,-8.85 359.97,-6.29 C362.64,-5.30 367.71,-5.47 372.94,-6.97 C376.95,-8.17 383.55,-11.08 386.82,-13.02 C389.37,-14.55 396.68,-19.72 398.93,-21.70 C400.21,-22.84 405.48,-28.70 406.10,-30.40 C406.35,-31.08 406.18,-33.87 406.14,-35.23 C401.96,-37.01 398.74,-37.63 395.16,-36.90 C387.38,-35.26 376.44,-30.91 370.43,-27.68 C365.70,-25.13 355.29,-18.28 351.26,-14.91 C349.65,-13.54 348.60,-10.65 348.20,-9.32 C351.58,-8.37 356.36,-8.28 360.99,-9.29 C367.32,-10.72 377.32,-14.54 382.66,-17.37 C385.56,-18.93 390.59,-22.20 394.69,-25.18 C397.91,-27.54 401.12,-30.47 403.64,-33.93 C403.64,-33.93 402.78,-37.13 402.78,-37.13 C398.47,-37.97 392.98,-38.34 388.01,-38.02 C380.59,-37.51 369.36,-35.48 362.97,-33.44 C355.36,-30.98 346.94,-27.18 337.87,-22.07 C332.85,-19.20 330.37,-17.61 329.08,-15.30 C328.93,-15.03 328.66,-14.48 328.26,-13.66 C333.10,-12.50 347.84,-12.54 352.26,-13.05 C358.03,-13.75 369.62,-16.66 375.56,-18.92 C379.95,-20.61 395.46,-29.77 396.53,-31.19 C397.15,-32.04 398.40,-34.31 399.23,-35.93 C396.25,-37.32 391.74,-38.43 386.79,-38.79 C378.83,-39.28 363.13,-39.91 356.04,-39.40 C338.78,-38.10 330.96,-34.18 328.51,-32.83 C328.51,-32.83 328.16,-29.51 328.16,-29.51 C331.75,-27.53 337.26,-25.96 339.82,-25.42 C345.42,-24.27 357.97,-23.20 363.59,-23.56 C365.97,-23.73 372.47,-24.74 375.94,-25.69 C379.90,-26.81 384.38,-28.83 386.84,-31.41 C387.13,-31.72 387.69,-32.34 388.52,-33.27 C386.35,-34.79 382.48,-36.14 378.35,-36.54 C373.02,-37.02 321.04,-39.75 315.16,-40.26 C312.09,-40.52 310.62,-40.12 309.57,-38.86 C315.12,-34.52 325.97,-29.19 332.09,-27.22 C338.24,-25.27 350.52,-23.48 355.52,-23.87 C362.90,-24.50 367.72,-27.21 370.01,-28.69 C370.01,-28.69 370.66,-31.77 370.66,-31.77 C366.16,-34.20 355.24,-37.34 343.04,-40.08 C335.13,-41.75 319.17,-45.01 311.12,-46.61 C299.57,-48.65 287.25,-50.07 284.73,-50.19 C283.32,-50.26 282.10,-49.50 280.10,-47.60 C283.88,-44.31 297.34,-38.63 304.02,-36.64 C311.31,-34.50 325.40,-32.28 332.07,-32.25 C335.48,-32.25 342.38,-33.12 344.69,-33.69 C347.53,-34.40 355.81,-37.47 356.84,-38.85 C357.48,-39.72 358.47,-42.35 359.05,-44.20 C356.65,-47.07 353.52,-49.20 350.93,-50.76 C343.73,-55.04 331.13,-61.26 325.43,-63.59 C312.56,-68.83 285.77,-75.81 278.53,-76.93 C276.99,-77.18 275.91,-76.82 274.37,-75.74 C279.49,-72.33 293.79,-66.20 299.55,-64.09 C306.31,-61.64 321.70,-58.06 327.00,-57.31 C331.39,-56.70 337.52,-56.38 341.53,-56.53 C344.96,-56.68 351.83,-57.77 354.83,-58.58 C356.24,-58.97 357.13,-59.99 358.29,-62.21 C354.86,-63.82 338.25,-69.19 330.32,-71.75 C322.28,-74.60 310.08,-79.32 304.28,-82.18 C297.78,-85.45 284.41,-92.09 281.61,-92.68 C281.61,-92.68 279.21,-90.60 279.21,-90.60 C281.16,-87.10 285.10,-82.91 287.57,-80.83 C292.36,-76.83 304.32,-69.96 310.12,-67.82 C316.44,-65.52 328.22,-63.37 333.74,-63.65 C342.14,-64.13 345.50,-66.07 348.09,-67.87 C345.06,-70.44 330.79,-77.72 323.89,-81.15 C316.38,-84.69 300.68,-90.84 294.98,-92.23 C291.37,-93.09 285.73,-93.90 283.41,-93.59 C283.25,-93.57 279.62,-92.65 279.09,-92.17 C277.71,-90.86 276.54,-88.36 276.60,-86.86 C276.81,-83.90 278.99,-78.48 281.30,-75.52 C283.55,-72.69 288.66,-68.16 290.69,-66.77 C295.66,-63.42 307.87,-58.95 313.87,-58.20 C316.75,-57.86 322.77,-57.82 324.84,-58.03 C328.69,-58.45 333.32,-59.65 337.26,-61.01 C340.09,-62.01 341.88,-63.56 343.75,-66.17 C342.66,-68.38 339.71,-71.71 336.81,-74.03 C332.98,-77.05 315.68,-88.28 312.48,-90.02 C308.84,-91.98 295.35,-96.47 290.56,-96.62 C287.53,-96.70 281.45,-95.08 279.18,-93.29 C277.11,-91.57 274.53,-87.21 274.14,-84.91 C273.81,-82.71 275.12,-78.53 276.77,-76.59 C278.49,-74.65 284.07,-70.85 287.48,-69.29 C290.79,-67.80 298.67,-65.38 302.52,-64.63 C306.24,-63.92 312.84,-63.43 316.42,-63.53 C318.87,-63.61 323.79,-64.36 329.58,-65.38 C335.59,-66.38 342.95,-66.43 344.44,-66.42" fill="none" stroke="rgb(255, 0, 255)" stroke-width="3.39" stroke-opacity="1.00" stroke-linejoin="round"/>
<path d="M381.46,-50.56 C381.46,-50.56 376.93,-50.56 376.93,-50.56 C376.93,-50.56 376.93,-50.43 376.93,-50.43 C385.45,-48.37 395.82,-44.67 401.99,-41.76 C405.38,-40.15 418.17,-33.37 422.22,-31.20 C422.35,-31.23 406.38,-40.38 398.93,-44.58 C388.70,-50.14 383.26,-52.87 381.05,-52.85 C383.70,-49.85 398.11,-39.85 404.28,-36.73 C407.51,-35.11 414.78,-32.16 417.07,-31.48 C425.10,-29.14 435.29,-29.59 437.36,-30.07 C439.57,-30.63 442.00,-33.29 443.07,-34.57 C440.21,-37.84 438.30,-39.51 434.91,-41.11 C427.04,-44.84 413.36,-49.82 410.18,-50.73 C406.25,-51.84 398.33,-53.33 395.30,-53.62 C392.47,-53.87 386.43,-53.55 383.92,-53.04 C382.51,-52.76 380.99,-52.09 378.43,-50.72 C378.43,-50.72 377.83,-45.62 377.83,-45.62 C379.84,-43.38 383.02,-40.92 387.22,-38.83 C392.26,-36.36 404.86,-32.12 411.28,-30.71 C417.29,-29.41 430.18,-28.42 434.88,-28.71 C437.29,-28.88 441.96,-30.08 443.14,-30.40 C442.92,-31.19 442.32,-31.64 440.44,-32.19 C432.86,-34.44 421.44,-39.60 415.39,-43.16 C412.35,-44.96 392.69,-58.55 391.85,-59.12 C393.42,-56.46 395.34,-54.06 398.73,-51.50 C407.92,-44.82 416.37,-39.87 420.98,-37.98 C423.66,-36.90 431.56,-34.77 434.57,-34.11 C437.53,-33.48 440.25,-33.75 443.29,-34.25 C442.90,-35.67 442.32,-36.50 440.69,-37.55 C427.13,-46.06 404.17,-60.36 400.98,-61.98 C399.18,-62.89 398.00,-62.84 396.60,-62.16 C399.42,-57.51 410.73,-47.53 416.87,-43.37 C422.71,-39.45 433.10,-35.31 436.49,-35.18 C435.83,-36.66 421.07,-50.12 418.72,-52.10 C413.93,-56.12 406.42,-61.01 405.59,-61.55 C407.51,-58.54 432.50,-38.14 437.16,-35.43 C424.76,-44.27 408.64,-58.62 407.98,-60.03 C425.14,-48.64 435.21,-43.59 439.63,-41.42 C437.31,-42.61 431.21,-45.81 429.01,-47.32 C426.35,-49.17 419.40,-55.65 418.86,-56.91 C418.72,-57.25 418.77,-57.70 419.02,-58.26 C422.10,-57.36 427.26,-53.82 430.33,-51.74 C440.19,-44.88 443.81,-42.20 446.58,-40.05 C443.65,-40.93 435.17,-43.50 433.75,-44.00 C428.12,-46.01 426.67,-47.20 425.69,-48.43 C428.98,-49.47 432.48,-49.30 435.81,-47.42 C438.68,-45.74 442.65,-42.46 444.42,-40.38 C446.14,-38.32 448.70,-33.32 448.45,-32.20 C448.36,-31.83 447.98,-31.01 447.31,-29.75 C445.22,-29.55 443.14,-30.14 440.92,-31.69 C435.25,-35.70 434.15,-40.48 434.23,-42.07 C435.65,-41.51 437.74,-40.48 438.51,-39.74 C439.85,-38.44 442.70,-30.88 443.29,-28.40 C445.06,-20.64 443.80,-16.50 442.82,-14.54 C441.51,-16.10 440.83,-17.44 440.43,-19.55 C439.24,-26.12 439.19,-35.82 439.18,-38.59 C439.18,-38.59 436.56,-9.23 436.56,-9.23 C432.05,-17.69 426.85,-26.13 423.01,-29.18 C422.10,-29.89 420.06,-31.07 418.72,-31.76 C418.72,-31.76 416.27,-30.01 416.27,-30.01 C416.59,-26.33 418.37,-21.50 421.18,-17.19 C424.29,-12.52 429.39,-8.52 432.32,-7.25 C434.18,-6.44 435.65,-6.51 437.69,-7.29 C438.15,-9.43 438.20,-10.75 437.58,-11.76 C435.13,-15.68 421.95,-26.81 416.31,-30.08 C414.98,-30.84 413.38,-30.91 410.54,-30.60 C410.00,-28.23 410.81,-24.27 412.86,-20.52 C414.55,-17.49 419.31,-10.90 421.17,-8.87 C424.32,-5.49 429.68,-1.76 430.82,-1.86 C431.14,-1.89 431.86,-2.11 432.97,-2.51 C432.89,-4.94 432.64,-6.37 431.88,-7.62 C428.64,-12.95 418.53,-24.95 413.51,-29.66 C412.47,-30.64 411.57,-30.92 410.14,-30.95 C410.84,-28.66 412.95,-24.77 415.58,-21.18 C417.74,-18.27 422.90,-12.20 424.90,-10.16 C428.46,-6.57 432.01,-4.12 434.33,-3.08 C434.33,-3.08 436.33,-3.75 436.33,-3.75 C436.25,-6.65 436.01,-8.28 435.21,-10.33 C432.22,-18.08 427.19,-27.84 425.79,-30.07 C425.08,-31.19 424.21,-31.74 422.72,-32.26 C422.58,-30.26 423.39,-26.51 424.85,-23.11 C426.07,-20.33 429.34,-14.97 430.74,-13.31 C433.52,-10.13 435.68,-9.29 438.11,-8.78 C439.74,-10.28 440.44,-11.43 440.40,-13.01 C440.30,-15.85 438.43,-22.02 437.16,-24.51 C435.95,-26.81 433.67,-28.82 432.68,-29.60 C432.68,-29.60 430.13,-28.43 430.13,-28.43 C429.72,-23.87 429.84,-21.27 430.78,-18.45 C431.76,-15.76 435.30,-10.58 437.63,-9.48 C438.70,-8.98 440.93,-9.10 442.35,-9.39 C444.84,-11.48 446.94,-14.85 446.95,-17.98 C446.89,-20.68 444.77,-25.71 443.11,-27.49 C442.86,-27.74 440.33,-29.70 439.59,-29.78 C437.51,-29.93 434.90,-29.02 433.96,-27.72 C432.91,-26.18 432.09,-24.02 431.85,-22.12 C431.50,-18.69 433.37,-11.99 435.08,-9.51 C435.87,-8.41 437.44,-6.81 438.55,-5.98 C439.62,-5.19 441.23,-5.13 444.24,-5.54 C446.47,-7.87 448.18,-11.63 448.24,-15.75 C448.24,-19.09 447.03,-25.37 445.99,-28.05 C444.67,-31.24 443.20,-32.12 441.06,-32.80 C440.28,-32.00 439.19,-30.55 438.84,-29.51 C438.03,-26.93 438.63,-18.43 439.72,-14.78 C440.91,-11.08 442.68,-9.21 444.99,-7.32 C444.99,-7.32 447.74,-8.52 447.74,-8.52 C448.88,-11.55 449.43,-15.93 449.07,-20.29 C448.79,-23.30 448.25,-25.98 447.52,-28.85 C446.87,-31.18 443.75,-37.81 442.11,-39.61 C440.38,-41.43 437.35,-41.84 436.08,-41.89 C435.07,-40.99 433.67,-39.48 433.27,-38.59 C432.37,-36.52 433.54,-30.48 434.72,-29.23 C436.15,-27.78 438.60,-27.23 440.13,-28.02 C441.44,-28.76 443.17,-33.71 443.08,-36.93 C442.96,-39.69 440.69,-47.46 439.10,-49.13 C438.27,-49.98 436.01,-51.23 434.47,-51.94 C430.54,-49.85 428.26,-47.87 427.40,-45.21 C426.34,-41.77 425.91,-39.33 425.71,-35.66 C425.60,-32.71 427.01,-29.74 429.83,-25.99 C429.83,-25.99 434.08,-26.31 434.08,-26.31 C434.98,-27.40 436.21,-29.16 436.50,-30.10 C437.14,-32.25 435.25,-39.32 433.08,-42.73 C432.08,-44.27 426.98,-49.99 425.13,-51.47 C423.80,-52.53 418.09,-55.98 415.41,-57.02 C412.35,-58.18 405.39,-59.34 401.81,-59.29 C398.17,-59.20 391.17,-57.50 387.68,-56.00 C383.81,-54.31 379.64,-51.83 376.78,-48.48 C376.42,-48.06 375.75,-47.24 374.76,-46.02 C375.50,-45.10 376.90,-43.77 377.96,-43.34 C379.50,-42.74 390.43,-41.77 392.21,-41.67 C395.93,-41.49 397.02,-41.83 397.98,-42.47 C394.56,-45.10 380.36,-50.75 373.74,-52.85 C366.70,-55.08 347.77,-59.08 343.91,-59.52 C341.45,-59.79 333.29,-59.92 329.63,-59.79 C325.89,-59.64 318.72,-58.41 315.98,-57.49 C314.34,-56.93 308.13,-54.03 304.79,-51.87 C303.07,-50.71 301.06,-48.84 300.76,-47.72 C300.48,-46.57 301.15,-43.37 301.80,-41.20 C303.68,-40.09 307.88,-38.67 311.70,-37.88 C328.31,-34.55 342.91,-37.43 344.10,-37.83 C342.32,-40.48 340.11,-42.21 335.17,-45.00 C327.35,-49.20 313.02,-56.81 306.51,-60.24 C298.54,-64.32 286.13,-69.27 283.38,-69.73 C279.39,-70.34 273.73,-69.57 272.19,-68.17 C270.65,-66.68 269.60,-62.09 270.30,-59.61 C271.07,-57.07 274.85,-52.50 277.90,-50.76 C281.05,-49.01 288.30,-46.95 291.33,-46.62 C294.71,-46.28 301.06,-46.29 304.38,-46.81 C307.67,-47.35 313.17,-49.29 315.54,-50.51 C317.89,-51.73 318.94,-53.20 319.31,-55.49 C315.20,-57.84 300.48,-62.42 292.27,-64.89 C289.06,-65.83 282.02,-67.90 279.13,-67.40 C280.83,-64.27 294.79,-49.50 296.85,-47.57 C301.00,-43.72 313.40,-36.93 317.42,-35.99 C320.07,-35.40 327.54,-35.40 330.66,-35.66 C333.95,-35.98 335.63,-37.08 338.25,-39.04 C338.25,-39.04 335.37,-42.25 335.37,-42.25" fill="none" stroke="rgb(255, 0, 255)" stroke-width="3.39" stroke-opacity="1.00" stroke-linejoin="round"/>
</g>
</svg>
