<?xml version="1.0" encoding="UTF-8" standalone="no"?>
<!DOCTYPE svg PUBLIC "-//W3C//DTD SVG 1.1//EN" "http://www.w3.org/Graphics/SVG/1.1/DTD/svg11.dtd">
<svg width="128.40" height="181.68" viewBox="0.00 0.00 535.00 757.00" xmlns="http://www.w3.org/2000/svg" xmlns:xlink="http://www.w3.org/1999/xlink">
<g stroke-linecap="round" transform="translate(44.00, 155.00)" id="169-구름-3">
<path d="M433.84,-125.94 C433.84,-125.94 433.02,-125.94 433.02,-125.94 C433.76,-125.82 434.64,-126.69 435.11,-128.32 C435.46,-129.63 434.85,-131.97 433.85,-132.81 C432.70,-133.72 429.90,-133.85 427.63,-133.30 C424.39,-132.40 420.27,-126.68 420.04,-126.21 C419.72,-127.86 417.26,-130.61 414.62,-131.59 C413.15,-132.09 410.06,-132.42 408.65,-132.10 C408.42,-132.05 402.31,-128.74 400.47,-127.78 C399.23,-128.39 396.96,-130.31 396.02,-130.90 C394.76,-131.68 386.99,-133.89 385.69,-133.57 C383.72,-133.08 381.72,-131.12 381.21,-130.93 C380.37,-130.63 377.01,-130.75 374.69,-130.42 C372.81,-130.18 370.09,-131.45 368.99,-131.94 C367.98,-132.39 364.81,-132.79 363.78,-132.62 C361.18,-132.12 357.29,-127.73 356.73,-127.54 C354.41,-126.75 352.29,-125.65 351.37,-124.52 C350.35,-123.22 349.52,-120.56 349.86,-119.36 C350.66,-116.89 353.36,-116.33 355.39,-116.20 C355.53,-116.40 351.55,-116.22 349.15,-113.99 C346.04,-111.09 341.73,-105.23 340.92,-103.57 C339.55,-100.62 339.44,-95.35 340.15,-92.83 C341.00,-90.03 344.88,-84.66 344.99,-84.09 C345.11,-83.51 345.11,-81.95 345.27,-81.40 C345.27,-81.40 352.84,-84.38 352.84,-84.38 C354.03,-82.53 355.36,-80.70 356.34,-79.79 C357.63,-78.62 360.09,-77.48 361.62,-77.35 C362.93,-77.26 364.68,-77.97 366.77,-79.18 C367.58,-78.56 368.84,-77.03 369.40,-76.52 C369.91,-76.07 373.21,-73.83 374.40,-73.02" fill="none" stroke="rgb(254, 240, 0)" stroke-width="3.43" stroke-opacity="1.00" stroke-linejoin="round"/>
<path d="M376.84,-73.02 C376.84,-73.02 374.40,-72.21 374.40,-72.21 C377.24,-72.23 379.89,-72.66 381.46,-73.65 C384.49,-75.58 385.72,-78.41 385.80,-79.26 C385.95,-78.71 386.58,-77.75 387.36,-77.26 C389.36,-76.04 395.77,-75.96 397.98,-76.79 C401.65,-78.24 404.28,-79.99 405.35,-80.97 C405.35,-80.97 411.04,-77.91 411.04,-77.91" fill="none" stroke="rgb(254, 240, 0)" stroke-width="3.43" stroke-opacity="1.00" stroke-linejoin="round"/>
<path d="M411.04,-77.91 C411.04,-77.91 409.41,-77.78 409.41,-77.78 C409.41,-77.78 409.98,-75.70 409.98,-75.70 C413.27,-74.21 418.35,-73.74 420.98,-74.55 C423.48,-75.38 427.23,-77.98 429.09,-79.71 C428.39,-78.89 427.70,-77.60 427.69,-76.62 C427.72,-75.40 429.13,-73.16 430.40,-72.49 C431.57,-71.91 434.54,-71.76 435.88,-72.09 C436.77,-72.35 442.32,-77.21 443.67,-78.42 C446.45,-80.91 449.05,-84.62 449.31,-85.69 C449.79,-88.11 449.19,-93.62 447.62,-95.97 C446.69,-97.32 445.57,-97.79 444.00,-97.77 C445.38,-98.14 446.72,-98.90 447.71,-100.08 C448.53,-101.11 450.10,-104.18 450.31,-105.35 C450.54,-106.82 449.62,-109.03 448.53,-109.82 C447.76,-110.32 445.00,-110.94 443.95,-110.76 C442.98,-110.58 439.96,-109.54 439.94,-109.50 C440.14,-111.18 440.26,-113.63 440.05,-114.61 C439.82,-115.54 438.25,-117.58 437.29,-117.89 C436.03,-118.28 432.77,-118.81 432.58,-119.05 C432.89,-120.80 432.80,-122.10 432.14,-123.91 C431.89,-124.59 431.64,-125.26 431.39,-125.94" fill="none" stroke="rgb(254, 240, 0)" stroke-width="3.43" stroke-opacity="1.00" stroke-linejoin="round"/>
</g>
</svg>
