<?xml version="1.0" encoding="UTF-8" standalone="no"?>
<!DOCTYPE svg PUBLIC "-//W3C//DTD SVG 1.1//EN" "http://www.w3.org/Graphics/SVG/1.1/DTD/svg11.dtd">
<svg width="128.40" height="181.68" viewBox="0.00 0.00 535.00 757.00" xmlns="http://www.w3.org/2000/svg" xmlns:xlink="http://www.w3.org/1999/xlink">
<g stroke-linecap="round" transform="translate(44.00, 155.00)" id="169-지면">
<path d="M463.96,532.73 C463.96,532.73 466.40,527.33 466.40,527.33 C465.56,527.06 459.85,526.70 456.35,525.11 C453.83,523.94 435.95,517.99 428.73,516.58 C421.70,515.31 407.27,512.77 399.87,511.50 C395.98,510.89 376.68,510.17 372.81,510.28 C369.02,510.40 330.00,514.95 313.75,516.78 C301.90,517.95 293.83,518.45 285.33,518.48 C278.16,518.32 244.51,516.64 232.11,515.85 C220.98,515.38 176.31,518.14 169.90,518.08 C154.42,517.66 123.12,516.64 107.31,516.05 C101.83,515.67 89.47,514.73 81.91,513.38 C74.44,512.01 64.36,511.66 53.23,511.67 C40.55,511.83 -14.27,516.92 -15.44,517.09 C-15.65,517.12 -15.97,517.17 -16.41,517.26" fill="none" stroke="rgb(0, 0, 255)" stroke-width="3.43" stroke-opacity="1.00" stroke-linejoin="round"/>
</g>
</svg>
