<?xml version="1.0" encoding="UTF-8" standalone="no"?>
<!DOCTYPE svg PUBLIC "-//W3C//DTD SVG 1.1//EN" "http://www.w3.org/Graphics/SVG/1.1/DTD/svg11.dtd">
<svg width="128.40" height="181.68" viewBox="0.00 0.00 535.00 757.00" xmlns="http://www.w3.org/2000/svg" xmlns:xlink="http://www.w3.org/1999/xlink">
<g stroke-linecap="round" transform="translate(44.00, 155.00)" id="169-구름-2">
<path d="M262.86,-129.20 C262.86,-129.20 259.60,-128.38 259.60,-128.38 C259.58,-129.44 258.95,-131.06 257.97,-131.78 C256.53,-132.81 250.28,-134.21 247.77,-134.00 C244.62,-133.67 239.51,-132.11 236.57,-129.91 C233.64,-127.67 230.43,-122.96 230.71,-121.68 C230.95,-120.67 231.65,-119.46 232.56,-118.08 C232.89,-117.57 232.42,-116.89 230.32,-114.49 C229.35,-113.38 228.05,-111.18 227.77,-110.11 C227.59,-109.29 231.10,-101.79 232.27,-98.99 C232.86,-97.94 234.62,-96.80 236.00,-96.65 C238.72,-96.41 246.13,-99.17 247.43,-99.39 C247.17,-96.60 247.64,-95.02 249.04,-94.00 C250.30,-93.96 252.41,-94.14 253.61,-94.62 C254.80,-95.10 257.70,-96.95 259.60,-98.26" fill="none" stroke="rgb(254, 240, 0)" stroke-width="3.43" stroke-opacity="1.00" stroke-linejoin="round"/>
<path d="M262.04,-98.26 C260.84,-97.70 260.08,-97.29 259.78,-97.04 C259.47,-96.79 259.17,-96.35 258.90,-95.71 C261.25,-94.75 262.71,-94.39 264.94,-94.36 C268.53,-94.34 270.74,-94.40 271.83,-94.65 C273.52,-95.07 275.39,-96.19 276.66,-97.47 C279.12,-100.00 280.18,-101.28 281.23,-102.64 C282.36,-100.91 286.75,-99.08 289.36,-99.09 C291.94,-99.17 294.97,-100.30 297.91,-102.86 C299.70,-104.41 300.59,-106.88 301.12,-107.58 C301.27,-107.77 303.76,-108.66 304.90,-109.44 C306.10,-110.29 308.40,-112.73 308.57,-113.86 C308.61,-114.12 308.32,-118.88 308.55,-119.81 C309.27,-122.19 310.77,-127.84 309.94,-129.29 C309.45,-130.17 307.64,-132.55 307.79,-133.52 C307.96,-134.70 308.85,-138.26 308.63,-138.93 C308.55,-139.18 308.29,-139.65 307.83,-140.35 C307.83,-140.35 299.16,-139.63 299.16,-139.63 C298.89,-139.74 297.85,-142.25 297.21,-143.12 C296.48,-144.07 293.78,-144.61 292.08,-144.33 C289.37,-143.83 284.40,-140.41 284.03,-139.91 C281.90,-140.75 275.37,-142.25 273.34,-142.18 C272.50,-142.12 269.28,-141.07 268.16,-140.46 C266.99,-139.81 264.67,-136.66 263.84,-135.90 C263.71,-135.77 259.54,-134.63 257.97,-134.08" fill="none" stroke="rgb(254, 240, 0)" stroke-width="3.43" stroke-opacity="1.00" stroke-linejoin="round"/>
</g>
</svg>
