<?xml version="1.0" encoding="UTF-8" standalone="no"?>
<!DOCTYPE svg PUBLIC "-//W3C//DTD SVG 1.1//EN" "http://www.w3.org/Graphics/SVG/1.1/DTD/svg11.dtd">
<svg width="64.20" height="90.84" viewBox="0.00 0.00 535.00 757.00" xmlns="http://www.w3.org/2000/svg" xmlns:xlink="http://www.w3.org/1999/xlink">
<g stroke-linecap="round" transform="translate(156.00, 267.00)" id="17-우산">
<path d="M82.33,-118.94 C82.17,-118.94 81.94,-118.95 81.76,-119.01 C81.42,-119.23 79.01,-124.44 78.51,-127.00 C77.99,-129.78 77.87,-135.38 78.13,-136.12 C78.43,-136.84 79.75,-137.24 80.66,-136.70 C81.78,-136.00 83.65,-132.81 84.43,-130.02 C85.22,-127.05 85.65,-120.68 85.72,-120.42 C85.80,-120.13 86.12,-119.63 86.35,-119.36" fill="none" stroke="rgb(255, 242, 0)" stroke-width="3.33" stroke-opacity="1.00" stroke-linejoin="round"/>
<path d="M87.39,-115.65 C84.75,-116.13 78.71,-117.18 75.68,-117.16 C73.09,-117.13 58.33,-112.73 51.09,-110.59 C44.11,-108.52 36.80,-104.62 26.03,-98.18 C18.03,-93.28 10.04,-87.68 4.34,-82.95 C-0.54,-78.89 -9.35,-70.01 -15.10,-62.70 C-19.07,-57.58 -25.32,-47.84 -28.31,-41.89 C-31.55,-35.25 -35.27,-26.15 -36.79,-21.92 C-39.31,-14.75 -41.06,-6.44 -41.79,-1.28 C-41.79,-1.28 -41.15,-2.67 -41.15,-2.67" fill="none" stroke="rgb(255, 242, 0)" stroke-width="3.33" stroke-opacity="1.00" stroke-linejoin="round"/>
<path d="M-39.71,-14.78 C-40.34,-14.05 -40.90,-13.18 -41.57,-11.83 C-43.23,-8.43 -45.27,0.74 -45.17,6.26 C-45.05,11.24 -43.93,17.57 -43.78,18.33 C-43.78,18.33 -43.22,18.64 -43.22,18.64" fill="none" stroke="rgb(255, 242, 0)" stroke-width="3.33" stroke-opacity="1.00" stroke-linejoin="round"/>
<path d="M-38.27,22.40 C-38.27,22.40 -38.55,22.17 -38.55,22.17 C-38.43,21.18 -36.56,19.19 -33.74,16.97 C-32.09,15.68 -26.86,12.29 -24.84,11.85 C-23.22,11.50 -12.76,10.43 -10.46,10.73 C-4.48,11.58 7.10,17.84 14.40,22.12 C20.52,25.77 29.41,32.80 29.47,32.81 C29.61,32.85 30.09,32.94 30.90,33.06" fill="none" stroke="rgb(255, 242, 0)" stroke-width="3.33" stroke-opacity="1.00" stroke-linejoin="round"/>
<path d="M68.66,-99.51 C68.15,-99.76 67.24,-99.86 66.40,-99.68 C65.30,-99.42 61.99,-96.10 59.53,-92.69 C53.61,-84.45 50.09,-77.90 47.02,-70.64 C40.96,-55.93 37.72,-41.96 33.52,-20.11 C32.86,-16.40 31.43,15.45 31.51,31.73 C31.51,31.73 32.34,32.49 32.34,32.49" fill="none" stroke="rgb(255, 242, 0)" stroke-width="3.33" stroke-opacity="1.00" stroke-linejoin="round"/>
<path d="M33.21,34.51 C33.21,34.51 33.06,34.51 33.06,34.51 C32.87,34.29 33.01,32.39 34.99,28.76 C36.32,26.37 38.78,23.51 40.61,22.20 C44.31,19.63 53.15,16.75 62.69,14.54 C67.39,13.47 73.48,12.93 77.78,13.52 C88.07,15.01 104.62,22.16 109.33,24.56 C113.63,26.71 115.48,27.26 117.93,26.64 C118.52,26.47 120.21,25.63 120.53,25.23 C120.70,25.01 121.11,24.39 121.73,23.38" fill="none" stroke="rgb(255, 242, 0)" stroke-width="3.33" stroke-opacity="1.00" stroke-linejoin="round"/>
<path d="M93.44,-94.04 C93.44,-94.04 93.30,-93.75 93.30,-93.75 C93.30,-93.75 93.16,-93.75 93.16,-93.75 C95.79,-92.72 97.68,-90.82 99.57,-87.89 C102.82,-82.79 108.24,-68.91 110.45,-61.86 C112.22,-56.07 116.77,-32.35 116.79,-32.24 C117.19,-29.92 118.81,-14.18 119.31,-4.09 C119.55,3.27 119.92,18.66 119.97,19.10 C120.03,19.56 120.22,20.28 120.54,21.25" fill="none" stroke="rgb(255, 242, 0)" stroke-width="3.33" stroke-opacity="1.00" stroke-linejoin="round"/>
<path d="M92.87,-118.53 C92.82,-118.52 99.24,-119.35 101.68,-119.40 C109.83,-119.55 134.95,-116.91 142.76,-115.02 C145.45,-114.35 182.54,-97.47 190.89,-91.94 C196.21,-88.36 209.89,-74.90 212.38,-72.58 C216.59,-68.65 225.32,-59.24 229.36,-53.59 C236.90,-42.88 247.24,-28.16 256.34,-16.18 C258.23,-13.57 270.04,7.97 273.52,13.78 C273.52,13.78 273.00,14.33 273.00,14.33" fill="none" stroke="rgb(255, 242, 0)" stroke-width="3.33" stroke-opacity="1.00" stroke-linejoin="round"/>
<path d="M119.67,25.57 C119.67,25.57 119.38,25.57 119.38,25.57 C119.32,25.61 122.59,22.29 125.26,20.56 C130.90,17.03 139.38,10.57 142.50,9.16 C145.62,7.78 150.30,5.94 151.05,5.74 C153.97,5.01 159.68,5.39 161.15,5.92 C162.94,6.62 166.33,11.98 167.42,13.55 C170.44,17.86 172.84,20.69 174.94,22.36 C178.00,24.83 181.10,27.05 184.11,28.78 C186.53,30.13 189.65,30.77 191.79,30.71 C193.49,30.60 196.47,27.28 198.30,25.15 C201.63,21.54 212.49,13.97 218.20,11.26 C221.99,9.50 227.72,8.29 231.45,9.08 C234.29,9.71 240.12,12.12 242.85,13.74 C246.04,15.73 251.96,19.29 254.51,20.28 C256.73,21.12 262.30,22.35 263.66,22.30 C265.86,22.20 268.35,21.65 269.15,21.02 C270.17,20.15 274.62,13.41 275.67,12.91 C276.68,12.50 278.03,12.46 279.20,12.85 C281.72,13.76 285.90,17.84 286.82,19.12 C286.94,19.28 287.04,19.51 287.12,19.81" fill="none" stroke="rgb(255, 242, 0)" stroke-width="3.33" stroke-opacity="1.00" stroke-linejoin="round"/>
<path d="M117.94,-94.90 C117.94,-94.90 117.65,-95.62 117.65,-95.62 C117.65,-95.62 117.86,-96.30 117.86,-96.30 C121.02,-96.33 124.69,-95.74 128.11,-93.99 C135.33,-90.28 150.58,-80.81 151.15,-80.44 C152.28,-79.71 163.82,-71.09 167.35,-68.51 C171.74,-65.22 179.33,-57.76 182.45,-53.78 C185.53,-49.82 193.49,-37.16 195.02,-33.84 C196.80,-29.94 204.30,-1.49 204.36,-0.68 C204.36,-0.68 201.52,-0.66 201.52,-0.66" fill="none" stroke="rgb(255, 242, 0)" stroke-width="3.33" stroke-opacity="1.00" stroke-linejoin="round"/>
<path d="M105.45,26.51 C105.45,26.51 104.53,23.87 104.53,23.87 C104.55,30.55 106.94,38.78 108.47,46.73 C111.22,60.61 116.38,87.41 118.79,100.33 C121.00,112.26 122.16,127.19 122.40,130.40 C122.85,136.29 122.96,148.42 122.67,157.29 C122.03,169.41 121.21,179.38 120.01,187.11 C118.78,194.27 115.97,210.37 115.39,212.28 C113.76,217.50 108.95,228.46 105.79,233.93 C104.21,236.62 89.39,254.55 88.00,256.07 C84.37,259.98 80.46,261.79 80.29,261.82 C80.29,261.82 79.44,259.79 79.44,259.79" fill="none" stroke="rgb(255, 242, 0)" stroke-width="3.33" stroke-opacity="1.00" stroke-linejoin="round"/>
<path d="M113.11,28.65 C113.11,28.65 113.11,28.50 113.11,28.50 C113.13,29.06 113.46,31.16 113.87,33.20 C117.06,49.33 119.00,65.45 122.14,83.13 C124.13,94.12 125.17,104.90 125.86,112.52 C126.87,121.75 127.14,128.23 127.24,139.35 C127.24,147.53 127.15,167.18 126.95,170.79 C126.54,175.82 125.44,192.75 125.13,195.69 C124.35,202.72 120.61,218.85 118.21,223.80 C117.75,224.73 114.83,229.98 114.02,231.92 C111.40,238.70 108.50,243.65 104.84,247.83 C102.35,250.64 99.15,251.84 98.48,251.98 C98.48,251.98 97.80,247.23 97.80,247.23" fill="none" stroke="rgb(255, 242, 0)" stroke-width="3.33" stroke-opacity="1.00" stroke-linejoin="round"/>
</g>
</svg>
