<?xml version="1.0" encoding="UTF-8" standalone="no"?>
<!DOCTYPE svg PUBLIC "-//W3C//DTD SVG 1.1//EN" "http://www.w3.org/Graphics/SVG/1.1/DTD/svg11.dtd">
<svg width="128.40" height="181.68" viewBox="0.00 0.00 535.00 757.00" xmlns="http://www.w3.org/2000/svg" xmlns:xlink="http://www.w3.org/1999/xlink">
<g stroke-linecap="round" transform="translate(44.00, 155.00)" id="170-우산">
<path d="M212.92,184.10 C212.92,184.10 212.61,183.40 212.61,183.40 C212.61,190.01 213.12,204.99 213.45,208.50 C214.02,214.41 217.24,230.45 218.72,233.34 C218.93,233.75 219.39,234.52 220.09,235.65" fill="none" stroke="rgb(0, 255, 255)" stroke-width="2.17" stroke-opacity="1.00" stroke-linejoin="round"/>
<path d="M218.49,184.72 C218.49,184.72 218.18,184.72 218.18,184.72 C218.18,185.44 218.16,187.20 218.15,188.25 C218.02,194.21 217.81,206.27 218.40,211.22 C219.30,218.11 220.92,230.41 223.51,237.14 C223.65,237.51 224.57,238.57 225.65,239.85" fill="none" stroke="rgb(0, 255, 255)" stroke-width="2.17" stroke-opacity="1.00" stroke-linejoin="round"/>
<path d="M233.97,190.29 C233.97,190.29 233.50,190.19 233.50,190.19 C233.31,189.68 233.18,189.45 232.37,188.21 C230.21,184.94 227.39,181.95 225.85,181.19 C224.28,180.46 218.06,179.69 215.23,179.92 C212.39,180.20 207.79,181.95 205.59,183.62 C204.53,184.45 202.72,186.42 202.15,187.47 C201.74,188.24 199.39,193.57 199.01,194.17 C198.62,192.17 196.26,187.61 194.35,185.60 C192.59,183.79 189.93,182.67 187.36,182.34 C184.68,182.03 179.67,182.59 177.85,183.71 C175.96,184.92 173.82,188.66 172.85,191.64 C172.37,193.13 171.94,194.27 171.48,195.33 C170.45,192.56 171.69,182.24 172.99,177.02 C173.72,174.12 175.83,166.79 177.23,164.42 C178.77,161.88 183.17,157.31 184.95,155.72 C188.31,152.75 194.16,148.86 197.75,147.42 C201.33,146.01 213.52,143.94 218.38,144.26 C220.99,144.46 228.28,145.71 231.69,146.33 C235.78,147.14 240.08,148.79 242.09,150.29 C243.24,151.15 250.51,158.62 251.30,159.55 C253.61,162.34 255.71,166.39 256.58,170.02 C259.01,180.33 260.93,190.56 260.29,192.62 C252.97,187.09 246.75,183.57 242.43,182.12 C240.37,181.46 238.08,181.30 236.31,181.73 C234.77,182.13 232.39,184.75 231.82,186.55 C231.53,187.55 231.42,192.62 231.22,193.97 C231.22,193.97 231.18,194.00 231.18,194.00" fill="none" stroke="rgb(0, 255, 255)" stroke-width="2.17" stroke-opacity="1.00" stroke-linejoin="round"/>
<path d="M214.47,181.62 C214.47,181.62 213.38,181.62 213.38,181.62 C213.38,181.62 213.23,181.12 213.23,181.12 C213.23,181.12 213.71,184.71 213.71,184.71" fill="none" stroke="rgb(0, 255, 255)" stroke-width="2.17" stroke-opacity="1.00" stroke-linejoin="round"/>
<path d="M218.49,182.86 C218.49,182.86 217.56,182.86 217.56,182.86 C217.56,182.86 218.18,187.60 218.18,187.60" fill="none" stroke="rgb(0, 255, 255)" stroke-width="2.17" stroke-opacity="1.00" stroke-linejoin="round"/>
</g>
</svg>
