<?xml version="1.0" encoding="UTF-8" standalone="no"?>
<!DOCTYPE svg PUBLIC "-//W3C//DTD SVG 1.1//EN" "http://www.w3.org/Graphics/SVG/1.1/DTD/svg11.dtd">
<svg width="128.40" height="181.68" viewBox="0.00 0.00 535.00 757.00" xmlns="http://www.w3.org/2000/svg" xmlns:xlink="http://www.w3.org/1999/xlink">
<g stroke-linecap="round" transform="translate(44.00, 155.00)" id="170-구름-2">
<path d="M122.16,-76.09 C121.52,-75.75 121.07,-75.49 120.82,-75.33 C120.56,-75.16 120.12,-74.85 119.52,-74.40 C119.65,-74.30 121.75,-74.59 122.60,-74.64 C123.40,-74.68 124.60,-74.08 125.20,-73.48 C126.25,-72.30 127.35,-66.25 126.76,-63.63 C126.18,-61.30 123.77,-57.36 122.25,-56.32 C120.75,-55.36 116.02,-55.03 115.50,-54.92 C115.01,-54.18 114.23,-47.82 114.09,-47.14 C113.78,-45.65 112.88,-43.77 112.16,-43.18 C111.00,-42.31 106.07,-41.52 103.88,-41.85 C101.81,-42.19 96.87,-44.64 94.94,-45.64 C93.95,-44.47 90.82,-39.74 89.01,-38.04 C86.27,-35.53 79.09,-32.36 76.12,-32.57 C74.39,-32.74 71.62,-34.29 70.55,-35.71 C68.67,-38.34 67.88,-42.21 67.73,-43.99 C66.43,-40.76 61.95,-35.46 59.20,-33.43 C57.78,-32.43 54.54,-30.90 53.48,-30.83 C52.29,-30.81 49.86,-32.32 48.64,-33.72 C46.78,-35.94 44.48,-42.21 44.16,-44.06 C42.86,-43.92 38.15,-41.72 36.57,-41.56 C35.33,-41.44 33.26,-41.83 32.69,-42.23 C31.46,-43.23 29.74,-48.61 30.25,-51.85 C30.64,-54.01 32.55,-56.99 34.18,-58.02 C35.64,-58.90 40.36,-60.26 41.45,-60.47 C41.49,-61.58 41.73,-67.75 42.47,-70.49 C43.24,-73.21 45.82,-78.60 47.33,-80.57 C48.84,-82.48 52.71,-84.93 54.65,-85.40 C57.00,-85.94 59.88,-85.90 61.99,-85.33 C62.75,-85.04 64.37,-84.45 64.61,-84.08 C64.81,-83.75 65.28,-82.75 65.99,-81.07" fill="none" stroke="rgb(255, 0, 255)" stroke-width="2.17" stroke-opacity="1.00" stroke-linejoin="round"/>
<path d="M66.90,-81.53 C66.90,-81.53 65.54,-80.62 65.54,-80.62 C67.26,-82.87 71.15,-87.97 72.85,-89.23 C74.78,-90.62 81.79,-92.19 83.07,-92.17 C84.87,-92.10 86.18,-91.11 88.06,-88.60 C88.54,-87.93 93.31,-82.55 93.51,-80.66 C93.54,-80.28 93.52,-79.45 93.45,-78.18 C93.38,-79.45 96.47,-83.82 98.52,-85.58 C100.29,-87.05 104.59,-89.58 107.52,-89.97 C108.67,-90.10 111.31,-89.69 112.19,-89.16 C114.01,-87.99 115.92,-86.21 116.49,-85.12 C117.44,-83.19 118.28,-79.73 118.52,-77.39 C118.57,-76.92 118.73,-75.89 118.99,-74.28" fill="none" stroke="rgb(255, 0, 255)" stroke-width="2.17" stroke-opacity="1.00" stroke-linejoin="round"/>
</g>
</svg>
