<?xml version="1.0" encoding="UTF-8" standalone="no"?>
<!DOCTYPE svg PUBLIC "-//W3C//DTD SVG 1.1//EN" "http://www.w3.org/Graphics/SVG/1.1/DTD/svg11.dtd">
<svg width="128.40" height="181.68" viewBox="0.00 0.00 535.00 757.00" xmlns="http://www.w3.org/2000/svg" xmlns:xlink="http://www.w3.org/1999/xlink">
<g stroke-linecap="round" transform="translate(44.00, 155.00)" id="170-구름-3">
<path d="M359.52,-85.60 C359.30,-85.02 359.15,-84.65 359.06,-84.47 C358.97,-84.29 358.82,-84.07 358.61,-83.79 C358.88,-84.68 359.57,-90.83 359.31,-93.36 C359.02,-95.74 356.76,-101.71 355.35,-102.69 C353.91,-103.61 346.92,-103.71 343.56,-102.45 C341.20,-101.54 333.32,-96.84 331.62,-94.86 C329.60,-92.43 328.82,-88.70 329.24,-87.01 C324.55,-84.06 318.53,-77.76 316.14,-73.73 C315.51,-72.62 314.71,-70.01 314.57,-68.50 C314.45,-66.96 316.74,-64.30 318.85,-63.50 C320.75,-62.83 325.80,-62.42 327.85,-62.75 C329.83,-63.09 332.66,-64.32 332.96,-64.56 C331.61,-62.88 329.18,-57.34 329.52,-53.40 C329.62,-52.48 330.49,-50.75 331.00,-50.05 C332.23,-48.56 337.41,-47.60 341.51,-47.74 C348.76,-48.16 352.55,-50.18 352.70,-50.36 C352.47,-50.28 351.95,-48.15 351.88,-46.48 C351.83,-45.04 352.79,-41.95 353.62,-40.45 C354.53,-38.88 358.03,-36.84 360.30,-36.61 C362.63,-36.44 367.13,-38.00 369.58,-39.82 C371.09,-40.99 373.35,-43.24 374.02,-44.52 C374.30,-45.07 374.60,-46.08 374.92,-47.55" fill="none" stroke="rgb(255, 0, 255)" stroke-width="2.17" stroke-opacity="1.00" stroke-linejoin="round"/>
<path d="M376.28,-46.19 C376.28,-46.19 376.05,-46.19 376.05,-46.19 C376.05,-46.19 375.60,-46.65 375.60,-46.65 C375.48,-46.65 376.95,-41.94 382.05,-39.77 C384.33,-38.89 388.68,-39.68 390.94,-41.20 C396.16,-44.98 394.88,-51.01 394.19,-52.55 C395.66,-50.49 396.96,-49.05 398.25,-48.28 C399.63,-47.49 402.39,-46.79 403.88,-46.92 C405.43,-47.11 407.89,-48.66 408.92,-50.08 C409.82,-51.40 410.92,-54.61 411.15,-56.38 C411.43,-58.88 410.38,-63.21 410.33,-63.26 C412.85,-62.83 417.23,-64.58 419.13,-66.08 C421.07,-67.67 423.82,-72.35 424.44,-74.80 C424.94,-76.88 424.68,-81.87 422.96,-84.31 C419.11,-89.58 414.48,-87.66 414.03,-87.33 C413.95,-87.50 414.33,-92.76 413.68,-95.10 C412.94,-97.58 410.72,-100.24 408.76,-100.62 C407.03,-100.90 402.57,-100.60 400.23,-99.89 C397.80,-99.10 392.62,-96.13 391.06,-93.71 C389.93,-91.93 388.43,-86.95 388.08,-85.79 C387.95,-86.01 385.55,-91.40 383.56,-94.90 C382.31,-97.08 377.74,-102.14 375.58,-102.78 C373.38,-103.39 367.76,-101.76 365.53,-99.86 C364.21,-98.71 361.86,-95.70 360.88,-94.02 C360.58,-93.50 359.91,-91.38 359.06,-88.77" fill="none" stroke="rgb(255, 0, 255)" stroke-width="2.17" stroke-opacity="1.00" stroke-linejoin="round"/>
</g>
</svg>
