<?xml version="1.0" encoding="UTF-8" standalone="no"?>
<!DOCTYPE svg PUBLIC "-//W3C//DTD SVG 1.1//EN" "http://www.w3.org/Graphics/SVG/1.1/DTD/svg11.dtd">
<svg width="128.40" height="181.68" viewBox="0.00 0.00 535.00 757.00" xmlns="http://www.w3.org/2000/svg" xmlns:xlink="http://www.w3.org/1999/xlink">
<g stroke-linecap="round" transform="translate(44.00, 155.00)" id="171-구름-7">
<path d="M323.65,59.34 C323.65,59.34 321.97,63.07 321.97,63.07 C322.01,60.16 322.51,52.90 321.86,50.25 C321.10,47.39 317.81,43.32 315.65,42.36 C314.26,41.78 309.31,40.44 307.61,40.22 C305.44,39.97 301.06,40.93 298.69,41.87 C296.31,42.84 291.57,45.79 289.71,47.71 C287.67,49.87 284.65,56.27 284.13,58.44 C283.89,59.53 283.36,64.99 283.88,68.21 C284.41,71.37 287.76,78.67 289.92,81.02 C292.03,83.23 297.92,85.86 301.17,85.80 C304.48,85.68 310.19,82.83 312.75,80.45 C316.36,77.02 320.37,70.72 320.87,69.93 C321.23,70.88 322.07,78.10 323.03,80.66 C323.37,81.51 325.17,85.01 325.70,85.69 C326.69,86.90 329.13,88.35 330.61,88.56 C332.98,88.82 339.37,86.11 341.74,84.51 C344.80,82.41 348.09,79.71 349.49,78.03 C351.37,75.74 353.33,72.59 354.04,70.82 C355.36,67.40 356.41,60.70 356.32,57.37 C356.18,54.08 354.67,49.71 353.06,48.35 C351.48,47.09 347.00,46.11 344.27,46.44 C341.81,46.76 335.90,49.04 333.54,50.71 C332.80,51.24 329.98,53.53 329.44,54.06 C327.89,55.62 325.72,59.72 324.78,61.59" fill="none" stroke="rgb(0, 255, 0)" stroke-width="3.35" stroke-opacity="1.00" stroke-linejoin="round"/>
</g>
</svg>
