<?xml version="1.0" encoding="UTF-8" standalone="no"?>
<!DOCTYPE svg PUBLIC "-//W3C//DTD SVG 1.1//EN" "http://www.w3.org/Graphics/SVG/1.1/DTD/svg11.dtd">
<svg width="128.40" height="181.68" viewBox="0.00 0.00 535.00 757.00" xmlns="http://www.w3.org/2000/svg" xmlns:xlink="http://www.w3.org/1999/xlink">
<g stroke-linecap="round" transform="translate(44.00, 155.00)" id="171-사람">
<path d="M198.32,161.65 C198.32,161.65 196.49,161.58 196.49,161.58 C199.84,159.06 205.75,155.92 208.44,155.66 C209.98,155.55 212.61,156.25 213.64,157.00 C214.51,157.69 215.34,159.40 215.23,160.26 C214.96,161.78 211.59,164.81 208.03,166.58 C205.21,167.98 204.72,168.26 204.35,168.66 C205.11,168.73 208.40,168.60 208.77,168.64 C210.70,168.90 213.60,170.73 214.59,172.21 C215.04,172.93 214.77,174.48 214.39,175.09 C213.78,175.92 210.50,176.70 209.27,176.94 C209.74,179.02 210.52,182.07 210.46,182.63 C210.29,183.99 208.71,185.88 207.42,186.46 C206.58,186.82 205.35,187.15 204.56,187.24 C203.09,187.27 201.65,185.25 200.50,182.96 C200.07,182.10 199.65,181.24 199.23,180.38" fill="none" stroke="rgb(255, 0, 255)" stroke-width="3.35" stroke-opacity="1.00" stroke-linejoin="round"/>
<path d="M244.46,171.25 C244.46,171.25 243.87,171.25 243.87,171.25 C242.63,167.95 241.37,165.20 239.63,163.35 C237.83,161.50 234.15,160.10 232.83,160.37 C231.33,160.70 229.78,161.89 229.10,163.18 C228.85,163.70 228.92,164.73 229.13,165.26 C229.65,166.34 237.16,169.78 238.15,170.51 C237.75,170.87 229.96,172.65 229.07,173.58 C228.95,173.71 228.69,174.07 228.30,174.66 C229.68,176.49 230.67,177.32 232.08,177.62 C235.04,178.25 238.29,178.57 238.74,178.51 C231.46,177.37 228.50,182.47 228.11,183.66 C228.45,184.76 229.12,185.61 230.25,186.12 C232.24,187.00 236.21,186.78 237.60,186.40 C237.60,186.40 234.54,190.38 234.54,190.38 C236.00,191.54 237.28,191.87 238.66,191.18 C239.83,190.59 243.22,187.87 244.01,187.24" fill="none" stroke="rgb(255, 0, 255)" stroke-width="3.35" stroke-opacity="1.00" stroke-linejoin="round"/>
<path d="M244.01,173.07 C244.01,173.07 243.55,172.62 243.55,172.62 C243.92,178.81 244.26,186.79 244.33,187.05 C244.44,187.48 244.79,188.30 245.38,189.52" fill="none" stroke="rgb(255, 0, 255)" stroke-width="3.35" stroke-opacity="1.00" stroke-linejoin="round"/>
<path d="M249.94,170.33 C249.94,170.33 246.82,170.33 246.82,170.33 C254.06,169.93 266.41,169.32 275.26,169.89 C280.24,170.25 282.99,171.07 287.76,173.32 C289.68,174.16 293.45,175.88 295.41,177.02 C297.81,178.46 301.48,181.92 302.42,184.00 C303.98,187.44 306.75,198.52 308.10,205.28 C309.22,211.21 311.36,227.19 312.38,235.24 C313.46,244.47 313.27,257.23 311.95,264.36 C310.59,271.50 306.35,284.30 303.76,288.31 C301.48,291.76 291.51,301.91 285.87,306.06 C279.19,310.85 271.28,314.62 266.56,316.10 C262.14,317.45 252.80,318.03 248.12,317.54 C245.59,317.27 243.89,316.90 242.45,316.30 C242.04,316.12 241.49,315.90 240.81,315.63" fill="none" stroke="rgb(255, 0, 255)" stroke-width="3.35" stroke-opacity="1.00" stroke-linejoin="round"/>
<path d="M238.52,292.32 C238.52,292.32 236.92,293.92 236.92,293.92 C237.56,294.39 238.03,294.67 238.31,294.78 C240.73,295.65 258.80,295.28 263.27,293.65 C266.96,292.26 270.83,289.77 273.90,287.28 C276.77,284.89 286.20,272.92 287.82,269.96 C290.01,265.87 294.04,250.65 294.58,243.97 C295.06,237.60 294.30,229.00 292.37,217.96 C291.55,213.47 290.98,211.32 289.43,206.81 C287.77,202.09 285.61,198.00 283.17,194.99 C280.87,192.27 276.94,189.35 272.27,187.09 C268.46,185.29 260.78,182.75 257.42,182.31 C255.68,182.10 251.13,182.10 248.22,182.85 C246.84,183.21 243.82,184.03 242.18,184.50" fill="none" stroke="rgb(255, 0, 255)" stroke-width="3.35" stroke-opacity="1.00" stroke-linejoin="round"/>
<path d="M196.94,160.74 C196.94,160.74 196.15,186.69 196.15,186.69 C196.15,186.69 196.49,186.78 196.49,186.78" fill="none" stroke="rgb(255, 0, 255)" stroke-width="3.35" stroke-opacity="1.00" stroke-linejoin="round"/>
<path d="M196.03,161.19 C195.16,161.18 194.71,161.21 194.66,161.19 C192.98,160.59 187.56,161.21 184.64,162.10 C183.60,162.42 167.23,167.24 160.29,170.22 C154.31,172.81 143.91,178.87 137.31,183.39 C129.29,189.02 122.14,194.99 118.22,199.82 C115.63,203.04 111.99,208.74 110.33,212.30 C108.72,215.85 106.27,223.05 105.47,226.67 C103.90,233.90 102.96,249.18 103.49,256.42 C103.82,260.57 108.49,278.15 109.98,281.61 C112.79,288.04 119.38,297.97 123.25,301.81 C126.85,305.34 137.70,311.49 143.48,313.68 C149.69,316.01 161.05,317.94 165.84,317.61 C167.16,317.52 172.65,316.91 173.78,316.72 C174.36,316.62 175.38,316.41 176.84,316.08" fill="none" stroke="rgb(255, 0, 255)" stroke-width="3.35" stroke-opacity="1.00" stroke-linejoin="round"/>
<path d="M176.84,285.93 C176.84,285.93 175.70,286.16 175.70,286.16 C175.49,287.41 174.91,289.45 174.39,290.39 C173.82,291.38 169.01,294.85 165.87,296.56 C161.89,298.71 157.35,300.39 154.88,300.31 C153.01,300.22 148.00,298.17 147.04,297.48 C145.84,296.61 138.73,290.38 137.81,289.54 C135.36,287.25 131.97,283.00 130.70,280.74 C129.32,278.27 127.23,272.01 126.63,268.76 C125.82,264.27 125.66,249.67 126.19,244.28 C126.81,238.11 129.41,227.14 132.03,221.10 C133.38,218.08 142.78,205.59 145.74,202.77 C148.28,200.42 150.73,198.72 154.06,197.20 C162.57,193.41 173.83,189.37 181.23,187.84 C183.09,187.46 193.10,185.39 194.42,185.21 C194.86,185.15 195.24,185.22 195.57,185.41" fill="none" stroke="rgb(255, 0, 255)" stroke-width="3.35" stroke-opacity="1.00" stroke-linejoin="round"/>
<path d="M190.09,223.33 C190.09,223.33 190.09,217.22 190.09,217.22 C190.09,220.81 190.09,227.47 190.25,232.56 C190.43,236.95 191.10,238.47 192.39,240.22 C194.23,239.53 195.29,238.83 196.07,237.56 C199.06,232.59 200.79,223.11 200.93,218.57 C199.76,222.28 198.03,237.44 197.76,243.57 C197.62,247.18 197.87,248.93 198.38,251.36 C200.65,251.31 201.97,250.47 203.19,248.03 C206.16,242.04 210.52,228.63 212.16,220.79 C212.69,218.26 214.01,210.68 213.81,210.84 C209.81,229.13 209.11,243.26 209.12,244.32 C209.14,246.26 209.79,247.52 211.14,248.71 C212.88,247.22 213.91,245.98 214.71,244.10 C217.38,237.83 219.66,227.93 221.92,215.61 C222.28,213.51 222.48,211.91 222.47,211.53 C221.64,215.96 218.81,233.28 218.44,236.31 C218.20,238.46 217.77,242.32 218.91,245.83 C220.82,244.12 221.91,242.84 222.74,241.11 C229.39,227.14 232.48,211.32 232.66,210.21 C231.18,214.91 228.29,228.19 227.13,235.93 C225.83,245.25 226.18,247.85 226.90,249.48 C228.88,247.05 230.98,241.85 232.12,238.98 C233.78,234.63 238.92,219.21 241.18,212.24 C235.39,236.62 233.75,245.13 232.60,253.18 C232.44,254.32 232.57,255.60 233.04,258.06 C235.00,256.50 236.73,252.17 237.41,249.80 C238.43,246.27 245.15,216.34 245.50,215.04 C244.59,221.72 237.51,257.54 236.55,268.05 C236.30,270.85 236.47,272.79 237.04,274.54 C238.76,272.25 240.24,268.00 241.42,263.32 C244.64,249.45 248.80,231.98 250.78,227.44 C250.54,230.29 247.44,244.64 245.81,252.19 C243.93,261.36 242.83,270.83 242.98,272.79 C244.46,271.86 246.23,268.43 248.42,262.67 C251.32,254.56 254.64,245.22 255.07,244.01 C253.43,249.02 252.02,253.86 251.18,257.51 C250.52,260.44 249.52,267.03 249.93,270.69 C251.72,270.18 252.68,269.44 253.45,267.73 C254.22,266.03 254.66,264.65 255.18,262.55 C254.39,262.47 253.70,262.87 252.95,264.15 C251.70,266.31 249.55,271.88 249.17,274.50 C248.83,276.86 249.48,278.77 250.78,280.26 C253.38,279.75 254.90,279.17 256.20,278.03 C258.17,276.27 262.35,271.32 262.69,269.46 C262.76,269.07 262.64,268.54 262.35,267.87 C261.14,267.56 259.28,268.04 257.79,269.36 C256.41,270.62 254.94,273.68 254.92,275.37 C254.93,277.41 256.22,279.04 258.35,280.25 C262.21,279.40 264.63,278.21 267.47,274.66 C268.47,273.37 270.62,269.47 271.43,267.41 C274.03,260.59 273.20,255.30 272.60,253.45 C272.60,253.45 269.63,252.20 269.63,252.20 C267.43,253.84 265.09,258.60 264.26,261.17 C263.52,263.53 262.81,268.11 262.73,270.24 C262.65,272.56 263.71,274.09 266.15,275.55 C268.92,274.56 273.01,270.52 274.73,267.90 C277.67,263.28 280.99,253.85 281.37,249.06 C281.51,247.13 281.20,241.80 280.29,239.86 C279.74,238.78 277.71,237.44 276.49,237.34 C274.02,237.22 269.29,241.35 267.74,243.71 C265.08,247.90 263.23,256.35 263.31,258.25 C263.46,260.70 264.40,263.49 265.59,264.53 C266.68,265.41 269.48,265.94 271.11,265.60 C274.02,264.91 278.49,260.96 279.95,258.98 C281.15,257.30 283.13,253.36 283.80,251.34 C284.55,249.01 285.33,243.08 284.67,239.70 C283.87,235.82 282.23,233.18 279.54,230.24 C276.86,230.81 275.33,231.81 274.48,233.79 C273.73,235.54 272.62,240.07 272.50,241.77 C272.36,244.11 272.75,245.78 273.74,247.06 C274.03,247.42 274.40,247.90 274.83,248.51 C276.25,248.38 277.87,247.71 279.16,246.43 C281.32,244.27 284.18,239.16 284.98,237.25 C285.93,234.94 287.15,230.37 287.38,228.16 C287.60,225.93 287.22,222.00 286.61,219.63 C285.84,216.88 282.16,210.83 279.57,209.85 C278.20,209.41 275.51,210.13 274.16,211.34 C271.90,213.44 269.70,218.31 269.08,220.39 C268.73,221.65 268.36,224.61 268.45,226.11 C268.57,227.74 269.74,229.90 270.73,230.45 C271.67,230.91 274.04,230.86 275.30,230.38 C276.60,229.84 278.79,228.07 279.72,226.80 C280.61,225.52 281.83,222.49 282.12,220.82 C282.62,217.42 280.60,209.76 278.67,206.46 C277.80,205.03 275.47,202.27 274.66,201.88 C274.14,201.64 271.57,201.53 270.35,201.46 C268.08,203.13 266.09,208.53 265.76,210.67 C265.06,215.54 265.73,218.42 266.33,219.60 C266.33,219.60 268.73,220.31 268.73,220.31 C270.64,219.26 272.14,217.46 272.78,215.15 C273.24,213.39 271.92,207.09 270.42,204.44 C268.43,201.11 266.49,199.49 263.88,197.76 C263.88,197.76 261.07,199.12 261.07,199.12 C259.65,201.71 258.68,209.42 259.50,211.19 C259.76,211.74 260.52,212.82 261.80,214.45 C264.47,213.22 265.90,212.12 266.76,210.30 C268.52,206.48 269.38,199.12 268.45,195.68 C268.02,194.23 267.14,192.88 265.90,191.65 C264.71,190.60 262.30,189.86 260.43,190.16 C257.08,190.75 254.79,193.72 254.42,194.79 C256.23,195.91 257.80,196.13 259.13,195.08 C260.38,194.05 261.78,191.36 261.82,189.75 C261.85,187.73 260.53,186.02 258.39,184.72 C255.29,185.16 253.71,185.59 252.69,186.41 C251.66,187.23 251.10,188.24 250.48,190.11 C250.48,190.11 251.96,191.32 251.96,191.32 C254.61,190.98 256.17,190.57 257.27,189.75 C258.36,188.92 259.63,187.55 260.33,186.43 C261.02,185.32 261.22,183.68 261.20,180.82 C261.20,180.82 259.14,178.88 259.14,178.88 C256.53,179.45 252.77,182.26 251.49,184.89 C250.35,187.35 250.76,191.00 250.86,192.26" fill="none" stroke="rgb(255, 0, 255)" stroke-width="3.35" stroke-opacity="1.00" stroke-linejoin="round"/>
<path d="M223.44,181.75 C223.59,181.80 222.40,179.55 222.35,179.40 C222.16,178.77 221.98,173.92 221.69,173.16 C219.15,174.47 217.95,175.45 217.37,176.91 C216.80,178.36 216.33,179.91 216.04,181.21 C215.74,182.60 216.01,184.14 216.87,186.73 C216.87,186.73 219.29,187.77 219.29,187.77 C221.83,186.50 223.24,185.50 223.88,184.26 C224.53,182.97 224.94,181.43 225.05,179.84 C225.13,178.24 224.54,176.93 222.96,174.89 C220.62,174.59 219.26,174.75 218.33,175.70 C216.40,177.72 214.38,182.40 214.02,185.29 C213.83,186.97 214.12,188.20 215.02,190.03 C217.57,189.63 219.13,188.45 218.87,186.54 C218.80,186.06 218.50,185.19 217.97,183.91 C217.97,183.91 215.60,183.29 215.60,183.29 C213.35,184.40 211.25,185.92 210.00,187.54 C209.01,188.83 208.51,190.30 208.56,191.11 C210.14,190.70 211.42,187.67 211.84,185.64 C211.84,185.64 211.00,184.03 211.00,184.03 C209.19,184.25 208.16,184.59 207.09,185.45 C204.91,187.24 201.94,191.50 201.50,193.38 C201.07,192.31 200.38,191.80 199.00,191.82 C197.09,191.85 192.24,193.00 190.26,193.84 C190.26,193.84 193.81,190.64 193.81,190.64 C191.67,189.19 190.37,188.81 189.01,189.49 C186.53,190.74 182.46,193.53 180.74,195.30 C179.82,196.26 179.12,197.59 178.16,199.96 C178.16,199.96 179.18,201.31 179.18,201.31 C183.05,200.61 184.96,198.43 185.63,196.88 C185.63,196.88 185.21,194.88 185.21,194.88 C183.93,193.48 181.81,192.44 179.49,192.26 C177.67,192.13 172.11,194.50 170.22,196.29 C167.86,198.64 167.38,200.78 167.26,203.42 C167.26,203.42 169.77,204.36 169.77,204.36 C172.31,203.44 176.40,199.72 178.22,196.39 C179.91,193.18 181.17,186.70 180.84,185.14 C180.73,184.68 180.39,183.75 179.79,182.35 C179.79,182.35 177.51,181.92 177.51,181.92 C175.27,183.33 172.77,185.95 170.68,189.51 C168.62,193.11 167.83,195.44 167.10,198.21 C167.10,198.21 167.98,199.79 167.98,199.79 C170.49,198.82 172.13,197.88 173.55,196.39 C177.41,192.31 180.63,186.25 181.68,182.96 C182.20,181.30 181.81,179.66 180.59,177.00 C177.65,176.01 175.91,175.79 174.24,176.42 C170.78,177.77 166.21,181.61 164.38,183.97 C161.69,187.56 157.71,196.16 156.66,201.47 C156.24,203.60 156.81,205.27 158.44,207.62 C161.40,207.03 162.99,206.42 164.01,205.28 C165.02,204.14 165.50,203.42 166.34,201.73 C166.96,200.34 167.27,197.77 166.80,196.24 C166.23,194.51 163.45,192.59 161.30,192.16 C160.36,192.01 157.65,192.74 156.76,193.20 C154.42,194.51 151.03,199.52 150.13,201.82 C149.36,203.86 148.44,209.01 148.51,210.66 C148.77,215.46 150.56,217.86 151.84,218.81 C154.62,219.24 157.11,218.55 158.36,216.71 C159.26,215.35 159.26,209.80 158.09,207.10 C156.57,203.84 154.60,202.38 151.84,200.89 C149.04,201.83 147.48,202.91 146.59,204.72 C144.56,208.88 141.79,222.88 142.41,225.98 C142.55,226.62 142.98,227.84 143.72,229.65 C143.72,229.65 146.30,229.87 146.30,229.87 C148.32,228.62 151.36,224.19 152.42,220.50 C153.43,216.78 153.14,211.50 152.01,209.32 C152.01,209.32 149.54,208.14 149.54,208.14 C147.46,209.42 145.06,212.55 143.31,217.23 C142.73,218.81 140.88,225.23 140.30,228.19 C139.99,229.80 140.12,231.16 140.63,233.30 C140.63,233.30 142.32,234.16 142.32,234.16 C143.99,233.78 145.77,232.73 146.94,231.10 C148.15,229.42 148.85,227.06 148.97,225.04 C148.97,225.04 147.90,223.63 147.90,223.63 C145.86,224.40 144.59,225.20 143.55,226.59 C141.36,229.59 138.57,236.02 138.07,239.38 C137.75,241.86 139.22,245.02 139.75,246.17 C140.82,246.48 143.11,247.19 143.65,247.13 C145.56,246.86 150.68,241.54 151.65,239.01 C151.87,238.41 152.27,236.02 152.48,234.87 C152.48,234.87 151.07,233.08 151.07,233.08 C148.77,233.55 147.29,234.23 146.25,235.59 C143.25,239.56 139.78,249.75 138.81,255.04 C138.23,258.43 138.50,261.38 138.99,263.05 C138.99,263.05 142.17,264.38 142.17,264.38 C144.80,263.27 148.29,259.89 149.75,257.98 C151.00,256.29 153.12,252.67 154.16,250.57 C155.27,248.33 155.73,246.31 155.85,243.52 C154.17,243.54 153.15,243.89 152.14,244.99 C150.20,247.13 148.05,251.13 146.58,254.59 C145.11,258.19 142.60,268.77 142.14,271.37 C141.64,274.23 141.83,276.25 142.76,278.88 C145.46,278.37 147.26,277.52 148.79,275.91 C151.47,273.07 155.87,265.42 157.42,261.12 C158.17,259.02 158.12,257.31 157.34,255.09 C154.99,255.37 153.58,255.86 152.41,257.02 C150.20,259.22 147.74,262.88 146.81,264.76 C144.56,269.33 141.49,282.00 142.20,284.35 C142.37,284.91 142.95,285.93 143.93,287.40 C146.98,286.94 148.90,286.28 150.37,284.87 C154.02,281.35 157.58,275.17 158.78,272.14 C159.39,270.58 159.21,269.37 158.41,267.66 C156.59,267.53 154.45,268.11 153.03,269.50 C150.77,271.74 149.24,276.67 149.08,278.95 C149.04,280.29 149.74,283.65 150.58,284.58 C150.98,285.00 151.91,285.46 153.37,285.94 C154.47,285.37 156.74,284.22 157.23,283.77 C160.34,280.88 163.08,270.20 163.33,266.84 C163.45,265.23 163.03,264.28 161.95,263.12 C160.08,264.51 159.01,265.66 157.99,267.56 C156.63,270.09 154.48,275.09 154.13,278.31 C157.03,277.31 159.60,274.98 161.86,270.68 C165.95,262.65 167.15,256.32 166.96,256.05 C166.96,256.05 162.83,261.93 162.83,261.93" fill="none" stroke="rgb(255, 0, 255)" stroke-width="3.35" stroke-opacity="1.00" stroke-linejoin="round"/>
<path d="M173.19,237.95 C170.25,240.84 167.98,244.40 167.11,248.18 C165.44,255.79 165.60,260.62 166.01,263.09 C168.58,261.55 172.04,256.60 173.45,254.14 C176.05,249.53 179.16,240.74 179.78,237.47 C180.13,235.63 179.90,233.97 179.12,231.38 C179.12,231.38 176.97,230.96 176.97,230.96 C175.36,232.07 172.95,235.90 171.94,238.24 C170.02,242.76 166.63,255.92 167.06,259.27 C167.06,259.27 169.00,259.51 169.00,259.51 C170.70,258.08 174.53,253.29 175.93,251.01 C177.64,248.18 181.42,240.92 182.75,237.37 C185.28,230.48 186.19,223.34 186.31,222.13 C182.13,228.74 180.31,245.30 180.31,248.13 C181.56,247.43 182.37,246.63 183.15,245.11 C186.59,238.33 188.57,229.12 188.54,226.18 C188.50,224.43 188.05,223.46 186.85,222.26 C185.41,222.60 184.02,223.71 183.00,225.60 C182.60,226.34 180.53,231.98 180.04,233.38" fill="none" stroke="rgb(255, 0, 255)" stroke-width="3.35" stroke-opacity="1.00" stroke-linejoin="round"/>
<path d="M166.33,220.13 C166.33,220.13 165.19,219.91 165.19,219.91 C165.19,219.91 164.96,219.45 164.96,219.45 C164.96,219.45 161.90,252.39 161.90,252.39 C161.90,252.39 163.61,253.26 163.61,253.26 C165.12,251.88 167.72,246.38 168.55,243.17 C169.82,238.16 170.54,227.02 169.50,221.27 C168.88,218.02 167.02,213.16 164.83,211.78 C164.83,211.78 162.71,212.29 162.71,212.29 C160.19,215.32 158.28,220.46 157.35,223.94 C153.94,236.97 152.47,255.18 152.38,260.21 C152.34,262.42 152.64,264.09 153.46,267.00 C153.46,267.00 155.20,268.33 155.20,268.33 C156.89,268.19 158.72,267.48 160.01,266.12 C162.07,263.94 164.59,258.53 165.28,256.23 C166.84,250.93 168.25,236.90 167.60,230.37 C166.86,223.33 164.22,215.40 163.16,213.30 C162.58,212.16 161.69,211.40 160.01,210.43 C158.28,211.16 157.34,211.82 156.69,212.93 C154.18,217.25 151.07,230.42 150.30,236.94 C150.00,239.61 149.61,245.58 149.68,249.95 C149.76,253.38 151.05,259.95 152.95,261.62 C153.95,262.43 156.97,262.04 158.42,261.09 C160.80,259.46 163.83,254.86 164.72,252.86 C166.80,248.10 169.39,234.54 169.48,227.34 C169.51,223.58 169.07,216.83 168.49,213.07 C168.07,210.38 166.92,205.70 165.42,203.11 C162.96,204.85 162.07,205.81 161.64,207.47 C159.04,217.59 157.42,226.96 156.87,232.28 C156.16,239.30 156.44,253.01 158.41,254.82 C158.71,255.08 159.47,255.49 160.70,256.04 C162.63,255.53 164.41,254.41 166.03,252.54 C168.47,249.70 173.85,237.91 175.62,231.40 C177.48,224.44 178.27,209.85 177.41,203.15 C176.91,199.47 176.23,197.46 175.32,195.31 C175.32,195.31 172.54,196.22 172.54,196.22 C170.30,201.31 167.39,216.66 167.03,224.20 C166.91,226.94 167.21,234.93 168.40,236.78 C168.68,237.22 169.31,237.68 170.29,238.18 C172.05,238.04 173.89,237.42 175.20,236.20 C177.39,234.16 180.37,228.81 181.25,226.68 C183.41,221.39 185.87,208.45 185.94,201.61 C185.95,199.05 185.50,194.24 184.30,192.36 C184.02,191.94 183.68,191.41 183.28,190.78 C181.21,193.17 178.58,202.72 176.96,210.46 C176.45,213.23 175.51,218.58 174.99,222.75 C174.60,225.97 174.37,231.30 175.51,234.45 C178.57,234.70 180.35,234.23 181.73,232.38 C184.90,228.10 189.17,216.82 190.62,210.32 C192.00,204.10 193.31,191.99 192.60,189.71 C191.04,190.87 189.98,192.40 189.08,195.01 C187.40,199.90 184.95,212.52 184.67,218.00 C184.55,221.01 185.10,225.90 186.59,227.22 C189.45,226.41 191.13,225.34 192.54,223.28 C195.33,219.19 199.94,208.21 201.20,202.44 C201.76,199.82 202.35,193.41 202.30,191.28 C202.23,188.41 201.35,186.66 199.34,184.99 C197.51,186.35 195.09,191.70 194.03,195.01 C193.10,198.02 191.40,205.44 191.04,208.51 C190.64,212.14 190.66,219.23 191.18,220.94 C191.92,223.24 193.73,225.78 195.21,226.35 C196.49,226.79 199.42,226.29 200.76,225.41 C202.99,223.89 206.13,219.46 207.01,217.76 C209.16,213.55 211.39,203.94 210.96,199.82 C210.60,196.88 209.14,194.09 208.07,192.85 C208.07,192.85 204.87,192.32 204.87,192.32 C203.01,193.82 200.74,198.73 200.00,201.42 C199.37,203.82 198.55,209.92 198.56,212.44 C198.60,215.32 199.45,220.86 200.13,222.30 C201.09,224.23 203.03,226.44 204.37,226.95 C205.55,227.34 208.01,226.80 209.22,225.87 C211.26,224.25 215.72,217.08 216.62,215.18 C217.59,213.05 219.19,207.83 219.56,205.39 C220.33,200.05 218.53,193.30 217.89,191.95 C216.91,190.00 215.62,188.95 213.93,188.75 C213.43,188.69 212.79,188.61 212.02,188.49 C210.48,190.01 209.50,191.48 208.59,193.91 C207.08,197.98 205.94,203.53 205.45,207.58 C204.55,215.33 206.09,223.25 206.81,224.46 C207.74,225.94 210.06,227.44 211.65,227.48 C213.06,227.47 216.03,226.27 217.31,225.18 C219.47,223.26 222.26,218.53 222.96,216.80 C223.82,214.65 224.89,210.08 225.05,207.70 C225.19,205.32 224.80,200.95 224.19,198.46 C223.37,195.28 221.56,192.03 220.32,190.44 C220.32,190.44 217.01,190.02 217.01,190.02 C215.35,192.57 214.27,196.61 213.87,199.12 C213.44,202.00 213.09,208.82 213.25,211.81 C213.44,214.83 214.84,220.49 215.95,222.97 C216.54,224.20 218.44,226.48 219.68,227.25 C220.93,228.00 223.84,227.97 225.23,227.29 C227.59,226.06 231.38,221.00 232.56,218.69 C233.59,216.62 234.98,212.22 235.24,210.07 C235.48,207.90 235.08,203.09 234.51,200.85 C233.26,196.06 230.90,192.37 229.54,190.44 C229.54,190.44 226.72,189.67 226.72,189.67 C225.55,191.56 224.81,196.93 224.68,199.99 C224.58,202.78 224.77,208.44 225.08,210.80 C225.49,213.66 227.17,218.68 229.35,220.32 C230.56,220.22 233.08,220.06 233.61,219.80 C235.22,218.99 238.85,213.25 239.70,211.10 C240.42,209.21 241.18,205.11 241.16,203.14 C241.10,200.87 239.54,194.32 238.04,192.35 C237.63,191.82 235.62,190.33 234.66,189.59 C232.82,190.25 230.80,195.18 230.24,198.21 C229.76,200.97 229.42,208.21 229.75,210.91 C230.14,213.97 231.97,219.45 233.05,220.71 C234.51,222.35 237.30,224.01 239.13,224.22 C240.65,224.34 243.59,223.52 245.05,222.61 C247.82,220.79 252.60,214.00 253.30,210.65 C253.91,207.59 253.15,202.47 252.55,200.71 C252.04,199.26 249.03,193.34 247.89,192.33 C247.40,191.90 245.13,191.37 244.06,191.08 C242.16,193.29 240.88,197.24 240.41,199.66 C239.88,202.49 239.48,208.15 239.68,211.67 C239.88,214.75 240.97,218.64 242.20,220.95 C242.96,222.27 244.70,224.05 246.14,224.78 C247.47,225.42 250.67,225.52 252.23,225.05 C253.69,224.55 256.52,222.71 257.75,221.47 C258.96,220.19 260.76,217.29 261.29,215.72 C261.80,214.08 262.02,210.71 261.71,208.90 C261.36,207.06 259.90,203.62 258.74,201.86 C257.61,200.21 254.99,197.46 253.62,196.49 C252.22,195.55 249.49,194.64 248.23,194.71 C246.92,194.85 244.89,196.29 244.26,197.61 C243.19,199.95 243.11,205.41 243.37,207.35 C243.73,209.83 245.05,214.32 246.32,217.03 C247.44,219.38 249.69,222.49 251.58,224.33 C252.72,225.38 255.03,226.82 256.61,227.33 C258.22,227.81 261.15,227.42 262.47,226.61 C263.66,225.81 265.44,223.45 266.01,221.96 C267.09,218.95 266.72,212.14 265.78,208.96 C264.69,205.44 261.10,197.95 259.92,196.14 C257.36,192.32 255.02,190.77 252.83,189.67 C252.83,189.67 250.48,190.17 250.48,190.17 C248.97,192.07 248.23,193.30 247.87,194.67 C246.63,199.61 246.07,215.23 247.33,222.05 C247.96,225.33 250.49,232.33 251.83,234.26 C252.59,235.32 253.56,236.31 255.03,237.56 C256.28,238.55 258.61,239.66 260.23,239.90 C261.74,240.08 264.74,239.11 266.01,238.11 C268.16,236.33 270.85,230.92 271.46,228.63 C271.96,226.60 272.24,222.21 271.96,220.00 C271.38,215.60 266.49,204.44 264.06,202.01 C262.37,200.33 260.50,199.64 258.56,199.79 C256.64,201.43 255.66,202.53 255.14,203.84 C253.23,208.78 252.34,222.63 252.80,229.23 C253.00,231.96 253.76,237.79 254.78,242.08 C255.68,245.81 257.77,251.09 259.25,253.30 C260.20,254.64 261.92,256.18 263.25,256.74 C264.40,257.20 266.76,256.84 267.84,256.15 C268.87,255.43 270.55,253.21 271.14,251.77 C272.22,249.03 272.31,243.07 271.91,240.47 C269.87,228.11 264.56,222.73 262.67,221.12 C262.67,221.12 260.27,220.95 260.27,220.95 C258.53,222.30 257.66,223.23 257.21,224.40 C255.59,228.71 254.56,242.06 255.41,248.84 C255.78,251.70 257.45,258.02 259.54,260.27 C260.63,261.38 263.32,261.98 264.68,261.56 C265.92,261.11 268.31,259.10 269.36,257.68 C271.22,255.07 273.19,249.21 273.50,246.88 C273.76,244.78 273.54,240.33 273.06,238.29 C272.43,235.83 269.44,230.01 267.04,228.62 C265.66,227.88 262.92,227.94 261.60,228.78 C259.38,230.26 256.42,234.87 255.39,237.17 C254.38,239.48 253.43,243.29 253.18,245.95 C253.08,247.53 253.41,250.17 254.02,251.70 C254.63,253.16 256.69,255.13 258.02,255.66 C259.20,256.08 261.71,256.11 262.78,255.73 C263.86,255.31 265.61,253.73 266.32,252.54 C267.68,250.10 268.25,243.43 267.24,240.16 C266.73,238.61 265.14,235.76 264.35,235.08 C264.01,234.81 260.74,233.46 260.31,233.46 C258.45,233.52 254.63,238.18 253.77,240.34 C252.95,242.50 251.92,247.96 252.03,249.61 C252.22,251.80 253.08,254.53 254.06,255.78 C254.89,256.78 257.94,257.19 259.83,256.69 C261.40,256.22 264.67,251.67 265.17,248.50 C265.63,245.19 263.78,239.08 261.78,236.90 C260.77,235.86 258.41,234.43 257.16,234.13 C255.81,233.85 252.94,234.23 251.43,234.91 C249.79,235.71 247.33,237.99 246.17,239.75 C245.34,241.10 243.77,244.90 243.86,245.99 C243.92,246.56 244.26,247.80 244.88,249.72 C247.22,250.33 248.56,250.34 249.94,249.61 C252.28,248.34 255.45,244.44 255.87,241.62 C256.21,238.93 254.30,233.28 253.02,231.10 C250.37,226.71 245.23,221.82 243.86,221.12 C241.93,220.18 238.41,219.71 236.85,220.45 C234.27,221.74 231.35,226.43 230.64,228.45 C230.24,229.67 229.77,232.98 229.90,234.52 C230.05,236.13 231.63,238.84 232.74,239.59 C233.81,240.24 236.57,240.62 237.97,240.37 C239.28,240.10 241.68,238.84 242.63,237.95 C243.53,237.04 244.69,234.81 244.91,233.54 C245.10,232.20 244.69,229.24 244.10,227.86 C242.82,225.04 237.40,220.08 234.61,219.25 C233.11,218.86 230.13,219.04 228.86,219.66 C227.56,220.35 225.19,222.94 224.38,224.55 C223.61,226.18 222.72,230.12 222.74,231.77 C222.81,233.35 223.87,235.83 224.81,236.62 C225.80,237.38 228.60,238.06 230.04,237.91 C231.44,237.73 234.42,236.45 235.73,235.51 C236.97,234.59 238.85,232.35 239.51,231.01 C240.16,229.57 240.73,226.41 240.54,224.97 C240.30,223.53 238.80,220.56 237.67,219.24 C236.54,217.97 233.74,215.95 232.12,215.22 C230.36,214.49 226.66,213.89 225.03,214.20 C222.10,214.80 217.45,218.04 216.19,219.32 C214.96,220.61 211.89,225.09 211.07,227.94 C210.60,229.68 210.92,232.49 211.68,233.69 C212.42,234.76 214.71,236.20 216.17,236.58 C217.58,236.91 220.53,236.87 221.92,236.51 C223.33,236.10 225.49,234.77 226.33,233.78 C227.09,232.82 228.10,230.35 228.29,229.01 C228.45,227.57 228.02,224.75 227.40,223.29 C225.92,220.06 220.66,215.66 218.04,214.71 C215.60,213.90 211.63,213.59 209.49,214.24 C205.55,215.50 200.59,220.37 198.34,223.77 C197.14,225.60 197.14,227.23 197.97,229.84 C201.59,230.87 204.27,231.19 207.49,230.71 C210.15,230.27 214.86,227.54 215.36,226.34 C215.98,224.73 215.77,222.11 214.93,220.97 C213.06,218.61 207.86,215.21 205.53,214.41 C203.23,213.66 199.08,213.42 196.97,213.94 C194.75,214.52 190.94,217.05 188.88,219.29 C187.32,221.03 184.58,225.89 184.30,228.78 C184.20,230.19 185.41,232.29 186.50,232.86 C188.52,233.80 195.93,232.92 198.92,231.45 C200.51,230.64 203.42,228.33 204.43,227.06 C205.40,225.78 206.55,222.89 206.66,221.48 C206.71,220.12 205.90,217.46 205.04,216.10 C203.22,213.37 198.17,210.06 195.71,209.07 C193.31,208.16 189.15,208.00 186.75,208.58 C184.62,209.13 180.14,211.89 177.98,213.85 C175.96,215.72 172.46,219.96 170.98,222.30 C169.30,225.01 168.73,226.93 168.24,229.31 C169.91,232.03 171.08,233.01 173.08,232.99 C174.12,232.98 177.98,232.78 179.53,232.34 C181.15,231.84 184.34,230.09 185.58,229.01 C186.80,227.89 188.68,225.11 189.17,223.71 C189.61,222.32 189.61,219.51 189.18,218.27 C188.72,217.06 186.96,214.97 185.64,214.06 C182.91,212.24 177.24,211.56 174.62,212.03 C172.15,212.53 167.97,214.64 165.71,216.53 C161.65,220.00 157.13,227.28 156.58,228.82 C155.83,230.92 155.82,232.75 156.41,234.30 C157.75,235.39 159.24,236.08 161.18,236.33 C162.95,236.52 166.46,236.36 168.16,235.95 C169.92,235.50 173.57,233.77 175.15,232.66 C176.70,231.52 179.32,228.75 180.12,227.38 C180.89,226.00 181.42,223.26 181.13,222.16 C180.79,221.13 179.01,219.47 177.60,218.84 C176.12,218.22 172.44,217.44 170.57,217.36 C168.65,217.32 164.82,217.97 163.11,218.65 C161.40,219.37 158.12,221.64 156.73,223.03 C155.37,224.45 153.32,227.61 152.81,229.11 C152.34,230.62 152.52,233.49 153.18,234.82 C153.91,236.17 156.54,238.74 158.12,239.62 C159.70,240.46 163.49,241.42 165.29,241.46 C167.02,241.45 170.32,240.59 171.73,239.79 C173.08,238.98 175.38,236.68 176.19,235.38 C176.93,234.10 177.52,231.50 177.34,230.12 C176.92,227.47 173.41,222.65 171.53,220.96 C169.52,219.23 163.78,216.31 160.89,216.99 C157.96,217.73 153.88,221.82 152.79,223.63 C151.47,225.87 149.88,230.55 149.56,233.58 C149.31,236.33 150.03,240.37 151.26,242.15 C152.70,244.14 155.93,246.05 158.09,246.42 C160.16,246.74 164.56,246.05 166.66,245.05 C168.67,244.07 172.53,241.01 174.24,239.09 C175.94,237.14 178.65,232.74 179.51,230.55 C180.29,228.50 181.11,223.26 180.95,221.19 C180.76,219.11 179.20,214.26 178.17,212.52 C177.28,211.06 173.66,207.07 171.21,206.16 C169.73,205.66 166.68,206.18 165.27,207.19 C162.94,208.92 159.67,213.81 158.52,216.20 C157.40,218.57 156.29,222.50 156.07,225.12 C155.98,226.67 156.57,229.20 157.50,230.57 C158.48,231.95 161.48,233.36 163.67,233.73 C165.34,233.96 169.87,233.09 172.04,232.05 C174.17,231.01 178.29,227.79 179.96,225.81 C181.77,223.63 184.31,219.38 185.07,217.09 C185.76,214.89 186.15,210.64 185.67,208.45 C185.09,206.04 182.02,201.14 178.87,199.24 C177.22,198.29 173.67,197.24 171.91,197.20 C168.76,197.20 163.35,200.13 161.46,201.86 C159.71,203.50 156.76,207.16 155.63,209.17 C154.29,211.68 152.91,217.60 154.49,220.15 C155.32,221.41 158.36,223.32 160.30,223.92 C162.19,224.45 166.24,224.71 168.00,224.36 C171.12,223.70 175.44,220.84 176.69,219.56 C177.90,218.30 180.84,213.83 181.41,210.96 C181.72,209.23 181.06,206.22 180.12,204.79 C178.42,202.39 172.25,199.03 169.07,198.20 C166.02,197.46 161.66,198.19 159.69,199.49 C157.83,200.80 156.50,205.14 156.90,207.13 C157.15,208.18 158.46,210.34 159.43,211.23 C160.52,212.19 163.14,213.42 164.83,213.77 C166.53,214.09 169.25,213.92 170.49,213.41 C171.57,212.93 173.56,211.23 174.28,210.22 C175.03,209.11 175.71,206.90 175.68,205.65 C175.55,203.36 172.76,199.09 170.75,197.42 C170.66,197.35 167.77,195.42 167.07,195.25 C165.18,194.86 162.63,195.24 161.51,196.16 C159.12,198.21 156.32,202.50 155.41,204.65 C153.75,208.69 153.17,214.12 153.90,215.16 C154.14,215.50 154.87,216.16 156.07,217.13 C158.44,217.33 161.07,216.86 162.27,215.62 C162.65,215.22 163.19,214.35 163.89,212.98 C163.89,212.98 163.54,210.12 163.54,210.12 C162.19,208.30 159.92,207.13 157.52,207.32 C155.55,207.50 151.73,211.83 150.60,214.12 C148.72,218.09 146.96,228.46 147.38,233.15 C147.58,235.29 148.69,236.71 151.00,238.09 C153.35,237.14 155.25,235.45 155.84,233.28 C156.30,231.44 155.64,227.73 154.63,226.23 C153.58,224.80 150.72,223.50 149.20,223.88 C147.69,224.30 145.42,226.07 144.32,227.45 C142.49,229.90 141.05,233.97 141.22,236.42 C141.33,237.64 141.73,238.80 142.60,240.42 C143.42,241.81 145.77,243.86 147.36,244.19 C147.96,244.31 149.00,244.21 150.49,243.89 C150.49,243.89 152.52,241.98 152.52,241.98 C152.88,239.82 152.46,237.53 151.05,236.13 C149.77,234.89 147.42,233.89 145.89,233.77 C143.29,233.69 138.98,235.64 137.05,238.02 C136.08,239.26 134.68,242.28 134.41,243.73 C134.18,245.22 134.64,248.18 135.30,249.31 C135.98,250.37 138.31,252.07 139.73,252.59 C142.17,253.42 148.77,253.30 150.91,251.87 C151.28,251.61 151.69,251.12 152.12,250.38 C151.92,249.20 151.18,248.10 149.85,247.41 C148.40,246.72 145.05,246.53 143.77,247.36 C142.40,248.30 140.81,251.23 140.68,252.73 C140.60,254.54 140.88,257.17 141.35,258.53 C141.87,259.93 143.63,262.56 144.66,263.47 C146.42,264.95 149.80,264.85 150.95,264.84 C153.08,262.53 154.01,261.07 154.06,259.60 C154.09,258.09 153.88,256.64 153.40,255.12 C152.90,253.59 151.85,252.54 149.58,251.09 C146.65,251.91 144.98,252.80 144.08,254.35 C143.18,255.95 142.08,259.27 141.88,261.11 C141.72,263.04 142.27,266.77 142.99,268.24 C143.83,269.85 146.47,271.37 148.53,271.54 C149.34,271.59 152.47,271.08 154.00,270.85" fill="none" stroke="rgb(255, 0, 255)" stroke-width="3.35" stroke-opacity="1.00" stroke-linejoin="round"/>
<path d="M159.48,201.86 C154.90,204.43 151.05,207.75 149.41,210.96 C147.97,213.88 146.68,220.31 147.44,222.60 C147.60,223.05 147.79,223.63 148.02,224.34 C150.84,225.07 152.55,225.20 154.02,224.60 C156.80,223.44 160.99,219.71 162.29,217.21 C162.92,215.94 163.61,213.28 163.61,212.08 C163.57,210.89 162.77,208.69 162.05,207.75 C161.26,206.81 159.16,205.50 157.75,205.12 C154.50,204.31 149.23,205.87 146.89,207.53 C145.01,208.93 141.70,212.70 140.77,214.40 C139.52,216.74 139.01,218.88 139.16,220.77 C141.89,223.50 147.34,225.48 148.97,226.07" fill="none" stroke="rgb(255, 0, 255)" stroke-width="3.35" stroke-opacity="1.00" stroke-linejoin="round"/>
<path d="M202.88,196.83 C200.78,196.86 199.46,196.80 197.93,196.61 C196.40,196.41 195.02,196.12 192.79,195.58 C192.79,195.58 190.91,196.55 190.91,196.55 C190.11,198.62 190.13,204.78 191.68,208.28 C192.61,210.27 194.82,212.77 196.40,213.59 C197.85,214.29 200.95,214.63 202.55,214.30 C204.05,213.95 207.19,212.35 208.61,211.23 C210.08,210.03 212.34,207.25 213.18,205.63 C213.98,203.97 214.56,200.98 214.37,199.51 C214.14,198.10 212.88,195.93 211.80,195.02 C210.85,194.26 208.42,193.16 207.29,192.98 C206.09,192.84 203.49,193.31 202.44,193.95 C200.33,195.29 197.69,199.31 196.72,201.39 C196.18,202.62 195.52,205.68 195.54,207.37 C195.60,209.24 197.04,212.12 198.37,213.12 C199.69,214.02 203.05,214.70 204.89,214.43 C208.01,213.92 212.45,211.24 213.77,210.12 C216.76,207.52 220.70,201.28 221.35,198.47 C221.71,196.79 221.35,193.61 220.67,192.15 C219.96,190.76 217.81,188.64 216.44,188.00 C215.00,187.39 211.83,187.23 210.31,187.77 C207.54,188.81 203.70,192.80 202.60,194.39 C201.51,196.00 198.88,201.48 198.55,204.36 C198.40,205.96 199.36,208.78 200.29,209.73 C201.21,210.59 203.87,211.62 205.44,211.77 C206.99,211.87 210.21,211.37 211.80,210.76 C215.15,209.41 220.99,204.20 222.44,201.31 C223.08,199.97 223.51,197.32 223.30,196.12 C223.06,194.95 221.80,192.86 220.79,191.91 C219.70,190.92 216.99,189.48 215.51,189.19 C212.42,188.63 207.54,189.78 205.60,190.85 C203.55,192.02 199.43,195.37 197.74,197.18 C196.42,198.61 193.38,203.00 193.01,205.05 C192.83,206.28 193.88,208.35 195.07,209.27 C196.20,210.09 199.32,211.30 201.02,211.61 C204.81,212.20 210.96,210.46 213.24,208.94 C217.58,205.92 222.92,198.70 222.79,197.14 C222.75,196.69 222.44,195.63 221.86,193.98 C219.45,192.83 218.05,192.56 216.50,193.09 C214.98,193.65 213.28,194.77 212.35,195.94 C211.38,197.21 209.84,200.81 209.57,202.50 C209.34,204.21 209.94,207.56 210.72,208.93 C211.56,210.30 214.25,212.46 215.82,213.02 C217.44,213.54 221.27,213.54 222.92,212.99 C225.61,212.03 229.55,208.69 230.86,207.28 C232.78,205.13 235.52,199.70 235.40,196.65 C235.28,195.33 233.19,192.39 231.74,191.75 C231.19,191.52 230.19,191.47 228.75,191.61 C227.12,193.86 226.38,195.48 226.40,197.39 C226.44,200.54 227.52,206.04 228.89,208.68 C229.75,210.30 232.03,212.71 233.33,213.41 C234.63,214.05 237.44,214.28 238.89,213.85 C241.54,213.00 245.44,208.55 246.61,206.44 C247.73,204.34 249.50,198.32 248.89,195.92 C248.73,195.31 247.52,193.23 246.94,192.20 C246.94,192.20 244.37,192.15 244.37,192.15 C242.66,194.61 241.89,196.31 241.58,198.68 C241.28,201.03 241.20,203.17 241.32,205.26 C241.44,207.04 242.44,208.39 244.70,210.35 C247.36,210.44 250.69,209.36 253.74,206.90 C257.03,204.16 258.61,201.89 260.14,199.22 C260.14,199.22 259.86,197.17 259.86,197.17 C259.86,197.17 257.77,196.57 257.77,196.57 C254.98,197.72 253.31,198.68 252.45,199.88 C251.58,201.11 250.46,203.76 250.27,205.07 C250.12,206.33 250.60,208.85 251.19,210.13 C251.85,211.44 253.71,213.71 254.79,214.44 C255.91,215.16 258.73,215.93 259.96,215.88 C261.11,215.80 263.15,214.84 264.02,214.01 C265.70,212.31 267.38,207.22 267.23,204.47 C267.03,201.88 264.69,197.11 262.85,196.03 C261.73,195.43 259.17,195.21 257.99,195.72 C255.44,196.94 252.67,202.54 252.08,205.35 C251.21,209.92 253.38,216.90 254.49,218.23 C255.89,219.83 258.61,221.74 260.45,222.27 C262.00,222.69 265.20,222.66 266.77,222.26 C269.53,221.48 274.22,218.03 276.08,215.64 C276.88,214.51 277.73,211.31 277.42,209.75 C277.03,208.04 273.74,205.34 271.97,205.25 C270.21,205.23 267.33,206.77 266.47,208.07 C264.71,210.94 263.60,216.53 263.62,219.40 C263.68,221.88 264.62,226.70 265.34,228.40 C266.35,230.64 268.18,233.26 269.57,234.25 C270.83,235.10 273.32,235.63 274.56,235.33 C276.86,234.67 280.83,229.77 281.50,226.99 C282.10,224.26 280.70,218.92 278.76,216.64 C277.77,215.51 275.16,213.58 273.82,213.01 C272.24,212.41 268.88,212.30 267.37,212.92 C265.80,213.61 263.56,215.56 262.79,216.74 C261.33,219.16 259.60,223.82 259.08,226.64 C258.63,229.21 258.54,235.18 258.95,237.53 C259.19,238.76 260.42,241.92 261.23,243.19 C262.10,244.48 264.57,246.18 265.92,246.54 C267.20,246.83 269.84,246.55 271.14,246.01 C273.74,244.84 277.97,239.96 278.72,237.24 C279.06,235.87 278.99,233.08 278.58,231.82 C278.12,230.56 276.45,228.39 275.27,227.52 C273.87,226.54 271.01,225.80 269.25,225.90 C267.71,226.02 263.10,228.18 261.47,229.96 C259.92,231.71 256.70,237.40 255.84,240.36 C255.03,243.26 254.54,248.75 254.89,250.45 C255.36,252.55 256.71,255.26 257.91,256.31 C258.93,257.16 261.32,258.02 262.62,258.09 C265.08,258.13 269.30,255.63 270.87,253.40 C272.14,251.49 272.86,246.74 272.23,244.86 C271.84,243.73 270.59,242.82 268.04,241.58 C265.30,242.45 263.94,243.19 263.22,244.47 C262.41,245.94 261.66,247.85 261.37,249.20 C261.15,250.38 261.72,253.09 262.46,254.18 C263.18,255.21 264.84,255.63 266.19,255.53 C266.19,255.53 268.68,252.12 268.68,252.12" fill="none" stroke="rgb(255, 0, 255)" stroke-width="3.35" stroke-opacity="1.00" stroke-linejoin="round"/>
<path d="M178.67,245.26 C178.67,245.26 175.51,244.97 175.51,244.97 C175.49,247.12 175.47,252.09 176.81,254.74 C178.35,257.70 181.35,259.69 185.94,261.81 C187.88,262.68 189.85,263.30 191.27,263.42 C192.87,263.50 195.92,262.72 197.17,261.75 C199.50,259.88 202.16,254.90 202.84,252.59 C203.62,249.76 203.38,247.76 202.75,245.68 C202.61,245.23 202.35,244.49 201.97,243.44" fill="none" stroke="rgb(255, 0, 255)" stroke-width="3.35" stroke-opacity="1.00" stroke-linejoin="round"/>
<path d="M186.89,248.00 C186.89,248.00 185.34,249.10 185.34,249.10 C184.85,250.29 184.63,251.40 184.94,252.06 C185.33,252.83 186.79,253.72 187.68,253.66 C188.54,253.56 190.07,252.40 190.56,251.48 C191.56,249.47 190.50,247.72 189.70,247.05 C187.74,247.56 186.80,248.17 186.66,249.23 C186.54,250.24 186.85,251.04 187.52,251.80 C189.08,252.34 191.39,251.05 191.80,249.35 C191.80,249.35 190.04,247.58 190.04,247.58 C190.04,247.58 187.61,249.11 187.61,249.11 C187.61,249.11 188.50,251.63 188.50,251.63 C190.40,251.98 191.49,251.03 191.98,250.29 C190.25,248.89 188.90,249.73 188.23,250.23 C188.23,250.23 192.38,251.20 192.38,251.20" fill="none" stroke="rgb(255, 0, 255)" stroke-width="3.35" stroke-opacity="1.00" stroke-linejoin="round"/>
<path d="M205.17,259.88 C205.17,259.88 204.25,259.43 204.25,259.43 C204.25,259.43 204.69,268.84 204.69,268.84 C204.45,268.12 202.34,267.24 201.15,268.65 C199.65,270.50 199.42,274.17 200.08,275.05 C202.31,277.71 206.11,275.22 206.54,274.78 C206.54,274.78 212.52,273.21 212.52,273.21 C214.58,274.78 215.67,275.35 216.90,275.19 C218.11,275.01 219.50,272.72 219.04,270.77 C218.78,269.73 217.60,266.97 217.23,266.68 C217.20,266.66 212.27,263.49 212.10,263.22 C212.10,263.22 214.76,261.71 214.76,261.71" fill="none" stroke="rgb(255, 0, 255)" stroke-width="3.35" stroke-opacity="1.00" stroke-linejoin="round"/>
<path d="M218.42,242.98 C218.42,242.98 217.12,243.21 217.12,243.21 C216.14,244.73 216.16,252.33 216.23,252.76 C216.59,254.70 217.79,256.92 219.21,258.13 C221.46,259.97 226.78,262.19 228.16,261.98 C230.09,261.65 233.93,260.02 235.10,258.90 C235.48,258.53 236.01,257.79 236.69,256.69" fill="none" stroke="rgb(255, 0, 255)" stroke-width="3.35" stroke-opacity="1.00" stroke-linejoin="round"/>
<path d="M228.01,247.09 C226.52,247.07 225.68,247.13 225.35,247.40 C224.47,248.15 224.52,251.47 225.95,252.63 C226.71,253.21 228.52,253.41 229.36,253.03 C230.15,252.63 231.17,251.11 231.31,250.16 C231.56,247.94 229.74,246.85 228.50,246.60 C227.19,247.04 226.02,247.87 225.47,248.99 C224.90,250.14 225.02,251.57 225.58,252.94 C225.58,252.94 227.22,253.81 227.22,253.81 C228.85,253.47 230.49,252.59 231.32,251.35 C232.01,250.29 232.21,248.17 231.75,247.29 C231.25,246.40 230.12,245.94 228.83,245.88 C228.83,245.88 227.28,246.79 227.28,246.79 C227.21,249.20 227.70,250.29 228.95,250.51 C231.22,250.24 232.03,248.92 232.22,247.92 C232.22,247.92 230.11,246.66 230.11,246.66 C230.11,246.66 231.67,250.29 231.67,250.29" fill="none" stroke="rgb(255, 0, 255)" stroke-width="3.35" stroke-opacity="1.00" stroke-linejoin="round"/>
<path d="M229.38,247.09 C229.38,247.09 226.76,248.99 226.76,248.99 C227.86,249.97 228.77,250.23 229.65,249.63 C230.36,249.14 230.90,248.40 231.12,247.78 C230.38,247.49 229.62,247.84 228.85,249.07 C228.05,250.34 227.61,251.81 227.48,253.25 C229.16,253.78 230.30,253.52 231.23,252.15 C232.03,250.96 232.32,249.83 232.26,248.70 C232.26,248.70 230.37,247.84 230.37,247.84 C230.33,248.34 230.35,248.70 230.44,248.89 C230.52,249.09 230.78,249.40 231.21,249.83" fill="none" stroke="rgb(255, 0, 255)" stroke-width="3.35" stroke-opacity="1.00" stroke-linejoin="round"/>
<path d="M235.78,270.85 C235.43,270.91 234.92,270.49 234.67,270.44 C233.92,270.30 231.58,270.57 230.75,271.02 C229.67,271.65 227.54,273.84 226.84,275.12 C226.09,276.60 226.00,279.59 226.71,281.06 C227.44,282.50 229.26,283.84 230.83,284.47 C231.29,284.31 231.59,284.19 231.71,284.10 C231.84,284.02 231.98,283.87 232.13,283.64" fill="none" stroke="rgb(255, 0, 255)" stroke-width="3.35" stroke-opacity="1.00" stroke-linejoin="round"/>
<path d="M223.90,279.99 C223.61,280.31 223.00,280.79 222.65,280.90 C222.53,280.94 222.38,280.94 222.19,280.90 C222.51,280.95 223.44,280.55 225.13,279.62 C225.18,279.59 225.32,279.51 225.27,279.53 C225.18,279.27 223.12,278.78 221.92,278.88 C220.19,279.05 219.73,281.78 219.91,282.44 C219.91,282.44 224.82,284.56 224.82,284.56" fill="none" stroke="rgb(255, 0, 255)" stroke-width="3.35" stroke-opacity="1.00" stroke-linejoin="round"/>
<path d="M197.86,279.53 C197.78,279.62 197.71,279.69 197.63,279.76 C196.93,280.35 195.66,280.61 194.55,280.30 C192.68,279.54 190.59,279.71 189.74,280.88 C188.88,282.15 188.39,285.74 189.26,286.69 C190.11,287.54 192.88,287.16 196.57,286.55" fill="none" stroke="rgb(255, 0, 255)" stroke-width="3.35" stroke-opacity="1.00" stroke-linejoin="round"/>
<path d="M201.97,277.70 C201.11,277.64 200.50,277.64 200.14,277.70 C199.79,277.77 199.19,278.00 198.35,278.39 C197.78,279.89 197.88,284.92 197.86,288.57 C197.87,291.19 198.33,292.96 199.36,293.77 C199.75,294.06 200.49,294.45 201.57,294.92 C202.77,295.43 203.97,295.93 205.17,296.44" fill="none" stroke="rgb(255, 0, 255)" stroke-width="3.35" stroke-opacity="1.00" stroke-linejoin="round"/>
<path d="M206.54,296.89 C207.91,297.27 210.03,297.54 211.22,297.29 C211.93,297.13 215.73,295.24 216.40,294.70 C217.73,293.59 218.94,291.01 219.21,288.89 C219.74,283.99 217.78,276.70 217.17,275.50 C217.06,275.30 216.87,274.96 216.59,274.51" fill="none" stroke="rgb(255, 0, 255)" stroke-width="3.35" stroke-opacity="1.00" stroke-linejoin="round"/>
<path d="M217.96,277.25 C217.50,277.25 216.69,277.25 216.63,277.25 C215.29,277.15 213.55,279.12 213.24,281.54 C213.08,282.88 213.84,284.19 215.80,286.32 C215.80,286.32 219.95,285.49 219.95,285.49" fill="none" stroke="rgb(255, 0, 255)" stroke-width="3.35" stroke-opacity="1.00" stroke-linejoin="round"/>
<path d="M176.84,271.76 C176.70,271.72 176.55,271.72 176.38,271.76 C176.22,271.81 175.80,271.96 175.13,272.22 C178.13,271.81 181.20,271.80 182.89,273.10 C184.49,274.39 186.71,278.22 186.48,279.59 C186.19,280.96 183.20,282.87 181.12,283.18 C179.24,283.40 177.42,282.16 175.01,280.44" fill="none" stroke="rgb(255, 0, 255)" stroke-width="3.35" stroke-opacity="1.00" stroke-linejoin="round"/>
<path d="M245.83,277.70 C245.83,277.70 245.15,277.34 245.15,277.34 C245.15,277.34 244.92,275.49 244.92,275.49 C244.80,277.14 243.59,281.01 242.46,283.39 C240.88,286.59 238.39,289.81 235.54,291.62 C230.36,294.87 222.96,299.80 218.30,300.65 C215.07,301.22 209.32,301.40 206.62,301.46 C201.45,301.50 194.88,300.95 191.91,299.98 C188.66,298.89 171.27,288.54 168.27,285.59 C167.17,284.50 164.27,280.05 164.25,279.96 C164.20,279.78 163.98,278.88 163.59,277.25" fill="none" stroke="rgb(255, 0, 255)" stroke-width="3.35" stroke-opacity="1.00" stroke-linejoin="round"/>
<path d="M245.38,317.91 C245.38,317.91 243.55,319.13 243.55,319.13 C244.29,319.99 244.67,335.29 244.85,343.32 C244.92,351.54 244.63,367.10 244.42,373.87 C244.19,378.77 242.12,399.31 241.15,402.39 C240.56,404.18 238.29,406.08 235.35,406.81 C232.92,407.38 196.78,411.73 186.13,411.72 C183.40,411.71 179.78,411.41 177.89,410.86 C176.60,401.68 177.56,350.61 177.65,347.01 C177.68,344.95 177.74,341.60 177.75,340.30" fill="none" stroke="rgb(255, 0, 255)" stroke-width="3.35" stroke-opacity="1.00" stroke-linejoin="round"/>
<path d="M178.21,339.84 C178.21,339.84 176.61,337.44 176.61,337.44 C176.93,336.42 177.99,335.07 178.23,334.47 C179.14,332.14 179.12,317.65 179.13,316.20 C179.13,316.20 179.13,316.54 179.13,316.54" fill="none" stroke="rgb(255, 0, 255)" stroke-width="3.35" stroke-opacity="1.00" stroke-linejoin="round"/>
<path d="M184.62,411.01 C184.62,411.01 182.65,409.51 182.65,409.51 C182.08,409.54 169.49,452.56 165.22,465.82 C159.69,482.30 152.25,500.38 152.17,500.48 C151.46,499.81 146.94,498.25 144.66,498.03 C141.39,497.76 135.73,498.42 132.94,499.94 C131.45,500.78 129.35,502.72 128.54,503.98 C127.02,506.51 126.25,512.51 127.26,515.49 C127.81,517.03 129.55,519.79 130.68,520.91 C132.53,522.67 139.18,525.10 142.76,525.49 C148.61,526.10 169.73,525.77 170.66,525.51 C171.84,525.16 173.39,523.52 174.26,522.04 C176.11,518.79 184.46,502.40 188.32,494.75 C192.57,486.11 197.01,473.88 197.94,469.06 C198.15,467.97 199.57,459.42 199.94,457.85 C201.18,458.28 210.53,474.33 212.23,477.53 C212.67,478.39 213.52,481.06 213.50,481.93 C213.48,482.38 208.21,495.24 207.86,496.90 C207.37,499.54 207.46,502.03 208.41,503.34 C210.68,506.38 223.28,515.37 228.82,519.30 C238.21,526.04 242.94,530.40 245.76,534.40 C246.29,532.25 252.60,525.26 258.73,519.15 C261.05,516.90 266.61,511.86 267.68,510.18 C266.63,508.14 254.90,487.37 253.68,485.05 C251.35,480.62 246.78,467.20 246.09,464.70 C245.30,461.77 241.25,443.60 239.78,435.89 C237.95,425.35 236.43,411.80 236.50,411.27 C236.57,410.69 236.87,409.40 237.39,407.42" fill="none" stroke="rgb(255, 0, 255)" stroke-width="3.35" stroke-opacity="1.00" stroke-linejoin="round"/>
<path d="M246.99,532.74 C246.99,532.46 246.99,532.19 246.99,531.91 C246.99,531.59 246.99,531.27 246.99,530.95 C246.50,531.57 240.19,548.96 241.02,551.22 C241.35,551.98 242.87,553.00 243.99,553.24 C246.08,553.64 254.07,552.39 256.59,551.72 C260.06,550.76 266.00,548.35 268.62,546.57 C271.18,544.78 274.89,540.33 276.49,537.51 C277.95,534.88 279.87,529.91 280.23,527.51 C280.61,524.68 279.82,519.39 278.55,516.96 C277.43,514.91 272.86,509.87 271.24,509.04 C270.47,508.67 268.60,508.34 267.32,508.28 C266.34,508.24 265.36,508.20 264.38,508.16" fill="none" stroke="rgb(255, 0, 255)" stroke-width="3.35" stroke-opacity="1.00" stroke-linejoin="round"/>
</g>
</svg>
