<?xml version="1.0" encoding="UTF-8" standalone="no"?>
<!DOCTYPE svg PUBLIC "-//W3C//DTD SVG 1.1//EN" "http://www.w3.org/Graphics/SVG/1.1/DTD/svg11.dtd">
<svg width="128.40" height="181.68" viewBox="0.00 0.00 535.00 757.00" xmlns="http://www.w3.org/2000/svg" xmlns:xlink="http://www.w3.org/1999/xlink">
<g stroke-linecap="round" transform="translate(44.00, 155.00)" id="171-번개-1">
<path d="M143.82,87.25 C143.82,87.25 143.82,86.68 143.82,86.68 C143.82,86.68 144.39,86.68 144.39,86.68 C143.36,86.74 142.58,87.07 141.65,88.01 C139.98,89.68 132.15,98.75 124.50,106.71 C121.73,109.58 108.19,122.81 106.51,125.62 C106.31,125.96 106.18,126.36 106.14,126.82 C106.85,127.07 124.30,131.89 132.80,134.41 C155.57,141.37 159.76,144.08 160.85,144.97 C160.85,144.97 148.44,183.44 148.44,183.44 C155.96,170.88 175.78,137.34 178.18,132.57 C178.90,131.14 179.15,130.17 179.31,128.55 C169.28,128.61 143.22,126.17 138.69,125.14 C135.03,124.27 130.07,122.52 130.15,122.55 C132.13,111.20 141.04,91.86 142.68,88.79 C142.68,88.79 143.25,90.10 143.25,90.10" fill="none" stroke="rgb(0, 0, 255)" stroke-width="3.35" stroke-opacity="1.00" stroke-linejoin="round"/>
</g>
</svg>
