<?xml version="1.0" encoding="UTF-8" standalone="no"?>
<!DOCTYPE svg PUBLIC "-//W3C//DTD SVG 1.1//EN" "http://www.w3.org/Graphics/SVG/1.1/DTD/svg11.dtd">
<svg width="128.40" height="181.68" viewBox="0.00 0.00 535.00 757.00" xmlns="http://www.w3.org/2000/svg" xmlns:xlink="http://www.w3.org/1999/xlink">
<g stroke-linecap="round" transform="translate(44.00, 155.00)" id="171-구름-4">
<path d="M408.51,-9.21 C408.51,-9.21 408.23,-8.37 408.23,-8.37 C408.23,-8.37 407.38,-8.09 407.38,-8.09 C407.08,-8.41 405.91,-11.21 402.18,-16.15 C400.26,-18.66 397.61,-21.54 395.88,-22.51 C394.09,-23.47 389.89,-24.28 387.26,-24.15 C384.77,-24.01 380.29,-23.03 377.67,-22.15 C376.46,-21.71 374.11,-20.28 373.00,-19.18 C370.94,-17.07 369.28,-10.74 369.15,-7.84 C369.06,-5.03 369.97,0.33 371.02,2.89 C372.14,5.49 375.46,10.05 377.50,11.64 C379.51,13.17 384.95,15.50 387.81,16.13 C391.16,16.84 396.16,17.03 398.69,16.15 C400.92,15.33 405.13,12.46 406.73,10.47 C408.17,8.61 409.92,4.98 409.87,3.76 C412.48,7.13 415.02,10.23 416.53,11.55 C418.73,13.41 423.31,15.78 425.95,16.31 C428.54,16.78 434.13,16.12 436.45,14.89 C439.32,13.33 443.60,9.11 445.05,5.83 C446.27,2.99 447.66,-4.91 447.63,-7.88 C447.56,-10.98 446.24,-16.69 445.14,-18.98 C444.01,-21.23 440.62,-24.60 438.30,-26.11 C435.99,-27.58 431.95,-29.17 429.55,-29.36 C427.25,-29.49 422.08,-27.69 420.06,-26.00 C416.16,-22.61 412.23,-16.42 411.22,-14.57 C410.99,-14.15 410.65,-13.49 410.19,-12.59" fill="none" stroke="rgb(0, 255, 0)" stroke-width="3.35" stroke-opacity="1.00" stroke-linejoin="round"/>
</g>
</svg>
