<?xml version="1.0" encoding="UTF-8" standalone="no"?>
<!DOCTYPE svg PUBLIC "-//W3C//DTD SVG 1.1//EN" "http://www.w3.org/Graphics/SVG/1.1/DTD/svg11.dtd">
<svg width="128.40" height="181.68" viewBox="0.00 0.00 535.00 757.00" xmlns="http://www.w3.org/2000/svg" xmlns:xlink="http://www.w3.org/1999/xlink">
<g stroke-linecap="round" transform="translate(44.00, 155.00)" id="171-번개-2">
<path d="M313.65,104.35 C313.65,104.35 313.00,101.68 313.00,101.68 C311.03,102.61 308.56,104.68 304.36,108.99 C291.07,122.78 270.99,140.26 260.06,149.83 C258.90,150.83 258.50,151.36 258.29,152.05 C258.69,152.29 279.64,159.95 283.56,161.61 C286.80,163.00 292.10,165.67 292.73,166.37 C289.05,168.76 284.47,172.90 283.66,173.81 C281.31,176.44 272.52,188.55 270.60,192.16 C271.40,192.44 272.20,192.24 274.01,191.10 C286.72,183.09 311.13,166.92 312.03,165.97 C296.10,156.87 277.18,149.56 276.78,149.16 C276.94,148.68 287.76,135.31 289.51,133.00 C298.38,120.71 309.69,105.04 312.18,102.47 C312.18,102.47 312.51,103.21 312.51,103.21" fill="none" stroke="rgb(0, 0, 255)" stroke-width="3.35" stroke-opacity="1.00" stroke-linejoin="round"/>
</g>
</svg>
