<?xml version="1.0" encoding="UTF-8" standalone="no"?>
<!DOCTYPE svg PUBLIC "-//W3C//DTD SVG 1.1//EN" "http://www.w3.org/Graphics/SVG/1.1/DTD/svg11.dtd">
<svg width="128.40" height="181.68" viewBox="0.00 0.00 535.00 757.00" xmlns="http://www.w3.org/2000/svg" xmlns:xlink="http://www.w3.org/1999/xlink">
<g stroke-linecap="round" transform="translate(44.00, 155.00)" id="171-구름-2">
<path d="M122.47,3.71 C122.47,3.71 119.26,4.27 119.26,4.27 C119.12,3.87 121.35,0.15 123.48,-2.48 C126.13,-5.69 131.59,-10.17 134.16,-11.08 C136.43,-11.84 140.25,-11.66 145.31,-11.26 C149.00,-10.96 153.96,-10.06 155.81,-9.19 C160.77,-6.80 171.03,1.21 173.28,4.27 C175.15,6.85 176.40,12.41 176.57,14.00 C177.12,19.05 176.17,31.58 174.48,36.36 C172.02,43.24 164.74,55.19 161.06,58.85 C159.10,60.75 154.82,63.50 152.29,64.56 C149.78,65.60 144.50,66.79 141.94,66.86 C139.22,66.91 134.31,65.66 132.09,64.16 C129.63,62.44 125.13,57.09 123.52,54.30 C119.74,47.64 117.14,40.60 116.15,37.21 C116.87,39.67 115.62,44.41 114.30,47.35 C112.99,50.17 109.15,56.35 106.90,59.23 C104.44,62.32 100.56,65.33 98.74,65.82 C96.83,66.27 92.97,64.74 90.55,63.04 C88.20,61.36 83.93,56.28 82.38,53.24 C80.08,48.60 77.97,36.08 77.61,34.37 C77.45,34.47 69.78,49.94 66.46,54.36 C64.52,56.89 60.66,59.31 58.11,59.83 C55.77,60.28 50.47,60.36 46.80,59.90 C43.26,59.43 37.59,57.13 35.30,54.99 C31.89,51.69 29.06,43.74 28.63,39.90 C27.60,42.69 24.55,47.62 22.90,49.78 C21.05,52.15 17.79,54.81 15.83,55.25 C13.84,55.65 8.78,54.23 6.64,53.00 C4.18,51.56 0.19,47.09 -0.94,45.09 C-3.18,41.02 -5.02,30.64 -5.36,23.96 C-5.50,21.00 -5.48,14.14 -5.15,11.48 C-4.59,7.41 -2.83,1.97 -0.78,-0.53 C1.06,-2.69 6.18,-5.46 8.83,-5.90 C11.65,-6.32 16.33,-5.11 18.32,-3.49 C20.07,-1.99 22.25,1.09 23.19,2.77 C23.38,3.13 23.51,3.44 23.57,3.71" fill="none" stroke="rgb(0, 255, 0)" stroke-width="3.35" stroke-opacity="1.00" stroke-linejoin="round"/>
<path d="M28.63,3.15 C28.63,3.15 26.94,2.59 26.94,2.59 C26.94,2.59 25.82,3.09 25.82,3.09 C26.00,2.88 29.46,-1.78 31.25,-3.61 C35.08,-7.46 45.63,-11.65 46.86,-11.71 C48.99,-11.75 56.98,-8.71 58.87,-7.83 C61.28,-6.68 63.68,-4.08 65.09,-2.18 C66.85,0.27 70.67,8.25 70.87,8.72 C70.87,8.72 70.77,8.21 70.77,8.21" fill="none" stroke="rgb(0, 255, 0)" stroke-width="3.35" stroke-opacity="1.00" stroke-linejoin="round"/>
<path d="M73.02,8.77 C73.53,8.09 73.62,7.33 73.77,7.08 C73.86,6.93 79.69,-1.34 80.73,-2.65 C82.34,-4.65 86.45,-7.89 88.55,-8.56 C90.48,-9.13 95.31,-9.23 100.18,-9.18 C104.15,-9.11 109.10,-8.34 110.90,-7.29 C113.86,-5.47 117.84,1.70 118.62,4.85 C118.73,5.30 118.89,6.05 119.10,7.08" fill="none" stroke="rgb(0, 255, 0)" stroke-width="3.35" stroke-opacity="1.00" stroke-linejoin="round"/>
</g>
</svg>
