<?xml version="1.0" encoding="UTF-8" standalone="no"?>
<!DOCTYPE svg PUBLIC "-//W3C//DTD SVG 1.1//EN" "http://www.w3.org/Graphics/SVG/1.1/DTD/svg11.dtd">
<svg width="128.40" height="181.68" viewBox="0.00 0.00 535.00 757.00" xmlns="http://www.w3.org/2000/svg" xmlns:xlink="http://www.w3.org/1999/xlink">
<g stroke-linecap="round" transform="translate(44.00, 155.00)" id="172-지면">
<path d="M373.90,485.10 C374.02,485.10 374.14,485.10 374.25,485.10 C374.37,485.10 374.49,485.10 374.61,485.10 C374.61,485.10 375.32,485.10 375.32,485.10 C371.62,484.02 350.46,473.81 349.61,473.41 C345.45,471.50 339.91,469.89 336.51,469.83 C331.87,469.82 313.17,473.59 309.58,475.10 C306.63,476.38 302.34,478.80 300.37,480.39 C298.59,481.85 294.55,486.19 292.92,488.31 C291.10,490.70 288.87,495.08 288.47,497.19 C288.14,499.10 288.61,503.33 289.91,505.34 C291.34,507.46 295.70,511.56 298.99,513.80 C301.64,515.58 309.36,520.32 310.03,520.71 C314.81,523.41 327.98,527.22 333.73,527.83 C337.33,528.20 341.83,528.27 344.11,527.83 C347.24,527.21 350.91,526.09 355.25,524.50 C358.20,523.38 363.05,520.34 366.35,517.62 C369.36,515.10 373.70,509.67 375.28,507.03 C377.55,503.13 378.78,498.82 378.89,495.61 C378.93,492.27 377.70,488.30 375.70,485.67 C375.08,484.87 373.24,483.04 372.41,482.23 C371.99,481.81 371.06,480.87 369.62,479.40" fill="none" stroke="rgb(0, 160, 232)" stroke-width="3.35" stroke-opacity="1.00" stroke-linejoin="round"/>
<path d="M472.94,481.54 C472.94,481.54 474.01,481.54 474.01,481.54 C474.01,481.54 474.37,481.19 474.37,481.19 C474.37,481.19 474.37,479.82 474.37,479.82 C474.17,479.47 466.56,476.08 465.66,476.08 C464.20,476.12 462.51,478.37 462.00,480.62 C461.89,481.21 462.07,484.25 462.20,484.73 C462.81,486.86 464.45,489.08 465.82,489.29 C466.94,489.43 469.35,488.12 470.36,487.01 C470.98,486.27 472.50,483.40 472.74,482.47 C472.99,481.46 473.03,479.19 472.96,477.72" fill="none" stroke="rgb(127, 46, 0)" stroke-width="3.35" stroke-opacity="1.00" stroke-linejoin="round"/>
<path d="M464.39,478.69 C464.40,476.80 464.40,475.62 464.39,475.17 C464.38,474.71 464.34,474.33 464.27,474.03 C462.52,473.54 458.52,473.76 455.76,475.68 C455.71,475.72 446.80,482.40 443.90,484.56 C438.31,488.64 436.61,490.25 436.90,491.53 C436.96,491.75 437.19,492.22 437.59,492.92 C439.22,493.66 440.45,493.88 441.98,493.52 C444.72,492.85 450.89,489.52 453.53,487.70 C456.47,485.65 458.44,482.37 459.17,480.95" fill="none" stroke="rgb(127, 46, 0)" stroke-width="3.35" stroke-opacity="1.00" stroke-linejoin="round"/>
<path d="M450.85,473.70 C450.85,473.70 452.99,472.28 452.99,472.28 C451.55,472.34 449.27,472.36 448.14,472.24 C447.13,472.13 438.69,470.59 437.31,470.85 C435.78,471.18 434.31,472.20 433.48,473.49 C431.74,476.32 424.63,486.76 424.13,488.51 C424.52,489.73 425.21,490.99 426.09,491.68 C427.14,492.48 428.88,493.13 429.79,493.08 C430.17,493.03 432.30,492.59 432.77,492.21 C433.21,491.85 436.13,488.70 437.18,487.56" fill="none" stroke="rgb(127, 46, 0)" stroke-width="3.35" stroke-opacity="1.00" stroke-linejoin="round"/>
<path d="M430.90,473.70 C430.90,473.70 430.90,472.99 430.90,472.99 C426.77,472.90 423.63,473.43 420.14,474.95 C417.49,476.16 415.85,477.08 414.93,477.99 C414.12,478.84 413.32,480.84 413.24,482.09 C413.20,483.36 413.75,485.33 414.41,486.12 C415.22,487.00 418.11,487.46 420.06,487.08 C420.83,486.91 422.96,485.66 423.90,485.12" fill="none" stroke="rgb(127, 46, 0)" stroke-width="3.35" stroke-opacity="1.00" stroke-linejoin="round"/>
<path d="M411.66,473.70 C411.66,473.70 414.29,471.57 414.29,471.57 C405.48,470.89 397.18,470.81 395.95,471.40 C395.26,471.76 394.93,472.89 394.73,474.77 C394.62,476.76 394.79,480.02 395.44,481.03 C396.40,482.46 405.73,485.09 406.32,485.21 C406.75,485.30 407.66,485.44 409.06,485.65" fill="none" stroke="rgb(127, 46, 0)" stroke-width="3.35" stroke-opacity="1.00" stroke-linejoin="round"/>
<path d="M395.27,470.85 C395.27,470.85 395.27,470.14 395.27,470.14 C392.64,467.69 389.31,465.76 385.99,465.93 C384.19,466.07 381.08,467.39 379.76,468.59 C378.59,469.73 376.89,472.80 376.59,474.37 C376.31,476.29 377.43,479.30 378.93,480.37 C380.13,481.16 384.80,482.34 386.15,482.18 C386.76,482.09 387.93,481.75 389.68,481.14" fill="none" stroke="rgb(127, 46, 0)" stroke-width="3.35" stroke-opacity="1.00" stroke-linejoin="round"/>
<path d="M378.89,465.87 C378.21,464.53 376.91,463.09 375.44,462.45 C374.94,462.24 369.53,460.98 368.87,461.02 C367.39,461.15 365.43,463.19 364.92,464.84 C364.50,466.38 364.77,472.66 365.23,474.73 C365.56,476.05 366.51,478.06 367.22,478.61 C367.90,479.10 370.59,479.90 371.85,480.00 C372.37,480.04 373.57,480.07 375.45,480.11" fill="none" stroke="rgb(127, 46, 0)" stroke-width="3.35" stroke-opacity="1.00" stroke-linejoin="round"/>
<path d="M366.06,463.73 C366.06,463.73 364.12,463.73 364.12,463.73 C363.91,463.02 363.97,459.65 363.81,459.26 C363.59,458.72 362.86,457.83 361.62,456.60 C360.55,456.57 359.36,457.21 358.34,458.70 C357.36,460.15 356.13,463.48 355.86,465.46 C355.43,469.14 357.45,471.80 358.44,472.00 C358.85,472.08 359.92,472.15 361.65,472.23" fill="none" stroke="rgb(127, 46, 0)" stroke-width="3.35" stroke-opacity="1.00" stroke-linejoin="round"/>
<path d="M358.22,458.03 C357.53,458.12 357.06,458.12 356.80,458.03 C354.75,456.92 351.09,455.24 348.09,454.80 C344.92,454.37 340.12,454.99 338.23,456.22 C337.66,456.62 335.91,458.42 335.53,459.14 C334.68,460.87 334.18,463.72 334.64,465.10 C335.27,466.90 340.25,471.74 341.58,472.25 C342.39,472.56 344.45,472.84 345.83,472.94" fill="none" stroke="rgb(127, 46, 0)" stroke-width="3.35" stroke-opacity="1.00" stroke-linejoin="round"/>
<path d="M334.71,458.74 C334.21,458.80 333.86,458.80 333.67,458.74 C333.18,458.60 331.43,457.55 330.46,457.41 C328.91,457.23 326.50,458.32 325.15,459.91 C324.07,461.23 322.80,464.27 322.74,465.52 C322.73,466.66 323.60,468.40 324.40,468.72 C325.73,469.19 330.82,467.92 332.07,467.61" fill="none" stroke="rgb(127, 46, 0)" stroke-width="3.35" stroke-opacity="1.00" stroke-linejoin="round"/>
<path d="M326.16,462.30 C326.15,462.52 325.51,462.13 323.43,460.59 C322.84,460.17 320.39,458.51 319.69,458.33 C318.65,458.09 315.27,458.02 314.52,458.46 C312.76,459.57 310.94,461.27 310.32,462.46 C309.21,464.67 307.47,469.35 306.70,472.79 C306.70,472.79 308.09,474.76 308.09,474.76" fill="none" stroke="rgb(127, 46, 0)" stroke-width="3.35" stroke-opacity="1.00" stroke-linejoin="round"/>
<path d="M305.49,465.87 C305.49,465.87 304.78,465.87 304.78,465.87 C304.47,465.25 301.48,465.19 300.27,465.15 C299.18,465.13 295.57,464.47 295.14,464.47 C294.09,464.50 292.71,465.89 291.33,468.06 C291.08,468.46 288.78,472.43 287.98,473.79 C286.88,475.67 286.42,477.30 286.01,480.28 C286.88,481.09 288.34,481.80 289.87,481.84 C292.79,481.88 300.50,479.14 303.18,477.29 C303.54,477.04 304.16,476.58 305.05,475.90" fill="none" stroke="rgb(127, 46, 0)" stroke-width="3.35" stroke-opacity="1.00" stroke-linejoin="round"/>
<path d="M286.97,467.29 C286.97,467.29 285.18,465.90 285.18,465.90 C285.18,465.90 275.53,464.63 275.53,464.63 C274.37,465.53 270.99,474.04 271.00,476.21 C271.04,477.26 272.02,478.98 272.71,479.45 C273.50,479.92 275.57,480.32 276.65,480.12 C279.08,479.63 283.01,475.67 284.92,473.75" fill="none" stroke="rgb(127, 46, 0)" stroke-width="3.35" stroke-opacity="1.00" stroke-linejoin="round"/>
<path d="M272.00,465.87 C272.00,465.87 273.43,463.73 273.43,463.73 C271.00,463.80 265.02,462.95 262.24,463.11 C258.65,463.36 253.01,465.30 251.79,466.89 C251.80,468.27 255.14,472.86 256.88,473.51 C259.41,474.42 264.38,474.20 267.54,473.48 C268.35,473.28 269.16,473.09 269.97,472.90" fill="none" stroke="rgb(127, 46, 0)" stroke-width="3.35" stroke-opacity="1.00" stroke-linejoin="round"/>
<path d="M250.63,468.72 C250.59,468.05 250.54,467.61 250.48,467.41 C250.07,466.13 245.25,463.89 243.35,463.75 C242.21,463.70 240.82,464.92 239.80,466.66 C239.51,467.18 231.73,480.87 231.47,482.08 C232.05,483.09 233.40,483.64 235.75,483.67 C237.42,483.68 243.29,482.77 244.47,482.40 C246.56,481.70 249.62,479.04 251.31,475.29 C251.53,474.80 251.94,473.84 252.54,472.40" fill="none" stroke="rgb(127, 46, 0)" stroke-width="3.35" stroke-opacity="1.00" stroke-linejoin="round"/>
<path d="M242.07,466.58 C242.07,466.58 241.72,466.58 241.72,466.58 C241.37,466.27 241.13,466.08 241.01,466.02 C240.69,465.86 233.18,465.23 232.96,465.25 C231.78,465.40 229.47,466.41 228.05,467.17 C225.70,476.11 226.68,480.81 227.72,482.91 C227.72,482.91 231.73,482.85 231.73,482.85" fill="none" stroke="rgb(127, 46, 0)" stroke-width="3.35" stroke-opacity="1.00" stroke-linejoin="round"/>
<path d="M224.26,470.14 C224.26,470.14 224.11,467.80 224.11,467.80 C222.80,467.18 215.89,465.71 212.83,465.93 C211.30,466.06 208.39,467.07 207.37,467.81 C206.86,468.21 206.22,471.32 206.15,472.18 C206.06,474.08 206.68,477.29 207.43,478.94 C207.64,479.36 209.48,481.66 210.07,481.95 C212.67,483.19 220.18,483.48 221.41,483.25 C221.88,483.16 222.50,482.92 223.25,482.51" fill="none" stroke="rgb(127, 46, 0)" stroke-width="3.35" stroke-opacity="1.00" stroke-linejoin="round"/>
<path d="M202.17,470.14 C199.87,466.98 196.12,464.29 193.47,462.93 C190.87,461.64 186.79,460.88 184.37,461.44 C182.27,461.98 172.81,466.86 171.86,468.53 C171.22,469.72 170.49,473.14 170.44,475.13 C170.43,477.15 171.24,480.36 172.13,481.30 C173.63,482.80 178.41,483.97 181.83,484.42 C187.74,485.18 191.78,485.44 193.12,485.03 C195.29,484.33 197.02,483.38 198.11,482.22 C198.47,481.82 200.30,479.31 200.56,478.77 C200.75,478.36 201.13,477.42 201.69,475.95" fill="none" stroke="rgb(127, 46, 0)" stroke-width="3.35" stroke-opacity="1.00" stroke-linejoin="round"/>
<path d="M170.11,466.58 C170.11,466.58 170.11,468.00 170.11,468.00 C170.01,466.09 165.95,459.50 162.96,457.95 C160.47,456.71 154.49,456.73 153.21,456.89 C149.77,457.36 138.57,461.73 137.19,463.17 C136.13,464.32 134.96,466.80 134.67,468.45 C134.65,468.56 134.01,474.86 134.00,474.97 C134.00,476.02 135.06,477.27 136.39,477.79 C139.17,478.81 146.52,479.65 149.36,479.68 C152.54,479.70 158.68,478.90 161.61,478.03 C163.71,477.36 166.98,473.45 167.97,472.28" fill="none" stroke="rgb(127, 46, 0)" stroke-width="3.35" stroke-opacity="1.00" stroke-linejoin="round"/>
<path d="M136.62,460.88 C136.62,460.88 136.62,461.59 136.62,461.59 C135.94,461.61 133.81,461.49 132.96,461.27 C132.47,461.14 125.81,458.22 122.69,457.78 C118.98,457.30 100.15,460.79 99.02,461.53 C97.79,462.37 96.88,464.89 97.05,466.57 C97.34,468.73 98.26,470.63 99.67,472.00 C100.79,473.04 106.21,473.82 111.42,474.10 C115.12,474.23 122.70,474.48 126.87,474.46 C127.54,474.46 128.34,474.45 129.28,474.42" fill="none" stroke="rgb(127, 46, 0)" stroke-width="3.35" stroke-opacity="1.00" stroke-linejoin="round"/>
<path d="M100.99,460.16 C99.99,460.16 99.00,460.16 98.01,460.16 C95.14,460.18 76.33,458.31 73.12,458.62 C65.06,459.42 62.95,460.43 62.07,461.13 C62.02,463.63 62.32,465.63 63.25,467.23 C64.34,469.09 65.96,470.94 67.03,471.54 C69.15,472.65 75.81,474.20 77.95,474.46 C81.36,474.84 94.81,475.11 96.08,475.13" fill="none" stroke="rgb(127, 46, 0)" stroke-width="3.35" stroke-opacity="1.00" stroke-linejoin="round"/>
<path d="M68.21,468.72 C68.21,468.72 67.85,469.78 67.85,469.78 C67.85,469.78 66.79,469.90 66.79,469.90 C66.79,466.83 66.74,460.26 65.76,457.26 C65.20,455.72 63.43,454.22 61.48,453.64 C59.17,452.99 39.66,453.17 37.41,453.61 C37.41,453.61 37.57,453.75 37.57,453.75" fill="none" stroke="rgb(127, 46, 0)" stroke-width="3.35" stroke-opacity="1.00" stroke-linejoin="round"/>
<path d="M34.72,473.70 C34.72,473.70 32.58,473.70 32.58,473.70 C42.51,473.79 54.00,473.58 59.47,472.17 C61.85,471.55 63.86,470.56 65.57,469.25 C65.57,469.25 63.79,469.33 63.79,469.33" fill="none" stroke="rgb(127, 46, 0)" stroke-width="3.35" stroke-opacity="1.00" stroke-linejoin="round"/>
<path d="M29.73,455.18 C29.73,455.18 29.02,455.18 29.02,455.18 C29.02,455.18 36.43,456.40 36.43,456.40 C36.84,459.53 36.74,464.56 36.02,466.75 C35.29,468.90 32.99,471.10 32.37,471.78 C32.09,472.07 31.73,472.68 31.29,473.59 C31.87,470.43 33.04,464.00 33.22,461.18 C33.25,460.26 32.46,456.75 31.78,455.83 C30.85,454.62 28.14,453.70 26.00,453.54 C25.76,453.53 16.66,453.00 15.47,453.22 C13.73,453.61 12.41,454.16 11.97,455.10 C11.44,456.29 9.33,459.96 9.02,460.72 C8.91,460.99 8.91,461.45 9.00,462.10" fill="none" stroke="rgb(127, 46, 0)" stroke-width="3.35" stroke-opacity="1.00" stroke-linejoin="round"/>
<path d="M11.92,470.85 C11.92,470.85 9.90,470.85 9.90,470.85 C9.90,470.85 32.74,472.28 32.74,472.28 C32.74,472.28 32.24,472.28 32.24,472.28" fill="none" stroke="rgb(127, 46, 0)" stroke-width="3.35" stroke-opacity="1.00" stroke-linejoin="round"/>
<path d="M6.22,462.30 C6.22,462.30 6.22,464.44 6.22,464.44 C6.21,462.61 6.23,459.08 6.14,458.39 C5.92,456.66 4.43,455.09 2.51,454.26 C0.85,453.62 -17.80,456.28 -19.15,456.84 C-18.82,459.29 -18.65,461.63 -18.43,466.08 C-18.33,468.12 -18.18,471.51 -18.12,472.86" fill="none" stroke="rgb(127, 46, 0)" stroke-width="3.35" stroke-opacity="1.00" stroke-linejoin="round"/>
<path d="M8.36,458.03 C8.46,459.15 7.50,460.63 7.64,463.49 C7.95,467.16 8.36,472.81 8.31,475.82 C8.31,475.82 7.36,475.56 7.36,475.56" fill="none" stroke="rgb(127, 46, 0)" stroke-width="3.35" stroke-opacity="1.00" stroke-linejoin="round"/>
<path d="M-22.28,456.60 C-22.28,456.60 -39.19,458.78 -39.19,458.78 C-39.19,458.78 -38.43,459.29 -38.43,459.29" fill="none" stroke="rgb(127, 46, 0)" stroke-width="3.35" stroke-opacity="1.00" stroke-linejoin="round"/>
<path d="M-32.97,481.54 C-32.97,481.54 -37.90,482.91 -37.90,482.91 C-36.15,482.76 -30.46,480.85 -27.14,479.54 C-23.41,478.05 -21.11,477.19 -20.37,476.92" fill="none" stroke="rgb(127, 46, 0)" stroke-width="3.35" stroke-opacity="1.00" stroke-linejoin="round"/>
<path d="M-18.01,472.99 C-18.01,472.99 -19.01,473.28 -19.01,473.28 C-19.43,474.64 -19.42,476.25 -18.85,477.86 C-15.85,486.29 -10.86,505.85 -10.56,507.49 C-10.27,509.14 -8.93,538.12 -9.19,561.28 C-9.17,564.51 -8.50,574.40 -8.42,575.47" fill="none" stroke="rgb(127, 46, 0)" stroke-width="3.35" stroke-opacity="1.00" stroke-linejoin="round"/>
<path d="M-13.02,476.55 C-13.02,476.55 -15.87,479.40 -15.87,479.40 C-14.72,479.44 -8.52,478.81 -5.04,478.55 C-2.29,478.34 0.34,477.99 2.19,477.55 C2.78,477.41 5.15,476.65 6.45,476.25" fill="none" stroke="rgb(127, 46, 0)" stroke-width="3.35" stroke-opacity="1.00" stroke-linejoin="round"/>
<path d="M11.21,477.98 C9.83,479.18 8.67,480.90 8.36,482.56 C8.04,484.33 12.48,506.22 13.42,512.89 C14.43,520.17 15.26,533.12 15.50,543.13 C15.74,553.03 16.79,559.14 19.86,572.21 C20.69,575.88 21.67,581.62 22.18,584.79 C22.67,588.02 23.14,592.32 23.24,593.29" fill="none" stroke="rgb(127, 46, 0)" stroke-width="3.35" stroke-opacity="1.00" stroke-linejoin="round"/>
<path d="M33.30,472.99 C33.30,472.99 31.51,472.99 31.51,472.99 C30.57,473.78 33.76,487.56 35.29,495.36 C37.88,510.02 42.47,541.53 44.59,557.46 C45.76,565.06 48.08,577.59 49.27,583.45 C49.34,583.88 49.47,584.69 49.64,585.87" fill="none" stroke="rgb(127, 46, 0)" stroke-width="3.35" stroke-opacity="1.00" stroke-linejoin="round"/>
<path d="M53.25,472.28 C52.69,474.73 52.40,478.87 52.68,482.21 C53.02,485.82 56.72,500.62 58.15,506.59 C59.78,514.20 61.03,523.64 62.03,534.59 C62.55,541.85 63.35,555.40 64.00,562.65 C64.38,566.13 65.27,573.71 65.87,576.26 C66.14,577.36 68.43,582.97 68.92,584.15" fill="none" stroke="rgb(127, 46, 0)" stroke-width="3.35" stroke-opacity="1.00" stroke-linejoin="round"/>
<path d="M90.30,477.27 C90.30,477.44 90.28,478.50 90.30,478.81 C90.55,483.69 92.05,493.29 92.78,503.05 C93.73,519.00 96.10,556.93 96.02,560.24 C95.93,563.68 95.32,572.00 95.03,575.80 C94.73,579.53 94.11,587.54 93.96,591.18 C93.93,591.83 93.92,592.60 93.92,593.49" fill="none" stroke="rgb(127, 46, 0)" stroke-width="3.35" stroke-opacity="1.00" stroke-linejoin="round"/>
<path d="M131.63,475.13 C131.63,475.13 131.27,475.13 131.27,475.13 C130.43,476.22 130.19,479.71 130.17,483.29 C130.04,500.01 129.63,527.64 129.58,543.40 C129.68,570.91 130.15,581.59 131.03,584.57 C131.17,585.02 131.55,586.03 132.16,587.59" fill="none" stroke="rgb(127, 46, 0)" stroke-width="3.35" stroke-opacity="1.00" stroke-linejoin="round"/>
<path d="M162.27,475.84 C160.84,477.88 160.21,480.67 160.51,483.70 C160.66,485.06 164.21,509.53 164.45,513.22 C166.75,564.52 168.46,578.25 169.60,584.57 C169.60,584.57 169.56,583.91 169.56,583.91" fill="none" stroke="rgb(127, 46, 0)" stroke-width="3.35" stroke-opacity="1.00" stroke-linejoin="round"/>
<path d="M162.98,516.46 C162.98,518.43 162.98,524.57 162.98,528.74 C162.96,544.38 163.11,586.24 163.54,587.99 C163.62,588.31 163.86,588.97 164.26,589.97" fill="none" stroke="rgb(127, 46, 0)" stroke-width="3.35" stroke-opacity="1.00" stroke-linejoin="round"/>
<path d="M190.77,478.69 C190.81,481.67 190.93,488.93 191.15,492.72 C192.30,507.42 194.44,538.86 195.04,555.77 C195.16,565.32 195.08,588.77 195.22,591.51 C195.22,591.51 195.65,591.50 195.65,591.50" fill="none" stroke="rgb(127, 46, 0)" stroke-width="3.35" stroke-opacity="1.00" stroke-linejoin="round"/>
<path d="M217.13,481.54 C217.13,481.54 216.78,480.47 216.78,480.47 C216.78,480.47 216.42,480.76 216.42,480.76 C216.39,484.36 217.41,523.16 217.82,540.92 C217.98,549.64 218.29,565.45 218.44,572.55 C218.56,577.50 218.81,581.77 219.27,585.57" fill="none" stroke="rgb(127, 46, 0)" stroke-width="3.35" stroke-opacity="1.00" stroke-linejoin="round"/>
<path d="M225.69,484.39 C224.37,488.64 224.20,492.41 224.41,495.90 C225.63,511.86 227.47,538.25 227.79,555.58 C227.84,580.23 228.05,584.52 228.30,586.46" fill="none" stroke="rgb(127, 46, 0)" stroke-width="3.35" stroke-opacity="1.00" stroke-linejoin="round"/>
<path d="M245.64,479.40 C245.64,479.40 245.64,479.05 245.64,479.05 C245.64,479.05 245.28,478.69 245.28,478.69 C244.98,478.96 244.86,479.49 244.88,480.91 C245.51,509.53 246.68,588.40 246.94,590.33 C247.04,591.01 247.28,592.21 247.66,593.92" fill="none" stroke="rgb(127, 46, 0)" stroke-width="3.35" stroke-opacity="1.00" stroke-linejoin="round"/>
<path d="M264.16,479.40 C264.16,479.40 263.09,478.69 263.09,478.69 C262.59,478.57 262.98,483.10 263.59,488.96 C265.14,505.35 266.69,534.22 266.98,548.74 C267.00,555.58 267.23,575.81 267.49,576.49 C267.62,576.83 268.03,577.41 268.72,578.22" fill="none" stroke="rgb(127, 46, 0)" stroke-width="3.35" stroke-opacity="1.00" stroke-linejoin="round"/>
<path d="M279.13,474.42 C279.13,476.60 279.13,482.37 279.12,485.95 C279.22,501.76 279.72,532.54 280.41,547.40 C281.38,562.62 283.11,582.56 284.32,586.69 C284.32,586.69 285.20,586.75 285.20,586.75" fill="none" stroke="rgb(127, 46, 0)" stroke-width="3.35" stroke-opacity="1.00" stroke-linejoin="round"/>
<path d="M305.49,520.02 C305.49,521.35 305.51,524.90 305.52,527.13 C305.81,541.67 306.42,585.95 306.42,585.96 C306.59,587.45 307.12,589.77 307.52,591.03" fill="none" stroke="rgb(127, 46, 0)" stroke-width="3.35" stroke-opacity="1.00" stroke-linejoin="round"/>
<path d="M327.58,523.58 C327.18,523.18 326.94,522.83 326.87,522.51 C326.81,522.27 326.81,521.51 326.87,520.24 C326.88,519.95 326.88,519.70 326.87,519.50 C326.91,522.87 326.38,538.41 326.09,546.94 C325.89,554.70 325.54,571.26 325.70,574.25 C325.82,577.15 326.05,583.17 326.16,586.29" fill="none" stroke="rgb(127, 46, 0)" stroke-width="3.35" stroke-opacity="1.00" stroke-linejoin="round"/>
<path d="M341.12,529.28 C341.12,529.28 341.12,528.93 341.12,528.93 C341.12,528.90 341.12,528.97 341.12,529.00 C341.08,544.83 340.84,571.89 340.58,576.68 C340.21,583.81 339.77,592.29 339.71,593.64" fill="none" stroke="rgb(127, 46, 0)" stroke-width="3.35" stroke-opacity="1.00" stroke-linejoin="round"/>
<path d="M362.50,520.02 C360.63,521.75 359.29,525.32 359.13,529.87 C358.71,543.51 357.48,566.90 357.07,574.69 C356.84,581.10 356.81,586.62 356.80,589.22" fill="none" stroke="rgb(127, 46, 0)" stroke-width="3.35" stroke-opacity="1.00" stroke-linejoin="round"/>
<path d="M372.47,510.76 C371.62,511.91 371.05,513.17 370.82,514.90 C370.37,518.35 371.04,564.09 370.57,577.64 C370.53,579.21 370.43,582.74 370.45,583.39 C370.51,585.34 370.79,588.19 371.02,589.77" fill="none" stroke="rgb(127, 46, 0)" stroke-width="3.35" stroke-opacity="1.00" stroke-linejoin="round"/>
<path d="M410.24,485.82 C410.24,485.82 408.81,485.82 408.81,485.82 C408.81,485.82 407.82,486.60 407.82,486.60 C407.44,488.74 407.26,507.78 407.17,516.36 C406.87,526.66 403.69,559.40 402.02,575.15 C401.67,578.08 401.15,582.63 400.97,584.24" fill="none" stroke="rgb(127, 46, 0)" stroke-width="3.35" stroke-opacity="1.00" stroke-linejoin="round"/>
<path d="M427.34,487.24 C427.34,487.24 425.35,486.53 425.35,486.53 C424.09,487.88 423.73,488.78 423.83,490.87 C423.85,491.19 424.45,534.04 423.78,551.61 C423.39,558.67 421.83,577.07 422.05,581.06 C422.05,581.06 423.18,580.63 423.18,580.63" fill="none" stroke="rgb(127, 46, 0)" stroke-width="3.35" stroke-opacity="1.00" stroke-linejoin="round"/>
<path d="M438.74,492.23 C438.74,492.23 439.45,492.23 439.45,492.23 C439.45,492.78 439.44,494.70 439.44,496.06 C439.29,506.68 436.09,542.59 434.56,560.11 C433.96,569.32 433.31,586.44 433.90,589.66 C434.00,590.20 434.19,590.98 434.47,591.99" fill="none" stroke="rgb(127, 46, 0)" stroke-width="3.35" stroke-opacity="1.00" stroke-linejoin="round"/>
<path d="M464.39,484.39 C462.79,486.02 461.71,490.47 461.67,493.07 C461.54,506.97 457.37,578.12 457.39,578.33 C457.42,578.86 457.59,580.08 457.89,581.98" fill="none" stroke="rgb(127, 46, 0)" stroke-width="3.35" stroke-opacity="1.00" stroke-linejoin="round"/>
<path d="M465.82,523.58 C465.82,523.58 462.82,528.42 462.82,528.42 C460.30,525.63 457.74,523.70 454.03,522.26 C450.85,521.07 438.16,519.37 432.83,519.61 C429.61,519.77 411.33,522.14 407.55,523.45 C404.03,524.72 400.14,527.50 396.91,531.01 C396.07,531.94 394.66,533.43 393.85,534.27" fill="none" stroke="rgb(127, 46, 0)" stroke-width="3.35" stroke-opacity="1.00" stroke-linejoin="round"/>
<path d="M467.96,557.79 C467.96,557.79 467.72,556.54 467.72,556.54 C462.83,556.23 445.32,554.02 441.83,553.10 C439.93,552.60 434.12,550.52 428.60,550.09 C423.81,549.74 383.70,550.19 370.07,550.45 C349.90,550.66 328.94,551.59 308.98,553.84 C294.04,555.17 260.32,558.42 248.83,560.18 C234.62,562.33 218.10,564.85 215.78,565.22" fill="none" stroke="rgb(127, 46, 0)" stroke-width="3.35" stroke-opacity="1.00" stroke-linejoin="round"/>
<path d="M450.14,567.05 C450.14,567.05 451.45,566.34 451.45,566.34 C448.56,566.50 444.23,567.71 442.00,567.76 C437.30,567.83 422.05,564.87 414.55,563.40 C404.03,561.46 395.07,560.48 388.45,560.18 C384.67,560.05 366.66,559.32 358.12,557.74 C351.83,556.47 337.31,553.71 330.55,552.88 C315.44,551.22 296.77,550.17 273.32,550.27 C259.33,550.25 223.02,550.79 215.27,550.63 C208.43,550.35 192.68,549.63 186.42,549.82 C183.61,549.92 160.33,551.49 157.21,551.58 C151.33,551.74 135.23,551.26 128.02,551.19 C117.53,551.31 78.33,552.87 69.99,551.66 C60.76,550.24 53.34,549.58 42.85,549.31 C36.28,549.24 13.13,550.63 12.39,550.49 C11.91,550.39 10.91,550.05 9.40,549.48" fill="none" stroke="rgb(127, 46, 0)" stroke-width="3.35" stroke-opacity="1.00" stroke-linejoin="round"/>
<path d="M271.29,585.57 C268.55,585.59 265.09,585.32 260.47,584.27 C249.00,581.54 241.70,580.00 234.19,579.33 C231.90,579.13 193.00,576.65 176.23,574.71 C161.73,573.34 133.13,570.44 116.53,568.39 C107.57,567.20 102.85,565.86 90.77,562.79 C86.25,561.66 76.18,559.18 75.22,558.96 C71.11,558.05 53.69,557.51 45.64,555.83 C39.56,554.55 25.67,550.92 19.64,549.84 C13.89,548.83 -2.52,547.79 -9.37,547.41 C-19.87,546.70 -31.66,546.85 -35.18,547.42 C-35.18,547.42 -35.48,548.33 -35.48,548.33" fill="none" stroke="rgb(127, 46, 0)" stroke-width="3.35" stroke-opacity="1.00" stroke-linejoin="round"/>
<path d="M180.08,576.31 C180.08,576.31 176.73,576.25 176.73,576.25 C176.37,575.41 170.82,575.00 168.22,574.93 C151.41,574.54 120.50,573.50 102.98,571.79 C95.09,570.87 76.26,568.60 72.64,568.29 C64.17,567.57 27.50,570.19 21.13,569.53 C17.34,569.12 -1.29,566.06 -8.44,564.98 C-15.16,564.08 -24.97,563.12 -26.00,563.02" fill="none" stroke="rgb(127, 46, 0)" stroke-width="3.35" stroke-opacity="1.00" stroke-linejoin="round"/>
<path d="M28.31,544.25 C28.31,544.25 22.82,544.25 22.82,544.25 C29.21,544.11 66.51,540.51 82.17,538.89 C94.66,537.72 125.06,536.88 138.78,536.69 C149.01,536.38 192.78,533.84 200.75,533.98 C204.54,534.06 290.60,537.83 317.20,539.67 C350.41,541.56 392.48,544.51 393.46,544.63 C394.59,544.78 396.41,545.17 397.42,545.45" fill="none" stroke="rgb(127, 46, 0)" stroke-width="3.35" stroke-opacity="1.00" stroke-linejoin="round"/>
<path d="M298.37,517.17 C298.37,516.81 294.98,516.33 285.54,515.48 C257.21,512.82 232.35,511.81 225.71,511.42 C213.89,510.44 180.81,508.99 162.89,508.29 C138.84,507.45 119.15,507.95 108.05,509.04 C95.80,510.37 85.28,511.23 76.00,511.35 C67.48,511.35 60.99,511.09 50.49,511.68 C29.55,513.20 5.35,515.70 -7.02,515.18 C-21.92,514.70 -37.11,516.29 -38.04,516.22 C-38.04,516.22 -39.13,514.83 -39.13,514.83" fill="none" stroke="rgb(127, 46, 0)" stroke-width="3.35" stroke-opacity="1.00" stroke-linejoin="round"/>
<path d="M-31.55,492.94 C-31.55,492.94 -32.26,490.09 -32.26,490.09 C-30.46,491.30 -27.22,492.56 -21.33,494.32 C-17.27,495.48 -8.73,497.88 -6.62,498.39 C-3.91,499.03 30.38,499.95 50.67,501.83 C72.23,503.54 84.67,503.64 104.56,502.45 C119.44,501.33 150.98,498.59 167.63,496.96 C178.38,495.98 190.31,496.07 195.32,496.21 C205.28,496.36 214.93,495.96 225.22,494.95 C231.81,494.14 243.48,492.76 253.48,492.45 C261.31,492.35 275.00,492.24 280.87,492.23 C284.45,492.18 290.17,492.76 291.95,492.94" fill="none" stroke="rgb(127, 46, 0)" stroke-width="3.35" stroke-opacity="1.00" stroke-linejoin="round"/>
<path d="M267.01,582.01 C267.73,582.12 269.23,581.43 269.85,581.30 C270.98,581.06 283.67,581.77 294.36,581.96 C310.74,582.07 342.08,580.56 352.95,581.37 C360.22,581.77 378.64,582.59 383.37,582.61 C386.82,582.62 389.84,582.40 390.86,582.29" fill="none" stroke="rgb(127, 46, 0)" stroke-width="3.35" stroke-opacity="1.00" stroke-linejoin="round"/>
</g>
</svg>
