<?xml version="1.0" encoding="UTF-8" standalone="no"?>
<!DOCTYPE svg PUBLIC "-//W3C//DTD SVG 1.1//EN" "http://www.w3.org/Graphics/SVG/1.1/DTD/svg11.dtd">
<svg width="128.40" height="181.68" viewBox="0.00 0.00 535.00 757.00" xmlns="http://www.w3.org/2000/svg" xmlns:xlink="http://www.w3.org/1999/xlink">
<g stroke-linecap="round" transform="translate(44.00, 155.00)" id="172-번개">
<path d="M234.95,-62.85 C234.95,-62.85 230.78,-62.50 230.78,-62.50 C230.78,-62.50 229.96,-61.59 229.96,-61.59 C229.96,-57.71 229.16,-54.22 227.46,-50.57 C221.75,-38.64 218.67,-31.11 216.42,-22.74 C215.99,-21.13 214.86,-16.77 214.83,-16.67 C214.41,-15.06 214.66,-13.69 215.69,-12.57 C216.39,-11.83 223.62,-4.98 224.19,-4.38 C226.00,-2.42 227.58,-0.03 227.59,1.15 C227.59,1.41 210.44,41.39 207.92,48.53 C206.94,51.34 195.57,94.59 196.36,97.29 C196.36,97.29 215.14,88.26 215.14,88.26 C215.23,90.47 211.93,98.73 211.36,100.26 C209.47,105.82 204.11,118.74 200.84,126.51 C195.99,138.03 192.89,146.54 191.21,153.87 C186.26,174.97 181.69,189.28 179.12,195.17 C181.60,190.86 191.55,177.87 196.59,172.17 C217.20,149.98 245.95,118.86 247.09,116.82 C247.88,115.31 246.52,111.68 244.31,106.85 C239.14,95.82 237.61,92.26 233.31,81.13 C230.03,72.28 227.09,57.12 227.28,54.99 C227.76,50.18 230.68,42.01 235.78,29.06 C241.06,15.09 249.03,-5.98 251.73,-13.09 C253.50,-17.99 254.88,-23.37 254.67,-25.10 C254.39,-27.18 250.56,-33.35 249.64,-34.85 C239.97,-50.52 236.23,-62.79 235.77,-63.43 C235.63,-63.62 235.36,-63.90 234.95,-64.28" fill="none" stroke="rgb(254, 240, 0)" stroke-width="3.35" stroke-opacity="1.00" stroke-linejoin="round"/>
</g>
</svg>
