<?xml version="1.0" encoding="UTF-8" standalone="no"?>
<!DOCTYPE svg PUBLIC "-//W3C//DTD SVG 1.1//EN" "http://www.w3.org/Graphics/SVG/1.1/DTD/svg11.dtd">
<svg width="128.40" height="181.68" viewBox="0.00 0.00 535.00 757.00" xmlns="http://www.w3.org/2000/svg" xmlns:xlink="http://www.w3.org/1999/xlink">
<g stroke-linecap="round" transform="translate(44.00, 155.00)" id="173-번개-1">
<path d="M49.07,-76.82 C49.07,-76.82 45.88,-75.41 45.88,-75.41 C45.85,-75.55 48.68,-78.24 49.11,-78.50 C51.26,-79.81 57.52,-80.34 60.06,-79.55 C61.35,-79.11 63.11,-78.09 63.72,-77.35 C65.00,-75.71 64.91,-69.81 63.59,-66.70 C62.12,-63.40 60.20,-61.60 55.84,-57.99 C45.96,-49.82 32.68,-34.61 29.49,-30.98 C29.49,-30.98 52.68,-68.45 52.68,-68.45 C49.72,-64.47 31.29,-36.59 30.41,-34.59 C29.77,-33.12 29.89,-31.78 30.55,-30.23 C30.55,-30.23 42.77,-27.43 42.77,-27.43 C43.06,-26.66 42.93,-25.77 42.05,-24.36 C39.35,-20.04 25.31,-3.01 24.18,-1.52 C24.66,-0.43 25.68,0.40 27.99,1.46 C31.08,2.85 37.38,5.71 39.20,6.88 C41.22,8.25 42.31,10.31 42.13,11.37 C42.08,11.65 42.03,12.01 41.98,12.44" fill="none" stroke="rgb(0, 0, 255)" stroke-width="3.33" stroke-opacity="1.00" stroke-linejoin="round"/>
<path d="M39.86,25.19 C39.86,25.19 36.47,25.19 36.47,25.19 C38.00,22.78 42.12,19.86 45.47,17.60 C51.07,13.95 63.13,6.03 67.46,2.26 C71.53,-1.34 72.25,-2.19 73.10,-3.55 C73.10,-3.55 59.86,-13.08 59.86,-13.08 C60.15,-13.43 71.16,-24.07 78.88,-32.40 C82.49,-36.46 86.79,-41.97 86.59,-43.70 C86.35,-45.28 81.91,-50.40 78.81,-52.15 C78.14,-52.52 70.02,-56.28 68.63,-56.92 C71.34,-59.16 77.67,-64.45 79.74,-66.68 C85.32,-72.80 85.30,-77.52 84.96,-78.90 C84.96,-78.90 80.24,-80.36 80.24,-80.36" fill="none" stroke="rgb(0, 0, 255)" stroke-width="3.33" stroke-opacity="1.00" stroke-linejoin="round"/>
</g>
</svg>
