<?xml version="1.0" encoding="UTF-8" standalone="no"?>
<!DOCTYPE svg PUBLIC "-//W3C//DTD SVG 1.1//EN" "http://www.w3.org/Graphics/SVG/1.1/DTD/svg11.dtd">
<svg width="128.40" height="181.68" viewBox="0.00 0.00 535.00 757.00" xmlns="http://www.w3.org/2000/svg" xmlns:xlink="http://www.w3.org/1999/xlink">
<g stroke-linecap="round" transform="translate(44.00, 155.00)" id="173-구름-1">
<path d="M69.61,-124.29 C69.61,-124.29 66.14,-123.50 66.14,-123.50 C67.44,-123.99 69.36,-124.86 69.99,-125.37 C70.55,-125.82 74.61,-130.13 79.01,-133.22 C82.10,-135.26 88.29,-139.29 91.12,-140.62 C92.10,-141.06 95.66,-141.35 97.11,-141.21 C98.72,-141.02 100.84,-139.65 101.44,-138.52 C102.31,-136.68 101.47,-129.91 100.27,-127.38 C99.15,-125.06 97.05,-122.45 96.24,-121.52 C99.39,-124.51 102.57,-127.13 105.88,-129.26 C112.52,-133.45 120.29,-135.54 121.60,-135.29 C123.24,-134.93 125.42,-133.50 126.65,-131.99 C128.18,-130.05 129.32,-125.02 128.92,-122.30 C128.51,-119.68 126.64,-115.28 125.25,-113.81 C130.53,-113.44 136.54,-111.67 139.19,-110.42 C140.54,-109.72 142.36,-107.51 142.87,-105.73 C143.20,-104.48 142.67,-100.18 142.20,-98.56 C141.64,-96.79 140.16,-94.49 139.12,-93.83 C136.16,-92.11 123.26,-93.96 121.21,-93.35 C120.64,-93.16 117.10,-91.49 116.94,-90.91 C116.52,-89.02 115.72,-85.55 115.02,-84.44 C113.46,-81.97 109.30,-78.99 107.45,-78.09 C104.99,-76.93 101.63,-75.88 97.95,-75.84 C93.86,-75.82 87.76,-77.01 85.07,-77.78 C79.00,-79.57 74.23,-80.80 72.26,-79.95 C70.95,-79.37 64.25,-74.23 62.03,-73.29 C59.33,-72.20 54.68,-71.58 53.03,-72.18 C50.82,-73.05 48.54,-75.13 48.12,-76.87 C47.80,-78.40 48.76,-81.37 49.99,-82.65 C52.07,-84.73 57.28,-86.54 59.13,-87.09 C58.94,-86.76 54.84,-85.47 49.15,-84.02 C45.27,-83.08 42.02,-83.17 39.16,-84.53 C37.76,-85.24 36.43,-86.41 35.69,-87.64 C34.54,-89.66 33.52,-97.05 33.80,-99.96 C34.14,-103.04 36.30,-109.33 37.90,-112.27 C39.46,-115.05 43.02,-119.62 45.78,-122.22 C48.52,-124.79 54.82,-129.87 57.05,-131.21 C59.37,-132.59 64.66,-134.00 66.75,-133.82 C67.65,-133.69 68.31,-132.79 69.59,-130.13 C70.07,-129.13 70.55,-128.12 71.03,-127.12" fill="none" stroke="rgb(127, 46, 0)" stroke-width="3.33" stroke-opacity="1.00" stroke-linejoin="round"/>
</g>
</svg>
