<?xml version="1.0" encoding="UTF-8" standalone="no"?>
<!DOCTYPE svg PUBLIC "-//W3C//DTD SVG 1.1//EN" "http://www.w3.org/Graphics/SVG/1.1/DTD/svg11.dtd">
<svg width="128.40" height="181.68" viewBox="0.00 0.00 535.00 757.00" xmlns="http://www.w3.org/2000/svg" xmlns:xlink="http://www.w3.org/1999/xlink">
<g stroke-linecap="round" transform="translate(44.00, 155.00)" id="173-사람">
<path d="M194.07,451.43 C194.07,451.43 194.01,453.11 194.01,453.11 C191.36,454.71 190.45,457.26 190.08,458.57 C190.45,459.56 191.41,460.95 191.68,461.50 C192.17,462.49 191.43,464.99 190.32,466.37 C190.05,466.70 189.66,466.95 189.14,467.14" fill="none" stroke="rgb(0, 255, 0)" stroke-width="3.33" stroke-opacity="1.00" stroke-linejoin="round"/>
<path d="M194.49,460.67 C194.49,460.67 193.23,462.77 193.23,462.77 C193.23,462.77 197.35,452.37 197.35,452.37 C197.35,452.37 197.18,451.96 197.18,451.96" fill="none" stroke="rgb(0, 255, 0)" stroke-width="3.33" stroke-opacity="1.00" stroke-linejoin="round"/>
<path d="M203.31,450.17 C203.31,450.17 202.26,450.38 202.26,450.38 C202.26,450.38 202.12,450.95 202.12,450.95 C202.34,451.35 204.45,452.38 206.03,453.13 C207.54,453.96 208.93,457.74 208.46,459.69 C207.91,461.68 204.94,464.41 203.68,465.23 C203.36,465.44 203.08,465.52 202.85,465.48" fill="none" stroke="rgb(0, 255, 0)" stroke-width="3.33" stroke-opacity="1.00" stroke-linejoin="round"/>
<path d="M215.48,457.31 C213.50,452.38 211.45,448.32 210.05,446.64 C209.45,445.99 207.34,445.04 205.99,444.89 C203.20,444.63 197.89,446.88 195.64,448.84 C192.46,451.65 191.61,451.97 191.07,451.68 C191.07,451.68 191.97,450.17 191.97,450.17" fill="none" stroke="rgb(0, 255, 0)" stroke-width="3.33" stroke-opacity="1.00" stroke-linejoin="round"/>
<path d="M193.23,449.33 C192.83,449.83 191.84,450.19 191.47,450.34 C190.92,450.59 183.15,462.15 182.54,464.92 C182.34,466.02 185.28,468.77 188.68,470.96 C191.90,473.01 197.35,473.69 199.86,473.38 C201.88,473.10 205.85,471.80 207.71,470.84 C210.03,469.59 213.90,466.08 215.34,462.75 C216.21,460.69 216.47,458.88 216.17,457.33 C216.02,456.61 215.50,453.96 215.20,452.34" fill="none" stroke="rgb(0, 255, 0)" stroke-width="3.33" stroke-opacity="1.00" stroke-linejoin="round"/>
<path d="M196.59,474.53 C196.38,474.53 195.47,474.53 195.21,474.65 C195.04,474.72 194.76,474.94 194.37,475.30 C193.97,476.83 194.64,481.86 195.30,485.48 C195.31,485.53 195.34,485.67 195.33,485.63 C195.33,485.63 194.91,483.77 194.91,483.77" fill="none" stroke="rgb(0, 255, 0)" stroke-width="3.33" stroke-opacity="1.00" stroke-linejoin="round"/>
<path d="M194.49,483.77 C193.53,484.27 192.50,484.68 192.00,484.61 C191.74,484.57 186.03,481.96 184.51,482.39 C182.87,482.90 176.03,489.73 174.85,491.28 C173.31,493.35 170.88,497.53 169.91,501.34 C169.01,504.99 169.54,509.55 170.53,510.55 C170.94,510.90 172.14,511.21 172.73,510.96 C175.40,509.78 176.57,507.40 176.76,506.11 C176.76,506.11 175.27,505.58 175.27,505.58 C174.87,503.24 177.09,496.95 178.58,493.99 C181.49,488.33 185.75,484.26 188.19,482.09" fill="none" stroke="rgb(0, 255, 0)" stroke-width="3.33" stroke-opacity="1.00" stroke-linejoin="round"/>
<path d="M176.43,510.22 C176.43,510.22 176.43,511.06 176.43,511.06 C177.51,510.82 179.42,508.56 182.24,504.66 C189.04,494.83 190.87,491.24 190.86,490.38 C190.86,490.38 190.40,491.76 190.40,491.76" fill="none" stroke="rgb(0, 255, 0)" stroke-width="3.33" stroke-opacity="1.00" stroke-linejoin="round"/>
<path d="M190.71,493.01 C189.82,494.27 189.32,495.22 189.45,495.88 C190.42,501.23 190.69,504.39 190.76,509.20 C190.77,509.42 191.09,518.19 190.38,520.39 C189.24,523.70 181.22,535.59 180.64,537.87 C180.20,539.70 180.25,546.65 179.65,550.31 C178.56,557.04 178.25,561.04 179.51,563.62 C179.82,564.20 180.79,564.77 181.27,564.87 C181.78,564.92 183.13,564.19 183.92,563.41 C185.57,561.72 186.36,557.59 186.83,552.20 C187.73,542.75 189.95,532.66 191.76,532.26 C192.62,532.49 193.71,534.95 193.74,538.90 C193.75,540.51 191.94,559.26 192.15,562.76 C192.23,563.91 192.71,565.37 193.18,565.93 C193.77,566.53 195.14,567.08 195.96,566.90 C196.93,566.63 199.08,564.82 200.02,563.39 C201.90,560.46 203.25,554.09 203.29,549.64 C203.30,546.79 203.26,546.04 202.97,542.56 C202.82,541.06 200.80,538.88 199.95,537.94" fill="none" stroke="rgb(0, 255, 0)" stroke-width="3.33" stroke-opacity="1.00" stroke-linejoin="round"/>
<path d="M196.17,551.38 C196.17,551.38 194.91,554.16 194.91,554.16 C195.13,552.84 196.02,545.96 197.62,542.33 C198.21,541.05 202.96,534.29 203.75,532.93 C205.70,529.48 206.10,525.96 205.81,521.53 C205.16,511.19 205.42,502.92 206.94,498.75 C208.61,494.17 208.88,491.73 209.25,491.22 C210.35,491.64 212.45,502.83 212.13,508.54 C212.09,509.05 212.00,510.20 211.83,512.00" fill="none" stroke="rgb(0, 255, 0)" stroke-width="3.33" stroke-opacity="1.00" stroke-linejoin="round"/>
<path d="M212.97,493.01 C212.97,493.01 212.55,492.90 212.55,492.90 C212.45,492.76 211.84,490.05 211.55,488.95 C210.89,486.51 209.97,484.98 208.79,484.02 C208.79,484.02 207.09,484.06 207.09,484.06 C205.04,485.41 203.69,489.75 203.44,493.12 C203.36,494.24 201.18,518.14 201.34,521.55 C201.37,522.15 201.71,525.08 201.81,525.75 C202.17,528.16 201.98,529.96 201.63,532.88" fill="none" stroke="rgb(0, 255, 0)" stroke-width="3.33" stroke-opacity="1.00" stroke-linejoin="round"/>
<path d="M212.13,491.75 C212.13,491.75 211.92,491.75 211.92,491.75 C211.61,491.98 211.07,492.69 210.98,493.39 C210.78,495.15 212.22,501.07 212.54,504.22 C212.82,507.04 213.01,512.71 213.30,513.34 C213.43,513.60 213.77,513.95 214.31,514.39 C215.49,514.63 216.91,514.43 218.22,513.60 C220.84,511.90 223.07,507.57 223.66,504.74 C224.12,502.25 223.70,485.48 221.88,480.53 C220.85,477.84 217.43,473.40 215.55,472.19 C213.75,471.08 210.13,471.63 208.63,472.69 C208.32,472.92 207.53,473.53 206.25,474.53" fill="none" stroke="rgb(0, 255, 0)" stroke-width="3.33" stroke-opacity="1.00" stroke-linejoin="round"/>
<path d="M209.19,472.01 C209.05,472.99 208.34,477.52 208.25,477.66 C208.10,477.93 207.57,478.56 206.67,479.57" fill="none" stroke="rgb(0, 255, 0)" stroke-width="3.33" stroke-opacity="1.00" stroke-linejoin="round"/>
<path d="M220.94,478.31 C220.94,478.31 220.73,478.31 220.73,478.31 C219.83,479.08 219.13,479.85 219.00,480.53 C218.06,485.49 218.64,506.82 218.68,508.24 C218.72,509.38 218.75,510.53 218.79,511.67" fill="none" stroke="rgb(0, 255, 0)" stroke-width="3.33" stroke-opacity="1.00" stroke-linejoin="round"/>
<path d="M186.09,506.03 C186.09,506.03 186.93,504.77 186.93,504.77 C186.54,505.10 186.39,509.92 186.14,510.99 C185.76,512.56 183.12,517.68 182.60,519.84 C182.34,520.95 181.34,528.41 180.52,530.60 C179.89,532.19 175.13,536.36 174.28,538.49 C173.69,540.03 172.49,559.02 172.49,559.60 C172.50,560.96 173.12,563.57 173.75,564.40 C174.56,565.43 176.50,566.02 178.39,566.01 C179.79,565.94 181.74,564.45 184.31,562.39" fill="none" stroke="rgb(0, 255, 0)" stroke-width="3.33" stroke-opacity="1.00" stroke-linejoin="round"/>
</g>
</svg>
