<?xml version="1.0" encoding="UTF-8" standalone="no"?>
<!DOCTYPE svg PUBLIC "-//W3C//DTD SVG 1.1//EN" "http://www.w3.org/Graphics/SVG/1.1/DTD/svg11.dtd">
<svg width="128.40" height="181.68" viewBox="0.00 0.00 535.00 757.00" xmlns="http://www.w3.org/2000/svg" xmlns:xlink="http://www.w3.org/1999/xlink">
<g stroke-linecap="round" transform="translate(44.00, 155.00)" id="174-우산">
<path d="M218.00,48.60 C218.00,48.60 217.31,48.60 217.31,48.60 C217.77,46.29 221.21,43.12 222.24,42.16 C223.25,43.48 224.02,46.10 223.52,47.80 C223.18,48.90 220.86,51.02 219.58,51.88 C219.35,52.03 218.96,52.26 218.41,52.58" fill="none" stroke="rgb(255, 0, 255)" stroke-width="3.40" stroke-opacity="1.00" stroke-linejoin="round"/>
<path d="M219.40,49.99 C219.40,49.99 216.61,49.93 216.61,49.93 C216.65,48.92 216.19,47.50 215.33,46.51 C214.36,45.41 208.17,42.96 204.35,42.08 C199.63,41.02 179.92,40.31 179.20,40.36 C174.60,40.74 156.55,43.32 153.40,44.23 C152.07,44.62 140.84,48.42 138.65,49.24 C138.65,49.24 147.69,56.18 147.69,56.18 C146.82,61.60 146.11,65.84 146.92,67.75 C147.48,69.00 149.32,70.46 150.79,70.94 C153.10,71.64 160.52,71.66 160.91,71.82 C161.35,73.95 161.57,80.40 162.02,81.87 C162.49,83.28 164.07,84.90 165.62,85.57 C170.62,87.63 179.82,87.71 180.68,87.82 C181.04,90.61 181.05,97.68 181.09,98.69 C181.21,101.76 182.57,107.08 184.34,107.90 C186.24,108.72 193.35,106.21 196.10,105.32 C196.44,107.71 197.38,114.02 198.75,116.15 C199.67,117.50 202.15,119.20 203.62,119.52 C205.18,119.82 216.15,119.82 217.06,119.82 C217.36,120.35 217.66,126.41 218.63,129.19 C219.38,131.23 221.53,133.64 223.08,134.13 C225.25,134.72 231.16,132.41 233.10,130.96 C234.85,129.60 237.32,126.24 238.18,124.02 C238.83,122.31 240.18,116.73 240.33,113.53 C240.55,107.78 239.64,97.81 237.94,88.64 C235.85,78.71 232.86,67.13 231.20,63.25 C228.91,57.99 223.56,53.00 222.66,52.57 C222.19,52.34 221.11,51.95 219.40,51.39" fill="none" stroke="rgb(255, 0, 255)" stroke-width="3.40" stroke-opacity="1.00" stroke-linejoin="round"/>
<path d="M232.67,73.74 C232.15,73.61 231.55,73.09 231.27,73.04 C229.20,72.62 224.85,71.11 221.23,70.55 C217.37,70.00 203.39,71.62 194.22,71.62 C186.05,71.72 171.21,71.87 164.54,71.93 C162.45,71.93 158.83,72.19 157.39,72.33" fill="none" stroke="rgb(255, 0, 255)" stroke-width="3.40" stroke-opacity="1.00" stroke-linejoin="round"/>
<path d="M236.16,75.13 C233.30,75.08 232.65,75.13 231.45,75.60 C231.23,75.69 223.59,77.28 219.79,78.29 C215.72,79.39 197.80,86.29 193.44,86.86 C192.33,87.00 188.69,87.45 188.07,87.54 C185.12,87.99 182.35,89.16 181.19,89.70" fill="none" stroke="rgb(255, 0, 255)" stroke-width="3.40" stroke-opacity="1.00" stroke-linejoin="round"/>
<path d="M232.67,78.62 C232.67,78.62 231.97,79.32 231.97,79.32 C231.20,79.06 216.03,89.41 214.36,90.82 C209.19,95.54 201.52,102.41 197.43,105.33 C197.43,105.33 199.88,104.15 199.88,104.15" fill="none" stroke="rgb(255, 0, 255)" stroke-width="3.40" stroke-opacity="1.00" stroke-linejoin="round"/>
<path d="M234.76,80.72 C234.76,80.72 234.76,80.02 234.76,80.02 C234.76,80.02 216.32,121.52 216.32,121.52 C216.32,121.52 216.54,120.72 216.54,120.72" fill="none" stroke="rgb(255, 0, 255)" stroke-width="3.40" stroke-opacity="1.00" stroke-linejoin="round"/>
<path d="M233.37,69.55 C232.54,69.79 230.28,70.43 227.65,70.24 C224.32,69.98 215.18,66.69 214.43,66.46 C205.64,63.75 177.40,59.26 164.21,57.01 C163.06,56.81 151.87,54.44 150.46,54.17 C147.77,53.66 144.40,53.07 142.59,52.79" fill="none" stroke="rgb(255, 0, 255)" stroke-width="3.40" stroke-opacity="1.00" stroke-linejoin="round"/>
<path d="M220.80,51.39 C219.00,51.31 198.47,53.35 197.50,53.43 C191.42,53.94 182.80,55.48 173.93,55.84 C162.02,56.27 155.72,56.28 152.12,56.00 C150.41,55.88 147.39,55.67 146.08,55.58" fill="none" stroke="rgb(255, 0, 255)" stroke-width="3.40" stroke-opacity="1.00" stroke-linejoin="round"/>
<path d="M215.21,53.48 C215.21,53.14 203.12,58.00 193.69,61.20 C170.14,69.01 164.87,71.29 162.81,72.26 C162.49,72.40 161.80,72.66 160.74,73.04" fill="none" stroke="rgb(255, 0, 255)" stroke-width="3.40" stroke-opacity="1.00" stroke-linejoin="round"/>
<path d="M220.10,54.18 C219.30,54.42 218.45,54.81 217.97,55.23 C217.84,55.35 212.73,60.94 208.58,64.25 C206.88,65.60 188.72,79.18 186.84,80.81 C185.39,82.07 181.87,85.38 181.47,86.01 C181.27,86.34 181.11,86.90 180.99,87.68" fill="none" stroke="rgb(255, 0, 255)" stroke-width="3.40" stroke-opacity="1.00" stroke-linejoin="round"/>
<path d="M219.40,54.88 C219.40,54.88 219.05,55.93 219.05,55.93 C219.05,55.93 218.00,56.63 218.00,56.63 C218.05,58.60 209.96,84.51 207.71,89.99 C205.09,96.21 201.43,104.92 200.38,107.40" fill="none" stroke="rgb(255, 0, 255)" stroke-width="3.40" stroke-opacity="1.00" stroke-linejoin="round"/>
<path d="M222.89,59.77 C222.91,61.48 222.51,66.82 222.23,70.34 C221.63,77.77 220.36,93.63 219.71,102.06 C219.28,108.10 219.47,122.82 219.23,123.83 C219.13,124.22 218.83,124.75 218.35,125.39" fill="none" stroke="rgb(255, 0, 255)" stroke-width="3.40" stroke-opacity="1.00" stroke-linejoin="round"/>
<path d="M190.77,43.01 C189.57,43.69 184.52,46.70 182.34,48.95 C179.84,51.47 173.66,57.64 171.97,59.24 C166.54,64.35 159.87,71.69 158.95,72.70" fill="none" stroke="rgb(255, 0, 255)" stroke-width="3.40" stroke-opacity="1.00" stroke-linejoin="round"/>
<path d="M190.77,41.61 C190.84,41.68 190.95,41.68 191.12,41.61 C191.82,41.26 192.76,40.81 192.87,40.92 C192.16,41.01 191.58,41.21 188.22,42.53 C186.77,43.10 171.79,46.56 159.87,50.28 C157.74,50.93 155.60,51.44 153.53,51.82 C151.37,52.22 148.86,53.85 147.60,54.73" fill="none" stroke="rgb(255, 0, 255)" stroke-width="3.40" stroke-opacity="1.00" stroke-linejoin="round"/>
<path d="M194.96,43.71 C194.96,43.71 193.59,43.79 193.59,43.79 C190.15,54.66 188.34,61.50 187.61,68.52 C187.23,72.44 186.59,76.90 185.84,80.65 C183.85,90.38 183.73,93.49 183.73,94.71" fill="none" stroke="rgb(255, 0, 255)" stroke-width="3.40" stroke-opacity="1.00" stroke-linejoin="round"/>
<path d="M193.56,42.31 C193.56,42.31 194.26,41.44 194.26,41.44 C194.26,41.44 194.26,41.21 194.26,41.21 C194.26,43.11 194.27,46.52 194.28,48.02 C194.32,54.95 195.56,80.37 196.58,104.36 C196.75,107.86 197.36,111.21 197.63,112.30" fill="none" stroke="rgb(255, 0, 255)" stroke-width="3.40" stroke-opacity="1.00" stroke-linejoin="round"/>
<path d="M196.36,43.71 C196.36,43.71 194.96,45.80 194.96,45.80 C194.96,45.80 196.04,45.16 196.04,45.16 C197.67,47.02 199.58,52.38 200.73,55.58 C203.18,62.37 207.84,75.13 210.04,81.11 C211.53,85.36 215.07,103.46 216.58,111.63 C217.41,116.30 218.75,123.83 219.25,126.69" fill="none" stroke="rgb(255, 0, 255)" stroke-width="3.40" stroke-opacity="1.00" stroke-linejoin="round"/>
<path d="M239.65,126.11 C239.65,126.11 239.65,127.15 239.65,127.15 C239.65,127.15 239.02,127.50 239.02,127.50 C238.20,124.88 236.54,85.95 233.70,76.80 C232.93,74.37 230.38,68.60 229.87,67.45" fill="none" stroke="rgb(255, 0, 255)" stroke-width="3.40" stroke-opacity="1.00" stroke-linejoin="round"/>
<path d="M234.76,75.83 C234.76,75.83 233.79,75.83 233.79,75.83 C232.85,75.02 232.56,74.41 232.66,73.07 C232.81,70.57 231.61,63.77 230.35,60.93 C229.73,59.56 228.89,58.36 227.75,57.06" fill="none" stroke="rgb(255, 0, 255)" stroke-width="3.40" stroke-opacity="1.00" stroke-linejoin="round"/>
<path d="M181.69,96.78 C179.71,96.80 178.17,96.76 178.01,96.82 C177.21,97.17 164.71,109.93 159.40,114.91 C154.64,119.43 148.47,127.81 143.49,135.08 C142.85,136.05 142.56,137.18 142.27,139.37 C142.27,139.37 143.74,140.89 143.74,140.89 C144.87,141.12 146.43,141.12 147.59,140.69 C149.02,140.13 151.43,138.18 152.79,136.51 C153.85,135.20 156.22,129.79 156.50,128.73 C156.49,128.21 156.13,127.85 153.57,125.94 C153.04,125.54 152.17,124.86 150.96,123.88" fill="none" stroke="rgb(255, 0, 255)" stroke-width="3.40" stroke-opacity="1.00" stroke-linejoin="round"/>
<path d="M156.55,126.11 C156.55,126.11 154.52,125.98 154.52,125.98 C161.90,118.20 164.97,115.38 172.03,110.75 C174.72,108.96 177.86,105.46 178.92,104.18 C179.28,103.80 179.91,103.24 180.82,102.51" fill="none" stroke="rgb(255, 0, 255)" stroke-width="3.40" stroke-opacity="1.00" stroke-linejoin="round"/>
</g>
</svg>
