<?xml version="1.0" encoding="UTF-8" standalone="no"?>
<!DOCTYPE svg PUBLIC "-//W3C//DTD SVG 1.1//EN" "http://www.w3.org/Graphics/SVG/1.1/DTD/svg11.dtd">
<svg width="128.40" height="181.68" viewBox="0.00 0.00 535.00 757.00" xmlns="http://www.w3.org/2000/svg" xmlns:xlink="http://www.w3.org/1999/xlink">
<g stroke-linecap="round" transform="translate(44.00, 155.00)" id="174-물웅덩이">
<path d="M331.83,444.53 C331.83,444.53 330.43,446.27 330.43,446.27 C330.43,446.27 330.43,446.62 330.43,446.62 C330.44,445.54 328.20,440.47 327.70,437.68 C327.24,435.01 326.90,431.69 326.94,431.44 C326.57,431.70 303.06,440.46 300.67,441.43 C296.51,443.15 290.64,447.57 289.74,448.61 C288.19,450.50 288.96,452.41 289.77,453.65 C288.27,455.23 286.40,456.47 284.67,456.82 C283.84,457.00 280.94,456.99 280.36,457.40 C278.95,458.44 278.06,461.17 278.06,464.02 C278.07,464.88 278.07,465.83 278.06,466.87 C273.67,468.14 267.70,468.36 266.49,468.76 C265.02,469.28 262.55,470.90 261.55,472.12 C260.53,473.41 259.01,477.03 259.07,478.32 C259.21,479.90 261.19,482.14 263.02,482.87 C265.87,483.92 271.37,483.79 273.18,483.76 C271.56,485.88 268.60,490.88 268.13,493.47 C268.01,494.23 268.38,495.49 268.75,496.13 C269.28,496.92 275.18,498.26 278.64,498.18 C280.67,498.12 287.94,497.36 291.36,496.58 C294.57,495.83 304.45,492.55 305.62,492.25 C309.24,491.32 316.08,491.50 318.17,491.84 C320.81,492.28 330.33,495.29 330.71,495.40 C333.84,496.27 339.29,496.19 342.46,496.14 C348.13,496.01 352.40,495.65 354.69,495.02 C355.70,494.70 357.93,493.96 358.45,493.61 C359.78,492.63 360.96,490.74 361.00,489.42 C361.00,488.37 360.30,486.11 359.68,485.20 C358.18,483.15 354.61,481.22 350.72,479.62 C351.05,478.67 358.81,474.72 360.15,473.89 C363.32,471.91 369.85,466.03 371.53,464.03 C373.61,461.53 375.49,456.94 375.49,454.62 C375.46,452.70 373.89,448.17 372.77,446.52 C371.69,444.97 368.14,441.66 365.94,441.01 C361.64,439.85 350.07,442.01 339.22,444.44 C336.00,445.16 334.78,445.18 333.75,444.49 C333.51,444.33 333.10,444.11 332.52,443.83" fill="none" stroke="rgb(0, 153, 67)" stroke-width="3.40" stroke-opacity="1.00" stroke-linejoin="round"/>
<path d="M300.40,463.38 C299.94,463.38 297.28,465.37 297.72,470.00 C297.86,471.26 298.83,473.67 299.63,474.65 C300.49,475.63 302.91,477.02 304.38,477.37 C306.93,477.92 313.25,477.46 316.99,476.47 C319.80,475.70 325.76,473.32 328.14,471.09 C328.14,471.09 325.79,469.13 325.79,469.13" fill="none" stroke="rgb(0, 153, 67)" stroke-width="3.40" stroke-opacity="1.00" stroke-linejoin="round"/>
<path d="M307.39,466.18 C307.39,466.18 305.29,466.27 305.29,466.27 C305.34,467.21 305.57,468.07 306.08,468.58 C307.53,469.97 311.91,470.31 314.58,469.10 C317.27,467.82 319.65,465.74 320.65,464.78" fill="none" stroke="rgb(0, 153, 67)" stroke-width="3.40" stroke-opacity="1.00" stroke-linejoin="round"/>
</g>
</svg>
