<?xml version="1.0" encoding="UTF-8" standalone="no"?>
<!DOCTYPE svg PUBLIC "-//W3C//DTD SVG 1.1//EN" "http://www.w3.org/Graphics/SVG/1.1/DTD/svg11.dtd">
<svg width="128.40" height="181.68" viewBox="0.00 0.00 535.00 757.00" xmlns="http://www.w3.org/2000/svg" xmlns:xlink="http://www.w3.org/1999/xlink">
<g stroke-linecap="round" transform="translate(44.00, 155.00)" id="175-물웅덩이">
<path d="M342.00,494.41 C342.00,494.41 340.34,495.81 340.34,495.81 C340.15,495.81 362.62,499.54 364.87,499.74 C372.49,500.33 389.07,501.62 391.44,502.22 C392.80,502.59 398.56,505.55 402.62,506.60 C406.60,507.57 413.38,509.20 416.23,510.17 C416.55,510.50 416.15,519.08 415.90,519.56 C415.26,520.70 407.89,526.29 406.97,527.48 C406.19,528.53 405.92,530.26 406.18,531.70 C406.75,534.46 409.12,543.19 409.39,546.21 C409.49,547.74 408.39,549.74 406.82,550.95 C406.21,551.40 403.93,552.04 402.63,552.53 C399.98,553.55 398.61,555.22 398.09,558.12 C397.67,560.55 397.35,561.85 396.66,563.37 C395.74,565.29 394.09,567.30 392.11,568.87 C390.58,570.00 383.60,575.04 379.74,576.67 C376.01,578.20 368.18,581.45 365.22,583.18 C364.22,583.77 356.81,589.40 354.94,590.48 C351.82,592.26 345.32,594.14 342.64,594.52 C340.95,594.75 333.83,595.03 330.44,595.63 C326.95,596.33 319.90,597.67 318.04,597.39 C316.52,597.15 310.98,595.00 309.69,594.16 C307.85,592.93 302.15,587.07 301.69,586.71 C299.07,584.71 295.07,583.79 291.61,583.55 C285.26,583.17 280.51,583.14 277.97,583.56 C271.77,584.70 262.57,589.70 256.07,591.08 C252.45,591.82 245.34,592.34 243.07,591.67 C241.08,591.03 223.97,581.28 220.24,578.98 C215.98,576.34 210.87,573.80 208.41,573.83 C206.89,573.87 199.68,575.45 197.75,575.47 C195.08,575.47 190.45,574.55 188.36,573.46 C186.15,572.26 183.40,569.10 182.24,566.62 C181.32,564.52 181.06,556.63 180.90,555.64 C180.54,553.64 176.40,548.32 173.97,546.39 C172.23,545.03 166.92,542.57 163.80,541.88 C162.46,541.58 158.94,540.97 158.31,540.80 C156.40,540.24 154.54,538.91 154.48,537.67 C154.45,535.17 160.32,521.96 160.19,521.55 C159.77,520.24 155.36,515.87 154.76,513.87 C154.35,512.47 153.79,507.21 153.47,505.19 C154.58,503.88 158.61,500.96 160.86,500.87 C162.81,500.82 180.83,499.57 187.74,499.05 C193.75,498.60 207.67,498.31 216.20,496.69 C225.24,494.82 239.26,494.22 240.53,493.96 C241.46,493.77 244.35,492.76 245.07,492.74 C245.61,492.72 246.88,492.80 248.89,492.99" fill="none" stroke="rgb(0, 255, 0)" stroke-width="3.40" stroke-opacity="1.00" stroke-linejoin="round"/>
<path d="M291.72,493.71 C291.72,493.71 290.32,492.82 290.32,492.82 C290.32,492.57 287.92,492.01 287.91,494.38 C288.80,494.39 290.83,494.40 291.97,494.41 C292.93,494.41 293.90,494.41 294.86,494.41" fill="none" stroke="rgb(0, 255, 0)" stroke-width="3.40" stroke-opacity="1.00" stroke-linejoin="round"/>
</g>
</svg>
