<?xml version="1.0" encoding="UTF-8" standalone="no"?>
<!DOCTYPE svg PUBLIC "-//W3C//DTD SVG 1.1//EN" "http://www.w3.org/Graphics/SVG/1.1/DTD/svg11.dtd">
<svg width="128.40" height="181.68" viewBox="0.00 0.00 535.00 757.00" xmlns="http://www.w3.org/2000/svg" xmlns:xlink="http://www.w3.org/1999/xlink">
<g stroke-linecap="round" transform="translate(44.00, 155.00)" id="176-가방">
<path d="M140.07,385.07 C140.07,385.07 140.07,383.19 140.07,383.19 C137.60,384.25 134.19,386.22 130.24,388.94 C127.66,390.71 125.97,393.66 124.91,396.84 C124.79,397.21 124.61,397.88 124.35,398.86" fill="none" stroke="rgb(229, 0, 16)" stroke-width="3.07" stroke-opacity="1.00" stroke-linejoin="round"/>
<path d="M141.33,392.00 C141.33,392.00 139.58,392.62 139.58,392.62 C139.58,392.62 139.40,390.89 139.40,390.89 C137.71,390.94 131.67,397.86 131.59,398.41 C131.54,398.77 131.64,399.57 131.89,400.81" fill="none" stroke="rgb(229, 0, 16)" stroke-width="3.07" stroke-opacity="1.00" stroke-linejoin="round"/>
<path d="M162.10,388.85 C161.92,388.79 161.71,388.79 161.47,388.85 C160.81,389.02 159.19,389.57 159.06,389.48 C159.98,390.63 162.79,395.15 164.14,397.45 C164.40,397.84 164.98,398.54 165.87,399.55" fill="none" stroke="rgb(229, 0, 16)" stroke-width="3.07" stroke-opacity="1.00" stroke-linejoin="round"/>
<path d="M166.50,385.70 C166.50,385.70 165.24,387.28 165.24,387.28 C165.83,387.83 166.27,388.21 166.56,388.43 C168.67,390.05 171.49,394.19 172.60,396.39 C172.75,396.67 173.03,397.09 173.42,397.66" fill="none" stroke="rgb(229, 0, 16)" stroke-width="3.07" stroke-opacity="1.00" stroke-linejoin="round"/>
<path d="M175.94,395.77 C175.94,395.77 175.63,395.77 175.63,395.77 C175.63,395.77 174.68,396.48 174.68,396.48 C172.33,397.86 170.90,398.40 169.25,398.36 C161.23,398.16 150.40,398.89 145.57,397.72 C142.16,396.91 136.91,396.83 132.78,397.20 C129.40,397.54 122.61,398.24 121.58,398.56 C120.01,399.10 118.89,401.50 118.80,405.27 C118.79,406.17 119.53,428.85 119.83,437.48 C119.96,440.87 120.55,445.32 121.85,448.57 C122.61,450.40 124.10,453.25 124.97,454.38 C126.31,456.07 131.30,457.87 134.09,458.34 C137.33,458.85 150.05,458.31 155.61,456.99 C157.07,456.64 165.58,454.45 168.30,453.82 C170.88,453.11 174.10,450.30 174.89,447.72 C175.87,444.31 176.01,425.81 175.94,417.81 C175.65,410.19 175.37,397.94 175.30,397.67 C175.24,397.43 175.04,397.01 174.68,396.40" fill="none" stroke="rgb(229, 0, 16)" stroke-width="3.07" stroke-opacity="1.00" stroke-linejoin="round"/>
</g>
</svg>
