<?xml version="1.0" encoding="UTF-8" standalone="no"?>
<!DOCTYPE svg PUBLIC "-//W3C//DTD SVG 1.1//EN" "http://www.w3.org/Graphics/SVG/1.1/DTD/svg11.dtd">
<svg width="128.40" height="181.68" viewBox="0.00 0.00 535.00 757.00" xmlns="http://www.w3.org/2000/svg" xmlns:xlink="http://www.w3.org/1999/xlink">
<g stroke-linecap="round" transform="translate(44.00, 155.00)" id="176-구름-2">
<path d="M322.56,-93.16 C322.56,-93.16 323.38,-90.02 323.38,-90.02 C324.10,-90.80 325.18,-95.38 324.84,-97.84 C324.37,-100.73 321.62,-105.51 319.11,-108.37 C316.90,-110.83 310.74,-114.91 309.09,-116.07 C306.59,-117.78 304.12,-119.00 302.26,-119.25 C299.09,-119.62 293.67,-118.01 291.89,-116.95 C289.79,-115.67 286.26,-112.03 284.93,-109.82 C283.69,-107.71 282.02,-103.10 281.54,-100.45 C281.11,-97.96 280.67,-92.35 280.77,-89.73 C280.92,-86.70 282.09,-80.40 283.24,-77.76 C284.42,-75.14 288.11,-70.57 290.48,-68.36 C293.72,-65.38 304.18,-59.67 306.54,-59.18 C302.12,-58.79 298.52,-57.63 296.85,-56.67 C294.74,-55.42 291.92,-51.55 291.58,-49.16 C291.29,-46.77 293.02,-41.63 294.67,-39.54 C296.34,-37.51 300.92,-34.99 303.63,-34.51 C305.99,-34.13 310.97,-34.34 313.48,-34.74 C315.97,-35.16 320.24,-36.48 322.02,-37.52 C323.91,-38.66 326.87,-41.79 328.07,-43.81 C329.33,-46.01 329.97,-48.96 329.99,-50.12 C328.25,-47.89 326.98,-43.58 327.37,-41.31 C327.84,-38.92 330.25,-34.88 332.31,-33.20 C334.31,-31.62 339.94,-29.53 341.82,-29.32 C344.10,-29.08 352.79,-29.91 353.98,-30.07 C356.58,-30.45 362.43,-32.70 364.49,-34.55 C366.31,-36.21 370.48,-43.05 372.49,-46.12 C375.10,-50.16 377.12,-54.49 376.12,-57.03 C375.53,-58.40 373.02,-60.18 371.23,-60.60 C369.60,-60.92 366.02,-60.55 364.64,-59.84 C363.18,-59.06 361.06,-57.03 360.45,-55.95 C359.27,-53.72 358.67,-48.96 359.35,-46.11 C360.10,-43.14 363.60,-37.67 366.26,-35.47 C368.94,-33.32 375.19,-30.56 378.72,-30.07 C382.02,-29.66 389.00,-30.08 392.46,-30.80 C395.58,-31.48 402.34,-33.73 405.09,-34.89 C408.16,-36.21 413.05,-39.39 415.09,-41.55 C417.11,-43.75 419.72,-48.63 420.27,-51.07 C420.54,-52.36 420.65,-53.90 420.59,-55.55 C420.50,-56.80 419.60,-59.41 418.70,-60.56 C417.04,-62.61 410.89,-64.12 408.41,-64.14 C408.00,-64.14 404.83,-63.92 403.91,-63.78 C401.16,-63.31 398.58,-62.16 397.40,-60.80 C396.46,-59.67 397.01,-56.19 398.37,-54.24 C399.98,-52.02 403.93,-48.98 406.67,-47.82 C409.35,-46.72 415.41,-45.51 418.49,-45.57 C421.67,-45.67 427.95,-47.11 430.79,-48.57 C433.68,-50.10 438.49,-54.59 440.13,-57.13 C441.69,-59.61 443.33,-65.15 443.38,-67.86 C443.40,-70.49 441.97,-75.21 440.60,-77.07 C439.15,-78.97 434.81,-81.50 432.01,-82.18 C429.36,-82.81 424.53,-82.85 422.12,-82.35 C420.92,-82.07 418.89,-80.92 417.96,-79.94 C417.25,-79.18 416.73,-77.61 416.51,-76.35 C417.60,-78.75 419.55,-95.32 418.73,-102.18 C418.36,-105.13 416.40,-110.74 415.43,-111.91 C414.14,-113.37 411.49,-114.99 409.39,-115.50 C405.96,-116.30 400.64,-116.00 398.23,-115.37 C395.35,-114.58 389.82,-112.07 387.48,-110.21 C385.15,-108.30 381.29,-102.70 380.51,-100.88 C379.51,-98.49 377.32,-90.04 376.37,-86.29 C377.09,-92.05 376.96,-103.50 375.29,-109.47 C374.42,-112.50 371.97,-117.26 370.37,-119.22 C369.05,-120.81 365.46,-123.79 363.74,-124.77 C361.74,-125.89 357.40,-127.19 354.29,-127.61 C351.11,-128.01 344.95,-128.11 342.21,-127.73 C339.20,-127.29 335.57,-125.69 333.95,-124.14 C332.69,-122.88 324.05,-104.90 323.66,-103.60 C323.30,-102.37 322.14,-96.73 321.93,-95.68" fill="none" stroke="rgb(0, 255, 0)" stroke-width="3.07" stroke-opacity="1.00" stroke-linejoin="round"/>
<path d="M303.05,-57.30 C303.05,-57.30 301.16,-53.84 301.16,-53.84 C301.20,-53.61 313.21,-47.70 315.22,-46.87 C316.09,-46.52 317.28,-46.69 319.54,-47.28 C320.50,-49.40 320.84,-50.69 320.61,-52.02 C320.15,-54.68 318.68,-58.62 317.04,-61.60 C313.62,-67.76 305.67,-79.17 302.91,-81.84 C300.90,-83.51 298.69,-85.37 298.66,-85.67 C298.90,-85.43 302.13,-80.72 304.06,-78.39 C306.50,-75.49 310.90,-71.13 314.55,-68.01 C320.45,-63.03 325.20,-61.79 326.48,-61.50 C326.48,-61.50 327.88,-63.42 327.88,-63.42 C326.06,-68.96 322.14,-75.55 316.03,-85.04 C309.76,-94.61 306.51,-99.07 303.07,-102.74 C303.31,-101.50 304.37,-100.21 306.41,-98.87 C306.77,-98.64 312.25,-95.13 316.63,-90.89 C326.55,-81.00 345.51,-61.19 352.87,-53.44 C348.05,-58.04 342.91,-64.51 336.82,-74.67 C329.38,-87.52 321.16,-101.73 320.39,-103.09 C322.53,-102.08 345.88,-72.99 356.28,-60.10 C365.24,-49.36 375.53,-36.96 376.86,-35.31 C376.52,-35.84 337.20,-103.03 334.61,-106.44 C333.72,-107.61 332.99,-108.03 332.00,-108.16 C334.57,-106.63 338.64,-103.06 342.75,-98.74 C352.80,-87.65 371.41,-63.23 379.35,-50.98 C383.59,-44.32 385.88,-39.14 387.27,-35.53 C381.07,-43.58 373.71,-54.53 369.84,-60.94 C348.83,-97.04 341.66,-114.37 341.54,-115.82 C343.81,-114.28 347.30,-109.90 349.38,-107.30 C358.15,-96.50 381.88,-70.66 388.30,-62.84 C393.85,-55.89 397.00,-50.30 399.17,-45.24 C395.00,-49.69 388.02,-59.39 384.36,-64.71 C375.34,-78.71 355.93,-110.01 353.25,-115.81 C352.16,-118.17 351.88,-119.69 352.03,-121.48 C352.03,-121.48 353.46,-122.63 353.46,-122.63 C354.85,-121.74 363.12,-110.89 371.25,-101.32 C381.98,-89.27 407.35,-60.66 410.83,-55.78 C413.36,-52.21 414.42,-50.21 415.53,-47.82 C415.64,-47.72 404.30,-66.36 402.81,-68.46 C402.59,-68.77 402.31,-69.15 401.96,-69.62" fill="none" stroke="rgb(0, 255, 0)" stroke-width="3.07" stroke-opacity="1.00" stroke-linejoin="round"/>
<path d="M389.89,-90.65 C389.89,-90.65 384.38,-97.88 384.38,-97.88 C384.38,-97.88 384.62,-98.20 384.62,-98.20 C385.84,-98.25 389.16,-94.94 392.04,-90.89 C396.53,-84.52 415.79,-54.81 416.24,-54.41 C414.82,-56.95 407.62,-68.85 403.26,-76.60 C392.81,-95.99 390.90,-102.15 390.47,-103.88 C392.63,-103.06 396.13,-99.84 399.23,-95.83 C409.96,-81.78 417.34,-68.70 421.11,-61.10 C421.11,-61.10 400.87,-108.54 400.87,-108.54 C405.08,-103.82 410.78,-96.26 416.73,-86.96 C424.06,-75.26 429.04,-59.31 429.42,-58.07 C429.42,-58.07 428.90,-60.44 428.90,-60.44" fill="none" stroke="rgb(0, 255, 0)" stroke-width="3.07" stroke-opacity="1.00" stroke-linejoin="round"/>
<path d="M427.65,-73.03 C427.65,-73.03 427.02,-73.03 427.02,-73.03 C427.02,-73.03 438.55,-58.78 438.55,-58.78 C438.55,-58.78 435.24,-73.51 435.24,-73.51 C435.76,-72.44 437.17,-69.49 437.73,-68.27 C438.30,-67.04 439.85,-63.52 440.51,-62.04 C441.04,-60.88 441.58,-59.72 442.12,-58.55" fill="none" stroke="rgb(0, 255, 0)" stroke-width="3.07" stroke-opacity="1.00" stroke-linejoin="round"/>
<path d="M326.33,-66.73 C326.43,-66.41 325.90,-65.06 325.71,-64.53 C325.46,-63.80 329.26,-59.93 330.00,-59.19 C331.67,-57.53 332.86,-56.20 332.94,-55.97 C330.80,-55.76 329.45,-55.82 328.14,-56.33 C326.12,-57.12 320.04,-60.64 317.88,-63.08 C317.05,-64.05 312.15,-74.99 311.60,-76.22" fill="none" stroke="rgb(0, 255, 0)" stroke-width="3.07" stroke-opacity="1.00" stroke-linejoin="round"/>
</g>
</svg>
