<?xml version="1.0" encoding="UTF-8" standalone="no"?>
<!DOCTYPE svg PUBLIC "-//W3C//DTD SVG 1.1//EN" "http://www.w3.org/Graphics/SVG/1.1/DTD/svg11.dtd">
<svg width="128.40" height="181.68" viewBox="0.00 0.00 535.00 757.00" xmlns="http://www.w3.org/2000/svg" xmlns:xlink="http://www.w3.org/1999/xlink">
<g stroke-linecap="round" transform="translate(44.00, 155.00)" id="176-구름-1">
<path d="M165.87,-101.97 C165.87,-101.97 165.24,-104.85 165.24,-104.85 C166.91,-104.12 168.01,-103.23 168.67,-101.86 C169.72,-99.67 171.28,-94.00 171.19,-91.73 C171.06,-89.62 169.18,-86.01 167.45,-83.96 C165.63,-81.88 161.95,-79.29 159.69,-79.83 C158.71,-80.09 155.96,-81.50 155.23,-82.11 C154.33,-82.92 153.31,-84.98 153.31,-86.13 C153.38,-88.39 156.65,-93.68 159.47,-97.09 C162.10,-100.23 165.98,-103.98 167.75,-105.11 C171.48,-107.42 180.07,-110.71 183.90,-110.71 C186.16,-110.69 190.12,-109.79 192.04,-108.81 C193.63,-107.98 198.11,-104.68 199.20,-103.41 C200.62,-101.73 202.13,-97.99 202.71,-95.22 C203.22,-92.59 202.78,-77.79 200.99,-72.96 C200.48,-71.63 199.55,-69.83 198.02,-67.09 C197.53,-67.86 200.97,-72.03 203.59,-73.59 C205.97,-74.95 210.98,-76.54 213.71,-76.60 C216.50,-76.63 221.66,-74.82 223.97,-73.28 C226.15,-71.79 229.17,-68.20 230.15,-65.93 C231.01,-63.91 232.16,-59.03 232.38,-56.89 C232.56,-55.03 232.16,-50.06 230.96,-47.26 C229.74,-44.50 224.59,-40.84 222.40,-40.23 C218.52,-39.26 210.65,-41.48 208.21,-42.84 C209.18,-40.02 209.78,-37.40 209.44,-35.93 C209.03,-34.23 207.53,-31.80 206.52,-31.03 C204.44,-29.58 199.67,-27.97 196.69,-27.70 C193.85,-27.47 187.57,-28.29 185.27,-29.00 C182.88,-29.76 174.87,-33.19 173.30,-34.18 C171.49,-35.37 169.30,-37.63 168.77,-39.02 C167.69,-42.05 168.33,-45.34 168.93,-46.68 C170.05,-46.93 171.17,-46.22 171.90,-44.34 C172.85,-41.86 173.31,-35.17 172.33,-32.76 C171.69,-31.28 169.48,-29.74 167.44,-29.02 C161.30,-27.24 145.66,-22.35 143.05,-21.69 C140.79,-21.12 133.75,-20.18 130.74,-20.29 C127.57,-20.43 122.39,-21.86 120.29,-23.10 C118.61,-24.13 114.94,-28.20 114.38,-30.78 C114.06,-32.36 114.35,-35.35 114.79,-36.61 C115.31,-37.92 116.80,-40.05 118.12,-41.39 C118.85,-42.13 119.84,-42.39 120.91,-42.48 C121.76,-41.98 122.35,-41.45 122.54,-40.65 C122.91,-38.99 122.57,-36.23 121.74,-34.53 C120.95,-32.98 117.61,-31.84 114.99,-32.16 C112.09,-32.55 106.67,-34.34 103.90,-35.61 C101.22,-36.87 97.71,-39.50 96.72,-41.18 C95.78,-42.84 95.06,-47.58 95.13,-50.54 C95.24,-53.86 96.76,-60.06 98.52,-62.83 C100.34,-65.61 105.93,-70.42 109.11,-72.16 C112.12,-73.77 117.32,-75.12 119.99,-75.12 C121.29,-75.06 123.64,-73.86 124.67,-72.57 C125.57,-71.38 126.12,-67.79 125.74,-66.27 C125.25,-64.63 123.14,-62.93 121.68,-63.10 C119.40,-63.44 115.79,-66.96 114.44,-68.84 C112.85,-71.16 110.95,-76.86 110.01,-81.83 C109.27,-85.93 110.62,-91.10 112.11,-93.14 C114.41,-96.15 122.55,-102.50 127.49,-104.58 C130.71,-105.91 150.86,-109.42 153.84,-108.91 C156.00,-108.49 161.39,-104.15 162.80,-103.16 C164.02,-102.30 166.75,-101.16 167.51,-100.37 C167.78,-100.08 168.07,-99.78 168.39,-99.46" fill="none" stroke="rgb(0, 255, 0)" stroke-width="3.07" stroke-opacity="1.00" stroke-linejoin="round"/>
<path d="M101.69,-59.18 C101.69,-59.18 99.91,-58.55 99.91,-58.55 C104.64,-57.16 114.66,-50.22 119.20,-45.95 C121.67,-43.61 129.57,-35.20 129.64,-35.19 C126.39,-40.61 123.65,-45.46 122.60,-48.32 C121.82,-50.55 120.66,-56.16 120.18,-59.55 C122.59,-58.37 123.93,-57.39 125.37,-55.62 C128.42,-51.92 138.48,-44.14 141.57,-41.78" fill="none" stroke="rgb(0, 255, 0)" stroke-width="3.07" stroke-opacity="1.00" stroke-linejoin="round"/>
<path d="M132.52,-56.67 C132.52,-56.67 129.38,-58.87 129.38,-58.87 C129.38,-58.87 156.06,-35.38 156.06,-35.38 C153.84,-37.76 150.90,-41.55 147.45,-46.56 C144.80,-50.37 133.03,-65.72 131.46,-68.41 C131.26,-68.76 130.96,-69.30 130.57,-70.03" fill="none" stroke="rgb(0, 255, 0)" stroke-width="3.07" stroke-opacity="1.00" stroke-linejoin="round"/>
<path d="M129.38,-73.03 C129.38,-73.03 126.42,-74.73 126.42,-74.73 C130.01,-72.31 142.45,-60.34 147.50,-54.67 C153.48,-47.76 159.44,-40.31 159.73,-39.93 C159.97,-39.62 160.34,-39.11 160.85,-38.40" fill="none" stroke="rgb(0, 255, 0)" stroke-width="3.07" stroke-opacity="1.00" stroke-linejoin="round"/>
<path d="M124.97,-95.68 C124.97,-95.68 121.83,-95.68 121.83,-95.68 C125.23,-93.69 130.06,-88.96 132.12,-86.78 C136.82,-81.81 167.23,-42.63 167.55,-42.35 C167.81,-42.13 168.30,-41.87 169.02,-41.56" fill="none" stroke="rgb(0, 255, 0)" stroke-width="3.07" stroke-opacity="1.00" stroke-linejoin="round"/>
<path d="M142.59,-100.09 C142.59,-100.09 141.65,-101.03 141.65,-101.03 C141.65,-101.03 141.33,-101.03 141.33,-101.03 C142.27,-97.69 146.57,-89.31 152.47,-79.41 C160.48,-66.42 172.27,-47.16 176.05,-40.88 C178.54,-36.85 179.47,-36.03 180.45,-35.64 C180.45,-35.64 177.20,-43.45 177.20,-43.45" fill="none" stroke="rgb(0, 255, 0)" stroke-width="3.07" stroke-opacity="1.00" stroke-linejoin="round"/>
<path d="M152.03,-98.20 C152.03,-98.20 148.57,-98.04 148.57,-98.04 C149.03,-95.78 149.53,-94.54 150.71,-93.11 C161.54,-79.51 176.06,-59.62 183.96,-46.67 C186.76,-41.95 191.30,-33.57 192.67,-32.28 C191.76,-35.95 185.15,-46.45 180.88,-54.06 C175.36,-64.21 164.42,-86.04 162.50,-89.93 C165.38,-88.49 169.74,-85.48 171.75,-83.57 C175.54,-79.90 199.15,-47.71 201.67,-44.88 C201.30,-45.85 192.03,-58.29 188.92,-63.67 C181.70,-76.26 176.25,-93.02 175.54,-96.37 C177.31,-93.11 179.17,-89.88 181.30,-86.55 C190.48,-72.38 204.92,-50.29 209.05,-45.59 C209.05,-45.59 209.50,-47.69 209.50,-47.69" fill="none" stroke="rgb(0, 255, 0)" stroke-width="3.07" stroke-opacity="1.00" stroke-linejoin="round"/>
<path d="M191.67,-98.20 C191.67,-98.20 188.21,-95.84 188.21,-95.84 C189.66,-93.00 196.38,-82.11 200.20,-73.88 C211.08,-49.28 211.74,-48.40 212.25,-48.02 C211.94,-50.13 209.66,-56.27 208.34,-59.78 C207.15,-62.86 204.86,-68.84 203.77,-71.74 C202.29,-75.93 201.00,-80.07 199.66,-84.84 C200.88,-83.99 210.88,-68.02 215.27,-60.60 C221.04,-50.29 223.22,-46.08 223.46,-45.96 C223.46,-45.96 219.37,-66.52 219.37,-66.52 C220.80,-64.78 222.85,-60.35 224.21,-57.44 C225.71,-54.28 227.69,-50.12 228.17,-49.12" fill="none" stroke="rgb(0, 255, 0)" stroke-width="3.07" stroke-opacity="1.00" stroke-linejoin="round"/>
</g>
</svg>
