<?xml version="1.0" encoding="UTF-8" standalone="no"?>
<!DOCTYPE svg PUBLIC "-//W3C//DTD SVG 1.1//EN" "http://www.w3.org/Graphics/SVG/1.1/DTD/svg11.dtd">
<svg width="128.40" height="181.68" viewBox="0.00 0.00 535.00 757.00" xmlns="http://www.w3.org/2000/svg" xmlns:xlink="http://www.w3.org/1999/xlink">
<g stroke-linecap="round" transform="translate(44.00, 155.00)" id="176-사람">
<path d="M285.43,171.75 C285.43,171.75 286.06,172.38 286.06,172.38 C286.06,172.38 286.69,172.38 286.69,172.38 C283.83,172.24 279.66,172.84 278.32,173.82 C277.31,174.60 275.66,177.28 275.03,179.14 C274.47,180.87 274.31,183.34 274.64,184.39 C274.88,185.02 276.45,186.93 277.05,187.19 C277.38,187.32 278.08,187.42 279.14,187.49" fill="none" stroke="rgb(255, 0, 255)" stroke-width="3.07" stroke-opacity="1.00" stroke-linejoin="round"/>
<path d="M282.92,172.38 C282.92,172.38 281.83,173.64 281.83,173.64 C283.46,173.44 286.82,172.98 287.61,173.05 C289.20,173.24 292.64,175.13 293.58,176.39 C294.44,177.64 294.92,181.16 294.61,182.97 C294.36,184.19 292.99,187.22 292.24,187.84 C290.70,189.04 288.36,189.83 286.90,189.67 C285.78,189.52 278.50,188.89 277.52,189.26 C276.59,189.65 275.96,191.10 275.77,192.94 C274.99,201.90 272.95,210.55 270.20,220.14 C268.55,225.62 257.98,253.62 256.16,256.74 C254.70,259.16 251.91,262.28 249.08,264.34 C245.61,266.82 239.20,270.04 235.49,271.06 C229.96,272.54 220.19,273.02 217.72,272.46 C217.72,272.46 216.82,263.10 216.82,263.10 C216.78,263.09 216.73,263.17 216.67,263.34 C216.61,263.52 216.46,264.03 216.21,264.89" fill="none" stroke="rgb(255, 0, 255)" stroke-width="3.07" stroke-opacity="1.00" stroke-linejoin="round"/>
<path d="M197.97,263.00 C197.02,263.43 196.39,263.80 196.08,264.10 C195.77,264.40 195.35,265.05 194.82,266.06 C195.84,270.05 196.96,273.25 197.23,273.73 C197.40,274.02 197.79,274.57 198.41,275.38" fill="none" stroke="rgb(255, 0, 255)" stroke-width="3.07" stroke-opacity="1.00" stroke-linejoin="round"/>
<path d="M221.25,271.81 C221.25,271.81 219.68,273.07 219.68,273.07 C219.68,273.07 219.36,273.07 219.36,273.07 C219.38,273.07 216.35,271.98 215.69,271.79 C212.82,270.96 206.68,271.79 203.81,272.83 C203.00,273.13 194.21,276.62 190.93,277.35 C187.52,278.10 183.78,280.20 181.77,281.87 C177.66,285.36 169.62,296.24 165.89,301.42 C164.28,303.57 159.66,309.49 157.91,312.70 C154.83,318.44 151.14,329.64 148.65,339.77 C143.53,361.50 143.32,368.89 143.41,371.68 C144.40,372.33 153.51,371.63 153.78,371.61 C155.48,371.40 157.45,370.72 157.98,369.85 C158.06,369.71 171.88,336.26 174.08,330.85 C174.62,329.55 175.59,327.35 175.94,326.55" fill="none" stroke="rgb(255, 0, 255)" stroke-width="3.07" stroke-opacity="1.00" stroke-linejoin="round"/>
<path d="M144.48,369.34 C144.48,369.34 142.91,369.34 142.91,369.34 C141.98,370.20 140.98,373.35 140.83,376.07 C140.70,378.90 140.65,386.18 141.53,388.12 C142.26,389.70 144.36,391.00 146.02,391.40 C147.01,390.19 147.44,388.89 147.52,386.38 C147.58,384.73 147.64,381.83 147.66,380.58 C147.66,380.58 150.80,389.84 150.80,389.84 C150.80,389.84 153.13,382.12 153.13,382.12 C153.13,382.12 156.70,386.66 156.70,386.66 C156.70,386.66 157.49,381.26 157.49,381.26 C157.49,381.26 165.60,385.81 165.60,385.81 C166.41,384.55 166.65,383.82 166.03,383.02 C164.78,381.43 163.30,379.98 161.41,378.50 C159.87,377.30 158.10,375.69 157.00,374.49 C156.77,374.23 156.37,373.77 155.81,373.12" fill="none" stroke="rgb(255, 0, 255)" stroke-width="3.07" stroke-opacity="1.00" stroke-linejoin="round"/>
<path d="M175.94,329.07 C175.94,329.07 174.53,329.38 174.53,329.38 C174.08,330.16 174.01,332.24 174.43,334.68 C175.30,339.80 175.32,368.80 175.31,373.41 C175.31,373.41 175.31,373.12 175.31,373.12" fill="none" stroke="rgb(255, 0, 255)" stroke-width="3.07" stroke-opacity="1.00" stroke-linejoin="round"/>
<path d="M177.20,363.68 C177.20,363.68 175.00,367.45 175.00,367.45 C178.75,366.91 183.49,366.71 186.68,367.36 C186.93,367.41 192.75,368.75 193.96,368.91 C197.26,369.32 200.21,368.65 204.72,366.99 C205.66,366.65 233.51,362.99 235.63,361.85 C235.80,361.75 236.05,361.52 236.35,361.16" fill="none" stroke="rgb(255, 0, 255)" stroke-width="3.07" stroke-opacity="1.00" stroke-linejoin="round"/>
<path d="M200.48,367.45 C200.48,367.45 198.60,369.97 198.60,369.97 C198.60,369.97 201.54,375.45 201.54,375.45 C202.74,375.64 204.10,375.53 204.90,375.00 C206.29,374.05 206.68,370.04 206.47,369.20 C206.36,368.81 206.05,368.02 205.52,366.83" fill="none" stroke="rgb(255, 0, 255)" stroke-width="3.07" stroke-opacity="1.00" stroke-linejoin="round"/>
<path d="M208.66,370.60 C208.40,370.72 208.19,370.82 208.03,370.92 C207.88,371.01 207.57,371.22 207.09,371.54 C207.09,371.54 206.78,372.74 206.78,372.74 C208.47,373.61 212.89,373.76 215.03,373.34 C217.40,372.85 228.55,369.61 229.23,369.36 C232.76,368.07 236.05,368.09 236.38,368.06 C237.08,364.83 236.16,357.82 235.97,354.09 C235.64,347.27 237.85,326.20 238.13,323.69 C238.86,317.20 239.46,301.46 239.68,299.84 C239.99,297.63 241.18,291.98 242.24,291.02 C242.42,290.87 249.56,286.61 252.79,284.29 C258.49,280.17 269.79,268.85 273.06,264.03 C276.77,258.49 280.21,249.18 283.14,238.21 C285.74,228.29 286.28,224.98 287.42,213.24 C288.08,205.33 289.06,192.58 289.10,191.66 C289.17,190.14 289.21,187.93 289.21,186.86" fill="none" stroke="rgb(255, 0, 255)" stroke-width="3.07" stroke-opacity="1.00" stroke-linejoin="round"/>
<path d="M202.37,371.23 C202.37,371.23 200.48,372.96 200.48,372.96 C200.40,372.50 183.57,374.08 177.49,373.75 C176.99,373.72 176.03,373.62 174.61,373.46 C174.61,373.46 174.68,372.49 174.68,372.49" fill="none" stroke="rgb(255, 0, 255)" stroke-width="3.07" stroke-opacity="1.00" stroke-linejoin="round"/>
<path d="M178.46,372.49 C178.38,372.76 176.14,376.25 175.94,378.45 C175.88,379.12 175.84,402.78 175.64,405.81 C175.30,410.87 176.57,422.32 176.58,430.45 C176.54,442.76 176.80,452.20 177.56,457.64 C177.95,460.36 181.55,478.82 181.58,482.24 C181.59,484.03 183.60,490.21 183.98,490.85 C184.62,491.90 191.15,492.41 193.35,492.50 C199.07,492.72 209.82,491.92 213.85,491.57 C214.36,491.54 215.57,491.49 217.47,491.42" fill="none" stroke="rgb(255, 0, 255)" stroke-width="3.07" stroke-opacity="1.00" stroke-linejoin="round"/>
<path d="M214.33,472.54 C214.33,472.54 214.96,495.10 214.96,495.10 C214.96,495.10 214.96,492.04 214.96,492.04" fill="none" stroke="rgb(255, 0, 255)" stroke-width="3.07" stroke-opacity="1.00" stroke-linejoin="round"/>
<path d="M180.98,475.69 C180.98,475.69 181.54,478.20 181.54,478.20 C184.11,478.44 197.94,476.65 205.44,476.26 C207.61,476.14 219.91,473.93 220.23,473.83 C220.49,473.75 220.83,473.53 221.25,473.17" fill="none" stroke="rgb(255, 0, 255)" stroke-width="3.07" stroke-opacity="1.00" stroke-linejoin="round"/>
<path d="M219.36,471.91 C219.36,471.91 218.42,472.23 218.42,472.23 C218.42,472.23 218.19,472.97 218.19,472.97 C225.22,474.67 246.58,471.75 250.02,472.25 C251.85,472.54 252.93,472.54 253.03,472.31 C250.80,462.84 245.59,429.68 243.43,415.34 C242.23,408.25 238.19,392.62 237.42,388.88 C236.59,384.83 233.95,365.72 233.81,365.21 C233.73,364.91 233.52,364.40 233.20,363.68" fill="none" stroke="rgb(255, 0, 255)" stroke-width="3.07" stroke-opacity="1.00" stroke-linejoin="round"/>
<path d="M206.15,404.58 C206.06,405.11 206.31,406.78 206.83,408.99 C207.85,413.37 209.41,436.23 210.00,439.85 C212.27,451.25 212.80,467.97 213.39,471.43 C213.67,473.11 215.29,480.08 215.59,481.35" fill="none" stroke="rgb(255, 0, 255)" stroke-width="3.07" stroke-opacity="1.00" stroke-linejoin="round"/>
<path d="M254.60,471.28 C254.60,471.28 252.71,473.17 252.71,473.17 C252.88,473.18 255.31,473.17 256.02,473.29 C258.69,473.78 264.37,477.41 265.47,478.97 C266.49,480.52 267.17,482.83 266.81,483.91 C266.14,485.64 260.71,488.96 256.79,490.75 C253.94,492.03 246.79,494.36 243.07,494.47 C225.90,494.86 216.49,492.25 214.33,491.15 C213.70,490.82 213.07,490.49 212.44,490.16" fill="none" stroke="rgb(255, 0, 255)" stroke-width="3.07" stroke-opacity="1.00" stroke-linejoin="round"/>
<path d="M263.41,211.40 C263.41,211.40 262.31,211.40 262.31,211.40 C262.23,211.71 262.22,218.38 261.49,221.29 C259.85,227.61 253.95,239.68 250.14,245.04 C248.38,247.45 244.50,251.93 242.13,254.12 C239.75,256.29 233.95,260.13 231.11,261.67 C228.14,263.25 222.91,264.86 219.67,265.18 C216.61,265.45 210.89,265.17 207.58,264.70 C204.71,264.36 194.01,264.27 192.65,264.21 C188.72,264.03 182.73,262.50 180.04,261.21 C175.43,258.97 165.59,250.24 162.08,245.44 C159.02,241.22 152.66,228.79 150.89,223.33 C149.97,220.48 149.07,215.13 148.65,210.96 C148.22,206.29 148.61,200.01 149.65,196.09 C150.26,193.87 153.05,188.45 154.14,186.79 C155.42,184.88 158.82,181.10 160.78,179.90 C164.88,177.46 176.57,173.89 177.18,173.80 C177.60,173.74 178.45,173.68 179.72,173.64" fill="none" stroke="rgb(255, 0, 255)" stroke-width="3.07" stroke-opacity="1.00" stroke-linejoin="round"/>
<path d="M175.94,179.31 C175.94,179.31 175.63,178.05 175.63,178.05 C175.63,178.05 175.00,177.73 175.00,177.73 C175.00,177.73 174.91,176.08 174.91,176.08 C183.25,171.67 194.34,167.51 198.55,167.35 C201.19,167.27 219.95,168.95 222.75,169.32 C226.35,169.81 230.97,171.31 234.18,173.21 C234.95,173.68 243.25,178.93 246.42,180.90 C250.14,183.35 254.48,187.68 256.63,191.47 C258.84,195.45 262.83,207.68 263.32,212.64 C263.56,215.31 262.63,220.16 262.15,222.10" fill="none" stroke="rgb(255, 0, 255)" stroke-width="3.07" stroke-opacity="1.00" stroke-linejoin="round"/>
<path d="M259.63,203.85 C257.11,203.91 250.23,202.82 250.03,202.81 C244.24,202.46 229.98,203.29 225.35,202.62 C222.49,202.21 211.90,201.83 211.54,201.81 C207.96,201.60 192.19,205.42 187.76,206.07 C183.02,206.74 167.47,207.28 161.80,207.83 C158.53,208.15 155.90,208.73 154.86,209.04 C154.34,209.20 153.81,209.35 153.29,209.51" fill="none" stroke="rgb(255, 0, 255)" stroke-width="3.07" stroke-opacity="1.00" stroke-linejoin="round"/>
<path d="M190.41,217.69 C190.04,217.39 186.22,216.38 184.95,216.40 C177.70,216.50 174.16,217.49 173.15,217.83 C173.15,217.83 172.80,219.58 172.80,219.58" fill="none" stroke="rgb(255, 0, 255)" stroke-width="3.07" stroke-opacity="1.00" stroke-linejoin="round"/>
<path d="M182.86,224.61 C182.86,224.93 182.86,225.86 182.86,226.48 C182.93,231.18 184.87,235.06 185.33,235.76 C185.33,235.76 184.17,224.82 184.17,224.82 C184.17,224.82 186.60,238.26 186.60,238.26 C187.30,236.19 187.42,234.55 186.91,232.09 C186.40,229.63 185.99,228.42 185.42,227.40 C185.42,227.40 185.38,235.31 185.38,235.31" fill="none" stroke="rgb(255, 0, 255)" stroke-width="3.07" stroke-opacity="1.00" stroke-linejoin="round"/>
<path d="M228.80,215.80 C228.80,215.80 226.28,218.32 226.28,218.32 C226.50,217.42 227.37,215.81 228.31,215.03 C229.35,214.19 232.66,213.44 234.58,213.50 C236.43,213.60 241.13,215.71 242.24,216.54 C242.68,216.88 243.23,217.47 243.90,218.32" fill="none" stroke="rgb(255, 0, 255)" stroke-width="3.07" stroke-opacity="1.00" stroke-linejoin="round"/>
<path d="M233.20,220.84 C232.33,221.80 231.80,222.41 231.63,222.66 C231.18,223.36 233.49,235.82 233.77,237.39 C233.77,237.39 232.59,221.89 232.59,221.89 C232.59,221.89 232.58,235.14 232.58,235.14 C232.58,235.14 232.07,224.84 232.07,224.84 C231.81,226.77 231.52,229.88 231.58,231.42 C231.64,232.95 232.17,236.32 232.58,238.46" fill="none" stroke="rgb(255, 0, 255)" stroke-width="3.07" stroke-opacity="1.00" stroke-linejoin="round"/>
<path d="M242.64,246.01 C242.33,246.32 242.01,246.64 241.70,246.95 C241.59,247.06 241.49,247.16 241.38,247.27 C241.38,247.27 243.11,246.57 243.11,246.57 C243.11,246.57 242.01,244.12 242.01,244.12" fill="none" stroke="rgb(255, 0, 255)" stroke-width="3.07" stroke-opacity="1.00" stroke-linejoin="round"/>
<path d="M182.23,250.41 C182.23,250.41 178.67,250.57 178.67,250.57 C178.67,250.57 180.40,252.80 180.40,252.80 C180.40,252.80 181.58,251.74 181.58,251.74 C181.58,251.74 181.06,251.10 181.06,251.10" fill="none" stroke="rgb(255, 0, 255)" stroke-width="3.07" stroke-opacity="1.00" stroke-linejoin="round"/>
<path d="M206.78,234.68 C206.78,234.68 205.52,234.68 205.52,234.68 C206.25,236.28 208.75,243.69 208.94,244.18 C209.09,244.59 209.42,245.41 209.92,246.64" fill="none" stroke="rgb(255, 0, 255)" stroke-width="3.07" stroke-opacity="1.00" stroke-linejoin="round"/>
<path d="M203.63,251.67 C203.63,251.67 202.37,253.64 202.37,253.64 C204.87,255.27 206.72,256.09 208.21,256.08 C213.24,255.99 219.24,252.28 220.07,252.34 C221.50,252.45 225.21,252.76 226.26,252.61 C226.89,252.53 228.16,252.21 230.06,251.67" fill="none" stroke="rgb(255, 0, 255)" stroke-width="3.07" stroke-opacity="1.00" stroke-linejoin="round"/>
</g>
</svg>
