<?xml version="1.0" encoding="UTF-8" standalone="no"?>
<!DOCTYPE svg PUBLIC "-//W3C//DTD SVG 1.1//EN" "http://www.w3.org/Graphics/SVG/1.1/DTD/svg11.dtd">
<svg width="128.40" height="181.68" viewBox="0.00 0.00 535.00 757.00" xmlns="http://www.w3.org/2000/svg" xmlns:xlink="http://www.w3.org/1999/xlink">
<g stroke-linecap="round" transform="translate(44.00, 155.00)" id="178-번개">
<path d="M230.84,-40.26 C229.33,-40.06 228.38,-39.76 227.71,-39.01 C226.13,-37.23 222.95,-31.58 221.59,-28.95 C220.70,-27.22 215.70,-17.11 214.73,-15.37 C211.42,-9.93 205.98,-0.60 202.84,6.29 C201.97,8.07 198.29,15.55 198.54,16.71 C198.71,17.50 202.45,22.47 203.98,25.71 C207.60,33.50 210.85,43.94 212.47,49.39 C212.78,50.51 208.39,66.40 206.08,74.73 C200.31,95.38 193.39,114.28 192.76,117.04 C192.76,117.04 193.83,117.41 193.83,117.41" fill="none" stroke="rgb(254, 240, 0)" stroke-width="3.05" stroke-opacity="1.00" stroke-linejoin="round"/>
<path d="M197.68,115.53 C197.37,115.53 197.05,115.53 196.74,115.53 C196.01,115.53 195.28,115.53 194.55,115.53 C194.55,115.53 195.07,115.53 195.07,115.53 C195.72,116.99 196.69,121.48 197.78,128.05 C198.12,130.13 198.67,133.59 198.90,134.96 C199.81,130.94 202.23,126.20 203.53,123.23 C204.75,120.45 212.47,100.07 213.15,98.37 C215.21,93.33 228.16,63.70 229.87,58.78 C230.90,55.77 231.45,52.23 230.60,50.11 C230.45,49.76 218.07,26.77 217.07,24.42 C216.78,23.73 214.59,18.02 214.35,17.19 C213.95,15.59 214.19,14.23 215.30,12.22 C230.29,-13.95 251.93,-51.54 253.30,-54.33 C253.30,-54.33 253.41,-53.63 253.41,-53.63" fill="none" stroke="rgb(254, 240, 0)" stroke-width="3.05" stroke-opacity="1.00" stroke-linejoin="round"/>
</g>
</svg>
