<?xml version="1.0" encoding="UTF-8" standalone="no"?>
<!DOCTYPE svg PUBLIC "-//W3C//DTD SVG 1.1//EN" "http://www.w3.org/Graphics/SVG/1.1/DTD/svg11.dtd">
<svg width="64.20" height="90.84" viewBox="0.00 0.00 535.00 757.00" xmlns="http://www.w3.org/2000/svg" xmlns:xlink="http://www.w3.org/1999/xlink">
<g stroke-linecap="round" transform="translate(44.00, 155.00)" id="18-꽃-1">
<path d="M428.99,240.29 C428.99,240.29 428.26,240.40 428.26,240.40 C428.26,240.40 427.69,242.26 427.69,242.26 C429.46,243.12 428.70,241.03 428.51,240.81 C427.76,240.99 433.40,236.82 434.28,234.55 C434.69,233.44 434.38,231.15 433.92,230.34 C433.28,229.26 431.02,227.84 429.81,228.16 C428.46,228.56 426.09,231.57 425.50,233.52 C424.84,235.85 425.59,237.24 425.75,237.44 C426.11,236.87 425.71,235.30 425.24,234.46 C424.53,233.26 422.49,232.22 421.32,232.77 C420.01,233.45 418.75,236.59 418.71,238.00 C418.73,239.42 419.62,241.45 420.79,242.01 C421.66,242.38 423.44,242.43 423.83,242.37 C422.88,242.27 420.76,242.86 419.53,243.92 C418.11,245.17 416.64,248.52 416.46,249.82 C416.31,251.22 416.69,251.95 417.36,252.85 C418.99,253.13 421.03,252.09 421.67,251.56 C422.47,250.90 425.07,248.32 425.69,247.84 C426.67,248.44 429.40,250.68 430.85,250.77 C432.45,250.81 434.94,248.96 435.56,247.73 C435.87,246.90 436.21,246.03 436.34,245.87 C436.44,245.82 439.66,245.68 441.15,244.98 C442.69,244.22 444.15,241.68 443.59,240.40 C442.63,238.39 438.32,237.17 437.11,236.92 C437.06,236.90 436.74,237.02 435.48,237.47" fill="none" stroke="rgb(255, 88, 0)" stroke-width="3.34" stroke-opacity="1.00" stroke-linejoin="round"/>
<path d="M427.82,249.82 C427.54,250.24 427.39,252.19 427.37,256.72 C427.36,259.85 427.93,262.43 428.00,262.48 C428.00,262.48 428.99,259.06 428.99,259.06" fill="none" stroke="rgb(255, 88, 0)" stroke-width="3.34" stroke-opacity="1.00" stroke-linejoin="round"/>
<path d="M433.25,248.36 C433.25,248.36 433.10,248.87 433.10,248.87 C433.12,248.91 433.14,248.93 433.16,248.94 C433.17,248.96 433.20,248.98 433.25,249.00 C433.25,249.11 432.48,256.87 432.45,257.69 C432.34,261.40 433.22,263.35 433.23,263.45 C431.86,262.82 426.02,259.11 424.76,258.53 C423.06,257.76 420.14,257.13 418.63,257.25 C417.18,257.39 414.78,258.38 414.05,259.10 C413.38,259.81 412.92,261.61 413.06,262.65 C413.23,263.68 414.24,265.38 415.07,265.94 C418.61,268.21 431.44,266.34 432.13,266.25 C432.21,266.28 431.53,263.21 431.87,261.71 C432.43,259.32 434.09,255.96 435.18,254.61 C436.39,253.14 439.43,250.93 441.02,250.22 C448.25,247.06 452.10,247.15 453.47,247.31 C454.33,248.37 454.05,250.48 453.65,251.52 C453.09,252.86 450.46,256.62 448.20,258.59 C443.49,262.62 438.30,263.67 437.51,263.76 C437.51,263.76 437.50,263.64 437.50,263.64" fill="none" stroke="rgb(255, 88, 0)" stroke-width="3.34" stroke-opacity="1.00" stroke-linejoin="round"/>
</g>
</svg>
