<?xml version="1.0" encoding="UTF-8" standalone="no"?>
<!DOCTYPE svg PUBLIC "-//W3C//DTD SVG 1.1//EN" "http://www.w3.org/Graphics/SVG/1.1/DTD/svg11.dtd">
<svg width="64.20" height="90.84" viewBox="0.00 0.00 535.00 757.00" xmlns="http://www.w3.org/2000/svg" xmlns:xlink="http://www.w3.org/1999/xlink">
<g stroke-linecap="round" transform="translate(44.00, 155.00)" id="18-꽃-2">
<path d="M463.27,200.03 C463.27,200.03 460.30,199.48 460.30,199.48 C459.47,200.59 458.75,203.52 459.19,204.30 C459.82,205.29 462.94,205.35 463.95,204.18 C464.74,203.23 465.05,200.43 464.14,199.41 C463.96,199.22 463.55,198.90 462.92,198.47" fill="none" stroke="rgb(255, 88, 0)" stroke-width="3.34" stroke-opacity="1.00" stroke-linejoin="round"/>
<path d="M466.45,192.88 C466.48,189.99 465.72,188.36 464.61,187.80 C463.39,187.23 460.40,187.59 459.08,188.71 C457.92,189.76 456.27,193.92 456.36,197.59 C456.39,198.80 456.87,200.41 457.14,200.98 C456.30,201.17 454.15,201.45 453.91,201.54 C452.81,201.94 451.23,203.54 450.73,204.64 C450.25,205.82 451.93,207.72 453.56,207.67 C456.39,207.54 458.72,206.82 459.26,206.52 C457.50,207.22 454.29,210.52 453.94,212.10 C453.77,212.98 453.96,213.72 454.45,214.44 C455.36,214.86 456.25,215.10 457.10,214.85 C459.51,214.11 464.69,210.61 465.12,210.59 C465.41,210.65 467.78,213.04 469.09,213.35 C470.31,213.59 472.67,212.54 473.60,211.53 C474.37,210.65 475.72,207.26 475.13,205.29 C474.48,203.32 472.22,202.32 470.79,201.95 C473.30,199.15 475.46,195.53 475.43,194.19 C475.35,192.92 473.16,191.29 471.78,191.40 C470.80,191.50 469.81,191.59 468.83,191.69" fill="none" stroke="rgb(255, 88, 0)" stroke-width="3.34" stroke-opacity="1.00" stroke-linejoin="round"/>
<path d="M464.86,212.74 C464.86,212.74 464.46,212.74 464.46,212.74 C463.45,213.71 462.47,219.58 462.48,223.21 C462.48,223.94 462.48,224.67 462.48,225.40 C459.28,223.21 455.68,221.28 453.76,220.87 C451.48,220.42 448.13,221.42 447.08,222.75 C446.14,224.03 446.07,226.96 447.06,227.90 C448.06,228.79 451.71,229.30 455.31,229.17 C468.11,228.64 469.37,228.80 470.02,229.35 C472.94,226.93 479.18,221.73 481.73,219.23 C482.91,218.06 483.89,216.03 483.98,214.84 C484.01,213.90 481.17,213.08 479.20,213.55 C475.14,214.59 468.47,219.54 467.81,220.12 C467.53,220.36 467.12,220.77 466.57,221.35" fill="none" stroke="rgb(255, 88, 0)" stroke-width="3.34" stroke-opacity="1.00" stroke-linejoin="round"/>
</g>
</svg>
