<?xml version="1.0" encoding="UTF-8" standalone="no"?>
<!DOCTYPE svg PUBLIC "-//W3C//DTD SVG 1.1//EN" "http://www.w3.org/Graphics/SVG/1.1/DTD/svg11.dtd">
<svg width="64.20" height="90.84" viewBox="0.00 0.00 535.00 757.00" xmlns="http://www.w3.org/2000/svg" xmlns:xlink="http://www.w3.org/1999/xlink">
<g stroke-linecap="round" transform="translate(44.00, 155.00)" id="18-μΈνƒ€λ¦¬-2">
<path d="M-3.48,176.77 C-3.48,176.77 -3.36,177.60 -3.36,177.60 C-3.15,177.70 42.81,198.26 49.20,200.52 C50.55,200.99 66.75,205.53 76.55,208.92 C103.56,218.68 131.13,228.65 132.98,229.38 C132.98,229.38 130.27,227.61 130.27,227.61" fill="none" stroke="rgb(236, 0, 140)" stroke-width="3.34" stroke-opacity="1.00" stroke-linejoin="round"/>
<path d="M-21.55,162.49 C-21.43,161.35 -18.39,158.94 -15.56,158.01 C-12.58,157.07 10.07,153.61 15.86,152.97 C20.60,152.48 26.10,152.52 29.20,153.27 C31.78,153.90 36.18,155.26 39.01,156.48 C41.49,157.56 46.14,160.36 48.08,162.69 C50.94,166.19 54.20,179.17 54.17,181.25 C54.11,183.01 51.90,186.37 51.17,187.50 C58.67,183.49 72.06,178.43 77.38,177.36 C81.06,176.64 86.64,176.26 89.78,176.54 C92.66,176.82 98.69,178.49 101.14,179.61 C103.50,180.71 109.24,184.43 111.71,186.50 C114.44,188.80 118.62,193.18 120.50,195.71 C124.07,200.55 126.19,206.43 126.98,208.94 C126.98,208.94 122.24,212.74 122.24,212.74" fill="none" stroke="rgb(236, 0, 140)" stroke-width="3.34" stroke-opacity="1.00" stroke-linejoin="round"/>
</g>
</svg>
