<?xml version="1.0" encoding="UTF-8" standalone="no"?>
<!DOCTYPE svg PUBLIC "-//W3C//DTD SVG 1.1//EN" "http://www.w3.org/Graphics/SVG/1.1/DTD/svg11.dtd">
<svg width="64.20" height="90.84" viewBox="0.00 0.00 535.00 757.00" xmlns="http://www.w3.org/2000/svg" xmlns:xlink="http://www.w3.org/1999/xlink">
<g stroke-linecap="round" transform="translate(44.00, 155.00)" id="18-꽃-4">
<path d="M273.98,527.40 C271.82,527.38 270.40,527.61 270.13,528.26 C269.91,528.94 271.19,530.14 272.19,529.91 C274.53,529.33 273.76,526.82 273.75,526.83 C274.63,527.11 278.03,527.11 279.69,526.63 C281.35,526.11 284.10,524.19 284.99,522.84 C285.75,521.64 286.51,518.87 286.38,517.65 C286.18,516.08 284.14,513.99 282.19,513.77 C280.00,513.57 274.18,515.40 271.94,517.03 C270.45,518.12 268.68,519.73 268.24,520.30 C267.95,519.33 266.36,517.30 264.88,516.65 C263.46,516.07 260.27,516.12 258.69,516.64 C256.96,517.25 254.30,519.51 253.39,521.12 C252.59,522.61 251.66,526.84 251.90,528.92 C252.15,530.91 253.82,533.92 255.20,535.00 C255.79,535.45 258.84,536.53 258.76,536.60 C258.73,536.75 255.92,539.35 255.53,540.77 C255.18,542.24 256.40,544.39 257.86,544.37 C260.56,544.27 265.84,539.06 269.19,535.38 C269.19,535.38 269.05,535.24 269.05,535.24" fill="none" stroke="rgb(255, 88, 0)" stroke-width="3.34" stroke-opacity="1.00" stroke-linejoin="round"/>
<path d="M269.79,534.98 C269.79,534.98 269.69,534.98 269.69,534.98 C269.69,534.98 269.49,535.15 269.49,535.15 C269.34,535.80 269.65,538.95 270.31,540.15 C271.03,541.39 273.81,542.81 275.21,542.86 C276.60,542.87 282.78,540.84 285.57,539.42 C288.55,537.90 291.66,535.20 292.09,534.19 C292.88,532.12 290.14,528.74 288.75,527.86 C287.60,527.17 285.21,527.05 284.01,527.00" fill="none" stroke="rgb(255, 88, 0)" stroke-width="3.34" stroke-opacity="1.00" stroke-linejoin="round"/>
<path d="M265.80,544.36 C264.61,545.84 263.60,553.81 263.61,562.33 C263.68,567.74 264.73,573.25 264.94,574.01 C264.94,574.01 265.60,571.30 265.60,571.30" fill="none" stroke="rgb(255, 88, 0)" stroke-width="3.34" stroke-opacity="1.00" stroke-linejoin="round"/>
<path d="M270.39,544.16 C269.72,544.45 268.86,548.46 268.40,552.37 C268.10,555.04 266.37,572.77 266.40,573.30 C266.40,573.30 265.80,569.51 265.80,569.51" fill="none" stroke="rgb(255, 88, 0)" stroke-width="3.34" stroke-opacity="1.00" stroke-linejoin="round"/>
<path d="M264.40,559.73 C264.34,559.73 264.17,559.72 263.85,559.54 C261.80,558.43 256.57,557.12 251.36,556.26 C250.74,556.15 250.21,555.70 250.10,555.61" fill="none" stroke="rgb(255, 88, 0)" stroke-width="3.34" stroke-opacity="1.00" stroke-linejoin="round"/>
<path d="M253.43,554.74 C252.33,554.72 251.63,554.68 251.33,554.64 C250.24,554.48 243.83,550.35 243.37,550.11 C241.65,549.19 238.10,548.52 237.16,548.74 C236.35,548.97 235.86,550.94 236.07,552.56 C236.36,554.42 238.20,557.45 239.86,558.48 C241.50,559.45 244.65,559.78 245.99,559.48 C247.20,559.18 248.54,558.00 248.66,556.96 C248.71,556.48 248.50,555.45 248.30,555.02 C248.16,554.75 247.13,553.46 246.52,552.69" fill="none" stroke="rgb(255, 88, 0)" stroke-width="3.34" stroke-opacity="1.00" stroke-linejoin="round"/>
<path d="M261.61,571.70 C261.61,571.70 261.61,571.50 261.61,571.50 C261.58,571.34 260.54,570.73 259.48,570.45 C258.53,570.19 255.53,569.78 253.26,569.51 C253.26,569.51 253.63,569.71 253.63,569.71" fill="none" stroke="rgb(255, 88, 0)" stroke-width="3.34" stroke-opacity="1.00" stroke-linejoin="round"/>
<path d="M256.42,570.31 C256.49,570.31 254.90,570.27 254.22,570.09 C254.21,570.09 247.87,568.21 244.56,568.04 C243.80,568.00 243.04,567.96 242.28,567.92 C246.13,570.11 251.15,577.68 251.47,578.08 C252.24,577.77 254.58,573.14 255.08,572.39 C255.49,571.78 256.97,570.47 257.44,570.04" fill="none" stroke="rgb(255, 88, 0)" stroke-width="3.34" stroke-opacity="1.00" stroke-linejoin="round"/>
<path d="M271.19,563.72 C271.19,563.72 270.59,563.46 270.59,563.46 C270.22,562.49 271.37,560.55 273.74,559.05 C276.63,557.25 279.25,556.09 279.52,555.94 C279.58,555.91 279.69,555.81 279.85,555.65" fill="none" stroke="rgb(255, 88, 0)" stroke-width="3.34" stroke-opacity="1.00" stroke-linejoin="round"/>
<path d="M296.93,547.16 C296.63,547.03 295.77,546.38 295.41,546.16 C294.41,545.57 290.66,545.29 289.00,545.59 C287.16,545.96 283.85,547.58 282.51,548.77 C281.46,549.75 278.71,554.49 278.30,556.03 C278.78,556.83 283.39,557.16 285.24,556.77 C286.40,556.50 288.49,555.21 289.43,554.16 C289.94,553.58 294.59,547.38 295.35,546.81 C295.66,546.58 296.18,546.35 296.93,546.09" fill="none" stroke="rgb(255, 88, 0)" stroke-width="3.34" stroke-opacity="1.00" stroke-linejoin="round"/>
</g>
</svg>
