<?xml version="1.0" encoding="UTF-8" standalone="no"?>
<!DOCTYPE svg PUBLIC "-//W3C//DTD SVG 1.1//EN" "http://www.w3.org/Graphics/SVG/1.1/DTD/svg11.dtd">
<svg width="64.20" height="90.84" viewBox="0.00 0.00 535.00 757.00" xmlns="http://www.w3.org/2000/svg" xmlns:xlink="http://www.w3.org/1999/xlink">
<g stroke-linecap="round" transform="translate(154.00, 267.00)" id="18-사람-1">
<path d="M59.78,37.21 C58.24,37.20 57.34,37.20 57.07,37.21 C55.86,37.28 52.33,41.48 51.07,44.77 C49.46,49.10 48.33,60.09 49.37,65.50 C50.19,69.52 53.38,75.09 55.83,76.79 C58.91,78.83 65.29,80.26 67.91,80.01 C71.89,79.54 82.94,74.45 86.09,71.82 C87.37,70.73 93.43,64.36 93.86,63.83 C95.48,61.83 96.90,57.38 97.10,54.08 C97.41,47.82 94.42,40.01 93.73,38.69 C93.73,38.69 92.36,38.44 92.36,38.44" fill="none" stroke="rgb(237, 28, 36)" stroke-width="3.34" stroke-opacity="1.00" stroke-linejoin="round"/>
<path d="M73.60,26.84 C73.39,26.84 70.31,25.58 68.71,25.95 C65.56,26.89 60.27,37.24 60.52,38.14 C60.88,39.08 62.90,39.58 65.01,39.11 C65.73,38.94 72.66,37.19 75.21,37.57 C80.31,38.47 93.66,37.37 98.97,38.44 C100.53,38.76 101.60,38.91 102.28,38.93 C102.83,38.58 99.73,33.18 96.89,30.70 C94.16,28.40 83.59,25.54 81.66,25.88 C82.04,27.11 87.65,31.72 89.72,33.70 C90.18,34.14 90.30,34.46 90.37,34.89 C89.87,35.19 78.74,31.76 76.77,32.74 C76.31,32.99 75.59,33.91 75.45,34.32 C75.36,34.63 75.39,35.53 75.48,37.16" fill="none" stroke="rgb(237, 28, 36)" stroke-width="3.34" stroke-opacity="1.00" stroke-linejoin="round"/>
<path d="M68.66,49.80 C68.66,49.80 69.40,48.56 69.40,48.56 C69.11,48.51 67.41,49.35 65.41,50.91 C64.14,51.91 63.20,52.70 61.67,54.07 C61.67,54.07 61.47,55.27 61.47,55.27" fill="none" stroke="rgb(237, 28, 36)" stroke-width="3.34" stroke-opacity="1.00" stroke-linejoin="round"/>
<path d="M84.70,46.09 C84.70,46.09 84.46,46.09 84.46,46.09 C84.79,46.15 87.72,48.25 89.49,49.54 C91.86,51.23 92.66,51.88 93.06,52.42 C93.06,52.42 92.68,52.92 92.68,52.92" fill="none" stroke="rgb(237, 28, 36)" stroke-width="3.34" stroke-opacity="1.00" stroke-linejoin="round"/>
<path d="M76.81,52.51 C76.98,54.43 77.85,57.35 78.97,58.68 C79.40,59.18 79.90,59.50 80.37,59.67 C77.46,60.65 76.22,61.05 76.18,61.11 C76.11,61.25 75.93,61.52 75.66,61.93" fill="none" stroke="rgb(237, 28, 36)" stroke-width="3.34" stroke-opacity="1.00" stroke-linejoin="round"/>
<path d="M72.86,64.36 C72.86,64.36 72.86,64.68 72.86,64.68 C72.81,64.72 74.42,65.59 75.65,66.07 C77.72,66.87 80.37,67.38 81.69,67.29 C81.93,67.27 82.27,67.21 82.73,67.12" fill="none" stroke="rgb(237, 28, 36)" stroke-width="3.34" stroke-opacity="1.00" stroke-linejoin="round"/>
<path d="M65.95,80.40 C65.95,80.40 65.95,80.28 65.95,80.28 C65.95,80.28 65.70,80.20 65.70,80.20 C65.70,80.20 63.59,95.67 63.59,95.67 C62.54,96.21 55.73,99.22 52.86,101.86 C52.16,102.51 45.08,109.93 43.83,111.65 C41.21,115.35 37.24,125.63 36.50,130.25 C36.11,132.79 36.23,136.99 36.71,138.90 C37.69,142.61 40.49,147.31 42.37,149.14 C44.35,150.99 49.94,154.18 53.76,155.04 C54.56,155.20 58.18,155.70 58.61,155.66 C58.90,155.63 59.49,155.49 60.38,155.24" fill="none" stroke="rgb(237, 28, 36)" stroke-width="3.34" stroke-opacity="1.00" stroke-linejoin="round"/>
<path d="M57.56,110.27 C57.35,110.41 55.74,111.05 55.35,111.42 C53.69,113.00 50.98,119.94 50.39,123.37 C49.97,125.96 49.78,131.15 50.16,132.91 C50.67,135.09 53.16,139.72 55.99,142.71 C62.29,149.28 68.83,152.27 69.68,153.60 C69.78,155.81 68.68,158.97 67.84,160.30 C66.73,162.00 64.10,164.12 63.02,163.92 C61.92,163.64 61.17,161.26 61.27,160.25 C61.35,159.56 62.37,156.27 62.67,155.31" fill="none" stroke="rgb(237, 28, 36)" stroke-width="3.34" stroke-opacity="1.00" stroke-linejoin="round"/>
<path d="M59.04,111.99 C59.04,111.99 58.42,112.50 58.42,112.50 C58.42,112.50 61.27,142.51 61.27,142.51 C61.27,142.51 61.45,142.40 61.45,142.40" fill="none" stroke="rgb(237, 28, 36)" stroke-width="3.34" stroke-opacity="1.00" stroke-linejoin="round"/>
<path d="M81.74,74.72 C81.74,74.72 81.13,74.80 81.13,74.80 C81.13,74.80 79.28,89.04 79.28,89.04 C82.82,89.06 87.06,89.39 90.47,90.45 C93.91,91.57 98.35,95.24 100.40,98.39 C100.68,98.83 108.05,110.74 108.10,110.64 C108.31,110.53 116.10,98.44 120.38,93.25 C121.18,92.28 123.12,90.03 123.83,89.21 C123.83,89.21 123.21,89.04 123.21,89.04" fill="none" stroke="rgb(237, 28, 36)" stroke-width="3.34" stroke-opacity="1.00" stroke-linejoin="round"/>
<path d="M124.44,90.52 C124.44,90.52 123.70,90.52 123.70,90.52 C123.75,90.43 124.07,89.94 124.53,89.30 C130.73,80.72 133.95,77.23 133.77,77.03 C131.70,75.74 129.81,73.93 129.17,72.57 C128.52,71.10 128.54,68.32 129.15,67.26 C129.79,66.24 132.00,65.84 133.10,66.39 C135.05,67.41 138.69,72.64 139.31,76.86 C139.54,78.59 138.72,83.68 138.74,84.11 C138.75,84.47 139.54,89.81 139.13,90.95 C138.71,92.00 137.19,93.19 135.93,93.49 C132.26,94.22 129.52,91.13 129.20,90.65 C130.15,91.46 132.06,93.06 133.01,93.84 C135.31,95.74 136.63,97.46 136.60,98.31 C136.36,100.76 133.35,105.96 130.62,108.87 C128.29,111.29 118.06,120.96 112.85,127.22 C112.66,127.43 112.48,127.57 112.29,127.64 C112.29,127.64 101.04,115.85 101.04,115.85 C101.04,115.85 101.06,115.70 101.06,115.70 C101.06,115.70 101.24,115.70 101.24,115.70" fill="none" stroke="rgb(237, 28, 36)" stroke-width="3.34" stroke-opacity="1.00" stroke-linejoin="round"/>
<path d="M95.81,114.71 C95.81,114.71 95.81,114.46 95.81,114.46 C96.07,122.74 96.99,133.77 96.91,141.78 C96.84,144.78 96.67,150.72 96.30,152.88 C96.16,152.99 92.16,152.72 89.11,152.90 C82.52,153.32 73.17,157.11 72.19,157.80 C71.46,158.31 69.89,159.67 69.22,160.30" fill="none" stroke="rgb(237, 28, 36)" stroke-width="3.34" stroke-opacity="1.00" stroke-linejoin="round"/>
<path d="M74.34,166.05 C74.23,165.98 75.72,163.80 78.47,162.19 C82.89,159.66 98.55,155.84 99.43,155.65 C99.50,155.63 99.53,155.55 99.51,155.43 C99.50,155.32 99.41,154.99 99.27,154.45" fill="none" stroke="rgb(237, 28, 36)" stroke-width="3.34" stroke-opacity="1.00" stroke-linejoin="round"/>
<path d="M99.02,153.21 C99.02,153.21 99.02,152.72 99.02,152.72 C99.34,158.24 100.82,191.31 101.69,199.81 C102.03,203.42 102.67,210.43 102.72,212.66 C102.72,212.66 102.97,212.45 102.97,212.45" fill="none" stroke="rgb(237, 28, 36)" stroke-width="3.34" stroke-opacity="1.00" stroke-linejoin="round"/>
<path d="M67.43,164.07 C67.43,164.07 66.19,163.58 66.19,163.58 C66.78,169.90 67.79,182.77 68.35,189.57 C68.59,192.15 68.66,197.25 67.68,198.35 C67.48,198.56 59.56,202.85 58.14,203.98 C56.30,205.50 48.44,214.36 47.68,215.17 C47.85,215.63 53.91,217.97 55.81,218.84 C60.13,220.84 64.49,224.54 64.60,224.49 C64.71,222.09 66.10,216.75 67.86,213.57 C69.40,210.85 78.79,197.23 81.77,190.64 C83.92,185.51 87.41,177.29 87.70,177.04" fill="none" stroke="rgb(237, 28, 36)" stroke-width="3.34" stroke-opacity="1.00" stroke-linejoin="round"/>
<path d="M88.16,182.33 C88.16,182.33 87.67,182.38 87.67,182.38 C87.60,182.51 91.22,204.81 91.39,205.84 C91.93,209.07 94.99,220.70 95.31,223.24 C97.03,218.82 98.70,216.11 100.05,215.25 C100.36,215.06 100.81,214.88 101.41,214.71 C101.71,214.63 102.73,214.37 104.45,213.93" fill="none" stroke="rgb(237, 28, 36)" stroke-width="3.34" stroke-opacity="1.00" stroke-linejoin="round"/>
<path d="M97.05,217.14 C97.05,217.14 97.08,234.72 97.08,234.72 C95.27,235.34 93.37,236.62 92.58,237.78 C91.83,238.92 91.61,240.88 92.07,241.73 C92.49,242.44 94.16,243.60 95.08,243.77 C96.19,243.94 99.52,243.15 102.49,241.28 C107.03,238.31 112.51,235.50 119.73,233.38 C123.23,232.33 127.82,230.94 128.33,230.61 C128.06,229.45 126.22,226.07 125.03,224.95 C123.58,223.65 120.52,222.49 118.60,222.61 C114.13,222.92 105.47,226.06 104.56,226.36 C103.35,223.07 102.38,216.74 102.38,216.70 C102.40,216.58 102.51,216.10 102.69,215.26" fill="none" stroke="rgb(237, 28, 36)" stroke-width="3.34" stroke-opacity="1.00" stroke-linejoin="round"/>
<path d="M50.40,218.37 C50.60,218.23 50.72,218.15 50.77,218.12 C50.82,218.10 50.86,218.10 50.89,218.12 C50.89,218.12 44.92,227.00 44.92,227.00 C44.55,226.94 39.61,225.85 38.45,226.08 C37.23,226.37 36.32,228.15 36.78,229.71 C37.21,231.08 39.51,234.24 41.15,235.66 C42.31,236.63 49.98,240.32 52.67,241.43 C54.38,242.13 58.20,242.62 61.85,242.01 C64.58,241.48 66.69,241.23 67.36,241.03 C67.64,240.36 66.62,237.08 65.54,235.46 C64.22,233.55 60.20,231.46 56.82,230.60 C54.49,230.03 51.82,229.58 50.91,229.48 C51.10,228.74 51.98,226.90 53.16,224.94 C53.51,224.36 54.18,223.30 55.17,221.78" fill="none" stroke="rgb(237, 28, 36)" stroke-width="3.34" stroke-opacity="1.00" stroke-linejoin="round"/>
</g>
</svg>
