<?xml version="1.0" encoding="UTF-8" standalone="no"?>
<!DOCTYPE svg PUBLIC "-//W3C//DTD SVG 1.1//EN" "http://www.w3.org/Graphics/SVG/1.1/DTD/svg11.dtd">
<svg width="64.20" height="90.84" viewBox="0.00 0.00 535.00 757.00" xmlns="http://www.w3.org/2000/svg" xmlns:xlink="http://www.w3.org/1999/xlink">
<g stroke-linecap="round" transform="translate(156.00, 267.00)" id="18-비">
<path d="M-87.54,-149.27 C-88.75,-146.26 -90.99,-141.60 -91.31,-140.77 C-92.29,-138.27 -93.19,-133.07 -93.14,-131.09 C-93.12,-130.74 -93.07,-130.00 -92.97,-128.87" fill="none" stroke="rgb(0, 165, 255)" stroke-width="3.34" stroke-opacity="1.00" stroke-linejoin="round"/>
<path d="M-71.31,116.58 C-72.68,119.27 -73.81,122.63 -74.63,126.94 C-75.22,130.16 -75.32,142.43 -75.23,143.18 C-75.17,143.70 -74.96,144.74 -74.62,146.30" fill="none" stroke="rgb(0, 165, 255)" stroke-width="3.34" stroke-opacity="1.00" stroke-linejoin="round"/>
<path d="M-24.37,125.35 C-26.45,126.92 -29.76,138.43 -29.97,140.80 C-30.01,141.30 -30.04,142.35 -30.08,143.96" fill="none" stroke="rgb(0, 165, 255)" stroke-width="3.34" stroke-opacity="1.00" stroke-linejoin="round"/>
<path d="M-10.34,25.33 C-10.98,28.16 -12.33,34.22 -12.80,37.69 C-13.01,39.33 -12.90,41.37 -12.53,42.34 C-12.41,42.65 -12.12,43.18 -11.67,43.91" fill="none" stroke="rgb(0, 165, 255)" stroke-width="3.34" stroke-opacity="1.00" stroke-linejoin="round"/>
<path d="M24.32,38.49 C24.32,38.49 24.10,38.49 24.10,38.49 C23.75,39.19 23.56,39.94 23.43,41.31 C23.23,43.37 22.90,51.68 23.10,53.20 C23.17,53.76 23.40,54.63 23.78,55.79" fill="none" stroke="rgb(0, 165, 255)" stroke-width="3.34" stroke-opacity="1.00" stroke-linejoin="round"/>
<path d="M-20.86,-179.54 C-21.65,-180.10 -22.77,-164.96 -22.62,-157.99 C-22.58,-156.24 -22.37,-154.49 -21.99,-152.22" fill="none" stroke="rgb(0, 165, 255)" stroke-width="3.34" stroke-opacity="1.00" stroke-linejoin="round"/>
<path d="M21.25,-174.27 C18.40,-167.90 16.17,-156.99 16.42,-155.50 C16.53,-154.93 16.92,-153.79 17.60,-152.07" fill="none" stroke="rgb(0, 165, 255)" stroke-width="3.34" stroke-opacity="1.00" stroke-linejoin="round"/>
<path d="M44.50,-142.25 C44.10,-141.69 43.83,-141.18 43.70,-140.71 C43.09,-138.52 42.76,-127.73 42.84,-126.02 C42.98,-123.37 43.73,-118.07 43.95,-115.63" fill="none" stroke="rgb(0, 165, 255)" stroke-width="3.34" stroke-opacity="1.00" stroke-linejoin="round"/>
<path d="M42.31,-86.53 C41.81,-84.57 38.80,-77.77 37.34,-74.81 C37.18,-74.47 36.96,-73.93 36.67,-73.17" fill="none" stroke="rgb(0, 165, 255)" stroke-width="3.34" stroke-opacity="1.00" stroke-linejoin="round"/>
<path d="M70.38,-186.56 C68.36,-182.59 66.68,-177.70 65.77,-174.25 C64.50,-169.13 63.83,-165.42 64.12,-162.24 C64.16,-161.84 64.25,-161.10 64.38,-160.01" fill="none" stroke="rgb(0, 165, 255)" stroke-width="3.34" stroke-opacity="1.00" stroke-linejoin="round"/>
<path d="M94.07,-137.42 C92.67,-133.10 89.88,-124.86 89.74,-123.86 C89.71,-123.59 89.69,-123.20 89.69,-122.68" fill="none" stroke="rgb(0, 165, 255)" stroke-width="3.34" stroke-opacity="1.00" stroke-linejoin="round"/>
<path d="M110.30,-186.99 C110.34,-187.06 110.27,-186.49 110.03,-184.46 C109.64,-181.07 108.63,-172.02 108.52,-170.72 C108.44,-169.76 108.37,-168.80 108.29,-167.84" fill="none" stroke="rgb(0, 165, 255)" stroke-width="3.34" stroke-opacity="1.00" stroke-linejoin="round"/>
<path d="M139.70,-152.78 C139.70,-152.78 139.70,-153.00 139.70,-153.00 C139.70,-153.00 139.15,-153.00 139.15,-153.00 C137.67,-150.66 136.15,-145.68 135.60,-143.42 C135.23,-141.92 134.85,-139.87 134.67,-138.46 C134.54,-137.42 134.29,-134.35 134.15,-132.47" fill="none" stroke="rgb(0, 165, 255)" stroke-width="3.34" stroke-opacity="1.00" stroke-linejoin="round"/>
<path d="M142.77,-121.63 C142.16,-120.50 138.91,-112.27 138.44,-110.99 C137.65,-108.79 136.49,-104.48 136.17,-103.25 C136.06,-102.85 135.86,-102.16 135.57,-101.16" fill="none" stroke="rgb(0, 165, 255)" stroke-width="3.34" stroke-opacity="1.00" stroke-linejoin="round"/>
<path d="M113.81,-96.19 C113.69,-95.73 113.24,-93.59 113.03,-92.74 C112.65,-91.20 111.78,-88.46 111.21,-86.90 C111.09,-86.59 110.88,-86.04 110.57,-85.25" fill="none" stroke="rgb(0, 165, 255)" stroke-width="3.34" stroke-opacity="1.00" stroke-linejoin="round"/>
<path d="M148.91,-221.21 C147.32,-217.58 144.22,-210.31 142.71,-206.67 C141.39,-203.44 138.55,-196.50 138.49,-195.38 C138.47,-194.97 138.61,-194.29 138.90,-193.36" fill="none" stroke="rgb(0, 165, 255)" stroke-width="3.34" stroke-opacity="1.00" stroke-linejoin="round"/>
<path d="M187.08,-203.66 C186.81,-201.69 186.44,-198.97 186.09,-196.93 C185.46,-193.26 183.99,-184.40 183.83,-182.89 C183.65,-181.09 183.58,-173.79 183.57,-170.86" fill="none" stroke="rgb(0, 165, 255)" stroke-width="3.34" stroke-opacity="1.00" stroke-linejoin="round"/>
<path d="M188.39,-133.04 C188.39,-133.04 186.73,-132.91 186.73,-132.91 C186.23,-132.03 185.76,-130.37 185.58,-128.48 C185.27,-124.94 185.66,-121.81 186.20,-119.44" fill="none" stroke="rgb(0, 165, 255)" stroke-width="3.34" stroke-opacity="1.00" stroke-linejoin="round"/>
<path d="M189.71,-107.15 C189.76,-106.48 189.55,-104.77 189.16,-103.64 C188.95,-103.01 187.17,-99.34 186.93,-98.60 C186.79,-98.15 186.59,-97.28 186.34,-95.99" fill="none" stroke="rgb(0, 165, 255)" stroke-width="3.34" stroke-opacity="1.00" stroke-linejoin="round"/>
<path d="M221.73,-134.79 C220.84,-131.87 219.18,-124.71 219.10,-123.15 C219.08,-122.80 219.08,-122.09 219.10,-121.04" fill="none" stroke="rgb(0, 165, 255)" stroke-width="3.34" stroke-opacity="1.00" stroke-linejoin="round"/>
<path d="M243.67,-208.05 C243.67,-208.05 241.91,-208.05 241.91,-208.05 C241.11,-206.94 239.99,-202.60 239.22,-199.68 C238.25,-196.05 236.15,-188.24 235.92,-185.96 C235.85,-185.30 235.80,-184.11 235.77,-182.38" fill="none" stroke="rgb(0, 165, 255)" stroke-width="3.34" stroke-opacity="1.00" stroke-linejoin="round"/>
<path d="M271.74,-216.39 C271.74,-216.39 271.30,-216.26 271.30,-216.26 C270.35,-212.86 267.62,-202.99 267.34,-201.91 C266.50,-198.57 266.15,-194.89 266.20,-194.09 C266.23,-193.60 266.39,-192.82 266.66,-191.75" fill="none" stroke="rgb(0, 165, 255)" stroke-width="3.34" stroke-opacity="1.00" stroke-linejoin="round"/>
<path d="M586.17,-44.82" fill="none" stroke="rgb(0, 165, 255)" stroke-width="3.34" stroke-opacity="1.00" stroke-linejoin="round"/>
<path d="M314.52,-120.53 C314.52,-120.53 314.52,-120.90 314.52,-120.90 C313.86,-117.69 312.41,-110.62 311.62,-106.76 C310.02,-98.55 308.92,-95.80 308.48,-94.89" fill="none" stroke="rgb(0, 165, 255)" stroke-width="3.34" stroke-opacity="1.00" stroke-linejoin="round"/>
<path d="M271.17,-69.67 C270.48,-68.79 269.97,-67.97 269.64,-66.92 C268.77,-64.14 264.72,-44.44 264.56,-42.82 C264.42,-41.38 263.47,-29.26 263.08,-26.90" fill="none" stroke="rgb(0, 165, 255)" stroke-width="3.34" stroke-opacity="1.00" stroke-linejoin="round"/>
<path d="M262.50,0.84 C260.84,4.32 259.51,7.77 258.66,11.24 C258.02,13.95 257.08,22.79 257.30,23.99 C257.38,24.38 257.65,24.83 258.12,25.35" fill="none" stroke="rgb(0, 165, 255)" stroke-width="3.34" stroke-opacity="1.00" stroke-linejoin="round"/>
<path d="M312.79,-31.52 C312.79,-32.44 312.79,-33.35 312.79,-34.27 C312.79,-34.51 312.79,-34.75 312.79,-34.99 C312.67,-30.62 312.28,-25.63 312.30,-25.11 C312.33,-24.74 312.43,-23.90 312.61,-22.58" fill="none" stroke="rgb(0, 165, 255)" stroke-width="3.34" stroke-opacity="1.00" stroke-linejoin="round"/>
<path d="M372.32,-60.42 C369.96,-58.78 366.53,-55.61 364.92,-53.51 C364.07,-52.38 362.70,-49.69 362.20,-48.09 C362.03,-47.51 361.82,-46.52 361.59,-45.12" fill="none" stroke="rgb(0, 165, 255)" stroke-width="3.34" stroke-opacity="1.00" stroke-linejoin="round"/>
<path d="M327.81,214.11 C326.88,213.99 324.28,216.38 322.34,219.82 C321.37,221.59 318.45,230.82 317.35,234.33 C313.84,245.58 312.11,250.03 310.47,253.99" fill="none" stroke="rgb(0, 165, 255)" stroke-width="3.34" stroke-opacity="1.00" stroke-linejoin="round"/>
<path d="M300.07,296.76 C298.83,299.25 297.80,302.45 297.14,306.08 C294.99,319.02 294.91,322.27 295.01,324.90 C295.01,324.90 296.60,321.04 296.60,321.04" fill="none" stroke="rgb(0, 165, 255)" stroke-width="3.34" stroke-opacity="1.00" stroke-linejoin="round"/>
<path d="M239.96,289.83 C239.78,290.28 237.72,297.85 236.52,300.91 C236.02,302.17 232.03,311.58 231.29,314.42 C231.29,314.42 231.29,313.53 231.29,313.53" fill="none" stroke="rgb(0, 165, 255)" stroke-width="3.34" stroke-opacity="1.00" stroke-linejoin="round"/>
<path d="M90.84,314.10 C90.84,314.10 89.23,314.39 89.23,314.39 C88.36,316.30 87.95,318.93 87.78,323.24 C87.65,326.47 87.12,332.67 86.87,335.46 C86.76,336.65 86.91,337.20 87.38,337.80" fill="none" stroke="rgb(0, 165, 255)" stroke-width="3.34" stroke-opacity="1.00" stroke-linejoin="round"/>
<path d="M5.88,349.94 C5.88,349.94 5.02,347.05 5.02,347.05 C4.05,348.98 3.36,353.43 3.04,357.23 C2.42,365.27 1.13,382.96 1.32,384.08 C1.36,384.27 1.47,384.52 1.67,384.81" fill="none" stroke="rgb(0, 165, 255)" stroke-width="3.34" stroke-opacity="1.00" stroke-linejoin="round"/>
</g>
</svg>
