<?xml version="1.0" encoding="UTF-8" standalone="no"?>
<!DOCTYPE svg PUBLIC "-//W3C//DTD SVG 1.1//EN" "http://www.w3.org/Graphics/SVG/1.1/DTD/svg11.dtd">
<svg width="64.20" height="90.84" viewBox="0.00 0.00 535.00 757.00" xmlns="http://www.w3.org/2000/svg" xmlns:xlink="http://www.w3.org/1999/xlink">
<g stroke-linecap="round" transform="translate(44.00, 155.00)" id="18-나무-4">
<path d="M-8.27,374.39 C-8.27,374.39 -8.94,374.39 -8.94,374.39 C-8.94,374.39 -9.84,373.68 -9.84,373.68 C-9.84,373.68 -9.62,359.10 -9.62,359.10 C-9.85,359.88 -12.76,363.51 -14.82,364.50 C-16.99,365.47 -21.49,365.07 -23.77,363.58 C-26.14,361.93 -28.73,356.75 -29.37,353.81 C-29.94,351.05 -30.24,346.98 -29.93,343.84 C-29.60,340.64 -27.57,333.35 -26.03,330.38 C-24.84,328.14 -20.92,323.35 -19.25,322.04 C-17.44,320.66 -13.02,318.54 -10.66,318.03 C-8.50,317.59 -2.51,317.69 -0.69,318.60 C1.44,319.71 4.92,324.70 5.97,327.67 C7.00,330.61 7.80,335.38 7.89,339.08 C7.98,343.56 6.92,349.11 5.78,352.13 C4.65,355.02 1.26,359.66 1.23,359.97 C0.96,363.22 2.40,375.93 2.36,376.21 C2.32,376.44 2.14,376.91 1.83,377.62" fill="none" stroke="rgb(126, 255, 0)" stroke-width="3.34" stroke-opacity="1.00" stroke-linejoin="round"/>
</g>
</svg>
