<?xml version="1.0" encoding="UTF-8" standalone="no"?>
<!DOCTYPE svg PUBLIC "-//W3C//DTD SVG 1.1//EN" "http://www.w3.org/Graphics/SVG/1.1/DTD/svg11.dtd">
<svg width="64.20" height="90.84" viewBox="0.00 0.00 535.00 757.00" xmlns="http://www.w3.org/2000/svg" xmlns:xlink="http://www.w3.org/1999/xlink">
<g stroke-linecap="round" transform="translate(44.00, 155.00)" id="18-나무-3">
<path d="M29.52,424.33 C29.52,424.33 27.72,424.78 27.72,424.78 C27.72,424.78 28.61,414.22 28.61,414.22 C28.61,414.17 25.41,417.54 22.38,417.82 C20.99,417.91 17.26,414.56 15.72,411.68 C12.88,406.26 9.67,393.96 8.91,385.98 C8.57,382.19 9.28,376.70 10.09,374.04 C10.91,371.48 14.00,367.08 15.80,365.55 C18.02,363.73 23.15,362.70 26.76,363.02 C30.38,363.38 36.56,365.34 39.86,366.88 C43.07,368.42 48.20,371.99 50.01,374.38 C51.83,376.85 53.86,383.52 53.98,386.95 C54.05,390.99 51.79,398.18 49.63,401.06 C46.67,404.90 42.21,408.08 40.14,409.48 C39.86,409.77 40.67,417.26 40.71,418.13 C40.74,418.71 40.76,419.96 40.78,421.88" fill="none" stroke="rgb(126, 255, 0)" stroke-width="3.34" stroke-opacity="1.00" stroke-linejoin="round"/>
</g>
</svg>
