<?xml version="1.0" encoding="UTF-8" standalone="no"?>
<!DOCTYPE svg PUBLIC "-//W3C//DTD SVG 1.1//EN" "http://www.w3.org/Graphics/SVG/1.1/DTD/svg11.dtd">
<svg width="64.20" height="90.84" viewBox="0.00 0.00 535.00 757.00" xmlns="http://www.w3.org/2000/svg" xmlns:xlink="http://www.w3.org/1999/xlink">
<g stroke-linecap="round" transform="translate(44.00, 155.00)" id="18-나무-2">
<path d="M-2.05,453.42 C-2.05,453.42 -2.50,452.67 -2.50,452.67 C-2.50,452.67 -0.25,434.92 -0.25,434.92 C-0.67,435.97 -4.37,439.34 -6.68,440.60 C-8.84,441.71 -12.39,441.78 -14.00,440.61 C-15.66,439.33 -18.40,434.82 -19.91,430.61 C-22.20,424.11 -23.89,409.34 -23.24,404.39 C-22.79,401.21 -21.19,396.68 -19.53,394.55 C-17.93,392.57 -13.82,389.57 -11.35,388.56 C-8.60,387.49 -3.98,387.46 -1.46,388.55 C1.38,389.85 4.78,393.87 5.67,396.91 C6.18,398.81 7.21,405.15 7.23,408.92 C7.23,410.60 6.65,423.20 6.93,424.16 C7.61,424.55 8.83,424.91 9.25,425.10 C10.85,425.88 11.97,430.15 12.32,433.59 C12.40,434.48 12.96,441.68 13.07,442.35 C13.15,442.81 13.36,443.76 13.70,445.21" fill="none" stroke="rgb(126, 255, 0)" stroke-width="3.34" stroke-opacity="1.00" stroke-linejoin="round"/>
</g>
</svg>
