<?xml version="1.0" encoding="UTF-8" standalone="no"?>
<!DOCTYPE svg PUBLIC "-//W3C//DTD SVG 1.1//EN" "http://www.w3.org/Graphics/SVG/1.1/DTD/svg11.dtd">
<svg width="64.20" height="90.84" viewBox="0.00 0.00 535.00 757.00" xmlns="http://www.w3.org/2000/svg" xmlns:xlink="http://www.w3.org/1999/xlink">
<g stroke-linecap="round" transform="translate(156.00, 267.00)" id="18-우산">
<path d="M110.87,-83.37 C110.87,-83.37 110.71,-83.37 110.71,-83.37 C110.51,-83.43 109.94,-84.38 109.78,-85.42 C109.26,-88.92 110.40,-92.69 111.22,-93.66 C112.54,-93.33 113.64,-90.71 113.81,-88.77 C114.00,-86.37 113.80,-83.61 113.50,-80.84 C112.56,-81.95 108.74,-83.64 106.78,-83.38 C103.77,-82.93 86.72,-77.06 82.82,-75.36 C77.94,-73.19 66.80,-66.52 60.69,-63.21 C53.85,-59.49 42.72,-50.99 40.22,-49.34 C34.41,-45.52 29.55,-41.13 24.37,-35.13 C19.16,-29.05 13.57,-19.46 11.57,-14.43 C10.06,-10.54 9.00,-3.98 8.84,-0.44 C8.11,16.26 9.51,20.05 9.72,20.22 C10.40,19.95 15.16,16.21 17.37,14.72 C20.47,12.65 26.39,10.09 31.14,8.41 C34.76,7.15 40.00,6.85 41.00,6.68 C43.58,6.23 49.99,3.84 51.86,2.93 C55.54,1.11 60.15,-2.04 62.13,-4.01 C73.18,-15.17 79.73,-26.11 80.35,-27.20 C80.35,-27.20 80.62,-25.83 80.62,-25.83" fill="none" stroke="rgb(33, 228, 63)" stroke-width="3.34" stroke-opacity="1.00" stroke-linejoin="round"/>
<path d="M61.97,1.56 C61.97,1.56 61.00,1.88 61.00,1.88 C62.47,1.87 67.06,3.90 69.41,4.91 C73.28,6.55 76.88,7.33 80.37,7.34 C83.62,7.33 90.81,6.24 94.72,5.17 C98.31,4.17 102.75,2.41 107.24,0.18 C110.19,-1.30 112.88,-3.77 114.82,-6.86 C115.80,-8.45 125.09,-25.66 125.71,-26.70 C125.71,-26.70 125.99,-25.14 125.99,-25.14" fill="none" stroke="rgb(33, 228, 63)" stroke-width="3.34" stroke-opacity="1.00" stroke-linejoin="round"/>
<path d="M109.26,0.60 C109.26,0.60 108.62,0.28 108.62,0.28 C109.20,1.73 111.74,4.20 113.89,5.38 C116.29,6.66 121.42,7.92 124.30,7.88 C127.70,7.79 142.57,3.69 144.61,2.68 C148.12,0.91 161.26,-7.37 161.98,-7.88 C162.17,-8.01 162.40,-8.19 162.66,-8.41" fill="none" stroke="rgb(33, 228, 63)" stroke-width="3.34" stroke-opacity="1.00" stroke-linejoin="round"/>
<path d="M159.45,-5.84 C159.45,-5.84 158.81,-6.16 158.81,-6.16 C158.75,-6.28 163.33,-2.21 166.66,-0.96 C171.09,0.68 185.02,1.61 189.21,0.78 C192.41,0.11 200.29,-4.17 201.50,-4.62 C202.39,-4.92 209.34,-2.61 211.13,-2.20 C216.28,-1.07 226.62,-0.98 230.80,-1.67 C232.13,-1.90 235.33,-2.66 236.39,-3.11 C236.93,-3.34 237.77,-3.82 238.91,-4.55" fill="none" stroke="rgb(33, 228, 63)" stroke-width="3.34" stroke-opacity="1.00" stroke-linejoin="round"/>
<path d="M117.63,-78.87 C117.63,-78.87 117.63,-79.19 117.63,-79.19 C127.58,-80.77 131.70,-81.85 140.84,-82.25 C148.24,-82.56 153.77,-81.93 163.85,-79.47 C167.04,-78.69 173.02,-77.18 176.69,-75.61 C179.68,-74.30 197.30,-61.50 198.62,-60.46 C200.63,-58.89 214.42,-44.54 217.12,-40.59 C220.54,-35.55 227.50,-25.37 229.52,-21.74 C232.78,-15.79 234.11,-8.37 234.02,-7.39 C234.02,-7.39 230.55,-6.48 230.55,-6.48" fill="none" stroke="rgb(33, 228, 63)" stroke-width="3.34" stroke-opacity="1.00" stroke-linejoin="round"/>
<path d="M125.67,7.67 C125.66,8.33 127.56,35.10 130.84,59.26 C133.10,74.04 134.27,90.95 134.31,94.33 C134.35,98.15 133.95,101.79 132.97,102.69 C132.31,103.27 130.81,104.13 130.55,104.17 C130.55,104.17 129.85,102.26 129.85,102.26" fill="none" stroke="rgb(33, 228, 63)" stroke-width="3.34" stroke-opacity="1.00" stroke-linejoin="round"/>
<path d="M131.46,10.57 C131.46,18.20 131.47,33.97 131.49,42.11 C131.57,47.70 131.91,52.68 132.71,55.65 C134.64,62.68 139.09,90.82 139.13,93.43 C139.14,94.56 138.32,100.91 137.15,102.18 C136.50,102.88 134.38,103.42 132.21,103.75 C132.21,103.75 130.82,102.58 130.82,102.58" fill="none" stroke="rgb(33, 228, 63)" stroke-width="3.34" stroke-opacity="1.00" stroke-linejoin="round"/>
</g>
</svg>
