<?xml version="1.0" encoding="UTF-8" standalone="no"?>
<!DOCTYPE svg PUBLIC "-//W3C//DTD SVG 1.1//EN" "http://www.w3.org/Graphics/SVG/1.1/DTD/svg11.dtd">
<svg width="128.40" height="181.68" viewBox="0.00 0.00 535.00 757.00" xmlns="http://www.w3.org/2000/svg" xmlns:xlink="http://www.w3.org/1999/xlink">
<g stroke-linecap="round" transform="translate(44.00, 155.00)" id="180-물웅덩이-3">
<path d="M236.17,480.86 C236.17,480.86 236.42,480.86 236.42,480.86 C236.42,480.86 237.06,480.36 237.06,480.36 C237.06,480.36 237.17,480.36 237.17,480.36 C234.64,480.36 229.08,480.36 226.04,480.36 C223.85,480.39 219.44,482.49 218.67,483.76 C217.79,485.32 217.12,490.53 217.70,492.13 C218.09,493.13 219.27,494.16 220.44,494.58 C225.28,496.17 234.71,495.75 238.13,494.72 C238.13,494.72 237.17,494.42 237.17,494.42" fill="none" stroke="rgb(0, 153, 67)" stroke-width="2.11" stroke-opacity="1.00" stroke-linejoin="round"/>
<path d="M240.18,495.42 C240.18,495.42 240.68,495.67 240.68,495.67 C240.68,495.67 240.60,496.32 240.60,496.32 C240.60,496.32 235.32,496.78 235.32,496.78 C234.74,496.20 234.32,495.24 234.44,494.37 C234.60,493.49 235.75,492.32 236.88,491.96 C238.00,491.62 240.32,491.64 241.41,491.98 C242.40,492.32 243.69,493.43 244.04,494.24 C244.45,495.24 244.03,496.38 242.97,497.71 C242.97,497.71 240.12,497.95 240.12,497.95" fill="none" stroke="rgb(0, 153, 67)" stroke-width="2.11" stroke-opacity="1.00" stroke-linejoin="round"/>
<path d="M242.69,492.41 C242.69,492.41 241.69,492.91 241.69,492.91 C241.22,492.50 241.13,486.06 240.02,483.88 C239.63,483.15 239.20,482.60 238.71,482.24 C238.37,482.01 237.53,481.55 236.17,480.86" fill="none" stroke="rgb(0, 153, 67)" stroke-width="2.11" stroke-opacity="1.00" stroke-linejoin="round"/>
</g>
</svg>
