<?xml version="1.0" encoding="UTF-8" standalone="no"?>
<!DOCTYPE svg PUBLIC "-//W3C//DTD SVG 1.1//EN" "http://www.w3.org/Graphics/SVG/1.1/DTD/svg11.dtd">
<svg width="128.40" height="181.68" viewBox="0.00 0.00 535.00 757.00" xmlns="http://www.w3.org/2000/svg" xmlns:xlink="http://www.w3.org/1999/xlink">
<g stroke-linecap="round" transform="translate(44.00, 155.00)" id="180-비">
<path d="M244.20,260.02 C243.74,260.02 242.91,260.12 242.57,260.40 C241.43,261.39 241.05,268.47 241.34,269.33 C241.51,269.82 242.03,270.55 242.90,271.52" fill="none" stroke="rgb(255, 255, 0)" stroke-width="2.11" stroke-opacity="1.00" stroke-linejoin="round"/>
<path d="M254.24,296.66 C254.24,296.66 253.98,296.66 253.98,296.66 C253.70,296.96 253.81,298.86 254.37,301.35 C254.51,301.98 254.78,302.98 255.17,304.33" fill="none" stroke="rgb(255, 255, 0)" stroke-width="2.11" stroke-opacity="1.00" stroke-linejoin="round"/>
<path d="M227.63,301.18 C228.16,301.24 228.59,301.70 229.06,302.88 C229.23,303.31 230.20,305.97 230.55,306.92" fill="none" stroke="rgb(255, 255, 0)" stroke-width="2.11" stroke-opacity="1.00" stroke-linejoin="round"/>
<path d="M257.25,333.80 C257.25,333.80 256.24,333.30 256.24,333.30 C256.25,335.41 256.35,338.60 256.52,339.85 C256.69,341.09 257.31,343.15 257.75,344.34" fill="none" stroke="rgb(255, 255, 0)" stroke-width="2.11" stroke-opacity="1.00" stroke-linejoin="round"/>
<path d="M289.87,302.68 C289.87,302.68 288.45,303.44 288.45,303.44 C288.38,304.61 288.35,305.41 288.37,305.86 C288.38,306.54 288.73,309.57 288.86,310.68" fill="none" stroke="rgb(255, 255, 0)" stroke-width="2.11" stroke-opacity="1.00" stroke-linejoin="round"/>
<path d="M293.38,335.31 C293.38,335.31 292.63,335.56 292.63,335.56 C292.42,336.35 292.34,337.21 292.36,339.08 C292.37,340.58 292.38,343.61 292.38,345.14 C292.38,345.86 292.38,346.59 292.38,347.32" fill="none" stroke="rgb(255, 255, 0)" stroke-width="2.11" stroke-opacity="1.00" stroke-linejoin="round"/>
<path d="M302.92,367.43 C301.44,369.04 300.84,369.93 300.91,370.69 C300.96,371.16 301.41,374.14 301.55,374.94 C301.70,375.73 302.23,378.14 302.42,378.98" fill="none" stroke="rgb(255, 255, 0)" stroke-width="2.11" stroke-opacity="1.00" stroke-linejoin="round"/>
<path d="M329.02,349.86 C328.66,350.24 328.32,350.57 328.02,350.87 C326.95,351.93 326.44,353.18 326.64,354.36 C326.71,354.78 326.91,355.14 327.24,355.45 C327.39,355.58 327.78,355.88 328.43,356.33" fill="none" stroke="rgb(255, 255, 0)" stroke-width="2.11" stroke-opacity="1.00" stroke-linejoin="round"/>
<path d="M339.56,309.71 C338.12,312.42 337.10,315.47 337.05,317.80 C337.05,318.21 337.05,319.30 337.05,321.08" fill="none" stroke="rgb(255, 255, 0)" stroke-width="2.11" stroke-opacity="1.00" stroke-linejoin="round"/>
<path d="M313.46,269.56 C313.46,269.56 312.21,269.81 312.21,269.81 C311.82,270.02 311.32,272.46 311.56,274.14 C311.64,274.70 311.93,275.51 312.44,276.56" fill="none" stroke="rgb(255, 255, 0)" stroke-width="2.11" stroke-opacity="1.00" stroke-linejoin="round"/>
<path d="M275.82,239.95 C275.82,239.95 274.06,240.43 274.06,240.43 C273.83,241.07 273.79,241.94 274.02,243.50 C274.23,244.83 274.63,247.32 274.81,248.48" fill="none" stroke="rgb(255, 255, 0)" stroke-width="2.11" stroke-opacity="1.00" stroke-linejoin="round"/>
<path d="M351.61,249.48 C351.13,250.02 350.50,250.50 349.60,250.99 C349.46,251.06 349.29,251.15 349.10,251.24 C349.20,252.33 349.31,253.18 349.54,254.45 C349.73,255.47 349.91,256.49 350.10,257.51" fill="none" stroke="rgb(255, 255, 0)" stroke-width="2.11" stroke-opacity="1.00" stroke-linejoin="round"/>
<path d="M376.70,254.00 C374.51,256.22 373.64,257.54 373.69,260.21 C373.70,260.51 373.95,263.41 374.06,265.03 C374.11,265.66 374.15,266.29 374.19,266.92" fill="none" stroke="rgb(255, 255, 0)" stroke-width="2.11" stroke-opacity="1.00" stroke-linejoin="round"/>
<path d="M374.19,294.65 C374.19,294.65 373.69,294.65 373.69,294.65 C373.77,295.56 373.84,296.23 373.91,296.67 C374.03,297.35 374.85,301.12 375.15,302.49" fill="none" stroke="rgb(255, 255, 0)" stroke-width="2.11" stroke-opacity="1.00" stroke-linejoin="round"/>
<path d="M396.28,335.81 C396.28,335.81 395.27,333.89 395.27,333.89 C395.49,334.93 396.00,337.47 396.29,338.98 C396.59,340.54 397.08,343.22 397.28,344.34" fill="none" stroke="rgb(255, 255, 0)" stroke-width="2.11" stroke-opacity="1.00" stroke-linejoin="round"/>
<path d="M356.12,363.42 C356.10,365.38 356.10,366.64 356.12,367.19 C356.15,367.94 356.23,368.68 356.37,369.40 C356.42,369.62 356.50,369.97 356.63,370.44" fill="none" stroke="rgb(255, 255, 0)" stroke-width="2.11" stroke-opacity="1.00" stroke-linejoin="round"/>
<path d="M361.64,389.52 C361.64,389.52 361.14,388.51 361.14,388.51 C361.09,389.81 361.08,391.92 361.19,393.00 C361.30,394.07 361.79,396.48 362.14,398.02" fill="none" stroke="rgb(255, 255, 0)" stroke-width="2.11" stroke-opacity="1.00" stroke-linejoin="round"/>
<path d="M372.69,415.62 C372.69,415.62 371.18,416.87 371.18,416.87 C371.56,418.70 371.84,419.94 372.04,420.61 C372.24,421.27 372.62,422.28 373.19,423.65" fill="none" stroke="rgb(255, 255, 0)" stroke-width="2.11" stroke-opacity="1.00" stroke-linejoin="round"/>
<path d="M409.33,409.59 C409.15,409.67 408.98,409.76 408.82,409.84 C407.66,410.56 407.32,410.70 407.39,410.98 C408.02,413.82 408.25,415.26 408.29,417.06 C408.30,417.56 408.32,420.21 408.32,421.14" fill="none" stroke="rgb(255, 255, 0)" stroke-width="2.11" stroke-opacity="1.00" stroke-linejoin="round"/>
<path d="M356.12,452.25 C356.12,452.25 355.42,452.51 355.42,452.51 C355.16,453.24 355.09,454.06 355.21,455.70 C355.29,456.79 355.37,457.57 355.46,458.04 C355.54,458.49 355.76,459.40 356.12,460.79" fill="none" stroke="rgb(255, 255, 0)" stroke-width="2.11" stroke-opacity="1.00" stroke-linejoin="round"/>
<path d="M330.02,417.12 C329.22,417.81 328.72,418.23 328.52,418.38 C328.32,418.52 328.15,418.61 328.02,418.63 C328.46,419.77 329.05,422.16 329.27,423.06 C329.43,423.74 330.23,426.61 330.53,427.66" fill="none" stroke="rgb(255, 255, 0)" stroke-width="2.11" stroke-opacity="1.00" stroke-linejoin="round"/>
<path d="M303.42,444.73 C303.42,444.73 303.92,444.98 303.92,444.98 C304.29,445.88 304.79,447.66 304.90,448.78 C304.94,449.17 304.95,449.83 304.93,450.75" fill="none" stroke="rgb(255, 255, 0)" stroke-width="2.11" stroke-opacity="1.00" stroke-linejoin="round"/>
<path d="M285.35,421.64 C284.83,422.41 284.04,424.56 283.65,426.53 C283.49,427.33 283.17,430.71 283.05,431.95 C282.99,432.65 282.92,433.35 282.85,434.05" fill="none" stroke="rgb(255, 255, 0)" stroke-width="2.11" stroke-opacity="1.00" stroke-linejoin="round"/>
<path d="M274.31,397.55 C274.31,397.55 273.56,397.80 273.56,397.80 C273.33,398.16 273.29,398.61 273.53,399.56 C273.87,400.85 274.71,404.04 274.99,405.27 C275.25,406.40 275.62,408.39 275.82,409.59" fill="none" stroke="rgb(255, 255, 0)" stroke-width="2.11" stroke-opacity="1.00" stroke-linejoin="round"/>
<path d="M263.27,456.27 C263.27,456.27 262.35,456.77 262.35,456.77 C262.82,458.50 263.16,459.63 263.35,460.17 C263.53,460.71 263.84,461.42 264.27,462.29" fill="none" stroke="rgb(255, 255, 0)" stroke-width="2.11" stroke-opacity="1.00" stroke-linejoin="round"/>
<path d="M169.91,443.72 C170.15,443.39 170.32,443.14 170.42,442.97 C170.51,442.80 170.68,442.47 170.92,441.99 C171.04,443.65 171.31,447.37 171.47,449.44 C171.58,450.83 171.83,453.38 171.92,454.26" fill="none" stroke="rgb(255, 255, 0)" stroke-width="2.11" stroke-opacity="1.00" stroke-linejoin="round"/>
<path d="M145.82,437.70 C145.82,437.70 146.32,437.95 146.32,437.95 C146.52,438.63 146.63,439.09 146.68,439.33 C146.77,439.92 146.77,440.52 146.83,441.11 C146.87,441.62 146.99,442.73 147.19,444.44" fill="none" stroke="rgb(255, 255, 0)" stroke-width="2.11" stroke-opacity="1.00" stroke-linejoin="round"/>
<path d="M179.95,406.08 C179.95,406.08 178.70,406.08 178.70,406.08 C178.70,406.08 178.45,406.50 178.45,406.50 C178.92,407.84 179.80,410.34 180.19,411.49 C180.62,412.70 181.04,413.91 181.46,415.11" fill="none" stroke="rgb(255, 255, 0)" stroke-width="2.11" stroke-opacity="1.00" stroke-linejoin="round"/>
<path d="M144.82,395.54 C144.82,395.54 145.82,395.54 145.82,395.54 C146.07,396.08 146.21,396.46 146.26,396.67 C146.39,397.26 146.08,401.21 146.01,402.50 C145.95,403.64 145.86,406.87 145.82,408.09" fill="none" stroke="rgb(255, 255, 0)" stroke-width="2.11" stroke-opacity="1.00" stroke-linejoin="round"/>
<path d="M164.89,381.49 C164.97,384.97 165.15,387.27 165.35,388.39 C165.42,388.74 165.55,389.21 165.75,389.79" fill="none" stroke="rgb(255, 255, 0)" stroke-width="2.11" stroke-opacity="1.00" stroke-linejoin="round"/>
<path d="M176.94,350.37 C175.39,352.54 174.74,353.96 174.60,355.75 C174.48,357.53 174.54,359.35 174.85,360.30 C174.97,360.70 175.32,361.53 175.88,362.79" fill="none" stroke="rgb(255, 255, 0)" stroke-width="2.11" stroke-opacity="1.00" stroke-linejoin="round"/>
<path d="M142.81,348.36 C143.17,348.21 143.63,349.92 143.81,352.43 C143.84,352.81 143.84,353.50 143.81,354.48 C143.81,354.73 143.81,355.03 143.81,355.39" fill="none" stroke="rgb(255, 255, 0)" stroke-width="2.11" stroke-opacity="1.00" stroke-linejoin="round"/>
<path d="M133.27,322.26 C133.11,322.49 132.76,322.99 132.77,323.34 C132.78,323.45 132.78,324.10 132.77,325.29 C132.77,325.95 132.77,326.62 132.77,327.28" fill="none" stroke="rgb(255, 255, 0)" stroke-width="2.11" stroke-opacity="1.00" stroke-linejoin="round"/>
<path d="M182.96,311.22 C181.87,311.63 181.20,311.93 180.96,312.10 C179.90,312.85 180.19,318.05 181.37,319.29 C181.54,319.47 181.91,319.72 182.46,320.06" fill="none" stroke="rgb(255, 255, 0)" stroke-width="2.11" stroke-opacity="1.00" stroke-linejoin="round"/>
<path d="M190.99,268.55 C191.01,270.17 191.05,274.64 190.99,275.41 C190.96,275.92 190.85,276.66 190.67,277.64" fill="none" stroke="rgb(255, 255, 0)" stroke-width="2.11" stroke-opacity="1.00" stroke-linejoin="round"/>
<path d="M145.82,279.09 C145.08,280.39 144.44,286.22 144.09,289.32 C144.00,290.22 143.91,291.12 143.81,292.02" fill="none" stroke="rgb(255, 255, 0)" stroke-width="2.11" stroke-opacity="1.00" stroke-linejoin="round"/>
<path d="M196.01,236.93 C193.83,238.03 192.78,238.70 192.63,239.32 C192.26,240.93 193.55,243.83 193.86,244.46 C194.06,244.86 194.42,245.62 194.92,246.74" fill="none" stroke="rgb(255, 255, 0)" stroke-width="2.11" stroke-opacity="1.00" stroke-linejoin="round"/>
<path d="M119.22,257.01 C119.22,257.01 117.71,258.99 117.71,258.99 C118.23,260.98 118.48,262.30 118.59,263.87 C118.63,264.46 118.67,265.06 118.72,265.65" fill="none" stroke="rgb(255, 255, 0)" stroke-width="2.11" stroke-opacity="1.00" stroke-linejoin="round"/>
<path d="M97.14,286.62 C97.14,286.62 96.89,284.87 96.89,284.87 C96.43,285.55 95.83,292.39 95.76,293.94 C95.67,295.78 95.63,298.63 95.63,300.31" fill="none" stroke="rgb(255, 255, 0)" stroke-width="2.11" stroke-opacity="1.00" stroke-linejoin="round"/>
<path d="M74.05,241.95 C74.05,241.95 73.55,240.20 73.55,240.20 C73.55,240.20 72.88,240.03 72.88,240.03 C72.49,240.63 72.14,241.88 72.04,243.46 C71.94,245.10 72.09,247.16 72.42,249.08 C72.55,249.80 72.67,250.52 72.80,251.24" fill="none" stroke="rgb(255, 255, 0)" stroke-width="2.11" stroke-opacity="1.00" stroke-linejoin="round"/>
<path d="M41.93,265.54 C41.93,265.54 40.50,265.64 40.50,265.64 C40.74,266.89 41.51,269.64 41.75,270.70 C41.95,271.58 42.67,275.99 42.93,277.59" fill="none" stroke="rgb(255, 255, 0)" stroke-width="2.11" stroke-opacity="1.00" stroke-linejoin="round"/>
<path d="M64.01,306.20 C63.16,306.13 61.53,307.29 61.50,309.15 C61.50,309.88 61.91,313.23 62.10,314.10 C62.32,315.06 62.97,316.87 63.41,317.97" fill="none" stroke="rgb(255, 255, 0)" stroke-width="2.11" stroke-opacity="1.00" stroke-linejoin="round"/>
<path d="M72.54,338.82 C71.87,342.73 71.53,345.72 71.66,346.60 C71.73,347.01 71.97,347.53 72.40,348.17" fill="none" stroke="rgb(255, 255, 0)" stroke-width="2.11" stroke-opacity="1.00" stroke-linejoin="round"/>
<path d="M102.66,331.80 C101.62,333.33 100.96,335.22 101.29,336.94 C101.40,337.53 101.76,338.78 102.39,340.71" fill="none" stroke="rgb(255, 255, 0)" stroke-width="2.11" stroke-opacity="1.00" stroke-linejoin="round"/>
<path d="M102.66,358.40 C102.22,359.97 102.00,362.58 102.28,364.48 C102.36,365.01 102.56,365.79 102.89,366.81" fill="none" stroke="rgb(255, 255, 0)" stroke-width="2.11" stroke-opacity="1.00" stroke-linejoin="round"/>
<path d="M117.21,388.01 C117.16,388.09 117.07,388.17 116.96,388.26 C116.53,388.66 116.28,388.99 116.21,389.26 C116.10,389.72 116.10,390.57 116.21,391.81 C116.25,392.24 116.36,393.08 116.54,394.34" fill="none" stroke="rgb(255, 255, 0)" stroke-width="2.11" stroke-opacity="1.00" stroke-linejoin="round"/>
<path d="M61.50,375.96 C60.31,378.19 59.82,380.75 60.08,381.86 C60.17,382.26 60.47,383.26 60.96,384.88" fill="none" stroke="rgb(255, 255, 0)" stroke-width="2.11" stroke-opacity="1.00" stroke-linejoin="round"/>
<path d="M35.40,350.87 C35.83,351.61 35.98,352.40 35.95,354.09 C35.89,357.42 35.90,360.06 35.90,360.92" fill="none" stroke="rgb(255, 255, 0)" stroke-width="2.11" stroke-opacity="1.00" stroke-linejoin="round"/>
<path d="M46.44,409.59 C44.97,412.88 44.95,416.79 45.14,417.45 C45.26,417.86 45.64,418.67 46.26,419.89" fill="none" stroke="rgb(255, 255, 0)" stroke-width="2.11" stroke-opacity="1.00" stroke-linejoin="round"/>
<path d="M83.58,413.11 C82.09,414.40 81.50,415.67 81.84,417.40 C81.95,417.94 82.66,420.52 83.02,421.87" fill="none" stroke="rgb(255, 255, 0)" stroke-width="2.11" stroke-opacity="1.00" stroke-linejoin="round"/>
<path d="M62.50,443.72 C61.89,448.07 62.29,450.99 62.46,451.63 C62.57,452.01 62.85,452.90 63.32,454.31" fill="none" stroke="rgb(255, 255, 0)" stroke-width="2.11" stroke-opacity="1.00" stroke-linejoin="round"/>
<path d="M103.66,440.71 C103.05,442.13 102.66,443.54 102.66,444.92 C102.67,446.61 103.24,450.34 103.74,452.00 C103.97,452.71 104.29,453.53 104.73,454.46 C104.84,454.68 104.98,454.95 105.17,455.27" fill="none" stroke="rgb(255, 255, 0)" stroke-width="2.11" stroke-opacity="1.00" stroke-linejoin="round"/>
</g>
</svg>
