<?xml version="1.0" encoding="UTF-8" standalone="no"?>
<!DOCTYPE svg PUBLIC "-//W3C//DTD SVG 1.1//EN" "http://www.w3.org/Graphics/SVG/1.1/DTD/svg11.dtd">
<svg width="128.40" height="181.68" viewBox="0.00 0.00 535.00 757.00" xmlns="http://www.w3.org/2000/svg" xmlns:xlink="http://www.w3.org/1999/xlink">
<g stroke-linecap="round" transform="translate(44.00, 155.00)" id="180-구름-3">
<path d="M86.09,139.06 C86.09,139.06 85.42,138.88 85.42,138.88 C83.81,135.73 82.41,131.35 81.39,128.82 C80.30,126.18 77.17,121.11 74.85,119.88 C73.32,119.12 59.55,118.96 55.37,119.96 C53.09,120.55 50.57,121.63 49.31,122.73 C47.65,124.20 42.20,131.33 40.44,133.34 C39.63,130.87 37.81,127.32 36.09,125.32 C34.43,123.43 31.41,121.05 29.21,119.90 C28.11,119.36 25.30,118.77 23.81,118.88 C20.92,119.16 16.30,123.01 13.56,126.66 C12.98,127.44 12.39,128.22 11.81,129.00 C4.47,128.53 -1.28,129.27 -2.46,129.80 C-3.56,130.31 -5.53,133.46 -6.26,134.54" fill="none" stroke="rgb(255, 0, 255)" stroke-width="2.11" stroke-opacity="1.00" stroke-linejoin="round"/>
<path d="M85.09,139.56 C85.09,139.56 84.84,139.56 84.84,139.56 C84.84,139.56 84.09,138.58 84.09,138.58 C84.92,136.61 87.95,133.96 90.39,132.55 C93.09,131.03 98.65,128.94 101.91,128.22 C103.48,127.91 106.86,127.73 108.10,128.05 C111.36,128.97 117.64,139.90 118.22,142.51 C119.06,140.83 122.99,137.12 125.90,136.01 C129.07,134.86 135.82,134.59 139.97,135.34 C142.30,135.77 150.44,137.68 151.83,138.11 C156.33,139.53 160.76,141.87 163.37,144.03 C164.35,144.87 165.83,146.34 166.38,147.06 C167.12,148.04 169.65,152.32 170.42,153.62" fill="none" stroke="rgb(255, 0, 255)" stroke-width="2.11" stroke-opacity="1.00" stroke-linejoin="round"/>
<path d="M174.93,155.62 C174.93,155.62 171.42,156.39 171.42,156.39 C172.34,156.92 173.25,157.06 174.43,156.70 C175.15,156.48 182.57,154.27 187.22,153.43 C192.26,152.56 197.15,152.69 198.20,153.70 C199.85,155.37 204.01,162.85 204.45,163.71 C206.29,167.30 207.65,170.97 207.35,172.82 C207.04,174.54 204.45,179.59 204.42,180.92 C206.00,182.59 208.87,187.61 209.51,190.90 C209.95,193.28 209.99,199.53 209.52,202.21 C208.46,207.94 203.67,216.06 202.55,217.00 C199.72,219.26 193.41,220.08 192.34,220.60 C191.91,221.76 190.42,227.33 189.46,229.19 C189.36,229.38 187.60,232.14 187.02,232.57 C185.78,233.46 183.10,234.65 182.12,234.73 C168.72,235.55 157.89,231.94 155.89,231.14 C155.77,231.18 152.05,234.42 149.53,236.01 C147.66,237.18 142.99,239.51 140.23,239.92 C138.66,240.14 130.11,238.38 128.29,237.77 C126.68,237.21 123.08,235.45 122.08,234.62 C121.24,233.91 118.73,231.27 118.35,231.13 C115.69,230.19 114.61,230.51 111.51,232.47 C107.64,234.93 103.75,237.24 102.20,237.85 C99.34,238.92 95.94,239.14 91.45,237.52 C82.89,234.47 75.00,230.63 70.90,227.40 C68.72,225.65 66.41,223.15 65.51,221.98 C65.37,222.05 62.98,223.71 57.94,226.83 C54.47,228.95 49.61,231.19 46.16,232.19 C40.66,233.74 28.89,233.99 23.65,232.81 C20.75,232.10 18.52,230.33 17.33,228.90 C14.60,231.87 9.04,235.94 7.05,237.03 C2.59,239.45 -6.69,242.34 -11.28,242.45 C-11.61,242.45 -11.95,242.45 -12.28,242.45" fill="none" stroke="rgb(255, 0, 255)" stroke-width="2.11" stroke-opacity="1.00" stroke-linejoin="round"/>
<path d="M-5.25,137.05 C-5.25,137.05 -5.25,134.54 -5.25,134.54 C-5.25,134.54 -10.04,135.60 -10.04,135.60 C-10.51,136.19 6.94,136.62 10.99,136.35 C11.40,136.32 12.29,136.24 13.66,136.11 C13.66,136.11 -3.84,135.04 -3.84,135.04 C0.14,136.03 11.34,136.63 22.92,136.84 C47.57,137.11 54.19,136.76 55.13,136.71 C55.13,136.71 1.89,133.34 1.89,133.34 C7.31,134.20 15.28,134.83 24.50,134.97 C33.17,134.84 39.94,134.38 42.50,133.79 C42.50,133.79 8.18,132.10 8.18,132.10 C8.18,132.10 30.34,132.40 30.34,132.40 C30.34,132.40 16.95,128.55 16.95,128.55 C16.86,128.43 23.39,128.69 25.50,128.68 C28.72,128.65 33.82,127.97 35.42,126.92 C35.42,126.92 34.94,125.93 34.94,125.93 C31.49,124.93 28.20,124.77 24.91,125.10 C22.89,125.31 21.92,125.56 21.43,125.91 C23.51,126.96 26.28,126.60 26.99,125.80 C26.16,124.43 25.40,123.64 24.31,123.52 C22.50,123.31 20.76,123.48 20.39,123.82 C21.22,124.60 22.12,124.90 23.29,124.63 C24.22,124.41 24.98,123.98 25.49,123.49 C22.35,122.66 19.36,124.08 17.51,125.18 C17.51,125.18 24.37,131.18 24.37,131.18" fill="none" stroke="rgb(255, 0, 255)" stroke-width="2.11" stroke-opacity="1.00" stroke-linejoin="round"/>
<path d="M57.49,132.03 C57.49,132.03 56.28,129.09 56.28,129.09 C56.28,129.09 55.70,131.33 55.70,131.33 C56.96,132.75 62.15,132.99 64.70,132.55 C65.26,132.44 68.19,131.63 68.89,131.27 C70.92,130.20 71.93,128.82 71.96,127.40 C70.50,126.17 69.46,125.57 68.24,125.40 C66.14,125.11 60.65,125.51 57.83,126.21 C56.22,126.62 54.68,127.38 52.10,128.94 C52.10,128.94 51.54,131.12 51.54,131.12 C53.21,132.25 56.74,133.05 60.18,132.89 C63.13,132.72 70.67,131.24 72.40,130.71 C77.49,129.09 78.69,127.60 79.46,125.66 C77.17,124.11 75.43,123.38 73.01,123.17 C68.83,122.81 62.79,123.05 58.02,123.69 C53.78,124.28 46.95,126.44 46.22,127.31 C46.02,127.56 45.75,128.18 45.39,129.16 C47.64,130.12 49.20,130.52 51.05,130.47 C54.31,130.35 59.84,129.28 62.65,128.33 C66.03,127.14 67.78,125.72 68.01,124.94 C66.67,123.98 59.38,123.86 56.01,124.81 C54.14,125.35 52.89,126.25 52.30,127.21 C53.38,128.23 54.37,128.75 55.88,128.92 C58.70,129.21 64.98,128.68 68.48,127.93 C72.65,127.00 75.21,125.49 75.90,124.54 C74.18,123.70 69.43,124.57 66.89,125.51 C65.52,126.03 63.29,127.10 62.00,127.86 C60.75,128.61 59.69,129.86 58.12,132.22 C58.91,134.47 59.77,135.57 61.42,136.02 C64.78,136.91 70.33,137.03 74.67,136.73 C76.09,136.62 77.16,136.22 78.41,135.50 C76.77,134.41 71.50,133.81 67.79,133.70 C60.03,133.51 51.64,134.52 48.76,135.74 C48.76,135.74 49.15,137.17 49.15,137.17 C51.56,138.23 55.86,139.23 61.19,139.59 C78.45,140.69 84.45,138.22 85.66,137.39 C81.00,136.17 68.53,136.31 56.60,136.83 C48.98,137.23 35.16,138.02 27.55,138.88 C16.32,140.22 9.47,141.26 4.61,142.92 C4.61,142.92 4.98,145.33 4.98,145.33 C10.08,147.16 23.54,148.03 32.05,147.94 C38.96,147.74 54.52,146.75 61.13,145.80 C70.74,144.34 72.25,143.64 74.59,142.32 C70.19,140.70 62.40,140.06 52.75,139.74 C44.93,139.63 29.83,139.86 22.00,140.05 C14.26,140.44 -3.68,141.54 -9.51,142.19 C-19.28,143.33 -22.40,144.43 -23.36,145.08 C-22.30,146.82 -20.90,147.84 -18.46,148.51 C-13.86,149.76 -2.69,150.80 4.76,150.84 C15.92,150.79 33.18,148.44 39.53,147.21 C43.08,146.50 45.64,145.53 48.33,144.08 C45.67,142.72 37.72,142.07 34.72,141.92 C20.94,141.26 -10.27,143.40 -19.43,145.42 C-19.43,145.42 -19.52,146.59 -19.52,146.59 C-13.73,147.52 0.61,147.23 6.97,146.55 C25.76,144.53 33.28,141.85 35.28,140.98 C35.28,140.98 35.44,139.23 35.44,139.23 C31.80,137.83 15.79,137.09 9.33,137.47 C5.03,137.73 -12.08,139.83 -16.15,141.33 C-14.41,142.46 -8.83,142.91 -5.43,142.98 C11.59,143.19 27.31,141.51 28.54,140.71 C23.62,138.90 6.87,137.61 -1.91,138.22 C-5.75,138.50 -8.88,139.08 -12.31,140.51 C-12.31,140.51 -13.03,143.82 -13.03,143.82 C-10.45,146.05 -4.23,148.39 -2.49,148.92 C1.41,150.08 18.11,151.93 22.59,152.14 C32.68,152.59 63.32,151.41 75.76,150.25 C91.50,148.50 106.39,145.35 109.14,143.91 C107.29,142.39 106.10,141.74 104.56,141.64 C96.06,141.08 83.47,141.22 78.65,141.43 C65.96,142.24 36.23,145.90 22.21,148.53 C14.03,150.25 -0.99,154.10 -5.30,155.60 C-9.21,156.99 -11.12,158.10 -13.12,159.51 C-10.83,161.55 -9.62,162.23 -7.72,162.32 C4.40,162.85 31.88,161.43 47.48,159.81 C79.23,156.03 121.60,150.84 124.78,150.10 C122.37,148.94 117.56,148.72 115.22,148.66 C107.32,148.48 72.15,150.40 57.75,151.56 C42.72,153.00 2.00,158.07 -3.46,159.00 C-8.50,159.93 -20.12,162.32 -25.16,164.20 C-23.37,166.15 -22.23,166.84 -20.06,167.02 C-8.01,167.96 21.10,167.71 35.94,167.15 C51.26,166.21 81.92,164.01 97.26,162.75 C119.25,160.63 126.15,158.88 128.67,158.09 C126.76,156.70 125.56,156.18 123.67,156.06 C117.34,155.58 102.36,155.57 95.24,155.80 C78.21,156.78 52.71,159.34 37.55,161.33 C30.46,162.42 16.35,164.77 9.34,166.02 C-12.39,170.40 -17.53,173.63 -19.39,175.16 C-18.73,176.40 -18.03,177.03 -16.67,177.36 C-11.69,178.52 3.85,178.81 11.58,178.58 C21.70,178.17 51.73,175.87 69.60,174.05 C125.34,167.76 144.66,164.48 147.24,163.36 C145.65,162.31 133.28,161.83 124.53,162.12 C108.35,162.85 78.26,165.10 64.29,166.37 C50.44,167.87 25.21,171.11 7.47,174.11 C-2.51,176.05 -16.18,179.49 -19.25,180.60 C-20.92,181.21 -21.68,181.90 -22.36,183.15 C-18.97,184.50 -13.23,184.97 -9.61,184.99 C3.77,184.94 35.02,182.29 50.73,180.84 C66.28,179.09 98.25,175.17 114.67,173.00 C137.36,169.69 147.73,167.54 151.15,166.31 C148.66,165.28 144.86,164.57 141.12,164.48 C135.01,164.36 95.85,166.74 78.78,168.60 C64.78,170.45 37.19,174.45 22.76,177.11 C0.97,181.42 -11.97,184.94 -18.13,187.10 C-19.79,187.68 -20.65,188.48 -21.28,189.77 C-17.76,191.19 -10.81,191.56 -7.06,191.49 C4.31,191.11 37.89,187.87 53.55,185.95 C95.23,180.55 126.04,175.78 140.63,173.45 C147.56,172.19 156.90,170.07 159.67,168.72 C157.76,167.72 152.67,167.35 149.23,167.35 C135.01,167.50 103.94,170.36 88.32,172.14 C73.85,174.08 39.57,179.46 28.16,181.60 C20.35,183.19 5.32,186.33 -1.90,187.89 C-10.29,189.86 -23.23,194.01 -25.95,195.83 C-25.95,195.83 -26.08,197.45 -26.08,197.45 C-22.33,198.55 -12.98,198.66 -4.17,198.27 C3.40,197.82 36.86,194.15 51.70,192.36 C84.18,187.90 132.37,180.98 148.08,178.52 C155.38,177.18 168.24,174.79 172.28,173.18 C171.64,172.30 170.90,171.84 169.39,171.71 C166.02,171.43 150.36,171.62 141.35,172.15 C126.44,173.48 96.29,176.54 82.02,178.37 C67.97,180.33 37.67,185.37 23.30,188.21 C5.66,192.10 -10.82,196.72 -16.13,198.65 C-19.77,200.00 -20.71,200.87 -21.26,202.12 C-17.65,203.23 -10.50,203.29 -6.67,203.13 C4.39,202.53 31.72,199.72 53.76,196.60 C86.24,191.74 141.71,183.11 146.66,182.06 C149.03,181.52 153.85,180.39 154.44,179.13 C150.90,178.34 141.17,178.39 132.02,178.90 C118.98,179.93 87.58,184.19 72.19,186.69 C56.87,189.46 27.98,195.43 13.35,199.03 C5.89,201.02 -11.35,205.78 -16.25,207.61 C-20.78,209.36 -26.00,211.69 -26.63,212.51 C-26.86,212.81 -27.16,213.54 -27.55,214.69 C-25.02,215.82 -23.19,216.35 -20.87,216.42 C-12.49,216.67 14.11,213.88 33.39,211.13 C49.33,208.67 80.81,203.67 96.34,201.13 C109.56,198.60 139.99,192.31 144.64,190.18 C144.64,190.18 145.03,189.00 145.03,189.00 C139.58,187.97 115.54,189.56 97.17,191.76 C85.36,193.33 49.99,199.69 34.26,202.70 C25.45,204.60 11.29,208.05 4.78,209.72 C-3.85,212.18 -18.75,216.86 -22.90,219.07 C-22.90,219.07 -20.98,221.29 -20.98,221.29 C-12.70,221.71 9.14,218.92 33.87,214.71 C78.25,206.73 97.56,202.41 101.03,201.21 C99.88,200.01 99.00,199.62 97.01,199.70 C86.91,199.89 55.24,204.01 38.77,207.03 C30.90,208.60 13.57,212.19 9.29,213.31 C-1.49,216.31 -7.64,218.49 -11.21,219.79 C-13.07,220.41 -13.80,221.41 -14.50,223.80 C-8.93,224.90 4.45,224.59 14.47,223.64 C27.95,222.14 60.69,216.18 68.85,214.03 C79.23,211.09 82.22,209.78 83.08,209.33 C83.08,209.33 82.00,207.45 82.00,207.45 C72.67,206.91 48.66,210.30 32.41,213.89 C15.53,218.01 -1.90,223.72 -9.25,226.96 C-10.87,227.67 -11.50,228.71 -11.78,230.74 C-7.39,231.57 4.84,230.31 10.43,229.15 C17.45,227.56 29.92,224.63 37.88,221.99 C40.10,221.21 42.37,219.31 43.47,218.45 C40.15,217.76 37.37,217.54 34.32,217.92 C27.35,218.88 16.90,221.40 10.29,223.43 C2.70,225.86 -5.38,229.21 -7.75,230.38 C-10.36,231.67 -11.36,232.84 -11.40,234.38 C-7.21,235.06 4.82,232.57 15.04,229.75 C21.90,227.75 32.30,224.00 34.10,222.75 C32.54,221.89 27.24,222.62 23.32,223.41 C18.07,224.50 4.42,228.56 -2.55,230.81 C-8.46,232.77 -12.75,235.45 -13.64,236.01 C-12.55,236.66 -11.57,236.88 -9.91,236.67 C-4.42,235.95 11.23,231.09 12.26,230.19 C8.51,230.14 -4.23,234.45 -9.74,237.16 C-12.31,238.43 -16.30,240.83 -17.15,242.37 C-13.64,242.75 0.25,238.32 5.69,235.38 C6.94,234.70 7.89,233.93 9.18,232.67 C5.30,232.92 2.00,234.67 -0.27,236.02 C-3.07,237.72 -4.37,239.28 -4.49,240.04 C-4.49,240.04 7.80,236.43 7.80,236.43" fill="none" stroke="rgb(255, 0, 255)" stroke-width="2.11" stroke-opacity="1.00" stroke-linejoin="round"/>
<path d="M21.85,203.81 C18.01,202.07 12.92,200.76 10.18,200.80 C3.42,200.97 -21.27,206.65 -23.41,207.80 C-17.07,208.49 0.73,206.52 6.82,205.38 C10.61,204.66 25.13,201.36 34.84,198.48 C43.72,195.72 51.48,192.23 54.35,189.92 C52.13,187.70 50.96,186.98 49.10,186.95 C40.48,186.57 26.33,187.59 22.35,188.11 C18.97,188.55 4.15,191.03 -2.74,192.63 C-20.98,197.15 -31.49,200.92 -32.98,202.26 C-32.10,203.21 -26.05,203.60 -21.59,203.38 C-16.48,203.10 -5.49,201.83 3.43,200.43 C18.65,197.63 45.06,191.76 59.34,188.13 C66.56,186.14 81.67,181.52 85.68,179.88 C90.62,177.81 92.33,176.45 94.28,174.48 C94.28,174.48 93.66,172.40 93.66,172.40 C91.36,171.23 87.57,170.34 82.62,170.01 C78.08,169.74 63.32,170.54 55.66,171.29 C39.81,173.15 12.93,177.72 -2.56,180.48 C-27.00,185.34 -38.94,188.17 -40.89,189.13 C-38.15,189.68 -26.01,188.75 -16.93,187.65 C-2.46,185.51 27.02,180.87 41.91,178.16 C64.54,173.51 79.48,169.69 82.96,167.13 C81.86,165.76 77.24,164.80 74.78,164.60 C71.06,164.31 51.12,164.61 47.73,164.87 C32.50,166.30 -1.38,170.30 -15.22,172.36 C-25.75,174.10 -28.35,174.82 -30.22,175.45 C-24.90,176.18 -12.88,175.37 -5.76,174.88 C-0.18,174.40 39.22,168.94 55.56,166.60 C81.05,162.47 84.41,161.24 86.89,160.10 C86.89,160.10 86.58,158.88 86.58,158.88 C82.66,157.57 77.14,157.01 73.72,156.91 C64.58,156.71 56.92,156.74 47.14,157.36 C32.66,158.48 0.27,161.89 -14.41,163.97 C-22.81,165.35 -35.04,167.62 -36.83,168.13 C-36.83,168.13 -36.25,169.34 -36.25,169.34 C-34.11,169.41 -20.36,168.36 -10.04,167.04 C6.18,164.59 38.81,158.74 50.34,156.18 C57.24,154.47 71.34,150.92 75.18,148.76 C75.18,148.76 73.96,146.00 73.96,146.00 C71.69,145.55 55.14,144.84 46.31,145.44 C38.37,146.07 22.00,147.59 13.78,148.65 C-2.99,151.18 -23.67,155.46 -27.38,156.54 C-27.38,156.54 -27.38,157.76 -27.38,157.76 C-21.09,157.90 -9.38,156.51 1.75,154.44 C11.43,152.43 24.73,149.18 30.29,147.35 C39.75,144.23 42.40,142.44 43.81,141.24 C42.41,139.66 40.89,138.94 38.30,138.78 C31.54,138.41 20.43,138.97 13.67,139.91 C9.58,140.49 -2.24,142.78 -5.98,144.11 C-1.85,145.40 18.28,137.70 21.30,135.84 C21.30,135.84 21.61,134.64 21.61,134.64 C21.61,134.64 3.29,134.71 3.29,134.71 C3.29,134.71 5.97,130.70 5.97,130.70 C5.97,130.70 0.52,132.44 0.52,132.44 C0.52,132.44 4.54,131.89 4.54,131.89 C2.31,130.79 -5.54,131.86 -7.12,132.46 C-3.00,133.33 -0.81,132.53 -0.56,132.25 C-2.16,132.04 -4.86,132.04 -6.09,132.42 C-7.68,132.93 -9.91,135.78 -11.46,138.11 C-11.46,138.11 -10.47,139.50 -10.47,139.50" fill="none" stroke="rgb(255, 0, 255)" stroke-width="2.11" stroke-opacity="1.00" stroke-linejoin="round"/>
<path d="M106.17,145.08 C109.54,141.51 109.56,140.20 109.31,139.14 C107.67,137.91 102.34,137.53 99.03,137.81 C92.39,138.41 84.17,140.39 81.58,141.18 C84.34,142.06 100.87,141.19 108.81,140.69 C110.25,140.58 111.77,140.31 114.52,139.75 C112.21,138.19 110.58,137.48 108.38,137.28 C100.55,136.55 91.93,136.72 88.72,137.21 C89.16,137.84 93.59,138.27 96.86,138.27 C106.16,138.25 110.88,136.42 112.03,135.56 C112.03,135.56 111.98,134.37 111.98,134.37 C109.60,133.00 106.03,132.36 103.63,132.28 C100.48,132.21 96.62,132.90 95.10,133.39 C96.92,134.55 98.16,135.02 99.79,135.00 C107.34,134.90 109.62,134.20 110.14,133.77 C108.69,131.63 100.64,132.51 99.66,132.62 C99.94,132.99 106.51,131.74 107.61,131.18 C107.82,131.07 108.03,130.88 108.26,130.62 C108.26,130.62 96.53,133.28 96.53,133.28 C96.53,133.28 97.01,136.45 97.01,136.45" fill="none" stroke="rgb(255, 0, 255)" stroke-width="2.11" stroke-opacity="1.00" stroke-linejoin="round"/>
<path d="M90.11,138.06 C87.70,138.03 84.43,137.48 83.27,137.56 C81.95,137.64 80.35,138.56 80.17,138.99 C80.17,138.99 84.88,135.46 84.88,135.46 C84.91,134.76 84.33,133.54 83.20,132.81 C79.86,130.66 75.43,130.62 74.95,130.93 C75.66,133.30 79.43,134.36 80.02,134.17 C80.59,132.54 80.48,131.39 79.40,130.38 C77.68,128.81 73.95,127.39 72.13,127.57 C72.72,128.86 73.74,129.61 75.26,129.63 C76.33,129.63 77.66,128.99 77.92,128.34 C78.15,127.61 77.68,125.71 77.02,124.81 C75.63,123.02 70.24,120.80 67.49,120.28 C65.30,119.88 62.75,119.81 61.15,120.00 C59.70,121.50 53.60,124.04 51.64,126.10 C50.45,127.39 49.29,132.84 49.12,134.11 C49.12,134.11 44.06,131.53 44.06,131.53 C43.45,131.79 43.16,133.87 43.65,135.84 C43.84,136.54 46.93,141.11 47.77,142.35" fill="none" stroke="rgb(255, 0, 255)" stroke-width="2.11" stroke-opacity="1.00" stroke-linejoin="round"/>
<path d="M116.71,149.60 C116.71,149.60 112.74,145.33 112.74,145.33 C112.74,145.33 138.50,148.78 138.50,148.78 C135.11,147.19 131.99,146.07 127.13,145.18 C117.89,143.62 107.29,142.40 98.48,141.86 C81.08,140.92 69.76,142.11 68.35,142.97 C71.16,144.70 73.27,145.72 76.45,146.24 C83.65,147.36 93.35,148.16 102.65,148.40 C109.59,148.45 124.10,148.37 132.17,148.06 C140.26,147.53 155.93,146.44 158.66,145.21 C157.54,144.06 156.04,143.37 153.50,142.97 C149.32,142.32 134.08,141.70 128.38,141.75 C120.76,141.99 104.76,142.69 96.61,143.32 C85.74,144.39 72.69,146.28 67.02,147.72 C63.20,148.73 61.32,149.76 59.33,151.11 C59.93,153.62 61.27,154.90 64.27,155.53 C69.23,156.56 83.44,157.31 90.98,157.29 C108.29,156.94 142.98,154.32 148.86,153.43 C159.98,151.62 162.24,151.17 165.50,150.37 C166.98,150.01 168.15,149.27 169.91,147.68 C167.14,146.23 165.42,145.51 163.73,145.26 C159.90,144.69 142.00,143.53 135.07,143.30 C126.89,143.11 114.46,143.24 111.65,144.23 C111.04,144.46 110.42,144.69 109.81,144.92 C110.95,146.84 112.00,147.90 113.94,148.81 C117.85,150.61 124.13,152.50 127.73,153.18 C149.25,157.15 156.94,154.38 158.42,153.43 C157.63,151.78 156.91,150.78 155.72,149.90 C153.35,148.19 147.80,145.34 143.53,143.83 C139.98,142.60 133.89,141.35 131.01,141.13 C129.19,141.01 128.13,141.39 126.92,142.44 C128.63,144.54 130.22,145.94 132.21,146.87 C134.49,147.94 140.97,150.31 143.74,150.90 C150.24,152.16 154.71,152.80 157.75,152.73 C159.56,152.68 160.47,152.22 161.40,151.04 C160.17,148.24 156.57,145.01 154.12,143.55 C148.55,140.29 140.18,139.25 137.64,139.52 C136.03,139.71 134.77,140.37 132.85,141.90 C132.75,144.36 133.05,145.88 134.12,147.00 C136.06,148.98 141.10,151.70 143.22,152.49 C147.36,153.98 153.79,155.01 155.72,154.79 C158.23,154.46 160.50,153.00 160.81,151.43 C161.04,149.99 158.33,145.70 154.92,143.08 C152.01,140.89 143.52,137.24 139.37,136.27 C134.83,135.22 126.29,135.22 124.73,136.17 C124.23,136.48 122.88,138.49 122.22,139.43 C122.52,141.10 123.26,142.86 124.45,144.08 C126.51,146.16 131.77,149.02 133.77,149.85 C138.56,151.79 149.98,153.88 155.04,153.43 C156.74,153.26 158.23,152.85 160.13,152.07 C161.63,151.39 162.88,149.63 162.82,148.14 C162.72,146.74 158.80,143.47 156.05,142.22 C152.00,140.35 142.14,137.66 136.02,137.09 C132.91,136.82 126.78,137.75 124.41,139.42 C123.19,140.34 121.99,142.55 121.99,143.95 C122.10,146.61 126.38,151.11 128.88,152.57 C131.12,153.83 137.17,156.00 140.45,156.71 C147.01,158.09 160.65,158.22 165.54,157.23 C167.74,156.77 168.91,155.71 169.75,153.66 C167.94,151.37 166.66,150.15 165.05,149.45 C159.08,146.91 149.29,146.76 146.65,147.34 C145.10,147.76 143.32,149.38 143.38,150.85 C143.48,152.21 145.62,155.20 146.97,156.17 C151.28,159.12 161.18,162.79 167.82,163.80 C170.10,164.13 174.19,164.33 176.60,163.64 C176.60,163.64 176.89,162.58 176.89,162.58 C172.74,158.48 165.85,158.66 165.06,158.96 C166.09,160.15 170.47,161.81 173.93,162.72 C177.74,163.70 184.60,164.85 187.84,165.09 C192.03,165.36 194.14,164.56 194.60,163.64 C192.72,161.72 188.88,160.32 186.70,159.90 C180.37,158.72 176.80,160.03 176.19,160.78 C177.92,162.24 182.41,163.15 185.41,163.41 C189.48,163.71 192.62,162.79 193.82,161.90 C193.82,161.90 193.76,160.19 193.76,160.19 C191.76,158.56 190.38,157.69 188.92,157.32 C183.59,156.01 176.04,157.87 173.80,158.94 C172.37,159.64 171.81,160.70 171.54,162.80 C173.96,164.32 178.29,165.51 182.79,165.42 C186.48,165.31 192.44,163.87 193.29,162.96 C193.52,162.70 193.97,162.04 194.63,160.97 C194.38,159.36 193.01,157.80 190.75,156.84 C189.04,156.13 183.25,156.03 180.12,156.64 C176.73,157.36 174.78,158.52 172.44,160.26 C172.44,160.26 172.68,162.59 172.68,162.59 C175.45,163.86 180.52,164.59 184.98,164.20 C189.47,163.75 192.33,162.58 195.46,160.60 C195.46,160.60 195.59,158.26 195.59,158.26 C193.01,156.65 191.25,155.90 189.13,155.70 C181.15,154.97 174.45,156.55 164.39,159.64" fill="none" stroke="rgb(255, 0, 255)" stroke-width="2.11" stroke-opacity="1.00" stroke-linejoin="round"/>
<path d="M169.41,160.64 C169.41,160.64 167.40,160.64 167.40,160.64 C168.07,160.58 169.29,160.10 170.24,159.43 C170.99,158.87 170.85,152.87 170.10,150.35 C169.54,148.63 168.15,146.54 166.78,145.52 C166.19,145.10 162.98,144.60 162.46,144.58 C161.22,144.57 156.05,145.22 154.48,145.42" fill="none" stroke="rgb(255, 0, 255)" stroke-width="2.11" stroke-opacity="1.00" stroke-linejoin="round"/>
<path d="M171.42,159.14 C171.56,158.03 171.93,154.97 171.92,154.37 C171.92,153.98 171.83,153.34 171.67,152.45 C170.84,151.78 169.36,151.55 167.59,152.11 C163.52,153.46 161.59,156.35 161.21,157.84 C161.69,159.10 162.65,160.11 164.29,160.72 C165.82,161.27 169.39,161.80 170.83,161.63 C172.62,161.41 173.86,160.29 174.50,158.77 C173.82,156.76 173.13,155.67 171.76,154.72 C169.41,153.12 165.09,151.72 162.07,151.63 C160.22,151.59 158.38,151.70 157.10,151.92 C155.90,152.14 154.75,152.83 152.98,154.27 C153.35,156.08 153.96,157.05 155.38,157.66 C159.93,159.59 168.29,160.58 171.32,160.41 C166.45,158.76 155.02,158.72 145.89,159.48 C135.15,160.54 128.86,161.45 121.04,163.08 C113.51,164.76 109.62,166.96 108.62,167.57 C108.62,167.57 109.51,171.28 109.51,171.28 C112.61,172.91 126.76,175.08 133.77,175.16 C148.82,175.28 169.78,171.96 174.38,170.71 C176.89,170.01 181.70,168.03 183.51,166.12 C181.90,163.52 179.67,161.98 176.34,161.33 C170.11,160.19 159.76,159.63 151.70,159.82 C147.50,159.92 131.35,161.28 123.91,162.16 C116.39,163.29 99.94,165.93 95.42,166.89 C74.22,171.68 68.61,174.40 66.56,175.49 C66.56,175.49 67.86,177.46 67.86,177.46 C72.91,178.41 84.01,178.76 92.94,178.23 C101.15,177.68 117.71,176.02 125.76,174.97 C133.22,173.86 149.23,171.29 153.58,170.28 C156.59,169.58 166.10,166.88 167.47,165.57 C167.78,165.26 167.96,164.72 167.99,163.95 C165.73,162.24 160.58,160.85 158.05,160.47 C154.16,159.91 137.77,159.15 129.16,159.16 C115.83,159.47 88.42,160.99 74.57,162.16 C55.70,164.17 35.25,167.39 32.83,167.93 C29.29,168.74 24.39,170.25 22.69,171.81 C24.13,173.14 29.14,174.00 31.66,174.15 C42.60,174.74 72.36,171.67 88.87,169.59 C96.73,168.40 111.67,165.96 118.75,164.72 C128.02,162.88 139.50,160.10 142.98,158.55 C142.98,158.55 142.27,156.04 142.27,156.04 C139.20,155.38 124.36,154.97 116.91,155.39 C104.60,156.29 73.80,159.29 58.82,161.19 C6.76,168.73 0.02,171.28 -1.99,172.27 C-1.19,173.30 4.18,173.84 6.50,173.83 C10.21,173.82 27.70,172.34 35.99,171.39 C50.05,169.41 81.12,164.11 96.99,161.27 C108.73,159.04 132.13,153.21 133.15,152.28 C129.45,153.15 118.98,156.51 108.23,160.65 C100.57,163.74 85.12,170.09 79.10,173.02 C62.33,181.53 49.39,189.67 44.88,193.35 C41.57,196.08 38.45,199.81 37.46,202.40 C36.95,203.91 37.38,206.14 38.54,207.78 C39.40,208.94 45.28,211.33 49.50,212.13 C54.85,213.11 68.41,213.25 76.71,212.75 C89.27,211.74 121.93,206.69 130.84,204.47 C136.01,203.10 136.96,202.39 138.54,200.46 C133.83,199.27 123.37,199.19 114.30,199.73 C104.46,200.56 71.98,205.16 58.68,207.98 C49.65,210.16 39.71,212.98 33.45,216.29 C32.08,217.02 31.11,218.05 29.92,219.83 C30.45,221.15 32.07,222.24 34.77,222.88 C38.95,223.86 48.98,224.02 60.05,223.65 C75.80,222.87 99.45,220.12 106.18,218.96 C110.10,218.31 113.38,216.62 114.62,215.94 C111.58,214.47 100.42,213.24 94.46,213.13 C85.04,213.11 75.73,213.67 64.57,214.75 C47.82,216.61 31.82,220.44 29.67,221.50 C29.67,221.50 30.05,222.88 30.05,222.88 C34.67,224.02 45.95,224.20 54.22,223.30 C56.28,223.07 62.63,222.03 66.00,220.83 C65.19,219.88 60.48,219.28 57.26,219.21 C50.02,219.07 36.34,220.96 31.10,222.54 C29.54,223.01 28.61,223.62 27.48,224.75 C28.47,226.06 34.07,227.04 37.26,227.24 C40.22,227.40 45.26,227.13 46.42,226.23 C46.06,225.12 41.25,223.70 38.65,223.40 C36.36,223.17 30.93,223.39 28.97,224.24 C28.97,224.24 28.81,225.30 28.81,225.30 C32.06,227.26 41.59,228.78 44.60,228.81 C46.55,228.83 47.62,228.42 47.91,227.81 C45.45,226.55 40.92,225.59 38.70,225.37 C32.87,224.84 28.75,226.43 27.76,227.19 C27.76,227.19 27.90,228.45 27.90,228.45 C29.52,229.40 31.66,230.09 34.13,230.28 C35.92,230.40 40.00,230.19 41.46,229.91 C43.15,229.58 44.17,228.86 44.67,227.96 C43.88,226.94 42.25,226.03 39.90,225.54 C38.01,225.15 34.21,224.96 32.61,225.15 C31.14,225.36 28.97,226.34 28.46,227.04 C27.92,227.86 28.34,229.56 29.26,230.48 C30.94,232.09 33.02,232.16 33.97,231.94 C33.97,231.94 34.52,231.02 34.52,231.02 C33.99,229.90 32.73,228.70 30.92,227.90 C29.46,227.28 25.77,226.40 24.11,226.29 C21.95,226.15 20.00,226.59 18.33,227.40 C18.33,227.40 18.57,229.14 18.57,229.14 C22.14,231.43 27.24,232.74 30.43,232.99 C38.21,233.53 47.66,230.89 49.80,229.75 C50.89,229.15 51.62,228.20 52.52,226.42 C51.28,225.09 50.31,224.49 48.95,224.42 C46.56,224.30 42.16,224.94 39.61,225.66 C36.40,226.61 34.41,227.86 33.98,228.54 C39.31,229.42 60.40,219.76 62.31,218.67 C62.31,218.67 42.20,227.71 42.20,227.71 C42.20,227.71 42.98,228.62 42.98,228.62 C48.31,227.90 61.42,224.03 68.38,221.31 C75.32,218.58 88.71,211.81 92.14,209.71 C94.62,208.20 95.73,207.21 96.51,205.86 C91.80,206.29 78.46,210.84 70.08,214.58 C67.01,215.97 63.89,217.71 61.38,219.98 C61.38,219.98 61.86,222.37 61.86,222.37 C66.74,223.31 69.82,223.77 73.48,223.57 C88.38,222.52 107.01,218.82 115.47,216.72 C117.91,216.09 121.52,215.10 124.16,213.43 C120.08,212.65 115.04,212.81 111.76,213.09 C102.85,213.96 88.04,216.32 84.24,217.19 C76.28,219.03 73.55,220.52 70.49,222.67 C71.41,224.56 72.33,225.55 74.01,226.05 C78.70,227.44 90.25,228.33 99.92,227.86 C103.10,227.68 107.09,226.90 110.68,225.77 C110.68,225.77 111.05,224.54 111.05,224.54 C107.65,222.98 100.40,221.75 96.87,221.46 C93.09,221.16 86.07,220.99 81.65,221.37 C77.06,221.83 75.22,222.77 73.03,224.30 C73.03,224.30 73.06,226.46 73.06,226.46 C75.56,228.20 77.54,229.20 79.61,229.58 C85.86,230.72 99.72,230.51 106.81,229.21 C108.47,228.90 109.79,228.29 111.49,227.18 C110.61,226.00 109.76,225.36 108.24,224.93 C105.37,224.13 98.37,223.14 94.67,223.10 C91.00,223.08 85.27,223.95 82.83,224.81 C81.53,225.28 80.56,226.15 79.24,227.81 C79.79,229.53 80.40,230.44 81.61,230.98 C83.85,231.95 89.70,233.07 92.82,233.13 C95.29,233.17 101.31,232.29 102.46,231.30 C102.73,231.07 102.92,230.60 103.03,229.90 C101.13,228.13 97.37,227.17 94.84,226.90 C91.32,226.57 88.28,227.44 87.08,228.27 C87.42,229.52 87.96,230.24 89.17,230.75 C91.48,231.70 97.34,232.61 100.48,232.44 C107.94,231.98 111.45,229.31 111.86,228.24 C110.28,227.50 109.06,227.24 107.35,227.42 C101.43,228.04 94.80,230.40 92.15,232.22 C92.15,232.22 91.99,233.77 91.99,233.77 C93.96,234.72 95.32,235.12 96.93,235.10 C99.79,235.06 104.55,234.26 107.03,233.45 C110.25,232.33 111.76,230.80 111.85,229.86 C109.29,229.24 104.44,230.33 101.58,231.31 C98.03,232.57 94.93,234.56 93.87,235.56 C95.97,236.50 97.26,236.73 98.70,236.26 C104.42,234.37 113.00,229.79 116.82,226.66 C119.26,224.64 124.28,219.20 124.29,218.09 C124.22,217.02 122.52,215.63 120.32,214.78 C118.44,214.09 110.70,213.17 106.83,213.05 C102.21,212.93 98.74,213.35 95.28,214.14 C96.91,215.04 98.38,215.44 100.97,215.55 C107.88,215.83 122.10,215.21 129.63,214.45 C137.35,213.52 153.35,211.44 158.62,210.39 C165.55,208.95 179.52,204.84 180.66,203.60 C180.89,203.35 181.38,202.67 182.14,201.56 C180.95,200.10 179.98,199.35 178.47,198.90 C172.93,197.31 155.66,196.10 151.25,196.02 C137.45,195.96 109.22,197.56 93.89,198.95 C71.85,201.36 64.57,203.27 61.78,204.18 C63.42,205.61 64.61,206.22 66.45,206.35 C75.78,207.03 104.68,206.10 123.74,204.58 C139.59,203.03 174.78,198.88 183.65,196.89 C189.43,195.50 193.98,193.91 194.68,192.26 C193.63,190.75 188.91,189.48 185.07,189.05 C180.87,188.62 167.06,188.78 160.23,189.03 C150.01,189.64 124.41,192.34 102.30,195.87 C95.08,197.13 83.16,199.28 76.23,201.12 C72.28,202.20 70.97,202.91 69.57,203.93 C73.62,205.63 74.43,205.83 79.23,205.99 C90.14,206.21 121.48,203.54 134.94,201.96 C147.96,200.20 179.43,195.01 189.05,192.60 C199.07,190.07 202.56,187.78 204.38,186.24 C201.73,183.28 200.57,182.59 196.23,181.83 C191.38,181.04 174.62,180.52 169.71,180.59 C163.67,180.79 150.56,181.65 143.73,182.34 C136.92,183.16 123.52,185.19 115.93,186.79 C107.35,188.67 98.86,191.54 96.83,192.55 C95.74,193.11 95.15,193.82 94.54,195.07 C95.87,196.47 101.45,197.35 105.62,197.41 C111.24,197.45 125.11,196.25 131.98,195.49 C163.72,191.37 192.10,183.60 194.11,182.95 C195.26,182.57 195.80,181.46 196.43,178.92 C192.21,177.24 180.82,176.13 173.51,176.25 C163.95,176.51 155.37,177.21 145.16,178.56 C140.55,179.23 123.96,182.71 116.83,185.21 C112.45,186.81 110.27,189.02 110.10,190.26 C112.03,191.81 116.61,192.63 118.87,192.75 C124.81,193.05 136.53,192.22 147.63,190.80 C156.01,189.57 172.74,186.56 180.41,184.96 C187.91,183.29 200.77,179.51 205.05,177.00 C205.05,177.00 204.76,174.74 204.76,174.74 C200.56,173.66 188.67,173.48 180.70,174.22 C172.82,174.97 159.41,177.61 154.74,179.36 C153.53,179.82 152.50,180.46 150.97,181.64 C150.97,181.64 151.97,184.02 151.97,184.02 C156.12,185.31 166.49,185.51 173.80,184.66 C189.16,182.84 201.19,178.09 203.96,176.20 C203.96,176.20 204.34,173.57 204.34,173.57 C202.50,172.49 196.89,171.50 192.76,171.27 C172.73,170.24 164.09,174.11 162.81,174.98 C162.81,174.98 162.32,177.25 162.32,177.25 C164.83,178.77 168.64,179.94 173.11,180.29 C175.77,180.48 182.41,180.45 184.80,180.16 C189.75,179.52 195.77,177.88 198.70,176.03 C200.00,175.20 200.61,174.02 201.15,171.82 C199.63,170.04 198.45,169.16 196.79,168.82 C193.55,168.18 186.42,168.15 181.84,168.97 C179.64,169.39 177.34,170.00 175.16,170.74 C173.31,171.38 172.03,172.24 170.28,173.85 C171.75,175.07 173.09,175.66 175.16,175.76 C181.87,176.03 192.57,173.80 194.34,172.85 C196.50,171.69 197.82,170.03 198.05,168.54 C197.34,167.25 196.19,166.21 194.62,165.73 C193.14,165.31 189.91,165.22 188.37,165.58 C186.62,166.02 185.31,167.08 184.57,168.34 C185.32,169.87 186.05,170.69 187.30,171.07 C189.63,171.76 194.86,171.64 197.39,170.95 C198.69,170.59 199.84,169.76 201.51,168.14 C201.51,168.14 201.32,165.71 201.32,165.71 C198.93,163.80 197.40,162.85 195.78,162.43 C192.91,161.70 188.21,161.36 185.91,161.64 C184.72,161.80 183.54,162.32 181.65,163.42 C181.65,163.42 181.45,165.32 181.45,165.32 C183.61,166.91 185.10,167.69 186.83,167.96 C189.90,168.42 194.98,168.15 197.26,167.54 C198.40,167.22 199.48,166.50 201.14,165.06 C201.14,165.06 200.94,162.79 200.94,162.79 C198.49,160.97 196.86,160.07 195.08,159.74 C191.88,159.16 186.36,159.25 183.65,159.80 C182.29,160.09 180.81,160.76 178.41,162.09 C178.41,162.09 178.02,164.01 178.02,164.01 C180.62,165.19 182.41,165.68 184.50,165.65 C188.24,165.58 194.20,164.50 196.38,163.56 C197.48,163.08 198.14,162.18 198.88,160.50 C198.01,158.83 196.36,157.33 193.94,156.34 C190.03,154.78 187.94,155.67 187.07,156.53 C187.07,156.53 188.48,162.65 188.48,162.65" fill="none" stroke="rgb(255, 0, 255)" stroke-width="2.11" stroke-opacity="1.00" stroke-linejoin="round"/>
<path d="M200.03,160.14 C200.03,160.14 199.53,156.48 199.53,156.48 C201.88,158.18 204.55,162.17 205.46,165.24 C205.77,166.31 206.75,171.22 206.90,172.30 C207.06,173.51 207.12,175.47 207.10,176.59" fill="none" stroke="rgb(255, 0, 255)" stroke-width="2.11" stroke-opacity="1.00" stroke-linejoin="round"/>
<path d="M191.50,158.13 C191.38,157.76 191.30,157.51 191.25,157.38 C191.16,157.18 190.93,155.91 190.52,155.17 C190.79,154.68 192.13,153.92 193.13,154.24 C194.42,154.67 196.52,156.72 197.32,158.14 C199.00,161.23 199.67,163.16 199.48,163.08 C198.46,161.77 195.77,155.37 194.79,154.45 C193.97,153.70 191.08,152.52 190.32,152.25 C186.90,151.16 181.78,151.80 177.12,153.71 C174.04,155.03 172.95,156.26 172.58,157.10 C173.55,156.80 180.29,154.22 181.96,153.75 C183.29,153.39 188.49,153.00 191.46,154.02 C193.96,154.90 201.19,158.95 202.42,160.94 C203.48,162.74 204.30,169.47 203.42,170.86 C202.73,170.80 201.95,169.44 201.15,166.68 C200.48,164.45 199.64,162.68 198.58,161.37 C197.98,160.68 196.01,159.75 195.24,159.71 C194.20,159.72 192.41,161.02 192.19,162.19 C191.79,164.66 194.56,170.05 196.10,171.98 C199.56,176.23 206.24,180.42 207.32,181.47 C205.04,181.78 188.24,183.86 182.39,185.70 C179.12,186.75 172.50,189.87 171.19,190.69 C170.11,191.40 167.02,193.85 166.79,194.62 C166.66,195.06 166.60,196.11 166.61,197.77 C168.91,199.28 173.21,200.61 177.82,200.75 C182.14,200.84 188.89,200.10 190.81,199.36 C193.13,198.44 194.37,197.22 194.53,195.91 C193.19,194.54 192.14,193.91 190.41,193.61 C187.51,193.13 181.98,193.89 179.06,195.22 C177.80,195.83 176.08,196.97 174.74,198.13 C173.40,199.31 173.18,200.83 173.67,203.70 C175.77,205.35 180.79,205.85 183.37,205.59 C185.60,205.34 190.45,204.08 192.53,203.20 C194.92,202.16 200.10,198.58 201.42,196.21 C201.64,195.80 202.72,192.23 202.70,191.55 C202.61,189.77 201.16,186.01 200.13,185.23 C199.77,184.96 198.98,184.66 197.78,184.31 C195.35,185.34 193.99,186.18 193.04,187.40 C191.06,190.01 188.89,196.08 189.10,199.26 C189.24,200.93 190.41,204.15 191.32,205.34 C192.27,206.50 194.96,208.18 196.32,208.48 C197.65,208.72 200.36,208.18 201.39,207.49 C202.34,206.80 203.71,204.56 204.11,203.14 C204.83,200.32 204.49,194.15 203.90,190.86 C203.59,189.17 202.03,184.17 200.55,182.98 C198.90,185.17 197.55,190.68 197.14,193.38 C196.63,196.92 196.36,202.58 196.68,205.56 C197.06,208.72 197.88,210.37 198.84,211.77 C199.83,211.01 200.35,210.43 200.53,209.52 C200.94,207.45 202.78,189.12 203.48,181.99 C203.60,186.20 206.24,204.68 206.27,206.53 C206.30,209.21 206.09,210.83 205.62,211.80 C204.47,211.56 204.14,206.37 204.56,202.58 C205.47,195.25 207.24,189.64 207.58,189.21 C207.79,191.01 207.59,198.09 207.27,202.10 C206.94,205.84 204.99,210.90 203.38,211.85 C203.38,211.85 202.38,211.01 202.38,211.01 C202.16,208.14 203.78,203.57 204.78,202.73 C205.31,203.56 203.83,208.74 202.75,210.75 C201.73,212.59 198.90,215.55 197.06,216.78 C191.38,220.45 186.86,219.56 185.40,218.87 C184.99,217.67 185.19,216.34 186.17,215.01 C187.00,213.88 189.34,211.65 189.93,211.16 C189.93,211.16 144.59,218.05 144.59,218.05 C186.20,214.44 193.79,210.50 194.99,209.71 C192.18,208.47 190.78,208.03 189.19,208.00 C188.79,207.99 170.95,207.88 166.11,208.21 C158.68,208.87 143.51,210.37 135.79,211.21 C112.35,214.45 107.38,216.59 105.88,217.44 C108.45,218.73 109.95,219.26 111.55,219.34 C119.53,219.66 131.26,219.45 139.35,218.79 C147.45,217.98 164.89,216.11 170.19,215.23 C181.70,213.11 189.92,211.29 195.01,209.29 C195.01,209.29 195.80,207.03 195.80,207.03 C191.88,205.54 182.71,204.56 174.77,204.23 C167.22,204.08 154.66,204.68 147.02,205.10 C135.99,206.03 122.10,207.93 115.41,209.36 C114.06,209.65 106.71,211.44 103.62,213.05 C104.89,215.19 105.82,216.13 107.20,216.37 C113.60,217.47 125.30,217.96 132.68,217.79 C143.97,217.38 171.16,214.55 184.82,211.87 C188.21,211.17 196.00,208.77 196.39,208.32 C196.72,207.94 197.32,206.84 198.19,205.02 C195.33,203.47 190.82,202.46 187.87,202.13 C182.39,201.52 169.47,201.58 162.71,201.94 C158.00,202.20 140.64,203.93 133.10,205.09 C115.70,207.95 110.04,210.35 108.22,211.29 C109.74,212.65 110.76,213.21 112.13,213.25 C119.11,213.43 129.42,212.82 134.80,212.33 C139.10,211.89 156.96,209.32 165.20,207.88 C173.48,206.19 190.65,202.10 195.24,200.28 C199.11,198.67 200.68,196.80 200.74,195.44 C198.68,193.39 194.34,191.82 191.46,191.24 C186.08,190.19 171.49,189.53 164.14,189.81 C132.64,191.37 106.12,197.42 103.16,198.75 C105.02,199.90 106.20,200.37 107.70,200.40 C116.54,200.50 127.10,199.95 134.53,199.16 C148.60,197.49 176.36,191.94 186.16,188.22 C188.63,187.25 194.84,184.79 195.47,183.90 C195.88,183.30 196.51,181.48 196.89,180.13 C194.12,178.45 189.76,177.39 187.01,177.06 C181.87,176.48 171.29,176.64 161.24,177.21 C156.89,177.51 137.36,179.95 129.05,181.05 C122.73,182.05 108.53,184.73 107.76,185.57 C111.14,186.37 126.32,185.39 132.21,184.78 C149.80,182.64 172.54,177.59 176.54,176.35 C180.07,175.23 181.10,174.60 184.47,171.69 C181.90,170.26 179.64,169.50 176.64,169.34 C169.67,169.01 158.66,169.61 151.40,170.45 C145.13,171.27 131.75,173.77 127.70,174.80 C123.71,175.84 117.96,177.84 117.00,178.88 C120.90,180.07 124.29,180.00 127.90,179.82 C139.06,179.20 147.59,178.34 158.07,176.87 C178.54,173.73 186.53,170.77 188.36,169.30 C187.45,167.77 186.19,167.03 183.81,166.80 C178.04,166.26 169.20,166.57 157.33,167.38 C149.83,168.01 119.79,172.97 109.07,175.76 C107.77,176.11 107.03,176.70 106.05,177.96 C110.40,178.60 126.07,177.99 130.55,177.59 C134.94,177.19 152.44,174.35 159.86,173.04 C167.59,171.58 178.56,168.50 178.65,168.48 C180.38,168.03 181.59,167.18 183.72,165.12 C180.02,163.94 170.23,164.37 160.65,165.50 C151.34,166.71 119.29,173.92 105.43,177.96 C99.30,179.81 85.35,184.41 79.09,186.71 C60.80,193.77 56.35,197.89 55.02,199.33 C55.02,199.33 56.11,201.67 56.11,201.67 C60.19,202.67 72.11,201.74 79.99,200.25 C85.66,199.11 99.35,195.84 104.60,193.82 C107.16,192.81 110.73,190.92 111.57,189.13 C110.21,187.73 104.36,187.13 100.50,187.21 C95.71,187.34 83.39,188.71 73.88,190.50 C58.14,193.69 23.94,203.00 15.75,205.73 C14.47,206.16 13.46,206.95 11.81,208.66 C16.11,209.42 19.31,209.68 23.45,209.45 C35.51,208.73 66.34,203.10 76.54,199.71 C80.36,198.44 86.83,195.70 88.02,194.14 C88.26,193.81 88.36,193.27 88.31,192.51 C86.58,190.97 81.24,189.97 77.38,189.82 C72.56,189.66 55.43,191.22 48.99,192.26 C32.43,195.03 9.44,201.41 7.22,202.29 C6.24,202.69 5.59,203.27 4.81,204.27" fill="none" stroke="rgb(255, 0, 255)" stroke-width="2.11" stroke-opacity="1.00" stroke-linejoin="round"/>
<path d="M173.43,214.35 C172.75,213.13 171.65,212.45 169.79,212.34 C165.31,212.08 126.97,213.91 121.21,214.53 C119.66,214.70 118.75,215.27 117.90,216.42 C119.51,218.14 121.01,219.28 122.82,219.90 C128.78,221.94 143.15,223.23 149.92,222.99 C158.41,222.66 169.40,220.35 171.63,218.91 C170.40,217.66 169.06,217.05 166.53,216.76 C161.10,216.15 145.39,215.95 136.07,216.53 C126.45,217.28 111.42,219.54 106.22,220.76 C103.39,221.43 102.19,222.16 101.61,223.42 C106.91,225.29 118.63,226.51 125.08,226.74 C132.10,226.98 148.81,226.46 153.06,225.89 C157.75,225.23 159.79,224.37 161.01,223.68 C159.87,222.40 158.60,221.77 156.16,221.44 C150.79,220.72 136.51,220.43 128.46,220.85 C120.97,221.29 105.95,223.37 101.14,224.44 C98.12,225.11 96.74,226.01 95.88,227.65 C99.05,229.70 113.24,231.42 121.03,231.55 C129.13,231.67 142.52,230.71 148.58,229.58 C149.65,229.38 150.92,228.81 153.31,227.56 C150.44,226.62 145.57,226.44 141.84,226.42 C125.79,226.53 110.64,229.03 108.87,229.61 C108.87,229.61 109.13,230.72 109.13,230.72 C112.84,231.90 128.95,233.76 137.26,233.66 C142.90,233.57 147.51,233.04 149.37,232.38 C149.37,232.38 149.79,231.38 149.79,231.38 C147.45,230.46 142.93,230.05 139.83,230.03 C136.05,230.03 128.88,230.78 125.64,231.52 C123.91,231.91 122.35,232.63 120.05,233.95 C120.05,233.95 120.29,235.37 120.29,235.37 C122.61,236.13 127.04,236.75 131.56,236.69 C135.51,236.62 142.10,235.78 143.78,235.23 C145.77,234.56 146.83,233.74 146.96,232.94 C145.71,231.76 139.64,231.29 136.87,232.28 C135.35,232.84 134.38,233.80 133.95,234.87 C134.50,235.98 136.03,236.89 138.20,237.23 C140.08,237.49 146.40,235.89 148.66,233.97 C149.89,232.89 150.34,231.54 150.20,230.16 C149.00,229.25 147.45,228.86 145.77,229.26 C144.47,229.57 143.02,230.43 142.08,231.26 C142.08,231.26 142.11,232.35 142.11,232.35 C144.49,233.00 148.73,232.19 151.09,231.38 C153.45,230.56 157.52,228.60 159.84,227.27 C162.92,225.46 164.38,223.73 164.54,222.77 C162.26,222.45 155.53,224.54 154.19,226.10 C155.54,226.88 156.79,227.23 158.62,227.14 C161.98,226.97 169.71,225.53 170.95,225.24 C173.55,224.60 179.06,222.37 181.63,220.67 C183.10,219.70 183.73,218.38 184.24,215.84 C183.26,215.24 181.34,213.97 180.67,213.83 C177.08,213.13 163.32,216.41 156.96,218.99 C149.00,222.25 145.99,225.39 145.50,226.65 C147.73,228.55 149.67,229.35 152.46,229.35 C158.16,229.34 169.66,227.35 176.23,225.18 C179.30,224.15 184.90,221.80 187.03,220.72 C189.32,219.56 190.83,218.27 192.27,216.38 C190.96,215.50 189.74,215.21 187.64,215.49 C181.41,216.35 165.17,221.79 160.97,223.58 C156.53,225.53 154.84,227.06 153.68,228.83 C155.71,229.73 157.34,230.10 159.42,230.02 C172.72,229.43 186.08,224.07 188.54,222.76 C190.12,221.92 191.10,220.84 191.88,219.35 C189.95,218.69 185.45,219.83 181.99,220.91 C178.64,221.98 171.64,224.29 168.34,225.59 C163.60,227.55 160.91,228.74 160.29,230.13 C162.80,230.76 167.80,230.66 170.91,230.32 C179.80,229.34 184.53,226.54 185.26,225.63 C184.81,225.10 183.58,224.91 181.74,225.35 C177.23,226.45 174.16,228.70 173.25,229.85 C173.25,229.85 173.93,231.11 173.93,231.11 C177.64,231.94 181.99,231.64 184.44,231.18 C185.70,230.92 188.78,229.97 190.07,229.40 C191.56,228.72 192.33,227.73 192.47,226.80 C191.50,226.11 189.82,225.73 187.95,226.01 C186.43,226.26 183.65,227.43 182.58,228.22 C181.60,228.98 181.06,229.95 180.93,230.84 C180.93,230.84 181.58,231.72 181.58,231.72 C182.65,231.89 183.71,231.81 184.46,231.25 C185.53,230.44 186.59,229.13 186.62,228.75 C185.24,228.41 182.84,231.09 182.18,232.20 C184.92,230.43 188.11,224.93 188.34,225.02 C188.42,225.06 188.60,225.07 188.88,225.05 C188.88,225.05 192.73,221.69 192.73,221.69 C192.73,221.69 193.68,222.90 193.68,222.90 C193.39,225.90 190.93,230.82 189.33,231.58 C186.49,232.85 181.84,234.44 179.94,234.46 C177.44,234.43 165.14,232.09 164.24,231.96 C169.45,231.68 179.01,229.23 182.01,227.64 C184.96,225.99 188.31,223.42 188.95,221.87 C189.17,221.30 191.52,215.13 192.35,214.33 C192.83,213.86 195.47,212.80 196.68,211.11 C196.90,210.80 196.94,210.54 196.81,210.32 C196.81,210.32 189.49,214.85 189.49,214.85" fill="none" stroke="rgb(255, 0, 255)" stroke-width="2.11" stroke-opacity="1.00" stroke-linejoin="round"/>
</g>
</svg>
