<?xml version="1.0" encoding="UTF-8" standalone="no"?>
<!DOCTYPE svg PUBLIC "-//W3C//DTD SVG 1.1//EN" "http://www.w3.org/Graphics/SVG/1.1/DTD/svg11.dtd">
<svg width="128.40" height="181.68" viewBox="0.00 0.00 535.00 757.00" xmlns="http://www.w3.org/2000/svg" xmlns:xlink="http://www.w3.org/1999/xlink">
<g stroke-linecap="round" transform="translate(44.00, 155.00)" id="180-사람">
<path d="M222.32,326.88 C222.32,326.88 221.04,326.60 221.04,326.60 C221.42,327.04 225.56,326.21 230.02,326.36 C231.52,326.43 234.06,327.37 235.94,329.24 C236.49,329.79 239.52,332.56 240.44,333.45 C241.90,334.89 242.93,343.44 243.01,343.60 C242.77,341.29 240.97,337.26 239.16,334.68 C238.77,334.13 234.55,328.69 232.40,327.77 C230.21,326.86 222.87,325.92 220.35,326.84 C218.79,327.43 211.48,331.35 210.65,332.10 C208.49,334.07 204.47,339.98 203.69,341.63 C202.61,343.93 201.31,348.84 200.93,352.08 C200.58,355.30 201.02,360.82 201.59,363.10 C202.17,365.33 203.96,369.37 205.08,371.22 C206.63,373.79 212.44,381.84 213.53,383.87 C211.92,379.70 209.59,372.52 208.99,369.92 C207.81,364.62 207.58,354.27 207.77,353.32 C207.77,353.32 210.73,359.08 210.73,359.08 C211.70,358.72 214.63,351.24 215.02,350.38 C215.84,348.55 217.08,346.05 218.03,344.29 C218.03,344.29 223.83,361.21 223.83,361.21 C223.83,361.21 227.56,344.45 227.56,344.45 C227.56,344.45 236.38,361.28 236.38,361.28 C236.38,361.28 237.21,349.19 237.21,349.19 C237.43,349.61 238.59,369.31 238.14,372.91 C238.07,373.47 237.90,374.30 237.64,375.41 C237.42,374.28 237.76,372.05 238.95,369.96 C240.81,366.72 242.61,362.50 243.32,360.18 C244.36,356.61 244.09,345.37 243.92,343.89 C243.69,342.01 242.79,340.51 241.92,339.02" fill="none" stroke="rgb(229, 0, 16)" stroke-width="2.11" stroke-opacity="1.00" stroke-linejoin="round"/>
<path d="M224.53,325.50 C224.53,325.50 224.26,324.81 224.26,324.81 C224.26,324.81 223.54,324.67 223.54,324.67 C224.25,324.40 228.20,322.45 231.62,322.00 C234.94,321.59 239.31,322.44 241.09,323.74 C242.60,324.88 246.93,330.41 248.72,333.55 C250.49,336.71 252.77,343.24 253.16,346.61 C253.70,351.39 252.99,361.59 252.00,366.22 C250.26,374.19 249.07,385.47 249.78,391.80 C250.05,394.13 251.76,402.89 252.64,405.72 C253.39,408.12 256.72,416.04 257.54,418.58 C258.25,420.80 259.43,426.67 259.40,428.25 C259.31,430.57 257.46,434.68 255.56,437.34 C253.80,439.75 250.18,443.01 248.48,443.83 C246.00,444.97 241.50,445.50 238.94,444.49 C237.32,443.81 234.43,440.66 233.98,440.08 C235.48,440.15 239.07,439.12 240.16,438.23 C241.19,437.35 242.64,434.85 242.46,432.46 C242.36,431.30 240.80,427.70 240.43,426.52 C240.26,425.99 240.11,425.16 239.99,424.03" fill="none" stroke="rgb(229, 0, 16)" stroke-width="2.11" stroke-opacity="1.00" stroke-linejoin="round"/>
<path d="M236.68,375.18 C235.87,375.13 234.92,375.98 234.57,376.28 C232.80,377.76 231.32,378.75 230.48,378.90 C228.34,379.23 222.57,379.16 219.62,377.94 C219.05,377.70 216.66,376.34 215.51,375.73 C214.37,375.14 213.24,374.54 212.11,373.95" fill="none" stroke="rgb(229, 0, 16)" stroke-width="2.11" stroke-opacity="1.00" stroke-linejoin="round"/>
<path d="M211.28,371.87 C211.81,371.74 212.21,371.61 212.50,371.47 C216.97,369.30 223.25,364.11 223.68,364.01 C224.73,364.62 232.37,367.74 232.84,368.06 C233.89,368.82 234.57,370.07 234.72,370.21 C234.92,370.39 235.57,370.94 236.68,371.87" fill="none" stroke="rgb(229, 0, 16)" stroke-width="2.11" stroke-opacity="1.00" stroke-linejoin="round"/>
<path d="M209.08,359.45 C209.08,359.45 209.80,369.36 209.80,369.36 C209.80,369.36 210.29,368.86 210.29,368.86" fill="none" stroke="rgb(229, 0, 16)" stroke-width="2.11" stroke-opacity="1.00" stroke-linejoin="round"/>
<path d="M211.28,358.07 C211.29,359.31 211.29,362.06 211.28,363.56 C211.27,366.54 211.30,367.93 211.39,369.78 C211.39,369.78 211.79,370.18 211.79,370.18" fill="none" stroke="rgb(229, 0, 16)" stroke-width="2.11" stroke-opacity="1.00" stroke-linejoin="round"/>
<path d="M212.66,356.96 C212.67,358.57 212.68,363.05 212.71,364.00 C212.88,368.61 213.58,370.78 213.86,371.00 C213.86,371.00 214.04,369.59 214.04,369.59" fill="none" stroke="rgb(229, 0, 16)" stroke-width="2.11" stroke-opacity="1.00" stroke-linejoin="round"/>
<path d="M214.32,353.65 C214.32,353.65 214.87,352.55 214.87,352.55 C214.87,352.55 215.73,368.30 215.73,368.30 C216.17,368.16 216.24,364.25 216.14,358.02 C216.00,353.42 216.02,352.35 216.10,349.91 C216.70,353.96 217.35,361.19 217.70,365.03 C217.81,366.23 217.92,366.77 218.11,367.34 C218.32,365.08 218.41,363.23 218.43,360.40 C218.45,358.41 218.46,355.03 218.46,353.65 C218.46,352.24 218.49,351.43 218.59,350.23 C219.20,353.81 219.82,358.92 220.18,361.13 C220.39,362.45 220.69,363.51 221.23,365.01 C221.23,365.01 221.33,355.62 221.33,355.62 C221.33,355.62 222.99,365.05 222.99,365.05 C222.99,365.05 223.55,364.03 223.55,364.03" fill="none" stroke="rgb(229, 0, 16)" stroke-width="2.11" stroke-opacity="1.00" stroke-linejoin="round"/>
<path d="M225.36,355.58 C225.12,356.29 225.01,358.47 225.16,360.80 C225.25,362.18 225.57,363.43 225.93,364.31 C226.35,362.92 226.51,361.69 226.49,359.43 C226.48,358.31 226.47,357.18 226.46,356.05 C226.47,354.58 226.49,352.14 226.50,351.17 C226.50,351.17 227.92,364.83 227.92,364.83 C228.24,363.71 228.37,358.95 228.40,354.81 C228.40,353.59 228.40,351.36 228.40,350.37 C228.41,349.76 228.41,349.14 228.42,348.53 C228.68,351.85 229.26,358.95 229.61,361.54 C230.06,364.86 230.55,366.84 230.97,368.21 C231.15,367.78 231.17,362.67 231.19,359.53 C231.21,357.94 231.23,356.89 231.25,356.38 C231.34,354.66 231.55,353.56 231.74,353.50 C231.74,353.50 233.23,370.02 233.23,370.02 C233.53,369.95 233.60,366.57 233.52,361.01 C233.50,359.69 233.49,357.18 233.49,355.99 C233.49,355.99 235.10,369.73 235.10,369.73 C235.10,369.73 235.95,358.70 235.95,358.70 C236.27,359.36 236.44,359.90 236.57,361.07 C236.89,364.32 237.33,368.80 237.44,370.04" fill="none" stroke="rgb(229, 0, 16)" stroke-width="2.11" stroke-opacity="1.00" stroke-linejoin="round"/>
<path d="M219.29,377.94 C219.05,378.77 218.93,379.93 219.08,381.15 C219.69,385.71 220.59,387.89 221.27,388.71 C222.21,388.95 224.19,388.00 225.64,387.84 C226.54,387.63 227.18,385.51 227.39,384.24 C227.48,383.66 227.84,380.95 227.94,380.18" fill="none" stroke="rgb(229, 0, 16)" stroke-width="2.11" stroke-opacity="1.00" stroke-linejoin="round"/>
<path d="M218.74,380.98 C217.76,381.34 217.18,381.57 216.98,381.67 C215.96,382.13 214.16,382.77 213.18,383.18 C212.87,384.45 214.67,387.46 217.21,389.32 C219.01,390.63 222.50,392.40 222.74,392.36 C222.91,391.94 223.25,390.77 223.31,390.62 C223.43,390.33 223.76,389.66 224.28,388.63" fill="none" stroke="rgb(229, 0, 16)" stroke-width="2.11" stroke-opacity="1.00" stroke-linejoin="round"/>
<path d="M224.53,389.81 C224.53,389.81 224.39,389.81 224.39,389.81 C224.39,389.81 224.26,389.95 224.26,389.95 C224.26,389.95 229.22,393.34 229.22,393.34 C229.22,393.34 235.09,382.41 235.09,382.41 C235.09,382.41 228.95,380.15 228.95,380.15" fill="none" stroke="rgb(229, 0, 16)" stroke-width="2.11" stroke-opacity="1.00" stroke-linejoin="round"/>
<path d="M234.74,377.94 C234.31,378.55 234.06,379.04 233.98,379.41 C233.91,379.72 233.89,380.62 233.92,382.10 C233.93,382.56 233.93,383.10 233.92,383.72" fill="none" stroke="rgb(229, 0, 16)" stroke-width="2.11" stroke-opacity="1.00" stroke-linejoin="round"/>
<path d="M236.13,383.46 C236.15,383.57 236.15,383.71 236.13,383.87 C235.99,384.57 235.82,385.54 235.88,385.97 C235.99,386.49 239.27,390.51 239.42,392.15 C239.43,392.29 239.41,392.42 239.36,392.56 C238.89,392.49 235.87,392.62 235.27,392.87 C234.67,393.11 234.08,393.36 233.48,393.61" fill="none" stroke="rgb(229, 0, 16)" stroke-width="2.11" stroke-opacity="1.00" stroke-linejoin="round"/>
<path d="M234.47,392.02 C233.90,393.20 233.61,394.21 233.64,395.40 C233.78,398.04 234.03,404.24 234.03,404.25 C234.08,404.36 236.17,408.56 236.32,409.48 C236.39,409.90 236.50,410.90 236.66,412.49" fill="none" stroke="rgb(229, 0, 16)" stroke-width="2.11" stroke-opacity="1.00" stroke-linejoin="round"/>
<path d="M238.06,391.74 C238.06,391.92 238.06,392.11 238.06,392.29 C238.06,394.46 238.06,401.88 238.15,403.33 C238.26,404.92 240.40,411.07 240.62,412.60 C241.27,417.55 240.40,424.14 240.03,424.68 C238.28,424.62 237.27,424.34 237.11,423.45 C237.10,423.38 236.33,410.95 236.24,409.92 C236.20,409.53 236.17,409.14 236.14,408.75" fill="none" stroke="rgb(229, 0, 16)" stroke-width="2.11" stroke-opacity="1.00" stroke-linejoin="round"/>
<path d="M235.30,408.58 C235.22,409.05 235.04,409.71 234.88,410.09 C234.74,410.46 234.79,411.10 234.58,411.31 C230.98,411.55 228.54,411.69 228.21,411.88 C227.84,412.09 226.35,413.27 225.38,413.57 C222.88,414.32 218.23,413.94 215.85,413.56 C212.43,412.97 208.27,410.94 208.34,410.29 C208.44,410.09 211.56,403.58 211.77,403.01 C212.22,401.72 212.17,401.00 211.48,399.06 C210.18,395.46 210.75,390.71 210.49,389.93 C209.98,388.53 205.74,383.93 205.56,383.38 C205.56,383.38 208.44,380.66 208.44,380.66" fill="none" stroke="rgb(229, 0, 16)" stroke-width="2.11" stroke-opacity="1.00" stroke-linejoin="round"/>
<path d="M207.97,381.25 C207.97,381.25 207.83,381.25 207.83,381.25 C207.83,381.25 207.56,380.98 207.56,380.98 C207.29,380.88 206.07,382.02 205.34,383.21 C204.79,384.12 203.49,394.16 203.49,394.33 C203.87,394.47 204.87,394.57 205.30,394.60 C206.61,394.73 207.92,394.85 209.23,394.97" fill="none" stroke="rgb(229, 0, 16)" stroke-width="2.11" stroke-opacity="1.00" stroke-linejoin="round"/>
<path d="M204.94,396.16 C204.94,396.16 204.32,396.57 204.32,396.57 C204.17,396.83 204.10,397.11 204.11,397.43 C204.12,397.86 205.34,407.38 205.19,409.27 C205.09,410.40 202.44,414.41 202.09,416.72 C201.84,418.72 202.69,421.61 203.01,421.99 C203.01,421.99 204.15,420.94 204.15,420.94" fill="none" stroke="rgb(229, 0, 16)" stroke-width="2.11" stroke-opacity="1.00" stroke-linejoin="round"/>
<path d="M210.46,410.78 C210.23,411.10 207.53,415.95 207.22,416.53 C205.71,419.19 202.86,422.35 202.52,422.86 C203.10,423.51 209.06,424.72 210.57,424.94 C211.71,425.10 214.00,425.31 215.42,425.41" fill="none" stroke="rgb(229, 0, 16)" stroke-width="2.11" stroke-opacity="1.00" stroke-linejoin="round"/>
<path d="M215.15,419.89 C215.15,419.89 215.01,419.89 215.01,419.89 C215.01,419.89 214.60,420.31 214.60,420.31 C214.60,420.31 214.79,427.92 214.79,427.92 C216.98,429.51 227.22,428.14 231.68,427.23 C231.68,427.23 230.05,419.89 230.05,419.89" fill="none" stroke="rgb(229, 0, 16)" stroke-width="2.11" stroke-opacity="1.00" stroke-linejoin="round"/>
<path d="M231.98,424.03 C231.98,424.03 231.43,424.72 231.43,424.72 C231.43,424.72 231.54,424.86 231.54,424.86 C232.87,424.66 235.90,424.19 236.34,424.09 C236.62,424.03 237.01,423.92 237.51,423.76" fill="none" stroke="rgb(229, 0, 16)" stroke-width="2.11" stroke-opacity="1.00" stroke-linejoin="round"/>
<path d="M213.22,425.96 C213.26,426.13 212.89,428.35 213.36,432.59 C214.06,439.33 213.26,452.63 213.36,454.79 C213.30,456.35 212.50,461.63 212.49,462.39 C212.49,462.65 212.54,462.91 212.64,463.17" fill="none" stroke="rgb(229, 0, 16)" stroke-width="2.11" stroke-opacity="1.00" stroke-linejoin="round"/>
<path d="M214.32,459.91 C214.32,459.91 214.38,460.69 214.38,460.69 C214.38,460.69 221.85,459.91 221.85,459.91 C221.85,459.91 221.61,459.71 221.61,459.71" fill="none" stroke="rgb(229, 0, 16)" stroke-width="2.11" stroke-opacity="1.00" stroke-linejoin="round"/>
<path d="M214.32,460.74 C214.29,461.30 214.15,461.96 213.94,462.26 C212.29,464.66 212.42,466.23 212.71,466.74 C216.18,468.29 219.20,466.85 220.75,465.96 C221.15,465.03 221.26,464.45 221.16,463.46 C221.10,462.89 220.92,461.25 220.67,459.64" fill="none" stroke="rgb(229, 0, 16)" stroke-width="2.11" stroke-opacity="1.00" stroke-linejoin="round"/>
<path d="M221.77,460.74 C221.77,460.74 221.36,460.74 221.36,460.74 C221.09,460.71 220.86,456.74 220.94,454.05 C221.04,451.49 222.55,432.37 222.60,430.44 C222.63,429.90 222.70,429.19 222.82,428.31" fill="none" stroke="rgb(229, 0, 16)" stroke-width="2.11" stroke-opacity="1.00" stroke-linejoin="round"/>
<path d="M229.50,427.07 C228.87,427.72 228.39,428.37 228.40,428.93 C228.41,429.65 228.70,442.64 228.41,449.43 C228.38,451.10 228.29,459.80 228.12,460.34 C228.12,460.34 224.37,462.02 224.37,462.02 C224.37,462.02 222.60,460.74 222.60,460.74" fill="none" stroke="rgb(229, 0, 16)" stroke-width="2.11" stroke-opacity="1.00" stroke-linejoin="round"/>
<path d="M228.67,460.19 C228.67,460.19 228.81,460.19 228.81,460.19 C228.81,460.19 228.95,460.33 228.95,460.33 C228.95,460.61 228.95,460.77 228.95,460.79 C228.93,461.27 227.80,467.88 227.54,468.35 C226.72,468.49 223.97,468.77 223.24,468.65 C221.96,468.41 222.01,465.64 222.05,464.33" fill="none" stroke="rgb(229, 0, 16)" stroke-width="2.11" stroke-opacity="1.00" stroke-linejoin="round"/>
</g>
</svg>
