<?xml version="1.0" encoding="UTF-8" standalone="no"?>
<!DOCTYPE svg PUBLIC "-//W3C//DTD SVG 1.1//EN" "http://www.w3.org/Graphics/SVG/1.1/DTD/svg11.dtd">
<svg width="64.20" height="90.84" viewBox="0.00 0.00 535.00 757.00" xmlns="http://www.w3.org/2000/svg" xmlns:xlink="http://www.w3.org/1999/xlink">
<g stroke-linecap="round" transform="translate(154.00, 267.00)" id="181-사람">
<path d="M213.34,323.80 C213.00,323.78 212.42,323.65 212.00,323.54 C209.29,323.03 201.31,325.30 198.03,327.68 C195.19,329.77 192.53,334.31 192.19,336.72 C192.00,338.25 192.33,342.97 193.29,345.38 C194.10,347.36 196.65,350.74 198.32,351.98 C199.73,353.00 203.59,354.55 205.47,355.00 C207.18,355.39 211.20,355.68 213.99,355.40 C216.71,355.10 222.66,353.52 224.05,352.64 C225.61,351.62 227.37,348.96 227.78,347.11 C228.45,343.92 227.95,336.40 227.00,334.64 C225.55,332.06 218.86,326.08 216.25,325.06 C214.84,324.52 212.96,324.26 211.46,324.44 C210.98,324.50 210.51,324.56 210.03,324.63" fill="none" stroke="rgb(33, 228, 63)" stroke-width="3.13" stroke-opacity="1.00" stroke-linejoin="round"/>
<path d="M192.88,340.85 C193.67,340.26 196.92,337.97 198.81,337.14 C201.19,336.11 203.17,335.64 203.64,335.63 C204.15,336.09 206.18,340.66 206.84,341.43 C207.47,342.14 208.80,342.02 209.44,341.75 C210.21,341.43 216.10,338.89 216.44,339.01 C216.98,339.35 221.34,345.01 222.78,345.36 C223.42,345.49 225.03,345.32 226.94,345.08 C226.94,345.08 225.94,345.18 225.94,345.18" fill="none" stroke="rgb(33, 228, 63)" stroke-width="3.13" stroke-opacity="1.00" stroke-linejoin="round"/>
<path d="M195.26,345.70 C195.26,345.70 195.33,345.31 195.33,345.31 C195.88,344.78 197.77,344.24 199.35,344.29 C200.32,344.32 201.88,344.78 201.86,344.77 C201.86,344.77 201.87,345.05 201.87,345.05" fill="none" stroke="rgb(33, 228, 63)" stroke-width="3.13" stroke-opacity="1.00" stroke-linejoin="round"/>
<path d="M199.70,350.14 C199.70,350.14 199.70,350.01 199.70,350.01 C199.79,349.96 199.90,349.93 200.26,349.94 C202.24,349.94 205.58,349.24 207.34,348.28 C207.51,349.71 206.61,352.58 205.18,353.39 C205.03,353.47 204.68,353.63 204.14,353.86" fill="none" stroke="rgb(33, 228, 63)" stroke-width="3.13" stroke-opacity="1.00" stroke-linejoin="round"/>
<path d="M221.29,328.97 C221.29,328.97 221.19,328.91 221.19,328.91 C221.19,328.91 221.11,328.71 221.11,328.71 C221.43,328.02 223.00,326.62 224.48,326.15 C225.82,325.75 229.08,325.65 230.32,325.72 C231.71,325.83 233.27,326.54 234.15,327.68 C235.59,329.64 236.33,333.66 235.48,338.05 C234.26,344.59 232.64,350.88 230.68,356.02 C228.61,360.31 226.41,364.95 226.15,365.80 C226.01,365.08 224.87,360.94 223.85,358.83 C223.73,358.57 223.60,358.30 223.46,357.99" fill="none" stroke="rgb(33, 228, 63)" stroke-width="3.13" stroke-opacity="1.00" stroke-linejoin="round"/>
<path d="M204.04,357.27 C203.75,357.51 203.31,358.90 203.50,360.00 C203.69,360.95 205.34,362.36 206.18,362.49 C208.24,362.75 210.90,357.39 210.34,356.71 C210.34,356.71 209.31,357.27 209.31,357.27" fill="none" stroke="rgb(33, 228, 63)" stroke-width="3.13" stroke-opacity="1.00" stroke-linejoin="round"/>
<path d="M201.20,357.58 C198.98,357.57 192.02,354.02 190.54,352.69 C189.92,352.11 186.37,347.27 186.20,347.10 C186.17,347.07 186.13,347.05 186.06,347.04" fill="none" stroke="rgb(33, 228, 63)" stroke-width="3.13" stroke-opacity="1.00" stroke-linejoin="round"/>
<path d="M180.49,341.16 C180.50,341.01 180.32,340.52 179.96,339.77 C179.34,338.51 176.96,337.56 176.08,337.99 C173.81,339.17 175.45,342.53 176.16,343.04 C176.29,343.13 176.60,343.33 177.08,343.63" fill="none" stroke="rgb(33, 228, 63)" stroke-width="3.13" stroke-opacity="1.00" stroke-linejoin="round"/>
<path d="M179.66,349.42 C179.79,349.71 181.79,353.15 183.05,355.20 C185.03,358.38 187.08,361.17 188.70,362.49 C191.76,364.89 195.92,365.13 199.48,364.68 C199.48,364.68 199.70,365.12 199.70,365.12" fill="none" stroke="rgb(33, 228, 63)" stroke-width="3.13" stroke-opacity="1.00" stroke-linejoin="round"/>
<path d="M198.10,365.22 C198.10,365.22 198.05,365.29 198.05,365.29 C198.04,365.12 197.99,370.95 197.50,373.95 C196.85,377.88 196.43,387.89 196.58,388.30 C196.58,388.30 215.02,386.86 215.02,386.86 C215.18,386.56 216.40,369.54 216.64,368.23 C216.64,368.22 216.64,368.18 216.64,368.12" fill="none" stroke="rgb(33, 228, 63)" stroke-width="3.13" stroke-opacity="1.00" stroke-linejoin="round"/>
<path d="M216.23,358.41 C216.57,358.55 217.09,358.86 217.44,359.20 C217.92,359.67 225.42,368.96 226.39,371.41 C226.77,372.40 228.85,379.57 229.24,380.41 C229.24,380.41 220.43,383.18 220.43,383.18 C220.43,383.18 216.36,371.57 216.36,371.57 C216.36,371.57 216.43,371.42 216.43,371.42" fill="none" stroke="rgb(33, 228, 63)" stroke-width="3.13" stroke-opacity="1.00" stroke-linejoin="round"/>
<path d="M221.08,382.48 C221.08,382.98 221.08,383.47 221.08,383.97 C221.10,386.61 221.85,389.38 222.15,389.85 C222.63,390.55 228.46,389.79 233.08,390.28 C234.94,390.47 236.59,390.09 236.99,389.73 C237.36,389.34 237.44,388.20 237.02,387.60 C236.30,386.62 231.54,384.43 229.87,382.63 C229.25,381.96 228.63,381.29 228.00,380.62" fill="none" stroke="rgb(33, 228, 63)" stroke-width="3.13" stroke-opacity="1.00" stroke-linejoin="round"/>
<path d="M195.34,387.77 C195.22,387.90 188.72,401.11 188.33,401.78 C185.41,406.04 180.35,414.22 180.45,414.95 C180.45,414.95 190.47,416.86 190.47,416.86 C190.47,416.86 202.48,402.54 202.48,402.54 C202.79,404.33 201.22,415.17 201.46,415.46 C201.75,415.64 213.77,415.28 214.06,415.18 C214.87,414.83 214.76,410.53 213.92,400.56 C213.28,392.26 212.72,389.20 212.69,389.13 C212.64,389.02 212.46,388.72 212.16,388.21" fill="none" stroke="rgb(33, 228, 63)" stroke-width="3.13" stroke-opacity="1.00" stroke-linejoin="round"/>
<path d="M180.72,416.00 C180.72,416.00 180.83,416.00 180.83,416.00 C180.70,415.88 180.49,415.77 180.23,415.73 C179.47,415.62 177.31,416.01 176.32,416.56 C175.35,417.11 174.15,418.85 173.97,419.90 C173.82,420.88 174.25,422.89 174.64,423.67 C175.02,424.40 176.14,425.32 177.25,425.46 C180.51,425.84 189.39,425.09 191.96,424.83 C192.04,424.41 191.96,419.26 191.98,418.81 C191.99,418.67 192.02,418.40 192.09,417.99" fill="none" stroke="rgb(33, 228, 63)" stroke-width="3.13" stroke-opacity="1.00" stroke-linejoin="round"/>
<path d="M204.00,415.89 C204.00,415.89 203.72,415.67 203.72,415.67 C203.58,415.80 202.51,417.66 202.00,418.24 C201.50,418.79 199.94,419.68 198.59,420.02 C197.03,420.43 196.33,421.40 196.18,421.90 C195.85,423.16 196.03,424.84 196.21,425.04 C196.60,425.36 214.87,425.18 215.24,425.20 C215.88,423.59 214.48,418.69 214.09,417.47 C214.00,417.21 213.87,416.83 213.70,416.33" fill="none" stroke="rgb(33, 228, 63)" stroke-width="3.13" stroke-opacity="1.00" stroke-linejoin="round"/>
</g>
</svg>
