<?xml version="1.0" encoding="UTF-8" standalone="no"?>
<!DOCTYPE svg PUBLIC "-//W3C//DTD SVG 1.1//EN" "http://www.w3.org/Graphics/SVG/1.1/DTD/svg11.dtd">
<svg width="64.20" height="90.84" viewBox="0.00 0.00 535.00 757.00" xmlns="http://www.w3.org/2000/svg" xmlns:xlink="http://www.w3.org/1999/xlink">
<g stroke-linecap="round" transform="translate(156.00, 267.00)" id="181-우산">
<path d="M190.43,261.63 C190.43,261.63 189.79,261.63 189.79,261.63 C189.70,261.28 191.05,258.30 191.82,257.60 C192.43,257.10 194.29,256.75 195.37,257.19 C196.76,257.85 198.40,261.33 199.07,263.54 C199.18,263.89 199.25,264.19 199.28,264.44" fill="none" stroke="rgb(255, 242, 0)" stroke-width="3.13" stroke-opacity="1.00" stroke-linejoin="round"/>
<path d="M197.99,264.87 C197.53,264.58 197.08,264.28 196.81,264.06 C194.88,262.68 181.00,262.82 177.50,263.34 C171.02,264.33 159.76,269.31 155.61,272.30 C151.37,275.37 144.98,282.27 142.57,285.94 C137.02,294.47 132.74,308.49 132.56,309.36 C132.56,309.36 133.24,309.98 133.24,309.98" fill="none" stroke="rgb(255, 242, 0)" stroke-width="3.13" stroke-opacity="1.00" stroke-linejoin="round"/>
<path d="M201.44,267.89 C201.44,267.89 201.01,267.40 201.01,267.40 C201.01,267.40 201.15,266.99 201.15,266.99 C202.55,265.97 207.56,265.02 211.55,264.67 C214.91,264.40 220.48,265.40 224.52,266.75 C230.51,268.79 243.74,274.60 248.34,278.49 C251.14,280.90 253.61,284.67 255.03,287.53 C258.97,295.88 262.32,316.27 262.02,317.39 C262.00,317.44 261.81,318.06 261.44,319.26" fill="none" stroke="rgb(255, 242, 0)" stroke-width="3.13" stroke-opacity="1.00" stroke-linejoin="round"/>
<path d="M193.02,264.87 C192.97,264.87 192.69,264.88 192.65,264.87 C191.74,264.67 179.69,273.05 177.23,275.36 C176.21,276.34 166.16,288.59 164.19,291.65 C162.68,294.01 154.59,308.16 153.15,312.84 C153.15,312.84 153.74,312.57 153.74,312.57" fill="none" stroke="rgb(255, 242, 0)" stroke-width="3.13" stroke-opacity="1.00" stroke-linejoin="round"/>
<path d="M195.61,265.95 C195.61,265.95 195.29,265.95 195.29,265.95 C194.95,266.08 193.55,269.41 192.24,273.14 C190.01,279.54 185.54,289.29 183.02,294.69 C179.71,301.55 176.50,313.96 176.36,314.45 C176.36,314.45 176.84,314.94 176.84,314.94" fill="none" stroke="rgb(255, 242, 0)" stroke-width="3.13" stroke-opacity="1.00" stroke-linejoin="round"/>
<path d="M199.07,265.30 C198.99,265.63 202.24,294.07 201.40,302.64 C200.69,307.92 199.95,313.48 199.88,313.74 C199.88,313.74 199.71,313.21 199.71,313.21" fill="none" stroke="rgb(255, 242, 0)" stroke-width="3.13" stroke-opacity="1.00" stroke-linejoin="round"/>
<path d="M202.95,266.16 C204.01,266.24 204.82,266.48 205.34,267.01 C206.43,268.12 212.87,279.82 214.36,284.66 C215.86,289.65 216.68,299.26 216.68,304.28 C216.67,307.17 215.74,313.16 215.27,313.66 C215.20,313.73 215.11,313.79 215.04,313.86" fill="none" stroke="rgb(255, 242, 0)" stroke-width="3.13" stroke-opacity="1.00" stroke-linejoin="round"/>
<path d="M207.27,267.67 C207.27,267.67 207.05,267.67 207.05,267.67 C209.40,268.02 214.21,269.79 217.39,271.23 C220.52,272.68 225.56,275.57 227.92,277.53 C230.22,279.46 233.88,284.25 235.43,286.69 C237.99,290.78 240.73,300.36 241.34,306.25 C241.72,310.07 241.92,313.45 241.90,315.06 C241.90,315.06 241.15,314.94 241.15,314.94" fill="none" stroke="rgb(255, 242, 0)" stroke-width="3.13" stroke-opacity="1.00" stroke-linejoin="round"/>
<path d="M130.00,312.78 C130.00,312.81 130.85,311.86 131.17,311.62 C132.70,310.49 137.13,310.13 138.87,310.50 C140.99,311.01 147.91,315.17 148.17,315.26 C148.30,315.31 152.34,312.66 154.80,312.00 C157.44,311.33 162.91,311.59 165.38,312.56 C167.26,313.33 172.48,316.19 172.40,316.12 C172.40,316.12 172.09,316.67 172.09,316.67" fill="none" stroke="rgb(255, 242, 0)" stroke-width="3.13" stroke-opacity="1.00" stroke-linejoin="round"/>
<path d="M171.44,317.53 C171.44,317.53 171.76,317.53 171.76,317.53 C171.76,317.53 172.09,317.75 172.09,317.75 C172.39,317.67 177.23,315.14 180.64,314.57 C184.79,313.93 189.97,314.04 192.44,314.99 C193.49,315.42 196.44,317.44 196.53,317.46 C196.63,317.46 200.44,314.45 202.17,314.20 C206.08,313.80 211.56,316.83 213.29,318.17 C213.32,318.16 220.54,315.80 224.02,316.02 C229.74,316.45 237.18,319.93 239.43,321.63 C239.43,321.63 239.43,322.06 239.43,322.06" fill="none" stroke="rgb(255, 242, 0)" stroke-width="3.13" stroke-opacity="1.00" stroke-linejoin="round"/>
<path d="M241.15,313.86 C241.13,314.95 241.13,315.72 241.15,316.17 C241.25,318.23 242.05,323.32 242.46,323.55 C243.27,323.95 264.12,323.35 264.90,323.36 C264.90,323.36 264.25,322.49 264.25,322.49" fill="none" stroke="rgb(255, 242, 0)" stroke-width="3.13" stroke-opacity="1.00" stroke-linejoin="round"/>
<path d="M193.02,314.08 C192.85,314.03 192.74,313.99 192.70,313.97 C192.66,313.95 192.62,313.91 192.59,313.86 C192.02,316.44 186.03,332.55 183.06,336.16 C181.40,338.14 176.50,342.22 175.47,342.69 C174.30,343.18 170.98,341.93 169.13,341.17 C167.20,340.50 165.57,341.29 165.32,342.00 C164.76,343.83 165.69,348.00 167.39,349.54 C168.99,350.90 171.89,350.93 173.57,350.14 C178.70,347.68 184.95,341.90 188.49,337.44 C195.87,327.87 197.28,318.81 197.48,316.87 C197.51,316.63 197.53,316.34 197.56,316.02" fill="none" stroke="rgb(255, 242, 0)" stroke-width="3.13" stroke-opacity="1.00" stroke-linejoin="round"/>
</g>
</svg>
