<?xml version="1.0" encoding="UTF-8" standalone="no"?>
<!DOCTYPE svg PUBLIC "-//W3C//DTD SVG 1.1//EN" "http://www.w3.org/Graphics/SVG/1.1/DTD/svg11.dtd">
<svg width="64.20" height="90.84" viewBox="0.00 0.00 535.00 757.00" xmlns="http://www.w3.org/2000/svg" xmlns:xlink="http://www.w3.org/1999/xlink">
<g stroke-linecap="round" transform="translate(44.00, 155.00)" id="181-번개-4">
<path d="M124.18,91.90 C124.18,91.90 123.74,92.02 123.74,92.02 C120.46,96.36 111.56,108.17 110.71,112.32 C110.64,112.65 110.64,113.06 110.70,113.55 C110.70,113.55 128.40,117.08 128.40,117.08 C128.40,117.08 124.18,137.21 124.18,137.21 C126.09,136.36 131.17,132.08 132.83,130.26 C133.87,129.11 140.15,121.47 140.37,120.95 C140.54,120.47 140.29,119.30 138.09,117.58 C137.30,116.97 131.90,113.79 129.28,112.26 C126.41,110.61 123.12,108.29 122.77,106.65 C122.60,105.75 122.60,102.95 122.68,100.46 C122.86,95.56 122.58,94.16 122.13,93.15" fill="none" stroke="rgb(181, 143, 123)" stroke-width="3.13" stroke-opacity="1.00" stroke-linejoin="round"/>
</g>
</svg>
