<?xml version="1.0" encoding="UTF-8" standalone="no"?>
<!DOCTYPE svg PUBLIC "-//W3C//DTD SVG 1.1//EN" "http://www.w3.org/Graphics/SVG/1.1/DTD/svg11.dtd">
<svg width="64.20" height="90.84" viewBox="0.00 0.00 535.00 757.00" xmlns="http://www.w3.org/2000/svg" xmlns:xlink="http://www.w3.org/1999/xlink">
<g stroke-linecap="round" transform="translate(44.00, 155.00)" id="181-번개-1">
<path d="M446.52,36.60 C445.20,36.29 443.14,36.99 439.97,40.16 C437.97,42.17 435.18,46.26 434.73,47.72 C434.43,48.74 434.96,49.90 435.29,50.11 C436.26,50.70 446.76,49.29 449.18,49.97 C451.54,50.70 459.14,55.01 459.47,56.37 C459.75,57.90 455.11,64.40 450.46,69.77 C447.88,72.74 445.57,76.08 445.27,77.24 C445.02,78.31 445.23,79.13 445.45,79.38 C446.04,80.01 450.97,77.11 454.70,73.28 C459.64,68.14 471.49,52.62 472.02,50.60 C471.15,49.70 467.47,49.39 464.29,48.85 C461.67,48.40 447.81,44.66 446.40,43.70 C446.34,43.65 446.20,43.53 445.97,43.32 C445.66,42.09 448.54,36.87 448.56,36.86 C448.63,36.82 448.81,36.69 449.10,36.46" fill="none" stroke="rgb(181, 143, 123)" stroke-width="3.13" stroke-opacity="1.00" stroke-linejoin="round"/>
</g>
</svg>
