<?xml version="1.0" encoding="UTF-8" standalone="no"?>
<!DOCTYPE svg PUBLIC "-//W3C//DTD SVG 1.1//EN" "http://www.w3.org/Graphics/SVG/1.1/DTD/svg11.dtd">
<svg width="64.20" height="90.84" viewBox="0.00 0.00 535.00 757.00" xmlns="http://www.w3.org/2000/svg" xmlns:xlink="http://www.w3.org/1999/xlink">
<g stroke-linecap="round" transform="translate(44.00, 155.00)" id="181-번개-2">
<path d="M359.23,140.42 C359.22,139.00 359.36,138.35 359.64,137.72 C359.68,137.64 359.70,137.56 359.72,137.50 C358.57,138.57 354.00,145.51 353.12,146.84 C348.85,153.26 346.17,156.87 346.16,156.92 C346.43,156.99 359.12,154.11 362.97,154.30 C365.21,154.42 370.04,155.75 370.38,156.08 C370.38,156.08 363.88,177.80 363.88,177.80 C363.88,177.80 376.92,154.77 376.92,154.77 C376.92,154.77 356.54,150.54 356.54,150.54 C356.87,149.04 359.71,142.43 360.97,138.78 C361.11,138.37 361.26,137.94 361.42,137.51" fill="none" stroke="rgb(181, 143, 123)" stroke-width="3.13" stroke-opacity="1.00" stroke-linejoin="round"/>
</g>
</svg>
