<?xml version="1.0" encoding="UTF-8" standalone="no"?>
<!DOCTYPE svg PUBLIC "-//W3C//DTD SVG 1.1//EN" "http://www.w3.org/Graphics/SVG/1.1/DTD/svg11.dtd">
<svg width="64.20" height="90.84" viewBox="0.00 0.00 535.00 757.00" xmlns="http://www.w3.org/2000/svg" xmlns:xlink="http://www.w3.org/1999/xlink">
<g stroke-linecap="round" transform="translate(44.00, 155.00)" id="181-번개-5">
<path d="M-1.44,35.00 C-1.44,35.00 -1.81,35.00 -1.81,35.00 C-2.56,36.68 -4.18,39.09 -7.30,43.36 C-12.19,49.86 -14.17,54.07 -14.17,54.92 C-13.57,55.49 -11.00,55.33 -7.00,54.57 C0.86,53.13 13.38,53.04 16.57,53.56 C17.68,53.75 18.23,54.32 18.46,54.80 C18.57,55.71 9.26,68.25 4.98,74.39 C2.21,78.52 -0.04,82.05 -0.32,82.84 C0.20,82.73 16.18,66.61 17.21,65.48 C21.17,60.96 27.73,53.92 28.42,51.32 C27.31,50.60 22.74,50.57 20.03,50.57 C13.47,50.66 9.18,50.59 6.63,50.05 C4.68,49.62 2.38,48.62 2.19,47.89 C2.10,47.47 1.11,38.03 0.94,37.19 C0.82,36.58 0.16,34.56 -0.03,33.97" fill="none" stroke="rgb(181, 143, 123)" stroke-width="3.13" stroke-opacity="1.00" stroke-linejoin="round"/>
</g>
</svg>
