<?xml version="1.0" encoding="UTF-8" standalone="no"?>
<!DOCTYPE svg PUBLIC "-//W3C//DTD SVG 1.1//EN" "http://www.w3.org/Graphics/SVG/1.1/DTD/svg11.dtd">
<svg width="64.20" height="90.84" viewBox="0.00 0.00 535.00 757.00" xmlns="http://www.w3.org/2000/svg" xmlns:xlink="http://www.w3.org/1999/xlink">
<g stroke-linecap="round" transform="translate(44.00, 155.00)" id="181-구름-2">
<path d="M18.13,-21.89 C18.03,-22.00 17.73,-22.67 17.59,-23.28 C17.46,-23.83 16.95,-27.02 16.78,-27.56 C16.18,-29.45 13.60,-31.57 12.63,-31.77 C11.11,-32.01 5.48,-29.45 3.80,-27.84 C2.28,-26.32 0.77,-21.28 0.39,-17.63 C0.06,-14.15 0.89,-7.02 1.79,-4.48 C2.86,-1.61 5.86,1.76 8.26,2.78 C11.49,4.09 17.80,3.93 21.02,3.66 C20.94,8.41 21.21,12.63 22.42,15.43 C23.67,18.19 28.30,22.80 31.22,24.46 C33.73,25.84 39.89,27.85 42.56,27.85 C46.30,27.79 62.24,23.35 65.76,21.67 C67.99,20.60 74.83,16.76 78.27,15.30 C79.00,16.67 82.37,20.87 84.76,22.62 C88.78,25.49 100.81,29.28 105.12,29.95 C107.83,30.35 113.46,29.89 115.92,29.22 C117.92,28.66 122.72,27.07 125.55,25.69 C128.83,24.07 133.32,20.50 134.83,18.30 C135.25,17.67 139.24,10.77 139.51,10.55 C140.24,11.17 146.51,17.17 149.43,18.61 C152.37,20.03 158.14,20.49 160.36,20.19 C163.67,19.72 169.70,17.76 172.01,16.27 C173.96,14.99 176.95,10.85 178.54,8.02 C180.19,5.04 181.27,0.83 181.27,-1.70 C181.22,-4.21 179.75,-8.15 178.32,-9.31 C177.16,-10.24 174.60,-11.78 173.62,-12.24 C173.74,-12.43 176.21,-13.74 177.14,-14.37 C178.75,-15.48 179.86,-19.21 179.67,-21.72 C179.45,-23.96 178.00,-29.07 176.93,-31.24 C175.56,-33.92 170.65,-38.59 167.47,-39.74 C164.67,-40.71 159.86,-41.38 156.35,-41.52 C152.67,-41.65 144.40,-41.92 142.78,-41.79 C139.36,-41.50 131.06,-38.96 130.14,-38.72 C129.38,-39.60 127.45,-43.65 125.26,-48.56 C123.67,-52.03 121.17,-56.07 119.20,-58.15 C117.30,-60.10 113.05,-63.13 111.00,-64.20 C108.94,-65.24 104.11,-66.27 100.87,-65.64 C99.41,-65.34 94.28,-63.20 91.75,-61.88 C89.77,-60.84 85.48,-57.80 82.81,-55.23 C81.14,-53.62 75.57,-47.32 74.07,-44.84 C73.06,-43.13 72.08,-38.39 72.05,-37.82 C70.36,-39.42 57.26,-53.00 54.72,-54.71 C52.22,-56.35 48.35,-57.80 45.81,-58.15 C43.34,-58.46 38.61,-58.16 36.80,-57.54 C34.90,-56.86 31.10,-53.82 29.21,-51.69 C27.27,-49.49 23.24,-43.61 22.28,-41.07 C20.21,-35.45 20.81,-24.56 21.11,-23.54 C21.17,-23.34 21.32,-23.04 21.56,-22.64" fill="none" stroke="rgb(76, 175, 229)" stroke-width="3.13" stroke-opacity="1.00" stroke-linejoin="round"/>
<path d="M158.01,-42.88 C158.21,-44.10 158.72,-46.77 159.35,-49.03 C160.31,-52.34 162.84,-55.87 165.72,-58.60 C168.02,-60.75 172.74,-63.64 175.36,-64.79 C178.49,-66.14 189.39,-67.30 195.67,-67.34 C198.62,-67.35 202.56,-66.67 204.43,-65.74 C215.90,-59.88 222.30,-50.66 222.71,-50.30 C226.13,-53.91 236.79,-59.39 241.62,-60.69 C245.29,-61.66 249.99,-62.30 253.49,-62.02 C257.13,-61.69 262.26,-60.40 264.94,-59.18 C267.33,-58.07 271.76,-55.13 272.81,-53.72 C274.60,-51.18 274.93,-45.75 275.32,-45.27 C276.32,-45.11 278.25,-45.56 283.37,-46.92 C287.17,-47.89 292.80,-48.38 295.25,-47.95 C297.14,-47.59 301.89,-45.41 303.39,-44.38 C305.10,-43.17 307.97,-39.67 309.08,-37.59 C310.18,-35.49 311.08,-31.92 311.28,-29.14 C311.66,-23.30 310.72,-12.19 310.75,-11.81 C313.95,-8.97 315.73,-6.33 316.20,-4.15 C316.62,-2.13 316.48,3.13 315.92,5.14 C315.26,7.35 312.17,12.16 310.41,14.01 C307.41,17.13 297.06,24.00 291.90,26.44 C284.66,29.83 274.15,32.98 266.76,33.74 C263.66,34.04 254.40,34.98 253.87,35.05 C250.03,35.62 243.37,41.13 240.72,41.82 C240.43,41.89 231.25,43.29 228.99,43.36 C226.98,43.40 224.32,42.32 223.69,41.64 C223.25,41.15 220.26,37.93 219.22,37.62 C216.41,36.83 200.01,39.34 198.24,39.45 C193.42,39.71 188.12,38.33 186.52,37.18 C185.64,36.54 179.35,32.00 176.27,31.03 C173.46,30.19 169.53,29.48 167.61,29.07 C165.85,28.75 158.03,28.14 156.99,27.81 C153.57,26.64 149.73,21.25 148.98,19.21 C148.90,18.98 148.83,18.72 148.79,18.43" fill="none" stroke="rgb(76, 175, 229)" stroke-width="3.13" stroke-opacity="1.00" stroke-linejoin="round"/>
</g>
</svg>
