<?xml version="1.0" encoding="UTF-8" standalone="no"?>
<!DOCTYPE svg PUBLIC "-//W3C//DTD SVG 1.1//EN" "http://www.w3.org/Graphics/SVG/1.1/DTD/svg11.dtd">
<svg width="64.20" height="90.84" viewBox="0.00 0.00 535.00 757.00" xmlns="http://www.w3.org/2000/svg" xmlns:xlink="http://www.w3.org/1999/xlink">
<g stroke-linecap="round" transform="translate(44.00, 155.00)" id="181-구름-1">
<path d="M387.48,-40.27 C387.48,-40.27 386.96,-39.93 386.96,-39.93 C386.96,-39.93 386.79,-40.27 386.79,-40.27 C386.25,-42.85 383.52,-46.35 380.86,-48.19 C378.26,-49.92 372.55,-51.67 369.08,-51.91 C366.01,-52.08 359.55,-50.64 356.65,-49.04 C353.96,-47.53 349.89,-44.09 348.78,-42.82 C346.42,-40.09 342.43,-31.33 341.70,-26.41 C341.45,-24.68 341.92,-19.77 341.80,-19.59 C340.87,-18.89 335.01,-15.82 333.20,-13.94 C331.94,-12.58 330.56,-9.56 330.19,-7.43 C329.76,-4.80 329.78,1.61 330.34,4.53 C331.00,7.84 334.39,14.36 336.29,16.17 C338.15,17.89 343.42,20.30 344.85,20.55 C346.70,20.85 352.19,20.55 354.24,20.68 C356.29,20.82 362.51,21.95 364.75,21.88 C367.76,21.76 373.74,20.16 376.28,19.08 C378.30,18.22 384.57,14.45 386.32,13.58 C388.36,12.57 393.83,11.20 395.61,11.29 C397.62,11.43 400.80,12.95 402.97,14.55 C404.73,15.97 408.45,18.82 410.53,19.53 C412.66,20.22 417.76,20.12 420.34,19.37 C420.69,19.26 433.08,13.07 433.37,12.94 C433.77,12.81 438.20,15.57 439.98,16.18 C442.43,16.99 448.11,17.59 451.06,17.17 C453.25,16.83 459.21,14.53 461.73,12.70 C462.84,11.86 466.23,8.70 466.84,7.69 C467.77,6.13 468.82,0.14 469.00,-0.26 C470.50,-0.27 475.28,-0.32 476.73,-0.69 C478.92,-1.30 481.98,-4.46 483.60,-7.51 C485.10,-10.43 486.50,-15.54 486.45,-18.35 C486.35,-21.27 485.16,-25.40 483.65,-27.13 C482.26,-28.67 478.24,-31.05 475.86,-32.04 C471.95,-33.63 460.42,-34.04 460.19,-34.06 C459.94,-34.09 459.67,-34.17 459.39,-34.32" fill="none" stroke="rgb(76, 175, 229)" stroke-width="3.13" stroke-opacity="1.00" stroke-linejoin="round"/>
<path d="M459.91,-23.37 C459.91,-23.37 459.57,-23.37 459.57,-23.37 C459.57,-23.87 456.48,-29.47 454.77,-32.98 C453.12,-36.29 449.20,-40.35 445.24,-42.52 C441.36,-44.60 425.97,-49.39 421.42,-50.11 C418.91,-50.48 415.07,-50.63 411.69,-50.57 C408.29,-50.47 403.34,-49.30 401.81,-48.59 C399.82,-47.64 389.86,-41.88 388.86,-41.30 C388.86,-41.30 388.86,-40.46 388.86,-40.46" fill="none" stroke="rgb(76, 175, 229)" stroke-width="3.13" stroke-opacity="1.00" stroke-linejoin="round"/>
</g>
</svg>
