<?xml version="1.0" encoding="UTF-8" standalone="no"?>
<!DOCTYPE svg PUBLIC "-//W3C//DTD SVG 1.1//EN" "http://www.w3.org/Graphics/SVG/1.1/DTD/svg11.dtd">
<svg width="64.20" height="90.84" viewBox="0.00 0.00 535.00 757.00" xmlns="http://www.w3.org/2000/svg" xmlns:xlink="http://www.w3.org/1999/xlink">
<g stroke-linecap="round" transform="translate(44.00, 155.00)" id="182-구름-1">
<path d="M120.60,-106.11 C120.19,-106.09 119.91,-106.11 119.77,-106.17 C117.34,-107.25 108.28,-116.58 105.71,-118.26 C102.38,-120.41 94.10,-122.60 89.30,-122.73 C83.90,-122.86 73.24,-121.32 66.52,-118.78 C59.56,-116.10 45.72,-109.52 43.19,-108.01 C39.13,-105.53 35.70,-101.63 35.26,-99.54 C35.17,-99.10 35.01,-97.97 34.79,-96.16 C34.79,-96.16 35.58,-96.95 35.58,-96.95" fill="none" stroke="rgb(0, 0, 255)" stroke-width="3.40" stroke-opacity="1.00" stroke-linejoin="round"/>
<path d="M27.02,-93.98 C27.02,-93.98 27.17,-93.98 27.17,-93.98 C26.91,-93.95 26.71,-93.88 26.57,-93.78 C25.26,-92.68 22.18,-86.26 21.79,-83.83 C21.43,-81.32 22.00,-77.34 23.01,-76.08 C23.99,-74.94 29.00,-73.00 32.81,-72.25 C34.14,-71.99 37.36,-72.39 39.77,-74.07 C40.75,-74.76 44.15,-77.46 45.60,-78.31 C47.12,-79.18 50.23,-80.27 51.69,-80.46 C54.08,-80.72 56.55,-79.60 58.11,-78.75" fill="none" stroke="rgb(0, 0, 255)" stroke-width="3.40" stroke-opacity="1.00" stroke-linejoin="round"/>
<path d="M70.55,-85.90 C69.82,-85.95 67.57,-85.21 66.59,-83.93 C65.62,-82.59 64.60,-78.76 64.88,-77.32 C65.08,-76.43 66.10,-75.18 67.05,-74.63 C67.85,-74.19 77.23,-72.24 77.64,-72.18 C80.89,-71.77 99.92,-73.46 103.35,-73.67 C112.80,-74.17 125.22,-73.53 125.21,-73.74 C125.21,-73.74 124.29,-73.29 124.29,-73.29" fill="none" stroke="rgb(0, 0, 255)" stroke-width="3.40" stroke-opacity="1.00" stroke-linejoin="round"/>
<path d="M140.82,-88.08 C140.38,-88.14 140.09,-88.19 139.93,-88.23 C139.60,-88.32 139.28,-88.48 138.94,-88.54 C136.94,-88.88 134.59,-87.94 133.29,-86.67 C131.91,-85.26 130.87,-81.85 131.18,-79.88 C131.55,-77.84 134.27,-75.52 136.83,-74.81 C138.97,-74.25 144.49,-73.45 147.02,-73.47 C151.26,-73.54 159.82,-75.72 167.20,-78.77 C176.79,-82.89 184.44,-85.24 191.10,-85.73 C194.13,-85.95 200.14,-86.71 201.62,-87.12 C201.62,-87.12 202.62,-88.94 202.62,-88.94" fill="none" stroke="rgb(0, 0, 255)" stroke-width="3.40" stroke-opacity="1.00" stroke-linejoin="round"/>
<path d="M209.53,-88.39 C209.53,-88.39 209.53,-88.23 209.53,-88.23 C209.53,-88.23 208.60,-87.76 208.60,-87.76 C209.95,-87.96 215.72,-91.82 217.17,-93.44 C217.85,-94.23 219.21,-99.91 220.01,-102.58 C220.77,-105.15 220.93,-107.58 220.31,-108.91 C219.32,-110.91 213.05,-114.78 204.53,-118.65 C200.33,-120.49 187.13,-125.21 180.67,-126.50 C175.77,-127.47 159.51,-128.34 156.98,-128.32 C153.32,-128.29 140.64,-126.43 136.37,-124.09 C135.12,-123.37 133.21,-121.53 132.76,-120.62 C132.12,-119.22 132.65,-115.83 132.66,-115.09 C132.62,-114.70 131.43,-114.00 130.14,-113.70 C129.39,-113.53 122.10,-112.82 119.29,-111.99 C118.32,-111.70 117.67,-111.43 117.34,-111.21 C117.01,-110.98 116.38,-110.38 115.46,-109.43" fill="none" stroke="rgb(0, 0, 255)" stroke-width="3.40" stroke-opacity="1.00" stroke-linejoin="round"/>
</g>
</svg>
