<?xml version="1.0" encoding="UTF-8" standalone="no"?>
<!DOCTYPE svg PUBLIC "-//W3C//DTD SVG 1.1//EN" "http://www.w3.org/Graphics/SVG/1.1/DTD/svg11.dtd">
<svg width="64.20" height="90.84" viewBox="0.00 0.00 535.00 757.00" xmlns="http://www.w3.org/2000/svg" xmlns:xlink="http://www.w3.org/1999/xlink">
<g stroke-linecap="round" transform="translate(156.00, 267.00)" id="182-비">
<path d="M-114.18,-226.13 C-114.64,-222.23 -116.36,-215.48 -116.75,-213.00 C-117.13,-210.32 -116.71,-208.25 -116.20,-207.10 C-114.56,-208.26 -113.51,-209.87 -113.19,-212.19 C-112.70,-215.82 -112.90,-220.38 -113.20,-222.59 C-113.20,-222.59 -113.87,-223.28 -113.87,-223.28" fill="none" stroke="rgb(0, 165, 255)" stroke-width="3.40" stroke-opacity="1.00" stroke-linejoin="round"/>
<path d="M-85.19,-158.48 C-85.49,-155.68 -86.09,-147.73 -86.66,-143.38 C-87.16,-139.59 -87.19,-136.47 -87.17,-135.12 C-87.17,-135.12 -85.85,-133.86 -85.85,-133.86 C-85.22,-133.71 -83.79,-135.30 -82.96,-137.41 C-81.00,-142.50 -82.74,-154.97 -83.65,-157.19 C-83.76,-157.47 -83.97,-157.80 -84.27,-158.18" fill="none" stroke="rgb(0, 165, 255)" stroke-width="3.40" stroke-opacity="1.00" stroke-linejoin="round"/>
<path d="M49.44,-226.83 C49.13,-222.57 46.45,-214.59 46.23,-213.36 C46.03,-212.19 46.03,-209.90 46.12,-208.47 C48.20,-208.65 49.27,-209.10 49.85,-210.28 C51.92,-214.62 52.08,-222.36 51.40,-224.96 C51.30,-225.31 51.15,-225.80 50.93,-226.43" fill="none" stroke="rgb(0, 165, 255)" stroke-width="3.40" stroke-opacity="1.00" stroke-linejoin="round"/>
<path d="M14.23,-159.17 C14.22,-159.11 14.25,-157.70 14.28,-156.58 C14.31,-153.22 13.65,-147.20 12.79,-141.44 C12.21,-137.52 12.22,-132.50 12.92,-131.51 C13.28,-131.05 14.30,-130.53 15.14,-130.33 C15.87,-130.20 17.36,-131.49 18.32,-133.05 C19.07,-134.34 19.63,-139.85 19.36,-142.95 C19.09,-145.74 18.09,-149.89 17.00,-153.53 C17.00,-153.53 16.43,-153.83 16.43,-153.83" fill="none" stroke="rgb(0, 165, 255)" stroke-width="3.40" stroke-opacity="1.00" stroke-linejoin="round"/>
<path d="M3.18,-50.09 C2.88,-48.05 0.38,-38.94 0.25,-38.35 C-0.23,-36.22 -0.29,-33.99 -0.04,-31.44 C-0.04,-31.44 4.31,-30.41 4.31,-30.41 C6.11,-32.78 6.99,-34.34 7.30,-35.99 C7.84,-39.05 7.52,-43.27 6.29,-47.27 C6.00,-48.17 5.70,-49.07 5.41,-49.97 C5.41,-49.97 5.26,-49.62 5.26,-49.62" fill="none" stroke="rgb(0, 165, 255)" stroke-width="3.40" stroke-opacity="1.00" stroke-linejoin="round"/>
<path d="M-70.00,148.05 C-70.00,148.05 -70.00,146.67 -70.00,146.67 C-71.13,146.73 -72.29,147.08 -73.15,147.84 C-74.79,149.30 -78.76,156.06 -79.85,159.00 C-81.17,162.70 -80.81,165.80 -80.18,166.49 C-78.23,166.23 -74.96,162.25 -73.56,158.99 C-72.42,156.20 -70.92,146.93 -70.82,146.50 C-70.73,146.12 -70.52,145.57 -70.21,144.85" fill="none" stroke="rgb(0, 165, 255)" stroke-width="3.40" stroke-opacity="1.00" stroke-linejoin="round"/>
<path d="M54.27,34.14 C54.27,34.14 53.58,34.14 53.58,34.14 C53.60,34.14 53.60,34.19 53.58,34.29 C53.48,34.82 51.90,43.24 51.20,47.11 C49.16,58.84 49.57,61.07 50.16,63.43 C50.16,63.43 51.64,64.29 51.64,64.29 C52.82,63.17 53.42,62.42 53.59,61.52 C54.40,57.08 54.19,42.39 53.83,39.47 C53.83,39.47 53.06,39.55 53.06,39.55" fill="none" stroke="rgb(0, 165, 255)" stroke-width="3.40" stroke-opacity="1.00" stroke-linejoin="round"/>
<path d="M96.38,146.67 C96.90,146.94 97.30,151.11 96.97,154.84 C96.86,156.04 95.60,165.52 95.69,168.09 C95.79,170.68 96.35,172.27 97.35,173.20 C98.93,172.95 99.92,172.62 100.31,172.23 C101.55,170.98 101.67,161.77 101.49,160.22 C101.17,157.48 99.07,148.79 98.79,148.18 C98.59,147.74 98.08,146.82 97.27,145.43" fill="none" stroke="rgb(0, 165, 255)" stroke-width="3.40" stroke-opacity="1.00" stroke-linejoin="round"/>
<path d="M82.57,-96.34 C81.84,-96.08 81.87,-85.21 81.88,-84.77 C81.99,-82.05 82.75,-80.20 84.18,-79.68 C84.52,-79.56 85.22,-79.43 86.27,-79.29 C87.60,-80.23 88.60,-81.82 89.05,-84.18 C89.43,-86.32 89.20,-89.77 88.53,-91.68 C87.82,-93.62 84.96,-96.60 84.10,-97.56 C83.79,-97.91 83.51,-98.37 83.29,-98.95" fill="none" stroke="rgb(0, 165, 255)" stroke-width="3.40" stroke-opacity="1.00" stroke-linejoin="round"/>
<path d="M139.19,-169.52 C139.32,-166.30 138.53,-154.45 138.50,-153.51 C138.36,-149.90 135.60,-145.53 135.98,-144.60 C136.97,-143.68 138.64,-143.01 139.82,-143.44 C141.08,-143.91 142.36,-146.21 142.89,-148.50 C143.24,-150.24 142.07,-157.06 141.07,-159.33 C140.83,-159.87 140.28,-160.87 139.41,-162.31" fill="none" stroke="rgb(0, 165, 255)" stroke-width="3.40" stroke-opacity="1.00" stroke-linejoin="round"/>
<path d="M322.83,-217.16 C322.83,-217.16 322.83,-217.50 322.83,-217.50 C322.83,-217.50 322.48,-217.85 322.48,-217.85 C321.86,-214.44 320.34,-208.74 319.46,-205.38 C318.66,-202.09 318.87,-199.24 319.14,-198.47 C321.47,-198.49 323.20,-199.01 324.14,-200.26 C325.47,-202.09 325.51,-206.82 325.16,-212.09 C325.03,-214.06 324.90,-215.42 324.63,-217.75 C324.63,-217.75 323.17,-217.58 323.17,-217.58" fill="none" stroke="rgb(0, 165, 255)" stroke-width="3.40" stroke-opacity="1.00" stroke-linejoin="round"/>
<path d="M278.64,-82.54 C278.64,-82.54 278.64,-83.23 278.64,-83.23 C278.54,-80.37 274.78,-63.29 275.25,-59.76 C275.57,-57.52 276.28,-56.29 277.24,-56.00 C279.19,-57.60 281.18,-62.51 281.62,-65.38 C282.22,-70.04 278.63,-79.90 278.02,-80.62 C277.80,-80.87 277.43,-81.03 276.89,-81.09" fill="none" stroke="rgb(0, 165, 255)" stroke-width="3.40" stroke-opacity="1.00" stroke-linejoin="round"/>
<path d="M163.35,9.97 C163.35,9.97 163.35,6.56 163.35,6.56 C163.38,6.48 163.29,6.72 163.26,6.80 C162.02,10.10 159.49,16.92 158.80,19.50 C158.18,22.09 159.80,24.96 161.24,25.98 C161.24,25.98 163.03,25.57 163.03,25.57 C164.47,22.31 164.88,18.01 164.71,15.91 C164.52,13.78 163.38,9.24 163.08,8.77 C162.91,8.50 162.51,8.12 161.87,7.60" fill="none" stroke="rgb(0, 165, 255)" stroke-width="3.40" stroke-opacity="1.00" stroke-linejoin="round"/>
<path d="M276.57,0.31 C276.55,0.43 276.64,2.00 276.62,2.62 C276.47,6.00 275.07,13.99 274.38,17.95 C273.71,22.03 273.97,26.42 274.26,27.66 C276.89,27.23 278.45,25.93 279.20,23.28 C279.74,21.34 279.80,16.69 279.30,14.17 C278.87,12.18 276.84,7.61 275.69,5.14 C275.56,4.84 275.41,4.42 275.22,3.87" fill="none" stroke="rgb(0, 165, 255)" stroke-width="3.40" stroke-opacity="1.00" stroke-linejoin="round"/>
<path d="M268.29,84.54 C268.35,86.11 266.55,92.33 266.27,93.63 C265.75,96.13 265.38,103.36 265.61,104.32 C265.97,105.77 266.85,106.80 267.91,107.22 C269.55,106.93 271.36,105.96 272.48,104.47 C273.43,103.16 274.28,99.88 274.20,97.94 C273.98,94.22 272.54,89.59 271.50,87.17 C271.50,87.17 270.15,86.69 270.15,86.69" fill="none" stroke="rgb(0, 165, 255)" stroke-width="3.40" stroke-opacity="1.00" stroke-linejoin="round"/>
</g>
</svg>
