<?xml version="1.0" encoding="UTF-8" standalone="no"?>
<!DOCTYPE svg PUBLIC "-//W3C//DTD SVG 1.1//EN" "http://www.w3.org/Graphics/SVG/1.1/DTD/svg11.dtd">
<svg width="64.20" height="90.84" viewBox="0.00 0.00 535.00 757.00" xmlns="http://www.w3.org/2000/svg" xmlns:xlink="http://www.w3.org/1999/xlink">
<g stroke-linecap="round" transform="translate(44.00, 155.00)" id="183-비-2">
<path d="M175.87,410.66 C175.87,410.66 175.76,409.60 175.76,409.60 C175.76,409.60 175.61,409.45 175.61,409.45 C176.38,414.16 176.58,426.94 175.99,431.31 C175.42,435.48 175.17,441.85 175.33,444.01 C175.47,445.49 176.84,447.90 178.07,448.81 C179.22,449.63 181.61,450.54 182.33,450.64 C183.83,450.09 185.32,446.96 185.97,443.75 C186.90,438.93 187.36,420.52 186.91,417.43 C185.92,411.16 181.86,405.52 180.74,404.73 C180.74,404.73 177.97,404.95 177.97,404.95" fill="none" stroke="rgb(76, 108, 229)" stroke-width="3.40" stroke-opacity="1.00" stroke-linejoin="round"/>
<path d="M172.87,473.11 C172.87,473.11 172.57,473.11 172.57,473.11 C172.55,473.64 173.18,481.31 173.13,482.16 C172.87,486.14 170.84,491.51 169.23,493.99 C167.43,496.76 166.50,499.22 166.86,501.22 C167.06,502.18 167.91,503.57 168.64,504.04 C170.05,504.87 176.90,504.37 179.85,503.34 C181.25,502.83 184.28,501.17 185.07,500.47 C186.73,498.91 187.48,494.82 186.60,492.45 C185.89,490.68 173.15,476.10 172.95,475.88 C172.75,475.67 172.33,475.25 171.66,474.61" fill="none" stroke="rgb(76, 108, 229)" stroke-width="3.40" stroke-opacity="1.00" stroke-linejoin="round"/>
<path d="M232.61,475.81 C232.61,475.81 232.01,476.41 232.01,476.41 C232.07,475.78 232.41,474.82 232.50,474.45 C232.59,474.05 232.71,472.94 232.87,472.34 C233.44,472.96 231.40,489.80 230.84,497.02 C230.60,500.30 231.55,504.06 232.94,504.83 C233.14,504.93 233.55,505.06 234.18,505.23 C235.99,504.77 238.23,501.02 239.12,498.41 C242.74,487.27 242.40,473.62 241.98,473.02 C241.87,472.87 241.55,472.60 241.02,472.20" fill="none" stroke="rgb(76, 108, 229)" stroke-width="3.40" stroke-opacity="1.00" stroke-linejoin="round"/>
<path d="M425.94,470.59 C425.85,470.69 422.56,484.52 420.95,489.06 C419.29,493.69 418.42,497.35 418.61,498.96 C418.85,500.58 420.13,502.02 421.06,501.86 C421.99,501.66 424.00,499.17 424.75,497.31 C427.68,489.82 425.84,472.08 425.78,471.65 C425.76,471.51 425.74,471.30 425.72,471.03" fill="none" stroke="rgb(76, 108, 229)" stroke-width="3.40" stroke-opacity="1.00" stroke-linejoin="round"/>
<path d="M446.56,389.64 C446.57,390.49 446.54,391.86 446.45,393.36 C446.03,399.99 442.34,411.55 440.44,417.35 C439.68,419.63 439.48,420.78 439.55,421.84 C440.21,422.27 440.63,422.31 441.21,421.86 C443.88,419.72 450.00,407.96 452.31,400.68 C453.50,396.86 454.61,392.24 455.03,388.83 C455.56,384.29 454.74,381.22 454.06,380.62 C454.06,380.62 452.92,380.43 452.92,380.43" fill="none" stroke="rgb(76, 108, 229)" stroke-width="3.40" stroke-opacity="1.00" stroke-linejoin="round"/>
<path d="M420.56,288.21 C421.50,290.83 423.64,296.90 423.92,298.89 C424.04,299.77 424.21,307.64 424.01,310.10 C423.83,312.35 421.83,326.96 422.07,332.14 C422.24,335.30 423.80,336.69 424.22,336.88 C425.76,336.07 426.82,334.93 427.60,333.06 C429.66,328.06 431.57,319.63 433.32,308.38 C434.26,302.01 434.71,298.40 434.52,296.87 C434.12,294.15 432.08,289.56 429.80,286.54 C429.01,285.50 426.54,282.68 425.71,281.80 C423.16,279.13 421.66,277.34 421.07,276.63" fill="none" stroke="rgb(76, 108, 229)" stroke-width="3.40" stroke-opacity="1.00" stroke-linejoin="round"/>
<path d="M420.06,219.71 C420.06,219.71 419.56,219.85 419.56,219.85 C419.56,223.29 419.36,227.61 418.69,230.88 C418.42,232.16 416.38,240.27 415.87,243.62 C415.21,248.61 415.01,252.18 415.84,254.24 C416.23,255.15 417.01,256.25 417.69,256.92 C418.20,257.38 420.08,257.90 421.04,257.82 C422.66,257.62 426.07,252.33 427.00,249.36 C428.39,244.64 429.14,235.49 428.67,229.22 C428.49,226.88 427.52,218.45 427.45,217.94 C427.39,217.57 427.28,216.98 427.11,216.18" fill="none" stroke="rgb(76, 108, 229)" stroke-width="3.40" stroke-opacity="1.00" stroke-linejoin="round"/>
<path d="M448.77,166.82 C449.60,167.78 449.96,172.54 449.29,175.16 C448.97,176.39 445.85,183.48 445.65,183.99 C444.14,187.93 444.28,191.10 444.65,192.82 C444.65,192.82 446.17,194.27 446.17,194.27 C447.41,194.28 450.46,191.86 452.26,189.00 C453.87,186.40 458.60,175.47 460.07,171.68 C460.70,170.05 461.11,167.24 460.96,165.39 C460.80,163.74 457.48,159.84 454.57,157.73 C454.57,157.73 453.81,157.75 453.81,157.75" fill="none" stroke="rgb(76, 108, 229)" stroke-width="3.40" stroke-opacity="1.00" stroke-linejoin="round"/>
<path d="M403.94,124.50 C403.94,124.50 403.44,124.50 403.44,124.50 C403.35,126.96 400.49,147.92 400.42,148.31 C399.07,155.90 397.54,169.73 398.68,173.06 C399.21,174.59 400.67,175.67 402.29,176.19 C404.20,175.81 408.15,172.03 409.48,169.10 C411.63,164.24 413.72,149.55 413.44,144.45 C413.25,141.62 411.99,137.40 410.32,133.55 C408.05,128.43 406.85,125.39 406.44,124.79 C406.09,124.27 405.26,123.34 403.94,121.98" fill="none" stroke="rgb(76, 108, 229)" stroke-width="3.40" stroke-opacity="1.00" stroke-linejoin="round"/>
<path d="M404.24,6.20 C404.24,6.20 403.89,6.20 403.89,6.20 C404.41,9.16 406.28,23.05 406.34,28.84 C406.29,36.81 405.37,45.67 405.97,51.64 C407.60,51.56 408.62,51.23 409.88,50.23 C412.30,48.26 414.28,44.14 414.94,39.89 C415.54,35.79 414.82,24.88 412.79,17.30 C411.96,14.27 409.62,9.34 408.25,7.69 C407.30,6.55 405.28,4.52 405.07,4.24 C404.97,4.12 404.69,3.72 404.24,3.05" fill="none" stroke="rgb(76, 108, 229)" stroke-width="3.40" stroke-opacity="1.00" stroke-linejoin="round"/>
<path d="M393.38,-81.33 C393.38,-81.33 393.03,-81.33 393.03,-81.33 C393.08,-81.43 390.31,-65.58 389.53,-58.32 C389.08,-54.24 385.59,-37.92 384.08,-30.75 C383.31,-26.75 382.85,-19.79 382.88,-19.10 C382.95,-17.83 383.90,-17.02 384.00,-16.98 C384.81,-18.28 387.35,-22.43 388.20,-24.11 C390.22,-28.17 393.03,-47.55 394.81,-59.53 C395.89,-67.50 396.29,-78.22 395.73,-79.77 C395.61,-80.09 395.30,-80.49 394.78,-80.98" fill="none" stroke="rgb(76, 108, 229)" stroke-width="3.40" stroke-opacity="1.00" stroke-linejoin="round"/>
<path d="M329.66,-91.13 C329.57,-91.13 328.95,-59.91 328.63,-53.88 C328.60,-49.56 330.76,-43.02 331.05,-42.17 C331.20,-41.83 334.11,-45.39 335.01,-47.69 C336.07,-50.52 337.99,-63.01 338.49,-71.69 C338.91,-78.01 339.79,-92.83 338.77,-97.41 C338.49,-98.53 337.35,-101.13 336.69,-101.56 C336.35,-101.77 335.49,-102.12 334.10,-102.60" fill="none" stroke="rgb(76, 108, 229)" stroke-width="3.40" stroke-opacity="1.00" stroke-linejoin="round"/>
<path d="M102.27,-90.12 C102.42,-88.29 103.87,-85.51 104.43,-82.18 C106.40,-70.29 106.41,-51.91 106.79,-49.70 C107.08,-48.15 108.41,-46.21 109.75,-45.21 C110.86,-44.45 113.14,-43.83 113.86,-44.31 C115.52,-45.51 116.70,-50.86 116.84,-52.92 C117.11,-57.44 116.39,-69.78 114.84,-74.73 C113.88,-77.72 109.62,-83.04 108.82,-84.17 C106.49,-87.49 104.44,-90.96 104.30,-91.07 C104.19,-91.15 103.65,-91.52 102.68,-92.16" fill="none" stroke="rgb(76, 108, 229)" stroke-width="3.40" stroke-opacity="1.00" stroke-linejoin="round"/>
<path d="M65.03,-0.89 C65.03,-0.89 65.03,-1.71 65.03,-1.71 C65.06,-0.98 64.56,6.28 64.62,9.19 C64.74,14.42 66.30,22.12 67.26,32.44 C67.96,40.62 67.73,55.79 68.82,57.40 C68.93,57.55 69.20,57.77 69.61,58.04 C70.77,57.87 72.00,57.57 72.58,57.19 C73.88,56.30 75.49,51.46 76.53,46.76 C77.84,40.49 78.16,32.18 78.17,19.62 C78.15,15.31 77.47,9.26 77.08,6.39 C76.83,3.59 76.94,-3.76 75.94,-5.34 C75.18,-6.49 71.70,-8.45 71.19,-8.81 C70.78,-9.10 69.81,-9.88 68.30,-11.12" fill="none" stroke="rgb(76, 108, 229)" stroke-width="3.40" stroke-opacity="1.00" stroke-linejoin="round"/>
<path d="M41.29,93.24 C40.91,92.49 40.51,100.57 40.42,101.83 C39.42,112.35 40.73,143.92 42.12,148.09 C44.53,147.88 47.05,147.51 47.64,146.79 C49.44,144.52 49.51,131.52 48.79,120.39 C48.57,117.28 47.94,109.20 47.26,106.54 C45.95,101.52 43.10,94.07 42.78,93.24 C42.78,93.24 42.12,93.24 42.12,93.24" fill="none" stroke="rgb(76, 108, 229)" stroke-width="3.40" stroke-opacity="1.00" stroke-linejoin="round"/>
<path d="M105.55,126.40 C105.55,134.00 105.56,152.11 105.64,154.20 C105.80,157.82 106.16,166.11 106.63,167.51 C107.56,170.15 110.53,174.23 111.95,174.55 C112.86,174.70 114.67,173.48 115.11,171.66 C116.06,167.52 115.30,157.24 114.10,146.07 C113.16,138.48 111.31,131.94 109.29,127.26 C108.86,126.30 108.44,125.35 108.02,124.39" fill="none" stroke="rgb(76, 108, 229)" stroke-width="3.40" stroke-opacity="1.00" stroke-linejoin="round"/>
<path d="M148.11,23.26 C148.09,24.15 148.58,28.36 148.56,31.64 C148.47,41.74 148.68,49.93 149.53,55.33 C149.92,57.74 151.06,62.50 151.71,64.65 C152.91,68.49 154.41,69.45 155.11,69.55 C156.34,69.19 158.35,66.04 159.07,63.18 C160.42,57.64 161.74,41.39 161.58,36.20 C161.51,34.07 160.90,29.42 160.35,27.35 C158.82,21.82 154.01,14.41 154.01,14.21 C154.01,14.01 154.07,13.27 154.19,11.98" fill="none" stroke="rgb(76, 108, 229)" stroke-width="3.40" stroke-opacity="1.00" stroke-linejoin="round"/>
<path d="M201.73,99.79 C200.62,114.21 200.46,125.76 201.02,126.94 C201.52,127.92 203.56,128.94 204.84,129.08 C206.21,129.15 208.79,126.67 209.38,124.38 C210.51,119.83 211.28,109.58 210.66,102.91 C210.24,98.79 209.01,95.09 207.43,93.97 C207.20,93.81 206.68,93.58 205.89,93.27" fill="none" stroke="rgb(76, 108, 229)" stroke-width="3.40" stroke-opacity="1.00" stroke-linejoin="round"/>
<path d="M235.29,-63.92 C235.29,-63.92 235.29,-63.51 235.29,-63.51 C237.69,-60.63 239.79,-57.25 240.50,-54.11 C242.96,-42.84 242.88,-18.81 242.69,-11.29 C243.45,-10.85 243.97,-10.76 244.49,-11.13 C245.75,-12.08 247.51,-15.87 247.80,-19.36 C248.06,-22.84 245.24,-60.96 245.09,-68.72 C245.09,-68.72 243.10,-69.24 243.10,-69.24" fill="none" stroke="rgb(76, 108, 229)" stroke-width="3.40" stroke-opacity="1.00" stroke-linejoin="round"/>
<path d="M241.43,58.05 C241.53,58.56 244.49,62.75 245.22,66.36 C246.14,71.13 245.53,88.89 245.51,92.51 C245.48,95.58 244.22,110.45 244.93,112.58 C245.33,113.69 246.38,114.67 247.11,114.83 C247.89,114.93 249.96,112.57 250.75,109.84 C252.25,104.51 252.54,89.93 252.79,82.25 C253.36,70.19 252.93,58.86 251.04,54.11 C250.69,53.25 250.25,52.42 249.92,51.55 C249.81,51.26 249.72,50.87 249.64,50.40" fill="none" stroke="rgb(76, 108, 229)" stroke-width="3.40" stroke-opacity="1.00" stroke-linejoin="round"/>
<path d="M295.46,55.18 C295.46,58.34 295.46,64.89 295.46,68.29 C295.41,73.84 296.97,88.27 297.33,90.07 C297.78,92.25 299.01,94.82 299.92,94.84 C300.76,94.80 303.29,93.82 303.91,92.97 C305.62,90.55 307.13,74.74 306.90,68.05 C306.81,65.45 305.82,58.19 305.25,55.71 C304.52,52.61 302.31,49.60 301.62,48.91 C301.38,48.68 300.85,48.19 300.01,47.44" fill="none" stroke="rgb(76, 108, 229)" stroke-width="3.40" stroke-opacity="1.00" stroke-linejoin="round"/>
<path d="M314.28,142.77 C314.28,142.77 316.45,186.61 316.45,186.61 C318.47,186.94 319.52,186.81 320.16,185.93 C322.55,182.55 323.79,172.39 324.58,160.34 C324.87,155.24 324.87,142.65 324.76,142.33 C324.38,141.48 319.19,139.83 316.42,138.80 C315.62,138.51 314.83,138.21 314.04,137.92" fill="none" stroke="rgb(76, 108, 229)" stroke-width="3.40" stroke-opacity="1.00" stroke-linejoin="round"/>
<path d="M233.65,178.79 C234.62,179.15 236.86,183.79 237.38,187.62 C237.72,190.24 237.74,197.31 237.40,198.81 C237.22,199.58 234.56,207.48 233.69,211.21 C231.34,221.66 230.22,230.55 230.03,237.15 C229.93,240.52 230.05,247.47 230.79,251.15 C231.41,254.06 234.32,257.85 236.32,258.53 C237.35,258.84 239.40,258.86 240.06,258.40 C241.56,257.26 244.32,248.86 244.51,248.24 C245.24,245.90 246.25,244.10 247.67,242.64 C248.97,241.26 250.38,239.48 250.72,238.39 C251.72,235.06 252.10,216.28 251.87,213.43 C251.73,211.86 250.11,206.08 248.74,203.51 C247.35,200.92 242.32,196.24 240.73,195.17 C238.51,193.68 236.81,190.94 236.11,189.84" fill="none" stroke="rgb(76, 108, 229)" stroke-width="3.40" stroke-opacity="1.00" stroke-linejoin="round"/>
<path d="M291.77,228.31 C291.77,228.31 291.36,228.31 291.36,228.31 C291.36,228.39 291.38,230.35 291.41,231.07 C291.52,233.72 293.83,254.56 294.07,257.02 C294.81,264.88 294.22,282.49 294.23,285.98 C296.45,286.21 297.78,286.24 298.45,285.96 C299.82,285.34 302.12,281.70 303.04,278.77 C304.08,275.33 304.37,272.19 304.41,267.89 C304.41,264.26 304.40,256.76 304.05,253.74 C302.94,244.66 295.31,228.87 295.13,228.47 C295.01,228.19 294.53,225.48 294.24,223.85" fill="none" stroke="rgb(76, 108, 229)" stroke-width="3.40" stroke-opacity="1.00" stroke-linejoin="round"/>
<path d="M-13.77,214.39 C-13.77,214.39 -14.09,214.39 -14.09,214.39 C-12.97,214.94 -12.18,216.98 -11.75,219.83 C-9.11,237.60 -9.89,262.33 -8.55,266.75 C-8.31,267.51 -7.31,268.25 -6.87,268.31 C-6.15,268.32 -4.90,267.60 -4.34,266.73 C-2.50,263.71 -1.25,252.12 -0.63,242.15 C-0.44,236.15 -0.11,223.26 -0.75,219.80 C-1.78,214.53 -6.34,205.67 -8.19,204.21 C-9.31,203.36 -10.99,202.61 -11.75,202.63 C-12.09,202.65 -12.87,202.65 -14.09,202.62" fill="none" stroke="rgb(76, 108, 229)" stroke-width="3.40" stroke-opacity="1.00" stroke-linejoin="round"/>
<path d="M-15.36,281.21 C-15.36,281.21 -15.68,281.21 -15.68,281.21 C-16.30,284.20 -15.62,296.37 -15.00,301.25 C-14.51,304.94 -13.62,336.36 -12.60,337.41 C-11.53,337.68 -8.98,336.25 -8.08,334.25 C-6.27,330.04 -7.00,316.73 -7.93,308.44 C-8.14,306.49 -9.84,285.47 -10.09,283.55 C-10.81,278.24 -13.50,273.60 -13.54,273.43 C-13.55,273.39 -13.62,273.01 -13.77,272.30" fill="none" stroke="rgb(76, 108, 229)" stroke-width="3.40" stroke-opacity="1.00" stroke-linejoin="round"/>
<path d="M155.93,220.55" fill="none" stroke="rgb(76, 108, 229)" stroke-width="3.40" stroke-opacity="1.00" stroke-linejoin="round"/>
<path d="M76.19,230.61 C76.20,230.50 76.28,229.45 77.75,228.53 C79.51,227.45 82.37,226.95 83.91,227.07 C84.88,227.18 86.76,228.42 87.79,229.86 C88.91,231.50 91.04,238.48 91.41,241.50 C91.58,243.03 91.91,272.72 91.38,273.65 C90.26,275.51 88.78,276.35 88.22,276.39 C86.86,275.60 85.80,273.05 85.49,270.85 C85.13,268.17 84.80,230.28 84.76,230.04 C84.74,229.94 84.68,229.75 84.57,229.49" fill="none" stroke="rgb(76, 108, 229)" stroke-width="3.40" stroke-opacity="1.00" stroke-linejoin="round"/>
<path d="M102.27,310.16 C102.70,311.29 105.54,326.46 106.79,332.44 C107.97,336.39 109.61,342.26 111.10,351.28 C112.09,357.17 112.65,361.07 112.62,362.35 C112.51,365.93 111.85,371.43 111.22,374.07 C110.45,377.20 108.13,378.38 106.94,378.82 C105.67,378.48 104.69,377.17 104.32,376.10 C103.25,372.96 101.66,360.32 100.91,353.58 C100.33,347.40 100.18,328.94 101.66,325.08 C101.85,324.59 103.09,322.60 103.76,321.54" fill="none" stroke="rgb(76, 108, 229)" stroke-width="3.40" stroke-opacity="1.00" stroke-linejoin="round"/>
<path d="M141.03,303.46 C141.03,303.46 141.03,303.27 141.03,303.27 C141.15,303.27 146.60,303.01 148.19,303.58 C150.12,304.30 152.09,305.74 152.87,307.19 C154.75,310.81 157.41,321.71 157.95,328.59 C158.47,335.46 157.81,343.41 156.06,351.49 C154.43,358.91 153.39,361.31 153.19,361.60 C151.75,361.77 150.13,361.54 149.67,360.65 C147.95,356.97 147.53,348.40 147.71,337.62 C147.74,334.57 147.56,330.07 147.32,327.36 C146.95,323.27 143.94,312.47 143.46,309.55 C143.43,309.39 143.36,309.23 143.27,309.05" fill="none" stroke="rgb(76, 108, 229)" stroke-width="3.40" stroke-opacity="1.00" stroke-linejoin="round"/>
<path d="M181.22,167.03 C181.21,167.35 178.24,174.60 177.72,177.72 C176.94,182.73 177.40,197.91 177.14,203.30 C176.78,209.87 176.63,214.12 176.72,216.30 C176.84,218.51 178.05,220.10 179.61,220.25 C181.47,220.37 185.14,218.40 186.64,216.35 C187.97,214.46 189.76,209.62 190.02,207.04 C190.48,202.19 188.57,191.13 186.57,181.82 C185.04,174.96 183.51,170.12 183.36,169.75 C183.31,169.64 183.24,169.55 183.17,169.47" fill="none" stroke="rgb(76, 108, 229)" stroke-width="3.40" stroke-opacity="1.00" stroke-linejoin="round"/>
<path d="M221.96,316.57 C221.33,316.57 218.39,317.96 217.09,319.59 C214.90,322.39 213.54,325.77 213.16,328.52 C212.50,333.41 213.08,343.34 214.02,347.86 C215.62,355.36 219.27,368.07 220.74,371.48 C222.46,375.38 224.66,377.39 225.35,377.69 C226.39,377.54 228.38,375.48 229.38,373.79 C230.44,371.94 232.11,366.11 232.66,362.04 C233.34,356.69 232.32,345.69 230.46,338.25 C229.97,336.35 225.07,316.16 225.07,316.15 C224.91,315.75 223.99,314.55 223.66,314.13" fill="none" stroke="rgb(76, 108, 229)" stroke-width="3.40" stroke-opacity="1.00" stroke-linejoin="round"/>
<path d="M257.82,309.01 C255.26,311.58 253.02,316.13 252.54,318.48 C251.94,321.57 252.05,324.57 252.85,328.07 C254.57,335.82 255.78,347.61 257.05,353.63 C258.83,361.76 260.66,373.15 261.54,374.56 C261.66,374.75 261.97,375.17 262.46,375.84 C263.31,374.50 264.68,371.10 264.99,368.37 C265.56,363.02 264.93,353.97 263.62,343.17 C263.10,338.10 262.89,322.09 262.78,320.41 C262.45,315.86 261.05,310.54 260.30,309.62 C259.72,308.93 259.14,308.24 258.56,307.55" fill="none" stroke="rgb(76, 108, 229)" stroke-width="3.40" stroke-opacity="1.00" stroke-linejoin="round"/>
<path d="M373.56,237.64 C373.01,237.76 372.26,239.49 372.03,239.76 C371.87,239.95 367.57,243.89 365.00,247.34 C364.11,248.56 359.80,253.72 357.96,257.01 C352.68,266.53 344.56,291.65 344.31,293.34 C343.80,297.02 344.15,301.48 344.61,304.17 C345.05,306.69 346.50,310.09 349.06,311.85 C351.81,313.69 356.57,314.90 358.97,314.54 C361.93,314.05 366.82,311.23 368.54,309.34 C368.96,308.88 373.39,303.12 374.26,301.36 C376.71,296.32 379.62,282.29 380.27,274.41 C380.77,268.17 380.40,256.82 378.89,251.50 C378.00,248.44 374.90,239.13 374.86,239.06 C374.64,238.62 374.21,238.07 373.56,237.40" fill="none" stroke="rgb(76, 108, 229)" stroke-width="3.40" stroke-opacity="1.00" stroke-linejoin="round"/>
<path d="M16.72,-67.83 C16.74,-68.04 16.67,-68.41 16.56,-68.61 C16.53,-68.66 16.48,-68.72 16.41,-68.76 C15.17,-64.83 13.34,-60.93 11.52,-58.12 C7.99,-53.13 1.52,-43.72 -1.75,-36.93 C-7.73,-24.11 -20.13,-2.52 -20.79,-1.25 C-23.30,3.58 -26.91,17.73 -27.10,22.43 C-27.28,27.41 -26.38,36.53 -24.73,41.74 C-23.98,44.04 -21.64,48.33 -19.36,50.09 C-14.91,53.45 -6.97,55.88 1.46,58.04 C10.76,60.51 21.08,62.40 26.22,62.09 C29.73,61.86 42.38,58.80 46.97,56.82 C48.85,55.97 50.88,51.93 51.19,49.71 C51.53,46.96 49.22,36.54 46.60,28.63 C43.47,19.32 37.90,5.11 37.26,3.09 C36.15,-0.51 34.42,-11.81 33.60,-21.70 C32.65,-33.93 31.41,-42.78 28.86,-48.35 C26.77,-52.85 17.43,-67.05 17.28,-67.28 C17.28,-67.28 16.10,-67.52 16.10,-67.52" fill="none" stroke="rgb(76, 108, 229)" stroke-width="3.40" stroke-opacity="1.00" stroke-linejoin="round"/>
<path d="M152.05,-125.40 C151.83,-125.52 150.77,-126.30 149.58,-126.39 C148.84,-126.43 147.26,-125.74 146.49,-124.69 C144.70,-122.15 142.22,-113.21 141.98,-107.82 C141.33,-97.25 140.65,-82.13 141.08,-67.62 C141.20,-62.81 141.45,-53.23 143.26,-46.08 C143.64,-44.59 145.24,-34.40 146.76,-26.82 C148.21,-20.06 151.64,-12.11 154.06,-8.80 C155.12,-7.37 157.60,-5.35 158.74,-4.71 C161.38,-3.27 165.31,-2.73 166.76,-3.07 C168.18,-3.45 169.78,-4.23 170.62,-4.99 C171.46,-5.78 173.25,-9.23 173.71,-11.45 C174.53,-15.69 170.45,-66.86 170.23,-68.58 C169.99,-70.43 167.74,-83.31 167.02,-88.92 C166.26,-93.83 164.74,-103.27 162.57,-109.59 C161.61,-112.30 159.36,-116.63 157.13,-119.34 C155.11,-121.77 152.55,-123.97 151.96,-124.22 C151.64,-124.35 149.84,-124.68 148.72,-124.88" fill="none" stroke="rgb(76, 108, 229)" stroke-width="3.40" stroke-opacity="1.00" stroke-linejoin="round"/>
<path d="M6.19,455.50 C6.19,455.50 6.19,455.07 6.19,455.07 C6.19,455.07 6.02,454.99 6.02,454.99 C6.02,454.95 6.66,464.34 6.74,466.28 C6.95,472.07 4.50,486.42 4.45,488.10 C4.42,489.65 5.18,491.03 5.67,491.23 C6.69,491.58 10.86,488.47 13.15,484.37 C14.44,482.02 15.47,477.89 15.13,475.54 C14.54,471.84 9.39,460.66 7.95,456.78 C7.94,456.75 7.89,456.67 7.90,456.70" fill="none" stroke="rgb(76, 108, 229)" stroke-width="3.40" stroke-opacity="1.00" stroke-linejoin="round"/>
</g>
</svg>
