<?xml version="1.0" encoding="UTF-8" standalone="no"?>
<!DOCTYPE svg PUBLIC "-//W3C//DTD SVG 1.1//EN" "http://www.w3.org/Graphics/SVG/1.1/DTD/svg11.dtd">
<svg width="64.20" height="90.84" viewBox="0.00 0.00 535.00 757.00" xmlns="http://www.w3.org/2000/svg" xmlns:xlink="http://www.w3.org/1999/xlink">
<g stroke-linecap="round" transform="translate(44.00, 155.00)" id="183-구름-3">
<path d="M432.73,-81.12 C432.73,-81.12 432.73,-81.24 432.73,-81.24 C432.73,-81.24 431.99,-81.61 431.99,-81.61 C433.90,-82.45 440.28,-86.07 441.79,-87.31 C443.79,-88.99 453.09,-100.74 455.25,-104.75 C457.06,-108.15 458.25,-118.09 458.50,-122.87 C458.62,-125.38 458.06,-128.43 457.24,-129.57 C455.28,-132.19 451.94,-133.79 450.34,-134.31 C449.99,-133.92 448.60,-127.63 447.16,-126.22 C446.13,-125.27 443.37,-124.09 443.10,-124.26 C443.89,-125.17 446.69,-130.30 446.88,-132.40 C447.00,-134.25 445.52,-137.20 443.61,-138.71 C441.64,-140.24 436.03,-143.14 434.26,-143.82 C430.33,-145.27 424.04,-146.51 421.49,-146.59 C418.86,-146.65 415.21,-146.42 412.58,-145.97 C407.73,-145.09 394.61,-138.71 393.44,-137.76 C391.71,-136.33 388.17,-132.05 387.18,-130.13 C386.32,-128.41 385.60,-124.65 386.13,-122.33 C386.71,-119.97 388.24,-118.17 388.59,-118.08 C389.06,-118.68 391.36,-126.86 391.32,-129.30 C391.28,-130.70 389.32,-136.10 388.56,-137.01 C387.31,-138.44 383.74,-140.48 381.73,-141.07 C380.03,-141.56 374.49,-142.28 372.11,-142.38 C370.47,-142.44 364.97,-141.45 362.02,-140.35 C358.07,-138.84 354.40,-136.70 352.21,-134.31 C348.29,-129.93 343.81,-121.23 342.79,-116.67 C342.50,-115.38 342.28,-109.28 342.73,-107.24 C343.24,-105.08 346.54,-100.50 349.88,-98.25 C350.55,-97.81 356.56,-93.89 356.94,-93.10 C357.36,-92.18 357.17,-83.05 357.16,-82.43 C357.18,-77.73 358.20,-74.60 359.17,-73.96 C360.22,-73.35 363.79,-73.73 365.92,-74.93 C367.98,-76.15 371.87,-82.11 372.61,-83.30 C374.24,-85.90 377.27,-88.90 378.99,-89.96 C380.70,-90.99 384.59,-91.59 386.59,-91.51 C390.14,-91.27 395.33,-90.98 396.74,-91.46 C399.75,-92.59 402.36,-96.59 405.46,-101.64 C405.46,-101.64 405.36,-101.44 405.36,-101.44" fill="none" stroke="rgb(23, 41, 109)" stroke-width="3.40" stroke-opacity="1.00" stroke-linejoin="round"/>
<path d="M383.82,-101.41 C383.82,-101.41 384.65,-101.54 384.65,-101.54 C385.28,-100.79 385.65,-95.85 385.73,-94.71 C385.98,-90.59 386.63,-88.29 388.59,-85.74 C392.00,-81.42 399.07,-75.91 404.87,-69.04 C405.40,-68.48 406.93,-67.80 407.56,-67.80 C409.50,-67.91 415.78,-72.00 417.63,-74.24 C418.70,-75.58 420.87,-80.01 422.51,-82.89 C423.98,-85.45 426.66,-88.03 428.67,-89.08 C430.77,-90.15 435.77,-91.79 437.07,-92.43 C439.50,-93.67 444.61,-97.85 445.45,-99.48 C445.79,-100.18 446.10,-101.74 446.35,-103.51" fill="none" stroke="rgb(23, 41, 109)" stroke-width="3.40" stroke-opacity="1.00" stroke-linejoin="round"/>
<path d="M365.48,-117.55 C365.72,-117.62 366.72,-117.15 367.16,-117.04 C372.31,-115.85 379.89,-116.49 382.04,-117.01 C382.04,-117.01 381.24,-117.24 381.24,-117.24" fill="none" stroke="rgb(23, 41, 109)" stroke-width="3.40" stroke-opacity="1.00" stroke-linejoin="round"/>
<path d="M369.15,-120.73 C369.12,-120.73 369.12,-120.69 369.15,-120.61 C369.90,-117.91 371.60,-103.64 371.60,-100.94 C371.60,-100.94 372.57,-101.90 372.57,-101.90" fill="none" stroke="rgb(23, 41, 109)" stroke-width="3.40" stroke-opacity="1.00" stroke-linejoin="round"/>
<path d="M378.44,-117.31 C378.42,-113.05 378.55,-109.62 379.34,-106.95 C380.12,-104.43 381.08,-102.72 381.60,-101.94 C381.60,-101.94 382.66,-102.92 382.66,-102.92" fill="none" stroke="rgb(23, 41, 109)" stroke-width="3.40" stroke-opacity="1.00" stroke-linejoin="round"/>
<path d="M402.89,-124.16 C402.89,-124.16 401.92,-124.40 401.92,-124.40 C401.92,-124.40 420.63,-126.64 420.63,-126.64 C420.63,-126.64 418.93,-127.04 418.93,-127.04" fill="none" stroke="rgb(23, 41, 109)" stroke-width="3.40" stroke-opacity="1.00" stroke-linejoin="round"/>
<path d="M406.07,-124.64 C406.07,-124.64 405.34,-124.58 405.34,-124.58 C405.37,-122.12 407.09,-112.69 407.29,-110.92 C407.67,-107.50 407.23,-105.25 407.10,-104.99 C407.10,-104.99 407.42,-106.52 407.42,-106.52" fill="none" stroke="rgb(23, 41, 109)" stroke-width="3.40" stroke-opacity="1.00" stroke-linejoin="round"/>
<path d="M414.88,-127.58 C414.64,-123.53 414.61,-121.02 415.07,-117.36 C415.84,-111.24 415.87,-104.93 415.87,-103.90 C415.87,-103.90 416.18,-103.69 416.18,-103.69" fill="none" stroke="rgb(23, 41, 109)" stroke-width="3.40" stroke-opacity="1.00" stroke-linejoin="round"/>
</g>
</svg>
