<?xml version="1.0" encoding="UTF-8" standalone="no"?>
<!DOCTYPE svg PUBLIC "-//W3C//DTD SVG 1.1//EN" "http://www.w3.org/Graphics/SVG/1.1/DTD/svg11.dtd">
<svg width="64.20" height="90.84" viewBox="0.00 0.00 535.00 757.00" xmlns="http://www.w3.org/2000/svg" xmlns:xlink="http://www.w3.org/1999/xlink">
<g stroke-linecap="round" transform="translate(44.00, 155.00)" id="183-구름-1">
<path d="M66.35,-81.55 C66.35,-81.55 65.62,-81.55 65.62,-81.55 C65.05,-81.82 60.38,-81.77 58.38,-82.00 C55.25,-82.38 48.87,-83.99 45.88,-85.18 C42.76,-86.46 38.29,-89.91 35.94,-92.80 C33.49,-95.89 31.49,-100.62 30.99,-103.96 C30.16,-109.93 30.02,-120.06 31.49,-123.67 C32.29,-125.59 34.81,-130.01 36.45,-132.34 C37.85,-134.29 40.35,-136.82 42.44,-138.39 C44.83,-140.14 49.98,-143.15 52.41,-144.05 C54.83,-144.93 60.22,-146.15 62.35,-146.24 C64.47,-146.29 67.81,-144.74 69.30,-142.93 C70.84,-141.02 72.88,-136.89 73.42,-134.40 C73.96,-131.68 73.68,-126.70 72.84,-122.46 C72.27,-119.56 71.43,-115.13 71.34,-114.13 C71.64,-117.91 72.38,-126.10 72.55,-127.23 C73.14,-131.05 75.26,-136.82 77.16,-139.39 C79.00,-141.83 83.22,-145.63 85.97,-147.21 C88.74,-148.76 94.73,-150.70 98.21,-151.22 C101.50,-151.68 106.24,-151.21 107.50,-150.50 C108.75,-149.75 110.99,-145.44 111.45,-143.04 C111.90,-140.38 110.62,-136.21 109.01,-133.63 C108.65,-133.05 107.71,-131.57 107.27,-130.98 C107.22,-131.35 112.05,-135.38 115.17,-136.55 C117.78,-137.50 123.86,-138.42 126.98,-138.36 C130.33,-138.27 135.89,-137.27 138.70,-136.10 C141.48,-134.91 146.29,-131.53 147.71,-129.88 C149.08,-128.23 150.02,-124.69 149.47,-121.87 C148.81,-118.82 145.57,-113.30 143.04,-110.66 C138.38,-105.92 131.04,-101.88 120.04,-96.42 C113.43,-93.16 102.79,-88.90 97.54,-87.92 C92.99,-87.10 78.62,-86.70 72.19,-87.92 C71.68,-88.02 70.73,-88.22 69.34,-88.53" fill="none" stroke="rgb(23, 41, 109)" stroke-width="3.40" stroke-opacity="1.00" stroke-linejoin="round"/>
<path d="M61.11,-94.52 C61.11,-94.52 60.86,-94.52 60.86,-94.52 C61.26,-95.69 63.69,-98.52 66.62,-100.58 C68.84,-102.11 74.61,-103.37 76.68,-103.06 C78.72,-102.72 82.20,-100.85 83.49,-99.49 C84.14,-98.79 85.92,-96.93 86.63,-96.62 C88.45,-95.88 92.52,-96.65 94.52,-98.22 C95.33,-98.89 96.71,-100.73 96.85,-101.47 C96.91,-101.78 96.88,-102.37 96.78,-103.24" fill="none" stroke="rgb(23, 41, 109)" stroke-width="3.40" stroke-opacity="1.00" stroke-linejoin="round"/>
<path d="M53.63,-114.22 C53.63,-114.22 52.39,-113.72 52.39,-113.72 C52.71,-115.10 54.71,-118.71 57.08,-121.16 C59.64,-123.76 66.17,-126.58 69.81,-126.99 C72.79,-127.28 76.96,-126.69 79.86,-125.72 C83.28,-124.58 88.50,-123.56 91.26,-123.79 C93.69,-124.01 98.51,-125.65 99.83,-126.86 C101.21,-128.18 103.45,-133.89 103.58,-135.98 C103.61,-136.69 103.53,-140.13 103.51,-141.15" fill="none" stroke="rgb(23, 41, 109)" stroke-width="3.40" stroke-opacity="1.00" stroke-linejoin="round"/>
</g>
</svg>
