<?xml version="1.0" encoding="UTF-8" standalone="no"?>
<!DOCTYPE svg PUBLIC "-//W3C//DTD SVG 1.1//EN" "http://www.w3.org/Graphics/SVG/1.1/DTD/svg11.dtd">
<svg width="64.20" height="90.84" viewBox="0.00 0.00 535.00 757.00" xmlns="http://www.w3.org/2000/svg" xmlns:xlink="http://www.w3.org/1999/xlink">
<g stroke-linecap="round" transform="translate(44.00, 155.00)" id="183-사람-3">
<path d="M301.32,531.37 C298.93,531.37 297.04,532.61 296.32,533.35 C295.23,534.52 293.58,538.16 293.18,540.06 C292.80,542.12 293.79,545.28 295.43,546.55 C297.36,547.94 301.79,548.42 303.56,547.91 C304.93,547.47 306.97,545.98 307.55,544.98 C308.18,543.87 308.10,541.44 307.36,540.30 C306.66,539.27 304.22,537.65 302.04,537.35 C301.00,537.21 299.90,537.45 298.98,537.86 C298.98,537.86 296.96,541.95 296.96,541.95" fill="none" stroke="rgb(195, 76, 229)" stroke-width="3.40" stroke-opacity="1.00" stroke-linejoin="round"/>
<path d="M296.34,545.27 C296.34,545.27 295.25,545.37 295.25,545.37 C295.25,545.37 294.72,556.06 294.72,556.06 C294.72,556.06 295.15,556.36 295.15,556.36 C295.33,555.95 295.45,555.68 295.51,555.54 C295.58,555.35 295.64,555.14 295.70,554.89 C295.72,554.84 295.72,554.81 295.71,554.81 C295.51,554.90 294.45,555.66 293.62,556.39 C289.09,560.41 284.17,568.84 282.46,572.82 C282.65,572.18 282.83,571.54 283.02,570.91 C283.16,570.43 283.30,569.96 283.45,569.49" fill="none" stroke="rgb(195, 76, 229)" stroke-width="3.40" stroke-opacity="1.00" stroke-linejoin="round"/>
<path d="M291.78,557.92 C291.71,558.04 290.57,564.71 290.50,565.56 C290.21,568.91 290.96,572.69 291.57,573.81 C292.37,575.22 295.01,575.85 296.99,575.52 C298.90,575.18 302.35,573.44 303.46,572.36 C304.41,571.41 305.17,569.21 305.14,568.05 C305.03,565.21 302.44,551.85 302.94,550.60 C304.10,550.54 306.55,552.78 307.81,554.50 C310.88,558.72 314.88,568.07 315.20,568.88 C315.20,568.88 314.54,568.79 314.54,568.79" fill="none" stroke="rgb(195, 76, 229)" stroke-width="3.40" stroke-opacity="1.00" stroke-linejoin="round"/>
<path d="M292.19,576.79 C292.03,577.19 291.93,580.86 291.99,583.06 C292.04,584.46 293.42,585.28 295.00,585.21 C296.65,585.12 300.03,583.78 300.80,583.01 C302.15,581.58 300.33,576.49 299.27,576.18 C298.44,576.52 297.26,578.51 295.63,581.89 C291.81,589.95 290.35,594.74 289.99,597.32 C289.99,597.32 290.45,597.21 290.45,597.21" fill="none" stroke="rgb(195, 76, 229)" stroke-width="3.40" stroke-opacity="1.00" stroke-linejoin="round"/>
<path d="M299.87,583.01 C300.80,584.51 301.50,585.75 302.95,588.53 C305.15,592.81 306.26,596.68 305.99,597.12 C305.40,597.78 303.32,598.85 300.10,599.22 C298.37,599.41 292.47,598.97 291.86,598.74 C291.86,598.74 293.29,593.86 293.29,593.86" fill="none" stroke="rgb(195, 76, 229)" stroke-width="3.40" stroke-opacity="1.00" stroke-linejoin="round"/>
<path d="M296.55,584.47 C296.41,584.66 296.13,585.59 296.03,586.47 C295.69,589.54 296.36,595.94 296.89,597.07 C296.89,597.07 297.12,597.12 297.12,597.12" fill="none" stroke="rgb(195, 76, 229)" stroke-width="3.40" stroke-opacity="1.00" stroke-linejoin="round"/>
<path d="M283.28,570.78 C283.28,570.78 282.68,571.98 282.68,571.98 C283.04,572.73 284.80,573.37 285.69,573.11 C286.37,572.89 288.47,570.11 288.70,569.30 C288.73,569.19 288.81,568.95 288.95,568.60" fill="none" stroke="rgb(195, 76, 229)" stroke-width="3.40" stroke-opacity="1.00" stroke-linejoin="round"/>
<path d="M314.39,567.25 C313.83,567.28 311.83,568.53 311.04,568.66 C309.63,568.85 306.64,566.18 306.11,565.81 C306.10,565.80 306.08,565.79 306.09,565.80" fill="none" stroke="rgb(195, 76, 229)" stroke-width="3.40" stroke-opacity="1.00" stroke-linejoin="round"/>
</g>
</svg>
