<?xml version="1.0" encoding="UTF-8" standalone="no"?>
<!DOCTYPE svg PUBLIC "-//W3C//DTD SVG 1.1//EN" "http://www.w3.org/Graphics/SVG/1.1/DTD/svg11.dtd">
<svg width="64.20" height="90.84" viewBox="0.00 0.00 535.00 757.00" xmlns="http://www.w3.org/2000/svg" xmlns:xlink="http://www.w3.org/1999/xlink">
<g stroke-linecap="round" transform="translate(44.00, 155.00)" id="183-구름-2">
<path d="M191.90,-101.33 C190.95,-101.30 190.39,-101.26 190.08,-101.23 C189.04,-101.20 186.28,-102.11 183.97,-103.68 C181.54,-105.34 177.81,-108.59 176.91,-109.57 C175.78,-110.82 174.45,-114.19 174.25,-116.10 C173.87,-120.42 177.25,-133.27 179.65,-137.66 C180.98,-140.04 188.85,-146.00 192.98,-147.56 C195.63,-148.54 205.02,-148.33 208.54,-146.61 C210.97,-145.39 214.06,-142.97 214.74,-141.99 C215.90,-140.26 217.01,-136.46 217.48,-133.77 C218.24,-129.15 217.71,-118.02 217.73,-117.96 C219.62,-121.92 223.72,-127.00 229.32,-132.48 C230.72,-133.84 233.99,-137.14 235.37,-138.00 C236.61,-138.76 240.62,-140.25 243.69,-140.59 C247.56,-141.01 259.66,-139.39 262.00,-138.25 C263.66,-137.40 268.36,-133.21 270.37,-130.56 C271.46,-129.10 274.12,-123.67 274.99,-123.05 C276.06,-122.38 278.47,-122.49 280.15,-123.44 C281.04,-123.96 288.34,-127.92 291.23,-128.90 C296.23,-130.56 300.98,-130.47 301.20,-130.44 C301.49,-130.09 302.29,-126.74 302.21,-125.38 C301.96,-121.96 297.11,-113.45 294.68,-111.21 C293.16,-109.83 283.25,-101.95 278.35,-96.75 C275.47,-93.89 273.04,-92.73 271.33,-92.32 C270.14,-92.06 241.48,-94.15 236.43,-94.76 C232.72,-95.22 226.32,-97.84 225.04,-98.27 C221.40,-99.50 211.07,-100.91 210.26,-101.43 C209.14,-102.18 207.51,-104.95 207.36,-105.27 C207.36,-105.27 205.85,-105.06 205.85,-105.06" fill="none" stroke="rgb(23, 41, 109)" stroke-width="3.40" stroke-opacity="1.00" stroke-linejoin="round"/>
<path d="M222.65,-115.98 C222.94,-116.46 224.29,-118.61 224.49,-118.93 C225.46,-120.56 226.69,-124.35 227.96,-126.31 C229.36,-128.44 231.28,-129.81 232.22,-130.12 C233.29,-130.45 235.68,-129.99 236.85,-129.36 C238.08,-128.66 241.25,-125.37 241.77,-124.31 C242.44,-122.89 243.28,-118.64 243.30,-118.44 C243.31,-118.36 243.32,-118.10 243.35,-117.66" fill="none" stroke="rgb(23, 41, 109)" stroke-width="3.40" stroke-opacity="1.00" stroke-linejoin="round"/>
<path d="M247.17,-128.72 C247.17,-128.80 253.20,-119.91 253.64,-119.80 C254.84,-119.61 257.37,-120.25 258.06,-120.73 C259.65,-121.90 261.00,-124.43 261.24,-126.44 C261.37,-127.78 260.72,-133.11 260.63,-133.63 C260.63,-133.63 259.37,-134.30 259.37,-134.30" fill="none" stroke="rgb(23, 41, 109)" stroke-width="3.40" stroke-opacity="1.00" stroke-linejoin="round"/>
<path d="M234.03,-106.27 C233.89,-106.72 234.41,-108.86 235.74,-110.59 C236.95,-112.14 238.51,-112.71 239.42,-112.41 C240.36,-112.05 244.54,-108.42 244.92,-108.14 C247.40,-106.29 251.16,-107.21 251.47,-107.52 C251.70,-107.76 252.83,-109.34 253.22,-109.87" fill="none" stroke="rgb(23, 41, 109)" stroke-width="3.40" stroke-opacity="1.00" stroke-linejoin="round"/>
</g>
</svg>
