<?xml version="1.0" encoding="UTF-8" standalone="no"?>
<!DOCTYPE svg PUBLIC "-//W3C//DTD SVG 1.1//EN" "http://www.w3.org/Graphics/SVG/1.1/DTD/svg11.dtd">
<svg width="64.20" height="90.84" viewBox="0.00 0.00 535.00 757.00" xmlns="http://www.w3.org/2000/svg" xmlns:xlink="http://www.w3.org/1999/xlink">
<g stroke-linecap="round" transform="translate(44.00, 155.00)" id="183-번개-3">
<path d="M356.65,66.13 C356.65,66.13 356.65,65.99 356.65,65.99 C356.65,65.99 356.51,65.85 356.51,65.85 C356.51,65.85 356.37,65.85 356.37,65.85 C354.05,68.94 349.06,82.34 348.51,83.63 C344.88,91.89 335.59,116.53 335.73,117.61 C341.78,122.95 344.82,126.19 350.22,133.68 C351.80,135.94 354.74,139.36 354.90,139.80 C354.44,141.26 344.28,154.82 342.18,158.32 C337.44,166.16 333.89,172.63 333.65,173.41 C336.27,172.25 364.83,141.68 367.34,138.61 C367.81,138.03 375.12,127.81 375.44,127.37 C374.56,126.55 366.26,123.16 364.15,122.21 C360.71,120.64 357.78,118.53 356.03,116.64 C354.28,114.87 352.24,112.77 352.34,112.65 C355.92,107.21 364.23,94.69 368.97,87.60 C372.71,82.00 377.43,72.60 380.01,67.50 C373.87,66.65 356.01,64.30 355.26,63.86 C355.09,63.75 354.82,63.59 354.45,63.38" fill="none" stroke="rgb(229, 176, 76)" stroke-width="3.40" stroke-opacity="1.00" stroke-linejoin="round"/>
</g>
</svg>
