<?xml version="1.0" encoding="UTF-8" standalone="no"?>
<!DOCTYPE svg PUBLIC "-//W3C//DTD SVG 1.1//EN" "http://www.w3.org/Graphics/SVG/1.1/DTD/svg11.dtd">
<svg width="64.20" height="90.84" viewBox="0.00 0.00 535.00 757.00" xmlns="http://www.w3.org/2000/svg" xmlns:xlink="http://www.w3.org/1999/xlink">
<g stroke-linecap="round" transform="translate(44.00, 155.00)" id="183-번개-4">
<path d="M347.08,398.96 C347.08,398.96 347.08,398.55 347.08,398.55 C344.97,404.07 340.68,411.97 337.86,418.39 C335.41,424.00 331.38,433.09 329.80,436.57 C329.80,436.57 339.69,453.56 339.69,453.56 C339.58,453.81 336.16,459.18 334.92,461.60 C332.38,466.59 328.67,478.60 328.49,479.32 C328.80,479.20 332.83,475.44 335.68,473.29 C336.50,472.68 353.76,460.22 354.38,459.83 C354.54,459.61 348.73,449.35 347.40,444.72 C347.14,443.79 345.77,438.12 346.02,437.51 C346.06,437.39 356.02,423.63 358.84,418.78 C361.77,413.45 367.37,403.56 368.22,403.03 C367.95,402.69 356.25,402.35 348.61,402.19 C344.65,402.04 342.54,401.68 342.30,401.72 C342.23,401.73 342.13,401.76 342.00,401.81" fill="none" stroke="rgb(229, 176, 76)" stroke-width="3.40" stroke-opacity="1.00" stroke-linejoin="round"/>
<path d="M315.97,411.57 C315.96,410.59 316.50,409.17 317.81,408.68 C332.15,403.50 338.18,405.39 338.44,405.59 C338.44,405.59 321.83,417.27 321.83,417.27 C321.83,417.27 330.87,417.99 330.87,417.99 C330.87,417.99 323.55,424.71 323.55,424.71 C323.55,424.71 326.57,427.45 326.57,427.45 C326.57,427.45 321.74,432.00 321.74,432.00 C321.74,432.00 323.64,433.96 323.64,433.96 C323.34,435.06 317.24,439.02 317.07,439.13 C316.76,439.34 316.59,439.53 316.57,439.68 C316.57,439.68 320.33,441.63 320.33,441.63 C320.33,441.63 316.22,445.54 316.22,445.54 C316.22,445.54 319.64,447.16 319.64,447.16 C319.64,447.16 313.65,451.59 313.65,451.59 C313.65,451.59 315.96,453.98 315.96,453.98 C315.96,453.98 309.71,459.97 309.71,459.97 C309.71,459.97 313.29,462.32 313.29,462.32 C313.19,463.20 309.16,466.34 308.53,466.88 C306.73,468.41 305.77,469.59 305.73,470.17 C305.73,470.17 308.96,472.29 308.96,472.29 C308.96,472.29 305.39,474.24 305.39,474.24 C305.39,474.24 314.13,476.18 314.13,476.18 C314.13,476.18 303.18,483.14 303.18,483.14 C303.18,483.14 312.01,482.82 312.01,482.82 C312.01,482.82 305.05,490.35 305.05,490.35 C305.05,490.35 312.19,491.53 312.19,491.53 C312.19,491.53 303.81,497.81 303.81,497.81 C304.10,497.98 305.48,497.84 308.41,497.33 C309.46,497.15 309.67,497.14 309.99,497.20 C309.67,497.51 309.32,497.76 308.94,497.97 C308.56,498.17 307.62,498.60 306.12,499.26" fill="none" stroke="rgb(229, 176, 76)" stroke-width="3.40" stroke-opacity="1.00" stroke-linejoin="round"/>
<path d="M293.61,484.75 C293.61,484.75 293.31,483.74 293.31,483.74 C293.23,483.83 290.69,498.25 289.60,501.73 C288.80,504.21 285.59,510.96 285.33,511.85 C285.64,511.47 288.08,506.23 289.78,502.58 C292.17,497.54 293.71,494.66 295.72,491.59 C296.71,490.09 297.28,489.32 297.62,488.97 C297.69,489.61 297.60,494.58 297.55,497.72 C297.47,503.63 297.57,508.79 297.88,509.14 C297.88,509.14 298.57,506.78 298.57,506.78" fill="none" stroke="rgb(229, 176, 76)" stroke-width="3.40" stroke-opacity="1.00" stroke-linejoin="round"/>
<path d="M323.90,488.62 C323.90,488.62 322.38,487.50 322.38,487.50 C321.33,487.57 320.35,488.05 319.62,489.13 C318.63,490.59 314.92,498.46 314.49,498.81 C313.64,498.90 309.16,497.22 308.12,497.46 C305.15,498.23 301.20,504.19 300.86,504.27 C300.47,503.73 299.46,502.40 298.89,502.27 C298.23,502.15 296.64,504.56 296.40,504.99 C295.96,505.73 292.96,505.00 292.28,505.29 C289.55,506.58 288.20,515.34 287.87,516.10 C285.81,515.58 283.82,516.29 283.04,517.26 C280.17,521.00 277.77,529.02 277.81,529.35 C277.81,529.35 288.31,528.24 288.31,528.24 C288.31,528.24 285.23,534.41 285.23,534.41 C285.23,534.41 289.73,537.13 289.73,537.13 C289.70,538.52 288.27,540.06 286.16,541.85 C284.36,543.37 282.51,544.90 282.12,545.38 C282.12,545.38 285.24,546.18 285.24,546.18 C285.64,547.00 283.07,552.19 282.94,552.55 C282.88,552.76 282.98,554.80 281.53,556.38 C279.76,558.25 278.96,559.91 279.34,560.53 C280.57,562.48 280.71,564.05 279.75,565.12 C278.29,566.70 274.87,568.95 274.42,569.25 C274.42,569.25 277.66,570.05 277.66,570.05 C277.55,571.20 272.11,575.40 271.83,575.93 C271.75,576.12 271.69,576.47 271.67,576.98 C271.67,576.98 278.68,580.12 278.68,580.12 C278.68,580.12 277.33,582.58 277.33,582.58 C277.64,583.78 283.04,586.46 283.54,587.25 C283.65,587.44 283.75,587.81 283.84,588.38 C283.84,588.38 278.52,593.03 278.52,593.03 C280.60,594.45 290.79,595.96 296.20,596.70 C298.86,597.12 304.97,598.35 306.81,598.54 C314.31,599.25 324.16,596.82 324.22,596.50 C324.22,596.50 308.49,587.24 308.49,587.24 C315.98,586.38 317.76,584.32 318.11,583.61 C318.11,583.61 314.01,580.54 314.01,580.54 C314.13,579.79 318.81,577.22 319.52,576.29 C319.67,576.09 319.88,575.68 320.15,575.07 C320.15,575.07 318.14,572.14 318.14,572.14 C318.28,571.99 324.83,570.73 326.01,569.87 C326.18,569.74 326.47,569.45 326.88,569.00 C326.88,569.00 320.83,566.80 320.83,566.80 C320.83,566.80 326.09,563.66 326.09,563.66 C326.09,563.66 322.28,562.01 322.28,562.01 C322.28,562.01 325.54,557.92 325.54,557.92 C325.54,557.92 317.61,553.50 317.61,553.50 C317.81,552.57 318.44,551.67 319.89,550.48 C320.89,549.65 325.47,546.02 325.35,545.60 C325.35,545.60 317.24,539.13 317.24,539.13 C317.24,539.13 319.62,539.13 319.62,539.13 C319.62,539.13 304.51,529.56 304.51,529.56 C304.51,529.56 320.53,529.02 320.53,529.02 C320.53,529.02 314.69,525.76 314.69,525.76 C314.69,525.76 328.78,526.43 328.78,526.43" fill="none" stroke="rgb(229, 176, 76)" stroke-width="3.40" stroke-opacity="1.00" stroke-linejoin="round"/>
<path d="M341.39,525.41 C341.39,525.41 339.96,525.51 339.96,525.51 C340.16,528.06 342.22,529.34 342.59,529.48 C342.64,529.50 344.51,528.23 345.30,528.01 C345.70,527.91 357.44,527.01 357.83,526.96 C358.70,526.86 361.78,528.88 362.71,528.97 C363.81,529.04 364.93,527.55 365.69,525.63 C369.71,526.21 377.84,526.59 378.23,526.26 C378.84,525.70 379.47,523.02 379.40,519.91 C379.34,517.93 378.78,517.33 379.12,515.60 C379.82,512.14 384.72,502.69 384.95,502.45 C384.95,502.45 385.97,488.50 385.97,488.50 C385.97,488.50 385.56,491.04 385.56,491.04 C385.56,491.04 384.41,485.16 384.41,485.16 C383.01,485.87 381.80,489.28 379.84,495.25 C379.65,495.85 379.20,497.18 379.17,497.22 C376.96,500.91 373.12,505.84 372.18,506.99 C372.34,506.06 372.94,503.00 372.62,501.76 C372.34,500.83 371.34,499.82 370.31,499.45 C369.63,499.22 364.42,498.50 363.55,498.23 C363.55,498.23 358.88,495.24 358.88,495.24 C358.88,495.24 363.24,491.71 363.24,491.71 C363.24,491.71 360.83,490.64 360.83,490.64 C360.76,489.77 362.74,487.94 366.83,484.64 C372.54,480.15 373.27,479.45 373.52,478.93 C372.14,479.13 358.76,484.83 354.67,485.82 C353.22,486.16 351.98,486.30 350.38,486.34 C350.38,486.34 366.86,475.01 366.86,475.01 C364.68,473.60 349.61,478.85 348.02,479.33 C352.71,474.57 366.36,467.11 368.46,465.88 C368.46,465.88 350.15,473.77 350.15,473.77 C350.15,473.77 370.66,456.51 370.66,456.51 C370.66,456.51 353.78,463.81 353.78,463.81 C353.78,463.81 370.99,449.89 370.99,449.89 C370.99,449.89 352.49,458.12 352.49,458.12 C353.32,456.17 356.98,452.32 359.14,450.07 C366.70,442.35 369.45,439.20 369.70,438.22 C367.60,437.50 365.75,437.52 363.06,438.41 C360.20,439.39 354.99,441.18 353.05,441.76 C353.05,441.76 376.67,431.35 376.67,431.35 C375.67,430.85 371.29,432.19 368.21,433.53 C365.46,434.75 360.59,436.92 359.67,437.28 C359.67,437.28 380.55,428.30 380.55,428.30 C380.55,428.30 364.11,426.64 364.11,426.64 C364.11,426.64 378.96,418.34 378.96,418.34 C378.96,418.34 364.47,416.80 364.47,416.80 C364.47,416.80 375.77,411.63 375.77,411.63 C375.77,411.63 370.66,410.35 370.66,410.35 C370.66,410.35 373.67,406.94 373.67,406.94 C373.29,406.05 372.20,405.51 369.86,405.17 C369.23,405.08 367.75,404.89 367.72,404.82 C367.72,404.82 368.74,403.91 368.74,403.91 C368.64,403.14 365.09,401.32 364.55,400.97 C364.36,400.84 364.14,400.60 363.91,400.23 C363.91,400.23 364.90,399.16 364.90,399.16 C364.90,399.16 357.55,399.48 357.55,399.48 C357.55,399.48 359.03,396.34 359.03,396.34 C359.03,396.34 358.34,395.61 358.34,395.61" fill="none" stroke="rgb(229, 176, 76)" stroke-width="3.40" stroke-opacity="1.00" stroke-linejoin="round"/>
<path d="M353.99,409.74 C353.99,409.74 353.63,409.02 353.63,409.02 C353.40,409.03 331.04,436.74 337.05,436.97 C337.60,436.92 344.43,433.11 346.31,432.56 C346.71,432.44 347.17,432.41 347.67,432.45 C347.85,434.56 347.53,436.02 346.38,438.08 C344.37,441.81 337.73,453.13 337.23,453.92 C337.23,453.92 337.12,451.44 337.12,451.44" fill="none" stroke="rgb(229, 176, 76)" stroke-width="3.40" stroke-opacity="1.00" stroke-linejoin="round"/>
<path d="M331.43,482.52 C331.43,482.52 329.11,480.57 329.11,480.57 C330.44,479.25 342.03,479.99 342.60,480.10 C342.60,480.10 330.66,491.21 330.66,491.21 C330.66,491.21 344.91,489.74 344.91,489.74 C344.91,489.74 339.16,496.08 339.16,496.08 C339.16,496.08 353.93,497.29 353.93,497.29 C353.78,497.84 350.69,501.47 350.25,502.07 C350.21,502.12 350.17,502.18 350.13,502.24" fill="none" stroke="rgb(229, 176, 76)" stroke-width="3.40" stroke-opacity="1.00" stroke-linejoin="round"/>
<path d="M315.16,418.07 C315.06,417.96 314.46,419.92 313.23,424.59 C311.31,431.92 309.67,443.19 310.28,445.71 C310.28,445.71 309.96,442.97 309.96,442.97" fill="none" stroke="rgb(229, 176, 76)" stroke-width="3.40" stroke-opacity="1.00" stroke-linejoin="round"/>
<path d="M302.76,436.77 C302.75,436.73 300.34,450.81 298.91,455.78 C298.42,457.46 297.60,460.26 297.27,461.37 C297.27,461.37 297.27,461.06 297.27,461.06" fill="none" stroke="rgb(229, 176, 76)" stroke-width="3.40" stroke-opacity="1.00" stroke-linejoin="round"/>
<path d="M337.12,398.15 C337.31,397.74 337.45,397.44 337.52,397.23 C337.60,397.03 337.72,396.65 337.90,396.08 C336.63,399.35 333.94,406.30 333.75,407.13 C333.72,407.27 333.73,407.36 333.80,407.39 C333.80,407.39 334.44,407.34 334.44,407.34" fill="none" stroke="rgb(229, 176, 76)" stroke-width="3.40" stroke-opacity="1.00" stroke-linejoin="round"/>
<path d="M316.38,480.69 C316.38,480.69 315.67,479.77 315.67,479.77 C315.70,479.23 316.08,478.55 316.96,477.84 C320.65,474.86 327.74,473.33 327.73,473.37 C327.57,473.36 327.32,473.48 327.02,473.42 C326.76,473.37 326.00,473.17 324.74,472.83" fill="none" stroke="rgb(229, 176, 76)" stroke-width="3.40" stroke-opacity="1.00" stroke-linejoin="round"/>
<path d="M315.16,452.23 C315.16,452.23 315.21,451.72 315.21,451.72 C316.30,454.98 318.55,459.24 321.15,461.31 C321.44,461.53 321.84,461.80 322.36,462.14 C320.93,461.49 320.09,454.91 319.83,452.61 C319.70,451.65 319.15,448.57 319.18,448.26 C319.19,448.05 319.32,447.78 319.55,447.44 C319.55,447.44 323.12,449.34 323.12,449.34 C323.85,449.00 324.42,448.31 324.85,447.08 C325.36,445.57 325.51,441.13 325.53,440.23" fill="none" stroke="rgb(229, 176, 76)" stroke-width="3.40" stroke-opacity="1.00" stroke-linejoin="round"/>
</g>
</svg>
