<?xml version="1.0" encoding="UTF-8" standalone="no"?>
<!DOCTYPE svg PUBLIC "-//W3C//DTD SVG 1.1//EN" "http://www.w3.org/Graphics/SVG/1.1/DTD/svg11.dtd">
<svg width="64.20" height="90.84" viewBox="0.00 0.00 535.00 757.00" xmlns="http://www.w3.org/2000/svg" xmlns:xlink="http://www.w3.org/1999/xlink">
<g stroke-linecap="round" transform="translate(44.00, 155.00)" id="183-번개-2">
<path d="M276.93,94.72 C276.94,94.75 277.11,94.75 277.43,94.72 C281.14,94.26 289.38,90.89 290.95,90.32 C290.95,90.32 276.68,122.86 276.68,122.86 C276.81,122.93 294.23,119.77 294.86,119.62 C295.32,119.51 296.12,119.26 297.27,118.87 C297.37,119.50 296.85,123.92 296.05,126.04 C295.15,128.33 287.19,140.19 285.35,142.98 C279.73,151.16 275.09,157.04 272.65,160.45 C268.84,165.80 264.29,170.63 257.69,178.01 C257.72,175.67 257.79,171.41 258.96,168.48 C259.82,166.40 274.58,143.50 278.30,139.00 C282.32,134.09 282.88,130.45 282.90,130.01 C281.39,129.14 278.89,129.45 277.31,130.05 C276.02,130.56 268.00,135.30 266.23,135.97 C262.30,137.41 257.53,138.68 257.51,138.63 C257.88,137.32 265.86,125.68 266.30,125.00 C266.51,124.67 270.39,118.12 271.52,116.21" fill="none" stroke="rgb(229, 176, 76)" stroke-width="3.40" stroke-opacity="1.00" stroke-linejoin="round"/>
<path d="M271.98,115.61 C273.07,113.75 273.81,112.87 274.01,112.61 C275.18,111.06 279.14,101.43 282.44,96.39 C282.71,95.97 283.12,95.38 283.65,94.61 C283.65,94.61 283.53,95.82 283.53,95.82" fill="none" stroke="rgb(229, 176, 76)" stroke-width="3.40" stroke-opacity="1.00" stroke-linejoin="round"/>
</g>
</svg>
