<?xml version="1.0" encoding="UTF-8" standalone="no"?>
<!DOCTYPE svg PUBLIC "-//W3C//DTD SVG 1.1//EN" "http://www.w3.org/Graphics/SVG/1.1/DTD/svg11.dtd">
<svg width="64.20" height="90.84" viewBox="0.00 0.00 535.00 757.00" xmlns="http://www.w3.org/2000/svg" xmlns:xlink="http://www.w3.org/1999/xlink">
<g stroke-linecap="round" transform="translate(44.00, 155.00)" id="183-사람-2">
<path d="M169.33,545.89 C169.37,545.84 168.26,547.00 167.84,547.38 C166.83,548.31 165.10,549.68 164.92,549.88 C162.91,552.30 161.77,558.33 162.11,560.23 C162.38,561.54 164.13,564.20 166.52,565.44 C168.85,566.59 175.83,566.97 178.85,566.38 C181.78,565.77 186.07,562.79 187.03,561.34 C187.90,559.93 188.53,556.55 188.10,555.19 C187.66,553.86 185.35,550.70 183.74,549.56 C181.92,548.31 177.46,546.99 174.40,546.81 C171.80,546.68 168.13,548.00 166.91,548.48" fill="none" stroke="rgb(195, 76, 229)" stroke-width="3.40" stroke-opacity="1.00" stroke-linejoin="round"/>
<path d="M166.20,566.35 C166.20,566.35 166.20,566.07 166.20,566.07 C166.58,565.54 167.00,565.15 168.36,564.10 C169.14,563.51 174.66,559.48 178.35,557.82 C180.30,556.97 183.56,555.56 184.88,555.00 C184.88,555.00 183.82,554.99 183.82,554.99" fill="none" stroke="rgb(195, 76, 229)" stroke-width="3.40" stroke-opacity="1.00" stroke-linejoin="round"/>
<path d="M168.48,552.43 C168.48,552.43 167.91,552.43 167.91,552.43 C167.91,552.43 167.34,553.07 167.34,553.07 C167.33,555.41 167.97,558.42 170.35,559.35 C170.35,559.35 174.16,557.26 174.16,557.26" fill="none" stroke="rgb(195, 76, 229)" stroke-width="3.40" stroke-opacity="1.00" stroke-linejoin="round"/>
<path d="M179.56,550.15 C178.10,553.81 177.44,557.84 177.63,560.49 C177.68,561.17 177.95,562.17 178.42,563.80" fill="none" stroke="rgb(195, 76, 229)" stroke-width="3.40" stroke-opacity="1.00" stroke-linejoin="round"/>
<path d="M167.06,568.34 C166.57,568.33 165.59,568.43 165.14,568.63 C164.17,569.09 161.95,573.03 161.59,575.51 C161.39,577.02 161.39,582.83 161.87,583.86 C162.36,584.83 164.16,585.02 165.13,584.27 C166.02,583.52 169.86,574.62 170.31,573.94 C171.10,572.71 172.65,571.57 173.40,571.37 C173.81,571.80 173.73,577.54 174.55,580.48 C174.78,581.26 175.66,582.12 176.16,582.36 C177.03,582.68 181.42,581.09 182.27,580.36 C183.07,579.62 183.80,577.40 183.63,574.61 C183.58,573.73 183.29,569.88 183.36,569.94 C184.34,573.49 185.44,576.51 186.25,577.36 C187.20,578.26 190.55,578.79 192.86,577.87 C194.01,577.39 195.21,575.53 194.83,574.58 C194.40,573.64 191.77,572.49 188.92,572.39 C187.60,572.34 186.13,572.53 185.26,572.76 C186.20,572.97 190.18,572.16 191.16,571.57 C192.04,571.00 192.28,569.18 190.90,567.37 C189.91,566.11 185.59,563.17 185.31,563.14 C185.05,563.12 184.25,563.13 182.91,563.18" fill="none" stroke="rgb(195, 76, 229)" stroke-width="3.40" stroke-opacity="1.00" stroke-linejoin="round"/>
<path d="M173.88,580.28 C173.88,580.28 172.97,579.57 172.97,579.57 C172.52,579.54 170.28,582.41 169.20,585.22 C168.31,587.64 167.75,593.83 168.10,595.18 C168.41,596.15 170.62,596.79 172.38,596.85 C174.90,596.89 177.44,596.24 178.52,595.14 C180.40,593.11 179.38,582.16 179.33,582.07 C179.33,582.07 181.99,596.77 181.99,596.77 C182.88,596.65 185.12,594.50 185.83,591.76 C186.28,589.94 186.11,586.59 185.49,584.74 C184.43,581.75 182.99,580.15 182.81,579.81 C182.67,579.55 182.38,578.87 181.93,577.78" fill="none" stroke="rgb(195, 76, 229)" stroke-width="3.40" stroke-opacity="1.00" stroke-linejoin="round"/>
</g>
</svg>
