<?xml version="1.0" encoding="UTF-8" standalone="no"?>
<!DOCTYPE svg PUBLIC "-//W3C//DTD SVG 1.1//EN" "http://www.w3.org/Graphics/SVG/1.1/DTD/svg11.dtd">
<svg width="64.20" height="90.84" viewBox="0.00 0.00 535.00 757.00" xmlns="http://www.w3.org/2000/svg" xmlns:xlink="http://www.w3.org/1999/xlink">
<g stroke-linecap="round" transform="translate(156.00, 267.00)" id="184-비">
<path d="M-90.38,-220.09 C-91.59,-209.08 -91.92,-200.03 -91.47,-195.53 C-91.14,-192.30 -84.28,-142.11 -84.20,-141.02 C-83.79,-135.02 -82.64,-92.00 -82.26,-74.85 C-82.11,-56.32 -83.38,-29.51 -84.31,-13.75 C-85.53,3.94 -87.73,23.78 -88.00,25.84 C-88.00,25.84 -86.98,24.98 -86.98,24.98" fill="none" stroke="rgb(0, 165, 255)" stroke-width="3.45" stroke-opacity="1.00" stroke-linejoin="round"/>
<path d="M-110.74,52.82 C-110.74,52.82 -111.76,52.82 -111.76,52.82 C-111.76,52.82 -112.10,53.15 -112.10,53.15 C-111.90,72.21 -109.07,98.56 -108.78,112.51 C-108.73,124.74 -112.89,204.17 -114.72,236.45 C-116.03,257.54 -115.94,278.37 -115.79,293.50 C-115.74,294.81 -115.65,296.89 -115.62,297.66 C-115.62,297.66 -114.82,295.85 -114.82,295.85" fill="none" stroke="rgb(0, 165, 255)" stroke-width="3.45" stroke-opacity="1.00" stroke-linejoin="round"/>
<path d="M-126.36,301.28 C-126.38,303.75 -125.76,307.90 -124.96,312.21 C-120.06,338.00 -119.48,344.22 -119.57,346.46 C-119.57,346.46 -119.57,346.24 -119.57,346.24" fill="none" stroke="rgb(0, 165, 255)" stroke-width="3.45" stroke-opacity="1.00" stroke-linejoin="round"/>
<path d="M-12.99,-216.70 C-12.99,-216.70 -15.02,-217.38 -15.02,-217.38 C-13.59,-209.34 -12.28,-195.68 -11.58,-187.90 C-10.85,-177.97 -11.89,-142.11 -12.39,-125.33 C-12.86,-96.23 -13.59,-59.47 -13.86,-51.82 C-13.96,-48.83 -14.25,-44.76 -14.33,-43.72" fill="none" stroke="rgb(0, 165, 255)" stroke-width="3.45" stroke-opacity="1.00" stroke-linejoin="round"/>
<path d="M13.49,-168.50 C13.59,-168.36 12.84,-166.70 12.81,-166.51 C12.67,-165.59 9.94,-76.70 9.27,-46.56 C9.03,-38.99 8.23,-21.61 8.25,-21.38 C8.29,-21.02 8.45,-20.50 8.74,-19.82" fill="none" stroke="rgb(0, 165, 255)" stroke-width="3.45" stroke-opacity="1.00" stroke-linejoin="round"/>
<path d="M53.54,-68.70 C53.54,-68.70 52.86,-68.70 52.86,-68.70 C54.05,-60.08 55.27,-45.30 55.88,-37.27 C56.61,-25.09 56.85,-12.75 55.77,-6.12 C55.00,-1.58 51.52,11.16 51.04,13.13 C51.04,13.13 50.83,12.82 50.83,12.82" fill="none" stroke="rgb(0, 165, 255)" stroke-width="3.45" stroke-opacity="1.00" stroke-linejoin="round"/>
<path d="M-0.09,-0.82 C-1.25,1.74 -1.42,7.94 -1.45,12.68 C-1.22,27.71 -0.88,51.86 -0.77,52.56 C-0.66,53.17 -0.29,54.45 0.33,56.40" fill="none" stroke="rgb(0, 165, 255)" stroke-width="3.45" stroke-opacity="1.00" stroke-linejoin="round"/>
<path d="M-42.18,74.54 C-42.18,74.54 -42.52,74.54 -42.52,74.54 C-42.95,76.71 -41.20,92.17 -40.86,100.55 C-40.61,108.82 -42.75,126.29 -43.54,130.03 C-43.54,130.03 -42.18,125.45 -42.18,125.45" fill="none" stroke="rgb(0, 165, 255)" stroke-width="3.45" stroke-opacity="1.00" stroke-linejoin="round"/>
<path d="M-27.92,109.84 C-28.64,113.24 -30.25,117.97 -31.43,120.84 C-32.27,122.90 -33.59,129.29 -33.30,130.00 C-33.13,130.38 -32.59,131.27 -31.67,132.68" fill="none" stroke="rgb(0, 165, 255)" stroke-width="3.45" stroke-opacity="1.00" stroke-linejoin="round"/>
<path d="M-51.00,134.28 C-51.00,137.14 -51.01,142.86 -51.03,145.71 C-51.09,149.51 -50.04,161.63 -49.73,173.10 C-49.69,189.10 -49.59,222.15 -50.01,231.29 C-50.36,238.31 -51.01,255.33 -50.72,259.19 C-50.68,259.64 -50.57,260.63 -50.39,262.16" fill="none" stroke="rgb(0, 165, 255)" stroke-width="3.45" stroke-opacity="1.00" stroke-linejoin="round"/>
<path d="M58.30,-252.68 C58.30,-252.68 57.62,-253.36 57.62,-253.36 C57.53,-243.07 55.66,-216.17 55.57,-194.80 C55.45,-164.68 54.89,-117.36 55.02,-116.03 C55.02,-116.03 57.32,-114.93 57.32,-114.93" fill="none" stroke="rgb(0, 165, 255)" stroke-width="3.45" stroke-opacity="1.00" stroke-linejoin="round"/>
<path d="M143.83,-252.68 C143.83,-252.68 143.49,-252.34 143.49,-252.34 C143.11,-249.54 142.74,-242.98 142.48,-238.56 C141.94,-231.65 140.71,-216.84 140.01,-208.93 C139.02,-199.52 133.89,-170.68 132.24,-153.69 C131.57,-147.24 130.35,-135.98 128.55,-125.03 C120.99,-85.74 117.15,-59.28 116.74,-55.96 C116.74,-55.96 120.62,-55.71 120.62,-55.71" fill="none" stroke="rgb(0, 165, 255)" stroke-width="3.45" stroke-opacity="1.00" stroke-linejoin="round"/>
<path d="M143.83,-42.23 C143.83,-42.23 143.15,-42.23 143.15,-42.23 C143.03,-39.96 143.44,-32.29 144.46,-19.01 C145.70,0.77 147.40,17.30 147.25,21.90 C147.25,21.90 147.77,22.26 147.77,22.26" fill="none" stroke="rgb(0, 165, 255)" stroke-width="3.45" stroke-opacity="1.00" stroke-linejoin="round"/>
<path d="M204.25,-247.25 C202.84,-243.75 201.68,-238.67 201.37,-235.35 C200.40,-223.63 195.11,-179.93 194.66,-173.39 C194.60,-172.56 193.53,-151.93 192.91,-144.95 C189.64,-116.05 180.29,-39.22 180.43,-38.35 C180.52,-37.81 182.08,-34.50 182.88,-32.64" fill="none" stroke="rgb(0, 165, 255)" stroke-width="3.45" stroke-opacity="1.00" stroke-linejoin="round"/>
<path d="M211.72,-18.47 C211.72,-18.98 211.72,-19.50 211.72,-20.02 C211.72,-20.18 211.72,-20.34 211.72,-20.50 C211.32,-11.66 208.14,16.39 206.92,36.31 C206.78,38.31 206.49,42.50 206.59,43.30 C206.66,43.84 206.93,45.02 207.39,46.82" fill="none" stroke="rgb(0, 165, 255)" stroke-width="3.45" stroke-opacity="1.00" stroke-linejoin="round"/>
<path d="M219.87,79.97 C219.87,79.97 219.87,79.29 219.87,79.29 C219.87,80.07 219.88,81.99 219.89,83.13 C219.95,91.54 218.05,133.50 217.85,145.03 C217.88,152.36 217.17,213.42 217.59,221.70 C217.59,221.70 218.99,216.75 218.99,216.75" fill="none" stroke="rgb(0, 165, 255)" stroke-width="3.45" stroke-opacity="1.00" stroke-linejoin="round"/>
<path d="M250.42,-242.49 C251.57,-241.47 253.32,-237.73 253.68,-235.43 C254.63,-228.87 252.50,-202.01 252.46,-178.64 C252.32,-164.26 251.85,-144.97 252.27,-122.87 C252.29,-111.12 250.77,-74.27 249.38,-65.14 C248.95,-62.30 248.98,-57.66 249.06,-55.80" fill="none" stroke="rgb(0, 165, 255)" stroke-width="3.45" stroke-opacity="1.00" stroke-linejoin="round"/>
<path d="M305.41,-221.45 C305.41,-221.45 304.39,-221.45 304.39,-221.45 C303.72,-219.96 300.10,-201.91 298.57,-193.95 C296.36,-181.83 292.72,-151.21 290.88,-136.36 C284.63,-86.82 276.54,-34.12 274.22,-13.05 C272.95,2.12 270.75,27.77 268.43,45.34 C267.33,52.93 264.86,69.05 263.46,73.10 C263.21,73.81 262.04,76.77 261.69,77.65" fill="none" stroke="rgb(0, 165, 255)" stroke-width="3.45" stroke-opacity="1.00" stroke-linejoin="round"/>
<path d="M309.48,-55.80 C309.48,-55.80 307.78,-55.80 307.78,-55.80 C307.24,-55.67 304.04,-39.89 302.56,-32.74 C299.93,-21.19 291.91,4.74 289.45,19.32 C286.62,33.79 281.25,63.44 278.97,79.06 C276.60,95.58 271.27,132.42 269.95,139.39 C259.14,191.72 253.16,214.96 251.97,221.14 C251.97,221.14 253.81,222.53 253.81,222.53" fill="none" stroke="rgb(0, 165, 255)" stroke-width="3.45" stroke-opacity="1.00" stroke-linejoin="round"/>
<path d="M325.77,78.61 C325.77,78.61 325.09,77.25 325.09,77.25 C324.09,81.00 321.61,96.01 320.43,103.43 C320.39,103.72 311.08,197.64 311.05,197.73 C310.60,199.18 310.76,199.82 312.15,201.88 C312.49,202.37 312.98,203.16 313.65,204.23" fill="none" stroke="rgb(0, 165, 255)" stroke-width="3.45" stroke-opacity="1.00" stroke-linejoin="round"/>
<path d="M233.44,253.76 C233.44,253.76 232.77,253.76 232.77,253.76 C232.19,254.36 231.99,255.09 232.02,256.92 C232.25,272.59 234.10,300.71 234.10,313.85 C233.67,333.41 231.73,341.56 231.15,343.44 C231.15,343.44 233.44,340.66 233.44,340.66" fill="none" stroke="rgb(0, 165, 255)" stroke-width="3.45" stroke-opacity="1.00" stroke-linejoin="round"/>
<path d="M287.75,275.49 C287.75,275.49 286.85,275.49 286.85,275.49 C285.56,279.33 284.31,293.52 283.77,300.41 C282.20,318.95 278.79,337.92 278.27,341.15 C278.27,341.15 278.75,338.80 278.75,338.80" fill="none" stroke="rgb(0, 165, 255)" stroke-width="3.45" stroke-opacity="1.00" stroke-linejoin="round"/>
</g>
</svg>
