<?xml version="1.0" encoding="UTF-8" standalone="no"?>
<!DOCTYPE svg PUBLIC "-//W3C//DTD SVG 1.1//EN" "http://www.w3.org/Graphics/SVG/1.1/DTD/svg11.dtd">
<svg width="64.20" height="90.84" viewBox="0.00 0.00 535.00 757.00" xmlns="http://www.w3.org/2000/svg" xmlns:xlink="http://www.w3.org/1999/xlink">
<g stroke-linecap="round" transform="translate(154.00, 267.00)" id="184-사람-2">
<path d="M114.04,187.07 C113.85,187.10 113.25,186.90 113.00,186.86 C111.48,186.68 105.16,188.99 103.11,190.67 C101.37,192.17 98.77,197.75 98.22,200.93 C97.70,204.17 98.20,209.87 99.51,212.03 C100.85,214.17 104.35,216.58 105.63,217.03 C108.89,218.14 115.72,219.03 118.58,218.79 C121.50,218.51 127.33,216.17 129.04,214.71 C130.70,213.22 132.70,208.36 132.83,205.99 C132.91,203.72 131.10,199.14 129.40,197.06 C127.42,194.69 121.35,190.47 118.71,189.70 C117.92,189.47 113.85,188.69 112.64,188.46" fill="none" stroke="rgb(153, 255, 169)" stroke-width="3.45" stroke-opacity="1.00" stroke-linejoin="round"/>
<path d="M103.09,193.82 C104.51,193.83 105.62,193.81 106.94,193.73 C112.09,193.32 118.69,192.82 119.12,192.96 C119.12,192.96 116.82,196.21 116.82,196.21 C117.30,196.69 122.49,196.89 123.23,197.02 C123.83,197.13 125.36,198.15 125.45,198.18 C125.74,198.28 126.36,198.38 127.33,198.49" fill="none" stroke="rgb(153, 255, 169)" stroke-width="3.45" stroke-opacity="1.00" stroke-linejoin="round"/>
<path d="M106.12,202.21 C106.08,202.21 106.04,202.21 106.00,202.21 C105.96,202.21 105.92,202.21 105.89,202.21 C106.06,202.67 107.54,203.78 108.73,203.35 C109.82,202.92 110.02,201.97 109.95,201.60 C109.95,201.60 108.21,201.08 108.21,201.08 C108.21,201.08 106.82,202.68 106.82,202.68" fill="none" stroke="rgb(153, 255, 169)" stroke-width="3.45" stroke-opacity="1.00" stroke-linejoin="round"/>
<path d="M105.19,211.30 C105.45,211.12 105.97,210.84 106.76,210.60 C110.55,209.49 114.47,208.88 114.72,209.10 C115.61,211.11 113.36,214.02 112.03,214.39 C111.18,214.61 108.92,215.05 107.75,215.26" fill="none" stroke="rgb(153, 255, 169)" stroke-width="3.45" stroke-opacity="1.00" stroke-linejoin="round"/>
<path d="M94.93,215.73 C94.93,215.73 91.25,217.57 91.25,217.57 C91.25,217.57 91.95,217.60 91.95,217.60" fill="none" stroke="rgb(153, 255, 169)" stroke-width="3.45" stroke-opacity="1.00" stroke-linejoin="round"/>
<path d="M98.43,219.23 C98.17,219.55 97.22,219.95 95.13,221.42 C94.88,221.60 94.50,221.82 94.02,222.08 C94.02,222.08 94.56,222.06 94.56,222.06" fill="none" stroke="rgb(153, 255, 169)" stroke-width="3.45" stroke-opacity="1.00" stroke-linejoin="round"/>
<path d="M103.32,222.02 C102.30,222.69 100.42,223.94 100.04,224.30 C99.83,224.49 98.91,225.46 98.91,225.46 C98.91,225.46 99.08,224.97 99.08,224.97" fill="none" stroke="rgb(153, 255, 169)" stroke-width="3.45" stroke-opacity="1.00" stroke-linejoin="round"/>
<path d="M82.11,221.09 C81.38,220.76 80.93,220.57 80.77,220.51 C79.91,220.22 77.95,221.94 77.54,224.01 C77.35,225.07 77.48,226.87 77.83,227.55 C79.06,229.79 84.81,229.24 85.30,229.05 C84.69,229.71 84.46,232.12 85.00,233.02 C86.06,234.65 88.78,233.98 89.19,233.84 C88.84,235.14 88.68,236.76 89.13,237.50 C89.51,238.07 92.29,238.02 92.91,238.65 C93.04,238.78 93.30,239.09 93.70,239.59 C93.70,239.59 97.96,239.27 97.96,239.27" fill="none" stroke="rgb(153, 255, 169)" stroke-width="3.45" stroke-opacity="1.00" stroke-linejoin="round"/>
<path d="M109.61,220.86 C109.61,220.86 109.38,220.97 109.38,220.97 C109.38,220.97 109.64,227.59 109.64,227.59 C109.64,227.59 118.82,226.88 118.82,226.88 C118.82,226.88 118.52,220.43 118.52,220.43 C118.32,222.53 118.59,232.96 119.23,242.74 C119.51,249.71 119.90,259.27 119.52,259.69 C119.41,259.80 119.28,259.90 119.17,260.01" fill="none" stroke="rgb(153, 255, 169)" stroke-width="3.45" stroke-opacity="1.00" stroke-linejoin="round"/>
<path d="M107.05,225.29 C107.05,225.29 106.32,225.32 106.32,225.32 C105.00,226.68 108.15,264.41 109.23,264.97 C109.95,265.26 116.34,264.94 116.67,264.88 C117.10,264.80 118.13,264.34 119.87,263.51" fill="none" stroke="rgb(153, 255, 169)" stroke-width="3.45" stroke-opacity="1.00" stroke-linejoin="round"/>
<path d="M111.01,235.07 C111.01,235.07 110.90,235.07 110.90,235.07 C110.68,235.41 110.84,240.82 111.16,244.55 C111.58,248.90 112.17,252.89 112.77,254.39 C113.21,255.43 114.68,255.64 116.23,254.65 C116.59,254.42 116.95,254.19 117.30,253.95" fill="none" stroke="rgb(153, 255, 169)" stroke-width="3.45" stroke-opacity="1.00" stroke-linejoin="round"/>
<path d="M106.58,263.51 C106.00,267.46 100.93,281.98 100.09,284.82 C97.75,292.79 94.53,312.47 94.81,312.71 C97.03,314.35 102.41,316.59 103.21,316.89 C103.71,316.11 106.97,301.07 108.80,295.60 C110.33,291.08 114.16,283.42 114.48,282.78 C114.67,282.47 118.37,287.81 119.35,290.50 C122.11,298.34 121.86,325.38 121.32,325.39 C115.89,325.78 110.57,326.30 108.17,326.96 C105.68,327.67 103.96,329.43 103.66,330.31 C103.36,331.27 103.64,333.50 104.15,334.58 C104.70,335.71 106.39,337.30 107.39,337.72 C111.35,339.28 120.57,338.16 129.75,336.62 C130.93,336.42 131.48,336.27 131.94,336.06 C131.96,335.96 129.21,319.29 129.26,311.67 C129.30,307.81 130.61,292.94 130.11,287.36 C129.61,282.36 125.29,273.67 120.77,266.31 C119.94,264.99 119.29,264.00 118.70,263.17 C118.70,263.17 117.77,263.27 117.77,263.27" fill="none" stroke="rgb(153, 255, 169)" stroke-width="3.45" stroke-opacity="1.00" stroke-linejoin="round"/>
<path d="M121.50,324.10 C121.50,324.10 120.16,324.33 120.16,324.33 C120.76,324.32 125.46,323.66 126.05,323.64 C126.20,323.63 126.45,323.63 126.82,323.64" fill="none" stroke="rgb(153, 255, 169)" stroke-width="3.45" stroke-opacity="1.00" stroke-linejoin="round"/>
<path d="M94.70,314.08 C94.02,314.28 93.67,314.32 91.95,314.31 C89.16,314.29 80.27,312.75 78.00,313.16 C75.70,313.61 73.18,315.51 72.61,316.44 C71.96,317.54 71.52,320.31 71.84,321.68 C72.16,322.94 74.29,326.03 77.00,328.01 C80.21,330.33 91.57,334.73 95.98,336.10 C96.93,335.49 97.86,331.10 99.11,326.04 C99.91,322.89 100.92,320.11 101.35,319.26 C101.77,318.48 102.19,317.69 102.60,316.91" fill="none" stroke="rgb(153, 255, 169)" stroke-width="3.45" stroke-opacity="1.00" stroke-linejoin="round"/>
</g>
</svg>
