<?xml version="1.0" encoding="UTF-8" standalone="no"?>
<!DOCTYPE svg PUBLIC "-//W3C//DTD SVG 1.1//EN" "http://www.w3.org/Graphics/SVG/1.1/DTD/svg11.dtd">
<svg width="64.20" height="90.84" viewBox="0.00 0.00 535.00 757.00" xmlns="http://www.w3.org/2000/svg" xmlns:xlink="http://www.w3.org/1999/xlink">
<g stroke-linecap="round" transform="translate(44.00, 155.00)" id="185-지면">
<path d="M311.21,499.90" fill="none" stroke="rgb(86, 73, 61)" stroke-width="3.19" stroke-opacity="1.00" stroke-linejoin="round"/>
<path d="M-39.82,503.21 C-39.82,503.21 -37.35,500.32 -37.35,500.32 C-37.35,500.32 -37.35,499.90 -37.35,499.90 C-37.35,499.90 -21.05,499.39 -13.76,500.97 C-12.25,501.31 -2.44,504.12 -1.27,504.13 C-0.61,504.12 19.93,502.75 26.40,503.19 C35.41,503.81 68.98,500.30 82.09,499.32 C89.99,498.36 106.30,496.11 111.62,495.54 C119.26,494.79 130.84,495.06 140.08,494.81 C147.83,494.38 165.68,493.41 168.95,493.40 C169.91,493.40 212.85,497.84 222.88,498.25 C236.33,498.53 268.35,499.79 280.80,499.48 C288.58,499.34 303.47,501.49 307.96,501.79 C317.25,502.34 354.46,502.36 369.58,502.25 C376.44,502.17 386.64,502.83 398.62,503.99 C405.91,504.75 450.80,504.65 459.03,506.18 C459.95,506.35 472.94,509.45 474.55,509.78 C474.55,509.78 473.92,513.95 473.92,513.95" fill="none" stroke="rgb(86, 73, 61)" stroke-width="3.19" stroke-opacity="1.00" stroke-linejoin="round"/>
</g>
</svg>
