<?xml version="1.0" encoding="UTF-8" standalone="no"?>
<!DOCTYPE svg PUBLIC "-//W3C//DTD SVG 1.1//EN" "http://www.w3.org/Graphics/SVG/1.1/DTD/svg11.dtd">
<svg width="64.20" height="90.84" viewBox="0.00 0.00 535.00 757.00" xmlns="http://www.w3.org/2000/svg" xmlns:xlink="http://www.w3.org/1999/xlink">
<g stroke-linecap="round" transform="translate(156.00, 267.00)" id="185-사람">
<path d="M295.47,257.03 C295.46,257.03 294.89,257.03 294.75,257.00 C293.17,256.65 289.49,250.83 289.16,247.41 C289.05,245.94 289.70,242.94 290.49,241.31 C291.25,239.79 293.04,237.79 293.98,237.32 C296.05,236.34 301.39,235.41 304.17,235.41 C307.02,235.43 311.93,236.76 313.95,238.21 C315.84,239.61 318.63,243.03 319.71,244.97 C320.67,246.72 322.00,250.48 322.55,253.09 C323.03,255.44 322.57,257.05 321.95,257.34 C320.40,257.99 315.38,258.46 311.66,257.99 C308.11,257.53 299.72,257.16 299.27,257.13 C298.82,257.09 297.82,256.99 296.30,256.82" fill="none" stroke="rgb(33, 228, 63)" stroke-width="3.19" stroke-opacity="1.00" stroke-linejoin="round"/>
<path d="M295.26,240.71 C295.26,240.71 294.85,240.71 294.85,240.71 C294.83,240.71 299.45,240.85 301.83,241.69 C304.19,242.68 308.43,244.34 311.40,244.33 C313.18,244.31 315.69,244.60 316.61,244.71 C317.07,244.77 317.58,245.37 317.99,245.87" fill="none" stroke="rgb(33, 228, 63)" stroke-width="3.19" stroke-opacity="1.00" stroke-linejoin="round"/>
<path d="M297.74,249.18 C298.10,249.18 298.45,249.18 298.81,249.18 C301.66,249.18 307.15,249.17 309.43,249.40 C309.43,249.40 308.87,250.05 308.87,250.05" fill="none" stroke="rgb(33, 228, 63)" stroke-width="3.19" stroke-opacity="1.00" stroke-linejoin="round"/>
<path d="M307.45,251.04 C307.45,251.10 307.45,251.17 307.45,251.25 C307.45,251.61 307.45,251.85 307.45,251.97 C307.46,252.69 307.56,253.17 307.60,253.28 C307.61,253.33 307.63,253.45 307.66,253.64" fill="none" stroke="rgb(33, 228, 63)" stroke-width="3.19" stroke-opacity="1.00" stroke-linejoin="round"/>
<path d="M302.08,254.55 C302.08,254.55 301.91,254.51 301.91,254.51 C304.19,254.20 307.92,254.13 309.45,254.14 C309.62,254.14 309.72,254.14 309.72,254.14" fill="none" stroke="rgb(33, 228, 63)" stroke-width="3.19" stroke-opacity="1.00" stroke-linejoin="round"/>
<path d="M292.99,259.10 C292.97,259.13 292.97,259.26 292.99,259.47 C294.24,274.20 291.39,313.68 291.90,314.26 C291.90,314.26 317.35,313.40 317.35,313.40 C317.63,300.78 318.85,271.20 317.82,261.21 C317.78,260.78 317.69,260.35 317.57,259.92" fill="none" stroke="rgb(33, 228, 63)" stroke-width="3.19" stroke-opacity="1.00" stroke-linejoin="round"/>
<path d="M300.84,259.72 C300.84,259.72 300.63,259.72 300.63,259.72 C300.64,259.60 300.46,261.47 300.32,262.86 C299.94,266.66 299.59,297.55 300.01,299.55 C301.23,299.87 306.65,298.57 307.83,298.14 C309.34,297.57 310.37,295.99 310.63,293.18 C310.75,291.78 310.96,261.84 310.96,261.46 C310.96,261.46 310.34,261.16 310.34,261.16" fill="none" stroke="rgb(33, 228, 63)" stroke-width="3.19" stroke-opacity="1.00" stroke-linejoin="round"/>
<path d="M300.63,301.24 C300.63,301.24 300.16,301.30 300.16,301.30 C299.96,302.22 299.81,303.13 299.85,303.60 C299.96,304.69 301.68,306.46 302.77,306.94 C304.00,307.45 306.19,306.77 307.03,305.48 C307.67,304.45 308.34,301.03 307.90,299.51 C307.79,299.14 307.50,298.48 307.04,297.52" fill="none" stroke="rgb(33, 228, 63)" stroke-width="3.19" stroke-opacity="1.00" stroke-linejoin="round"/>
<path d="M289.07,311.77 C289.09,311.95 289.09,312.19 289.07,312.50 C288.86,315.07 285.94,329.48 283.07,337.49 C278.36,349.57 270.95,368.64 270.92,368.97 C270.78,368.90 277.55,369.96 280.41,371.06 C281.58,371.51 284.34,373.18 284.51,373.01 C287.07,359.54 292.40,345.57 293.70,340.89 C294.72,337.32 296.68,333.66 298.12,332.60 C298.12,332.60 297.95,332.64 297.95,332.64" fill="none" stroke="rgb(33, 228, 63)" stroke-width="3.19" stroke-opacity="1.00" stroke-linejoin="round"/>
<path d="M296.09,325.62 C296.09,325.58 296.09,325.68 296.09,325.72 C296.12,327.00 296.22,329.68 296.29,331.07 C296.67,343.27 297.72,373.24 298.74,376.27 C298.78,376.40 298.88,376.59 299.02,376.85 C299.02,376.85 315.21,376.63 315.21,376.63 C315.27,376.41 315.29,375.95 315.18,375.42 C315.09,374.99 314.46,372.61 314.27,371.89" fill="none" stroke="rgb(33, 228, 63)" stroke-width="3.19" stroke-opacity="1.00" stroke-linejoin="round"/>
<path d="M316.95,314.05 C316.95,314.68 316.95,316.69 316.95,318.07 C316.96,325.65 316.95,335.90 316.15,347.73 C315.51,356.03 314.53,368.78 314.47,373.07 C314.47,373.07 313.86,372.92 313.86,372.92" fill="none" stroke="rgb(33, 228, 63)" stroke-width="3.19" stroke-opacity="1.00" stroke-linejoin="round"/>
<path d="M270.47,370.44 C270.45,370.91 269.83,371.75 267.46,373.34 C265.50,374.75 262.95,377.60 262.41,379.84 C262.20,380.81 262.60,382.50 263.26,383.16 C264.09,383.86 267.73,384.32 271.22,384.13 C274.52,383.97 280.38,383.82 280.49,383.66 C281.00,382.68 281.01,375.10 281.01,375.07 C281.03,374.67 281.10,373.89 281.22,372.72" fill="none" stroke="rgb(33, 228, 63)" stroke-width="3.19" stroke-opacity="1.00" stroke-linejoin="round"/>
<path d="M301.87,377.88 C300.82,377.89 300.13,377.93 299.81,377.99 C298.46,378.29 295.60,381.68 295.04,382.89 C294.55,383.99 294.56,385.75 294.96,386.37 C295.40,386.98 297.43,387.50 300.30,387.56 C307.17,387.64 316.62,386.55 316.66,386.49 C316.75,385.64 316.39,381.39 316.24,380.65 C316.10,379.98 315.24,377.30 314.98,376.50" fill="none" stroke="rgb(33, 228, 63)" stroke-width="3.19" stroke-opacity="1.00" stroke-linejoin="round"/>
<path d="M291.13,266.12 C291.13,266.12 286.01,266.53 286.01,266.53 C286.01,266.53 285.76,266.74 285.76,266.74" fill="none" stroke="rgb(33, 228, 63)" stroke-width="3.19" stroke-opacity="1.00" stroke-linejoin="round"/>
<path d="M281.42,266.74 C280.99,266.51 280.02,266.19 279.51,266.18 C278.74,266.16 277.25,268.25 276.92,269.66 C276.58,271.22 277.17,274.37 278.21,275.34 C279.26,276.26 281.89,276.41 282.93,275.69 C283.86,275.00 285.09,272.75 285.22,271.67 C285.44,269.56 283.09,267.66 282.30,267.40 C282.03,267.32 280.48,267.22 279.54,267.16" fill="none" stroke="rgb(33, 228, 63)" stroke-width="3.19" stroke-opacity="1.00" stroke-linejoin="round"/>
<path d="M283.90,276.04 C283.87,276.04 283.83,276.04 283.80,276.04 C283.76,276.04 283.73,276.04 283.69,276.04 C283.69,276.04 289.88,275.02 289.88,275.02 C289.88,275.02 290.10,275.42 290.10,275.42" fill="none" stroke="rgb(33, 228, 63)" stroke-width="3.19" stroke-opacity="1.00" stroke-linejoin="round"/>
</g>
</svg>
