<?xml version="1.0" encoding="UTF-8" standalone="no"?>
<!DOCTYPE svg PUBLIC "-//W3C//DTD SVG 1.1//EN" "http://www.w3.org/Graphics/SVG/1.1/DTD/svg11.dtd">
<svg width="64.20" height="90.84" viewBox="0.00 0.00 535.00 757.00" xmlns="http://www.w3.org/2000/svg" xmlns:xlink="http://www.w3.org/1999/xlink">
<g stroke-linecap="round" transform="translate(44.00, 155.00)" id="186-물웅덩이-2">
<path d="M39.90,448.88 C40.84,448.38 41.87,447.75 42.07,447.41 C42.48,446.67 39.98,443.08 38.22,442.20 C36.32,441.31 29.11,440.56 25.69,440.79 C17.94,441.34 8.70,443.46 6.32,445.13 C5.03,446.07 3.08,448.51 2.58,449.80 C2.14,451.05 2.17,453.70 2.67,454.75 C3.77,456.86 8.96,458.85 14.50,460.23 C18.38,461.25 23.40,464.09 25.05,465.75 C29.67,470.49 54.26,493.26 58.51,498.10 C60.54,500.34 63.87,502.76 66.55,504.08 C71.38,506.39 81.34,507.61 86.97,507.35 C92.98,506.98 107.62,504.99 115.06,503.93 C123.87,502.73 130.90,502.17 140.49,502.94 C158.71,503.82 173.09,506.59 189.38,506.58 C189.66,506.58 196.71,506.37 199.16,505.94 C202.14,505.39 206.83,503.39 208.89,501.60 C210.73,499.97 213.82,496.11 215.14,493.86 C216.29,491.83 217.19,488.57 216.75,487.14 C216.16,485.47 212.30,483.10 208.44,482.34 C207.29,482.12 197.81,480.26 194.61,478.75 C191.19,477.10 188.45,475.24 188.37,475.20 C188.05,475.06 187.07,474.70 185.42,474.10" fill="none" stroke="rgb(86, 73, 61)" stroke-width="3.01" stroke-opacity="1.00" stroke-linejoin="round"/>
<path d="M158.11,471.36 C158.11,471.36 157.58,467.66 157.58,467.66 C156.22,466.04 151.27,464.20 147.41,464.13 C143.94,464.10 127.51,468.08 121.91,468.04 C117.45,467.97 104.81,463.29 97.75,461.85 C95.87,461.47 92.80,460.96 92.24,460.98 C91.65,461.01 90.27,461.39 87.85,462.15" fill="none" stroke="rgb(86, 73, 61)" stroke-width="3.01" stroke-opacity="1.00" stroke-linejoin="round"/>
</g>
</svg>
