<?xml version="1.0" encoding="UTF-8" standalone="no"?>
<!DOCTYPE svg PUBLIC "-//W3C//DTD SVG 1.1//EN" "http://www.w3.org/Graphics/SVG/1.1/DTD/svg11.dtd">
<svg width="64.20" height="90.84" viewBox="0.00 0.00 535.00 757.00" xmlns="http://www.w3.org/2000/svg" xmlns:xlink="http://www.w3.org/1999/xlink">
<g stroke-linecap="round" transform="translate(44.00, 155.00)" id="186-물웅덩이-5">
<path d="M333.65,533.16 C333.53,532.62 329.54,529.74 327.51,528.55 C325.41,527.35 323.39,526.52 321.83,526.24 C320.70,526.08 318.04,526.61 316.95,527.31 C314.41,529.05 312.10,536.39 312.51,538.01 C312.91,539.28 314.82,541.24 317.26,541.55 C318.85,541.74 327.85,540.08 329.44,540.02 C330.23,539.99 341.63,540.47 344.22,540.13 C347.53,539.65 348.75,538.44 349.11,537.58 C348.67,536.59 347.59,535.59 345.71,534.72 C344.04,533.96 339.96,532.64 338.26,532.27 C337.66,532.14 336.03,532.31 334.16,532.48" fill="none" stroke="rgb(86, 73, 61)" stroke-width="3.01" stroke-opacity="1.00" stroke-linejoin="round"/>
</g>
</svg>
