<?xml version="1.0" encoding="UTF-8" standalone="no"?>
<!DOCTYPE svg PUBLIC "-//W3C//DTD SVG 1.1//EN" "http://www.w3.org/Graphics/SVG/1.1/DTD/svg11.dtd">
<svg width="64.20" height="90.84" viewBox="0.00 0.00 535.00 757.00" xmlns="http://www.w3.org/2000/svg" xmlns:xlink="http://www.w3.org/1999/xlink">
<g stroke-linecap="round" transform="translate(156.00, 267.00)" id="186-사람">
<path d="M88.62,1.38 C87.72,0.82 81.74,0.27 78.42,0.68 C74.15,1.24 59.28,7.33 54.62,11.02 C51.49,13.58 48.78,18.82 48.05,21.50 C46.14,28.96 43.87,57.35 44.12,59.26 C44.63,62.77 46.84,66.91 48.11,68.56 C49.68,70.50 56.08,74.16 59.08,74.42 C63.09,74.70 76.37,71.53 79.69,69.77 C81.44,68.81 84.95,64.43 85.21,63.88 C85.51,63.27 86.34,60.45 86.62,59.44" fill="none" stroke="rgb(33, 228, 63)" stroke-width="3.01" stroke-opacity="1.00" stroke-linejoin="round"/>
<path d="M50.58,22.83 C50.72,23.81 51.10,25.13 51.60,26.19 C51.88,26.78 54.84,33.02 54.54,34.60 C54.50,34.77 54.40,35.06 54.24,35.46 C54.24,35.46 53.84,35.67 53.84,35.67" fill="none" stroke="rgb(33, 228, 63)" stroke-width="3.01" stroke-opacity="1.00" stroke-linejoin="round"/>
<path d="M57.16,25.41 C58.07,29.33 58.41,32.13 58.29,33.33 C58.25,33.70 58.11,34.06 57.85,34.40" fill="none" stroke="rgb(33, 228, 63)" stroke-width="3.01" stroke-opacity="1.00" stroke-linejoin="round"/>
<path d="M58.31,17.40 C58.41,17.98 64.35,24.18 66.17,25.63 C67.61,26.77 75.16,31.38 76.82,33.39 C79.02,36.10 81.70,46.91 83.14,48.92 C83.86,49.92 85.82,52.39 86.64,53.76 C87.41,55.07 88.28,57.39 88.58,58.92 C88.64,59.25 88.28,60.55 87.89,62.38" fill="none" stroke="rgb(33, 228, 63)" stroke-width="3.01" stroke-opacity="1.00" stroke-linejoin="round"/>
<path d="M86.91,0.24 C87.15,0.25 87.60,0.19 87.85,0.09 C89.00,-0.33 92.67,-0.33 95.03,0.49 C97.11,1.24 102.02,4.19 104.13,6.04 C106.56,8.21 110.15,13.02 112.00,16.38 C113.27,18.72 116.45,26.16 117.18,28.82 C118.76,34.65 119.30,45.98 118.58,55.28 C117.91,63.25 118.45,73.62 117.94,75.88 C117.66,77.09 117.51,77.73 117.50,77.77 C117.44,78.20 117.34,79.14 117.22,80.60" fill="none" stroke="rgb(33, 228, 63)" stroke-width="3.01" stroke-opacity="1.00" stroke-linejoin="round"/>
<path d="M80.90,71.17 C81.85,71.36 83.79,73.51 84.77,76.09 C85.82,78.97 86.09,83.71 85.49,86.15 C84.84,88.72 84.60,92.94 85.16,95.45 C85.45,96.68 89.12,103.37 89.79,105.06 C90.69,107.42 91.15,111.74 90.64,113.07 C90.26,114.07 88.94,117.00 88.73,117.83 C88.21,119.99 88.66,124.96 89.63,127.46 C90.29,129.10 93.99,134.09 94.54,135.32 C95.33,137.18 94.63,139.56 93.40,140.50 C92.91,140.87 91.66,141.70 91.62,141.77 C92.73,141.16 94.88,139.70 95.76,138.73 C96.13,138.32 96.69,137.52 97.44,136.34" fill="none" stroke="rgb(33, 228, 63)" stroke-width="3.01" stroke-opacity="1.00" stroke-linejoin="round"/>
<path d="M105.78,91.19 C105.27,91.16 104.56,91.28 104.01,91.63 C102.43,92.64 100.33,96.48 100.10,99.61 C99.98,101.61 100.38,108.38 100.57,111.20 C100.68,113.94 98.62,120.77 98.44,121.66 C98.06,123.65 98.84,129.76 98.74,130.62 C98.60,131.64 97.49,133.50 96.74,134.09 C96.47,134.29 94.82,134.44 92.87,134.64" fill="none" stroke="rgb(33, 228, 63)" stroke-width="3.01" stroke-opacity="1.00" stroke-linejoin="round"/>
<path d="M88.62,52.58 C88.76,53.64 88.95,54.65 89.35,56.32 C91.12,63.55 92.02,71.43 91.03,76.43 C90.86,77.24 90.01,81.20 89.77,83.16 C89.77,83.16 89.77,82.95 89.77,82.95" fill="none" stroke="rgb(33, 228, 63)" stroke-width="3.01" stroke-opacity="1.00" stroke-linejoin="round"/>
<path d="M93.77,62.87 C93.71,63.27 93.93,65.21 94.31,67.28 C95.78,74.80 95.66,87.78 94.47,92.81 C93.96,94.94 93.36,97.01 93.20,97.23 C93.20,97.23 92.92,97.21 92.92,97.21" fill="none" stroke="rgb(33, 228, 63)" stroke-width="3.01" stroke-opacity="1.00" stroke-linejoin="round"/>
<path d="M96.06,42.28 C96.09,42.89 96.26,43.73 96.67,44.91 C98.76,50.63 99.90,54.10 100.11,56.01 C100.39,59.14 100.22,64.69 99.95,65.06 C99.92,65.10 99.72,65.31 99.35,65.69" fill="none" stroke="rgb(33, 228, 63)" stroke-width="3.01" stroke-opacity="1.00" stroke-linejoin="round"/>
<path d="M101.49,41.14 C101.94,41.46 103.29,44.16 104.05,46.77 C106.50,55.44 104.14,80.53 105.15,83.60 C105.28,83.98 105.62,84.63 106.18,85.55" fill="none" stroke="rgb(33, 228, 63)" stroke-width="3.01" stroke-opacity="1.00" stroke-linejoin="round"/>
<path d="M108.36,35.70 C108.35,36.34 108.36,36.87 108.41,37.29 C108.65,39.41 110.60,48.50 110.81,51.69 C111.31,59.57 110.00,66.69 109.64,68.12 C109.64,68.12 109.33,68.32 109.33,68.32" fill="none" stroke="rgb(33, 228, 63)" stroke-width="3.01" stroke-opacity="1.00" stroke-linejoin="round"/>
<path d="M110.65,29.98 C110.63,30.23 111.25,32.03 111.74,33.43 C113.57,38.98 112.92,46.17 112.20,47.19 C112.07,47.37 111.76,47.73 111.26,48.26" fill="none" stroke="rgb(33, 228, 63)" stroke-width="3.01" stroke-opacity="1.00" stroke-linejoin="round"/>
<path d="M67.17,14.82 C67.11,14.82 67.06,14.82 67.03,14.82 C67.00,14.83 66.95,14.85 66.89,14.88 C67.04,15.47 75.23,25.51 77.79,29.55 C78.94,31.40 86.13,49.06 86.53,49.77 C87.33,51.20 87.95,52.13 88.54,52.79 C88.66,52.93 88.92,53.24 89.31,53.75" fill="none" stroke="rgb(33, 228, 63)" stroke-width="3.01" stroke-opacity="1.00" stroke-linejoin="round"/>
<path d="M117.51,74.88 C117.49,76.34 117.53,78.54 117.66,79.48 C118.54,85.62 132.10,105.61 133.30,110.63 C133.30,110.63 132.10,112.07 132.10,112.07" fill="none" stroke="rgb(33, 228, 63)" stroke-width="3.01" stroke-opacity="1.00" stroke-linejoin="round"/>
<path d="M104.35,90.04 C105.30,90.92 118.72,102.14 123.17,105.68 C123.73,106.18 132.57,113.34 132.95,113.50 C125.41,113.58 114.69,115.30 107.08,117.64 C104.74,118.37 103.39,118.93 101.97,119.74 C101.62,119.95 101.08,120.25 100.35,120.65" fill="none" stroke="rgb(33, 228, 63)" stroke-width="3.01" stroke-opacity="1.00" stroke-linejoin="round"/>
<path d="M53.44,75.46 C53.44,75.46 53.33,75.17 53.33,75.17 C51.01,75.22 49.59,75.60 45.17,77.84 C41.00,79.97 28.59,88.05 24.37,91.77 C20.10,95.57 16.15,98.96 13.75,100.76 C10.69,103.03 6.42,105.43 6.41,105.65 C6.64,107.03 9.39,111.67 11.66,113.90 C15.86,117.98 25.10,122.69 34.46,126.88 C37.00,128.00 44.32,130.29 47.19,130.75 C53.41,131.70 70.79,131.12 75.54,130.63 C81.38,130.00 88.82,127.27 89.51,126.83 C89.69,126.72 89.97,126.46 90.34,126.08" fill="none" stroke="rgb(33, 228, 63)" stroke-width="3.01" stroke-opacity="1.00" stroke-linejoin="round"/>
<path d="M42.29,65.73 C42.29,65.73 42.58,65.16 42.58,65.16 C42.02,64.90 39.91,64.96 36.58,66.69 C33.33,68.39 26.33,71.68 24.24,72.99 C20.71,75.23 16.37,78.89 8.82,86.28 C6.59,88.42 2.71,91.27 0.45,92.31 C-2.01,93.39 -5.96,93.25 -7.77,91.84 C-8.89,90.92 -9.80,88.87 -9.78,88.90 C-10.40,89.48 -11.34,92.16 -10.84,94.30 C-10.26,96.69 -7.15,100.19 -6.47,100.41 C-6.18,100.49 -5.37,100.66 -4.04,100.91" fill="none" stroke="rgb(33, 228, 63)" stroke-width="3.01" stroke-opacity="1.00" stroke-linejoin="round"/>
<path d="M39.72,73.45 C39.15,73.50 36.42,74.01 35.18,74.44 C31.26,75.82 20.89,83.69 17.50,87.13 C15.94,88.73 12.57,92.86 11.75,93.76 C10.17,95.50 6.82,98.02 4.42,99.23 C1.49,100.65 -3.59,101.61 -6.08,101.06 C-6.08,101.06 -6.82,100.20 -6.82,100.20" fill="none" stroke="rgb(33, 228, 63)" stroke-width="3.01" stroke-opacity="1.00" stroke-linejoin="round"/>
<path d="M10.54,112.07 C9.99,112.02 8.92,112.31 8.49,112.35 C6.25,112.56 2.61,111.33 0.18,109.51 C-2.31,107.57 -3.29,106.25 -4.04,104.76 C-4.04,104.76 -3.55,103.13 -3.55,103.13" fill="none" stroke="rgb(33, 228, 63)" stroke-width="3.01" stroke-opacity="1.00" stroke-linejoin="round"/>
<path d="M1.68,104.06 C0.80,104.42 -1.08,104.98 -2.07,105.11 C-2.75,105.18 -4.12,104.50 -4.60,103.83 C-5.09,103.09 -6.24,100.62 -6.67,99.58" fill="none" stroke="rgb(33, 228, 63)" stroke-width="3.01" stroke-opacity="1.00" stroke-linejoin="round"/>
<path d="M41.72,44.85 C42.35,44.77 43.59,44.50 44.06,44.42 C47.82,43.82 51.20,46.64 51.73,47.43 C51.73,47.43 48.21,46.57 48.21,46.57 C48.21,46.57 48.07,48.64 48.07,48.64 C48.07,48.64 49.05,47.29 49.05,47.29" fill="none" stroke="rgb(33, 228, 63)" stroke-width="3.01" stroke-opacity="1.00" stroke-linejoin="round"/>
<path d="M65.74,47.43 C65.74,47.43 65.46,47.43 65.46,47.43 C66.77,47.38 68.64,47.62 69.80,48.13 C70.80,48.58 72.06,49.64 72.61,50.30 C72.61,50.30 72.61,50.80 72.61,50.80" fill="none" stroke="rgb(33, 228, 63)" stroke-width="3.01" stroke-opacity="1.00" stroke-linejoin="round"/>
<path d="M65.46,42.28 C65.94,42.20 67.04,41.90 67.26,41.87 C69.90,41.51 72.04,42.10 72.12,42.20 C72.16,42.26 72.22,42.35 72.32,42.47" fill="none" stroke="rgb(33, 228, 63)" stroke-width="3.01" stroke-opacity="1.00" stroke-linejoin="round"/>
<path d="M52.59,40.28 C51.48,39.98 50.74,39.80 50.38,39.74 C49.89,39.67 48.62,39.71 48.42,39.71 C48.40,39.71 48.35,39.71 48.30,39.71" fill="none" stroke="rgb(33, 228, 63)" stroke-width="3.01" stroke-opacity="1.00" stroke-linejoin="round"/>
<path d="M58.31,50.86 C58.31,50.81 58.30,52.41 58.31,53.02 C58.32,54.64 58.18,55.53 57.81,56.03 C57.73,56.14 57.58,56.27 57.35,56.45" fill="none" stroke="rgb(33, 228, 63)" stroke-width="3.01" stroke-opacity="1.00" stroke-linejoin="round"/>
<path d="M57.16,62.87 C57.16,62.87 56.88,62.87 56.88,62.87 C58.21,64.34 66.44,64.31 68.25,64.30 C68.01,65.05 65.99,66.86 64.32,67.20 C59.82,68.05 56.02,65.42 55.06,64.60 C55.06,64.60 55.14,64.30 55.14,64.30" fill="none" stroke="rgb(33, 228, 63)" stroke-width="3.01" stroke-opacity="1.00" stroke-linejoin="round"/>
<path d="M72.89,58.01 C74.50,58.01 76.89,58.02 76.91,58.01 C76.96,58.00 77.08,57.93 77.29,57.82" fill="none" stroke="rgb(33, 228, 63)" stroke-width="3.01" stroke-opacity="1.00" stroke-linejoin="round"/>
<path d="M63.17,76.89 C63.17,76.89 63.03,76.89 63.03,76.89 C63.03,76.89 62.88,76.77 62.88,76.77 C62.88,76.77 62.88,76.60 62.88,76.60 C64.16,76.85 68.25,79.80 69.64,82.33 C70.64,84.23 70.97,90.40 70.64,91.08 C70.59,88.88 71.58,85.18 72.77,83.32 C76.35,77.88 80.81,75.37 81.05,75.24 C81.08,75.23 81.13,75.20 81.19,75.17" fill="none" stroke="rgb(33, 228, 63)" stroke-width="3.01" stroke-opacity="1.00" stroke-linejoin="round"/>
<path d="M10.26,114.35 C9.96,114.36 9.58,114.36 9.54,114.35 C9.41,114.34 -2.65,122.31 -7.48,124.43 C-13.23,126.92 -25.13,129.28 -30.70,131.58 C-33.21,132.65 -34.64,134.41 -34.40,136.18 C-33.76,140.26 -30.41,144.95 -29.38,145.61 C-28.76,145.96 -19.06,141.82 -10.63,138.31 C-6.62,136.70 8.13,133.66 10.67,132.72 C13.50,131.63 16.28,130.25 21.01,127.67 C21.92,127.15 23.46,125.48 24.30,124.21 C24.54,123.85 24.82,123.33 25.13,122.65" fill="none" stroke="rgb(33, 228, 63)" stroke-width="3.01" stroke-opacity="1.00" stroke-linejoin="round"/>
<path d="M-28.35,135.52 C-28.35,135.52 -28.64,135.52 -28.64,135.52 C-28.65,135.50 -28.65,135.56 -28.64,135.58 C-28.19,137.41 -27.55,139.43 -26.91,140.96 C-26.79,141.25 -26.63,141.61 -26.43,142.03" fill="none" stroke="rgb(33, 228, 63)" stroke-width="3.01" stroke-opacity="1.00" stroke-linejoin="round"/>
<path d="M-35.79,140.38 C-35.79,140.38 -35.79,140.09 -35.79,140.09 C-36.99,140.09 -40.26,140.62 -43.13,140.79 C-47.28,141.02 -49.46,140.69 -51.91,140.18 C-52.29,141.31 -52.16,142.17 -51.31,142.98 C-49.94,144.26 -46.07,145.36 -45.70,145.24 C-52.22,144.75 -53.16,145.96 -53.32,146.32 C-52.94,147.64 -48.10,148.37 -46.30,148.40 C-46.33,148.49 -49.53,149.40 -51.16,150.47 C-51.60,150.77 -51.79,151.14 -51.88,151.57 C-51.88,151.57 -46.62,151.74 -46.62,151.74 C-46.62,151.74 -48.00,155.43 -48.00,155.43 C-46.81,156.15 -43.35,155.05 -41.38,153.53 C-39.86,152.33 -33.44,145.73 -31.74,144.46 C-31.49,144.28 -31.22,144.06 -30.93,143.81" fill="none" stroke="rgb(33, 228, 63)" stroke-width="3.01" stroke-opacity="1.00" stroke-linejoin="round"/>
<path d="M43.43,132.09 C43.49,136.30 42.60,143.11 42.44,143.89 C41.86,146.50 21.66,191.69 21.24,192.44 C16.83,200.04 11.56,208.32 7.84,213.17 C6.39,215.06 -15.53,243.70 -23.72,250.77 C-27.97,254.41 -33.33,257.69 -34.24,258.29 C-34.57,258.51 -34.90,258.77 -35.22,259.07" fill="none" stroke="rgb(33, 228, 63)" stroke-width="3.01" stroke-opacity="1.00" stroke-linejoin="round"/>
<path d="M-37.22,260.22 C-37.22,260.22 -36.65,260.22 -36.65,260.22 C-36.65,260.22 -38.96,262.00 -38.96,262.00 C-39.09,262.43 -38.71,264.37 -35.99,267.00 C-35.31,267.66 -24.76,276.62 -17.04,282.15 C-10.20,287.00 3.98,293.15 6.35,294.58 C7.34,295.19 12.52,298.73 13.95,299.48 C17.90,301.53 30.99,303.07 36.38,303.02 C50.49,302.44 88.52,300.74 91.61,301.04 C92.17,301.10 93.01,300.51 93.77,299.97" fill="none" stroke="rgb(33, 228, 63)" stroke-width="3.01" stroke-opacity="1.00" stroke-linejoin="round"/>
<path d="M97.49,136.38 C97.51,136.67 99.79,142.06 100.84,143.91 C102.09,146.12 105.39,151.07 106.61,153.73 C107.92,156.63 109.32,161.02 109.61,164.72 C109.75,166.67 110.41,221.19 110.35,224.86 C110.25,230.27 109.03,240.22 108.19,249.17 C107.16,260.64 105.94,269.58 103.73,277.41 C101.64,284.70 96.71,295.42 93.82,298.18 C93.34,298.63 92.37,299.42 90.91,300.55" fill="none" stroke="rgb(33, 228, 63)" stroke-width="3.01" stroke-opacity="1.00" stroke-linejoin="round"/>
<path d="M-36.36,260.50 C-36.31,261.49 -33.46,265.80 -30.95,267.74 C-29.00,269.24 -25.06,273.43 -24.55,273.85 C-23.11,275.02 11.93,296.71 24.41,301.26 C26.44,301.97 30.63,302.42 33.49,302.22 C34.74,302.13 54.30,299.43 63.92,299.36 C73.71,299.48 89.41,297.84 89.95,297.82 C90.52,297.80 94.06,298.06 95.77,298.15 C96.44,298.19 97.11,298.22 97.78,298.26" fill="none" stroke="rgb(33, 228, 63)" stroke-width="3.01" stroke-opacity="1.00" stroke-linejoin="round"/>
<path d="M28.85,181.28 C28.85,181.28 36.21,186.65 36.21,186.65 C36.44,186.77 32.00,202.42 30.84,204.44 C29.44,206.78 22.96,210.67 21.21,211.05 C20.41,211.22 17.90,211.52 17.91,211.51 C17.91,211.51 17.41,209.88 17.41,209.88" fill="none" stroke="rgb(33, 228, 63)" stroke-width="3.01" stroke-opacity="1.00" stroke-linejoin="round"/>
<path d="M33.42,187.86 C32.90,187.82 32.47,187.91 31.77,188.30 C30.14,189.19 25.62,190.82 23.05,191.95 C23.05,191.95 23.60,191.89 23.60,191.89" fill="none" stroke="rgb(33, 228, 63)" stroke-width="3.01" stroke-opacity="1.00" stroke-linejoin="round"/>
<path d="M80.33,188.14 C80.33,188.14 79.76,188.14 79.76,188.14 C84.25,187.55 94.91,185.86 99.22,185.90 C99.28,185.90 103.32,186.16 104.24,186.24 C105.45,187.06 106.11,190.84 106.29,194.46 C106.39,197.33 106.29,203.15 106.13,204.91 C105.84,207.74 104.15,212.82 102.85,214.66 C101.40,216.62 97.73,219.25 94.39,220.13 C93.16,220.43 90.74,219.79 89.42,218.80 C87.78,217.52 85.40,214.34 84.07,211.48 C81.79,206.52 79.80,197.94 79.77,191.30 C79.77,190.26 79.77,189.22 79.77,188.17 C79.77,188.17 94.03,196.05 94.03,196.05 C94.03,196.05 101.71,189.31 101.71,189.31 C101.71,189.31 101.57,189.29 101.57,189.29" fill="none" stroke="rgb(33, 228, 63)" stroke-width="3.01" stroke-opacity="1.00" stroke-linejoin="round"/>
<path d="M96.06,196.15 C96.03,197.62 96.03,198.61 96.06,199.11 C96.09,199.62 96.18,200.35 96.35,201.30 C96.35,201.30 96.35,200.73 96.35,200.73" fill="none" stroke="rgb(33, 228, 63)" stroke-width="3.01" stroke-opacity="1.00" stroke-linejoin="round"/>
<path d="M67.17,134.09 C67.13,134.46 67.47,137.92 67.45,144.31 C67.46,152.14 67.48,167.85 66.68,172.30 C65.98,176.15 63.52,195.38 62.05,202.44 C58.40,218.75 53.10,242.19 51.90,246.28 C51.90,246.28 51.73,244.77 51.73,244.77" fill="none" stroke="rgb(33, 228, 63)" stroke-width="3.01" stroke-opacity="1.00" stroke-linejoin="round"/>
<path d="M52.30,231.33 C52.30,231.33 51.44,231.40 51.44,231.40 C51.44,231.40 56.58,231.62 56.58,231.62 C56.58,231.62 57.08,231.13 57.08,231.13" fill="none" stroke="rgb(33, 228, 63)" stroke-width="3.01" stroke-opacity="1.00" stroke-linejoin="round"/>
<path d="M54.87,217.03 C57.55,217.02 58.61,217.04 58.63,217.03 C58.73,216.95 58.97,216.79 59.33,216.56" fill="none" stroke="rgb(33, 228, 63)" stroke-width="3.01" stroke-opacity="1.00" stroke-linejoin="round"/>
<path d="M58.59,200.16 C58.59,200.16 58.31,199.58 58.31,199.58 C58.31,199.58 62.60,198.99 62.60,198.99 C62.60,198.99 62.87,197.92 62.87,197.92" fill="none" stroke="rgb(33, 228, 63)" stroke-width="3.01" stroke-opacity="1.00" stroke-linejoin="round"/>
<path d="M61.74,181.85 C61.74,181.85 61.45,181.85 61.45,181.85 C61.45,181.85 65.99,181.57 65.99,181.57 C65.99,181.57 66.03,181.09 66.03,181.09" fill="none" stroke="rgb(33, 228, 63)" stroke-width="3.01" stroke-opacity="1.00" stroke-linejoin="round"/>
<path d="M63.74,160.40 C63.74,160.40 68.32,159.54 68.32,159.54 C68.32,159.54 69.05,158.06 69.05,158.06" fill="none" stroke="rgb(33, 228, 63)" stroke-width="3.01" stroke-opacity="1.00" stroke-linejoin="round"/>
<path d="M67.17,142.10 C67.28,142.16 68.95,141.98 71.63,141.60 C72.14,141.52 72.73,141.43 73.39,141.32 C73.39,141.32 73.46,141.73 73.46,141.73" fill="none" stroke="rgb(33, 228, 63)" stroke-width="3.01" stroke-opacity="1.00" stroke-linejoin="round"/>
<path d="M117.80,116.93 C117.80,116.93 116.37,116.64 116.37,116.64" fill="none" stroke="rgb(33, 228, 63)" stroke-width="3.01" stroke-opacity="1.00" stroke-linejoin="round"/>
<path d="M116.08,116.93 C116.08,116.93 115.79,117.30 115.79,117.30 C115.79,117.30 115.82,117.50 115.82,117.50 C116.91,117.61 121.74,119.57 124.09,121.37 C126.21,123.16 130.29,126.45 132.84,127.83 C137.22,130.17 149.47,133.02 153.16,132.89 C154.92,132.79 158.07,131.12 159.77,129.57 C166.55,123.32 173.18,115.38 177.34,108.21 C179.47,104.46 183.54,97.09 184.67,95.66 C184.68,95.07 180.08,90.65 178.92,90.61 C177.60,90.66 175.02,92.81 172.55,95.27 C167.84,99.94 152.29,111.28 152.19,111.38 C151.47,112.12 149.22,115.04 147.74,116.41 C146.89,117.19 143.76,117.67 141.68,117.60 C136.20,117.38 133.62,115.27 133.42,114.83 C133.42,114.83 133.36,114.67 133.24,114.35" fill="none" stroke="rgb(33, 228, 63)" stroke-width="3.01" stroke-opacity="1.00" stroke-linejoin="round"/>
<path d="M177.29,88.90 C177.29,88.90 177.00,88.90 177.00,88.90 C180.02,87.71 183.57,81.16 184.07,80.30 C184.13,80.22 180.09,75.85 179.48,74.07 C178.99,72.58 178.77,70.75 178.96,70.36 C179.81,69.85 181.23,70.00 182.40,71.05 C182.41,71.06 184.71,73.80 185.59,74.66 C185.59,74.66 197.94,64.56 197.94,64.56 C198.94,65.01 199.57,67.06 198.93,69.11 C198.13,71.57 195.75,73.56 194.57,74.26 C194.57,74.26 202.12,68.08 202.12,68.08 C203.08,69.05 197.83,75.13 197.88,75.10 C202.85,71.14 204.38,71.18 204.78,71.25 C204.78,71.25 202.58,75.57 202.58,75.57 C202.58,75.57 203.79,74.75 203.79,74.75 C203.45,78.03 196.32,84.34 183.85,94.09 C183.25,94.55 182.18,95.20 180.72,96.05" fill="none" stroke="rgb(33, 228, 63)" stroke-width="3.01" stroke-opacity="1.00" stroke-linejoin="round"/>
<path d="M98.63,128.08 C98.63,128.08 98.35,127.80 98.35,127.80 C98.98,128.22 101.45,130.88 101.49,132.62 C101.50,132.73 101.50,133.44 101.49,134.75 C101.49,134.75 101.25,134.70 101.25,134.70" fill="none" stroke="rgb(33, 228, 63)" stroke-width="3.01" stroke-opacity="1.00" stroke-linejoin="round"/>
<path d="M105.50,126.08 C105.99,128.31 104.43,133.46 104.40,133.76 C104.37,134.61 105.16,135.02 106.63,135.56 C106.63,135.56 108.64,134.95 108.64,134.95" fill="none" stroke="rgb(33, 228, 63)" stroke-width="3.01" stroke-opacity="1.00" stroke-linejoin="round"/>
<path d="M111.50,127.22 C110.55,127.87 110.03,128.29 109.93,128.61 C109.66,129.55 110.91,132.01 112.16,133.03 C113.43,133.98 115.11,133.66 116.65,132.94" fill="none" stroke="rgb(33, 228, 63)" stroke-width="3.01" stroke-opacity="1.00" stroke-linejoin="round"/>
<path d="M117.51,128.08 C117.32,128.02 117.18,127.97 117.08,127.94 C116.98,127.91 116.79,127.86 116.51,127.80 C116.51,127.80 116.40,128.01 116.40,128.01 C116.79,128.90 118.12,130.41 119.58,130.88 C121.36,131.41 122.06,130.80 123.23,129.51" fill="none" stroke="rgb(33, 228, 63)" stroke-width="3.01" stroke-opacity="1.00" stroke-linejoin="round"/>
<path d="M123.80,125.51 C123.67,125.49 123.57,125.49 123.52,125.51 C123.46,125.52 123.36,125.57 123.23,125.65 C123.25,126.23 123.40,127.08 123.78,127.63 C124.65,128.85 126.44,129.98 127.45,129.74 C127.75,129.67 128.33,129.39 129.17,128.90" fill="none" stroke="rgb(33, 228, 63)" stroke-width="3.01" stroke-opacity="1.00" stroke-linejoin="round"/>
<path d="M133.53,109.21 C134.51,114.22 135.49,115.53 136.43,116.17 C136.43,116.17 138.39,115.50 138.39,115.50" fill="none" stroke="rgb(33, 228, 63)" stroke-width="3.01" stroke-opacity="1.00" stroke-linejoin="round"/>
<path d="M132.95,114.93 C132.95,114.93 132.67,115.07 132.67,115.07 C132.97,115.94 133.72,116.46 134.31,116.61 C134.64,116.68 134.97,116.76 135.31,116.84" fill="none" stroke="rgb(33, 228, 63)" stroke-width="3.01" stroke-opacity="1.00" stroke-linejoin="round"/>
<path d="M108.93,122.36 C108.93,122.36 107.93,122.86 107.93,122.86 C107.44,123.97 108.19,127.47 109.65,129.04 C111.22,130.62 113.85,130.94 115.22,130.66" fill="none" stroke="rgb(33, 228, 63)" stroke-width="3.01" stroke-opacity="1.00" stroke-linejoin="round"/>
<path d="M118.08,124.08 C118.03,124.08 117.99,124.08 117.94,124.08 C117.89,124.08 117.84,124.08 117.80,124.08 C118.10,125.54 118.54,126.82 119.09,127.66 C119.47,128.20 120.35,129.07 120.79,129.31 C120.95,129.39 121.40,129.61 122.14,129.96" fill="none" stroke="rgb(33, 228, 63)" stroke-width="3.01" stroke-opacity="1.00" stroke-linejoin="round"/>
<path d="M104.93,82.32 C104.91,84.70 100.16,98.82 99.71,104.28 C99.50,107.12 99.76,111.36 99.95,113.70" fill="none" stroke="rgb(33, 228, 63)" stroke-width="3.01" stroke-opacity="1.00" stroke-linejoin="round"/>
<path d="M187.56,450.75 C187.55,450.81 187.61,451.10 187.83,451.72 C188.11,452.50 188.80,454.45 188.77,454.59 C188.77,454.59 188.46,453.43 188.46,453.43" fill="none" stroke="rgb(33, 228, 63)" stroke-width="3.01" stroke-opacity="1.00" stroke-linejoin="round"/>
<path d="M60.81,303.64 C60.19,306.21 57.12,311.16 56.45,312.60 C55.83,313.95 53.79,321.62 52.47,324.86 C50.85,328.80 50.09,332.27 49.81,336.33 C49.42,345.55 47.90,358.33 46.91,360.30 C46.12,361.79 42.64,363.86 40.28,364.34 C37.92,364.78 31.81,363.99 30.93,363.86 C29.34,363.63 28.36,364.21 28.30,364.65 C28.18,366.05 30.03,369.59 32.12,370.83 C34.17,372.00 38.74,372.96 41.81,373.01 C46.80,372.97 57.59,372.93 61.55,370.99 C63.57,369.96 66.85,367.26 67.93,365.73 C69.06,364.06 69.92,360.25 70.07,356.91 C70.21,353.18 69.47,335.95 69.65,331.01 C69.91,325.80 72.60,313.62 75.13,308.04 C76.24,305.66 78.19,301.45 78.36,300.05 C78.39,299.69 78.43,299.32 78.47,298.95" fill="none" stroke="rgb(33, 228, 63)" stroke-width="3.01" stroke-opacity="1.00" stroke-linejoin="round"/>
<path d="M50.30,337.85 C50.30,337.85 49.85,337.40 49.85,337.40 C49.85,337.40 49.63,337.40 49.63,337.40 C49.63,337.40 69.95,335.17 69.95,335.17 C69.95,335.17 68.18,336.73 68.18,336.73" fill="none" stroke="rgb(33, 228, 63)" stroke-width="3.01" stroke-opacity="1.00" stroke-linejoin="round"/>
<path d="M51.42,342.99 C51.38,342.99 51.34,342.99 51.30,342.99 C51.27,342.99 51.23,342.99 51.19,342.99 C51.19,342.99 62.96,342.34 62.96,342.34 C62.96,342.34 62.82,342.77 62.82,342.77" fill="none" stroke="rgb(33, 228, 63)" stroke-width="3.01" stroke-opacity="1.00" stroke-linejoin="round"/>
<path d="M52.09,345.67 C52.09,345.67 51.86,345.67 51.86,345.67 C52.36,345.67 52.78,345.67 53.12,345.67 C62.25,345.95 70.41,345.44 70.38,345.45 C70.38,345.45 69.97,345.45 69.97,345.45" fill="none" stroke="rgb(33, 228, 63)" stroke-width="3.01" stroke-opacity="1.00" stroke-linejoin="round"/>
<path d="M-10.73,287.10 C-10.73,287.10 -11.40,288.22 -11.40,288.22" fill="none" stroke="rgb(33, 228, 63)" stroke-width="3.01" stroke-opacity="1.00" stroke-linejoin="round"/>
<path d="M-10.96,287.99 C-10.96,287.99 -10.73,287.14 -10.73,287.14 C-15.47,296.53 -19.10,305.20 -21.08,309.17 C-24.58,316.14 -33.73,329.73 -35.29,331.50 C-37.04,333.45 -41.76,336.46 -44.27,337.43 C-46.79,338.38 -49.28,338.21 -50.80,337.15 C-51.40,336.72 -58.16,331.97 -60.77,331.66 C-61.66,331.59 -63.02,333.90 -63.07,335.76 C-63.07,337.81 -61.00,342.10 -59.00,343.99 C-57.43,345.44 -52.38,348.99 -49.59,350.65 C-46.87,352.25 -42.42,353.92 -40.50,354.18 C-36.40,354.71 -33.26,354.17 -32.13,353.13 C-30.74,351.80 -21.67,337.15 -17.30,331.10 C-15.67,328.85 -6.82,315.75 -3.30,309.01 C-2.44,307.37 3.93,294.07 3.82,294.19 C3.82,294.19 3.60,293.19 3.60,293.19" fill="none" stroke="rgb(33, 228, 63)" stroke-width="3.01" stroke-opacity="1.00" stroke-linejoin="round"/>
<path d="M-27.50,322.42 C-27.41,322.67 -27.32,322.85 -27.21,322.96 C-26.35,323.83 -21.01,326.28 -19.68,326.45 C-19.68,326.45 -19.68,326.80 -19.68,326.80" fill="none" stroke="rgb(33, 228, 63)" stroke-width="3.01" stroke-opacity="1.00" stroke-linejoin="round"/>
<path d="M-27.72,325.55 C-27.78,325.55 -27.81,325.55 -27.84,325.55 C-27.86,325.56 -27.90,325.58 -27.95,325.62 C-27.77,325.95 -27.08,326.73 -26.33,327.34 C-24.41,328.88 -19.49,330.69 -19.38,330.81 C-19.13,331.12 -18.87,331.42 -18.62,331.73" fill="none" stroke="rgb(33, 228, 63)" stroke-width="3.01" stroke-opacity="1.00" stroke-linejoin="round"/>
<path d="M93.47,-1.40 C93.47,-1.40 93.37,-1.40 93.37,-1.40 C93.37,-1.40 93.28,-1.50 93.28,-1.50 C93.28,-2.06 93.75,-2.88 94.69,-3.58 C96.51,-4.92 101.17,-6.77 102.48,-6.89 C103.34,-6.94 104.92,-5.14 105.35,-3.76 C105.68,-2.60 104.97,6.40 105.06,6.40 C106.19,5.89 107.78,6.13 108.57,7.26 C109.44,8.56 109.54,10.01 109.44,10.42 C109.99,9.54 111.11,9.55 113.00,10.82 C114.87,12.08 120.11,16.43 120.54,17.16 C121.54,19.05 119.46,21.96 119.07,22.31 C118.91,22.45 118.54,22.76 117.93,23.25" fill="none" stroke="rgb(33, 228, 63)" stroke-width="3.01" stroke-opacity="1.00" stroke-linejoin="round"/>
</g>
</svg>
