<?xml version="1.0" encoding="UTF-8" standalone="no"?>
<!DOCTYPE svg PUBLIC "-//W3C//DTD SVG 1.1//EN" "http://www.w3.org/Graphics/SVG/1.1/DTD/svg11.dtd">
<svg width="64.20" height="90.84" viewBox="0.00 0.00 535.00 757.00" xmlns="http://www.w3.org/2000/svg" xmlns:xlink="http://www.w3.org/1999/xlink">
<g stroke-linecap="round" transform="translate(154.00, 267.00)" id="187-우산">
<path d="M103.90,34.50 C103.90,34.50 103.31,34.50 103.31,34.50 C103.35,24.54 104.85,12.72 105.71,12.04 C107.01,12.07 112.55,12.84 113.96,13.18 C114.81,13.43 115.78,14.30 116.05,15.33 C116.80,18.40 116.13,34.32 115.66,39.13 C115.62,39.52 115.55,39.86 115.46,40.13" fill="none" stroke="rgb(228, 229, 76)" stroke-width="3.13" stroke-opacity="1.00" stroke-linejoin="round"/>
<path d="M115.46,40.13 C115.16,40.08 114.56,39.67 114.30,39.53 C111.52,38.03 96.63,37.80 91.11,38.49 C87.50,38.98 74.60,43.40 69.94,45.81 C67.41,47.13 52.61,55.92 47.89,58.88 C43.61,61.63 30.38,72.06 28.02,74.13 C16.62,84.13 12.09,90.74 12.17,90.80 C14.88,90.83 29.57,89.71 32.16,89.92 C35.30,90.19 41.35,92.08 43.71,93.46 C45.31,94.41 51.16,99.18 51.85,99.61 C53.06,100.32 67.33,100.16 74.27,100.07 C78.82,100.07 82.23,100.24 86.49,100.87 C93.86,102.00 100.13,105.59 103.93,108.17 C106.25,109.75 107.18,110.21 107.84,109.96 C108.89,109.50 115.69,107.06 118.75,106.66 C122.15,106.24 128.92,106.36 132.40,106.89 C143.75,108.67 155.15,115.26 155.65,115.08 C156.32,114.83 163.60,111.69 166.42,110.84 C170.03,109.77 174.97,109.27 177.88,109.43 C179.00,109.51 188.56,110.56 188.81,110.58 C188.81,110.58 189.54,110.07 189.54,110.07" fill="none" stroke="rgb(228, 229, 76)" stroke-width="3.13" stroke-opacity="1.00" stroke-linejoin="round"/>
<path d="M114.27,40.72 C114.27,40.72 114.57,40.43 114.57,40.43 C117.26,40.18 119.58,40.05 121.11,40.15 C125.32,40.42 135.25,43.32 138.50,45.07 C140.28,46.05 153.64,54.74 156.63,57.22 C160.96,60.84 169.12,70.07 172.13,74.83 C176.01,81.01 182.19,93.96 184.28,100.66 C184.93,102.82 184.88,103.76 184.47,104.92 C184.38,105.18 184.19,105.61 183.91,106.21" fill="none" stroke="rgb(228, 229, 76)" stroke-width="3.13" stroke-opacity="1.00" stroke-linejoin="round"/>
<path d="M89.68,43.69 C89.60,43.64 89.50,43.64 89.38,43.69 C87.19,44.59 68.36,76.79 65.02,85.13 C64.17,87.28 62.94,91.54 62.94,91.85 C62.94,91.85 65.08,91.10 65.08,91.10" fill="none" stroke="rgb(228, 229, 76)" stroke-width="3.13" stroke-opacity="1.00" stroke-linejoin="round"/>
<path d="M105.38,50.21 C105.38,50.21 105.38,49.91 105.38,49.91 C105.05,51.63 106.79,93.88 106.85,106.37 C106.79,113.09 101.92,152.81 100.19,160.56 C99.47,163.75 97.71,171.75 97.65,172.01 C96.67,176.01 95.36,178.22 95.38,178.18 C95.38,178.18 96.79,176.45 96.79,176.45" fill="none" stroke="rgb(228, 229, 76)" stroke-width="3.13" stroke-opacity="1.00" stroke-linejoin="round"/>
<path d="M93.53,178.23 C93.45,178.23 91.28,180.83 89.42,182.55 C87.11,184.69 84.51,185.95 83.45,186.34 C83.45,186.34 79.84,182.42 79.84,182.42 C77.18,182.98 76.10,183.39 75.74,184.15 C74.74,186.30 74.78,189.94 76.11,192.01 C77.40,193.90 82.19,196.11 84.86,196.33 C87.29,196.48 92.16,195.01 93.94,193.65 C95.76,192.19 97.70,188.11 98.28,185.45 C98.40,184.90 98.95,182.01 99.11,181.17" fill="none" stroke="rgb(228, 229, 76)" stroke-width="3.13" stroke-opacity="1.00" stroke-linejoin="round"/>
<path d="M123.16,48.13 C123.16,48.13 122.27,47.83 122.27,47.83 C122.78,47.35 130.72,56.49 136.88,65.47 C142.38,73.43 147.26,81.57 149.91,86.30 C151.07,88.46 154.53,96.04 155.37,98.81 C157.17,104.92 156.51,110.39 156.31,111.15 C156.24,111.41 156.06,112.04 155.76,113.03" fill="none" stroke="rgb(228, 229, 76)" stroke-width="3.13" stroke-opacity="1.00" stroke-linejoin="round"/>
</g>
</svg>
