<?xml version="1.0" encoding="UTF-8" standalone="no"?>
<!DOCTYPE svg PUBLIC "-//W3C//DTD SVG 1.1//EN" "http://www.w3.org/Graphics/SVG/1.1/DTD/svg11.dtd">
<svg width="64.20" height="90.84" viewBox="0.00 0.00 535.00 757.00" xmlns="http://www.w3.org/2000/svg" xmlns:xlink="http://www.w3.org/1999/xlink">
<g stroke-linecap="round" transform="translate(44.00, 155.00)" id="187-구름-2">
<path d="M151.35,-123.66 C148.20,-123.94 146.30,-124.04 145.54,-123.83 C144.57,-123.57 143.83,-122.85 143.26,-121.84 C143.26,-121.84 143.48,-120.12 143.48,-120.12 C145.05,-118.50 146.12,-117.64 147.36,-117.18 C149.59,-116.36 154.74,-115.46 158.12,-115.40 C160.04,-115.37 167.86,-115.92 171.10,-116.45 C172.91,-116.76 177.08,-117.88 178.60,-119.07 C178.71,-120.55 175.92,-123.25 173.55,-124.52 C171.05,-125.83 166.29,-127.31 163.44,-127.78 C158.91,-128.50 151.69,-128.68 148.31,-128.20 C145.75,-127.81 141.60,-126.39 139.63,-124.83 C138.66,-124.04 138.13,-122.76 137.59,-120.34 C138.90,-118.00 139.78,-116.89 140.97,-116.26 C145.06,-114.11 154.70,-112.70 159.22,-112.74 C162.77,-112.79 167.89,-113.55 169.65,-114.24 C170.67,-114.65 171.23,-115.50 171.82,-117.17 C170.77,-119.08 169.98,-120.10 168.80,-120.82 C163.87,-123.77 155.55,-124.49 152.80,-124.16 C151.52,-124.00 150.47,-123.47 148.82,-122.31 C148.82,-122.31 148.90,-120.36 148.90,-120.36 C150.06,-118.95 153.92,-116.93 157.23,-116.32 C160.56,-115.73 167.58,-115.93 170.22,-116.45 C172.97,-117.02 174.09,-117.64 175.23,-118.51 C172.28,-120.98 170.37,-121.83 166.43,-121.63 C159.48,-121.18 156.15,-118.11 154.70,-116.34 C155.11,-114.43 155.67,-113.36 156.83,-112.75 C159.25,-111.51 165.46,-110.34 169.94,-110.24 C179.28,-110.11 184.38,-112.05 185.12,-112.65 C185.12,-112.65 179.63,-115.68 179.63,-115.68 C180.19,-115.99 197.75,-120.41 201.66,-122.22 C202.01,-122.38 202.70,-122.75 203.73,-123.32 C203.73,-123.32 204.54,-125.16 204.54,-125.16 C202.02,-126.81 190.98,-127.50 185.80,-126.62 C182.68,-126.05 177.21,-123.81 175.58,-122.52 C174.07,-121.24 172.62,-119.62 172.07,-118.44 C171.57,-117.32 171.24,-114.85 171.40,-113.58 C171.60,-112.29 172.66,-109.90 173.51,-108.94 C175.30,-107.00 181.19,-104.86 185.79,-104.32 C187.55,-104.13 192.39,-104.02 193.97,-104.15 C198.23,-104.54 203.85,-106.16 206.50,-107.60 C207.68,-108.26 208.28,-109.28 208.95,-111.36 C208.34,-113.18 205.28,-115.74 201.62,-116.93 C198.27,-117.97 188.61,-118.39 183.87,-117.85 C181.35,-117.55 177.38,-116.58 175.65,-115.92 C173.62,-115.12 169.79,-112.50 168.89,-110.58 C168.43,-109.54 168.36,-107.41 168.74,-106.44 C169.18,-105.47 170.92,-103.70 172.13,-103.00 C174.76,-101.57 181.51,-100.59 184.42,-100.66 C189.51,-100.86 197.35,-102.90 200.77,-104.44 C202.27,-105.13 203.15,-106.11 204.28,-108.08 C203.15,-110.12 202.22,-111.18 200.78,-111.75 C197.58,-112.97 191.92,-113.24 188.71,-112.81 C185.87,-112.36 179.71,-110.26 177.08,-108.59 C174.59,-106.93 174.16,-105.71 173.99,-104.00 C175.64,-102.14 176.87,-101.13 178.36,-100.65 C181.43,-99.69 187.67,-99.65 191.55,-100.50 C194.54,-101.18 199.37,-103.17 201.19,-104.33 C202.03,-104.88 202.41,-105.64 202.74,-107.17 C201.28,-108.70 200.15,-109.50 198.77,-109.76 C195.78,-110.28 191.03,-109.62 188.69,-108.43 C187.70,-107.90 187.13,-107.10 186.51,-105.63 C187.50,-104.47 188.29,-103.93 189.51,-103.80 C192.43,-103.53 198.36,-104.46 201.68,-105.74 C204.36,-106.81 206.06,-108.32 206.82,-109.19 C206.82,-109.19 207.05,-111.54 207.05,-111.54 C205.91,-113.03 201.52,-114.94 197.56,-115.38 C191.14,-116.07 184.32,-115.23 182.49,-114.92 C182.49,-114.92 193.26,-114.56 193.26,-114.56" fill="none" stroke="rgb(67, 224, 232)" stroke-width="3.13" stroke-opacity="1.00" stroke-linejoin="round"/>
<path d="M229.85,-122.03 C225.53,-123.19 220.08,-123.97 216.91,-123.55 C214.30,-123.18 206.89,-120.78 204.38,-119.59 C201.96,-118.41 199.28,-115.77 198.93,-113.88 C198.77,-112.82 199.09,-110.51 199.56,-109.48 C200.09,-108.41 201.94,-106.45 203.13,-105.69 C205.66,-104.16 212.05,-103.04 215.69,-102.99 C220.35,-102.93 223.85,-103.01 225.56,-103.27 C230.39,-104.07 236.10,-106.34 238.22,-108.26 C239.16,-109.16 240.39,-111.10 240.66,-112.10 C240.89,-113.09 240.64,-115.03 240.15,-115.95 C239.07,-117.84 234.13,-120.81 230.10,-121.81 C226.26,-122.71 216.69,-122.24 211.51,-120.90 C206.26,-119.50 198.38,-115.31 196.70,-113.18 C195.68,-111.83 194.69,-109.64 194.64,-108.36 C194.63,-107.20 195.45,-104.98 196.24,-103.97 C197.91,-101.97 203.69,-99.37 207.26,-99.06 C210.84,-98.80 218.80,-100.22 222.23,-101.65 C224.87,-102.78 228.83,-105.40 230.28,-107.13 C231.13,-108.17 232.23,-110.60 232.42,-111.80 C232.58,-113.01 232.16,-115.34 231.58,-116.44 C230.95,-117.55 229.05,-119.41 227.76,-120.16 C226.41,-120.89 223.30,-121.81 221.57,-121.97 C218.35,-122.24 212.69,-120.58 211.25,-119.74 C208.23,-117.89 205.15,-113.79 205.03,-111.84 C205.00,-110.94 205.66,-109.39 206.34,-108.74 C209.31,-106.11 219.10,-105.56 221.94,-106.02 C223.31,-106.26 224.50,-107.07 226.32,-108.80 C226.92,-110.75 226.78,-112.77 225.77,-114.35 C224.92,-115.64 220.10,-117.09 217.60,-116.67 C214.94,-116.16 213.17,-114.99 211.67,-113.59 C211.67,-113.59 211.76,-111.96 211.76,-111.96 C213.96,-110.84 215.54,-110.28 217.19,-110.21 C220.62,-110.08 226.10,-111.05 228.73,-112.17 C229.89,-112.68 230.63,-113.43 231.55,-114.83 C230.70,-116.08 229.92,-116.72 228.77,-116.87 C226.29,-117.17 221.55,-116.25 219.07,-115.01 C217.14,-113.95 216.52,-111.34 216.15,-108.51" fill="none" stroke="rgb(67, 224, 232)" stroke-width="3.13" stroke-opacity="1.00" stroke-linejoin="round"/>
</g>
</svg>
