<?xml version="1.0" encoding="UTF-8" standalone="no"?>
<!DOCTYPE svg PUBLIC "-//W3C//DTD SVG 1.1//EN" "http://www.w3.org/Graphics/SVG/1.1/DTD/svg11.dtd">
<svg width="64.20" height="90.84" viewBox="0.00 0.00 535.00 757.00" xmlns="http://www.w3.org/2000/svg" xmlns:xlink="http://www.w3.org/1999/xlink">
<g stroke-linecap="round" transform="translate(44.00, 155.00)" id="187-번개-1">
<path d="M8.40,8.48 C8.28,8.50 8.17,8.51 8.07,8.52 C7.87,8.55 -0.21,19.96 -1.85,22.00 C-8.25,29.74 -14.40,36.23 -14.94,38.07 C-15.34,39.64 -14.70,43.34 -13.02,47.64 C-11.19,52.28 -6.51,61.02 -3.10,65.76 C2.21,72.98 6.96,80.30 6.94,80.64 C6.81,81.74 -2.06,93.81 -2.70,95.73 C-1.93,96.05 2.20,93.93 8.05,88.87 C14.40,83.46 21.26,77.41 21.22,76.53 C21.02,74.87 7.22,58.85 6.24,57.66 C3.57,54.15 -5.32,43.70 -5.42,43.52 C-5.42,43.52 1.18,31.28 2.85,26.41 C6.01,17.16 6.89,13.49 7.30,11.68 C7.32,11.58 7.39,11.36 7.51,10.99" fill="none" stroke="rgb(135, 133, 188)" stroke-width="3.13" stroke-opacity="1.00" stroke-linejoin="round"/>
<path d="M50.16,-4.96 C50.16,-4.96 50.34,-4.96 50.34,-4.96 C50.33,-4.96 52.08,-4.10 53.90,-1.39 C56.14,1.97 59.22,5.93 59.53,6.37 C60.02,7.14 58.33,12.52 57.97,14.18 C57.46,16.53 56.79,21.43 56.81,21.37 C56.81,21.37 72.33,25.09 72.33,25.09 C72.33,25.09 64.19,16.30 64.19,16.30 C64.19,16.30 68.79,2.04 68.79,2.04 C67.05,-0.95 51.75,-4.83 51.72,-4.84 C51.64,-4.87 51.42,-4.97 51.06,-5.14" fill="none" stroke="rgb(135, 133, 188)" stroke-width="3.13" stroke-opacity="1.00" stroke-linejoin="round"/>
</g>
</svg>
