<?xml version="1.0" encoding="UTF-8" standalone="no"?>
<!DOCTYPE svg PUBLIC "-//W3C//DTD SVG 1.1//EN" "http://www.w3.org/Graphics/SVG/1.1/DTD/svg11.dtd">
<svg width="64.20" height="90.84" viewBox="0.00 0.00 535.00 757.00" xmlns="http://www.w3.org/2000/svg" xmlns:xlink="http://www.w3.org/1999/xlink">
<g stroke-linecap="round" transform="translate(44.00, 155.00)" id="187-개구리">
<path d="M412.66,489.54 C412.32,489.29 407.35,487.52 406.12,486.85 C404.57,485.96 401.89,482.70 400.55,480.15 C399.50,478.08 399.36,473.43 400.31,471.48 C400.74,470.61 402.38,468.27 403.81,467.03 C405.19,465.85 409.76,463.24 412.07,462.58 C416.83,461.27 427.62,460.78 431.13,461.39 C435.65,462.20 440.10,462.80 442.66,463.62 C443.28,463.83 449.04,467.06 449.87,467.71 C451.18,468.75 452.88,470.94 453.50,472.41 C454.10,473.90 454.63,477.15 454.51,478.86 C454.36,480.53 453.51,483.16 452.81,484.23 C451.40,486.32 446.02,489.27 441.99,489.72 C438.49,490.06 428.03,487.41 423.51,487.63 C421.67,487.75 413.44,489.46 413.32,489.44 C413.13,489.41 412.55,489.28 411.56,489.04" fill="none" stroke="rgb(13, 89, 72)" stroke-width="3.13" stroke-opacity="1.00" stroke-linejoin="round"/>
<path d="M416.02,466.53 C416.02,466.53 416.02,466.44 416.02,466.44 C416.02,466.44 417.63,479.68 417.63,479.68" fill="none" stroke="rgb(13, 89, 72)" stroke-width="3.13" stroke-opacity="1.00" stroke-linejoin="round"/>
<path d="M416.64,473.62 C415.84,473.68 414.93,474.07 414.08,474.57 C412.36,475.60 410.87,476.84 409.66,478.39 C408.90,479.38 408.22,480.35 408.23,480.41 C408.23,480.41 409.06,480.71 409.06,480.71" fill="none" stroke="rgb(13, 89, 72)" stroke-width="3.13" stroke-opacity="1.00" stroke-linejoin="round"/>
<path d="M419.88,472.87 C420.13,472.78 420.58,472.66 421.15,472.56 C423.38,472.18 427.13,471.49 429.49,471.55 C432.02,471.64 435.81,472.79 438.02,474.51 C438.93,475.24 439.70,475.93 439.84,476.11 C439.84,476.11 439.66,476.50 439.66,476.50" fill="none" stroke="rgb(13, 89, 72)" stroke-width="3.13" stroke-opacity="1.00" stroke-linejoin="round"/>
<path d="M431.94,473.37 C431.94,473.37 432.00,473.43 432.00,473.43 C432.05,473.69 432.07,475.92 432.12,476.82 C432.17,477.91 432.51,480.92 432.51,481.10 C432.51,481.33 432.44,481.69 432.32,482.20" fill="none" stroke="rgb(13, 89, 72)" stroke-width="3.13" stroke-opacity="1.00" stroke-linejoin="round"/>
<path d="M413.16,491.15 C413.16,491.15 412.90,491.15 412.90,491.15 C412.64,491.54 411.81,495.10 411.82,496.02 C411.89,497.63 414.88,499.92 416.95,500.33 C418.02,500.53 422.47,500.51 424.51,500.21 C426.77,499.84 429.81,498.54 430.46,497.80 C431.64,496.36 430.96,492.23 430.14,491.39 C429.98,491.23 429.65,491.04 429.13,490.83" fill="none" stroke="rgb(13, 89, 72)" stroke-width="3.13" stroke-opacity="1.00" stroke-linejoin="round"/>
<path d="M431.25,498.99 C431.31,499.03 433.84,503.00 434.68,505.29 C435.91,508.68 435.79,511.85 435.78,511.85 C435.48,511.04 434.67,509.49 433.41,508.74 C432.00,507.93 424.97,507.51 423.16,508.63 C422.22,509.30 419.20,514.01 418.85,514.59 C418.41,515.29 416.48,516.09 414.97,515.95 C414.17,515.85 412.73,514.92 412.29,514.04 C411.41,512.15 412.31,506.44 412.90,504.41 C412.98,504.14 412.92,503.73 412.79,502.72" fill="none" stroke="rgb(13, 89, 72)" stroke-width="3.13" stroke-opacity="1.00" stroke-linejoin="round"/>
<path d="M408.31,488.66 C408.31,488.66 407.97,488.70 407.97,488.70 C407.70,489.07 407.30,491.21 407.16,494.59 C406.97,499.55 407.13,501.89 407.99,503.44 C408.86,504.90 411.57,506.01 412.15,506.25 C412.35,506.33 412.54,506.45 412.70,506.60" fill="none" stroke="rgb(13, 89, 72)" stroke-width="3.13" stroke-opacity="1.00" stroke-linejoin="round"/>
<path d="M413.16,517.27 C412.90,517.26 412.72,517.26 412.64,517.27 C412.31,517.28 411.79,517.39 411.53,517.52 C410.99,517.80 410.56,518.65 410.56,519.30 C410.59,520.09 411.41,521.16 412.37,521.50 C413.29,521.80 415.12,521.61 416.19,521.17 C418.94,519.96 421.49,514.73 422.78,514.23 C423.81,513.85 425.46,514.38 425.94,514.87 C426.30,515.27 427.31,517.80 427.31,517.81 C427.83,518.60 430.94,518.52 432.59,517.72 C433.52,517.26 434.71,516.07 434.89,515.42 C435.08,514.69 435.01,513.10 434.73,512.14 C434.65,511.89 434.50,511.55 434.28,511.13" fill="none" stroke="rgb(13, 89, 72)" stroke-width="3.13" stroke-opacity="1.00" stroke-linejoin="round"/>
<path d="M419.25,495.01 C419.14,494.99 418.55,495.09 418.32,495.13 C418.30,495.13 418.24,495.14 418.26,495.13 C419.73,493.56 424.26,494.68 425.59,495.49 C425.59,495.49 425.20,495.21 425.20,495.21" fill="none" stroke="rgb(13, 89, 72)" stroke-width="3.13" stroke-opacity="1.00" stroke-linejoin="round"/>
<path d="M423.23,491.65 C422.96,491.55 422.78,491.49 422.70,491.46 C422.62,491.44 422.51,491.42 422.38,491.40 C422.38,491.40 422.61,491.52 422.61,491.52" fill="none" stroke="rgb(13, 89, 72)" stroke-width="3.13" stroke-opacity="1.00" stroke-linejoin="round"/>
<path d="M395.38,567.26 C395.38,567.26 394.01,568.50 394.01,568.50" fill="none" stroke="rgb(13, 89, 72)" stroke-width="3.13" stroke-opacity="1.00" stroke-linejoin="round"/>
<path d="M391.27,571.36 C391.27,571.36 387.67,576.21 387.67,576.21" fill="none" stroke="rgb(13, 89, 72)" stroke-width="3.13" stroke-opacity="1.00" stroke-linejoin="round"/>
</g>
</svg>
