<?xml version="1.0" encoding="UTF-8" standalone="no"?>
<!DOCTYPE svg PUBLIC "-//W3C//DTD SVG 1.1//EN" "http://www.w3.org/Graphics/SVG/1.1/DTD/svg11.dtd">
<svg width="64.20" height="90.84" viewBox="0.00 0.00 535.00 757.00" xmlns="http://www.w3.org/2000/svg" xmlns:xlink="http://www.w3.org/1999/xlink">
<g stroke-linecap="round" transform="translate(156.00, 267.00)" id="187-사람-1">
<path d="M31.96,98.51 C31.96,98.43 31.97,98.11 31.96,98.06 C31.96,98.02 31.94,97.97 31.92,97.92 C30.72,97.47 28.24,97.83 23.82,99.18 C20.99,100.03 15.07,101.82 13.98,102.22 C11.90,102.99 8.15,105.50 5.98,107.64 C3.98,109.64 0.21,114.20 -1.95,117.10 C-3.76,119.56 -5.80,123.79 -6.50,126.98 C-7.20,130.40 -7.13,136.11 -6.24,139.06 C-5.33,141.93 -2.11,147.78 -0.39,149.78 C1.22,151.61 4.63,153.59 7.30,154.33 C9.95,155.05 15.02,156.00 18.08,155.95 C18.94,155.93 21.41,155.22 22.78,154.81" fill="none" stroke="rgb(33, 228, 63)" stroke-width="3.13" stroke-opacity="1.00" stroke-linejoin="round"/>
<path d="M30.78,99.69 C30.81,99.75 30.86,99.75 30.93,99.69 C32.19,98.73 34.42,98.52 38.47,98.51 C40.36,98.56 48.15,100.18 49.22,100.57 C51.18,101.30 55.47,103.55 57.23,105.00 C59.02,106.50 61.64,109.77 62.73,112.06 C63.67,114.09 65.09,119.12 65.43,122.01 C65.76,124.99 65.58,129.85 64.86,132.88 C64.07,136.09 61.41,142.76 60.22,144.83 C58.71,147.39 54.66,151.13 52.32,152.33 C50.24,153.36 45.31,154.58 43.34,154.84 C42.95,154.90 42.12,154.99 40.85,155.11" fill="none" stroke="rgb(33, 228, 63)" stroke-width="3.13" stroke-opacity="1.00" stroke-linejoin="round"/>
<path d="M23.07,159.56 C20.63,159.56 16.98,160.67 14.76,161.75 C12.80,162.71 7.63,167.15 6.73,168.25 C5.01,170.42 3.04,176.03 2.25,180.06 C1.20,186.26 -0.68,196.76 -1.80,200.09 C-1.76,200.14 2.15,199.41 4.58,199.42 C7.74,199.45 11.10,200.86 12.32,201.87 C12.41,201.63 16.38,184.65 16.77,183.73 C16.92,183.37 17.15,183.12 17.44,182.97" fill="none" stroke="rgb(33, 228, 63)" stroke-width="3.13" stroke-opacity="1.00" stroke-linejoin="round"/>
<path d="M-2.41,201.34 C-2.82,201.39 -3.22,201.55 -3.58,201.91 C-4.56,202.95 -5.48,206.41 -5.33,208.14 C-5.19,209.40 -3.76,210.88 -2.77,210.99 C-1.94,211.06 0.33,209.03 0.54,208.95 C0.81,209.02 3.67,211.54 5.14,211.16 C6.49,210.78 8.23,209.84 8.66,209.20 C8.99,208.64 9.96,206.42 9.96,205.80 C9.97,205.43 9.83,204.68 9.57,203.54" fill="none" stroke="rgb(33, 228, 63)" stroke-width="3.13" stroke-opacity="1.00" stroke-linejoin="round"/>
<path d="M2.03,213.19 C2.03,213.25 2.03,213.65 1.97,214.14 C1.11,221.76 0.82,233.40 0.85,239.85 C2.52,240.63 11.63,241.56 23.19,242.09 C32.20,242.57 49.03,244.33 49.93,244.31 C49.93,244.31 45.89,177.34 45.89,177.34 C45.89,177.34 45.59,177.04 45.59,177.04" fill="none" stroke="rgb(33, 228, 63)" stroke-width="3.13" stroke-opacity="1.00" stroke-linejoin="round"/>
<path d="M47.37,158.07 C51.85,161.33 59.27,169.38 64.09,171.92 C66.56,173.19 72.03,174.13 74.04,174.08 C74.04,174.08 76.23,174.11 77.82,176.50 C78.79,178.00 78.41,180.31 77.60,180.87 C77.03,181.22 74.31,181.45 72.30,180.52 C70.70,179.77 69.79,178.03 69.66,177.60 C69.66,177.60 69.86,182.98 69.86,182.98 C69.11,183.26 66.13,183.03 63.33,182.17 C55.30,179.66 48.82,176.46 48.06,176.00 C47.83,175.86 47.60,175.71 47.37,175.56" fill="none" stroke="rgb(33, 228, 63)" stroke-width="3.13" stroke-opacity="1.00" stroke-linejoin="round"/>
<path d="M34.33,164.59 C34.33,164.59 33.74,164.59 33.74,164.59 C33.79,164.61 32.18,167.91 31.39,171.43 C31.09,172.82 26.65,191.16 25.96,195.01 C23.97,206.60 23.00,225.05 22.83,228.17 C22.83,228.17 23.07,228.01 23.07,228.01" fill="none" stroke="rgb(33, 228, 63)" stroke-width="3.13" stroke-opacity="1.00" stroke-linejoin="round"/>
<path d="M32.85,178.52 C32.67,178.55 32.54,178.55 32.46,178.52 C32.38,178.49 32.24,178.39 32.05,178.23 C32.05,178.23 31.41,180.56 31.41,180.56 C31.41,180.56 32.56,180.55 32.56,180.55 C32.56,180.55 31.37,179.25 31.37,179.25 C31.37,179.25 30.78,180.89 30.78,180.89" fill="none" stroke="rgb(33, 228, 63)" stroke-width="3.13" stroke-opacity="1.00" stroke-linejoin="round"/>
<path d="M28.11,206.67 C28.11,206.67 27.29,206.67 27.29,206.67 C27.29,206.67 26.60,209.37 26.60,209.37 C26.60,209.37 27.07,207.96 27.07,207.96 C27.07,207.96 26.33,209.64 26.33,209.64" fill="none" stroke="rgb(33, 228, 63)" stroke-width="3.13" stroke-opacity="1.00" stroke-linejoin="round"/>
<path d="M27.22,226.53 C27.22,226.53 26.48,226.97 26.48,226.97 C26.48,226.97 26.33,227.42 26.33,227.42 C26.62,227.02 26.79,226.40 26.28,226.07 C26.19,226.01 26.01,225.87 25.74,225.64" fill="none" stroke="rgb(33, 228, 63)" stroke-width="3.13" stroke-opacity="1.00" stroke-linejoin="round"/>
<path d="M7.07,243.42 C7.07,243.42 6.77,243.42 6.77,243.42 C6.56,244.81 1.56,262.23 1.45,265.01 C1.42,265.85 1.61,266.89 1.73,267.34 C1.72,267.47 5.47,267.97 10.24,268.47 C10.60,268.51 11.12,268.55 11.81,268.61" fill="none" stroke="rgb(33, 228, 63)" stroke-width="3.13" stroke-opacity="1.00" stroke-linejoin="round"/>
<path d="M18.33,244.90 C18.33,245.09 18.33,245.28 18.33,245.47 C18.33,251.52 17.44,267.64 18.12,270.50 C18.20,270.84 18.36,271.07 18.61,271.21 C18.61,271.21 30.75,269.91 30.75,269.91 C31.88,268.75 30.97,250.16 30.78,249.88 C30.68,249.72 30.28,249.25 29.59,248.46" fill="none" stroke="rgb(33, 228, 63)" stroke-width="3.13" stroke-opacity="1.00" stroke-linejoin="round"/>
<path d="M-0.63,272.46 C-0.63,272.46 -0.73,271.28 -0.73,271.28 C-1.86,271.52 -2.77,273.08 -2.86,274.01 C-2.91,274.91 -1.63,277.01 0.91,277.69 C2.45,278.09 9.94,277.93 11.13,277.67 C12.09,277.44 13.39,276.64 13.75,276.04 C14.10,275.37 14.05,273.88 13.60,273.05 C13.15,272.25 12.20,271.21 11.46,270.73 C11.09,270.49 10.37,270.02 9.30,269.30" fill="none" stroke="rgb(33, 228, 63)" stroke-width="3.13" stroke-opacity="1.00" stroke-linejoin="round"/>
<path d="M21.29,273.35 C21.29,273.35 19.07,273.47 19.07,273.47 C17.85,274.46 17.26,277.64 17.78,278.47 C18.35,279.28 21.01,280.45 23.70,280.40 C26.24,280.33 30.87,278.03 31.47,276.53 C31.74,275.78 31.40,274.00 30.87,273.13 C30.38,272.36 29.02,271.04 27.41,269.63" fill="none" stroke="rgb(33, 228, 63)" stroke-width="3.13" stroke-opacity="1.00" stroke-linejoin="round"/>
<path d="M13.00,108.88 C12.80,109.12 12.50,109.47 12.36,110.09 C11.15,115.65 10.12,129.42 10.87,133.12 C11.07,134.12 11.91,135.66 12.52,136.55 C12.62,136.68 12.68,136.74 12.69,136.73" fill="none" stroke="rgb(33, 228, 63)" stroke-width="3.13" stroke-opacity="1.00" stroke-linejoin="round"/>
<path d="M6.77,132.89 C7.02,132.91 5.44,131.07 4.56,130.92 C3.43,130.78 1.60,133.11 1.21,135.01 C0.86,136.92 1.88,139.75 3.15,140.72 C4.43,141.63 6.97,141.72 8.36,141.51 C8.36,141.51 8.54,141.68 8.54,141.68" fill="none" stroke="rgb(33, 228, 63)" stroke-width="3.13" stroke-opacity="1.00" stroke-linejoin="round"/>
<path d="M22.48,109.77 C21.78,109.75 20.47,110.61 19.56,112.66 C18.43,115.31 17.37,121.12 17.48,123.88 C17.65,126.62 18.40,127.97 19.46,129.36 C19.46,129.36 21.59,129.33 21.59,129.33" fill="none" stroke="rgb(33, 228, 63)" stroke-width="3.13" stroke-opacity="1.00" stroke-linejoin="round"/>
<path d="M30.48,111.84 C30.40,111.82 30.30,111.82 30.19,111.84 C30.07,111.87 29.77,111.94 29.28,112.06 C28.00,113.84 26.12,119.39 25.80,123.02 C25.71,124.43 26.15,128.24 26.68,129.27 C26.94,129.75 27.55,130.34 28.52,131.03" fill="none" stroke="rgb(33, 228, 63)" stroke-width="3.13" stroke-opacity="1.00" stroke-linejoin="round"/>
<path d="M34.63,112.14 C34.34,112.80 34.32,115.27 34.67,120.66 C34.98,125.04 35.69,128.60 36.11,130.16 C36.11,130.16 36.86,129.79 36.86,129.79" fill="none" stroke="rgb(33, 228, 63)" stroke-width="3.13" stroke-opacity="1.00" stroke-linejoin="round"/>
<path d="M40.26,112.44 C40.32,112.88 40.40,113.34 40.51,113.82 C41.49,118.42 42.04,125.45 42.08,125.78 C42.20,126.95 42.32,128.12 42.45,129.29 C42.45,129.29 43.08,129.69 43.08,129.69" fill="none" stroke="rgb(33, 228, 63)" stroke-width="3.13" stroke-opacity="1.00" stroke-linejoin="round"/>
<path d="M44.41,109.77 C44.41,109.77 44.93,109.55 44.93,109.55 C45.36,109.88 47.14,112.10 48.08,113.64 C50.59,117.77 51.30,125.90 50.70,128.81 C50.70,128.81 50.04,127.25 50.04,127.25" fill="none" stroke="rgb(33, 228, 63)" stroke-width="3.13" stroke-opacity="1.00" stroke-linejoin="round"/>
<path d="M50.93,108.88 C51.04,108.90 52.30,108.45 53.96,109.49 C55.13,110.30 57.46,116.37 57.85,121.06 C58.05,123.85 58.00,128.45 57.77,129.43 C57.65,129.91 57.35,130.47 56.86,131.11" fill="none" stroke="rgb(33, 228, 63)" stroke-width="3.13" stroke-opacity="1.00" stroke-linejoin="round"/>
<path d="M26.04,138.81 C26.04,138.81 25.89,138.81 25.89,138.81 C25.89,138.81 25.74,138.59 25.74,138.59 C25.73,137.46 27.23,135.31 28.77,135.10 C32.34,134.72 35.71,138.77 35.80,139.06 C35.80,139.06 36.11,138.22 36.11,138.22" fill="none" stroke="rgb(33, 228, 63)" stroke-width="3.13" stroke-opacity="1.00" stroke-linejoin="round"/>
<path d="M41.15,135.55 C41.15,135.55 41.00,135.40 41.00,135.40 C40.89,134.85 41.10,133.84 41.65,133.23 C42.24,132.61 44.21,131.82 45.06,131.89 C48.10,132.25 49.68,138.18 49.72,138.69 C49.72,138.69 48.85,139.11 48.85,139.11" fill="none" stroke="rgb(33, 228, 63)" stroke-width="3.13" stroke-opacity="1.00" stroke-linejoin="round"/>
<path d="M27.22,145.63 C26.96,145.85 26.89,147.73 28.12,148.76 C31.01,151.07 37.94,149.05 38.38,148.78 C38.38,148.78 38.48,147.11 38.48,147.11" fill="none" stroke="rgb(33, 228, 63)" stroke-width="3.13" stroke-opacity="1.00" stroke-linejoin="round"/>
<path d="M23.96,134.07 C23.89,134.07 23.79,134.07 23.67,134.07 C23.29,134.08 23.03,134.09 22.90,134.12 C22.15,134.31 19.80,137.31 19.38,139.44 C19.16,140.68 19.36,143.44 19.77,144.46 C20.63,146.45 24.15,149.09 26.68,150.09 C28.97,150.96 33.13,151.87 36.67,151.80 C38.50,151.75 43.25,150.44 45.03,149.47 C47.18,148.26 49.59,146.26 50.65,144.66 C51.68,143.08 52.75,140.13 53.14,138.12 C53.26,137.39 52.98,134.76 52.73,134.17 C52.57,133.82 52.17,133.29 51.52,132.59" fill="none" stroke="rgb(33, 228, 63)" stroke-width="3.13" stroke-opacity="1.00" stroke-linejoin="round"/>
</g>
</svg>
