<?xml version="1.0" encoding="UTF-8" standalone="no"?>
<!DOCTYPE svg PUBLIC "-//W3C//DTD SVG 1.1//EN" "http://www.w3.org/Graphics/SVG/1.1/DTD/svg11.dtd">
<svg width="64.20" height="90.84" viewBox="0.00 0.00 535.00 757.00" xmlns="http://www.w3.org/2000/svg" xmlns:xlink="http://www.w3.org/1999/xlink">
<g stroke-linecap="round" transform="translate(44.00, 155.00)" id="187-지면">
<path d="M84.97,396.49 C85.02,396.35 85.33,395.95 85.60,395.75 C85.72,395.66 86.02,395.52 86.48,395.33 C88.98,394.33 93.94,394.13 95.92,393.97 C103.18,393.37 118.25,392.13 119.95,391.62 C119.95,391.62 119.05,391.81 119.05,391.81" fill="none" stroke="rgb(45, 6, 20)" stroke-width="3.13" stroke-opacity="1.00" stroke-linejoin="round"/>
<path d="M81.77,402.67 C82.17,402.67 82.57,402.67 82.98,402.67 C83.67,402.67 84.10,402.67 84.25,402.67 C85.22,402.64 93.01,402.18 97.09,401.76 C146.81,396.10 153.68,396.29 153.98,396.37 C153.98,396.37 151.09,397.86 151.09,397.86" fill="none" stroke="rgb(45, 6, 20)" stroke-width="3.13" stroke-opacity="1.00" stroke-linejoin="round"/>
<path d="M64.15,418.45 C64.15,418.45 64.15,418.34 64.15,418.34 C64.17,418.31 65.81,417.60 68.09,416.94 C74.87,414.98 85.22,413.33 96.20,412.04 C116.09,410.13 130.96,407.93 147.62,406.25 C164.17,404.87 192.82,404.43 197.07,404.04 C200.28,403.70 203.90,403.30 204.32,403.24 C204.32,403.24 201.82,404.48 201.82,404.48" fill="none" stroke="rgb(45, 6, 20)" stroke-width="3.13" stroke-opacity="1.00" stroke-linejoin="round"/>
<path d="M87.03,426.00 C90.54,424.55 97.38,423.29 99.86,422.71 C106.03,421.29 142.23,417.25 155.24,416.17 C170.12,415.08 204.31,414.75 207.69,414.65 C237.59,414.55 266.86,413.70 269.49,413.65 C269.49,413.65 267.53,413.42 267.53,413.42" fill="none" stroke="rgb(45, 6, 20)" stroke-width="3.13" stroke-opacity="1.00" stroke-linejoin="round"/>
<path d="M91.83,434.92 C91.83,434.92 91.83,434.47 91.83,434.47 C95.73,434.24 114.41,430.82 118.38,430.34 C121.23,430.00 160.89,426.00 164.85,426.23 C165.07,426.25 165.59,426.30 166.42,426.39" fill="none" stroke="rgb(45, 6, 20)" stroke-width="3.13" stroke-opacity="1.00" stroke-linejoin="round"/>
<path d="M154.98,425.54 C154.98,425.54 155.09,425.20 155.09,425.20 C156.07,424.69 159.07,424.52 160.30,424.42 C166.87,423.85 170.99,423.57 175.71,423.50 C202.70,423.17 249.46,422.43 249.39,422.45 C249.39,422.45 246.76,423.53 246.76,423.53" fill="none" stroke="rgb(45, 6, 20)" stroke-width="3.13" stroke-opacity="1.00" stroke-linejoin="round"/>
<path d="M113.11,444.99 C113.11,444.99 113.11,444.30 113.11,444.30 C120.10,442.61 130.00,441.30 140.70,440.41 C156.17,439.26 183.69,437.41 190.07,437.08 C199.82,436.76 229.60,436.74 232.01,436.63 C232.01,436.63 230.60,436.37 230.60,436.37" fill="none" stroke="rgb(45, 6, 20)" stroke-width="3.13" stroke-opacity="1.00" stroke-linejoin="round"/>
<path d="M173.28,433.32 C173.28,433.32 173.28,433.21 173.28,433.21 C173.43,433.08 192.05,433.07 198.03,432.82 C205.22,432.43 219.06,431.68 225.61,431.23 C231.76,430.73 249.45,431.25 252.31,431.25 C264.20,431.38 288.40,431.78 303.43,433.37 C308.43,433.90 310.54,434.00 313.05,434.04 C313.05,434.04 310.84,434.39 310.84,434.39" fill="none" stroke="rgb(45, 6, 20)" stroke-width="3.13" stroke-opacity="1.00" stroke-linejoin="round"/>
<path d="M185.86,451.40 C186.85,451.34 187.74,451.24 190.07,450.87 C207.40,448.19 253.55,448.08 262.45,447.96 C261.48,447.96 260.51,447.96 259.54,447.96 C259.07,447.96 258.61,447.96 258.15,447.96" fill="none" stroke="rgb(45, 6, 20)" stroke-width="3.13" stroke-opacity="1.00" stroke-linejoin="round"/>
<path d="M191.35,447.74 C192.40,447.25 202.81,447.28 211.17,446.71 C220.25,446.17 263.97,446.13 267.48,445.94 C270.84,445.76 284.50,444.53 293.26,444.56 C294.05,444.57 294.83,444.67 296.12,444.90 C296.12,444.90 295.36,446.17 295.36,446.17" fill="none" stroke="rgb(45, 6, 20)" stroke-width="3.13" stroke-opacity="1.00" stroke-linejoin="round"/>
<path d="M299.56,452.08 C299.96,451.04 300.47,450.45 301.92,449.74 C305.96,447.76 309.83,446.62 314.71,445.44 C321.24,443.95 330.54,442.69 340.56,441.98 C360.80,440.53 388.65,439.70 388.97,439.84 C388.97,439.84 388.04,440.82 388.04,440.82" fill="none" stroke="rgb(45, 6, 20)" stroke-width="3.13" stroke-opacity="1.00" stroke-linejoin="round"/>
<path d="M315.58,453.91 C315.94,453.75 316.82,453.47 317.58,453.34 C318.36,453.20 319.16,453.12 319.94,453.00 C320.10,452.97 338.64,450.37 345.45,450.19 C353.51,450.12 368.53,449.98 371.27,449.80 C371.27,449.80 370.43,449.64 370.43,449.64" fill="none" stroke="rgb(45, 6, 20)" stroke-width="3.13" stroke-opacity="1.00" stroke-linejoin="round"/>
<path d="M277.76,384.93 C277.76,384.93 278.24,384.26 278.24,384.26 C279.91,384.09 296.36,384.48 303.31,384.56 C314.64,384.72 366.69,383.82 370.22,383.06 C370.22,383.06 370.11,383.27 370.11,383.27" fill="none" stroke="rgb(45, 6, 20)" stroke-width="3.13" stroke-opacity="1.00" stroke-linejoin="round"/>
<path d="M318.84,388.13 C317.36,387.90 316.54,387.82 315.51,387.86 C310.54,388.07 304.44,389.79 293.16,393.27 C283.64,396.12 271.32,400.38 268.40,401.87 C266.69,402.76 265.35,403.81 265.17,404.42 C264.80,406.00 265.20,407.43 266.40,407.86 C270.14,409.08 294.92,404.60 312.51,402.51 C325.26,401.55 352.81,398.83 362.36,398.80 C364.69,398.77 406.75,395.09 416.25,394.69 C418.10,394.64 421.15,394.56 422.36,394.53 C422.36,394.53 419.91,394.74 419.91,394.74" fill="none" stroke="rgb(45, 6, 20)" stroke-width="3.13" stroke-opacity="1.00" stroke-linejoin="round"/>
<path d="M318.31,406.27 C318.14,405.82 316.46,405.20 313.09,405.54 C310.02,405.87 297.72,410.73 293.72,413.04 C290.28,415.06 289.91,415.92 289.75,416.53 C290.06,417.46 292.07,418.68 294.35,418.93 C295.40,419.03 331.04,415.91 346.83,415.16 C352.90,414.72 418.64,413.10 419.34,413.43 C419.34,413.43 419.41,414.95 419.41,414.95" fill="none" stroke="rgb(45, 6, 20)" stroke-width="3.13" stroke-opacity="1.00" stroke-linejoin="round"/>
<path d="M-20.33,370.73 C-20.33,370.73 -20.18,369.44 -20.18,369.44 C-20.18,369.46 -20.07,369.46 -19.85,369.44 C-17.89,369.29 -5.98,367.41 5.06,366.09 C13.00,365.27 28.46,363.75 35.99,363.05 C40.07,362.66 74.54,361.57 87.89,360.86 C92.43,360.59 99.22,359.54 100.12,359.41 C100.53,359.35 101.25,359.27 102.29,359.17" fill="none" stroke="rgb(89, 39, 13)" stroke-width="3.13" stroke-opacity="1.00" stroke-linejoin="round"/>
<path d="M150.19,372.33 C150.82,371.22 154.87,370.02 158.23,369.67 C167.59,368.89 178.20,369.05 182.59,368.80 C190.95,368.21 204.61,366.98 211.07,367.09 C216.66,367.19 227.91,367.17 228.69,367.28 C228.69,367.28 229.98,368.89 229.98,368.89" fill="none" stroke="rgb(89, 39, 13)" stroke-width="3.13" stroke-opacity="1.00" stroke-linejoin="round"/>
<path d="M262.59,373.62 C264.01,373.04 268.00,371.94 270.40,371.95 C279.39,372.12 286.45,371.57 297.15,369.75 C304.81,368.26 323.00,364.72 326.79,364.25 C341.09,362.89 371.26,359.86 387.12,358.19 C414.16,356.21 459.50,353.45 459.66,353.47 C459.66,353.47 460.72,355.63 460.72,355.63" fill="none" stroke="rgb(89, 39, 13)" stroke-width="3.13" stroke-opacity="1.00" stroke-linejoin="round"/>
</g>
</svg>
