<?xml version="1.0" encoding="UTF-8" standalone="no"?>
<!DOCTYPE svg PUBLIC "-//W3C//DTD SVG 1.1//EN" "http://www.w3.org/Graphics/SVG/1.1/DTD/svg11.dtd">
<svg width="64.20" height="90.84" viewBox="0.00 0.00 535.00 757.00" xmlns="http://www.w3.org/2000/svg" xmlns:xlink="http://www.w3.org/1999/xlink">
<g stroke-linecap="round" transform="translate(44.00, 155.00)" id="187-구름-3">
<path d="M312.25,-49.73 C312.25,-49.73 311.26,-52.03 311.26,-52.03 C309.26,-52.87 304.28,-53.29 301.76,-53.11 C296.71,-52.70 286.62,-49.01 282.63,-46.98 C280.69,-45.98 275.42,-42.62 273.60,-40.74 C273.60,-40.74 273.43,-37.78 273.43,-37.78 C275.06,-36.08 279.74,-33.98 284.05,-33.06 C287.88,-32.27 298.65,-31.87 304.24,-32.30 C309.80,-32.74 321.50,-35.32 324.51,-37.42 C325.50,-38.14 326.64,-39.72 326.85,-40.67 C327.04,-41.68 326.65,-43.90 326.06,-45.02 C324.79,-47.32 320.37,-50.32 317.92,-51.27 C313.68,-52.85 301.55,-54.16 295.61,-54.01 C294.02,-53.97 283.24,-53.37 280.15,-52.98 C277.96,-52.69 272.05,-51.17 270.75,-49.97 C270.06,-49.29 269.16,-47.23 269.01,-46.06 C268.89,-44.83 269.35,-42.26 269.93,-41.12 C271.16,-38.84 276.02,-36.13 278.58,-35.31 C282.94,-33.95 295.03,-32.58 300.87,-32.74 C306.96,-32.92 316.68,-34.96 319.40,-36.40 C320.97,-37.26 322.78,-38.70 323.37,-39.68 C323.89,-40.62 324.06,-42.63 323.69,-43.72 C322.86,-45.94 318.70,-49.13 316.29,-50.19 C311.84,-52.07 300.13,-53.58 293.90,-53.52 C288.39,-53.46 277.79,-52.13 273.43,-50.74 C272.39,-50.38 270.20,-49.19 269.36,-48.41 C268.45,-47.53 267.35,-44.90 267.24,-43.46 C267.08,-40.67 268.40,-37.15 269.40,-35.92 C270.61,-34.47 274.03,-32.29 276.41,-31.39 C280.77,-29.78 294.05,-28.23 300.68,-28.65 C305.92,-29.01 318.45,-31.91 323.11,-34.21 C325.33,-35.35 328.35,-38.13 328.37,-40.09 C328.33,-41.19 327.06,-43.55 325.92,-44.51 C323.69,-46.35 318.27,-48.16 316.11,-48.55 C310.92,-49.43 298.48,-48.45 292.29,-46.80 C285.43,-44.93 281.79,-42.58 280.73,-41.56 C280.73,-41.56 280.98,-38.65 280.98,-38.65 C283.15,-36.79 288.71,-35.18 291.86,-34.93 C297.19,-34.55 308.15,-35.66 312.73,-37.49 C314.27,-38.12 316.73,-39.72 317.43,-40.52 C318.06,-41.31 318.47,-43.02 318.22,-43.84 C317.52,-45.70 312.50,-47.79 309.75,-48.02 C307.23,-48.20 302.98,-47.99 300.54,-47.53 C298.55,-47.15 293.01,-45.48 290.64,-44.08 C289.25,-43.26 288.30,-42.05 287.85,-40.90 C288.07,-39.82 288.70,-38.81 289.85,-38.14 C296.05,-34.58 312.54,-36.87 315.40,-37.77 C316.89,-38.24 317.91,-38.99 319.19,-40.36 C317.98,-41.42 316.88,-41.92 315.27,-41.92 C310.96,-41.89 301.25,-39.68 300.31,-38.79 C300.31,-38.79 310.31,-37.47 310.31,-37.47 C310.19,-38.91 308.88,-39.90 306.06,-40.42 C303.86,-40.81 298.83,-40.87 297.04,-40.50 C294.89,-40.05 293.37,-39.26 292.44,-38.21 C292.44,-38.21 292.54,-36.38 292.54,-36.38 C292.54,-36.38 299.87,-31.16 299.87,-31.16" fill="none" stroke="rgb(67, 224, 232)" stroke-width="3.13" stroke-opacity="1.00" stroke-linejoin="round"/>
<path d="M286.19,-26.60 C283.82,-28.01 281.27,-29.34 279.92,-29.70 C277.49,-30.32 271.54,-29.26 268.93,-28.39 C266.57,-27.59 260.42,-25.20 257.74,-23.91 C253.85,-21.94 250.14,-19.64 248.91,-17.97 C248.28,-17.05 247.84,-15.00 248.06,-13.93 C248.66,-11.51 253.52,-7.94 256.15,-7.01 C260.50,-5.56 270.43,-4.63 276.47,-5.07 C282.77,-5.56 294.55,-8.36 300.23,-10.50 C306.29,-12.79 313.59,-16.93 314.77,-18.49 C315.32,-19.28 315.50,-20.95 315.10,-21.82 C314.23,-23.54 309.57,-26.36 307.14,-27.16 C302.77,-28.55 291.39,-29.01 284.25,-28.00 C279.63,-27.33 267.00,-23.62 262.49,-21.64 C260.75,-20.87 256.94,-18.77 255.63,-17.34 C254.89,-16.50 254.16,-14.44 254.14,-13.29 C254.17,-12.09 254.93,-9.65 255.67,-8.51 C257.21,-6.21 261.84,-3.72 264.31,-3.10 C268.63,-2.07 280.55,-2.36 286.98,-3.75 C293.48,-5.18 303.29,-9.61 305.16,-11.54 C306.26,-12.71 307.27,-14.54 307.25,-15.56 C307.20,-16.51 305.98,-18.46 304.92,-19.22 C302.85,-20.65 297.56,-22.14 295.46,-22.43 C290.50,-23.07 277.78,-21.53 271.95,-19.78 C267.00,-18.26 261.17,-14.91 259.78,-13.11 C259.08,-12.15 258.62,-9.89 258.91,-8.93 C259.30,-7.90 261.26,-6.22 262.85,-5.65 C265.70,-4.67 272.03,-4.30 274.30,-4.41 C279.72,-4.68 290.55,-7.52 294.75,-9.69 C296.42,-10.58 299.58,-12.86 300.60,-14.48 C301.12,-15.34 301.13,-17.06 300.65,-17.86 C299.39,-19.72 293.84,-21.41 290.75,-21.53 C286.15,-21.65 276.84,-19.85 272.29,-17.71 C270.70,-16.95 269.88,-15.87 269.06,-13.85 C270.00,-12.37 274.08,-10.73 278.43,-10.45 C282.37,-10.24 292.42,-12.08 296.53,-13.55 C300.72,-15.07 304.56,-17.15 305.54,-18.54 C305.54,-18.54 304.51,-20.77 304.51,-20.77 C302.07,-22.08 296.63,-22.76 293.97,-22.52 C291.88,-22.30 287.23,-21.42 284.07,-20.28 C280.86,-19.09 277.01,-16.57 276.19,-15.20 C276.19,-15.20 276.98,-13.22 276.98,-13.22 C278.81,-12.20 283.80,-11.88 287.66,-12.73 C292.12,-13.76 302.40,-17.95 308.24,-21.20 C313.80,-24.31 319.52,-29.98 319.52,-29.78 C320.65,-28.93 325.42,-27.56 328.89,-27.16 C333.20,-26.70 344.21,-27.32 347.68,-28.26 C351.48,-29.32 355.05,-31.40 355.73,-32.73 C356.43,-34.24 355.48,-38.79 353.84,-41.07 C351.91,-43.69 347.03,-46.79 344.52,-47.66 C342.31,-48.39 337.41,-49.13 334.69,-49.13 C329.22,-49.09 317.60,-45.82 312.06,-43.02 C309.45,-41.69 305.06,-38.89 303.48,-37.65 C301.55,-36.10 298.41,-32.01 298.46,-29.68 C298.54,-28.33 299.88,-25.58 301.03,-24.52 C303.08,-22.69 308.30,-20.63 310.26,-20.16 C315.05,-19.04 326.90,-18.92 332.62,-20.03 C338.52,-21.20 347.77,-25.15 351.22,-27.70 C353.09,-29.12 355.64,-32.77 355.11,-34.60 C354.43,-36.55 349.87,-39.17 347.25,-39.83 C342.95,-40.85 333.27,-40.72 328.26,-39.57 C326.29,-39.10 321.22,-37.41 318.64,-36.05 C315.62,-34.43 314.78,-32.64 314.66,-31.51 C315.13,-30.44 315.98,-29.44 317.19,-28.83 C319.36,-27.74 325.30,-27.22 327.90,-27.36 C332.14,-27.63 343.22,-30.15 348.56,-32.30 C351.70,-33.59 353.20,-34.72 354.31,-35.80 C354.31,-35.80 354.18,-38.65 354.18,-38.65 C352.13,-40.43 346.50,-41.70 343.41,-41.68 C338.15,-41.56 327.99,-39.42 324.00,-37.46 C322.56,-36.75 321.38,-35.71 320.58,-34.69 C320.58,-34.69 320.85,-31.84 320.85,-31.84 C322.45,-30.06 327.25,-28.14 331.00,-27.93 C334.72,-27.76 342.14,-29.15 345.17,-30.40 C348.32,-31.77 349.33,-32.88 350.19,-34.31 C349.40,-35.95 348.64,-36.90 347.37,-37.51 C344.64,-38.79 339.60,-39.38 336.98,-39.14 C332.57,-38.68 324.16,-35.08 322.12,-33.28 C320.89,-32.14 319.65,-30.40 319.44,-29.34 C319.28,-28.37 319.84,-26.30 320.52,-25.33 C322.15,-23.16 328.05,-20.55 330.91,-20.05 C335.62,-19.28 345.53,-19.66 349.81,-21.04 C351.34,-21.54 352.85,-22.43 353.96,-23.32 C353.96,-23.32 354.59,-25.90 354.59,-25.90 C353.45,-27.68 349.67,-29.37 347.03,-29.73 C342.22,-30.30 331.78,-29.49 325.78,-28.37 C320.73,-27.42 314.64,-25.23 313.09,-24.03 C312.26,-23.35 311.49,-21.68 311.54,-20.73 C311.64,-19.75 312.67,-17.69 313.60,-16.68 C315.58,-14.62 320.89,-12.17 323.59,-11.48 C331.92,-9.47 351.32,-10.96 355.29,-12.00 C359.70,-13.19 363.91,-15.77 364.36,-17.35 C364.53,-18.11 364.08,-19.85 363.49,-20.71 C361.99,-22.76 356.72,-25.29 353.95,-25.78 C349.06,-26.57 338.75,-25.77 333.08,-24.43 C328.20,-23.25 321.62,-20.51 319.99,-19.23 C319.13,-18.51 318.46,-16.94 318.63,-16.12 C318.87,-15.26 320.32,-13.52 321.47,-12.78 C323.82,-11.32 329.66,-10.12 332.47,-9.99 C337.02,-9.83 347.30,-11.31 351.38,-12.65 C355.67,-14.09 359.81,-16.39 361.02,-17.92 C361.02,-17.92 360.85,-20.30 360.85,-20.30 C359.22,-21.82 354.42,-22.83 351.41,-22.67 C346.16,-22.34 333.60,-19.64 328.39,-17.38 C326.97,-16.75 325.93,-16.03 324.68,-14.90 C324.68,-14.90 324.51,-11.95 324.51,-11.95 C326.07,-10.19 330.78,-8.61 334.47,-8.72 C341.71,-9.01 350.53,-13.45 351.95,-14.86 C351.95,-14.86 352.15,-16.89 352.15,-16.89 C350.75,-18.13 346.02,-19.11 343.15,-19.07 C338.17,-18.95 327.07,-17.24 322.01,-15.91 C316.20,-14.36 311.26,-11.82 310.21,-10.37 C310.21,-10.37 310.35,-8.34 310.35,-8.34 C312.22,-6.43 315.49,-5.76 315.50,-5.66 C315.66,-3.35 318.67,0.40 320.99,1.71 C323.33,2.99 329.10,4.16 331.58,4.30 C342.55,4.83 353.47,0.68 354.55,-0.35 C354.55,-0.35 354.41,-2.18 354.41,-2.18 C353.23,-3.52 349.75,-5.37 346.36,-6.15 C341.26,-7.29 329.46,-7.09 325.62,-6.57 C321.15,-5.94 318.69,-5.08 317.57,-4.54 C317.57,-4.54 316.56,-2.69 316.56,-2.69 C317.66,-0.62 318.52,0.54 319.79,1.40 C322.61,3.28 327.81,5.12 330.75,5.64 C333.52,6.11 336.14,6.38 340.81,6.46 C344.69,6.52 350.15,6.11 352.66,4.96 C352.34,3.52 351.89,2.63 350.87,1.85 C348.72,0.24 343.20,-2.19 339.35,-3.13 C332.85,-4.69 324.88,-4.65 322.81,-3.81 C323.49,-1.66 324.18,-0.61 325.63,0.07 C328.56,1.42 335.27,2.54 338.68,2.49 C342.34,2.39 343.85,1.89 345.45,1.06 C345.26,-0.40 344.83,-1.34 343.68,-2.17 C340.01,-4.83 330.14,-8.30 324.08,-9.25 C318.04,-10.17 306.26,-10.58 301.53,-10.24 C294.41,-9.68 283.36,-6.38 278.28,-3.41 C276.91,-2.59 275.76,-1.75 274.89,-0.91 C274.26,-0.24 273.62,2.01 273.95,3.20 C274.32,4.43 276.33,6.82 277.40,7.55 C279.89,9.13 285.76,10.97 289.25,11.10 C292.34,11.20 297.93,10.35 299.02,10.09 C301.15,9.55 308.80,6.80 311.85,5.28 C314.70,3.83 316.02,2.57 316.70,1.68 C316.70,1.68 316.48,-0.74 316.48,-0.74 C314.93,-2.28 310.46,-4.04 306.36,-4.29 C302.62,-4.49 292.95,-2.53 287.55,-0.63 C283.19,0.93 276.92,4.35 274.85,6.13 C274.85,6.13 274.38,8.65 274.38,8.65 C275.80,10.07 280.49,11.53 284.94,11.69 C288.96,11.80 299.17,9.72 303.07,8.22 C307.18,6.62 310.63,4.29 311.24,2.68 C310.20,0.71 309.21,-0.26 307.50,-0.87 C303.54,-2.27 292.45,-2.37 287.65,-1.43 C285.59,-1.02 280.41,0.48 278.86,1.23 C275.83,2.74 274.53,4.04 273.73,5.26 C273.73,5.26 274.68,8.11 274.68,8.11 C277.18,9.58 282.90,10.16 285.81,9.78 C295.72,8.34 306.05,3.32 307.47,2.09 C305.99,0.54 304.81,0.00 302.64,0.19 C296.67,0.71 288.83,2.99 284.96,4.40 C283.31,5.00 282.71,5.49 282.30,6.38 C284.16,7.29 285.77,7.79 287.53,7.81 C297.06,7.87 311.50,2.52 312.72,1.72 C311.75,0.14 310.85,-0.52 309.16,-0.67 C305.36,-0.97 301.30,-0.88 299.76,-0.27 C299.39,-0.12 298.56,0.27 297.27,0.91" fill="none" stroke="rgb(67, 224, 232)" stroke-width="3.13" stroke-opacity="1.00" stroke-linejoin="round"/>
</g>
</svg>
