<?xml version="1.0" encoding="UTF-8" standalone="no"?>
<!DOCTYPE svg PUBLIC "-//W3C//DTD SVG 1.1//EN" "http://www.w3.org/Graphics/SVG/1.1/DTD/svg11.dtd">
<svg width="64.20" height="90.84" viewBox="0.00 0.00 535.00 757.00" xmlns="http://www.w3.org/2000/svg" xmlns:xlink="http://www.w3.org/1999/xlink">
<g stroke-linecap="round" transform="translate(44.00, 155.00)" id="188-번개-3">
<path d="M387.92,139.37 C387.92,139.37 387.36,139.18 387.36,139.18 C387.63,141.64 393.19,166.66 392.95,167.22 C392.06,168.99 383.73,177.66 381.22,180.75 C380.34,181.88 380.25,184.17 381.36,186.22 C382.71,188.68 393.26,200.12 398.25,204.47 C401.37,207.19 416.92,218.67 417.66,219.14 C417.98,219.34 418.36,219.50 418.79,219.62" fill="none" stroke="rgb(133, 188, 143)" stroke-width="2.39" stroke-opacity="1.00" stroke-linejoin="round"/>
<path d="M388.48,140.11 C388.48,140.11 388.39,140.11 388.39,140.11 C388.39,140.11 388.20,140.26 388.20,140.26 C388.17,140.39 388.09,140.89 388.35,141.36 C391.83,147.05 398.90,158.68 400.57,163.39 C400.83,164.16 400.51,166.37 399.93,167.97 C398.56,171.59 388.87,182.54 388.56,183.71 C388.33,184.91 389.64,188.68 391.52,191.34 C392.10,192.14 414.67,216.04 416.05,217.47 C416.05,217.47 416.00,217.40 416.00,217.40" fill="none" stroke="rgb(133, 188, 143)" stroke-width="2.39" stroke-opacity="1.00" stroke-linejoin="round"/>
</g>
</svg>
