<?xml version="1.0" encoding="UTF-8" standalone="no"?>
<!DOCTYPE svg PUBLIC "-//W3C//DTD SVG 1.1//EN" "http://www.w3.org/Graphics/SVG/1.1/DTD/svg11.dtd">
<svg width="64.20" height="90.84" viewBox="0.00 0.00 535.00 757.00" xmlns="http://www.w3.org/2000/svg" xmlns:xlink="http://www.w3.org/1999/xlink">
<g stroke-linecap="round" transform="translate(154.00, 267.00)" id="188-우산">
<path d="M198.91,138.09 C198.91,138.09 198.74,138.04 198.74,138.04 C198.59,137.78 198.56,136.71 198.77,135.98 C199.26,134.36 201.76,132.98 203.58,133.12 C205.13,133.26 206.99,135.92 206.49,137.36 C206.22,138.05 205.14,138.68 203.69,138.65 C200.47,138.51 192.83,138.30 189.38,138.80 C186.42,139.24 179.22,141.53 176.78,142.56 C170.48,145.28 161.46,152.33 159.10,155.28 C156.83,158.17 153.55,165.96 153.46,168.80 C153.45,170.36 154.10,173.74 154.78,175.49 C155.27,176.70 156.48,178.23 157.44,178.58 C158.59,178.96 160.85,178.35 161.46,177.81 C162.04,177.25 162.84,175.70 163.48,172.88 C163.85,171.18 164.60,163.71 166.36,159.85 C168.07,156.16 173.16,149.27 176.33,146.50 C180.87,142.56 189.08,138.62 189.26,138.66 C189.31,138.68 189.46,138.70 189.72,138.72" fill="none" stroke="rgb(255, 242, 0)" stroke-width="2.39" stroke-opacity="1.00" stroke-linejoin="round"/>
<path d="M195.81,140.09 C195.81,140.09 195.78,139.86 195.78,139.86 C194.30,140.50 188.89,147.46 183.08,155.38 C181.08,158.16 179.37,161.36 178.81,162.99 C178.34,164.41 177.16,172.93 176.91,173.79 C176.43,175.36 175.29,177.08 174.12,178.10 C172.99,179.07 171.09,180.16 170.31,180.04 C168.42,179.67 166.24,175.41 165.74,172.11 C165.69,171.83 165.81,171.33 165.90,170.89" fill="none" stroke="rgb(255, 242, 0)" stroke-width="2.39" stroke-opacity="1.00" stroke-linejoin="round"/>
<path d="M197.02,140.42 C197.02,140.42 197.02,140.31 197.02,140.31 C196.12,140.99 192.85,149.71 190.14,158.72 C189.06,162.67 187.63,174.55 186.28,177.00 C185.56,178.28 183.63,180.56 182.60,181.28 C181.66,181.91 180.39,182.01 179.92,181.66 C178.81,180.77 177.35,176.20 177.36,176.12 C177.37,175.99 177.39,175.70 177.42,175.23" fill="none" stroke="rgb(255, 242, 0)" stroke-width="2.39" stroke-opacity="1.00" stroke-linejoin="round"/>
<path d="M201.56,140.42 C201.56,140.42 201.45,140.42 201.45,140.42 C200.35,144.60 200.37,157.22 199.68,161.80 C198.93,166.78 198.85,177.83 198.35,178.92 C197.83,179.94 196.88,181.09 196.30,181.28 C195.60,181.47 194.09,180.39 193.26,179.06 C192.74,178.18 190.87,173.77 190.88,173.72 C190.93,173.36 190.99,173.00 191.05,172.64" fill="none" stroke="rgb(255, 242, 0)" stroke-width="2.39" stroke-opacity="1.00" stroke-linejoin="round"/>
<path d="M203.44,140.64 C203.39,140.58 203.33,140.53 203.28,140.47 C203.26,140.46 203.24,140.44 203.22,140.42 C203.40,141.33 206.95,150.77 209.78,161.12 C210.50,163.82 211.75,169.59 212.02,172.08 C212.26,174.39 211.66,176.29 211.10,177.02 C208.66,180.13 207.07,180.95 206.35,180.79 C205.50,180.54 200.44,173.81 200.40,173.73 C200.39,173.70 200.32,173.46 200.17,173.01" fill="none" stroke="rgb(255, 242, 0)" stroke-width="2.39" stroke-opacity="1.00" stroke-linejoin="round"/>
<path d="M206.88,139.53 C206.88,139.53 206.77,139.53 206.77,139.53 C207.44,140.53 216.32,150.39 218.15,153.34 C221.18,158.26 227.17,169.24 227.37,170.40 C227.70,172.59 224.45,177.85 222.34,179.35 C221.42,179.98 219.76,180.55 219.00,180.48 C217.39,180.28 214.34,177.14 213.97,176.66 C213.78,176.41 213.52,175.99 213.19,175.40" fill="none" stroke="rgb(255, 242, 0)" stroke-width="2.39" stroke-opacity="1.00" stroke-linejoin="round"/>
<path d="M207.65,136.21 C207.65,136.21 207.54,136.21 207.54,136.21 C208.73,136.27 211.99,137.27 213.86,138.49 C215.99,139.91 223.30,146.35 228.30,152.14 C232.77,157.39 238.33,166.18 239.52,170.39 C240.04,172.39 238.62,177.52 237.01,179.39 C236.19,180.32 234.42,181.26 233.45,181.40 C232.48,181.51 231.18,181.00 230.67,180.22 C230.48,179.91 228.82,176.31 227.93,174.98 C227.84,174.85 227.75,174.47 227.47,173.30" fill="none" stroke="rgb(255, 242, 0)" stroke-width="2.39" stroke-opacity="1.00" stroke-linejoin="round"/>
<path d="M210.20,136.76 C210.32,136.73 211.04,136.44 212.43,136.43 C214.13,136.44 217.65,136.85 218.92,137.30 C223.67,139.07 229.69,142.15 235.75,146.03 C237.58,147.24 241.12,149.97 243.51,152.34 C245.89,154.73 248.29,158.86 251.21,164.49 C251.67,165.41 254.98,171.96 254.79,173.12 C254.27,175.36 249.64,180.24 247.78,181.28 C246.84,181.78 245.26,181.18 244.13,179.81 C243.62,179.18 242.41,177.37 242.29,177.17 C242.19,177.01 241.94,176.56 241.53,175.85" fill="none" stroke="rgb(255, 242, 0)" stroke-width="2.39" stroke-opacity="1.00" stroke-linejoin="round"/>
<path d="M204.77,181.16 C204.77,181.16 204.66,181.19 204.66,181.19 C204.66,181.19 206.98,211.82 206.98,211.82 C206.98,211.82 207.10,211.80 207.10,211.80 C207.10,211.80 207.21,211.61 207.21,211.61" fill="none" stroke="rgb(255, 242, 0)" stroke-width="2.39" stroke-opacity="1.00" stroke-linejoin="round"/>
<path d="M208.87,180.83 C208.89,181.43 209.02,182.59 209.12,183.43 C209.44,186.67 210.75,214.20 210.72,214.47 C209.71,214.04 208.81,210.70 208.87,204.29 C208.98,197.20 208.11,184.31 208.09,184.05 C208.09,183.93 208.05,183.56 207.98,182.93" fill="none" stroke="rgb(255, 242, 0)" stroke-width="2.39" stroke-opacity="1.00" stroke-linejoin="round"/>
</g>
</svg>
