<?xml version="1.0" encoding="UTF-8" standalone="no"?>
<!DOCTYPE svg PUBLIC "-//W3C//DTD SVG 1.1//EN" "http://www.w3.org/Graphics/SVG/1.1/DTD/svg11.dtd">
<svg width="64.20" height="90.84" viewBox="0.00 0.00 535.00 757.00" xmlns="http://www.w3.org/2000/svg" xmlns:xlink="http://www.w3.org/1999/xlink">
<g stroke-linecap="round" transform="translate(44.00, 155.00)" id="188-번개-1">
<path d="M434.13,132.63 C434.13,132.63 433.66,132.63 433.66,132.63 C433.57,132.86 433.65,133.57 433.97,134.72 C434.45,136.46 436.43,141.85 438.77,147.86 C440.51,152.31 441.67,155.88 441.78,158.78 C441.83,161.40 440.41,165.00 438.70,167.55 C436.93,170.15 427.37,180.51 427.02,182.61 C426.82,184.17 427.84,187.33 429.32,189.51 C431.41,192.51 449.98,211.08 449.92,210.95 C449.92,210.95 450.21,210.32 450.21,210.32" fill="none" stroke="rgb(133, 188, 143)" stroke-width="2.39" stroke-opacity="1.00" stroke-linejoin="round"/>
<path d="M435.07,133.19 C435.07,133.19 434.69,133.19 434.69,133.19 C435.60,134.58 442.33,147.08 443.05,148.68 C444.30,151.49 445.44,155.74 445.71,158.33 C445.90,160.36 445.28,163.32 444.18,166.01 C443.04,168.78 440.91,172.62 439.48,174.60 C438.82,175.50 434.41,180.53 433.85,181.33 C432.92,182.71 432.59,184.36 432.71,185.37 C432.93,186.67 435.32,190.35 437.15,192.29 C444.70,200.30 448.45,204.66 451.03,208.12 C451.03,208.12 451.34,208.02 451.34,208.02" fill="none" stroke="rgb(133, 188, 143)" stroke-width="2.39" stroke-opacity="1.00" stroke-linejoin="round"/>
</g>
</svg>
