<?xml version="1.0" encoding="UTF-8" standalone="no"?>
<!DOCTYPE svg PUBLIC "-//W3C//DTD SVG 1.1//EN" "http://www.w3.org/Graphics/SVG/1.1/DTD/svg11.dtd">
<svg width="64.20" height="90.84" viewBox="0.00 0.00 535.00 757.00" xmlns="http://www.w3.org/2000/svg" xmlns:xlink="http://www.w3.org/1999/xlink">
<g stroke-linecap="round" transform="translate(44.00, 155.00)" id="188-번개-2">
<path d="M407.57,136.56 C407.48,136.59 407.11,136.47 406.84,136.37 C406.77,136.35 406.70,136.35 406.63,136.37 C406.62,136.35 407.39,140.12 408.60,143.20 C410.84,148.52 417.21,161.64 418.23,164.41 C418.98,166.48 419.37,169.09 418.51,170.23 C417.97,170.90 411.87,176.32 409.91,178.53 C408.66,179.95 405.80,183.89 405.45,184.85 C404.98,186.30 406.38,189.93 407.62,191.63 C409.49,194.14 423.70,207.90 424.03,208.20 C426.84,210.61 431.47,214.65 431.94,214.93 C432.03,214.98 432.26,215.11 432.63,215.32" fill="none" stroke="rgb(133, 188, 143)" stroke-width="2.39" stroke-opacity="1.00" stroke-linejoin="round"/>
<path d="M406.63,136.75 C406.63,136.75 406.44,136.75 406.44,136.75 C407.60,138.40 408.59,139.72 409.33,140.50 C411.84,143.06 413.70,145.64 415.08,148.18 C417.87,153.46 423.23,165.47 423.02,166.61 C422.69,168.11 415.74,180.62 415.05,184.48 C414.75,186.42 416.60,190.63 417.99,192.85 C420.06,196.07 429.19,209.74 432.04,213.46 C432.22,213.70 432.42,213.94 432.63,214.20" fill="none" stroke="rgb(133, 188, 143)" stroke-width="2.39" stroke-opacity="1.00" stroke-linejoin="round"/>
</g>
</svg>
