<?xml version="1.0" encoding="UTF-8" standalone="no"?>
<!DOCTYPE svg PUBLIC "-//W3C//DTD SVG 1.1//EN" "http://www.w3.org/Graphics/SVG/1.1/DTD/svg11.dtd">
<svg width="64.20" height="90.84" viewBox="0.00 0.00 535.00 757.00" xmlns="http://www.w3.org/2000/svg" xmlns:xlink="http://www.w3.org/1999/xlink">
<g stroke-linecap="round" transform="translate(156.00, 267.00)" id="188-비">
<path d="M-53.56,8.10 C-54.00,8.34 -54.22,9.34 -54.28,11.64 C-54.33,13.72 -53.92,19.17 -53.80,20.69 C-53.80,20.69 -54.03,20.73 -54.03,20.73" fill="none" stroke="rgb(27, 87, 183)" stroke-width="2.39" stroke-opacity="1.00" stroke-linejoin="round"/>
<path d="M-56.96,81.44 C-56.96,81.44 -56.96,81.20 -56.96,81.20 C-57.01,81.27 -57.10,81.86 -57.19,83.02 C-57.48,86.57 -58.33,92.40 -59.12,95.97 C-59.12,95.99 -59.15,96.04 -59.14,96.02" fill="none" stroke="rgb(27, 87, 183)" stroke-width="2.39" stroke-opacity="1.00" stroke-linejoin="round"/>
<path d="M16.38,7.86 C15.77,8.33 15.29,10.84 15.17,15.07 C15.14,16.22 15.16,18.97 15.17,20.04 C15.17,20.32 15.17,20.72 15.17,21.25" fill="none" stroke="rgb(27, 87, 183)" stroke-width="2.39" stroke-opacity="1.00" stroke-linejoin="round"/>
<path d="M-5.72,48.42 C-5.90,49.33 -6.09,51.77 -6.23,53.56 C-6.27,54.11 -7.34,63.76 -7.42,64.96 C-7.43,65.09 -7.43,65.23 -7.42,65.37" fill="none" stroke="rgb(27, 87, 183)" stroke-width="2.39" stroke-opacity="1.00" stroke-linejoin="round"/>
<path d="M-3.29,97.72 C-3.29,97.72 -3.41,97.72 -3.41,97.72 C-3.60,97.52 -3.78,102.66 -3.77,108.20 C-3.77,109.51 -3.77,111.25 -3.77,111.69 C-3.77,111.69 -3.57,111.66 -3.57,111.66" fill="none" stroke="rgb(27, 87, 183)" stroke-width="2.39" stroke-opacity="1.00" stroke-linejoin="round"/>
<path d="M20.75,65.66 C20.68,66.37 20.47,68.39 20.34,69.69 C19.98,73.56 19.20,81.98 19.16,82.27 C19.14,82.45 19.10,82.67 19.05,82.90" fill="none" stroke="rgb(27, 87, 183)" stroke-width="2.39" stroke-opacity="1.00" stroke-linejoin="round"/>
<path d="M43.58,93.10 C43.59,94.14 43.59,94.90 43.58,95.37 C43.52,97.30 42.83,103.67 42.85,108.44 C42.85,108.44 42.85,106.63 42.85,106.63" fill="none" stroke="rgb(27, 87, 183)" stroke-width="2.39" stroke-opacity="1.00" stroke-linejoin="round"/>
<path d="M53.78,6.40 C53.78,6.40 53.66,6.28 53.66,6.28 C53.42,6.27 52.90,10.33 52.84,12.97 C52.81,14.27 52.81,23.92 52.81,23.93 C52.79,24.09 52.72,24.29 52.61,24.54" fill="none" stroke="rgb(27, 87, 183)" stroke-width="2.39" stroke-opacity="1.00" stroke-linejoin="round"/>
<path d="M71.75,71.62 C71.68,72.60 71.52,75.32 71.50,76.53 C71.45,79.20 71.77,86.39 71.75,87.52 C71.75,87.52 71.97,87.08 71.97,87.08" fill="none" stroke="rgb(27, 87, 183)" stroke-width="2.39" stroke-opacity="1.00" stroke-linejoin="round"/>
<path d="M81.79,81.40 C81.69,81.88 81.60,82.74 81.52,84.19 C81.31,88.81 81.26,91.26 81.26,94.74 C81.26,94.74 81.47,94.95 81.47,94.95" fill="none" stroke="rgb(27, 87, 183)" stroke-width="2.39" stroke-opacity="1.00" stroke-linejoin="round"/>
<path d="M95.79,76.91 C95.58,77.01 95.25,77.26 95.13,77.50 C94.96,77.86 94.01,86.19 92.70,89.16 C92.59,89.40 92.50,89.54 92.42,89.56 C92.42,89.56 92.99,89.17 92.99,89.17" fill="none" stroke="rgb(27, 87, 183)" stroke-width="2.39" stroke-opacity="1.00" stroke-linejoin="round"/>
<path d="M109.53,81.66 C109.37,81.82 109.19,82.04 109.00,82.32 C108.27,83.39 106.26,86.69 105.34,88.21 C103.13,91.78 102.16,94.23 102.15,94.49 C102.15,94.49 102.13,93.84 102.13,93.84" fill="none" stroke="rgb(27, 87, 183)" stroke-width="2.39" stroke-opacity="1.00" stroke-linejoin="round"/>
<path d="M99.23,56.83 C99.27,56.94 96.86,64.35 96.72,65.29 C96.67,65.61 96.63,66.22 96.60,67.11 C96.60,67.11 96.95,66.58 96.95,66.58" fill="none" stroke="rgb(27, 87, 183)" stroke-width="2.39" stroke-opacity="1.00" stroke-linejoin="round"/>
<path d="M113.76,51.28 C113.26,52.01 110.82,58.12 109.41,61.01 C107.27,65.43 106.82,67.06 106.42,68.92 C106.42,68.92 106.14,69.03 106.14,69.03" fill="none" stroke="rgb(27, 87, 183)" stroke-width="2.39" stroke-opacity="1.00" stroke-linejoin="round"/>
<path d="M93.41,20.90 C93.12,21.06 92.90,21.66 92.59,23.42 C91.63,28.86 90.56,33.81 89.67,37.11 C89.60,37.35 89.53,37.59 89.45,37.82" fill="none" stroke="rgb(27, 87, 183)" stroke-width="2.39" stroke-opacity="1.00" stroke-linejoin="round"/>
<path d="M108.47,20.63 C108.20,20.85 107.69,21.61 107.42,22.48 C107.25,23.00 106.17,27.57 105.96,28.36 C105.37,30.63 105.21,31.43 104.84,33.91 C104.84,33.91 105.19,33.88 105.19,33.88" fill="none" stroke="rgb(27, 87, 183)" stroke-width="2.39" stroke-opacity="1.00" stroke-linejoin="round"/>
<path d="M129.87,18.52 C129.59,20.01 129.08,22.42 128.73,23.73 C127.65,27.74 124.96,34.18 124.96,34.21 C124.95,34.24 124.96,34.31 124.99,34.42 C124.99,34.42 125.12,34.37 125.12,34.37" fill="none" stroke="rgb(27, 87, 183)" stroke-width="2.39" stroke-opacity="1.00" stroke-linejoin="round"/>
<path d="M156.56,21.42 C155.90,23.63 155.48,25.39 155.06,27.87 C154.23,32.72 153.19,35.83 153.06,36.36 C153.02,36.50 153.02,36.70 153.07,36.96" fill="none" stroke="rgb(27, 87, 183)" stroke-width="2.39" stroke-opacity="1.00" stroke-linejoin="round"/>
<path d="M133.57,56.56 C133.57,56.56 133.31,56.56 133.31,56.56 C132.63,57.12 131.90,59.79 130.45,65.64 C129.34,70.09 128.77,72.13 128.64,72.42 C128.62,72.46 128.59,72.55 128.55,72.68" fill="none" stroke="rgb(27, 87, 183)" stroke-width="2.39" stroke-opacity="1.00" stroke-linejoin="round"/>
<path d="M135.42,78.49 C135.22,78.59 135.09,78.70 135.02,78.83 C134.89,79.14 133.56,86.46 132.78,90.03 C132.65,90.65 132.20,93.17 132.03,94.11 C132.03,94.11 132.36,93.78 132.36,93.78" fill="none" stroke="rgb(27, 87, 183)" stroke-width="2.39" stroke-opacity="1.00" stroke-linejoin="round"/>
<path d="M151.27,57.88 C150.39,60.55 149.24,65.95 148.74,69.18 C148.63,69.94 148.51,70.70 148.40,71.46 C148.40,71.46 148.99,70.99 148.99,70.99" fill="none" stroke="rgb(27, 87, 183)" stroke-width="2.39" stroke-opacity="1.00" stroke-linejoin="round"/>
<path d="M176.64,61.32 C176.10,63.13 174.80,68.98 174.09,72.15 C173.80,73.57 173.60,74.57 173.50,75.14 C173.45,75.44 173.44,75.68 173.46,75.84" fill="none" stroke="rgb(27, 87, 183)" stroke-width="2.39" stroke-opacity="1.00" stroke-linejoin="round"/>
<path d="M177.43,81.40 C176.93,81.57 176.01,83.51 175.23,87.36 C174.60,90.55 173.81,94.94 173.76,95.26 C173.76,95.26 174.16,95.23 174.16,95.23" fill="none" stroke="rgb(27, 87, 183)" stroke-width="2.39" stroke-opacity="1.00" stroke-linejoin="round"/>
<path d="M199.62,82.72 C198.88,84.89 197.70,90.66 197.27,92.33 C196.89,93.80 196.67,94.75 196.45,95.83 C196.45,95.83 196.71,93.81 196.71,93.81" fill="none" stroke="rgb(27, 87, 183)" stroke-width="2.39" stroke-opacity="1.00" stroke-linejoin="round"/>
<path d="M193.28,60.53 C193.28,60.53 193.15,60.39 193.15,60.39 C193.15,60.39 193.02,60.50 193.02,60.50 C192.79,62.41 192.00,68.79 191.77,70.26 C191.49,72.09 190.88,75.45 190.64,76.72 C190.64,76.72 190.84,76.30 190.84,76.30" fill="none" stroke="rgb(27, 87, 183)" stroke-width="2.39" stroke-opacity="1.00" stroke-linejoin="round"/>
<path d="M188.79,18.25 C188.40,18.87 187.99,20.35 187.75,22.40 C186.84,31.63 185.89,37.39 185.70,38.72 C185.70,38.72 186.00,38.89 186.00,38.89" fill="none" stroke="rgb(27, 87, 183)" stroke-width="2.39" stroke-opacity="1.00" stroke-linejoin="round"/>
<path d="M208.60,20.10 C208.40,22.19 208.31,23.49 208.27,25.18 C208.09,31.18 207.43,37.59 207.60,39.24 C207.64,39.56 207.76,39.77 207.96,39.85" fill="none" stroke="rgb(27, 87, 183)" stroke-width="2.39" stroke-opacity="1.00" stroke-linejoin="round"/>
<path d="M252.99,34.63 C252.99,36.02 252.99,38.66 253.00,39.92 C253.02,46.72 252.53,56.06 252.46,57.33 C252.46,57.33 252.68,55.76 252.68,55.76" fill="none" stroke="rgb(27, 87, 183)" stroke-width="2.39" stroke-opacity="1.00" stroke-linejoin="round"/>
<path d="M285.31,20.27 C285.31,20.27 285.14,20.27 285.14,20.27 C285.14,20.98 285.14,23.01 285.14,24.33 C285.17,31.60 285.31,35.45 285.31,36.86 C285.31,36.86 285.46,36.83 285.46,36.83" fill="none" stroke="rgb(27, 87, 183)" stroke-width="2.39" stroke-opacity="1.00" stroke-linejoin="round"/>
<path d="M316.77,18.63 C316.63,18.76 316.58,22.01 316.56,24.32 C316.35,32.89 315.47,40.89 314.96,44.31 C314.96,44.31 315.21,44.35 315.21,44.35" fill="none" stroke="rgb(27, 87, 183)" stroke-width="2.39" stroke-opacity="1.00" stroke-linejoin="round"/>
<path d="M319.39,58.28 C319.16,58.88 318.98,59.95 318.93,61.47 C318.80,70.78 318.36,76.98 318.23,77.22 C318.23,77.22 317.99,76.27 317.99,76.27" fill="none" stroke="rgb(27, 87, 183)" stroke-width="2.39" stroke-opacity="1.00" stroke-linejoin="round"/>
<path d="M300.87,58.61 C300.87,62.35 300.84,69.73 300.81,70.41 C300.77,71.22 300.65,72.55 300.52,73.70 C300.52,73.70 300.27,73.73 300.27,73.73" fill="none" stroke="rgb(27, 87, 183)" stroke-width="2.39" stroke-opacity="1.00" stroke-linejoin="round"/>
<path d="M291.37,60.08 C291.17,61.07 291.22,67.58 291.18,69.57 C291.16,70.41 290.92,75.10 290.88,75.80 C290.88,75.80 291.01,75.86 291.01,75.86" fill="none" stroke="rgb(27, 87, 183)" stroke-width="2.39" stroke-opacity="1.00" stroke-linejoin="round"/>
<path d="M271.22,96.62 C271.16,96.67 271.07,97.17 271.05,97.90 C271.05,98.08 270.59,111.75 270.60,112.12 C270.60,112.12 271.04,112.23 271.04,112.23" fill="none" stroke="rgb(27, 87, 183)" stroke-width="2.39" stroke-opacity="1.00" stroke-linejoin="round"/>
<path d="M293.17,100.06 C293.03,103.37 292.98,106.07 293.01,109.56 C293.02,112.69 292.68,121.08 292.72,121.22 C292.72,121.22 292.93,120.87 292.93,120.87" fill="none" stroke="rgb(27, 87, 183)" stroke-width="2.39" stroke-opacity="1.00" stroke-linejoin="round"/>
<path d="M318.90,106.77 C318.90,109.67 318.90,115.71 318.90,118.85 C318.90,119.42 318.90,119.99 318.90,120.56 C318.90,120.56 318.90,119.85 318.90,119.85" fill="none" stroke="rgb(27, 87, 183)" stroke-width="2.39" stroke-opacity="1.00" stroke-linejoin="round"/>
<path d="M341.34,59.42 C341.29,59.42 341.23,59.42 341.18,59.42 C341.12,59.42 341.07,59.42 341.01,59.42 C341.02,59.38 341.02,59.50 341.01,59.54 C340.88,61.99 340.81,65.23 340.59,70.05 C340.44,73.54 340.22,79.12 340.03,81.52 C340.03,81.52 340.03,81.21 340.03,81.21" fill="none" stroke="rgb(27, 87, 183)" stroke-width="2.39" stroke-opacity="1.00" stroke-linejoin="round"/>
<path d="M342.98,106.12 C342.53,107.15 342.39,109.31 342.20,115.06 C341.93,120.48 341.04,124.54 340.87,125.25 C340.87,125.25 340.85,124.36 340.85,124.36" fill="none" stroke="rgb(27, 87, 183)" stroke-width="2.39" stroke-opacity="1.00" stroke-linejoin="round"/>
</g>
</svg>
