<?xml version="1.0" encoding="UTF-8" standalone="no"?>
<!DOCTYPE svg PUBLIC "-//W3C//DTD SVG 1.1//EN" "http://www.w3.org/Graphics/SVG/1.1/DTD/svg11.dtd">
<svg width="64.20" height="90.84" viewBox="0.00 0.00 535.00 757.00" xmlns="http://www.w3.org/2000/svg" xmlns:xlink="http://www.w3.org/1999/xlink">
<g stroke-linecap="round" transform="translate(44.00, 155.00)" id="188-구름-1">
<path d="M70.43,68.30 C69.56,67.39 67.28,65.62 66.66,65.30 C65.87,64.91 61.47,64.44 60.01,64.73 C58.60,65.03 55.82,66.37 55.14,67.09 C54.38,67.98 54.18,71.51 54.96,73.72 C55.65,75.58 56.90,76.83 57.67,77.45 C57.82,77.40 55.99,76.84 54.33,76.68 C52.48,76.51 48.37,77.11 47.30,77.66 C46.18,78.28 45.03,80.72 44.97,82.59 C44.92,85.12 46.49,89.74 47.71,91.48 C49.56,93.97 53.85,96.04 53.86,95.81 C52.12,95.42 49.25,95.45 48.02,96.02 C46.72,96.67 44.65,99.32 44.10,100.84 C43.58,102.38 44.11,105.66 45.31,107.34 C46.46,108.87 51.04,111.52 53.55,112.17 C55.94,112.77 58.53,112.60 59.76,112.20 C61.27,111.66 64.69,108.83 66.06,106.67 C66.61,105.76 68.30,101.62 68.53,101.09 C68.92,103.92 69.90,106.81 70.95,108.21 C72.10,109.70 75.84,112.64 77.71,113.51 C79.83,114.45 83.46,114.76 85.43,114.17 C87.26,113.58 90.50,111.45 91.89,110.01 C93.12,108.67 94.44,105.06 94.50,103.75 C94.66,103.82 96.36,106.83 98.08,108.52 C99.81,110.21 105.97,114.01 108.57,114.86 C110.69,115.52 116.87,115.91 120.13,115.14 C123.71,114.26 126.32,112.15 128.44,109.62 C128.76,109.22 130.86,103.42 131.19,102.50 C131.66,102.40 134.62,106.99 136.90,109.40 C139.16,111.78 143.65,114.55 145.58,115.21 C147.54,115.85 151.35,116.23 153.08,116.04 C154.87,115.82 157.82,114.58 158.94,113.62 C160.04,112.64 161.30,110.69 161.70,109.11 C162.10,107.46 161.63,103.82 161.64,103.84 C163.12,105.48 165.96,107.77 167.58,108.47 C169.33,109.19 173.14,108.85 174.77,107.80 C176.35,106.73 178.13,103.26 178.28,101.22 C178.39,99.16 177.43,94.76 176.55,92.94 C174.77,89.38 171.85,87.27 170.74,86.56 C172.28,86.94 175.24,87.00 176.86,86.29 C177.59,85.94 179.02,83.72 179.36,81.78 C179.71,79.68 179.54,76.15 178.92,74.91 C178.26,73.67 175.38,72.03 173.47,71.84 C169.06,71.45 164.14,74.45 163.59,75.01 C164.24,74.69 165.26,72.88 165.24,72.18 C165.20,71.50 164.47,70.09 163.21,69.29 C161.83,68.44 158.92,68.17 156.99,68.70 C152.98,69.87 151.71,72.41 151.47,73.14 C151.47,73.15 151.68,69.60 151.49,67.93 C151.29,66.28 150.16,64.67 149.59,64.48 C146.49,63.58 142.11,66.96 141.67,68.06 C141.80,67.75 141.98,65.53 141.37,63.95 C141.06,63.20 139.40,61.86 137.64,61.43 C135.61,60.97 131.46,62.04 129.84,63.33 C128.60,64.35 127.71,65.66 127.40,66.21 C126.83,62.81 126.06,60.90 125.53,60.23 C124.96,59.59 122.44,58.64 120.68,58.80 C119.16,58.98 116.51,60.15 115.16,61.23 C113.85,62.31 111.25,65.71 111.25,65.71 C110.88,64.65 109.82,62.35 108.86,61.19 C107.80,59.96 104.83,58.85 103.06,58.73 C101.63,58.66 97.97,59.34 95.16,60.88 C92.26,62.51 88.12,66.20 87.38,67.47 C86.86,65.34 86.02,63.73 85.03,63.37 C83.73,62.96 79.99,63.53 78.20,64.31 C75.50,65.54 71.84,69.54 71.81,69.69 C71.78,69.85 71.78,70.31 71.82,71.05" fill="none" stroke="rgb(114, 142, 186)" stroke-width="2.39" stroke-opacity="1.00" stroke-linejoin="round"/>
</g>
</svg>
