<?xml version="1.0" encoding="UTF-8" standalone="no"?>
<!DOCTYPE svg PUBLIC "-//W3C//DTD SVG 1.1//EN" "http://www.w3.org/Graphics/SVG/1.1/DTD/svg11.dtd">
<svg width="64.20" height="90.84" viewBox="0.00 0.00 535.00 757.00" xmlns="http://www.w3.org/2000/svg" xmlns:xlink="http://www.w3.org/1999/xlink">
<g stroke-linecap="round" transform="translate(154.00, 267.00)" id="19-사람">
<path d="M200.89,59.11 C200.30,58.38 199.54,57.83 196.38,57.09 C192.02,56.09 185.79,55.33 176.27,54.87 C168.75,54.52 161.03,55.14 155.73,56.67 C150.79,58.11 138.97,62.87 133.28,66.48 C131.28,67.78 128.20,70.31 126.49,72.66 C123.40,76.95 122.38,80.80 122.38,81.04 C122.37,81.32 122.38,82.17 122.39,83.60" fill="none" stroke="rgb(126, 255, 0)" stroke-width="3.14" stroke-opacity="1.00" stroke-linejoin="round"/>
<path d="M123.66,85.92 C123.66,85.92 123.63,85.78 123.63,85.78 C125.17,86.45 146.03,81.85 157.40,80.36 C164.95,79.48 175.55,78.52 176.04,78.70 C176.23,78.77 176.89,79.06 178.03,79.56" fill="none" stroke="rgb(126, 255, 0)" stroke-width="3.14" stroke-opacity="1.00" stroke-linejoin="round"/>
<path d="M179.32,81.27 C179.32,81.27 178.56,81.13 178.56,81.13 C178.56,81.15 179.17,83.49 179.96,85.69 C180.74,87.85 186.09,99.04 187.26,104.29 C188.77,111.83 191.12,118.49 192.15,124.47 C192.68,127.59 193.54,132.17 194.15,136.73 C194.15,136.73 193.58,135.96 193.58,135.96" fill="none" stroke="rgb(126, 255, 0)" stroke-width="3.14" stroke-opacity="1.00" stroke-linejoin="round"/>
<path d="M186.17,73.66 C186.46,74.29 187.06,74.96 188.27,75.94 C190.11,77.48 191.99,80.44 193.43,83.96 C195.63,89.49 197.69,99.97 199.05,105.68 C201.89,119.12 204.09,135.60 203.70,136.40 C203.70,136.40 201.10,137.12 201.10,137.12" fill="none" stroke="rgb(126, 255, 0)" stroke-width="3.14" stroke-opacity="1.00" stroke-linejoin="round"/>
<path d="M192.25,138.98 C192.25,138.98 191.80,138.92 191.80,138.92 C192.35,138.69 196.23,137.78 200.31,136.96 C202.47,136.48 204.84,135.94 205.03,135.89 C205.03,135.89 204.75,134.53 204.75,134.53" fill="none" stroke="rgb(126, 255, 0)" stroke-width="3.14" stroke-opacity="1.00" stroke-linejoin="round"/>
<path d="M204.74,80.51 C204.87,80.64 206.98,82.45 207.80,84.10 C209.45,87.47 212.45,97.03 214.04,105.10 C214.73,108.85 216.78,127.10 216.96,129.92 C217.12,132.33 218.03,136.32 218.03,136.30 C218.03,136.30 216.55,135.83 216.55,135.83" fill="none" stroke="rgb(126, 255, 0)" stroke-width="3.14" stroke-opacity="1.00" stroke-linejoin="round"/>
<path d="M206.59,136.78 C206.59,136.78 206.31,136.84 206.31,136.84 C206.86,136.51 208.08,136.07 210.16,135.46 C215.96,133.83 223.45,132.35 226.36,131.77 C226.36,131.77 225.77,130.90 225.77,130.90" fill="none" stroke="rgb(126, 255, 0)" stroke-width="3.14" stroke-opacity="1.00" stroke-linejoin="round"/>
<path d="M208.72,61.83 C209.09,62.05 209.36,62.20 209.54,62.30 C211.30,63.25 214.74,66.45 216.10,68.14 C218.62,71.33 222.44,80.38 224.23,87.02 C225.79,93.02 227.36,104.42 228.07,108.10 C229.39,115.13 228.91,125.95 228.64,131.45 C228.64,131.45 228.07,130.72 228.07,130.72" fill="none" stroke="rgb(126, 255, 0)" stroke-width="3.14" stroke-opacity="1.00" stroke-linejoin="round"/>
<path d="M138.16,70.25 C137.68,70.46 135.17,73.51 134.68,77.87 C134.54,79.32 134.88,80.72 135.29,81.21 C135.29,81.21 136.49,81.24 136.49,81.24" fill="none" stroke="rgb(126, 255, 0)" stroke-width="3.14" stroke-opacity="1.00" stroke-linejoin="round"/>
<path d="M145.09,68.32 C144.89,68.40 144.26,68.68 144.11,69.10 C143.75,70.09 142.97,76.73 143.13,78.49 C143.13,78.49 144.98,77.16 144.98,77.16" fill="none" stroke="rgb(126, 255, 0)" stroke-width="3.14" stroke-opacity="1.00" stroke-linejoin="round"/>
<path d="M158.59,65.56 C158.16,65.55 157.28,67.20 156.79,69.19 C156.33,71.20 156.23,75.17 156.77,78.06 C156.89,78.67 157.01,79.28 157.13,79.90" fill="none" stroke="rgb(126, 255, 0)" stroke-width="3.14" stroke-opacity="1.00" stroke-linejoin="round"/>
<path d="M136.71,86.90 C136.71,86.90 136.36,86.97 136.36,86.97 C136.31,87.05 139.36,103.02 140.33,107.27 C142.39,115.78 144.58,122.23 148.85,129.78 C150.27,132.26 151.76,134.47 152.79,135.54 C155.19,137.96 158.76,139.85 161.28,140.33 C166.17,141.19 179.82,140.06 182.94,139.33 C184.78,138.89 191.19,136.64 191.30,136.53 C191.43,136.40 191.84,135.93 192.53,135.12" fill="none" stroke="rgb(126, 255, 0)" stroke-width="3.14" stroke-opacity="1.00" stroke-linejoin="round"/>
<path d="M140.48,100.34 C140.48,100.34 139.82,100.29 139.82,100.29 C139.82,100.29 139.81,100.15 139.81,100.15 C140.58,99.29 143.67,97.43 146.36,96.58 C148.04,96.07 151.17,95.35 151.86,95.33 C151.86,95.33 151.26,96.36 151.26,96.36" fill="none" stroke="rgb(126, 255, 0)" stroke-width="3.14" stroke-opacity="1.00" stroke-linejoin="round"/>
<path d="M142.85,105.00 C142.82,105.00 142.89,104.99 142.92,104.99 C144.87,104.80 149.27,103.72 150.83,103.67 C154.07,103.58 159.33,105.21 159.73,105.38 C159.73,105.38 158.52,107.10 156.15,108.81 C153.60,110.63 146.02,112.44 145.94,112.38 C145.94,112.38 145.39,111.90 145.39,111.90" fill="none" stroke="rgb(126, 255, 0)" stroke-width="3.14" stroke-opacity="1.00" stroke-linejoin="round"/>
<path d="M145.03,106.48 C144.24,106.70 143.31,107.80 143.30,109.11 C143.33,110.37 144.08,111.99 145.05,112.39 C145.97,112.73 147.96,112.43 148.82,111.76 C149.67,111.05 150.02,109.27 149.55,108.43 C149.15,107.75 148.08,107.04 146.57,106.53 C146.42,106.48 146.28,106.42 146.12,106.34" fill="none" stroke="rgb(126, 255, 0)" stroke-width="3.14" stroke-opacity="1.00" stroke-linejoin="round"/>
<path d="M150.59,127.61 C150.76,127.55 150.89,127.50 150.98,127.47 C152.12,127.00 155.37,126.23 158.15,125.83 C162.78,125.19 168.47,125.25 168.96,125.33 C169.17,125.37 167.95,128.57 166.68,130.30 C165.26,132.19 161.23,135.23 160.06,135.77 C159.34,136.09 158.41,136.27 157.10,136.36" fill="none" stroke="rgb(126, 255, 0)" stroke-width="3.14" stroke-opacity="1.00" stroke-linejoin="round"/>
<path d="M156.50,142.25 C156.50,142.25 156.03,142.46 156.03,142.46 C156.03,142.46 156.47,154.38 156.47,154.38 C156.26,154.56 143.88,157.90 138.40,161.18 C131.78,165.24 120.59,173.67 120.35,173.95 C120.03,174.34 118.70,175.96 118.70,176.68 C118.81,179.56 121.58,185.39 126.76,193.46 C126.92,193.73 127.18,194.17 127.52,194.78 C129.59,192.67 133.18,189.79 136.65,187.84 C138.80,186.64 143.74,184.34 144.51,184.23 C144.51,184.23 144.34,184.70 144.34,184.70" fill="none" stroke="rgb(126, 255, 0)" stroke-width="3.14" stroke-opacity="1.00" stroke-linejoin="round"/>
<path d="M145.44,184.73 C145.44,184.73 144.53,185.09 144.53,185.09 C143.95,185.95 145.37,198.06 147.08,204.44 C147.49,205.99 149.71,214.72 149.99,214.89 C151.14,214.96 176.47,208.72 180.20,207.94 C183.22,207.32 190.39,206.48 192.16,206.06 C196.55,204.88 201.77,203.50 202.46,203.35 C202.46,203.35 202.12,202.68 202.12,202.68" fill="none" stroke="rgb(126, 255, 0)" stroke-width="3.14" stroke-opacity="1.00" stroke-linejoin="round"/>
<path d="M173.15,142.97 C173.36,143.55 178.58,150.05 178.65,150.12 C179.88,151.55 184.73,155.85 185.93,157.58 C186.43,158.29 191.14,166.00 191.40,166.40 C192.73,168.52 198.24,181.92 199.05,185.47 C200.63,192.61 200.34,204.07 200.11,204.80 C200.08,204.88 200.04,204.99 199.97,205.15" fill="none" stroke="rgb(126, 255, 0)" stroke-width="3.14" stroke-opacity="1.00" stroke-linejoin="round"/>
<path d="M154.40,144.27 C153.49,144.08 151.15,143.72 148.17,144.34 C143.03,145.45 135.60,148.30 130.93,150.68 C122.79,154.90 120.55,156.19 120.16,156.44 C120.16,156.44 120.93,165.34 120.93,165.34 C127.14,161.32 133.88,157.79 139.98,155.86 C145.35,154.27 151.06,152.58 151.40,152.48 C151.40,152.48 151.57,152.78 151.57,152.78" fill="none" stroke="rgb(126, 255, 0)" stroke-width="3.14" stroke-opacity="1.00" stroke-linejoin="round"/>
<path d="M120.88,160.56 C120.88,160.56 120.69,160.19 120.69,160.19 C120.05,160.02 118.19,160.38 117.25,161.31 C116.52,162.05 114.91,164.60 114.68,165.56 C114.41,166.80 116.10,168.39 117.62,168.50 C118.32,168.52 120.49,167.92 121.63,167.37 C122.04,167.16 122.68,166.76 123.55,166.17" fill="none" stroke="rgb(126, 255, 0)" stroke-width="3.14" stroke-opacity="1.00" stroke-linejoin="round"/>
<path d="M118.56,181.03 C118.54,180.78 117.06,180.00 116.11,179.91 C114.81,179.81 112.43,180.69 111.41,181.49 C109.66,182.90 107.47,187.14 107.53,189.67 C107.58,191.10 108.32,194.14 108.95,195.35 C109.64,196.60 111.56,198.29 112.72,198.59 C115.03,199.13 120.83,196.21 121.43,195.91 C125.05,194.07 126.58,192.90 127.20,192.37" fill="none" stroke="rgb(126, 255, 0)" stroke-width="3.14" stroke-opacity="1.00" stroke-linejoin="round"/>
<path d="M149.11,214.35 C149.11,214.35 148.74,214.42 148.74,214.42 C149.67,219.85 151.21,229.00 151.16,234.59 C151.10,238.38 152.04,251.33 152.07,255.40 C152.09,261.02 153.61,273.62 153.66,278.02 C153.94,291.21 154.30,307.71 154.66,309.48 C169.47,307.20 184.17,307.56 184.80,307.36 C185.21,305.89 182.80,289.14 182.73,285.30 C182.74,279.01 182.60,264.45 182.22,261.33 C180.47,248.25 181.11,238.04 181.11,236.51 C182.27,238.29 186.87,248.28 190.80,259.05 C196.59,275.39 203.16,300.93 204.01,302.03 C204.75,302.91 207.23,302.29 209.93,301.03 C212.35,299.88 216.74,297.63 219.74,296.19 C223.14,294.59 238.16,291.23 239.14,290.76 C239.37,290.65 239.72,290.47 240.20,290.21" fill="none" stroke="rgb(126, 255, 0)" stroke-width="3.14" stroke-opacity="1.00" stroke-linejoin="round"/>
<path d="M198.63,203.78 C198.36,204.08 197.99,204.59 198.00,205.01 C198.02,205.54 201.31,222.16 202.46,226.17 C203.29,229.02 207.10,238.78 208.65,242.92 C210.35,247.13 214.09,251.92 216.18,254.45 C220.73,261.11 225.92,266.67 229.48,272.76 C234.24,280.87 241.45,288.70 242.03,289.23 C242.19,289.37 242.30,289.43 242.36,289.40" fill="none" stroke="rgb(126, 255, 0)" stroke-width="3.14" stroke-opacity="1.00" stroke-linejoin="round"/>
<path d="M160.17,310.14 C160.17,310.14 160.02,309.50 160.02,309.50 C160.02,309.50 159.79,318.81 159.79,318.81 C159.79,318.81 160.85,317.91 160.85,317.91" fill="none" stroke="rgb(126, 255, 0)" stroke-width="3.14" stroke-opacity="1.00" stroke-linejoin="round"/>
<path d="M171.92,309.21 C171.86,309.90 171.81,310.40 171.76,310.71 C170.94,315.85 170.88,317.43 171.38,318.32 C171.04,319.22 156.90,320.99 152.54,320.96 C150.12,320.95 147.71,321.92 146.77,322.99 C145.87,324.09 144.48,327.52 144.30,329.36 C144.15,331.08 144.94,333.85 145.76,334.67 C146.70,335.52 149.79,336.14 152.94,335.96 C155.82,335.79 170.04,335.13 173.39,334.54 C175.69,334.12 179.16,332.90 179.99,332.41 C180.17,332.05 179.80,327.89 178.77,324.97 C177.68,321.98 174.96,319.39 174.08,318.89 C173.73,318.69 172.99,318.36 171.87,317.88" fill="none" stroke="rgb(126, 255, 0)" stroke-width="3.14" stroke-opacity="1.00" stroke-linejoin="round"/>
<path d="M222.34,297.32 C222.34,297.32 222.08,296.99 222.08,296.99 C222.02,296.99 221.98,297.46 222.05,298.15 C222.59,303.37 225.58,306.08 225.85,306.06 C225.85,306.06 226.68,305.58 226.68,305.58" fill="none" stroke="rgb(126, 255, 0)" stroke-width="3.14" stroke-opacity="1.00" stroke-linejoin="round"/>
<path d="M233.51,294.39 C233.51,294.39 233.11,294.08 233.11,294.08 C232.73,294.74 231.78,300.76 231.97,302.72 C232.02,303.21 232.19,304.28 232.47,305.94 C232.27,305.94 226.38,305.35 224.87,305.58 C223.31,305.83 221.17,306.88 220.35,307.75 C219.56,308.65 218.49,311.13 218.28,312.55 C218.06,314.22 218.45,317.29 219.05,318.57 C219.59,319.66 221.27,321.18 222.36,321.56 C223.59,321.96 226.27,322.01 228.51,321.41 C230.25,320.92 233.74,319.21 238.37,316.62 C241.44,314.88 247.62,312.42 247.80,312.33 C247.80,312.33 248.34,310.44 248.34,310.44" fill="none" stroke="rgb(126, 255, 0)" stroke-width="3.14" stroke-opacity="1.00" stroke-linejoin="round"/>
<path d="M233.00,299.68 C233.00,299.68 232.77,299.48 232.77,299.48 C232.77,299.48 233.02,299.30 233.02,299.30 C234.10,299.40 236.73,301.37 239.37,304.38 C243.69,309.40 245.92,315.28 245.88,315.51 C245.88,315.51 245.54,315.73 245.54,315.73" fill="none" stroke="rgb(126, 255, 0)" stroke-width="3.14" stroke-opacity="1.00" stroke-linejoin="round"/>
</g>
</svg>
