<?xml version="1.0" encoding="UTF-8" standalone="no"?>
<!DOCTYPE svg PUBLIC "-//W3C//DTD SVG 1.1//EN" "http://www.w3.org/Graphics/SVG/1.1/DTD/svg11.dtd">
<svg width="64.20" height="90.84" viewBox="0.00 0.00 535.00 757.00" xmlns="http://www.w3.org/2000/svg" xmlns:xlink="http://www.w3.org/1999/xlink">
<g stroke-linecap="round" transform="translate(44.00, 155.00)" id="19-물웅덩이-1">
<path d="M320.34,432.12 C320.31,431.87 320.26,431.63 320.20,431.42 C320.14,431.21 319.99,430.72 319.75,429.95" fill="none" stroke="rgb(0, 255, 199)" stroke-width="3.14" stroke-opacity="1.00" stroke-linejoin="round"/>
<path d="M317.29,427.90 C316.79,428.11 316.28,428.36 315.77,428.81 C312.86,431.41 309.29,436.26 307.63,440.48 C306.77,442.74 305.06,449.15 304.90,450.52 C304.58,453.41 304.91,458.05 305.32,460.44 C305.74,462.77 307.10,466.50 308.26,468.32 C309.79,470.66 321.86,480.87 323.58,482.02 C326.75,484.14 333.92,486.15 338.92,486.53 C343.16,486.84 352.13,486.65 356.82,485.82 C362.45,484.81 373.08,481.74 378.60,478.98 C380.81,477.87 386.43,474.42 388.67,472.59 C390.97,470.69 394.14,466.77 395.60,464.13 C397.46,460.72 399.44,455.68 399.83,453.18 C400.20,450.66 400.24,444.94 399.85,442.51 C399.41,439.94 397.15,433.94 395.39,431.44 C393.53,428.85 389.68,425.57 388.47,424.75 C383.66,421.55 374.85,417.63 369.90,416.71 C367.66,416.31 365.37,416.03 364.96,416.17 C364.39,416.38 362.81,417.17 361.72,417.72" fill="none" stroke="rgb(0, 255, 199)" stroke-width="3.14" stroke-opacity="1.00" stroke-linejoin="round"/>
<path d="M327.41,436.63 C326.32,437.12 323.83,441.49 323.19,443.24 C322.70,444.65 322.26,448.44 322.89,450.79 C323.69,453.62 326.86,457.01 328.54,457.92 C330.53,458.96 335.63,460.04 338.26,460.09 C342.40,460.12 354.20,457.77 357.58,456.69 C360.55,455.73 366.35,453.55 368.42,452.46 C371.16,450.98 375.61,447.32 376.58,445.42 C377.41,443.69 377.69,438.54 377.59,436.21 C377.44,433.60 375.76,429.72 373.85,428.04 C372.24,426.67 368.24,424.88 366.31,424.54 C365.86,424.47 362.52,425.51 359.25,426.67" fill="none" stroke="rgb(0, 255, 199)" stroke-width="3.14" stroke-opacity="1.00" stroke-linejoin="round"/>
<path d="M352.01,438.69 C352.01,438.69 351.08,438.43 351.08,438.43 C350.81,438.67 350.53,439.17 350.37,439.81 C350.04,441.12 350.59,443.08 351.56,443.46 C352.74,443.87 355.57,443.37 356.36,442.37 C357.05,441.44 357.17,438.16 355.97,436.84 C355.75,436.59 355.27,436.28 354.54,435.92" fill="none" stroke="rgb(0, 255, 199)" stroke-width="3.14" stroke-opacity="1.00" stroke-linejoin="round"/>
<path d="M376.51,379.43 C376.62,379.42 377.27,379.26 377.43,379.25 C378.77,379.16 381.50,381.16 382.71,383.33 C383.77,385.29 384.25,387.52 384.18,387.99 C384.18,387.99 384.21,387.33 384.21,387.33" fill="none" stroke="rgb(0, 255, 199)" stroke-width="3.14" stroke-opacity="1.00" stroke-linejoin="round"/>
<path d="M384.07,374.39 C384.26,374.35 384.69,374.28 384.90,374.34 C386.07,374.72 388.20,377.86 389.34,381.22 C390.15,383.67 390.42,386.05 390.14,386.76 C390.14,386.76 389.84,386.63 389.84,386.63" fill="none" stroke="rgb(0, 255, 199)" stroke-width="3.14" stroke-opacity="1.00" stroke-linejoin="round"/>
</g>
</svg>
