<?xml version="1.0" encoding="UTF-8" standalone="no"?>
<!DOCTYPE svg PUBLIC "-//W3C//DTD SVG 1.1//EN" "http://www.w3.org/Graphics/SVG/1.1/DTD/svg11.dtd">
<svg width="64.20" height="90.84" viewBox="0.00 0.00 535.00 757.00" xmlns="http://www.w3.org/2000/svg" xmlns:xlink="http://www.w3.org/1999/xlink">
<g stroke-linecap="round" transform="translate(44.00, 155.00)" id="19-물웅덩이-2">
<path d="M244.79,450.91 C244.79,450.91 244.51,450.78 244.51,450.78 C242.26,454.45 241.47,457.59 241.68,461.68 C241.88,464.88 242.64,469.03 243.68,470.46 C244.53,471.57 247.65,473.19 250.76,473.81 C256.43,474.89 263.33,474.36 277.70,472.83 C281.23,472.42 287.47,470.75 290.64,469.10 C293.51,467.57 299.09,463.24 300.16,461.41 C301.78,458.51 302.28,452.53 301.73,449.14 C301.27,446.50 298.71,441.59 296.73,439.99 C295.83,439.31 292.24,438.56 290.35,438.18" fill="none" stroke="rgb(0, 255, 199)" stroke-width="3.14" stroke-opacity="1.00" stroke-linejoin="round"/>
<path d="M261.44,451.72 C261.44,451.72 260.91,451.61 260.91,451.61 C260.31,452.21 259.30,455.06 259.63,456.76 C260.00,458.37 262.96,460.72 265.56,461.71 C267.93,462.57 271.82,462.88 274.13,462.49 C276.29,462.10 279.64,460.75 281.59,459.52 C283.76,458.14 287.89,454.79 288.50,453.64 C288.83,452.95 288.92,451.49 288.64,450.87 C288.45,450.48 286.24,448.41 284.92,447.20" fill="none" stroke="rgb(0, 255, 199)" stroke-width="3.14" stroke-opacity="1.00" stroke-linejoin="round"/>
<path d="M234.73,450.09 C234.61,450.07 232.98,450.00 231.41,451.69 C228.95,454.38 225.89,458.68 224.44,462.62 C224.24,463.18 221.57,471.36 221.25,473.91 C221.03,475.77 221.90,481.82 222.30,484.53 C222.75,487.48 223.68,490.29 224.88,492.18 C226.41,494.49 229.35,497.48 231.73,498.60 C235.85,500.48 246.63,503.35 252.37,503.70 C256.50,503.93 277.10,502.06 277.51,501.98 C279.55,501.55 288.77,499.27 290.55,498.56 C293.49,497.36 297.61,494.52 298.79,493.25 C299.93,492.00 302.06,488.35 302.94,485.44 C303.59,483.24 303.92,476.91 303.45,474.92 C303.28,474.23 302.16,471.77 301.83,471.03" fill="none" stroke="rgb(0, 255, 199)" stroke-width="3.14" stroke-opacity="1.00" stroke-linejoin="round"/>
<path d="M230.66,443.00 C230.66,443.00 223.13,436.89 223.13,436.89 C222.48,438.26 223.00,440.86 224.01,441.94 C224.71,442.67 228.09,444.65 228.33,444.75 C228.41,444.79 228.47,444.79 228.51,444.75" fill="none" stroke="rgb(0, 255, 199)" stroke-width="3.14" stroke-opacity="1.00" stroke-linejoin="round"/>
<path d="M243.12,440.48 C242.87,440.24 242.10,439.68 241.59,439.47 C240.06,438.86 236.30,439.38 234.85,440.40 C234.91,442.05 235.35,442.85 236.62,443.10 C237.86,443.33 239.74,443.37 240.66,443.15 C242.58,442.67 243.49,441.35 244.35,439.96" fill="none" stroke="rgb(0, 255, 199)" stroke-width="3.14" stroke-opacity="1.00" stroke-linejoin="round"/>
</g>
</svg>
