<?xml version="1.0" encoding="UTF-8" standalone="no"?>
<!DOCTYPE svg PUBLIC "-//W3C//DTD SVG 1.1//EN" "http://www.w3.org/Graphics/SVG/1.1/DTD/svg11.dtd">
<svg width="64.20" height="90.84" viewBox="0.00 0.00 535.00 757.00" xmlns="http://www.w3.org/2000/svg" xmlns:xlink="http://www.w3.org/1999/xlink">
<g stroke-linecap="round" transform="translate(156.00, 267.00)" id="190-사람">
<path d="M-10.76,359.15 C-10.79,358.99 -10.82,358.88 -10.87,358.81 C-11.26,358.26 -14.89,356.19 -15.74,355.13 C-16.21,354.55 -17.66,352.36 -18.26,351.77 C-18.67,351.36 -21.03,349.46 -21.47,348.93 C-23.07,346.99 -24.25,342.61 -24.46,340.69 C-24.80,337.26 -23.22,326.36 -21.89,323.17 C-20.31,319.42 -17.67,315.18 -16.44,313.65 C-14.99,311.91 -11.94,310.03 -9.78,309.22 C-7.49,308.39 -3.69,307.51 -1.33,307.32 C1.09,307.15 8.41,307.91 11.39,308.85 C14.34,309.81 18.19,312.20 19.88,313.60 C21.46,314.92 25.84,320.06 27.55,322.26 C29.22,324.44 31.16,328.14 31.53,329.70 C31.91,331.47 31.59,335.18 30.82,337.32 C30.01,339.48 27.37,343.41 25.44,345.33 C23.58,347.13 18.51,351.25 15.97,352.43 C13.59,353.52 11.22,354.03 9.92,354.20 C9.92,354.20 9.46,353.53 9.46,353.53" fill="none" stroke="rgb(0, 255, 0)" stroke-width="3.26" stroke-opacity="1.00" stroke-linejoin="round"/>
<path d="M8.12,353.08 C8.42,352.80 13.89,350.04 14.50,349.67 C14.73,349.53 19.71,345.52 20.56,344.02 C22.08,341.28 24.75,334.43 24.85,332.07 C24.98,328.24 23.92,324.18 23.19,323.06 C22.44,321.96 19.69,319.74 18.02,319.00 C14.68,317.55 5.27,316.94 1.31,317.73 C-1.59,318.33 -15.39,324.49 -16.74,326.01 C-17.83,327.30 -19.30,331.01 -19.65,333.26 C-19.97,335.48 -19.71,339.75 -19.20,341.56 C-18.60,343.63 -16.38,347.05 -14.60,348.57 C-12.83,350.03 -8.52,352.08 -5.85,352.49 C-0.28,353.28 5.64,351.81 8.32,350.81 C9.11,350.49 9.81,349.64 10.81,348.36" fill="none" stroke="rgb(0, 255, 0)" stroke-width="3.26" stroke-opacity="1.00" stroke-linejoin="round"/>
<path d="M-15.70,329.94 C-15.70,329.94 -15.81,329.94 -15.81,329.94 C-15.11,327.85 -12.73,327.14 -12.25,327.15 C-12.25,327.15 -8.79,330.53 -8.79,330.53 C-8.79,330.53 -5.67,326.86 -5.67,326.86 C-3.90,327.70 -3.07,328.04 -2.78,327.94 C-0.81,327.25 3.93,325.69 4.72,325.78 C5.07,325.83 6.54,326.77 7.05,326.50 C9.35,325.26 10.50,324.93 11.72,325.45 C12.58,325.83 14.47,325.24 15.18,325.76 C15.39,325.92 16.00,326.38 16.64,326.59 C18.65,325.90 21.00,326.14 21.41,326.12 C21.52,326.11 21.61,326.08 21.68,326.03 C21.68,326.03 20.17,321.96 20.17,321.96 C20.17,321.96 19.34,323.74 19.34,323.74 C19.15,323.67 17.73,322.43 17.04,322.45 C16.31,322.52 15.80,323.29 15.24,324.67 C15.24,324.67 13.95,322.13 13.95,322.13 C13.95,322.13 13.40,324.70 13.40,324.70 C13.40,324.70 11.41,322.22 11.41,322.22 C11.41,322.22 9.29,325.16 9.29,325.16 C9.29,325.16 8.55,321.59 8.55,321.59 C8.55,321.59 5.95,323.63 5.95,323.63 C5.95,323.63 5.96,322.01 5.96,322.01 C5.96,322.01 1.45,324.79 1.45,324.79 C1.45,324.79 2.20,321.90 2.20,321.90 C2.20,321.90 -5.42,326.21 -5.42,326.21 C-5.42,326.21 -2.70,322.26 -2.70,322.26 C-2.70,322.26 -9.21,325.90 -9.21,325.90 C-9.21,325.90 -1.31,320.40 -1.31,320.40 C-1.31,320.40 -6.77,325.57 -6.77,325.57 C-6.77,325.57 1.47,320.83 1.47,320.83 C1.47,320.83 1.07,322.61 1.07,322.61 C1.07,322.61 4.99,318.71 4.99,318.71 C4.99,318.71 7.14,321.56 7.14,321.56 C7.14,321.56 8.19,319.96 8.19,319.96 C8.19,319.96 12.70,323.72 12.70,323.72 C12.70,323.72 14.07,321.23 14.07,321.23 C14.07,321.23 16.22,325.29 16.22,325.29 C16.22,325.29 17.07,321.72 17.07,321.72 C17.07,321.72 18.03,324.53 18.03,324.53 C18.32,323.48 17.29,321.87 16.17,321.40 C13.22,320.27 0.91,323.20 -6.70,325.64 C-7.59,325.92 -11.91,327.38 -12.50,327.62 C-12.66,327.69 -12.75,327.71 -12.77,327.69" fill="none" stroke="rgb(0, 255, 0)" stroke-width="3.26" stroke-opacity="1.00" stroke-linejoin="round"/>
<path d="M-9.19,335.11 C-9.19,335.03 -9.19,334.99 -9.19,334.99 C-9.10,334.22 -7.57,332.15 -6.13,331.51 C-3.27,330.29 0.87,332.85 0.89,332.86 C0.91,332.86 1.00,332.86 1.15,332.86" fill="none" stroke="rgb(0, 255, 0)" stroke-width="3.26" stroke-opacity="1.00" stroke-linejoin="round"/>
<path d="M13.51,334.43 C13.32,334.43 13.13,334.43 12.95,334.43 C12.91,334.43 12.87,334.43 12.83,334.43 C12.94,333.27 13.81,331.65 14.64,331.34 C16.72,330.64 19.22,333.81 19.29,334.06 C19.30,334.11 19.32,334.23 19.35,334.43" fill="none" stroke="rgb(0, 255, 0)" stroke-width="3.26" stroke-opacity="1.00" stroke-linejoin="round"/>
<path d="M-1.32,343.42 C-1.32,343.42 -1.09,345.40 -1.09,345.40 C-0.40,345.95 1.58,346.21 2.37,345.95 C3.44,345.55 5.64,342.85 6.46,341.12 C6.49,341.07 6.55,340.92 6.53,340.97" fill="none" stroke="rgb(0, 255, 0)" stroke-width="3.26" stroke-opacity="1.00" stroke-linejoin="round"/>
<path d="M-10.08,360.27 C-10.08,360.27 -10.31,360.27 -10.31,360.27 C-10.31,360.27 -10.22,360.05 -10.22,360.05 C-9.23,360.49 -7.07,362.38 -4.51,365.95 C-3.40,367.49 -2.04,367.72 -1.21,366.84 C0.40,364.97 2.90,362.11 5.00,360.02 C4.81,360.03 1.81,360.56 0.55,359.59 C0.19,359.30 -0.53,357.76 -0.56,357.38 C-0.57,357.18 -0.54,356.77 -0.45,356.16" fill="none" stroke="rgb(0, 255, 0)" stroke-width="3.26" stroke-opacity="1.00" stroke-linejoin="round"/>
<path d="M-10.31,355.10 C-10.31,355.10 -10.53,355.16 -10.53,355.16 C-10.53,358.65 -10.70,358.85 -10.73,358.92 C-10.75,358.95 -10.76,359.00 -10.76,359.09" fill="none" stroke="rgb(0, 255, 0)" stroke-width="3.26" stroke-opacity="1.00" stroke-linejoin="round"/>
<path d="M-12.78,358.92 C-12.75,358.86 -15.36,359.87 -16.45,360.20 C-18.00,360.65 -23.44,360.09 -24.62,359.04 C-29.38,354.62 -39.71,336.07 -42.49,329.34 C-43.72,326.45 -46.29,322.48 -47.46,321.86 C-47.75,321.73 -53.64,324.38 -54.08,324.71 C-54.63,325.84 -53.91,330.52 -52.65,334.27 C-50.83,339.59 -44.62,353.11 -40.69,358.35 C-39.41,360.03 -26.28,373.51 -25.83,373.76 C-27.37,387.75 -31.98,411.75 -34.01,423.53 C-34.22,424.60 -35.34,429.78 -35.06,430.25 C-34.48,431.12 -32.70,431.84 -28.58,432.31 C-27.35,432.45 -14.38,436.68 -8.55,437.65 C-4.17,438.36 5.89,437.81 9.70,436.99 C18.47,435.06 20.45,433.10 20.43,433.12 C20.43,433.12 19.80,432.17 19.80,432.17" fill="none" stroke="rgb(0, 255, 0)" stroke-width="3.26" stroke-opacity="1.00" stroke-linejoin="round"/>
<path d="M5.42,355.33 C5.42,355.33 4.97,355.55 4.97,355.55 C4.99,356.07 7.82,357.56 10.09,357.81 C12.13,358.01 16.63,358.02 18.96,357.84 C21.32,357.63 25.46,356.39 27.78,355.20 C31.62,353.20 39.11,347.06 42.87,342.66 C45.33,339.68 47.63,336.68 48.83,334.25 C49.82,332.19 54.96,318.34 56.12,317.19 C56.12,317.19 66.81,317.32 66.81,317.32 C67.40,318.74 65.06,327.42 62.62,332.03 C60.06,336.78 50.82,347.81 45.81,353.05 C38.48,360.62 32.86,365.77 28.54,369.04 C26.62,370.41 23.40,372.76 22.75,374.42 C22.06,376.32 21.51,424.39 21.43,426.04 C21.21,430.48 20.73,433.68 20.75,433.95 C20.76,434.09 20.82,434.40 20.92,434.87" fill="none" stroke="rgb(0, 255, 0)" stroke-width="3.26" stroke-opacity="1.00" stroke-linejoin="round"/>
<path d="M-54.80,324.77 C-54.77,324.80 -58.94,322.59 -60.54,321.73 C-61.19,321.33 -61.85,319.40 -61.52,318.88 C-61.11,318.27 -59.41,317.46 -58.81,317.52 C-57.39,317.70 -56.54,319.19 -56.67,319.38 C-57.98,315.99 -56.58,313.90 -56.24,313.82 C-56.24,313.82 -53.96,315.76 -53.96,315.76 C-53.55,313.99 -52.27,313.01 -51.50,313.39 C-50.89,313.75 -49.46,316.26 -49.09,317.17 C-48.97,317.46 -48.74,318.10 -48.39,319.08" fill="none" stroke="rgb(0, 255, 0)" stroke-width="3.26" stroke-opacity="1.00" stroke-linejoin="round"/>
<path d="M58.67,316.91 C58.41,316.86 57.66,316.48 57.35,316.01 C56.36,314.50 56.13,309.96 57.07,308.73 C57.98,307.66 60.63,311.11 60.72,311.16 C60.72,311.16 63.39,305.94 63.39,305.94 C63.39,305.94 65.22,308.28 65.22,308.28 C67.32,307.38 68.90,307.82 69.38,307.64 C71.64,306.83 72.33,306.75 72.66,307.35 C73.45,309.09 70.40,314.56 69.03,315.67 C68.66,315.96 66.94,316.83 65.86,317.36" fill="none" stroke="rgb(0, 255, 0)" stroke-width="3.26" stroke-opacity="1.00" stroke-linejoin="round"/>
<path d="M-2.89,370.16 C-2.89,370.16 -3.12,370.16 -3.12,370.16 C-3.13,370.06 -3.31,372.11 -3.34,372.87 C-3.39,374.36 -2.02,375.84 -1.00,375.88 C-0.08,375.88 1.53,374.00 1.92,372.81 C2.20,371.92 1.43,370.31 0.04,370.12 C-0.37,370.07 -1.92,370.47 -2.45,370.61" fill="none" stroke="rgb(0, 255, 0)" stroke-width="3.26" stroke-opacity="1.00" stroke-linejoin="round"/>
<path d="M-2.89,382.07 C-3.67,382.23 -4.89,383.07 -5.07,384.23 C-5.24,385.68 -3.99,387.46 -2.77,387.34 C-1.57,387.18 0.21,384.91 0.38,383.69 C0.44,383.13 0.05,382.59 -0.82,381.82 C-0.82,381.82 -2.32,381.77 -2.32,381.77" fill="none" stroke="rgb(0, 255, 0)" stroke-width="3.26" stroke-opacity="1.00" stroke-linejoin="round"/>
<path d="M-5.37,403.64 C-5.37,403.64 -6.93,403.00 -6.93,403.00 C-6.93,403.00 -7.11,406.25 -7.11,406.25 C-6.11,406.83 -4.07,406.25 -3.47,405.27 C-2.90,404.22 -3.49,403.35 -4.35,402.49 C-4.35,402.49 -5.69,402.48 -5.69,402.48" fill="none" stroke="rgb(0, 255, 0)" stroke-width="3.26" stroke-opacity="1.00" stroke-linejoin="round"/>
<path d="M-7.16,416.89 C-7.92,417.18 -9.45,417.81 -9.71,419.22 C-10.01,421.07 -8.93,422.82 -7.73,422.85 C-6.86,422.38 -6.24,420.48 -6.92,418.77 C-6.92,418.77 -7.99,418.64 -7.99,418.64" fill="none" stroke="rgb(0, 255, 0)" stroke-width="3.26" stroke-opacity="1.00" stroke-linejoin="round"/>
<path d="M-30.08,435.77 C-30.09,436.65 -30.07,437.50 -29.97,438.05 C-29.44,441.01 -29.08,445.61 -29.32,446.62 C-29.81,448.54 -33.24,453.06 -33.53,453.85 C-33.89,454.89 -33.13,457.04 -31.76,457.50 C-30.53,457.84 -23.82,455.97 -21.89,455.58 C-18.95,454.98 -17.39,453.80 -17.12,452.55 C-16.85,451.24 -15.26,438.97 -15.26,438.68 C-15.26,438.68 -15.47,438.47 -15.47,438.47" fill="none" stroke="rgb(0, 255, 0)" stroke-width="3.26" stroke-opacity="1.00" stroke-linejoin="round"/>
<path d="M-28.96,452.17 C-28.96,452.17 -29.15,452.17 -29.15,452.17 C-24.68,451.18 -18.34,451.03 -18.16,451.05 C-18.00,451.06 -17.69,451.12 -17.21,451.22" fill="none" stroke="rgb(0, 255, 0)" stroke-width="3.26" stroke-opacity="1.00" stroke-linejoin="round"/>
<path d="M-3.12,440.26 C-3.12,440.26 -3.68,440.26 -3.68,440.26 C-3.68,440.26 -3.79,440.37 -3.79,440.37 C-3.73,440.87 -1.01,446.60 -0.82,447.07 C-0.41,448.08 0.94,454.51 1.57,455.03 C2.68,455.82 17.28,456.90 19.33,456.19 C20.95,455.58 21.65,453.34 21.08,452.17 C19.94,450.05 16.17,449.55 13.99,449.60 C13.66,449.10 13.65,443.44 13.64,442.66 C13.58,439.83 13.40,438.55 13.11,438.50 C13.11,438.50 12.83,438.46 12.83,438.46" fill="none" stroke="rgb(0, 255, 0)" stroke-width="3.26" stroke-opacity="1.00" stroke-linejoin="round"/>
<path d="M13.51,451.27 C13.29,451.28 12.85,451.24 12.59,451.18 C10.81,450.78 3.25,452.19 1.18,452.51 C1.18,452.51 1.37,452.62 1.37,452.62" fill="none" stroke="rgb(0, 255, 0)" stroke-width="3.26" stroke-opacity="1.00" stroke-linejoin="round"/>
</g>
</svg>
