<?xml version="1.0" encoding="UTF-8" standalone="no"?>
<!DOCTYPE svg PUBLIC "-//W3C//DTD SVG 1.1//EN" "http://www.w3.org/Graphics/SVG/1.1/DTD/svg11.dtd">
<svg width="64.20" height="90.84" viewBox="0.00 0.00 535.00 757.00" xmlns="http://www.w3.org/2000/svg" xmlns:xlink="http://www.w3.org/1999/xlink">
<g stroke-linecap="round" transform="translate(154.00, 267.00)" id="190-우산">
<path d="M117.27,389.45 C117.27,389.45 117.08,389.45 117.08,389.45 C117.01,389.56 116.96,389.64 116.93,389.71 C116.36,391.13 117.60,402.48 118.59,407.17 C119.74,412.45 131.95,441.90 134.00,445.89 C135.93,449.66 139.53,454.83 139.66,455.01 C139.66,455.01 139.86,454.82 139.86,454.82 C139.86,454.82 139.93,454.43 139.93,454.43" fill="none" stroke="rgb(255, 255, 0)" stroke-width="3.26" stroke-opacity="1.00" stroke-linejoin="round"/>
<path d="M117.27,389.84 C117.27,389.84 117.16,389.97 117.16,389.97 C117.93,389.96 123.34,389.07 125.88,389.08 C130.24,389.10 143.41,390.13 148.64,391.69 C154.99,393.63 163.94,399.34 167.86,402.36 C171.40,405.12 174.47,410.49 174.63,410.73 C174.89,410.37 175.78,409.25 176.74,408.96 C177.74,408.67 179.53,409.35 180.09,409.91 C180.63,410.50 181.03,412.85 180.71,413.61 C180.34,414.36 178.97,415.28 177.95,415.50 C177.71,415.55 177.14,415.63 176.26,415.76" fill="none" stroke="rgb(255, 255, 0)" stroke-width="3.26" stroke-opacity="1.00" stroke-linejoin="round"/>
<path d="M173.92,409.38 C173.92,409.38 173.92,409.25 173.92,409.25 C173.96,409.48 174.07,409.89 174.26,410.37 C174.48,410.94 176.67,416.60 176.90,418.55 C177.07,420.07 177.00,425.77 176.77,427.99 C176.40,431.27 175.20,435.61 173.92,438.11 C170.43,444.70 159.94,456.44 159.50,456.92 C157.98,458.60 157.37,459.04 157.23,459.17 C157.23,459.17 156.34,458.99 156.34,458.99" fill="none" stroke="rgb(255, 255, 0)" stroke-width="3.26" stroke-opacity="1.00" stroke-linejoin="round"/>
<path d="M121.31,405.73 C121.31,405.73 120.56,405.60 120.56,405.60 C121.00,405.47 131.46,405.16 137.63,405.87 C139.24,406.05 168.61,407.77 170.05,408.16 C170.85,408.39 171.63,408.67 172.42,408.92 C172.65,408.99 172.76,409.02 172.76,409.00" fill="none" stroke="rgb(255, 255, 0)" stroke-width="3.26" stroke-opacity="1.00" stroke-linejoin="round"/>
<path d="M125.74,424.22 C125.81,424.23 127.12,423.75 127.67,423.58 C142.36,419.24 172.95,415.51 174.82,415.40 C175.08,415.38 175.27,415.37 175.38,415.37" fill="none" stroke="rgb(255, 255, 0)" stroke-width="3.26" stroke-opacity="1.00" stroke-linejoin="round"/>
<path d="M176.26,423.18 C173.76,424.39 171.30,426.08 169.31,427.65 C167.61,428.94 159.51,433.31 158.41,433.86 C156.28,434.91 141.50,439.65 138.18,441.68 C138.08,441.74 137.63,442.03 136.83,442.55 C136.62,442.69 136.29,442.90 135.85,443.18" fill="none" stroke="rgb(255, 255, 0)" stroke-width="3.26" stroke-opacity="1.00" stroke-linejoin="round"/>
<path d="M124.31,428.39 C124.31,428.39 124.31,428.26 124.31,428.26 C123.68,428.27 123.31,428.36 121.95,428.91 C108.40,434.32 94.32,438.67 85.51,443.36 C81.27,445.62 73.45,447.74 72.84,447.54 C72.84,447.54 73.79,440.23 73.79,440.23 C73.29,440.02 71.17,440.29 70.34,440.80 C69.38,441.41 68.03,443.99 67.88,445.27 C67.76,446.51 68.42,449.51 69.04,450.75 C69.71,452.04 71.65,453.99 72.76,454.59 C73.92,455.18 74.96,455.16 76.56,454.43 C77.58,453.95 77.75,453.16 77.54,452.33 C77.31,451.48 77.06,450.64 76.77,449.81 C76.66,449.48 76.51,449.13 76.33,448.75" fill="none" stroke="rgb(255, 255, 0)" stroke-width="3.26" stroke-opacity="1.00" stroke-linejoin="round"/>
<path d="M74.95,454.30 C74.95,454.30 74.82,454.26 74.82,454.26 C74.85,454.18 74.88,454.04 75.13,453.86 C76.68,452.78 82.06,450.77 83.51,450.19 C96.15,445.20 125.17,436.84 126.62,436.20 C126.75,436.15 126.84,436.11 126.88,436.08" fill="none" stroke="rgb(255, 255, 0)" stroke-width="3.26" stroke-opacity="1.00" stroke-linejoin="round"/>
</g>
</svg>
