<?xml version="1.0" encoding="UTF-8" standalone="no"?>
<!DOCTYPE svg PUBLIC "-//W3C//DTD SVG 1.1//EN" "http://www.w3.org/Graphics/SVG/1.1/DTD/svg11.dtd">
<svg width="64.20" height="90.84" viewBox="0.00 0.00 535.00 757.00" xmlns="http://www.w3.org/2000/svg" xmlns:xlink="http://www.w3.org/1999/xlink">
<g stroke-linecap="round" transform="translate(44.00, 155.00)" id="190-나무">
<path d="M482.12,109.99 C482.12,109.99 481.83,109.99 481.83,109.99 C481.36,109.50 480.97,109.26 480.87,109.15 C478.88,107.27 475.61,106.06 472.06,105.94 C469.08,105.89 465.12,106.15 462.88,106.73 C459.41,107.65 445.65,115.27 443.43,117.32 C443.30,117.44 438.79,122.88 437.89,123.15 C437.23,123.32 430.60,122.92 428.92,123.73 C425.76,125.35 421.71,136.65 421.48,136.84 C419.55,138.31 399.20,143.04 397.26,144.10 C393.51,146.21 382.67,158.91 379.88,163.31 C378.27,165.88 375.45,172.06 374.62,174.82 C370.81,187.91 373.36,199.25 373.60,199.86 C370.02,202.19 366.74,204.53 365.41,206.40 C364.32,207.97 362.94,213.08 362.67,215.41 C362.39,218.39 364.41,224.89 366.60,226.69 C367.62,227.49 370.39,227.83 370.55,227.90 C368.84,228.79 367.34,231.14 367.41,233.27 C367.54,235.63 370.06,239.37 372.26,240.45 C374.61,241.54 377.87,241.90 382.17,241.80 C385.13,241.75 386.84,241.97 387.69,242.64 C387.71,242.65 392.86,248.90 394.48,249.97 C396.96,251.54 403.36,252.29 406.93,252.01 C411.24,251.64 416.85,250.61 420.18,249.29 C423.31,248.02 432.41,242.99 433.78,242.55 C436.14,244.90 439.34,248.38 440.99,249.08 C443.38,250.02 449.21,249.21 452.47,247.64 C455.05,246.03 457.95,244.26 458.26,244.45 C460.94,247.94 464.76,250.12 467.30,250.50 C469.28,250.75 473.74,250.31 476.91,249.70 C478.50,249.38 481.35,248.82 482.61,248.57" fill="none" stroke="rgb(181, 143, 123)" stroke-width="3.26" stroke-opacity="1.00" stroke-linejoin="round"/>
<path d="M430.79,251.72 C430.89,255.60 430.08,264.71 430.42,275.47 C430.87,287.65 430.53,314.58 428.94,328.91 C425.14,360.68 416.28,423.26 412.85,454.03 C411.24,469.91 409.38,483.50 407.56,505.33 C406.67,520.83 405.54,551.73 403.03,561.34 C402.25,564.30 401.42,566.31 401.18,566.88 C401.18,566.88 402.12,568.93 402.12,568.93" fill="none" stroke="rgb(181, 143, 123)" stroke-width="3.26" stroke-opacity="1.00" stroke-linejoin="round"/>
<path d="M480.77,276.67 C480.77,276.67 480.55,276.45 480.55,276.45 C479.00,279.44 474.06,292.71 472.45,298.74 C470.11,306.91 469.08,312.57 469.45,319.17 C469.87,325.37 472.56,330.86 474.38,334.08 C474.80,334.80 475.21,335.51 475.62,336.23" fill="none" stroke="rgb(181, 143, 123)" stroke-width="3.26" stroke-opacity="1.00" stroke-linejoin="round"/>
<path d="M424.80,360.86 C424.80,360.86 424.35,360.86 424.35,360.86 C424.62,360.68 427.29,360.53 429.49,361.19 C432.96,362.27 437.51,365.29 440.01,367.94 C442.14,370.29 444.39,375.95 444.68,379.63 C445.03,384.58 442.87,399.19 441.33,406.21 C439.62,413.87 435.20,424.91 432.97,429.13 C429.29,435.98 424.68,440.66 423.37,441.63 C422.94,441.58 422.66,441.53 422.53,441.47 C422.41,441.41 422.27,441.26 422.11,441.01" fill="none" stroke="rgb(181, 143, 123)" stroke-width="3.26" stroke-opacity="1.00" stroke-linejoin="round"/>
<path d="M423.23,385.93 C423.23,385.93 423.23,385.71 423.23,385.71 C424.14,385.75 424.92,385.93 425.45,386.33 C426.60,387.23 428.63,390.89 429.31,393.13 C429.92,395.28 430.42,400.26 430.40,404.79 C430.34,409.51 429.66,415.69 428.61,417.88 C427.49,420.10 422.72,423.94 421.57,424.52 C421.57,424.52 419.42,424.00 419.42,424.00" fill="none" stroke="rgb(181, 143, 123)" stroke-width="3.26" stroke-opacity="1.00" stroke-linejoin="round"/>
<path d="M424.35,391.31 C424.35,391.31 424.13,391.08 424.13,391.08 C425.58,393.67 426.86,398.70 427.11,401.30 C427.35,404.17 426.56,409.08 425.47,411.18 C424.62,412.72 421.73,415.50 420.60,416.32 C420.60,416.32 420.32,414.82 420.32,414.82" fill="none" stroke="rgb(181, 143, 123)" stroke-width="3.26" stroke-opacity="1.00" stroke-linejoin="round"/>
<path d="M423.90,394.44 C423.90,394.44 423.45,394.44 423.45,394.44 C423.41,394.57 424.34,400.25 424.22,402.65 C423.83,409.52 420.47,413.85 419.33,414.64 C419.33,414.64 419.42,414.37 419.42,414.37" fill="none" stroke="rgb(181, 143, 123)" stroke-width="3.26" stroke-opacity="1.00" stroke-linejoin="round"/>
</g>
</svg>
