<?xml version="1.0" encoding="UTF-8" standalone="no"?>
<!DOCTYPE svg PUBLIC "-//W3C//DTD SVG 1.1//EN" "http://www.w3.org/Graphics/SVG/1.1/DTD/svg11.dtd">
<svg width="64.20" height="90.84" viewBox="0.00 0.00 535.00 757.00" xmlns="http://www.w3.org/2000/svg" xmlns:xlink="http://www.w3.org/1999/xlink">
<g stroke-linecap="round" transform="translate(156.00, 267.00)" id="191-사람">
<path d="M113.43,18.04 C113.74,17.32 113.99,16.80 114.32,16.41 C114.78,15.88 119.20,11.07 119.71,10.23 C124.43,1.55 128.08,-6.90 130.09,-11.40 C131.49,-14.60 132.54,-19.79 132.41,-21.52 C132.26,-23.09 131.35,-26.19 129.76,-28.86 C128.38,-31.17 126.22,-33.43 125.08,-34.14 C122.17,-35.91 114.05,-37.75 106.46,-38.24 C102.35,-38.49 92.47,-38.23 87.01,-36.91 C84.94,-36.40 79.23,-34.16 76.50,-32.63 C73.65,-31.02 72.02,-29.04 71.84,-27.95 C71.66,-26.66 72.75,-24.72 73.99,-24.24 C74.49,-24.06 77.18,-23.74 77.45,-23.68 C77.47,-23.41 75.36,-18.29 74.95,-16.65 C74.58,-15.17 73.81,-9.41 73.42,-6.37 C72.95,-2.29 72.70,-1.56 71.46,-0.88 C69.98,-0.10 68.84,1.07 68.85,1.65 C68.95,2.91 70.73,4.42 72.38,4.48 C72.58,4.48 75.25,4.45 75.41,4.47 C75.61,4.48 77.19,8.19 77.87,9.25 C78.91,10.82 83.85,14.19 85.28,15.27 C87.99,17.30 89.83,18.16 89.99,18.47 C90.00,18.49 88.53,30.57 88.66,36.48 C88.66,36.64 88.67,36.77 88.69,36.87 C88.69,36.87 89.48,36.58 89.48,36.58" fill="none" stroke="rgb(33, 228, 63)" stroke-width="3.18" stroke-opacity="1.00" stroke-linejoin="round"/>
<path d="M113.76,19.18 C113.76,19.18 113.35,19.35 113.35,19.35 C113.26,19.57 113.28,24.32 113.15,26.12 C112.80,31.35 113.65,41.54 113.65,41.51 C113.65,41.51 113.45,40.10 113.45,40.10" fill="none" stroke="rgb(33, 228, 63)" stroke-width="3.18" stroke-opacity="1.00" stroke-linejoin="round"/>
<path d="M76.51,-28.57 C76.51,-28.57 76.23,-29.06 76.23,-29.06 C75.39,-28.82 75.10,-25.87 75.48,-25.58 C75.90,-25.34 77.26,-25.49 79.77,-26.58 C86.85,-29.79 94.22,-32.31 99.52,-32.52 C102.32,-32.59 108.97,-31.82 110.41,-31.13 C111.12,-30.75 111.74,-29.22 111.86,-26.59 C112.36,-13.40 109.34,1.62 109.23,2.26 C109.74,1.54 117.50,-12.25 117.65,-12.65 C117.72,-12.87 118.60,-22.31 119.03,-24.61 C119.72,-28.20 122.20,-30.43 123.12,-31.10 C123.85,-30.75 125.07,-28.66 125.31,-27.26 C125.85,-23.87 125.94,-17.91 125.39,-14.32 C124.93,-11.47 123.60,-8.60 122.90,-7.82 C122.37,-7.32 120.19,-7.42 119.50,-7.67 C119.30,-7.74 118.86,-7.93 118.19,-8.22" fill="none" stroke="rgb(33, 228, 63)" stroke-width="3.18" stroke-opacity="1.00" stroke-linejoin="round"/>
<path d="M127.71,-23.15 C127.71,-23.15 127.60,-23.78 127.60,-23.78 C127.99,-23.05 128.28,-19.36 127.94,-16.76 C127.60,-14.26 127.53,-11.74 127.55,-10.91 C127.55,-10.91 129.71,-21.96 129.71,-21.96 C129.71,-21.96 128.37,-11.16 128.37,-11.16 C128.61,-14.76 129.54,-21.20 129.54,-22.27 C129.53,-23.52 128.38,-25.98 127.37,-26.95 C125.94,-28.27 121.49,-30.28 119.10,-30.97 C116.59,-31.68 114.62,-31.26 114.16,-30.80 C113.73,-30.36 113.25,-29.63 112.78,-28.76 C112.78,-28.76 114.72,-31.55 114.72,-31.55 C115.34,-30.97 115.50,-30.24 115.21,-28.61 C114.41,-24.07 113.84,-21.34 113.45,-19.50 C113.45,-19.50 116.60,-28.78 116.60,-28.78 C116.60,-28.78 112.29,-6.95 112.29,-6.95 C112.29,-6.95 117.37,-28.58 117.37,-28.58 C117.37,-28.58 115.14,-14.47 115.14,-14.47 C114.99,-14.26 116.83,-28.55 115.98,-30.04 C115.91,-30.15 112.72,-31.66 111.86,-32.19 C111.86,-32.19 116.56,-34.12 116.56,-34.12 C116.56,-34.12 103.45,-34.56 103.45,-34.56 C103.45,-34.56 119.95,-33.19 119.95,-33.19 C119.95,-33.19 117.06,-34.21 117.06,-34.21 C117.06,-34.21 118.92,-33.42 118.92,-33.42 C118.72,-33.34 102.11,-33.95 98.22,-33.66 C93.94,-33.29 83.21,-29.03 82.44,-29.39 C82.56,-30.46 91.67,-35.19 97.65,-36.92 C91.54,-36.93 76.88,-29.55 73.79,-27.64 C73.79,-27.64 87.21,-33.64 87.21,-33.64 C87.21,-33.64 87.67,-33.00 87.67,-33.00" fill="none" stroke="rgb(33, 228, 63)" stroke-width="3.18" stroke-opacity="1.00" stroke-linejoin="round"/>
<path d="M84.55,-22.00 C84.55,-22.00 84.64,-22.47 84.64,-22.47 C85.27,-22.88 89.41,-23.55 91.99,-23.62 C94.39,-23.66 100.72,-22.14 101.11,-21.31 C100.98,-20.22 99.10,-19.08 96.74,-18.81 C91.02,-18.20 86.18,-20.28 85.62,-20.79 C85.62,-20.79 85.79,-21.54 85.79,-21.54" fill="none" stroke="rgb(33, 228, 63)" stroke-width="3.18" stroke-opacity="1.00" stroke-linejoin="round"/>
<path d="M92.59,-21.84 C92.59,-21.84 92.59,-19.38 92.59,-19.38 C92.59,-19.38 92.76,-22.28 92.76,-22.28 C92.66,-21.66 92.58,-21.25 92.52,-21.06 C92.46,-20.86 92.35,-20.61 92.17,-20.30" fill="none" stroke="rgb(33, 228, 63)" stroke-width="3.18" stroke-opacity="1.00" stroke-linejoin="round"/>
<path d="M83.73,-22.00 C83.70,-21.95 83.73,-21.95 83.81,-22.00 C84.19,-22.26 85.20,-22.97 86.62,-23.76 C88.85,-24.99 95.72,-29.01 97.67,-29.72 C97.67,-29.72 97.00,-29.27 97.00,-29.27" fill="none" stroke="rgb(33, 228, 63)" stroke-width="3.18" stroke-opacity="1.00" stroke-linejoin="round"/>
<path d="M74.05,4.91 C74.28,4.91 75.53,4.92 75.98,4.98 C78.97,5.38 82.46,5.55 84.42,5.89 C86.12,6.20 88.32,7.22 88.72,7.73 C89.17,8.34 88.66,10.08 87.70,10.51 C86.60,10.95 82.76,10.37 82.58,10.38 C82.42,10.39 81.86,10.45 80.90,10.57" fill="none" stroke="rgb(33, 228, 63)" stroke-width="3.18" stroke-opacity="1.00" stroke-linejoin="round"/>
<path d="M85.91,34.60 C85.55,34.66 79.05,33.74 75.00,33.46 C73.36,33.36 52.93,34.25 52.40,34.56 C51.33,35.30 50.69,39.19 51.24,42.68 C51.72,45.59 55.42,58.07 55.57,58.89 C55.57,58.89 57.57,59.05 57.57,59.05" fill="none" stroke="rgb(33, 228, 63)" stroke-width="3.18" stroke-opacity="1.00" stroke-linejoin="round"/>
<path d="M86.30,36.15 C86.30,36.15 86.88,35.18 86.88,35.18 C86.88,35.18 87.47,34.98 87.47,34.98 C87.46,35.15 86.26,37.31 86.48,38.35 C86.76,39.50 89.45,41.31 91.83,42.24 C93.45,42.86 99.37,44.43 101.82,44.96 C105.00,45.63 109.31,45.75 112.34,45.20 C114.75,44.74 120.30,43.03 121.79,42.36 C125.64,40.60 127.34,38.68 127.87,37.71 C135.48,36.66 145.94,36.50 152.50,37.35 C160.82,38.42 167.05,38.44 169.28,38.13 C169.39,41.32 169.34,62.08 169.72,68.47 C170.82,85.03 170.97,112.27 170.98,128.82 C170.86,145.04 168.71,179.16 168.62,182.88 C168.59,184.09 168.51,194.62 168.44,195.79 C168.24,199.11 166.94,205.88 166.84,206.12 C166.59,206.71 165.70,207.87 165.11,208.53" fill="none" stroke="rgb(33, 228, 63)" stroke-width="3.18" stroke-opacity="1.00" stroke-linejoin="round"/>
<path d="M57.96,86.23 C57.96,86.23 57.77,85.26 57.77,85.26 C57.77,85.26 57.18,85.07 57.18,85.07 C57.18,85.04 58.01,124.22 58.03,139.09 C58.33,148.41 59.88,175.24 59.91,198.95 C59.91,206.50 59.90,216.29 59.90,216.29 C60.00,216.12 73.84,215.07 80.88,215.27 C89.95,215.62 101.82,214.85 109.61,214.75 C116.96,214.74 132.00,216.30 139.59,216.54 C149.34,216.78 163.71,215.49 168.52,215.52 C168.52,215.52 168.22,214.74 168.22,214.74" fill="none" stroke="rgb(33, 228, 63)" stroke-width="3.18" stroke-opacity="1.00" stroke-linejoin="round"/>
<path d="M158.62,40.90 C158.55,42.42 156.84,46.47 155.40,48.07 C155.36,48.12 146.40,56.19 139.84,60.74 C130.59,67.12 123.09,71.58 117.58,72.73 C115.17,73.21 100.36,72.99 94.35,73.08 C90.81,73.15 84.34,72.69 81.29,71.91 C78.81,71.26 75.22,69.76 73.15,68.20 C64.16,61.35 56.77,59.87 56.67,60.02 C55.72,61.48 55.13,71.24 55.73,79.88 C55.90,82.39 56.54,84.45 57.26,84.94 C59.67,86.43 97.10,91.32 106.17,91.85 C117.50,92.33 123.06,92.31 131.01,91.21 C133.42,90.86 136.59,89.98 140.97,88.50 C145.54,86.90 154.65,80.72 158.17,77.94 C161.92,74.95 167.84,68.06 168.04,67.69 C168.23,67.32 168.65,66.38 169.29,64.85" fill="none" stroke="rgb(33, 228, 63)" stroke-width="3.18" stroke-opacity="1.00" stroke-linejoin="round"/>
<path d="M52.93,62.51 C53.58,62.46 54.06,62.40 54.19,62.31 C54.24,62.27 54.35,62.15 54.49,61.94 C54.01,61.43 49.11,58.36 47.01,57.52 C44.73,56.63 43.44,57.03 43.13,57.78 C42.85,58.53 43.01,61.05 44.16,62.45 C44.92,63.37 46.44,63.97 46.69,64.00 C46.69,64.00 40.90,63.72 40.90,63.72 C40.54,65.16 43.51,67.91 43.95,68.33 C43.95,68.33 43.05,71.65 43.05,71.65 C43.05,71.65 45.18,73.55 45.18,73.55 C44.90,74.99 45.75,76.42 46.84,77.16 C47.36,77.48 49.74,78.34 50.65,78.43 C51.31,78.49 53.96,78.10 54.70,77.99" fill="none" stroke="rgb(33, 228, 63)" stroke-width="3.18" stroke-opacity="1.00" stroke-linejoin="round"/>
<path d="M103.43,47.41 C103.43,47.41 103.43,47.15 103.43,47.15 C103.44,53.64 103.54,66.23 104.44,71.83 C104.56,72.54 104.68,73.26 104.80,73.98 C104.80,73.98 105.43,73.06 105.43,73.06" fill="none" stroke="rgb(33, 228, 63)" stroke-width="3.18" stroke-opacity="1.00" stroke-linejoin="round"/>
<path d="M112.80,46.11 C112.84,46.12 112.56,47.14 112.54,47.29 C112.50,47.65 112.34,68.82 112.50,71.11 C112.61,72.39 112.74,74.89 112.80,75.50 C112.82,75.72 112.89,76.04 113.00,76.46" fill="none" stroke="rgb(33, 228, 63)" stroke-width="3.18" stroke-opacity="1.00" stroke-linejoin="round"/>
<path d="M104.73,91.92 C104.73,91.92 104.73,91.66 104.73,91.66 C105.03,97.30 105.47,108.63 105.50,114.28 C105.99,142.23 107.56,203.44 108.27,210.84 C108.27,210.84 108.90,210.89 108.90,210.89" fill="none" stroke="rgb(33, 228, 63)" stroke-width="3.18" stroke-opacity="1.00" stroke-linejoin="round"/>
<path d="M116.18,93.23 C116.14,97.72 114.21,112.93 114.44,155.56 C114.99,181.52 116.17,211.52 116.71,213.62 C116.71,213.62 117.31,213.75 117.31,213.75" fill="none" stroke="rgb(33, 228, 63)" stroke-width="3.18" stroke-opacity="1.00" stroke-linejoin="round"/>
<path d="M105.51,50.53 C105.47,50.53 105.42,50.53 105.38,50.53 C105.34,50.53 105.29,50.53 105.25,50.53 C105.27,50.53 107.10,50.55 107.66,50.59 C108.21,50.63 109.64,50.83 110.29,50.82 C110.29,50.82 110.20,51.57 110.20,51.57" fill="none" stroke="rgb(33, 228, 63)" stroke-width="3.18" stroke-opacity="1.00" stroke-linejoin="round"/>
<path d="M104.99,56.78 C104.95,56.78 104.90,56.78 104.86,56.78 C104.82,56.78 104.77,56.78 104.73,56.78 C105.13,56.90 105.49,56.97 105.82,57.00 C106.31,57.04 109.86,57.07 111.14,57.08 C111.14,57.08 110.98,58.34 110.98,58.34" fill="none" stroke="rgb(33, 228, 63)" stroke-width="3.18" stroke-opacity="1.00" stroke-linejoin="round"/>
<path d="M105.77,62.51 C105.77,62.51 104.99,62.51 104.99,62.51 C104.98,62.51 105.02,62.51 105.03,62.51 C106.58,62.45 110.20,61.96 111.19,62.01 C111.19,62.01 111.69,62.63 111.69,62.63" fill="none" stroke="rgb(33, 228, 63)" stroke-width="3.18" stroke-opacity="1.00" stroke-linejoin="round"/>
<path d="M106.55,67.97 C106.55,67.97 105.82,67.97 105.82,67.97 C105.82,67.97 111.60,67.74 111.60,67.74 C111.60,67.74 111.73,68.05 111.73,68.05" fill="none" stroke="rgb(33, 228, 63)" stroke-width="3.18" stroke-opacity="1.00" stroke-linejoin="round"/>
<path d="M105.25,99.47 C105.21,99.47 105.34,99.47 105.38,99.47 C106.61,99.48 109.32,99.45 110.54,99.38 C111.59,99.30 112.98,99.19 113.52,99.23 C113.52,99.23 113.58,99.47 113.58,99.47" fill="none" stroke="rgb(33, 228, 63)" stroke-width="3.18" stroke-opacity="1.00" stroke-linejoin="round"/>
<path d="M106.29,104.16 C106.29,104.16 105.90,104.29 105.90,104.29 C105.90,104.29 105.96,104.42 105.96,104.42 C105.96,104.42 113.39,105.13 113.39,105.13 C113.39,105.13 113.32,105.20 113.32,105.20" fill="none" stroke="rgb(33, 228, 63)" stroke-width="3.18" stroke-opacity="1.00" stroke-linejoin="round"/>
<path d="M107.07,112.75 C107.07,112.75 106.42,113.14 106.42,113.14 C106.49,113.36 107.11,113.62 108.18,113.80 C109.41,114.01 113.36,114.06 113.40,114.13 C113.40,114.13 113.22,114.83 113.22,114.83" fill="none" stroke="rgb(33, 228, 63)" stroke-width="3.18" stroke-opacity="1.00" stroke-linejoin="round"/>
<path d="M106.81,119.00 C106.81,119.00 106.42,118.74 106.42,118.74 C106.45,118.82 107.08,119.02 107.80,119.13 C108.70,119.26 110.39,119.21 112.83,119.03 C112.83,119.03 112.85,119.35 112.85,119.35" fill="none" stroke="rgb(33, 228, 63)" stroke-width="3.18" stroke-opacity="1.00" stroke-linejoin="round"/>
<path d="M108.38,124.46 C108.38,124.46 107.38,124.46 107.38,124.46 C109.17,124.45 110.53,124.36 111.47,124.17 C111.70,124.13 112.14,124.03 112.78,123.87 C112.78,123.87 113.60,124.40 113.60,124.40" fill="none" stroke="rgb(33, 228, 63)" stroke-width="3.18" stroke-opacity="1.00" stroke-linejoin="round"/>
<path d="M107.59,128.89 C107.59,128.89 106.94,128.89 106.94,128.89 C106.94,128.89 106.95,128.89 106.96,128.89 C108.43,128.89 113.74,128.90 113.90,128.99 C113.90,128.99 113.77,129.76 113.77,129.76" fill="none" stroke="rgb(33, 228, 63)" stroke-width="3.18" stroke-opacity="1.00" stroke-linejoin="round"/>
<path d="M107.07,134.36 C107.07,134.36 105.90,134.75 105.90,134.75 C105.90,134.75 105.90,134.92 105.90,134.92 C105.90,134.92 113.31,135.23 113.31,135.23 C113.31,135.23 112.54,136.44 112.54,136.44" fill="none" stroke="rgb(33, 228, 63)" stroke-width="3.18" stroke-opacity="1.00" stroke-linejoin="round"/>
<path d="M107.33,141.12 C107.33,141.12 106.81,141.12 106.81,141.12 C108.20,141.44 109.59,141.69 110.56,141.64 C110.98,141.63 111.96,141.54 113.51,141.38 C113.51,141.38 113.06,141.91 113.06,141.91" fill="none" stroke="rgb(33, 228, 63)" stroke-width="3.18" stroke-opacity="1.00" stroke-linejoin="round"/>
<path d="M108.64,145.81 C108.64,145.81 108.51,146.20 108.51,146.20 C108.69,146.43 109.43,146.67 110.48,146.77 C111.51,146.86 112.94,146.71 114.71,146.37 C114.71,146.37 114.10,147.63 114.10,147.63" fill="none" stroke="rgb(33, 228, 63)" stroke-width="3.18" stroke-opacity="1.00" stroke-linejoin="round"/>
<path d="M108.90,153.36 C108.90,153.36 108.51,153.75 108.51,153.75 C108.51,153.75 114.80,154.59 114.80,154.59 C114.80,154.59 114.88,156.48 114.88,156.48" fill="none" stroke="rgb(33, 228, 63)" stroke-width="3.18" stroke-opacity="1.00" stroke-linejoin="round"/>
<path d="M108.90,162.21 C108.90,162.21 107.98,162.47 107.98,162.47 C107.98,162.47 114.99,162.17 114.99,162.17 C114.99,162.17 113.84,163.77 113.84,163.77" fill="none" stroke="rgb(33, 228, 63)" stroke-width="3.18" stroke-opacity="1.00" stroke-linejoin="round"/>
<path d="M109.16,168.98 C109.16,168.98 107.20,170.00 107.20,170.00 C107.20,170.00 113.99,170.20 113.99,170.20 C113.99,170.20 114.62,171.06 114.62,171.06" fill="none" stroke="rgb(33, 228, 63)" stroke-width="3.18" stroke-opacity="1.00" stroke-linejoin="round"/>
<path d="M109.16,178.09 C109.16,178.09 108.64,178.41 108.64,178.41 C109.18,178.64 112.06,178.33 113.19,178.19 C113.61,178.14 113.98,178.12 114.31,178.13 C114.31,178.13 115.04,178.83 115.04,178.83" fill="none" stroke="rgb(33, 228, 63)" stroke-width="3.18" stroke-opacity="1.00" stroke-linejoin="round"/>
<path d="M109.42,187.46 C109.42,187.46 107.40,189.30 107.40,189.30 C107.82,190.41 113.50,190.60 114.45,190.67 C114.45,190.67 115.55,191.91 115.55,191.91" fill="none" stroke="rgb(33, 228, 63)" stroke-width="3.18" stroke-opacity="1.00" stroke-linejoin="round"/>
<path d="M109.68,197.61 C109.68,197.61 108.11,198.85 108.11,198.85 C108.11,198.85 108.18,199.24 108.18,199.24 C110.19,199.41 111.94,199.48 113.31,199.44 C113.84,199.42 114.04,199.53 114.62,199.96" fill="none" stroke="rgb(33, 228, 63)" stroke-width="3.18" stroke-opacity="1.00" stroke-linejoin="round"/>
<path d="M109.68,206.46 C109.68,206.46 108.64,207.77 108.64,207.77 C111.32,207.72 113.46,207.18 114.93,206.70 C115.19,206.61 115.37,206.53 115.46,206.47" fill="none" stroke="rgb(33, 228, 63)" stroke-width="3.18" stroke-opacity="1.00" stroke-linejoin="round"/>
<path d="M82.08,159.87 C81.02,162.87 79.05,169.12 77.95,170.57 C74.59,174.82 70.96,181.25 65.22,187.90 C65.00,188.16 64.76,188.36 64.50,188.50 C64.50,188.50 68.98,190.54 68.98,190.54 C69.33,190.33 76.07,182.13 81.05,175.26 C83.36,172.03 86.19,166.21 87.24,164.00 C87.13,163.76 83.65,160.73 82.80,160.01 C82.63,159.86 82.48,159.73 82.34,159.61" fill="none" stroke="rgb(33, 228, 63)" stroke-width="3.18" stroke-opacity="1.00" stroke-linejoin="round"/>
<path d="M68.81,183.56 C69.24,183.99 70.33,185.06 70.74,185.31 C71.18,185.57 71.71,185.82 72.34,186.07 C72.51,186.13 72.63,186.15 72.69,186.12 C72.69,186.12 72.45,185.64 72.45,185.64" fill="none" stroke="rgb(33, 228, 63)" stroke-width="3.18" stroke-opacity="1.00" stroke-linejoin="round"/>
<path d="M72.45,180.69 C72.45,180.69 72.71,180.69 72.71,180.69 C72.69,180.70 73.74,181.72 74.19,182.06 C74.58,182.34 75.71,182.99 76.36,183.56" fill="none" stroke="rgb(33, 228, 63)" stroke-width="3.18" stroke-opacity="1.00" stroke-linejoin="round"/>
<path d="M76.10,174.71 C76.10,174.71 75.84,174.44 75.84,174.44 C76.27,175.42 77.18,176.66 78.08,177.40 C78.28,177.56 78.51,177.69 78.77,177.78 C78.77,177.78 79.22,177.05 79.22,177.05" fill="none" stroke="rgb(33, 228, 63)" stroke-width="3.18" stroke-opacity="1.00" stroke-linejoin="round"/>
<path d="M79.48,171.58 C80.54,172.62 81.55,173.22 82.57,173.40 C82.73,173.43 82.85,173.43 82.94,173.40 C82.94,173.40 83.12,172.62 83.12,172.62" fill="none" stroke="rgb(33, 228, 63)" stroke-width="3.18" stroke-opacity="1.00" stroke-linejoin="round"/>
<path d="M82.60,165.59 C82.67,165.92 82.89,166.40 83.28,166.88 C83.62,167.27 83.95,167.66 84.28,168.06 C84.52,168.35 85.01,168.97 85.74,169.93" fill="none" stroke="rgb(33, 228, 63)" stroke-width="3.18" stroke-opacity="1.00" stroke-linejoin="round"/>
<path d="M143.52,165.85 C142.73,165.86 142.57,165.51 142.33,164.88 C142.29,164.78 142.25,164.67 142.22,164.56 C142.22,164.56 142.22,164.57 142.22,164.57 C142.92,166.13 156.67,187.83 156.76,187.99 C156.92,188.26 157.09,188.50 157.26,188.71" fill="none" stroke="rgb(33, 228, 63)" stroke-width="3.18" stroke-opacity="1.00" stroke-linejoin="round"/>
<path d="M143.26,163.77 C143.26,163.77 149.60,162.73 149.60,162.73 C149.60,162.73 162.14,183.83 162.14,183.83 C161.92,184.08 161.53,184.35 160.93,184.61 C160.16,184.94 158.86,185.34 157.10,185.82" fill="none" stroke="rgb(33, 228, 63)" stroke-width="3.18" stroke-opacity="1.00" stroke-linejoin="round"/>
<path d="M151.85,168.72 C151.85,168.72 151.46,168.46 151.46,168.46 C150.89,168.52 150.00,168.78 149.37,168.97 C149.31,168.99 147.67,169.30 147.09,169.43 C147.09,169.43 147.31,169.90 147.31,169.90" fill="none" stroke="rgb(33, 228, 63)" stroke-width="3.18" stroke-opacity="1.00" stroke-linejoin="round"/>
<path d="M158.10,178.61 C157.32,179.10 156.71,179.47 156.62,179.61 C155.47,181.37 154.90,181.82 154.20,182.23 C154.20,182.23 153.63,181.74 153.63,181.74" fill="none" stroke="rgb(33, 228, 63)" stroke-width="3.18" stroke-opacity="1.00" stroke-linejoin="round"/>
<path d="M51.63,35.96 C51.02,36.02 50.57,36.19 50.12,36.64 C49.18,37.57 44.04,42.06 42.65,43.10 C40.43,44.72 34.67,47.63 32.11,48.57 C30.49,49.15 23.59,51.24 20.26,52.62 C9.97,56.96 2.69,59.71 -0.70,60.17 C-2.35,60.37 -6.59,58.68 -8.27,58.00 C-11.05,56.90 -16.64,54.67 -19.10,53.13 C-19.48,52.89 -33.72,40.29 -36.22,38.85 C-38.85,37.37 -52.96,33.47 -56.99,31.76 C-59.01,30.90 -60.72,30.30 -61.10,30.37 C-63.49,31.10 -71.06,37.76 -71.09,37.93 C-71.03,39.66 -66.91,47.58 -60.46,56.87 C-56.89,61.92 -53.01,67.05 -51.21,69.00 C-48.33,72.08 -43.59,75.31 -40.10,76.88 C-34.31,79.47 -22.37,83.92 -12.45,86.33 C-6.23,87.75 -1.47,88.73 0.99,88.93 C8.41,89.45 24.22,88.27 26.59,87.88 C32.61,86.87 44.97,81.59 46.12,80.80 C46.29,80.69 46.65,80.40 47.20,79.95" fill="none" stroke="rgb(33, 228, 63)" stroke-width="3.18" stroke-opacity="1.00" stroke-linejoin="round"/>
<path d="M-62.91,28.67 C-62.21,26.37 -62.56,20.32 -63.38,15.46 C-63.65,13.95 -64.45,12.68 -65.06,12.45 C-65.68,12.25 -66.96,12.69 -67.78,13.57 C-68.97,14.98 -70.21,20.43 -69.94,21.60 C-70.18,21.62 -76.22,18.29 -77.51,18.22 C-78.66,18.22 -80.27,19.17 -80.71,20.06 C-81.08,20.90 -80.37,23.01 -79.69,23.30 C-80.13,22.69 -82.88,21.78 -83.79,22.03 C-84.68,22.31 -85.25,23.90 -84.43,25.54 C-84.21,25.98 -83.48,27.07 -83.14,27.73 C-84.05,28.93 -84.59,30.36 -84.07,31.70 C-82.82,34.53 -75.64,37.59 -75.56,37.63 C-75.37,37.69 -75.17,37.74 -74.95,37.77" fill="none" stroke="rgb(33, 228, 63)" stroke-width="3.18" stroke-opacity="1.00" stroke-linejoin="round"/>
<path d="M62.10,214.58 C62.10,214.58 61.76,214.58 61.76,214.58 C61.88,221.18 60.59,254.88 60.44,268.20 C60.41,300.90 60.10,354.64 60.40,360.49 C61.66,383.66 62.20,436.94 61.89,444.48 C61.81,446.37 61.54,452.28 60.64,452.77 C59.20,453.48 49.32,455.86 47.81,456.13 C43.47,456.83 39.27,458.25 35.85,460.48 C35.85,460.48 37.20,459.81 37.20,459.81" fill="none" stroke="rgb(33, 228, 63)" stroke-width="3.18" stroke-opacity="1.00" stroke-linejoin="round"/>
<path d="M109.84,459.12 C109.84,459.12 109.14,459.12 109.14,459.12 C108.17,459.16 103.65,457.06 99.78,456.03 C96.63,455.04 90.96,453.37 88.64,453.52 C87.01,453.65 84.18,454.07 83.44,454.25 C83.44,454.25 84.24,454.28 84.24,454.28" fill="none" stroke="rgb(33, 228, 63)" stroke-width="3.18" stroke-opacity="1.00" stroke-linejoin="round"/>
<path d="M86.66,455.66 C86.66,455.66 86.00,455.97 86.00,455.97 C85.60,456.78 85.62,460.38 85.62,461.46 C85.62,461.46 85.62,461.48 85.62,461.48 C85.62,461.48 85.62,460.16 85.62,460.16" fill="none" stroke="rgb(33, 228, 63)" stroke-width="3.18" stroke-opacity="1.00" stroke-linejoin="round"/>
<path d="M85.28,452.89 C85.34,452.80 84.20,444.62 84.25,434.05 C84.21,422.62 83.82,413.91 84.29,407.72 C84.78,401.49 88.38,386.67 90.67,381.42 C94.94,371.81 96.33,366.81 98.22,356.18 C100.55,342.30 100.15,322.04 99.87,315.46 C99.84,309.03 101.56,302.99 106.12,288.90 C108.99,279.63 113.03,252.94 114.96,240.12 C116.86,228.25 117.02,226.86 117.13,226.38 C117.65,225.72 126.11,241.08 127.50,244.73 C130.07,251.49 131.23,259.72 132.39,272.90 C132.81,278.21 133.06,297.64 133.12,299.49 C133.28,304.05 134.36,310.72 134.80,312.61 C135.58,315.83 137.08,319.75 138.49,320.84 C139.86,321.85 144.72,323.45 147.23,323.85 C150.69,324.37 161.88,324.05 169.20,322.61 C170.05,322.46 170.90,322.30 171.75,322.15" fill="none" stroke="rgb(33, 228, 63)" stroke-width="3.18" stroke-opacity="1.00" stroke-linejoin="round"/>
<path d="M167.25,218.04 C167.25,218.04 167.25,217.69 167.25,217.69 C168.24,219.76 170.34,235.11 171.46,241.66 C172.30,247.99 173.13,264.65 173.39,273.15 C173.44,280.59 173.50,298.02 173.60,298.30 C174.23,299.49 189.77,295.49 195.60,294.11 C198.34,293.43 215.68,289.11 219.79,287.78 C231.61,283.87 255.49,271.06 256.25,270.69 C259.33,269.23 265.20,267.62 266.85,268.03 C268.31,268.42 270.43,271.44 271.16,273.58 C272.06,276.29 272.65,280.67 272.64,284.42 C272.59,287.88 271.37,294.05 270.28,297.10 C267.51,304.78 259.84,317.98 257.66,320.44 C256.91,321.26 255.46,322.02 254.98,321.94 C253.79,321.61 252.42,318.76 252.07,315.74 C251.66,312.08 251.31,308.16 251.00,307.39 C250.51,306.30 248.21,306.00 245.18,306.63 C233.54,309.37 201.22,316.70 193.98,317.73 C187.88,318.59 176.81,319.46 176.60,319.44 C176.29,319.41 175.37,319.27 173.82,319.03" fill="none" stroke="rgb(33, 228, 63)" stroke-width="3.18" stroke-opacity="1.00" stroke-linejoin="round"/>
<path d="M75.94,231.18 C75.94,231.18 75.94,230.83 75.94,230.83 C75.35,232.12 72.66,236.74 71.12,239.36 C68.14,244.42 65.15,248.53 65.02,249.51 C65.74,250.58 69.36,252.36 70.29,252.11 C74.29,250.82 84.18,232.92 84.15,232.81 C83.24,232.52 81.47,232.19 78.80,231.84 C77.97,231.73 77.13,231.63 76.30,231.53" fill="none" stroke="rgb(33, 228, 63)" stroke-width="3.18" stroke-opacity="1.00" stroke-linejoin="round"/>
<path d="M143.39,227.72 C143.39,227.72 143.04,227.72 143.04,227.72 C143.13,227.96 148.32,232.36 149.92,234.25 C150.38,234.80 156.90,243.65 157.71,244.68 C159.93,247.51 160.77,247.68 161.02,247.63 C161.02,247.63 163.33,238.37 163.33,238.37 C161.80,236.61 148.13,226.22 147.76,226.06 C147.27,225.87 145.98,225.98 144.98,226.28 C144.53,226.42 141.65,227.38 140.62,227.72" fill="none" stroke="rgb(33, 228, 63)" stroke-width="3.18" stroke-opacity="1.00" stroke-linejoin="round"/>
</g>
</svg>
