<?xml version="1.0" encoding="UTF-8" standalone="no"?>
<!DOCTYPE svg PUBLIC "-//W3C//DTD SVG 1.1//EN" "http://www.w3.org/Graphics/SVG/1.1/DTD/svg11.dtd">
<svg width="64.20" height="90.84" viewBox="0.00 0.00 535.00 757.00" xmlns="http://www.w3.org/2000/svg" xmlns:xlink="http://www.w3.org/1999/xlink">
<g stroke-linecap="round" transform="translate(44.00, 155.00)" id="191-구름-1">
<path d="M62.35,-115.23 C62.04,-115.48 61.93,-116.14 62.00,-117.60 C62.05,-119.29 61.16,-121.20 59.40,-123.13 C58.77,-123.80 53.27,-128.10 51.12,-128.69 C49.50,-129.11 43.10,-129.26 40.12,-129.10 C36.74,-128.90 32.81,-127.91 29.98,-126.51 C27.14,-125.07 23.70,-122.80 22.07,-121.33 C18.26,-117.82 14.82,-111.10 14.37,-109.04 C14.41,-109.79 7.93,-113.16 4.15,-113.12 C0.92,-113.04 -5.06,-111.73 -6.99,-110.99 C-8.28,-110.48 -13.76,-106.96 -17.41,-105.36 C-20.84,-103.87 -24.77,-101.71 -25.62,-100.21 C-26.60,-98.39 -26.56,-91.27 -26.13,-89.04 C-25.54,-86.36 -22.75,-82.32 -20.57,-80.77 C-18.60,-79.46 -10.24,-77.41 -7.51,-76.59 C-3.63,-75.42 3.11,-74.36 6.48,-73.85 C10.47,-73.33 19.28,-73.19 21.39,-73.03 C23.49,-72.86 31.14,-71.76 34.17,-71.89 C34.44,-71.90 52.68,-73.25 57.61,-74.34 C61.91,-75.30 69.04,-75.59 75.48,-75.49 C78.14,-75.45 85.68,-77.28 86.39,-77.43 C91.10,-78.45 95.33,-80.14 96.61,-81.16 C98.00,-82.33 100.04,-86.54 100.47,-89.62 C101.37,-96.42 100.82,-108.17 99.79,-111.46 C99.27,-113.02 97.60,-114.47 95.56,-115.23 C94.91,-115.47 91.70,-116.45 90.02,-116.98" fill="none" stroke="rgb(131, 143, 221)" stroke-width="3.18" stroke-opacity="1.00" stroke-linejoin="round"/>
<path d="M90.02,-116.98 C89.14,-117.15 88.53,-117.27 88.18,-117.33 C84.00,-118.03 70.51,-118.04 67.52,-117.35 C64.79,-116.68 63.62,-116.32 63.05,-115.78 C62.71,-115.46 62.13,-114.93 61.30,-114.18" fill="none" stroke="rgb(131, 143, 221)" stroke-width="3.18" stroke-opacity="1.00" stroke-linejoin="round"/>
</g>
</svg>
