<?xml version="1.0" encoding="UTF-8" standalone="no"?>
<!DOCTYPE svg PUBLIC "-//W3C//DTD SVG 1.1//EN" "http://www.w3.org/Graphics/SVG/1.1/DTD/svg11.dtd">
<svg width="64.20" height="90.84" viewBox="0.00 0.00 535.00 757.00" xmlns="http://www.w3.org/2000/svg" xmlns:xlink="http://www.w3.org/1999/xlink">
<g stroke-linecap="round" transform="translate(44.00, 155.00)" id="191-물웅덩이">
<path d="M155.24,548.69 C155.24,548.69 154.98,547.47 154.98,547.47 C153.14,545.97 144.89,543.36 141.88,544.06 C140.36,544.46 139.55,546.47 140.06,547.24 C141.24,548.81 147.60,549.91 153.37,550.00 C154.22,550.00 155.07,550.00 155.92,550.00" fill="none" stroke="rgb(54, 54, 145)" stroke-width="3.18" stroke-opacity="1.00" stroke-linejoin="round"/>
<path d="M143.66,556.99 C143.00,556.64 142.51,556.34 142.19,556.11 C141.44,555.58 139.05,553.63 138.32,553.26 C136.64,552.43 132.89,552.44 132.10,552.85 C131.38,553.26 130.16,555.38 129.94,556.43 C129.73,557.55 130.65,558.77 132.02,559.15 C133.51,559.50 138.74,559.22 141.81,558.66 C142.14,558.60 142.69,558.48 143.44,558.30" fill="none" stroke="rgb(54, 54, 145)" stroke-width="3.18" stroke-opacity="1.00" stroke-linejoin="round"/>
<path d="M136.89,566.81 C135.96,565.91 132.53,565.63 129.77,567.01 C127.85,567.99 127.14,569.47 127.29,570.07 C127.58,571.01 129.64,572.22 131.23,572.10 C132.77,571.95 136.55,570.22 137.59,569.31 C138.11,568.86 140.03,566.95 140.18,566.81 C140.67,566.36 141.15,565.92 141.64,565.47" fill="none" stroke="rgb(54, 54, 145)" stroke-width="3.18" stroke-opacity="1.00" stroke-linejoin="round"/>
<path d="M203.50,558.95 C203.58,558.70 204.42,557.79 210.02,550.15 C210.54,549.45 216.18,542.47 217.10,541.67 C218.34,540.62 221.05,539.64 221.90,540.00 C222.77,540.42 223.19,542.98 222.57,544.63 C221.91,546.31 219.10,550.05 216.89,552.08 C214.74,554.01 207.73,558.08 206.82,558.57 C206.48,558.75 206.12,558.99 205.73,559.30" fill="none" stroke="rgb(54, 54, 145)" stroke-width="3.18" stroke-opacity="1.00" stroke-linejoin="round"/>
<path d="M228.40,554.80 C228.14,554.49 227.92,554.18 227.86,553.94 C227.68,553.28 227.89,550.82 228.54,549.28 C229.41,547.27 230.44,546.00 231.43,544.99 C232.35,545.62 232.65,545.99 232.75,546.68 C233.19,550.84 228.56,556.64 227.95,557.38 C227.70,557.68 227.40,558.09 227.03,558.62" fill="none" stroke="rgb(54, 54, 145)" stroke-width="3.18" stroke-opacity="1.00" stroke-linejoin="round"/>
<path d="M234.30,568.78 C234.30,568.70 234.30,568.63 234.30,568.56 C234.29,568.27 234.29,568.09 234.30,568.02 C234.36,567.59 234.79,566.78 235.32,566.18 C236.49,564.88 239.31,563.35 240.72,563.22 C242.08,563.13 243.82,564.36 244.35,565.39 C244.79,566.28 244.87,567.78 244.45,568.66 C243.19,570.80 234.75,570.42 234.00,570.25 C233.70,570.17 233.22,569.99 232.55,569.70" fill="none" stroke="rgb(54, 54, 145)" stroke-width="3.18" stroke-opacity="1.00" stroke-linejoin="round"/>
</g>
</svg>
