<?xml version="1.0" encoding="UTF-8" standalone="no"?>
<!DOCTYPE svg PUBLIC "-//W3C//DTD SVG 1.1//EN" "http://www.w3.org/Graphics/SVG/1.1/DTD/svg11.dtd">
<svg width="64.20" height="90.84" viewBox="0.00 0.00 535.00 757.00" xmlns="http://www.w3.org/2000/svg" xmlns:xlink="http://www.w3.org/1999/xlink">
<g stroke-linecap="round" transform="translate(44.00, 155.00)" id="192-물웅덩이">
<path d="M266.03,326.20 C266.03,326.20 266.38,325.72 266.38,325.72 C266.38,325.72 266.29,325.45 266.29,325.45 C265.63,325.07 262.85,325.06 260.30,325.58 C257.36,326.23 250.93,330.19 250.48,330.42 C249.27,331.01 243.67,331.70 242.84,332.13 C241.49,332.85 238.80,335.08 237.36,336.84 C235.70,338.91 234.48,341.81 234.56,342.81 C234.68,343.75 235.56,345.47 236.35,346.18 C237.16,346.89 239.58,347.76 241.99,347.90 C242.87,347.95 247.26,347.59 247.77,348.27 C247.92,348.52 249.67,353.12 250.45,354.05 C251.13,354.81 252.68,355.72 253.75,355.93 C254.95,356.15 258.17,356.01 259.88,355.37 C260.81,355.02 265.67,352.09 267.44,351.83 C269.16,351.62 272.64,352.31 274.70,352.76 C275.95,352.96 278.29,352.53 280.53,351.90 C282.53,351.37 288.11,351.24 289.07,351.12 C291.12,350.85 296.64,348.59 297.23,348.37 C298.81,347.80 303.70,346.88 304.76,346.40 C306.22,345.69 307.88,343.05 307.95,341.76 C307.98,340.70 305.24,336.76 304.61,335.94 C302.80,333.60 301.67,330.75 301.23,330.20 C300.01,328.74 289.91,326.29 286.50,325.46 C285.30,325.19 281.66,325.58 279.80,325.80" fill="none" stroke="rgb(50, 63, 91)" stroke-width="2.39" stroke-opacity="1.00" stroke-linejoin="round"/>
<path d="M244.34,335.74 C244.34,335.74 243.40,335.61 243.40,335.61 C242.81,335.97 242.27,337.96 242.48,338.90 C242.75,339.92 244.91,340.59 246.26,340.34 C246.92,340.21 248.75,339.29 248.84,339.31 C248.96,339.38 249.78,341.57 250.56,342.00 C251.42,342.41 253.90,341.68 255.00,340.54 C257.06,338.31 256.41,335.57 256.07,334.97 C255.94,334.74 255.65,334.35 255.20,333.79" fill="none" stroke="rgb(50, 63, 91)" stroke-width="2.39" stroke-opacity="1.00" stroke-linejoin="round"/>
<path d="M296.16,332.76 C296.21,331.85 295.88,331.18 295.28,331.14 C294.51,331.11 291.98,332.32 291.58,332.86 C290.92,333.84 292.71,335.56 294.93,335.95 C295.53,337.69 296.52,338.20 297.42,338.25 C298.15,338.28 299.30,337.99 299.84,337.85" fill="none" stroke="rgb(50, 63, 91)" stroke-width="2.39" stroke-opacity="1.00" stroke-linejoin="round"/>
</g>
</svg>
