<?xml version="1.0" encoding="UTF-8" standalone="no"?>
<!DOCTYPE svg PUBLIC "-//W3C//DTD SVG 1.1//EN" "http://www.w3.org/Graphics/SVG/1.1/DTD/svg11.dtd">
<svg width="64.20" height="90.84" viewBox="0.00 0.00 535.00 757.00" xmlns="http://www.w3.org/2000/svg" xmlns:xlink="http://www.w3.org/1999/xlink">
<g stroke-linecap="round" transform="translate(44.00, 155.00)" id="192-구름">
<path d="M466.98,143.99 C467.03,143.99 468.63,144.02 469.07,144.11 C469.66,144.23 472.69,144.79 474.54,144.48 C476.01,144.22 478.61,143.12 481.23,141.80 C483.55,140.58 485.00,139.49 485.75,138.30 C486.93,136.32 488.01,128.55 486.94,127.03 C485.25,124.82 479.69,124.40 477.20,125.01 C477.16,124.89 478.24,121.78 477.43,120.53 C476.48,119.20 471.23,116.87 468.26,116.48 C458.37,115.28 444.11,120.93 442.13,121.47 C447.93,120.97 450.67,117.88 450.52,117.26 C449.79,115.58 445.39,113.12 442.75,112.35 C440.16,111.63 431.65,110.10 430.19,109.94 C426.48,109.55 421.71,110.22 419.31,111.12 C414.09,113.14 408.02,118.07 408.27,118.98 C409.18,120.52 413.52,119.88 415.34,118.81 C415.45,116.80 415.35,115.49 414.81,114.68 C413.35,112.55 409.76,110.50 404.15,108.00 C401.19,106.70 384.03,104.56 377.57,103.89 C371.50,103.37 359.14,103.05 352.42,103.30 C348.95,103.47 343.40,105.40 343.30,106.33 C343.30,106.33 346.26,106.68 346.26,106.68 C346.48,104.91 346.10,103.85 344.61,102.98 C340.39,100.55 331.01,99.27 319.81,98.53 C317.79,98.41 314.89,98.34 312.42,98.36 C310.60,98.40 309.20,99.19 308.45,100.48 C308.27,100.81 307.98,101.48 307.60,102.51 C308.43,102.70 308.93,102.59 309.09,102.19 C309.26,101.78 309.33,100.50 309.31,98.35 C298.19,96.15 291.09,95.26 284.47,94.09 C278.98,93.15 265.42,93.04 255.41,92.22 C250.84,91.83 247.38,91.89 246.26,93.14 C245.98,93.47 245.27,94.39 244.13,95.91 C244.53,95.75 245.46,94.59 245.55,93.65 C245.64,92.39 244.24,89.39 243.26,88.89 C241.96,88.28 229.75,88.32 220.86,88.02 C212.07,87.60 199.57,86.58 197.28,87.74 C196.93,87.93 194.48,89.72 193.13,90.65 C193.13,90.91 198.01,87.89 198.59,87.25 C199.60,86.11 200.33,83.97 200.09,83.23 C199.33,81.45 196.26,79.93 192.87,79.55 C190.58,79.32 172.00,80.58 169.57,81.21 C168.20,81.59 162.52,85.07 159.59,86.91 C156.26,89.06 148.23,96.64 147.03,97.72 C149.60,95.68 150.82,94.61 150.88,94.03 C150.94,93.18 150.47,91.23 150.00,90.91 C148.90,90.22 141.24,89.48 138.19,89.49 C133.78,89.54 130.06,89.99 125.09,91.06 C120.49,92.10 106.45,99.24 105.79,99.84 C105.12,100.44 104.13,102.36 103.57,103.69 C103.57,103.69 104.42,99.40 104.42,99.40 C103.45,98.61 99.41,97.67 96.20,98.11 C91.49,98.80 71.35,105.56 68.48,106.91 C67.43,107.41 61.53,111.03 58.58,113.76 C58.58,113.76 58.44,108.25 58.44,108.25 C57.88,107.49 52.96,107.51 50.50,107.89 C47.80,108.31 43.17,110.05 39.35,111.86 C35.90,113.48 24.60,123.68 21.83,126.21 C21.83,126.21 25.36,119.13 25.36,119.13 C24.42,118.16 23.36,117.47 22.12,117.23 C19.30,116.75 13.34,118.79 11.11,120.72 C9.78,121.91 8.07,124.21 7.31,125.40 C6.86,124.35 5.23,120.63 4.75,119.81 C3.76,118.17 1.75,117.52 -0.43,117.81 C-1.83,118.06 -18.78,125.40 -20.84,126.87 C-21.60,127.03 -22.78,126.63 -24.65,125.44 C-26.77,124.13 -28.70,124.06 -30.21,125.22 C-31.19,126.04 -31.91,130.51 -32.17,135.70 C-35.63,135.25 -36.46,135.17 -36.92,135.56 C-38.31,136.74 -39.42,138.14 -39.97,139.27 C-39.97,139.27 -39.39,140.72 -39.39,140.72" fill="none" stroke="rgb(124, 154, 213)" stroke-width="2.39" stroke-opacity="1.00" stroke-linejoin="round"/>
<path d="M465.52,141.91 C466.16,142.18 474.25,145.29 476.76,146.95 C479.00,148.49 481.42,151.84 481.64,153.76 C481.83,155.94 481.41,159.47 480.50,160.71 C479.59,161.91 476.73,163.73 475.37,164.14 C470.40,165.49 461.93,164.01 459.10,163.14 C460.12,163.53 466.69,166.84 468.94,168.35 C471.61,170.18 473.59,173.08 473.45,174.28 C473.24,175.69 472.64,177.58 472.15,178.13 C470.93,179.39 466.10,180.07 462.49,179.55 C459.13,179.03 452.83,176.82 449.90,175.05 C447.87,173.80 444.35,171.21 444.22,171.25 C441.11,172.24 435.11,173.41 431.35,173.54 C427.90,173.63 420.84,172.88 419.07,172.29 C416.94,171.53 413.59,168.31 413.01,166.53 C412.43,164.71 412.22,162.65 412.44,162.00 C408.69,162.57 394.96,166.89 391.07,167.70 C386.66,168.59 374.41,168.80 370.47,167.79 C368.10,167.15 363.77,164.91 361.83,163.19 C359.84,161.39 356.59,156.80 355.18,153.96 C353.85,151.25 352.88,148.07 353.17,147.84 C352.20,149.33 349.83,152.37 347.39,154.10 C343.74,156.65 329.18,161.02 323.66,161.64 C320.71,161.95 314.51,162.06 311.88,161.84 C308.05,161.48 299.59,158.13 296.54,156.91 C290.68,160.04 276.63,167.43 274.04,168.21 C270.52,169.22 266.28,169.96 263.19,169.98 C260.32,169.97 253.82,169.07 252.64,168.57 C249.66,167.24 246.20,162.38 246.19,162.65 C244.47,165.15 242.42,167.24 240.19,168.25 C235.90,170.12 226.76,171.72 219.17,171.91 C215.65,171.97 210.93,170.55 208.22,168.82 C203.80,165.91 199.48,160.41 198.91,158.19 C198.91,158.19 197.62,157.70 197.62,157.70 C194.29,160.60 179.71,165.85 174.30,167.62 C171.07,168.60 164.76,169.41 161.63,169.14 C158.37,168.82 154.25,167.71 150.24,166.10 C147.04,164.78 143.26,161.14 141.46,157.67 C141.22,157.19 140.88,156.55 140.46,155.74 C138.46,158.17 135.40,160.95 132.26,162.71 C130.81,163.52 126.05,165.23 123.84,165.65 C121.66,166.05 116.80,166.08 114.67,165.71 C112.69,165.35 107.97,163.70 106.17,162.76 C101.06,159.99 99.34,156.81 99.40,156.74 C96.55,158.61 92.05,161.64 91.94,161.70 C88.94,163.19 82.89,164.72 79.43,165.15 C75.75,165.60 68.09,166.08 65.30,165.99 C62.30,165.87 56.31,164.67 53.59,163.71 C51.45,162.94 46.91,160.54 45.25,158.08 C44.60,157.10 43.91,155.15 43.57,153.84 C43.58,153.84 39.28,154.92 37.08,154.99 C34.50,155.06 28.07,153.89 25.50,152.98 C22.88,152.00 21.09,150.52 18.95,148.51 C18.54,152.75 18.13,155.73 17.37,156.60 C16.13,157.94 13.50,159.20 11.00,159.58 C6.59,160.18 -1.48,157.76 -1.78,157.88 C-3.70,160.05 -7.17,162.89 -9.06,163.63 C-10.14,164.03 -13.47,164.56 -14.60,164.48 C-16.46,164.30 -21.63,161.95 -24.81,160.36 C-26.41,161.85 -31.36,166.08 -34.74,166.33 C-36.24,166.43 -39.05,165.92 -40.18,165.55 C-40.18,165.55 -40.28,164.08 -40.28,164.08" fill="none" stroke="rgb(124, 154, 213)" stroke-width="2.39" stroke-opacity="1.00" stroke-linejoin="round"/>
</g>
</svg>
