<?xml version="1.0" encoding="UTF-8" standalone="no"?>
<!DOCTYPE svg PUBLIC "-//W3C//DTD SVG 1.1//EN" "http://www.w3.org/Graphics/SVG/1.1/DTD/svg11.dtd">
<svg width="64.20" height="90.84" viewBox="0.00 0.00 535.00 757.00" xmlns="http://www.w3.org/2000/svg" xmlns:xlink="http://www.w3.org/1999/xlink">
<g stroke-linecap="round" transform="translate(156.00, 267.00)" id="193-사람">
<path d="M-19.39,250.25 C-20.34,249.40 -24.25,241.31 -26.03,234.78 C-27.22,230.34 -28.68,224.12 -29.14,220.83 C-29.47,218.42 -32.45,187.46 -31.78,183.24 C-31.22,180.01 -28.07,175.54 -25.01,173.30 C-22.08,171.19 -15.78,168.23 -12.50,167.72 C-11.17,167.53 -3.76,166.94 0.53,166.76 C3.67,166.64 9.46,167.21 12.71,168.29 C18.99,170.45 28.83,176.22 32.74,179.66 C34.60,181.34 36.24,184.54 36.49,186.97 C36.89,191.56 34.61,206.89 32.68,212.39 C30.70,217.96 17.81,245.13 16.94,246.35 C15.64,248.12 11.78,251.60 9.75,252.91 C8.18,253.91 3.59,255.58 1.70,256.08 C-2.00,257.02 -7.26,256.46 -9.64,255.41 C-11.88,254.38 -16.34,250.47 -17.17,249.52 C-17.39,249.27 -18.28,247.12 -18.83,245.81" fill="none" stroke="rgb(33, 228, 63)" stroke-width="3.12" stroke-opacity="1.00" stroke-linejoin="round"/>
<path d="M-7.18,196.41 C-7.52,196.45 -8.94,196.18 -9.51,196.13 C-12.17,195.92 -19.58,202.03 -19.79,203.17 C-19.33,204.02 -16.42,204.80 -12.19,204.31 C-8.19,203.82 -4.06,202.57 -2.90,201.48 C-3.29,199.65 -3.94,198.69 -5.43,198.17 C-8.12,197.25 -11.24,197.69 -11.86,198.52 C-12.36,199.24 -12.49,200.34 -12.32,201.81 C-12.32,201.81 -11.09,202.41 -11.09,202.41" fill="none" stroke="rgb(33, 228, 63)" stroke-width="3.12" stroke-opacity="1.00" stroke-linejoin="round"/>
<path d="M17.24,195.02 C16.49,194.78 15.01,194.67 13.99,194.85 C10.19,195.62 8.39,200.71 8.46,201.01 C8.72,201.82 13.35,202.75 16.70,202.42 C18.07,202.27 20.23,201.49 21.01,200.88 C21.75,200.27 22.32,199.00 22.41,198.04 C22.43,197.09 19.23,195.39 17.49,195.50 C15.95,195.64 13.66,196.76 13.00,197.63 C12.43,198.44 12.07,200.45 12.45,201.15 C12.86,201.81 14.52,202.20 15.49,202.23 C15.94,202.25 17.02,202.24 18.72,202.22" fill="none" stroke="rgb(33, 228, 63)" stroke-width="3.12" stroke-opacity="1.00" stroke-linejoin="round"/>
<path d="M-2.46,211.40 C-2.78,214.79 -2.76,220.98 -2.52,222.56 C-2.14,224.91 -0.89,226.37 -0.37,226.50 C1.16,226.23 3.61,223.24 4.70,220.69 C5.26,219.37 6.29,216.57 6.24,216.62 C6.24,216.62 5.50,216.60 5.50,216.60" fill="none" stroke="rgb(33, 228, 63)" stroke-width="3.12" stroke-opacity="1.00" stroke-linejoin="round"/>
<path d="M-10.51,234.43 C-10.52,236.15 -9.52,239.81 -8.58,242.10 C-7.61,244.37 -5.18,246.25 -3.28,246.35 C-1.25,246.40 1.84,245.63 4.54,244.38 C7.09,243.17 10.33,240.59 11.59,238.90 C12.20,238.08 12.78,236.83 13.28,235.47" fill="none" stroke="rgb(33, 228, 63)" stroke-width="3.12" stroke-opacity="1.00" stroke-linejoin="round"/>
<path d="M-31.88,187.25 C-31.88,187.25 -32.15,187.17 -32.15,187.17 C-32.21,186.74 -31.08,184.87 -29.80,183.75 C-28.82,182.93 -24.15,181.66 -23.22,181.88 C-22.37,182.18 -22.21,185.20 -22.93,187.45 C-24.19,191.22 -42.68,229.22 -45.36,233.61 C-48.04,238.00 -49.53,239.99 -50.96,240.20 C-51.63,240.26 -52.96,239.24 -53.38,238.11 C-53.82,236.86 -54.01,232.73 -53.51,230.12 C-52.47,224.89 -45.88,212.80 -40.32,204.49 C-36.29,198.46 -29.83,184.58 -29.37,183.46 C-29.26,183.18 -29.08,182.68 -28.82,181.98" fill="none" stroke="rgb(33, 228, 63)" stroke-width="3.12" stroke-opacity="1.00" stroke-linejoin="round"/>
<path d="M-31.88,168.66 C-32.98,169.41 -34.75,170.96 -35.83,172.31 C-40.23,177.83 -52.65,205.26 -53.58,208.27 C-54.74,212.13 -54.46,215.54 -54.01,215.90 C-53.49,216.13 -51.79,215.65 -49.10,212.79 C-46.93,210.44 -42.02,200.73 -36.75,189.50 C-33.17,181.72 -31.09,175.40 -30.49,173.25 C-30.49,173.25 -30.73,174.31 -30.73,174.31" fill="none" stroke="rgb(33, 228, 63)" stroke-width="3.12" stroke-opacity="1.00" stroke-linejoin="round"/>
<path d="M-30.21,182.53 C-30.21,182.53 -30.91,183.09 -30.91,183.09 C-31.79,183.16 -32.93,182.79 -33.88,182.03 C-34.75,181.32 -35.93,178.13 -36.22,175.34 C-36.70,170.55 -35.48,161.80 -33.51,157.58 C-32.78,156.06 -29.92,151.68 -27.84,149.66 C-25.91,147.81 -20.33,144.59 -18.53,144.11 C-17.68,143.91 -16.05,144.52 -15.20,146.33 C-14.22,148.53 -13.52,155.94 -13.61,160.09 C-13.70,163.47 -14.96,171.32 -15.06,171.93 C-15.10,172.18 -15.16,172.57 -15.23,173.10" fill="none" stroke="rgb(33, 228, 63)" stroke-width="3.12" stroke-opacity="1.00" stroke-linejoin="round"/>
<path d="M-27.71,171.16 C-27.63,167.74 -25.79,164.40 -24.96,163.39 C-22.96,161.04 -19.19,159.21 -17.31,159.35 C-15.68,159.52 -13.67,161.30 -12.46,163.66 C-12.60,163.25 -11.42,158.51 -10.44,156.46 C-8.79,153.10 -5.28,149.21 -3.82,148.31 C-2.10,147.29 0.73,146.36 2.06,146.34 C3.18,146.36 4.37,148.40 4.20,149.95 C2.48,164.28 -5.18,175.91 -6.55,177.01 C-6.55,177.01 -9.12,176.98 -9.12,176.98" fill="none" stroke="rgb(33, 228, 63)" stroke-width="3.12" stroke-opacity="1.00" stroke-linejoin="round"/>
<path d="M-2.74,168.94 C-2.95,168.80 -3.13,166.75 -2.38,165.09 C-1.69,163.59 1.90,158.60 3.19,157.05 C4.92,155.03 8.97,151.73 10.60,151.30 C12.03,150.99 13.83,151.07 14.54,151.62 C15.82,152.69 17.17,158.40 16.96,162.62 C16.89,163.92 14.82,181.43 14.15,183.44 C14.15,183.44 10.58,183.92 10.58,183.92" fill="none" stroke="rgb(33, 228, 63)" stroke-width="3.12" stroke-opacity="1.00" stroke-linejoin="round"/>
<path d="M16.69,175.60 C16.66,175.32 16.79,174.78 17.10,174.28 C19.25,170.90 26.44,162.12 30.86,158.40 C34.05,155.75 39.15,153.48 40.45,153.61 C41.93,153.83 44.67,157.81 45.48,160.89 C46.30,164.23 46.20,170.31 45.69,173.17 C45.21,175.63 43.86,179.66 43.23,181.19 C42.90,182.01 42.56,182.83 42.22,183.64" fill="none" stroke="rgb(33, 228, 63)" stroke-width="3.12" stroke-opacity="1.00" stroke-linejoin="round"/>
<path d="M37.78,191.97 C37.49,191.64 37.60,188.78 38.82,186.76 C40.45,184.09 43.29,180.09 45.02,178.38 C48.66,174.84 53.21,173.19 54.05,173.38 C55.75,174.15 53.05,185.97 50.69,193.30 C48.04,201.53 42.53,219.15 42.08,221.20 C40.57,228.59 38.59,237.15 37.88,236.68 C36.34,235.98 36.41,227.08 37.19,218.11 C37.70,212.36 38.16,204.23 38.22,203.64 C38.30,202.77 38.75,199.81 38.89,198.91" fill="none" stroke="rgb(33, 228, 63)" stroke-width="3.12" stroke-opacity="1.00" stroke-linejoin="round"/>
<path d="M52.76,186.97 C52.79,186.32 52.91,185.87 53.25,185.54 C54.23,184.63 56.71,183.74 57.58,184.24 C58.41,184.78 59.42,187.90 59.29,190.37 C59.05,194.39 53.89,211.13 51.37,219.06 C48.46,228.06 44.76,242.34 44.57,242.99 C43.54,246.40 41.46,248.92 40.50,249.21 C39.57,249.45 37.81,248.70 37.06,247.53 C35.29,244.49 36.84,235.80 37.08,234.48 C37.28,233.45 37.47,232.41 37.67,231.38" fill="none" stroke="rgb(33, 228, 63)" stroke-width="3.12" stroke-opacity="1.00" stroke-linejoin="round"/>
<path d="M-14.20,254.99 C-14.21,254.99 -14.36,257.24 -15.95,261.27 C-17.60,265.37 -19.86,268.82 -22.53,271.42 C-25.85,274.58 -30.63,278.27 -33.84,279.83 C-40.95,283.21 -49.93,286.21 -57.31,287.39 C-62.58,288.20 -67.67,288.28 -68.30,288.28 C-72.90,287.25 -86.12,286.41 -89.43,286.48 C-91.80,286.55 -95.82,287.26 -97.47,287.89 C-100.98,289.27 -103.23,291.34 -104.10,292.77 C-105.05,294.34 -106.13,297.95 -106.08,299.36 C-105.99,300.83 -104.42,303.50 -103.01,304.47 C-101.54,305.43 -97.18,306.78 -94.03,307.04 C-88.59,307.45 -73.12,305.78 -68.01,305.64 C-59.74,305.41 -39.81,301.28 -35.32,301.28 C-35.32,301.28 -36.47,301.31 -36.47,301.31 C-37.77,302.13 -39.86,316.92 -40.90,324.48 C-42.32,335.40 -43.28,347.79 -43.27,353.49 C-43.23,361.06 -41.33,372.55 -38.86,382.99 C-38.08,386.28 -37.59,391.21 -37.85,394.22 C-38.16,397.33 -39.48,401.88 -40.77,404.23 C-42.31,406.79 -45.31,411.94 -47.14,416.15 C-49.22,421.02 -49.65,431.79 -49.56,443.04 C-49.48,446.56 -48.64,451.86 -47.63,454.67 C-47.51,454.99 -47.38,455.27 -47.23,455.52" fill="none" stroke="rgb(33, 228, 63)" stroke-width="3.12" stroke-opacity="1.00" stroke-linejoin="round"/>
<path d="M-31.63,458.64 C-31.63,458.64 -32.15,458.64 -32.15,458.64 C-30.80,456.65 -25.43,445.75 -22.56,437.05 C-20.94,432.10 -17.95,413.75 -16.41,411.26 C-16.15,410.85 -15.64,410.20 -14.88,409.32 C-14.03,409.71 -13.60,410.40 -13.35,412.16 C-12.86,415.65 -12.42,431.58 -11.87,436.44 C-11.45,440.16 -8.12,458.24 -8.11,458.35 C-8.10,458.49 -8.14,458.59 -8.22,458.64" fill="none" stroke="rgb(33, 228, 63)" stroke-width="3.12" stroke-opacity="1.00" stroke-linejoin="round"/>
<path d="M7.39,250.57 C7.39,250.57 7.13,250.57 7.13,250.57 C7.13,251.19 7.15,251.77 7.29,252.30 C9.78,261.60 12.17,273.74 13.68,277.10 C14.67,279.16 17.63,281.96 19.63,282.75 C22.06,283.67 29.71,286.32 30.26,286.53 C33.40,287.77 38.21,292.29 40.87,294.82 C44.58,298.21 47.88,300.90 50.45,301.81 C52.58,302.55 63.16,304.31 63.56,304.41 C66.11,305.03 72.22,307.85 72.98,308.41 C74.18,309.30 79.49,315.44 80.04,316.42 C81.38,318.91 82.39,324.30 82.47,324.72 C82.68,326.13 81.85,330.38 80.17,334.18 C79.32,336.05 76.96,339.07 75.25,340.55 C73.37,342.09 68.99,343.27 66.43,343.07 C64.36,342.85 60.06,341.31 57.43,339.70 C54.58,337.93 50.11,333.77 47.63,330.70 C43.32,325.33 39.31,318.34 35.94,310.50 C34.46,307.06 32.26,303.11 30.20,300.94 C28.24,298.92 23.97,295.62 22.07,294.65 C20.08,293.67 16.29,293.55 15.05,294.94 C13.75,296.51 13.15,300.75 12.66,306.93 C12.31,311.20 8.57,328.10 8.52,335.57 C8.51,339.27 9.30,345.01 10.18,348.07 C11.66,353.15 12.08,355.45 11.81,358.50 C11.68,359.86 9.09,376.42 8.15,382.01 C6.91,389.89 6.57,400.56 7.70,404.71 C9.59,411.58 10.41,418.44 10.64,428.27 C10.89,440.46 11.22,448.46 10.60,451.32 C10.50,451.88 10.40,452.23 10.28,452.39 C10.11,452.62 9.58,453.14 8.69,453.96" fill="none" stroke="rgb(33, 228, 63)" stroke-width="3.12" stroke-opacity="1.00" stroke-linejoin="round"/>
<path d="M-2.76,259.67 C-4.36,270.86 -7.04,289.83 -8.42,304.45 C-9.23,315.81 -9.40,344.79 -9.52,358.48 C-9.50,364.47 -10.73,380.94 -10.81,384.89 C-10.82,385.27 -10.82,399.25 -10.82,400.29 C-10.82,400.29 -10.56,399.34 -10.56,399.34" fill="none" stroke="rgb(33, 228, 63)" stroke-width="3.12" stroke-opacity="1.00" stroke-linejoin="round"/>
</g>
</svg>
