<?xml version="1.0" encoding="UTF-8" standalone="no"?>
<!DOCTYPE svg PUBLIC "-//W3C//DTD SVG 1.1//EN" "http://www.w3.org/Graphics/SVG/1.1/DTD/svg11.dtd">
<svg width="64.20" height="90.84" viewBox="0.00 0.00 535.00 757.00" xmlns="http://www.w3.org/2000/svg" xmlns:xlink="http://www.w3.org/1999/xlink">
<g stroke-linecap="round" transform="translate(156.00, 267.00)" id="194-비">
<path d="M59.30,-69.99 C59.02,-69.97 58.68,-70.09 58.54,-70.12 C57.87,-70.25 54.01,-68.99 52.54,-68.17 C48.97,-66.15 45.98,-63.69 44.97,-62.22 C42.95,-59.25 40.16,-53.76 39.49,-51.88 C38.74,-49.68 38.15,-45.64 38.34,-43.35 C38.53,-41.28 39.76,-38.33 40.95,-36.80 C42.21,-35.22 45.08,-32.54 46.65,-31.64 C48.14,-30.82 52.49,-29.86 56.29,-29.96 C59.47,-30.07 66.81,-31.58 70.01,-32.28 C73.41,-33.00 75.78,-34.05 76.86,-34.92 C78.12,-35.98 80.84,-39.70 81.73,-42.09 C82.55,-44.36 83.42,-49.87 82.79,-52.55 C82.34,-54.33 80.48,-58.79 79.31,-60.60 C78.11,-62.41 75.34,-65.45 73.76,-66.63 C72.08,-67.84 68.42,-69.31 65.85,-69.67 C64.47,-69.86 59.78,-70.02 59.62,-69.97 C59.52,-69.94 58.94,-69.74 57.88,-69.36" fill="none" stroke="rgb(33, 228, 63)" stroke-width="3.31" stroke-opacity="1.00" stroke-linejoin="round"/>
<path d="M44.69,-58.21 C44.69,-58.21 44.45,-58.29 44.45,-58.29 C44.37,-58.66 45.24,-60.14 46.04,-60.76 C46.81,-61.36 48.66,-61.62 49.31,-61.27 C52.35,-59.63 52.89,-59.44 54.06,-59.57 C54.42,-59.62 57.97,-61.55 58.71,-61.51 C59.04,-61.46 62.30,-59.91 63.26,-60.01 C70.26,-60.81 73.69,-61.70 73.95,-61.59 C74.16,-61.49 74.74,-61.16 75.70,-60.58" fill="none" stroke="rgb(33, 228, 63)" stroke-width="3.31" stroke-opacity="1.00" stroke-linejoin="round"/>
<path d="M47.83,-53.18 C47.83,-53.18 46.89,-53.40 46.89,-53.40 C46.56,-52.86 46.71,-51.34 47.39,-50.87 C47.99,-50.48 49.62,-50.37 50.27,-50.62 C50.88,-50.87 51.39,-51.76 51.23,-52.36 C51.03,-53.01 49.87,-54.00 49.16,-53.93 C48.40,-53.83 47.28,-52.39 47.48,-51.47 C47.74,-50.42 49.62,-49.80 50.67,-50.08 C51.55,-50.35 52.60,-51.51 52.59,-52.25 C52.50,-54.13 50.05,-53.60 49.78,-52.96 C49.78,-52.96 50.99,-52.19 50.99,-52.19 C50.80,-52.64 50.60,-52.90 50.38,-52.99 C50.16,-53.07 49.62,-53.08 48.77,-53.03" fill="none" stroke="rgb(33, 228, 63)" stroke-width="3.31" stroke-opacity="1.00" stroke-linejoin="round"/>
<path d="M72.18,-53.18 C72.18,-53.18 70.10,-53.00 70.10,-53.00 C70.10,-53.00 69.88,-50.43 69.88,-50.43 C70.75,-49.78 72.53,-49.81 73.16,-50.33 C73.67,-50.80 73.64,-51.95 73.05,-52.57 C72.38,-53.25 70.82,-53.56 70.23,-53.04 C69.64,-52.47 69.83,-50.70 70.64,-50.23 C71.34,-49.84 73.44,-50.24 74.03,-50.80 C74.64,-51.43 74.43,-53.10 73.47,-53.67 C73.06,-53.89 71.75,-54.24 71.32,-54.21 C70.91,-54.18 69.85,-53.54 68.09,-52.40" fill="none" stroke="rgb(33, 228, 63)" stroke-width="3.31" stroke-opacity="1.00" stroke-linejoin="round"/>
<path d="M59.37,-48.16 C59.37,-48.16 59.15,-48.16 59.15,-48.16 C58.91,-48.13 57.40,-44.49 57.42,-42.79 C57.45,-42.04 58.68,-41.38 59.71,-41.55 C60.68,-41.73 62.54,-42.87 62.96,-43.57 C63.74,-44.99 61.95,-47.20 61.23,-47.74 C61.23,-47.74 60.23,-47.60 60.23,-47.60" fill="none" stroke="rgb(33, 228, 63)" stroke-width="3.31" stroke-opacity="1.00" stroke-linejoin="round"/>
<path d="M59.30,-32.76 C59.30,-32.76 58.02,-32.65 58.02,-32.65 C57.24,-33.34 58.21,-36.07 60.46,-36.98 C62.32,-37.70 64.74,-36.44 64.92,-35.05 C64.98,-34.37 63.98,-32.92 62.80,-32.59 C61.74,-32.31 60.48,-32.75 60.27,-33.16 C59.58,-34.70 61.17,-35.70 61.50,-35.86 C61.95,-35.59 62.15,-35.29 62.02,-34.65 C61.98,-34.44 61.85,-33.82 61.61,-32.79" fill="none" stroke="rgb(33, 228, 63)" stroke-width="3.31" stroke-opacity="1.00" stroke-linejoin="round"/>
<path d="M44.53,-31.19 C44.14,-31.17 43.70,-31.15 43.51,-30.98 C40.30,-28.05 33.43,-24.07 26.14,-21.33 C26.09,-21.31 24.95,-20.75 24.98,-20.00 C25.11,-17.83 27.81,-8.21 27.84,-8.18 C31.16,-6.98 51.03,-17.28 52.58,-17.51 C52.58,-17.51 52.35,9.14 52.35,9.14 C52.80,9.80 67.93,11.12 71.46,10.50 C71.54,10.48 71.74,10.44 72.04,10.36 C72.04,10.36 76.05,-15.16 76.05,-15.16 C76.86,-14.69 83.89,-6.57 84.28,-6.24 C84.51,-6.05 85.15,-5.82 85.37,-5.74" fill="none" stroke="rgb(33, 228, 63)" stroke-width="3.31" stroke-opacity="1.00" stroke-linejoin="round"/>
<path d="M77.67,-33.86 C77.67,-33.86 77.60,-33.82 77.60,-33.82 C77.93,-33.67 86.22,-28.01 94.39,-23.93 C97.46,-22.40 101.38,-19.73 102.35,-19.14 C102.23,-18.89 93.17,-12.58 89.94,-9.50 C89.21,-8.80 85.50,-5.39 83.79,-4.06 C83.32,-3.70 82.59,-3.16 81.60,-2.44" fill="none" stroke="rgb(33, 228, 63)" stroke-width="3.31" stroke-opacity="1.00" stroke-linejoin="round"/>
<path d="M24.89,-18.62 C24.89,-18.62 24.85,-18.86 24.85,-18.86 C24.70,-18.96 24.28,-19.19 24.01,-19.26 C22.99,-19.51 19.39,-19.17 18.81,-18.66 C18.02,-17.92 14.00,-11.22 14.67,-10.07 C14.98,-9.60 17.95,-8.68 18.62,-8.41 C19.65,-7.97 20.67,-4.03 21.29,-3.14 C21.96,-2.23 24.06,-1.36 25.07,-1.43 C27.04,-1.62 28.04,-4.68 28.11,-5.27 C28.14,-5.57 28.22,-6.38 28.34,-7.71" fill="none" stroke="rgb(33, 228, 63)" stroke-width="3.31" stroke-opacity="1.00" stroke-linejoin="round"/>
<path d="M85.53,-2.60 C85.53,-2.60 85.49,-3.15 85.49,-3.15 C85.49,-3.15 85.37,-3.23 85.37,-3.23 C86.13,-0.61 86.96,0.75 87.55,1.19 C88.66,1.98 91.50,1.47 91.96,0.16 C92.21,-0.59 92.33,-1.67 92.36,-3.15 C93.63,-1.55 95.32,-0.23 96.01,-0.03 C96.76,0.15 98.02,-0.72 98.52,-2.46 C98.77,-3.40 99.05,-5.80 99.12,-6.01 C99.53,-5.20 100.84,-3.94 101.46,-3.83 C101.98,-3.76 103.19,-4.34 103.56,-4.86 C104.41,-6.09 103.31,-8.95 103.05,-8.96 C102.95,-8.73 104.42,-6.97 105.26,-6.47 C106.04,-6.04 107.48,-6.12 108.04,-6.67 C108.57,-7.23 108.53,-8.83 107.85,-9.75 C107.22,-10.55 105.12,-11.70 102.91,-12.72 C104.87,-13.05 107.77,-14.17 108.21,-14.89 C108.62,-15.63 108.00,-16.80 107.01,-17.38 C106.63,-17.59 105.04,-18.18 104.50,-18.23 C104.06,-18.28 102.25,-18.06 101.71,-18.00" fill="none" stroke="rgb(33, 228, 63)" stroke-width="3.31" stroke-opacity="1.00" stroke-linejoin="round"/>
<path d="M52.23,8.71 C52.23,8.71 52.07,8.71 52.07,8.71 C52.07,8.71 50.18,66.66 50.18,66.66 C49.82,66.62 46.98,67.90 46.54,68.72 C46.14,69.55 47.51,71.11 49.05,71.51 C50.01,71.73 57.58,71.33 58.49,71.08 C59.65,70.74 60.68,69.51 60.83,68.64 C61.17,66.33 60.10,46.92 60.08,45.73 C60.08,45.58 60.08,45.49 60.08,45.47" fill="none" stroke="rgb(33, 228, 63)" stroke-width="3.31" stroke-opacity="1.00" stroke-linejoin="round"/>
<path d="M72.02,10.28 C72.00,10.62 72.23,15.88 72.15,18.51 C71.66,25.54 70.99,42.11 70.67,45.06 C70.12,49.96 69.27,63.18 69.47,63.82 C69.46,63.85 72.10,65.37 72.46,66.17 C72.88,67.19 72.61,69.40 71.98,70.22 C70.60,71.91 66.00,72.24 63.51,71.29 C63.18,71.14 62.93,70.80 62.68,70.13 C62.63,69.98 62.55,69.72 62.44,69.34" fill="none" stroke="rgb(33, 228, 63)" stroke-width="3.31" stroke-opacity="1.00" stroke-linejoin="round"/>
<path d="M52.70,66.36 C52.70,66.36 52.86,66.20 52.86,66.20 C52.98,66.20 53.67,66.20 54.23,66.20 C56.57,66.20 61.85,65.40 61.97,65.26 C62.32,64.23 67.43,62.96 69.31,63.24 C69.58,63.28 69.86,63.33 70.13,63.37" fill="none" stroke="rgb(33, 228, 63)" stroke-width="3.31" stroke-opacity="1.00" stroke-linejoin="round"/>
<path d="M-85.15,-244.43 C-85.15,-244.43 -85.82,-244.43 -85.82,-244.43 C-86.88,-234.85 -87.27,-224.62 -87.25,-212.79 C-87.05,-193.98 -84.63,-143.98 -83.79,-136.72 C-83.79,-136.72 -82.47,-138.33 -82.47,-138.33" fill="none" stroke="rgb(0, 165, 255)" stroke-width="3.31" stroke-opacity="1.00" stroke-linejoin="round"/>
<path d="M-83.81,-79.23 C-83.81,-79.23 -84.48,-78.55 -84.48,-78.55 C-84.50,-76.86 -84.46,-75.69 -84.32,-73.84 C-82.48,-48.79 -82.50,-8.43 -81.89,-4.01 C-81.89,-4.01 -79.78,-6.02 -79.78,-6.02" fill="none" stroke="rgb(0, 165, 255)" stroke-width="3.31" stroke-opacity="1.00" stroke-linejoin="round"/>
<path d="M-76.42,50.39 C-76.50,53.55 -74.45,89.58 -74.33,101.31 C-74.35,105.55 -74.39,112.57 -74.41,115.34 C-74.41,115.34 -73.74,116.20 -73.74,116.20" fill="none" stroke="rgb(0, 165, 255)" stroke-width="3.31" stroke-opacity="1.00" stroke-linejoin="round"/>
<path d="M-76.42,178.66 C-75.79,186.48 -74.53,202.25 -73.90,210.19 C-73.56,215.27 -73.89,223.43 -74.41,230.98 C-74.41,230.98 -74.94,231.04 -74.94,231.04" fill="none" stroke="rgb(0, 165, 255)" stroke-width="3.31" stroke-opacity="1.00" stroke-linejoin="round"/>
<path d="M-75.75,283.42 C-75.86,283.42 -75.97,283.42 -76.09,283.42 C-76.42,283.42 -76.93,283.42 -77.09,283.42 C-77.04,339.18 -77.77,345.40 -77.65,345.86 C-77.57,346.19 -77.22,346.60 -76.61,347.08" fill="none" stroke="rgb(0, 165, 255)" stroke-width="3.31" stroke-opacity="1.00" stroke-linejoin="round"/>
<path d="M-73.74,405.65 C-74.52,409.34 -74.12,415.63 -73.89,419.39 C-73.64,424.37 -73.72,440.28 -73.74,444.99 C-73.74,444.99 -73.26,444.80 -73.26,444.80" fill="none" stroke="rgb(0, 165, 255)" stroke-width="3.31" stroke-opacity="1.00" stroke-linejoin="round"/>
<path d="M17.60,110.83 C17.69,110.90 17.07,112.46 16.93,113.13 C16.85,113.50 17.08,133.65 16.80,139.97 C16.25,149.20 12.43,188.18 12.49,188.32 C12.56,188.45 13.06,189.39 14.00,191.12" fill="none" stroke="rgb(0, 165, 255)" stroke-width="3.31" stroke-opacity="1.00" stroke-linejoin="round"/>
<path d="M12.90,230.37 C12.90,230.37 12.90,229.70 12.90,229.70 C12.90,229.70 14.91,289.06 14.91,289.06 C14.91,289.06 15.40,288.93 15.40,288.93" fill="none" stroke="rgb(0, 165, 255)" stroke-width="3.31" stroke-opacity="1.00" stroke-linejoin="round"/>
<path d="M16.93,335.81 C16.93,335.81 15.02,336.14 15.02,336.14 C13.57,350.49 13.59,394.79 13.47,399.08 C13.42,402.25 14.31,404.85 14.78,406.03" fill="none" stroke="rgb(0, 165, 255)" stroke-width="3.31" stroke-opacity="1.00" stroke-linejoin="round"/>
<path d="M24.99,451.32 C24.99,451.32 24.05,451.32 24.05,451.32 C24.05,451.32 23.44,451.94 23.44,451.94 C23.06,454.55 21.62,473.63 20.52,473.40 C20.52,473.40 20.86,472.92 20.86,472.92" fill="none" stroke="rgb(0, 165, 255)" stroke-width="3.31" stroke-opacity="1.00" stroke-linejoin="round"/>
<path d="M-14.64,-241.75 C-13.49,-235.24 -13.28,-228.29 -13.29,-217.14 C-13.33,-209.09 -13.45,-194.95 -14.40,-189.91 C-18.11,-171.05 -20.55,-144.64 -21.07,-141.53 C-21.07,-141.53 -18.67,-145.04 -18.67,-145.04" fill="none" stroke="rgb(0, 165, 255)" stroke-width="3.31" stroke-opacity="1.00" stroke-linejoin="round"/>
<path d="M3.49,-110.79 C3.49,-110.79 2.82,-110.79 2.82,-110.79 C2.82,-99.50 4.22,-64.70 4.23,-64.69 C4.41,-64.31 6.29,-62.32 7.15,-61.39" fill="none" stroke="rgb(0, 165, 255)" stroke-width="3.31" stroke-opacity="1.00" stroke-linejoin="round"/>
<path d="M7.52,-14.76 C7.52,-14.76 6.85,-14.76 6.85,-14.76 C6.70,-12.67 10.16,3.40 10.74,11.22 C11.71,27.94 12.83,47.47 12.99,50.28 C12.99,50.28 14.04,49.30 14.04,49.30" fill="none" stroke="rgb(0, 165, 255)" stroke-width="3.31" stroke-opacity="1.00" stroke-linejoin="round"/>
<path d="M54.53,-240.40 C54.53,-240.40 53.86,-240.40 53.86,-240.40 C53.86,-240.01 53.86,-238.43 53.85,-237.23 C53.94,-217.73 53.12,-183.16 52.77,-176.20 C52.41,-168.77 53.97,-156.15 54.75,-154.04 C54.90,-153.66 55.25,-152.92 55.81,-151.84" fill="none" stroke="rgb(0, 165, 255)" stroke-width="3.31" stroke-opacity="1.00" stroke-linejoin="round"/>
<path d="M120.35,-235.03 C120.35,-235.03 120.35,-235.37 120.35,-235.37 C120.35,-235.37 120.01,-235.70 120.01,-235.70 C120.01,-235.70 119.68,-235.70 119.68,-235.70 C119.71,-233.81 121.18,-215.85 120.84,-207.58 C120.08,-193.28 118.59,-167.82 116.34,-149.38 C116.01,-146.70 115.57,-143.29 115.47,-142.56 C115.47,-142.56 118.33,-142.35 118.33,-142.35" fill="none" stroke="rgb(0, 165, 255)" stroke-width="3.31" stroke-opacity="1.00" stroke-linejoin="round"/>
<path d="M133.78,-109.45 C133.42,-105.37 131.24,-86.90 131.03,-80.86 C130.44,-62.92 130.40,-48.25 130.60,-47.60 C130.60,-47.60 133.32,-45.89 133.32,-45.89" fill="none" stroke="rgb(0, 165, 255)" stroke-width="3.31" stroke-opacity="1.00" stroke-linejoin="round"/>
<path d="M125.05,-4.68 C125.05,-4.68 124.38,-4.68 124.38,-4.68 C124.37,-4.73 124.45,-3.04 124.52,-1.55 C125.08,4.47 125.94,15.54 125.41,25.16 C124.98,31.99 124.35,43.13 124.38,47.68 C124.38,47.68 124.98,47.10 124.98,47.10" fill="none" stroke="rgb(0, 165, 255)" stroke-width="3.31" stroke-opacity="1.00" stroke-linejoin="round"/>
<path d="M127.06,90.01 C126.34,91.99 127.35,108.84 127.06,113.05 C126.78,116.99 126.07,119.64 125.93,120.09 C125.87,120.25 125.81,120.47 125.75,120.75" fill="none" stroke="rgb(0, 165, 255)" stroke-width="3.31" stroke-opacity="1.00" stroke-linejoin="round"/>
<path d="M118.33,171.94 C118.40,185.62 118.14,192.75 117.66,194.82 C117.61,195.06 117.46,195.37 117.22,195.76" fill="none" stroke="rgb(0, 165, 255)" stroke-width="3.31" stroke-opacity="1.00" stroke-linejoin="round"/>
<path d="M123.71,241.11 C123.25,241.32 122.02,242.15 121.69,242.99 C120.96,244.90 121.07,266.66 120.97,267.51 C120.84,268.60 120.62,269.67 120.47,270.75 C120.41,271.16 120.37,271.58 120.35,272.01" fill="none" stroke="rgb(0, 165, 255)" stroke-width="3.31" stroke-opacity="1.00" stroke-linejoin="round"/>
<path d="M118.33,326.40 C118.33,326.40 117.66,326.40 117.66,326.40 C116.87,326.98 116.36,328.14 116.06,330.60 C115.52,335.15 115.67,347.96 115.33,348.81 C115.33,348.81 114.54,349.19 114.54,349.19" fill="none" stroke="rgb(0, 165, 255)" stroke-width="3.31" stroke-opacity="1.00" stroke-linejoin="round"/>
<path d="M166.02,-226.97 C166.02,-226.97 166.69,-227.64 166.69,-227.64 C166.69,-227.64 166.69,-228.32 166.69,-228.32 C166.62,-225.23 164.80,-206.80 164.61,-200.50 C164.52,-197.02 164.82,-150.27 165.20,-145.41 C165.56,-141.06 166.46,-136.75 166.65,-135.80" fill="none" stroke="rgb(0, 165, 255)" stroke-width="3.31" stroke-opacity="1.00" stroke-linejoin="round"/>
<path d="M231.16,-226.30 C231.10,-207.35 229.74,-179.43 229.38,-172.02 C228.70,-161.50 223.60,-142.78 223.69,-142.06 C223.76,-141.52 224.14,-140.47 224.84,-138.91" fill="none" stroke="rgb(0, 165, 255)" stroke-width="3.31" stroke-opacity="1.00" stroke-linejoin="round"/>
<path d="M237.87,-116.16 C237.61,-114.36 237.11,-111.27 237.03,-110.62 C236.19,-104.15 235.68,-83.02 235.19,-80.64 C235.00,-79.70 234.81,-78.75 234.62,-77.80" fill="none" stroke="rgb(0, 165, 255)" stroke-width="3.31" stroke-opacity="1.00" stroke-linejoin="round"/>
<path d="M233.84,-46.32 C233.42,-46.63 231.50,-44.69 230.74,-41.45 C229.66,-36.66 227.45,-16.41 226.90,-13.54 C226.63,-12.10 225.42,-8.23 225.39,-7.90 C225.34,-7.42 225.43,-6.69 225.67,-5.68" fill="none" stroke="rgb(0, 165, 255)" stroke-width="3.31" stroke-opacity="1.00" stroke-linejoin="round"/>
<path d="M220.41,33.60 C219.59,35.41 219.23,36.56 219.05,38.31 C218.42,44.08 217.40,59.22 216.85,62.97 C216.54,65.04 215.20,72.76 215.14,73.46 C215.09,73.93 215.06,74.84 215.04,76.21" fill="none" stroke="rgb(0, 165, 255)" stroke-width="3.31" stroke-opacity="1.00" stroke-linejoin="round"/>
<path d="M211.01,105.46 C211.01,108.56 211.01,115.39 211.01,119.12 C211.04,126.09 211.40,128.30 211.67,129.73 C211.72,130.06 211.72,130.42 211.68,130.80" fill="none" stroke="rgb(0, 165, 255)" stroke-width="3.31" stroke-opacity="1.00" stroke-linejoin="round"/>
<path d="M209.00,162.54 C209.00,163.26 209.00,165.46 209.00,166.95 C209.00,174.37 208.97,188.71 208.80,189.56 C208.70,190.01 208.40,191.29 207.89,193.40" fill="none" stroke="rgb(0, 165, 255)" stroke-width="3.31" stroke-opacity="1.00" stroke-linejoin="round"/>
<path d="M209.67,214.92 C209.67,214.92 208.39,215.19 208.39,215.19 C207.63,216.50 207.05,222.23 206.68,227.07 C206.32,232.33 206.44,233.18 206.98,235.07" fill="none" stroke="rgb(0, 165, 255)" stroke-width="3.31" stroke-opacity="1.00" stroke-linejoin="round"/>
<path d="M204.30,269.99 C204.29,270.03 204.31,287.28 204.30,294.85 C203.96,300.95 203.55,309.12 203.77,309.87 C203.90,310.32 204.30,311.12 204.97,312.30" fill="none" stroke="rgb(0, 165, 255)" stroke-width="3.31" stroke-opacity="1.00" stroke-linejoin="round"/>
<path d="M205.64,337.15 C205.64,337.15 206.31,336.48 206.31,336.48 C206.34,338.79 206.31,339.68 206.02,342.85 C205.24,351.85 205.82,361.14 206.31,363.34" fill="none" stroke="rgb(0, 165, 255)" stroke-width="3.31" stroke-opacity="1.00" stroke-linejoin="round"/>
<path d="M206.98,376.10 C206.98,376.10 205.97,376.10 205.97,376.10 C205.45,376.58 205.07,377.80 204.97,379.75 C204.94,380.32 204.96,387.61 204.97,389.53" fill="none" stroke="rgb(0, 165, 255)" stroke-width="3.31" stroke-opacity="1.00" stroke-linejoin="round"/>
<path d="M206.31,411.02 C206.31,411.02 206.31,410.35 206.31,410.35 C206.31,412.41 206.29,417.80 206.27,421.13 C206.25,433.54 206.74,438.13 206.98,439.23" fill="none" stroke="rgb(0, 165, 255)" stroke-width="3.31" stroke-opacity="1.00" stroke-linejoin="round"/>
<path d="M206.31,454.68 C206.08,455.85 205.50,458.88 205.14,460.72 C203.36,469.43 202.99,473.14 202.95,473.26 C202.90,473.43 202.73,473.71 202.45,474.10" fill="none" stroke="rgb(0, 165, 255)" stroke-width="3.31" stroke-opacity="1.00" stroke-linejoin="round"/>
<path d="M110.28,404.98 C110.28,404.98 109.27,404.98 109.27,404.98 C108.88,406.32 109.00,413.08 109.09,415.06 C109.62,423.31 109.67,440.49 110.42,442.90 C110.58,443.38 111.71,445.43 112.29,446.62" fill="none" stroke="rgb(0, 165, 255)" stroke-width="3.31" stroke-opacity="1.00" stroke-linejoin="round"/>
<path d="M113.63,471.46 C112.82,473.42 112.37,476.00 112.21,476.92 C112.12,477.38 111.93,478.16 111.62,479.26 C111.62,479.26 112.03,480.07 112.03,480.07" fill="none" stroke="rgb(0, 165, 255)" stroke-width="3.31" stroke-opacity="1.00" stroke-linejoin="round"/>
<path d="M268.77,-217.57 C268.77,-217.57 268.77,-218.91 268.77,-218.91 C268.79,-216.50 268.35,-210.24 268.09,-206.57 C266.36,-188.78 260.07,-146.24 260.09,-145.79 C260.11,-145.43 260.22,-144.60 260.45,-143.29" fill="none" stroke="rgb(0, 165, 255)" stroke-width="3.31" stroke-opacity="1.00" stroke-linejoin="round"/>
<path d="M319.81,-220.26 C319.68,-220.18 318.68,-209.35 317.05,-195.24 C315.98,-184.82 315.71,-175.05 315.85,-164.77 C316.09,-155.60 318.35,-143.85 318.39,-143.75 C318.48,-143.56 318.68,-143.33 318.99,-143.09" fill="none" stroke="rgb(0, 165, 255)" stroke-width="3.31" stroke-opacity="1.00" stroke-linejoin="round"/>
<path d="M308.39,-110.12 C308.39,-110.12 308.39,-111.13 308.39,-111.13 C308.39,-111.16 308.39,-109.64 308.39,-108.27 C308.39,-103.87 308.39,-95.82 308.39,-92.18 C308.39,-90.93 308.39,-89.68 308.39,-88.44" fill="none" stroke="rgb(0, 165, 255)" stroke-width="3.31" stroke-opacity="1.00" stroke-linejoin="round"/>
<path d="M314.43,-61.77 C314.43,-61.77 313.20,-61.43 313.20,-61.43 C312.45,-60.52 312.07,-59.48 311.85,-57.34 C311.69,-55.81 311.17,-51.71 311.08,-50.42 C311.04,-49.90 310.95,-48.48 310.40,-46.99" fill="none" stroke="rgb(0, 165, 255)" stroke-width="3.31" stroke-opacity="1.00" stroke-linejoin="round"/>
<path d="M309.73,-16.10 C309.20,-15.56 308.86,-15.16 308.73,-14.90 C308.54,-14.54 306.56,-5.88 305.71,-2.16 C305.10,0.48 304.96,1.45 305.03,2.03" fill="none" stroke="rgb(0, 165, 255)" stroke-width="3.31" stroke-opacity="1.00" stroke-linejoin="round"/>
<path d="M306.38,28.90 C306.38,28.90 305.03,29.12 305.03,29.12 C305.03,29.12 301.81,45.89 301.81,45.89 C301.81,45.89 303.02,45.69 303.02,45.69" fill="none" stroke="rgb(0, 165, 255)" stroke-width="3.31" stroke-opacity="1.00" stroke-linejoin="round"/>
<path d="M298.99,86.65 C298.99,86.65 297.31,86.99 297.31,86.99 C296.08,89.65 295.27,105.04 294.38,109.72 C294.22,110.51 293.49,113.87 293.40,114.45 C293.26,115.35 293.05,117.47 292.94,118.89" fill="none" stroke="rgb(0, 165, 255)" stroke-width="3.31" stroke-opacity="1.00" stroke-linejoin="round"/>
<path d="M296.30,139.71 C296.11,139.68 295.29,139.88 294.96,140.38 C293.84,142.11 293.62,146.95 293.59,151.13 C293.60,154.94 293.66,160.90 293.70,163.03 C293.70,163.03 295.19,163.85 295.19,163.85" fill="none" stroke="rgb(0, 165, 255)" stroke-width="3.31" stroke-opacity="1.00" stroke-linejoin="round"/>
<path d="M290.26,182.69 C289.86,182.93 289.64,183.26 289.59,183.70 C289.53,184.13 289.58,185.25 289.73,187.08 C289.73,187.08 290.26,187.39 290.26,187.39" fill="none" stroke="rgb(0, 165, 255)" stroke-width="3.31" stroke-opacity="1.00" stroke-linejoin="round"/>
<path d="M290.26,185.37 C290.26,185.37 290.26,185.04 290.26,185.04 C290.26,185.04 289.92,184.70 289.92,184.70 C289.65,184.76 289.23,189.42 288.38,196.07 C287.87,199.68 287.01,205.57 286.86,208.38 C286.86,208.38 285.56,208.88 285.56,208.88" fill="none" stroke="rgb(0, 165, 255)" stroke-width="3.31" stroke-opacity="1.00" stroke-linejoin="round"/>
<path d="M287.57,227.01 C287.57,227.01 285.56,227.13 285.56,227.13 C285.50,229.91 285.42,238.19 285.56,239.56 C285.82,242.19 286.42,245.43 286.90,247.16" fill="none" stroke="rgb(0, 165, 255)" stroke-width="3.31" stroke-opacity="1.00" stroke-linejoin="round"/>
<path d="M282.20,287.45 C282.20,287.45 281.53,286.11 281.53,286.11 C280.95,288.66 280.77,290.30 280.87,292.82 C281.04,296.76 281.41,304.89 281.69,306.59 C281.89,307.73 282.59,311.04 282.87,312.30" fill="none" stroke="rgb(0, 165, 255)" stroke-width="3.31" stroke-opacity="1.00" stroke-linejoin="round"/>
<path d="M282.20,332.45 C281.82,333.01 281.60,333.42 281.53,333.68 C281.44,334.03 281.47,352.81 282.20,355.14 C282.36,355.64 282.81,356.81 283.54,358.64" fill="none" stroke="rgb(0, 165, 255)" stroke-width="3.31" stroke-opacity="1.00" stroke-linejoin="round"/>
<path d="M284.88,380.13 C283.63,381.53 282.73,383.28 282.86,387.28 C282.96,389.90 283.11,391.80 283.30,393.06 C283.52,394.42 283.57,395.42 283.54,397.61" fill="none" stroke="rgb(0, 165, 255)" stroke-width="3.31" stroke-opacity="1.00" stroke-linejoin="round"/>
<path d="M282.20,425.13 C282.20,425.13 281.86,424.79 281.86,424.79 C281.86,424.79 281.19,424.79 281.19,424.79 C280.23,426.76 279.82,428.26 279.63,430.87 C279.33,434.89 277.73,441.70 277.57,442.37 C277.51,442.64 277.48,443.06 277.50,443.65" fill="none" stroke="rgb(0, 165, 255)" stroke-width="3.31" stroke-opacity="1.00" stroke-linejoin="round"/>
<path d="M278.84,458.03 C278.31,461.60 277.65,463.80 276.04,466.82 C275.19,468.40 273.34,471.81 273.08,472.54 C272.90,473.04 272.58,474.14 272.13,475.84" fill="none" stroke="rgb(0, 165, 255)" stroke-width="3.31" stroke-opacity="1.00" stroke-linejoin="round"/>
<path d="M342.64,-173.25 C342.81,-166.74 339.77,-140.18 338.94,-133.01 C338.57,-129.80 338.53,-128.46 337.16,-126.63 C336.91,-126.29 336.49,-125.71 335.92,-124.89" fill="none" stroke="rgb(0, 165, 255)" stroke-width="3.31" stroke-opacity="1.00" stroke-linejoin="round"/>
</g>
</svg>
