<?xml version="1.0" encoding="UTF-8" standalone="no"?>
<!DOCTYPE svg PUBLIC "-//W3C//DTD SVG 1.1//EN" "http://www.w3.org/Graphics/SVG/1.1/DTD/svg11.dtd">
<svg width="128.40" height="181.68" viewBox="0.00 0.00 535.00 757.00" xmlns="http://www.w3.org/2000/svg" xmlns:xlink="http://www.w3.org/1999/xlink">
<g stroke-linecap="round" transform="translate(44.00, 155.00)" id="196_우산">
<path d="M228.41,88.48 C228.41,88.48 229.13,88.76 229.13,88.76 C229.34,87.88 228.96,85.66 227.66,83.05 C224.35,76.51 216.03,64.53 212.74,61.83 C209.87,59.53 205.82,57.41 203.16,56.58 C199.72,55.53 192.24,53.55 190.75,53.28 C186.43,52.51 171.28,53.70 165.27,54.57 C155.90,55.94 134.79,63.77 129.12,66.33 C125.60,67.95 122.46,70.09 118.40,73.34 C110.28,79.99 102.82,86.88 97.94,93.34 C93.70,98.76 88.08,109.14 85.96,114.51 C84.94,117.15 84.47,121.14 84.79,122.65 C86.51,123.04 91.96,121.55 93.94,120.98 C99.84,119.26 113.19,115.39 120.63,113.24 C128.34,110.88 157.87,100.39 171.80,95.80 C185.25,90.98 190.06,89.45 196.95,88.07 C206.19,86.29 214.01,85.37 216.27,86.41 C217.15,86.84 218.60,88.65 219.12,90.65 C220.47,96.50 225.24,109.63 226.01,111.34 C227.89,115.50 233.61,121.81 234.84,125.29 C235.61,127.49 238.06,138.14 238.53,138.41 C238.53,138.41 238.65,137.57 238.65,137.57" fill="none" stroke="rgb(0, 0, 255)" stroke-width="2.90" stroke-opacity="1.00" stroke-linejoin="round"/>
<path d="M226.11,82.93 C226.18,82.79 226.22,82.71 226.24,82.68 C226.24,82.68 226.24,82.66 226.24,82.67 C226.18,82.67 225.79,82.66 225.67,82.69 C225.59,82.72 225.44,82.79 225.22,82.92 C223.92,86.94 235.14,108.88 238.34,115.05 C240.29,118.88 241.68,122.68 241.71,125.86 C241.70,128.86 240.17,134.28 237.90,138.44 C237.07,139.96 236.15,141.57 236.16,141.54 C236.16,141.54 236.15,141.43 236.15,141.43" fill="none" stroke="rgb(0, 0, 255)" stroke-width="2.90" stroke-opacity="1.00" stroke-linejoin="round"/>
<path d="M105.23,85.30 C105.23,85.30 105.30,85.14 105.30,85.14 C105.30,85.14 105.62,85.00 105.62,85.00 C106.19,85.14 106.82,86.13 106.88,87.51 C107.02,91.74 105.29,105.19 102.91,110.53 C101.20,114.29 96.98,120.36 96.62,120.39 C96.53,120.28 96.50,120.07 96.56,119.79 C96.57,119.72 96.61,119.61 96.66,119.44" fill="none" stroke="rgb(0, 0, 255)" stroke-width="2.90" stroke-opacity="1.00" stroke-linejoin="round"/>
<path d="M124.53,68.33 C125.47,68.90 126.26,72.42 125.86,75.88 C124.94,83.33 120.82,97.05 118.13,103.45 C115.33,110.07 111.83,115.98 110.32,117.52 C109.86,117.99 109.08,118.43 108.61,118.65 C108.61,118.65 108.45,118.61 108.45,118.61" fill="none" stroke="rgb(0, 0, 255)" stroke-width="2.90" stroke-opacity="1.00" stroke-linejoin="round"/>
<path d="M135.56,65.25 C135.56,65.25 135.96,64.93 135.96,64.93 C135.96,64.93 136.14,64.97 136.14,64.97 C136.54,65.35 137.77,79.33 137.70,84.99 C137.59,91.37 135.27,105.37 133.54,109.76 C132.82,111.57 132.02,113.09 131.64,113.47 C131.64,113.47 131.34,113.56 131.34,113.56 C131.34,113.56 131.30,113.50 131.30,113.50 C131.30,113.50 131.29,113.34 131.29,113.34" fill="none" stroke="rgb(0, 0, 255)" stroke-width="2.90" stroke-opacity="1.00" stroke-linejoin="round"/>
<path d="M148.75,58.85 C148.57,58.65 148.47,58.52 148.43,58.46 C148.40,58.40 148.39,58.33 148.41,58.25 C148.64,59.47 150.26,64.84 150.63,67.83 C151.27,73.19 150.81,86.33 149.95,91.46 C148.42,100.42 146.68,107.24 145.50,109.34 C145.50,109.34 144.32,109.55 144.32,109.55 C143.91,109.32 143.67,109.18 143.58,109.12 C143.49,109.06 143.45,109.00 143.43,108.95" fill="none" stroke="rgb(0, 0, 255)" stroke-width="2.90" stroke-opacity="1.00" stroke-linejoin="round"/>
<path d="M157.52,56.94 C157.40,57.03 157.54,57.63 158.14,59.56 C159.89,65.20 161.39,76.38 160.77,82.34 C160.11,88.28 155.60,102.42 155.20,103.01 C155.20,103.01 155.06,103.08 155.06,103.08 C155.06,103.08 155.02,102.87 155.02,102.87" fill="none" stroke="rgb(0, 0, 255)" stroke-width="2.90" stroke-opacity="1.00" stroke-linejoin="round"/>
<path d="M162.51,66.56 C162.51,66.56 162.57,66.23 162.57,66.23 C162.75,66.23 162.67,67.17 162.59,68.58 C162.30,73.76 163.18,95.97 163.53,97.93 C163.69,98.78 164.15,99.77 164.40,100.13 C164.40,100.13 164.48,100.14 164.48,100.14" fill="none" stroke="rgb(0, 0, 255)" stroke-width="2.90" stroke-opacity="1.00" stroke-linejoin="round"/>
<path d="M165.00,77.75 C165.09,77.71 165.15,77.67 165.19,77.66 C165.22,77.64 165.26,77.62 165.32,77.60 C165.33,78.53 165.34,79.21 165.33,79.65 C165.29,86.59 167.17,92.04 167.48,92.93 C167.59,93.25 167.70,93.57 167.80,93.89 C167.80,93.89 167.82,93.80 167.82,93.80" fill="none" stroke="rgb(0, 0, 255)" stroke-width="2.90" stroke-opacity="1.00" stroke-linejoin="round"/>
<path d="M168.91,86.68 C168.93,87.14 169.26,87.98 170.03,89.27 C172.07,92.73 173.87,95.41 174.55,96.29 C174.55,96.29 174.73,96.10 174.73,96.10 C174.73,96.10 174.67,95.86 174.67,95.86" fill="none" stroke="rgb(0, 0, 255)" stroke-width="2.90" stroke-opacity="1.00" stroke-linejoin="round"/>
<path d="M158.67,58.68 C158.67,58.68 158.45,58.96 158.45,58.96 C158.69,59.96 159.52,61.87 160.73,64.14 C163.04,68.28 169.54,82.88 172.76,86.86 C173.20,87.40 176.57,91.18 177.18,91.90 C177.40,92.16 177.62,92.45 177.83,92.76 C177.83,92.76 177.80,92.72 177.80,92.72" fill="none" stroke="rgb(0, 0, 255)" stroke-width="2.90" stroke-opacity="1.00" stroke-linejoin="round"/>
<path d="M161.46,63.15 C161.98,64.62 164.58,68.12 166.01,70.74 C169.64,77.55 173.66,83.68 176.62,86.94 C179.32,89.90 184.31,94.20 184.90,94.69 C186.60,96.10 188.23,97.69 188.55,98.05 C188.55,98.05 188.55,98.14 188.55,98.14" fill="none" stroke="rgb(0, 0, 255)" stroke-width="2.90" stroke-opacity="1.00" stroke-linejoin="round"/>
<path d="M168.78,73.75 C168.77,73.98 171.03,77.51 172.29,79.13 C176.49,84.54 180.87,88.35 182.11,89.20 C182.07,89.13 182.03,89.07 182.01,89.04 C181.98,89.01 181.92,88.94 181.83,88.85" fill="none" stroke="rgb(0, 0, 255)" stroke-width="2.90" stroke-opacity="1.00" stroke-linejoin="round"/>
<path d="M159.85,57.40 C159.85,57.40 159.85,56.90 159.85,56.90 C160.03,57.24 161.32,58.96 162.80,60.80 C164.22,62.58 187.57,90.13 190.39,92.56 C194.59,96.13 202.92,98.68 203.61,98.79 C203.89,98.83 204.33,98.85 204.93,98.85 C204.93,98.85 204.98,98.68 204.98,98.68" fill="none" stroke="rgb(0, 0, 255)" stroke-width="2.90" stroke-opacity="1.00" stroke-linejoin="round"/>
<path d="M169.79,54.45 C169.79,54.45 168.16,53.52 168.16,53.52 C168.16,53.52 167.97,53.62 167.97,53.62 C168.04,54.36 168.68,55.88 169.78,57.69 C172.09,61.46 179.26,69.61 186.30,76.76 C193.32,83.87 196.23,86.66 199.01,88.38 C199.38,88.60 199.73,88.75 200.06,88.82 C200.06,88.82 200.15,88.77 200.15,88.77 C200.15,88.77 200.16,88.70 200.16,88.70" fill="none" stroke="rgb(0, 0, 255)" stroke-width="2.90" stroke-opacity="1.00" stroke-linejoin="round"/>
<path d="M180.20,55.43 C180.20,55.43 179.96,54.95 179.96,54.95 C179.96,54.95 179.47,55.12 179.47,55.12 C178.45,56.10 183.28,63.32 190.13,72.46 C192.62,75.73 195.43,78.88 197.30,80.76 C201.19,84.63 202.09,85.59 202.75,86.30 C202.85,86.42 202.91,86.45 202.90,86.42" fill="none" stroke="rgb(0, 0, 255)" stroke-width="2.90" stroke-opacity="1.00" stroke-linejoin="round"/>
<path d="M182.07,53.60 C182.07,53.59 182.07,53.60 182.07,53.61 C182.24,53.99 182.44,54.33 182.67,54.63 C183.61,55.83 195.80,68.20 203.88,75.52 C213.58,84.21 217.17,86.51 217.93,86.43 C217.93,86.43 218.09,86.24 218.09,86.24 C218.09,86.24 218.01,85.99 218.01,85.99" fill="none" stroke="rgb(0, 0, 255)" stroke-width="2.90" stroke-opacity="1.00" stroke-linejoin="round"/>
<path d="M194.28,56.98 C194.28,56.98 194.23,56.65 194.23,56.65 C194.23,56.65 193.94,56.52 193.94,56.52 C193.94,56.52 193.76,56.67 193.76,56.67 C194.59,57.98 195.85,59.42 197.79,61.23 C199.72,63.02 213.98,73.39 217.54,76.30 C219.51,77.94 220.71,78.77 221.61,79.18 C221.74,79.23 221.80,79.24 221.78,79.20" fill="none" stroke="rgb(0, 0, 255)" stroke-width="2.90" stroke-opacity="1.00" stroke-linejoin="round"/>
</g>
</svg>
