<?xml version="1.0" encoding="UTF-8" standalone="no"?>
<!DOCTYPE svg PUBLIC "-//W3C//DTD SVG 1.1//EN" "http://www.w3.org/Graphics/SVG/1.1/DTD/svg11.dtd">
<svg width="128.40" height="181.68" viewBox="0.00 0.00 535.00 757.00" xmlns="http://www.w3.org/2000/svg" xmlns:xlink="http://www.w3.org/1999/xlink">
<g stroke-linecap="round" transform="translate(44.00, 155.00)" id="197_사람">
<path d="M32.06,273.24 C32.06,273.24 32.06,273.59 32.06,273.59" fill="none" stroke="rgb(255, 0, 0)" stroke-width="4.00" stroke-opacity="1.00" stroke-linejoin="round"/>
<path d="M33.35,271.74 C33.41,271.38 33.47,271.14 33.50,271.02 C33.54,270.90 33.61,270.74 33.70,270.53 C33.79,270.54 33.83,271.03 33.80,272.43 C33.51,282.85 33.37,284.10 33.09,284.35 C35.37,283.53 42.05,285.36 46.90,287.66 C51.29,289.74 52.61,290.09 52.86,290.07 C52.86,290.07 53.82,285.23 53.82,285.23 C55.12,284.29 56.09,282.30 56.54,279.49 C57.46,273.43 57.80,263.85 57.61,253.61 C57.53,250.71 57.16,246.62 56.19,243.71 C55.27,241.07 51.52,237.73 49.19,236.88 C47.00,236.15 43.29,237.14 40.43,238.55 C37.47,240.06 33.90,242.53 32.05,244.55 C30.38,246.45 28.56,251.03 28.01,255.72 C27.85,257.15 27.81,260.86 27.85,265.68 C27.88,268.95 28.64,272.42 29.93,273.39 C30.65,273.92 31.87,273.82 33.10,273.35 C33.24,273.29 33.32,273.27 33.31,273.28" fill="none" stroke="rgb(255, 0, 0)" stroke-width="4.00" stroke-opacity="1.00" stroke-linejoin="round"/>
<path d="M34.20,280.38 C34.20,280.38 34.91,279.72 34.91,279.72 C35.01,279.75 35.03,280.45 35.00,283.05 C34.87,289.82 34.46,300.45 34.30,306.31 C33.98,312.42 29.52,329.09 28.65,331.66 C27.44,335.04 25.39,339.73 24.01,341.51 C20.54,346.01 19.38,348.28 18.10,352.21 C17.07,355.67 16.53,357.79 16.60,358.48 C16.58,359.01 21.59,359.20 25.00,358.92 C27.51,358.69 28.69,357.82 28.83,356.89 C29.11,354.91 29.46,347.42 29.58,346.30 C30.83,335.15 36.40,319.82 37.00,319.17 C37.20,319.84 35.68,335.37 35.16,342.52 C34.79,349.47 32.58,384.73 33.88,386.11 C33.88,386.11 37.94,385.92 37.94,385.92 C38.96,385.13 39.16,379.31 39.22,376.73 C39.49,371.43 41.44,362.15 41.61,361.45 C41.61,361.45 44.90,360.27 44.90,360.27 C45.94,360.99 45.11,386.36 45.48,386.84 C45.74,387.04 50.86,385.39 51.30,384.34 C51.79,383.08 51.23,367.09 50.91,359.88 C50.32,349.19 50.88,328.81 50.32,322.40 C50.49,325.21 53.62,342.41 54.82,349.61 C56.12,358.83 57.00,363.88 58.09,363.77 C58.49,363.48 62.89,356.95 63.18,356.09 C63.92,353.77 63.39,350.57 62.36,350.54 C62.18,350.54 61.48,350.56 60.28,350.60 C60.28,350.60 60.36,349.62 60.36,349.62" fill="none" stroke="rgb(255, 0, 0)" stroke-width="4.00" stroke-opacity="1.00" stroke-linejoin="round"/>
<path d="M62.74,354.27 C62.70,354.16 62.66,354.09 62.64,354.06 C62.48,353.85 62.33,352.79 62.21,351.90 C62.15,351.58 57.75,333.89 56.22,327.40 C54.24,318.40 52.24,306.91 52.07,303.01 C51.89,297.77 53.60,287.98 53.68,287.74 C53.89,287.18 54.42,286.65 54.55,286.69" fill="none" stroke="rgb(255, 0, 0)" stroke-width="4.00" stroke-opacity="1.00" stroke-linejoin="round"/>
<path d="M16.46,358.03 C16.46,358.03 15.85,357.36 15.85,357.36 C15.73,357.41 14.51,361.33 14.87,366.42 C15.35,372.37 17.17,374.43 17.77,374.81 C19.26,374.19 19.97,373.59 20.25,372.41 C20.86,369.78 20.67,364.68 20.23,362.87 C20.01,361.96 19.41,360.48 19.33,360.45" fill="none" stroke="rgb(255, 0, 0)" stroke-width="4.00" stroke-opacity="1.00" stroke-linejoin="round"/>
<path d="M55.88,365.19 C55.88,365.19 55.88,364.63 55.88,364.63 C55.65,364.65 56.45,369.27 57.45,370.42 C58.07,371.08 59.33,371.57 59.96,371.35 C61.25,370.82 62.83,367.12 62.90,364.59 C62.96,360.29 61.30,359.36 61.07,359.32" fill="none" stroke="rgb(255, 0, 0)" stroke-width="4.00" stroke-opacity="1.00" stroke-linejoin="round"/>
<path d="M32.92,386.76 C32.92,386.76 32.41,387.02 32.41,387.02 C31.74,388.64 32.55,393.11 33.33,393.76 C33.82,394.09 35.20,393.71 36.10,392.11 C38.23,388.20 37.07,385.63 36.90,385.44 C36.90,385.44 36.64,385.44 36.64,385.44" fill="none" stroke="rgb(255, 0, 0)" stroke-width="4.00" stroke-opacity="1.00" stroke-linejoin="round"/>
<path d="M44.59,388.22 C44.59,388.22 44.17,388.21 44.17,388.21 C43.69,388.56 43.27,389.64 43.26,390.80 C43.26,392.08 45.35,393.86 46.68,393.19 C48.17,392.36 49.80,387.93 49.62,385.88 C49.37,383.43 48.42,382.42 48.20,382.34" fill="none" stroke="rgb(255, 0, 0)" stroke-width="4.00" stroke-opacity="1.00" stroke-linejoin="round"/>
<path d="M37.14,249.17 C37.14,249.17 36.96,249.17 36.96,249.17 C36.96,249.17 36.84,249.01 36.84,249.01 C36.84,249.01 37.04,248.65 37.04,248.65 C37.03,248.74 35.67,252.04 35.77,253.02 C35.85,253.66 36.14,254.11 36.60,254.46 C37.69,254.50 39.46,252.69 39.96,250.86 C40.40,249.11 39.86,247.87 39.46,247.40 C39.46,247.40 37.71,247.84 37.71,247.84" fill="none" stroke="rgb(255, 0, 0)" stroke-width="4.00" stroke-opacity="1.00" stroke-linejoin="round"/>
<path d="M49.91,244.19 C48.97,244.18 48.19,244.36 47.74,244.89 C45.35,247.82 46.19,249.95 46.61,250.53 C47.63,250.98 49.66,250.04 50.22,248.78 C50.78,247.44 49.84,244.54 48.65,243.82 C47.40,243.12 45.31,244.21 45.00,244.98 C44.95,245.11 44.88,245.41 44.79,245.86" fill="none" stroke="rgb(255, 0, 0)" stroke-width="4.00" stroke-opacity="1.00" stroke-linejoin="round"/>
<path d="M42.29,255.80 C42.29,255.80 41.50,255.46 41.50,255.46 C40.96,255.40 39.69,259.92 40.17,262.96 C40.41,264.36 42.37,265.84 43.51,265.19 C44.72,264.42 46.02,260.34 45.63,258.11 C45.18,255.83 43.85,254.84 42.99,254.65 C42.99,254.65 40.27,257.81 40.27,257.81" fill="none" stroke="rgb(255, 0, 0)" stroke-width="4.00" stroke-opacity="1.00" stroke-linejoin="round"/>
<path d="M38.19,268.87 C38.19,268.87 37.27,269.13 37.27,269.13 C37.27,269.13 37.30,269.38 37.30,269.38 C37.30,269.38 50.69,264.62 50.69,264.62 C50.76,265.76 48.62,272.61 47.60,274.58 C47.08,275.55 45.52,276.41 44.45,276.38 C41.30,276.25 37.97,273.19 37.30,271.62 C36.74,270.23 36.53,267.19 36.55,266.88" fill="none" stroke="rgb(255, 0, 0)" stroke-width="4.00" stroke-opacity="1.00" stroke-linejoin="round"/>
<path d="M44.23,239.74 C44.23,239.74 44.47,238.74 44.47,238.74 C44.15,238.96 39.09,241.53 37.55,242.68 C35.38,244.34 32.26,247.94 31.58,249.11 C31.58,249.11 45.82,238.57 45.82,238.57 C45.82,238.57 35.76,244.51 35.76,244.51 C35.76,244.51 50.52,239.04 50.52,239.04 C50.52,239.04 36.59,245.33 36.59,245.33 C36.59,245.33 45.02,240.85 45.02,240.85 C43.48,241.01 38.64,243.46 36.31,245.01 C34.02,246.55 30.57,249.94 29.63,252.17 C28.17,255.81 27.96,256.30 27.83,256.49 C28.41,254.74 30.99,249.84 32.40,247.86 C33.79,245.96 36.69,243.46 38.61,242.51 C40.64,241.54 47.42,239.48 49.49,239.52 C51.38,239.59 54.01,241.77 55.61,243.47 C55.64,243.51 50.03,238.15 49.21,238.25 C48.98,238.29 45.68,238.59 44.83,238.68 C45.09,238.77 51.58,239.16 52.67,239.65 C54.21,240.40 56.43,245.13 56.69,245.49 C56.69,245.49 52.67,240.17 52.67,240.17 C54.61,242.10 56.16,243.86 56.95,245.07 C57.09,245.28 57.15,245.41 57.13,245.48" fill="none" stroke="rgb(255, 0, 0)" stroke-width="4.00" stroke-opacity="1.00" stroke-linejoin="round"/>
</g>
</svg>
