<?xml version="1.0" encoding="UTF-8" standalone="no"?>
<!DOCTYPE svg PUBLIC "-//W3C//DTD SVG 1.1//EN" "http://www.w3.org/Graphics/SVG/1.1/DTD/svg11.dtd">
<svg width="128.40" height="181.68" viewBox="0.00 0.00 535.00 757.00" xmlns="http://www.w3.org/2000/svg" xmlns:xlink="http://www.w3.org/1999/xlink">
<g stroke-linecap="round" transform="translate(44.00, 155.00)" id="197_지면">
<path d="M-27.64,437.80 C-27.64,437.80 -27.45,435.83 -27.45,435.83 C-27.45,435.83 -28.06,435.84 -28.06,435.84 C-28.06,435.84 -28.34,436.19 -28.34,436.19 C-26.72,437.68 -15.46,441.22 -4.84,443.34 C21.20,448.63 41.37,451.79 51.72,454.83 C59.61,457.18 66.63,459.46 76.19,462.01 C88.44,465.03 108.68,467.41 133.23,469.19 C163.38,470.90 211.73,473.85 219.36,474.73 C226.12,475.61 240.46,478.07 248.47,479.32 C269.83,482.06 336.17,486.03 364.04,487.58 C378.10,488.10 404.77,489.15 420.47,490.10 C436.34,491.25 463.67,493.23 464.54,492.95 C464.48,492.47 464.44,492.20 464.42,492.14 C464.38,492.04 464.35,491.95 464.31,491.86 C464.05,490.67 463.81,488.73 463.69,486.92" fill="none" stroke="rgb(0, 255, 0)" stroke-width="4.00" stroke-opacity="1.00" stroke-linejoin="round"/>
</g>
</svg>
