<?xml version="1.0" encoding="UTF-8" standalone="no"?>
<!DOCTYPE svg PUBLIC "-//W3C//DTD SVG 1.1//EN" "http://www.w3.org/Graphics/SVG/1.1/DTD/svg11.dtd">
<svg width="128.40" height="181.68" viewBox="0.00 0.00 535.00 757.00" xmlns="http://www.w3.org/2000/svg" xmlns:xlink="http://www.w3.org/1999/xlink">
<g stroke-linecap="round" transform="translate(44.00, 155.00)" id="197_비">
<path d="M9.05,79.38 C9.05,79.38 8.91,78.09 8.91,78.09 C8.91,78.09 9.40,80.29 9.40,80.29" fill="none" stroke="rgb(255, 165, 0)" stroke-width="4.00" stroke-opacity="1.00" stroke-linejoin="round"/>
<path d="M10.60,76.39 C11.25,74.51 11.39,73.58 11.24,71.84 C11.19,71.33 11.12,70.06 10.93,69.79 C10.05,72.73 9.77,87.60 9.63,95.39 C9.53,103.60 9.29,124.40 9.18,125.34 C9.08,124.71 8.97,124.09 8.87,123.46 C8.84,123.24 8.82,123.10 8.83,123.06" fill="none" stroke="rgb(255, 165, 0)" stroke-width="4.00" stroke-opacity="1.00" stroke-linejoin="round"/>
<path d="M24.35,67.02 C24.35,67.02 24.41,64.94 24.41,64.94 C24.08,67.88 23.97,71.47 24.00,76.10 C24.09,83.48 24.19,98.74 24.19,106.63 C24.14,113.86 24.05,129.74 24.67,133.12 C24.72,133.42 24.83,133.66 24.97,133.84" fill="none" stroke="rgb(255, 165, 0)" stroke-width="4.00" stroke-opacity="1.00" stroke-linejoin="round"/>
<path d="M33.97,80.18 C34.12,77.97 34.57,76.81 34.75,76.48 C34.91,76.18 35.19,75.31 35.43,75.22 C35.47,75.20 35.53,75.19 35.61,75.19 C36.00,77.36 35.87,121.23 35.63,137.95 C35.37,152.82 35.20,181.48 36.16,196.22 C36.91,204.43 38.12,215.49 38.42,218.25 C38.45,218.52 38.48,218.88 38.51,219.34" fill="none" stroke="rgb(255, 165, 0)" stroke-width="4.00" stroke-opacity="1.00" stroke-linejoin="round"/>
<path d="M48.98,63.68 C48.98,63.68 49.56,63.16 49.56,63.16 C49.56,63.16 49.91,63.20 49.91,63.20 C50.10,63.95 49.29,78.39 48.88,85.84 C48.49,94.07 47.82,109.59 47.55,116.88 C47.47,121.61 47.37,127.61 47.36,128.87" fill="none" stroke="rgb(255, 165, 0)" stroke-width="4.00" stroke-opacity="1.00" stroke-linejoin="round"/>
<path d="M92.54,72.21 C91.85,72.23 90.52,74.43 89.56,77.67 C87.03,86.31 79.87,119.68 77.42,135.52 C76.35,143.12 74.63,157.75 73.84,164.97 C73.10,172.73 71.78,186.84 71.19,193.18 C71.12,193.85 71.05,194.52 70.98,195.20" fill="none" stroke="rgb(255, 165, 0)" stroke-width="4.00" stroke-opacity="1.00" stroke-linejoin="round"/>
<path d="M93.14,69.37 C93.14,69.37 92.23,69.23 92.23,69.23 C91.94,69.69 91.57,73.70 91.49,77.32 C91.24,89.37 91.25,94.92 91.36,96.84" fill="none" stroke="rgb(255, 165, 0)" stroke-width="4.00" stroke-opacity="1.00" stroke-linejoin="round"/>
<path d="M108.29,47.48 C108.29,47.48 108.48,46.92 108.48,46.92 C108.50,50.46 105.44,100.70 105.30,104.31 C105.24,106.74 105.12,112.40 105.05,115.64 C105.00,120.81 105.15,125.29 105.45,127.83" fill="none" stroke="rgb(255, 165, 0)" stroke-width="4.00" stroke-opacity="1.00" stroke-linejoin="round"/>
<path d="M121.15,47.29 C121.15,47.29 121.50,46.84 121.50,46.84 C121.50,46.84 121.59,46.82 121.59,46.82 C121.65,48.78 121.64,50.09 121.49,52.16 C120.78,63.06 120.26,89.36 120.43,94.36 C120.50,96.09 120.59,97.03 120.79,98.41 C120.79,98.28 120.80,98.10 120.83,97.86 C120.99,96.45 121.31,94.30 121.64,92.71 C122.35,89.23 123.84,83.71 124.52,81.23" fill="none" stroke="rgb(255, 165, 0)" stroke-width="4.00" stroke-opacity="1.00" stroke-linejoin="round"/>
<path d="M135.51,44.29 C135.51,44.29 135.76,43.90 135.76,43.90 C135.76,43.90 136.20,43.82 136.20,43.82 C136.27,45.64 135.55,64.02 135.19,71.89 C135.12,74.16 135.11,76.30 135.13,78.47 C135.16,80.00 135.23,80.70 135.42,81.52" fill="none" stroke="rgb(255, 165, 0)" stroke-width="4.00" stroke-opacity="1.00" stroke-linejoin="round"/>
<path d="M139.59,43.85 C139.59,43.85 139.48,43.86 139.48,43.86 C137.93,46.60 132.64,61.11 129.87,68.79 C120.48,95.35 106.04,137.23 103.51,146.46 C101.75,153.26 98.13,167.38 96.28,174.69 C95.54,177.50 94.57,181.15 94.34,181.98" fill="none" stroke="rgb(255, 165, 0)" stroke-width="4.00" stroke-opacity="1.00" stroke-linejoin="round"/>
<path d="M86.51,189.19 C86.51,189.19 86.73,188.37 86.73,188.37 C85.82,188.51 83.02,190.64 81.65,192.49 C78.61,196.66 73.68,208.76 72.05,213.96 C71.26,216.52 67.15,231.72 65.83,238.70 C64.53,246.07 61.85,262.81 61.16,268.93 C60.85,271.75 60.32,276.77 60.08,278.96" fill="none" stroke="rgb(255, 165, 0)" stroke-width="4.00" stroke-opacity="1.00" stroke-linejoin="round"/>
<path d="M113.33,164.17 C113.33,164.17 113.17,163.93 113.17,163.93 C113.17,163.93 112.08,163.78 112.08,163.78 C110.89,164.46 103.34,179.44 101.03,185.07 C97.22,194.73 85.85,227.72 81.65,241.53 C77.93,254.61 70.82,283.00 67.33,297.55 C66.19,302.08 64.72,307.82 64.40,309.02" fill="none" stroke="rgb(255, 165, 0)" stroke-width="4.00" stroke-opacity="1.00" stroke-linejoin="round"/>
<path d="M192.98,5.57 C192.98,5.57 189.56,6.77 189.56,6.77" fill="none" stroke="rgb(255, 165, 0)" stroke-width="4.00" stroke-opacity="1.00" stroke-linejoin="round"/>
<path d="M184.70,10.90 C184.70,10.90 183.75,10.22 183.75,10.22 C183.75,10.22 183.21,10.43 183.21,10.43 C181.74,12.80 168.09,48.14 162.81,62.29 C157.44,77.22 150.40,98.26 149.54,101.69" fill="none" stroke="rgb(255, 165, 0)" stroke-width="4.00" stroke-opacity="1.00" stroke-linejoin="round"/>
<path d="M238.88,-17.96 C238.80,-17.98 238.71,-17.97 238.60,-17.93 C237.09,-17.38 235.29,-15.67 232.45,-12.08 C225.34,-3.01 206.42,24.22 198.91,35.69 C191.60,47.51 176.48,73.80 169.20,86.85 C162.18,100.15 149.83,125.56 143.60,139.63 C139.70,148.70 136.73,156.45 134.07,164.95 C133.35,167.27 133.03,168.49 132.67,170.19" fill="none" stroke="rgb(255, 165, 0)" stroke-width="4.00" stroke-opacity="1.00" stroke-linejoin="round"/>
<path d="M205.69,33.08 C205.69,33.08 205.58,31.91 205.58,31.91 C204.93,32.83 201.47,49.07 199.79,56.55 C198.01,64.39 194.67,79.57 193.11,86.91 C192.35,90.54 191.58,95.31 191.38,96.80" fill="none" stroke="rgb(255, 165, 0)" stroke-width="4.00" stroke-opacity="1.00" stroke-linejoin="round"/>
<path d="M229.76,31.54 C229.76,31.54 229.79,31.22 229.79,31.22 C229.79,31.22 230.12,30.92 230.12,30.92" fill="none" stroke="rgb(255, 165, 0)" stroke-width="4.00" stroke-opacity="1.00" stroke-linejoin="round"/>
<path d="M240.63,12.69 C239.38,13.50 237.17,17.19 234.76,21.58 C227.00,35.93 211.46,65.35 204.46,79.64 C198.67,91.88 186.56,119.38 181.52,133.26 C179.14,140.35 174.98,154.69 172.98,161.91 C170.80,169.81 167.04,183.41 166.12,186.23" fill="none" stroke="rgb(255, 165, 0)" stroke-width="4.00" stroke-opacity="1.00" stroke-linejoin="round"/>
<path d="M179.12,134.86 C179.12,134.86 179.11,134.18 179.11,134.18 C178.52,135.71 178.14,136.59 177.30,138.42 C170.59,153.16 155.48,186.76 151.59,196.25 C147.29,207.03 137.63,233.71 132.38,248.71 C127.31,263.61 117.02,294.91 113.92,305.55 C110.61,317.77 104.64,345.98 102.76,359.91 C101.79,367.60 99.74,383.91 98.67,392.52 C97.31,403.03 96.65,405.70 96.35,406.76" fill="none" stroke="rgb(255, 165, 0)" stroke-width="4.00" stroke-opacity="1.00" stroke-linejoin="round"/>
<path d="M233.05,14.64 C233.05,14.64 232.95,12.16 232.95,12.16 C232.95,12.16 232.64,11.89 232.64,11.89 C232.04,12.78 229.09,24.59 227.17,34.03 C224.86,46.31 219.99,77.51 217.75,92.69 C215.63,108.81 211.40,143.56 210.41,155.75 C209.74,166.27 209.50,177.15 209.66,178.88" fill="none" stroke="rgb(255, 165, 0)" stroke-width="4.00" stroke-opacity="1.00" stroke-linejoin="round"/>
<path d="M216.85,116.47 C216.77,117.41 216.51,118.30 215.79,119.90 C211.36,129.68 198.38,161.24 192.57,175.32 C185.96,191.77 177.25,216.24 172.90,229.50 C170.87,236.25 166.88,249.99 165.15,256.56 C161.61,271.63 158.66,296.12 158.40,299.26 C158.05,303.54 157.88,308.36 157.84,309.37" fill="none" stroke="rgb(255, 165, 0)" stroke-width="4.00" stroke-opacity="1.00" stroke-linejoin="round"/>
<path d="M241.68,142.34 C241.68,142.34 242.74,141.84 242.74,141.84 C240.43,145.29 238.65,148.52 237.42,150.99 C233.27,159.55 220.24,189.82 214.43,203.59 C208.57,218.24 198.93,243.77 194.53,257.93 C190.17,272.76 184.93,295.35 181.22,315.22 C180.06,322.19 177.90,335.88 176.89,342.59 C175.95,349.09 174.94,356.12 174.77,357.54" fill="none" stroke="rgb(255, 165, 0)" stroke-width="4.00" stroke-opacity="1.00" stroke-linejoin="round"/>
<path d="M260.57,10.00 C260.59,9.02 260.62,8.37 260.66,8.06 C260.73,7.47 260.91,6.90 261.00,6.31 C261.37,3.74 261.44,0.91 261.32,0.99 C259.99,3.81 252.33,37.25 248.88,56.02 C246.41,70.52 242.24,99.80 240.69,113.27 C239.38,127.17 237.22,157.74 236.56,171.66 C236.42,175.04 236.24,179.63 236.20,180.84" fill="none" stroke="rgb(255, 165, 0)" stroke-width="4.00" stroke-opacity="1.00" stroke-linejoin="round"/>
<path d="M277.26,10.20 C277.26,10.20 277.12,9.79 277.12,9.79 C276.45,10.64 270.54,27.38 268.10,34.65 C262.87,51.17 255.20,76.14 250.56,94.95 C249.03,101.58 247.67,109.54 247.30,112.22" fill="none" stroke="rgb(255, 165, 0)" stroke-width="4.00" stroke-opacity="1.00" stroke-linejoin="round"/>
<path d="M277.86,19.57 C277.86,19.57 282.14,11.33 282.14,11.33 C282.18,11.46 270.57,54.86 267.26,69.14 C264.62,81.34 258.54,113.46 255.56,129.60 C255.02,132.51 254.68,135.36 254.60,136.13 C254.65,136.00 254.68,135.85 254.68,135.67 C254.62,133.37 254.77,129.44 254.83,128.11" fill="none" stroke="rgb(255, 165, 0)" stroke-width="4.00" stroke-opacity="1.00" stroke-linejoin="round"/>
<path d="M279.11,156.69 C279.11,156.69 279.59,155.80 279.59,155.80 C278.87,157.80 277.34,161.66 275.55,166.49 C270.55,180.70 260.93,208.46 256.02,223.85 C253.54,232.01 248.89,247.67 246.72,255.15 C243.47,267.32 237.50,295.69 235.44,306.04 C234.93,308.45 234.41,310.76 234.04,312.23" fill="none" stroke="rgb(255, 165, 0)" stroke-width="4.00" stroke-opacity="1.00" stroke-linejoin="round"/>
<path d="M342.61,77.09 C342.61,77.09 343.77,74.88 343.77,74.88 C343.86,75.14 340.97,81.56 339.64,84.53 C328.02,111.25 310.71,149.06 307.34,156.33 C304.65,162.25 301.58,169.06 301.19,169.95" fill="none" stroke="rgb(255, 165, 0)" stroke-width="4.00" stroke-opacity="1.00" stroke-linejoin="round"/>
<path d="M328.36,144.83 C327.28,145.11 325.63,149.39 325.24,150.41 C320.07,163.00 309.83,189.55 304.33,205.09 C299.24,219.74 288.42,251.01 282.70,267.62 C275.12,290.19 268.61,313.35 267.06,319.88 C263.51,335.13 259.06,363.84 258.38,372.94 C257.92,380.70 257.09,397.86 257.06,403.30 C257.07,406.49 257.24,413.53 257.33,416.56" fill="none" stroke="rgb(255, 165, 0)" stroke-width="4.00" stroke-opacity="1.00" stroke-linejoin="round"/>
<path d="M390.71,79.93 C390.71,79.93 390.69,77.93 390.69,77.93 C389.09,80.42 379.68,96.33 376.26,102.58 C368.52,117.55 358.27,140.76 352.56,154.71 C347.48,168.34 337.30,196.64 332.20,211.32 C331.30,213.93 330.06,217.59 329.72,218.65 C329.65,218.84 329.62,218.94 329.61,218.94" fill="none" stroke="rgb(255, 165, 0)" stroke-width="4.00" stroke-opacity="1.00" stroke-linejoin="round"/>
<path d="M350.44,187.64 C350.44,187.64 351.45,186.04 351.45,186.04 C350.81,187.52 350.01,189.36 349.35,190.98 C345.33,200.90 336.50,228.36 331.91,245.38 C328.18,260.10 320.62,290.75 316.80,306.69 C313.52,321.19 306.95,350.90 304.29,364.51 C300.92,383.18 297.32,408.84 296.36,422.28 C295.94,430.84 295.87,447.26 295.92,448.81 C295.93,449.04 296.06,451.47 296.06,451.61" fill="none" stroke="rgb(255, 165, 0)" stroke-width="4.00" stroke-opacity="1.00" stroke-linejoin="round"/>
<path d="M400.18,81.13 C399.45,82.39 399.08,83.22 398.47,85.08 C393.70,99.32 383.17,127.89 377.80,141.89 C372.31,156.36 361.99,185.71 358.11,199.51 C353.37,216.96 351.91,228.85 351.74,230.52" fill="none" stroke="rgb(255, 165, 0)" stroke-width="4.00" stroke-opacity="1.00" stroke-linejoin="round"/>
<path d="M429.24,62.44 C429.24,62.44 429.54,62.29 429.54,62.29 C428.49,64.68 427.76,66.69 426.08,71.76 C416.50,101.55 398.26,157.68 388.90,184.56 C379.22,211.37 363.21,255.78 360.78,266.08 C359.61,271.08 358.96,275.52 358.62,279.39" fill="none" stroke="rgb(255, 165, 0)" stroke-width="4.00" stroke-opacity="1.00" stroke-linejoin="round"/>
<path d="M400.28,220.59 C400.56,220.18 400.74,219.89 400.83,219.73 C400.91,219.57 401.02,219.31 401.14,218.96 C399.17,220.93 395.44,230.78 392.70,239.59 C387.79,255.51 378.13,287.08 373.39,302.72 C365.05,332.30 360.91,361.60 359.98,369.01 C359.65,371.90 359.15,376.14 358.98,377.48" fill="none" stroke="rgb(255, 165, 0)" stroke-width="4.00" stroke-opacity="1.00" stroke-linejoin="round"/>
<path d="M408.21,238.53 C408.21,238.53 408.95,238.14 408.95,238.14 C408.92,241.95 402.99,279.64 401.16,293.58 C399.47,308.12 396.71,338.36 395.77,353.11 C394.93,371.26 394.77,397.49 394.82,411.89 C395.13,427.24 395.52,450.08 395.60,457.57 C395.66,462.52 395.70,463.33 395.75,463.68" fill="none" stroke="rgb(255, 165, 0)" stroke-width="4.00" stroke-opacity="1.00" stroke-linejoin="round"/>
<path d="M446.49,291.77 C446.75,293.18 445.48,297.70 443.90,302.38 C439.91,314.45 432.34,343.39 429.45,357.77 C427.59,368.21 425.95,379.71 425.49,386.69 C424.28,405.57 426.43,415.71 426.76,416.96" fill="none" stroke="rgb(255, 165, 0)" stroke-width="4.00" stroke-opacity="1.00" stroke-linejoin="round"/>
</g>
</svg>
