<?xml version="1.0" encoding="UTF-8" standalone="no"?>
<!DOCTYPE svg PUBLIC "-//W3C//DTD SVG 1.1//EN" "http://www.w3.org/Graphics/SVG/1.1/DTD/svg11.dtd">
<svg width="128.40" height="181.68" viewBox="0.00 0.00 535.00 757.00" xmlns="http://www.w3.org/2000/svg" xmlns:xlink="http://www.w3.org/1999/xlink">
<g stroke-linecap="round" transform="translate(44.00, 155.00)" id="197_구름-1">
<path d="M370.52,-36.41 C370.33,-36.72 370.50,-38.26 371.05,-40.84 C371.64,-43.67 371.96,-45.72 371.91,-47.17 C371.83,-48.96 370.70,-53.39 369.88,-54.70 C368.96,-56.10 366.73,-57.70 365.82,-57.71 C363.82,-57.58 359.18,-54.84 356.44,-51.94 C352.74,-47.98 346.92,-37.74 344.39,-31.43 C341.87,-25.11 340.46,-17.19 341.16,-14.88 C341.16,-14.88 342.33,-14.19 342.33,-14.19 C343.59,-14.72 345.02,-15.78 346.01,-17.17 C347.92,-19.91 349.76,-27.52 349.44,-30.90 C349.27,-32.34 348.50,-34.81 347.98,-35.61 C347.31,-36.54 345.92,-37.35 344.90,-37.36 C343.18,-37.32 338.25,-34.40 335.37,-31.95 C330.76,-27.94 323.62,-17.31 321.13,-11.50 C318.37,-4.98 315.18,8.05 314.63,14.16 C314.38,17.11 314.52,23.41 314.87,25.30 C315.71,29.60 318.14,34.58 320.29,36.04 C321.53,36.82 324.15,37.49 325.71,37.37 C329.05,37.03 335.82,33.22 339.21,30.38 C341.82,28.14 343.54,25.64 344.37,24.18 C342.81,26.82 339.00,42.81 338.52,47.00 C337.77,53.76 337.85,65.94 339.96,71.91 C340.90,74.48 343.71,79.07 345.37,80.87 C347.25,82.85 351.04,84.98 353.37,85.60 C356.12,86.26 362.25,85.12 365.87,83.40 C369.12,81.81 374.78,77.64 377.04,74.95 C377.81,74.02 380.54,70.27 381.70,68.97 C382.49,69.31 382.98,74.84 383.23,77.76 C383.53,81.12 384.28,84.50 385.23,87.22 C385.87,89.03 388.27,93.47 390.95,95.34 C392.13,96.14 397.28,97.09 400.17,96.85 C403.16,96.58 408.43,94.81 411.98,93.14 C414.62,91.88 418.17,89.61 420.50,87.66 C422.66,85.83 426.06,81.91 427.59,79.64 C429.19,77.20 431.91,71.55 432.90,68.48 C433.81,65.63 435.05,59.73 435.33,57.17 C435.55,55.08 435.47,49.69 434.66,47.31 C433.65,44.51 431.24,43.12 427.08,41.42 C427.93,39.70 436.82,26.43 439.56,20.64 C442.94,13.46 446.49,-1.49 446.34,-4.98 C446.18,-7.72 445.72,-10.29 445.01,-11.65 C444.26,-13.02 442.37,-14.98 440.94,-15.92 C439.68,-16.70 436.87,-17.64 435.51,-17.67 C432.71,-17.64 426.81,-14.71 423.99,-12.46 C422.92,-11.60 420.89,-9.96 419.94,-9.18 C420.37,-10.24 428.39,-24.86 430.30,-30.98 C432.05,-36.73 433.66,-49.88 433.35,-52.61 C433.07,-54.69 431.84,-57.02 430.66,-57.66 C428.80,-58.55 422.58,-56.99 418.75,-54.98 C414.82,-52.89 409.20,-49.15 406.29,-46.90 C402.98,-44.32 397.45,-38.07 396.81,-37.56 C397.27,-40.07 399.49,-48.32 399.78,-50.25 C400.05,-52.15 400.27,-56.48 400.08,-57.80 C399.75,-59.83 398.47,-62.27 397.23,-63.11 C395.25,-64.36 389.98,-63.41 387.61,-62.27 C383.19,-60.06 374.16,-51.41 369.11,-44.56 C366.15,-40.50 360.11,-29.48 358.54,-26.08 C358.04,-25.06 357.43,-24.58 356.63,-24.29 C356.63,-24.29 356.17,-24.53 356.17,-24.53" fill="none" stroke="rgb(0, 0, 255)" stroke-width="4.00" stroke-opacity="1.00" stroke-linejoin="round"/>
</g>
</svg>
