<?xml version="1.0" encoding="UTF-8" standalone="no"?>
<!DOCTYPE svg PUBLIC "-//W3C//DTD SVG 1.1//EN" "http://www.w3.org/Graphics/SVG/1.1/DTD/svg11.dtd">
<svg width="128.40" height="181.68" viewBox="0.00 0.00 535.00 757.00" xmlns="http://www.w3.org/2000/svg" xmlns:xlink="http://www.w3.org/1999/xlink">
<g stroke-linecap="round" transform="translate(44.00, 155.00)" id="197_구름-4">
<path d="M14.62,50.54 C14.62,50.54 13.55,50.07 13.55,50.07 C13.55,50.07 13.45,49.76 13.45,49.76 C13.45,49.76 13.20,49.75 13.20,49.75 C12.79,51.43 13.78,55.25 15.12,57.76 C16.66,60.53 19.96,64.12 21.89,65.19 C23.08,65.81 25.63,66.43 27.01,66.38 C29.80,66.22 36.87,63.46 39.17,62.12 C45.11,58.65 54.42,52.05 59.20,46.72 C62.28,43.24 67.71,32.24 69.37,25.51 C70.28,21.74 71.43,6.88 70.96,0.13 C70.69,-3.30 68.76,-8.47 66.72,-10.33 C65.02,-11.80 61.02,-13.42 58.29,-13.52 C56.85,-13.57 55.67,-13.47 54.97,-13.31 C55.04,-13.59 56.41,-18.67 55.99,-21.66 C55.50,-24.78 53.40,-30.59 51.90,-33.29 C50.50,-35.76 46.38,-40.34 44.62,-41.13 C43.70,-41.49 40.72,-41.35 39.41,-40.72 C36.90,-39.45 33.95,-34.28 33.39,-32.39 C32.28,-28.46 32.03,-20.64 32.87,-18.07 C33.91,-18.88 34.47,-19.65 34.77,-20.94 C35.31,-23.39 35.19,-28.35 34.34,-31.33 C33.56,-33.97 30.51,-39.84 29.05,-41.13 C27.49,-42.42 23.93,-42.13 21.23,-40.90 C17.64,-39.20 8.95,-29.88 6.56,-25.62 C5.15,-23.06 3.16,-17.04 2.41,-13.45 C1.68,-9.89 1.21,-4.50 1.52,-3.21 C2.04,-1.19 3.15,0.76 4.53,2.05 C6.19,3.57 6.54,3.83 7.21,4.11 C6.95,3.58 6.14,3.00 5.16,2.87 C3.92,2.74 1.93,3.94 0.72,5.53 C-1.19,8.15 -3.69,25.02 -3.67,30.16 C-3.59,37.00 -1.32,39.77 -0.36,40.49 C0.76,40.60 1.71,40.33 2.81,39.43 C6.02,36.75 10.02,28.77 10.71,27.26 C9.13,32.49 8.45,44.17 8.42,52.30 C8.48,57.34 9.17,62.83 9.83,64.41 C10.23,65.31 11.30,66.23 12.04,66.36 C13.48,66.51 16.36,64.09 17.91,60.94 C18.88,58.93 19.38,57.43 19.93,55.00" fill="none" stroke="rgb(0, 0, 255)" stroke-width="4.00" stroke-opacity="1.00" stroke-linejoin="round"/>
</g>
</svg>
