<?xml version="1.0" encoding="UTF-8" standalone="no"?>
<!DOCTYPE svg PUBLIC "-//W3C//DTD SVG 1.1//EN" "http://www.w3.org/Graphics/SVG/1.1/DTD/svg11.dtd">
<svg width="128.40" height="181.68" viewBox="0.00 0.00 535.00 757.00" xmlns="http://www.w3.org/2000/svg" xmlns:xlink="http://www.w3.org/1999/xlink">
<g stroke-linecap="round" transform="translate(44.00, 155.00)" id="197_탁자">
<path d="M5.26,438.75 C5.17,438.70 5.10,438.65 5.07,438.60 C4.97,438.46 4.88,438.10 4.87,437.86 C0.97,440.17 -1.72,441.89 -2.28,443.01 C-2.55,443.64 -2.47,445.00 -2.04,445.78 C-0.95,447.68 3.32,450.32 6.87,451.99 C9.28,453.08 26.64,457.80 31.00,458.41 C35.42,458.99 48.39,459.19 55.71,460.02 C64.61,460.85 66.19,460.46 66.99,459.97 C67.87,458.48 66.25,432.26 65.64,403.45 C65.46,396.32 65.46,387.52 65.24,386.05 C64.61,385.82 56.94,387.33 55.95,387.46 C51.38,388.05 31.80,387.75 26.79,388.36 C19.03,389.34 11.29,391.90 9.48,393.02 C8.43,393.72 7.11,410.78 6.55,418.24 C6.28,421.84 3.84,440.34 4.06,441.85 C4.06,441.85 4.62,439.53 4.62,439.53" fill="none" stroke="rgb(255, 153, 237)" stroke-width="4.00" stroke-opacity="1.00" stroke-linejoin="round"/>
<path d="M8.00,396.58 C8.00,396.58 7.77,396.80 7.77,396.80 C6.78,395.96 5.04,395.73 2.12,396.10 C1.69,396.15 1.26,396.22 0.84,396.31 C0.84,396.31 0.53,406.09 0.53,406.09 C0.53,406.09 -7.34,405.52 -7.34,405.52 C-7.34,405.52 -7.97,414.52 -7.97,414.52 C-7.97,414.52 -17.51,411.82 -17.51,411.82 C-17.51,411.82 -17.80,422.53 -17.80,422.53 C-17.80,422.53 -30.66,422.11 -30.66,422.11 C-30.66,422.11 -29.98,421.35 -29.98,421.35" fill="none" stroke="rgb(255, 153, 237)" stroke-width="4.00" stroke-opacity="1.00" stroke-linejoin="round"/>
<path d="M-24.55,424.10 C-24.57,424.48 -24.48,426.00 -24.28,428.49 C-23.88,433.81 -24.30,435.12 -24.90,435.61 C-24.90,435.61 -31.77,434.88 -31.77,434.88 C-31.69,436.04 -31.40,438.20 -31.03,440.02 C-30.63,442.01 -30.20,442.96 -29.82,443.05 C-29.82,443.05 -29.58,442.55 -29.58,442.55" fill="none" stroke="rgb(255, 153, 237)" stroke-width="4.00" stroke-opacity="1.00" stroke-linejoin="round"/>
</g>
</svg>
