<?xml version="1.0" encoding="UTF-8" standalone="no"?>
<!DOCTYPE svg PUBLIC "-//W3C//DTD SVG 1.1//EN" "http://www.w3.org/Graphics/SVG/1.1/DTD/svg11.dtd">
<svg width="128.40" height="181.68" viewBox="0.00 0.00 535.00 757.00" xmlns="http://www.w3.org/2000/svg" xmlns:xlink="http://www.w3.org/1999/xlink">
<g stroke-linecap="round" transform="translate(44.00, 155.00)" id="198_사람">
<path d="M35.95,256.77 C35.95,256.77 35.95,256.43 35.95,256.43 C35.89,256.58 33.66,257.54 32.76,258.60 C31.10,260.59 28.06,264.64 27.27,266.29 C26.37,268.22 25.56,272.19 25.59,274.84 C25.64,277.08 26.61,281.20 27.28,282.06 C28.04,282.96 31.71,284.05 35.37,284.15 C38.70,284.23 44.30,282.70 46.04,281.90 C48.12,280.93 52.85,277.71 54.15,276.18 C56.00,273.94 58.40,268.15 58.50,264.95 C58.55,262.29 57.40,258.34 56.76,257.21 C56.06,256.03 54.29,254.53 53.06,254.02 C51.79,253.50 48.81,253.01 46.87,253.02 C44.82,253.05 41.33,253.86 39.68,254.66 C37.93,255.52 35.75,257.06 34.42,258.34 C34.19,258.57 34.02,258.78 33.92,258.97" fill="none" stroke="rgb(255, 165, 0)" stroke-width="3.56" stroke-opacity="1.00" stroke-linejoin="round"/>
<path d="M34.94,286.16 C34.95,286.05 34.95,285.97 34.94,285.91 C34.94,285.85 34.92,285.73 34.90,285.54 C34.66,286.85 33.70,290.52 32.54,292.40 C31.81,293.56 20.85,306.31 16.49,311.24 C12.58,315.97 5.51,327.11 3.74,332.48 C3.05,334.67 -1.12,355.00 -1.81,358.10 C-2.33,360.60 -3.08,368.07 -3.04,369.82 C-2.92,372.68 -1.29,375.95 -0.49,376.21 C0.32,376.39 1.89,375.70 2.49,374.79 C3.99,372.50 8.50,359.18 9.29,356.42 C10.03,353.81 12.89,339.31 14.08,335.73 C14.84,333.45 16.93,328.66 18.55,325.62 C20.74,321.55 24.42,317.06 26.51,315.75 C27.82,314.96 29.49,314.40 29.89,314.49 C30.41,314.81 24.34,347.26 22.06,360.00 C21.17,364.07 20.85,367.82 21.42,369.40 C22.08,371.08 24.95,372.87 27.46,373.24 C30.07,373.59 35.86,373.53 39.01,372.93 C40.29,372.67 50.28,370.28 51.29,369.97 C54.50,368.95 57.49,366.75 58.29,364.81 C59.23,362.38 59.55,351.52 58.43,341.44 C56.11,320.87 56.67,314.90 57.13,314.34 C57.50,314.22 58.42,314.70 59.34,315.96 C62.36,320.21 65.40,331.27 66.58,337.45 C67.71,343.36 68.80,356.18 69.68,360.56 C70.28,363.38 71.91,365.36 72.99,365.33 C73.95,365.25 76.01,364.26 76.95,363.44 C77.89,362.58 79.50,360.09 80.03,358.55 C81.08,355.35 81.22,344.79 80.03,338.47 C78.78,332.00 76.28,324.29 72.40,314.63 C71.34,312.03 68.72,305.92 67.93,303.81 C66.84,300.93 64.10,297.20 62.11,295.10 C60.11,293.04 56.43,291.53 54.59,291.54 C51.92,291.57 50.58,291.31 50.18,290.12 C49.17,286.73 50.31,281.60 50.37,281.70 C50.37,281.70 50.39,281.81 50.39,281.81" fill="none" stroke="rgb(255, 165, 0)" stroke-width="3.56" stroke-opacity="1.00" stroke-linejoin="round"/>
<path d="M23.67,370.40 C23.67,370.40 23.35,370.51 23.35,370.51 C23.20,371.11 22.75,377.18 22.34,379.29 C21.87,381.69 12.25,425.47 9.95,431.36 C6.00,441.40 3.99,447.98 4.93,450.15 C5.40,451.15 6.83,452.49 7.76,452.81 C8.90,453.18 11.08,452.87 12.62,452.17 C15.50,450.81 20.35,446.00 22.37,441.80 C23.90,438.59 27.47,427.10 28.96,422.12 C30.70,416.72 38.03,399.84 39.07,395.57 C39.81,392.49 39.96,390.18 39.96,389.34 C39.79,390.80 40.80,401.08 41.13,410.31 C41.42,417.40 42.48,424.16 44.46,435.17 C45.03,438.35 46.14,444.52 47.25,446.28 C47.45,446.58 49.44,447.21 51.98,446.81 C54.01,446.47 62.59,444.31 63.64,443.88 C64.61,443.45 65.18,441.73 65.26,438.92 C65.31,436.98 59.51,395.01 58.41,389.79 C58.08,388.24 53.13,365.64 52.51,365.00 C52.51,365.00 52.10,365.35 52.10,365.35" fill="none" stroke="rgb(255, 165, 0)" stroke-width="3.56" stroke-opacity="1.00" stroke-linejoin="round"/>
<path d="M6.01,451.14 C6.01,451.14 5.47,450.62 5.47,450.62 C5.39,450.65 4.78,453.95 7.01,458.32 C7.85,459.91 9.71,461.90 10.92,462.29 C12.05,462.62 15.52,462.05 17.00,461.29 C18.26,460.63 20.62,458.66 21.33,457.52 C22.10,456.22 22.66,452.89 22.41,451.05 C22.18,449.48 21.39,445.97 21.25,445.21 C21.14,444.63 21.13,443.90 21.14,443.92 C21.14,443.92 21.18,443.98 21.18,443.98" fill="none" stroke="rgb(255, 165, 0)" stroke-width="3.56" stroke-opacity="1.00" stroke-linejoin="round"/>
<path d="M45.32,446.56 C45.32,446.56 45.29,446.50 45.29,446.50 C45.29,446.50 45.39,446.46 45.39,446.46 C46.04,446.93 48.60,452.31 49.38,453.24 C50.57,454.62 53.04,455.60 54.48,455.44 C55.96,455.23 58.66,453.76 59.66,452.57 C60.67,451.34 61.81,447.81 61.84,445.92 C61.86,443.92 61.61,440.86 61.31,439.18 C61.25,438.84 61.14,438.32 60.99,437.62" fill="none" stroke="rgb(255, 165, 0)" stroke-width="3.56" stroke-opacity="1.00" stroke-linejoin="round"/>
<path d="M-3.68,359.63 C-3.68,359.63 -3.89,359.47 -3.89,359.47 C-0.23,358.59 7.84,357.38 8.52,357.40 C8.67,357.41 8.76,357.47 8.80,357.56" fill="none" stroke="rgb(255, 165, 0)" stroke-width="3.56" stroke-opacity="1.00" stroke-linejoin="round"/>
<path d="M68.60,351.53 C68.60,351.53 68.46,350.94 68.46,350.94 C68.79,350.87 72.19,350.48 76.06,349.63 C79.15,348.96 81.14,348.74 81.70,348.76 C81.70,348.76 81.83,348.87 81.83,348.87 C81.83,348.87 81.67,348.96 81.67,348.96" fill="none" stroke="rgb(255, 165, 0)" stroke-width="3.56" stroke-opacity="1.00" stroke-linejoin="round"/>
<path d="M34.26,268.91 C34.26,268.91 34.39,268.35 34.39,268.35 C34.19,268.55 33.62,269.57 33.24,270.47 C32.73,271.70 32.76,273.92 33.57,274.85 C34.73,275.30 36.83,274.11 37.61,272.67 C38.34,271.24 37.89,268.95 36.80,268.54 C35.98,268.27 34.70,268.84 34.37,269.15 C34.37,269.15 34.39,269.36 34.39,269.36" fill="none" stroke="rgb(255, 165, 0)" stroke-width="3.56" stroke-opacity="1.00" stroke-linejoin="round"/>
<path d="M49.46,265.78 C49.46,265.78 49.06,265.28 49.06,265.28 C49.06,265.28 48.37,265.41 48.37,265.41 C47.56,266.62 47.45,269.66 48.23,270.38 C49.15,271.14 51.57,270.02 52.10,268.97 C52.55,268.00 52.61,266.26 52.32,265.49 C51.99,264.72 50.71,263.57 49.76,263.47 C47.08,263.29 45.53,265.99 45.43,266.26" fill="none" stroke="rgb(255, 165, 0)" stroke-width="3.56" stroke-opacity="1.00" stroke-linejoin="round"/>
<path d="M42.76,269.30 C42.76,269.30 42.73,269.18 42.73,269.18 C42.73,269.18 42.65,269.18 42.65,269.18 C42.38,270.23 41.74,275.45 41.46,277.92 C41.43,278.16 41.37,278.43 41.28,278.72 C41.28,278.72 41.18,278.73 41.18,278.73" fill="none" stroke="rgb(255, 165, 0)" stroke-width="3.56" stroke-opacity="1.00" stroke-linejoin="round"/>
<path d="M39.54,277.74 C39.54,277.74 38.83,278.17 38.83,278.17 C38.42,279.54 38.57,281.29 39.06,281.76 C39.80,282.40 42.51,281.32 44.32,279.72 C45.15,278.97 46.65,277.20 47.22,276.32 C47.55,275.79 47.67,275.29 47.63,275.13 C47.63,275.13 47.58,275.10 47.58,275.10" fill="none" stroke="rgb(255, 165, 0)" stroke-width="3.56" stroke-opacity="1.00" stroke-linejoin="round"/>
<path d="M34.26,253.96 C34.26,253.96 34.76,253.48 34.76,253.48 C34.66,254.16 31.55,263.80 31.32,264.72 C31.25,265.01 31.22,265.19 31.26,265.26 C31.26,265.26 31.44,264.89 31.44,264.89" fill="none" stroke="rgb(255, 165, 0)" stroke-width="3.56" stroke-opacity="1.00" stroke-linejoin="round"/>
<path d="M37.32,249.07 C37.26,249.13 36.94,249.47 36.76,250.14 C35.76,253.99 34.20,263.92 34.49,264.10 C35.22,263.58 36.97,259.70 37.28,258.75 C37.50,258.08 38.73,252.71 38.91,251.93" fill="none" stroke="rgb(255, 165, 0)" stroke-width="3.56" stroke-opacity="1.00" stroke-linejoin="round"/>
<path d="M39.15,250.85 C39.15,250.85 39.45,249.74 39.45,249.74 C39.45,249.74 35.90,264.83 35.90,264.83 C35.90,264.83 37.31,262.60 37.31,262.60" fill="none" stroke="rgb(255, 165, 0)" stroke-width="3.56" stroke-opacity="1.00" stroke-linejoin="round"/>
<path d="M41.66,249.68 C41.66,249.68 41.58,249.04 41.58,249.04 C41.58,249.04 38.84,261.49 38.84,261.49 C38.84,261.49 40.80,258.48 40.80,258.48" fill="none" stroke="rgb(255, 165, 0)" stroke-width="3.56" stroke-opacity="1.00" stroke-linejoin="round"/>
<path d="M45.48,247.37 C45.48,247.37 45.48,247.27 45.48,247.27 C45.18,247.31 43.77,250.39 42.73,253.51 C41.79,256.34 40.74,260.51 40.98,261.04 C41.47,260.65 42.81,257.74 43.33,256.34 C43.59,255.62 45.11,251.24 45.65,249.66" fill="none" stroke="rgb(255, 165, 0)" stroke-width="3.56" stroke-opacity="1.00" stroke-linejoin="round"/>
<path d="M46.15,248.22 C46.15,248.22 45.99,248.12 45.99,248.12 C45.99,248.12 45.67,248.22 45.67,248.22 C45.67,248.22 42.76,261.02 42.76,261.02 C42.76,261.02 44.52,259.02 44.52,259.02" fill="none" stroke="rgb(255, 165, 0)" stroke-width="3.56" stroke-opacity="1.00" stroke-linejoin="round"/>
<path d="M48.46,247.76 C48.46,247.76 48.52,247.34 48.52,247.34 C48.52,247.34 44.85,260.58 44.85,260.58 C45.30,260.48 46.27,259.06 47.18,256.91 C47.55,256.03 49.81,249.52 49.95,249.16" fill="none" stroke="rgb(255, 165, 0)" stroke-width="3.56" stroke-opacity="1.00" stroke-linejoin="round"/>
<path d="M50.61,247.19 C50.61,247.19 51.68,245.60 51.68,245.60 C51.68,245.60 47.88,259.16 47.88,259.16 C48.32,259.03 49.56,256.57 51.43,252.60 C52.17,251.01 52.41,250.57 52.62,250.36 C52.62,250.36 51.08,258.72 51.08,258.72 C51.08,258.72 54.56,252.58 54.56,252.58 C54.56,252.58 53.77,260.49 53.77,260.49 C53.77,260.49 57.02,254.54 57.02,254.54 C57.02,254.54 56.38,261.36 56.38,261.36 C56.66,261.46 56.94,261.32 57.20,260.91 C57.25,260.83 57.31,260.72 57.38,260.57" fill="none" stroke="rgb(255, 165, 0)" stroke-width="3.56" stroke-opacity="1.00" stroke-linejoin="round"/>
<path d="M60.09,255.19 C60.05,255.28 59.73,256.18 59.52,256.79 C58.85,258.78 57.73,263.15 57.20,265.74 C57.15,265.95 57.12,266.13 57.11,266.28" fill="none" stroke="rgb(255, 165, 0)" stroke-width="3.56" stroke-opacity="1.00" stroke-linejoin="round"/>
</g>
</svg>
