<?xml version="1.0" encoding="UTF-8" standalone="no"?>
<!DOCTYPE svg PUBLIC "-//W3C//DTD SVG 1.1//EN" "http://www.w3.org/Graphics/SVG/1.1/DTD/svg11.dtd">
<svg width="128.40" height="181.68" viewBox="0.00 0.00 535.00 757.00" xmlns="http://www.w3.org/2000/svg" xmlns:xlink="http://www.w3.org/1999/xlink">
<g stroke-linecap="round" transform="translate(44.00, 155.00)" id="199_우산">
<path d="M152.72,338.82 C152.72,338.82 153.02,338.33 153.02,338.33 C154.78,338.53 156.65,338.70 158.14,338.76 C161.62,338.89 166.76,338.10 171.05,336.98 C175.08,335.90 179.74,333.93 181.62,332.06 C184.74,328.82 189.01,317.60 189.81,314.08 C190.61,310.43 191.48,298.29 190.64,292.76 C189.94,288.32 186.81,280.12 183.91,276.56 C181.09,273.14 173.20,268.06 168.06,266.14 C163.63,264.52 152.55,262.52 146.16,262.58 C134.14,262.73 126.35,263.00 121.82,263.90 C117.65,264.74 107.69,268.52 100.93,271.94 C92.50,276.37 85.91,280.44 78.78,285.66 C72.80,290.14 67.40,294.54 62.67,299.37 C60.41,301.72 58.11,304.81 56.68,307.63 C55.39,310.22 53.90,314.87 53.47,317.31 C53.08,319.67 53.19,324.95 53.58,326.51 C54.00,328.10 55.78,330.78 56.76,331.44 C58.87,332.78 64.48,333.80 68.74,334.02 C73.59,334.24 101.27,330.06 118.16,326.55 C125.56,325.12 136.81,324.53 141.18,325.41 C142.94,325.79 145.66,329.56 146.02,330.06 C146.87,331.26 147.78,332.72 147.75,332.69 C147.75,332.69 147.39,332.45 147.39,332.45" fill="none" stroke="rgb(255, 165, 0)" stroke-width="3.30" stroke-opacity="1.00" stroke-linejoin="round"/>
<path d="M105.28,277.20 C105.28,277.20 105.67,276.13 105.67,276.13 C104.72,275.93 98.67,285.92 94.85,293.52 C92.20,298.88 88.11,311.79 87.18,317.43 C85.97,325.36 86.21,329.27 86.34,329.88" fill="none" stroke="rgb(255, 165, 0)" stroke-width="3.30" stroke-opacity="1.00" stroke-linejoin="round"/>
<path d="M114.09,268.32 C114.09,268.32 114.12,268.12 114.12,268.12 C112.05,271.68 109.25,277.43 108.61,278.84 C105.67,285.43 100.87,299.18 99.10,306.50 C98.31,309.78 97.36,316.28 97.08,319.82 C96.84,323.12 96.97,325.08 97.15,326.40" fill="none" stroke="rgb(255, 165, 0)" stroke-width="3.30" stroke-opacity="1.00" stroke-linejoin="round"/>
<path d="M132.34,268.42 C132.31,268.51 132.26,268.60 132.18,268.72 C129.80,272.44 125.98,284.27 124.08,291.89 C123.21,295.48 120.60,309.11 119.69,316.71 C119.37,319.52 119.10,323.32 119.03,324.25" fill="none" stroke="rgb(255, 165, 0)" stroke-width="3.30" stroke-opacity="1.00" stroke-linejoin="round"/>
<path d="M151.69,270.08 C151.69,270.08 151.62,269.74 151.62,269.74 C151.54,269.71 148.80,273.12 143.28,292.01 C141.24,299.22 139.01,310.19 138.55,313.29 C138.30,314.99 138.21,316.38 138.18,318.35" fill="none" stroke="rgb(255, 165, 0)" stroke-width="3.30" stroke-opacity="1.00" stroke-linejoin="round"/>
<path d="M157.95,287.97 C157.95,287.97 157.73,287.28 157.73,287.28 C156.77,291.62 153.90,310.96 154.08,313.97 C154.17,315.36 154.44,316.55 154.58,316.52 C154.58,316.52 155.43,315.57 155.43,315.57" fill="none" stroke="rgb(255, 165, 0)" stroke-width="3.30" stroke-opacity="1.00" stroke-linejoin="round"/>
<path d="M175.77,274.58 C175.77,274.58 175.72,274.37 175.72,274.37 C175.25,274.71 170.39,290.10 168.29,296.88 C164.66,309.37 163.23,318.86 162.90,321.54" fill="none" stroke="rgb(255, 165, 0)" stroke-width="3.30" stroke-opacity="1.00" stroke-linejoin="round"/>
<path d="M149.60,330.27 C149.73,330.09 149.86,329.90 149.98,329.72 C150.12,329.53 150.25,329.33 150.39,329.14 C150.39,329.14 150.33,328.36 150.33,328.36 C150.33,328.36 149.83,327.85 149.83,327.85 C149.17,327.86 148.40,328.17 147.87,328.85 C146.67,330.45 146.00,336.30 146.15,339.33 C146.42,344.08 148.29,355.91 150.14,360.96 C152.07,366.31 156.41,382.74 156.85,386.41 C157.72,395.83 160.99,407.13 161.10,412.60 C161.79,424.34 162.49,443.67 162.51,445.86 C162.58,448.82 164.36,452.12 165.38,451.96 C166.85,451.53 169.05,447.83 169.81,444.36 C170.27,442.11 169.84,430.20 168.99,422.20 C168.15,415.13 162.60,384.91 160.50,372.83 C158.56,359.24 153.88,330.10 153.71,329.71 C153.20,328.56 151.88,328.07 150.39,328.29 C147.74,328.70 146.53,329.38 146.02,330.79 C145.95,330.98 145.91,331.23 145.89,331.56" fill="none" stroke="rgb(255, 165, 0)" stroke-width="3.30" stroke-opacity="1.00" stroke-linejoin="round"/>
<path d="M155.33,381.88 C155.33,381.88 154.72,381.97 154.72,381.97 C155.08,381.60 157.40,381.46 160.45,381.36 C160.86,381.34 161.18,381.33 161.42,381.31" fill="none" stroke="rgb(255, 165, 0)" stroke-width="3.30" stroke-opacity="1.00" stroke-linejoin="round"/>
</g>
</svg>
