<?xml version="1.0" encoding="UTF-8" standalone="no"?>
<!DOCTYPE svg PUBLIC "-//W3C//DTD SVG 1.1//EN" "http://www.w3.org/Graphics/SVG/1.1/DTD/svg11.dtd">
<svg width="64.20" height="90.84" viewBox="0.00 0.00 535.00 757.00" xmlns="http://www.w3.org/2000/svg" xmlns:xlink="http://www.w3.org/1999/xlink">
<g stroke-linecap="round" transform="translate(44.00, 155.00)" id="2-가방">
<path d="M260.36,356.91 C260.36,356.91 259.71,356.63 259.71,356.63 C259.43,356.07 259.54,354.11 260.04,352.74 C261.06,350.03 265.54,343.30 267.21,341.91 C269.21,340.29 273.85,339.03 277.71,339.16 C279.62,339.24 281.92,339.56 282.55,339.81 C283.97,340.40 286.67,342.51 287.68,343.78 C289.84,346.55 292.17,352.69 292.21,355.04 C292.23,356.93 291.86,358.31 291.76,358.50 C291.76,358.50 291.53,358.23 291.53,358.23" fill="none" stroke="rgb(72, 124, 28)" stroke-width="3.25" stroke-opacity="1.00" stroke-linejoin="round"/>
<path d="M265.93,358.12 C265.93,358.12 265.21,358.04 265.21,358.04 C264.85,357.30 266.26,352.90 268.22,350.54 C269.68,348.84 273.73,346.58 275.49,346.30 C277.57,346.00 282.08,347.02 284.28,348.62 C285.97,349.88 287.75,353.34 288.14,357.50 C288.18,357.84 288.19,358.05 288.18,358.11 C288.16,358.20 288.10,358.44 287.99,358.83" fill="none" stroke="rgb(72, 124, 28)" stroke-width="3.25" stroke-opacity="1.00" stroke-linejoin="round"/>
<path d="M259.30,356.71 C259.28,356.76 260.51,359.04 272.18,358.36 C283.62,357.69 297.63,358.32 297.71,358.38 C297.83,358.65 296.36,391.25 296.77,395.02 C296.78,395.11 296.78,395.16 296.78,395.17 C296.78,395.17 296.42,394.98 296.42,394.98" fill="none" stroke="rgb(72, 124, 28)" stroke-width="3.25" stroke-opacity="1.00" stroke-linejoin="round"/>
<path d="M258.44,357.82 C258.49,358.03 259.15,360.48 259.33,363.28 C259.53,366.62 256.89,377.88 256.65,378.79 C256.51,379.29 254.56,384.50 254.39,385.71 C254.17,387.65 256.06,396.20 256.75,396.39 C257.28,396.50 266.97,395.86 275.97,395.67 C282.97,395.49 296.58,396.26 296.73,396.26 C296.81,395.94 296.62,394.91 296.54,394.51 C296.50,394.31 296.16,393.90 295.86,393.53" fill="none" stroke="rgb(72, 124, 28)" stroke-width="3.25" stroke-opacity="1.00" stroke-linejoin="round"/>
</g>
</svg>
