<?xml version="1.0" encoding="UTF-8" standalone="no"?>
<!DOCTYPE svg PUBLIC "-//W3C//DTD SVG 1.1//EN" "http://www.w3.org/Graphics/SVG/1.1/DTD/svg11.dtd">
<svg width="64.20" height="90.84" viewBox="0.00 0.00 535.00 757.00" xmlns="http://www.w3.org/2000/svg" xmlns:xlink="http://www.w3.org/1999/xlink">
<g stroke-linecap="round" transform="translate(154.00, 267.00)" id="2-사람-2">
<path d="M154.41,81.25 C154.41,81.25 154.61,81.25 154.61,81.25 C153.76,80.72 149.14,79.57 145.93,79.32 C143.85,79.18 136.85,79.74 135.66,80.19 C133.85,80.90 130.22,84.13 127.93,87.52 C125.70,90.85 121.92,100.51 120.81,105.56 C119.75,110.47 119.12,119.85 120.30,126.92 C120.86,130.51 121.22,136.80 121.08,140.35 C120.68,148.57 118.45,151.92 117.21,153.25 C117.21,153.25 117.03,152.09 117.03,152.09" fill="none" stroke="rgb(95, 174, 29)" stroke-width="3.25" stroke-opacity="1.00" stroke-linejoin="round"/>
<path d="M158.51,90.28 C158.04,90.21 157.76,90.07 157.66,90.04 C156.34,89.63 154.05,90.15 152.62,91.20 C149.54,93.52 145.36,99.22 143.40,102.36 C140.71,106.72 136.94,118.49 136.35,124.07 C136.14,126.09 136.12,131.19 136.51,133.59 C136.92,136.03 138.90,144.78 139.08,146.46 C139.35,149.10 138.73,152.07 138.06,153.12 C137.22,154.40 134.24,156.15 133.04,156.36 C132.55,156.44 130.94,156.22 128.12,155.79" fill="none" stroke="rgb(95, 174, 29)" stroke-width="3.25" stroke-opacity="1.00" stroke-linejoin="round"/>
<path d="M146.60,90.08 C146.29,89.55 145.36,88.88 144.59,88.84 C143.90,88.87 141.33,91.20 139.67,93.06 C137.86,95.13 135.85,98.96 135.24,101.40 C134.09,106.26 133.91,115.35 134.54,127.72 C134.92,135.92 134.70,146.50 133.02,150.14 C131.25,153.82 125.42,158.25 124.51,158.40 C123.70,158.43 121.63,156.45 120.53,155.37" fill="none" stroke="rgb(95, 174, 29)" stroke-width="3.25" stroke-opacity="1.00" stroke-linejoin="round"/>
<path d="M139.01,89.66 C138.68,89.75 136.80,90.03 135.69,91.29 C134.77,92.37 133.06,95.88 131.17,100.51 C129.77,103.96 128.25,109.04 128.05,112.08 C127.78,116.56 127.99,143.38 127.48,146.56 C127.26,147.93 125.74,152.10 124.42,153.78 C123.40,155.04 120.04,156.15 119.79,156.11 C119.55,156.07 118.90,155.90 117.86,155.58" fill="none" stroke="rgb(95, 174, 29)" stroke-width="3.25" stroke-opacity="1.00" stroke-linejoin="round"/>
<path d="M153.59,82.68 C153.56,82.40 153.65,82.01 153.90,81.57 C154.71,80.29 159.19,77.46 162.80,76.77 C167.28,76.00 171.18,76.43 175.22,77.76 C177.87,78.67 182.70,81.11 183.98,82.01 C185.57,83.18 188.61,87.74 189.82,90.82 C191.51,95.22 193.72,107.60 193.83,113.24 C193.88,116.32 193.42,122.22 192.96,125.18 C192.53,127.80 190.66,135.42 190.41,136.57 C189.54,140.59 189.46,144.13 190.05,145.11 C190.57,145.88 192.02,146.62 193.67,146.35 C194.41,146.22 195.59,145.07 195.71,144.32 C195.80,143.65 195.29,142.36 194.82,141.93 C194.39,141.56 192.96,141.30 191.66,141.94 C189.79,142.93 188.48,144.93 187.55,146.81 C187.55,146.81 188.49,145.72 188.49,145.72" fill="none" stroke="rgb(95, 174, 29)" stroke-width="3.25" stroke-opacity="1.00" stroke-linejoin="round"/>
<path d="M155.64,88.84 C155.99,88.85 156.22,88.85 156.32,88.84 C156.96,88.81 165.51,86.84 168.65,87.36 C171.56,87.89 175.65,90.33 177.15,91.66 C178.89,93.21 181.86,96.26 182.94,97.89 C184.87,100.86 187.91,112.09 188.06,118.49 C188.15,123.97 184.08,139.52 184.34,142.45 C184.61,144.77 185.98,148.05 187.36,149.32 C188.66,150.47 191.28,151.43 192.90,151.37 C192.90,151.37 195.68,148.19 195.68,148.19" fill="none" stroke="rgb(95, 174, 29)" stroke-width="3.25" stroke-opacity="1.00" stroke-linejoin="round"/>
<path d="M139.62,142.64 C139.62,142.64 139.42,141.92 139.42,141.92 C139.44,141.87 145.65,145.92 148.11,146.88 C150.11,147.63 156.97,147.82 159.03,147.70 C161.43,147.54 166.88,146.22 170.08,144.71 C171.89,143.84 176.88,140.51 179.04,137.79 C180.38,135.85 182.02,133.53 182.07,133.35 C182.11,133.17 182.27,132.43 182.54,131.14" fill="none" stroke="rgb(95, 174, 29)" stroke-width="3.25" stroke-opacity="1.00" stroke-linejoin="round"/>
<path d="M140.44,110.20 C140.44,110.20 140.44,110.37 140.44,110.37 C140.94,109.85 142.73,109.07 144.15,109.00 C148.17,108.91 151.92,112.72 152.29,113.24 C152.37,113.35 152.39,113.44 152.35,113.48" fill="none" stroke="rgb(95, 174, 29)" stroke-width="3.25" stroke-opacity="1.00" stroke-linejoin="round"/>
<path d="M145.58,114.51 C144.55,114.75 143.71,115.00 143.46,115.21 C143.04,115.61 142.44,118.52 142.54,119.97 C142.65,121.28 143.74,122.73 144.71,123.01 C145.76,123.26 148.15,122.48 148.53,121.34 C148.84,120.16 146.90,117.64 145.06,116.68 C144.24,116.28 142.91,116.85 142.87,117.85 C142.85,118.79 144.18,120.82 145.20,120.96 C147.47,121.21 147.97,117.98 147.44,117.20 C146.30,117.28 145.68,117.55 145.52,118.21 C145.26,119.40 145.94,120.22 146.43,120.52 C147.62,120.00 148.09,119.58 148.01,118.99 C147.93,118.42 147.72,118.04 147.34,117.64 C147.34,117.64 145.89,117.80 145.89,117.80 C145.89,117.80 146.40,120.47 146.40,120.47" fill="none" stroke="rgb(95, 174, 29)" stroke-width="3.25" stroke-opacity="1.00" stroke-linejoin="round"/>
<path d="M162.42,111.02 C162.42,111.02 162.00,111.02 162.00,111.02 C162.20,110.61 163.86,109.27 165.28,108.82 C166.83,108.36 170.38,108.20 172.35,108.74 C173.93,109.19 177.81,111.17 179.01,111.84 C179.01,111.84 178.47,112.23 178.47,112.23" fill="none" stroke="rgb(95, 174, 29)" stroke-width="3.25" stroke-opacity="1.00" stroke-linejoin="round"/>
<path d="M171.86,114.31 C170.76,114.31 169.03,114.32 168.63,114.37 C167.73,114.53 166.88,115.74 166.97,119.31 C167.04,120.88 169.39,122.62 171.49,122.78 C173.19,122.87 175.96,121.96 176.44,121.33 C176.89,120.67 176.40,118.97 175.48,117.95 C174.57,116.98 172.16,115.46 171.18,115.18 C169.98,114.88 168.37,116.19 168.44,117.60 C168.55,119.03 170.33,120.97 171.54,120.85 C172.54,120.72 173.40,119.10 173.06,118.20 C172.69,117.31 171.10,117.01 170.31,117.71 C169.94,118.71 170.72,120.25 171.69,120.67 C172.64,121.05 173.39,120.89 173.84,120.67 C173.84,120.67 173.52,118.91 173.52,118.91 C173.52,118.91 174.74,119.85 174.74,119.85" fill="none" stroke="rgb(95, 174, 29)" stroke-width="3.25" stroke-opacity="1.00" stroke-linejoin="round"/>
<path d="M156.67,117.59 C156.67,117.59 156.15,117.59 156.15,117.59 C156.15,117.59 156.05,117.70 156.05,117.70 C156.05,120.46 156.01,127.11 155.36,129.60 C154.97,131.04 155.31,131.89 155.71,132.12 C156.31,132.47 157.67,132.95 158.00,133.08 C158.12,133.14 158.29,133.24 158.49,133.39" fill="none" stroke="rgb(95, 174, 29)" stroke-width="3.25" stroke-opacity="1.00" stroke-linejoin="round"/>
<path d="M148.86,136.89 C148.85,137.09 148.92,137.60 149.04,137.87 C149.43,138.63 152.72,140.84 153.95,141.18 C155.33,141.54 158.87,141.38 161.60,140.30 C163.56,139.52 167.75,136.71 167.92,136.58 C168.02,136.49 168.10,136.39 168.17,136.28" fill="none" stroke="rgb(95, 174, 29)" stroke-width="3.25" stroke-opacity="1.00" stroke-linejoin="round"/>
<path d="M173.91,145.31 C173.91,145.31 173.71,145.31 173.71,145.31 C173.70,148.06 173.82,150.46 173.90,151.92 C173.92,152.40 173.88,152.89 173.91,153.37 C173.93,153.51 173.97,153.72 174.06,154.00" fill="none" stroke="rgb(95, 174, 29)" stroke-width="3.25" stroke-opacity="1.00" stroke-linejoin="round"/>
<path d="M150.30,146.96 C149.81,147.30 149.36,149.58 149.27,152.85 C149.27,155.12 149.27,157.50 149.63,157.92 C151.13,159.62 155.39,163.90 157.09,165.17 C158.77,166.37 162.39,167.04 164.33,166.75 C166.69,166.36 170.05,164.48 171.21,163.06 C173.27,160.46 173.74,154.49 173.71,153.42 C173.70,153.00 173.63,152.35 173.50,151.47" fill="none" stroke="rgb(95, 174, 29)" stroke-width="3.25" stroke-opacity="1.00" stroke-linejoin="round"/>
<path d="M175.35,152.50 C177.86,152.50 180.87,153.38 182.76,154.35 C184.41,155.21 189.88,159.89 191.40,161.54 C195.06,165.57 202.74,179.55 203.88,182.99 C204.86,186.04 206.11,193.21 205.86,194.03 C205.59,194.74 191.85,210.15 177.71,226.83 C176.04,228.78 174.08,231.06 173.78,231.39 C173.78,231.39 173.30,230.32 173.30,230.32" fill="none" stroke="rgb(95, 174, 29)" stroke-width="3.25" stroke-opacity="1.00" stroke-linejoin="round"/>
<path d="M176.99,169.75 C176.99,169.75 176.25,168.40 176.25,168.40" fill="none" stroke="rgb(95, 174, 29)" stroke-width="3.25" stroke-opacity="1.00" stroke-linejoin="round"/>
<path d="M175.35,160.71 C176.55,168.23 178.32,175.86 180.35,180.58 C184.39,189.99 185.90,191.81 186.84,192.81 C186.49,193.30 184.42,195.06 181.85,196.73 C177.24,199.70 173.77,202.63 172.21,205.31 C165.79,216.69 164.76,226.56 164.69,227.59 C164.69,227.59 175.69,231.65 175.69,231.65 C175.69,231.65 175.35,231.15 175.35,231.15" fill="none" stroke="rgb(95, 174, 29)" stroke-width="3.25" stroke-opacity="1.00" stroke-linejoin="round"/>
<path d="M165.29,226.83 C164.40,227.30 163.38,228.03 163.03,228.67 C162.32,229.99 162.63,233.21 163.31,234.43 C164.10,235.79 166.68,237.16 168.39,237.38 C170.09,237.56 172.73,236.76 173.62,235.99 C174.32,235.33 175.27,233.15 174.85,231.18 C174.75,230.69 174.64,230.20 174.53,229.71" fill="none" stroke="rgb(95, 174, 29)" stroke-width="3.25" stroke-opacity="1.00" stroke-linejoin="round"/>
<path d="M146.81,158.04 C146.81,158.04 147.43,158.25 147.43,158.25 C144.97,157.39 142.22,157.25 140.77,157.56 C139.27,157.89 136.51,159.27 135.61,160.12 C133.07,162.58 124.00,177.56 122.66,180.38 C120.73,184.38 119.42,186.61 117.90,187.61 C116.22,188.65 113.17,188.35 111.70,187.10 C111.09,186.59 109.50,185.30 109.01,185.49 C107.55,186.13 105.50,187.79 104.53,189.13 C103.36,190.79 102.00,194.22 101.87,195.75 C101.77,197.29 102.26,199.24 102.93,199.95 C103.57,200.57 105.39,200.98 106.51,200.71 C107.77,200.39 110.24,198.81 111.17,197.50 C112.15,196.09 113.19,192.94 113.26,191.54 C113.35,188.63 111.86,186.63 111.50,186.45 C111.31,186.36 110.89,186.26 110.26,186.18" fill="none" stroke="rgb(95, 174, 29)" stroke-width="3.25" stroke-opacity="1.00" stroke-linejoin="round"/>
<path d="M108.00,198.70 C108.00,198.70 107.59,198.91 107.59,198.91 C107.99,199.75 110.32,202.32 111.56,202.85 C114.41,204.02 119.65,204.50 122.36,204.38 C123.29,204.33 126.08,202.99 127.88,201.45 C131.83,198.03 136.58,190.18 138.95,184.19 C140.62,179.91 142.55,173.37 142.87,172.28 C140.67,183.67 139.53,192.24 138.82,196.51 C136.06,212.98 136.58,226.62 136.75,227.86 C137.37,227.67 150.78,225.56 152.00,225.52 C152.33,225.51 161.20,225.68 161.31,225.60 C161.43,225.52 161.87,225.17 162.62,224.58" fill="none" stroke="rgb(95, 174, 29)" stroke-width="3.25" stroke-opacity="1.00" stroke-linejoin="round"/>
<path d="M139.62,222.52 C139.62,222.52 139.42,222.52 139.42,222.52 C142.66,222.48 149.53,223.04 152.68,222.68 C153.41,222.60 160.63,222.05 160.92,222.02 C161.11,222.00 161.68,221.89 162.62,221.70" fill="none" stroke="rgb(95, 174, 29)" stroke-width="3.25" stroke-opacity="1.00" stroke-linejoin="round"/>
<path d="M193.63,213.90 C193.63,213.90 193.11,214.00 193.11,214.00 C192.85,214.81 192.76,215.62 192.78,217.35 C192.80,220.87 192.81,225.91 192.81,227.43 C192.81,227.43 182.75,227.29 182.75,227.29 C182.75,227.29 182.13,226.63 182.13,226.63" fill="none" stroke="rgb(95, 174, 29)" stroke-width="3.25" stroke-opacity="1.00" stroke-linejoin="round"/>
<path d="M137.54,226.45 C137.54,226.45 137.54,226.26 137.54,226.26 C138.77,231.72 138.22,242.83 137.24,247.05 C135.97,252.47 132.36,263.45 130.14,270.02 C128.83,274.27 126.92,286.22 125.77,292.02 C125.21,294.86 122.97,311.35 122.83,319.07 C122.74,325.57 123.39,340.88 124.33,345.21 C125.36,349.85 127.57,356.81 127.68,357.11 C127.68,357.11 128.65,357.08 128.65,357.08" fill="none" stroke="rgb(95, 174, 29)" stroke-width="3.25" stroke-opacity="1.00" stroke-linejoin="round"/>
<path d="M127.89,360.11 C127.89,360.11 127.32,360.11 127.32,360.11 C131.89,361.79 164.56,361.49 170.46,361.06 C189.33,359.66 205.10,359.99 205.18,359.94 C205.36,359.83 205.84,359.45 206.64,358.78" fill="none" stroke="rgb(95, 174, 29)" stroke-width="3.25" stroke-opacity="1.00" stroke-linejoin="round"/>
<path d="M193.58,229.48 C193.58,229.48 193.39,229.48 193.39,229.48 C193.38,229.86 193.40,230.10 193.54,230.85 C193.91,232.83 195.01,247.99 195.37,251.31 C195.91,256.17 196.82,264.66 197.21,274.43 C197.54,281.63 203.65,325.62 205.59,343.11 C206.24,349.91 206.21,358.34 205.74,359.93 C205.66,360.18 205.46,360.68 205.13,361.43" fill="none" stroke="rgb(95, 174, 29)" stroke-width="3.25" stroke-opacity="1.00" stroke-linejoin="round"/>
<path d="M144.17,363.89 C144.17,363.89 144.27,364.56 144.27,364.56 C144.39,364.53 144.55,361.85 144.62,361.60 C144.67,361.47 144.77,361.35 144.93,361.24 C144.52,365.32 143.03,375.45 142.66,381.43 C142.62,381.68 139.60,383.66 137.04,384.89 C134.94,385.90 131.98,388.31 130.98,390.15 C129.89,392.23 129.22,395.17 129.46,395.90 C129.79,396.68 132.15,398.80 134.39,399.67 C138.78,401.35 146.04,400.78 157.67,399.20 C157.91,399.17 158.04,399.15 158.06,399.14 C158.06,399.14 158.18,397.40 158.18,397.40" fill="none" stroke="rgb(95, 174, 29)" stroke-width="3.25" stroke-opacity="1.00" stroke-linejoin="round"/>
<path d="M161.97,362.57 C161.83,362.63 161.77,362.67 161.59,362.85 C161.55,362.89 161.49,362.95 161.40,363.03 C161.01,366.16 159.24,377.81 159.04,381.82 C159.00,382.67 158.70,398.42 158.38,401.61 C158.38,401.61 159.13,401.38 159.13,401.38" fill="none" stroke="rgb(95, 174, 29)" stroke-width="3.25" stroke-opacity="1.00" stroke-linejoin="round"/>
<path d="M175.79,363.70 C175.79,363.70 174.91,363.81 174.91,363.81 C174.18,365.11 173.13,380.05 173.11,380.16 C172.87,381.73 167.29,385.29 166.79,385.73 C165.51,386.92 164.39,390.92 164.54,392.54 C164.70,393.96 165.85,396.44 166.56,397.03 C168.29,398.40 172.76,399.47 175.74,399.28 C177.94,399.12 192.52,396.12 193.95,395.85 C193.95,395.85 194.53,395.13 194.53,395.13" fill="none" stroke="rgb(95, 174, 29)" stroke-width="3.25" stroke-opacity="1.00" stroke-linejoin="round"/>
<path d="M191.50,361.05 C191.34,361.05 191.18,361.05 191.02,361.05 C190.99,361.05 190.96,361.05 190.93,361.05 C190.48,364.20 189.45,369.10 189.32,371.14 C189.22,372.83 189.39,379.15 189.82,381.48 C190.12,383.08 192.40,388.39 192.63,389.42 C193.12,391.71 192.10,396.40 191.22,397.13 C191.04,397.27 190.56,397.56 189.79,397.97" fill="none" stroke="rgb(95, 174, 29)" stroke-width="3.25" stroke-opacity="1.00" stroke-linejoin="round"/>
</g>
</svg>
