<?xml version="1.0" encoding="UTF-8" standalone="no"?>
<!DOCTYPE svg PUBLIC "-//W3C//DTD SVG 1.1//EN" "http://www.w3.org/Graphics/SVG/1.1/DTD/svg11.dtd">
<svg width="64.20" height="90.84" viewBox="0.00 0.00 535.00 757.00" xmlns="http://www.w3.org/2000/svg" xmlns:xlink="http://www.w3.org/1999/xlink">
<g stroke-linecap="round" transform="translate(44.00, 155.00)" id="2-사람-1">
<path d="M180.96,199.86 C180.36,199.90 178.57,199.34 177.56,199.28 C175.20,199.20 165.03,204.50 162.69,206.08 C160.76,207.39 157.61,210.35 156.71,211.54 C154.30,214.82 149.78,227.86 148.00,234.80 C146.38,241.15 145.74,246.60 145.89,255.85 C145.98,260.32 147.31,274.07 147.79,281.60 C149.23,292.37 148.64,296.77 148.54,297.46 C148.53,297.51 148.51,297.68 148.53,297.62" fill="none" stroke="rgb(41, 0, 255)" stroke-width="3.25" stroke-opacity="1.00" stroke-linejoin="round"/>
<path d="M183.83,200.95 C184.96,200.02 186.99,199.31 189.07,199.25 C191.59,199.20 195.09,199.60 196.82,200.51 C198.21,201.28 203.31,205.93 205.51,209.11 C207.91,212.64 209.44,215.39 210.12,217.32 C211.80,222.19 213.11,229.43 213.42,236.40 C213.66,242.02 212.61,257.49 212.38,259.49 C211.52,266.93 208.39,278.34 205.88,283.34 C204.67,285.70 202.52,288.23 202.15,288.52 C202.15,288.52 201.05,288.06 201.05,288.06" fill="none" stroke="rgb(41, 0, 255)" stroke-width="3.25" stroke-opacity="1.00" stroke-linejoin="round"/>
<path d="M202.99,254.93 C202.99,254.93 202.64,254.93 202.64,254.93 C202.49,255.33 202.57,258.37 202.95,261.46 C204.03,270.39 204.09,280.11 202.91,284.47 C202.16,287.18 201.29,289.19 200.66,290.22 C200.66,290.22 199.74,289.70 199.74,289.70" fill="none" stroke="rgb(41, 0, 255)" stroke-width="3.25" stroke-opacity="1.00" stroke-linejoin="round"/>
<path d="M157.69,240.04 C157.69,240.04 157.53,240.20 157.53,240.20 C157.48,240.25 156.79,251.70 156.83,259.55 C156.92,266.46 158.84,281.63 159.13,283.04 C159.67,285.52 161.34,291.40 161.99,292.21 C161.99,292.21 162.40,292.09 162.40,292.09" fill="none" stroke="rgb(41, 0, 255)" stroke-width="3.25" stroke-opacity="1.00" stroke-linejoin="round"/>
<path d="M163.74,269.05 C163.48,269.03 163.00,269.68 162.81,271.65 C162.35,276.58 162.77,284.53 163.25,285.62 C163.53,286.24 164.51,287.59 164.96,288.13" fill="none" stroke="rgb(41, 0, 255)" stroke-width="3.25" stroke-opacity="1.00" stroke-linejoin="round"/>
<path d="M183.60,212.27 C183.28,212.14 182.28,211.70 181.98,211.63 C180.34,211.26 176.35,212.39 173.28,214.07 C170.73,215.50 168.15,218.15 166.41,220.48 C164.92,222.49 162.20,226.77 161.48,228.33 C160.51,230.52 159.66,235.42 159.93,238.23 C160.38,242.41 165.24,252.08 168.38,256.41 C169.98,258.58 172.30,260.80 174.43,262.30 C176.48,263.72 180.38,265.23 182.61,265.43 C185.10,265.62 188.81,264.66 190.81,263.29 C193.62,261.33 196.63,258.70 198.15,256.85 C199.94,254.65 202.55,251.77 204.35,249.08 C206.15,246.31 209.66,232.86 209.72,232.05 C209.74,231.76 209.70,231.21 209.61,230.42" fill="none" stroke="rgb(41, 0, 255)" stroke-width="3.25" stroke-opacity="1.00" stroke-linejoin="round"/>
<path d="M185.92,213.05 C185.92,213.05 185.61,212.89 185.61,212.89 C186.74,211.96 192.58,211.11 195.50,212.04 C197.24,212.63 200.29,214.27 201.99,216.00 C205.39,219.54 208.05,226.06 208.20,226.89 C208.30,227.46 208.19,229.40 208.17,229.87" fill="none" stroke="rgb(41, 0, 255)" stroke-width="3.25" stroke-opacity="1.00" stroke-linejoin="round"/>
<path d="M165.91,234.61 C165.92,234.53 166.04,233.27 166.95,232.35 C168.12,231.21 171.31,229.93 173.68,229.59 C177.66,229.07 178.93,230.13 179.46,230.67 C179.46,230.67 179.55,230.61 179.55,230.61" fill="none" stroke="rgb(41, 0, 255)" stroke-width="3.25" stroke-opacity="1.00" stroke-linejoin="round"/>
<path d="M169.01,236.78 C169.01,236.78 168.70,236.78 168.70,236.78 C168.82,236.75 171.39,235.73 173.07,235.52 C177.34,235.03 179.56,235.94 179.86,236.13 C179.86,236.13 179.87,236.28 179.87,236.28" fill="none" stroke="rgb(41, 0, 255)" stroke-width="3.25" stroke-opacity="1.00" stroke-linejoin="round"/>
<path d="M190.73,229.49 C190.73,229.49 190.42,229.14 190.42,229.14 C190.47,228.73 190.78,228.16 191.33,227.80 C192.65,226.94 197.33,225.84 199.36,225.89 C201.32,225.97 202.79,226.76 203.74,227.41 C203.74,227.41 203.86,228.19 203.86,228.19" fill="none" stroke="rgb(41, 0, 255)" stroke-width="3.25" stroke-opacity="1.00" stroke-linejoin="round"/>
<path d="M191.66,234.92 C191.67,234.86 191.65,234.36 191.71,234.20 C192.13,233.19 195.50,232.11 197.86,232.16 C199.79,232.22 201.28,232.62 201.76,232.81 C201.76,232.81 201.50,233.73 201.50,233.73" fill="none" stroke="rgb(41, 0, 255)" stroke-width="3.25" stroke-opacity="1.00" stroke-linejoin="round"/>
<path d="M188.56,237.09 C188.25,237.84 188.37,243.45 188.58,245.28 C188.64,245.75 188.86,246.77 188.89,246.81 C188.93,246.83 189.00,246.89 189.10,246.97" fill="none" stroke="rgb(41, 0, 255)" stroke-width="3.25" stroke-opacity="1.00" stroke-linejoin="round"/>
<path d="M181.89,254.00 C182.37,253.84 183.39,253.65 185.14,253.42 C189.08,252.91 193.60,252.14 194.48,252.21 C195.20,253.88 194.55,255.93 194.11,256.41 C193.57,256.94 190.92,257.99 188.95,258.11 C186.47,258.25 183.31,257.41 182.60,256.98 C181.09,256.04 180.48,255.03 180.48,254.86 C180.53,254.80 185.08,256.20 186.84,256.38 C188.74,256.55 193.18,255.98 194.27,255.28 C195.11,254.72 195.37,253.19 195.06,252.72 C194.26,251.63 190.38,251.68 185.51,252.67 C185.33,252.71 185.08,252.74 184.76,252.76" fill="none" stroke="rgb(41, 0, 255)" stroke-width="3.25" stroke-opacity="1.00" stroke-linejoin="round"/>
<path d="M176.56,267.75 C176.69,268.62 176.90,269.35 177.42,269.99 C179.82,272.93 183.22,275.24 186.03,275.62 C188.77,275.92 193.47,274.35 194.56,273.08 C195.51,271.84 195.85,265.39 195.88,265.09 C195.92,264.75 195.89,264.49 195.81,264.30 C195.70,264.05 195.33,263.37 194.69,262.26" fill="none" stroke="rgb(41, 0, 255)" stroke-width="3.25" stroke-opacity="1.00" stroke-linejoin="round"/>
<path d="M177.03,269.38 C176.48,269.38 176.11,269.42 175.89,269.50 C173.37,270.51 160.96,281.78 159.36,283.75 C155.99,287.97 151.52,297.92 149.19,306.18 C147.86,310.97 146.39,324.89 146.34,331.36 C146.40,338.77 146.57,353.13 147.03,354.50 C147.33,355.16 155.31,354.93 156.62,354.83 C157.87,354.72 159.13,354.61 160.39,354.50" fill="none" stroke="rgb(41, 0, 255)" stroke-width="3.25" stroke-opacity="1.00" stroke-linejoin="round"/>
<path d="M166.83,316.67 C166.34,317.10 166.19,317.54 166.13,319.22 C166.04,321.93 164.91,338.29 164.08,342.76 C162.01,354.01 161.55,357.12 161.49,357.79 C161.49,357.79 161.49,357.24 161.49,357.24" fill="none" stroke="rgb(41, 0, 255)" stroke-width="3.25" stroke-opacity="1.00" stroke-linejoin="round"/>
<path d="M151.99,356.08 C151.91,356.06 151.79,356.06 151.64,356.08 C151.49,356.10 151.11,356.18 150.48,356.31 C150.19,356.27 151.06,361.79 152.31,364.74 C152.79,365.83 155.17,367.66 156.44,367.97 C159.14,368.57 163.33,365.00 164.13,363.95 C164.61,363.33 166.03,360.60 166.51,359.72" fill="none" stroke="rgb(41, 0, 255)" stroke-width="3.25" stroke-opacity="1.00" stroke-linejoin="round"/>
<path d="M167.75,348.43 C167.75,348.43 167.99,348.43 167.99,348.43 C168.12,348.99 170.53,350.38 172.94,350.71 C177.74,351.09 189.12,352.24 195.41,352.08 C203.42,351.83 213.07,348.97 216.20,348.20 C216.20,348.20 215.97,347.96 215.97,347.96" fill="none" stroke="rgb(41, 0, 255)" stroke-width="3.25" stroke-opacity="1.00" stroke-linejoin="round"/>
<path d="M210.64,273.55 C212.52,276.67 214.19,280.73 214.95,282.62 C215.07,282.93 215.09,283.07 215.03,283.05" fill="none" stroke="rgb(41, 0, 255)" stroke-width="3.25" stroke-opacity="1.00" stroke-linejoin="round"/>
<path d="M163.13,368.05 C163.13,368.05 162.75,368.24 162.75,368.24 C160.85,375.64 156.78,415.16 156.77,417.39 C156.85,431.99 157.22,460.63 157.98,474.67 C159.04,494.03 160.42,500.51 160.72,500.59 C169.30,501.80 176.96,503.23 180.75,503.92 C182.03,504.16 184.86,504.14 185.85,504.11" fill="none" stroke="rgb(41, 0, 255)" stroke-width="3.25" stroke-opacity="1.00" stroke-linejoin="round"/>
<path d="M195.30,380.82 C195.30,380.82 195.73,378.81 195.73,378.81 C195.73,378.81 195.81,378.77 195.81,378.77 C195.23,381.84 192.81,395.29 191.96,405.76 C191.32,414.87 191.49,448.19 191.76,461.80 C191.72,480.08 190.22,496.53 190.19,504.68 C190.19,505.14 190.19,505.61 190.19,506.08 C190.19,506.08 190.19,505.90 190.19,505.90" fill="none" stroke="rgb(41, 0, 255)" stroke-width="3.25" stroke-opacity="1.00" stroke-linejoin="round"/>
<path d="M194.79,382.86 C194.79,383.11 194.66,383.43 194.66,383.43 C193.85,387.59 192.80,398.97 192.26,408.29 C191.57,426.47 194.14,474.79 196.25,486.39 C196.48,487.63 199.24,497.56 200.18,499.79 C200.64,500.85 204.04,503.26 206.58,503.91 C208.18,504.31 210.64,504.55 213.68,504.66 C218.37,504.77 220.60,504.04 222.61,503.09" fill="none" stroke="rgb(41, 0, 255)" stroke-width="3.25" stroke-opacity="1.00" stroke-linejoin="round"/>
<path d="M214.70,350.69 C214.70,350.69 215.46,349.42 215.46,349.42 C215.46,349.38 215.48,362.65 216.09,372.84 C216.45,378.70 217.23,393.79 217.52,396.57 C217.77,398.90 220.04,412.89 221.31,424.48 C222.94,437.99 223.19,441.02 223.73,454.03 C223.93,457.81 226.21,479.45 226.41,482.40 C226.75,487.91 226.19,498.66 226.62,502.62 C225.76,503.12 225.12,503.58 224.93,503.61 C224.15,503.74 221.83,503.84 220.31,503.86" fill="none" stroke="rgb(41, 0, 255)" stroke-width="3.25" stroke-opacity="1.00" stroke-linejoin="round"/>
<path d="M163.39,501.56 C163.39,501.56 161.92,501.60 161.92,501.60 C160.72,502.55 159.82,504.77 159.68,506.38 C159.50,508.60 160.05,512.39 160.88,513.76 C161.64,514.95 164.39,517.48 165.94,518.37 C167.31,519.11 173.50,520.14 176.51,520.18 C179.57,520.20 184.59,519.28 187.25,518.25 C189.53,517.33 192.44,515.07 192.83,513.96 C193.19,512.82 192.20,508.63 190.55,505.46 C190.36,505.10 190.07,504.57 189.68,503.86" fill="none" stroke="rgb(41, 0, 255)" stroke-width="3.25" stroke-opacity="1.00" stroke-linejoin="round"/>
<path d="M208.83,505.39 C208.83,505.39 209.08,505.13 209.08,505.13 C207.73,505.25 205.06,507.00 204.27,508.55 C203.58,510.00 203.57,512.94 204.50,513.95 C205.62,515.08 211.20,516.95 214.87,517.00 C217.57,517.01 223.50,516.08 226.00,515.25 C230.21,513.80 233.95,510.82 233.89,509.95 C233.70,508.89 231.68,506.11 230.12,504.96 C229.70,504.65 227.11,502.94 226.19,502.33" fill="none" stroke="rgb(41, 0, 255)" stroke-width="3.25" stroke-opacity="1.00" stroke-linejoin="round"/>
<path d="M211.32,274.33 C211.27,274.47 211.48,275.06 211.89,275.62 C215.85,281.05 218.19,286.38 221.27,295.00 C222.85,299.48 225.03,311.77 225.07,317.20 C225.08,320.21 224.49,324.93 223.83,328.70 C223.25,331.81 222.43,334.32 220.41,337.67 C218.83,340.29 215.80,347.79 215.67,348.12 C215.67,348.12 214.83,348.03 214.83,348.03" fill="none" stroke="rgb(41, 0, 255)" stroke-width="3.25" stroke-opacity="1.00" stroke-linejoin="round"/>
<path d="M214.52,319.68 C214.45,320.12 214.26,321.39 214.25,321.80 C214.11,327.98 214.99,347.26 215.05,347.84 C215.05,347.84 215.31,347.44 215.31,347.44" fill="none" stroke="rgb(41, 0, 255)" stroke-width="3.25" stroke-opacity="1.00" stroke-linejoin="round"/>
<path d="M661.71,272.86" fill="none" stroke="rgb(72, 124, 28)" stroke-width="3.25" stroke-opacity="1.00" stroke-linejoin="round"/>
<path d="M673.32,198.69" fill="none" stroke="rgb(72, 124, 28)" stroke-width="3.25" stroke-opacity="1.00" stroke-linejoin="round"/>
<path d="M661.71,154.83" fill="none" stroke="rgb(72, 124, 28)" stroke-width="3.25" stroke-opacity="1.00" stroke-linejoin="round"/>
</g>
</svg>
