<?xml version="1.0" encoding="UTF-8" standalone="no"?>
<!DOCTYPE svg PUBLIC "-//W3C//DTD SVG 1.1//EN" "http://www.w3.org/Graphics/SVG/1.1/DTD/svg11.dtd">
<svg width="128.40" height="181.68" viewBox="0.00 0.00 535.00 757.00" xmlns="http://www.w3.org/2000/svg" xmlns:xlink="http://www.w3.org/1999/xlink">
<g stroke-linecap="round" transform="translate(154.00, 267.00)" id="20-사람">
<path d="M68.01,44.02 C67.79,43.03 67.75,42.79 67.76,41.79 C67.80,39.93 67.86,37.35 68.19,36.63 C69.71,33.30 71.26,28.52 72.40,26.39 C74.16,23.19 76.73,19.02 79.16,16.80 C82.69,13.60 85.72,11.32 88.22,10.49 C90.91,9.64 97.66,9.16 100.60,9.56 C103.11,9.94 107.72,12.37 110.12,13.68 C112.97,15.19 120.12,17.81 121.59,18.54 C124.79,20.15 129.80,24.12 132.49,27.11 C134.73,29.65 137.52,36.05 138.30,39.76 C139.79,47.21 139.50,59.10 138.29,63.98 C137.44,67.30 134.37,72.64 132.26,75.28 C129.79,78.34 126.25,82.35 124.53,84.30 C122.92,86.04 117.58,88.89 113.26,90.02 C109.93,90.86 103.60,90.94 101.22,90.94 C98.36,90.88 94.67,90.34 92.01,89.54 C87.14,88.02 76.47,81.39 74.22,78.78 C71.63,75.71 68.42,68.73 67.99,65.60 C67.82,64.30 67.93,60.70 67.97,59.80 C68.00,59.14 68.00,56.67 68.01,55.93" fill="none" stroke="rgb(33, 228, 63)" stroke-width="3.39" stroke-opacity="1.00" stroke-linejoin="round"/>
<path d="M79.43,52.77 C79.43,52.77 78.70,52.29 78.70,52.29 C78.92,51.39 80.12,49.48 81.60,48.28 C83.68,46.65 88.22,44.14 89.67,43.91 C90.74,43.75 92.23,43.79 93.51,43.95 C93.51,43.95 93.76,44.57 93.76,44.57" fill="none" stroke="rgb(33, 228, 63)" stroke-width="3.39" stroke-opacity="1.00" stroke-linejoin="round"/>
<path d="M110.31,47.18 C110.31,47.18 110.06,46.82 110.06,46.82 C110.04,46.61 112.88,45.32 115.41,45.14 C117.48,44.99 119.58,45.30 120.13,45.69 C120.13,45.69 120.26,48.20 120.26,48.20" fill="none" stroke="rgb(33, 228, 63)" stroke-width="3.39" stroke-opacity="1.00" stroke-linejoin="round"/>
<path d="M97.66,74.89 C97.68,75.54 97.62,77.16 97.72,77.44 C97.80,77.67 98.05,78.05 98.49,78.57 C100.65,79.35 105.91,78.43 106.37,78.34 C106.58,78.30 106.97,78.27 107.55,78.24" fill="none" stroke="rgb(33, 228, 63)" stroke-width="3.39" stroke-opacity="1.00" stroke-linejoin="round"/>
<path d="M99.61,91.42 C99.61,91.42 99.12,91.03 99.12,91.03 C99.08,91.13 100.47,96.48 100.53,99.58 C100.55,100.35 100.57,101.11 100.58,101.88 C100.58,101.88 100.77,101.88 100.77,101.88" fill="none" stroke="rgb(33, 228, 63)" stroke-width="3.39" stroke-opacity="1.00" stroke-linejoin="round"/>
<path d="M109.82,92.64 C109.82,92.64 110.31,92.40 110.31,92.40 C110.31,92.40 109.82,101.39 109.82,101.39 C109.82,101.39 109.63,101.58 109.63,101.58" fill="none" stroke="rgb(33, 228, 63)" stroke-width="3.39" stroke-opacity="1.00" stroke-linejoin="round"/>
<path d="M98.64,101.63 C98.64,101.63 98.88,101.63 98.88,101.63 C87.76,103.27 79.39,104.70 75.39,106.27 C72.63,107.37 54.58,117.55 51.82,119.93 C48.12,123.13 41.24,131.67 39.76,135.66 C38.58,138.92 37.81,146.05 37.97,149.07 C38.15,152.02 40.11,157.68 42.23,161.96 C44.52,166.53 47.26,170.86 49.57,173.49 C51.85,176.05 73.39,195.15 78.82,199.58 C82.22,202.63 86.63,205.16 89.06,205.92 C89.06,205.92 88.67,205.92 88.67,205.92" fill="none" stroke="rgb(33, 228, 63)" stroke-width="3.39" stroke-opacity="1.00" stroke-linejoin="round"/>
<path d="M72.87,161.43 C72.87,161.43 72.87,160.95 72.87,160.95 C74.38,164.62 83.93,179.81 86.32,182.21 C92.01,187.95 96.94,194.33 97.89,197.84 C97.67,198.18 90.04,205.98 89.42,206.93 C89.34,207.06 89.25,207.21 89.16,207.38" fill="none" stroke="rgb(33, 228, 63)" stroke-width="3.39" stroke-opacity="1.00" stroke-linejoin="round"/>
<path d="M99.37,199.60 C99.37,199.60 99.37,199.36 99.37,199.36 C99.45,199.36 101.81,199.62 102.69,200.69 C104.62,203.11 104.05,208.01 103.78,208.78 C103.16,209.12 99.92,210.40 99.61,210.99 C99.51,211.23 99.66,216.27 98.91,217.24 C97.96,218.34 95.85,218.83 94.45,218.45 C93.11,218.03 90.81,215.79 90.28,213.81 C89.93,212.37 90.07,207.18 90.22,206.45 C90.27,206.18 90.41,205.85 90.62,205.43" fill="none" stroke="rgb(33, 228, 63)" stroke-width="3.39" stroke-opacity="1.00" stroke-linejoin="round"/>
<path d="M136.80,159.73 C136.01,159.68 134.51,160.60 134.01,162.04 C130.37,172.73 120.66,191.58 120.15,191.92 C119.81,192.14 120.11,193.87 121.72,196.35 C123.83,199.52 128.08,203.35 130.12,204.47 C130.78,204.81 133.21,205.59 133.73,205.61 C134.73,205.60 146.11,196.54 150.63,192.89 C158.86,185.98 170.33,169.47 176.74,161.25 C178.31,159.13 179.17,155.02 179.20,151.66 C179.23,147.88 178.98,144.52 178.49,141.93 C177.97,139.31 176.02,134.62 173.94,130.97 C172.18,127.92 168.26,121.48 166.80,119.80 C165.05,117.82 159.54,113.73 156.94,112.22 C152.48,109.70 140.31,106.44 133.32,105.99 C129.43,105.75 115.23,104.79 110.97,104.79 C110.97,104.79 110.55,105.28 110.55,105.28" fill="none" stroke="rgb(33, 228, 63)" stroke-width="3.39" stroke-opacity="1.00" stroke-linejoin="round"/>
<path d="M118.08,196.44 C118.08,196.44 118.08,195.47 118.08,195.47 C117.56,195.53 114.87,197.03 113.71,198.38 C112.74,199.54 112.53,201.35 113.36,202.01 C113.87,202.38 119.72,204.11 120.15,205.36 C120.87,207.62 122.73,209.95 124.66,211.18 C126.79,212.49 130.48,212.50 131.70,211.12 C132.28,210.43 132.81,208.62 132.76,208.43 C132.71,208.25 132.52,207.73 132.18,206.89" fill="none" stroke="rgb(33, 228, 63)" stroke-width="3.39" stroke-opacity="1.00" stroke-linejoin="round"/>
<path d="M69.39,195.74 C69.39,195.74 69.73,194.01 69.73,194.01 C69.23,196.43 69.06,200.02 69.34,203.91 C69.64,207.52 71.05,211.84 73.10,215.00 C78.30,222.88 79.01,225.11 79.08,225.87 C83.90,226.16 98.86,225.95 102.77,226.68 C112.06,228.44 118.76,228.66 128.74,228.64 C130.06,228.61 139.47,227.66 140.20,227.60 C140.40,227.59 140.56,227.59 140.71,227.60" fill="none" stroke="rgb(33, 228, 63)" stroke-width="3.39" stroke-opacity="1.00" stroke-linejoin="round"/>
<path d="M139.34,202.67 C139.33,203.74 141.88,208.69 142.08,210.02 C142.71,214.49 139.97,224.51 139.64,227.14 C139.57,227.66 139.37,229.91 139.34,230.35 C139.33,230.48 139.33,230.60 139.34,230.72" fill="none" stroke="rgb(33, 228, 63)" stroke-width="3.39" stroke-opacity="1.00" stroke-linejoin="round"/>
<path d="M80.81,229.33 C80.81,229.33 80.47,228.47 80.47,228.47 C80.47,228.47 80.12,228.29 80.12,228.29 C77.12,234.74 74.01,243.42 72.27,251.59 C70.07,262.20 64.38,299.87 64.61,305.51 C64.77,308.81 69.74,328.07 70.31,330.56 C72.86,342.11 75.54,352.70 76.31,352.96 C84.40,353.26 99.77,353.83 104.13,354.35 C108.06,354.84 114.35,355.63 114.57,355.66 C114.64,355.67 114.81,355.71 114.75,355.73" fill="none" stroke="rgb(33, 228, 63)" stroke-width="3.39" stroke-opacity="1.00" stroke-linejoin="round"/>
<path d="M118.21,289.93 C118.21,289.93 117.87,289.93 117.87,289.93 C117.50,291.13 114.71,305.11 114.18,311.98 C113.34,324.55 111.14,338.02 110.95,339.45 C110.89,339.88 109.62,355.16 109.62,355.21 C109.65,355.40 109.74,355.80 109.90,356.42" fill="none" stroke="rgb(33, 228, 63)" stroke-width="3.39" stroke-opacity="1.00" stroke-linejoin="round"/>
<path d="M77.35,355.73 C76.76,355.72 74.32,355.39 74.02,355.41 C73.30,355.52 71.05,356.50 70.12,357.28 C69.19,358.09 67.37,361.66 66.80,363.43 C66.40,364.81 66.25,367.52 66.49,368.48 C67.08,370.57 70.57,373.21 73.22,373.98 C78.59,375.46 88.72,374.64 98.73,372.96 C100.93,372.59 106.62,371.20 108.06,369.98 C111.36,367.06 111.85,359.17 111.81,358.25 C111.79,357.95 111.73,357.23 111.63,356.07" fill="none" stroke="rgb(33, 228, 63)" stroke-width="3.39" stroke-opacity="1.00" stroke-linejoin="round"/>
<path d="M120.98,288.20 C120.98,288.20 119.60,288.55 119.60,288.55 C119.64,293.20 120.00,296.07 120.63,300.16 C121.59,306.17 125.68,338.38 128.60,352.27 C135.84,352.47 147.83,352.73 151.42,352.32 C151.89,352.27 152.94,352.13 154.57,351.92" fill="none" stroke="rgb(33, 228, 63)" stroke-width="3.39" stroke-opacity="1.00" stroke-linejoin="round"/>
<path d="M141.41,224.49 C141.41,224.49 141.07,224.49 141.07,224.49 C142.91,226.04 147.95,231.72 148.10,231.92 C149.21,233.43 152.35,248.21 152.65,252.36 C153.29,263.76 155.05,288.42 155.03,302.98 C154.86,310.45 154.61,324.79 154.67,331.05 C154.84,336.78 156.00,348.50 155.96,354.63 C155.96,354.63 156.62,353.37 156.62,353.37" fill="none" stroke="rgb(33, 228, 63)" stroke-width="3.39" stroke-opacity="1.00" stroke-linejoin="round"/>
<path d="M130.33,351.57 C130.33,354.97 130.35,362.00 130.36,365.63 C130.39,368.33 131.28,370.84 133.25,372.23 C134.84,373.31 150.70,374.80 158.48,375.62 C168.13,376.59 176.28,376.28 177.07,375.94 C177.56,375.71 178.68,373.97 178.93,373.18 C179.27,371.96 177.09,365.38 176.21,363.77 C175.30,362.16 171.23,358.24 168.40,356.68 C166.77,355.80 163.55,354.43 161.82,353.85 C160.53,353.45 158.60,352.84 157.00,352.27" fill="none" stroke="rgb(33, 228, 63)" stroke-width="3.39" stroke-opacity="1.00" stroke-linejoin="round"/>
</g>
</svg>
