<?xml version="1.0" encoding="UTF-8" standalone="no"?>
<!DOCTYPE svg PUBLIC "-//W3C//DTD SVG 1.1//EN" "http://www.w3.org/Graphics/SVG/1.1/DTD/svg11.dtd">
<svg width="128.40" height="181.68" viewBox="0.00 0.00 535.00 757.00" xmlns="http://www.w3.org/2000/svg" xmlns:xlink="http://www.w3.org/1999/xlink">
<g stroke-linecap="round" transform="translate(156.00, 267.00)" id="20-우산">
<path d="M192.74,-47.00 C192.50,-46.95 191.53,-47.18 190.84,-47.35 C190.66,-47.39 190.31,-47.82 189.67,-48.51 C187.86,-50.45 183.45,-52.40 180.30,-53.10 C176.23,-53.96 164.70,-54.73 158.81,-55.10 C150.53,-55.72 141.25,-55.16 135.45,-54.37 C134.00,-54.17 125.33,-52.77 121.74,-52.16 C114.60,-50.89 103.83,-45.98 96.72,-43.50 C88.16,-40.51 74.16,-32.77 71.57,-31.09 C65.44,-27.10 56.45,-19.03 51.40,-14.40 C44.67,-8.69 36.98,-0.77 32.81,4.64 C29.08,9.53 26.06,16.84 24.82,20.71 C25.02,20.75 29.14,19.47 31.85,19.25 C33.54,19.13 36.93,19.62 38.35,20.21 C38.94,20.46 45.53,25.29 49.32,26.35 C51.79,27.00 65.83,28.03 67.60,28.27 C68.89,28.44 70.18,28.61 71.46,28.78" fill="none" stroke="rgb(205, 0, 255)" stroke-width="3.39" stroke-opacity="1.00" stroke-linejoin="round"/>
<path d="M188.93,-45.62 C188.93,-45.62 188.24,-45.96 188.24,-45.96 C188.19,-46.03 195.75,-42.59 197.82,-41.34 C202.57,-38.42 212.72,-27.74 216.27,-23.14 C217.28,-21.83 222.81,-14.33 224.53,-11.39 C226.08,-8.68 228.02,-3.85 229.64,1.27 C230.41,3.74 232.35,9.37 234.58,12.83 C238.28,18.07 243.40,25.48 248.65,34.73 C252.77,42.06 256.54,50.71 257.42,57.29 C258.20,63.43 259.56,92.99 259.58,94.63 C256.75,94.29 250.74,93.00 248.82,92.04 C247.35,91.28 242.46,86.30 240.73,85.09 C239.25,84.09 236.48,82.97 235.12,82.92 C233.08,82.90 227.29,84.98 225.43,84.71 C221.90,81.41 218.14,79.15 215.11,78.50 C214.55,78.39 204.39,76.74 202.72,76.22 C199.75,75.24 193.97,69.62 192.90,68.80 C190.08,66.68 183.83,64.77 181.33,64.46 C178.82,64.19 170.88,63.52 170.21,63.43 C165.90,62.86 161.22,60.97 159.03,59.52 C157.25,58.36 152.67,58.08 150.15,57.92" fill="none" stroke="rgb(205, 0, 255)" stroke-width="3.39" stroke-opacity="1.00" stroke-linejoin="round"/>
<path d="M163.31,-43.19 C163.36,-43.41 163.41,-43.58 163.48,-43.71 C163.55,-43.85 163.72,-44.13 164.00,-44.56 C163.41,-44.92 158.19,-44.93 154.83,-44.94 C146.78,-44.89 137.00,-43.77 130.65,-42.09 C126.49,-40.98 112.21,-36.38 106.27,-34.59 C97.41,-31.90 87.02,-27.79 81.72,-24.11 C78.94,-22.16 66.86,-12.68 65.31,-11.79 C65.31,-11.79 63.92,-12.03 63.92,-12.03" fill="none" stroke="rgb(205, 0, 255)" stroke-width="3.39" stroke-opacity="1.00" stroke-linejoin="round"/>
<path d="M166.08,-31.42 C166.12,-31.57 165.13,-32.38 161.60,-31.64 C159.82,-31.26 153.58,-28.67 151.64,-27.38 C147.57,-24.62 139.29,-14.01 137.04,-10.35 C134.70,-6.50 130.14,4.58 129.92,5.09 C129.73,5.52 129.43,6.17 129.03,7.02" fill="none" stroke="rgb(205, 0, 255)" stroke-width="3.39" stroke-opacity="1.00" stroke-linejoin="round"/>
<path d="M169.89,-20.68 C169.89,-20.68 169.54,-20.68 169.54,-20.68 C168.49,-19.69 165.18,-16.39 163.45,-13.58 C161.46,-10.34 151.13,4.69 149.99,7.27 C146.64,14.97 144.16,24.26 144.27,27.63 C144.27,27.63 144.61,27.45 144.61,27.45" fill="none" stroke="rgb(205, 0, 255)" stroke-width="3.39" stroke-opacity="1.00" stroke-linejoin="round"/>
<path d="M173.00,-19.99 C172.56,-19.95 172.14,-19.94 172.52,-19.57 C176.20,-16.07 178.72,-13.19 180.06,-10.83 C181.49,-8.22 182.57,-3.77 183.00,-0.04 C184.19,10.54 184.81,20.15 184.90,30.28 C184.84,37.37 184.10,49.71 182.78,55.15 C182.21,57.41 181.98,58.26 181.71,59.00 C181.71,59.00 180.97,58.61 180.97,58.61" fill="none" stroke="rgb(205, 0, 255)" stroke-width="3.39" stroke-opacity="1.00" stroke-linejoin="round"/>
<path d="M193.44,-18.95 C193.44,-18.95 193.09,-19.30 193.09,-19.30 C192.99,-19.24 197.19,-16.49 199.59,-14.95 C202.46,-13.04 205.08,-9.52 206.86,-6.42 C209.06,-2.54 214.89,6.74 214.99,6.92 C217.79,12.02 222.63,31.39 223.34,34.69 C224.83,41.70 226.32,68.23 226.33,69.03 C226.25,68.65 226.19,68.36 226.16,68.15 C226.13,67.95 226.07,67.54 225.99,66.93" fill="none" stroke="rgb(205, 0, 255)" stroke-width="3.39" stroke-opacity="1.00" stroke-linejoin="round"/>
<path d="M149.80,40.26 C149.80,40.26 149.80,39.57 149.80,39.57 C149.69,41.05 146.33,50.27 144.55,59.01 C143.13,65.84 140.15,77.04 138.93,83.66 C136.69,96.80 135.34,103.71 132.70,113.58 C127.89,130.24 123.72,146.28 117.96,161.47 C115.59,168.11 114.10,175.32 112.19,186.75 C110.55,196.96 109.53,206.32 109.67,213.73 C109.71,215.84 110.06,221.44 110.99,223.58 C111.57,224.85 113.37,224.70 114.31,224.33 C116.85,221.10 117.18,214.78 117.05,211.65 C117.00,210.50 116.95,209.36 116.91,208.21" fill="none" stroke="rgb(205, 0, 255)" stroke-width="3.39" stroke-opacity="1.00" stroke-linejoin="round"/>
<path d="M157.42,44.42 C157.42,44.42 157.08,44.42 157.08,44.42 C155.18,50.06 151.39,61.31 149.48,66.93 C147.00,74.85 144.10,89.08 142.16,95.99 C137.87,111.46 133.44,135.24 130.99,149.21 C129.29,157.21 128.21,162.98 128.10,163.71 C128.07,163.99 128.03,164.40 127.99,164.92" fill="none" stroke="rgb(205, 0, 255)" stroke-width="3.39" stroke-opacity="1.00" stroke-linejoin="round"/>
</g>
</svg>
