<?xml version="1.0" encoding="UTF-8" standalone="no"?>
<!DOCTYPE svg PUBLIC "-//W3C//DTD SVG 1.1//EN" "http://www.w3.org/Graphics/SVG/1.1/DTD/svg11.dtd">
<svg width="128.40" height="181.68" viewBox="0.00 0.00 535.00 757.00" xmlns="http://www.w3.org/2000/svg" xmlns:xlink="http://www.w3.org/1999/xlink">
<g stroke-linecap="round" transform="translate(44.00, 155.00)" id="200_사람">
<path d="M145.58,189.40 C145.58,189.40 145.08,189.19 145.08,189.19 C145.08,189.19 144.89,188.57 144.89,188.57 C144.44,188.61 142.09,192.41 141.24,194.61 C140.39,196.86 137.47,205.74 137.55,205.84 C140.26,204.08 147.63,202.38 160.21,200.25 C166.07,199.15 179.56,196.68 183.70,196.42 C186.81,196.22 207.63,196.40 213.22,196.13 C258.44,193.46 270.95,194.17 271.08,194.09 C271.04,193.92 262.33,185.27 258.20,180.37 C251.51,172.28 246.85,166.36 242.62,159.61 C239.88,155.27 234.12,148.70 230.17,146.61 C227.96,145.46 222.19,143.62 219.09,143.08 C213.00,142.05 198.97,142.70 192.28,143.88 C188.47,144.57 180.80,146.92 177.38,148.43 C171.02,151.30 160.00,159.62 154.36,164.50 C152.05,166.52 147.99,171.23 146.96,172.71 C145.50,174.82 143.12,180.01 142.30,182.80 C141.55,185.43 140.55,192.38 140.36,192.87 C140.36,192.87 139.06,192.13 139.06,192.13" fill="none" stroke="rgb(255, 0, 0)" stroke-width="4.07" stroke-opacity="1.00" stroke-linejoin="round"/>
<path d="M160.00,202.11 C159.81,202.11 159.62,202.11 159.43,202.11 C159.14,202.11 158.84,202.11 158.54,202.12 C157.68,202.85 152.95,218.46 152.31,223.86 C151.65,229.79 151.66,244.43 152.29,252.19 C153.03,260.48 155.53,269.38 157.46,273.88 C160.01,279.75 169.62,298.21 169.78,298.44 C171.32,300.60 175.23,303.90 177.96,305.09 C181.93,306.77 202.06,312.03 205.03,312.54 C208.96,313.19 218.48,313.63 222.48,313.09 C227.10,312.44 234.96,308.69 239.25,305.82 C242.54,303.60 249.61,296.27 252.17,291.38 C254.66,286.52 257.20,274.30 257.77,268.20 C258.05,265.14 258.66,246.71 258.59,241.47 C258.54,234.62 259.49,221.42 259.11,216.46 C258.88,213.74 257.67,208.38 256.99,206.40 C254.57,199.46 250.25,193.16 249.40,192.00 C249.39,191.99 249.37,191.96 249.36,191.89" fill="none" stroke="rgb(255, 0, 0)" stroke-width="4.07" stroke-opacity="1.00" stroke-linejoin="round"/>
<path d="M232.14,227.21 C232.14,227.21 231.71,227.07 231.71,227.07 C232.14,226.17 240.42,223.16 243.23,222.59 C243.74,222.49 244.54,222.37 245.63,222.21" fill="none" stroke="rgb(255, 0, 0)" stroke-width="4.07" stroke-opacity="1.00" stroke-linejoin="round"/>
<path d="M234.20,241.37 C234.20,241.37 233.72,241.53 233.72,241.53 C233.67,240.96 237.64,237.65 239.89,236.51 C242.13,235.42 246.16,235.23 247.30,235.86 C247.86,236.19 248.55,236.89 248.47,236.93" fill="none" stroke="rgb(255, 0, 0)" stroke-width="4.07" stroke-opacity="1.00" stroke-linejoin="round"/>
<path d="M212.70,246.02 C212.62,246.06 212.54,246.08 212.48,246.07 C212.42,246.07 212.28,246.03 212.07,245.97 C211.59,246.28 210.19,248.47 209.36,250.99 C208.38,254.07 208.31,258.29 209.37,260.03 C210.08,261.11 212.05,262.15 212.68,262.35" fill="none" stroke="rgb(255, 0, 0)" stroke-width="4.07" stroke-opacity="1.00" stroke-linejoin="round"/>
<path d="M166.97,234.34 C166.97,234.34 167.18,233.69 167.18,233.69 C168.31,232.92 172.60,232.08 176.24,232.87 C176.72,232.98 177.34,233.18 178.08,233.48" fill="none" stroke="rgb(255, 0, 0)" stroke-width="4.07" stroke-opacity="1.00" stroke-linejoin="round"/>
<path d="M167.51,250.73 C167.58,250.35 167.71,249.88 168.16,249.31 C170.28,246.63 174.18,243.40 176.34,242.32 C178.31,241.37 181.68,241.11 183.90,241.95 C184.59,242.22 185.30,242.73 185.59,243.02" fill="none" stroke="rgb(255, 0, 0)" stroke-width="4.07" stroke-opacity="1.00" stroke-linejoin="round"/>
<path d="M204.97,291.33 C205.35,290.76 205.66,290.54 206.62,290.34 C210.16,289.57 215.00,287.44 216.79,285.90 C218.94,283.77 221.38,281.41 221.97,281.11 C222.61,281.69 222.52,286.55 222.09,289.09 C221.70,291.30 220.23,295.51 219.28,296.63 C218.73,297.21 217.38,297.73 216.56,297.61 C215.19,297.36 210.27,294.17 208.05,292.53 C206.31,291.24 205.58,290.48 205.65,290.13 C205.65,290.13 205.83,289.94 205.83,289.94" fill="none" stroke="rgb(255, 0, 0)" stroke-width="4.07" stroke-opacity="1.00" stroke-linejoin="round"/>
<path d="M197.24,314.61 C197.27,314.32 197.30,314.12 197.31,314.02 C197.33,313.92 197.37,313.78 197.42,313.60 C197.50,315.27 197.58,317.70 197.55,319.26 C197.46,323.62 196.56,326.43 196.02,327.53 C196.02,327.53 196.64,327.05 196.64,327.05" fill="none" stroke="rgb(255, 0, 0)" stroke-width="4.07" stroke-opacity="1.00" stroke-linejoin="round"/>
<path d="M222.56,312.69 C222.56,312.69 222.36,312.59 222.36,312.59 C221.84,313.77 222.42,320.66 223.30,323.97 C223.67,325.30 224.33,326.82 224.61,327.21 C224.61,327.21 224.74,327.09 224.74,327.09 C224.73,326.92 224.72,326.77 224.72,326.65 C224.68,325.78 224.54,319.12 224.51,317.28" fill="none" stroke="rgb(255, 0, 0)" stroke-width="4.07" stroke-opacity="1.00" stroke-linejoin="round"/>
<path d="M199.54,328.87 C199.54,328.87 199.44,327.28 199.44,327.28 C199.08,327.37 194.53,328.89 192.18,329.32 C190.30,329.65 177.48,331.76 167.95,334.40 C158.34,337.19 150.16,339.98 144.28,342.86 C142.43,343.76 135.88,347.20 131.88,348.92 C131.88,348.92 131.91,349.00 131.91,349.00" fill="none" stroke="rgb(255, 0, 0)" stroke-width="4.07" stroke-opacity="1.00" stroke-linejoin="round"/>
<path d="M229.55,323.24 C229.53,322.84 229.50,322.58 229.46,322.47 C229.42,322.35 229.33,322.22 229.17,322.08 C229.17,322.08 227.16,322.87 227.16,322.87 C234.62,321.22 247.34,318.69 253.88,317.93 C260.91,317.13 270.67,317.27 279.85,317.91 C282.21,318.09 289.87,318.92 292.12,319.47 C293.00,319.68 293.80,320.07 293.94,320.22" fill="none" stroke="rgb(255, 0, 0)" stroke-width="4.07" stroke-opacity="1.00" stroke-linejoin="round"/>
<path d="M143.56,345.90 C143.56,345.90 143.51,345.59 143.51,345.59 C143.51,345.59 143.40,345.55 143.40,345.55 C142.08,346.28 134.02,357.38 130.27,364.06 C128.36,367.47 117.69,388.63 116.50,391.33 C113.25,398.71 106.45,429.58 105.99,433.74 C104.78,445.03 106.32,457.75 106.37,458.44 C106.37,458.44 106.40,457.88 106.40,457.88" fill="none" stroke="rgb(255, 0, 0)" stroke-width="4.07" stroke-opacity="1.00" stroke-linejoin="round"/>
<path d="M157.52,413.17 C157.83,412.77 158.54,411.86 158.65,411.43 C158.85,410.70 159.19,408.61 159.48,407.52 C157.53,411.53 153.58,422.72 152.29,428.22 C149.41,440.94 148.02,458.58 147.82,460.21 C147.82,460.21 147.67,460.12 147.67,460.12 C147.67,460.12 147.50,458.82 147.50,458.82" fill="none" stroke="rgb(255, 0, 0)" stroke-width="4.07" stroke-opacity="1.00" stroke-linejoin="round"/>
<path d="M283.92,393.69 C283.92,393.69 283.77,392.55 283.77,392.55 C283.66,393.54 288.54,410.04 289.48,414.45 C290.65,420.38 296.56,453.36 296.84,455.66 C296.84,455.66 296.69,455.81 296.69,455.81 C296.56,455.44 296.47,455.17 296.44,455.08 C296.40,454.93 296.35,454.78 296.31,454.63 C296.11,453.88 295.89,450.06 295.83,448.93" fill="none" stroke="rgb(255, 0, 0)" stroke-width="4.07" stroke-opacity="1.00" stroke-linejoin="round"/>
<path d="M289.40,318.02 C289.40,317.74 289.39,317.54 289.36,317.41 C289.34,317.27 289.26,317.02 289.14,316.64 C289.14,316.64 288.57,316.92 288.57,316.92 C288.74,317.41 299.12,323.60 304.83,328.15 C307.48,330.28 320.84,346.21 321.56,347.38 C322.77,349.35 323.52,350.90 323.58,351.46 C323.58,351.46 323.51,351.56 323.51,351.56" fill="none" stroke="rgb(255, 0, 0)" stroke-width="4.07" stroke-opacity="1.00" stroke-linejoin="round"/>
<path d="M303.62,332.52 C303.62,332.52 303.38,330.50 303.38,330.50 C304.25,331.62 312.69,343.98 314.94,347.62 C317.90,352.45 323.26,363.11 325.22,368.74 C327.23,374.62 329.61,389.55 329.71,390.07 C329.88,390.97 330.34,393.13 330.36,393.31 C330.31,393.25 330.27,393.18 330.22,393.12 C330.20,393.09 330.19,393.07 330.18,393.05" fill="none" stroke="rgb(255, 0, 0)" stroke-width="4.07" stroke-opacity="1.00" stroke-linejoin="round"/>
<path d="M317.90,371.04 C317.90,371.04 317.12,369.35 317.12,369.35 C317.95,370.37 322.18,384.98 323.23,389.51 C324.52,395.11 326.40,407.08 327.07,413.68 C327.83,422.28 328.09,448.83 327.52,456.58 C327.17,461.15 326.88,462.96 326.86,462.90 C326.86,462.90 326.78,462.59 326.78,462.59" fill="none" stroke="rgb(255, 0, 0)" stroke-width="4.07" stroke-opacity="1.00" stroke-linejoin="round"/>
<path d="M107.75,429.32 C107.75,429.32 107.84,428.20 107.84,428.20 C108.96,428.33 123.18,429.59 127.66,430.63 C132.47,431.76 144.64,436.79 148.26,439.08 C148.55,439.27 149.08,439.63 149.86,440.16 C149.79,440.19 149.75,440.20 149.71,440.21 C149.68,440.21 149.62,440.21 149.53,440.19" fill="none" stroke="rgb(255, 0, 0)" stroke-width="4.07" stroke-opacity="1.00" stroke-linejoin="round"/>
<path d="M102.56,449.09 C102.56,449.09 102.41,449.11 102.41,449.11 C103.62,449.06 140.43,451.03 148.39,451.70 C150.94,451.94 152.86,452.20 152.86,452.20 C152.86,452.20 152.50,452.07 152.50,452.07" fill="none" stroke="rgb(255, 0, 0)" stroke-width="4.07" stroke-opacity="1.00" stroke-linejoin="round"/>
<path d="M290.64,423.91 C290.55,423.92 290.50,423.92 290.47,423.93 C290.44,423.93 290.41,423.94 290.38,423.95 C290.67,423.92 290.91,423.74 291.45,423.07 C292.61,421.64 296.68,419.42 300.37,418.32 C302.17,417.80 320.94,413.02 321.66,412.79 C323.73,412.13 325.45,411.31 325.38,411.13 C325.38,411.13 325.26,411.07 325.26,411.07" fill="none" stroke="rgb(255, 0, 0)" stroke-width="4.07" stroke-opacity="1.00" stroke-linejoin="round"/>
<path d="M297.00,434.91 C297.00,434.91 294.67,436.86 294.67,436.86 C297.12,435.61 302.51,432.89 305.19,431.68 C307.86,430.49 312.96,428.64 318.22,426.92 C321.87,425.74 322.22,425.56 322.27,425.41" fill="none" stroke="rgb(255, 0, 0)" stroke-width="4.07" stroke-opacity="1.00" stroke-linejoin="round"/>
<path d="M174.29,390.07 C174.29,390.07 174.78,388.85 174.78,388.85 C174.78,388.85 174.48,388.82 174.48,388.82 C174.46,389.15 172.16,390.17 171.89,391.26 C171.66,392.41 172.60,395.26 174.10,397.44 C176.42,400.75 187.65,412.14 191.41,415.50 C195.86,419.46 207.37,426.99 209.27,427.73 C210.98,428.38 212.71,428.68 213.35,428.36 C214.75,427.60 217.43,424.75 218.99,422.52 C219.53,421.74 230.97,404.84 234.96,399.33 C241.54,390.70 244.89,385.96 251.07,376.50 C253.23,373.29 262.49,361.02 263.86,357.08 C264.62,354.84 265.13,351.08 264.68,350.10 C264.34,349.45 261.62,349.30 258.79,350.76 C254.61,352.94 246.33,361.02 242.85,365.26 C238.50,370.59 234.71,377.08 228.98,388.05 C223.33,398.81 221.24,402.19 215.10,410.50 C214.15,411.77 212.72,413.05 211.97,413.23 C210.66,413.47 204.89,409.01 203.87,408.29 C202.77,407.51 190.41,399.96 182.30,394.23 C178.49,391.53 175.67,390.03 173.48,390.41 C173.29,390.44 173.21,390.50 173.25,390.58 C173.25,390.58 175.53,395.20 175.53,395.20 C175.53,395.20 174.98,390.92 174.98,390.92 C174.98,390.92 175.91,395.48 175.91,395.48 C175.91,395.48 175.79,393.67 175.79,393.67 C175.79,393.67 176.47,397.19 176.47,397.19 C177.66,397.25 178.19,394.75 178.22,394.52 C178.22,394.52 179.74,399.53 179.74,399.53 C179.74,399.53 180.22,396.48 180.22,396.48 C180.22,396.48 183.26,403.66 183.26,403.66 C183.26,403.66 181.93,397.23 181.93,397.23 C181.93,397.23 185.65,405.16 185.65,405.16 C186.53,404.76 186.74,403.33 186.17,401.05 C186.08,400.68 185.96,400.39 185.83,400.18 C185.08,400.98 188.78,408.77 189.88,409.53 C189.88,409.53 188.30,402.96 188.30,402.96 C188.30,402.96 192.76,412.91 192.76,412.91 C192.76,412.91 190.92,405.17 190.92,405.17 C190.46,409.60 194.37,414.63 195.15,415.21 C195.87,413.60 196.04,412.39 195.62,410.66 C195.21,408.94 194.83,407.86 194.21,406.53 C194.21,406.53 198.32,417.76 198.32,417.76 C198.32,417.76 197.82,409.54 197.82,409.54 C197.82,409.54 201.68,420.63 201.68,420.63 C203.16,418.44 201.27,413.44 201.00,413.30 C200.55,417.94 203.13,422.24 203.40,422.39 C205.41,421.40 204.16,412.26 203.90,411.09 C202.83,413.84 205.05,423.23 205.95,424.03 C207.69,422.84 206.39,414.82 205.94,413.29 C205.67,414.25 206.45,420.16 207.34,422.73 C208.09,424.86 208.80,425.22 209.11,425.29 C210.44,424.62 210.43,417.65 210.30,416.17 C210.22,422.44 211.59,423.88 211.95,424.15 C213.14,423.50 214.61,417.67 215.17,414.02 C215.22,413.65 215.26,413.20 215.28,412.67 C214.05,418.78 214.92,422.66 215.30,422.94 C215.30,422.94 218.88,410.00 218.88,410.00 C218.88,410.00 217.66,421.71 217.66,421.71 C217.66,421.71 223.48,403.54 223.48,403.54 C223.48,403.54 222.23,418.57 222.23,418.57 C222.23,418.57 228.26,398.19 228.26,398.19 C228.26,398.19 225.16,405.90 225.16,405.90 C225.16,405.90 232.04,386.55 232.04,386.55 C232.04,386.55 227.20,404.45 227.20,404.45 C227.20,404.45 236.17,384.80 236.17,384.80 C236.17,384.80 233.06,399.13 233.06,399.13 C233.06,399.13 243.09,372.18 243.09,372.18 C243.09,372.18 237.11,392.02 237.11,392.02 C237.11,392.02 247.32,365.16 247.32,365.16 C247.32,365.16 241.18,381.09 241.18,381.09 C241.18,381.09 247.68,366.66 247.68,366.66 C247.68,366.66 236.65,381.81 236.65,381.81 C236.65,381.81 243.54,367.35 243.54,367.35 C243.54,367.35 236.10,382.17 236.10,382.17 C236.10,382.17 245.48,364.18 245.48,364.18 C245.48,364.18 234.67,380.36 234.67,380.36 C234.67,380.36 245.68,364.19 245.68,364.19 C245.68,364.19 240.10,378.39 240.10,378.39 C242.45,376.56 252.79,358.19 253.31,357.25 C253.31,357.25 242.54,382.17 242.54,382.17 C245.61,380.75 256.21,359.99 256.59,359.21 C246.66,376.54 244.76,382.22 244.38,383.63 C244.38,383.63 260.31,356.77 260.31,356.77 C260.31,356.77 252.60,368.66 252.60,368.66 C253.58,367.81 260.33,356.44 260.69,354.27 C260.72,354.03 260.72,353.67 260.68,353.18 C259.53,353.18 258.31,353.86 256.40,355.68 C254.00,358.02 251.15,361.31 250.81,362.44 C254.99,359.85 255.04,355.54 254.92,355.13 C253.00,354.63 247.92,358.81 247.35,359.33" fill="none" stroke="rgb(255, 0, 0)" stroke-width="4.07" stroke-opacity="1.00" stroke-linejoin="round"/>
<path d="M118.46,430.31 C118.31,430.56 118.21,430.83 118.18,431.14 C117.98,432.90 119.57,453.56 120.06,454.79 C120.53,453.79 120.82,453.15 120.92,452.88 C121.01,452.60 121.05,452.31 121.03,452.00" fill="none" stroke="rgb(255, 0, 0)" stroke-width="4.07" stroke-opacity="1.00" stroke-linejoin="round"/>
<path d="M130.41,433.81 C130.41,433.81 130.34,432.81 130.34,432.81 C130.34,432.81 130.65,450.60 130.65,450.60 C130.65,450.60 131.27,449.51 131.27,449.51" fill="none" stroke="rgb(255, 0, 0)" stroke-width="4.07" stroke-opacity="1.00" stroke-linejoin="round"/>
<path d="M136.07,435.27 C136.07,435.27 136.45,434.63 136.45,434.63 C136.63,434.78 137.93,439.33 138.19,442.95 C138.25,443.70 138.40,448.40 138.46,449.42 C138.48,449.77 138.52,450.20 138.58,450.70" fill="none" stroke="rgb(255, 0, 0)" stroke-width="4.07" stroke-opacity="1.00" stroke-linejoin="round"/>
<path d="M300.47,418.69 C300.47,418.69 300.39,418.64 300.39,418.64 C300.39,418.64 299.99,418.12 299.99,418.12 C299.99,418.12 299.52,418.19 299.52,418.19 C298.34,419.53 299.32,427.53 300.35,434.25 C300.35,434.25 300.45,432.12 300.45,432.12" fill="none" stroke="rgb(255, 0, 0)" stroke-width="4.07" stroke-opacity="1.00" stroke-linejoin="round"/>
<path d="M302.48,418.58 C302.48,418.58 302.48,417.92 302.48,417.92 C302.59,417.86 302.66,418.46 302.73,420.26 C302.78,421.49 302.90,424.35 302.97,425.98 C303.04,427.90 303.24,429.10 303.71,430.90 C303.71,430.90 303.91,430.86 303.91,430.86 C303.95,430.80 304.02,430.63 304.12,430.36 C304.21,430.08 304.44,429.32 304.83,428.07" fill="none" stroke="rgb(255, 0, 0)" stroke-width="4.07" stroke-opacity="1.00" stroke-linejoin="round"/>
<path d="M308.26,415.03 C308.38,414.77 308.47,414.59 308.54,414.50 C308.60,414.41 308.73,414.29 308.91,414.12 C309.02,416.04 309.12,417.34 309.35,419.46 C309.96,425.13 310.22,427.06 310.39,428.32 C310.39,428.32 310.45,427.58 310.45,427.58" fill="none" stroke="rgb(255, 0, 0)" stroke-width="4.07" stroke-opacity="1.00" stroke-linejoin="round"/>
<path d="M313.63,414.81 C313.63,414.81 314.40,413.87 314.40,413.87 C314.40,413.87 314.73,414.11 314.73,414.11 C314.77,414.38 314.66,416.24 314.65,417.00 C314.64,417.57 314.86,425.68 314.90,427.07 C314.90,427.07 314.68,426.19 314.68,426.19" fill="none" stroke="rgb(255, 0, 0)" stroke-width="4.07" stroke-opacity="1.00" stroke-linejoin="round"/>
<path d="M321.05,411.89 C321.06,411.97 320.98,412.60 320.84,413.12 C319.69,417.55 320.47,422.24 320.84,423.88 C320.84,423.88 320.94,423.65 320.94,423.65" fill="none" stroke="rgb(255, 0, 0)" stroke-width="4.07" stroke-opacity="1.00" stroke-linejoin="round"/>
<path d="M109.98,434.40 C109.92,434.42 109.86,434.35 109.80,434.19 C109.75,434.03 109.61,433.56 109.39,432.76 C109.39,432.76 108.91,432.68 108.91,432.68 C107.76,434.94 107.94,447.07 108.59,448.00 C108.59,448.00 110.24,433.30 110.24,433.30 C110.24,433.30 112.14,448.51 112.14,448.51 C112.14,448.51 113.07,432.96 113.07,432.96 C113.07,432.96 114.38,446.04 114.38,446.04 C114.38,446.04 115.10,434.50 115.10,434.50 C115.10,434.50 114.98,446.00 114.98,446.00 C114.98,446.00 114.70,438.35 114.70,438.35" fill="none" stroke="rgb(255, 0, 0)" stroke-width="4.07" stroke-opacity="1.00" stroke-linejoin="round"/>
<path d="M122.26,434.69 C122.26,434.69 121.84,433.25 121.84,433.25 C121.84,433.25 122.39,448.88 122.39,448.88 C122.39,448.88 122.93,433.94 122.93,433.94 C122.93,433.94 124.26,447.63 124.26,447.63 C124.26,447.63 125.82,436.22 125.82,436.22 C125.78,436.33 125.35,441.24 125.23,443.72 C125.06,447.44 125.04,447.90 125.07,448.03 C125.07,448.03 125.14,447.82 125.14,447.82 C125.14,447.82 125.43,447.77 125.43,447.77" fill="none" stroke="rgb(255, 0, 0)" stroke-width="4.07" stroke-opacity="1.00" stroke-linejoin="round"/>
<path d="M133.04,437.61 C133.04,437.61 131.10,437.27 131.10,437.27 C131.10,437.27 133.03,450.40 133.03,450.40 C133.03,450.40 133.01,435.92 133.01,435.92 C133.03,439.02 133.23,446.03 133.31,447.23 C133.40,448.71 133.57,449.91 133.58,449.85" fill="none" stroke="rgb(255, 0, 0)" stroke-width="4.07" stroke-opacity="1.00" stroke-linejoin="round"/>
<path d="M141.41,440.17 C141.41,440.17 140.47,438.62 140.47,438.62 C140.47,438.62 141.19,450.01 141.19,450.01 C141.19,450.01 142.44,437.91 142.44,437.91 C142.44,437.91 144.73,446.38 144.73,446.38" fill="none" stroke="rgb(255, 0, 0)" stroke-width="4.07" stroke-opacity="1.00" stroke-linejoin="round"/>
<path d="M293.93,421.72 C293.93,421.72 293.75,421.18 293.75,421.18 C293.75,421.18 295.18,435.22 295.18,435.22 C295.18,435.22 294.99,423.47 294.99,423.47 C294.81,425.91 295.24,431.95 295.60,433.86 C295.73,434.54 295.99,435.08 296.04,435.09" fill="none" stroke="rgb(255, 0, 0)" stroke-width="4.07" stroke-opacity="1.00" stroke-linejoin="round"/>
<path d="M304.64,419.49 C304.64,419.49 304.58,418.91 304.58,418.91 C304.58,418.91 304.73,430.33 304.73,430.33 C304.73,430.33 305.10,418.12 305.10,418.12 C305.22,419.62 305.55,423.76 305.69,424.79 C305.92,426.48 306.42,428.87 306.41,428.82" fill="none" stroke="rgb(255, 0, 0)" stroke-width="4.07" stroke-opacity="1.00" stroke-linejoin="round"/>
<path d="M320.75,415.58 C320.76,415.52 320.76,415.47 320.77,415.45 C320.77,415.42 320.79,415.38 320.82,415.31 C320.85,415.51 320.86,415.79 320.90,417.40 C320.98,420.83 321.24,423.86 321.32,424.74 C321.32,424.74 321.82,417.16 321.82,417.16 C321.87,417.21 321.98,421.37 322.14,422.06 C322.17,422.16 322.22,422.26 322.30,422.35 C322.30,422.35 322.37,422.18 322.37,422.18" fill="none" stroke="rgb(255, 0, 0)" stroke-width="4.07" stroke-opacity="1.00" stroke-linejoin="round"/>
</g>
</svg>
