<?xml version="1.0" encoding="UTF-8" standalone="no"?>
<!DOCTYPE svg PUBLIC "-//W3C//DTD SVG 1.1//EN" "http://www.w3.org/Graphics/SVG/1.1/DTD/svg11.dtd">
<svg width="128.40" height="181.68" viewBox="0.00 0.00 535.00 757.00" xmlns="http://www.w3.org/2000/svg" xmlns:xlink="http://www.w3.org/1999/xlink">
<g stroke-linecap="round" transform="translate(44.00, 155.00)" id="200_구름-2">
<path d="M317.53,-127.51 C317.67,-127.96 317.77,-128.27 317.84,-128.43 C317.98,-128.74 318.20,-129.01 318.27,-129.34 C318.31,-129.55 318.32,-130.01 318.32,-130.74 C316.59,-132.67 312.88,-134.21 310.70,-134.42 C308.24,-134.61 303.35,-133.08 300.80,-131.61 C298.41,-130.20 294.30,-126.47 292.63,-124.30 C288.80,-119.21 288.94,-114.81 289.27,-113.89 C288.83,-114.63 288.00,-115.23 286.88,-115.36 C285.52,-115.49 283.57,-114.11 282.48,-112.24 C281.97,-111.32 281.62,-108.34 281.75,-107.24 C281.97,-105.87 283.26,-103.23 284.22,-102.26 C285.21,-101.32 287.77,-99.99 289.24,-99.65 C293.77,-98.68 301.91,-100.08 302.62,-100.24 C301.19,-98.70 300.15,-97.15 300.23,-96.05 C300.43,-93.70 303.54,-89.57 305.20,-88.55 C307.14,-87.41 311.51,-86.71 314.41,-87.04 C317.67,-87.48 323.05,-90.24 324.84,-92.80 C325.70,-94.09 326.97,-95.23 329.13,-96.76 C330.07,-95.87 332.91,-95.06 335.67,-94.92 C338.29,-94.80 343.11,-95.32 345.52,-95.98 C347.41,-96.51 352.66,-99.27 354.19,-101.42 C354.64,-102.08 356.20,-105.64 357.01,-107.42 C357.15,-107.59 362.02,-106.36 365.24,-106.49 C368.43,-106.65 375.39,-107.75 378.57,-108.66 C382.13,-109.72 387.52,-112.91 389.31,-115.17 C391.01,-117.38 392.88,-122.90 393.13,-125.83 C393.19,-127.22 392.56,-130.08 391.75,-131.19 C390.84,-132.36 387.18,-133.91 385.16,-134.16 C382.65,-134.43 375.87,-133.56 375.50,-133.73 C375.83,-134.59 376.07,-136.16 375.89,-137.08 C375.64,-138.22 370.40,-141.54 367.91,-142.70 C364.76,-144.12 358.68,-145.83 355.71,-145.95 C352.85,-146.02 346.67,-144.88 343.67,-143.90 C340.57,-142.84 337.21,-140.74 335.03,-137.50 C331.04,-139.48 328.38,-140.36 325.64,-140.37 C322.97,-140.32 318.80,-139.09 317.01,-137.69 C315.50,-136.46 312.82,-128.46 312.45,-128.28 C312.45,-128.28 312.84,-128.36 312.84,-128.36" fill="none" stroke="rgb(0, 0, 255)" stroke-width="4.07" stroke-opacity="1.00" stroke-linejoin="round"/>
</g>
</svg>
