<?xml version="1.0" encoding="UTF-8" standalone="no"?>
<!DOCTYPE svg PUBLIC "-//W3C//DTD SVG 1.1//EN" "http://www.w3.org/Graphics/SVG/1.1/DTD/svg11.dtd">
<svg width="128.40" height="181.68" viewBox="0.00 0.00 535.00 757.00" xmlns="http://www.w3.org/2000/svg" xmlns:xlink="http://www.w3.org/1999/xlink">
<g stroke-linecap="round" transform="translate(44.00, 155.00)" id="200_구름-5">
<path d="M122.91,-119.39 C122.91,-119.39 122.92,-119.32 122.92,-119.32 C123.29,-119.61 124.39,-121.07 124.93,-122.11 C125.72,-123.69 126.06,-129.16 125.52,-130.95 C125.10,-132.20 123.66,-133.55 122.59,-133.55 C120.68,-133.46 115.43,-129.24 113.30,-126.08 C112.28,-124.51 110.68,-119.87 110.59,-118.06 C110.51,-115.38 111.55,-112.90 113.23,-111.79 C113.74,-111.48 115.89,-111.31 116.35,-111.52 C117.72,-112.25 118.90,-114.61 118.73,-116.63 C118.55,-118.34 116.99,-121.54 115.96,-122.39 C114.90,-123.19 112.80,-122.77 111.46,-121.73 C110.34,-120.80 107.92,-116.88 106.98,-114.43 C106.09,-112.05 104.77,-106.31 104.49,-103.20 C104.17,-99.37 104.69,-92.96 105.46,-91.71 C106.54,-90.06 108.35,-88.40 109.66,-87.85 C112.99,-86.54 119.48,-84.83 121.60,-85.96 C124.11,-87.42 126.87,-94.11 126.36,-94.94 C126.31,-95.01 126.11,-95.25 125.74,-95.65 C124.37,-95.74 122.77,-95.42 121.87,-94.59 C120.84,-93.60 120.27,-91.45 120.80,-90.28 C121.33,-89.22 123.54,-87.46 124.97,-87.03 C127.69,-86.26 133.03,-86.60 135.07,-86.99 C138.04,-87.62 144.03,-90.31 146.96,-93.01 C148.62,-94.58 150.31,-97.41 150.84,-99.36 C151.05,-100.23 150.54,-101.65 150.10,-102.15 C149.59,-102.60 146.54,-102.86 144.83,-102.51 C142.91,-102.08 140.18,-100.06 139.95,-98.95 C139.89,-98.60 139.97,-97.92 140.20,-96.93 C140.61,-96.42 142.58,-96.27 144.36,-96.78 C145.77,-97.20 150.21,-102.29 151.62,-105.38 C154.72,-112.33 155.42,-121.07 155.01,-123.75 C154.76,-125.06 153.40,-126.93 152.05,-127.64 C150.92,-128.18 147.16,-128.20 145.66,-127.75 C142.51,-126.71 137.78,-121.29 137.71,-120.09 C138.63,-119.35 139.39,-119.22 140.22,-119.89 C141.91,-121.29 144.09,-124.85 144.93,-127.95 C145.07,-128.49 145.68,-131.62 145.72,-132.34 C145.77,-134.21 144.93,-136.24 143.69,-136.70 C141.63,-137.36 134.26,-134.40 132.11,-132.68 C129.77,-130.72 127.54,-128.34 125.64,-125.68 C122.76,-121.54 122.37,-120.73 122.09,-119.70 C122.09,-119.70 122.30,-119.63 122.30,-119.63" fill="none" stroke="rgb(0, 0, 255)" stroke-width="4.07" stroke-opacity="1.00" stroke-linejoin="round"/>
</g>
</svg>
