<?xml version="1.0" encoding="UTF-8" standalone="no"?>
<!DOCTYPE svg PUBLIC "-//W3C//DTD SVG 1.1//EN" "http://www.w3.org/Graphics/SVG/1.1/DTD/svg11.dtd">
<svg width="128.40" height="181.68" viewBox="0.00 0.00 535.00 757.00" xmlns="http://www.w3.org/2000/svg" xmlns:xlink="http://www.w3.org/1999/xlink">
<g stroke-linecap="round" transform="translate(44.00, 155.00)" id="201_구름">
<path d="M-3.12,-70.52 C-3.12,-70.52 -3.34,-70.47 -3.34,-70.47 C-3.34,-70.47 -3.70,-70.80 -3.70,-70.80 C-4.46,-71.01 -9.85,-66.34 -12.23,-64.27 C-14.96,-61.83 -21.40,-55.10 -21.83,-54.54 C-23.03,-52.96 -23.91,-50.75 -23.87,-49.32 C-23.78,-48.08 -22.84,-46.48 -21.92,-46.31 C-20.15,-46.04 -14.33,-48.42 -11.66,-49.52 C-7.80,-51.16 -3.29,-52.81 -2.28,-53.04 C1.57,-53.87 5.57,-52.52 9.83,-50.77 C15.42,-48.42 27.63,-41.81 34.25,-38.17 C38.15,-36.03 41.81,-34.35 44.69,-33.69 C49.26,-32.70 58.88,-34.40 66.02,-36.49 C74.88,-39.20 87.22,-42.49 93.00,-43.48 C101.94,-44.99 112.88,-45.64 119.18,-44.59 C128.90,-42.97 141.79,-41.64 145.01,-41.90 C147.17,-42.11 151.07,-43.69 154.31,-45.89 C164.08,-52.62 172.11,-57.66 177.71,-59.70 C183.62,-61.81 200.92,-63.86 206.27,-63.37 C211.83,-62.83 223.58,-59.67 232.88,-55.68 C237.26,-53.84 243.25,-52.01 246.42,-51.55 C250.04,-51.08 254.87,-50.33 259.58,-49.48 C263.52,-48.80 266.02,-48.82 270.63,-50.06 C274.80,-51.09 278.78,-51.03 283.94,-50.55 C291.87,-49.63 307.16,-47.74 310.94,-46.73 C314.14,-45.87 321.77,-43.12 322.80,-42.79 C326.56,-41.62 334.13,-40.52 337.63,-40.67 C340.69,-40.84 345.89,-42.30 348.74,-43.58 C350.24,-44.26 354.99,-46.71 357.02,-47.36 C359.65,-48.15 364.48,-48.45 368.89,-48.11 C388.05,-46.47 404.92,-44.16 407.84,-42.77 C408.98,-42.23 412.28,-40.12 412.82,-39.96 C414.97,-39.37 420.37,-41.15 422.10,-42.25 C425.88,-44.70 438.37,-58.03 438.94,-58.56 C439.88,-59.44 447.41,-64.88 448.33,-65.63 C450.33,-67.27 454.04,-72.48 454.70,-75.29 C455.21,-77.54 454.86,-80.21 453.87,-82.68 C453.13,-84.41 450.11,-86.91 444.90,-90.45 C441.24,-92.85 433.68,-97.79 431.60,-98.83 C430.19,-99.52 427.07,-100.15 421.03,-100.36 C419.64,-100.44 418.75,-101.47 418.34,-103.17 C417.46,-107.13 415.33,-110.47 413.37,-111.84 C411.21,-113.27 406.78,-114.30 402.35,-114.85 C391.75,-115.93 369.78,-111.66 366.76,-112.19 C364.48,-112.62 359.33,-118.01 358.60,-118.80 C356.82,-120.71 353.12,-123.32 350.93,-123.88 C346.64,-124.93 337.27,-123.85 325.85,-122.08 C314.21,-120.16 306.92,-118.18 299.67,-115.09 C296.14,-113.57 276.89,-103.79 274.31,-102.67 C271.36,-101.43 268.04,-100.27 266.37,-100.15 C264.29,-100.03 259.84,-101.40 256.78,-102.98 C256.31,-103.22 248.21,-107.37 244.75,-108.46 C242.93,-109.01 236.60,-110.21 232.94,-110.35 C225.18,-110.62 211.97,-107.67 208.63,-106.41 C205.77,-105.32 184.91,-96.15 181.95,-95.09 C175.91,-92.94 163.66,-89.72 157.22,-89.59 C154.16,-89.56 149.49,-90.70 143.56,-92.67 C139.57,-93.97 136.29,-94.28 132.78,-93.71 C129.09,-93.06 125.27,-91.87 121.86,-90.35 C111.76,-85.78 99.70,-80.83 96.78,-81.03 C95.81,-81.14 93.48,-81.44 92.81,-81.69 C90.64,-82.51 88.43,-84.21 86.73,-86.30 C84.64,-88.90 81.99,-91.66 80.01,-93.00 C77.69,-94.53 73.69,-95.58 70.19,-95.71 C67.23,-95.78 47.46,-90.91 44.66,-90.05 C42.69,-89.43 23.28,-81.12 18.92,-78.99 C16.77,-77.94 -0.58,-69.03 -6.22,-67.28 C-7.87,-66.76 -10.52,-65.65 -11.32,-64.97 C-12.18,-64.23 -12.70,-62.56 -12.71,-61.67" fill="none" stroke="rgb(255, 0, 0)" stroke-width="3.98" stroke-opacity="1.00" stroke-linejoin="round"/>
</g>
</svg>
