<?xml version="1.0" encoding="UTF-8" standalone="no"?>
<!DOCTYPE svg PUBLIC "-//W3C//DTD SVG 1.1//EN" "http://www.w3.org/Graphics/SVG/1.1/DTD/svg11.dtd">
<svg width="128.40" height="181.68" viewBox="0.00 0.00 535.00 757.00" xmlns="http://www.w3.org/2000/svg" xmlns:xlink="http://www.w3.org/1999/xlink">
<g stroke-linecap="round" transform="translate(44.00, 155.00)" id="202_비">
<path d="M-2.70,86.41 C-2.70,86.41 -3.06,86.41 -3.06,86.41 C-3.06,86.41 -3.14,86.21 -3.14,86.21 C-2.90,86.14 -0.71,89.86 -0.73,92.36 C-0.76,95.74 -2.60,148.06 -2.29,151.90 C-2.29,151.90 -2.11,150.09 -2.11,150.09" fill="none" stroke="rgb(85, 111, 181)" stroke-width="4.16" stroke-opacity="1.00" stroke-linejoin="round"/>
<path d="M-28.67,162.26 C-28.67,162.26 -29.59,162.31 -29.59,162.31 C-29.59,162.31 -30.26,163.00 -30.26,163.00 C-30.26,163.00 -28.01,215.04 -28.01,215.04 C-28.01,215.04 -28.40,215.23 -28.40,215.23 C-28.40,215.23 -28.68,213.65 -28.68,213.65" fill="none" stroke="rgb(85, 111, 181)" stroke-width="4.16" stroke-opacity="1.00" stroke-linejoin="round"/>
<path d="M8.55,166.98 C8.55,166.98 7.30,166.82 7.30,166.82 C7.30,166.82 6.93,167.15 6.93,167.15 C7.15,172.24 8.12,187.56 8.62,194.93 C8.83,198.72 9.09,203.46 9.12,204.72" fill="none" stroke="rgb(85, 111, 181)" stroke-width="4.16" stroke-opacity="1.00" stroke-linejoin="round"/>
<path d="M-17.59,243.08 C-18.00,243.69 -18.23,244.10 -18.31,244.32 C-18.47,244.84 -17.56,261.35 -16.80,269.88 C-16.40,273.73 -15.52,277.55 -14.61,278.45 C-14.22,277.79 -14.08,277.40 -13.80,276.25 C-13.20,273.78 -11.72,270.06 -9.99,266.56" fill="none" stroke="rgb(85, 111, 181)" stroke-width="4.16" stroke-opacity="1.00" stroke-linejoin="round"/>
<path d="M10.87,231.17 C10.87,231.17 11.01,229.90 11.01,229.90 C10.90,231.86 10.89,235.58 10.96,241.51 C11.03,245.67 11.14,253.92 11.19,258.01 C11.19,258.71 11.19,259.41 11.19,260.11 C11.17,260.17 11.13,259.93 11.12,259.43 C11.11,259.25 11.11,258.82 11.10,258.15" fill="none" stroke="rgb(85, 111, 181)" stroke-width="4.16" stroke-opacity="1.00" stroke-linejoin="round"/>
<path d="M33.62,90.54 C33.62,90.54 33.66,89.08 33.66,89.08 C33.50,92.05 33.13,99.59 33.09,103.21 C33.06,106.82 33.30,113.68 33.40,116.36" fill="none" stroke="rgb(85, 111, 181)" stroke-width="4.16" stroke-opacity="1.00" stroke-linejoin="round"/>
<path d="M38.83,130.91 C38.83,130.91 38.68,130.56 38.68,130.56 C38.04,133.13 36.83,173.55 36.34,189.56 C35.55,204.37 32.63,247.21 32.23,249.31 C32.15,249.68 31.96,250.38 31.65,251.42 C31.65,251.42 31.64,249.92 31.64,249.92" fill="none" stroke="rgb(85, 111, 181)" stroke-width="4.16" stroke-opacity="1.00" stroke-linejoin="round"/>
<path d="M65.80,124.79 C65.80,124.79 66.69,124.44 66.69,124.44 C66.90,128.03 66.74,134.77 66.65,138.80 C66.51,147.72 67.40,159.28 67.71,162.82 C67.88,164.74 68.07,166.11 68.54,168.99" fill="none" stroke="rgb(85, 111, 181)" stroke-width="4.16" stroke-opacity="1.00" stroke-linejoin="round"/>
<path d="M85.81,102.95 C85.81,102.95 87.63,98.57 87.63,98.57 C88.84,99.90 89.26,105.34 89.62,108.74 C91.17,124.83 93.88,158.37 94.67,173.36 C94.85,177.06 95.18,183.42 95.32,186.10" fill="none" stroke="rgb(85, 111, 181)" stroke-width="4.16" stroke-opacity="1.00" stroke-linejoin="round"/>
<path d="M67.62,240.60 C66.89,241.26 66.67,244.20 66.95,249.03 C67.51,257.67 65.37,297.42 64.45,313.37 C64.11,326.61 63.84,353.84 63.18,354.71 C62.84,353.58 62.63,352.89 62.57,352.63 C62.50,352.36 62.48,352.17 62.50,352.05" fill="none" stroke="rgb(85, 111, 181)" stroke-width="4.16" stroke-opacity="1.00" stroke-linejoin="round"/>
<path d="M74.73,237.79 C74.73,237.79 74.70,237.96 74.70,237.96 C74.70,237.96 75.19,234.73 75.19,234.73 C75.54,234.82 78.65,254.41 79.94,260.27 C80.67,263.49 81.28,264.69 81.83,265.52 C81.83,265.52 82.02,265.45 82.02,265.45 C82.02,265.45 82.18,265.06 82.18,265.06" fill="none" stroke="rgb(85, 111, 181)" stroke-width="4.16" stroke-opacity="1.00" stroke-linejoin="round"/>
<path d="M104.51,245.31 C104.48,244.70 104.46,244.09 104.43,243.48 C104.42,243.29 104.41,243.11 104.40,242.92 C105.09,249.93 106.38,262.79 106.42,263.08 C106.73,265.31 107.14,267.16 107.30,267.25 C107.40,266.42 107.47,265.77 107.51,265.29 C107.58,264.56 107.89,260.11 108.00,258.50" fill="none" stroke="rgb(85, 111, 181)" stroke-width="4.16" stroke-opacity="1.00" stroke-linejoin="round"/>
<path d="M138.59,112.05 C138.62,111.83 138.63,111.68 138.64,111.59 C138.66,111.35 138.67,111.19 138.66,111.13 C138.66,111.09 138.65,111.08 138.62,111.10 C138.67,113.17 138.74,118.27 138.76,121.30 C138.81,130.35 138.97,148.30 139.08,157.19 C139.13,159.38 139.45,167.15 139.46,171.46 C139.46,172.43 139.45,173.40 139.45,174.37" fill="none" stroke="rgb(85, 111, 181)" stroke-width="4.16" stroke-opacity="1.00" stroke-linejoin="round"/>
<path d="M136.85,208.92 C136.04,212.58 135.98,215.37 136.71,219.73 C136.87,220.76 135.83,280.94 135.56,284.92 C135.56,284.92 134.90,279.49 134.90,279.49" fill="none" stroke="rgb(85, 111, 181)" stroke-width="4.16" stroke-opacity="1.00" stroke-linejoin="round"/>
<path d="M163.74,87.56 C163.74,87.56 165.04,84.77 165.04,84.77 C165.04,84.77 165.01,84.77 165.01,84.78 C163.50,90.68 162.30,100.96 162.11,108.09 C162.01,114.97 162.20,133.16 162.33,141.67 C162.57,155.66 162.54,156.74 162.43,158.50" fill="none" stroke="rgb(85, 111, 181)" stroke-width="4.16" stroke-opacity="1.00" stroke-linejoin="round"/>
<path d="M180.70,206.52 C180.70,206.52 178.90,205.83 178.90,205.83 C178.39,206.01 178.38,258.89 178.48,262.07 C178.61,266.64 179.28,272.32 179.71,273.40 C179.93,273.30 180.16,272.67 180.31,271.35 C180.39,270.68 180.81,266.06 180.96,264.40" fill="none" stroke="rgb(85, 111, 181)" stroke-width="4.16" stroke-opacity="1.00" stroke-linejoin="round"/>
<path d="M208.41,120.57 C208.41,120.57 209.94,116.73 209.94,116.73 C208.95,117.46 207.17,118.46 206.59,118.90 C205.69,119.60 205.25,132.27 205.26,140.51 C205.46,150.89 207.01,175.85 207.38,181.04 C207.46,181.88 207.53,182.73 207.60,183.57" fill="none" stroke="rgb(85, 111, 181)" stroke-width="4.16" stroke-opacity="1.00" stroke-linejoin="round"/>
<path d="M230.00,205.28 C229.19,206.13 228.01,207.79 227.72,208.83 C227.55,209.42 226.25,231.77 225.77,241.15 C225.12,253.75 224.85,257.49 224.47,261.45 C224.47,261.45 224.33,260.58 224.33,260.58" fill="none" stroke="rgb(85, 111, 181)" stroke-width="4.16" stroke-opacity="1.00" stroke-linejoin="round"/>
<path d="M225.04,79.04 C225.04,79.04 230.55,74.93 230.55,74.93 C231.99,80.91 235.86,142.66 236.41,151.08 C236.71,155.01 237.10,158.52 237.56,161.12" fill="none" stroke="rgb(85, 111, 181)" stroke-width="4.16" stroke-opacity="1.00" stroke-linejoin="round"/>
<path d="M252.17,161.93 C252.17,161.93 251.62,162.10 251.62,162.10 C250.89,162.93 250.51,164.57 250.48,167.38 C250.43,173.50 252.77,212.93 253.66,230.93 C253.99,238.65 254.65,252.39 254.80,254.43 C254.80,254.43 254.74,251.11 254.74,251.11" fill="none" stroke="rgb(85, 111, 181)" stroke-width="4.16" stroke-opacity="1.00" stroke-linejoin="round"/>
<path d="M270.29,66.06 C270.44,64.25 270.53,62.40 270.35,61.81 C270.26,61.53 270.00,61.05 269.57,60.36 C269.42,60.25 270.51,76.18 270.96,82.69 C272.32,103.49 272.93,124.85 273.03,132.49 C273.04,133.67 273.08,136.39 273.10,137.94" fill="none" stroke="rgb(85, 111, 181)" stroke-width="4.16" stroke-opacity="1.00" stroke-linejoin="round"/>
<path d="M272.69,190.06 C272.69,190.06 271.65,190.29 271.65,190.29 C270.96,191.57 270.64,196.73 270.62,199.65 C270.59,203.34 271.51,226.93 271.75,229.72 C271.94,231.97 272.24,234.61 272.43,235.82 C272.71,235.37 272.88,235.05 272.95,234.86 C272.96,234.85 275.80,221.52 276.08,220.24" fill="none" stroke="rgb(85, 111, 181)" stroke-width="4.16" stroke-opacity="1.00" stroke-linejoin="round"/>
<path d="M288.24,151.76 C288.30,151.85 288.37,152.17 288.63,153.76 C290.06,162.45 291.49,198.70 292.06,215.30 C292.56,224.41 293.51,240.66 293.97,247.79 C294.08,249.70 294.18,250.75 294.44,252.76 C294.44,252.76 294.40,251.49 294.40,251.49" fill="none" stroke="rgb(85, 111, 181)" stroke-width="4.16" stroke-opacity="1.00" stroke-linejoin="round"/>
<path d="M313.06,71.68 C313.06,71.68 313.21,69.87 313.21,69.87 C313.29,70.35 313.33,71.30 313.30,73.03 C313.18,79.83 312.91,95.74 312.78,104.85 C312.77,119.77 313.63,130.97 314.03,132.92" fill="none" stroke="rgb(85, 111, 181)" stroke-width="4.16" stroke-opacity="1.00" stroke-linejoin="round"/>
<path d="M308.09,170.53 C308.09,170.53 307.34,171.01 307.34,171.01 C306.62,175.17 306.99,192.96 307.68,198.51 C307.94,200.54 308.38,202.82 308.66,203.82 C308.66,203.82 308.92,203.66 308.92,203.66 C309.11,202.62 309.23,201.91 309.29,201.52 C309.38,200.90 311.13,186.42 311.27,185.22" fill="none" stroke="rgb(85, 111, 181)" stroke-width="4.16" stroke-opacity="1.00" stroke-linejoin="round"/>
<path d="M326.79,62.91 C326.79,62.91 328.01,59.12 328.01,59.12 C327.75,70.45 329.32,110.53 330.17,120.79 C330.56,124.47 331.52,133.04 331.64,133.85 C332.31,138.25 332.87,139.57 333.48,140.50 C333.48,140.50 333.80,140.60 333.80,140.60" fill="none" stroke="rgb(85, 111, 181)" stroke-width="4.16" stroke-opacity="1.00" stroke-linejoin="round"/>
<path d="M338.87,170.78 C337.49,171.47 337.13,173.77 337.10,178.10 C337.00,194.47 336.69,227.87 336.49,244.89 C336.39,251.17 336.26,258.69 336.24,259.93 C336.17,259.08 336.13,258.49 336.10,258.17 C335.88,256.04 335.54,252.22 335.41,250.53" fill="none" stroke="rgb(85, 111, 181)" stroke-width="4.16" stroke-opacity="1.00" stroke-linejoin="round"/>
<path d="M355.74,73.58 C355.74,73.58 356.87,70.03 356.87,70.03 C355.92,70.84 355.50,71.57 355.24,73.18 C354.44,78.18 353.48,94.75 353.08,103.29 C352.04,131.05 351.74,134.59 351.60,135.90" fill="none" stroke="rgb(85, 111, 181)" stroke-width="4.16" stroke-opacity="1.00" stroke-linejoin="round"/>
<path d="M357.07,141.33 C357.07,141.33 357.08,141.56 357.08,141.56 C358.05,142.35 358.66,143.42 358.82,144.92 C358.85,145.23 360.86,191.57 361.65,210.00 C362.37,225.95 363.12,242.73 363.16,243.57 C363.16,243.57 363.03,241.46 363.03,241.46" fill="none" stroke="rgb(85, 111, 181)" stroke-width="4.16" stroke-opacity="1.00" stroke-linejoin="round"/>
<path d="M368.07,45.62 C368.20,45.40 368.29,45.26 368.33,45.21 C368.38,45.16 368.44,45.11 368.53,45.08 C368.88,47.36 369.85,87.00 370.11,102.57 C370.37,117.38 372.20,156.58 372.84,163.42 C374.89,182.32 376.50,190.71 376.96,192.67 C376.96,192.67 376.75,190.61 376.75,190.61" fill="none" stroke="rgb(85, 111, 181)" stroke-width="4.16" stroke-opacity="1.00" stroke-linejoin="round"/>
<path d="M386.51,93.69 C386.51,93.69 386.72,93.51 386.72,93.51 C387.56,93.64 388.00,97.35 388.41,102.86 C389.69,120.74 392.67,161.64 393.50,167.80 C394.60,175.67 397.80,198.39 397.85,199.06 C397.99,201.05 397.92,203.01 397.77,202.89" fill="none" stroke="rgb(85, 111, 181)" stroke-width="4.16" stroke-opacity="1.00" stroke-linejoin="round"/>
<path d="M383.45,216.69 C383.30,219.16 383.26,220.51 383.29,222.94 C383.38,231.65 383.55,249.65 383.82,250.58 C383.89,250.81 384.03,250.98 384.23,251.07 C384.23,251.07 384.88,249.96 384.88,249.96" fill="none" stroke="rgb(85, 111, 181)" stroke-width="4.16" stroke-opacity="1.00" stroke-linejoin="round"/>
<path d="M410.50,212.97 C410.50,212.97 410.63,212.79 410.63,212.79 C410.63,212.79 410.81,212.92 410.81,212.92 C410.05,225.58 409.40,232.33 408.86,235.23 C408.60,236.55 408.27,237.24 407.52,238.18 C407.41,237.38 407.34,236.85 407.31,236.59 C407.28,236.33 407.24,235.96 407.20,235.49" fill="none" stroke="rgb(85, 111, 181)" stroke-width="4.16" stroke-opacity="1.00" stroke-linejoin="round"/>
<path d="M394.29,55.88 C395.35,54.58 396.31,53.49 396.58,53.13 C396.65,53.03 396.69,52.94 396.69,52.84 C397.37,55.72 397.87,59.09 398.28,63.58 C399.02,74.20 400.31,111.64 400.76,128.35 C400.84,144.12 400.79,166.23 400.67,172.58 C400.67,172.58 400.73,170.89 400.73,170.89" fill="none" stroke="rgb(85, 111, 181)" stroke-width="4.16" stroke-opacity="1.00" stroke-linejoin="round"/>
<path d="M407.28,82.19 C407.28,82.19 409.45,76.73 409.45,76.73 C410.47,78.62 410.80,79.69 410.94,81.83 C411.60,90.03 412.97,106.71 413.87,115.80 C414.69,123.24 415.80,129.82 416.17,131.84" fill="none" stroke="rgb(85, 111, 181)" stroke-width="4.16" stroke-opacity="1.00" stroke-linejoin="round"/>
<path d="M412.66,170.70 C411.54,172.95 411.16,174.60 411.10,178.80 C411.08,182.39 413.92,219.83 414.08,223.96 C414.16,226.15 414.03,231.26 413.64,234.96 C413.64,234.96 413.50,232.81 413.50,232.81" fill="none" stroke="rgb(85, 111, 181)" stroke-width="4.16" stroke-opacity="1.00" stroke-linejoin="round"/>
<path d="M418.86,46.04 C420.15,46.53 420.93,48.99 421.24,53.26 C422.36,69.75 424.24,101.49 425.00,116.74 C425.87,132.08 427.42,153.28 427.46,154.31" fill="none" stroke="rgb(85, 111, 181)" stroke-width="4.16" stroke-opacity="1.00" stroke-linejoin="round"/>
<path d="M426.72,196.09 C425.77,199.08 425.36,202.37 425.44,208.30 C425.49,213.75 425.45,217.52 425.24,223.38 C425.02,227.75 424.65,235.25 424.66,235.34 C424.74,234.94 424.82,234.53 424.90,234.12 C425.28,232.31 425.99,228.98 426.32,227.44 C427.19,223.37 428.35,217.99 428.64,216.68" fill="none" stroke="rgb(85, 111, 181)" stroke-width="4.16" stroke-opacity="1.00" stroke-linejoin="round"/>
<path d="M433.75,151.01 C433.84,152.38 434.05,154.63 434.29,156.73 C435.20,163.90 437.06,178.89 438.00,186.73 C438.75,194.32 438.57,209.51 438.41,216.33 C438.14,222.05 438.15,222.58 438.27,222.97 C438.27,222.97 438.71,221.30 438.71,221.30" fill="none" stroke="rgb(85, 111, 181)" stroke-width="4.16" stroke-opacity="1.00" stroke-linejoin="round"/>
<path d="M443.84,89.72 C443.84,89.72 443.55,89.96 443.55,89.96 C443.58,93.19 443.67,101.08 443.74,105.75 C443.95,113.05 444.21,121.40 444.24,122.45" fill="none" stroke="rgb(85, 111, 181)" stroke-width="4.16" stroke-opacity="1.00" stroke-linejoin="round"/>
<path d="M447.98,171.69 C448.09,172.11 448.17,172.42 448.21,172.62 C448.81,175.59 449.26,180.81 449.29,185.81 C449.27,194.13 449.14,215.65 449.15,215.98 C449.17,216.34 449.24,217.00 449.35,217.93 C449.35,217.93 449.52,216.00 449.52,216.00" fill="none" stroke="rgb(85, 111, 181)" stroke-width="4.16" stroke-opacity="1.00" stroke-linejoin="round"/>
<path d="M453.36,65.40 C453.36,65.40 455.05,64.71 455.05,64.71 C455.98,73.34 456.07,80.71 455.94,90.50 C455.31,106.04 453.68,141.04 453.63,152.89 C453.75,160.17 454.18,175.41 454.61,183.34 C455.27,194.20 455.44,198.75 455.38,201.36 C455.38,201.36 455.10,199.75 455.10,199.75" fill="none" stroke="rgb(85, 111, 181)" stroke-width="4.16" stroke-opacity="1.00" stroke-linejoin="round"/>
<path d="M466.59,62.58 C467.71,63.50 468.45,67.68 468.73,70.78 C469.77,84.91 470.81,111.80 470.86,128.05 C470.73,144.77 470.56,169.08 470.53,176.66 C470.54,178.58 470.52,179.13 470.46,179.11 C470.46,179.11 470.34,178.81 470.34,178.81" fill="none" stroke="rgb(85, 111, 181)" stroke-width="4.16" stroke-opacity="1.00" stroke-linejoin="round"/>
</g>
</svg>
