<?xml version="1.0" encoding="UTF-8" standalone="no"?>
<!DOCTYPE svg PUBLIC "-//W3C//DTD SVG 1.1//EN" "http://www.w3.org/Graphics/SVG/1.1/DTD/svg11.dtd">
<svg width="128.40" height="181.68" viewBox="0.00 0.00 535.00 757.00" xmlns="http://www.w3.org/2000/svg" xmlns:xlink="http://www.w3.org/1999/xlink">
<g stroke-linecap="round" transform="translate(44.00, 155.00)" id="202_사람">
<path d="M195.51,302.84 C195.47,302.84 195.41,302.84 195.34,302.83 C195.16,302.81 194.97,302.80 194.79,302.78 C192.49,304.99 189.35,308.81 187.59,311.65 C186.08,314.12 183.68,319.57 182.83,322.19 C181.31,326.90 180.90,339.35 181.45,342.55 C182.05,345.83 183.99,349.72 185.80,351.15 C187.53,352.42 193.54,354.12 196.63,354.16 C199.88,354.12 203.91,352.99 205.85,350.74 C206.80,349.60 211.05,342.22 211.63,340.65 C212.65,337.86 213.47,333.46 213.67,330.90 C213.94,327.08 213.86,320.70 213.23,317.57 C212.43,313.79 210.04,308.53 207.75,306.44 C205.78,304.69 199.64,301.48 197.73,301.78 C196.41,302.02 193.90,303.44 191.79,304.94 C191.37,305.24 190.87,305.59 190.28,306.00" fill="none" stroke="rgb(255, 153, 190)" stroke-width="4.16" stroke-opacity="1.00" stroke-linejoin="round"/>
<path d="M194.53,355.61 C194.41,355.49 194.33,355.40 194.30,355.34 C194.27,355.28 194.24,355.17 194.22,355.00 C194.22,355.00 194.24,364.30 194.24,364.30 C194.01,363.63 193.43,363.00 192.49,362.82 C189.45,362.26 165.68,365.25 164.62,365.54 C163.48,365.86 153.56,369.35 152.42,369.81 C147.58,371.86 144.30,376.44 144.16,376.84 C144.16,376.84 144.23,377.09 144.23,377.09 C144.23,377.09 144.34,377.14 144.34,377.14 C144.34,377.14 144.59,377.06 144.59,377.06" fill="none" stroke="rgb(255, 153, 190)" stroke-width="4.16" stroke-opacity="1.00" stroke-linejoin="round"/>
<path d="M201.66,355.46 C201.66,355.46 201.75,354.40 201.75,354.40 C201.75,354.40 205.05,364.50 205.05,364.50 C204.93,364.72 224.32,361.80 232.83,360.78 C238.20,360.22 245.09,359.70 247.74,359.94 C249.34,360.10 252.23,361.01 253.69,361.74 C255.69,362.78 259.23,366.58 259.79,367.41 C259.79,367.41 258.18,366.57 258.18,366.57" fill="none" stroke="rgb(255, 153, 190)" stroke-width="4.16" stroke-opacity="1.00" stroke-linejoin="round"/>
<path d="M184.20,364.46 C184.20,364.46 183.69,364.06 183.69,364.06 C183.69,364.06 183.32,364.26 183.32,364.26 C183.59,364.72 187.94,369.97 189.96,372.73 C190.73,373.79 198.66,387.71 199.23,388.03 C199.58,387.56 205.97,372.90 208.94,366.08 C209.78,364.19 210.17,363.14 210.81,361.24 C210.81,361.24 210.69,361.06 210.69,361.06" fill="none" stroke="rgb(255, 153, 190)" stroke-width="4.16" stroke-opacity="1.00" stroke-linejoin="round"/>
<path d="M147.43,375.38 C147.43,375.38 148.26,374.36 148.26,374.36 C148.26,374.36 148.20,373.83 148.20,373.83 C147.30,374.27 144.65,376.85 142.89,380.72 C141.43,384.00 139.88,394.94 139.77,401.85 C139.64,420.56 140.22,432.16 142.78,454.95 C143.44,459.75 144.64,470.87 144.71,477.68 C144.71,485.18 144.86,500.45 145.00,508.23 C145.13,513.69 144.71,526.00 144.76,526.34 C144.76,526.34 145.00,525.88 145.00,525.88" fill="none" stroke="rgb(255, 153, 190)" stroke-width="4.16" stroke-opacity="1.00" stroke-linejoin="round"/>
<path d="M166.89,415.98 C166.89,415.98 167.75,414.80 167.75,414.80 C167.99,414.71 167.54,420.59 167.47,425.44 C167.49,451.16 168.70,474.06 170.21,483.92 C170.84,487.98 174.59,506.13 176.78,512.78 C178.34,517.47 184.03,527.92 184.63,527.84 C184.63,527.84 184.61,527.29 184.61,527.29" fill="none" stroke="rgb(255, 153, 190)" stroke-width="4.16" stroke-opacity="1.00" stroke-linejoin="round"/>
<path d="M170.38,411.99 C170.38,411.99 169.71,411.77 169.71,411.77 C169.71,411.77 169.19,412.12 169.19,412.12 C169.15,413.26 173.73,431.09 174.63,435.10 C176.18,442.28 178.27,455.29 178.91,460.74 C183.53,505.70 183.41,524.53 183.02,525.37 C182.56,524.64 182.29,524.17 182.20,523.98 C182.11,523.78 182.06,523.57 182.07,523.36" fill="none" stroke="rgb(255, 153, 190)" stroke-width="4.16" stroke-opacity="1.00" stroke-linejoin="round"/>
<path d="M233.72,402.71 C234.06,402.23 234.27,401.93 234.37,401.80 C234.47,401.66 234.59,401.52 234.73,401.36 C234.32,402.58 234.05,403.44 233.74,404.57 C231.97,411.30 228.96,425.88 228.03,432.40 C226.99,439.80 226.22,451.44 225.92,460.25 C225.83,467.39 226.12,482.09 226.43,487.05 C227.07,495.93 229.21,506.27 232.42,513.78 C235.14,520.07 238.08,524.79 238.57,525.55 C238.57,525.55 238.14,524.82 238.14,524.82" fill="none" stroke="rgb(255, 153, 190)" stroke-width="4.16" stroke-opacity="1.00" stroke-linejoin="round"/>
<path d="M235.76,409.52 C235.75,409.38 235.75,409.28 235.76,409.23 C235.76,409.17 235.78,409.08 235.80,408.96 C236.28,409.73 236.63,410.59 237.10,412.35 C238.65,418.38 242.21,434.69 242.91,439.07 C244.15,447.58 244.94,456.06 245.42,465.13 C245.63,471.39 245.78,486.55 245.18,492.48 C244.37,500.05 238.59,524.98 238.31,525.34 C238.31,525.34 238.21,524.09 238.21,524.09" fill="none" stroke="rgb(255, 153, 190)" stroke-width="4.16" stroke-opacity="1.00" stroke-linejoin="round"/>
<path d="M256.63,369.00 C256.63,369.00 257.13,368.18 257.13,368.18 C257.13,368.18 257.25,368.23 257.25,368.23 C257.69,369.14 258.25,373.92 258.47,379.61 C258.81,394.18 259.67,423.46 260.56,439.29 C261.79,455.72 265.29,488.72 267.30,497.06 C273.60,521.50 275.61,526.78 277.56,530.66 C277.56,530.66 277.41,529.29 277.41,529.29" fill="none" stroke="rgb(255, 153, 190)" stroke-width="4.16" stroke-opacity="1.00" stroke-linejoin="round"/>
<path d="M144.77,443.74 C144.77,443.74 144.00,443.73 144.00,443.73 C144.00,443.73 143.12,441.80 143.12,441.80 C144.84,440.69 151.39,439.71 153.67,439.61 C156.20,439.51 163.40,440.01 164.25,440.26 C164.38,440.30 164.47,440.38 164.52,440.51 C164.52,440.51 164.50,440.60 164.50,440.60" fill="none" stroke="rgb(255, 153, 190)" stroke-width="4.16" stroke-opacity="1.00" stroke-linejoin="round"/>
<path d="M144.65,452.67 C144.65,452.67 144.18,452.45 144.18,452.45 C144.18,452.45 143.97,452.58 143.97,452.58 C144.48,452.70 151.46,451.09 152.72,450.85 C156.03,450.21 161.32,449.81 162.12,450.09 C162.12,450.09 162.19,450.19 162.19,450.19" fill="none" stroke="rgb(255, 153, 190)" stroke-width="4.16" stroke-opacity="1.00" stroke-linejoin="round"/>
<path d="M243.67,430.98 C243.67,430.98 241.91,430.22 241.91,430.22 C241.91,430.22 257.44,430.08 257.44,430.08 C257.44,430.08 257.59,430.55 257.59,430.55 C257.40,430.79 257.28,430.94 257.24,430.99 C257.19,431.04 257.15,431.08 257.11,431.09" fill="none" stroke="rgb(255, 153, 190)" stroke-width="4.16" stroke-opacity="1.00" stroke-linejoin="round"/>
<path d="M242.53,441.90 C242.53,441.90 242.22,442.08 242.22,442.08 C242.56,442.22 253.70,439.58 257.20,439.36 C257.60,439.34 258.43,439.31 259.68,439.27" fill="none" stroke="rgb(255, 153, 190)" stroke-width="4.16" stroke-opacity="1.00" stroke-linejoin="round"/>
<path d="M186.90,330.87 C186.90,330.87 187.08,329.58 187.08,329.58 C187.08,329.58 186.88,334.17 186.88,334.17 C186.88,334.17 188.30,332.33 188.30,332.33 C187.48,332.01 186.93,332.18 186.59,333.00 C186.32,333.66 186.32,334.28 186.49,334.83 C186.49,334.83 188.48,331.20 188.48,331.20 C188.48,331.20 187.57,333.28 187.57,333.28 C187.57,333.28 187.94,333.69 187.94,333.69 C187.94,333.69 188.37,333.62 188.37,333.62" fill="none" stroke="rgb(255, 153, 190)" stroke-width="4.16" stroke-opacity="1.00" stroke-linejoin="round"/>
<path d="M203.62,329.23 C203.62,329.23 202.95,328.80 202.95,328.80 C201.54,330.72 203.61,332.54 204.20,332.81 C205.77,331.96 205.59,330.83 205.38,330.19 C204.36,330.39 203.85,330.71 203.68,331.43 C203.50,332.21 203.56,332.79 203.81,333.30 C205.31,332.49 205.68,329.94 205.12,329.10 C203.41,330.78 202.63,331.87 201.91,333.65 C201.55,334.50 201.17,335.13 200.99,335.28" fill="none" stroke="rgb(255, 153, 190)" stroke-width="4.16" stroke-opacity="1.00" stroke-linejoin="round"/>
<path d="M192.38,344.57 C191.92,344.89 191.29,346.61 192.51,348.72 C193.16,349.82 194.47,350.93 195.03,350.93 C196.08,350.85 197.88,348.36 198.39,345.08 C198.48,344.49 198.58,343.38 198.68,341.76" fill="none" stroke="rgb(255, 153, 190)" stroke-width="4.16" stroke-opacity="1.00" stroke-linejoin="round"/>
<path d="M211.45,318.26 C211.45,318.26 211.34,317.56 211.34,317.56 C210.76,317.44 209.95,317.61 208.32,318.25 C205.89,319.20 199.84,321.51 197.33,322.04 C192.96,322.94 179.09,322.23 175.14,320.84 C173.01,320.07 169.36,317.86 167.78,316.17 C166.40,314.66 163.74,310.00 163.03,308.02 C162.31,306.00 161.09,301.22 160.86,298.82 C160.66,296.57 160.95,291.13 161.46,289.36 C162.05,287.48 164.39,285.47 166.23,285.23 C167.99,285.03 172.89,285.83 174.68,286.73 C176.89,287.89 180.39,291.49 182.36,294.32 C184.29,297.14 188.33,303.11 190.20,305.08 C190.82,305.74 191.91,306.52 192.05,306.59" fill="none" stroke="rgb(255, 153, 190)" stroke-width="4.16" stroke-opacity="1.00" stroke-linejoin="round"/>
</g>
</svg>
