<?xml version="1.0" encoding="UTF-8" standalone="no"?>
<!DOCTYPE svg PUBLIC "-//W3C//DTD SVG 1.1//EN" "http://www.w3.org/Graphics/SVG/1.1/DTD/svg11.dtd">
<svg width="128.40" height="181.68" viewBox="0.00 0.00 535.00 757.00" xmlns="http://www.w3.org/2000/svg" xmlns:xlink="http://www.w3.org/1999/xlink">
<g stroke-linecap="round" transform="translate(44.00, 155.00)" id="203_사람">
<path d="M201.70,354.99 C201.71,354.80 201.71,354.64 201.71,354.53 C201.71,354.42 201.70,354.20 201.68,353.86 C201.57,353.27 195.31,355.50 191.99,358.09 C188.98,360.53 185.55,365.72 184.82,369.30 C184.53,370.86 184.26,374.79 184.39,376.20 C184.61,378.04 186.01,381.24 187.22,382.57 C189.24,384.71 194.07,387.14 196.07,387.81 C200.25,389.17 210.73,391.02 213.72,390.70 C215.39,390.50 220.38,388.98 222.92,386.98 C224.24,385.90 226.34,382.93 227.08,381.20 C227.70,379.64 228.32,376.03 228.23,374.42 C227.98,371.15 225.15,366.78 223.19,364.78 C221.42,363.02 217.50,359.91 215.22,358.48 C213.12,357.17 208.89,355.48 207.26,355.24 C203.50,354.74 199.59,355.60 199.02,355.91 C198.82,356.03 198.41,356.31 197.79,356.78" fill="none" stroke="rgb(255, 153, 190)" stroke-width="2.93" stroke-opacity="1.00" stroke-linejoin="round"/>
<path d="M191.27,389.54 C191.50,389.21 191.73,388.87 191.96,388.54 C192.26,388.11 192.43,387.82 192.47,387.69 C192.51,387.57 192.51,387.36 192.48,387.08 C192.48,387.08 191.73,386.79 191.73,386.79 C189.95,387.15 187.04,389.83 183.45,393.77 C179.86,397.73 177.64,400.59 177.60,402.47 C178.24,403.09 179.40,403.12 180.87,402.31 C181.48,401.97 186.55,398.52 186.96,398.68 C187.12,398.88 183.05,410.69 182.14,417.68 C181.74,420.83 181.07,439.21 182.22,441.94 C182.66,442.94 183.74,444.07 184.23,444.18 C185.35,444.30 187.17,442.53 188.42,440.03 C191.37,433.95 199.67,409.57 200.11,408.62 C200.16,408.89 197.49,421.73 197.48,427.15 C197.49,429.56 198.04,434.92 199.31,437.63 C200.47,440.06 202.94,441.87 203.86,442.04 C205.09,442.22 207.43,441.12 208.54,439.45 C209.68,437.71 211.67,432.88 212.53,429.44 C214.10,422.98 214.17,414.46 213.32,406.40 C213.30,406.14 213.30,405.91 213.31,405.69 C214.58,405.89 233.09,412.55 235.25,413.20 C237.84,413.97 241.24,414.35 242.39,413.99 C243.70,413.54 245.14,411.02 245.08,409.51 C244.95,407.58 242.95,404.37 240.88,402.35 C233.84,395.60 219.24,389.57 218.57,389.08 C218.46,389.00 218.34,388.89 218.22,388.75" fill="none" stroke="rgb(255, 153, 190)" stroke-width="2.93" stroke-opacity="1.00" stroke-linejoin="round"/>
<path d="M194.86,369.64 C194.92,369.21 195.09,368.70 195.32,368.40 C195.52,368.14 195.85,367.94 195.95,367.95 C195.95,367.95 196.83,374.97 196.83,374.97 C196.83,374.97 197.12,374.64 197.12,374.64" fill="none" stroke="rgb(255, 153, 190)" stroke-width="2.93" stroke-opacity="1.00" stroke-linejoin="round"/>
<path d="M217.37,371.36 C217.37,371.36 218.32,370.88 218.32,370.88 C218.37,370.88 217.84,373.87 217.68,375.08 C217.62,375.53 217.61,375.88 217.67,376.15" fill="none" stroke="rgb(255, 153, 190)" stroke-width="2.93" stroke-opacity="1.00" stroke-linejoin="round"/>
<path d="M202.22,356.82 C202.02,356.85 201.89,356.87 201.82,356.89 C201.48,356.98 200.62,356.91 200.61,356.91 C198.50,357.21 194.32,359.55 192.48,360.92 C190.74,362.22 189.25,363.96 189.36,363.94 C189.42,363.95 189.47,363.94 189.50,363.93 C189.54,363.92 189.60,363.88 189.69,363.81" fill="none" stroke="rgb(255, 153, 190)" stroke-width="2.93" stroke-opacity="1.00" stroke-linejoin="round"/>
<path d="M203.81,355.94 C203.81,355.94 203.81,355.78 203.81,355.78 C203.81,355.78 203.70,355.69 203.70,355.69 C201.79,355.78 198.79,356.90 196.75,358.48 C194.62,360.17 193.11,362.67 193.46,363.49 C193.46,363.49 194.38,363.64 194.38,363.64" fill="none" stroke="rgb(255, 153, 190)" stroke-width="2.93" stroke-opacity="1.00" stroke-linejoin="round"/>
<path d="M206.10,355.41 C206.10,355.41 206.24,355.04 206.24,355.04 C205.52,355.13 202.67,357.21 200.73,359.29 C198.41,361.83 198.04,363.07 198.17,363.75 C198.17,363.75 199.51,363.44 199.51,363.44" fill="none" stroke="rgb(255, 153, 190)" stroke-width="2.93" stroke-opacity="1.00" stroke-linejoin="round"/>
<path d="M209.27,355.73 C209.27,355.73 209.08,355.13 209.08,355.13 C206.35,355.47 199.03,360.80 198.97,361.36 C198.97,361.36 201.15,361.63 201.15,361.63" fill="none" stroke="rgb(255, 153, 190)" stroke-width="2.93" stroke-opacity="1.00" stroke-linejoin="round"/>
<path d="M213.46,357.45 C213.46,357.45 213.44,357.26 213.44,357.26 C213.44,357.13 212.04,357.04 210.88,357.17 C205.57,357.81 203.49,362.16 203.47,362.78 C203.47,362.78 203.89,363.11 203.89,363.11 C203.89,363.11 204.89,362.90 204.89,362.90" fill="none" stroke="rgb(255, 153, 190)" stroke-width="2.93" stroke-opacity="1.00" stroke-linejoin="round"/>
<path d="M216.07,356.32 C216.07,356.32 216.41,355.73 216.41,355.73 C215.89,355.35 212.35,356.87 209.62,359.11 C208.24,360.25 207.03,361.54 206.18,362.66 C207.66,362.99 208.82,362.81 210.31,361.97 C210.71,361.74 211.28,361.41 211.58,361.23" fill="none" stroke="rgb(255, 153, 190)" stroke-width="2.93" stroke-opacity="1.00" stroke-linejoin="round"/>
<path d="M217.97,357.77 C217.97,357.77 218.19,357.54 218.19,357.54 C218.19,357.54 210.22,362.89 210.22,362.89 C210.22,362.89 213.06,362.13 213.06,362.13" fill="none" stroke="rgb(255, 153, 190)" stroke-width="2.93" stroke-opacity="1.00" stroke-linejoin="round"/>
<path d="M220.12,358.58 C220.31,358.47 220.50,358.36 220.69,358.25 C220.84,358.17 220.99,358.09 221.15,358.00 C221.19,357.98 221.05,357.98 221.00,358.00 C215.48,359.91 212.54,362.75 212.07,363.42 C212.07,363.42 215.14,362.91 215.14,362.91" fill="none" stroke="rgb(255, 153, 190)" stroke-width="2.93" stroke-opacity="1.00" stroke-linejoin="round"/>
<path d="M222.30,359.46 C222.30,359.46 222.61,359.72 222.61,359.72 C222.61,359.72 214.76,365.22 214.76,365.22 C216.58,365.67 220.10,364.21 220.80,363.88 C222.26,363.16 224.14,362.24 224.15,362.26 C224.15,362.26 218.20,367.15 218.20,367.15 C218.60,367.15 220.18,366.59 222.19,365.73 C222.68,365.52 223.44,365.13 223.71,365.00" fill="none" stroke="rgb(255, 153, 190)" stroke-width="2.93" stroke-opacity="1.00" stroke-linejoin="round"/>
<path d="M226.39,364.14 C226.39,364.14 226.42,364.04 226.42,364.04 C226.32,364.17 226.20,364.26 225.67,364.63 C222.62,366.72 220.84,368.75 220.84,369.01 C220.84,369.01 225.50,367.30 225.50,367.30" fill="none" stroke="rgb(255, 153, 190)" stroke-width="2.93" stroke-opacity="1.00" stroke-linejoin="round"/>
<path d="M228.36,365.90 C228.38,366.02 228.36,366.12 228.31,366.21 C228.07,366.55 225.23,369.84 225.18,370.23 C225.18,370.23 228.71,368.69 228.71,368.69 C229.01,369.08 228.19,371.11 227.93,371.94 C227.82,372.32 227.76,372.84 227.77,373.49 C227.77,373.49 228.03,373.65 228.03,373.65 C228.03,373.65 228.29,373.59 228.29,373.59" fill="none" stroke="rgb(255, 153, 190)" stroke-width="2.93" stroke-opacity="1.00" stroke-linejoin="round"/>
<path d="M231.85,370.17 C231.85,370.17 231.99,370.15 231.99,370.15 C232.10,370.53 232.05,371.15 231.70,372.12 C231.51,372.64 229.70,377.22 229.46,377.88 C229.34,378.22 229.20,378.63 229.07,379.12" fill="none" stroke="rgb(255, 153, 190)" stroke-width="2.93" stroke-opacity="1.00" stroke-linejoin="round"/>
</g>
</svg>
