<?xml version="1.0" encoding="UTF-8" standalone="no"?>
<!DOCTYPE svg PUBLIC "-//W3C//DTD SVG 1.1//EN" "http://www.w3.org/Graphics/SVG/1.1/DTD/svg11.dtd">
<svg width="128.40" height="181.68" viewBox="0.00 0.00 535.00 757.00" xmlns="http://www.w3.org/2000/svg" xmlns:xlink="http://www.w3.org/1999/xlink">
<g stroke-linecap="round" transform="translate(44.00, 155.00)" id="203_구름">
<path d="M144.25,140.88 C144.10,140.02 144.03,139.49 144.02,139.30 C144.02,139.17 144.16,139.06 144.18,138.92 C144.19,138.86 144.16,138.70 144.09,138.42 C143.10,137.83 139.81,138.35 134.27,140.01 C131.34,140.91 128.99,141.91 127.57,142.93 C126.50,143.73 124.63,146.03 124.02,147.23 C123.34,148.63 123.04,151.09 123.29,152.40 C123.53,153.45 126.06,155.27 127.42,155.41 C130.44,155.63 132.07,152.59 131.82,151.69 C131.03,151.10 128.71,151.68 125.18,153.82 C122.86,155.27 120.83,156.83 119.59,158.21 C118.13,159.88 116.65,162.93 116.16,165.07 C115.87,166.48 116.92,170.19 118.11,171.37 C119.32,172.52 123.31,173.97 124.76,173.82 C126.48,173.60 128.76,172.62 129.87,171.55 C131.60,169.84 132.70,167.87 132.88,167.30 C131.79,167.21 129.82,170.33 129.90,172.28 C130.02,174.07 131.33,176.64 132.91,177.72 C134.37,178.68 138.66,179.96 140.98,180.10 C143.43,180.21 148.32,179.23 150.72,178.06 C152.78,177.01 157.60,173.09 157.77,173.10 C158.67,173.20 160.46,176.72 162.13,178.67 C163.37,180.09 166.03,182.24 167.55,182.98 C170.37,184.30 178.07,184.83 180.87,184.25 C186.33,183.02 185.81,178.92 185.57,178.35 C185.57,178.35 183.94,178.38 183.94,178.38 C183.41,179.13 183.15,180.32 183.51,181.27 C184.19,182.94 189.60,185.39 192.65,185.51 C194.34,185.55 197.56,184.87 198.99,184.17 C201.49,182.89 202.83,180.26 203.27,179.02 C203.93,181.53 205.11,184.08 208.39,185.60 C209.69,186.17 214.59,186.74 217.02,186.57 C219.55,186.37 224.20,185.30 226.51,184.41 C232.92,181.89 235.56,179.20 235.89,178.66 C235.68,179.83 236.14,180.84 237.51,181.35 C239.95,182.23 246.47,181.64 247.69,181.29 C248.05,181.19 266.77,172.70 269.10,172.14 C269.51,173.91 269.97,175.45 270.46,176.19 C271.17,177.21 273.22,178.64 274.75,179.11 C276.47,179.59 280.04,179.62 281.49,179.07 C282.99,178.45 285.41,176.11 286.66,174.31 C287.05,173.72 289.22,170.13 289.78,169.70 C290.28,169.89 294.48,171.77 298.31,171.43 C301.89,171.07 308.29,168.43 310.59,166.13 C311.12,165.59 313.51,162.73 314.37,161.70 C313.73,162.85 313.60,165.57 315.38,166.87 C316.76,167.85 321.71,169.51 323.28,169.42 C324.99,169.28 328.17,167.04 329.49,165.21 C330.76,163.42 331.85,159.90 331.59,158.48 C331.28,157.15 329.04,155.92 327.23,156.63 C325.75,157.23 324.66,158.24 324.65,158.37 C326.66,157.47 329.19,153.90 328.99,151.54 C328.74,149.60 326.94,147.03 324.93,145.69 C323.04,144.47 318.98,142.39 315.92,141.77 C311.27,140.90 306.57,145.90 305.76,147.44 C306.38,148.19 306.91,148.38 307.64,147.92 C308.96,147.06 309.95,144.26 309.27,143.06 C307.58,140.21 302.49,136.21 300.10,134.74 C297.13,132.95 291.27,130.85 288.36,130.29 C285.84,129.83 281.02,129.70 278.77,129.91 C277.04,130.09 271.55,131.21 269.12,132.38 C266.66,133.59 265.65,136.42 266.23,137.26 C266.50,137.62 266.97,137.82 267.57,137.92 C268.42,137.16 268.71,136.58 268.41,135.92 C267.83,134.70 265.09,132.91 263.20,132.23 C260.28,131.21 245.43,127.38 239.92,126.66 C236.78,126.29 232.19,126.22 229.45,126.40 C226.30,126.67 221.91,128.75 221.18,130.36 C220.67,131.75 221.36,133.90 222.78,134.77 C224.31,135.65 228.08,135.60 229.55,134.73 C230.91,133.89 232.46,130.81 231.95,129.31 C231.33,127.68 227.83,125.33 225.12,124.59 C222.07,123.80 216.48,123.44 212.96,123.71 C209.55,123.98 205.40,124.87 201.57,126.32 C197.83,127.77 193.87,130.20 193.24,131.78 C193.14,132.07 193.04,132.61 192.95,133.43 C192.95,133.43 193.72,134.35 193.72,134.35 C194.84,134.17 196.12,133.38 196.70,132.22 C197.19,131.17 197.02,129.13 196.34,128.38 C194.74,126.79 188.61,125.66 185.35,125.87 C182.30,126.13 176.08,127.36 173.68,128.62 C172.17,129.47 170.44,134.69 171.05,135.80 C171.81,136.90 174.27,137.93 174.94,137.31 C175.44,136.77 175.44,134.67 174.93,133.53 C174.24,132.17 171.14,130.81 167.67,130.63 C164.79,130.52 158.63,130.56 156.76,131.41 C154.44,132.53 152.59,136.37 153.18,137.55 C153.77,138.57 155.75,139.18 156.82,138.68 C157.70,138.24 158.63,136.34 158.48,135.38 C158.26,134.20 157.25,132.58 156.21,132.03 C155.25,131.55 152.60,131.48 151.07,131.86 C149.43,132.31 146.51,133.86 145.35,134.93 C143.41,136.78 140.85,141.95 140.73,142.80 C140.73,142.80 141.81,142.50 141.81,142.50" fill="none" stroke="rgb(255, 0, 0)" stroke-width="2.93" stroke-opacity="1.00" stroke-linejoin="round"/>
</g>
</svg>
