<?xml version="1.0" encoding="UTF-8" standalone="no"?>
<!DOCTYPE svg PUBLIC "-//W3C//DTD SVG 1.1//EN" "http://www.w3.org/Graphics/SVG/1.1/DTD/svg11.dtd">
<svg width="128.40" height="181.68" viewBox="0.00 0.00 535.00 757.00" xmlns="http://www.w3.org/2000/svg" xmlns:xlink="http://www.w3.org/1999/xlink">
<g stroke-linecap="round" transform="translate(44.00, 155.00)" id="205_비">
<path d="M423.50,465.35 C423.50,465.35 424.62,466.52 424.62,466.52 C424.62,466.52 424.48,466.52 424.48,466.52 C424.48,466.52 423.55,464.62 423.55,464.62" fill="none" stroke="rgb(0, 255, 0)" stroke-width="3.73" stroke-opacity="1.00" stroke-linejoin="round"/>
<path d="M4.37,-62.85 C4.37,-62.85 4.57,-64.47 4.57,-64.47 C3.63,-62.17 -2.11,-49.10 -5.77,-39.07 C-6.13,-38.05 -6.48,-37.03 -6.83,-36.01 C-6.83,-36.01 -6.52,-37.16 -6.52,-37.16" fill="none" stroke="rgb(0, 255, 255)" stroke-width="3.73" stroke-opacity="1.00" stroke-linejoin="round"/>
<path d="M12.18,-58.77 C11.23,-58.57 9.37,-56.18 7.76,-52.68 C7.20,-51.45 -2.34,-28.30 -3.11,-26.71 C-3.30,-26.33 -3.46,-26.07 -3.61,-25.92 C-3.61,-25.92 -3.57,-26.56 -3.57,-26.56" fill="none" stroke="rgb(0, 255, 255)" stroke-width="3.73" stroke-opacity="1.00" stroke-linejoin="round"/>
<path d="M22.90,-58.77 C22.33,-58.49 19.92,-54.73 18.68,-52.22 C16.32,-47.45 -0.46,-5.29 -4.33,6.55 C-6.45,13.49 -9.51,23.71 -11.63,32.78 C-13.67,41.69 -13.93,44.06 -13.93,44.50 C-13.93,44.50 -13.13,42.39 -13.13,42.39" fill="none" stroke="rgb(0, 255, 255)" stroke-width="3.73" stroke-opacity="1.00" stroke-linejoin="round"/>
<path d="M33.42,-79.47 C33.42,-79.47 35.13,-80.21 35.13,-80.21 C35.21,-78.83 20.26,-41.17 13.86,-24.99 C8.03,-9.58 0.23,13.75 -3.43,27.32 C-6.22,38.30 -12.09,67.62 -14.11,81.77 C-15.03,89.42 -15.98,99.23 -16.20,101.82 C-16.20,101.82 -16.20,101.84 -16.20,101.83 C-16.20,101.83 -16.13,101.07 -16.13,101.07" fill="none" stroke="rgb(0, 255, 255)" stroke-width="3.73" stroke-opacity="1.00" stroke-linejoin="round"/>
<path d="M33.82,-62.80 C33.82,-62.80 34.47,-63.46 34.47,-63.46 C34.29,-62.90 27.68,-47.27 24.48,-39.61 C21.44,-31.85 16.64,-18.52 14.70,-12.99" fill="none" stroke="rgb(0, 255, 255)" stroke-width="3.73" stroke-opacity="1.00" stroke-linejoin="round"/>
<path d="M39.28,-57.05 C38.81,-57.05 38.24,-57.09 37.97,-56.71 C36.65,-54.78 30.46,-37.30 27.87,-29.34 C24.59,-18.69 23.73,-13.66 23.96,-12.39 C23.96,-12.39 24.33,-12.29 24.33,-12.29 C24.52,-12.32 25.39,-13.82 26.65,-16.31 C29.91,-23.12 35.69,-34.04 38.44,-39.15" fill="none" stroke="rgb(0, 255, 255)" stroke-width="3.73" stroke-opacity="1.00" stroke-linejoin="round"/>
<path d="M46.95,-54.05 C46.95,-54.05 47.16,-54.09 47.16,-54.09 C47.13,-53.14 45.62,-48.65 44.22,-45.20 C38.02,-30.51 23.76,4.44 21.06,12.75 C15.59,30.79 8.60,59.54 6.28,70.96 C5.01,77.98 2.51,92.57 1.34,100.56 C0.60,105.83 0.50,106.74 0.34,108.73" fill="none" stroke="rgb(0, 255, 255)" stroke-width="3.73" stroke-opacity="1.00" stroke-linejoin="round"/>
<path d="M34.36,31.40 C34.36,31.40 34.93,31.57 34.93,31.57 C35.25,34.69 32.51,50.13 31.10,57.71 C27.98,74.12 24.17,103.20 22.85,117.36 C21.87,130.71 20.40,162.89 19.74,179.71 C19.70,181.53 19.62,184.82 19.59,186.29 C19.56,187.40 19.50,189.47 19.48,190.42" fill="none" stroke="rgb(0, 255, 255)" stroke-width="3.73" stroke-opacity="1.00" stroke-linejoin="round"/>
<path d="M7.42,125.65 C7.42,125.65 7.10,124.69 7.10,124.69 C5.58,125.63 4.90,128.56 3.96,133.97 C2.61,142.01 -0.70,177.31 -1.53,192.07 C-1.76,199.31 -2.11,214.58 -2.06,223.24 C-1.98,228.99 -1.92,230.91 -1.73,234.58" fill="none" stroke="rgb(0, 255, 255)" stroke-width="3.73" stroke-opacity="1.00" stroke-linejoin="round"/>
<path d="M14.10,175.60 C14.10,175.60 13.26,175.84 13.26,175.84 C11.70,178.35 8.88,189.49 7.18,198.87 C4.47,214.96 0.30,245.03 -1.30,260.72 C-1.96,268.45 -2.43,281.35 -2.38,289.45 C-2.27,296.64 -0.86,312.17 0.42,318.85 C1.48,324.04 1.71,324.89 2.00,325.57 C2.00,325.57 2.08,325.56 2.08,325.56 C1.02,315.66 1.88,296.92 2.04,293.79" fill="none" stroke="rgb(0, 255, 255)" stroke-width="3.73" stroke-opacity="1.00" stroke-linejoin="round"/>
<path d="M21.77,212.57 C21.77,212.57 23.84,211.98 23.84,211.98 C23.84,211.98 24.16,212.14 24.16,212.14 C24.08,214.09 23.31,217.03 22.33,220.15 C20.08,227.22 15.43,241.87 13.04,249.45 C9.79,260.29 6.66,274.59 5.91,278.69 C4.10,289.58 2.43,305.10 2.17,309.57 C1.92,313.99 1.91,330.71 2.29,339.58 C2.70,346.80 3.90,361.01 4.82,368.49 C5.28,371.86 5.93,376.41 6.11,377.58" fill="none" stroke="rgb(0, 255, 255)" stroke-width="3.73" stroke-opacity="1.00" stroke-linejoin="round"/>
<path d="M17.59,244.18 C17.60,244.09 17.60,243.98 17.59,243.88 C17.58,243.77 17.55,243.51 17.49,243.09 C17.49,243.09 17.15,242.90 17.15,242.90 C16.07,244.65 14.18,255.51 13.37,262.82 C11.67,280.66 10.64,299.78 10.34,306.89 C10.18,311.90 10.15,315.68 10.21,320.22" fill="none" stroke="rgb(0, 255, 255)" stroke-width="3.73" stroke-opacity="1.00" stroke-linejoin="round"/>
<path d="M58.16,8.39 C58.16,8.39 58.31,6.06 58.31,6.06 C57.12,5.93 56.42,6.63 55.86,8.78 C53.76,17.13 46.58,51.74 44.17,65.04 C41.99,78.55 38.14,109.40 37.20,121.20 C35.98,141.37 36.38,147.07 36.56,148.63 C36.58,148.32 36.58,148.05 36.57,147.82 C36.35,145.58 36.07,142.50 35.92,139.68" fill="none" stroke="rgb(0, 255, 255)" stroke-width="3.73" stroke-opacity="1.00" stroke-linejoin="round"/>
<path d="M62.73,-70.87 C62.33,-68.59 62.13,-67.55 61.79,-66.05 C60.82,-61.70 56.35,-45.04 54.19,-37.17 C51.80,-28.07 50.33,-21.56 50.07,-19.42 C50.07,-19.42 50.40,-19.36 50.40,-19.36 C50.40,-19.36 51.01,-20.28 51.01,-20.28" fill="none" stroke="rgb(0, 255, 255)" stroke-width="3.73" stroke-opacity="1.00" stroke-linejoin="round"/>
<path d="M74.04,-65.26 C74.04,-65.26 75.14,-66.07 75.14,-66.07 C76.05,-65.15 76.47,-63.70 76.33,-61.50 C76.07,-57.53 73.15,-47.93 69.57,-37.70 C64.78,-24.30 63.46,-20.24 63.49,-19.32 C63.63,-19.37 63.75,-19.45 63.84,-19.56 C63.99,-19.75 71.94,-32.03 75.94,-37.57" fill="none" stroke="rgb(0, 255, 255)" stroke-width="3.73" stroke-opacity="1.00" stroke-linejoin="round"/>
<path d="M88.05,-53.56 C88.05,-53.56 87.63,-54.48 87.63,-54.48 C87.57,-54.47 84.94,-45.51 81.54,-35.13 C79.10,-27.75 74.40,-13.41 72.14,-6.44 C71.63,-4.85 71.06,-2.84 70.63,-1.32" fill="none" stroke="rgb(0, 255, 255)" stroke-width="3.73" stroke-opacity="1.00" stroke-linejoin="round"/>
<path d="M73.25,39.41 C73.25,39.41 71.71,39.61 71.71,39.61 C71.33,38.66 72.56,31.72 72.76,31.10 C73.48,28.99 85.05,7.59 85.69,6.77 C85.93,6.47 86.59,5.71 87.65,4.48 C87.65,4.48 88.79,5.38 88.79,5.38 C89.38,9.64 87.94,44.88 87.31,60.58 C87.20,68.20 87.15,84.27 87.32,92.30 C87.62,102.37 88.52,114.65 88.96,116.14 C88.99,116.22 89.02,116.30 89.07,116.39" fill="none" stroke="rgb(0, 255, 255)" stroke-width="3.73" stroke-opacity="1.00" stroke-linejoin="round"/>
<path d="M102.50,-72.19 C102.50,-72.19 102.54,-73.13 102.54,-73.13 C102.54,-73.13 103.55,-73.66 103.55,-73.66 C105.95,-73.21 110.50,-71.36 111.94,-70.31 C114.76,-68.17 117.12,-64.11 117.67,-61.35 C118.14,-58.83 118.23,-55.21 117.87,-52.50 C117.11,-47.09 113.31,-32.83 111.41,-27.06 C107.47,-16.03 101.98,-0.53 101.26,1.93" fill="none" stroke="rgb(0, 255, 255)" stroke-width="3.73" stroke-opacity="1.00" stroke-linejoin="round"/>
<path d="M81.46,62.27 C81.46,62.27 83.23,60.18 83.23,60.18 C81.91,61.83 76.04,74.30 73.38,80.48 C69.45,90.12 57.26,126.02 54.17,136.17 C49.58,152.45 42.93,176.50 40.86,184.26 C40.12,187.15 38.79,193.01 38.37,194.84" fill="none" stroke="rgb(0, 255, 255)" stroke-width="3.73" stroke-opacity="1.00" stroke-linejoin="round"/>
<path d="M49.60,195.36 C49.60,195.36 47.36,194.84 47.36,194.84 C46.00,195.50 42.22,210.21 40.85,218.27 C39.40,227.65 35.89,261.87 34.76,277.48 C34.24,285.20 33.38,297.83 33.05,302.73" fill="none" stroke="rgb(0, 255, 255)" stroke-width="3.73" stroke-opacity="1.00" stroke-linejoin="round"/>
<path d="M65.04,212.62 C65.04,212.62 65.86,211.99 65.86,211.99 C65.86,211.99 66.08,212.24 66.08,212.24 C65.91,213.34 54.32,250.59 49.52,265.77 C47.01,273.90 43.19,287.25 41.16,294.96 C37.15,312.24 33.15,336.32 31.68,351.57 C31.12,359.28 30.71,372.60 30.84,376.55 C30.95,379.73 31.27,384.33 31.52,387.06" fill="none" stroke="rgb(0, 255, 255)" stroke-width="3.73" stroke-opacity="1.00" stroke-linejoin="round"/>
<path d="M52.11,226.39 C51.98,229.10 51.46,232.73 50.58,237.69 C49.20,245.30 46.56,260.88 45.46,269.02 C44.62,276.66 43.17,291.88 42.56,299.46 C41.65,316.95 41.70,348.18 42.32,357.91 C43.03,367.16 43.60,370.74 43.80,371.71" fill="none" stroke="rgb(0, 255, 255)" stroke-width="3.73" stroke-opacity="1.00" stroke-linejoin="round"/>
<path d="M66.27,207.41 C66.27,207.41 67.51,205.03 67.51,205.03" fill="none" stroke="rgb(0, 255, 255)" stroke-width="3.73" stroke-opacity="1.00" stroke-linejoin="round"/>
<path d="M67.40,209.18 C67.31,209.33 66.68,210.03 66.58,210.21 C65.53,212.07 58.84,249.80 56.83,264.27 C55.47,275.59 53.31,300.48 52.77,318.68 C52.73,325.11 53.03,337.90 53.26,344.25 C53.30,345.43 53.35,346.62 53.39,347.80" fill="none" stroke="rgb(0, 255, 255)" stroke-width="3.73" stroke-opacity="1.00" stroke-linejoin="round"/>
<path d="M79.89,221.96 C79.89,221.96 79.74,220.78 79.74,220.78 C79.56,220.83 76.84,224.33 71.70,245.27 C67.22,264.07 63.25,284.07 60.48,303.11 C58.78,316.99 58.35,332.63 58.56,335.70" fill="none" stroke="rgb(0, 255, 255)" stroke-width="3.73" stroke-opacity="1.00" stroke-linejoin="round"/>
<path d="M116.57,173.44 C116.57,173.44 117.77,173.17 117.77,173.17 C118.02,175.86 116.69,180.54 114.31,186.06 C105.81,204.58 98.62,223.13 93.44,238.94 C89.27,252.61 81.70,284.04 79.13,298.59 C77.86,306.42 75.84,321.52 75.08,328.83 C73.46,348.86 74.16,358.13 74.31,359.40" fill="none" stroke="rgb(0, 255, 255)" stroke-width="3.73" stroke-opacity="1.00" stroke-linejoin="round"/>
<path d="M127.63,106.03 C128.30,105.21 128.74,104.67 128.92,104.42 C129.11,104.17 129.32,103.85 129.54,103.46 C127.92,103.79 122.89,112.97 119.27,120.83 C112.30,137.03 102.07,165.00 98.57,176.37 C93.99,192.36 87.44,221.01 85.68,231.56 C84.66,238.29 82.66,253.84 82.50,254.40 C82.37,254.84 82.03,255.73 81.48,257.09" fill="none" stroke="rgb(0, 255, 255)" stroke-width="3.73" stroke-opacity="1.00" stroke-linejoin="round"/>
<path d="M127.68,65.03 C126.56,65.04 125.90,65.16 125.37,65.59 C122.93,67.63 117.31,78.63 114.78,84.68 C109.19,98.37 99.44,127.94 96.25,139.43 C94.43,146.37 90.75,162.03 89.06,169.52 C87.45,177.49 85.85,187.13 85.27,190.72" fill="none" stroke="rgb(0, 255, 255)" stroke-width="3.73" stroke-opacity="1.00" stroke-linejoin="round"/>
<path d="M193.17,-43.43 C193.17,-43.43 192.96,-45.36 192.96,-45.36 C191.87,-45.80 187.82,-42.64 185.51,-40.35 C177.90,-32.72 157.28,-7.41 150.51,1.75 C138.57,18.44 124.24,41.20 119.81,49.25 C112.89,62.36 102.58,87.06 101.59,89.86 C99.83,94.83 98.43,100.12 98.12,101.28" fill="none" stroke="rgb(0, 255, 255)" stroke-width="3.73" stroke-opacity="1.00" stroke-linejoin="round"/>
<path d="M161.26,-54.84 C161.26,-54.84 161.44,-56.35 161.44,-56.35 C161.27,-54.72 161.19,-49.61 160.61,-46.39 C159.87,-42.32 154.16,-25.66 151.28,-17.42 C149.13,-11.32 148.79,-10.24 148.12,-8.01" fill="none" stroke="rgb(0, 255, 255)" stroke-width="3.73" stroke-opacity="1.00" stroke-linejoin="round"/>
<path d="M176.55,-48.94 C176.55,-48.94 176.25,-48.86 176.25,-48.86 C175.31,-47.23 170.22,-32.95 168.05,-26.77 C164.87,-18.24 157.80,3.51 157.23,6.00" fill="none" stroke="rgb(0, 255, 255)" stroke-width="3.73" stroke-opacity="1.00" stroke-linejoin="round"/>
<path d="M131.12,20.63 C131.26,20.59 131.99,21.00 132.46,21.66 C133.80,23.59 135.92,30.04 136.28,32.06 C137.33,38.19 137.72,50.25 137.39,60.61 C137.14,65.78 135.34,81.16 134.47,88.18 C132.98,99.26 130.89,111.09 130.55,114.13" fill="none" stroke="rgb(0, 255, 255)" stroke-width="3.73" stroke-opacity="1.00" stroke-linejoin="round"/>
<path d="M163.52,-8.67 C163.52,-8.67 165.37,-9.87 165.37,-9.87 C167.47,-8.69 170.80,-4.15 171.99,-0.81 C173.04,2.25 174.00,8.30 174.10,9.99 C174.36,15.41 172.77,27.47 170.44,39.50 C168.76,47.37 165.09,61.00 162.89,68.90 C162.05,71.83 160.82,76.12 159.95,79.84 C159.59,81.42 158.99,84.04 158.75,85.09" fill="none" stroke="rgb(0, 255, 255)" stroke-width="3.73" stroke-opacity="1.00" stroke-linejoin="round"/>
<path d="M148.13,46.39 C148.13,46.39 147.41,46.66 147.41,46.66 C152.55,45.69 156.03,45.24 159.71,46.40 C161.25,46.91 165.61,50.05 167.25,51.92 C169.31,54.34 172.09,59.42 173.54,63.41 C175.22,68.12 177.82,84.48 178.15,92.03 C178.62,110.15 178.08,138.55 177.46,153.97 C177.05,161.91 176.16,178.22 175.69,186.60 C175.19,194.64 174.51,205.14 174.34,207.60" fill="none" stroke="rgb(0, 255, 255)" stroke-width="3.73" stroke-opacity="1.00" stroke-linejoin="round"/>
<path d="M182.45,10.75 C182.45,10.75 182.83,8.23 182.83,8.23 C182.83,8.23 182.74,8.20 182.74,8.20 C183.19,7.84 187.06,6.81 189.18,7.65 C190.79,8.32 193.26,10.21 194.04,11.38 C196.02,14.51 197.70,19.42 198.46,23.66 C199.41,29.07 200.16,41.26 200.33,51.12 C200.65,109.99 201.07,118.73 201.20,121.14" fill="none" stroke="rgb(0, 255, 255)" stroke-width="3.73" stroke-opacity="1.00" stroke-linejoin="round"/>
<path d="M254.92,-24.90 C254.92,-24.90 254.90,-26.12 254.90,-26.12 C252.04,-23.81 240.23,-11.31 235.09,-5.19 C229.09,2.22 208.22,30.88 199.17,43.48 C191.68,54.16 173.57,80.53 167.98,89.46 C164.71,94.99 156.65,108.97 154.86,112.48 C150.30,121.71 147.87,127.85 146.71,131.62" fill="none" stroke="rgb(0, 255, 255)" stroke-width="3.73" stroke-opacity="1.00" stroke-linejoin="round"/>
<path d="M197.89,-45.10 C197.89,-45.10 196.89,-44.55 196.89,-44.55 C196.85,-45.64 198.68,-47.81 200.58,-48.49 C201.94,-48.96 204.11,-49.30 204.82,-49.14 C206.70,-48.61 208.61,-46.38 209.14,-43.42 C209.82,-39.32 207.66,-26.09 205.62,-16.41 C202.34,-1.83 197.09,19.72 196.37,23.06 C196.17,23.93 195.97,24.79 195.77,25.66" fill="none" stroke="rgb(0, 255, 255)" stroke-width="3.73" stroke-opacity="1.00" stroke-linejoin="round"/>
<path d="M220.70,-44.12 C221.78,-46.39 224.67,-50.33 226.70,-52.17 C228.75,-53.99 232.35,-56.52 233.90,-56.89 C234.82,-57.08 236.43,-56.72 237.12,-56.12 C238.48,-54.86 239.57,-50.04 239.63,-47.52 C239.68,-42.74 238.19,-32.89 236.37,-23.49 C234.14,-12.99 227.33,13.60 225.38,21.06 C223.99,26.60 223.26,29.81 223.06,30.69" fill="none" stroke="rgb(0, 255, 255)" stroke-width="3.73" stroke-opacity="1.00" stroke-linejoin="round"/>
<path d="M268.74,-69.74 C268.74,-69.74 268.72,-71.14 268.72,-71.14 C268.57,-71.13 267.70,-70.40 267.33,-70.14 C267.19,-70.04 263.86,-67.76 261.73,-65.08 C258.46,-60.86 251.61,-47.94 249.89,-44.21 C243.98,-31.35 234.61,-2.44 230.98,12.95 C230.24,16.29 228.83,22.82 228.15,26.02 C227.36,29.98 226.65,35.47 226.30,38.32" fill="none" stroke="rgb(0, 255, 255)" stroke-width="3.73" stroke-opacity="1.00" stroke-linejoin="round"/>
<path d="M300.35,-48.15 C300.38,-50.87 300.01,-52.39 298.18,-52.54 C296.10,-52.64 290.85,-49.42 288.45,-47.17 C284.83,-43.69 277.29,-32.97 273.31,-25.47 C270.31,-19.80 263.92,-4.85 262.00,0.54 C259.78,7.06 255.32,21.69 254.40,25.45 C253.79,27.97 251.62,38.32 251.37,39.37 C251.25,39.86 249.64,44.96 249.38,45.79" fill="none" stroke="rgb(0, 255, 255)" stroke-width="3.73" stroke-opacity="1.00" stroke-linejoin="round"/>
<path d="M264.90,-3.07 C264.90,-3.07 264.71,-4.28 264.71,-4.28 C264.42,-4.62 263.83,-4.92 262.94,-5.02 C262.15,-5.11 260.51,-5.22 259.82,-5.52 C259.76,-5.55 259.65,-5.55 259.50,-5.54" fill="none" stroke="rgb(0, 255, 255)" stroke-width="3.73" stroke-opacity="1.00" stroke-linejoin="round"/>
<path d="M241.30,5.29 C241.23,3.49 241.48,1.76 242.22,0.13 C243.85,-3.34 249.06,-8.39 250.89,-8.99 C251.79,-9.23 253.04,-9.16 253.63,-8.76 C254.97,-7.76 256.21,-2.41 256.22,1.60 C256.23,12.64 252.61,44.44 250.41,60.27 C249.79,64.43 248.64,72.14 248.11,75.69 C247.36,80.59 247.09,82.16 246.54,84.82" fill="none" stroke="rgb(0, 255, 255)" stroke-width="3.73" stroke-opacity="1.00" stroke-linejoin="round"/>
<path d="M252.07,21.91 C252.07,21.91 251.75,18.19 251.75,18.19 C249.96,18.90 243.25,30.18 239.62,37.50 C233.85,49.51 223.28,75.22 217.86,88.69 C212.42,102.91 201.50,132.14 196.92,145.41 C191.79,161.45 185.13,188.33 183.38,202.49 C183.14,204.42 183.01,206.43 182.89,209.45" fill="none" stroke="rgb(0, 255, 255)" stroke-width="3.73" stroke-opacity="1.00" stroke-linejoin="round"/>
<path d="M249.46,51.51 C250.19,50.61 251.40,48.86 251.61,48.17 C251.71,47.86 251.71,47.40 251.63,46.78 C250.15,48.57 245.23,57.87 241.28,66.40 C239.57,70.24 234.94,82.40 232.36,90.04 C229.78,98.20 226.74,110.01 224.98,117.06 C222.45,128.16 217.75,158.36 216.69,171.70 C216.52,174.64 216.20,179.28 215.48,182.51 C215.34,183.15 215.19,183.79 215.05,184.43" fill="none" stroke="rgb(0, 255, 255)" stroke-width="3.73" stroke-opacity="1.00" stroke-linejoin="round"/>
<path d="M285.94,24.22 C285.94,24.22 285.36,22.06 285.36,22.06 C284.01,21.77 280.66,25.26 278.08,28.71 C275.61,32.04 267.32,44.40 262.57,52.60 C259.53,58.08 252.86,71.19 249.76,77.50 C246.55,84.55 240.92,98.50 238.33,105.24 C234.08,116.93 227.33,143.40 224.49,158.47 C223.36,165.38 221.67,178.44 221.05,185.10 C220.46,192.90 219.86,205.81 219.92,215.54 C220.73,240.67 224.73,254.48 225.72,256.78" fill="none" stroke="rgb(0, 255, 255)" stroke-width="3.73" stroke-opacity="1.00" stroke-linejoin="round"/>
<path d="M344.50,-24.01 C344.50,-24.01 344.47,-25.42 344.47,-25.42 C342.08,-23.56 331.98,-14.21 326.61,-8.71 C317.94,0.42 300.60,22.03 292.57,32.88 C282.75,46.95 269.61,67.79 260.50,83.98 C255.10,94.14 242.02,122.01 236.43,134.99 C228.32,155.17 225.13,165.97 224.49,168.30 C223.92,170.22 222.22,175.57 221.87,176.66" fill="none" stroke="rgb(0, 255, 255)" stroke-width="3.73" stroke-opacity="1.00" stroke-linejoin="round"/>
<path d="M389.59,-44.12 C389.59,-44.12 388.64,-45.88 388.64,-45.88 C386.84,-46.26 382.54,-44.18 379.73,-42.15 C371.96,-36.47 365.28,-30.89 358.40,-24.45 C354.54,-20.70 342.47,-7.92 338.57,-3.19 C333.17,3.44 326.92,11.98 320.66,21.29 C316.50,27.75 310.55,37.60 305.69,46.47 C299.61,58.25 289.75,80.92 283.18,98.63 C278.09,113.10 271.01,135.72 266.46,153.39 C265.35,157.81 263.33,165.81 262.42,169.39 C261.46,173.17 260.24,177.21 259.77,178.60" fill="none" stroke="rgb(0, 255, 255)" stroke-width="3.73" stroke-opacity="1.00" stroke-linejoin="round"/>
<path d="M362.50,-29.17 C360.97,-30.20 359.11,-30.01 357.56,-28.78 C354.79,-26.50 350.05,-18.57 343.95,-7.67 C334.98,8.91 323.58,33.24 319.12,44.74 C313.09,61.22 305.26,86.69 301.45,102.00 C297.22,120.81 294.22,136.77 293.62,141.26" fill="none" stroke="rgb(0, 255, 255)" stroke-width="3.73" stroke-opacity="1.00" stroke-linejoin="round"/>
<path d="M381.08,-10.54 C381.08,-10.54 381.72,-13.13 381.72,-13.13 C381.58,-13.11 376.80,-8.11 365.62,10.21 C360.22,19.47 344.98,48.51 338.88,61.22 C332.69,74.78 320.88,101.50 315.24,114.66 C309.67,128.82 299.29,157.69 294.75,171.67 C292.14,180.55 290.81,186.44 290.51,187.78" fill="none" stroke="rgb(0, 255, 255)" stroke-width="3.73" stroke-opacity="1.00" stroke-linejoin="round"/>
<path d="M296.47,136.56 C296.47,136.56 295.97,136.16 295.97,136.16 C294.99,136.29 284.61,151.16 279.86,157.95 C267.26,176.09 250.39,203.59 247.91,208.30 C242.99,217.85 238.95,226.43 235.89,234.17 C232.92,241.94 229.96,250.36 227.60,258.26 C223.54,272.78 219.38,293.98 217.20,309.86 C214.15,334.45 212.03,372.39 211.98,373.53" fill="none" stroke="rgb(0, 255, 255)" stroke-width="3.73" stroke-opacity="1.00" stroke-linejoin="round"/>
<path d="M231.76,216.60 C231.77,217.27 227.16,227.65 223.36,238.60 C221.63,244.04 217.81,257.92 215.84,265.45 C214.43,271.39 211.06,288.25 209.82,295.70 C207.72,310.30 205.05,343.65 205.43,351.96 C205.50,353.46 205.41,354.69 205.12,357.27" fill="none" stroke="rgb(0, 255, 255)" stroke-width="3.73" stroke-opacity="1.00" stroke-linejoin="round"/>
<path d="M145.72,159.42 C142.30,163.66 135.09,177.40 133.24,181.30 C130.16,187.83 119.72,215.17 113.95,232.69 C109.89,246.04 103.44,271.46 99.88,289.03 C96.88,305.80 93.25,334.72 92.25,345.74 C91.47,356.34 90.76,369.53 90.68,372.66" fill="none" stroke="rgb(0, 255, 255)" stroke-width="3.73" stroke-opacity="1.00" stroke-linejoin="round"/>
<path d="M121.33,287.30 C121.12,288.55 120.89,289.53 120.23,291.87 C117.97,300.02 113.31,317.05 112.54,320.42 C109.11,336.59 107.57,348.09 107.05,353.04 C106.83,355.18 106.81,356.56 106.94,358.73" fill="none" stroke="rgb(0, 255, 255)" stroke-width="3.73" stroke-opacity="1.00" stroke-linejoin="round"/>
<path d="M169.08,164.39 C167.35,166.81 165.97,168.83 164.94,170.52 C161.45,176.24 157.58,184.82 153.29,195.28 C150.56,202.12 145.36,215.36 143.75,220.56 C142.96,223.15 141.52,227.94 140.86,230.13" fill="none" stroke="rgb(0, 255, 255)" stroke-width="3.73" stroke-opacity="1.00" stroke-linejoin="round"/>
<path d="M311.31,140.10 C311.31,140.10 312.62,138.59 312.62,138.59 C312.62,138.59 312.88,138.65 312.88,138.65 C312.90,141.69 309.33,155.06 306.22,163.31 C300.79,177.46 290.78,204.13 286.45,216.70 C280.88,233.60 273.90,258.16 270.39,271.92 C266.27,289.63 260.61,321.76 259.80,329.38 C258.05,349.30 258.44,357.29 258.52,358.73" fill="none" stroke="rgb(0, 255, 255)" stroke-width="3.73" stroke-opacity="1.00" stroke-linejoin="round"/>
<path d="M348.53,158.83 C348.53,158.83 349.12,157.90 349.12,157.90 C349.12,157.89 346.88,160.08 344.15,162.58 C330.13,175.42 312.68,193.48 302.23,205.07 C291.84,217.07 273.99,240.52 265.96,252.25 C259.67,261.70 245.27,287.58 239.87,299.22 C226.58,329.52 222.52,351.31 221.97,355.35" fill="none" stroke="rgb(0, 255, 255)" stroke-width="3.73" stroke-opacity="1.00" stroke-linejoin="round"/>
<path d="M325.42,116.90 C325.42,116.90 325.27,116.36 325.27,116.36 C325.92,115.70 328.13,116.13 329.22,118.74 C330.51,121.97 329.68,134.84 328.45,142.15 C327.68,146.66 318.97,186.35 315.40,202.83 C313.88,210.65 309.59,240.81 307.92,260.61 C307.23,271.48 307.14,277.17 307.16,280.09" fill="none" stroke="rgb(0, 255, 255)" stroke-width="3.73" stroke-opacity="1.00" stroke-linejoin="round"/>
<path d="M370.76,141.43 C370.84,140.05 371.05,137.91 371.25,136.96 C371.45,136.01 372.10,134.16 372.55,133.02" fill="none" stroke="rgb(0, 255, 255)" stroke-width="3.73" stroke-opacity="1.00" stroke-linejoin="round"/>
<path d="M384.52,119.26 C384.52,119.26 384.57,118.02 384.57,118.02 C383.32,120.31 380.59,123.63 378.55,125.67 C375.66,128.51 370.22,132.03 369.44,132.96 C364.99,138.39 349.62,164.78 341.66,180.16 C335.34,193.06 323.13,221.87 317.31,236.63 C311.93,251.00 302.71,278.16 298.45,292.17 C296.36,299.64 291.67,317.86 290.96,321.33 C290.22,324.99 287.19,343.96 286.74,350.86 C286.59,353.15 286.24,361.88 286.24,362.60" fill="none" stroke="rgb(0, 255, 255)" stroke-width="3.73" stroke-opacity="1.00" stroke-linejoin="round"/>
<path d="M400.75,-5.62 C400.75,-5.62 400.54,-5.70 400.54,-5.70 C397.34,0.28 391.20,11.81 387.96,18.21 C381.24,32.13 374.31,47.50 373.00,50.52 C372.28,52.18 371.80,53.41 370.90,55.85" fill="none" stroke="rgb(0, 255, 255)" stroke-width="3.73" stroke-opacity="1.00" stroke-linejoin="round"/>
<path d="M464.22,-49.53 C464.22,-49.53 462.61,-54.63 462.61,-54.63 C460.95,-55.12 455.40,-52.10 451.76,-49.35 C447.19,-45.85 438.19,-36.47 434.11,-31.55 C429.93,-26.49 420.50,-12.49 417.26,-7.08 C413.97,-1.35 407.42,10.65 403.94,17.52 C397.78,30.58 383.55,64.03 379.11,76.08 C377.33,81.04 375.40,86.84 374.91,88.87 C374.83,89.22 374.68,89.92 374.48,90.95" fill="none" stroke="rgb(0, 255, 255)" stroke-width="3.73" stroke-opacity="1.00" stroke-linejoin="round"/>
<path d="M410.53,67.34 C410.53,67.34 409.64,65.45 409.64,65.45 C408.61,65.51 406.76,68.62 404.34,73.43 C396.82,88.91 384.85,115.22 379.06,128.87 C376.50,135.28 371.40,148.92 368.92,156.24 C366.56,163.88 361.64,181.45 360.66,185.87 C359.44,191.64 357.18,203.90 356.02,211.75 C355.43,216.06 353.99,234.90 353.84,240.68 C353.73,249.84 354.22,264.06 354.49,267.35 C354.85,271.93 357.55,295.06 357.76,296.20" fill="none" stroke="rgb(0, 255, 255)" stroke-width="3.73" stroke-opacity="1.00" stroke-linejoin="round"/>
<path d="M483.94,-11.23 C483.94,-11.23 484.21,-13.80 484.21,-13.80 C484.21,-13.80 483.04,-14.25 483.04,-14.25 C479.73,-12.75 475.61,-9.37 473.21,-7.02 C467.66,-1.51 458.98,8.33 455.97,12.01 C447.81,22.31 434.16,42.10 425.36,57.44 C416.31,74.07 401.95,103.33 399.70,108.96 C398.16,112.89 394.68,122.40 394.31,123.42" fill="none" stroke="rgb(0, 255, 255)" stroke-width="3.73" stroke-opacity="1.00" stroke-linejoin="round"/>
<path d="M430.20,83.86 C430.20,83.86 428.21,82.38 428.21,82.38 C427.41,82.21 422.93,83.88 420.73,85.61 C417.43,88.27 396.23,119.45 388.19,131.52 C385.78,135.19 381.39,141.90 379.40,144.95 C378.28,146.65 377.17,148.44 376.33,149.79" fill="none" stroke="rgb(0, 255, 255)" stroke-width="3.73" stroke-opacity="1.00" stroke-linejoin="round"/>
<path d="M470.71,80.51 C472.02,76.45 472.86,72.54 472.20,70.78 C471.24,68.45 469.51,67.29 468.51,67.01 C466.76,68.10 463.89,73.03 461.95,77.20 C459.17,83.23 445.54,118.13 440.31,132.85 C430.21,163.75 422.86,195.17 421.58,201.09 C421.02,203.98 419.94,210.25 419.50,212.96" fill="none" stroke="rgb(0, 255, 255)" stroke-width="3.73" stroke-opacity="1.00" stroke-linejoin="round"/>
<path d="M415.74,146.84 C415.74,146.84 415.65,143.73 415.65,143.73 C413.83,143.84 408.97,146.68 406.76,148.48 C403.71,151.02 391.60,163.23 386.99,169.16 C377.71,181.19 366.51,199.55 363.58,205.71" fill="none" stroke="rgb(0, 255, 255)" stroke-width="3.73" stroke-opacity="1.00" stroke-linejoin="round"/>
<path d="M415.50,167.39 C415.07,166.52 414.24,165.15 413.74,164.71 C413.54,164.53 413.18,164.33 412.66,164.10 C410.09,164.73 399.82,174.19 393.83,181.08 C390.05,185.44 380.58,198.09 376.84,203.40 C374.22,207.22 364.68,222.89 360.81,229.64 C355.23,239.69 344.26,264.90 338.19,281.18 C331.84,299.29 317.45,345.04 316.49,348.13 C315.87,350.11 315.57,351.14 315.06,353.09" fill="none" stroke="rgb(0, 255, 255)" stroke-width="3.73" stroke-opacity="1.00" stroke-linejoin="round"/>
<path d="M433.05,171.91 C433.05,171.91 432.61,171.95 432.61,171.95 C432.05,174.09 431.54,175.40 430.52,177.04 C420.57,193.21 410.50,212.21 404.89,225.17 C401.94,232.27 396.54,246.12 394.02,253.13 C389.79,266.05 381.63,294.91 378.64,309.57 C375.31,328.40 374.16,342.59 374.05,346.74" fill="none" stroke="rgb(0, 255, 255)" stroke-width="3.73" stroke-opacity="1.00" stroke-linejoin="round"/>
<path d="M471.84,184.79 C471.64,185.03 470.83,185.97 470.33,186.53 C466.20,191.01 458.81,199.07 453.98,204.80 C446.23,214.27 429.34,237.90 422.14,249.50 C415.02,261.51 399.44,289.94 394.40,300.15 C390.94,307.45 385.34,320.01 381.89,328.63 C378.36,338.01 375.17,347.91 372.84,356.75 C371.20,363.15 369.44,374.53 369.26,375.96" fill="none" stroke="rgb(0, 255, 255)" stroke-width="3.73" stroke-opacity="1.00" stroke-linejoin="round"/>
<path d="M425.38,243.25 C424.74,244.69 424.30,245.64 423.48,247.30 C417.03,260.37 407.73,283.25 403.18,295.80 C397.09,313.50 391.57,332.54 389.57,339.70 C388.38,344.22 387.73,347.13 387.35,349.37" fill="none" stroke="rgb(0, 255, 255)" stroke-width="3.73" stroke-opacity="1.00" stroke-linejoin="round"/>
<path d="M445.44,223.34 C445.44,223.34 443.50,225.67 443.50,225.67 C443.50,225.67 443.76,225.77 443.76,225.77 C443.76,225.77 446.37,225.14 446.37,225.14 C447.06,225.48 447.38,226.98 447.18,229.48 C446.99,231.75 442.64,245.74 439.23,255.02 C436.28,262.68 430.15,278.39 426.96,286.43 C426.42,287.81 425.43,290.30 425.00,291.40" fill="none" stroke="rgb(0, 255, 255)" stroke-width="3.73" stroke-opacity="1.00" stroke-linejoin="round"/>
<path d="M451.78,231.94 C451.78,231.94 453.54,228.19 453.54,228.19 C454.75,229.46 455.44,230.89 455.90,233.26 C456.93,238.67 455.76,251.27 453.98,258.22 C452.75,262.97 448.47,276.36 446.09,283.19 C425.14,337.65 420.04,353.48 419.18,356.54 C418.05,360.57 416.78,366.14 416.27,368.38" fill="none" stroke="rgb(0, 255, 255)" stroke-width="3.73" stroke-opacity="1.00" stroke-linejoin="round"/>
<path d="M474.20,283.22 C474.20,283.22 474.42,277.86 474.42,277.86 C472.98,277.81 459.91,292.85 450.52,305.81 C444.05,315.07 427.22,342.22 421.54,353.35 C413.26,370.12 408.74,382.37 408.12,384.72" fill="none" stroke="rgb(0, 255, 255)" stroke-width="3.73" stroke-opacity="1.00" stroke-linejoin="round"/>
<path d="M466.38,276.73 C466.83,278.38 467.38,280.87 467.75,283.01 C468.52,287.49 468.17,296.25 466.14,306.05 C464.94,311.63 460.33,326.89 457.46,335.43 C452.04,350.46 445.20,369.17 443.78,372.87 C443.30,374.09 441.87,377.72 441.35,378.76 C440.24,380.98 437.17,385.43 434.90,387.72" fill="none" stroke="rgb(0, 255, 255)" stroke-width="3.73" stroke-opacity="1.00" stroke-linejoin="round"/>
</g>
</svg>
