<?xml version="1.0" encoding="UTF-8" standalone="no"?>
<!DOCTYPE svg PUBLIC "-//W3C//DTD SVG 1.1//EN" "http://www.w3.org/Graphics/SVG/1.1/DTD/svg11.dtd">
<svg width="128.40" height="181.68" viewBox="0.00 0.00 535.00 757.00" xmlns="http://www.w3.org/2000/svg" xmlns:xlink="http://www.w3.org/1999/xlink">
<g stroke-linecap="round" transform="translate(44.00, 155.00)" id="206_구름-1">
<path d="M36.72,-62.21 C36.74,-62.41 36.76,-62.55 36.80,-62.65 C36.83,-62.75 36.92,-62.93 37.07,-63.19 C37.07,-63.19 37.26,-62.66 37.26,-62.66 C35.01,-60.18 31.23,-58.15 27.14,-56.44 C23.06,-54.76 14.53,-51.22 11.73,-49.71 C10.21,-48.87 3.98,-44.36 1.89,-42.35 C-0.47,-40.05 -4.14,-35.13 -5.67,-31.89 C-6.44,-30.20 -7.12,-27.90 -7.19,-26.64 C-7.22,-25.57 -6.46,-23.53 -5.82,-22.90 C-5.09,-22.26 -3.49,-21.97 -2.11,-22.16 C0.48,-22.61 4.49,-25.05 6.57,-26.99 C10.33,-30.57 12.41,-36.16 12.60,-37.13 C11.87,-37.26 8.41,-32.50 6.97,-29.91 C5.64,-27.47 4.07,-22.30 4.14,-19.72 C4.29,-16.31 6.22,-11.48 8.45,-9.81 C10.20,-8.55 16.04,-6.33 19.17,-6.08 C23.06,-5.82 29.25,-6.96 32.75,-8.99 C33.40,-9.37 40.33,-14.69 42.25,-16.70 C44.59,-19.19 55.80,-34.81 60.38,-40.19 C61.86,-41.93 62.47,-42.53 63.10,-42.94 C63.65,-42.46 67.15,-37.54 69.55,-36.01 C71.82,-34.62 77.39,-33.49 79.33,-33.80 C80.57,-34.03 82.93,-35.44 83.94,-36.60 C85.89,-38.93 88.19,-45.92 88.68,-50.07 C88.88,-51.90 88.43,-58.53 87.78,-61.98 C87.23,-64.83 85.71,-69.94 84.06,-72.12 C84.06,-72.12 81.95,-71.83 81.95,-71.83 C83.75,-71.11 85.01,-70.85 86.45,-71.05 C89.28,-71.47 94.76,-73.94 97.36,-76.40 C99.81,-78.75 104.16,-84.72 105.19,-86.55 C107.53,-90.74 109.96,-97.52 109.93,-100.67 C109.88,-102.37 108.75,-105.27 107.68,-106.25 C105.67,-108.00 100.58,-108.95 98.56,-108.90 C93.96,-108.73 83.34,-105.20 76.57,-101.63 C71.70,-99.04 61.94,-91.68 62.76,-91.38 C65.67,-93.42 70.25,-99.12 71.78,-101.99 C73.53,-105.36 75.18,-110.82 75.83,-115.32 C76.31,-118.85 76.25,-122.28 75.76,-125.47 C75.51,-126.97 74.81,-129.39 74.17,-130.65 C73.34,-132.18 71.32,-133.59 69.83,-133.68 C67.72,-133.74 62.10,-130.61 60.02,-128.75 C58.05,-126.96 53.36,-121.87 51.38,-118.95 C48.17,-114.13 41.06,-97.47 40.07,-93.26 C39.32,-90.05 38.50,-85.01 38.63,-83.74 C38.85,-81.65 39.37,-79.57 39.59,-79.60 C40.26,-83.02 39.55,-97.78 38.25,-102.85 C37.71,-104.89 36.53,-107.79 35.71,-108.92 C34.98,-109.88 33.10,-110.94 32.07,-110.99 C30.10,-110.98 24.94,-107.80 22.60,-105.16 C19.84,-101.97 16.50,-96.28 15.18,-93.50 C13.69,-90.32 11.64,-84.34 11.04,-80.89 C10.41,-77.06 10.13,-71.86 10.61,-69.84 C11.46,-66.66 13.87,-62.48 15.96,-60.99 C18.17,-59.47 21.46,-58.25 24.57,-57.90 C26.71,-57.68 29.44,-57.94 31.52,-58.53 C32.32,-58.77 34.19,-59.43 34.13,-59.41" fill="none" stroke="rgb(0, 255, 255)" stroke-width="4.07" stroke-opacity="1.00" stroke-linejoin="round"/>
</g>
</svg>
