<?xml version="1.0" encoding="UTF-8" standalone="no"?>
<!DOCTYPE svg PUBLIC "-//W3C//DTD SVG 1.1//EN" "http://www.w3.org/Graphics/SVG/1.1/DTD/svg11.dtd">
<svg width="128.40" height="181.68" viewBox="0.00 0.00 535.00 757.00" xmlns="http://www.w3.org/2000/svg" xmlns:xlink="http://www.w3.org/1999/xlink">
<g stroke-linecap="round" transform="translate(44.00, 155.00)" id="207_구름3">
<path d="M222.34,-62.45 C222.24,-62.62 222.17,-62.93 222.25,-63.15 C222.34,-63.39 222.63,-64.13 222.73,-65.03 C221.93,-66.96 218.02,-68.94 215.98,-68.84 C214.35,-68.71 211.20,-66.95 210.38,-65.48 C210.07,-64.86 209.75,-63.11 209.91,-62.30 C210.56,-59.32 214.30,-54.81 216.90,-53.06 C220.08,-50.99 224.96,-49.35 229.68,-48.50 C236.07,-47.42 239.65,-47.03 241.46,-47.37 C244.81,-48.04 249.96,-49.65 252.18,-51.21 C253.53,-52.17 254.72,-53.77 255.37,-55.15 C253.01,-54.47 251.95,-53.87 251.53,-52.77 C251.09,-51.58 250.97,-50.36 251.24,-49.58 C251.77,-48.27 256.03,-45.30 258.95,-44.04 C264.52,-41.69 275.14,-39.00 279.97,-38.99 C282.07,-39.01 285.93,-39.47 287.52,-40.00 C290.51,-41.03 294.14,-44.78 295.48,-47.16 C296.24,-48.54 296.53,-49.88 296.65,-52.23 C295.60,-53.64 293.83,-54.61 291.33,-54.79 C289.12,-54.96 286.63,-54.59 285.19,-54.06 C285.28,-53.31 285.67,-52.86 286.62,-52.67 C288.65,-52.28 293.57,-52.45 297.42,-53.23 C300.78,-53.94 308.32,-56.54 310.37,-57.58 C311.98,-58.42 314.88,-60.54 316.05,-61.75 C317.23,-63.02 318.48,-65.38 318.56,-66.51 C318.57,-67.53 317.39,-69.37 316.21,-70.05 C312.40,-72.17 298.19,-73.86 291.56,-73.74 C281.87,-73.47 270.47,-72.19 268.65,-70.82 C268.42,-70.64 268.01,-70.19 267.42,-69.48 C269.68,-70.60 270.62,-71.37 270.78,-72.53 C271.07,-74.90 269.95,-79.18 268.32,-81.38 C266.59,-83.63 261.13,-86.98 257.86,-87.73 C254.15,-88.52 248.54,-88.10 243.74,-87.09 C240.78,-86.44 235.52,-84.18 229.73,-81.31 C225.61,-79.21 222.18,-76.56 220.29,-73.93 C218.76,-71.72 216.87,-65.70 217.26,-63.02 C217.42,-61.96 218.28,-60.96 218.66,-60.82 C218.66,-60.82 218.46,-61.59 218.46,-61.59" fill="none" stroke="rgb(0, 255, 0)" stroke-width="3.86" stroke-opacity="1.00" stroke-linejoin="round"/>
</g>
</svg>
