<?xml version="1.0" encoding="UTF-8" standalone="no"?>
<!DOCTYPE svg PUBLIC "-//W3C//DTD SVG 1.1//EN" "http://www.w3.org/Graphics/SVG/1.1/DTD/svg11.dtd">
<svg width="128.40" height="181.68" viewBox="0.00 0.00 535.00 757.00" xmlns="http://www.w3.org/2000/svg" xmlns:xlink="http://www.w3.org/1999/xlink">
<g stroke-linecap="round" transform="translate(44.00, 155.00)" id="207_구름4">
<path d="M82.85,-60.69 C82.85,-60.69 82.20,-61.58 82.20,-61.58 C82.20,-61.58 81.53,-61.74 81.53,-61.74 C82.87,-59.17 84.01,-57.34 84.84,-56.70 C89.03,-53.61 96.09,-55.17 96.96,-55.65 C95.88,-55.32 95.13,-54.31 95.30,-52.85 C95.47,-51.59 97.02,-49.19 98.39,-48.16 C100.95,-46.28 105.71,-44.54 108.39,-43.88 C112.81,-42.82 118.99,-41.63 122.21,-41.39 C127.52,-41.05 132.54,-41.43 136.26,-42.85 C138.74,-43.86 140.17,-44.66 140.81,-45.55 C141.55,-46.61 141.75,-48.31 141.53,-49.58 C141.53,-49.58 139.92,-49.03 139.92,-49.03 C139.92,-49.03 140.09,-47.56 140.09,-47.56 C141.61,-46.14 145.97,-45.51 152.29,-44.94 C156.77,-44.56 161.71,-44.50 165.96,-45.01 C169.73,-45.50 174.97,-47.75 177.05,-49.98 C178.97,-52.12 181.00,-57.35 180.20,-58.79 C179.27,-60.25 173.69,-61.06 169.33,-60.82 C164.82,-60.53 159.34,-59.63 156.86,-58.74 C154.73,-57.95 153.45,-56.75 153.28,-56.39 C155.53,-56.74 156.84,-57.16 158.31,-58.10 C159.74,-59.02 161.17,-60.28 161.89,-61.29 C162.52,-62.23 162.98,-64.42 162.71,-65.38 C162.36,-66.39 160.46,-68.31 159.13,-68.92 C156.22,-70.18 151.09,-70.84 147.96,-71.01 C140.51,-71.39 127.66,-70.07 123.18,-68.71 C116.44,-66.58 115.34,-63.73 115.27,-63.08 C116.35,-63.08 117.18,-64.56 117.52,-67.47 C117.65,-68.71 117.25,-71.54 116.86,-72.49 C116.34,-73.66 114.73,-75.36 113.61,-75.89 C111.11,-76.98 104.10,-76.54 100.58,-75.23 C96.87,-73.78 91.64,-69.32 89.98,-66.31 C89.33,-65.07 88.68,-62.82 88.62,-61.75 C88.60,-60.87 89.30,-59.15 89.93,-58.45 C90.17,-58.19 90.70,-57.73 91.52,-57.08" fill="none" stroke="rgb(0, 255, 0)" stroke-width="3.86" stroke-opacity="1.00" stroke-linejoin="round"/>
</g>
</svg>
