<?xml version="1.0" encoding="UTF-8" standalone="no"?>
<!DOCTYPE svg PUBLIC "-//W3C//DTD SVG 1.1//EN" "http://www.w3.org/Graphics/SVG/1.1/DTD/svg11.dtd">
<svg width="128.40" height="181.68" viewBox="0.00 0.00 535.00 757.00" xmlns="http://www.w3.org/2000/svg" xmlns:xlink="http://www.w3.org/1999/xlink">
<g stroke-linecap="round" transform="translate(44.00, 155.00)" id="207_구름1">
<path d="M397.60,-38.02 C397.60,-38.02 397.75,-40.03 397.75,-40.03 C397.21,-40.54 396.08,-41.24 395.08,-41.48 C393.52,-41.83 390.42,-41.49 388.61,-40.79 C386.84,-40.06 383.64,-36.13 382.86,-33.51 C382.14,-30.94 382.97,-25.28 384.40,-23.14 C385.99,-20.87 390.45,-18.59 392.76,-18.44 C394.99,-18.35 397.90,-18.96 399.12,-19.90 C401.33,-21.67 401.41,-24.35 401.14,-24.79 C398.99,-25.07 398.00,-24.99 397.50,-24.30 C396.48,-22.81 396.75,-19.79 398.34,-18.30 C399.74,-17.05 406.55,-14.03 409.54,-13.10 C412.91,-12.06 420.16,-10.73 422.78,-10.48 C425.40,-10.26 431.82,-10.61 434.13,-11.72 C435.81,-12.59 438.61,-16.62 439.24,-18.94 C439.55,-20.22 439.56,-22.15 439.20,-23.10 C438.40,-25.01 432.89,-27.96 428.98,-28.66 C425.16,-29.30 418.42,-28.93 416.48,-28.20 C415.45,-27.80 414.76,-27.11 414.52,-26.47 C415.11,-25.37 419.54,-24.53 422.92,-25.11 C424.64,-25.43 428.70,-26.90 430.19,-27.77 C431.70,-28.69 434.15,-30.99 434.89,-32.20 C435.79,-33.78 436.39,-36.65 435.95,-38.06 C435.49,-39.43 433.87,-41.55 432.87,-42.25 C430.79,-43.62 426.34,-45.26 423.34,-45.70 C411.72,-47.32 393.19,-41.93 391.30,-40.92 C388.72,-39.50 387.44,-37.12 387.49,-37.04" fill="none" stroke="rgb(0, 255, 0)" stroke-width="3.86" stroke-opacity="1.00" stroke-linejoin="round"/>
</g>
</svg>
