<?xml version="1.0" encoding="UTF-8" standalone="no"?>
<!DOCTYPE svg PUBLIC "-//W3C//DTD SVG 1.1//EN" "http://www.w3.org/Graphics/SVG/1.1/DTD/svg11.dtd">
<svg width="128.40" height="181.68" viewBox="0.00 0.00 535.00 757.00" xmlns="http://www.w3.org/2000/svg" xmlns:xlink="http://www.w3.org/1999/xlink">
<g stroke-linecap="round" transform="translate(44.00, 155.00)" id="208_비">
<path d="M86.55,19.84 C86.33,19.48 86.18,19.22 86.09,19.06 C85.92,18.76 85.77,18.44 85.58,18.14 C85.49,17.99 85.32,17.74 85.06,17.37 C84.46,20.72 83.20,27.95 82.99,30.07 C82.36,36.93 84.11,48.10 84.90,50.77" fill="none" stroke="rgb(0, 0, 255)" stroke-width="4.00" stroke-opacity="1.00" stroke-linejoin="round"/>
<path d="M125.91,-14.06 C126.26,-14.41 126.51,-14.64 126.65,-14.76 C126.98,-15.06 127.27,-15.30 127.54,-15.48 C127.68,-15.58 127.93,-15.72 128.28,-15.92 C129.91,-15.08 132.38,-11.74 134.15,-8.96 C139.17,-0.96 142.67,5.47 145.98,13.14 C148.81,19.88 151.86,30.10 154.50,40.04 C155.34,43.25 156.08,46.82 156.26,47.85" fill="none" stroke="rgb(0, 0, 255)" stroke-width="4.00" stroke-opacity="1.00" stroke-linejoin="round"/>
<path d="M155.64,64.44 C154.82,65.69 154.50,66.68 154.62,68.24 C155.07,73.79 158.06,87.62 160.84,95.57 C166.03,109.27 172.80,127.15 173.98,130.52" fill="none" stroke="rgb(0, 0, 255)" stroke-width="4.00" stroke-opacity="1.00" stroke-linejoin="round"/>
<path d="M133.78,98.74 C131.71,99.66 130.65,100.60 130.32,102.02 C129.49,105.61 130.04,116.66 131.17,124.24 C132.62,133.08 137.32,155.67 138.05,159.01 C138.32,160.25 138.88,163.40 139.07,164.81 C139.46,167.79 139.31,172.33 139.26,173.45" fill="none" stroke="rgb(0, 0, 255)" stroke-width="4.00" stroke-opacity="1.00" stroke-linejoin="round"/>
<path d="M112.99,147.38 C112.99,147.38 113.03,147.20 113.03,147.20 C113.48,148.67 115.36,153.76 116.40,156.52 C119.04,163.56 121.66,173.39 123.77,182.71 C125.97,193.12 126.52,198.37 126.22,202.41 C125.89,206.34 124.44,212.34 121.31,217.89" fill="none" stroke="rgb(0, 0, 255)" stroke-width="4.00" stroke-opacity="1.00" stroke-linejoin="round"/>
<path d="M81.37,201.73 C81.37,201.73 81.75,201.38 81.75,201.38 C84.24,206.06 89.42,219.01 91.26,226.64 C92.19,230.54 96.04,251.90 96.02,253.45 C96.00,254.59 95.99,255.73 95.97,256.86 C95.78,264.86 95.56,274.20 95.53,275.55" fill="none" stroke="rgb(0, 0, 255)" stroke-width="4.00" stroke-opacity="1.00" stroke-linejoin="round"/>
<path d="M96.11,271.02 C95.34,270.99 93.70,271.19 92.97,271.64 C91.19,272.80 88.72,277.97 88.11,280.94 C86.58,288.59 86.60,296.15 87.62,307.87 C88.37,315.70 90.26,324.33 91.75,327.78" fill="none" stroke="rgb(0, 0, 255)" stroke-width="4.00" stroke-opacity="1.00" stroke-linejoin="round"/>
<path d="M161.89,234.15 C160.99,233.96 159.21,233.90 158.35,234.42 C156.41,235.60 153.07,241.25 152.05,243.81 C150.05,248.91 148.12,259.53 146.62,269.61 C146.12,273.10 146.02,278.46 146.03,279.84" fill="none" stroke="rgb(0, 0, 255)" stroke-width="4.00" stroke-opacity="1.00" stroke-linejoin="round"/>
<path d="M155.17,354.09 C154.35,354.68 153.71,357.55 153.70,361.70 C153.70,362.83 154.21,372.51 154.77,377.13 C155.31,381.54 157.53,394.25 157.74,395.44" fill="none" stroke="rgb(0, 0, 255)" stroke-width="4.00" stroke-opacity="1.00" stroke-linejoin="round"/>
<path d="M187.12,275.05 C187.75,276.64 188.13,277.68 188.28,278.16 C188.42,278.64 189.79,287.69 190.28,291.04 C190.84,294.55 191.88,301.47 191.98,304.18 C192.03,305.83 191.84,309.31 191.59,311.60 C191.40,313.26 190.27,320.42 190.07,321.71" fill="none" stroke="rgb(0, 0, 255)" stroke-width="4.00" stroke-opacity="1.00" stroke-linejoin="round"/>
<path d="M185.84,417.52 C185.86,416.97 186.18,414.94 186.17,414.78 C186.15,414.52 186.01,414.15 185.74,413.68 C184.88,413.17 183.53,413.19 182.05,413.88 C180.48,414.64 176.06,419.42 173.85,423.22 C171.45,427.40 167.64,440.58 166.42,448.88 C163.85,466.63 164.42,480.86 165.14,485.13" fill="none" stroke="rgb(0, 0, 255)" stroke-width="4.00" stroke-opacity="1.00" stroke-linejoin="round"/>
<path d="M295.56,442.88 C293.90,444.31 292.99,445.29 291.92,446.94 C287.28,454.05 281.90,466.07 280.39,471.15 C277.31,481.63 274.95,499.64 275.00,504.36" fill="none" stroke="rgb(0, 0, 255)" stroke-width="4.00" stroke-opacity="1.00" stroke-linejoin="round"/>
<path d="M330.67,405.95 C329.30,405.94 327.05,408.76 325.79,411.91 C323.59,417.56 320.79,428.82 319.69,436.41 C319.14,440.25 317.76,457.54 317.38,465.74 C317.10,474.57 317.78,479.08 318.29,481.68" fill="none" stroke="rgb(0, 0, 255)" stroke-width="4.00" stroke-opacity="1.00" stroke-linejoin="round"/>
<path d="M330.47,316.69 C330.47,316.69 330.48,316.31 330.48,316.31 C330.09,317.70 328.01,334.79 327.04,342.86 C326.13,350.39 324.40,364.39 323.57,370.87 C322.99,375.64 322.69,380.14 322.78,382.83" fill="none" stroke="rgb(0, 0, 255)" stroke-width="4.00" stroke-opacity="1.00" stroke-linejoin="round"/>
<path d="M385.83,334.52 C384.44,339.20 381.85,351.34 380.20,361.62 C379.23,368.59 377.27,383.19 376.29,390.82 C375.28,399.32 373.58,413.84 372.89,419.84" fill="none" stroke="rgb(0, 0, 255)" stroke-width="4.00" stroke-opacity="1.00" stroke-linejoin="round"/>
<path d="M384.62,231.87 C384.62,231.87 385.46,231.21 385.46,231.21 C385.46,231.21 386.56,231.37 386.56,231.37 C388.06,236.97 388.47,251.08 387.72,259.18 C386.92,266.77 385.03,281.17 383.88,288.41 C383.33,291.61 381.78,298.31 380.27,301.58" fill="none" stroke="rgb(0, 0, 255)" stroke-width="4.00" stroke-opacity="1.00" stroke-linejoin="round"/>
<path d="M322.67,243.77 C322.67,243.77 320.82,243.76 320.82,243.76 C319.55,245.89 319.39,249.49 319.32,253.23 C319.18,261.40 318.79,281.52 318.61,284.60 C318.42,286.75 318.20,289.34 318.13,290.70" fill="none" stroke="rgb(0, 0, 255)" stroke-width="4.00" stroke-opacity="1.00" stroke-linejoin="round"/>
<path d="M367.07,178.66 C367.07,178.66 366.61,178.87 366.61,178.87 C366.39,181.08 367.31,197.60 367.09,203.65 C366.95,207.20 365.62,224.84 364.11,229.49 C363.49,231.40 362.53,233.08 361.05,235.16" fill="none" stroke="rgb(0, 0, 255)" stroke-width="4.00" stroke-opacity="1.00" stroke-linejoin="round"/>
<path d="M340.97,122.36 C341.29,121.53 341.50,120.90 341.58,120.48 C341.67,120.05 341.75,119.23 341.84,118.01 C341.24,124.37 340.01,138.92 339.37,147.12 C338.94,154.78 338.46,163.63 338.41,164.82" fill="none" stroke="rgb(0, 0, 255)" stroke-width="4.00" stroke-opacity="1.00" stroke-linejoin="round"/>
<path d="M351.06,23.61 C351.06,23.61 350.85,22.61 350.85,22.61 C349.72,23.16 348.63,27.26 348.21,32.60 C347.75,40.11 346.62,55.91 345.96,64.20 C345.41,69.97 344.81,73.95 343.79,76.81 C341.82,82.13 340.47,84.77 336.89,87.59" fill="none" stroke="rgb(0, 0, 255)" stroke-width="4.00" stroke-opacity="1.00" stroke-linejoin="round"/>
<path d="M252.17,-47.83 C252.17,-47.83 250.48,-48.84 250.48,-48.84 C250.48,-48.84 249.90,-48.53 249.90,-48.53 C250.02,-45.03 253.39,-29.07 255.16,-21.05 C261.19,5.69 262.93,16.46 262.91,18.73" fill="none" stroke="rgb(0, 0, 255)" stroke-width="4.00" stroke-opacity="1.00" stroke-linejoin="round"/>
<path d="M176.96,-46.89 C177.34,-47.40 177.96,-48.08 178.28,-48.26 C178.39,-48.32 178.53,-48.34 178.70,-48.33 C179.47,-46.56 181.15,-33.39 182.02,-26.43 C184.67,-7.81 189.89,22.94 192.54,37.85 C194.04,45.50 195.76,52.98 195.94,53.76" fill="none" stroke="rgb(0, 0, 255)" stroke-width="4.00" stroke-opacity="1.00" stroke-linejoin="round"/>
</g>
</svg>
