<?xml version="1.0" encoding="UTF-8" standalone="no"?>
<!DOCTYPE svg PUBLIC "-//W3C//DTD SVG 1.1//EN" "http://www.w3.org/Graphics/SVG/1.1/DTD/svg11.dtd">
<svg width="128.40" height="181.68" viewBox="0.00 0.00 535.00 757.00" xmlns="http://www.w3.org/2000/svg" xmlns:xlink="http://www.w3.org/1999/xlink">
<g stroke-linecap="round" transform="translate(44.00, 155.00)" id="209_비2">
<path d="M67.51,66.92 C67.48,65.85 67.48,65.18 67.53,64.90 C67.57,64.62 67.71,64.35 67.94,64.08 C67.94,64.08 67.55,63.91 67.55,63.91 C64.00,65.47 51.57,71.53 44.55,74.98 C27.97,83.48 10.46,95.16 5.98,98.86 C5.04,99.64 2.94,101.40 1.77,102.40 C1.77,102.40 2.47,101.60 2.47,101.60" fill="none" stroke="rgb(0, 255, 0)" stroke-width="3.98" stroke-opacity="1.00" stroke-linejoin="round"/>
<path d="M95.88,16.24 C95.47,15.71 92.59,14.97 89.80,16.03 C86.29,17.41 75.67,26.34 68.93,32.56 C64.33,36.89 57.51,44.70 55.77,46.93 C54.90,48.06 53.98,49.58 52.59,52.07" fill="none" stroke="rgb(0, 255, 0)" stroke-width="3.98" stroke-opacity="1.00" stroke-linejoin="round"/>
<path d="M94.21,83.51 C91.73,83.70 88.50,85.62 84.13,88.74 C71.43,97.96 58.99,110.72 53.09,117.47 C50.76,120.20 48.06,123.69 45.04,127.71 C45.04,127.71 45.12,127.74 45.12,127.74 C45.20,127.69 45.30,127.58 45.43,127.41 C46.14,126.46 47.10,124.89 48.05,123.16" fill="none" stroke="rgb(0, 255, 0)" stroke-width="3.98" stroke-opacity="1.00" stroke-linejoin="round"/>
<path d="M132.62,6.90 C132.62,6.90 131.75,4.49 131.75,4.49 C131.07,3.93 127.20,6.14 124.92,8.53 C122.12,11.51 115.47,20.12 109.70,28.59 C105.09,35.56 97.42,48.16 94.10,53.81" fill="none" stroke="rgb(0, 255, 0)" stroke-width="3.98" stroke-opacity="1.00" stroke-linejoin="round"/>
<path d="M120.28,107.43 C118.47,106.91 115.94,107.77 113.27,109.66 C106.66,114.41 87.57,133.79 83.47,138.96 C82.21,140.55 78.69,145.31 78.04,146.19" fill="none" stroke="rgb(0, 255, 0)" stroke-width="3.98" stroke-opacity="1.00" stroke-linejoin="round"/>
<path d="M158.21,126.88 C158.53,126.15 158.73,125.64 158.81,125.35 C158.90,125.06 158.98,124.57 159.07,123.90 C157.34,123.69 152.32,125.77 149.18,127.49 C146.29,129.08 129.52,139.85 125.29,143.02 C121.80,145.64 105.64,159.55 103.30,161.83 C99.93,165.12 96.50,169.09 95.76,169.95" fill="none" stroke="rgb(0, 255, 0)" stroke-width="3.98" stroke-opacity="1.00" stroke-linejoin="round"/>
<path d="M198.51,3.48 C198.51,3.48 199.26,0.57 199.26,0.57 C199.27,0.55 189.88,13.70 185.82,20.00 C182.25,25.87 175.00,38.43 171.42,44.75 C170.12,47.15 168.13,50.76 167.45,51.98" fill="none" stroke="rgb(0, 255, 0)" stroke-width="3.98" stroke-opacity="1.00" stroke-linejoin="round"/>
<path d="M216.91,34.64 C213.83,34.57 212.19,34.76 210.29,35.58 C203.38,38.57 191.60,46.23 184.58,51.64 C176.77,57.92 168.96,64.96 162.96,71.00 C150.55,83.88 139.25,97.55 134.13,104.83 C131.11,109.19 129.13,112.34 129.18,113.15 C129.51,112.99 129.78,112.83 129.97,112.66 C130.27,112.41 132.12,110.51 132.79,109.81" fill="none" stroke="rgb(0, 255, 0)" stroke-width="3.98" stroke-opacity="1.00" stroke-linejoin="round"/>
<path d="M213.84,56.26 C213.84,56.26 213.03,54.20 213.03,54.20 C210.89,53.32 206.72,54.94 203.72,56.95 C199.04,60.16 190.55,67.75 182.71,75.67 C176.30,82.46 165.79,94.74 162.96,98.36 C160.34,101.72 157.35,105.94 155.28,109.09" fill="none" stroke="rgb(0, 255, 0)" stroke-width="3.98" stroke-opacity="1.00" stroke-linejoin="round"/>
<path d="M230.72,59.88 C230.44,59.80 230.20,59.78 229.99,59.83 C227.74,60.42 215.95,69.24 210.21,74.89 C205.49,79.65 194.76,91.11 189.30,97.08 C184.47,102.52 180.14,107.62 178.94,109.06" fill="none" stroke="rgb(0, 255, 0)" stroke-width="3.98" stroke-opacity="1.00" stroke-linejoin="round"/>
<path d="M215.80,90.62 C214.32,90.52 212.76,91.30 210.79,93.27 C206.93,97.15 200.88,104.93 198.35,108.73 C197.17,110.51 196.49,111.74 195.43,113.88" fill="none" stroke="rgb(0, 255, 0)" stroke-width="3.98" stroke-opacity="1.00" stroke-linejoin="round"/>
<path d="M300.71,-6.63 C300.31,-7.07 298.38,-6.83 296.02,-4.58 C292.73,-1.39 280.81,12.76 277.90,16.52 C273.50,22.36 264.76,34.85 260.52,41.36 C254.89,50.37 248.77,61.23 247.61,64.45 C246.87,66.53 246.38,68.56 246.63,68.29" fill="none" stroke="rgb(0, 255, 0)" stroke-width="3.98" stroke-opacity="1.00" stroke-linejoin="round"/>
<path d="M351.32,-15.83 C351.32,-15.83 351.29,-15.97 351.29,-15.97 C349.26,-13.48 345.72,-9.17 344.21,-7.35 C339.83,-2.05 329.90,10.11 324.36,16.97 C318.99,23.74 308.29,37.26 302.97,44.02 C301.14,46.34 298.62,49.55 297.92,50.43" fill="none" stroke="rgb(0, 255, 0)" stroke-width="3.98" stroke-opacity="1.00" stroke-linejoin="round"/>
<path d="M263.27,105.96 C262.76,106.11 262.38,106.26 262.15,106.39 C260.72,107.24 249.94,117.07 243.01,124.02 C237.84,129.42 228.47,139.40 223.17,145.46 C206.88,164.77 203.97,168.52 203.46,169.19" fill="none" stroke="rgb(0, 255, 0)" stroke-width="3.98" stroke-opacity="1.00" stroke-linejoin="round"/>
<path d="M183.17,166.61 C183.31,165.83 183.39,165.28 183.41,164.95 C183.43,164.62 183.42,164.05 183.39,163.25 C181.30,163.27 176.97,165.94 175.04,167.50 C171.87,170.08 158.13,183.44 151.90,190.45 C143.03,200.69 127.75,222.60 126.23,225.94" fill="none" stroke="rgb(0, 255, 0)" stroke-width="3.98" stroke-opacity="1.00" stroke-linejoin="round"/>
<path d="M373.84,33.53 C372.50,33.19 369.97,34.98 366.48,38.93 C362.26,43.75 352.85,56.85 348.57,64.02 C344.49,70.87 338.36,83.46 335.81,89.81 C333.74,95.00 331.08,104.02 330.79,105.00" fill="none" stroke="rgb(0, 255, 0)" stroke-width="3.98" stroke-opacity="1.00" stroke-linejoin="round"/>
<path d="M278.33,137.61 C278.33,137.61 276.81,135.43 276.81,135.43 C273.83,137.66 265.87,150.06 263.49,155.01 C260.84,160.56 257.56,172.68 257.83,176.08" fill="none" stroke="rgb(0, 255, 0)" stroke-width="3.98" stroke-opacity="1.00" stroke-linejoin="round"/>
<path d="M341.77,119.00 C341.77,119.00 341.51,116.20 341.51,116.20 C341.05,115.03 331.64,123.26 323.81,130.66 C317.67,136.63 310.70,144.28 304.81,151.40 C300.69,156.56 290.92,169.57 288.52,174.44" fill="none" stroke="rgb(0, 255, 0)" stroke-width="3.98" stroke-opacity="1.00" stroke-linejoin="round"/>
<path d="M369.38,111.12 C370.45,109.92 371.06,109.35 371.78,108.93 C371.93,108.84 372.12,108.72 372.34,108.58 C372.34,108.58 372.48,108.86 372.48,108.86 C370.08,115.46 367.14,124.75 364.48,134.96 C362.33,143.59 360.60,157.45 360.39,160.89 C359.99,167.48 360.47,171.27 360.75,172.76" fill="none" stroke="rgb(0, 255, 0)" stroke-width="3.98" stroke-opacity="1.00" stroke-linejoin="round"/>
<path d="M373.22,176.44 C371.82,176.46 368.49,178.95 364.48,182.47 C358.38,187.92 350.89,195.70 347.40,200.83 C346.29,202.48 344.81,205.00 343.76,207.02 C342.76,208.98 342.19,210.67 341.66,213.06" fill="none" stroke="rgb(0, 255, 0)" stroke-width="3.98" stroke-opacity="1.00" stroke-linejoin="round"/>
<path d="M415.60,145.00 C415.60,145.00 417.63,143.83 417.63,143.83 C416.64,144.03 415.84,144.37 414.98,145.11 C411.87,147.83 403.25,158.45 398.49,165.94 C395.38,170.91 386.96,185.58 383.41,193.28 C375.71,210.46 372.15,221.64 371.41,224.02" fill="none" stroke="rgb(0, 255, 0)" stroke-width="3.98" stroke-opacity="1.00" stroke-linejoin="round"/>
</g>
</svg>
