<?xml version="1.0" encoding="UTF-8" standalone="no"?>
<!DOCTYPE svg PUBLIC "-//W3C//DTD SVG 1.1//EN" "http://www.w3.org/Graphics/SVG/1.1/DTD/svg11.dtd">
<svg width="64.20" height="90.84" viewBox="0.00 0.00 535.00 757.00" xmlns="http://www.w3.org/2000/svg" xmlns:xlink="http://www.w3.org/1999/xlink">
<g stroke-linecap="round" transform="translate(154.00, 267.00)" id="21-사람">
<path d="M50.70,75.10 C48.91,75.08 47.80,75.10 47.36,75.16 C45.68,75.43 44.78,78.04 44.91,79.88 C45.10,82.05 46.12,82.48 46.31,82.48 C46.31,82.48 45.90,83.23 45.90,83.23" fill="none" stroke="rgb(33, 228, 63)" stroke-width="3.09" stroke-opacity="1.00" stroke-linejoin="round"/>
<path d="M50.70,75.48 C50.82,75.60 54.09,77.67 56.91,80.23 C58.27,81.50 59.32,82.81 60.38,85.57 C61.19,87.72 63.85,96.47 64.17,97.21 C64.68,98.34 72.91,109.91 76.38,112.24 C79.32,114.16 83.33,115.01 88.43,115.45 C89.78,115.54 97.02,115.87 97.48,115.85 C101.29,115.70 109.75,112.53 111.09,112.03 C111.39,111.92 111.75,111.77 112.16,111.60" fill="none" stroke="rgb(33, 228, 63)" stroke-width="3.09" stroke-opacity="1.00" stroke-linejoin="round"/>
<path d="M119.92,52.97 C118.91,53.31 118.13,53.80 116.95,54.95 C113.56,58.25 107.07,64.09 106.60,64.57 C104.44,66.79 100.91,72.21 99.60,75.38 C98.47,78.17 97.48,81.96 97.60,83.50 C97.85,86.16 108.72,106.61 109.30,107.18 C109.96,107.77 112.22,108.74 114.10,108.75 C116.34,108.74 121.70,107.18 124.07,105.91 C125.06,105.35 130.22,101.28 132.47,99.90 C136.38,97.55 139.41,96.74 139.66,96.67 C139.66,96.67 140.15,95.53 140.15,95.53" fill="none" stroke="rgb(33, 228, 63)" stroke-width="3.09" stroke-opacity="1.00" stroke-linejoin="round"/>
<path d="M120.67,53.16 C121.22,52.89 122.69,52.49 124.12,52.65 C126.20,52.89 131.50,53.88 132.91,54.50 C134.11,55.05 139.25,58.47 140.01,59.27 C142.11,61.59 145.79,71.54 146.75,77.29 C147.68,83.08 146.01,89.60 144.69,92.60 C144.15,93.76 143.28,94.06 142.05,94.39" fill="none" stroke="rgb(33, 228, 63)" stroke-width="3.09" stroke-opacity="1.00" stroke-linejoin="round"/>
<path d="M119.73,61.86 C119.80,61.87 121.82,61.95 122.87,62.66 C123.12,62.84 133.47,71.46 136.40,74.83 C138.30,77.04 140.11,80.27 140.35,82.27 C140.61,84.70 139.52,91.86 139.45,92.29 C139.45,92.29 138.64,93.07 138.64,93.07" fill="none" stroke="rgb(33, 228, 63)" stroke-width="3.09" stroke-opacity="1.00" stroke-linejoin="round"/>
<path d="M109.89,80.59 C109.86,80.45 113.78,81.46 114.46,81.92 C114.51,81.96 114.57,82.02 114.62,82.09 C114.62,82.09 107.43,81.72 107.43,81.72 C107.43,81.71 107.43,81.78 107.43,81.91 C107.58,83.61 108.99,85.10 110.54,85.35 C111.27,85.46 112.01,85.44 112.54,85.34 C112.45,85.16 111.86,85.10 111.65,84.99 C111.51,84.92 111.24,84.71 110.84,84.37" fill="none" stroke="rgb(33, 228, 63)" stroke-width="3.09" stroke-opacity="1.00" stroke-linejoin="round"/>
<path d="M122.19,80.02 C122.19,80.02 121.43,80.21 121.43,80.21 C123.76,78.76 126.62,78.70 129.71,79.83 C129.71,79.83 129.32,80.26 129.32,80.26" fill="none" stroke="rgb(33, 228, 63)" stroke-width="3.09" stroke-opacity="1.00" stroke-linejoin="round"/>
<path d="M124.08,81.91 C124.08,81.91 123.51,82.23 123.51,82.23 C123.91,83.78 126.06,83.21 126.25,82.87 C126.11,82.54 125.29,82.29 124.98,82.20 C124.81,82.14 124.40,82.00 123.77,81.76" fill="none" stroke="rgb(33, 228, 63)" stroke-width="3.09" stroke-opacity="1.00" stroke-linejoin="round"/>
<path d="M115.38,84.18 C115.38,84.18 115.00,84.42 115.00,84.42 C115.38,84.75 117.69,86.69 117.99,87.67 C118.11,88.09 118.24,89.08 118.23,89.24 C118.23,89.24 118.53,89.28 118.53,89.28" fill="none" stroke="rgb(33, 228, 63)" stroke-width="3.09" stroke-opacity="1.00" stroke-linejoin="round"/>
<path d="M123.70,94.01 C123.54,94.01 123.42,94.04 123.32,94.11 C123.09,94.26 120.85,96.45 120.32,96.81 C119.93,97.08 119.18,97.47 118.06,97.97 C118.06,97.97 118.37,97.82 118.37,97.82" fill="none" stroke="rgb(33, 228, 63)" stroke-width="3.09" stroke-opacity="1.00" stroke-linejoin="round"/>
<path d="M120.67,102.34 C120.67,102.34 120.58,102.34 120.58,102.34 C120.58,102.34 120.48,102.24 120.48,102.24 C120.48,102.24 120.78,101.78 120.78,101.78 C120.78,101.78 124.41,101.39 124.41,101.39 C124.41,101.39 124.46,101.25 124.46,101.25" fill="none" stroke="rgb(33, 228, 63)" stroke-width="3.09" stroke-opacity="1.00" stroke-linejoin="round"/>
<path d="M57.13,104.60 C57.14,104.72 56.93,106.77 57.73,107.96 C59.08,109.96 65.88,118.54 71.12,122.60 C73.58,124.49 79.36,128.01 82.29,129.27 C86.53,131.06 96.63,132.20 97.05,132.17 C97.28,132.15 97.46,132.04 97.60,131.84" fill="none" stroke="rgb(33, 228, 63)" stroke-width="3.09" stroke-opacity="1.00" stroke-linejoin="round"/>
<path d="M146.58,109.52 C147.90,110.08 149.98,111.04 150.73,111.54 C152.36,112.63 157.40,117.42 158.87,120.42 C159.89,122.56 163.80,135.74 164.44,140.78 C165.19,147.29 167.24,164.92 167.55,167.16 C168.07,170.80 170.11,178.82 169.86,180.18 C169.86,180.18 166.82,180.45 166.82,180.45" fill="none" stroke="rgb(33, 228, 63)" stroke-width="3.09" stroke-opacity="1.00" stroke-linejoin="round"/>
<path d="M144.32,129.19 C144.32,129.19 144.13,129.19 144.13,129.19 C144.39,129.37 146.24,131.24 147.12,132.87 C147.40,133.39 150.91,140.75 151.52,142.86 C152.23,145.40 153.66,158.75 155.52,167.11 C157.51,176.51 159.33,180.48 159.38,181.06 C159.57,183.10 160.41,184.75 162.11,184.94 C165.19,185.22 168.64,182.23 169.71,181.08 C169.91,180.86 170.14,180.59 170.42,180.26" fill="none" stroke="rgb(33, 228, 63)" stroke-width="3.09" stroke-opacity="1.00" stroke-linejoin="round"/>
<path d="M102.33,136.38 C101.91,136.58 101.20,137.31 101.19,138.36 C101.18,144.24 102.32,151.17 104.41,156.82 C105.18,158.86 107.03,163.49 108.58,165.97 C109.37,167.23 112.40,170.82 112.43,170.88 C112.43,170.88 112.92,170.61 112.92,170.61" fill="none" stroke="rgb(33, 228, 63)" stroke-width="3.09" stroke-opacity="1.00" stroke-linejoin="round"/>
<path d="M147.34,138.27 C147.35,138.34 147.34,138.48 147.43,138.68 C148.53,141.25 149.35,153.12 149.14,157.07 C148.90,161.16 147.38,165.99 147.11,166.79 C145.44,167.19 138.14,170.03 128.73,173.00 C126.43,173.70 123.11,173.79 121.38,173.11 C120.50,172.76 117.57,171.66 116.99,171.42 C116.75,171.32 116.33,171.11 115.76,170.80" fill="none" stroke="rgb(33, 228, 63)" stroke-width="3.09" stroke-opacity="1.00" stroke-linejoin="round"/>
<path d="M114.51,169.00 C113.88,170.52 113.47,171.58 112.77,173.56 C110.24,180.79 107.66,193.46 107.22,197.42 C106.57,204.01 105.56,214.13 105.53,222.12 C105.54,227.50 107.34,241.02 106.92,241.53 C104.00,244.88 101.21,248.42 100.32,250.06 C99.30,252.01 98.95,254.16 99.27,254.90 C99.62,255.61 101.18,256.19 102.48,256.15 C104.65,256.06 117.24,250.81 117.60,250.86 C118.01,250.92 118.42,250.98 118.83,251.05" fill="none" stroke="rgb(33, 228, 63)" stroke-width="3.09" stroke-opacity="1.00" stroke-linejoin="round"/>
<path d="M130.85,177.81 C130.63,178.73 130.21,180.48 129.95,181.73 C128.26,189.78 126.37,206.96 126.08,209.49 C124.19,225.07 123.59,236.33 123.22,243.01 C123.08,247.21 122.93,247.99 122.24,248.28 C121.31,248.65 120.06,249.15 119.92,249.21 C119.92,249.21 118.51,248.64 118.51,248.64" fill="none" stroke="rgb(33, 228, 63)" stroke-width="3.09" stroke-opacity="1.00" stroke-linejoin="round"/>
<path d="M131.01,180.37 C131.01,180.37 130.85,180.54 130.85,180.54 C131.04,182.52 131.19,183.74 131.52,185.75 C133.65,198.96 135.42,228.17 136.33,240.99 C136.64,244.73 136.48,246.87 136.06,247.88 C136.06,247.88 136.14,246.08 136.14,246.08" fill="none" stroke="rgb(33, 228, 63)" stroke-width="3.09" stroke-opacity="1.00" stroke-linejoin="round"/>
<path d="M147.36,167.55 C147.36,167.55 147.20,167.39 147.20,167.39 C147.26,167.71 147.71,169.18 148.04,170.28 C149.23,174.30 149.63,181.01 149.21,192.76 C148.94,200.46 149.79,216.40 153.54,229.52 C153.76,230.33 154.66,234.77 155.05,234.87 C156.03,235.06 157.51,235.72 158.23,237.22 C159.06,239.03 159.41,245.63 159.38,245.48 C159.38,245.48 159.86,244.32 159.86,244.32" fill="none" stroke="rgb(33, 228, 63)" stroke-width="3.09" stroke-opacity="1.00" stroke-linejoin="round"/>
<path d="M133.58,250.08 C133.59,250.10 137.79,249.35 147.53,246.58 C153.29,244.95 160.53,244.29 165.07,243.69 C165.07,243.69 164.99,243.35 164.99,243.35" fill="none" stroke="rgb(33, 228, 63)" stroke-width="3.09" stroke-opacity="1.00" stroke-linejoin="round"/>
</g>
</svg>
