<?xml version="1.0" encoding="UTF-8" standalone="no"?>
<!DOCTYPE svg PUBLIC "-//W3C//DTD SVG 1.1//EN" "http://www.w3.org/Graphics/SVG/1.1/DTD/svg11.dtd">
<svg width="64.20" height="90.84" viewBox="0.00 0.00 535.00 757.00" xmlns="http://www.w3.org/2000/svg" xmlns:xlink="http://www.w3.org/1999/xlink">
<g stroke-linecap="round" transform="translate(156.00, 267.00)" id="21-비">
<path d="M-48.25,-199.72 C-48.25,-199.72 -48.25,-200.03 -48.25,-200.03 C-48.67,-194.09 -51.16,-181.13 -52.07,-174.02 C-53.47,-162.20 -56.11,-132.87 -56.55,-115.99 C-56.62,-110.97 -56.24,-101.87 -56.17,-101.63 C-56.10,-101.41 -55.86,-100.73 -55.44,-99.59" fill="none" stroke="rgb(0, 165, 255)" stroke-width="3.09" stroke-opacity="1.00" stroke-linejoin="round"/>
<path d="M9.17,-199.09 C9.17,-199.09 8.85,-199.40 8.85,-199.40 C8.50,-195.66 6.62,-183.02 6.30,-174.62 C6.19,-171.50 4.86,-148.99 4.89,-145.42 C4.90,-144.69 5.08,-141.00 5.10,-140.85 C5.14,-140.62 5.25,-140.48 5.42,-140.43" fill="none" stroke="rgb(0, 165, 255)" stroke-width="3.09" stroke-opacity="1.00" stroke-linejoin="round"/>
<path d="M71.57,-204.71 C71.63,-204.11 70.90,-198.36 70.65,-196.15 C70.24,-192.98 66.96,-173.52 66.82,-169.54 C66.70,-165.86 66.53,-159.71 66.59,-158.88 C66.62,-158.47 66.72,-157.94 66.89,-157.29" fill="none" stroke="rgb(0, 165, 255)" stroke-width="3.09" stroke-opacity="1.00" stroke-linejoin="round"/>
<path d="M144.27,-201.59 C144.27,-201.59 141.76,-158.14 141.76,-158.14 C141.76,-158.14 142.28,-158.39 142.28,-158.39" fill="none" stroke="rgb(0, 165, 255)" stroke-width="3.09" stroke-opacity="1.00" stroke-linejoin="round"/>
<path d="M210.42,-191.92 C210.42,-191.92 209.64,-191.76 209.64,-191.76 C209.45,-190.56 209.19,-171.97 209.18,-164.15 C209.17,-160.70 209.19,-154.59 209.21,-151.92 C209.24,-150.41 209.56,-149.60 210.31,-148.70 C210.31,-148.70 212.48,-148.49 212.48,-148.49" fill="none" stroke="rgb(0, 165, 255)" stroke-width="3.09" stroke-opacity="1.00" stroke-linejoin="round"/>
<path d="M306.84,-173.19 C306.84,-173.19 306.84,-173.51 306.84,-173.51 C307.01,-168.01 304.24,-152.39 303.90,-148.21 C302.56,-131.77 302.90,-105.60 303.48,-92.16 C303.48,-92.16 304.46,-93.32 304.46,-93.32" fill="none" stroke="rgb(0, 165, 255)" stroke-width="3.09" stroke-opacity="1.00" stroke-linejoin="round"/>
<path d="M-51.05,-53.06 C-51.05,-53.06 -51.21,-53.06 -51.21,-53.06 C-51.62,-52.72 -52.00,-49.60 -51.99,-46.86 C-51.94,-40.64 -51.26,-36.45 -50.74,-33.68 C-50.74,-33.68 -50.27,-34.10 -50.27,-34.10" fill="none" stroke="rgb(0, 165, 255)" stroke-width="3.09" stroke-opacity="1.00" stroke-linejoin="round"/>
<path d="M11.04,-111.10 C9.95,-107.72 9.52,-103.21 9.49,-100.00 C9.47,-91.56 9.70,-88.96 10.10,-85.38 C10.10,-85.38 10.31,-85.61 10.31,-85.61" fill="none" stroke="rgb(0, 165, 255)" stroke-width="3.09" stroke-opacity="1.00" stroke-linejoin="round"/>
<path d="M65.96,-115.16 C64.92,-114.41 64.73,-110.57 64.67,-105.66 C64.69,-102.35 65.52,-97.90 65.92,-96.30 C65.92,-96.30 66.14,-96.14 66.14,-96.14" fill="none" stroke="rgb(0, 165, 255)" stroke-width="3.09" stroke-opacity="1.00" stroke-linejoin="round"/>
<path d="M64.71,-70.85 C63.58,-70.69 62.58,-68.26 62.52,-64.95 C62.49,-58.43 63.68,-51.24 64.49,-49.62 C64.49,-49.62 65.86,-49.66 65.86,-49.66" fill="none" stroke="rgb(0, 165, 255)" stroke-width="3.09" stroke-opacity="1.00" stroke-linejoin="round"/>
<path d="M133.04,-123.89 C133.04,-123.89 132.89,-123.89 132.89,-123.89 C132.64,-123.70 132.49,-122.68 132.42,-120.41 C132.23,-113.10 130.35,-88.62 130.29,-87.88 C130.29,-87.88 130.98,-87.62 130.98,-87.62" fill="none" stroke="rgb(0, 165, 255)" stroke-width="3.09" stroke-opacity="1.00" stroke-linejoin="round"/>
<path d="M130.55,-62.74 C129.15,-59.04 128.50,-55.73 128.07,-52.96 C127.63,-49.88 128.00,-47.56 128.29,-47.44 C128.29,-47.44 129.06,-47.39 129.06,-47.39" fill="none" stroke="rgb(0, 165, 255)" stroke-width="3.09" stroke-opacity="1.00" stroke-linejoin="round"/>
<path d="M207.93,-107.04 C207.93,-107.04 207.77,-107.04 207.77,-107.04 C207.06,-106.21 206.62,-103.84 206.39,-100.88 C205.83,-93.34 207.63,-76.06 207.62,-74.30 C207.62,-74.30 207.62,-75.71 207.62,-75.71" fill="none" stroke="rgb(0, 165, 255)" stroke-width="3.09" stroke-opacity="1.00" stroke-linejoin="round"/>
<path d="M210.74,-66.79 C209.79,-66.35 208.87,-62.86 208.89,-59.16 C208.96,-56.00 209.58,-50.78 210.23,-49.97 C210.36,-49.81 210.68,-49.56 211.18,-49.21" fill="none" stroke="rgb(0, 165, 255)" stroke-width="3.09" stroke-opacity="1.00" stroke-linejoin="round"/>
<path d="M317.14,-38.09 C317.14,-38.09 314.73,-37.81 314.73,-37.81 C314.46,-39.11 314.16,-40.18 313.86,-40.77 C313.79,-40.91 313.66,-41.11 313.48,-41.38 C313.03,-40.63 310.34,-24.66 309.71,-18.29 C309.07,-11.19 309.00,0.21 309.34,0.87 C309.41,0.99 309.51,1.10 309.60,1.22" fill="none" stroke="rgb(0, 165, 255)" stroke-width="3.09" stroke-opacity="1.00" stroke-linejoin="round"/>
<path d="M-75.84,108.92 C-75.84,108.88 -76.18,114.47 -79.78,137.72 C-80.19,140.35 -80.88,144.85 -80.87,145.42 C-80.86,145.75 -80.77,146.24 -80.58,146.89" fill="none" stroke="rgb(0, 165, 255)" stroke-width="3.09" stroke-opacity="1.00" stroke-linejoin="round"/>
<path d="M-85.90,184.02 C-86.80,184.35 -88.01,187.33 -88.34,191.15 C-88.91,198.49 -87.09,220.67 -87.55,222.26 C-87.55,222.26 -86.90,221.75 -86.90,221.75" fill="none" stroke="rgb(0, 165, 255)" stroke-width="3.09" stroke-opacity="1.00" stroke-linejoin="round"/>
<path d="M-85.13,263.38 C-85.13,263.38 -87.79,264.08 -87.79,264.08 C-88.56,266.51 -88.89,269.94 -89.06,273.83 C-89.32,280.27 -89.24,283.75 -88.27,285.32 C-88.27,285.32 -85.74,286.46 -85.74,286.46" fill="none" stroke="rgb(0, 165, 255)" stroke-width="3.09" stroke-opacity="1.00" stroke-linejoin="round"/>
<path d="M18.61,273.05 C18.61,273.05 18.42,273.05 18.42,273.05 C17.66,278.36 21.79,292.80 22.10,293.88 C22.10,293.88 22.35,292.62 22.35,292.62" fill="none" stroke="rgb(0, 165, 255)" stroke-width="3.09" stroke-opacity="1.00" stroke-linejoin="round"/>
<path d="M287.27,102.63 C287.27,102.45 287.27,102.26 287.27,102.08 C287.27,102.01 287.27,101.95 287.27,101.89 C285.57,107.24 282.82,120.20 282.33,125.94 C280.94,142.66 282.37,158.36 282.46,161.32 C282.46,161.32 282.46,161.07 282.46,161.07" fill="none" stroke="rgb(0, 165, 255)" stroke-width="3.09" stroke-opacity="1.00" stroke-linejoin="round"/>
<path d="M232.96,272.92 C232.96,272.92 231.49,273.48 231.49,273.48 C231.49,273.48 231.39,320.30 231.39,320.30 C231.39,320.30 232.64,316.02 232.64,316.02" fill="none" stroke="rgb(0, 165, 255)" stroke-width="3.09" stroke-opacity="1.00" stroke-linejoin="round"/>
<path d="M273.97,235.24 C272.05,236.36 269.85,239.70 268.97,243.09 C266.08,254.90 267.23,268.89 267.91,270.04 C267.91,270.04 269.17,269.53 269.17,269.53" fill="none" stroke="rgb(0, 165, 255)" stroke-width="3.09" stroke-opacity="1.00" stroke-linejoin="round"/>
<path d="M299.83,243.74 C298.74,243.71 296.89,246.34 296.01,249.85 C292.58,264.24 293.57,274.27 293.67,274.84 C293.67,274.84 294.43,274.83 294.43,274.83" fill="none" stroke="rgb(0, 165, 255)" stroke-width="3.09" stroke-opacity="1.00" stroke-linejoin="round"/>
</g>
</svg>
