<?xml version="1.0" encoding="UTF-8" standalone="no"?>
<!DOCTYPE svg PUBLIC "-//W3C//DTD SVG 1.1//EN" "http://www.w3.org/Graphics/SVG/1.1/DTD/svg11.dtd">
<svg width="64.20" height="90.84" viewBox="0.00 0.00 535.00 757.00" xmlns="http://www.w3.org/2000/svg" xmlns:xlink="http://www.w3.org/1999/xlink">
<g stroke-linecap="round" transform="translate(156.00, 267.00)" id="21-우산">
<path d="M-101.46,27.03 C-101.46,27.03 -101.46,26.71 -101.46,26.71 C-100.43,25.09 -88.34,12.33 -86.76,10.79 C-84.56,8.66 -71.95,-0.69 -65.73,-4.69 C-59.35,-8.75 -50.23,-13.24 -43.15,-15.41 C-36.28,-17.41 -18.56,-22.38 -15.69,-23.01 C-9.76,-24.29 26.68,-28.00 36.48,-28.65 C54.16,-29.60 85.93,-30.48 92.49,-30.05 C100.09,-29.53 116.05,-28.47 124.42,-27.94 C134.06,-27.29 142.95,-26.05 150.42,-24.26 C158.43,-22.33 171.57,-17.09 174.94,-15.93 C177.51,-15.04 195.87,-9.50 201.13,-7.49 C210.98,-3.79 219.80,-0.12 225.13,2.88 C228.74,4.92 232.82,7.89 234.86,9.92 C243.42,18.59 248.54,31.02 249.03,32.37 C249.03,32.37 248.11,32.68 248.11,32.68" fill="none" stroke="rgb(255, 242, 0)" stroke-width="3.09" stroke-opacity="1.00" stroke-linejoin="round"/>
<path d="M-104.28,30.17 C-104.28,30.17 -104.28,29.85 -104.28,29.85 C-102.82,29.85 -89.39,27.74 -87.62,27.44 C-82.14,26.52 -67.57,22.80 -60.15,21.01 C-52.88,19.33 -38.09,17.76 -33.53,17.61 C-23.98,17.32 -11.21,18.97 -3.65,20.01 C3.76,20.80 16.63,22.27 22.31,23.12 C30.08,24.40 40.74,27.19 45.38,27.97 C51.96,29.06 61.99,30.09 72.25,30.63 C91.29,31.43 151.14,29.37 158.24,29.32 C158.65,29.32 177.52,30.41 183.41,30.28 C205.03,29.64 239.02,29.87 241.00,29.74 C242.76,29.61 243.93,29.57 245.63,29.54 C245.63,29.54 245.29,29.85 245.29,29.85" fill="none" stroke="rgb(255, 242, 0)" stroke-width="3.09" stroke-opacity="1.00" stroke-linejoin="round"/>
<path d="M49.79,26.71 C49.79,26.71 48.92,26.71 48.92,26.71 C48.92,26.71 48.54,27.12 48.54,27.12 C48.89,30.65 47.56,44.93 47.43,46.57 C46.41,59.17 40.82,93.37 39.00,102.80 C38.38,106.03 38.04,112.08 38.69,113.59 C38.94,114.10 41.42,114.88 42.37,114.40 C43.42,113.81 44.70,110.55 45.66,106.73 C47.07,101.06 49.07,88.83 50.11,82.87 C50.12,82.73 50.12,82.56 50.11,82.35" fill="none" stroke="rgb(255, 242, 0)" stroke-width="3.09" stroke-opacity="1.00" stroke-linejoin="round"/>
<path d="M50.73,72.84 C50.75,69.61 50.96,66.60 51.36,63.54 C51.74,60.77 56.15,36.22 56.69,31.11 C56.69,31.11 56.69,30.80 56.69,30.80" fill="none" stroke="rgb(255, 242, 0)" stroke-width="3.09" stroke-opacity="1.00" stroke-linejoin="round"/>
</g>
</svg>
