<?xml version="1.0" encoding="UTF-8" standalone="no"?>
<!DOCTYPE svg PUBLIC "-//W3C//DTD SVG 1.1//EN" "http://www.w3.org/Graphics/SVG/1.1/DTD/svg11.dtd">
<svg width="128.40" height="181.68" viewBox="0.00 0.00 535.00 757.00" xmlns="http://www.w3.org/2000/svg" xmlns:xlink="http://www.w3.org/1999/xlink">
<g stroke-linecap="round" transform="translate(44.00, 155.00)" id="210_우산">
<path d="M94.48,361.55 C94.38,361.15 94.31,360.88 94.26,360.73 C94.06,360.11 93.77,359.73 93.43,359.56 C91.02,360.26 87.18,363.99 86.62,365.64 C86.45,366.26 86.46,367.00 86.64,367.48 C87.17,368.53 92.29,368.92 96.05,368.20 C98.71,367.65 102.07,365.95 103.11,364.56 C104.15,363.11 103.86,360.67 102.42,359.75 C100.89,358.84 96.10,358.32 93.68,358.93 C91.02,359.65 87.17,363.66 86.39,365.49 C86.25,365.82 85.99,366.57 85.61,367.75" fill="none" stroke="rgb(0, 255, 0)" stroke-width="3.41" stroke-opacity="1.00" stroke-linejoin="round"/>
<path d="M93.71,371.46 C93.71,371.46 94.27,371.09 94.27,371.09 C94.27,371.09 94.24,370.85 94.24,370.85 C93.10,371.06 89.96,373.07 87.28,375.71 C83.09,379.86 74.64,390.68 70.67,396.07 C65.09,403.95 44.83,435.46 42.22,440.75 C36.05,453.56 27.11,479.06 26.89,480.27 C26.73,481.17 27.78,482.34 27.85,482.37" fill="none" stroke="rgb(0, 255, 0)" stroke-width="3.41" stroke-opacity="1.00" stroke-linejoin="round"/>
<path d="M92.51,379.48 C93.47,378.44 94.55,377.17 94.79,376.66 C94.89,376.45 94.98,376.08 95.06,375.55 C94.00,375.29 86.25,382.64 80.74,389.38 C75.28,396.23 68.21,405.98 64.56,411.99 C61.47,417.11 56.45,427.37 53.64,434.55 C50.39,443.21 47.78,451.33 45.35,460.09 C42.04,473.32 41.74,475.14 41.70,476.12 C41.70,476.12 41.96,476.21 41.96,476.21 C42.15,476.01 42.27,475.88 42.31,475.82 C42.36,475.76 42.40,475.69 42.42,475.61" fill="none" stroke="rgb(0, 255, 0)" stroke-width="3.41" stroke-opacity="1.00" stroke-linejoin="round"/>
<path d="M43.40,468.60 C42.85,469.02 42.47,469.30 42.24,469.47 C42.02,469.63 41.64,469.90 41.11,470.27 C42.42,467.39 49.80,457.53 55.28,450.78 C60.00,445.21 70.12,434.02 76.04,427.85 C82.86,420.88 90.95,413.87 95.77,410.53 C100.64,407.18 111.33,402.11 119.12,399.12 C125.63,396.71 137.91,392.52 144.53,390.35 C147.63,389.33 150.14,388.31 150.91,387.95" fill="none" stroke="rgb(0, 255, 0)" stroke-width="3.41" stroke-opacity="1.00" stroke-linejoin="round"/>
<path d="M104.12,366.83 C104.12,366.83 102.16,367.10 102.16,367.10 C107.89,365.46 116.30,363.71 125.00,362.32 C132.33,361.33 147.55,359.68 155.68,359.03 C163.83,358.59 178.25,358.16 186.39,358.08 C193.82,358.11 202.30,358.73 212.56,359.72 C228.42,361.54 257.73,368.23 258.33,369.61 C254.98,370.07 248.95,371.22 245.73,372.02 C234.41,374.91 225.54,375.99 224.36,376.26 C224.18,376.30 223.86,376.36 223.39,376.43" fill="none" stroke="rgb(0, 255, 0)" stroke-width="3.41" stroke-opacity="1.00" stroke-linejoin="round"/>
<path d="M200.92,380.67 C201.02,380.64 201.64,380.49 202.03,380.45 C206.92,379.98 238.91,373.77 242.45,372.38 C245.80,371.04 246.46,370.51 247.06,369.65 C247.06,369.65 246.43,369.14 246.43,369.14" fill="none" stroke="rgb(0, 255, 0)" stroke-width="3.41" stroke-opacity="1.00" stroke-linejoin="round"/>
<path d="M199.45,377.63 C199.37,377.70 199.31,377.77 199.27,377.82 C199.23,377.88 199.15,378.01 199.03,378.20 C199.17,378.23 199.37,378.21 199.63,378.12 C205.83,376.07 218.58,372.43 223.23,371.53 C229.50,370.33 241.26,369.37 247.90,369.40 C250.94,369.41 252.48,369.54 253.28,369.81 C253.28,369.81 253.17,369.98 253.17,369.98" fill="none" stroke="rgb(0, 255, 0)" stroke-width="3.41" stroke-opacity="1.00" stroke-linejoin="round"/>
<path d="M95.37,378.01 C95.37,378.01 95.58,377.30 95.58,377.30 C95.58,377.30 96.92,376.96 96.92,376.96 C97.25,377.31 100.63,390.23 102.44,397.08 C104.19,403.91 107.79,417.57 110.33,423.04 C111.60,425.72 129.10,457.26 132.30,461.95 C134.27,464.83 136.55,467.54 139.61,470.99 C142.93,474.72 146.70,477.85 147.07,478.27 C147.56,478.82 149.47,481.55 149.57,481.64 C149.64,481.70 149.78,481.77 149.99,481.86" fill="none" stroke="rgb(0, 255, 0)" stroke-width="3.41" stroke-opacity="1.00" stroke-linejoin="round"/>
<path d="M99.88,378.74 C100.08,378.80 100.58,379.49 100.80,379.78 C105.91,386.21 111.86,395.90 114.97,403.37 C116.35,406.71 118.26,412.72 118.67,414.57 C119.14,416.75 120.36,425.38 120.45,425.90 C121.12,429.77 124.39,436.34 125.10,437.73 C126.19,439.87 128.03,444.13 128.84,446.20 C130.11,449.39 135.08,454.91 135.88,455.97 C138.67,459.72 150.90,482.15 151.56,482.58 C151.72,482.68 152.01,482.75 152.43,482.79" fill="none" stroke="rgb(0, 255, 0)" stroke-width="3.41" stroke-opacity="1.00" stroke-linejoin="round"/>
<path d="M152.08,488.46 C152.12,488.99 152.32,489.70 152.36,489.97 C152.45,490.67 152.12,492.30 151.59,493.03 C150.44,494.51 144.42,496.13 143.67,496.95 C143.71,498.32 147.19,499.55 148.84,498.96 C150.63,498.25 152.72,495.13 152.59,493.12 C152.48,491.85 150.38,486.47 149.83,485.05" fill="none" stroke="rgb(0, 255, 0)" stroke-width="3.41" stroke-opacity="1.00" stroke-linejoin="round"/>
<path d="M88.62,384.64 C88.62,384.64 88.42,384.52 88.42,384.52 C88.42,384.52 87.95,384.56 87.95,384.56 C86.95,385.97 86.28,387.04 85.62,388.34 C83.15,393.26 79.41,402.46 76.36,410.87 C72.58,422.16 71.45,426.91 71.51,429.15 C71.51,429.15 71.92,429.51 71.92,429.51 C71.92,429.51 72.21,429.37 72.21,429.37" fill="none" stroke="rgb(0, 255, 0)" stroke-width="3.41" stroke-opacity="1.00" stroke-linejoin="round"/>
<path d="M112.60,379.48 C112.60,379.48 112.14,378.98 112.14,378.98 C112.85,378.61 118.26,377.56 121.28,376.98 C126.74,375.95 136.92,374.81 144.57,374.54 C147.48,374.49 153.57,374.43 156.60,374.71 C159.22,374.97 165.52,376.45 167.91,376.86 C168.61,376.97 169.30,377.08 170.00,377.19" fill="none" stroke="rgb(0, 255, 0)" stroke-width="3.41" stroke-opacity="1.00" stroke-linejoin="round"/>
<path d="M145.98,372.11 C145.98,372.11 142.22,371.65 142.22,371.65 C144.67,371.05 152.16,369.81 154.72,369.46 C166.40,367.90 205.11,365.71 211.36,365.87 C214.69,365.98 218.61,366.90 219.27,367.86 C219.27,367.86 218.81,368.70 218.81,368.70" fill="none" stroke="rgb(0, 255, 0)" stroke-width="3.41" stroke-opacity="1.00" stroke-linejoin="round"/>
<path d="M122.62,388.19 C122.62,388.19 119.69,388.44 119.69,388.44 C122.43,387.34 139.13,384.04 141.28,383.83 C147.75,383.22 153.81,383.56 154.84,384.08" fill="none" stroke="rgb(0, 255, 0)" stroke-width="3.41" stroke-opacity="1.00" stroke-linejoin="round"/>
</g>
</svg>
