<?xml version="1.0" encoding="UTF-8" standalone="no"?>
<!DOCTYPE svg PUBLIC "-//W3C//DTD SVG 1.1//EN" "http://www.w3.org/Graphics/SVG/1.1/DTD/svg11.dtd">
<svg width="128.40" height="181.68" viewBox="0.00 0.00 535.00 757.00" xmlns="http://www.w3.org/2000/svg" xmlns:xlink="http://www.w3.org/1999/xlink">
<g stroke-linecap="round" transform="translate(44.00, 155.00)" id="211_비-1">
<path d="M141.61,-29.71 C141.61,-29.71 141.47,-29.72 141.47,-29.72 C141.47,-29.72 141.30,-29.98 141.30,-29.98 C141.30,-29.98 141.37,-30.58 141.37,-30.58 C141.37,-30.58 141.49,-30.50 141.49,-30.50 C141.49,-30.50 141.98,-25.30 141.98,-25.30 C142.84,-25.15 144.30,-26.38 144.38,-27.53 C144.42,-28.71 143.22,-29.79 142.50,-29.81 C142.50,-29.81 142.20,-29.61 142.20,-29.61 C142.20,-29.61 142.12,-29.32 142.12,-29.32" fill="none" stroke="rgb(0, 0, 255)" stroke-width="2.53" stroke-opacity="1.00" stroke-linejoin="round"/>
<path d="M141.39,-16.84 C141.39,-16.84 141.13,-18.19 141.13,-18.19 C141.13,-18.19 142.52,-15.08 142.52,-15.08 C143.46,-15.54 143.86,-15.92 143.85,-16.50 C143.81,-17.76 143.17,-18.58 142.73,-18.91 C142.73,-18.91 140.69,-16.38 140.69,-16.38" fill="none" stroke="rgb(0, 0, 255)" stroke-width="2.53" stroke-opacity="1.00" stroke-linejoin="round"/>
<path d="M140.80,-1.49 C140.80,-1.49 141.06,-1.71 141.06,-1.71 C141.06,-1.71 141.14,-2.07 141.14,-2.07 C141.14,-2.07 140.84,-2.00 140.84,-2.00 C140.84,-2.00 142.23,2.97 142.23,2.97 C143.09,2.57 143.70,1.45 143.60,-0.03 C143.52,-1.19 142.95,-2.60 142.51,-3.14 C142.51,-3.14 142.24,-3.20 142.24,-3.20 C142.22,-3.02 142.22,-2.91 142.22,-2.87 C142.22,-2.84 142.23,-2.82 142.24,-2.82" fill="none" stroke="rgb(0, 0, 255)" stroke-width="2.53" stroke-opacity="1.00" stroke-linejoin="round"/>
<path d="M142.86,11.83 C142.91,10.76 142.92,10.06 142.89,9.74 C142.82,8.90 142.35,8.06 141.91,7.62 C141.91,7.62 140.34,10.93 140.34,10.93 C140.34,10.93 140.30,5.70 140.30,5.70 C140.20,6.57 140.17,7.07 140.23,7.56 C140.26,7.76 140.28,7.96 140.31,8.16" fill="none" stroke="rgb(0, 0, 255)" stroke-width="2.53" stroke-opacity="1.00" stroke-linejoin="round"/>
<path d="M139.03,20.80 C138.95,20.39 138.89,20.10 138.84,19.91 C138.74,19.53 138.61,19.16 138.51,18.78 C138.47,18.64 138.43,18.49 138.40,18.33 C138.40,18.33 140.10,24.62 140.10,24.62 C140.80,24.02 141.17,23.51 141.18,22.62 C141.21,19.50 140.71,18.02 140.51,17.65 C140.48,17.72 140.46,17.76 140.45,17.78 C140.45,17.81 140.45,17.85 140.47,17.90" fill="none" stroke="rgb(0, 0, 255)" stroke-width="2.53" stroke-opacity="1.00" stroke-linejoin="round"/>
<path d="M144.38,37.80 C144.38,37.70 144.44,37.06 144.43,36.91 C144.43,36.81 144.39,36.66 144.32,36.46 C143.88,36.23 143.17,36.14 142.41,36.32 C140.81,36.70 139.80,38.02 139.91,38.68 C141.81,39.42 142.15,36.85 142.14,36.38 C142.14,36.38 141.89,36.08 141.89,36.08 C141.67,36.18 141.57,36.26 141.54,36.39 C141.53,36.46 141.51,36.53 141.50,36.60" fill="none" stroke="rgb(0, 0, 255)" stroke-width="2.53" stroke-opacity="1.00" stroke-linejoin="round"/>
<path d="M140.76,45.88 C140.76,45.88 140.58,46.23 140.58,46.23 C140.58,46.23 140.67,46.17 140.67,46.17 C140.67,46.17 140.59,45.95 140.59,45.95 C140.59,45.95 139.85,45.72 139.85,45.72 C137.81,46.53 138.91,48.44 139.41,48.89 C140.48,49.14 142.69,47.68 143.13,46.14 C143.52,44.59 142.73,43.65 141.68,42.66 C141.53,42.53 141.41,42.42 141.33,42.33 C141.33,42.33 141.58,42.01 141.58,42.01" fill="none" stroke="rgb(0, 0, 255)" stroke-width="2.53" stroke-opacity="1.00" stroke-linejoin="round"/>
<path d="M186.81,-28.71 C186.81,-28.71 187.23,-30.45 187.23,-30.45 C187.23,-30.45 186.38,-24.37 186.38,-24.37 C186.38,-24.37 186.65,-29.27 186.65,-29.27 C186.21,-29.09 185.86,-28.25 185.34,-26.11 C185.00,-24.64 184.86,-24.21 184.78,-24.20" fill="none" stroke="rgb(0, 0, 255)" stroke-width="2.53" stroke-opacity="1.00" stroke-linejoin="round"/>
<path d="M188.87,-14.77 C188.92,-15.37 188.97,-15.96 189.02,-16.56 C189.08,-17.31 189.10,-17.81 189.08,-18.05 C189.07,-18.24 189.01,-18.50 188.91,-18.85 C188.91,-18.85 188.38,-14.67 188.38,-14.67 C189.00,-14.76 189.72,-17.97 189.92,-19.96 C189.93,-20.00 189.90,-20.12 189.89,-20.08 C189.88,-19.97 189.87,-19.89 189.86,-19.84 C189.86,-19.79 189.85,-19.70 189.84,-19.56" fill="none" stroke="rgb(0, 0, 255)" stroke-width="2.53" stroke-opacity="1.00" stroke-linejoin="round"/>
<path d="M190.61,-7.28 C190.63,-7.48 190.63,-7.67 190.59,-7.86 C190.36,-8.87 189.81,-9.80 189.18,-10.32 C186.57,-9.66 187.29,-6.55 187.56,-6.07 C188.46,-6.50 188.95,-6.96 189.11,-7.82 C189.39,-9.31 189.41,-10.53 189.22,-10.87 C189.22,-10.87 188.96,-10.85 188.96,-10.85 C188.88,-10.65 188.83,-10.52 188.82,-10.48 C188.80,-10.43 188.79,-10.40 188.80,-10.37" fill="none" stroke="rgb(0, 0, 255)" stroke-width="2.53" stroke-opacity="1.00" stroke-linejoin="round"/>
<path d="M191.45,5.60 C191.45,5.60 190.67,3.07 190.67,3.07 C189.47,3.24 187.36,8.46 187.71,9.64 C187.74,9.72 187.83,9.92 187.99,10.23 C190.39,8.80 189.14,5.38 188.81,4.94 C188.29,5.68 187.99,6.15 187.89,6.35 C187.80,6.55 187.78,6.77 187.84,7.01" fill="none" stroke="rgb(0, 0, 255)" stroke-width="2.53" stroke-opacity="1.00" stroke-linejoin="round"/>
<path d="M187.99,17.95 C187.99,17.95 187.46,16.85 187.46,16.85 C187.46,16.85 186.99,20.16 186.99,20.16 C187.91,20.04 188.76,18.99 188.97,17.35 C189.11,16.27 188.85,14.97 188.67,14.97 C188.67,14.97 188.14,16.36 188.14,16.36" fill="none" stroke="rgb(0, 0, 255)" stroke-width="2.53" stroke-opacity="1.00" stroke-linejoin="round"/>
<path d="M186.44,30.09 C186.44,30.09 185.64,37.97 185.64,37.97 C186.70,38.17 187.74,37.34 188.36,35.36 C188.81,33.91 189.11,31.42 189.10,30.35 C189.10,30.35 188.93,30.22 188.93,30.22 C188.93,30.22 188.69,30.93 188.69,30.93" fill="none" stroke="rgb(0, 0, 255)" stroke-width="2.53" stroke-opacity="1.00" stroke-linejoin="round"/>
<path d="M186.88,45.99 C186.86,44.74 186.73,43.99 186.41,43.67 C186.35,43.61 186.25,43.53 186.09,43.44 C185.38,44.35 185.11,44.94 185.27,45.54 C185.59,46.66 187.45,47.77 188.72,47.44 C189.53,47.20 190.68,46.27 190.90,45.59 C192.10,41.47 187.76,42.47 187.29,42.73 C187.29,42.73 186.95,43.37 186.95,43.37" fill="none" stroke="rgb(0, 0, 255)" stroke-width="2.53" stroke-opacity="1.00" stroke-linejoin="round"/>
<path d="M189.17,53.92 C189.17,54.46 189.03,55.39 188.93,56.07 C188.66,58.66 190.27,61.45 191.46,61.94 C192.36,61.14 192.65,60.63 192.25,59.80 C191.35,57.91 188.13,53.83 188.26,53.85" fill="none" stroke="rgb(0, 0, 255)" stroke-width="2.53" stroke-opacity="1.00" stroke-linejoin="round"/>
<path d="M222.85,-31.85 C222.85,-31.85 222.98,-32.49 222.98,-32.49 C223.08,-32.37 222.94,-30.66 222.83,-29.34 C222.74,-27.43 222.96,-25.89 223.30,-25.33 C223.58,-25.93 223.84,-27.76 223.93,-28.46 C224.03,-29.25 224.22,-29.89 224.38,-30.19 C224.38,-30.19 224.52,-30.21 224.52,-30.21 C224.52,-30.21 225.13,-22.07 225.13,-22.07" fill="none" stroke="rgb(0, 0, 255)" stroke-width="2.53" stroke-opacity="1.00" stroke-linejoin="round"/>
<path d="M226.76,-15.99 C226.76,-16.22 226.76,-16.37 226.76,-16.42 C226.76,-16.47 226.76,-16.49 226.75,-16.50 C226.75,-16.50 226.96,-12.27 226.96,-12.27 C226.96,-12.27 226.91,-16.59 226.91,-16.59 C226.91,-16.59 226.31,-16.50 226.31,-16.50 C226.31,-16.50 226.09,-15.95 226.09,-15.95" fill="none" stroke="rgb(0, 0, 255)" stroke-width="2.53" stroke-opacity="1.00" stroke-linejoin="round"/>
<path d="M229.42,-3.96 C229.42,-3.96 227.94,-6.96 227.94,-6.96 C226.14,-6.70 226.00,-3.07 226.55,-2.40 C227.42,-2.71 227.82,-3.00 227.80,-3.59 C227.76,-4.63 227.57,-5.60 227.41,-5.78 C227.50,-5.58 227.56,-5.43 227.59,-5.34 C227.61,-5.24 227.77,-3.88 227.85,-3.22" fill="none" stroke="rgb(0, 0, 255)" stroke-width="2.53" stroke-opacity="1.00" stroke-linejoin="round"/>
<path d="M229.05,5.04 C229.05,5.04 226.77,4.23 226.77,4.23 C224.92,6.46 226.38,9.50 226.88,10.09 C227.94,10.02 228.70,9.41 229.29,7.99 C229.55,7.32 229.86,6.49 229.94,6.48 C229.95,6.48 229.98,6.47 230.02,6.45" fill="none" stroke="rgb(0, 0, 255)" stroke-width="2.53" stroke-opacity="1.00" stroke-linejoin="round"/>
<path d="M231.34,16.74 C231.22,16.52 231.08,16.35 230.91,16.22 C230.74,16.10 230.31,15.85 229.61,15.46 C229.39,15.55 227.19,19.22 229.83,20.37 C230.82,20.04 231.84,17.88 232.44,16.03 C232.61,15.49 232.85,14.60 233.16,13.35" fill="none" stroke="rgb(0, 0, 255)" stroke-width="2.53" stroke-opacity="1.00" stroke-linejoin="round"/>
<path d="M230.56,26.70 C230.56,26.70 230.24,25.67 230.24,25.67 C230.24,25.67 230.12,25.60 230.12,25.60 C230.12,25.60 230.16,27.75 230.16,27.75 C230.99,27.99 231.74,27.59 232.36,26.39 C232.40,26.33 232.60,25.87 232.97,25.01 C233.03,24.88 233.07,24.80 233.11,24.77 C233.11,24.77 233.04,29.95 233.04,29.95" fill="none" stroke="rgb(0, 0, 255)" stroke-width="2.53" stroke-opacity="1.00" stroke-linejoin="round"/>
<path d="M232.96,35.04 C232.96,35.04 232.36,35.21 232.36,35.21 C232.36,35.21 231.87,38.54 231.87,38.54 C231.87,38.54 232.61,35.37 232.61,35.37 C232.61,35.37 232.13,35.43 232.13,35.43 C232.13,35.43 231.62,36.53 231.62,36.53" fill="none" stroke="rgb(0, 0, 255)" stroke-width="2.53" stroke-opacity="1.00" stroke-linejoin="round"/>
<path d="M231.11,47.25 C231.11,47.25 231.24,46.52 231.24,46.52 C230.50,49.71 232.17,50.54 232.57,50.55 C233.04,49.59 232.95,48.55 232.15,47.23 C231.64,46.39 230.92,45.55 230.36,45.02" fill="none" stroke="rgb(0, 0, 255)" stroke-width="2.53" stroke-opacity="1.00" stroke-linejoin="round"/>
</g>
</svg>
