<?xml version="1.0" encoding="UTF-8" standalone="no"?>
<!DOCTYPE svg PUBLIC "-//W3C//DTD SVG 1.1//EN" "http://www.w3.org/Graphics/SVG/1.1/DTD/svg11.dtd">
<svg width="128.40" height="181.68" viewBox="0.00 0.00 535.00 757.00" xmlns="http://www.w3.org/2000/svg" xmlns:xlink="http://www.w3.org/1999/xlink">
<g stroke-linecap="round" transform="translate(44.00, 155.00)" id="211_사람-2">
<path d="M210.98,78.48 C211.15,77.80 211.25,77.35 211.29,77.15 C211.33,76.95 211.36,76.72 211.39,76.46 C211.39,76.46 211.11,76.19 211.11,76.19 C210.12,76.17 207.42,77.60 204.60,79.48 C201.71,81.44 198.51,84.25 197.63,86.40 C197.21,87.47 196.83,89.77 196.82,91.05 C196.85,92.86 199.98,98.07 201.77,99.09 C203.18,99.83 208.75,101.11 211.70,101.49 C214.77,101.85 220.29,101.42 223.07,100.50 C224.44,100.02 226.97,98.68 227.90,97.92 C228.81,97.12 230.03,95.13 230.32,93.95 C230.63,92.55 230.41,90.33 229.85,88.55 C229.35,87.10 225.56,83.54 222.89,81.87 C221.03,80.74 213.55,77.13 212.22,76.56 C209.61,75.45 207.97,75.46 207.33,76.47 C207.23,76.63 207.17,76.86 207.15,77.16" fill="none" stroke="rgb(255, 0, 255)" stroke-width="2.53" stroke-opacity="1.00" stroke-linejoin="round"/>
<path d="M206.70,103.79 C206.70,103.79 206.59,103.07 206.59,103.07 C206.44,104.04 206.02,106.74 205.96,107.34 C205.71,109.95 206.24,111.20 206.39,111.31" fill="none" stroke="rgb(255, 0, 255)" stroke-width="2.53" stroke-opacity="1.00" stroke-linejoin="round"/>
<path d="M218.14,103.13 C218.14,103.13 218.98,101.67 218.98,101.67 C219.08,102.05 219.40,107.23 219.39,107.49 C219.38,107.87 219.31,108.40 219.17,109.08" fill="none" stroke="rgb(255, 0, 255)" stroke-width="2.53" stroke-opacity="1.00" stroke-linejoin="round"/>
<path d="M200.69,102.94 C200.97,102.56 201.14,102.33 201.22,102.24 C201.29,102.16 201.37,102.10 201.45,102.06 C201.45,102.06 201.51,102.15 201.51,102.15 C200.06,104.57 191.94,112.11 188.73,114.13 C176.98,120.97 163.09,129.07 162.05,129.76 C161.72,129.98 161.56,130.14 161.56,130.25 C161.56,130.25 161.55,130.40 161.55,130.40 C161.55,130.40 161.65,130.47 161.65,130.47" fill="none" stroke="rgb(255, 0, 255)" stroke-width="2.53" stroke-opacity="1.00" stroke-linejoin="round"/>
<path d="M168.74,138.21 C168.74,138.21 168.62,138.10 168.62,138.10 C171.18,136.47 176.51,133.53 178.34,132.47 C187.77,126.81 195.69,122.48 196.53,122.30 C196.90,122.58 194.84,136.02 194.67,146.27 C194.56,151.19 194.66,151.76 194.96,152.29 C203.55,154.54 225.09,153.70 226.68,153.16 C227.10,152.52 224.57,130.43 224.44,128.81 C224.21,126.00 224.07,118.95 224.33,116.56 C224.36,116.15 224.23,115.42 224.16,115.09 C224.24,115.04 235.06,122.92 238.59,124.27 C240.25,124.89 247.16,126.67 248.70,126.95 C248.70,126.95 248.83,126.85 248.83,126.85 C248.83,126.85 248.49,126.70 248.49,126.70" fill="none" stroke="rgb(255, 0, 255)" stroke-width="2.53" stroke-opacity="1.00" stroke-linejoin="round"/>
<path d="M225.78,100.99 C225.78,100.99 225.45,100.26 225.45,100.26 C225.45,100.26 225.29,100.40 225.29,100.40 C226.01,101.01 249.13,116.63 254.05,120.50 C254.32,120.71 254.44,120.77 254.42,120.68 C254.42,120.68 254.45,120.64 254.45,120.64" fill="none" stroke="rgb(255, 0, 255)" stroke-width="2.53" stroke-opacity="1.00" stroke-linejoin="round"/>
<path d="M165.68,134.16 C165.61,133.81 165.66,132.39 165.65,132.35 C165.37,131.05 163.10,130.33 162.14,130.60 C160.84,131.01 158.89,133.44 158.58,134.98 C158.32,136.49 159.46,139.05 160.63,139.42 C161.33,139.61 162.73,139.32 163.33,138.82 C164.54,137.75 165.02,134.06 164.31,132.53 C164.01,131.91 163.07,131.38 162.42,131.36 C162.03,131.36 161.52,131.63 161.29,131.84" fill="none" stroke="rgb(255, 0, 255)" stroke-width="2.53" stroke-opacity="1.00" stroke-linejoin="round"/>
<path d="M256.73,124.42 C256.73,124.42 257.04,123.98 257.04,123.98 C257.04,123.98 256.67,123.61 256.67,123.61 C254.80,123.57 252.92,127.32 253.36,128.55 C254.43,129.41 256.78,128.37 257.18,127.46 C257.51,126.57 256.73,125.10 255.76,124.71 C253.55,123.92 247.54,124.25 245.90,125.00" fill="none" stroke="rgb(255, 0, 255)" stroke-width="2.53" stroke-opacity="1.00" stroke-linejoin="round"/>
<path d="M194.90,154.48 C194.70,154.52 194.56,154.56 194.47,154.59 C194.37,154.63 194.20,154.71 193.94,154.84 C193.80,155.01 193.69,156.37 193.64,156.93 C193.61,157.18 191.36,176.67 191.24,183.53 C191.20,186.16 191.35,190.61 191.73,192.39 C191.86,192.95 193.08,193.53 197.14,193.05 C204.75,192.07 211.12,191.84 211.36,191.66 C211.23,190.24 208.77,176.98 208.60,171.23 C208.53,168.69 208.45,167.78 208.28,166.81 C208.28,166.81 208.38,167.44 208.38,167.44" fill="none" stroke="rgb(255, 0, 255)" stroke-width="2.53" stroke-opacity="1.00" stroke-linejoin="round"/>
<path d="M209.47,164.96 C209.47,164.96 209.31,164.90 209.31,164.90 C209.31,164.90 215.26,164.53 215.26,164.53 C215.26,164.53 216.80,189.22 216.80,189.22 C216.80,189.22 228.07,186.59 228.07,186.59 C228.07,186.59 227.14,179.13 227.14,179.13" fill="none" stroke="rgb(255, 0, 255)" stroke-width="2.53" stroke-opacity="1.00" stroke-linejoin="round"/>
<path d="M226.59,168.50 C226.27,167.08 225.84,164.79 225.72,163.62 C225.61,162.44 225.59,159.06 225.64,157.69 C225.69,156.64 225.81,153.90 225.76,152.72 C225.55,154.64 225.63,182.01 225.61,182.65 C225.55,184.77 225.33,186.84 225.12,187.65 C225.12,187.65 224.82,187.91 224.82,187.91 C224.82,187.91 224.67,187.89 224.67,187.89" fill="none" stroke="rgb(255, 0, 255)" stroke-width="2.53" stroke-opacity="1.00" stroke-linejoin="round"/>
<path d="M203.83,193.92 C203.83,193.92 203.79,192.69 203.79,192.69 C203.79,192.69 203.24,192.23 203.24,192.23 C201.49,192.58 198.15,195.57 197.95,197.59 C197.89,198.57 200.40,200.27 202.33,199.95 C203.28,199.77 205.06,198.77 205.69,198.03 C206.41,197.14 207.06,195.14 206.95,194.14 C206.82,193.22 205.81,191.87 205.03,191.52 C203.57,190.94 199.64,192.49 199.57,192.81 C199.57,192.81 199.51,192.78 199.51,192.78 C199.51,192.78 199.62,192.77 199.62,192.77" fill="none" stroke="rgb(255, 0, 255)" stroke-width="2.53" stroke-opacity="1.00" stroke-linejoin="round"/>
<path d="M225.70,187.61 C225.69,187.59 225.66,187.57 225.61,187.55 C225.22,187.44 223.94,187.62 223.09,188.06 C221.89,188.69 220.17,190.63 219.50,191.99 C219.18,192.66 219.34,193.34 219.69,194.05 C220.78,194.72 223.85,193.49 225.02,191.65 C225.71,190.50 226.09,188.35 225.79,187.22 C225.19,185.27 221.45,183.54 218.69,183.29 C218.51,183.28 218.32,183.24 218.10,183.17" fill="none" stroke="rgb(255, 0, 255)" stroke-width="2.53" stroke-opacity="1.00" stroke-linejoin="round"/>
<path d="M201.17,88.48 C201.34,87.64 201.51,87.03 201.74,86.74 C202.74,85.58 205.55,84.91 206.94,84.84 C206.94,84.84 207.92,86.36 207.92,86.36" fill="none" stroke="rgb(255, 0, 255)" stroke-width="2.53" stroke-opacity="1.00" stroke-linejoin="round"/>
<path d="M205.19,90.59 C205.19,90.59 204.72,90.38 204.72,90.38 C204.72,90.38 203.09,92.65 203.09,92.65 C203.09,92.65 205.47,92.89 205.47,92.89 C205.69,91.99 204.43,90.43 203.53,90.61 C202.76,90.78 202.12,91.37 202.14,91.76 C202.14,91.76 202.20,91.80 202.20,91.80" fill="none" stroke="rgb(255, 0, 255)" stroke-width="2.53" stroke-opacity="1.00" stroke-linejoin="round"/>
<path d="M213.09,83.50 C213.10,83.48 213.14,83.48 213.21,83.51 C213.51,83.72 214.02,84.31 213.74,84.95 C213.61,85.24 211.41,89.21 211.16,89.78 C211.08,89.95 210.99,90.22 210.87,90.58" fill="none" stroke="rgb(255, 0, 255)" stroke-width="2.53" stroke-opacity="1.00" stroke-linejoin="round"/>
<path d="M213.16,90.22 C213.16,90.22 213.08,89.76 213.08,89.76 C212.70,89.95 212.46,90.09 212.38,90.15 C212.33,90.20 212.09,90.76 212.03,90.88 C212.00,90.95 211.95,91.10 211.87,91.33 C212.69,91.94 213.78,92.24 215.39,92.27 C215.67,92.28 215.70,92.21 215.71,92.23 C215.68,92.23 215.68,92.22 215.71,92.19 C215.75,92.14 215.88,92.00 216.11,91.77" fill="none" stroke="rgb(255, 0, 255)" stroke-width="2.53" stroke-opacity="1.00" stroke-linejoin="round"/>
<path d="M217.22,87.63 C217.21,87.42 217.20,87.26 217.18,87.17 C217.15,87.08 217.10,86.91 217.00,86.68 C219.53,86.17 221.02,86.01 221.78,86.22 C222.22,86.33 222.48,86.58 222.64,86.88" fill="none" stroke="rgb(255, 0, 255)" stroke-width="2.53" stroke-opacity="1.00" stroke-linejoin="round"/>
<path d="M219.65,91.99 C219.65,91.99 220.25,90.47 220.25,90.47 C220.25,90.47 219.94,90.37 219.94,90.37 C219.94,90.37 218.67,91.39 218.67,91.39 C218.67,91.39 220.35,92.05 220.35,92.05 C220.35,92.05 220.78,91.03 220.78,91.03 C219.97,90.43 219.19,90.31 218.34,90.78 C217.77,91.09 217.26,91.63 216.95,92.13" fill="none" stroke="rgb(255, 0, 255)" stroke-width="2.53" stroke-opacity="1.00" stroke-linejoin="round"/>
<path d="M206.63,99.00 C206.54,98.98 206.47,98.96 206.43,98.94 C206.39,98.92 206.32,98.86 206.21,98.77 C206.21,98.77 206.28,98.48 206.28,98.48 C206.31,98.40 209.48,98.61 212.77,97.98 C214.87,97.58 215.45,97.44 215.76,97.31 C215.23,97.24 213.22,96.97 211.75,96.76 C209.32,96.43 208.23,96.17 207.49,95.82 C207.49,95.82 217.57,94.67 217.57,94.67 C217.57,94.67 209.94,98.12 209.94,98.12 C210.66,97.60 213.21,96.84 214.20,96.53 C215.70,96.05 216.86,95.43 216.96,95.18" fill="none" stroke="rgb(255, 0, 255)" stroke-width="2.53" stroke-opacity="1.00" stroke-linejoin="round"/>
<path d="M200.91,79.19 C200.94,79.09 200.96,79.02 200.97,78.98 C200.98,78.95 201.00,78.90 201.04,78.82 C200.83,78.84 200.45,79.15 199.95,79.88 C198.10,82.55 197.18,84.48 197.27,84.60 C197.43,84.68 198.14,84.25 198.84,83.59 C199.00,83.44 199.19,83.23 199.40,82.97" fill="none" stroke="rgb(255, 0, 255)" stroke-width="2.53" stroke-opacity="1.00" stroke-linejoin="round"/>
<path d="M202.24,78.37 C202.24,78.37 202.75,77.29 202.75,77.29 C200.65,80.93 198.46,85.18 198.20,85.64 C197.97,86.04 197.39,87.02 196.46,88.57 C197.12,87.57 198.53,85.45 199.28,84.31 C199.94,83.34 201.54,80.96 201.97,80.31 C202.72,79.16 203.96,77.19 203.94,77.20 C203.94,77.20 199.56,84.32 199.56,84.32 C199.56,84.32 205.54,74.70 205.54,74.70 C205.54,74.70 202.14,81.62 202.14,81.62 C202.14,81.62 206.54,75.20 206.54,75.20 C206.54,75.20 205.10,80.41 205.10,80.41 C205.10,80.41 208.55,75.98 208.55,75.98 C208.55,75.98 207.90,80.20 207.90,80.20 C207.90,80.20 210.45,74.97 210.45,74.97 C210.45,74.97 209.41,80.23 209.41,80.23 C209.41,80.23 212.05,74.63 212.05,74.63 C212.05,74.63 211.37,80.18 211.37,80.18 C211.37,80.18 213.15,76.10 213.15,76.10 C213.15,76.10 212.31,80.37 212.31,80.37 C212.31,80.37 214.84,75.40 214.84,75.40 C214.84,75.40 214.63,79.37 214.63,79.37 C214.63,79.37 215.51,78.03 215.51,78.03" fill="none" stroke="rgb(255, 0, 255)" stroke-width="2.53" stroke-opacity="1.00" stroke-linejoin="round"/>
<path d="M216.44,76.16 C216.44,76.16 216.44,75.54 216.44,75.54 C216.32,75.79 216.03,77.04 215.89,78.09 C215.74,79.10 215.71,80.14 215.77,80.35 C215.77,80.35 217.68,77.31 217.68,77.31 C217.68,77.31 218.21,80.72 218.21,80.72 C218.21,80.72 219.70,78.45 219.70,78.45 C219.70,78.45 219.82,81.33 219.82,81.33 C219.82,81.33 221.48,78.88 221.48,78.88 C221.48,78.88 221.84,80.55 221.84,80.55 C222.34,80.24 223.06,81.53 223.52,83.60 C223.57,83.78 223.65,83.91 223.75,83.99" fill="none" stroke="rgb(255, 0, 255)" stroke-width="2.53" stroke-opacity="1.00" stroke-linejoin="round"/>
</g>
</svg>
