<?xml version="1.0" encoding="UTF-8" standalone="no"?>
<!DOCTYPE svg PUBLIC "-//W3C//DTD SVG 1.1//EN" "http://www.w3.org/Graphics/SVG/1.1/DTD/svg11.dtd">
<svg width="128.40" height="181.68" viewBox="0.00 0.00 535.00 757.00" xmlns="http://www.w3.org/2000/svg" xmlns:xlink="http://www.w3.org/1999/xlink">
<g stroke-linecap="round" transform="translate(44.00, 155.00)" id="211_비-2">
<path d="M-1.83,-32.11 C-2.17,-32.09 -2.40,-32.08 -2.50,-32.08 C-2.81,-32.07 -3.04,-32.08 -3.08,-32.10 C-3.08,-32.10 -4.17,-28.49 -4.17,-28.49 C-1.51,-28.22 -2.35,-30.92 -2.73,-31.36 C-2.73,-31.36 -5.26,-30.04 -5.26,-30.04" fill="none" stroke="rgb(0, 0, 255)" stroke-width="2.53" stroke-opacity="1.00" stroke-linejoin="round"/>
<path d="M-3.23,-20.08 C-3.23,-20.08 -4.73,-21.62 -4.73,-21.62 C-4.73,-21.62 -4.71,-17.93 -4.71,-17.93 C-3.63,-18.57 -3.76,-20.34 -4.44,-21.26 C-5.47,-21.84 -6.82,-20.41 -6.99,-19.69" fill="none" stroke="rgb(0, 0, 255)" stroke-width="2.53" stroke-opacity="1.00" stroke-linejoin="round"/>
<path d="M-3.09,-9.05 C-3.09,-9.05 -3.28,-11.69 -3.28,-11.69 C-5.50,-10.55 -4.04,-7.18 -3.64,-6.73 C-2.32,-7.17 -1.64,-7.79 -1.55,-8.88 C-1.40,-10.83 -2.21,-12.35 -2.72,-12.92 C-2.72,-12.92 -3.82,-12.67 -3.82,-12.67 C-3.95,-12.19 -4.02,-11.90 -4.04,-11.80 C-4.07,-11.70 -4.06,-11.64 -4.04,-11.64" fill="none" stroke="rgb(0, 0, 255)" stroke-width="2.53" stroke-opacity="1.00" stroke-linejoin="round"/>
<path d="M-6.30,2.02 C-6.40,1.82 -6.49,1.67 -6.54,1.58 C-6.77,1.24 -7.00,1.01 -7.06,1.03 C-7.06,1.03 -5.32,6.88 -5.32,6.88 C-4.58,6.61 -4.23,5.43 -4.55,3.60 C-4.86,1.78 -5.58,0.85 -5.69,0.79 C-5.69,0.79 -5.71,0.85 -5.71,0.85" fill="none" stroke="rgb(0, 0, 255)" stroke-width="2.53" stroke-opacity="1.00" stroke-linejoin="round"/>
<path d="M-6.15,16.33 C-6.17,16.24 -6.20,16.16 -6.24,16.11 C-6.28,16.06 -6.39,15.95 -6.56,15.78 C-8.95,18.76 -7.07,20.83 -6.70,21.13 C-6.31,21.24 -5.40,20.77 -5.10,19.98 C-4.78,19.14 -4.84,17.20 -5.05,16.23" fill="none" stroke="rgb(0, 0, 255)" stroke-width="2.53" stroke-opacity="1.00" stroke-linejoin="round"/>
<path d="M-5.15,35.77 C-5.15,35.77 -5.24,35.71 -5.24,35.71 C-5.24,35.71 -5.53,35.76 -5.53,35.76 C-5.53,35.76 -6.65,39.35 -6.65,39.35 C-6.65,39.35 -5.69,38.71 -5.69,38.71 C-5.69,38.71 -6.28,37.26 -6.28,37.26 C-6.28,37.26 -7.36,37.81 -7.36,37.81 C-7.37,38.12 -7.37,38.31 -7.35,38.40 C-7.33,38.49 -7.27,38.59 -7.18,38.70" fill="none" stroke="rgb(0, 0, 255)" stroke-width="2.53" stroke-opacity="1.00" stroke-linejoin="round"/>
<path d="M-0.39,50.01 C-0.39,50.01 -0.90,49.37 -0.90,49.37 C-2.37,49.26 -4.23,51.01 -4.53,52.52 C-4.64,53.21 -4.39,54.49 -4.01,54.87 C-3.07,55.73 0.08,54.14 0.93,52.66 C1.41,51.76 1.46,50.39 1.06,49.49 C0.77,48.87 -1.18,47.55 -3.36,46.33 C-4.92,45.54 -5.24,45.17 -5.32,44.95" fill="none" stroke="rgb(0, 0, 255)" stroke-width="2.53" stroke-opacity="1.00" stroke-linejoin="round"/>
<path d="M36.32,-27.61 C36.32,-27.61 35.63,-28.49 35.63,-28.49" fill="none" stroke="rgb(0, 0, 255)" stroke-width="2.53" stroke-opacity="1.00" stroke-linejoin="round"/>
<path d="M27.09,-28.97 C27.09,-28.97 26.75,-29.60 26.75,-29.60 C26.75,-29.60 26.21,-29.64 26.21,-29.64 C26.21,-29.64 25.11,-26.01 25.11,-26.01 C25.11,-26.01 27.01,-29.67 27.01,-29.67 C27.01,-29.67 26.90,-29.79 26.90,-29.79 C26.90,-29.79 26.84,-29.62 26.84,-29.62" fill="none" stroke="rgb(0, 0, 255)" stroke-width="2.53" stroke-opacity="1.00" stroke-linejoin="round"/>
<path d="M26.80,-17.57 C26.66,-17.57 26.40,-17.55 26.33,-17.54 C26.30,-17.54 26.29,-17.53 26.29,-17.52 C26.29,-17.52 27.94,-14.53 27.94,-14.53 C28.43,-14.82 28.74,-16.11 28.91,-18.68 C28.93,-19.05 28.94,-19.32 28.94,-19.49" fill="none" stroke="rgb(0, 0, 255)" stroke-width="2.53" stroke-opacity="1.00" stroke-linejoin="round"/>
<path d="M28.79,-7.72 C28.80,-7.95 28.80,-8.11 28.79,-8.20 C28.78,-8.30 28.75,-8.46 28.70,-8.69 C28.70,-8.69 28.09,-8.98 28.09,-8.98 C28.09,-8.98 26.67,-2.84 26.67,-2.84 C27.43,-2.87 27.78,-2.99 28.09,-3.65 C28.87,-5.32 29.55,-7.61 29.91,-9.72 C29.98,-10.16 29.90,-10.22 29.91,-10.31" fill="none" stroke="rgb(0, 0, 255)" stroke-width="2.53" stroke-opacity="1.00" stroke-linejoin="round"/>
<path d="M27.94,3.82 C27.86,3.79 27.78,3.76 27.70,3.73 C27.61,3.70 27.52,3.66 27.43,3.63 C27.28,3.76 27.13,4.18 26.94,5.25 C26.33,8.73 26.49,12.96 27.17,13.92 C27.87,14.79 29.40,14.54 30.03,13.45 C31.37,10.99 29.99,8.90 29.58,8.47 C29.15,8.31 28.84,8.25 28.64,8.29 C28.44,8.33 28.06,8.52 27.51,8.87" fill="none" stroke="rgb(0, 0, 255)" stroke-width="2.53" stroke-opacity="1.00" stroke-linejoin="round"/>
<path d="M26.58,22.86 C26.68,22.04 26.74,21.47 26.76,21.15 C26.82,19.90 26.63,19.00 26.34,18.75 C25.74,19.60 25.42,25.00 26.37,26.72 C27.17,28.10 28.92,27.50 29.38,26.80 C30.95,24.26 31.03,21.89 30.74,21.15 C29.95,21.24 28.75,21.79 27.96,22.57 C27.34,23.18 26.72,24.35 26.60,24.87 C26.59,24.93 26.58,24.98 26.59,25.01" fill="none" stroke="rgb(0, 0, 255)" stroke-width="2.53" stroke-opacity="1.00" stroke-linejoin="round"/>
<path d="M31.41,37.47 C31.44,37.34 31.65,36.75 31.65,36.59 C31.66,36.45 31.64,36.16 31.58,35.74 C31.58,35.74 30.85,35.55 30.85,35.55 C29.19,36.13 27.54,38.64 27.97,40.15 C29.03,40.16 29.63,39.99 30.15,39.39 C31.27,38.08 31.84,35.89 31.41,34.65 C30.26,34.68 29.58,35.16 29.14,36.28 C29.09,36.41 29.05,36.54 29.03,36.64" fill="none" stroke="rgb(0, 0, 255)" stroke-width="2.53" stroke-opacity="1.00" stroke-linejoin="round"/>
<path d="M29.86,54.74 C29.86,54.74 29.55,54.78 29.55,54.78 C29.62,55.05 29.95,55.70 30.28,56.19 C30.82,56.95 32.47,57.08 33.36,56.09 C34.39,54.88 34.35,51.87 33.07,50.82 C32.38,50.27 31.71,49.87 31.05,49.63 C30.53,49.44 29.00,49.24 29.03,49.24" fill="none" stroke="rgb(0, 0, 255)" stroke-width="2.53" stroke-opacity="1.00" stroke-linejoin="round"/>
<path d="M59.82,-31.22 C59.82,-31.22 59.49,-31.11 59.49,-31.11 C59.49,-31.11 61.01,-27.30 61.01,-27.30 C62.06,-27.75 62.50,-28.08 62.65,-28.81 C62.98,-30.32 63.09,-31.29 63.10,-32.38 C63.10,-32.39 63.10,-32.42 63.10,-32.41" fill="none" stroke="rgb(0, 0, 255)" stroke-width="2.53" stroke-opacity="1.00" stroke-linejoin="round"/>
<path d="M63.36,-20.64 C63.27,-20.61 63.20,-20.60 63.15,-20.61 C63.11,-20.61 63.03,-20.63 62.92,-20.66 C62.92,-20.66 62.85,-22.13 62.85,-22.13 C62.85,-22.13 62.89,-15.59 62.89,-15.59 C63.88,-15.60 64.34,-18.23 64.14,-19.53 C63.92,-20.91 63.28,-21.77 62.95,-22.04 C62.95,-22.04 62.46,-22.07 62.46,-22.07 C62.46,-22.07 62.40,-21.98 62.40,-21.98" fill="none" stroke="rgb(0, 0, 255)" stroke-width="2.53" stroke-opacity="1.00" stroke-linejoin="round"/>
<path d="M61.51,-5.99 C61.47,-6.10 61.44,-6.18 61.42,-6.24 C61.41,-6.29 61.38,-6.38 61.35,-6.53 C61.35,-6.53 61.46,-6.64 61.46,-6.64 C61.46,-6.64 63.82,-0.83 63.82,-0.83 C64.46,-1.29 64.76,-1.73 64.67,-2.57 C64.48,-4.31 63.95,-5.77 63.15,-6.93 C63.15,-6.93 62.56,-7.06 62.56,-7.06 C62.54,-6.94 62.52,-6.89 62.51,-6.90 C62.50,-6.91 62.51,-6.86 62.52,-6.76 C62.66,-5.99 62.79,-5.22 62.92,-4.44" fill="none" stroke="rgb(0, 0, 255)" stroke-width="2.53" stroke-opacity="1.00" stroke-linejoin="round"/>
<path d="M62.62,2.90 C62.62,2.90 62.02,2.36 62.02,2.36 C61.89,2.88 61.89,3.74 62.06,6.08 C62.32,9.51 63.46,12.48 64.21,12.99 C65.44,12.33 65.95,8.34 65.86,7.15 C65.82,6.70 65.72,6.11 65.56,5.39 C65.56,5.38 65.53,5.36 65.53,5.37" fill="none" stroke="rgb(0, 0, 255)" stroke-width="2.53" stroke-opacity="1.00" stroke-linejoin="round"/>
<path d="M65.17,16.37 C65.14,16.13 65.11,15.97 65.08,15.88 C65.05,15.79 64.97,15.65 64.85,15.46 C64.85,15.46 64.31,15.37 64.31,15.37 C62.99,15.93 62.35,18.61 63.11,19.19 C63.69,19.58 64.81,18.92 64.97,17.91 C65.09,16.91 64.28,15.08 63.60,14.74 C62.97,14.46 62.01,15.00 61.99,15.02" fill="none" stroke="rgb(0, 0, 255)" stroke-width="2.53" stroke-opacity="1.00" stroke-linejoin="round"/>
<path d="M68.60,37.25 C68.60,37.25 67.98,35.81 67.98,35.81 C67.98,35.81 66.47,38.48 66.47,38.48 C67.67,38.55 68.34,38.37 68.84,37.70 C69.83,36.30 69.82,34.00 69.03,33.31 C69.03,33.31 66.53,34.00 66.53,34.00" fill="none" stroke="rgb(0, 0, 255)" stroke-width="2.53" stroke-opacity="1.00" stroke-linejoin="round"/>
<path d="M63.25,46.80 C63.25,46.80 63.23,46.49 63.23,46.49 C63.23,46.49 64.23,49.16 64.23,49.16 C65.47,49.17 67.14,47.25 66.92,45.79 C66.61,44.19 63.32,40.86 62.37,40.39" fill="none" stroke="rgb(0, 0, 255)" stroke-width="2.53" stroke-opacity="1.00" stroke-linejoin="round"/>
</g>
</svg>
