<?xml version="1.0" encoding="UTF-8" standalone="no"?>
<!DOCTYPE svg PUBLIC "-//W3C//DTD SVG 1.1//EN" "http://www.w3.org/Graphics/SVG/1.1/DTD/svg11.dtd">
<svg width="128.40" height="181.68" viewBox="0.00 0.00 535.00 757.00" xmlns="http://www.w3.org/2000/svg" xmlns:xlink="http://www.w3.org/1999/xlink">
<g stroke-linecap="round" transform="translate(44.00, 155.00)" id="211_사람-1">
<path d="M63.88,83.61 C63.88,83.61 63.38,82.70 63.38,82.70 C60.09,84.01 55.35,87.14 53.85,89.35 C52.36,91.62 52.67,95.99 53.54,97.17 C55.38,99.52 60.43,101.99 64.48,103.02 C68.84,104.09 73.73,104.73 76.52,104.54 C78.33,104.38 81.13,103.57 82.47,102.75 C85.05,101.09 88.48,95.25 88.75,93.42 C88.94,91.72 88.02,88.62 86.90,87.32 C85.00,85.20 75.01,81.57 71.25,81.50 C69.05,81.50 65.36,82.02 63.70,82.72 C61.93,83.49 59.64,85.07 58.61,86.14 C56.99,87.88 55.94,89.84 56.02,89.84" fill="none" stroke="rgb(255, 0, 255)" stroke-width="2.53" stroke-opacity="1.00" stroke-linejoin="round"/>
<path d="M65.65,105.42 C65.65,105.42 65.95,104.87 65.95,104.87 C65.95,104.87 66.02,104.94 66.02,104.94 C65.87,105.67 65.39,107.21 65.28,107.79 C65.24,108.00 65.25,108.26 65.30,108.54 C65.30,108.54 65.43,108.56 65.43,108.56 C65.43,108.56 65.65,108.40 65.65,108.40" fill="none" stroke="rgb(255, 0, 255)" stroke-width="2.53" stroke-opacity="1.00" stroke-linejoin="round"/>
<path d="M75.73,103.16 C75.73,103.16 75.96,103.27 75.96,103.27 C76.31,105.81 76.47,107.45 76.36,108.03 C76.32,108.22 76.20,108.61 76.00,109.20" fill="none" stroke="rgb(255, 0, 255)" stroke-width="2.53" stroke-opacity="1.00" stroke-linejoin="round"/>
<path d="M62.37,103.46 C62.25,103.60 62.18,103.69 62.14,103.73 C62.02,103.85 61.66,104.06 61.57,104.14 C61.38,104.31 56.27,109.24 54.00,111.00 C51.95,112.56 27.12,127.66 26.96,127.80 C26.96,127.80 27.13,127.81 27.13,127.81" fill="none" stroke="rgb(255, 0, 255)" stroke-width="2.53" stroke-opacity="1.00" stroke-linejoin="round"/>
<path d="M28.10,136.04 C28.10,136.04 28.02,135.64 28.02,135.64 C28.82,135.16 35.12,131.91 38.20,130.15 C45.37,126.06 58.94,120.65 59.77,120.27 C63.40,118.60 64.31,117.50 64.66,116.97 C63.04,120.70 60.85,136.69 60.37,140.38 C59.91,143.61 58.82,150.00 58.60,151.24 C58.95,150.54 65.73,150.61 66.67,150.60 C70.02,150.55 83.56,149.32 85.76,149.47 C85.76,149.47 86.29,148.62 86.29,148.62 C86.29,148.62 86.11,147.44 86.11,147.44" fill="none" stroke="rgb(255, 0, 255)" stroke-width="2.53" stroke-opacity="1.00" stroke-linejoin="round"/>
<path d="M84.54,103.16 C84.42,102.67 84.27,102.13 84.16,101.79 C84.16,101.77 84.14,101.70 84.14,101.73 C84.84,101.97 85.61,102.51 86.84,103.70 C91.57,108.21 99.75,112.83 104.42,115.70 C106.26,116.79 111.89,119.74 114.54,121.11 C117.48,122.57 118.17,122.70 118.31,122.65 C118.24,122.55 118.18,122.49 118.15,122.45 C118.11,122.42 118.04,122.37 117.93,122.29" fill="none" stroke="rgb(255, 0, 255)" stroke-width="2.53" stroke-opacity="1.00" stroke-linejoin="round"/>
<path d="M84.73,112.90 C84.73,112.90 84.56,113.64 84.56,113.64 C86.57,114.87 89.90,117.75 91.58,119.04 C95.58,122.04 103.32,125.19 114.43,128.87 C114.60,128.92 114.78,128.95 114.95,129.02 C114.94,129.03 114.93,129.01 114.92,129.01 C114.85,128.96 114.66,128.84 114.36,128.63" fill="none" stroke="rgb(255, 0, 255)" stroke-width="2.53" stroke-opacity="1.00" stroke-linejoin="round"/>
<path d="M86.43,113.35 C86.35,113.59 86.32,113.78 86.31,113.85 C85.97,117.78 85.87,144.55 85.19,148.60 C85.12,148.95 85.10,149.14 85.11,149.18 C85.13,149.15 85.14,149.14 85.14,149.13 C85.20,148.97 85.26,148.18 85.38,146.19 C85.42,145.44 85.47,144.68 85.51,143.93" fill="none" stroke="rgb(255, 0, 255)" stroke-width="2.53" stroke-opacity="1.00" stroke-linejoin="round"/>
<path d="M28.58,129.36 C28.58,129.36 28.61,129.31 28.61,129.31 C28.44,129.08 27.83,128.62 27.22,128.49 C25.12,128.04 22.48,129.50 21.56,130.94 C20.60,132.51 20.11,135.74 20.81,136.62 C21.57,137.47 24.28,137.08 25.06,135.96 C25.89,134.67 24.86,130.83 23.56,129.26 C22.79,128.34 21.40,127.04 21.28,127.04" fill="none" stroke="rgb(255, 0, 255)" stroke-width="2.53" stroke-opacity="1.00" stroke-linejoin="round"/>
<path d="M122.18,127.22 C122.14,126.85 122.03,125.77 121.90,125.48 C121.82,125.30 121.61,124.97 121.27,124.48 C120.24,123.88 117.44,125.38 116.48,126.82 C115.97,127.63 115.59,129.02 115.75,129.71 C115.96,130.47 117.02,131.35 117.81,131.37 C118.60,131.36 120.25,130.38 120.61,129.60 C121.34,127.92 120.08,124.96 119.44,124.45 C115.29,121.34 111.57,122.89 111.36,123.06" fill="none" stroke="rgb(255, 0, 255)" stroke-width="2.53" stroke-opacity="1.00" stroke-linejoin="round"/>
<path d="M59.60,153.23 C59.58,153.18 59.56,153.12 59.56,153.06 C59.55,153.00 59.54,152.86 59.53,152.62 C59.55,152.73 58.77,159.33 58.34,163.04 C57.81,168.70 56.33,182.44 56.55,185.23 C56.76,187.79 57.14,189.34 57.51,189.42 C58.72,189.51 65.30,188.56 69.63,188.16 C71.05,188.00 72.04,187.56 72.24,186.86 C72.30,186.63 72.43,185.92 72.63,184.73" fill="none" stroke="rgb(255, 0, 255)" stroke-width="2.53" stroke-opacity="1.00" stroke-linejoin="round"/>
<path d="M74.03,158.28 C74.09,157.98 74.15,157.67 74.22,157.36 C74.27,157.09 74.33,156.82 74.39,156.55 C74.41,156.45 74.44,156.35 74.46,156.25 C74.39,156.94 73.55,163.02 73.10,166.34 C72.25,172.96 71.68,183.23 71.76,188.19 C71.85,186.43 72.05,182.74 72.15,180.82 C72.17,180.34 72.18,179.75 72.19,179.03" fill="none" stroke="rgb(255, 0, 255)" stroke-width="2.53" stroke-opacity="1.00" stroke-linejoin="round"/>
<path d="M71.48,156.29 C71.48,156.29 71.44,156.29 71.44,156.29 C71.43,156.28 71.46,156.29 71.47,156.29 C73.38,157.63 74.69,158.28 75.97,158.38 C76.53,158.43 78.00,158.49 78.64,158.69 C80.74,162.27 78.48,182.92 77.95,183.14 C78.35,182.92 80.54,182.82 81.39,182.70 C82.10,182.59 82.98,181.72 83.48,180.95 C83.87,180.29 84.14,179.13 84.47,177.06" fill="none" stroke="rgb(255, 0, 255)" stroke-width="2.53" stroke-opacity="1.00" stroke-linejoin="round"/>
<path d="M84.40,151.79 C84.40,151.79 84.52,147.57 84.52,147.57 C84.65,150.42 84.14,171.09 83.89,174.09 C83.46,178.60 82.79,183.19 82.36,183.77 C82.36,183.77 82.16,183.83 82.16,183.83 C82.16,183.83 82.00,183.60 82.00,183.60" fill="none" stroke="rgb(255, 0, 255)" stroke-width="2.53" stroke-opacity="1.00" stroke-linejoin="round"/>
<path d="M63.92,187.83 C63.91,187.57 63.89,187.39 63.87,187.30 C63.85,187.20 63.79,187.04 63.71,186.83 C63.24,186.86 62.23,187.39 61.55,188.18 C59.77,190.27 59.27,193.86 59.40,194.39 C60.51,194.82 61.17,194.82 61.97,194.22 C63.69,192.91 65.94,189.75 66.07,188.29 C66.15,186.79 64.10,185.82 62.68,186.57 C61.24,187.39 60.80,188.71 60.76,189.72 C60.76,189.72 61.14,190.35 61.14,190.35 C61.14,190.35 61.69,190.43 61.69,190.43" fill="none" stroke="rgb(255, 0, 255)" stroke-width="2.53" stroke-opacity="1.00" stroke-linejoin="round"/>
<path d="M84.14,184.18 C83.66,184.26 83.19,184.33 82.71,184.41 C81.99,184.51 81.51,184.55 81.27,184.52 C81.12,184.50 79.94,184.05 79.64,184.08 C78.82,184.19 76.92,186.36 76.41,188.06 C76.13,189.06 76.15,190.78 76.49,191.47 C76.87,192.15 78.20,192.84 78.94,192.70 C79.77,192.51 81.26,191.05 81.66,189.98 C82.04,188.86 81.87,186.49 81.34,185.57 C80.33,183.91 76.75,182.86 74.47,183.35 C74.16,183.42 73.72,183.57 73.16,183.80" fill="none" stroke="rgb(255, 0, 255)" stroke-width="2.53" stroke-opacity="1.00" stroke-linejoin="round"/>
<path d="M59.46,92.43 C59.46,92.43 59.05,93.09 59.05,93.09 C59.05,93.09 59.06,93.14 59.06,93.14 C59.06,93.14 64.43,92.31 64.43,92.31 C64.73,92.82 64.91,93.22 64.96,93.49 C65.02,93.76 65.03,94.29 65.00,95.09" fill="none" stroke="rgb(255, 0, 255)" stroke-width="2.53" stroke-opacity="1.00" stroke-linejoin="round"/>
<path d="M62.81,96.38 C62.61,96.58 62.28,97.11 62.25,97.42 C62.24,97.55 62.28,97.76 62.37,98.07 C62.37,98.07 63.27,97.58 63.27,97.58 C62.29,97.50 61.58,98.00 61.42,98.99 C61.40,99.17 61.43,99.36 61.51,99.57 C61.51,99.57 61.64,99.58 61.64,99.58" fill="none" stroke="rgb(255, 0, 255)" stroke-width="2.53" stroke-opacity="1.00" stroke-linejoin="round"/>
<path d="M71.26,89.96 C71.26,89.96 71.13,90.01 71.13,90.01 C70.91,90.88 70.77,91.52 70.70,91.94 C70.58,92.74 70.46,93.54 70.34,94.34 C70.30,94.57 70.25,94.68 70.20,94.66" fill="none" stroke="rgb(255, 0, 255)" stroke-width="2.53" stroke-opacity="1.00" stroke-linejoin="round"/>
<path d="M74.21,89.15 C74.21,89.15 73.94,88.50 73.94,88.50 C73.94,88.50 73.76,88.82 73.76,88.82 C74.06,89.14 75.04,89.54 75.42,89.70 C76.22,90.07 77.14,90.85 77.32,91.37 C77.37,91.51 77.41,91.79 77.43,92.21" fill="none" stroke="rgb(255, 0, 255)" stroke-width="2.53" stroke-opacity="1.00" stroke-linejoin="round"/>
<path d="M75.06,95.42 C75.06,95.42 74.45,95.62 74.45,95.62 C74.45,95.62 74.15,95.30 74.15,95.30 C74.15,95.30 73.93,96.56 73.93,96.56 C73.93,96.56 74.98,95.10 74.98,95.10 C74.98,95.10 73.54,96.68 73.54,96.68 C73.54,96.68 73.68,96.78 73.68,96.78" fill="none" stroke="rgb(255, 0, 255)" stroke-width="2.53" stroke-opacity="1.00" stroke-linejoin="round"/>
<path d="M68.86,100.32 C68.86,100.32 68.73,100.09 68.73,100.09 C68.73,100.09 68.69,100.35 68.69,100.35 C69.37,100.63 74.82,100.23 76.13,99.98 C76.36,99.94 76.61,99.84 76.88,99.70 C76.88,99.70 76.94,99.57 76.94,99.57 C76.94,99.57 76.78,99.29 76.78,99.29" fill="none" stroke="rgb(255, 0, 255)" stroke-width="2.53" stroke-opacity="1.00" stroke-linejoin="round"/>
<path d="M60.56,83.91 C60.56,83.91 60.11,83.90 60.11,83.90 C60.11,83.90 59.99,83.35 59.99,83.35 C59.99,83.35 59.84,83.28 59.84,83.28 C59.84,83.28 57.68,88.69 57.68,88.69 C57.68,88.69 58.14,89.15 58.14,89.15 C58.14,89.15 59.11,89.00 59.11,89.00" fill="none" stroke="rgb(255, 0, 255)" stroke-width="2.53" stroke-opacity="1.00" stroke-linejoin="round"/>
<path d="M64.29,82.03 C64.29,82.03 64.15,81.71 64.15,81.71 C64.15,81.71 61.75,87.97 61.75,87.97 C61.75,87.97 64.51,83.44 64.51,83.44 C64.51,83.44 62.88,86.45 62.88,86.45 C63.21,86.72 63.96,86.09 65.46,84.15 C65.94,83.53 66.41,82.90 66.89,82.28 C66.89,82.28 66.41,85.54 66.41,85.54 C67.03,85.37 67.77,84.65 68.93,83.00 C69.10,82.76 69.39,82.34 69.80,81.74 C69.80,81.74 69.26,84.60 69.26,84.60 C69.26,84.60 72.77,80.71 72.77,80.71 C72.77,80.71 71.85,84.61 71.85,84.61 C71.85,84.61 74.68,81.49 74.68,81.49 C74.68,81.49 73.89,84.52 73.89,84.52 C73.89,84.52 76.68,82.34 76.68,82.34 C76.68,82.34 76.33,85.50 76.33,85.50 C76.33,85.50 78.65,83.50 78.65,83.50 C78.65,83.50 78.44,86.13 78.44,86.13 C78.44,86.13 81.65,84.48 81.65,84.48 C81.65,84.48 83.46,86.31 83.46,86.31 C83.46,86.31 82.18,91.40 82.18,91.40 C82.18,91.40 82.30,91.61 82.30,91.61" fill="none" stroke="rgb(255, 0, 255)" stroke-width="2.53" stroke-opacity="1.00" stroke-linejoin="round"/>
</g>
</svg>
