<?xml version="1.0" encoding="UTF-8" standalone="no"?>
<!DOCTYPE svg PUBLIC "-//W3C//DTD SVG 1.1//EN" "http://www.w3.org/Graphics/SVG/1.1/DTD/svg11.dtd">
<svg width="128.40" height="181.68" viewBox="0.00 0.00 535.00 757.00" xmlns="http://www.w3.org/2000/svg" xmlns:xlink="http://www.w3.org/1999/xlink">
<g stroke-linecap="round" transform="translate(44.00, 155.00)" id="211_구름-2">
<path d="M1.75,-55.09 C1.75,-55.09 0.76,-54.04 0.76,-54.04 C0.76,-54.04 0.63,-54.31 0.66,-54.44 C0.68,-54.60 1.95,-57.44 1.95,-58.55 C1.92,-59.93 0.62,-62.52 -0.84,-63.73 C-2.10,-64.74 -5.77,-66.12 -8.51,-65.40 C-10.77,-64.76 -15.08,-60.97 -15.78,-59.25 C-16.44,-57.52 -16.61,-51.47 -15.86,-49.75 C-15.49,-48.94 -13.87,-46.78 -13.16,-46.05 C-12.00,-44.93 -6.51,-44.49 -4.62,-44.18 C-0.98,-43.57 23.67,-39.18 26.83,-38.04 C27.19,-37.96 31.33,-40.60 34.96,-41.91 C36.09,-42.31 46.30,-44.91 46.73,-45.00 C49.91,-45.65 59.14,-45.77 59.93,-45.80 C62.89,-45.93 72.04,-47.74 74.12,-48.22 C77.48,-48.97 84.33,-48.59 85.50,-48.52 C87.33,-48.42 90.24,-49.84 91.20,-51.78 C92.06,-53.63 93.55,-59.46 93.38,-60.55 C93.21,-61.43 92.01,-62.41 88.84,-62.69 C88.02,-62.75 81.51,-62.78 79.62,-62.64 C74.15,-62.20 68.44,-59.17 67.11,-58.86 C66.35,-59.21 65.25,-62.38 64.04,-63.32 C62.90,-64.15 57.53,-65.25 54.12,-65.26 C50.68,-65.24 44.26,-63.85 41.25,-62.59 C35.89,-60.29 31.55,-57.15 31.30,-57.09 C31.14,-57.99 30.05,-59.73 28.71,-60.43 C27.42,-61.06 23.95,-61.30 21.53,-60.94 C19.40,-60.61 13.42,-58.75 10.83,-57.67 C7.97,-56.44 0.69,-52.38 0.27,-52.42 C0.27,-52.42 -1.22,-54.71 -1.22,-54.71 C-1.22,-54.71 -0.59,-54.43 -0.59,-54.43" fill="none" stroke="rgb(0, 255, 0)" stroke-width="2.53" stroke-opacity="1.00" stroke-linejoin="round"/>
</g>
</svg>
