<?xml version="1.0" encoding="UTF-8" standalone="no"?>
<!DOCTYPE svg PUBLIC "-//W3C//DTD SVG 1.1//EN" "http://www.w3.org/Graphics/SVG/1.1/DTD/svg11.dtd">
<svg width="128.40" height="181.68" viewBox="0.00 0.00 535.00 757.00" xmlns="http://www.w3.org/2000/svg" xmlns:xlink="http://www.w3.org/1999/xlink">
<g stroke-linecap="round" transform="translate(44.00, 155.00)" id="212_우산">
<path d="M283.16,-35.66 C283.16,-35.66 282.36,-35.68 282.36,-35.68 C282.36,-35.68 282.30,-35.81 282.30,-35.81 C282.35,-35.75 282.38,-35.29 282.34,-34.44 C282.24,-32.04 283.39,-22.44 283.56,-9.04 C283.55,-0.89 283.60,17.23 283.54,18.04 C283.37,20.00 281.89,26.04 281.34,26.98 C280.65,28.14 278.10,28.92 277.31,29.19 C276.21,29.56 275.73,32.89 276.83,34.03 C278.09,35.26 283.36,36.13 284.93,35.30 C286.44,34.43 288.39,30.59 288.85,28.24 C289.38,25.43 291.34,6.84 291.59,-0.18 C291.70,-3.31 291.78,-21.29 292.91,-25.14 C294.21,-29.43 299.40,-37.22 299.45,-37.30 C299.64,-37.57 299.91,-38.00 300.27,-38.58" fill="none" stroke="rgb(255, 0, 255)" stroke-width="4.00" stroke-opacity="1.00" stroke-linejoin="round"/>
<path d="M275.69,-99.76 C275.69,-99.76 275.96,-101.32 275.96,-101.32 C273.38,-100.68 272.00,-100.22 267.54,-97.80 C255.37,-90.74 230.35,-76.42 220.78,-69.03 C215.06,-64.59 204.59,-55.06 199.85,-49.58 C195.90,-45.00 184.86,-29.71 181.70,-24.59 C179.43,-20.92 173.31,-9.76 169.50,-1.73 C167.47,2.73 162.35,15.19 159.55,22.96 C158.16,26.97 154.49,39.63 152.37,48.67 C151.33,53.42 148.82,68.38 147.76,75.97 C147.06,81.41 145.81,98.70 145.51,105.21 C145.11,119.52 146.59,137.09 146.47,137.89 C146.29,133.75 147.18,120.48 148.35,112.51 C150.47,99.27 155.91,75.82 160.00,61.51 C165.11,45.31 172.46,25.93 178.88,11.95 C182.43,4.65 188.32,-5.77 192.67,-12.52 C197.56,-19.95 202.45,-26.51 207.71,-32.09 C209.10,-33.57 212.82,-36.83 212.81,-36.95 C211.93,-37.29 209.64,-33.81 207.69,-29.38 C203.39,-19.66 201.92,-16.91 201.04,-15.73 C202.47,-19.43 211.35,-29.20 216.68,-33.43 C221.03,-36.86 230.45,-42.39 237.71,-45.91 C243.85,-48.87 258.23,-53.32 262.01,-53.51 C263.96,-53.57 266.54,-53.20 268.29,-52.50 C271.45,-51.20 276.01,-47.46 277.36,-45.35 C279.92,-41.20 283.67,-28.63 283.94,-27.84 C285.18,-24.18 285.96,-23.51 285.96,-23.53" fill="none" stroke="rgb(255, 0, 255)" stroke-width="4.00" stroke-opacity="1.00" stroke-linejoin="round"/>
<path d="M287.24,-105.12 C287.24,-105.12 287.50,-105.80 287.50,-105.80 C286.18,-105.85 285.23,-105.78 283.44,-105.45 C280.43,-104.88 276.15,-102.94 274.69,-100.92 C274.69,-100.92 274.86,-99.44 274.86,-99.44 C276.36,-98.57 277.42,-98.20 278.65,-98.22 C280.90,-98.29 285.69,-99.47 288.09,-100.39 C289.22,-100.84 291.72,-102.54 292.86,-103.62 C293.33,-104.07 293.47,-105.82 293.47,-105.93 C293.35,-107.18 287.68,-109.20 284.07,-109.28 C283.55,-109.29 282.60,-109.22 281.22,-109.06" fill="none" stroke="rgb(255, 0, 255)" stroke-width="4.00" stroke-opacity="1.00" stroke-linejoin="round"/>
<path d="M295.16,-94.01 C295.16,-94.01 294.38,-93.99 294.38,-93.99 C295.11,-93.87 295.60,-93.78 295.86,-93.73 C302.98,-92.33 327.34,-83.73 329.77,-82.39 C332.96,-80.65 339.70,-76.95 341.68,-75.58 C343.45,-74.33 346.46,-71.49 348.42,-68.90 C351.29,-65.02 353.34,-61.82 354.44,-59.32 C355.73,-56.34 357.92,-49.63 358.37,-48.63 C358.89,-47.51 362.60,-43.11 364.65,-39.87 C367.88,-34.72 374.19,-21.68 375.45,-17.47 C376.32,-14.51 386.70,36.77 387.41,40.38 C390.76,58.65 392.99,80.31 394.34,101.13 C394.67,106.15 394.73,106.65 394.91,107.39 C395.18,104.67 395.14,101.00 394.57,98.48 C394.14,96.67 391.52,89.20 390.52,87.16 C388.88,83.84 379.30,70.44 376.28,65.11 C374.03,61.07 372.35,57.80 370.76,54.45" fill="none" stroke="rgb(255, 0, 255)" stroke-width="4.00" stroke-opacity="1.00" stroke-linejoin="round"/>
<path d="M304.89,-40.97 C305.32,-41.68 305.61,-42.12 305.76,-42.30 C306.76,-43.48 312.23,-43.87 315.03,-43.13 C317.90,-42.32 323.28,-38.91 325.79,-36.34 C330.07,-31.87 336.19,-20.01 337.95,-14.23 C340.13,-6.85 345.60,11.67 346.57,14.30 C347.03,15.54 347.44,16.33 347.73,16.66 C347.73,16.66 347.85,16.36 347.85,16.36" fill="none" stroke="rgb(255, 0, 255)" stroke-width="4.00" stroke-opacity="1.00" stroke-linejoin="round"/>
<path d="M340.13,-12.95 C339.90,-14.10 339.22,-17.42 339.17,-17.97 C339.14,-18.36 339.15,-18.98 339.22,-19.81 C340.40,-19.62 343.83,-10.94 348.01,0.87 C354.21,17.89 361.08,33.35 371.51,53.50 C374.95,60.22 380.84,74.52 382.23,77.62 C385.05,83.87 391.13,94.26 393.17,96.95 C393.43,97.30 394.01,98.02 394.92,99.11" fill="none" stroke="rgb(255, 0, 255)" stroke-width="4.00" stroke-opacity="1.00" stroke-linejoin="round"/>
<path d="M332.18,-56.99 C332.18,-56.99 333.37,-57.84 333.37,-57.84 C334.21,-57.88 335.52,-57.33 336.42,-56.38 C338.05,-54.62 340.94,-40.22 341.23,-35.08 C341.31,-33.68 341.33,-25.97 341.10,-23.20 C340.99,-21.88 340.69,-20.38 340.16,-18.23" fill="none" stroke="rgb(255, 0, 255)" stroke-width="4.00" stroke-opacity="1.00" stroke-linejoin="round"/>
<path d="M352.58,-47.11 C352.67,-47.88 352.73,-48.34 352.75,-48.50 C352.77,-48.66 352.80,-48.74 352.82,-48.75 C353.73,-47.43 356.29,-40.57 356.99,-37.72 C358.43,-31.74 359.64,-18.58 358.88,-11.33 C358.20,-5.10 356.31,2.85 355.15,6.77" fill="none" stroke="rgb(255, 0, 255)" stroke-width="4.00" stroke-opacity="1.00" stroke-linejoin="round"/>
<path d="M363.98,-26.17 C363.98,-26.17 364.50,-26.75 364.50,-26.75 C364.50,-26.75 365.04,-26.63 365.04,-26.63 C366.43,-25.04 367.36,-12.51 366.65,-6.51 C366.27,-3.44 364.96,2.04 363.78,5.75 C362.86,8.59 361.49,11.60 359.88,14.67" fill="none" stroke="rgb(255, 0, 255)" stroke-width="4.00" stroke-opacity="1.00" stroke-linejoin="round"/>
<path d="M371.01,-1.10 C371.01,-1.10 370.94,-1.08 370.94,-1.08 C371.34,2.63 370.99,7.95 369.59,12.23 C368.43,15.68 365.37,22.08 364.36,23.70 C364.16,24.01 363.66,24.77 362.86,25.97" fill="none" stroke="rgb(255, 0, 255)" stroke-width="4.00" stroke-opacity="1.00" stroke-linejoin="round"/>
<path d="M372.83,14.28 C373.00,15.51 373.20,17.35 373.26,18.73 C373.52,24.66 371.29,37.26 369.14,44.28 C368.68,45.76 367.92,48.18 367.62,49.12" fill="none" stroke="rgb(255, 0, 255)" stroke-width="4.00" stroke-opacity="1.00" stroke-linejoin="round"/>
<path d="M378.53,35.07 C378.58,35.69 379.94,41.75 380.05,45.12 C380.22,50.75 378.61,64.37 377.65,71.96 C377.36,74.20 377.01,76.40 376.75,78.05" fill="none" stroke="rgb(255, 0, 255)" stroke-width="4.00" stroke-opacity="1.00" stroke-linejoin="round"/>
</g>
</svg>
