<?xml version="1.0" encoding="UTF-8" standalone="no"?>
<!DOCTYPE svg PUBLIC "-//W3C//DTD SVG 1.1//EN" "http://www.w3.org/Graphics/SVG/1.1/DTD/svg11.dtd">
<svg width="128.40" height="181.68" viewBox="0.00 0.00 535.00 757.00" xmlns="http://www.w3.org/2000/svg" xmlns:xlink="http://www.w3.org/1999/xlink">
<g stroke-linecap="round" transform="translate(44.00, 155.00)" id="214_비-1">
<path d="M61.66,30.34 C61.49,29.97 61.51,29.23 61.82,28.56 C62.04,28.11 62.78,26.96 63.12,26.29 C63.01,26.17 55.80,30.21 46.46,42.90 C42.19,48.72 36.18,59.41 35.33,62.00" fill="none" stroke="rgb(0, 0, 255)" stroke-width="4.00" stroke-opacity="1.00" stroke-linejoin="round"/>
<path d="M83.59,28.57 C83.97,27.91 84.21,27.44 84.33,27.18 C84.45,26.92 84.61,26.49 84.80,25.89 C84.80,25.89 84.16,25.49 84.16,25.49 C82.23,26.22 79.02,29.12 75.90,32.42 C73.82,34.69 70.09,39.67 66.37,44.95 C62.66,50.31 59.77,54.84 58.83,56.75" fill="none" stroke="rgb(0, 0, 255)" stroke-width="4.00" stroke-opacity="1.00" stroke-linejoin="round"/>
<path d="M96.23,29.93 C95.62,29.86 94.96,30.13 93.97,30.94 C92.21,32.41 88.92,35.57 85.79,38.91 C82.94,41.99 78.07,47.27 76.05,49.48" fill="none" stroke="rgb(0, 0, 255)" stroke-width="4.00" stroke-opacity="1.00" stroke-linejoin="round"/>
<path d="M132.63,19.17 C130.70,19.28 129.12,19.70 127.29,20.79 C124.11,22.68 119.81,25.94 117.37,27.90 C110.83,33.26 101.82,40.65 99.35,42.69" fill="none" stroke="rgb(0, 0, 255)" stroke-width="4.00" stroke-opacity="1.00" stroke-linejoin="round"/>
<path d="M158.39,18.64 C158.39,18.64 158.22,17.76 158.22,17.76 C158.22,17.76 157.09,17.06 157.09,17.06 C155.03,17.07 151.39,18.96 145.99,22.37 C142.50,24.64 136.91,29.00 134.49,31.10 C131.80,33.45 130.72,34.66 130.12,35.44" fill="none" stroke="rgb(0, 0, 255)" stroke-width="4.00" stroke-opacity="1.00" stroke-linejoin="round"/>
<path d="M191.09,15.76 C188.89,16.06 173.84,21.22 169.91,22.82 C167.86,23.66 161.00,26.71 157.94,28.35 C156.66,29.04 153.75,30.91 152.13,31.96" fill="none" stroke="rgb(0, 0, 255)" stroke-width="4.00" stroke-opacity="1.00" stroke-linejoin="round"/>
<path d="M199.26,21.52 C199.26,21.52 198.91,19.57 198.91,19.57 C196.80,19.06 184.72,24.29 178.32,27.60 C171.34,31.30 163.62,36.23 160.55,38.41" fill="none" stroke="rgb(0, 0, 255)" stroke-width="4.00" stroke-opacity="1.00" stroke-linejoin="round"/>
<path d="M211.85,23.99 C211.85,23.99 211.45,22.98 211.45,22.98 C208.90,22.78 207.00,22.80 205.13,23.20 C201.54,23.99 194.22,26.52 190.53,28.18 C188.05,29.31 181.48,32.74 179.00,34.05" fill="none" stroke="rgb(0, 0, 255)" stroke-width="4.00" stroke-opacity="1.00" stroke-linejoin="round"/>
<path d="M233.25,24.11 C231.33,23.66 229.55,23.74 227.10,24.47 C225.81,24.86 218.75,27.29 215.09,28.77 C210.12,30.79 197.59,37.35 196.10,38.28" fill="none" stroke="rgb(0, 0, 255)" stroke-width="4.00" stroke-opacity="1.00" stroke-linejoin="round"/>
<path d="M267.89,28.99 C265.21,28.70 262.75,28.68 260.62,29.01 C256.53,29.65 242.85,34.48 236.67,37.96 C236.16,38.24 235.24,38.80 233.90,39.62" fill="none" stroke="rgb(0, 0, 255)" stroke-width="4.00" stroke-opacity="1.00" stroke-linejoin="round"/>
<path d="M299.41,34.40 C299.03,33.74 298.40,33.11 297.70,33.06 C296.28,32.97 289.75,35.58 287.26,36.82 C282.14,39.38 274.67,43.98 273.01,45.02" fill="none" stroke="rgb(0, 0, 255)" stroke-width="4.00" stroke-opacity="1.00" stroke-linejoin="round"/>
<path d="M332.40,26.99 C332.40,26.99 332.88,25.47 332.88,25.47 C332.04,25.69 329.11,28.19 324.68,32.35 C318.40,38.31 316.04,41.10 315.26,42.14" fill="none" stroke="rgb(0, 0, 255)" stroke-width="4.00" stroke-opacity="1.00" stroke-linejoin="round"/>
<path d="M370.74,38.22 C370.74,38.22 370.52,37.97 370.52,37.97 C369.19,38.03 365.65,40.65 363.95,42.19 C362.14,43.84 358.49,47.76 357.19,49.53 C355.62,51.69 353.10,56.16 352.83,57.77" fill="none" stroke="rgb(0, 0, 255)" stroke-width="4.00" stroke-opacity="1.00" stroke-linejoin="round"/>
<path d="M396.62,41.57 C396.62,41.57 396.34,41.22 396.34,41.22 C395.48,40.93 389.02,44.24 386.39,45.59 C379.19,49.32 372.10,53.60 362.68,59.74 C352.76,66.31 349.32,69.40 347.00,71.91" fill="none" stroke="rgb(0, 0, 255)" stroke-width="4.00" stroke-opacity="1.00" stroke-linejoin="round"/>
</g>
</svg>
