<?xml version="1.0" encoding="UTF-8" standalone="no"?>
<!DOCTYPE svg PUBLIC "-//W3C//DTD SVG 1.1//EN" "http://www.w3.org/Graphics/SVG/1.1/DTD/svg11.dtd">
<svg width="128.40" height="181.68" viewBox="0.00 0.00 535.00 757.00" xmlns="http://www.w3.org/2000/svg" xmlns:xlink="http://www.w3.org/1999/xlink">
<g stroke-linecap="round" transform="translate(44.00, 155.00)" id="214_비-2">
<path d="M50.60,-91.09 C50.61,-90.33 50.52,-89.55 50.35,-89.28 C50.27,-89.15 50.07,-88.87 50.04,-87.55 C49.98,-85.59 48.63,-68.37 48.33,-62.57 C48.17,-58.23 48.28,-54.43 48.45,-51.72" fill="none" stroke="rgb(0, 0, 255)" stroke-width="4.00" stroke-opacity="1.00" stroke-linejoin="round"/>
<path d="M38.13,-32.58 C38.13,-32.58 37.47,-32.84 37.47,-32.84 C36.98,-31.82 37.00,-28.61 37.19,-23.53 C37.47,-18.25 38.92,-2.35 39.91,1.31 C40.53,3.56 41.27,5.21 41.72,5.49 C41.72,5.49 41.86,5.46 41.86,5.46" fill="none" stroke="rgb(0, 0, 255)" stroke-width="4.00" stroke-opacity="1.00" stroke-linejoin="round"/>
<path d="M80.41,-80.69 C79.61,-80.29 78.27,-77.22 77.41,-73.14 C75.91,-65.82 74.38,-35.15 74.39,-31.36 C74.46,-26.94 74.57,-25.95 74.83,-24.52" fill="none" stroke="rgb(0, 0, 255)" stroke-width="4.00" stroke-opacity="1.00" stroke-linejoin="round"/>
<path d="M86.47,-20.17 C86.27,-15.92 86.15,-11.89 86.26,-8.72 C86.51,-4.00 86.77,-2.39 87.37,0.63 C87.37,0.63 87.87,0.80 87.87,0.80 C88.03,0.12 88.12,-0.31 88.15,-0.50 C88.22,-0.94 88.32,-3.14 88.37,-4.45 C88.70,-12.67 89.28,-26.16 89.52,-31.44" fill="none" stroke="rgb(0, 0, 255)" stroke-width="4.00" stroke-opacity="1.00" stroke-linejoin="round"/>
<path d="M89.59,-81.33 C89.09,-80.01 88.97,-79.12 89.18,-77.46 C89.50,-74.91 90.88,-55.83 91.47,-47.54 C91.83,-42.50 92.39,-34.63 92.59,-31.80" fill="none" stroke="rgb(0, 0, 255)" stroke-width="4.00" stroke-opacity="1.00" stroke-linejoin="round"/>
<path d="M95.82,-27.53 C95.96,-26.61 96.09,-25.70 96.23,-24.79 C96.74,-21.08 97.84,-13.26 98.42,-9.14 C99.70,-0.71 101.06,2.04 101.44,2.20 C101.56,2.07 101.64,1.62 101.67,0.78 C101.67,0.62 101.68,0.37 101.68,0.03" fill="none" stroke="rgb(0, 0, 255)" stroke-width="4.00" stroke-opacity="1.00" stroke-linejoin="round"/>
<path d="M108.41,-83.10 C108.09,-80.71 108.53,-76.06 108.69,-71.38 C108.84,-64.14 108.87,-52.08 108.87,-48.73" fill="none" stroke="rgb(0, 0, 255)" stroke-width="4.00" stroke-opacity="1.00" stroke-linejoin="round"/>
<path d="M137.63,-28.76 C137.63,-28.76 137.13,-29.03 137.13,-29.03 C137.13,-29.03 136.28,-28.64 136.28,-28.64 C136.11,-25.27 139.10,-6.99 139.74,-4.99 C139.82,-4.73 140.01,-4.22 140.31,-3.45 C140.31,-3.45 140.47,-3.55 140.47,-3.55 C140.53,-4.28 140.57,-4.81 140.58,-5.15 C140.59,-5.50 140.60,-6.12 140.60,-7.03" fill="none" stroke="rgb(0, 0, 255)" stroke-width="4.00" stroke-opacity="1.00" stroke-linejoin="round"/>
<path d="M145.40,-86.74 C144.07,-84.33 143.34,-80.64 143.63,-76.70 C143.91,-73.21 144.19,-66.50 144.29,-61.42 C144.32,-58.07 144.34,-50.70 144.24,-47.93" fill="none" stroke="rgb(0, 0, 255)" stroke-width="4.00" stroke-opacity="1.00" stroke-linejoin="round"/>
<path d="M158.27,-45.23 C157.62,-42.80 157.16,-39.10 157.24,-35.69 C157.60,-27.36 158.67,-6.78 159.09,-2.50 C159.32,-0.27 160.12,4.97 161.52,8.79 C161.52,8.79 162.39,8.95 162.39,8.95 C162.39,8.95 162.58,8.46 162.58,8.46" fill="none" stroke="rgb(0, 0, 255)" stroke-width="4.00" stroke-opacity="1.00" stroke-linejoin="round"/>
<path d="M178.45,-86.27 C178.24,-86.22 179.71,-80.16 180.21,-74.96 C180.63,-70.45 181.67,-50.43 182.58,-44.16 C182.89,-42.10 183.31,-40.90 184.25,-39.13" fill="none" stroke="rgb(0, 0, 255)" stroke-width="4.00" stroke-opacity="1.00" stroke-linejoin="round"/>
<path d="M194.97,-95.86 C194.97,-95.86 194.75,-95.64 194.75,-95.64 C194.54,-94.55 195.69,-76.82 196.29,-68.29 C198.35,-44.54 199.00,-40.45 199.20,-39.37" fill="none" stroke="rgb(0, 0, 255)" stroke-width="4.00" stroke-opacity="1.00" stroke-linejoin="round"/>
<path d="M205.50,-33.29 C205.50,-33.29 205.83,-33.98 205.83,-33.98 C206.09,-30.68 209.16,-9.04 209.65,-5.98 C211.18,3.39 213.34,11.46 214.21,13.50" fill="none" stroke="rgb(0, 0, 255)" stroke-width="4.00" stroke-opacity="1.00" stroke-linejoin="round"/>
<path d="M226.37,-94.62 C226.37,-94.62 225.54,-94.51 225.54,-94.51 C225.86,-92.39 228.15,-80.52 229.76,-69.94 C234.09,-45.15 235.44,-39.04 236.19,-36.40" fill="none" stroke="rgb(0, 0, 255)" stroke-width="4.00" stroke-opacity="1.00" stroke-linejoin="round"/>
<path d="M235.90,-15.06 C235.79,-14.34 235.73,-13.80 235.71,-13.42 C235.51,-7.59 238.61,7.90 240.59,12.19 C242.71,16.65 243.93,18.33 245.25,19.68" fill="none" stroke="rgb(0, 0, 255)" stroke-width="4.00" stroke-opacity="1.00" stroke-linejoin="round"/>
<path d="M256.66,-113.50 C256.64,-112.70 256.95,-108.45 256.76,-104.55 C256.62,-101.91 254.84,-81.07 254.17,-73.21 C253.94,-70.07 253.55,-54.37 253.90,-48.66 C254.49,-39.40 255.52,-35.04 255.83,-34.11" fill="none" stroke="rgb(0, 0, 255)" stroke-width="4.00" stroke-opacity="1.00" stroke-linejoin="round"/>
<path d="M271.83,-33.41 C271.50,-32.90 271.27,-32.51 271.14,-32.24 C269.69,-29.12 270.04,-16.36 271.08,-10.43 C273.71,4.27 279.56,10.29 280.00,10.51" fill="none" stroke="rgb(0, 0, 255)" stroke-width="4.00" stroke-opacity="1.00" stroke-linejoin="round"/>
<path d="M285.94,-99.03 C284.12,-96.26 283.48,-93.05 283.58,-88.88 C283.84,-79.87 285.00,-63.75 285.47,-59.89 C285.86,-56.79 286.60,-52.66 287.33,-49.35" fill="none" stroke="rgb(0, 0, 255)" stroke-width="4.00" stroke-opacity="1.00" stroke-linejoin="round"/>
<path d="M293.35,-38.76 C292.62,-36.86 292.32,-35.47 292.40,-33.52 C292.66,-27.27 293.83,-16.76 295.57,-5.03 C297.74,8.39 301.21,20.57 301.30,20.86" fill="none" stroke="rgb(0, 0, 255)" stroke-width="4.00" stroke-opacity="1.00" stroke-linejoin="round"/>
<path d="M306.76,-104.09 C306.06,-102.31 306.02,-98.94 306.75,-95.45 C308.96,-85.41 311.24,-72.22 311.77,-68.03 C312.00,-66.18 312.09,-64.56 312.11,-62.68" fill="none" stroke="rgb(0, 0, 255)" stroke-width="4.00" stroke-opacity="1.00" stroke-linejoin="round"/>
<path d="M312.23,-38.17 C312.16,-32.48 312.19,-27.44 312.42,-23.74 C312.95,-15.57 314.72,-5.14 316.98,-1.14 C317.18,-0.79 317.50,-0.38 317.94,0.08 C318.36,-0.08 318.63,-0.20 318.74,-0.28 C318.84,-0.36 318.94,-0.51 319.03,-0.74" fill="none" stroke="rgb(0, 0, 255)" stroke-width="4.00" stroke-opacity="1.00" stroke-linejoin="round"/>
<path d="M336.16,-110.85 C336.17,-110.74 336.16,-110.47 336.12,-110.37 C336.02,-110.04 336.15,-109.64 336.82,-108.18 C337.61,-106.47 339.32,-101.69 339.74,-99.77 C340.66,-95.44 340.46,-80.24 339.83,-73.98 C338.94,-66.50 337.88,-57.79 337.73,-56.56" fill="none" stroke="rgb(0, 0, 255)" stroke-width="4.00" stroke-opacity="1.00" stroke-linejoin="round"/>
<path d="M354.51,-44.52 C352.18,-44.47 350.56,-44.61 350.08,-44.56 C348.68,-44.35 346.20,-39.94 345.35,-36.92 C343.87,-31.47 341.74,-15.81 341.48,-8.50 C340.83,11.35 344.80,16.01 345.37,16.34 C345.37,16.34 346.09,15.84 346.09,15.84" fill="none" stroke="rgb(0, 0, 255)" stroke-width="4.00" stroke-opacity="1.00" stroke-linejoin="round"/>
<path d="M349.90,-54.06 C349.90,-54.06 349.50,-48.93 349.50,-48.93" fill="none" stroke="rgb(0, 0, 255)" stroke-width="4.00" stroke-opacity="1.00" stroke-linejoin="round"/>
<path d="M363.39,0.17 C363.39,0.17 362.76,0.64 362.76,0.64 C362.32,3.00 362.33,8.92 362.76,11.79 C363.26,14.97 365.43,22.06 366.91,25.19 C369.73,31.00 375.07,36.74 376.10,37.24" fill="none" stroke="rgb(0, 0, 255)" stroke-width="4.00" stroke-opacity="1.00" stroke-linejoin="round"/>
<path d="M388.50,-19.00 C388.50,-19.00 386.04,-18.86 386.04,-18.86 C385.01,-18.21 383.98,-14.24 383.72,-11.17 C383.35,-6.32 384.06,3.67 385.43,14.60 C387.00,25.51 389.01,36.15 391.18,44.12 C392.05,47.23 393.49,49.99 394.05,50.83 C394.05,50.83 395.33,51.22 395.33,51.22 C395.33,51.22 395.71,50.39 395.71,50.39" fill="none" stroke="rgb(0, 0, 255)" stroke-width="4.00" stroke-opacity="1.00" stroke-linejoin="round"/>
<path d="M384.15,-85.68 C384.25,-82.63 384.31,-81.27 384.46,-79.40 C385.00,-71.98 385.95,-56.43 386.17,-48.51 C386.20,-41.24 386.30,-26.69 386.38,-19.42 C386.46,-15.20 386.73,-13.44 387.00,-13.20 C387.00,-13.20 387.50,-14.50 387.50,-14.50" fill="none" stroke="rgb(0, 0, 255)" stroke-width="4.00" stroke-opacity="1.00" stroke-linejoin="round"/>
<path d="M398.97,-96.39 C399.05,-95.04 399.12,-94.53 399.46,-92.87 C400.03,-90.09 402.06,-73.99 402.74,-66.78 C404.63,-48.01 406.68,-32.71 407.65,-27.74" fill="none" stroke="rgb(0, 0, 255)" stroke-width="4.00" stroke-opacity="1.00" stroke-linejoin="round"/>
<path d="M421.38,-81.63 C421.56,-80.38 421.66,-79.51 421.82,-77.53 C422.39,-70.65 422.31,-60.12 421.74,-49.02 C420.79,-33.57 419.70,-15.90 419.57,-13.69" fill="none" stroke="rgb(0, 0, 255)" stroke-width="4.00" stroke-opacity="1.00" stroke-linejoin="round"/>
<path d="M418.26,1.76 C417.61,2.46 417.11,6.07 416.40,9.67 C415.69,13.49 417.23,24.21 419.43,34.45 C423.77,53.11 424.17,54.66 424.50,55.82" fill="none" stroke="rgb(0, 0, 255)" stroke-width="4.00" stroke-opacity="1.00" stroke-linejoin="round"/>
<path d="M415.55,35.75 C415.07,38.39 414.93,39.82 415.07,41.51 C415.44,46.18 416.97,60.12 417.43,64.12" fill="none" stroke="rgb(0, 0, 255)" stroke-width="4.00" stroke-opacity="1.00" stroke-linejoin="round"/>
<path d="M366.51,-99.39 C366.48,-99.70 367.80,-100.93 368.21,-101.52 C368.41,-101.79 368.58,-102.25 368.73,-102.89 C368.73,-102.89 368.27,-103.94 368.27,-103.94 C366.95,-103.49 364.47,-97.97 363.15,-93.90 C361.64,-89.16 360.52,-84.28 360.31,-81.23 C360.11,-77.91 360.20,-72.40 360.58,-68.71 C361.10,-63.81 364.83,-51.13 365.96,-48.16 C366.43,-46.94 367.71,-44.22 368.46,-42.66" fill="none" stroke="rgb(0, 0, 255)" stroke-width="4.00" stroke-opacity="1.00" stroke-linejoin="round"/>
<path d="M335.69,28.99 C334.27,29.01 333.34,29.05 332.90,29.11 C332.46,29.17 331.91,29.32 331.24,29.56" fill="none" stroke="rgb(0, 0, 255)" stroke-width="4.00" stroke-opacity="1.00" stroke-linejoin="round"/>
<path d="M33.90,72.62 C34.32,70.21 34.83,67.58 34.86,67.27 C34.89,66.87 34.93,65.95 34.97,64.52 C34.01,64.54 27.10,74.80 24.07,80.72 C20.78,87.21 15.43,101.55 13.14,109.53 C10.79,118.44 8.62,128.78 7.77,134.76 C7.31,138.07 6.93,142.33 6.63,146.95" fill="none" stroke="rgb(0, 0, 255)" stroke-width="4.00" stroke-opacity="1.00" stroke-linejoin="round"/>
<path d="M52.01,71.50 C52.01,71.50 51.78,70.45 51.78,70.45 C51.78,70.45 51.03,70.17 51.03,70.17 C49.31,71.95 47.75,74.73 46.24,77.83 C43.33,83.80 39.50,94.43 38.61,96.97" fill="none" stroke="rgb(0, 0, 255)" stroke-width="4.00" stroke-opacity="1.00" stroke-linejoin="round"/>
<path d="M57.66,91.97 C57.01,92.06 56.48,92.45 55.59,93.65 C53.77,96.10 49.44,101.98 48.39,103.73 C44.89,109.59 41.98,116.73 41.35,118.58" fill="none" stroke="rgb(0, 0, 255)" stroke-width="4.00" stroke-opacity="1.00" stroke-linejoin="round"/>
<path d="M76.30,56.04 C76.31,56.01 76.29,56.10 76.28,56.13 C75.95,57.30 75.28,59.51 74.96,60.55 C73.99,63.63 71.85,70.65 70.67,74.58 C68.45,82.38 63.64,99.52 63.12,101.91 C63.07,102.14 63.00,102.50 62.90,103.00" fill="none" stroke="rgb(0, 0, 255)" stroke-width="4.00" stroke-opacity="1.00" stroke-linejoin="round"/>
<path d="M100.41,55.68 C100.56,54.38 100.86,52.32 101.09,51.36 C101.32,50.40 102.54,46.80 102.51,46.56 C101.80,48.08 97.05,64.21 95.71,71.11 C94.38,78.05 92.93,89.04 92.07,98.23 C91.61,104.06 90.89,122.68 90.92,126.55 C90.95,130.23 91.28,136.31 91.41,138.69" fill="none" stroke="rgb(0, 0, 255)" stroke-width="4.00" stroke-opacity="1.00" stroke-linejoin="round"/>
<path d="M128.58,45.51 C128.58,45.51 128.20,45.06 128.20,45.06 C126.63,46.05 122.31,58.30 120.32,66.28 C117.09,79.79 114.85,103.38 114.93,108.81" fill="none" stroke="rgb(0, 0, 255)" stroke-width="4.00" stroke-opacity="1.00" stroke-linejoin="round"/>
<path d="M134.69,60.80 C134.69,60.80 135.13,61.10 135.13,61.10 C135.15,61.64 133.50,77.59 132.93,88.38 C132.66,95.84 132.19,113.17 132.27,118.68 C132.28,119.73 132.31,121.41 132.32,122.04" fill="none" stroke="rgb(0, 0, 255)" stroke-width="4.00" stroke-opacity="1.00" stroke-linejoin="round"/>
<path d="M158.10,52.92 C158.10,52.92 157.96,52.23 157.96,52.23 C156.74,59.44 154.20,75.00 153.78,80.92 C152.49,103.54 153.99,119.72 154.56,122.74" fill="none" stroke="rgb(0, 0, 255)" stroke-width="4.00" stroke-opacity="1.00" stroke-linejoin="round"/>
<path d="M185.03,42.51 C185.03,42.51 185.10,41.86 185.10,41.86 C184.48,48.29 183.09,63.66 182.52,72.30 C181.75,89.35 181.93,104.65 182.39,109.92" fill="none" stroke="rgb(0, 0, 255)" stroke-width="4.00" stroke-opacity="1.00" stroke-linejoin="round"/>
<path d="M217.49,42.45 C217.49,42.45 215.05,36.75 215.05,36.75 C214.06,38.02 212.29,50.24 211.45,60.56 C210.93,68.74 210.08,84.78 209.92,92.24 C209.98,107.08 210.75,132.08 210.93,133.60 C210.95,133.82 210.99,134.08 211.04,134.35" fill="none" stroke="rgb(0, 0, 255)" stroke-width="4.00" stroke-opacity="1.00" stroke-linejoin="round"/>
<path d="M247.72,40.57 C247.72,40.57 246.20,40.36 246.20,40.36 C244.89,41.07 242.01,45.87 240.62,49.45 C238.81,54.22 236.07,65.48 234.94,73.28 C233.96,80.77 233.36,89.70 233.18,99.56 C233.12,115.17 233.79,124.04 234.16,127.54" fill="none" stroke="rgb(0, 0, 255)" stroke-width="4.00" stroke-opacity="1.00" stroke-linejoin="round"/>
<path d="M248.01,70.68 C248.01,70.68 247.72,70.70 247.72,70.70 C246.49,72.62 245.78,84.31 245.91,92.16 C246.52,110.70 248.24,133.94 250.43,151.73 C251.00,155.99 251.80,160.41 252.77,164.80" fill="none" stroke="rgb(0, 0, 255)" stroke-width="4.00" stroke-opacity="1.00" stroke-linejoin="round"/>
<path d="M276.18,45.69 C276.18,45.69 273.92,45.07 273.92,45.07 C273.49,46.78 273.41,65.07 273.39,74.17 C273.49,97.00 274.09,112.51 274.32,114.25" fill="none" stroke="rgb(0, 0, 255)" stroke-width="4.00" stroke-opacity="1.00" stroke-linejoin="round"/>
<path d="M304.59,69.39 C304.59,69.39 303.59,69.52 303.59,69.52 C303.43,71.57 303.23,77.01 302.72,82.79 C302.00,90.10 300.45,105.63 299.62,113.86 C298.70,124.39 298.48,129.62 298.45,130.41" fill="none" stroke="rgb(0, 0, 255)" stroke-width="4.00" stroke-opacity="1.00" stroke-linejoin="round"/>
<path d="M313.76,51.45 C313.76,51.45 312.71,51.52 312.71,51.52 C312.12,53.08 311.39,69.39 311.08,77.45 C310.94,85.36 311.09,101.98 311.36,109.52 C311.90,120.42 312.82,130.30 313.27,134.88" fill="none" stroke="rgb(0, 0, 255)" stroke-width="4.00" stroke-opacity="1.00" stroke-linejoin="round"/>
<path d="M333.28,63.74 C333.02,63.53 332.14,66.83 330.83,72.86 C328.79,82.62 327.34,95.12 327.13,100.96 C326.58,117.74 330.75,132.73 331.86,135.07" fill="none" stroke="rgb(0, 0, 255)" stroke-width="4.00" stroke-opacity="1.00" stroke-linejoin="round"/>
<path d="M342.46,56.51 C342.46,56.51 342.98,53.51 342.98,53.51 C343.17,53.47 343.16,54.41 342.91,56.77 C342.07,64.29 341.72,72.77 342.12,82.18 C342.69,93.51 344.67,105.36 345.47,108.21" fill="none" stroke="rgb(0, 0, 255)" stroke-width="4.00" stroke-opacity="1.00" stroke-linejoin="round"/>
<path d="M382.68,52.92 C382.68,52.92 381.60,50.81 381.60,50.81 C380.51,50.96 379.29,52.01 378.37,53.86 C376.58,57.46 374.01,71.78 373.56,78.58 C372.85,91.23 375.09,108.43 376.26,112.48" fill="none" stroke="rgb(0, 0, 255)" stroke-width="4.00" stroke-opacity="1.00" stroke-linejoin="round"/>
<path d="M396.21,73.97 C395.90,74.06 395.58,75.26 395.36,77.42 C395.19,79.01 394.40,97.69 394.18,104.59 C394.10,112.58 394.59,129.36 395.05,137.48 C395.73,148.49 396.29,152.28 397.07,156.31" fill="none" stroke="rgb(0, 0, 255)" stroke-width="4.00" stroke-opacity="1.00" stroke-linejoin="round"/>
<path d="M5.02,158.12 C4.33,158.14 3.30,157.90 2.81,157.51 C2.54,157.31 2.01,156.57 1.53,156.29 C0.33,156.33 -3.05,160.71 -4.67,164.00 C-7.36,169.61 -9.54,181.72 -9.85,190.55 C-10.01,195.08 -9.46,214.17 -8.82,219.61 C-8.60,221.39 -7.43,229.11 -7.01,231.77" fill="none" stroke="rgb(0, 0, 255)" stroke-width="4.00" stroke-opacity="1.00" stroke-linejoin="round"/>
<path d="M11.14,170.82 C9.60,170.74 5.48,174.03 3.70,176.80 C1.12,181.01 -1.87,190.87 -3.73,198.27 C-4.66,202.26 -8.11,221.54 -9.49,229.52 C-11.28,239.98 -11.54,242.22 -11.65,243.59" fill="none" stroke="rgb(0, 0, 255)" stroke-width="4.00" stroke-opacity="1.00" stroke-linejoin="round"/>
<path d="M17.14,180.00 C16.33,179.69 14.66,179.88 13.02,182.00 C11.24,184.37 6.73,198.45 5.40,204.68 C3.70,213.16 2.03,224.52 1.62,230.95 C0.76,247.91 1.99,263.89 2.76,267.15" fill="none" stroke="rgb(0, 0, 255)" stroke-width="4.00" stroke-opacity="1.00" stroke-linejoin="round"/>
<path d="M21.14,189.88 C21.14,189.88 18.83,190.11 18.83,190.11 C17.02,192.54 16.23,196.17 15.81,199.41 C14.77,208.07 14.53,220.92 14.85,227.02 C15.03,230.45 15.51,234.50 15.61,235.36" fill="none" stroke="rgb(0, 0, 255)" stroke-width="4.00" stroke-opacity="1.00" stroke-linejoin="round"/>
<path d="M33.72,166.77 C33.72,166.77 32.05,166.78 32.05,166.78 C30.69,168.75 28.62,179.30 27.75,186.63 C26.06,205.07 24.12,226.67 23.86,229.83" fill="none" stroke="rgb(0, 0, 255)" stroke-width="4.00" stroke-opacity="1.00" stroke-linejoin="round"/>
<path d="M48.95,196.58 C47.23,197.47 44.09,200.40 42.48,202.51 C40.69,204.90 37.14,211.40 35.91,214.42 C33.08,221.49 31.09,229.07 30.85,230.31" fill="none" stroke="rgb(0, 0, 255)" stroke-width="4.00" stroke-opacity="1.00" stroke-linejoin="round"/>
<path d="M59.54,180.11 C58.38,180.05 56.17,181.97 55.08,184.60 C52.82,190.17 50.31,203.88 49.53,211.77 C48.96,218.55 48.56,229.89 48.63,237.26 C49.00,253.09 51.71,265.12 51.92,266.01" fill="none" stroke="rgb(0, 0, 255)" stroke-width="4.00" stroke-opacity="1.00" stroke-linejoin="round"/>
<path d="M69.07,184.05 C69.07,184.05 67.72,182.56 67.72,182.56 C66.90,182.58 65.69,183.94 64.60,186.30 C63.33,189.05 60.18,205.95 59.54,213.14 C58.74,223.10 58.68,228.08 58.73,231.75" fill="none" stroke="rgb(0, 0, 255)" stroke-width="4.00" stroke-opacity="1.00" stroke-linejoin="round"/>
<path d="M77.59,161.65 C76.80,161.70 75.21,167.76 74.47,173.45 C73.50,181.14 70.97,221.70 71.29,233.99 C72.09,252.69 73.49,258.67 73.84,259.92" fill="none" stroke="rgb(0, 0, 255)" stroke-width="4.00" stroke-opacity="1.00" stroke-linejoin="round"/>
<path d="M97.41,157.06 C96.08,159.01 95.37,160.21 93.25,165.06 C89.39,174.17 86.04,197.10 85.57,205.84 C85.43,208.45 85.41,214.99 85.88,217.96" fill="none" stroke="rgb(0, 0, 255)" stroke-width="4.00" stroke-opacity="1.00" stroke-linejoin="round"/>
<path d="M103.58,158.71 C102.23,159.04 100.06,164.19 98.99,169.27 C98.17,173.23 91.59,213.36 89.34,228.08 C88.76,232.64 88.41,235.86 88.14,238.92" fill="none" stroke="rgb(0, 0, 255)" stroke-width="4.00" stroke-opacity="1.00" stroke-linejoin="round"/>
<path d="M117.82,165.65 C115.95,166.32 113.77,168.86 112.33,172.65 C110.03,178.78 107.76,192.69 107.07,199.99 C105.38,218.27 106.08,229.81 106.21,231.19" fill="none" stroke="rgb(0, 0, 255)" stroke-width="4.00" stroke-opacity="1.00" stroke-linejoin="round"/>
<path d="M139.99,166.35 C138.32,167.34 137.15,170.42 136.68,174.91 C136.01,181.71 135.42,198.96 135.73,205.45 C136.19,214.75 137.13,220.00 137.27,220.74" fill="none" stroke="rgb(0, 0, 255)" stroke-width="4.00" stroke-opacity="1.00" stroke-linejoin="round"/>
<path d="M147.57,187.70 C147.57,187.70 147.21,185.85 147.21,185.85 C145.86,189.40 144.93,207.18 144.94,211.74 C144.97,217.45 146.04,233.37 146.67,240.39 C148.91,260.05 151.86,272.48 152.62,274.64" fill="none" stroke="rgb(0, 0, 255)" stroke-width="4.00" stroke-opacity="1.00" stroke-linejoin="round"/>
<path d="M178.03,150.07 C178.03,150.07 177.18,149.09 177.18,149.09 C176.48,148.64 174.23,153.35 173.10,158.29 C171.66,164.84 169.58,180.45 168.78,187.98 C168.01,197.24 167.46,209.91 167.34,216.94 C167.48,233.04 169.28,255.97 170.54,263.28" fill="none" stroke="rgb(0, 0, 255)" stroke-width="4.00" stroke-opacity="1.00" stroke-linejoin="round"/>
<path d="M181.80,169.29 C181.80,169.29 181.62,167.82 181.62,167.82 C180.76,169.38 179.29,184.28 178.66,192.30 C177.70,209.62 178.19,237.00 179.43,250.71 C180.34,258.99 181.64,267.20 182.71,272.83" fill="none" stroke="rgb(0, 0, 255)" stroke-width="4.00" stroke-opacity="1.00" stroke-linejoin="round"/>
<path d="M213.08,141.19 C213.08,141.19 212.86,140.73 212.86,140.73 C212.86,140.73 212.16,140.48 212.16,140.48 C210.94,141.89 209.62,145.07 208.63,148.14 C205.50,158.11 203.08,167.18 201.54,174.73 C199.61,185.13 198.04,196.97 197.30,204.10 C196.74,211.38 196.11,224.01 196.02,232.37 C196.13,250.10 197.36,262.31 197.47,263.41" fill="none" stroke="rgb(0, 0, 255)" stroke-width="4.00" stroke-opacity="1.00" stroke-linejoin="round"/>
<path d="M224.78,176.06 C223.61,175.66 221.30,177.71 219.76,180.86 C217.34,185.98 214.15,200.23 212.91,209.99 C212.13,216.35 211.22,230.82 211.24,240.42 C211.37,252.57 215.05,274.41 216.53,278.19" fill="none" stroke="rgb(0, 0, 255)" stroke-width="4.00" stroke-opacity="1.00" stroke-linejoin="round"/>
<path d="M242.37,193.23 C242.37,193.23 240.33,192.13 240.33,192.13 C239.29,192.64 238.40,195.64 237.53,201.03 C236.83,205.55 235.51,222.64 234.98,230.42 C234.28,242.53 234.18,247.53 234.23,251.58" fill="none" stroke="rgb(0, 0, 255)" stroke-width="4.00" stroke-opacity="1.00" stroke-linejoin="round"/>
<path d="M261.60,168.18 C261.60,168.18 262.06,165.36 262.06,165.36 C262.06,165.36 262.34,165.34 262.34,165.34 C262.34,167.02 258.70,188.80 258.16,193.33 C256.35,210.49 255.91,230.18 256.05,237.08 C256.23,241.97 256.60,246.73 257.02,249.87" fill="none" stroke="rgb(0, 0, 255)" stroke-width="4.00" stroke-opacity="1.00" stroke-linejoin="round"/>
<path d="M277.48,175.76 C277.48,175.76 277.47,175.23 277.47,175.23 C277.47,175.23 277.23,175.17 277.23,175.17 C275.29,177.34 272.92,182.00 271.58,185.11 C268.41,192.56 263.93,206.00 261.79,212.94 C260.55,217.19 259.78,220.34 259.38,222.51" fill="none" stroke="rgb(0, 0, 255)" stroke-width="4.00" stroke-opacity="1.00" stroke-linejoin="round"/>
<path d="M296.47,156.95 C294.63,156.91 293.10,157.63 291.75,159.35 C289.77,161.89 283.77,174.08 281.24,180.96 C275.96,195.51 274.66,211.42 274.73,213.86" fill="none" stroke="rgb(0, 0, 255)" stroke-width="4.00" stroke-opacity="1.00" stroke-linejoin="round"/>
<path d="M293.18,183.64 C293.18,183.64 292.14,183.66 292.14,183.66 C292.14,183.66 291.47,184.79 291.47,184.79 C291.85,184.83 290.03,185.10 288.65,190.29 C287.70,193.95 285.77,209.02 285.70,215.92 C285.59,237.37 286.95,242.48 287.09,242.81" fill="none" stroke="rgb(0, 0, 255)" stroke-width="4.00" stroke-opacity="1.00" stroke-linejoin="round"/>
<path d="M310.47,181.41 C309.87,181.20 307.21,182.68 304.99,185.18 C302.10,188.51 294.51,200.41 291.30,206.91 C283.85,222.11 280.75,235.11 280.54,237.23" fill="none" stroke="rgb(0, 0, 255)" stroke-width="4.00" stroke-opacity="1.00" stroke-linejoin="round"/>
<path d="M332.64,180.47 C332.26,180.48 330.43,180.53 329.93,180.74 C328.14,181.54 326.25,187.99 325.58,192.62 C324.87,197.81 324.58,209.01 324.98,216.32 C325.41,223.31 326.49,228.72 326.66,229.54" fill="none" stroke="rgb(0, 0, 255)" stroke-width="4.00" stroke-opacity="1.00" stroke-linejoin="round"/>
<path d="M335.05,197.17 C335.02,196.64 335.00,196.11 334.98,195.58 C334.90,193.82 334.78,192.94 334.57,192.40 C333.82,194.52 332.71,212.05 332.64,216.10 C332.56,220.77 333.57,236.52 334.09,239.62" fill="none" stroke="rgb(0, 0, 255)" stroke-width="4.00" stroke-opacity="1.00" stroke-linejoin="round"/>
<path d="M366.10,179.06 C366.02,178.99 365.95,178.92 365.87,178.86 C365.73,178.74 365.56,178.67 365.37,178.65 C364.73,178.62 363.17,178.88 362.60,179.39 C359.65,182.06 352.75,194.46 349.94,202.79 C348.85,206.08 347.48,211.06 346.94,215.17" fill="none" stroke="rgb(0, 0, 255)" stroke-width="4.00" stroke-opacity="1.00" stroke-linejoin="round"/>
<path d="M401.32,170.12 C401.32,170.12 400.41,169.58 400.41,169.58 C398.90,169.69 397.96,169.99 397.02,170.83 C393.09,174.41 385.19,186.62 382.54,192.25 C381.08,195.39 377.73,203.91 376.80,206.48 C375.41,210.36 374.13,214.88 372.86,219.79" fill="none" stroke="rgb(0, 0, 255)" stroke-width="4.00" stroke-opacity="1.00" stroke-linejoin="round"/>
<path d="M419.32,181.53 C419.32,181.53 418.88,181.32 418.88,181.32 C415.85,183.77 411.21,188.10 408.46,190.68 C400.47,198.47 392.02,207.51 387.03,213.87 C384.60,216.99 382.57,220.14 380.61,223.45" fill="none" stroke="rgb(0, 0, 255)" stroke-width="4.00" stroke-opacity="1.00" stroke-linejoin="round"/>
<path d="M416.85,188.29 C415.47,188.75 413.23,192.59 412.34,196.17 C410.84,202.48 408.39,218.05 408.08,225.84 C407.94,229.78 408.18,235.66 408.58,240.35 C408.86,243.36 409.46,246.37 409.69,247.33" fill="none" stroke="rgb(0, 0, 255)" stroke-width="4.00" stroke-opacity="1.00" stroke-linejoin="round"/>
<path d="M421.96,212.81 C421.96,212.81 422.06,212.82 422.06,212.82 C421.91,213.46 421.78,214.17 421.49,216.00 C420.28,223.86 419.56,235.76 420.19,240.70 C421.16,247.99 422.79,251.41 423.90,253.41" fill="none" stroke="rgb(0, 0, 255)" stroke-width="4.00" stroke-opacity="1.00" stroke-linejoin="round"/>
<path d="M439.78,177.17 C439.78,177.17 439.88,176.25 439.88,176.25 C439.25,177.30 438.78,178.35 438.41,179.67 C437.35,183.63 435.82,198.05 435.67,205.32 C435.39,225.89 437.87,231.34 438.15,231.72 C438.15,231.72 438.44,231.60 438.44,231.60 C438.44,231.60 438.79,230.93 438.79,230.93" fill="none" stroke="rgb(0, 0, 255)" stroke-width="4.00" stroke-opacity="1.00" stroke-linejoin="round"/>
<path d="M453.95,169.29 C453.95,169.29 453.95,168.57 453.95,168.57 C452.53,173.84 450.36,185.62 449.01,195.93 C447.89,205.36 446.89,218.14 446.50,228.02 C446.04,250.92 446.41,255.73 447.01,261.45" fill="none" stroke="rgb(0, 0, 255)" stroke-width="4.00" stroke-opacity="1.00" stroke-linejoin="round"/>
<path d="M435.31,265.85 C434.43,265.91 432.64,268.82 431.03,272.53 C428.89,277.50 425.40,289.20 423.44,298.30 C422.47,302.95 419.99,319.34 419.17,325.81 C418.35,333.05 416.18,373.33 416.22,388.82 C416.31,397.68 416.64,402.68 416.73,403.95" fill="none" stroke="rgb(0, 0, 255)" stroke-width="4.00" stroke-opacity="1.00" stroke-linejoin="round"/>
<path d="M402.03,252.21 C402.03,252.21 401.37,251.85 401.37,251.85 C400.29,251.91 398.07,253.84 396.02,256.42 C393.60,259.51 387.05,273.90 384.51,280.93 C382.54,286.52 378.25,301.73 376.22,309.63 C370.91,332.28 365.06,374.72 364.40,382.60 C364.34,383.21 364.29,383.83 364.24,384.44" fill="none" stroke="rgb(0, 0, 255)" stroke-width="4.00" stroke-opacity="1.00" stroke-linejoin="round"/>
<path d="M376.68,258.33 C376.03,258.70 368.72,269.77 363.78,279.11 C356.95,292.68 346.32,314.47 339.44,330.64 C336.98,336.91 332.94,348.04 330.09,356.92 C327.93,364.05 324.58,377.72 323.02,384.83 C319.00,404.84 318.08,414.67 318.01,415.77" fill="none" stroke="rgb(0, 0, 255)" stroke-width="4.00" stroke-opacity="1.00" stroke-linejoin="round"/>
<path d="M363.98,246.98 C363.98,246.98 363.23,245.19 363.23,245.19 C362.24,245.23 359.78,247.07 357.92,249.67 C355.11,253.63 348.87,266.76 346.15,274.16 C340.72,289.81 331.62,316.02 330.34,319.06" fill="none" stroke="rgb(0, 0, 255)" stroke-width="4.00" stroke-opacity="1.00" stroke-linejoin="round"/>
<path d="M333.64,248.51 C333.64,248.51 333.49,246.66 333.49,246.66 C331.96,247.47 330.10,251.05 328.45,255.64 C326.80,260.33 323.66,273.11 321.55,283.73 C320.41,290.12 318.08,304.12 317.17,310.77" fill="none" stroke="rgb(0, 0, 255)" stroke-width="4.00" stroke-opacity="1.00" stroke-linejoin="round"/>
<path d="M298.65,272.20 C298.38,272.00 298.19,271.82 298.06,271.66 C297.93,271.50 297.68,271.16 297.31,270.62 C297.03,270.48 296.90,271.69 296.95,274.46 C297.04,278.58 299.22,295.62 300.15,300.27 C303.37,315.04 306.18,324.55 307.07,326.67" fill="none" stroke="rgb(0, 0, 255)" stroke-width="4.00" stroke-opacity="1.00" stroke-linejoin="round"/>
<path d="M267.60,268.26 C267.17,268.53 266.79,269.18 266.24,270.73 C263.90,277.25 258.77,289.65 257.37,294.41 C255.18,301.95 254.83,306.56 254.84,307.49" fill="none" stroke="rgb(0, 0, 255)" stroke-width="4.00" stroke-opacity="1.00" stroke-linejoin="round"/>
<path d="M275.48,276.20 C275.48,276.20 275.22,273.96 275.22,273.96 C273.88,275.71 271.80,282.47 270.56,286.52 C267.01,298.15 264.93,304.15 263.73,307.00" fill="none" stroke="rgb(0, 0, 255)" stroke-width="4.00" stroke-opacity="1.00" stroke-linejoin="round"/>
<path d="M238.13,275.03 C237.08,275.44 236.37,276.05 235.30,277.65 C230.23,285.32 226.90,291.15 221.96,300.94 C217.08,311.02 212.42,321.77 209.32,330.29 C207.63,334.95 207.31,335.90 206.14,339.56" fill="none" stroke="rgb(0, 0, 255)" stroke-width="4.00" stroke-opacity="1.00" stroke-linejoin="round"/>
<path d="M206.20,309.49 C205.04,309.15 202.21,310.47 200.36,312.71 C197.20,316.63 191.70,327.87 189.48,334.06 C187.16,340.76 184.01,352.48 182.80,359.02 C181.77,364.66 180.36,383.99 180.26,387.69 C180.13,392.49 180.51,404.36 181.36,409.10" fill="none" stroke="rgb(0, 0, 255)" stroke-width="4.00" stroke-opacity="1.00" stroke-linejoin="round"/>
<path d="M224.90,262.91 C223.25,265.40 220.14,270.64 218.28,273.75 C214.48,280.30 207.20,293.70 204.59,298.85 C203.92,300.20 201.57,304.60 201.04,305.57" fill="none" stroke="rgb(0, 0, 255)" stroke-width="4.00" stroke-opacity="1.00" stroke-linejoin="round"/>
<path d="M195.73,291.08 C194.58,290.99 191.68,292.71 190.11,294.86 C186.89,299.39 182.88,311.89 181.50,318.77 C181.19,320.31 180.79,322.70 180.60,323.98" fill="none" stroke="rgb(0, 0, 255)" stroke-width="4.00" stroke-opacity="1.00" stroke-linejoin="round"/>
<path d="M189.79,278.44 C189.79,278.44 189.41,275.52 189.41,275.52 C189.10,275.03 186.52,280.16 185.18,284.31 C181.72,295.72 177.43,309.94 176.60,312.74" fill="none" stroke="rgb(0, 0, 255)" stroke-width="4.00" stroke-opacity="1.00" stroke-linejoin="round"/>
<path d="M160.98,284.08 C161.09,283.48 161.18,283.04 161.26,282.77 C161.34,282.50 161.51,282.01 161.78,281.31 C161.78,281.31 161.51,281.11 161.51,281.11 C159.23,283.62 154.49,296.09 152.88,302.39 C150.74,310.89 149.45,319.66 149.18,321.69" fill="none" stroke="rgb(0, 0, 255)" stroke-width="4.00" stroke-opacity="1.00" stroke-linejoin="round"/>
<path d="M146.92,290.20 C146.20,289.69 145.74,289.52 144.86,289.48 C143.80,289.48 139.78,292.86 138.12,295.33 C134.93,300.20 131.58,308.75 128.84,317.51 C128.32,319.24 127.45,322.43 126.92,324.56 C126.44,326.50 126.17,328.30 125.96,330.40" fill="none" stroke="rgb(0, 0, 255)" stroke-width="4.00" stroke-opacity="1.00" stroke-linejoin="round"/>
<path d="M113.29,285.49 C113.18,285.37 113.05,285.27 112.91,285.21 C112.77,285.14 112.43,285.01 111.88,284.82 C109.93,285.65 107.47,290.14 105.15,295.52 C103.77,298.85 98.89,317.54 97.87,322.96 C97.33,325.89 96.80,329.65 96.68,330.57" fill="none" stroke="rgb(0, 0, 255)" stroke-width="4.00" stroke-opacity="1.00" stroke-linejoin="round"/>
<path d="M92.76,275.26 C91.51,275.37 88.36,277.85 85.63,281.49 C82.10,286.27 76.14,297.97 72.88,305.73 C66.72,321.02 59.67,338.58 58.78,340.85" fill="none" stroke="rgb(0, 0, 255)" stroke-width="4.00" stroke-opacity="1.00" stroke-linejoin="round"/>
<path d="M53.48,284.55 C53.48,284.55 54.50,282.16 54.50,282.16 C52.79,282.66 48.07,286.91 45.34,290.60 C42.18,294.94 34.19,308.62 30.22,316.66 C26.83,323.93 21.70,336.29 18.53,344.59 C16.44,350.33 15.40,353.81 14.99,356.40" fill="none" stroke="rgb(0, 0, 255)" stroke-width="4.00" stroke-opacity="1.00" stroke-linejoin="round"/>
<path d="M24.02,275.67 C24.02,275.67 23.82,275.27 23.82,275.27 C23.82,275.27 22.78,274.80 22.78,274.80 C20.51,275.59 16.57,279.20 14.47,281.80 C11.46,285.57 4.14,299.54 1.32,306.64 C-1.34,313.58 -5.83,326.71 -7.90,333.25 C-8.81,336.15 -11.26,343.59 -11.90,345.34" fill="none" stroke="rgb(0, 0, 255)" stroke-width="4.00" stroke-opacity="1.00" stroke-linejoin="round"/>
<path d="M4.85,263.44 C4.85,263.44 4.60,262.45 4.60,262.45 C3.73,262.55 0.66,266.18 -1.54,269.66 C-5.26,275.62 -10.00,286.22 -11.85,292.30 C-13.85,298.95 -16.84,313.80 -17.76,321.03 C-19.62,335.88 -19.90,359.81 -19.38,363.02" fill="none" stroke="rgb(0, 0, 255)" stroke-width="4.00" stroke-opacity="1.00" stroke-linejoin="round"/>
</g>
</svg>
