<?xml version="1.0" encoding="UTF-8" standalone="no"?>
<!DOCTYPE svg PUBLIC "-//W3C//DTD SVG 1.1//EN" "http://www.w3.org/Graphics/SVG/1.1/DTD/svg11.dtd">
<svg width="128.40" height="181.68" viewBox="0.00 0.00 535.00 757.00" xmlns="http://www.w3.org/2000/svg" xmlns:xlink="http://www.w3.org/1999/xlink">
<g stroke-linecap="round" transform="translate(44.00, 155.00)" id="214_사람-2">
<path d="M285.37,297.36 C285.36,297.32 285.35,297.29 285.35,297.27 C285.34,297.25 285.34,297.21 285.35,297.16 C284.79,297.39 282.75,298.24 282.18,298.50 C278.75,300.08 273.81,304.00 271.28,306.93 C269.33,309.25 266.63,314.56 266.15,316.49 C265.75,318.26 266.60,320.84 268.05,321.63 C270.77,323.00 284.20,322.74 291.92,321.87 C295.81,321.40 299.87,320.04 301.16,318.78 C302.52,317.34 304.37,312.94 304.59,309.51 C304.75,306.53 303.97,302.96 303.34,301.75 C302.71,300.59 300.76,298.63 299.54,297.94 C297.96,297.09 292.95,296.09 289.86,296.49 C287.02,296.88 280.10,299.73 278.82,300.81 C278.65,300.96 278.47,301.18 278.28,301.46" fill="none" stroke="rgb(255, 0, 255)" stroke-width="4.00" stroke-opacity="1.00" stroke-linejoin="round"/>
<path d="M278.30,325.47 C278.43,325.06 278.61,324.64 278.66,324.49 C278.67,324.45 278.67,324.39 278.66,324.32 C278.66,324.32 277.17,332.89 277.17,332.89 C277.11,332.92 273.98,331.40 271.52,331.29 C267.83,331.19 261.36,333.49 257.90,335.94 C254.20,338.64 250.62,343.14 250.05,345.23 C249.04,349.28 249.24,357.67 249.65,359.23 C249.65,359.23 262.57,358.68 262.57,358.68 C262.75,358.46 261.79,349.62 261.99,346.91 C262.00,346.76 261.98,346.60 261.93,346.42" fill="none" stroke="rgb(255, 0, 255)" stroke-width="4.00" stroke-opacity="1.00" stroke-linejoin="round"/>
<path d="M286.06,324.48 C286.06,324.48 285.67,324.38 285.67,324.38 C285.39,324.65 284.93,327.60 284.57,330.74 C284.39,332.32 284.18,334.71 284.04,336.37 C284.41,335.26 285.90,332.65 287.03,331.82 C289.48,330.09 296.03,328.40 298.75,328.00 C301.07,327.69 304.55,327.58 307.03,327.80 C309.80,328.09 314.64,330.36 316.43,333.01 C317.80,335.17 318.72,341.63 318.60,344.22 C318.51,345.86 316.50,360.52 316.34,360.91 C316.34,360.91 315.23,359.80 315.23,359.80" fill="none" stroke="rgb(255, 0, 255)" stroke-width="4.00" stroke-opacity="1.00" stroke-linejoin="round"/>
<path d="M262.90,353.81 C262.82,353.80 262.75,353.80 262.66,353.81 C262.58,353.82 262.38,353.87 262.06,353.96 C262.06,353.96 261.99,354.28 261.99,354.28 C263.96,355.08 276.80,356.49 285.77,357.96 C290.65,358.78 301.44,358.64 302.29,358.46 C302.42,358.43 302.64,358.36 302.93,358.27" fill="none" stroke="rgb(255, 0, 255)" stroke-width="4.00" stroke-opacity="1.00" stroke-linejoin="round"/>
<path d="M305.35,356.15 C305.35,356.15 305.05,356.05 305.05,356.05 C305.05,356.05 305.66,362.54 305.66,362.54 C306.99,363.48 312.10,363.86 313.83,363.30 C316.06,362.54 315.82,359.61 315.71,359.12" fill="none" stroke="rgb(255, 0, 255)" stroke-width="4.00" stroke-opacity="1.00" stroke-linejoin="round"/>
<path d="M270.11,357.69 C270.11,357.69 270.01,357.72 270.01,357.72 C269.97,358.07 269.97,359.64 269.97,360.82 C269.92,364.56 266.40,393.99 266.55,395.66 C266.97,396.15 273.10,396.89 274.87,396.86 C276.62,396.82 277.29,396.46 277.32,396.39" fill="none" stroke="rgb(255, 0, 255)" stroke-width="4.00" stroke-opacity="1.00" stroke-linejoin="round"/>
<path d="M279.32,360.66 C279.32,360.66 279.52,360.32 279.52,360.32 C279.67,361.64 279.75,366.11 279.80,368.49 C279.83,371.87 279.03,395.71 278.98,396.08 C278.84,397.38 278.54,398.37 278.27,398.67 C278.10,398.65 278.00,398.64 277.96,398.63 C277.92,398.62 277.90,398.61 277.89,398.58" fill="none" stroke="rgb(255, 0, 255)" stroke-width="4.00" stroke-opacity="1.00" stroke-linejoin="round"/>
<path d="M269.23,397.47 C268.10,397.55 266.66,397.35 265.67,397.19 C256.90,396.61 254.85,399.08 254.39,399.77 C254.55,400.70 256.51,402.07 258.72,402.68 C261.22,403.34 266.97,403.63 269.98,403.16 C272.89,402.67 276.56,401.18 277.70,400.02 C277.90,399.15 277.85,398.36 277.25,397.50 C276.75,396.79 273.77,393.06 273.57,392.79 C272.97,391.99 272.66,391.34 272.64,391.02" fill="none" stroke="rgb(255, 0, 255)" stroke-width="4.00" stroke-opacity="1.00" stroke-linejoin="round"/>
<path d="M290.49,358.65 C290.49,358.65 290.85,358.70 290.85,358.70 C290.70,361.61 290.34,365.42 290.09,368.03 C288.98,380.68 289.79,396.99 290.47,400.65 C290.47,400.65 290.66,400.55 290.66,400.55 C290.66,400.55 290.68,400.39 290.68,400.39" fill="none" stroke="rgb(255, 0, 255)" stroke-width="4.00" stroke-opacity="1.00" stroke-linejoin="round"/>
<path d="M298.11,358.82 C298.11,358.82 297.95,358.91 297.95,358.91 C297.65,361.65 297.49,377.71 297.42,385.99 C297.41,387.37 297.38,390.00 297.35,391.26 C297.33,392.18 297.21,394.25 297.13,395.24 C297.13,395.27 297.10,395.34 297.10,395.32" fill="none" stroke="rgb(255, 0, 255)" stroke-width="4.00" stroke-opacity="1.00" stroke-linejoin="round"/>
<path d="M291.76,399.09 C291.76,399.09 291.41,398.53 291.41,398.53 C289.34,397.76 286.84,400.50 286.35,401.37 C286.73,402.26 291.13,402.65 295.96,402.70 C297.51,402.70 305.08,402.43 307.23,401.93 C307.88,401.77 308.22,401.36 308.55,400.80 C308.40,399.87 306.37,398.78 304.08,398.52 C301.82,398.27 293.85,398.54 291.53,398.18 C291.07,398.10 290.71,397.76 290.52,397.58" fill="none" stroke="rgb(255, 0, 255)" stroke-width="4.00" stroke-opacity="1.00" stroke-linejoin="round"/>
<path d="M244.24,364.59 C244.27,364.59 244.29,364.55 244.31,364.49 C244.33,364.43 244.37,364.26 244.43,363.98 C244.43,363.98 245.92,363.19 245.92,363.19 C244.44,364.44 241.98,368.00 241.59,369.66 C241.55,369.84 241.56,370.03 241.60,370.25 C242.43,370.82 245.81,368.70 248.70,365.68 C248.95,365.40 249.09,365.22 249.10,365.14 C249.06,365.07 247.39,368.15 246.80,370.90 C246.52,372.25 246.98,373.22 247.32,373.55 C248.13,373.91 250.39,372.23 251.14,370.52 C251.82,368.95 252.64,366.47 253.01,365.02 C253.35,372.99 254.12,375.57 255.14,376.55 C255.78,376.80 256.89,375.02 257.83,371.53 C258.37,369.46 258.63,368.28 258.96,366.41 C258.96,366.41 261.19,374.38 261.19,374.38 C261.95,374.02 262.18,373.10 262.19,369.34 C262.19,368.69 262.84,365.74 262.45,364.25 C261.83,362.00 260.27,360.91 259.43,360.33 C259.21,360.18 258.93,360.00 258.59,359.79" fill="none" stroke="rgb(255, 0, 255)" stroke-width="4.00" stroke-opacity="1.00" stroke-linejoin="round"/>
<path d="M248.15,362.01 C248.15,362.01 248.11,361.93 248.11,361.93" fill="none" stroke="rgb(255, 0, 255)" stroke-width="4.00" stroke-opacity="1.00" stroke-linejoin="round"/>
<path d="M248.59,361.60 C248.59,361.60 248.39,361.45 248.39,361.45 C248.07,361.63 247.51,362.04 246.16,363.08 C245.27,363.77 244.69,364.21 244.44,364.40 C244.19,364.58 243.82,364.84 243.31,365.19" fill="none" stroke="rgb(255, 0, 255)" stroke-width="4.00" stroke-opacity="1.00" stroke-linejoin="round"/>
<path d="M305.73,363.58 C305.74,363.55 305.74,363.52 305.73,363.50 C305.73,363.48 305.72,363.44 305.70,363.37 C305.70,363.37 305.48,363.35 305.48,363.35 C305.18,363.60 302.64,365.88 302.08,368.29 C301.38,371.53 301.98,374.05 302.47,375.03 C303.66,375.35 306.13,372.62 307.30,370.36 C307.53,369.90 307.85,369.06 307.97,368.73 C307.76,368.90 307.61,372.84 308.09,374.41 C308.62,376.08 309.43,376.79 309.96,377.03 C311.70,376.68 312.76,371.03 313.05,368.25 C313.18,368.50 314.93,372.95 316.79,374.44 C317.24,374.79 317.74,374.86 318.29,374.84 C318.81,374.52 319.22,372.56 318.65,370.97 C318.29,370.01 317.10,367.68 317.11,367.80 C316.03,369.69 321.26,372.15 321.96,371.88 C322.90,370.51 320.53,367.14 318.88,366.26 C322.13,367.36 323.92,366.55 324.42,366.23 C324.12,364.94 323.71,364.24 322.75,363.74 C320.90,362.77 317.60,361.76 315.82,361.75 C315.67,361.76 315.61,361.77 315.64,361.79" fill="none" stroke="rgb(255, 0, 255)" stroke-width="4.00" stroke-opacity="1.00" stroke-linejoin="round"/>
<path d="M277.48,309.05 C277.48,309.05 277.72,308.33 277.72,308.33 C277.72,308.33 277.51,308.40 277.51,308.40 C276.88,309.31 276.79,310.32 277.12,310.55 C277.55,310.83 278.58,310.43 278.99,309.75 C278.99,309.75 277.08,309.49 277.08,309.49 C277.75,310.25 278.18,310.45 278.62,310.06 C279.25,309.48 279.19,308.15 278.60,307.79 C278.16,307.55 277.77,307.76 277.68,307.87" fill="none" stroke="rgb(255, 0, 255)" stroke-width="4.00" stroke-opacity="1.00" stroke-linejoin="round"/>
<path d="M291.76,308.44 C291.76,308.44 291.77,307.28 291.77,307.28 C291.77,307.28 291.45,306.97 291.45,306.97 C291.45,306.97 288.98,308.08 288.98,308.08 C288.98,308.08 291.38,306.59 291.38,306.59 C291.38,306.59 289.35,308.19 289.35,308.19 C289.35,308.19 291.20,306.84 291.20,306.84 C291.20,306.84 289.09,308.08 289.09,308.08 C289.09,308.08 290.50,307.79 290.50,307.79" fill="none" stroke="rgb(255, 0, 255)" stroke-width="4.00" stroke-opacity="1.00" stroke-linejoin="round"/>
<path d="M285.62,311.28 C285.62,311.28 285.30,311.45 285.30,311.45 C285.30,311.45 285.28,311.35 285.28,311.35 C284.95,312.73 284.77,313.81 284.61,315.36 C284.52,316.26 284.44,316.63 284.31,316.88 C284.31,316.88 284.17,316.94 284.17,316.94 C284.17,316.94 284.08,316.91 284.08,316.91" fill="none" stroke="rgb(255, 0, 255)" stroke-width="4.00" stroke-opacity="1.00" stroke-linejoin="round"/>
<path d="M279.02,319.48 C279.02,319.48 278.79,318.94 278.79,318.94 C278.76,318.92 278.85,318.95 278.88,318.97 C281.30,320.35 282.75,320.93 284.23,321.04 C285.77,321.13 291.34,318.53 291.95,317.27 C292.07,317.01 291.91,316.58 291.86,316.55" fill="none" stroke="rgb(255, 0, 255)" stroke-width="4.00" stroke-opacity="1.00" stroke-linejoin="round"/>
<path d="M284.96,300.41 C284.96,300.41 284.95,299.87 284.95,299.87 C284.95,299.87 284.74,299.70 284.74,299.70 C283.78,299.69 279.61,301.56 277.82,302.90 C276.30,304.05 274.80,305.44 274.66,305.77 C274.66,305.77 290.02,298.31 290.02,298.31 C290.02,298.31 281.21,304.49 281.21,304.49 C281.21,304.49 292.69,297.07 292.69,297.07 C292.69,297.07 286.92,303.15 286.92,303.15 C286.92,303.15 295.04,297.76 295.04,297.76 C295.04,297.76 291.82,303.40 291.82,303.40 C291.82,303.40 295.84,301.28 295.84,301.28 C295.84,301.28 296.02,303.30 296.02,303.30 C296.02,303.30 299.20,302.07 299.20,302.07 C299.20,302.07 296.76,305.49 296.76,305.49" fill="none" stroke="rgb(255, 0, 255)" stroke-width="4.00" stroke-opacity="1.00" stroke-linejoin="round"/>
</g>
</svg>
