<?xml version="1.0" encoding="UTF-8" standalone="no"?>
<!DOCTYPE svg PUBLIC "-//W3C//DTD SVG 1.1//EN" "http://www.w3.org/Graphics/SVG/1.1/DTD/svg11.dtd">
<svg width="128.40" height="181.68" viewBox="0.00 0.00 535.00 757.00" xmlns="http://www.w3.org/2000/svg" xmlns:xlink="http://www.w3.org/1999/xlink">
<g stroke-linecap="round" transform="translate(44.00, 155.00)" id="215_번개">
<path d="M76.51,-127.59 C76.58,-127.84 76.63,-128.00 76.66,-128.09 C76.68,-128.18 76.73,-128.39 76.81,-128.70 C76.88,-129.02 76.95,-129.34 77.02,-129.66 C77.13,-121.41 78.44,-115.74 82.09,-103.13 C83.44,-98.55 85.67,-91.01 86.54,-88.04 C86.68,-87.88 91.01,-89.12 95.64,-89.10 C97.10,-89.03 100.29,-88.90 100.57,-88.71 C101.72,-87.90 107.50,-74.09 111.92,-62.63 C116.58,-50.42 117.12,-49.55 117.32,-49.75 C118.37,-53.26 118.27,-69.25 118.19,-76.63 C117.94,-84.90 116.81,-99.18 115.65,-101.44 C115.02,-101.75 114.63,-101.64 112.77,-100.54 C109.96,-98.87 105.66,-97.35 101.66,-96.03 C100.49,-98.46 77.53,-140.85 76.79,-142.06 C76.24,-142.95 75.77,-143.33 75.34,-143.45 C73.82,-141.95 73.11,-126.82 73.92,-119.22 C74.27,-116.03 75.19,-111.41 74.92,-110.79 C74.92,-110.79 73.56,-112.09 73.56,-112.09" fill="none" stroke="rgb(255, 255, 0)" stroke-width="4.09" stroke-opacity="1.00" stroke-linejoin="round"/>
</g>
</svg>
