<?xml version="1.0" encoding="UTF-8" standalone="no"?>
<!DOCTYPE svg PUBLIC "-//W3C//DTD SVG 1.1//EN" "http://www.w3.org/Graphics/SVG/1.1/DTD/svg11.dtd">
<svg width="128.40" height="181.68" viewBox="0.00 0.00 535.00 757.00" xmlns="http://www.w3.org/2000/svg" xmlns:xlink="http://www.w3.org/1999/xlink">
<g stroke-linecap="round" transform="translate(44.00, 155.00)" id="215_사람">
<path d="M213.44,118.08 C213.44,118.08 213.25,117.96 213.25,117.96 C213.10,118.57 213.39,120.60 214.17,124.66 C214.74,127.50 215.98,131.85 216.65,133.22 C218.16,136.30 221.12,141.11 222.72,143.09 C224.32,145.01 227.86,147.79 231.38,149.89 C232.72,150.69 240.86,155.27 241.54,155.76 C242.47,156.42 246.08,159.37 246.36,159.54 C247.31,160.12 250.43,158.61 251.76,157.17 C258.34,149.92 263.51,143.40 265.13,138.96 C265.77,137.16 271.02,117.98 271.14,117.02 C271.42,114.83 271.24,113.24 271.12,113.17 C271.12,113.17 270.84,113.41 270.84,113.41" fill="none" stroke="rgb(229, 129, 76)" stroke-width="4.09" stroke-opacity="1.00" stroke-linejoin="round"/>
<path d="M234.66,152.64 C234.66,152.64 233.66,151.91 233.66,151.91 C233.47,151.99 233.26,152.89 233.04,154.92 C232.42,161.37 232.33,164.96 232.49,166.46 C232.54,166.83 232.63,167.04 232.79,167.09" fill="none" stroke="rgb(229, 129, 76)" stroke-width="4.09" stroke-opacity="1.00" stroke-linejoin="round"/>
<path d="M257.17,152.40 C257.17,152.40 256.54,152.20 256.54,152.20 C256.54,152.20 256.12,152.46 256.12,152.46 C255.88,154.31 257.71,162.40 257.96,163.45 C258.07,163.91 258.23,164.61 258.44,165.56" fill="none" stroke="rgb(229, 129, 76)" stroke-width="4.09" stroke-opacity="1.00" stroke-linejoin="round"/>
<path d="M231.23,166.73 C231.23,166.73 230.52,166.08 230.52,166.08 C230.52,166.08 230.79,165.97 230.79,165.97 C232.21,166.46 247.50,174.15 247.99,174.72 C248.30,175.10 248.47,175.48 248.51,175.69" fill="none" stroke="rgb(229, 129, 76)" stroke-width="4.09" stroke-opacity="1.00" stroke-linejoin="round"/>
<path d="M225.12,168.59 C225.29,168.30 225.41,168.09 225.46,167.97 C225.59,167.64 225.66,167.14 225.63,167.04 C225.47,166.77 220.42,169.44 219.89,170.08 C219.84,170.15 219.75,170.30 219.63,170.53 C219.59,170.89 237.65,182.12 240.24,183.18 C240.70,183.37 241.25,183.51 241.88,183.61 C242.38,183.28 242.86,182.01 243.11,181.52 C243.43,180.88 244.08,179.77 245.05,178.17 C245.14,178.02 245.38,177.58 245.34,177.75" fill="none" stroke="rgb(229, 129, 76)" stroke-width="4.09" stroke-opacity="1.00" stroke-linejoin="round"/>
<path d="M256.39,168.90 C255.84,169.57 255.43,170.05 255.15,170.33 C254.49,170.98 250.44,174.81 249.87,175.57 C252.87,179.20 257.01,181.50 257.92,181.53 C259.13,180.84 265.13,175.33 267.00,173.37 C268.86,171.40 270.42,169.40 270.40,169.30" fill="none" stroke="rgb(229, 129, 76)" stroke-width="4.09" stroke-opacity="1.00" stroke-linejoin="round"/>
<path d="M257.68,156.54 C257.68,156.54 257.55,156.60 257.55,156.60 C259.88,160.53 262.00,162.90 263.67,163.85 C265.67,164.95 270.10,165.83 273.58,166.17 C275.67,166.32 278.01,166.50 278.22,166.54" fill="none" stroke="rgb(229, 129, 76)" stroke-width="4.09" stroke-opacity="1.00" stroke-linejoin="round"/>
<path d="M223.59,168.70 C223.60,168.52 223.60,168.40 223.59,168.34 C223.58,168.28 223.54,168.20 223.48,168.09 C222.53,167.71 221.83,167.49 221.38,167.44 C221.27,167.43 210.05,168.17 208.48,168.31 C201.82,168.95 196.98,169.78 194.71,171.05 C192.49,172.35 190.25,176.72 189.53,179.50 C188.52,183.62 188.17,194.67 188.70,199.97 C189.71,208.89 193.55,224.14 193.85,225.60 C194.49,228.68 195.31,244.68 195.79,248.26 C196.05,250.13 196.28,250.98 196.55,251.36 C196.55,251.36 196.66,251.28 196.66,251.28" fill="none" stroke="rgb(229, 129, 76)" stroke-width="4.09" stroke-opacity="1.00" stroke-linejoin="round"/>
<path d="M214.76,194.29 C214.69,194.09 214.63,193.90 214.60,193.74 C214.31,192.27 213.22,191.57 212.34,191.74 C211.23,191.99 209.53,193.92 208.95,196.01 C207.99,199.61 207.69,218.33 207.78,222.35 C207.97,229.02 207.17,239.85 205.94,244.60 C203.75,252.86 201.56,257.77 200.64,260.22 C200.64,260.03 200.64,259.83 200.64,259.64 C200.64,259.49 200.64,259.30 200.64,259.26" fill="none" stroke="rgb(229, 129, 76)" stroke-width="4.09" stroke-opacity="1.00" stroke-linejoin="round"/>
<path d="M199.28,257.44 C199.03,257.45 197.49,256.51 197.32,256.42 C196.09,255.79 191.96,255.12 190.39,255.39 C189.39,255.58 187.83,256.56 187.25,257.40 C186.66,258.30 186.00,260.65 186.04,261.77 C186.19,264.02 189.12,267.55 190.52,268.27 C192.24,269.10 193.95,269.49 194.61,269.08 C195.20,268.69 195.86,267.86 196.02,267.46" fill="none" stroke="rgb(229, 129, 76)" stroke-width="4.09" stroke-opacity="1.00" stroke-linejoin="round"/>
<path d="M195.68,255.54 C195.63,255.47 195.60,255.42 195.57,255.38 C195.50,255.29 195.42,255.22 195.37,255.13 C195.35,255.09 195.34,255.05 195.34,255.01 C195.89,255.15 199.59,259.42 200.32,261.43 C200.97,263.32 200.89,266.70 200.02,267.67 C198.37,268.10 195.51,264.30 195.31,264.20 C195.17,264.13 194.86,264.10 194.39,264.12 C194.39,264.12 194.20,264.00 194.20,264.00" fill="none" stroke="rgb(229, 129, 76)" stroke-width="4.09" stroke-opacity="1.00" stroke-linejoin="round"/>
<path d="M186.92,258.90 C186.89,258.83 186.86,258.76 186.83,258.68 C186.81,258.62 186.78,258.55 186.76,258.48 C186.76,258.59 187.29,259.11 187.96,259.55 C191.42,261.68 193.84,263.73 195.24,265.11 C195.50,265.37 195.76,265.63 196.01,265.89" fill="none" stroke="rgb(229, 129, 76)" stroke-width="4.09" stroke-opacity="1.00" stroke-linejoin="round"/>
<path d="M214.53,192.58 C214.53,192.58 214.05,192.85 214.05,192.85 C214.05,193.05 214.92,193.82 215.21,194.21 C217.11,196.78 221.53,208.33 223.75,216.56 C225.81,224.48 227.39,236.33 227.33,243.75 C227.18,246.91 227.02,250.46 227.15,251.14 C227.15,251.14 227.38,251.30 227.38,251.30" fill="none" stroke="rgb(229, 129, 76)" stroke-width="4.09" stroke-opacity="1.00" stroke-linejoin="round"/>
<path d="M283.24,193.13 C283.24,193.13 283.36,192.22 283.36,192.22 C283.36,192.22 283.18,192.13 283.18,192.13 C282.68,192.27 281.67,193.23 281.40,196.62 C280.85,204.13 283.78,245.69 283.83,247.93 C283.83,248.34 283.82,249.14 283.79,250.33 C283.79,250.33 283.68,250.44 283.68,250.44" fill="none" stroke="rgb(229, 129, 76)" stroke-width="4.09" stroke-opacity="1.00" stroke-linejoin="round"/>
<path d="M229.91,249.72 C229.71,249.70 229.40,249.54 229.28,249.47 C229.22,249.44 229.12,249.39 228.97,249.33 C229.29,249.64 234.76,251.90 237.59,252.73 C240.96,253.68 248.30,255.04 251.64,255.27 C254.84,255.47 261.91,255.05 265.09,254.50 C268.77,253.84 274.38,252.06 276.06,250.62 C277.06,249.75 278.93,247.37 279.59,246.22 C280.16,245.20 280.50,244.10 280.69,243.02" fill="none" stroke="rgb(229, 129, 76)" stroke-width="4.09" stroke-opacity="1.00" stroke-linejoin="round"/>
<path d="M279.58,165.97 C279.58,165.97 278.88,165.85 278.88,165.85 C278.88,165.85 278.98,165.51 278.98,165.51 C283.26,164.06 293.27,162.93 299.10,163.48 C302.37,163.81 307.88,164.97 310.14,165.73 C312.70,166.61 315.66,168.61 317.17,170.40 C318.82,172.44 321.39,178.28 321.66,180.47 C323.04,193.11 323.28,210.73 323.37,213.19 C323.40,215.02 322.54,217.20 322.26,217.43" fill="none" stroke="rgb(229, 129, 76)" stroke-width="4.09" stroke-opacity="1.00" stroke-linejoin="round"/>
<path d="M323.99,216.25 C323.74,216.59 323.66,217.04 323.66,218.41 C323.62,224.49 323.56,242.13 323.23,246.04 C322.95,249.09 321.75,252.34 320.71,252.85 C320.39,252.99 319.95,252.88 319.49,252.65" fill="none" stroke="rgb(229, 129, 76)" stroke-width="4.09" stroke-opacity="1.00" stroke-linejoin="round"/>
<path d="M283.01,193.09 C283.01,193.09 282.43,192.88 282.43,192.88 C282.43,192.88 282.38,192.74 282.38,192.74 C283.59,191.04 287.70,187.67 289.17,187.59 C290.50,187.57 293.17,188.95 294.79,191.41 C296.40,193.91 297.36,197.71 297.59,200.71 C297.68,201.86 298.17,208.54 298.97,210.76 C299.35,211.79 302.24,217.42 302.96,220.02 C305.11,228.01 306.17,234.26 307.32,245.15 C307.68,248.66 308.79,252.82 309.82,253.41 C310.81,253.86 314.92,252.42 316.65,250.79 C318.69,248.78 320.13,244.15 320.05,241.11 C320.03,240.75 319.97,240.06 319.87,239.03" fill="none" stroke="rgb(229, 129, 76)" stroke-width="4.09" stroke-opacity="1.00" stroke-linejoin="round"/>
<path d="M315.60,253.46 C315.58,253.30 315.58,253.16 315.61,253.02 C315.82,252.34 316.16,250.95 315.85,250.40 C315.38,249.63 312.70,248.56 310.48,248.38 C307.56,248.20 302.90,249.07 302.17,250.13 C301.43,251.36 301.29,254.05 302.19,255.72 C303.18,257.46 307.25,260.19 309.70,260.66 C312.51,261.14 315.68,259.64 316.14,258.27 C316.47,257.01 315.51,253.21 313.25,250.51 C310.83,247.67 308.13,245.89 306.71,245.09" fill="none" stroke="rgb(229, 129, 76)" stroke-width="4.09" stroke-opacity="1.00" stroke-linejoin="round"/>
<path d="M224.10,246.46 C224.14,245.76 224.12,245.36 224.13,245.25 C224.14,245.20 224.16,245.10 224.20,244.94 C224.20,244.94 224.12,244.80 224.12,244.80 C223.43,245.73 223.35,255.11 223.46,256.45 C223.72,259.45 224.33,261.01 224.44,261.17" fill="none" stroke="rgb(229, 129, 76)" stroke-width="4.09" stroke-opacity="1.00" stroke-linejoin="round"/>
<path d="M225.12,261.77 C225.05,261.42 225.00,261.18 224.96,261.05 C224.88,260.73 224.79,260.47 224.70,260.27 C224.64,260.15 224.50,259.94 224.30,259.64 C224.01,259.72 222.18,262.71 222.00,270.47 C221.96,277.54 221.51,318.95 222.21,323.83 C223.08,329.92 226.52,350.89 229.48,357.48 C230.18,358.98 231.67,359.57 232.24,359.55 C232.24,359.55 232.77,359.22 232.77,359.22" fill="none" stroke="rgb(229, 129, 76)" stroke-width="4.09" stroke-opacity="1.00" stroke-linejoin="round"/>
<path d="M252.11,288.43 C252.14,288.42 252.18,288.36 252.22,288.24 C252.34,287.87 252.62,286.88 252.71,286.61 C251.69,286.51 248.76,295.23 246.40,306.11 C242.92,322.95 239.73,343.48 239.85,352.76 C239.88,355.09 240.01,356.35 240.23,357.14" fill="none" stroke="rgb(229, 129, 76)" stroke-width="4.09" stroke-opacity="1.00" stroke-linejoin="round"/>
<path d="M245.15,287.54 C245.23,287.49 245.28,287.45 245.31,287.40 C245.33,287.35 245.37,287.24 245.43,287.06 C246.55,286.39 249.90,285.63 251.57,286.83 C252.59,287.62 257.18,294.42 257.78,295.72 C259.35,299.32 260.98,314.29 260.66,322.44 C260.56,324.76 260.48,325.97 260.26,328.42 C260.24,328.70 260.22,328.97 260.19,329.25" fill="none" stroke="rgb(229, 129, 76)" stroke-width="4.09" stroke-opacity="1.00" stroke-linejoin="round"/>
<path d="M257.95,321.32 C257.95,321.32 257.76,321.34 257.76,321.34 C257.62,321.42 257.48,322.01 257.49,323.12 C257.57,330.43 262.28,349.40 262.39,349.98 C262.61,351.09 262.86,353.01 262.84,352.94" fill="none" stroke="rgb(229, 129, 76)" stroke-width="4.09" stroke-opacity="1.00" stroke-linejoin="round"/>
<path d="M263.65,351.95 C263.65,351.95 263.20,352.09 263.20,352.09 C262.20,354.32 262.76,368.57 263.99,371.89 C264.53,373.33 265.44,374.65 265.64,374.53 C265.64,374.53 266.05,374.10 266.05,374.10" fill="none" stroke="rgb(229, 129, 76)" stroke-width="4.09" stroke-opacity="1.00" stroke-linejoin="round"/>
<path d="M281.38,255.15 C281.58,254.71 281.73,254.37 281.82,254.14 C282.32,252.87 282.45,252.66 282.75,252.54 C283.06,252.98 283.80,264.89 285.45,276.61 C286.26,282.63 286.55,290.81 286.05,300.20 C284.61,317.12 283.51,342.67 281.49,352.28 C281.37,352.83 280.55,355.71 280.26,356.75 C280.30,356.67 280.32,356.62 280.33,356.59 C280.34,356.56 280.35,356.52 280.35,356.46" fill="none" stroke="rgb(229, 129, 76)" stroke-width="4.09" stroke-opacity="1.00" stroke-linejoin="round"/>
<path d="M279.98,351.03 C279.60,351.23 279.10,351.85 278.64,352.97 C276.62,357.95 275.27,365.68 275.42,368.86 C275.44,369.34 275.53,369.92 275.67,370.61 C275.67,370.61 275.67,370.23 275.67,370.23" fill="none" stroke="rgb(229, 129, 76)" stroke-width="4.09" stroke-opacity="1.00" stroke-linejoin="round"/>
<path d="M226.31,353.95 C226.30,354.10 226.30,354.21 226.31,354.28 C226.31,354.55 226.31,354.72 226.30,354.80 C226.25,355.24 225.52,361.05 225.90,363.27 C226.48,366.33 230.77,373.76 231.49,374.03 C233.18,374.58 237.04,373.02 238.55,371.04 C240.17,368.80 241.67,363.44 241.71,360.67 C241.72,358.28 240.96,353.71 240.36,352.45 C240.01,351.73 239.36,351.15 238.51,350.64 C238.51,350.64 238.20,350.73 238.20,350.73" fill="none" stroke="rgb(229, 129, 76)" stroke-width="4.09" stroke-opacity="1.00" stroke-linejoin="round"/>
<path d="M228.41,361.69 C228.41,361.69 228.55,362.02 228.55,362.02 C228.69,362.08 231.95,359.94 234.79,359.38 C235.83,359.19 238.30,360.14 240.66,362.49 C240.94,362.77 241.25,363.12 241.59,363.54" fill="none" stroke="rgb(229, 129, 76)" stroke-width="4.09" stroke-opacity="1.00" stroke-linejoin="round"/>
<path d="M263.79,366.17 C264.01,366.27 264.16,366.35 264.23,366.40 C264.31,366.45 264.43,366.54 264.58,366.68 C264.58,366.68 263.27,370.24 263.27,370.24 C265.02,368.89 266.97,367.75 268.48,367.42 C269.89,367.12 272.03,367.17 272.86,367.46 C274.50,368.16 277.05,372.30 276.95,374.82 C276.93,375.11 276.84,375.51 276.67,376.03" fill="none" stroke="rgb(229, 129, 76)" stroke-width="4.09" stroke-opacity="1.00" stroke-linejoin="round"/>
<path d="M252.31,188.49 C252.31,188.49 252.24,186.93 252.24,186.93 C252.24,186.93 251.28,185.95 251.28,185.95 C250.80,186.13 250.65,186.22 250.48,186.67 C249.63,188.90 249.75,190.73 250.43,191.25 C250.43,191.25 251.47,189.26 251.47,189.26 C250.68,188.92 249.17,189.69 249.12,189.97 C249.12,190.00 249.13,189.92 249.14,189.89 C249.29,189.26 249.45,188.63 249.60,188.01" fill="none" stroke="rgb(229, 129, 76)" stroke-width="4.09" stroke-opacity="1.00" stroke-linejoin="round"/>
<path d="M248.64,178.78 C248.64,178.78 247.92,179.14 247.92,179.14 C247.92,179.14 247.98,182.55 247.98,182.55 C247.98,182.55 248.67,181.32 248.67,181.32 C248.67,181.32 247.50,182.61 247.50,182.61" fill="none" stroke="rgb(229, 129, 76)" stroke-width="4.09" stroke-opacity="1.00" stroke-linejoin="round"/>
<path d="M252.75,198.47 C252.75,198.47 252.46,197.37 252.46,197.37 C252.46,197.37 251.97,200.16 251.97,200.16 C251.97,200.16 252.59,198.20 252.59,198.20 C252.59,198.20 250.99,199.31 250.99,199.31" fill="none" stroke="rgb(229, 129, 76)" stroke-width="4.09" stroke-opacity="1.00" stroke-linejoin="round"/>
<path d="M254.38,207.67 C254.38,207.67 253.95,207.44 253.95,207.44 C251.87,207.77 252.16,210.61 252.77,211.37 C253.80,211.08 254.32,210.60 254.29,209.71 C254.21,208.05 253.29,207.21 252.57,206.82 C251.87,206.90 251.32,207.18 250.98,207.71 C250.72,208.12 250.64,208.76 250.66,209.58" fill="none" stroke="rgb(229, 129, 76)" stroke-width="4.09" stroke-opacity="1.00" stroke-linejoin="round"/>
<path d="M255.20,219.25 C255.20,219.25 254.65,218.41 254.65,218.41 C253.61,218.10 252.76,218.43 252.47,219.09 C252.10,219.97 252.47,221.61 253.14,221.92 C255.11,221.15 254.10,219.04 253.80,218.78 C253.80,218.78 252.88,219.26 252.88,219.26" fill="none" stroke="rgb(229, 129, 76)" stroke-width="4.09" stroke-opacity="1.00" stroke-linejoin="round"/>
<path d="M256.66,232.52 C256.66,232.52 256.23,231.58 256.23,231.58 C256.23,231.58 255.51,231.18 255.51,231.18 C255.51,231.18 255.14,233.07 255.14,233.07 C255.14,233.07 255.86,231.04 255.86,231.04 C255.86,231.04 255.50,231.24 255.50,231.24 C255.30,231.70 255.22,231.94 255.20,232.18 C255.19,232.25 255.18,232.35 255.17,232.49" fill="none" stroke="rgb(229, 129, 76)" stroke-width="4.09" stroke-opacity="1.00" stroke-linejoin="round"/>
<path d="M255.50,239.62 C255.50,239.62 255.50,239.29 255.50,239.29 C255.50,239.29 256.87,240.91 256.87,240.91 C258.59,240.30 256.97,238.84 256.37,238.88 C256.37,238.88 256.05,239.25 256.05,239.25" fill="none" stroke="rgb(229, 129, 76)" stroke-width="4.09" stroke-opacity="1.00" stroke-linejoin="round"/>
<path d="M256.69,247.97 C256.67,248.09 256.67,248.25 256.69,248.46 C256.81,249.73 257.03,250.47 257.25,250.43 C257.10,249.07 256.85,248.43 256.10,248.26 C255.98,248.23 255.34,248.11 254.19,247.88" fill="none" stroke="rgb(229, 129, 76)" stroke-width="4.09" stroke-opacity="1.00" stroke-linejoin="round"/>
<path d="M213.81,129.11 C213.78,128.85 214.85,127.36 214.39,126.54 C213.22,124.68 208.68,124.46 207.79,125.16 C207.83,126.99 208.19,128.00 209.23,128.75 C211.06,130.06 212.63,130.60 213.79,130.89" fill="none" stroke="rgb(229, 129, 76)" stroke-width="4.09" stroke-opacity="1.00" stroke-linejoin="round"/>
<path d="M267.96,121.44 C267.97,121.31 267.97,121.21 267.96,121.15 C267.95,121.09 267.91,120.99 267.84,120.83 C267.84,120.83 274.14,121.21 274.14,121.21 C274.47,122.19 270.45,135.39 270.09,136.28 C269.34,138.04 267.68,139.47 267.36,139.47" fill="none" stroke="rgb(229, 129, 76)" stroke-width="4.09" stroke-opacity="1.00" stroke-linejoin="round"/>
<path d="M228.51,100.39 C228.51,100.39 228.52,100.02 228.52,100.02 C228.35,100.07 228.11,100.14 227.82,100.26 C225.20,101.28 220.63,104.10 219.09,105.77 C216.93,108.16 214.62,114.65 215.22,116.89 C215.55,117.96 216.92,119.29 218.05,119.79 C218.32,119.91 218.78,120.05 219.42,120.21" fill="none" stroke="rgb(229, 129, 76)" stroke-width="4.09" stroke-opacity="1.00" stroke-linejoin="round"/>
<path d="M228.48,99.64 C228.48,99.64 228.71,99.19 228.71,99.19 C229.89,99.13 232.29,100.21 233.21,101.48 C233.76,102.25 234.09,102.87 234.22,103.33 C234.27,103.55 234.19,103.76 233.98,103.95" fill="none" stroke="rgb(229, 129, 76)" stroke-width="4.09" stroke-opacity="1.00" stroke-linejoin="round"/>
<path d="M232.55,99.95 C232.57,99.82 232.58,99.72 232.59,99.65 C232.61,99.55 232.73,98.93 232.78,98.70 C234.51,97.71 239.40,96.33 242.77,95.74 C245.36,95.33 249.91,95.70 252.46,96.56 C254.39,97.25 260.61,100.24 262.87,102.58 C263.90,103.67 266.54,107.31 267.41,108.78 C268.55,110.76 269.20,113.20 268.97,114.47 C268.91,114.76 268.74,115.16 268.44,115.67 C268.44,115.67 268.19,115.76 268.19,115.76" fill="none" stroke="rgb(229, 129, 76)" stroke-width="4.09" stroke-opacity="1.00" stroke-linejoin="round"/>
<path d="M223.96,103.27 C222.50,104.00 219.25,105.93 218.65,107.26 C218.01,108.76 218.38,110.90 219.35,111.33 C220.28,111.69 221.16,111.06 221.41,110.64 C220.61,109.64 219.85,109.18 219.01,109.41 C214.72,110.67 216.59,114.81 217.28,115.52 C218.83,115.80 220.52,114.13 220.39,112.81 C219.06,112.59 218.35,112.72 218.04,113.43 C217.74,114.16 217.77,115.24 218.15,115.80 C218.93,116.85 222.37,116.43 223.49,115.03 C224.08,114.27 224.31,113.27 224.21,112.42 C222.69,113.11 222.17,113.81 222.63,114.93 C223.10,116.03 224.11,117.02 225.03,117.25 C227.28,117.73 230.05,114.32 230.16,114.28 C230.79,115.86 232.57,116.85 233.58,116.02 C234.63,115.09 234.39,112.34 233.73,111.60 C233.09,110.94 231.35,110.79 230.60,111.17 C229.88,111.57 228.97,113.08 229.12,113.85 C229.28,114.56 230.54,115.00 231.30,114.61 C232.11,114.15 233.07,112.34 232.97,111.16 C232.46,106.83 228.06,105.98 226.85,106.10 C226.85,106.10 225.71,106.99 225.71,106.99 C225.71,106.99 226.17,109.26 226.17,109.26 C226.17,109.26 228.46,109.03 228.46,109.03 C228.99,108.14 229.28,106.85 228.98,105.87 C228.27,103.70 226.17,103.13 224.93,103.15 C224.93,103.15 223.82,104.05 223.82,104.05 C223.82,104.05 224.49,106.49 224.49,106.49 C226.58,107.20 227.97,106.25 228.84,105.29 C229.07,104.18 228.95,103.24 228.31,102.92 C227.60,102.59 225.95,103.09 225.17,103.90 C224.48,104.66 223.84,106.97 224.05,108.06 C224.29,109.14 225.72,110.79 226.61,111.05 C228.69,111.57 230.75,109.07 230.40,108.32 C230.37,108.25 230.27,108.12 230.12,107.93 C230.12,107.93 228.48,108.79 228.48,108.79 C228.35,110.24 229.37,111.42 230.04,111.45 C232.21,111.49 235.62,109.24 237.45,107.38 C237.45,107.38 237.29,111.78 237.29,111.78 C238.67,112.29 239.51,112.24 239.92,111.42 C240.27,110.73 240.28,109.91 240.08,109.17 C238.55,108.71 237.71,108.78 237.34,109.59 C236.97,110.41 237.04,111.21 237.44,112.09 C239.31,112.57 240.42,112.43 241.01,111.43 C241.45,110.64 241.65,108.98 241.37,108.17 C241.09,107.42 239.79,106.13 239.10,105.91 C237.32,105.39 236.25,106.83 236.05,107.56 C236.05,107.56 237.38,108.88 237.38,108.88 C238.18,108.64 239.14,107.95 239.53,107.10 C239.90,106.27 240.01,103.99 239.71,103.02 C238.81,100.27 236.69,99.10 235.64,98.95 C234.79,99.99 234.57,100.50 234.88,100.96 C235.57,101.95 237.04,102.94 238.18,103.04 C240.64,103.21 242.93,100.51 242.50,99.74 C238.26,98.67 239.16,104.16 239.66,105.12 C239.66,105.12 241.01,105.36 241.01,105.36 C242.92,104.52 244.52,101.80 244.27,100.44 C243.05,101.17 242.41,101.96 242.34,103.16 C242.26,104.48 242.65,105.60 243.41,106.62 C245.64,106.59 246.84,106.09 247.36,104.71 C248.20,102.42 246.94,99.51 246.07,99.55 C245.43,99.65 244.29,100.82 244.03,101.78 C243.73,102.97 244.12,105.35 244.72,106.20 C245.31,106.99 246.64,107.37 247.34,106.95 C248.06,106.48 248.63,104.43 248.29,103.25 C247.92,102.04 246.20,100.23 245.17,100.05 C244.10,99.89 242.27,101.18 241.89,102.37 C241.54,103.55 242.24,106.43 243.02,107.31 C244.74,109.15 248.15,109.57 249.89,109.30 C249.89,109.30 249.48,114.73 249.48,114.73 C251.01,115.42 251.90,115.51 252.48,114.88 C252.95,114.38 253.22,113.83 253.32,113.36 C252.79,113.68 253.35,115.97 254.30,116.35 C254.46,116.41 254.78,116.45 255.24,116.45 C255.24,116.45 256.39,113.36 256.39,113.36 C256.22,114.08 258.18,116.19 259.49,116.14 C261.04,116.03 261.52,114.49 261.58,113.56 C260.43,114.03 260.07,114.69 260.62,115.74 C261.41,117.21 263.55,117.38 263.92,116.69 C265.83,112.54 262.40,111.37 261.82,111.24 C261.31,112.22 261.32,113.07 261.99,113.93 C262.57,114.67 263.38,115.11 264.41,115.37 C265.54,113.98 265.83,112.75 265.03,111.51 C264.27,110.39 262.37,108.90 261.19,108.58 C259.79,108.25 257.52,108.68 256.67,109.44 C255.51,110.55 256.00,112.59 256.60,112.92 C257.45,113.34 259.18,113.12 260.23,112.42 C261.12,111.80 262.25,109.62 262.26,108.59 C262.25,107.58 261.08,105.40 260.21,104.93 C259.10,104.37 257.13,104.69 256.03,105.55 C255.17,106.26 254.40,108.51 254.59,109.49 C254.80,110.44 256.25,111.85 257.14,111.85 C258.23,111.82 259.77,110.73 260.14,109.69 C260.50,108.58 259.62,106.12 258.53,104.98 C257.45,103.90 254.96,102.75 253.78,102.79 C252.65,102.85 251.50,104.03 251.60,104.85 C251.71,105.62 252.82,106.88 253.52,107.01 C254.26,107.13 255.34,106.08 255.27,105.30 C255.15,104.34 254.18,102.93 253.18,102.45 C251.48,101.68 249.85,103.05 249.44,103.73 C250.49,104.11 251.11,103.67 250.87,102.33 C250.65,101.24 249.41,99.29 248.44,98.64 C247.23,97.88 244.74,97.49 243.26,97.85 C240.59,98.57 238.55,100.70 237.54,101.98" fill="none" stroke="rgb(229, 129, 76)" stroke-width="4.09" stroke-opacity="1.00" stroke-linejoin="round"/>
<path d="M221.04,120.76 C220.63,120.99 220.38,121.13 220.29,121.20 C220.22,121.24 220.16,121.33 220.09,121.47 C220.07,121.51 220.03,121.56 219.98,121.63 C221.53,121.45 224.97,121.02 225.89,120.76 C226.86,120.49 228.91,119.67 228.85,119.68" fill="none" stroke="rgb(229, 129, 76)" stroke-width="4.09" stroke-opacity="1.00" stroke-linejoin="round"/>
<path d="M226.30,123.78 C226.27,123.78 226.25,123.77 226.21,123.73 C225.88,123.41 225.22,123.16 224.43,123.22 C222.25,123.42 218.28,124.93 218.03,125.68 C218.46,126.55 218.93,127.00 219.82,127.13 C223.91,127.71 230.92,124.78 231.09,124.25 C229.81,121.81 223.02,123.56 221.65,124.25 C221.65,124.25 223.92,124.81 223.92,124.81" fill="none" stroke="rgb(229, 129, 76)" stroke-width="4.09" stroke-opacity="1.00" stroke-linejoin="round"/>
<path d="M226.07,122.46 C226.07,122.46 225.86,122.33 225.86,122.33 C225.81,122.79 226.02,124.12 226.41,125.21 C226.55,125.57 226.82,126.21 227.25,127.12" fill="none" stroke="rgb(229, 129, 76)" stroke-width="4.09" stroke-opacity="1.00" stroke-linejoin="round"/>
<path d="M249.59,124.63 C249.60,124.55 249.61,124.48 249.63,124.44 C249.66,124.40 249.73,124.32 249.85,124.21 C250.20,124.20 250.52,124.20 250.79,124.21 C255.11,124.30 258.49,124.17 261.25,124.04 C263.10,124.00 263.08,127.47 262.42,128.11 C261.76,128.18 261.51,128.17 261.29,128.08 C261.26,128.06 261.22,128.05 261.16,128.05" fill="none" stroke="rgb(229, 129, 76)" stroke-width="4.09" stroke-opacity="1.00" stroke-linejoin="round"/>
<path d="M253.70,125.72 C253.70,125.72 253.34,125.21 253.34,125.21 C253.34,125.21 252.68,125.07 252.68,125.07 C251.88,125.57 251.50,127.09 252.07,127.89 C252.75,128.77 255.69,129.73 257.41,129.61 C259.44,129.45 262.23,128.89 263.36,128.41 C263.84,128.20 264.11,127.91 264.26,127.65 C264.26,127.65 264.18,127.49 264.18,127.49" fill="none" stroke="rgb(229, 129, 76)" stroke-width="4.09" stroke-opacity="1.00" stroke-linejoin="round"/>
<path d="M256.79,125.85 C256.77,125.65 256.73,125.49 256.70,125.38 C256.66,125.27 256.56,125.05 256.41,124.71 C257.07,126.13 257.61,127.51 257.84,127.93 C257.91,128.04 257.99,128.11 258.10,128.14 C258.10,128.14 258.12,127.86 258.12,127.86" fill="none" stroke="rgb(229, 129, 76)" stroke-width="4.09" stroke-opacity="1.00" stroke-linejoin="round"/>
<path d="M253.67,121.23 C253.67,121.23 253.33,120.03 253.33,120.03 C253.33,120.03 253.13,120.00 253.13,120.00 C254.52,119.98 258.34,119.95 258.93,119.97 C259.31,119.99 259.78,120.05 260.35,120.14" fill="none" stroke="rgb(229, 129, 76)" stroke-width="4.09" stroke-opacity="1.00" stroke-linejoin="round"/>
<path d="M240.15,125.75 C240.13,125.90 240.12,126.01 240.13,126.06 C240.14,126.19 240.35,126.81 240.27,127.20 C240.21,127.53 238.59,133.11 238.78,135.57 C238.98,137.66 239.71,138.71 240.12,139.04 C240.12,139.04 242.97,136.66 242.97,136.66 C243.39,137.01 244.13,138.11 244.49,138.44 C245.03,138.95 245.90,138.98 246.51,138.67 C246.64,138.60 246.77,138.52 246.90,138.45 C246.86,138.66 246.83,138.82 246.79,138.92 C246.76,139.02 246.69,139.19 246.58,139.45" fill="none" stroke="rgb(229, 129, 76)" stroke-width="4.09" stroke-opacity="1.00" stroke-linejoin="round"/>
<path d="M235.13,145.81 C235.13,145.81 235.00,145.77 235.00,145.77 C235.00,145.77 234.89,145.84 234.89,145.84 C234.90,145.96 236.10,147.05 243.32,145.76 C246.84,145.14 249.25,145.90 249.62,146.93 C249.93,147.93 249.31,149.75 248.49,150.30 C245.12,152.11 235.98,146.32 235.19,145.55 C235.19,145.55 235.38,145.03 235.38,145.03" fill="none" stroke="rgb(229, 129, 76)" stroke-width="4.09" stroke-opacity="1.00" stroke-linejoin="round"/>
</g>
</svg>
