<?xml version="1.0" encoding="UTF-8" standalone="no"?>
<!DOCTYPE svg PUBLIC "-//W3C//DTD SVG 1.1//EN" "http://www.w3.org/Graphics/SVG/1.1/DTD/svg11.dtd">
<svg width="128.40" height="181.68" viewBox="0.00 0.00 535.00 757.00" xmlns="http://www.w3.org/2000/svg" xmlns:xlink="http://www.w3.org/1999/xlink">
<g stroke-linecap="round" transform="translate(44.00, 155.00)" id="215_웅덩이">
<path d="M142.36,396.38 C142.38,396.35 142.41,396.28 142.44,396.16 C142.65,395.27 142.68,393.78 142.28,393.10 C141.70,392.20 139.13,391.21 137.12,391.16 C135.13,391.14 131.43,392.03 129.81,392.81 C129.05,393.21 127.93,394.60 127.70,395.21 C127.16,396.93 128.56,402.15 130.69,406.63 C132.26,409.88 144.01,425.46 145.69,427.14 C146.20,427.62 148.88,429.35 149.77,429.61 C151.28,430.02 153.77,428.86 154.83,427.44 C155.27,426.81 156.69,423.57 157.07,422.90 C157.56,422.07 158.82,421.41 159.76,421.63 C160.56,421.84 179.42,429.74 184.93,431.37 C188.91,432.50 195.70,432.88 199.01,432.21 C202.24,431.49 207.24,428.42 209.12,426.71 C210.90,425.04 213.63,420.94 214.48,418.64 C215.34,416.23 216.31,409.78 216.78,409.11 C217.14,408.62 223.51,402.69 224.22,400.61 C224.65,399.25 224.76,397.73 224.57,396.20 C224.35,394.85 223.53,393.25 222.55,392.31 C221.74,391.56 219.12,390.20 217.77,389.77 C217.10,389.57 207.08,387.30 204.29,385.62 C203.74,385.28 198.99,381.87 195.37,380.00 C191.49,378.01 182.98,373.71 180.30,372.57 C177.78,371.52 171.25,370.24 168.22,370.62 C164.12,371.20 149.16,378.23 147.98,379.37 C144.89,382.49 140.22,393.52 140.10,395.86 C140.10,395.86 141.04,396.28 141.04,396.28" fill="none" stroke="rgb(0, 255, 0)" stroke-width="4.09" stroke-opacity="1.00" stroke-linejoin="round"/>
</g>
</svg>
