<?xml version="1.0" encoding="UTF-8" standalone="no"?>
<!DOCTYPE svg PUBLIC "-//W3C//DTD SVG 1.1//EN" "http://www.w3.org/Graphics/SVG/1.1/DTD/svg11.dtd">
<svg width="128.40" height="181.68" viewBox="0.00 0.00 535.00 757.00" xmlns="http://www.w3.org/2000/svg" xmlns:xlink="http://www.w3.org/1999/xlink">
<g stroke-linecap="round" transform="translate(44.00, 155.00)" id="216_비">
<path d="M-16.05,-103.65 C-16.05,-103.65 -17.14,-103.50 -17.14,-103.50 C-17.35,-102.70 -19.23,-64.37 -20.03,-49.95 C-20.40,-39.63 -20.61,-10.68 -20.63,-3.35 C-20.56,1.45 -20.44,8.63 -20.67,10.37" fill="none" stroke="rgb(255, 0, 0)" stroke-width="3.41" stroke-opacity="1.00" stroke-linejoin="round"/>
<path d="M-23.71,-70.99 C-23.71,-70.99 -22.89,-85.05 -22.89,-85.05 C-23.32,-76.62 -22.88,-47.11 -21.65,-29.33 C-20.36,-14.30 -17.55,-0.03 -16.91,1.79 C-15.99,4.39 -15.20,5.55 -14.34,5.69 C-13.21,3.59 -12.61,-0.95 -12.45,-3.94 C-12.04,-11.98 -13.55,-43.84 -15.28,-62.97 C-16.09,-70.84 -18.46,-86.04 -19.62,-89.16 C-20.72,-86.43 -21.15,-84.80 -21.15,-82.87 C-21.12,-72.10 -18.74,-37.12 -16.86,-22.41 C-15.71,-14.37 -13.47,-3.76 -12.31,-1.61 C-11.11,-3.57 -10.71,-4.56 -10.66,-6.08 C-10.17,-15.54 -9.56,-89.20 -9.38,-92.48 C-9.09,-76.79 -8.21,-45.77 -7.61,-30.44 C-6.08,-5.63 -5.01,-0.67 -4.58,0.60 C-3.35,-3.07 -3.01,-16.83 -2.89,-24.81 C-2.51,-74.36 -3.02,-87.96 -3.62,-91.63 C-4.04,-87.82 -3.74,-71.55 -3.50,-63.91 C-2.45,-44.16 0.65,-12.50 2.49,-1.52 C3.98,7.34 5.63,13.32 7.12,17.44 C8.30,14.89 8.79,13.38 8.80,11.65 C8.77,-5.02 7.50,-70.02 7.31,-92.98 C7.40,-78.84 8.39,-49.73 9.07,-34.52 C9.61,-25.31 10.71,-13.85 11.33,-7.83 C12.57,2.30 13.95,6.48 14.49,7.41 C15.49,5.46 15.94,3.99 16.06,1.68 C16.98,-29.83 18.25,-75.55 18.61,-89.76 C18.62,-89.78 19.68,-46.61 20.50,-31.77 C23.76,12.16 27.09,17.95 27.66,18.17 C28.92,15.67 26.35,-20.57 25.16,-35.98 C23.73,-56.60 22.79,-90.57 23.47,-92.37 C24.07,-88.54 27.16,-48.41 28.65,-33.83 C31.31,-11.77 34.79,5.74 36.07,7.63 C36.31,7.97 36.71,8.17 37.28,8.23 C38.59,6.37 39.07,-5.77 39.00,-14.20 C37.76,-46.65 35.80,-102.08 36.12,-101.51 C38.23,-73.46 41.88,-29.55 43.58,-14.36 C46.10,5.29 49.08,11.42 49.74,11.96 C51.28,10.82 51.25,-2.72 50.72,-11.22 C49.47,-27.00 46.44,-55.39 44.47,-69.53 C43.51,-75.86 40.96,-90.48 39.87,-93.91 C38.98,-90.81 39.21,-86.68 39.41,-84.13 C40.62,-68.92 43.55,-40.71 45.36,-26.57 C48.76,-4.12 51.97,8.48 53.48,11.37 C55.00,10.46 55.75,9.24 55.99,6.98 C56.47,2.38 56.40,-8.04 55.95,-17.78 C53.65,-48.37 50.23,-82.32 49.66,-85.59 C49.39,-81.12 52.66,-42.94 54.03,-28.71 C55.29,-17.81 57.22,-4.89 58.58,1.23 C59.10,3.52 60.65,8.16 62.04,9.27 C63.34,7.86 64.32,3.58 64.61,1.40 C65.67,-6.65 65.91,-34.25 65.29,-54.43 C64.42,-77.43 63.67,-86.38 63.40,-87.29 C63.18,-85.80 64.51,-42.91 65.04,-27.60 C65.98,-9.11 67.12,1.31 67.76,3.82 C68.52,1.79 69.45,-15.23 69.89,-23.73 C72.95,-75.90 74.55,-89.46 75.15,-91.92 C75.97,-88.63 75.84,-73.82 75.74,-65.86 C75.02,-11.18 75.84,-7.28 76.05,-7.25 C76.05,-7.25 80.92,-84.77 80.92,-84.77 C80.34,-70.60 79.95,-40.51 79.91,-25.09 C80.08,-13.71 80.88,-3.96 81.55,-1.69 C82.76,-1.68 84.39,-17.83 85.23,-39.64 C85.57,-54.36 85.51,-89.00 84.96,-90.53 C84.06,-84.81 82.31,-50.64 82.07,-30.61 C82.10,-22.38 82.90,-13.73 84.33,-8.80 C84.33,-8.80 85.40,-8.38 85.40,-8.38 C86.93,-9.98 88.77,-15.74 89.35,-17.95 C90.79,-23.53 101.37,-88.36 101.81,-89.50 C102.24,-88.16 98.84,-47.89 97.64,-33.52 C97.28,-26.92 96.89,-11.51 96.77,-3.50 C96.77,6.11 97.64,9.83 98.11,11.18 C99.32,10.86 100.00,9.80 100.40,7.38 C102.38,-5.70 107.06,-79.71 107.59,-84.23 C107.82,-81.00 107.15,-38.66 106.91,-22.11 C107.01,-2.46 107.73,9.90 108.57,12.74 C110.03,10.36 110.92,4.24 111.46,-0.11 C114.23,-30.94 118.29,-76.35 118.84,-80.66 C118.99,-80.78 116.96,-37.92 116.23,-20.88 C116.08,-14.20 115.88,2.24 116.04,7.25 C116.48,17.49 117.44,27.06 118.82,29.25 C120.16,27.91 120.73,27.06 121.04,25.71 C122.15,20.78 124.78,-18.13 125.65,-32.35 C126.83,-46.66 130.30,-84.57 131.24,-86.80 C131.87,-84.96 129.89,-46.86 129.22,-31.91 C128.74,-8.82 129.08,6.12 129.90,7.30 C131.20,5.29 132.94,-8.47 133.68,-14.48 C137.53,-46.25 142.05,-82.62 142.71,-87.22 C142.93,-86.95 138.99,-50.22 137.25,-33.81 C133.13,11.30 134.17,26.04 134.82,26.91 C135.68,25.85 139.83,-9.79 141.33,-24.88 C142.71,-39.98 145.65,-70.01 146.09,-69.99 C146.10,-61.82 142.64,-1.02 142.17,6.52 C142.04,8.85 141.86,13.50 141.83,14.59" fill="none" stroke="rgb(255, 0, 0)" stroke-width="3.41" stroke-opacity="1.00" stroke-linejoin="round"/>
<path d="M150.75,-78.26 C150.71,-80.47 150.64,-81.88 150.47,-83.63 C150.29,-85.38 149.87,-86.83 148.95,-89.03 C148.10,-85.25 148.41,-66.92 148.61,-59.77 C149.38,-44.17 152.03,-13.25 153.75,1.34 C154.18,4.45 155.40,11.04 155.58,11.38" fill="none" stroke="rgb(255, 0, 0)" stroke-width="3.41" stroke-opacity="1.00" stroke-linejoin="round"/>
<path d="M155.48,-71.04 C155.48,-71.04 154.93,-86.84 154.93,-86.84 C154.01,-86.31 153.53,-85.63 153.25,-84.04 C151.78,-75.85 150.15,-47.69 150.09,-28.74 C150.27,-21.31 150.74,-7.25 151.03,-0.61 C151.55,7.71 152.90,18.96 153.09,19.98" fill="none" stroke="rgb(255, 0, 0)" stroke-width="3.41" stroke-opacity="1.00" stroke-linejoin="round"/>
<path d="M165.32,-102.53 C165.32,-102.53 166.38,-106.11 166.38,-106.11 C166.34,-100.61 165.80,-65.83 165.77,-50.33 C166.06,-33.33 166.80,-2.08 167.25,12.19 C167.47,16.02 167.75,20.92 167.81,22.00" fill="none" stroke="rgb(255, 0, 0)" stroke-width="3.41" stroke-opacity="1.00" stroke-linejoin="round"/>
<path d="M173.51,-108.23 C173.51,-108.23 173.83,-111.37 173.83,-111.37 C172.94,-104.27 171.18,-73.86 171.02,-54.80 C171.20,-39.91 172.32,-11.50 173.44,5.11 C174.21,14.75 175.14,23.45 175.47,26.46" fill="none" stroke="rgb(255, 0, 0)" stroke-width="3.41" stroke-opacity="1.00" stroke-linejoin="round"/>
<path d="M177.02,-65.93 C177.20,-67.09 177.50,-69.70 177.71,-72.12 C177.82,-73.40 178.40,-82.87 178.61,-86.48 C178.72,-88.71 178.85,-92.03 178.89,-93.12 C178.99,-90.96 178.14,-49.78 178.21,-34.48 C178.47,-19.52 179.92,15.74 180.90,25.16 C181.18,27.83 181.60,31.11 181.83,32.63 C181.86,32.68 181.88,32.65 181.88,32.56 C181.88,32.48 181.73,-9.60 181.71,-23.67" fill="none" stroke="rgb(255, 0, 0)" stroke-width="3.41" stroke-opacity="1.00" stroke-linejoin="round"/>
<path d="M181.80,-55.25 C181.82,-57.72 181.90,-63.31 181.97,-66.45 C182.11,-71.13 182.35,-74.47 182.82,-78.61 C183.07,-76.08 182.40,-33.14 182.23,-16.84 C182.38,-4.05 183.14,17.47 183.65,20.64 C184.03,17.75 183.46,1.28 183.13,-7.14 C182.99,-10.66 182.71,-18.45 182.73,-20.02 C182.77,-35.99 182.81,-53.20 182.82,-54.44" fill="none" stroke="rgb(255, 0, 0)" stroke-width="3.41" stroke-opacity="1.00" stroke-linejoin="round"/>
<path d="M182.87,-60.76 C182.87,-60.76 186.64,-86.46 186.64,-86.46 C187.67,-84.62 187.85,-78.96 187.88,-75.08 C187.95,-58.77 188.17,-25.72 188.53,-11.00 C188.88,-3.15 189.77,14.88 190.46,15.85 C191.13,13.40 193.25,-28.84 194.04,-45.30 C194.47,-52.74 195.34,-65.56 195.53,-67.64 C195.70,-67.08 196.00,-27.47 196.17,-9.63 C196.62,9.73 197.75,21.85 198.16,22.14 C198.36,19.94 198.08,2.37 197.91,-7.09 C197.61,-24.23 196.98,-62.65 197.12,-63.86 C197.24,-49.95 197.65,-20.69 197.92,-5.35 C198.09,-1.42 198.44,5.79 198.62,9.07 C198.77,11.96 199.09,13.77 199.19,13.94 C199.19,13.94 201.97,-21.89 201.97,-21.89" fill="none" stroke="rgb(255, 0, 0)" stroke-width="3.41" stroke-opacity="1.00" stroke-linejoin="round"/>
<path d="M203.00,-39.85 C203.00,-39.85 208.36,-73.05 208.36,-73.05 C208.36,-73.05 207.76,9.13 207.76,9.13 C207.76,9.13 213.51,-53.94 213.51,-53.94 C213.51,-53.94 215.72,18.54 215.72,18.54 C215.57,11.56 215.19,-3.04 214.96,-10.66 C214.84,-27.50 215.29,-60.56 217.33,-68.12 C218.90,-67.04 219.63,-66.16 219.86,-64.59 C220.37,-61.10 221.60,-43.29 221.87,-36.29 C222.17,-24.37 222.09,-0.40 222.07,2.45 C222.07,3.40 222.07,4.35 222.07,5.30" fill="none" stroke="rgb(255, 0, 0)" stroke-width="3.41" stroke-opacity="1.00" stroke-linejoin="round"/>
<path d="M226.79,-26.98 C227.12,-30.76 227.82,-38.58 228.17,-42.62 C230.11,-62.82 232.17,-71.10 233.09,-72.82 C234.13,-70.54 234.39,-64.95 234.40,-61.07 C234.09,-45.48 233.01,-1.77 233.09,2.83 C233.17,6.83 233.45,8.37 233.76,9.28 C234.26,9.12 235.33,4.34 235.98,-0.00 C236.15,-1.10 237.04,-8.95 237.39,-12.14 C237.68,-15.16 238.31,-22.46 238.64,-26.73 C239.69,-41.94 240.82,-58.20 240.90,-59.24 C240.98,-52.66 239.99,-15.34 239.52,2.36 C239.45,5.50 239.35,10.74 239.58,11.84 C240.24,9.99 241.33,-4.61 241.84,-11.67 C242.86,-28.87 245.24,-68.70 246.02,-70.17 C247.24,-67.49 248.59,-30.07 249.08,-14.44 C249.36,-7.29 249.89,5.19 250.54,9.13 C251.19,4.38 251.11,-31.58 251.10,-46.33 C251.29,-54.21 251.89,-72.68 252.25,-75.13 C253.21,-70.67 253.48,-32.97 253.54,-15.30 C253.57,-7.42 253.66,10.39 253.74,12.87 C253.80,14.36 253.90,16.79 253.95,17.74" fill="none" stroke="rgb(255, 0, 0)" stroke-width="3.41" stroke-opacity="1.00" stroke-linejoin="round"/>
<path d="M262.52,-46.67 C262.35,-45.15 262.34,-44.28 262.49,-42.40 C262.77,-38.82 263.55,3.58 263.84,20.14 C263.98,23.65 264.41,28.01 264.76,30.31 C265.30,28.60 265.39,21.51 265.43,17.11 C265.44,13.94 265.46,6.96 265.47,3.14 C265.67,-5.16 266.21,-21.67 266.55,-29.88 C267.87,-52.26 269.68,-66.07 270.71,-68.88 C271.75,-65.06 271.60,-51.23 271.48,-44.45 C270.09,16.46 270.30,27.27 270.81,33.44 C271.94,29.09 272.03,11.85 271.99,3.56 C271.65,-25.04 272.16,-68.55 272.64,-73.27 C273.46,-73.16 272.83,-34.14 272.53,-17.13 C272.42,-0.74 272.32,16.59 272.32,17.51" fill="none" stroke="rgb(255, 0, 0)" stroke-width="3.41" stroke-opacity="1.00" stroke-linejoin="round"/>
<path d="M276.70,-54.23 C275.77,-57.47 275.31,-60.39 275.13,-61.46 C274.73,-63.88 274.40,-65.26 274.03,-66.07 C273.94,-63.04 277.98,-25.38 279.86,-8.86 C282.56,13.43 283.79,17.56 284.35,18.80 C284.46,18.42 284.52,17.63 284.48,16.79 C283.64,4.76 282.40,-18.70 282.06,-25.41" fill="none" stroke="rgb(255, 0, 0)" stroke-width="3.41" stroke-opacity="1.00" stroke-linejoin="round"/>
<path d="M280.65,-56.66 C280.59,-59.81 280.51,-66.97 280.63,-71.36 C280.76,-75.34 281.00,-82.07 280.80,-84.96 C279.51,-78.96 279.77,-46.82 280.62,-29.98 C281.74,-12.14 283.91,0.30 284.71,1.77 C285.39,1.56 285.71,-1.91 285.93,-7.66 C286.01,-10.44 286.03,-19.15 286.01,-23.02 C285.96,-26.86 285.88,-34.18 285.83,-37.68 C285.26,-64.37 284.93,-68.73 284.75,-70.08 C284.20,-67.70 284.53,-31.57 285.48,-12.75 C286.16,-2.59 287.82,10.28 289.40,13.87 C290.75,12.73 291.37,11.74 291.58,10.09 C291.79,8.46 291.96,6.33 292.06,4.92" fill="none" stroke="rgb(255, 0, 0)" stroke-width="3.41" stroke-opacity="1.00" stroke-linejoin="round"/>
<path d="M299.51,-69.34 C298.51,-68.76 297.51,-67.42 296.62,-65.34 C295.58,-62.86 293.80,-49.76 293.12,-38.59 C292.81,-31.29 292.94,-17.83 293.08,-10.23 C293.84,9.57 295.44,14.40 295.94,15.51 C296.92,13.29 297.20,7.59 297.27,4.20 C297.33,-28.34 297.32,-69.99 297.24,-79.11 C296.97,-77.13 297.40,-38.99 297.72,-24.95 C298.68,-3.99 300.85,16.55 301.68,16.92 C302.35,15.24 305.96,-24.27 307.54,-41.25 C308.71,-51.70 312.29,-77.15 313.58,-84.47 C312.38,-69.65 309.60,-33.41 309.18,-23.42 C308.68,-4.15 309.41,14.99 310.87,20.93 C312.21,18.38 312.57,12.61 312.70,9.86 C312.94,4.37 312.83,-48.68 312.51,-55.13 C311.36,-73.47 310.14,-77.06 309.60,-78.16 C308.38,-75.99 307.41,-64.17 306.97,-53.21 C306.69,-37.72 307.89,-15.48 308.75,-7.50 C309.07,-4.69 310.10,-0.04 311.00,0.41 C311.76,-0.68 312.21,-1.60 312.48,-2.88 C313.02,-5.46 313.79,-11.65 314.17,-14.84 C314.81,-21.36 316.13,-36.41 316.80,-44.94 C317.92,-60.19 319.11,-76.43 319.18,-77.42 C319.21,-77.33 317.25,-37.39 316.92,-21.52 C316.90,-14.22 316.93,-0.25 317.33,5.30 C317.79,10.98 318.49,14.96 319.45,15.36 C320.77,13.58 322.94,-0.76 324.20,-12.14 C326.38,-33.70 329.26,-73.83 329.05,-74.14 C327.93,-66.95 325.57,-31.19 325.04,-15.69 C324.51,8.17 326.25,12.54 326.75,12.72 C328.11,9.82 329.29,-1.58 330.00,-12.78 C332.01,-53.00 331.31,-73.59 331.21,-74.62 C330.95,-69.14 331.06,-29.02 331.19,-11.51 C331.39,-4.93 331.87,8.99 332.66,12.90 C333.63,11.75 334.26,6.61 334.65,3.40 C335.04,-0.29 335.75,-7.27 336.06,-10.56 C336.61,-16.84 337.25,-33.25 337.51,-40.72 C337.74,-48.90 338.04,-59.62 338.11,-62.16" fill="none" stroke="rgb(255, 0, 0)" stroke-width="3.41" stroke-opacity="1.00" stroke-linejoin="round"/>
<path d="M338.51,-72.31 C338.51,-72.31 341.74,-88.97 341.74,-88.97 C340.45,-81.69 338.76,-46.14 338.47,-32.31 C338.48,-24.95 338.66,-9.76 338.85,-1.93 C339.10,5.83 340.32,11.52 340.58,12.68 C341.89,12.14 342.52,11.38 342.82,9.51 C344.44,-0.67 346.25,-32.08 347.04,-47.71 C347.31,-54.46 347.80,-65.60 348.02,-70.00 C348.37,-64.67 347.43,-24.85 346.99,-9.37 C346.73,2.61 347.00,11.52 347.46,12.15 C348.23,10.97 350.82,-3.17 352.14,-12.43 C353.98,-28.36 357.72,-62.72 358.15,-69.29 C358.16,-69.34 356.90,-21.85 357.08,-15.67 C357.52,-5.56 358.51,6.55 360.31,8.22 C360.47,8.37 360.80,8.53 361.31,8.70 C361.31,8.70 365.14,2.21 365.14,2.21" fill="none" stroke="rgb(255, 0, 0)" stroke-width="3.41" stroke-opacity="1.00" stroke-linejoin="round"/>
<path d="M370.00,-81.72 C370.00,-81.72 370.11,-82.41 370.11,-82.41 C370.23,-81.95 366.86,-42.63 365.93,-27.12 C365.04,-8.24 364.89,10.84 365.33,12.04 C366.52,10.12 368.71,-25.88 369.23,-42.92 C369.47,-55.74 369.41,-62.47 368.78,-65.68 C367.87,-62.21 367.41,-47.47 367.27,-40.61 C367.28,-32.91 367.48,-17.24 367.67,-9.26 C368.30,6.56 370.67,15.81 371.36,16.02 C372.47,14.40 373.80,0.85 374.11,-7.15 C374.21,-36.91 374.29,-67.56 374.26,-68.46 C374.18,-68.55 375.48,-28.92 376.08,-13.92 C376.52,-7.33 377.77,8.62 379.19,13.71 C380.02,11.79 380.35,10.68 380.58,8.83 C381.42,2.00 382.70,-11.09 383.30,-17.72 C384.72,-35.14 387.51,-69.34 387.79,-69.10 C387.91,-66.42 388.17,-19.61 388.50,-8.23 C388.84,-1.19 389.62,8.17 390.48,8.53 C391.73,5.94 393.23,-33.20 393.53,-50.08 C393.57,-60.05 393.02,-68.36 392.45,-69.19 C391.10,-67.21 389.14,-35.04 388.93,-17.14 C388.95,1.86 389.96,12.53 390.41,13.14 C391.08,10.61 396.28,-31.12 398.43,-48.09 C401.92,-71.26 403.28,-75.54 403.59,-75.76 C404.13,-71.56 401.65,-33.20 400.48,-18.14 C400.02,-10.91 399.14,4.37 399.73,7.69 C401.01,5.88 402.83,-4.33 404.35,-16.86 C406.21,-33.74 408.87,-57.82 409.28,-60.80 C409.53,-60.92 407.37,-9.29 407.46,-3.52 C407.52,-0.03 407.76,1.64 408.06,2.90 C408.99,2.61 409.46,2.05 409.76,0.54 C411.31,-7.45 416.27,-64.63 416.45,-66.26 C416.78,-66.72 416.13,-14.15 416.19,-10.97 C416.62,9.23 418.66,15.09 419.04,15.10 C419.04,15.10 419.38,14.19 419.38,14.19" fill="none" stroke="rgb(255, 0, 0)" stroke-width="3.41" stroke-opacity="1.00" stroke-linejoin="round"/>
<path d="M424.15,-83.03 C422.58,-79.23 421.05,-68.52 420.12,-58.35 C418.97,-43.56 417.15,-7.63 417.22,-1.37 C417.31,5.74 418.15,7.15 418.64,7.44 C420.03,6.12 422.30,-5.63 423.51,-15.03 C425.48,-31.40 429.49,-64.76 429.86,-66.73 C430.29,-64.39 429.43,-21.57 430.15,-11.57 C430.61,-6.34 431.31,-1.69 432.13,0.28 C433.42,-0.16 434.08,-0.91 434.49,-2.65 C435.53,-7.17 437.45,-24.41 437.61,-27.27 C438.30,-43.60 439.66,-77.04 439.82,-78.28 C439.82,-78.28 444.03,-6.54 444.03,-6.54 C445.50,-8.12 446.70,-12.95 447.58,-17.16 C450.88,-33.63 458.13,-69.51 459.28,-69.76 C459.78,-66.52 454.88,-15.25 454.62,-10.79 C454.44,-7.53 454.56,-2.56 455.16,-1.88 C456.44,-3.34 458.52,-14.65 460.19,-25.50 C462.64,-41.29 465.48,-59.49 466.11,-61.73 C466.87,-60.53 466.84,-55.46 466.78,-51.83 C466.61,-44.03 464.18,-4.25 464.02,-0.05 C464.67,-18.62 467.21,-48.09 469.06,-58.49 C470.65,-67.24 472.72,-71.12 473.33,-71.70 C474.13,-71.30 474.70,-66.85 474.66,-62.47 C474.57,-55.36 470.46,-13.85 469.22,-6.83 C469.06,-7.84 469.04,-8.30 469.11,-9.72 C469.16,-10.75 469.21,-11.93 469.26,-13.27 C469.65,-29.55 470.18,-52.22 470.33,-58.61" fill="none" stroke="rgb(255, 0, 0)" stroke-width="3.41" stroke-opacity="1.00" stroke-linejoin="round"/>
</g>
</svg>
