<?xml version="1.0" encoding="UTF-8" standalone="no"?>
<!DOCTYPE svg PUBLIC "-//W3C//DTD SVG 1.1//EN" "http://www.w3.org/Graphics/SVG/1.1/DTD/svg11.dtd">
<svg width="128.40" height="181.68" viewBox="0.00 0.00 535.00 757.00" xmlns="http://www.w3.org/2000/svg" xmlns:xlink="http://www.w3.org/1999/xlink">
<g stroke-linecap="round" transform="translate(44.00, 155.00)" id="216_사람">
<path d="M278.34,173.57 C278.34,173.57 277.87,173.19 277.87,173.19 C277.14,173.28 275.46,175.00 274.57,176.83 C273.74,178.59 273.13,181.22 273.34,182.69 C273.53,183.89 275.26,187.24 276.37,188.09 C277.62,189.00 282.09,190.28 284.22,190.47 C286.11,190.62 290.66,190.59 292.56,190.17 C294.86,189.64 298.63,187.46 300.01,185.58 C301.33,183.73 302.19,180.11 302.02,178.73 C301.85,177.66 300.82,175.47 300.11,174.60 C299.32,173.65 297.40,172.43 296.00,171.94 C294.54,171.47 288.04,171.01 284.29,171.45 C281.62,171.78 275.36,173.56 274.48,173.99 C274.36,174.05 274.29,174.11 274.25,174.17" fill="none" stroke="rgb(255, 0, 255)" stroke-width="3.41" stroke-opacity="1.00" stroke-linejoin="round"/>
<path d="M278.43,177.13 C278.39,177.13 278.36,177.12 278.33,177.11 C278.31,177.10 278.26,177.07 278.18,177.02 C278.18,177.02 278.09,176.71 278.09,176.71 C278.52,176.00 280.98,174.92 281.68,175.23 C281.76,175.27 281.94,175.38 282.22,175.57" fill="none" stroke="rgb(255, 0, 255)" stroke-width="3.41" stroke-opacity="1.00" stroke-linejoin="round"/>
<path d="M281.98,179.14 C281.98,179.14 281.89,178.58 281.89,178.58 C281.89,178.58 281.38,179.95 281.38,179.95 C281.38,179.95 282.10,179.15 282.10,179.15 C282.10,179.15 281.05,179.45 281.05,179.45 C281.05,179.45 281.04,179.64 281.04,179.64 C281.04,179.64 281.15,179.67 281.15,179.67" fill="none" stroke="rgb(255, 0, 255)" stroke-width="3.41" stroke-opacity="1.00" stroke-linejoin="round"/>
<path d="M286.88,176.84 C286.88,176.84 286.73,176.73 286.73,176.73 C286.79,176.69 286.87,177.60 286.91,177.98 C287.04,179.33 287.39,179.86 287.54,180.01" fill="none" stroke="rgb(255, 0, 255)" stroke-width="3.41" stroke-opacity="1.00" stroke-linejoin="round"/>
<path d="M291.05,174.94 C291.05,174.94 290.31,175.59 290.31,175.59 C290.65,175.12 293.19,174.45 294.44,175.15 C294.74,175.32 294.97,175.53 295.13,175.77 C295.27,175.99 295.38,176.43 295.35,176.40" fill="none" stroke="rgb(255, 0, 255)" stroke-width="3.41" stroke-opacity="1.00" stroke-linejoin="round"/>
<path d="M294.16,178.11 C294.16,178.11 293.99,177.90 293.99,177.90 C293.99,177.90 293.66,179.40 293.66,179.40 C294.05,178.23 292.27,178.75 291.87,179.02" fill="none" stroke="rgb(255, 0, 255)" stroke-width="3.41" stroke-opacity="1.00" stroke-linejoin="round"/>
<path d="M280.17,184.83 C280.17,184.83 280.48,184.37 280.48,184.37 C280.86,184.56 283.82,186.86 285.16,186.92 C287.61,186.94 289.68,183.92 289.60,183.11 C289.56,182.79 289.36,182.56 289.01,182.31" fill="none" stroke="rgb(255, 0, 255)" stroke-width="3.41" stroke-opacity="1.00" stroke-linejoin="round"/>
<path d="M273.13,179.61 C273.02,179.53 272.91,179.48 272.82,179.45 C271.99,179.22 269.15,179.39 268.56,179.89 C267.93,180.48 268.22,182.50 269.17,183.18 C270.28,183.94 271.87,184.24 273.01,184.36" fill="none" stroke="rgb(255, 0, 255)" stroke-width="3.41" stroke-opacity="1.00" stroke-linejoin="round"/>
<path d="M303.25,176.95 C303.25,176.95 303.11,176.93 303.11,176.93 C303.11,176.93 303.13,176.84 303.13,176.84 C303.64,176.66 304.89,176.82 305.48,177.45 C306.19,178.24 306.46,180.97 305.63,182.20 C304.80,183.36 301.88,184.28 300.84,184.21 C300.70,184.20 300.43,184.16 300.04,184.09" fill="none" stroke="rgb(255, 0, 255)" stroke-width="3.41" stroke-opacity="1.00" stroke-linejoin="round"/>
<path d="M279.73,168.84 C279.73,168.84 280.12,168.46 280.12,168.46 C280.12,168.46 276.34,171.57 276.34,171.57 C276.34,171.57 281.86,167.67 281.86,167.67 C279.90,167.68 278.05,169.74 277.82,170.19 C277.82,170.19 283.55,168.39 283.55,168.39 C283.55,168.39 281.07,169.93 281.07,169.93 C282.91,170.66 286.65,168.46 287.26,168.01 C287.26,168.01 282.64,169.09 282.64,169.09 C282.64,169.09 290.09,167.96 290.09,167.96 C290.09,167.96 285.65,168.54 285.65,168.54 C285.65,168.54 294.56,168.52 294.56,168.52 C294.56,168.52 289.68,168.63 289.68,168.63 C289.68,168.63 295.29,169.53 295.29,169.53 C295.29,169.53 290.61,169.57 290.61,169.57 C291.57,170.98 296.72,170.61 296.81,170.54 C296.81,170.54 287.93,170.27 287.93,170.27 C287.93,170.27 293.74,170.72 293.74,170.72 C293.74,170.72 289.68,171.41 289.68,171.41" fill="none" stroke="rgb(255, 0, 255)" stroke-width="3.41" stroke-opacity="1.00" stroke-linejoin="round"/>
<path d="M281.29,192.30 C281.29,192.30 281.17,191.96 281.17,191.96 C281.17,191.96 283.42,201.60 283.42,201.60 C281.59,200.89 279.40,201.58 278.69,202.24 C278.07,202.85 276.99,205.22 276.86,208.50 C276.70,212.93 277.38,219.88 277.53,220.43 C278.07,220.60 291.06,219.30 297.11,219.04 C298.73,219.00 301.23,219.13 301.69,219.10 C302.44,218.54 302.23,203.88 300.67,200.34 C299.98,198.85 298.73,197.97 297.60,198.14 C295.32,198.49 294.31,198.33 293.79,197.58 C293.17,196.58 291.82,190.91 291.47,190.70 C291.47,190.70 291.01,190.93 291.01,190.93" fill="none" stroke="rgb(255, 0, 255)" stroke-width="3.41" stroke-opacity="1.00" stroke-linejoin="round"/>
<path d="M274.21,208.07 C274.05,207.48 273.73,206.86 273.27,206.69 C272.15,206.29 269.70,206.71 268.71,207.19 C267.73,207.68 266.23,209.37 265.82,210.43 C265.00,212.68 265.99,214.62 266.54,214.90 C267.16,214.77 269.46,211.76 269.54,211.68 C272.56,209.00 276.25,210.79 276.44,210.97 C276.44,210.97 276.44,211.27 276.44,211.27" fill="none" stroke="rgb(255, 0, 255)" stroke-width="3.41" stroke-opacity="1.00" stroke-linejoin="round"/>
<path d="M300.82,205.25 C300.82,205.25 300.84,205.02 300.84,205.02 C300.90,204.82 304.17,204.32 305.91,204.46 C308.02,204.65 310.37,206.31 310.82,207.24 C312.24,210.39 311.88,216.35 311.74,216.93 C310.77,217.00 307.39,213.60 306.87,213.11 C304.12,210.53 301.01,210.17 300.82,210.08 C301.01,209.95 301.10,209.89 301.11,209.89 C301.16,209.86 301.26,209.83 301.38,209.80 C301.75,209.72 302.64,209.75 304.45,209.89" fill="none" stroke="rgb(255, 0, 255)" stroke-width="3.41" stroke-opacity="1.00" stroke-linejoin="round"/>
<path d="M311.41,209.70 C311.41,209.70 311.35,209.21 311.35,209.21 C311.35,209.21 310.92,208.96 310.92,208.96 C310.36,209.13 309.53,209.56 308.74,210.19 C307.29,211.34 306.14,213.36 306.13,213.42" fill="none" stroke="rgb(255, 0, 255)" stroke-width="3.41" stroke-opacity="1.00" stroke-linejoin="round"/>
<path d="M279.06,219.91 C278.50,220.15 278.17,220.32 278.05,220.41 C277.60,220.80 277.67,225.89 278.18,228.40 C278.61,230.44 279.57,231.60 280.14,231.78 C280.75,231.91 287.17,229.86 287.45,228.85 C287.59,228.28 288.06,225.26 288.25,225.04 C288.69,225.32 290.29,227.39 291.35,227.91 C293.43,228.93 296.17,229.55 297.39,229.36 C299.17,229.05 300.09,228.70 300.56,228.41 C301.92,223.98 299.20,218.73 298.51,218.26 C298.22,218.30 298.05,218.32 297.99,218.34 C297.94,218.35 297.91,218.36 297.93,218.38" fill="none" stroke="rgb(255, 0, 255)" stroke-width="3.41" stroke-opacity="1.00" stroke-linejoin="round"/>
<path d="M279.44,232.74 C279.44,232.74 279.66,232.76 279.66,232.76 C279.86,233.08 280.02,233.61 280.07,234.69 C280.19,237.07 280.18,239.13 280.06,239.33 C279.60,239.32 277.88,239.19 277.08,239.63 C276.12,240.17 275.20,242.18 275.58,243.02 C275.96,243.77 278.34,244.29 280.92,243.51 C281.75,243.25 284.01,242.12 284.41,241.76 C285.18,241.00 285.00,237.33 284.39,233.30 C284.34,232.96 284.37,232.86 284.37,232.73" fill="none" stroke="rgb(255, 0, 255)" stroke-width="3.41" stroke-opacity="1.00" stroke-linejoin="round"/>
<path d="M294.38,229.90 C294.31,229.84 294.25,229.80 294.21,229.78 C294.17,229.75 294.09,229.72 293.97,229.67 C293.97,229.67 293.86,229.69 293.86,229.69 C293.83,229.74 293.97,232.90 293.99,234.19 C293.96,237.48 294.38,239.79 295.07,240.46 C295.71,241.02 298.73,241.30 300.61,241.02 C302.89,240.64 304.51,239.06 304.53,238.08 C304.50,237.28 303.64,236.38 302.91,236.31 C302.36,236.25 300.63,236.18 300.28,236.07 C298.33,235.38 298.07,231.44 297.99,229.20 C297.98,228.89 297.97,228.57 297.95,228.25" fill="none" stroke="rgb(255, 0, 255)" stroke-width="3.41" stroke-opacity="1.00" stroke-linejoin="round"/>
</g>
</svg>
