<?xml version="1.0" encoding="UTF-8" standalone="no"?>
<!DOCTYPE svg PUBLIC "-//W3C//DTD SVG 1.1//EN" "http://www.w3.org/Graphics/SVG/1.1/DTD/svg11.dtd">
<svg width="128.40" height="181.68" viewBox="0.00 0.00 535.00 757.00" xmlns="http://www.w3.org/2000/svg" xmlns:xlink="http://www.w3.org/1999/xlink">
<g stroke-linecap="round" transform="translate(44.00, 155.00)" id="217_우산">
<path d="M246.55,319.98 C246.59,319.74 246.61,319.54 246.63,319.36 C246.64,319.19 246.67,318.81 246.71,318.22 C246.07,317.96 234.87,322.30 225.04,326.50 C217.43,329.80 203.16,336.38 196.76,340.43 C190.91,344.18 183.90,350.73 177.66,358.01 C173.71,362.64 164.39,378.58 163.28,380.35 C160.61,384.53 157.35,392.36 157.03,396.94 C156.90,398.85 156.92,400.54 157.04,400.83 C159.05,399.24 162.41,396.07 164.87,394.49 C174.01,388.67 208.36,374.55 212.29,373.10 C219.55,370.44 232.86,367.05 240.21,365.90 C248.66,364.61 254.78,364.63 258.99,364.82 C259.45,364.85 259.91,364.88 260.37,364.90" fill="none" stroke="rgb(255, 0, 0)" stroke-width="4.07" stroke-opacity="1.00" stroke-linejoin="round"/>
<path d="M251.72,320.91 C251.71,320.53 251.58,320.06 251.36,319.84 C251.17,319.65 250.59,319.27 250.53,319.17 C257.35,319.09 292.31,322.43 293.66,322.58 C300.88,323.38 314.27,327.63 320.61,330.17 C327.37,332.89 335.10,337.17 345.18,343.35 C349.32,345.89 352.88,348.20 354.46,349.55 C355.69,350.62 364.30,360.67 364.28,360.86 C364.59,362.37 336.03,363.90 316.02,364.04 C307.71,364.13 290.66,364.36 281.91,364.49 C272.18,364.70 253.32,366.66 252.92,366.59 C252.78,366.56 252.58,366.46 252.34,366.29" fill="none" stroke="rgb(255, 0, 0)" stroke-width="4.07" stroke-opacity="1.00" stroke-linejoin="round"/>
<path d="M253.15,304.42 C252.86,302.66 251.43,301.69 250.95,301.25 C250.64,300.96 248.84,298.68 248.62,298.61 C248.39,301.13 251.38,320.39 251.52,320.95 C251.97,322.61 252.71,323.88 253.28,323.93 C255.22,323.94 255.80,323.56 256.21,322.93 C256.32,321.29 252.58,302.74 251.44,301.26 C251.09,300.81 249.63,299.42 249.05,298.87 C249.05,298.87 253.38,323.75 253.38,323.75 C253.38,323.75 250.93,301.87 250.93,301.87 C250.93,301.87 254.83,324.39 254.83,324.39 C254.83,324.39 254.39,310.00 254.39,310.00 C254.39,310.00 255.97,323.35 255.97,323.35" fill="none" stroke="rgb(255, 0, 0)" stroke-width="4.07" stroke-opacity="1.00" stroke-linejoin="round"/>
<path d="M190.89,346.52 C191.32,345.82 191.62,345.36 191.78,345.12 C192.03,344.75 192.66,343.82 192.81,343.43 C191.40,345.38 187.57,357.50 185.86,365.56 C184.65,371.46 184.66,373.73 184.96,376.32 C184.96,376.32 185.78,376.44 185.78,376.44 C185.78,376.44 185.92,376.17 185.92,376.17" fill="none" stroke="rgb(255, 0, 0)" stroke-width="4.07" stroke-opacity="1.00" stroke-linejoin="round"/>
<path d="M196.60,345.44 C196.60,345.44 196.86,342.09 196.86,342.09 C194.18,349.46 192.11,359.16 191.39,365.26 C190.59,372.21 190.14,385.68 190.57,388.35 C190.62,388.65 190.75,389.09 190.94,389.66" fill="none" stroke="rgb(255, 0, 0)" stroke-width="4.07" stroke-opacity="1.00" stroke-linejoin="round"/>
<path d="M226.31,328.29 C226.31,328.29 225.88,326.46 225.88,326.46 C224.21,331.49 221.40,344.33 220.44,351.59 C219.34,359.96 219.73,363.24 220.40,363.73 C220.40,363.73 222.05,362.22 222.05,362.22" fill="none" stroke="rgb(255, 0, 0)" stroke-width="4.07" stroke-opacity="1.00" stroke-linejoin="round"/>
<path d="M231.48,328.48 C231.48,328.48 231.91,325.05 231.91,325.05 C231.26,325.79 228.67,337.17 227.62,345.58 C226.75,353.70 226.45,364.82 227.09,365.57 C227.09,365.57 227.40,365.59 227.40,365.59 C227.47,365.47 227.58,365.31 227.70,364.85 C228.26,362.72 228.92,360.95 230.21,358.32 C230.69,357.32 231.18,356.32 231.67,355.33" fill="none" stroke="rgb(255, 0, 0)" stroke-width="4.07" stroke-opacity="1.00" stroke-linejoin="round"/>
<path d="M247.67,319.52 C247.67,319.52 247.86,318.52 247.86,318.52 C247.86,318.52 247.68,318.44 247.68,318.44 C249.39,323.56 257.01,354.38 257.80,358.11 C258.41,361.01 259.20,366.31 259.33,367.98 C259.34,368.13 259.34,368.28 259.33,368.41 C259.33,368.41 259.30,368.06 259.30,368.06" fill="none" stroke="rgb(255, 0, 0)" stroke-width="4.07" stroke-opacity="1.00" stroke-linejoin="round"/>
<path d="M257.60,321.10 C257.60,321.10 257.57,318.90 257.57,318.90 C258.33,321.43 261.52,339.06 262.86,344.60 C263.64,347.83 265.16,353.06 265.88,355.49 C266.21,356.55 266.53,357.60 266.86,358.65" fill="none" stroke="rgb(255, 0, 0)" stroke-width="4.07" stroke-opacity="1.00" stroke-linejoin="round"/>
<path d="M272.89,323.07 C272.89,323.07 272.23,321.61 272.23,321.61 C272.23,321.61 272.53,321.07 272.53,321.07 C273.18,320.96 275.36,326.99 275.95,329.77 C277.02,335.17 277.91,348.86 277.85,358.62 C277.81,361.48 277.53,362.97 277.52,362.94" fill="none" stroke="rgb(255, 0, 0)" stroke-width="4.07" stroke-opacity="1.00" stroke-linejoin="round"/>
<path d="M287.26,323.54 C287.26,323.54 287.05,322.57 287.05,322.57 C287.05,322.57 286.71,322.52 286.71,322.52 C285.61,323.51 289.72,346.81 291.36,351.61 C291.96,353.35 292.76,355.19 293.32,356.25" fill="none" stroke="rgb(255, 0, 0)" stroke-width="4.07" stroke-opacity="1.00" stroke-linejoin="round"/>
<path d="M306.77,329.60 C306.77,329.60 307.74,328.51 307.74,328.51 C308.21,327.82 311.95,339.33 315.41,351.09 C316.57,355.09 317.89,361.09 318.12,364.77 C318.15,365.42 318.17,366.52 318.16,368.08" fill="none" stroke="rgb(255, 0, 0)" stroke-width="4.07" stroke-opacity="1.00" stroke-linejoin="round"/>
<path d="M322.34,337.33 C322.39,336.90 322.46,336.59 322.54,336.39 C322.62,336.18 322.83,335.80 323.16,335.23 C323.91,336.81 325.06,341.88 325.61,344.75 C326.62,350.12 327.54,359.15 327.66,360.31" fill="none" stroke="rgb(255, 0, 0)" stroke-width="4.07" stroke-opacity="1.00" stroke-linejoin="round"/>
<path d="M339.49,345.32 C339.49,345.32 339.83,344.70 339.83,344.70 C340.24,345.23 340.49,346.78 340.89,351.03 C342.04,363.23 342.47,366.33 342.61,367.14" fill="none" stroke="rgb(255, 0, 0)" stroke-width="4.07" stroke-opacity="1.00" stroke-linejoin="round"/>
<path d="M352.89,348.99 C352.88,350.54 352.87,354.40 352.84,355.01 C352.70,358.40 351.47,362.68 350.88,364.52" fill="none" stroke="rgb(255, 0, 0)" stroke-width="4.07" stroke-opacity="1.00" stroke-linejoin="round"/>
<path d="M258.99,367.92 C258.99,367.48 258.99,367.20 258.98,367.08 C258.95,366.21 258.46,365.57 258.39,365.56 C257.13,367.94 266.12,409.56 267.16,419.53 C267.69,425.91 268.73,440.05 268.06,444.34 C267.63,446.97 265.79,451.97 264.62,452.88 C263.81,453.47 262.52,453.41 261.58,452.83 C260.87,452.36 260.23,451.75 259.68,451.10" fill="none" stroke="rgb(255, 0, 0)" stroke-width="4.07" stroke-opacity="1.00" stroke-linejoin="round"/>
</g>
</svg>
