<?xml version="1.0" encoding="UTF-8" standalone="no"?>
<!DOCTYPE svg PUBLIC "-//W3C//DTD SVG 1.1//EN" "http://www.w3.org/Graphics/SVG/1.1/DTD/svg11.dtd">
<svg width="128.40" height="181.68" viewBox="0.00 0.00 535.00 757.00" xmlns="http://www.w3.org/2000/svg" xmlns:xlink="http://www.w3.org/1999/xlink">
<g stroke-linecap="round" transform="translate(44.00, 155.00)" id="217_비-2">
<path d="M-29.57,-52.42 C-29.57,-52.42 -29.82,-54.96 -29.82,-54.96 C-29.75,-52.96 -30.64,-45.88 -31.12,-42.05 C-31.71,-37.02 -30.76,-32.43 -30.45,-31.77" fill="none" stroke="rgb(255, 0, 0)" stroke-width="4.07" stroke-opacity="1.00" stroke-linejoin="round"/>
<path d="M-1.47,-36.97 C-1.47,-36.97 -2.74,-39.85 -2.74,-39.85 C-3.68,-39.45 -6.26,-34.58 -7.56,-30.29 C-8.06,-28.61 -9.19,-21.74 -9.41,-18.07" fill="none" stroke="rgb(255, 0, 0)" stroke-width="4.07" stroke-opacity="1.00" stroke-linejoin="round"/>
<path d="M22.73,-12.76 C22.73,-12.76 21.85,-14.07 21.85,-14.07 C21.72,-13.94 21.13,-8.79 23.09,-3.50 C23.49,-2.46 24.34,-0.94 25.81,1.47" fill="none" stroke="rgb(255, 0, 0)" stroke-width="4.07" stroke-opacity="1.00" stroke-linejoin="round"/>
<path d="M40.87,12.23 C39.44,12.65 38.72,14.56 38.47,17.92 C38.19,22.18 39.16,33.42 39.28,34.74" fill="none" stroke="rgb(255, 0, 0)" stroke-width="4.07" stroke-opacity="1.00" stroke-linejoin="round"/>
<path d="M34.76,54.32 C33.97,53.51 33.12,52.25 32.57,51.40 C32.41,51.19 32.15,50.94 31.80,50.65 C31.11,51.32 31.00,56.02 31.57,58.99 C31.82,60.25 33.54,67.33 34.36,69.54" fill="none" stroke="rgb(255, 0, 0)" stroke-width="4.07" stroke-opacity="1.00" stroke-linejoin="round"/>
<path d="M23.89,66.48 C22.47,66.61 21.55,66.84 21.15,67.36 C20.28,68.56 19.80,73.24 19.81,76.40 C19.85,79.65 22.27,91.76 23.04,94.16" fill="none" stroke="rgb(255, 0, 0)" stroke-width="4.07" stroke-opacity="1.00" stroke-linejoin="round"/>
<path d="M6.47,108.33 C6.47,108.33 6.02,108.43 6.02,108.43 C5.56,109.00 6.88,113.55 8.42,116.74 C10.33,120.65 15.09,127.02 15.90,128.06" fill="none" stroke="rgb(255, 0, 0)" stroke-width="4.07" stroke-opacity="1.00" stroke-linejoin="round"/>
<path d="M40.32,125.55 C39.53,124.95 38.00,124.11 37.10,123.98 C35.44,123.76 31.53,127.33 30.15,129.44 C28.47,132.06 25.94,137.14 23.98,141.53" fill="none" stroke="rgb(255, 0, 0)" stroke-width="4.07" stroke-opacity="1.00" stroke-linejoin="round"/>
<path d="M37.39,160.62 C36.80,160.33 34.84,161.34 32.25,164.61 C30.96,166.27 28.78,170.83 28.10,173.97 C27.66,176.01 27.52,177.44 27.45,179.88" fill="none" stroke="rgb(255, 0, 0)" stroke-width="4.07" stroke-opacity="1.00" stroke-linejoin="round"/>
<path d="M-23.40,240.16 C-23.40,240.16 -22.17,237.25 -22.17,237.25 C-22.63,243.83 -23.58,257.30 -23.25,265.48 C-23.16,267.39 -22.97,270.89 -22.88,272.48 C-22.79,274.39 -22.65,275.59 -22.27,277.93" fill="none" stroke="rgb(255, 0, 0)" stroke-width="4.07" stroke-opacity="1.00" stroke-linejoin="round"/>
<path d="M-10.57,296.06 C-10.57,296.06 -11.00,295.53 -11.00,295.53 C-11.00,295.53 -11.83,295.59 -11.83,295.59 C-13.05,297.18 -15.40,302.90 -16.05,305.81 C-16.75,309.02 -17.37,315.64 -17.61,318.40" fill="none" stroke="rgb(255, 0, 0)" stroke-width="4.07" stroke-opacity="1.00" stroke-linejoin="round"/>
<path d="M-21.63,336.25 C-21.69,336.81 -21.75,337.37 -21.82,337.93 C-22.12,340.72 -23.44,346.17 -24.12,348.93 C-24.75,351.43 -25.75,357.32 -25.90,359.61 C-26.29,366.02 -24.58,370.51 -24.50,370.41" fill="none" stroke="rgb(255, 0, 0)" stroke-width="4.07" stroke-opacity="1.00" stroke-linejoin="round"/>
<path d="M48.26,201.00 C48.26,201.00 48.17,199.84 48.17,199.84 C48.17,199.84 47.40,199.01 47.40,199.01 C46.22,199.00 44.83,199.32 43.94,200.16 C41.75,202.24 39.29,207.69 38.25,210.67 C36.14,216.78 33.46,227.09 33.13,228.38" fill="none" stroke="rgb(255, 0, 0)" stroke-width="4.07" stroke-opacity="1.00" stroke-linejoin="round"/>
<path d="M44.23,232.52 C43.64,232.86 42.32,234.09 41.65,235.26 C40.41,237.44 38.48,244.40 37.62,247.51 C37.00,249.73 35.96,253.48 35.53,255.00" fill="none" stroke="rgb(255, 0, 0)" stroke-width="4.07" stroke-opacity="1.00" stroke-linejoin="round"/>
<path d="M73.00,-37.99 C73.00,-37.99 71.57,-39.96 71.57,-39.96 C69.43,-38.88 66.89,-36.17 65.22,-33.83 C63.29,-31.02 61.33,-25.26 62.02,-23.81" fill="none" stroke="rgb(255, 0, 0)" stroke-width="4.07" stroke-opacity="1.00" stroke-linejoin="round"/>
<path d="M83.02,-51.30 C83.02,-51.30 83.34,-53.52 83.34,-53.52 C82.22,-51.20 81.28,-46.39 81.12,-44.69 C80.91,-42.41 80.47,-33.16 80.28,-28.99 C80.07,-24.28 79.58,-13.45 79.57,-13.30 C79.55,-12.98 79.50,-12.54 79.43,-12.00" fill="none" stroke="rgb(255, 0, 0)" stroke-width="4.07" stroke-opacity="1.00" stroke-linejoin="round"/>
<path d="M86.87,5.45 C86.92,5.13 86.97,4.86 87.01,4.65 C87.06,4.44 87.16,3.98 87.33,3.29 C87.33,3.29 87.07,2.97 87.07,2.97 C85.61,3.96 82.82,7.56 80.24,12.22 C79.38,13.78 76.24,20.19 75.67,21.35" fill="none" stroke="rgb(255, 0, 0)" stroke-width="4.07" stroke-opacity="1.00" stroke-linejoin="round"/>
<path d="M69.34,25.61 C69.00,25.60 68.43,25.76 68.17,26.16 C67.29,27.60 66.58,34.06 66.72,36.92 C67.01,41.51 69.60,48.09 69.86,48.35" fill="none" stroke="rgb(255, 0, 0)" stroke-width="4.07" stroke-opacity="1.00" stroke-linejoin="round"/>
<path d="M80.58,48.46 C79.30,50.20 78.97,54.33 80.25,58.75 C81.46,62.98 83.69,70.77 84.70,74.35" fill="none" stroke="rgb(255, 0, 0)" stroke-width="4.07" stroke-opacity="1.00" stroke-linejoin="round"/>
<path d="M80.76,97.08 C80.76,97.08 79.13,97.10 79.13,97.10 C78.28,98.68 77.98,104.38 78.29,108.26 C78.61,111.86 79.05,116.59 79.16,117.72" fill="none" stroke="rgb(255, 0, 0)" stroke-width="4.07" stroke-opacity="1.00" stroke-linejoin="round"/>
<path d="M99.40,159.34 C99.04,159.26 97.96,159.59 97.18,160.35 C94.69,162.86 92.80,168.41 92.09,171.97 C90.78,178.74 89.42,190.36 88.79,193.41" fill="none" stroke="rgb(255, 0, 0)" stroke-width="4.07" stroke-opacity="1.00" stroke-linejoin="round"/>
<path d="M81.13,211.26 C81.13,211.26 80.73,210.77 80.73,210.77 C80.69,211.35 80.66,211.78 80.65,212.08 C80.58,215.16 80.46,219.82 80.17,224.71 C79.72,231.29 78.26,238.88 78.07,239.84" fill="none" stroke="rgb(255, 0, 0)" stroke-width="4.07" stroke-opacity="1.00" stroke-linejoin="round"/>
<path d="M75.63,249.63 C75.16,249.89 74.84,250.12 74.69,250.30 C74.16,250.95 71.16,258.46 70.19,261.43 C68.86,265.50 65.82,278.20 65.53,279.79" fill="none" stroke="rgb(255, 0, 0)" stroke-width="4.07" stroke-opacity="1.00" stroke-linejoin="round"/>
<path d="M63.96,314.57 C63.53,315.35 63.24,315.92 63.09,316.26 C62.41,317.85 60.96,324.73 60.51,327.70 C59.43,334.95 58.96,341.11 58.90,342.65" fill="none" stroke="rgb(255, 0, 0)" stroke-width="4.07" stroke-opacity="1.00" stroke-linejoin="round"/>
<path d="M61.27,345.36 C61.28,345.32 61.20,345.39 61.18,345.42 C60.60,347.14 60.11,349.30 59.83,351.61 C59.54,353.97 59.03,357.17 58.69,358.37 C58.57,358.79 58.37,359.26 58.08,359.80" fill="none" stroke="rgb(255, 0, 0)" stroke-width="4.07" stroke-opacity="1.00" stroke-linejoin="round"/>
<path d="M104.47,-55.27 C104.47,-55.27 106.78,-58.14 106.78,-58.14 C108.29,-55.44 109.08,-49.63 109.79,-45.71 C110.16,-43.69 112.10,-34.49 112.93,-30.64 C113.94,-26.30 115.25,-20.66 115.56,-19.36" fill="none" stroke="rgb(255, 0, 0)" stroke-width="4.07" stroke-opacity="1.00" stroke-linejoin="round"/>
<path d="M101.47,-30.29 C101.47,-30.29 100.84,-30.35 100.84,-30.35 C99.92,-29.69 99.53,-29.08 99.28,-27.65 C98.50,-22.95 99.63,-8.06 100.27,-0.54 C100.67,3.73 101.19,9.30 101.31,10.60" fill="none" stroke="rgb(255, 0, 0)" stroke-width="4.07" stroke-opacity="1.00" stroke-linejoin="round"/>
<path d="M108.13,25.30 C106.95,23.60 106.32,22.48 105.85,21.14 C105.51,20.17 104.79,18.03 104.40,16.86 C104.40,16.86 103.71,16.48 103.71,16.48 C102.57,17.85 101.25,23.14 100.91,25.95 C100.60,28.80 100.80,35.95 101.44,39.60 C101.72,41.16 102.52,44.33 103.06,46.36" fill="none" stroke="rgb(255, 0, 0)" stroke-width="4.07" stroke-opacity="1.00" stroke-linejoin="round"/>
<path d="M125.18,50.72 C125.18,50.72 123.32,49.50 123.32,49.50 C122.30,50.49 121.22,55.62 120.96,59.04 C120.52,65.27 122.06,95.59 122.27,98.90 C122.32,99.95 122.37,100.99 122.42,102.03" fill="none" stroke="rgb(255, 0, 0)" stroke-width="4.07" stroke-opacity="1.00" stroke-linejoin="round"/>
<path d="M107.89,84.62 C107.62,84.41 107.38,84.15 107.16,83.84 C106.94,83.54 106.44,82.76 105.66,81.52 C106.43,86.44 107.14,88.97 108.35,92.19 C112.08,101.96 114.06,106.48 114.65,107.73" fill="none" stroke="rgb(255, 0, 0)" stroke-width="4.07" stroke-opacity="1.00" stroke-linejoin="round"/>
<path d="M119.92,133.74 C119.22,134.10 118.29,137.39 118.01,142.84 C117.96,143.92 117.79,153.66 117.74,157.64 C117.70,161.84 117.77,165.06 117.82,166.08" fill="none" stroke="rgb(255, 0, 0)" stroke-width="4.07" stroke-opacity="1.00" stroke-linejoin="round"/>
<path d="M114.49,206.13 C114.49,206.13 113.90,204.42 113.90,204.42 C113.77,204.35 113.50,207.86 115.08,215.40 C116.07,220.07 119.31,232.69 119.63,233.91" fill="none" stroke="rgb(255, 0, 0)" stroke-width="4.07" stroke-opacity="1.00" stroke-linejoin="round"/>
<path d="M116.01,232.77 C116.01,232.77 113.21,232.39 113.21,232.39 C112.49,233.62 112.05,239.59 112.31,242.34 C112.77,246.81 114.64,255.90 114.87,256.98" fill="none" stroke="rgb(255, 0, 0)" stroke-width="4.07" stroke-opacity="1.00" stroke-linejoin="round"/>
<path d="M95.67,292.27 C95.67,292.27 95.34,291.67 95.34,291.67 C95.34,291.67 95.09,292.03 95.09,292.03 C95.33,294.36 97.20,301.05 98.72,304.65 C99.47,306.40 100.32,308.10 101.12,309.57" fill="none" stroke="rgb(255, 0, 0)" stroke-width="4.07" stroke-opacity="1.00" stroke-linejoin="round"/>
<path d="M119.37,292.94 C118.17,292.97 116.99,293.65 116.43,294.89 C115.99,295.89 115.53,302.39 115.57,305.74 C115.62,308.93 116.33,316.61 116.72,319.34 C116.96,320.98 117.38,323.38 117.63,324.62" fill="none" stroke="rgb(255, 0, 0)" stroke-width="4.07" stroke-opacity="1.00" stroke-linejoin="round"/>
<path d="M134.95,198.13 C134.95,198.13 134.92,197.26 134.92,197.26 C134.76,197.21 134.42,200.56 134.01,206.17 C133.40,214.80 132.15,232.31 131.52,241.19 C130.76,251.42 130.04,257.45 129.74,259.82 C129.56,261.18 129.46,261.72 129.34,262.00" fill="none" stroke="rgb(255, 0, 0)" stroke-width="4.07" stroke-opacity="1.00" stroke-linejoin="round"/>
<path d="M131.65,181.57 C131.65,181.57 131.79,181.29 131.79,181.29 C132.03,181.32 132.33,182.25 132.77,184.51 C133.68,189.46 134.31,194.16 134.40,198.14 C134.45,200.30 134.40,206.32 134.39,207.41" fill="none" stroke="rgb(255, 0, 0)" stroke-width="4.07" stroke-opacity="1.00" stroke-linejoin="round"/>
<path d="M146.25,144.19 C146.25,144.19 146.20,144.29 146.20,144.29 C148.18,146.34 149.18,147.43 149.52,148.04 C150.40,149.71 152.56,156.34 153.09,159.12 C153.56,161.61 154.06,167.16 154.16,168.27" fill="none" stroke="rgb(255, 0, 0)" stroke-width="4.07" stroke-opacity="1.00" stroke-linejoin="round"/>
<path d="M147.05,107.41 C147.05,107.41 147.95,107.22 147.95,107.22 C149.60,109.23 153.18,115.24 153.85,116.96 C154.60,118.90 155.55,122.28 156.02,124.39" fill="none" stroke="rgb(255, 0, 0)" stroke-width="4.07" stroke-opacity="1.00" stroke-linejoin="round"/>
<path d="M131.90,80.10 C131.90,80.10 132.93,74.22 132.93,74.22 C131.63,76.87 129.92,82.31 129.59,84.64 C129.02,88.91 129.65,105.58 130.48,109.51 C130.54,109.79 130.66,110.22 130.82,110.78" fill="none" stroke="rgb(255, 0, 0)" stroke-width="4.07" stroke-opacity="1.00" stroke-linejoin="round"/>
<path d="M138.62,-6.71 C138.62,-6.71 136.20,-7.59 136.20,-7.59 C135.23,-5.09 134.84,-3.70 134.92,-2.38 C135.06,-0.16 136.12,9.47 136.46,11.97 C137.16,17.10 139.41,28.85 139.63,29.99" fill="none" stroke="rgb(255, 0, 0)" stroke-width="4.07" stroke-opacity="1.00" stroke-linejoin="round"/>
<path d="M137.46,-64.68 C137.46,-64.68 138.20,-66.75 138.20,-66.75 C138.41,-64.15 138.37,-57.35 138.50,-54.85 C138.65,-52.01 139.15,-47.00 139.80,-41.80 C140.29,-38.06 141.36,-32.06 142.12,-30.48" fill="none" stroke="rgb(255, 0, 0)" stroke-width="4.07" stroke-opacity="1.00" stroke-linejoin="round"/>
<path d="M157.19,-65.60 C156.73,-62.96 156.58,-61.67 156.58,-60.07 C156.57,-57.26 156.69,-49.72 156.77,-45.66 C156.92,-41.15 157.26,-30.27 157.27,-29.91 C157.27,-29.44 157.26,-28.52 157.24,-27.13" fill="none" stroke="rgb(255, 0, 0)" stroke-width="4.07" stroke-opacity="1.00" stroke-linejoin="round"/>
<path d="M161.28,-11.17 C161.28,-11.17 161.33,-11.31 161.33,-11.31 C162.52,-11.46 166.16,-7.29 167.51,-4.09 C169.18,-0.00 171.30,11.11 171.94,20.21 C172.66,33.52 172.57,57.79 172.48,66.11 C172.47,66.93 172.46,67.75 172.45,68.57" fill="none" stroke="rgb(255, 0, 0)" stroke-width="4.07" stroke-opacity="1.00" stroke-linejoin="round"/>
<path d="M202.27,4.53 C202.27,4.53 202.09,3.65 202.09,3.65 C201.41,3.00 199.26,3.40 197.21,5.17 C193.99,8.01 187.68,17.78 183.99,25.25 C180.35,32.84 176.89,41.60 173.71,50.87 C168.91,65.74 166.99,74.49 166.52,77.79" fill="none" stroke="rgb(255, 0, 0)" stroke-width="4.07" stroke-opacity="1.00" stroke-linejoin="round"/>
<path d="M207.59,-55.21 C207.59,-55.21 207.36,-57.50 207.36,-57.50 C207.36,-57.50 206.47,-57.76 206.47,-57.76 C203.26,-55.05 198.21,-44.86 194.62,-35.66 C191.37,-27.09 189.05,-19.71 188.73,-16.99" fill="none" stroke="rgb(255, 0, 0)" stroke-width="4.07" stroke-opacity="1.00" stroke-linejoin="round"/>
<path d="M208.26,-67.80 C209.74,-67.83 211.02,-67.67 211.58,-67.20 C212.73,-66.19 213.41,-62.42 213.97,-56.57 C214.37,-51.72 212.98,-35.77 212.12,-27.67 C211.64,-23.40 210.47,-18.64 210.00,-17.38" fill="none" stroke="rgb(255, 0, 0)" stroke-width="4.07" stroke-opacity="1.00" stroke-linejoin="round"/>
<path d="M209.36,73.14 C209.36,73.14 207.20,72.00 207.20,72.00 C205.76,72.21 202.44,76.78 200.49,80.76 C198.18,85.54 192.49,99.70 189.89,108.07 C187.52,115.98 184.32,127.86 183.78,132.09" fill="none" stroke="rgb(255, 0, 0)" stroke-width="4.07" stroke-opacity="1.00" stroke-linejoin="round"/>
<path d="M182.54,94.64 C182.54,94.64 179.78,92.28 179.78,92.28 C178.52,93.05 176.55,96.59 175.12,100.68 C173.54,105.26 170.84,120.53 170.24,125.05 C169.68,129.67 168.18,150.57 168.15,153.54 C168.13,157.18 168.41,161.72 168.95,166.81" fill="none" stroke="rgb(255, 0, 0)" stroke-width="4.07" stroke-opacity="1.00" stroke-linejoin="round"/>
<path d="M180.34,148.16 C180.34,148.16 178.50,148.35 178.50,148.35 C176.53,150.96 174.46,156.37 174.18,157.34 C172.73,162.52 170.58,178.78 170.63,185.61 C170.68,189.00 170.95,193.07 171.35,198.06" fill="none" stroke="rgb(255, 0, 0)" stroke-width="4.07" stroke-opacity="1.00" stroke-linejoin="round"/>
<path d="M154.32,173.45 C152.89,174.31 151.16,177.97 150.44,181.58 C149.72,185.32 147.82,201.95 147.10,212.26 C146.09,230.93 147.40,240.99 147.88,244.06" fill="none" stroke="rgb(255, 0, 0)" stroke-width="4.07" stroke-opacity="1.00" stroke-linejoin="round"/>
<path d="M156.15,190.49 C156.15,190.49 156.44,188.68 156.44,188.68 C157.38,193.21 158.20,207.54 158.52,215.41 C158.69,223.19 158.76,233.24 158.56,235.07 C158.35,236.87 157.85,239.06 157.29,240.98" fill="none" stroke="rgb(255, 0, 0)" stroke-width="4.07" stroke-opacity="1.00" stroke-linejoin="round"/>
<path d="M140.08,258.55 C140.08,258.55 140.50,255.09 140.50,255.09 C140.92,256.31 140.54,262.20 140.33,265.21 C139.91,271.80 140.80,280.17 141.12,281.37" fill="none" stroke="rgb(255, 0, 0)" stroke-width="4.07" stroke-opacity="1.00" stroke-linejoin="round"/>
<path d="M151.87,271.62 C151.87,271.62 150.93,270.98 150.93,270.98 C149.57,272.27 147.90,277.58 147.32,280.87 C146.42,286.15 146.11,295.65 146.21,306.36 C146.24,308.46 146.30,309.97 146.46,312.96" fill="none" stroke="rgb(255, 0, 0)" stroke-width="4.07" stroke-opacity="1.00" stroke-linejoin="round"/>
<path d="M148.64,315.73 C147.41,317.01 146.07,322.13 145.97,325.49 C145.92,328.66 146.84,333.11 147.81,334.77 C148.62,336.14 149.66,337.35 150.28,337.76" fill="none" stroke="rgb(255, 0, 0)" stroke-width="4.07" stroke-opacity="1.00" stroke-linejoin="round"/>
<path d="M169.47,240.89 C169.47,240.89 169.30,239.22 169.30,239.22 C168.41,240.11 167.45,244.00 167.27,247.03 C167.09,250.59 167.66,257.03 168.32,260.97 C169.22,266.04 170.25,270.46 171.23,273.75" fill="none" stroke="rgb(255, 0, 0)" stroke-width="4.07" stroke-opacity="1.00" stroke-linejoin="round"/>
<path d="M192.38,216.03 C192.38,216.03 192.10,216.14 192.10,216.14 C191.43,217.55 190.98,221.27 190.80,224.54 C190.36,232.89 189.53,248.67 189.15,256.09 C188.97,259.43 188.93,262.08 188.99,265.24" fill="none" stroke="rgb(255, 0, 0)" stroke-width="4.07" stroke-opacity="1.00" stroke-linejoin="round"/>
<path d="M194.03,307.66 C194.03,307.66 193.00,307.16 193.00,307.16 C191.81,309.06 191.42,314.80 191.24,318.43 C191.05,324.08 191.19,328.87 191.80,332.45 C192.78,337.82 193.08,338.79 193.60,339.86" fill="none" stroke="rgb(255, 0, 0)" stroke-width="4.07" stroke-opacity="1.00" stroke-linejoin="round"/>
<path d="M208.99,244.43 C208.99,244.43 208.93,243.29 208.93,243.29 C208.35,245.53 207.77,249.07 207.14,254.07 C206.32,261.35 205.04,275.90 204.94,280.96 C204.74,292.22 205.22,297.50 205.56,299.79" fill="none" stroke="rgb(255, 0, 0)" stroke-width="4.07" stroke-opacity="1.00" stroke-linejoin="round"/>
<path d="M205.51,218.53 C205.51,218.53 205.18,218.37 205.18,218.37 C205.18,218.37 204.84,218.83 204.84,218.83 C204.86,223.40 206.44,236.43 207.63,244.52 C208.26,248.39 209.32,254.87 209.76,257.49" fill="none" stroke="rgb(255, 0, 0)" stroke-width="4.07" stroke-opacity="1.00" stroke-linejoin="round"/>
<path d="M227.26,184.08 C227.26,184.08 228.17,178.84 228.17,178.84 C228.24,179.30 227.04,195.41 226.51,203.55 C225.81,215.19 225.61,225.70 225.69,232.31 C226.14,248.69 228.64,260.53 229.50,262.54" fill="none" stroke="rgb(255, 0, 0)" stroke-width="4.07" stroke-opacity="1.00" stroke-linejoin="round"/>
<path d="M242.05,199.47 C242.05,199.47 241.63,198.74 241.63,198.74 C241.63,199.91 242.09,219.91 241.90,223.67 C241.00,240.66 238.32,254.73 237.49,257.58" fill="none" stroke="rgb(255, 0, 0)" stroke-width="4.07" stroke-opacity="1.00" stroke-linejoin="round"/>
<path d="M214.43,300.94 C214.43,300.94 213.30,300.32 213.30,300.32 C212.72,301.17 210.64,307.89 210.29,309.25 C208.87,314.81 209.22,322.90 209.49,325.84" fill="none" stroke="rgb(255, 0, 0)" stroke-width="4.07" stroke-opacity="1.00" stroke-linejoin="round"/>
<path d="M253.84,271.86 C251.99,272.05 250.82,272.63 249.57,274.19 C246.09,278.54 240.87,290.25 238.84,297.77 C236.34,307.29 235.92,311.72 235.83,313.28" fill="none" stroke="rgb(255, 0, 0)" stroke-width="4.07" stroke-opacity="1.00" stroke-linejoin="round"/>
<path d="M455.87,54.14 C457.48,52.13 459.53,50.03 461.03,48.96 C461.66,48.53 462.37,48.22 463.02,47.82 C463.62,47.42 464.58,46.83 465.14,46.81 C466.79,46.86 468.48,50.91 468.43,53.67 C468.30,57.65 465.17,69.73 461.10,82.14 C458.19,90.77 452.23,108.49 452.17,108.71 C452.02,109.23 451.73,110.43 451.28,112.29" fill="none" stroke="rgb(255, 0, 0)" stroke-width="4.07" stroke-opacity="1.00" stroke-linejoin="round"/>
<path d="M458.68,130.68 C456.39,131.75 455.15,132.72 454.39,134.25 C452.12,138.84 448.29,150.93 446.94,157.92 C444.27,172.84 442.46,194.18 442.13,198.76" fill="none" stroke="rgb(255, 0, 0)" stroke-width="4.07" stroke-opacity="1.00" stroke-linejoin="round"/>
<path d="M437.60,165.32 C437.60,165.32 437.34,164.93 437.34,164.93 C436.47,169.95 434.90,179.35 433.66,189.50 C432.33,202.26 433.01,216.53 433.07,217.65" fill="none" stroke="rgb(255, 0, 0)" stroke-width="4.07" stroke-opacity="1.00" stroke-linejoin="round"/>
<path d="M451.47,225.56 C450.04,226.04 448.99,228.08 447.28,232.67 C444.96,239.13 432.82,280.30 429.55,289.21 C426.77,296.32 421.82,308.91 419.79,312.42" fill="none" stroke="rgb(255, 0, 0)" stroke-width="4.07" stroke-opacity="1.00" stroke-linejoin="round"/>
<path d="M413.04,184.26 C413.28,186.87 412.64,190.65 411.30,195.07 C409.60,200.15 405.37,213.97 403.29,220.88 C398.73,235.74 392.28,255.35 391.04,259.02" fill="none" stroke="rgb(255, 0, 0)" stroke-width="4.07" stroke-opacity="1.00" stroke-linejoin="round"/>
<path d="M411.88,184.57 C411.88,184.57 411.31,181.55 411.31,181.55 C411.31,181.55 410.39,181.48 410.39,181.48 C407.65,184.95 402.26,199.57 400.39,206.75 C395.71,225.44 393.52,238.99 393.09,241.74" fill="none" stroke="rgb(255, 0, 0)" stroke-width="4.07" stroke-opacity="1.00" stroke-linejoin="round"/>
<path d="M355.98,214.20 C355.98,214.20 355.61,214.12 355.61,214.12 C355.57,214.32 357.21,234.96 357.29,241.60 C357.43,256.92 353.72,272.94 353.25,274.67" fill="none" stroke="rgb(255, 0, 0)" stroke-width="4.07" stroke-opacity="1.00" stroke-linejoin="round"/>
<path d="M339.67,235.82 C339.67,235.82 341.55,229.44 341.55,229.44 C339.18,238.12 336.95,248.32 335.67,257.08 C334.58,264.60 334.23,272.57 334.19,273.75" fill="none" stroke="rgb(255, 0, 0)" stroke-width="4.07" stroke-opacity="1.00" stroke-linejoin="round"/>
<path d="M355.31,270.28 C353.72,270.27 349.27,271.98 346.77,273.51 C343.84,275.35 339.50,279.14 336.43,282.67 C328.56,291.83 323.30,308.56 323.16,310.68" fill="none" stroke="rgb(255, 0, 0)" stroke-width="4.07" stroke-opacity="1.00" stroke-linejoin="round"/>
<path d="M320.98,257.69 C320.78,259.45 320.54,260.49 319.96,261.80 C318.79,264.47 317.00,269.51 315.34,274.69 C312.95,282.57 310.14,292.52 309.45,295.06" fill="none" stroke="rgb(255, 0, 0)" stroke-width="4.07" stroke-opacity="1.00" stroke-linejoin="round"/>
<path d="M306.93,233.07 C306.93,233.07 306.62,231.91 306.62,231.91 C306.05,232.76 302.41,253.20 301.98,256.49 C301.49,260.17 301.10,276.11 302.01,281.26" fill="none" stroke="rgb(255, 0, 0)" stroke-width="4.07" stroke-opacity="1.00" stroke-linejoin="round"/>
<path d="M264.47,216.09 C264.23,213.22 263.83,208.29 263.70,207.75 C263.36,206.28 262.53,205.26 261.73,205.00 C260.19,205.35 258.66,209.98 258.01,213.95 C257.29,218.59 257.12,234.12 257.63,240.53 C258.18,247.17 260.71,260.99 262.63,266.89 C263.16,268.51 263.76,269.67 265.03,271.68" fill="none" stroke="rgb(255, 0, 0)" stroke-width="4.07" stroke-opacity="1.00" stroke-linejoin="round"/>
<path d="M282.92,166.24 C283.16,165.50 283.34,165.01 283.45,164.78 C283.56,164.54 283.77,164.24 284.06,163.87 C284.12,165.39 283.90,175.51 283.90,177.27 C283.92,181.87 284.70,188.67 285.36,191.07 C286.11,193.68 288.44,196.87 289.14,196.68 C289.14,196.68 289.91,196.19 289.91,196.19" fill="none" stroke="rgb(255, 0, 0)" stroke-width="4.07" stroke-opacity="1.00" stroke-linejoin="round"/>
<path d="M307.90,131.60 C307.90,131.60 308.52,127.83 308.52,127.83 C307.04,131.22 304.82,148.87 304.45,153.58 C303.53,167.73 303.97,198.77 304.80,202.21" fill="none" stroke="rgb(255, 0, 0)" stroke-width="4.07" stroke-opacity="1.00" stroke-linejoin="round"/>
<path d="M349.02,133.92 C348.45,133.28 344.53,133.47 342.36,134.84 C337.58,137.96 327.75,149.52 324.15,154.56 C316.32,165.57 308.93,181.67 308.26,183.80" fill="none" stroke="rgb(255, 0, 0)" stroke-width="4.07" stroke-opacity="1.00" stroke-linejoin="round"/>
<path d="M361.72,126.41 C361.72,126.41 362.73,125.23 362.73,125.23 C360.11,128.09 354.82,141.90 352.98,147.55 C350.57,154.98 347.13,169.74 345.94,177.41 C344.71,185.44 343.86,199.81 344.92,203.62" fill="none" stroke="rgb(255, 0, 0)" stroke-width="4.07" stroke-opacity="1.00" stroke-linejoin="round"/>
<path d="M414.26,61.22 C414.26,61.22 414.26,61.12 414.26,61.12 C414.27,61.08 414.21,61.10 414.10,61.19 C412.81,62.20 409.83,66.09 408.34,68.90 C406.62,72.20 403.89,79.52 403.33,81.59 C402.34,85.24 401.77,90.66 401.82,92.99 C401.93,97.27 403.01,100.23 403.64,100.53" fill="none" stroke="rgb(255, 0, 0)" stroke-width="4.07" stroke-opacity="1.00" stroke-linejoin="round"/>
<path d="M430.70,68.98 C430.70,68.98 429.62,68.52 429.62,68.52 C428.45,70.41 424.54,87.64 422.85,95.39 C421.19,103.17 418.40,115.75 417.27,120.56" fill="none" stroke="rgb(255, 0, 0)" stroke-width="4.07" stroke-opacity="1.00" stroke-linejoin="round"/>
<path d="M406.93,127.20 C405.46,127.64 403.03,131.89 400.99,136.67 C398.23,143.38 386.50,178.53 382.99,191.85 C382.55,193.49 382.36,194.59 382.10,196.88 C382.10,196.88 382.43,197.19 382.43,197.19 C382.43,197.19 384.30,192.77 384.30,192.77" fill="none" stroke="rgb(255, 0, 0)" stroke-width="4.07" stroke-opacity="1.00" stroke-linejoin="round"/>
<path d="M456.91,15.28 C456.91,15.28 457.95,13.95 457.95,13.95 C459.04,16.93 457.71,27.27 455.35,36.90 C453.45,44.13 441.83,78.48 440.05,83.35" fill="none" stroke="rgb(255, 0, 0)" stroke-width="4.07" stroke-opacity="1.00" stroke-linejoin="round"/>
<path d="M447.13,3.68 C447.13,3.68 448.22,-2.74 448.22,-2.74 C447.54,-1.69 446.30,2.20 445.63,4.45 C441.48,18.34 433.39,48.34 429.83,62.25 C426.86,74.87 426.45,77.44 426.06,80.40" fill="none" stroke="rgb(255, 0, 0)" stroke-width="4.07" stroke-opacity="1.00" stroke-linejoin="round"/>
<path d="M458.62,-27.05 C458.86,-29.57 459.50,-32.60 461.08,-38.60 C461.98,-42.17 462.11,-43.78 462.10,-45.22 C460.65,-44.47 458.50,-40.35 457.43,-37.90 C445.36,-10.10 438.81,14.81 438.43,16.45" fill="none" stroke="rgb(255, 0, 0)" stroke-width="4.07" stroke-opacity="1.00" stroke-linejoin="round"/>
<path d="M441.02,-72.14 C441.02,-72.14 441.15,-72.66 441.15,-72.66 C440.83,-72.01 439.95,-70.26 439.40,-69.16 C435.79,-61.99 428.51,-47.45 424.84,-40.08 C422.14,-34.37 415.76,-20.03 415.45,-18.87" fill="none" stroke="rgb(255, 0, 0)" stroke-width="4.07" stroke-opacity="1.00" stroke-linejoin="round"/>
<path d="M438.76,-36.28 C438.76,-36.28 438.34,-36.39 438.34,-36.39 C437.63,-35.92 433.80,-21.66 430.39,-11.48 C425.23,3.08 411.53,38.70 409.06,44.26 C408.81,44.83 408.56,45.39 408.30,45.96" fill="none" stroke="rgb(255, 0, 0)" stroke-width="4.07" stroke-opacity="1.00" stroke-linejoin="round"/>
<path d="M394.78,52.37 C393.37,52.36 392.34,52.82 391.40,54.08 C389.08,57.21 383.38,69.92 381.21,76.38 C379.14,82.56 375.29,97.73 373.84,105.51 C373.13,109.63 371.94,116.60 371.46,119.45" fill="none" stroke="rgb(255, 0, 0)" stroke-width="4.07" stroke-opacity="1.00" stroke-linejoin="round"/>
<path d="M378.59,26.89 C378.59,26.89 380.83,24.11 380.83,24.11 C378.57,27.32 371.68,43.04 368.64,50.10 C367.08,53.83 363.82,61.66 362.13,65.75 C360.73,69.28 358.24,75.77 357.16,78.73 C356.90,79.42 355.66,82.02 355.19,83.00" fill="none" stroke="rgb(255, 0, 0)" stroke-width="4.07" stroke-opacity="1.00" stroke-linejoin="round"/>
<path d="M411.15,-61.81 C411.15,-61.81 413.36,-68.17 413.36,-68.17 C413.36,-68.17 413.11,-68.47 413.11,-68.47 C412.09,-67.02 405.90,-53.79 401.78,-43.68 C399.12,-36.79 393.71,-22.52 390.96,-15.14 C389.44,-10.89 386.58,-2.87 385.26,0.89 C384.77,2.27 383.92,4.69 383.55,5.73" fill="none" stroke="rgb(255, 0, 0)" stroke-width="4.07" stroke-opacity="1.00" stroke-linejoin="round"/>
<path d="M397.10,-51.24 C397.10,-51.24 397.10,-53.06 397.10,-53.06 C396.24,-51.11 394.17,-46.42 392.96,-43.68 C389.38,-35.62 382.28,-19.74 378.75,-11.91 C376.09,-6.19 370.73,5.03 367.87,9.68" fill="none" stroke="rgb(255, 0, 0)" stroke-width="4.07" stroke-opacity="1.00" stroke-linejoin="round"/>
<path d="M377.24,-37.68 C377.24,-37.68 376.04,-41.35 376.04,-41.35 C374.92,-41.65 373.44,-41.40 372.29,-40.53 C371.05,-39.57 367.61,-34.65 365.86,-30.77 C362.29,-22.72 355.11,3.33 351.57,19.16 C349.98,27.12 348.16,36.33 347.92,37.56" fill="none" stroke="rgb(255, 0, 0)" stroke-width="4.07" stroke-opacity="1.00" stroke-linejoin="round"/>
<path d="M344.92,26.83 C345.14,25.64 345.27,24.80 345.32,24.32 C345.37,23.84 345.40,23.05 345.42,21.94 C343.42,23.73 340.42,29.77 338.98,33.31 C335.44,42.21 332.36,50.91 329.27,61.74 C322.33,87.31 319.79,98.76 318.89,102.26" fill="none" stroke="rgb(255, 0, 0)" stroke-width="4.07" stroke-opacity="1.00" stroke-linejoin="round"/>
<path d="M342.18,5.88 C342.18,5.88 344.24,4.28 344.24,4.28 C344.24,4.28 344.39,4.48 344.39,4.48 C342.79,7.78 335.55,24.20 333.01,30.47 C331.89,33.36 328.85,41.45 327.89,44.24 C326.72,47.64 325.60,51.96 325.69,52.56 C326.33,51.32 326.74,50.52 326.91,50.16 C327.74,48.31 339.32,12.08 341.45,5.39" fill="none" stroke="rgb(255, 0, 0)" stroke-width="4.07" stroke-opacity="1.00" stroke-linejoin="round"/>
<path d="M367.47,-60.47 C367.47,-60.47 367.78,-61.28 367.78,-61.28 C364.06,-53.86 361.61,-48.40 357.99,-38.86 C352.17,-22.89 344.31,-0.97 342.27,4.99 C342.04,5.63 341.82,6.28 341.59,6.92" fill="none" stroke="rgb(255, 0, 0)" stroke-width="4.07" stroke-opacity="1.00" stroke-linejoin="round"/>
<path d="M326.05,28.17 C325.18,27.09 324.64,26.53 324.24,26.35 C323.53,26.10 321.12,29.49 319.93,32.65 C314.73,47.09 307.35,71.33 303.19,87.60 C295.80,119.32 292.98,151.20 292.63,155.66" fill="none" stroke="rgb(255, 0, 0)" stroke-width="4.07" stroke-opacity="1.00" stroke-linejoin="round"/>
<path d="M315.66,-4.81 C315.66,-4.81 316.71,-7.28 316.71,-7.28 C316.63,-7.35 313.05,-4.14 307.58,15.68 C304.05,29.20 296.90,60.45 294.09,75.15 C292.83,82.22 291.08,92.43 290.59,95.58" fill="none" stroke="rgb(255, 0, 0)" stroke-width="4.07" stroke-opacity="1.00" stroke-linejoin="round"/>
<path d="M297.33,22.49 C297.33,22.49 296.96,21.04 296.96,21.04 C295.88,25.78 294.10,39.68 293.18,47.43 C291.48,64.37 289.73,87.52 289.30,94.32 C289.14,96.89 289.10,99.88 289.09,100.66" fill="none" stroke="rgb(255, 0, 0)" stroke-width="4.07" stroke-opacity="1.00" stroke-linejoin="round"/>
<path d="M338.39,-67.68 C338.39,-67.68 339.15,-70.24 339.15,-70.24 C338.40,-68.57 334.40,-54.47 332.01,-44.61 C330.26,-36.48 327.10,-21.46 326.68,-17.48" fill="none" stroke="rgb(255, 0, 0)" stroke-width="4.07" stroke-opacity="1.00" stroke-linejoin="round"/>
<path d="M357.51,-62.67 C357.51,-62.67 357.99,-64.13 357.99,-64.13 C357.87,-61.85 354.20,-45.68 352.17,-37.72 C350.03,-29.94 345.23,-12.75 344.17,-9.57 C343.68,-8.13 343.17,-6.82 342.74,-5.82" fill="none" stroke="rgb(255, 0, 0)" stroke-width="4.07" stroke-opacity="1.00" stroke-linejoin="round"/>
<path d="M312.42,-66.70 C313.39,-67.72 314.52,-68.98 314.73,-69.36 C314.81,-69.51 314.85,-69.70 314.82,-69.92 C314.74,-69.94 310.97,-59.00 307.30,-44.73 C301.89,-22.41 299.59,-9.67 299.15,-7.17" fill="none" stroke="rgb(255, 0, 0)" stroke-width="4.07" stroke-opacity="1.00" stroke-linejoin="round"/>
<path d="M290.43,-43.85 C290.43,-43.85 289.22,-52.35 289.22,-52.35 C287.21,-51.70 284.40,-48.21 283.19,-46.07 C280.92,-41.99 276.00,-28.67 273.77,-20.65 C269.86,-5.59 265.75,11.56 264.78,16.22" fill="none" stroke="rgb(255, 0, 0)" stroke-width="4.07" stroke-opacity="1.00" stroke-linejoin="round"/>
<path d="M266.97,-54.42 C266.44,-57.54 265.54,-62.90 265.48,-63.56 C265.45,-64.02 265.42,-64.89 265.42,-66.18 C265.55,-64.65 266.47,-56.89 266.88,-53.73 C267.97,-46.23 269.75,-35.86 270.25,-33.14" fill="none" stroke="rgb(255, 0, 0)" stroke-width="4.07" stroke-opacity="1.00" stroke-linejoin="round"/>
<path d="M262.39,-58.76 C262.39,-58.76 262.25,-59.04 262.25,-59.04 C262.13,-58.79 261.18,-53.82 259.56,-50.39 C257.96,-47.01 249.86,-29.55 247.57,-22.34 C246.41,-18.65 244.29,-10.71 243.67,-7.49 C243.36,-5.88 243.32,-4.53 243.42,-2.74" fill="none" stroke="rgb(255, 0, 0)" stroke-width="4.07" stroke-opacity="1.00" stroke-linejoin="round"/>
<path d="M259.82,-54.85 C255.86,-55.08 253.22,-54.72 250.15,-52.49 C246.82,-49.97 240.42,-39.62 237.98,-34.34 C235.33,-28.58 232.32,-19.36 229.40,-8.98 C226.47,2.30 225.65,8.19 225.52,11.72" fill="none" stroke="rgb(255, 0, 0)" stroke-width="4.07" stroke-opacity="1.00" stroke-linejoin="round"/>
<path d="M247.42,1.05 C247.38,0.47 247.33,0.06 247.26,-0.17 C247.19,-0.41 247.02,-0.80 246.73,-1.34 C245.28,-1.96 242.13,0.03 240.49,1.98 C237.60,5.54 233.22,15.73 231.36,22.87 C229.57,29.78 227.95,40.32 226.96,50.09 C226.32,58.18 226.23,68.09 226.22,69.49" fill="none" stroke="rgb(255, 0, 0)" stroke-width="4.07" stroke-opacity="1.00" stroke-linejoin="round"/>
<path d="M262.39,43.51 C260.41,42.89 258.44,42.60 257.14,43.01 C254.71,43.79 250.61,47.80 248.91,50.32 C245.93,54.80 241.78,63.79 238.12,72.66 C233.44,84.74 221.30,124.33 219.28,131.52 C218.63,133.70 217.87,135.50 216.96,137.13" fill="none" stroke="rgb(255, 0, 0)" stroke-width="4.07" stroke-opacity="1.00" stroke-linejoin="round"/>
<path d="M219.38,68.13 C219.38,68.13 219.13,65.32 219.13,65.32 C219.13,65.32 218.02,65.45 218.02,65.45 C216.24,68.06 212.66,80.81 210.87,87.35 C209.07,94.64 206.11,108.05 204.71,115.10 C201.11,135.50 199.87,149.27 199.66,155.08" fill="none" stroke="rgb(255, 0, 0)" stroke-width="4.07" stroke-opacity="1.00" stroke-linejoin="round"/>
<path d="M235.08,107.47 C234.73,107.60 234.34,108.44 233.75,110.47 C233.01,113.04 230.38,133.55 230.30,137.61 C230.19,145.14 230.87,151.30 231.08,152.84" fill="none" stroke="rgb(255, 0, 0)" stroke-width="4.07" stroke-opacity="1.00" stroke-linejoin="round"/>
<path d="M249.50,102.95 C249.50,102.95 248.95,102.36 248.95,102.36 C247.72,103.40 246.58,107.95 246.19,111.01 C244.52,126.21 242.17,147.45 241.33,151.25" fill="none" stroke="rgb(255, 0, 0)" stroke-width="4.07" stroke-opacity="1.00" stroke-linejoin="round"/>
<path d="M217.67,132.64 C217.67,132.64 216.23,132.66 216.23,132.66 C215.95,134.80 215.45,152.15 215.26,160.57 C215.12,171.99 214.97,186.84 214.95,190.26" fill="none" stroke="rgb(255, 0, 0)" stroke-width="4.07" stroke-opacity="1.00" stroke-linejoin="round"/>
<path d="M202.64,180.05 C201.81,180.02 200.35,180.92 199.75,182.11 C199.46,182.70 198.90,190.08 199.24,193.70 C199.36,194.93 201.11,206.56 201.29,207.48 C201.69,209.54 202.46,212.07 202.86,213.48" fill="none" stroke="rgb(255, 0, 0)" stroke-width="4.07" stroke-opacity="1.00" stroke-linejoin="round"/>
<path d="M295.20,115.47 C295.20,115.47 293.48,112.98 293.48,112.98 C293.19,113.47 292.23,115.45 291.64,116.83 C291.06,118.21 285.19,134.55 282.95,142.48 C280.99,149.76 276.94,165.12 274.85,173.18 C272.92,181.30 270.47,191.72 269.95,194.01" fill="none" stroke="rgb(255, 0, 0)" stroke-width="4.07" stroke-opacity="1.00" stroke-linejoin="round"/>
<path d="M278.03,93.85 C278.03,93.85 278.60,91.22 278.60,91.22 C278.51,91.19 274.49,98.73 270.89,119.19 C270.33,122.40 268.45,138.10 267.71,144.89 C266.71,156.17 266.31,163.09 266.24,166.25" fill="none" stroke="rgb(255, 0, 0)" stroke-width="4.07" stroke-opacity="1.00" stroke-linejoin="round"/>
<path d="M284.26,18.03 C284.72,17.39 285.02,16.98 285.16,16.79 C285.31,16.60 285.50,16.39 285.74,16.14 C285.15,16.40 282.87,19.63 281.26,22.87 C278.75,27.98 273.95,40.31 271.54,47.84 C270.18,52.21 265.79,69.64 264.51,76.36 C261.30,95.74 261.70,104.39 261.86,105.69" fill="none" stroke="rgb(255, 0, 0)" stroke-width="4.07" stroke-opacity="1.00" stroke-linejoin="round"/>
<path d="M291.10,-5.43 C291.10,-5.43 292.21,-13.79 292.21,-13.79 C290.93,-13.17 288.54,-9.65 286.81,-6.50 C283.56,-0.54 279.36,9.46 275.73,19.12 C271.70,30.48 269.64,37.36 268.60,41.74 C267.76,45.15 266.25,51.21 265.56,53.87" fill="none" stroke="rgb(255, 0, 0)" stroke-width="4.07" stroke-opacity="1.00" stroke-linejoin="round"/>
</g>
</svg>
