<?xml version="1.0" encoding="UTF-8" standalone="no"?>
<!DOCTYPE svg PUBLIC "-//W3C//DTD SVG 1.1//EN" "http://www.w3.org/Graphics/SVG/1.1/DTD/svg11.dtd">
<svg width="128.40" height="181.68" viewBox="0.00 0.00 535.00 757.00" xmlns="http://www.w3.org/2000/svg" xmlns:xlink="http://www.w3.org/1999/xlink">
<g stroke-linecap="round" transform="translate(44.00, 155.00)" id="217_비-1">
<path d="M30.28,-57.24 C30.28,-57.24 30.14,-60.14 30.14,-60.14 C29.21,-61.11 16.32,-51.61 13.13,-48.19 C9.68,-44.43 5.93,-36.64 6.16,-35.17 C7.06,-34.87 10.42,-36.28 14.08,-38.36 C17.65,-40.41 23.95,-45.30 25.39,-47.03 C26.26,-48.13 27.14,-50.37 27.06,-51.38 C26.90,-52.63 25.49,-54.58 24.19,-55.17 C21.82,-56.18 16.87,-55.65 13.64,-54.02 C11.82,-53.08 9.20,-51.41 7.76,-50.28 C6.50,-49.28 5.20,-47.82 3.28,-45.38" fill="none" stroke="rgb(0, 255, 0)" stroke-width="4.07" stroke-opacity="1.00" stroke-linejoin="round"/>
<path d="M-5.04,-5.50 C-5.04,-5.50 -5.36,-5.53 -5.36,-5.53 C-5.36,-5.53 -6.02,-6.21 -6.02,-6.21 C-6.79,-6.14 -21.66,9.77 -22.24,10.54 C-22.42,10.77 -22.78,11.29 -23.32,12.10 C-22.09,12.82 -20.94,12.88 -18.71,12.12 C-14.96,10.84 -7.49,8.27 -5.36,7.25 C-4.19,6.68 -3.71,6.11 -3.45,5.24 C-4.06,3.41 -8.05,-0.70 -10.75,-2.64 C-14.06,-4.98 -16.36,-5.59 -17.51,-5.56 C-17.51,-5.56 -17.57,-5.43 -17.57,-5.43" fill="none" stroke="rgb(0, 255, 0)" stroke-width="4.07" stroke-opacity="1.00" stroke-linejoin="round"/>
<path d="M-14.50,33.30 C-14.92,33.04 -15.54,32.36 -15.83,32.20 C-15.95,32.13 -16.17,32.09 -16.48,32.08 C-18.41,33.69 -21.46,38.67 -22.76,41.77 C-23.39,43.28 -24.87,48.87 -25.06,50.59 C-25.33,53.14 -25.11,55.32 -24.49,57.02 C-24.49,57.02 -23.14,57.72 -23.14,57.72 C-22.00,56.99 -20.93,55.57 -20.67,53.91 C-20.43,52.21 -21.06,48.59 -21.85,47.01 C-23.16,44.48 -25.27,43.47 -25.91,43.44 C-25.91,43.44 -26.24,43.74 -26.24,43.74" fill="none" stroke="rgb(0, 255, 0)" stroke-width="4.07" stroke-opacity="1.00" stroke-linejoin="round"/>
<path d="M-17.44,66.04 C-17.44,66.04 -18.25,64.94 -18.25,64.94 C-20.69,67.19 -23.42,71.49 -24.52,74.83 C-25.88,79.11 -25.34,81.63 -24.79,82.39 C-23.89,82.11 -22.96,81.08 -22.28,79.33 C-21.12,76.24 -21.01,69.97 -21.91,69.28 C-21.91,69.28 -22.26,69.95 -22.26,69.95" fill="none" stroke="rgb(0, 255, 0)" stroke-width="4.07" stroke-opacity="1.00" stroke-linejoin="round"/>
<path d="M-22.26,108.32 C-22.26,108.32 -23.50,108.26 -23.50,108.26 C-25.50,114.79 -22.41,120.59 -21.64,121.11 C-18.01,116.80 -21.41,109.30 -22.10,108.40 C-22.10,108.40 -22.96,108.21 -22.96,108.21 C-22.96,108.21 -23.68,109.09 -23.68,109.09" fill="none" stroke="rgb(0, 255, 0)" stroke-width="4.07" stroke-opacity="1.00" stroke-linejoin="round"/>
<path d="M-21.65,162.32 C-21.65,162.32 -21.92,161.52 -21.92,161.52 C-21.92,161.52 -22.74,161.30 -22.74,161.30 C-26.17,165.38 -25.23,172.73 -24.74,174.40 C-23.02,174.18 -21.94,173.17 -21.66,170.97 C-21.15,166.86 -22.26,164.21 -23.07,163.19 C-23.07,163.19 -24.17,162.96 -24.17,162.96 C-24.17,162.96 -25.30,165.06 -25.30,165.06" fill="none" stroke="rgb(0, 255, 0)" stroke-width="4.07" stroke-opacity="1.00" stroke-linejoin="round"/>
<path d="M-21.47,207.53 C-22.83,208.12 -23.64,208.86 -24.19,210.29 C-27.01,217.69 -25.04,221.71 -24.29,222.39 C-22.36,221.36 -21.52,220.43 -21.68,219.13 C-21.87,217.85 -22.66,216.17 -23.48,215.35 C-24.60,214.26 -27.73,213.56 -27.75,213.55" fill="none" stroke="rgb(0, 255, 0)" stroke-width="4.07" stroke-opacity="1.00" stroke-linejoin="round"/>
</g>
</svg>
