<?xml version="1.0" encoding="UTF-8" standalone="no"?>
<!DOCTYPE svg PUBLIC "-//W3C//DTD SVG 1.1//EN" "http://www.w3.org/Graphics/SVG/1.1/DTD/svg11.dtd">
<svg width="128.40" height="181.68" viewBox="0.00 0.00 535.00 757.00" xmlns="http://www.w3.org/2000/svg" xmlns:xlink="http://www.w3.org/1999/xlink">
<g stroke-linecap="round" transform="translate(44.00, 155.00)" id="218_사람">
<path d="M195.32,165.11 C195.32,165.11 195.32,165.02 195.32,165.02 C195.20,165.05 194.67,165.39 194.12,165.83 C192.39,167.24 188.28,171.15 186.50,173.24 C184.43,175.69 181.37,180.21 180.07,183.73 C178.23,188.80 176.33,202.37 175.76,205.59 C174.38,213.33 174.76,217.34 175.01,218.45 C176.33,218.73 177.47,218.21 178.84,216.53 C182.04,212.61 184.72,205.37 188.07,194.26 C191.21,183.62 194.99,169.29 195.54,168.15 C195.76,167.70 196.56,166.16 196.66,165.44 C196.72,164.96 196.62,164.17 196.54,163.93 C195.90,168.88 195.73,185.28 195.99,190.58 C196.17,194.00 197.18,199.25 197.77,201.05 C198.92,204.49 203.82,211.65 205.65,213.15 C206.87,214.14 208.17,214.56 209.47,214.56 C210.65,214.02 211.69,212.69 212.27,210.79 C213.23,207.51 212.44,185.44 212.22,182.46 C211.87,177.96 210.30,170.69 209.57,168.66 C208.45,165.58 205.19,160.08 203.18,158.47 C201.45,157.13 198.86,156.21 198.24,156.34" fill="none" stroke="rgb(0, 255, 0)" stroke-width="3.95" stroke-opacity="1.00" stroke-linejoin="round"/>
<path d="M176.78,222.05 C176.68,222.05 176.61,222.07 176.55,222.10 C176.49,222.13 176.36,222.20 176.18,222.33 C176.15,222.36 176.11,222.39 176.07,222.42 C175.53,220.97 174.76,218.91 174.05,217.17 C172.13,212.52 170.46,208.97 168.76,207.78 C167.06,208.84 166.25,210.01 166.29,212.02 C166.38,215.25 167.65,221.57 168.59,224.99 C169.56,228.44 171.55,232.00 172.71,232.46 C173.90,232.85 176.24,231.02 176.66,229.35 C177.02,227.84 177.36,224.88 177.44,222.94 C177.49,221.48 177.56,219.93 177.64,218.82" fill="none" stroke="rgb(0, 255, 0)" stroke-width="3.95" stroke-opacity="1.00" stroke-linejoin="round"/>
<path d="M209.16,218.25 C209.16,218.25 208.89,217.71 208.89,217.71 C209.35,216.28 209.72,215.32 210.46,213.69 C214.64,204.41 217.91,197.58 220.16,194.75 C220.18,195.69 213.95,224.59 213.14,226.52 C212.41,228.22 210.61,228.39 210.28,228.21" fill="none" stroke="rgb(0, 255, 0)" stroke-width="3.95" stroke-opacity="1.00" stroke-linejoin="round"/>
<path d="M178.72,228.20 C178.68,228.14 178.64,228.10 178.60,228.09 C178.56,228.07 178.48,228.07 178.34,228.06 C177.95,228.38 177.71,229.43 177.74,231.11 C177.83,235.81 180.70,246.56 182.08,248.84 C182.97,250.23 184.95,251.88 186.12,252.14 C187.34,252.38 189.18,251.76 191.09,250.72" fill="none" stroke="rgb(0, 255, 0)" stroke-width="3.95" stroke-opacity="1.00" stroke-linejoin="round"/>
<path d="M202.25,218.18 C202.25,218.18 201.60,212.21 201.60,212.21" fill="none" stroke="rgb(0, 255, 0)" stroke-width="3.95" stroke-opacity="1.00" stroke-linejoin="round"/>
<path d="M190.75,253.93 C190.76,253.70 190.76,253.51 190.75,253.34 C190.73,252.94 190.65,251.88 190.64,251.63 C190.64,251.63 188.64,271.90 188.64,271.90 C188.10,270.31 187.05,269.10 183.62,268.51 C182.99,268.41 176.83,267.20 175.35,266.47 C174.32,265.96 170.21,263.81 169.91,263.85 C168.94,266.36 168.96,269.45 169.12,273.32 C170.17,296.50 169.78,319.71 169.61,334.78 C169.58,351.42 171.43,357.76 171.64,358.22 C171.64,358.22 176.65,356.33 176.65,356.33 C176.65,354.43 175.88,343.85 176.10,332.90 C176.58,317.44 177.87,293.83 178.04,291.63 C178.15,290.33 178.13,290.01 178.02,289.66 C178.02,289.66 177.94,289.65 177.94,289.65" fill="none" stroke="rgb(0, 255, 0)" stroke-width="3.95" stroke-opacity="1.00" stroke-linejoin="round"/>
<path d="M193.62,252.66 C193.62,252.66 195.92,267.76 195.92,267.76 C198.49,264.92 200.88,262.61 203.04,261.11 C205.37,259.52 210.27,256.60 211.51,256.43 C213.47,258.71 214.35,292.19 214.74,304.70 C214.75,312.65 214.79,328.39 216.19,333.69 C218.07,339.55 220.87,348.60 221.97,350.54 C222.57,351.60 225.21,354.96 225.35,355.18 C226.30,356.70 226.57,358.14 226.19,358.70 C224.33,358.39 223.09,357.58 221.63,355.41 C219.43,352.15 217.16,348.27 217.10,348.32 C217.52,349.63 220.61,355.73 222.37,358.73 C225.19,363.58 227.69,373.48 227.53,373.95 C226.56,373.53 225.11,370.58 224.26,366.96 C224.05,366.02 221.61,363.24 221.69,363.19 C221.69,363.19 221.44,377.70 221.44,377.70 C221.44,377.70 218.31,363.09 218.31,363.09 C218.31,363.09 217.27,376.87 217.27,376.87 C217.27,376.87 213.20,363.15 213.20,363.15 C213.20,363.15 212.64,373.37 212.64,373.37 C212.03,371.90 207.32,315.33 206.36,296.94 C205.93,291.38 205.29,286.29 204.33,284.98 C204.20,284.82 204.00,284.68 203.72,284.59" fill="none" stroke="rgb(0, 255, 0)" stroke-width="3.95" stroke-opacity="1.00" stroke-linejoin="round"/>
<path d="M170.13,354.00 C170.24,353.52 170.31,353.23 170.34,353.12 C170.37,353.01 170.41,352.92 170.45,352.85 C170.44,353.12 169.99,354.19 169.17,355.82 C169.07,356.02 164.83,364.12 164.04,366.36 C163.22,368.85 164.06,371.85 164.96,372.85 C166.13,372.68 167.13,371.73 168.03,369.59 C168.66,367.99 169.57,365.69 170.19,364.49 C171.08,365.26 170.16,368.14 168.26,373.82 C166.00,380.66 166.33,382.83 166.61,383.15 C167.32,382.91 168.92,380.68 169.91,378.18 C170.33,377.10 173.83,367.41 174.27,367.20 C174.27,368.15 173.31,375.24 172.83,378.85 C172.28,383.40 172.16,386.42 173.03,387.09 C175.53,385.69 176.20,365.10 176.24,363.83 C176.24,363.83 178.95,384.23 178.95,384.23 C178.95,384.23 180.08,372.36 180.08,372.36 C180.08,372.36 181.88,376.75 181.88,376.75 C182.66,376.22 181.76,369.13 179.98,358.54 C179.49,355.63 177.67,341.29 176.75,339.87 C176.47,339.83 176.31,339.80 176.26,339.79 C176.25,339.79 176.23,339.79 176.24,339.79" fill="none" stroke="rgb(0, 255, 0)" stroke-width="3.95" stroke-opacity="1.00" stroke-linejoin="round"/>
<path d="M180.62,341.38 C180.55,341.22 180.49,341.09 180.44,340.99 C180.25,340.58 180.21,340.41 180.27,340.26 C180.90,340.58 184.39,345.52 185.26,346.53 C186.36,347.77 188.41,349.07 189.66,349.23 C191.48,349.40 201.33,346.86 203.63,345.78 C205.88,344.69 206.35,343.17 206.52,341.88 C206.54,341.70 206.56,341.57 206.58,341.50" fill="none" stroke="rgb(0, 255, 0)" stroke-width="3.95" stroke-opacity="1.00" stroke-linejoin="round"/>
<path d="M183.74,353.41 C184.10,352.62 184.34,352.07 184.45,351.78 C184.62,351.34 184.98,350.27 185.01,350.32 C184.88,356.02 185.32,370.46 185.59,378.09 C186.05,399.19 187.36,420.45 187.39,421.67 C187.44,424.84 185.46,442.08 186.40,442.30 C186.40,442.30 186.37,441.11 186.37,441.11" fill="none" stroke="rgb(0, 255, 0)" stroke-width="3.95" stroke-opacity="1.00" stroke-linejoin="round"/>
<path d="M196.95,372.76 C197.02,373.04 197.34,373.71 197.35,373.74 C197.47,374.36 197.39,379.49 196.82,388.17 C196.44,396.44 195.76,413.15 195.47,421.59 C195.21,432.74 195.82,440.46 195.83,441.02 C195.84,441.34 195.83,441.97 195.79,442.92 C195.79,442.92 195.55,442.77 195.55,442.77 C195.55,442.77 195.67,442.14 195.67,442.14" fill="none" stroke="rgb(0, 255, 0)" stroke-width="3.95" stroke-opacity="1.00" stroke-linejoin="round"/>
<path d="M198.53,376.79 C198.53,376.81 198.53,376.74 198.53,376.72 C198.41,374.61 198.49,373.48 198.55,373.51 C200.59,374.16 203.13,385.02 205.35,396.57 C209.22,417.35 211.98,443.38 213.41,444.91 C214.88,444.83 218.11,441.58 218.51,439.53 C219.17,435.85 218.28,420.79 217.79,413.58 C217.19,405.00 215.69,384.17 215.46,382.17 C214.95,377.88 213.60,374.66 212.81,374.41 C212.81,374.41 212.26,374.94 212.26,374.94" fill="none" stroke="rgb(0, 255, 0)" stroke-width="3.95" stroke-opacity="1.00" stroke-linejoin="round"/>
<path d="M182.12,444.30 C182.12,444.30 181.94,442.47 181.94,442.47 C181.94,442.47 178.12,448.11 178.12,448.11 C178.12,448.11 178.78,449.34 178.78,449.34 C180.28,449.88 185.10,449.34 187.81,448.54 C190.38,447.76 195.43,445.10 196.32,443.61 C196.97,442.47 196.97,440.16 196.48,438.39 C196.39,438.09 196.28,437.89 196.14,437.80" fill="none" stroke="rgb(0, 255, 0)" stroke-width="3.95" stroke-opacity="1.00" stroke-linejoin="round"/>
<path d="M185.69,441.45 C185.69,441.45 184.12,441.88 184.12,441.88 C186.38,443.69 194.44,437.50 195.59,436.32 C195.82,436.06 196.14,435.68 196.54,435.17" fill="none" stroke="rgb(0, 255, 0)" stroke-width="3.95" stroke-opacity="1.00" stroke-linejoin="round"/>
<path d="M212.78,440.10 C212.41,440.18 212.05,440.26 211.69,440.35 C211.13,440.47 210.99,440.54 210.87,440.69 C210.85,440.93 210.83,441.10 210.82,441.18 C210.78,441.46 210.40,444.16 210.42,444.80 C210.45,445.61 211.10,446.69 211.47,446.82 C212.71,447.13 215.94,446.01 218.35,444.49 C224.38,440.65 226.11,437.60 226.25,436.82 C225.73,435.89 223.20,435.22 220.09,434.93 C219.18,434.84 216.12,434.68 215.82,434.64 C215.55,434.61 215.10,434.52 214.47,434.39 C214.47,434.39 214.40,434.27 214.40,434.27" fill="none" stroke="rgb(0, 255, 0)" stroke-width="3.95" stroke-opacity="1.00" stroke-linejoin="round"/>
<path d="M183.17,217.97 C183.18,217.88 183.18,217.81 183.19,217.76 C183.19,217.71 183.19,217.61 183.19,217.47 C183.19,217.47 182.96,217.50 182.96,217.50 C182.07,218.33 181.02,220.77 181.41,221.43 C181.82,222.02 183.53,221.92 184.62,221.37 C185.73,220.77 187.13,219.01 187.16,218.14 C187.17,217.21 185.93,216.22 185.04,216.43 C182.65,217.09 182.36,220.69 183.00,221.21 C185.02,221.40 185.71,219.04 185.69,218.53 C183.52,217.35 183.48,220.43 183.64,220.86 C183.64,220.86 185.61,218.72 185.61,218.72 C185.61,218.72 184.26,220.36 184.26,220.36 C185.05,220.73 185.58,220.65 185.97,219.94 C186.33,219.28 186.40,218.61 186.28,217.93 C185.10,217.58 184.46,217.62 183.98,218.16 C183.29,218.95 183.18,219.41 183.22,219.60 C183.22,219.60 183.32,219.69 183.32,219.69" fill="none" stroke="rgb(0, 255, 0)" stroke-width="3.95" stroke-opacity="1.00" stroke-linejoin="round"/>
<path d="M195.94,214.67 C195.94,214.67 195.56,214.33 195.56,214.33 C195.22,214.64 194.44,217.97 194.55,218.60 C194.57,218.69 194.63,218.90 194.74,219.23 C195.92,219.54 197.76,218.04 198.55,216.82 C199.49,215.35 199.57,214.25 199.44,213.72 C198.28,213.69 197.52,213.93 196.88,214.64 C195.83,215.84 195.41,217.83 196.16,218.64 C197.27,218.97 199.72,217.46 200.46,216.01 C201.13,214.63 200.53,213.01 200.00,212.85 C198.94,212.60 196.51,214.97 196.14,216.53 C195.99,217.19 196.31,218.26 196.64,218.45 C196.89,218.59 198.10,218.37 198.90,217.45 C199.85,216.31 199.55,214.39 198.90,214.06 C196.60,213.31 195.26,216.74 195.26,217.37 C196.59,217.79 197.72,214.42 196.71,214.51 C196.00,214.60 194.57,215.57 194.56,215.61" fill="none" stroke="rgb(0, 255, 0)" stroke-width="3.95" stroke-opacity="1.00" stroke-linejoin="round"/>
<path d="M190.30,228.96 C190.30,228.96 189.68,228.76 189.68,228.76 C189.68,228.76 189.83,234.22 189.83,234.22 C189.83,234.22 189.74,228.49 189.74,228.49 C189.64,230.14 189.61,231.51 189.73,231.92 C189.83,232.27 190.15,232.57 190.19,232.52" fill="none" stroke="rgb(0, 255, 0)" stroke-width="3.95" stroke-opacity="1.00" stroke-linejoin="round"/>
<path d="M189.61,238.67 C189.47,238.01 189.38,237.61 189.35,237.48 C189.32,237.34 189.29,237.29 189.28,237.33 C189.28,237.33 190.82,238.39 190.82,238.39" fill="none" stroke="rgb(0, 255, 0)" stroke-width="3.95" stroke-opacity="1.00" stroke-linejoin="round"/>
<path d="M192.82,234.36 C192.82,234.36 187.70,238.03 187.70,238.03 C187.70,238.03 188.62,238.63 188.62,238.63" fill="none" stroke="rgb(0, 255, 0)" stroke-width="3.95" stroke-opacity="1.00" stroke-linejoin="round"/>
<path d="M187.39,238.38 C187.39,238.38 187.03,237.69 187.03,237.69 C186.94,238.99 188.92,239.99 191.25,240.50" fill="none" stroke="rgb(0, 255, 0)" stroke-width="3.95" stroke-opacity="1.00" stroke-linejoin="round"/>
<path d="M191.00,173.66 C191.00,173.44 190.99,173.29 190.97,173.21 C190.94,173.13 190.87,173.01 190.74,172.84 C190.28,173.20 189.67,174.13 188.33,176.59 C184.18,184.25 180.13,192.53 178.78,197.20 C177.64,201.25 177.78,202.89 178.07,203.43 C178.07,203.43 181.53,197.60 181.53,197.60" fill="none" stroke="rgb(0, 255, 0)" stroke-width="3.95" stroke-opacity="1.00" stroke-linejoin="round"/>
<path d="M188.05,178.61 C188.20,177.92 188.31,177.47 188.38,177.26 C188.45,177.04 188.58,176.76 188.76,176.41 C189.00,176.64 188.18,179.44 186.62,183.38 C182.26,194.35 180.01,200.98 179.44,204.58 C179.40,204.85 179.34,205.34 179.26,206.05 C179.36,205.87 179.42,205.76 179.45,205.70 C179.48,205.64 179.51,205.55 179.56,205.44" fill="none" stroke="rgb(0, 255, 0)" stroke-width="3.95" stroke-opacity="1.00" stroke-linejoin="round"/>
<path d="M201.19,163.87 C200.62,164.26 200.56,167.51 200.34,169.74 C198.95,184.38 200.55,201.31 200.97,201.55 C200.97,201.55 201.14,198.75 201.14,198.75" fill="none" stroke="rgb(0, 255, 0)" stroke-width="3.95" stroke-opacity="1.00" stroke-linejoin="round"/>
<path d="M199.44,165.43 C199.44,165.43 199.12,165.04 199.12,165.04 C199.12,165.04 198.59,165.55 198.59,165.55 C198.01,168.66 200.12,182.46 202.50,194.60 C203.70,200.50 204.64,204.43 204.94,204.59 C205.67,202.56 205.60,198.87 205.39,194.60 C205.29,192.58 205.06,188.46 204.93,186.37 C204.80,184.30 204.51,180.54 204.35,178.94 C203.98,175.37 203.63,173.63 203.23,172.07 C202.64,178.24 207.20,200.64 208.68,204.46 C209.21,201.64 208.36,195.90 207.63,191.53 C206.40,184.75 203.57,169.85 203.18,168.15 C203.18,168.15 210.72,193.31 210.72,193.31 C210.69,191.15 210.62,189.72 210.47,188.46 C210.41,188.01 210.36,187.56 210.30,187.12" fill="none" stroke="rgb(0, 255, 0)" stroke-width="3.95" stroke-opacity="1.00" stroke-linejoin="round"/>
<path d="M207.01,171.40 C207.01,171.40 206.48,168.91 206.48,168.91 C207.24,172.23 208.55,177.00 210.12,182.02 C211.20,185.39 212.70,189.25 213.26,190.58" fill="none" stroke="rgb(0, 255, 0)" stroke-width="3.95" stroke-opacity="1.00" stroke-linejoin="round"/>
<path d="M205.56,211.94 C205.56,211.94 205.03,212.00 205.03,212.00 C204.96,212.05 204.68,213.62 204.46,214.84 C204.34,215.48 203.71,218.13 203.48,219.09" fill="none" stroke="rgb(0, 255, 0)" stroke-width="3.95" stroke-opacity="1.00" stroke-linejoin="round"/>
<path d="M185.90,215.98 C184.48,216.03 183.78,216.09 182.97,216.26 C181.78,216.55 180.16,217.25 179.58,217.94 C178.90,218.77 178.30,220.67 178.44,221.31 C178.86,222.72 181.35,223.55 183.61,223.05 C185.47,222.61 188.47,220.81 188.77,219.92 C189.02,219.06 187.43,217.19 185.78,216.54 C184.18,215.94 181.10,216.09 180.32,216.99 C179.97,217.44 179.85,218.78 180.10,219.39 C180.47,220.17 181.61,221.00 182.57,221.15 C184.28,221.37 186.98,219.61 187.18,218.15 C185.70,216.94 184.77,216.52 183.82,216.85 C181.76,217.59 181.22,219.01 181.23,219.87 C183.10,220.93 184.22,221.20 185.22,220.60 C186.40,219.91 187.02,219.14 187.42,218.06 C186.44,216.48 185.64,215.87 184.63,216.22 C183.56,216.60 182.85,217.29 182.37,218.23 C183.59,219.58 184.59,219.96 185.71,219.22 C187.50,218.01 187.70,215.65 186.95,215.21 C183.98,213.83 182.27,217.80 182.21,218.86 C183.79,219.70 184.84,219.78 185.92,218.95 C186.86,218.23 187.39,217.48 187.84,216.41 C187.06,214.89 186.47,214.23 185.60,214.30 C185.43,214.31 184.81,214.38 183.71,214.52 C183.71,214.52 189.08,215.13 189.08,215.13 C188.33,216.62 184.41,217.22 182.58,217.18 C182.18,216.19 184.76,215.37 185.75,215.15 C185.75,215.15 182.29,217.17 182.29,217.17 C182.29,217.17 185.94,217.30 185.94,217.30" fill="none" stroke="rgb(0, 255, 0)" stroke-width="3.95" stroke-opacity="1.00" stroke-linejoin="round"/>
<path d="M203.74,212.82 C203.75,212.53 203.75,212.31 203.72,212.17 C203.69,212.03 203.60,211.76 203.45,211.37 C202.40,210.86 201.68,210.67 201.04,210.83 C199.71,211.20 197.04,213.21 195.94,214.74 C194.75,216.43 194.65,217.54 194.87,218.10 C195.83,218.41 198.96,216.58 200.79,214.67 C202.70,212.64 203.10,211.02 203.00,210.69 C201.93,210.11 197.89,212.51 196.60,214.34 C196.01,215.20 195.78,216.34 195.94,216.62 C196.57,216.99 199.51,215.88 200.80,213.99 C201.41,213.08 201.81,211.43 201.63,211.03 C201.11,210.18 198.00,210.48 195.99,212.34 C194.24,213.99 193.94,215.80 194.08,216.21 C194.08,216.21 194.58,216.29 194.58,216.29" fill="none" stroke="rgb(0, 255, 0)" stroke-width="3.95" stroke-opacity="1.00" stroke-linejoin="round"/>
<path d="M190.38,251.22 C190.38,251.22 190.34,251.39 190.34,251.39 C190.34,251.39 190.50,251.21 190.50,251.21 C190.50,251.21 190.95,252.23 190.95,252.23 C192.24,252.02 193.01,251.62 193.88,250.54 C198.85,244.40 210.06,228.65 211.21,226.22 C212.14,224.26 213.22,219.07 214.35,217.06 C214.35,217.06 213.78,216.56 213.78,216.56" fill="none" stroke="rgb(0, 255, 0)" stroke-width="3.95" stroke-opacity="1.00" stroke-linejoin="round"/>
<path d="M203.56,222.24 C203.06,221.74 200.28,222.11 199.27,223.08 C198.06,224.28 198.06,227.82 198.84,228.39 C199.68,228.92 202.66,228.68 204.20,227.96 C205.74,227.21 207.59,224.92 207.67,223.75 C207.69,222.69 206.03,221.33 204.69,221.33 C203.19,221.37 201.20,222.46 200.77,222.97 C200.61,223.17 200.43,223.55 200.25,224.12 C200.25,224.12 200.33,224.21 200.33,224.21" fill="none" stroke="rgb(0, 255, 0)" stroke-width="3.95" stroke-opacity="1.00" stroke-linejoin="round"/>
<path d="M201.63,222.54 C201.63,222.54 200.88,222.39 200.88,222.39 C200.88,222.39 200.65,229.81 200.65,229.81 C200.65,229.81 202.73,222.50 202.73,222.50 C202.73,222.50 203.67,226.68 203.67,226.68 C203.67,226.68 203.86,226.56 203.86,226.56 C203.86,226.56 203.78,226.58 203.78,226.58" fill="none" stroke="rgb(0, 255, 0)" stroke-width="3.95" stroke-opacity="1.00" stroke-linejoin="round"/>
<path d="M184.16,228.72 C184.16,228.72 184.23,226.45 184.23,226.45 C183.37,226.08 180.38,227.01 179.36,227.89 C178.69,228.48 178.41,229.29 178.48,229.99 C179.40,231.19 183.41,231.42 186.06,230.47 C188.60,229.51 190.11,228.03 190.68,227.21 C190.04,225.97 189.39,225.38 188.21,225.21 C186.02,224.90 183.02,225.30 182.41,225.77 C182.41,225.77 182.43,226.05 182.43,226.05 C182.43,226.05 182.96,226.10 182.96,226.10" fill="none" stroke="rgb(0, 255, 0)" stroke-width="3.95" stroke-opacity="1.00" stroke-linejoin="round"/>
<path d="M183.65,225.96 C183.46,225.76 182.40,225.99 182.04,226.89 C180.99,229.57 181.45,232.05 181.71,232.28 C182.59,232.08 183.30,231.08 184.09,228.73 C184.22,228.35 184.47,227.56 184.84,226.35 C185.00,227.06 185.15,229.30 185.24,230.92 C185.30,231.68 185.40,232.33 185.53,232.87 C185.57,233.02 185.61,233.09 185.65,233.07 C185.65,233.07 185.63,232.89 185.63,232.89" fill="none" stroke="rgb(0, 255, 0)" stroke-width="3.95" stroke-opacity="1.00" stroke-linejoin="round"/>
<path d="M187.65,226.68 C187.65,226.68 187.29,226.04 187.29,226.04 C187.22,226.10 187.13,226.38 187.10,227.04 C186.99,230.92 186.75,232.12 186.54,232.74" fill="none" stroke="rgb(0, 255, 0)" stroke-width="3.95" stroke-opacity="1.00" stroke-linejoin="round"/>
</g>
</svg>
