<?xml version="1.0" encoding="UTF-8" standalone="no"?>
<!DOCTYPE svg PUBLIC "-//W3C//DTD SVG 1.1//EN" "http://www.w3.org/Graphics/SVG/1.1/DTD/svg11.dtd">
<svg width="64.20" height="90.84" viewBox="0.00 0.00 535.00 757.00" xmlns="http://www.w3.org/2000/svg" xmlns:xlink="http://www.w3.org/1999/xlink">
<g stroke-linecap="round" transform="translate(44.00, 155.00)" id="22-자동차-4">
<path d="M113.73,115.03" fill="none" stroke="rgb(255, 165, 0)" stroke-width="3.09" stroke-opacity="1.00" stroke-linejoin="round"/>
<path d="M209.24,84.60 C209.06,84.62 206.64,83.98 205.27,83.00 C202.65,81.20 197.63,77.64 195.78,75.41 C193.83,72.99 188.03,56.96 187.73,54.14 C187.70,53.79 187.74,53.48 187.88,53.21" fill="none" stroke="rgb(255, 165, 0)" stroke-width="3.09" stroke-opacity="1.00" stroke-linejoin="round"/>
<path d="M183.28,63.48 C183.44,63.05 195.22,54.47 197.84,53.20 C202.12,51.25 222.04,36.92 222.82,36.38 C229.51,31.78 241.61,25.08 259.85,15.36 C279.16,5.46 302.41,-4.65 305.29,-5.61 C311.59,-7.74 329.29,-14.96 332.94,-15.78 C332.94,-15.78 332.64,-15.46 332.64,-15.46" fill="none" stroke="rgb(255, 165, 0)" stroke-width="3.09" stroke-opacity="1.00" stroke-linejoin="round"/>
<path d="M187.16,56.70 C187.16,56.70 186.04,56.66 186.04,56.66 C185.55,54.56 187.18,49.41 188.13,47.18 C189.07,45.03 192.26,39.53 193.39,38.43 C196.48,35.45 206.25,28.54 210.97,25.26 C228.13,13.17 269.01,-9.11 274.51,-11.87 C280.08,-14.66 306.48,-23.35 314.58,-25.15 C315.96,-25.45 323.33,-26.74 325.20,-26.74 C327.50,-26.72 330.44,-25.82 330.86,-24.60 C331.09,-23.88 331.29,-22.09 331.30,-21.04 C331.28,-20.12 329.66,-17.47 328.81,-16.11" fill="none" stroke="rgb(255, 165, 0)" stroke-width="3.09" stroke-opacity="1.00" stroke-linejoin="round"/>
<path d="M189.87,52.83 C189.65,51.92 193.97,49.00 200.02,43.77 C204.75,39.61 217.09,30.52 217.93,29.91 C221.03,27.65 232.60,17.91 234.42,16.66 C236.56,15.21 259.07,3.67 277.86,-4.58 C285.22,-7.80 313.79,-18.15 315.91,-18.25 C315.91,-18.25 315.21,-17.49 315.21,-17.49" fill="none" stroke="rgb(255, 165, 0)" stroke-width="3.09" stroke-opacity="1.00" stroke-linejoin="round"/>
<path d="M329.75,-13.62 C329.75,-13.62 328.87,-14.49 328.87,-14.49 C329.01,-14.31 329.12,-14.17 329.18,-14.07 C329.89,-12.87 330.22,-9.27 329.94,-5.96 C328.51,9.91 324.69,19.67 323.36,21.82 C323.36,21.82 323.00,21.83 323.00,21.83" fill="none" stroke="rgb(255, 165, 0)" stroke-width="3.09" stroke-opacity="1.00" stroke-linejoin="round"/>
<path d="M292.55,21.06 C292.27,21.05 291.75,21.11 291.44,21.20 C290.70,21.48 288.04,26.20 286.66,30.25 C285.65,33.30 285.48,36.54 286.14,37.52 C286.76,38.39 289.47,39.57 291.06,39.57 C293.08,39.53 297.79,37.70 300.01,36.18 C303.19,33.98 308.17,28.97 308.40,28.66 C308.40,28.66 308.33,26.94 308.33,26.94" fill="none" stroke="rgb(255, 165, 0)" stroke-width="3.09" stroke-opacity="1.00" stroke-linejoin="round"/>
<path d="M305.92,20.86 C305.53,20.91 304.34,21.10 303.93,21.44 C303.75,21.60 298.62,27.33 296.67,28.98 C294.13,31.09 289.23,34.48 288.84,34.83 C288.83,34.84 288.76,34.87 288.63,34.93" fill="none" stroke="rgb(255, 165, 0)" stroke-width="3.09" stroke-opacity="1.00" stroke-linejoin="round"/>
<path d="M249.54,51.67 C251.11,49.52 255.10,46.57 258.15,45.42 C268.36,41.65 285.78,34.37 287.21,34.23 C287.21,34.23 285.84,35.14 285.84,35.14" fill="none" stroke="rgb(255, 165, 0)" stroke-width="3.09" stroke-opacity="1.00" stroke-linejoin="round"/>
<path d="M246.25,49.92 C242.78,51.48 234.93,59.76 232.62,62.86 C230.54,65.69 230.11,68.24 230.23,69.77 C230.42,71.77 231.40,73.29 232.64,73.18 C235.64,72.81 242.14,68.21 246.01,64.33 C248.37,61.90 251.13,58.45 251.57,57.28 C252.53,54.59 252.81,51.62 252.39,50.86 C251.92,50.08 249.76,49.53 248.40,49.94 C245.68,50.84 240.07,56.81 234.52,63.33 C234.26,63.65 234.01,63.96 233.75,64.28" fill="none" stroke="rgb(255, 165, 0)" stroke-width="3.09" stroke-opacity="1.00" stroke-linejoin="round"/>
<path d="M207.50,83.44 C210.61,81.55 219.72,72.96 224.20,70.08 C228.41,67.37 229.85,66.32 232.19,64.49 C232.19,64.49 231.30,65.42 231.30,65.42" fill="none" stroke="rgb(255, 165, 0)" stroke-width="3.09" stroke-opacity="1.00" stroke-linejoin="round"/>
</g>
</svg>
