<?xml version="1.0" encoding="UTF-8" standalone="no"?>
<!DOCTYPE svg PUBLIC "-//W3C//DTD SVG 1.1//EN" "http://www.w3.org/Graphics/SVG/1.1/DTD/svg11.dtd">
<svg width="64.20" height="90.84" viewBox="0.00 0.00 535.00 757.00" xmlns="http://www.w3.org/2000/svg" xmlns:xlink="http://www.w3.org/1999/xlink">
<g stroke-linecap="round" transform="translate(44.00, 155.00)" id="22-자동차-1">
<path d="M113.73,115.03" fill="none" stroke="rgb(255, 165, 0)" stroke-width="3.09" stroke-opacity="1.00" stroke-linejoin="round"/>
<path d="M13.12,120.97 C13.12,120.97 13.27,121.14 13.27,121.14 C13.05,121.26 12.91,125.18 12.81,127.57 C12.83,130.68 15.32,135.23 18.13,138.73 C20.02,141.04 29.91,151.23 30.79,152.37 C30.90,152.51 31.09,152.76 31.35,153.12" fill="none" stroke="rgb(255, 165, 0)" stroke-width="3.09" stroke-opacity="1.00" stroke-linejoin="round"/>
<path d="M12.11,121.85 C13.25,119.10 16.03,114.35 41.22,79.96 C48.14,70.70 63.18,57.41 64.69,55.34 C67.00,52.13 69.74,48.83 72.05,46.88 C74.44,44.88 80.73,40.51 83.19,39.26 C86.17,37.80 90.70,37.69 92.60,38.52 C98.88,41.47 105.98,51.52 105.98,51.59 C105.98,51.59 104.51,52.32 104.51,52.32" fill="none" stroke="rgb(255, 165, 0)" stroke-width="3.09" stroke-opacity="1.00" stroke-linejoin="round"/>
<path d="M18.53,136.71 C18.53,136.71 18.03,137.15 18.03,137.15 C18.09,137.07 22.58,131.30 23.74,129.61 C25.93,126.44 35.20,114.73 37.48,112.08 C43.61,104.97 50.59,94.94 52.46,92.46 C56.94,86.48 65.77,74.94 70.13,69.40 C76.89,61.08 91.99,47.15 95.01,44.15 C95.01,44.15 94.96,43.75 94.96,43.75" fill="none" stroke="rgb(255, 165, 0)" stroke-width="3.09" stroke-opacity="1.00" stroke-linejoin="round"/>
<path d="M26.11,104.91 C26.11,104.91 25.63,105.04 25.63,105.04 C27.34,107.27 28.67,108.88 29.60,109.76 C31.31,111.37 35.74,114.04 36.53,114.40 C36.53,114.40 37.22,114.19 37.22,114.19" fill="none" stroke="rgb(255, 165, 0)" stroke-width="3.09" stroke-opacity="1.00" stroke-linejoin="round"/>
<path d="M40.58,85.79 C40.58,85.79 40.41,85.93 40.41,85.93 C40.65,86.21 40.89,86.49 41.13,86.77 C42.55,88.38 45.29,90.40 45.57,92.12 C46.12,95.72 45.72,100.13 45.04,104.24 C45.04,104.24 45.15,104.10 45.15,104.10" fill="none" stroke="rgb(255, 165, 0)" stroke-width="3.09" stroke-opacity="1.00" stroke-linejoin="round"/>
<path d="M61.11,63.75 C61.11,63.75 59.82,63.98 59.82,63.98 C60.76,65.11 62.19,68.16 62.70,71.31 C62.92,72.75 62.65,74.88 62.23,76.03 C62.14,76.25 62.01,76.49 61.84,76.75" fill="none" stroke="rgb(255, 165, 0)" stroke-width="3.09" stroke-opacity="1.00" stroke-linejoin="round"/>
<path d="M73.63,49.88 C73.63,49.88 73.01,50.20 73.01,50.20 C73.58,51.22 74.36,56.09 74.24,58.99 C74.14,61.11 73.37,72.40 73.51,73.81 C73.55,74.19 73.62,74.69 73.73,75.32" fill="none" stroke="rgb(255, 165, 0)" stroke-width="3.09" stroke-opacity="1.00" stroke-linejoin="round"/>
<path d="M35.09,154.01 C35.09,154.01 34.67,154.38 34.67,154.38 C34.63,154.33 34.75,153.80 35.07,152.91 C36.07,150.12 39.31,144.47 40.73,142.83 C41.20,142.33 41.67,141.84 42.15,141.34 C42.29,141.18 42.39,141.02 42.45,140.85" fill="none" stroke="rgb(255, 165, 0)" stroke-width="3.09" stroke-opacity="1.00" stroke-linejoin="round"/>
<path d="M51.80,118.41 C49.87,120.15 46.86,125.65 45.89,128.36 C45.03,130.84 43.70,137.30 43.58,140.43 C43.54,142.02 44.22,145.19 45.03,145.68 C45.89,145.59 48.11,143.72 49.69,141.43 C50.99,139.51 54.03,134.27 55.02,132.21 C57.09,127.79 58.23,123.05 58.70,118.21 C58.96,115.42 58.91,114.05 58.63,113.87 C57.94,113.90 54.11,117.03 51.83,119.42 C48.74,122.66 47.92,123.41 46.96,124.19" fill="none" stroke="rgb(255, 165, 0)" stroke-width="3.09" stroke-opacity="1.00" stroke-linejoin="round"/>
<path d="M57.95,114.23 C58.29,113.55 59.36,111.49 59.84,110.72 C61.91,107.37 71.39,95.15 72.40,93.56 C72.62,93.22 72.82,92.82 73.01,92.35" fill="none" stroke="rgb(255, 165, 0)" stroke-width="3.09" stroke-opacity="1.00" stroke-linejoin="round"/>
<path d="M82.62,80.29 C79.76,82.90 77.10,87.43 76.00,90.63 C72.88,99.89 73.05,103.48 73.26,103.75 C73.78,104.00 75.67,103.29 78.08,101.25 C81.28,98.49 87.56,90.40 93.94,81.71 C96.03,78.81 99.02,73.58 100.12,70.77 C102.08,65.56 100.09,61.42 99.57,61.21 C94.79,61.55 81.46,78.91 80.46,80.52 C80.29,80.79 80.24,80.95 80.31,81.01" fill="none" stroke="rgb(255, 165, 0)" stroke-width="3.09" stroke-opacity="1.00" stroke-linejoin="round"/>
<path d="M100.57,59.02 C100.53,59.06 101.01,57.91 101.61,56.87 C102.30,55.68 103.65,53.65 104.21,52.90 C104.21,52.90 104.09,52.99 104.09,52.99" fill="none" stroke="rgb(255, 165, 0)" stroke-width="3.09" stroke-opacity="1.00" stroke-linejoin="round"/>
</g>
</svg>
