<?xml version="1.0" encoding="UTF-8" standalone="no"?>
<!DOCTYPE svg PUBLIC "-//W3C//DTD SVG 1.1//EN" "http://www.w3.org/Graphics/SVG/1.1/DTD/svg11.dtd">
<svg width="128.40" height="181.68" viewBox="0.00 0.00 535.00 757.00" xmlns="http://www.w3.org/2000/svg" xmlns:xlink="http://www.w3.org/1999/xlink">
<g stroke-linecap="round" transform="translate(44.00, 155.00)" id="220_번개-1">
<path d="M79.42,-11.88 C80.29,-12.22 80.88,-12.57 81.44,-13.10 C81.51,-13.16 81.66,-13.31 81.90,-13.54 C81.90,-13.54 81.97,-13.54 81.97,-13.54 C80.06,-11.60 68.25,-2.94 64.71,0.10 C62.27,2.20 56.67,7.43 54.13,9.83 C56.01,10.52 62.23,16.88 62.46,17.10 C65.02,19.34 68.67,22.63 70.69,25.38 C75.99,32.59 78.68,36.50 78.68,37.05 C76.75,38.99 71.86,43.83 69.44,45.84 C67.10,47.76 60.54,52.13 59.56,52.89 C56.46,55.32 51.39,60.68 49.08,63.17 C60.56,54.67 92.39,36.69 94.08,35.86 C92.53,33.21 80.68,20.82 76.71,18.08 C74.19,16.36 71.39,14.80 69.51,13.80 C70.85,10.52 73.76,3.45 75.33,-0.35 C78.97,-8.64 82.03,-12.17 82.97,-13.30 C82.97,-13.30 83.18,-12.83 83.18,-12.83" fill="none" stroke="rgb(0, 0, 255)" stroke-width="3.56" stroke-opacity="1.00" stroke-linejoin="round"/>
</g>
</svg>
