<?xml version="1.0" encoding="UTF-8" standalone="no"?>
<!DOCTYPE svg PUBLIC "-//W3C//DTD SVG 1.1//EN" "http://www.w3.org/Graphics/SVG/1.1/DTD/svg11.dtd">
<svg width="128.40" height="181.68" viewBox="0.00 0.00 535.00 757.00" xmlns="http://www.w3.org/2000/svg" xmlns:xlink="http://www.w3.org/1999/xlink">
<g stroke-linecap="round" transform="translate(44.00, 155.00)" id="220_번개-3">
<path d="M320.26,11.96 C320.09,11.36 320.01,10.96 320.02,10.75 C320.03,10.54 320.13,10.24 320.34,9.84 C318.96,11.12 318.13,11.84 316.40,13.26 C313.44,15.70 306.97,21.05 303.45,23.97 C298.83,27.92 295.08,31.64 293.88,33.75 C301.90,35.30 310.72,38.18 319.38,42.21 C320.72,42.84 322.49,43.73 323.25,44.15 C323.25,44.15 300.27,57.73 300.27,57.73 C300.27,57.73 338.60,64.02 338.60,64.02 C338.51,62.39 337.70,58.85 336.20,53.83 C334.88,49.47 332.00,44.94 329.78,43.40 C328.15,42.32 319.68,39.18 316.90,37.69 C315.60,36.99 309.39,33.37 308.60,32.86 C307.57,32.16 306.93,31.48 307.03,30.83 C307.44,28.71 309.42,24.67 311.40,21.32 C315.73,14.08 321.78,8.36 322.58,7.60 C320.07,9.57 312.84,15.37 311.96,16.27 C310.31,17.98 308.90,19.95 308.52,20.93" fill="none" stroke="rgb(0, 0, 255)" stroke-width="3.56" stroke-opacity="1.00" stroke-linejoin="round"/>
<path d="M399.84,-0.39 C399.84,-0.39 400.82,-2.17 400.82,-2.17 C400.46,-1.33 400.10,-0.57 399.38,0.85 C390.15,19.22 387.76,26.51 387.59,27.51 C387.84,27.79 392.87,28.88 395.57,30.02 C397.75,30.95 401.32,32.80 403.66,34.44 C401.66,36.42 383.85,45.87 381.05,47.56 C376.73,50.17 372.17,53.90 371.77,54.76 C372.18,55.37 376.47,58.67 379.05,62.07 C381.44,65.24 390.38,77.08 390.95,77.97 C391.01,78.81 387.77,80.46 382.41,82.98 C377.62,85.27 373.07,87.60 370.17,89.31 C368.86,90.09 368.39,90.61 368.06,91.47 C368.50,92.05 373.12,95.28 375.60,97.73 C380.57,102.67 385.11,109.66 385.37,110.86 C385.10,111.08 365.64,120.07 364.60,120.69 C362.86,121.74 361.96,122.76 362.01,123.43 C362.72,124.25 379.74,135.54 384.04,139.14 C385.15,140.07 391.45,145.24 392.11,144.88 C392.11,144.88 380.40,126.84 380.40,126.84 C381.08,126.13 385.44,123.77 387.55,121.77 C388.45,120.90 401.37,108.36 401.77,107.95 C402.95,106.69 404.04,104.66 403.72,103.72 C403.11,102.02 398.71,98.75 396.99,97.72 C394.73,96.40 391.46,95.21 390.46,94.98 C392.09,93.17 405.44,83.03 409.98,77.99 C413.50,73.99 413.97,73.13 414.31,71.86 C413.07,70.06 406.82,65.76 405.22,64.72 C402.31,62.85 394.76,59.76 394.44,59.61 C393.46,59.16 392.90,58.49 392.63,57.77 C393.25,57.17 408.02,48.30 414.65,44.31 C418.35,42.00 419.03,41.21 419.96,39.63 C419.77,38.92 414.66,36.66 412.49,35.26 C412.17,35.05 408.03,31.77 407.65,31.36 C406.52,30.09 406.54,28.97 407.51,25.96 C410.39,17.44 412.54,-2.27 412.76,-4.35 C412.71,-3.98 412.73,-3.68 412.79,-3.43 C412.86,-3.19 413.08,-2.66 413.46,-1.85" fill="none" stroke="rgb(0, 0, 255)" stroke-width="3.56" stroke-opacity="1.00" stroke-linejoin="round"/>
</g>
</svg>
