<?xml version="1.0" encoding="UTF-8" standalone="no"?>
<!DOCTYPE svg PUBLIC "-//W3C//DTD SVG 1.1//EN" "http://www.w3.org/Graphics/SVG/1.1/DTD/svg11.dtd">
<svg width="128.40" height="181.68" viewBox="0.00 0.00 535.00 757.00" xmlns="http://www.w3.org/2000/svg" xmlns:xlink="http://www.w3.org/1999/xlink">
<g stroke-linecap="round" transform="translate(44.00, 155.00)" id="221_비">
<path d="M-25.11,-33.47 C-25.11,-33.47 -26.63,-34.76 -26.63,-34.76 C-27.01,-34.61 -28.95,-27.83 -26.77,-7.06 C-26.45,-4.06 -25.80,2.59 -25.46,6.23 C-24.74,14.40 -24.02,17.13 -23.80,17.26" fill="none" stroke="rgb(0, 0, 255)" stroke-width="4.12" stroke-opacity="1.00" stroke-linejoin="round"/>
<path d="M-13.48,70.43 C-13.64,70.34 -13.76,70.18 -13.84,69.96 C-13.93,69.74 -14.09,69.15 -14.32,68.18 C-14.32,68.18 -15.03,67.81 -15.03,67.81 C-16.12,69.06 -17.65,73.37 -18.41,76.72 C-19.71,82.74 -19.83,94.33 -19.67,95.33" fill="none" stroke="rgb(0, 0, 255)" stroke-width="4.12" stroke-opacity="1.00" stroke-linejoin="round"/>
<path d="M47.33,-1.95 C47.33,-1.95 46.23,-1.23 46.23,-1.23 C47.20,4.91 47.76,19.79 48.02,27.79 C48.21,32.68 48.57,37.03 49.07,41.10" fill="none" stroke="rgb(0, 0, 255)" stroke-width="4.12" stroke-opacity="1.00" stroke-linejoin="round"/>
<path d="M68.94,-36.84 C68.94,-36.84 68.26,-37.17 68.26,-37.17 C68.26,-37.17 68.11,-37.13 68.11,-37.13 C67.47,-31.85 66.93,-17.57 66.64,-9.21 C66.53,-0.82 66.63,9.25 66.67,11.65" fill="none" stroke="rgb(0, 0, 255)" stroke-width="4.12" stroke-opacity="1.00" stroke-linejoin="round"/>
<path d="M8.13,104.50 C8.13,104.50 7.50,104.40 7.50,104.40 C7.50,104.40 7.36,104.50 7.36,104.50 C7.01,107.50 7.49,113.77 8.21,117.07 C9.96,124.85 12.71,131.29 14.25,134.57" fill="none" stroke="rgb(0, 0, 255)" stroke-width="4.12" stroke-opacity="1.00" stroke-linejoin="round"/>
<path d="M32.45,83.54 C32.45,83.54 32.28,83.07 32.28,83.07 C32.42,86.95 32.66,90.65 33.19,96.53 C33.59,100.64 34.45,109.30 34.90,113.85 C35.58,120.94 36.32,128.83 36.39,129.62" fill="none" stroke="rgb(0, 0, 255)" stroke-width="4.12" stroke-opacity="1.00" stroke-linejoin="round"/>
<path d="M12.50,124.16 C12.46,123.46 12.44,121.89 12.44,121.89 C12.42,121.70 12.37,121.42 12.30,121.05 C11.21,121.76 8.69,125.06 7.47,127.89 C5.96,131.44 3.44,141.54 3.08,143.35 C2.40,146.77 2.15,151.56 2.06,156.08 C2.02,159.18 2.37,164.47 3.14,167.51" fill="none" stroke="rgb(0, 0, 255)" stroke-width="4.12" stroke-opacity="1.00" stroke-linejoin="round"/>
<path d="M-3.09,165.42 C-3.20,165.33 -3.84,165.70 -4.70,166.46 C-9.04,170.32 -14.71,178.99 -16.97,184.14 C-19.50,189.97 -22.42,202.50 -22.41,208.83 C-22.40,209.85 -22.27,210.96 -22.05,212.42" fill="none" stroke="rgb(0, 0, 255)" stroke-width="4.12" stroke-opacity="1.00" stroke-linejoin="round"/>
<path d="M19.46,234.14 C19.46,234.14 19.36,229.46 19.36,229.46 C18.59,229.32 13.95,232.83 12.51,234.39 C8.55,238.77 2.56,250.44 0.12,257.40 C-1.55,262.18 -4.64,275.58 -5.39,280.97 C-5.52,281.92 -6.01,285.94 -6.15,287.15" fill="none" stroke="rgb(0, 0, 255)" stroke-width="4.12" stroke-opacity="1.00" stroke-linejoin="round"/>
<path d="M5.71,236.03 C5.71,236.03 4.81,235.49 4.81,235.49 C4.21,237.12 3.78,243.70 3.86,247.62 C3.98,252.34 4.54,258.36 5.17,261.50 C5.72,264.23 7.21,269.04 7.84,270.96" fill="none" stroke="rgb(0, 0, 255)" stroke-width="4.12" stroke-opacity="1.00" stroke-linejoin="round"/>
<path d="M-3.68,295.36 C-3.68,295.36 -3.85,294.87 -3.85,294.87 C-3.85,294.87 -4.21,294.74 -4.21,294.74 C-6.68,299.60 -9.98,311.50 -11.35,319.16 C-13.61,331.85 -14.74,355.39 -14.31,361.11 C-14.18,362.84 -13.58,368.33 -13.47,369.34" fill="none" stroke="rgb(0, 0, 255)" stroke-width="4.12" stroke-opacity="1.00" stroke-linejoin="round"/>
<path d="M9.78,347.91 C8.46,347.88 7.49,348.23 6.60,349.24 C5.27,350.76 3.18,355.88 2.40,359.23 C1.02,365.35 1.33,377.24 2.73,385.26 C3.92,391.60 6.23,399.57 9.89,410.89 C11.06,414.29 12.88,419.54 13.69,421.62" fill="none" stroke="rgb(0, 0, 255)" stroke-width="4.12" stroke-opacity="1.00" stroke-linejoin="round"/>
<path d="M18.93,359.06 C19.07,359.51 16.80,364.88 16.02,367.40 C14.37,372.87 12.68,385.78 12.82,392.04 C12.95,397.45 14.66,409.77 16.23,415.46" fill="none" stroke="rgb(0, 0, 255)" stroke-width="4.12" stroke-opacity="1.00" stroke-linejoin="round"/>
<path d="M-22.10,414.44 C-22.10,414.44 -23.08,414.41 -23.08,414.41 C-24.42,415.27 -27.48,419.42 -29.05,422.34 C-31.20,426.43 -34.84,438.03 -36.40,448.41 C-36.78,450.90 -36.91,452.34 -36.99,454.44" fill="none" stroke="rgb(0, 0, 255)" stroke-width="4.12" stroke-opacity="1.00" stroke-linejoin="round"/>
<path d="M40.24,325.59 C40.24,325.59 40.14,326.39 40.14,326.39 C40.14,326.39 39.71,324.82 39.71,324.82 C38.26,324.67 37.23,324.87 36.41,325.78 C34.41,328.07 32.31,333.31 31.70,336.10 C30.43,342.00 30.50,353.35 31.67,360.33 C32.19,363.37 33.42,368.18 34.98,371.59" fill="none" stroke="rgb(0, 0, 255)" stroke-width="4.12" stroke-opacity="1.00" stroke-linejoin="round"/>
<path d="M48.92,374.94 C48.92,374.94 47.85,375.01 47.85,375.01 C45.97,377.52 43.83,390.39 43.85,397.35 C43.89,405.22 45.79,418.18 47.39,425.09 C48.26,428.80 50.16,435.04 51.01,437.76" fill="none" stroke="rgb(0, 0, 255)" stroke-width="4.12" stroke-opacity="1.00" stroke-linejoin="round"/>
<path d="M52.52,304.28 C52.52,304.28 52.56,304.35 52.56,304.35 C52.56,304.35 52.60,303.15 52.60,303.15 C52.60,303.15 52.17,303.25 52.17,303.25 C50.79,304.99 48.69,309.90 47.85,313.31 C46.59,318.54 46.05,329.81 46.43,336.85 C47.26,350.07 52.92,370.58 55.39,376.05" fill="none" stroke="rgb(0, 0, 255)" stroke-width="4.12" stroke-opacity="1.00" stroke-linejoin="round"/>
<path d="M97.51,370.69 C97.51,370.69 96.80,369.29 96.80,369.29 C96.41,369.02 94.97,369.61 93.95,370.67 C91.63,373.15 89.13,388.63 88.83,394.79 C88.55,400.87 89.15,415.53 90.47,424.36 C91.78,433.03 94.07,439.98 95.25,442.60" fill="none" stroke="rgb(0, 0, 255)" stroke-width="4.12" stroke-opacity="1.00" stroke-linejoin="round"/>
<path d="M89.89,305.34 C89.89,305.34 90.72,302.62 90.72,302.62 C90.57,302.51 88.15,306.52 86.16,326.07 C85.44,333.19 85.00,344.76 84.96,356.39 C85.05,366.67 85.50,370.66 85.98,372.79" fill="none" stroke="rgb(0, 0, 255)" stroke-width="4.12" stroke-opacity="1.00" stroke-linejoin="round"/>
<path d="M113.27,314.84 C113.27,314.84 113.30,314.45 113.30,314.45 C113.45,314.78 113.50,315.30 113.43,316.68 C112.72,332.61 113.97,351.27 115.04,359.07 C115.90,364.98 117.25,373.27 117.42,374.29" fill="none" stroke="rgb(0, 0, 255)" stroke-width="4.12" stroke-opacity="1.00" stroke-linejoin="round"/>
<path d="M126.56,327.60 C126.56,327.60 124.91,326.92 124.91,326.92 C122.76,328.91 121.18,331.93 119.59,335.31 C114.81,345.79 109.84,358.77 108.33,364.03 C106.16,371.70 104.89,381.46 104.81,384.90" fill="none" stroke="rgb(0, 0, 255)" stroke-width="4.12" stroke-opacity="1.00" stroke-linejoin="round"/>
<path d="M104.59,409.60 C104.59,409.60 102.15,408.16 102.15,408.16 C100.19,408.72 97.30,412.07 96.14,414.47 C94.14,418.76 93.26,426.93 93.42,429.00" fill="none" stroke="rgb(0, 0, 255)" stroke-width="4.12" stroke-opacity="1.00" stroke-linejoin="round"/>
<path d="M161.15,326.83 C161.15,326.83 162.25,325.50 162.25,325.50 C161.93,325.28 160.36,326.23 159.17,327.52 C156.71,330.22 151.75,342.87 150.34,348.87 C148.91,355.01 146.90,366.94 146.34,374.01 C145.76,382.23 145.94,389.90 146.91,399.00 C147.29,402.39 148.17,405.38 148.54,406.21" fill="none" stroke="rgb(0, 0, 255)" stroke-width="4.12" stroke-opacity="1.00" stroke-linejoin="round"/>
<path d="M129.80,411.90 C129.80,411.90 128.93,411.79 128.93,411.79 C128.26,412.08 127.74,416.65 127.55,422.78 C127.47,426.68 127.78,433.49 128.08,436.18 C128.29,438.05 128.75,441.27 129.06,443.23" fill="none" stroke="rgb(0, 0, 255)" stroke-width="4.12" stroke-opacity="1.00" stroke-linejoin="round"/>
<path d="M173.79,300.62 C173.79,300.62 173.62,299.41 173.62,299.41 C172.49,303.29 171.11,313.85 170.68,323.17 C170.30,334.38 170.48,342.87 171.21,348.59 C172.24,356.42 173.73,360.16 174.93,362.80" fill="none" stroke="rgb(0, 0, 255)" stroke-width="4.12" stroke-opacity="1.00" stroke-linejoin="round"/>
<path d="M182.64,306.17 C182.64,306.17 182.54,305.18 182.54,305.18 C174.39,318.99 162.40,343.41 159.38,353.82 C157.54,360.24 155.90,371.15 156.00,376.93 C156.14,383.19 157.76,391.54 159.19,395.70" fill="none" stroke="rgb(0, 0, 255)" stroke-width="4.12" stroke-opacity="1.00" stroke-linejoin="round"/>
<path d="M190.32,346.90 C190.32,346.90 187.38,346.51 187.38,346.51 C186.12,347.91 184.00,352.71 183.06,356.09 C181.78,360.76 180.15,375.66 179.96,383.38 C179.93,392.47 180.46,405.05 181.30,412.52 C182.62,422.94 183.54,427.68 183.83,428.98" fill="none" stroke="rgb(0, 0, 255)" stroke-width="4.12" stroke-opacity="1.00" stroke-linejoin="round"/>
<path d="M223.32,343.54 C223.32,343.54 222.60,341.78 222.60,341.78 C221.22,341.66 219.23,343.77 218.05,346.34 C215.48,352.13 211.93,366.33 210.75,375.17 C210.28,378.80 209.23,394.39 209.34,400.20 C209.52,408.71 210.20,416.91 210.52,419.02" fill="none" stroke="rgb(0, 0, 255)" stroke-width="4.12" stroke-opacity="1.00" stroke-linejoin="round"/>
<path d="M244.75,287.57 C244.75,287.57 245.90,285.37 245.90,285.37 C245.90,285.37 245.50,284.99 245.50,284.99 C244.28,285.16 240.88,288.02 238.29,291.37 C231.95,299.90 226.83,308.20 223.41,314.65 C220.55,320.09 214.59,335.24 212.60,342.51 C210.53,350.17 208.53,362.72 208.13,368.41 C207.71,374.69 208.28,389.27 208.60,396.14" fill="none" stroke="rgb(0, 0, 255)" stroke-width="4.12" stroke-opacity="1.00" stroke-linejoin="round"/>
<path d="M201.54,410.07 C201.54,410.07 200.90,409.51 200.90,409.51 C200.18,412.47 200.04,419.24 199.94,423.24 C199.70,442.74 201.11,453.84 201.32,455.30" fill="none" stroke="rgb(0, 0, 255)" stroke-width="4.12" stroke-opacity="1.00" stroke-linejoin="round"/>
<path d="M279.35,293.95 C279.35,293.95 278.87,293.37 278.87,293.37 C277.65,293.44 274.56,295.26 272.16,297.23 C266.09,302.31 259.07,309.99 254.55,315.94 C250.23,321.75 243.26,332.60 239.95,338.47 C233.60,349.78 227.32,366.34 222.37,382.02 C221.91,383.46 221.77,383.99 221.69,384.43" fill="none" stroke="rgb(0, 0, 255)" stroke-width="4.12" stroke-opacity="1.00" stroke-linejoin="round"/>
<path d="M241.21,360.72 C241.21,360.72 241.00,360.76 241.00,360.76 C240.66,361.24 240.19,366.10 239.77,369.37 C238.70,377.87 237.71,389.84 237.35,396.27 C237.06,403.42 237.35,418.34 237.59,426.09" fill="none" stroke="rgb(0, 0, 255)" stroke-width="4.12" stroke-opacity="1.00" stroke-linejoin="round"/>
<path d="M288.44,273.05 C288.44,273.05 288.20,272.39 288.20,272.39 C288.20,272.39 287.52,272.04 287.52,272.04 C286.46,272.53 284.39,276.61 282.21,281.99 C279.52,289.12 275.51,302.55 273.30,310.17 C271.06,318.36 267.72,331.05 266.62,335.56" fill="none" stroke="rgb(0, 0, 255)" stroke-width="4.12" stroke-opacity="1.00" stroke-linejoin="round"/>
<path d="M251.01,281.25 C251.01,281.25 250.15,280.96 250.15,280.96 C249.79,281.72 247.95,331.20 248.45,338.68 C248.94,345.97 250.72,356.85 251.53,359.60" fill="none" stroke="rgb(0, 0, 255)" stroke-width="4.12" stroke-opacity="1.00" stroke-linejoin="round"/>
<path d="M291.33,300.09 C291.06,300.07 290.29,300.33 289.78,300.99 C287.39,304.20 281.72,319.59 280.19,324.83 C278.40,331.03 276.35,345.09 277.22,347.55" fill="none" stroke="rgb(0, 0, 255)" stroke-width="4.12" stroke-opacity="1.00" stroke-linejoin="round"/>
<path d="M304.91,199.25 C304.91,199.25 305.03,198.09 305.03,198.09 C302.10,201.47 297.28,209.60 294.00,218.36 C290.64,227.80 288.52,238.07 287.40,247.26 C286.97,250.96 286.82,257.16 287.06,260.37 C287.84,269.79 290.98,274.40 291.14,274.32" fill="none" stroke="rgb(0, 0, 255)" stroke-width="4.12" stroke-opacity="1.00" stroke-linejoin="round"/>
<path d="M300.13,154.80 C300.13,154.80 300.07,154.42 300.07,154.42 C300.07,154.42 299.56,153.99 299.56,153.99 C298.61,154.34 296.88,158.10 295.25,162.31 C292.80,168.73 289.79,181.71 288.79,189.03 C286.78,204.89 287.25,217.40 287.29,218.26" fill="none" stroke="rgb(0, 0, 255)" stroke-width="4.12" stroke-opacity="1.00" stroke-linejoin="round"/>
<path d="M260.51,204.68 C260.51,204.68 257.99,203.57 257.99,203.57 C256.25,204.69 253.57,209.67 252.05,213.54 C250.16,218.46 246.68,232.85 245.64,241.39 C243.84,256.38 245.82,268.93 246.14,270.58" fill="none" stroke="rgb(0, 0, 255)" stroke-width="4.12" stroke-opacity="1.00" stroke-linejoin="round"/>
<path d="M216.71,212.59 C215.35,212.64 213.87,214.14 212.66,216.86 C210.44,222.03 207.86,232.47 206.56,241.10 C205.42,249.17 204.92,260.73 204.90,263.77 C204.90,265.15 204.95,266.28 205.04,267.32" fill="none" stroke="rgb(0, 0, 255)" stroke-width="4.12" stroke-opacity="1.00" stroke-linejoin="round"/>
<path d="M207.68,167.73 C207.68,167.73 208.40,164.60 208.40,164.60 C208.09,164.36 204.77,166.15 201.92,171.99 C198.65,178.90 194.59,191.99 193.56,198.86 C192.09,208.99 192.04,215.99 192.13,217.54" fill="none" stroke="rgb(0, 0, 255)" stroke-width="4.12" stroke-opacity="1.00" stroke-linejoin="round"/>
<path d="M171.72,223.87 C171.72,223.87 170.34,222.93 170.34,222.93 C169.04,223.22 167.35,226.94 166.67,230.32 C165.32,237.24 164.74,251.59 165.27,257.31 C165.66,261.31 167.00,268.18 167.68,270.34 C168.32,272.34 169.25,274.52 170.04,275.98" fill="none" stroke="rgb(0, 0, 255)" stroke-width="4.12" stroke-opacity="1.00" stroke-linejoin="round"/>
<path d="M167.35,213.60 C167.35,213.60 167.75,210.13 167.75,210.13 C166.07,210.54 161.32,224.36 159.54,232.38 C158.06,239.53 156.30,252.26 155.95,258.45 C155.08,274.81 157.30,284.64 158.10,287.71" fill="none" stroke="rgb(0, 0, 255)" stroke-width="4.12" stroke-opacity="1.00" stroke-linejoin="round"/>
<path d="M110.56,260.29 C109.79,259.20 108.30,258.47 106.53,258.59 C104.68,258.72 99.77,261.95 98.19,263.80 C96.47,265.91 94.22,270.34 93.44,273.22 C92.72,275.97 92.22,281.23 92.59,283.10" fill="none" stroke="rgb(0, 0, 255)" stroke-width="4.12" stroke-opacity="1.00" stroke-linejoin="round"/>
<path d="M117.29,183.02 C116.81,182.52 115.65,182.02 114.79,182.23 C112.92,182.72 110.24,187.36 108.22,192.03 C106.50,196.24 102.42,213.43 101.80,216.80 C101.10,220.68 100.62,225.26 100.51,226.24" fill="none" stroke="rgb(0, 0, 255)" stroke-width="4.12" stroke-opacity="1.00" stroke-linejoin="round"/>
<path d="M47.56,188.21 C47.56,188.21 46.94,187.73 46.94,187.73 C46.57,189.02 46.36,189.86 45.89,191.95 C44.58,197.85 42.59,214.67 42.73,220.32 C42.95,228.69 44.38,234.88 44.88,236.47" fill="none" stroke="rgb(0, 0, 255)" stroke-width="4.12" stroke-opacity="1.00" stroke-linejoin="round"/>
<path d="M52.94,133.13 C52.94,133.13 51.42,130.93 51.42,130.93 C49.83,132.44 48.97,134.07 48.58,136.56 C47.80,141.73 49.25,154.30 50.92,160.92 C54.12,173.47 60.95,187.12 61.79,188.63" fill="none" stroke="rgb(0, 0, 255)" stroke-width="4.12" stroke-opacity="1.00" stroke-linejoin="round"/>
<path d="M55.48,85.84 C55.48,85.84 53.90,85.52 53.90,85.52 C53.17,86.19 52.53,91.40 52.61,94.41 C52.84,101.58 55.83,115.10 58.07,120.87 C61.09,128.59 63.64,132.47 64.27,133.33" fill="none" stroke="rgb(0, 0, 255)" stroke-width="4.12" stroke-opacity="1.00" stroke-linejoin="round"/>
<path d="M118.35,106.56 C114.58,106.34 111.24,107.01 109.97,108.67 C108.57,110.61 107.59,115.53 107.61,118.34 C107.68,123.43 110.16,136.70 112.28,143.16 C115.71,153.27 117.93,157.50 118.82,159.03" fill="none" stroke="rgb(0, 0, 255)" stroke-width="4.12" stroke-opacity="1.00" stroke-linejoin="round"/>
<path d="M109.67,52.37 C109.67,52.37 109.35,52.18 109.35,52.18 C108.40,51.91 105.45,57.35 104.23,61.09 C103.03,64.88 101.58,77.73 101.85,84.79 C101.98,87.79 102.66,91.69 102.96,93.10" fill="none" stroke="rgb(0, 0, 255)" stroke-width="4.12" stroke-opacity="1.00" stroke-linejoin="round"/>
<path d="M118.23,0.00 C118.23,0.00 117.30,0.22 117.30,0.22 C116.76,2.64 116.52,9.23 116.37,13.14 C115.91,24.11 115.39,30.39 115.30,31.51" fill="none" stroke="rgb(0, 0, 255)" stroke-width="4.12" stroke-opacity="1.00" stroke-linejoin="round"/>
<path d="M155.19,-35.71 C155.19,-35.71 155.25,-36.05 155.25,-36.05 C155.25,-36.05 154.72,-36.13 154.72,-36.13 C153.12,-35.14 151.01,-29.89 150.17,-26.64 C148.79,-21.22 147.04,-5.85 146.98,-1.88 C146.95,0.20 147.11,6.87 147.14,8.14" fill="none" stroke="rgb(0, 0, 255)" stroke-width="4.12" stroke-opacity="1.00" stroke-linejoin="round"/>
<path d="M170.60,-24.44 C170.60,-24.44 167.39,-26.64 167.39,-26.64 C165.82,-26.16 163.80,-22.54 163.13,-19.36 C162.04,-13.81 161.82,-1.62 162.54,5.67 C163.03,10.20 163.72,14.60 164.70,19.71" fill="none" stroke="rgb(0, 0, 255)" stroke-width="4.12" stroke-opacity="1.00" stroke-linejoin="round"/>
<path d="M186.84,14.82 C186.84,14.82 186.28,13.21 186.28,13.21 C184.66,13.99 179.89,27.95 179.24,33.42 C178.49,40.17 179.85,47.13 180.18,48.65" fill="none" stroke="rgb(0, 0, 255)" stroke-width="4.12" stroke-opacity="1.00" stroke-linejoin="round"/>
<path d="M194.98,45.05 C194.98,45.05 192.92,43.60 192.92,43.60 C191.23,43.76 188.58,47.03 187.13,49.73 C184.70,54.37 181.32,68.07 180.96,75.07 C180.72,80.34 182.06,91.74 182.59,93.90" fill="none" stroke="rgb(0, 0, 255)" stroke-width="4.12" stroke-opacity="1.00" stroke-linejoin="round"/>
<path d="M165.29,96.88 C165.29,96.88 164.89,96.95 164.89,96.95 C164.49,97.79 163.78,104.00 163.37,107.62 C162.58,115.74 162.89,127.59 163.22,130.54 C163.38,131.84 163.78,133.50 164.45,135.91" fill="none" stroke="rgb(0, 0, 255)" stroke-width="4.12" stroke-opacity="1.00" stroke-linejoin="round"/>
<path d="M158.08,138.44 C158.08,138.44 156.40,138.02 156.40,138.02 C155.17,138.46 152.82,142.71 151.86,145.68 C150.91,148.72 149.85,155.26 149.67,158.78 C149.43,164.60 151.10,168.95 151.99,170.48" fill="none" stroke="rgb(0, 0, 255)" stroke-width="4.12" stroke-opacity="1.00" stroke-linejoin="round"/>
<path d="M194.69,-18.59 C194.69,-18.59 194.78,-21.48 194.78,-21.48 C194.78,-21.48 193.55,-22.51 193.55,-22.51 C192.51,-22.58 191.18,-22.00 190.41,-20.70 C188.97,-18.24 187.82,-12.45 187.74,-9.77 C187.63,-4.79 189.29,2.88 190.48,6.30" fill="none" stroke="rgb(0, 0, 255)" stroke-width="4.12" stroke-opacity="1.00" stroke-linejoin="round"/>
<path d="M227.93,55.79 C227.93,55.79 227.26,54.95 227.26,54.95 C225.64,55.36 224.35,56.44 223.26,58.51 C221.13,62.60 217.97,74.93 217.34,80.51 C216.63,87.11 216.83,99.76 217.68,105.49 C219.26,115.34 220.20,119.45 220.48,120.49" fill="none" stroke="rgb(0, 0, 255)" stroke-width="4.12" stroke-opacity="1.00" stroke-linejoin="round"/>
<path d="M210.86,95.76 C209.11,94.94 207.01,95.14 206.02,96.40 C204.85,97.96 202.89,103.09 202.33,106.64 C201.84,109.96 201.74,116.45 202.03,120.14 C202.28,123.12 202.80,125.73 203.39,128.38" fill="none" stroke="rgb(0, 0, 255)" stroke-width="4.12" stroke-opacity="1.00" stroke-linejoin="round"/>
<path d="M228.16,-31.11 C228.12,-31.26 228.08,-31.37 228.05,-31.45 C228.01,-31.53 227.92,-31.70 227.78,-31.94 C226.65,-31.67 225.57,-31.13 224.92,-30.12 C222.38,-26.15 218.58,-11.20 218.19,-4.32 C217.86,2.14 218.71,9.57 219.34,12.45" fill="none" stroke="rgb(0, 0, 255)" stroke-width="4.12" stroke-opacity="1.00" stroke-linejoin="round"/>
<path d="M248.59,-14.64 C248.59,-14.64 248.41,-15.46 248.41,-15.46 C248.41,-15.46 247.50,-16.12 247.50,-16.12 C246.53,-16.15 245.54,-15.93 244.95,-15.28 C243.72,-13.89 241.52,-8.76 240.82,-6.09 C239.12,0.51 238.68,13.51 239.28,21.46 C239.31,21.88 239.38,22.69 239.50,23.89" fill="none" stroke="rgb(0, 0, 255)" stroke-width="4.12" stroke-opacity="1.00" stroke-linejoin="round"/>
<path d="M242.69,26.39 C242.22,26.42 241.31,27.00 240.79,27.76 C240.17,28.68 239.25,33.48 239.02,36.84 C238.59,43.60 240.69,53.51 243.93,64.71 C244.91,68.13 246.10,72.32 246.37,73.42" fill="none" stroke="rgb(0, 0, 255)" stroke-width="4.12" stroke-opacity="1.00" stroke-linejoin="round"/>
<path d="M255.26,83.13 C255.26,83.13 251.55,80.49 251.55,80.49 C250.33,81.86 249.15,87.34 248.96,90.28 C248.64,95.98 250.08,107.19 252.31,113.19 C252.69,114.22 253.49,115.99 253.99,117.04" fill="none" stroke="rgb(0, 0, 255)" stroke-width="4.12" stroke-opacity="1.00" stroke-linejoin="round"/>
<path d="M258.80,121.62 C257.64,121.53 255.89,122.69 254.65,124.75 C253.32,127.00 251.89,133.73 251.76,135.68 C251.61,138.25 252.19,142.90 253.16,145.65 C254.04,148.10 255.91,149.97 256.06,149.92" fill="none" stroke="rgb(0, 0, 255)" stroke-width="4.12" stroke-opacity="1.00" stroke-linejoin="round"/>
<path d="M272.74,-18.18 C272.74,-18.18 272.56,-18.74 272.56,-18.74 C271.45,-18.66 270.41,-18.48 269.82,-18.03 C268.25,-16.82 265.52,-11.47 264.66,-8.63 C263.15,-3.54 262.24,11.96 262.77,19.26 C263.23,25.05 263.90,30.28 264.67,34.43" fill="none" stroke="rgb(0, 0, 255)" stroke-width="4.12" stroke-opacity="1.00" stroke-linejoin="round"/>
<path d="M304.73,-24.91 C304.73,-24.91 301.25,-26.09 301.25,-26.09 C299.90,-24.52 298.54,-19.68 297.70,-15.41 C295.51,-3.96 296.14,21.34 297.26,28.00 C298.17,33.20 300.17,39.15 301.13,40.26" fill="none" stroke="rgb(0, 0, 255)" stroke-width="4.12" stroke-opacity="1.00" stroke-linejoin="round"/>
<path d="M284.01,-14.05 C284.01,-14.05 284.01,-14.66 284.01,-14.66 C284.01,-6.39 285.02,3.84 286.51,10.61 C287.50,15.03 288.95,19.72 289.89,22.51" fill="none" stroke="rgb(0, 0, 255)" stroke-width="4.12" stroke-opacity="1.00" stroke-linejoin="round"/>
<path d="M299.78,48.94 C299.78,48.94 296.39,43.40 296.39,43.40 C294.89,44.70 294.19,45.63 293.91,46.95 C292.62,53.03 291.91,65.32 292.86,72.14 C293.37,75.71 294.58,80.14 296.12,83.63 C297.02,85.63 297.62,86.65 298.21,87.26" fill="none" stroke="rgb(0, 0, 255)" stroke-width="4.12" stroke-opacity="1.00" stroke-linejoin="round"/>
<path d="M286.96,78.58 C285.89,80.03 285.26,81.24 284.94,82.84 C283.70,89.20 283.47,104.29 284.85,110.52 C286.44,117.58 289.21,122.42 290.86,124.72" fill="none" stroke="rgb(0, 0, 255)" stroke-width="4.12" stroke-opacity="1.00" stroke-linejoin="round"/>
<path d="M329.65,44.87 C329.65,44.87 327.03,43.50 327.03,43.50 C325.52,44.77 324.78,45.67 324.44,46.90 C323.69,49.69 322.83,56.31 322.90,59.60 C322.99,62.97 323.46,69.20 324.26,72.48 C326.19,80.28 329.57,87.11 330.83,88.89" fill="none" stroke="rgb(0, 0, 255)" stroke-width="4.12" stroke-opacity="1.00" stroke-linejoin="round"/>
<path d="M336.56,103.67 C336.56,103.67 336.42,102.87 336.42,102.87 C336.42,102.87 336.16,102.86 336.16,102.86 C335.14,105.47 334.06,109.63 333.75,113.16 C333.02,122.45 333.67,134.30 335.69,141.58 C336.87,145.77 338.93,149.15 339.20,149.28" fill="none" stroke="rgb(0, 0, 255)" stroke-width="4.12" stroke-opacity="1.00" stroke-linejoin="round"/>
<path d="M355.45,72.38 C355.45,72.38 355.33,71.30 355.33,71.30 C354.52,72.49 353.82,88.23 354.11,94.12 C354.83,108.18 359.50,121.16 360.74,122.74" fill="none" stroke="rgb(0, 0, 255)" stroke-width="4.12" stroke-opacity="1.00" stroke-linejoin="round"/>
<path d="M361.41,-33.41 C361.41,-33.41 361.43,-34.37 361.43,-34.37 C360.76,-31.43 359.27,-25.03 358.46,-21.56 C355.79,-9.95 353.41,2.74 352.69,9.86 C351.12,26.03 353.88,36.66 354.33,37.92" fill="none" stroke="rgb(0, 0, 255)" stroke-width="4.12" stroke-opacity="1.00" stroke-linejoin="round"/>
<path d="M377.29,-16.88 C377.29,-16.88 376.72,-19.98 376.72,-19.98 C375.69,-19.15 375.04,-17.90 374.53,-15.50 C372.93,-7.88 371.47,7.43 371.37,13.29 C371.16,26.35 373.38,43.30 373.89,46.20" fill="none" stroke="rgb(0, 0, 255)" stroke-width="4.12" stroke-opacity="1.00" stroke-linejoin="round"/>
<path d="M403.45,50.36 C403.19,50.31 402.73,50.12 402.49,49.87 C402.23,49.60 401.55,48.87 401.01,48.85 C399.86,49.47 398.44,53.71 398.13,56.80 C397.03,69.02 400.81,81.79 401.39,83.58" fill="none" stroke="rgb(0, 0, 255)" stroke-width="4.12" stroke-opacity="1.00" stroke-linejoin="round"/>
<path d="M415.73,10.27 C414.57,10.33 412.80,11.70 411.49,15.36 C408.81,23.07 409.01,44.03 409.85,53.73 C410.19,57.18 410.99,61.74 411.87,64.64" fill="none" stroke="rgb(0, 0, 255)" stroke-width="4.12" stroke-opacity="1.00" stroke-linejoin="round"/>
<path d="M428.24,-6.02 C428.24,-6.02 427.32,-5.94 427.32,-5.94 C427.01,-2.37 424.70,15.19 424.81,19.46 C425.07,27.82 426.44,32.11 426.76,32.41" fill="none" stroke="rgb(0, 0, 255)" stroke-width="4.12" stroke-opacity="1.00" stroke-linejoin="round"/>
<path d="M447.02,-38.43 C446.36,-39.83 445.04,-40.79 444.23,-40.53 C443.22,-40.10 441.10,-35.05 440.10,-30.88 C439.06,-26.38 437.77,-12.73 437.66,-2.70 C437.66,1.36 437.62,12.85 437.50,15.01 C437.07,21.42 436.42,31.65 436.40,32.65" fill="none" stroke="rgb(0, 0, 255)" stroke-width="4.12" stroke-opacity="1.00" stroke-linejoin="round"/>
<path d="M432.14,110.11 C432.14,110.11 429.50,111.19 429.50,111.19 C428.18,113.97 428.05,129.26 429.25,139.61 C429.74,143.66 430.58,148.53 430.89,150.10" fill="none" stroke="rgb(0, 0, 255)" stroke-width="4.12" stroke-opacity="1.00" stroke-linejoin="round"/>
<path d="M380.66,167.25 C380.66,167.25 380.31,164.84 380.31,164.84 C379.45,164.59 378.05,164.50 377.16,164.94 C375.13,165.98 371.08,171.06 369.79,173.38 C366.81,178.83 363.27,192.10 362.72,198.56 C362.23,204.50 362.77,215.72 364.32,222.23 C365.91,228.75 368.37,233.03 368.89,233.62" fill="none" stroke="rgb(0, 0, 255)" stroke-width="4.12" stroke-opacity="1.00" stroke-linejoin="round"/>
<path d="M347.24,202.97 C346.35,202.98 345.48,203.10 345.15,203.71 C344.45,205.03 339.70,227.06 338.87,232.86 C337.85,240.09 337.51,255.91 338.68,262.26 C339.31,265.65 340.15,268.09 340.46,268.82" fill="none" stroke="rgb(0, 0, 255)" stroke-width="4.12" stroke-opacity="1.00" stroke-linejoin="round"/>
<path d="M409.53,192.46 C410.24,190.55 410.77,189.35 411.65,187.62 C411.77,187.38 411.87,187.19 411.94,187.03 C411.94,187.03 411.50,186.95 411.50,186.95 C408.73,188.75 400.86,200.39 397.26,207.60 C394.58,213.01 389.36,226.84 387.98,232.57 C386.30,239.66 385.74,250.15 386.64,252.98" fill="none" stroke="rgb(0, 0, 255)" stroke-width="4.12" stroke-opacity="1.00" stroke-linejoin="round"/>
<path d="M420.86,195.47 C420.86,195.47 420.62,194.51 420.62,194.51 C420.23,194.32 415.17,199.54 411.48,215.95 C409.78,223.76 409.15,228.61 408.90,231.45" fill="none" stroke="rgb(0, 0, 255)" stroke-width="4.12" stroke-opacity="1.00" stroke-linejoin="round"/>
<path d="M481.49,133.25 C481.49,133.25 480.98,131.98 480.98,131.98 C480.98,131.98 479.58,131.53 479.58,131.53 C478.13,132.34 474.30,137.53 473.09,139.80 C468.32,148.97 464.08,168.42 463.84,169.51" fill="none" stroke="rgb(0, 0, 255)" stroke-width="4.12" stroke-opacity="1.00" stroke-linejoin="round"/>
<path d="M483.74,171.92 C483.74,171.92 483.37,171.72 483.37,171.72 C482.06,171.77 478.71,175.64 477.33,177.67 C473.44,183.47 467.77,193.70 463.56,202.63 C457.50,215.89 455.59,224.49 455.09,227.11" fill="none" stroke="rgb(0, 0, 255)" stroke-width="4.12" stroke-opacity="1.00" stroke-linejoin="round"/>
<path d="M480.90,-26.92 C480.90,-27.48 480.90,-28.04 480.90,-28.61 C480.91,-31.97 480.52,-32.84 480.02,-33.28 C478.86,-32.56 477.12,-27.45 475.78,-22.08 C474.57,-16.86 472.60,0.59 472.42,5.01 C472.28,8.81 472.48,14.50 472.80,17.93" fill="none" stroke="rgb(0, 0, 255)" stroke-width="4.12" stroke-opacity="1.00" stroke-linejoin="round"/>
<path d="M487.75,5.14 C487.75,5.14 487.24,4.28 487.24,4.28 C486.21,4.53 485.33,5.62 484.24,8.11 C483.03,10.92 479.49,25.80 478.52,33.73 C477.89,39.20 477.43,43.98 477.29,46.35" fill="none" stroke="rgb(0, 0, 255)" stroke-width="4.12" stroke-opacity="1.00" stroke-linejoin="round"/>
<path d="M475.77,63.23 C474.93,64.19 474.39,64.84 474.17,65.17 C472.70,67.32 467.39,85.01 466.54,92.33 C466.13,95.98 466.13,102.61 466.28,104.85 C466.43,106.99 467.24,110.55 467.45,111.47" fill="none" stroke="rgb(0, 0, 255)" stroke-width="4.12" stroke-opacity="1.00" stroke-linejoin="round"/>
<path d="M448.49,250.26 C448.49,250.26 448.68,247.15 448.68,247.15 C448.07,250.38 446.97,256.40 446.49,260.73 C445.80,268.30 444.56,282.87 444.41,289.62 C444.28,300.84 444.45,307.18 444.69,309.34" fill="none" stroke="rgb(0, 0, 255)" stroke-width="4.12" stroke-opacity="1.00" stroke-linejoin="round"/>
<path d="M480.37,308.82 C480.37,308.82 478.62,307.26 478.62,307.26 C476.89,308.47 474.49,315.07 473.56,317.71 C471.60,323.38 466.80,342.44 465.87,347.02 C464.51,354.22 462.72,364.94 462.30,371.99 C462.14,375.01 462.26,378.94 462.82,380.36" fill="none" stroke="rgb(0, 0, 255)" stroke-width="4.12" stroke-opacity="1.00" stroke-linejoin="round"/>
<path d="M472.05,294.30 C471.88,294.37 471.81,294.61 471.84,295.00 C471.94,296.33 472.49,299.59 472.61,301.82 C472.84,305.89 473.26,313.62 473.45,317.28 C473.73,323.04 473.79,325.65 473.78,327.40 C473.76,329.70 473.55,337.30 473.51,338.76" fill="none" stroke="rgb(0, 0, 255)" stroke-width="4.12" stroke-opacity="1.00" stroke-linejoin="round"/>
<path d="M452.74,451.40 C452.74,451.40 452.86,450.14 452.86,450.14" fill="none" stroke="rgb(0, 0, 255)" stroke-width="4.12" stroke-opacity="1.00" stroke-linejoin="round"/>
<path d="M455.10,444.78 C455.10,444.78 454.58,442.81 454.58,442.81 C454.58,442.81 453.95,442.43 453.95,442.43 C452.77,443.76 450.12,457.77 449.63,465.31 C449.41,469.08 449.57,471.35 449.79,473.52" fill="none" stroke="rgb(0, 0, 255)" stroke-width="4.12" stroke-opacity="1.00" stroke-linejoin="round"/>
</g>
</svg>
