<?xml version="1.0" encoding="UTF-8" standalone="no"?>
<!DOCTYPE svg PUBLIC "-//W3C//DTD SVG 1.1//EN" "http://www.w3.org/Graphics/SVG/1.1/DTD/svg11.dtd">
<svg width="128.40" height="181.68" viewBox="0.00 0.00 535.00 757.00" xmlns="http://www.w3.org/2000/svg" xmlns:xlink="http://www.w3.org/1999/xlink">
<g stroke-linecap="round" transform="translate(44.00, 155.00)" id="222_비-2">
<path d="M11.85,-37.48 C11.85,-37.48 11.55,-38.09 11.55,-38.09 C10.84,-37.75 9.91,-36.96 8.68,-35.48 C6.30,-32.62 3.19,-27.95 0.60,-23.82 C-1.21,-20.83 -3.58,-16.90 -4.14,-15.96" fill="none" stroke="rgb(0, 0, 255)" stroke-width="3.97" stroke-opacity="1.00" stroke-linejoin="round"/>
<path d="M18.67,-34.58 C18.67,-34.58 17.66,-34.71 17.66,-34.71 C16.58,-33.73 13.72,-29.72 12.00,-27.08 C9.01,-22.41 1.89,-7.36 1.50,-6.26" fill="none" stroke="rgb(0, 0, 255)" stroke-width="3.97" stroke-opacity="1.00" stroke-linejoin="round"/>
<path d="M38.50,-35.95 C38.50,-35.95 38.17,-36.27 38.17,-36.27 C37.21,-35.65 32.60,-30.56 31.57,-29.24 C28.27,-24.97 19.98,-11.96 15.48,-4.75 C11.31,2.10 5.86,11.05 5.07,12.30" fill="none" stroke="rgb(0, 0, 255)" stroke-width="3.97" stroke-opacity="1.00" stroke-linejoin="round"/>
<path d="M32.93,-12.48 C30.40,-10.07 19.53,3.11 18.84,4.02 C16.82,6.66 12.86,12.88 10.89,16.41 C7.33,22.90 5.48,28.98 4.98,30.94" fill="none" stroke="rgb(0, 0, 255)" stroke-width="3.97" stroke-opacity="1.00" stroke-linejoin="round"/>
<path d="M55.61,-22.93 C54.38,-22.84 53.56,-22.52 52.68,-21.57 C49.51,-18.15 40.05,-4.70 36.80,0.60 C33.53,5.94 29.61,14.37 28.95,15.80" fill="none" stroke="rgb(0, 0, 255)" stroke-width="3.97" stroke-opacity="1.00" stroke-linejoin="round"/>
<path d="M31.74,17.98 C31.01,18.11 30.09,18.63 28.89,19.80 C26.65,21.97 20.58,29.38 18.91,31.75 C16.96,34.54 12.31,42.50 10.88,45.40 C9.93,47.35 8.47,51.02 8.18,51.77" fill="none" stroke="rgb(0, 0, 255)" stroke-width="3.97" stroke-opacity="1.00" stroke-linejoin="round"/>
<path d="M29.81,34.86 C29.81,34.86 29.43,34.85 29.43,34.85 C27.01,36.85 23.40,40.48 21.08,43.48 C18.08,47.42 14.43,52.66 12.57,55.79 C9.43,61.09 6.01,67.97 5.57,68.91" fill="none" stroke="rgb(0, 0, 255)" stroke-width="3.97" stroke-opacity="1.00" stroke-linejoin="round"/>
<path d="M27.71,47.31 C26.51,47.79 16.43,61.86 11.73,69.18 C7.73,75.73 0.27,87.95 -0.60,89.27" fill="none" stroke="rgb(0, 0, 255)" stroke-width="3.97" stroke-opacity="1.00" stroke-linejoin="round"/>
<path d="M21.57,69.58 C20.64,69.98 19.87,70.64 18.62,72.27 C16.38,75.24 12.22,80.95 10.64,83.37 C9.31,85.42 4.49,93.51 2.80,96.72 C2.05,98.14 0.66,101.20 -0.14,102.98" fill="none" stroke="rgb(0, 0, 255)" stroke-width="3.97" stroke-opacity="1.00" stroke-linejoin="round"/>
<path d="M21.80,80.38 C20.58,81.58 17.28,86.45 14.87,90.38 C12.60,94.07 8.10,101.44 5.87,105.12 C3.90,108.38 1.39,112.53 0.85,113.43" fill="none" stroke="rgb(0, 0, 255)" stroke-width="3.97" stroke-opacity="1.00" stroke-linejoin="round"/>
<path d="M26.46,84.59 C24.23,85.80 17.60,94.37 13.38,101.17 C9.04,108.25 3.99,116.49 3.28,117.66" fill="none" stroke="rgb(0, 0, 255)" stroke-width="3.97" stroke-opacity="1.00" stroke-linejoin="round"/>
<path d="M7.02,120.50 C5.69,121.86 4.87,122.80 3.51,124.58 C0.54,128.51 -2.27,132.87 -3.65,135.72 C-4.82,138.18 -6.49,142.55 -7.12,144.30" fill="none" stroke="rgb(0, 0, 255)" stroke-width="3.97" stroke-opacity="1.00" stroke-linejoin="round"/>
<path d="M23.61,104.53 C23.63,104.46 23.15,105.07 22.48,106.03 C20.99,108.17 17.56,113.66 16.30,116.19 C15.09,118.60 12.63,124.42 12.13,125.60" fill="none" stroke="rgb(0, 0, 255)" stroke-width="3.97" stroke-opacity="1.00" stroke-linejoin="round"/>
<path d="M31.97,120.10 C30.57,120.92 27.93,123.98 25.22,127.73 C23.42,130.31 19.03,137.13 17.24,140.17 C16.03,142.22 13.19,147.40 12.66,148.38" fill="none" stroke="rgb(0, 0, 255)" stroke-width="3.97" stroke-opacity="1.00" stroke-linejoin="round"/>
<path d="M32.93,132.38 C31.83,132.90 29.16,135.93 27.75,138.23 C27.06,139.37 22.55,147.49 20.95,150.81 C18.20,156.58 15.48,164.74 15.14,165.75" fill="none" stroke="rgb(0, 0, 255)" stroke-width="3.97" stroke-opacity="1.00" stroke-linejoin="round"/>
<path d="M35.15,141.36 C34.99,141.38 33.98,142.59 33.01,144.00 C32.04,145.42 29.27,150.46 26.83,155.29 C24.99,159.05 21.84,165.50 20.54,168.18" fill="none" stroke="rgb(0, 0, 255)" stroke-width="3.97" stroke-opacity="1.00" stroke-linejoin="round"/>
<path d="M46.01,141.02 C46.01,141.02 46.19,140.94 46.19,140.94 C46.30,141.19 46.06,141.79 45.18,143.27 C43.51,146.05 39.99,151.70 38.92,153.60 C37.83,155.54 34.99,161.00 34.45,162.05" fill="none" stroke="rgb(0, 0, 255)" stroke-width="3.97" stroke-opacity="1.00" stroke-linejoin="round"/>
<path d="M62.09,132.95 C61.22,134.21 60.69,135.07 59.58,137.03 C47.99,157.65 44.04,167.53 42.98,170.59 C42.36,172.38 42.03,173.92 41.75,175.81" fill="none" stroke="rgb(0, 0, 255)" stroke-width="3.97" stroke-opacity="1.00" stroke-linejoin="round"/>
<path d="M90.56,66.80 C95.01,58.95 94.72,55.31 94.29,53.92 C93.76,53.62 93.43,53.38 93.32,53.23 C93.07,52.89 93.12,52.09 93.21,52.02" fill="none" stroke="rgb(0, 0, 255)" stroke-width="3.97" stroke-opacity="1.00" stroke-linejoin="round"/>
<path d="M90.39,44.69 C88.96,44.87 87.83,45.47 86.27,47.00 C79.04,54.29 68.62,65.79 65.85,69.14 C62.44,73.28 54.44,84.49 49.57,91.98 C46.67,96.58 45.12,99.22 44.23,101.06" fill="none" stroke="rgb(0, 0, 255)" stroke-width="3.97" stroke-opacity="1.00" stroke-linejoin="round"/>
<path d="M104.37,48.44 C104.37,48.44 104.19,46.83 104.19,46.83 C102.47,47.44 92.98,57.91 87.88,63.55 C83.00,69.07 74.27,79.19 70.44,83.79 C68.59,86.09 66.78,88.91 66.18,89.94" fill="none" stroke="rgb(0, 0, 255)" stroke-width="3.97" stroke-opacity="1.00" stroke-linejoin="round"/>
<path d="M114.49,52.82 C113.89,52.82 112.81,53.40 111.59,54.48 C109.23,56.59 96.87,70.50 92.61,75.75 C78.36,94.16 74.75,99.55 74.01,100.73" fill="none" stroke="rgb(0, 0, 255)" stroke-width="3.97" stroke-opacity="1.00" stroke-linejoin="round"/>
<path d="M131.93,51.06 C130.28,50.99 127.80,52.74 125.36,55.49 C116.57,65.16 98.54,84.67 91.02,94.40 C88.01,98.42 85.21,102.63 83.66,105.45" fill="none" stroke="rgb(0, 0, 255)" stroke-width="3.97" stroke-opacity="1.00" stroke-linejoin="round"/>
<path d="M145.00,52.42 C143.70,52.37 141.27,53.78 137.73,56.75 C136.30,57.96 122.30,70.78 116.81,75.89 C103.92,88.36 95.73,99.59 93.85,102.49" fill="none" stroke="rgb(0, 0, 255)" stroke-width="3.97" stroke-opacity="1.00" stroke-linejoin="round"/>
<path d="M156.82,54.58 C156.19,54.46 153.18,55.84 150.51,57.88 C145.51,61.76 135.97,70.22 129.06,77.03 C123.30,82.94 114.57,93.63 112.46,97.30" fill="none" stroke="rgb(0, 0, 255)" stroke-width="3.97" stroke-opacity="1.00" stroke-linejoin="round"/>
<path d="M175.69,51.23 C175.69,51.23 175.05,50.34 175.05,50.34 C173.37,49.81 165.27,57.70 158.55,64.72 C152.35,71.38 143.66,81.71 141.16,85.17 C139.07,88.09 135.94,93.31 135.51,94.41" fill="none" stroke="rgb(0, 0, 255)" stroke-width="3.97" stroke-opacity="1.00" stroke-linejoin="round"/>
<path d="M190.41,59.13 C188.94,60.41 188.12,61.21 186.58,62.90 C180.82,69.27 168.99,82.63 165.48,87.27 C160.95,93.37 157.41,98.54 156.83,99.39" fill="none" stroke="rgb(0, 0, 255)" stroke-width="3.97" stroke-opacity="1.00" stroke-linejoin="round"/>
<path d="M172.74,-3.61 C172.74,-3.61 172.49,-4.49 172.49,-4.49 C172.49,-4.49 171.75,-5.00 171.75,-5.00 C170.02,-4.69 166.61,-2.15 162.39,1.49 C155.89,7.22 147.87,15.37 142.24,21.97 C136.04,29.50 133.95,32.82 133.43,33.80" fill="none" stroke="rgb(0, 0, 255)" stroke-width="3.97" stroke-opacity="1.00" stroke-linejoin="round"/>
<path d="M172.00,6.79 C172.00,6.79 172.15,4.87 172.15,4.87 C169.24,5.62 160.28,13.63 151.03,22.42 C148.19,25.16 142.16,31.03 138.97,34.16 C136.85,36.31 132.83,40.39 130.94,42.33" fill="none" stroke="rgb(0, 0, 255)" stroke-width="3.97" stroke-opacity="1.00" stroke-linejoin="round"/>
<path d="M180.07,15.08 C178.28,14.99 174.73,17.14 170.72,20.36 C168.78,21.95 161.78,28.06 159.50,30.32 C157.61,32.21 152.74,37.65 151.11,39.97" fill="none" stroke="rgb(0, 0, 255)" stroke-width="3.97" stroke-opacity="1.00" stroke-linejoin="round"/>
<path d="M189.84,16.28 C189.12,16.58 187.49,17.83 185.86,19.42 C184.35,20.89 167.47,40.69 166.77,41.57 C166.48,41.94 165.87,42.73 164.94,43.95" fill="none" stroke="rgb(0, 0, 255)" stroke-width="3.97" stroke-opacity="1.00" stroke-linejoin="round"/>
<path d="M199.79,14.52 C197.67,14.76 195.31,16.40 192.14,19.44 C191.06,20.48 180.77,30.77 178.84,32.70" fill="none" stroke="rgb(0, 0, 255)" stroke-width="3.97" stroke-opacity="1.00" stroke-linejoin="round"/>
<path d="M215.24,-30.04 C211.22,-26.41 200.11,-16.80 194.85,-12.14 C188.23,-5.98 184.62,-2.04 183.47,-0.73" fill="none" stroke="rgb(0, 0, 255)" stroke-width="3.97" stroke-opacity="1.00" stroke-linejoin="round"/>
<path d="M227.41,-29.18 C226.39,-28.70 222.84,-26.09 219.38,-22.93 C217.00,-20.75 199.68,-3.96 197.53,-2.51 C196.68,-1.94 194.58,-0.64 193.76,-0.14" fill="none" stroke="rgb(0, 0, 255)" stroke-width="3.97" stroke-opacity="1.00" stroke-linejoin="round"/>
<path d="M3.10,191.48 C3.10,191.48 3.10,191.49 3.09,191.49 C2.05,192.64 1.40,193.36 1.15,193.65 C0.66,194.23 -4.12,200.58 -5.78,203.57 C-6.81,205.44 -8.57,209.38 -8.89,210.11" fill="none" stroke="rgb(0, 0, 255)" stroke-width="3.97" stroke-opacity="1.00" stroke-linejoin="round"/>
<path d="M17.08,192.90 C15.92,192.95 14.26,193.41 13.29,194.25 C11.66,195.67 8.35,201.00 7.49,202.72 C6.33,205.05 4.11,210.72 3.54,212.20" fill="none" stroke="rgb(0, 0, 255)" stroke-width="3.97" stroke-opacity="1.00" stroke-linejoin="round"/>
<path d="M35.26,196.54 C33.24,196.30 31.93,196.33 30.98,196.95 C28.63,198.48 25.02,202.55 24.34,203.49 C23.36,204.87 20.23,210.60 18.66,214.49" fill="none" stroke="rgb(0, 0, 255)" stroke-width="3.97" stroke-opacity="1.00" stroke-linejoin="round"/>
<path d="M54.36,187.33 C52.68,187.40 51.28,187.81 50.11,188.87 C47.96,190.84 44.55,195.19 42.83,198.14 C40.07,202.94 39.56,203.92 39.12,204.90" fill="none" stroke="rgb(0, 0, 255)" stroke-width="3.97" stroke-opacity="1.00" stroke-linejoin="round"/>
<path d="M72.72,181.65 C72.02,181.64 70.54,181.93 69.57,182.56 C67.54,183.89 61.99,190.08 60.58,192.08 C59.02,194.32 55.89,199.80 55.26,200.90" fill="none" stroke="rgb(0, 0, 255)" stroke-width="3.97" stroke-opacity="1.00" stroke-linejoin="round"/>
<path d="M24.92,222.51 C24.54,222.29 23.56,221.98 22.88,222.05 C19.84,222.41 9.41,230.94 5.81,235.03 C1.59,239.86 -1.39,244.13 -2.03,245.09" fill="none" stroke="rgb(0, 0, 255)" stroke-width="3.97" stroke-opacity="1.00" stroke-linejoin="round"/>
<path d="M18.84,238.31 C16.83,238.36 13.69,239.91 10.98,242.15 C8.53,244.22 3.63,249.32 1.37,252.30 C-7.91,264.67 -11.14,276.61 -11.55,278.36" fill="none" stroke="rgb(0, 0, 255)" stroke-width="3.97" stroke-opacity="1.00" stroke-linejoin="round"/>
<path d="M119.77,187.67 C116.79,187.88 110.55,189.48 108.04,190.59 C103.10,192.85 92.79,200.65 88.68,204.84 C87.13,206.43 80.88,213.20 80.02,214.42" fill="none" stroke="rgb(0, 0, 255)" stroke-width="3.97" stroke-opacity="1.00" stroke-linejoin="round"/>
<path d="M152.85,165.28 C152.85,165.28 153.11,165.08 153.11,165.08 C150.94,166.96 149.74,168.04 148.08,169.63 C142.61,174.91 131.59,186.98 127.66,191.68 C122.96,197.44 114.77,208.59 111.00,214.06 C105.06,223.06 102.04,228.12 101.04,230.15" fill="none" stroke="rgb(0, 0, 255)" stroke-width="3.97" stroke-opacity="1.00" stroke-linejoin="round"/>
<path d="M162.68,175.79 C162.68,175.79 162.49,175.31 162.49,175.31 C162.38,175.29 152.17,184.43 143.58,195.83 C142.34,197.49 135.87,206.56 134.76,208.21 C132.88,211.01 130.38,215.08 129.86,215.92" fill="none" stroke="rgb(0, 0, 255)" stroke-width="3.97" stroke-opacity="1.00" stroke-linejoin="round"/>
<path d="M120.05,228.70 C117.38,229.38 115.72,230.07 113.82,231.41 C108.69,235.06 98.51,244.28 93.80,249.16 C91.10,252.03 86.56,256.87 84.73,258.84" fill="none" stroke="rgb(0, 0, 255)" stroke-width="3.97" stroke-opacity="1.00" stroke-linejoin="round"/>
<path d="M99.25,232.96 C96.77,233.60 95.10,234.30 93.47,235.61 C90.53,237.96 85.67,242.63 83.26,244.97 C77.92,250.22 70.74,257.28 68.90,259.09" fill="none" stroke="rgb(0, 0, 255)" stroke-width="3.97" stroke-opacity="1.00" stroke-linejoin="round"/>
<path d="M62.88,240.52 C59.88,240.59 58.00,240.94 56.52,241.92 C53.91,243.67 51.37,246.40 47.86,250.52 C45.18,253.71 40.25,259.58 38.01,262.24" fill="none" stroke="rgb(0, 0, 255)" stroke-width="3.97" stroke-opacity="1.00" stroke-linejoin="round"/>
<path d="M51.97,232.00 C50.52,231.96 47.18,234.17 44.86,236.81 C42.12,239.97 36.87,249.20 36.34,250.13" fill="none" stroke="rgb(0, 0, 255)" stroke-width="3.97" stroke-opacity="1.00" stroke-linejoin="round"/>
<path d="M173.19,186.14 C173.19,186.14 173.51,184.75 173.51,184.75 C171.93,184.84 168.44,186.79 164.72,189.27 C161.09,191.79 149.37,202.86 145.28,207.41 C141.32,211.83 136.92,217.67 136.33,218.45" fill="none" stroke="rgb(0, 0, 255)" stroke-width="3.97" stroke-opacity="1.00" stroke-linejoin="round"/>
<path d="M196.43,189.32 C196.43,189.32 196.76,188.12 196.76,188.12 C193.87,188.58 190.06,191.18 187.94,192.83 C183.77,196.10 172.95,206.18 167.00,212.53 C160.15,220.10 155.34,225.85 150.64,231.84" fill="none" stroke="rgb(0, 0, 255)" stroke-width="3.97" stroke-opacity="1.00" stroke-linejoin="round"/>
<path d="M237.24,152.78 C236.26,152.54 235.67,152.41 235.48,152.38 C234.42,152.24 231.30,154.47 228.18,157.38 C225.92,159.54 213.27,175.96 211.24,178.89 C210.75,179.61 208.58,182.87 208.11,183.42" fill="none" stroke="rgb(0, 0, 255)" stroke-width="3.97" stroke-opacity="1.00" stroke-linejoin="round"/>
<path d="M144.55,110.56 C144.28,110.49 143.31,110.60 142.57,111.10 C140.25,112.68 126.99,126.45 122.01,131.89 C117.75,136.68 106.46,150.56 101.64,156.66 C95.61,164.47 92.61,168.80 91.70,170.19" fill="none" stroke="rgb(0, 0, 255)" stroke-width="3.97" stroke-opacity="1.00" stroke-linejoin="round"/>
<path d="M91.98,121.69 C89.90,121.82 84.89,124.10 81.91,126.63 C77.76,130.22 69.65,141.23 66.50,146.74 C61.47,155.82 57.26,164.44 56.80,167.39" fill="none" stroke="rgb(0, 0, 255)" stroke-width="3.97" stroke-opacity="1.00" stroke-linejoin="round"/>
<path d="M155.97,128.68 C155.23,128.65 150.63,130.67 147.64,132.38 C144.98,133.93 140.06,137.41 135.69,140.76 C133.46,142.49 126.58,148.17 123.95,150.37" fill="none" stroke="rgb(0, 0, 255)" stroke-width="3.97" stroke-opacity="1.00" stroke-linejoin="round"/>
<path d="M281.22,17.30 C278.90,16.63 274.31,17.65 271.37,19.70 C268.30,21.91 256.21,32.66 251.56,38.03 C236.70,55.31 233.53,62.71 233.19,64.12" fill="none" stroke="rgb(0, 0, 255)" stroke-width="3.97" stroke-opacity="1.00" stroke-linejoin="round"/>
<path d="M314.53,23.89 C314.53,23.89 314.37,23.05 314.37,23.05 C314.37,23.05 313.67,22.53 313.67,22.53 C309.16,24.44 279.50,49.89 267.78,60.17 C264.60,63.04 247.43,79.56 246.98,79.97 C244.79,82.01 244.13,82.70 243.33,83.79" fill="none" stroke="rgb(0, 0, 255)" stroke-width="3.97" stroke-opacity="1.00" stroke-linejoin="round"/>
<path d="M363.74,43.56 C363.74,43.56 363.54,41.77 363.54,41.77 C362.58,41.84 358.14,43.85 354.72,45.89 C345.66,51.36 337.47,57.33 329.95,63.91 C324.25,68.98 314.01,80.02 309.91,84.95 C305.54,90.35 301.35,96.23 298.70,100.65" fill="none" stroke="rgb(0, 0, 255)" stroke-width="3.97" stroke-opacity="1.00" stroke-linejoin="round"/>
<path d="M333.11,39.98 C333.12,39.60 333.14,39.35 333.16,39.23 C333.19,39.11 333.25,38.95 333.36,38.75" fill="none" stroke="rgb(0, 0, 255)" stroke-width="3.97" stroke-opacity="1.00" stroke-linejoin="round"/>
<path d="M328.34,39.24 C328.34,39.24 328.00,39.03 328.00,39.03 C327.37,40.67 318.76,52.56 313.55,59.35 C308.96,65.12 299.07,77.33 293.79,83.77 C288.67,89.93 277.28,103.63 276.09,105.20 C275.92,105.42 275.68,105.77 275.35,106.23" fill="none" stroke="rgb(0, 0, 255)" stroke-width="3.97" stroke-opacity="1.00" stroke-linejoin="round"/>
<path d="M350.39,34.52 C350.39,34.52 350.34,32.84 350.34,32.84 C349.19,32.82 347.61,33.29 345.74,34.31 C341.82,36.47 334.25,42.71 326.31,50.08 C318.92,57.16 314.06,62.37 311.55,65.10 C309.58,67.26 306.57,71.82 305.64,73.21" fill="none" stroke="rgb(0, 0, 255)" stroke-width="3.97" stroke-opacity="1.00" stroke-linejoin="round"/>
<path d="M275.71,144.03 C274.34,143.47 273.34,143.24 272.50,143.60 C269.20,145.03 256.47,155.66 251.56,160.33 C248.84,162.98 243.82,167.97 241.50,170.29 C238.57,173.33 235.79,176.30 235.14,177.00" fill="none" stroke="rgb(0, 0, 255)" stroke-width="3.97" stroke-opacity="1.00" stroke-linejoin="round"/>
<path d="M303.16,123.80 C302.75,123.82 302.19,123.81 302.08,123.86 C302.01,123.89 299.76,125.43 298.47,126.31 C294.77,128.94 285.22,138.40 280.97,143.56 C278.72,146.34 274.19,151.99 272.53,154.26 C271.06,156.26 266.52,162.93 266.23,163.31" fill="none" stroke="rgb(0, 0, 255)" stroke-width="3.97" stroke-opacity="1.00" stroke-linejoin="round"/>
<path d="M465.81,100.27 C465.81,100.27 465.76,98.89 465.76,98.89 C465.44,99.23 465.20,99.46 465.04,99.58 C460.33,103.04 449.94,111.71 445.16,116.55 C440.55,121.34 432.21,130.66 428.34,135.21 C416.30,149.76 409.79,159.29 409.05,160.39 C408.32,161.48 407.59,162.57 406.86,163.67" fill="none" stroke="rgb(0, 0, 255)" stroke-width="3.97" stroke-opacity="1.00" stroke-linejoin="round"/>
<path d="M469.22,104.53 C467.24,104.57 457.53,112.12 452.50,117.90 C448.11,122.97 440.70,132.95 435.71,140.36 C431.66,146.61 425.30,158.09 421.98,164.80 C417.86,173.34 415.71,179.44 415.33,180.56" fill="none" stroke="rgb(0, 0, 255)" stroke-width="3.97" stroke-opacity="1.00" stroke-linejoin="round"/>
<path d="M474.73,108.00 C473.86,107.70 470.19,109.99 467.29,113.32 C463.96,117.22 457.26,126.47 452.36,134.03 C447.71,141.60 443.61,149.01 438.58,158.84 C434.92,166.26 433.65,169.96 433.33,170.97" fill="none" stroke="rgb(0, 0, 255)" stroke-width="3.97" stroke-opacity="1.00" stroke-linejoin="round"/>
<path d="M463.14,125.50 C461.12,126.62 457.58,136.75 454.94,145.78 C450.97,160.42 445.24,183.82 443.44,191.53 C441.48,200.13 438.87,211.56 438.23,214.40" fill="none" stroke="rgb(0, 0, 255)" stroke-width="3.97" stroke-opacity="1.00" stroke-linejoin="round"/>
<path d="M469.78,144.77 C469.78,144.77 470.02,144.57 470.02,144.57 C470.27,144.41 465.16,161.89 462.86,169.97 C460.65,177.96 455.95,194.88 454.82,198.61 C454.42,199.92 453.95,201.19 452.95,203.74" fill="none" stroke="rgb(0, 0, 255)" stroke-width="3.97" stroke-opacity="1.00" stroke-linejoin="round"/>
<path d="M415.17,112.60 C413.91,112.46 401.74,124.41 397.07,129.23 C392.66,134.04 382.77,145.68 378.02,152.04 C368.70,164.91 360.80,178.39 360.15,179.42" fill="none" stroke="rgb(0, 0, 255)" stroke-width="3.97" stroke-opacity="1.00" stroke-linejoin="round"/>
<path d="M348.57,130.73 C345.33,131.34 341.49,133.26 338.97,135.20 C333.21,139.66 324.34,148.34 320.42,153.18 C312.19,163.41 304.85,180.69 304.08,183.92" fill="none" stroke="rgb(0, 0, 255)" stroke-width="3.97" stroke-opacity="1.00" stroke-linejoin="round"/>
<path d="M399.37,54.81 C397.58,54.94 394.16,57.88 391.96,59.78 C381.74,68.48 359.95,87.41 348.38,97.65 C337.21,108.07 322.28,122.10 318.50,125.71" fill="none" stroke="rgb(0, 0, 255)" stroke-width="3.97" stroke-opacity="1.00" stroke-linejoin="round"/>
<path d="M360.22,67.42 C357.25,68.12 353.04,71.17 351.17,72.74 C348.04,75.37 335.12,87.90 330.47,92.96 C325.47,98.58 316.96,108.50 315.02,111.20" fill="none" stroke="rgb(0, 0, 255)" stroke-width="3.97" stroke-opacity="1.00" stroke-linejoin="round"/>
<path d="M443.36,4.34 C442.66,3.84 440.74,4.45 437.48,6.12 C432.56,8.67 423.49,14.86 414.94,21.08 C408.31,26.04 395.14,36.43 388.59,41.72 C379.23,49.51 378.23,50.40 375.96,52.49" fill="none" stroke="rgb(0, 0, 255)" stroke-width="3.97" stroke-opacity="1.00" stroke-linejoin="round"/>
<path d="M478.37,-36.46 C477.30,-36.69 473.27,-36.01 470.07,-34.36 C464.64,-31.51 455.71,-24.92 446.73,-17.22 C443.41,-14.33 437.27,-9.00 434.45,-6.57 C431.89,-4.36 429.54,-2.56 427.26,-1.03" fill="none" stroke="rgb(0, 0, 255)" stroke-width="3.97" stroke-opacity="1.00" stroke-linejoin="round"/>
<path d="M395.17,-36.35 C395.17,-36.35 394.97,-36.51 394.97,-36.51 C393.49,-36.43 390.25,-34.43 387.85,-32.62 C379.33,-26.11 371.25,-19.16 363.43,-11.87 C358.32,-6.97 351.13,0.01 349.04,2.09 C348.05,3.05 345.17,5.71 343.70,7.00 C342.00,8.48 339.18,10.92 338.06,11.88" fill="none" stroke="rgb(0, 0, 255)" stroke-width="3.97" stroke-opacity="1.00" stroke-linejoin="round"/>
<path d="M366.07,-36.74 C364.84,-37.13 362.59,-36.21 359.54,-34.39 C356.44,-32.52 343.11,-22.35 336.50,-16.68 C330.19,-11.06 322.07,-3.82 319.49,-1.63" fill="none" stroke="rgb(0, 0, 255)" stroke-width="3.97" stroke-opacity="1.00" stroke-linejoin="round"/>
<path d="M325.04,-36.91 C325.04,-36.91 325.26,-38.88 325.26,-38.88 C323.57,-38.99 311.35,-29.07 304.67,-22.85 C287.48,-6.21 279.63,1.82 277.81,3.40" fill="none" stroke="rgb(0, 0, 255)" stroke-width="3.97" stroke-opacity="1.00" stroke-linejoin="round"/>
<path d="M273.67,-21.46 C270.88,-21.48 268.86,-21.09 266.54,-20.00 C262.13,-17.92 252.07,-11.01 245.14,-5.01 C239.60,-0.20 231.42,8.06 228.76,10.76 C227.81,11.73 225.80,13.78 224.73,14.85" fill="none" stroke="rgb(0, 0, 255)" stroke-width="3.97" stroke-opacity="1.00" stroke-linejoin="round"/>
<path d="M263.55,-30.78 C262.95,-31.73 258.98,-31.88 256.28,-30.57 C250.82,-27.80 239.41,-17.67 234.09,-12.71 C227.94,-6.72 221.66,-0.12 219.10,2.63 C217.88,3.99 215.80,6.55 215.19,7.58 C214.69,8.43 211.66,16.25 210.53,19.20" fill="none" stroke="rgb(0, 0, 255)" stroke-width="3.97" stroke-opacity="1.00" stroke-linejoin="round"/>
<path d="M194.10,99.08 C192.76,99.35 188.99,102.08 186.27,104.42 C181.56,108.51 173.53,118.03 170.40,123.01 C166.27,129.62 163.04,136.32 162.38,137.78" fill="none" stroke="rgb(0, 0, 255)" stroke-width="3.97" stroke-opacity="1.00" stroke-linejoin="round"/>
<path d="M213.71,64.64 C212.03,65.81 211.02,66.56 209.52,67.82 C204.03,72.48 195.15,80.53 188.38,87.92 C180.31,97.05 176.06,102.73 175.22,104.28 C175.05,104.61 174.69,105.35 174.14,106.51" fill="none" stroke="rgb(0, 0, 255)" stroke-width="3.97" stroke-opacity="1.00" stroke-linejoin="round"/>
<path d="M254.12,105.95 C252.31,105.43 249.49,106.33 247.04,108.16 C242.62,111.50 230.92,123.29 226.22,128.22 C215.73,139.46 202.50,155.28 201.46,156.76" fill="none" stroke="rgb(0, 0, 255)" stroke-width="3.97" stroke-opacity="1.00" stroke-linejoin="round"/>
<path d="M273.89,111.01 C273.89,111.01 273.57,112.05 273.57,112.05" fill="none" stroke="rgb(0, 0, 255)" stroke-width="3.97" stroke-opacity="1.00" stroke-linejoin="round"/>
<path d="M275.82,119.14 C274.67,119.05 272.85,118.90 272.21,119.06 C269.24,119.86 263.71,124.26 262.50,125.52 C260.39,127.73 255.41,134.05 253.09,137.03 C250.75,140.08 248.56,143.30 248.01,144.21" fill="none" stroke="rgb(0, 0, 255)" stroke-width="3.97" stroke-opacity="1.00" stroke-linejoin="round"/>
<path d="M87.72,-6.40 C87.72,-6.40 87.45,-6.86 87.45,-6.86 C86.24,-7.33 82.97,-5.09 78.80,-1.83 C71.91,3.65 66.02,9.52 60.10,16.98 C56.37,21.74 55.35,23.77 54.48,26.06" fill="none" stroke="rgb(0, 0, 255)" stroke-width="3.97" stroke-opacity="1.00" stroke-linejoin="round"/>
<path d="M94.71,5.76 C93.00,5.84 88.52,8.65 84.53,11.97 C79.70,16.04 68.80,27.09 64.26,32.71 C60.86,36.97 60.25,37.78 59.12,39.37" fill="none" stroke="rgb(0, 0, 255)" stroke-width="3.97" stroke-opacity="1.00" stroke-linejoin="round"/>
<path d="M99.20,12.24 C99.20,12.24 98.04,12.26 98.04,12.26 C96.43,13.94 92.55,18.40 90.22,21.09 C88.09,23.62 83.37,29.29 81.73,31.49 C79.68,34.26 76.56,39.02 75.91,40.02" fill="none" stroke="rgb(0, 0, 255)" stroke-width="3.97" stroke-opacity="1.00" stroke-linejoin="round"/>
<path d="M133.81,-12.25 C133.81,-12.25 132.61,-12.39 132.61,-12.39 C130.08,-10.29 125.40,-5.74 122.56,-2.99 C117.29,1.94 109.02,9.67 106.02,12.47" fill="none" stroke="rgb(0, 0, 255)" stroke-width="3.97" stroke-opacity="1.00" stroke-linejoin="round"/>
<path d="M111.70,-22.93 C110.02,-22.11 108.41,-21.22 107.16,-20.31 C104.32,-18.24 98.91,-13.24 97.16,-11.50 C94.57,-8.85 89.35,-3.40 86.73,-0.61 C83.03,3.35 82.26,4.14 80.44,5.91" fill="none" stroke="rgb(0, 0, 255)" stroke-width="3.97" stroke-opacity="1.00" stroke-linejoin="round"/>
<path d="M67.15,-15.15 C65.47,-15.15 64.45,-14.90 63.47,-13.95 C59.93,-10.52 51.29,-0.12 45.88,7.50 C41.31,14.08 35.69,23.46 34.67,25.82" fill="none" stroke="rgb(0, 0, 255)" stroke-width="3.97" stroke-opacity="1.00" stroke-linejoin="round"/>
<path d="M120.34,-40.15 C119.60,-40.18 118.34,-39.85 116.56,-39.11 C112.03,-37.21 100.44,-30.08 94.50,-24.81 C91.49,-22.12 88.92,-19.34 86.52,-16.40" fill="none" stroke="rgb(0, 0, 255)" stroke-width="3.97" stroke-opacity="1.00" stroke-linejoin="round"/>
<path d="M126.36,-36.46 C124.49,-36.12 120.35,-33.77 118.04,-32.21 C108.46,-25.49 92.81,-10.56 92.53,-10.30 C91.56,-9.43 88.19,-6.60 87.82,-6.27 C85.61,-4.23 83.36,-1.43 82.59,-0.47" fill="none" stroke="rgb(0, 0, 255)" stroke-width="3.97" stroke-opacity="1.00" stroke-linejoin="round"/>
<path d="M243.43,193.64 C243.43,193.64 243.01,191.40 243.01,191.40 C241.80,191.67 240.74,192.22 239.09,193.64 C235.73,196.55 221.34,210.34 218.42,213.54 C208.72,224.34 199.03,237.43 195.37,243.42" fill="none" stroke="rgb(0, 0, 255)" stroke-width="3.97" stroke-opacity="1.00" stroke-linejoin="round"/>
<path d="M263.83,184.09 C261.62,184.63 251.79,194.38 246.17,199.98 C234.40,212.15 210.79,238.02 203.23,247.14 C198.40,253.24 188.74,265.64 183.92,271.95 C177.52,280.49 173.12,286.83 171.47,289.23 C170.62,290.48 169.75,291.68 169.13,292.53" fill="none" stroke="rgb(0, 0, 255)" stroke-width="3.97" stroke-opacity="1.00" stroke-linejoin="round"/>
</g>
</svg>
