<?xml version="1.0" encoding="UTF-8" standalone="no"?>
<!DOCTYPE svg PUBLIC "-//W3C//DTD SVG 1.1//EN" "http://www.w3.org/Graphics/SVG/1.1/DTD/svg11.dtd">
<svg width="64.20" height="90.84" viewBox="0.00 0.00 535.00 757.00" xmlns="http://www.w3.org/2000/svg" xmlns:xlink="http://www.w3.org/1999/xlink">
<g stroke-linecap="round" transform="translate(44.00, 155.00)" id="223-물웅덩이">
<path d="M41.88,419.35 C41.72,419.35 41.57,419.35 41.41,419.35 C41.40,419.35 41.38,419.35 41.39,419.35 C41.05,418.99 37.17,418.61 34.74,418.42 C33.23,418.20 27.26,415.62 25.05,415.24 C22.23,414.78 19.18,415.43 18.29,416.01 C15.69,417.73 12.34,420.76 10.76,422.37 C8.67,424.56 5.65,429.66 4.93,432.47 C4.15,436.05 4.78,442.59 4.64,443.22 C4.18,445.05 3.08,446.96 1.64,447.94 C-0.09,449.07 -15.06,455.82 -16.07,456.95 C-17.15,458.29 -18.31,462.27 -18.50,466.89 C-18.70,472.31 -18.12,477.38 -17.11,481.23 C-16.72,482.63 -15.87,484.36 -15.28,484.89 C-14.01,485.94 -6.59,486.53 -4.46,487.02 C-3.37,487.28 2.77,490.10 6.50,491.32 C9.40,492.25 11.83,492.82 12.99,492.81 C13.29,492.80 13.63,492.72 14.02,492.57" fill="none" stroke="rgb(0, 255, 199)" stroke-width="2.60" stroke-opacity="1.00" stroke-linejoin="round"/>
<path d="M21.91,456.57 C21.91,456.57 21.79,456.27 21.79,456.27 C20.70,455.87 17.17,455.80 16.14,456.26 C14.81,456.89 12.17,459.55 10.68,462.51 C9.20,465.51 7.69,472.71 7.53,476.18 C7.41,479.51 8.88,485.69 10.25,488.33 C11.47,490.65 15.95,496.27 16.24,496.72 C18.07,499.54 20.45,505.30 20.72,507.07 C21.16,510.41 18.24,518.71 15.26,524.86 C13.90,527.66 11.17,533.37 10.64,535.07 C9.99,537.22 9.57,541.24 10.02,543.20 C10.28,544.24 10.82,545.55 11.42,546.51 C11.98,547.39 12.55,548.28 13.11,549.16 C13.50,549.77 13.88,550.38 14.27,550.99" fill="none" stroke="rgb(0, 255, 199)" stroke-width="2.60" stroke-opacity="1.00" stroke-linejoin="round"/>
<path d="M14.76,551.98 C15.46,552.45 16.58,553.61 17.00,554.04 C17.60,554.66 21.24,558.30 21.58,558.60 C23.11,559.96 29.01,561.28 29.06,561.39 C29.40,566.02 30.58,571.51 31.32,572.82 C32.16,574.21 34.50,576.11 36.28,576.85 C39.58,578.18 47.81,578.73 54.21,577.98 C57.54,577.58 62.70,576.69 64.52,576.10 C66.28,575.50 73.49,571.81 74.53,571.21 C77.32,569.57 79.52,566.45 79.86,564.44 C80.18,562.33 80.47,556.01 80.96,554.85 C81.56,553.54 83.77,551.25 85.39,550.68 C89.38,549.36 104.45,548.57 111.54,547.60 C115.59,547.02 116.55,546.56 122.12,542.99 C125.40,540.81 129.12,536.90 130.61,533.82 C132.29,530.24 134.50,520.26 135.04,519.63 C136.08,518.53 139.13,517.52 141.67,517.34 C141.80,517.33 148.30,516.94 150.61,516.34 C153.34,515.61 157.22,514.00 158.50,512.74 C159.67,511.56 162.83,507.14 164.01,505.04 C165.39,502.56 167.11,496.53 167.57,492.83 C167.99,489.12 167.43,484.17 166.22,481.74 C165.23,479.82 159.80,473.79 159.27,473.17 C157.28,470.75 155.89,466.88 156.04,463.87 C156.10,462.94 157.11,452.95 157.01,450.70 C156.82,447.25 154.88,442.42 152.79,439.85 C150.33,436.90 146.38,433.06 144.63,432.07 C142.58,430.97 138.15,429.97 135.46,429.87 C132.95,429.80 129.24,430.17 126.17,431.60 C124.97,432.16 122.76,433.18 121.75,433.65" fill="none" stroke="rgb(0, 255, 199)" stroke-width="2.60" stroke-opacity="1.00" stroke-linejoin="round"/>
<path d="M121.01,484.18 C121.01,484.18 121.14,484.18 121.14,484.18 C121.14,484.18 121.51,483.69 121.51,483.69" fill="none" stroke="rgb(0, 255, 199)" stroke-width="2.60" stroke-opacity="1.00" stroke-linejoin="round"/>
<path d="M121.26,483.45 C121.26,483.45 121.26,483.20 121.26,483.20 C120.59,483.21 120.09,483.26 119.60,483.43 C118.30,483.94 114.16,488.13 112.70,490.56 C111.57,492.50 110.33,495.62 109.42,498.35 C108.46,501.37 107.56,506.64 107.78,509.94 C107.90,511.39 108.50,513.68 109.02,514.55 C109.94,516.04 113.11,517.41 114.48,517.47 C115.83,517.49 118.96,516.54 120.57,515.42 C122.30,514.18 125.68,510.15 126.77,508.10 C127.80,506.10 129.12,501.44 129.48,497.85 C129.81,494.21 129.27,489.72 127.88,487.52 C126.42,485.28 123.61,483.15 122.35,482.66 C121.72,482.43 117.50,481.94 116.34,481.80 C116.09,481.77 115.84,481.75 115.59,481.72" fill="none" stroke="rgb(0, 255, 199)" stroke-width="2.60" stroke-opacity="1.00" stroke-linejoin="round"/>
<path d="M123.72,492.81 C123.40,492.77 122.66,491.95 122.35,491.64 C121.22,490.55 115.29,490.21 113.52,490.61 C111.70,491.05 108.51,494.24 106.34,497.46 C104.11,500.83 102.01,505.95 101.97,508.79 C101.98,511.98 104.16,517.84 106.03,519.64 C107.56,521.05 111.60,521.71 113.94,520.88 C116.60,519.85 121.30,515.20 122.90,511.77 C124.20,508.84 125.15,502.82 124.58,499.98 C124.05,497.54 122.06,493.83 121.74,493.43 C121.33,492.93 119.37,491.12 118.79,490.59" fill="none" stroke="rgb(0, 255, 199)" stroke-width="2.60" stroke-opacity="1.00" stroke-linejoin="round"/>
<path d="M116.33,497.00 C116.33,497.00 116.08,496.51 116.08,496.51 C116.09,497.01 115.12,504.87 115.68,506.44 C115.75,506.62 115.88,506.77 116.09,506.89 C116.85,507.05 118.52,506.09 119.17,505.11 C119.91,503.94 120.59,499.72 120.06,497.23 C119.82,496.16 119.22,495.04 118.60,494.44 C118.47,494.32 118.04,493.94 117.32,493.31" fill="none" stroke="rgb(0, 255, 199)" stroke-width="2.60" stroke-opacity="1.00" stroke-linejoin="round"/>
</g>
</svg>
