<?xml version="1.0" encoding="UTF-8" standalone="no"?>
<!DOCTYPE svg PUBLIC "-//W3C//DTD SVG 1.1//EN" "http://www.w3.org/Graphics/SVG/1.1/DTD/svg11.dtd">
<svg width="64.20" height="90.84" viewBox="0.00 0.00 535.00 757.00" xmlns="http://www.w3.org/2000/svg" xmlns:xlink="http://www.w3.org/1999/xlink">
<g stroke-linecap="round" transform="translate(44.00, 155.00)" id="225-우산">
<path d="M372.69,-17.88" fill="none" stroke="rgb(229, 76, 202)" stroke-width="2.82" stroke-opacity="1.00" stroke-linejoin="round"/>
<path d="M213.03,5.96 C213.03,5.96 212.29,5.91 212.29,5.91 C211.67,5.31 210.82,3.13 210.81,0.99 C210.83,-2.28 211.19,-4.16 211.68,-5.69 C212.74,-5.81 213.48,-5.70 214.00,-5.20 C215.05,-4.17 216.22,-0.99 216.38,1.03 C216.51,3.26 215.52,6.26 214.89,7.36 C213.77,7.18 213.21,6.87 212.84,5.82 C211.49,1.99 210.98,-1.24 210.99,-1.90 C210.99,-1.90 213.21,4.44 213.21,4.44 C213.21,4.44 213.56,-0.49 213.56,-0.49 C213.56,-0.49 214.32,2.71 214.32,2.71 C214.32,2.71 214.17,-2.27 214.17,-2.27 C214.31,-0.87 214.44,0.06 214.55,0.55 C214.72,1.26 215.77,3.82 216.08,4.57" fill="none" stroke="rgb(229, 76, 202)" stroke-width="2.82" stroke-opacity="1.00" stroke-linejoin="round"/>
<path d="M206.65,6.51 C206.65,6.51 207.62,6.23 207.62,6.23 C207.62,6.23 208.04,6.46 208.04,6.46 C208.04,6.46 208.31,6.23 208.31,6.23" fill="none" stroke="rgb(229, 76, 202)" stroke-width="2.82" stroke-opacity="1.00" stroke-linejoin="round"/>
<path d="M214.14,6.51 C212.48,6.53 211.16,6.72 208.54,7.52 C205.07,8.63 192.90,14.35 185.54,19.30 C180.57,22.68 170.98,28.39 166.92,31.82 C160.33,37.42 155.10,40.94 145.78,46.77 C139.86,50.58 117.99,72.66 113.77,78.14 C110.07,82.96 99.17,96.94 97.21,100.13 C97.09,100.32 86.72,119.72 83.81,124.31 C79.30,131.54 75.28,139.39 73.09,146.15 C72.54,147.85 69.88,156.85 69.69,157.33 C67.34,162.24 62.72,173.28 62.64,173.29 C62.64,173.29 63.07,173.38 63.07,173.38" fill="none" stroke="rgb(229, 76, 202)" stroke-width="2.82" stroke-opacity="1.00" stroke-linejoin="round"/>
<path d="M60.85,175.32 C60.85,175.32 60.85,174.77 60.85,174.77 C60.71,174.63 61.32,172.23 66.02,170.43 C70.62,168.69 79.66,168.01 89.39,168.44 C96.41,168.67 109.45,167.72 113.00,167.97 C114.25,168.06 134.76,171.22 136.35,171.72 C136.62,171.81 136.99,171.96 137.46,172.16 C137.46,172.16 137.63,172.55 137.63,172.55" fill="none" stroke="rgb(229, 76, 202)" stroke-width="2.82" stroke-opacity="1.00" stroke-linejoin="round"/>
<path d="M216.91,7.62 C216.91,7.62 216.91,7.34 216.91,7.34 C215.80,10.07 208.41,24.30 207.05,26.84 C205.19,30.27 194.08,47.39 192.04,51.33 C184.38,67.25 172.03,87.30 169.82,93.20 C164.92,106.89 155.55,128.02 152.40,138.24 C152.40,138.24 152.32,135.68 152.32,135.68" fill="none" stroke="rgb(229, 76, 202)" stroke-width="2.82" stroke-opacity="1.00" stroke-linejoin="round"/>
<path d="M157.87,117.11 C157.87,117.11 157.09,117.11 157.09,117.11 C156.69,117.33 155.14,121.26 154.04,124.03 C150.14,133.56 140.37,157.09 139.22,165.06 C139.10,165.96 138.74,169.67 138.62,170.39 C138.53,170.94 138.29,172.12 137.91,173.94" fill="none" stroke="rgb(229, 76, 202)" stroke-width="2.82" stroke-opacity="1.00" stroke-linejoin="round"/>
<path d="M139.85,157.30 C139.85,157.30 139.71,157.30 139.71,157.30 C139.53,158.06 139.64,165.01 139.71,168.70 C139.96,179.38 140.20,180.56 140.40,181.14 C140.40,181.14 139.95,179.77 139.95,179.77" fill="none" stroke="rgb(229, 76, 202)" stroke-width="2.82" stroke-opacity="1.00" stroke-linejoin="round"/>
<path d="M140.40,173.66 C140.40,173.66 140.65,173.38 140.65,173.38 C148.81,172.51 155.32,171.02 159.71,168.82 C163.51,166.94 165.81,165.94 168.07,165.55 C174.69,164.47 199.87,164.38 203.40,163.42 C205.46,162.85 210.61,160.92 212.56,160.40 C215.94,159.53 235.42,159.24 236.12,159.24 C236.37,159.24 236.62,159.24 236.87,159.24" fill="none" stroke="rgb(229, 76, 202)" stroke-width="2.82" stroke-opacity="1.00" stroke-linejoin="round"/>
<path d="M216.91,7.62 C216.91,7.62 217.00,7.20 217.00,7.20 C217.00,7.20 217.18,7.07 217.18,7.07 C217.25,27.53 223.16,67.65 224.10,79.35 C225.30,90.12 227.18,108.04 230.65,121.13 C231.18,123.64 234.29,143.14 234.93,146.23 C236.05,151.58 237.90,157.06 238.18,157.91 C238.18,157.91 238.81,157.03 238.81,157.03" fill="none" stroke="rgb(229, 76, 202)" stroke-width="2.82" stroke-opacity="1.00" stroke-linejoin="round"/>
<path d="M215.70,5.94 C215.84,6.10 216.01,6.30 216.21,6.54 C216.71,7.16 217.21,7.77 217.71,8.38" fill="none" stroke="rgb(229, 76, 202)" stroke-width="2.82" stroke-opacity="1.00" stroke-linejoin="round"/>
<path d="M218.04,8.69 C218.39,9.10 218.66,9.43 218.84,9.66 C219.66,10.72 220.75,12.33 221.81,14.03 C223.62,16.95 226.88,20.33 233.16,28.86 C238.84,36.67 246.80,44.89 251.51,49.22 C252.68,50.30 263.42,60.35 265.98,63.74 C282.14,85.50 291.34,96.27 298.59,104.59 C303.06,110.27 313.36,122.80 315.23,125.58 C317.56,129.03 320.27,132.37 321.54,133.65 C321.83,133.93 322.09,134.13 322.32,134.25" fill="none" stroke="rgb(229, 76, 202)" stroke-width="2.82" stroke-opacity="1.00" stroke-linejoin="round"/>
<path d="M239.71,161.12 C239.71,161.12 239.11,160.10 239.11,160.10 C239.22,160.04 244.19,157.41 245.19,156.98 C247.65,155.91 256.86,152.63 256.94,152.60 C258.37,152.02 264.01,149.01 269.09,146.47 C273.10,144.53 277.87,142.83 281.87,142.43 C287.10,142.03 296.17,139.17 301.18,137.46 C307.18,135.67 314.03,135.13 319.18,134.00 C319.18,134.00 319.54,134.24 319.54,134.24" fill="none" stroke="rgb(229, 76, 202)" stroke-width="2.82" stroke-opacity="1.00" stroke-linejoin="round"/>
<path d="M218.19,3.49 C219.57,3.90 221.83,4.55 223.41,4.99 C227.21,6.10 234.64,8.93 236.67,10.04 C236.90,10.17 250.30,20.48 253.12,22.39 C253.49,22.64 254.01,22.96 254.68,23.36" fill="none" stroke="rgb(229, 76, 202)" stroke-width="2.82" stroke-opacity="1.00" stroke-linejoin="round"/>
<path d="M228.22,5.65 C230.05,6.47 234.75,8.54 236.31,9.41 C248.31,16.38 255.30,21.22 259.95,24.82 C259.95,24.82 259.22,24.61 259.22,24.61" fill="none" stroke="rgb(229, 76, 202)" stroke-width="2.82" stroke-opacity="1.00" stroke-linejoin="round"/>
<path d="M218.54,2.72 C218.54,2.72 218.16,2.86 218.16,2.86 C219.57,2.67 228.48,4.64 229.57,4.94 C232.84,5.83 247.73,12.65 250.03,14.03 C262.88,21.68 271.85,25.77 277.87,27.59 C277.87,27.59 277.93,27.09 277.93,27.09" fill="none" stroke="rgb(229, 76, 202)" stroke-width="2.82" stroke-opacity="1.00" stroke-linejoin="round"/>
<path d="M260.99,15.81 C260.99,15.81 260.62,15.95 260.62,15.95 C260.61,15.94 260.62,15.97 260.63,15.98 C264.45,18.45 271.24,22.81 277.19,25.11 C281.21,26.56 295.54,33.38 299.20,34.58 C304.56,36.30 313.86,41.41 317.29,43.64 C334.85,55.08 346.25,63.38 347.31,64.20 C348.23,64.91 352.72,69.79 355.99,72.57 C368.86,83.52 376.17,92.72 377.34,94.06 C377.34,94.06 375.47,91.89 375.47,91.89" fill="none" stroke="rgb(229, 76, 202)" stroke-width="2.82" stroke-opacity="1.00" stroke-linejoin="round"/>
<path d="M321.20,134.68 C321.16,134.25 321.51,133.14 322.99,131.84 C323.51,131.39 327.14,126.64 328.52,125.35 C329.42,124.52 335.03,120.88 336.49,119.68 C336.71,119.50 349.68,109.20 353.96,106.18 C363.54,98.91 374.52,96.08 376.46,96.12 C376.31,95.92 376.20,95.77 376.12,95.68 C376.04,95.60 375.89,95.45 375.68,95.23" fill="none" stroke="rgb(229, 76, 202)" stroke-width="2.82" stroke-opacity="1.00" stroke-linejoin="round"/>
<path d="M380.83,159.40" fill="none" stroke="rgb(229, 76, 202)" stroke-width="2.82" stroke-opacity="1.00" stroke-linejoin="round"/>
<path d="M380.83,159.40 C380.83,159.40 384.61,156.03 384.61,156.03 C384.61,156.03 384.11,156.07 384.11,156.07" fill="none" stroke="rgb(229, 76, 202)" stroke-width="2.82" stroke-opacity="1.00" stroke-linejoin="round"/>
<path d="M218.99,157.32 C218.99,157.32 218.64,157.16 218.64,157.16 C218.63,157.15 221.33,171.39 222.51,177.04 C223.50,182.90 224.51,196.16 224.72,205.57 C224.92,215.29 228.12,241.56 228.71,258.61 C228.73,259.17 229.89,280.33 230.26,288.11 C230.47,294.12 229.98,302.71 230.26,312.37 C230.79,329.04 232.49,340.57 232.86,343.77 C232.99,342.69 233.13,341.61 233.27,340.53 C233.37,339.67 233.47,338.81 233.57,337.95" fill="none" stroke="rgb(229, 76, 202)" stroke-width="2.82" stroke-opacity="1.00" stroke-linejoin="round"/>
<path d="M227.35,158.27 C227.35,158.27 226.89,157.86 226.89,157.86 C226.71,167.98 229.43,190.52 230.13,211.48 C230.36,242.20 234.59,301.52 236.55,319.99 C237.22,325.82 239.98,341.85 240.22,344.85 C240.22,344.85 241.21,342.43 241.21,342.43" fill="none" stroke="rgb(229, 76, 202)" stroke-width="2.82" stroke-opacity="1.00" stroke-linejoin="round"/>
<path d="M218.03,163.32 C218.03,163.32 217.90,162.20 217.90,162.20 C218.17,163.71 220.28,205.18 221.18,213.09 C221.53,216.61 222.79,235.27 223.25,242.28 C223.83,249.24 226.06,258.91 227.02,261.97 C227.46,263.29 227.82,264.01 228.68,265.52" fill="none" stroke="rgb(229, 76, 202)" stroke-width="2.82" stroke-opacity="1.00" stroke-linejoin="round"/>
<path d="M230.67,379.91 C230.81,380.60 230.96,382.01 231.19,385.00 C231.76,392.78 233.09,404.67 234.34,408.94 C235.35,412.30 237.06,416.52 238.18,417.98 C239.24,419.31 242.10,420.64 243.73,420.67 C245.70,420.64 249.22,418.35 250.70,416.29 C252.62,413.51 258.49,395.87 259.21,393.19 C260.08,389.91 260.23,383.17 260.04,381.91 C259.85,380.75 258.77,377.44 258.15,376.06 C257.48,374.66 256.06,373.03 254.89,372.34 C253.72,371.69 251.40,371.21 250.48,371.38 C249.44,371.62 248.96,374.28 249.31,376.97 C249.65,379.51 251.35,385.60 251.64,387.80 C251.87,389.71 251.60,395.16 250.33,398.01 C249.10,400.68 244.79,404.15 243.70,404.22 C242.56,404.23 240.07,398.21 239.29,394.77 C238.50,391.14 237.62,379.65 237.62,379.50 C237.63,379.22 237.70,378.64 237.84,377.76" fill="none" stroke="rgb(229, 76, 202)" stroke-width="2.82" stroke-opacity="1.00" stroke-linejoin="round"/>
</g>
</svg>
