<?xml version="1.0" encoding="UTF-8" standalone="no"?>
<!DOCTYPE svg PUBLIC "-//W3C//DTD SVG 1.1//EN" "http://www.w3.org/Graphics/SVG/1.1/DTD/svg11.dtd">
<svg width="64.20" height="90.84" viewBox="0.00 0.00 535.00 757.00" xmlns="http://www.w3.org/2000/svg" xmlns:xlink="http://www.w3.org/1999/xlink">
<g stroke-linecap="round" transform="translate(44.00, 155.00)" id="226-구름">
<path d="M190.43,-41.75 C190.43,-41.75 190.08,-42.11 190.08,-42.11 C190.36,-42.37 187.96,-47.16 186.88,-47.34 C181.57,-48.01 161.68,-45.06 151.78,-43.18 C148.84,-42.60 141.56,-39.86 140.40,-39.49 C137.55,-38.61 123.02,-37.55 115.09,-35.75 C105.93,-33.62 84.68,-29.57 77.17,-27.34 C73.32,-26.17 54.76,-17.03 53.96,-16.66 C48.09,-13.89 33.23,-5.40 27.37,-0.63 C25.09,1.25 19.90,6.56 19.34,7.25 C17.74,9.25 16.70,11.58 16.58,13.60 C16.54,14.48 16.57,20.69 16.60,21.30 C17.09,21.74 20.77,21.12 23.27,20.60 C26.98,19.86 30.24,19.84 33.32,20.43 C37.88,21.33 48.84,25.83 49.05,25.89 C52.60,26.85 68.94,26.42 71.02,25.82 C79.73,23.27 83.72,22.69 91.10,22.57 C95.91,22.43 112.78,19.77 116.20,19.82 C118.57,19.88 125.58,20.60 126.44,20.63 C130.00,20.74 143.96,17.22 151.20,15.36 C160.92,12.77 169.09,9.44 176.78,7.53 C180.52,6.61 185.45,5.08 188.25,3.72 C190.39,2.66 204.75,-7.26 209.72,-10.80 C215.74,-15.19 223.57,-22.39 224.20,-23.75 C225.54,-26.80 226.19,-32.83 225.34,-36.00 C224.91,-37.46 221.99,-39.79 219.22,-40.60 C216.55,-41.35 207.43,-42.08 204.15,-41.87 C199.84,-41.55 188.48,-38.56 185.63,-37.80 C185.63,-37.80 184.05,-35.73 184.05,-35.73" fill="none" stroke="rgb(229, 76, 202)" stroke-width="2.84" stroke-opacity="1.00" stroke-linejoin="round"/>
<path d="M137.10,-40.69 C137.10,-40.69 136.99,-41.04 136.99,-41.04 C136.49,-41.09 114.29,-32.52 106.03,-28.15 C105.02,-27.63 88.04,-19.53 82.19,-16.70 C77.13,-14.30 61.59,-8.25 59.44,-7.29 C46.76,-1.23 21.92,8.41 16.66,10.04 C12.61,11.38 10.70,12.57 10.25,12.97 C15.31,12.51 28.18,9.17 33.96,8.80 C38.28,8.52 57.28,3.61 60.34,2.54 C61.78,2.03 81.07,-5.68 85.99,-7.28 C90.14,-8.62 105.93,-12.96 109.71,-13.66 C105.72,-11.42 92.58,-5.58 85.38,-2.43 C83.11,-1.42 63.22,9.91 62.13,10.49 C76.01,5.69 109.14,-5.06 119.10,-7.73 C126.85,-9.78 142.54,-14.00 144.56,-14.38" fill="none" stroke="rgb(229, 76, 202)" stroke-width="2.84" stroke-opacity="1.00" stroke-linejoin="round"/>
<path d="M93.72,12.65 C93.72,12.65 93.72,13.00 93.72,13.00 C96.38,12.27 111.18,4.80 114.93,2.65 C118.21,0.76 130.67,-7.12 137.06,-10.05 C144.13,-13.21 155.50,-18.96 157.44,-19.83 C162.63,-22.16 175.87,-24.67 176.99,-24.13 C177.31,-22.81 174.71,-18.15 172.21,-15.93 C167.86,-12.15 155.07,-5.46 149.91,-1.86 C147.53,-0.18 145.37,2.04 145.28,3.07 C145.87,3.76 148.88,3.88 152.00,3.29 C157.28,2.25 186.05,-8.63 188.79,-9.23 C188.79,-9.23 186.88,-7.98 186.88,-7.98" fill="none" stroke="rgb(229, 76, 202)" stroke-width="2.84" stroke-opacity="1.00" stroke-linejoin="round"/>
<path d="M113.63,11.58 C113.39,11.17 116.76,9.07 121.71,6.38 C123.74,5.29 137.51,-2.29 142.29,-4.57 C152.60,-8.97 166.78,-15.28 168.45,-15.75 C168.45,-15.75 162.70,-12.24 162.70,-12.24" fill="none" stroke="rgb(229, 76, 202)" stroke-width="2.84" stroke-opacity="1.00" stroke-linejoin="round"/>
<path d="M124.65,10.16 C125.07,9.37 128.60,7.82 130.55,6.91 C135.18,4.78 142.19,2.45 144.36,1.73 C144.36,1.73 142.72,1.63 142.72,1.63" fill="none" stroke="rgb(229, 76, 202)" stroke-width="2.84" stroke-opacity="1.00" stroke-linejoin="round"/>
<path d="M89.81,-19.00 C89.81,-19.00 94.43,-21.49 94.43,-21.49" fill="none" stroke="rgb(229, 76, 202)" stroke-width="2.84" stroke-opacity="1.00" stroke-linejoin="round"/>
<path d="M96.21,-22.55 C96.21,-22.55 96.92,-23.09 96.92,-23.09 C96.10,-23.22 91.42,-18.83 90.63,-18.10 C88.30,-15.96 80.37,-10.01 80.22,-9.86 C79.88,-9.48 79.22,-8.59 78.23,-7.19 C79.39,-6.48 83.37,-7.43 85.48,-8.03 C89.58,-9.21 136.57,-26.00 143.08,-27.76 C149.80,-29.55 162.51,-33.00 171.19,-36.07 C171.19,-36.07 171.94,-35.00 171.94,-35.00" fill="none" stroke="rgb(229, 76, 202)" stroke-width="2.84" stroke-opacity="1.00" stroke-linejoin="round"/>
<path d="M149.90,-19.00 C149.90,-19.00 149.90,-19.71 149.90,-19.71 C151.45,-20.88 169.49,-27.89 171.12,-28.54 C174.67,-29.94 188.79,-37.77 192.94,-39.05 C198.11,-40.61 212.16,-41.29 214.89,-41.02 C216.16,-40.87 220.21,-39.46 222.63,-37.71 C222.63,-37.71 221.89,-36.91 221.89,-36.91" fill="none" stroke="rgb(229, 76, 202)" stroke-width="2.84" stroke-opacity="1.00" stroke-linejoin="round"/>
<path d="M296.03,-30.38 C296.03,-30.38 296.39,-30.85 296.39,-30.85 C296.34,-31.07 286.85,-36.03 276.74,-39.61 C271.10,-41.60 266.64,-42.60 264.19,-42.47 C261.50,-42.27 246.23,-40.52 235.32,-39.96 C230.56,-39.73 219.00,-38.70 212.98,-37.39 C210.30,-36.79 206.00,-35.21 204.94,-33.93 C204.61,-33.52 204.57,-33.10 204.63,-32.51 C205.47,-31.57 209.07,-30.83 213.41,-30.94 C216.18,-31.03 235.71,-32.88 239.20,-33.06 C250.85,-33.56 261.88,-33.00 263.72,-31.52 C262.07,-30.22 248.96,-28.43 242.35,-27.57 C231.41,-26.14 209.01,-22.37 204.04,-21.64 C209.79,-24.05 221.88,-27.47 226.61,-28.29 C231.43,-29.11 249.25,-30.29 253.30,-31.01 C253.62,-32.41 253.46,-33.24 252.49,-33.80 C250.66,-34.82 244.98,-35.61 242.00,-35.59 C235.58,-35.51 224.63,-33.76 216.37,-31.77 C209.35,-29.97 195.43,-26.26 189.73,-24.54 C186.55,-23.56 183.05,-21.55 181.92,-19.48 C181.47,-18.57 181.26,-17.05 181.51,-16.21 C181.83,-15.29 183.24,-13.61 184.41,-12.82 C186.84,-11.23 191.87,-10.11 196.71,-9.38 C202.52,-8.57 211.23,-9.04 221.71,-10.56 C234.32,-12.52 241.22,-13.41 244.25,-13.54 C226.45,-10.34 210.13,-6.46 207.90,-4.61 C206.93,-3.79 206.16,-2.61 205.98,-1.90 C207.45,-1.25 213.50,-2.26 214.96,-2.54 C223.00,-4.21 241.21,-8.15 245.18,-9.27 C256.68,-12.55 262.73,-14.40 272.12,-18.64 C278.91,-21.74 291.57,-27.54 292.64,-28.94 C292.72,-29.04 292.73,-29.22 292.78,-29.39 C292.78,-29.39 289.99,-29.31 289.99,-29.31" fill="none" stroke="rgb(229, 76, 202)" stroke-width="2.84" stroke-opacity="1.00" stroke-linejoin="round"/>
<path d="M229.90,-22.91 C229.90,-22.91 229.54,-22.91 229.54,-22.91 C236.13,-22.92 248.06,-22.96 252.87,-23.63 C255.00,-23.93 260.62,-25.19 261.97,-25.62 C265.65,-26.83 265.68,-29.66 265.58,-29.77 C265.58,-29.77 262.84,-22.51 262.84,-22.51 C262.84,-22.51 262.69,-22.73 262.69,-22.73" fill="none" stroke="rgb(229, 76, 202)" stroke-width="2.84" stroke-opacity="1.00" stroke-linejoin="round"/>
<path d="M263.32,-33.22 C263.25,-33.97 263.57,-35.24 264.21,-35.71 C265.85,-36.90 276.10,-38.70 279.35,-38.35 C279.35,-38.35 279.24,-37.12 279.24,-37.12" fill="none" stroke="rgb(229, 76, 202)" stroke-width="2.84" stroke-opacity="1.00" stroke-linejoin="round"/>
<path d="M278.28,-37.59 C278.28,-37.59 279.30,-39.30 279.30,-39.30 C280.75,-39.52 298.23,-42.00 299.88,-42.44 C299.94,-42.45 307.37,-44.36 311.88,-44.67 C319.11,-45.12 330.42,-45.75 338.91,-45.00 C347.01,-44.23 359.36,-43.13 367.90,-43.07 C381.05,-43.18 418.36,-44.11 423.99,-43.59 C435.45,-42.27 457.19,-40.45 458.50,-40.33 C458.50,-40.33 453.30,-39.54 453.30,-39.54" fill="none" stroke="rgb(229, 76, 202)" stroke-width="2.84" stroke-opacity="1.00" stroke-linejoin="round"/>
<path d="M452.13,-37.98 C452.13,-37.98 450.58,-38.37 450.58,-38.37 C452.89,-37.30 454.17,-36.87 455.63,-36.85 C458.49,-36.80 466.58,-36.43 467.11,-36.43 C469.72,-36.40 470.74,-36.16 472.36,-35.07 C476.52,-32.25 479.14,-30.05 480.17,-28.24 C481.32,-26.07 481.78,-21.43 480.55,-19.61 C479.33,-17.90 474.21,-16.02 471.34,-15.45 C468.65,-14.96 461.83,-13.69 460.18,-13.16 C457.54,-12.28 449.89,-8.08 446.50,-6.20 C441.60,-3.64 428.70,-0.44 422.19,0.74 C414.85,2.00 406.75,2.49 395.27,2.85 C383.47,3.19 376.82,3.19 368.60,2.22 C358.72,0.92 330.32,-1.20 312.23,-3.26 C296.50,-5.09 276.36,-4.64 274.39,-4.90 C271.33,-5.32 264.57,-7.04 262.95,-7.68 C259.35,-9.16 257.98,-11.39 257.97,-12.69 C257.97,-12.69 259.55,-14.95 259.55,-14.95" fill="none" stroke="rgb(229, 76, 202)" stroke-width="2.84" stroke-opacity="1.00" stroke-linejoin="round"/>
<path d="M270.50,-26.70 C270.50,-26.70 270.66,-27.29 270.66,-27.29 C272.61,-28.80 317.43,-39.82 318.57,-40.06 C319.52,-40.25 339.41,-43.23 341.60,-42.78 C342.47,-42.60 349.19,-40.74 352.23,-40.71 C352.68,-39.55 352.70,-37.08 352.32,-35.31 C351.97,-34.02 347.53,-30.94 343.79,-29.53 C339.80,-28.05 319.51,-21.99 311.39,-19.64 C303.81,-17.51 289.68,-15.46 284.78,-15.45 C282.45,-15.46 276.70,-16.27 275.67,-16.66 C275.40,-16.76 274.97,-17.00 274.39,-17.37" fill="none" stroke="rgb(229, 76, 202)" stroke-width="2.84" stroke-opacity="1.00" stroke-linejoin="round"/>
<path d="M306.29,-30.21 C304.63,-28.45 303.35,-26.51 302.58,-24.43 C302.07,-23.06 302.01,-21.86 302.21,-20.81 C303.09,-19.97 306.23,-19.43 309.49,-19.37 C313.37,-19.33 330.39,-22.05 337.17,-23.11 C339.25,-23.40 409.63,-27.36 414.00,-26.90 C414.23,-26.87 414.61,-26.82 415.15,-26.73" fill="none" stroke="rgb(229, 76, 202)" stroke-width="2.84" stroke-opacity="1.00" stroke-linejoin="round"/>
<path d="M349.46,-6.48 C349.46,-6.48 349.46,-7.26 349.46,-7.26 C351.83,-7.93 357.24,-9.43 360.48,-10.13 C366.97,-11.48 379.51,-14.36 384.99,-16.24 C392.01,-18.65 404.65,-25.21 407.66,-26.05 C412.51,-27.36 418.14,-27.44 431.87,-27.32 C442.80,-27.31 455.66,-28.12 458.16,-27.54 C457.14,-26.56 453.57,-24.99 450.59,-24.19 C446.73,-23.18 427.46,-22.32 424.29,-22.00 C417.16,-21.24 395.18,-16.06 395.00,-16.00 C394.67,-15.90 392.03,-14.35 390.43,-13.42" fill="none" stroke="rgb(229, 76, 202)" stroke-width="2.84" stroke-opacity="1.00" stroke-linejoin="round"/>
<path d="M370.07,0.91 C370.26,0.01 372.01,-1.09 375.13,-1.83 C387.68,-4.73 452.38,-10.55 452.50,-10.86 C452.50,-10.86 443.97,-14.26 443.97,-14.26" fill="none" stroke="rgb(229, 76, 202)" stroke-width="2.84" stroke-opacity="1.00" stroke-linejoin="round"/>
<path d="M393.02,-31.76 C393.61,-32.50 395.06,-33.08 397.28,-33.37 C397.31,-33.37 415.04,-35.08 420.18,-35.65 C420.18,-35.65 419.85,-35.26 419.85,-35.26" fill="none" stroke="rgb(229, 76, 202)" stroke-width="2.84" stroke-opacity="1.00" stroke-linejoin="round"/>
<path d="M405.85,-40.71 C405.70,-40.85 408.07,-41.07 410.00,-41.02 C410.79,-41.00 418.66,-39.83 422.27,-39.68 C428.88,-39.41 440.18,-39.78 443.54,-39.92 C443.54,-39.92 416.16,-33.86 416.16,-33.86 C415.94,-32.53 416.20,-31.72 417.32,-31.31 C421.34,-29.87 435.28,-30.98 443.83,-32.15 C449.48,-32.85 457.86,-32.93 459.35,-32.93 C459.96,-32.82 439.96,-27.01 439.77,-26.91 C439.02,-26.48 435.59,-23.55 434.35,-22.51" fill="none" stroke="rgb(229, 76, 202)" stroke-width="2.84" stroke-opacity="1.00" stroke-linejoin="round"/>
</g>
</svg>
