<?xml version="1.0" encoding="UTF-8" standalone="no"?>
<!DOCTYPE svg PUBLIC "-//W3C//DTD SVG 1.1//EN" "http://www.w3.org/Graphics/SVG/1.1/DTD/svg11.dtd">
<svg width="64.20" height="90.84" viewBox="0.00 0.00 535.00 757.00" xmlns="http://www.w3.org/2000/svg" xmlns:xlink="http://www.w3.org/1999/xlink">
<g stroke-linecap="round" transform="translate(44.00, 155.00)" id="227-번개-_6">
<path d="M450.45,8.26 C450.45,8.26 450.41,7.81 450.41,7.81 C450.41,7.81 442.48,22.22 442.48,22.22 C443.51,22.20 453.48,20.83 460.63,20.93 C461.00,20.92 461.28,20.90 461.47,20.86 C461.47,20.86 453.15,46.56 453.15,46.56 C453.29,46.61 463.44,39.32 467.84,37.56 C468.83,37.17 470.15,36.68 470.13,36.69 C468.06,42.35 463.70,54.46 462.32,59.72 C461.54,62.73 461.01,66.68 461.10,69.59 C460.64,69.17 455.01,59.14 454.99,59.09 C454.98,59.06 454.94,58.92 454.87,58.68" fill="none" stroke="rgb(195, 76, 229)" stroke-width="3.21" stroke-opacity="1.00" stroke-linejoin="round"/>
</g>
</svg>
