<?xml version="1.0" encoding="UTF-8" standalone="no"?>
<!DOCTYPE svg PUBLIC "-//W3C//DTD SVG 1.1//EN" "http://www.w3.org/Graphics/SVG/1.1/DTD/svg11.dtd">
<svg width="64.20" height="90.84" viewBox="0.00 0.00 535.00 757.00" xmlns="http://www.w3.org/2000/svg" xmlns:xlink="http://www.w3.org/1999/xlink">
<g stroke-linecap="round" transform="translate(44.00, 155.00)" id="227-집">
<path d="M-14.37,-9.07 C-14.37,-9.07 -14.46,-9.51 -14.46,-9.51 C-14.56,-9.28 -15.66,-7.13 -16.14,-6.28 C-17.91,-3.13 -20.61,0.41 -20.66,0.43 C-20.47,0.77 -19.53,1.02 -17.88,0.48 C-17.34,0.30 -10.04,-2.40 -7.83,-2.93 C13.03,-8.31 18.87,-9.48 24.24,-9.73 C21.85,-11.49 19.37,-13.67 18.29,-14.85 C17.61,-15.54 16.07,-15.62 13.70,-15.20 C3.17,-13.00 -11.66,-10.39 -14.29,-9.40 C-14.29,-9.40 -13.61,-9.07 -13.61,-9.07" fill="none" stroke="rgb(173, 229, 76)" stroke-width="3.21" stroke-opacity="1.00" stroke-linejoin="round"/>
<path d="M3.44,-12.80 C3.44,-12.80 3.16,-12.70 3.16,-12.70 C3.20,-12.62 3.52,-10.29 3.68,-9.35 C3.82,-8.51 4.25,-6.48 4.25,-6.25 C4.25,-6.25 3.83,-5.79 3.83,-5.79" fill="none" stroke="rgb(173, 229, 76)" stroke-width="3.21" stroke-opacity="1.00" stroke-linejoin="round"/>
<path d="M-14.60,-2.64 C-14.60,-2.64 -14.64,-2.86 -14.64,-2.86 C-14.50,-3.24 -11.45,-4.71 -8.49,-5.39 C-7.91,-5.52 -6.96,-5.68 -5.63,-5.87" fill="none" stroke="rgb(173, 229, 76)" stroke-width="3.21" stroke-opacity="1.00" stroke-linejoin="round"/>
<path d="M6.05,-8.92 C6.05,-8.92 5.99,-9.21 5.99,-9.21 C6.01,-9.52 7.98,-10.59 9.96,-11.27 C10.42,-11.43 10.88,-11.52 11.35,-11.55 C11.35,-11.55 11.59,-10.16 11.59,-10.16" fill="none" stroke="rgb(173, 229, 76)" stroke-width="3.21" stroke-opacity="1.00" stroke-linejoin="round"/>
<path d="M-19.71,1.43 C-19.39,2.98 -18.88,5.44 -18.51,6.99 C-16.56,15.28 -17.38,26.41 -17.63,27.63 C-14.94,27.00 -2.93,23.05 0.30,22.53 C0.59,22.49 15.80,19.70 20.86,18.48 C20.99,18.06 19.91,-4.18 19.54,-4.44 C19.47,-4.49 19.36,-4.58 19.21,-4.72" fill="none" stroke="rgb(173, 229, 76)" stroke-width="3.21" stroke-opacity="1.00" stroke-linejoin="round"/>
<path d="M7.87,-3.65 C7.87,-3.65 7.40,-3.71 7.40,-3.71 C8.47,0.75 8.97,5.95 9.08,6.46 C9.14,6.78 9.30,7.25 9.54,7.89" fill="none" stroke="rgb(173, 229, 76)" stroke-width="3.21" stroke-opacity="1.00" stroke-linejoin="round"/>
<path d="M9.60,8.02 C9.66,8.00 10.85,7.96 11.82,7.35 C12.43,6.97 16.47,3.58 18.70,2.24 C18.70,2.24 18.56,2.26 18.56,2.26" fill="none" stroke="rgb(173, 229, 76)" stroke-width="3.21" stroke-opacity="1.00" stroke-linejoin="round"/>
<path d="M-6.14,3.12 C-6.63,2.92 -7.19,2.81 -7.71,2.85 C-8.36,2.91 -11.88,4.82 -13.47,5.53 C-14.52,6.01 -14.01,9.41 -12.55,11.19 C-12.55,11.19 -12.68,11.74 -12.68,11.74" fill="none" stroke="rgb(173, 229, 76)" stroke-width="3.21" stroke-opacity="1.00" stroke-linejoin="round"/>
<path d="M-16.67,10.48 C-16.24,10.07 -13.79,9.43 -9.37,9.38 C-7.60,9.35 -4.55,8.68 -3.77,8.40 C-3.77,8.40 -5.42,-0.12 -5.42,-0.12 C-5.42,-0.12 -5.20,0.19 -5.20,0.19" fill="none" stroke="rgb(173, 229, 76)" stroke-width="3.21" stroke-opacity="1.00" stroke-linejoin="round"/>
<path d="M-2.06,11.27 C-2.06,11.27 -2.48,11.47 -2.48,11.47 C-2.48,11.47 -0.42,23.98 -0.42,23.98 C-0.42,23.98 -0.66,21.62 -0.66,21.62" fill="none" stroke="rgb(173, 229, 76)" stroke-width="3.21" stroke-opacity="1.00" stroke-linejoin="round"/>
<path d="M-3.23,10.75 C-3.23,10.75 -4.15,9.96 -4.15,9.96 C-4.15,9.96 -4.17,9.87 -4.17,9.87 C-4.17,9.87 5.76,10.00 5.76,10.00 C5.95,10.23 6.42,21.06 6.60,21.82 C6.65,22.03 6.79,22.47 7.01,23.14" fill="none" stroke="rgb(173, 229, 76)" stroke-width="3.21" stroke-opacity="1.00" stroke-linejoin="round"/>
</g>
</svg>
