<?xml version="1.0" encoding="UTF-8" standalone="no"?>
<!DOCTYPE svg PUBLIC "-//W3C//DTD SVG 1.1//EN" "http://www.w3.org/Graphics/SVG/1.1/DTD/svg11.dtd">
<svg width="64.20" height="90.84" viewBox="0.00 0.00 535.00 757.00" xmlns="http://www.w3.org/2000/svg" xmlns:xlink="http://www.w3.org/1999/xlink">
<g stroke-linecap="round" transform="translate(44.00, 155.00)" id="227-물웅덩이-3">
<path d="M7.12,217.76 C7.12,217.76 7.12,217.54 7.12,217.54 C6.84,217.58 6.61,217.66 6.43,217.77 C3.16,219.89 -6.00,233.43 -6.43,235.11 C-6.58,235.84 -6.39,236.91 -5.98,237.35 C-4.37,238.89 1.80,238.06 2.59,237.92 C1.49,238.93 -2.71,241.95 -5.33,244.08 C-10.16,248.04 -13.61,254.26 -14.27,256.06 C-14.42,256.49 -15.23,258.94 -15.46,259.64" fill="none" stroke="rgb(57, 118, 151)" stroke-width="3.21" stroke-opacity="1.00" stroke-linejoin="round"/>
<path d="M-15.46,260.95 C-15.48,262.00 -15.50,262.66 -15.51,262.92 C-15.53,263.19 -15.56,263.43 -15.60,263.65" fill="none" stroke="rgb(57, 118, 151)" stroke-width="3.21" stroke-opacity="1.00" stroke-linejoin="round"/>
<path d="M-15.68,263.80 C-15.70,264.35 -15.70,264.73 -15.68,264.95 C-15.51,266.21 -13.92,269.29 -12.86,270.17 C-11.54,271.21 -6.59,272.27 -6.20,272.37 C-4.79,272.75 -2.28,273.75 -1.12,274.33 C-0.68,275.07 -1.36,278.13 -2.32,280.35 C-3.66,283.37 -6.97,288.37 -8.64,290.41 C-9.27,291.17 -14.66,297.25 -16.39,299.47 C-18.17,301.79 -21.04,306.91 -21.33,308.36 C-21.58,309.83 -20.88,312.38 -20.35,313.18 C-18.95,315.26 -16.87,316.33 -15.48,316.50 C-13.78,316.69 -9.75,315.76 -7.33,314.62 C-2.03,312.02 7.83,307.53 12.20,304.36 C18.71,299.57 26.29,295.63 26.34,295.54 C26.34,295.54 25.76,294.27 25.76,294.27" fill="none" stroke="rgb(57, 118, 151)" stroke-width="3.21" stroke-opacity="1.00" stroke-linejoin="round"/>
<path d="M27.29,301.73 C27.12,301.13 27.07,300.58 27.25,300.14 C27.76,299.02 31.56,295.32 33.12,293.62 C41.74,284.32 57.02,273.13 58.37,271.99 C59.74,270.80 61.42,267.91 61.54,266.49 C61.63,264.79 59.80,261.54 58.16,260.18 C55.42,257.96 42.43,254.26 40.96,253.43 C39.70,252.70 39.25,251.04 39.53,250.20 C40.60,247.07 48.18,234.28 51.67,226.26 C53.17,222.82 55.90,218.05 56.02,217.73 C56.34,216.86 56.16,215.18 55.77,214.55 C54.75,213.11 51.75,211.66 49.36,211.59 C45.82,211.51 25.29,216.52 23.20,216.92 C23.16,216.93 9.99,219.13 9.83,219.14 C9.83,219.14 9.54,218.20 9.54,218.20" fill="none" stroke="rgb(57, 118, 151)" stroke-width="3.21" stroke-opacity="1.00" stroke-linejoin="round"/>
</g>
</svg>
