<?xml version="1.0" encoding="UTF-8" standalone="no"?>
<!DOCTYPE svg PUBLIC "-//W3C//DTD SVG 1.1//EN" "http://www.w3.org/Graphics/SVG/1.1/DTD/svg11.dtd">
<svg width="64.20" height="90.84" viewBox="0.00 0.00 535.00 757.00" xmlns="http://www.w3.org/2000/svg" xmlns:xlink="http://www.w3.org/1999/xlink">
<g stroke-linecap="round" transform="translate(44.00, 155.00)" id="227-구름-1">
<path d="M250.09,-34.37 C249.74,-35.17 250.06,-36.66 250.85,-37.27 C253.26,-39.08 258.60,-41.49 261.50,-42.32 C263.28,-42.82 273.27,-44.47 283.81,-46.86 C289.95,-48.22 302.31,-49.45 306.64,-49.19 C309.16,-49.01 312.40,-48.06 314.20,-47.48 C317.46,-46.60 320.91,-46.75 322.58,-47.27 C324.46,-47.91 330.67,-52.88 330.86,-53.03 C331.80,-53.74 333.88,-53.77 335.60,-52.99 C336.75,-52.45 342.12,-49.19 343.10,-48.75 C346.45,-47.26 358.93,-46.12 363.79,-45.02 C364.12,-44.93 365.79,-44.39 365.92,-43.97 C365.97,-43.80 368.28,-36.32 368.76,-34.29 C370.34,-27.55 369.09,-11.93 369.03,-11.25 C367.91,-11.15 363.39,-11.72 361.85,-11.39 C360.25,-11.01 357.99,-8.27 356.31,-5.16 C354.60,-2.00 352.33,1.02 350.40,2.12 C347.77,3.57 328.84,10.06 328.14,10.28 C325.32,11.16 319.35,12.57 316.53,12.60 C313.11,12.61 307.13,10.94 304.52,10.18 C302.47,9.67 299.33,10.45 295.33,12.03 C292.47,13.09 286.22,14.38 284.13,14.56 C280.69,14.84 275.64,14.10 273.74,13.22 C273.24,12.97 267.74,9.80 265.50,8.94 C264.40,8.51 260.56,7.45 259.35,7.04 C258.15,6.63 257.15,4.10 257.24,2.63 C257.27,2.21 257.55,0.13 257.63,-0.48" fill="none" stroke="rgb(229, 76, 202)" stroke-width="3.21" stroke-opacity="1.00" stroke-linejoin="round"/>
</g>
</svg>
