<?xml version="1.0" encoding="UTF-8" standalone="no"?>
<!DOCTYPE svg PUBLIC "-//W3C//DTD SVG 1.1//EN" "http://www.w3.org/Graphics/SVG/1.1/DTD/svg11.dtd">
<svg width="64.20" height="90.84" viewBox="0.00 0.00 535.00 757.00" xmlns="http://www.w3.org/2000/svg" xmlns:xlink="http://www.w3.org/1999/xlink">
<g stroke-linecap="round" transform="translate(44.00, 155.00)" id="227-사람">
<path d="M143.30,112.91 C143.30,112.91 143.05,112.89 143.05,112.89 C143.01,112.71 142.40,106.38 141.96,103.34 C141.88,102.79 140.88,93.65 140.52,90.19 C140.21,86.68 141.17,81.20 142.30,78.87 C146.38,70.77 158.23,54.62 158.89,54.20 C159.32,53.97 163.23,55.79 164.84,56.89 C166.49,58.06 168.10,59.86 170.77,63.79 C172.29,66.02 177.28,70.67 178.95,72.43 C180.12,73.67 182.00,76.57 182.61,78.12 C183.98,81.68 184.79,86.82 184.91,89.36 C185.00,91.78 184.89,95.37 184.56,96.67 C184.00,98.65 177.28,105.93 176.26,106.71 C176.26,106.71 174.94,106.52 174.94,106.52" fill="none" stroke="rgb(255, 165, 0)" stroke-width="3.21" stroke-opacity="1.00" stroke-linejoin="round"/>
<path d="M155.25,119.15 C155.05,118.95 154.99,114.72 154.86,113.77 C154.70,112.75 153.82,107.68 152.75,106.39 C151.81,105.30 147.95,102.68 147.33,102.13 C146.02,100.91 144.64,97.66 144.45,95.37 C144.14,91.07 146.18,83.50 148.42,78.62 C149.42,76.45 151.06,73.90 153.47,71.06 C156.04,68.07 159.71,65.15 161.67,64.10 C162.38,63.73 164.59,63.31 166.02,63.49 C167.78,63.74 171.33,65.47 172.79,66.65 C174.54,68.10 176.97,71.60 177.90,73.58 C179.58,77.26 180.78,86.62 180.62,91.16 C180.44,95.74 178.52,101.57 176.49,103.35 C176.18,103.61 175.39,104.22 175.21,104.25 C174.58,104.36 173.94,104.48 173.31,104.59" fill="none" stroke="rgb(255, 165, 0)" stroke-width="3.21" stroke-opacity="1.00" stroke-linejoin="round"/>
<path d="M159.49,108.30 C159.20,108.32 158.93,108.20 158.53,107.87 C158.25,107.65 155.89,106.03 154.52,103.99 C153.56,102.53 151.63,97.27 151.22,95.90 C150.47,93.29 150.04,88.29 150.36,86.21 C150.74,84.12 152.81,78.32 153.86,76.44 C155.56,73.45 159.10,68.74 160.56,67.97 C161.48,67.53 165.47,67.40 167.11,68.02 C169.34,68.90 174.20,72.90 176.13,75.70 C177.68,78.04 178.77,86.91 178.59,92.48 C178.49,94.95 177.83,98.76 176.77,100.36 C176.31,101.02 174.91,102.27 174.45,102.45 C174.16,102.55 172.21,102.18 171.67,102.06" fill="none" stroke="rgb(255, 165, 0)" stroke-width="3.21" stroke-opacity="1.00" stroke-linejoin="round"/>
<path d="M155.48,76.21 C155.48,76.21 155.41,75.69 155.41,75.69 C156.81,75.28 162.41,80.47 162.44,80.46 C162.44,80.46 159.65,73.23 159.65,73.23 C159.65,73.23 163.64,76.33 163.64,76.33 C163.64,76.33 159.89,72.24 159.89,72.24 C159.89,72.24 166.54,75.88 166.54,75.88 C166.54,75.88 162.04,70.02 162.04,70.02 C162.04,70.02 168.62,77.75 168.62,77.75 C168.62,77.75 164.54,69.22 164.54,69.22 C164.54,69.22 171.18,75.61 171.18,75.61 C171.18,75.61 170.51,74.15 170.51,74.15 C170.83,75.10 172.66,78.37 173.82,79.31 C174.00,79.45 174.37,79.70 174.94,80.08" fill="none" stroke="rgb(255, 165, 0)" stroke-width="3.21" stroke-opacity="1.00" stroke-linejoin="round"/>
<path d="M155.33,86.32 C155.05,86.12 155.00,85.71 155.26,85.44 C156.41,84.46 162.75,83.68 163.35,83.66 C163.35,83.66 161.61,85.67 161.61,85.67" fill="none" stroke="rgb(255, 165, 0)" stroke-width="3.21" stroke-opacity="1.00" stroke-linejoin="round"/>
<path d="M157.85,86.47 C157.85,86.47 157.41,86.47 157.41,86.47 C157.40,86.44 158.13,88.04 158.19,88.18 C158.85,89.70 159.44,91.74 160.10,94.62 C160.10,94.62 160.68,93.45 160.68,93.45" fill="none" stroke="rgb(255, 165, 0)" stroke-width="3.21" stroke-opacity="1.00" stroke-linejoin="round"/>
<path d="M163.20,84.39 C163.20,84.39 162.91,84.34 162.91,84.34 C163.11,83.89 164.17,83.45 165.80,83.39 C168.49,83.32 171.92,83.85 172.82,84.08 C172.45,84.72 171.76,85.26 170.75,85.64 C170.47,85.73 170.10,85.84 169.84,86.00 C169.69,86.47 170.61,94.02 170.55,94.82 C170.54,95.06 170.46,95.25 170.33,95.38" fill="none" stroke="rgb(255, 165, 0)" stroke-width="3.21" stroke-opacity="1.00" stroke-linejoin="round"/>
<path d="M160.97,95.68 C160.97,95.68 160.83,95.68 160.83,95.68 C162.49,95.68 166.07,95.68 167.98,95.68 C170.04,95.69 171.03,95.84 171.53,96.12 C171.58,96.80 169.05,97.83 165.26,98.62 C161.31,99.44 157.71,100.78 157.51,101.18 C157.82,101.78 161.20,101.81 163.19,101.70 C164.73,101.60 166.53,101.44 167.79,101.33 C167.79,101.33 167.51,101.62 167.51,101.62" fill="none" stroke="rgb(255, 165, 0)" stroke-width="3.21" stroke-opacity="1.00" stroke-linejoin="round"/>
<path d="M159.79,106.67 C159.79,106.67 159.53,107.08 159.53,107.08 C159.79,107.47 161.86,107.80 163.42,107.37 C164.74,106.99 169.47,104.58 169.45,104.58 C169.40,104.60 169.52,104.50 169.56,104.47" fill="none" stroke="rgb(255, 165, 0)" stroke-width="3.21" stroke-opacity="1.00" stroke-linejoin="round"/>
<path d="M160.38,110.24 C160.09,110.11 159.92,110.03 159.86,110.01 C159.80,109.99 159.78,109.99 159.79,110.02 C159.79,110.02 160.10,119.44 160.10,119.44 C160.10,119.44 159.93,118.41 159.93,118.41" fill="none" stroke="rgb(255, 165, 0)" stroke-width="3.21" stroke-opacity="1.00" stroke-linejoin="round"/>
<path d="M152.95,107.21 C153.07,107.05 153.14,106.95 153.16,106.91 C153.17,106.87 153.15,106.83 153.10,106.80 C150.91,108.73 138.48,116.39 136.83,117.68 C134.41,119.58 131.72,121.45 129.50,122.75 C126.30,124.65 124.55,126.85 123.46,129.20 C119.61,137.51 112.18,148.75 110.95,151.34 C109.27,154.89 106.18,159.68 106.06,159.88 C109.72,161.99 113.95,164.81 115.61,166.76 C117.42,168.93 119.18,172.80 120.31,176.58 C120.65,177.76 124.80,191.62 125.02,192.34 C125.02,192.34 125.53,192.56 125.53,192.56" fill="none" stroke="rgb(255, 165, 0)" stroke-width="3.21" stroke-opacity="1.00" stroke-linejoin="round"/>
<path d="M133.98,134.63 C133.98,134.63 133.98,134.43 133.98,134.43 C134.42,136.84 135.30,142.64 135.92,144.75 C137.08,148.75 137.26,151.67 137.12,156.50 C137.02,159.60 136.86,165.17 136.87,166.75 C136.87,166.75 136.87,164.73 136.87,164.73" fill="none" stroke="rgb(255, 165, 0)" stroke-width="3.21" stroke-opacity="1.00" stroke-linejoin="round"/>
<path d="M140.99,139.17 C140.74,139.17 140.37,139.18 140.27,139.28 C140.16,139.42 138.14,144.85 136.23,148.61 C133.12,154.65 129.97,157.47 124.91,161.64 C125.00,161.82 127.83,167.06 128.60,169.32 C129.63,172.34 132.67,181.27 132.83,181.71 C132.94,182.02 133.10,182.45 133.33,183.01" fill="none" stroke="rgb(255, 165, 0)" stroke-width="3.21" stroke-opacity="1.00" stroke-linejoin="round"/>
<path d="M137.49,177.92 C137.49,177.92 136.91,178.09 136.91,178.09 C136.05,179.26 133.09,185.55 132.60,186.36 C130.73,189.43 125.99,191.77 125.53,191.94 C125.53,191.94 128.20,208.31 128.20,208.31 C128.34,208.23 134.34,193.82 136.56,190.68 C138.01,188.66 139.76,186.75 139.72,186.28 C139.57,184.85 138.26,178.76 137.98,178.07 C137.93,178.28 137.73,179.10 137.63,179.42 C136.57,182.55 128.20,197.93 126.90,200.44 C126.90,200.44 126.77,200.19 126.77,200.19" fill="none" stroke="rgb(255, 165, 0)" stroke-width="3.21" stroke-opacity="1.00" stroke-linejoin="round"/>
<path d="M156.25,125.36 C156.25,126.11 156.25,128.92 156.07,132.12 C156.04,132.53 154.72,150.44 153.79,154.59 C152.60,159.45 150.69,175.46 150.43,179.55 C150.28,182.01 150.33,197.61 150.41,204.29 C150.77,216.31 149.13,242.24 148.22,246.91 C147.66,249.66 146.07,255.00 145.12,258.58 C144.52,260.84 141.63,268.27 141.41,268.97 C140.46,271.99 140.22,276.25 140.15,276.93 C140.15,276.93 140.58,276.67 140.58,276.67" fill="none" stroke="rgb(255, 165, 0)" stroke-width="3.21" stroke-opacity="1.00" stroke-linejoin="round"/>
<path d="M126.97,209.67 C126.97,209.67 126.87,209.67 126.87,209.67 C126.87,209.67 126.56,209.26 126.56,209.26 C124.77,214.04 121.30,225.18 119.08,232.18 C118.22,234.86 114.10,255.01 114.01,255.45 C113.12,260.01 106.13,279.91 105.74,281.41 C105.74,281.41 106.57,279.14 106.57,279.14" fill="none" stroke="rgb(255, 165, 0)" stroke-width="3.21" stroke-opacity="1.00" stroke-linejoin="round"/>
<path d="M105.74,283.68 C105.74,283.68 105.54,283.61 105.54,283.61 C107.96,282.54 110.02,282.06 113.29,282.05 C115.33,282.06 122.46,283.34 123.89,283.56 C125.24,283.76 130.71,284.13 133.37,283.21 C134.08,282.96 141.67,279.48 142.87,279.36 C143.17,279.34 158.32,279.71 158.92,279.80 C159.14,279.83 159.41,279.95 159.75,280.17" fill="none" stroke="rgb(255, 165, 0)" stroke-width="3.21" stroke-opacity="1.00" stroke-linejoin="round"/>
<path d="M150.48,199.98 C150.48,199.98 149.96,199.98 149.96,199.98 C149.96,199.98 154.63,199.17 154.63,199.17 C156.22,201.17 156.56,206.94 156.77,218.50 C156.77,225.68 155.82,235.60 155.09,242.76 C154.74,246.87 154.41,261.05 155.18,265.39 C156.18,270.82 159.40,280.45 161.91,283.28 C162.90,284.35 167.06,286.00 170.17,286.48 C173.66,286.98 178.23,286.94 181.53,286.69 C185.06,286.34 191.32,283.56 192.60,283.08 C194.66,282.29 197.15,279.92 197.30,279.21 C197.40,278.66 197.62,275.87 197.68,275.02" fill="none" stroke="rgb(255, 165, 0)" stroke-width="3.21" stroke-opacity="1.00" stroke-linejoin="round"/>
<path d="M178.92,129.27 C178.97,129.72 179.10,132.29 179.13,133.69 C178.98,146.42 178.92,162.28 178.92,167.01 C178.92,167.01 179.54,167.20 179.54,167.20" fill="none" stroke="rgb(255, 165, 0)" stroke-width="3.21" stroke-opacity="1.00" stroke-linejoin="round"/>
<path d="M188.00,160.40 C188.00,160.40 188.00,160.20 188.00,160.20 C187.54,162.15 185.97,169.12 185.68,170.72 C185.37,172.82 184.78,176.40 184.11,178.03 C184.11,178.03 184.49,175.66 184.49,175.66" fill="none" stroke="rgb(255, 165, 0)" stroke-width="3.21" stroke-opacity="1.00" stroke-linejoin="round"/>
<path d="M163.46,108.25 C163.33,108.25 163.19,108.25 163.05,108.25 C162.98,108.25 162.91,108.25 162.84,108.25 C165.01,110.83 171.12,111.97 181.73,114.83 C184.90,115.78 188.13,118.35 189.94,120.70 C194.50,126.69 200.93,136.01 202.24,139.47 C202.69,140.69 205.46,152.45 206.56,154.42 C206.61,154.50 206.67,154.57 206.75,154.63" fill="none" stroke="rgb(255, 165, 0)" stroke-width="3.21" stroke-opacity="1.00" stroke-linejoin="round"/>
<path d="M208.82,156.48 C208.82,156.48 207.99,156.28 207.99,156.28 C207.50,157.40 193.88,181.73 187.07,190.33 C186.92,190.53 186.82,190.62 186.79,190.60 C186.79,190.60 186.76,188.44 186.76,188.44" fill="none" stroke="rgb(255, 165, 0)" stroke-width="3.21" stroke-opacity="1.00" stroke-linejoin="round"/>
<path d="M180.37,169.68 C180.51,170.58 181.44,177.34 182.22,179.99 C182.31,180.32 186.89,193.38 187.97,195.75 C187.97,195.75 187.17,192.56 187.17,192.56" fill="none" stroke="rgb(255, 165, 0)" stroke-width="3.21" stroke-opacity="1.00" stroke-linejoin="round"/>
<path d="M180.37,175.04 C180.12,175.05 179.90,175.02 179.76,175.07 C178.25,175.63 175.73,176.77 174.90,177.42 C174.39,178.61 179.11,191.32 179.85,194.73 C180.37,197.21 180.75,199.72 180.89,200.50 C181.04,200.62 182.41,199.84 184.03,198.68 C184.37,198.44 186.12,197.00 186.68,196.62 C186.91,196.46 187.42,196.14 188.20,195.65" fill="none" stroke="rgb(255, 165, 0)" stroke-width="3.21" stroke-opacity="1.00" stroke-linejoin="round"/>
<path d="M186.76,194.42 C186.83,194.77 188.51,199.30 188.98,201.74 C189.63,205.24 190.87,210.56 191.01,212.83 C191.46,220.74 192.43,232.41 193.21,235.70 C194.09,239.27 197.04,245.05 197.98,246.80 C197.98,246.80 197.68,246.16 197.68,246.16" fill="none" stroke="rgb(255, 165, 0)" stroke-width="3.21" stroke-opacity="1.00" stroke-linejoin="round"/>
<path d="M195.21,239.56 C195.21,239.56 195.00,239.43 195.00,239.43 C194.98,239.99 194.98,240.46 195.00,240.85 C195.37,246.24 198.06,273.23 197.58,276.53 C197.13,275.62 196.82,274.99 196.67,274.66 C196.52,274.34 196.31,273.84 196.04,273.17" fill="none" stroke="rgb(255, 165, 0)" stroke-width="3.21" stroke-opacity="1.00" stroke-linejoin="round"/>
<path d="M173.98,249.05 C173.98,249.66 173.98,251.75 173.98,253.22 C173.98,256.84 173.96,263.77 173.84,263.85 C173.84,263.85 173.15,262.03 173.15,262.03" fill="none" stroke="rgb(255, 165, 0)" stroke-width="3.21" stroke-opacity="1.00" stroke-linejoin="round"/>
<path d="M170.68,207.61 C170.68,207.61 170.68,207.20 170.68,207.20 C170.68,207.20 167.41,215.89 167.41,215.89 C167.41,215.89 166.69,213.09 166.69,213.09" fill="none" stroke="rgb(255, 165, 0)" stroke-width="3.21" stroke-opacity="1.00" stroke-linejoin="round"/>
<path d="M139.96,202.66 C139.96,202.66 139.65,202.77 139.65,202.77 C139.32,203.63 139.08,205.36 139.00,206.03 C138.86,207.06 138.57,210.19 138.48,210.72 C138.46,210.87 138.38,211.06 138.24,211.27" fill="none" stroke="rgb(255, 165, 0)" stroke-width="3.21" stroke-opacity="1.00" stroke-linejoin="round"/>
<path d="M130.07,243.07 C130.07,243.07 129.76,243.07 129.76,243.07 C129.58,243.27 129.46,243.54 129.36,244.37 C128.84,249.01 127.86,253.26 127.18,255.42 C127.18,255.42 127.39,255.85 127.39,255.85" fill="none" stroke="rgb(255, 165, 0)" stroke-width="3.21" stroke-opacity="1.00" stroke-linejoin="round"/>
<path d="M127.80,267.19 C127.80,267.19 126.15,267.22 126.15,267.22 C126.15,267.22 126.28,273.72 126.28,273.72 C126.28,273.72 126.32,272.03 126.32,272.03" fill="none" stroke="rgb(255, 165, 0)" stroke-width="3.21" stroke-opacity="1.00" stroke-linejoin="round"/>
<path d="M163.46,159.16 C163.46,158.66 163.46,158.16 163.46,157.65 C163.46,156.81 163.56,156.40 163.82,155.93 C163.55,156.96 161.05,163.00 160.30,164.62 C159.89,165.53 159.33,166.65 159.23,166.83 C159.21,166.85 159.18,166.90 159.14,166.99" fill="none" stroke="rgb(255, 165, 0)" stroke-width="3.21" stroke-opacity="1.00" stroke-linejoin="round"/>
<path d="M153.98,180.40 C153.98,180.40 153.17,180.19 153.17,180.19 C153.17,180.19 152.46,184.46 152.46,184.46 C152.46,184.46 153.44,180.81 153.44,180.81 C153.44,180.81 152.33,180.81 152.33,180.81" fill="none" stroke="rgb(255, 165, 0)" stroke-width="3.21" stroke-opacity="1.00" stroke-linejoin="round"/>
<path d="M152.95,157.93 C152.95,157.93 151.92,157.93 151.92,157.93 C151.92,157.93 153.24,156.79 153.24,156.79 C153.24,156.79 152.25,159.98 152.25,159.98 C152.25,159.98 151.86,156.84 151.86,156.84" fill="none" stroke="rgb(255, 165, 0)" stroke-width="3.21" stroke-opacity="1.00" stroke-linejoin="round"/>
<path d="M156.45,132.16 C156.30,131.57 156.03,130.52 156.04,130.39 C156.09,129.93 156.72,129.65 157.02,129.59 C157.02,129.59 157.30,134.10 157.30,134.10 C157.30,134.10 155.84,133.60 155.84,133.60" fill="none" stroke="rgb(255, 165, 0)" stroke-width="3.21" stroke-opacity="1.00" stroke-linejoin="round"/>
<path d="M112.88,282.37 C112.88,282.37 113.15,280.48 113.15,280.48 C113.71,286.50 114.51,295.59 114.80,304.93 C115.14,317.06 115.08,325.80 113.97,332.97 C112.96,339.55 110.30,367.34 108.64,379.05 C108.64,379.05 109.10,374.39 109.10,374.39" fill="none" stroke="rgb(255, 165, 0)" stroke-width="3.21" stroke-opacity="1.00" stroke-linejoin="round"/>
<path d="M139.05,280.48 C139.05,280.48 138.78,280.48 138.78,280.48 C138.78,280.42 138.80,282.58 138.82,283.23 C139.19,290.44 137.77,306.52 136.78,328.18 C136.63,331.47 133.78,368.47 133.93,371.86 C134.02,373.49 135.16,375.65 136.31,376.23 C137.60,376.83 141.25,375.84 143.47,374.41 C146.92,372.23 148.43,371.80 149.90,372.70 C151.09,373.56 154.25,378.94 154.42,381.70 C154.47,382.83 154.32,385.13 154.13,387.09 C152.16,387.83 146.24,389.30 144.16,389.97 C139.52,391.47 134.43,392.07 129.62,392.20 C127.83,392.24 121.28,392.21 121.23,392.20 C121.07,392.18 120.72,392.09 120.16,391.93" fill="none" stroke="rgb(255, 165, 0)" stroke-width="3.21" stroke-opacity="1.00" stroke-linejoin="round"/>
<path d="M105.59,374.12 C105.59,374.12 105.19,373.85 105.19,373.85 C105.19,373.85 105.86,389.66 105.86,389.66 C105.86,389.66 120.51,388.88 120.51,388.88 C120.51,388.88 121.75,391.57 121.75,391.57" fill="none" stroke="rgb(255, 165, 0)" stroke-width="3.21" stroke-opacity="1.00" stroke-linejoin="round"/>
<path d="M106.40,392.20 C106.40,392.20 105.64,392.15 105.64,392.15 C105.39,392.50 104.98,393.85 104.71,395.41 C104.54,396.41 104.50,398.15 104.51,400.52 C104.51,400.52 119.67,398.06 119.67,398.06 C120.31,397.19 120.88,393.59 120.94,393.39 C120.96,393.30 121.06,393.00 121.24,392.47" fill="none" stroke="rgb(255, 165, 0)" stroke-width="3.21" stroke-opacity="1.00" stroke-linejoin="round"/>
<path d="M110.45,388.15 C110.45,388.15 110.45,387.88 110.45,387.88 C110.54,387.67 113.28,386.16 116.54,385.68 C118.29,385.44 123.83,386.34 126.05,386.52 C126.05,386.52 125.84,386.27 125.84,386.27" fill="none" stroke="rgb(255, 165, 0)" stroke-width="3.21" stroke-opacity="1.00" stroke-linejoin="round"/>
<path d="M109.37,375.47 C109.28,375.42 109.19,375.38 109.10,375.33 C109.01,375.29 108.92,375.24 108.83,375.20 C109.64,374.63 126.67,374.76 128.40,374.61 C130.72,374.41 134.14,374.32 134.38,374.24 C134.58,374.17 134.97,373.95 135.55,373.58" fill="none" stroke="rgb(255, 165, 0)" stroke-width="3.21" stroke-opacity="1.00" stroke-linejoin="round"/>
<path d="M165.23,285.33 C165.16,286.09 166.54,289.28 167.21,292.14 C168.11,295.96 168.50,304.08 168.42,313.82 C168.03,330.77 165.68,363.46 165.60,364.27 C165.69,363.05 165.91,359.94 166.06,358.05 C166.14,356.93 166.23,355.81 166.31,354.69" fill="none" stroke="rgb(255, 165, 0)" stroke-width="3.21" stroke-opacity="1.00" stroke-linejoin="round"/>
<path d="M194.38,282.64 C194.38,282.64 194.38,282.10 194.38,282.10 C193.58,284.46 190.62,300.66 190.29,303.63 C189.77,308.33 187.64,324.26 187.42,327.34 C187.00,333.52 187.48,340.96 188.74,349.14 C189.51,353.66 190.25,356.85 191.32,358.83 C192.31,360.62 193.32,361.52 193.49,361.53 C193.49,361.53 193.03,357.39 193.03,357.39" fill="none" stroke="rgb(255, 165, 0)" stroke-width="3.21" stroke-opacity="1.00" stroke-linejoin="round"/>
<path d="M163.88,362.52 C163.88,362.52 163.75,364.13 163.75,364.13 C163.75,364.13 163.61,364.13 163.61,364.13 C163.61,364.13 164.96,380.32 164.96,380.32 C164.96,380.32 182.76,379.16 182.76,379.16 C182.39,376.56 181.49,374.48 180.95,374.35 C177.89,373.76 166.96,375.67 165.71,375.72 C165.71,375.72 166.31,372.23 166.31,372.23" fill="none" stroke="rgb(255, 165, 0)" stroke-width="3.21" stroke-opacity="1.00" stroke-linejoin="round"/>
<path d="M166.31,361.98 C166.31,361.98 166.58,361.98 166.58,361.98 C166.64,362.03 167.48,362.12 169.40,362.27 C170.88,362.37 177.35,362.78 179.04,362.45 C181.70,361.89 189.55,358.95 190.25,358.65 C191.23,358.23 193.84,356.97 194.65,356.58" fill="none" stroke="rgb(255, 165, 0)" stroke-width="3.21" stroke-opacity="1.00" stroke-linejoin="round"/>
<path d="M194.65,356.58 C195.35,356.35 195.77,356.22 195.93,356.17 C196.04,356.14 196.31,356.09 196.73,356.00 C199.10,355.58 206.57,355.36 207.97,355.57 C209.56,355.83 215.52,359.11 216.26,359.93 C217.10,360.98 217.12,364.45 216.37,366.84 C215.67,368.99 212.75,372.92 209.77,374.84 C208.13,375.86 204.20,377.16 201.17,377.65 C198.32,378.09 183.50,378.05 181.37,378.26 C180.62,378.34 177.49,378.83 176.56,378.98" fill="none" stroke="rgb(255, 165, 0)" stroke-width="3.21" stroke-opacity="1.00" stroke-linejoin="round"/>
</g>
</svg>
