<?xml version="1.0" encoding="UTF-8" standalone="no"?>
<!DOCTYPE svg PUBLIC "-//W3C//DTD SVG 1.1//EN" "http://www.w3.org/Graphics/SVG/1.1/DTD/svg11.dtd">
<svg width="64.20" height="90.84" viewBox="0.00 0.00 535.00 757.00" xmlns="http://www.w3.org/2000/svg" xmlns:xlink="http://www.w3.org/1999/xlink">
<g stroke-linecap="round" transform="translate(44.00, 155.00)" id="227-번개-_1">
<path d="M235.35,3.25 C234.02,3.60 225.12,10.77 223.35,12.62 C223.02,12.98 221.28,14.90 220.66,15.59 C220.66,15.59 229.64,14.56 229.64,14.56 C229.64,14.56 215.79,30.75 215.79,30.75 C216.22,30.73 221.52,30.07 224.02,29.99 C225.40,29.96 227.87,30.67 228.80,31.36 C229.37,31.80 226.71,35.61 220.57,43.83 C219.04,45.86 216.78,48.84 216.46,49.01 C216.46,49.01 216.48,47.07 216.48,47.07" fill="none" stroke="rgb(195, 76, 229)" stroke-width="3.21" stroke-opacity="1.00" stroke-linejoin="round"/>
</g>
</svg>
