<?xml version="1.0" encoding="UTF-8" standalone="no"?>
<!DOCTYPE svg PUBLIC "-//W3C//DTD SVG 1.1//EN" "http://www.w3.org/Graphics/SVG/1.1/DTD/svg11.dtd">
<svg width="64.20" height="90.84" viewBox="0.00 0.00 535.00 757.00" xmlns="http://www.w3.org/2000/svg" xmlns:xlink="http://www.w3.org/1999/xlink">
<g stroke-linecap="round" transform="translate(44.00, 155.00)" id="227-번개-_2">
<path d="M232.55,4.47 C232.66,4.01 232.73,3.73 232.75,3.61 C232.77,3.49 232.78,3.38 232.77,3.27 C232.78,3.26 231.03,14.70 230.64,19.95 C230.47,22.20 229.23,36.26 229.74,38.89 C229.88,39.48 234.48,39.12 238.76,40.77 C241.58,41.86 249.62,43.86 250.84,44.22 C251.92,44.55 261.93,49.25 263.71,49.99 C264.68,51.41 258.59,67.41 258.30,69.04 C260.70,66.41 271.69,55.82 273.90,53.21 C274.73,52.20 276.40,50.13 276.34,50.09 C275.96,49.33 239.20,34.89 238.95,34.34 C237.82,30.71 243.63,4.90 244.08,3.36 C244.15,3.12 244.26,2.82 244.39,2.44" fill="none" stroke="rgb(195, 76, 229)" stroke-width="3.21" stroke-opacity="1.00" stroke-linejoin="round"/>
</g>
</svg>
