<?xml version="1.0" encoding="UTF-8" standalone="no"?>
<!DOCTYPE svg PUBLIC "-//W3C//DTD SVG 1.1//EN" "http://www.w3.org/Graphics/SVG/1.1/DTD/svg11.dtd">
<svg width="64.20" height="90.84" viewBox="0.00 0.00 535.00 757.00" xmlns="http://www.w3.org/2000/svg" xmlns:xlink="http://www.w3.org/1999/xlink">
<g stroke-linecap="round" transform="translate(44.00, 155.00)" id="227-물웅덩이-2">
<path d="M261.97,450.09 C261.97,450.09 262.05,449.35 262.05,449.35 C262.89,448.76 266.96,445.01 269.85,441.96 C272.17,439.63 276.50,436.52 277.00,435.61 C278.46,432.89 278.84,429.75 278.32,428.61 C277.83,427.60 271.10,419.90 267.63,413.92 C266.45,411.97 261.67,406.74 261.31,405.81 C260.64,403.97 261.31,399.46 262.46,396.10 C264.26,390.85 265.40,379.89 266.32,376.69 C266.74,375.14 266.68,373.04 266.14,371.31 C265.85,370.41 264.46,368.95 263.64,368.46 C263.13,368.17 257.16,365.52 256.30,364.20 C255.37,362.70 255.39,358.46 256.62,357.13 C257.67,356.05 262.02,353.94 263.92,353.49 C264.85,353.31 269.82,355.94 269.95,356.02 C270.64,355.08 273.60,349.70 275.45,347.78 C277.47,345.72 280.37,344.38 284.75,342.73 C289.05,341.10 292.13,339.75 296.17,337.76 C299.85,335.95 303.60,334.76 306.42,334.54 C307.28,334.48 314.57,334.70 318.22,334.80 C321.58,334.88 326.37,335.27 327.88,336.44 C328.52,336.96 329.76,339.15 330.07,339.71 C331.20,341.74 334.59,342.84 337.95,342.74 C341.26,342.59 361.66,338.65 364.75,338.45 C369.10,338.19 377.00,338.13 377.92,338.19 C380.03,338.35 383.12,341.17 383.46,342.64 C383.69,343.95 380.83,351.38 380.39,352.58 C380.20,353.10 379.15,356.92 379.13,357.49 C379.10,358.69 379.89,360.61 380.68,361.38 C381.96,362.56 387.91,365.62 387.91,365.62 C390.61,367.01 391.03,367.14 395.19,367.72 C395.48,367.76 403.33,369.46 403.63,369.53 C408.70,370.73 419.53,370.61 422.31,371.40 C423.48,373.49 425.83,377.69 426.23,380.43 C426.48,382.23 426.54,387.29 425.90,389.37 C425.10,391.88 417.67,402.28 411.49,411.48 C409.15,415.02 407.45,418.10 406.72,419.97 C405.82,422.30 404.36,427.91 404.09,429.91 C403.82,432.17 403.98,434.95 404.57,436.74 C407.18,444.53 409.71,454.68 410.44,455.51 C410.52,455.77 403.25,460.04 396.38,462.68 C392.38,464.23 382.09,469.81 375.12,472.50 C371.62,473.83 356.89,480.08 349.25,483.34 C342.09,486.28 330.74,489.40 323.69,489.91 C322.17,490.00 319.14,489.91 317.98,489.63 C315.83,489.07 310.61,482.36 308.98,481.20 C303.07,477.20 277.79,472.45 276.33,471.54 C275.67,470.37 276.31,466.92 277.48,463.54 C279.16,458.75 285.81,446.45 286.76,444.14 C287.65,441.90 288.25,439.32 288.15,437.76 C287.92,434.78 285.75,430.31 285.51,430.16 C285.23,429.99 284.36,429.56 282.89,428.86" fill="none" stroke="rgb(57, 118, 151)" stroke-width="3.21" stroke-opacity="1.00" stroke-linejoin="round"/>
</g>
</svg>
