<?xml version="1.0" encoding="UTF-8" standalone="no"?>
<!DOCTYPE svg PUBLIC "-//W3C//DTD SVG 1.1//EN" "http://www.w3.org/Graphics/SVG/1.1/DTD/svg11.dtd">
<svg width="64.20" height="90.84" viewBox="0.00 0.00 535.00 757.00" xmlns="http://www.w3.org/2000/svg" xmlns:xlink="http://www.w3.org/1999/xlink">
<g stroke-linecap="round" transform="translate(44.00, 155.00)" id="227-번개-_7">
<path d="M186.14,1.95 C185.89,1.71 185.38,1.58 184.69,1.65 C184.03,1.74 168.67,10.16 168.50,10.26 C168.50,10.26 180.57,17.28 180.57,17.28 C178.93,18.08 166.06,21.24 165.52,21.43 C165.19,21.56 163.67,24.04 162.45,26.67 C161.29,29.20 160.05,30.56 159.21,30.86 C156.52,31.78 152.45,33.48 150.67,34.58 C149.43,35.35 144.03,39.08 143.25,39.53 C143.25,39.53 143.15,39.77 143.15,39.77" fill="none" stroke="rgb(195, 76, 229)" stroke-width="3.21" stroke-opacity="1.00" stroke-linejoin="round"/>
</g>
</svg>
