<?xml version="1.0" encoding="UTF-8" standalone="no"?>
<!DOCTYPE svg PUBLIC "-//W3C//DTD SVG 1.1//EN" "http://www.w3.org/Graphics/SVG/1.1/DTD/svg11.dtd">
<svg width="64.20" height="90.84" viewBox="0.00 0.00 535.00 757.00" xmlns="http://www.w3.org/2000/svg" xmlns:xlink="http://www.w3.org/1999/xlink">
<g stroke-linecap="round" transform="translate(156.00, 267.00)" id="23-우산">
<path d="M78.85,320.38 C78.32,320.55 77.96,320.68 77.77,320.77 C76.73,321.31 71.80,327.15 71.35,328.71 C70.43,332.29 72.64,338.05 73.25,338.81 C73.25,338.81 74.25,338.92 74.25,338.92" fill="none" stroke="rgb(255, 242, 0)" stroke-width="2.94" stroke-opacity="1.00" stroke-linejoin="round"/>
<path d="M81.29,328.45 C81.09,328.41 80.04,328.66 79.61,329.17 C79.36,329.48 77.14,334.03 76.94,334.70 C76.65,335.83 77.28,337.87 79.47,341.94 C84.09,350.26 90.34,360.33 93.25,363.78 C97.49,368.65 103.21,375.30 104.70,377.08 C104.70,377.08 104.60,376.89 104.60,376.89" fill="none" stroke="rgb(255, 242, 0)" stroke-width="2.94" stroke-opacity="1.00" stroke-linejoin="round"/>
<path d="M84.67,380.97 C85.08,381.89 85.36,382.34 86.16,383.11 C92.33,389.08 134.67,425.56 154.15,442.22 C154.84,442.80 155.23,443.15 155.34,443.24 C155.54,443.44 156.02,443.89 156.76,444.62" fill="none" stroke="rgb(255, 242, 0)" stroke-width="2.94" stroke-opacity="1.00" stroke-linejoin="round"/>
<path d="M141.92,354.13 C142.24,355.31 142.92,359.91 143.20,362.59 C144.07,370.56 150.70,401.48 153.34,414.34 C153.35,414.41 158.78,444.56 158.91,445.74 C158.93,445.91 158.96,446.15 158.99,446.46" fill="none" stroke="rgb(255, 242, 0)" stroke-width="2.94" stroke-opacity="1.00" stroke-linejoin="round"/>
<path d="M86.57,381.61 C86.57,381.61 86.00,381.65 86.00,381.65 C85.29,380.59 86.46,375.70 87.30,375.56 C87.72,375.54 91.37,377.29 92.44,377.57 C93.54,377.85 95.44,376.27 96.32,375.52 C98.09,374.00 102.07,370.86 103.16,370.24 C103.16,370.24 103.06,369.95 103.06,369.95" fill="none" stroke="rgb(255, 242, 0)" stroke-width="2.94" stroke-opacity="1.00" stroke-linejoin="round"/>
<path d="M103.13,372.42 C103.13,372.42 102.59,372.32 102.59,372.32 C102.71,371.33 103.57,368.74 104.80,366.88 C106.31,364.64 108.22,362.41 109.16,361.80 C109.48,361.91 114.04,363.90 114.95,364.03 C115.85,364.12 116.78,363.66 118.55,361.57 C120.12,359.72 121.74,358.53 122.65,358.29 C123.62,358.08 129.59,358.89 130.26,358.77 C131.34,358.56 143.02,355.56 143.62,355.41 C143.88,355.34 144.36,355.19 145.05,354.98" fill="none" stroke="rgb(255, 242, 0)" stroke-width="2.94" stroke-opacity="1.00" stroke-linejoin="round"/>
<path d="M102.19,383.05 C102.21,383.07 102.53,383.81 104.66,385.52 C107.36,387.85 121.63,403.39 129.77,413.21 C129.88,413.35 129.99,413.49 130.07,413.62" fill="none" stroke="rgb(255, 242, 0)" stroke-width="2.94" stroke-opacity="1.00" stroke-linejoin="round"/>
<path d="M104.00,370.27 C104.00,370.27 103.88,370.40 103.88,370.40 C103.65,370.84 105.12,374.42 106.37,376.63 C109.56,382.28 115.45,392.73 118.61,396.89 C133.67,416.66 153.73,440.96 154.70,441.83 C154.75,441.88 154.86,441.96 155.04,442.07" fill="none" stroke="rgb(255, 242, 0)" stroke-width="2.94" stroke-opacity="1.00" stroke-linejoin="round"/>
<path d="M116.58,365.19 C116.74,366.80 116.87,367.92 116.98,368.53 C118.07,374.33 125.05,388.34 128.24,394.91 C129.74,397.78 139.09,414.70 140.63,417.26 C147.00,427.47 149.38,431.60 150.77,434.90 C150.86,435.10 150.96,435.38 151.09,435.73" fill="none" stroke="rgb(255, 242, 0)" stroke-width="2.94" stroke-opacity="1.00" stroke-linejoin="round"/>
<path d="M130.87,361.14 C130.87,361.14 130.74,360.78 130.74,360.78 C130.74,360.78 130.65,360.85 130.65,360.85 C130.64,364.15 130.07,376.90 130.10,377.02 C130.72,379.31 135.82,392.12 138.25,398.27 C141.89,407.98 153.02,432.49 155.36,439.13 C155.48,439.47 155.82,439.74 155.89,439.79" fill="none" stroke="rgb(255, 242, 0)" stroke-width="2.94" stroke-opacity="1.00" stroke-linejoin="round"/>
</g>
</svg>
