<?xml version="1.0" encoding="UTF-8" standalone="no"?>
<!DOCTYPE svg PUBLIC "-//W3C//DTD SVG 1.1//EN" "http://www.w3.org/Graphics/SVG/1.1/DTD/svg11.dtd">
<svg width="64.20" height="90.84" viewBox="0.00 0.00 535.00 757.00" xmlns="http://www.w3.org/2000/svg" xmlns:xlink="http://www.w3.org/1999/xlink">
<g stroke-linecap="round" transform="translate(154.00, 267.00)" id="24-사람">
<path d="M101.92,27.99 C101.48,28.06 100.92,28.19 100.58,28.35 C99.65,28.79 96.13,31.42 95.21,32.57 C94.53,33.49 92.49,38.65 92.12,40.75 C91.73,43.03 91.66,48.49 92.03,50.32 C92.36,51.81 93.79,54.11 96.86,56.42 C98.96,58.02 99.18,63.20 99.19,63.87 C99.19,63.87 99.65,64.38 99.65,64.38 C99.65,64.38 100.10,64.41 100.10,64.41" fill="none" stroke="rgb(33, 228, 63)" stroke-width="3.26" stroke-opacity="1.00" stroke-linejoin="round"/>
<path d="M99.92,29.44 C99.92,29.44 99.74,28.94 99.74,28.94 C99.79,28.80 104.04,25.89 110.00,28.87 C110.99,29.39 114.24,32.63 115.53,34.54 C117.10,36.91 118.89,41.45 119.07,44.30 C119.20,46.79 118.29,51.62 117.23,53.98 C116.39,55.62 115.00,58.52 115.15,60.63 C115.25,61.86 115.34,63.09 115.44,64.32 C115.48,64.84 115.50,65.47 115.50,66.22" fill="none" stroke="rgb(33, 228, 63)" stroke-width="3.26" stroke-opacity="1.00" stroke-linejoin="round"/>
<path d="M100.47,31.98 C100.47,31.98 100.28,31.62 100.28,31.62 C100.28,31.60 100.28,31.66 100.28,31.68 C100.33,32.85 100.42,35.16 100.47,36.32 C100.47,36.32 102.74,31.72 102.74,31.72 C102.75,31.72 103.92,32.07 105.68,31.88 C106.25,31.81 108.87,31.68 109.08,31.63 C109.23,31.59 109.58,31.47 110.13,31.26" fill="none" stroke="rgb(33, 228, 63)" stroke-width="3.26" stroke-opacity="1.00" stroke-linejoin="round"/>
<path d="M98.29,39.41 C98.45,40.28 98.85,44.60 98.85,45.16 C98.87,46.38 100.22,46.91 100.88,46.47 C102.00,45.63 100.88,43.24 100.23,42.42 C100.16,42.33 100.02,42.09 99.80,41.71" fill="none" stroke="rgb(33, 228, 63)" stroke-width="3.26" stroke-opacity="1.00" stroke-linejoin="round"/>
<path d="M109.34,39.04 C108.67,39.33 108.17,39.66 107.94,40.03 C106.98,41.63 109.09,44.40 109.59,44.85 C109.59,44.85 109.49,41.92 109.49,41.92 C109.49,41.92 108.73,41.62 108.73,41.62" fill="none" stroke="rgb(33, 228, 63)" stroke-width="3.26" stroke-opacity="1.00" stroke-linejoin="round"/>
<path d="M104.45,44.48 C104.45,44.45 104.45,44.54 104.45,44.57 C104.45,45.08 104.45,45.59 104.45,46.10 C104.45,46.35 104.45,46.59 104.45,46.83" fill="none" stroke="rgb(33, 228, 63)" stroke-width="3.26" stroke-opacity="1.00" stroke-linejoin="round"/>
<path d="M102.64,51.73 C102.64,51.73 102.64,51.63 102.64,51.63 C102.93,51.17 106.28,50.16 107.19,50.33 C107.42,50.39 107.67,50.76 108.27,51.80 C108.18,53.19 107.00,54.49 106.17,54.68 C104.51,54.98 103.03,53.94 102.81,53.41 C102.81,53.41 103.82,51.49 103.82,51.49" fill="none" stroke="rgb(33, 228, 63)" stroke-width="3.26" stroke-opacity="1.00" stroke-linejoin="round"/>
<path d="M99.20,62.59 C99.20,62.59 98.93,62.74 98.93,62.74 C98.74,63.82 98.63,70.32 98.63,70.46 C98.58,71.04 96.40,73.90 94.60,74.94 C94.00,75.29 86.16,79.12 85.69,79.39 C83.37,80.73 81.61,83.17 80.87,85.17 C79.54,88.89 77.75,98.22 76.63,102.59 C75.23,108.07 74.29,116.16 74.21,121.63 C74.04,127.16 73.73,139.09 73.59,145.48 C73.60,147.60 74.60,151.68 75.42,153.31 C76.13,154.68 77.49,156.12 78.28,156.18 C79.36,156.21 81.36,154.63 82.30,153.04 C82.95,151.93 83.36,148.31 83.14,147.51 C81.68,146.99 77.31,150.29 76.98,150.59 C76.98,150.59 76.55,149.73 76.55,149.73" fill="none" stroke="rgb(33, 228, 63)" stroke-width="3.26" stroke-opacity="1.00" stroke-linejoin="round"/>
<path d="M84.16,148.46 C83.13,147.82 84.30,138.23 86.21,126.76 C87.31,119.40 88.63,106.53 88.77,105.80 C89.10,104.22 89.67,102.82 90.38,102.55 C91.39,102.77 92.94,105.52 93.71,109.06 C95.61,118.09 93.96,164.24 94.22,170.95 C94.22,170.95 94.45,171.12 94.45,171.12 C94.45,171.12 94.67,170.92 94.67,170.92" fill="none" stroke="rgb(33, 228, 63)" stroke-width="3.26" stroke-opacity="1.00" stroke-linejoin="round"/>
<path d="M93.40,169.65 C93.37,170.79 93.91,173.53 94.61,175.94 C94.90,176.94 97.91,186.44 97.99,186.69 C99.07,189.85 102.60,195.50 103.52,196.94 C104.90,199.05 108.80,203.94 109.85,205.92 C110.79,207.70 113.39,214.66 114.03,216.84 C114.76,219.36 116.31,226.96 116.61,227.69 C117.20,229.04 119.48,230.14 120.43,230.08 C123.08,229.87 124.53,228.56 124.93,227.25 C125.67,224.60 125.59,213.77 124.60,207.90 C123.73,202.93 122.14,192.87 121.49,188.26 C121.44,188.00 121.32,187.59 121.12,187.04" fill="none" stroke="rgb(33, 228, 63)" stroke-width="3.26" stroke-opacity="1.00" stroke-linejoin="round"/>
<path d="M115.86,66.40 C115.86,66.36 115.85,66.24 115.86,66.28 C116.17,67.08 119.03,69.00 119.76,69.44 C123.52,71.67 126.12,72.27 126.62,72.40 C127.50,72.63 131.86,75.04 134.81,75.94 C136.38,76.48 139.23,78.66 141.18,81.65 C143.20,84.82 146.32,99.10 146.92,102.61 C150.26,122.24 154.98,140.26 155.50,146.85 C155.50,146.85 155.35,146.28 155.35,146.28" fill="none" stroke="rgb(33, 228, 63)" stroke-width="3.26" stroke-opacity="1.00" stroke-linejoin="round"/>
<path d="M130.54,102.45 C130.54,102.45 130.36,102.27 130.36,102.27 C130.37,106.34 132.29,112.92 135.61,122.64 C137.01,126.85 141.60,144.74 142.94,146.48 C143.47,147.12 143.64,147.26 144.13,147.53 C144.46,147.58 149.58,145.95 151.93,145.60 C153.11,145.43 155.41,145.76 155.54,145.78 C156.23,146.46 157.14,149.31 156.93,151.26 C156.70,153.15 154.45,155.22 153.58,155.27 C152.76,155.27 151.12,154.75 150.25,154.19 C147.16,152.11 146.26,148.66 146.26,147.99 C146.26,147.99 147.16,146.71 147.16,146.71" fill="none" stroke="rgb(33, 228, 63)" stroke-width="3.26" stroke-opacity="1.00" stroke-linejoin="round"/>
<path d="M99.92,75.64 C99.92,75.64 100.10,75.64 100.10,75.64 C100.62,76.22 101.26,76.89 101.95,77.37 C105.99,80.15 106.62,80.81 106.60,80.85 C106.60,80.85 106.79,80.57 106.79,80.57" fill="none" stroke="rgb(33, 228, 63)" stroke-width="3.26" stroke-opacity="1.00" stroke-linejoin="round"/>
<path d="M117.68,73.83 C116.23,75.24 114.10,76.94 113.44,77.85 C113.37,77.94 111.68,82.44 111.73,83.08 C112.00,86.24 113.03,89.23 113.13,89.78 C113.18,90.00 113.18,90.43 113.15,91.05" fill="none" stroke="rgb(33, 228, 63)" stroke-width="3.26" stroke-opacity="1.00" stroke-linejoin="round"/>
<path d="M112.78,90.13 C112.78,90.13 110.49,89.77 110.49,89.77 C109.58,90.88 109.54,93.11 109.88,93.49 C110.40,94.01 112.25,93.62 112.77,92.90 C113.23,92.22 112.83,91.05 112.18,90.65 C112.18,90.65 110.87,91.32 110.87,91.32" fill="none" stroke="rgb(33, 228, 63)" stroke-width="3.26" stroke-opacity="1.00" stroke-linejoin="round"/>
<path d="M112.78,94.11 C112.78,94.11 112.78,94.02 112.78,94.02 C112.72,94.07 112.64,94.61 112.66,95.23 C112.69,95.85 113.08,97.55 113.60,99.39 C114.07,101.07 114.44,102.01 114.81,102.60 C114.86,102.45 114.22,101.70 113.64,101.51 C112.20,101.09 111.67,104.50 112.55,105.48 C113.68,105.20 114.25,104.82 114.39,104.15 C114.49,103.63 114.41,103.14 114.22,102.68 C114.22,102.68 112.92,103.97 112.92,103.97" fill="none" stroke="rgb(33, 228, 63)" stroke-width="3.26" stroke-opacity="1.00" stroke-linejoin="round"/>
<path d="M114.41,107.16 C114.32,107.96 114.30,108.59 114.36,109.05 C114.49,110.02 115.22,112.45 115.32,112.59 C115.32,112.59 114.23,114.94 114.23,114.94 C114.23,114.94 116.80,113.40 116.80,113.40 C116.50,113.43 116.25,113.55 116.06,113.77 C115.86,114.00 115.43,114.63 114.79,115.67" fill="none" stroke="rgb(33, 228, 63)" stroke-width="3.26" stroke-opacity="1.00" stroke-linejoin="round"/>
<path d="M115.14,116.76 C115.14,116.76 116.04,124.68 116.04,124.68 C116.04,124.68 113.34,124.58 113.34,124.58 C113.30,125.41 113.58,125.90 114.32,126.05 C114.81,126.15 116.34,126.21 116.64,126.37 C116.81,126.63 118.02,138.96 118.07,139.10 C118.12,139.30 118.31,139.76 118.63,140.48" fill="none" stroke="rgb(33, 228, 63)" stroke-width="3.26" stroke-opacity="1.00" stroke-linejoin="round"/>
<path d="M132.56,113.29 C132.56,122.98 132.91,126.32 134.35,134.98 C134.93,138.47 135.47,145.96 135.81,147.99 C136.24,150.49 137.63,155.08 138.84,157.30 C139.49,158.47 143.76,165.01 144.26,165.89 C146.33,169.49 147.31,172.76 147.53,174.77 C147.96,178.92 147.86,190.64 147.61,195.23 C146.89,206.48 145.50,218.58 145.32,221.21 C144.89,227.43 145.15,231.35 147.02,240.99 C147.56,243.85 147.05,256.68 147.01,256.78 C146.96,256.91 146.77,257.19 146.45,257.60" fill="none" stroke="rgb(33, 228, 63)" stroke-width="3.26" stroke-opacity="1.00" stroke-linejoin="round"/>
<path d="M126.32,218.40 C126.32,218.40 126.32,218.22 126.32,218.22 C127.54,221.33 128.41,224.96 128.72,227.37 C128.98,229.43 129.61,239.24 130.78,246.84 C131.67,252.55 133.08,261.75 133.77,264.59 C134.22,264.03 136.99,259.94 138.33,259.02 C140.87,257.39 145.54,258.83 146.37,259.22 C146.60,259.33 147.10,259.59 147.87,260.00" fill="none" stroke="rgb(33, 228, 63)" stroke-width="3.26" stroke-opacity="1.00" stroke-linejoin="round"/>
<path d="M138.43,264.55 C138.43,264.55 138.26,264.72 138.26,264.72 C138.38,264.41 140.72,262.28 142.34,261.62 C143.95,260.99 147.00,261.16 148.22,261.90 C150.62,263.41 153.23,266.47 153.75,267.70 C151.47,268.69 142.40,270.15 138.78,270.04 C136.62,269.95 134.36,268.33 133.99,267.37 C133.72,266.54 133.96,264.99 134.43,264.43 C135.02,263.80 136.11,263.61 137.32,263.52 C138.12,263.47 138.93,263.41 139.74,263.36" fill="none" stroke="rgb(33, 228, 63)" stroke-width="3.26" stroke-opacity="1.00" stroke-linejoin="round"/>
</g>
</svg>
