<?xml version="1.0" encoding="UTF-8" standalone="no"?>
<!DOCTYPE svg PUBLIC "-//W3C//DTD SVG 1.1//EN" "http://www.w3.org/Graphics/SVG/1.1/DTD/svg11.dtd">
<svg width="64.20" height="90.84" viewBox="0.00 0.00 535.00 757.00" xmlns="http://www.w3.org/2000/svg" xmlns:xlink="http://www.w3.org/1999/xlink">
<g stroke-linecap="round" transform="translate(154.00, 267.00)" id="25-사람">
<path d="M143.66,25.99 C143.40,25.99 142.74,25.99 142.66,25.99 C141.78,25.96 138.22,27.00 136.37,27.86 C133.96,29.01 130.25,32.06 128.55,34.17 C125.69,37.80 124.34,43.50 124.32,43.85 C127.08,42.04 129.54,40.68 130.76,40.39 C131.48,40.24 134.41,41.06 135.29,41.03 C136.32,40.99 138.88,40.55 141.63,39.72 C143.85,39.13 147.81,39.26 149.64,40.04 C149.81,40.12 151.34,39.75 152.27,39.52" fill="none" stroke="rgb(33, 228, 63)" stroke-width="2.95" stroke-opacity="1.00" stroke-linejoin="round"/>
<path d="M146.86,24.67 C147.70,25.00 148.74,25.35 149.40,25.48 C149.98,25.59 154.64,26.63 155.70,27.53 C156.15,27.93 159.97,33.84 160.74,35.76 C161.82,38.52 162.52,43.23 162.44,46.22 C162.29,50.42 160.59,66.11 159.51,66.95 C159.50,66.96 159.15,67.20 158.47,67.67 C158.47,67.67 155.70,66.62 155.70,66.62" fill="none" stroke="rgb(33, 228, 63)" stroke-width="2.95" stroke-opacity="1.00" stroke-linejoin="round"/>
<path d="M149.30,39.53 C149.30,39.53 148.74,39.72 148.74,39.72 C148.83,39.81 149.15,39.98 149.70,40.10 C150.47,40.28 152.44,40.78 152.81,41.15 C152.81,41.15 153.28,53.69 153.28,53.69 C154.92,53.98 155.71,54.68 156.06,55.55 C156.71,57.27 156.89,66.16 156.89,66.37 C156.89,66.72 156.87,67.18 156.83,67.75" fill="none" stroke="rgb(33, 228, 63)" stroke-width="2.95" stroke-opacity="1.00" stroke-linejoin="round"/>
<path d="M135.57,30.13 C135.35,30.65 132.93,33.41 131.99,34.69 C130.39,36.88 128.92,39.86 128.82,40.37 C128.85,40.41 137.86,31.34 141.84,28.93 C142.13,28.75 142.38,28.62 142.59,28.54 C142.59,28.54 134.75,39.01 134.75,39.01 C134.75,39.01 148.12,28.43 148.12,28.43 C148.12,28.43 141.25,38.68 141.25,38.68 C143.90,36.03 147.24,32.95 149.10,31.84 C149.39,31.67 149.88,31.44 150.55,31.13 C150.55,31.13 145.92,39.48 145.92,39.48 C148.64,36.47 150.85,34.39 152.12,34.08 C153.06,33.88 155.21,33.34 155.45,33.63 C156.21,34.78 156.82,43.03 157.08,43.25 C157.08,43.25 158.46,42.65 158.46,42.65 C158.46,42.65 158.53,51.79 158.53,51.79 C158.53,51.79 159.86,47.65 159.86,47.65 C160.24,49.07 159.62,60.33 159.65,62.88 C159.66,63.28 159.57,63.45 159.23,64.30" fill="none" stroke="rgb(33, 228, 63)" stroke-width="2.95" stroke-opacity="1.00" stroke-linejoin="round"/>
<path d="M128.05,41.98 C127.49,42.30 126.95,42.69 126.67,43.08 C125.87,44.23 124.58,48.66 124.33,50.77 C124.12,52.67 124.18,55.97 123.98,56.55 C120.64,58.66 120.43,60.36 120.50,61.07 C120.50,61.07 125.48,63.75 125.48,63.75 C125.53,63.98 125.79,67.11 126.36,68.51 C127.26,70.58 130.63,73.45 132.55,74.39 C135.74,75.92 139.07,76.66 140.97,76.78 C142.67,76.87 146.38,76.22 147.41,75.95 C148.10,75.78 148.78,75.60 149.46,75.43 C149.91,75.32 150.36,75.20 150.81,75.08" fill="none" stroke="rgb(33, 228, 63)" stroke-width="2.95" stroke-opacity="1.00" stroke-linejoin="round"/>
<path d="M153.44,73.96 C153.61,73.89 154.13,73.77 154.34,73.72 C154.77,73.59 155.28,73.17 155.82,72.40 C157.16,70.39 158.50,68.39 158.52,67.70 C158.52,67.53 158.52,67.36 158.52,67.18" fill="none" stroke="rgb(33, 228, 63)" stroke-width="2.95" stroke-opacity="1.00" stroke-linejoin="round"/>
<path d="M127.86,70.19 C127.92,70.20 128.05,70.19 128.08,70.19 C129.87,70.45 133.75,70.15 135.19,70.01 C135.19,70.01 135.02,69.83 135.02,69.83" fill="none" stroke="rgb(33, 228, 63)" stroke-width="2.95" stroke-opacity="1.00" stroke-linejoin="round"/>
<path d="M132.00,47.43 C131.85,47.17 131.75,47.02 131.72,46.96 C131.68,46.91 131.65,46.88 131.62,46.87 C131.58,47.01 131.49,47.82 131.46,48.67 C131.41,49.98 131.54,50.89 131.82,51.59 C133.95,52.91 134.98,49.51 134.59,48.83 C133.92,48.43 132.67,48.98 132.23,49.97 C131.79,51.04 132.15,51.80 132.49,52.12 C135.23,50.42 133.89,48.71 133.62,48.57 C133.62,48.57 132.36,49.20 132.36,49.20 C132.23,48.90 132.83,47.52 134.26,47.27 C134.70,47.20 137.09,46.95 137.79,46.87" fill="none" stroke="rgb(33, 228, 63)" stroke-width="2.95" stroke-opacity="1.00" stroke-linejoin="round"/>
<path d="M148.55,43.11 C148.55,43.11 148.18,42.92 148.18,42.92 C148.59,45.38 147.67,47.46 146.11,50.44 C146.54,49.58 148.58,48.00 149.42,47.80 C150.38,47.59 151.73,48.21 151.98,49.09 C152.21,50.01 151.92,52.47 151.43,53.51 C150.82,54.72 146.86,57.21 146.30,57.85 C146.22,57.94 146.03,58.17 145.73,58.53" fill="none" stroke="rgb(33, 228, 63)" stroke-width="2.95" stroke-opacity="1.00" stroke-linejoin="round"/>
<path d="M137.64,77.15 C137.64,77.15 137.55,77.15 137.55,77.15 C137.34,77.32 137.14,77.72 137.10,78.56 C136.95,81.91 137.95,84.83 138.02,85.62 C134.20,85.05 107.58,85.27 98.76,85.99 C94.48,86.30 83.41,86.45 74.55,88.04 C70.30,88.78 56.33,88.06 52.62,89.25 C45.73,91.52 42.42,95.69 42.54,96.29 C42.54,96.29 49.72,96.50 49.72,96.50 C49.72,96.50 48.65,100.76 48.65,100.76 C49.11,101.13 50.64,101.05 53.37,100.36 C55.41,99.84 61.96,97.19 64.04,96.49 C68.42,95.04 100.71,95.11 107.31,94.50 C112.65,94.01 121.28,94.08 122.17,94.11 C122.93,94.15 125.98,94.39 126.92,94.46" fill="none" stroke="rgb(33, 228, 63)" stroke-width="2.95" stroke-opacity="1.00" stroke-linejoin="round"/>
<path d="M127.30,94.46 C127.39,94.46 127.48,94.46 127.58,94.46 C127.79,94.46 128.00,94.46 128.21,94.46 C128.50,94.46 128.80,94.46 129.10,94.46 C129.38,94.46 129.65,94.46 129.93,94.46" fill="none" stroke="rgb(33, 228, 63)" stroke-width="2.95" stroke-opacity="1.00" stroke-linejoin="round"/>
<path d="M130.49,94.46 C130.56,94.46 130.62,94.46 130.68,94.46 C130.74,94.46 130.81,94.46 130.87,94.46 C130.87,94.46 130.17,94.46 130.17,94.46" fill="none" stroke="rgb(33, 228, 63)" stroke-width="2.95" stroke-opacity="1.00" stroke-linejoin="round"/>
<path d="M147.99,76.78 C147.94,76.94 147.49,79.10 147.70,80.49 C147.79,81.10 149.43,85.61 149.74,86.51 C150.09,87.52 154.23,89.44 155.60,90.47 C158.64,92.83 160.31,135.35 160.28,136.49 C160.28,136.49 159.65,136.03 159.65,136.03" fill="none" stroke="rgb(33, 228, 63)" stroke-width="2.95" stroke-opacity="1.00" stroke-linejoin="round"/>
<path d="M130.12,95.78 C130.12,95.78 129.65,95.81 129.65,95.81 C128.75,96.76 129.25,130.51 130.59,138.25 C130.97,140.44 132.14,148.39 132.23,148.60 C132.20,148.75 138.91,145.61 140.00,145.19 C144.45,143.49 154.12,142.55 158.80,141.98 C158.85,141.87 158.91,141.36 158.90,140.77 C158.89,140.08 158.74,138.79 158.52,137.16" fill="none" stroke="rgb(33, 228, 63)" stroke-width="2.95" stroke-opacity="1.00" stroke-linejoin="round"/>
<path d="M143.15,143.88 C142.75,144.87 142.17,146.38 141.91,147.23 C139.39,155.50 138.48,170.16 137.11,186.23 C136.41,194.49 137.67,216.68 137.81,216.85 C137.81,216.85 137.95,216.35 137.95,216.35" fill="none" stroke="rgb(33, 228, 63)" stroke-width="2.95" stroke-opacity="1.00" stroke-linejoin="round"/>
<path d="M156.98,157.59 C156.98,157.59 156.74,157.70 156.74,157.70 C156.33,158.64 155.58,162.59 155.31,165.43 C154.93,169.56 154.28,188.11 154.19,195.50 C154.20,203.88 154.49,211.89 155.72,219.44 C155.72,219.44 156.22,217.11 156.22,217.11" fill="none" stroke="rgb(33, 228, 63)" stroke-width="2.95" stroke-opacity="1.00" stroke-linejoin="round"/>
<path d="M153.81,218.13 C153.63,218.22 153.52,218.28 153.46,218.32 C153.37,218.36 153.29,218.38 152.97,218.38 C146.99,218.38 134.62,220.78 132.88,221.26 C131.10,221.76 129.47,224.64 129.81,225.96 C130.00,226.59 131.21,227.45 132.27,227.69 C133.88,228.02 153.20,226.03 153.90,225.25 C154.16,224.90 154.36,221.51 154.36,220.81 C154.36,220.55 154.35,220.07 154.32,219.39" fill="none" stroke="rgb(33, 228, 63)" stroke-width="2.95" stroke-opacity="1.00" stroke-linejoin="round"/>
<path d="M159.40,140.20 C159.40,140.20 159.14,140.33 159.14,140.33 C159.15,140.53 159.70,141.24 161.88,143.00 C163.97,144.75 165.34,146.94 165.56,148.24 C166.01,151.50 162.13,163.86 160.82,168.00 C159.14,173.80 159.01,185.44 159.22,192.22 C159.54,200.84 162.38,221.70 162.82,222.44 C162.85,222.35 161.87,221.33 160.75,220.90 C159.31,220.37 156.74,220.48 154.94,220.67 C154.94,220.67 154.19,219.90 154.19,219.90" fill="none" stroke="rgb(33, 228, 63)" stroke-width="2.95" stroke-opacity="1.00" stroke-linejoin="round"/>
<path d="M161.55,221.04 C161.54,221.03 161.55,221.09 161.55,221.11 C162.15,222.77 162.21,224.25 161.84,224.61 C160.72,225.60 155.18,226.07 154.60,225.73 C154.45,225.64 154.31,225.56 154.19,225.49" fill="none" stroke="rgb(33, 228, 63)" stroke-width="2.95" stroke-opacity="1.00" stroke-linejoin="round"/>
</g>
</svg>
