<?xml version="1.0" encoding="UTF-8" standalone="no"?>
<!DOCTYPE svg PUBLIC "-//W3C//DTD SVG 1.1//EN" "http://www.w3.org/Graphics/SVG/1.1/DTD/svg11.dtd">
<svg width="64.20" height="90.84" viewBox="0.00 0.00 535.00 757.00" xmlns="http://www.w3.org/2000/svg" xmlns:xlink="http://www.w3.org/1999/xlink">
<g stroke-linecap="round" transform="translate(154.00, 267.00)" id="26-사람">
<path d="M110.17,56.34 C108.38,56.34 105.28,56.79 102.93,57.71 C97.92,59.72 92.50,64.79 87.92,69.84 C93.67,66.16 97.33,65.11 98.20,65.53 C98.11,65.74 93.09,70.70 91.49,72.90 C90.44,74.36 88.71,77.44 88.27,78.23 C88.27,78.23 97.88,71.41 97.88,71.41 C98.07,71.39 93.48,76.47 92.44,78.41 C91.41,80.37 88.46,88.08 86.71,94.59 C86.71,94.59 92.84,89.32 92.84,89.32 C92.84,89.32 91.66,96.42 91.66,96.42 C92.40,94.26 95.28,88.13 97.37,85.06 C99.64,81.81 102.38,77.61 103.76,76.01 C104.00,75.74 109.69,71.39 110.60,70.78 C110.60,70.78 110.22,71.62 110.22,71.62" fill="none" stroke="rgb(33, 228, 63)" stroke-width="2.88" stroke-opacity="1.00" stroke-linejoin="round"/>
<path d="M111.09,56.96 C111.09,56.96 110.93,56.80 110.93,56.80 C110.44,56.74 106.66,61.23 104.49,63.80 C100.58,68.55 95.10,75.54 94.76,76.67 C96.80,75.74 100.47,72.05 102.95,70.43 C103.80,69.88 108.61,68.09 109.19,68.05 C109.19,68.05 103.46,77.39 103.46,77.39 C103.46,77.39 104.11,77.99 104.11,77.99" fill="none" stroke="rgb(33, 228, 63)" stroke-width="2.88" stroke-opacity="1.00" stroke-linejoin="round"/>
<path d="M111.39,72.00 C111.39,72.00 108.65,81.15 108.65,81.15 C108.65,81.15 115.01,72.17 115.01,72.17 C115.01,72.17 114.31,79.68 114.31,79.68 C114.31,79.68 116.80,76.68 116.80,76.68" fill="none" stroke="rgb(33, 228, 63)" stroke-width="2.88" stroke-opacity="1.00" stroke-linejoin="round"/>
<path d="M123.67,56.80 C123.67,56.80 124.37,56.07 124.37,56.07 C124.28,56.00 120.87,56.51 112.37,66.54 C110.98,68.19 109.60,70.11 109.39,70.91 C110.55,70.74 118.70,63.05 121.35,61.51 C121.95,61.16 122.64,60.98 123.23,60.88 C123.27,61.99 123.32,63.27 123.02,63.87 C119.44,71.28 119.24,72.49 119.35,72.73 C119.35,72.73 125.70,66.56 125.70,66.56 C125.88,66.80 125.71,67.52 125.05,69.10 C124.21,71.08 124.02,71.59 124.05,71.89 C124.06,71.96 124.10,72.21 124.19,72.66" fill="none" stroke="rgb(33, 228, 63)" stroke-width="2.88" stroke-opacity="1.00" stroke-linejoin="round"/>
<path d="M128.13,54.65 C128.13,54.65 128.13,54.58 128.13,54.58 C128.34,54.42 130.69,55.39 132.25,56.91 C133.61,58.26 136.80,62.72 137.43,64.03 C138.77,66.88 140.14,72.03 140.48,73.25 C140.61,72.53 139.63,68.64 138.36,67.08 C136.83,65.27 132.54,62.57 131.61,62.38 C130.55,64.67 131.11,69.61 131.67,71.08 C131.75,71.30 131.98,71.86 132.36,72.75" fill="none" stroke="rgb(33, 228, 63)" stroke-width="2.88" stroke-opacity="1.00" stroke-linejoin="round"/>
<path d="M140.56,65.55 C140.74,64.99 140.84,64.66 140.87,64.56 C140.87,64.53 140.88,64.46 140.87,64.48 C141.07,65.03 143.97,69.33 144.50,70.67 C147.36,78.19 144.35,95.64 144.08,95.74 C144.08,95.74 145.57,89.07 145.57,89.07 C145.57,89.07 139.18,105.12 139.18,105.12 C139.18,105.12 140.91,88.74 140.91,88.74 C140.91,88.74 138.20,93.29 138.20,93.29 C138.20,93.29 137.95,88.12 137.95,88.12" fill="none" stroke="rgb(33, 228, 63)" stroke-width="2.88" stroke-opacity="1.00" stroke-linejoin="round"/>
<path d="M133.50,72.15 C133.50,72.15 132.81,71.62 132.81,71.62 C132.72,71.56 132.11,72.98 131.84,73.59 C130.21,77.20 127.89,82.43 127.41,84.39 C127.43,84.42 127.81,83.94 130.10,79.98 C131.36,77.89 132.92,75.61 133.62,74.89 C133.81,74.70 134.22,74.33 134.86,73.76 C134.86,73.76 135.06,74.04 135.06,74.04 C134.85,75.77 133.49,80.12 132.84,82.16 C131.73,85.99 131.85,86.78 131.98,87.09 C132.62,86.58 134.84,82.93 135.97,81.04 C138.28,77.34 138.65,76.93 139.26,76.42 C139.26,76.42 136.25,88.78 136.25,88.78 C136.25,88.78 141.48,84.43 141.48,84.43 C141.48,84.43 141.56,84.56 141.56,84.56" fill="none" stroke="rgb(33, 228, 63)" stroke-width="2.88" stroke-opacity="1.00" stroke-linejoin="round"/>
<path d="M120.45,71.39 C120.45,71.39 117.51,80.07 117.51,80.07 C118.99,79.63 119.75,79.16 120.71,77.78 C123.09,74.42 124.55,72.22 125.06,71.82 C125.06,71.82 124.48,77.54 124.48,77.54 C125.26,77.56 127.82,75.34 128.36,75.51 C128.47,75.57 128.57,75.66 128.69,75.70 C128.80,75.74 129.09,75.83 129.56,75.95" fill="none" stroke="rgb(33, 228, 63)" stroke-width="2.88" stroke-opacity="1.00" stroke-linejoin="round"/>
<path d="M97.73,90.58 C97.73,90.58 97.50,90.19 97.50,90.19 C97.71,90.02 103.08,89.49 104.80,89.53 C106.69,89.59 109.16,89.96 109.93,90.08 C109.65,91.00 108.00,91.50 106.79,91.66 C104.89,91.92 104.83,93.15 104.93,93.47 C105.29,92.88 105.47,92.53 105.46,92.44 C105.46,92.35 105.26,92.38 104.88,92.54" fill="none" stroke="rgb(33, 228, 63)" stroke-width="2.88" stroke-opacity="1.00" stroke-linejoin="round"/>
<path d="M114.00,90.88 C114.00,90.88 112.42,90.50 112.42,90.50 C113.62,89.15 124.09,89.39 124.06,89.39 C124.06,89.39 123.48,89.87 123.48,89.87" fill="none" stroke="rgb(33, 228, 63)" stroke-width="2.88" stroke-opacity="1.00" stroke-linejoin="round"/>
<path d="M116.92,92.72 C116.92,92.72 115.92,94.30 115.92,94.30 C115.92,94.30 117.65,92.75 117.65,92.75 C116.97,92.30 116.48,92.06 116.16,92.05 C115.84,92.03 115.26,92.21 114.41,92.59" fill="none" stroke="rgb(33, 228, 63)" stroke-width="2.88" stroke-opacity="1.00" stroke-linejoin="round"/>
<path d="M90.82,93.03 C89.49,94.57 88.65,97.97 88.72,98.89 C88.87,100.21 90.32,101.26 93.40,102.37 C95.23,103.07 95.54,103.57 95.81,105.35 C96.25,108.21 102.30,119.18 104.22,120.55 C105.87,121.66 110.10,122.89 113.60,122.59 C115.41,122.42 119.57,121.48 120.78,120.93 C122.89,119.92 126.91,115.15 127.29,114.77 C128.14,113.95 128.55,113.98 128.82,114.06 C129.00,114.24 129.87,116.06 130.36,116.55 C130.74,116.90 132.02,117.25 133.32,116.86 C134.81,116.39 136.93,114.49 137.40,113.78 C138.46,112.18 139.45,108.85 139.45,107.34 C139.42,105.77 138.26,104.00 136.99,103.31 C136.00,102.81 134.52,102.72 134.22,102.78 C134.13,102.81 134.04,102.87 133.97,102.96" fill="none" stroke="rgb(33, 228, 63)" stroke-width="2.88" stroke-opacity="1.00" stroke-linejoin="round"/>
<path d="M111.09,92.57 C111.02,92.64 110.54,93.57 110.23,94.42 C109.47,96.50 107.10,104.72 106.96,105.37 C106.52,107.46 106.85,110.37 107.30,111.12 C108.21,111.17 111.19,108.05 111.59,107.92 C112.15,107.79 113.89,108.91 114.15,108.94 C115.56,109.04 117.13,104.57 117.19,104.31 C117.22,104.22 117.27,104.10 117.36,103.96" fill="none" stroke="rgb(33, 228, 63)" stroke-width="2.88" stroke-opacity="1.00" stroke-linejoin="round"/>
<path d="M108.78,117.29 C108.78,117.32 108.78,117.35 108.78,117.36 C108.79,117.38 108.80,117.40 108.81,117.44 C108.81,117.44 120.91,115.29 120.91,115.29 C120.91,115.29 121.06,115.60 121.06,115.60" fill="none" stroke="rgb(33, 228, 63)" stroke-width="2.88" stroke-opacity="1.00" stroke-linejoin="round"/>
<path d="M116.40,123.54 C116.40,123.54 116.22,123.54 116.22,123.54 C115.71,123.85 115.34,126.63 115.34,130.40 C115.34,139.70 115.66,141.81 115.70,141.98 C115.73,142.13 115.86,142.53 116.09,143.18" fill="none" stroke="rgb(33, 228, 63)" stroke-width="2.88" stroke-opacity="1.00" stroke-linejoin="round"/>
<path d="M135.93,128.16 C135.42,128.45 134.22,129.15 133.76,129.47 C132.25,130.54 126.26,136.35 124.01,138.00 C120.37,140.56 118.26,142.59 117.68,143.89 C117.68,143.89 118.47,143.72 118.47,143.72" fill="none" stroke="rgb(33, 228, 63)" stroke-width="2.88" stroke-opacity="1.00" stroke-linejoin="round"/>
<path d="M134.87,116.62 C134.87,116.62 134.78,116.62 134.78,116.62 C134.65,116.80 134.60,117.03 134.53,118.22 C134.34,121.71 135.12,126.10 135.22,127.72 C135.23,127.91 133.36,129.23 132.89,130.41 C132.09,132.53 130.32,147.45 129.49,149.23 C129.43,149.35 129.33,149.55 129.18,149.82 C128.47,149.37 124.54,145.77 122.20,143.58 C121.86,143.28 121.52,143.05 121.19,142.90" fill="none" stroke="rgb(33, 228, 63)" stroke-width="2.88" stroke-opacity="1.00" stroke-linejoin="round"/>
<path d="M114.62,124.96 C114.62,124.96 114.62,124.87 114.62,124.87 C114.62,124.87 114.48,124.78 114.48,124.78 C113.81,124.94 111.71,127.13 110.14,129.85 C109.12,131.62 105.73,138.50 105.19,140.09 C104.55,142.02 104.49,148.32 104.49,150.96 C104.46,152.55 103.32,154.51 102.96,155.36 C102.26,157.02 100.83,165.04 100.76,165.28 C100.49,166.21 99.17,167.46 98.17,167.63 C97.95,167.67 85.59,169.05 80.01,170.42 C80.33,172.05 81.10,176.32 80.87,178.59 C80.68,180.37 79.84,182.56 79.92,182.83 C80.71,183.52 84.40,184.80 87.06,184.84 C89.33,184.85 94.87,183.65 97.53,182.94 C100.36,182.18 104.73,180.26 106.64,178.34 C108.27,176.66 111.44,171.04 111.80,169.88 C111.90,169.56 112.01,168.97 112.14,168.11" fill="none" stroke="rgb(33, 228, 63)" stroke-width="2.88" stroke-opacity="1.00" stroke-linejoin="round"/>
<path d="M81.24,172.91 C80.93,172.82 80.63,172.63 80.43,172.33 C79.29,170.60 74.97,168.07 71.98,168.45 C70.74,168.62 69.37,169.33 69.02,170.05 C68.69,170.78 68.36,172.96 68.56,173.58 C69.05,174.93 71.65,175.19 72.01,175.22 C71.35,174.75 68.01,174.01 67.01,174.10 C65.82,174.22 64.56,175.17 64.40,175.86 C64.09,177.65 68.24,178.26 69.28,177.89 C68.32,177.80 66.59,178.73 66.10,179.39 C65.50,180.24 65.73,181.92 66.48,182.57 C67.13,183.10 69.85,183.85 74.65,184.40 C78.56,184.83 82.26,183.16 82.33,183.10 C82.33,183.10 83.01,183.21 83.01,183.21" fill="none" stroke="rgb(33, 228, 63)" stroke-width="2.88" stroke-opacity="1.00" stroke-linejoin="round"/>
<path d="M108.41,180.72 C108.36,181.17 108.33,181.46 108.32,181.60 C108.29,181.91 109.11,197.38 108.59,200.75 C108.59,200.75 108.59,200.25 108.59,200.25" fill="none" stroke="rgb(33, 228, 63)" stroke-width="2.88" stroke-opacity="1.00" stroke-linejoin="round"/>
<path d="M121.19,150.00 C120.79,150.23 120.41,151.24 120.55,153.97 C121.00,162.12 122.21,195.59 121.77,198.61 C121.77,198.61 122.61,197.41 122.61,197.41" fill="none" stroke="rgb(33, 228, 63)" stroke-width="2.88" stroke-opacity="1.00" stroke-linejoin="round"/>
<path d="M108.76,199.01 C108.29,200.05 107.93,202.22 108.14,204.23 C108.35,206.01 108.80,206.79 109.16,207.14 C110.35,207.03 132.61,201.12 139.27,198.13 C143.75,196.20 145.46,197.11 145.62,197.22 C145.62,197.22 145.34,195.99 145.34,195.99" fill="none" stroke="rgb(33, 228, 63)" stroke-width="2.88" stroke-opacity="1.00" stroke-linejoin="round"/>
<path d="M136.11,120.52 C136.11,124.44 136.70,128.88 137.24,130.12 C137.97,131.64 150.17,140.98 152.81,144.35 C155.43,147.78 158.85,156.66 160.16,161.81 C161.50,167.13 162.15,173.12 162.84,183.32 C163.45,194.98 163.43,200.98 163.10,203.80 C163.10,203.80 162.39,203.09 162.39,203.09" fill="none" stroke="rgb(33, 228, 63)" stroke-width="2.88" stroke-opacity="1.00" stroke-linejoin="round"/>
<path d="M146.05,168.47 C146.05,168.47 146.05,168.11 146.05,168.11 C146.07,168.30 146.71,170.17 146.93,170.94 C147.70,173.68 149.57,200.14 150.00,205.40 C152.10,204.11 155.08,203.25 156.24,203.26 C157.47,203.31 160.91,204.74 161.40,205.23 C161.46,205.29 161.67,205.53 162.04,205.94" fill="none" stroke="rgb(33, 228, 63)" stroke-width="2.88" stroke-opacity="1.00" stroke-linejoin="round"/>
<path d="M154.22,204.69 C153.23,205.15 152.76,205.44 152.55,205.83 C152.02,206.91 151.02,213.99 151.45,215.01 C151.93,215.94 153.83,216.69 155.03,216.53 C156.19,216.34 158.58,214.76 159.27,213.33 C160.44,210.80 159.00,208.19 158.41,207.41 C158.19,207.12 156.34,204.81 155.82,204.16" fill="none" stroke="rgb(33, 228, 63)" stroke-width="2.88" stroke-opacity="1.00" stroke-linejoin="round"/>
<path d="M111.77,207.41 C111.67,206.57 111.60,206.07 111.56,205.90 C111.52,205.74 111.46,205.67 111.37,205.71 C110.86,210.37 109.93,219.29 109.98,223.55 C110.00,225.45 110.39,231.96 110.34,232.12 C110.25,232.32 107.25,239.01 104.90,247.80 C103.22,254.41 99.23,269.47 97.45,273.50 C95.46,277.84 92.19,287.83 92.19,287.83 C92.19,287.83 92.85,287.01 92.85,287.01" fill="none" stroke="rgb(33, 228, 63)" stroke-width="2.88" stroke-opacity="1.00" stroke-linejoin="round"/>
<path d="M134.89,241.61 C134.89,241.61 134.89,241.47 134.89,241.47 C134.35,241.50 133.50,242.39 131.98,244.92 C128.79,250.32 124.51,263.87 121.84,268.76 C113.30,284.24 108.23,292.59 107.84,293.46 C107.86,293.46 103.18,293.39 100.14,293.48 C98.02,293.47 95.13,292.62 94.07,291.82 C92.63,290.71 92.06,289.81 91.87,289.40 C89.68,289.40 85.83,288.54 84.72,287.78 C83.78,287.13 80.37,284.20 79.81,284.29 C78.52,284.59 74.93,290.23 74.92,292.80 C74.93,294.19 75.63,296.71 76.11,297.39 C76.57,298.03 78.21,299.20 79.43,299.21 C79.80,299.21 85.25,298.69 86.75,298.94 C88.07,299.19 89.81,300.06 93.60,302.35 C96.01,303.72 102.23,303.55 104.34,302.46 C106.25,301.41 107.20,298.78 108.04,294.02 C108.07,293.84 108.14,293.61 108.26,293.33" fill="none" stroke="rgb(33, 228, 63)" stroke-width="2.88" stroke-opacity="1.00" stroke-linejoin="round"/>
<path d="M133.21,242.45 C133.29,242.78 135.99,245.15 136.98,246.11 C139.31,248.38 146.30,257.06 146.38,258.00 C146.39,258.99 146.84,262.03 147.86,264.06 C148.85,265.94 153.59,270.05 156.93,271.91 C162.20,274.79 177.51,276.88 178.90,277.06" fill="none" stroke="rgb(33, 228, 63)" stroke-width="2.88" stroke-opacity="1.00" stroke-linejoin="round"/>
<path d="M153.67,214.56 C153.67,214.56 153.18,215.05 153.18,215.05 C153.12,215.22 152.94,223.33 153.04,224.91 C153.19,227.42 154.55,232.97 154.81,235.01 C155.17,239.72 155.83,247.34 156.01,247.68 C156.26,248.14 158.04,252.73 158.71,253.45 C158.93,253.67 165.36,255.89 167.79,256.85 C170.51,257.94 174.10,259.95 175.51,261.06 C178.27,263.26 180.94,269.16 181.20,269.81 C181.20,269.81 181.42,269.92 181.42,269.92" fill="none" stroke="rgb(33, 228, 63)" stroke-width="2.88" stroke-opacity="1.00" stroke-linejoin="round"/>
<path d="M181.28,267.53 C181.23,267.52 181.18,267.73 181.09,268.46 C180.92,269.69 179.72,275.76 179.65,275.94 C179.47,276.41 178.10,278.70 177.91,279.09 C177.66,279.61 175.89,287.24 174.73,289.28 C173.19,291.68 171.33,294.66 171.24,295.26 C171.64,296.14 175.46,296.13 177.86,294.96 C179.18,294.28 183.01,290.98 184.80,288.23 C185.23,287.55 189.42,280.38 190.86,278.03 C192.77,274.87 193.85,271.75 193.47,271.18 C193.19,270.87 191.66,270.09 190.69,270.12 C184.56,270.32 182.02,269.30 181.82,269.10 C181.70,268.98 181.43,268.65 181.00,268.09" fill="none" stroke="rgb(33, 228, 63)" stroke-width="2.88" stroke-opacity="1.00" stroke-linejoin="round"/>
</g>
</svg>
