<?xml version="1.0" encoding="UTF-8" standalone="no"?>
<!DOCTYPE svg PUBLIC "-//W3C//DTD SVG 1.1//EN" "http://www.w3.org/Graphics/SVG/1.1/DTD/svg11.dtd">
<svg width="64.20" height="90.84" viewBox="0.00 0.00 535.00 757.00" xmlns="http://www.w3.org/2000/svg" xmlns:xlink="http://www.w3.org/1999/xlink">
<g stroke-linecap="round" transform="translate(44.00, 155.00)" id="28-길">
<path d="M106.02,425.32 C106.02,425.32 102.80,432.60 102.80,432.60 C105.30,435.72 107.38,440.88 107.89,442.22 C108.82,444.67 111.81,450.45 113.79,453.78 C115.72,456.98 118.99,460.82 121.83,462.93 C123.57,464.20 131.77,469.34 132.64,469.95 C134.86,471.52 146.22,484.30 148.68,489.00 C149.19,489.98 152.37,496.68 153.00,498.90 C155.21,506.78 156.60,517.58 157.06,524.84 C157.31,529.33 157.34,567.88 158.01,570.75 C158.65,573.28 161.48,579.32 163.20,582.08 C164.02,583.38 167.81,588.72 168.46,589.64" fill="none" stroke="rgb(90, 16, 82)" stroke-width="3.52" stroke-opacity="1.00" stroke-linejoin="round"/>
<path d="M311.74,395.74 C311.74,395.74 310.54,395.74 310.54,395.74 C309.49,396.66 308.69,401.45 307.86,404.60 C307.28,406.80 304.58,416.04 304.49,416.44 C303.90,419.20 303.79,425.32 303.99,429.50 C304.19,433.03 305.34,436.69 307.36,440.78 C313.23,452.86 317.13,459.85 321.69,464.80 C324.94,468.31 340.73,483.08 343.19,485.56 C348.20,490.61 357.00,500.72 358.66,503.45 C360.77,506.98 365.56,522.84 366.89,530.05 C368.34,538.04 368.03,553.37 366.89,559.08 C366.58,560.59 363.85,568.43 363.34,569.64 C362.75,571.03 361.66,573.30 361.04,574.52" fill="none" stroke="rgb(90, 16, 82)" stroke-width="3.52" stroke-opacity="1.00" stroke-linejoin="round"/>
</g>
</svg>
