<?xml version="1.0" encoding="UTF-8" standalone="no"?>
<!DOCTYPE svg PUBLIC "-//W3C//DTD SVG 1.1//EN" "http://www.w3.org/Graphics/SVG/1.1/DTD/svg11.dtd">
<svg width="64.20" height="90.84" viewBox="0.00 0.00 535.00 757.00" xmlns="http://www.w3.org/2000/svg" xmlns:xlink="http://www.w3.org/1999/xlink">
<g stroke-linecap="round" transform="translate(44.00, 155.00)" id="28-가로등-1">
<path d="M108.61,-61.52 C108.61,-61.52 107.42,-62.16 107.42,-62.16 C106.81,-61.61 108.17,-29.49 108.43,-18.44 C108.86,-7.82 108.82,-4.92 108.06,7.19 C107.10,21.55 106.74,53.18 106.60,56.31 C106.60,56.31 106.95,56.58 106.95,56.58 C106.95,56.58 107.34,55.93 107.34,55.93" fill="none" stroke="rgb(90, 42, 16)" stroke-width="3.52" stroke-opacity="1.00" stroke-linejoin="round"/>
<path d="M105.43,-57.38 C105.48,-58.69 105.68,-59.53 106.24,-60.04 C107.32,-61.00 115.42,-64.52 126.78,-70.89 C131.47,-73.50 146.58,-80.25 148.22,-80.29 C149.46,-80.28 151.26,-79.92 151.85,-79.38 C153.08,-78.19 154.09,-70.38 154.03,-67.22 C153.96,-65.66 153.66,-64.34 153.12,-64.02 C152.79,-63.84 113.74,-52.07 109.52,-51.49 C109.52,-51.49 111.16,-54.52 111.16,-54.52" fill="none" stroke="rgb(90, 42, 16)" stroke-width="3.52" stroke-opacity="1.00" stroke-linejoin="round"/>
<path d="M128.66,-53.56 C128.67,-53.58 128.61,-53.58 128.51,-53.56 C128.40,-53.54 128.08,-53.47 127.55,-53.35 C127.55,-53.35 127.65,-46.60 127.65,-46.60 C127.65,-46.60 128.16,-47.25 128.16,-47.25" fill="none" stroke="rgb(90, 42, 16)" stroke-width="3.52" stroke-opacity="1.00" stroke-linejoin="round"/>
<path d="M139.49,-56.74 C139.28,-56.75 139.12,-56.75 139.01,-56.74 C138.90,-56.74 138.69,-56.71 138.37,-56.67 C138.18,-55.75 138.34,-50.25 139.04,-48.44 C139.13,-48.21 139.25,-48.11 139.39,-48.15" fill="none" stroke="rgb(90, 42, 16)" stroke-width="3.52" stroke-opacity="1.00" stroke-linejoin="round"/>
<path d="M155.72,-63.11 C155.72,-63.11 154.92,-62.93 154.92,-62.93 C154.12,-56.18 157.15,-51.27 158.41,-49.89 C158.41,-49.89 160.03,-50.00 160.03,-50.00" fill="none" stroke="rgb(90, 42, 16)" stroke-width="3.52" stroke-opacity="1.00" stroke-linejoin="round"/>
</g>
</svg>
