<?xml version="1.0" encoding="UTF-8" standalone="no"?>
<!DOCTYPE svg PUBLIC "-//W3C//DTD SVG 1.1//EN" "http://www.w3.org/Graphics/SVG/1.1/DTD/svg11.dtd">
<svg width="64.20" height="90.84" viewBox="0.00 0.00 535.00 757.00" xmlns="http://www.w3.org/2000/svg" xmlns:xlink="http://www.w3.org/1999/xlink">
<g stroke-linecap="round" transform="translate(44.00, 155.00)" id="28-가로등-3">
<path d="M106.46,158.44 C105.06,160.57 105.13,163.88 105.77,170.49 C106.17,174.40 107.62,195.72 107.68,198.14 C107.85,204.97 105.98,233.52 105.93,234.06 C105.93,234.06 106.91,232.31 106.91,232.31" fill="none" stroke="rgb(90, 42, 16)" stroke-width="3.52" stroke-opacity="1.00" stroke-linejoin="round"/>
<path d="M104.24,158.44 C107.25,157.04 112.90,154.41 115.54,153.19 C117.28,152.41 126.19,150.79 126.65,150.62 C129.22,149.70 142.99,141.34 150.64,138.49 C153.27,137.51 157.28,135.67 159.71,134.90 C173.05,130.86 177.27,129.80 178.50,130.17 C179.67,132.54 178.67,143.19 178.16,145.88 C176.41,146.35 159.49,147.52 153.60,148.70 C150.99,149.25 147.64,150.62 142.78,152.92 C141.36,153.58 140.39,153.74 139.35,153.61 C138.02,152.56 137.25,147.77 137.40,147.21 C137.70,146.11 139.23,142.98 140.28,141.09" fill="none" stroke="rgb(90, 42, 16)" stroke-width="3.52" stroke-opacity="1.00" stroke-linejoin="round"/>
<path d="M160.31,151.77 C158.97,151.93 155.58,154.99 153.41,158.11 C152.82,158.97 152.44,159.67 152.30,160.22 C152.22,160.50 152.22,160.95 152.30,161.56" fill="none" stroke="rgb(90, 42, 16)" stroke-width="3.52" stroke-opacity="1.00" stroke-linejoin="round"/>
<path d="M164.31,150.43 C164.31,150.52 164.31,150.74 164.31,151.10 C164.30,153.80 164.34,155.35 164.57,155.83 C165.46,157.68 165.73,159.07 166.09,160.22" fill="none" stroke="rgb(90, 42, 16)" stroke-width="3.52" stroke-opacity="1.00" stroke-linejoin="round"/>
<path d="M178.99,142.42 C179.38,142.65 179.45,144.74 179.51,145.59 C179.52,145.77 179.65,146.60 179.89,148.07 C179.97,148.59 180.11,149.52 180.30,150.86" fill="none" stroke="rgb(90, 42, 16)" stroke-width="3.52" stroke-opacity="1.00" stroke-linejoin="round"/>
</g>
</svg>
