<?xml version="1.0" encoding="UTF-8" standalone="no"?>
<!DOCTYPE svg PUBLIC "-//W3C//DTD SVG 1.1//EN" "http://www.w3.org/Graphics/SVG/1.1/DTD/svg11.dtd">
<svg width="64.20" height="90.84" viewBox="0.00 0.00 535.00 757.00" xmlns="http://www.w3.org/2000/svg" xmlns:xlink="http://www.w3.org/1999/xlink">
<g stroke-linecap="round" transform="translate(44.00, 155.00)" id="28-가로등-2">
<path d="M288.44,-59.93 C288.44,-59.93 288.44,-60.56 288.44,-60.56 C288.12,-58.33 287.87,-56.94 287.38,-55.01 C285.64,-47.99 284.34,-40.06 284.31,-39.39 C284.34,-39.37 302.50,-38.60 306.35,-38.60 C307.06,-38.60 307.78,-38.60 308.50,-38.60" fill="none" stroke="rgb(90, 42, 16)" stroke-width="3.52" stroke-opacity="1.00" stroke-linejoin="round"/>
<path d="M288.76,-59.93 C289.27,-59.97 294.38,-59.13 297.49,-58.62 C301.32,-58.01 313.10,-57.25 313.58,-56.88 C314.56,-54.34 313.01,-44.48 310.73,-32.51 C308.65,-21.29 307.70,-13.46 307.06,-3.12 C306.75,4.67 305.38,21.93 305.24,26.08 C305.18,27.87 305.15,43.58 304.96,44.47 C304.88,44.85 304.68,45.17 304.36,45.42" fill="none" stroke="rgb(90, 42, 16)" stroke-width="3.52" stroke-opacity="1.00" stroke-linejoin="round"/>
<path d="M289.40,-39.88 C289.40,-39.88 288.76,-39.88 288.76,-39.88 C288.71,-40.05 288.49,-39.33 287.89,-36.83 C287.48,-35.13 286.64,-31.77 286.22,-30.12 C286.22,-30.12 287.49,-32.91 287.49,-32.91" fill="none" stroke="rgb(90, 42, 16)" stroke-width="3.52" stroke-opacity="1.00" stroke-linejoin="round"/>
<path d="M298.31,-41.79 C297.20,-40.51 295.30,-36.05 294.66,-32.22 C294.40,-30.58 294.12,-27.83 294.17,-27.86 C294.17,-27.86 293.91,-27.78 293.91,-27.78" fill="none" stroke="rgb(90, 42, 16)" stroke-width="3.52" stroke-opacity="1.00" stroke-linejoin="round"/>
</g>
</svg>
