<?xml version="1.0" encoding="UTF-8" standalone="no"?>
<!DOCTYPE svg PUBLIC "-//W3C//DTD SVG 1.1//EN" "http://www.w3.org/Graphics/SVG/1.1/DTD/svg11.dtd">
<svg width="64.20" height="90.84" viewBox="0.00 0.00 535.00 757.00" xmlns="http://www.w3.org/2000/svg" xmlns:xlink="http://www.w3.org/1999/xlink">
<g stroke-linecap="round" transform="translate(44.00, 155.00)" id="28-가로등-5">
<path d="M269.77,209.17 C269.69,208.34 269.62,207.83 269.58,207.66 C269.53,207.48 269.45,207.39 269.33,207.39 C269.33,207.39 269.32,228.73 269.32,228.73 C269.32,228.73 269.69,226.93 269.69,226.93" fill="none" stroke="rgb(90, 42, 16)" stroke-width="3.52" stroke-opacity="1.00" stroke-linejoin="round"/>
<path d="M268.44,206.50 C268.44,206.50 268.44,206.06 268.44,206.06 C268.47,206.06 284.54,204.93 291.20,204.36 C300.68,203.92 303.45,204.30 303.54,204.44 C304.44,211.69 307.03,255.22 306.93,258.67 C306.18,279.17 305.99,294.80 306.42,314.64 C306.69,329.08 307.61,361.17 308.47,369.67 C308.47,369.67 308.49,368.69 308.49,368.69" fill="none" stroke="rgb(90, 42, 16)" stroke-width="3.52" stroke-opacity="1.00" stroke-linejoin="round"/>
<path d="M266.21,229.20 C266.21,229.20 266.29,230.53 266.29,230.53 C267.08,230.60 275.61,227.19 284.82,225.02 C295.48,222.61 300.18,222.08 305.96,222.08 C305.96,222.08 305.82,222.52 305.82,222.52" fill="none" stroke="rgb(90, 42, 16)" stroke-width="3.52" stroke-opacity="1.00" stroke-linejoin="round"/>
<path d="M269.33,235.87 C269.32,237.77 269.32,238.91 269.33,239.30 C269.34,239.68 269.38,239.85 269.45,239.81 C269.45,239.81 270.22,239.43 270.22,239.43" fill="none" stroke="rgb(90, 42, 16)" stroke-width="3.52" stroke-opacity="1.00" stroke-linejoin="round"/>
<path d="M281.79,234.09 C281.79,234.09 281.34,240.32 281.34,240.32 C281.34,240.32 281.93,239.74 281.93,239.74" fill="none" stroke="rgb(90, 42, 16)" stroke-width="3.52" stroke-opacity="1.00" stroke-linejoin="round"/>
<path d="M296.47,232.31 C296.63,233.44 296.89,234.50 296.92,234.86 C296.93,235.02 296.93,235.47 296.92,236.21 C296.91,236.37 296.91,236.51 296.92,236.62" fill="none" stroke="rgb(90, 42, 16)" stroke-width="3.52" stroke-opacity="1.00" stroke-linejoin="round"/>
<path d="M278.67,213.18 C278.67,213.18 277.78,212.73 277.78,212.73 C277.78,212.73 272.50,224.01 272.50,224.01 C273.54,224.25 277.38,220.48 279.57,218.31 C282.82,215.27 284.53,214.26 285.95,213.71 C287.43,215.94 289.35,219.48 290.37,219.78 C292.45,220.28 296.03,219.15 298.57,218.20" fill="none" stroke="rgb(90, 42, 16)" stroke-width="3.52" stroke-opacity="1.00" stroke-linejoin="round"/>
</g>
</svg>
