<?xml version="1.0" encoding="UTF-8" standalone="no"?>
<!DOCTYPE svg PUBLIC "-//W3C//DTD SVG 1.1//EN" "http://www.w3.org/Graphics/SVG/1.1/DTD/svg11.dtd">
<svg width="64.20" height="90.84" viewBox="0.00 0.00 535.00 757.00" xmlns="http://www.w3.org/2000/svg" xmlns:xlink="http://www.w3.org/1999/xlink">
<g stroke-linecap="round" transform="translate(44.00, 155.00)" id="28-나무-4">
<path d="M330.80,12.56 C330.04,12.79 329.50,13.01 329.23,13.22 C328.67,13.54 323.67,10.99 321.36,8.70 C319.80,7.13 315.41,0.78 314.56,-0.97 C313.47,-3.28 312.65,-8.54 312.65,-12.69 C312.66,-16.89 313.43,-24.06 314.24,-27.61 C314.96,-30.67 316.82,-35.35 317.97,-36.89 C319.23,-38.54 322.42,-40.95 324.69,-42.04 C329.27,-44.19 340.88,-46.66 346.42,-46.73 C349.47,-46.73 354.23,-45.79 356.80,-44.37 C358.08,-43.66 359.12,-42.66 359.87,-41.63 C359.12,-40.85 357.15,-38.77 356.59,-38.58 C355.65,-38.27 353.45,-38.84 353.03,-39.37 C352.37,-40.34 352.11,-44.88 352.51,-47.66 C353.00,-50.94 354.45,-55.80 356.01,-58.23 C356.87,-59.47 359.19,-61.14 360.63,-61.33 C361.76,-61.45 366.09,-59.78 367.27,-58.93 C369.35,-57.36 373.37,-50.16 374.47,-49.61 C376.10,-48.85 384.21,-50.16 387.76,-51.22 C390.99,-52.19 397.39,-52.91 399.36,-52.17 C400.17,-51.84 403.13,-49.80 403.84,-49.03 C405.49,-47.16 407.66,-41.02 408.72,-36.72 C410.01,-31.31 410.61,-22.52 410.16,-18.38 C409.89,-16.14 408.09,-9.52 407.20,-7.44 C406.11,-4.97 402.72,-0.13 400.44,2.28 C397.68,5.16 390.40,11.08 390.25,11.21 C389.11,12.21 387.45,12.45 384.99,12.01 C384.41,11.90 383.44,11.64 382.07,11.24" fill="none" stroke="rgb(16, 90, 27)" stroke-width="3.52" stroke-opacity="1.00" stroke-linejoin="round"/>
<path d="M341.98,-20.96 C341.98,-20.96 341.98,-21.62 341.98,-21.62 C341.98,-21.62 340.78,-6.34 340.78,-6.34 C340.78,-6.34 336.19,-6.99 336.19,-6.99 C336.19,-6.99 341.28,46.50 341.28,46.50 C341.28,46.50 343.55,43.47 343.55,43.47" fill="none" stroke="rgb(16, 90, 27)" stroke-width="3.52" stroke-opacity="1.00" stroke-linejoin="round"/>
<path d="M373.52,-20.30 C373.52,-20.30 372.54,-20.30 372.54,-20.30 C372.54,-20.30 372.21,-20.04 372.21,-20.04 C371.56,-3.73 371.56,25.28 372.50,33.68 C372.87,37.22 372.91,44.33 372.87,44.43 C372.81,44.56 372.59,44.89 372.21,45.42" fill="none" stroke="rgb(16, 90, 27)" stroke-width="3.52" stroke-opacity="1.00" stroke-linejoin="round"/>
</g>
</svg>
