<?xml version="1.0" encoding="UTF-8" standalone="no"?>
<!DOCTYPE svg PUBLIC "-//W3C//DTD SVG 1.1//EN" "http://www.w3.org/Graphics/SVG/1.1/DTD/svg11.dtd">
<svg width="64.20" height="90.84" viewBox="0.00 0.00 535.00 757.00" xmlns="http://www.w3.org/2000/svg" xmlns:xlink="http://www.w3.org/1999/xlink">
<g stroke-linecap="round" transform="translate(44.00, 155.00)" id="28-나무-5">
<path d="M318.31,152.56 C317.58,152.64 316.72,152.07 316.38,151.90 C314.59,150.93 312.19,148.49 308.51,143.97 C306.07,140.93 304.52,138.26 303.68,135.27 C302.96,132.62 302.23,127.67 302.29,125.38 C302.37,122.95 303.31,118.15 304.33,115.56 C305.33,113.07 308.29,107.84 309.46,106.31 C310.80,104.62 314.29,102.62 316.51,102.35 C320.87,101.89 328.96,104.85 331.15,106.32 C333.06,107.67 334.46,111.41 335.38,115.66 C336.74,111.49 338.37,107.38 339.55,105.33 C341.23,102.54 345.13,99.41 347.56,98.61 C350.20,97.80 354.63,98.14 356.96,99.11 C359.23,100.11 361.87,102.74 364.56,106.75 C366.13,109.09 366.77,110.25 368.08,112.94 C368.40,113.54 369.09,113.54 371.19,113.33 C373.93,113.00 377.57,112.85 380.28,113.08 C381.63,113.23 384.37,114.11 385.83,114.99 C388.83,116.87 392.76,122.93 393.92,125.75 C394.83,128.07 395.73,131.92 395.79,134.44 C395.82,137.20 394.72,142.50 393.51,145.05 C392.26,147.64 388.59,152.26 386.57,153.79 C385.13,154.86 379.48,157.58 377.36,157.74 C376.71,157.77 371.84,155.84 370.24,155.18" fill="none" stroke="rgb(16, 90, 27)" stroke-width="3.52" stroke-opacity="1.00" stroke-linejoin="round"/>
<path d="M331.46,121.66 C331.13,121.66 330.80,121.66 330.47,121.66 C330.15,121.66 329.82,121.66 329.49,121.66 C329.50,121.84 328.31,165.23 328.66,169.72 C329.50,179.63 331.25,187.26 332.06,189.28 C332.06,189.28 333.97,188.82 333.97,188.82" fill="none" stroke="rgb(16, 90, 27)" stroke-width="3.52" stroke-opacity="1.00" stroke-linejoin="round"/>
<path d="M362.35,122.32 C362.35,121.92 362.35,121.52 362.35,121.12 C362.35,121.08 362.35,120.97 362.35,121.01 C363.77,129.94 364.69,138.03 365.00,148.92 C365.20,168.40 364.71,183.64 364.36,187.68 C364.36,187.68 363.67,188.05 363.67,188.05" fill="none" stroke="rgb(16, 90, 27)" stroke-width="3.52" stroke-opacity="1.00" stroke-linejoin="round"/>
</g>
</svg>
