<?xml version="1.0" encoding="UTF-8" standalone="no"?>
<!DOCTYPE svg PUBLIC "-//W3C//DTD SVG 1.1//EN" "http://www.w3.org/Graphics/SVG/1.1/DTD/svg11.dtd">
<svg width="64.20" height="90.84" viewBox="0.00 0.00 535.00 757.00" xmlns="http://www.w3.org/2000/svg" xmlns:xlink="http://www.w3.org/1999/xlink">
<g stroke-linecap="round" transform="translate(44.00, 155.00)" id="28-나무-2">
<path d="M10.72,180.16 C10.72,180.16 10.06,180.16 10.06,180.16 C9.50,180.65 9.30,181.22 9.34,182.55 C9.60,191.31 10.12,197.73 11.60,207.93 C13.05,216.95 17.26,238.38 18.16,241.55 C18.16,241.55 19.68,241.92 19.68,241.92" fill="none" stroke="rgb(16, 90, 27)" stroke-width="3.52" stroke-opacity="1.00" stroke-linejoin="round"/>
<path d="M56.72,165.70 C56.72,165.70 56.07,166.36 56.07,166.36 C56.07,167.93 56.07,170.39 56.12,171.97 C56.30,178.03 53.50,220.94 54.49,230.24 C54.56,230.88 55.71,238.86 55.95,241.23 C55.98,241.52 56.02,241.98 56.07,242.60" fill="none" stroke="rgb(16, 90, 27)" stroke-width="3.52" stroke-opacity="1.00" stroke-linejoin="round"/>
<path d="M11.37,211.05 C10.21,210.97 9.32,211.12 7.41,211.78 C4.80,212.68 -2.93,214.42 -4.08,214.14 C-4.19,214.11 -9.95,211.58 -11.91,210.51 C-14.21,209.23 -17.01,206.78 -18.51,204.30 C-20.64,200.69 -23.80,194.27 -24.34,190.98 C-24.87,187.40 -24.29,181.53 -23.51,178.17 C-22.16,172.57 -17.94,162.51 -15.78,159.69 C-13.42,156.69 -10.44,154.89 -6.30,153.23 C-4.93,152.76 -2.64,152.93 -1.99,153.94 C-1.20,155.19 -1.30,158.04 -1.81,158.82 C-2.62,158.95 -3.40,158.16 -3.84,156.31 C-4.50,153.49 -4.06,148.51 -3.44,146.45 C-2.89,144.68 -0.42,139.64 1.28,138.03 C3.65,135.85 9.44,135.09 13.34,135.33 C16.31,135.55 19.08,136.79 23.24,139.40 C26.48,141.51 34.93,147.08 35.88,147.79 C40.94,151.65 42.55,155.80 42.89,157.35 C41.69,157.71 39.14,158.52 38.54,158.51 C37.23,158.47 35.14,156.99 34.75,155.76 C34.41,154.51 34.94,150.96 35.74,149.31 C37.11,146.57 41.40,142.78 43.08,141.73 C46.86,139.39 56.15,136.11 61.50,135.39 C65.76,134.84 70.68,134.90 74.37,135.53 C77.39,136.08 80.39,137.23 82.36,138.69 C84.10,140.01 87.34,143.21 88.55,144.89 C89.80,146.65 91.70,150.83 92.32,152.82 C93.40,156.41 92.89,166.13 91.32,171.16 C90.45,173.89 88.25,178.98 86.64,181.93 C84.71,185.42 82.23,188.82 79.39,191.77 C68.26,203.21 57.93,208.00 55.25,209.13 C55.25,209.13 52.78,208.42 52.78,208.42" fill="none" stroke="rgb(16, 90, 27)" stroke-width="3.52" stroke-opacity="1.00" stroke-linejoin="round"/>
</g>
</svg>
