<?xml version="1.0" encoding="UTF-8" standalone="no"?>
<!DOCTYPE svg PUBLIC "-//W3C//DTD SVG 1.1//EN" "http://www.w3.org/Graphics/SVG/1.1/DTD/svg11.dtd">
<svg width="64.20" height="90.84" viewBox="0.00 0.00 535.00 757.00" xmlns="http://www.w3.org/2000/svg" xmlns:xlink="http://www.w3.org/1999/xlink">
<g stroke-linecap="round" transform="translate(44.00, 155.00)" id="28-나무-3">
<path d="M-12.95,30.96 C-12.95,30.96 -12.62,31.95 -12.62,31.95 C-12.62,31.95 -10.48,28.33 -10.48,28.33 C-10.48,28.33 -10.32,28.33 -10.32,28.33 C-10.32,28.33 -10.32,28.33 -10.32,28.33 C-10.32,28.33 -10.23,42.77 -8.66,54.66 C-6.35,70.62 -1.71,96.80 1.15,108.83 C1.75,111.27 3.68,114.63 4.62,116.17" fill="none" stroke="rgb(16, 90, 27)" stroke-width="3.52" stroke-opacity="1.00" stroke-linejoin="round"/>
<path d="M48.84,14.53 C48.84,14.53 48.84,13.87 48.84,13.87 C49.53,23.73 49.49,63.35 49.75,69.09 C50.19,78.47 50.75,81.93 50.73,82.10 C50.69,82.38 50.51,83.25 50.19,84.73" fill="none" stroke="rgb(16, 90, 27)" stroke-width="3.52" stroke-opacity="1.00" stroke-linejoin="round"/>
<path d="M-14.92,52.65 C-14.92,52.65 -14.92,52.32 -14.92,52.32 C-15.26,51.71 -19.67,50.09 -21.51,48.66 C-22.17,48.15 -27.51,43.49 -28.94,41.59 C-30.56,39.40 -33.00,33.39 -33.97,29.97 C-35.52,24.29 -36.15,12.32 -35.17,6.78 C-34.13,1.15 -27.96,-10.68 -24.65,-14.82 C-12.87,-29.39 -3.89,-33.10 -3.54,-32.86 C-2.78,-31.88 -2.33,-30.70 -2.37,-29.28 C-2.42,-27.77 -2.92,-26.34 -3.69,-25.15 C-6.19,-26.28 -7.38,-27.81 -7.80,-30.73 C-8.25,-33.96 -8.10,-38.24 -7.22,-41.10 C-6.37,-43.72 -3.63,-48.45 -1.67,-50.76 C0.34,-53.10 4.79,-56.93 7.55,-58.67 C10.35,-60.41 15.67,-62.75 18.82,-63.68 C21.72,-64.52 27.03,-65.39 29.09,-65.26 C31.21,-65.10 35.17,-63.65 37.46,-62.39 C40.48,-60.68 50.47,-50.78 52.50,-46.66 C53.38,-44.76 54.07,-41.53 53.86,-39.73 C53.63,-38.04 52.15,-35.72 50.63,-34.58 C47.39,-32.28 44.37,-32.35 42.75,-32.89 C42.20,-34.38 41.89,-36.11 42.07,-37.61 C42.31,-39.30 43.80,-41.94 45.25,-43.02 C47.27,-44.47 56.06,-46.40 57.76,-46.54 C61.87,-46.84 74.74,-44.10 79.61,-42.50 C82.09,-41.66 88.83,-37.57 90.76,-35.28 C92.97,-32.56 95.11,-26.05 95.27,-21.83 C95.38,-18.13 94.49,-13.27 93.61,-10.31 C91.34,-2.82 86.34,7.78 82.31,13.35 C78.44,18.66 70.28,26.35 64.48,30.44 C60.01,33.57 52.16,38.04 49.53,38.89 C48.86,39.10 48.19,39.30 47.52,39.51" fill="none" stroke="rgb(16, 90, 27)" stroke-width="3.52" stroke-opacity="1.00" stroke-linejoin="round"/>
</g>
</svg>
