<?xml version="1.0" encoding="UTF-8" standalone="no"?>
<!DOCTYPE svg PUBLIC "-//W3C//DTD SVG 1.1//EN" "http://www.w3.org/Graphics/SVG/1.1/DTD/svg11.dtd">
<svg width="64.20" height="90.84" viewBox="0.00 0.00 535.00 757.00" xmlns="http://www.w3.org/2000/svg" xmlns:xlink="http://www.w3.org/1999/xlink">
<g stroke-linecap="round" transform="translate(44.00, 155.00)" id="28-나무-1">
<path d="M54.35,336.22 C57.01,337.09 59.51,337.00 61.58,335.90 C64.07,334.53 69.18,329.98 71.76,327.20 C73.91,324.84 82.11,311.73 82.86,309.82 C84.22,306.27 84.49,300.88 83.59,298.04 C82.71,295.45 79.16,289.29 76.58,285.87 C74.11,282.66 68.86,278.94 65.01,277.62 C61.87,276.58 53.92,274.61 51.51,274.29 C49.64,274.07 46.72,274.33 45.22,274.91 C43.86,275.48 41.23,277.46 40.23,278.61 C38.45,280.77 37.70,284.61 38.25,285.41 C38.79,286.09 41.55,285.75 43.24,283.70 C45.02,281.50 45.55,277.52 45.09,276.26 C43.88,273.05 40.97,270.03 36.78,266.35 C33.63,263.66 28.81,260.86 24.78,260.21 C21.01,259.66 14.04,260.67 11.16,261.70 C8.16,262.84 3.10,265.50 -0.31,268.51 C-1.99,270.01 -8.51,277.25 -10.12,278.30 C-11.08,278.92 -17.07,281.56 -18.87,283.35 C-20.43,284.96 -23.18,289.45 -24.40,292.30 C-26.85,298.09 -28.61,310.55 -28.78,320.62 C-28.83,323.95 -28.51,329.04 -28.18,330.56 C-27.64,332.87 -25.89,336.81 -24.46,338.22 C-23.24,339.38 -18.45,341.62 -16.50,342.11 C-14.42,342.61 -10.97,342.71 -7.36,342.54 C-4.86,342.40 -1.76,341.18 0.00,340.48" fill="none" stroke="rgb(16, 90, 27)" stroke-width="3.52" stroke-opacity="1.00" stroke-linejoin="round"/>
<path d="M6.83,299.30 C6.83,299.30 5.77,299.94 5.77,299.94 C4.76,304.66 5.90,330.09 5.99,354.98 C6.16,362.50 7.01,373.35 8.19,381.20 C9.54,389.36 11.85,403.24 12.80,408.97 C12.80,408.97 13.62,409.62 13.62,409.62" fill="none" stroke="rgb(16, 90, 27)" stroke-width="3.52" stroke-opacity="1.00" stroke-linejoin="round"/>
<path d="M46.71,317.97 C46.71,317.97 46.29,317.97 46.29,317.97 C46.35,327.45 46.74,336.26 46.16,341.89 C45.02,352.95 44.64,359.61 44.58,369.68 C44.62,374.04 45.29,396.91 45.04,400.24 C45.04,400.24 45.01,398.59 45.01,398.59" fill="none" stroke="rgb(16, 90, 27)" stroke-width="3.52" stroke-opacity="1.00" stroke-linejoin="round"/>
</g>
</svg>
