<?xml version="1.0" encoding="UTF-8" standalone="no"?>
<!DOCTYPE svg PUBLIC "-//W3C//DTD SVG 1.1//EN" "http://www.w3.org/Graphics/SVG/1.1/DTD/svg11.dtd">
<svg width="64.20" height="90.84" viewBox="0.00 0.00 535.00 757.00" xmlns="http://www.w3.org/2000/svg" xmlns:xlink="http://www.w3.org/1999/xlink">
<g stroke-linecap="round" transform="translate(44.00, 155.00)" id="29-물웅덩이-1">
<path d="M386.94,529.31 C386.94,529.31 387.27,529.05 387.27,529.05 C387.05,528.74 386.76,528.50 386.35,528.42 C385.26,528.22 375.94,531.81 368.92,533.55 C364.08,534.82 354.45,539.83 351.58,542.53 C348.77,545.22 344.79,552.67 344.33,553.34 C342.35,556.08 336.74,558.26 332.68,559.05 C330.66,559.42 323.47,560.25 322.69,560.73 C321.71,561.44 321.25,564.54 322.32,566.65 C323.58,569.01 329.18,572.44 333.30,574.28 C337.56,576.13 341.58,577.15 344.79,577.28 C350.60,577.49 366.13,576.59 371.74,576.56 C393.22,576.76 414.86,576.60 416.26,576.40 C419.22,575.96 424.49,573.70 425.52,571.89 C426.14,570.72 425.47,562.93 425.19,561.66 C424.44,558.37 422.21,553.60 419.37,551.14 C416.41,548.65 412.54,547.09 409.09,546.29 C405.75,545.54 399.28,544.02 398.36,543.56 C396.85,542.79 378.28,531.35 376.42,529.57 C375.94,529.11 375.51,528.64 375.14,528.18 C374.96,527.95 374.59,527.45 374.01,526.66" fill="none" stroke="rgb(120, 120, 194)" stroke-width="3.30" stroke-opacity="1.00" stroke-linejoin="round"/>
</g>
</svg>
