<?xml version="1.0" encoding="UTF-8" standalone="no"?>
<!DOCTYPE svg PUBLIC "-//W3C//DTD SVG 1.1//EN" "http://www.w3.org/Graphics/SVG/1.1/DTD/svg11.dtd">
<svg width="64.20" height="90.84" viewBox="0.00 0.00 535.00 757.00" xmlns="http://www.w3.org/2000/svg" xmlns:xlink="http://www.w3.org/1999/xlink">
<g stroke-linecap="round" transform="translate(154.00, 267.00)" id="29-사람">
<path d="M135.58,236.68 C135.28,236.67 134.55,236.70 134.35,236.68 C131.46,236.40 128.57,236.93 125.57,238.60 C123.16,239.99 118.65,243.68 116.93,246.21 C115.72,248.02 113.59,252.94 112.82,255.52 C112.02,258.25 111.17,263.89 111.15,266.67 C111.15,269.93 112.46,275.01 113.69,277.00 C114.90,278.92 118.24,281.43 118.29,281.42 C118.29,281.42 119.24,280.12 119.24,280.12" fill="none" stroke="rgb(33, 228, 63)" stroke-width="3.30" stroke-opacity="1.00" stroke-linejoin="round"/>
<path d="M136.29,236.32 C136.29,236.32 136.11,236.86 136.11,236.86 C136.86,236.89 139.30,237.25 142.01,237.94 C143.43,238.31 148.31,239.67 149.48,240.49 C150.66,241.34 153.85,244.53 155.85,247.47 C157.84,250.43 160.49,259.57 160.86,265.25 C161.02,268.02 160.29,272.45 159.35,274.42 C158.78,275.49 157.77,277.41 157.59,277.53 C157.41,277.63 156.90,277.84 156.04,278.14" fill="none" stroke="rgb(33, 228, 63)" stroke-width="3.30" stroke-opacity="1.00" stroke-linejoin="round"/>
<path d="M127.50,242.06 C127.55,242.14 127.39,242.47 126.91,243.18 C122.85,249.15 119.96,255.96 119.96,258.73 C119.96,258.73 120.37,258.81 120.37,258.81" fill="none" stroke="rgb(33, 228, 63)" stroke-width="3.30" stroke-opacity="1.00" stroke-linejoin="round"/>
<path d="M128.93,243.32 C128.93,243.32 128.53,243.14 128.53,243.14 C128.36,243.27 126.84,250.26 126.72,251.16 C126.47,252.98 126.47,254.85 126.63,255.19 C126.63,255.19 127.70,254.82 127.70,254.82" fill="none" stroke="rgb(33, 228, 63)" stroke-width="3.30" stroke-opacity="1.00" stroke-linejoin="round"/>
<path d="M132.17,242.24 C132.11,242.24 132.05,242.24 131.99,242.24 C131.93,242.24 131.87,242.24 131.81,242.24 C131.81,242.68 131.93,244.13 132.07,245.19 C132.44,247.93 133.88,252.89 133.95,253.47 C133.95,253.47 133.48,253.88 133.48,253.88" fill="none" stroke="rgb(33, 228, 63)" stroke-width="3.30" stroke-opacity="1.00" stroke-linejoin="round"/>
<path d="M133.96,242.78 C134.31,242.87 134.93,243.18 135.33,243.58 C135.95,244.20 142.48,252.62 142.56,252.81 C142.56,252.81 142.22,251.76 142.22,251.76" fill="none" stroke="rgb(33, 228, 63)" stroke-width="3.30" stroke-opacity="1.00" stroke-linejoin="round"/>
<path d="M137.19,242.06 C138.40,242.14 141.78,243.88 144.24,246.36 C147.84,250.08 148.93,254.97 149.02,255.47 C149.02,255.47 148.32,256.06 148.32,256.06" fill="none" stroke="rgb(33, 228, 63)" stroke-width="3.30" stroke-opacity="1.00" stroke-linejoin="round"/>
<path d="M119.24,256.42 C118.87,257.02 118.69,257.45 118.70,257.96 C118.77,259.51 120.10,263.91 121.03,266.03 C122.35,268.99 124.48,271.26 125.52,271.80 C128.77,273.45 132.94,274.15 137.11,274.26 C140.38,274.32 145.23,273.78 147.37,272.97 C149.39,272.18 151.79,270.34 152.61,269.23 C153.57,267.88 154.81,264.20 155.22,261.70 C155.57,259.53 155.45,254.35 155.42,254.30 C155.37,254.23 155.15,253.98 154.78,253.55" fill="none" stroke="rgb(33, 228, 63)" stroke-width="3.30" stroke-opacity="1.00" stroke-linejoin="round"/>
<path d="M119.78,261.09 C119.78,261.09 119.24,260.91 119.24,260.91 C119.24,260.91 119.21,260.81 119.21,260.81 C122.02,259.26 127.94,259.41 131.08,260.19 C131.08,260.19 131.09,260.19 131.09,260.19" fill="none" stroke="rgb(33, 228, 63)" stroke-width="3.30" stroke-opacity="1.00" stroke-linejoin="round"/>
<path d="M139.35,257.86 C139.35,257.86 138.99,257.77 138.99,257.77 C139.49,256.96 142.73,255.94 144.30,256.05 C146.68,256.27 149.46,258.55 149.77,258.99 C149.87,259.15 149.93,259.37 149.94,259.65" fill="none" stroke="rgb(33, 228, 63)" stroke-width="3.30" stroke-opacity="1.00" stroke-linejoin="round"/>
<path d="M132.52,264.50 C132.52,264.50 131.81,265.17 131.81,265.17 C132.13,265.82 134.69,267.07 136.25,267.22 C137.79,267.33 141.16,266.70 143.65,265.83 C143.65,265.83 142.93,266.20 142.93,266.20" fill="none" stroke="rgb(33, 228, 63)" stroke-width="3.30" stroke-opacity="1.00" stroke-linejoin="round"/>
<path d="M118.88,265.58 C118.39,266.10 118.27,268.91 118.63,271.04 C118.95,272.82 120.00,275.57 120.80,276.63 C121.57,277.60 125.76,278.79 126.28,278.89 C126.49,278.92 126.75,279.02 127.06,279.18" fill="none" stroke="rgb(33, 228, 63)" stroke-width="3.30" stroke-opacity="1.00" stroke-linejoin="round"/>
<path d="M154.78,269.35 C154.85,270.72 154.92,273.21 154.85,274.26 C154.67,276.79 153.36,279.90 152.84,280.47 C152.84,280.47 152.27,280.12 152.27,280.12" fill="none" stroke="rgb(33, 228, 63)" stroke-width="3.30" stroke-opacity="1.00" stroke-linejoin="round"/>
<path d="M128.75,277.42 C128.54,277.79 126.33,278.58 125.90,279.00 C125.14,279.80 124.89,283.31 125.25,285.43 C125.45,286.50 126.63,288.70 127.82,289.79 C130.11,291.76 135.35,292.53 135.53,292.59 C135.53,292.59 136.11,292.15 136.11,292.15" fill="none" stroke="rgb(33, 228, 63)" stroke-width="3.30" stroke-opacity="1.00" stroke-linejoin="round"/>
<path d="M145.09,277.78 C145.09,277.78 144.91,277.60 144.91,277.60 C145.75,279.43 146.31,282.41 145.90,284.29 C145.48,286.11 143.21,289.79 142.04,290.76 C140.02,292.33 135.37,292.10 134.98,292.08 C134.98,292.08 133.96,290.89 133.96,290.89" fill="none" stroke="rgb(33, 228, 63)" stroke-width="3.30" stroke-opacity="1.00" stroke-linejoin="round"/>
<path d="M127.68,281.37 C127.68,281.37 127.50,282.00 127.50,282.00 C127.82,282.47 129.76,284.18 130.68,284.61 C131.71,285.07 133.78,285.15 135.05,284.75 C136.18,284.35 142.60,280.19 142.94,280.12 C142.94,280.12 141.67,280.43 141.67,280.43" fill="none" stroke="rgb(33, 228, 63)" stroke-width="3.30" stroke-opacity="1.00" stroke-linejoin="round"/>
<path d="M136.11,275.09 C135.90,275.23 135.61,275.49 135.49,275.72 C135.24,276.21 135.05,281.54 135.04,283.68 C135.04,283.68 135.04,282.99 135.04,282.99" fill="none" stroke="rgb(33, 228, 63)" stroke-width="3.30" stroke-opacity="1.00" stroke-linejoin="round"/>
<path d="M134.50,292.68 C134.12,293.10 133.97,293.48 133.96,294.32 C133.95,297.02 134.82,304.14 134.82,304.17 C134.87,304.54 134.85,305.32 134.86,305.99 C134.86,306.10 134.86,306.21 134.86,306.32" fill="none" stroke="rgb(33, 228, 63)" stroke-width="3.30" stroke-opacity="1.00" stroke-linejoin="round"/>
<path d="M147.96,304.89 C147.67,304.88 147.39,304.88 147.14,304.89 C145.88,304.94 139.45,305.86 139.18,305.92 C138.49,306.08 138.96,314.10 140.06,318.46 C140.26,319.21 140.96,319.46 142.97,319.40 C144.18,319.35 146.36,319.25 146.53,319.22 C146.92,319.15 147.72,318.74 149.04,317.99" fill="none" stroke="rgb(33, 228, 63)" stroke-width="3.30" stroke-opacity="1.00" stroke-linejoin="round"/>
<path d="M138.09,307.58 C137.98,307.45 137.87,307.36 137.77,307.31 C137.39,307.13 135.57,306.88 134.57,306.88 C133.25,306.89 130.14,308.52 129.08,309.76 C128.18,310.86 127.37,314.10 127.54,315.55 C127.76,317.09 129.57,319.02 131.15,319.50 C132.74,319.94 135.78,319.77 137.55,319.46 C137.79,319.42 138.45,319.35 139.52,319.25" fill="none" stroke="rgb(33, 228, 63)" stroke-width="3.30" stroke-opacity="1.00" stroke-linejoin="round"/>
<path d="M136.47,321.76 C136.34,321.85 136.13,322.28 136.11,322.87 C136.04,326.16 137.69,339.65 137.71,343.85 C137.75,349.06 137.34,358.30 137.50,362.27 C137.50,362.27 137.55,361.43 137.55,361.43" fill="none" stroke="rgb(33, 228, 63)" stroke-width="3.30" stroke-opacity="1.00" stroke-linejoin="round"/>
<path d="M122.65,282.45 C119.74,286.35 117.34,288.91 115.88,290.45 C112.25,294.48 106.99,307.08 103.94,312.80 C100.72,318.87 96.38,330.12 95.30,334.05 C93.76,339.79 93.00,347.22 92.66,355.57 C92.50,364.62 93.08,374.59 93.35,375.14 C93.35,375.14 94.83,374.35 94.83,374.35" fill="none" stroke="rgb(33, 228, 63)" stroke-width="3.30" stroke-opacity="1.00" stroke-linejoin="round"/>
<path d="M155.14,280.12 C155.14,280.12 154.96,280.12 154.96,280.12 C154.98,280.21 165.29,292.98 166.44,294.75 C168.54,298.01 173.92,309.76 175.95,314.91 C177.81,319.74 178.10,326.87 178.27,339.32 C178.37,349.64 176.23,365.26 175.76,366.96 C175.70,367.16 175.59,367.41 175.42,367.71" fill="none" stroke="rgb(33, 228, 63)" stroke-width="3.30" stroke-opacity="1.00" stroke-linejoin="round"/>
<path d="M104.16,377.94 C104.16,377.94 103.98,377.94 103.98,377.94 C107.94,377.91 112.42,377.36 114.82,377.28 C118.18,377.18 132.68,378.62 137.37,378.67 C145.60,378.73 156.82,376.88 161.48,376.10 C166.16,375.31 178.11,374.17 178.41,374.00 C178.46,373.72 178.63,368.63 178.37,368.04 C178.29,367.87 178.20,367.70 178.12,367.53" fill="none" stroke="rgb(33, 228, 63)" stroke-width="3.30" stroke-opacity="1.00" stroke-linejoin="round"/>
<path d="M104.52,306.32 C104.52,306.32 103.80,305.96 103.80,305.96 C103.80,305.96 103.80,305.47 103.80,305.47 C103.21,306.69 99.79,309.51 97.46,310.09 C93.52,311.06 84.77,313.13 83.44,314.09 C82.40,314.88 81.33,317.26 81.34,318.84 C81.37,320.56 82.26,323.57 83.71,325.40 C84.33,326.16 85.93,326.53 86.67,326.03 C87.99,325.10 90.81,321.34 90.97,321.16 C93.58,318.42 101.21,316.23 101.45,316.23 C101.54,316.24 101.67,316.28 101.83,316.37" fill="none" stroke="rgb(33, 228, 63)" stroke-width="3.30" stroke-opacity="1.00" stroke-linejoin="round"/>
<path d="M91.24,314.94 C90.88,314.95 90.71,314.94 88.12,316.46 C87.56,316.79 84.78,318.34 84.44,318.51 C84.24,318.61 83.98,318.72 83.66,318.84" fill="none" stroke="rgb(33, 228, 63)" stroke-width="3.30" stroke-opacity="1.00" stroke-linejoin="round"/>
<path d="M120.18,380.00 C120.18,380.00 119.92,380.34 119.92,380.34 C119.91,380.84 119.95,382.06 119.99,382.98 C120.07,384.92 121.54,391.44 121.34,394.37 C121.26,395.40 123.36,420.38 123.03,420.95 C122.95,420.99 119.15,419.25 117.66,419.01 C115.84,418.76 113.67,419.86 112.89,421.43 C112.35,422.57 111.94,425.62 112.24,426.66 C112.60,427.81 114.83,428.76 117.99,428.52 C122.27,428.17 137.06,425.13 137.83,424.84 C137.88,424.59 133.11,379.73 133.04,378.20 C133.03,378.02 133.03,377.85 133.04,377.69" fill="none" stroke="rgb(33, 228, 63)" stroke-width="3.30" stroke-opacity="1.00" stroke-linejoin="round"/>
<path d="M124.03,401.86 C124.03,401.86 123.01,401.86 123.01,401.86 C123.01,401.86 136.86,400.81 136.86,400.81 C136.86,400.81 136.89,400.43 136.89,400.43" fill="none" stroke="rgb(33, 228, 63)" stroke-width="3.30" stroke-opacity="1.00" stroke-linejoin="round"/>
<path d="M149.24,378.97 C149.24,378.97 148.98,379.49 148.98,379.49 C148.98,379.49 147.22,427.92 147.22,427.92 C146.21,428.05 141.67,429.68 139.56,430.24 C136.66,430.98 132.72,430.60 131.84,430.10 C131.40,429.83 131.11,429.32 130.69,428.19 C130.69,428.19 133.04,425.27 133.04,425.27" fill="none" stroke="rgb(33, 228, 63)" stroke-width="3.30" stroke-opacity="1.00" stroke-linejoin="round"/>
<path d="M138.44,404.18 C138.44,404.18 137.67,404.18 137.67,404.18 C137.93,404.26 142.07,402.60 142.97,402.50 C143.44,402.44 147.15,402.36 147.30,402.38 C147.46,402.40 147.85,402.49 148.47,402.64" fill="none" stroke="rgb(33, 228, 63)" stroke-width="3.30" stroke-opacity="1.00" stroke-linejoin="round"/>
</g>
</svg>
