<?xml version="1.0" encoding="UTF-8" standalone="no"?>
<!DOCTYPE svg PUBLIC "-//W3C//DTD SVG 1.1//EN" "http://www.w3.org/Graphics/SVG/1.1/DTD/svg11.dtd">
<svg width="64.20" height="90.84" viewBox="0.00 0.00 535.00 757.00" xmlns="http://www.w3.org/2000/svg" xmlns:xlink="http://www.w3.org/1999/xlink">
<g stroke-linecap="round" transform="translate(156.00, 267.00)" id="29-우산">
<path d="M92.10,156.22 C90.56,155.03 91.60,148.12 92.11,146.18 C93.55,145.15 96.17,145.39 96.95,146.34 C97.54,147.19 97.98,151.72 98.11,156.28 C98.11,156.56 98.11,156.91 98.11,157.32" fill="none" stroke="rgb(255, 242, 0)" stroke-width="3.30" stroke-opacity="1.00" stroke-linejoin="round"/>
<path d="M98.81,157.99 C97.35,158.91 96.19,159.59 95.48,159.87 C94.90,160.09 89.40,160.32 85.76,161.17 C80.45,162.47 66.92,167.67 62.54,170.16 C54.57,174.80 48.81,179.49 42.72,185.30 C36.15,191.65 30.16,198.31 28.50,200.92 C22.14,211.05 15.71,229.97 15.24,231.39 C15.24,231.39 15.85,232.05 15.85,232.05" fill="none" stroke="rgb(255, 242, 0)" stroke-width="3.30" stroke-opacity="1.00" stroke-linejoin="round"/>
<path d="M100.23,161.52 C100.23,161.52 99.52,161.52 99.52,161.52 C100.46,161.33 103.42,160.85 104.33,160.86 C104.79,160.87 111.19,162.42 116.86,163.15 C121.77,163.77 135.06,166.32 139.80,168.28 C143.46,169.82 147.36,172.48 150.08,174.71 C153.73,177.81 161.37,187.10 163.94,191.00 C170.72,201.90 184.30,223.54 185.70,229.74 C185.70,229.74 185.78,229.07 185.78,229.07" fill="none" stroke="rgb(255, 242, 0)" stroke-width="3.30" stroke-opacity="1.00" stroke-linejoin="round"/>
<path d="M14.32,234.00 C14.32,234.00 14.32,233.82 14.32,233.82 C15.79,232.47 21.09,229.18 23.58,228.21 C26.64,227.06 30.13,226.43 35.28,225.84 C38.01,225.55 40.25,225.70 41.39,226.41 C42.65,227.24 49.99,237.08 51.01,237.76 C51.94,235.60 54.18,232.01 56.45,229.12 C58.31,226.86 62.42,224.18 65.21,224.05 C67.85,224.00 74.23,226.49 76.66,228.55 C78.58,230.40 81.88,233.45 82.68,233.38 C83.41,233.19 88.93,227.34 89.53,226.75 C90.89,225.44 93.26,223.92 94.74,223.44 C97.13,222.71 103.57,222.69 105.62,223.09 C110.16,224.04 113.99,226.45 116.33,229.09 C117.34,230.24 118.85,231.63 119.66,232.10 C120.05,232.30 132.76,225.02 135.78,224.33 C139.42,223.56 144.42,224.73 147.63,226.35 C152.07,228.58 153.22,229.08 154.57,228.69 C158.47,227.50 164.51,226.00 167.22,225.70 C170.44,225.38 174.61,225.53 177.39,226.18 C178.47,226.44 182.83,227.60 183.59,227.85 C184.03,228.00 184.76,228.28 185.78,228.69" fill="none" stroke="rgb(255, 242, 0)" stroke-width="3.30" stroke-opacity="1.00" stroke-linejoin="round"/>
<path d="M90.68,162.23 C90.68,162.23 89.97,162.58 89.97,162.58 C90.21,162.05 86.60,164.32 84.05,166.78 C78.96,171.74 75.04,177.00 67.87,187.59 C64.61,192.43 58.08,206.62 57.83,207.32 C57.75,207.55 57.74,207.84 57.80,208.19" fill="none" stroke="rgb(255, 242, 0)" stroke-width="3.30" stroke-opacity="1.00" stroke-linejoin="round"/>
<path d="M95.28,162.23 C95.28,162.23 95.28,162.05 95.28,162.05 C95.28,162.05 95.10,161.87 95.10,161.87 C95.10,161.87 94.92,161.87 94.92,161.87 C94.30,165.45 90.21,181.01 89.71,184.53 C89.48,186.21 88.56,204.04 88.13,205.99 C88.08,206.19 87.99,206.45 87.86,206.77" fill="none" stroke="rgb(255, 242, 0)" stroke-width="3.30" stroke-opacity="1.00" stroke-linejoin="round"/>
<path d="M99.17,164.35 C99.17,164.35 98.99,164.35 98.99,164.35 C99.22,164.95 106.16,178.53 107.04,180.60 C113.82,196.48 116.79,205.16 117.23,206.41 C117.23,206.41 117.20,205.01 117.20,205.01" fill="none" stroke="rgb(255, 242, 0)" stroke-width="3.30" stroke-opacity="1.00" stroke-linejoin="round"/>
<path d="M105.88,161.52 C106.10,161.81 106.80,161.96 107.08,162.05 C108.05,162.39 122.78,173.36 125.25,176.00 C131.69,182.80 138.80,191.04 140.99,194.53 C141.34,195.09 143.73,199.73 145.31,203.30 C145.51,203.73 145.80,204.30 146.19,205.01" fill="none" stroke="rgb(255, 242, 0)" stroke-width="3.30" stroke-opacity="1.00" stroke-linejoin="round"/>
<path d="M92.10,225.51 C92.10,225.45 92.10,225.63 92.10,225.69 C92.11,241.94 93.28,267.18 93.99,279.08 C94.20,282.76 94.01,299.54 92.97,304.42 C92.60,306.08 91.70,307.11 90.19,307.94 C88.27,308.88 84.66,309.06 83.07,308.11 C82.29,307.63 80.48,306.32 80.35,306.33 C80.09,307.40 80.28,311.70 81.14,314.46 C81.98,317.07 83.78,318.50 85.80,319.53 C86.07,319.66 86.28,319.71 86.41,319.69 C86.63,319.66 87.23,319.49 88.21,319.20" fill="none" stroke="rgb(255, 242, 0)" stroke-width="3.30" stroke-opacity="1.00" stroke-linejoin="round"/>
<path d="M97.04,224.81 C97.04,224.81 96.69,225.26 96.69,225.26 C96.75,227.86 96.92,233.70 97.04,236.95 C98.73,289.91 98.81,301.19 98.81,303.88 C98.81,303.88 98.11,303.65 98.11,303.65" fill="none" stroke="rgb(255, 242, 0)" stroke-width="3.30" stroke-opacity="1.00" stroke-linejoin="round"/>
</g>
</svg>
