<?xml version="1.0" encoding="UTF-8" standalone="no"?>
<!DOCTYPE svg PUBLIC "-//W3C//DTD SVG 1.1//EN" "http://www.w3.org/Graphics/SVG/1.1/DTD/svg11.dtd">
<svg width="64.20" height="90.84" viewBox="0.00 0.00 535.00 757.00" xmlns="http://www.w3.org/2000/svg" xmlns:xlink="http://www.w3.org/1999/xlink">
<g stroke-linecap="round" transform="translate(154.00, 267.00)" id="3-사람">
<path d="M82.22,-26.59 C82.22,-26.59 83.25,-27.57 83.25,-27.57" fill="none" stroke="rgb(0, 0, 0)" stroke-width="3.43" stroke-opacity="1.00" stroke-linejoin="round"/>
<path d="M86.25,-32.50 C86.25,-32.50 85.71,-32.50 85.71,-32.50 C85.03,-30.62 81.42,-13.91 81.04,-7.99 C80.50,1.25 80.21,11.62 81.46,16.65 C82.13,19.29 83.87,23.95 85.75,26.84 C87.76,29.88 92.93,34.14 95.86,35.26 C98.29,36.15 105.92,36.83 108.59,36.34 C111.20,35.84 116.36,33.50 118.22,32.32 C120.84,30.63 128.28,22.66 130.25,19.14 C131.44,16.98 133.57,12.09 134.18,9.60 C135.42,4.43 136.08,-9.68 135.74,-15.58 C134.93,-27.23 134.94,-29.46 134.88,-29.83 C134.86,-29.96 134.77,-30.23 134.62,-30.62" fill="none" stroke="rgb(229, 239, 28)" stroke-width="3.43" stroke-opacity="1.00" stroke-linejoin="round"/>
<path d="M80.07,-26.86 C80.07,-26.86 79.53,-26.86 79.53,-26.86 C79.53,-26.86 79.63,-27.08 79.63,-27.08 C80.05,-27.19 86.48,-26.20 90.22,-25.24 C95.31,-23.92 109.47,-23.85 113.61,-24.75 C119.62,-26.08 135.64,-33.79 135.54,-33.74 C135.56,-33.91 135.56,-34.03 135.54,-34.09 C135.53,-34.16 135.49,-34.25 135.42,-34.38" fill="none" stroke="rgb(229, 239, 28)" stroke-width="3.43" stroke-opacity="1.00" stroke-linejoin="round"/>
<path d="M119.84,-54.53 C118.19,-55.54 115.79,-56.15 112.48,-55.40 C111.32,-55.12 107.27,-53.51 104.36,-52.21 C101.07,-50.69 89.39,-41.10 85.76,-36.34 C81.62,-30.85 73.82,-16.84 71.66,-10.27 C70.10,-5.42 67.36,8.13 67.07,14.14 C66.74,22.93 67.54,25.67 68.03,26.80 C68.83,27.16 83.66,28.49 84.14,28.60 C84.39,28.66 84.82,28.81 85.44,29.04" fill="none" stroke="rgb(229, 239, 28)" stroke-width="3.43" stroke-opacity="1.00" stroke-linejoin="round"/>
<path d="M117.15,-55.07 C119.68,-55.44 121.70,-55.01 125.56,-52.81 C126.51,-52.31 135.31,-48.34 138.76,-45.97 C141.36,-44.06 144.63,-40.85 146.24,-37.06 C147.56,-33.89 150.20,-22.87 151.07,-16.33 C152.24,-6.86 152.60,19.83 152.89,21.51 C150.14,21.45 145.81,21.71 140.46,22.29 C137.03,22.66 133.38,22.83 132.20,22.86" fill="none" stroke="rgb(229, 239, 28)" stroke-width="3.43" stroke-opacity="1.00" stroke-linejoin="round"/>
<path d="M97.26,-6.70 C97.26,-6.70 97.00,-6.70 97.00,-6.70 C97.00,-6.70 97.12,-5.95 97.12,-5.95 C97.12,-5.95 98.51,-7.78 98.51,-7.78 C98.51,-7.78 98.37,-6.93 98.37,-6.93" fill="none" stroke="rgb(229, 239, 28)" stroke-width="3.43" stroke-opacity="1.00" stroke-linejoin="round"/>
<path d="M118.76,-8.04 C117.81,-7.98 117.16,-7.80 116.88,-7.46 C116.65,-7.17 116.60,-6.76 116.69,-6.43 C116.69,-6.43 119.04,-7.68 119.04,-7.68 C119.04,-7.68 116.33,-6.13 116.33,-6.13 C116.33,-6.13 116.08,-4.55 116.08,-4.55" fill="none" stroke="rgb(229, 239, 28)" stroke-width="3.43" stroke-opacity="1.00" stroke-linejoin="round"/>
<path d="M103.98,7.00 C103.98,7.00 103.28,7.34 103.28,7.34 C103.28,7.34 108.01,8.27 108.01,8.27 C108.01,8.27 107.82,8.73 107.82,8.73" fill="none" stroke="rgb(229, 239, 28)" stroke-width="3.43" stroke-opacity="1.00" stroke-linejoin="round"/>
<path d="M99.95,19.90 C99.70,20.39 99.64,20.55 99.73,20.72 C100.26,21.61 103.15,22.79 105.68,23.01 C110.16,23.34 113.67,21.37 113.75,21.32 C113.75,21.32 115.00,22.86 115.00,22.86" fill="none" stroke="rgb(229, 239, 28)" stroke-width="3.43" stroke-opacity="1.00" stroke-linejoin="round"/>
<path d="M100.76,36.56 C100.74,36.59 100.74,36.68 100.76,36.83 C101.05,39.68 101.79,47.37 102.05,48.27 C102.12,48.52 102.30,48.98 102.58,49.62 C102.58,49.62 103.28,47.81 103.28,47.81" fill="none" stroke="rgb(229, 239, 28)" stroke-width="3.43" stroke-opacity="1.00" stroke-linejoin="round"/>
<path d="M112.31,34.68 C111.74,36.36 111.28,40.77 111.24,42.57 C111.21,43.55 111.24,46.38 111.18,46.69 C111.16,46.79 111.09,46.98 110.99,47.24" fill="none" stroke="rgb(229, 239, 28)" stroke-width="3.43" stroke-opacity="1.00" stroke-linejoin="round"/>
<path d="M115.54,47.58 C114.42,47.20 107.88,47.78 106.56,47.83 C102.83,47.93 96.75,47.45 94.07,46.76 C92.09,46.23 80.31,39.93 78.21,38.65 C68.76,32.74 64.03,30.37 55.53,26.65 C46.45,22.61 38.40,18.06 32.86,13.67 C32.84,13.65 12.62,-4.51 11.74,-5.30 C11.74,-5.30 11.81,-4.82 11.81,-4.82" fill="none" stroke="rgb(229, 239, 28)" stroke-width="3.43" stroke-opacity="1.00" stroke-linejoin="round"/>
<path d="M9.93,2.44 C9.93,2.44 8.79,2.64 8.79,2.64 C8.01,2.16 7.19,-0.68 7.03,-4.49 C6.84,-8.93 5.87,-13.14 4.69,-15.97 C3.81,-17.88 1.08,-23.91 1.04,-23.96 C-0.53,-26.38 -4.94,-29.95 -6.34,-29.95 C-7.95,-29.89 -10.77,-27.77 -11.71,-26.38 C-13.64,-23.46 -15.96,-17.45 -16.72,-14.42 C-17.52,-11.21 -18.50,-3.76 -18.49,-0.36 C-18.47,2.98 -17.28,8.32 -16.19,10.50 C-15.15,12.48 -11.50,16.06 -9.73,16.97 C-7.65,18.01 -4.80,19.06 -4.61,19.05 C-4.43,19.03 -4.01,18.88 -3.35,18.62" fill="none" stroke="rgb(229, 239, 28)" stroke-width="3.43" stroke-opacity="1.00" stroke-linejoin="round"/>
<path d="M2.14,-2.94 C2.14,-2.94 1.12,-2.86 1.12,-2.86 C0.95,-2.93 0.70,-2.05 0.34,-0.09 C-0.41,4.41 -2.08,11.19 -5.79,19.58 C-6.20,20.58 -7.17,23.28 -7.77,24.69 C-6.26,24.31 -3.92,24.39 -0.11,26.41 C1.77,27.43 11.57,34.64 16.50,37.18 C19.88,38.90 58.50,50.74 67.93,53.49 C70.97,54.34 74.92,55.02 77.24,55.10 C77.44,55.11 77.66,55.11 77.92,55.11" fill="none" stroke="rgb(229, 239, 28)" stroke-width="3.43" stroke-opacity="1.00" stroke-linejoin="round"/>
<path d="M79.26,55.37 C79.15,55.15 79.04,54.93 78.92,54.70 C78.86,54.57 78.79,54.43 78.72,54.30 C78.32,56.42 74.20,71.07 73.15,76.16 C71.27,85.21 67.67,95.43 66.70,98.67 C64.33,106.92 59.90,119.84 58.52,124.24 C56.62,130.59 50.20,158.42 48.57,163.16 C49.13,163.65 96.69,159.50 98.95,159.48 C113.46,159.45 148.59,159.39 152.58,159.63 C159.66,160.10 165.03,160.98 166.01,161.13 C166.01,161.13 168.48,158.83 168.48,158.83" fill="none" stroke="rgb(229, 239, 28)" stroke-width="3.43" stroke-opacity="1.00" stroke-linejoin="round"/>
<path d="M147.78,69.62 C147.78,69.62 147.52,69.62 147.52,69.62 C149.12,70.49 152.70,74.82 154.39,78.46 C154.83,79.40 157.90,87.12 159.36,91.40 C160.69,95.39 163.44,116.44 163.61,119.79 C163.64,120.57 163.67,133.72 164.74,145.21 C164.87,146.65 165.24,153.76 165.21,154.81 C165.21,154.81 164.45,154.27 164.45,154.27" fill="none" stroke="rgb(229, 239, 28)" stroke-width="3.43" stroke-opacity="1.00" stroke-linejoin="round"/>
<path d="M113.39,46.24 C113.39,46.24 113.12,45.70 113.12,45.70 C114.13,45.65 117.48,45.21 119.26,45.68 C122.29,46.49 124.71,46.65 127.48,46.08 C130.57,45.42 136.44,44.51 139.43,43.40 C144.86,41.33 175.14,25.19 187.77,17.67 C199.17,10.92 225.70,-4.45 229.68,-7.03 C237.51,-12.18 242.71,-14.16 242.90,-14.23 C242.90,-14.23 248.28,-0.79 248.28,-0.79 C248.18,-0.64 234.68,8.02 227.40,13.60 C219.55,19.71 197.61,39.46 192.22,43.63 C188.37,46.65 165.88,67.78 163.36,69.77 C161.95,70.88 160.21,72.06 157.73,73.64 C157.73,73.64 159.88,71.50 159.88,71.50" fill="none" stroke="rgb(229, 239, 28)" stroke-width="3.43" stroke-opacity="1.00" stroke-linejoin="round"/>
<path d="M240.76,-13.96 C240.82,-14.51 240.49,-15.84 240.36,-16.34 C240.07,-17.70 242.58,-22.54 244.74,-24.57 C246.48,-26.16 251.86,-27.46 253.80,-27.02 C254.90,-26.73 256.86,-25.40 257.74,-24.30 C258.67,-23.08 260.08,-19.92 260.32,-18.33 C260.77,-15.00 259.18,-10.01 258.15,-8.27 C256.93,-6.29 255.02,-3.95 253.91,-3.22 C252.87,-2.59 250.83,-2.39 249.35,-2.71 C248.96,-2.80 247.98,-3.05 246.41,-3.48" fill="none" stroke="rgb(229, 239, 28)" stroke-width="3.43" stroke-opacity="1.00" stroke-linejoin="round"/>
<path d="M79.18,159.31 C79.18,159.31 78.09,159.40 78.09,159.40 C77.24,160.58 72.32,172.41 68.09,180.73 C60.72,195.05 52.76,215.74 49.05,224.14 C47.06,228.61 46.64,231.92 46.95,235.85 C47.25,238.55 51.08,260.27 51.62,264.17 C52.43,270.15 53.29,285.74 54.34,292.34 C55.32,298.33 57.99,309.17 61.12,319.52 C63.36,326.50 67.08,337.91 67.44,338.68 C69.93,338.43 75.08,335.99 77.81,334.89 C85.95,331.61 93.97,329.80 94.60,329.24 C94.32,327.55 90.35,310.73 88.93,303.03 C83.35,269.58 82.10,238.99 82.54,238.29 C87.19,230.97 102.45,204.05 109.01,193.35 C112.61,187.70 118.62,178.41 119.06,177.93 C119.29,177.68 119.85,177.14 120.74,176.33" fill="none" stroke="rgb(229, 239, 28)" stroke-width="3.43" stroke-opacity="1.00" stroke-linejoin="round"/>
<path d="M119.95,175.14 C119.95,175.14 119.95,174.54 119.95,174.54 C120.05,174.48 121.86,175.31 125.67,182.30 C130.52,191.42 136.50,201.61 139.15,206.46 C144.41,216.48 146.89,221.89 148.34,227.38 C148.67,228.70 149.18,244.18 150.00,250.73 C150.94,258.02 153.56,269.23 156.03,277.48 C160.05,291.19 168.56,320.53 172.37,330.91 C173.61,334.07 175.46,338.79 176.09,339.32 C193.28,339.21 203.29,341.59 203.96,341.45 C203.96,341.45 205.05,333.06 205.05,333.06" fill="none" stroke="rgb(229, 239, 28)" stroke-width="3.43" stroke-opacity="1.00" stroke-linejoin="round"/>
<path d="M164.28,159.31 C164.28,159.31 163.09,158.91 163.09,158.91 C164.98,161.56 172.80,179.76 174.50,182.91 C175.60,184.94 184.17,199.61 186.94,205.71 C189.60,211.62 191.79,222.19 192.30,229.37 C192.98,239.44 193.63,244.83 195.68,255.80 C197.14,263.73 196.71,275.99 196.32,282.15 C195.77,291.52 195.65,299.96 196.46,307.30 C196.71,309.58 204.12,339.23 204.46,341.05 C204.46,341.05 203.86,341.77 203.86,341.77" fill="none" stroke="rgb(229, 239, 28)" stroke-width="3.43" stroke-opacity="1.00" stroke-linejoin="round"/>
<path d="M186.05,343.36 C185.28,343.23 180.94,341.85 177.03,344.04 C174.63,345.44 170.97,349.87 170.09,352.50 C169.35,354.89 170.13,358.31 171.65,359.32 C173.10,360.22 177.77,360.75 180.96,360.67 C183.94,360.58 189.08,359.55 191.91,358.56 C194.60,357.59 197.96,355.30 198.91,353.80 C200.01,352.02 201.11,349.04 201.52,346.62 C202.14,342.86 201.70,339.24 201.48,337.42" fill="none" stroke="rgb(229, 239, 28)" stroke-width="3.43" stroke-opacity="1.00" stroke-linejoin="round"/>
<path d="M74.83,336.23 C74.83,336.23 75.22,336.23 75.22,336.23 C74.62,336.33 65.97,351.70 63.61,357.30 C62.80,359.25 60.58,366.00 60.43,368.28 C60.37,369.53 60.80,371.76 61.25,372.60 C62.27,374.32 66.49,376.09 69.13,375.82 C71.68,375.52 76.34,373.14 78.41,371.08 C81.93,367.51 85.27,359.48 88.28,350.60 C89.38,347.25 91.34,340.31 91.67,338.30 C91.93,336.67 92.16,334.11 92.22,332.62" fill="none" stroke="rgb(229, 239, 28)" stroke-width="3.43" stroke-opacity="1.00" stroke-linejoin="round"/>
</g>
</svg>
