<?xml version="1.0" encoding="UTF-8" standalone="no"?>
<!DOCTYPE svg PUBLIC "-//W3C//DTD SVG 1.1//EN" "http://www.w3.org/Graphics/SVG/1.1/DTD/svg11.dtd">
<svg width="64.20" height="90.84" viewBox="0.00 0.00 535.00 757.00" xmlns="http://www.w3.org/2000/svg" xmlns:xlink="http://www.w3.org/1999/xlink">
<g stroke-linecap="round" transform="translate(44.00, 155.00)" id="3-물웅덩이">
<path d="M216.05,323.20 C226.89,323.32 238.19,323.09 244.97,321.36 C248.79,320.36 251.02,319.47 252.19,318.93 C252.19,318.93 250.49,318.26 250.49,318.26" fill="none" stroke="rgb(28, 114, 239)" stroke-width="3.43" stroke-opacity="1.00" stroke-linejoin="round"/>
<path d="M153.40,338.36 C152.24,337.96 148.56,336.77 146.30,336.57 C144.07,336.40 112.09,344.71 107.91,346.62 C100.03,350.28 94.33,354.43 92.48,356.06 C90.93,357.49 90.41,358.74 90.58,360.79 C90.64,361.38 90.69,362.15 90.75,363.11" fill="none" stroke="rgb(28, 114, 239)" stroke-width="3.43" stroke-opacity="1.00" stroke-linejoin="round"/>
<path d="M143.29,341.89 C138.90,341.89 135.94,342.15 133.73,343.13 C128.73,345.45 120.24,351.61 111.97,358.55 C108.95,361.11 103.58,365.67 102.67,366.94 C102.67,366.94 104.90,368.17 104.90,368.17" fill="none" stroke="rgb(28, 114, 239)" stroke-width="3.43" stroke-opacity="1.00" stroke-linejoin="round"/>
<path d="M130.66,356.54 C130.06,356.90 128.67,358.27 127.63,359.58 C124.03,364.11 113.59,374.70 112.49,375.59 C109.53,377.94 103.62,381.04 100.59,382.17 C93.98,384.59 84.38,385.82 81.65,385.34 C84.73,387.08 91.68,391.04 94.45,393.12 C96.48,394.67 101.30,399.41 103.16,401.87 C105.16,404.56 107.78,410.19 108.34,413.18 C108.88,416.25 108.26,422.25 107.13,425.11 C106.04,427.76 102.58,432.81 100.52,435.06 C96.97,438.89 87.32,446.21 80.35,449.85 C73.18,453.57 63.98,456.01 61.75,456.08 C69.15,457.06 83.39,460.50 89.04,462.75 C94.57,464.98 105.42,472.62 109.32,477.04 C112.63,480.85 117.32,490.05 118.49,494.77 C119.04,497.09 119.63,505.49 119.48,508.04 C119.31,510.48 117.76,519.11 116.90,521.91 C115.90,525.07 111.76,534.43 111.45,535.42 C112.33,535.11 118.32,531.59 122.02,530.39 C125.56,529.27 131.47,528.91 134.02,529.09 C138.96,529.49 148.42,532.48 153.59,535.31 C155.66,536.46 158.95,538.75 162.79,541.64 C165.59,543.81 170.46,548.82 172.09,551.11 C174.21,554.13 177.92,561.40 178.49,562.57 C180.32,561.16 185.34,555.02 187.01,553.22 C190.47,549.50 202.01,540.99 209.96,536.73 C215.14,533.97 225.52,530.58 230.85,529.79 C234.93,529.19 251.58,527.93 258.93,528.15 C261.52,528.24 274.83,531.20 283.79,534.53 C296.76,539.56 314.82,548.74 317.99,550.39 C321.00,539.50 323.92,529.90 326.95,523.50 C329.95,517.19 338.09,505.27 341.65,501.51 C343.83,499.22 348.53,495.14 351.84,492.96 C356.97,489.62 369.17,484.94 375.72,483.58 C382.06,482.24 397.24,478.54 404.55,476.69 C400.36,475.20 394.94,473.12 392.50,471.76 C388.10,469.24 383.39,465.37 382.13,462.40 C381.10,459.82 380.85,453.73 381.17,450.80 C381.54,447.58 383.69,440.99 385.55,437.33 C387.52,433.52 391.62,427.89 394.36,425.25 C398.44,421.38 410.35,414.25 416.98,411.50 C432.06,405.45 456.23,395.67 465.32,391.93 C455.39,390.62 444.41,388.29 439.57,386.19 C436.57,384.87 432.34,381.71 430.71,379.54 C429.43,377.79 427.30,373.14 427.00,369.34 C426.86,367.39 427.06,364.01 427.17,363.45 C424.31,363.52 408.90,364.91 401.65,364.51 C397.11,364.23 385.65,361.25 379.54,358.45 C373.40,355.62 360.92,347.63 358.44,344.38 C356.79,342.13 356.00,336.55 356.71,333.51 C357.18,331.59 359.65,325.18 361.43,322.49 C362.21,321.32 367.10,315.15 368.99,312.80 C368.93,312.76 364.78,315.17 361.64,316.50 C355.12,319.23 339.41,323.31 332.39,324.53 C318.09,326.98 304.98,326.05 301.45,325.22 C301.45,325.22 300.56,325.65 300.56,325.65" fill="none" stroke="rgb(28, 114, 239)" stroke-width="3.43" stroke-opacity="1.00" stroke-linejoin="round"/>
</g>
</svg>
