<?xml version="1.0" encoding="UTF-8" standalone="no"?>
<!DOCTYPE svg PUBLIC "-//W3C//DTD SVG 1.1//EN" "http://www.w3.org/Graphics/SVG/1.1/DTD/svg11.dtd">
<svg width="64.20" height="90.84" viewBox="0.00 0.00 535.00 757.00" xmlns="http://www.w3.org/2000/svg" xmlns:xlink="http://www.w3.org/1999/xlink">
<g stroke-linecap="round" transform="translate(44.00, 155.00)" id="30-가방">
<path d="M213.91,211.26 C212.90,211.25 212.12,211.27 211.48,211.36 C208.59,211.78 205.05,212.74 202.54,213.96 C201.99,214.24 197.15,217.18 196.57,218.33 C196.10,219.32 195.85,225.06 195.89,225.37 C195.92,225.50 195.99,225.68 196.12,225.90" fill="none" stroke="rgb(71, 160, 85)" stroke-width="2.96" stroke-opacity="1.00" stroke-linejoin="round"/>
<path d="M237.57,205.85 C237.57,205.85 237.00,205.85 237.00,205.85 C237.00,205.85 236.89,205.77 236.89,205.77 C237.87,204.39 245.17,201.71 256.42,198.31 C264.22,195.93 272.56,194.67 275.37,195.28 C276.98,195.67 280.39,199.17 280.94,201.01 C281.08,201.51 281.23,203.06 281.27,203.60" fill="none" stroke="rgb(71, 160, 85)" stroke-width="2.96" stroke-opacity="1.00" stroke-linejoin="round"/>
<path d="M192.74,229.06 C194.37,228.04 195.02,227.66 195.71,227.47 C202.41,225.55 214.36,222.24 222.21,219.99 C229.81,217.77 245.57,212.18 248.50,211.26 C260.41,207.79 275.21,203.39 278.12,202.47 C278.12,202.47 277.66,202.47 277.66,202.47" fill="none" stroke="rgb(71, 160, 85)" stroke-width="2.96" stroke-opacity="1.00" stroke-linejoin="round"/>
<path d="M193.42,231.76 C193.42,231.76 193.75,230.86 193.75,230.86 C195.02,230.83 197.26,231.62 198.53,232.74 C211.00,243.85 217.07,252.91 217.92,253.90 C218.51,253.84 222.87,252.04 225.46,251.28 C237.59,248.03 256.34,242.82 264.02,241.19 C264.43,240.44 265.40,235.32 266.24,233.17 C268.59,227.16 278.90,207.82 278.70,207.38 C278.65,207.30 278.61,207.17 278.57,206.98" fill="none" stroke="rgb(71, 160, 85)" stroke-width="2.96" stroke-opacity="1.00" stroke-linejoin="round"/>
<path d="M233.74,240.99 C233.74,240.99 233.51,240.77 233.51,240.77 C233.92,242.29 235.42,248.53 235.72,249.06 C236.37,250.18 238.11,251.41 239.08,251.71 C240.19,252.01 242.24,251.43 243.54,250.50 C244.79,249.56 246.16,247.48 246.08,245.21 C245.96,242.70 245.52,240.41 245.24,239.68 C245.19,239.54 245.11,239.38 245.00,239.19" fill="none" stroke="rgb(71, 160, 85)" stroke-width="2.96" stroke-opacity="1.00" stroke-linejoin="round"/>
<path d="M191.84,230.63 C191.84,230.63 191.84,230.46 191.84,230.46 C192.21,232.78 192.54,239.87 192.67,241.07 C192.81,242.41 194.30,249.34 194.31,252.23 C193.89,262.55 193.48,273.99 193.94,274.95 C194.62,275.34 200.58,273.20 201.87,272.77 C206.72,271.17 220.42,268.76 223.96,268.01 C227.96,267.15 274.86,254.00 276.67,253.74 C278.87,253.44 284.73,252.91 285.09,252.70 C285.74,252.24 286.01,242.77 286.81,234.58 C287.19,230.26 287.00,215.22 285.05,209.75 C284.61,208.56 283.65,206.45 282.94,204.99 C282.94,204.99 281.94,205.18 281.94,205.18" fill="none" stroke="rgb(71, 160, 85)" stroke-width="2.96" stroke-opacity="1.00" stroke-linejoin="round"/>
</g>
</svg>
