<?xml version="1.0" encoding="UTF-8" standalone="no"?>
<!DOCTYPE svg PUBLIC "-//W3C//DTD SVG 1.1//EN" "http://www.w3.org/Graphics/SVG/1.1/DTD/svg11.dtd">
<svg width="64.20" height="90.84" viewBox="0.00 0.00 535.00 757.00" xmlns="http://www.w3.org/2000/svg" xmlns:xlink="http://www.w3.org/1999/xlink">
<g stroke-linecap="round" transform="translate(154.00, 267.00)" id="30-사람">
<path d="M36.58,-61.58 C36.58,-61.58 36.75,-61.61 36.75,-61.61 C36.76,-61.61 31.42,-61.79 27.93,-60.90 C26.38,-60.49 23.59,-57.82 22.70,-55.14 C22.10,-53.28 21.61,-48.55 21.59,-46.45 C21.58,-40.79 23.40,-36.45 24.30,-35.45 C24.30,-35.45 26.35,-36.28 26.35,-36.28" fill="none" stroke="rgb(126, 255, 0)" stroke-width="2.96" stroke-opacity="1.00" stroke-linejoin="round"/>
<path d="M36.36,-55.89 C35.85,-55.95 35.37,-55.87 34.93,-55.55 C33.77,-54.69 30.82,-51.16 28.52,-47.70 C25.92,-43.74 24.15,-40.27 24.15,-38.64 C24.17,-37.87 24.61,-37.20 25.23,-36.72 C25.23,-36.72 27.33,-36.88 27.33,-36.88" fill="none" stroke="rgb(126, 255, 0)" stroke-width="2.96" stroke-opacity="1.00" stroke-linejoin="round"/>
<path d="M36.05,-49.83 C36.05,-49.83 35.16,-50.17 35.16,-50.17 C34.47,-50.11 26.82,-38.14 25.84,-35.28 C25.59,-34.53 25.63,-33.86 25.91,-32.77 C25.91,-32.77 27.39,-32.59 27.39,-32.59" fill="none" stroke="rgb(126, 255, 0)" stroke-width="2.96" stroke-opacity="1.00" stroke-linejoin="round"/>
<path d="M41.68,-49.07 C41.68,-49.07 41.66,-49.16 41.66,-49.16 C41.66,-49.16 41.56,-49.23 41.56,-49.23 C41.56,-49.23 41.37,-49.19 41.37,-49.19 C41.21,-49.07 33.65,-39.17 30.35,-32.81 C28.71,-29.62 29.02,-26.18 29.08,-25.97 C28.43,-27.40 26.81,-34.14 26.82,-34.30 C26.83,-34.43 26.90,-34.71 27.04,-35.12" fill="none" stroke="rgb(126, 255, 0)" stroke-width="2.96" stroke-opacity="1.00" stroke-linejoin="round"/>
<path d="M39.98,-63.00 C39.86,-63.48 40.07,-65.65 40.64,-67.91 C41.42,-70.92 43.74,-75.56 45.62,-77.64 C47.62,-79.78 51.18,-82.39 53.17,-83.13 C53.55,-83.27 62.63,-86.20 63.16,-86.33 C65.54,-86.90 70.19,-86.17 72.07,-85.47 C74.58,-84.51 78.57,-81.40 80.19,-79.37 C81.55,-77.62 84.00,-73.37 86.51,-68.54 C86.51,-68.54 85.97,-69.86 85.97,-69.86" fill="none" stroke="rgb(126, 255, 0)" stroke-width="2.96" stroke-opacity="1.00" stroke-linejoin="round"/>
<path d="M47.34,-68.25 C47.04,-68.91 46.93,-69.31 47.08,-69.64 C48.08,-71.69 57.68,-75.83 62.14,-77.34 C64.76,-78.21 69.47,-79.32 71.52,-79.47 C75.31,-79.67 87.26,-75.45 87.25,-75.42 C87.25,-75.42 87.00,-75.36 87.00,-75.36" fill="none" stroke="rgb(126, 255, 0)" stroke-width="2.96" stroke-opacity="1.00" stroke-linejoin="round"/>
<path d="M56.76,-73.76 C56.16,-73.37 53.94,-65.64 53.59,-64.76 C53.53,-64.60 53.37,-64.25 53.13,-63.74 C53.21,-64.34 55.41,-67.23 57.62,-69.02 C59.04,-70.16 62.96,-72.45 64.99,-73.26 C69.18,-74.88 77.39,-74.88 84.97,-73.70 C84.97,-73.70 84.67,-73.91 84.67,-73.91" fill="none" stroke="rgb(126, 255, 0)" stroke-width="2.96" stroke-opacity="1.00" stroke-linejoin="round"/>
<path d="M56.60,-62.79 C56.60,-62.79 56.06,-62.86 56.06,-62.86 C56.52,-63.32 58.92,-64.68 61.63,-65.65 C64.64,-66.70 67.37,-67.53 69.95,-68.17 C73.27,-68.94 78.65,-69.19 82.85,-68.16 C86.64,-67.17 90.17,-65.90 92.30,-64.34 C92.66,-64.07 93.49,-63.45 93.47,-63.42 C93.47,-63.42 93.26,-63.77 93.26,-63.77" fill="none" stroke="rgb(126, 255, 0)" stroke-width="2.96" stroke-opacity="1.00" stroke-linejoin="round"/>
<path d="M85.95,-75.85 C85.95,-75.85 85.35,-76.16 85.35,-76.16 C85.35,-76.16 85.33,-76.25 85.33,-76.25 C86.78,-75.01 88.61,-72.58 89.70,-70.00 C91.77,-65.02 93.99,-55.82 94.30,-54.97 C94.30,-54.97 94.20,-55.89 94.20,-55.89" fill="none" stroke="rgb(126, 255, 0)" stroke-width="2.96" stroke-opacity="1.00" stroke-linejoin="round"/>
<path d="M39.03,-26.47 C38.68,-25.30 38.53,-24.52 38.65,-24.09 C38.81,-23.54 39.62,-22.32 40.22,-21.75 C40.49,-21.50 48.65,-14.80 53.90,-9.72 C57.82,-5.94 60.27,-3.68 63.21,-1.32 C66.34,1.16 69.84,3.02 72.28,3.43 C74.70,3.80 79.04,2.80 81.56,1.72 C84.13,0.56 87.99,-2.52 89.99,-4.98 C95.56,-11.84 97.98,-15.36 99.34,-20.65 C100.22,-24.19 100.69,-28.62 100.63,-32.77 C100.52,-37.54 92.64,-51.19 92.57,-51.47 C92.38,-52.54 93.71,-54.41 94.61,-54.78 C95.62,-55.15 97.69,-53.99 98.83,-52.28 C100.07,-50.33 101.40,-45.37 100.94,-43.54 C100.77,-43.00 99.48,-41.82 98.46,-41.08 C98.13,-40.86 97.39,-40.35 96.23,-39.57" fill="none" stroke="rgb(126, 255, 0)" stroke-width="2.96" stroke-opacity="1.00" stroke-linejoin="round"/>
<path d="M66.45,-48.64 C68.17,-50.49 71.41,-52.90 74.65,-54.65 C76.78,-55.78 78.97,-56.58 79.22,-56.62 C79.22,-56.62 78.96,-56.57 78.96,-56.57" fill="none" stroke="rgb(126, 255, 0)" stroke-width="2.96" stroke-opacity="1.00" stroke-linejoin="round"/>
<path d="M41.56,-37.06 C41.56,-37.06 40.80,-36.90 40.80,-36.90 C40.80,-36.90 53.12,-44.54 53.12,-44.54 C53.12,-44.54 52.86,-44.29 52.86,-44.29" fill="none" stroke="rgb(126, 255, 0)" stroke-width="2.96" stroke-opacity="1.00" stroke-linejoin="round"/>
<path d="M56.62,-36.70 C56.62,-36.70 56.15,-36.60 56.15,-36.60 C56.12,-36.61 55.54,-36.94 55.25,-37.02 C53.74,-37.42 51.86,-36.90 50.92,-35.98 C49.77,-34.82 48.13,-32.08 47.53,-29.59 C47.04,-27.42 47.35,-25.62 48.08,-25.00 C48.65,-24.56 50.46,-24.48 51.29,-24.85 C53.81,-26.04 59.24,-33.81 59.06,-34.43 C58.72,-35.29 56.54,-36.63 56.27,-36.62 C56.08,-36.61 55.47,-36.55 54.43,-36.42" fill="none" stroke="rgb(126, 255, 0)" stroke-width="2.96" stroke-opacity="1.00" stroke-linejoin="round"/>
<path d="M52.12,-33.81 C52.12,-33.81 51.42,-33.79 51.42,-33.79 C51.16,-33.19 51.63,-30.02 52.13,-29.37 C52.33,-29.12 52.71,-28.94 52.95,-28.90 C52.95,-28.90 52.73,-33.68 52.73,-33.68 C52.64,-33.78 52.34,-31.09 52.42,-30.79 C52.47,-30.58 52.67,-30.03 53.01,-29.13" fill="none" stroke="rgb(126, 255, 0)" stroke-width="2.96" stroke-opacity="1.00" stroke-linejoin="round"/>
<path d="M78.83,-50.19 C78.83,-50.19 78.81,-50.27 78.81,-50.27 C78.42,-50.38 77.26,-49.59 74.94,-47.20 C73.96,-46.16 72.56,-43.65 72.20,-42.08 C71.91,-40.73 72.34,-39.13 73.04,-38.65 C73.81,-38.16 75.91,-38.40 77.15,-39.23 C80.05,-41.26 82.16,-45.99 81.89,-47.27 C81.37,-47.76 80.75,-48.07 80.21,-47.98 C79.90,-47.92 78.11,-46.80 77.04,-46.11" fill="none" stroke="rgb(126, 255, 0)" stroke-width="2.96" stroke-opacity="1.00" stroke-linejoin="round"/>
<path d="M76.09,-46.44 C76.10,-44.70 76.08,-43.72 75.99,-43.08 C75.93,-42.74 75.88,-42.41 75.83,-42.07" fill="none" stroke="rgb(126, 255, 0)" stroke-width="2.96" stroke-opacity="1.00" stroke-linejoin="round"/>
<path d="M61.55,-38.44 C61.55,-38.44 61.63,-38.46 61.63,-38.46 C61.69,-38.45 63.52,-34.50 64.57,-31.38 C65.65,-28.08 65.83,-25.58 65.57,-24.53 C65.01,-22.76 64.08,-19.44 64.44,-18.06 C64.80,-16.83 68.99,-16.62 72.07,-17.89 C72.28,-17.97 72.66,-18.11 73.19,-18.28" fill="none" stroke="rgb(126, 255, 0)" stroke-width="2.96" stroke-opacity="1.00" stroke-linejoin="round"/>
<path d="M68.98,-5.62 C68.98,-5.62 68.81,-5.59 68.81,-5.59 C68.81,-5.59 82.51,-15.75 82.51,-15.75 C82.51,-15.75 82.29,-15.70 82.29,-15.70" fill="none" stroke="rgb(126, 255, 0)" stroke-width="2.96" stroke-opacity="1.00" stroke-linejoin="round"/>
<path d="M69.24,-6.91 C69.24,-6.91 68.90,-6.87 68.90,-6.87 C69.05,-7.75 70.08,-10.35 70.81,-11.27 C71.08,-11.59 75.64,-14.14 77.33,-14.61 C79.49,-15.02 82.08,-15.57 83.02,-15.98 C82.81,-15.65 82.69,-15.32 82.61,-14.79 C82.36,-13.24 81.08,-9.85 80.21,-8.84 C79.30,-7.88 75.59,-5.54 73.07,-5.48 C72.66,-5.47 72.00,-5.55 71.08,-5.71" fill="none" stroke="rgb(126, 255, 0)" stroke-width="2.96" stroke-opacity="1.00" stroke-linejoin="round"/>
<path d="M83.17,1.45 C83.17,1.45 83.15,1.36 83.15,1.36 C82.96,1.38 83.96,5.61 84.99,7.91 C85.38,8.79 87.53,12.45 88.04,13.77 C88.04,13.77 85.32,10.87 85.32,10.87" fill="none" stroke="rgb(126, 255, 0)" stroke-width="2.96" stroke-opacity="1.00" stroke-linejoin="round"/>
<path d="M85.32,10.87 C85.07,10.80 84.92,10.76 84.86,10.74 C84.80,10.72 84.74,10.69 84.70,10.65 C84.45,10.90 81.79,13.78 80.61,15.10 C77.00,18.97 65.22,24.97 61.80,27.33 C59.45,28.97 56.47,31.66 55.28,33.30 C52.84,36.77 51.07,43.01 51.06,43.24 C51.06,43.47 51.11,44.03 51.22,44.89" fill="none" stroke="rgb(126, 255, 0)" stroke-width="2.96" stroke-opacity="1.00" stroke-linejoin="round"/>
<path d="M48.89,43.04 C48.93,41.89 43.59,29.22 41.75,24.43 C39.38,19.46 37.72,13.10 33.82,3.83 C32.28,0.21 29.32,-4.46 27.38,-6.60 C25.27,-8.88 19.93,-13.20 17.85,-14.40 C15.81,-15.55 11.91,-16.81 9.96,-16.92 C8.02,-17.01 3.33,-16.08 0.97,-14.95 C-1.55,-13.71 -4.81,-11.03 -6.80,-8.69 C-8.76,-6.35 -10.94,-2.77 -11.21,-0.74 C-11.33,0.34 -10.27,1.74 -9.21,1.45 C-7.25,0.85 -1.41,-6.36 -0.24,-7.35 C-0.37,-7.03 -3.10,-3.27 -4.42,-1.43 C-8.16,4.01 -7.49,5.23 -7.09,5.69 C-7.09,5.69 -1.51,4.83 -1.51,4.83 C-1.33,5.39 -3.29,10.52 -3.32,12.12 C-3.33,12.40 -3.26,12.75 -3.11,13.15 C-1.77,13.40 -0.99,13.30 -0.13,12.64 C3.12,10.10 6.45,4.61 10.29,-2.67 C10.29,-2.67 9.43,-1.20 9.43,-1.20" fill="none" stroke="rgb(126, 255, 0)" stroke-width="2.96" stroke-opacity="1.00" stroke-linejoin="round"/>
<path d="M10.05,0.08 C10.64,4.97 11.45,7.59 12.52,10.36 C13.28,12.39 17.78,25.91 19.83,30.21 C23.03,36.69 27.19,45.91 28.13,47.59 C40.05,66.74 45.18,74.01 47.99,78.16 C48.88,79.36 59.65,91.32 61.62,93.46 C62.60,94.51 65.46,96.16 65.47,96.14 C65.76,94.95 65.81,78.00 65.81,77.97 C65.85,72.79 64.42,59.41 65.06,56.70 C66.02,52.88 68.08,52.53 68.36,52.84 C68.49,52.99 68.88,53.47 69.54,54.27" fill="none" stroke="rgb(126, 255, 0)" stroke-width="2.96" stroke-opacity="1.00" stroke-linejoin="round"/>
<path d="M101.20,-23.97 C101.20,-23.97 101.17,-24.12 101.17,-24.12 C101.17,-24.12 108.47,-9.09 108.47,-9.09 C108.47,-9.09 109.11,-9.47 109.11,-9.47" fill="none" stroke="rgb(126, 255, 0)" stroke-width="2.96" stroke-opacity="1.00" stroke-linejoin="round"/>
<path d="M115.29,-14.95 C115.26,-14.87 113.55,-12.49 113.16,-11.46 C110.93,-5.49 107.51,-0.00 105.22,3.61 C102.00,8.58 94.64,17.48 90.80,20.80 C89.15,22.21 85.42,24.06 83.92,24.22 C82.22,24.35 80.03,22.86 79.22,21.04 C78.47,19.28 78.76,16.35 79.51,15.74 C79.66,15.62 80.16,15.24 81.00,14.62" fill="none" stroke="rgb(126, 255, 0)" stroke-width="2.96" stroke-opacity="1.00" stroke-linejoin="round"/>
<path d="M110.95,-12.42 C110.95,-12.42 110.67,-11.95 110.67,-11.95 C111.41,-12.14 115.22,-16.34 117.15,-18.17 C122.80,-23.50 131.26,-30.92 132.15,-31.34 C136.44,-33.24 141.08,-34.08 143.76,-33.70 C144.43,-33.58 146.15,-33.06 146.63,-32.60 C147.42,-31.83 152.08,-27.08 153.83,-25.52 C156.16,-23.35 158.66,-20.09 161.28,-15.90 C163.32,-12.60 166.75,-6.48 167.62,-4.16 C168.60,-1.49 170.06,3.82 170.17,6.11 C170.38,12.36 149.94,65.74 149.81,66.11 C148.75,69.05 143.45,74.91 142.39,75.97 C141.87,76.48 124.29,93.78 123.82,94.23 C123.82,94.23 123.34,92.83 123.34,92.83" fill="none" stroke="rgb(126, 255, 0)" stroke-width="2.96" stroke-opacity="1.00" stroke-linejoin="round"/>
<path d="M138.53,5.75 C138.53,5.75 138.30,5.59 138.30,5.59 C138.54,5.98 138.83,6.58 138.97,7.15 C139.48,9.33 139.86,26.90 139.73,28.88 C139.45,32.79 137.49,46.72 136.75,49.67 C135.86,53.29 135.53,60.56 135.21,62.15 C135.14,62.47 134.56,64.65 134.51,64.85 C134.41,65.12 123.58,72.04 118.95,75.76 C117.01,77.37 112.79,80.85 112.08,81.22 C111.71,81.40 105.60,77.08 103.52,77.87 C102.81,78.17 101.81,79.44 101.66,80.23 C101.50,81.18 101.83,83.51 102.44,84.32 C103.07,85.11 104.48,85.97 105.92,85.93 C104.58,86.29 100.76,87.83 99.70,88.82 C98.50,90.00 97.93,92.16 98.29,93.25 C98.71,94.40 100.29,95.89 101.40,95.97 C102.46,96.03 103.74,95.86 105.15,95.52 C105.23,95.93 104.30,98.58 104.37,99.84 C104.42,100.62 104.76,101.30 105.28,101.89 C106.63,102.36 109.86,101.52 111.47,100.44 C114.19,98.56 115.88,96.95 115.90,96.94 C116.12,96.83 124.47,92.77 125.15,92.43 C125.38,92.32 125.68,92.19 126.06,92.07" fill="none" stroke="rgb(126, 255, 0)" stroke-width="2.96" stroke-opacity="1.00" stroke-linejoin="round"/>
<path d="M70.91,54.10 C70.91,54.10 71.18,53.43 71.18,53.43 C71.18,53.38 73.09,59.54 73.47,61.79 C74.60,71.39 77.11,91.59 77.79,94.21 C79.31,99.93 81.60,108.14 83.66,113.34 C83.78,113.67 84.00,114.17 84.31,114.86" fill="none" stroke="rgb(126, 255, 0)" stroke-width="2.96" stroke-opacity="1.00" stroke-linejoin="round"/>
<path d="M81.41,39.30 C81.41,39.30 80.48,39.70 80.48,39.70 C82.24,37.28 85.88,33.60 89.00,31.24 C93.26,28.04 104.83,21.23 108.56,19.98 C109.91,19.54 116.86,18.40 117.55,18.04 C117.55,18.04 117.73,18.09 117.73,18.09" fill="none" stroke="rgb(126, 255, 0)" stroke-width="2.96" stroke-opacity="1.00" stroke-linejoin="round"/>
<path d="M85.77,46.50 C86.43,44.85 93.88,39.07 99.18,36.43 C101.40,35.33 117.30,27.91 122.65,25.34 C122.65,25.34 122.18,25.81 122.18,25.81" fill="none" stroke="rgb(126, 255, 0)" stroke-width="2.96" stroke-opacity="1.00" stroke-linejoin="round"/>
<path d="M85.63,56.49 C85.39,55.50 85.79,54.01 87.72,52.58 C88.64,51.91 104.27,42.62 107.42,40.87 C112.93,37.74 123.82,31.54 124.54,31.49 C124.54,31.49 124.32,32.14 124.32,32.14" fill="none" stroke="rgb(126, 255, 0)" stroke-width="2.96" stroke-opacity="1.00" stroke-linejoin="round"/>
<path d="M84.83,73.92 C84.83,73.92 83.58,73.27 83.58,73.27 C83.53,73.06 95.17,65.20 101.64,62.22 C105.87,60.29 116.86,56.40 116.76,56.32 C116.76,56.32 114.85,57.93 114.85,57.93" fill="none" stroke="rgb(126, 255, 0)" stroke-width="2.96" stroke-opacity="1.00" stroke-linejoin="round"/>
<path d="M90.70,79.59 C90.70,79.59 90.58,79.51 90.58,79.51 C90.98,77.92 100.12,70.91 105.75,67.92 C110.88,65.21 118.57,61.78 122.27,60.29 C122.27,60.29 122.18,60.03 122.18,60.03" fill="none" stroke="rgb(126, 255, 0)" stroke-width="2.96" stroke-opacity="1.00" stroke-linejoin="round"/>
<path d="M118.46,9.77 C118.46,9.77 118.16,9.99 118.16,9.99 C119.27,11.56 121.08,18.44 121.38,18.91 C122.10,19.98 123.05,20.70 123.96,20.82 C126.92,21.05 138.01,14.92 139.09,13.80 C139.85,12.93 138.41,7.53 137.15,5.38 C136.74,4.71 135.53,3.99 134.86,3.97 C132.38,4.02 121.49,11.22 119.29,12.41 C119.29,12.41 119.97,11.77 119.97,11.77" fill="none" stroke="rgb(126, 255, 0)" stroke-width="2.96" stroke-opacity="1.00" stroke-linejoin="round"/>
<path d="M133.19,9.31 C133.19,9.31 130.97,10.16 130.97,10.16 C130.97,10.16 132.25,11.70 132.25,11.70 C132.25,11.70 130.66,11.81 130.66,11.81 C130.66,11.81 131.85,11.37 131.85,11.37" fill="none" stroke="rgb(126, 255, 0)" stroke-width="2.96" stroke-opacity="1.00" stroke-linejoin="round"/>
<path d="M71.40,129.65 C71.40,129.65 71.12,129.70 71.12,129.70 C71.12,129.70 72.07,128.92 72.07,128.92 C70.54,129.25 65.39,128.86 63.02,129.06 C59.38,129.38 50.93,131.69 49.32,132.37 C46.06,133.76 33.39,141.90 22.35,148.41 C18.20,150.89 13.37,154.00 10.82,156.99 C10.18,157.81 10.69,164.10 11.23,166.56 C13.44,176.42 15.04,184.85 15.16,190.38 C15.22,193.10 14.99,212.35 15.13,215.11 C15.21,216.63 15.87,229.94 15.67,240.75 C15.57,245.49 15.20,247.25 12.72,251.31 C10.13,255.56 9.79,256.22 9.78,256.45 C10.21,256.29 14.60,254.44 17.74,253.41 C27.28,250.32 50.51,249.31 53.28,248.93 C55.33,248.63 56.47,247.65 56.87,246.85 C57.89,244.67 58.11,239.17 57.93,235.15 C57.80,232.64 57.22,224.51 57.64,212.39 C57.78,207.48 57.52,197.67 58.68,189.90 C58.98,187.92 60.35,178.39 60.52,177.53 C61.04,175.02 63.96,172.23 66.68,170.80 C67.77,170.23 68.86,169.66 69.94,169.08" fill="none" stroke="rgb(126, 255, 0)" stroke-width="2.96" stroke-opacity="1.00" stroke-linejoin="round"/>
<path d="M72.18,153.61 C72.18,153.61 71.90,153.66 71.90,153.66 C71.90,153.66 72.39,153.69 72.39,153.69 C72.39,153.69 87.62,181.68 87.62,181.68 C87.62,181.68 87.27,182.24 87.27,182.24" fill="none" stroke="rgb(126, 255, 0)" stroke-width="2.96" stroke-opacity="1.00" stroke-linejoin="round"/>
<path d="M92.15,170.57 C93.20,181.78 95.42,194.58 95.54,195.62 C95.88,198.62 97.15,215.11 97.05,221.05 C96.94,227.82 98.37,237.24 99.21,247.50 C99.50,251.36 106.00,282.86 107.02,285.49 C107.52,286.75 109.76,290.07 109.79,290.16 C110.26,291.23 110.10,294.67 110.09,294.73 C112.61,294.16 127.54,287.91 129.91,287.61 C139.64,286.55 146.98,286.87 150.88,287.36 C150.88,287.36 151.85,286.39 151.85,286.39" fill="none" stroke="rgb(126, 255, 0)" stroke-width="2.96" stroke-opacity="1.00" stroke-linejoin="round"/>
<path d="M144.42,150.00 C144.42,150.00 143.73,149.54 143.73,149.54 C143.92,150.51 144.46,153.24 144.55,153.90 C145.20,158.36 145.27,179.31 145.37,182.51 C145.57,188.82 147.74,205.68 147.61,212.19 C147.14,229.90 147.84,254.64 148.83,259.90 C149.66,264.31 152.24,283.10 152.56,285.45 C152.56,285.45 152.03,284.28 152.03,284.28" fill="none" stroke="rgb(126, 255, 0)" stroke-width="2.96" stroke-opacity="1.00" stroke-linejoin="round"/>
<path d="M124.12,223.31 C123.86,223.89 123.79,224.53 123.98,225.67 C124.77,230.22 127.15,240.22 127.03,240.50 C127.03,240.50 126.58,239.95 126.58,239.95" fill="none" stroke="rgb(126, 255, 0)" stroke-width="2.96" stroke-opacity="1.00" stroke-linejoin="round"/>
<path d="M125.88,184.86 C126.50,188.13 127.28,191.82 127.97,194.08 C128.18,194.74 134.26,215.20 134.27,217.13 C134.27,218.77 133.90,220.19 133.56,220.25 C133.56,220.25 131.23,219.86 131.23,219.86" fill="none" stroke="rgb(126, 255, 0)" stroke-width="2.96" stroke-opacity="1.00" stroke-linejoin="round"/>
<path d="M31.39,182.67 C32.61,188.25 34.99,200.14 35.47,204.70 C35.68,206.94 35.70,210.39 35.41,212.04 C35.31,212.59 35.06,213.52 34.67,214.82" fill="none" stroke="rgb(126, 255, 0)" stroke-width="2.96" stroke-opacity="1.00" stroke-linejoin="round"/>
<path d="M26.05,254.85 C25.90,255.59 25.77,256.32 25.42,256.55 C24.27,257.28 19.64,260.39 17.57,261.05 C15.91,261.56 -1.19,265.30 -3.59,266.79 C-6.04,268.36 -10.59,273.96 -11.22,275.71 C-12.03,278.06 -11.70,281.40 -11.04,282.42 C-10.19,283.66 -7.79,284.83 -6.55,284.54 C-4.53,284.04 -0.31,282.38 3.05,281.41 C7.40,280.17 12.28,279.37 15.85,279.31 C26.13,279.19 36.91,280.01 38.69,279.73 C42.81,279.05 54.16,273.23 58.04,269.81 C58.69,269.19 57.44,266.49 55.18,263.84 C53.95,262.40 49.72,256.87 48.59,254.94 C48.53,254.85 46.26,249.77 46.22,249.83 C46.22,249.83 45.61,251.35 45.61,251.35" fill="none" stroke="rgb(126, 255, 0)" stroke-width="2.96" stroke-opacity="1.00" stroke-linejoin="round"/>
<path d="M46.24,251.53 C46.33,251.92 46.36,252.33 46.22,253.02 C45.62,255.95 43.27,259.60 41.35,261.59 C37.75,265.24 29.89,270.17 27.73,270.56 C25.55,270.89 20.87,267.85 18.34,265.61 C17.17,264.56 16.78,264.06 16.65,263.51 C17.20,262.29 21.94,260.17 24.06,259.59 C24.70,259.41 25.67,259.37 27.23,259.39" fill="none" stroke="rgb(126, 255, 0)" stroke-width="2.96" stroke-opacity="1.00" stroke-linejoin="round"/>
<path d="M30.52,254.88 C30.52,254.88 30.23,254.93 30.23,254.93 C31.54,254.68 34.73,254.06 36.63,253.69 C43.30,252.40 46.23,251.80 46.82,251.59 C47.07,251.49 47.23,251.35 47.29,251.16" fill="none" stroke="rgb(126, 255, 0)" stroke-width="2.96" stroke-opacity="1.00" stroke-linejoin="round"/>
<path d="M118.86,292.80 C118.86,292.80 118.51,292.57 118.51,292.57 C118.51,292.57 118.24,292.71 118.24,292.71 C119.40,297.38 120.48,302.48 120.88,303.68 C121.62,305.92 123.66,309.46 125.75,311.93 C126.94,312.15 127.92,311.84 130.01,310.49 C136.15,306.62 140.78,302.87 140.86,302.21 C140.95,301.08 139.11,290.03 139.05,289.35 C139.03,289.03 139.01,288.51 138.99,287.78" fill="none" stroke="rgb(126, 255, 0)" stroke-width="2.96" stroke-opacity="1.00" stroke-linejoin="round"/>
<path d="M121.60,303.88 C121.34,303.87 121.15,303.86 121.05,303.84 C120.80,303.80 119.55,303.63 118.94,303.84 C117.50,304.37 111.62,310.21 108.27,312.93 C106.54,314.33 92.29,324.98 91.74,325.55 C89.37,328.03 86.26,331.54 84.02,333.19 C82.09,334.34 79.85,335.71 79.47,336.18 C79.62,336.83 81.17,337.62 83.92,338.47 C85.82,339.02 90.34,338.29 94.91,337.25 C101.81,335.56 112.21,333.07 120.80,331.45 C129.38,329.86 140.38,329.06 141.74,328.06 C143.24,326.86 145.12,320.75 145.31,316.79 C145.52,311.07 143.71,300.43 143.10,298.95 C142.97,298.66 142.79,298.45 142.55,298.32" fill="none" stroke="rgb(126, 255, 0)" stroke-width="2.96" stroke-opacity="1.00" stroke-linejoin="round"/>
<path d="M143.97,320.97 C143.29,320.75 142.71,320.70 141.15,320.77 C136.47,321.01 131.60,321.65 129.91,322.87 C128.84,323.67 125.20,329.51 125.15,329.65 C125.03,330.00 124.96,331.07 124.65,331.86" fill="none" stroke="rgb(126, 255, 0)" stroke-width="2.96" stroke-opacity="1.00" stroke-linejoin="round"/>
</g>
</svg>
