<?xml version="1.0" encoding="UTF-8" standalone="no"?>
<!DOCTYPE svg PUBLIC "-//W3C//DTD SVG 1.1//EN" "http://www.w3.org/Graphics/SVG/1.1/DTD/svg11.dtd">
<svg width="64.20" height="90.84" viewBox="0.00 0.00 535.00 757.00" xmlns="http://www.w3.org/2000/svg" xmlns:xlink="http://www.w3.org/1999/xlink">
<g stroke-linecap="round" transform="translate(44.00, 155.00)" id="31-구름-2">
<path d="M312.93,-15.52 C312.93,-15.52 313.11,-15.88 313.11,-15.88 C312.96,-15.96 311.52,-16.29 310.41,-16.53 C306.84,-17.40 304.93,-17.97 303.88,-18.67 C301.09,-20.60 298.03,-24.88 296.58,-27.33 C295.79,-28.73 295.08,-31.88 295.46,-33.73 C295.70,-34.86 297.65,-39.17 299.15,-43.35 C300.49,-46.91 304.64,-51.92 306.62,-53.22 C310.57,-55.75 326.99,-60.96 330.69,-61.06 C336.87,-61.23 340.83,-61.14 343.75,-60.23 C347.41,-59.07 349.18,-58.44 349.81,-57.86 C351.67,-56.14 352.32,-55.21 352.52,-54.99 C354.42,-56.83 365.05,-62.63 369.25,-65.10 C372.90,-67.18 382.31,-68.99 386.87,-68.94 C388.56,-68.90 393.06,-68.16 396.09,-66.96 C398.34,-66.03 403.94,-60.88 404.60,-60.44 C406.12,-59.48 409.79,-59.04 411.60,-59.70 C413.07,-60.28 416.41,-64.06 416.98,-64.51 C418.10,-65.38 422.19,-67.32 424.69,-67.79 C426.02,-68.03 435.43,-68.46 437.55,-68.32 C440.96,-68.08 447.82,-66.45 450.66,-64.96 C451.69,-64.41 453.38,-62.40 454.22,-60.05 C454.93,-58.07 455.92,-56.32 456.65,-55.32 C458.17,-57.27 459.07,-58.23 459.63,-58.20 C460.89,-58.11 465.04,-55.87 467.28,-53.48 C468.98,-51.64 470.57,-48.16 470.67,-46.74 C470.71,-46.10 468.84,-41.20 468.45,-40.22 C467.51,-37.84 467.59,-30.23 467.59,-30.19 C467.36,-28.33 465.65,-24.22 463.87,-22.36 C462.64,-21.10 448.63,-12.88 446.18,-11.84 C443.66,-10.79 439.47,-10.02 436.16,-9.91 C433.62,-9.84 427.69,-9.86 424.50,-9.46 C421.28,-9.02 416.65,-7.49 413.43,-5.95 C410.57,-4.50 404.72,-1.60 402.80,-1.02 C399.04,0.07 388.12,0.57 380.00,-0.16 C371.58,-0.88 366.87,-0.89 356.81,-0.15 C355.40,-0.06 350.19,0.12 348.88,-0.10 C346.68,-0.50 343.75,-2.17 342.09,-3.80 C341.15,-4.72 338.68,-7.15 337.83,-7.48 C336.12,-8.09 330.94,-8.08 329.15,-8.19 C327.46,-8.22 319.08,-6.45 318.44,-6.93 C315.77,-9.08 315.26,-10.88 315.25,-10.94 C315.25,-10.94 314.47,-11.05 314.47,-11.05" fill="none" stroke="rgb(0, 255, 199)" stroke-width="2.88" stroke-opacity="1.00" stroke-linejoin="round"/>
</g>
</svg>
