<?xml version="1.0" encoding="UTF-8" standalone="no"?>
<!DOCTYPE svg PUBLIC "-//W3C//DTD SVG 1.1//EN" "http://www.w3.org/Graphics/SVG/1.1/DTD/svg11.dtd">
<svg width="64.20" height="90.84" viewBox="0.00 0.00 535.00 757.00" xmlns="http://www.w3.org/2000/svg" xmlns:xlink="http://www.w3.org/1999/xlink">
<g stroke-linecap="round" transform="translate(44.00, 155.00)" id="31-구름-1">
<path d="M128.64,-29.22 C128.64,-29.22 128.62,-30.08 128.62,-30.08 C128.09,-30.44 125.13,-31.29 122.88,-31.36 C120.79,-31.41 112.81,-30.42 111.04,-29.94 C108.35,-29.18 104.02,-26.44 102.07,-24.72 C100.06,-22.91 95.87,-18.63 94.54,-16.42 C93.23,-14.17 92.35,-10.53 92.65,-7.92 C92.97,-5.48 95.03,-1.36 96.68,0.26 C98.93,2.40 103.90,4.81 106.83,5.33 C107.82,5.49 117.65,6.53 117.92,6.54 C120.71,6.60 125.90,5.68 129.57,4.76 C133.32,3.83 137.89,3.35 140.75,3.79 C142.95,4.15 148.60,6.51 150.80,6.93 C153.95,7.51 158.85,7.66 161.19,7.62 C163.44,7.56 166.52,6.41 170.63,3.91 C174.74,1.41 176.69,0.76 178.52,0.98 C179.66,1.14 187.75,2.56 191.45,3.24 C195.32,3.96 198.41,3.97 200.58,3.24 C200.75,3.18 205.68,1.42 207.45,1.33 C209.58,1.26 216.21,2.21 217.24,2.09 C219.26,1.81 222.18,0.23 223.18,-0.95 C224.02,-2.03 224.01,-6.29 224.08,-6.86 C224.28,-8.21 225.26,-10.16 228.69,-13.40 C230.35,-15.01 234.51,-20.70 235.37,-22.86 C236.02,-24.53 236.38,-32.97 236.24,-34.49 C236.02,-36.67 234.78,-39.12 234.12,-39.85 C232.39,-41.72 227.00,-43.80 224.37,-43.59 C221.43,-43.29 211.39,-36.64 209.78,-36.36 C207.74,-36.04 202.01,-37.42 199.94,-38.59 C199.31,-38.95 193.15,-42.30 191.22,-42.60 C189.08,-42.90 184.78,-42.51 182.59,-41.86 C180.93,-41.35 176.75,-39.39 174.20,-38.04 C172.28,-37.04 169.08,-37.24 166.65,-38.35 C164.58,-39.31 160.43,-42.74 158.58,-43.86 C155.89,-45.45 150.00,-47.08 146.73,-46.98 C143.50,-46.83 133.96,-42.60 131.44,-40.18 C128.40,-37.19 126.17,-33.40 125.09,-29.61 C124.72,-28.30 124.11,-25.93 123.96,-25.41 C123.89,-25.21 123.76,-24.85 123.55,-24.33" fill="none" stroke="rgb(0, 255, 199)" stroke-width="2.88" stroke-opacity="1.00" stroke-linejoin="round"/>
<path d="M-39.14,418.20 C-39.14,418.20 -40.61,411.32 -40.61,411.32" fill="none" stroke="rgb(0, 255, 199)" stroke-width="2.88" stroke-opacity="1.00" stroke-linejoin="round"/>
</g>
</svg>
