<?xml version="1.0" encoding="UTF-8" standalone="no"?>
<!DOCTYPE svg PUBLIC "-//W3C//DTD SVG 1.1//EN" "http://www.w3.org/Graphics/SVG/1.1/DTD/svg11.dtd">
<svg width="64.20" height="90.84" viewBox="0.00 0.00 535.00 757.00" xmlns="http://www.w3.org/2000/svg" xmlns:xlink="http://www.w3.org/1999/xlink">
<g stroke-linecap="round" transform="translate(154.00, 267.00)" id="31-사람">
<path d="M123.16,-9.10 C123.14,-9.58 123.45,-15.59 122.85,-16.90 C122.20,-18.25 119.98,-20.54 118.63,-21.34 C117.11,-22.21 112.83,-23.56 109.67,-24.03 C106.47,-24.50 102.08,-24.38 100.09,-24.04 C96.10,-23.31 84.85,-17.33 82.67,-15.13 C81.68,-14.07 79.93,-10.67 79.37,-8.66 C78.71,-6.20 78.99,-0.43 79.04,0.44 C79.21,3.29 78.26,6.88 78.34,7.32 C78.42,7.69 80.41,10.31 80.64,11.12 C81.03,11.42 84.31,11.19 84.69,11.28 C85.52,11.50 86.72,12.94 87.00,13.88 C87.22,14.65 85.70,16.05 85.32,16.33 C84.77,16.74 85.00,18.59 85.73,19.58 C86.44,20.51 88.02,21.45 89.32,21.60 C90.28,21.70 99.22,21.95 100.09,21.90 C99.95,22.85 99.36,25.35 99.31,25.38 C99.25,25.40 99.11,25.48 98.88,25.60" fill="none" stroke="rgb(126, 255, 0)" stroke-width="2.88" stroke-opacity="1.00" stroke-linejoin="round"/>
<path d="M125.18,-5.67 C125.18,-5.67 125.18,-5.75 125.18,-5.75 C125.18,-5.75 125.03,-5.80 125.03,-5.80 C125.44,-4.60 125.55,-2.76 125.03,-1.29 C124.74,-0.49 122.50,3.54 121.97,5.42 C121.71,6.38 121.04,12.14 120.54,13.31 C119.88,14.72 113.98,18.83 113.73,20.25 C113.64,20.79 113.81,25.78 113.69,26.26 C113.69,26.26 113.98,26.07 113.98,26.07" fill="none" stroke="rgb(126, 255, 0)" stroke-width="2.88" stroke-opacity="1.00" stroke-linejoin="round"/>
<path d="M84.10,-12.83 C84.10,-12.83 83.95,-13.11 83.95,-13.11 C83.95,-13.11 84.11,-13.66 84.11,-13.66 C85.55,-14.60 91.18,-15.89 95.74,-15.75 C98.53,-15.64 101.82,-14.50 102.53,-13.82 C103.21,-13.09 104.34,-10.42 105.01,-6.73 C105.36,-4.84 106.37,-3.34 107.86,-3.28 C112.12,-3.14 113.49,-2.61 113.98,-2.02 C114.37,-1.50 114.63,-0.20 114.53,0.80 C114.31,2.24 111.20,5.72 110.98,6.29 C110.54,7.53 110.12,17.47 109.84,17.91 C109.59,18.28 108.74,18.83 108.22,19.07" fill="none" stroke="rgb(126, 255, 0)" stroke-width="2.88" stroke-opacity="1.00" stroke-linejoin="round"/>
<path d="M80.37,-3.96 C80.37,-4.15 80.49,-4.82 81.30,-5.22 C82.10,-5.59 84.95,-5.70 85.78,-5.32 C86.38,-5.03 87.33,-3.74 87.46,-2.36 C87.58,-0.95 86.31,1.62 85.22,1.97 C82.79,2.64 80.58,-0.47 80.51,-0.72 C80.47,-0.86 80.42,-1.16 80.37,-1.63" fill="none" stroke="rgb(126, 255, 0)" stroke-width="2.88" stroke-opacity="1.00" stroke-linejoin="round"/>
<path d="M82.86,-3.34 C82.76,-3.35 82.68,-3.35 82.62,-3.34 C82.57,-3.33 82.45,-3.31 82.27,-3.26 C82.27,-3.26 81.83,-1.28 81.83,-1.28 C81.83,-1.28 83.20,-1.85 83.20,-1.85 C82.62,-1.96 82.27,-2.02 82.15,-2.01 C82.02,-2.00 81.95,-1.93 81.92,-1.78" fill="none" stroke="rgb(126, 255, 0)" stroke-width="2.88" stroke-opacity="1.00" stroke-linejoin="round"/>
<path d="M99.13,28.68 C99.13,28.68 98.82,28.53 98.82,28.53 C96.26,30.45 87.55,35.86 87.29,36.09 C85.93,37.34 84.19,43.29 83.84,47.00 C83.45,51.40 83.90,69.26 83.90,69.16 C83.90,69.16 85.20,69.00 85.20,69.00" fill="none" stroke="rgb(126, 255, 0)" stroke-width="2.88" stroke-opacity="1.00" stroke-linejoin="round"/>
<path d="M114.72,26.81 C115.07,26.81 117.01,26.81 118.60,26.81 C121.70,26.80 128.53,28.62 130.03,29.35 C131.17,29.93 136.76,33.93 137.52,34.69 C139.11,36.36 140.90,41.50 141.34,44.39 C142.36,51.48 142.03,80.25 142.02,94.93 C141.89,97.68 141.65,102.18 141.45,104.58 C141.45,104.58 141.53,104.54 141.53,104.54" fill="none" stroke="rgb(126, 255, 0)" stroke-width="2.88" stroke-opacity="1.00" stroke-linejoin="round"/>
<path d="M86.45,89.78 C86.45,89.78 86.35,89.78 86.35,89.78 C86.26,89.75 86.96,92.30 87.81,97.19 C88.16,99.11 90.20,108.52 90.20,108.49 C93.87,108.44 114.37,106.82 117.80,106.95 C118.19,106.96 135.44,107.92 137.85,107.78 C137.85,107.78 137.58,107.86 137.58,107.86" fill="none" stroke="rgb(126, 255, 0)" stroke-width="2.88" stroke-opacity="1.00" stroke-linejoin="round"/>
<path d="M110.35,44.48 C109.71,44.47 109.34,44.51 109.05,44.67 C107.01,45.95 99.40,59.46 95.00,64.44 C93.05,66.62 89.69,69.17 88.20,69.93 C82.85,72.61 73.07,75.94 64.84,77.93 C64.84,77.93 64.62,90.79 64.62,90.79 C65.36,90.97 79.20,89.21 84.58,88.59 C90.12,87.78 98.86,84.67 102.51,82.15 C105.62,79.96 114.57,68.74 115.68,67.05 C116.87,65.21 119.83,59.23 120.49,56.77 C121.18,54.09 121.39,47.85 120.57,46.42 C119.24,44.21 114.98,43.46 113.22,43.62 C112.40,43.70 111.12,43.95 109.73,44.27" fill="none" stroke="rgb(126, 255, 0)" stroke-width="2.88" stroke-opacity="1.00" stroke-linejoin="round"/>
<path d="M61.30,82.72 C61.30,82.72 61.51,82.72 61.51,82.72 C61.51,82.72 61.51,82.51 61.51,82.51 C61.14,81.89 59.16,81.18 57.31,81.27 C55.96,81.38 54.03,83.74 53.52,86.10 C52.99,88.72 53.80,93.04 55.34,94.25 C56.79,95.30 61.01,95.56 62.13,94.49 C62.32,94.30 62.60,94.05 62.97,93.73" fill="none" stroke="rgb(126, 255, 0)" stroke-width="2.88" stroke-opacity="1.00" stroke-linejoin="round"/>
<path d="M88.32,33.88 C86.91,35.47 86.27,36.16 85.85,36.48 C84.90,37.17 80.90,38.38 78.40,38.60 C76.10,38.78 65.24,37.78 62.40,37.84 C62.32,37.96 63.49,43.25 63.74,44.74 C64.33,48.27 63.62,54.66 63.70,54.83 C73.75,54.83 77.79,54.50 77.92,54.53 C78.03,54.56 78.31,54.67 78.76,54.87" fill="none" stroke="rgb(126, 255, 0)" stroke-width="2.88" stroke-opacity="1.00" stroke-linejoin="round"/>
<path d="M61.93,40.94 C61.93,40.94 62.13,40.74 62.13,40.74 C62.14,40.50 61.76,39.77 61.22,39.23 C59.82,37.87 55.72,37.34 54.86,37.77 C53.87,38.34 52.43,40.25 52.05,41.55 C51.69,42.88 51.59,45.78 51.87,47.22 C52.22,48.85 53.69,51.80 55.28,53.22 C56.75,54.49 59.51,55.32 61.13,55.06 C61.31,55.03 61.58,54.97 61.93,54.87" fill="none" stroke="rgb(126, 255, 0)" stroke-width="2.88" stroke-opacity="1.00" stroke-linejoin="round"/>
<path d="M91.87,109.36 C91.87,109.36 91.87,109.19 91.87,109.19 C91.78,110.23 90.83,112.74 89.62,115.19 C78.40,137.45 66.88,158.29 65.57,160.41 C65.96,160.41 77.29,159.35 82.95,160.10 C99.01,162.28 105.65,162.11 106.07,162.03 C106.73,161.45 113.60,145.52 114.26,144.08 C115.54,141.32 119.58,134.30 120.19,133.03 C120.35,132.95 120.45,132.91 120.50,132.90 C120.56,132.88 120.64,132.88 120.75,132.90" fill="none" stroke="rgb(126, 255, 0)" stroke-width="2.88" stroke-opacity="1.00" stroke-linejoin="round"/>
<path d="M121.42,134.90 C121.42,134.90 121.42,134.74 121.42,134.74 C121.67,135.26 127.93,144.52 132.26,150.32 C135.08,154.08 139.45,160.17 140.79,160.78 C140.79,160.78 158.98,153.77 158.98,153.77 C158.98,153.77 159.93,151.84 159.93,151.84 C159.09,151.54 156.78,150.31 155.24,148.58 C153.08,146.11 150.77,139.28 148.60,130.79 C146.61,122.75 144.77,109.69 144.52,108.14 C144.44,107.66 144.32,107.16 144.14,106.62 C143.96,106.55 143.84,106.50 143.77,106.49 C143.71,106.48 143.60,106.49 143.46,106.52" fill="none" stroke="rgb(126, 255, 0)" stroke-width="2.88" stroke-opacity="1.00" stroke-linejoin="round"/>
<path d="M79.85,161.78 C79.85,161.78 79.68,161.12 79.68,161.12 C75.97,166.32 73.85,176.86 73.64,177.46 C73.63,177.50 68.75,175.68 66.18,175.20 C64.37,174.87 58.42,174.42 56.97,174.52 C54.54,174.72 50.19,176.92 48.41,178.86 C47.20,180.21 45.89,183.24 45.67,184.27 C45.46,185.33 45.62,187.97 46.03,189.09 C46.42,190.12 48.07,191.82 49.26,192.59 C50.63,193.44 53.84,194.47 56.37,194.73 C62.49,195.30 89.10,191.60 96.79,191.96 C99.36,192.09 104.20,192.32 105.28,192.05 C106.43,191.74 107.83,189.85 108.09,188.48 C108.34,187.02 107.60,184.04 106.69,182.91 C105.66,181.69 102.37,180.23 100.07,179.89 C98.33,179.65 93.82,180.00 93.64,179.92 C93.43,179.75 92.90,177.38 93.08,175.48 C93.52,171.23 98.59,163.58 98.99,163.31 C99.23,163.17 99.56,163.02 99.71,162.95" fill="none" stroke="rgb(126, 255, 0)" stroke-width="2.88" stroke-opacity="1.00" stroke-linejoin="round"/>
<path d="M144.46,161.95 C144.46,161.95 144.46,161.78 144.46,161.78 C144.58,161.74 146.03,162.63 146.87,163.97 C147.03,164.22 153.70,174.98 154.98,177.48 C152.66,177.45 147.43,177.43 145.79,177.79 C143.70,178.27 141.18,180.36 140.62,181.98 C140.07,183.73 140.51,188.44 141.67,191.19 C142.66,193.46 144.84,196.05 146.09,196.61 C147.49,197.21 150.26,197.58 152.44,197.33 C156.58,196.82 176.91,189.22 180.18,186.00 C181.67,184.42 183.60,180.03 184.69,174.87 C185.09,172.89 184.88,171.13 184.33,170.54 C183.76,170.00 180.78,169.03 178.08,168.86 C172.51,168.54 164.52,171.02 163.99,171.30 C160.62,169.26 157.14,156.45 157.08,156.27 C156.93,156.20 156.82,156.16 156.76,156.14 C156.71,156.13 156.61,156.12 156.48,156.11" fill="none" stroke="rgb(126, 255, 0)" stroke-width="2.88" stroke-opacity="1.00" stroke-linejoin="round"/>
</g>
</svg>
