<?xml version="1.0" encoding="UTF-8" standalone="no"?>
<!DOCTYPE svg PUBLIC "-//W3C//DTD SVG 1.1//EN" "http://www.w3.org/Graphics/SVG/1.1/DTD/svg11.dtd">
<svg width="64.20" height="90.84" viewBox="0.00 0.00 535.00 757.00" xmlns="http://www.w3.org/2000/svg" xmlns:xlink="http://www.w3.org/1999/xlink">
<g stroke-linecap="round" transform="translate(156.00, 267.00)" id="31-비">
<path d="M-21.31,175.12 C-21.31,175.12 -21.31,174.68 -21.31,174.68 C-21.31,174.68 -21.75,174.68 -21.75,174.68 C-21.75,174.68 -31.00,143.40 -31.00,143.40 C-31.00,143.40 -16.74,139.01 -16.74,139.01 C-15.71,142.54 -14.04,159.89 -13.30,167.81 C-12.92,171.30 -12.41,172.03 -11.71,172.79 C-9.25,173.07 -7.43,173.46 -6.14,174.11 C-4.62,174.91 -2.95,176.62 -2.33,178.09 C-1.77,179.52 -1.67,182.37 -2.12,183.85 C-2.60,185.28 -4.34,187.60 -5.62,188.52 C-8.03,190.16 -15.08,191.75 -18.38,191.39 C-21.58,190.99 -28.07,188.04 -29.68,186.31 C-30.47,185.41 -31.25,183.39 -31.10,182.49 C-30.11,177.77 -23.03,175.77 -21.61,175.58 C-21.31,175.55 -20.99,175.54 -20.66,175.56" fill="none" stroke="rgb(0, 165, 255)" stroke-width="2.88" stroke-opacity="1.00" stroke-linejoin="round"/>
<path d="M-45.54,56.65 C-45.54,56.65 -44.66,56.15 -44.66,56.15 C-44.68,51.32 -45.68,46.10 -45.79,44.85 C-45.92,43.57 -46.14,37.52 -47.51,34.45 C-47.85,33.69 -48.18,32.93 -48.52,32.17 C-48.52,32.17 -42.52,31.10 -42.52,31.10 C-42.52,31.10 -37.05,55.01 -37.05,55.01 C-36.75,55.17 -32.30,55.84 -30.10,58.03 C-29.15,59.02 -28.17,63.13 -28.37,65.10 C-28.67,67.54 -30.89,72.79 -33.95,74.88 C-36.45,76.54 -42.93,77.73 -44.79,77.72 C-46.69,77.69 -50.67,77.24 -52.33,76.82 C-54.06,76.35 -56.45,75.00 -57.17,74.06 C-57.90,73.02 -58.04,71.13 -57.54,69.81 C-56.60,67.54 -52.72,63.81 -50.06,61.99 C-49.02,61.29 -45.47,59.30 -43.71,58.26 C-43.71,58.26 -43.66,58.61 -43.66,58.61" fill="none" stroke="rgb(0, 165, 255)" stroke-width="2.88" stroke-opacity="1.00" stroke-linejoin="round"/>
<path d="M215.19,13.93 C215.19,13.93 214.75,13.93 214.75,13.93 C214.75,13.93 228.89,11.39 228.89,11.39 C228.89,11.39 228.44,33.30 228.44,33.30 C229.57,33.76 237.18,35.16 239.06,37.31 C239.91,38.34 240.61,41.22 240.61,43.13 C240.54,44.85 239.63,47.37 238.56,48.54 C236.55,50.66 230.26,52.80 227.64,53.27 C224.81,53.72 219.35,53.35 216.02,51.89 C214.34,51.13 211.55,49.15 210.18,47.78 C208.77,46.31 207.53,44.00 207.45,42.64 C207.43,41.51 208.31,39.39 209.05,38.67 C209.79,37.99 214.90,36.19 215.34,35.97 C215.34,35.97 214.34,16.02 214.28,15.76 C214.23,15.51 214.04,15.06 213.72,14.40" fill="none" stroke="rgb(0, 165, 255)" stroke-width="2.88" stroke-opacity="1.00" stroke-linejoin="round"/>
<path d="M264.08,-69.31 C264.08,-65.65 264.08,-57.79 264.08,-53.60 C264.01,-47.26 265.57,-36.00 265.84,-34.96 C265.84,-34.96 262.79,-37.56 262.79,-37.56 C261.09,-36.42 260.35,-35.45 260.12,-33.65 C259.88,-31.47 259.94,-28.97 260.38,-27.80 C261.22,-25.72 265.92,-22.70 268.74,-21.99 C271.53,-21.32 276.76,-20.99 278.28,-21.31 C280.42,-21.83 283.46,-25.56 284.15,-28.49 C284.20,-28.75 284.72,-32.77 284.75,-33.19 C284.86,-35.63 284.17,-37.84 282.91,-38.50 C282.20,-38.87 280.11,-39.41 279.72,-40.06 C278.65,-41.96 277.19,-60.26 276.91,-61.75 C276.66,-63.10 275.96,-65.96 275.90,-66.76 C275.25,-67.07 265.61,-64.89 262.41,-64.04 C261.81,-63.90 261.22,-63.75 260.63,-63.60" fill="none" stroke="rgb(0, 165, 255)" stroke-width="2.88" stroke-opacity="1.00" stroke-linejoin="round"/>
<path d="M164.99,-129.21 C164.99,-129.21 164.10,-129.21 164.10,-129.21 C164.10,-129.21 176.72,-128.77 176.72,-128.77 C176.72,-128.77 176.51,-105.74 176.51,-105.74 C176.58,-105.60 181.30,-106.69 182.87,-105.76 C184.27,-104.85 185.34,-101.51 184.94,-97.43 C184.60,-94.21 182.58,-90.36 181.19,-88.91 C180.42,-88.15 178.92,-87.01 178.04,-86.86 C174.80,-86.37 169.41,-86.75 167.67,-87.03 C165.01,-87.50 161.38,-89.06 160.57,-90.87 C159.94,-92.36 159.28,-100.28 159.30,-101.63 C159.36,-103.44 160.67,-105.16 162.52,-106.18 C163.13,-106.49 165.52,-107.38 166.75,-107.85 C166.75,-107.85 168.06,-127.97 168.06,-127.97 C168.06,-127.97 167.52,-128.51 167.52,-128.51" fill="none" stroke="rgb(0, 165, 255)" stroke-width="2.88" stroke-opacity="1.00" stroke-linejoin="round"/>
<path d="M68.09,-193.95 C68.09,-193.95 66.33,-194.83 66.33,-194.83 C66.33,-194.83 80.42,-200.12 80.42,-200.12 C81.91,-192.75 84.22,-180.15 84.63,-179.40 C84.74,-179.22 87.26,-177.35 87.94,-175.20 C88.58,-172.99 87.74,-169.45 85.54,-163.85 C84.76,-161.93 83.68,-160.37 82.43,-159.29 C81.93,-158.89 78.84,-158.35 77.82,-158.31 C76.15,-158.28 74.22,-159.38 72.82,-160.96 C71.49,-162.57 69.48,-167.86 69.23,-171.13 C69.03,-174.22 70.24,-179.24 71.27,-179.58 C71.60,-179.68 75.50,-179.86 75.57,-179.95 C75.11,-184.19 72.59,-200.06 73.35,-206.06 C73.35,-206.06 73.38,-205.99 73.38,-205.99" fill="none" stroke="rgb(0, 165, 255)" stroke-width="2.88" stroke-opacity="1.00" stroke-linejoin="round"/>
<path d="M-28.36,-191.75 C-27.61,-193.57 -23.04,-195.32 -21.29,-196.10 C-21.29,-196.10 -19.50,-174.14 -19.50,-174.14 C-16.94,-172.98 -15.81,-172.25 -15.45,-171.30 C-14.97,-170.01 -14.81,-169.42 -14.50,-167.65 C-14.29,-166.19 -14.67,-163.70 -15.39,-162.15 C-16.12,-160.66 -20.82,-158.72 -22.60,-158.76 C-24.57,-158.84 -27.00,-159.60 -27.83,-160.47 C-29.48,-162.31 -31.24,-167.04 -31.25,-168.90 C-31.22,-170.60 -29.71,-172.93 -26.98,-174.94 C-26.66,-175.17 -26.24,-175.51 -25.72,-175.95 C-25.95,-181.10 -27.03,-195.45 -27.04,-195.48 C-27.06,-195.54 -27.16,-195.71 -27.33,-195.99" fill="none" stroke="rgb(0, 165, 255)" stroke-width="2.88" stroke-opacity="1.00" stroke-linejoin="round"/>
<path d="M244.19,112.60 C244.19,112.60 244.23,112.31 244.23,112.31 C244.25,112.29 244.33,112.26 244.45,112.21 C245.18,111.91 247.22,111.09 247.88,110.91 C250.44,110.26 255.48,109.92 255.41,109.93 C255.97,110.63 257.37,131.26 258.06,131.92 C258.28,132.11 261.59,133.90 262.06,134.95 C262.90,136.96 261.70,142.56 259.88,144.62 C258.54,146.08 254.15,148.50 250.83,149.24 C248.75,149.68 245.01,149.84 244.12,149.53 C243.23,149.16 242.01,147.26 241.50,145.95 C240.73,143.89 239.87,139.38 239.94,137.78 C240.03,136.67 241.24,134.77 243.14,133.02 C244.49,131.80 249.62,127.52 250.06,126.33 C250.21,125.84 247.08,111.30 247.05,111.16 C247.05,111.16 246.57,111.27 246.57,111.27" fill="none" stroke="rgb(0, 165, 255)" stroke-width="2.88" stroke-opacity="1.00" stroke-linejoin="round"/>
<path d="M315.55,116.47 C315.55,116.47 315.40,116.02 315.40,116.02 C315.40,116.02 327.91,114.10 327.91,114.10 C326.51,120.58 327.00,124.29 327.39,125.10 C327.81,125.31 330.80,124.91 332.54,124.99 C333.83,125.06 335.57,125.79 336.27,126.45 C337.63,127.79 338.59,129.79 338.65,131.12 C338.65,132.33 337.02,136.66 335.30,138.78 C333.77,140.61 331.16,142.38 330.31,142.71 C328.53,143.37 324.67,144.03 321.26,144.26 C317.92,144.46 314.28,144.13 313.09,143.48 C310.57,141.99 308.94,133.60 309.54,132.34 C310.29,130.90 313.78,129.85 317.91,129.37 C317.91,129.37 317.05,117.69 317.05,117.69 C317.05,117.69 316.67,117.64 316.67,117.64" fill="none" stroke="rgb(0, 165, 255)" stroke-width="2.88" stroke-opacity="1.00" stroke-linejoin="round"/>
</g>
</svg>
