<?xml version="1.0" encoding="UTF-8" standalone="no"?>
<!DOCTYPE svg PUBLIC "-//W3C//DTD SVG 1.1//EN" "http://www.w3.org/Graphics/SVG/1.1/DTD/svg11.dtd">
<svg width="64.20" height="90.84" viewBox="0.00 0.00 535.00 757.00" xmlns="http://www.w3.org/2000/svg" xmlns:xlink="http://www.w3.org/1999/xlink">
<g stroke-linecap="round" transform="translate(44.00, 155.00)" id="31-해">
<path d="M353.59,-57.98 C353.59,-57.98 353.59,-58.52 353.59,-58.52 C353.46,-58.66 351.28,-60.42 350.78,-61.33 C349.34,-64.05 347.97,-67.94 348.05,-69.72 C348.21,-72.24 350.01,-77.72 351.23,-80.32 C352.46,-82.86 354.64,-85.81 356.88,-87.83 C361.53,-91.98 369.38,-96.22 375.23,-98.53 C380.81,-100.65 390.78,-102.92 397.03,-102.95 C400.23,-102.94 404.77,-102.25 406.25,-101.62 C407.22,-101.19 411.37,-98.14 413.17,-96.57 C415.09,-94.87 417.03,-91.95 418.40,-88.91 C419.70,-85.95 421.32,-80.72 421.72,-77.77 C422.08,-75.01 422.29,-69.67 421.85,-67.01 C421.72,-66.23 420.00,-58.60 419.61,-55.04 C419.60,-54.89 419.77,-54.39 420.33,-52.58" fill="none" stroke="rgb(237, 28, 36)" stroke-width="2.88" stroke-opacity="1.00" stroke-linejoin="round"/>
<path d="M334.70,-78.13 C334.76,-78.12 336.87,-77.88 339.49,-76.63 C342.60,-75.15 345.23,-74.25 346.83,-74.17 C346.94,-74.17 347.01,-74.17 347.06,-74.17" fill="none" stroke="rgb(237, 28, 36)" stroke-width="2.88" stroke-opacity="1.00" stroke-linejoin="round"/>
<path d="M344.96,-88.74 C344.96,-88.74 344.42,-88.74 344.42,-88.74 C344.41,-88.75 348.31,-86.28 348.70,-86.10 C348.81,-86.04 348.96,-86.02 349.16,-86.01" fill="none" stroke="rgb(237, 28, 36)" stroke-width="2.88" stroke-opacity="1.00" stroke-linejoin="round"/>
<path d="M354.49,-97.38 C354.50,-97.29 354.69,-96.16 356.82,-94.26 C357.70,-93.47 358.59,-92.69 359.47,-91.90 C359.75,-91.65 359.98,-91.45 360.14,-91.32" fill="none" stroke="rgb(237, 28, 36)" stroke-width="2.88" stroke-opacity="1.00" stroke-linejoin="round"/>
<path d="M369.78,-101.52 C369.78,-101.52 369.42,-101.52 369.42,-101.52 C369.41,-100.72 369.67,-94.93 369.74,-94.78 C369.79,-94.71 369.94,-94.50 370.20,-94.15" fill="none" stroke="rgb(237, 28, 36)" stroke-width="2.88" stroke-opacity="1.00" stroke-linejoin="round"/>
<path d="M386.69,-102.95 C386.69,-102.95 387.72,-94.70 387.72,-94.70 C387.72,-94.70 387.77,-95.57 387.77,-95.57" fill="none" stroke="rgb(237, 28, 36)" stroke-width="2.88" stroke-opacity="1.00" stroke-linejoin="round"/>
<path d="M397.85,-105.47 C397.85,-105.47 397.67,-105.47 397.67,-105.47 C397.67,-105.55 397.66,-103.76 397.69,-103.10 C397.76,-101.67 397.86,-99.64 397.85,-98.53 C397.85,-98.53 397.85,-98.71 397.85,-98.71" fill="none" stroke="rgb(237, 28, 36)" stroke-width="2.88" stroke-opacity="1.00" stroke-linejoin="round"/>
<path d="M418.53,-104.93 C418.53,-104.93 418.53,-104.69 418.53,-104.69 C418.48,-104.59 415.23,-100.87 413.40,-98.44 C412.93,-97.91 411.36,-96.31 411.09,-96.00 C411.03,-95.94 410.99,-95.91 410.98,-95.94" fill="none" stroke="rgb(237, 28, 36)" stroke-width="2.88" stroke-opacity="1.00" stroke-linejoin="round"/>
<path d="M428.61,-95.22 C427.79,-95.23 427.44,-95.19 427.25,-94.99 C426.97,-94.69 423.88,-90.03 423.67,-89.99 C423.67,-89.99 423.72,-91.26 423.72,-91.26" fill="none" stroke="rgb(237, 28, 36)" stroke-width="2.88" stroke-opacity="1.00" stroke-linejoin="round"/>
<path d="M436.34,-87.66 C435.98,-87.60 435.73,-87.56 435.61,-87.52 C434.67,-87.21 432.64,-84.60 431.26,-82.78 C431.26,-82.78 430.95,-82.72 430.95,-82.72 C430.95,-82.72 431.31,-84.78 431.31,-84.78" fill="none" stroke="rgb(237, 28, 36)" stroke-width="2.88" stroke-opacity="1.00" stroke-linejoin="round"/>
<path d="M437.06,-80.29 C436.42,-79.79 434.75,-77.93 434.10,-77.22 C433.95,-77.07 432.61,-75.73 432.56,-75.64 C432.56,-75.64 432.42,-75.76 432.42,-75.76" fill="none" stroke="rgb(237, 28, 36)" stroke-width="2.88" stroke-opacity="1.00" stroke-linejoin="round"/>
</g>
</svg>
