<?xml version="1.0" encoding="UTF-8" standalone="no"?>
<!DOCTYPE svg PUBLIC "-//W3C//DTD SVG 1.1//EN" "http://www.w3.org/Graphics/SVG/1.1/DTD/svg11.dtd">
<svg width="64.20" height="90.84" viewBox="0.00 0.00 535.00 757.00" xmlns="http://www.w3.org/2000/svg" xmlns:xlink="http://www.w3.org/1999/xlink">
<g stroke-linecap="round" transform="translate(44.00, 155.00)" id="31-나무">
<path d="M361.63,318.61 C361.63,318.61 361.53,318.31 361.53,318.31 C361.53,318.31 361.33,318.31 361.33,318.31 C361.35,318.71 360.30,322.16 360.05,324.09 C359.36,329.45 360.91,347.39 360.89,351.80 C360.87,354.90 359.96,371.50 359.72,377.47 C359.50,383.01 357.32,399.97 357.06,402.76 C356.57,408.26 356.61,421.49 357.22,427.37 C358.65,441.77 361.81,471.74 363.54,487.31 C364.14,492.28 364.38,507.87 364.64,508.25 C369.39,508.79 385.97,508.20 388.54,508.30 C388.85,508.32 400.23,509.26 403.15,509.21 C411.79,508.91 422.16,508.90 426.02,508.07 C428.65,507.51 430.89,506.81 430.86,506.81 C430.82,498.25 431.77,487.31 432.36,481.48 C432.92,474.91 432.94,461.19 433.18,456.68 C433.37,453.26 434.74,438.93 434.72,433.11 C434.54,413.10 432.56,384.01 433.00,375.30 C433.49,367.68 434.53,355.61 434.61,350.03 C434.71,342.92 431.27,314.15 431.33,313.93 C432.02,312.05 441.21,306.90 449.99,302.75 C453.81,300.90 463.12,294.45 468.72,291.67 C471.46,290.32 474.83,288.49 475.20,288.34 C475.87,288.17 469.85,278.01 464.15,270.27 C459.83,264.49 455.50,259.79 455.10,259.62 C454.13,259.85 447.83,262.62 445.47,264.24 C443.77,265.42 427.88,279.68 425.05,283.33 C420.62,289.11 418.92,293.95 418.58,295.07 C418.57,294.48 420.86,277.53 420.93,274.15 C420.96,270.14 421.01,262.79 420.67,260.55 C416.71,258.13 388.20,261.25 385.06,262.33 C385.06,262.34 387.84,269.51 388.22,271.99 C388.37,273.01 388.81,281.52 389.50,284.82 C390.67,290.41 391.90,299.98 391.74,299.86 C388.54,297.67 379.15,292.49 374.66,290.01 C369.80,287.25 363.78,283.84 353.29,279.55 C351.51,278.82 335.06,272.50 335.04,272.52 C334.18,273.30 330.25,277.53 328.08,279.90 C325.67,282.40 319.85,287.24 319.81,287.60 C330.64,296.61 338.90,302.21 341.36,303.87 C343.72,305.48 347.08,308.04 348.22,309.40 C349.37,310.80 352.93,317.16 353.90,318.47 C354.36,319.10 357.86,322.50 359.20,323.93 C359.20,323.93 359.65,322.96 359.65,322.96" fill="none" stroke="rgb(89, 62, 13)" stroke-width="2.88" stroke-opacity="1.00" stroke-linejoin="round"/>
<path d="M434.76,350.08 C434.76,350.08 434.16,349.33 434.16,349.33 C434.85,348.45 441.33,347.60 442.32,347.38 C444.03,346.98 449.52,344.98 452.63,344.11 C455.77,343.22 462.38,339.55 464.74,337.58 C466.73,335.90 471.72,330.10 473.93,326.74 C476.05,323.44 477.61,317.41 477.40,313.97 C476.91,307.62 472.83,303.48 471.97,302.75 C475.73,298.39 480.74,289.77 482.97,283.29 C484.56,278.62 486.94,267.26 487.41,261.79 C487.77,257.36 487.76,252.10 487.39,250.18 C486.87,247.72 484.84,244.16 483.26,242.50 C477.21,236.30 463.61,232.77 461.21,232.59 C460.35,232.50 458.99,228.92 458.10,225.69 C456.54,219.67 453.80,213.72 452.10,211.73 C450.75,210.20 444.61,206.74 442.28,205.85 C439.30,204.75 433.91,203.52 430.47,203.43 C423.86,203.30 417.52,205.61 414.98,206.52 C414.98,206.52 415.10,207.57 415.10,207.57 C415.03,206.44 413.38,201.37 412.21,199.20 C410.82,196.67 407.92,193.93 405.87,192.74 C403.99,191.70 399.98,190.75 395.98,190.31 C388.20,189.50 377.73,190.23 368.03,191.81 C364.74,192.36 361.63,193.45 358.81,195.48 C355.79,197.70 352.89,200.70 352.02,202.54 C350.54,205.75 349.46,211.08 349.34,211.29 C349.01,211.37 345.06,211.99 341.23,212.89 C337.31,213.85 332.83,216.03 329.61,218.47 C326.15,221.12 317.71,229.52 314.97,233.66 C313.67,235.65 311.44,240.32 310.77,242.83 C309.33,248.31 308.12,262.93 308.40,273.26 C308.46,277.52 307.87,281.47 306.62,285.75 C305.17,290.87 304.47,294.47 304.96,298.19 C305.44,301.41 309.32,311.30 312.52,317.34 C315.33,322.55 324.34,334.95 328.31,338.54 C330.40,340.40 336.07,344.22 338.18,345.14 C340.48,346.11 344.38,346.74 349.60,346.81 C353.48,346.84 357.61,345.51 358.67,345.08 C358.93,344.97 359.28,344.81 359.72,344.59" fill="none" stroke="rgb(89, 62, 13)" stroke-width="2.88" stroke-opacity="1.00" stroke-linejoin="round"/>
<path d="M355.04,399.83 C355.27,399.60 357.35,396.60 358.90,395.78 C360.45,395.02 363.73,395.13 368.53,395.75 C374.61,396.54 378.52,397.32 379.81,398.15 C382.97,400.26 385.51,403.23 386.44,406.07 C387.46,409.35 387.36,416.91 386.68,419.71 C386.12,421.87 384.28,426.30 382.38,428.80 C380.21,431.59 374.95,434.69 372.23,435.05 C370.04,435.30 366.62,434.58 365.55,434.18 C364.98,433.97 361.69,432.60 360.73,432.20" fill="none" stroke="rgb(89, 62, 13)" stroke-width="2.88" stroke-opacity="1.00" stroke-linejoin="round"/>
<path d="M356.24,405.82 C358.34,404.48 359.48,403.85 360.30,403.71 C362.16,403.40 366.10,403.64 369.68,405.22 C373.41,406.90 378.11,410.17 379.87,412.51 C380.78,413.79 381.80,416.24 381.96,417.68 C382.22,420.51 380.23,426.61 378.50,428.21 C377.62,428.98 375.31,430.32 374.32,430.66 C373.44,430.95 371.84,431.16 370.02,431.30" fill="none" stroke="rgb(89, 62, 13)" stroke-width="2.88" stroke-opacity="1.00" stroke-linejoin="round"/>
<path d="M358.03,410.92 C359.81,410.10 363.17,409.64 364.71,410.49 C366.97,411.80 369.19,415.02 369.58,416.61 C369.91,418.32 368.47,421.92 366.33,423.78 C365.65,424.35 364.61,424.66 363.55,424.71 C363.34,424.71 362.91,424.71 362.23,424.71" fill="none" stroke="rgb(89, 62, 13)" stroke-width="2.88" stroke-opacity="1.00" stroke-linejoin="round"/>
</g>
</svg>
