<?xml version="1.0" encoding="UTF-8" standalone="no"?>
<!DOCTYPE svg PUBLIC "-//W3C//DTD SVG 1.1//EN" "http://www.w3.org/Graphics/SVG/1.1/DTD/svg11.dtd">
<svg width="64.20" height="90.84" viewBox="0.00 0.00 535.00 757.00" xmlns="http://www.w3.org/2000/svg" xmlns:xlink="http://www.w3.org/1999/xlink">
<g stroke-linecap="round" transform="translate(156.00, 267.00)" id="31-우산">
<path d="M26.69,140.78" fill="none" stroke="rgb(255, 242, 0)" stroke-width="2.88" stroke-opacity="1.00" stroke-linejoin="round"/>
<path d="M130.47,-28.22 C130.46,-28.31 130.46,-28.39 130.47,-28.46 C130.48,-28.86 130.56,-29.30 130.70,-29.81 C130.82,-29.88 126.11,-50.15 125.63,-53.03 C124.93,-57.25 119.11,-72.17 117.24,-74.97 C117.01,-75.32 110.97,-83.14 109.48,-84.79 C107.53,-86.93 102.65,-90.25 100.71,-91.29 C97.43,-93.01 82.62,-96.91 77.75,-97.25 C73.07,-97.56 62.15,-96.04 56.05,-94.27 C52.43,-93.20 35.21,-87.35 28.78,-85.31 C24.40,-83.77 9.04,-74.18 6.64,-72.27 C2.80,-69.21 -3.53,-62.53 -5.90,-58.84 C-7.99,-55.57 -13.68,-44.10 -15.12,-40.50 C-16.60,-36.77 -17.98,-31.93 -18.38,-28.80 C-19.13,-22.48 -19.56,-11.67 -19.09,-11.25 C-17.89,-10.40 -16.20,-10.37 -12.58,-11.09 C-6.57,-12.31 -1.55,-12.29 9.90,-11.38 C17.97,-10.85 44.17,-13.08 47.04,-14.08 C50.74,-15.41 62.00,-22.88 65.86,-24.90 C68.41,-26.21 75.98,-29.70 78.48,-30.57 C84.43,-32.60 96.27,-32.94 102.86,-33.80 C106.16,-34.23 111.78,-33.99 115.17,-33.11 C121.81,-31.34 126.89,-29.50 128.07,-28.99 C128.07,-28.99 127.61,-26.08 127.61,-26.08" fill="none" stroke="rgb(255, 242, 0)" stroke-width="2.88" stroke-opacity="1.00" stroke-linejoin="round"/>
<path d="M49.06,-12.98 C49.04,-13.06 49.04,-13.14 49.06,-13.22 C49.12,-13.45 49.31,-13.95 49.30,-13.94 C49.57,-13.34 50.47,-0.07 49.72,9.59 C49.42,13.68 50.20,26.23 50.52,31.60 C50.74,34.34 52.07,39.97 52.32,41.67 C52.76,44.50 54.16,46.79 55.51,47.08 C56.95,47.31 59.08,45.98 59.66,44.11 C61.44,37.88 58.68,4.17 58.50,-1.24 C58.29,-10.59 57.70,-15.46 57.08,-19.26 C57.08,-19.26 57.15,-18.70 57.15,-18.70" fill="none" stroke="rgb(255, 242, 0)" stroke-width="2.88" stroke-opacity="1.00" stroke-linejoin="round"/>
<path d="M4.31,-69.16 C4.31,-68.83 4.32,-67.49 4.33,-66.48 C4.33,-63.64 3.81,-56.35 3.85,-53.78 C3.90,-51.86 6.03,-47.44 6.24,-46.44 C6.91,-43.29 7.63,-14.61 8.02,-13.21 C8.10,-12.98 8.31,-13.03 9.18,-13.20" fill="none" stroke="rgb(255, 242, 0)" stroke-width="2.88" stroke-opacity="1.00" stroke-linejoin="round"/>
<path d="M33.11,-82.01 C33.11,-82.01 33.11,-82.49 33.11,-82.49 C33.12,-81.05 32.99,-79.75 32.51,-76.54 C31.67,-70.48 32.85,-60.41 32.91,-51.48 C32.86,-44.53 32.87,-28.79 33.87,-26.98 C34.19,-26.43 36.35,-23.65 36.60,-21.67 C36.82,-19.89 36.92,-16.21 36.92,-14.42 C36.92,-14.26 36.92,-14.10 36.92,-13.94" fill="none" stroke="rgb(255, 242, 0)" stroke-width="2.88" stroke-opacity="1.00" stroke-linejoin="round"/>
<path d="M49.06,-89.15 C49.06,-89.15 49.06,-89.63 49.06,-89.63 C49.08,-89.69 48.45,-85.44 48.35,-82.48 C48.29,-80.47 48.54,-76.66 48.96,-72.26 C49.25,-69.25 52.19,-61.81 52.31,-61.51 C52.61,-60.77 55.28,-27.96 55.25,-21.81 C55.25,-21.61 55.25,-21.45 55.25,-21.31" fill="none" stroke="rgb(255, 242, 0)" stroke-width="2.88" stroke-opacity="1.00" stroke-linejoin="round"/>
<path d="M67.15,-90.34 C67.15,-90.34 67.15,-90.82 67.15,-90.82 C67.15,-90.25 68.97,-73.65 69.19,-68.89 C69.37,-64.73 69.91,-61.63 71.30,-57.99 C72.57,-54.61 74.17,-49.04 74.38,-46.82 C74.58,-44.31 74.27,-33.22 74.43,-30.74 C74.43,-30.74 74.77,-30.84 74.77,-30.84" fill="none" stroke="rgb(255, 242, 0)" stroke-width="2.88" stroke-opacity="1.00" stroke-linejoin="round"/>
<path d="M92.86,-88.68 C92.46,-88.84 91.99,-89.61 92.30,-90.19 C92.37,-90.31 92.55,-90.60 92.86,-91.06 C92.86,-91.06 95.15,-73.80 95.15,-73.80 C96.16,-73.21 97.40,-71.95 97.59,-70.07 C97.76,-68.27 96.72,-61.21 96.74,-59.51 C96.79,-57.35 98.13,-50.30 98.29,-48.55 C98.52,-45.90 99.29,-32.62 99.29,-32.08 C99.29,-32.08 99.51,-33.13 99.51,-33.13" fill="none" stroke="rgb(255, 242, 0)" stroke-width="2.88" stroke-opacity="1.00" stroke-linejoin="round"/>
</g>
</svg>
