<?xml version="1.0" encoding="UTF-8" standalone="no"?>
<!DOCTYPE svg PUBLIC "-//W3C//DTD SVG 1.1//EN" "http://www.w3.org/Graphics/SVG/1.1/DTD/svg11.dtd">
<svg width="64.20" height="90.84" viewBox="0.00 0.00 535.00 757.00" xmlns="http://www.w3.org/2000/svg" xmlns:xlink="http://www.w3.org/1999/xlink">
<g stroke-linecap="round" transform="translate(44.00, 155.00)" id="33-가방">
<path d="M239.97,129.36 C239.97,129.36 239.47,128.99 239.47,128.99 C239.48,128.78 240.86,125.71 241.25,124.95 C242.28,122.93 242.90,118.14 243.08,118.07 C246.12,117.18 272.62,115.49 290.53,115.61 C293.41,115.65 302.70,115.78 302.74,115.78 C303.83,115.83 305.07,117.26 304.92,119.12 C304.77,120.70 302.33,135.69 302.12,135.88 C300.37,136.84 288.58,135.93 283.42,135.48 C273.82,134.76 266.88,133.24 259.14,130.45 C254.11,128.63 245.03,126.50 243.11,125.71 C242.85,125.60 242.36,125.37 241.64,125.02" fill="none" stroke="rgb(86, 73, 61)" stroke-width="3.45" stroke-opacity="1.00" stroke-linejoin="round"/>
<path d="M240.21,130.11 C240.21,130.11 240.52,129.86 240.52,129.86 C240.57,129.85 240.67,129.88 240.81,129.94 C242.75,130.84 245.49,133.08 250.06,137.21 C252.21,139.16 254.15,142.01 254.53,142.11 C255.05,142.24 261.81,141.40 263.70,141.31 C265.58,141.23 273.06,141.74 276.01,141.80 C279.33,141.86 288.33,141.19 289.98,141.13 C294.82,140.95 300.05,142.21 300.15,142.20 C300.15,142.20 300.63,138.62 300.63,138.62 C300.94,139.05 302.26,141.03 302.41,141.22 C303.11,142.06 305.63,142.20 307.09,141.36 C309.99,139.63 311.56,134.24 311.30,133.51 C309.12,129.20 305.97,122.46 305.83,121.90 C305.83,121.90 304.28,121.92 304.28,121.92" fill="none" stroke="rgb(86, 73, 61)" stroke-width="3.45" stroke-opacity="1.00" stroke-linejoin="round"/>
<path d="M278.74,125.41 C278.10,124.44 269.74,120.26 267.62,120.56 C266.52,120.74 265.30,121.81 265.12,122.64 C264.93,123.68 265.03,125.35 265.45,126.13 C266.28,127.61 270.76,129.65 273.06,130.03 C274.79,130.30 278.23,130.10 279.35,129.72 C280.42,129.35 281.99,127.97 282.20,127.19 C282.40,126.20 278.76,123.09 275.93,122.08 C275.44,121.91 274.72,121.79 273.78,121.74" fill="none" stroke="rgb(86, 73, 61)" stroke-width="3.45" stroke-opacity="1.00" stroke-linejoin="round"/>
</g>
</svg>
