<?xml version="1.0" encoding="UTF-8" standalone="no"?>
<!DOCTYPE svg PUBLIC "-//W3C//DTD SVG 1.1//EN" "http://www.w3.org/Graphics/SVG/1.1/DTD/svg11.dtd">
<svg width="64.20" height="90.84" viewBox="0.00 0.00 535.00 757.00" xmlns="http://www.w3.org/2000/svg" xmlns:xlink="http://www.w3.org/1999/xlink">
<g stroke-linecap="round" transform="translate(154.00, 267.00)" id="33-사람-1">
<path d="M-18.99,87.87 C-18.99,87.87 -19.39,88.47 -19.39,88.47 C-18.88,91.29 -17.85,95.48 -16.18,99.95 C-14.60,104.28 -13.06,106.51 -11.54,107.47 C-9.89,108.45 -6.37,109.49 -4.17,109.47 C-2.08,109.42 2.92,107.97 5.43,106.54 C7.57,105.28 10.92,100.85 11.74,98.70 C12.50,96.60 12.78,83.00 12.77,82.97 C12.74,82.87 12.61,82.65 12.38,82.31" fill="none" stroke="rgb(33, 228, 63)" stroke-width="3.45" stroke-opacity="1.00" stroke-linejoin="round"/>
<path d="M-15.42,80.52 C-15.39,81.77 -15.52,83.49 -15.62,84.66 C-15.64,85.05 -15.63,85.73 -15.60,86.68 C-15.60,86.68 -15.22,86.08 -15.22,86.08" fill="none" stroke="rgb(33, 228, 63)" stroke-width="3.45" stroke-opacity="1.00" stroke-linejoin="round"/>
<path d="M-12.24,76.15 C-12.24,76.34 -12.24,76.57 -12.24,76.85 C-12.25,78.14 -12.27,81.58 -12.24,82.24 C-12.22,82.67 -12.15,83.36 -12.04,84.33 C-12.04,84.33 -11.65,83.70 -11.65,83.70" fill="none" stroke="rgb(33, 228, 63)" stroke-width="3.45" stroke-opacity="1.00" stroke-linejoin="round"/>
<path d="M-8.87,75.75 C-8.91,76.30 -9.09,78.40 -9.23,79.96 C-9.44,82.53 -9.45,83.84 -9.32,85.00 C-9.32,85.00 -9.14,85.07 -9.14,85.07 C-9.14,85.07 -8.67,84.09 -8.67,84.09" fill="none" stroke="rgb(33, 228, 63)" stroke-width="3.45" stroke-opacity="1.00" stroke-linejoin="round"/>
<path d="M-5.49,74.56 C-5.55,75.93 -5.62,76.82 -5.99,80.47 C-6.07,81.40 -6.09,82.58 -6.08,84.18 C-6.08,84.18 -5.69,84.49 -5.69,84.49" fill="none" stroke="rgb(33, 228, 63)" stroke-width="3.45" stroke-opacity="1.00" stroke-linejoin="round"/>
<path d="M-1.72,74.17 C-1.72,74.17 -1.62,74.07 -1.62,74.07 C-1.52,74.03 -1.52,75.45 -1.67,77.11 C-1.81,78.30 -2.06,80.66 -2.11,81.86 C-2.14,82.40 -2.07,82.71 -1.96,82.98 C-1.96,82.98 -1.12,82.11 -1.12,82.11" fill="none" stroke="rgb(33, 228, 63)" stroke-width="3.45" stroke-opacity="1.00" stroke-linejoin="round"/>
<path d="M2.26,74.17 C2.26,74.51 2.26,74.85 2.26,75.19 C2.26,77.36 2.15,79.73 2.07,81.31 C2.06,81.71 2.07,82.20 2.10,82.80 C2.10,82.80 2.21,82.78 2.21,82.78 C2.21,82.78 2.65,81.12 2.65,81.12" fill="none" stroke="rgb(33, 228, 63)" stroke-width="3.45" stroke-opacity="1.00" stroke-linejoin="round"/>
<path d="M5.43,73.57 C5.47,74.29 4.93,78.80 5.08,81.74 C5.09,82.10 5.13,82.36 5.19,82.54 C5.19,82.54 5.55,82.61 5.55,82.61" fill="none" stroke="rgb(33, 228, 63)" stroke-width="3.45" stroke-opacity="1.00" stroke-linejoin="round"/>
<path d="M9.21,73.37 C8.71,74.78 8.22,77.41 8.21,81.20 C8.22,81.65 8.22,81.88 8.21,81.89 C8.20,81.94 8.15,82.18 8.06,82.60" fill="none" stroke="rgb(33, 228, 63)" stroke-width="3.45" stroke-opacity="1.00" stroke-linejoin="round"/>
<path d="M-8.07,89.85 C-8.07,89.85 -8.17,89.85 -8.17,89.85 C-8.17,89.85 -7.97,90.92 -7.97,90.92 C-7.97,90.92 -7.87,90.13 -7.87,90.13" fill="none" stroke="rgb(33, 228, 63)" stroke-width="3.45" stroke-opacity="1.00" stroke-linejoin="round"/>
<path d="M3.84,87.07 C3.32,87.33 2.91,87.64 2.82,88.11 C2.78,88.30 2.73,88.83 2.65,89.67 C2.93,89.67 3.05,89.44 3.04,88.89 C3.04,88.73 2.92,88.62 2.55,88.33" fill="none" stroke="rgb(33, 228, 63)" stroke-width="3.45" stroke-opacity="1.00" stroke-linejoin="round"/>
<path d="M-2.11,95.41 C-2.11,95.41 -2.31,95.41 -2.31,95.41 C-2.31,95.41 -2.31,95.69 -2.31,95.69" fill="none" stroke="rgb(33, 228, 63)" stroke-width="3.45" stroke-opacity="1.00" stroke-linejoin="round"/>
<path d="M-1.32,101.97 C-1.32,101.97 -1.52,102.02 -1.52,102.02 C-1.52,102.02 -0.89,103.74 -0.89,103.74 C-0.89,103.74 -0.72,102.32 -0.72,102.32 C-0.72,102.32 -1.47,103.41 -1.47,103.41 C-1.47,103.41 -1.06,103.24 -1.06,103.24" fill="none" stroke="rgb(33, 228, 63)" stroke-width="3.45" stroke-opacity="1.00" stroke-linejoin="round"/>
<path d="M-3.50,112.89 C-3.50,112.89 -3.50,121.41 -3.50,121.41 C-3.50,121.41 -3.38,121.04 -3.38,121.04" fill="none" stroke="rgb(33, 228, 63)" stroke-width="3.45" stroke-opacity="1.00" stroke-linejoin="round"/>
<path d="M-3.11,119.64 C-4.48,119.64 -6.78,119.65 -7.44,119.79 C-9.57,120.25 -18.82,123.03 -20.45,123.77 C-22.88,124.89 -24.84,126.73 -25.52,127.87 C-27.57,131.51 -27.27,141.19 -26.65,142.52 C-26.45,142.68 -19.77,142.93 -17.37,143.02 C-16.34,143.04 -16.07,142.87 -15.36,141.01 C-13.94,137.40 -11.33,132.64 -10.48,131.97 C-10.48,131.97 -7.70,156.68 -7.70,156.68 C-7.36,156.73 2.65,155.82 16.33,155.74 C20.01,155.73 23.02,155.53 23.20,155.51 C23.20,155.51 23.51,154.79 23.51,154.79" fill="none" stroke="rgb(33, 228, 63)" stroke-width="3.45" stroke-opacity="1.00" stroke-linejoin="round"/>
<path d="M2.26,112.89 C2.26,112.89 1.46,111.70 1.46,111.70 C1.46,111.70 2.38,118.39 2.38,118.39 C2.44,118.42 4.45,116.69 5.61,117.00 C6.17,117.17 11.64,121.66 12.20,121.51 C12.63,121.34 18.60,118.16 20.72,117.54 C22.69,116.98 26.12,117.03 26.75,117.25 C27.60,117.70 29.03,129.79 29.60,134.22 C29.60,134.22 17.48,135.14 17.48,135.14 C17.32,135.06 18.63,145.79 18.74,151.31 C18.74,151.34 18.74,151.46 18.74,151.42" fill="none" stroke="rgb(33, 228, 63)" stroke-width="3.45" stroke-opacity="1.00" stroke-linejoin="round"/>
<path d="M-8.47,121.63 C-8.47,121.63 -8.77,121.63 -8.77,121.63 C-8.77,121.63 -8.87,121.74 -8.87,121.74 C-8.70,122.65 -7.64,124.69 -5.44,126.18 C-3.16,127.69 -0.45,128.87 0.73,129.01 C2.16,129.12 5.33,127.65 7.91,125.63 C9.88,124.05 11.87,120.98 12.20,120.24 C12.25,120.11 12.31,119.98 12.38,119.84" fill="none" stroke="rgb(33, 228, 63)" stroke-width="3.45" stroke-opacity="1.00" stroke-linejoin="round"/>
<path d="M-26.74,142.68 C-26.74,142.68 -26.94,142.68 -26.94,142.68 C-26.94,142.66 -26.94,142.71 -26.94,142.72 C-26.95,144.84 -27.70,156.37 -28.13,160.75 C-29.10,160.63 -31.36,161.02 -32.11,161.46 C-33.86,162.54 -35.33,166.39 -34.69,167.53 C-34.69,167.53 -31.91,167.66 -31.91,167.66 C-31.91,167.66 -31.35,172.13 -31.35,172.13 C-31.35,172.13 -26.92,170.20 -26.92,170.20 C-26.71,170.27 -24.75,171.53 -23.86,171.12 C-22.96,170.65 -22.15,168.40 -22.29,167.28 C-22.46,166.22 -23.04,165.30 -25.35,163.38 C-26.32,162.52 -21.94,145.89 -21.83,145.42 C-21.81,145.34 -21.79,145.29 -21.77,145.26" fill="none" stroke="rgb(33, 228, 63)" stroke-width="3.45" stroke-opacity="1.00" stroke-linejoin="round"/>
<path d="M29.07,128.18 C29.07,128.18 29.07,128.38 29.07,128.38 C29.03,128.36 30.65,128.63 31.18,128.65 C33.88,128.72 39.10,126.54 41.63,125.49 C42.62,125.08 44.39,124.27 44.81,124.12 C45.20,123.94 44.76,113.79 45.22,113.33 C45.42,113.19 49.23,112.57 50.07,111.29 C50.60,110.37 50.67,107.17 50.26,106.24 C49.79,105.32 48.28,105.16 47.45,105.87 C45.97,107.20 44.63,109.72 44.56,109.75 C43.81,109.50 36.90,109.65 36.29,109.68 C32.07,109.85 31.16,111.11 30.99,111.71 C31.30,112.91 33.55,115.22 35.15,115.77 C35.89,116.02 37.73,116.52 37.72,116.59 C37.90,117.48 37.80,119.62 37.49,120.21 C36.88,121.14 30.73,121.06 28.87,120.87 C28.87,120.87 28.67,120.44 28.67,120.44" fill="none" stroke="rgb(33, 228, 63)" stroke-width="3.45" stroke-opacity="1.00" stroke-linejoin="round"/>
<path d="M-7.87,157.77 C-8.23,158.34 -8.47,158.67 -8.47,159.05 C-7.93,172.16 -6.09,189.42 -5.53,191.31 C-3.97,192.02 4.45,192.07 9.92,190.43 C9.92,190.43 10.11,181.60 10.11,181.60 C10.43,182.47 12.50,190.87 12.93,191.96 C13.19,192.61 14.20,193.69 15.70,193.72 C18.60,193.76 30.86,192.42 31.47,191.93 C32.88,176.61 33.41,164.90 32.18,161.19 C31.35,158.74 29.43,156.56 29.24,156.32 C29.19,156.25 29.13,156.14 29.07,155.99" fill="none" stroke="rgb(33, 228, 63)" stroke-width="3.45" stroke-opacity="1.00" stroke-linejoin="round"/>
<path d="M-3.72,194.10 C-3.72,194.10 -3.90,193.75 -3.90,193.75 C-3.87,194.80 -4.19,200.36 -4.28,201.78 C-4.70,210.07 -5.63,218.90 -5.66,219.42 C-6.39,219.42 -12.59,220.33 -14.91,221.02 C-16.98,221.65 -18.63,223.16 -18.90,223.90 C-19.44,225.53 -19.01,228.28 -18.46,229.23 C-17.90,230.13 -16.22,231.13 -14.97,231.39 C-7.26,232.84 2.99,227.73 3.62,227.33 C3.84,226.78 3.19,210.37 3.20,207.91 C3.26,201.42 2.47,194.96 2.47,194.96 C2.42,195.02 2.38,195.06 2.36,195.10 C2.34,195.13 2.30,195.21 2.26,195.33" fill="none" stroke="rgb(33, 228, 63)" stroke-width="3.45" stroke-opacity="1.00" stroke-linejoin="round"/>
<path d="M-11.63,221.35 C-11.63,221.35 -11.81,221.40 -11.81,221.40 C-11.28,222.04 -6.63,224.10 -5.99,224.08 C-4.73,224.00 2.14,220.60 2.82,220.36 C3.01,220.30 3.23,220.22 3.49,220.12" fill="none" stroke="rgb(33, 228, 63)" stroke-width="3.45" stroke-opacity="1.00" stroke-linejoin="round"/>
<path d="M20.54,195.16 C20.57,195.22 20.39,195.49 20.37,195.84 C20.36,195.95 20.40,212.76 21.55,217.88 C22.50,222.01 24.05,224.04 24.75,224.63 C26.79,226.33 28.67,228.02 29.40,228.09 C30.07,228.13 42.84,226.86 45.34,225.43 C46.08,224.97 47.40,223.25 47.68,222.55 C48.01,221.66 47.56,219.57 46.76,218.81 C45.87,218.00 42.58,217.00 40.14,216.65 C37.42,216.28 32.62,215.86 31.37,215.51 C29.77,215.05 29.07,213.83 29.01,212.64 C29.00,212.33 28.77,196.84 28.63,192.09 C28.63,192.06 28.63,191.96 28.63,191.99" fill="none" stroke="rgb(33, 228, 63)" stroke-width="3.45" stroke-opacity="1.00" stroke-linejoin="round"/>
<path d="M30.74,216.43 C30.39,216.44 30.02,216.65 29.53,217.21 C28.23,218.65 26.19,218.98 23.15,218.88 C22.92,218.87 22.80,218.84 22.78,218.80 C22.78,218.80 22.83,218.37 22.83,218.37" fill="none" stroke="rgb(33, 228, 63)" stroke-width="3.45" stroke-opacity="1.00" stroke-linejoin="round"/>
</g>
</svg>
