<?xml version="1.0" encoding="UTF-8" standalone="no"?>
<!DOCTYPE svg PUBLIC "-//W3C//DTD SVG 1.1//EN" "http://www.w3.org/Graphics/SVG/1.1/DTD/svg11.dtd">
<svg width="64.20" height="90.84" viewBox="0.00 0.00 535.00 757.00" xmlns="http://www.w3.org/2000/svg" xmlns:xlink="http://www.w3.org/1999/xlink">
<g stroke-linecap="round" transform="translate(156.00, 267.00)" id="33-우산-1">
<path d="M60.67,242.79 C60.67,242.79 60.67,242.55 60.67,242.55 C60.39,240.10 60.17,235.06 60.69,233.77 C61.76,231.36 64.84,224.20 64.86,224.15 C65.79,222.20 69.06,218.22 71.15,216.32 C74.06,213.71 82.49,207.41 83.83,206.53 C85.52,205.41 103.21,197.42 104.94,196.74 C107.36,195.79 112.41,194.64 115.21,194.26 C118.08,193.89 121.89,194.12 124.52,194.98 C127.24,195.90 132.80,198.54 134.55,199.59 C136.78,200.95 140.57,204.38 142.52,206.42 C144.26,208.25 147.77,213.34 149.21,216.39 C150.63,219.43 152.13,224.65 152.52,227.96 C153.17,233.65 153.29,245.71 152.82,252.26 C152.70,252.23 148.75,250.61 145.98,250.07 C142.69,249.46 128.99,248.86 120.95,247.76 C114.37,246.90 101.11,245.28 94.04,245.28 C85.02,245.29 65.46,244.50 65.07,244.52 C64.86,244.54 64.42,244.59 63.75,244.68" fill="none" stroke="rgb(255, 242, 0)" stroke-width="3.45" stroke-opacity="1.00" stroke-linejoin="round"/>
<path d="M114.92,191.62 C114.92,191.62 115.16,191.62 115.16,191.62 C115.16,191.62 115.15,190.72 115.16,190.36 C115.28,187.45 116.30,183.92 117.74,180.90 C118.38,179.62 119.92,179.50 121.30,180.15 C122.06,180.55 122.79,181.56 122.90,182.49 C123.01,183.74 121.92,191.78 122.11,195.57 C122.14,195.96 122.17,196.23 122.21,196.39 C122.21,196.39 120.52,198.41 120.52,198.41" fill="none" stroke="rgb(255, 242, 0)" stroke-width="3.45" stroke-opacity="1.00" stroke-linejoin="round"/>
<path d="M115.16,196.59 C115.10,196.61 115.06,196.61 115.04,196.59 C114.58,196.45 111.78,199.35 108.63,203.81 C103.45,211.26 98.84,220.94 95.66,227.58 C91.59,236.16 90.23,242.39 90.03,243.72 C89.99,243.88 90.04,243.99 90.46,244.81" fill="none" stroke="rgb(255, 242, 0)" stroke-width="3.45" stroke-opacity="1.00" stroke-linejoin="round"/>
<path d="M123.21,197.07 C123.21,197.96 123.21,200.17 123.21,201.49 C123.20,205.71 123.67,210.51 124.55,213.50 C128.50,225.25 135.58,246.38 136.09,249.33 C136.12,249.50 136.09,249.61 136.00,249.66" fill="none" stroke="rgb(255, 242, 0)" stroke-width="3.45" stroke-opacity="1.00" stroke-linejoin="round"/>
<path d="M77.97,245.87 C77.97,245.87 77.85,245.39 77.85,245.39 C77.74,245.40 77.53,245.89 76.33,248.90 C73.60,255.63 67.82,269.93 66.75,273.87 C63.81,284.78 59.15,297.58 58.66,300.01 C57.91,303.94 57.69,309.26 58.59,311.24 C60.45,311.14 61.51,310.84 62.49,310.00 C63.60,309.00 64.73,307.50 65.19,306.25 C65.48,305.41 81.79,251.02 82.69,245.65 C82.73,245.37 82.82,244.65 82.94,243.50" fill="none" stroke="rgb(255, 242, 0)" stroke-width="3.45" stroke-opacity="1.00" stroke-linejoin="round"/>
</g>
</svg>
