<?xml version="1.0" encoding="UTF-8" standalone="no"?>
<!DOCTYPE svg PUBLIC "-//W3C//DTD SVG 1.1//EN" "http://www.w3.org/Graphics/SVG/1.1/DTD/svg11.dtd">
<svg width="64.20" height="90.84" viewBox="0.00 0.00 535.00 757.00" xmlns="http://www.w3.org/2000/svg" xmlns:xlink="http://www.w3.org/1999/xlink">
<g stroke-linecap="round" transform="translate(154.00, 267.00)" id="35-사람">
<path d="M139.13,55.30 C139.10,55.29 136.94,46.39 135.93,42.75 C135.32,40.60 132.72,35.62 131.21,33.37 C129.52,30.91 126.23,27.94 122.87,26.51 C120.12,25.36 116.00,24.25 112.66,24.00 C108.96,23.75 102.75,24.65 100.37,25.54 C98.00,26.46 94.48,28.16 93.39,29.03 C91.04,30.94 87.58,35.40 86.60,37.17 C85.17,39.83 82.30,49.82 82.34,52.26 C78.65,52.49 75.26,52.82 73.16,53.04 C70.57,53.28 64.80,53.47 61.81,54.67 C60.38,55.26 59.09,56.49 58.91,57.45 C58.63,59.18 60.51,62.58 62.55,63.72 C63.99,64.45 67.07,64.73 72.46,64.79 C85.75,64.88 105.90,65.39 112.76,65.81 C115.67,65.82 133.01,64.27 138.30,64.23 C145.54,64.20 149.87,64.05 153.82,63.35 C156.24,62.91 160.14,61.71 160.35,61.37 C160.72,60.62 160.59,58.35 159.99,56.99 C159.35,55.63 156.68,53.73 154.58,53.10 C152.48,52.50 147.96,51.86 145.90,52.00 C143.85,52.17 141.21,53.06 140.69,53.16 C140.40,53.22 139.82,53.28 138.95,53.33" fill="none" stroke="rgb(33, 228, 63)" stroke-width="3.10" stroke-opacity="1.00" stroke-linejoin="round"/>
<path d="M83.59,66.91 C83.59,66.91 83.02,66.91 83.02,66.91 C82.65,67.16 82.25,68.91 82.41,70.04 C82.59,71.09 83.83,72.36 84.74,72.49 C87.26,72.79 90.55,71.71 91.95,70.51 C91.96,70.51 92.89,69.63 92.88,69.64 C93.41,70.92 95.57,72.69 97.17,73.13 C98.83,73.55 101.58,73.08 102.92,72.15 C103.84,71.50 104.97,70.16 105.02,70.12 C105.58,70.85 107.72,72.21 109.32,72.64 C112.51,73.46 115.07,71.28 116.09,70.32 C116.38,70.54 120.42,71.96 122.42,72.12 C126.65,72.39 130.04,69.62 130.10,69.60 C130.68,69.70 134.01,69.85 135.00,69.61 C136.42,69.25 138.07,66.81 138.15,66.00 C138.17,65.78 137.95,65.16 137.88,64.94" fill="none" stroke="rgb(33, 228, 63)" stroke-width="3.10" stroke-opacity="1.00" stroke-linejoin="round"/>
<path d="M84.67,72.08 C84.67,72.08 84.23,72.11 84.23,72.11 C84.11,72.30 83.69,75.42 84.22,77.19 C85.44,81.10 86.09,82.91 88.30,86.81 C90.55,90.71 93.75,94.10 96.16,95.50 C98.15,96.62 102.67,98.25 104.51,98.53 C106.43,98.81 110.34,98.29 112.60,97.51 C115.31,96.55 121.06,93.18 123.65,90.92 C124.87,89.83 126.55,87.45 128.07,84.10 C130.26,79.18 131.18,72.14 131.16,72.04 C131.16,72.04 129.84,70.65 129.84,70.65" fill="none" stroke="rgb(33, 228, 63)" stroke-width="3.10" stroke-opacity="1.00" stroke-linejoin="round"/>
<path d="M94.31,80.83 C94.19,80.84 93.98,80.81 93.86,80.74 C93.83,80.73 93.80,80.70 93.77,80.65 C93.87,79.96 94.82,78.94 95.95,78.55 C98.38,77.76 101.76,78.93 101.99,79.08 C102.09,79.14 102.33,79.31 102.70,79.58" fill="none" stroke="rgb(33, 228, 63)" stroke-width="3.10" stroke-opacity="1.00" stroke-linejoin="round"/>
<path d="M108.41,80.65 C108.41,80.65 108.15,80.65 108.15,80.65 C108.08,80.61 107.64,82.10 107.46,82.72 C106.73,85.14 106.66,85.59 106.70,85.78 C107.03,85.97 107.39,86.12 107.65,86.16 C107.73,86.17 107.86,86.18 108.05,86.19" fill="none" stroke="rgb(33, 228, 63)" stroke-width="3.10" stroke-opacity="1.00" stroke-linejoin="round"/>
<path d="M113.59,78.51 C113.72,78.14 113.86,77.87 114.13,77.67 C115.24,76.87 118.94,75.65 120.00,75.59 C120.81,75.57 123.80,76.73 124.46,77.51 C124.54,77.62 124.61,77.77 124.66,77.98" fill="none" stroke="rgb(33, 228, 63)" stroke-width="3.10" stroke-opacity="1.00" stroke-linejoin="round"/>
<path d="M104.13,91.37 C109.73,91.93 112.80,90.57 113.41,90.30 C113.41,90.30 113.41,89.94 113.41,89.94" fill="none" stroke="rgb(33, 228, 63)" stroke-width="3.10" stroke-opacity="1.00" stroke-linejoin="round"/>
<path d="M105.38,98.33 C105.35,98.51 105.56,102.93 104.71,105.87 C103.61,109.54 102.68,111.14 101.35,112.29 C99.94,113.43 96.88,113.52 96.09,113.51" fill="none" stroke="rgb(33, 228, 63)" stroke-width="3.10" stroke-opacity="1.00" stroke-linejoin="round"/>
<path d="M120.73,94.58 C120.34,96.50 120.20,99.80 120.05,102.45 C119.95,104.64 121.22,107.29 122.49,108.69 C123.17,109.41 127.24,112.41 128.69,113.47 C128.69,113.47 128.77,112.97 128.77,112.97" fill="none" stroke="rgb(33, 228, 63)" stroke-width="3.10" stroke-opacity="1.00" stroke-linejoin="round"/>
<path d="M98.24,113.15 C98.24,113.15 98.06,113.15 98.06,113.15 C98.17,113.65 99.09,115.46 100.13,116.25 C102.48,118.00 107.50,119.63 109.13,119.89 C111.08,120.18 114.85,119.90 119.31,118.65 C122.37,117.76 125.66,116.01 127.34,114.09 C127.34,114.09 127.34,113.51 127.34,113.51" fill="none" stroke="rgb(33, 228, 63)" stroke-width="3.10" stroke-opacity="1.00" stroke-linejoin="round"/>
<path d="M97.52,114.22 C97.35,114.24 97.23,114.24 97.15,114.22 C96.99,114.18 94.05,113.09 91.53,113.18 C85.91,113.43 73.57,117.97 69.81,117.63 C67.85,117.39 65.83,116.24 63.31,113.43 C61.06,110.87 56.57,104.57 54.43,101.64 C52.57,99.00 50.85,94.05 50.26,91.34 C49.94,89.78 46.82,75.20 45.38,72.98 C45.38,72.97 45.41,72.98 45.38,72.80 C44.79,73.00 38.95,75.40 37.26,75.87 C34.81,76.51 29.59,76.47 26.63,75.84 C26.56,78.29 28.54,92.70 29.64,96.93 C30.36,99.55 35.65,114.76 37.20,117.16 C40.56,122.30 46.53,128.23 53.92,134.56 C57.13,137.39 61.66,141.07 63.91,142.88 C66.74,145.16 70.67,147.18 74.15,148.05 C75.40,148.36 77.15,148.57 80.27,148.87 C80.27,148.87 79.84,149.04 79.84,149.04" fill="none" stroke="rgb(33, 228, 63)" stroke-width="3.10" stroke-opacity="1.00" stroke-linejoin="round"/>
<path d="M80.47,148.97 C80.47,148.97 80.36,148.97 80.36,148.97 C80.32,148.98 76.54,163.62 75.39,167.33 C72.15,177.69 67.79,189.01 67.60,189.55 C65.60,195.19 60.96,212.30 60.30,214.48 C59.38,217.47 47.31,248.45 46.84,250.15 C45.91,253.59 45.04,262.24 45.30,266.59 C45.30,266.59 52.25,266.37 52.25,266.37 C52.21,267.12 56.63,268.40 59.59,268.92 C64.32,269.74 80.76,270.75 83.96,270.92 C88.11,271.20 90.30,271.55 92.77,272.83 C95.84,274.25 102.11,275.12 104.92,275.29 C110.48,275.57 126.69,276.00 135.51,276.19 C147.02,276.40 156.12,275.87 162.93,275.47 C170.87,274.87 180.58,273.54 180.84,273.53 C180.81,269.19 181.24,263.65 181.47,260.94 C181.57,259.22 180.31,252.53 180.19,251.76 C179.64,248.18 179.47,237.54 179.43,236.73 C179.36,235.61 176.45,215.89 175.81,213.44 C174.87,209.89 169.21,198.95 167.48,193.50 C166.75,191.17 166.75,190.66 166.71,190.56 C166.68,190.48 166.57,190.28 166.39,189.94" fill="none" stroke="rgb(33, 228, 63)" stroke-width="3.10" stroke-opacity="1.00" stroke-linejoin="round"/>
<path d="M143.20,143.37 C145.14,145.62 155.55,163.83 157.66,167.19 C159.36,169.92 163.19,178.39 164.31,180.28 C164.37,180.37 164.43,180.47 164.49,180.56" fill="none" stroke="rgb(33, 228, 63)" stroke-width="3.10" stroke-opacity="1.00" stroke-linejoin="round"/>
<path d="M161.35,182.80 C161.35,182.80 160.90,182.64 160.90,182.64 C165.03,185.66 169.60,188.72 170.52,189.63 C171.47,190.58 177.94,199.39 178.36,199.80 C178.30,199.92 183.80,196.52 186.38,195.08 C189.29,193.48 196.46,192.43 196.67,192.35 C197.32,190.69 195.43,181.41 194.30,176.08 C193.44,171.62 189.21,158.20 188.34,156.15 C186.70,152.29 182.71,145.00 177.27,138.93 C174.16,135.51 171.71,133.03 168.72,130.79 C165.31,128.22 160.05,122.46 158.93,121.56 C155.68,118.98 147.07,114.88 140.82,113.04 C139.40,112.64 132.36,110.22 130.03,110.02 C129.92,110.01 129.76,110.00 129.54,109.99" fill="none" stroke="rgb(33, 228, 63)" stroke-width="3.10" stroke-opacity="1.00" stroke-linejoin="round"/>
<path d="M111.17,121.87 C111.17,121.87 110.94,121.87 110.94,121.87 C111.11,123.22 111.76,141.58 111.69,142.95 C111.66,143.62 110.41,158.55 110.13,168.64 C109.82,184.09 109.84,204.13 110.84,224.98 C111.16,234.24 111.14,245.68 110.49,250.06 C109.33,257.77 109.13,263.20 110.05,269.78 C110.05,269.78 110.27,269.05 110.27,269.05" fill="none" stroke="rgb(33, 228, 63)" stroke-width="3.10" stroke-opacity="1.00" stroke-linejoin="round"/>
<path d="M116.09,157.93 C116.09,157.93 115.65,157.71 115.65,157.71 C115.22,158.27 114.65,162.57 115.00,163.75 C115.35,164.78 116.99,165.38 118.00,165.03 C119.00,164.65 120.27,163.19 120.36,162.33 C120.41,161.58 119.59,159.88 118.43,158.96 C118.22,158.79 117.80,158.49 117.19,158.07" fill="none" stroke="rgb(33, 228, 63)" stroke-width="3.10" stroke-opacity="1.00" stroke-linejoin="round"/>
<path d="M118.56,177.43 C118.56,177.43 117.33,177.54 117.33,177.54 C116.97,178.17 116.45,181.78 116.68,182.46 C117.07,183.46 119.07,184.29 120.19,183.54 C121.24,182.79 122.32,180.12 122.14,179.22 C121.92,178.34 121.14,177.88 120.22,177.48 C120.22,177.48 118.83,177.97 118.83,177.97" fill="none" stroke="rgb(33, 228, 63)" stroke-width="3.10" stroke-opacity="1.00" stroke-linejoin="round"/>
<path d="M121.25,199.83 C120.23,199.82 118.94,200.46 118.37,201.07 C117.49,202.06 117.16,205.86 117.76,206.75 C118.47,207.68 120.81,207.29 121.93,206.00 C122.40,205.43 123.05,204.22 123.37,203.35 C123.65,202.54 123.53,201.68 123.03,200.24 C123.03,200.24 121.05,199.25 121.05,199.25" fill="none" stroke="rgb(33, 228, 63)" stroke-width="3.10" stroke-opacity="1.00" stroke-linejoin="round"/>
<path d="M28.72,75.49 C28.72,75.49 28.50,75.49 28.50,75.49 C28.55,75.07 29.30,72.49 29.50,68.80 C29.64,66.01 29.61,65.50 28.90,65.08 C27.56,64.28 25.07,61.62 23.86,59.29 C22.76,57.13 22.71,56.09 22.82,55.85 C22.82,55.85 28.74,58.72 28.74,58.72 C27.00,52.36 27.65,50.21 28.24,49.96 C30.00,50.18 32.19,54.39 33.38,56.87 C33.38,56.87 34.13,48.15 34.13,48.15 C35.57,48.37 37.61,54.07 38.26,56.97 C38.33,56.87 38.49,52.43 38.56,51.81 C38.86,49.05 40.33,46.71 41.05,46.39 C41.72,46.16 42.92,47.21 43.81,48.88 C44.77,50.74 45.62,55.41 45.70,57.60 C45.86,63.40 44.35,73.23 44.24,73.95 C44.20,74.17 44.18,74.44 44.18,74.75" fill="none" stroke="rgb(33, 228, 63)" stroke-width="3.10" stroke-opacity="1.00" stroke-linejoin="round"/>
<path d="M181.96,198.93 C181.81,198.95 181.54,198.90 181.40,198.82 C181.36,198.80 181.32,198.76 181.29,198.71 C181.29,198.70 181.29,198.73 181.29,198.74 C181.29,206.33 181.73,212.70 183.28,213.71 C183.38,213.77 183.57,213.82 183.85,213.87 C183.85,213.87 185.27,203.93 185.27,203.93 C185.48,204.10 187.50,210.08 188.75,211.99 C189.05,212.44 189.41,212.58 189.89,212.65 C189.89,212.65 191.97,205.43 191.97,205.43 C191.97,205.43 194.60,210.66 194.60,210.66 C195.70,210.36 196.18,207.79 196.35,205.08 C196.37,204.84 196.41,204.53 196.48,204.13 C196.48,204.13 200.61,212.25 200.61,212.25 C201.37,212.05 201.84,208.01 201.61,205.69 C201.08,200.86 196.34,194.10 195.45,193.08 C195.23,192.83 194.99,192.62 194.73,192.44" fill="none" stroke="rgb(33, 228, 63)" stroke-width="3.10" stroke-opacity="1.00" stroke-linejoin="round"/>
<path d="M94.93,275.30 C94.93,275.30 94.66,275.11 94.66,275.11 C94.56,275.14 94.53,276.00 94.58,278.00 C94.75,283.41 96.67,290.91 98.47,299.71 C99.31,303.77 100.46,307.91 100.77,308.53 C100.83,308.65 100.93,308.73 101.06,308.76" fill="none" stroke="rgb(33, 228, 63)" stroke-width="3.10" stroke-opacity="1.00" stroke-linejoin="round"/>
<path d="M112.04,277.03 C111.98,277.12 111.86,277.60 111.85,277.99 C111.84,278.41 113.74,294.52 113.98,297.37 C113.98,297.37 114.29,297.57 114.29,297.57" fill="none" stroke="rgb(33, 228, 63)" stroke-width="3.10" stroke-opacity="1.00" stroke-linejoin="round"/>
<path d="M126.08,277.61 C126.08,277.61 125.80,277.61 125.80,277.61 C125.71,277.68 125.70,278.38 125.70,278.69 C125.67,283.71 125.80,287.35 126.11,289.66 C126.36,291.45 128.15,300.41 128.20,301.76 C128.20,301.76 129.25,301.50 129.25,301.50" fill="none" stroke="rgb(33, 228, 63)" stroke-width="3.10" stroke-opacity="1.00" stroke-linejoin="round"/>
<path d="M144.16,278.19 C144.16,278.19 143.78,278.19 143.78,278.19 C143.78,278.19 143.44,305.05 143.44,305.05 C143.44,305.05 143.58,304.93 143.58,304.93" fill="none" stroke="rgb(33, 228, 63)" stroke-width="3.10" stroke-opacity="1.00" stroke-linejoin="round"/>
<path d="M97.81,301.07 C97.39,301.07 97.12,301.07 97.01,301.07 C96.89,301.08 96.76,301.08 96.62,301.10 C96.21,301.40 96.00,303.06 96.27,303.71 C96.59,304.43 98.26,305.43 99.59,305.58 C102.31,305.86 116.52,302.77 118.31,301.47 C118.98,300.92 118.81,299.01 117.78,298.33 C117.56,298.19 117.06,298.03 116.28,297.85" fill="none" stroke="rgb(33, 228, 63)" stroke-width="3.10" stroke-opacity="1.00" stroke-linejoin="round"/>
<path d="M95.89,302.61 C95.89,302.61 95.70,302.61 95.70,302.61 C95.70,302.61 97.96,335.28 97.96,335.28 C93.83,333.12 91.26,332.15 89.69,331.99 C87.90,331.84 83.33,332.13 80.73,332.71 C77.51,333.47 71.58,335.98 69.86,337.60 C68.02,339.37 65.96,342.79 65.63,344.03 C65.21,345.75 65.21,348.40 65.94,349.58 C66.47,350.40 70.33,353.44 72.68,354.31 C75.90,355.46 88.06,355.99 92.62,356.35 C95.97,356.60 113.65,358.95 113.77,358.93 C114.51,358.39 119.42,348.56 120.48,343.39 C121.23,339.62 120.95,327.05 120.26,323.35 C118.91,316.77 117.91,302.17 117.81,301.89" fill="none" stroke="rgb(33, 228, 63)" stroke-width="3.10" stroke-opacity="1.00" stroke-linejoin="round"/>
<path d="M128.01,301.07 C128.01,301.07 127.53,300.98 127.53,300.98 C127.53,300.98 126.58,299.83 126.58,299.83 C126.58,299.83 124.79,299.81 124.79,299.81 C124.25,300.52 123.71,304.01 124.29,305.48 C124.77,306.64 126.34,307.80 126.37,308.04 C126.42,308.43 125.69,321.33 125.77,327.59 C125.90,335.09 126.21,347.54 126.82,351.17 C127.09,352.68 128.07,355.59 128.60,355.89 C131.48,357.21 155.69,358.25 158.60,357.95 C161.46,357.60 167.52,356.90 170.17,356.19 C174.10,355.03 176.91,353.65 177.79,352.24 C178.54,350.95 179.20,348.31 179.11,344.83 C179.05,343.25 178.21,340.73 177.55,340.10 C176.00,338.69 172.18,337.00 170.06,336.70 C168.75,336.53 162.90,336.46 160.55,336.94 C160.03,337.05 157.09,338.19 157.04,338.15 C154.59,326.44 154.14,322.96 153.91,312.33 C153.78,308.23 153.78,303.24 153.78,303.23 C153.79,303.20 153.85,303.06 153.97,302.81" fill="none" stroke="rgb(33, 228, 63)" stroke-width="3.10" stroke-opacity="1.00" stroke-linejoin="round"/>
<path d="M127.05,302.03 C127.05,302.03 126.66,302.03 126.66,302.03 C128.53,303.28 141.15,304.99 145.95,304.92 C149.05,304.87 151.84,304.32 152.04,304.24 C152.28,303.82 151.64,302.19 150.71,301.27 C149.73,300.34 146.01,299.21 144.60,299.09 C144.01,299.03 143.74,298.92 143.38,298.60 C143.30,298.53 143.17,298.39 143.01,298.19" fill="none" stroke="rgb(33, 228, 63)" stroke-width="3.10" stroke-opacity="1.00" stroke-linejoin="round"/>
</g>
</svg>
