<?xml version="1.0" encoding="UTF-8" standalone="no"?>
<!DOCTYPE svg PUBLIC "-//W3C//DTD SVG 1.1//EN" "http://www.w3.org/Graphics/SVG/1.1/DTD/svg11.dtd">
<svg width="64.20" height="90.84" viewBox="0.00 0.00 535.00 757.00" xmlns="http://www.w3.org/2000/svg" xmlns:xlink="http://www.w3.org/1999/xlink">
<g stroke-linecap="round" transform="translate(44.00, 155.00)" id="35-나무">
<path d="M486.27,112.40 C486.27,112.40 485.66,112.40 485.66,112.40 C484.24,111.60 483.34,110.92 482.03,109.56 C479.87,107.34 475.84,103.25 473.97,101.39 C473.65,108.30 472.82,122.39 472.31,129.56 C471.51,140.04 470.70,145.27 468.73,155.53 C465.83,170.45 459.28,205.88 458.16,210.04 C457.06,214.09 452.94,224.77 452.46,226.66 C452.68,219.70 453.15,204.79 453.39,196.85 C453.56,187.73 453.12,180.17 452.17,170.31 C451.31,163.07 440.58,118.74 438.92,113.86 C437.79,110.64 436.92,107.80 436.49,105.87 C433.89,148.86 433.95,182.23 432.62,195.90 C430.99,211.24 427.87,241.43 427.85,251.91 C426.90,240.77 425.06,230.79 422.93,225.11 C420.60,219.05 412.41,206.94 409.45,202.28 C407.49,199.15 402.89,191.86 402.06,190.68 C400.00,187.79 396.71,184.67 393.83,182.31 C391.06,180.25 387.90,177.88 387.87,177.59 C387.84,181.70 390.52,193.78 393.06,202.26 C395.14,209.23 397.47,222.36 398.50,229.12 C399.63,237.38 400.79,257.59 400.79,260.63 C400.48,266.55 400.16,280.14 400.15,287.80 C400.20,299.54 400.00,302.55 398.68,313.95 C397.27,326.09 396.72,332.03 394.89,342.25 C393.31,350.60 389.63,369.17 388.11,373.09 C386.32,377.79 383.11,391.29 379.88,398.78 C375.05,409.87 358.27,454.07 344.88,473.34 C344.37,474.07 342.47,476.53 341.90,477.27 C341.90,477.27 343.59,475.25 343.59,475.25" fill="none" stroke="rgb(86, 73, 61)" stroke-width="3.10" stroke-opacity="1.00" stroke-linejoin="round"/>
<path d="M469.67,-3.21 C469.31,-3.80 466.49,-7.06 463.10,-9.51 C458.99,-12.44 455.12,-14.26 451.90,-14.79 C450.75,-14.97 442.02,-15.45 438.52,-15.46 C435.09,-15.42 427.68,-15.28 423.89,-14.16 C421.88,-13.55 412.92,-9.83 410.72,-8.46 C407.83,-6.64 402.92,-1.25 401.05,1.10 C398.54,4.28 395.51,9.12 393.86,12.56 C392.40,15.65 391.62,19.09 390.79,24.06 C389.13,34.77 389.09,46.78 389.12,54.37 C389.09,61.00 389.25,64.47 390.20,68.86 C391.65,75.20 393.44,81.07 393.41,81.65 C392.49,81.61 387.37,80.95 383.63,80.91 C379.68,80.88 372.77,82.00 370.22,83.16 C367.39,84.48 362.43,88.39 360.83,90.10 C358.98,92.09 345.97,108.76 345.19,109.88 C343.04,113.03 341.58,117.59 341.41,118.95 C340.80,124.03 341.48,140.82 342.45,146.92 C343.33,152.21 345.64,157.90 347.28,159.76 C344.77,159.18 339.59,158.02 335.84,157.88 C333.18,157.81 328.21,160.06 325.53,161.41 C323.47,162.46 315.04,167.31 314.69,167.75 C312.23,170.96 310.40,175.56 308.56,181.95 C306.48,189.51 305.32,202.75 305.46,207.92 C305.57,210.77 309.27,228.60 310.59,231.72 C310.77,232.16 314.55,242.47 315.96,244.90 C322.24,255.57 333.71,269.04 338.40,272.94 C340.76,274.88 347.91,279.16 350.82,281.25 C353.08,282.89 361.88,290.09 362.95,290.84 C366.29,293.16 371.95,295.59 374.18,295.65 C376.46,295.68 380.81,293.15 383.32,291.37 C384.39,290.60 387.84,288.02 389.10,287.06 C389.10,287.06 389.10,285.22 389.10,285.22" fill="none" stroke="rgb(86, 73, 61)" stroke-width="3.10" stroke-opacity="1.00" stroke-linejoin="round"/>
</g>
</svg>
