<?xml version="1.0" encoding="UTF-8" standalone="no"?>
<!DOCTYPE svg PUBLIC "-//W3C//DTD SVG 1.1//EN" "http://www.w3.org/Graphics/SVG/1.1/DTD/svg11.dtd">
<svg width="64.20" height="90.84" viewBox="0.00 0.00 535.00 757.00" xmlns="http://www.w3.org/2000/svg" xmlns:xlink="http://www.w3.org/1999/xlink">
<g stroke-linecap="round" transform="translate(156.00, 267.00)" id="35-우산">
<path d="M47.71,-0.83" fill="none" stroke="rgb(228, 229, 76)" stroke-width="3.10" stroke-opacity="1.00" stroke-linejoin="round"/>
<path d="M86.60,-168.90 C86.60,-171.02 86.59,-176.49 86.59,-179.85 C86.57,-184.23 86.96,-187.91 88.26,-191.75 C88.26,-191.75 99.70,-191.72 99.70,-191.72 C99.70,-191.72 99.49,-170.98 99.49,-170.98 C99.49,-170.98 99.10,-170.98 99.10,-170.98" fill="none" stroke="rgb(228, 229, 76)" stroke-width="3.10" stroke-opacity="1.00" stroke-linejoin="round"/>
<path d="M232.21,-25.36 C232.15,-26.70 232.84,-32.56 233.05,-35.29 C233.41,-39.26 230.01,-54.42 228.86,-59.84 C228.26,-62.27 223.06,-81.35 222.21,-84.15 C220.56,-89.58 215.32,-101.34 213.02,-106.81 C211.12,-110.92 204.22,-122.22 198.07,-129.99 C192.45,-136.96 183.52,-146.38 178.95,-149.49 C173.14,-153.41 157.92,-160.35 152.24,-162.37 C147.19,-164.16 134.65,-167.15 130.33,-167.96 C123.15,-169.29 110.62,-170.14 103.84,-170.07 C94.38,-169.85 82.34,-168.87 74.81,-167.60 C70.01,-166.78 54.09,-161.80 48.53,-159.88 C41.80,-157.41 25.85,-151.44 23.91,-150.41 C23.24,-150.05 5.86,-139.55 1.09,-136.33 C-0.42,-135.30 -11.85,-125.48 -20.33,-119.20 C-22.30,-117.73 -34.70,-107.47 -38.07,-103.83 C-40.97,-100.67 -46.93,-90.56 -48.66,-85.80 C-51.81,-77.06 -54.18,-58.25 -54.01,-53.98 C-53.80,-49.62 -52.58,-46.45 -50.36,-42.15 C-47.64,-37.13 -45.80,-34.74 -43.80,-34.51 C-41.55,-34.34 -30.98,-37.69 -22.15,-39.09 C-19.18,-39.55 -3.69,-41.43 0.40,-42.31 C8.51,-43.99 18.01,-44.18 21.80,-44.60 C24.83,-44.94 38.97,-47.19 48.27,-47.83 C50.24,-47.89 58.27,-46.94 59.73,-46.86 C62.73,-46.70 81.54,-47.43 87.49,-47.79 C96.59,-48.35 102.45,-48.09 111.75,-48.53 C122.65,-49.08 129.47,-49.07 135.26,-48.08 C144.26,-46.59 159.08,-44.72 160.47,-44.49 C169.90,-42.94 181.56,-42.11 184.04,-41.69 C186.10,-41.32 202.41,-37.37 205.23,-36.57 C215.04,-33.79 230.74,-28.82 231.30,-28.66 C232.31,-28.37 234.84,-27.71 235.13,-27.44 C235.13,-27.44 234.71,-27.44 234.71,-27.44" fill="none" stroke="rgb(228, 229, 76)" stroke-width="3.10" stroke-opacity="1.00" stroke-linejoin="round"/>
<path d="M98.25,-167.23 C97.53,-166.88 84.72,-157.11 82.84,-154.95 C76.62,-147.78 71.55,-142.73 67.48,-138.16 C63.37,-133.66 55.78,-125.16 51.82,-119.19 C46.69,-111.42 39.80,-98.51 38.20,-95.77 C34.39,-89.36 27.35,-73.01 26.12,-70.17 C25.25,-68.17 20.77,-58.56 20.26,-57.28 C18.62,-53.18 17.18,-47.94 16.89,-47.50 C16.89,-47.50 18.36,-48.24 18.36,-48.24" fill="none" stroke="rgb(228, 229, 76)" stroke-width="3.10" stroke-opacity="1.00" stroke-linejoin="round"/>
<path d="M96.17,-165.57 C96.16,-165.40 96.16,-165.26 96.17,-165.15 C96.19,-163.97 97.46,-150.72 97.76,-144.45 C99.55,-121.64 99.68,-109.38 98.73,-88.86 C98.36,-82.71 98.18,-66.00 97.92,-63.41 C97.44,-58.88 94.98,-49.32 94.28,-47.40 C94.28,-47.40 94.50,-49.49 94.50,-49.49" fill="none" stroke="rgb(228, 229, 76)" stroke-width="3.10" stroke-opacity="1.00" stroke-linejoin="round"/>
<path d="M99.49,-163.49 C99.49,-163.49 99.49,-163.90 99.49,-163.90 C102.99,-163.90 104.60,-163.49 107.08,-161.47 C111.70,-157.60 118.70,-148.18 122.51,-141.56 C129.69,-128.46 144.20,-101.87 151.13,-89.73 C156.38,-80.11 160.64,-70.98 161.40,-67.31 C162.15,-63.47 161.32,-53.09 160.02,-46.77 C160.02,-46.77 157.33,-45.33 157.33,-45.33" fill="none" stroke="rgb(228, 229, 76)" stroke-width="3.10" stroke-opacity="1.00" stroke-linejoin="round"/>
<path d="M83.27,-47.83 C83.36,-45.08 79.67,-26.83 78.95,-23.85 C77.55,-18.21 76.03,-7.03 73.17,1.72 C71.44,7.00 65.82,19.97 63.08,25.25 C61.66,27.94 58.65,32.35 55.79,34.70 C53.90,36.22 43.97,42.78 43.39,43.14 C41.16,44.49 37.12,46.05 35.13,46.51 C33.06,46.97 19.47,48.38 14.34,50.49 C13.84,50.70 12.74,51.19 11.05,51.97 C10.69,52.68 11.36,56.82 12.60,57.87 C13.93,58.92 16.49,60.04 18.22,60.23 C20.11,60.42 27.68,60.27 29.39,59.92 C32.80,59.17 41.16,55.33 45.90,51.86 C49.07,49.51 61.82,37.66 64.10,34.81 C66.00,32.41 77.14,15.89 78.38,13.08 C80.03,9.27 84.32,-3.79 85.88,-10.78 C86.67,-14.37 90.37,-45.27 90.74,-48.34 C90.74,-48.34 89.51,-49.49 89.51,-49.49" fill="none" stroke="rgb(228, 229, 76)" stroke-width="3.10" stroke-opacity="1.00" stroke-linejoin="round"/>
</g>
</svg>
