<?xml version="1.0" encoding="UTF-8" standalone="no"?>
<!DOCTYPE svg PUBLIC "-//W3C//DTD SVG 1.1//EN" "http://www.w3.org/Graphics/SVG/1.1/DTD/svg11.dtd">
<svg width="64.20" height="90.84" viewBox="0.00 0.00 535.00 757.00" xmlns="http://www.w3.org/2000/svg" xmlns:xlink="http://www.w3.org/1999/xlink">
<g stroke-linecap="round" transform="translate(44.00, 155.00)" id="36-자동차">
<path d="M407.87,135.35 C403.22,134.74 388.56,135.96 385.48,136.11 C381.88,136.27 366.10,136.34 357.26,137.39 C355.03,137.66 348.85,138.23 345.98,138.65 C341.54,139.34 341.03,139.53 339.04,141.75 C334.89,146.45 320.08,167.33 318.51,169.14 C312.61,169.29 299.53,172.06 297.16,172.10 C295.87,172.11 292.48,171.95 291.42,171.97 C291.42,171.97 291.70,171.75 291.70,171.75" fill="none" stroke="rgb(255, 153, 190)" stroke-width="2.41" stroke-opacity="1.00" stroke-linejoin="round"/>
<path d="M286.47,170.01 C286.47,169.98 286.47,169.95 286.47,169.91 C286.47,169.87 286.47,169.83 286.47,169.79 C286.29,174.46 283.59,187.09 281.93,194.77 C281.19,198.24 281.10,201.47 281.43,204.05 C282.28,210.56 284.52,214.08 284.91,214.41 C289.99,214.29 303.98,211.27 307.74,210.84 C319.76,209.21 324.09,209.04 333.91,209.42 C334.85,209.45 342.05,209.38 342.37,209.38 C345.03,209.42 360.17,212.09 365.65,212.07 C368.92,212.01 375.78,211.88 378.85,212.36 C391.23,214.66 398.09,216.15 403.40,216.20 C409.56,216.17 418.82,216.87 428.73,216.87 C435.33,216.88 444.80,216.92 452.34,218.10 C453.87,218.35 460.16,218.43 460.57,218.40 C461.51,218.29 463.29,213.78 464.16,210.14 C464.59,208.33 467.02,202.04 467.46,200.11 C467.77,198.68 468.36,193.59 467.86,190.21 C467.38,187.13 460.41,173.62 459.14,172.39 C457.71,172.25 445.88,172.50 435.72,171.22 C432.71,170.83 428.66,170.51 426.94,170.37 C426.80,170.50 421.66,155.46 421.08,154.04 C417.16,144.50 408.42,131.92 408.38,131.87 C408.38,131.87 407.65,132.08 407.65,132.08" fill="none" stroke="rgb(255, 153, 190)" stroke-width="2.41" stroke-opacity="1.00" stroke-linejoin="round"/>
<path d="M338.34,171.32 C338.36,169.51 338.33,168.62 338.15,167.15 C337.91,165.04 337.83,159.41 337.70,157.72 C338.35,156.25 363.99,152.73 364.71,152.59 C365.56,156.95 365.28,160.62 364.48,165.95 C364.09,168.28 363.15,169.63 360.11,172.52 C358.98,173.62 358.22,174.70 357.97,174.89 C357.02,175.52 341.07,176.12 340.69,176.12 C340.69,176.12 340.52,176.55 340.52,176.55" fill="none" stroke="rgb(255, 153, 190)" stroke-width="2.41" stroke-opacity="1.00" stroke-linejoin="round"/>
<path d="M385.42,171.32 C385.26,169.40 384.29,163.40 384.35,161.63 C384.49,157.30 384.64,156.82 384.88,156.31 C385.02,156.24 404.80,154.58 406.42,154.63 C408.30,154.68 414.86,154.97 415.37,155.00 C415.37,155.00 414.65,169.40 414.65,169.40 C410.15,171.54 388.22,173.89 387.52,173.99 C386.78,174.10 384.67,174.78 383.90,175.02" fill="none" stroke="rgb(255, 153, 190)" stroke-width="2.41" stroke-opacity="1.00" stroke-linejoin="round"/>
<path d="M389.35,190.06 C389.35,190.06 389.13,190.06 389.13,190.06 C389.13,190.06 392.97,189.84 392.97,189.84 C392.97,189.84 393.08,190.49 393.08,190.49" fill="none" stroke="rgb(255, 153, 190)" stroke-width="2.41" stroke-opacity="1.00" stroke-linejoin="round"/>
<path d="M328.53,188.76 C328.53,188.76 335.00,188.55 335.00,188.55 C335.00,188.55 334.93,188.68 334.93,188.68" fill="none" stroke="rgb(255, 153, 190)" stroke-width="2.41" stroke-opacity="1.00" stroke-linejoin="round"/>
<path d="M301.07,193.99 C301.07,193.99 300.85,184.83 300.85,184.83 C300.85,184.83 308.99,184.45 308.99,184.45 C308.99,184.45 309.77,193.75 309.77,193.75 C308.49,193.62 307.57,193.54 306.99,193.50 C306.42,193.46 305.39,193.40 303.90,193.33" fill="none" stroke="rgb(255, 153, 190)" stroke-width="2.41" stroke-opacity="1.00" stroke-linejoin="round"/>
<path d="M374.52,144.29 C374.52,144.29 374.52,144.07 374.52,144.07 C374.52,144.19 374.79,185.25 374.82,185.63 C374.83,185.71 374.88,185.80 374.96,185.92" fill="none" stroke="rgb(255, 153, 190)" stroke-width="2.41" stroke-opacity="1.00" stroke-linejoin="round"/>
<path d="M320.90,211.64 C320.88,212.12 321.90,213.99 323.82,216.09 C325.45,217.85 328.61,221.92 330.31,222.83 C332.26,223.83 335.53,224.45 340.35,224.53 C344.94,224.58 348.10,224.07 349.14,223.50 C351.24,222.31 354.27,218.90 354.30,218.88 C354.30,218.88 354.03,218.40 354.03,218.40" fill="none" stroke="rgb(255, 153, 190)" stroke-width="2.41" stroke-opacity="1.00" stroke-linejoin="round"/>
<path d="M331.15,215.13 C331.66,215.91 336.40,217.99 338.82,217.96 C340.85,217.87 347.61,214.87 348.61,214.61 C348.82,214.55 349.10,214.51 349.46,214.48" fill="none" stroke="rgb(255, 153, 190)" stroke-width="2.41" stroke-opacity="1.00" stroke-linejoin="round"/>
<path d="M412.23,214.26 C412.03,214.42 411.64,214.75 411.52,214.89 C410.65,215.96 409.77,218.95 410.58,221.98 C411.08,223.75 414.53,229.52 414.71,229.79 C415.78,231.34 418.49,232.94 420.19,233.30 C423.90,234.07 428.11,233.84 430.10,233.05 C434.45,231.10 437.40,225.12 438.47,221.82 C438.54,221.57 438.49,221.37 438.03,219.91" fill="none" stroke="rgb(255, 153, 190)" stroke-width="2.41" stroke-opacity="1.00" stroke-linejoin="round"/>
<path d="M420.51,219.27 C420.94,219.28 421.23,219.27 421.48,219.52 C423.57,221.68 425.07,222.22 426.40,221.89 C427.10,221.71 428.06,221.11 429.67,219.92 C429.67,219.92 429.45,220.14 429.45,220.14" fill="none" stroke="rgb(255, 153, 190)" stroke-width="2.41" stroke-opacity="1.00" stroke-linejoin="round"/>
</g>
</svg>
