<?xml version="1.0" encoding="UTF-8" standalone="no"?>
<!DOCTYPE svg PUBLIC "-//W3C//DTD SVG 1.1//EN" "http://www.w3.org/Graphics/SVG/1.1/DTD/svg11.dtd">
<svg width="64.20" height="90.84" viewBox="0.00 0.00 535.00 757.00" xmlns="http://www.w3.org/2000/svg" xmlns:xlink="http://www.w3.org/1999/xlink">
<g stroke-linecap="round" transform="translate(154.00, 267.00)" id="36-사람">
<path d="M75.08,97.24 C75.08,97.27 75.08,97.20 75.08,97.18 C75.08,94.86 75.05,90.05 74.62,88.90 C74.57,88.78 75.51,87.19 75.67,86.67 C75.84,85.99 75.55,84.39 74.81,83.34 C73.84,82.01 71.93,80.60 70.37,79.99 C69.49,79.65 66.55,79.25 66.36,79.21 C66.32,79.00 66.30,75.46 66.01,74.66 C65.59,73.56 63.65,71.89 62.22,71.68 C60.68,71.49 56.63,72.87 55.02,73.98 C53.84,74.82 53.03,76.22 53.10,76.84 C53.13,76.79 53.02,75.21 52.89,74.03 C52.73,72.68 51.72,70.97 50.41,70.50 C48.58,69.91 44.46,70.11 42.54,70.94 C40.77,71.76 39.59,75.63 39.78,76.52 C39.74,76.29 38.94,74.01 38.38,73.40 C37.59,72.56 33.71,72.86 31.87,74.16 C29.61,75.85 28.47,79.59 28.19,80.73 C28.45,78.27 28.44,76.43 28.19,76.05 C27.70,75.40 23.77,75.18 21.10,77.41 C19.94,78.41 18.38,81.24 18.12,82.26 C17.48,84.76 17.61,87.04 18.06,88.65 C18.38,89.71 18.82,90.39 19.60,90.54 C20.60,90.69 22.16,89.57 22.62,87.98 C23.02,86.52 23.14,83.81 22.97,83.12 C22.65,83.22 22.56,85.57 23.16,86.83 C23.62,87.76 25.62,88.56 26.31,88.15 C28.18,86.94 28.28,81.92 27.54,81.65 C26.76,81.84 26.54,85.93 27.78,87.41 C28.35,88.05 30.35,89.09 31.63,89.20 C32.84,89.30 34.01,88.76 35.57,86.81 C37.30,84.63 37.95,83.26 37.75,82.49 C37.55,81.77 36.30,80.94 35.84,80.96 C34.79,81.05 33.82,84.90 34.24,86.93 C34.51,88.10 35.58,89.94 36.81,90.75 C37.96,91.47 40.88,90.62 41.90,89.55 C43.04,88.32 43.89,82.49 42.51,81.72 C41.55,81.83 40.75,86.05 41.70,87.84 C42.07,88.50 43.16,89.44 44.00,89.91 C44.98,90.41 48.15,90.80 49.94,90.38 C51.10,90.10 53.72,89.03 54.14,88.49 C55.09,87.13 53.26,82.78 52.33,83.30 C51.44,83.88 51.08,87.79 52.03,89.05 C52.86,90.10 55.53,91.41 57.19,91.81 C59.06,92.21 61.83,91.70 63.40,90.45 C64.17,89.81 65.53,87.51 65.73,85.96 C65.89,84.57 65.19,83.06 64.77,82.96 C63.80,82.81 61.87,86.31 61.78,88.61 C61.76,89.69 62.37,92.21 63.17,93.11 C63.89,93.91 65.59,94.51 66.61,94.44 C67.66,94.36 69.73,93.02 70.67,91.95 C69.21,92.96 69.44,97.75 69.82,100.81 C69.84,100.92 69.85,101.00 69.85,101.04" fill="none" stroke="rgb(33, 228, 63)" stroke-width="2.41" stroke-opacity="1.00" stroke-linejoin="round"/>
<path d="M19.12,90.58 C19.12,90.58 18.86,90.58 18.86,90.58 C18.71,90.65 18.48,91.33 18.21,92.62 C16.95,99.07 16.51,104.93 17.03,111.76 C17.03,112.89 17.76,115.05 19.06,116.98 C21.49,120.48 22.63,121.84 25.36,123.82 C26.09,124.34 30.28,127.33 31.99,128.14 C33.53,128.83 38.59,129.89 40.99,129.99 C43.25,130.07 49.84,128.72 51.10,128.30 C54.54,127.12 62.47,121.61 65.17,118.25 C66.18,116.97 67.50,114.08 68.07,111.90 C68.77,109.23 69.35,104.99 69.45,104.48 C69.45,104.48 69.33,104.68 69.33,104.68" fill="none" stroke="rgb(33, 228, 63)" stroke-width="2.41" stroke-opacity="1.00" stroke-linejoin="round"/>
<path d="M70.90,102.74 C70.84,102.73 70.42,102.73 70.20,102.58 C68.87,101.70 65.23,98.45 65.19,98.44 C65.19,98.44 66.05,107.17 66.05,107.17 C69.35,103.49 73.49,100.11 77.05,98.84 C78.13,98.47 78.78,98.40 78.89,98.44 C78.89,98.44 78.26,108.32 78.26,108.32 C78.26,108.32 71.99,103.55 71.99,103.55 C71.99,103.55 72.46,103.39 72.46,103.39" fill="none" stroke="rgb(33, 228, 63)" stroke-width="2.41" stroke-opacity="1.00" stroke-linejoin="round"/>
<path d="M76.13,97.24 C76.13,97.24 75.99,97.24 75.99,97.24 C76.02,96.92 76.08,96.59 76.27,96.24 C77.08,94.76 79.35,91.28 79.93,90.89 C80.42,90.58 81.37,90.89 81.67,91.37 C82.67,93.10 80.51,107.13 80.48,107.95 C80.30,112.88 78.89,126.95 77.90,128.62 C76.76,130.46 73.45,131.72 71.97,131.05 C71.18,130.67 69.67,128.99 69.33,128.11 C68.53,125.98 67.68,120.35 67.61,118.15 C67.60,117.81 67.61,117.35 67.62,116.77" fill="none" stroke="rgb(33, 228, 63)" stroke-width="2.41" stroke-opacity="1.00" stroke-linejoin="round"/>
<path d="M26.44,100.25 C26.52,100.03 26.63,99.86 26.96,99.66 C28.61,98.70 32.63,97.95 33.56,98.11 C34.53,98.32 35.83,99.26 36.59,100.01 C36.70,100.12 36.79,100.22 36.86,100.31 C36.88,100.33 36.89,100.36 36.90,100.38" fill="none" stroke="rgb(33, 228, 63)" stroke-width="2.41" stroke-opacity="1.00" stroke-linejoin="round"/>
<path d="M26.31,96.46 C26.35,96.70 26.39,96.92 26.44,97.14 C26.92,98.96 27.17,99.36 27.23,99.37 C27.23,99.37 27.23,99.55 27.23,99.55" fill="none" stroke="rgb(33, 228, 63)" stroke-width="2.41" stroke-opacity="1.00" stroke-linejoin="round"/>
<path d="M30.11,95.28 C30.00,95.68 29.92,96.56 29.97,97.19 C29.99,97.35 30.03,97.54 30.09,97.74 C30.09,97.74 30.52,97.72 30.52,97.72" fill="none" stroke="rgb(33, 228, 63)" stroke-width="2.41" stroke-opacity="1.00" stroke-linejoin="round"/>
<path d="M35.47,96.07 C35.24,96.34 35.05,96.95 34.96,97.72 C34.95,97.88 34.94,98.09 34.94,98.37 C34.94,98.43 34.94,98.48 34.94,98.51" fill="none" stroke="rgb(33, 228, 63)" stroke-width="2.41" stroke-opacity="1.00" stroke-linejoin="round"/>
<path d="M28.41,100.51 C28.41,100.51 27.71,100.58 27.71,100.58 C27.32,102.47 29.76,106.02 31.08,106.12 C31.88,106.16 33.09,105.78 33.78,105.08 C34.56,104.25 35.63,101.32 35.48,101.02 C35.41,100.91 35.30,100.71 35.13,100.39" fill="none" stroke="rgb(33, 228, 63)" stroke-width="2.41" stroke-opacity="1.00" stroke-linejoin="round"/>
<path d="M31.54,102.08 C31.54,102.08 31.15,102.08 31.15,102.08 C31.15,102.08 31.41,104.57 31.41,104.57 C31.41,104.57 31.41,102.23 31.41,102.23 C31.41,102.23 31.58,104.36 31.58,104.36 C31.68,104.14 31.67,102.71 31.68,102.63 C31.70,102.53 31.76,102.43 31.86,102.33" fill="none" stroke="rgb(33, 228, 63)" stroke-width="2.41" stroke-opacity="1.00" stroke-linejoin="round"/>
<path d="M48.93,102.34 C49.72,101.55 52.27,100.58 54.40,100.54 C56.98,100.54 58.10,102.16 58.08,102.55 C58.08,102.65 58.03,102.84 57.95,103.13" fill="none" stroke="rgb(33, 228, 63)" stroke-width="2.41" stroke-opacity="1.00" stroke-linejoin="round"/>
<path d="M51.55,102.08 C51.55,102.08 51.22,102.08 51.22,102.08 C51.22,102.08 51.09,102.19 51.09,102.19 C50.75,102.77 51.25,106.08 52.05,106.71 C53.49,107.66 56.95,107.21 57.44,106.12 C58.28,104.12 57.47,102.41 57.39,102.31 C57.39,102.31 56.68,102.09 56.68,102.09" fill="none" stroke="rgb(33, 228, 63)" stroke-width="2.41" stroke-opacity="1.00" stroke-linejoin="round"/>
<path d="M55.08,104.04 C55.08,104.04 54.62,104.04 54.62,104.04 C54.53,104.09 54.45,104.38 54.44,104.87 C54.41,105.91 54.62,106.38 54.72,106.50 C54.72,106.50 55.21,103.74 55.21,103.74 C55.13,103.74 54.83,104.75 54.75,105.37 C54.73,105.56 54.75,105.77 54.80,105.98" fill="none" stroke="rgb(33, 228, 63)" stroke-width="2.41" stroke-opacity="1.00" stroke-linejoin="round"/>
<path d="M49.45,98.29 C49.45,98.29 49.45,98.23 49.45,98.23 C49.51,99.36 49.66,100.28 49.94,101.01 C50.02,101.23 50.24,101.36 50.37,101.43" fill="none" stroke="rgb(33, 228, 63)" stroke-width="2.41" stroke-opacity="1.00" stroke-linejoin="round"/>
<path d="M53.77,97.38 C53.88,98.65 53.88,99.42 53.90,99.65 C53.92,99.88 54.06,100.69 54.08,100.76 C54.09,100.78 54.12,100.82 54.16,100.91" fill="none" stroke="rgb(33, 228, 63)" stroke-width="2.41" stroke-opacity="1.00" stroke-linejoin="round"/>
<path d="M56.38,98.16 C56.31,98.28 56.27,98.42 56.25,98.59 C56.20,99.16 56.27,100.31 56.35,100.73 C56.35,100.73 56.51,100.77 56.51,100.77" fill="none" stroke="rgb(33, 228, 63)" stroke-width="2.41" stroke-opacity="1.00" stroke-linejoin="round"/>
<path d="M59.00,98.68 C58.86,99.27 58.69,100.27 58.63,101.07 C58.61,101.26 58.61,101.49 58.61,101.76 C58.61,101.85 58.61,101.93 58.61,102.02" fill="none" stroke="rgb(33, 228, 63)" stroke-width="2.41" stroke-opacity="1.00" stroke-linejoin="round"/>
<path d="M40.56,107.18 C40.56,107.18 40.83,114.09 40.83,114.09 C41.41,114.58 44.87,114.76 45.03,114.76 C45.06,114.76 45.10,114.76 45.14,114.76" fill="none" stroke="rgb(33, 228, 63)" stroke-width="2.41" stroke-opacity="1.00" stroke-linejoin="round"/>
<path d="M32.72,121.04 C32.72,121.04 32.65,121.04 32.65,121.04 C32.65,121.04 32.59,120.97 32.59,120.97 C32.59,120.97 32.59,120.91 32.59,120.91 C32.60,120.81 35.82,123.04 36.96,123.45 C40.49,124.67 47.77,123.23 48.69,122.49 C48.72,122.47 48.80,122.38 48.93,122.22" fill="none" stroke="rgb(33, 228, 63)" stroke-width="2.41" stroke-opacity="1.00" stroke-linejoin="round"/>
<path d="M34.53,132.69 C34.53,132.69 34.53,143.60 34.53,143.60 C34.20,143.84 27.00,146.32 25.49,146.95 C22.81,148.09 12.79,155.28 10.67,157.71 C10.43,157.99 1.78,168.74 -2.29,173.45 C-5.22,176.86 -10.10,184.68 -12.70,188.62 C-13.25,189.59 -13.96,192.11 -14.03,192.25 C-13.53,192.59 -8.19,193.55 -6.57,194.35 C-4.02,195.65 -0.31,199.80 1.19,201.55 C1.72,200.82 4.59,194.41 6.36,191.48 C8.62,187.78 19.18,176.33 19.89,175.55 C21.45,173.83 24.64,171.32 27.03,169.84 C27.23,169.70 27.42,169.55 27.59,169.37" fill="none" stroke="rgb(33, 228, 63)" stroke-width="2.41" stroke-opacity="1.00" stroke-linejoin="round"/>
<path d="M22.04,174.52 C22.28,180.66 22.79,193.06 22.55,196.68 C22.52,197.06 21.44,207.25 21.45,207.23 C28.25,207.22 39.94,205.16 45.91,204.70 C46.60,204.65 60.41,203.42 68.93,203.61 C71.95,203.80 75.16,204.01 75.91,204.00 C76.46,203.07 76.70,188.37 76.68,187.91 C76.54,186.15 73.70,181.26 73.43,180.23 C72.95,178.22 72.90,175.03 72.99,170.36 C72.99,170.36 71.80,170.36 71.80,170.36" fill="none" stroke="rgb(33, 228, 63)" stroke-width="2.41" stroke-opacity="1.00" stroke-linejoin="round"/>
<path d="M71.60,171.35 C71.60,171.35 71.50,171.45 71.50,171.45 C71.50,171.45 71.41,171.45 71.41,171.45 C71.41,171.45 71.41,171.35 71.41,171.35 C72.40,171.36 84.72,169.43 89.85,168.68 C98.11,167.31 109.30,166.61 110.64,166.26 C111.87,165.93 113.37,165.10 114.16,164.22 C115.63,162.45 116.43,153.15 117.45,145.23 C118.91,133.87 118.68,115.67 117.70,109.87 C117.18,106.79 116.69,105.79 115.84,105.70 C115.19,105.65 102.15,105.99 101.50,106.03 C100.36,107.00 98.87,125.01 98.61,128.52 C98.16,133.89 98.57,140.88 98.36,150.33 C96.20,149.93 91.00,150.13 88.63,150.61 C85.16,151.34 82.89,151.61 81.40,150.97 C80.45,150.53 75.56,147.25 74.23,146.54 C72.70,145.75 66.50,143.88 62.88,143.54 C61.97,143.46 55.37,143.19 52.49,142.41 C51.43,142.08 50.84,141.54 50.72,140.53 C50.71,140.46 50.13,133.16 49.87,131.99 C49.87,131.99 49.60,131.90 49.60,131.90" fill="none" stroke="rgb(33, 228, 63)" stroke-width="2.41" stroke-opacity="1.00" stroke-linejoin="round"/>
<path d="M32.35,143.59 C32.35,143.59 31.76,143.22 31.76,143.22 C31.76,143.22 46.02,152.71 46.02,152.71 C46.02,152.71 57.68,144.42 57.68,144.42 C57.68,144.42 57.92,144.59 57.92,144.59" fill="none" stroke="rgb(33, 228, 63)" stroke-width="2.41" stroke-opacity="1.00" stroke-linejoin="round"/>
<path d="M44.84,162.82 C44.84,162.82 44.11,165.58 44.11,165.58 C45.56,166.30 46.18,164.55 46.31,163.77 C46.31,163.77 44.95,162.90 44.95,162.90" fill="none" stroke="rgb(33, 228, 63)" stroke-width="2.41" stroke-opacity="1.00" stroke-linejoin="round"/>
<path d="M46.03,173.93 C46.03,173.93 45.19,174.07 45.19,174.07 C45.19,174.07 44.70,176.25 44.70,176.25 C46.71,177.24 47.08,175.15 47.04,174.82 C47.04,174.82 45.82,174.28 45.82,174.28" fill="none" stroke="rgb(33, 228, 63)" stroke-width="2.41" stroke-opacity="1.00" stroke-linejoin="round"/>
<path d="M45.24,186.02 C45.24,186.02 44.27,186.13 44.27,186.13 C44.27,186.13 44.96,189.22 44.96,189.22 C46.17,188.79 46.75,188.34 46.92,187.58 C47.16,186.49 46.82,185.54 46.60,185.19 C46.53,185.10 46.31,184.78 45.93,184.24" fill="none" stroke="rgb(33, 228, 63)" stroke-width="2.41" stroke-opacity="1.00" stroke-linejoin="round"/>
<path d="M-14.83,193.35 C-14.83,193.35 -14.83,193.16 -14.83,193.16 C-16.78,196.39 -22.81,202.64 -23.22,204.60 C-23.29,205.02 -22.62,205.83 -21.33,205.58 C-19.85,205.27 -18.04,204.11 -17.11,203.40 C-17.11,203.40 -19.57,209.86 -19.57,209.86 C-17.91,210.87 -14.89,206.21 -14.25,205.02 C-14.24,205.36 -15.08,211.27 -14.65,211.96 C-14.60,212.02 -14.50,212.13 -14.33,212.29 C-13.00,212.38 -11.15,208.10 -10.90,206.83 C-11.55,211.43 -10.63,212.22 -10.32,212.41 C-10.32,212.41 -8.09,207.24 -8.09,207.24 C-7.94,207.71 -6.64,211.12 -5.97,211.64 C-5.23,212.14 -3.55,211.23 -2.97,210.05 C-2.40,208.78 -3.63,205.22 -3.54,204.82 C-3.34,203.95 -1.62,200.88 -1.45,200.65 C-1.45,200.65 -1.22,200.78 -1.22,200.78" fill="none" stroke="rgb(33, 228, 63)" stroke-width="2.41" stroke-opacity="1.00" stroke-linejoin="round"/>
<path d="M102.53,105.33 C102.46,104.98 100.83,102.88 100.40,101.46 C99.90,99.77 100.49,95.13 101.03,94.52 C101.64,93.90 103.61,93.10 106.12,92.72 C110.52,92.10 112.92,92.17 114.24,93.05 C115.24,93.79 116.65,95.51 117.36,96.95 C118.31,98.96 118.67,102.01 118.05,103.47 C116.91,105.89 114.03,108.28 113.89,108.30 C113.88,108.30 113.33,108.37 112.24,108.50" fill="none" stroke="rgb(33, 228, 63)" stroke-width="2.41" stroke-opacity="1.00" stroke-linejoin="round"/>
<path d="M21.09,207.06 C21.09,207.06 21.09,206.68 21.09,206.68 C20.84,206.81 20.28,207.42 19.91,208.17 C19.05,210.00 17.70,220.40 17.02,232.14 C16.82,236.69 17.18,238.99 17.50,240.14 C22.07,239.52 38.51,237.69 41.09,237.41 C45.82,236.91 80.25,236.42 82.88,235.60 C83.03,235.55 83.29,235.43 83.67,235.23" fill="none" stroke="rgb(33, 228, 63)" stroke-width="2.41" stroke-opacity="1.00" stroke-linejoin="round"/>
<path d="M75.16,204.79 C75.26,205.20 76.27,206.47 76.78,207.76 C80.44,217.15 81.39,236.21 81.18,237.54 C81.18,237.54 81.40,237.50 81.40,237.50" fill="none" stroke="rgb(33, 228, 63)" stroke-width="2.41" stroke-opacity="1.00" stroke-linejoin="round"/>
<path d="M24.87,239.96 C24.87,239.92 24.85,241.73 24.83,242.28 C24.79,243.23 22.23,256.35 21.67,262.06 C21.00,269.14 21.18,276.98 21.59,279.16 C21.59,279.16 22.04,278.52 22.04,278.52" fill="none" stroke="rgb(33, 228, 63)" stroke-width="2.41" stroke-opacity="1.00" stroke-linejoin="round"/>
<path d="M43.02,239.01 C43.02,239.31 43.02,240.24 43.02,240.96 C43.01,242.43 39.01,274.98 39.05,276.44 C39.05,276.44 39.43,275.88 39.43,275.88" fill="none" stroke="rgb(33, 228, 63)" stroke-width="2.41" stroke-opacity="1.00" stroke-linejoin="round"/>
<path d="M58.90,237.69 C58.85,238.36 58.73,240.02 58.60,241.32 C56.86,255.55 56.10,274.20 56.11,274.40 C56.11,274.40 57.01,273.04 57.01,273.04" fill="none" stroke="rgb(33, 228, 63)" stroke-width="2.41" stroke-opacity="1.00" stroke-linejoin="round"/>
<path d="M75.73,238.82 C75.73,238.82 75.54,238.82 75.54,238.82 C75.61,239.54 73.34,249.61 72.31,256.96 C70.90,267.12 70.54,272.26 70.62,273.44 C70.64,273.66 70.70,273.90 70.81,274.17" fill="none" stroke="rgb(33, 228, 63)" stroke-width="2.41" stroke-opacity="1.00" stroke-linejoin="round"/>
<path d="M7.67,296.29 C7.67,296.33 7.67,296.23 7.67,296.20 C7.69,294.54 9.15,291.43 9.78,290.73 C11.64,288.82 16.82,289.08 17.84,289.65 C17.84,289.65 17.17,278.38 17.17,278.38 C19.59,275.26 39.77,275.88 39.70,276.36 C39.70,276.36 40.18,294.38 40.18,294.38 C39.60,294.94 29.57,298.15 24.44,298.76 C18.96,299.38 10.50,297.48 10.61,297.48 C10.61,297.48 10.69,297.24 10.69,297.24" fill="none" stroke="rgb(33, 228, 63)" stroke-width="2.41" stroke-opacity="1.00" stroke-linejoin="round"/>
<path d="M53.80,294.97 C53.80,294.97 53.89,294.97 53.89,294.97 C54.09,295.29 54.70,292.81 54.17,289.57 C53.13,283.35 53.30,275.69 53.49,276.05 C53.49,276.05 72.37,274.33 72.37,274.33 C72.37,274.33 72.38,285.83 72.38,285.83 C73.33,286.08 76.75,285.97 77.79,287.04 C78.85,288.20 79.07,291.78 78.25,292.75 C77.51,293.56 74.18,294.71 70.20,295.08 C65.30,295.51 56.82,293.66 56.77,293.66 C56.65,293.66 56.35,293.72 55.88,293.84" fill="none" stroke="rgb(33, 228, 63)" stroke-width="2.41" stroke-opacity="1.00" stroke-linejoin="round"/>
</g>
</svg>
