<?xml version="1.0" encoding="UTF-8" standalone="no"?>
<!DOCTYPE svg PUBLIC "-//W3C//DTD SVG 1.1//EN" "http://www.w3.org/Graphics/SVG/1.1/DTD/svg11.dtd">
<svg width="64.20" height="90.84" viewBox="0.00 0.00 535.00 757.00" xmlns="http://www.w3.org/2000/svg" xmlns:xlink="http://www.w3.org/1999/xlink">
<g stroke-linecap="round" transform="translate(154.00, 267.00)" id="38-사람">
<path d="M112.46,109.97 C112.44,108.49 111.59,107.50 110.88,107.25 C110.04,106.99 107.68,107.33 105.85,108.51 C103.96,109.76 100.93,112.67 99.92,114.55 C98.88,116.54 97.38,121.30 97.25,123.03 C97.15,124.80 98.37,127.48 99.75,128.45 C101.20,129.43 105.38,130.48 107.77,130.36 C109.84,130.22 114.36,128.81 116.98,127.14 C118.18,126.36 119.27,125.20 120.26,123.88 C120.26,123.88 119.97,122.82 119.97,122.82" fill="none" stroke="rgb(33, 228, 63)" stroke-width="3.46" stroke-opacity="1.00" stroke-linejoin="round"/>
<path d="M114.89,108.76 C114.89,108.76 114.28,108.88 114.28,108.88 C114.28,108.88 113.67,109.86 113.67,109.86 C113.76,109.93 113.81,109.96 113.83,109.97 C113.83,109.98 113.88,110.00 113.95,110.04 C114.25,110.23 118.09,113.09 118.56,115.18 C118.95,117.10 119.21,121.96 119.25,122.20 C119.28,122.39 119.40,122.95 119.61,123.88" fill="none" stroke="rgb(33, 228, 63)" stroke-width="3.46" stroke-opacity="1.00" stroke-linejoin="round"/>
<path d="M114.64,137.12 C114.64,137.12 114.20,137.24 114.20,137.24 C113.85,137.61 112.25,166.72 112.18,187.25 C112.05,194.06 111.66,207.22 110.52,212.35 C108.21,221.41 96.11,251.58 93.08,261.93 C92.44,264.06 91.90,265.62 91.19,267.52 C91.63,266.49 92.55,264.31 93.04,263.16 C93.21,262.75 93.39,262.33 93.56,261.92" fill="none" stroke="rgb(33, 228, 63)" stroke-width="3.46" stroke-opacity="1.00" stroke-linejoin="round"/>
<path d="M112.70,214.18 C112.70,214.18 112.34,214.49 112.34,214.49 C111.90,217.28 114.15,227.30 117.06,234.94 C122.03,247.30 128.43,263.27 131.09,269.19 C131.09,269.19 130.68,266.09 130.68,266.09" fill="none" stroke="rgb(33, 228, 63)" stroke-width="3.46" stroke-opacity="1.00" stroke-linejoin="round"/>
<path d="M107.86,143.90 C108.16,144.38 102.33,157.96 99.63,162.69 C93.20,173.68 90.84,178.49 87.14,187.93 C86.13,190.55 84.18,196.34 83.65,197.91 C84.10,197.42 84.55,196.92 85.01,196.43 C85.35,196.05 85.70,195.66 86.05,195.27" fill="none" stroke="rgb(33, 228, 63)" stroke-width="3.46" stroke-opacity="1.00" stroke-linejoin="round"/>
<path d="M109.55,148.02 C109.55,148.02 109.31,148.02 109.31,148.02 C109.36,148.21 113.28,152.30 115.69,156.00 C119.64,162.25 125.55,171.06 127.80,175.13 C129.73,178.65 133.70,189.20 135.37,190.85 C135.37,190.85 135.48,188.94 135.48,188.94" fill="none" stroke="rgb(33, 228, 63)" stroke-width="3.46" stroke-opacity="1.00" stroke-linejoin="round"/>
</g>
</svg>
