<?xml version="1.0" encoding="UTF-8" standalone="no"?>
<!DOCTYPE svg PUBLIC "-//W3C//DTD SVG 1.1//EN" "http://www.w3.org/Graphics/SVG/1.1/DTD/svg11.dtd">
<svg width="64.20" height="90.84" viewBox="0.00 0.00 535.00 757.00" xmlns="http://www.w3.org/2000/svg" xmlns:xlink="http://www.w3.org/1999/xlink">
<g stroke-linecap="round" transform="translate(44.00, 155.00)" id="39-물웅덩이">
<path d="M135.25,313.55 C135.21,313.39 123.03,314.05 113.97,318.67 C105.27,323.21 87.16,336.67 83.45,340.94 C81.31,343.47 79.12,349.97 79.25,353.73 C79.35,355.62 80.02,358.38 80.68,359.61 C81.86,361.68 86.37,364.73 90.52,366.75 C91.96,367.44 100.87,371.26 102.99,371.75 C103.32,371.82 118.45,374.37 120.11,375.19 C120.47,376.22 118.97,379.92 116.89,381.98 C115.21,383.60 100.38,390.51 96.56,393.21 C94.74,394.51 91.39,397.46 90.22,398.77 C87.49,401.88 84.98,406.92 84.50,409.76 C84.03,412.82 84.46,418.96 85.35,421.12 C86.14,422.95 88.83,425.25 90.47,425.58 C92.79,425.98 112.74,424.22 115.54,424.25 C118.64,424.26 125.64,424.26 129.53,424.26 C133.53,424.24 135.54,424.03 138.79,423.02 C140.49,422.49 155.01,418.04 163.85,416.14 C172.38,414.53 180.28,413.81 190.97,413.65 C196.30,413.43 202.37,411.99 210.91,409.56 C220.46,407.01 228.95,403.68 234.62,399.56 C235.81,398.68 237.42,397.29 238.20,396.45 C238.99,395.54 240.28,387.93 240.67,386.81 C241.04,385.75 243.96,376.63 245.11,374.64 C246.15,372.94 249.75,370.87 253.78,370.38 C256.90,370.04 265.54,371.41 272.37,373.77 C279.46,376.25 293.83,383.14 295.30,383.66 C298.35,384.73 303.62,385.96 306.89,385.88 C310.02,385.77 318.83,383.75 321.70,382.64 C326.23,380.87 337.94,374.08 339.29,372.12 C340.54,370.25 341.78,365.17 341.90,362.54 C341.98,360.53 341.17,355.86 340.24,353.67 C339.05,350.94 335.68,347.19 333.01,345.72 C332.58,345.49 325.01,341.95 323.91,340.92 C322.59,339.65 321.33,335.76 321.94,334.67 C322.60,333.61 327.32,331.49 330.01,331.14 C332.08,330.90 341.00,331.01 342.00,330.94 C344.26,330.78 351.70,329.16 354.05,328.40 C356.75,327.51 360.78,325.23 362.77,323.58 C365.07,321.61 367.75,318.31 369.17,315.10 C370.63,311.67 370.86,307.66 369.94,305.40 C369.17,303.68 365.98,300.17 363.90,298.84 C361.51,297.36 356.47,296.06 352.84,295.67 C350.07,295.39 346.42,295.46 343.81,295.57 C343.33,295.59 342.85,295.61 342.37,295.63" fill="none" stroke="rgb(0, 0, 255)" stroke-width="2.73" stroke-opacity="1.00" stroke-linejoin="round"/>
<path d="M330.10,298.83 C331.79,297.67 342.29,297.13 349.75,297.94 C352.49,298.22 356.35,299.60 358.94,301.49 C364.39,305.61 369.06,308.88 369.29,309.07 C370.86,310.37 374.10,315.68 375.22,318.77 C375.85,320.57 376.65,324.05 376.72,325.55 C376.81,328.91 374.25,334.14 372.49,335.96 C369.52,338.94 361.39,342.56 357.36,343.31 C353.04,344.09 347.16,344.08 343.93,343.43 C342.88,343.21 335.27,340.87 332.57,340.36 C326.77,339.31 324.24,341.39 323.60,342.18 C324.30,343.95 325.06,344.88 326.59,345.46 C327.56,345.82 335.50,348.61 336.96,349.65 C338.01,350.43 339.36,352.21 339.83,353.48 C340.74,356.07 340.94,363.63 339.96,367.06 C339.03,370.18 336.26,374.38 335.08,375.74 C332.17,379.05 323.14,385.91 318.32,388.36 C313.71,390.69 304.54,394.14 300.21,395.12 C296.23,396.01 287.07,396.39 283.41,395.79 C278.80,394.95 253.71,387.16 250.95,387.22 C247.94,387.33 241.85,389.48 238.03,391.34 C234.54,393.09 218.45,401.06 210.93,403.82 C206.43,405.46 189.91,410.32 183.42,412.16 C177.03,413.87 165.23,416.04 158.43,416.81 C152.89,417.41 143.95,417.20 134.31,416.41 C130.27,416.02 123.99,414.80 119.77,413.44 C115.83,412.13 110.72,409.30 109.36,406.91 C108.78,405.82 107.78,402.12 107.72,400.75 C107.64,397.29 110.25,391.10 111.98,388.27 C114.70,383.92 121.17,377.26 126.57,373.14 C131.68,369.26 142.96,359.30 143.25,358.83 C143.48,358.45 143.42,358.02 143.18,357.39 C141.93,356.62 136.32,356.11 133.27,356.16 C130.49,356.22 124.58,356.32 123.53,356.28 C118.84,356.02 114.52,354.67 112.71,353.20 C107.38,348.74 104.69,346.23 103.69,343.94 C103.14,342.58 102.95,339.94 103.28,338.34 C103.93,335.48 107.40,330.97 110.36,328.64 C112.39,327.08 130.49,316.31 130.95,316.22 C131.22,316.18 131.64,316.24 132.24,316.40" fill="none" stroke="rgb(0, 0, 255)" stroke-width="2.73" stroke-opacity="1.00" stroke-linejoin="round"/>
</g>
</svg>
