<?xml version="1.0" encoding="UTF-8" standalone="no"?>
<!DOCTYPE svg PUBLIC "-//W3C//DTD SVG 1.1//EN" "http://www.w3.org/Graphics/SVG/1.1/DTD/svg11.dtd">
<svg width="64.20" height="90.84" viewBox="0.00 0.00 535.00 757.00" xmlns="http://www.w3.org/2000/svg" xmlns:xlink="http://www.w3.org/1999/xlink">
<g stroke-linecap="round" transform="translate(44.00, 155.00)" id="39-가로등">
<path d="M256.95,59.74 C256.95,59.74 256.49,59.74 256.49,59.74 C256.49,59.74 256.29,59.42 256.29,59.42 C256.43,59.27 260.59,54.05 263.66,51.44 C265.32,50.06 269.34,47.72 272.03,46.78 C275.44,45.59 279.10,44.41 281.85,43.78 C284.39,43.21 287.86,43.10 291.11,43.36 C295.25,43.72 307.46,47.70 309.79,49.38 C311.20,50.43 313.68,53.69 314.80,55.93 C318.34,63.16 318.57,77.67 318.57,77.73 C317.04,75.61 313.87,72.58 311.58,71.23 C308.22,69.27 296.96,64.15 291.28,62.87 C283.82,61.27 270.98,59.51 264.58,59.67 C261.88,59.75 257.64,60.19 255.85,60.39 C255.50,60.43 255.32,60.45 255.32,60.44" fill="none" stroke="rgb(107, 87, 69)" stroke-width="2.73" stroke-opacity="1.00" stroke-linejoin="round"/>
<path d="M255.09,61.84 C255.09,61.84 254.86,61.84 254.86,61.84 C254.93,62.13 255.04,62.39 255.37,62.88 C257.35,65.75 261.22,71.85 262.45,73.20 C263.13,73.93 268.18,78.49 271.12,80.06 C276.77,83.02 303.33,83.17 308.16,82.64 C310.42,82.37 315.99,79.98 316.09,79.90 C316.19,79.81 316.63,79.37 317.41,78.58" fill="none" stroke="rgb(107, 87, 69)" stroke-width="2.73" stroke-opacity="1.00" stroke-linejoin="round"/>
<path d="M287.88,69.97 C286.80,69.94 283.60,68.53 282.49,68.60 C281.47,68.70 280.08,70.09 279.88,71.15 C279.71,72.22 280.83,74.20 282.09,75.09 C283.29,75.93 286.10,76.76 287.60,76.84 C289.00,76.89 291.14,76.26 291.91,75.65 C292.56,75.10 293.21,73.61 293.14,72.91 C293.05,72.18 291.77,70.82 290.61,70.24 C289.48,69.69 285.76,69.02 283.01,69.27 C282.23,69.35 281.74,69.76 281.26,70.35 C281.31,71.54 283.86,73.85 285.97,74.79 C287.73,75.54 290.83,75.44 291.47,74.84 C292.71,73.57 289.71,70.44 288.86,70.00 C288.17,69.64 284.54,68.46 283.46,68.11" fill="none" stroke="rgb(107, 87, 69)" stroke-width="2.73" stroke-opacity="1.00" stroke-linejoin="round"/>
<path d="M286.72,45.33 C286.72,45.33 286.48,45.33 286.48,45.33 C286.49,43.87 286.57,42.62 286.83,39.97 C287.27,35.71 287.73,34.33 289.12,34.02 C292.98,33.30 305.67,35.97 305.91,36.90 C305.75,38.14 304.52,43.44 304.13,45.14 C303.98,45.75 303.84,46.35 303.69,46.95" fill="none" stroke="rgb(107, 87, 69)" stroke-width="2.73" stroke-opacity="1.00" stroke-linejoin="round"/>
<path d="M319.97,78.18 C319.97,78.18 319.71,78.18 319.71,78.18 C319.64,78.32 319.90,79.05 320.29,79.67 C321.30,81.35 321.95,83.18 322.01,85.92 C322.15,95.81 320.06,126.03 319.57,140.15 C318.94,151.72 318.87,159.78 319.40,167.32 C319.65,170.50 320.66,184.08 320.47,191.75 C319.75,203.78 318.75,230.60 318.46,245.39 C318.36,262.95 319.70,303.29 319.71,304.88 C319.71,304.88 319.97,302.13 319.97,302.13" fill="none" stroke="rgb(107, 87, 69)" stroke-width="2.73" stroke-opacity="1.00" stroke-linejoin="round"/>
<path d="M313.57,84.84 C313.44,84.84 313.31,84.84 313.18,84.84 C313.14,84.84 313.10,84.84 313.06,84.84 C314.04,87.41 315.36,92.95 315.58,96.48 C316.16,106.12 314.37,135.38 313.36,148.28 C312.13,160.60 310.74,175.12 310.46,185.04 C310.35,188.74 309.94,193.65 309.73,196.17" fill="none" stroke="rgb(107, 87, 69)" stroke-width="2.73" stroke-opacity="1.00" stroke-linejoin="round"/>
<path d="M309.73,197.45 C309.70,197.76 309.65,198.05 309.60,198.35 C309.35,199.79 309.23,200.55 309.22,200.63 C308.56,211.71 307.91,258.85 307.74,272.47 C307.77,277.08 309.53,292.05 309.78,296.55 C310.13,303.98 310.23,309.51 310.24,310.57 C310.24,310.57 309.99,310.84 309.99,310.84" fill="none" stroke="rgb(107, 87, 69)" stroke-width="2.73" stroke-opacity="1.00" stroke-linejoin="round"/>
</g>
</svg>
