<?xml version="1.0" encoding="UTF-8" standalone="no"?>
<!DOCTYPE svg PUBLIC "-//W3C//DTD SVG 1.1//EN" "http://www.w3.org/Graphics/SVG/1.1/DTD/svg11.dtd">
<svg width="64.20" height="90.84" viewBox="0.00 0.00 535.00 757.00" xmlns="http://www.w3.org/2000/svg" xmlns:xlink="http://www.w3.org/1999/xlink">
<g stroke-linecap="round" transform="translate(44.00, 155.00)" id="4-가방">
<path d="M108.33,402.23 C108.29,402.23 108.25,402.23 108.21,402.23 C108.17,402.23 108.13,402.23 108.09,402.23 C107.72,400.98 112.86,391.80 117.46,385.65 C119.71,382.68 125.72,378.04 127.99,377.26 C129.86,376.65 134.86,376.67 136.92,377.10 C139.09,377.57 142.84,379.56 144.83,381.15 C147.63,383.43 149.83,385.79 151.25,388.40 C151.53,388.94 151.60,389.78 151.55,390.74 C151.54,390.98 151.50,391.37 151.43,391.93" fill="none" stroke="rgb(72, 124, 28)" stroke-width="2.89" stroke-opacity="1.00" stroke-linejoin="round"/>
<path d="M106.42,398.88 C106.07,398.85 105.77,398.81 105.52,398.76 C100.54,397.75 87.38,399.36 81.29,399.86 C75.33,400.40 74.28,400.63 73.58,401.03 C72.54,402.91 64.09,445.36 63.84,448.32 C63.58,451.48 63.21,467.27 62.96,472.04 C62.88,475.28 63.58,478.19 63.75,478.53 C66.35,478.85 71.97,477.56 75.18,476.82 C84.13,474.84 89.79,474.05 101.86,472.64 C110.93,471.62 154.93,469.49 154.85,469.50 C154.85,469.50 152.39,466.88 152.39,466.88" fill="none" stroke="rgb(72, 124, 28)" stroke-width="2.89" stroke-opacity="1.00" stroke-linejoin="round"/>
<path d="M102.11,404.39 C102.65,404.38 108.27,403.33 113.35,402.95 C124.33,402.23 149.93,403.94 153.15,404.54 C153.76,404.68 154.87,406.87 154.38,409.49 C153.71,412.89 136.58,457.05 135.93,458.38 C135.93,458.38 136.35,456.35 136.35,456.35" fill="none" stroke="rgb(72, 124, 28)" stroke-width="2.89" stroke-opacity="1.00" stroke-linejoin="round"/>
</g>
</svg>
