<?xml version="1.0" encoding="UTF-8" standalone="no"?>
<!DOCTYPE svg PUBLIC "-//W3C//DTD SVG 1.1//EN" "http://www.w3.org/Graphics/SVG/1.1/DTD/svg11.dtd">
<svg width="64.20" height="90.84" viewBox="0.00 0.00 535.00 757.00" xmlns="http://www.w3.org/2000/svg" xmlns:xlink="http://www.w3.org/1999/xlink">
<g stroke-linecap="round" transform="translate(44.00, 155.00)" id="4-풀-3">
<path d="M22.21,547.45 C22.32,546.08 22.38,545.24 22.40,544.94 C22.51,542.80 21.11,539.34 19.22,537.14 C17.35,535.01 13.82,531.99 9.16,528.26 C6.43,526.05 4.10,523.15 3.54,521.44 C3.11,520.01 3.50,517.91 4.39,517.14 C5.39,516.34 8.93,515.44 10.91,515.64 C13.71,515.99 19.30,518.59 22.50,521.59 C23.79,522.82 26.15,525.99 27.46,528.22 C28.44,529.94 31.79,539.64 32.34,540.72 C32.39,540.86 34.73,534.71 36.00,532.12 C36.90,530.31 39.30,526.26 41.32,523.86 C46.29,518.02 50.84,515.94 51.76,515.69 C52.82,516.69 53.24,517.60 53.08,519.02 C52.53,523.82 49.65,529.53 48.19,532.13 C49.99,529.79 51.94,527.55 53.53,526.08 C55.23,524.53 58.12,522.48 60.69,522.05 C60.69,522.05 62.05,523.02 62.05,523.02 C62.83,525.47 62.41,528.39 61.96,529.41 C60.60,532.32 56.90,535.80 53.83,537.52 C53.47,537.71 51.38,538.72 50.93,538.82 C50.55,538.90 49.78,538.96 48.60,538.99" fill="none" stroke="rgb(72, 124, 28)" stroke-width="2.89" stroke-opacity="1.00" stroke-linejoin="round"/>
</g>
</svg>
