<?xml version="1.0" encoding="UTF-8" standalone="no"?>
<!DOCTYPE svg PUBLIC "-//W3C//DTD SVG 1.1//EN" "http://www.w3.org/Graphics/SVG/1.1/DTD/svg11.dtd">
<svg width="64.20" height="90.84" viewBox="0.00 0.00 535.00 757.00" xmlns="http://www.w3.org/2000/svg" xmlns:xlink="http://www.w3.org/1999/xlink">
<g stroke-linecap="round" transform="translate(44.00, 155.00)" id="4-풀-5">
<path d="M-38.05,490.77 C-38.05,490.77 -39.55,490.77 -39.55,490.77 C-38.90,490.58 -32.89,486.97 -31.97,486.58 C-29.93,485.72 -10.87,482.06 -2.44,479.27 C12.23,474.51 30.11,471.00 54.28,465.31 C78.40,459.49 89.04,456.51 112.32,451.30 C120.12,449.40 129.43,446.51 130.17,446.31 C130.63,446.18 131.63,445.91 133.16,445.51" fill="none" stroke="rgb(72, 124, 28)" stroke-width="2.89" stroke-opacity="1.00" stroke-linejoin="round"/>
<path d="M269.68,429.67 C271.44,428.08 272.84,427.11 275.12,426.00 C281.16,423.03 294.15,414.74 297.86,412.64 C310.45,405.89 330.22,395.00 350.43,385.36 C364.98,378.18 431.04,348.53 435.50,345.99 C437.95,344.59 457.79,332.27 460.50,330.87 C460.37,331.12 460.25,331.37 460.12,331.62 C460.00,331.88 459.87,332.13 459.75,332.38" fill="none" stroke="rgb(72, 124, 28)" stroke-width="2.89" stroke-opacity="1.00" stroke-linejoin="round"/>
<path d="M284.76,548.09 C284.76,548.70 284.76,549.32 284.76,549.93 C284.76,550.07 284.76,550.21 284.76,550.35 C286.59,547.92 289.38,544.88 292.46,542.15 C294.36,540.50 306.73,534.15 315.06,528.79 C320.41,525.44 361.62,504.83 365.97,502.93 C385.35,494.01 394.79,488.73 416.40,475.53 C425.87,469.99 479.58,446.14 486.74,443.07 C486.74,443.07 486.14,444.00 486.14,444.00" fill="none" stroke="rgb(72, 124, 28)" stroke-width="2.89" stroke-opacity="1.00" stroke-linejoin="round"/>
</g>
</svg>
