<?xml version="1.0" encoding="UTF-8" standalone="no"?>
<!DOCTYPE svg PUBLIC "-//W3C//DTD SVG 1.1//EN" "http://www.w3.org/Graphics/SVG/1.1/DTD/svg11.dtd">
<svg width="64.20" height="90.84" viewBox="0.00 0.00 535.00 757.00" xmlns="http://www.w3.org/2000/svg" xmlns:xlink="http://www.w3.org/1999/xlink">
<g stroke-linecap="round" transform="translate(154.00, 267.00)" id="4-사람">
<path d="M66.19,31.35 C66.44,31.22 60.08,28.94 57.06,28.92 C54.38,28.93 48.49,30.04 44.91,31.62 C41.99,32.95 38.61,35.33 37.41,36.93 C36.05,38.82 34.45,43.97 34.58,46.36 C34.76,48.84 37.19,52.74 39.30,54.33 C40.20,55.00 44.85,57.75 45.25,58.13 C45.24,58.59 38.54,61.07 36.64,62.20 C33.84,63.91 28.84,69.63 26.88,73.30 C25.38,76.19 24.13,81.19 24.54,83.29 C25.09,85.80 28.22,89.83 30.87,91.52 C35.08,94.15 42.92,95.46 49.75,95.87 C49.75,95.87 52.41,93.94 52.41,93.94" fill="none" stroke="rgb(72, 124, 28)" stroke-width="2.89" stroke-opacity="1.00" stroke-linejoin="round"/>
<path d="M58.71,48.27 C58.63,51.35 59.82,58.43 59.89,62.12 C59.95,65.34 61.58,80.85 62.63,84.59 C63.66,88.12 72.87,101.46 74.10,102.60 C75.15,103.56 79.73,106.11 81.86,106.71 C83.56,107.19 91.98,109.08 94.12,109.39 C97.00,109.78 102.39,109.68 105.39,109.17 C108.89,108.55 113.48,107.20 115.00,106.36 C117.21,105.08 120.71,101.47 121.88,99.06 C123.06,96.56 124.67,90.61 125.28,86.70 C126.13,81.14 126.42,76.51 126.00,73.24 C125.51,69.63 125.30,66.28 125.24,66.09 C125.16,65.83 124.89,65.27 124.45,64.41" fill="none" stroke="rgb(72, 124, 28)" stroke-width="2.89" stroke-opacity="1.00" stroke-linejoin="round"/>
<path d="M92.56,36.07 C92.69,33.54 92.89,31.94 93.42,30.69 C94.91,27.22 98.62,23.85 100.77,22.31 C102.95,20.79 108.71,18.00 111.46,17.32 C114.05,16.70 120.46,16.96 122.08,17.51 C123.84,18.16 127.80,21.90 129.97,24.67 C131.96,27.24 135.00,32.39 135.12,34.34 C135.19,36.25 132.93,43.81 131.59,46.00 C131.25,46.54 128.94,49.25 128.92,49.43 C137.88,46.89 145.84,45.60 150.03,45.84 C151.73,45.95 155.63,47.79 156.92,48.99 C158.13,50.19 159.35,53.92 159.23,56.68 C159.06,59.72 157.25,66.59 155.58,70.36 C154.05,73.75 148.30,81.68 144.88,85.23 C143.51,86.63 139.16,90.12 137.12,91.28 C136.11,91.85 133.81,92.90 132.32,93.54" fill="none" stroke="rgb(72, 124, 28)" stroke-width="2.89" stroke-opacity="1.00" stroke-linejoin="round"/>
<path d="M63.83,69.92 C64.08,70.09 69.90,68.35 71.73,67.26 C73.88,65.96 79.26,62.23 80.70,61.67 C85.06,60.04 90.32,63.57 90.44,63.64 C90.53,63.69 90.84,63.82 91.38,64.02" fill="none" stroke="rgb(72, 124, 28)" stroke-width="2.89" stroke-opacity="1.00" stroke-linejoin="round"/>
<path d="M98.86,72.29 C98.80,72.29 98.73,72.29 98.66,72.29 C98.60,72.29 98.53,72.29 98.47,72.29 C100.75,71.00 105.00,68.11 106.57,66.95 C108.99,65.19 115.52,62.70 118.07,62.97 C120.36,63.29 124.19,66.81 124.62,67.65 C124.80,68.03 125.01,68.79 125.24,69.92" fill="none" stroke="rgb(72, 124, 28)" stroke-width="2.89" stroke-opacity="1.00" stroke-linejoin="round"/>
<path d="M85.87,78.98 C85.87,78.98 87.05,78.98 87.05,78.98 C87.05,78.98 87.05,79.64 87.05,79.64" fill="none" stroke="rgb(72, 124, 28)" stroke-width="2.89" stroke-opacity="1.00" stroke-linejoin="round"/>
<path d="M82.33,100.63 C82.79,100.59 86.99,101.44 91.47,101.41 C98.19,101.35 107.84,98.56 107.89,98.52 C109.73,97.14 110.19,94.56 110.23,92.54 C110.23,92.54 109.10,92.36 109.10,92.36" fill="none" stroke="rgb(72, 124, 28)" stroke-width="2.89" stroke-opacity="1.00" stroke-linejoin="round"/>
<path d="M89.81,119.13 C89.63,119.32 90.84,124.36 92.65,126.30 C93.74,127.45 96.18,129.96 96.79,130.29 C97.96,130.91 105.59,130.87 107.85,130.63 C108.02,130.79 108.13,130.90 108.18,130.97 C108.22,131.03 108.27,131.16 108.31,131.33" fill="none" stroke="rgb(72, 124, 28)" stroke-width="2.89" stroke-opacity="1.00" stroke-linejoin="round"/>
<path d="M76.03,121.88 C75.02,122.71 72.20,128.17 71.09,129.92 C69.54,132.33 64.23,137.71 64.22,137.96 C64.22,137.96 67.33,141.94 67.33,141.94 C64.43,142.07 59.91,143.75 58.10,145.86 C57.54,146.54 52.46,154.00 49.55,157.10 C46.80,160.02 44.83,163.25 44.70,163.46 C44.44,163.59 49.04,168.73 50.96,170.89 C53.22,173.53 55.70,178.01 56.02,179.84 C56.27,181.65 55.23,183.63 52.44,187.87 C49.84,191.86 47.62,196.38 46.45,200.25 C45.46,203.59 44.42,209.56 44.26,212.73 C44.13,215.44 44.33,222.92 45.06,226.69 C47.20,237.51 55.85,254.10 56.18,254.27 C56.18,254.27 57.53,252.57 57.53,252.57" fill="none" stroke="rgb(72, 124, 28)" stroke-width="2.89" stroke-opacity="1.00" stroke-linejoin="round"/>
<path d="M114.21,130.54 C114.16,130.35 114.64,128.96 114.61,128.54 C114.60,128.46 114.60,128.34 114.61,128.18 C119.47,139.21 122.25,143.74 127.25,149.31 C130.03,152.41 133.13,156.35 134.28,159.60 C134.79,161.11 133.83,165.07 132.34,167.71 C131.10,169.90 128.02,174.88 127.02,177.03 C126.49,178.21 126.23,179.52 126.42,180.32 C126.69,181.33 131.79,186.87 132.21,188.13 C132.89,190.42 129.71,207.87 129.43,210.64 C128.83,218.80 127.29,221.96 126.84,222.79 C126.77,222.94 126.76,223.03 126.81,223.05" fill="none" stroke="rgb(72, 124, 28)" stroke-width="2.89" stroke-opacity="1.00" stroke-linejoin="round"/>
<path d="M55.17,267.53 C54.74,267.90 53.93,267.86 53.61,267.93 C52.28,268.24 50.67,269.51 49.68,271.24 C48.01,274.18 46.49,278.93 46.18,282.49 C45.94,285.39 47.03,294.89 48.44,304.93 C49.55,313.17 50.29,323.82 50.61,334.74 C50.95,359.62 50.41,369.26 49.77,370.94 C49.53,371.52 47.07,373.68 46.23,374.54 C44.84,375.97 43.33,381.17 43.71,383.76 C44.18,386.56 46.64,390.40 48.61,391.44 C54.01,394.17 64.97,396.66 69.16,396.42 C70.61,396.33 95.77,394.03 96.44,394.00 C100.04,393.84 103.25,393.95 103.53,393.89 C103.86,393.82 104.54,393.56 105.55,393.11" fill="none" stroke="rgb(72, 124, 28)" stroke-width="2.89" stroke-opacity="1.00" stroke-linejoin="round"/>
<path d="M131.53,250.21 C131.14,251.37 128.38,257.09 127.68,259.70 C126.97,262.43 126.36,268.49 126.65,271.07 C126.99,273.65 133.39,288.43 135.64,293.72 C138.44,300.04 141.65,310.37 143.91,318.65 C146.64,329.33 147.60,335.13 147.55,344.74 C147.48,349.02 145.66,364.35 144.74,371.55 C143.82,377.78 140.64,393.48 139.94,397.43 C139.68,398.94 139.62,400.33 139.68,402.99 C139.68,402.99 140.98,400.98 140.98,400.98" fill="none" stroke="rgb(72, 124, 28)" stroke-width="2.89" stroke-opacity="1.00" stroke-linejoin="round"/>
<path d="M45.33,176.21 C45.01,176.20 44.08,176.90 42.97,178.11 C41.93,179.26 29.82,193.15 27.41,196.29 C23.43,201.45 16.21,207.87 13.63,211.89 C12.12,214.28 9.76,218.89 9.05,221.41 C8.19,224.61 8.52,230.48 9.16,233.74 C10.10,238.32 13.23,246.74 15.28,250.02 C17.87,254.12 23.27,259.62 28.46,262.87 C41.64,271.06 51.69,271.02 52.74,270.85 C52.74,270.85 54.38,267.14 54.38,267.14" fill="none" stroke="rgb(72, 124, 28)" stroke-width="2.89" stroke-opacity="1.00" stroke-linejoin="round"/>
<path d="M188.05,17.06 C188.03,18.84 188.99,22.20 189.74,24.75 C190.90,29.22 191.60,47.13 191.28,51.48 C191.26,51.76 188.33,74.01 187.02,78.94 C184.98,86.55 179.73,98.42 176.71,103.38 C174.83,106.45 164.96,120.44 163.06,122.76 C160.38,125.97 136.10,148.85 133.57,151.49 C133.57,151.49 135.08,149.37 135.08,149.37" fill="none" stroke="rgb(72, 124, 28)" stroke-width="2.89" stroke-opacity="1.00" stroke-linejoin="round"/>
<path d="M194.48,11.74 C194.48,11.74 194.70,11.74 194.70,11.74 C194.64,11.80 194.92,13.80 195.14,15.35 C195.22,16.01 195.90,23.81 196.34,25.56 C196.63,26.64 200.68,38.07 202.51,42.94 C203.52,45.58 209.83,60.08 210.66,64.55 C211.63,69.92 211.26,81.86 210.41,86.60 C209.62,90.97 206.32,100.24 203.19,105.60 C194.89,119.58 160.84,155.56 155.18,163.58 C154.33,164.79 148.33,173.63 146.62,175.84 C143.53,179.78 137.74,183.35 136.69,183.77 C136.69,183.77 135.08,179.73 135.08,179.73" fill="none" stroke="rgb(72, 124, 28)" stroke-width="2.89" stroke-opacity="1.00" stroke-linejoin="round"/>
<path d="M188.49,20.38 C187.39,20.38 186.31,20.47 185.05,20.68 C183.56,20.90 180.96,21.10 180.19,20.93 C179.20,20.68 177.59,17.21 176.79,15.13 C176.79,15.13 176.52,15.07 176.52,15.07" fill="none" stroke="rgb(72, 124, 28)" stroke-width="2.89" stroke-opacity="1.00" stroke-linejoin="round"/>
<path d="M245.67,29.47 C245.62,29.67 245.58,29.92 245.54,30.22 C245.47,30.76 244.61,38.66 244.06,41.41 C243.34,44.94 241.64,50.32 240.09,53.91 C238.68,57.11 235.93,61.66 234.37,63.21 C233.03,64.50 229.93,65.92 228.53,66.06 C225.19,66.35 219.88,65.32 217.73,64.64 C215.05,63.77 208.69,60.74 207.66,60.18 C206.60,59.61 205.33,58.75 204.93,58.43" fill="none" stroke="rgb(72, 124, 28)" stroke-width="2.89" stroke-opacity="1.00" stroke-linejoin="round"/>
</g>
</svg>
