<?xml version="1.0" encoding="UTF-8" standalone="no"?>
<!DOCTYPE svg PUBLIC "-//W3C//DTD SVG 1.1//EN" "http://www.w3.org/Graphics/SVG/1.1/DTD/svg11.dtd">
<svg width="64.20" height="90.84" viewBox="0.00 0.00 535.00 757.00" xmlns="http://www.w3.org/2000/svg" xmlns:xlink="http://www.w3.org/1999/xlink">
<g stroke-linecap="round" transform="translate(44.00, 155.00)" id="40-풀">
<path d="M68.31,462.32 C68.31,462.32 66.26,462.53 66.26,462.53 C69.42,460.60 72.67,459.37 73.93,459.38 C75.92,459.42 80.68,460.00 81.26,460.43 C81.84,460.93 81.57,462.71 79.52,465.17 C77.13,468.04 75.83,470.48 75.93,471.44 C77.02,471.76 78.11,471.51 80.61,470.23 C84.46,468.28 88.18,467.07 89.20,467.47 C90.06,467.88 90.65,473.55 91.36,474.18 C92.65,474.28 98.71,470.93 99.79,470.35 C100.65,469.89 101.33,469.90 101.98,470.11 C101.98,470.11 101.49,475.63 101.49,475.63 C102.53,475.54 108.56,470.57 110.64,469.00 C113.60,466.77 114.45,466.53 115.57,466.34 C115.99,467.40 113.56,472.24 112.00,475.26 C111.86,475.55 111.78,475.79 111.77,475.97 C116.09,472.27 121.65,468.59 123.24,468.99 C123.24,468.99 121.34,473.45 121.34,473.45 C121.87,470.88 129.52,466.31 130.89,466.32 C131.38,467.50 131.08,469.03 129.70,471.38 C128.73,472.95 127.31,475.27 126.47,476.84 C126.47,476.84 133.89,475.55 133.89,475.55" fill="none" stroke="rgb(107, 87, 69)" stroke-width="2.56" stroke-opacity="1.00" stroke-linejoin="round"/>
<path d="M86.79,509.63 C86.79,509.63 86.79,509.51 86.79,509.51 C89.23,506.37 101.42,499.02 103.27,498.72 C103.66,499.32 100.05,506.78 99.80,507.50 C99.27,508.98 99.24,510.42 99.55,510.76 C100.48,511.26 103.01,510.41 106.23,508.16 C116.02,501.25 117.11,500.67 117.87,500.89 C117.87,500.89 114.30,512.14 114.30,512.14 C115.63,511.97 122.05,507.51 123.64,506.63 C127.07,504.75 128.58,504.73 129.50,504.85 C129.83,506.49 129.79,507.34 129.03,508.57 C127.23,511.49 124.98,515.12 124.87,516.03 C126.07,516.40 134.02,512.18 135.49,511.40 C139.25,509.41 143.71,507.61 144.38,507.90 C144.38,507.90 138.68,515.77 138.68,515.77 C139.35,516.29 146.46,512.63 146.49,512.62 C150.67,510.71 151.59,510.82 152.25,511.02 C152.25,511.02 152.55,515.01 152.55,515.01 C153.67,515.46 160.66,512.52 162.52,511.79 C164.03,511.20 167.64,509.86 168.84,509.43 C170.99,508.67 171.79,508.33 172.75,507.80" fill="none" stroke="rgb(107, 87, 69)" stroke-width="2.56" stroke-opacity="1.00" stroke-linejoin="round"/>
</g>
</svg>
