<?xml version="1.0" encoding="UTF-8" standalone="no"?>
<!DOCTYPE svg PUBLIC "-//W3C//DTD SVG 1.1//EN" "http://www.w3.org/Graphics/SVG/1.1/DTD/svg11.dtd">
<svg width="64.20" height="90.84" viewBox="0.00 0.00 535.00 757.00" xmlns="http://www.w3.org/2000/svg" xmlns:xlink="http://www.w3.org/1999/xlink">
<g stroke-linecap="round" transform="translate(156.00, 267.00)" id="40-비">
<path d="M-51.67,19.68 C-51.67,19.68 -52.24,19.68 -52.24,19.68 C-52.23,19.37 -52.22,18.65 -52.22,18.23 C-52.21,18.14 -52.21,18.05 -52.21,17.97 C-55.90,24.35 -58.36,30.31 -62.08,41.70 C-65.73,53.38 -68.49,63.31 -70.00,71.10 C-73.20,88.55 -76.33,112.00 -77.99,125.97 C-81.79,152.52 -82.80,162.32 -83.43,185.28 C-83.56,194.80 -83.79,198.65 -83.63,199.00 C-83.53,199.24 -83.16,199.72 -82.54,200.45" fill="none" stroke="rgb(0, 165, 255)" stroke-width="2.56" stroke-opacity="1.00" stroke-linejoin="round"/>
<path d="M36.37,-66.10 C36.37,-66.10 36.10,-67.24 36.10,-67.24 C34.75,-66.27 34.09,-65.51 33.54,-64.11 C31.89,-59.87 1.60,4.48 -1.22,10.60 C-3.80,16.42 -9.27,29.65 -10.93,34.66 C-14.96,48.04 -24.19,80.53 -25.98,89.99 C-28.00,100.72 -29.81,128.93 -32.20,147.99 C-33.19,155.24 -35.71,172.93 -36.44,176.34 C-38.04,183.70 -44.02,201.16 -44.67,203.09 C-47.34,211.06 -52.57,247.53 -55.83,261.05 C-60.52,279.14 -65.63,295.93 -67.53,301.89 C-67.53,301.89 -67.06,300.45 -67.06,300.45" fill="none" stroke="rgb(0, 165, 255)" stroke-width="2.56" stroke-opacity="1.00" stroke-linejoin="round"/>
<path d="M52.48,-40.18 C52.48,-40.18 51.91,-40.19 51.91,-40.19 C49.65,-32.62 36.28,3.70 35.10,6.98 C29.92,22.35 21.60,48.90 16.93,67.96 C13.71,82.20 8.61,106.51 3.39,125.74 C1.71,131.76 1.52,132.50 1.32,133.47 C1.32,133.47 3.46,135.15 3.46,135.15" fill="none" stroke="rgb(0, 165, 255)" stroke-width="2.56" stroke-opacity="1.00" stroke-linejoin="round"/>
<path d="M4.52,175.07 C4.52,175.07 3.66,175.06 3.66,175.06 C2.87,175.53 2.38,176.40 1.83,178.60 C-0.89,191.68 -4.34,207.86 -6.20,212.33 C-6.20,212.33 -5.97,211.78 -5.97,211.78" fill="none" stroke="rgb(0, 165, 255)" stroke-width="2.56" stroke-opacity="1.00" stroke-linejoin="round"/>
<path d="M36.88,77.55 C35.57,89.22 29.59,120.66 26.77,136.77 C24.08,150.56 18.30,181.54 16.96,194.30 C16.45,198.78 16.02,201.80 15.33,206.04 C15.33,206.04 17.16,203.78 17.16,203.78" fill="none" stroke="rgb(0, 165, 255)" stroke-width="2.56" stroke-opacity="1.00" stroke-linejoin="round"/>
<path d="M116.27,-72.21 C116.27,-72.21 116.28,-72.78 116.28,-72.78 C112.19,-65.83 95.44,-21.95 94.41,-18.73 C90.36,-6.04 82.56,18.73 78.99,33.82 C78.50,35.89 70.33,57.65 69.32,60.69 C68.88,62.05 64.01,79.66 62.93,85.29 C61.72,91.66 60.63,105.81 60.15,112.60 C59.19,137.98 59.26,173.94 59.24,175.40 C59.24,175.40 59.78,172.46 59.78,172.46" fill="none" stroke="rgb(0, 165, 255)" stroke-width="2.56" stroke-opacity="1.00" stroke-linejoin="round"/>
<path d="M161.13,-61.79 C160.86,-61.83 159.80,-60.72 158.81,-59.26 C158.56,-58.89 138.81,-17.15 136.28,-10.14 C131.40,3.65 121.27,30.99 116.02,44.53 C113.55,50.71 104.47,68.85 103.64,70.86 C97.99,84.93 86.74,112.22 81.15,124.76 C77.65,132.42 69.58,150.06 68.53,152.61 C65.57,159.85 56.24,189.67 51.74,203.58 C46.70,219.43 42.28,235.23 39.30,244.47 C39.30,244.47 39.88,243.48 39.88,243.48" fill="none" stroke="rgb(0, 165, 255)" stroke-width="2.56" stroke-opacity="1.00" stroke-linejoin="round"/>
<path d="M90.27,159.36 C90.27,159.36 90.29,158.22 90.29,158.22 C89.34,161.31 87.17,173.12 84.16,183.65 C81.68,192.02 77.76,201.60 75.06,207.29 C73.52,210.55 68.59,225.22 66.26,230.85 C64.73,234.53 61.57,241.23 60.31,244.66 C55.34,258.33 50.49,285.51 49.18,288.59 C49.18,288.59 49.45,283.12 49.45,283.12" fill="none" stroke="rgb(0, 165, 255)" stroke-width="2.56" stroke-opacity="1.00" stroke-linejoin="round"/>
<path d="M122.86,83.51 C122.86,83.51 122.88,82.23 122.88,82.23 C122.88,82.23 122.41,81.79 122.41,81.79 C122.02,84.89 119.34,100.00 118.01,107.52 C117.53,110.22 106.41,156.06 106.04,159.33 C105.64,163.06 104.50,182.56 104.05,190.39 C103.37,200.43 98.20,232.08 95.64,248.85 C95.08,252.59 94.20,256.25 93.82,257.58 C93.82,257.58 94.23,257.95 94.23,257.95" fill="none" stroke="rgb(0, 165, 255)" stroke-width="2.56" stroke-opacity="1.00" stroke-linejoin="round"/>
<path d="M148.39,-14.68 C148.39,-14.68 147.53,-14.54 147.53,-14.54 C146.12,-11.94 145.38,-10.03 144.95,-7.54 C144.21,-3.14 143.34,49.16 143.39,50.95 C144.52,79.28 144.90,112.86 144.57,167.90 C144.77,179.08 146.95,222.57 147.39,224.74 C149.00,232.34 152.31,241.36 152.73,241.85 C152.89,242.03 153.20,242.20 153.68,242.36" fill="none" stroke="rgb(0, 165, 255)" stroke-width="2.56" stroke-opacity="1.00" stroke-linejoin="round"/>
<path d="M189.82,-3.75 C189.82,-3.75 188.98,-4.33 188.98,-4.33 C188.69,-4.18 189.26,15.67 189.34,19.14 C189.40,34.27 189.89,70.92 190.16,77.73 C191.04,92.42 190.26,121.42 189.77,137.46 C189.65,146.03 189.48,161.86 189.42,169.11 C189.44,173.95 190.35,190.30 190.93,199.05 C191.32,205.17 191.35,206.56 192.27,208.57 C192.46,208.96 192.75,209.64 193.16,210.60" fill="none" stroke="rgb(0, 165, 255)" stroke-width="2.56" stroke-opacity="1.00" stroke-linejoin="round"/>
<path d="M222.26,-35.71 C222.24,-36.45 222.37,-37.71 222.60,-38.70 C222.66,-38.95 222.76,-39.28 222.90,-39.69 C222.75,-36.21 219.60,-16.82 219.25,-14.06 C218.53,-8.35 216.53,77.38 215.70,107.32 C215.40,113.24 210.55,152.57 208.44,168.91 C206.38,182.32 202.43,208.92 201.45,221.84 C199.47,258.04 199.96,285.29 199.93,286.27 C199.93,286.27 200.87,286.61 200.87,286.61" fill="none" stroke="rgb(0, 165, 255)" stroke-width="2.56" stroke-opacity="1.00" stroke-linejoin="round"/>
<path d="M228.80,-16.80 C228.80,-16.80 228.24,-17.72 228.24,-17.72 C228.13,-10.94 227.93,3.63 228.35,8.79 C229.79,22.76 231.45,39.27 232.74,64.86 C233.16,72.68 234.27,90.57 234.80,94.36 C236.63,106.61 240.10,126.79 242.35,146.11 C243.20,154.38 243.44,194.11 243.33,209.83 C243.05,217.99 242.34,233.36 242.37,237.16 C242.46,249.03 244.50,269.81 244.96,272.59 C245.34,274.91 246.05,277.99 246.22,278.75" fill="none" stroke="rgb(0, 165, 255)" stroke-width="2.56" stroke-opacity="1.00" stroke-linejoin="round"/>
<path d="M274.37,-50.26 C274.37,-50.26 273.54,-51.57 273.54,-51.57 C273.54,-51.57 273.30,-51.64 273.30,-51.64 C274.83,-45.23 278.13,-31.97 279.90,-25.13 C285.16,-3.85 293.33,70.60 295.05,89.65 C296.31,106.94 297.79,137.65 298.80,153.47 C300.41,172.43 301.00,199.43 301.09,199.90 C301.14,200.21 301.32,200.76 301.63,201.56" fill="none" stroke="rgb(0, 165, 255)" stroke-width="2.56" stroke-opacity="1.00" stroke-linejoin="round"/>
<path d="M316.35,32.51 C316.35,32.51 316.06,32.50 316.06,32.50 C316.06,32.50 315.78,32.21 315.78,32.21 C315.78,32.21 315.79,31.93 315.79,31.93 C315.81,31.92 315.18,37.67 315.13,40.02 C314.98,49.80 322.28,81.82 325.46,93.91 C326.10,96.64 332.30,129.42 335.00,148.84 C335.75,155.12 338.41,193.51 339.59,210.02 C340.59,221.16 341.62,229.10 343.38,238.41 C346.42,253.70 351.95,281.64 352.64,288.24 C352.64,288.24 352.69,286.18 352.69,286.18" fill="none" stroke="rgb(0, 165, 255)" stroke-width="2.56" stroke-opacity="1.00" stroke-linejoin="round"/>
</g>
</svg>
