<?xml version="1.0" encoding="UTF-8" standalone="no"?>
<!DOCTYPE svg PUBLIC "-//W3C//DTD SVG 1.1//EN" "http://www.w3.org/Graphics/SVG/1.1/DTD/svg11.dtd">
<svg width="64.20" height="90.84" viewBox="0.00 0.00 535.00 757.00" xmlns="http://www.w3.org/2000/svg" xmlns:xlink="http://www.w3.org/1999/xlink">
<g stroke-linecap="round" transform="translate(156.00, 267.00)" id="40-우산">
<path d="M11.07,210.78 C11.07,210.78 10.87,210.77 10.87,210.77 C10.67,210.54 9.93,209.88 8.55,209.65 C6.73,209.40 1.71,211.07 -1.87,212.28 C-11.31,215.18 -17.94,217.81 -22.39,221.12 C-26.91,224.51 -33.05,231.06 -36.22,236.36 C-37.73,238.94 -39.54,243.50 -40.14,246.21 C-41.59,252.94 -42.58,263.90 -42.13,267.78 C-41.72,271.32 -41.02,273.24 -40.88,273.51 C-40.25,273.05 -33.92,265.59 -33.02,264.61 C-30.70,262.07 -16.77,253.00 -14.44,251.69 C-10.62,249.57 2.38,245.31 5.68,244.76 C8.40,244.33 13.35,244.80 15.14,245.30 C19.53,246.62 32.64,255.69 35.54,258.34 C37.09,259.79 40.57,264.56 41.27,265.32 C43.11,267.24 47.20,269.79 50.35,270.84 C52.79,271.63 55.39,272.21 55.49,272.21 C55.58,272.21 55.71,272.17 55.87,272.08" fill="none" stroke="rgb(33, 228, 63)" stroke-width="2.56" stroke-opacity="1.00" stroke-linejoin="round"/>
<path d="M11.08,210.57 C11.47,210.62 13.55,209.81 14.25,209.80 C15.23,209.81 19.60,210.91 22.38,212.44 C25.11,213.97 29.29,217.25 30.89,219.00 C35.25,223.89 48.78,244.04 49.76,246.37 C53.71,256.12 54.12,267.03 54.04,270.85 C54.04,270.85 52.81,270.59 52.81,270.59" fill="none" stroke="rgb(33, 228, 63)" stroke-width="2.56" stroke-opacity="1.00" stroke-linejoin="round"/>
<path d="M-22.39,222.76 C-22.39,222.76 -22.18,222.35 -22.18,222.35 C-22.33,223.37 -22.53,224.36 -22.79,225.09 C-25.80,233.39 -27.82,244.33 -28.13,249.84 C-28.27,252.57 -28.44,256.65 -28.17,257.21 C-27.88,257.75 -24.41,258.79 -24.04,258.92 C-23.80,259.02 -23.17,259.28 -22.17,259.72" fill="none" stroke="rgb(33, 228, 63)" stroke-width="2.56" stroke-opacity="1.00" stroke-linejoin="round"/>
<path d="M3.80,216.00 C3.48,215.97 2.66,216.52 2.24,217.45 C0.22,222.15 -5.20,232.15 -7.59,240.25 C-9.24,245.89 -9.38,248.08 -9.38,248.41 C-9.38,248.41 -8.24,249.07 -8.24,249.07" fill="none" stroke="rgb(33, 228, 63)" stroke-width="2.56" stroke-opacity="1.00" stroke-linejoin="round"/>
<path d="M11.73,220.85 C9.99,223.98 8.67,228.31 8.11,232.18 C7.18,238.80 7.36,246.49 7.43,247.04 C7.43,247.04 8.42,247.70 8.42,247.70" fill="none" stroke="rgb(33, 228, 63)" stroke-width="2.56" stroke-opacity="1.00" stroke-linejoin="round"/>
<path d="M15.51,215.78 C17.76,217.67 25.39,231.31 26.62,234.28 C30.26,243.45 31.79,249.77 32.58,252.43 C32.58,252.43 32.78,252.40 32.78,252.40" fill="none" stroke="rgb(33, 228, 63)" stroke-width="2.56" stroke-opacity="1.00" stroke-linejoin="round"/>
<path d="M27.17,218.64 C27.17,218.64 26.10,216.83 26.10,216.83 C26.10,216.83 25.96,216.78 25.96,216.78 C30.48,226.50 32.96,232.36 35.35,239.82 C36.54,243.61 37.53,246.46 38.67,249.35 C39.67,251.82 40.76,253.17 41.78,254.19" fill="none" stroke="rgb(33, 228, 63)" stroke-width="2.56" stroke-opacity="1.00" stroke-linejoin="round"/>
<path d="M16.43,247.62 C16.42,247.24 16.46,246.96 16.55,246.78 C16.56,246.74 16.60,246.68 16.65,246.60 C16.68,247.00 13.52,285.11 13.23,291.28 C12.66,299.83 9.47,301.67 8.24,302.27 C8.24,302.27 6.31,301.67 6.31,301.67" fill="none" stroke="rgb(33, 228, 63)" stroke-width="2.56" stroke-opacity="1.00" stroke-linejoin="round"/>
</g>
</svg>
