<?xml version="1.0" encoding="UTF-8" standalone="no"?>
<!DOCTYPE svg PUBLIC "-//W3C//DTD SVG 1.1//EN" "http://www.w3.org/Graphics/SVG/1.1/DTD/svg11.dtd">
<svg width="128.40" height="181.68" viewBox="0.00 0.00 535.00 757.00" xmlns="http://www.w3.org/2000/svg" xmlns:xlink="http://www.w3.org/1999/xlink">
<g stroke-linecap="round" transform="translate(44.00, 155.00)" id="41-사람">
<path d="M290.78,176.77 C290.73,176.42 290.69,176.17 290.66,176.02 C290.63,175.87 290.57,175.60 290.47,175.22 C290.08,174.80 286.81,174.80 284.80,175.94 C282.03,177.56 277.30,182.94 275.76,185.44 C274.33,187.83 272.56,191.96 272.10,194.25 C271.67,196.58 271.75,201.15 272.30,203.84 C273.01,207.05 275.80,212.56 278.45,214.69 C280.40,216.19 289.09,218.46 289.35,218.52 C291.37,218.97 297.32,219.48 300.37,218.68 C301.91,218.26 307.48,215.32 309.69,213.31 C312.03,211.14 316.51,205.34 317.33,202.54 C318.04,200.01 318.23,195.00 318.07,192.78 C317.78,189.82 315.19,184.98 312.93,183.12 C311.34,181.83 307.85,179.11 305.80,177.58 C303.57,175.93 300.02,174.29 297.96,173.95 C295.51,173.59 292.51,174.99 292.11,175.65" fill="none" stroke="rgb(255, 165, 0)" stroke-width="4.18" stroke-opacity="1.00" stroke-linejoin="round"/>
<path d="M278.02,200.29 C277.38,199.93 276.49,199.54 275.74,199.35 C275.46,199.29 274.86,199.17 273.95,199.00 C273.95,199.00 318.30,192.01 318.30,192.01 C318.30,192.01 317.50,191.73 317.50,191.73" fill="none" stroke="rgb(255, 165, 0)" stroke-width="4.18" stroke-opacity="1.00" stroke-linejoin="round"/>
<path d="M283.70,205.83 C283.70,205.83 283.08,205.18 283.08,205.18 C283.08,205.18 283.67,206.28 283.67,206.28 C283.67,206.28 283.48,206.00 283.48,206.00 C283.48,206.00 283.50,206.09 283.50,206.09" fill="none" stroke="rgb(255, 165, 0)" stroke-width="4.18" stroke-opacity="1.00" stroke-linejoin="round"/>
<path d="M285.28,205.44 C285.28,205.44 285.44,205.30 285.44,205.30 C285.44,205.30 285.49,205.07 285.49,205.07 C285.49,205.07 285.27,204.86 285.27,204.86 C285.27,204.86 283.98,206.05 283.98,206.05 C283.98,206.05 285.13,205.22 285.13,205.22 C285.13,205.22 283.46,205.47 283.46,205.47 C283.46,205.47 283.88,205.64 283.88,205.64 C283.46,205.60 283.21,205.57 283.12,205.57 C283.04,205.56 283.00,205.57 283.00,205.59" fill="none" stroke="rgb(255, 165, 0)" stroke-width="4.18" stroke-opacity="1.00" stroke-linejoin="round"/>
<path d="M304.55,202.78 C304.55,202.78 302.04,203.10 302.04,203.10 C302.04,203.10 302.18,204.13 302.18,204.13 C302.18,204.13 303.58,203.10 303.58,203.10 C302.66,202.14 301.91,202.83 301.60,203.24 C301.60,203.24 302.89,203.69 302.89,203.69 C302.89,203.69 301.08,203.95 301.08,203.95" fill="none" stroke="rgb(255, 165, 0)" stroke-width="4.18" stroke-opacity="1.00" stroke-linejoin="round"/>
<path d="M290.22,214.98 C290.22,214.98 288.85,214.17 288.85,214.17 C288.94,214.74 291.71,216.52 293.40,216.39 C295.24,216.19 298.72,213.81 299.77,212.19 C300.08,211.68 300.84,210.22 300.80,210.28 C300.80,210.28 300.12,211.50 300.12,211.50" fill="none" stroke="rgb(255, 165, 0)" stroke-width="4.18" stroke-opacity="1.00" stroke-linejoin="round"/>
<path d="M291.65,223.32 C291.65,223.32 291.56,222.59 291.56,222.59 C291.47,223.20 292.03,229.78 292.46,230.41 C292.57,230.56 292.85,230.79 293.28,231.08 C293.28,231.08 294.14,230.38 294.14,230.38" fill="none" stroke="rgb(255, 165, 0)" stroke-width="4.18" stroke-opacity="1.00" stroke-linejoin="round"/>
<path d="M303.96,219.64 C303.96,219.64 303.23,219.77 303.23,219.77 C303.17,221.18 303.03,224.40 302.96,226.21 C302.90,227.61 302.81,229.88 302.77,230.73 C302.77,230.73 302.78,230.29 302.78,230.29" fill="none" stroke="rgb(255, 165, 0)" stroke-width="4.18" stroke-opacity="1.00" stroke-linejoin="round"/>
<path d="M292.78,232.33 C292.78,232.33 292.64,230.96 292.64,230.96 C296.06,231.77 305.08,230.26 307.32,229.09 C307.32,229.09 307.24,228.80 307.24,228.80 C307.24,228.80 307.02,228.75 307.02,228.75" fill="none" stroke="rgb(255, 165, 0)" stroke-width="4.18" stroke-opacity="1.00" stroke-linejoin="round"/>
<path d="M290.93,232.04 C290.93,232.04 291.71,231.18 291.71,231.18 C291.74,231.25 288.35,233.55 285.73,236.12 C281.65,240.14 272.26,251.20 269.52,255.64 C267.79,258.47 265.32,263.46 264.39,266.12 C263.49,268.74 263.21,272.36 263.32,273.02 C263.32,273.02 263.64,272.55 263.64,272.55" fill="none" stroke="rgb(255, 165, 0)" stroke-width="4.18" stroke-opacity="1.00" stroke-linejoin="round"/>
<path d="M257.70,290.71 C257.81,290.21 258.00,289.29 258.02,289.01 C258.05,288.48 258.07,287.18 258.06,287.04 C258.04,287.02 258.00,293.40 259.66,296.50 C260.16,297.40 262.17,298.71 264.22,298.99 C266.36,299.25 270.99,298.28 273.02,297.26 C275.00,296.24 278.14,291.73 279.54,288.88 C280.00,287.94 283.11,281.08 284.68,278.61 C284.68,278.61 283.94,278.66 283.94,278.66" fill="none" stroke="rgb(255, 165, 0)" stroke-width="4.18" stroke-opacity="1.00" stroke-linejoin="round"/>
<path d="M307.74,230.10 C307.74,230.10 306.39,229.96 306.39,229.96 C306.36,229.89 310.63,231.84 315.07,232.66 C322.43,234.14 335.82,236.81 339.63,239.01 C341.47,240.10 344.16,242.72 346.96,245.61 C348.92,247.70 350.96,251.13 351.74,253.60 C355.09,264.69 366.32,284.08 366.48,284.45 C366.78,285.13 366.92,285.30 367.05,285.40 C367.05,285.40 366.80,284.66 366.80,284.66" fill="none" stroke="rgb(255, 165, 0)" stroke-width="4.18" stroke-opacity="1.00" stroke-linejoin="round"/>
<path d="M330.77,280.40 C330.77,280.40 330.61,278.25 330.61,278.25 C332.00,279.99 334.16,283.83 335.67,285.91 C338.58,289.91 347.35,297.65 350.63,300.63 C353.19,299.60 355.81,296.39 358.40,294.70 C359.49,294.00 368.09,288.93 370.03,287.29 C370.74,286.69 371.16,286.09 371.18,285.90 C371.18,285.90 369.25,285.28 369.25,285.28" fill="none" stroke="rgb(255, 165, 0)" stroke-width="4.18" stroke-opacity="1.00" stroke-linejoin="round"/>
<path d="M349.80,300.52 C349.80,300.52 349.45,300.45 349.45,300.45 C349.45,300.45 348.60,306.24 348.60,306.24 C348.60,306.24 351.29,301.55 351.29,301.55 C351.29,301.55 352.82,305.72 352.82,305.72 C352.82,305.72 355.76,301.54 355.76,301.54 C355.76,301.54 356.90,304.41 356.90,304.41 C356.90,304.41 359.15,300.36 359.15,300.36 C359.15,300.36 359.84,301.64 359.84,301.64 C359.84,301.64 363.23,298.06 363.23,298.06 C363.65,298.23 365.53,299.34 366.22,298.81 C366.90,298.27 367.65,294.58 367.66,294.31 C367.66,294.31 368.71,296.46 368.71,296.46 C369.12,295.92 368.76,293.06 367.78,289.73 C367.65,289.19 367.85,288.54 368.26,287.59" fill="none" stroke="rgb(255, 165, 0)" stroke-width="4.18" stroke-opacity="1.00" stroke-linejoin="round"/>
<path d="M334.45,282.57 C334.45,282.57 334.34,281.91 334.34,281.91 C334.34,281.91 335.59,338.26 335.59,338.26 C335.59,338.26 335.71,337.37 335.71,337.37" fill="none" stroke="rgb(255, 165, 0)" stroke-width="4.18" stroke-opacity="1.00" stroke-linejoin="round"/>
<path d="M281.16,296.13 C281.28,295.55 281.36,295.13 281.42,294.86 C281.57,294.18 281.65,293.79 281.65,293.68 C281.65,293.54 281.61,293.34 281.52,293.09 C280.94,296.57 280.44,300.97 280.28,305.59 C279.94,316.56 281.62,344.43 282.27,345.29 C282.27,345.29 282.58,344.43 282.58,344.43" fill="none" stroke="rgb(255, 165, 0)" stroke-width="4.18" stroke-opacity="1.00" stroke-linejoin="round"/>
<path d="M279.63,342.95 C279.63,342.95 279.78,342.10 279.78,342.10 C280.01,341.95 282.73,342.13 286.80,342.84 C291.24,343.51 302.16,343.02 315.45,342.07 C324.42,341.30 332.03,340.49 334.17,340.61 C334.32,340.62 334.46,340.61 334.59,340.59" fill="none" stroke="rgb(255, 165, 0)" stroke-width="4.18" stroke-opacity="1.00" stroke-linejoin="round"/>
<path d="M290.22,348.82 C290.55,347.37 290.75,346.45 290.84,346.08 C291.11,344.98 291.46,344.06 291.88,343.15 C291.88,343.15 291.73,368.83 291.73,368.83 C291.73,368.83 291.97,367.04 291.97,367.04 C288.95,368.79 285.50,371.36 283.60,373.38 C281.81,375.34 280.38,378.26 280.66,379.39 C281.99,380.09 284.85,380.04 289.80,379.77 C310.44,378.16 313.64,375.74 314.30,375.09 C314.30,375.09 313.86,375.08 313.86,375.08" fill="none" stroke="rgb(255, 165, 0)" stroke-width="4.18" stroke-opacity="1.00" stroke-linejoin="round"/>
<path d="M313.02,346.22 C313.02,346.22 312.85,344.54 312.85,344.54 C312.83,344.55 311.37,363.63 311.25,367.33 C311.16,372.96 311.34,374.52 311.83,377.22 C311.83,377.22 311.32,376.50 311.32,376.50" fill="none" stroke="rgb(255, 165, 0)" stroke-width="4.18" stroke-opacity="1.00" stroke-linejoin="round"/>
<path d="M330.66,342.56 C330.66,342.56 330.55,342.33 330.55,342.33 C330.55,342.33 330.39,342.43 330.39,342.43 C329.94,346.28 329.79,361.16 330.08,365.34 C330.15,366.29 330.14,366.68 330.07,366.68 C330.07,366.68 329.98,366.60 329.98,366.60" fill="none" stroke="rgb(255, 165, 0)" stroke-width="4.18" stroke-opacity="1.00" stroke-linejoin="round"/>
<path d="M331.02,367.44 C331.02,367.44 329.90,367.51 329.90,367.51 C332.74,368.36 339.27,370.32 340.38,370.88 C342.42,371.93 344.57,375.41 344.73,377.24 C344.84,378.85 344.54,380.47 343.96,381.62 C343.46,382.47 340.22,382.85 335.98,382.49 C331.67,382.10 327.26,381.92 322.33,381.92 C317.55,381.90 315.99,381.61 313.51,380.89 C313.51,380.89 313.38,380.13 313.38,380.13 C313.38,380.13 314.13,380.05 314.13,380.05" fill="none" stroke="rgb(255, 165, 0)" stroke-width="4.18" stroke-opacity="1.00" stroke-linejoin="round"/>
<path d="M302.31,254.78 C301.64,254.76 300.88,254.68 300.65,254.49 C300.53,254.39 300.32,254.11 300.04,253.66 C298.20,254.83 298.31,256.66 298.57,256.91 C298.57,256.91 300.50,255.64 300.50,255.64 C300.50,255.64 298.88,257.73 298.88,257.73 C301.73,258.77 300.75,255.01 300.55,254.69 C300.55,254.69 298.93,255.34 298.93,255.34" fill="none" stroke="rgb(255, 165, 0)" stroke-width="4.18" stroke-opacity="1.00" stroke-linejoin="round"/>
<path d="M304.00,274.86 C303.98,274.56 303.96,274.33 303.92,274.19 C303.89,274.05 303.80,273.79 303.65,273.41 C303.65,273.41 303.28,273.21 303.28,273.21 C303.28,273.21 301.64,278.17 301.64,278.17 C301.64,278.17 303.36,275.23 303.36,275.23 C302.33,274.34 301.50,276.88 301.58,277.38 C301.58,277.38 303.22,275.92 303.22,275.92 C303.22,275.92 300.90,276.73 300.90,276.73 C300.90,276.73 302.24,276.82 302.24,276.82" fill="none" stroke="rgb(255, 165, 0)" stroke-width="4.18" stroke-opacity="1.00" stroke-linejoin="round"/>
<path d="M302.51,301.88 C302.51,301.88 301.57,301.45 301.57,301.45 C301.57,301.45 301.22,303.07 301.22,303.07 C301.22,303.07 303.16,299.44 303.16,299.44 C303.16,299.44 301.68,301.45 301.68,301.45 C301.68,301.45 303.30,300.07 303.30,300.07 C302.86,299.75 302.36,299.97 301.60,300.88 C301.51,300.98 301.39,301.13 301.24,301.32 C301.24,301.32 301.30,301.26 301.30,301.26" fill="none" stroke="rgb(255, 165, 0)" stroke-width="4.18" stroke-opacity="1.00" stroke-linejoin="round"/>
<path d="M303.25,318.61 C303.25,318.61 301.62,318.91 301.62,318.91 C301.62,318.91 301.13,321.50 301.13,321.50 C302.56,321.17 303.33,318.69 303.24,318.16 C302.11,317.70 301.22,319.16 301.36,319.97 C301.36,319.97 303.41,318.66 303.41,318.66 C303.41,318.66 302.36,319.99 302.36,319.99 C302.36,319.99 303.01,319.79 303.01,319.79" fill="none" stroke="rgb(255, 165, 0)" stroke-width="4.18" stroke-opacity="1.00" stroke-linejoin="round"/>
</g>
</svg>
