<?xml version="1.0" encoding="UTF-8" standalone="no"?>
<!DOCTYPE svg PUBLIC "-//W3C//DTD SVG 1.1//EN" "http://www.w3.org/Graphics/SVG/1.1/DTD/svg11.dtd">
<svg width="128.40" height="181.68" viewBox="0.00 0.00 535.00 757.00" xmlns="http://www.w3.org/2000/svg" xmlns:xlink="http://www.w3.org/1999/xlink">
<g stroke-linecap="round" transform="translate(44.00, 155.00)" id="41-비">
<path d="M37.39,-87.71 C37.39,-87.71 36.89,-89.78 36.89,-89.78 C35.99,-88.59 35.60,-87.80 35.53,-86.61 C35.35,-83.09 34.89,-65.88 35.05,-60.85 C35.31,-53.32 36.85,-37.11 38.47,-32.90 C39.35,-30.63 40.38,-28.99 40.77,-29.05" fill="none" stroke="rgb(0, 0, 255)" stroke-width="4.18" stroke-opacity="1.00" stroke-linejoin="round"/>
<path d="M30.57,-34.52 C30.57,-34.52 29.86,-35.92 29.86,-35.92 C29.82,-34.19 32.05,2.39 33.15,17.50 C34.41,31.61 38.30,63.50 40.32,74.76 C44.01,92.96 50.86,118.97 55.03,134.36 C59.71,150.45 65.87,169.42 67.14,173.28 C67.14,173.28 65.97,169.42 65.97,169.42" fill="none" stroke="rgb(0, 0, 255)" stroke-width="4.18" stroke-opacity="1.00" stroke-linejoin="round"/>
<path d="M2.13,72.97 C2.13,72.97 2.56,73.21 2.56,73.21 C1.04,81.47 0.18,94.62 -0.17,102.31 C-1.03,132.56 -1.25,163.15 -1.25,164.15 C-1.47,163.11 -2.08,160.25 -2.15,159.62 C-2.20,159.21 -2.23,158.47 -2.25,157.41" fill="none" stroke="rgb(0, 0, 255)" stroke-width="4.18" stroke-opacity="1.00" stroke-linejoin="round"/>
<path d="M72.48,40.88 C72.48,40.88 72.40,38.58 72.40,38.58 C72.36,41.57 70.73,60.19 70.56,63.69 C70.37,67.88 70.39,85.13 71.62,89.54 C71.62,89.54 72.40,88.97 72.40,88.97" fill="none" stroke="rgb(0, 0, 255)" stroke-width="4.18" stroke-opacity="1.00" stroke-linejoin="round"/>
<path d="M112.33,-17.83 C112.64,-19.63 112.91,-21.59 112.84,-22.47 C112.81,-22.88 112.68,-23.68 112.45,-24.88 C111.36,-10.74 109.51,18.44 108.74,33.48 C108.33,48.94 108.36,78.99 108.72,93.40 C109.46,108.42 111.16,140.10 112.12,156.76 C112.46,163.14 112.97,173.27 113.05,179.36 C113.05,179.36 112.83,178.22 112.83,178.22" fill="none" stroke="rgb(0, 0, 255)" stroke-width="4.18" stroke-opacity="1.00" stroke-linejoin="round"/>
<path d="M126.49,-107.34 C126.23,-107.14 125.41,-105.90 125.07,-104.93 C124.99,-104.69 122.18,-69.12 121.56,-61.94 C121.32,-58.69 121.26,-54.34 121.60,-52.72" fill="none" stroke="rgb(0, 0, 255)" stroke-width="4.18" stroke-opacity="1.00" stroke-linejoin="round"/>
<path d="M157.11,16.55 C157.11,16.55 156.83,14.86 156.83,14.86 C156.78,14.85 156.78,16.12 156.78,17.18 C156.73,20.89 155.81,41.89 155.85,46.53 C156.05,56.42 156.63,65.89 157.91,74.83 C158.47,78.59 160.02,84.49 161.35,86.52 C161.35,86.52 161.33,85.29 161.33,85.29" fill="none" stroke="rgb(0, 0, 255)" stroke-width="4.18" stroke-opacity="1.00" stroke-linejoin="round"/>
<path d="M196.38,-72.02 C196.38,-72.02 196.32,-74.40 196.32,-74.40 C195.34,-73.35 192.03,-58.28 191.29,-53.03 C190.33,-46.09 190.50,-30.33 191.33,-24.74 C191.71,-22.24 193.00,-19.35 193.53,-18.26" fill="none" stroke="rgb(0, 0, 255)" stroke-width="4.18" stroke-opacity="1.00" stroke-linejoin="round"/>
<path d="M238.05,-23.77 C238.05,-23.77 237.31,-26.59 237.31,-26.59 C237.31,-26.59 236.04,-26.55 236.04,-26.55 C234.41,-23.73 228.49,-6.89 226.73,-0.56 C224.51,7.69 222.17,20.26 220.88,27.42 C219.28,36.83 219.17,43.00 219.47,43.73" fill="none" stroke="rgb(0, 0, 255)" stroke-width="4.18" stroke-opacity="1.00" stroke-linejoin="round"/>
<path d="M250.21,61.34 C250.21,61.34 250.03,59.66 250.03,59.66 C249.81,62.44 249.30,68.38 249.01,71.54 C248.31,79.86 248.23,89.42 248.58,91.19" fill="none" stroke="rgb(0, 0, 255)" stroke-width="4.18" stroke-opacity="1.00" stroke-linejoin="round"/>
<path d="M300.76,-58.03 C300.76,-58.03 300.35,-61.51 300.35,-61.51 C299.00,-61.97 298.27,-61.87 297.69,-60.93 C296.08,-58.31 292.53,-45.54 290.87,-37.76 C289.58,-31.26 287.11,-16.86 285.94,-9.55 C282.88,13.04 284.08,16.29 284.49,16.77 C284.49,16.77 284.85,16.31 284.85,16.31" fill="none" stroke="rgb(0, 0, 255)" stroke-width="4.18" stroke-opacity="1.00" stroke-linejoin="round"/>
<path d="M338.08,-32.93 C338.08,-32.93 338.16,-36.92 338.16,-36.92 C333.95,-21.44 328.74,5.23 326.80,19.64 C325.94,26.97 324.70,41.43 324.30,48.63 C323.78,64.05 325.47,85.86 326.70,90.92 C327.22,92.98 329.15,97.39 330.35,97.79 C330.35,97.79 330.86,97.04 330.86,97.04" fill="none" stroke="rgb(0, 0, 255)" stroke-width="4.18" stroke-opacity="1.00" stroke-linejoin="round"/>
<path d="M376.22,-47.28 C376.22,-47.28 376.22,-48.60 376.22,-48.60 C374.92,-45.59 368.97,-29.37 366.09,-21.44 C360.95,-6.20 354.62,12.65 353.44,16.26 C352.98,17.68 352.32,19.66 352.13,20.24" fill="none" stroke="rgb(0, 0, 255)" stroke-width="4.18" stroke-opacity="1.00" stroke-linejoin="round"/>
<path d="M379.22,23.43 C379.22,23.43 380.62,17.92 380.62,17.92 C378.33,25.41 373.36,42.05 371.99,47.54 C367.20,67.72 368.01,71.23 368.26,71.37 C368.26,71.37 368.97,69.97 368.97,69.97" fill="none" stroke="rgb(0, 0, 255)" stroke-width="4.18" stroke-opacity="1.00" stroke-linejoin="round"/>
<path d="M423.77,-61.50 C423.77,-61.50 422.32,-65.99 422.32,-65.99 C421.97,-43.57 422.68,-28.40 423.12,-20.10 C423.35,-16.36 424.20,-12.39 424.58,-11.12" fill="none" stroke="rgb(0, 0, 255)" stroke-width="4.18" stroke-opacity="1.00" stroke-linejoin="round"/>
<path d="M481.84,1.92 C481.83,0.96 481.89,0.21 482.01,-0.31 C482.35,-1.83 483.30,-3.92 483.40,-3.68 C481.65,3.93 473.48,41.61 469.90,57.79 C468.16,65.32 467.24,67.14 466.65,68.04 C466.65,68.04 465.81,65.30 465.81,65.30" fill="none" stroke="rgb(0, 0, 255)" stroke-width="4.18" stroke-opacity="1.00" stroke-linejoin="round"/>
<path d="M424.83,60.69 C424.83,60.69 426.46,55.00 426.46,55.00 C426.92,58.09 422.21,111.07 421.93,116.43 C421.76,120.55 421.77,121.46 421.86,123.30 C421.86,123.30 421.85,123.18 421.85,123.18" fill="none" stroke="rgb(0, 0, 255)" stroke-width="4.18" stroke-opacity="1.00" stroke-linejoin="round"/>
<path d="M405.67,161.54 C405.89,160.81 406.12,160.08 406.34,159.35 C406.67,158.28 406.86,157.62 406.90,157.38 C406.95,157.09 406.96,156.59 406.94,155.88 C404.50,162.70 396.08,200.64 393.29,215.30 C391.93,222.94 389.71,235.37 389.26,236.85 C389.26,236.85 388.81,237.11 388.81,237.11 C388.81,237.11 388.43,236.53 388.43,236.53" fill="none" stroke="rgb(0, 0, 255)" stroke-width="4.18" stroke-opacity="1.00" stroke-linejoin="round"/>
<path d="M351.07,195.98 C351.07,195.98 349.28,194.38 349.28,194.38 C349.28,194.36 346.57,211.47 345.35,218.98 C344.62,224.11 344.54,225.45 344.46,228.48 C344.46,228.48 344.56,228.51 344.56,228.51 C344.56,228.51 344.60,227.79 344.60,227.79" fill="none" stroke="rgb(0, 0, 255)" stroke-width="4.18" stroke-opacity="1.00" stroke-linejoin="round"/>
<path d="M452.86,224.31 C452.93,223.45 453.01,222.74 453.13,222.18 C453.25,221.62 453.55,220.43 454.05,218.62 C452.68,221.91 448.27,239.47 447.37,243.83 C446.01,250.79 443.57,268.52 443.19,273.02 C441.94,289.27 442.65,306.57 444.14,316.30 C445.12,322.27 445.45,323.56 446.29,326.24" fill="none" stroke="rgb(0, 0, 255)" stroke-width="4.18" stroke-opacity="1.00" stroke-linejoin="round"/>
<path d="M190.62,197.51 C190.58,196.76 190.55,196.24 190.51,195.95 C190.48,195.66 190.41,195.20 190.29,194.56 C190.20,197.00 188.02,219.76 187.90,222.77 C187.87,223.66 188.12,231.22 188.90,234.07 C188.90,234.07 189.76,234.41 189.76,234.41 C189.76,234.41 190.26,233.83 190.26,233.83" fill="none" stroke="rgb(0, 0, 255)" stroke-width="4.18" stroke-opacity="1.00" stroke-linejoin="round"/>
<path d="M206.84,239.53 C206.84,239.53 205.99,239.08 205.99,239.08 C205.90,239.17 206.26,257.29 206.42,265.79 C206.64,274.31 207.06,287.38 207.96,291.81 C208.10,291.86 208.27,291.19 208.26,291.01 C208.25,290.88 208.22,290.76 208.16,290.64" fill="none" stroke="rgb(0, 0, 255)" stroke-width="4.18" stroke-opacity="1.00" stroke-linejoin="round"/>
<path d="M225.00,275.03 C225.00,275.03 224.40,275.04 224.40,275.04 C223.56,277.48 223.33,278.76 223.43,280.95 C223.55,284.87 223.86,292.82 224.04,296.85 C224.23,300.81 224.62,304.98 224.77,306.08" fill="none" stroke="rgb(0, 0, 255)" stroke-width="4.18" stroke-opacity="1.00" stroke-linejoin="round"/>
<path d="M201.49,334.51 C201.49,334.51 200.66,329.18 200.66,329.18 C202.36,331.80 203.73,337.57 204.51,341.84 C205.99,350.22 209.01,368.17 209.71,373.55 C210.16,376.95 210.77,381.58 210.94,382.82" fill="none" stroke="rgb(0, 0, 255)" stroke-width="4.18" stroke-opacity="1.00" stroke-linejoin="round"/>
<path d="M135.54,226.25 C135.54,226.25 134.35,222.84 134.35,222.84 C134.43,224.13 139.33,242.16 140.37,246.82 C144.62,266.10 152.19,327.19 153.12,332.06 C153.48,333.91 153.77,334.86 154.34,336.21" fill="none" stroke="rgb(0, 0, 255)" stroke-width="4.18" stroke-opacity="1.00" stroke-linejoin="round"/>
<path d="M59.43,223.66 C59.43,223.66 59.05,221.11 59.05,221.11 C58.40,221.53 56.85,234.55 56.25,245.57 C55.93,253.91 55.45,270.18 55.47,278.55 C55.85,293.02 59.40,330.50 60.76,337.50 C61.39,340.79 61.68,342.53 61.83,343.54 C61.85,343.54 61.80,343.49 61.70,343.37 C61.09,342.71 60.71,342.12 60.55,341.60 C60.39,341.07 60.20,339.84 60.00,337.91" fill="none" stroke="rgb(0, 0, 255)" stroke-width="4.18" stroke-opacity="1.00" stroke-linejoin="round"/>
<path d="M61.90,374.53 C61.90,374.53 60.03,372.76 60.03,372.76 C59.26,375.27 59.46,382.26 59.58,386.37 C60.48,405.99 62.13,416.02 62.47,417.55" fill="none" stroke="rgb(0, 0, 255)" stroke-width="4.18" stroke-opacity="1.00" stroke-linejoin="round"/>
</g>
</svg>
