<?xml version="1.0" encoding="UTF-8" standalone="no"?>
<!DOCTYPE svg PUBLIC "-//W3C//DTD SVG 1.1//EN" "http://www.w3.org/Graphics/SVG/1.1/DTD/svg11.dtd">
<svg width="128.40" height="181.68" viewBox="0.00 0.00 535.00 757.00" xmlns="http://www.w3.org/2000/svg" xmlns:xlink="http://www.w3.org/1999/xlink">
<g stroke-linecap="round" transform="translate(44.00, 155.00)" id="42-사람">
<path d="M155.75,185.92 C155.78,185.84 155.82,185.78 155.85,185.75 C155.87,185.72 155.94,185.68 156.04,185.63 C156.04,185.63 155.99,185.72 155.99,185.72 C154.68,186.17 153.23,186.20 152.14,185.68 C151.85,185.54 147.22,180.20 146.46,178.45 C145.60,176.38 146.26,168.04 147.60,165.11 C149.00,162.21 153.27,158.32 155.52,157.59 C158.19,156.81 165.27,155.68 168.37,156.55 C170.18,157.19 175.95,159.04 177.44,159.92 C179.11,160.96 181.20,166.16 181.41,168.85 C181.47,169.65 181.68,178.25 180.48,180.31 C179.19,182.42 174.76,185.61 171.06,187.56 C169.88,188.17 165.97,188.34 163.72,189.01 C163.72,189.01 164.86,188.83 164.86,188.83" fill="none" stroke="rgb(255, 165, 0)" stroke-width="2.79" stroke-opacity="1.00" stroke-linejoin="round"/>
<path d="M161.33,190.63 C161.44,190.13 161.52,189.82 161.58,189.70 C161.69,189.45 162.13,189.21 162.59,189.01 C162.59,189.01 162.60,193.15 162.60,193.15 C162.60,193.15 162.71,192.20 162.71,192.20" fill="none" stroke="rgb(255, 165, 0)" stroke-width="2.79" stroke-opacity="1.00" stroke-linejoin="round"/>
<path d="M154.23,188.55 C154.23,188.55 155.41,186.68 155.41,186.68 C155.41,186.68 155.78,192.12 155.78,192.12 C155.78,192.12 155.82,191.86 155.82,191.86" fill="none" stroke="rgb(255, 165, 0)" stroke-width="2.79" stroke-opacity="1.00" stroke-linejoin="round"/>
<path d="M154.55,192.98 C154.61,192.82 154.64,192.73 154.76,192.58 C154.92,192.36 155.09,192.15 155.25,191.94 C152.95,193.08 147.36,196.53 146.36,197.58 C146.22,197.72 140.95,204.15 140.24,205.12 C138.30,207.80 136.01,211.86 134.58,215.89 C132.74,221.13 131.67,225.27 131.16,228.98 C129.98,238.44 130.26,248.92 130.02,250.11 C129.76,251.25 127.55,252.81 126.49,254.32 C125.81,255.29 125.04,256.77 124.93,257.15 C124.93,257.15 129.66,255.78 129.66,255.78 C129.66,255.78 128.38,259.79 128.38,259.79 C128.38,259.79 129.06,260.58 129.06,260.58 C129.06,260.58 129.24,264.27 129.24,264.27 C129.47,264.47 131.39,264.44 132.79,265.40 C133.27,265.73 134.18,265.75 134.79,265.44 C135.37,265.14 139.08,262.32 139.29,261.37 C139.32,261.22 139.35,260.90 139.39,260.42 C139.11,259.83 137.14,258.99 136.90,257.34 C136.67,255.50 139.74,240.22 140.33,233.91 C141.85,217.88 146.60,210.05 146.74,209.81 C146.74,209.81 145.60,208.80 145.60,208.80" fill="none" stroke="rgb(255, 165, 0)" stroke-width="2.79" stroke-opacity="1.00" stroke-linejoin="round"/>
<path d="M163.68,195.41 C163.47,194.77 163.53,194.05 163.55,193.80 C163.56,193.70 163.46,193.50 163.42,193.40 C163.13,193.52 162.54,193.95 162.11,194.43 C161.69,194.93 162.00,195.62 163.22,197.08 C165.12,199.28 169.42,202.47 170.40,203.67 C171.92,205.61 172.43,208.36 172.73,213.09 C173.92,235.98 174.13,246.82 175.46,250.12 C175.68,250.23 177.64,250.67 177.91,251.83 C178.21,253.28 177.09,255.90 175.84,256.21 C173.44,256.79 169.14,256.12 169.26,256.15 C168.92,254.71 169.60,248.15 169.45,244.92 C168.11,216.77 167.93,211.72 167.75,207.46 C167.75,207.46 167.74,208.01 167.74,208.01" fill="none" stroke="rgb(255, 165, 0)" stroke-width="2.79" stroke-opacity="1.00" stroke-linejoin="round"/>
<path d="M168.14,253.81 C168.14,253.81 167.67,254.14 167.67,254.14 C167.69,253.93 167.71,253.77 167.73,253.66 C167.74,253.55 167.78,253.34 167.85,253.03 C167.85,253.03 167.81,252.96 167.81,252.96 C167.72,256.11 165.97,285.67 163.97,306.79 C163.40,312.59 163.00,316.14 163.18,316.28 C163.25,316.54 165.77,317.35 166.76,317.80 C169.36,319.01 174.22,324.58 174.06,324.80 C173.69,325.92 160.77,324.84 159.15,325.45 C159.15,325.45 159.16,325.03 159.16,325.03" fill="none" stroke="rgb(255, 165, 0)" stroke-width="2.79" stroke-opacity="1.00" stroke-linejoin="round"/>
<path d="M151.08,267.12 C151.08,267.12 151.46,266.38 151.46,266.38 C151.46,266.38 151.37,266.62 151.37,266.62 C151.37,266.62 151.18,266.70 151.18,266.70 C151.18,266.70 150.91,265.94 150.91,265.94 C151.43,265.52 152.06,265.39 152.38,266.01 C152.80,266.86 158.89,301.62 159.60,316.35 C159.78,320.40 158.84,324.15 158.74,324.91 C158.70,325.18 158.69,325.57 158.72,326.08 C158.72,326.08 158.46,324.99 158.46,324.99" fill="none" stroke="rgb(255, 165, 0)" stroke-width="2.79" stroke-opacity="1.00" stroke-linejoin="round"/>
<path d="M151.28,267.28 C151.28,267.28 151.12,267.10 151.12,267.10 C151.12,267.10 152.15,266.09 152.15,266.09 C152.17,266.15 151.98,266.30 151.42,266.68 C150.42,267.45 149.22,270.96 148.70,275.16 C146.80,290.03 140.68,315.83 141.04,323.63 C141.69,323.63 143.86,323.19 145.26,324.04 C146.91,325.05 149.06,326.76 150.02,327.73 C150.02,327.73 149.60,326.72 149.60,326.72" fill="none" stroke="rgb(255, 165, 0)" stroke-width="2.79" stroke-opacity="1.00" stroke-linejoin="round"/>
<path d="M134.86,268.16 C135.02,267.26 135.12,266.71 135.16,266.52 C135.21,266.33 135.25,266.24 135.29,266.23 C135.34,266.55 135.32,267.56 135.20,269.88 C134.83,276.09 135.39,326.54 135.48,326.87 C135.75,327.83 136.65,328.36 138.38,328.71 C141.10,329.18 144.06,329.13 146.20,328.80 C147.22,328.64 149.97,327.42 150.32,328.06 C150.32,328.06 149.68,328.43 149.68,328.43" fill="none" stroke="rgb(255, 165, 0)" stroke-width="2.79" stroke-opacity="1.00" stroke-linejoin="round"/>
<path d="M144.04,169.67 C144.04,169.67 143.96,169.59 143.96,169.59 C143.96,169.59 143.99,169.43 143.99,169.43 C143.99,169.43 144.17,169.38 144.17,169.38 C144.17,169.38 143.82,169.89 143.82,169.89 C143.58,169.82 141.96,168.55 140.98,169.04 C139.45,169.92 138.88,175.41 139.64,177.46 C140.29,179.06 143.05,182.17 144.64,181.98 C145.27,181.90 146.14,181.09 146.93,180.12 C146.93,180.12 146.50,180.51 146.50,180.51" fill="none" stroke="rgb(255, 165, 0)" stroke-width="2.79" stroke-opacity="1.00" stroke-linejoin="round"/>
<path d="M145.41,174.26 C145.41,174.26 145.13,174.05 145.13,174.05 C145.13,174.05 145.00,173.43 145.00,173.43 C145.00,173.43 143.68,173.38 143.68,173.38 C143.07,173.69 142.99,177.36 144.22,178.28 C144.34,178.37 144.52,178.43 144.76,178.48 C144.76,178.48 145.80,177.52 145.80,177.52 C145.80,177.52 145.50,177.10 145.50,177.10 C145.50,177.10 145.22,177.45 145.22,177.45" fill="none" stroke="rgb(255, 165, 0)" stroke-width="2.79" stroke-opacity="1.00" stroke-linejoin="round"/>
<path d="M182.19,176.86 C182.19,176.86 181.00,176.34 181.00,176.34 C181.00,176.34 184.57,175.88 184.57,175.88 C185.21,176.59 186.01,181.17 185.50,182.70 C184.92,184.31 182.41,186.06 179.88,186.53 C177.89,186.86 176.72,185.54 176.76,184.95 C176.76,184.95 176.85,184.91 176.85,184.91 C176.85,184.91 176.90,184.95 176.90,184.95" fill="none" stroke="rgb(255, 165, 0)" stroke-width="2.79" stroke-opacity="1.00" stroke-linejoin="round"/>
<path d="M182.48,179.02 C182.48,179.02 182.11,178.13 182.11,178.13 C183.19,178.19 183.78,179.91 183.47,180.60 C182.67,182.22 179.97,183.32 179.49,183.23 C179.49,183.23 179.46,183.18 179.46,183.18 C179.46,183.18 179.51,183.11 179.51,183.11" fill="none" stroke="rgb(255, 165, 0)" stroke-width="2.79" stroke-opacity="1.00" stroke-linejoin="round"/>
<path d="M158.71,171.06 C158.11,170.90 156.66,170.86 155.84,171.07 C154.96,171.32 154.15,172.89 154.56,173.93 C155.07,175.15 157.73,177.42 158.70,177.18 C159.47,176.93 160.60,175.15 160.57,174.28 C160.53,173.46 159.58,172.11 158.77,171.72 C157.70,171.22 156.04,171.28 155.41,171.83 C154.66,172.55 154.43,174.81 155.10,175.88 C155.75,176.84 157.81,177.64 158.79,177.33 C159.73,177.01 160.86,175.20 160.90,174.12 C160.91,173.14 160.08,171.41 159.35,171.15 C158.63,170.92 156.88,171.54 156.32,172.35 C155.67,173.33 156.01,175.54 156.95,176.31 C158.01,177.12 161.07,176.64 161.98,175.53 C162.83,174.41 162.45,171.70 161.52,170.82 C160.57,169.99 158.21,169.76 157.26,170.57 C156.30,171.44 155.81,174.32 156.53,175.32 C157.21,176.20 159.62,176.30 160.64,175.51 C161.51,174.80 162.29,172.55 161.96,171.63 C161.55,170.58 158.86,169.66 157.43,170.09 C155.93,170.59 154.69,173.21 155.27,174.68 C155.83,175.97 158.11,177.10 159.39,176.77 C160.59,176.41 162.40,174.62 162.54,173.71 C162.67,172.67 160.80,171.15 159.30,170.97 C157.71,170.82 155.50,172.62 155.19,174.04 C154.93,175.43 156.05,177.48 157.23,177.64 C158.32,177.75 160.28,176.52 160.60,175.57 C160.99,174.27 159.73,172.10 158.60,171.68 C157.49,171.31 156.03,172.16 155.98,172.70 C155.97,172.80 155.99,173.03 156.03,173.38" fill="none" stroke="rgb(255, 165, 0)" stroke-width="2.79" stroke-opacity="1.00" stroke-linejoin="round"/>
<path d="M173.67,172.27 C173.61,172.18 173.56,172.10 173.52,172.03 C173.24,171.51 173.15,171.36 172.87,171.05 C171.30,171.84 170.40,172.75 170.10,173.98 C169.87,174.98 170.63,176.54 171.66,176.86 C172.61,177.13 174.61,176.74 175.07,176.20 C175.48,175.67 175.23,174.16 174.71,173.58 C174.05,172.90 171.80,172.69 170.91,173.28 C169.89,174.01 169.24,176.55 169.94,177.52 C170.69,178.48 173.56,178.57 174.81,177.79 C175.87,177.09 176.62,175.07 176.06,174.14 C175.31,172.99 173.12,172.38 172.46,172.80 C171.40,173.54 170.54,176.24 171.00,177.64 C171.19,178.16 172.72,178.96 173.87,178.38 C174.88,177.85 176.37,175.46 176.40,174.37 C176.40,173.33 174.82,171.43 173.93,171.40 C171.95,171.42 171.67,175.78 172.37,176.86 C173.42,177.38 175.43,176.62 176.12,175.56 C176.74,174.54 176.34,172.53 175.41,172.18 C174.25,171.80 171.41,173.33 170.80,174.71 C170.30,175.95 171.58,177.56 172.85,177.38 C174.11,177.15 175.61,175.34 175.42,174.14 C175.26,173.29 174.10,172.35 173.62,172.14 C173.62,172.14 173.31,172.23 173.31,172.23" fill="none" stroke="rgb(255, 165, 0)" stroke-width="2.79" stroke-opacity="1.00" stroke-linejoin="round"/>
<path d="M160.61,182.30 C160.45,182.37 160.33,182.42 160.26,182.44 C160.19,182.47 160.06,182.51 159.88,182.57 C159.88,182.57 159.77,182.32 159.77,182.32 C159.97,182.08 161.76,182.92 162.75,183.44 C164.50,184.10 167.46,184.17 169.14,184.13 C169.14,184.13 169.03,184.14 169.03,184.14" fill="none" stroke="rgb(255, 165, 0)" stroke-width="2.79" stroke-opacity="1.00" stroke-linejoin="round"/>
</g>
</svg>
