<?xml version="1.0" encoding="UTF-8" standalone="no"?>
<!DOCTYPE svg PUBLIC "-//W3C//DTD SVG 1.1//EN" "http://www.w3.org/Graphics/SVG/1.1/DTD/svg11.dtd">
<svg width="128.40" height="181.68" viewBox="0.00 0.00 535.00 757.00" xmlns="http://www.w3.org/2000/svg" xmlns:xlink="http://www.w3.org/1999/xlink">
<g stroke-linecap="round" transform="translate(44.00, 155.00)" id="42-비">
<path d="M58.82,148.84 C58.82,148.84 58.76,148.80 58.76,148.80 C58.76,148.80 58.94,148.68 58.94,148.68 C58.94,148.68 59.08,148.72 59.08,148.72 C59.06,149.14 56.24,154.36 55.96,154.94 C54.79,157.35 54.70,158.73 54.80,159.11 C54.80,159.11 55.22,159.26 55.22,159.26" fill="none" stroke="rgb(0, 0, 255)" stroke-width="2.79" stroke-opacity="1.00" stroke-linejoin="round"/>
<path d="M64.34,158.41 C64.34,158.41 64.65,158.11 64.65,158.11 C64.42,158.26 63.62,159.36 62.25,161.39 C60.07,164.74 58.73,167.19 58.78,167.87 C58.78,167.87 59.21,167.50 59.21,167.50" fill="none" stroke="rgb(0, 0, 255)" stroke-width="2.79" stroke-opacity="1.00" stroke-linejoin="round"/>
<path d="M74.29,140.40 C74.29,140.40 74.41,140.11 74.41,140.11 C74.13,141.13 71.91,146.41 71.02,149.14 C70.51,150.72 70.30,151.74 70.25,152.69" fill="none" stroke="rgb(0, 0, 255)" stroke-width="2.79" stroke-opacity="1.00" stroke-linejoin="round"/>
<path d="M103.85,121.66 C103.85,121.66 103.83,121.47 103.83,121.47 C103.26,122.31 102.48,123.67 101.57,125.46 C99.78,128.99 97.21,135.02 96.66,136.59 C96.21,137.87 95.68,139.66 95.43,140.62" fill="none" stroke="rgb(0, 0, 255)" stroke-width="2.79" stroke-opacity="1.00" stroke-linejoin="round"/>
<path d="M85.52,150.00 C85.52,150.00 83.89,150.14 83.89,150.14 C83.43,150.79 83.00,151.60 82.17,153.47 C80.87,156.44 80.21,160.18 80.32,160.16" fill="none" stroke="rgb(0, 0, 255)" stroke-width="2.79" stroke-opacity="1.00" stroke-linejoin="round"/>
<path d="M93.87,147.69 C93.87,147.69 93.79,147.42 93.79,147.42 C93.32,148.72 92.31,151.47 91.78,152.92 C89.53,159.02 89.16,160.10 88.74,161.45" fill="none" stroke="rgb(0, 0, 255)" stroke-width="2.79" stroke-opacity="1.00" stroke-linejoin="round"/>
<path d="M50.76,166.60 C50.76,166.60 49.55,165.85 49.55,165.85 C48.87,166.16 47.19,169.02 46.19,171.26 C45.38,173.07 44.37,175.79 43.79,177.62" fill="none" stroke="rgb(0, 0, 255)" stroke-width="2.79" stroke-opacity="1.00" stroke-linejoin="round"/>
<path d="M71.56,173.79 C71.56,173.79 71.03,173.56 71.03,173.56 C70.72,173.79 69.62,175.24 68.50,177.00 C67.25,178.97 66.42,180.67 66.11,181.74 C66.11,181.74 66.17,181.92 66.17,181.92 C66.28,181.81 66.36,181.73 66.40,181.67 C66.44,181.61 66.51,181.49 66.61,181.31" fill="none" stroke="rgb(0, 0, 255)" stroke-width="2.79" stroke-opacity="1.00" stroke-linejoin="round"/>
<path d="M77.21,171.57 C77.21,171.57 76.61,171.14 76.61,171.14 C76.49,171.01 72.34,179.41 71.88,180.49 C70.97,182.65 70.27,184.88 70.17,185.68 C70.17,185.68 70.42,185.56 70.42,185.56 C70.42,185.56 70.49,185.40 70.49,185.40" fill="none" stroke="rgb(0, 0, 255)" stroke-width="2.79" stroke-opacity="1.00" stroke-linejoin="round"/>
<path d="M80.19,178.60 C80.19,178.60 80.51,178.13 80.51,178.13 C80.21,178.90 79.49,180.75 79.07,181.83 C78.09,184.47 77.17,187.67 76.94,188.49" fill="none" stroke="rgb(0, 0, 255)" stroke-width="2.79" stroke-opacity="1.00" stroke-linejoin="round"/>
<path d="M59.91,188.26 C59.91,188.26 58.27,187.95 58.27,187.95 C58.27,187.95 40.30,218.07 40.30,218.07 C40.30,218.07 41.57,216.73 41.57,216.73" fill="none" stroke="rgb(0, 0, 255)" stroke-width="2.79" stroke-opacity="1.00" stroke-linejoin="round"/>
<path d="M31.63,219.11 C31.72,218.90 31.84,218.67 31.96,218.42 C32.80,216.75 33.29,215.97 33.50,215.92 C33.50,215.92 23.54,232.72 23.54,232.72 C23.54,232.72 24.76,232.46 24.76,232.46" fill="none" stroke="rgb(0, 0, 255)" stroke-width="2.79" stroke-opacity="1.00" stroke-linejoin="round"/>
<path d="M49.70,216.83 C49.70,216.83 51.13,214.43 51.13,214.43 C50.88,215.32 47.78,221.21 47.45,221.91 C46.56,223.77 45.85,225.55 45.99,225.45 C45.99,225.45 46.52,224.71 46.52,224.71" fill="none" stroke="rgb(0, 0, 255)" stroke-width="2.79" stroke-opacity="1.00" stroke-linejoin="round"/>
<path d="M70.53,194.39 C70.53,194.39 70.30,194.24 70.30,194.24 C70.30,194.24 69.78,194.31 69.78,194.31 C68.95,195.33 67.13,198.50 66.78,199.26 C66.56,199.74 66.09,200.85 65.39,202.56" fill="none" stroke="rgb(0, 0, 255)" stroke-width="2.79" stroke-opacity="1.00" stroke-linejoin="round"/>
<path d="M69.06,209.13 C69.06,209.13 68.93,208.59 68.93,208.59 C68.62,208.74 65.25,216.15 65.08,216.50 C64.93,216.82 64.80,217.07 64.68,217.26" fill="none" stroke="rgb(0, 0, 255)" stroke-width="2.79" stroke-opacity="1.00" stroke-linejoin="round"/>
<path d="M91.40,168.52 C91.40,168.52 91.29,167.34 91.29,167.34 C91.29,167.34 80.32,196.96 80.32,196.96 C80.32,196.96 81.34,195.45 81.34,195.45" fill="none" stroke="rgb(0, 0, 255)" stroke-width="2.79" stroke-opacity="1.00" stroke-linejoin="round"/>
<path d="M105.75,151.51 C105.75,151.51 104.34,151.08 104.34,151.08 C103.35,151.93 100.38,157.52 99.84,159.13 C99.31,160.75 99.01,162.68 99.19,162.64 C99.46,162.57 99.64,162.46 99.87,162.22 C99.97,162.12 100.06,162.03 100.15,161.93" fill="none" stroke="rgb(0, 0, 255)" stroke-width="2.79" stroke-opacity="1.00" stroke-linejoin="round"/>
<path d="M113.74,152.41 C113.74,152.41 113.43,151.06 113.43,151.06 C113.43,151.06 105.35,168.22 105.35,168.22 C105.35,168.22 105.64,167.62 105.64,167.62" fill="none" stroke="rgb(0, 0, 255)" stroke-width="2.79" stroke-opacity="1.00" stroke-linejoin="round"/>
<path d="M129.95,117.64 C130.04,117.38 130.12,117.20 130.19,117.11 C130.25,117.03 130.39,116.91 130.60,116.76 C130.60,116.76 130.76,116.85 130.76,116.85 C130.64,117.25 129.28,120.00 126.28,126.40 C124.58,130.07 121.69,136.21 120.52,138.68 C120.52,138.68 121.67,136.98 121.67,136.98" fill="none" stroke="rgb(0, 0, 255)" stroke-width="2.79" stroke-opacity="1.00" stroke-linejoin="round"/>
<path d="M141.38,104.64 C140.04,104.79 138.88,105.70 137.33,108.17 C132.64,115.70 132.33,116.64 132.39,116.85 C132.39,116.85 133.26,116.21 133.26,116.21" fill="none" stroke="rgb(0, 0, 255)" stroke-width="2.79" stroke-opacity="1.00" stroke-linejoin="round"/>
<path d="M148.99,101.85 C148.99,101.85 148.95,101.06 148.95,101.06 C148.85,101.09 147.22,103.99 145.80,106.34 C142.26,112.14 140.34,115.66 140.41,116.11 C140.41,116.11 140.99,116.04 140.99,116.04" fill="none" stroke="rgb(0, 0, 255)" stroke-width="2.79" stroke-opacity="1.00" stroke-linejoin="round"/>
<path d="M157.11,100.66 C157.19,100.34 157.27,100.08 157.36,99.90 C157.45,99.72 157.67,99.35 158.01,98.79 C155.58,102.89 152.82,107.78 151.08,111.23 C149.46,114.46 148.99,115.69 148.90,116.18 C148.90,116.18 149.50,115.37 149.50,115.37" fill="none" stroke="rgb(0, 0, 255)" stroke-width="2.79" stroke-opacity="1.00" stroke-linejoin="round"/>
<path d="M169.43,89.56 C169.43,89.56 168.63,89.51 168.63,89.51 C168.63,89.51 156.35,110.51 156.35,110.51 C156.35,110.51 156.32,109.30 156.32,109.30" fill="none" stroke="rgb(0, 0, 255)" stroke-width="2.79" stroke-opacity="1.00" stroke-linejoin="round"/>
<path d="M140.48,132.18 C140.44,131.75 140.40,131.10 140.42,130.75 C140.44,130.32 140.52,129.26 140.42,129.22 C137.99,129.51 128.80,149.79 128.81,150.12 C128.81,150.12 129.50,148.74 129.50,148.74" fill="none" stroke="rgb(0, 0, 255)" stroke-width="2.79" stroke-opacity="1.00" stroke-linejoin="round"/>
<path d="M156.40,116.49 C156.40,116.49 156.45,116.43 156.45,116.43 C156.45,116.43 156.44,116.38 156.44,116.38 C155.98,117.06 153.97,121.17 152.55,123.84 C149.25,129.85 145.28,137.07 144.62,138.27 C144.62,138.27 146.05,137.68 146.05,137.68" fill="none" stroke="rgb(0, 0, 255)" stroke-width="2.79" stroke-opacity="1.00" stroke-linejoin="round"/>
<path d="M168.57,114.92 C168.57,114.92 167.76,114.07 167.76,114.07 C167.76,114.07 159.36,131.85 159.36,131.85 C159.36,131.85 159.78,130.87 159.78,130.87" fill="none" stroke="rgb(0, 0, 255)" stroke-width="2.79" stroke-opacity="1.00" stroke-linejoin="round"/>
<path d="M185.16,104.80 C185.16,104.80 183.52,104.38 183.52,104.38 C180.26,107.10 166.45,131.96 166.14,134.00 C166.14,134.00 167.40,132.50 167.40,132.50" fill="none" stroke="rgb(0, 0, 255)" stroke-width="2.79" stroke-opacity="1.00" stroke-linejoin="round"/>
<path d="M191.74,104.96 C191.74,104.96 191.18,104.71 191.18,104.71 C190.19,106.34 187.06,112.41 185.24,115.95 C183.52,119.37 180.97,124.53 180.05,126.92 C180.05,126.92 180.33,126.87 180.33,126.87 C180.33,126.87 180.61,126.45 180.61,126.45" fill="none" stroke="rgb(0, 0, 255)" stroke-width="2.79" stroke-opacity="1.00" stroke-linejoin="round"/>
<path d="M197.65,104.71 C197.65,104.71 196.49,104.92 196.49,104.92 C195.91,105.62 188.90,123.49 187.83,124.65 C187.74,124.73 187.61,124.81 187.44,124.89 C187.44,124.89 187.27,124.73 187.27,124.73 C187.35,124.42 187.41,124.21 187.44,124.11 C187.47,124.01 187.53,123.89 187.62,123.74" fill="none" stroke="rgb(0, 0, 255)" stroke-width="2.79" stroke-opacity="1.00" stroke-linejoin="round"/>
<path d="M211.23,99.73 C210.60,99.75 210.13,100.32 208.96,102.62 C196.95,125.73 186.96,151.30 186.86,152.11 C186.86,152.11 187.77,150.62 187.77,150.62" fill="none" stroke="rgb(0, 0, 255)" stroke-width="2.79" stroke-opacity="1.00" stroke-linejoin="round"/>
<path d="M184.07,135.56 C184.07,135.56 183.31,135.28 183.31,135.28 C182.90,135.64 180.73,139.75 179.31,142.44 C178.04,144.92 175.55,149.86 174.56,151.99 C174.08,153.03 173.91,153.50 173.97,153.48 C173.97,153.48 174.10,153.23 174.10,153.23" fill="none" stroke="rgb(0, 0, 255)" stroke-width="2.79" stroke-opacity="1.00" stroke-linejoin="round"/>
<path d="M168.18,143.90 C168.18,143.90 167.48,142.83 167.48,142.83 C166.82,143.41 164.15,148.77 162.80,151.48 C161.19,154.80 159.02,159.31 158.46,160.49 C158.46,160.49 158.78,160.01 158.78,160.01" fill="none" stroke="rgb(0, 0, 255)" stroke-width="2.79" stroke-opacity="1.00" stroke-linejoin="round"/>
<path d="M158.87,143.97 C158.87,143.97 158.21,143.31 158.21,143.31 C158.21,143.31 149.15,158.47 149.15,158.47 C149.15,158.47 149.24,157.93 149.24,157.93" fill="none" stroke="rgb(0, 0, 255)" stroke-width="2.79" stroke-opacity="1.00" stroke-linejoin="round"/>
<path d="M144.43,153.72 C144.43,153.72 144.39,153.35 144.39,153.35 C142.69,156.06 139.44,161.26 138.03,163.96 C136.69,166.53 136.47,167.39 136.56,167.43 C136.56,167.43 137.26,166.21 137.26,166.21" fill="none" stroke="rgb(0, 0, 255)" stroke-width="2.79" stroke-opacity="1.00" stroke-linejoin="round"/>
<path d="M123.98,153.63 C123.29,153.40 122.71,153.61 122.21,154.48 C122.08,154.72 117.22,164.37 116.93,165.02 C116.73,165.49 116.40,166.37 115.94,167.66 C115.94,167.66 116.40,167.39 116.40,167.39" fill="none" stroke="rgb(0, 0, 255)" stroke-width="2.79" stroke-opacity="1.00" stroke-linejoin="round"/>
<path d="M123.98,166.18 C123.98,166.18 123.01,165.80 123.01,165.80 C123.01,165.80 115.64,180.56 115.64,180.56 C115.64,180.56 116.12,180.29 116.12,180.29" fill="none" stroke="rgb(0, 0, 255)" stroke-width="2.79" stroke-opacity="1.00" stroke-linejoin="round"/>
<path d="M105.52,175.52 C105.52,175.52 105.13,175.07 105.13,175.07 C104.94,174.58 98.05,187.45 95.53,193.33 C93.65,197.85 93.27,199.07 92.75,201.10 C92.75,201.10 93.75,200.01 93.75,200.01" fill="none" stroke="rgb(0, 0, 255)" stroke-width="2.79" stroke-opacity="1.00" stroke-linejoin="round"/>
<path d="M123.02,180.98 C123.70,179.96 124.12,179.31 124.27,179.01 C124.53,178.49 124.54,177.81 124.49,177.79 C124.49,177.79 108.49,210.16 108.49,210.16 C108.49,210.16 108.77,209.69 108.77,209.69" fill="none" stroke="rgb(0, 0, 255)" stroke-width="2.79" stroke-opacity="1.00" stroke-linejoin="round"/>
<path d="M103.44,199.08 C103.44,199.08 103.56,199.04 103.56,199.04 C103.56,199.04 103.66,199.22 103.66,199.22 C102.44,201.97 100.48,205.81 98.99,208.70 C95.86,214.64 92.42,221.21 92.10,221.82 C92.10,221.82 92.14,221.94 92.14,221.94 C92.14,221.94 92.56,221.28 92.56,221.28" fill="none" stroke="rgb(0, 0, 255)" stroke-width="2.79" stroke-opacity="1.00" stroke-linejoin="round"/>
<path d="M88.54,209.61 C88.54,209.61 88.06,209.43 88.06,209.43 C88.00,209.53 86.39,214.09 84.14,219.26 C83.49,220.71 80.87,226.24 78.85,229.95 C78.85,229.95 78.79,229.91 78.79,229.91 C78.79,229.91 79.02,229.26 79.02,229.26" fill="none" stroke="rgb(0, 0, 255)" stroke-width="2.79" stroke-opacity="1.00" stroke-linejoin="round"/>
<path d="M82.86,202.16 C83.01,201.89 83.12,201.71 83.17,201.61 C83.21,201.52 83.28,201.39 83.35,201.22 C82.99,201.92 82.76,202.49 82.18,204.20 C81.29,206.82 78.55,213.90 77.31,217.11 C77.10,217.67 76.88,218.24 76.67,218.81" fill="none" stroke="rgb(0, 0, 255)" stroke-width="2.79" stroke-opacity="1.00" stroke-linejoin="round"/>
<path d="M65.49,235.22 C65.43,235.03 65.49,234.63 65.77,233.93 C66.07,233.20 66.83,231.38 66.78,231.19 C65.75,231.91 63.16,236.14 61.93,238.87 C61.64,239.53 60.68,241.78 60.38,242.49 C60.38,242.49 60.43,241.84 60.43,241.84" fill="none" stroke="rgb(0, 0, 255)" stroke-width="2.79" stroke-opacity="1.00" stroke-linejoin="round"/>
<path d="M54.45,241.90 C55.01,241.36 55.40,240.98 55.61,240.77 C56.12,240.27 56.52,239.85 56.82,239.52 C56.97,239.35 57.16,239.12 57.40,238.81 C56.69,239.25 52.87,243.32 51.22,245.41 C50.33,246.55 49.88,247.24 49.90,247.40 C49.90,247.40 50.15,247.19 50.15,247.19" fill="none" stroke="rgb(0, 0, 255)" stroke-width="2.79" stroke-opacity="1.00" stroke-linejoin="round"/>
<path d="M52.43,257.86 C52.40,257.66 52.40,257.51 52.44,257.41 C52.47,257.31 52.58,257.13 52.76,256.86 C52.87,257.24 51.29,260.26 49.13,263.57 C47.26,266.32 44.96,269.71 43.81,271.53 C43.81,271.53 43.92,271.49 43.92,271.49 C43.92,271.49 44.19,271.07 44.19,271.07" fill="none" stroke="rgb(0, 0, 255)" stroke-width="2.79" stroke-opacity="1.00" stroke-linejoin="round"/>
<path d="M30.15,278.01 C30.15,277.65 30.15,277.31 30.18,277.01 C30.20,276.71 30.26,276.03 30.36,274.97 C29.15,275.42 27.16,279.14 25.79,282.66 C24.88,285.03 24.09,287.19 23.59,288.72 C23.18,290.01 22.90,291.06 22.67,292.15 C22.67,292.15 22.76,292.08 22.76,292.08" fill="none" stroke="rgb(0, 0, 255)" stroke-width="2.79" stroke-opacity="1.00" stroke-linejoin="round"/>
<path d="M39.43,286.20 C39.43,286.20 40.80,283.74 40.80,283.74 C39.91,285.47 36.16,291.82 33.99,295.50 C31.69,299.34 30.03,301.92 29.83,302.12 C29.76,302.19 29.66,302.22 29.54,302.22 C29.54,302.22 29.52,302.14 29.52,302.14" fill="none" stroke="rgb(0, 0, 255)" stroke-width="2.79" stroke-opacity="1.00" stroke-linejoin="round"/>
<path d="M27.39,319.81 C27.38,319.76 27.35,319.72 27.30,319.69 C27.26,319.66 27.12,319.60 26.91,319.51 C26.91,319.43 24.38,324.78 23.81,326.03 C21.99,330.03 21.35,332.50 20.88,334.97 C20.88,334.97 21.09,335.26 21.09,335.26 C21.09,335.26 21.75,334.48 21.75,334.48" fill="none" stroke="rgb(0, 0, 255)" stroke-width="2.79" stroke-opacity="1.00" stroke-linejoin="round"/>
<path d="M74.93,258.34 C74.93,258.34 73.70,258.53 73.70,258.53 C73.70,258.53 66.49,279.61 66.49,279.61 C66.49,279.61 66.62,280.00 66.62,280.00" fill="none" stroke="rgb(0, 0, 255)" stroke-width="2.79" stroke-opacity="1.00" stroke-linejoin="round"/>
<path d="M61.26,290.08 C61.26,290.08 61.07,290.08 61.07,290.08 C61.39,289.92 59.76,293.53 56.72,299.33 C53.72,305.05 53.40,305.85 53.18,306.91 C53.18,306.91 54.73,305.30 54.73,305.30" fill="none" stroke="rgb(0, 0, 255)" stroke-width="2.79" stroke-opacity="1.00" stroke-linejoin="round"/>
<path d="M75.44,283.31 C75.44,283.31 74.97,283.28 74.97,283.28 C74.90,283.32 69.01,295.96 67.40,299.74 C66.56,301.70 65.77,303.78 64.83,306.41 C64.83,306.41 64.96,305.68 64.96,305.68" fill="none" stroke="rgb(0, 0, 255)" stroke-width="2.79" stroke-opacity="1.00" stroke-linejoin="round"/>
<path d="M97.72,221.97 C97.72,221.97 97.50,221.63 97.50,221.63 C97.38,221.66 97.15,221.90 96.80,222.45 C93.90,227.09 90.11,234.68 88.97,237.05 C88.97,237.05 89.52,236.28 89.52,236.28" fill="none" stroke="rgb(0, 0, 255)" stroke-width="2.79" stroke-opacity="1.00" stroke-linejoin="round"/>
<path d="M93.77,237.79 C93.78,237.61 93.78,237.44 93.79,237.29 C93.80,236.93 93.81,236.58 93.83,236.22 C93.49,236.46 89.38,243.36 88.21,245.58 C86.71,248.44 86.49,249.50 86.62,249.77 C86.62,249.77 87.42,248.86 87.42,248.86" fill="none" stroke="rgb(0, 0, 255)" stroke-width="2.79" stroke-opacity="1.00" stroke-linejoin="round"/>
<path d="M95.67,245.72 C95.67,245.72 95.22,245.28 95.22,245.28 C95.01,245.47 86.32,263.91 85.42,266.26 C84.74,268.19 84.44,268.65 84.37,268.60" fill="none" stroke="rgb(0, 0, 255)" stroke-width="2.79" stroke-opacity="1.00" stroke-linejoin="round"/>
<path d="M85.75,280.55 C85.75,280.55 85.68,279.34 85.68,279.34 C83.76,279.57 81.21,286.16 81.13,286.79 C81.13,286.79 82.12,286.79 82.12,286.79" fill="none" stroke="rgb(0, 0, 255)" stroke-width="2.79" stroke-opacity="1.00" stroke-linejoin="round"/>
<path d="M104.94,267.39 C104.94,267.39 103.40,267.64 103.40,267.64 C102.48,268.41 94.04,283.84 90.23,291.66 C85.59,301.50 82.19,310.53 81.90,312.06 C81.90,312.06 82.04,312.29 82.04,312.29 C82.04,312.29 82.14,312.28 82.14,312.28" fill="none" stroke="rgb(0, 0, 255)" stroke-width="2.79" stroke-opacity="1.00" stroke-linejoin="round"/>
<path d="M90.79,312.14 C90.81,311.81 90.83,311.58 90.84,311.46 C90.84,311.33 90.85,311.13 90.85,310.86 C89.99,312.10 87.28,316.63 85.58,319.72 C84.55,321.62 83.88,323.04 83.16,324.86 C83.44,324.52 83.61,324.30 83.67,324.22 C83.74,324.13 83.78,324.05 83.80,323.98" fill="none" stroke="rgb(0, 0, 255)" stroke-width="2.79" stroke-opacity="1.00" stroke-linejoin="round"/>
<path d="M112.26,268.32 C112.26,268.32 111.47,267.97 111.47,267.97 C111.47,267.97 102.92,291.98 102.92,291.98 C102.92,291.98 103.24,291.64 103.24,291.64" fill="none" stroke="rgb(0, 0, 255)" stroke-width="2.79" stroke-opacity="1.00" stroke-linejoin="round"/>
<path d="M112.20,289.57 C112.20,289.57 111.19,289.07 111.19,289.07 C111.19,289.07 104.52,306.25 104.52,306.25 C104.82,305.92 105.00,305.72 105.05,305.65 C105.11,305.58 105.13,305.54 105.10,305.54" fill="none" stroke="rgb(0, 0, 255)" stroke-width="2.79" stroke-opacity="1.00" stroke-linejoin="round"/>
<path d="M126.71,272.65 C126.71,272.65 126.75,272.09 126.75,272.09 C126.80,271.96 123.43,278.56 121.98,281.45 C117.65,290.27 113.09,300.52 113.03,302.07 C113.03,302.07 113.80,301.57 113.80,301.57" fill="none" stroke="rgb(0, 0, 255)" stroke-width="2.79" stroke-opacity="1.00" stroke-linejoin="round"/>
<path d="M131.49,288.74 C131.49,288.74 131.33,287.18 131.33,287.18 C129.92,288.10 126.12,294.40 123.90,298.07 C118.71,306.80 116.90,311.07 116.82,311.62 C116.82,311.62 117.77,310.79 117.77,310.79" fill="none" stroke="rgb(0, 0, 255)" stroke-width="2.79" stroke-opacity="1.00" stroke-linejoin="round"/>
<path d="M114.09,313.74 C114.09,313.74 112.90,313.17 112.90,313.17 C112.33,313.78 110.22,318.67 109.43,320.78 C108.54,323.15 108.02,325.02 108.06,325.12" fill="none" stroke="rgb(0, 0, 255)" stroke-width="2.79" stroke-opacity="1.00" stroke-linejoin="round"/>
<path d="M116.21,206.88 C116.14,206.60 115.98,206.07 116.00,205.92 C116.03,205.69 116.32,204.96 116.41,204.76 C115.99,204.52 114.33,206.85 112.79,209.63 C107.61,219.07 106.20,221.93 105.90,222.65 C106.31,222.36 106.57,222.19 106.65,222.13 C106.73,222.07 106.77,222.03 106.75,222.02" fill="none" stroke="rgb(0, 0, 255)" stroke-width="2.79" stroke-opacity="1.00" stroke-linejoin="round"/>
<path d="M119.61,217.99 C119.62,217.86 119.62,217.78 119.61,217.73 C119.61,217.68 119.59,217.59 119.57,217.48 C116.84,222.26 114.63,226.33 113.99,227.83 C113.90,228.04 113.74,228.45 113.50,229.06 C113.50,229.06 114.30,227.80 114.30,227.80" fill="none" stroke="rgb(0, 0, 255)" stroke-width="2.79" stroke-opacity="1.00" stroke-linejoin="round"/>
<path d="M137.17,189.58 C137.17,189.58 136.97,188.85 136.97,188.85 C136.79,188.87 133.55,194.20 130.00,203.52 C129.30,205.34 128.81,206.85 128.45,208.11 C128.45,208.11 128.67,207.35 128.67,207.35" fill="none" stroke="rgb(0, 0, 255)" stroke-width="2.79" stroke-opacity="1.00" stroke-linejoin="round"/>
<path d="M143.14,190.86 C143.14,190.86 142.91,189.77 142.91,189.77 C141.66,191.74 138.65,197.68 137.22,200.79 C136.42,202.54 135.88,203.87 135.35,205.34 C135.35,205.34 135.50,205.16 135.50,205.16" fill="none" stroke="rgb(0, 0, 255)" stroke-width="2.79" stroke-opacity="1.00" stroke-linejoin="round"/>
<path d="M119.77,238.24 C120.01,237.70 120.17,237.43 120.81,236.47 C121.56,235.36 121.88,235.01 122.27,234.83 C121.75,236.03 115.38,247.16 113.02,253.00 C111.83,255.99 111.27,258.81 111.41,258.93 C111.41,258.93 112.18,258.23 112.18,258.23" fill="none" stroke="rgb(0, 0, 255)" stroke-width="2.79" stroke-opacity="1.00" stroke-linejoin="round"/>
<path d="M129.02,236.51 C128.91,236.38 128.82,236.27 128.75,236.17 C128.69,236.07 128.54,235.85 128.32,235.50 C127.73,235.70 126.23,237.76 124.14,241.58 C122.93,243.81 114.97,260.82 114.44,262.19 C114.44,262.19 115.17,261.00 115.17,261.00" fill="none" stroke="rgb(0, 0, 255)" stroke-width="2.79" stroke-opacity="1.00" stroke-linejoin="round"/>
<path d="M224.71,101.63 C224.68,101.49 224.69,101.28 224.85,101.05 C225.23,100.55 225.78,100.05 225.94,100.02 C225.97,100.59 217.41,118.48 216.13,121.64 C214.90,124.71 212.67,130.30 211.81,133.55 C211.75,133.79 211.68,134.04 211.62,134.28" fill="none" stroke="rgb(0, 0, 255)" stroke-width="2.79" stroke-opacity="1.00" stroke-linejoin="round"/>
<path d="M207.83,144.29 C207.72,144.25 207.64,144.23 207.57,144.23 C207.51,144.22 207.36,144.23 207.15,144.23 C204.25,150.02 198.89,161.08 195.80,168.04 C192.35,175.93 186.27,189.88 186.16,190.62 C186.16,190.62 187.56,189.07 187.56,189.07" fill="none" stroke="rgb(0, 0, 255)" stroke-width="2.79" stroke-opacity="1.00" stroke-linejoin="round"/>
<path d="M217.36,153.43 C217.54,153.00 217.68,152.70 217.76,152.52 C217.93,152.21 218.11,151.90 218.28,151.58 C218.34,151.46 218.41,151.29 218.48,151.07 C214.95,154.41 206.11,170.97 205.93,171.77 C205.93,171.77 206.67,170.06 206.67,170.06" fill="none" stroke="rgb(0, 0, 255)" stroke-width="2.79" stroke-opacity="1.00" stroke-linejoin="round"/>
<path d="M234.86,132.54 C234.86,132.54 234.73,131.29 234.73,131.29 C234.73,131.29 213.79,170.26 213.79,170.26 C213.79,170.26 214.91,168.82 214.91,168.82" fill="none" stroke="rgb(0, 0, 255)" stroke-width="2.79" stroke-opacity="1.00" stroke-linejoin="round"/>
<path d="M268.56,111.26 C268.56,111.26 268.55,110.43 268.55,110.43 C266.40,112.70 262.41,117.55 261.35,118.92 C257.64,123.77 256.46,125.76 255.86,127.15 C255.86,127.15 256.34,126.84 256.34,126.84" fill="none" stroke="rgb(0, 0, 255)" stroke-width="2.79" stroke-opacity="1.00" stroke-linejoin="round"/>
<path d="M251.84,133.02 C251.84,133.02 251.77,130.65 251.77,130.65 C251.77,130.65 242.78,144.74 242.78,144.74 C242.78,144.74 243.52,143.92 243.52,143.92" fill="none" stroke="rgb(0, 0, 255)" stroke-width="2.79" stroke-opacity="1.00" stroke-linejoin="round"/>
<path d="M240.60,147.08 C239.32,146.90 237.79,147.44 235.77,151.21 C231.51,159.39 227.88,167.63 227.04,171.11 C226.85,171.88 226.91,172.52 227.01,172.65 C227.06,172.54 227.10,172.45 227.11,172.37 C227.13,172.30 227.14,172.13 227.16,171.87" fill="none" stroke="rgb(0, 0, 255)" stroke-width="2.79" stroke-opacity="1.00" stroke-linejoin="round"/>
<path d="M258.64,143.58 C258.64,143.58 257.87,143.43 257.87,143.43 C257.87,143.43 247.79,160.87 247.79,160.87 C247.79,160.87 248.59,159.71 248.59,159.71" fill="none" stroke="rgb(0, 0, 255)" stroke-width="2.79" stroke-opacity="1.00" stroke-linejoin="round"/>
<path d="M285.12,115.46 C285.12,115.46 285.26,112.66 285.26,112.66 C284.53,113.22 275.69,126.92 274.40,129.81 C274.27,130.11 274.04,130.71 273.72,131.61 C273.72,131.61 274.58,130.63 274.58,130.63" fill="none" stroke="rgb(0, 0, 255)" stroke-width="2.79" stroke-opacity="1.00" stroke-linejoin="round"/>
<path d="M297.03,119.25 C297.03,119.25 296.88,118.59 296.88,118.59 C295.45,118.70 293.75,121.49 290.65,126.96 C286.55,134.39 281.88,143.39 280.73,145.65 C280.73,145.65 281.18,143.82 281.18,143.82" fill="none" stroke="rgb(0, 0, 255)" stroke-width="2.79" stroke-opacity="1.00" stroke-linejoin="round"/>
<path d="M260.15,166.27 C260.15,166.27 259.83,164.58 259.83,164.58 C259.83,164.58 248.72,185.70 248.72,185.70 C248.72,185.70 248.85,184.43 248.85,184.43" fill="none" stroke="rgb(0, 0, 255)" stroke-width="2.79" stroke-opacity="1.00" stroke-linejoin="round"/>
<path d="M287.98,164.54 C287.98,164.54 287.92,163.90 287.92,163.90 C287.92,163.90 287.74,163.74 287.74,163.74 C284.37,164.37 275.85,180.70 274.99,182.50 C274.99,182.50 275.38,182.07 275.38,182.07" fill="none" stroke="rgb(0, 0, 255)" stroke-width="2.79" stroke-opacity="1.00" stroke-linejoin="round"/>
<path d="M325.76,152.99 C325.76,152.99 325.31,151.11 325.31,151.11 C323.05,152.65 312.90,169.79 311.66,172.97 C311.66,172.97 311.96,172.01 311.96,172.01" fill="none" stroke="rgb(0, 0, 255)" stroke-width="2.79" stroke-opacity="1.00" stroke-linejoin="round"/>
<path d="M289.20,182.42 C289.20,182.42 288.49,181.75 288.49,181.75 C287.82,181.86 285.84,184.68 283.88,187.95 C280.88,192.96 277.88,199.42 277.74,199.65 C277.74,199.65 277.81,199.30 277.81,199.30" fill="none" stroke="rgb(0, 0, 255)" stroke-width="2.79" stroke-opacity="1.00" stroke-linejoin="round"/>
<path d="M315.27,180.14 C315.27,180.14 315.24,178.64 315.24,178.64 C314.64,178.89 308.78,188.79 305.53,194.83 C303.05,199.99 300.43,205.41 300.16,205.75 C300.16,205.75 300.07,205.34 300.07,205.34" fill="none" stroke="rgb(0, 0, 255)" stroke-width="2.79" stroke-opacity="1.00" stroke-linejoin="round"/>
<path d="M320.37,190.80 C320.37,190.80 318.71,189.95 318.71,189.95 C318.71,189.95 303.06,220.26 303.06,220.26 C303.06,220.26 303.69,219.56 303.69,219.56" fill="none" stroke="rgb(0, 0, 255)" stroke-width="2.79" stroke-opacity="1.00" stroke-linejoin="round"/>
<path d="M349.68,182.65 C349.68,182.65 349.03,180.99 349.03,180.99 C347.64,182.37 339.17,196.37 338.37,198.62 C338.27,198.90 338.15,199.39 338.02,200.08 C338.07,200.04 338.11,200.00 338.14,199.97 C338.16,199.95 338.20,199.90 338.26,199.82" fill="none" stroke="rgb(0, 0, 255)" stroke-width="2.79" stroke-opacity="1.00" stroke-linejoin="round"/>
<path d="M360.27,185.53 C360.27,185.53 360.22,183.94 360.22,183.94 C360.09,183.89 355.65,187.43 344.40,204.43 C342.80,206.86 339.37,212.63 338.93,213.83 C338.93,213.83 339.07,213.40 339.07,213.40" fill="none" stroke="rgb(0, 0, 255)" stroke-width="2.79" stroke-opacity="1.00" stroke-linejoin="round"/>
<path d="M198.52,191.86 C198.57,191.22 198.62,190.79 198.65,190.57 C198.71,190.17 198.82,189.78 198.89,189.39 C199.01,188.81 199.00,188.39 198.92,188.29 C198.92,188.29 178.20,223.55 178.20,223.55 C178.20,223.55 179.26,221.71 179.26,221.71" fill="none" stroke="rgb(0, 0, 255)" stroke-width="2.79" stroke-opacity="1.00" stroke-linejoin="round"/>
<path d="M201.89,207.46 C201.89,207.46 201.20,207.39 201.20,207.39 C200.37,208.46 188.20,229.83 188.02,230.15 C187.85,230.46 187.54,231.03 187.11,231.85 C187.29,231.52 187.39,231.33 187.41,231.29 C187.50,231.11 187.59,230.90 187.68,230.66 C188.22,229.12 188.74,227.98 189.81,225.97" fill="none" stroke="rgb(0, 0, 255)" stroke-width="2.79" stroke-opacity="1.00" stroke-linejoin="round"/>
<path d="M217.91,194.01 C217.91,194.01 217.82,193.03 217.82,193.03 C217.82,193.03 198.50,230.01 198.50,230.01 C198.50,230.01 198.54,228.53 198.54,228.53" fill="none" stroke="rgb(0, 0, 255)" stroke-width="2.79" stroke-opacity="1.00" stroke-linejoin="round"/>
<path d="M240.28,181.43 C240.28,181.43 239.81,178.19 239.81,178.19 C239.16,178.61 226.43,208.33 225.53,210.92 C225.11,212.14 225.18,212.43 225.19,212.58 C225.19,212.58 225.57,212.39 225.57,212.39" fill="none" stroke="rgb(0, 0, 255)" stroke-width="2.79" stroke-opacity="1.00" stroke-linejoin="round"/>
<path d="M251.42,201.36 C251.42,201.36 251.26,200.03 251.26,200.03 C251.26,200.03 240.16,222.46 240.16,222.46 C240.16,222.46 240.96,221.31 240.96,221.31" fill="none" stroke="rgb(0, 0, 255)" stroke-width="2.79" stroke-opacity="1.00" stroke-linejoin="round"/>
<path d="M269.40,199.79 C269.40,199.79 269.08,199.22 269.08,199.22 C268.65,199.29 265.47,204.33 264.51,205.63 C263.76,206.65 262.11,208.65 261.04,209.89" fill="none" stroke="rgb(0, 0, 255)" stroke-width="2.79" stroke-opacity="1.00" stroke-linejoin="round"/>
<path d="M259.03,211.92 C259.03,211.92 258.33,210.92 258.33,210.92 C258.33,210.92 245.72,238.75 245.72,238.75 C245.72,238.75 245.82,238.83 245.82,238.83 C245.82,238.83 246.00,238.49 246.00,238.49" fill="none" stroke="rgb(0, 0, 255)" stroke-width="2.79" stroke-opacity="1.00" stroke-linejoin="round"/>
<path d="M289.52,206.82 C289.52,206.82 287.59,205.91 287.59,205.91 C284.33,207.04 275.77,228.89 275.84,229.29 C275.84,229.29 276.20,228.53 276.20,228.53" fill="none" stroke="rgb(0, 0, 255)" stroke-width="2.79" stroke-opacity="1.00" stroke-linejoin="round"/>
<path d="M269.01,231.15 C269.01,231.15 268.09,231.04 268.09,231.04 C265.29,232.84 257.53,250.72 257.67,252.53 C257.67,252.53 257.98,251.52 257.98,251.52" fill="none" stroke="rgb(0, 0, 255)" stroke-width="2.79" stroke-opacity="1.00" stroke-linejoin="round"/>
<path d="M291.10,233.97 C291.14,233.25 291.24,231.79 291.21,231.63 C291.19,231.53 291.11,231.38 290.99,231.19 C290.10,231.55 282.63,242.98 278.49,250.53 C277.16,253.02 274.84,258.02 274.16,258.76 C274.16,258.76 274.02,258.72 274.02,258.72 C274.02,258.72 273.99,258.47 273.99,258.47" fill="none" stroke="rgb(0, 0, 255)" stroke-width="2.79" stroke-opacity="1.00" stroke-linejoin="round"/>
<path d="M262.37,257.12 C262.37,257.12 262.25,256.93 262.25,256.93 C262.06,256.87 261.10,257.35 256.76,265.53 C255.38,268.22 253.33,273.32 253.08,274.89 C253.08,274.89 253.31,275.28 253.31,275.28 C253.31,275.28 253.95,274.49 253.95,274.49" fill="none" stroke="rgb(0, 0, 255)" stroke-width="2.79" stroke-opacity="1.00" stroke-linejoin="round"/>
<path d="M265.61,272.59 C265.61,272.59 265.20,271.86 265.20,271.86 C263.09,274.31 256.61,290.61 255.71,294.19 C255.65,294.42 255.61,294.68 255.57,294.99 C255.57,294.99 255.66,294.24 255.66,294.24" fill="none" stroke="rgb(0, 0, 255)" stroke-width="2.79" stroke-opacity="1.00" stroke-linejoin="round"/>
<path d="M204.78,234.06 C204.78,234.06 206.17,233.05 206.17,233.05 C206.17,233.05 196.98,248.46 196.98,248.46 C196.98,248.46 197.04,248.48 197.04,248.48 C197.04,248.46 197.04,248.46 197.04,248.45 C197.03,248.43 197.03,248.41 197.02,248.38 C196.83,247.55 197.30,245.60 197.72,244.66" fill="none" stroke="rgb(0, 0, 255)" stroke-width="2.79" stroke-opacity="1.00" stroke-linejoin="round"/>
<path d="M184.04,268.90 C184.04,268.90 183.65,268.81 183.65,268.81 C183.65,268.81 171.18,296.41 171.18,296.41 C171.18,296.41 173.21,292.51 173.21,292.51" fill="none" stroke="rgb(0, 0, 255)" stroke-width="2.79" stroke-opacity="1.00" stroke-linejoin="round"/>
<path d="M204.01,254.07 C204.01,254.07 203.11,253.43 203.11,253.43 C202.85,253.61 191.17,279.04 188.70,284.96 C188.45,285.49 187.90,285.86 187.03,286.29 C187.03,286.29 186.68,286.23 186.68,286.23 C186.68,286.23 186.59,285.99 186.59,285.99" fill="none" stroke="rgb(0, 0, 255)" stroke-width="2.79" stroke-opacity="1.00" stroke-linejoin="round"/>
<path d="M178.65,301.58 C178.65,301.58 178.89,300.71 178.89,300.71 C178.89,300.71 169.17,320.32 169.17,320.32 C169.17,320.32 169.98,319.21 169.98,319.21" fill="none" stroke="rgb(0, 0, 255)" stroke-width="2.79" stroke-opacity="1.00" stroke-linejoin="round"/>
<path d="M197.68,290.02 C197.68,290.02 197.43,289.84 197.43,289.84 C197.48,290.13 195.88,294.37 193.39,299.99 C191.74,303.66 188.95,309.89 187.65,312.91 C187.65,312.91 188.28,311.42 188.28,311.42" fill="none" stroke="rgb(0, 0, 255)" stroke-width="2.79" stroke-opacity="1.00" stroke-linejoin="round"/>
<path d="M224.65,230.19 C224.47,230.26 223.72,231.64 222.81,233.62 C222.08,235.21 212.70,257.90 212.51,258.25 C212.36,258.54 212.20,258.72 212.04,258.79 C212.04,258.79 211.84,258.38 211.84,258.38" fill="none" stroke="rgb(0, 0, 255)" stroke-width="2.79" stroke-opacity="1.00" stroke-linejoin="round"/>
<path d="M209.24,268.74 C209.24,268.74 208.68,268.61 208.68,268.61 C208.68,268.61 208.66,268.15 208.66,268.15 C208.03,269.48 206.02,274.94 205.27,277.44 C204.87,278.80 204.70,279.59 204.67,280.07" fill="none" stroke="rgb(0, 0, 255)" stroke-width="2.79" stroke-opacity="1.00" stroke-linejoin="round"/>
<path d="M227.86,252.62 C227.08,252.63 225.78,253.27 224.77,255.31 C224.55,255.76 214.74,278.05 214.14,279.31 C214.08,279.44 213.98,279.63 213.86,279.86 C213.86,279.86 214.23,278.97 214.23,278.97" fill="none" stroke="rgb(0, 0, 255)" stroke-width="2.79" stroke-opacity="1.00" stroke-linejoin="round"/>
<path d="M236.52,254.48 C236.52,254.48 236.37,254.26 236.37,254.26 C235.81,254.49 220.90,290.13 219.28,294.27 C219.23,294.41 219.18,294.53 219.14,294.63 C219.14,294.63 219.25,294.41 219.25,294.41" fill="none" stroke="rgb(0, 0, 255)" stroke-width="2.79" stroke-opacity="1.00" stroke-linejoin="round"/>
<path d="M215.92,293.39 C215.92,293.39 215.07,292.50 215.07,292.50 C214.86,292.61 212.91,296.96 211.70,299.66 C210.44,302.36 209.58,303.79 208.66,305.22" fill="none" stroke="rgb(0, 0, 255)" stroke-width="2.79" stroke-opacity="1.00" stroke-linejoin="round"/>
<path d="M224.55,305.65 C224.55,305.65 224.16,305.49 224.16,305.49 C223.70,306.55 220.55,312.58 218.95,316.04 C217.49,319.21 217.34,320.01 217.41,320.11 C217.41,320.11 217.82,319.49 217.82,319.49" fill="none" stroke="rgb(0, 0, 255)" stroke-width="2.79" stroke-opacity="1.00" stroke-linejoin="round"/>
<path d="M242.53,298.14 C241.84,298.16 240.86,298.90 239.83,300.65 C235.94,307.36 233.74,314.13 233.54,316.19 C233.54,316.19 233.95,316.02 233.95,316.02" fill="none" stroke="rgb(0, 0, 255)" stroke-width="2.79" stroke-opacity="1.00" stroke-linejoin="round"/>
</g>
</svg>
