<?xml version="1.0" encoding="UTF-8" standalone="no"?>
<!DOCTYPE svg PUBLIC "-//W3C//DTD SVG 1.1//EN" "http://www.w3.org/Graphics/SVG/1.1/DTD/svg11.dtd">
<svg width="128.40" height="181.68" viewBox="0.00 0.00 535.00 757.00" xmlns="http://www.w3.org/2000/svg" xmlns:xlink="http://www.w3.org/1999/xlink">
<g stroke-linecap="round" transform="translate(44.00, 155.00)" id="44-우산">
<path d="M220.12,138.02 C220.12,138.02 218.95,136.19 218.95,136.19" fill="none" stroke="rgb(255, 0, 0)" stroke-width="3.19" stroke-opacity="1.00" stroke-linejoin="round"/>
<path d="M216.40,136.56 C215.72,136.46 214.96,136.56 213.93,136.96 C213.45,137.15 212.22,137.64 211.73,137.77 C211.70,137.63 213.46,135.18 220.68,133.93 C228.33,132.75 242.73,130.52 249.48,129.46 C261.55,127.85 282.12,128.90 290.63,129.82 C296.19,130.53 301.68,131.75 304.12,133.00 C306.05,134.01 307.34,134.81 307.38,135.11 C307.40,135.42 307.45,136.23 307.30,136.57" fill="none" stroke="rgb(255, 0, 0)" stroke-width="3.19" stroke-opacity="1.00" stroke-linejoin="round"/>
<path d="M242.75,156.27 C242.75,156.27 242.22,155.51 242.22,155.51 C242.22,155.51 242.46,154.80 242.46,154.80 C248.33,151.97 303.79,138.07 309.37,136.14 C309.37,136.14 308.56,136.55 308.56,136.55" fill="none" stroke="rgb(255, 0, 0)" stroke-width="3.19" stroke-opacity="1.00" stroke-linejoin="round"/>
<path d="M308.32,141.32 C308.49,141.02 308.64,140.78 308.77,140.61 C309.22,140.03 309.83,139.24 309.94,138.99 C308.25,142.57 285.91,179.28 283.11,186.19 C282.94,186.61 282.71,187.29 282.41,188.22 C282.41,188.22 283.33,186.62 283.33,186.62" fill="none" stroke="rgb(255, 0, 0)" stroke-width="3.19" stroke-opacity="1.00" stroke-linejoin="round"/>
<path d="M309.36,153.27 C309.36,153.27 309.38,153.49 309.38,153.49 C309.38,153.49 310.26,154.22 310.26,154.22" fill="none" stroke="rgb(255, 0, 0)" stroke-width="3.19" stroke-opacity="1.00" stroke-linejoin="round"/>
<path d="M309.74,143.12 C309.89,142.37 309.99,141.87 310.04,141.64 C310.22,140.82 310.39,140.40 310.51,140.36 C312.41,139.74 314.25,175.07 315.00,188.51 C315.22,194.73 315.29,211.52 315.57,211.76 C315.57,211.76 315.83,210.73 315.83,210.73" fill="none" stroke="rgb(255, 0, 0)" stroke-width="3.19" stroke-opacity="1.00" stroke-linejoin="round"/>
<path d="M308.90,141.15 C308.90,141.15 310.18,139.60 310.18,139.60 C311.70,140.27 313.24,143.35 314.89,147.65 C317.43,154.39 321.77,169.44 323.88,176.98 C326.69,187.10 328.45,197.24 328.52,203.71 C328.87,209.46 329.23,215.87 329.23,217.90 C329.23,217.90 329.17,216.99 329.17,216.99" fill="none" stroke="rgb(255, 0, 0)" stroke-width="3.19" stroke-opacity="1.00" stroke-linejoin="round"/>
<path d="M214.40,138.02 C214.35,137.86 214.31,137.74 214.29,137.66 C214.27,137.58 214.24,137.45 214.20,137.25 C214.20,137.25 213.90,137.09 213.90,137.09 C213.90,137.09 211.50,137.93 211.50,137.93 C212.72,137.76 216.33,137.98 218.53,138.87 C223.18,140.81 231.92,147.89 235.30,151.69 C236.70,153.27 239.14,156.58 239.91,157.52 C239.91,157.52 240.93,156.76 240.93,156.76 C241.88,156.86 259.93,162.90 260.32,163.10 C260.59,163.24 268.09,167.56 270.57,168.83 C273.09,170.15 276.30,173.15 277.72,175.32 C279.82,178.59 282.08,187.16 282.08,187.15 C282.08,187.15 281.77,186.18 281.77,186.18" fill="none" stroke="rgb(255, 0, 0)" stroke-width="3.19" stroke-opacity="1.00" stroke-linejoin="round"/>
<path d="M286.19,188.01 C285.76,187.55 285.48,187.23 285.35,187.06 C285.13,186.76 284.94,186.41 284.78,186.01 C284.65,185.69 284.39,184.86 284.27,184.65 C284.56,184.50 290.79,185.89 292.86,186.60 C298.86,188.71 308.85,195.93 311.43,198.75 C315.17,202.95 318.21,211.60 318.20,211.98 C318.20,211.98 317.19,212.02 317.19,212.02" fill="none" stroke="rgb(255, 0, 0)" stroke-width="3.19" stroke-opacity="1.00" stroke-linejoin="round"/>
<path d="M317.13,216.62 C317.01,216.56 316.93,216.52 316.88,216.49 C316.84,216.47 316.77,216.43 316.67,216.37 C316.76,216.36 319.52,214.50 321.58,214.52 C322.67,214.56 324.28,215.04 325.25,215.62 C326.08,216.11 327.71,218.06 328.40,218.60 C328.89,218.98 329.63,218.87 329.66,218.75" fill="none" stroke="rgb(255, 0, 0)" stroke-width="3.19" stroke-opacity="1.00" stroke-linejoin="round"/>
<path d="M312.33,130.84 C312.37,130.51 312.41,130.27 312.45,130.12 C312.52,129.82 312.64,129.52 312.70,129.21 C312.73,129.08 312.74,128.87 312.74,128.59 C311.38,132.09 310.34,134.99 310.09,136.01 C309.86,136.98 309.79,138.40 309.85,138.40" fill="none" stroke="rgb(255, 0, 0)" stroke-width="3.19" stroke-opacity="1.00" stroke-linejoin="round"/>
<path d="M276.12,176.74 C276.12,176.74 275.86,176.08 275.86,176.08 C275.86,176.08 275.55,175.91 275.55,175.91 C275.34,176.07 275.20,176.20 275.12,176.30 C274.90,176.59 251.22,203.96 250.38,205.27 C247.68,209.66 239.00,220.06 233.84,226.27 C229.66,231.40 223.02,237.71 221.02,240.02 C221.38,238.01 218.39,237.22 217.56,237.28 C216.32,238.18 215.73,241.07 217.22,242.10 C218.27,242.78 220.37,243.09 221.64,242.73 C223.20,242.26 227.65,239.31 229.52,237.41 C233.09,233.76 246.19,218.35 263.57,197.19 C271.13,188.00 279.87,177.75 280.24,176.92 C280.30,176.78 280.32,176.68 280.30,176.63 C280.30,176.63 280.24,176.60 280.24,176.60" fill="none" stroke="rgb(255, 0, 0)" stroke-width="3.19" stroke-opacity="1.00" stroke-linejoin="round"/>
</g>
</svg>
