<?xml version="1.0" encoding="UTF-8" standalone="no"?>
<!DOCTYPE svg PUBLIC "-//W3C//DTD SVG 1.1//EN" "http://www.w3.org/Graphics/SVG/1.1/DTD/svg11.dtd">
<svg width="128.40" height="181.68" viewBox="0.00 0.00 535.00 757.00" xmlns="http://www.w3.org/2000/svg" xmlns:xlink="http://www.w3.org/1999/xlink">
<g stroke-linecap="round" transform="translate(44.00, 155.00)" id="47-건물">
<path d="M113.32,-106.73 C113.35,-107.69 113.39,-108.65 113.42,-109.61 C113.43,-109.97 113.45,-110.26 113.48,-110.46 C113.49,-110.39 113.25,-101.99 113.46,-78.74 C113.55,-69.29 113.67,-52.66 113.69,-45.48 C113.58,-36.16 112.43,-23.12 111.81,-16.11 C110.87,-4.40 111.18,26.93 111.13,42.91 C110.73,57.99 109.15,90.12 109.47,103.39 C109.48,103.99 116.19,181.11 117.14,196.34 C117.52,206.51 117.49,218.44 118.00,225.79 C118.81,235.22 122.37,267.13 123.55,286.84 C124.17,295.16 125.51,312.62 126.32,317.62 C128.66,331.43 133.27,360.82 134.74,375.82 C135.50,384.54 135.40,392.38 134.72,393.56 C134.72,393.56 133.04,387.85 133.04,387.85" fill="none" stroke="rgb(33, 228, 63)" stroke-width="4.99" stroke-opacity="1.00" stroke-linejoin="round"/>
<path d="M124.91,388.74 C126.03,387.34 128.85,385.25 129.32,384.82 C129.62,384.55 130.21,383.96 131.08,383.05 C130.47,384.50 127.08,391.11 125.86,394.09 C123.70,399.39 118.92,413.94 116.52,422.53 C114.60,430.03 111.55,443.88 110.27,450.60 C109.08,457.64 106.88,472.08 105.77,479.13 C104.31,487.37 101.13,500.35 99.25,506.01 C97.61,510.96 90.79,545.68 88.56,561.73 C86.46,577.02 83.17,591.87 81.29,598.13 C81.29,598.13 85.87,587.32 85.87,587.32" fill="none" stroke="rgb(33, 228, 63)" stroke-width="4.99" stroke-opacity="1.00" stroke-linejoin="round"/>
<path d="M-0.84,-102.43 C-1.21,-102.83 -1.46,-103.19 -1.58,-103.51 C-1.77,-104.00 -2.84,-109.36 -3.04,-109.68 C-3.46,-105.23 -3.34,-90.34 -3.24,-82.24 C-2.85,-70.65 -1.58,-59.87 0.29,-56.25 C0.29,-56.25 2.28,-59.81 2.28,-59.81" fill="none" stroke="rgb(33, 228, 63)" stroke-width="4.99" stroke-opacity="1.00" stroke-linejoin="round"/>
<path d="M-4.82,-103.10 C-4.82,-103.10 -9.45,-102.82 -9.45,-102.82 C-4.81,-105.75 9.97,-112.87 16.53,-115.82 C25.71,-119.76 37.93,-124.42 41.97,-125.46 C48.47,-127.06 50.34,-126.60 51.36,-125.76 C51.36,-125.76 52.87,-84.35 52.87,-84.35 C52.87,-84.35 52.45,-85.25 52.45,-85.25" fill="none" stroke="rgb(33, 228, 63)" stroke-width="4.99" stroke-opacity="1.00" stroke-linejoin="round"/>
<path d="M-10.96,-58.95 C-10.96,-58.95 -13.34,-59.05 -13.34,-59.05 C-8.14,-62.57 17.88,-74.75 36.58,-82.28 C40.70,-83.87 51.13,-87.84 51.27,-87.90 C54.45,-89.17 58.10,-89.35 57.95,-89.08 C57.95,-89.08 57.98,-88.93 57.98,-88.93" fill="none" stroke="rgb(33, 228, 63)" stroke-width="4.99" stroke-opacity="1.00" stroke-linejoin="round"/>
<path d="M-21.00,-7.83 C-21.00,-7.83 -21.10,-9.15 -21.10,-9.15 C-20.96,-9.28 -16.93,21.81 -15.69,26.32 C-14.36,30.91 -13.41,32.56 -11.96,34.47 C-11.96,34.47 -10.66,34.33 -10.66,34.33 C-10.66,34.33 -9.90,32.42 -9.90,32.42" fill="none" stroke="rgb(33, 228, 63)" stroke-width="4.99" stroke-opacity="1.00" stroke-linejoin="round"/>
<path d="M-14.61,-7.25 C-14.61,-7.25 -19.42,-7.47 -19.42,-7.47 C-19.18,-8.66 -5.33,-17.09 3.71,-21.79 C14.71,-27.30 24.29,-31.22 30.89,-32.72 C34.40,-33.51 40.24,-33.91 42.32,-33.62 C44.02,-33.36 46.58,-32.53 47.14,-31.93 C48.00,-30.96 47.96,-26.68 47.33,-20.94 C46.27,-12.33 43.96,6.17 43.31,6.49 C43.31,6.49 40.27,4.71 40.27,4.71" fill="none" stroke="rgb(33, 228, 63)" stroke-width="4.99" stroke-opacity="1.00" stroke-linejoin="round"/>
<path d="M-25.65,34.32 C-25.65,34.32 -26.07,33.90 -26.07,33.90 C-25.30,32.12 -21.45,30.12 -17.17,28.40 C-12.45,26.52 27.60,7.53 44.57,-0.56 C55.32,-5.67 57.66,-6.65 58.42,-6.24 C58.42,-6.24 58.64,-5.60 58.64,-5.60" fill="none" stroke="rgb(33, 228, 63)" stroke-width="4.99" stroke-opacity="1.00" stroke-linejoin="round"/>
<path d="M-20.76,84.77 C-20.76,84.77 -23.65,79.95 -23.65,79.95 C-23.26,83.92 -19.12,101.10 -16.50,110.13 C-13.75,119.10 -12.28,120.90 -11.15,121.96 C-11.15,121.96 -10.59,118.14 -10.59,118.14" fill="none" stroke="rgb(33, 228, 63)" stroke-width="4.99" stroke-opacity="1.00" stroke-linejoin="round"/>
<path d="M-23.41,80.96 C-23.41,80.96 -25.94,80.79 -25.94,80.79 C-22.67,79.77 10.83,64.27 12.74,63.52 C16.69,62.00 22.02,61.24 23.25,62.12 C23.39,62.56 23.84,77.31 24.60,87.53 C26.85,114.18 26.95,117.38 26.97,118.63 C26.97,118.63 26.63,115.38 26.63,115.38" fill="none" stroke="rgb(33, 228, 63)" stroke-width="4.99" stroke-opacity="1.00" stroke-linejoin="round"/>
<path d="M-28.39,137.30 C-28.39,137.30 -28.53,137.90 -28.53,137.90 C-24.61,137.47 -13.34,133.64 -6.01,130.00 C-0.35,127.17 30.03,110.37 32.34,109.46 C32.73,109.34 33.12,109.21 33.50,109.08 C33.60,109.05 33.69,108.99 33.78,108.90" fill="none" stroke="rgb(33, 228, 63)" stroke-width="4.99" stroke-opacity="1.00" stroke-linejoin="round"/>
<path d="M57.83,55.23 C57.83,55.23 56.92,54.07 56.92,54.07 C57.16,57.76 60.02,76.66 61.41,84.12 C61.79,86.14 62.13,87.54 62.89,90.27 C62.79,89.59 62.72,89.12 62.67,88.86 C62.63,88.59 62.53,88.16 62.40,87.55" fill="none" stroke="rgb(33, 228, 63)" stroke-width="4.99" stroke-opacity="1.00" stroke-linejoin="round"/>
<path d="M54.93,53.57 C54.93,53.57 53.87,53.48 53.87,53.48 C54.26,51.74 54.85,50.82 56.46,49.85 C62.88,46.01 77.60,37.30 80.16,36.38 C81.34,36.01 84.15,35.16 84.90,35.21 C87.03,35.40 89.30,37.15 90.73,39.55 C92.03,41.85 96.10,57.65 97.46,65.38 C98.31,70.36 98.13,72.28 97.59,73.42 C96.14,72.48 95.28,71.90 94.99,71.68 C94.70,71.45 94.60,71.26 94.67,71.11" fill="none" stroke="rgb(33, 228, 63)" stroke-width="4.99" stroke-opacity="1.00" stroke-linejoin="round"/>
<path d="M56.75,101.21 C56.75,101.21 54.67,101.62 54.67,101.62 C57.96,97.74 63.75,93.88 73.71,87.95 C81.34,83.46 93.86,76.14 98.74,73.32 C98.74,73.32 98.74,75.16 98.74,75.16" fill="none" stroke="rgb(33, 228, 63)" stroke-width="4.99" stroke-opacity="1.00" stroke-linejoin="round"/>
<path d="M-38.93,218.13 C-39.16,217.88 -39.33,217.62 -39.46,217.35 C-39.59,217.07 -39.84,216.41 -40.22,215.34 C-39.39,217.86 -34.38,237.82 -33.41,241.00 C-30.59,250.08 -28.09,252.56 -27.31,252.67 C-27.31,252.67 -25.41,249.16 -25.41,249.16" fill="none" stroke="rgb(33, 228, 63)" stroke-width="4.99" stroke-opacity="1.00" stroke-linejoin="round"/>
<path d="M-35.78,222.69 C-35.78,222.69 -40.12,224.66 -40.12,224.66 C-34.63,219.30 -27.04,213.02 -20.42,208.50 C-10.23,201.57 3.89,195.41 5.40,195.27 C6.35,195.21 7.79,195.82 8.31,196.55 C9.80,198.82 12.32,216.19 13.48,224.21 C15.32,237.36 15.75,241.98 15.12,241.94 C15.12,241.94 14.59,240.79 14.59,240.79" fill="none" stroke="rgb(33, 228, 63)" stroke-width="4.99" stroke-opacity="1.00" stroke-linejoin="round"/>
<path d="M-31.54,265.59 C-31.54,265.59 -34.40,264.29 -34.40,264.29 C-33.28,263.25 -17.68,258.32 -11.64,255.69 C1.34,249.96 20.97,237.55 22.00,237.68 C22.00,237.68 22.63,238.09 22.63,238.09" fill="none" stroke="rgb(33, 228, 63)" stroke-width="4.99" stroke-opacity="1.00" stroke-linejoin="round"/>
<path d="M50.28,167.18 C50.28,167.18 48.26,168.40 48.26,168.40 C47.76,175.10 51.88,191.93 55.05,202.23 C56.70,207.34 59.86,215.63 59.71,216.70 C59.71,216.70 58.65,216.64 58.65,216.64 C58.61,216.54 58.59,216.27 58.59,215.80 C58.59,215.34 58.61,214.06 58.64,211.94" fill="none" stroke="rgb(33, 228, 63)" stroke-width="4.99" stroke-opacity="1.00" stroke-linejoin="round"/>
<path d="M44.14,170.41 C44.14,170.41 44.03,170.12 44.03,170.12 C45.06,169.10 60.33,159.16 65.84,155.88 C69.32,153.85 86.44,144.64 89.74,143.98 C91.56,143.68 94.18,144.27 94.76,145.51 C95.54,147.29 95.80,167.53 95.90,175.96 C96.06,182.97 96.29,191.52 95.92,195.81 C95.92,195.81 94.59,194.24 94.59,194.24" fill="none" stroke="rgb(33, 228, 63)" stroke-width="4.99" stroke-opacity="1.00" stroke-linejoin="round"/>
<path d="M50.86,221.61 C50.86,221.61 49.63,221.73 49.63,221.73 C54.94,218.71 67.66,211.55 74.87,207.73 C82.89,203.72 100.92,195.42 101.73,195.32 C102.11,195.28 102.56,195.43 103.09,195.78 C103.09,195.78 103.25,197.00 103.25,197.00" fill="none" stroke="rgb(33, 228, 63)" stroke-width="4.99" stroke-opacity="1.00" stroke-linejoin="round"/>
<path d="M-38.76,341.02 C-38.76,341.02 -39.72,340.77 -39.72,340.77 C-39.72,340.77 -40.08,341.20 -40.08,341.20 C-39.84,343.31 -35.88,361.38 -34.11,369.35 C-32.11,377.92 -28.42,389.48 -25.99,394.04 C-25.17,395.55 -24.15,396.50 -22.50,397.56 C-22.50,397.56 -21.30,396.97 -21.30,396.97 C-21.30,396.97 -21.00,396.34 -21.00,396.34" fill="none" stroke="rgb(33, 228, 63)" stroke-width="4.99" stroke-opacity="1.00" stroke-linejoin="round"/>
<path d="M-38.60,341.27 C-38.60,341.27 -40.07,341.15 -40.07,341.15 C-37.81,338.69 -27.46,332.37 -17.89,327.22 C-14.11,325.26 -6.77,321.63 -3.24,320.11 C-0.28,318.85 6.61,316.49 10.26,316.32 C11.57,316.28 13.91,316.78 14.57,317.25 C16.10,318.45 17.55,323.36 18.67,328.59 C23.70,353.58 25.32,359.50 25.36,362.40 C25.36,362.40 24.01,363.09 24.01,363.09" fill="none" stroke="rgb(33, 228, 63)" stroke-width="4.99" stroke-opacity="1.00" stroke-linejoin="round"/>
<path d="M-27.31,398.78 C-27.31,398.78 -30.63,397.73 -30.63,397.73 C-29.28,394.95 0.65,376.21 12.86,368.38 C17.05,365.74 22.25,362.57 23.81,362.18 C23.81,362.18 24.07,362.72 24.07,362.72 C24.07,362.72 23.93,363.34 23.93,363.34" fill="none" stroke="rgb(33, 228, 63)" stroke-width="4.99" stroke-opacity="1.00" stroke-linejoin="round"/>
<path d="M74.86,271.30 C74.64,270.97 74.42,270.65 74.20,270.33 C74.06,270.11 73.92,269.89 73.77,269.68 C73.35,272.83 73.95,312.73 74.33,327.79 C74.93,343.53 76.33,375.39 77.14,391.51 C77.57,398.37 78.26,408.80 79.69,418.64 C81.04,427.24 84.45,448.63 84.51,449.15 C84.82,451.97 86.53,473.63 87.50,480.90 C87.89,483.79 89.39,492.92 90.01,496.54 C90.66,500.27 92.06,506.02 93.94,509.56 C93.94,509.56 94.19,505.20 94.19,505.20" fill="none" stroke="rgb(33, 228, 63)" stroke-width="4.99" stroke-opacity="1.00" stroke-linejoin="round"/>
<path d="M73.87,275.78 C73.87,275.78 73.04,275.27 73.04,275.27 C71.95,275.23 87.27,263.66 92.55,260.15 C111.62,247.52 115.47,246.45 115.91,246.63 C115.91,246.63 114.74,248.07 114.74,248.07 C114.74,248.07 113.86,247.82 113.86,247.82" fill="none" stroke="rgb(33, 228, 63)" stroke-width="4.99" stroke-opacity="1.00" stroke-linejoin="round"/>
<path d="M74.03,365.73 C73.86,365.20 73.74,364.82 73.66,364.62 C73.60,364.45 73.41,364.03 73.11,363.37 C72.96,363.01 72.80,362.66 72.64,362.30 C72.64,362.30 75.51,357.56 75.51,357.56 C74.03,361.12 70.65,365.66 70.06,368.15 C69.70,369.81 69.92,373.39 70.51,374.73 C71.33,376.42 73.74,378.10 75.40,378.03 C77.84,377.87 81.54,374.66 82.75,372.86 C83.42,371.77 84.39,369.02 84.43,367.61 C84.45,365.63 82.73,363.55 80.82,362.84 C79.58,362.43 73.36,363.20 71.72,363.87 C70.85,364.22 68.87,365.31 68.97,365.17 C68.97,365.17 69.30,364.59 69.30,364.59" fill="none" stroke="rgb(33, 228, 63)" stroke-width="4.99" stroke-opacity="1.00" stroke-linejoin="round"/>
</g>
</svg>
