<?xml version="1.0" encoding="UTF-8" standalone="no"?>
<!DOCTYPE svg PUBLIC "-//W3C//DTD SVG 1.1//EN" "http://www.w3.org/Graphics/SVG/1.1/DTD/svg11.dtd">
<svg width="128.40" height="181.68" viewBox="0.00 0.00 535.00 757.00" xmlns="http://www.w3.org/2000/svg" xmlns:xlink="http://www.w3.org/1999/xlink">
<g stroke-linecap="round" transform="translate(44.00, 155.00)" id="47-물웅덩이">
<path d="M97.54,542.16 C97.54,542.16 90.40,545.60 90.40,545.60 C90.84,545.80 96.63,545.19 98.39,545.18 C101.40,545.18 105.79,546.13 108.42,547.34 C111.01,548.57 122.68,555.60 128.23,557.33 C133.20,558.88 143.65,563.51 151.25,567.53 C154.65,569.30 156.70,569.99 161.39,570.81 C166.74,571.73 170.60,572.72 172.04,573.73 C175.90,576.56 177.31,578.87 177.67,579.94 C177.24,580.70 170.42,584.12 168.75,584.64 C164.55,585.91 150.73,586.43 143.17,585.46 C134.59,584.32 116.32,580.71 113.67,580.41 C107.07,579.69 93.70,581.70 87.66,582.76 C86.21,582.94 84.85,582.83 82.81,582.46 C82.81,582.46 82.38,581.26 82.38,581.26" fill="none" stroke="rgb(181, 143, 123)" stroke-width="4.99" stroke-opacity="1.00" stroke-linejoin="round"/>
<path d="M103.62,552.17 C103.10,552.20 102.74,552.20 102.56,552.15 C102.38,552.11 102.11,551.98 101.76,551.75 C101.77,550.36 101.65,549.44 101.24,549.01 C98.12,546.05 89.81,549.19 88.16,550.04 C88.79,551.19 89.82,551.53 92.23,551.13 C94.63,550.73 96.31,550.38 98.66,549.82 C98.66,549.82 89.52,555.05 89.52,555.05 C89.52,555.05 100.71,552.39 100.71,552.39 C100.71,552.39 94.25,557.21 94.25,557.21 C94.25,557.21 107.46,553.33 107.46,553.33 C107.46,553.33 92.58,560.14 92.58,560.14 C92.58,560.14 111.36,553.82 111.36,553.82 C111.36,553.82 90.78,566.40 90.78,566.40 C90.78,566.40 116.86,556.17 116.86,556.17 C116.86,556.17 92.46,572.24 92.46,572.24 C92.46,572.24 120.25,558.52 120.25,558.52 C110.64,562.91 96.26,572.79 91.32,576.89 C92.64,576.98 96.84,574.87 99.13,573.67 C105.61,570.18 118.67,563.01 125.25,559.32 C110.82,566.16 96.86,575.50 95.83,576.19 C95.83,576.19 126.00,561.24 126.00,561.24 C125.27,562.13 107.86,572.48 106.20,573.62 C103.99,575.14 101.94,576.75 101.17,577.51 C101.17,577.51 132.58,564.73 132.58,564.73 C132.58,564.73 107.85,578.99 107.85,578.99 C107.85,578.99 134.72,563.50 134.72,563.50 C134.72,563.50 117.24,574.03 117.24,574.03 C117.24,574.03 135.86,565.24 135.86,565.24 C133.38,568.39 128.38,572.05 125.47,574.20 C123.82,575.39 122.74,576.36 120.86,578.27 C123.35,578.09 127.40,576.39 131.63,574.46 C141.88,569.63 145.61,567.64 146.48,567.12 C146.48,567.12 132.48,577.33 132.48,577.33 C133.80,577.63 138.04,575.99 144.75,573.18 C151.36,570.39 152.26,569.98 153.45,569.38 C151.78,569.56 134.89,576.08 134.88,577.40 C134.88,577.40 156.73,570.61 156.73,570.61 C154.12,572.33 146.78,577.16 145.52,578.02 C141.40,580.87 140.73,581.86 140.11,583.21 C140.11,583.21 159.02,574.61 159.02,574.61 C159.04,574.62 153.06,578.73 152.04,579.62 C150.17,581.25 149.31,582.44 149.48,583.02 C149.48,583.02 166.15,575.87 166.15,575.87 C166.20,576.74 162.87,582.05 162.87,583.55 C162.88,583.89 163.05,584.39 163.38,585.05 C164.60,585.47 165.62,585.41 167.36,584.68 C170.23,583.46 171.04,582.12 171.10,581.44 C171.10,581.44 168.79,581.28 168.79,581.28 C168.79,581.28 168.84,581.13 168.84,581.13" fill="none" stroke="rgb(181, 143, 123)" stroke-width="4.99" stroke-opacity="1.00" stroke-linejoin="round"/>
</g>
</svg>
