<?xml version="1.0" encoding="UTF-8" standalone="no"?>
<!DOCTYPE svg PUBLIC "-//W3C//DTD SVG 1.1//EN" "http://www.w3.org/Graphics/SVG/1.1/DTD/svg11.dtd">
<svg width="128.40" height="181.68" viewBox="0.00 0.00 535.00 757.00" xmlns="http://www.w3.org/2000/svg" xmlns:xlink="http://www.w3.org/1999/xlink">
<g stroke-linecap="round" transform="translate(44.00, 155.00)" id="47-비">
<path d="M110.48,-132.60 C110.50,-132.97 110.49,-133.24 110.46,-133.41 C110.42,-133.58 110.31,-133.87 110.12,-134.30 C110.12,-134.30 109.53,-134.51 109.53,-134.51 C108.56,-134.38 107.14,-130.25 105.54,-124.05 C103.95,-117.51 100.90,-100.83 100.62,-96.01 C100.12,-86.36 101.78,-82.91 103.03,-81.23 C103.03,-81.23 104.93,-81.33 104.93,-81.33" fill="none" stroke="rgb(0, 0, 255)" stroke-width="4.99" stroke-opacity="1.00" stroke-linejoin="round"/>
<path d="M447.25,-117.14 C447.25,-117.70 447.25,-118.27 447.25,-118.83 C447.25,-120.13 447.25,-121.83 447.24,-121.91 C447.10,-119.04 446.79,-111.94 446.62,-107.71 C446.47,-102.09 446.44,-96.68 446.54,-91.28 C446.63,-87.26 446.88,-82.47 447.00,-80.87" fill="none" stroke="rgb(0, 0, 255)" stroke-width="4.99" stroke-opacity="1.00" stroke-linejoin="round"/>
<path d="M425.55,-89.05 C425.05,-82.29 424.01,-67.43 423.48,-59.32 C422.82,-46.38 424.45,-20.18 425.67,-17.13" fill="none" stroke="rgb(0, 0, 255)" stroke-width="4.99" stroke-opacity="1.00" stroke-linejoin="round"/>
<path d="M478.65,-41.72 C478.65,-41.72 477.72,-42.44 477.72,-42.44 C476.64,-40.19 475.87,-35.29 475.39,-32.30 C473.93,-24.23 471.92,-13.23 471.37,-10.29" fill="none" stroke="rgb(0, 0, 255)" stroke-width="4.99" stroke-opacity="1.00" stroke-linejoin="round"/>
<path d="M456.56,-9.47 C456.56,-9.47 456.63,-10.13 456.63,-10.13 C457.01,-7.89 453.48,7.07 451.47,14.88 C450.54,18.29 449.34,22.72 449.06,23.74" fill="none" stroke="rgb(0, 0, 255)" stroke-width="4.99" stroke-opacity="1.00" stroke-linejoin="round"/>
<path d="M438.63,49.86 C438.63,49.86 438.04,49.95 438.04,49.95 C437.70,51.05 439.84,69.50 440.59,73.57 C442.36,82.98 445.23,90.40 446.46,92.38" fill="none" stroke="rgb(0, 0, 255)" stroke-width="4.99" stroke-opacity="1.00" stroke-linejoin="round"/>
<path d="M483.42,55.86 C482.81,57.81 481.26,62.81 480.33,65.85 C477.12,76.64 476.70,78.39 476.34,80.24" fill="none" stroke="rgb(0, 0, 255)" stroke-width="4.99" stroke-opacity="1.00" stroke-linejoin="round"/>
<path d="M452.64,100.11 C452.32,104.06 451.66,112.48 451.63,116.18 C451.64,117.53 451.63,119.77 451.53,121.14 C451.45,122.28 451.19,123.64 450.71,125.78" fill="none" stroke="rgb(0, 0, 255)" stroke-width="4.99" stroke-opacity="1.00" stroke-linejoin="round"/>
<path d="M446.56,135.36 C446.56,135.36 446.02,135.65 446.02,135.65 C445.74,136.20 438.04,179.24 435.04,196.21 C434.38,200.34 434.30,200.68 434.22,200.62 C434.14,200.42 434.09,200.29 434.08,200.23 C434.06,200.17 434.05,200.10 434.04,200.02" fill="none" stroke="rgb(0, 0, 255)" stroke-width="4.99" stroke-opacity="1.00" stroke-linejoin="round"/>
<path d="M456.95,175.30 C455.45,179.17 453.31,192.65 452.15,200.16 C450.39,211.51 449.41,213.90 448.69,214.61 C448.69,214.61 448.01,214.41 448.01,214.41 C448.01,214.41 447.52,212.99 447.52,212.99" fill="none" stroke="rgb(0, 0, 255)" stroke-width="4.99" stroke-opacity="1.00" stroke-linejoin="round"/>
<path d="M440.25,209.93 C440.25,209.93 440.31,209.08 440.31,209.08 C440.31,209.08 441.04,209.05 441.04,209.05 C441.90,213.09 440.70,227.94 440.05,235.82 C439.72,239.87 438.95,249.56 438.92,250.07 C438.74,253.25 438.63,256.55 438.64,258.03 C438.64,258.03 438.67,257.67 438.67,257.67" fill="none" stroke="rgb(0, 0, 255)" stroke-width="4.99" stroke-opacity="1.00" stroke-linejoin="round"/>
<path d="M463.80,341.76 C463.80,341.76 463.28,337.47 463.28,337.47 C462.39,338.94 458.53,355.74 457.09,362.42 C456.32,366.23 455.33,371.23 455.11,372.43" fill="none" stroke="rgb(0, 0, 255)" stroke-width="4.99" stroke-opacity="1.00" stroke-linejoin="round"/>
<path d="M437.94,381.24 C436.54,382.13 433.83,383.74 433.52,384.09 C432.71,385.03 432.95,392.26 433.13,393.60 C433.99,399.85 436.05,406.12 436.46,407.01" fill="none" stroke="rgb(0, 0, 255)" stroke-width="4.99" stroke-opacity="1.00" stroke-linejoin="round"/>
<path d="M177.89,-119.45 C178.16,-120.80 178.45,-121.92 178.90,-123.18 C179.71,-125.46 181.32,-128.89 181.75,-129.79 C182.00,-128.53 181.12,-122.23 180.62,-118.48 C180.13,-114.54 179.51,-107.30 179.18,-102.01 C178.98,-98.32 179.21,-94.97 179.37,-93.90" fill="none" stroke="rgb(0, 0, 255)" stroke-width="4.99" stroke-opacity="1.00" stroke-linejoin="round"/>
<path d="M157.42,-69.89 C157.43,-70.56 157.45,-71.04 157.48,-71.32 C157.50,-71.61 157.57,-72.11 157.68,-72.83 C158.16,-71.56 159.28,-67.16 160.00,-64.39 C164.99,-45.78 169.01,-37.60 169.52,-36.64" fill="none" stroke="rgb(0, 0, 255)" stroke-width="4.99" stroke-opacity="1.00" stroke-linejoin="round"/>
<path d="M196.44,-45.95 C196.44,-45.95 196.20,-45.83 196.20,-45.83 C195.85,-39.00 195.06,-20.36 195.63,-16.60 C195.98,-14.40 197.11,-12.30 197.61,-11.90" fill="none" stroke="rgb(0, 0, 255)" stroke-width="4.99" stroke-opacity="1.00" stroke-linejoin="round"/>
<path d="M279.25,-108.60 C279.25,-108.60 279.09,-108.54 279.09,-108.54 C279.23,-106.43 279.33,-100.98 279.35,-95.69 C279.35,-88.26 279.36,-78.37 279.37,-75.92" fill="none" stroke="rgb(0, 0, 255)" stroke-width="4.99" stroke-opacity="1.00" stroke-linejoin="round"/>
<path d="M269.32,-60.19 C269.32,-60.19 269.86,-61.78 269.86,-61.78 C271.43,-60.39 274.45,-55.67 276.18,-52.97 C277.31,-51.25 279.18,-48.40 279.92,-47.28" fill="none" stroke="rgb(0, 0, 255)" stroke-width="4.99" stroke-opacity="1.00" stroke-linejoin="round"/>
<path d="M297.18,-64.88 C297.18,-64.88 296.80,-64.89 296.80,-64.89 C296.47,-63.78 296.47,-48.90 296.52,-44.95 C296.55,-42.77 296.66,-41.21 296.93,-38.62" fill="none" stroke="rgb(0, 0, 255)" stroke-width="4.99" stroke-opacity="1.00" stroke-linejoin="round"/>
<path d="M325.58,-99.75 C325.58,-99.75 323.59,-99.94 323.59,-99.94 C322.77,-97.22 321.30,-78.75 320.73,-70.69 C320.32,-62.67 322.54,-44.48 323.08,-42.15 C323.30,-41.16 323.77,-40.24 324.67,-38.75" fill="none" stroke="rgb(0, 0, 255)" stroke-width="4.99" stroke-opacity="1.00" stroke-linejoin="round"/>
<path d="M361.36,-106.21 C361.36,-106.21 360.28,-107.47 360.28,-107.47 C359.29,-104.99 357.11,-75.15 356.54,-67.21 C356.01,-59.29 355.42,-50.55 355.37,-49.72" fill="none" stroke="rgb(0, 0, 255)" stroke-width="4.99" stroke-opacity="1.00" stroke-linejoin="round"/>
<path d="M314.88,-9.70 C314.88,-9.70 313.22,-10.42 313.22,-10.42 C311.57,-7.36 308.02,9.77 307.55,12.99 C307.00,16.79 306.90,21.99 307.57,25.03 C307.57,25.03 308.37,23.95 308.37,23.95" fill="none" stroke="rgb(0, 0, 255)" stroke-width="4.99" stroke-opacity="1.00" stroke-linejoin="round"/>
<path d="M274.55,-20.25 C274.55,-20.25 272.00,-22.07 272.00,-22.07 C270.72,-21.81 269.92,-17.06 269.40,-10.81 C268.74,-1.11 269.24,8.97 269.89,13.26" fill="none" stroke="rgb(0, 0, 255)" stroke-width="4.99" stroke-opacity="1.00" stroke-linejoin="round"/>
<path d="M280.25,55.71 C280.25,55.71 281.87,47.70 281.87,47.70 C282.13,49.07 280.29,65.32 279.36,73.50 C278.96,77.06 278.25,83.23 278.16,86.17 C278.26,85.94 278.32,85.74 278.33,85.57 C278.34,85.07 278.11,84.06 277.92,83.58" fill="none" stroke="rgb(0, 0, 255)" stroke-width="4.99" stroke-opacity="1.00" stroke-linejoin="round"/>
<path d="M237.38,48.78 C237.38,48.78 235.85,48.33 235.85,48.33 C234.54,49.63 233.71,53.62 232.81,59.74 C231.10,72.04 230.37,81.97 231.30,88.92 C231.73,92.03 232.36,93.33 232.80,93.77 C232.80,93.77 234.55,90.56 234.55,90.56" fill="none" stroke="rgb(0, 0, 255)" stroke-width="4.99" stroke-opacity="1.00" stroke-linejoin="round"/>
<path d="M205.36,50.25 C205.36,50.25 204.84,49.41 204.84,49.41 C204.78,51.53 204.24,56.04 203.25,62.20 C201.99,69.54 201.02,74.61 200.91,75.09 C201.06,74.54 201.21,74.00 201.36,73.45 C201.44,73.18 201.55,72.79 201.70,72.29" fill="none" stroke="rgb(0, 0, 255)" stroke-width="4.99" stroke-opacity="1.00" stroke-linejoin="round"/>
<path d="M241.38,-19.48 C241.38,-19.48 240.54,-20.47 240.54,-20.47 C240.29,-20.52 239.33,-14.70 238.88,-11.84 C238.42,-8.55 238.23,-3.59 238.22,-1.72" fill="none" stroke="rgb(0, 0, 255)" stroke-width="4.99" stroke-opacity="1.00" stroke-linejoin="round"/>
<path d="M276.94,-113.29 C276.94,-113.29 276.55,-114.04 276.55,-114.04 C276.60,-110.76 276.51,-105.96 276.46,-102.85 C276.52,-95.48 276.79,-85.06 276.86,-82.39" fill="none" stroke="rgb(0, 0, 255)" stroke-width="4.99" stroke-opacity="1.00" stroke-linejoin="round"/>
<path d="M153.49,-15.25 C153.06,-15.07 152.63,-14.90 152.20,-14.73 C151.68,-14.51 151.15,-14.29 150.63,-14.07 C150.63,-14.07 150.18,-15.19 150.18,-15.19 C151.13,-14.55 151.22,-10.86 151.18,-6.51 C150.84,15.69 152.69,23.85 153.53,25.67 C153.53,25.67 154.98,25.59 154.98,25.59" fill="none" stroke="rgb(0, 0, 255)" stroke-width="4.99" stroke-opacity="1.00" stroke-linejoin="round"/>
<path d="M132.71,43.63 C132.71,43.63 131.33,44.32 131.33,44.32 C130.89,46.87 132.05,53.77 132.34,56.84 C132.63,59.90 132.79,68.49 132.72,72.66 C132.70,73.62 132.67,74.58 132.65,75.55" fill="none" stroke="rgb(0, 0, 255)" stroke-width="4.99" stroke-opacity="1.00" stroke-linejoin="round"/>
<path d="M151.72,44.09 C151.72,44.09 150.97,42.38 150.97,42.38 C152.04,44.10 152.42,45.09 152.27,46.52 C151.66,53.47 150.35,69.82 150.36,74.66 C150.37,76.27 150.56,77.62 151.07,80.17 C151.07,80.17 151.43,80.28 151.43,80.28 C151.43,80.28 151.84,78.52 151.84,78.52" fill="none" stroke="rgb(0, 0, 255)" stroke-width="4.99" stroke-opacity="1.00" stroke-linejoin="round"/>
<path d="M131.79,83.34 C131.79,83.34 130.93,82.32 130.93,82.32 C130.40,84.42 130.33,89.72 130.30,93.06 C130.33,98.74 130.43,103.07 130.62,106.88" fill="none" stroke="rgb(0, 0, 255)" stroke-width="4.99" stroke-opacity="1.00" stroke-linejoin="round"/>
<path d="M82.07,-47.57 C82.07,-47.57 81.58,-47.78 81.58,-47.78 C81.25,-46.18 80.16,-38.69 79.53,-34.34 C78.97,-30.45 78.28,-25.69 78.16,-24.82" fill="none" stroke="rgb(0, 0, 255)" stroke-width="4.99" stroke-opacity="1.00" stroke-linejoin="round"/>
<path d="M63.60,-34.56 C63.60,-34.56 63.91,-35.08 63.91,-35.08 C63.91,-35.09 63.57,-33.32 63.67,-22.84 C63.75,-17.36 63.97,-10.91 64.36,-7.34 C64.84,-3.12 65.28,-1.25 65.56,-0.63" fill="none" stroke="rgb(0, 0, 255)" stroke-width="4.99" stroke-opacity="1.00" stroke-linejoin="round"/>
<path d="M-30.83,148.14 C-30.83,148.14 -31.03,147.84 -31.03,147.84 C-31.03,147.84 -31.36,147.73 -31.36,147.73 C-31.61,149.56 -32.05,152.89 -32.11,153.90 C-32.47,159.48 -31.61,168.95 -31.20,171.46" fill="none" stroke="rgb(0, 0, 255)" stroke-width="4.99" stroke-opacity="1.00" stroke-linejoin="round"/>
<path d="M-26.29,293.67 C-26.29,293.22 -26.30,292.84 -26.32,292.54 C-26.54,289.72 -26.95,287.33 -27.11,286.88 C-27.12,289.65 -24.47,303.91 -22.03,311.41 C-21.32,313.60 -20.86,314.71 -20.06,316.25 C-20.06,316.25 -19.61,316.47 -19.61,316.47 C-19.61,316.47 -19.59,315.74 -19.59,315.74" fill="none" stroke="rgb(0, 0, 255)" stroke-width="4.99" stroke-opacity="1.00" stroke-linejoin="round"/>
<path d="M42.59,342.76 C42.59,342.76 41.84,342.50 41.84,342.50 C41.57,343.88 41.47,350.28 41.35,352.44 C40.88,361.04 39.86,366.80 39.75,366.86" fill="none" stroke="rgb(0, 0, 255)" stroke-width="4.99" stroke-opacity="1.00" stroke-linejoin="round"/>
<path d="M23.12,378.55 C24.53,383.09 26.92,405.70 27.22,407.98 C27.57,410.61 27.86,412.19 27.93,411.97 C27.93,411.97 27.76,410.66 27.76,410.66" fill="none" stroke="rgb(0, 0, 255)" stroke-width="4.99" stroke-opacity="1.00" stroke-linejoin="round"/>
<path d="M1.42,420.26 C0.47,420.94 -0.78,422.20 -1.09,423.25 C-1.59,424.97 -0.38,445.63 0.05,453.49 C0.43,460.68 0.86,469.26 0.93,470.64 C0.93,470.64 0.90,468.87 0.90,468.87" fill="none" stroke="rgb(0, 0, 255)" stroke-width="4.99" stroke-opacity="1.00" stroke-linejoin="round"/>
<path d="M-28.60,472.29 C-29.47,469.95 -28.50,466.91 -27.44,465.77 C-26.15,466.26 -25.40,466.86 -24.76,468.12 C-22.89,471.88 -15.50,501.14 -14.48,503.76 C-14.48,503.76 -14.01,504.00 -14.01,504.00 C-14.01,504.00 -14.08,501.96 -14.08,501.96" fill="none" stroke="rgb(0, 0, 255)" stroke-width="4.99" stroke-opacity="1.00" stroke-linejoin="round"/>
<path d="M21.58,497.91 C21.58,497.91 21.45,498.27 21.45,498.27 C21.45,498.27 21.20,498.31 21.20,498.31 C21.20,498.31 21.20,497.74 21.20,497.74 C22.06,498.01 23.36,501.74 24.75,507.94 C25.22,510.13 25.79,513.52 26.04,515.61 C26.24,517.29 26.27,518.69 26.20,519.53 C26.04,518.77 25.94,518.25 25.90,517.98 C25.86,517.70 25.81,517.29 25.77,516.73" fill="none" stroke="rgb(0, 0, 255)" stroke-width="4.99" stroke-opacity="1.00" stroke-linejoin="round"/>
<path d="M48.44,452.58 C47.11,452.94 46.32,453.45 45.92,454.38 C45.42,455.59 45.56,459.59 46.18,464.78 C46.89,470.10 47.72,475.03 47.74,475.42 C47.75,475.77 47.75,476.68 47.74,478.16 C47.67,477.94 47.63,477.77 47.60,477.65 C47.58,477.53 47.53,477.29 47.48,476.93" fill="none" stroke="rgb(0, 0, 255)" stroke-width="4.99" stroke-opacity="1.00" stroke-linejoin="round"/>
<path d="M403.15,473.06 C403.15,473.06 400.48,466.38 400.48,466.38 C400.26,474.16 406.00,498.75 408.25,505.41 C409.13,507.97 411.26,512.65 412.92,513.97 C412.92,513.97 413.71,513.00 413.71,513.00" fill="none" stroke="rgb(0, 0, 255)" stroke-width="4.99" stroke-opacity="1.00" stroke-linejoin="round"/>
<path d="M384.76,547.24 C384.76,547.24 384.28,543.64 384.28,543.64 C383.56,546.42 383.74,563.49 384.03,570.70 C384.29,575.61 384.63,579.70 384.97,581.86" fill="none" stroke="rgb(0, 0, 255)" stroke-width="4.99" stroke-opacity="1.00" stroke-linejoin="round"/>
<path d="M420.78,551.55 C420.78,551.55 420.80,548.66 420.80,548.66 C421.74,550.19 422.17,551.22 422.16,552.61 C422.06,564.96 419.92,581.57 419.81,582.50" fill="none" stroke="rgb(0, 0, 255)" stroke-width="4.99" stroke-opacity="1.00" stroke-linejoin="round"/>
<path d="M331.96,469.90 C331.96,469.90 330.34,469.16 330.34,469.16 C330.37,469.88 336.43,483.84 338.93,490.25 C341.63,497.68 347.33,513.56 348.10,515.63" fill="none" stroke="rgb(0, 0, 255)" stroke-width="4.99" stroke-opacity="1.00" stroke-linejoin="round"/>
<path d="M313.42,526.16 C313.42,526.16 311.12,520.76 311.12,520.76 C311.12,520.76 315.77,564.01 315.77,564.01" fill="none" stroke="rgb(0, 0, 255)" stroke-width="4.99" stroke-opacity="1.00" stroke-linejoin="round"/>
<path d="M284.02,463.28 C284.02,463.28 280.79,465.81 280.79,465.81 C280.33,469.55 283.11,484.85 285.81,494.26 C286.43,496.41 286.84,497.66 287.73,500.13" fill="none" stroke="rgb(0, 0, 255)" stroke-width="4.99" stroke-opacity="1.00" stroke-linejoin="round"/>
<path d="M347.43,419.11 C346.33,420.36 345.59,421.63 345.18,423.40 C344.38,426.93 343.79,435.77 343.81,438.19 C343.85,441.66 344.31,443.69 344.62,444.79" fill="none" stroke="rgb(0, 0, 255)" stroke-width="4.99" stroke-opacity="1.00" stroke-linejoin="round"/>
<path d="M301.64,366.24 C301.64,366.24 300.46,365.93 300.46,365.93 C300.07,369.29 301.54,385.75 303.42,391.03 C303.95,392.51 304.61,393.63 305.73,395.14 C305.73,395.14 306.90,395.02 306.90,395.02 C306.90,395.02 307.50,394.02 307.50,394.02" fill="none" stroke="rgb(0, 0, 255)" stroke-width="4.99" stroke-opacity="1.00" stroke-linejoin="round"/>
<path d="M339.81,346.38 C338.84,346.74 338.23,347.02 337.98,347.22 C336.19,348.77 335.03,365.66 334.99,372.19 C334.98,375.28 335.16,379.70 335.20,380.62" fill="none" stroke="rgb(0, 0, 255)" stroke-width="4.99" stroke-opacity="1.00" stroke-linejoin="round"/>
<path d="M347.74,348.69 C347.74,348.69 347.18,348.52 347.18,348.52 C346.96,348.13 348.12,347.85 348.27,349.22 C348.45,350.96 349.01,361.95 348.99,363.76 C348.93,368.29 348.41,371.12 348.06,372.54 C348.06,372.54 347.88,372.29 347.88,372.29 C347.88,372.29 347.94,370.94 347.94,370.94" fill="none" stroke="rgb(0, 0, 255)" stroke-width="4.99" stroke-opacity="1.00" stroke-linejoin="round"/>
<path d="M383.06,330.07 C383.06,330.07 381.91,329.56 381.91,329.56 C381.17,330.71 380.79,337.65 381.06,340.86 C381.38,344.61 382.45,350.49 383.07,352.88" fill="none" stroke="rgb(0, 0, 255)" stroke-width="4.99" stroke-opacity="1.00" stroke-linejoin="round"/>
<path d="M372.52,393.33 C372.52,390.03 372.92,385.39 373.06,384.59 C373.16,384.09 373.39,383.09 373.76,381.60 C373.56,388.03 373.03,402.56 372.33,406.91 C372.12,408.24 371.75,410.01 371.52,410.98 C371.52,410.98 371.06,410.72 371.06,410.72 C371.06,410.72 371.09,409.43 371.09,409.43" fill="none" stroke="rgb(0, 0, 255)" stroke-width="4.99" stroke-opacity="1.00" stroke-linejoin="round"/>
<path d="M386.37,236.02 C386.37,236.02 385.67,229.54 385.67,229.54 C386.55,231.47 387.54,248.55 387.93,256.72 C388.40,266.34 389.26,272.37 390.26,275.67 C390.26,275.67 390.64,275.48 390.64,275.48 C390.64,275.48 391.03,273.62 391.03,273.62" fill="none" stroke="rgb(0, 0, 255)" stroke-width="4.99" stroke-opacity="1.00" stroke-linejoin="round"/>
<path d="M323.42,246.49 C323.42,246.49 322.97,243.93 322.97,243.93 C322.61,244.89 322.46,245.69 322.35,247.55 C322.15,250.90 321.79,257.80 321.63,261.36 C321.56,264.53 321.47,270.60 321.46,273.49" fill="none" stroke="rgb(0, 0, 255)" stroke-width="4.99" stroke-opacity="1.00" stroke-linejoin="round"/>
<path d="M166.88,466.67 C166.88,466.67 166.27,463.60 166.27,463.60 C168.57,466.88 170.65,472.96 171.90,476.59 C175.39,486.44 179.78,496.73 181.67,500.46" fill="none" stroke="rgb(0, 0, 255)" stroke-width="4.99" stroke-opacity="1.00" stroke-linejoin="round"/>
<path d="M128.71,457.28 C127.28,458.49 127.11,460.02 128.17,464.04 C132.21,479.46 137.44,492.95 138.45,495.54" fill="none" stroke="rgb(0, 0, 255)" stroke-width="4.99" stroke-opacity="1.00" stroke-linejoin="round"/>
<path d="M168.58,251.49 C168.58,251.49 166.39,250.65 166.39,250.65 C165.87,253.28 165.90,270.77 166.15,279.09 C166.40,284.83 166.88,290.70 167.37,293.16" fill="none" stroke="rgb(0, 0, 255)" stroke-width="4.99" stroke-opacity="1.00" stroke-linejoin="round"/>
</g>
</svg>
