<?xml version="1.0" encoding="UTF-8" standalone="no"?>
<!DOCTYPE svg PUBLIC "-//W3C//DTD SVG 1.1//EN" "http://www.w3.org/Graphics/SVG/1.1/DTD/svg11.dtd">
<svg width="128.40" height="181.68" viewBox="0.00 0.00 535.00 757.00" xmlns="http://www.w3.org/2000/svg" xmlns:xlink="http://www.w3.org/1999/xlink">
<g stroke-linecap="round" transform="translate(44.00, 155.00)" id="47-우산">
<path d="M258.03,124.56 C258.03,124.56 256.54,124.33 256.54,124.33 C256.32,123.88 255.49,123.20 253.79,122.16 C252.45,121.37 250.39,120.61 249.23,120.56 C247.17,120.54 241.63,123.90 239.00,125.52 C235.83,127.48 231.18,130.21 229.19,131.24 C226.62,132.55 219.45,135.37 218.48,135.81 C215.90,137.02 211.45,140.32 209.79,141.86 C206.39,145.06 200.64,154.00 194.61,165.20 C188.79,176.08 183.92,183.70 182.05,187.18 C178.75,193.44 176.31,202.74 175.88,204.41 C175.88,204.41 179.36,203.06 179.36,203.06" fill="none" stroke="rgb(255, 0, 0)" stroke-width="4.99" stroke-opacity="1.00" stroke-linejoin="round"/>
<path d="M261.68,119.00 C260.82,119.19 260.17,119.34 259.72,119.46 C259.28,119.58 258.41,119.82 257.12,120.19 C257.30,119.94 258.46,119.18 259.12,119.03 C259.83,118.88 263.58,121.56 265.86,122.56 C270.55,124.63 287.74,133.32 295.61,137.34 C297.74,138.43 303.26,141.31 306.53,144.43 C312.53,150.24 319.82,157.17 326.34,165.51 C328.81,168.62 341.75,183.57 343.66,187.13 C345.63,190.89 346.89,198.20 347.11,198.50 C347.11,198.50 349.39,196.15 349.39,196.15" fill="none" stroke="rgb(255, 0, 0)" stroke-width="4.99" stroke-opacity="1.00" stroke-linejoin="round"/>
<path d="M176.04,208.29 C176.04,208.29 173.82,207.06 173.82,207.06 C173.82,207.06 173.75,206.03 173.75,206.03 C176.59,204.81 182.14,204.56 185.24,204.41 C189.43,204.16 209.86,197.98 214.67,197.59 C221.06,197.03 255.05,194.83 269.10,193.91 C280.49,193.05 311.64,195.62 325.48,195.56 C334.83,195.58 340.14,195.75 349.96,197.14 C350.52,197.22 351.82,197.50 353.86,197.99 C353.86,197.99 353.98,198.37 353.98,198.37" fill="none" stroke="rgb(255, 0, 0)" stroke-width="4.99" stroke-opacity="1.00" stroke-linejoin="round"/>
<path d="M280.43,202.89 C280.49,202.25 280.49,201.78 280.42,201.48 C280.36,201.18 280.15,200.65 279.79,199.87 C279.79,199.87 280.80,198.68 280.80,198.68 C281.74,200.25 282.08,201.40 282.02,203.47 C281.77,218.57 281.16,248.00 280.80,262.33 C280.80,266.71 281.52,284.81 280.96,290.38 C280.88,291.09 280.62,292.77 280.67,292.77 C281.60,291.66 286.85,287.81 286.87,287.79 C286.92,287.68 287.97,267.55 288.46,260.20 C289.04,250.25 288.37,233.77 288.23,229.91 C288.10,226.19 288.01,210.51 287.09,202.58 C286.90,200.59 286.53,194.69 286.46,193.55 C286.46,193.55 286.15,196.19 286.15,196.19" fill="none" stroke="rgb(255, 0, 0)" stroke-width="4.99" stroke-opacity="1.00" stroke-linejoin="round"/>
<path d="M208.73,155.51 C208.72,154.97 208.74,154.56 208.78,154.29 C208.82,154.03 208.96,153.45 209.20,152.55 C209.27,152.31 209.33,152.07 209.39,151.84 C209.39,151.84 183.14,189.12 183.14,189.12 C184.80,185.67 192.47,174.75 199.12,165.98 C203.89,159.86 212.56,148.79 212.02,148.15 C208.64,150.59 200.77,159.68 194.07,168.61 C182.62,184.53 181.05,191.00 181.04,191.90 C182.43,191.90 183.37,191.56 184.48,190.42 C188.21,186.59 220.92,143.19 224.43,138.83 C224.80,138.70 199.43,170.68 189.79,182.76 C186.52,187.00 183.20,191.81 181.83,194.36 C184.21,193.58 187.23,191.64 190.12,188.74 C224.11,152.79 235.70,139.03 238.02,136.22 C235.00,137.86 223.06,148.46 217.47,153.46 C211.98,158.53 199.88,170.58 197.74,172.90 C191.36,179.86 189.16,184.49 188.65,185.77 C190.19,185.96 191.49,185.55 193.51,183.94 C198.63,179.86 205.86,172.76 212.62,165.66 C220.73,156.83 234.79,140.09 236.98,136.63 C234.04,137.58 226.18,144.56 218.03,152.42 C206.92,163.45 191.12,182.91 188.50,187.36 C186.65,190.58 186.01,192.80 185.63,194.95 C188.14,195.82 189.39,196.00 190.32,195.35 C195.93,191.39 201.99,186.11 209.56,178.78 C213.68,174.64 225.76,161.42 230.77,155.56 C235.59,149.70 247.14,134.55 248.40,132.59 C251.46,127.73 251.68,126.09 251.48,125.21 C249.97,124.57 241.81,130.37 233.21,137.91 C226.26,144.30 217.05,153.63 212.24,158.74 C205.58,166.02 197.27,176.14 192.68,182.58 C187.84,189.45 186.98,193.71 186.86,195.29 C189.21,195.57 190.83,195.20 192.51,193.82 C197.62,189.58 206.45,180.34 212.10,174.10 C223.39,161.26 245.49,135.99 247.37,133.57 C241.56,138.89 211.32,173.62 205.82,180.87 C199.15,189.83 197.75,192.44 197.26,193.72 C201.36,191.54 208.77,184.59 217.23,175.85 C238.31,153.20 260.09,129.76 260.80,128.98 C260.80,128.98 203.63,195.90 203.63,195.90 C203.63,195.90 257.15,140.59 257.15,140.59 C249.52,147.19 242.86,153.44 235.63,160.73 C221.17,175.66 218.89,181.40 218.70,182.63 C221.88,181.68 225.78,179.41 228.97,176.86 C234.11,172.60 267.82,137.97 269.90,135.28 C266.98,137.04 251.90,148.72 246.13,153.51 C240.85,158.15 227.48,170.90 225.13,173.36 C220.73,177.95 212.94,188.18 212.74,190.70 C214.97,191.10 216.70,190.58 219.08,188.64 C223.97,184.64 234.73,173.98 236.62,171.90 C241.08,166.99 266.26,135.16 268.20,132.39 C268.20,132.39 218.87,189.29 218.87,189.29 C219.51,189.52 228.42,182.44 235.89,175.51 C247.30,164.66 266.89,144.98 274.58,137.01 C270.79,140.56 258.41,153.26 254.96,157.15 C239.57,174.58 239.04,179.10 239.34,179.67 C242.75,178.66 254.21,168.16 260.00,162.69 C275.32,147.73 281.04,140.98 282.78,138.81 C280.34,140.16 270.25,150.25 265.60,154.99 C260.08,160.89 250.38,171.86 245.61,177.36 C239.80,184.33 235.96,189.63 233.75,193.35 C232.37,195.67 232.07,196.78 232.44,197.37 C234.23,197.43 237.91,195.05 240.87,192.61 C244.04,189.98 258.24,175.93 263.93,169.80 C275.22,157.03 283.98,144.83 284.65,143.48 C279.94,147.54 271.64,157.81 266.70,164.24 C259.97,173.28 251.51,185.90 249.93,189.08 C249.93,189.08 285.90,143.65 285.90,143.65 C285.90,143.65 260.84,186.59 260.84,186.59 C263.65,184.48 274.18,171.54 279.95,164.41 C288.60,153.60 290.30,151.40 292.62,148.27 C292.19,148.27 280.57,161.56 274.99,167.99 C272.16,171.40 264.28,181.69 262.91,184.91 C266.13,182.90 269.76,179.22 271.93,177.04 C279.05,169.62 299.64,145.51 301.99,143.16 C301.99,143.16 274.30,186.97 274.30,186.97 C274.30,186.97 302.90,152.67 302.90,152.67 C302.95,153.37 294.83,166.68 291.04,172.91 C288.58,177.03 286.32,181.10 284.95,185.54 C288.23,183.22 293.21,177.06 300.48,167.47 C302.52,164.75 307.07,158.57 307.81,157.50 C306.27,159.72 298.64,171.38 294.39,177.94 C290.24,184.66 289.81,187.33 290.03,187.74 C293.67,186.08 309.00,167.83 312.20,163.61 C310.19,166.60 304.46,175.15 303.69,176.40 C301.11,180.68 301.20,181.88 301.63,183.02 C301.63,183.02 319.80,162.35 319.80,162.35 C319.80,162.35 299.97,193.08 299.97,193.08 C302.31,191.99 306.79,187.04 309.41,184.16 C313.09,180.02 319.25,172.52 320.17,171.40 C320.17,171.40 307.53,192.94 307.53,192.94 C309.47,192.27 311.86,190.07 314.32,187.47 C318.89,182.60 324.39,176.68 325.89,175.77 C325.89,175.77 316.54,193.32 316.54,193.32 C317.33,193.52 320.50,190.12 324.24,185.65 C326.69,182.64 332.08,174.90 332.25,174.83 C332.25,174.83 326.06,189.26 326.06,189.26 C327.68,188.88 328.75,188.27 330.23,186.77 C332.55,184.39 335.10,182.09 335.76,181.50 C335.76,181.50 332.45,192.13 332.45,192.13 C332.45,192.13 337.78,188.51 337.78,188.51 C337.78,188.51 332.98,196.46 332.98,196.46 C332.98,196.46 341.26,191.13 341.26,191.13 C341.26,191.13 339.63,192.00 339.63,192.00 C339.36,190.35 340.37,181.62 340.33,179.44 C340.31,178.59 339.59,177.37 339.18,177.13 C338.02,176.57 333.90,177.78 330.52,179.74 C323.58,183.95 309.61,192.56 307.74,193.01 C307.23,193.13 306.07,193.30 304.25,193.50 C303.34,191.83 303.11,190.81 303.46,189.21 C304.52,184.56 311.86,168.27 314.89,161.75 C311.96,166.03 302.73,177.85 297.66,184.32 C291.07,192.60 287.81,196.20 286.82,196.26 C286.82,196.26 303.45,163.49 303.45,163.49 C303.45,163.49 283.43,187.22 283.43,187.22 C283.62,186.44 291.69,174.92 295.23,169.33 C299.02,163.22 303.05,154.70 303.06,152.70 C300.95,152.80 297.75,154.56 294.34,157.74 C283.06,168.47 273.00,180.18 267.15,188.31 C271.97,183.42 277.30,175.87 284.14,164.90 C289.93,155.29 290.53,152.18 290.65,151.01 C288.63,151.32 287.27,151.91 285.50,153.47 C277.48,160.61 255.83,184.21 253.62,187.74 C257.58,184.30 263.78,176.69 271.62,166.47 C276.28,160.25 280.35,153.09 280.48,151.74 C278.47,152.24 273.59,156.87 271.02,159.65 C256.44,175.90 249.71,186.37 247.93,189.83 C253.21,183.49 258.47,176.13 264.37,167.02 C269.91,158.20 270.16,155.99 269.97,155.14 C268.69,154.90 265.69,156.98 261.38,160.54 C255.50,165.53 228.05,192.06 225.44,193.99 C226.58,191.90 241.26,174.44 242.35,173.10 C244.27,170.73 246.10,168.38 246.81,167.37 C241.32,171.07 227.90,187.18 226.90,189.30 C234.59,183.32 251.51,165.51 252.76,162.30 C251.44,162.32 250.34,162.64 248.93,163.68 C244.62,166.85 215.49,192.97 214.64,192.71 C214.64,192.71 236.15,164.49 236.15,164.49 C233.62,165.84 230.29,168.76 226.43,172.84 C215.61,185.05 201.38,201.13 200.33,201.57 C200.33,201.57 217.53,174.88 217.53,174.88 C216.23,174.82 214.32,174.89 213.43,175.16 C212.11,175.57 196.30,190.07 195.17,191.51 C195.10,191.59 195.05,191.68 195.02,191.76 C195.02,191.76 206.82,175.58 206.82,175.58 C204.34,177.80 192.35,193.49 191.11,196.50 C190.99,196.78 190.93,197.20 190.93,197.76 C193.85,195.54 201.36,184.92 202.99,181.64 C200.29,183.05 199.01,183.93 197.28,185.72 C194.10,188.95 183.39,199.76 181.93,200.94 C181.93,200.94 195.43,185.26 195.43,185.26 C194.47,185.20 182.40,197.10 180.61,199.33 C180.36,199.64 180.09,200.04 179.79,200.50 C181.12,199.82 195.35,186.75 197.51,185.05 C198.79,184.05 199.64,183.86 200.71,184.14 C199.76,188.43 193.32,199.47 192.08,201.25 C193.63,199.20 221.92,162.70 223.39,159.49 C223.59,159.03 224.09,157.85 224.87,155.95 C219.33,158.52 216.46,163.05 214.91,165.77 C218.52,163.47 232.07,150.26 234.14,147.97 C236.60,145.22 239.29,141.23 239.47,139.62 C237.61,138.74 236.25,138.55 234.42,139.16 C227.66,141.44 210.65,149.95 209.43,150.56 C209.43,150.56 238.75,128.92 238.75,128.92 C238.75,128.92 221.25,137.55 221.25,137.55 C224.13,136.61 242.86,126.96 246.45,123.85 C246.72,123.61 247.21,123.17 247.93,122.51 C232.42,127.93 223.74,134.78 224.04,134.82 C224.04,134.82 245.55,126.99 245.55,126.99 C245.46,128.52 241.72,132.67 239.52,135.11 C233.62,141.79 233.07,144.63 233.24,145.29 C234.49,145.75 238.29,144.80 241.40,143.27 C255.17,136.38 269.84,123.88 271.72,123.05 C271.75,124.59 268.82,128.48 266.72,130.72 C262.45,135.24 253.01,142.30 249.07,144.18 C250.86,142.35 254.68,138.11 256.37,135.98 C258.22,133.60 259.36,129.35 258.69,127.66 C257.58,126.97 253.52,129.32 251.83,130.65 C251.83,130.65 261.13,125.95 261.13,125.95 C261.13,125.95 254.47,129.17 254.47,129.17 C255.75,130.97 259.16,132.40 263.70,132.87 C265.52,133.05 266.74,133.39 268.55,134.12 C268.44,135.31 268.17,136.00 267.30,136.81 C261.94,141.87 250.65,152.67 247.30,157.16 C243.75,162.06 243.26,164.07 243.34,166.32 C246.45,165.84 248.01,165.43 249.48,164.55 C258.54,159.17 272.26,147.37 273.67,146.28 C272.25,148.62 261.44,161.90 256.54,168.11 C251.80,174.32 245.70,182.66 244.37,186.03 C245.88,185.79 246.92,185.32 248.21,184.09 C252.01,180.46 261.38,169.40 265.53,163.11 C272.62,152.11 273.45,150.34 274.57,147.47 C272.52,149.79 260.86,168.04 258.95,171.48 C257.65,173.84 255.72,178.40 254.82,181.00 C257.05,179.60 261.29,174.96 264.81,170.34 C269.46,163.88 275.50,155.42 276.90,153.42 C276.90,153.42 253.14,182.20 253.14,182.20 C253.14,182.20 253.90,183.89 253.90,183.89 C253.90,183.89 283.74,186.51 283.74,186.51 C283.23,187.46 282.46,188.08 280.33,189.09 C272.44,192.83 264.58,195.39 255.85,197.72 C237.54,202.15 225.46,202.59 223.44,202.17 C226.43,200.48 242.63,195.84 250.56,193.57 C258.67,191.05 276.13,185.02 280.47,182.90 C284.45,180.93 285.52,179.75 285.84,178.77 C283.94,178.11 278.15,179.02 273.78,180.06 C260.65,183.26 255.98,184.20 254.48,183.67 C254.12,182.85 255.35,180.28 257.67,177.74 C258.45,176.89 266.03,169.22 268.66,166.57 C266.70,168.34 261.66,173.68 258.73,176.79 C255.38,180.40 253.07,183.10 251.30,186.55 C253.68,185.69 258.52,181.84 261.38,179.50 C264.34,177.06 267.26,174.00 267.37,172.59 C264.05,174.45 259.18,178.27 256.33,180.51 C253.35,182.90 250.17,186.03 247.96,189.15 C251.41,187.42 256.46,183.17 258.88,180.92 C261.34,178.63 264.60,175.11 266.05,172.48 C264.26,173.08 257.10,179.43 255.81,180.71 C252.91,183.65 251.76,185.88 250.61,188.37 C252.88,188.83 258.13,186.88 262.97,183.87 C268.77,179.95 275.09,175.70 276.98,174.62 C276.59,176.07 271.33,183.38 270.59,184.58 C268.72,187.63 267.65,191.01 268.11,192.47 C270.05,192.75 271.38,192.64 272.95,191.88 C275.78,190.50 281.99,186.26 284.72,183.96 C287.09,181.94 292.35,176.62 294.09,173.60 C290.60,175.83 279.00,189.20 277.54,192.34 C277.32,192.82 276.96,193.82 276.46,195.35 C279.28,194.28 284.37,189.71 286.35,187.77 C296.97,177.29 305.48,164.11 307.32,160.85 C300.60,171.42 291.85,189.93 292.53,190.95 C294.91,189.17 299.28,183.62 301.88,180.33 C307.15,173.34 312.51,165.92 313.21,164.95 C313.21,164.95 304.50,184.84 304.50,184.84 C307.23,181.82 315.69,166.29 315.87,163.46 C315.89,163.02 315.85,161.98 315.76,160.36 C315.76,160.36 313.80,159.55 313.80,159.55 C311.15,160.68 307.63,163.02 304.87,165.81 C302.06,168.72 300.76,170.81 299.81,172.72 C301.48,171.48 305.21,166.52 306.89,163.91 C308.67,161.13 310.98,156.47 311.66,153.17 C309.80,153.21 308.59,153.75 307.16,155.40 C305.76,157.01 304.34,158.71 303.45,159.79 C303.45,159.79 308.44,148.92 308.44,148.92 C306.54,148.91 305.04,149.29 302.75,150.52 C300.47,151.76 299.14,152.82 297.66,154.45 C301.13,153.00 305.49,150.34 306.02,148.17 C306.10,147.83 306.04,147.25 305.83,146.43 C304.32,145.48 303.31,145.20 301.62,145.43 C295.43,146.34 287.03,149.65 285.53,149.55 C285.53,149.55 289.63,141.72 289.63,141.72 C289.63,141.72 278.90,147.54 278.90,147.54 C278.90,147.54 291.36,139.98 291.36,139.98 C291.36,139.98 280.96,142.23 280.96,142.23 C280.96,142.23 291.21,137.37 291.21,137.37 C289.37,136.01 288.19,135.48 286.42,135.37 C282.26,135.09 278.27,134.99 276.24,135.06 C276.24,135.06 282.86,135.13 282.86,135.13 C282.86,135.13 269.86,135.64 269.86,135.64 C269.86,135.64 277.59,133.59 277.59,133.59 C276.74,131.91 275.94,131.21 274.18,130.95 C269.83,130.29 265.60,130.10 262.82,130.36 C262.82,130.36 271.81,131.12 271.81,131.12 C271.54,131.94 266.13,135.52 263.85,137.62 C260.29,140.95 253.72,152.68 251.13,159.63 C249.62,163.74 246.95,171.52 246.83,173.97 C246.79,174.98 247.18,175.93 247.72,176.73 C249.13,177.23 252.13,176.35 254.64,174.88 C257.16,173.36 260.64,170.31 263.69,167.19 C263.69,167.19 242.77,197.60 242.77,197.60 C243.66,195.35 247.69,187.67 247.97,187.08 C249.23,184.46 249.68,182.69 249.51,181.39 C246.76,182.56 244.66,184.42 241.10,187.83 C235.67,193.08 234.61,194.01 233.08,195.21 C233.27,194.39 237.16,189.35 239.30,186.57 C241.87,183.15 242.41,181.88 243.06,179.88 C240.50,180.58 237.05,183.62 233.95,186.82 C230.98,189.90 225.94,195.15 223.14,197.82 C223.14,197.82 228.29,183.02 228.29,183.02 C226.29,183.26 223.62,185.59 221.02,188.27 C216.69,192.78 215.53,193.87 213.32,195.85 C213.32,195.85 219.09,190.04 219.09,190.04 C219.12,189.82 214.91,193.01 211.86,196.20 C209.97,198.20 209.28,199.37 209.22,200.40 C210.23,200.46 211.29,200.01 213.53,198.42 C217.74,195.41 219.17,193.44 219.38,192.45 C217.49,192.08 197.03,200.02 194.35,199.74 C194.35,199.74 193.97,198.90 193.97,198.90 C193.97,198.90 195.48,197.87 195.48,197.87" fill="none" stroke="rgb(255, 0, 0)" stroke-width="4.99" stroke-opacity="1.00" stroke-linejoin="round"/>
</g>
</svg>
