<?xml version="1.0" encoding="UTF-8" standalone="no"?>
<!DOCTYPE svg PUBLIC "-//W3C//DTD SVG 1.1//EN" "http://www.w3.org/Graphics/SVG/1.1/DTD/svg11.dtd">
<svg width="128.40" height="181.68" viewBox="0.00 0.00 535.00 757.00" xmlns="http://www.w3.org/2000/svg" xmlns:xlink="http://www.w3.org/1999/xlink">
<g stroke-linecap="round" transform="translate(44.00, 155.00)" id="48-비">
<path d="M94.51,0.57 C94.51,0.57 93.89,0.69 93.89,0.69 C92.63,2.18 91.28,7.51 90.70,11.02 C88.14,27.60 81.12,87.32 80.38,99.11 C79.86,114.36 79.71,133.32 78.15,153.86 C76.89,169.95 74.92,198.22 73.71,213.20 C72.74,228.20 71.37,248.13 70.29,251.77 C70.29,251.77 68.77,251.33 68.77,251.33" fill="none" stroke="rgb(0, 0, 255)" stroke-width="3.16" stroke-opacity="1.00" stroke-linejoin="round"/>
<path d="M146.55,-19.83 C146.92,-20.72 147.16,-21.29 147.27,-21.54 C147.42,-21.85 147.82,-22.47 147.79,-22.45 C147.78,-22.55 147.14,-21.41 146.67,-20.36 C144.87,-16.31 133.28,19.53 130.87,30.94 C127.68,47.12 124.97,70.52 123.71,87.83 C122.19,112.97 122.32,115.50 122.49,116.37 C122.49,116.37 123.76,114.38 123.76,114.38" fill="none" stroke="rgb(0, 0, 255)" stroke-width="3.16" stroke-opacity="1.00" stroke-linejoin="round"/>
<path d="M180.72,-9.69 C180.72,-9.69 179.24,-9.57 179.24,-9.57 C179.24,-9.57 180.53,-10.25 180.53,-10.25 C180.57,-9.89 177.77,-5.39 175.98,-1.86 C174.00,2.08 162.36,34.06 156.82,52.25 C154.82,59.37 149.67,87.27 149.57,89.14 C149.57,89.14 152.05,82.26 152.05,82.26" fill="none" stroke="rgb(0, 0, 255)" stroke-width="3.16" stroke-opacity="1.00" stroke-linejoin="round"/>
<path d="M242.29,-19.65 C242.29,-19.65 242.26,-19.73 242.26,-19.73 C239.47,-14.02 227.94,15.82 222.28,32.33 C214.58,55.00 214.08,57.07 213.83,58.21 C213.83,58.21 216.26,55.49 216.26,55.49" fill="none" stroke="rgb(0, 0, 255)" stroke-width="3.16" stroke-opacity="1.00" stroke-linejoin="round"/>
<path d="M285.14,0.37 C285.03,-0.08 284.96,-0.40 284.93,-0.57 C284.87,-0.86 284.82,-1.15 284.77,-1.44 C284.76,-1.52 284.74,-1.60 284.72,-1.65 C284.87,3.40 278.87,31.63 274.19,48.85 C272.03,56.75 267.93,71.93 267.46,76.67 C266.90,83.36 266.92,88.83 267.56,88.96 C267.56,88.96 268.02,87.81 268.02,87.81" fill="none" stroke="rgb(0, 0, 255)" stroke-width="3.16" stroke-opacity="1.00" stroke-linejoin="round"/>
<path d="M325.17,72.36 C325.17,72.36 324.18,71.55 324.18,71.55 C324.18,71.55 323.88,71.59 323.88,71.59 C323.88,71.59 325.79,71.45 325.79,71.45 C326.26,73.04 326.31,90.55 326.30,97.84 C326.20,104.09 324.85,117.50 323.50,123.84 C322.19,129.61 318.94,142.95 318.29,147.94 C317.47,155.18 315.79,168.95 314.93,175.47 C314.93,175.47 315.67,172.80 315.67,172.80" fill="none" stroke="rgb(0, 0, 255)" stroke-width="3.16" stroke-opacity="1.00" stroke-linejoin="round"/>
<path d="M293.95,107.69 C293.95,107.47 293.95,107.30 293.95,107.19 C293.94,107.09 293.92,106.89 293.88,106.59 C293.88,106.59 293.49,106.26 293.49,106.26 C292.45,106.17 289.78,107.76 288.66,109.70 C286.70,113.20 283.84,122.92 281.64,132.93 C278.56,147.49 271.61,181.52 270.43,190.02 C269.24,199.21 268.72,206.10 268.37,216.04 C268.20,223.54 269.40,235.85 269.99,243.30 C271.06,255.91 271.29,264.22 270.53,271.67 C270.53,271.67 270.34,270.94 270.34,270.94" fill="none" stroke="rgb(0, 0, 255)" stroke-width="3.16" stroke-opacity="1.00" stroke-linejoin="round"/>
<path d="M257.28,160.40 C257.28,160.40 256.67,159.60 256.67,159.60 C256.67,159.60 256.94,159.43 256.94,159.43 C257.50,160.43 255.55,177.24 254.92,184.08 C254.41,190.85 253.55,208.31 253.58,211.74 C253.62,214.78 255.57,258.89 257.02,272.57 C257.57,277.36 258.37,282.20 258.58,283.79 C258.58,283.79 258.38,283.13 258.38,283.13" fill="none" stroke="rgb(0, 0, 255)" stroke-width="3.16" stroke-opacity="1.00" stroke-linejoin="round"/>
<path d="M119.24,140.58 C119.24,140.58 117.94,139.67 117.94,139.67 C117.81,143.01 117.56,146.67 116.77,150.96 C111.81,177.82 110.42,186.51 105.52,206.72 C104.02,212.91 100.62,227.21 100.36,232.65 C100.24,235.79 100.70,237.89 101.16,239.21 C101.16,239.21 101.43,239.10 101.43,239.10 C101.43,239.10 101.41,238.89 101.41,238.89" fill="none" stroke="rgb(0, 0, 255)" stroke-width="3.16" stroke-opacity="1.00" stroke-linejoin="round"/>
<path d="M143.27,206.53 C143.29,206.18 143.31,205.50 143.40,205.32 C143.46,205.19 143.65,204.92 143.97,204.51 C144.22,205.19 142.59,229.30 142.51,233.31 C142.44,237.31 145.21,271.26 145.21,285.43 C145.19,301.06 145.38,337.80 145.71,339.97 C145.71,339.97 145.92,340.18 145.92,340.18 C145.94,340.00 145.94,339.89 145.95,339.85 C145.95,339.80 145.95,339.76 145.94,339.73" fill="none" stroke="rgb(0, 0, 255)" stroke-width="3.16" stroke-opacity="1.00" stroke-linejoin="round"/>
<path d="M367.75,161.83 C367.73,161.39 367.72,161.08 367.71,160.89 C367.71,160.84 367.71,160.40 367.71,159.58 C367.69,157.51 367.07,156.64 366.88,156.55 C365.42,155.94 363.63,168.65 362.85,179.80 C362.30,187.25 360.99,196.82 359.40,205.62 C357.64,214.14 354.87,224.15 352.83,230.85 C351.22,236.14 347.43,252.21 346.58,255.27 C345.35,259.67 341.92,269.56 338.63,280.56 C335.95,289.81 334.12,299.74 333.64,304.28 C331.95,320.41 329.44,331.40 329.45,331.78 C329.45,331.78 330.06,330.78 330.06,330.78" fill="none" stroke="rgb(0, 0, 255)" stroke-width="3.16" stroke-opacity="1.00" stroke-linejoin="round"/>
</g>
</svg>
