<?xml version="1.0" encoding="UTF-8" standalone="no"?>
<!DOCTYPE svg PUBLIC "-//W3C//DTD SVG 1.1//EN" "http://www.w3.org/Graphics/SVG/1.1/DTD/svg11.dtd">
<svg width="128.40" height="181.68" viewBox="0.00 0.00 535.00 757.00" xmlns="http://www.w3.org/2000/svg" xmlns:xlink="http://www.w3.org/1999/xlink">
<g stroke-linecap="round" transform="translate(44.00, 155.00)" id="48-우산">
<path d="M488.83,157.11 C487.80,155.67 486.36,153.78 485.67,153.06 C484.47,151.84 479.61,150.29 474.49,148.83 C461.48,145.24 456.33,143.95 453.92,143.47" fill="none" stroke="rgb(76, 229, 100)" stroke-width="3.16" stroke-opacity="1.00" stroke-linejoin="round"/>
<path d="M200.94,61.55 C200.95,61.26 200.96,61.04 200.97,60.88 C200.97,60.72 200.97,60.41 200.96,59.94 C200.87,59.13 195.64,60.46 190.30,63.04 C184.39,65.94 174.41,73.47 169.63,78.84 C166.66,82.20 155.83,97.06 152.73,102.20 C149.78,107.09 144.54,120.47 144.01,123.23 C143.51,126.11 143.38,128.61 143.83,129.50 C144.23,130.22 145.81,130.70 147.05,130.61 C150.25,130.27 167.08,122.03 174.76,118.20 C184.86,113.26 191.38,111.10 196.64,110.54 C199.26,110.30 204.24,111.53 206.80,112.96 C209.83,114.69 216.13,118.31 219.40,120.19 C222.76,122.14 226.96,123.67 230.09,124.27 C230.42,124.33 235.50,124.98 236.55,125.25 C238.15,125.66 244.02,129.10 247.42,130.31 C248.19,130.58 251.99,131.83 252.63,132.11 C254.34,132.88 255.23,135.20 255.02,135.39 C255.02,135.39 254.62,135.27 254.62,135.27" fill="none" stroke="rgb(76, 229, 100)" stroke-width="3.16" stroke-opacity="1.00" stroke-linejoin="round"/>
<path d="M202.65,63.12 C202.65,63.12 201.67,63.37 201.67,63.37 C201.63,63.34 201.61,63.31 201.61,63.29 C201.60,63.27 201.59,63.25 201.59,63.20 C201.59,63.20 201.31,63.59 201.31,63.59 C201.18,64.81 204.30,67.55 208.46,69.23 C210.11,69.88 221.31,73.17 221.88,73.43 C223.80,74.31 233.72,80.85 236.98,84.31 C239.11,86.60 246.61,98.42 248.35,101.98 C252.40,110.41 257.67,132.70 258.02,134.28 C258.02,134.28 257.76,132.86 257.76,132.86" fill="none" stroke="rgb(76, 229, 100)" stroke-width="3.16" stroke-opacity="1.00" stroke-linejoin="round"/>
<path d="M217.22,123.39 C217.82,122.02 218.13,122.01 218.29,121.31 C218.35,121.05 218.42,120.80 218.48,120.54 C218.87,121.76 218.00,168.97 218.09,175.58 C218.33,201.15 218.55,204.73 218.72,205.05 C218.72,205.05 218.79,204.93 218.79,204.93 C218.79,204.93 218.75,204.76 218.75,204.76" fill="none" stroke="rgb(76, 229, 100)" stroke-width="3.16" stroke-opacity="1.00" stroke-linejoin="round"/>
<path d="M222.85,124.87 C223.21,124.15 223.58,123.43 223.95,122.70 C223.97,122.66 224.05,122.54 224.03,122.58 C224.03,122.58 224.18,122.61 224.18,122.61 C224.23,126.75 223.97,133.57 223.83,137.56 C222.59,169.04 222.48,202.05 221.95,204.69 C221.95,204.69 219.57,205.95 219.57,205.95 C219.57,205.95 219.80,205.49 219.80,205.49" fill="none" stroke="rgb(76, 229, 100)" stroke-width="3.16" stroke-opacity="1.00" stroke-linejoin="round"/>
</g>
</svg>
