<?xml version="1.0" encoding="UTF-8" standalone="no"?>
<!DOCTYPE svg PUBLIC "-//W3C//DTD SVG 1.1//EN" "http://www.w3.org/Graphics/SVG/1.1/DTD/svg11.dtd">
<svg width="128.40" height="181.68" viewBox="0.00 0.00 535.00 757.00" xmlns="http://www.w3.org/2000/svg" xmlns:xlink="http://www.w3.org/1999/xlink">
<g stroke-linecap="round" transform="translate(44.00, 155.00)" id="49-비">
<path d="M85.52,92.11 C85.52,92.11 85.36,111.64 85.36,111.64" fill="none" stroke="rgb(76, 129, 229)" stroke-width="4.45" stroke-opacity="1.00" stroke-linejoin="round"/>
<path d="M86.92,90.35 C85.63,90.95 84.93,92.79 84.59,97.04 C84.19,102.32 84.20,106.39 84.66,108.34 C85.12,110.24 85.39,110.95 85.59,110.93" fill="none" stroke="rgb(76, 129, 229)" stroke-width="4.45" stroke-opacity="1.00" stroke-linejoin="round"/>
<path d="M97.04,94.21 C97.04,94.21 96.54,93.42 96.54,93.42 C96.13,94.16 96.10,97.24 96.28,103.61 C96.63,111.72 97.96,117.42 98.39,118.79" fill="none" stroke="rgb(76, 129, 229)" stroke-width="4.45" stroke-opacity="1.00" stroke-linejoin="round"/>
<path d="M40.20,136.49 C40.03,136.41 39.89,136.30 39.79,136.16 C39.69,136.02 39.48,135.65 39.17,135.06 C39.03,135.01 36.46,142.03 37.27,147.50 C37.50,149.04 38.38,150.22 39.31,150.68 C39.31,150.68 41.56,149.46 41.56,149.46" fill="none" stroke="rgb(76, 129, 229)" stroke-width="4.45" stroke-opacity="1.00" stroke-linejoin="round"/>
<path d="M73.06,167.25 C72.49,167.29 72.05,167.33 71.73,167.38 C71.40,167.43 70.75,167.55 69.77,167.74 C69.40,169.40 71.08,189.48 71.26,190.99 C71.70,194.53 73.03,198.93 73.78,199.20 C73.78,199.20 74.30,198.80 74.30,198.80" fill="none" stroke="rgb(76, 129, 229)" stroke-width="4.45" stroke-opacity="1.00" stroke-linejoin="round"/>
<path d="M80.02,198.19 C79.34,200.10 79.04,201.72 79.01,204.28 C78.98,208.64 79.14,216.66 79.25,217.39 C79.53,219.12 80.17,221.38 80.18,221.30" fill="none" stroke="rgb(76, 129, 229)" stroke-width="4.45" stroke-opacity="1.00" stroke-linejoin="round"/>
<path d="M94.53,187.54 C94.53,187.54 94.58,187.02 94.58,187.02 C94.58,187.02 94.84,187.17 94.84,187.17 C95.96,192.96 98.03,203.38 101.44,212.03 C103.53,217.08 105.36,220.83 107.27,223.92 C107.42,224.20 107.66,224.68 107.99,225.37" fill="none" stroke="rgb(76, 129, 229)" stroke-width="4.45" stroke-opacity="1.00" stroke-linejoin="round"/>
<path d="M113.94,150.47 C113.94,150.33 113.95,150.21 113.96,150.13 C113.97,150.04 114.01,149.86 114.06,149.60 C114.06,149.60 114.18,149.49 114.18,149.49 C114.75,150.54 115.14,151.33 115.37,151.86 C115.71,152.66 117.34,157.22 117.93,158.88" fill="none" stroke="rgb(76, 129, 229)" stroke-width="4.45" stroke-opacity="1.00" stroke-linejoin="round"/>
<path d="M144.41,141.81 C144.41,141.81 143.92,142.11 143.92,142.11 C143.51,143.05 143.94,148.35 144.11,152.06 C144.48,159.06 144.90,166.98 144.95,167.91" fill="none" stroke="rgb(76, 129, 229)" stroke-width="4.45" stroke-opacity="1.00" stroke-linejoin="round"/>
<path d="M150.61,196.32 C150.61,196.32 150.08,194.97 150.08,194.97 C150.20,195.76 150.56,198.00 150.80,199.47 C151.48,203.48 152.68,206.42 153.18,207.22" fill="none" stroke="rgb(76, 129, 229)" stroke-width="4.45" stroke-opacity="1.00" stroke-linejoin="round"/>
<path d="M173.82,146.84 C173.25,146.79 172.32,148.67 172.19,151.60 C171.97,157.32 173.49,171.78 174.00,174.47" fill="none" stroke="rgb(76, 129, 229)" stroke-width="4.45" stroke-opacity="1.00" stroke-linejoin="round"/>
<path d="M195.75,147.84 C196.11,151.44 196.85,159.38 197.06,163.39 C197.21,166.95 197.51,174.03 197.79,177.87 C197.84,178.46 197.91,179.26 198.00,180.27" fill="none" stroke="rgb(76, 129, 229)" stroke-width="4.45" stroke-opacity="1.00" stroke-linejoin="round"/>
<path d="M211.77,104.10 C211.77,104.10 211.15,104.18 211.15,104.18 C211.15,104.18 210.51,104.84 210.51,104.84 C210.11,109.43 211.19,122.06 212.31,127.56 C212.85,130.19 214.06,135.14 215.57,138.85" fill="none" stroke="rgb(76, 129, 229)" stroke-width="4.45" stroke-opacity="1.00" stroke-linejoin="round"/>
<path d="M241.83,96.26 C241.83,96.26 240.78,95.49 240.78,95.49 C241.26,102.49 242.59,119.95 243.42,124.15 C243.96,126.83 245.02,131.10 245.30,132.23" fill="none" stroke="rgb(76, 129, 229)" stroke-width="4.45" stroke-opacity="1.00" stroke-linejoin="round"/>
<path d="M237.27,57.37 C237.27,57.37 235.54,57.32 235.54,57.32 C236.03,59.85 236.61,64.72 236.45,67.23 C236.36,68.57 235.88,73.21 235.69,74.98" fill="none" stroke="rgb(76, 129, 229)" stroke-width="4.45" stroke-opacity="1.00" stroke-linejoin="round"/>
<path d="M289.55,100.59 C289.55,100.59 288.35,100.69 288.35,100.69 C288.35,100.69 287.74,101.32 287.74,101.32 C287.82,103.65 288.13,111.01 288.29,113.55 C288.98,123.13 289.89,129.23 290.15,130.74" fill="none" stroke="rgb(76, 129, 229)" stroke-width="4.45" stroke-opacity="1.00" stroke-linejoin="round"/>
<path d="M298.73,148.36 C298.73,148.36 299.20,146.28 299.20,146.28 C299.35,146.45 298.89,153.15 298.85,157.56 C298.83,160.35 298.99,162.05 299.36,163.66" fill="none" stroke="rgb(76, 129, 229)" stroke-width="4.45" stroke-opacity="1.00" stroke-linejoin="round"/>
<path d="M277.56,177.84 C277.56,177.84 275.64,179.21 275.64,179.21 C276.26,182.95 278.11,194.19 278.19,194.71 C278.26,195.23 278.39,196.24 278.58,197.73" fill="none" stroke="rgb(76, 129, 229)" stroke-width="4.45" stroke-opacity="1.00" stroke-linejoin="round"/>
<path d="M287.33,186.61 C287.33,186.61 287.24,186.37 287.24,186.37 C287.24,186.37 287.04,186.56 287.04,186.56 C286.97,189.99 286.82,198.61 286.86,199.39 C287.20,206.41 288.57,210.98 289.22,212.36" fill="none" stroke="rgb(76, 129, 229)" stroke-width="4.45" stroke-opacity="1.00" stroke-linejoin="round"/>
<path d="M300.25,196.55 C299.63,198.57 299.77,204.55 299.86,208.01 C300.00,211.73 300.35,219.27 300.56,223.09 C300.69,225.24 300.90,226.55 301.37,228.51 C301.37,228.51 301.51,227.17 301.51,227.17" fill="none" stroke="rgb(76, 129, 229)" stroke-width="4.45" stroke-opacity="1.00" stroke-linejoin="round"/>
<path d="M365.86,119.07 C365.86,119.07 364.98,118.12 364.98,118.12 C366.36,119.59 367.79,134.94 368.53,143.08 C368.86,146.76 369.55,154.53 369.99,157.71 C370.08,158.38 370.39,160.23 370.43,160.50" fill="none" stroke="rgb(76, 129, 229)" stroke-width="4.45" stroke-opacity="1.00" stroke-linejoin="round"/>
<path d="M391.95,142.69 C391.95,142.69 391.27,142.03 391.27,142.03 C392.86,142.79 392.70,155.01 392.09,166.41 C391.89,169.35 391.25,176.08 391.19,178.70 C391.19,178.70 391.41,178.58 391.41,178.58 C391.41,178.58 391.71,177.87 391.71,177.87" fill="none" stroke="rgb(76, 129, 229)" stroke-width="4.45" stroke-opacity="1.00" stroke-linejoin="round"/>
<path d="M408.44,167.78 C408.44,167.78 408.87,164.49 408.87,164.49 C409.65,165.64 409.36,169.80 409.13,172.34 C408.42,180.09 407.09,194.79 406.47,201.73 C406.14,206.07 406.01,208.49 406.00,208.51 C406.00,208.51 405.98,207.15 405.98,207.15" fill="none" stroke="rgb(76, 129, 229)" stroke-width="4.45" stroke-opacity="1.00" stroke-linejoin="round"/>
<path d="M335.63,200.12 C335.63,200.12 335.22,199.90 335.22,199.90 C334.98,199.37 334.85,199.00 334.83,198.78 C334.80,198.56 334.85,198.19 334.98,197.65 C334.97,199.62 334.98,203.07 334.99,204.56 C335.03,207.68 335.08,211.26 335.13,212.16" fill="none" stroke="rgb(76, 129, 229)" stroke-width="4.45" stroke-opacity="1.00" stroke-linejoin="round"/>
<path d="M344.40,247.66 C344.40,247.66 344.17,247.84 344.17,247.84 C343.96,250.79 344.25,257.40 344.41,261.24 C344.60,264.97 344.89,267.93 345.00,268.72" fill="none" stroke="rgb(76, 129, 229)" stroke-width="4.45" stroke-opacity="1.00" stroke-linejoin="round"/>
<path d="M318.67,265.05 C318.65,265.41 319.23,271.09 319.39,274.41 C319.65,282.10 320.07,297.59 320.23,305.40" fill="none" stroke="rgb(76, 129, 229)" stroke-width="4.45" stroke-opacity="1.00" stroke-linejoin="round"/>
<path d="M323.47,322.10 C323.47,322.10 323.10,322.03 323.10,322.03 C323.10,322.03 323.08,321.94 323.08,321.94 C323.41,324.19 323.65,333.00 323.78,335.39 C323.97,339.06 324.39,342.05 324.57,343.16" fill="none" stroke="rgb(76, 129, 229)" stroke-width="4.45" stroke-opacity="1.00" stroke-linejoin="round"/>
<path d="M332.06,330.23 C332.06,330.23 331.18,325.45 331.18,325.45 C331.87,326.32 332.38,330.76 332.90,337.41 C333.21,341.54 333.45,346.91 333.47,347.99 C333.48,348.22 333.48,348.47 333.47,348.74 C333.47,348.74 333.49,348.01 333.49,348.01" fill="none" stroke="rgb(76, 129, 229)" stroke-width="4.45" stroke-opacity="1.00" stroke-linejoin="round"/>
<path d="M337.39,366.95 C337.38,366.39 337.38,365.96 337.39,365.67 C337.40,365.39 337.43,364.83 337.50,364.01 C337.78,366.75 337.55,373.80 337.53,375.51 C337.51,376.82 337.59,377.59 337.76,378.44 C338.02,377.84 338.18,377.37 338.23,377.05 C338.30,376.56 338.37,369.97 338.40,368.26" fill="none" stroke="rgb(76, 129, 229)" stroke-width="4.45" stroke-opacity="1.00" stroke-linejoin="round"/>
<path d="M370.02,293.09 C370.02,293.09 368.81,293.42 368.81,293.42 C370.66,295.10 371.52,296.39 371.84,298.37 C372.23,300.86 372.92,306.32 373.06,307.56" fill="none" stroke="rgb(76, 129, 229)" stroke-width="4.45" stroke-opacity="1.00" stroke-linejoin="round"/>
<path d="M378.50,309.82 C378.50,309.82 378.06,309.34 378.06,309.34 C378.51,312.07 377.10,327.93 377.44,335.34 C377.55,337.55 377.75,338.69 378.24,340.25 C378.24,340.25 378.93,340.29 378.93,340.29 C378.93,340.29 379.16,339.93 379.16,339.93" fill="none" stroke="rgb(76, 129, 229)" stroke-width="4.45" stroke-opacity="1.00" stroke-linejoin="round"/>
<path d="M387.33,358.35 C387.26,357.80 387.21,357.37 387.16,357.08 C386.95,355.82 386.67,354.72 386.45,354.27 C386.39,354.26 386.28,363.12 387.50,365.32 C387.63,365.54 387.84,365.70 388.16,365.80 C388.16,365.80 388.50,365.46 388.50,365.46" fill="none" stroke="rgb(76, 129, 229)" stroke-width="4.45" stroke-opacity="1.00" stroke-linejoin="round"/>
<path d="M415.34,322.86 C414.66,323.48 414.75,328.91 413.97,332.31 C413.23,335.30 411.56,342.02 410.62,345.73 C409.76,349.34 408.42,355.18 407.68,358.41 C407.60,358.76 407.55,359.03 407.52,359.23 C407.52,359.23 407.55,357.87 407.55,357.87" fill="none" stroke="rgb(76, 129, 229)" stroke-width="4.45" stroke-opacity="1.00" stroke-linejoin="round"/>
<path d="M415.05,298.42 C414.09,299.64 412.80,300.39 412.45,300.75 C411.60,301.67 411.13,306.45 411.21,309.17 C411.30,311.96 411.99,313.35 412.15,313.35 C412.15,313.35 412.75,311.82 412.75,311.82" fill="none" stroke="rgb(76, 129, 229)" stroke-width="4.45" stroke-opacity="1.00" stroke-linejoin="round"/>
<path d="M419.61,281.05 C419.61,281.05 419.80,280.70 419.80,280.70 C420.17,280.93 421.23,284.99 421.96,288.39 C422.26,289.82 422.81,292.36 423.05,293.48" fill="none" stroke="rgb(76, 129, 229)" stroke-width="4.45" stroke-opacity="1.00" stroke-linejoin="round"/>
<path d="M402.76,241.81 C402.76,241.81 402.05,240.95 402.05,240.95 C401.12,245.75 400.37,259.64 400.13,266.29 C400.00,274.16 400.51,286.78 401.44,290.86 C401.44,290.86 401.74,291.04 401.74,291.04" fill="none" stroke="rgb(76, 129, 229)" stroke-width="4.45" stroke-opacity="1.00" stroke-linejoin="round"/>
<path d="M38.68,231.34 C38.68,231.34 37.16,233.07 37.16,233.07 C36.96,231.83 36.82,230.99 36.76,230.58 C36.70,230.16 36.63,229.58 36.54,228.83 C36.50,232.27 37.61,251.77 38.31,255.89 C38.92,259.37 39.72,262.04 40.50,262.79 C40.50,262.79 41.75,260.72 41.75,260.72" fill="none" stroke="rgb(76, 129, 229)" stroke-width="4.45" stroke-opacity="1.00" stroke-linejoin="round"/>
<path d="M122.65,234.09 C121.62,235.04 121.31,236.77 120.79,242.63 C120.09,250.86 119.67,262.54 119.48,269.30 C119.37,283.16 121.20,302.24 122.18,306.28" fill="none" stroke="rgb(76, 129, 229)" stroke-width="4.45" stroke-opacity="1.00" stroke-linejoin="round"/>
<path d="M83.36,288.30 C83.15,288.11 83.00,287.99 82.88,287.92 C82.77,287.85 82.53,287.75 82.18,287.61 C82.18,287.61 81.83,287.78 81.83,287.78 C82.46,289.69 83.07,293.18 83.88,298.54 C84.38,301.74 85.24,305.65 86.17,307.84 C86.17,307.84 86.46,307.80 86.46,307.80" fill="none" stroke="rgb(76, 129, 229)" stroke-width="4.45" stroke-opacity="1.00" stroke-linejoin="round"/>
<path d="M54.58,286.37 C54.58,286.37 54.64,285.51 54.64,285.51 C55.19,289.32 55.60,295.50 55.84,299.17 C56.61,309.78 58.93,324.66 60.80,328.62 C60.80,328.62 61.59,328.50 61.59,328.50 C61.59,328.50 61.87,327.13 61.87,327.13" fill="none" stroke="rgb(76, 129, 229)" stroke-width="4.45" stroke-opacity="1.00" stroke-linejoin="round"/>
<path d="M26.81,287.60 C26.81,287.60 26.13,287.82 26.13,287.82 C24.96,289.24 24.63,295.02 24.83,299.48 C25.08,304.80 27.34,314.28 28.53,317.63" fill="none" stroke="rgb(76, 129, 229)" stroke-width="4.45" stroke-opacity="1.00" stroke-linejoin="round"/>
<path d="M61.95,341.34 C61.96,340.95 61.96,340.68 61.93,340.52 C61.87,340.18 61.61,339.66 61.59,339.71 C61.59,339.71 62.74,359.05 62.74,359.05 C62.74,359.05 64.59,355.63 64.59,355.63" fill="none" stroke="rgb(76, 129, 229)" stroke-width="4.45" stroke-opacity="1.00" stroke-linejoin="round"/>
<path d="M106.98,300.29 C106.98,300.29 108.59,298.88 108.59,298.88 C109.71,299.96 110.29,301.36 110.58,303.97 C112.35,322.10 113.13,340.96 112.32,345.17 C112.32,345.17 112.65,342.77 112.65,342.77" fill="none" stroke="rgb(76, 129, 229)" stroke-width="4.45" stroke-opacity="1.00" stroke-linejoin="round"/>
<path d="M59.79,378.65 C59.45,377.06 59.25,376.01 59.19,375.52 C59.06,374.53 59.25,371.85 59.40,371.42 C59.45,371.25 59.58,371.10 59.78,370.97 C60.18,372.92 60.00,377.78 59.55,382.21 C59.11,386.44 58.31,394.34 58.35,396.49 C58.43,398.64 59.67,400.48 60.43,400.91 C60.43,400.91 64.62,397.92 64.62,397.92" fill="none" stroke="rgb(76, 129, 229)" stroke-width="4.45" stroke-opacity="1.00" stroke-linejoin="round"/>
<path d="M95.64,399.29 C95.64,399.29 94.78,399.18 94.78,399.18 C94.78,399.18 96.86,414.43 96.86,414.43 C97.15,414.00 97.37,413.36 97.54,412.33 C97.57,412.14 97.62,411.82 97.68,411.35" fill="none" stroke="rgb(76, 129, 229)" stroke-width="4.45" stroke-opacity="1.00" stroke-linejoin="round"/>
<path d="M105.64,396.48 C105.64,396.48 105.27,396.42 105.27,396.42 C105.27,396.42 105.20,396.52 105.20,396.52 C105.52,399.66 106.22,406.49 106.60,408.57 C106.72,409.24 106.98,410.08 107.35,411.19 C107.35,411.19 107.57,409.72 107.57,409.72" fill="none" stroke="rgb(76, 129, 229)" stroke-width="4.45" stroke-opacity="1.00" stroke-linejoin="round"/>
<path d="M117.62,381.16 C117.62,381.16 117.30,381.70 117.30,381.70 C117.78,384.53 118.17,391.35 118.27,392.57 C118.63,396.63 118.95,397.74 119.16,397.97 C119.16,397.97 119.20,396.81 119.20,396.81" fill="none" stroke="rgb(76, 129, 229)" stroke-width="4.45" stroke-opacity="1.00" stroke-linejoin="round"/>
<path d="M122.48,369.00 C122.42,369.09 122.40,369.23 122.42,369.40 C122.74,371.67 123.22,380.90 123.28,381.50 C123.47,383.32 123.85,384.93 124.16,385.52 C124.33,385.34 124.43,385.20 124.46,385.11 C124.50,385.01 124.52,384.83 124.52,384.56" fill="none" stroke="rgb(76, 129, 229)" stroke-width="4.45" stroke-opacity="1.00" stroke-linejoin="round"/>
<path d="M87.68,431.57 C87.77,431.01 87.80,430.64 87.77,430.44 C87.74,430.25 87.62,429.97 87.39,429.60 C87.29,429.59 86.62,437.85 88.47,442.15 C88.63,442.52 88.91,442.84 89.29,443.10 C89.29,443.10 89.97,441.34 89.97,441.34" fill="none" stroke="rgb(76, 129, 229)" stroke-width="4.45" stroke-opacity="1.00" stroke-linejoin="round"/>
<path d="M243.52,216.08 C243.52,216.08 243.30,215.90 243.30,215.90 C243.30,215.90 242.80,211.17 242.80,211.17" fill="none" stroke="rgb(76, 129, 229)" stroke-width="4.45" stroke-opacity="1.00" stroke-linejoin="round"/>
<path d="M241.71,206.37 C241.60,206.06 241.45,205.52 241.41,205.24 C241.39,205.13 241.37,204.93 241.36,204.65 C241.60,208.61 242.14,217.49 242.50,220.15 C243.46,227.03 245.45,230.40 246.12,230.83 C246.12,230.83 246.71,230.64 246.71,230.64 C246.71,230.64 246.85,230.39 246.85,230.39" fill="none" stroke="rgb(76, 129, 229)" stroke-width="4.45" stroke-opacity="1.00" stroke-linejoin="round"/>
<path d="M254.87,230.82 C254.65,230.34 254.51,230.03 254.43,229.88 C254.14,229.30 253.86,229.00 253.65,228.95 C253.56,234.23 256.06,249.91 257.74,257.15 C258.59,260.74 259.18,261.98 259.97,263.35 C259.97,263.35 260.66,260.82 260.66,260.82" fill="none" stroke="rgb(76, 129, 229)" stroke-width="4.45" stroke-opacity="1.00" stroke-linejoin="round"/>
<path d="M274.69,251.57 C274.69,251.57 274.23,251.37 274.23,251.37 C274.23,251.37 274.20,250.76 274.20,250.76 C274.57,252.96 274.99,259.34 275.35,260.75 C275.43,261.06 275.57,261.21 275.76,261.21 C275.76,261.21 275.88,260.99 275.88,260.99" fill="none" stroke="rgb(76, 129, 229)" stroke-width="4.45" stroke-opacity="1.00" stroke-linejoin="round"/>
<path d="M235.34,292.92 C235.37,292.60 235.39,292.33 235.41,292.13 C235.49,291.40 235.54,290.95 235.55,290.78 C235.56,290.54 235.57,290.10 235.57,289.46 C235.65,289.43 235.96,293.83 236.14,296.41 C236.21,297.57 236.32,299.46 236.36,300.18 C236.36,300.18 236.29,299.71 236.29,299.71" fill="none" stroke="rgb(76, 129, 229)" stroke-width="4.45" stroke-opacity="1.00" stroke-linejoin="round"/>
<path d="M239.14,305.32 C239.14,305.32 238.35,303.84 238.35,303.84 C238.35,303.84 238.27,303.91 238.27,303.91 C238.51,305.87 238.64,307.16 238.74,308.65 C238.84,310.12 239.06,310.88 239.53,311.60 C239.53,311.60 239.85,310.80 239.85,310.80" fill="none" stroke="rgb(76, 129, 229)" stroke-width="4.45" stroke-opacity="1.00" stroke-linejoin="round"/>
<path d="M236.68,333.62 C236.67,331.61 236.66,330.39 236.67,329.93 C236.68,329.53 236.72,329.10 236.79,328.66 C236.82,328.44 236.87,328.10 236.93,327.65 C237.17,330.38 237.59,340.13 237.59,340.60 C237.59,340.93 237.58,341.34 237.54,341.84 C237.54,341.84 237.32,341.37 237.32,341.37" fill="none" stroke="rgb(76, 129, 229)" stroke-width="4.45" stroke-opacity="1.00" stroke-linejoin="round"/>
<path d="M234.69,352.45 C234.60,351.41 234.34,348.54 234.29,348.12 C234.25,347.85 234.19,347.53 234.10,347.15 C234.10,347.15 234.02,347.15 234.02,347.15 C233.97,348.76 233.89,351.99 233.85,353.61 C233.81,355.12 233.75,357.53 233.73,358.44 C233.73,358.44 233.78,356.42 233.78,356.42" fill="none" stroke="rgb(76, 129, 229)" stroke-width="4.45" stroke-opacity="1.00" stroke-linejoin="round"/>
</g>
</svg>
