<?xml version="1.0" encoding="UTF-8" standalone="no"?>
<!DOCTYPE svg PUBLIC "-//W3C//DTD SVG 1.1//EN" "http://www.w3.org/Graphics/SVG/1.1/DTD/svg11.dtd">
<svg width="64.20" height="90.84" viewBox="0.00 0.00 535.00 757.00" xmlns="http://www.w3.org/2000/svg" xmlns:xlink="http://www.w3.org/1999/xlink">
<g stroke-linecap="round" transform="translate(154.00, 267.00)" id="5-사람">
<path d="M194.92,65.82 C194.92,65.82 195.14,65.82 195.14,65.82 C191.45,68.79 189.43,70.95 187.05,74.77 C183.82,80.07 178.34,91.43 176.56,97.74 C174.79,104.14 173.34,117.21 173.17,123.13 C173.06,127.74 173.96,137.44 175.04,141.33 C175.04,141.33 177.08,139.57 177.08,139.57" fill="none" stroke="rgb(255, 151, 0)" stroke-width="2.40" stroke-opacity="1.00" stroke-linejoin="round"/>
<path d="M214.06,69.90 C214.06,69.90 213.84,69.97 213.84,69.97 C213.68,70.67 211.85,76.27 211.27,77.21 C210.12,79.00 199.38,85.21 198.86,85.57 C196.56,87.18 192.18,92.29 190.56,95.31 C187.42,101.25 184.36,108.11 182.87,114.86 C182.45,116.80 181.55,122.60 181.74,123.73 C181.82,124.25 182.87,125.92 183.31,126.66" fill="none" stroke="rgb(255, 151, 0)" stroke-width="2.40" stroke-opacity="1.00" stroke-linejoin="round"/>
<path d="M184.82,113.33 C184.88,115.97 186.01,121.05 187.28,123.20 C188.28,124.88 191.67,129.14 193.91,131.47 C196.18,133.80 198.74,135.57 201.28,136.19 C203.53,136.72 212.57,137.48 213.86,137.55 C217.76,137.74 223.65,137.18 226.84,136.28 C229.70,135.44 233.94,133.35 235.35,131.90 C238.17,128.89 241.97,119.86 242.01,119.64 C242.04,119.44 242.11,118.85 242.22,117.85" fill="none" stroke="rgb(255, 151, 0)" stroke-width="2.40" stroke-opacity="1.00" stroke-linejoin="round"/>
<path d="M226.96,72.27 C229.34,72.25 231.68,72.73 234.75,75.36 C236.14,76.57 238.00,80.03 238.83,82.73 C240.28,87.59 241.58,96.74 242.03,102.68 C242.84,115.49 242.62,125.43 240.94,129.40 C240.74,129.85 239.91,130.86 239.28,131.53 C239.08,131.74 238.63,132.19 237.92,132.90" fill="none" stroke="rgb(255, 151, 0)" stroke-width="2.40" stroke-opacity="1.00" stroke-linejoin="round"/>
<path d="M234.27,67.32 C234.47,67.46 237.57,68.07 240.13,68.44 C241.98,68.78 244.50,70.52 247.32,73.11 C251.01,76.53 254.51,80.53 255.73,83.81 C257.66,89.20 258.87,102.70 258.70,108.57 C258.55,113.49 255.29,129.25 252.93,135.00 C252.08,137.00 250.94,138.68 249.73,139.61 C249.33,139.90 246.63,141.85 246.52,141.93" fill="none" stroke="rgb(255, 151, 0)" stroke-width="2.40" stroke-opacity="1.00" stroke-linejoin="round"/>
<path d="M185.68,101.08 C185.68,100.82 185.55,99.91 184.80,99.51 C183.96,99.10 181.84,99.01 180.99,99.85 C179.98,100.93 178.98,104.85 179.28,106.78 C179.45,107.73 180.14,109.12 180.82,109.93 C181.78,111.03 185.01,112.41 185.99,112.79" fill="none" stroke="rgb(255, 151, 0)" stroke-width="2.40" stroke-opacity="1.00" stroke-linejoin="round"/>
<path d="M243.30,108.39 C243.14,108.26 243.00,107.49 243.60,106.75 C244.46,105.71 247.07,104.58 249.54,104.83 C250.78,104.99 253.03,107.34 253.44,109.11 C254.08,112.28 251.13,117.12 249.85,118.26 C248.07,119.76 245.45,119.36 242.22,118.71" fill="none" stroke="rgb(255, 151, 0)" stroke-width="2.40" stroke-opacity="1.00" stroke-linejoin="round"/>
<path d="M222.01,105.81 C222.01,105.81 221.80,105.74 221.80,105.74 C222.01,105.23 224.32,103.18 226.51,102.66 C231.69,101.50 237.27,103.13 237.84,104.09 C237.84,104.09 237.49,106.24 237.49,106.24" fill="none" stroke="rgb(255, 151, 0)" stroke-width="2.40" stroke-opacity="1.00" stroke-linejoin="round"/>
<path d="M192.13,99.14 C192.13,99.14 192.13,98.82 192.13,98.82 C192.99,98.44 196.41,98.69 199.56,99.86 C202.03,100.80 203.12,101.64 203.39,101.98 C203.39,101.98 203.20,102.62 203.20,102.62" fill="none" stroke="rgb(255, 151, 0)" stroke-width="2.40" stroke-opacity="1.00" stroke-linejoin="round"/>
<path d="M196.64,105.16 C195.60,105.09 193.17,104.96 192.37,105.69 C191.51,106.52 190.18,110.35 190.33,111.64 C190.53,113.00 192.90,114.65 194.74,114.96 C196.50,115.23 200.12,114.81 201.45,114.20 C202.69,113.59 203.64,111.86 203.20,110.67 C202.14,107.98 197.10,104.99 196.54,104.82 C196.54,104.82 195.14,105.59 195.14,105.59" fill="none" stroke="rgb(255, 151, 0)" stroke-width="2.40" stroke-opacity="1.00" stroke-linejoin="round"/>
<path d="M194.49,108.82 C194.49,108.82 194.38,108.82 194.38,108.82 C194.38,108.82 194.28,108.93 194.28,108.93 C194.27,108.99 194.32,109.17 194.46,109.39 C195.84,111.34 201.59,110.38 201.67,110.30 C201.86,110.10 202.23,109.72 202.76,109.16" fill="none" stroke="rgb(255, 151, 0)" stroke-width="2.40" stroke-opacity="1.00" stroke-linejoin="round"/>
<path d="M225.67,110.75 C224.75,110.74 224.17,110.79 223.88,110.98 C223.02,111.57 222.46,113.76 222.86,114.35 C223.59,115.23 227.71,115.02 236.50,113.60 C236.97,113.51 237.56,113.34 238.27,113.09 C238.20,112.14 237.94,111.66 237.10,111.27 C234.88,110.29 226.70,111.07 226.45,111.04 C226.15,111.00 225.50,110.62 224.38,109.89" fill="none" stroke="rgb(255, 151, 0)" stroke-width="2.40" stroke-opacity="1.00" stroke-linejoin="round"/>
<path d="M212.34,113.98 C212.34,113.98 211.80,114.36 211.80,114.36 C211.51,115.57 211.48,120.20 211.48,120.20 C211.59,120.42 211.71,120.67 211.85,120.97" fill="none" stroke="rgb(255, 151, 0)" stroke-width="2.40" stroke-opacity="1.00" stroke-linejoin="round"/>
<path d="M206.53,127.74 C206.53,127.74 206.53,127.63 206.53,127.63 C206.53,127.63 206.45,127.52 206.45,127.52 C206.45,127.52 206.34,127.52 206.34,127.52 C206.62,127.54 213.15,130.02 214.71,130.16 C216.13,130.27 218.78,129.45 218.98,129.35 C218.98,129.35 219.71,129.57 219.71,129.57" fill="none" stroke="rgb(255, 151, 0)" stroke-width="2.40" stroke-opacity="1.00" stroke-linejoin="round"/>
<path d="M211.48,138.71 C211.48,138.71 211.16,138.77 211.16,138.77 C210.99,139.02 210.84,141.09 210.77,141.92 C210.76,141.95 210.47,144.28 210.42,144.95 C210.42,144.95 210.83,144.73 210.83,144.73" fill="none" stroke="rgb(255, 151, 0)" stroke-width="2.40" stroke-opacity="1.00" stroke-linejoin="round"/>
<path d="M214.06,139.14 C213.93,139.38 212.42,143.27 212.37,143.93 C212.36,144.18 212.37,144.39 212.40,144.56 C212.42,144.63 212.47,144.75 212.55,144.93" fill="none" stroke="rgb(255, 151, 0)" stroke-width="2.40" stroke-opacity="1.00" stroke-linejoin="round"/>
<path d="M205.03,142.15 C205.03,142.15 204.60,142.15 204.60,142.15 C204.97,143.38 213.40,146.98 217.22,146.68 C218.57,146.53 228.00,141.68 229.95,142.17 C230.60,142.93 230.80,145.42 230.50,146.01 C230.02,146.83 228.17,147.50 224.08,148.10 C219.90,148.69 214.86,149.11 213.43,149.08 C209.59,148.96 204.13,147.45 202.91,146.57 C201.08,145.17 201.39,143.67 201.55,143.25 C201.55,143.25 204.25,142.18 204.25,142.18" fill="none" stroke="rgb(255, 151, 0)" stroke-width="2.40" stroke-opacity="1.00" stroke-linejoin="round"/>
<path d="M199.01,148.60 C199.01,148.60 199.87,147.31 199.87,147.31" fill="none" stroke="rgb(255, 151, 0)" stroke-width="2.40" stroke-opacity="1.00" stroke-linejoin="round"/>
<path d="M202.23,147.31 C202.23,147.41 202.23,147.52 202.23,147.63 C202.23,147.74 202.23,147.84 202.23,147.95 C202.24,147.95 202.22,147.95 202.21,147.95 C200.90,147.98 193.74,146.56 192.54,146.32 C186.48,145.18 183.68,144.36 182.98,144.35 C181.89,145.28 173.84,175.78 174.87,177.77 C174.87,177.77 177.77,178.92 177.77,178.92" fill="none" stroke="rgb(255, 151, 0)" stroke-width="2.40" stroke-opacity="1.00" stroke-linejoin="round"/>
<path d="M177.08,178.91 C177.32,178.72 177.81,178.37 178.42,178.25 C180.71,177.79 188.35,176.71 190.80,176.76 C191.28,176.77 192.57,176.35 193.20,176.12" fill="none" stroke="rgb(255, 151, 0)" stroke-width="2.40" stroke-opacity="1.00" stroke-linejoin="round"/>
<path d="M233.62,142.15 C233.62,142.15 233.41,141.93 233.41,141.93 C233.59,142.07 237.14,142.38 239.63,142.99 C241.64,143.49 248.03,145.62 250.83,146.99 C251.94,147.54 264.74,156.16 265.23,156.32 C265.23,156.32 265.45,155.48 265.45,155.48" fill="none" stroke="rgb(255, 151, 0)" stroke-width="2.40" stroke-opacity="1.00" stroke-linejoin="round"/>
<path d="M267.17,155.91 C267.17,155.91 268.03,141.93 268.03,141.93 C267.53,140.79 267.12,137.09 267.33,135.79 C267.59,134.37 268.79,132.96 269.90,132.69 C270.94,132.47 273.74,132.57 275.04,133.12 C276.65,133.83 278.70,136.35 279.22,138.00 C279.61,139.32 279.65,142.00 279.14,142.98 C278.52,144.11 275.34,145.42 273.28,145.65 C271.25,145.87 268.86,145.99 268.06,145.94 C268.06,145.94 267.60,144.94 267.60,144.94" fill="none" stroke="rgb(255, 151, 0)" stroke-width="2.40" stroke-opacity="1.00" stroke-linejoin="round"/>
<path d="M279.42,145.59 C279.49,146.49 279.69,147.72 279.72,148.18 C279.96,151.51 279.07,156.36 277.77,158.89 C276.78,160.76 273.80,163.99 273.20,164.84 C271.73,166.98 270.15,174.35 269.91,175.32 C268.86,179.53 264.07,190.79 262.45,193.39 C261.90,194.18 254.32,195.73 252.89,196.02 C252.89,196.02 250.83,193.10 250.83,193.10" fill="none" stroke="rgb(255, 151, 0)" stroke-width="2.40" stroke-opacity="1.00" stroke-linejoin="round"/>
<path d="M248.89,162.36 C249.56,162.66 254.75,165.06 257.33,166.77 C261.27,169.37 266.10,170.97 266.18,170.96 C266.18,170.96 266.74,161.12 266.74,161.12 C266.74,161.12 266.35,160.68 266.35,160.68" fill="none" stroke="rgb(255, 151, 0)" stroke-width="2.40" stroke-opacity="1.00" stroke-linejoin="round"/>
<path d="M238.35,169.24 C236.90,169.24 236.02,169.24 235.69,169.26 C234.69,169.33 231.89,171.24 229.92,173.90 C227.35,177.41 221.37,190.23 219.89,194.88 C217.09,203.77 216.42,220.52 216.46,227.07 C216.46,227.07 217.93,223.85 217.93,223.85" fill="none" stroke="rgb(255, 151, 0)" stroke-width="2.40" stroke-opacity="1.00" stroke-linejoin="round"/>
<path d="M239.86,170.31 C239.86,170.31 239.43,170.53 239.43,170.53 C240.01,170.53 242.24,170.63 243.59,171.57 C244.87,172.49 247.75,176.10 248.43,177.58 C249.34,179.65 250.68,192.23 250.73,196.23 C250.76,200.03 246.98,224.40 244.80,232.69 C244.80,232.69 244.37,232.88 244.37,232.88" fill="none" stroke="rgb(255, 151, 0)" stroke-width="2.40" stroke-opacity="1.00" stroke-linejoin="round"/>
<path d="M222.23,236.10 C222.25,235.82 222.34,235.57 222.56,235.34 C222.58,235.33 228.03,230.54 229.79,229.42 C232.23,227.91 236.83,226.66 239.30,226.99 C240.18,227.14 241.71,228.43 242.40,229.72 C244.75,234.33 244.16,239.89 243.91,241.05 C243.58,241.38 228.11,243.41 227.42,243.51 C226.58,243.63 224.76,243.66 223.95,243.63" fill="none" stroke="rgb(255, 151, 0)" stroke-width="2.40" stroke-opacity="1.00" stroke-linejoin="round"/>
<path d="M214.27,228.15 C214.27,228.15 214.27,228.26 214.27,228.26 C214.27,228.26 214.17,228.36 214.17,228.36 C214.17,228.36 214.06,228.36 214.06,228.36 C206.77,216.47 192.97,193.09 190.50,189.22 C187.93,185.32 185.75,182.31 184.41,181.18 C183.13,180.16 176.68,178.14 175.60,178.18 C174.44,178.27 173.30,179.25 172.80,180.26 C172.11,181.76 171.80,186.82 172.25,190.61 C172.89,195.51 178.01,207.97 178.79,209.76 C185.76,226.58 188.83,232.36 189.33,233.30 C189.28,233.23 189.04,232.54 188.70,232.40 C187.57,231.95 179.50,232.20 177.78,232.39 C174.70,232.76 170.42,234.90 168.83,237.20 C167.31,239.46 166.35,242.95 166.66,243.96 C166.93,244.66 169.74,246.18 171.80,246.59 C172.97,246.82 202.34,247.93 204.72,247.93 C204.96,247.93 205.14,247.93 205.24,247.93" fill="none" stroke="rgb(255, 151, 0)" stroke-width="2.40" stroke-opacity="1.00" stroke-linejoin="round"/>
<path d="M203.74,210.52 C203.74,210.52 202.77,210.57 202.77,210.57 C202.77,210.57 202.66,210.73 202.66,210.73 C202.66,210.73 216.21,208.80 216.21,208.80 C216.21,208.80 216.42,208.15 216.42,208.15" fill="none" stroke="rgb(255, 151, 0)" stroke-width="2.40" stroke-opacity="1.00" stroke-linejoin="round"/>
<path d="M188.26,179.77 C188.27,179.72 188.47,178.73 189.52,178.06 C193.54,175.55 206.68,170.96 210.70,169.80 C214.77,168.67 218.82,167.80 221.98,167.62 C224.85,167.47 228.72,167.79 230.18,168.43 C231.56,169.08 234.02,172.10 234.36,173.73 C234.70,175.47 234.11,177.70 233.57,178.41 C231.94,180.36 219.53,183.83 212.30,185.83 C209.11,186.77 193.21,193.45 189.59,193.70 C188.62,193.75 187.48,193.29 187.04,192.68 C186.36,191.68 186.20,189.62 186.12,188.65" fill="none" stroke="rgb(255, 151, 0)" stroke-width="2.40" stroke-opacity="1.00" stroke-linejoin="round"/>
</g>
</svg>
