<?xml version="1.0" encoding="UTF-8" standalone="no"?>
<!DOCTYPE svg PUBLIC "-//W3C//DTD SVG 1.1//EN" "http://www.w3.org/Graphics/SVG/1.1/DTD/svg11.dtd">
<svg width="64.20" height="90.84" viewBox="0.00 0.00 535.00 757.00" xmlns="http://www.w3.org/2000/svg" xmlns:xlink="http://www.w3.org/1999/xlink">
<g stroke-linecap="round" transform="translate(156.00, 267.00)" id="5-비">
<path d="M-56.71,-34.78 C-56.87,-37.27 -57.99,-38.48 -59.01,-38.57 C-60.22,-38.59 -61.83,-35.93 -64.31,-30.76 C-65.96,-27.30 -73.37,-6.98 -73.59,-6.26 C-73.69,-5.92 -73.73,-5.40 -73.73,-4.72 C-73.72,-4.62 -73.70,-4.24 -73.66,-3.58" fill="none" stroke="rgb(0, 5, 255)" stroke-width="2.40" stroke-opacity="1.00" stroke-linejoin="round"/>
<path d="M-94.85,109.28 C-94.85,109.28 -95.62,109.28 -95.62,109.28 C-97.48,112.22 -100.87,122.54 -101.64,128.80 C-102.29,136.32 -104.72,155.64 -104.69,156.30 C-104.67,156.83 -104.48,157.79 -104.14,159.19" fill="none" stroke="rgb(0, 5, 255)" stroke-width="2.40" stroke-opacity="1.00" stroke-linejoin="round"/>
<path d="M-92.54,230.62 C-92.54,230.62 -92.92,230.23 -92.92,230.23 C-92.92,230.23 -98.20,249.23 -98.20,249.23 C-98.20,249.23 -97.26,248.10 -97.26,248.10" fill="none" stroke="rgb(0, 5, 255)" stroke-width="2.40" stroke-opacity="1.00" stroke-linejoin="round"/>
<path d="M-39.38,48.42 C-39.31,44.65 -40.86,42.74 -41.81,42.30 C-42.59,42.51 -43.96,44.98 -45.37,48.29 C-46.63,51.31 -50.53,75.20 -50.87,76.71 C-50.87,76.71 -49.01,75.00 -49.01,75.00" fill="none" stroke="rgb(0, 5, 255)" stroke-width="2.40" stroke-opacity="1.00" stroke-linejoin="round"/>
<path d="M-21.66,6.05 C-21.28,6.72 -19.80,11.38 -19.38,13.23 C-18.54,17.11 -18.64,33.73 -18.98,37.88 C-20.35,53.34 -22.27,66.43 -22.39,67.45 C-22.41,67.68 -22.43,67.88 -22.43,68.07" fill="none" stroke="rgb(0, 5, 255)" stroke-width="2.40" stroke-opacity="1.00" stroke-linejoin="round"/>
<path d="M-20.12,93.11 C-20.12,93.11 -20.12,92.72 -20.12,92.72 C-20.12,92.72 -20.51,92.72 -20.51,92.72 C-20.51,92.72 -30.39,134.98 -30.39,134.98 C-30.39,134.98 -28.98,135.48 -28.98,135.48" fill="none" stroke="rgb(0, 5, 255)" stroke-width="2.40" stroke-opacity="1.00" stroke-linejoin="round"/>
<path d="M-13.96,186.32 C-13.96,186.32 -19.21,185.20 -19.21,185.20 C-20.94,186.13 -22.95,195.07 -23.71,203.47 C-24.07,207.18 -26.51,225.37 -26.25,226.40 C-26.20,226.60 -26.08,226.85 -25.90,227.15" fill="none" stroke="rgb(0, 5, 255)" stroke-width="2.40" stroke-opacity="1.00" stroke-linejoin="round"/>
<path d="M-22.82,-62.89 C-22.26,-59.91 -21.65,-56.06 -21.41,-52.78 C-21.13,-48.98 -20.02,-11.29 -20.82,-7.52 C-20.82,-7.52 -20.89,-9.74 -20.89,-9.74" fill="none" stroke="rgb(0, 5, 255)" stroke-width="2.40" stroke-opacity="1.00" stroke-linejoin="round"/>
<path d="M13.78,-72.52 C13.77,-72.59 13.77,-72.40 13.78,-72.33 C14.29,-65.11 15.09,-53.93 15.26,-43.31 C15.27,-39.24 14.56,-30.00 14.67,-28.90 C14.70,-28.61 14.79,-28.26 14.93,-27.84" fill="none" stroke="rgb(0, 5, 255)" stroke-width="2.40" stroke-opacity="1.00" stroke-linejoin="round"/>
<path d="M26.10,49.97 C26.10,49.97 25.33,49.58 25.33,49.58 C25.52,57.35 25.75,75.94 25.58,80.04 C24.87,96.60 22.79,109.11 22.64,109.99 C22.64,109.99 23.02,108.13 23.02,108.13" fill="none" stroke="rgb(0, 5, 255)" stroke-width="2.40" stroke-opacity="1.00" stroke-linejoin="round"/>
<path d="M61.15,59.60 C61.15,59.60 60.96,59.60 60.96,59.60 C60.71,59.63 60.43,60.29 59.93,62.23 C56.56,75.56 51.65,96.21 50.11,103.53 C50.11,103.53 49.60,102.74 49.60,102.74" fill="none" stroke="rgb(0, 5, 255)" stroke-width="2.40" stroke-opacity="1.00" stroke-linejoin="round"/>
<path d="M60.77,-64.05 C60.77,-63.33 60.77,-62.61 60.77,-61.88 C60.73,-21.12 59.35,-7.93 59.23,-6.81 C59.23,-6.81 58.84,-9.35 58.84,-9.35" fill="none" stroke="rgb(0, 5, 255)" stroke-width="2.40" stroke-opacity="1.00" stroke-linejoin="round"/>
<path d="M93.51,-66.75 C93.16,-66.53 93.07,-62.70 93.56,-58.99 C93.86,-56.86 95.82,-50.40 96.03,-49.48 C97.71,-42.16 95.21,-29.04 95.15,-28.52 C95.15,-28.52 96.21,-29.00 96.21,-29.00" fill="none" stroke="rgb(0, 5, 255)" stroke-width="2.40" stroke-opacity="1.00" stroke-linejoin="round"/>
<path d="M137.81,-59.43 C137.81,-59.43 137.42,-60.78 137.42,-60.78 C137.57,-59.45 139.81,-42.41 140.05,-39.28 C140.48,-33.42 140.10,-21.84 138.63,-15.51 C138.15,-13.54 137.35,-10.29 137.04,-9.00 C137.03,-8.99 137.03,-8.96 137.04,-8.97" fill="none" stroke="rgb(0, 5, 255)" stroke-width="2.40" stroke-opacity="1.00" stroke-linejoin="round"/>
<path d="M121.24,31.86 C121.24,33.04 121.24,35.73 121.24,37.24 C121.22,41.51 121.16,50.20 120.81,52.37 C120.78,52.56 118.97,58.91 117.61,61.55 C117.61,61.55 117.70,61.27 117.70,61.27" fill="none" stroke="rgb(0, 5, 255)" stroke-width="2.40" stroke-opacity="1.00" stroke-linejoin="round"/>
<path d="M137.42,36.48 C137.33,37.01 137.26,37.44 137.23,37.75 C137.02,39.65 137.02,60.25 136.99,68.90 C136.88,75.56 136.24,81.73 135.73,83.81 C135.73,83.81 134.72,83.09 134.72,83.09" fill="none" stroke="rgb(0, 5, 255)" stroke-width="2.40" stroke-opacity="1.00" stroke-linejoin="round"/>
<path d="M119.32,138.94 C119.24,139.06 117.55,141.94 116.98,145.69 C115.52,155.21 114.88,160.90 114.20,165.09 C114.19,165.11 114.18,165.19 114.18,165.16 C114.18,165.16 114.31,164.75 114.31,164.75" fill="none" stroke="rgb(0, 5, 255)" stroke-width="2.40" stroke-opacity="1.00" stroke-linejoin="round"/>
<path d="M74.64,128.93 C73.47,135.80 68.52,152.08 68.50,154.81 C68.49,155.95 68.48,157.09 68.47,158.23 C68.47,158.23 68.78,157.94 68.78,157.94" fill="none" stroke="rgb(0, 5, 255)" stroke-width="2.40" stroke-opacity="1.00" stroke-linejoin="round"/>
<path d="M58.07,129.70 C58.07,129.70 57.88,129.70 57.88,129.70 C57.49,130.05 57.23,136.00 57.11,138.74 C56.92,145.81 56.87,160.74 56.39,166.88 C55.66,175.53 54.59,181.09 54.17,182.47 C54.06,182.84 53.82,183.46 53.47,184.34" fill="none" stroke="rgb(0, 5, 255)" stroke-width="2.40" stroke-opacity="1.00" stroke-linejoin="round"/>
<path d="M52.68,195.57 C51.38,195.55 50.66,195.62 50.30,195.95 C48.45,197.77 41.53,226.56 39.79,233.12 C38.15,239.31 38.20,240.18 38.76,240.73 C38.76,240.73 39.58,240.63 39.58,240.63" fill="none" stroke="rgb(0, 5, 255)" stroke-width="2.40" stroke-opacity="1.00" stroke-linejoin="round"/>
<path d="M109.69,199.03 C109.69,199.03 107.58,199.55 107.58,199.55 C107.58,199.55 98.64,236.65 98.64,236.65 C98.64,236.65 99.29,231.78 99.29,231.78" fill="none" stroke="rgb(0, 5, 255)" stroke-width="2.40" stroke-opacity="1.00" stroke-linejoin="round"/>
<path d="M143.58,117.76 C143.58,117.76 143.20,117.76 143.20,117.76 C143.14,121.13 141.41,136.15 141.29,142.19 C140.78,167.23 140.28,171.00 139.93,173.27 C139.93,173.27 140.45,173.24 140.45,173.24" fill="none" stroke="rgb(0, 5, 255)" stroke-width="2.40" stroke-opacity="1.00" stroke-linejoin="round"/>
<path d="M139.73,226.77 C139.73,226.77 139.15,226.77 139.15,226.77 C139.15,226.77 138.77,227.08 138.77,227.08 C138.77,227.08 138.19,266.90 138.19,266.90 C138.19,266.90 137.83,267.22 137.83,267.22" fill="none" stroke="rgb(0, 5, 255)" stroke-width="2.40" stroke-opacity="1.00" stroke-linejoin="round"/>
<path d="M170.55,-54.04 C170.55,-54.04 169.97,-54.04 169.97,-54.04 C169.97,-54.04 169.89,-53.93 169.89,-53.93 C172.71,-49.68 176.32,-39.58 177.62,-33.00 C178.51,-28.38 178.69,-18.83 178.71,-17.18 C178.71,-17.18 180.18,-19.37 180.18,-19.37" fill="none" stroke="rgb(0, 5, 255)" stroke-width="2.40" stroke-opacity="1.00" stroke-linejoin="round"/>
<path d="M229.48,-45.56 C229.48,-45.56 229.10,-45.56 229.10,-45.56 C228.75,-41.29 228.78,-26.66 229.58,-19.33 C230.18,-13.97 232.63,-5.91 233.52,-4.09 C233.52,-4.09 233.72,-6.27 233.72,-6.27" fill="none" stroke="rgb(0, 5, 255)" stroke-width="2.40" stroke-opacity="1.00" stroke-linejoin="round"/>
<path d="M297.27,-56.35 C297.26,-54.62 297.26,-53.51 297.27,-53.02 C297.29,-52.41 299.63,-14.15 299.40,-11.98 C299.19,-9.92 299.62,-9.26 299.97,-8.97" fill="none" stroke="rgb(0, 5, 255)" stroke-width="2.40" stroke-opacity="1.00" stroke-linejoin="round"/>
<path d="M354.28,13.37 C354.32,15.12 354.23,17.34 354.02,19.99 C353.71,23.69 347.39,51.41 345.85,57.48 C345.85,57.48 345.42,57.28 345.42,57.28" fill="none" stroke="rgb(0, 5, 255)" stroke-width="2.40" stroke-opacity="1.00" stroke-linejoin="round"/>
<path d="M296.12,135.09 C295.80,136.89 295.61,138.07 295.54,138.62 C295.00,143.03 295.16,157.90 296.20,164.23 C296.80,167.78 297.98,175.06 298.03,179.33 C298.06,183.51 297.37,186.22 296.81,187.31 C296.81,187.31 295.73,185.55 295.73,185.55" fill="none" stroke="rgb(0, 5, 255)" stroke-width="2.40" stroke-opacity="1.00" stroke-linejoin="round"/>
<path d="M346.96,171.30 C346.96,171.30 346.58,170.53 346.58,170.53 C345.67,178.75 342.42,191.96 342.11,192.47 C341.97,192.70 341.68,192.95 341.22,193.24" fill="none" stroke="rgb(0, 5, 255)" stroke-width="2.40" stroke-opacity="1.00" stroke-linejoin="round"/>
<path d="M298.05,228.69 C298.05,228.69 298.05,228.31 298.05,228.31 C298.05,228.31 295.09,274.49 295.09,274.49 C295.09,274.49 294.96,274.54 294.96,274.54" fill="none" stroke="rgb(0, 5, 255)" stroke-width="2.40" stroke-opacity="1.00" stroke-linejoin="round"/>
<path d="M283.02,242.95 C283.02,242.95 282.83,242.95 282.83,242.95 C281.89,244.48 281.94,248.92 283.42,252.69 C284.17,254.56 284.61,256.09 284.95,257.90 C284.95,257.90 284.95,257.35 284.95,257.35" fill="none" stroke="rgb(0, 5, 255)" stroke-width="2.40" stroke-opacity="1.00" stroke-linejoin="round"/>
<path d="M313.45,228.31 C313.12,228.34 312.01,229.07 311.24,230.04 C308.52,233.52 304.40,244.27 303.01,247.91 C303.01,247.91 302.19,247.39 302.19,247.39" fill="none" stroke="rgb(0, 5, 255)" stroke-width="2.40" stroke-opacity="1.00" stroke-linejoin="round"/>
</g>
</svg>
