<?xml version="1.0" encoding="UTF-8" standalone="no"?>
<!DOCTYPE svg PUBLIC "-//W3C//DTD SVG 1.1//EN" "http://www.w3.org/Graphics/SVG/1.1/DTD/svg11.dtd">
<svg width="64.20" height="90.84" viewBox="0.00 0.00 535.00 757.00" xmlns="http://www.w3.org/2000/svg" xmlns:xlink="http://www.w3.org/1999/xlink">
<g stroke-linecap="round" transform="translate(156.00, 267.00)" id="5-우산">
<path d="M258.78,-3.40 C258.78,-3.40 257.50,-2.27 257.50,-2.27 C256.46,-3.29 255.18,-13.14 256.60,-16.24 C257.71,-18.54 260.99,-21.43 263.52,-22.39 C266.01,-23.30 269.96,-23.10 272.17,-21.54 C273.32,-20.68 275.24,-17.48 275.79,-15.39 C276.72,-11.69 276.47,-1.23 276.23,0.93 C276.18,1.33 276.10,1.84 275.98,2.46" fill="none" stroke="rgb(255, 0, 29)" stroke-width="2.40" stroke-opacity="1.00" stroke-linejoin="round"/>
<path d="M278.62,1.32 C278.45,1.22 276.67,0.06 274.87,-0.17 C269.05,-0.90 255.13,-0.42 252.90,-0.40 C243.89,-0.32 236.63,0.49 232.21,1.37 C228.00,2.22 219.21,5.09 214.24,7.09 C208.18,9.48 197.74,13.60 192.13,17.31 C183.89,22.84 176.51,29.02 173.19,32.84 C169.16,37.50 162.81,47.17 161.39,52.15 C157.52,65.86 154.76,83.11 154.59,87.45 C154.44,92.33 156.07,93.54 156.49,93.75 C157.83,93.73 169.06,75.98 173.91,69.46 C175.25,67.70 178.82,64.01 180.59,63.08 C181.98,62.39 186.86,61.56 188.94,62.09 C191.58,62.79 195.21,65.57 197.49,67.89 C198.88,69.27 201.22,70.52 202.76,70.82 C204.33,71.09 206.31,69.88 208.30,67.39 C211.11,63.87 214.51,61.20 216.68,60.64 C218.43,60.23 223.43,60.63 225.18,61.17 C226.91,61.73 231.95,64.96 232.39,65.12 C233.03,65.33 234.09,65.32 234.79,65.11 C235.39,64.91 238.26,63.23 238.36,63.18 C239.05,62.90 241.73,63.81 243.66,65.39 C244.82,66.34 250.05,71.91 251.96,73.14 C253.47,74.09 256.45,75.00 258.12,74.75 C259.04,74.59 265.95,71.90 266.96,71.77 C268.60,71.62 271.42,72.52 274.10,74.64 C276.10,76.28 279.94,79.45 280.84,79.87 C282.11,80.41 285.00,79.90 288.88,78.92 C292.48,78.02 295.88,77.32 298.00,77.47 C301.06,77.72 313.63,82.82 317.74,85.26 C320.20,86.73 324.01,89.57 325.54,91.33 C326.32,92.24 329.63,96.61 330.04,96.89 C330.04,96.89 329.82,95.04 329.82,95.04" fill="none" stroke="rgb(255, 0, 29)" stroke-width="2.40" stroke-opacity="1.00" stroke-linejoin="round"/>
<path d="M276.73,1.13 C277.15,0.13 277.64,-0.19 280.39,-0.19 C282.47,-0.18 284.78,0.12 287.98,1.59 C300.83,7.57 305.76,10.51 309.03,13.44 C310.10,14.40 321.12,25.75 323.10,29.19 C325.83,34.02 328.18,44.07 329.40,49.54 C331.20,57.41 331.72,69.70 331.42,77.73 C331.22,82.75 328.74,92.93 328.73,92.82 C328.73,92.82 327.37,93.34 327.37,93.34" fill="none" stroke="rgb(255, 0, 29)" stroke-width="2.40" stroke-opacity="1.00" stroke-linejoin="round"/>
<path d="M279.75,3.40 C279.75,3.40 279.57,3.40 279.57,3.40 C279.34,5.09 276.28,18.34 275.76,23.75 C274.86,34.16 274.92,45.41 275.44,50.52 C276.52,60.78 281.08,70.52 281.13,70.69 C281.13,70.69 280.13,69.53 280.13,69.53" fill="none" stroke="rgb(255, 0, 29)" stroke-width="2.40" stroke-opacity="1.00" stroke-linejoin="round"/>
<path d="M264.26,2.46 C264.11,2.51 263.98,2.55 263.88,2.55 C263.46,2.60 263.20,2.65 263.11,2.71 C262.36,3.20 259.42,8.76 257.74,11.56 C254.84,16.43 251.68,28.11 250.79,34.49 C250.44,37.10 250.04,46.05 250.17,48.20 C250.23,49.14 251.09,55.48 251.00,57.67 C250.93,59.19 250.71,60.89 250.64,60.81 C250.64,60.81 250.28,58.57 250.28,58.57" fill="none" stroke="rgb(255, 0, 29)" stroke-width="2.40" stroke-opacity="1.00" stroke-linejoin="round"/>
<path d="M242.72,0.38 C242.72,0.38 242.72,0.19 242.72,0.19 C242.73,0.18 242.69,0.18 242.68,0.19 C240.67,0.96 231.58,12.44 229.53,16.06 C229.04,16.93 222.04,30.40 218.71,36.64 C214.55,44.14 211.09,53.76 210.03,57.81 C208.95,61.95 208.79,62.76 208.80,63.07 C208.80,63.07 210.41,63.67 210.41,63.67" fill="none" stroke="rgb(255, 0, 29)" stroke-width="2.40" stroke-opacity="1.00" stroke-linejoin="round"/>
<path d="M272.20,76.71 C272.20,77.39 272.20,79.60 272.21,81.14 C272.19,91.50 271.72,104.45 271.46,111.77 C271.31,114.90 269.53,132.13 269.57,132.04 C269.57,132.04 270.12,131.13 270.12,131.13" fill="none" stroke="rgb(255, 0, 29)" stroke-width="2.40" stroke-opacity="1.00" stroke-linejoin="round"/>
<path d="M278.05,78.22 C278.08,81.01 276.68,96.67 276.53,115.77 C276.48,117.73 275.56,126.07 275.20,127.92 C274.81,129.84 273.67,131.32 273.03,131.46 C272.76,131.51 271.87,131.39 270.31,131.13" fill="none" stroke="rgb(255, 0, 29)" stroke-width="2.40" stroke-opacity="1.00" stroke-linejoin="round"/>
</g>
</svg>
