<?xml version="1.0" encoding="UTF-8" standalone="no"?>
<!DOCTYPE svg PUBLIC "-//W3C//DTD SVG 1.1//EN" "http://www.w3.org/Graphics/SVG/1.1/DTD/svg11.dtd">
<svg width="128.40" height="181.68" viewBox="0.00 0.00 535.00 757.00" xmlns="http://www.w3.org/2000/svg" xmlns:xlink="http://www.w3.org/1999/xlink">
<g stroke-linecap="round" transform="translate(44.00, 155.00)" id="50-풀-1">
<path d="M8.71,417.44 C8.62,417.04 8.54,416.70 8.46,416.40 C8.29,415.72 8.11,415.04 7.94,414.37 C8.12,413.99 9.61,414.07 11.27,426.17 C11.61,428.76 12.04,430.35 12.90,432.67 C12.90,432.67 13.85,429.83 13.85,429.83" fill="none" stroke="rgb(33, 228, 63)" stroke-width="4.66" stroke-opacity="1.00" stroke-linejoin="round"/>
<path d="M14.76,415.33 C14.76,415.33 14.99,414.34 14.99,414.34 C14.99,414.34 15.43,430.56 15.43,430.56 C15.43,430.56 15.51,429.75 15.51,429.75" fill="none" stroke="rgb(33, 228, 63)" stroke-width="4.66" stroke-opacity="1.00" stroke-linejoin="round"/>
<path d="M23.74,417.69 C23.74,417.69 23.71,417.39 23.71,417.39 C23.26,420.00 22.88,421.52 22.24,423.02 C21.76,424.16 20.60,426.91 19.93,428.53 C19.93,428.53 20.20,428.84 20.20,428.84 C20.20,428.84 20.77,428.36 20.77,428.36" fill="none" stroke="rgb(33, 228, 63)" stroke-width="4.66" stroke-opacity="1.00" stroke-linejoin="round"/>
</g>
</svg>
