<?xml version="1.0" encoding="UTF-8" standalone="no"?>
<!DOCTYPE svg PUBLIC "-//W3C//DTD SVG 1.1//EN" "http://www.w3.org/Graphics/SVG/1.1/DTD/svg11.dtd">
<svg width="128.40" height="181.68" viewBox="0.00 0.00 535.00 757.00" xmlns="http://www.w3.org/2000/svg" xmlns:xlink="http://www.w3.org/1999/xlink">
<g stroke-linecap="round" transform="translate(44.00, 155.00)" id="50-풀-5">
<path d="M390.85,499.45 C390.77,498.97 390.74,498.62 390.76,498.39 C390.77,498.30 390.90,497.75 391.15,496.75 C391.24,496.39 391.39,495.76 391.59,494.85 C391.85,495.77 392.73,501.12 393.72,503.25 C394.30,504.49 395.11,505.21 396.43,505.86 C396.43,505.86 396.88,505.74 396.88,505.74" fill="none" stroke="rgb(33, 228, 63)" stroke-width="4.66" stroke-opacity="1.00" stroke-linejoin="round"/>
<path d="M405.69,498.18 C405.70,497.58 405.72,497.15 405.74,496.89 C405.77,496.64 405.83,496.19 405.92,495.57 C404.32,498.25 401.65,501.92 400.00,503.62 C398.97,504.67 398.02,505.39 397.76,505.41 C397.87,505.16 397.98,504.90 398.08,504.65 C398.18,504.44 398.27,504.23 398.36,504.02" fill="none" stroke="rgb(33, 228, 63)" stroke-width="4.66" stroke-opacity="1.00" stroke-linejoin="round"/>
</g>
</svg>
