<?xml version="1.0" encoding="UTF-8" standalone="no"?>
<!DOCTYPE svg PUBLIC "-//W3C//DTD SVG 1.1//EN" "http://www.w3.org/Graphics/SVG/1.1/DTD/svg11.dtd">
<svg width="128.40" height="181.68" viewBox="0.00 0.00 535.00 757.00" xmlns="http://www.w3.org/2000/svg" xmlns:xlink="http://www.w3.org/1999/xlink">
<g stroke-linecap="round" transform="translate(44.00, 155.00)" id="50-풀-2">
<path d="M90.09,422.34 C89.71,421.45 89.47,420.80 89.39,420.39 C89.20,419.56 88.93,416.84 88.53,415.96 C88.42,415.73 88.21,415.38 87.89,414.92 C88.02,416.02 89.67,420.33 90.81,423.59 C91.53,425.65 92.11,426.55 93.02,427.24 C93.02,427.24 93.47,425.24 93.47,425.24" fill="none" stroke="rgb(33, 228, 63)" stroke-width="4.66" stroke-opacity="1.00" stroke-linejoin="round"/>
<path d="M95.06,414.76 C95.06,414.47 95.06,414.23 95.06,414.04 C95.06,413.85 95.04,413.45 95.02,412.83 C95.04,413.03 95.20,423.23 95.20,423.86 C95.18,425.47 95.09,426.77 95.03,426.77" fill="none" stroke="rgb(33, 228, 63)" stroke-width="4.66" stroke-opacity="1.00" stroke-linejoin="round"/>
<path d="M104.42,411.32 C104.42,411.32 104.24,410.01 104.24,410.01 C103.49,412.52 102.19,416.34 100.56,420.78 C99.92,422.50 99.76,422.98 99.83,422.93 C99.83,422.93 99.96,422.50 99.96,422.50" fill="none" stroke="rgb(33, 228, 63)" stroke-width="4.66" stroke-opacity="1.00" stroke-linejoin="round"/>
</g>
</svg>
