<?xml version="1.0" encoding="UTF-8" standalone="no"?>
<!DOCTYPE svg PUBLIC "-//W3C//DTD SVG 1.1//EN" "http://www.w3.org/Graphics/SVG/1.1/DTD/svg11.dtd">
<svg width="128.40" height="181.68" viewBox="0.00 0.00 535.00 757.00" xmlns="http://www.w3.org/2000/svg" xmlns:xlink="http://www.w3.org/1999/xlink">
<g stroke-linecap="round" transform="translate(44.00, 155.00)" id="50-사람">
<path d="M258.44,217.19 C258.56,217.01 258.68,216.83 258.79,216.64 C259.00,216.31 259.16,216.06 259.27,215.92 C259.60,215.47 260.40,214.40 260.25,214.39 C258.75,214.63 257.94,215.11 257.07,216.47 C256.16,217.89 252.03,223.41 250.78,227.29 C249.58,231.14 246.01,247.84 245.39,253.68 C245.09,256.61 245.91,280.33 246.31,281.21 C246.83,282.28 248.37,284.05 249.08,284.31 C249.74,284.50 253.85,280.53 256.18,279.40 C258.34,278.36 262.56,275.33 263.67,274.52 C263.67,274.52 263.94,274.71 263.94,274.71" fill="none" stroke="rgb(255, 165, 0)" stroke-width="4.66" stroke-opacity="1.00" stroke-linejoin="round"/>
<path d="M293.37,218.68 C293.37,218.68 292.82,218.47 292.82,218.47 C292.82,218.47 293.82,218.00 293.82,218.00 C295.14,219.27 298.50,223.70 299.51,226.81 C299.81,227.76 302.42,238.41 302.61,241.20 C302.91,245.99 300.08,264.77 299.82,266.19 C298.65,271.87 296.05,285.40 295.77,285.97 C294.94,286.40 288.29,283.29 286.44,281.97 C284.64,280.65 279.65,276.47 279.39,276.32 C279.39,276.32 279.95,276.67 279.95,276.67" fill="none" stroke="rgb(255, 165, 0)" stroke-width="4.66" stroke-opacity="1.00" stroke-linejoin="round"/>
<path d="M265.97,269.02 C265.98,268.60 265.98,268.32 265.99,268.18 C266.00,268.03 266.02,267.82 266.04,267.54 C266.10,268.71 265.94,276.44 266.57,277.68 C267.24,278.85 269.06,279.68 270.30,279.61 C271.68,279.52 273.78,278.54 274.63,277.29 C275.08,276.59 277.37,267.00 277.15,266.53 C277.15,266.53 274.37,266.11 274.37,266.11 C274.37,266.11 274.57,266.09 274.57,266.09" fill="none" stroke="rgb(255, 165, 0)" stroke-width="4.66" stroke-opacity="1.00" stroke-linejoin="round"/>
<path d="M255.96,241.36 C255.96,241.36 255.67,240.25 255.67,240.25 C256.04,243.53 256.84,250.52 257.42,252.75 C258.00,254.80 261.11,260.60 263.45,262.59 C265.82,264.50 271.69,266.25 274.13,266.28 C276.46,266.19 280.83,263.59 283.33,260.73 C284.92,258.91 287.79,255.50 288.68,253.67 C291.54,247.67 293.31,240.85 293.84,239.32 C293.80,239.50 293.77,239.61 293.75,239.66 C293.73,239.71 293.70,239.76 293.65,239.80" fill="none" stroke="rgb(255, 165, 0)" stroke-width="4.66" stroke-opacity="1.00" stroke-linejoin="round"/>
<path d="M257.31,230.95 C257.31,230.95 257.00,229.84 257.00,229.84 C257.00,229.84 254.70,237.53 254.70,237.53 C255.69,236.62 258.56,232.85 260.99,230.05 C263.38,227.33 265.26,225.93 265.90,226.02 C265.90,226.02 265.66,231.00 265.66,231.00 C265.66,231.00 268.67,227.86 268.67,227.86 C268.67,227.86 268.75,234.96 268.75,234.96 C268.75,234.96 271.35,231.73 271.35,231.73 C271.35,231.73 272.14,234.44 272.14,234.44 C272.14,234.44 275.21,231.30 275.21,231.30 C275.21,231.30 276.02,237.19 276.02,237.19 C276.02,237.19 278.15,231.79 278.15,231.79 C278.15,231.79 278.64,236.82 278.64,236.82 C278.64,236.82 281.81,231.36 281.81,231.36 C281.81,231.36 284.92,234.33 284.92,234.33 C284.92,234.33 288.12,232.11 288.12,232.11 C288.12,232.11 291.35,235.92 291.35,235.92 C291.35,235.92 294.67,233.15 294.67,233.15 C294.67,233.15 296.90,237.38 296.90,237.38 C297.23,235.89 297.33,234.51 297.16,233.12 C297.00,231.87 296.16,230.58 296.14,230.62" fill="none" stroke="rgb(255, 165, 0)" stroke-width="4.66" stroke-opacity="1.00" stroke-linejoin="round"/>
<path d="M259.21,243.37 C259.20,242.99 259.18,242.74 259.14,242.63 C259.03,242.24 258.49,241.94 257.81,241.76 C258.31,240.64 271.67,243.30 271.15,243.82 C271.15,243.82 271.18,243.70 271.18,243.70" fill="none" stroke="rgb(255, 165, 0)" stroke-width="4.66" stroke-opacity="1.00" stroke-linejoin="round"/>
<path d="M261.37,249.40 C261.37,249.40 260.99,248.30 260.99,248.30 C260.99,248.30 263.16,251.25 263.16,251.25 C263.55,250.33 263.55,249.68 263.02,249.21 C262.27,248.55 261.58,248.63 261.29,248.76 C261.29,248.76 261.16,249.01 261.16,249.01 C261.16,249.01 261.33,249.13 261.33,249.13 C261.33,249.13 261.50,249.01 261.50,249.01" fill="none" stroke="rgb(255, 165, 0)" stroke-width="4.66" stroke-opacity="1.00" stroke-linejoin="round"/>
<path d="M280.69,246.00 C280.69,246.00 279.95,245.71 279.95,245.71 C281.36,244.84 286.94,244.87 288.67,245.96 C288.67,245.96 288.74,246.25 288.74,246.25 C288.74,246.25 288.52,246.22 288.52,246.22" fill="none" stroke="rgb(255, 165, 0)" stroke-width="4.66" stroke-opacity="1.00" stroke-linejoin="round"/>
<path d="M280.55,249.99 C280.55,249.99 279.53,249.86 279.53,249.86 C279.54,250.05 283.06,255.00 283.05,249.12 C281.90,247.38 280.15,249.31 280.02,249.64" fill="none" stroke="rgb(255, 165, 0)" stroke-width="4.66" stroke-opacity="1.00" stroke-linejoin="round"/>
<path d="M272.26,249.62 C272.26,249.62 271.31,249.82 271.31,249.82 C271.31,249.82 271.18,254.76 271.18,254.76 C271.18,254.76 271.39,254.05 271.39,254.05" fill="none" stroke="rgb(255, 165, 0)" stroke-width="4.66" stroke-opacity="1.00" stroke-linejoin="round"/>
<path d="M268.09,260.69 C268.09,260.69 267.82,259.97 267.82,259.97 C267.82,259.97 271.49,260.50 275.20,260.52 C276.95,260.52 277.78,260.68 277.95,260.94" fill="none" stroke="rgb(255, 165, 0)" stroke-width="4.66" stroke-opacity="1.00" stroke-linejoin="round"/>
<path d="M252.45,280.42 C252.57,280.28 253.00,279.78 253.08,279.62 C253.29,279.24 253.24,278.81 253.03,278.48 C250.26,280.73 247.78,283.31 246.92,284.96 C245.77,287.27 241.94,302.87 241.89,307.88 C241.90,312.63 245.01,322.49 246.48,323.79 C247.37,324.53 249.14,324.72 250.04,324.14 C251.03,323.42 252.53,319.72 253.35,315.46 C254.17,311.10 254.94,308.95 255.02,309.06 C255.02,309.06 255.15,309.17 255.15,309.17" fill="none" stroke="rgb(255, 165, 0)" stroke-width="4.66" stroke-opacity="1.00" stroke-linejoin="round"/>
<path d="M277.51,277.27 C277.51,277.04 277.51,276.80 277.51,276.56 C277.51,275.98 277.50,275.78 277.47,275.55 C277.26,275.96 277.55,278.63 278.82,279.39 C280.62,280.42 288.17,282.92 289.60,283.89 C291.46,285.19 292.91,287.08 293.72,289.27 C293.88,289.73 296.42,297.43 296.53,297.82 C297.16,300.01 298.08,315.33 299.19,321.35 C299.68,324.02 300.73,332.89 300.56,336.20 C300.48,337.28 299.65,338.69 298.89,339.17 C298.08,339.64 295.09,340.55 293.83,340.75 C292.36,340.95 290.81,340.62 290.07,339.94 C289.61,339.48 285.03,331.87 284.07,328.70 C282.94,324.81 281.36,309.82 281.97,309.24 C281.97,309.24 282.50,309.21 282.50,309.21" fill="none" stroke="rgb(255, 165, 0)" stroke-width="4.66" stroke-opacity="1.00" stroke-linejoin="round"/>
<path d="M249.56,329.55 C250.00,328.79 250.55,328.23 251.12,328.20 C251.62,328.18 265.50,328.03 273.05,327.87 C275.97,327.76 279.66,327.05 280.47,326.99 C280.47,326.99 280.65,329.45 280.65,329.45" fill="none" stroke="rgb(255, 165, 0)" stroke-width="4.66" stroke-opacity="1.00" stroke-linejoin="round"/>
<path d="M246.68,331.67 C246.67,331.23 246.72,330.60 246.85,330.36 C246.91,330.26 247.04,330.10 247.26,329.88 C247.29,330.27 246.67,336.44 246.58,340.38 C246.10,365.50 244.40,392.12 243.83,396.15 C243.66,397.35 242.16,406.36 242.20,407.24 C242.22,407.60 242.37,407.93 242.67,408.26 C243.93,409.03 248.98,408.82 249.92,408.89 C253.29,409.12 255.95,408.90 257.75,408.56 C259.16,408.19 259.93,406.38 260.59,400.55 C262.94,381.80 264.77,357.58 264.05,351.84 C264.05,351.84 263.10,351.93 263.10,351.93" fill="none" stroke="rgb(255, 165, 0)" stroke-width="4.66" stroke-opacity="1.00" stroke-linejoin="round"/>
<path d="M279.41,335.25 C279.53,334.66 279.73,333.97 279.80,333.73 C279.84,333.59 279.93,333.26 279.98,333.21 C280.31,334.21 283.50,374.97 283.37,380.31 C283.13,388.66 282.12,405.81 281.94,406.99 C281.68,408.61 281.08,409.26 279.76,409.30 C278.89,409.32 271.96,410.50 270.26,410.22 C269.39,410.07 267.90,409.46 267.51,409.10 C266.11,407.73 263.24,397.40 262.91,392.44 C262.83,391.18 262.60,387.69 262.46,386.95 C262.44,386.84 262.42,386.76 262.39,386.72 C262.39,386.72 262.31,386.72 262.31,386.72 C262.31,386.72 262.42,381.63 262.42,381.63" fill="none" stroke="rgb(255, 165, 0)" stroke-width="4.66" stroke-opacity="1.00" stroke-linejoin="round"/>
<path d="M247.77,409.92 C247.77,409.92 247.74,407.84 247.74,407.84 C247.74,407.84 248.38,415.90 248.38,415.90 C248.38,415.90 255.40,414.99 255.40,414.99 C255.63,414.05 255.72,413.29 255.72,411.99 C255.73,411.08 256.16,410.47 257.22,409.66 C257.36,409.56 257.72,409.30 257.78,409.27" fill="none" stroke="rgb(255, 165, 0)" stroke-width="4.66" stroke-opacity="1.00" stroke-linejoin="round"/>
<path d="M244.96,415.26 C244.96,415.26 244.19,414.65 244.19,414.65 C243.27,414.73 236.97,415.79 236.57,416.09 C235.57,416.91 234.68,420.55 235.13,422.11 C235.47,423.08 238.04,424.48 241.90,424.73 C245.46,424.96 250.45,426.53 251.96,426.10 C254.11,425.44 256.54,421.78 256.85,419.81 C256.98,418.85 256.50,417.44 256.44,416.96 C256.41,416.79 256.47,416.56 256.61,416.28" fill="none" stroke="rgb(255, 165, 0)" stroke-width="4.66" stroke-opacity="1.00" stroke-linejoin="round"/>
<path d="M267.65,412.26 C267.65,412.26 267.42,410.71 267.42,410.71 C267.42,410.71 268.32,415.21 268.32,415.21 C268.32,415.21 277.36,414.75 277.36,414.75 C277.36,414.75 277.73,411.09 277.73,411.09 C277.73,411.09 279.48,411.59 279.48,411.59" fill="none" stroke="rgb(255, 165, 0)" stroke-width="4.66" stroke-opacity="1.00" stroke-linejoin="round"/>
<path d="M268.45,417.56 C268.45,417.39 268.45,417.22 268.45,417.06 C268.45,416.47 268.46,416.39 268.46,416.40 C268.53,419.00 268.04,423.50 268.51,424.60 C268.81,425.21 270.69,425.61 274.59,426.11 C276.45,426.35 280.93,427.47 282.39,427.06 C283.66,426.65 286.84,425.62 287.35,424.87 C287.54,424.55 287.66,423.01 287.55,422.15 C287.31,420.50 282.83,416.26 281.62,415.89 C280.86,415.68 279.50,416.01 278.10,416.57 C278.10,416.57 278.08,416.57 278.09,416.57 C278.10,416.62 278.11,416.59 278.14,416.51 C278.25,416.16 278.49,415.14 278.69,414.23" fill="none" stroke="rgb(255, 165, 0)" stroke-width="4.66" stroke-opacity="1.00" stroke-linejoin="round"/>
<path d="M286.97,341.68 C286.69,341.81 286.31,342.00 286.24,342.01 C286.19,342.01 286.09,341.98 285.95,341.93 C285.95,341.93 285.92,347.24 285.92,347.24 C288.03,347.78 289.31,345.07 289.37,344.63 C287.11,349.22 289.84,351.66 290.40,351.87 C290.40,351.87 292.68,350.14 292.68,350.14 C293.38,350.00 294.85,350.46 295.35,350.00 C295.47,349.89 295.74,349.58 296.15,349.08 C296.70,349.16 298.57,349.44 299.37,348.44 C299.60,348.16 300.05,347.33 300.50,347.12 C301.99,347.45 303.50,346.18 303.56,344.98 C303.56,344.43 303.35,343.85 302.99,343.25 C302.99,343.25 303.79,342.45 303.79,342.45 C303.86,342.08 303.13,341.16 302.06,340.54 C301.17,340.03 299.63,339.67 298.00,339.45 C297.98,339.45 297.92,339.42 297.94,339.42" fill="none" stroke="rgb(255, 165, 0)" stroke-width="4.66" stroke-opacity="1.00" stroke-linejoin="round"/>
<path d="M250.25,303.35 C250.12,303.26 250.01,303.18 249.91,303.13 C249.63,302.98 248.26,302.21 248.02,302.19 C246.46,302.04 244.57,303.87 244.36,304.89 C244.12,306.24 246.15,307.75 247.61,307.73 C250.75,307.63 251.27,306.99 251.51,306.56 C251.39,305.59 249.98,304.07 248.69,303.93 C247.57,303.83 246.85,304.53 246.63,304.87 C246.63,304.87 246.68,305.40 246.68,305.40" fill="none" stroke="rgb(255, 165, 0)" stroke-width="4.66" stroke-opacity="1.00" stroke-linejoin="round"/>
</g>
</svg>
