<?xml version="1.0" encoding="UTF-8" standalone="no"?>
<!DOCTYPE svg PUBLIC "-//W3C//DTD SVG 1.1//EN" "http://www.w3.org/Graphics/SVG/1.1/DTD/svg11.dtd">
<svg width="128.40" height="181.68" viewBox="0.00 0.00 535.00 757.00" xmlns="http://www.w3.org/2000/svg" xmlns:xlink="http://www.w3.org/1999/xlink">
<g stroke-linecap="round" transform="translate(44.00, 155.00)" id="51-구름-1">
<path d="M-16.96,-112.78 C-16.92,-113.87 -16.87,-114.59 -16.79,-114.94 C-16.68,-115.46 -16.14,-116.68 -16.24,-117.03 C-17.61,-116.08 -20.28,-114.18 -20.78,-113.93 C-21.78,-113.45 -22.90,-113.58 -25.15,-114.20 C-26.93,-114.66 -29.01,-114.19 -29.90,-112.87 C-31.50,-110.35 -31.24,-105.79 -30.26,-104.05 C-28.46,-101.03 -20.17,-96.74 -18.01,-95.38 C-16.88,-94.65 -15.41,-92.71 -14.43,-90.72 C-13.89,-89.58 -13.26,-83.03 -13.20,-80.10 C-13.12,-78.22 -12.46,-76.17 -11.36,-75.26 C-9.66,-73.92 -2.75,-71.86 -0.73,-71.65 C1.83,-71.42 5.83,-72.28 8.34,-73.67 C9.41,-74.27 15.89,-78.28 16.85,-78.68 C18.71,-79.42 28.37,-81.68 31.19,-82.27 C35.43,-83.14 40.59,-83.53 43.44,-82.68 C45.37,-82.08 54.67,-78.07 57.77,-77.42 C58.58,-77.25 61.96,-76.81 63.11,-76.43 C65.25,-75.71 71.03,-72.13 72.47,-72.27 C72.89,-72.31 81.43,-74.63 82.22,-75.02 C84.46,-76.15 89.17,-81.82 90.56,-84.87 C92.02,-88.20 92.89,-92.81 92.29,-96.65 C91.77,-99.88 90.74,-109.74 90.01,-112.09 C89.66,-113.24 88.05,-117.49 87.98,-118.66 C87.90,-120.45 89.94,-128.11 90.85,-131.56 C91.39,-133.58 91.63,-136.14 91.18,-137.39 C89.99,-140.46 85.36,-141.58 84.07,-141.44 C84.07,-141.44 83.69,-141.03 83.69,-141.03" fill="none" stroke="rgb(255, 0, 0)" stroke-width="4.18" stroke-opacity="1.00" stroke-linejoin="round"/>
<path d="M17.24,-129.45 C17.24,-129.45 16.78,-130.61 16.78,-130.61 C11.08,-126.49 -0.84,-117.62 -6.63,-113.01 C-10.32,-109.98 -14.16,-106.66 -16.66,-104.22 C-19.03,-101.89 -21.18,-99.01 -20.88,-99.14" fill="none" stroke="rgb(255, 0, 0)" stroke-width="4.18" stroke-opacity="1.00" stroke-linejoin="round"/>
<path d="M61.32,-139.58 C61.34,-139.88 61.44,-140.72 61.46,-141.05 C61.47,-141.19 61.47,-141.40 61.46,-141.67 C61.09,-141.81 51.56,-136.60 38.84,-125.28 C33.66,-120.66 25.10,-111.75 21.46,-106.65 C19.61,-104.04 18.07,-100.70 17.79,-99.83" fill="none" stroke="rgb(255, 0, 0)" stroke-width="4.18" stroke-opacity="1.00" stroke-linejoin="round"/>
<path d="M79.24,-137.47 C77.38,-137.57 75.81,-137.18 73.74,-135.98 C67.92,-132.47 57.71,-126.22 49.24,-120.39 C37.35,-111.76 16.84,-95.06 14.52,-92.12 C14.52,-92.12 16.29,-92.48 16.29,-92.48" fill="none" stroke="rgb(255, 0, 0)" stroke-width="4.18" stroke-opacity="1.00" stroke-linejoin="round"/>
<path d="M76.90,-122.83 C76.84,-123.30 76.70,-123.80 76.53,-124.10 C76.49,-124.17 76.42,-124.26 76.34,-124.35 C71.30,-120.72 59.58,-112.20 52.90,-107.32 C45.98,-102.16 39.51,-95.87 39.25,-94.77 C40.67,-94.55 54.50,-102.51 60.75,-105.96 C65.32,-108.44 69.25,-110.45 70.55,-110.37 C70.55,-110.37 57.11,-95.72 57.11,-95.72 C57.88,-94.85 61.21,-95.42 66.16,-96.67 C69.39,-97.53 76.38,-100.46 77.16,-100.31 C77.16,-100.31 75.50,-95.20 75.50,-95.20 C76.38,-93.96 81.35,-95.57 82.58,-96.23" fill="none" stroke="rgb(255, 0, 0)" stroke-width="4.18" stroke-opacity="1.00" stroke-linejoin="round"/>
</g>
</svg>
