<?xml version="1.0" encoding="UTF-8" standalone="no"?>
<!DOCTYPE svg PUBLIC "-//W3C//DTD SVG 1.1//EN" "http://www.w3.org/Graphics/SVG/1.1/DTD/svg11.dtd">
<svg width="128.40" height="181.68" viewBox="0.00 0.00 535.00 757.00" xmlns="http://www.w3.org/2000/svg" xmlns:xlink="http://www.w3.org/1999/xlink">
<g stroke-linecap="round" transform="translate(44.00, 155.00)" id="51-구름-3">
<path d="M296.48,-137.63 C296.48,-137.63 298.28,-133.79 298.28,-133.79" fill="none" stroke="rgb(255, 0, 0)" stroke-width="4.18" stroke-opacity="1.00" stroke-linejoin="round"/>
<path d="M299.05,-135.29 C299.05,-135.81 299.05,-136.33 299.05,-136.85 C299.03,-137.83 298.37,-138.94 298.16,-139.35 C297.75,-140.14 296.68,-142.11 295.22,-142.81 C293.68,-143.49 291.20,-144.04 289.58,-143.99 C287.79,-143.91 281.94,-141.45 278.75,-139.55 C273.36,-136.16 257.61,-126.50 257.49,-126.40 C256.77,-125.75 256.33,-124.77 256.19,-123.81 C256.97,-122.40 261.19,-120.26 265.21,-118.49 C268.58,-117.00 273.29,-113.65 274.28,-112.50 C275.47,-111.05 278.21,-103.48 278.38,-100.23 C278.46,-98.33 277.98,-95.35 277.32,-93.30 C276.78,-91.64 275.13,-87.86 275.05,-87.62 C274.63,-86.12 274.88,-83.36 275.56,-82.34 C276.94,-80.45 282.58,-79.20 285.86,-79.24 C289.60,-79.30 294.52,-78.82 299.37,-77.91 C303.49,-77.15 309.50,-77.38 313.30,-77.60 C314.14,-77.59 329.28,-74.63 341.12,-72.90 C345.13,-72.33 348.62,-72.19 352.69,-72.57 C356.35,-72.93 364.26,-74.87 367.34,-75.88 C371.01,-77.12 377.11,-80.72 379.18,-82.99 C380.78,-84.80 383.93,-90.35 384.61,-91.33 C385.74,-92.92 389.39,-96.50 391.21,-97.81 C393.21,-99.21 397.60,-100.93 399.70,-100.88 C401.82,-100.79 406.68,-99.30 409.78,-97.50 C413.63,-95.19 418.51,-92.49 420.15,-91.64 C423.57,-89.90 427.80,-88.47 432.29,-87.54 C436.23,-86.77 446.78,-84.90 447.60,-84.77 C452.68,-84.00 457.81,-83.92 460.70,-85.02 C462.11,-85.58 464.87,-87.37 465.82,-88.37 C466.84,-89.50 468.06,-92.11 468.15,-93.38 C468.19,-94.84 467.20,-97.40 466.03,-98.72 C464.60,-100.25 461.34,-102.26 459.41,-102.84 C457.15,-103.47 450.65,-103.16 449.10,-101.90" fill="none" stroke="rgb(255, 0, 0)" stroke-width="4.18" stroke-opacity="1.00" stroke-linejoin="round"/>
<path d="M326.70,-131.94 C326.92,-132.96 327.43,-133.93 327.61,-134.28 C327.93,-134.90 328.19,-135.80 328.19,-136.11 C328.03,-136.12 296.55,-118.00 293.23,-115.65 C291.03,-114.08 287.65,-110.90 286.67,-108.02 C286.47,-107.37 287.28,-106.02 287.67,-105.77 C289.11,-105.02 293.93,-105.34 299.23,-106.73 C305.07,-108.33 343.87,-125.35 352.56,-127.99 C357.59,-129.50 376.79,-132.98 377.82,-133.27 C372.74,-133.15 358.75,-129.74 352.13,-127.33 C345.68,-124.95 332.93,-118.67 326.55,-114.54 C319.77,-110.07 310.05,-102.35 308.20,-98.93 C308.20,-98.93 309.02,-97.01 309.02,-97.01 C310.61,-96.42 313.59,-97.18 317.96,-98.81 C321.12,-100.06 338.19,-107.31 344.39,-109.67 C351.03,-112.02 366.91,-117.12 374.27,-119.41 C381.66,-121.59 396.72,-125.95 401.58,-126.48 C409.85,-127.33 416.63,-127.61 421.05,-127.65 C420.66,-127.43 404.45,-121.78 398.98,-119.28 C345.43,-94.02 341.91,-91.23 341.64,-90.72 C342.42,-90.15 380.22,-105.43 390.97,-107.83 C398.36,-109.45 407.29,-110.12 419.65,-110.36 C446.69,-110.78 452.00,-110.19 453.47,-109.92 C452.07,-109.04 451.04,-108.72 449.23,-108.78 C441.30,-109.04 426.17,-107.42 419.58,-104.90 C415.08,-103.14 413.29,-101.64 412.90,-100.97 C413.49,-100.19 419.16,-99.52 422.60,-99.78 C430.02,-100.36 469.04,-109.27 471.53,-109.25 C472.75,-109.24 474.09,-108.73 475.84,-107.80 C475.85,-108.03 475.86,-108.18 475.86,-108.26 C475.86,-108.34 475.85,-108.46 475.82,-108.61" fill="none" stroke="rgb(255, 0, 0)" stroke-width="4.18" stroke-opacity="1.00" stroke-linejoin="round"/>
</g>
</svg>
