<?xml version="1.0" encoding="UTF-8" standalone="no"?>
<!DOCTYPE svg PUBLIC "-//W3C//DTD SVG 1.1//EN" "http://www.w3.org/Graphics/SVG/1.1/DTD/svg11.dtd">
<svg width="128.40" height="181.68" viewBox="0.00 0.00 535.00 757.00" xmlns="http://www.w3.org/2000/svg" xmlns:xlink="http://www.w3.org/1999/xlink">
<g stroke-linecap="round" transform="translate(44.00, 155.00)" id="51-사람">
<path d="M183.23,48.05 C183.21,47.52 183.21,47.14 183.24,46.91 C183.27,46.68 183.37,46.27 183.54,45.69 C183.40,45.56 181.24,45.46 177.90,50.32 C176.29,52.68 173.68,57.87 172.98,60.44 C172.36,62.84 172.02,67.58 172.93,69.03 C173.51,69.89 175.41,71.48 176.44,71.93 C178.25,72.67 186.84,72.23 187.16,72.22 C189.93,72.37 194.87,72.51 198.91,71.12 C201.70,70.13 207.51,68.08 208.37,67.10 C209.68,65.50 209.57,60.95 208.48,58.28 C208.39,58.06 205.26,52.56 203.72,49.45 C203.11,48.30 202.04,47.15 201.12,46.76 C199.45,46.13 193.25,45.91 190.50,46.48 C186.16,47.44 182.72,47.86 180.42,47.74 C180.42,47.74 181.77,48.50 181.77,48.50" fill="none" stroke="rgb(86, 73, 61)" stroke-width="4.18" stroke-opacity="1.00" stroke-linejoin="round"/>
<path d="M176.93,59.07 C177.04,58.33 177.31,57.61 177.76,57.01 C177.89,56.84 178.17,56.51 178.60,56.03 C178.24,56.58 175.83,60.82 174.57,63.41 C173.71,65.22 172.83,67.43 172.45,68.75 C172.12,69.93 172.14,70.79 172.40,71.70 C172.40,71.70 172.63,71.73 172.63,71.73" fill="none" stroke="rgb(86, 73, 61)" stroke-width="4.18" stroke-opacity="1.00" stroke-linejoin="round"/>
<path d="M187.08,59.54 C187.08,59.54 185.52,58.67 185.52,58.67 C183.25,60.76 178.56,69.99 178.76,71.34 C178.76,71.34 179.27,71.63 179.27,71.63 C179.27,71.63 180.14,71.30 180.14,71.30" fill="none" stroke="rgb(86, 73, 61)" stroke-width="4.18" stroke-opacity="1.00" stroke-linejoin="round"/>
<path d="M189.76,60.82 C189.76,60.82 189.98,59.32 189.98,59.32 C189.21,59.51 187.78,61.77 184.78,67.03 C184.77,67.06 184.72,67.13 184.73,67.10 C185.03,66.57 185.25,66.20 185.40,66.00 C185.55,65.79 185.83,65.47 186.25,65.02" fill="none" stroke="rgb(86, 73, 61)" stroke-width="4.18" stroke-opacity="1.00" stroke-linejoin="round"/>
<path d="M194.78,57.96 C194.14,58.00 193.69,58.15 193.41,58.42 C192.92,58.92 191.40,61.82 190.54,63.60 C189.68,65.41 189.34,66.40 189.08,67.77 C189.08,67.77 189.36,68.14 189.36,68.14 C189.63,68.00 189.84,67.85 190.34,67.41 C193.90,64.32 194.95,63.45 196.33,62.34" fill="none" stroke="rgb(86, 73, 61)" stroke-width="4.18" stroke-opacity="1.00" stroke-linejoin="round"/>
<path d="M198.97,60.41 C197.98,61.69 196.11,64.10 195.34,65.17 C194.26,66.66 193.00,68.60 192.18,70.03 C191.38,71.43 191.15,72.26 191.24,73.06 C191.24,73.06 191.66,73.28 191.66,73.28 C191.80,73.26 191.98,73.15 192.22,72.95 C195.06,70.33 198.81,67.36 200.08,66.35" fill="none" stroke="rgb(86, 73, 61)" stroke-width="4.18" stroke-opacity="1.00" stroke-linejoin="round"/>
<path d="M202.94,64.67 C202.98,64.61 202.86,64.77 202.82,64.82 C201.23,67.03 199.44,68.88 198.29,70.01 C198.04,70.30 197.81,70.70 197.59,71.22 C197.59,71.22 197.72,71.45 197.72,71.45 C197.97,71.21 198.12,71.05 198.18,70.98 C198.24,70.90 198.27,70.80 198.29,70.67" fill="none" stroke="rgb(86, 73, 61)" stroke-width="4.18" stroke-opacity="1.00" stroke-linejoin="round"/>
<path d="M189.35,45.04 C189.35,45.04 186.95,45.53 186.95,45.53" fill="none" stroke="rgb(86, 73, 61)" stroke-width="4.18" stroke-opacity="1.00" stroke-linejoin="round"/>
<path d="M183.17,47.25 C182.82,47.06 182.58,46.94 182.45,46.89 C182.32,46.85 182.11,46.80 181.83,46.75 C181.83,46.75 181.83,46.50 181.83,46.50 C183.29,45.04 184.93,43.73 186.21,43.21 C186.65,43.04 197.63,39.30 198.20,39.23 C199.44,39.07 209.21,38.76 212.05,39.82 C215.40,41.13 219.18,43.35 221.36,45.51 C222.61,46.77 226.91,53.37 230.25,56.08 C231.27,56.91 232.02,58.14 232.43,59.62 C232.55,60.04 233.59,66.08 234.89,68.62 C236.66,72.06 238.12,78.32 238.35,80.51 C238.52,82.31 238.86,102.57 238.84,109.57 C238.71,118.44 237.40,125.08 237.39,125.90 C237.39,125.90 237.35,124.44 237.35,124.44" fill="none" stroke="rgb(86, 73, 61)" stroke-width="4.18" stroke-opacity="1.00" stroke-linejoin="round"/>
<path d="M219.09,123.00 C219.19,121.92 219.26,121.25 219.29,120.97 C219.32,120.70 219.37,120.44 219.42,120.20 C219.42,120.20 219.22,119.95 219.22,119.95 C219.22,119.95 218.51,119.85 218.51,119.85 C217.76,121.21 217.89,125.00 218.13,127.57 C219.54,142.25 223.18,179.90 224.55,186.14 C225.03,188.23 227.18,196.32 227.82,197.89 C228.12,198.55 231.13,198.65 232.31,198.75 C233.24,198.81 236.74,199.73 237.16,199.80 C238.18,199.93 240.36,199.53 241.43,198.88 C242.80,198.00 246.01,194.98 246.59,193.92 C248.22,190.80 243.07,151.43 241.32,136.89 C240.83,132.56 240.25,129.84 239.91,129.00 C239.91,129.00 239.65,128.88 239.65,128.88 C239.65,128.88 239.62,129.24 239.62,129.24" fill="none" stroke="rgb(86, 73, 61)" stroke-width="4.18" stroke-opacity="1.00" stroke-linejoin="round"/>
<path d="M230.58,197.75 C230.58,197.75 230.29,198.09 230.29,198.09 C230.29,198.09 232.23,197.77 232.23,197.77 C232.65,198.55 234.24,204.55 235.07,204.99 C235.51,205.16 236.41,205.17 236.89,204.78 C238.11,203.74 239.23,201.42 239.29,199.68 C239.30,198.93 238.36,197.39 237.74,196.95 C236.89,196.39 234.52,194.93 233.38,193.76 C233.38,193.76 233.24,192.54 233.24,192.54" fill="none" stroke="rgb(86, 73, 61)" stroke-width="4.18" stroke-opacity="1.00" stroke-linejoin="round"/>
<path d="M183.06,102.24 C183.08,102.04 183.10,101.89 183.11,101.79 C183.11,101.69 183.13,101.52 183.15,101.25 C183.15,101.25 182.92,101.20 182.92,101.20 C182.10,101.91 181.57,102.78 181.15,104.25 C180.11,107.92 177.49,122.44 176.23,129.74 C174.87,138.76 174.07,149.83 173.81,160.87 C173.60,170.80 173.94,173.86 174.27,174.10 C174.27,174.10 178.38,173.36 178.38,173.36 C178.38,173.36 178.04,174.24 178.04,174.24" fill="none" stroke="rgb(86, 73, 61)" stroke-width="4.18" stroke-opacity="1.00" stroke-linejoin="round"/>
<path d="M172.03,178.45 C172.03,178.45 171.84,178.45 171.84,178.45 C171.82,178.41 172.12,179.48 172.39,180.40 C172.85,181.99 173.31,183.04 174.06,184.33 C174.06,184.33 177.69,182.19 177.69,182.19 C177.69,182.19 177.66,182.22 177.66,182.22 C177.57,182.14 177.16,181.85 177.10,181.16 C177.06,180.70 177.01,179.38 176.96,177.21" fill="none" stroke="rgb(86, 73, 61)" stroke-width="4.18" stroke-opacity="1.00" stroke-linejoin="round"/>
<path d="M185.27,116.29 C185.36,116.03 185.60,115.31 185.61,115.27 C185.63,115.21 185.63,115.15 185.62,115.08 C185.41,117.13 185.23,118.29 184.90,119.61 C183.86,123.71 180.89,140.05 180.51,145.23 C180.40,146.78 178.67,179.18 178.24,201.48 C178.08,212.52 178.26,221.27 178.94,226.65 C180.51,238.80 181.42,241.11 182.21,241.70 C186.03,242.10 190.12,243.63 190.48,243.69 C190.76,243.73 194.68,241.86 195.78,242.44 C195.78,242.44 195.92,243.52 195.92,243.52 C195.92,243.52 195.76,243.61 195.76,243.61 C195.76,243.61 195.51,243.41 195.51,243.41" fill="none" stroke="rgb(86, 73, 61)" stroke-width="4.18" stroke-opacity="1.00" stroke-linejoin="round"/>
<path d="M196.23,217.81 C196.23,217.81 196.06,218.93 196.06,218.93 C196.06,218.93 196.05,218.33 196.05,218.33 C195.82,220.62 195.67,226.94 195.58,230.68 C195.41,238.99 195.46,243.40 195.47,244.70 C195.47,244.70 194.63,241.87 194.63,241.87" fill="none" stroke="rgb(86, 73, 61)" stroke-width="4.18" stroke-opacity="1.00" stroke-linejoin="round"/>
<path d="M193.38,243.69 C193.38,243.69 192.83,243.32 192.83,243.32 C193.00,243.92 195.24,246.27 197.52,245.97 C198.33,245.86 201.56,245.13 203.27,245.07 C204.54,245.03 212.02,246.04 215.83,245.87 C219.65,245.69 225.55,246.13 227.97,245.83 C230.04,245.56 236.57,243.99 237.87,243.27 C239.52,242.30 242.68,235.87 242.98,233.08 C243.15,231.34 241.95,203.81 241.96,201.61 C241.96,201.61 242.30,203.22 242.30,203.22" fill="none" stroke="rgb(86, 73, 61)" stroke-width="4.18" stroke-opacity="1.00" stroke-linejoin="round"/>
<path d="M205.45,143.23 C205.46,143.03 205.53,142.18 205.58,141.93 C205.61,141.75 205.69,141.43 205.82,140.97 C205.40,143.70 204.66,148.83 204.60,151.17 C204.47,157.52 205.83,168.89 207.53,180.01 C208.88,188.20 212.07,206.89 213.12,209.99 C213.49,211.06 220.38,225.89 220.76,226.54 C220.85,226.70 220.98,226.78 221.13,226.78 C221.13,226.78 221.18,226.17 221.18,226.17" fill="none" stroke="rgb(86, 73, 61)" stroke-width="4.18" stroke-opacity="1.00" stroke-linejoin="round"/>
<path d="M191.10,146.73 C191.11,145.99 191.08,144.76 191.10,144.47 C191.19,143.14 191.43,141.77 191.44,141.83 C191.44,141.83 192.27,145.46 192.27,145.46 C193.65,145.60 193.53,144.01 193.18,142.44 C193.18,142.44 192.51,142.38 192.51,142.38 C192.51,142.38 192.49,143.31 192.49,143.31" fill="none" stroke="rgb(86, 73, 61)" stroke-width="4.18" stroke-opacity="1.00" stroke-linejoin="round"/>
<path d="M192.21,187.08 C192.21,187.08 191.96,187.08 191.96,187.08 C191.96,187.08 192.11,187.00 192.11,187.00 C192.11,187.00 192.97,189.40 192.97,189.40 C192.97,189.40 194.94,188.98 194.94,188.98 C193.86,187.90 192.87,188.56 191.73,189.59 C191.73,189.59 191.56,191.02 191.56,191.02" fill="none" stroke="rgb(86, 73, 61)" stroke-width="4.18" stroke-opacity="1.00" stroke-linejoin="round"/>
<path d="M193.96,209.29 C193.96,209.29 193.29,207.70 193.29,207.70 C193.29,207.70 194.92,211.21 194.92,211.21 C196.32,210.99 197.44,208.73 196.77,207.65 C196.14,206.66 194.77,205.85 193.11,205.35" fill="none" stroke="rgb(86, 73, 61)" stroke-width="4.18" stroke-opacity="1.00" stroke-linejoin="round"/>
<path d="M174.08,77.69 C174.08,77.69 173.29,77.68 173.29,77.68 C173.29,77.68 173.01,75.86 173.01,75.86 C173.01,75.86 173.77,78.72 173.77,78.72 C173.77,78.72 175.97,79.29 175.97,79.29 C174.38,80.92 172.29,83.10 169.14,87.03 C167.95,88.51 167.62,89.27 167.64,90.23 C167.64,90.23 175.89,88.95 175.89,88.95 C175.89,88.95 177.59,89.82 177.59,89.82 C177.81,89.86 178.11,92.72 178.29,93.87 C178.45,94.99 179.13,95.70 180.20,96.41 C181.63,96.38 183.81,96.21 184.22,96.27 C185.39,96.43 188.21,97.12 188.87,97.03 C188.95,97.02 189.04,97.02 189.13,97.04" fill="none" stroke="rgb(86, 73, 61)" stroke-width="4.18" stroke-opacity="1.00" stroke-linejoin="round"/>
<path d="M189.47,104.45 C189.47,104.45 188.61,103.99 188.61,103.99 C188.61,103.99 188.95,103.08 188.95,103.08 C189.59,105.50 191.06,108.06 194.29,108.46 C194.94,108.53 197.35,108.24 198.50,108.12 C198.50,108.12 198.95,108.51 198.95,108.51" fill="none" stroke="rgb(86, 73, 61)" stroke-width="4.18" stroke-opacity="1.00" stroke-linejoin="round"/>
<path d="M207.95,70.34 C208.05,70.24 208.13,70.15 208.20,70.07 C208.26,70.00 208.38,69.85 208.58,69.61 C209.15,70.15 210.35,74.98 210.21,79.30 C210.03,83.62 205.62,100.17 203.78,104.10 C202.94,105.86 198.27,110.26 196.69,113.26 C195.84,114.92 194.11,121.01 194.55,122.57 C194.55,122.57 195.65,121.90 195.65,121.90" fill="none" stroke="rgb(86, 73, 61)" stroke-width="4.18" stroke-opacity="1.00" stroke-linejoin="round"/>
<path d="M217.52,70.93 C217.62,70.24 217.71,69.48 217.76,68.99 C217.78,68.85 217.80,68.67 217.84,68.44 C217.84,68.44 217.96,68.36 217.96,68.36 C218.11,69.38 216.35,77.53 216.19,79.51 C215.90,83.29 216.79,89.15 218.34,91.18 C219.01,92.02 220.76,93.31 221.82,93.79 C222.83,94.20 225.42,93.84 226.99,93.04 C228.38,92.29 230.23,89.57 230.70,87.86 C230.89,87.13 231.01,84.02 231.08,83.12 C231.10,82.64 231.75,81.94 231.74,81.95" fill="none" stroke="rgb(86, 73, 61)" stroke-width="4.18" stroke-opacity="1.00" stroke-linejoin="round"/>
<path d="M194.83,113.08 C196.49,111.78 197.18,111.27 197.83,110.86 C198.15,110.66 198.30,110.50 198.33,110.39 C196.26,110.52 194.69,110.98 192.52,112.25 C189.20,114.19 186.27,116.16 183.66,118.44 C186.67,117.99 193.90,114.18 194.25,114.02 C194.65,113.84 195.45,113.51 196.65,113.02 C196.37,114.76 190.83,121.55 190.46,122.78 C190.37,123.09 190.44,123.47 190.67,123.92 C192.96,123.87 203.29,117.42 204.46,116.69 C204.46,116.69 189.04,129.38 189.04,129.38 C189.04,129.38 208.30,120.43 208.30,120.43 C208.30,120.43 188.34,136.00 188.34,136.00 C188.34,136.00 205.91,127.17 205.91,127.17 C204.19,129.42 189.34,142.51 188.28,144.46 C188.20,144.61 188.17,144.81 188.20,145.04 C188.20,145.04 206.70,132.88 206.70,132.88 C206.70,132.88 186.73,148.63 186.73,148.63 C186.73,148.63 208.85,136.42 208.85,136.42 C208.85,136.42 187.50,153.31 187.50,153.31 C187.50,153.31 207.81,142.20 207.81,142.20 C206.95,143.13 199.71,149.14 198.58,150.15 C195.75,152.67 195.06,153.76 194.57,154.80 C194.57,154.80 206.28,147.60 206.28,147.60 C204.42,150.71 191.66,165.94 190.10,168.08 C188.88,169.77 187.43,172.32 186.92,173.32 C188.78,173.06 193.02,169.73 195.85,167.16 C201.02,162.45 206.82,157.19 207.44,156.64 C207.44,156.64 190.79,178.43 190.79,178.43 C190.79,178.43 210.58,164.48 210.58,164.48 C209.02,167.52 204.52,172.73 201.88,175.79 C195.72,182.96 191.45,188.53 190.85,189.98 C192.81,189.80 195.92,187.69 199.16,185.21 C202.55,182.60 208.35,178.14 211.72,175.95 C211.69,177.16 208.54,181.15 206.44,183.81 C198.59,193.82 196.30,197.95 195.86,199.08 C198.17,199.05 201.88,197.26 205.75,194.18 C207.33,192.91 207.92,192.62 208.28,192.80 C208.28,192.80 197.74,213.55 197.74,213.55 C199.28,213.09 202.06,210.77 205.49,207.08 C212.32,199.55 213.64,198.98 215.12,198.60 C215.46,200.26 213.77,205.57 212.86,208.46 C212.07,211.01 211.98,212.30 212.42,213.02 C212.42,213.02 217.15,210.09 217.15,210.09 C217.15,210.09 213.18,220.53 213.18,220.53 C213.18,220.53 219.57,217.48 219.57,217.48 C219.57,217.48 218.55,225.62 218.55,225.62 C219.21,225.75 221.87,223.97 223.01,223.46 C223.31,223.32 224.52,223.74 225.48,223.07 C225.82,222.84 226.59,222.20 227.80,221.16" fill="none" stroke="rgb(86, 73, 61)" stroke-width="4.18" stroke-opacity="1.00" stroke-linejoin="round"/>
<path d="M190.52,223.29 C190.58,222.60 190.69,221.88 190.80,221.44 C190.83,221.34 190.87,221.22 190.93,221.08 C190.99,223.99 190.86,226.94 190.76,228.84 C190.63,232.69 190.93,235.59 191.19,236.41" fill="none" stroke="rgb(86, 73, 61)" stroke-width="4.18" stroke-opacity="1.00" stroke-linejoin="round"/>
<path d="M186.73,246.20 C186.73,246.20 186.61,245.70 186.61,245.70 C186.61,245.70 186.42,245.85 186.42,245.85 C186.42,245.85 187.03,255.94 187.03,255.94 C187.03,255.94 194.24,252.83 194.24,252.83 C194.33,251.95 194.00,249.90 193.91,249.10 C193.74,247.71 193.79,245.36 193.98,244.63 C194.03,244.45 194.14,244.20 194.31,243.87" fill="none" stroke="rgb(86, 73, 61)" stroke-width="4.18" stroke-opacity="1.00" stroke-linejoin="round"/>
<path d="M215.18,247.37 C215.18,247.37 215.05,246.89 215.05,246.89 C215.05,246.89 214.64,246.60 214.64,246.60 C214.40,246.70 213.98,252.93 214.90,254.50 C215.04,254.73 215.33,255.09 215.78,255.58 C216.42,255.58 221.16,253.50 224.21,253.71 C224.67,253.75 225.85,253.79 226.61,253.29 C226.61,253.29 227.61,246.03 227.61,246.03 C227.61,246.03 229.98,244.36 229.98,244.36" fill="none" stroke="rgb(86, 73, 61)" stroke-width="4.18" stroke-opacity="1.00" stroke-linejoin="round"/>
<path d="M187.14,257.05 C187.14,257.05 187.11,256.30 187.11,256.30 C187.11,256.30 185.85,254.71 185.85,254.71 C185.87,256.94 187.13,265.30 187.10,268.31 C187.06,270.71 186.44,272.36 186.17,272.88 C186.17,272.88 183.68,270.84 183.68,270.84 C182.54,270.78 181.40,271.19 180.36,272.20 C178.54,274.02 176.34,277.39 176.61,279.32 C176.68,279.62 177.42,280.94 177.89,281.21 C179.29,281.98 181.50,282.51 182.88,282.39 C184.98,282.18 196.31,280.08 197.24,279.45 C198.15,278.78 199.06,276.43 199.09,274.84 C199.08,272.87 197.42,262.10 197.22,260.92 C196.82,258.53 195.91,256.89 194.81,256.17 C192.69,255.82 189.86,258.10 189.56,258.70" fill="none" stroke="rgb(86, 73, 61)" stroke-width="4.18" stroke-opacity="1.00" stroke-linejoin="round"/>
<path d="M215.07,258.33 C215.07,258.33 215.14,257.03 215.14,257.03 C215.14,257.03 216.33,272.92 216.33,272.92 C216.33,272.92 214.87,272.43 214.87,272.43 C213.49,272.83 207.97,278.56 207.41,280.03 C207.08,280.99 208.99,283.33 210.51,283.57 C213.18,283.94 220.44,282.25 224.79,281.62 C227.58,281.21 231.56,278.99 232.36,277.58 C233.53,275.36 232.58,260.21 232.61,256.97 C230.81,256.62 225.04,258.50 221.96,258.00 C221.35,257.90 219.09,257.11 217.88,256.73 C217.88,256.73 220.39,257.64 220.39,257.64 C220.39,257.64 220.42,257.75 220.42,257.75" fill="none" stroke="rgb(86, 73, 61)" stroke-width="4.18" stroke-opacity="1.00" stroke-linejoin="round"/>
</g>
</svg>
