<?xml version="1.0" encoding="UTF-8" standalone="no"?>
<!DOCTYPE svg PUBLIC "-//W3C//DTD SVG 1.1//EN" "http://www.w3.org/Graphics/SVG/1.1/DTD/svg11.dtd">
<svg width="128.40" height="181.68" viewBox="0.00 0.00 535.00 757.00" xmlns="http://www.w3.org/2000/svg" xmlns:xlink="http://www.w3.org/1999/xlink">
<g stroke-linecap="round" transform="translate(44.00, 155.00)" id="53-물웅덩이-1">
<path d="M367.01,331.04 C367.01,331.04 366.50,331.28 366.50,331.28 C368.29,331.95 370.20,332.27 371.76,332.03 C372.82,331.86 373.78,331.39 373.93,331.13 C372.42,329.93 367.83,329.06 365.81,329.54 C363.89,330.03 358.79,332.28 356.67,334.18 C355.19,335.55 352.67,341.31 353.39,342.87 C353.94,343.99 358.15,349.58 358.24,350.31 C358.24,350.31 353.21,353.63 353.21,353.63 C353.64,354.62 358.84,356.06 363.09,355.89 C366.31,355.73 372.09,354.87 375.64,354.00 C378.99,353.11 383.30,351.49 386.17,349.52 C390.88,346.27 393.56,346.06 394.62,345.94 C395.61,345.31 396.23,343.98 396.26,342.14 C396.26,340.61 394.02,335.67 391.28,333.55 C389.11,331.92 384.71,329.75 383.01,329.51 C379.03,329.06 369.40,334.50 368.31,335.05 C368.31,335.05 368.47,334.23 368.47,334.23" fill="none" stroke="rgb(255, 0, 0)" stroke-width="5.04" stroke-opacity="1.00" stroke-linejoin="round"/>
</g>
</svg>
