<?xml version="1.0" encoding="UTF-8" standalone="no"?>
<!DOCTYPE svg PUBLIC "-//W3C//DTD SVG 1.1//EN" "http://www.w3.org/Graphics/SVG/1.1/DTD/svg11.dtd">
<svg width="128.40" height="181.68" viewBox="0.00 0.00 535.00 757.00" xmlns="http://www.w3.org/2000/svg" xmlns:xlink="http://www.w3.org/1999/xlink">
<g stroke-linecap="round" transform="translate(44.00, 155.00)" id="53-비">
<path d="M28.07,-87.32 C25.89,-89.43 24.62,-90.41 23.56,-90.59 C22.86,-90.70 19.67,-91.02 19.23,-90.96 C16.92,-90.62 12.53,-86.49 10.24,-83.29 C7.13,-78.84 0.07,-63.52 -3.19,-55.96 C-6.08,-48.79 -11.41,-34.12 -14.05,-26.59 C-16.60,-18.87 -21.83,-0.85 -22.95,3.99 C-23.95,8.33 -27.25,26.06 -27.52,29.54 C-27.85,34.15 -27.77,37.57 -27.13,38.35" fill="none" stroke="rgb(0, 255, 0)" stroke-width="5.04" stroke-opacity="1.00" stroke-linejoin="round"/>
<path d="M79.99,-112.11 C79.99,-112.11 77.36,-112.18 77.36,-112.18 C75.94,-112.02 72.19,-99.30 69.94,-89.99 C68.17,-82.30 64.80,-66.74 63.32,-58.57 C62.00,-50.11 60.14,-35.05 59.37,-28.27 C58.26,-16.98 58.52,-12.75 58.84,-9.81" fill="none" stroke="rgb(0, 255, 0)" stroke-width="5.04" stroke-opacity="1.00" stroke-linejoin="round"/>
<path d="M97.09,-87.69 C95.38,-88.06 92.89,-88.59 92.61,-88.54 C90.52,-88.09 86.20,-77.28 82.11,-65.56 C79.80,-58.57 76.52,-46.31 74.66,-38.38 C72.54,-28.49 70.47,-16.18 70.23,-12.51 C70.15,-11.17 70.11,-8.88 70.12,-7.58 C70.09,-7.74 70.08,-7.87 70.07,-7.98 C70.07,-8.08 70.08,-8.30 70.10,-8.64" fill="none" stroke="rgb(0, 255, 0)" stroke-width="5.04" stroke-opacity="1.00" stroke-linejoin="round"/>
<path d="M138.23,-106.83 C138.23,-106.83 138.38,-108.09 138.38,-108.09 C136.87,-108.44 132.20,-100.50 126.20,-89.27 C122.41,-81.99 118.05,-72.06 114.46,-63.19 C111.52,-55.55 106.72,-41.88 104.45,-34.88 C102.32,-27.82 98.53,-14.00 96.76,-6.47 C93.27,10.32 91.15,27.16 91.63,30.88 C91.63,30.88 92.16,31.01 92.16,31.01 C92.16,31.01 92.68,29.70 92.68,29.70" fill="none" stroke="rgb(0, 255, 0)" stroke-width="5.04" stroke-opacity="1.00" stroke-linejoin="round"/>
<path d="M-9.52,73.48 C-9.52,73.48 -12.50,68.62 -12.50,68.62 C-13.67,73.14 -15.03,86.12 -15.67,92.61 C-17.10,112.35 -18.78,143.76 -19.62,160.89 C-20.19,177.52 -20.91,211.04 -20.81,224.10 C-20.58,235.89 -19.04,264.53 -17.06,282.97 C-13.47,314.58 -6.59,376.86 -3.29,407.52 C-0.48,429.65 2.87,444.35 3.90,446.68" fill="none" stroke="rgb(0, 255, 0)" stroke-width="5.04" stroke-opacity="1.00" stroke-linejoin="round"/>
<path d="M61.23,-3.00 C61.23,-3.00 60.79,-3.42 60.79,-3.42 C60.79,-3.42 60.24,-3.22 60.24,-3.22 C58.03,4.69 55.96,16.31 54.89,24.50 C53.36,38.18 50.65,70.04 49.51,85.63 C48.75,101.13 47.53,132.61 47.36,148.81 C47.52,164.76 48.06,196.32 48.68,209.88 C49.58,223.68 52.42,253.75 54.56,267.53 C58.22,288.08 61.93,294.67 63.01,296.26 C63.01,296.26 63.64,296.40 63.64,296.40 C63.64,296.40 63.77,296.16 63.77,296.16" fill="none" stroke="rgb(0, 255, 0)" stroke-width="5.04" stroke-opacity="1.00" stroke-linejoin="round"/>
<path d="M31.24,165.33 C31.24,165.33 30.77,165.09 30.77,165.09 C30.77,165.09 29.83,162.98 29.83,162.98 C29.68,163.07 29.40,171.53 32.25,221.79 C33.26,235.98 34.98,258.47 37.63,278.65 C39.12,289.30 39.80,292.17 40.10,293.32" fill="none" stroke="rgb(0, 255, 0)" stroke-width="5.04" stroke-opacity="1.00" stroke-linejoin="round"/>
<path d="M3.97,199.76 C3.97,199.76 3.44,198.11 3.44,198.11 C2.30,199.72 1.72,201.06 1.46,203.18 C0.61,210.00 -0.34,250.28 -0.61,267.28 C-0.57,280.05 3.41,305.01 4.38,308.43 C5.44,312.05 6.37,313.27 7.76,314.45 C7.76,314.45 8.65,314.46 8.65,314.46" fill="none" stroke="rgb(0, 255, 0)" stroke-width="5.04" stroke-opacity="1.00" stroke-linejoin="round"/>
<path d="M39.98,200.89 C39.98,200.89 41.08,199.27 41.08,199.27 C40.99,202.18 36.84,209.77 30.12,219.62 C24.66,227.62 19.79,236.98 15.93,246.52 C12.25,256.08 11.70,262.01 11.49,266.27" fill="none" stroke="rgb(0, 255, 0)" stroke-width="5.04" stroke-opacity="1.00" stroke-linejoin="round"/>
<path d="M41.49,289.57 C41.49,289.57 37.68,284.10 37.68,284.10 C35.75,284.51 34.64,285.25 33.75,286.92 C31.71,290.76 28.29,301.91 27.02,309.33 C25.16,320.39 23.41,351.89 22.83,365.94 C22.65,382.08 23.29,412.53 23.75,428.02 C24.43,443.46 25.28,462.15 25.45,465.40 C25.58,467.61 25.50,468.43 25.24,468.88 C25.24,468.88 25.07,467.50 25.07,467.50" fill="none" stroke="rgb(0, 255, 0)" stroke-width="5.04" stroke-opacity="1.00" stroke-linejoin="round"/>
<path d="M11.96,507.32 C11.96,507.32 11.72,507.04 11.72,507.04 C11.75,508.84 16.37,524.76 18.49,531.84 C20.86,539.30 25.75,552.94 28.45,559.86 C31.18,566.49 37.34,580.98 39.74,585.06" fill="none" stroke="rgb(0, 255, 0)" stroke-width="5.04" stroke-opacity="1.00" stroke-linejoin="round"/>
<path d="M57.99,460.61 C57.99,460.61 57.07,460.17 57.07,460.17 C57.07,460.17 56.61,458.86 56.61,458.86 C58.36,460.37 59.88,465.04 61.22,469.62 C63.30,476.92 68.46,494.51 70.13,499.24 C72.63,505.96 77.20,517.41 79.07,520.48" fill="none" stroke="rgb(0, 255, 0)" stroke-width="5.04" stroke-opacity="1.00" stroke-linejoin="round"/>
<path d="M114.13,470.63 C114.13,470.63 107.83,464.12 107.83,464.12 C106.86,465.40 106.54,466.88 106.78,469.37 C107.81,478.97 113.19,512.72 116.33,529.27 C119.86,545.69 123.70,562.31 125.14,566.20" fill="none" stroke="rgb(0, 255, 0)" stroke-width="5.04" stroke-opacity="1.00" stroke-linejoin="round"/>
<path d="M94.01,331.32 C94.01,331.32 93.89,331.57 93.89,331.57 C94.21,333.06 99.17,348.97 100.85,355.10 C105.63,372.79 114.25,404.57 118.09,418.65 C121.08,429.12 124.52,439.12 126.73,445.41 C130.66,456.01 132.30,458.62 132.99,459.59 C132.99,459.59 133.84,458.87 133.84,458.87 C133.84,458.87 132.32,450.57 132.32,450.57" fill="none" stroke="rgb(0, 255, 0)" stroke-width="5.04" stroke-opacity="1.00" stroke-linejoin="round"/>
<path d="M121.66,22.47 C121.66,22.47 121.40,16.98 121.40,16.98 C121.40,16.98 120.48,16.44 120.48,16.44 C118.36,19.56 112.05,37.34 110.73,41.45 C108.23,49.33 100.49,86.32 97.67,102.14 C95.40,116.76 91.06,146.31 88.99,161.24 C87.15,177.36 83.66,210.88 83.60,220.88 C83.59,223.88 83.87,230.43 84.78,233.72 C85.23,235.28 86.84,237.60 88.27,238.94 C89.36,239.93 90.46,240.25 91.18,240.10 C91.18,240.10 91.55,239.57 91.55,239.57" fill="none" stroke="rgb(0, 255, 0)" stroke-width="5.04" stroke-opacity="1.00" stroke-linejoin="round"/>
<path d="M111.79,152.90 C111.79,152.90 110.19,150.71 110.19,150.71 C108.92,154.04 106.11,171.69 105.08,178.54 C103.45,191.17 101.53,220.95 101.01,234.96 C100.71,248.80 100.88,274.25 101.84,291.27 C102.96,304.42 106.31,329.04 109.40,345.87 C110.76,352.58 113.95,366.19 115.55,372.65 C117.70,380.49 121.28,389.18 123.17,391.52 C123.17,391.52 125.59,388.83 125.59,388.83" fill="none" stroke="rgb(0, 255, 0)" stroke-width="5.04" stroke-opacity="1.00" stroke-linejoin="round"/>
<path d="M180.43,-33.36 C179.20,-33.95 178.03,-34.64 177.77,-35.37 C177.43,-36.30 176.98,-38.76 176.57,-38.79 C174.33,-37.38 167.82,-24.55 165.27,-18.29 C159.06,-1.91 146.73,30.93 145.52,33.15 C145.52,33.15 145.69,30.53 145.69,30.53" fill="none" stroke="rgb(0, 255, 0)" stroke-width="5.04" stroke-opacity="1.00" stroke-linejoin="round"/>
<path d="M249.75,-135.91 C249.75,-135.91 249.56,-136.86 249.56,-136.86 C248.54,-136.76 240.11,-125.34 236.87,-119.96 C233.36,-113.98 226.46,-101.44 223.77,-94.83 C222.12,-90.77 216.42,-74.42 214.53,-67.92 C210.05,-51.13 205.29,-27.55 202.42,-12.63 C199.45,3.93 193.87,35.94 191.26,51.39 C189.84,60.90 188.44,73.74 188.50,78.01 C188.56,80.39 189.94,84.32 190.61,86.12" fill="none" stroke="rgb(0, 255, 0)" stroke-width="5.04" stroke-opacity="1.00" stroke-linejoin="round"/>
<path d="M189.02,-11.96 C189.02,-11.96 185.85,-12.95 185.85,-12.95 C183.89,-10.20 182.29,-4.79 181.55,-1.71 C178.02,12.76 170.77,41.43 167.05,55.63 C163.19,70.89 156.03,102.73 152.60,118.66 C149.02,136.57 146.83,154.23 146.88,156.81 C146.88,156.81 147.63,154.62 147.63,154.62" fill="none" stroke="rgb(0, 255, 0)" stroke-width="5.04" stroke-opacity="1.00" stroke-linejoin="round"/>
<path d="M126.18,203.15 C126.05,202.29 125.69,199.92 125.69,199.09 C125.70,197.69 125.96,195.25 125.97,195.30 C123.29,212.76 120.95,238.99 120.13,254.70 C119.74,269.90 119.29,296.54 119.99,313.17 C120.58,324.74 121.52,333.26 122.51,334.77 C122.51,334.77 123.27,332.54 123.27,332.54" fill="none" stroke="rgb(0, 255, 0)" stroke-width="5.04" stroke-opacity="1.00" stroke-linejoin="round"/>
<path d="M159.11,243.24 C159.11,243.24 159.39,241.64 159.39,241.64 C158.97,249.36 159.82,285.13 161.06,304.27 C162.15,318.59 165.24,346.73 167.31,361.75 C169.80,377.07 175.39,405.82 178.65,420.03 C183.58,439.97 190.91,462.79 196.58,479.10 C200.72,490.48 204.59,499.64 206.35,503.75 C206.35,503.76 206.36,503.78 206.36,503.77 C206.36,503.77 206.10,502.91 206.10,502.91" fill="none" stroke="rgb(0, 255, 0)" stroke-width="5.04" stroke-opacity="1.00" stroke-linejoin="round"/>
<path d="M284.64,-32.91 C284.64,-32.91 285.27,-34.86 285.27,-34.86 C285.68,-32.47 284.25,-28.07 282.28,-22.40 C278.49,-11.62 261.75,25.77 257.93,34.84 C252.77,47.82 243.14,76.71 238.79,91.37 C234.51,106.95 224.73,143.77 223.70,149.19 C223.70,149.19 225.53,146.61 225.53,146.61" fill="none" stroke="rgb(0, 255, 0)" stroke-width="5.04" stroke-opacity="1.00" stroke-linejoin="round"/>
<path d="M279.74,19.38 C279.74,19.38 283.44,12.44 283.44,12.44 C283.54,13.78 280.93,19.29 278.78,22.33 C270.02,34.54 257.34,52.42 245.94,70.94 C241.53,78.35 234.16,91.70 230.53,98.43 C226.46,106.54 222.29,115.80 218.14,126.30 C216.11,131.68 213.91,138.54 213.84,140.45 C213.78,142.50 214.12,144.19 214.51,144.46" fill="none" stroke="rgb(0, 255, 0)" stroke-width="5.04" stroke-opacity="1.00" stroke-linejoin="round"/>
<path d="M252.17,-44.29 C252.17,-44.29 252.23,-45.46 252.23,-45.46 C248.65,-38.73 241.14,-24.45 237.22,-16.88 C234.07,-10.55 221.45,20.55 216.62,34.84 C212.60,47.61 204.50,77.11 200.88,92.41 C197.53,107.02 188.52,145.22 187.15,145.97 C187.15,145.97 188.31,138.41 188.31,138.41" fill="none" stroke="rgb(0, 255, 0)" stroke-width="5.04" stroke-opacity="1.00" stroke-linejoin="round"/>
<path d="M287.81,1.07 C287.81,1.07 288.94,0.60 288.94,0.60 C286.93,-0.96 282.64,-0.99 279.41,-0.58 C274.60,0.08 262.67,4.40 257.71,7.46 C250.39,12.05 242.47,18.66 237.60,23.15 C229.97,30.25 213.10,51.45 202.36,67.18 C198.57,72.89 188.73,89.63 187.23,92.55 C183.45,99.97 182.39,105.15 182.71,105.44 C182.71,105.44 183.65,105.07 183.65,105.07" fill="none" stroke="rgb(0, 255, 0)" stroke-width="5.04" stroke-opacity="1.00" stroke-linejoin="round"/>
<path d="M187.74,142.05 C187.74,142.05 187.92,140.36 187.92,140.36 C184.90,144.74 180.14,155.74 177.82,163.98 C175.28,173.49 173.54,181.69 172.02,191.29 C171.10,198.13 169.67,210.56 169.69,215.76 C169.90,225.33 170.96,236.50 172.52,239.93 C172.52,239.93 174.01,240.54 174.01,240.54" fill="none" stroke="rgb(0, 255, 0)" stroke-width="5.04" stroke-opacity="1.00" stroke-linejoin="round"/>
<path d="M194.00,400.56 C192.99,399.98 192.39,399.54 192.28,398.83 C192.12,397.57 192.23,394.59 192.52,392.09 C192.83,389.53 193.22,387.83 194.00,385.38 C194.94,387.79 197.27,427.64 198.38,444.49 C199.78,460.50 202.81,492.21 204.45,507.92 C206.57,526.18 209.99,546.14 210.90,549.21 C211.34,550.71 211.96,551.34 212.91,551.69 C212.91,551.69 213.79,548.61 213.79,548.61" fill="none" stroke="rgb(0, 255, 0)" stroke-width="5.04" stroke-opacity="1.00" stroke-linejoin="round"/>
<path d="M248.25,427.46 C248.25,427.46 247.02,424.03 247.02,424.03 C246.69,424.03 254.74,498.51 256.40,509.60 C257.74,517.29 260.47,531.08 262.43,535.59 C263.23,537.44 264.14,538.33 265.56,538.99 C265.56,538.99 266.47,536.79 266.47,536.79" fill="none" stroke="rgb(0, 255, 0)" stroke-width="5.04" stroke-opacity="1.00" stroke-linejoin="round"/>
<path d="M232.95,421.28 C232.95,421.28 232.54,420.35 232.54,420.35 C232.13,423.26 230.87,443.82 230.82,446.21 C230.61,459.92 233.73,476.25 234.55,478.50" fill="none" stroke="rgb(0, 255, 0)" stroke-width="5.04" stroke-opacity="1.00" stroke-linejoin="round"/>
<path d="M231.14,318.13 C231.14,318.13 230.88,316.13 230.88,316.13 C229.28,318.12 229.05,331.01 229.52,339.02 C230.27,349.43 231.97,360.78 233.87,365.48 C234.44,366.88 235.21,367.85 236.42,368.91 C236.42,368.91 237.57,368.35 237.57,368.35" fill="none" stroke="rgb(0, 255, 0)" stroke-width="5.04" stroke-opacity="1.00" stroke-linejoin="round"/>
<path d="M259.17,254.24 C259.17,254.24 258.89,253.44 258.89,253.44 C258.89,253.44 257.85,252.85 257.85,252.85 C256.82,253.70 256.29,254.48 256.09,255.76 C255.42,260.10 255.83,276.47 256.41,283.88 C257.54,297.97 261.97,318.03 263.01,320.65" fill="none" stroke="rgb(0, 255, 0)" stroke-width="5.04" stroke-opacity="1.00" stroke-linejoin="round"/>
<path d="M293.53,261.09 C293.53,261.09 290.96,259.87 290.96,259.87 C289.91,260.78 289.37,261.67 289.10,263.28 C287.94,270.25 281.35,355.62 278.78,390.71 C277.69,407.35 275.95,436.21 275.70,449.80 C275.71,458.14 276.21,468.06 277.44,472.74 C277.44,472.74 278.52,472.04 278.52,472.04 C278.52,472.04 278.80,470.83 278.80,470.83" fill="none" stroke="rgb(0, 255, 0)" stroke-width="5.04" stroke-opacity="1.00" stroke-linejoin="round"/>
<path d="M321.64,337.95 C320.43,341.18 317.81,348.27 317.14,350.89 C315.95,355.59 310.60,392.48 308.46,408.63 C304.62,441.08 298.82,491.10 298.19,501.10 C297.94,505.02 298.15,507.62 298.39,507.62 C298.39,507.62 298.64,506.26 298.64,506.26" fill="none" stroke="rgb(0, 255, 0)" stroke-width="5.04" stroke-opacity="1.00" stroke-linejoin="round"/>
<path d="M333.01,300.42 C332.01,301.62 331.45,302.50 331.11,303.63 C330.05,307.25 328.05,321.82 327.42,330.97 C327.05,337.67 326.31,352.73 325.93,361.08 C325.61,371.73 325.67,381.79 326.41,390.85 C327.49,402.64 328.21,405.29 328.83,406.71" fill="none" stroke="rgb(0, 255, 0)" stroke-width="5.04" stroke-opacity="1.00" stroke-linejoin="round"/>
<path d="M356.00,413.07 C356.00,413.07 352.29,411.06 352.29,411.06 C354.18,417.67 366.96,500.73 368.60,508.03 C369.12,510.29 371.45,514.26 372.81,513.96 C373.20,513.86 374.11,513.44 375.54,512.68" fill="none" stroke="rgb(0, 255, 0)" stroke-width="5.04" stroke-opacity="1.00" stroke-linejoin="round"/>
<path d="M423.43,404.40 C423.43,404.40 422.25,402.90 422.25,402.90 C422.24,402.97 422.85,423.66 422.62,430.15 C421.80,444.77 419.09,472.51 416.87,485.88 C412.75,507.67 410.56,512.15 410.57,512.02" fill="none" stroke="rgb(0, 255, 0)" stroke-width="5.04" stroke-opacity="1.00" stroke-linejoin="round"/>
<path d="M344.02,-78.72 C344.02,-78.72 343.99,-83.09 343.99,-83.09 C341.01,-79.04 335.25,-67.90 332.90,-61.67 C329.32,-51.96 326.72,-44.05 324.48,-35.91 C320.29,-19.00 315.51,4.60 313.72,18.92 C311.50,39.52 312.73,46.35 313.02,47.44 C313.31,47.51 314.61,45.59 314.86,44.96 C315.62,42.99 317.11,31.88 317.25,30.86" fill="none" stroke="rgb(0, 255, 0)" stroke-width="5.04" stroke-opacity="1.00" stroke-linejoin="round"/>
<path d="M397.66,-107.28 C397.27,-107.49 395.62,-108.32 394.92,-108.53 C393.55,-108.90 391.07,-108.23 389.45,-107.01 C386.44,-104.66 377.07,-91.62 373.14,-85.18 C370.68,-81.13 362.06,-64.66 358.67,-56.71 C355.83,-49.90 350.06,-35.05 347.27,-27.67 C341.46,-10.89 333.64,16.06 329.51,31.97 C327.42,40.29 326.20,46.75 326.01,47.76 C326.01,47.76 326.20,46.80 326.20,46.80" fill="none" stroke="rgb(0, 255, 0)" stroke-width="5.04" stroke-opacity="1.00" stroke-linejoin="round"/>
<path d="M397.89,-60.49 C397.63,-61.67 397.29,-63.02 397.09,-63.45 C396.82,-63.98 395.97,-64.42 395.02,-64.59 C393.96,-64.72 391.73,-64.13 390.42,-63.28 C387.60,-61.40 380.93,-51.39 376.02,-42.74 C372.58,-36.40 365.56,-21.24 363.80,-16.78 C360.58,-8.61 356.48,4.93 356.65,8.92 C356.76,11.23 357.40,13.02 358.31,14.02 C358.31,14.02 359.95,14.00 359.95,14.00 C359.95,14.00 364.63,8.16 364.63,8.16" fill="none" stroke="rgb(0, 255, 0)" stroke-width="5.04" stroke-opacity="1.00" stroke-linejoin="round"/>
<path d="M420.27,-54.31 C420.27,-54.31 420.62,-56.01 420.62,-56.01 C420.62,-56.01 419.54,-57.05 419.54,-57.05 C417.98,-57.30 416.96,-57.16 415.95,-56.37 C412.95,-53.97 406.14,-44.47 401.07,-36.34 C392.60,-21.90 381.80,-1.67 373.98,14.80 C370.86,21.74 364.91,36.27 362.28,43.38 C360.29,49.00 354.24,68.35 353.61,71.50 C353.38,72.65 352.18,79.52 352.42,81.98" fill="none" stroke="rgb(0, 255, 0)" stroke-width="5.04" stroke-opacity="1.00" stroke-linejoin="round"/>
<path d="M401.81,-19.35 C401.81,-19.35 401.25,-20.79 401.25,-20.79 C400.99,-17.34 398.95,-11.53 397.75,-8.08 C394.03,2.98 385.21,34.15 381.92,49.17 C380.44,56.55 378.51,67.33 378.54,70.83" fill="none" stroke="rgb(0, 255, 0)" stroke-width="5.04" stroke-opacity="1.00" stroke-linejoin="round"/>
<path d="M380.11,82.67 C380.51,85.04 379.53,89.25 378.61,91.85 C375.79,99.77 370.37,110.48 364.79,120.42 C353.87,139.35 342.14,161.63 337.96,171.63 C334.09,181.19 331.28,189.41 330.77,193.40" fill="none" stroke="rgb(0, 255, 0)" stroke-width="5.04" stroke-opacity="1.00" stroke-linejoin="round"/>
<path d="M370.84,70.01 C370.84,70.01 367.92,67.40 367.92,67.40 C365.60,84.00 363.33,110.50 362.30,127.42 C361.67,142.03 360.74,172.31 360.81,188.99 C362.64,243.34 364.43,251.05 365.29,254.03" fill="none" stroke="rgb(0, 255, 0)" stroke-width="5.04" stroke-opacity="1.00" stroke-linejoin="round"/>
<path d="M433.00,64.44 C433.00,64.44 429.79,63.57 429.79,63.57 C428.58,66.36 424.50,83.31 422.72,90.99 C419.80,105.74 415.77,130.40 413.65,148.81 C412.21,163.83 410.80,198.04 410.89,210.20 C411.31,226.32 414.31,253.61 415.28,257.92" fill="none" stroke="rgb(0, 255, 0)" stroke-width="5.04" stroke-opacity="1.00" stroke-linejoin="round"/>
<path d="M482.73,66.85 C482.73,66.85 480.95,67.45 480.95,67.45 C479.61,70.76 474.22,86.67 471.89,93.19 C469.94,98.85 466.36,112.27 464.93,118.43 C463.33,125.86 461.10,141.19 460.67,145.42 C460.25,149.64 459.55,163.10 459.52,173.53 C459.65,183.60 461.85,212.51 464.45,233.42 C466.49,250.05 469.92,280.32 470.58,294.82 C470.86,303.73 470.80,318.05 470.66,321.31 C470.28,330.05 469.07,337.01 468.46,338.29" fill="none" stroke="rgb(0, 255, 0)" stroke-width="5.04" stroke-opacity="1.00" stroke-linejoin="round"/>
<path d="M398.87,240.82 C398.87,240.82 397.71,240.78 397.71,240.78 C397.39,240.75 399.29,273.74 402.04,297.42 C403.04,305.18 405.12,318.81 406.55,325.06 C407.76,330.30 408.90,333.39 410.36,336.54" fill="none" stroke="rgb(0, 255, 0)" stroke-width="5.04" stroke-opacity="1.00" stroke-linejoin="round"/>
<path d="M290.07,73.33 C290.07,73.33 293.97,61.53 293.97,61.53 C293.30,61.62 289.65,73.21 287.54,81.81 C285.43,90.71 283.72,101.24 282.59,111.85 C280.84,133.34 282.04,144.25 282.62,146.78" fill="none" stroke="rgb(0, 255, 0)" stroke-width="5.04" stroke-opacity="1.00" stroke-linejoin="round"/>
<path d="M292.25,109.65 C292.25,109.65 291.09,109.68 291.09,109.68 C291.52,115.59 290.26,137.17 290.06,161.93 C290.15,178.52 291.47,210.30 292.51,224.59 C293.26,232.34 294.84,244.47 296.49,252.68 C298.47,261.92 299.72,263.23 300.58,263.51 C300.58,263.51 300.95,261.11 300.95,261.11" fill="none" stroke="rgb(0, 255, 0)" stroke-width="5.04" stroke-opacity="1.00" stroke-linejoin="round"/>
<path d="M348.91,34.30 C348.91,34.30 346.65,34.31 346.65,34.31 C344.06,39.89 338.67,64.73 334.40,90.68 C331.94,106.48 326.88,141.67 326.70,149.99 C326.65,152.80 327.09,156.81 327.20,157.71 C327.20,157.71 328.18,158.08 328.18,158.08 C328.18,158.08 329.33,156.80 329.33,156.80" fill="none" stroke="rgb(0, 255, 0)" stroke-width="5.04" stroke-opacity="1.00" stroke-linejoin="round"/>
<path d="M335.35,44.55 C334.99,46.22 332.54,92.33 332.58,98.33 C332.63,105.57 333.62,119.32 334.84,124.86" fill="none" stroke="rgb(0, 255, 0)" stroke-width="5.04" stroke-opacity="1.00" stroke-linejoin="round"/>
<path d="M335.12,35.88 C335.12,35.88 332.28,36.27 332.28,36.27 C331.56,39.95 328.77,77.72 328.71,92.34 C328.77,99.28 329.20,110.87 330.03,120.57 C330.97,130.37 331.95,135.14 332.86,138.61" fill="none" stroke="rgb(0, 255, 0)" stroke-width="5.04" stroke-opacity="1.00" stroke-linejoin="round"/>
<path d="M317.57,40.18 C317.57,40.18 317.29,40.32 317.29,40.32 C316.57,45.47 314.34,59.07 313.22,65.67 C312.42,71.17 310.83,87.43 310.18,95.05 C309.74,102.32 309.29,115.66 309.26,122.69 C309.36,130.09 309.89,143.99 310.81,152.95 C311.90,162.92 314.94,176.28 316.09,178.55 C316.51,179.34 317.06,179.88 317.51,180.13 C317.51,180.13 318.17,179.08 318.17,179.08" fill="none" stroke="rgb(0, 255, 0)" stroke-width="5.04" stroke-opacity="1.00" stroke-linejoin="round"/>
<path d="M212.40,350.71 C212.40,350.71 211.83,349.67 211.83,349.67" fill="none" stroke="rgb(0, 255, 0)" stroke-width="5.04" stroke-opacity="1.00" stroke-linejoin="round"/>
<path d="M213.29,341.64 C213.29,341.64 214.24,340.28 214.24,340.28" fill="none" stroke="rgb(0, 255, 0)" stroke-width="5.04" stroke-opacity="1.00" stroke-linejoin="round"/>
<path d="M217.42,337.92 C217.42,337.92 217.55,337.92 217.55,337.92 C217.57,337.89 217.47,337.90 217.44,337.93 C216.14,339.46 214.93,341.16 214.09,342.69 C210.93,348.37 204.39,361.13 201.36,367.52 C197.81,375.44 191.92,391.28 191.33,394.43 C191.33,394.43 192.00,394.17 192.00,394.17 C192.00,394.17 192.72,392.64 192.72,392.64" fill="none" stroke="rgb(0, 255, 0)" stroke-width="5.04" stroke-opacity="1.00" stroke-linejoin="round"/>
<path d="M196.62,329.83 C196.80,328.91 197.15,327.65 197.23,327.20 C197.26,327.04 197.25,326.88 197.21,326.71 C197.02,326.72 184.92,340.10 182.21,342.50 C177.20,346.88 167.96,352.87 156.39,359.15 C148.43,363.35 141.74,366.27 139.24,367.66 C139.24,367.66 146.04,365.41 146.04,365.41" fill="none" stroke="rgb(0, 255, 0)" stroke-width="5.04" stroke-opacity="1.00" stroke-linejoin="round"/>
<path d="M368.15,91.31 C368.15,91.31 364.42,94.33 364.42,94.33" fill="none" stroke="rgb(0, 255, 0)" stroke-width="5.04" stroke-opacity="1.00" stroke-linejoin="round"/>
<path d="M365.08,74.00 C365.08,74.00 367.73,75.34 367.73,75.34 C367.74,75.29 367.76,75.43 367.76,75.48 C368.22,85.85 367.80,94.75 366.62,103.59 C365.02,117.90 361.90,149.91 360.86,164.80 C358.41,209.45 358.80,230.53 358.81,232.76 C358.81,232.76 358.70,231.79 358.70,231.79" fill="none" stroke="rgb(0, 255, 0)" stroke-width="5.04" stroke-opacity="1.00" stroke-linejoin="round"/>
<path d="M422.85,288.97 C422.58,286.78 422.52,285.38 422.66,283.80 C422.75,282.77 422.89,281.24 422.96,280.16 C423.00,280.08 420.73,295.49 420.03,300.87 C419.15,308.16 417.38,323.74 417.59,327.07" fill="none" stroke="rgb(0, 255, 0)" stroke-width="5.04" stroke-opacity="1.00" stroke-linejoin="round"/>
<path d="M463.22,278.62 C463.31,275.10 463.46,269.06 463.44,268.28 C463.41,266.84 463.23,264.29 463.15,263.71 C462.16,265.81 458.28,284.31 457.10,291.33 C454.81,307.61 453.23,329.49 454.35,329.00" fill="none" stroke="rgb(0, 255, 0)" stroke-width="5.04" stroke-opacity="1.00" stroke-linejoin="round"/>
<path d="M319.53,237.51 C319.53,237.51 319.19,236.93 319.19,236.93 C316.57,240.27 314.33,252.88 313.56,259.73 C310.67,291.73 306.15,344.57 305.49,357.26 C305.04,374.73 305.76,377.73 305.89,377.94" fill="none" stroke="rgb(0, 255, 0)" stroke-width="5.04" stroke-opacity="1.00" stroke-linejoin="round"/>
</g>
</svg>
