<?xml version="1.0" encoding="UTF-8" standalone="no"?>
<!DOCTYPE svg PUBLIC "-//W3C//DTD SVG 1.1//EN" "http://www.w3.org/Graphics/SVG/1.1/DTD/svg11.dtd">
<svg width="128.40" height="181.68" viewBox="0.00 0.00 535.00 757.00" xmlns="http://www.w3.org/2000/svg" xmlns:xlink="http://www.w3.org/1999/xlink">
<g stroke-linecap="round" transform="translate(44.00, 155.00)" id="54-사람">
<path d="M174.01,427.54 C174.01,427.54 174.01,427.74 174.01,427.74 C174.01,427.74 174.59,426.21 174.59,426.21 C172.84,427.10 167.99,431.44 165.79,433.59 C163.73,435.63 162.32,438.80 161.88,441.51 C161.45,444.44 161.82,450.95 162.77,452.68 C164.51,455.69 173.85,465.02 175.60,465.75 C176.45,466.08 179.87,466.16 181.79,466.03 C184.20,465.84 186.74,465.02 188.75,463.86 C189.16,463.61 193.42,460.73 196.01,459.36 C197.04,458.77 201.17,453.00 202.23,450.47 C203.02,448.53 203.80,440.27 203.81,439.65 C203.87,436.00 202.87,431.09 202.20,429.86 C201.46,428.56 194.82,425.29 194.35,425.15 C193.04,424.80 186.25,426.27 183.72,426.26 C177.98,426.21 175.24,427.62 174.55,428.19 C174.55,428.19 175.98,427.93 175.98,427.93" fill="none" stroke="rgb(0, 255, 0)" stroke-width="4.71" stroke-opacity="1.00" stroke-linejoin="round"/>
<path d="M179.93,438.91 C179.93,438.91 179.65,436.82 179.65,436.82 C179.55,437.98 178.91,438.83 175.89,441.62 C172.32,444.83 164.76,452.17 163.34,453.45 C163.34,453.45 164.41,452.64 164.41,452.64" fill="none" stroke="rgb(0, 255, 0)" stroke-width="4.71" stroke-opacity="1.00" stroke-linejoin="round"/>
<path d="M181.90,445.11 C181.78,444.97 181.63,444.82 181.47,444.67 C180.41,443.68 180.03,443.16 179.87,442.52 C181.17,442.92 184.75,443.95 186.93,443.46 C188.30,443.16 194.33,443.22 197.80,442.37 C199.93,441.85 201.99,442.24 202.76,442.57 C202.76,442.57 202.76,442.60 202.76,442.60 C202.78,442.61 202.71,442.60 202.69,442.59 C201.99,442.38 201.44,442.24 201.05,442.19 C200.64,442.13 199.78,442.06 198.47,441.98" fill="none" stroke="rgb(0, 255, 0)" stroke-width="4.71" stroke-opacity="1.00" stroke-linejoin="round"/>
<path d="M175.31,452.80 C175.31,452.80 175.30,452.97 175.30,452.97 C175.30,452.97 175.47,452.09 175.47,452.09 C175.47,452.09 175.75,456.14 175.75,456.14 C175.75,456.14 175.71,455.41 175.71,455.41" fill="none" stroke="rgb(0, 255, 0)" stroke-width="4.71" stroke-opacity="1.00" stroke-linejoin="round"/>
<path d="M191.46,449.73 C191.46,449.73 190.96,449.58 190.96,449.58 C190.96,449.58 190.85,449.10 190.85,449.10 C190.85,449.10 190.38,453.47 190.38,453.47 C190.36,453.44 190.31,453.42 190.23,453.40 C189.97,453.32 189.27,453.13 189.02,452.96" fill="none" stroke="rgb(0, 255, 0)" stroke-width="4.71" stroke-opacity="1.00" stroke-linejoin="round"/>
<path d="M181.27,459.79 C181.27,459.73 181.24,459.68 181.17,459.62 C180.85,459.38 179.57,458.48 179.05,458.83 C179.49,459.30 182.97,459.90 185.78,458.81 C186.76,458.42 187.53,457.22 187.54,456.66 C187.53,456.43 187.51,456.21 187.49,455.99" fill="none" stroke="rgb(0, 255, 0)" stroke-width="4.71" stroke-opacity="1.00" stroke-linejoin="round"/>
<path d="M171.60,465.83 C171.55,464.65 171.57,464.05 171.67,463.60 C171.73,463.36 171.76,463.23 171.77,463.21 C171.79,463.18 171.83,463.14 171.88,463.09 C169.98,471.92 165.64,490.14 165.46,491.01 C162.94,503.52 162.44,525.22 162.87,529.96 C162.98,531.00 164.14,531.90 165.77,531.83 C166.44,531.81 170.16,531.39 170.89,531.41 C172.34,531.46 175.78,532.43 176.72,532.57 C178.46,532.81 185.33,530.74 186.81,530.21 C190.67,528.88 198.02,529.50 198.15,529.54 C198.42,528.58 198.72,518.20 198.61,511.60 C198.55,509.11 198.45,504.42 199.22,500.42 C199.82,497.32 200.75,489.71 200.89,489.08 C201.45,486.54 205.19,482.66 205.68,482.24 C206.63,481.41 208.25,480.42 209.22,480.07 C210.04,479.79 216.92,478.56 218.53,477.63 C219.49,477.07 226.43,472.95 227.82,471.10 C229.66,468.66 229.99,467.27 229.68,465.78 C229.68,465.78 229.56,466.51 229.56,466.51" fill="none" stroke="rgb(0, 255, 0)" stroke-width="4.71" stroke-opacity="1.00" stroke-linejoin="round"/>
<path d="M194.14,464.06 C193.93,463.94 193.75,463.87 193.64,463.84 C193.57,463.81 193.37,463.69 193.10,463.59 C193.10,463.59 192.85,463.70 192.85,463.70 C192.30,464.33 194.66,465.62 199.20,466.90 C202.02,467.64 207.96,468.02 210.57,467.75 C215.15,467.24 219.98,465.90 222.32,464.39 C223.97,463.29 227.19,460.40 228.43,460.16 C228.51,460.17 230.74,464.53 231.02,464.75 C231.02,464.75 231.05,464.55 231.05,464.55" fill="none" stroke="rgb(0, 255, 0)" stroke-width="4.71" stroke-opacity="1.00" stroke-linejoin="round"/>
<path d="M196.08,458.53 C195.94,458.63 195.67,458.81 195.64,458.85 C195.60,458.89 195.56,458.97 195.50,459.10 C195.43,459.48 198.36,461.97 199.34,461.89 C202.12,461.60 211.43,457.32 213.72,456.73 C215.58,456.26 217.43,456.20 217.94,456.62 C219.19,457.84 220.87,462.37 221.34,463.49 C221.34,463.49 221.10,461.43 221.10,461.43" fill="none" stroke="rgb(0, 255, 0)" stroke-width="4.71" stroke-opacity="1.00" stroke-linejoin="round"/>
<path d="M217.56,456.00 C217.56,456.00 217.12,455.89 217.12,455.89 C217.12,455.89 216.89,455.56 216.89,455.56 C218.11,454.81 219.17,454.25 219.66,454.25 C220.91,454.29 222.86,457.14 223.01,458.54 C223.15,460.33 222.40,461.67 221.78,462.26 C221.78,462.26 221.25,462.24 221.25,462.24 C221.25,462.24 221.25,461.84 221.25,461.84" fill="none" stroke="rgb(0, 255, 0)" stroke-width="4.71" stroke-opacity="1.00" stroke-linejoin="round"/>
<path d="M225.81,459.91 C225.69,460.01 225.60,460.09 225.55,460.13 C225.49,460.17 225.41,460.23 225.28,460.32 C225.28,460.32 225.23,459.97 225.23,459.97 C225.37,459.70 229.71,457.15 229.78,457.13 C230.61,456.95 233.29,458.87 234.08,461.82 C234.38,462.99 233.97,464.66 233.34,465.42 C232.05,466.84 231.19,466.91 230.89,466.85 C230.89,466.85 230.90,466.41 230.90,466.41" fill="none" stroke="rgb(0, 255, 0)" stroke-width="4.71" stroke-opacity="1.00" stroke-linejoin="round"/>
<path d="M163.98,530.39 C163.98,530.39 163.82,529.82 163.82,529.82 C164.26,531.09 164.54,532.55 164.51,533.89 C164.45,535.96 163.12,540.82 163.04,543.71 C162.92,563.47 163.94,570.67 164.24,571.04 C165.06,570.92 169.91,567.32 170.67,566.91 C171.44,566.50 176.36,566.01 177.41,565.54 C179.21,564.74 180.20,564.58 181.34,565.00 C183.18,565.69 183.63,565.63 184.02,565.53 C183.30,559.83 183.47,548.45 183.46,547.89 C183.38,544.61 183.91,540.28 183.46,536.00 C183.34,534.96 183.60,533.47 183.91,532.48 C183.91,532.48 183.88,533.26 183.88,533.26" fill="none" stroke="rgb(0, 255, 0)" stroke-width="4.71" stroke-opacity="1.00" stroke-linejoin="round"/>
<path d="M197.38,532.56 C197.38,532.56 197.17,532.56 197.17,532.56 C197.11,532.04 197.10,531.46 197.09,531.07 C197.09,530.95 196.99,530.07 196.99,529.95 C196.99,529.90 197.00,529.85 197.02,529.82 C197.02,529.82 204.89,563.81 204.89,563.81 C204.01,562.93 199.55,562.64 196.42,562.93 C195.83,562.98 188.09,563.25 185.83,564.27 C185.79,564.29 184.62,565.08 184.14,565.28 C184.14,565.28 183.63,564.24 183.63,564.24" fill="none" stroke="rgb(0, 255, 0)" stroke-width="4.71" stroke-opacity="1.00" stroke-linejoin="round"/>
<path d="M172.03,569.79 C171.95,569.13 171.89,568.71 171.86,568.51 C171.83,568.32 171.78,568.09 171.72,567.82 C171.70,568.40 171.28,571.62 170.70,571.85 C169.10,572.51 168.43,573.24 167.98,575.05 C167.64,576.52 167.61,578.02 167.95,578.45 C168.39,578.95 169.29,579.39 170.45,579.75 C172.66,579.14 184.48,569.83 184.79,569.43 C185.52,568.37 184.84,565.57 184.94,565.62 C184.94,565.62 185.30,566.46 185.30,566.46" fill="none" stroke="rgb(0, 255, 0)" stroke-width="4.71" stroke-opacity="1.00" stroke-linejoin="round"/>
<path d="M186.48,567.50 C186.50,567.16 186.50,566.87 186.47,566.63 C186.45,566.38 186.37,565.85 186.25,565.02 C186.08,566.56 185.24,571.16 185.59,572.77 C186.04,574.58 187.39,575.40 190.04,575.71 C197.66,576.54 204.41,575.94 205.12,575.84 C206.37,575.64 207.84,574.75 208.77,573.71 C209.47,572.84 209.89,571.46 209.56,570.62 C208.74,568.67 205.09,564.16 204.31,564.64 C204.26,564.69 204.23,564.71 204.21,564.72" fill="none" stroke="rgb(0, 255, 0)" stroke-width="4.71" stroke-opacity="1.00" stroke-linejoin="round"/>
</g>
</svg>
