<?xml version="1.0" encoding="UTF-8" standalone="no"?>
<!DOCTYPE svg PUBLIC "-//W3C//DTD SVG 1.1//EN" "http://www.w3.org/Graphics/SVG/1.1/DTD/svg11.dtd">
<svg width="128.40" height="181.68" viewBox="0.00 0.00 535.00 757.00" xmlns="http://www.w3.org/2000/svg" xmlns:xlink="http://www.w3.org/1999/xlink">
<g stroke-linecap="round" transform="translate(44.00, 155.00)" id="55-사람">
<path d="M236.01,44.51 C236.01,44.51 236.20,42.67 236.20,42.67 C237.28,43.17 236.27,51.70 236.06,52.37 C234.99,52.61 228.75,54.93 227.45,55.91 C223.84,58.69 215.13,73.06 212.89,78.54 C208.97,88.21 208.62,90.79 208.77,91.67 C209.24,92.17 215.38,95.16 216.10,95.14 C217.06,95.06 219.56,90.81 220.81,88.11 C225.71,77.41 226.59,73.72 226.31,73.73 C226.31,73.73 225.29,73.32 225.29,73.32" fill="none" stroke="rgb(255, 165, 0)" stroke-width="2.36" stroke-opacity="1.00" stroke-linejoin="round"/>
<path d="M225.95,85.11 C225.95,85.11 228.41,80.28 228.41,80.28 C224.49,90.41 220.00,99.45 216.43,104.90 C210.65,114.02 204.68,130.72 204.88,130.96 C206.04,131.29 211.32,131.17 215.89,130.24 C217.25,129.96 227.99,127.33 230.71,126.90 C235.28,126.21 251.67,126.57 256.58,125.83 C257.64,125.67 260.91,125.23 261.92,125.51 C261.92,125.51 261.13,125.44 261.13,125.44" fill="none" stroke="rgb(255, 165, 0)" stroke-width="2.36" stroke-opacity="1.00" stroke-linejoin="round"/>
<path d="M256.62,82.30 C256.62,82.30 255.88,81.58 255.88,81.58 C258.12,92.63 261.52,122.81 263.40,126.35 C263.40,126.35 263.37,123.17 263.37,123.17" fill="none" stroke="rgb(255, 165, 0)" stroke-width="2.36" stroke-opacity="1.00" stroke-linejoin="round"/>
<path d="M241.82,45.14 C241.81,45.07 241.80,45.02 241.79,44.99 C241.77,44.93 241.72,44.86 241.64,44.77 C241.62,44.74 241.57,44.69 241.51,44.62 C241.51,44.62 241.80,44.64 241.80,44.64 C241.37,48.31 241.23,51.72 242.16,53.07 C244.09,55.78 247.51,57.84 249.40,58.72 C253.68,60.69 258.64,63.59 259.20,64.33 C259.65,64.96 261.24,69.33 263.36,72.64 C264.08,73.68 271.96,77.14 272.76,78.00 C275.00,80.51 277.37,88.09 277.59,89.14 C277.37,89.63 275.39,90.14 274.47,89.94 C274.36,89.92 274.28,89.86 274.23,89.76" fill="none" stroke="rgb(255, 165, 0)" stroke-width="2.36" stroke-opacity="1.00" stroke-linejoin="round"/>
<path d="M248.94,73.81 C248.94,73.49 248.91,73.24 248.85,73.05 C248.38,71.97 247.87,70.74 247.86,70.37 C248.29,70.29 252.58,74.16 255.40,76.73 C257.19,78.33 273.57,88.47 275.55,89.38 C275.58,89.39 275.65,89.44 275.62,89.43 C275.62,89.44 275.61,89.44 275.59,89.43 C275.57,89.41 275.51,89.36 275.41,89.28 C275.41,89.28 276.30,87.36 276.30,87.36" fill="none" stroke="rgb(255, 165, 0)" stroke-width="2.36" stroke-opacity="1.00" stroke-linejoin="round"/>
<path d="M280.99,87.83 C280.99,87.83 280.46,86.04 280.46,86.04 C279.42,85.79 278.51,86.24 278.00,87.44 C277.52,88.61 277.96,92.83 278.89,94.03 C279.52,94.79 280.90,95.22 281.61,94.84 C282.94,94.05 284.38,90.35 283.85,88.93 C283.61,88.38 282.56,87.66 281.92,87.68 C280.06,87.77 278.69,88.96 278.38,89.42" fill="none" stroke="rgb(255, 165, 0)" stroke-width="2.36" stroke-opacity="1.00" stroke-linejoin="round"/>
<path d="M209.43,97.53 C209.44,97.25 209.68,96.54 209.72,96.25 C209.74,96.08 209.75,95.75 209.74,95.26 C208.95,94.67 207.08,95.16 206.54,96.22 C205.91,97.58 206.98,100.87 208.51,101.94 C210.20,103.06 213.46,102.44 214.44,100.97 C215.24,99.64 214.31,96.20 212.59,94.89 C209.31,92.52 208.09,95.04 207.92,95.73" fill="none" stroke="rgb(255, 165, 0)" stroke-width="2.36" stroke-opacity="1.00" stroke-linejoin="round"/>
<path d="M218.42,133.41 C218.42,132.41 218.44,131.76 218.47,131.48 C218.50,131.19 218.58,130.87 218.72,130.50 C218.72,130.50 218.91,130.41 218.91,130.41 C218.91,130.41 220.45,164.66 220.45,164.66 C220.45,164.66 220.69,162.97 220.69,162.97" fill="none" stroke="rgb(255, 165, 0)" stroke-width="2.36" stroke-opacity="1.00" stroke-linejoin="round"/>
<path d="M227.95,133.28 C227.95,133.28 228.01,131.93 228.01,131.93 C227.49,132.29 227.10,135.60 226.57,141.48 C226.30,144.72 225.52,160.70 225.84,164.66 C225.84,164.66 225.95,162.99 225.95,162.99" fill="none" stroke="rgb(255, 165, 0)" stroke-width="2.36" stroke-opacity="1.00" stroke-linejoin="round"/>
<path d="M227.99,131.64 C227.99,131.64 227.77,131.45 227.77,131.45 C227.87,131.39 232.76,148.66 234.39,152.89 C235.35,155.34 237.45,159.65 238.13,160.18 C238.03,159.89 237.96,159.72 237.93,159.65 C237.88,159.52 237.84,159.40 237.82,159.29 C237.66,158.33 237.55,156.74 237.48,153.98 C237.45,152.93 237.42,151.89 237.40,150.84" fill="none" stroke="rgb(255, 165, 0)" stroke-width="2.36" stroke-opacity="1.00" stroke-linejoin="round"/>
<path d="M238.58,130.26 C238.58,130.26 238.95,128.53 238.95,128.53 C238.95,128.53 244.07,163.20 244.07,163.20 C244.07,163.20 243.25,161.61 243.25,161.61" fill="none" stroke="rgb(255, 165, 0)" stroke-width="2.36" stroke-opacity="1.00" stroke-linejoin="round"/>
<path d="M243.21,163.51 C242.73,162.59 241.77,161.90 241.17,162.18 C240.43,162.57 239.45,164.08 239.11,165.48 C238.95,166.21 239.65,168.20 240.28,168.87 C241.82,170.45 247.43,172.14 249.59,172.27 C251.81,172.36 257.85,171.30 260.19,169.83 C261.33,169.09 262.87,167.13 263.08,166.22 C263.21,165.39 262.35,163.74 261.44,163.04 C259.47,161.60 254.24,160.64 250.45,160.39 C248.29,160.28 244.99,160.56 239.84,161.14 C239.51,161.18 239.19,161.22 238.90,161.24 C238.90,161.24 239.41,161.11 239.41,161.11" fill="none" stroke="rgb(255, 165, 0)" stroke-width="2.36" stroke-opacity="1.00" stroke-linejoin="round"/>
<path d="M220.73,165.92 C220.73,165.92 220.50,164.40 220.50,164.40 C219.48,163.83 209.43,162.19 208.28,162.65 C206.45,163.47 204.69,166.46 205.59,167.45 C206.76,168.59 212.42,169.16 216.46,169.06 C220.13,168.93 225.29,167.67 226.46,166.30 C226.46,166.30 215.16,163.38 215.16,163.38 C215.16,163.38 215.34,163.43 215.34,163.43" fill="none" stroke="rgb(255, 165, 0)" stroke-width="2.36" stroke-opacity="1.00" stroke-linejoin="round"/>
<path d="M233.24,19.34 C233.22,19.13 233.30,18.98 233.47,18.88 C233.53,18.84 235.93,17.94 236.19,17.74 C236.28,17.68 236.36,17.57 236.43,17.41 C236.14,17.07 233.20,17.07 231.46,17.80 C229.16,18.80 225.09,23.09 223.03,26.03 C220.86,29.19 217.87,34.65 217.43,36.20 C217.21,37.05 217.33,38.26 217.67,38.91 C218.33,39.93 223.06,40.23 229.37,39.68 C233.20,39.33 236.42,38.90 237.37,38.76 C237.37,38.76 237.12,38.70 237.12,38.70" fill="none" stroke="rgb(255, 165, 0)" stroke-width="2.36" stroke-opacity="1.00" stroke-linejoin="round"/>
<path d="M241.30,33.05 C241.29,32.79 241.37,32.19 241.38,31.96 C241.39,31.86 241.39,31.70 241.38,31.49 C241.10,31.01 237.05,32.69 235.88,33.89 C234.61,35.28 233.43,39.09 234.23,41.09 C234.65,42.04 236.30,43.60 237.28,43.91 C238.33,44.20 240.86,43.83 241.95,43.23 C243.18,42.52 244.88,40.66 245.55,39.35 C246.07,38.26 246.34,36.13 246.08,35.19 C245.80,34.30 244.47,32.80 243.59,32.38 C238.51,30.18 234.93,33.09 234.88,33.30 C234.88,33.30 234.98,33.53 234.98,33.53" fill="none" stroke="rgb(255, 165, 0)" stroke-width="2.36" stroke-opacity="1.00" stroke-linejoin="round"/>
<path d="M233.51,19.25 C233.51,19.25 232.60,18.72 232.60,18.72 C232.73,19.04 238.04,17.39 240.36,16.92 C243.39,16.34 247.77,16.61 249.88,17.34 C251.94,18.10 254.93,20.89 255.73,22.78 C257.11,26.24 256.87,39.16 256.58,40.67 C256.58,40.67 256.38,39.71 256.38,39.71" fill="none" stroke="rgb(255, 165, 0)" stroke-width="2.36" stroke-opacity="1.00" stroke-linejoin="round"/>
<path d="M245.12,43.15 C245.12,43.15 244.72,43.15 244.72,43.15 C244.72,43.15 257.68,40.09 257.68,40.09 C257.68,40.09 257.19,40.27 257.19,40.27" fill="none" stroke="rgb(255, 165, 0)" stroke-width="2.36" stroke-opacity="1.00" stroke-linejoin="round"/>
<path d="M225.09,29.53 C225.26,29.09 225.39,28.77 225.48,28.57 C225.63,28.22 225.99,27.33 225.96,27.00 C225.02,27.49 223.58,31.31 223.33,33.83 C223.21,35.24 223.52,37.59 223.95,38.15 C225.07,39.50 226.72,38.26 227.12,37.72" fill="none" stroke="rgb(255, 165, 0)" stroke-width="2.36" stroke-opacity="1.00" stroke-linejoin="round"/>
<path d="M229.23,29.22 C229.23,29.22 229.31,27.97 229.31,27.97 C227.74,32.17 227.38,35.80 227.94,36.58 C228.46,37.26 229.27,37.28 230.16,36.80" fill="none" stroke="rgb(255, 165, 0)" stroke-width="2.36" stroke-opacity="1.00" stroke-linejoin="round"/>
<path d="M232.93,27.26 C232.93,27.26 233.46,26.44 233.46,26.44 C232.80,28.71 231.43,33.45 231.49,35.07 C231.50,35.31 231.56,35.61 231.67,35.97 C231.67,35.97 231.83,36.02 231.83,36.02" fill="none" stroke="rgb(255, 165, 0)" stroke-width="2.36" stroke-opacity="1.00" stroke-linejoin="round"/>
<path d="M232.62,21.79 C232.62,21.79 231.94,21.94 231.94,21.94 C232.06,22.21 233.56,23.28 236.73,27.55 C237.04,27.94 237.46,28.40 238.02,28.93 C238.02,28.93 237.95,28.77 237.95,28.77" fill="none" stroke="rgb(255, 165, 0)" stroke-width="2.36" stroke-opacity="1.00" stroke-linejoin="round"/>
<path d="M238.62,24.95 C238.62,24.95 238.15,23.85 238.15,23.85 C239.42,23.57 243.37,24.12 245.03,25.37 C246.51,26.50 248.33,28.68 248.89,29.75 C248.89,29.75 249.00,29.08 249.00,29.08" fill="none" stroke="rgb(255, 165, 0)" stroke-width="2.36" stroke-opacity="1.00" stroke-linejoin="round"/>
<path d="M236.49,20.99 C236.49,20.99 236.42,20.58 236.42,20.58 C237.67,20.24 241.19,20.23 243.72,21.11 C245.11,21.61 250.63,24.73 250.87,24.63 C250.87,24.63 250.76,24.49 250.76,24.49" fill="none" stroke="rgb(255, 165, 0)" stroke-width="2.36" stroke-opacity="1.00" stroke-linejoin="round"/>
<path d="M238.49,21.03 C238.49,21.03 238.55,20.75 238.55,20.75 C239.59,19.97 243.89,19.11 246.22,19.94 C251.34,21.87 252.26,26.56 252.09,26.78 C252.09,26.78 251.26,26.34 251.26,26.34" fill="none" stroke="rgb(255, 165, 0)" stroke-width="2.36" stroke-opacity="1.00" stroke-linejoin="round"/>
<path d="M237.69,35.01 C237.69,35.01 237.23,35.13 237.23,35.13 C238.11,35.28 244.05,33.96 244.63,33.80 C245.01,33.70 245.45,33.53 245.97,33.32" fill="none" stroke="rgb(255, 165, 0)" stroke-width="2.36" stroke-opacity="1.00" stroke-linejoin="round"/>
<path d="M234.17,40.66 C234.17,40.66 234.04,40.66 234.04,40.66 C235.33,40.48 240.43,39.25 243.01,38.13 C244.04,37.68 244.74,36.99 245.03,36.47" fill="none" stroke="rgb(255, 165, 0)" stroke-width="2.36" stroke-opacity="1.00" stroke-linejoin="round"/>
<path d="M235.73,41.15 C235.73,41.15 235.18,41.72 235.18,41.72 C235.25,42.03 238.47,42.47 243.83,40.10 C244.12,39.96 244.43,39.81 244.75,39.62 C244.75,39.62 244.72,39.58 244.72,39.58 C244.72,39.58 244.48,39.62 244.48,39.62" fill="none" stroke="rgb(255, 165, 0)" stroke-width="2.36" stroke-opacity="1.00" stroke-linejoin="round"/>
<path d="M237.91,35.67 C237.91,35.67 237.22,35.97 237.22,35.97 C237.22,35.97 245.60,34.63 245.60,34.63" fill="none" stroke="rgb(255, 165, 0)" stroke-width="2.36" stroke-opacity="1.00" stroke-linejoin="round"/>
<path d="M251.76,29.53 C251.76,29.53 251.64,29.35 251.64,29.35 C251.64,29.35 251.46,29.37 251.46,29.37 C250.99,31.62 250.09,35.13 249.31,37.32 C249.01,38.12 248.62,39.15 248.57,39.32 C248.57,39.32 248.78,38.86 248.78,38.86" fill="none" stroke="rgb(255, 165, 0)" stroke-width="2.36" stroke-opacity="1.00" stroke-linejoin="round"/>
<path d="M255.14,33.89 C254.60,34.54 254.32,35.60 254.17,36.01 C253.62,37.57 252.58,39.77 252.40,39.85 C252.40,39.85 252.19,39.76 252.19,39.76 C252.19,39.76 252.11,39.54 252.11,39.54" fill="none" stroke="rgb(255, 165, 0)" stroke-width="2.36" stroke-opacity="1.00" stroke-linejoin="round"/>
</g>
</svg>
