<?xml version="1.0" encoding="UTF-8" standalone="no"?>
<!DOCTYPE svg PUBLIC "-//W3C//DTD SVG 1.1//EN" "http://www.w3.org/Graphics/SVG/1.1/DTD/svg11.dtd">
<svg width="128.40" height="181.68" viewBox="0.00 0.00 535.00 757.00" xmlns="http://www.w3.org/2000/svg" xmlns:xlink="http://www.w3.org/1999/xlink">
<g stroke-linecap="round" transform="translate(44.00, 155.00)" id="55-비">
<path d="M137.59,-23.02 C137.59,-23.02 136.55,-23.17 136.55,-23.17 C136.55,-23.17 135.86,-22.06 135.86,-22.06 C135.72,-22.26 135.60,-22.44 135.51,-22.60 C134.62,-24.08 134.26,-24.26 133.87,-24.34 C133.19,-23.96 132.06,-20.78 131.84,-18.11 C131.57,-14.43 132.48,-12.26 133.10,-11.64 C137.16,-12.70 135.62,-18.26 135.08,-18.90 C135.08,-18.90 132.57,-18.02 132.57,-18.02" fill="none" stroke="rgb(0, 0, 255)" stroke-width="2.36" stroke-opacity="1.00" stroke-linejoin="round"/>
<path d="M128.20,23.13 C128.20,23.13 127.89,23.05 127.89,23.05 C127.89,23.05 127.11,21.38 127.11,21.38 C127.11,21.38 126.37,26.92 126.37,26.92 C126.37,26.92 126.19,22.59 126.19,22.59 C126.19,22.59 125.40,23.80 125.40,23.80" fill="none" stroke="rgb(0, 0, 255)" stroke-width="2.36" stroke-opacity="1.00" stroke-linejoin="round"/>
<path d="M127.58,58.34 C127.58,58.34 126.24,57.38 126.24,57.38 C126.24,57.38 126.18,62.85 126.18,62.85 C128.02,60.82 127.32,55.86 127.07,55.15 C127.07,55.15 126.63,54.99 126.63,54.99 C126.63,54.99 126.08,55.53 126.08,55.53" fill="none" stroke="rgb(0, 0, 255)" stroke-width="2.36" stroke-opacity="1.00" stroke-linejoin="round"/>
<path d="M167.59,-21.38 C167.59,-21.38 167.59,-21.94 167.59,-21.94 C167.59,-21.94 167.48,-22.07 167.48,-22.07 C167.11,-21.56 166.14,-19.32 165.63,-17.60 C165.03,-15.52 164.38,-11.24 164.39,-10.87" fill="none" stroke="rgb(0, 0, 255)" stroke-width="2.36" stroke-opacity="1.00" stroke-linejoin="round"/>
<path d="M172.36,-5.09 C172.36,-5.09 171.73,-6.20 171.73,-6.20 C171.29,-6.00 170.78,-5.43 170.37,-4.53 C169.63,-2.93 169.41,-0.15 169.49,-0.23" fill="none" stroke="rgb(0, 0, 255)" stroke-width="2.36" stroke-opacity="1.00" stroke-linejoin="round"/>
<path d="M178.85,11.56 C177.81,11.71 177.01,11.96 176.63,12.58 C176.05,13.53 174.61,17.42 174.27,18.82 C174.18,19.23 174.13,19.70 174.12,20.24" fill="none" stroke="rgb(0, 0, 255)" stroke-width="2.36" stroke-opacity="1.00" stroke-linejoin="round"/>
<path d="M174.63,32.48 C174.63,32.48 173.71,31.00 173.71,31.00 C173.71,31.00 173.14,36.43 173.14,36.43 C174.18,35.51 174.71,34.71 174.91,33.57 C175.10,32.43 174.86,31.56 174.19,30.51 C174.19,30.51 172.60,30.63 172.60,30.63" fill="none" stroke="rgb(0, 0, 255)" stroke-width="2.36" stroke-opacity="1.00" stroke-linejoin="round"/>
<path d="M174.18,68.31 C174.18,68.31 172.68,66.83 172.68,66.83 C172.68,66.83 171.75,68.38 171.75,68.38 C172.62,68.90 173.95,66.63 173.61,65.76 C173.54,65.60 173.34,65.34 172.99,64.98 C172.99,64.98 170.52,65.87 170.52,65.87 C170.52,65.87 170.55,65.96 170.55,65.96" fill="none" stroke="rgb(0, 0, 255)" stroke-width="2.36" stroke-opacity="1.00" stroke-linejoin="round"/>
<path d="M169.73,96.18 C169.73,96.18 168.83,94.28 168.83,94.28 C168.83,94.28 169.05,98.66 169.05,98.66 C170.06,98.37 170.61,97.87 170.74,96.96 C170.92,95.68 170.42,94.97 170.13,94.81 C170.13,94.81 169.62,95.14 169.62,95.14" fill="none" stroke="rgb(0, 0, 255)" stroke-width="2.36" stroke-opacity="1.00" stroke-linejoin="round"/>
<path d="M168.57,119.15 C168.57,119.15 168.14,117.74 168.14,117.74 C168.65,121.98 170.15,124.65 170.73,124.70 C173.94,122.32 172.14,118.03 171.76,117.72 C171.76,117.72 170.74,118.59 170.74,118.59" fill="none" stroke="rgb(0, 0, 255)" stroke-width="2.36" stroke-opacity="1.00" stroke-linejoin="round"/>
<path d="M179.83,154.94 C179.83,154.94 178.99,154.65 178.99,154.65 C178.87,154.74 178.80,157.02 178.85,159.22 C178.88,160.01 179.00,160.44 179.12,160.50 C179.12,160.50 179.25,159.39 179.25,159.39" fill="none" stroke="rgb(0, 0, 255)" stroke-width="2.36" stroke-opacity="1.00" stroke-linejoin="round"/>
<path d="M149.16,103.35 C148.84,103.35 148.12,102.73 147.84,102.48 C147.17,101.91 146.23,102.37 145.82,102.77 C146.68,104.19 148.91,103.59 150.31,102.94" fill="none" stroke="rgb(0, 0, 255)" stroke-width="2.36" stroke-opacity="1.00" stroke-linejoin="round"/>
<path d="M144.00,144.65 C144.00,144.65 143.64,139.51 143.64,139.51 C143.46,139.73 143.23,141.64 143.34,142.84 C143.43,143.69 143.99,144.72 144.39,145.21 C144.39,145.21 144.80,145.06 144.80,145.06" fill="none" stroke="rgb(0, 0, 255)" stroke-width="2.36" stroke-opacity="1.00" stroke-linejoin="round"/>
<path d="M147.21,158.94 C147.21,158.94 146.04,159.04 146.04,159.04 C146.04,159.04 145.81,160.32 145.81,160.32 C146.85,160.56 147.54,160.26 147.72,159.25 C148.02,157.43 147.05,155.77 146.25,154.83 C146.25,154.83 146.15,154.92 146.15,154.92 C146.15,154.92 146.29,154.73 146.29,154.73" fill="none" stroke="rgb(0, 0, 255)" stroke-width="2.36" stroke-opacity="1.00" stroke-linejoin="round"/>
<path d="M205.34,-18.66 C205.30,-18.94 205.25,-19.19 205.19,-19.42 C205.13,-19.64 204.98,-20.16 204.74,-20.98 C204.74,-20.98 203.32,-14.29 203.32,-14.29 C204.52,-14.90 205.26,-15.80 205.27,-16.83 C205.26,-19.12 202.22,-18.56 201.26,-17.83" fill="none" stroke="rgb(0, 0, 255)" stroke-width="2.36" stroke-opacity="1.00" stroke-linejoin="round"/>
<path d="M209.44,1.68 C209.44,1.68 208.51,1.24 208.51,1.24 C207.06,0.61 204.94,8.54 205.01,8.97 C207.01,8.55 207.12,4.75 207.03,4.62 C207.03,4.62 206.29,6.69 206.29,6.69" fill="none" stroke="rgb(0, 0, 255)" stroke-width="2.36" stroke-opacity="1.00" stroke-linejoin="round"/>
<path d="M204.23,27.23 C203.19,27.21 202.02,28.69 202.32,30.22 C202.36,30.40 202.48,30.69 202.69,31.08 C204.54,29.60 205.55,26.10 205.25,25.58 C205.25,25.58 204.04,26.82 204.04,26.82" fill="none" stroke="rgb(0, 0, 255)" stroke-width="2.36" stroke-opacity="1.00" stroke-linejoin="round"/>
<path d="M206.90,56.56 C206.90,56.56 205.42,55.40 205.42,55.40 C205.42,55.40 205.94,63.00 205.94,63.00 C205.94,63.00 207.02,58.74 207.02,58.74 C207.02,58.74 205.54,59.39 205.54,59.39 C205.54,59.39 205.51,59.12 205.51,59.12" fill="none" stroke="rgb(0, 0, 255)" stroke-width="2.36" stroke-opacity="1.00" stroke-linejoin="round"/>
<path d="M237.97,-5.49 C237.39,-6.14 235.96,-7.61 234.94,-7.57 C230.70,-7.20 231.38,-2.58 231.88,-1.60 C232.81,-1.31 233.66,-1.38 234.52,-2.00 C236.23,-3.26 236.97,-4.87 237.17,-5.66" fill="none" stroke="rgb(0, 0, 255)" stroke-width="2.36" stroke-opacity="1.00" stroke-linejoin="round"/>
<path d="M260.00,-23.96 C260.00,-23.96 259.03,-24.14 259.03,-24.14 C258.97,-23.03 259.31,-22.31 260.25,-21.84 C260.83,-21.56 261.52,-21.41 262.02,-21.38" fill="none" stroke="rgb(0, 0, 255)" stroke-width="2.36" stroke-opacity="1.00" stroke-linejoin="round"/>
<path d="M263.96,-7.71 C263.96,-7.71 263.43,-9.22 263.43,-9.22 C263.43,-9.22 262.05,-0.60 262.05,-0.60 C262.05,-0.60 264.92,-3.86 264.92,-3.86 C264.92,-3.86 262.52,-3.16 262.52,-3.16" fill="none" stroke="rgb(0, 0, 255)" stroke-width="2.36" stroke-opacity="1.00" stroke-linejoin="round"/>
<path d="M287.07,-15.99 C287.07,-15.99 286.29,-17.22 286.29,-17.22 C285.03,-17.13 281.98,-10.91 281.97,-9.08 C281.99,-7.69 282.62,-6.60 283.32,-6.35 C283.32,-6.35 283.93,-6.67 283.93,-6.67" fill="none" stroke="rgb(0, 0, 255)" stroke-width="2.36" stroke-opacity="1.00" stroke-linejoin="round"/>
<path d="M281.46,20.55 C281.46,20.55 280.22,19.00 280.22,19.00 C280.22,19.00 279.25,23.33 279.25,23.33 C279.25,23.33 281.29,23.33 281.29,23.33 C281.29,23.33 281.43,23.42 281.43,23.42 C281.43,23.42 281.38,23.62 281.38,23.62" fill="none" stroke="rgb(0, 0, 255)" stroke-width="2.36" stroke-opacity="1.00" stroke-linejoin="round"/>
<path d="M278.16,49.08 C278.16,49.08 275.93,49.17 275.93,49.17 C275.93,49.17 276.30,53.25 276.30,53.25 C279.62,50.81 276.97,48.76 276.49,48.67 C276.49,48.67 275.61,49.68 275.61,49.68 C275.61,49.68 275.83,50.03 275.83,50.03" fill="none" stroke="rgb(0, 0, 255)" stroke-width="2.36" stroke-opacity="1.00" stroke-linejoin="round"/>
<path d="M280.88,118.03 C279.83,117.59 279.23,117.45 278.89,117.67 C278.17,118.24 277.98,123.00 278.98,124.19 C279.83,124.38 280.61,124.23 281.10,123.55 C283.94,119.52 280.24,118.16 279.57,118.06" fill="none" stroke="rgb(0, 0, 255)" stroke-width="2.36" stroke-opacity="1.00" stroke-linejoin="round"/>
<path d="M237.08,92.84 C237.08,92.84 236.70,92.82 236.70,92.82 C236.70,92.82 235.91,92.13 235.91,92.13 C235.91,92.13 236.06,97.28 236.06,97.28 C236.06,97.28 236.67,93.95 236.67,93.95 C236.67,93.95 236.14,94.99 236.14,94.99" fill="none" stroke="rgb(0, 0, 255)" stroke-width="2.36" stroke-opacity="1.00" stroke-linejoin="round"/>
<path d="M226.35,117.14 C226.35,117.14 224.52,116.31 224.52,116.31 C224.52,116.31 224.63,118.64 224.63,118.64 C224.63,118.64 225.89,117.97 225.89,117.97 C225.89,117.97 225.39,117.14 225.39,117.14 C225.39,117.14 224.76,117.53 224.76,117.53" fill="none" stroke="rgb(0, 0, 255)" stroke-width="2.36" stroke-opacity="1.00" stroke-linejoin="round"/>
<path d="M242.15,117.81 C242.15,117.81 241.25,116.99 241.25,116.99 C238.14,118.00 239.27,122.55 239.93,123.29 C239.93,123.29 243.15,122.83 243.15,122.83" fill="none" stroke="rgb(0, 0, 255)" stroke-width="2.36" stroke-opacity="1.00" stroke-linejoin="round"/>
<path d="M285.15,142.69 C284.78,142.64 284.52,142.53 284.37,142.37 C284.23,142.20 283.99,141.74 283.67,140.98 C282.99,144.61 282.77,148.09 283.85,149.31 C284.00,149.47 284.31,149.70 284.78,150.00 C284.78,150.00 286.53,148.92 286.53,148.92" fill="none" stroke="rgb(0, 0, 255)" stroke-width="2.36" stroke-opacity="1.00" stroke-linejoin="round"/>
<path d="M320.59,110.69 C320.59,110.69 318.30,108.51 318.30,108.51 C318.30,108.51 318.01,112.75 318.01,112.75 C318.84,112.00 319.19,111.48 319.02,110.95 C318.82,110.36 318.02,109.20 318.02,109.01 C318.02,109.01 318.14,108.86 318.14,108.86" fill="none" stroke="rgb(0, 0, 255)" stroke-width="2.36" stroke-opacity="1.00" stroke-linejoin="round"/>
<path d="M334.30,79.35 C334.30,79.35 331.93,79.34 331.93,79.34 C331.93,79.34 332.75,82.33 332.75,82.33 C333.24,81.90 333.37,79.24 332.53,78.59 C331.81,78.08 330.80,78.70 330.49,79.01" fill="none" stroke="rgb(0, 0, 255)" stroke-width="2.36" stroke-opacity="1.00" stroke-linejoin="round"/>
<path d="M315.15,45.08 C315.15,45.08 314.90,42.64 314.90,42.64 C313.79,42.92 313.92,44.95 314.81,45.92 C315.79,46.94 317.69,47.00 317.90,45.66 C318.03,44.48 315.53,43.06 314.11,44.04 C313.94,44.16 313.72,44.40 313.44,44.76" fill="none" stroke="rgb(0, 0, 255)" stroke-width="2.36" stroke-opacity="1.00" stroke-linejoin="round"/>
<path d="M337.06,17.57 C337.06,17.57 337.07,14.68 337.07,14.68 C336.44,17.74 337.21,21.09 338.13,21.58 C338.13,21.58 338.38,19.18 338.38,19.18 C338.38,19.18 337.13,19.74 337.13,19.74" fill="none" stroke="rgb(0, 0, 255)" stroke-width="2.36" stroke-opacity="1.00" stroke-linejoin="round"/>
<path d="M342.84,-27.16 C342.84,-27.16 341.01,-27.42 341.01,-27.42 C338.38,-24.26 338.78,-18.28 339.19,-17.00 C339.92,-16.85 340.73,-17.43 341.23,-18.76 C343.16,-24.09 339.80,-26.84 339.44,-26.91 C339.44,-26.91 339.28,-26.51 339.28,-26.51" fill="none" stroke="rgb(0, 0, 255)" stroke-width="2.36" stroke-opacity="1.00" stroke-linejoin="round"/>
<path d="M141.29,-3.26 C140.35,-3.49 139.47,-6.23 139.25,-9.58 C139.13,-11.47 139.11,-13.79 139.18,-14.05 C139.31,-13.99 140.69,-8.41 139.99,7.97 C139.68,13.66 137.90,28.96 136.97,36.67 C136.50,40.48 136.53,41.72 136.67,41.85 C136.67,41.85 136.99,41.87 136.99,41.87" fill="none" stroke="rgb(0, 0, 255)" stroke-width="2.36" stroke-opacity="1.00" stroke-linejoin="round"/>
</g>
</svg>
