<?xml version="1.0" encoding="UTF-8" standalone="no"?>
<!DOCTYPE svg PUBLIC "-//W3C//DTD SVG 1.1//EN" "http://www.w3.org/Graphics/SVG/1.1/DTD/svg11.dtd">
<svg width="128.40" height="181.68" viewBox="0.00 0.00 535.00 757.00" xmlns="http://www.w3.org/2000/svg" xmlns:xlink="http://www.w3.org/1999/xlink">
<g stroke-linecap="round" transform="translate(44.00, 155.00)" id="56-가방">
<path d="M27.83,306.32 C27.83,306.32 27.48,305.80 27.48,305.80 C27.48,305.80 25.96,305.95 25.96,305.95 C25.83,305.41 27.81,299.84 29.14,297.78 C30.19,296.22 32.71,294.27 34.56,293.55 C37.26,292.56 44.33,292.65 46.22,293.35 C47.39,293.81 53.83,298.41 54.54,299.19 C55.65,300.45 57.95,305.87 58.50,308.30 C59.56,313.24 58.37,321.94 58.10,322.43 C58.10,322.43 57.89,322.52 57.89,322.52" fill="none" stroke="rgb(0, 113, 48)" stroke-width="3.09" stroke-opacity="1.00" stroke-linejoin="round"/>
<path d="M22.82,308.61 C22.82,308.61 25.11,306.05 25.11,306.05 C23.76,306.01 21.93,306.76 20.38,309.36 C18.95,311.83 15.22,326.46 14.99,332.33 C14.94,334.34 16.44,337.71 18.68,339.30 C22.28,341.82 30.54,345.22 36.62,346.68 C39.52,347.34 45.00,348.55 46.06,348.32 C47.35,347.99 51.53,343.03 52.85,340.51 C53.35,339.55 55.13,333.70 56.03,330.65 C56.59,328.58 56.54,327.30 55.94,325.62 C55.61,324.80 52.37,322.35 48.38,319.67 C42.65,316.45 31.08,309.46 26.57,307.66 C25.87,307.36 24.15,306.57 23.69,306.66 C23.69,306.66 23.34,307.47 23.34,307.47" fill="none" stroke="rgb(0, 113, 48)" stroke-width="3.09" stroke-opacity="1.00" stroke-linejoin="round"/>
</g>
</svg>
