<?xml version="1.0" encoding="UTF-8" standalone="no"?>
<!DOCTYPE svg PUBLIC "-//W3C//DTD SVG 1.1//EN" "http://www.w3.org/Graphics/SVG/1.1/DTD/svg11.dtd">
<svg width="128.40" height="181.68" viewBox="0.00 0.00 535.00 757.00" xmlns="http://www.w3.org/2000/svg" xmlns:xlink="http://www.w3.org/1999/xlink">
<g stroke-linecap="round" transform="translate(44.00, 155.00)" id="57-사람">
<path d="M281.79,186.46 C281.92,186.13 282.01,185.93 282.05,185.85 C282.09,185.78 282.15,185.74 282.22,185.73 C282.28,186.32 282.22,187.35 281.94,190.09 C281.57,194.01 281.74,196.85 282.92,197.88 C284.04,198.78 289.68,199.49 292.58,199.56 C295.70,199.63 303.02,199.42 304.89,199.76 C307.11,200.22 309.04,202.61 309.85,205.56 C310.36,207.50 310.85,210.04 311.11,211.10 C311.32,211.97 311.76,213.06 311.76,213.05 C311.76,213.05 311.64,213.00 311.64,213.00" fill="none" stroke="rgb(255, 165, 0)" stroke-width="4.11" stroke-opacity="1.00" stroke-linejoin="round"/>
<path d="M341.42,172.02 C341.42,171.63 341.43,171.36 341.45,171.22 C341.47,171.07 341.52,170.84 341.61,170.52 C341.61,170.52 342.72,170.20 342.72,170.20 C343.02,171.54 339.05,177.90 337.93,179.45 C336.33,181.64 330.92,187.35 330.68,187.63 C328.78,189.84 327.95,193.37 328.23,196.92 C328.44,199.64 328.79,204.16 328.56,204.53 C328.56,204.53 328.16,203.11 328.16,203.11" fill="none" stroke="rgb(255, 165, 0)" stroke-width="4.11" stroke-opacity="1.00" stroke-linejoin="round"/>
<path d="M282.58,187.39 C282.41,187.35 282.22,187.38 282.02,187.48 C281.46,187.75 280.16,188.59 280.12,188.54 C281.68,186.40 295.12,173.98 296.49,172.66 C302.90,166.48 310.06,157.54 310.92,156.80 C311.61,156.20 313.08,155.53 313.00,155.63 C313.00,155.63 312.74,155.92 312.74,155.92" fill="none" stroke="rgb(255, 165, 0)" stroke-width="4.11" stroke-opacity="1.00" stroke-linejoin="round"/>
<path d="M313.84,159.30 C313.84,159.30 311.57,157.40 311.57,157.40 C312.11,157.59 328.30,166.70 334.06,169.17 C337.47,170.62 340.08,172.08 341.39,172.85 C341.39,172.85 341.44,172.76 341.44,172.76 C341.44,172.76 341.39,172.71 341.39,172.71" fill="none" stroke="rgb(255, 165, 0)" stroke-width="4.11" stroke-opacity="1.00" stroke-linejoin="round"/>
<path d="M283.65,189.72 C282.76,189.90 282.23,190.00 282.06,190.01 C281.82,190.02 281.68,189.93 281.64,189.73 C281.38,188.56 278.17,182.84 277.49,181.20 C276.52,178.78 275.20,173.48 275.01,171.19 C274.84,168.77 275.85,163.86 276.99,160.97 C278.07,158.31 281.10,152.80 282.93,150.06 C285.00,146.99 288.84,142.77 291.36,141.19 C293.74,139.73 299.20,137.69 302.35,136.86 C305.64,136.04 312.05,136.30 312.62,136.62 C312.96,136.86 313.20,137.23 313.25,137.56" fill="none" stroke="rgb(255, 165, 0)" stroke-width="4.11" stroke-opacity="1.00" stroke-linejoin="round"/>
<path d="M313.70,137.55 C313.70,137.55 313.15,135.19 313.15,135.19 C313.72,134.35 325.91,139.09 331.25,141.85 C333.80,143.20 337.52,145.75 339.03,147.21 C340.73,148.88 343.52,153.25 344.37,155.71 C345.77,159.86 346.16,168.11 346.10,169.65 C345.97,169.34 345.89,169.14 345.86,169.04 C345.83,168.95 345.81,168.84 345.80,168.70" fill="none" stroke="rgb(255, 165, 0)" stroke-width="4.11" stroke-opacity="1.00" stroke-linejoin="round"/>
<path d="M290.27,150.87 C290.13,150.32 290.02,149.95 289.95,149.77 C289.89,149.59 289.76,149.35 289.57,149.04 C289.57,149.04 289.27,149.02 289.27,149.02 C288.00,152.11 286.39,165.23 286.59,170.76 C286.71,173.44 287.42,177.54 288.53,178.49 C288.53,178.49 289.08,178.23 289.08,178.23 C289.08,178.23 289.31,177.61 289.31,177.61" fill="none" stroke="rgb(255, 165, 0)" stroke-width="4.11" stroke-opacity="1.00" stroke-linejoin="round"/>
<path d="M305.45,140.20 C305.45,140.20 305.33,139.66 305.33,139.66 C303.21,145.98 300.60,158.33 300.82,162.84 C300.92,164.71 301.61,165.61 301.92,165.77 C301.92,165.77 302.27,165.67 302.27,165.67 C302.27,165.67 302.64,164.77 302.64,164.77" fill="none" stroke="rgb(255, 165, 0)" stroke-width="4.11" stroke-opacity="1.00" stroke-linejoin="round"/>
<path d="M317.19,139.83 C317.19,139.83 316.88,138.98 316.88,138.98 C315.76,139.77 315.13,140.84 314.76,143.00 C312.92,154.35 312.53,155.60 312.25,156.09" fill="none" stroke="rgb(255, 165, 0)" stroke-width="4.11" stroke-opacity="1.00" stroke-linejoin="round"/>
<path d="M328.37,145.89 C328.37,145.89 327.40,145.35 327.40,145.35 C327.18,148.60 327.37,155.75 327.51,157.97 C327.65,160.14 328.17,165.19 328.27,166.15" fill="none" stroke="rgb(255, 165, 0)" stroke-width="4.11" stroke-opacity="1.00" stroke-linejoin="round"/>
<path d="M332.84,149.85 C332.84,149.85 331.86,149.99 331.86,149.99 C330.90,156.35 332.81,162.43 333.31,162.89 C333.31,162.89 337.09,154.45 337.09,154.45 C337.09,154.45 339.07,162.44 339.07,162.44 C339.07,162.44 341.49,162.67 341.49,162.67 C341.49,162.67 343.05,166.89 343.05,166.89" fill="none" stroke="rgb(255, 165, 0)" stroke-width="4.11" stroke-opacity="1.00" stroke-linejoin="round"/>
<path d="M321.15,146.03 C321.15,146.03 321.33,142.93 321.33,142.93 C321.33,142.93 324.00,152.32 324.00,152.32" fill="none" stroke="rgb(255, 165, 0)" stroke-width="4.11" stroke-opacity="1.00" stroke-linejoin="round"/>
<path d="M295.86,180.50 C295.57,180.50 295.28,180.51 295.00,180.51 C294.49,180.51 293.99,180.52 293.49,180.52 C293.86,179.85 298.83,177.54 300.22,177.20 C301.65,176.85 303.17,176.86 303.73,177.09 C303.73,177.09 303.74,177.46 303.74,177.46" fill="none" stroke="rgb(255, 165, 0)" stroke-width="4.11" stroke-opacity="1.00" stroke-linejoin="round"/>
<path d="M322.97,176.96 C322.97,176.96 321.50,175.82 321.50,175.82 C322.15,175.04 326.51,173.44 328.49,173.01 C330.50,172.59 332.77,172.32 333.01,172.43" fill="none" stroke="rgb(255, 165, 0)" stroke-width="4.11" stroke-opacity="1.00" stroke-linejoin="round"/>
<path d="M300.61,185.53 C300.61,185.53 297.22,184.56 297.22,184.56 C297.22,184.56 295.21,189.03 295.21,189.03 C296.97,189.36 300.47,187.23 302.11,184.73 C302.11,184.73 302.06,183.29 302.06,183.29 C302.06,183.29 297.45,185.08 297.45,185.08" fill="none" stroke="rgb(255, 165, 0)" stroke-width="4.11" stroke-opacity="1.00" stroke-linejoin="round"/>
<path d="M325.25,181.34 C325.25,181.34 325.03,179.44 325.03,179.44 C325.03,179.44 323.87,179.38 323.87,179.38 C323.87,179.38 322.41,182.49 322.41,182.49 C322.41,182.49 323.30,183.62 323.30,183.62 C324.47,183.88 326.07,183.79 327.31,183.17 C329.97,181.82 330.70,179.50 330.57,178.95 C330.03,178.08 326.93,177.45 324.07,178.37" fill="none" stroke="rgb(255, 165, 0)" stroke-width="4.11" stroke-opacity="1.00" stroke-linejoin="round"/>
<path d="M308.76,215.30 C308.76,215.30 308.46,215.19 308.46,215.19 C308.44,214.95 308.50,214.75 308.63,214.57 C308.78,214.40 310.35,213.03 310.74,212.66 C308.68,212.56 300.69,217.36 291.86,224.19 C289.42,226.10 285.58,229.14 285.30,229.93 C285.10,230.61 287.74,244.79 288.51,251.77 C289.32,259.26 289.59,269.91 289.64,269.97 C289.64,269.97 290.46,266.69 290.46,266.69" fill="none" stroke="rgb(255, 165, 0)" stroke-width="4.11" stroke-opacity="1.00" stroke-linejoin="round"/>
<path d="M330.47,206.77 C330.47,206.77 326.92,207.20 326.92,207.20 C327.71,207.74 332.57,209.16 337.61,210.42 C342.08,211.56 346.43,213.41 347.53,214.64 C350.09,217.58 353.76,228.16 355.84,236.72 C358.70,249.12 360.53,268.07 360.42,268.97 C360.42,268.97 358.84,268.16 358.84,268.16" fill="none" stroke="rgb(255, 165, 0)" stroke-width="4.11" stroke-opacity="1.00" stroke-linejoin="round"/>
<path d="M348.92,241.62 C348.92,241.62 348.84,241.13 348.84,241.13 C349.97,243.66 352.49,258.75 353.67,263.35 C354.41,266.10 356.49,269.58 357.50,269.78 C358.07,269.86 358.69,269.68 358.93,269.43" fill="none" stroke="rgb(255, 165, 0)" stroke-width="4.11" stroke-opacity="1.00" stroke-linejoin="round"/>
<path d="M349.10,245.95 C349.10,245.95 347.90,246.30 347.90,246.30 C347.90,246.30 348.19,273.51 348.19,273.51 C348.19,273.51 348.35,273.08 348.35,273.08" fill="none" stroke="rgb(255, 165, 0)" stroke-width="4.11" stroke-opacity="1.00" stroke-linejoin="round"/>
<path d="M295.34,272.78 C295.34,272.78 292.42,271.38 292.42,271.38 C294.81,270.80 326.69,269.06 334.18,269.14 C342.71,269.22 348.01,267.67 348.50,267.88 C348.50,267.88 348.52,269.67 348.52,269.67" fill="none" stroke="rgb(255, 165, 0)" stroke-width="4.11" stroke-opacity="1.00" stroke-linejoin="round"/>
<path d="M310.72,274.55 C310.72,274.55 312.48,270.43 312.48,270.43 C310.81,273.64 293.30,311.67 286.79,325.15 C279.81,340.34 276.47,353.17 275.48,357.14 C276.11,357.42 290.40,352.19 298.28,350.55 C305.05,349.25 320.58,346.35 325.53,345.94 C331.61,345.45 342.12,346.24 349.68,346.01 C360.13,345.65 372.22,345.70 375.98,346.67 C376.97,346.94 377.49,347.19 377.72,347.43 C377.72,347.43 376.08,347.92 376.08,347.92" fill="none" stroke="rgb(255, 165, 0)" stroke-width="4.11" stroke-opacity="1.00" stroke-linejoin="round"/>
<path d="M336.01,271.67 C336.01,271.67 334.74,267.30 334.74,267.30 C334.49,267.92 334.38,272.64 335.09,275.58 C336.03,279.42 339.41,285.57 345.58,296.26 C349.25,302.84 355.44,314.88 358.62,322.22 C367.65,343.98 368.96,345.87 369.76,346.98 C369.76,346.98 368.73,348.11 368.73,348.11" fill="none" stroke="rgb(255, 165, 0)" stroke-width="4.11" stroke-opacity="1.00" stroke-linejoin="round"/>
<path d="M304.75,356.36 C304.07,353.91 303.98,353.79 303.63,353.51 C303.46,353.38 303.33,353.20 303.24,352.98 C303.17,352.81 302.72,351.24 302.63,350.97 C301.95,351.89 301.28,358.02 301.24,361.27 C301.25,366.36 301.54,370.76 302.37,372.96 C304.32,373.07 305.48,372.77 306.70,371.68 C309.26,369.36 311.75,366.25 312.09,363.36 C312.40,360.40 312.09,348.90 312.06,347.73 C312.06,347.73 311.97,347.85 311.97,347.85 C311.97,347.85 311.97,348.32 311.97,348.32" fill="none" stroke="rgb(255, 165, 0)" stroke-width="4.11" stroke-opacity="1.00" stroke-linejoin="round"/>
<path d="M349.20,347.69 C349.20,347.69 348.93,345.63 348.93,345.63 C348.93,345.63 349.28,345.73 349.28,345.73 C349.78,347.16 349.19,368.69 349.18,370.84 C349.18,373.96 349.85,378.05 351.16,379.02 C352.93,379.23 355.63,377.58 357.48,375.55 C359.54,373.22 362.04,368.92 362.51,366.17 C362.95,363.32 362.80,356.99 362.36,351.97 C362.00,348.03 360.93,343.81 360.00,342.74 C360.00,342.74 358.33,344.70 358.33,344.70" fill="none" stroke="rgb(255, 165, 0)" stroke-width="4.11" stroke-opacity="1.00" stroke-linejoin="round"/>
<path d="M298.79,373.59 C298.79,373.59 296.69,373.77 296.69,373.77 C296.69,373.77 300.41,388.56 300.41,388.56 C302.24,387.68 303.20,386.90 303.95,385.53 C304.69,384.16 307.47,379.28 308.03,377.73 C307.78,376.91 307.22,376.13 306.31,375.85 C302.62,374.75 294.45,377.46 293.65,377.84 C293.65,377.84 293.88,377.97 293.88,377.97" fill="none" stroke="rgb(255, 165, 0)" stroke-width="4.11" stroke-opacity="1.00" stroke-linejoin="round"/>
<path d="M348.13,379.42 C348.13,379.42 348.43,377.27 348.43,377.27 C350.32,381.13 352.98,384.83 354.60,385.46 C355.37,385.71 356.24,385.69 356.93,385.41 C358.00,384.91 361.12,379.84 361.90,377.57 C362.72,375.14 362.91,373.32 362.56,372.25 C361.40,371.97 354.56,374.43 353.81,374.64 C351.73,375.23 349.76,375.61 349.57,375.50 C349.57,375.50 349.70,375.04 349.70,375.04" fill="none" stroke="rgb(255, 165, 0)" stroke-width="4.11" stroke-opacity="1.00" stroke-linejoin="round"/>
</g>
</svg>
