<?xml version="1.0" encoding="UTF-8" standalone="no"?>
<!DOCTYPE svg PUBLIC "-//W3C//DTD SVG 1.1//EN" "http://www.w3.org/Graphics/SVG/1.1/DTD/svg11.dtd">
<svg width="128.40" height="181.68" viewBox="0.00 0.00 535.00 757.00" xmlns="http://www.w3.org/2000/svg" xmlns:xlink="http://www.w3.org/1999/xlink">
<g stroke-linecap="round" transform="translate(44.00, 155.00)" id="58-사람-1">
<path d="M206.07,217.25 C206.07,217.25 206.84,215.15 206.84,215.15 C206.94,215.28 204.62,228.39 206.08,239.83 C206.61,243.71 208.69,249.31 210.41,250.79 C211.46,251.67 216.96,254.77 217.88,255.11 C219.50,255.68 225.35,255.51 228.21,255.23 C231.04,254.93 235.39,252.56 237.60,249.87 C239.37,247.64 241.17,243.92 242.18,240.16 C243.73,234.22 245.29,223.77 245.77,220.35 C245.77,220.35 245.18,221.25 245.18,221.25" fill="none" stroke="rgb(255, 165, 0)" stroke-width="3.54" stroke-opacity="1.00" stroke-linejoin="round"/>
<path d="M207.71,219.05 C207.71,219.05 206.76,218.47 206.76,218.47 C212.91,220.55 221.75,222.52 224.99,221.94 C227.34,221.46 227.76,220.15 227.98,218.48 C227.98,218.48 227.49,219.67 227.49,219.67 C227.49,219.67 228.72,219.57 228.72,219.57" fill="none" stroke="rgb(255, 165, 0)" stroke-width="3.54" stroke-opacity="1.00" stroke-linejoin="round"/>
<path d="M225.91,222.25 C225.91,222.25 225.77,221.49 225.77,221.49 C226.00,221.19 226.06,221.14 226.63,221.18 C228.66,221.32 230.37,221.27 231.30,220.97 C232.17,220.67 234.01,216.77 234.64,215.48 C234.64,215.48 234.35,215.77 234.35,215.77" fill="none" stroke="rgb(255, 165, 0)" stroke-width="3.54" stroke-opacity="1.00" stroke-linejoin="round"/>
<path d="M234.37,220.69 C234.37,220.69 233.43,220.62 233.43,220.62 C234.89,221.29 243.68,221.62 245.40,221.09 C245.57,221.04 245.82,220.95 246.14,220.82" fill="none" stroke="rgb(255, 165, 0)" stroke-width="3.54" stroke-opacity="1.00" stroke-linejoin="round"/>
<path d="M208.34,231.41 C208.34,231.41 207.68,231.69 207.68,231.69 C207.66,231.61 207.73,231.26 207.91,230.79 C208.60,229.04 212.07,224.42 213.80,224.18 C215.51,224.01 218.08,227.50 219.13,229.11 C219.13,229.11 219.14,228.87 219.14,228.87" fill="none" stroke="rgb(255, 165, 0)" stroke-width="3.54" stroke-opacity="1.00" stroke-linejoin="round"/>
<path d="M229.36,232.84 C229.36,232.84 228.23,232.87 228.23,232.87 C232.40,228.92 235.07,226.83 236.33,226.68 C237.75,226.63 239.49,228.54 241.15,231.46 C241.28,231.66 241.46,231.86 241.70,232.05 C241.70,232.05 241.89,231.74 241.89,231.74" fill="none" stroke="rgb(255, 165, 0)" stroke-width="3.54" stroke-opacity="1.00" stroke-linejoin="round"/>
<path d="M223.98,236.21 C223.98,236.21 223.98,234.56 223.98,234.56 C223.98,234.56 224.44,237.89 224.44,237.89 C224.44,237.89 223.42,236.74 223.42,236.74" fill="none" stroke="rgb(255, 165, 0)" stroke-width="3.54" stroke-opacity="1.00" stroke-linejoin="round"/>
<path d="M214.27,241.59 C214.27,241.59 214.06,240.67 214.06,240.67 C214.06,240.67 214.04,240.79 214.04,240.79 C214.51,240.77 216.01,245.36 216.67,246.50 C217.26,247.48 219.35,249.28 220.81,250.10 C222.20,250.84 224.51,251.28 225.87,251.04 C227.42,250.72 229.69,249.37 230.46,248.27 C231.40,246.83 232.62,242.64 232.59,241.29 C232.59,241.29 231.64,240.72 231.64,240.72" fill="none" stroke="rgb(255, 165, 0)" stroke-width="3.54" stroke-opacity="1.00" stroke-linejoin="round"/>
<path d="M224.36,190.55 C224.43,190.30 224.48,190.14 224.53,190.06 C224.58,189.98 224.67,189.87 224.82,189.73 C224.82,189.73 225.28,189.84 225.28,189.84 C225.40,189.99 225.22,191.73 219.91,193.04 C217.33,193.67 213.48,195.98 211.54,198.09 C210.83,198.87 205.01,206.19 204.59,206.70 C203.10,208.57 201.65,212.99 201.19,216.50 C199.76,227.05 197.24,240.19 197.13,240.48 C196.64,241.71 195.23,244.69 195.31,244.98 C195.38,245.23 195.45,245.49 195.52,245.76 C195.52,245.76 208.13,246.82 208.13,246.82 C208.13,246.82 208.30,246.03 208.30,246.03" fill="none" stroke="rgb(255, 165, 0)" stroke-width="3.54" stroke-opacity="1.00" stroke-linejoin="round"/>
<path d="M226.88,192.06 C226.82,191.80 226.77,191.63 226.73,191.53 C226.62,191.30 226.49,191.13 226.33,191.00 C226.25,190.94 226.09,190.87 225.86,190.79 C226.50,190.83 234.77,190.36 236.62,190.84 C238.16,191.28 249.07,198.87 251.06,201.36 C252.21,202.84 255.57,208.90 256.07,209.86 C257.57,212.79 258.41,219.84 260.59,231.91 C261.49,236.95 261.89,243.16 261.92,243.45 C262.05,244.37 262.64,245.83 263.22,246.16 C264.38,246.71 265.95,247.48 266.14,247.82 C266.14,247.82 266.11,248.87 266.11,248.87" fill="none" stroke="rgb(255, 165, 0)" stroke-width="3.54" stroke-opacity="1.00" stroke-linejoin="round"/>
<path d="M238.23,252.90 C238.23,252.90 238.25,251.87 238.25,251.87 C238.25,251.87 237.93,252.33 237.93,252.33 C246.29,254.28 265.70,250.78 265.96,250.82 C265.96,250.82 265.82,251.30 265.82,251.30" fill="none" stroke="rgb(255, 165, 0)" stroke-width="3.54" stroke-opacity="1.00" stroke-linejoin="round"/>
<path d="M217.88,258.49 C217.88,258.16 217.89,257.93 217.89,257.80 C217.90,257.61 217.92,257.35 217.96,257.02 C217.99,256.78 218.02,256.55 218.05,256.31 C218.05,256.30 218.05,256.32 218.05,256.33 C218.14,258.13 218.37,263.10 218.44,263.89 C218.56,265.35 218.84,266.43 219.03,266.62 C219.03,266.62 219.15,266.02 219.15,266.02" fill="none" stroke="rgb(255, 165, 0)" stroke-width="3.54" stroke-opacity="1.00" stroke-linejoin="round"/>
<path d="M228.40,257.61 C228.40,257.61 228.12,257.09 228.12,257.09 C228.44,257.15 228.36,263.64 228.32,265.85 C228.32,266.38 228.31,266.90 228.31,267.43 C228.31,267.43 228.36,267.18 228.36,267.18" fill="none" stroke="rgb(255, 165, 0)" stroke-width="3.54" stroke-opacity="1.00" stroke-linejoin="round"/>
<path d="M216.13,264.63 C216.13,264.63 216.33,264.13 216.33,264.13 C215.45,264.08 209.94,264.78 207.21,265.10 C204.39,265.55 200.61,267.99 196.26,271.29 C195.02,272.25 194.11,273.27 192.94,274.87 C192.94,274.87 192.91,274.72 192.91,274.72" fill="none" stroke="rgb(255, 165, 0)" stroke-width="3.54" stroke-opacity="1.00" stroke-linejoin="round"/>
<path d="M190.51,265.68 C190.51,265.68 190.37,264.66 190.37,264.66 C190.80,264.90 193.15,274.32 193.30,274.84 C193.64,275.99 194.05,276.80 194.37,277.12 C194.37,277.12 194.63,276.42 194.63,276.42" fill="none" stroke="rgb(255, 165, 0)" stroke-width="3.54" stroke-opacity="1.00" stroke-linejoin="round"/>
<path d="M186.94,257.99 C187.06,257.60 187.33,256.97 187.44,256.74 C187.49,256.63 187.56,256.45 187.65,256.21 C187.65,256.21 187.45,255.62 187.45,255.62 C186.87,255.24 185.95,254.91 185.32,255.12 C184.35,255.46 182.40,257.52 181.75,258.85 C181.13,260.21 182.60,263.06 184.50,263.80 C186.35,264.47 189.78,263.93 190.60,262.75 C191.39,261.52 191.04,258.22 190.09,257.47 C187.71,255.69 184.13,255.90 183.57,256.16 C183.57,256.16 183.55,256.39 183.55,256.39" fill="none" stroke="rgb(255, 165, 0)" stroke-width="3.54" stroke-opacity="1.00" stroke-linejoin="round"/>
<path d="M180.42,267.78 C180.42,267.78 180.15,267.84 180.15,267.84 C180.10,267.29 180.13,267.12 180.37,266.64 C180.41,266.56 180.46,266.42 180.52,266.22 C180.52,266.22 180.41,266.04 180.41,266.04 C179.75,266.33 179.01,270.09 179.15,273.80 C179.24,275.84 180.07,281.44 180.73,283.51 C181.72,286.45 183.85,289.43 186.06,290.50 C188.07,291.40 192.40,291.49 194.41,290.75 C195.91,290.18 201.74,287.33 202.08,287.56 C202.08,287.56 201.91,288.04 201.91,288.04" fill="none" stroke="rgb(255, 165, 0)" stroke-width="3.54" stroke-opacity="1.00" stroke-linejoin="round"/>
<path d="M199.81,281.78 C199.81,281.78 199.82,280.22 199.82,280.22 C199.25,282.49 199.25,287.73 199.44,290.55 C200.05,298.49 202.16,310.86 202.92,311.46 C202.92,311.46 203.46,309.86 203.46,309.86" fill="none" stroke="rgb(255, 165, 0)" stroke-width="3.54" stroke-opacity="1.00" stroke-linejoin="round"/>
<path d="M237.44,291.20 C237.44,291.20 236.92,290.14 236.92,290.14 C236.92,290.14 238.29,301.70 238.29,301.70 C238.29,301.70 238.36,300.26 238.36,300.26" fill="none" stroke="rgb(255, 165, 0)" stroke-width="3.54" stroke-opacity="1.00" stroke-linejoin="round"/>
<path d="M241.51,270.77 C241.54,270.61 241.56,270.44 241.58,270.28 C241.61,270.11 241.64,269.93 241.67,269.76 C241.67,269.76 241.74,269.71 241.74,269.71 C243.15,270.18 245.72,274.05 246.73,277.22 C251.39,293.17 250.36,304.43 250.26,304.44 C250.26,304.44 249.52,302.84 249.52,302.84" fill="none" stroke="rgb(255, 165, 0)" stroke-width="3.54" stroke-opacity="1.00" stroke-linejoin="round"/>
<path d="M229.15,267.28 C229.15,267.28 227.79,267.28 227.79,267.28 C227.79,267.28 242.81,270.82 242.81,270.82 C242.83,271.01 242.82,271.14 242.79,271.21 C242.75,271.28 242.63,271.38 242.43,271.52" fill="none" stroke="rgb(255, 165, 0)" stroke-width="3.54" stroke-opacity="1.00" stroke-linejoin="round"/>
<path d="M244.54,307.09 C243.96,305.16 242.05,303.73 241.00,303.57 C240.40,303.51 239.18,304.01 238.62,304.66 C237.93,305.50 237.08,308.42 237.01,310.10 C236.97,311.83 239.46,315.94 241.71,316.74 C243.97,317.49 248.83,316.56 250.30,315.56 C251.41,314.75 252.19,311.89 251.81,310.02 C251.41,308.23 248.38,303.57 246.49,302.88 C245.95,302.69 244.74,302.47 242.88,302.24 C242.88,302.24 242.95,302.14 242.95,302.14" fill="none" stroke="rgb(255, 165, 0)" stroke-width="3.54" stroke-opacity="1.00" stroke-linejoin="round"/>
<path d="M203.17,311.46 C203.17,311.46 199.83,312.07 199.83,312.07 C201.87,313.91 215.72,314.40 222.09,314.08 C226.03,313.86 230.68,313.49 232.90,313.16 C234.21,312.97 239.19,312.30 240.16,313.19 C240.28,313.31 240.44,313.54 240.62,313.88 C240.62,313.88 240.51,314.22 240.51,314.22" fill="none" stroke="rgb(255, 165, 0)" stroke-width="3.54" stroke-opacity="1.00" stroke-linejoin="round"/>
<path d="M198.71,310.58 C198.71,310.58 198.25,310.58 198.25,310.58 C198.25,310.58 198.85,310.71 198.85,310.71 C198.85,310.71 188.51,354.07 188.51,354.07 C188.51,354.07 189.23,353.58 189.23,353.58" fill="none" stroke="rgb(255, 165, 0)" stroke-width="3.54" stroke-opacity="1.00" stroke-linejoin="round"/>
<path d="M194.26,352.54 C194.26,352.54 191.32,351.62 191.32,351.62 C200.78,351.91 230.95,349.54 243.47,348.80 C247.99,348.42 248.61,348.73 248.83,348.94 C248.83,348.94 247.88,349.57 247.88,349.57" fill="none" stroke="rgb(255, 165, 0)" stroke-width="3.54" stroke-opacity="1.00" stroke-linejoin="round"/>
<path d="M243.96,323.90 C243.96,323.90 244.89,320.92 244.89,320.92 C246.16,321.65 250.76,352.92 250.42,353.25 C250.42,353.25 249.91,353.30 249.91,353.30" fill="none" stroke="rgb(255, 165, 0)" stroke-width="3.54" stroke-opacity="1.00" stroke-linejoin="round"/>
<path d="M205.23,356.95 C205.23,356.95 204.70,357.17 204.70,357.17 C204.59,356.71 204.60,356.07 204.79,355.01 C205.10,353.21 205.15,352.74 205.08,352.31 C205.08,352.31 203.19,375.86 203.19,375.86 C203.19,375.86 202.22,373.99 202.22,373.99" fill="none" stroke="rgb(255, 165, 0)" stroke-width="3.54" stroke-opacity="1.00" stroke-linejoin="round"/>
<path d="M220.16,354.80 C220.16,354.80 220.69,352.69 220.69,352.69 C220.69,352.69 217.91,375.34 217.91,375.34 C217.91,375.34 217.96,373.24 217.96,373.24" fill="none" stroke="rgb(255, 165, 0)" stroke-width="3.54" stroke-opacity="1.00" stroke-linejoin="round"/>
<path d="M231.01,354.63 C231.01,354.63 230.69,353.67 230.69,353.67 C230.69,353.67 229.10,375.95 229.10,375.95 C229.10,375.95 229.69,374.19 229.69,374.19" fill="none" stroke="rgb(255, 165, 0)" stroke-width="3.54" stroke-opacity="1.00" stroke-linejoin="round"/>
<path d="M216.38,376.45 C216.38,376.45 217.41,374.29 217.41,374.29 C216.46,378.23 215.64,383.00 216.13,385.78 C216.39,387.09 218.52,388.80 220.17,388.83 C221.79,388.85 231.10,387.66 233.69,388.05 C237.36,388.74 241.07,388.45 243.42,387.00 C244.41,386.34 245.19,385.16 245.25,384.21 C245.26,383.23 244.58,381.30 243.86,380.76 C242.14,379.54 231.19,378.21 230.18,378.88 C230.18,378.88 230.12,379.24 230.12,379.24" fill="none" stroke="rgb(255, 165, 0)" stroke-width="3.54" stroke-opacity="1.00" stroke-linejoin="round"/>
<path d="M212.59,376.87 C212.59,376.87 212.51,376.63 212.51,376.63 C212.29,376.57 207.23,377.08 204.68,377.66 C200.51,378.60 197.25,378.84 192.82,378.31 C190.09,377.98 187.37,378.83 186.83,379.80 C186.17,381.10 186.82,384.38 187.94,385.53 C189.24,386.79 192.88,387.51 194.95,387.41 C198.07,387.25 214.44,385.83 214.72,385.51 C214.72,385.51 215.46,375.93 215.46,375.93 C215.46,375.93 215.45,376.40 215.45,376.40" fill="none" stroke="rgb(255, 165, 0)" stroke-width="3.54" stroke-opacity="1.00" stroke-linejoin="round"/>
<path d="M203.55,391.42 C203.55,391.42 203.14,390.57 203.14,390.57 C203.22,391.71 203.56,394.36 203.86,395.07 C204.12,395.67 205.26,396.18 205.85,396.11 C207.39,395.84 209.81,395.20 210.72,394.74 C211.61,394.26 212.40,393.17 212.60,391.97 C212.88,390.15 213.06,388.88 213.12,388.15 C213.16,387.72 213.13,387.40 213.05,387.22 C213.05,387.22 212.81,387.49 212.81,387.49" fill="none" stroke="rgb(255, 165, 0)" stroke-width="3.54" stroke-opacity="1.00" stroke-linejoin="round"/>
<path d="M212.59,395.54 C212.59,395.54 212.55,395.38 212.55,395.38 C214.45,394.87 220.35,395.74 221.04,395.83 C222.24,395.98 223.54,395.69 224.23,395.16 C224.70,394.76 225.39,392.43 225.62,391.64 C225.82,390.95 225.75,390.73 225.29,389.80 C225.22,389.68 225.17,389.58 225.15,389.52 C225.10,389.58 225.07,389.63 225.04,389.65 C225.01,389.67 224.95,389.70 224.86,389.74" fill="none" stroke="rgb(255, 165, 0)" stroke-width="3.54" stroke-opacity="1.00" stroke-linejoin="round"/>
<path d="M213.98,389.78 C213.98,389.78 214.67,387.30 214.67,387.30 C214.67,387.30 215.62,393.82 215.62,393.82 C215.62,393.82 216.09,393.82 216.09,393.82 C216.09,393.82 216.19,393.67 216.19,393.67" fill="none" stroke="rgb(255, 165, 0)" stroke-width="3.54" stroke-opacity="1.00" stroke-linejoin="round"/>
</g>
</svg>
