<?xml version="1.0" encoding="UTF-8" standalone="no"?>
<!DOCTYPE svg PUBLIC "-//W3C//DTD SVG 1.1//EN" "http://www.w3.org/Graphics/SVG/1.1/DTD/svg11.dtd">
<svg width="128.40" height="181.68" viewBox="0.00 0.00 535.00 757.00" xmlns="http://www.w3.org/2000/svg" xmlns:xlink="http://www.w3.org/1999/xlink">
<g stroke-linecap="round" transform="translate(44.00, 155.00)" id="58-비">
<path d="M26.74,139.65 C26.88,138.99 27.27,138.04 27.34,137.69 C27.38,137.51 27.40,137.18 27.41,136.70 C27.41,136.70 26.69,136.56 26.69,136.56 C26.30,139.90 25.25,149.57 25.22,150.68 C25.18,153.80 26.60,157.01 27.56,157.17 C28.81,156.77 28.68,150.54 27.46,146.55 C26.70,144.14 24.66,140.64 23.96,140.48 C23.89,140.47 23.84,140.46 23.80,140.45" fill="none" stroke="rgb(0, 0, 255)" stroke-width="3.54" stroke-opacity="1.00" stroke-linejoin="round"/>
<path d="M69.37,48.89 C69.45,47.92 69.56,47.00 69.66,46.77 C69.70,46.69 69.79,46.59 69.93,46.50 C70.23,47.25 66.70,53.01 66.28,54.02 C65.55,55.78 64.33,62.18 65.09,64.20 C66.94,62.65 67.98,61.13 67.75,59.75 C67.69,59.38 65.34,53.70 64.80,51.62 C64.52,50.55 63.66,45.83 63.11,45.78 C63.11,45.78 62.45,46.55 62.45,46.55" fill="none" stroke="rgb(0, 0, 255)" stroke-width="3.54" stroke-opacity="1.00" stroke-linejoin="round"/>
<path d="M130.19,-8.66 C130.22,-9.11 130.39,-10.22 130.43,-10.65 C130.45,-10.87 130.45,-11.26 130.45,-11.81 C130.32,-11.69 130.22,-11.20 130.07,-9.81 C129.03,-0.32 127.87,4.79 125.38,10.63 C127.03,10.41 129.69,9.64 130.77,8.80 C132.06,7.77 132.32,5.36 131.55,3.45 C131.14,2.53 129.93,0.18 129.57,-0.73 C129.57,-0.73 130.42,-1.26 130.42,-1.26" fill="none" stroke="rgb(0, 0, 255)" stroke-width="3.54" stroke-opacity="1.00" stroke-linejoin="round"/>
<path d="M258.83,-31.60 C258.83,-31.60 257.99,-33.53 257.99,-33.53 C256.93,-28.42 256.36,-25.46 255.42,-22.70 C255.04,-21.59 251.02,-11.14 250.94,-10.63 C250.86,-10.13 250.81,-8.99 250.78,-7.23 C252.02,-6.47 253.76,-6.48 255.83,-7.46 C257.45,-8.27 258.57,-10.30 258.80,-12.55 C259.26,-18.38 257.61,-25.14 257.02,-26.72 C256.95,-26.91 256.89,-26.99 256.85,-26.95 C256.84,-26.92 256.80,-26.93 256.76,-26.98" fill="none" stroke="rgb(0, 0, 255)" stroke-width="3.54" stroke-opacity="1.00" stroke-linejoin="round"/>
<path d="M362.02,23.20 C362.45,20.27 361.84,19.73 361.22,19.34 C358.18,30.09 356.46,33.86 354.19,37.24 C356.14,38.55 358.33,38.91 360.75,38.16 C361.71,37.85 362.83,36.55 363.02,35.77 C363.26,34.58 361.96,25.91 361.40,25.18 C361.12,24.80 360.42,24.52 359.33,24.31" fill="none" stroke="rgb(0, 0, 255)" stroke-width="3.54" stroke-opacity="1.00" stroke-linejoin="round"/>
<path d="M403.74,143.33 C403.77,142.93 403.77,142.65 403.74,142.48 C403.66,142.03 403.33,141.38 403.22,141.31 C402.07,143.65 400.19,147.96 398.97,151.69 C397.73,155.55 398.13,157.04 398.68,157.52 C399.19,157.58 400.67,156.93 403.12,155.48 C405.07,154.28 406.73,152.42 406.72,151.17 C406.68,150.18 405.40,147.65 404.08,145.42 C404.08,145.42 404.25,145.75 404.25,145.75" fill="none" stroke="rgb(0, 0, 255)" stroke-width="3.54" stroke-opacity="1.00" stroke-linejoin="round"/>
<path d="M375.49,262.73 C375.49,262.73 375.36,262.53 375.36,262.53 C375.36,262.53 376.80,259.89 376.80,259.89 C376.80,259.89 378.15,260.24 378.15,260.24 C378.85,261.82 379.00,263.14 378.43,264.58 C377.58,266.69 373.11,274.42 372.78,275.37 C373.84,276.54 374.79,277.04 376.11,276.91 C377.43,276.75 379.50,275.92 380.43,275.12 C381.34,274.28 382.30,272.36 382.43,271.20 C382.50,270.13 381.50,267.36 380.53,266.25 C379.94,265.60 377.71,264.00 377.76,264.05 C377.77,264.06 377.73,264.05 377.72,264.04 C377.70,264.01 377.70,263.93 377.72,263.79 C377.73,263.67 377.78,263.34 377.86,262.80" fill="none" stroke="rgb(0, 0, 255)" stroke-width="3.54" stroke-opacity="1.00" stroke-linejoin="round"/>
</g>
</svg>
