<?xml version="1.0" encoding="UTF-8" standalone="no"?>
<!DOCTYPE svg PUBLIC "-//W3C//DTD SVG 1.1//EN" "http://www.w3.org/Graphics/SVG/1.1/DTD/svg11.dtd">
<svg width="128.40" height="181.68" viewBox="0.00 0.00 535.00 757.00" xmlns="http://www.w3.org/2000/svg" xmlns:xlink="http://www.w3.org/1999/xlink">
<g stroke-linecap="round" transform="translate(44.00, 155.00)" id="59-사람">
<path d="M78.39,139.30 C78.18,137.34 78.02,136.06 77.93,135.46 C77.73,134.26 77.23,132.66 77.10,132.40 C78.87,137.28 85.25,150.03 88.74,154.75 C90.86,157.53 93.99,159.85 95.41,159.35 C95.41,159.35 96.45,158.08 96.45,158.08" fill="none" stroke="rgb(255, 165, 0)" stroke-width="4.04" stroke-opacity="1.00" stroke-linejoin="round"/>
<path d="M93.46,158.98 C93.46,158.98 92.52,158.69 92.52,158.69 C93.41,159.08 97.11,157.84 100.60,155.62 C102.47,154.42 107.36,150.55 109.49,148.49 C113.92,144.13 120.26,133.02 122.67,126.53 C124.99,120.26 129.39,102.34 129.56,100.45 C129.58,100.18 129.61,99.57 129.64,98.63" fill="none" stroke="rgb(255, 165, 0)" stroke-width="4.04" stroke-opacity="1.00" stroke-linejoin="round"/>
<path d="M94.34,74.81 C94.39,74.52 94.62,74.01 94.86,73.69 C94.92,73.62 94.99,73.56 95.08,73.51 C94.52,74.54 94.00,75.20 92.73,76.37 C86.60,82.05 84.38,86.10 83.91,87.09 C83.91,87.09 84.05,87.51 84.05,87.51 C84.37,87.22 84.58,86.90 84.70,86.54 C85.05,85.49 86.90,78.36 87.77,76.07" fill="none" stroke="rgb(255, 165, 0)" stroke-width="4.04" stroke-opacity="1.00" stroke-linejoin="round"/>
<path d="M100.53,52.33 C100.53,52.33 99.61,51.97 99.61,51.97 C98.36,52.16 97.31,52.83 95.90,54.50 C91.90,59.28 81.05,71.74 78.99,74.96 C77.86,76.74 75.67,81.41 75.63,81.92" fill="none" stroke="rgb(255, 165, 0)" stroke-width="4.04" stroke-opacity="1.00" stroke-linejoin="round"/>
<path d="M112.33,78.55 C112.33,78.55 111.90,78.64 111.90,78.64 C113.57,78.10 116.50,77.27 117.73,77.06 C119.52,76.77 124.44,77.52 126.69,78.62 C129.47,80.04 133.58,83.96 135.40,87.00 C136.91,89.59 138.87,95.57 139.70,99.53 C140.27,102.36 140.62,107.57 140.79,113.11 C140.90,117.03 140.45,119.96 140.23,120.42 C140.10,120.12 140.03,119.90 140.00,119.77 C139.98,119.64 139.97,119.41 139.97,119.07" fill="none" stroke="rgb(255, 165, 0)" stroke-width="4.04" stroke-opacity="1.00" stroke-linejoin="round"/>
<path d="M112.10,54.43 C112.10,54.43 108.08,53.82 108.08,53.82 C111.83,52.51 116.70,51.52 119.81,51.52 C122.25,51.54 128.73,52.65 130.87,53.55 C133.48,54.66 138.77,58.76 139.58,59.56 C140.95,60.96 145.16,67.50 146.28,70.11 C147.53,73.05 149.38,80.47 149.83,82.87 C150.67,87.53 151.02,101.78 150.80,105.25 C150.80,105.25 150.60,104.72 150.60,104.72" fill="none" stroke="rgb(255, 165, 0)" stroke-width="4.04" stroke-opacity="1.00" stroke-linejoin="round"/>
<path d="M120.97,139.06 C120.97,139.06 120.92,137.61 120.92,137.61 C121.06,139.04 121.09,140.82 120.97,143.32 C120.76,147.79 120.08,152.43 119.76,154.36" fill="none" stroke="rgb(255, 165, 0)" stroke-width="4.04" stroke-opacity="1.00" stroke-linejoin="round"/>
<path d="M117.00,154.31 C117.01,153.72 117.69,152.77 118.68,152.19 C119.38,151.82 121.31,151.93 122.08,152.58 C123.79,154.08 127.21,160.93 127.89,162.88 C129.93,168.75 132.53,185.14 132.56,192.90 C132.56,196.02 132.27,205.37 132.11,209.51 C131.97,213.22 131.69,219.54 132.11,221.51 C132.11,221.51 132.46,221.56 132.46,221.56" fill="none" stroke="rgb(255, 165, 0)" stroke-width="4.04" stroke-opacity="1.00" stroke-linejoin="round"/>
<path d="M75.06,163.36 C75.06,163.36 75.43,159.52 75.43,159.52 C73.24,163.05 71.67,165.80 70.29,169.38 C66.88,178.61 64.36,186.41 61.92,195.62 C59.54,205.64 57.47,216.39 56.73,222.27 C55.94,228.69 55.95,235.20 56.41,237.05 C56.41,237.05 56.66,237.09 56.66,237.09" fill="none" stroke="rgb(255, 165, 0)" stroke-width="4.04" stroke-opacity="1.00" stroke-linejoin="round"/>
<path d="M96.09,96.66 C95.99,96.57 95.92,96.45 95.87,96.29 C95.58,95.44 95.58,94.58 95.83,94.18 C95.83,94.18 95.94,123.44 95.94,123.44 C95.94,123.44 95.80,123.34 95.80,123.34 C95.80,123.34 95.75,123.12 95.75,123.12" fill="none" stroke="rgb(255, 165, 0)" stroke-width="4.04" stroke-opacity="1.00" stroke-linejoin="round"/>
<path d="M78.28,101.86 C78.16,101.80 78.03,101.71 77.86,101.59 C76.64,100.70 76.24,100.48 75.88,100.48 C77.55,100.64 85.63,99.79 87.93,98.61 C89.03,98.04 89.71,97.29 90.04,96.58" fill="none" stroke="rgb(255, 165, 0)" stroke-width="4.04" stroke-opacity="1.00" stroke-linejoin="round"/>
<path d="M84.99,109.51 C84.99,109.51 82.99,109.08 82.99,109.08 C82.18,111.07 82.29,114.18 83.66,115.60 C84.80,115.75 85.96,115.35 86.89,114.22 C88.84,111.80 88.23,109.47 87.44,108.42 C85.81,107.48 83.03,108.79 83.01,109.10 C83.01,109.10 83.21,109.39 83.21,109.39" fill="none" stroke="rgb(255, 165, 0)" stroke-width="4.04" stroke-opacity="1.00" stroke-linejoin="round"/>
<path d="M108.88,99.99 C108.88,99.99 109.33,98.16 109.33,98.16 C109.60,97.98 111.51,97.56 112.89,97.47 C114.89,97.36 118.09,99.06 119.24,100.72 C119.24,100.72 118.57,99.79 118.57,99.79" fill="none" stroke="rgb(255, 165, 0)" stroke-width="4.04" stroke-opacity="1.00" stroke-linejoin="round"/>
<path d="M110.46,108.63 C110.46,108.63 109.12,107.50 109.12,107.50 C109.18,108.75 110.61,111.33 112.09,111.89 C113.18,112.27 114.98,111.94 115.88,111.18 C116.66,110.47 117.31,108.67 117.03,107.89 C116.69,107.08 114.97,105.91 113.93,105.94 C111.05,106.06 108.60,107.80 108.25,108.30" fill="none" stroke="rgb(255, 165, 0)" stroke-width="4.04" stroke-opacity="1.00" stroke-linejoin="round"/>
<path d="M88.85,130.48 C88.65,130.50 88.49,130.45 88.37,130.35 C88.13,130.14 87.48,129.21 87.49,129.19 C87.64,130.62 87.86,131.43 88.40,131.98 C89.90,133.44 93.27,134.35 96.43,134.44 C98.09,134.44 100.18,133.76 101.48,132.69 C102.00,132.24 104.51,128.66 104.62,128.45 C104.62,128.45 104.58,128.18 104.58,128.18 C104.58,128.18 104.27,128.01 104.27,128.01" fill="none" stroke="rgb(255, 165, 0)" stroke-width="4.04" stroke-opacity="1.00" stroke-linejoin="round"/>
<path d="M68.41,86.67 C68.41,86.67 67.91,90.23 67.91,90.23" fill="none" stroke="rgb(255, 165, 0)" stroke-width="4.04" stroke-opacity="1.00" stroke-linejoin="round"/>
<path d="M72.14,114.24 C72.14,114.24 71.10,111.90 71.10,111.90 C69.88,112.48 68.71,116.41 68.16,119.16 C67.35,123.34 66.40,140.45 66.76,147.93 C67.16,155.91 68.78,167.48 70.34,173.02 C71.61,177.41 73.49,179.54 73.80,179.45 C73.80,179.45 73.78,178.49 73.78,178.49" fill="none" stroke="rgb(255, 165, 0)" stroke-width="4.04" stroke-opacity="1.00" stroke-linejoin="round"/>
<path d="M67.47,77.03 C67.47,77.03 65.25,80.37 65.25,80.37" fill="none" stroke="rgb(255, 165, 0)" stroke-width="4.04" stroke-opacity="1.00" stroke-linejoin="round"/>
<path d="M71.15,61.32 C71.15,61.32 71.67,57.47 71.67,57.47 C71.67,57.47 71.18,56.79 71.18,56.79 C70.07,57.03 65.85,62.19 64.54,64.68 C62.10,69.37 57.67,82.20 56.05,89.37 C54.60,95.81 52.60,109.63 52.25,114.35 C51.69,122.12 52.43,124.31 52.89,125.03 C52.89,125.03 53.50,123.72 53.50,123.72" fill="none" stroke="rgb(255, 165, 0)" stroke-width="4.04" stroke-opacity="1.00" stroke-linejoin="round"/>
<path d="M72.55,84.86 C72.55,84.86 73.81,79.20 73.81,79.20 C73.81,79.20 73.64,79.07 73.64,79.07 C72.88,79.95 69.58,84.81 68.81,86.33 C66.72,90.55 63.88,103.58 63.53,109.27 C63.09,116.84 64.22,127.12 65.30,129.46 C65.30,129.46 67.11,127.40 67.11,127.40" fill="none" stroke="rgb(255, 165, 0)" stroke-width="4.04" stroke-opacity="1.00" stroke-linejoin="round"/>
<path d="M132.71,126.97 C132.71,126.97 131.76,126.12 131.76,126.12 C131.40,129.52 131.42,147.33 131.88,153.91 C132.83,165.33 133.15,167.60 133.57,169.99 C133.57,169.99 133.38,168.40 133.38,168.40" fill="none" stroke="rgb(255, 165, 0)" stroke-width="4.04" stroke-opacity="1.00" stroke-linejoin="round"/>
<path d="M51.47,149.93 C51.04,148.25 50.83,146.85 50.70,146.41 C50.64,146.19 50.46,145.73 50.17,145.02 C48.92,145.28 50.93,157.53 52.91,163.41 C54.96,169.44 61.25,181.81 65.35,187.09 C66.63,188.72 69.94,192.32 70.07,192.57" fill="none" stroke="rgb(255, 165, 0)" stroke-width="4.04" stroke-opacity="1.00" stroke-linejoin="round"/>
<path d="M53.22,142.80 C53.22,142.80 52.87,141.68 52.87,141.68 C52.67,141.47 54.15,140.23 55.91,139.26 C56.96,138.71 58.76,138.73 59.54,139.22 C60.81,140.11 63.85,147.34 65.57,149.81 C65.80,150.13 65.99,150.29 66.16,150.27 C66.16,150.27 66.49,150.12 66.49,150.12" fill="none" stroke="rgb(255, 165, 0)" stroke-width="4.04" stroke-opacity="1.00" stroke-linejoin="round"/>
<path d="M70.33,76.22 C69.96,75.85 69.31,75.29 68.99,75.16 C68.84,75.09 68.56,75.03 68.14,74.96 C65.78,77.18 60.84,90.59 59.09,97.51 C56.55,107.66 55.42,114.82 55.58,119.48 C55.58,119.48 56.35,119.93 56.35,119.93 C56.35,119.93 57.20,118.79 57.20,118.79" fill="none" stroke="rgb(255, 165, 0)" stroke-width="4.04" stroke-opacity="1.00" stroke-linejoin="round"/>
</g>
</svg>
