<?xml version="1.0" encoding="UTF-8" standalone="no"?>
<!DOCTYPE svg PUBLIC "-//W3C//DTD SVG 1.1//EN" "http://www.w3.org/Graphics/SVG/1.1/DTD/svg11.dtd">
<svg width="64.20" height="90.84" viewBox="0.00 0.00 535.00 757.00" xmlns="http://www.w3.org/2000/svg" xmlns:xlink="http://www.w3.org/1999/xlink">
<g stroke-linecap="round" transform="translate(44.00, 155.00)" id="6-비">
<path d="M-11.32,98.47 C-11.36,99.23 -11.32,99.88 -11.19,100.44 C-11.07,101.00 -10.68,102.24 -10.04,104.17 C-10.04,104.17 -10.16,104.05 -10.16,104.05" fill="none" stroke="rgb(9, 0, 255)" stroke-width="2.39" stroke-opacity="1.00" stroke-linejoin="round"/>
<path d="M-13.16,122.60 C-13.16,122.60 -13.35,122.51 -13.35,122.51 C-13.35,122.51 -13.59,122.57 -13.59,122.57 C-13.59,122.57 -10.23,132.90 -10.23,132.90 C-10.23,132.90 -10.09,132.98 -10.09,132.98" fill="none" stroke="rgb(9, 0, 255)" stroke-width="2.39" stroke-opacity="1.00" stroke-linejoin="round"/>
<path d="M6.73,131.26 C6.73,131.26 6.54,131.26 6.54,131.26 C6.37,132.18 5.92,134.80 5.82,135.23 C5.68,135.82 4.90,138.64 4.91,138.80 C4.91,138.87 4.94,139.06 5.01,139.39" fill="none" stroke="rgb(9, 0, 255)" stroke-width="2.39" stroke-opacity="1.00" stroke-linejoin="round"/>
<path d="M-3.22,168.09 C-3.59,168.83 -3.77,169.64 -3.86,171.26 C-3.95,172.87 -3.96,174.09 -3.91,175.82 C-3.91,175.82 -3.41,176.05 -3.41,176.05" fill="none" stroke="rgb(9, 0, 255)" stroke-width="2.39" stroke-opacity="1.00" stroke-linejoin="round"/>
<path d="M1.57,200.14 C1.54,202.26 1.55,203.55 1.60,204.01 C1.65,204.46 1.81,204.73 2.08,204.79 C2.08,204.79 2.38,204.45 2.38,204.45" fill="none" stroke="rgb(9, 0, 255)" stroke-width="2.39" stroke-opacity="1.00" stroke-linejoin="round"/>
<path d="M16.86,191.67 C16.36,193.42 16.14,194.60 16.12,195.65 C16.12,195.77 16.12,195.85 16.12,195.88" fill="none" stroke="rgb(9, 0, 255)" stroke-width="2.39" stroke-opacity="1.00" stroke-linejoin="round"/>
<path d="M27.54,167.72 C27.54,167.72 27.54,167.63 27.54,167.63 C27.54,167.63 27.39,167.60 27.39,167.60 C26.99,168.68 26.10,174.31 25.89,174.85 C25.86,174.92 25.82,174.98 25.76,175.02" fill="none" stroke="rgb(9, 0, 255)" stroke-width="2.39" stroke-opacity="1.00" stroke-linejoin="round"/>
<path d="M52.04,95.71 C51.21,96.88 49.82,101.43 49.08,103.89 C49.04,104.03 49.00,104.18 48.95,104.33 C48.95,104.33 49.14,104.42 49.14,104.42" fill="none" stroke="rgb(9, 0, 255)" stroke-width="2.39" stroke-opacity="1.00" stroke-linejoin="round"/>
<path d="M85.56,63.84 C85.16,64.06 84.34,64.98 83.33,66.42 C81.83,68.63 78.91,73.00 78.71,73.70 C78.68,73.78 78.64,74.02 78.56,74.41" fill="none" stroke="rgb(9, 0, 255)" stroke-width="2.39" stroke-opacity="1.00" stroke-linejoin="round"/>
<path d="M79.48,94.60 C78.78,94.67 77.83,96.05 75.78,99.27 C75.34,99.96 75.08,100.44 74.98,100.70 C74.90,100.93 74.80,101.37 74.69,102.03" fill="none" stroke="rgb(9, 0, 255)" stroke-width="2.39" stroke-opacity="1.00" stroke-linejoin="round"/>
<path d="M105.27,101.05 C105.27,101.05 104.95,101.16 104.95,101.16 C104.95,101.16 96.66,113.17 96.66,113.17 C96.66,113.17 97.39,112.44 97.39,112.44" fill="none" stroke="rgb(9, 0, 255)" stroke-width="2.39" stroke-opacity="1.00" stroke-linejoin="round"/>
<path d="M111.53,117.63 C110.99,117.61 110.07,118.55 108.46,121.88 C107.29,124.42 105.29,128.71 105.19,129.13 C105.12,129.44 105.13,129.94 105.20,130.63" fill="none" stroke="rgb(9, 0, 255)" stroke-width="2.39" stroke-opacity="1.00" stroke-linejoin="round"/>
<path d="M131.60,140.65 C131.60,140.65 131.08,140.77 131.08,140.77 C130.20,142.00 127.82,148.17 127.54,148.76 C127.22,149.40 126.77,149.98 126.50,150.65 C126.39,150.92 126.30,151.39 126.22,152.07" fill="none" stroke="rgb(9, 0, 255)" stroke-width="2.39" stroke-opacity="1.00" stroke-linejoin="round"/>
<path d="M136.02,182.27 C136.02,182.27 136.02,182.09 136.02,182.09 C136.03,182.79 135.15,186.86 134.37,189.41 C134.33,189.57 134.23,189.71 134.19,189.87 C134.18,189.89 134.18,189.96 134.18,190.09" fill="none" stroke="rgb(9, 0, 255)" stroke-width="2.39" stroke-opacity="1.00" stroke-linejoin="round"/>
<path d="M134.92,195.72 C134.62,195.90 134.38,196.12 134.21,196.39 C134.12,196.55 131.04,202.84 130.53,203.75" fill="none" stroke="rgb(9, 0, 255)" stroke-width="2.39" stroke-opacity="1.00" stroke-linejoin="round"/>
<path d="M5.81,109.89 C5.46,109.60 4.14,109.42 3.41,110.04 C1.21,112.00 2.22,115.16 2.78,116.34 C4.41,117.19 6.36,116.72 7.23,116.05 C8.42,115.09 9.73,112.59 9.59,111.47 C9.44,110.50 7.73,109.44 6.44,109.38 C4.91,109.38 3.59,110.43 2.54,111.54" fill="none" stroke="rgb(9, 0, 255)" stroke-width="2.39" stroke-opacity="1.00" stroke-linejoin="round"/>
<path d="M-3.95,144.52 C-4.73,145.08 -5.81,146.88 -6.19,148.28 C-6.35,148.89 -6.23,149.54 -5.81,150.68 C-4.15,151.17 -2.57,150.22 -1.83,149.31 C-1.44,148.82 -1.22,148.17 -1.01,147.04 C-1.01,147.04 -2.66,145.96 -2.66,145.96 C-2.66,145.96 -4.19,146.64 -4.19,146.64" fill="none" stroke="rgb(9, 0, 255)" stroke-width="2.39" stroke-opacity="1.00" stroke-linejoin="round"/>
<path d="M12.62,158.70 C12.21,158.64 10.94,159.73 10.51,161.16 C10.22,162.16 10.29,163.31 10.62,164.38 C10.62,164.38 11.63,165.12 11.63,165.12 C12.66,165.11 13.63,164.74 14.14,163.98 C14.59,163.28 14.80,161.59 14.53,160.88 C14.25,160.16 13.43,159.64 12.55,159.43 C12.55,159.43 10.70,160.86 10.70,160.86" fill="none" stroke="rgb(9, 0, 255)" stroke-width="2.39" stroke-opacity="1.00" stroke-linejoin="round"/>
<path d="M2.31,176.75 C2.22,176.74 2.09,176.74 1.94,176.75 C1.79,176.76 1.39,176.80 0.74,176.87 C0.74,176.87 0.15,182.27 0.15,182.27 C1.98,181.82 2.95,181.12 3.14,179.88 C3.30,178.89 3.04,178.07 2.55,177.45 C2.55,177.45 1.07,177.18 1.07,177.18" fill="none" stroke="rgb(9, 0, 255)" stroke-width="2.39" stroke-opacity="1.00" stroke-linejoin="round"/>
<path d="M1.94,212.30 C1.21,212.44 0.31,213.56 0.04,214.91 C-0.07,215.52 -0.03,216.19 0.15,217.41 C1.84,217.88 2.80,217.70 3.30,216.61 C3.73,215.68 3.81,214.79 3.66,213.97 C3.66,213.97 1.49,213.16 1.49,213.16" fill="none" stroke="rgb(9, 0, 255)" stroke-width="2.39" stroke-opacity="1.00" stroke-linejoin="round"/>
<path d="M24.78,201.98 C24.17,201.98 23.20,202.40 23.02,203.72 C22.91,204.61 23.27,205.46 23.95,206.19 C25.67,206.65 27.22,206.04 27.99,205.37 C29.13,204.30 29.16,202.56 28.74,201.66 C28.35,201.26 27.99,201.01 27.66,200.92 C27.32,200.82 26.55,200.74 25.33,200.67" fill="none" stroke="rgb(9, 0, 255)" stroke-width="2.39" stroke-opacity="1.00" stroke-linejoin="round"/>
<path d="M67.88,86.68 C67.18,86.66 65.83,87.54 65.24,89.24 C64.93,90.17 64.99,91.17 65.29,92.00 C67.21,92.14 68.30,91.88 68.97,90.94 C69.56,90.13 69.73,89.45 69.63,88.76 C69.63,88.76 68.11,87.62 68.11,87.62 C68.11,87.62 66.78,88.51 66.78,88.51" fill="none" stroke="rgb(9, 0, 255)" stroke-width="2.39" stroke-opacity="1.00" stroke-linejoin="round"/>
<path d="M71.93,110.81 C71.93,110.81 70.04,110.44 70.04,110.44 C70.04,110.44 68.97,113.90 68.97,113.90 C70.83,114.30 71.56,114.31 72.06,113.85 C73.50,112.67 74.01,111.58 73.99,110.86 C73.79,110.55 73.53,110.35 73.22,110.26 C72.91,110.17 72.10,110.06 70.81,109.92" fill="none" stroke="rgb(9, 0, 255)" stroke-width="2.39" stroke-opacity="1.00" stroke-linejoin="round"/>
<path d="M92.74,80.97 C92.35,83.03 91.97,86.43 92.03,87.96 C92.04,88.38 92.14,88.66 92.32,88.82 C93.51,88.90 94.15,88.63 94.49,87.72 C95.11,86.01 94.82,83.85 94.07,83.11 C94.07,83.11 93.36,83.45 93.36,83.45" fill="none" stroke="rgb(9, 0, 255)" stroke-width="2.39" stroke-opacity="1.00" stroke-linejoin="round"/>
<path d="M96.43,107.50 C96.43,107.50 95.00,107.62 95.00,107.62 C95.00,107.62 95.18,110.66 95.18,110.66 C95.18,110.66 96.89,110.52 96.89,110.52 C96.89,110.52 95.66,107.00 95.66,107.00 C95.66,107.00 95.31,107.35 95.31,107.35" fill="none" stroke="rgb(9, 0, 255)" stroke-width="2.39" stroke-opacity="1.00" stroke-linejoin="round"/>
<path d="M107.11,153.17 C106.26,153.82 105.57,155.39 106.46,156.40 C106.92,156.89 107.87,157.05 108.73,156.93 C109.79,154.84 108.92,153.87 108.30,153.26 C108.30,153.26 107.50,153.42 107.50,153.42" fill="none" stroke="rgb(9, 0, 255)" stroke-width="2.39" stroke-opacity="1.00" stroke-linejoin="round"/>
<path d="M125.53,185.04 C125.53,185.04 124.51,188.81 124.51,188.81 C126.74,189.34 127.15,188.37 127.26,187.88 C127.08,187.47 126.87,187.22 126.37,186.96 C125.90,186.71 125.42,186.47 124.95,186.23" fill="none" stroke="rgb(9, 0, 255)" stroke-width="2.39" stroke-opacity="1.00" stroke-linejoin="round"/>
</g>
</svg>
