<?xml version="1.0" encoding="UTF-8" standalone="no"?>
<!DOCTYPE svg PUBLIC "-//W3C//DTD SVG 1.1//EN" "http://www.w3.org/Graphics/SVG/1.1/DTD/svg11.dtd">
<svg width="128.40" height="181.68" viewBox="0.00 0.00 535.00 757.00" xmlns="http://www.w3.org/2000/svg" xmlns:xlink="http://www.w3.org/1999/xlink">
<g stroke-linecap="round" transform="translate(44.00, 155.00)" id="60-사람">
<path d="M314.11,253.54 C314.11,253.54 314.24,251.89 314.24,251.89 C314.24,251.89 313.98,251.56 313.98,251.56 C313.98,251.56 313.86,251.57 313.86,251.57 C315.32,260.93 317.78,269.11 317.77,269.15 C317.30,270.92 317.37,275.31 318.26,278.56 C319.06,281.32 320.95,284.41 322.33,285.59 C323.04,286.14 324.80,286.77 326.12,286.91 C328.04,287.08 334.11,284.14 335.11,283.18 C335.46,282.83 340.66,278.04 341.27,277.27 C341.39,277.12 341.48,276.95 341.55,276.77 C341.55,276.77 341.51,276.60 341.51,276.60" fill="none" stroke="rgb(255, 165, 0)" stroke-width="3.23" stroke-opacity="1.00" stroke-linejoin="round"/>
<path d="M311.57,248.36 C311.57,248.36 312.50,246.97 312.50,246.97 C312.50,246.97 313.54,247.19 313.54,247.19 C313.54,247.19 312.35,256.33 312.35,256.33 C312.82,256.83 313.28,257.14 313.93,257.09 C314.98,257.00 322.01,255.70 321.96,255.60 C322.17,252.66 324.01,249.10 325.30,248.14 C325.30,248.14 325.18,248.64 325.18,248.64" fill="none" stroke="rgb(255, 165, 0)" stroke-width="3.23" stroke-opacity="1.00" stroke-linejoin="round"/>
<path d="M323.76,249.95 C323.76,249.95 323.37,249.88 323.37,249.88 C323.30,254.59 323.49,256.32 324.57,256.95 C325.23,257.28 337.14,256.39 337.10,256.27 C337.10,256.27 340.15,251.55 340.15,251.55 C340.15,251.55 340.10,251.52 340.10,251.52" fill="none" stroke="rgb(255, 165, 0)" stroke-width="3.23" stroke-opacity="1.00" stroke-linejoin="round"/>
<path d="M337.95,251.95 C337.95,251.95 337.95,250.98 337.95,250.98 C338.37,251.34 339.17,257.71 339.18,257.73 C339.90,258.73 343.58,261.14 343.74,261.35 C344.76,262.78 344.14,269.29 344.17,269.67 C344.17,269.67 350.86,265.08 350.86,265.08 C350.86,265.08 350.82,265.68 350.82,265.68" fill="none" stroke="rgb(255, 165, 0)" stroke-width="3.23" stroke-opacity="1.00" stroke-linejoin="round"/>
<path d="M349.30,266.79 C349.30,266.79 348.78,267.43 348.78,267.43 C349.30,268.25 349.63,269.19 349.79,270.47 C350.05,273.78 342.63,276.67 341.85,276.83 C341.85,276.83 341.61,275.91 341.61,275.91" fill="none" stroke="rgb(255, 165, 0)" stroke-width="3.23" stroke-opacity="1.00" stroke-linejoin="round"/>
<path d="M316.40,267.33 C316.40,267.33 316.33,266.47 316.33,266.47 C316.33,266.47 320.26,265.39 320.26,265.39 C320.26,265.39 322.25,266.93 322.25,266.93 C322.25,266.93 322.35,266.72 322.35,266.72" fill="none" stroke="rgb(255, 165, 0)" stroke-width="3.23" stroke-opacity="1.00" stroke-linejoin="round"/>
<path d="M317.52,264.90 C317.45,264.90 317.41,264.90 317.38,264.89 C317.35,264.87 317.29,264.84 317.21,264.78 C317.22,264.69 320.88,263.58 321.92,263.84 C322.59,264.05 323.25,264.26 323.92,264.48 C324.18,264.55 324.47,264.57 324.81,264.54" fill="none" stroke="rgb(255, 165, 0)" stroke-width="3.23" stroke-opacity="1.00" stroke-linejoin="round"/>
<path d="M329.42,265.12 C329.42,265.12 328.56,265.76 328.56,265.76 C330.99,264.90 334.19,264.89 335.53,265.29 C335.89,265.36 336.54,265.31 336.73,265.22" fill="none" stroke="rgb(255, 165, 0)" stroke-width="3.23" stroke-opacity="1.00" stroke-linejoin="round"/>
<path d="M330.47,268.71 C330.47,268.71 330.32,268.87 330.32,268.87 C330.32,268.87 330.60,268.85 330.60,268.85 C330.60,268.85 331.07,271.35 331.07,271.35 C331.07,271.35 332.10,272.01 332.10,272.01 C334.04,271.60 335.19,269.11 335.07,267.68 C335.07,267.68 335.16,267.86 335.16,267.86" fill="none" stroke="rgb(255, 165, 0)" stroke-width="3.23" stroke-opacity="1.00" stroke-linejoin="round"/>
<path d="M320.39,269.98 C320.39,269.98 320.06,269.89 320.06,269.89 C320.06,269.89 319.73,269.45 319.73,269.45 C319.73,269.45 320.79,270.80 320.79,270.80 C320.79,270.80 318.92,271.22 318.92,271.22 C318.92,271.22 319.76,270.54 319.76,270.54 C319.76,270.54 318.61,270.87 318.61,270.87 C318.61,270.87 318.90,270.40 318.90,270.40" fill="none" stroke="rgb(255, 165, 0)" stroke-width="3.23" stroke-opacity="1.00" stroke-linejoin="round"/>
<path d="M332.18,270.16 C332.10,270.09 332.06,270.00 332.04,269.89 C332.03,269.78 332.03,269.51 332.03,269.07 C332.03,269.07 333.66,268.70 333.66,268.70 C333.66,268.70 332.17,269.95 332.17,269.95 C332.17,269.95 333.98,268.72 333.98,268.72 C333.98,268.72 332.03,269.71 332.03,269.71" fill="none" stroke="rgb(255, 165, 0)" stroke-width="3.23" stroke-opacity="1.00" stroke-linejoin="round"/>
<path d="M323.54,269.29 C323.54,269.29 323.86,268.66 323.86,268.66 C323.86,268.66 324.82,268.30 324.82,268.30 C324.82,268.30 322.36,272.24 322.36,272.24 C322.36,272.24 325.66,273.80 325.66,273.80 C325.66,273.80 325.75,273.58 325.75,273.58" fill="none" stroke="rgb(255, 165, 0)" stroke-width="3.23" stroke-opacity="1.00" stroke-linejoin="round"/>
<path d="M322.71,279.74 C322.71,279.74 322.24,278.98 322.24,278.98 C322.33,279.27 323.82,281.07 325.60,281.05 C327.56,281.00 328.39,279.43 328.48,278.81 C328.48,278.81 322.93,278.13 322.93,278.13 C322.93,278.13 323.01,277.58 323.01,277.58" fill="none" stroke="rgb(255, 165, 0)" stroke-width="3.23" stroke-opacity="1.00" stroke-linejoin="round"/>
<path d="M326.01,287.03 C326.01,287.03 325.72,286.69 325.72,286.69 C325.72,286.69 325.69,286.17 325.69,286.17 C325.69,286.17 325.84,286.15 325.84,286.15 C326.08,287.76 325.44,290.10 323.66,294.66 C322.10,298.43 318.80,302.32 316.16,303.92 C306.57,309.65 301.04,313.22 298.65,315.98 C292.14,323.39 288.21,326.62 286.65,326.90 C285.72,327.03 284.17,326.45 282.83,325.56 C280.68,324.09 279.37,323.65 279.41,323.73" fill="none" stroke="rgb(255, 165, 0)" stroke-width="3.23" stroke-opacity="1.00" stroke-linejoin="round"/>
<path d="M343.24,280.83 C343.24,280.43 343.25,280.14 343.26,279.96 C343.28,279.77 343.31,279.44 343.37,278.95 C343.45,279.00 342.13,284.39 341.45,288.45 C340.46,294.67 341.42,300.02 341.83,300.50 C341.83,300.50 340.85,299.23 340.85,299.23" fill="none" stroke="rgb(255, 165, 0)" stroke-width="3.23" stroke-opacity="1.00" stroke-linejoin="round"/>
<path d="M308.01,248.21 C308.01,248.21 307.86,248.19 307.86,248.19 C307.86,248.19 307.83,248.40 307.83,248.40 C308.15,247.22 310.87,240.65 311.26,239.93 C312.85,237.04 317.84,232.27 320.79,230.31 C323.12,228.80 328.94,225.98 330.29,225.52 C332.95,224.65 341.92,222.93 343.56,222.73 C346.72,222.37 350.43,223.02 352.54,224.26 C353.92,225.10 359.04,228.82 360.43,229.70 C363.25,231.50 366.55,234.41 368.43,236.98 C370.35,239.68 371.76,243.92 372.18,247.89 C372.50,251.17 371.96,257.16 371.29,259.70 C371.04,260.64 367.90,268.93 366.77,270.96 C364.29,275.38 355.56,285.09 354.50,286.57 C353.11,288.57 351.96,291.71 351.34,294.94 C350.46,299.73 350.31,300.90 350.15,302.59 C350.15,302.59 350.18,301.16 350.18,301.16" fill="none" stroke="rgb(255, 165, 0)" stroke-width="3.23" stroke-opacity="1.00" stroke-linejoin="round"/>
<path d="M311.33,246.70 C311.33,246.70 310.98,246.73 310.98,246.73" fill="none" stroke="rgb(255, 165, 0)" stroke-width="3.23" stroke-opacity="1.00" stroke-linejoin="round"/>
<path d="M310.54,247.60 C310.36,247.65 310.19,247.75 310.12,247.77 C309.92,247.82 309.62,247.77 309.30,247.64 C309.55,246.62 312.09,243.83 313.71,243.11 C317.87,241.34 325.90,240.05 326.95,240.28 C330.05,241.07 336.70,242.78 338.94,243.97 C341.78,245.54 346.42,249.63 346.64,249.82 C348.22,251.20 348.90,252.03 349.31,253.26 C349.54,254.01 351.10,259.01 351.54,262.31 C352.08,266.02 352.08,271.12 351.34,273.63 C351.28,273.84 351.22,273.90 351.16,273.82 C351.16,273.82 351.10,273.66 351.10,273.66" fill="none" stroke="rgb(255, 165, 0)" stroke-width="3.23" stroke-opacity="1.00" stroke-linejoin="round"/>
<path d="M321.18,303.18 C321.05,302.72 320.95,302.41 320.88,302.25 C320.72,301.90 320.47,301.59 320.27,301.26 C320.14,301.04 319.91,300.61 319.56,299.95 C319.56,299.95 327.47,306.82 327.47,306.82 C327.47,306.82 327.58,306.72 327.58,306.72 C327.58,306.72 327.47,306.48 327.47,306.48" fill="none" stroke="rgb(255, 165, 0)" stroke-width="3.23" stroke-opacity="1.00" stroke-linejoin="round"/>
<path d="M325.67,306.89 C325.67,306.89 325.92,305.83 325.92,305.83 C325.92,305.83 341.86,295.84 341.86,295.84 C341.86,295.84 342.07,296.14 342.07,296.14" fill="none" stroke="rgb(255, 165, 0)" stroke-width="3.23" stroke-opacity="1.00" stroke-linejoin="round"/>
<path d="M282.11,322.06 C282.13,321.87 282.13,321.73 282.11,321.64 C282.09,321.55 282.02,321.37 281.91,321.12 C281.91,321.12 281.73,321.05 281.73,321.05 C280.02,325.57 270.03,336.99 269.48,338.55 C269.84,339.00 274.90,341.16 276.99,342.95 C279.40,345.07 286.67,355.85 287.59,356.41 C288.73,357.07 290.80,357.18 292.63,356.81 C295.44,356.17 297.92,354.50 300.15,351.58 C302.98,347.87 303.27,347.56 303.47,347.47 C303.47,347.47 303.59,347.48 303.59,347.48 C303.59,347.48 303.55,347.64 303.55,347.64" fill="none" stroke="rgb(255, 165, 0)" stroke-width="3.23" stroke-opacity="1.00" stroke-linejoin="round"/>
<path d="M304.25,336.66 C304.25,336.66 303.33,334.94 303.33,334.94 C303.43,335.14 305.91,350.43 306.43,359.90 C306.70,366.56 307.16,384.01 307.07,388.29 C306.89,396.50 304.27,409.42 303.04,413.66 C303.04,413.66 303.16,410.87 303.16,410.87" fill="none" stroke="rgb(255, 165, 0)" stroke-width="3.23" stroke-opacity="1.00" stroke-linejoin="round"/>
<path d="M324.66,309.47 C324.66,309.47 324.47,309.42 324.47,309.42 C324.24,309.18 323.95,308.22 323.82,307.86 C323.76,307.71 323.65,307.52 323.51,307.29 C322.61,306.58 321.25,319.32 321.21,327.40 C321.23,338.18 321.95,352.33 322.00,355.11 C322.08,359.26 320.84,376.91 320.66,380.64 C320.49,383.81 318.29,401.70 318.24,406.88 C318.20,411.47 318.39,414.63 318.59,416.86 C318.59,416.86 318.82,414.78 318.82,414.78" fill="none" stroke="rgb(255, 165, 0)" stroke-width="3.23" stroke-opacity="1.00" stroke-linejoin="round"/>
<path d="M303.01,412.81 C303.01,412.81 302.88,412.24 302.88,412.24 C302.88,412.24 302.57,412.32 302.57,412.32 C305.98,415.19 324.73,415.26 336.35,414.53 C338.77,414.37 348.48,411.18 349.29,411.57 C349.29,411.57 349.24,412.25 349.24,412.25 C349.24,412.25 349.04,412.25 349.04,412.25" fill="none" stroke="rgb(255, 165, 0)" stroke-width="3.23" stroke-opacity="1.00" stroke-linejoin="round"/>
<path d="M353.99,334.72 C354.10,334.55 354.22,334.37 354.33,334.20 C354.53,333.92 354.66,333.74 354.72,333.69 C354.78,333.64 354.88,333.60 355.01,333.57 C355.14,333.79 353.26,345.54 352.51,356.09 C351.76,369.64 350.75,387.06 350.33,411.90 C350.33,411.90 350.74,410.02 350.74,410.02" fill="none" stroke="rgb(255, 165, 0)" stroke-width="3.23" stroke-opacity="1.00" stroke-linejoin="round"/>
<path d="M354.85,330.15 C354.85,330.15 353.98,330.26 353.98,330.26 C354.44,330.32 355.23,331.28 356.78,334.68 C356.98,335.14 359.90,341.11 361.01,343.98 C365.13,354.68 368.60,375.55 368.90,380.66 C370.17,378.58 373.56,376.19 376.27,374.95 C382.49,372.15 389.52,369.47 391.75,369.46 C391.75,369.46 392.22,369.85 392.22,369.85 C392.22,369.85 392.31,369.78 392.31,369.78" fill="none" stroke="rgb(255, 165, 0)" stroke-width="3.23" stroke-opacity="1.00" stroke-linejoin="round"/>
<path d="M351.52,303.18 C351.18,303.03 350.97,302.92 350.88,302.84 C350.69,302.66 350.47,301.98 350.31,301.33 C349.86,301.44 349.83,303.46 356.90,303.80 C358.65,303.90 362.86,306.27 364.53,307.84 C368.58,312.03 376.00,317.38 378.27,320.04 C379.87,321.95 381.40,324.63 383.22,328.42 C384.93,332.01 386.29,335.97 386.86,339.46 C389.78,357.75 389.73,368.59 389.77,369.33 C389.77,369.33 390.43,367.48 390.43,367.48" fill="none" stroke="rgb(255, 165, 0)" stroke-width="3.23" stroke-opacity="1.00" stroke-linejoin="round"/>
<path d="M268.97,336.25 C268.97,336.25 268.69,336.87 268.69,336.87 C268.69,336.87 268.81,336.97 268.81,336.97 C268.81,336.97 268.96,336.85 268.96,336.85 C268.53,336.13 265.11,335.07 264.43,334.14 C262.99,332.10 261.17,326.37 261.63,324.84 C262.17,323.24 264.55,322.24 266.38,322.19 C267.08,320.39 267.14,315.64 268.14,314.84 C269.16,314.13 272.33,314.25 274.07,315.32 C275.62,316.36 278.65,321.46 279.31,322.61 C279.51,322.97 279.68,323.21 279.82,323.33" fill="none" stroke="rgb(255, 165, 0)" stroke-width="3.23" stroke-opacity="1.00" stroke-linejoin="round"/>
<path d="M266.12,330.78 C266.12,330.78 265.12,329.85 265.12,329.85 C265.12,329.85 268.20,331.59 268.20,331.59 C269.10,330.01 268.50,328.88 267.53,327.11 C267.79,326.74 272.54,325.83 273.25,324.86 C273.44,324.57 273.51,324.17 273.48,323.86 C273.36,324.19 274.70,324.98 275.36,324.60 C276.35,323.94 275.93,320.91 274.53,319.28 C274.53,319.28 274.76,319.58 274.76,319.58" fill="none" stroke="rgb(255, 165, 0)" stroke-width="3.23" stroke-opacity="1.00" stroke-linejoin="round"/>
<path d="M376.72,375.17 C376.84,374.72 376.92,374.41 376.98,374.25 C377.06,374.03 377.19,373.72 377.40,373.30 C377.45,373.19 377.55,372.99 377.70,372.70 C377.60,376.32 377.13,379.99 375.46,383.38 C375.10,384.10 372.41,389.18 372.28,390.40 C373.15,390.86 374.55,390.89 376.04,390.12 C376.44,389.91 379.91,387.74 379.93,387.77 C379.93,387.77 381.90,392.15 381.90,392.15 C381.90,392.15 383.94,392.04 383.94,392.04 C383.94,392.04 385.65,394.41 385.65,394.41 C385.65,394.41 386.87,394.74 386.87,394.74 C386.87,394.74 390.31,391.23 390.31,391.23 C390.31,391.23 391.13,391.98 391.13,391.98 C391.97,391.94 393.46,390.50 393.38,389.44 C393.29,388.54 391.28,385.33 391.28,385.13 C391.28,385.13 395.30,385.74 395.30,385.74 C395.83,384.41 393.05,379.42 391.15,376.77 C390.58,375.99 388.08,372.68 387.27,371.34 C387.27,371.34 387.42,370.86 387.42,370.86 C387.42,370.86 387.62,370.84 387.62,370.84" fill="none" stroke="rgb(255, 165, 0)" stroke-width="3.23" stroke-opacity="1.00" stroke-linejoin="round"/>
<path d="M302.53,415.73 C302.56,415.43 302.60,415.13 302.64,414.83 C302.67,414.48 302.71,414.13 302.75,413.78 C302.75,413.78 302.90,413.62 302.90,413.62 C305.10,417.04 298.03,439.79 298.21,440.81 C298.41,441.54 301.57,441.90 304.93,441.41 C316.04,439.88 321.42,439.57 326.37,439.43 C326.37,439.43 326.17,439.10 326.17,439.10" fill="none" stroke="rgb(255, 165, 0)" stroke-width="3.23" stroke-opacity="1.00" stroke-linejoin="round"/>
<path d="M319.61,416.55 C319.61,416.55 319.49,414.71 319.49,414.71 C320.96,416.64 322.83,429.27 323.09,435.04 C323.29,440.12 322.16,446.57 322.15,447.06 C322.15,448.12 324.08,449.46 326.37,450.13 C329.81,451.09 334.09,451.61 338.12,451.64 C341.70,451.64 351.60,451.61 352.13,451.32 C352.13,451.32 351.94,450.83 351.94,450.83 C351.94,450.83 351.65,450.83 351.65,450.83" fill="none" stroke="rgb(255, 165, 0)" stroke-width="3.23" stroke-opacity="1.00" stroke-linejoin="round"/>
<path d="M351.89,410.97 C351.89,410.97 352.11,409.51 352.11,409.51 C353.18,410.77 352.92,421.90 352.12,431.09 C351.03,441.87 350.42,445.95 349.74,449.64 C349.21,452.48 349.11,453.49 349.33,453.38 C349.33,453.38 349.59,452.74 349.59,452.74" fill="none" stroke="rgb(255, 165, 0)" stroke-width="3.23" stroke-opacity="1.00" stroke-linejoin="round"/>
<path d="M311.48,441.99 C311.48,441.99 311.43,439.38 311.43,439.38 C311.64,443.08 312.01,459.78 312.14,467.71 C312.18,470.38 312.23,473.21 312.24,473.17 C312.24,473.17 312.45,472.78 312.45,472.78" fill="none" stroke="rgb(255, 165, 0)" stroke-width="3.23" stroke-opacity="1.00" stroke-linejoin="round"/>
<path d="M330.09,453.37 C330.09,453.37 329.95,451.89 329.95,451.89 C329.95,451.89 329.90,477.59 329.90,477.59 C329.90,477.59 330.26,475.47 330.26,475.47" fill="none" stroke="rgb(255, 165, 0)" stroke-width="3.23" stroke-opacity="1.00" stroke-linejoin="round"/>
<path d="M348.37,452.81 C348.37,452.81 348.12,451.63 348.12,451.63 C348.12,451.63 348.08,472.72 348.08,472.72 C348.08,472.72 348.23,471.83 348.23,471.83" fill="none" stroke="rgb(255, 165, 0)" stroke-width="3.23" stroke-opacity="1.00" stroke-linejoin="round"/>
<path d="M310.17,477.53 C310.17,477.53 309.89,477.65 309.89,477.65" fill="none" stroke="rgb(255, 165, 0)" stroke-width="3.23" stroke-opacity="1.00" stroke-linejoin="round"/>
<path d="M308.86,475.39 C308.86,475.39 306.42,475.25 306.42,475.25 C308.41,474.37 324.67,473.20 327.09,473.69 C327.41,473.75 327.71,473.94 328.00,474.23 C328.00,474.23 327.72,474.82 327.72,474.82" fill="none" stroke="rgb(255, 165, 0)" stroke-width="3.23" stroke-opacity="1.00" stroke-linejoin="round"/>
<path d="M306.53,477.08 C306.53,477.08 305.79,475.43 305.79,475.43 C306.73,475.59 307.17,475.94 307.35,476.94 C308.72,484.93 309.75,489.14 310.22,490.98 C310.22,490.98 310.13,490.28 310.13,490.28" fill="none" stroke="rgb(255, 165, 0)" stroke-width="3.23" stroke-opacity="1.00" stroke-linejoin="round"/>
<path d="M289.30,499.14 C289.30,499.14 288.14,500.05 288.14,500.05 C288.14,500.05 287.62,499.64 287.62,499.64 C289.41,497.93 294.53,496.15 297.32,495.03 C300.40,493.79 303.30,492.36 304.41,491.79 C304.41,491.79 304.05,492.10 304.05,492.10" fill="none" stroke="rgb(255, 165, 0)" stroke-width="3.23" stroke-opacity="1.00" stroke-linejoin="round"/>
<path d="M288.67,500.45 C288.67,500.45 287.60,500.31 287.60,500.31 C287.77,500.94 290.83,506.74 292.16,508.26 C294.34,510.69 298.73,513.16 301.39,513.97 C302.30,514.24 304.75,515.00 305.41,515.23 C305.47,515.25 305.61,515.32 305.56,515.32 C305.56,515.32 305.58,515.25 305.58,515.25" fill="none" stroke="rgb(255, 165, 0)" stroke-width="3.23" stroke-opacity="1.00" stroke-linejoin="round"/>
<path d="M323.99,480.38 C323.96,480.28 323.93,479.98 323.92,479.87 C323.91,479.81 323.90,479.73 323.89,479.61 C324.08,479.92 323.75,486.90 323.71,491.08 C323.68,494.43 323.88,501.13 323.69,501.66 C323.67,501.70 323.59,501.87 323.44,502.17 C323.44,502.17 323.21,502.25 323.21,502.25 C323.21,502.25 323.12,502.01 323.12,502.01" fill="none" stroke="rgb(255, 165, 0)" stroke-width="3.23" stroke-opacity="1.00" stroke-linejoin="round"/>
<path d="M328.03,478.39 C327.93,478.39 327.79,478.35 327.60,478.28 C326.66,477.91 325.05,477.08 324.73,476.74 C324.62,476.62 324.50,476.40 324.38,476.09 C324.55,475.98 329.41,476.60 332.09,476.54 C337.65,476.38 347.84,472.33 351.24,470.94 C351.24,470.94 349.83,470.89 349.83,470.89" fill="none" stroke="rgb(255, 165, 0)" stroke-width="3.23" stroke-opacity="1.00" stroke-linejoin="round"/>
<path d="M351.33,474.53 C351.33,474.53 351.08,473.64 351.08,473.64 C351.39,475.56 349.68,491.26 349.59,496.05 C349.49,502.53 350.60,513.52 351.43,517.18 C351.43,517.18 351.60,515.94 351.60,515.94" fill="none" stroke="rgb(255, 165, 0)" stroke-width="3.23" stroke-opacity="1.00" stroke-linejoin="round"/>
<path d="M323.84,498.20 C323.84,498.20 323.44,498.17 323.44,498.17 C323.53,498.10 321.61,499.87 320.65,500.70 C318.30,502.75 304.51,510.77 303.66,512.35 C303.58,512.50 303.45,512.84 303.25,513.38 C303.34,514.70 308.23,517.85 311.36,519.14 C317.28,521.51 331.18,522.65 336.51,522.29 C341.85,521.88 347.94,519.10 348.14,519.11 C348.14,519.11 348.24,519.33 348.24,519.33" fill="none" stroke="rgb(255, 165, 0)" stroke-width="3.23" stroke-opacity="1.00" stroke-linejoin="round"/>
<path d="M326.72,316.18 C326.71,315.72 326.72,315.60 326.72,315.60 C326.68,315.40 326.33,315.14 325.48,314.68 C324.48,314.92 323.76,316.59 324.43,318.21 C324.43,318.21 325.64,318.73 325.64,318.73 C326.70,318.45 327.77,317.89 328.33,317.15 C329.00,316.26 329.08,315.17 328.73,314.21 C328.73,314.21 323.49,314.28 323.49,314.28" fill="none" stroke="rgb(255, 165, 0)" stroke-width="3.23" stroke-opacity="1.00" stroke-linejoin="round"/>
<path d="M323.79,334.03 C323.79,334.03 323.51,333.32 323.51,333.32 C323.51,333.32 322.80,335.81 322.80,335.81 C324.15,336.46 325.07,336.43 326.03,335.48 C327.83,333.67 327.96,332.05 327.68,331.13 C327.68,331.13 326.67,330.56 326.67,330.56 C326.67,330.56 323.06,333.04 323.06,333.04" fill="none" stroke="rgb(255, 165, 0)" stroke-width="3.23" stroke-opacity="1.00" stroke-linejoin="round"/>
<path d="M324.59,350.58 C324.59,350.58 322.08,351.32 322.08,351.32 C321.42,353.41 322.12,355.08 323.26,355.52 C326.85,354.98 326.59,350.95 326.25,349.96 C324.39,349.57 323.97,350.27 323.50,351.14" fill="none" stroke="rgb(255, 165, 0)" stroke-width="3.23" stroke-opacity="1.00" stroke-linejoin="round"/>
<path d="M322.37,366.07 C322.37,366.07 322.16,365.81 322.16,365.81 C322.16,365.81 322.32,371.43 322.32,371.43 C324.04,370.95 324.94,370.45 325.52,369.49 C326.22,368.35 326.47,367.49 326.51,366.47 C325.26,365.86 324.54,365.80 323.90,366.39 C323.32,366.94 323.06,367.32 322.87,367.79" fill="none" stroke="rgb(255, 165, 0)" stroke-width="3.23" stroke-opacity="1.00" stroke-linejoin="round"/>
<path d="M321.88,385.95 C321.88,385.95 321.47,385.06 321.47,385.06 C320.12,386.50 319.59,387.51 319.97,388.30 C320.05,388.46 320.25,388.78 320.58,389.26 C320.58,389.26 321.80,389.54 321.80,389.54 C321.80,389.54 325.84,384.91 325.84,384.91 C323.64,384.53 322.45,385.63 321.95,386.14" fill="none" stroke="rgb(255, 165, 0)" stroke-width="3.23" stroke-opacity="1.00" stroke-linejoin="round"/>
<path d="M322.15,400.69 C322.11,400.36 322.08,400.12 322.06,399.99 C322.05,399.86 322.03,399.64 322.01,399.33 C322.01,399.33 321.90,399.24 321.90,399.24 C321.90,399.24 321.62,402.86 321.62,402.86 C322.87,402.55 323.63,402.04 324.23,400.94 C324.84,399.82 324.99,398.95 324.85,397.95 C324.85,397.95 323.90,397.13 323.90,397.13 C323.02,397.02 321.64,397.21 320.67,397.69 C319.89,398.08 319.33,398.79 319.24,399.25" fill="none" stroke="rgb(255, 165, 0)" stroke-width="3.23" stroke-opacity="1.00" stroke-linejoin="round"/>
<path d="M322.64,409.74 C322.64,409.74 321.97,408.52 321.97,408.52 C321.97,408.52 322.15,412.76 322.15,412.76 C323.60,412.46 324.41,411.91 324.79,410.74 C325.18,409.54 325.14,408.56 324.76,407.58 C323.63,406.50 320.89,407.37 320.28,407.88" fill="none" stroke="rgb(255, 165, 0)" stroke-width="3.23" stroke-opacity="1.00" stroke-linejoin="round"/>
</g>
</svg>
