<?xml version="1.0" encoding="UTF-8" standalone="no"?>
<!DOCTYPE svg PUBLIC "-//W3C//DTD SVG 1.1//EN" "http://www.w3.org/Graphics/SVG/1.1/DTD/svg11.dtd">
<svg width="128.40" height="181.68" viewBox="0.00 0.00 535.00 757.00" xmlns="http://www.w3.org/2000/svg" xmlns:xlink="http://www.w3.org/1999/xlink">
<g stroke-linecap="round" transform="translate(44.00, 155.00)" id="61-사람">
<path d="M219.56,212.32 C219.58,211.74 219.66,211.09 219.66,210.87 C219.66,210.77 219.65,210.58 219.62,210.32 C218.89,210.36 218.15,210.63 217.68,211.33 C216.38,213.29 215.05,220.10 214.98,221.85 C214.94,223.33 215.30,228.68 215.62,230.53 C215.91,232.16 217.85,237.95 220.14,239.85 C221.41,240.85 224.72,241.43 226.50,241.06 C229.73,240.30 236.59,235.58 238.80,232.72 C240.58,230.35 242.99,223.81 242.98,222.08 C242.91,220.12 239.92,216.83 237.17,215.27 C234.07,213.54 228.99,212.02 227.36,211.76 C225.70,211.52 220.40,211.54 218.06,212.18 C216.97,212.48 216.22,213.13 216.00,213.62" fill="none" stroke="rgb(255, 165, 0)" stroke-width="3.57" stroke-opacity="1.00" stroke-linejoin="round"/>
<path d="M222.08,210.62 C222.08,210.62 220.88,210.75 220.88,210.75 C220.88,210.75 216.03,232.10 216.03,232.10 C216.03,232.10 217.36,228.62 217.36,228.62" fill="none" stroke="rgb(255, 165, 0)" stroke-width="3.57" stroke-opacity="1.00" stroke-linejoin="round"/>
<path d="M223.07,215.22 C223.07,215.22 223.88,213.16 223.88,213.16 C224.02,213.11 222.55,220.02 221.70,224.07 C220.38,230.38 219.64,234.79 220.02,235.95 C220.02,235.95 221.24,234.06 221.24,234.06" fill="none" stroke="rgb(255, 165, 0)" stroke-width="3.57" stroke-opacity="1.00" stroke-linejoin="round"/>
<path d="M227.18,214.89 C227.18,214.89 227.93,213.21 227.93,213.21 C226.86,216.39 225.46,221.63 224.03,227.93 C223.66,229.57 222.39,235.25 222.28,235.16 C222.33,233.81 222.37,232.96 222.40,232.60 C222.43,232.25 222.48,231.90 222.55,231.54" fill="none" stroke="rgb(255, 165, 0)" stroke-width="3.57" stroke-opacity="1.00" stroke-linejoin="round"/>
<path d="M228.12,216.48 C228.19,215.69 228.25,215.16 228.29,214.87 C228.33,214.59 228.42,214.15 228.55,213.57 C227.92,216.13 226.61,221.69 225.93,224.68 C224.03,233.52 222.90,240.64 222.47,244.66" fill="none" stroke="rgb(255, 165, 0)" stroke-width="3.57" stroke-opacity="1.00" stroke-linejoin="round"/>
<path d="M230.20,216.10 C230.20,216.10 229.34,216.19 229.34,216.19 C227.99,217.71 226.55,222.64 226.13,224.70 C224.77,231.69 224.56,237.49 224.60,239.31 C224.60,239.31 224.78,239.46 224.78,239.46 C224.78,239.46 225.10,237.92 225.10,237.92" fill="none" stroke="rgb(255, 165, 0)" stroke-width="3.57" stroke-opacity="1.00" stroke-linejoin="round"/>
<path d="M232.28,216.15 C231.87,216.28 230.93,217.53 230.19,219.04 C228.99,221.57 227.05,236.47 227.49,239.49 C227.53,239.76 227.65,240.29 227.84,241.07 C227.84,241.07 228.23,241.13 228.23,241.13 C228.41,240.63 228.54,240.24 228.61,239.97 C228.70,239.62 231.43,227.42 231.65,226.52" fill="none" stroke="rgb(255, 165, 0)" stroke-width="3.57" stroke-opacity="1.00" stroke-linejoin="round"/>
<path d="M233.21,220.16 C233.21,220.16 233.63,218.17 233.63,218.17 C232.81,220.89 231.83,224.82 230.80,229.63 C230.13,232.67 229.10,236.02 228.71,237.13" fill="none" stroke="rgb(255, 165, 0)" stroke-width="3.57" stroke-opacity="1.00" stroke-linejoin="round"/>
<path d="M238.04,217.63 C238.04,217.63 237.74,217.29 237.74,217.29 C237.25,217.16 236.08,220.49 234.36,227.01 C233.33,231.08 232.75,235.81 232.86,238.83" fill="none" stroke="rgb(255, 165, 0)" stroke-width="3.57" stroke-opacity="1.00" stroke-linejoin="round"/>
<path d="M241.60,217.20 C240.31,219.70 239.73,221.14 239.33,223.02 C238.99,224.66 238.27,228.17 238.08,229.37 C237.78,231.27 237.42,234.15 237.24,235.84" fill="none" stroke="rgb(255, 165, 0)" stroke-width="3.57" stroke-opacity="1.00" stroke-linejoin="round"/>
<path d="M242.97,217.36 C242.60,217.94 241.79,219.22 241.58,219.77 C240.85,221.78 239.89,228.16 239.46,231.09" fill="none" stroke="rgb(255, 165, 0)" stroke-width="3.57" stroke-opacity="1.00" stroke-linejoin="round"/>
<path d="M223.62,241.54 C223.62,241.54 223.21,240.43 223.21,240.43 C223.21,241.99 223.19,246.36 223.21,247.30 C223.25,250.00 223.49,252.09 223.85,253.68" fill="none" stroke="rgb(255, 165, 0)" stroke-width="3.57" stroke-opacity="1.00" stroke-linejoin="round"/>
<path d="M232.94,243.68 C232.94,243.68 232.31,244.45 232.31,244.45 C232.31,244.45 232.90,254.47 232.90,254.47" fill="none" stroke="rgb(255, 165, 0)" stroke-width="3.57" stroke-opacity="1.00" stroke-linejoin="round"/>
<path d="M232.23,242.09 C231.97,241.06 231.85,240.37 231.88,240.04 C231.90,239.70 232.09,239.24 232.46,238.65 C232.59,238.68 232.70,239.47 232.79,241.36 C232.95,245.31 232.99,250.75 232.83,251.13 C232.72,250.88 232.65,250.72 232.62,250.64 C232.59,250.57 232.56,250.48 232.53,250.37" fill="none" stroke="rgb(255, 165, 0)" stroke-width="3.57" stroke-opacity="1.00" stroke-linejoin="round"/>
<path d="M195.98,268.22 C195.98,268.22 197.46,267.24 197.46,267.24" fill="none" stroke="rgb(255, 165, 0)" stroke-width="3.57" stroke-opacity="1.00" stroke-linejoin="round"/>
<path d="M201.20,262.71 C201.20,262.71 201.73,262.33 201.73,262.33" fill="none" stroke="rgb(255, 165, 0)" stroke-width="3.57" stroke-opacity="1.00" stroke-linejoin="round"/>
<path d="M194.39,266.39 C193.16,267.40 192.44,268.01 192.21,268.20 C192.16,268.25 192.03,268.40 192.09,268.37 C192.09,268.37 230.72,246.99 230.72,246.99 C230.72,246.99 229.95,247.41 229.95,247.41" fill="none" stroke="rgb(255, 165, 0)" stroke-width="3.57" stroke-opacity="1.00" stroke-linejoin="round"/>
<path d="M194.71,266.75 C194.03,266.52 193.46,266.14 193.27,265.70 C193.22,265.60 193.19,265.42 193.17,265.18 C190.73,279.47 186.86,303.83 184.99,321.59 C184.69,324.76 184.07,332.29 183.74,336.64 C183.56,339.55 183.28,344.26 183.17,346.08 C183.17,346.08 183.10,345.19 183.10,345.19" fill="none" stroke="rgb(255, 165, 0)" stroke-width="3.57" stroke-opacity="1.00" stroke-linejoin="round"/>
<path d="M187.37,341.61 C187.37,341.61 186.45,340.72 186.45,340.72 C186.45,340.72 214.67,372.15 214.67,372.15 C214.67,372.15 213.73,371.18 213.73,371.18" fill="none" stroke="rgb(255, 165, 0)" stroke-width="3.57" stroke-opacity="1.00" stroke-linejoin="round"/>
<path d="M193.33,287.44 C193.49,285.71 193.64,284.54 193.75,283.91 C193.92,283.04 194.21,281.95 194.64,280.67 C194.76,280.30 194.94,279.80 195.19,279.16 C195.43,279.63 196.26,294.59 196.73,302.31 C198.03,317.78 200.92,338.22 200.89,338.17 C200.89,338.17 200.64,337.54 200.64,337.54" fill="none" stroke="rgb(255, 165, 0)" stroke-width="3.57" stroke-opacity="1.00" stroke-linejoin="round"/>
<path d="M195.69,332.15 C195.69,332.15 195.39,332.44 195.39,332.44 C197.63,333.84 205.03,347.05 207.71,351.33 C209.33,353.91 211.73,357.00 213.12,358.56 C213.12,358.56 213.05,358.69 213.05,358.69" fill="none" stroke="rgb(255, 165, 0)" stroke-width="3.57" stroke-opacity="1.00" stroke-linejoin="round"/>
<path d="M213.93,360.21 C213.93,360.21 211.58,357.74 211.58,357.74 C211.32,358.54 211.60,363.11 212.76,365.77 C213.38,367.20 214.37,368.18 215.51,368.79 C215.51,368.79 216.75,367.94 216.75,367.94 C217.23,366.58 217.45,364.70 217.08,363.20 C216.71,361.80 215.22,359.39 214.27,358.68 C212.25,357.25 209.10,357.47 208.27,358.29" fill="none" stroke="rgb(255, 165, 0)" stroke-width="3.57" stroke-opacity="1.00" stroke-linejoin="round"/>
<path d="M197.61,287.23 C197.61,287.23 197.25,285.38 197.25,285.38 C200.62,298.19 209.59,328.54 213.99,343.19 C216.55,352.09 217.76,354.60 218.08,354.87 C218.08,354.87 217.96,354.54 217.96,354.54" fill="none" stroke="rgb(255, 165, 0)" stroke-width="3.57" stroke-opacity="1.00" stroke-linejoin="round"/>
<path d="M217.68,354.30 C217.68,354.30 215.79,353.57 215.79,353.57 C226.62,353.90 245.98,349.42 256.20,346.78 C259.71,345.86 266.03,344.18 266.64,344.00 C266.64,344.00 266.38,343.98 266.38,343.98" fill="none" stroke="rgb(255, 165, 0)" stroke-width="3.57" stroke-opacity="1.00" stroke-linejoin="round"/>
<path d="M262.31,294.00 C262.31,294.00 262.78,287.76 262.78,287.76 C262.86,308.45 266.76,343.35 267.10,345.95 C267.10,345.95 267.09,343.94 267.09,343.94" fill="none" stroke="rgb(255, 165, 0)" stroke-width="3.57" stroke-opacity="1.00" stroke-linejoin="round"/>
<path d="M260.07,277.40 C260.07,277.40 260.51,275.89 260.51,275.89 C260.22,276.68 261.48,279.32 262.42,281.75 C263.81,285.27 265.80,288.95 267.18,291.06 C270.26,295.71 274.14,298.50 274.23,298.36 C274.23,298.36 273.54,298.25 273.54,298.25" fill="none" stroke="rgb(255, 165, 0)" stroke-width="3.57" stroke-opacity="1.00" stroke-linejoin="round"/>
<path d="M272.59,299.02 C272.59,299.02 272.31,299.03 272.31,299.03 C272.47,298.37 276.31,292.60 277.72,288.81 C280.44,281.36 280.92,272.75 280.86,270.96 C280.84,270.47 280.77,269.79 280.66,268.94" fill="none" stroke="rgb(255, 165, 0)" stroke-width="3.57" stroke-opacity="1.00" stroke-linejoin="round"/>
<path d="M258.80,252.84 C258.80,252.84 258.45,251.96 258.45,251.96 C259.04,251.70 259.23,251.78 259.42,252.63 C260.24,256.15 270.48,276.41 270.48,276.93 C270.48,276.93 269.92,277.24 269.92,277.24" fill="none" stroke="rgb(255, 165, 0)" stroke-width="3.57" stroke-opacity="1.00" stroke-linejoin="round"/>
<path d="M271.00,285.07 C271.00,285.07 270.19,286.01 270.19,286.01 C270.49,285.06 272.21,280.75 273.23,277.60 C274.36,274.11 276.07,267.62 276.50,265.98" fill="none" stroke="rgb(255, 165, 0)" stroke-width="3.57" stroke-opacity="1.00" stroke-linejoin="round"/>
<path d="M276.43,269.24 C276.43,269.24 275.79,269.28 275.79,269.28 C276.91,269.32 278.38,270.99 279.73,275.35 C279.91,275.94 280.16,276.87 280.49,278.16" fill="none" stroke="rgb(255, 165, 0)" stroke-width="3.57" stroke-opacity="1.00" stroke-linejoin="round"/>
<path d="M275.90,259.37 C275.90,259.37 274.98,259.29 274.98,259.29 C274.52,263.97 276.27,267.22 276.94,267.75 C278.43,266.34 279.17,265.08 279.27,263.46 C279.50,258.67 276.32,258.81 275.87,258.92" fill="none" stroke="rgb(255, 165, 0)" stroke-width="3.57" stroke-opacity="1.00" stroke-linejoin="round"/>
<path d="M236.99,248.17 C236.77,248.21 236.56,248.20 236.36,248.15 C236.16,248.09 234.38,247.39 233.90,247.22 C233.90,247.22 261.05,253.46 261.05,253.46 C261.05,253.46 261.27,254.01 261.27,254.01 C261.27,254.01 260.99,254.39 260.99,254.39" fill="none" stroke="rgb(255, 165, 0)" stroke-width="3.57" stroke-opacity="1.00" stroke-linejoin="round"/>
<path d="M218.59,276.60 C218.36,276.30 218.05,275.59 217.93,275.33 C217.76,274.94 217.45,274.68 216.92,274.40 C219.17,276.00 224.29,283.87 226.36,289.45 C227.00,291.21 227.65,293.99 227.64,294.04 C227.64,294.04 227.60,293.46 227.60,293.46" fill="none" stroke="rgb(255, 165, 0)" stroke-width="3.57" stroke-opacity="1.00" stroke-linejoin="round"/>
<path d="M237.69,268.85 C237.69,268.85 235.75,268.35 235.75,268.35 C234.45,270.77 234.23,275.30 234.19,277.40 C234.16,280.15 234.55,285.25 235.17,290.98 C235.94,297.33 236.98,301.96 237.69,302.35" fill="none" stroke="rgb(255, 165, 0)" stroke-width="3.57" stroke-opacity="1.00" stroke-linejoin="round"/>
<path d="M215.82,298.02 C215.82,298.02 215.04,297.97 215.04,297.97 C216.79,301.22 221.41,319.26 223.16,325.34 C226.68,336.57 229.50,343.62 231.68,346.30 C231.68,346.30 232.17,346.38 232.17,346.38 C232.17,346.38 232.28,345.89 232.28,345.89" fill="none" stroke="rgb(255, 165, 0)" stroke-width="3.57" stroke-opacity="1.00" stroke-linejoin="round"/>
<path d="M224.06,309.57 C224.06,309.57 224.22,307.80 224.22,307.80 C225.33,310.35 229.94,327.20 231.83,334.09 C232.63,336.82 232.62,337.81 232.47,338.04 C232.47,338.04 232.31,338.13 232.31,338.13" fill="none" stroke="rgb(255, 165, 0)" stroke-width="3.57" stroke-opacity="1.00" stroke-linejoin="round"/>
<path d="M220.35,372.18 C220.35,372.18 219.83,372.42 219.83,372.42 C219.65,374.81 219.82,379.46 220.13,383.22 C221.51,399.23 224.04,430.77 225.19,446.31 C227.48,468.58 228.63,473.12 228.81,473.25 C228.81,473.25 228.41,471.08 228.41,471.08" fill="none" stroke="rgb(255, 165, 0)" stroke-width="3.57" stroke-opacity="1.00" stroke-linejoin="round"/>
<path d="M236.50,360.56 C236.50,360.56 236.54,360.15 236.54,360.15 C236.94,360.47 240.46,398.52 241.48,413.28 C242.45,432.07 242.99,468.43 243.13,470.29 C243.13,470.29 243.60,467.61 243.60,467.61" fill="none" stroke="rgb(255, 165, 0)" stroke-width="3.57" stroke-opacity="1.00" stroke-linejoin="round"/>
<path d="M241.52,372.71 C241.52,372.71 242.55,371.98 242.55,371.98 C243.24,373.35 244.08,377.45 244.48,380.01 C245.33,385.88 246.93,400.18 247.46,406.35 C247.91,413.25 248.35,426.65 248.01,432.82 C247.88,435.01 247.78,435.98 247.72,435.86 C247.75,435.55 247.77,435.34 247.79,435.24 C247.80,435.15 247.82,435.03 247.84,434.89" fill="none" stroke="rgb(255, 165, 0)" stroke-width="3.57" stroke-opacity="1.00" stroke-linejoin="round"/>
<path d="M247.15,373.78 C247.15,373.78 246.71,372.86 246.71,372.86 C246.75,380.61 254.11,416.98 257.41,432.99 C260.37,448.38 266.13,478.96 265.97,480.81 C265.97,480.81 264.42,479.44 264.42,479.44" fill="none" stroke="rgb(255, 165, 0)" stroke-width="3.57" stroke-opacity="1.00" stroke-linejoin="round"/>
<path d="M264.90,367.04 C264.90,367.04 264.80,367.27 264.80,367.27 C265.03,365.10 265.53,360.79 265.78,358.66 C265.89,357.67 266.13,355.40 266.25,354.63 C266.33,354.11 266.55,352.83 266.89,350.80 C267.39,354.86 270.04,388.54 272.23,404.98 C273.52,413.73 279.98,450.63 282.94,467.73 C283.51,471.53 284.54,481.29 284.68,482.84 C284.68,482.84 284.07,481.00 284.07,481.00" fill="none" stroke="rgb(255, 165, 0)" stroke-width="3.57" stroke-opacity="1.00" stroke-linejoin="round"/>
</g>
</svg>
