<?xml version="1.0" encoding="UTF-8" standalone="no"?>
<!DOCTYPE svg PUBLIC "-//W3C//DTD SVG 1.1//EN" "http://www.w3.org/Graphics/SVG/1.1/DTD/svg11.dtd">
<svg width="128.40" height="181.68" viewBox="0.00 0.00 535.00 757.00" xmlns="http://www.w3.org/2000/svg" xmlns:xlink="http://www.w3.org/1999/xlink">
<g stroke-linecap="round" transform="translate(44.00, 155.00)" id="63-가방">
<path d="M196.58,211.46 C196.58,211.46 196.35,211.39 196.35,211.39 C196.35,211.39 196.32,210.47 196.32,210.47 C196.32,210.47 195.74,210.19 195.74,210.19 C196.46,208.70 202.29,204.93 204.22,204.37 C205.97,203.90 208.24,203.91 208.96,204.51 C209.74,205.17 210.59,206.32 210.66,206.65" fill="none" stroke="rgb(0, 113, 48)" stroke-width="3.57" stroke-opacity="1.00" stroke-linejoin="round"/>
<path d="M229.74,207.36 C229.74,207.36 228.94,205.54 228.94,205.54 C231.08,204.38 235.75,203.55 238.69,203.94 C241.75,204.40 245.19,205.40 249.15,207.32 C251.50,208.48 253.18,209.67 253.72,210.55 C253.83,210.76 253.93,211.08 253.99,211.51" fill="none" stroke="rgb(0, 113, 48)" stroke-width="3.57" stroke-opacity="1.00" stroke-linejoin="round"/>
<path d="M261.58,224.04 C261.58,224.04 262.92,220.63 262.92,220.63 C263.56,221.27 269.60,239.08 270.80,243.37 C273.62,253.55 276.03,281.23 275.14,283.46 C269.57,283.55 264.74,283.50 263.18,283.32 C263.15,283.31 263.09,283.27 263.12,283.26" fill="none" stroke="rgb(0, 113, 48)" stroke-width="3.57" stroke-opacity="1.00" stroke-linejoin="round"/>
<path d="M240.75,216.46 C240.75,216.46 240.02,216.52 240.02,216.52 C239.51,217.11 239.41,223.09 239.79,225.36 C240.80,231.19 245.97,246.67 248.10,249.09 C248.38,249.40 248.79,249.57 249.32,249.59 C249.32,249.59 253.17,246.70 253.17,246.70 C249.41,238.50 243.19,214.07 244.22,213.35 C244.69,214.70 244.16,215.68 242.58,215.88 C241.80,215.97 240.86,216.41 240.76,216.67" fill="none" stroke="rgb(0, 113, 48)" stroke-width="3.57" stroke-opacity="1.00" stroke-linejoin="round"/>
<path d="M191.83,221.97 C191.83,221.97 191.91,220.37 191.91,220.37 C191.91,220.37 193.03,219.84 193.03,219.84 C193.03,219.84 191.48,218.78 191.48,218.78 C191.27,219.01 191.97,222.95 191.80,225.26 C191.23,232.30 188.38,237.01 187.42,238.21 C187.65,237.78 187.81,237.50 187.89,237.36 C187.97,237.23 188.09,237.05 188.23,236.82" fill="none" stroke="rgb(0, 113, 48)" stroke-width="3.57" stroke-opacity="1.00" stroke-linejoin="round"/>
<path d="M197.30,217.16 C197.46,216.51 197.57,216.05 197.63,215.77 C197.69,215.50 197.79,215.01 197.92,214.33 C198.56,214.85 198.95,220.50 198.82,223.16 C198.63,226.69 197.51,232.77 196.55,236.02 C194.69,242.16 190.36,249.03 189.69,250.07 C189.69,250.07 190.19,249.62 190.19,249.62" fill="none" stroke="rgb(0, 113, 48)" stroke-width="3.57" stroke-opacity="1.00" stroke-linejoin="round"/>
</g>
</svg>
