<?xml version="1.0" encoding="UTF-8" standalone="no"?>
<!DOCTYPE svg PUBLIC "-//W3C//DTD SVG 1.1//EN" "http://www.w3.org/Graphics/SVG/1.1/DTD/svg11.dtd">
<svg width="128.40" height="181.68" viewBox="0.00 0.00 535.00 757.00" xmlns="http://www.w3.org/2000/svg" xmlns:xlink="http://www.w3.org/1999/xlink">
<g stroke-linecap="round" transform="translate(44.00, 155.00)" id="63-비">
<path d="M11.76,122.97 C11.76,122.97 11.14,122.80 11.14,122.80 C10.79,122.45 10.58,122.02 10.51,121.53 C10.45,121.04 10.44,119.79 10.49,117.78 C10.49,117.78 11.34,147.98 11.34,147.98 C11.34,147.98 11.64,146.69 11.64,146.69" fill="none" stroke="rgb(0, 0, 255)" stroke-width="3.57" stroke-opacity="1.00" stroke-linejoin="round"/>
<path d="M62.07,68.39 C62.07,68.39 60.74,67.89 60.74,67.89 C60.74,67.89 60.69,66.50 60.69,66.50 C60.74,69.00 60.33,75.60 60.28,78.71 C60.25,80.53 60.32,81.49 60.49,82.20 C60.49,82.20 60.52,81.69 60.52,81.69" fill="none" stroke="rgb(0, 0, 255)" stroke-width="3.57" stroke-opacity="1.00" stroke-linejoin="round"/>
<path d="M136.16,26.80 C136.16,26.80 135.20,23.61 135.20,23.61 C135.44,26.37 134.57,32.69 134.07,36.42 C133.55,40.12 132.67,46.43 132.15,48.42 C132.15,48.42 131.89,48.62 131.89,48.62 C131.89,48.62 131.54,47.28 131.54,47.28" fill="none" stroke="rgb(0, 0, 255)" stroke-width="3.57" stroke-opacity="1.00" stroke-linejoin="round"/>
<path d="M136.82,138.14 C136.82,138.14 136.76,137.19 136.76,137.19 C136.81,141.04 137.08,147.00 137.25,150.72 C137.42,154.48 137.71,161.10 137.83,163.95 C137.85,164.44 137.86,164.93 137.88,165.42" fill="none" stroke="rgb(0, 0, 255)" stroke-width="3.57" stroke-opacity="1.00" stroke-linejoin="round"/>
<path d="M93.85,198.62 C93.85,198.62 92.31,197.66 92.31,197.66 C92.50,200.10 91.56,212.42 91.25,216.29 C91.15,217.58 90.97,219.95 90.90,221.02" fill="none" stroke="rgb(0, 0, 255)" stroke-width="3.57" stroke-opacity="1.00" stroke-linejoin="round"/>
<path d="M10.25,243.94 C10.25,243.94 10.26,240.15 10.26,240.15 C9.88,247.88 9.13,264.91 9.31,268.33 C9.33,268.68 9.39,269.48 9.49,270.72 C9.49,270.72 9.62,270.76 9.62,270.76 C9.62,270.76 9.60,270.31 9.60,270.31" fill="none" stroke="rgb(0, 0, 255)" stroke-width="3.57" stroke-opacity="1.00" stroke-linejoin="round"/>
<path d="M65.62,310.32 C65.62,310.32 64.42,307.72 64.42,307.72 C66.02,309.15 67.58,315.51 68.27,318.42 C71.38,331.61 71.66,332.63 72.09,333.95 C72.09,333.95 71.75,333.10 71.75,333.10" fill="none" stroke="rgb(0, 0, 255)" stroke-width="3.57" stroke-opacity="1.00" stroke-linejoin="round"/>
<path d="M114.13,302.92 C114.13,302.92 114.07,300.71 114.07,300.71 C114.07,300.71 112.77,332.93 112.77,332.93 C112.77,332.93 112.76,330.99 112.76,330.99" fill="none" stroke="rgb(0, 0, 255)" stroke-width="3.57" stroke-opacity="1.00" stroke-linejoin="round"/>
<path d="M74.71,426.59 C74.89,425.54 75.38,422.66 75.61,421.94 C75.98,420.83 76.51,419.79 76.91,418.69 C77.12,418.09 77.43,417.03 77.86,415.50 C76.57,415.50 75.80,427.53 76.63,435.95 C77.19,441.12 77.78,445.32 78.50,449.55 C78.50,449.55 78.65,449.50 78.65,449.50 C78.65,449.50 78.69,449.32 78.69,449.32" fill="none" stroke="rgb(0, 0, 255)" stroke-width="3.57" stroke-opacity="1.00" stroke-linejoin="round"/>
<path d="M155.30,235.57 C155.30,235.57 155.09,235.47 155.09,235.47 C155.10,234.90 155.79,233.23 156.32,232.01 C156.53,231.42 156.69,230.72 156.80,229.90 C156.93,228.98 156.93,228.02 156.85,227.82 C155.73,230.83 154.14,246.56 154.86,250.25 C155.08,251.36 155.48,252.20 155.81,252.53" fill="none" stroke="rgb(0, 0, 255)" stroke-width="3.57" stroke-opacity="1.00" stroke-linejoin="round"/>
<path d="M316.05,253.99 C316.04,253.22 316.03,251.34 315.92,250.91 C315.78,250.37 315.21,249.04 315.13,248.51 C314.20,250.08 313.84,251.11 313.79,252.77 C313.61,259.18 314.90,274.10 316.00,277.34 C316.00,277.34 315.73,276.66 315.73,276.66" fill="none" stroke="rgb(0, 0, 255)" stroke-width="3.57" stroke-opacity="1.00" stroke-linejoin="round"/>
<path d="M337.95,166.48 C337.64,163.90 337.83,162.25 338.69,161.43 C338.85,161.28 339.15,161.07 339.59,160.80 C339.81,161.37 340.31,178.78 341.24,187.62 C341.28,188.10 341.33,188.98 341.38,190.25 C341.38,190.25 341.03,190.37 341.03,190.37" fill="none" stroke="rgb(0, 0, 255)" stroke-width="3.57" stroke-opacity="1.00" stroke-linejoin="round"/>
<path d="M407.40,160.77 C406.68,158.62 406.51,157.11 407.65,155.31 C408.86,158.36 408.23,187.09 407.56,190.44 C407.56,190.44 407.41,188.77 407.41,188.77" fill="none" stroke="rgb(0, 0, 255)" stroke-width="3.57" stroke-opacity="1.00" stroke-linejoin="round"/>
<path d="M414.39,66.04 C413.67,63.38 413.62,61.58 414.55,59.95 C415.35,58.53 417.02,56.13 418.06,54.76 C419.28,56.80 419.83,58.06 419.98,59.87 C420.30,63.93 421.57,88.67 421.39,89.97 C421.39,89.97 420.26,89.52 420.26,89.52" fill="none" stroke="rgb(0, 0, 255)" stroke-width="3.57" stroke-opacity="1.00" stroke-linejoin="round"/>
<path d="M382.61,257.24 C382.61,256.77 382.61,256.29 382.61,255.82 C382.61,254.15 382.61,250.92 382.61,249.37 C382.61,249.37 382.88,272.35 382.88,272.35 C382.88,272.35 383.51,272.10 383.51,272.10 C383.51,272.10 383.62,271.88 383.62,271.88" fill="none" stroke="rgb(0, 0, 255)" stroke-width="3.57" stroke-opacity="1.00" stroke-linejoin="round"/>
<path d="M447.43,289.13 C447.43,289.13 448.18,284.68 448.18,284.68 C448.95,287.09 448.72,293.60 448.60,297.45 C448.48,300.61 448.27,307.96 448.26,307.85 C448.26,307.85 448.23,307.04 448.23,307.04" fill="none" stroke="rgb(0, 0, 255)" stroke-width="3.57" stroke-opacity="1.00" stroke-linejoin="round"/>
<path d="M349.15,349.20 C349.15,349.20 348.91,343.49 348.91,343.49 C346.31,347.75 348.67,374.05 348.70,374.51 C348.89,377.20 348.90,378.88 348.75,379.11 C348.75,379.11 348.64,378.68 348.64,378.68" fill="none" stroke="rgb(0, 0, 255)" stroke-width="3.57" stroke-opacity="1.00" stroke-linejoin="round"/>
</g>
</svg>
