<?xml version="1.0" encoding="UTF-8" standalone="no"?>
<!DOCTYPE svg PUBLIC "-//W3C//DTD SVG 1.1//EN" "http://www.w3.org/Graphics/SVG/1.1/DTD/svg11.dtd">
<svg width="128.40" height="181.68" viewBox="0.00 0.00 535.00 757.00" xmlns="http://www.w3.org/2000/svg" xmlns:xlink="http://www.w3.org/1999/xlink">
<g stroke-linecap="round" transform="translate(44.00, 155.00)" id="63-우산-1">
<path d="M142.95,365.52 C142.87,365.34 142.94,364.87 143.13,364.62 C143.18,364.55 143.27,364.50 143.40,364.45 C143.70,364.77 154.12,415.40 154.56,418.45 C155.62,426.30 159.22,452.68 159.60,454.55 C159.92,453.93 164.96,425.60 167.90,402.05 C168.74,396.07 175.35,367.39 176.52,360.99 C176.52,360.99 173.85,364.08 173.85,364.08 C173.85,364.08 170.95,361.52 170.95,361.52 C170.95,361.52 167.96,366.25 167.96,366.25 C167.96,366.25 165.93,362.49 165.93,362.49 C165.93,362.49 163.28,365.10 163.28,365.10 C162.70,365.37 161.15,364.33 160.54,363.89 C159.30,363.04 157.82,363.02 156.35,363.82 C154.30,364.90 152.84,365.32 151.71,364.63 C150.62,363.96 148.18,361.85 147.87,361.93 C147.87,361.93 146.53,362.55 146.53,362.55 C146.53,362.55 144.27,360.40 144.27,360.40" fill="none" stroke="rgb(237, 28, 36)" stroke-width="3.57" stroke-opacity="1.00" stroke-linejoin="round"/>
<path d="M160.50,360.28 C160.40,360.36 160.34,360.42 160.32,360.46 C160.31,360.51 160.31,360.59 160.33,360.73 C161.51,361.32 153.07,335.67 153.00,334.80 C152.88,332.94 156.14,330.15 158.27,329.46 C159.02,329.23 160.01,329.65 161.92,330.80 C161.92,330.80 161.08,330.16 161.08,330.16" fill="none" stroke="rgb(237, 28, 36)" stroke-width="3.57" stroke-opacity="1.00" stroke-linejoin="round"/>
<path d="M173.85,342.69 C173.58,342.02 173.44,341.59 173.42,341.38 C173.41,341.18 173.50,340.91 173.69,340.58 C174.68,340.61 175.37,341.05 175.72,342.12 C176.41,344.31 175.84,345.87 175.24,346.58 C175.24,346.58 172.21,346.79 172.21,346.79 C171.56,345.14 171.02,343.52 170.81,343.36 C170.22,342.91 168.46,342.37 167.92,342.35" fill="none" stroke="rgb(237, 28, 36)" stroke-width="3.57" stroke-opacity="1.00" stroke-linejoin="round"/>
<path d="M160.65,340.96 C160.65,340.96 160.25,341.59 160.25,341.59 C160.25,341.59 160.26,341.69 160.26,341.69 C161.38,341.98 162.97,349.33 163.70,359.03 C163.86,361.17 163.90,362.43 163.89,364.27 C163.89,364.27 163.59,364.58 163.59,364.58 C163.59,364.58 163.48,364.27 163.48,364.27" fill="none" stroke="rgb(237, 28, 36)" stroke-width="3.57" stroke-opacity="1.00" stroke-linejoin="round"/>
<path d="M156.25,368.45 C156.22,368.36 156.20,368.29 156.19,368.24 C156.18,368.20 156.17,368.12 156.15,368.01 C156.77,370.35 157.17,371.95 157.35,373.15 C158.00,377.35 161.21,411.28 162.21,417.13 C162.21,417.13 162.07,416.51 162.07,416.51" fill="none" stroke="rgb(237, 28, 36)" stroke-width="3.57" stroke-opacity="1.00" stroke-linejoin="round"/>
<path d="M166.73,365.78 C166.73,365.78 166.73,365.38 166.73,365.38 C166.73,365.38 168.11,408.28 168.11,408.28 C168.11,408.28 168.30,406.06 168.30,406.06" fill="none" stroke="rgb(237, 28, 36)" stroke-width="3.57" stroke-opacity="1.00" stroke-linejoin="round"/>
</g>
</svg>
