<?xml version="1.0" encoding="UTF-8" standalone="no"?>
<!DOCTYPE svg PUBLIC "-//W3C//DTD SVG 1.1//EN" "http://www.w3.org/Graphics/SVG/1.1/DTD/svg11.dtd">
<svg width="128.40" height="181.68" viewBox="0.00 0.00 535.00 757.00" xmlns="http://www.w3.org/2000/svg" xmlns:xlink="http://www.w3.org/1999/xlink">
<g stroke-linecap="round" transform="translate(44.00, 155.00)" id="63-우산-2">
<path d="M255.60,16.63 C255.71,15.96 255.84,15.49 256.00,15.22 C256.38,14.59 258.31,13.19 258.61,12.81 C258.97,12.37 259.06,11.50 258.93,11.11 C259.09,10.75 242.94,11.91 236.24,13.84 C232.74,14.87 213.40,22.23 208.65,25.41 C203.27,29.08 192.23,40.75 188.08,46.57 C184.43,51.74 178.31,64.14 175.17,70.56 C172.19,76.93 165.28,91.69 163.60,96.71 C158.46,112.19 158.79,122.70 158.94,123.58 C158.94,123.58 160.10,123.52 160.10,123.52" fill="none" stroke="rgb(237, 28, 36)" stroke-width="3.57" stroke-opacity="1.00" stroke-linejoin="round"/>
<path d="M271.09,14.86 C271.09,14.86 270.39,12.97 270.39,12.97 C270.39,12.97 267.95,12.32 267.95,12.32 C278.58,11.50 283.01,11.45 291.04,12.82 C297.15,13.87 310.02,17.28 313.46,19.24 C317.78,21.73 330.38,31.57 344.45,44.69 C346.90,47.04 351.93,51.93 353.17,53.59 C353.52,54.06 356.60,59.85 357.88,62.26 C360.57,67.35 365.76,85.57 366.60,87.95 C367.96,91.82 369.97,110.36 369.96,113.34 C369.92,117.16 369.48,120.87 368.74,122.47 C368.74,122.47 368.76,122.16 368.76,122.16" fill="none" stroke="rgb(237, 28, 36)" stroke-width="3.57" stroke-opacity="1.00" stroke-linejoin="round"/>
<path d="M159.90,123.90 C159.88,123.60 159.86,123.35 159.83,123.14 C159.75,122.24 159.86,121.03 160.27,120.37 C161.57,118.38 176.84,108.17 179.70,106.12 C185.44,101.99 198.88,90.44 199.92,89.85 C201.07,89.27 203.98,89.39 205.54,90.27 C207.36,91.34 211.34,97.71 213.46,100.82 C226.44,119.93 229.19,121.48 229.94,121.61 C231.25,121.29 233.61,118.38 236.79,114.24 C240.76,109.00 250.58,94.10 251.62,92.85 C252.51,91.78 253.23,91.34 254.00,91.27 C254.00,91.27 254.06,91.72 254.06,91.72" fill="none" stroke="rgb(237, 28, 36)" stroke-width="3.57" stroke-opacity="1.00" stroke-linejoin="round"/>
<path d="M253.70,94.67 C253.40,94.30 253.21,93.99 253.12,93.73 C253.02,93.47 252.91,92.90 252.76,92.01 C253.53,91.53 255.06,92.03 256.91,93.56 C257.56,94.09 264.55,101.54 265.17,102.13 C266.77,103.69 267.79,104.36 268.20,104.23 C269.08,104.10 271.82,98.37 272.85,94.20 C273.56,91.21 274.81,82.42 275.23,81.01 C275.23,81.01 275.59,80.90 275.59,80.90 C275.59,80.90 275.64,81.10 275.64,81.10" fill="none" stroke="rgb(237, 28, 36)" stroke-width="3.57" stroke-opacity="1.00" stroke-linejoin="round"/>
<path d="M279.55,92.69 C279.55,92.69 281.25,90.47 281.25,90.47 C281.25,90.47 280.51,89.94 280.51,89.94" fill="none" stroke="rgb(237, 28, 36)" stroke-width="3.57" stroke-opacity="1.00" stroke-linejoin="round"/>
<path d="M279.19,87.71 C278.92,87.54 278.73,87.38 278.61,87.24 C278.49,87.10 278.28,86.78 277.97,86.29 C277.97,86.29 279.23,84.11 279.23,84.11 C279.87,84.17 280.34,85.01 281.41,88.25 C284.65,97.90 296.58,117.23 297.75,118.34 C298.50,118.33 299.11,110.67 299.60,108.32 C299.84,107.18 301.97,99.31 302.72,96.58 C302.72,96.58 301.78,97.99 301.78,97.99" fill="none" stroke="rgb(237, 28, 36)" stroke-width="3.57" stroke-opacity="1.00" stroke-linejoin="round"/>
<path d="M304.69,95.31 C304.69,95.31 304.05,95.24 304.05,95.24 C304.05,95.24 303.27,96.39 303.27,96.39 C304.43,97.68 314.18,107.01 318.70,112.64 C321.74,116.43 327.21,124.83 327.86,125.29 C332.33,114.77 344.46,100.22 345.62,98.65 C345.62,98.65 345.14,98.14 345.14,98.14 C345.14,98.14 344.27,98.27 344.27,98.27" fill="none" stroke="rgb(237, 28, 36)" stroke-width="3.57" stroke-opacity="1.00" stroke-linejoin="round"/>
<path d="M347.95,103.06 C347.95,103.06 347.40,103.11 347.40,103.11 C348.76,102.94 350.28,103.51 351.78,104.92 C354.05,107.06 367.26,129.67 369.43,132.68 C369.43,132.68 369.32,132.42 369.32,132.42" fill="none" stroke="rgb(237, 28, 36)" stroke-width="3.57" stroke-opacity="1.00" stroke-linejoin="round"/>
<path d="M255.51,9.94 C255.51,9.94 255.44,9.94 255.44,9.94 C255.44,9.94 257.04,9.67 257.04,9.67 C257.32,9.23 260.06,2.56 261.74,1.47 C262.61,0.95 264.13,0.58 264.86,0.78 C266.48,1.28 268.56,5.63 268.80,8.41 C268.87,9.50 268.60,11.25 268.28,11.92 C267.85,12.68 261.58,14.73 260.28,14.79 C258.63,14.84 257.01,14.30 256.08,13.50 C256.06,13.49 256.02,13.44 256.04,13.45" fill="none" stroke="rgb(237, 28, 36)" stroke-width="3.57" stroke-opacity="1.00" stroke-linejoin="round"/>
<path d="M247.66,30.32 C247.62,30.18 247.58,30.05 247.56,29.93 C247.53,29.81 247.48,29.53 247.39,29.09 C247.39,29.09 246.92,28.87 246.92,28.87 C244.55,30.50 239.27,38.14 235.82,44.88 C232.75,50.95 227.57,64.72 226.01,70.60 C224.77,75.34 224.18,79.63 224.14,82.39 C224.14,82.39 223.88,80.75 223.88,80.75" fill="none" stroke="rgb(237, 28, 36)" stroke-width="3.57" stroke-opacity="1.00" stroke-linejoin="round"/>
<path d="M273.27,31.31 C273.27,31.31 273.86,29.73 273.86,29.73 C273.72,29.65 271.00,46.76 269.74,54.75 C268.91,60.60 267.70,75.04 267.73,78.06 C267.73,78.06 268.28,76.62 268.28,76.62" fill="none" stroke="rgb(237, 28, 36)" stroke-width="3.57" stroke-opacity="1.00" stroke-linejoin="round"/>
<path d="M297.67,42.05 C297.75,41.49 297.82,41.30 298.11,40.83 C298.45,40.25 298.14,38.94 297.91,38.52 C297.61,40.16 299.75,44.58 301.87,47.94 C310.73,61.81 316.76,71.77 318.49,76.50 C319.73,79.96 320.43,83.19 320.76,86.04 C320.76,86.04 320.72,85.93 320.72,85.93" fill="none" stroke="rgb(237, 28, 36)" stroke-width="3.57" stroke-opacity="1.00" stroke-linejoin="round"/>
<path d="M273.37,95.83 C273.37,95.83 273.74,93.77 273.74,93.77" fill="none" stroke="rgb(237, 28, 36)" stroke-width="3.57" stroke-opacity="1.00" stroke-linejoin="round"/>
<path d="M273.84,90.18 C273.84,90.18 272.59,89.41 272.59,89.41 C272.59,89.41 272.39,88.55 272.39,88.55 C272.39,88.55 272.88,88.16 272.88,88.16 C273.15,88.88 272.36,102.36 272.85,110.41 C273.14,114.46 273.62,121.08 274.02,125.11 C274.17,125.09 275.88,125.03 277.07,127.16 C277.60,128.13 279.45,134.04 279.74,135.97 C280.13,138.69 279.67,141.33 278.22,142.25 C277.12,142.88 271.06,143.12 268.98,142.25 C266.29,141.06 265.63,139.30 265.60,138.33 C265.60,138.33 265.69,138.36 265.69,138.36" fill="none" stroke="rgb(237, 28, 36)" stroke-width="3.57" stroke-opacity="1.00" stroke-linejoin="round"/>
<path d="M279.24,92.79 C279.24,92.79 278.03,92.44 278.03,92.44 C278.12,91.32 278.17,90.58 278.19,90.21 C278.21,89.84 278.22,89.33 278.22,88.67 C278.22,88.67 277.85,88.19 277.85,88.19 C276.94,89.48 277.61,107.14 277.94,115.29 C278.20,120.69 278.34,121.73 278.73,123.64 C278.73,123.64 279.98,122.60 279.98,122.60 C281.00,123.25 284.66,128.60 285.30,130.22 C285.85,131.70 286.46,135.80 286.35,138.23 C286.16,141.14 284.19,144.48 282.01,145.61 C281.87,145.67 281.75,145.69 281.65,145.65 C281.65,145.65 281.92,144.99 281.92,144.99" fill="none" stroke="rgb(237, 28, 36)" stroke-width="3.57" stroke-opacity="1.00" stroke-linejoin="round"/>
<path d="M264.05,138.67 C264.25,138.01 264.46,137.34 264.66,136.68 C264.73,136.45 264.77,136.32 264.77,136.31 C264.47,136.13 262.35,137.22 261.40,138.68 C260.26,140.48 260.71,142.83 261.70,143.64 C262.54,144.31 265.07,145.68 265.45,146.04 C265.55,146.14 265.63,146.34 265.66,146.62" fill="none" stroke="rgb(237, 28, 36)" stroke-width="3.57" stroke-opacity="1.00" stroke-linejoin="round"/>
</g>
</svg>
