<?xml version="1.0" encoding="UTF-8" standalone="no"?>
<!DOCTYPE svg PUBLIC "-//W3C//DTD SVG 1.1//EN" "http://www.w3.org/Graphics/SVG/1.1/DTD/svg11.dtd">
<svg width="128.40" height="181.68" viewBox="0.00 0.00 535.00 757.00" xmlns="http://www.w3.org/2000/svg" xmlns:xlink="http://www.w3.org/1999/xlink">
<g stroke-linecap="round" transform="translate(44.00, 155.00)" id="64-개집">
<path d="M346.27,264.58 C346.27,264.58 346.07,263.48 346.07,263.48" fill="none" stroke="rgb(219, 153, 255)" stroke-width="3.57" stroke-opacity="1.00" stroke-linejoin="round"/>
<path d="M352.50,257.27 C352.94,256.48 353.56,255.55 353.95,255.22 C354.31,254.93 354.96,254.70 355.11,254.72 C349.67,260.37 335.28,275.34 332.79,278.13 C331.31,279.80 328.44,284.96 328.67,285.39 C328.97,285.53 336.19,285.08 336.93,285.06 C338.97,285.01 340.27,285.11 340.56,285.28 C340.56,285.28 340.10,285.44 340.10,285.44" fill="none" stroke="rgb(219, 153, 255)" stroke-width="3.57" stroke-opacity="1.00" stroke-linejoin="round"/>
<path d="M357.48,255.12 C357.48,255.12 354.28,254.32 354.28,254.32 C354.48,254.86 394.05,253.31 410.90,251.79 C431.09,249.79 440.30,248.10 441.08,248.05 C441.08,248.05 440.87,249.07 440.87,249.07" fill="none" stroke="rgb(219, 153, 255)" stroke-width="3.57" stroke-opacity="1.00" stroke-linejoin="round"/>
<path d="M344.03,299.52 C344.01,299.40 343.96,299.08 343.98,298.96 C344.00,298.88 344.06,298.69 344.17,298.40 C344.69,298.38 344.98,298.83 345.18,300.26 C346.11,307.55 348.00,323.23 348.84,332.18 C349.66,343.06 351.14,351.05 352.25,350.53 C352.25,350.53 352.50,349.49 352.50,349.49" fill="none" stroke="rgb(219, 153, 255)" stroke-width="3.57" stroke-opacity="1.00" stroke-linejoin="round"/>
<path d="M352.10,350.51 C352.10,350.51 351.84,349.25 351.84,349.25 C351.57,349.20 388.06,344.59 404.50,343.08 C427.45,341.07 436.29,339.95 438.68,340.73 C439.05,340.86 439.41,341.09 439.76,341.43" fill="none" stroke="rgb(219, 153, 255)" stroke-width="3.57" stroke-opacity="1.00" stroke-linejoin="round"/>
<path d="M386.99,330.33 C386.99,330.33 387.82,325.49 387.82,325.49 C388.47,326.24 389.40,334.88 389.62,336.65 C390.46,343.27 391.29,344.12 391.53,344.22 C391.53,344.22 391.83,342.34 391.83,342.34" fill="none" stroke="rgb(219, 153, 255)" stroke-width="3.57" stroke-opacity="1.00" stroke-linejoin="round"/>
<path d="M395.47,283.82 C395.22,283.66 395.06,283.54 394.97,283.45 C394.48,282.91 394.27,281.93 394.30,281.77 C395.23,280.20 409.39,277.97 414.67,278.39 C416.96,278.58 421.71,279.88 423.79,281.27 C427.11,283.53 431.13,290.43 431.58,291.83 C431.58,291.83 430.36,294.16 430.36,294.16" fill="none" stroke="rgb(219, 153, 255)" stroke-width="3.57" stroke-opacity="1.00" stroke-linejoin="round"/>
<path d="M435.02,304.85 C435.02,304.85 434.80,304.82 434.80,304.82 C434.80,304.82 434.63,304.20 434.63,304.20 C436.04,306.11 436.63,310.26 437.03,313.96 C437.73,321.41 437.98,335.95 437.33,339.20 C437.33,339.20 436.82,337.54 436.82,337.54" fill="none" stroke="rgb(219, 153, 255)" stroke-width="3.57" stroke-opacity="1.00" stroke-linejoin="round"/>
</g>
</svg>
