<?xml version="1.0" encoding="UTF-8" standalone="no"?>
<!DOCTYPE svg PUBLIC "-//W3C//DTD SVG 1.1//EN" "http://www.w3.org/Graphics/SVG/1.1/DTD/svg11.dtd">
<svg width="128.40" height="181.68" viewBox="0.00 0.00 535.00 757.00" xmlns="http://www.w3.org/2000/svg" xmlns:xlink="http://www.w3.org/1999/xlink">
<g stroke-linecap="round" transform="translate(44.00, 155.00)" id="64-사람">
<path d="M174.99,233.93 C175.16,233.58 175.27,233.32 175.34,233.16 C175.50,232.80 176.14,231.28 176.21,231.15 C176.26,231.05 176.33,230.97 176.42,230.91 C176.33,231.23 174.83,235.11 174.69,238.41 C174.54,242.73 177.10,252.98 179.16,258.30 C180.25,261.06 182.96,266.01 185.69,267.99 C189.94,270.91 193.94,272.87 196.59,272.38 C199.52,271.78 205.67,269.00 207.24,267.73 C210.23,265.25 216.57,254.50 218.06,250.68 C219.97,245.72 220.69,241.90 220.55,241.88 C220.55,241.88 219.82,242.58 219.82,242.58" fill="none" stroke="rgb(255, 165, 0)" stroke-width="3.57" stroke-opacity="1.00" stroke-linejoin="round"/>
<path d="M179.31,245.99 C178.98,246.06 178.73,246.12 178.56,246.16 C178.39,246.20 178.06,246.29 177.58,246.41 C177.58,246.41 190.86,240.30 190.86,240.30 C190.86,240.30 191.06,240.42 191.06,240.42 C191.06,240.42 190.41,240.73 190.41,240.73" fill="none" stroke="rgb(255, 165, 0)" stroke-width="3.57" stroke-opacity="1.00" stroke-linejoin="round"/>
<path d="M205.10,242.77 C205.10,242.77 202.99,242.47 202.99,242.47 C201.77,241.33 220.07,241.34 222.08,242.10 C222.22,242.15 222.38,242.25 222.59,242.38 C222.59,242.38 222.43,242.92 222.43,242.92" fill="none" stroke="rgb(255, 165, 0)" stroke-width="3.57" stroke-opacity="1.00" stroke-linejoin="round"/>
<path d="M184.01,248.75 C184.01,248.75 183.42,247.83 183.42,247.83 C183.42,247.83 183.87,251.91 183.87,251.91" fill="none" stroke="rgb(255, 165, 0)" stroke-width="3.57" stroke-opacity="1.00" stroke-linejoin="round"/>
<path d="M209.22,246.10 C209.22,246.10 208.33,245.66 208.33,245.66 C208.55,248.14 208.65,249.65 208.71,251.18 C208.73,251.77 208.76,252.35 208.78,252.93" fill="none" stroke="rgb(255, 165, 0)" stroke-width="3.57" stroke-opacity="1.00" stroke-linejoin="round"/>
<path d="M191.98,260.92 C191.98,260.92 191.51,261.13 191.51,261.13 C192.14,261.48 196.43,266.35 196.83,266.78 C198.33,268.38 199.26,269.17 199.57,269.15 C199.57,269.15 201.80,259.83 201.80,259.83 C201.58,259.86 200.14,261.26 196.23,261.60 C194.29,261.73 191.68,261.91 191.03,262.01 C191.03,262.01 190.99,262.12 190.99,262.12 C190.99,262.12 191.51,262.28 191.51,262.28" fill="none" stroke="rgb(255, 165, 0)" stroke-width="3.57" stroke-opacity="1.00" stroke-linejoin="round"/>
<path d="M184.74,269.61 C184.94,269.30 185.09,269.10 185.17,268.99 C185.26,268.89 185.40,268.76 185.59,268.58 C185.59,268.58 185.72,268.59 185.72,268.59 C182.91,270.82 174.06,282.03 170.71,287.84 C168.59,291.55 164.90,300.84 164.26,305.78 C163.96,308.20 164.01,315.96 164.23,317.22 C164.55,319.01 165.24,319.66 165.69,319.84 C165.69,319.84 166.69,318.69 166.69,318.69 C166.69,318.69 166.56,318.37 166.56,318.37" fill="none" stroke="rgb(255, 165, 0)" stroke-width="3.57" stroke-opacity="1.00" stroke-linejoin="round"/>
<path d="M176.26,292.36 C176.29,291.91 176.43,291.13 176.45,290.83 C176.50,290.23 176.44,289.61 176.35,289.50 C175.07,290.65 174.70,301.18 175.00,303.95 C175.15,305.24 175.67,308.44 175.64,308.83 C175.64,308.83 175.40,308.83 175.40,308.83" fill="none" stroke="rgb(255, 165, 0)" stroke-width="3.57" stroke-opacity="1.00" stroke-linejoin="round"/>
<path d="M162.14,321.84 C162.14,321.84 161.80,321.66 161.80,321.66 C162.52,320.07 167.01,316.68 169.11,315.07 C171.30,313.41 176.80,309.42 178.66,308.27 C179.35,307.84 179.90,307.64 180.05,307.64 C180.00,307.70 179.96,307.73 179.92,307.75 C179.89,307.77 179.82,307.78 179.70,307.80" fill="none" stroke="rgb(255, 165, 0)" stroke-width="3.57" stroke-opacity="1.00" stroke-linejoin="round"/>
<path d="M216.72,272.51 C216.62,272.31 216.48,271.99 216.45,271.79 C216.44,271.67 216.43,271.41 216.43,271.00 C217.36,272.02 227.52,278.11 232.26,284.87 C233.90,287.26 237.02,296.39 237.46,299.50 C237.90,302.77 237.80,310.04 236.49,312.69 C235.06,315.49 231.79,319.37 228.15,323.35 C228.15,323.35 228.03,322.99 228.03,322.99" fill="none" stroke="rgb(255, 165, 0)" stroke-width="3.57" stroke-opacity="1.00" stroke-linejoin="round"/>
<path d="M219.73,311.19 C220.04,310.67 220.23,310.36 220.29,310.27 C220.35,310.17 220.39,310.15 220.38,310.21 C220.38,310.21 220.41,309.96 220.41,309.96 C220.41,309.96 220.12,309.79 220.12,309.79 C218.06,310.37 213.22,311.44 212.25,312.54 C211.27,313.74 210.18,317.20 210.24,318.87 C210.35,320.76 211.95,322.96 213.57,323.52 C215.43,324.12 218.63,324.47 220.29,324.13 C221.77,323.81 225.35,321.88 225.69,321.80 C225.69,321.80 225.71,322.16 225.71,322.16" fill="none" stroke="rgb(255, 165, 0)" stroke-width="3.57" stroke-opacity="1.00" stroke-linejoin="round"/>
<path d="M220.85,312.17 C220.85,312.17 220.58,311.60 220.58,311.60 C220.58,311.60 221.30,310.55 221.30,310.55 C221.30,310.55 226.58,322.93 226.58,322.93 C226.58,322.93 226.46,323.18 226.46,323.18 C226.46,323.18 225.91,323.31 225.91,323.31" fill="none" stroke="rgb(255, 165, 0)" stroke-width="3.57" stroke-opacity="1.00" stroke-linejoin="round"/>
<path d="M231.18,323.15 C231.18,323.15 231.18,322.32 231.18,322.32 C231.18,322.32 232.21,322.58 232.21,322.58 C232.75,323.26 233.41,332.71 233.49,342.89 C233.46,353.03 232.75,355.47 232.48,356.09 C232.48,356.09 231.99,354.73 231.99,354.73" fill="none" stroke="rgb(255, 165, 0)" stroke-width="3.57" stroke-opacity="1.00" stroke-linejoin="round"/>
<path d="M194.70,284.43 C194.64,284.46 194.60,284.47 194.57,284.48 C194.54,284.48 194.50,284.48 194.43,284.48 C194.43,284.48 195.30,282.77 195.30,282.77 C195.27,282.69 194.21,284.41 194.28,302.23 C194.44,309.47 194.88,323.93 195.15,331.13 C195.65,341.63 196.58,351.64 197.79,357.33 C197.79,357.33 197.71,356.99 197.71,356.99" fill="none" stroke="rgb(255, 165, 0)" stroke-width="3.57" stroke-opacity="1.00" stroke-linejoin="round"/>
<path d="M200.97,358.21 C200.97,358.21 199.62,358.12 199.62,358.12 C199.74,357.73 208.33,356.05 220.18,354.22 C230.56,352.68 235.06,352.90 235.54,353.11 C235.54,353.11 234.50,353.98 234.50,353.98" fill="none" stroke="rgb(255, 165, 0)" stroke-width="3.57" stroke-opacity="1.00" stroke-linejoin="round"/>
<path d="M164.71,322.16 C164.72,321.97 164.72,321.82 164.71,321.71 C164.70,321.59 164.66,321.34 164.59,320.96 C164.72,321.35 163.17,333.44 163.11,340.33 C163.15,347.71 163.37,358.71 163.69,361.21 C163.69,361.21 164.19,360.86 164.19,360.86" fill="none" stroke="rgb(255, 165, 0)" stroke-width="3.57" stroke-opacity="1.00" stroke-linejoin="round"/>
<path d="M166.99,360.63 C166.99,360.63 164.88,359.76 164.88,359.76 C175.02,357.78 184.87,356.33 187.68,356.24 C194.93,356.07 197.78,357.77 198.70,358.42 C198.70,358.42 198.08,357.97 198.08,357.97" fill="none" stroke="rgb(255, 165, 0)" stroke-width="3.57" stroke-opacity="1.00" stroke-linejoin="round"/>
<path d="M189.26,274.81 C189.26,274.81 188.15,274.65 188.15,274.65 C188.16,274.54 190.59,273.31 192.28,275.74 C194.47,278.95 195.61,283.03 195.82,284.24 C195.88,284.21 196.50,281.99 199.40,277.45 C202.21,273.09 204.20,270.62 204.68,270.52 C204.68,270.52 204.64,270.87 204.64,270.87" fill="none" stroke="rgb(255, 165, 0)" stroke-width="3.57" stroke-opacity="1.00" stroke-linejoin="round"/>
<path d="M175.03,362.79 C174.92,362.39 174.84,362.10 174.80,361.93 C174.70,361.49 174.63,361.09 174.59,360.73 C174.56,360.51 174.53,360.10 174.49,359.49 C174.74,360.43 175.01,365.44 175.18,368.22 C175.40,371.42 175.78,373.34 175.86,373.28 C175.86,373.28 175.97,373.04 175.97,373.04" fill="none" stroke="rgb(255, 165, 0)" stroke-width="3.57" stroke-opacity="1.00" stroke-linejoin="round"/>
<path d="M189.88,359.71 C189.88,359.71 189.09,358.70 189.09,358.70 C188.53,360.45 189.27,366.55 189.94,368.71 C190.27,369.77 190.63,370.46 190.95,370.82" fill="none" stroke="rgb(255, 165, 0)" stroke-width="3.57" stroke-opacity="1.00" stroke-linejoin="round"/>
<path d="M204.26,359.13 C204.26,359.13 203.22,359.31 203.22,359.31 C202.87,360.30 202.80,366.61 202.90,368.54 C203.02,370.70 203.39,372.80 203.49,372.94" fill="none" stroke="rgb(255, 165, 0)" stroke-width="3.57" stroke-opacity="1.00" stroke-linejoin="round"/>
<path d="M214.76,358.16 C214.76,358.16 214.49,356.26 214.49,356.26 C214.42,360.02 214.28,368.19 214.38,369.41 C214.40,369.65 214.44,369.93 214.52,370.26" fill="none" stroke="rgb(255, 165, 0)" stroke-width="3.57" stroke-opacity="1.00" stroke-linejoin="round"/>
<path d="M174.23,377.17 C174.23,377.17 172.55,376.58 172.55,376.58 C172.55,376.58 189.08,373.18 189.08,373.18 C189.08,373.18 188.83,374.03 188.83,374.03" fill="none" stroke="rgb(255, 165, 0)" stroke-width="3.57" stroke-opacity="1.00" stroke-linejoin="round"/>
<path d="M173.18,376.99 C173.18,376.99 172.97,376.61 172.97,376.61 C172.97,376.61 172.78,390.96 172.78,390.96 C172.78,390.96 172.67,390.31 172.67,390.31" fill="none" stroke="rgb(255, 165, 0)" stroke-width="3.57" stroke-opacity="1.00" stroke-linejoin="round"/>
<path d="M171.29,390.72 C171.00,390.80 170.76,390.87 170.57,390.91 C169.18,391.32 164.98,394.78 163.55,397.29 C162.20,399.77 160.88,403.69 161.09,405.15 C161.37,406.75 164.17,409.18 166.50,409.54 C168.77,409.85 173.61,409.10 177.12,408.05 C180.34,407.08 187.55,404.84 189.42,403.85 C190.20,403.42 193.37,401.16 193.81,400.52 C195.03,398.59 194.12,382.00 192.97,377.73 C192.66,376.59 192.28,375.57 191.78,374.39 C191.78,374.39 192.05,375.33 192.05,375.33" fill="none" stroke="rgb(255, 165, 0)" stroke-width="3.57" stroke-opacity="1.00" stroke-linejoin="round"/>
<path d="M203.97,374.49 C203.97,374.32 203.96,374.18 203.92,374.08 C203.88,373.98 203.77,373.77 203.59,373.44 C203.59,373.44 203.38,373.50 203.38,373.50 C202.07,386.79 205.55,397.97 206.00,398.90 C206.00,398.90 206.36,398.26 206.36,398.26" fill="none" stroke="rgb(255, 165, 0)" stroke-width="3.57" stroke-opacity="1.00" stroke-linejoin="round"/>
<path d="M202.05,373.04 C202.05,373.04 200.75,372.94 200.75,372.94 C203.78,371.49 217.66,369.94 219.50,369.74 C219.53,369.74 219.63,369.74 219.60,369.75 C219.60,369.75 219.48,369.87 219.48,369.87" fill="none" stroke="rgb(255, 165, 0)" stroke-width="3.57" stroke-opacity="1.00" stroke-linejoin="round"/>
<path d="M217.08,372.39 C217.08,372.39 216.23,372.09 216.23,372.09 C216.13,375.82 215.86,385.86 215.86,386.44 C215.86,386.76 215.87,386.93 215.91,386.95 C215.91,386.95 215.96,386.77 215.96,386.77" fill="none" stroke="rgb(255, 165, 0)" stroke-width="3.57" stroke-opacity="1.00" stroke-linejoin="round"/>
<path d="M216.25,387.57 C216.25,387.57 215.81,386.59 215.81,386.59 C217.59,385.74 224.89,385.57 225.94,385.58 C229.17,385.63 234.98,386.58 236.47,387.47 C238.08,388.48 238.45,391.60 237.46,393.31 C236.45,394.95 232.57,398.00 230.58,398.80 C228.35,399.66 223.24,400.42 219.47,400.51 C207.17,400.77 203.42,401.17 202.42,402.41 C202.42,402.41 202.46,402.78 202.46,402.78 C202.46,402.78 202.60,402.84 202.60,402.84" fill="none" stroke="rgb(255, 165, 0)" stroke-width="3.57" stroke-opacity="1.00" stroke-linejoin="round"/>
<path d="M181.44,205.77 C181.31,205.77 181.22,205.77 181.18,205.77 C181.13,205.76 181.07,205.74 180.98,205.71 C180.98,205.71 180.99,205.35 180.99,205.35 C179.55,205.35 171.76,213.46 168.72,218.04 C166.35,221.65 163.62,226.91 162.73,229.38 C161.32,233.46 160.28,242.00 160.55,246.59 C161.07,254.33 164.09,268.03 166.10,271.62 C166.97,273.15 168.16,274.80 168.43,274.96 C168.43,274.96 169.41,273.55 169.41,273.55" fill="none" stroke="rgb(255, 165, 0)" stroke-width="3.57" stroke-opacity="1.00" stroke-linejoin="round"/>
<path d="M179.41,211.68 C179.45,211.49 179.50,211.33 179.56,211.20 C179.62,211.08 179.79,210.82 180.06,210.41 C180.06,210.41 179.96,210.34 179.96,210.34 C178.63,211.33 175.03,214.85 174.04,216.18 C172.89,217.74 170.26,222.90 169.08,226.33 C167.89,229.88 166.04,237.79 165.51,241.55 C164.42,249.58 165.69,256.04 166.61,256.61 C166.61,256.61 166.91,256.60 166.91,256.60 C166.91,256.60 166.95,256.32 166.95,256.32" fill="none" stroke="rgb(255, 165, 0)" stroke-width="3.57" stroke-opacity="1.00" stroke-linejoin="round"/>
<path d="M179.77,216.57 C178.93,216.43 178.61,216.43 178.22,216.61 C177.10,217.22 173.62,221.90 172.41,224.63 C170.07,230.12 167.02,244.86 166.74,252.18 C166.63,255.94 167.09,261.51 168.00,262.97 C168.00,262.97 169.41,260.85 169.41,260.85" fill="none" stroke="rgb(255, 165, 0)" stroke-width="3.57" stroke-opacity="1.00" stroke-linejoin="round"/>
<path d="M181.36,215.81 C179.68,216.42 178.46,216.98 177.96,217.76 C175.27,221.97 171.62,235.16 171.08,240.72 C170.59,245.90 170.88,255.84 171.85,259.42 C172.66,262.35 173.45,263.27 173.78,263.46 C173.78,263.46 174.36,263.27 174.36,263.27 C174.36,263.27 174.42,262.81 174.42,262.81" fill="none" stroke="rgb(255, 165, 0)" stroke-width="3.57" stroke-opacity="1.00" stroke-linejoin="round"/>
<path d="M180.21,221.67 C180.21,221.67 178.09,219.61 178.09,219.61 C177.02,220.10 174.40,224.33 173.37,227.17 C171.63,232.03 169.73,244.46 169.92,252.25 C169.98,254.52 170.78,259.97 171.56,262.54 C172.26,264.80 174.93,269.49 176.39,269.88 C176.64,269.94 177.09,269.95 177.74,269.90 C177.72,269.88 177.70,269.86 177.69,269.85 C177.64,269.76 177.60,269.65 177.57,269.51 C177.48,269.08 177.38,267.91 177.28,266.26" fill="none" stroke="rgb(255, 165, 0)" stroke-width="3.57" stroke-opacity="1.00" stroke-linejoin="round"/>
<path d="M166.15,252.17 C166.15,252.17 165.70,252.28 165.70,252.28 C165.04,253.43 165.56,257.52 166.45,261.45 C167.45,265.76 169.74,271.06 171.23,272.37 C172.24,273.21 173.75,272.95 174.18,272.68" fill="none" stroke="rgb(255, 165, 0)" stroke-width="3.57" stroke-opacity="1.00" stroke-linejoin="round"/>
<path d="M166.69,262.24 C166.69,262.22 167.65,267.31 168.93,269.76 C171.51,274.57 175.54,274.04 175.85,273.91" fill="none" stroke="rgb(255, 165, 0)" stroke-width="3.57" stroke-opacity="1.00" stroke-linejoin="round"/>
<path d="M183.92,215.08 C183.92,215.08 183.65,214.15 183.65,214.15 C183.29,214.30 181.02,218.49 181.13,225.58 C181.25,230.78 183.23,235.72 184.09,236.26 C184.09,236.26 185.18,235.36 185.18,235.36" fill="none" stroke="rgb(255, 165, 0)" stroke-width="3.57" stroke-opacity="1.00" stroke-linejoin="round"/>
<path d="M188.08,215.99 C188.08,215.99 186.72,215.05 186.72,215.05 C185.59,216.54 185.44,222.30 185.57,224.67 C186.08,232.05 188.73,234.48 189.41,234.69 C189.41,234.69 189.99,234.18 189.99,234.18" fill="none" stroke="rgb(255, 165, 0)" stroke-width="3.57" stroke-opacity="1.00" stroke-linejoin="round"/>
<path d="M194.27,216.39 C194.27,216.39 193.16,216.50 193.16,216.50 C192.08,217.63 191.58,222.14 192.03,225.45 C193.05,232.60 195.51,234.88 195.89,235.11 C195.89,235.11 196.37,235.01 196.37,235.01 C196.37,235.01 196.41,234.90 196.41,234.90" fill="none" stroke="rgb(255, 165, 0)" stroke-width="3.57" stroke-opacity="1.00" stroke-linejoin="round"/>
<path d="M197.43,217.15 C197.43,217.15 196.46,216.57 196.46,216.57 C195.79,217.38 196.24,221.52 197.24,225.30 C199.29,233.01 200.74,235.69 201.41,236.77 C201.41,236.77 201.77,236.71 201.77,236.71 C201.81,236.47 201.84,236.32 201.85,236.25 C201.86,236.18 201.87,236.10 201.87,236.00" fill="none" stroke="rgb(255, 165, 0)" stroke-width="3.57" stroke-opacity="1.00" stroke-linejoin="round"/>
<path d="M202.28,216.68 C202.28,216.68 201.94,216.24 201.94,216.24 C201.96,219.06 203.02,226.37 203.48,228.59 C204.00,230.99 205.93,235.95 206.93,236.98 C206.93,236.98 207.29,236.99 207.29,236.99" fill="none" stroke="rgb(255, 165, 0)" stroke-width="3.57" stroke-opacity="1.00" stroke-linejoin="round"/>
<path d="M205.11,220.84 C205.11,220.84 204.94,219.51 204.94,219.51 C204.73,220.08 205.59,224.74 206.93,227.96 C209.10,233.13 211.91,234.79 212.33,234.72" fill="none" stroke="rgb(255, 165, 0)" stroke-width="3.57" stroke-opacity="1.00" stroke-linejoin="round"/>
<path d="M211.95,224.18 C211.95,224.18 211.15,223.18 211.15,223.18 C211.02,223.40 213.88,231.51 214.18,232.21 C214.76,233.56 215.48,234.42 215.83,234.47 C216.03,234.15 216.15,233.96 216.20,233.88 C216.24,233.80 216.28,233.73 216.30,233.68" fill="none" stroke="rgb(255, 165, 0)" stroke-width="3.57" stroke-opacity="1.00" stroke-linejoin="round"/>
<path d="M215.18,228.56 C214.96,228.17 214.44,227.02 214.20,226.33 C214.18,226.25 213.83,225.02 213.73,224.73 C213.58,224.93 214.51,229.53 215.76,232.42 C216.96,235.17 218.22,236.95 218.71,237.31" fill="none" stroke="rgb(255, 165, 0)" stroke-width="3.57" stroke-opacity="1.00" stroke-linejoin="round"/>
<path d="M188.73,212.80 C188.73,212.80 186.43,213.09 186.43,213.09 C188.70,213.03 193.61,214.11 195.66,214.79 C198.32,215.69 203.54,218.31 205.45,219.69 C207.53,221.22 209.90,223.70 211.79,226.52 C213.04,228.40 214.32,231.13 214.59,231.30 C214.59,231.30 214.78,230.72 214.78,230.72" fill="none" stroke="rgb(255, 165, 0)" stroke-width="3.57" stroke-opacity="1.00" stroke-linejoin="round"/>
<path d="M190.62,202.01 C190.53,201.96 190.16,201.70 190.03,201.68 C189.94,201.66 189.75,201.67 189.45,201.70 C189.37,201.89 206.82,204.60 209.43,205.86 C210.91,206.60 215.50,209.68 217.52,210.76 C219.89,212.04 222.58,214.20 223.48,215.95 C225.23,219.47 229.80,233.25 230.18,237.84 C231.14,250.45 226.38,271.44 225.55,271.99 C225.55,271.99 225.03,271.45 225.03,271.45" fill="none" stroke="rgb(255, 165, 0)" stroke-width="3.57" stroke-opacity="1.00" stroke-linejoin="round"/>
<path d="M191.38,211.97 C191.34,211.87 191.31,211.79 191.30,211.73 C191.28,211.67 191.26,211.56 191.23,211.38 C194.09,212.10 201.62,214.87 203.51,215.83 C205.22,216.71 210.01,219.89 211.92,221.51 C213.81,223.14 216.08,225.86 217.68,228.19 C219.21,230.46 222.94,237.08 223.53,240.60 C224.01,243.65 223.73,251.30 223.06,254.72 C221.90,260.27 218.45,265.15 218.28,265.20 C218.28,265.20 218.40,264.35 218.40,264.35" fill="none" stroke="rgb(255, 165, 0)" stroke-width="3.57" stroke-opacity="1.00" stroke-linejoin="round"/>
<path d="M225.57,239.90 C225.57,239.90 225.53,237.07 225.53,237.07 C226.59,240.26 225.12,253.20 224.44,256.19 C222.83,262.98 221.04,265.79 220.30,266.40 C220.30,266.40 219.87,266.05 219.87,266.05 C219.87,266.05 219.95,265.10 219.95,265.10" fill="none" stroke="rgb(255, 165, 0)" stroke-width="3.57" stroke-opacity="1.00" stroke-linejoin="round"/>
<path d="M227.60,248.55 C227.60,248.55 228.12,248.31 228.12,248.31 C228.96,251.54 225.39,263.90 224.16,265.68 C223.99,265.05 223.89,264.65 223.87,264.50 C223.85,264.35 223.88,264.22 223.96,264.12" fill="none" stroke="rgb(255, 165, 0)" stroke-width="3.57" stroke-opacity="1.00" stroke-linejoin="round"/>
<path d="M229.74,259.53 C229.63,259.56 229.02,263.84 227.97,265.90 C226.63,268.49 225.14,270.00 224.71,270.19 C224.71,270.19 224.59,269.13 224.59,269.13" fill="none" stroke="rgb(255, 165, 0)" stroke-width="3.57" stroke-opacity="1.00" stroke-linejoin="round"/>
<path d="M224.27,245.55 C224.27,245.55 224.20,245.34 224.20,245.34 C223.62,247.71 215.64,262.48 215.18,263.24 C214.55,264.29 213.92,264.94 213.43,265.20 C213.43,265.20 212.77,264.24 212.77,264.24" fill="none" stroke="rgb(255, 165, 0)" stroke-width="3.57" stroke-opacity="1.00" stroke-linejoin="round"/>
<path d="M194.20,210.88 C194.20,210.88 194.08,209.30 194.08,209.30 C195.19,208.83 199.27,209.28 202.45,211.39 C208.77,215.67 217.32,228.32 217.35,229.19 C217.35,229.19 216.67,229.77 216.67,229.77" fill="none" stroke="rgb(255, 165, 0)" stroke-width="3.57" stroke-opacity="1.00" stroke-linejoin="round"/>
<path d="M200.94,207.41 C200.94,207.41 200.53,206.65 200.53,206.65 C201.40,206.55 204.85,207.29 207.39,209.34 C209.65,211.21 216.57,222.33 218.80,227.94 C219.71,230.23 219.90,231.84 219.51,232.28 C219.51,232.28 218.65,232.64 218.65,232.64" fill="none" stroke="rgb(255, 165, 0)" stroke-width="3.57" stroke-opacity="1.00" stroke-linejoin="round"/>
<path d="M211.48,211.86 C211.48,211.86 211.35,211.74 211.35,211.74 C211.35,211.74 211.42,211.61 211.42,211.61 C212.53,212.19 216.27,215.80 218.65,219.06 C220.96,222.27 225.05,233.46 224.16,234.61 C224.16,234.61 223.32,233.66 223.32,233.66" fill="none" stroke="rgb(255, 165, 0)" stroke-width="3.57" stroke-opacity="1.00" stroke-linejoin="round"/>
<path d="M183.12,207.88 C183.25,207.23 183.58,206.35 183.94,205.94 C184.40,205.44 186.53,204.51 187.01,204.15 C186.27,203.86 181.78,207.21 179.63,210.09 C177.90,212.51 177.45,215.23 177.71,215.96 C177.71,215.96 178.30,216.05 178.30,216.05" fill="none" stroke="rgb(255, 165, 0)" stroke-width="3.57" stroke-opacity="1.00" stroke-linejoin="round"/>
<path d="M189.67,210.41 C188.83,210.46 187.00,210.13 185.86,210.67 C184.75,211.21 180.85,214.52 179.46,216.73 C179.46,216.73 180.49,216.62 180.49,216.62" fill="none" stroke="rgb(255, 165, 0)" stroke-width="3.57" stroke-opacity="1.00" stroke-linejoin="round"/>
</g>
</svg>
