<?xml version="1.0" encoding="UTF-8" standalone="no"?>
<!DOCTYPE svg PUBLIC "-//W3C//DTD SVG 1.1//EN" "http://www.w3.org/Graphics/SVG/1.1/DTD/svg11.dtd">
<svg width="128.40" height="181.68" viewBox="0.00 0.00 535.00 757.00" xmlns="http://www.w3.org/2000/svg" xmlns:xlink="http://www.w3.org/1999/xlink">
<g stroke-linecap="round" transform="translate(44.00, 155.00)" id="64-물웅덩이-2">
<path d="M154.50,406.46 C155.16,405.84 155.61,405.44 155.85,405.25 C156.22,404.95 157.28,404.23 157.87,403.66 C154.48,403.55 140.69,408.37 135.30,411.66 C132.36,413.47 127.82,417.04 125.44,419.50 C124.26,420.76 122.47,423.38 121.81,424.97 C121.06,426.93 121.49,430.56 122.74,432.10 C124.54,434.19 130.21,436.33 133.08,437.02 C136.12,437.74 143.66,439.58 144.82,440.62 C145.64,441.41 146.46,443.49 146.70,445.16 C146.83,446.10 147.16,450.05 147.31,450.89 C147.93,454.04 150.90,457.69 153.59,459.66 C156.52,461.78 160.23,465.50 161.70,467.75 C161.94,468.12 162.32,468.83 162.87,469.87" fill="none" stroke="rgb(186, 239, 186)" stroke-width="3.57" stroke-opacity="1.00" stroke-linejoin="round"/>
<path d="M250.02,394.06 C250.02,394.06 248.41,389.86 248.41,389.86 C253.90,393.33 268.50,402.53 270.33,404.01 C270.78,404.40 273.19,407.30 273.63,408.15 C274.25,409.42 274.25,412.52 273.76,414.13 C272.85,416.84 267.37,425.89 267.14,426.34 C266.65,427.38 266.13,429.48 266.27,430.28 C266.81,433.29 266.71,434.88 265.70,436.91 C265.42,437.47 261.56,442.92 260.31,445.18 C259.13,447.34 257.32,452.16 257.39,455.21 C257.40,455.57 257.44,456.26 257.51,457.26" fill="none" stroke="rgb(186, 239, 186)" stroke-width="3.57" stroke-opacity="1.00" stroke-linejoin="round"/>
</g>
</svg>
