<?xml version="1.0" encoding="UTF-8" standalone="no"?>
<!DOCTYPE svg PUBLIC "-//W3C//DTD SVG 1.1//EN" "http://www.w3.org/Graphics/SVG/1.1/DTD/svg11.dtd">
<svg width="128.40" height="181.68" viewBox="0.00 0.00 535.00 757.00" xmlns="http://www.w3.org/2000/svg" xmlns:xlink="http://www.w3.org/1999/xlink">
<g stroke-linecap="round" transform="translate(44.00, 155.00)" id="65-의자">
<path d="M264.02,281.55 C264.54,280.91 264.77,280.64 264.93,280.54 C265.02,280.48 265.14,280.40 265.27,280.31 C265.27,280.31 265.32,280.58 265.32,280.58 C264.76,281.55 254.94,289.47 250.72,293.72 C247.03,297.46 238.55,307.77 238.82,308.06 C238.82,308.06 256.11,307.71 256.11,307.71 C256.11,307.71 255.13,307.91 255.13,307.91" fill="none" stroke="rgb(219, 153, 255)" stroke-width="3.46" stroke-opacity="1.00" stroke-linejoin="round"/>
<path d="M242.93,314.39 C242.92,313.69 242.94,312.71 242.96,312.04 C242.98,310.34 242.68,309.92 242.62,309.90 C241.92,312.41 242.32,327.05 243.35,332.22 C243.81,334.44 245.40,336.88 246.13,336.85 C246.65,336.77 248.24,334.91 248.60,332.58 C248.84,330.97 248.31,308.48 247.92,307.09 C247.92,307.09 247.50,308.14 247.50,308.14" fill="none" stroke="rgb(219, 153, 255)" stroke-width="3.46" stroke-opacity="1.00" stroke-linejoin="round"/>
<path d="M332.48,282.07 C332.51,281.85 332.53,281.71 332.53,281.63 C332.53,281.57 332.52,281.45 332.50,281.28 C332.49,281.23 332.49,281.18 332.48,281.13 C333.97,281.09 338.44,280.88 341.12,280.77 C348.71,280.56 357.87,281.57 359.21,282.49 C359.15,284.29 356.09,288.05 354.89,289.60 C352.48,292.73 347.38,299.33 345.42,301.35 C345.14,301.64 337.25,309.22 337.31,309.34 C337.31,309.34 337.63,308.88 337.63,308.88" fill="none" stroke="rgb(219, 153, 255)" stroke-width="3.46" stroke-opacity="1.00" stroke-linejoin="round"/>
<path d="M352.62,295.59 C352.62,295.59 352.62,294.00 352.62,294.00 C353.42,296.28 354.86,315.50 356.09,316.80 C356.78,316.79 357.36,315.36 357.65,312.62 C358.01,309.14 356.43,293.35 356.33,292.57 C356.33,292.57 356.17,292.43 356.17,292.43 C356.17,292.43 356.08,292.60 356.08,292.60" fill="none" stroke="rgb(219, 153, 255)" stroke-width="3.46" stroke-opacity="1.00" stroke-linejoin="round"/>
<path d="M335.58,314.08 C335.54,313.55 335.62,312.63 335.80,312.01 C335.91,311.64 336.08,311.29 336.21,310.92 C336.51,310.10 336.70,309.28 336.65,309.14 C336.20,312.88 338.05,328.61 339.55,330.29 C339.62,330.36 339.69,330.39 339.78,330.40 C339.78,330.40 340.23,306.95 340.23,306.95 C340.23,306.95 339.99,308.05 339.99,308.05" fill="none" stroke="rgb(219, 153, 255)" stroke-width="3.46" stroke-opacity="1.00" stroke-linejoin="round"/>
</g>
</svg>
