<?xml version="1.0" encoding="UTF-8" standalone="no"?>
<!DOCTYPE svg PUBLIC "-//W3C//DTD SVG 1.1//EN" "http://www.w3.org/Graphics/SVG/1.1/DTD/svg11.dtd">
<svg width="128.40" height="181.68" viewBox="0.00 0.00 535.00 757.00" xmlns="http://www.w3.org/2000/svg" xmlns:xlink="http://www.w3.org/1999/xlink">
<g stroke-linecap="round" transform="translate(44.00, 155.00)" id="65-길">
<path d="M1.27,355.80 C1.27,355.80 0.67,354.49 0.67,354.49" fill="none" stroke="rgb(181, 143, 123)" stroke-width="3.46" stroke-opacity="1.00" stroke-linejoin="round"/>
<path d="M-5.95,354.20 C-5.95,354.20 -6.79,353.91 -6.79,353.91" fill="none" stroke="rgb(181, 143, 123)" stroke-width="3.46" stroke-opacity="1.00" stroke-linejoin="round"/>
<path d="M-7.19,353.56 C-7.19,353.56 -7.88,353.67 -7.88,353.67 C-7.86,353.80 -7.57,355.07 14.72,352.10 C20.72,351.41 54.98,350.57 75.93,350.90 C87.51,351.07 96.33,350.84 102.16,349.96 C104.03,349.68 110.52,348.08 111.29,348.56 C111.48,348.68 111.84,349.04 112.36,349.64" fill="none" stroke="rgb(181, 143, 123)" stroke-width="3.46" stroke-opacity="1.00" stroke-linejoin="round"/>
<path d="M-13.60,383.78 C-13.60,383.78 -13.29,383.16 -13.29,383.16 C-12.74,382.95 -1.62,381.30 8.08,381.38 C20.29,381.37 50.45,378.67 64.55,377.25 C73.69,376.40 113.73,375.32 125.45,375.39 C170.95,377.01 194.54,377.53 204.85,376.69 C213.51,375.96 229.85,376.34 233.28,376.43 C245.17,376.55 272.92,373.80 285.53,374.00 C305.81,374.43 326.46,374.20 345.56,374.71 C361.29,375.38 376.55,374.54 401.34,374.56 C408.95,374.67 420.29,375.05 427.70,375.49 C441.21,376.45 452.69,376.95 454.81,375.44 C454.95,375.33 455.08,375.15 455.19,374.88 C455.19,374.88 454.99,374.76 454.99,374.76" fill="none" stroke="rgb(181, 143, 123)" stroke-width="3.46" stroke-opacity="1.00" stroke-linejoin="round"/>
</g>
</svg>
