<?xml version="1.0" encoding="UTF-8" standalone="no"?>
<!DOCTYPE svg PUBLIC "-//W3C//DTD SVG 1.1//EN" "http://www.w3.org/Graphics/SVG/1.1/DTD/svg11.dtd">
<svg width="128.40" height="181.68" viewBox="0.00 0.00 535.00 757.00" xmlns="http://www.w3.org/2000/svg" xmlns:xlink="http://www.w3.org/1999/xlink">
<g stroke-linecap="round" transform="translate(44.00, 155.00)" id="66-우산">
<path d="M161.04,130.92 C161.04,130.92 159.48,128.86 159.48,128.86 C159.67,128.18 163.25,126.08 163.87,125.67 C167.23,123.43 168.91,121.98 168.95,121.77 C168.17,121.39 165.08,122.15 162.45,123.42 C157.26,125.98 147.25,133.13 141.88,137.71 C136.93,141.96 128.52,150.44 123.44,156.41 C120.74,159.63 111.91,171.46 108.91,176.71 C101.54,189.72 99.88,200.80 99.83,202.13 C99.83,202.13 102.86,203.94 102.86,203.94" fill="none" stroke="rgb(255, 0, 0)" stroke-width="3.57" stroke-opacity="1.00" stroke-linejoin="round"/>
<path d="M98.69,204.39 C97.78,203.80 96.90,203.32 96.36,203.04 C96.01,202.84 95.85,202.51 95.76,202.01 C96.28,200.93 99.36,199.33 101.40,199.87 C101.87,200.00 109.94,201.87 113.23,201.89 C122.72,201.89 135.67,203.40 138.39,203.55 C146.83,203.92 159.39,201.90 165.48,200.45 C168.65,199.68 175.89,197.63 179.26,197.18 C192.71,195.42 212.08,196.71 215.63,196.16 C221.16,195.15 233.09,193.21 237.82,193.37 C238.10,193.38 245.23,193.57 248.59,192.95 C260.38,190.75 264.54,190.51 275.16,189.16 C278.04,188.80 283.65,188.61 284.70,188.78 C289.80,189.63 290.84,189.54 291.97,188.65" fill="none" stroke="rgb(255, 0, 0)" stroke-width="3.57" stroke-opacity="1.00" stroke-linejoin="round"/>
<path d="M170.79,122.95 C170.65,122.65 170.48,122.41 170.28,122.21 C169.88,121.83 168.25,120.59 167.84,120.30 C168.77,121.49 170.32,122.18 173.10,122.52 C179.50,123.15 190.37,124.32 199.87,125.95 C209.40,127.84 216.87,129.74 221.51,132.29 C225.07,134.42 240.23,140.46 243.19,141.94 C246.74,143.73 253.65,147.89 255.13,149.03 C257.17,150.61 262.62,155.96 265.62,158.10 C271.02,162.01 275.03,165.37 276.96,167.91 C281.76,174.45 289.24,184.07 291.12,188.91 C291.12,188.91 291.28,189.42 291.28,189.42" fill="none" stroke="rgb(255, 0, 0)" stroke-width="3.57" stroke-opacity="1.00" stroke-linejoin="round"/>
<path d="M185.41,204.74 C185.35,204.14 185.31,203.70 185.29,203.43 C185.21,200.87 185.76,200.08 186.68,199.31 C187.43,199.31 187.83,200.34 187.92,202.74 C187.94,203.15 188.21,247.49 188.39,264.70 C188.81,288.93 189.52,298.59 189.81,302.54 C189.81,302.54 188.45,300.77 188.45,300.77" fill="none" stroke="rgb(255, 0, 0)" stroke-width="3.57" stroke-opacity="1.00" stroke-linejoin="round"/>
<path d="M170.38,113.71 C170.51,112.40 171.07,110.09 171.15,109.23 C171.19,108.91 171.13,108.52 171.00,108.07 C171.01,111.02 171.03,117.99 171.05,122.00 C171.05,124.20 171.12,125.72 171.32,128.80 C171.32,128.80 171.41,128.70 171.41,128.70" fill="none" stroke="rgb(255, 0, 0)" stroke-width="3.57" stroke-opacity="1.00" stroke-linejoin="round"/>
</g>
</svg>
