<?xml version="1.0" encoding="UTF-8" standalone="no"?>
<!DOCTYPE svg PUBLIC "-//W3C//DTD SVG 1.1//EN" "http://www.w3.org/Graphics/SVG/1.1/DTD/svg11.dtd">
<svg width="128.40" height="181.68" viewBox="0.00 0.00 535.00 757.00" xmlns="http://www.w3.org/2000/svg" xmlns:xlink="http://www.w3.org/1999/xlink">
<g stroke-linecap="round" transform="translate(44.00, 155.00)" id="68-사람">
<path d="M191.71,215.32 C191.53,215.09 191.28,214.53 191.28,214.11 C191.28,213.79 191.47,212.75 191.54,212.46 C191.58,216.38 192.97,221.92 193.92,223.56 C194.97,225.29 198.00,227.96 199.39,228.44 C202.47,229.43 206.76,229.28 210.29,228.49 C213.39,227.77 215.88,226.58 217.19,225.35 C218.48,224.02 220.15,219.70 220.66,215.46 C220.76,214.56 221.00,212.25 221.03,211.37 C221.03,211.37 220.63,211.67 220.63,211.67" fill="none" stroke="rgb(255, 165, 0)" stroke-width="3.33" stroke-opacity="1.00" stroke-linejoin="round"/>
<path d="M200.52,196.04 C200.52,196.04 200.49,195.48 200.49,195.48 C200.49,195.48 201.58,194.52 201.58,194.52 C200.54,193.84 196.83,194.16 195.58,194.79 C193.96,195.65 190.93,198.47 189.66,200.41 C188.24,202.62 186.67,207.31 186.58,209.43 C186.53,211.38 187.54,213.57 188.30,213.86 C188.30,213.86 189.16,213.11 189.16,213.11" fill="none" stroke="rgb(255, 165, 0)" stroke-width="3.33" stroke-opacity="1.00" stroke-linejoin="round"/>
<path d="M190.18,210.96 C190.14,210.83 190.09,210.73 190.02,210.66 C189.96,210.59 189.80,210.47 189.55,210.28 C189.55,210.28 189.30,211.69 189.30,211.69 C190.31,212.43 193.85,212.84 197.42,212.42 C201.42,211.93 207.99,210.26 207.94,209.81 C207.94,209.81 207.61,209.92 207.61,209.92" fill="none" stroke="rgb(255, 165, 0)" stroke-width="3.33" stroke-opacity="1.00" stroke-linejoin="round"/>
<path d="M209.02,209.27 C209.02,209.27 208.45,209.27 208.45,209.27 C210.08,209.19 217.51,210.17 218.64,209.89 C219.15,209.75 219.70,209.28 219.73,209.17" fill="none" stroke="rgb(255, 165, 0)" stroke-width="3.33" stroke-opacity="1.00" stroke-linejoin="round"/>
<path d="M201.34,194.16 C201.34,194.16 200.20,194.22 200.20,194.22 C200.60,194.34 206.17,194.05 208.17,194.63 C210.50,195.34 214.70,197.83 216.71,199.53 C220.87,203.10 223.49,208.03 223.84,208.67 C223.84,208.67 224.19,208.40 224.19,208.40" fill="none" stroke="rgb(255, 165, 0)" stroke-width="3.33" stroke-opacity="1.00" stroke-linejoin="round"/>
<path d="M189.27,213.09 C189.16,213.09 189.09,213.08 189.06,213.07 C189.01,213.05 188.84,212.91 188.81,212.87 C188.68,212.67 187.62,211.30 186.95,211.33 C186.20,211.40 184.86,213.38 184.85,214.96 C184.89,216.85 186.73,219.11 188.19,218.99 C189.25,218.87 190.17,217.81 190.12,217.69 C190.12,217.69 189.94,217.87 189.94,217.87" fill="none" stroke="rgb(255, 165, 0)" stroke-width="3.33" stroke-opacity="1.00" stroke-linejoin="round"/>
<path d="M218.96,212.87 C218.96,212.87 218.10,212.00 218.10,212.00 C218.38,211.23 220.29,209.88 221.92,209.27 C223.93,208.55 225.24,208.79 225.89,209.11 C226.37,210.68 226.00,212.36 224.68,214.03 C224.13,214.73 223.47,215.12 223.14,215.18 C223.14,215.18 223.41,214.66 223.41,214.66" fill="none" stroke="rgb(255, 165, 0)" stroke-width="3.33" stroke-opacity="1.00" stroke-linejoin="round"/>
<path d="M225.67,219.36 C225.59,219.14 225.55,218.97 225.54,218.85 C225.54,218.74 225.58,218.52 225.66,218.19 C225.66,218.46 225.36,222.32 225.36,225.63 C225.37,230.88 225.27,234.82 225.09,237.10 C225.09,237.10 225.36,236.42 225.36,236.42" fill="none" stroke="rgb(255, 165, 0)" stroke-width="3.33" stroke-opacity="1.00" stroke-linejoin="round"/>
<path d="M189.45,220.96 C189.45,220.96 188.96,218.77 188.96,218.77 C189.88,218.72 190.23,222.13 190.45,227.71 C190.54,229.58 191.26,249.48 190.51,255.13 C190.45,255.60 189.57,258.46 189.95,259.13 C189.95,259.13 192.31,259.88 192.31,259.88 C192.31,259.88 192.22,260.21 192.22,260.21" fill="none" stroke="rgb(255, 165, 0)" stroke-width="3.33" stroke-opacity="1.00" stroke-linejoin="round"/>
<path d="M204.66,229.52 C204.66,229.52 203.60,230.22 203.60,230.22 C203.60,230.22 203.74,236.15 203.74,236.15 C202.29,235.65 199.74,236.17 198.06,237.50 C196.48,238.83 194.18,243.87 193.89,245.52 C193.37,248.59 191.28,266.03 192.18,269.93 C193.05,272.80 193.33,275.23 193.43,275.59 C193.43,275.59 193.53,274.82 193.53,274.82" fill="none" stroke="rgb(255, 165, 0)" stroke-width="3.33" stroke-opacity="1.00" stroke-linejoin="round"/>
<path d="M199.83,252.72 C199.83,252.44 199.83,252.23 199.83,252.10 C199.84,251.96 199.85,251.71 199.87,251.35 C200.07,251.34 199.70,256.95 199.51,259.70 C199.44,261.04 199.17,269.44 198.80,272.46 C198.78,272.62 198.85,272.60 198.84,272.63 C198.84,272.63 198.83,272.61 198.81,272.57" fill="none" stroke="rgb(255, 165, 0)" stroke-width="3.33" stroke-opacity="1.00" stroke-linejoin="round"/>
<path d="M192.15,275.01 C192.15,275.01 191.99,274.47 191.99,274.47 C192.93,274.02 198.27,274.23 198.45,274.22 C198.56,274.21 198.68,274.16 198.81,274.08 C198.81,274.08 198.93,273.83 198.93,273.83" fill="none" stroke="rgb(255, 165, 0)" stroke-width="3.33" stroke-opacity="1.00" stroke-linejoin="round"/>
<path d="M201.21,258.43 C201.21,258.43 201.01,258.05 201.01,258.05 C201.01,258.05 204.10,279.95 204.10,279.95 C204.38,279.77 205.05,279.04 205.14,279.00 C206.19,278.63 225.30,276.38 226.32,276.27 C226.32,276.27 225.69,276.27 225.69,276.27" fill="none" stroke="rgb(255, 165, 0)" stroke-width="3.33" stroke-opacity="1.00" stroke-linejoin="round"/>
<path d="M225.26,257.64 C225.26,257.64 225.01,257.48 225.01,257.48 C225.01,257.48 225.05,276.52 225.05,276.52 C225.05,276.52 225.17,275.71 225.17,275.71" fill="none" stroke="rgb(255, 165, 0)" stroke-width="3.33" stroke-opacity="1.00" stroke-linejoin="round"/>
<path d="M212.72,227.86 C212.72,227.86 213.12,227.14 213.12,227.14 C213.70,227.59 214.03,228.21 214.32,229.54 C214.59,230.77 214.61,231.18 214.48,231.24 C214.48,231.24 214.11,230.87 214.11,230.87" fill="none" stroke="rgb(255, 165, 0)" stroke-width="3.33" stroke-opacity="1.00" stroke-linejoin="round"/>
<path d="M214.13,234.38 C214.02,234.21 213.95,234.09 213.89,234.02 C213.82,233.93 213.69,233.80 213.52,233.64 C213.47,233.59 213.39,233.52 213.27,233.42 C213.34,233.44 214.58,233.30 218.28,234.43 C220.98,235.28 222.82,237.00 224.50,239.81 C227.70,245.33 232.26,260.49 233.84,262.52 C234.51,263.35 236.21,265.39 236.18,265.60 C236.18,265.60 235.87,265.52 235.87,265.52 C235.87,265.52 235.54,265.08 235.54,265.08" fill="none" stroke="rgb(255, 165, 0)" stroke-width="3.33" stroke-opacity="1.00" stroke-linejoin="round"/>
<path d="M222.31,256.01 C222.20,255.90 221.72,255.40 221.60,254.87 C221.45,254.24 221.02,251.63 221.03,251.47 C221.06,251.08 221.11,250.91 221.21,250.81 C221.44,251.16 224.03,257.57 225.88,261.21 C228.79,266.82 231.04,270.93 231.85,271.51 C231.85,271.51 236.76,267.13 236.76,267.13 C236.76,267.13 236.50,267.35 236.50,267.35" fill="none" stroke="rgb(255, 165, 0)" stroke-width="3.33" stroke-opacity="1.00" stroke-linejoin="round"/>
<path d="M233.69,270.25 C233.69,270.25 233.32,270.62 233.32,270.62 C233.32,270.62 235.81,273.95 235.81,273.95 C236.74,273.86 237.85,272.44 237.90,271.21 C237.93,269.80 237.04,268.50 236.53,268.06 C236.41,267.96 236.29,267.90 236.15,267.88 C236.15,267.88 236.14,267.80 236.14,267.80" fill="none" stroke="rgb(255, 165, 0)" stroke-width="3.33" stroke-opacity="1.00" stroke-linejoin="round"/>
<path d="M193.25,276.27 C193.25,276.27 193.01,274.72 193.01,274.72 C193.01,274.72 195.13,280.87 195.13,280.87 C196.24,280.25 196.76,279.77 196.88,278.83 C197.11,277.16 197.17,275.44 197.10,274.09 C197.10,274.09 197.20,274.49 197.20,274.49" fill="none" stroke="rgb(255, 165, 0)" stroke-width="3.33" stroke-opacity="1.00" stroke-linejoin="round"/>
<path d="M198.99,237.11 C198.95,236.89 198.92,236.72 198.92,236.58 C198.91,236.45 198.91,236.16 198.91,235.72 C200.59,235.95 202.26,242.96 202.50,243.96 C202.47,243.99 202.58,243.28 202.79,242.99 C203.61,241.90 209.50,240.56 211.80,240.47 C213.46,240.42 218.38,240.39 218.82,240.07 C218.82,240.07 218.56,235.28 218.56,235.28 C218.56,235.28 218.43,235.19 218.43,235.19 C218.43,235.19 218.36,235.23 218.36,235.23" fill="none" stroke="rgb(255, 165, 0)" stroke-width="3.33" stroke-opacity="1.00" stroke-linejoin="round"/>
<path d="M192.40,217.23 C192.40,217.23 192.16,216.96 192.16,216.96 C192.26,217.05 198.51,214.18 199.91,214.11 C200.23,214.10 200.72,214.18 201.36,214.35 C201.36,214.35 200.94,215.56 200.94,215.56" fill="none" stroke="rgb(255, 165, 0)" stroke-width="3.33" stroke-opacity="1.00" stroke-linejoin="round"/>
<path d="M206.26,214.75 C206.26,214.75 205.37,215.46 205.37,215.46 C205.37,215.46 214.37,213.75 214.37,213.75 C214.37,213.75 213.90,214.02 213.90,214.02" fill="none" stroke="rgb(255, 165, 0)" stroke-width="3.33" stroke-opacity="1.00" stroke-linejoin="round"/>
<path d="M197.83,217.64 C197.83,217.64 197.62,217.17 197.62,217.17 C197.62,217.17 197.88,217.11 197.88,217.11 C197.88,217.11 199.30,220.41 199.30,220.41 C199.30,220.41 199.38,217.57 199.38,217.57 C198.51,217.76 198.00,218.12 197.85,218.85 C197.57,220.27 198.23,221.17 198.70,221.42 C200.70,220.60 199.69,217.28 199.24,217.11 C199.24,217.11 198.74,218.28 198.74,218.28 C198.74,218.28 199.17,216.91 199.17,216.91 C199.17,216.91 198.86,217.11 198.86,217.11" fill="none" stroke="rgb(255, 165, 0)" stroke-width="3.33" stroke-opacity="1.00" stroke-linejoin="round"/>
<path d="M209.58,216.85 C209.58,216.85 209.19,216.39 209.19,216.39 C209.19,216.39 208.50,216.67 208.50,216.67 C208.50,216.67 208.15,218.52 208.15,218.52 C209.19,218.92 209.43,216.57 208.89,216.03 C208.89,216.03 208.64,219.94 208.64,219.94 C208.64,219.94 209.48,217.05 209.48,217.05 C209.48,217.05 209.82,218.73 209.82,218.73 C209.82,218.73 210.57,216.89 210.57,216.89 C210.57,216.89 210.20,218.13 210.20,218.13 C210.20,218.13 209.63,217.26 209.63,217.26" fill="none" stroke="rgb(255, 165, 0)" stroke-width="3.33" stroke-opacity="1.00" stroke-linejoin="round"/>
<path d="M201.78,225.10 C201.77,224.74 201.76,224.50 201.75,224.39 C201.72,224.13 201.65,223.93 201.56,223.78 C201.51,223.70 201.37,223.55 201.15,223.35 C201.49,223.87 204.65,225.41 206.57,225.38 C208.40,225.32 210.47,223.25 210.52,223.17 C210.53,223.16 210.51,223.10 210.45,222.97 C210.44,222.94 210.42,222.91 210.41,222.87" fill="none" stroke="rgb(255, 165, 0)" stroke-width="3.33" stroke-opacity="1.00" stroke-linejoin="round"/>
<path d="M194.75,197.73 C194.75,197.73 194.60,197.72 194.60,197.72 C194.60,197.72 194.49,197.56 194.49,197.56 C194.49,197.56 194.52,197.23 194.52,197.23 C194.40,197.22 188.85,201.85 187.95,209.42 C187.95,209.42 188.87,207.61 188.87,207.61" fill="none" stroke="rgb(255, 165, 0)" stroke-width="3.33" stroke-opacity="1.00" stroke-linejoin="round"/>
<path d="M198.55,198.11 C198.55,198.11 198.27,196.38 198.27,196.38 C198.27,196.38 191.66,207.40 191.66,207.40 C191.66,207.40 191.76,207.84 191.76,207.84 C191.76,207.84 192.26,207.39 192.26,207.39" fill="none" stroke="rgb(255, 165, 0)" stroke-width="3.33" stroke-opacity="1.00" stroke-linejoin="round"/>
<path d="M198.99,197.95 C198.99,197.95 198.83,197.72 198.83,197.72 C198.83,197.72 191.61,209.42 191.61,209.42 C191.61,209.42 192.84,207.95 192.84,207.95" fill="none" stroke="rgb(255, 165, 0)" stroke-width="3.33" stroke-opacity="1.00" stroke-linejoin="round"/>
<path d="M203.28,197.92 C203.28,197.92 203.04,197.27 203.04,197.27 C203.04,197.27 194.98,210.59 194.98,210.59 C194.98,210.59 196.49,208.68 196.49,208.68" fill="none" stroke="rgb(255, 165, 0)" stroke-width="3.33" stroke-opacity="1.00" stroke-linejoin="round"/>
<path d="M204.57,198.92 C204.57,198.92 204.51,198.60 204.51,198.60 C204.00,199.56 199.36,206.09 199.12,206.45 C198.57,207.31 198.26,208.11 198.20,208.63 C198.20,208.63 198.54,208.68 198.54,208.68 C198.54,208.68 199.58,207.82 199.58,207.82" fill="none" stroke="rgb(255, 165, 0)" stroke-width="3.33" stroke-opacity="1.00" stroke-linejoin="round"/>
<path d="M203.03,205.22 C203.03,205.22 203.04,204.99 203.04,204.99 C203.08,205.27 203.07,205.49 202.71,206.04 C201.80,207.45 200.26,209.57 199.63,210.31 C199.60,210.34 199.50,210.43 199.52,210.39 C199.63,210.14 199.69,209.97 199.72,209.89 C199.76,209.80 199.80,209.68 199.85,209.53" fill="none" stroke="rgb(255, 165, 0)" stroke-width="3.33" stroke-opacity="1.00" stroke-linejoin="round"/>
<path d="M204.22,196.85 C203.21,198.01 202.51,198.82 202.13,199.28 C200.20,201.58 196.07,207.17 195.10,208.91 C194.95,209.20 194.79,209.54 194.64,209.94 C194.64,209.94 194.68,210.04 194.68,210.04" fill="none" stroke="rgb(255, 165, 0)" stroke-width="3.33" stroke-opacity="1.00" stroke-linejoin="round"/>
<path d="M200.74,197.70 C200.74,197.70 199.92,197.74 199.92,197.74 C198.95,198.57 194.82,204.65 193.47,206.93 C193.17,207.45 192.51,208.60 191.51,210.39 C191.61,210.10 191.71,209.81 191.81,209.52 C191.89,209.27 192.00,208.93 192.12,208.61" fill="none" stroke="rgb(255, 165, 0)" stroke-width="3.33" stroke-opacity="1.00" stroke-linejoin="round"/>
<path d="M201.81,192.90 C201.56,193.40 201.31,193.89 201.06,194.39 C199.57,197.29 196.55,203.20 194.88,206.62 C194.13,208.18 193.66,209.34 193.23,210.61 C193.23,210.61 193.69,210.10 193.69,210.10" fill="none" stroke="rgb(255, 165, 0)" stroke-width="3.33" stroke-opacity="1.00" stroke-linejoin="round"/>
<path d="M204.07,197.51 C202.88,198.35 201.64,199.46 201.09,200.44 C200.56,201.39 198.53,206.47 198.20,207.31" fill="none" stroke="rgb(255, 165, 0)" stroke-width="3.33" stroke-opacity="1.00" stroke-linejoin="round"/>
<path d="M203.38,203.40 C203.38,203.40 202.08,202.59 202.08,202.59 C202.76,202.54 206.16,206.99 206.52,207.44 C207.75,208.97 208.30,209.13 208.60,209.16 C208.60,209.16 208.79,208.35 208.79,208.35" fill="none" stroke="rgb(255, 165, 0)" stroke-width="3.33" stroke-opacity="1.00" stroke-linejoin="round"/>
<path d="M205.01,201.12 C205.01,201.12 204.48,200.23 204.48,200.23 C204.48,200.23 210.83,208.16 210.83,208.16 C210.83,208.16 210.45,207.60 210.45,207.60" fill="none" stroke="rgb(255, 165, 0)" stroke-width="3.33" stroke-opacity="1.00" stroke-linejoin="round"/>
<path d="M205.51,198.26 C205.51,198.26 204.60,198.36 204.60,198.36 C205.04,198.48 208.26,202.55 210.58,206.35 C211.73,208.30 211.96,208.68 212.13,208.84 C212.14,208.70 212.14,208.61 212.14,208.55 C212.13,208.50 212.11,208.41 212.08,208.28" fill="none" stroke="rgb(255, 165, 0)" stroke-width="3.33" stroke-opacity="1.00" stroke-linejoin="round"/>
<path d="M207.01,197.07 C207.01,197.07 206.48,195.99 206.48,195.99 C207.13,196.72 207.75,197.51 208.45,198.54 C209.80,200.54 212.45,205.19 213.44,206.93 C213.37,206.86 213.02,206.12 212.53,205.00 C212.13,204.07 211.11,201.72 210.95,201.31 C210.84,201.05 210.68,200.61 210.45,200.01" fill="none" stroke="rgb(255, 165, 0)" stroke-width="3.33" stroke-opacity="1.00" stroke-linejoin="round"/>
<path d="M210.24,196.88 C210.28,196.84 210.39,196.90 210.55,197.08 C211.49,198.08 212.66,199.71 213.66,201.43 C214.36,202.67 215.89,205.39 216.71,206.88 C216.87,207.17 216.97,207.32 217.01,207.33" fill="none" stroke="rgb(255, 165, 0)" stroke-width="3.33" stroke-opacity="1.00" stroke-linejoin="round"/>
<path d="M213.22,198.64 C213.14,198.72 215.55,202.48 216.94,204.63 C217.61,205.68 218.75,207.44 219.21,208.15 C219.23,208.19 219.31,208.30 219.29,208.26" fill="none" stroke="rgb(255, 165, 0)" stroke-width="3.33" stroke-opacity="1.00" stroke-linejoin="round"/>
<path d="M215.29,200.99 C215.29,200.99 215.04,199.85 215.04,199.85 C215.94,200.63 216.49,201.27 216.93,202.35 C217.67,204.17 218.43,206.32 218.52,206.80 C218.52,206.80 218.42,206.57 218.42,206.57" fill="none" stroke="rgb(255, 165, 0)" stroke-width="3.33" stroke-opacity="1.00" stroke-linejoin="round"/>
<path d="M206.13,195.69 C206.13,195.69 205.93,195.68 205.93,195.68 C207.65,197.64 210.31,202.05 211.83,204.57 C212.78,206.15 214.33,208.72 214.94,209.72" fill="none" stroke="rgb(255, 165, 0)" stroke-width="3.33" stroke-opacity="1.00" stroke-linejoin="round"/>
<path d="M221.18,221.24 C221.18,221.24 221.41,220.51 221.41,220.51 C221.41,220.51 221.56,220.58 221.56,220.58 C221.82,221.26 222.44,226.85 222.80,230.28 C222.98,231.74 223.28,234.10 223.40,235.00 C223.40,235.00 223.30,234.62 223.30,234.62" fill="none" stroke="rgb(255, 165, 0)" stroke-width="3.33" stroke-opacity="1.00" stroke-linejoin="round"/>
<path d="M218.99,226.86 C218.99,226.86 219.02,226.34 219.02,226.34 C219.08,226.36 219.31,226.60 219.47,230.42 C219.51,231.44 219.55,232.46 219.59,233.47" fill="none" stroke="rgb(255, 165, 0)" stroke-width="3.33" stroke-opacity="1.00" stroke-linejoin="round"/>
<path d="M219.87,226.19 C219.87,226.19 220.08,226.00 220.08,226.00 C220.21,226.70 220.27,228.67 220.13,229.91 C220.08,230.36 219.94,231.07 219.71,232.05" fill="none" stroke="rgb(255, 165, 0)" stroke-width="3.33" stroke-opacity="1.00" stroke-linejoin="round"/>
<path d="M218.46,226.20 C218.46,226.20 218.43,226.10 218.43,226.10 C218.43,226.10 218.25,231.79 218.25,231.79" fill="none" stroke="rgb(255, 165, 0)" stroke-width="3.33" stroke-opacity="1.00" stroke-linejoin="round"/>
<path d="M216.96,227.61 C216.89,228.51 217.04,231.30 217.11,232.36 C217.13,232.75 217.14,233.10 217.14,233.41 C217.11,233.31 217.09,233.25 217.08,233.22 C217.07,233.19 217.06,233.16 217.06,233.12" fill="none" stroke="rgb(255, 165, 0)" stroke-width="3.33" stroke-opacity="1.00" stroke-linejoin="round"/>
<path d="M216.45,228.67 C216.45,228.67 216.14,228.41 216.14,228.41 C216.02,229.83 215.83,230.89 215.55,231.25 C215.48,231.34 215.32,231.46 215.09,231.60" fill="none" stroke="rgb(255, 165, 0)" stroke-width="3.33" stroke-opacity="1.00" stroke-linejoin="round"/>
<path d="M192.12,226.20 C192.20,225.79 192.26,225.52 192.30,225.40 C192.33,225.27 192.40,225.12 192.50,224.94 C192.49,225.03 192.50,225.23 192.53,225.52 C192.89,229.08 193.30,235.33 193.51,237.15 C193.62,238.13 193.72,238.50 193.81,238.56 C193.81,238.56 193.87,237.99 193.87,237.99" fill="none" stroke="rgb(255, 165, 0)" stroke-width="3.33" stroke-opacity="1.00" stroke-linejoin="round"/>
<path d="M194.19,226.76 C193.86,227.39 193.81,228.46 194.03,230.69 C194.16,231.97 194.10,234.48 193.90,235.85 C193.84,236.26 193.71,236.73 193.52,237.27" fill="none" stroke="rgb(255, 165, 0)" stroke-width="3.33" stroke-opacity="1.00" stroke-linejoin="round"/>
<path d="M194.72,230.02 C194.72,230.02 194.70,229.40 194.70,229.40 C194.85,229.81 195.07,231.80 195.22,234.41 C195.25,235.27 195.30,236.46 195.38,237.37 C195.38,237.37 195.49,236.02 195.49,236.02" fill="none" stroke="rgb(255, 165, 0)" stroke-width="3.33" stroke-opacity="1.00" stroke-linejoin="round"/>
<path d="M196.20,230.74 C196.20,230.74 196.67,230.35 196.67,230.35 C196.77,231.02 196.82,232.38 196.82,234.95 C196.82,235.53 196.82,236.10 196.82,236.67" fill="none" stroke="rgb(255, 165, 0)" stroke-width="3.33" stroke-opacity="1.00" stroke-linejoin="round"/>
<path d="M198.16,232.15 C198.16,232.15 198.64,235.67 198.64,235.67 C198.83,234.64 198.96,233.94 199.04,233.57 C199.11,233.20 199.23,232.66 199.41,231.93 C199.62,232.65 199.81,234.40 199.88,235.06 C199.91,235.29 199.94,235.50 199.99,235.68 C199.99,235.68 200.14,234.83 200.14,234.83" fill="none" stroke="rgb(255, 165, 0)" stroke-width="3.33" stroke-opacity="1.00" stroke-linejoin="round"/>
<path d="M200.90,232.19 C200.90,232.19 200.82,232.15 200.82,232.15 C201.05,232.58 201.42,233.85 201.43,234.62 C201.44,234.91 201.37,235.37 201.25,236.02" fill="none" stroke="rgb(255, 165, 0)" stroke-width="3.33" stroke-opacity="1.00" stroke-linejoin="round"/>
<path d="M226.26,219.90 C226.26,219.90 226.08,219.81 226.08,219.81 C225.98,220.03 226.86,224.52 227.47,229.26 C229.00,239.86 229.81,244.08 230.28,245.36 C230.28,245.36 230.13,244.82 230.13,244.82" fill="none" stroke="rgb(255, 165, 0)" stroke-width="3.33" stroke-opacity="1.00" stroke-linejoin="round"/>
<path d="M228.46,226.35 C228.46,226.34 228.44,226.37 228.44,226.38 C228.29,227.23 228.25,228.23 228.34,229.78 C228.42,231.39 228.65,234.34 228.79,236.04 C228.98,238.18 229.19,239.94 229.52,242.20 C229.52,242.20 229.56,242.15 229.56,242.15 C229.56,242.15 229.51,241.57 229.51,241.57" fill="none" stroke="rgb(255, 165, 0)" stroke-width="3.33" stroke-opacity="1.00" stroke-linejoin="round"/>
<path d="M223.72,220.40 C223.61,220.92 223.41,221.87 223.42,222.41 C223.44,223.17 224.01,230.19 223.90,230.47 C223.90,230.47 223.68,230.55 223.68,230.55 C223.68,230.55 223.30,229.59 223.30,229.59" fill="none" stroke="rgb(255, 165, 0)" stroke-width="3.33" stroke-opacity="1.00" stroke-linejoin="round"/>
<path d="M222.14,221.04 C222.20,221.32 222.23,221.87 222.28,223.95 C222.33,225.49 222.45,228.59 222.52,230.14 C222.61,232.20 222.63,233.05 222.59,234.00 C222.59,234.00 222.53,233.80 222.53,233.80" fill="none" stroke="rgb(255, 165, 0)" stroke-width="3.33" stroke-opacity="1.00" stroke-linejoin="round"/>
<path d="M202.53,286.43 C202.19,285.31 203.00,283.79 203.27,283.29 C203.42,283.01 203.57,282.64 203.70,282.18 C204.02,281.06 204.21,280.10 204.17,279.91 C204.17,279.91 201.96,306.39 201.96,306.39 C202.81,307.48 206.07,307.65 210.14,307.38 C218.13,306.71 226.46,304.62 227.21,304.47 C229.24,304.07 236.46,301.06 236.58,301.13 C236.58,301.13 235.73,301.16 235.73,301.16" fill="none" stroke="rgb(255, 165, 0)" stroke-width="3.33" stroke-opacity="1.00" stroke-linejoin="round"/>
<path d="M226.55,277.96 C226.55,277.96 225.62,276.98 225.62,276.98 C225.62,276.98 239.42,301.80 239.42,301.80 C239.42,301.80 239.05,301.33 239.05,301.33" fill="none" stroke="rgb(255, 165, 0)" stroke-width="3.33" stroke-opacity="1.00" stroke-linejoin="round"/>
<path d="M212.41,291.29 C212.41,291.29 212.55,290.33 212.55,290.33 C212.55,290.33 213.14,305.34 213.14,305.34 C213.14,305.34 212.92,304.36 212.92,304.36" fill="none" stroke="rgb(255, 165, 0)" stroke-width="3.33" stroke-opacity="1.00" stroke-linejoin="round"/>
<path d="M220.37,291.22 C220.37,291.22 220.31,290.09 220.31,290.09 C221.05,294.92 222.08,299.73 222.90,301.75 C223.04,302.09 223.37,302.81 223.89,303.91" fill="none" stroke="rgb(255, 165, 0)" stroke-width="3.33" stroke-opacity="1.00" stroke-linejoin="round"/>
<path d="M213.13,309.09 C213.13,309.09 213.09,308.55 213.09,308.55 C213.09,308.55 213.05,333.94 213.05,333.94 C213.44,334.10 215.07,334.94 217.44,334.34 C219.16,333.89 219.64,333.26 219.71,333.01 C219.71,333.01 219.28,306.94 219.28,306.94 C219.28,306.94 218.42,308.50 218.42,308.50" fill="none" stroke="rgb(255, 165, 0)" stroke-width="3.33" stroke-opacity="1.00" stroke-linejoin="round"/>
<path d="M227.24,304.99 C227.24,304.99 227.54,303.72 227.54,303.72 C227.54,303.72 227.01,335.58 227.01,335.58 C227.01,335.58 226.93,335.28 226.93,335.28" fill="none" stroke="rgb(255, 165, 0)" stroke-width="3.33" stroke-opacity="1.00" stroke-linejoin="round"/>
<path d="M219.93,335.43 C219.93,335.43 219.57,334.94 219.57,334.94 C223.04,335.43 224.94,335.51 225.92,335.35 C226.17,335.31 226.42,335.22 226.68,335.06 C226.68,335.06 226.59,335.06 226.59,335.06" fill="none" stroke="rgb(255, 165, 0)" stroke-width="3.33" stroke-opacity="1.00" stroke-linejoin="round"/>
<path d="M213.03,335.15 C213.03,335.15 213.02,334.80 213.02,334.80 C212.90,334.68 209.89,334.81 209.46,336.25 C209.67,337.10 211.85,338.29 213.49,338.32 C217.03,338.37 219.47,337.36 219.79,336.94 C220.09,336.48 219.82,335.12 219.15,334.58 C218.20,333.85 215.54,333.77 214.71,334.42 C214.71,334.42 214.68,334.78 214.68,334.78 C214.68,334.78 214.77,334.83 214.77,334.83" fill="none" stroke="rgb(255, 165, 0)" stroke-width="3.33" stroke-opacity="1.00" stroke-linejoin="round"/>
<path d="M224.38,335.84 C223.64,335.61 221.93,335.11 221.38,335.74 C220.77,336.51 220.54,338.88 221.33,339.94 C222.29,341.13 226.01,342.01 227.95,341.69 C229.63,341.39 232.47,339.75 232.72,338.91 C232.97,337.88 231.15,335.59 229.90,335.00 C229.30,334.74 228.02,334.61 227.40,334.77 C226.91,334.90 225.55,335.43 225.36,335.52 C225.39,335.42 225.43,335.28 225.47,335.08 C225.57,334.57 225.67,334.06 225.77,333.55" fill="none" stroke="rgb(255, 165, 0)" stroke-width="3.33" stroke-opacity="1.00" stroke-linejoin="round"/>
</g>
</svg>
