<?xml version="1.0" encoding="UTF-8" standalone="no"?>
<!DOCTYPE svg PUBLIC "-//W3C//DTD SVG 1.1//EN" "http://www.w3.org/Graphics/SVG/1.1/DTD/svg11.dtd">
<svg width="128.40" height="181.68" viewBox="0.00 0.00 535.00 757.00" xmlns="http://www.w3.org/2000/svg" xmlns:xlink="http://www.w3.org/1999/xlink">
<g stroke-linecap="round" transform="translate(44.00, 155.00)" id="68-우산">
<path d="M207.28,142.31 C207.28,142.31 207.53,140.86 207.53,140.86" fill="none" stroke="rgb(255, 0, 0)" stroke-width="3.33" stroke-opacity="1.00" stroke-linejoin="round"/>
<path d="M208.76,139.08 C208.76,139.08 208.50,137.69 208.50,137.69 C208.71,137.43 208.86,137.25 208.94,137.18 C209.19,136.94 209.57,136.83 209.87,136.84 C208.44,138.25 202.26,143.34 200.80,145.08 C199.32,146.86 187.81,162.42 183.45,168.71 C175.62,180.90 166.57,195.06 165.10,196.95 C165.10,196.95 165.18,195.86 165.18,195.86" fill="none" stroke="rgb(255, 0, 0)" stroke-width="3.33" stroke-opacity="1.00" stroke-linejoin="round"/>
<path d="M210.28,141.89 C210.34,141.33 210.44,140.84 210.61,140.41 C211.02,139.38 211.58,138.41 212.04,137.40 C212.19,137.05 212.27,136.78 212.27,136.60 C210.47,137.38 206.35,145.23 201.72,155.96 C197.60,165.74 191.86,186.35 191.06,190.07 C190.62,191.95 189.98,193.89 189.68,194.46 C189.68,194.46 189.69,194.06 189.69,194.06" fill="none" stroke="rgb(255, 0, 0)" stroke-width="3.33" stroke-opacity="1.00" stroke-linejoin="round"/>
<path d="M214.53,145.13 C214.80,144.01 215.06,142.89 215.32,141.77 C215.58,140.70 215.71,140.15 215.72,140.11 C215.81,139.57 216.02,138.21 216.20,137.91 C216.37,139.23 214.83,158.87 214.40,167.04 C214.15,174.56 213.83,186.67 214.01,191.65 C214.01,191.65 212.37,189.79 212.37,189.79" fill="none" stroke="rgb(255, 0, 0)" stroke-width="3.33" stroke-opacity="1.00" stroke-linejoin="round"/>
<path d="M213.47,139.58 C213.47,139.58 213.50,137.64 213.50,137.64 C213.83,137.85 219.07,149.59 221.95,154.79 C229.69,168.36 244.79,194.93 243.81,195.00 C243.81,195.00 242.94,194.16 242.94,194.16" fill="none" stroke="rgb(255, 0, 0)" stroke-width="3.33" stroke-opacity="1.00" stroke-linejoin="round"/>
<path d="M215.64,138.47 C215.64,138.47 215.31,139.01 215.31,139.01 C215.31,139.01 215.46,138.57 215.46,138.57 C217.76,141.64 219.30,143.01 222.03,143.91 C224.93,144.85 234.98,151.52 241.07,156.77 C246.77,161.80 258.25,172.04 260.93,174.78 C265.13,179.10 272.29,189.82 272.07,190.01 C272.07,190.01 271.15,189.27 271.15,189.27" fill="none" stroke="rgb(255, 0, 0)" stroke-width="3.33" stroke-opacity="1.00" stroke-linejoin="round"/>
<path d="M175.09,198.19 C175.40,197.66 175.64,197.30 175.82,197.12 C176.00,196.94 176.37,196.67 176.92,196.31" fill="none" stroke="rgb(255, 0, 0)" stroke-width="3.33" stroke-opacity="1.00" stroke-linejoin="round"/>
<path d="M173.84,195.19 C173.52,195.22 172.86,195.09 172.47,194.89 C171.89,194.58 170.15,194.20 169.77,194.04 C172.28,192.81 177.27,192.54 180.40,192.39 C185.77,192.05 206.55,190.51 211.34,190.50 C217.00,190.49 253.65,191.25 269.11,191.22 C273.16,191.28 277.48,191.66 280.38,192.13 C280.38,192.13 280.49,192.46 280.49,192.46" fill="none" stroke="rgb(255, 0, 0)" stroke-width="3.33" stroke-opacity="1.00" stroke-linejoin="round"/>
<path d="M231.07,201.84 C230.78,201.05 230.93,199.38 231.16,198.17 C231.27,197.59 231.33,197.22 231.35,197.04 C231.48,195.26 231.68,194.87 231.91,194.66 C231.46,198.05 237.16,235.13 238.27,250.19 C238.99,260.83 239.15,266.32 239.28,268.31 C239.28,268.31 239.63,265.23 239.63,265.23" fill="none" stroke="rgb(255, 0, 0)" stroke-width="3.33" stroke-opacity="1.00" stroke-linejoin="round"/>
<path d="M239.43,267.89 C239.43,267.89 239.62,266.03 239.62,266.03 C239.62,266.03 239.90,272.07 239.90,272.07 C239.90,272.07 239.94,266.89 239.94,266.89 C238.23,267.19 237.58,270.23 237.77,270.44 C237.77,270.44 239.56,265.72 239.56,265.72 C239.56,265.72 239.25,265.53 239.25,265.53 C239.25,265.53 239.12,265.60 239.12,265.60" fill="none" stroke="rgb(255, 0, 0)" stroke-width="3.33" stroke-opacity="1.00" stroke-linejoin="round"/>
<path d="M212.36,131.50 C212.36,131.50 210.67,131.08 210.67,131.08 C209.89,132.76 209.64,133.94 209.95,135.05 C210.26,136.07 211.24,137.57 211.96,138.05 C212.76,138.53 214.62,138.32 215.33,137.65 C216.03,136.95 216.27,135.02 215.87,133.89 C215.48,132.93 213.99,131.26 212.98,130.55 C212.72,130.38 212.30,130.15 211.74,129.89 C211.74,129.89 211.83,129.83 211.83,129.83" fill="none" stroke="rgb(255, 0, 0)" stroke-width="3.33" stroke-opacity="1.00" stroke-linejoin="round"/>
</g>
</svg>
