<?xml version="1.0" encoding="UTF-8" standalone="no"?>
<!DOCTYPE svg PUBLIC "-//W3C//DTD SVG 1.1//EN" "http://www.w3.org/Graphics/SVG/1.1/DTD/svg11.dtd">
<svg width="128.40" height="181.68" viewBox="0.00 0.00 535.00 757.00" xmlns="http://www.w3.org/2000/svg" xmlns:xlink="http://www.w3.org/1999/xlink">
<g stroke-linecap="round" transform="translate(44.00, 155.00)" id="69-사람">
<path d="M196.40,292.67 C196.40,292.67 195.97,292.44 195.97,292.44 C195.97,292.44 195.89,292.54 195.89,292.54 C195.89,292.54 196.40,292.69 196.40,292.69 C196.40,292.69 196.51,293.39 196.51,293.39 C196.16,292.50 195.05,287.02 195.06,284.53 C195.08,282.37 195.81,274.25 196.33,271.28 C196.79,268.79 198.68,263.14 200.89,261.27 C201.75,260.57 204.28,259.72 206.87,258.96 C206.92,258.69 206.28,254.30 207.07,249.44 C207.46,247.16 209.44,241.15 210.28,239.54 C211.31,237.60 214.81,234.20 216.26,233.58 C218.29,232.77 221.49,232.51 222.88,233.30 C225.32,234.75 227.67,239.51 228.49,242.08 C230.23,247.63 232.38,259.76 232.39,260.71 C232.39,260.71 230.65,259.13 230.65,259.13" fill="none" stroke="rgb(255, 165, 0)" stroke-width="3.57" stroke-opacity="1.00" stroke-linejoin="round"/>
<path d="M232.21,257.16 C232.21,257.16 230.81,257.51 230.81,257.51 C230.97,257.52 233.68,257.89 234.89,260.11 C236.88,263.82 238.95,275.19 239.43,282.96 C239.72,288.02 239.49,289.85 239.15,291.03 C238.89,290.59 238.72,290.32 238.66,290.21 C238.60,290.11 238.56,290.02 238.53,289.96" fill="none" stroke="rgb(255, 165, 0)" stroke-width="3.57" stroke-opacity="1.00" stroke-linejoin="round"/>
<path d="M210.67,302.16 C210.73,300.41 210.78,299.72 210.97,298.55 C211.17,297.39 211.26,296.43 211.22,296.19 C213.46,308.14 214.98,317.74 214.12,321.02 C214.12,321.02 212.59,320.52 212.59,320.52 C212.59,320.52 210.96,324.66 210.96,324.66 C212.24,325.44 216.78,323.88 220.34,321.64 C223.41,319.68 224.99,318.27 225.88,317.22 C225.70,316.87 224.85,316.06 223.86,315.39 C223.57,315.20 223.09,314.91 222.40,314.52" fill="none" stroke="rgb(255, 165, 0)" stroke-width="3.57" stroke-opacity="1.00" stroke-linejoin="round"/>
<path d="M218.68,301.84 C218.65,301.27 218.63,300.73 218.62,300.23 C218.59,298.27 218.65,296.47 218.65,296.52 C218.65,296.52 221.64,315.76 221.64,315.76 C221.60,315.40 221.58,315.17 221.57,315.08 C221.56,314.99 221.56,314.90 221.56,314.83" fill="none" stroke="rgb(255, 165, 0)" stroke-width="3.57" stroke-opacity="1.00" stroke-linejoin="round"/>
<path d="M229.02,295.73 C229.17,295.20 229.59,293.85 229.64,293.53 C229.73,293.01 229.87,291.72 230.10,291.51 C230.54,292.38 230.65,303.94 231.54,309.63 C232.12,313.16 233.24,315.08 234.08,315.77 C234.08,315.77 237.87,316.03 237.87,316.03 C237.89,315.34 237.83,314.56 237.65,313.78 C237.43,312.88 233.79,310.97 233.47,310.92 C233.47,310.92 233.29,311.01 233.29,311.01 C233.29,311.01 233.29,311.18 233.29,311.18" fill="none" stroke="rgb(255, 165, 0)" stroke-width="3.57" stroke-opacity="1.00" stroke-linejoin="round"/>
</g>
</svg>
