<?xml version="1.0" encoding="UTF-8" standalone="no"?>
<!DOCTYPE svg PUBLIC "-//W3C//DTD SVG 1.1//EN" "http://www.w3.org/Graphics/SVG/1.1/DTD/svg11.dtd">
<svg width="64.20" height="90.84" viewBox="0.00 0.00 535.00 757.00" xmlns="http://www.w3.org/2000/svg" xmlns:xlink="http://www.w3.org/1999/xlink">
<g stroke-linecap="round" transform="translate(44.00, 154.00)" id="7-풀">
<path d="M79.28,493.79 C79.61,492.08 79.68,490.55 79.65,490.26 C79.62,489.92 79.49,489.01 79.28,487.52" fill="none" stroke="rgb(203, 50, 50)" stroke-width="3.29" stroke-opacity="1.00" stroke-linejoin="round"/>
<path d="M78.92,483.47 C78.92,483.47 78.73,482.36 78.73,482.36 C78.73,482.36 78.55,482.55 78.55,482.55 C78.69,486.56 80.76,502.58 82.35,507.31 C82.42,507.52 87.42,521.05 88.13,523.26 C88.13,523.26 87.50,520.09 87.50,520.09" fill="none" stroke="rgb(203, 50, 50)" stroke-width="3.29" stroke-opacity="1.00" stroke-linejoin="round"/>
<path d="M87.39,491.57 C86.15,492.09 85.43,492.79 84.90,494.25 C82.76,500.14 80.54,509.21 80.18,515.17 C80.04,517.59 80.03,523.84 80.35,524.44 C80.35,524.44 81.31,524.74 81.31,524.74" fill="none" stroke="rgb(203, 50, 50)" stroke-width="3.29" stroke-opacity="1.00" stroke-linejoin="round"/>
<path d="M96.97,527.31 C96.97,527.31 96.23,527.31 96.23,527.31 C96.87,518.14 97.10,508.92 96.43,500.97 C95.45,490.61 95.09,488.96 94.84,488.29 C94.72,492.53 97.27,506.70 99.97,512.21 C101.26,514.79 104.67,519.07 107.66,521.19 C107.66,521.19 108.27,520.48 108.27,520.48" fill="none" stroke="rgb(203, 50, 50)" stroke-width="3.29" stroke-opacity="1.00" stroke-linejoin="round"/>
<path d="M111.34,505.21 C111.34,505.21 111.16,505.21 111.16,505.21 C110.94,506.92 110.99,516.47 111.08,518.21 C111.35,522.65 111.88,524.84 112.15,525.51 C112.15,525.51 112.68,525.82 112.68,525.82" fill="none" stroke="rgb(203, 50, 50)" stroke-width="3.29" stroke-opacity="1.00" stroke-linejoin="round"/>
<path d="M125.34,487.52 C123.47,489.00 122.90,492.08 122.58,495.75 C122.25,500.24 123.04,517.07 124.58,520.67 C125.89,523.60 128.69,526.25 130.12,526.59 C131.30,526.10 132.68,522.02 133.18,519.03 C134.11,513.20 135.95,489.87 136.03,489.05 C135.71,496.10 135.11,511.13 135.78,515.38 C136.43,519.26 138.06,524.02 139.55,526.11 C139.88,526.56 142.12,529.01 142.75,529.27 C143.17,529.45 144.14,529.65 145.68,529.89" fill="none" stroke="rgb(203, 50, 50)" stroke-width="3.29" stroke-opacity="1.00" stroke-linejoin="round"/>
<path d="M172.13,494.89 C172.13,494.89 171.67,494.52 171.67,494.52 C170.96,495.08 170.38,495.80 169.54,497.29 C166.81,502.15 163.60,512.87 162.75,519.55 C161.90,526.52 162.67,529.15 162.99,529.69 C162.99,529.69 165.02,529.37 165.02,529.37" fill="none" stroke="rgb(203, 50, 50)" stroke-width="3.29" stroke-opacity="1.00" stroke-linejoin="round"/>
<path d="M185.03,494.89 C185.02,495.50 185.05,496.56 185.16,497.99 C185.29,499.81 185.94,505.30 186.15,508.74 C186.45,514.29 186.37,518.72 185.63,521.16 C184.58,524.55 182.52,529.99 182.53,529.95 C182.53,529.95 183.88,527.34 183.88,527.34" fill="none" stroke="rgb(203, 50, 50)" stroke-width="3.29" stroke-opacity="1.00" stroke-linejoin="round"/>
<path d="M185.40,530.26 C185.40,530.26 184.66,529.42 184.66,529.42 C185.15,527.75 187.60,522.60 188.30,520.55 C189.69,516.42 192.71,501.41 193.48,499.63 C193.59,499.36 193.97,498.52 194.61,497.11 C194.17,507.36 194.97,518.97 196.63,524.37 C197.74,527.86 200.29,531.67 201.33,532.17 C201.33,532.17 202.42,531.04 202.42,531.04" fill="none" stroke="rgb(203, 50, 50)" stroke-width="3.29" stroke-opacity="1.00" stroke-linejoin="round"/>
<path d="M214.87,502.26 C214.03,502.31 212.88,504.62 212.57,507.91 C212.07,513.86 212.53,524.69 213.36,525.88 C213.36,525.88 215.61,521.79 215.61,521.79" fill="none" stroke="rgb(203, 50, 50)" stroke-width="3.29" stroke-opacity="1.00" stroke-linejoin="round"/>
<path d="M225.56,481.63 C225.56,481.63 225.19,481.63 225.19,481.63 C224.61,482.02 224.22,483.44 224.09,486.09 C224.05,486.73 223.17,508.32 222.04,513.68 C221.36,516.87 219.57,522.14 218.59,523.40 C218.59,523.40 221.51,517.37 221.51,517.37" fill="none" stroke="rgb(203, 50, 50)" stroke-width="3.29" stroke-opacity="1.00" stroke-linejoin="round"/>
<path d="M234.77,500.79 C233.69,501.30 231.61,502.51 230.99,503.37 C229.65,505.24 228.76,512.23 228.65,514.73 C228.01,530.44 230.91,536.40 231.15,536.47 C231.15,536.47 232.00,534.78 232.00,534.78" fill="none" stroke="rgb(203, 50, 50)" stroke-width="3.29" stroke-opacity="1.00" stroke-linejoin="round"/>
<path d="M243.24,496.36 C243.18,496.36 243.12,496.36 243.06,496.36 C243.00,496.36 242.94,496.36 242.88,496.36 C242.88,496.39 242.88,498.17 242.88,499.54 C242.75,507.80 241.62,516.74 239.49,523.34 C238.45,526.50 235.23,532.68 233.61,534.87 C233.61,534.87 234.03,532.84 234.03,532.84" fill="none" stroke="rgb(203, 50, 50)" stroke-width="3.29" stroke-opacity="1.00" stroke-linejoin="round"/>
<path d="M251.72,535.79 C251.72,535.79 251.90,535.79 251.90,535.79 C252.90,535.22 255.94,530.45 257.20,527.83 C260.02,521.86 266.62,495.90 267.19,493.05 C265.83,504.85 264.08,521.37 264.48,526.24 C264.93,531.25 267.76,539.07 267.88,539.31 C267.88,539.31 268.24,534.41 268.24,534.41" fill="none" stroke="rgb(203, 50, 50)" stroke-width="3.29" stroke-opacity="1.00" stroke-linejoin="round"/>
<path d="M279.72,533.21 C279.72,533.21 278.34,533.85 278.34,533.85 C277.87,533.13 277.93,515.63 278.33,510.88 C278.63,507.68 279.98,502.21 280.92,500.48 C282.84,497.11 287.51,493.22 288.83,492.71 C288.87,492.82 285.99,507.38 285.65,513.54 C285.47,517.09 285.67,521.94 286.09,524.40 C286.69,527.58 288.81,529.81 291.88,532.10" fill="none" stroke="rgb(203, 50, 50)" stroke-width="3.29" stroke-opacity="1.00" stroke-linejoin="round"/>
<path d="M303.30,490.10 C303.30,490.10 302.93,490.10 302.93,490.10 C300.69,492.65 298.07,501.36 297.76,506.46 C297.61,509.16 297.76,513.27 298.29,516.69 C298.83,520.03 300.35,523.49 301.40,524.21 C301.80,524.46 302.24,524.55 302.95,524.48 C303.80,524.29 305.03,519.95 306.05,513.67 C308.24,499.82 309.45,493.19 310.29,491.25 C310.29,491.25 310.92,491.82 310.92,491.82" fill="none" stroke="rgb(203, 50, 50)" stroke-width="3.29" stroke-opacity="1.00" stroke-linejoin="round"/>
<path d="M329.83,490.10 C327.78,492.12 326.22,496.36 325.50,499.91 C324.31,506.03 323.52,517.26 323.76,524.55 C324.01,531.37 325.70,534.54 326.53,535.79 C326.53,535.79 327.54,533.18 327.54,533.18" fill="none" stroke="rgb(203, 50, 50)" stroke-width="3.29" stroke-opacity="1.00" stroke-linejoin="round"/>
<path d="M342.73,499.68 C342.20,500.69 341.95,505.18 342.07,510.81 C342.27,516.79 345.22,527.92 347.37,531.92 C348.04,533.16 348.60,533.89 349.36,534.62 C349.24,525.18 349.55,516.43 351.41,510.99 C352.66,507.46 356.56,501.21 359.27,498.24 C364.44,492.68 370.25,490.97 370.74,490.88 C370.94,490.85 371.28,490.75 371.76,490.58" fill="none" stroke="rgb(203, 50, 50)" stroke-width="3.29" stroke-opacity="1.00" stroke-linejoin="round"/>
<path d="M385.10,494.15 C385.10,494.15 383.70,494.26 383.70,494.26 C382.83,495.66 378.48,511.36 377.24,517.73 C376.30,522.63 376.24,531.79 376.68,534.37 C376.68,534.37 377.57,534.05 377.57,534.05" fill="none" stroke="rgb(203, 50, 50)" stroke-width="3.29" stroke-opacity="1.00" stroke-linejoin="round"/>
<path d="M404.26,493.05 C404.14,493.47 403.95,494.67 403.75,496.42 C402.52,507.85 398.32,525.98 397.04,528.89 C397.04,528.89 397.81,525.79 397.81,525.79" fill="none" stroke="rgb(203, 50, 50)" stroke-width="3.29" stroke-opacity="1.00" stroke-linejoin="round"/>
<path d="M405.73,507.42 C405.73,507.42 406.47,506.31 406.47,506.31 C406.04,507.99 405.77,509.18 405.40,511.14 C404.08,518.00 401.01,531.28 400.94,537.97 C400.94,537.97 401.28,538.36 401.28,538.36" fill="none" stroke="rgb(203, 50, 50)" stroke-width="3.29" stroke-opacity="1.00" stroke-linejoin="round"/>
</g>
</svg>
