<?xml version="1.0" encoding="UTF-8" standalone="no"?>
<!DOCTYPE svg PUBLIC "-//W3C//DTD SVG 1.1//EN" "http://www.w3.org/Graphics/SVG/1.1/DTD/svg11.dtd">
<svg width="64.20" height="90.84" viewBox="0.00 0.00 535.00 757.00" xmlns="http://www.w3.org/2000/svg" xmlns:xlink="http://www.w3.org/1999/xlink">
<g stroke-linecap="round" transform="translate(154.00, 266.00)" id="7-사람">
<path d="M73.01,-87.77 C72.72,-86.67 72.60,-85.60 72.61,-83.77 C72.63,-80.28 73.02,-75.05 73.55,-72.45 C73.85,-71.04 75.34,-65.19 75.51,-64.26 C75.51,-64.26 75.78,-65.79 75.78,-65.79" fill="none" stroke="rgb(255, 133, 0)" stroke-width="3.29" stroke-opacity="1.00" stroke-linejoin="round"/>
<path d="M83.08,-88.86 C82.87,-86.31 82.79,-80.40 82.73,-76.92 C82.69,-75.39 82.63,-73.38 82.64,-72.85 C82.64,-72.85 82.97,-72.92 82.97,-72.92" fill="none" stroke="rgb(255, 133, 0)" stroke-width="3.29" stroke-opacity="1.00" stroke-linejoin="round"/>
<path d="M97.31,-91.71 C95.96,-90.81 94.83,-89.95 93.92,-89.01 C91.43,-86.42 88.95,-82.16 88.33,-80.15 C87.31,-76.72 86.96,-71.49 87.08,-70.34 C87.13,-69.92 87.29,-69.33 87.55,-68.57" fill="none" stroke="rgb(255, 133, 0)" stroke-width="3.29" stroke-opacity="1.00" stroke-linejoin="round"/>
<path d="M101.47,-87.77 C100.31,-87.45 98.09,-85.12 96.57,-81.17 C94.71,-76.23 95.12,-72.80 95.43,-72.45 C95.56,-72.30 95.91,-72.03 96.49,-71.63" fill="none" stroke="rgb(255, 133, 0)" stroke-width="3.29" stroke-opacity="1.00" stroke-linejoin="round"/>
<path d="M106.72,-95.21 C105.30,-94.71 104.33,-94.11 103.55,-93.13 C102.00,-91.15 98.78,-78.13 99.09,-74.84 C99.13,-74.45 99.27,-73.36 99.52,-71.59 C99.52,-71.59 101.25,-71.13 101.25,-71.13" fill="none" stroke="rgb(255, 133, 0)" stroke-width="3.29" stroke-opacity="1.00" stroke-linejoin="round"/>
<path d="M108.91,-88.43 C107.94,-88.07 106.91,-86.86 106.10,-83.35 C104.90,-77.99 104.71,-71.58 104.77,-71.21 C104.81,-70.95 104.96,-70.57 105.21,-70.06" fill="none" stroke="rgb(255, 133, 0)" stroke-width="3.29" stroke-opacity="1.00" stroke-linejoin="round"/>
<path d="M115.92,-91.49 C114.53,-90.63 113.67,-89.93 112.31,-87.44 C111.78,-86.46 110.03,-82.89 109.62,-81.93 C109.18,-80.90 108.54,-79.06 108.18,-77.95" fill="none" stroke="rgb(255, 133, 0)" stroke-width="3.29" stroke-opacity="1.00" stroke-linejoin="round"/>
<path d="M128.18,-89.74 C126.00,-88.80 122.84,-85.53 121.21,-83.23 C117.14,-77.33 117.06,-71.57 117.21,-70.96 C117.21,-70.96 118.26,-70.74 118.26,-70.74" fill="none" stroke="rgb(255, 133, 0)" stroke-width="3.29" stroke-opacity="1.00" stroke-linejoin="round"/>
<path d="M122.49,-81.64 C122.49,-81.64 122.60,-81.75 122.60,-81.75 C122.60,-81.69 122.59,-81.56 122.54,-81.37 C121.82,-78.13 121.15,-72.88 121.41,-71.53 C121.41,-71.53 122.77,-71.60 122.77,-71.60" fill="none" stroke="rgb(255, 133, 0)" stroke-width="3.29" stroke-opacity="1.00" stroke-linejoin="round"/>
<path d="M139.12,-87.33 C138.01,-87.04 134.91,-84.49 132.46,-81.33 C127.29,-74.56 127.07,-72.73 127.20,-72.31 C127.20,-72.31 128.83,-72.45 128.83,-72.45" fill="none" stroke="rgb(255, 133, 0)" stroke-width="3.29" stroke-opacity="1.00" stroke-linejoin="round"/>
<path d="M134.53,-78.14 C134.36,-78.07 134.07,-77.84 133.98,-77.58 C133.88,-77.28 133.69,-75.29 133.68,-74.58 C133.67,-72.75 134.37,-72.10 134.95,-71.85" fill="none" stroke="rgb(255, 133, 0)" stroke-width="3.29" stroke-opacity="1.00" stroke-linejoin="round"/>
<path d="M145.69,-82.52 C145.51,-82.44 143.74,-81.62 142.24,-78.43 C141.91,-77.71 139.19,-71.37 138.07,-67.24 C138.07,-67.24 138.89,-66.50 138.89,-66.50" fill="none" stroke="rgb(255, 133, 0)" stroke-width="3.29" stroke-opacity="1.00" stroke-linejoin="round"/>
<path d="M148.76,-80.55 C147.79,-78.75 147.15,-75.90 146.82,-71.99 C146.69,-70.48 146.35,-66.65 146.35,-66.33 C146.35,-66.08 146.40,-65.88 146.50,-65.73" fill="none" stroke="rgb(255, 133, 0)" stroke-width="3.29" stroke-opacity="1.00" stroke-linejoin="round"/>
<path d="M77.39,-61.94 C77.39,-61.94 77.28,-62.27 77.28,-62.27 C77.28,-62.27 77.08,-62.38 77.08,-62.38 C77.08,-62.38 76.52,-52.53 76.52,-52.53 C76.41,-52.59 73.84,-54.78 72.56,-54.95 C71.94,-55.02 70.48,-53.75 70.17,-52.87 C69.25,-49.97 69.78,-43.54 70.69,-41.54 C71.53,-39.82 73.20,-38.49 73.99,-38.21 C74.32,-38.10 75.00,-37.96 76.02,-37.80" fill="none" stroke="rgb(255, 133, 0)" stroke-width="3.29" stroke-opacity="1.00" stroke-linejoin="round"/>
<path d="M81.33,-28.45 C81.50,-26.24 81.65,-24.84 81.99,-22.60 C83.36,-13.50 86.03,-2.88 86.39,2.40 C86.54,4.40 86.99,6.83 87.48,7.79 C88.01,8.76 93.32,12.67 95.36,13.92 C97.62,15.28 102.89,17.06 105.84,17.47 C111.97,18.28 121.64,16.83 125.38,15.47 C129.38,13.97 140.09,6.92 141.84,5.63 C143.71,4.22 148.00,0.43 149.81,-2.21 C151.03,-4.03 152.55,-7.73 152.81,-10.13 C153.85,-20.50 151.41,-44.48 152.70,-50.11 C153.13,-50.25 155.89,-49.24 156.75,-49.22 C157.81,-49.24 159.88,-50.51 160.71,-52.24 C161.62,-54.24 161.15,-57.23 159.74,-58.24 C157.49,-59.77 152.48,-59.97 152.20,-60.02 C152.05,-60.31 151.92,-62.46 151.79,-63.31 C151.70,-63.91 151.01,-66.36 150.80,-67.10" fill="none" stroke="rgb(255, 133, 0)" stroke-width="3.29" stroke-opacity="1.00" stroke-linejoin="round"/>
<path d="M93.59,-49.68 C93.59,-49.68 93.15,-49.46 93.15,-49.46 C93.86,-51.31 95.20,-53.79 96.20,-54.39 C97.23,-54.94 98.59,-54.43 102.13,-51.98 C102.58,-51.67 103.69,-50.97 103.88,-50.71" fill="none" stroke="rgb(255, 133, 0)" stroke-width="3.29" stroke-opacity="1.00" stroke-linejoin="round"/>
<path d="M93.81,-42.46 C93.81,-42.46 93.59,-42.46 93.59,-42.46 C93.67,-42.25 95.54,-41.52 96.79,-41.40 C98.40,-41.27 101.12,-42.07 102.59,-43.23 C103.90,-44.29 104.74,-45.10 104.99,-45.52 C104.99,-45.52 104.45,-46.25 104.45,-46.25" fill="none" stroke="rgb(255, 133, 0)" stroke-width="3.29" stroke-opacity="1.00" stroke-linejoin="round"/>
<path d="M102.13,-49.68 C102.13,-49.68 101.80,-49.68 101.80,-49.68 C101.80,-49.68 101.36,-49.30 101.36,-49.30 C101.36,-49.30 101.35,-46.28 101.35,-46.28 C101.35,-46.28 102.22,-49.28 102.22,-49.28 C102.22,-49.28 100.84,-48.40 100.84,-48.40" fill="none" stroke="rgb(255, 133, 0)" stroke-width="3.29" stroke-opacity="1.00" stroke-linejoin="round"/>
<path d="M121.61,-51.65 C121.61,-51.65 121.39,-51.76 121.39,-51.76 C121.50,-52.50 122.57,-53.91 124.05,-54.51 C127.06,-55.67 133.79,-54.83 134.36,-54.11 C134.36,-54.11 134.15,-53.30 134.15,-53.30" fill="none" stroke="rgb(255, 133, 0)" stroke-width="3.29" stroke-opacity="1.00" stroke-linejoin="round"/>
<path d="M122.71,-49.02 C122.71,-49.02 121.87,-48.59 121.87,-48.59 C121.87,-48.59 125.77,-50.12 125.77,-50.12 C125.77,-50.12 125.61,-49.96 125.61,-49.96" fill="none" stroke="rgb(255, 133, 0)" stroke-width="3.29" stroke-opacity="1.00" stroke-linejoin="round"/>
<path d="M122.71,-48.15 C122.71,-48.15 121.99,-47.60 121.99,-47.60 C121.79,-46.99 122.38,-44.96 123.13,-44.12 C123.85,-43.38 125.99,-43.04 128.76,-43.12 C131.95,-43.25 136.35,-44.62 137.99,-46.49 C138.55,-47.16 139.16,-48.20 139.29,-48.55 C139.29,-48.55 138.69,-50.12 138.69,-50.12" fill="none" stroke="rgb(255, 133, 0)" stroke-width="3.29" stroke-opacity="1.00" stroke-linejoin="round"/>
<path d="M115.48,-31.73 C115.44,-31.77 115.41,-31.80 115.37,-31.84 C115.34,-31.88 115.30,-31.91 115.26,-31.95 C116.51,-27.76 117.26,-25.04 117.35,-23.33 C117.51,-19.23 115.81,-18.10 115.51,-18.06 C115.51,-18.06 114.82,-20.13 114.82,-20.13" fill="none" stroke="rgb(255, 133, 0)" stroke-width="3.29" stroke-opacity="1.00" stroke-linejoin="round"/>
<path d="M97.53,-11.37 C97.71,-11.50 100.52,-12.10 101.93,-12.22 C103.92,-12.35 108.27,-10.86 109.83,-10.54 C112.74,-9.97 117.75,-9.98 121.41,-11.18 C123.95,-12.12 130.25,-14.28 132.96,-14.12 C133.57,-14.08 140.74,-13.69 141.60,-13.98 C140.63,-12.26 139.65,-5.69 139.46,-5.17 C139.07,-4.17 136.61,-3.22 133.22,-2.03 C130.50,-1.10 126.42,-0.03 124.22,0.37 C121.45,0.86 117.33,0.83 115.33,0.16 C112.14,-1.05 107.87,-2.25 106.04,-2.38 C103.96,-2.54 101.64,-4.10 100.60,-6.44 C99.56,-8.85 99.78,-10.47 100.10,-11.09 C101.11,-11.13 105.65,-7.34 106.19,-6.94 C108.14,-5.52 111.55,-5.12 114.51,-5.46 C118.07,-5.87 122.88,-6.65 123.58,-6.87 C126.79,-7.89 130.87,-10.67 132.71,-11.64 C134.72,-12.69 137.81,-13.48 139.12,-13.78" fill="none" stroke="rgb(255, 133, 0)" stroke-width="3.29" stroke-opacity="1.00" stroke-linejoin="round"/>
<path d="M107.82,19.28 C107.82,19.24 107.82,19.35 107.82,19.39 C107.83,22.13 108.22,28.88 108.51,31.77 C108.58,32.42 108.65,33.07 108.72,33.72 C108.72,33.72 109.27,33.17 109.27,33.17" fill="none" stroke="rgb(255, 133, 0)" stroke-width="3.29" stroke-opacity="1.00" stroke-linejoin="round"/>
<path d="M134.31,14.46 C134.31,14.46 133.40,14.06 133.40,14.06 C133.21,15.08 133.22,28.65 132.77,30.89 C132.71,31.16 132.64,31.30 132.56,31.32" fill="none" stroke="rgb(255, 133, 0)" stroke-width="3.29" stroke-opacity="1.00" stroke-linejoin="round"/>
<path d="M9.80,-19.07 C10.14,-19.34 11.59,-22.10 12.02,-24.76 C12.40,-27.20 11.73,-30.57 11.11,-31.34 C9.25,-33.54 4.40,-36.52 1.36,-37.31 C-0.22,-37.69 -2.56,-37.62 -4.33,-37.15 C-7.61,-36.20 -11.98,-32.26 -13.42,-29.71 C-14.64,-27.42 -15.67,-23.94 -15.48,-22.38 C-15.21,-20.56 -12.79,-18.61 -11.18,-18.50 C-10.29,-18.45 -8.07,-18.56 -7.54,-18.69 C-7.34,-18.74 -6.95,-18.87 -6.37,-19.07" fill="none" stroke="rgb(255, 133, 0)" stroke-width="3.29" stroke-opacity="1.00" stroke-linejoin="round"/>
<path d="M-16.08,-20.42 C-16.46,-20.50 -17.18,-20.79 -17.31,-20.81 C-19.71,-21.17 -22.99,-20.18 -25.12,-18.70 C-27.49,-17.03 -30.62,-13.67 -31.60,-11.53 C-32.40,-9.70 -33.37,-5.04 -33.32,-3.35 C-33.24,-1.61 -31.68,0.97 -30.42,1.63 C-27.50,3.11 -22.51,3.43 -20.74,3.02 C-20.74,3.02 -22.02,2.56 -22.02,2.56" fill="none" stroke="rgb(255, 133, 0)" stroke-width="3.29" stroke-opacity="1.00" stroke-linejoin="round"/>
<path d="M-23.35,2.49 C-23.88,2.22 -24.43,2.04 -25.07,1.95 C-25.89,1.87 -27.51,3.30 -28.33,5.15 C-29.02,6.76 -29.33,11.12 -28.89,12.83 C-28.39,14.61 -26.10,17.14 -24.54,17.84 C-23.47,18.31 -19.46,18.99 -17.05,18.39 C-15.94,18.10 -14.37,17.15 -13.05,16.17 C-13.44,17.44 -13.24,21.19 -12.37,22.72 C-11.91,23.45 -10.37,24.82 -9.50,25.03 C-8.19,25.32 -5.63,25.25 -3.83,24.94 C-3.29,24.85 -2.61,24.73 -1.79,24.60" fill="none" stroke="rgb(255, 133, 0)" stroke-width="3.29" stroke-opacity="1.00" stroke-linejoin="round"/>
<path d="M0.10,23.79 C7.20,23.79 9.10,23.85 11.77,24.73 C13.94,25.47 19.44,27.20 21.71,28.76 C24.66,30.84 33.18,44.62 36.22,51.18 C37.57,53.80 40.05,57.00 42.25,58.79 C45.12,61.09 53.23,66.29 53.88,66.66 C56.89,68.34 62.49,70.10 66.41,70.45 C71.76,70.89 81.98,69.86 83.22,69.64 C83.72,69.55 84.50,69.36 85.55,69.08" fill="none" stroke="rgb(255, 133, 0)" stroke-width="3.29" stroke-opacity="1.00" stroke-linejoin="round"/>
<path d="M12.23,-25.81 C12.23,-25.81 12.23,-26.15 12.23,-26.15 C12.70,-26.86 14.79,-27.94 17.13,-27.97 C19.32,-27.97 23.11,-27.42 26.55,-25.68 C28.46,-24.70 32.62,-22.09 33.61,-21.10 C36.29,-18.36 39.04,-11.80 39.09,-8.87 C39.08,-6.31 36.48,1.90 36.13,3.47 C35.54,6.20 35.46,10.28 35.86,12.76 C36.25,15.12 37.21,18.69 38.62,22.22 C40.04,25.65 42.75,29.01 45.27,30.92 C47.78,32.77 51.76,34.62 55.61,35.52 C58.76,36.22 64.74,37.61 67.17,38.60 C70.03,39.80 74.77,42.37 76.00,42.90 C78.35,43.87 82.41,44.21 85.45,43.79 C88.36,43.37 93.69,42.02 96.14,41.06 C98.49,40.11 104.43,35.17 105.87,34.96 C106.34,34.90 107.58,34.81 107.72,34.86 C108.42,35.12 109.11,35.39 109.81,35.65" fill="none" stroke="rgb(255, 133, 0)" stroke-width="3.29" stroke-opacity="1.00" stroke-linejoin="round"/>
<path d="M133.00,29.72 C135.02,31.74 149.04,35.15 153.69,35.27 C166.02,35.55 189.45,30.57 190.11,30.41 C192.95,29.68 197.33,27.88 199.45,26.01 C201.04,24.56 203.82,18.69 204.79,15.57 C206.45,9.17 210.05,-3.53 212.49,-7.38 C214.76,-10.90 218.48,-15.19 221.49,-17.95 C224.53,-20.67 229.08,-23.31 232.94,-24.56 C238.98,-26.45 249.00,-26.56 253.36,-25.51 C253.58,-25.46 253.80,-25.38 254.03,-25.27" fill="none" stroke="rgb(255, 133, 0)" stroke-width="3.29" stroke-opacity="1.00" stroke-linejoin="round"/>
<path d="M253.76,-26.89 C253.76,-26.89 253.25,-27.03 253.25,-27.03 C252.47,-27.84 252.36,-33.34 252.48,-34.78 C252.62,-36.15 254.33,-38.92 256.68,-40.66 C259.08,-42.38 265.11,-44.97 267.85,-45.17 C270.33,-45.30 274.93,-44.22 276.30,-43.16 C277.79,-41.94 279.79,-38.15 280.17,-35.62 C280.49,-33.23 279.42,-29.20 277.80,-27.23 C276.70,-25.93 273.41,-23.22 272.63,-22.58 C273.90,-23.10 276.75,-22.91 278.00,-22.26 C279.33,-21.51 281.92,-18.47 283.01,-16.01 C283.98,-13.76 284.05,-10.43 282.86,-9.42 C281.79,-8.59 277.48,-8.25 276.72,-8.28 C278.04,-7.72 283.05,-4.53 284.23,-3.02 C285.00,-2.01 285.72,0.37 285.62,1.54 C285.47,2.71 284.27,4.77 283.28,5.60 C282.42,6.30 280.50,6.84 277.57,7.41 C280.37,8.73 282.67,11.56 283.15,13.21 C283.48,14.49 283.42,17.36 283.03,18.67 C282.66,19.87 281.29,21.36 280.52,21.59 C278.59,22.08 274.66,20.52 272.44,18.46 C264.24,10.72 259.53,4.76 259.51,4.75 C256.51,6.73 253.19,8.58 249.79,9.35 C247.25,9.90 238.46,9.77 237.70,9.80 C235.77,9.90 234.12,11.79 232.82,14.31 C231.64,16.67 229.16,21.67 228.67,23.40 C227.97,25.96 227.18,33.74 226.69,35.92 C225.94,39.17 223.83,44.76 222.46,47.16 C221.20,49.32 217.43,53.69 214.84,55.98 C210.05,60.15 198.76,66.28 194.50,67.74 C189.93,69.27 178.70,69.67 172.37,68.60 C167.56,67.77 159.04,64.00 157.07,61.84 C154.83,59.32 153.27,55.48 153.08,54.97 C153.04,54.84 153.00,54.78 152.94,54.79" fill="none" stroke="rgb(255, 133, 0)" stroke-width="3.29" stroke-opacity="1.00" stroke-linejoin="round"/>
<path d="M65.23,72.78 C64.91,72.51 64.37,71.99 64.19,71.76 C64.12,71.66 64.04,71.51 63.94,71.29 C63.64,71.28 63.43,71.28 63.31,71.28 C63.19,71.28 62.50,71.28 62.32,71.28 C62.32,71.36 66.87,85.52 69.19,96.85 C71.13,106.80 72.01,126.72 73.23,131.67 C73.91,134.30 76.31,138.91 77.22,140.37 C78.25,141.97 81.52,145.40 82.40,146.31" fill="none" stroke="rgb(255, 133, 0)" stroke-width="3.29" stroke-opacity="1.00" stroke-linejoin="round"/>
<path d="M173.71,71.28 C173.69,72.80 173.51,78.01 172.27,82.57 C170.74,88.14 168.17,105.51 168.05,111.14 C167.88,122.78 169.54,138.86 169.73,140.89 C169.75,141.04 169.77,141.24 169.79,141.49" fill="none" stroke="rgb(255, 133, 0)" stroke-width="3.29" stroke-opacity="1.00" stroke-linejoin="round"/>
<path d="M180.34,128.53 C180.27,128.55 180.22,128.55 180.19,128.53 C180.07,128.51 179.97,128.56 179.89,128.68 C179.65,129.04 174.93,136.93 172.77,139.88 C169.58,144.69 167.45,148.20 166.06,152.13 C164.64,156.16 161.72,162.62 161.66,162.93 C161.61,163.20 161.51,163.99 161.36,165.30" fill="none" stroke="rgb(255, 133, 0)" stroke-width="3.29" stroke-opacity="1.00" stroke-linejoin="round"/>
<path d="M164.97,149.93 C164.97,149.93 165.27,149.93 165.27,149.93 C164.82,151.01 163.30,152.72 161.48,153.60 C159.23,154.66 142.86,157.12 139.94,157.31 C135.26,157.51 124.55,158.04 120.53,157.59 C117.10,157.19 102.36,154.48 95.12,153.20 C89.46,152.18 81.26,149.35 79.03,149.46 C77.70,149.55 75.89,150.43 75.08,151.35 C74.34,152.22 74.05,153.49 74.07,154.95 C75.12,156.87 78.94,158.27 81.81,159.14 C90.94,161.72 125.90,165.02 129.60,165.28 C138.32,165.87 149.81,165.09 155.79,163.17 C158.45,162.30 163.25,159.66 163.28,159.60 C163.40,159.41 163.76,158.69 164.37,157.46" fill="none" stroke="rgb(255, 133, 0)" stroke-width="3.29" stroke-opacity="1.00" stroke-linejoin="round"/>
<path d="M77.88,155.95 C77.88,155.95 77.73,155.35 77.73,155.35 C77.73,155.35 77.20,155.46 77.20,155.46 C77.09,155.71 71.22,176.04 70.60,178.70 C70.01,181.34 68.00,198.42 67.16,205.94 C66.27,214.15 65.76,247.53 64.48,261.44 C62.03,281.71 60.36,299.63 59.73,303.23 C59.73,303.23 60.40,301.20 60.40,301.20" fill="none" stroke="rgb(255, 133, 0)" stroke-width="3.29" stroke-opacity="1.00" stroke-linejoin="round"/>
<path d="M64.32,305.12 C67.06,306.44 72.76,309.12 75.28,309.58 C77.30,309.93 79.83,310.23 79.86,310.17 C79.86,310.17 79.77,308.63 79.77,308.63" fill="none" stroke="rgb(255, 133, 0)" stroke-width="3.29" stroke-opacity="1.00" stroke-linejoin="round"/>
<path d="M120.67,223.46 C120.67,223.46 120.37,223.56 120.37,223.56 C119.42,224.98 118.03,227.94 116.87,232.19 C116.28,234.41 115.09,249.04 114.50,254.98 C114.46,255.61 112.98,274.82 112.20,281.28 C111.75,284.97 109.18,298.79 109.14,298.99 C109.06,299.49 109.16,301.11 109.22,302.11" fill="none" stroke="rgb(255, 133, 0)" stroke-width="3.29" stroke-opacity="1.00" stroke-linejoin="round"/>
<path d="M123.69,227.67 C123.69,227.67 122.18,227.67 122.18,227.67 C123.20,227.79 125.06,229.94 126.05,232.37 C127.28,235.43 136.64,277.81 138.53,285.72 C140.14,292.43 143.13,312.24 143.58,314.16 C146.54,315.68 154.13,317.21 157.65,317.61 C158.84,317.73 160.99,317.97 161.96,318.08" fill="none" stroke="rgb(255, 133, 0)" stroke-width="3.29" stroke-opacity="1.00" stroke-linejoin="round"/>
<path d="M174.31,150.53 C174.28,150.63 174.32,165.73 174.28,168.28 C174.22,171.44 172.87,181.29 172.96,190.70 C173.08,202.87 178.00,239.35 178.69,244.26 C183.79,279.33 190.68,314.47 191.79,320.49 C186.80,321.17 171.13,320.84 170.60,320.49 C170.39,320.35 169.62,319.74 168.29,318.68" fill="none" stroke="rgb(255, 133, 0)" stroke-width="3.29" stroke-opacity="1.00" stroke-linejoin="round"/>
<path d="M285.69,487.37 C285.93,486.51 286.17,485.65 286.41,484.79 C286.71,483.69 287.31,481.49 287.61,480.38 C288.09,478.58 288.93,475.40 289.30,474.01 C289.50,473.25 289.70,472.48 289.90,471.72" fill="none" stroke="rgb(255, 133, 0)" stroke-width="3.29" stroke-opacity="1.00" stroke-linejoin="round"/>
<path d="M65.59,306.90 C65.59,306.90 65.44,306.90 65.44,306.90 C65.44,306.90 65.29,307.05 65.29,307.05 C65.27,307.47 65.62,313.47 65.56,315.85 C65.36,322.03 60.18,348.25 60.18,353.67 C60.01,353.90 56.86,354.70 54.61,355.26 C51.18,356.23 48.07,358.57 47.00,360.50 C46.02,362.48 45.05,369.74 46.18,373.11 C46.66,374.43 48.42,376.71 49.41,377.39 C51.13,378.50 57.84,378.47 58.74,378.47 C62.94,378.48 73.62,382.98 79.11,384.58 C83.00,385.70 89.81,386.68 92.65,386.74 C96.18,386.80 102.64,385.57 104.92,384.30 C107.15,383.00 110.48,379.17 111.37,376.47 C112.10,374.15 111.14,368.02 109.61,365.93 C107.70,363.42 102.95,359.71 99.66,358.40 C94.65,356.48 82.69,356.63 82.40,356.47 C81.74,355.86 83.10,336.82 83.13,336.29 C83.31,332.67 82.95,312.66 83.28,311.44 C83.37,311.13 83.67,310.22 84.20,308.70" fill="none" stroke="rgb(255, 133, 0)" stroke-width="3.29" stroke-opacity="1.00" stroke-linejoin="round"/>
<path d="M155.97,318.91 C155.97,318.91 155.07,319.21 155.07,319.21 C155.07,319.21 161.03,355.84 161.03,355.84 C156.67,355.27 150.22,355.35 148.64,355.67 C146.72,356.09 144.25,356.98 143.44,357.60 C141.58,359.12 139.11,363.27 138.30,365.78 C137.42,368.66 136.44,375.49 136.66,379.40 C136.78,381.13 137.41,384.62 137.85,385.78 C138.42,387.18 139.81,388.64 140.98,389.03 C141.59,389.22 149.45,390.78 152.16,392.39 C152.98,392.88 156.81,395.44 157.59,395.81 C160.02,396.96 163.88,396.62 165.81,396.00 C169.49,394.79 183.85,386.92 189.14,384.99 C193.96,383.25 198.81,380.84 200.43,378.26 C201.78,375.99 202.53,368.91 202.22,367.18 C202.03,366.24 201.11,364.12 200.56,363.53 C198.19,361.07 189.55,359.62 177.91,358.37 C175.80,358.15 174.43,357.89 172.47,357.39 C171.55,356.23 170.66,345.54 170.03,332.95 C169.77,328.15 169.99,326.44 170.38,324.32" fill="none" stroke="rgb(255, 133, 0)" stroke-width="3.29" stroke-opacity="1.00" stroke-linejoin="round"/>
</g>
</svg>
