<?xml version="1.0" encoding="UTF-8" standalone="no"?>
<!DOCTYPE svg PUBLIC "-//W3C//DTD SVG 1.1//EN" "http://www.w3.org/Graphics/SVG/1.1/DTD/svg11.dtd">
<svg width="64.20" height="90.84" viewBox="0.00 0.00 535.00 757.00" xmlns="http://www.w3.org/2000/svg" xmlns:xlink="http://www.w3.org/1999/xlink">
<g stroke-linecap="round" transform="translate(156.00, 266.00)" id="7-비">
<path d="M-44.93,-225.21 C-44.27,-215.32 -44.05,-202.19 -43.50,-197.99 C-42.51,-190.48 -40.55,-175.51 -39.58,-168.04 C-38.70,-160.66 -37.21,-145.85 -35.48,-138.48 C-33.71,-131.36 -29.65,-115.27 -29.57,-115.01 C-29.41,-114.53 -29.03,-113.47 -28.42,-111.83" fill="none" stroke="rgb(0, 5, 255)" stroke-width="3.29" stroke-opacity="1.00" stroke-linejoin="round"/>
<path d="M39.60,-227.29 C39.64,-227.20 39.33,-225.27 39.24,-224.43 C38.77,-220.05 38.12,-201.80 37.87,-194.39 C37.50,-185.67 38.11,-178.95 39.68,-167.33 C40.38,-161.93 41.21,-150.32 42.90,-139.19 C43.45,-135.56 43.69,-132.60 43.71,-131.33 C43.73,-130.52 43.74,-129.71 43.76,-128.90" fill="none" stroke="rgb(0, 5, 255)" stroke-width="3.29" stroke-opacity="1.00" stroke-linejoin="round"/>
<path d="M-0.59,-98.41 C-0.59,-98.41 -2.17,-98.41 -2.17,-98.41 C-3.36,-95.44 -2.10,-75.30 -1.21,-58.31 C-1.21,-58.31 1.38,-57.53 1.38,-57.53" fill="none" stroke="rgb(0, 5, 255)" stroke-width="3.29" stroke-opacity="1.00" stroke-linejoin="round"/>
<path d="M-54.63,54.72 C-55.08,55.23 -55.63,61.88 -55.39,64.25 C-54.78,69.89 -46.98,93.91 -46.66,95.26 C-46.48,96.01 -43.74,114.76 -41.90,122.22 C-38.54,135.31 -34.51,155.85 -34.39,156.15 C-34.22,156.54 -32.39,159.39 -31.40,161.02" fill="none" stroke="rgb(0, 5, 255)" stroke-width="3.29" stroke-opacity="1.00" stroke-linejoin="round"/>
<path d="M-5.44,135.09 C-5.55,135.74 -5.67,136.40 -5.78,137.05 C-6.50,141.20 -6.86,159.85 -6.77,167.32 C-6.45,177.05 -4.20,209.66 -3.98,222.00 C-3.98,222.00 -2.72,221.74 -2.72,221.74" fill="none" stroke="rgb(0, 5, 255)" stroke-width="3.29" stroke-opacity="1.00" stroke-linejoin="round"/>
<path d="M203.81,-224.51 C203.81,-224.51 203.81,-223.82 203.81,-223.82 C199.64,-223.70 196.03,-223.11 193.43,-221.18 C191.35,-219.56 187.17,-214.17 184.81,-210.10 C180.74,-202.98 175.76,-190.90 173.93,-183.21 C171.89,-174.53 170.81,-165.96 170.11,-155.64 C169.60,-147.22 170.77,-123.73 170.91,-120.20 C170.98,-117.68 170.41,-116.29 168.51,-114.41 C167.99,-113.92 167.29,-113.20 166.40,-112.27" fill="none" stroke="rgb(0, 5, 255)" stroke-width="3.29" stroke-opacity="1.00" stroke-linejoin="round"/>
<path d="M138.68,-241.84 C138.68,-241.84 137.32,-241.58 137.32,-241.58 C135.87,-238.02 134.62,-228.97 133.34,-217.42 C131.16,-196.12 129.83,-175.73 129.67,-158.73 C129.67,-158.73 130.89,-157.94 130.89,-157.94" fill="none" stroke="rgb(0, 5, 255)" stroke-width="3.29" stroke-opacity="1.00" stroke-linejoin="round"/>
<path d="M219.06,-169.08 C219.06,-169.08 218.36,-169.08 218.36,-169.08 C217.75,-168.01 217.62,-167.23 217.88,-165.35 C219.98,-149.41 225.43,-109.80 226.00,-103.50 C226.93,-92.85 225.39,-71.50 225.34,-70.19 C225.34,-70.19 226.68,-72.77 226.68,-72.77" fill="none" stroke="rgb(0, 5, 255)" stroke-width="3.29" stroke-opacity="1.00" stroke-linejoin="round"/>
<path d="M275.87,-135.13 C275.30,-136.72 274.96,-137.82 274.83,-138.42 C274.63,-139.44 274.46,-144.86 274.35,-145.68 C274.17,-147.05 273.37,-149.65 272.55,-151.90 C272.55,-151.90 271.60,-152.27 271.60,-152.27 C270.24,-151.76 268.64,-147.42 267.80,-143.76 C267.00,-140.14 264.67,-124.09 264.08,-116.00 C263.36,-101.84 264.09,-77.09 264.79,-66.14 C264.79,-66.14 265.48,-65.85 265.48,-65.85" fill="none" stroke="rgb(0, 5, 255)" stroke-width="3.29" stroke-opacity="1.00" stroke-linejoin="round"/>
<path d="M238.46,72.73 C238.07,72.75 236.47,72.72 236.38,72.73 C235.59,72.82 235.03,74.36 234.70,77.01 C233.75,85.23 234.76,113.52 236.55,135.54 C236.91,140.58 237.08,182.78 237.12,201.99 C237.07,227.09 236.39,231.67 236.04,233.38 C236.04,233.38 232.91,235.56 232.91,235.56" fill="none" stroke="rgb(0, 5, 255)" stroke-width="3.29" stroke-opacity="1.00" stroke-linejoin="round"/>
<path d="M289.04,122.62 C286.95,123.32 285.87,124.42 285.40,126.60 C284.26,131.94 281.14,167.75 280.76,182.72 C280.68,193.57 281.02,202.72 281.57,204.86 C281.57,204.86 284.79,206.43 284.79,206.43" fill="none" stroke="rgb(0, 5, 255)" stroke-width="3.29" stroke-opacity="1.00" stroke-linejoin="round"/>
<path d="M296.66,216.85 C296.66,216.85 297.00,216.85 297.00,216.85 C297.37,218.09 297.74,224.06 297.91,227.62 C298.06,231.11 297.57,233.95 297.29,234.67 C297.29,234.67 295.84,233.84 295.84,233.84" fill="none" stroke="rgb(0, 5, 255)" stroke-width="3.29" stroke-opacity="1.00" stroke-linejoin="round"/>
<path d="M207.97,118.46 C207.97,118.46 207.28,118.46 207.28,118.46 C206.44,118.93 205.94,120.36 205.89,122.85 C205.85,125.01 209.83,145.19 210.48,149.51 C211.58,157.10 212.27,171.43 211.70,177.76 C211.43,180.57 210.25,184.49 209.61,185.33 C209.61,185.33 209.36,180.82 209.36,180.82" fill="none" stroke="rgb(0, 5, 255)" stroke-width="3.29" stroke-opacity="1.00" stroke-linejoin="round"/>
</g>
</svg>
