<?xml version="1.0" encoding="UTF-8" standalone="no"?>
<!DOCTYPE svg PUBLIC "-//W3C//DTD SVG 1.1//EN" "http://www.w3.org/Graphics/SVG/1.1/DTD/svg11.dtd">
<svg width="128.40" height="181.68" viewBox="0.00 0.00 535.00 757.00" xmlns="http://www.w3.org/2000/svg" xmlns:xlink="http://www.w3.org/1999/xlink">
<g stroke-linecap="round" transform="translate(44.00, 155.00)" id="70-구름-2">
<path d="M170.59,169.79 C170.59,169.79 171.19,169.02 171.19,169.02" fill="none" stroke="rgb(0, 113, 48)" stroke-width="2.28" stroke-opacity="1.00" stroke-linejoin="round"/>
<path d="M170.81,166.39 C170.81,166.39 170.70,166.86 170.70,166.86 C170.70,166.86 170.83,167.05 170.83,167.05 C170.83,167.05 170.80,167.11 170.80,167.11 C170.08,166.87 165.25,168.46 164.01,169.97 C163.24,170.95 162.72,172.34 162.70,173.12 C162.43,172.73 161.42,172.36 160.52,172.79 C159.55,173.31 156.20,177.98 156.21,179.17 C156.37,182.61 156.64,183.13 156.88,183.38 C157.24,183.31 157.32,184.50 158.16,184.89 C158.60,185.09 160.84,185.31 161.56,185.38 C161.84,185.41 165.04,187.44 166.62,187.59 C171.07,187.88 185.90,181.50 188.55,179.30 C188.78,179.10 189.11,178.87 189.52,178.59 C189.97,178.55 191.26,177.60 189.77,172.20 C189.36,170.82 188.11,169.91 185.16,169.48 C184.65,169.39 174.06,167.64 172.34,167.85 C171.21,167.99 169.36,168.71 168.49,169.18" fill="none" stroke="rgb(0, 113, 48)" stroke-width="2.28" stroke-opacity="1.00" stroke-linejoin="round"/>
<path d="M162.87,174.81 C162.87,174.81 163.15,173.98 163.15,173.98 C163.15,173.98 159.95,183.93 159.95,183.93 C159.95,183.93 162.37,180.35 162.37,180.35" fill="none" stroke="rgb(0, 113, 48)" stroke-width="2.28" stroke-opacity="1.00" stroke-linejoin="round"/>
<path d="M166.17,171.66 C166.17,171.66 166.28,170.44 166.28,170.44 C164.98,173.26 163.14,178.46 162.71,180.23 C161.91,183.60 162.00,185.00 162.17,185.29 C162.37,185.10 162.51,184.94 162.60,184.80 C162.84,184.38 164.78,180.54 165.27,179.64" fill="none" stroke="rgb(0, 113, 48)" stroke-width="2.28" stroke-opacity="1.00" stroke-linejoin="round"/>
<path d="M170.90,170.33 C170.90,170.33 170.84,170.23 170.84,170.23 C170.84,170.23 166.16,183.79 166.16,183.79 C166.16,183.79 167.27,182.42 167.27,182.42" fill="none" stroke="rgb(0, 113, 48)" stroke-width="2.28" stroke-opacity="1.00" stroke-linejoin="round"/>
<path d="M172.17,171.98 C172.17,171.98 171.80,171.34 171.80,171.34 C171.53,171.65 170.18,176.30 169.31,179.32 C168.80,181.28 168.24,183.46 168.15,183.69 C168.14,183.56 168.27,182.96 168.48,182.49 C168.62,182.15 170.36,178.85 171.25,177.14" fill="none" stroke="rgb(0, 113, 48)" stroke-width="2.28" stroke-opacity="1.00" stroke-linejoin="round"/>
<path d="M174.24,171.41 C174.24,171.41 174.25,171.20 174.25,171.20 C174.26,171.19 172.97,174.87 171.89,178.80 C171.20,181.30 170.99,182.51 171.06,183.27 C171.06,183.27 172.41,181.47 172.41,181.47" fill="none" stroke="rgb(0, 113, 48)" stroke-width="2.28" stroke-opacity="1.00" stroke-linejoin="round"/>
<path d="M176.65,172.49 C176.65,172.49 177.06,170.63 177.06,170.63 C176.75,170.70 175.03,174.91 174.42,177.21 C173.95,179.02 173.70,181.09 173.78,181.74 C173.78,181.74 173.94,181.74 173.94,181.74 C174.07,181.55 174.16,181.42 174.20,181.36 C174.24,181.29 174.28,181.20 174.34,181.08" fill="none" stroke="rgb(0, 113, 48)" stroke-width="2.28" stroke-opacity="1.00" stroke-linejoin="round"/>
<path d="M179.38,171.12 C179.38,171.12 179.41,170.36 179.41,170.36 C179.11,170.59 177.50,175.65 177.22,177.46 C177.06,178.48 177.06,180.03 177.14,180.20 C177.14,180.20 177.29,180.30 177.29,180.30 C177.29,180.30 177.84,179.45 177.84,179.45" fill="none" stroke="rgb(0, 113, 48)" stroke-width="2.28" stroke-opacity="1.00" stroke-linejoin="round"/>
<path d="M182.05,170.62 C182.05,170.62 181.86,170.47 181.86,170.47 C181.35,170.74 179.69,175.02 178.76,178.51 C178.23,180.56 178.06,181.52 178.07,182.43 C178.18,182.23 178.27,182.08 178.32,181.98 C178.38,181.87 178.47,181.67 178.61,181.38" fill="none" stroke="rgb(0, 113, 48)" stroke-width="2.28" stroke-opacity="1.00" stroke-linejoin="round"/>
<path d="M183.47,171.41 C183.47,171.41 183.33,171.47 183.33,171.47 C182.68,172.41 180.67,178.69 180.60,180.42 C180.60,180.67 180.64,180.99 180.73,181.40 C180.73,181.40 181.01,181.57 181.01,181.57 C181.23,181.31 181.39,181.12 181.48,180.98 C181.57,180.84 181.73,180.56 181.95,180.15" fill="none" stroke="rgb(0, 113, 48)" stroke-width="2.28" stroke-opacity="1.00" stroke-linejoin="round"/>
<path d="M186.81,171.92 C186.37,172.67 186.08,173.20 185.93,173.51 C185.70,174.02 184.56,177.10 184.38,177.62 C184.18,178.24 183.67,179.80 183.41,180.23 C183.35,179.98 183.38,179.70 183.57,179.31 C183.61,179.22 183.72,179.00 183.89,178.67" fill="none" stroke="rgb(0, 113, 48)" stroke-width="2.28" stroke-opacity="1.00" stroke-linejoin="round"/>
<path d="M188.62,172.58 C187.71,173.78 187.06,175.45 186.44,178.22 C186.24,179.15 185.99,179.60 185.30,180.66" fill="none" stroke="rgb(0, 113, 48)" stroke-width="2.28" stroke-opacity="1.00" stroke-linejoin="round"/>
<path d="M189.54,173.95 C188.98,175.37 188.63,176.31 188.48,176.78 C188.33,177.25 188.19,177.91 188.04,178.75" fill="none" stroke="rgb(0, 113, 48)" stroke-width="2.28" stroke-opacity="1.00" stroke-linejoin="round"/>
</g>
</svg>
