<?xml version="1.0" encoding="UTF-8" standalone="no"?>
<!DOCTYPE svg PUBLIC "-//W3C//DTD SVG 1.1//EN" "http://www.w3.org/Graphics/SVG/1.1/DTD/svg11.dtd">
<svg width="128.40" height="181.68" viewBox="0.00 0.00 535.00 757.00" xmlns="http://www.w3.org/2000/svg" xmlns:xlink="http://www.w3.org/1999/xlink">
<g stroke-linecap="round" transform="translate(44.00, 155.00)" id="70-사람">
<path d="M208.01,229.77 C207.29,230.10 206.84,230.35 206.64,230.52 C206.03,231.07 204.98,234.89 205.36,236.31 C205.89,238.09 208.81,239.85 210.39,239.50 C211.61,239.17 212.44,236.97 212.11,235.22 C211.71,233.33 209.76,229.44 208.56,228.67 C207.48,228.02 206.16,228.63 205.90,229.35 C205.90,229.35 206.03,229.72 206.03,229.72" fill="none" stroke="rgb(255, 165, 0)" stroke-width="2.28" stroke-opacity="1.00" stroke-linejoin="round"/>
<path d="M209.98,241.38 C209.98,241.38 209.77,240.93 209.77,240.93 C209.77,240.93 209.98,240.83 209.98,240.83 C210.52,241.32 211.67,254.62 212.14,257.38 C212.70,260.55 214.41,265.77 216.01,267.20 C218.13,269.01 221.75,270.80 223.76,270.66 C226.88,270.37 235.08,266.58 236.07,265.76 C237.12,264.87 238.53,258.85 238.86,257.91" fill="none" stroke="rgb(255, 165, 0)" stroke-width="2.28" stroke-opacity="1.00" stroke-linejoin="round"/>
<path d="M216.32,231.92 C216.32,231.92 215.83,231.44 215.83,231.44 C219.34,231.70 222.15,232.07 225.22,233.08 C228.65,234.22 233.08,236.42 234.74,238.01 C236.43,239.70 238.07,244.09 238.84,247.88 C239.46,250.99 240.30,255.66 240.77,258.84 C241.03,260.60 241.39,262.68 241.38,262.64 C241.38,262.64 241.31,262.48 241.31,262.48" fill="none" stroke="rgb(255, 165, 0)" stroke-width="2.28" stroke-opacity="1.00" stroke-linejoin="round"/>
<path d="M224.44,271.22 C224.44,271.09 224.44,271.00 224.44,270.95 C224.44,270.84 224.43,270.74 224.43,270.63 C224.43,270.58 224.43,270.49 224.43,270.36 C224.43,270.36 224.51,270.29 224.51,270.29 C224.50,270.49 225.48,271.21 225.79,274.51 C225.95,276.35 225.58,278.38 225.03,278.52 C218.16,280.11 217.08,280.77 216.74,281.13 C216.86,282.04 218.35,283.65 220.20,283.69 C222.95,283.71 227.56,282.25 227.95,282.01 C227.95,282.01 227.59,270.70 227.59,270.70 C227.59,270.70 227.64,270.97 227.64,270.97" fill="none" stroke="rgb(255, 165, 0)" stroke-width="2.28" stroke-opacity="1.00" stroke-linejoin="round"/>
<path d="M220.46,271.66 C220.37,271.33 220.32,271.12 220.31,271.03 C220.29,270.92 220.30,270.68 220.30,270.63 C220.30,270.63 220.33,276.97 220.33,276.97 C220.33,276.97 211.66,278.57 211.66,278.57 C211.93,279.38 212.85,279.89 214.52,279.89 C221.60,279.90 223.56,278.80 223.67,278.75 C223.67,278.75 223.39,279.65 223.39,279.65" fill="none" stroke="rgb(255, 165, 0)" stroke-width="2.28" stroke-opacity="1.00" stroke-linejoin="round"/>
<path d="M225.80,239.21 C225.80,239.21 226.08,238.62 226.08,238.62 C226.50,238.87 226.40,239.44 225.35,241.24 C224.12,243.15 218.98,246.76 218.45,247.24 C217.34,248.25 216.43,250.19 216.69,251.04 C217.01,251.94 218.96,252.62 220.56,252.31 C221.86,252.05 227.40,249.66 229.07,248.62 C230.45,247.75 230.60,246.42 230.60,246.28 C230.60,246.28 230.22,247.10 230.22,247.10" fill="none" stroke="rgb(255, 165, 0)" stroke-width="2.28" stroke-opacity="1.00" stroke-linejoin="round"/>
<path d="M217.60,233.55 C217.60,233.55 217.82,233.01 217.82,233.01 C217.29,234.43 216.08,237.66 215.40,239.47 C214.86,240.89 213.75,243.77 213.52,244.28 C213.39,244.56 213.15,245.06 212.78,245.78 C212.76,245.73 212.76,245.66 212.77,245.58 C212.99,244.48 213.87,242.23 215.75,237.90" fill="none" stroke="rgb(255, 165, 0)" stroke-width="2.28" stroke-opacity="1.00" stroke-linejoin="round"/>
<path d="M217.79,234.18 C217.19,235.23 216.58,236.62 216.03,238.33 C215.80,239.03 214.41,243.83 214.26,244.58 C214.16,245.08 214.04,245.98 213.89,247.28 C213.89,247.28 214.04,247.45 214.04,247.45 C214.22,247.25 214.30,247.13 214.62,246.31 C215.36,244.44 216.82,240.78 217.53,238.98" fill="none" stroke="rgb(255, 165, 0)" stroke-width="2.28" stroke-opacity="1.00" stroke-linejoin="round"/>
<path d="M219.51,234.31 C219.51,234.31 219.67,234.13 219.67,234.13 C219.67,234.13 219.76,234.13 219.76,234.13 C218.06,237.59 215.79,242.62 214.64,245.30 C214.02,246.77 213.77,247.45 213.73,247.70 C214.30,246.27 215.80,242.44 216.32,241.04 C217.83,236.97 218.35,235.04 218.46,234.29 C218.46,234.29 210.71,247.56 210.71,247.56 C210.71,247.56 215.94,234.50 215.94,234.50 C215.94,234.50 212.82,248.77 212.82,248.77 C212.82,248.77 218.35,236.06 218.35,236.06 C218.35,236.06 213.76,251.92 213.76,251.92 C213.76,251.92 219.92,237.85 219.92,237.85 C219.92,237.85 216.40,248.26 216.40,248.26 C216.40,248.26 221.71,235.38 221.71,235.38 C221.71,235.38 219.99,242.02 219.99,242.02 C219.99,242.02 223.03,236.20 223.03,236.20 C223.03,236.20 221.46,242.25 221.46,242.25 C221.46,242.25 224.24,235.59 224.24,235.59 C224.24,235.59 223.23,240.61 223.23,240.61 C223.23,240.61 225.36,235.83 225.36,235.83 C225.36,235.83 223.95,240.75 223.95,240.75 C223.95,240.75 225.27,236.51 225.27,236.51 C225.27,236.51 223.55,241.66 223.55,241.66 C223.55,241.66 224.03,234.57 224.03,234.57 C224.03,234.57 219.64,240.47 219.64,240.47 C219.64,240.47 221.03,234.05 221.03,234.05 C221.03,234.05 217.10,239.39 217.10,239.39 C217.10,239.39 219.30,233.05 219.30,233.05 C219.30,233.05 215.17,238.79 215.17,238.79 C215.17,238.79 215.38,234.59 215.38,234.59 C215.38,234.59 212.48,240.44 212.48,240.44 C212.48,240.44 214.66,234.46 214.66,234.46 C214.66,234.46 211.92,243.38 211.92,243.38 C211.92,243.38 214.40,239.18 214.40,239.18" fill="none" stroke="rgb(255, 165, 0)" stroke-width="2.28" stroke-opacity="1.00" stroke-linejoin="round"/>
<path d="M216.50,233.52 C216.50,233.52 216.50,232.91 216.50,232.91" fill="none" stroke="rgb(255, 165, 0)" stroke-width="2.28" stroke-opacity="1.00" stroke-linejoin="round"/>
<path d="M215.93,251.39 C215.93,251.39 212.99,257.54 212.99,257.54 C212.99,257.54 214.59,251.72 214.59,251.72 C214.59,251.72 213.51,257.34 213.51,257.34 C213.51,257.34 215.66,254.13 215.66,254.13 C215.66,254.13 214.27,258.90 214.27,258.90 C214.27,258.90 216.88,253.82 216.88,253.82 C216.88,253.82 215.70,260.42 215.70,260.42 C215.70,260.42 218.63,255.30 218.63,255.30 C218.63,255.30 217.07,261.97 217.07,261.97 C217.07,261.97 220.36,254.88 220.36,254.88 C220.36,254.88 217.57,263.95 217.57,263.95 C217.57,263.95 222.50,254.96 222.50,254.96 C222.50,254.96 219.53,265.47 219.53,265.47 C219.53,265.47 224.26,254.99 224.26,254.99 C224.26,254.99 220.37,268.16 220.37,268.16 C220.37,268.16 226.55,253.35 226.55,253.35 C226.55,253.35 223.09,267.38 223.09,267.38 C223.09,267.38 228.38,251.93 228.38,251.93 C228.38,251.93 226.00,266.59 226.00,266.59 C226.00,266.59 232.18,249.31 232.18,249.31 C232.18,249.31 228.59,263.05 228.59,263.05 C228.59,263.05 233.85,247.52 233.85,247.52 C233.85,247.52 230.55,263.17 230.55,263.17 C230.55,263.17 234.45,251.12 234.45,251.12 C234.45,251.12 232.35,263.34 232.35,263.34 C232.35,263.34 236.37,252.02 236.37,252.02 C236.37,252.02 234.78,263.73 234.78,263.73 C234.78,263.73 237.96,254.32 237.96,254.32 C237.96,254.32 236.63,262.50 236.63,262.50 C236.63,262.50 238.32,257.20 238.32,257.20 C238.32,257.20 237.18,263.43 237.18,263.43 C237.18,263.43 237.17,262.97 237.17,262.97" fill="none" stroke="rgb(255, 165, 0)" stroke-width="2.28" stroke-opacity="1.00" stroke-linejoin="round"/>
<path d="M229.23,236.87 C229.28,236.66 229.32,236.51 229.35,236.41 C229.38,236.33 229.46,236.15 229.59,235.86 C229.59,235.86 229.60,235.84 229.59,235.84 C229.59,235.84 228.28,242.13 228.28,242.13 C228.28,242.13 229.52,238.75 229.52,238.75 C229.52,238.75 229.32,243.36 229.32,243.36 C229.32,243.36 231.47,239.48 231.47,239.48 C231.47,239.48 230.96,246.67 230.96,246.67 C230.96,246.67 232.96,239.74 232.96,239.74 C232.96,239.74 231.67,248.97 231.67,248.97 C231.67,248.97 232.95,242.09 232.95,242.09 C232.95,242.09 232.88,248.33 232.88,248.33 C232.88,248.33 234.55,243.60 234.55,243.60 C234.55,243.60 234.14,249.27 234.14,249.27 C234.14,249.27 235.44,244.08 235.44,244.08 C235.44,244.08 235.39,248.73 235.39,248.73 C235.39,248.73 235.68,246.53 235.68,246.53 C235.68,246.53 236.04,250.83 236.04,250.83 C236.04,250.83 236.62,247.79 236.62,247.79 C236.62,247.79 236.81,252.66 236.81,252.66 C236.81,252.66 237.46,248.57 237.46,248.57 C237.46,248.57 237.60,251.90 237.60,251.90 C237.60,251.90 233.79,237.53 233.79,237.53 C233.79,237.53 232.75,243.39 232.75,243.39 C232.75,243.39 233.34,240.43 233.34,240.43 C233.34,240.43 233.99,245.78 233.99,245.78 C235.20,241.34 233.38,238.54 233.21,238.40 C233.21,238.40 230.56,242.43 230.56,242.43 C230.56,242.43 228.64,236.39 228.64,236.39 C228.64,236.39 227.13,241.70 227.13,241.70 C227.13,241.70 226.78,235.20 226.78,235.20 C226.78,235.20 225.00,239.50 225.00,239.50 C225.00,239.50 225.02,235.74 225.02,235.74 C225.02,235.74 223.37,239.33 223.37,239.33 C223.37,239.33 223.50,236.12 223.50,236.12" fill="none" stroke="rgb(255, 165, 0)" stroke-width="2.28" stroke-opacity="1.00" stroke-linejoin="round"/>
<path d="M223.18,243.40 C222.46,243.96 219.82,250.62 218.31,253.06 C218.13,253.35 218.02,253.45 217.98,253.36 C217.98,253.36 221.61,247.98 221.61,247.98 C221.61,247.98 219.97,251.77 219.97,251.77 C219.97,251.77 223.48,245.25 223.48,245.25 C223.48,245.25 222.40,249.55 222.40,249.55 C222.40,249.55 226.52,242.17 226.52,242.17 C226.52,242.17 222.91,251.07 222.91,251.07 C222.91,251.07 226.51,242.12 226.51,242.12 C226.51,242.12 225.25,247.61 225.25,247.61 C225.25,247.61 228.50,242.29 228.50,242.29 C228.50,242.29 227.61,246.01 227.61,246.01 C227.61,246.01 229.02,243.46 229.02,243.46 C229.02,243.46 227.76,248.03 227.76,248.03 C227.76,248.03 230.43,243.12 230.43,243.12 C230.43,243.12 229.68,246.90 229.68,246.90 C229.68,246.90 231.03,246.45 231.03,246.45" fill="none" stroke="rgb(255, 165, 0)" stroke-width="2.28" stroke-opacity="1.00" stroke-linejoin="round"/>
<path d="M231.36,251.44 C231.19,251.38 230.61,251.38 230.29,251.50 C228.53,252.26 224.85,260.99 224.96,261.32 C224.96,261.32 228.36,253.04 228.36,253.04 C228.36,253.04 225.48,265.02 225.48,265.02 C226.65,265.02 227.91,258.82 227.70,258.44 C227.70,258.44 219.40,267.10 219.40,267.10 C219.40,267.10 220.24,259.04 220.24,259.04 C220.24,259.04 216.37,264.85 216.37,264.85 C216.37,264.85 217.01,258.48 217.01,258.48 C217.01,258.48 215.41,263.52 215.41,263.52 C215.41,263.52 215.76,257.92 215.76,257.92 C215.76,257.92 213.28,263.04 213.28,263.04 C213.28,263.04 213.51,257.58 213.51,257.58 C213.51,257.58 213.38,261.48 213.38,261.48 C213.38,261.48 216.09,258.46 216.09,258.46 C216.09,258.46 217.36,264.59 217.36,264.59 C217.95,264.65 218.52,264.37 219.07,263.34 C219.64,262.26 220.94,259.47 221.07,259.30 C221.12,259.85 220.98,265.58 221.60,266.82 C221.68,266.98 221.83,267.07 222.03,267.11 C223.51,266.55 226.21,260.17 226.69,259.04 C226.69,259.04 225.85,267.31 225.85,267.31 C225.85,267.31 231.22,258.10 231.22,258.10 C231.22,258.10 230.22,267.01 230.22,267.01 C230.22,267.01 233.25,258.95 233.25,258.95 C233.25,258.95 232.70,265.53 232.70,265.53 C232.70,265.53 235.95,258.70 235.95,258.70 C235.95,258.70 235.05,264.39 235.05,264.39 C235.05,264.39 237.75,258.19 237.75,258.19 C237.75,258.19 237.54,261.79 237.54,261.79 C237.85,261.80 238.21,261.04 238.55,259.50 C238.76,258.58 238.85,257.80 238.80,257.69" fill="none" stroke="rgb(255, 165, 0)" stroke-width="2.28" stroke-opacity="1.00" stroke-linejoin="round"/>
<path d="M227.24,255.74 C227.24,255.74 227.00,252.11 227.00,252.11 C227.00,252.11 223.36,262.34 223.36,262.34 C223.36,262.34 223.69,255.51 223.69,255.51 C223.69,255.51 220.39,260.83 220.39,260.83 C220.39,260.83 221.99,254.72 221.99,254.72 C221.99,254.72 220.84,260.23 220.84,260.23 C220.84,260.23 221.37,253.48 221.37,253.48 C221.37,253.48 219.36,259.11 219.36,259.11 C219.36,259.11 218.52,255.63 218.52,255.63 C218.52,255.63 214.65,258.13 214.65,258.13 C214.65,258.13 214.70,255.42 214.70,255.42 C214.70,255.42 215.11,257.58 215.11,257.58 C215.11,257.58 215.43,257.59 215.43,257.59 C215.43,257.59 215.69,257.15 215.69,257.15" fill="none" stroke="rgb(255, 165, 0)" stroke-width="2.28" stroke-opacity="1.00" stroke-linejoin="round"/>
<path d="M215.45,240.38 C215.45,240.38 215.51,239.87 215.51,239.87 C215.51,239.87 212.99,249.88 212.99,249.88 C212.99,249.88 218.52,236.39 218.52,236.39 C218.52,236.39 215.09,246.20 215.09,246.20 C215.09,246.20 216.57,237.64 216.57,237.64 C215.11,237.59 212.43,245.46 212.30,246.02 C212.30,246.02 214.54,238.46 214.54,238.46 C214.54,238.46 213.63,244.77 213.63,244.77 C213.63,244.77 214.67,241.59 214.67,241.59 C214.27,242.06 213.23,245.98 212.95,247.65 C212.88,248.07 212.77,248.91 212.62,250.18" fill="none" stroke="rgb(255, 165, 0)" stroke-width="2.28" stroke-opacity="1.00" stroke-linejoin="round"/>
<path d="M215.03,252.36 C215.03,252.36 214.90,250.89 214.90,250.89 C214.90,250.89 214.57,255.22 214.57,255.22 C214.57,255.22 215.13,249.58 215.13,249.58 C215.13,249.58 213.25,252.47 213.25,252.47 C213.25,252.47 212.94,249.11 212.94,249.11 C212.94,249.11 213.37,251.73 213.37,251.73" fill="none" stroke="rgb(255, 165, 0)" stroke-width="2.28" stroke-opacity="1.00" stroke-linejoin="round"/>
</g>
</svg>
