<?xml version="1.0" encoding="UTF-8" standalone="no"?>
<!DOCTYPE svg PUBLIC "-//W3C//DTD SVG 1.1//EN" "http://www.w3.org/Graphics/SVG/1.1/DTD/svg11.dtd">
<svg width="128.40" height="181.68" viewBox="0.00 0.00 535.00 757.00" xmlns="http://www.w3.org/2000/svg" xmlns:xlink="http://www.w3.org/1999/xlink">
<g stroke-linecap="round" transform="translate(44.00, 155.00)" id="70-우산">
<path d="M216.61,192.47 C216.58,192.42 216.57,192.37 216.58,192.33 C216.60,192.28 216.66,192.18 216.76,192.01 C216.56,192.28 215.19,197.67 215.16,197.75 C214.41,199.50 212.58,200.89 211.23,201.40 C208.39,202.49 206.19,203.95 203.93,206.85 C199.15,213.11 197.65,218.67 197.10,221.11 C197.68,220.46 199.93,218.33 200.53,218.31 C201.25,218.33 202.60,220.67 202.79,220.78 C202.79,220.78 207.04,218.60 207.04,218.60 C207.04,218.60 208.64,220.65 208.64,220.65 C209.43,220.65 210.54,219.81 211.00,219.60 C211.17,219.53 215.41,220.48 215.67,220.63 C216.49,221.10 219.00,221.24 219.49,222.07 C219.80,222.62 220.61,224.06 221.03,224.08 C221.45,224.10 222.78,223.46 223.31,223.32 C224.19,223.10 226.34,225.55 227.14,225.86 C227.69,226.05 228.07,225.47 228.02,225.37" fill="none" stroke="rgb(255, 0, 0)" stroke-width="2.28" stroke-opacity="1.00" stroke-linejoin="round"/>
<path d="M217.60,192.94 C217.60,192.94 217.68,191.74 217.68,191.74 C217.71,193.12 217.81,194.36 218.04,195.55 C218.70,198.84 220.07,203.77 221.44,205.52 C223.02,207.24 226.95,211.88 227.49,213.87 C228.81,219.00 228.59,226.14 228.05,227.33 C228.05,227.33 227.97,226.95 227.97,226.95" fill="none" stroke="rgb(255, 0, 0)" stroke-width="2.28" stroke-opacity="1.00" stroke-linejoin="round"/>
<path d="M223.10,225.35 C223.10,225.35 222.88,225.09 222.88,225.09 C222.88,225.09 222.96,224.79 222.96,224.79 C222.96,224.79 223.40,223.70 223.40,223.70 C223.40,223.70 214.38,254.73 214.38,254.73 C214.38,254.73 214.40,253.82 214.40,253.82" fill="none" stroke="rgb(255, 0, 0)" stroke-width="2.28" stroke-opacity="1.00" stroke-linejoin="round"/>
</g>
</svg>
