<?xml version="1.0" encoding="UTF-8" standalone="no"?>
<!DOCTYPE svg PUBLIC "-//W3C//DTD SVG 1.1//EN" "http://www.w3.org/Graphics/SVG/1.1/DTD/svg11.dtd">
<svg width="128.40" height="181.68" viewBox="0.00 0.00 535.00 757.00" xmlns="http://www.w3.org/2000/svg" xmlns:xlink="http://www.w3.org/1999/xlink">
<g stroke-linecap="round" transform="translate(44.00, 155.00)" id="71-가방">
<path d="M272.25,178.15 C272.25,178.15 272.47,177.18 272.47,177.18 C272.70,177.02 272.85,176.89 272.93,176.81 C273.06,176.67 273.21,176.47 273.37,176.20 C273.44,176.08 273.58,175.84 273.78,175.47 C273.81,175.46 273.31,176.43 272.83,177.01 C270.06,180.42 267.70,185.15 267.05,187.54 C266.38,190.10 265.51,197.36 265.50,199.40 C265.49,204.61 266.21,207.66 267.03,209.97 C267.03,209.97 266.69,209.44 266.69,209.44" fill="none" stroke="rgb(0, 255, 255)" stroke-width="4.33" stroke-opacity="1.00" stroke-linejoin="round"/>
<path d="M256.36,216.01 C256.50,215.36 256.63,214.90 256.75,214.63 C256.86,214.35 257.12,213.88 257.52,213.20 C257.83,213.10 258.46,214.16 263.30,236.66 C264.01,240.01 267.18,255.28 268.08,256.83 C268.88,258.09 270.33,258.80 271.33,258.23 C272.57,257.41 274.27,256.29 274.77,256.18 C274.77,256.18 275.11,257.32 275.11,257.32" fill="none" stroke="rgb(0, 255, 255)" stroke-width="4.33" stroke-opacity="1.00" stroke-linejoin="round"/>
<path d="M257.65,212.13 C257.65,212.13 257.53,213.77 257.53,213.77 C258.53,214.35 263.45,213.39 265.70,212.68 C268.97,211.60 269.71,210.72 270.77,209.28 C270.77,209.28 270.10,209.66 270.10,209.66" fill="none" stroke="rgb(0, 255, 255)" stroke-width="4.33" stroke-opacity="1.00" stroke-linejoin="round"/>
<path d="M270.83,188.87 C270.83,188.87 270.64,188.53 270.64,188.53 C270.64,188.53 271.01,185.75 271.01,185.75 C271.01,185.75 270.08,208.11 270.08,208.11 C270.08,208.11 268.65,188.69 268.65,188.69 C268.65,188.69 268.15,208.75 268.15,208.75 C268.15,208.75 268.60,186.83 268.60,186.83 C268.60,186.83 267.08,198.39 267.08,198.39 C267.08,198.39 266.93,198.43 266.93,198.43 C266.93,198.43 266.88,198.13 266.88,198.13" fill="none" stroke="rgb(0, 255, 255)" stroke-width="4.33" stroke-opacity="1.00" stroke-linejoin="round"/>
<path d="M267.08,188.74 C267.08,188.74 266.93,189.05 266.93,189.05 C266.93,189.05 266.72,188.90 266.72,188.90 C266.72,188.90 270.04,181.89 270.04,181.89 C270.04,181.89 270.92,182.28 270.92,182.28 C270.92,182.28 270.74,183.23 270.74,183.23" fill="none" stroke="rgb(0, 255, 255)" stroke-width="4.33" stroke-opacity="1.00" stroke-linejoin="round"/>
<path d="M260.04,218.72 C260.04,218.72 259.68,217.74 259.68,217.74 C259.68,217.74 261.09,215.38 261.09,215.38 C261.09,215.38 260.64,222.44 260.64,222.44 C260.64,222.44 261.89,218.04 261.89,218.04 C261.89,218.04 260.83,222.01 260.83,222.01 C260.83,222.01 262.63,218.44 262.63,218.44 C262.63,218.44 261.73,224.59 261.73,224.59 C261.73,224.59 264.07,218.56 264.07,218.56 C264.07,218.56 262.51,225.07 262.51,225.07 C262.51,225.07 263.54,216.91 263.54,216.91 C263.54,216.91 261.96,220.50 261.96,220.50 C261.96,220.50 262.07,217.35 262.07,217.35 C262.07,217.35 261.28,220.00 261.28,220.00 C261.28,220.00 263.94,218.26 263.94,218.26 C263.94,218.26 264.18,229.35 264.18,229.35 C264.18,229.35 266.81,216.19 266.81,216.19 C266.81,216.19 263.86,229.33 263.86,229.33 C263.86,229.33 265.94,216.87 265.94,216.87 C265.94,216.87 263.92,225.24 263.92,225.24 C263.92,225.24 266.68,216.00 266.68,216.00 C266.68,216.00 264.60,232.61 264.60,232.61 C264.60,232.61 268.16,217.72 268.16,217.72 C268.16,217.72 264.70,236.38 264.70,236.38 C264.70,236.38 268.06,220.34 268.06,220.34 C268.06,220.34 266.77,236.08 266.77,236.08 C266.77,236.08 268.75,222.36 268.75,222.36 C268.75,222.36 266.97,240.26 266.97,240.26 C266.97,240.26 269.83,224.25 269.83,224.25 C269.83,224.25 267.87,244.17 267.87,244.17 C267.87,244.17 269.64,230.82 269.64,230.82 C269.64,230.82 267.01,249.38 267.01,249.38 C267.01,249.38 269.87,232.57 269.87,232.57 C269.87,232.57 268.26,251.75 268.26,251.75 C268.26,251.75 270.52,239.29 270.52,239.29 C270.52,239.29 270.23,252.72 270.23,252.72 C270.23,252.72 271.76,243.40 271.76,243.40 C271.76,243.40 271.22,252.37 271.22,252.37 C271.22,252.37 271.98,244.75 271.98,244.75 C271.98,244.75 271.75,254.68 271.75,254.68 C271.75,254.68 271.98,224.13 271.98,224.13 C271.98,224.13 271.83,246.60 271.83,246.60 C271.83,246.60 270.66,217.84 270.66,217.84 C270.66,217.84 271.09,237.83 271.09,237.83 C271.09,237.83 269.30,219.28 269.30,219.28 C269.30,219.28 269.53,228.25 269.53,228.25 C269.53,228.25 270.02,216.24 270.02,216.24 C270.02,216.24 269.58,224.91 269.58,224.91 C269.58,224.91 269.76,214.24 269.76,214.24 C269.57,214.75 267.91,212.35 261.44,214.33 C261.44,214.33 266.61,214.90 266.61,214.90 C266.61,214.90 261.20,217.26 261.20,217.26 C261.20,217.26 268.40,215.00 268.40,215.00 C268.40,215.00 268.36,221.98 268.36,221.98 C268.36,221.98 269.76,217.70 269.76,217.70 C269.76,217.70 269.91,224.61 269.91,224.61 C269.91,224.61 269.38,217.86 269.38,217.86 C269.38,217.86 271.20,230.33 271.20,230.33 C271.20,230.33 272.13,214.13 272.13,214.13 C272.13,214.13 271.50,225.56 271.50,225.56 C271.50,225.56 269.96,215.98 269.96,215.98 C269.96,215.98 270.90,227.90 270.90,227.90 C270.90,227.90 269.22,220.86 269.22,220.86 C269.22,220.86 267.94,237.64 267.94,237.64 C266.38,236.88 263.09,228.13 262.60,226.79 C262.60,226.79 264.48,249.32 264.48,249.32 C264.48,249.32 262.10,230.22 262.10,230.22 C262.10,230.22 266.15,249.51 266.15,249.51 C266.15,249.51 263.52,237.61 263.52,237.61 C263.52,237.61 269.33,258.13 269.33,258.13 C269.33,258.13 268.95,248.82 268.95,248.82 C268.95,248.82 270.19,253.43 270.19,253.43 C270.19,253.43 271.02,250.07 271.02,250.07 C271.02,250.07 271.74,255.55 271.74,255.55 C271.74,255.55 272.24,252.34 272.24,252.34 C272.24,252.34 271.79,256.52 271.79,256.52 C271.79,256.52 272.34,253.31 272.34,253.31 C272.34,253.31 272.05,257.63 272.05,257.63 C272.05,257.63 272.38,253.90 272.38,253.90 C272.38,253.90 271.79,256.78 271.79,256.78 C271.31,254.82 270.82,253.46 270.16,252.26 C270.08,252.10 270.02,252.00 269.99,251.96" fill="none" stroke="rgb(0, 255, 255)" stroke-width="4.33" stroke-opacity="1.00" stroke-linejoin="round"/>
<path d="M266.76,242.82 C265.93,242.18 264.75,240.84 264.42,239.62 C264.10,238.40 263.84,235.18 263.93,235.28 C263.93,235.28 264.26,247.51 264.26,247.51 C264.26,247.51 260.26,226.40 260.26,226.40 C260.26,226.40 263.22,241.81 263.22,241.81 C263.22,241.81 257.53,222.72 257.53,222.72 C257.53,222.72 261.27,239.25 261.27,239.25 C261.27,239.25 256.06,220.51 256.06,220.51 C256.06,220.51 257.89,222.38 257.89,222.38 C257.89,222.38 254.55,215.67 254.55,215.67 C254.55,215.67 257.73,226.17 257.73,226.17 C257.73,226.17 255.38,215.61 255.38,215.61 C255.15,215.64 256.42,218.39 258.56,218.72 C261.09,219.08 263.42,218.36 263.42,218.20 C263.42,218.20 254.46,219.30 254.46,219.30 C254.46,219.30 257.09,226.83 257.09,226.83 C257.09,226.83 256.16,218.48 256.16,218.48 C256.16,218.48 258.59,225.11 258.59,225.11 C258.59,225.11 257.81,222.49 257.81,222.49 C257.81,222.49 264.87,246.87 264.87,246.87 C264.87,246.87 263.03,238.93 263.03,238.93 C263.03,238.93 265.84,253.99 265.84,253.99 C265.84,253.99 263.54,234.69 263.54,234.69 C265.92,237.18 267.47,246.72 267.52,248.40 C266.59,248.26 265.99,247.60 265.40,245.77 C264.45,242.77 263.51,237.22 263.82,236.62 C263.82,236.62 266.70,247.11 266.70,247.11 C266.70,247.11 262.89,230.22 262.89,230.22 C262.89,230.22 266.72,246.34 266.72,246.34 C265.75,244.99 262.53,237.00 261.67,234.29 C260.95,232.00 259.24,224.32 258.04,221.28 C257.59,220.25 257.02,218.90 256.94,218.49 C256.94,218.49 266.28,214.99 266.28,214.99 C266.28,214.99 256.84,216.55 256.84,216.55 C256.84,216.55 264.41,213.78 264.41,213.78 C264.41,213.78 257.80,215.54 257.80,215.54 C257.80,215.54 264.56,213.36 264.56,213.36 C264.56,213.36 259.27,213.74 259.27,213.74 C259.27,213.74 265.94,211.98 265.94,211.98 C265.94,211.98 257.82,215.14 257.82,215.14 C257.82,215.14 260.31,215.36 260.31,215.36" fill="none" stroke="rgb(0, 255, 255)" stroke-width="4.33" stroke-opacity="1.00" stroke-linejoin="round"/>
</g>
</svg>
