<?xml version="1.0" encoding="UTF-8" standalone="no"?>
<!DOCTYPE svg PUBLIC "-//W3C//DTD SVG 1.1//EN" "http://www.w3.org/Graphics/SVG/1.1/DTD/svg11.dtd">
<svg width="128.40" height="181.68" viewBox="0.00 0.00 535.00 757.00" xmlns="http://www.w3.org/2000/svg" xmlns:xlink="http://www.w3.org/1999/xlink">
<g stroke-linecap="round" transform="translate(44.00, 155.00)" id="71-비">
<path d="M55.35,30.14 C54.95,28.93 54.71,28.06 54.62,27.52 C54.35,25.74 54.69,23.29 55.23,21.80 C55.73,23.94 55.95,38.43 56.56,48.12 C60.59,102.70 61.19,109.19 61.26,110.00 C61.26,110.00 61.14,108.43 61.14,108.43" fill="none" stroke="rgb(0, 113, 48)" stroke-width="4.33" stroke-opacity="1.00" stroke-linejoin="round"/>
<path d="M160.76,-43.30 C160.76,-43.30 157.91,-45.74 157.91,-45.74 C157.26,-37.08 156.96,-29.45 156.98,-19.51 C157.25,-8.18 161.79,34.98 161.70,38.43 C161.60,41.87 159.01,52.46 159.21,52.60 C159.21,52.60 160.04,51.41 160.04,51.41" fill="none" stroke="rgb(0, 113, 48)" stroke-width="4.33" stroke-opacity="1.00" stroke-linejoin="round"/>
<path d="M152.64,80.51 C152.64,80.51 151.47,80.08 151.47,80.08 C151.13,79.72 151.86,88.87 152.53,90.79 C152.68,91.20 153.02,91.82 153.55,92.67 C155.31,91.02 156.33,89.22 156.59,86.77 C157.01,82.65 155.82,80.21 154.92,79.12 C154.92,79.12 152.10,79.52 152.10,79.52 C152.10,79.52 151.99,79.93 151.99,79.93" fill="none" stroke="rgb(0, 113, 48)" stroke-width="4.33" stroke-opacity="1.00" stroke-linejoin="round"/>
<path d="M157.37,140.40 C157.44,139.80 157.52,139.31 157.64,138.92 C157.75,138.53 158.04,137.70 158.51,136.42 C159.09,136.49 161.04,151.67 162.62,177.19 C162.98,184.31 163.32,196.01 162.97,204.22 C162.46,211.85 161.82,221.79 162.09,222.31 C162.09,222.31 162.61,220.16 162.61,220.16" fill="none" stroke="rgb(0, 113, 48)" stroke-width="4.33" stroke-opacity="1.00" stroke-linejoin="round"/>
<path d="M156.35,249.45 C156.35,249.45 155.81,249.07 155.81,249.07 C155.81,249.07 155.15,249.25 155.15,249.25 C154.89,252.88 156.40,260.54 157.46,261.63 C157.70,261.86 158.16,262.04 158.85,262.19 C159.74,261.48 160.67,259.88 161.12,257.86 C161.96,253.80 161.01,248.83 160.34,247.62 C160.13,247.27 159.78,247.02 159.29,246.89" fill="none" stroke="rgb(0, 113, 48)" stroke-width="4.33" stroke-opacity="1.00" stroke-linejoin="round"/>
<path d="M64.30,173.38 C62.63,171.57 61.94,170.56 62.02,169.89 C62.02,169.85 62.07,169.55 62.17,169.00 C62.88,168.97 65.09,208.86 66.02,224.53 C66.46,232.56 66.12,243.70 66.41,244.63 C66.41,244.63 67.79,245.09 67.79,245.09" fill="none" stroke="rgb(0, 113, 48)" stroke-width="4.33" stroke-opacity="1.00" stroke-linejoin="round"/>
<path d="M70.95,267.22 C70.95,267.22 70.03,266.48 70.03,266.48 C69.66,266.49 70.11,285.51 71.36,285.86 C72.06,286.09 73.61,280.93 73.96,277.56 C74.48,271.60 72.88,268.68 71.97,267.75 C71.97,267.75 71.41,267.65 71.41,267.65" fill="none" stroke="rgb(0, 113, 48)" stroke-width="4.33" stroke-opacity="1.00" stroke-linejoin="round"/>
<path d="M114.93,312.92 C114.43,313.09 114.12,313.38 113.98,313.79 C113.37,315.72 113.74,324.38 113.96,328.18 C114.24,331.92 114.78,338.06 115.99,340.81 C116.92,341.03 117.79,340.08 118.36,337.96 C120.61,329.42 117.32,314.39 116.60,313.60 C116.60,313.60 116.27,313.68 116.27,313.68" fill="none" stroke="rgb(0, 113, 48)" stroke-width="4.33" stroke-opacity="1.00" stroke-linejoin="round"/>
<path d="M-16.88,145.51 C-16.94,144.55 -17.12,141.89 -17.21,141.29 C-17.39,139.94 -17.79,138.52 -18.07,137.98 C-18.94,140.53 -18.98,144.34 -18.92,146.96 C-18.69,154.75 -15.59,185.90 -14.66,194.86 C-14.66,194.86 -13.66,193.76 -13.66,193.76" fill="none" stroke="rgb(0, 113, 48)" stroke-width="4.33" stroke-opacity="1.00" stroke-linejoin="round"/>
<path d="M222.63,60.25 C222.63,60.09 222.63,59.68 222.63,59.42 C222.63,59.36 222.63,59.31 222.64,59.27 C222.82,63.05 222.42,79.16 222.17,85.87 C222.15,86.30 222.14,87.20 222.13,88.56 C222.13,88.56 222.29,88.37 222.29,88.37" fill="none" stroke="rgb(0, 113, 48)" stroke-width="4.33" stroke-opacity="1.00" stroke-linejoin="round"/>
<path d="M221.99,113.75 C221.92,113.45 221.85,113.21 221.77,113.02 C221.69,112.83 221.49,112.42 221.17,111.80 C221.17,111.80 220.94,111.77 220.94,111.77 C220.94,111.77 221.87,122.45 221.87,122.45 C223.23,120.86 223.89,119.06 223.77,116.61 C223.56,113.00 221.65,109.09 219.99,106.76 C219.85,106.57 219.65,106.32 219.39,106.01 C219.39,106.01 219.53,105.85 219.53,105.85" fill="none" stroke="rgb(0, 113, 48)" stroke-width="4.33" stroke-opacity="1.00" stroke-linejoin="round"/>
<path d="M236.63,5.02 C236.63,5.02 235.43,2.54 235.43,2.54 C235.98,5.65 236.87,22.86 237.18,30.66 C237.31,34.52 237.45,36.74 237.52,37.68 C237.52,37.68 237.45,36.45 237.45,36.45" fill="none" stroke="rgb(0, 113, 48)" stroke-width="4.33" stroke-opacity="1.00" stroke-linejoin="round"/>
<path d="M274.34,-16.78 C274.36,-17.60 274.36,-18.20 274.34,-18.58 C274.33,-18.97 274.28,-19.68 274.20,-20.71 C274.43,-14.31 275.07,0.21 275.48,8.32 C275.95,15.39 276.84,28.99 277.43,28.25 C277.43,28.25 277.39,25.78 277.39,25.78" fill="none" stroke="rgb(0, 113, 48)" stroke-width="4.33" stroke-opacity="1.00" stroke-linejoin="round"/>
<path d="M322.28,-52.95 C322.28,-52.95 321.31,-54.33 321.31,-54.33 C321.62,-50.06 321.65,-10.81 322.12,5.38 C322.41,12.46 323.28,35.96 323.31,39.30 C323.31,39.30 324.18,36.80 324.18,36.80" fill="none" stroke="rgb(0, 113, 48)" stroke-width="4.33" stroke-opacity="1.00" stroke-linejoin="round"/>
<path d="M372.33,-33.84 C372.33,-33.84 370.33,-33.07 370.33,-33.07 C370.19,-30.49 370.84,-12.55 371.16,-4.24 C371.78,11.30 372.93,46.83 372.87,56.90 C372.92,67.48 373.24,68.58 373.79,69.33 C373.79,69.33 374.93,67.03 374.93,67.03" fill="none" stroke="rgb(0, 113, 48)" stroke-width="4.33" stroke-opacity="1.00" stroke-linejoin="round"/>
<path d="M460.80,-54.10 C460.80,-54.10 460.18,-56.82 460.18,-56.82 C460.18,-56.82 459.89,-7.04 459.89,-7.04 C459.89,-7.04 459.46,-7.43 459.46,-7.43 C459.46,-7.43 459.35,-7.25 459.35,-7.25" fill="none" stroke="rgb(0, 113, 48)" stroke-width="4.33" stroke-opacity="1.00" stroke-linejoin="round"/>
<path d="M432.48,106.65 C432.48,105.85 432.52,104.19 432.55,103.33 C432.59,102.11 433.13,101.40 434.53,100.50 C435.80,102.92 436.18,104.09 436.18,106.02 C436.18,117.48 440.41,206.28 440.37,209.53 C440.37,209.53 440.28,208.41 440.28,208.41" fill="none" stroke="rgb(0, 113, 48)" stroke-width="4.33" stroke-opacity="1.00" stroke-linejoin="round"/>
<path d="M411.33,218.00 C410.72,215.36 410.30,213.28 410.32,212.67 C410.32,212.44 410.39,212.08 410.52,211.59 C411.16,214.99 410.74,230.07 411.33,238.86 C412.25,250.04 414.25,262.09 414.18,262.63 C414.18,262.63 413.46,262.26 413.46,262.26" fill="none" stroke="rgb(0, 113, 48)" stroke-width="4.33" stroke-opacity="1.00" stroke-linejoin="round"/>
<path d="M415.54,286.58 C415.54,286.58 413.55,286.06 413.55,286.06 C412.58,287.17 412.14,288.31 411.95,290.70 C411.62,295.25 412.56,296.95 413.57,297.50 C414.77,296.86 415.88,295.33 416.02,293.54 C416.14,291.78 415.07,289.41 413.95,288.77 C411.99,287.76 410.25,288.82 409.70,289.52" fill="none" stroke="rgb(0, 113, 48)" stroke-width="4.33" stroke-opacity="1.00" stroke-linejoin="round"/>
<path d="M411.45,345.64 C411.35,342.48 411.19,337.57 411.13,335.83 C410.99,329.63 411.11,328.82 411.41,328.49 C413.05,329.89 414.36,340.53 415.23,352.28 C416.29,367.81 418.67,399.35 420.00,415.36 C421.57,437.40 421.50,451.96 421.34,454.31 C421.34,454.31 422.06,452.83 422.06,452.83" fill="none" stroke="rgb(0, 113, 48)" stroke-width="4.33" stroke-opacity="1.00" stroke-linejoin="round"/>
<path d="M428.46,484.60 C428.46,484.60 426.81,484.41 426.81,484.41 C427.30,487.14 428.42,505.55 429.95,507.89 C430.07,508.07 430.32,508.29 430.69,508.55 C431.55,508.18 433.00,504.29 433.34,501.62 C433.67,498.80 433.42,493.18 432.91,490.18 C432.30,486.91 430.00,482.07 428.36,481.01 C428.36,481.01 427.90,481.19 427.90,481.19" fill="none" stroke="rgb(0, 113, 48)" stroke-width="4.33" stroke-opacity="1.00" stroke-linejoin="round"/>
<path d="M353.86,393.90 C353.21,392.91 352.34,390.94 352.16,389.62 C352.10,389.12 352.08,388.18 352.12,386.82 C353.34,387.37 353.71,391.44 353.92,395.76 C354.77,429.11 356.13,491.75 356.63,521.04 C356.64,521.47 356.64,522.29 356.63,523.49 C356.63,523.49 356.46,523.60 356.46,523.60 C356.46,523.60 356.49,523.38 356.49,523.38" fill="none" stroke="rgb(0, 113, 48)" stroke-width="4.33" stroke-opacity="1.00" stroke-linejoin="round"/>
</g>
</svg>
