<?xml version="1.0" encoding="UTF-8" standalone="no"?>
<!DOCTYPE svg PUBLIC "-//W3C//DTD SVG 1.1//EN" "http://www.w3.org/Graphics/SVG/1.1/DTD/svg11.dtd">
<svg width="128.40" height="181.68" viewBox="0.00 0.00 535.00 757.00" xmlns="http://www.w3.org/2000/svg" xmlns:xlink="http://www.w3.org/1999/xlink">
<g stroke-linecap="round" transform="translate(44.00, 155.00)" id="71-해">
<path d="M68.01,-87.15 C68.01,-87.15 67.31,-86.75 67.31,-86.75 C67.31,-86.75 68.20,-87.60 68.20,-87.60" fill="none" stroke="rgb(219, 153, 255)" stroke-width="4.33" stroke-opacity="1.00" stroke-linejoin="round"/>
<path d="M70.44,-91.69 C70.27,-91.80 69.85,-92.22 69.66,-92.35 C69.57,-92.42 69.40,-92.50 69.16,-92.61 C68.17,-92.42 65.22,-91.84 64.25,-91.70 C60.49,-91.12 59.17,-90.77 58.33,-89.88 C56.56,-87.92 54.75,-82.85 54.47,-80.48 C54.16,-77.54 55.16,-71.75 56.50,-69.19 C57.88,-66.65 61.53,-63.65 64.04,-63.08 C66.34,-62.61 70.67,-63.06 72.90,-63.89 C75.13,-64.75 78.81,-67.57 80.11,-69.19 C81.42,-70.87 83.49,-75.42 83.83,-77.99 C84.14,-80.69 83.15,-85.52 81.66,-88.00 C80.08,-90.55 75.06,-94.49 72.56,-95.60 C71.18,-96.20 69.20,-96.66 67.35,-96.84 C65.72,-96.96 62.78,-96.38 61.44,-95.62 C59.60,-94.53 60.25,-92.12 60.58,-91.47" fill="none" stroke="rgb(219, 153, 255)" stroke-width="4.33" stroke-opacity="1.00" stroke-linejoin="round"/>
<path d="M44.17,-106.58 C44.17,-106.58 43.22,-108.19 43.22,-108.19 C43.22,-108.19 48.26,-92.87 48.26,-92.87" fill="none" stroke="rgb(219, 153, 255)" stroke-width="4.33" stroke-opacity="1.00" stroke-linejoin="round"/>
<path d="M18.02,-92.65 C17.64,-92.63 17.34,-92.62 17.11,-92.61 C16.26,-92.56 15.74,-92.65 15.02,-92.95 C14.97,-93.16 20.48,-91.73 26.06,-90.09 C27.13,-89.79 28.21,-89.49 29.28,-89.19" fill="none" stroke="rgb(219, 153, 255)" stroke-width="4.33" stroke-opacity="1.00" stroke-linejoin="round"/>
<path d="M22.37,-62.61 C22.37,-62.61 20.81,-62.17 20.81,-62.17 C22.98,-62.96 27.56,-65.81 30.25,-67.48 C32.98,-69.19 37.65,-72.13 40.86,-73.09 C40.86,-73.09 40.84,-71.38 40.84,-71.38" fill="none" stroke="rgb(219, 153, 255)" stroke-width="4.33" stroke-opacity="1.00" stroke-linejoin="round"/>
<path d="M43.14,-33.40 C43.14,-33.40 41.77,-34.44 41.77,-34.44 C42.00,-35.06 54.54,-48.17 55.84,-49.24 C56.75,-49.99 57.73,-50.50 58.16,-50.54 C58.16,-50.54 58.35,-50.42 58.35,-50.42" fill="none" stroke="rgb(219, 153, 255)" stroke-width="4.33" stroke-opacity="1.00" stroke-linejoin="round"/>
<path d="M78.81,-44.58 C78.81,-44.58 78.41,-45.91 78.41,-45.91 C78.00,-46.15 78.80,-37.08 79.22,-35.12 C79.35,-34.55 79.66,-33.40 80.16,-31.67 C80.16,-31.67 80.42,-31.55 80.42,-31.55 C80.42,-31.55 80.51,-32.37 80.51,-32.37" fill="none" stroke="rgb(219, 153, 255)" stroke-width="4.33" stroke-opacity="1.00" stroke-linejoin="round"/>
<path d="M96.13,-60.11 C96.13,-60.11 94.33,-59.54 94.33,-59.54 C95.27,-59.74 98.38,-59.22 102.21,-58.31 C110.12,-56.33 112.54,-54.71 112.95,-54.23" fill="none" stroke="rgb(219, 153, 255)" stroke-width="4.33" stroke-opacity="1.00" stroke-linejoin="round"/>
<path d="M100.99,-89.39 C100.99,-89.39 98.76,-88.78 98.76,-88.78 C98.76,-88.78 116.94,-96.92 116.94,-96.92 C116.94,-96.92 116.06,-96.16 116.06,-96.16" fill="none" stroke="rgb(219, 153, 255)" stroke-width="4.33" stroke-opacity="1.00" stroke-linejoin="round"/>
<path d="M84.82,-97.06 C84.83,-97.24 84.83,-97.39 84.82,-97.51 C84.78,-98.19 84.56,-98.95 84.57,-99.00 C84.62,-99.20 88.06,-107.81 88.61,-109.81 C88.96,-111.06 90.37,-113.69 91.25,-114.64 C91.52,-114.93 91.82,-115.01 92.15,-114.89" fill="none" stroke="rgb(219, 153, 255)" stroke-width="4.33" stroke-opacity="1.00" stroke-linejoin="round"/>
</g>
</svg>
