<?xml version="1.0" encoding="UTF-8" standalone="no"?>
<!DOCTYPE svg PUBLIC "-//W3C//DTD SVG 1.1//EN" "http://www.w3.org/Graphics/SVG/1.1/DTD/svg11.dtd">
<svg width="128.40" height="181.68" viewBox="0.00 0.00 535.00 757.00" xmlns="http://www.w3.org/2000/svg" xmlns:xlink="http://www.w3.org/1999/xlink">
<g stroke-linecap="round" transform="translate(44.00, 155.00)" id="73-우산">
<path d="M294.98,82.16 C296.18,80.89 297.23,79.89 298.00,79.38 C298.48,79.07 299.73,78.25 300.27,77.67 C298.97,77.72 291.14,81.17 288.71,82.47 C283.25,85.44 276.55,91.62 269.54,98.99 C264.31,104.59 255.60,114.03 250.32,120.49 C243.96,128.62 237.71,137.73 234.17,144.21 C231.16,149.76 225.83,162.33 223.23,170.15 C220.04,180.13 218.32,187.05 215.93,198.49 C214.44,205.57 212.24,215.68 208.83,225.56 C207.81,228.51 206.20,234.25 206.32,234.80 C214.58,228.35 219.59,225.07 226.36,222.26 C232.34,219.87 245.40,214.72 252.48,211.95 C259.58,209.16 272.06,202.35 276.21,200.53 C281.61,198.20 297.10,195.11 304.48,193.63 C313.73,191.75 324.96,190.23 333.00,189.75 C342.20,189.23 372.39,191.25 392.57,191.18 C405.27,191.02 407.46,191.20 420.11,193.41 C428.14,194.79 444.15,197.45 446.82,198.31 C448.81,198.95 450.81,199.87 450.90,200.09 C450.90,200.09 449.75,200.42 449.75,200.42 C449.75,200.42 449.78,200.32 449.78,200.32" fill="none" stroke="rgb(255, 0, 0)" stroke-width="4.72" stroke-opacity="1.00" stroke-linejoin="round"/>
<path d="M311.84,81.54 C311.84,81.54 308.72,77.18 308.72,77.18 C308.72,77.18 305.26,79.73 305.26,79.73 C306.29,81.29 310.92,83.49 315.09,84.88 C323.23,87.51 337.50,92.15 342.65,94.84 C349.21,98.30 365.23,105.74 367.21,106.79 C370.56,108.57 383.45,117.90 388.79,121.79 C395.79,126.80 407.79,138.43 409.44,139.88 C414.29,143.91 423.41,151.59 427.44,157.13 C429.96,160.62 442.33,181.29 443.55,183.71 C446.42,189.42 449.13,197.48 449.41,199.49 C449.63,201.23 449.50,202.62 449.21,202.72" fill="none" stroke="rgb(255, 0, 0)" stroke-width="4.72" stroke-opacity="1.00" stroke-linejoin="round"/>
<path d="M276.12,137.21 C276.47,135.90 277.07,134.32 277.59,133.51 C277.73,133.29 277.96,133.01 278.29,132.69 C276.33,138.28 273.32,147.07 270.51,156.80 C268.19,165.50 265.01,180.50 264.58,186.79 C264.17,194.27 264.67,196.79 265.10,198.45 C265.10,198.45 265.57,196.49 265.57,196.49" fill="none" stroke="rgb(255, 0, 0)" stroke-width="4.72" stroke-opacity="1.00" stroke-linejoin="round"/>
<path d="M344.48,132.27 C344.48,132.27 343.94,129.81 343.94,129.81 C348.98,136.62 354.87,145.62 358.08,153.36 C363.98,167.77 367.24,187.34 368.02,193.36 C368.02,193.36 368.46,192.17 368.46,192.17" fill="none" stroke="rgb(255, 0, 0)" stroke-width="4.72" stroke-opacity="1.00" stroke-linejoin="round"/>
<path d="M285.31,208.71 C285.25,208.18 285.18,207.81 285.08,207.60 C284.85,207.10 284.17,205.62 284.13,203.73 C283.76,205.16 287.79,218.74 289.86,229.23 C294.11,248.86 300.81,273.44 304.64,287.33 C309.98,305.36 317.16,335.34 318.82,341.37 C319.86,344.96 322.09,352.47 323.28,356.40 C324.28,359.63 325.97,362.78 327.54,363.42 C328.00,363.60 329.26,364.01 330.06,363.73 C330.43,361.51 328.72,354.13 328.75,351.68 C328.78,349.30 327.38,342.50 326.63,340.05 C326.09,338.33 321.10,324.70 317.84,313.39 C315.06,303.35 313.61,290.92 313.34,289.16 C312.71,285.10 308.50,265.38 306.80,257.52 C305.92,253.18 301.36,236.19 300.73,231.80 C300.39,229.38 297.63,199.55 297.41,199.11 C297.41,199.11 296.82,200.32 296.82,200.32" fill="none" stroke="rgb(255, 0, 0)" stroke-width="4.72" stroke-opacity="1.00" stroke-linejoin="round"/>
<path d="M264.40,138.51 C264.33,138.36 264.34,138.14 264.46,137.85 C264.47,137.83 265.81,135.04 265.86,134.85 C258.81,142.93 253.00,150.50 248.38,157.66 C244.85,163.20 238.69,176.24 236.39,182.21 C232.13,193.79 227.16,212.64 226.83,215.47 C226.83,215.47 227.11,214.54 227.11,214.54" fill="none" stroke="rgb(255, 0, 0)" stroke-width="4.72" stroke-opacity="1.00" stroke-linejoin="round"/>
<path d="M303.89,152.08 C303.82,152.05 303.77,152.02 303.74,151.98 C303.70,151.95 303.64,151.86 303.55,151.73 C303.30,154.78 298.93,172.63 298.04,177.07 C297.09,181.91 296.70,185.49 296.73,188.40 C296.74,189.29 296.58,190.19 296.35,190.74" fill="none" stroke="rgb(255, 0, 0)" stroke-width="4.72" stroke-opacity="1.00" stroke-linejoin="round"/>
<path d="M292.85,71.12 C292.27,69.92 292.11,69.30 292.19,68.26 C292.20,68.15 292.21,67.64 292.24,66.74 C292.25,66.24 292.27,65.75 292.29,65.25 C292.65,66.95 293.82,74.07 294.91,76.47 C295.10,76.88 295.52,77.66 296.17,78.80 C296.17,78.80 297.16,78.67 297.16,78.67 C297.16,78.67 297.34,78.36 297.34,78.36" fill="none" stroke="rgb(255, 0, 0)" stroke-width="4.72" stroke-opacity="1.00" stroke-linejoin="round"/>
<path d="M292.10,71.67 C292.10,71.67 291.08,71.53 291.08,71.53 C291.67,70.65 292.38,69.91 293.53,69.10 C295.49,67.72 299.90,65.82 301.68,65.65 C302.64,65.60 303.81,67.16 304.30,69.03 C304.48,69.75 304.56,80.84 304.97,82.47 C304.97,82.47 304.06,79.97 304.06,79.97" fill="none" stroke="rgb(255, 0, 0)" stroke-width="4.72" stroke-opacity="1.00" stroke-linejoin="round"/>
</g>
</svg>
