<?xml version="1.0" encoding="UTF-8" standalone="no"?>
<!DOCTYPE svg PUBLIC "-//W3C//DTD SVG 1.1//EN" "http://www.w3.org/Graphics/SVG/1.1/DTD/svg11.dtd">
<svg width="128.40" height="181.68" viewBox="0.00 0.00 535.00 757.00" xmlns="http://www.w3.org/2000/svg" xmlns:xlink="http://www.w3.org/1999/xlink">
<g stroke-linecap="round" transform="translate(44.00, 155.00)" id="74-우산">
<path d="M283.31,81.29 C283.51,80.73 283.68,80.50 284.35,79.93 C284.46,79.83 284.61,79.67 284.81,79.46 C284.81,79.46 284.83,78.90 284.83,78.90 C282.06,79.61 280.19,79.80 277.72,79.50 C273.62,79.02 269.83,78.97 267.24,79.35 C264.56,79.77 259.16,81.71 256.29,83.16 C250.47,86.13 242.99,92.84 235.12,100.90 C230.52,105.69 229.98,106.36 229.48,107.24 C229.48,107.24 229.98,108.39 229.98,108.39 C229.98,108.39 232.20,109.03 232.20,109.03" fill="none" stroke="rgb(255, 0, 0)" stroke-width="3.24" stroke-opacity="1.00" stroke-linejoin="round"/>
<path d="M282.73,82.18 C282.33,81.90 281.84,81.44 281.68,81.09 C281.61,80.95 281.52,80.64 281.41,80.19 C281.22,80.18 288.54,78.55 292.97,79.56 C293.22,79.62 302.67,82.11 303.57,82.52 C304.24,82.84 322.76,98.10 322.93,98.25 C324.90,100.04 328.91,105.10 329.92,107.52 C331.44,111.30 332.60,123.32 332.04,124.87 C332.04,124.87 331.81,125.01 331.81,125.01" fill="none" stroke="rgb(255, 0, 0)" stroke-width="3.24" stroke-opacity="1.00" stroke-linejoin="round"/>
<path d="M234.21,108.62 C234.21,108.62 233.12,107.52 233.12,107.52 C233.04,107.76 235.27,114.03 236.27,115.22 C237.04,116.05 239.27,116.80 240.77,116.57 C241.91,116.40 245.81,114.99 247.21,115.00 C249.03,115.04 251.59,117.16 252.38,117.78 C253.48,118.64 255.94,118.94 258.20,118.63 C261.27,118.20 262.93,118.23 264.71,118.85 C268.13,120.05 274.04,120.10 277.50,120.86 C285.96,122.78 291.68,122.62 293.53,123.47 C294.42,123.87 297.08,125.31 298.81,124.93 C299.77,124.71 303.15,123.59 304.11,123.60 C305.04,123.61 307.43,124.81 308.14,125.01 C309.21,125.32 312.85,123.76 314.12,123.40 C315.09,123.12 316.36,124.86 316.82,125.30 C317.90,126.37 323.95,124.41 325.51,125.03 C326.57,125.61 328.15,126.41 329.41,126.64 C329.41,126.64 334.44,123.27 334.44,123.27 C334.44,123.27 334.24,124.63 334.24,124.63" fill="none" stroke="rgb(255, 0, 0)" stroke-width="3.24" stroke-opacity="1.00" stroke-linejoin="round"/>
<path d="M281.62,127.96 C281.32,126.87 281.11,126.15 280.99,125.80 C280.67,124.80 280.74,124.48 281.22,123.90 C281.30,123.92 277.81,141.12 276.76,147.99 C274.27,166.54 272.34,188.44 271.54,207.19 C271.32,216.13 272.67,226.33 272.66,227.76 C272.66,227.89 272.65,228.01 272.63,228.12" fill="none" stroke="rgb(255, 0, 0)" stroke-width="3.24" stroke-opacity="1.00" stroke-linejoin="round"/>
<path d="M286.41,126.12 C286.41,126.09 286.41,126.05 286.41,126.02 C286.41,125.99 286.41,125.95 286.41,125.92 C286.46,125.94 282.87,141.81 281.27,150.28 C278.97,163.86 274.17,199.82 273.65,207.36 C273.36,211.79 272.70,225.13 272.43,225.85 C272.43,225.85 272.42,225.28 272.42,225.28" fill="none" stroke="rgb(255, 0, 0)" stroke-width="3.24" stroke-opacity="1.00" stroke-linejoin="round"/>
<path d="M288.77,74.46 C288.56,74.47 288.41,74.49 288.35,74.51 C288.16,74.57 287.28,76.08 286.66,76.93 C285.32,75.58 284.59,73.77 285.06,71.95 C285.92,68.70 287.82,67.60 288.80,67.19 C290.12,67.39 290.83,70.10 290.92,73.77 C290.88,76.10 290.86,78.81 290.97,79.57 C290.97,79.57 291.04,79.16 291.04,79.16 C291.04,79.20 291.00,79.10 290.99,79.07 C290.81,78.27 290.79,77.20 290.92,75.83" fill="none" stroke="rgb(255, 0, 0)" stroke-width="3.24" stroke-opacity="1.00" stroke-linejoin="round"/>
</g>
</svg>
