<?xml version="1.0" encoding="UTF-8" standalone="no"?>
<!DOCTYPE svg PUBLIC "-//W3C//DTD SVG 1.1//EN" "http://www.w3.org/Graphics/SVG/1.1/DTD/svg11.dtd">
<svg width="128.40" height="181.68" viewBox="0.00 0.00 535.00 757.00" xmlns="http://www.w3.org/2000/svg" xmlns:xlink="http://www.w3.org/1999/xlink">
<g stroke-linecap="round" transform="translate(44.00, 155.00)" id="75-우산">
<path d="M215.96,244.16 C216.02,243.92 216.07,243.76 216.09,243.69 C216.17,243.43 216.25,243.23 216.33,243.12 C216.68,242.63 216.86,242.37 216.87,242.32 C217.01,241.74 216.72,240.68 216.48,240.45 C215.54,240.33 212.50,242.65 211.12,245.38 C208.80,250.09 208.34,258.42 208.39,258.92 C208.39,258.92 208.56,257.46 208.56,257.46" fill="none" stroke="rgb(255, 0, 0)" stroke-width="2.80" stroke-opacity="1.00" stroke-linejoin="round"/>
<path d="M217.01,241.84 C217.01,241.67 217.01,241.55 217.00,241.49 C216.99,241.43 216.97,241.33 216.92,241.20 C216.92,241.20 216.48,241.09 216.48,241.09 C219.82,240.48 222.53,240.87 223.72,242.24 C224.31,242.96 224.66,243.73 224.78,244.41 C224.07,245.04 218.11,246.52 216.96,246.82 C216.00,247.11 215.17,247.84 215.01,248.85 C214.83,250.20 215.22,258.88 215.07,259.42 C215.07,259.42 215.01,258.45 215.01,258.45" fill="none" stroke="rgb(255, 0, 0)" stroke-width="2.80" stroke-opacity="1.00" stroke-linejoin="round"/>
<path d="M199.68,261.08 C199.68,261.08 199.60,261.00 199.60,261.00 C199.60,261.00 199.92,259.68 199.92,259.68 C199.92,259.68 200.76,260.28 200.76,260.28 C201.87,273.24 203.99,310.64 204.88,311.48 C204.94,311.52 205.01,311.59 205.09,311.67 C205.89,307.89 219.23,266.37 219.76,262.69 C219.79,262.47 219.82,262.08 219.85,261.52 C218.85,261.67 205.72,260.87 204.54,260.75 C203.83,260.67 199.62,260.14 199.33,260.31 C199.33,260.31 199.45,260.48 199.45,260.48" fill="none" stroke="rgb(255, 0, 0)" stroke-width="2.80" stroke-opacity="1.00" stroke-linejoin="round"/>
<path d="M205.38,267.19 C205.38,267.19 205.42,264.04 205.42,264.04 C205.42,264.04 205.52,299.16 205.52,299.16 C205.73,298.96 205.99,298.56 206.07,298.23 C206.09,298.15 206.09,298.08 206.07,298.00" fill="none" stroke="rgb(255, 0, 0)" stroke-width="2.80" stroke-opacity="1.00" stroke-linejoin="round"/>
<path d="M205.42,265.99 C205.42,265.99 205.10,265.51 205.10,265.51 C205.10,265.51 206.10,298.45 206.10,298.45 C206.10,298.45 205.89,298.62 205.89,298.62 C205.83,298.51 205.80,298.31 205.79,297.97 C205.79,297.90 205.79,297.78 205.78,297.62" fill="none" stroke="rgb(255, 0, 0)" stroke-width="2.80" stroke-opacity="1.00" stroke-linejoin="round"/>
<path d="M212.24,263.93 C212.24,263.93 212.26,263.71 212.26,263.71 C212.26,263.71 209.97,295.24 209.97,295.24 C209.97,295.24 210.07,293.29 210.07,293.29" fill="none" stroke="rgb(255, 0, 0)" stroke-width="2.80" stroke-opacity="1.00" stroke-linejoin="round"/>
<path d="M209.20,264.30 C209.20,264.30 209.10,263.85 209.10,263.85 C209.25,266.73 209.31,271.84 209.25,274.66 C209.09,281.30 208.08,294.06 207.60,295.98 C207.60,295.98 207.54,293.82 207.54,293.82" fill="none" stroke="rgb(255, 0, 0)" stroke-width="2.80" stroke-opacity="1.00" stroke-linejoin="round"/>
<path d="M207.85,267.94 C207.85,267.94 207.70,266.60 207.70,266.60 C207.70,266.60 205.77,299.27 205.77,299.27 C205.77,299.27 206.32,298.33 206.32,298.33" fill="none" stroke="rgb(255, 0, 0)" stroke-width="2.80" stroke-opacity="1.00" stroke-linejoin="round"/>
<path d="M217.08,265.99 C217.08,265.99 216.99,265.26 216.99,265.26 C216.73,266.32 215.51,272.62 214.73,275.87 C213.96,279.10 211.95,287.85 211.70,289.16 C211.35,290.98 211.22,292.08 211.31,292.14 C211.31,292.14 211.45,291.48 211.45,291.48" fill="none" stroke="rgb(255, 0, 0)" stroke-width="2.80" stroke-opacity="1.00" stroke-linejoin="round"/>
<path d="M215.81,264.00 C215.81,264.00 215.81,263.90 215.81,263.90 C215.81,263.87 215.76,263.92 215.75,263.95 C215.60,264.41 214.59,267.98 213.97,270.16 C213.02,273.66 210.98,281.25 209.88,285.32 C209.28,287.56 208.71,289.96 208.29,291.75" fill="none" stroke="rgb(255, 0, 0)" stroke-width="2.80" stroke-opacity="1.00" stroke-linejoin="round"/>
<path d="M204.55,267.87 C204.55,267.87 204.08,268.04 204.08,268.04 C204.09,277.34 205.32,290.12 205.82,293.50 C206.01,294.77 206.35,296.34 206.91,298.68" fill="none" stroke="rgb(255, 0, 0)" stroke-width="2.80" stroke-opacity="1.00" stroke-linejoin="round"/>
<path d="M204.82,298.77 C204.82,298.77 204.78,297.12 204.78,297.12 C204.78,297.12 204.90,310.68 204.90,310.68 C204.90,310.68 205.08,309.95 205.08,309.95" fill="none" stroke="rgb(255, 0, 0)" stroke-width="2.80" stroke-opacity="1.00" stroke-linejoin="round"/>
<path d="M206.43,302.79 C206.43,302.79 206.43,302.09 206.43,302.09 C206.87,302.66 206.97,304.06 206.58,306.31 C206.43,307.19 206.21,308.24 205.94,309.46 C205.92,309.52 205.86,309.69 205.86,309.63 C205.86,309.63 205.95,309.02 205.95,309.02" fill="none" stroke="rgb(255, 0, 0)" stroke-width="2.80" stroke-opacity="1.00" stroke-linejoin="round"/>
</g>
</svg>
