<?xml version="1.0" encoding="UTF-8" standalone="no"?>
<!DOCTYPE svg PUBLIC "-//W3C//DTD SVG 1.1//EN" "http://www.w3.org/Graphics/SVG/1.1/DTD/svg11.dtd">
<svg width="128.40" height="181.68" viewBox="0.00 0.00 535.00 757.00" xmlns="http://www.w3.org/2000/svg" xmlns:xlink="http://www.w3.org/1999/xlink">
<g stroke-linecap="round" transform="translate(44.00, 155.00)" id="76-사람">
<path d="M248.36,95.57 C248.36,95.57 248.32,95.41 248.32,95.41 C248.32,95.41 249.14,94.07 249.14,94.07 C248.09,93.82 229.85,101.14 226.72,103.29 C223.42,105.62 219.96,110.71 218.77,113.86 C217.04,118.69 215.36,128.70 215.24,133.63 C215.13,138.85 217.65,152.42 218.74,154.76 C219.98,157.32 221.26,159.18 222.74,160.42 C225.18,162.43 226.51,162.41 227.25,162.05 C228.17,159.90 227.82,155.91 227.05,151.44 C226.15,146.17 226.75,139.29 228.30,134.09 C229.14,131.29 231.16,124.64 232.33,123.23 C233.73,121.61 238.81,118.18 241.34,117.22 C243.34,116.51 247.40,116.63 250.31,117.55 C253.20,118.49 256.07,119.76 260.03,121.59 C262.64,122.77 267.31,124.34 269.71,126.52 C270.67,127.40 273.34,129.76 273.56,129.79 C274.03,129.06 274.01,121.53 273.98,120.44 C273.86,117.42 272.17,112.33 270.22,109.41 C269.00,107.61 263.25,101.10 260.64,99.45 C257.40,97.46 249.16,96.71 246.92,97.10 C246.92,97.10 247.53,97.59 247.53,97.59" fill="none" stroke="rgb(255, 165, 0)" stroke-width="2.93" stroke-opacity="1.00" stroke-linejoin="round"/>
<path d="M227.65,168.21 C227.56,168.18 227.48,168.15 227.43,168.13 C226.39,167.64 225.89,167.12 225.65,166.57 C226.86,168.08 231.03,169.93 233.61,170.22 C236.17,170.48 244.87,170.83 246.83,170.65 C251.30,170.20 258.11,167.81 260.71,165.89 C262.53,164.51 265.85,159.40 266.62,156.76 C269.72,145.72 267.71,132.65 267.74,132.70 C267.74,132.70 268.25,133.62 268.25,133.62" fill="none" stroke="rgb(255, 165, 0)" stroke-width="2.93" stroke-opacity="1.00" stroke-linejoin="round"/>
<path d="M232.08,133.93 C231.78,134.01 231.53,134.09 231.33,134.19 C231.13,134.28 230.70,134.50 230.04,134.85 C230.04,134.85 229.87,134.77 229.87,134.77 C233.12,132.73 239.25,131.19 243.56,130.79 C243.93,130.74 244.13,130.67 244.16,130.57" fill="none" stroke="rgb(255, 165, 0)" stroke-width="2.93" stroke-opacity="1.00" stroke-linejoin="round"/>
<path d="M253.24,133.57 C253.24,133.57 252.22,133.04 252.22,133.04 C252.22,133.04 259.44,130.36 259.44,130.36 C259.44,130.36 260.05,130.86 260.05,130.86 C260.05,130.86 259.99,130.97 259.99,130.97" fill="none" stroke="rgb(255, 165, 0)" stroke-width="2.93" stroke-opacity="1.00" stroke-linejoin="round"/>
<path d="M239.71,138.10 C239.71,138.10 239.60,136.53 239.60,136.53 C239.60,136.53 238.92,136.10 238.92,136.10 C238.15,136.77 236.92,138.79 236.37,140.50 C236.06,141.49 236.58,143.04 237.15,143.50 C237.73,143.89 239.32,143.68 240.21,143.09 C241.07,142.50 242.41,140.79 242.61,140.04 C242.80,139.17 242.33,138.03 241.67,137.56 C240.81,137.00 238.69,137.55 238.06,137.88 C238.06,137.88 237.93,138.19 237.93,138.19" fill="none" stroke="rgb(255, 165, 0)" stroke-width="2.93" stroke-opacity="1.00" stroke-linejoin="round"/>
<path d="M258.43,139.72 C258.43,139.72 256.05,138.92 256.05,138.92 C255.49,139.79 255.21,140.53 255.38,141.04 C255.58,141.60 256.54,142.26 257.23,142.25 C257.97,142.21 259.44,141.28 259.93,140.53 C260.43,139.70 260.35,138.28 259.84,137.63 C259.46,137.21 258.31,136.92 257.66,137.11 C256.60,137.44 255.57,138.31 254.81,139.39" fill="none" stroke="rgb(255, 165, 0)" stroke-width="2.93" stroke-opacity="1.00" stroke-linejoin="round"/>
<path d="M248.71,146.74 C248.71,146.74 247.77,146.49 247.77,146.49 C247.77,146.49 247.50,145.85 247.50,145.85 C247.65,145.76 247.72,146.20 247.96,148.68 C248.20,151.14 248.59,152.18 249.29,152.47 C249.29,152.47 255.89,148.82 255.89,148.82 C255.89,148.82 255.79,149.26 255.79,149.26" fill="none" stroke="rgb(255, 165, 0)" stroke-width="2.93" stroke-opacity="1.00" stroke-linejoin="round"/>
<path d="M252.02,159.87 C252.23,159.32 252.45,158.77 252.67,158.22 C252.77,157.95 252.90,157.60 253.06,157.17 C252.60,157.04 252.03,156.96 251.47,157.05 C250.23,157.26 248.17,158.27 247.20,159.17 C246.76,159.60 246.77,160.79 247.04,161.25 C247.48,161.89 249.07,162.73 250.23,162.88 C256.30,163.49 259.40,158.50 259.64,157.55 C259.41,157.12 256.66,155.79 251.20,157.46 C249.81,157.88 248.59,158.43 248.38,158.67 C248.38,158.67 248.81,158.43 248.81,158.43" fill="none" stroke="rgb(255, 165, 0)" stroke-width="2.93" stroke-opacity="1.00" stroke-linejoin="round"/>
<path d="M226.83,175.48 C226.83,175.48 226.67,175.48 226.67,175.48 C226.67,175.48 226.50,175.25 226.50,175.25 C226.50,175.25 227.95,172.75 227.95,172.75 C227.56,173.55 224.32,177.32 224.13,177.46 C223.16,178.14 214.83,183.70 211.70,186.46 C210.44,187.60 209.56,189.76 209.30,192.04 C209.21,192.93 214.56,230.44 215.43,232.85 C215.88,234.06 217.22,236.46 218.36,238.28 C219.50,240.08 220.19,240.62 221.09,240.62 C222.93,239.43 223.69,236.87 224.19,232.29 C224.89,225.43 227.80,210.12 228.09,209.61 C228.09,209.61 228.56,209.30 228.56,209.30 C228.56,209.30 228.75,209.54 228.75,209.54" fill="none" stroke="rgb(255, 165, 0)" stroke-width="2.93" stroke-opacity="1.00" stroke-linejoin="round"/>
<path d="M227.39,206.86 C227.39,206.86 227.08,204.58 227.08,204.58 C227.30,210.39 227.11,224.55 226.98,231.90 C226.95,238.01 228.33,251.24 229.81,253.22 C230.09,253.57 231.23,254.38 231.67,254.44 C232.05,254.49 238.19,254.54 240.12,253.73 C244.11,252.05 262.24,248.08 267.16,246.32 C268.52,245.83 276.89,242.33 279.68,241.12 C281.11,240.49 285.71,238.64 286.16,237.89 C286.26,237.72 286.41,237.50 286.63,237.23" fill="none" stroke="rgb(255, 165, 0)" stroke-width="2.93" stroke-opacity="1.00" stroke-linejoin="round"/>
<path d="M275.20,198.01 C275.20,198.01 274.64,197.21 274.64,197.21 C274.14,198.94 276.18,215.80 277.94,221.56 C279.08,225.21 280.85,229.69 281.60,231.00 C282.55,232.57 285.36,233.82 287.18,233.30 C288.47,232.90 289.87,231.08 290.75,228.93 C291.67,226.55 293.31,209.37 292.70,202.44 C292.51,200.25 291.45,194.73 290.64,192.66 C290.27,191.70 283.81,175.97 280.73,170.11 C279.26,167.36 276.91,165.26 275.22,164.84 C271.33,163.92 261.75,163.84 261.43,164.26 C261.43,164.26 262.22,165.08 262.22,165.08" fill="none" stroke="rgb(255, 165, 0)" stroke-width="2.93" stroke-opacity="1.00" stroke-linejoin="round"/>
<path d="M294.02,239.16 C294.02,239.16 293.96,237.88 293.96,237.88" fill="none" stroke="rgb(255, 165, 0)" stroke-width="2.93" stroke-opacity="1.00" stroke-linejoin="round"/>
<path d="M295.75,230.97 C295.44,229.89 295.41,228.83 295.68,227.99 C295.72,227.86 295.76,227.81 295.80,227.84 C296.15,242.31 297.42,274.99 298.37,285.94 C299.30,295.20 300.14,299.41 300.58,301.16 C300.58,301.16 300.62,299.41 300.62,299.41" fill="none" stroke="rgb(255, 165, 0)" stroke-width="2.93" stroke-opacity="1.00" stroke-linejoin="round"/>
<path d="M234.81,256.45 C234.81,256.45 235.37,256.58 235.37,256.58 C235.37,256.58 236.46,256.07 236.46,256.07 C236.75,257.28 236.17,268.53 236.68,279.55 C237.57,295.16 239.06,328.88 239.30,328.99 C239.54,328.79 240.70,327.30 241.20,326.93 C243.19,325.49 261.25,319.50 268.81,316.92 C275.71,314.40 296.21,306.40 296.35,306.39 C296.78,306.34 300.12,306.61 300.54,306.54 C300.64,306.53 300.85,306.48 301.17,306.40" fill="none" stroke="rgb(255, 165, 0)" stroke-width="2.93" stroke-opacity="1.00" stroke-linejoin="round"/>
<path d="M256.28,320.94 C256.28,320.94 256.25,320.12 256.25,320.12 C256.18,320.35 257.15,323.74 257.23,328.13 C257.25,329.51 257.51,348.40 258.06,353.84 C258.83,361.27 261.71,375.40 262.96,376.27 C263.12,376.38 263.48,376.50 264.03,376.63 C265.47,375.89 267.99,371.95 269.07,368.59 C270.93,362.66 271.18,348.45 270.53,340.20 C270.18,336.43 269.25,326.75 269.21,326.29 C268.95,323.16 268.42,322.68 267.97,322.40" fill="none" stroke="rgb(255, 165, 0)" stroke-width="2.93" stroke-opacity="1.00" stroke-linejoin="round"/>
<path d="M281.91,317.99 C281.94,317.72 281.97,317.49 282.00,317.31 C282.18,316.33 282.64,314.91 282.96,314.49 C283.05,314.37 283.20,314.28 283.40,314.21 C283.69,316.00 285.57,332.00 287.61,343.74 C289.77,355.56 291.51,363.89 293.57,366.30 C293.74,366.49 293.95,366.63 294.20,366.71 C294.56,366.77 295.49,366.13 296.18,365.17 C297.34,363.51 297.51,358.77 297.02,355.23 C295.03,341.21 289.55,321.61 288.69,312.60 C288.69,312.60 287.99,313.89 287.99,313.89" fill="none" stroke="rgb(255, 165, 0)" stroke-width="2.93" stroke-opacity="1.00" stroke-linejoin="round"/>
<path d="M298.09,352.58 C298.09,352.58 296.34,353.95 296.34,353.95 C298.48,354.30 300.42,355.59 301.28,357.48 C302.08,359.36 301.54,363.20 300.21,364.79 C299.58,365.49 296.95,366.91 295.72,367.17 C294.79,367.36 293.23,367.10 293.32,367.02 C293.32,367.02 293.36,366.92 293.36,366.92" fill="none" stroke="rgb(255, 165, 0)" stroke-width="2.93" stroke-opacity="1.00" stroke-linejoin="round"/>
<path d="M265.84,375.37 C265.84,375.37 264.50,374.66 264.50,374.66 C264.50,374.66 267.94,385.94 267.94,385.94 C267.94,385.94 269.43,386.06 269.43,386.06 C271.02,384.04 272.45,378.89 272.63,376.49 C272.77,374.21 271.86,371.07 271.25,369.90 C270.74,368.92 269.43,366.91 269.44,367.02" fill="none" stroke="rgb(255, 165, 0)" stroke-width="2.93" stroke-opacity="1.00" stroke-linejoin="round"/>
</g>
</svg>
