<?xml version="1.0" encoding="UTF-8" standalone="no"?>
<!DOCTYPE svg PUBLIC "-//W3C//DTD SVG 1.1//EN" "http://www.w3.org/Graphics/SVG/1.1/DTD/svg11.dtd">
<svg width="128.40" height="181.68" viewBox="0.00 0.00 535.00 757.00" xmlns="http://www.w3.org/2000/svg" xmlns:xlink="http://www.w3.org/1999/xlink">
<g stroke-linecap="round" transform="translate(44.00, 155.00)" id="76-비">
<path d="M178.46,67.49 C178.46,67.49 177.22,66.10 177.22,66.10 C177.22,66.10 179.96,73.67 179.96,73.67" fill="none" stroke="rgb(0, 0, 255)" stroke-width="2.93" stroke-opacity="1.00" stroke-linejoin="round"/>
<path d="M144.58,127.77 C144.60,127.31 144.64,126.93 144.72,126.63 C145.02,125.39 145.65,124.04 146.09,123.55 C146.29,123.53 146.66,126.38 146.91,127.53 C147.17,128.72 148.04,130.56 148.53,131.40" fill="none" stroke="rgb(0, 0, 255)" stroke-width="2.93" stroke-opacity="1.00" stroke-linejoin="round"/>
<path d="M137.61,154.37 C137.61,154.37 136.88,154.64 136.88,154.64 C136.88,154.64 140.48,158.87 140.48,158.87" fill="none" stroke="rgb(0, 0, 255)" stroke-width="2.93" stroke-opacity="1.00" stroke-linejoin="round"/>
<path d="M174.89,113.12 C174.89,113.12 173.74,113.38 173.74,113.38 C173.74,113.38 176.15,119.18 176.15,119.18" fill="none" stroke="rgb(0, 0, 255)" stroke-width="2.93" stroke-opacity="1.00" stroke-linejoin="round"/>
<path d="M180.13,108.18 C180.13,108.18 179.91,107.46 179.91,107.46 C179.91,107.46 181.45,108.56 181.45,108.56" fill="none" stroke="rgb(0, 0, 255)" stroke-width="2.93" stroke-opacity="1.00" stroke-linejoin="round"/>
<path d="M200.94,91.65 C200.94,91.65 200.66,91.02 200.66,91.02 C200.42,91.82 200.78,93.27 201.92,95.66 C202.16,96.16 202.62,97.08 203.31,98.42" fill="none" stroke="rgb(0, 0, 255)" stroke-width="2.93" stroke-opacity="1.00" stroke-linejoin="round"/>
<path d="M198.60,128.53 C198.60,128.53 197.45,128.82 197.45,128.82 C197.84,128.90 198.49,128.82 200.03,128.49 C201.57,128.16 203.03,127.91 205.37,127.56" fill="none" stroke="rgb(0, 0, 255)" stroke-width="2.93" stroke-opacity="1.00" stroke-linejoin="round"/>
<path d="M191.93,142.82 C191.93,142.82 191.05,142.67 191.05,142.67 C191.05,142.67 196.86,143.51 196.86,143.51" fill="none" stroke="rgb(0, 0, 255)" stroke-width="2.93" stroke-opacity="1.00" stroke-linejoin="round"/>
<path d="M190.76,156.81 C191.57,156.85 192.32,157.14 193.65,157.98 C194.98,158.83 195.93,159.50 197.24,160.50" fill="none" stroke="rgb(0, 0, 255)" stroke-width="2.93" stroke-opacity="1.00" stroke-linejoin="round"/>
<path d="M175.00,154.67 C175.00,154.67 174.95,150.27 174.95,150.27 C175.10,151.29 175.75,156.89 176.53,160.45 C176.72,161.30 176.92,162.16 177.11,163.01" fill="none" stroke="rgb(0, 0, 255)" stroke-width="2.93" stroke-opacity="1.00" stroke-linejoin="round"/>
<path d="M159.33,183.31 C159.33,183.31 156.59,182.85 156.59,182.85 C157.02,183.32 157.80,183.60 159.68,183.88 C161.55,184.16 162.64,184.31 163.89,184.44" fill="none" stroke="rgb(0, 0, 255)" stroke-width="2.93" stroke-opacity="1.00" stroke-linejoin="round"/>
<path d="M178.66,191.09 C178.72,191.79 179.29,192.49 179.49,192.77 C180.25,193.82 181.79,196.84 182.26,197.89" fill="none" stroke="rgb(0, 0, 255)" stroke-width="2.93" stroke-opacity="1.00" stroke-linejoin="round"/>
<path d="M191.12,210.62 C191.12,210.62 190.73,208.76 190.73,208.76 C190.90,211.63 191.14,213.31 191.65,214.92 C192.16,216.52 192.51,217.37 192.96,218.21" fill="none" stroke="rgb(0, 0, 255)" stroke-width="2.93" stroke-opacity="1.00" stroke-linejoin="round"/>
<path d="M192.65,238.65 C192.65,238.65 192.61,237.38 192.61,237.38 C192.61,237.38 195.71,240.25 195.71,240.25" fill="none" stroke="rgb(0, 0, 255)" stroke-width="2.93" stroke-opacity="1.00" stroke-linejoin="round"/>
<path d="M221.13,127.92 C221.13,127.92 221.55,125.57 221.55,125.57 C221.55,125.57 223.32,131.22 223.32,131.22" fill="none" stroke="rgb(0, 0, 255)" stroke-width="2.93" stroke-opacity="1.00" stroke-linejoin="round"/>
<path d="M232.02,113.83 C232.02,113.83 231.03,112.57 231.03,112.57 C231.17,112.36 231.96,112.86 233.54,114.18 C233.79,114.40 234.09,114.65 234.42,114.95" fill="none" stroke="rgb(0, 0, 255)" stroke-width="2.93" stroke-opacity="1.00" stroke-linejoin="round"/>
<path d="M247.22,104.78 C247.22,104.78 246.73,102.77 246.73,102.77 C247.72,101.86 249.09,101.67 249.61,101.60 C250.05,101.54 251.04,101.32 252.59,100.95" fill="none" stroke="rgb(0, 0, 255)" stroke-width="2.93" stroke-opacity="1.00" stroke-linejoin="round"/>
<path d="M233.03,68.41 C233.03,68.41 230.14,68.89 230.14,68.89 C230.14,68.89 238.18,65.19 238.18,65.19" fill="none" stroke="rgb(0, 0, 255)" stroke-width="2.93" stroke-opacity="1.00" stroke-linejoin="round"/>
<path d="M249.36,37.84 C249.36,37.84 249.54,37.17 249.54,37.17 C251.01,37.08 253.14,37.07 254.22,37.26 C255.54,37.49 257.75,38.29 259.24,38.96" fill="none" stroke="rgb(0, 0, 255)" stroke-width="2.93" stroke-opacity="1.00" stroke-linejoin="round"/>
<path d="M271.43,69.43 C271.43,69.43 270.68,66.25 270.68,66.25 C270.68,66.25 271.80,65.93 271.80,65.93 C271.80,65.93 289.54,79.11 289.54,79.11" fill="none" stroke="rgb(0, 0, 255)" stroke-width="2.93" stroke-opacity="1.00" stroke-linejoin="round"/>
<path d="M323.72,56.30 C323.72,56.30 323.72,55.38 323.72,55.38 C323.64,55.72 323.66,56.12 323.77,56.57 C323.89,57.02 324.26,58.15 324.89,59.96" fill="none" stroke="rgb(0, 0, 255)" stroke-width="2.93" stroke-opacity="1.00" stroke-linejoin="round"/>
<path d="M321.28,42.42 C321.28,42.42 320.03,41.77 320.03,41.77 C320.03,41.77 326.82,52.50 326.82,52.50" fill="none" stroke="rgb(0, 0, 255)" stroke-width="2.93" stroke-opacity="1.00" stroke-linejoin="round"/>
<path d="M304.39,107.22 C304.39,107.22 302.94,107.32 302.94,107.32 C302.31,108.59 302.92,113.90 303.52,115.82 C303.66,116.26 303.99,117.09 304.51,118.31" fill="none" stroke="rgb(0, 0, 255)" stroke-width="2.93" stroke-opacity="1.00" stroke-linejoin="round"/>
<path d="M338.88,98.21 C338.88,98.21 338.88,98.05 338.88,98.05 C338.66,100.67 338.43,102.75 337.99,105.81 C337.83,106.97 337.66,108.14 337.49,109.30" fill="none" stroke="rgb(0, 0, 255)" stroke-width="2.93" stroke-opacity="1.00" stroke-linejoin="round"/>
<path d="M303.84,134.99 C303.84,134.99 302.11,135.20 302.11,135.20 C302.11,135.20 307.82,138.96 307.82,138.96" fill="none" stroke="rgb(0, 0, 255)" stroke-width="2.93" stroke-opacity="1.00" stroke-linejoin="round"/>
<path d="M316.81,164.74 C316.81,164.74 316.08,164.89 316.08,164.89 C316.13,165.84 316.28,168.47 316.39,169.62 C316.49,170.77 316.87,173.91 317.01,175.06" fill="none" stroke="rgb(0, 0, 255)" stroke-width="2.93" stroke-opacity="1.00" stroke-linejoin="round"/>
<path d="M322.50,224.10 C322.50,224.10 322.71,221.35 322.71,221.35 C322.71,221.35 325.39,226.93 325.39,226.93" fill="none" stroke="rgb(0, 0, 255)" stroke-width="2.93" stroke-opacity="1.00" stroke-linejoin="round"/>
</g>
</svg>
