<?xml version="1.0" encoding="UTF-8" standalone="no"?>
<!DOCTYPE svg PUBLIC "-//W3C//DTD SVG 1.1//EN" "http://www.w3.org/Graphics/SVG/1.1/DTD/svg11.dtd">
<svg width="128.40" height="181.68" viewBox="0.00 0.00 535.00 757.00" xmlns="http://www.w3.org/2000/svg" xmlns:xlink="http://www.w3.org/1999/xlink">
<g stroke-linecap="round" transform="translate(44.00, 155.00)" id="77-비">
<path d="M78.80,-26.08 C78.80,-26.08 77.56,-26.02 77.56,-26.02 C77.56,-26.02 77.71,-26.84 77.71,-26.84 C77.35,-26.34 75.74,-21.84 75.00,-18.85 C74.01,-14.78 73.19,-9.26 73.87,-5.86 C75.19,-0.48 78.51,15.22 79.07,19.46 C80.13,27.54 81.91,68.22 82.04,76.90 C82.07,80.45 80.78,119.81 80.29,135.01 C79.68,148.58 77.22,179.94 75.85,195.95 C74.71,215.18 73.86,272.21 72.66,284.73 C70.87,298.87 66.23,335.20 65.98,343.77 C65.71,356.70 65.69,387.34 65.75,403.21 C65.40,418.85 65.08,450.21 66.15,457.46 C66.15,457.46 65.85,455.35 65.85,455.35" fill="none" stroke="rgb(0, 0, 255)" stroke-width="4.52" stroke-opacity="1.00" stroke-linejoin="round"/>
<path d="M102.47,217.50 C102.47,217.50 101.94,215.37 101.94,215.37" fill="none" stroke="rgb(0, 0, 255)" stroke-width="4.52" stroke-opacity="1.00" stroke-linejoin="round"/>
<path d="M104.46,198.41 C104.46,198.41 104.81,197.72 104.81,197.72 C106.53,202.17 105.71,219.19 105.29,227.44 C104.85,246.36 105.76,269.80 106.43,284.20 C107.06,300.11 108.15,332.25 108.28,348.24 C108.18,357.24 107.71,372.76 107.47,379.79 C107.12,392.90 108.50,414.99 109.03,423.13 C109.27,427.44 108.51,435.76 108.44,437.53 C108.30,441.35 109.92,447.88 111.17,449.51 C112.56,449.06 113.39,447.56 113.80,444.51 C113.86,444.06 113.91,443.51 113.95,442.86" fill="none" stroke="rgb(0, 0, 255)" stroke-width="4.52" stroke-opacity="1.00" stroke-linejoin="round"/>
<path d="M156.91,319.07 C156.91,319.07 156.22,316.49 156.22,316.49 C157.68,347.16 160.45,406.69 161.76,435.54 C162.47,444.59 164.23,468.98 164.28,472.04 C164.30,474.31 164.22,474.87 164.21,474.82 C164.21,474.82 164.20,474.29 164.20,474.29" fill="none" stroke="rgb(0, 0, 255)" stroke-width="4.52" stroke-opacity="1.00" stroke-linejoin="round"/>
<path d="M153.19,206.56 C153.19,206.56 152.92,206.80 152.92,206.80 C152.92,206.80 154.54,206.02 154.54,206.02 C155.63,207.84 155.96,212.79 156.07,216.37 C156.56,232.96 157.12,252.74 157.20,255.94 C157.27,258.05 157.22,258.99 156.98,260.49 C156.98,260.49 156.83,260.42 156.83,260.42 C156.83,260.42 156.53,259.41 156.53,259.41" fill="none" stroke="rgb(0, 0, 255)" stroke-width="4.52" stroke-opacity="1.00" stroke-linejoin="round"/>
<path d="M141.92,-38.08 C141.46,-38.07 141.15,-38.08 140.99,-38.12 C140.83,-38.15 140.58,-38.26 140.25,-38.44 C140.38,-32.99 139.45,-17.17 139.26,-11.52 C139.08,-1.56 139.74,34.14 140.06,50.23 C140.37,67.65 142.39,99.10 142.54,111.22 C142.42,119.49 141.59,139.19 141.56,140.40 C141.51,144.77 142.34,149.42 143.32,150.49 C143.32,150.49 143.82,149.54 143.82,149.54" fill="none" stroke="rgb(0, 0, 255)" stroke-width="4.52" stroke-opacity="1.00" stroke-linejoin="round"/>
<path d="M240.71,-45.84 C240.71,-45.84 238.51,-46.06 238.51,-46.06 C239.24,-44.67 239.45,-40.21 239.25,-35.90 C238.63,-23.47 238.55,7.50 238.55,23.23 C238.40,35.44 237.25,50.67 237.56,50.71 C237.56,50.71 239.38,46.73 239.38,46.73" fill="none" stroke="rgb(0, 0, 255)" stroke-width="4.52" stroke-opacity="1.00" stroke-linejoin="round"/>
<path d="M336.65,-44.31 C336.65,-44.31 336.03,-44.71 336.03,-44.71 C335.65,-45.57 335.72,-46.84 336.39,-48.39 C336.66,-49.02 338.70,-52.75 339.08,-53.37 C338.51,-50.34 337.29,-44.05 336.66,-39.30 C335.29,-28.91 327.79,51.45 324.96,81.01 C324.04,93.33 324.24,95.00 324.66,96.56 C324.66,96.56 326.29,93.17 326.29,93.17" fill="none" stroke="rgb(0, 0, 255)" stroke-width="4.52" stroke-opacity="1.00" stroke-linejoin="round"/>
<path d="M389.29,-27.14 C389.29,-27.14 388.03,-29.26 388.03,-29.26 C387.59,-24.29 380.81,4.83 376.96,24.65 C374.44,39.38 369.95,69.47 367.73,84.76 C366.13,95.58 364.85,102.23 363.39,107.61 C363.39,107.61 364.41,104.18 364.41,104.18" fill="none" stroke="rgb(0, 0, 255)" stroke-width="4.52" stroke-opacity="1.00" stroke-linejoin="round"/>
<path d="M422.31,-49.02 C422.31,-49.02 421.80,-51.39 421.80,-51.39 C421.90,-48.60 420.96,-9.84 420.76,4.36 C420.80,19.92 420.87,51.53 420.70,65.70 C419.64,93.09 418.95,160.45 419.19,160.07 C419.19,160.07 419.58,158.58 419.58,158.58" fill="none" stroke="rgb(0, 0, 255)" stroke-width="4.52" stroke-opacity="1.00" stroke-linejoin="round"/>
<path d="M462.29,-26.21 C462.29,-26.21 461.61,-26.14 461.61,-26.14 C461.10,-25.71 461.00,-19.99 460.82,-17.73 C459.16,-0.06 458.92,18.58 459.42,39.58 C459.97,70.22 460.62,132.55 461.48,159.71 C461.58,171.78 459.60,202.73 458.44,218.90 C456.96,236.93 456.23,263.92 455.91,279.51 C455.50,293.62 454.62,312.35 455.20,336.08 C455.46,350.92 453.70,364.04 451.85,373.17 C450.71,378.60 449.88,381.87 448.86,382.93 C448.86,382.93 447.42,380.81 447.42,380.81" fill="none" stroke="rgb(0, 0, 255)" stroke-width="4.52" stroke-opacity="1.00" stroke-linejoin="round"/>
<path d="M343.87,192.04 C343.53,192.27 343.92,195.53 344.05,196.85 C344.11,197.48 343.80,241.79 343.75,259.58 C343.90,276.91 344.26,314.99 344.05,321.36 C342.56,352.13 339.50,411.30 338.30,441.55 C338.13,449.76 337.86,469.20 337.94,472.48 C338.25,484.85 342.60,507.19 343.70,512.91 C343.70,512.91 344.16,513.17 344.16,513.17 C344.16,513.17 344.41,511.98 344.41,511.98" fill="none" stroke="rgb(0, 0, 255)" stroke-width="4.52" stroke-opacity="1.00" stroke-linejoin="round"/>
<path d="M390.75,200.20 C390.75,200.20 391.03,197.97 391.03,197.97 C391.08,200.16 389.56,240.68 389.10,256.40 C388.83,272.11 388.41,295.42 388.10,299.77 C387.60,298.66 387.30,297.92 387.19,297.57 C387.08,297.22 387.01,296.76 386.97,296.19" fill="none" stroke="rgb(0, 0, 255)" stroke-width="4.52" stroke-opacity="1.00" stroke-linejoin="round"/>
<path d="M441.07,202.98 C441.07,202.98 439.86,202.43 439.86,202.43 C440.57,211.92 439.25,242.99 438.48,260.58 C438.00,272.45 438.02,274.68 438.34,277.08 C438.34,277.08 438.76,276.93 438.76,276.93 C438.76,276.93 439.07,275.45 439.07,275.45" fill="none" stroke="rgb(0, 0, 255)" stroke-width="4.52" stroke-opacity="1.00" stroke-linejoin="round"/>
<path d="M427.35,324.57 C426.63,325.19 426.14,326.15 426.13,327.28 C426.12,327.59 426.91,346.12 426.96,354.34 C426.93,383.26 427.48,399.92 427.95,401.63 C427.71,401.24 427.56,401.00 427.50,400.91 C427.45,400.81 427.42,400.73 427.41,400.67" fill="none" stroke="rgb(0, 0, 255)" stroke-width="4.52" stroke-opacity="1.00" stroke-linejoin="round"/>
</g>
</svg>
