<?xml version="1.0" encoding="UTF-8" standalone="no"?>
<!DOCTYPE svg PUBLIC "-//W3C//DTD SVG 1.1//EN" "http://www.w3.org/Graphics/SVG/1.1/DTD/svg11.dtd">
<svg width="128.40" height="181.68" viewBox="0.00 0.00 535.00 757.00" xmlns="http://www.w3.org/2000/svg" xmlns:xlink="http://www.w3.org/1999/xlink">
<g stroke-linecap="round" transform="translate(44.00, 155.00)" id="77-우산">
<path d="M242.66,29.55 C242.66,29.55 242.76,29.50 242.76,29.50 C242.74,29.42 242.68,29.33 242.59,29.23 C241.46,27.96 241.29,25.02 242.09,21.59 C242.37,20.44 244.47,13.60 245.49,10.68 C246.80,7.03 248.68,4.04 250.40,2.59 C252.36,3.38 253.34,4.37 253.91,6.29 C254.67,8.95 255.80,22.86 256.26,28.95 C256.26,28.95 256.23,28.77 256.23,28.77" fill="none" stroke="rgb(255, 0, 0)" stroke-width="4.52" stroke-opacity="1.00" stroke-linejoin="round"/>
<path d="M238.88,29.98 C238.88,29.98 238.74,28.49 238.74,28.49 C237.16,27.62 234.50,26.69 232.95,26.67 C231.64,26.66 218.25,31.55 211.87,33.53 C201.45,36.79 191.52,40.33 186.65,43.35 C184.54,44.66 166.13,58.37 162.72,61.25 C156.59,66.45 147.99,74.95 144.44,80.37 C143.95,81.12 135.71,93.78 129.73,101.67 C128.56,103.20 124.25,108.00 122.99,110.06 C120.74,113.86 116.83,126.64 115.77,133.38 C114.11,144.44 112.05,154.41 111.58,153.62 C115.59,154.11 119.21,152.96 121.84,152.57 C127.57,151.71 138.47,151.84 142.72,152.89 C145.58,153.63 150.54,156.46 151.11,156.53 C154.12,154.24 157.63,152.70 160.39,151.84 C163.38,150.92 170.12,149.78 171.61,149.74 C175.75,149.67 191.69,153.33 195.43,153.81 C195.64,153.85 195.90,153.96 196.22,154.14 C196.22,154.14 196.20,154.33 196.20,154.33" fill="none" stroke="rgb(255, 0, 0)" stroke-width="4.52" stroke-opacity="1.00" stroke-linejoin="round"/>
<path d="M254.65,36.32 C254.67,35.42 254.67,34.87 254.65,34.66 C254.63,34.45 254.57,34.28 254.46,34.15 C250.84,37.65 242.49,52.67 240.73,56.25 C237.99,61.88 223.86,96.46 217.91,111.47 C210.90,129.67 202.89,153.97 202.11,157.55 C202.11,157.55 202.42,157.58 202.42,157.58 C202.42,157.58 203.03,156.34 203.03,156.34" fill="none" stroke="rgb(255, 0, 0)" stroke-width="4.52" stroke-opacity="1.00" stroke-linejoin="round"/>
<path d="M239.44,42.28 C239.44,42.28 242.30,39.08 242.30,39.08 C242.29,39.13 228.25,47.50 224.34,50.57 C221.87,52.51 207.15,65.28 200.70,70.92 C192.24,78.37 186.22,84.04 181.35,89.93 C177.60,94.49 157.58,124.71 153.80,133.32 C151.02,139.68 145.30,155.06 144.97,156.19 C144.97,156.19 145.89,156.12 145.89,156.12" fill="none" stroke="rgb(255, 0, 0)" stroke-width="4.52" stroke-opacity="1.00" stroke-linejoin="round"/>
<path d="M262.35,44.95 C262.06,43.48 261.89,42.46 261.85,41.88 C261.82,41.30 261.87,40.35 262.00,39.03 C263.03,41.86 270.27,54.68 273.96,61.17 C277.06,66.88 283.80,80.82 286.83,87.54 C289.12,92.82 293.87,106.33 296.03,112.62 C300.63,126.90 303.55,145.42 304.26,153.56 C304.26,153.56 304.22,150.40 304.22,150.40" fill="none" stroke="rgb(255, 0, 0)" stroke-width="4.52" stroke-opacity="1.00" stroke-linejoin="round"/>
<path d="M277.07,43.65 C276.59,43.31 275.89,42.75 275.86,42.73 C275.73,42.66 275.43,42.54 274.94,42.35 C275.30,42.23 285.81,49.41 291.82,52.49 C294.99,54.14 298.77,57.08 300.40,60.12 C301.86,63.04 304.83,68.73 306.78,71.30 C308.15,73.10 312.39,77.98 314.22,80.86 C315.20,82.41 326.98,102.61 328.09,105.68 C329.63,109.99 335.13,126.69 335.76,128.90 C337.38,134.78 337.43,140.93 337.38,142.16 C337.38,142.16 336.20,137.68 336.20,137.68" fill="none" stroke="rgb(255, 0, 0)" stroke-width="4.52" stroke-opacity="1.00" stroke-linejoin="round"/>
<path d="M265.27,29.05 C265.27,29.05 262.44,28.47 262.44,28.47 C261.58,28.54 260.23,28.89 259.73,28.97 C258.24,29.20 255.91,26.74 255.99,26.55 C268.22,30.57 271.20,31.25 284.91,32.88 C289.31,33.42 291.97,34.19 295.92,35.87 C298.47,37.00 302.99,39.85 304.11,40.69 C305.70,41.89 311.16,46.74 313.04,48.21 C314.76,49.55 329.70,60.45 332.70,63.48 C335.38,66.20 345.01,78.87 349.43,83.78 C354.90,89.88 358.66,96.03 362.59,104.54 C365.61,111.37 372.99,129.92 373.64,132.02 C374.40,134.52 377.25,158.24 377.30,158.70 C377.30,158.70 375.45,155.47 375.45,155.47" fill="none" stroke="rgb(255, 0, 0)" stroke-width="4.52" stroke-opacity="1.00" stroke-linejoin="round"/>
<path d="M296.39,155.51 C296.24,155.26 295.84,154.77 295.71,154.58 C295.65,154.49 295.58,154.34 295.48,154.15 C296.36,153.72 301.54,150.58 303.91,149.88 C306.61,149.10 313.17,148.97 316.15,149.60 C318.65,150.16 326.43,153.01 328.78,154.43 C330.17,155.28 340.65,163.05 342.75,164.30 C342.84,163.99 342.96,162.76 343.00,162.61 C343.33,161.66 344.82,160.07 346.45,159.04 C348.31,157.91 351.32,156.83 353.35,156.58 C357.40,156.16 363.86,156.79 366.12,158.32 C367.44,159.23 369.23,161.01 369.49,161.49 C371.33,157.88 373.65,154.64 377.05,152.56 C378.70,151.58 380.43,151.32 381.61,151.71 C382.18,151.93 382.46,152.34 382.74,153.05 C382.74,153.05 381.08,154.57 381.08,154.57" fill="none" stroke="rgb(255, 0, 0)" stroke-width="4.52" stroke-opacity="1.00" stroke-linejoin="round"/>
<path d="M212.35,150.30 C212.35,150.30 212.44,149.30 212.44,149.30 C212.44,149.30 213.64,148.02 213.64,148.02 C211.59,150.13 205.08,154.67 202.41,156.96 C197.55,161.25 190.48,167.57 183.67,174.36 C176.87,181.01 173.47,185.46 173.41,185.34 C173.41,185.34 174.43,185.48 174.43,185.48" fill="none" stroke="rgb(255, 0, 0)" stroke-width="4.52" stroke-opacity="1.00" stroke-linejoin="round"/>
<path d="M215.64,154.09 C215.64,154.09 215.12,153.91 215.12,153.91 C214.87,154.01 204.05,164.94 197.83,169.88 C190.08,175.95 187.24,179.02 179.06,188.64 C177.46,190.53 176.85,191.32 176.39,192.06 C176.39,192.06 177.84,191.54 177.84,191.54" fill="none" stroke="rgb(255, 0, 0)" stroke-width="4.52" stroke-opacity="1.00" stroke-linejoin="round"/>
</g>
</svg>
