<?xml version="1.0" encoding="UTF-8" standalone="no"?>
<!DOCTYPE svg PUBLIC "-//W3C//DTD SVG 1.1//EN" "http://www.w3.org/Graphics/SVG/1.1/DTD/svg11.dtd">
<svg width="128.40" height="181.68" viewBox="0.00 0.00 535.00 757.00" xmlns="http://www.w3.org/2000/svg" xmlns:xlink="http://www.w3.org/1999/xlink">
<g stroke-linecap="round" transform="translate(44.00, 155.00)" id="78-비">
<path d="M25.94,138.13 C25.94,138.13 23.92,138.64 23.92,138.64 C24.06,145.70 24.25,161.24 24.31,169.72 C24.26,185.88 22.52,204.47 21.74,211.81 C21.33,215.34 20.72,220.84 20.52,222.81 C20.56,222.32 20.59,222.00 20.61,221.83 C20.64,221.66 20.68,221.41 20.74,221.08" fill="none" stroke="rgb(0, 0, 255)" stroke-width="3.57" stroke-opacity="1.00" stroke-linejoin="round"/>
<path d="M46.16,136.59 C46.16,136.59 45.65,136.62 45.65,136.62 C45.33,137.45 45.33,141.44 45.32,143.77 C45.20,158.44 40.20,215.29 39.76,222.82 C39.61,226.12 38.98,229.00 38.85,228.83 C38.85,228.83 38.61,228.75 38.61,228.75" fill="none" stroke="rgb(0, 0, 255)" stroke-width="3.57" stroke-opacity="1.00" stroke-linejoin="round"/>
<path d="M27.73,219.17 C27.73,219.17 27.41,218.59 27.41,218.59 C27.41,218.59 27.02,218.43 27.02,218.43 C26.19,220.29 23.75,254.43 23.45,271.65 C23.36,282.22 23.57,288.45 23.65,289.28 C23.66,289.32 23.71,289.40 23.72,289.37 C23.73,289.16 23.75,289.01 23.76,288.93 C23.77,288.85 23.79,288.72 23.82,288.53" fill="none" stroke="rgb(0, 0, 255)" stroke-width="3.57" stroke-opacity="1.00" stroke-linejoin="round"/>
<path d="M68.72,213.82 C68.36,214.87 67.66,220.03 66.36,226.00 C64.29,235.51 61.47,251.61 60.89,256.31 C59.99,263.69 58.79,283.84 58.65,284.14 C58.56,283.43 58.51,282.98 58.49,282.79 C58.48,282.60 58.47,282.41 58.49,282.20" fill="none" stroke="rgb(0, 0, 255)" stroke-width="3.57" stroke-opacity="1.00" stroke-linejoin="round"/>
<path d="M76.81,113.77 C76.81,113.77 76.84,112.55 76.84,112.55 C76.43,112.91 76.01,118.36 76.20,121.30 C76.89,130.72 78.50,208.39 79.04,230.51 C79.05,231.97 79.11,232.99 79.30,234.80 C79.30,234.80 79.36,234.56 79.36,234.56" fill="none" stroke="rgb(0, 0, 255)" stroke-width="3.57" stroke-opacity="1.00" stroke-linejoin="round"/>
<path d="M105.42,123.61 C105.42,123.61 105.78,121.66 105.78,121.66 C105.80,123.40 105.16,129.96 104.78,133.84 C101.15,165.79 95.91,213.59 94.30,229.43 C93.52,237.93 93.37,241.99 93.45,252.21 C93.61,259.67 94.46,276.48 94.77,279.89 C94.84,280.59 95.01,282.38 95.04,283.33 C95.04,283.33 94.72,282.21 94.72,282.21" fill="none" stroke="rgb(0, 0, 255)" stroke-width="3.57" stroke-opacity="1.00" stroke-linejoin="round"/>
<path d="M126.74,108.13 C126.74,108.13 127.13,107.38 127.13,107.38 C125.93,112.42 125.12,116.49 124.84,119.29 C123.74,130.97 120.46,202.46 120.54,209.97 C120.67,219.63 120.37,229.41 118.17,233.09 C116.89,235.20 115.47,238.84 115.13,243.60 C114.95,246.30 114.97,261.85 114.99,265.31 C115.00,267.38 115.05,268.06 115.20,268.70 C115.20,268.70 115.31,268.27 115.31,268.27" fill="none" stroke="rgb(0, 0, 255)" stroke-width="3.57" stroke-opacity="1.00" stroke-linejoin="round"/>
<path d="M150.21,112.37 C150.21,112.37 151.86,111.48 151.86,111.48 C152.49,113.34 152.17,120.30 151.81,123.49 C151.53,125.84 144.90,167.94 142.53,183.79 C141.55,191.25 138.35,228.97 137.83,232.55 C137.65,233.80 137.38,234.86 136.97,236.12 C136.97,236.12 136.82,235.47 136.82,235.47" fill="none" stroke="rgb(0, 0, 255)" stroke-width="3.57" stroke-opacity="1.00" stroke-linejoin="round"/>
<path d="M129.44,220.21 C129.44,220.21 128.70,219.99 128.70,219.99 C128.39,221.20 124.31,259.58 122.57,274.37 C122.42,275.83 122.07,279.08 122.04,279.47 C121.97,280.49 121.94,281.80 121.97,281.75 C121.97,281.75 122.03,280.84 122.03,280.84" fill="none" stroke="rgb(0, 0, 255)" stroke-width="3.57" stroke-opacity="1.00" stroke-linejoin="round"/>
<path d="M171.03,112.62 C171.03,112.62 172.35,111.55 172.35,111.55 C172.38,112.64 172.36,113.28 172.25,114.74 C171.51,125.36 171.08,130.18 169.95,139.33 C168.83,147.25 160.72,186.71 158.95,197.60 C156.20,216.31 154.32,238.11 153.48,255.44 C153.02,263.41 151.91,281.73 151.52,281.86 C151.24,281.52 151.07,281.30 151.00,281.18 C150.93,281.07 150.87,280.92 150.82,280.72" fill="none" stroke="rgb(0, 0, 255)" stroke-width="3.57" stroke-opacity="1.00" stroke-linejoin="round"/>
<path d="M165.78,222.56 C165.73,223.64 165.55,226.12 165.33,228.56 C164.65,235.38 163.32,249.43 163.09,253.63 C163.02,255.06 162.89,257.44 162.84,258.39 C162.87,257.91 162.90,257.43 162.94,256.95 C163.08,254.45 163.35,249.33 163.47,246.72" fill="none" stroke="rgb(0, 0, 255)" stroke-width="3.57" stroke-opacity="1.00" stroke-linejoin="round"/>
<path d="M188.85,119.11 C188.85,119.11 190.24,117.89 190.24,117.89 C189.64,120.20 182.82,157.66 180.32,175.48 C179.61,180.83 175.87,225.33 175.94,230.30 C176.15,237.99 176.50,255.42 176.27,259.18 C175.81,266.50 173.71,280.34 172.41,287.57 C172.41,287.22 172.41,286.97 172.41,286.83 C172.41,286.70 172.42,286.47 172.43,286.16" fill="none" stroke="rgb(0, 0, 255)" stroke-width="3.57" stroke-opacity="1.00" stroke-linejoin="round"/>
<path d="M207.82,106.78 C207.82,106.78 209.80,105.61 209.80,105.61 C210.63,108.21 210.67,114.58 210.43,118.26 C209.34,132.83 204.70,161.41 201.95,176.39 C198.80,191.28 190.67,224.79 189.67,231.48 C187.85,243.93 186.76,266.65 187.53,270.14 C187.61,270.49 187.79,271.05 188.08,271.85 C188.08,271.85 188.21,271.90 188.21,271.90" fill="none" stroke="rgb(0, 0, 255)" stroke-width="3.57" stroke-opacity="1.00" stroke-linejoin="round"/>
<path d="M209.37,215.87 C209.34,216.24 209.36,216.56 209.42,216.81 C210.41,221.23 210.22,228.71 209.15,239.92 C208.71,244.34 207.92,252.04 207.59,255.32 C207.27,258.03 206.80,262.06 206.65,263.39 C206.65,263.39 206.85,262.70 206.85,262.70" fill="none" stroke="rgb(0, 0, 255)" stroke-width="3.57" stroke-opacity="1.00" stroke-linejoin="round"/>
<path d="M238.13,118.46 C238.13,118.46 239.48,116.80 239.48,116.80 C238.80,117.14 237.34,120.08 236.16,123.77 C233.85,131.08 230.92,144.49 230.28,148.87 C228.51,163.16 224.25,195.42 223.19,205.29 C222.47,213.34 221.06,228.95 220.14,237.25 C219.67,241.03 217.45,254.34 217.00,256.48 C217.00,256.48 216.92,256.51 216.92,256.51 C216.92,256.51 216.89,255.98 216.89,255.98" fill="none" stroke="rgb(0, 0, 255)" stroke-width="3.57" stroke-opacity="1.00" stroke-linejoin="round"/>
<path d="M254.16,105.43 C254.16,105.43 254.66,104.10 254.66,104.10 C254.66,104.10 254.34,104.02 254.34,104.02 C253.45,105.89 252.88,109.77 252.70,113.01 C251.95,127.16 249.81,157.85 248.48,168.95 C245.41,191.52 232.75,248.78 228.29,269.93 C227.64,272.62 226.78,276.23 226.56,277.16 C226.56,277.18 226.55,277.24 226.56,277.22 C226.56,277.22 226.64,276.97 226.64,276.97" fill="none" stroke="rgb(0, 0, 255)" stroke-width="3.57" stroke-opacity="1.00" stroke-linejoin="round"/>
<path d="M273.83,135.69 C273.83,135.69 273.87,135.47 273.87,135.47 C273.39,137.06 271.58,142.08 270.71,144.91 C268.39,152.63 261.24,184.18 258.03,198.71 C255.78,208.65 248.36,232.59 248.00,237.50 C247.73,241.67 247.94,243.63 248.21,244.63 C248.21,244.63 248.34,244.56 248.34,244.56" fill="none" stroke="rgb(0, 0, 255)" stroke-width="3.57" stroke-opacity="1.00" stroke-linejoin="round"/>
<path d="M298.74,117.52 C298.74,117.52 299.38,117.54 299.38,117.54 C299.38,117.54 299.55,117.80 299.55,117.80 C296.87,122.85 292.91,132.38 289.99,139.13 C287.20,145.20 282.42,155.70 278.46,165.68 C270.30,187.46 266.68,198.78 260.80,220.96 C256.97,234.83 247.00,271.95 245.08,277.02 C243.78,280.57 241.27,287.49 241.13,288.21 C241.12,288.30 241.13,288.33 241.17,288.32 C241.17,288.32 241.27,288.08 241.27,288.08" fill="none" stroke="rgb(0, 0, 255)" stroke-width="3.57" stroke-opacity="1.00" stroke-linejoin="round"/>
<path d="M271.03,208.28 C271.03,208.28 272.05,206.82 272.05,206.82 C272.01,209.36 271.79,212.53 271.31,217.79 C270.00,232.61 267.26,265.57 265.51,275.91 C264.40,282.09 264.19,283.08 263.77,284.67 C263.77,284.67 264.13,283.06 264.13,283.06" fill="none" stroke="rgb(0, 0, 255)" stroke-width="3.57" stroke-opacity="1.00" stroke-linejoin="round"/>
<path d="M309.03,125.95 C309.03,125.95 309.67,125.48 309.67,125.48 C309.99,127.23 307.43,138.10 304.43,149.76 C297.46,176.31 296.32,180.02 287.20,206.64 C280.45,226.65 279.97,231.39 280.01,232.64 C280.01,232.64 280.37,232.69 280.37,232.69 C280.37,232.69 280.66,232.31 280.66,232.31" fill="none" stroke="rgb(0, 0, 255)" stroke-width="3.57" stroke-opacity="1.00" stroke-linejoin="round"/>
<path d="M334.94,117.86 C334.94,117.86 336.27,117.50 336.27,117.50 C336.18,118.61 334.56,123.79 333.59,126.91 C325.52,152.59 318.34,171.42 312.49,186.64 C304.55,207.56 298.93,225.18 296.86,236.99 C295.82,243.57 293.70,257.59 292.81,264.70 C292.41,268.11 292.21,272.32 292.50,274.91 C292.50,274.91 292.80,275.17 292.80,275.17 C292.80,275.17 292.89,275.05 292.89,275.05" fill="none" stroke="rgb(0, 0, 255)" stroke-width="3.57" stroke-opacity="1.00" stroke-linejoin="round"/>
<path d="M356.01,123.36 C356.01,123.36 356.40,122.23 356.40,122.23 C355.45,126.05 354.60,130.57 354.20,134.06 C353.57,139.80 352.52,148.91 350.90,157.46 C349.42,164.68 346.15,180.15 344.88,184.36 C342.71,191.27 338.02,205.98 336.80,209.00 C333.85,215.98 329.71,225.95 329.49,227.02 C329.20,228.48 329.11,229.72 329.23,229.95" fill="none" stroke="rgb(0, 0, 255)" stroke-width="3.57" stroke-opacity="1.00" stroke-linejoin="round"/>
<path d="M323.45,228.55 C322.71,228.82 322.21,229.37 321.57,230.82 C315.68,243.79 302.39,273.49 299.14,282.23 C297.40,287.05 295.03,295.48 295.04,295.46 C295.04,295.46 295.57,293.44 295.57,293.44" fill="none" stroke="rgb(0, 0, 255)" stroke-width="3.57" stroke-opacity="1.00" stroke-linejoin="round"/>
<path d="M368.49,136.19 C368.49,136.19 369.65,134.37 369.65,134.37 C369.72,134.31 369.38,136.13 369.11,137.55 C369.04,137.93 362.26,178.96 359.46,189.87 C358.56,193.27 356.80,200.06 356.32,203.31 C356.04,205.25 355.67,222.61 354.58,228.28 C354.05,230.89 338.68,267.11 332.80,281.26 C332.29,282.54 331.46,284.59 331.15,285.37 C331.15,285.37 330.78,285.18 330.78,285.18 C330.78,285.18 330.90,283.78 330.90,283.78" fill="none" stroke="rgb(0, 0, 255)" stroke-width="3.57" stroke-opacity="1.00" stroke-linejoin="round"/>
<path d="M342.73,223.01 C342.73,223.01 342.51,222.40 342.51,222.40 C340.67,226.16 335.41,238.40 332.21,247.31 C329.41,255.45 324.32,270.48 322.03,277.36 C321.51,278.99 320.28,283.33 320.01,284.30 C320.26,283.89 320.41,283.64 320.45,283.55 C320.60,283.25 321.83,278.52 323.15,276.15 C324.51,273.72 327.82,269.18 328.72,267.96" fill="none" stroke="rgb(0, 0, 255)" stroke-width="3.57" stroke-opacity="1.00" stroke-linejoin="round"/>
<path d="M366.24,219.07 C366.24,219.07 366.32,218.82 366.32,218.82 C366.32,218.82 366.49,218.90 366.49,218.90 C366.56,220.70 363.96,232.31 362.58,237.85 C359.10,251.23 350.04,274.35 348.62,276.58 C348.62,276.58 348.94,275.04 348.94,275.04" fill="none" stroke="rgb(0, 0, 255)" stroke-width="3.57" stroke-opacity="1.00" stroke-linejoin="round"/>
<path d="M393.70,136.59 C394.15,136.28 394.44,136.05 394.59,135.90 C394.73,135.75 394.93,135.48 395.18,135.08 C394.92,136.47 388.14,164.01 375.12,214.70 C373.26,221.50 366.69,246.66 366.60,247.09 C366.55,247.36 366.51,247.88 366.47,248.62 C366.47,248.62 366.78,248.55 366.78,248.55" fill="none" stroke="rgb(0, 0, 255)" stroke-width="3.57" stroke-opacity="1.00" stroke-linejoin="round"/>
<path d="M386.01,217.52 C385.84,218.27 385.72,218.79 385.66,219.09 C385.60,219.42 382.09,239.89 381.17,243.86 C379.28,251.59 374.27,270.35 373.70,273.01 C373.70,273.01 373.81,273.15 373.81,273.15 C373.81,273.15 374.32,272.00 374.32,272.00" fill="none" stroke="rgb(0, 0, 255)" stroke-width="3.57" stroke-opacity="1.00" stroke-linejoin="round"/>
<path d="M412.85,154.28 C412.84,155.49 412.73,156.66 412.41,157.93 C411.70,160.70 405.36,179.36 402.84,186.68 C401.34,190.91 397.45,205.76 395.41,213.71 C393.37,221.54 390.34,230.33 390.15,231.22 C390.15,231.22 390.29,231.23 390.29,231.23 C390.29,231.23 390.59,230.85 390.59,230.85" fill="none" stroke="rgb(0, 0, 255)" stroke-width="3.57" stroke-opacity="1.00" stroke-linejoin="round"/>
<path d="M427.65,147.97 C427.65,147.97 428.34,147.21 428.34,147.21 C428.30,148.12 428.27,148.74 428.25,149.08 C427.46,159.02 421.61,179.74 418.19,195.16 C417.85,196.68 417.50,197.96 417.10,199.23" fill="none" stroke="rgb(0, 0, 255)" stroke-width="3.57" stroke-opacity="1.00" stroke-linejoin="round"/>
<path d="M407.83,217.92 C407.18,218.08 406.48,218.46 406.27,218.97 C406.21,219.11 402.57,236.82 400.27,242.35 C398.88,245.67 387.76,269.08 387.64,269.29 C387.48,269.58 387.10,270.15 386.53,271.01 C386.53,271.01 386.42,270.37 386.42,270.37" fill="none" stroke="rgb(0, 0, 255)" stroke-width="3.57" stroke-opacity="1.00" stroke-linejoin="round"/>
<path d="M428.05,217.57 C428.05,217.57 428.84,215.99 428.84,215.99 C428.53,216.75 427.88,218.25 427.40,219.35 C421.19,233.35 403.26,269.56 401.99,272.67 C401.99,272.67 403.95,268.07 403.95,268.07" fill="none" stroke="rgb(0, 0, 255)" stroke-width="3.57" stroke-opacity="1.00" stroke-linejoin="round"/>
<path d="M440.49,164.70 C440.49,164.70 440.77,164.51 440.77,164.51 C440.17,169.55 437.15,181.15 435.26,188.19 C434.24,191.80 432.03,199.56 430.83,203.69 C430.25,205.60 429.30,208.68 428.94,209.85" fill="none" stroke="rgb(0, 0, 255)" stroke-width="3.57" stroke-opacity="1.00" stroke-linejoin="round"/>
<path d="M451.52,233.59 C451.52,233.59 450.39,233.70 450.39,233.70 C448.89,235.55 446.06,240.20 444.33,243.04 C436.96,255.84 423.53,279.77 422.46,282.29 C422.31,282.63 422.07,283.29 421.74,284.26 C421.74,284.26 421.77,284.28 421.77,284.28 C421.80,284.23 421.80,284.19 421.78,284.16 C421.50,283.79 421.25,282.54 420.86,279.56 C420.80,279.14 420.76,278.80 420.73,278.53" fill="none" stroke="rgb(0, 0, 255)" stroke-width="3.57" stroke-opacity="1.00" stroke-linejoin="round"/>
</g>
</svg>
