<?xml version="1.0" encoding="UTF-8" standalone="no"?>
<!DOCTYPE svg PUBLIC "-//W3C//DTD SVG 1.1//EN" "http://www.w3.org/Graphics/SVG/1.1/DTD/svg11.dtd">
<svg width="128.40" height="181.68" viewBox="0.00 0.00 535.00 757.00" xmlns="http://www.w3.org/2000/svg" xmlns:xlink="http://www.w3.org/1999/xlink">
<g stroke-linecap="round" transform="translate(44.00, 155.00)" id="79-사람-1">
<path d="M281.58,296.67 C281.71,296.41 281.75,296.40 281.75,296.39 C281.60,296.12 280.69,294.04 280.21,292.93 C278.22,288.39 275.85,284.06 273.87,281.84 C271.42,279.12 268.43,276.84 267.01,276.91 C265.57,277.07 261.83,280.52 260.62,282.83 C259.54,284.95 258.05,292.72 257.77,295.31 C257.50,297.94 258.21,301.28 259.66,302.09 C261.51,303.05 273.75,301.52 275.48,300.32 C276.09,299.87 277.35,298.26 277.48,297.52 C277.60,296.77 277.62,294.47 277.62,294.52" fill="none" stroke="rgb(255, 0, 255)" stroke-width="3.49" stroke-opacity="1.00" stroke-linejoin="round"/>
<path d="M262.12,284.95 C262.43,284.96 262.63,284.99 262.74,285.03 C263.06,285.15 263.35,285.36 263.69,285.44 C264.36,285.61 266.51,285.94 266.46,285.93" fill="none" stroke="rgb(255, 0, 255)" stroke-width="3.49" stroke-opacity="1.00" stroke-linejoin="round"/>
<path d="M270.09,285.12 C270.09,285.12 269.89,285.47 269.89,285.47 C271.21,285.93 272.05,286.24 272.42,286.39 C272.78,286.53 273.17,286.73 273.58,286.97" fill="none" stroke="rgb(255, 0, 255)" stroke-width="3.49" stroke-opacity="1.00" stroke-linejoin="round"/>
<path d="M270.94,295.28 C270.82,295.11 270.72,294.94 270.66,294.79 C270.33,294.05 270.14,293.65 270.09,293.58 C269.62,293.00 267.97,292.49 266.98,292.62 C266.01,292.77 265.04,293.54 264.31,294.52 C264.31,294.52 264.44,295.89 264.44,295.89 C266.27,297.47 268.21,295.32 267.98,294.35 C267.35,293.56 264.91,292.97 264.29,292.94 C264.21,292.94 264.16,292.94 264.13,292.93" fill="none" stroke="rgb(255, 0, 255)" stroke-width="3.49" stroke-opacity="1.00" stroke-linejoin="round"/>
<path d="M258.99,300.51 C258.99,300.51 257.94,299.23 257.94,299.23 C257.78,299.25 246.30,305.59 240.38,307.73 C231.91,310.79 230.26,312.74 229.82,313.69 C230.24,315.01 233.62,316.13 237.45,316.98 C242.63,318.05 251.46,319.13 261.99,319.59 C266.29,319.79 275.37,320.23 278.66,320.59 C280.89,320.94 285.03,321.49 288.06,320.62 C288.88,320.38 291.97,319.52 292.38,319.11 C292.19,315.80 284.86,305.90 283.45,304.64 C281.29,302.73 278.85,302.03 278.88,302.08" fill="none" stroke="rgb(255, 0, 255)" stroke-width="3.49" stroke-opacity="1.00" stroke-linejoin="round"/>
<path d="M259.98,304.76 C259.98,304.76 259.74,304.69 259.74,304.69 C259.49,304.72 258.51,306.80 258.05,307.64 C257.63,308.43 254.37,313.61 254.07,314.14 C253.86,314.50 253.65,314.93 253.45,315.42 C253.47,315.44 253.50,315.43 253.56,315.38 C253.62,315.34 253.77,315.20 254.02,314.97" fill="none" stroke="rgb(255, 0, 255)" stroke-width="3.49" stroke-opacity="1.00" stroke-linejoin="round"/>
<path d="M265.48,306.71 C265.65,308.65 265.72,310.01 265.74,311.77 C265.75,312.99 265.78,315.45 265.81,316.69" fill="none" stroke="rgb(255, 0, 255)" stroke-width="3.49" stroke-opacity="1.00" stroke-linejoin="round"/>
<path d="M246.29,324.04 C246.19,323.81 246.12,323.66 246.08,323.59 C246.04,323.52 245.98,323.44 245.89,323.34 C245.69,323.45 245.14,324.58 244.31,326.66 C243.44,328.81 241.96,331.93 239.41,337.05 C237.86,340.21 235.36,345.35 235.45,346.70 C236.27,346.84 240.11,344.28 241.50,342.32 C244.27,338.34 247.01,328.63 247.84,325.65 C248.13,324.63 248.43,323.62 248.72,322.61" fill="none" stroke="rgb(255, 0, 255)" stroke-width="3.49" stroke-opacity="1.00" stroke-linejoin="round"/>
<path d="M272.10,322.70 C272.09,322.93 272.08,323.17 272.07,323.42 C271.98,327.16 271.60,329.98 270.57,332.78 C269.57,335.45 267.61,340.82 266.97,343.10 C266.20,345.91 265.64,350.20 266.82,351.58 C267.85,351.86 269.84,350.44 270.81,348.57 C271.70,346.80 273.21,340.11 273.34,338.59 C273.52,336.41 273.09,328.92 272.97,327.65 C272.68,324.51 272.37,322.93 272.17,322.16" fill="none" stroke="rgb(255, 0, 255)" stroke-width="3.49" stroke-opacity="1.00" stroke-linejoin="round"/>
</g>
</svg>
