<?xml version="1.0" encoding="UTF-8" standalone="no"?>
<!DOCTYPE svg PUBLIC "-//W3C//DTD SVG 1.1//EN" "http://www.w3.org/Graphics/SVG/1.1/DTD/svg11.dtd">
<svg width="64.20" height="90.84" viewBox="0.00 0.00 535.00 757.00" xmlns="http://www.w3.org/2000/svg" xmlns:xlink="http://www.w3.org/1999/xlink">
<g stroke-linecap="round" transform="translate(44.00, 155.00)" id="8-번개">
<path d="M157.48,-47.28 C157.48,-47.28 157.79,-47.58 157.79,-47.58 C156.79,-48.63 134.25,-32.68 132.49,-31.66 C132.27,-31.54 126.73,-28.66 124.94,-27.50 C120.80,-24.81 111.10,-16.20 108.21,-12.98 C106.25,-10.79 94.40,3.82 90.13,10.23 C87.70,13.91 80.33,26.88 76.08,32.91 C80.55,32.96 114.95,24.05 115.23,24.02 C114.79,24.82 98.64,36.39 95.51,39.30 C93.61,41.09 81.96,52.43 77.98,56.69 C73.57,61.48 63.11,75.40 59.97,79.44 C56.00,84.56 51.25,92.97 49.84,95.46 C49.84,95.46 50.40,95.45 50.40,95.45" fill="none" stroke="rgb(203, 50, 50)" stroke-width="2.75" stroke-opacity="1.00" stroke-linejoin="round"/>
<path d="M151.08,-43.01 C148.77,-41.02 143.39,-32.91 142.47,-31.63 C137.82,-25.11 119.84,-3.51 110.95,9.95 C109.80,11.65 108.89,12.90 108.50,13.33 C110.42,14.47 138.86,16.23 143.54,16.96 C146.00,17.35 154.51,19.41 155.14,19.50 C149.53,21.63 137.82,29.13 131.86,32.92 C125.46,37.02 114.86,45.69 108.95,49.33 C101.62,53.91 92.68,60.73 87.14,65.15 C80.03,70.90 69.04,82.33 65.85,85.10 C63.38,87.24 46.99,100.79 46.44,101.29 C35.78,110.94 26.27,124.66 24.87,126.49 C24.87,126.49 24.83,127.16 24.83,127.16" fill="none" stroke="rgb(203, 50, 50)" stroke-width="2.75" stroke-opacity="1.00" stroke-linejoin="round"/>
</g>
</svg>
