<?xml version="1.0" encoding="UTF-8" standalone="no"?>
<!DOCTYPE svg PUBLIC "-//W3C//DTD SVG 1.1//EN" "http://www.w3.org/Graphics/SVG/1.1/DTD/svg11.dtd">
<svg width="128.40" height="181.68" viewBox="0.00 0.00 535.00 757.00" xmlns="http://www.w3.org/2000/svg" xmlns:xlink="http://www.w3.org/1999/xlink">
<g stroke-linecap="round" transform="translate(44.00, 155.00)" id="82-비">
<path d="M48.26,151.82 C48.26,151.82 48.14,151.82 48.14,151.82 C48.15,151.84 47.96,153.74 47.82,154.90 C47.33,158.85 46.01,175.53 45.51,182.14 C45.48,182.51 45.45,182.88 45.42,183.25" fill="none" stroke="rgb(0, 255, 0)" stroke-width="2.78" stroke-opacity="1.00" stroke-linejoin="round"/>
<path d="M53.50,157.27 C53.50,157.27 53.49,157.12 53.49,157.12 C53.36,157.30 53.01,158.98 52.85,160.42 C52.73,161.43 51.25,193.00 51.12,195.86 C51.09,196.54 51.05,197.22 51.02,197.90 C51.02,197.92 51.01,197.99 51.02,197.97" fill="none" stroke="rgb(0, 255, 0)" stroke-width="2.78" stroke-opacity="1.00" stroke-linejoin="round"/>
<path d="M59.21,151.68 C59.21,151.68 59.21,150.79 59.21,150.79 C58.98,151.69 58.67,153.02 58.53,154.04 C58.07,157.22 56.83,176.02 56.35,183.45 C56.04,187.98 55.86,189.88 55.81,190.42 C55.81,190.42 55.84,190.07 55.84,190.07" fill="none" stroke="rgb(0, 255, 0)" stroke-width="2.78" stroke-opacity="1.00" stroke-linejoin="round"/>
<path d="M66.28,150.77 C66.28,150.77 66.14,150.77 66.14,150.77 C65.87,150.74 65.48,154.46 65.02,160.11 C64.31,168.95 63.03,184.76 62.48,191.73 C62.38,193.01 62.24,195.13 62.18,195.97 C62.17,196.20 62.15,196.44 62.14,196.67" fill="none" stroke="rgb(0, 255, 0)" stroke-width="2.78" stroke-opacity="1.00" stroke-linejoin="round"/>
<path d="M79.77,149.59 C79.77,149.59 79.45,149.55 79.45,149.55 C79.03,151.63 78.70,154.25 78.11,160.24 C77.71,164.48 76.97,172.67 76.64,176.61 C76.35,181.04 76.48,182.20 76.89,184.23 C76.89,184.23 77.50,183.54 77.50,183.54" fill="none" stroke="rgb(0, 255, 0)" stroke-width="2.78" stroke-opacity="1.00" stroke-linejoin="round"/>
<path d="M94.31,136.97 C94.40,136.62 94.66,136.11 94.97,135.71 C95.09,135.55 95.23,135.46 95.28,135.45 C95.21,136.38 95.16,137.37 95.09,139.42 C94.63,151.37 91.82,193.42 91.82,194.57 C91.82,194.84 91.85,195.25 91.91,195.79 C91.91,195.79 92.00,195.63 92.00,195.63" fill="none" stroke="rgb(0, 255, 0)" stroke-width="2.78" stroke-opacity="1.00" stroke-linejoin="round"/>
<path d="M124.86,142.74 C124.86,142.74 124.51,142.30 124.51,142.30 C124.51,142.30 124.07,142.29 124.07,142.29 C123.20,142.96 122.24,146.69 121.96,150.41 C121.39,157.45 120.08,172.45 119.34,180.41 C118.71,188.21 118.09,200.38 119.05,206.15 C119.37,208.03 119.60,209.14 120.02,210.97" fill="none" stroke="rgb(0, 255, 0)" stroke-width="2.78" stroke-opacity="1.00" stroke-linejoin="round"/>
<path d="M144.68,148.85 C144.68,148.85 144.36,148.52 144.36,148.52 C144.17,150.66 143.70,154.39 142.96,159.54 C141.58,168.14 138.93,181.29 137.33,189.12 C134.81,201.58 133.56,209.21 133.05,211.80 C132.83,212.98 132.68,213.45 132.61,213.44" fill="none" stroke="rgb(0, 255, 0)" stroke-width="2.78" stroke-opacity="1.00" stroke-linejoin="round"/>
<path d="M158.61,156.97 C158.61,156.97 158.72,155.84 158.72,155.84 C158.74,156.32 158.67,156.98 158.38,158.85 C157.03,167.28 155.68,172.94 152.34,185.37 C148.27,200.78 146.56,215.39 145.94,225.05 C145.80,227.98 145.58,233.08 145.50,235.25" fill="none" stroke="rgb(0, 255, 0)" stroke-width="2.78" stroke-opacity="1.00" stroke-linejoin="round"/>
<path d="M178.21,159.15 C178.21,159.15 178.76,157.76 178.76,157.76 C178.76,157.76 178.49,157.31 178.49,157.31 C177.92,159.62 176.24,166.23 175.58,168.54 C174.68,171.66 168.85,188.69 168.12,191.13 C166.40,196.93 164.86,207.81 165.32,212.10 C165.66,215.05 166.32,216.64 166.61,217.17" fill="none" stroke="rgb(0, 255, 0)" stroke-width="2.78" stroke-opacity="1.00" stroke-linejoin="round"/>
<path d="M195.14,160.28 C195.14,160.28 195.22,160.32 195.22,160.32 C194.96,162.30 188.97,177.82 186.51,184.29 C183.67,192.38 180.89,203.31 180.38,208.69 C180.19,210.99 180.92,216.26 181.80,218.11 C182.38,219.30 183.35,220.46 183.91,220.80" fill="none" stroke="rgb(0, 255, 0)" stroke-width="2.78" stroke-opacity="1.00" stroke-linejoin="round"/>
<path d="M208.46,157.45 C208.46,157.45 208.34,156.98 208.34,156.98 C208.28,157.11 208.22,157.35 208.16,157.70 C207.67,160.69 204.17,199.65 203.80,209.57 C203.71,211.63 203.61,213.94 203.61,213.88" fill="none" stroke="rgb(0, 255, 0)" stroke-width="2.78" stroke-opacity="1.00" stroke-linejoin="round"/>
<path d="M226.13,159.85 C226.13,159.85 226.06,159.45 226.06,159.45" fill="none" stroke="rgb(0, 255, 0)" stroke-width="2.78" stroke-opacity="1.00" stroke-linejoin="round"/>
<path d="M224.48,160.37 C224.21,160.36 224.03,160.36 223.94,160.38 C223.85,160.40 223.72,160.47 223.55,160.57 C223.43,160.84 223.29,161.42 222.56,164.81 C220.01,176.72 218.28,187.13 217.77,193.15 C217.58,195.56 217.15,204.19 217.23,207.55 C217.25,208.19 217.38,210.21 217.40,210.73" fill="none" stroke="rgb(0, 255, 0)" stroke-width="2.78" stroke-opacity="1.00" stroke-linejoin="round"/>
<path d="M238.44,155.92 C238.44,155.92 238.80,155.50 238.80,155.50 C239.48,156.30 240.20,162.83 239.89,166.22 C239.41,171.12 235.09,187.13 234.16,191.60 C233.52,194.72 232.81,201.53 232.85,204.54 C232.87,205.69 232.95,206.69 233.03,207.37" fill="none" stroke="rgb(0, 255, 0)" stroke-width="2.78" stroke-opacity="1.00" stroke-linejoin="round"/>
<path d="M253.90,152.91 C253.53,153.77 253.36,154.52 253.28,155.99 C252.99,160.65 249.73,180.70 249.47,184.17 C249.04,189.97 249.55,199.87 250.09,203.32 C250.38,205.18 250.80,206.71 251.39,208.39" fill="none" stroke="rgb(0, 255, 0)" stroke-width="2.78" stroke-opacity="1.00" stroke-linejoin="round"/>
<path d="M272.40,149.72 C272.30,149.75 272.24,149.89 272.20,150.16 C272.06,151.11 269.91,171.03 268.92,178.40 C267.01,191.30 266.29,197.97 266.76,202.31 C266.98,204.34 267.54,205.07 267.71,205.13" fill="none" stroke="rgb(0, 255, 0)" stroke-width="2.78" stroke-opacity="1.00" stroke-linejoin="round"/>
<path d="M282.88,143.39 C282.88,143.39 283.07,143.05 283.07,143.05 C283.07,143.05 283.58,142.86 283.58,142.86 C284.97,144.09 285.80,146.97 285.81,149.32 C285.78,154.05 279.96,171.37 278.73,175.45 C275.04,188.11 273.75,200.63 273.88,204.38 C273.96,206.28 274.07,207.36 274.18,207.64" fill="none" stroke="rgb(0, 255, 0)" stroke-width="2.78" stroke-opacity="1.00" stroke-linejoin="round"/>
<path d="M299.38,148.24 C299.38,148.24 298.51,148.24 298.51,148.24 C297.99,148.90 296.35,154.54 295.33,158.83 C290.54,180.83 289.61,187.39 289.46,191.06 C289.33,194.36 289.90,197.65 289.94,197.54" fill="none" stroke="rgb(0, 255, 0)" stroke-width="2.78" stroke-opacity="1.00" stroke-linejoin="round"/>
<path d="M307.50,149.59 C307.50,149.59 307.39,149.53 307.39,149.53 C307.25,149.49 306.84,150.55 306.48,152.10 C306.33,152.72 301.22,179.66 300.89,183.00 C300.42,187.95 300.50,193.96 301.06,196.19 C301.42,197.61 302.13,199.18 302.24,199.09" fill="none" stroke="rgb(0, 255, 0)" stroke-width="2.78" stroke-opacity="1.00" stroke-linejoin="round"/>
<path d="M320.46,148.19 C320.46,148.19 320.10,148.06 320.10,148.06 C319.90,150.95 319.43,155.08 319.07,158.13 C318.15,165.40 316.22,181.17 316.22,184.05 C316.23,187.29 316.49,188.70 316.71,189.28" fill="none" stroke="rgb(0, 255, 0)" stroke-width="2.78" stroke-opacity="1.00" stroke-linejoin="round"/>
<path d="M337.84,150.11 C337.84,150.11 337.55,150.12 337.55,150.12 C337.57,152.48 337.54,153.68 337.41,156.00 C337.16,161.19 336.91,176.06 337.43,180.71 C337.96,185.19 340.10,190.06 341.82,191.71 C342.35,192.19 343.04,192.57 343.61,192.79" fill="none" stroke="rgb(0, 255, 0)" stroke-width="2.78" stroke-opacity="1.00" stroke-linejoin="round"/>
<path d="M355.65,153.21 C355.20,153.93 354.90,154.72 347.27,183.42 C346.44,186.47 343.92,195.68 343.25,197.93 C342.96,198.91 342.42,200.72 342.18,201.55" fill="none" stroke="rgb(0, 255, 0)" stroke-width="2.78" stroke-opacity="1.00" stroke-linejoin="round"/>
<path d="M362.81,148.76 C362.73,148.75 362.72,148.88 362.76,149.14 C364.14,155.46 366.34,166.74 366.03,171.61 C365.89,173.52 364.63,182.53 364.31,184.25 C363.53,188.44 362.57,192.15 362.16,193.63" fill="none" stroke="rgb(0, 255, 0)" stroke-width="2.78" stroke-opacity="1.00" stroke-linejoin="round"/>
<path d="M376.51,150.11 C376.51,150.11 375.69,150.43 375.69,150.43 C375.42,150.76 377.05,167.18 376.38,173.41 C375.62,180.19 373.16,189.07 372.49,191.29 C372.25,192.10 372.19,192.48 372.23,192.55 C372.23,192.55 372.58,192.09 372.58,192.09" fill="none" stroke="rgb(0, 255, 0)" stroke-width="2.78" stroke-opacity="1.00" stroke-linejoin="round"/>
<path d="M394.98,152.30 C395.42,153.78 395.64,155.32 395.74,158.28 C395.97,164.83 393.84,184.37 393.81,184.84 C393.79,185.24 393.77,185.98 393.75,187.06" fill="none" stroke="rgb(0, 255, 0)" stroke-width="2.78" stroke-opacity="1.00" stroke-linejoin="round"/>
</g>
</svg>
