<?xml version="1.0" encoding="UTF-8" standalone="no"?>
<!DOCTYPE svg PUBLIC "-//W3C//DTD SVG 1.1//EN" "http://www.w3.org/Graphics/SVG/1.1/DTD/svg11.dtd">
<svg width="128.40" height="181.68" viewBox="0.00 0.00 535.00 757.00" xmlns="http://www.w3.org/2000/svg" xmlns:xlink="http://www.w3.org/1999/xlink">
<g stroke-linecap="round" transform="translate(44.00, 155.00)" id="83-사람">
<path d="M133.41,302.44 C133.41,302.44 133.54,303.17 133.54,303.17 C133.54,303.17 133.89,303.20 133.89,303.20 C134.19,302.92 134.48,302.64 134.78,302.36 C136.63,300.68 138.53,299.74 140.74,299.56 C141.61,299.50 148.77,299.20 149.96,298.76 C150.53,298.54 151.00,298.01 150.98,297.95" fill="none" stroke="rgb(255, 0, 0)" stroke-width="4.51" stroke-opacity="1.00" stroke-linejoin="round"/>
<path d="M154.19,297.55 C154.19,297.55 153.96,297.97 153.96,297.97 C153.95,298.25 160.71,297.88 162.51,297.98 C163.37,298.03 170.99,298.83 172.26,298.60 C172.55,298.54 173.07,298.37 173.84,298.09" fill="none" stroke="rgb(255, 0, 0)" stroke-width="4.51" stroke-opacity="1.00" stroke-linejoin="round"/>
<path d="M175.54,293.07 C175.53,293.28 175.53,293.42 175.54,293.49 C175.60,293.75 175.73,293.88 175.96,293.89 C176.62,293.90 177.89,293.25 178.15,292.71 C178.61,291.63 176.23,288.34 174.05,286.39 C172.22,284.77 165.74,280.96 163.19,279.73 C159.42,277.97 153.75,277.23 150.51,277.54 C148.01,277.82 143.18,279.05 141.33,279.80 C139.33,280.63 132.14,284.69 129.33,286.59 C126.18,288.74 121.78,292.82 120.58,295.12 C119.03,298.24 117.78,307.76 118.39,310.18 C118.79,311.71 121.32,315.60 121.80,316.60 C122.74,318.55 121.76,327.30 121.75,328.45 C121.75,331.16 123.16,336.54 124.48,339.79 C125.54,342.35 128.87,349.14 129.93,350.56 C131.45,352.58 137.16,357.91 137.95,358.56 C140.82,360.84 142.19,361.28 143.40,361.25 C143.40,361.25 143.55,359.92 143.55,359.92" fill="none" stroke="rgb(255, 0, 0)" stroke-width="4.51" stroke-opacity="1.00" stroke-linejoin="round"/>
<path d="M181.07,294.35 C181.07,294.35 179.80,293.69 179.80,293.69 C179.80,293.69 179.07,293.89 179.07,293.89 C179.07,293.89 178.98,294.25 178.98,294.25 C178.98,294.25 182.07,294.22 182.07,294.22 C182.94,294.75 181.30,300.04 176.67,309.63 C174.52,314.11 173.47,317.67 172.50,319.42 C170.17,323.69 167.53,331.15 167.24,331.72 C166.61,332.95 160.69,338.16 158.56,340.13 C158.36,340.30 158.03,340.51 157.56,340.77 C157.56,340.77 157.13,340.70 157.13,340.70" fill="none" stroke="rgb(255, 0, 0)" stroke-width="4.51" stroke-opacity="1.00" stroke-linejoin="round"/>
<path d="M137.78,317.74 C138.27,317.49 138.75,317.29 139.22,317.13 C141.50,316.37 143.72,315.93 144.47,316.04 C144.47,316.04 144.31,316.16 144.31,316.16" fill="none" stroke="rgb(255, 0, 0)" stroke-width="4.51" stroke-opacity="1.00" stroke-linejoin="round"/>
<path d="M155.47,309.37 C155.38,309.32 155.31,309.29 155.28,309.26 C155.24,309.22 155.17,309.15 155.08,309.04 C156.13,309.26 157.15,309.41 158.88,309.59 C160.65,309.77 162.09,309.96 162.57,310.06 C162.69,310.09 162.76,310.13 162.80,310.17" fill="none" stroke="rgb(255, 0, 0)" stroke-width="4.51" stroke-opacity="1.00" stroke-linejoin="round"/>
<path d="M150.40,322.17 C150.40,322.17 150.95,323.70 150.95,323.70 C150.97,323.70 150.92,323.72 150.89,323.72 C147.95,323.66 143.85,325.56 142.68,327.06 C142.25,327.63 142.07,328.43 142.05,329.26 C142.52,330.08 143.34,330.72 144.45,330.84 C146.64,331.06 149.12,330.21 149.51,329.91 C149.68,329.76 149.76,329.59 149.76,329.41 C149.74,329.12 149.62,328.85 149.61,328.57 C149.61,328.36 149.64,327.93 149.73,327.26" fill="none" stroke="rgb(255, 0, 0)" stroke-width="4.51" stroke-opacity="1.00" stroke-linejoin="round"/>
<path d="M116.07,312.97 C116.07,312.97 116.07,313.07 116.07,313.07 C116.08,313.07 116.06,313.07 116.05,313.07 C115.22,312.99 112.49,312.93 111.35,313.07 C108.79,313.40 107.08,314.99 107.00,316.50 C106.98,317.41 107.24,319.29 107.54,320.24 C108.09,321.85 114.13,327.20 115.36,329.08 C115.92,329.92 117.76,332.51 118.89,332.88 C119.46,333.05 121.26,333.16 121.52,333.36 C121.57,333.40 121.60,333.49 121.60,333.62" fill="none" stroke="rgb(255, 0, 0)" stroke-width="4.51" stroke-opacity="1.00" stroke-linejoin="round"/>
<path d="M180.95,303.31 C180.80,303.70 180.70,303.94 180.64,304.05 C180.52,304.23 180.36,304.49 180.33,304.70 C180.33,304.70 187.03,305.14 187.03,305.14 C187.47,305.87 186.61,308.99 186.23,310.22 C185.17,313.57 182.32,317.55 179.60,319.44 C178.55,320.15 171.11,324.48 170.41,325.22 C170.03,325.63 169.06,327.13 169.09,327.08 C169.09,327.08 169.03,326.97 169.03,326.97" fill="none" stroke="rgb(255, 0, 0)" stroke-width="4.51" stroke-opacity="1.00" stroke-linejoin="round"/>
<path d="M177.29,327.05 C177.29,327.05 176.70,327.35 176.70,327.35 C177.14,327.82 178.03,328.51 178.16,328.72 C178.89,329.93 179.38,331.92 179.28,333.40 C179.23,333.99 171.95,375.02 172.09,381.17 C172.10,381.91 172.33,384.94 172.25,385.52 C172.06,386.87 167.70,391.13 167.00,391.90 C166.64,392.30 161.50,397.99 159.87,399.21 C158.65,400.11 152.85,402.69 151.28,403.51 C151.28,403.51 151.91,402.21 151.91,402.21" fill="none" stroke="rgb(255, 0, 0)" stroke-width="4.51" stroke-opacity="1.00" stroke-linejoin="round"/>
<path d="M177.23,392.11 C177.23,392.11 177.29,392.39 177.29,392.39" fill="none" stroke="rgb(255, 0, 0)" stroke-width="4.51" stroke-opacity="1.00" stroke-linejoin="round"/>
<path d="M171.99,388.85 C171.99,388.85 171.71,388.54 171.71,388.54 C171.71,388.54 171.70,388.17 171.70,388.17 C171.71,388.04 171.98,390.84 172.06,392.10 C172.23,394.48 173.71,396.46 174.03,400.18 C174.06,400.63 174.06,401.00 174.03,401.29 C174.03,401.29 174.08,400.89 174.08,400.89" fill="none" stroke="rgb(255, 0, 0)" stroke-width="4.51" stroke-opacity="1.00" stroke-linejoin="round"/>
<path d="M182.52,388.79 C182.52,388.79 182.05,390.44 182.05,390.44 C183.59,391.48 184.49,392.32 184.56,393.06 C184.67,394.93 181.33,398.60 180.73,399.68 C180.33,400.39 181.48,402.74 181.73,403.39 C182.14,404.38 180.10,406.36 177.35,407.31 C175.43,407.96 169.88,410.24 168.67,412.06 C167.35,414.12 167.43,421.74 167.16,423.94 C167.10,424.44 166.95,425.02 166.70,425.67" fill="none" stroke="rgb(255, 0, 0)" stroke-width="4.51" stroke-opacity="1.00" stroke-linejoin="round"/>
<path d="M162.91,429.70 C162.86,429.20 162.80,428.71 162.75,428.21 C162.74,428.16 162.73,428.02 162.74,428.07 C162.74,428.07 162.85,427.99 162.85,427.99 C164.32,429.14 165.11,429.95 166.30,431.63 C168.06,434.10 173.70,439.19 174.28,439.90 C175.48,441.37 176.59,447.58 176.58,448.19 C176.56,448.96 174.19,452.31 173.48,456.17 C173.42,456.55 173.33,456.92 173.22,457.27 C173.22,457.27 173.11,457.23 173.11,457.23 C173.11,457.23 173.04,457.02 173.04,457.02" fill="none" stroke="rgb(255, 0, 0)" stroke-width="4.51" stroke-opacity="1.00" stroke-linejoin="round"/>
<path d="M166.81,450.99 C166.67,450.69 166.55,450.49 166.47,450.38 C166.39,450.26 166.23,450.09 165.98,449.85 C165.91,449.64 164.89,450.80 163.82,452.40 C163.02,453.59 162.15,455.88 161.77,456.44 C161.40,457.00 160.50,457.53 160.43,457.43" fill="none" stroke="rgb(255, 0, 0)" stroke-width="4.51" stroke-opacity="1.00" stroke-linejoin="round"/>
<path d="M154.59,512.73 C154.58,513.08 154.57,513.43 154.55,513.79 C154.55,513.92 154.55,514.02 154.55,514.10 C154.45,514.31 155.87,514.54 157.60,514.51 C158.12,514.50 166.61,513.76 168.17,513.98 C169.64,514.19 170.75,514.88 171.05,515.53 C171.05,515.53 170.65,515.99 170.65,515.99" fill="none" stroke="rgb(255, 0, 0)" stroke-width="4.51" stroke-opacity="1.00" stroke-linejoin="round"/>
<path d="M156.69,516.16 C156.69,516.16 156.34,516.45 156.34,516.45 C156.27,516.83 156.68,519.78 157.10,521.22 C157.42,522.26 159.97,524.52 160.67,525.37 C160.76,525.49 162.86,530.93 164.18,531.77 C165.44,531.65 167.10,530.75 168.01,529.36 C168.82,528.10 169.43,524.71 169.29,522.83 C169.22,522.06 168.58,519.03 168.26,517.50" fill="none" stroke="rgb(255, 0, 0)" stroke-width="4.51" stroke-opacity="1.00" stroke-linejoin="round"/>
<path d="M175.72,448.38 C176.59,450.51 176.05,454.70 175.15,460.18 C174.33,465.34 173.84,470.28 174.21,473.03 C174.80,477.21 176.11,482.27 176.84,484.93 C177.69,488.60 177.94,493.42 177.33,497.05 C175.77,506.86 175.60,508.68 175.42,511.16 C175.42,511.16 175.42,510.20 175.42,510.20" fill="none" stroke="rgb(255, 0, 0)" stroke-width="4.51" stroke-opacity="1.00" stroke-linejoin="round"/>
<path d="M124.28,447.39 C124.28,447.39 123.97,447.21 123.97,447.21 C123.95,449.19 123.90,450.38 123.76,452.78 C123.28,461.19 125.09,468.79 125.03,474.66 C124.94,480.77 124.73,482.89 123.35,487.24 C121.32,493.51 116.41,500.34 115.76,501.42 C115.76,501.42 115.35,501.25 115.35,501.25 C115.35,501.25 115.20,500.58 115.20,500.58" fill="none" stroke="rgb(255, 0, 0)" stroke-width="4.51" stroke-opacity="1.00" stroke-linejoin="round"/>
<path d="M91.28,461.64 C91.28,461.64 91.16,461.71 91.16,461.71 C91.93,463.63 92.71,466.82 93.39,471.07 C94.29,476.46 95.91,486.12 96.04,495.53 C96.09,502.85 94.83,512.04 96.15,514.11 C97.11,515.55 101.29,517.56 103.48,517.78 C104.44,517.85 106.21,517.53 106.88,516.92 C108.23,515.61 110.00,513.14 110.39,511.86 C111.35,508.53 111.00,506.07 110.53,504.86 C108.56,504.14 104.45,505.88 100.44,507.99 C100.44,507.99 99.45,507.60 99.45,507.60 C99.45,507.60 99.27,506.31 99.27,506.31" fill="none" stroke="rgb(255, 0, 0)" stroke-width="4.51" stroke-opacity="1.00" stroke-linejoin="round"/>
<path d="M122.30,344.92 C122.30,344.92 122.25,344.51 122.25,344.51 C122.25,344.51 122.54,344.53 122.54,344.53 C122.89,346.02 121.57,351.80 120.34,354.77 C119.87,355.89 116.00,364.49 115.24,367.22 C113.82,372.43 112.49,383.36 113.42,386.61 C113.73,387.69 116.35,397.57 116.61,398.53 C116.91,399.62 118.05,401.70 118.78,402.58 C119.54,403.47 122.66,405.09 124.37,406.77 C124.35,406.24 124.31,405.98 124.19,405.64 C124.17,405.59 124.16,405.55 124.15,405.51" fill="none" stroke="rgb(255, 0, 0)" stroke-width="4.51" stroke-opacity="1.00" stroke-linejoin="round"/>
<path d="M115.20,396.06 C115.20,396.06 114.38,396.26 114.38,396.26 C114.61,396.40 115.67,396.24 117.35,395.72 C121.78,394.39 124.99,394.17 126.44,395.07 C127.80,396.01 129.65,400.78 129.10,401.36 C128.23,401.95 125.81,403.58 125.29,404.00 C123.92,405.10 123.04,406.22 122.87,406.92 C122.87,406.92 129.99,404.12 129.99,404.12 C129.11,405.21 124.59,408.53 124.76,409.76 C124.87,410.33 125.72,411.37 126.34,411.76 C127.42,412.39 131.66,411.93 132.56,410.93 C133.13,410.23 133.20,408.41 132.69,407.23 C132.29,406.35 131.25,405.13 130.75,404.77 C130.68,404.73 130.62,404.70 130.56,404.69" fill="none" stroke="rgb(255, 0, 0)" stroke-width="4.51" stroke-opacity="1.00" stroke-linejoin="round"/>
<path d="M119.04,426.44 C119.04,426.44 118.65,426.46 118.65,426.46 C118.41,431.78 118.42,435.46 118.86,438.84 C119.42,442.85 121.05,448.44 122.60,451.89 C122.84,452.43 123.36,453.50 124.15,455.11" fill="none" stroke="rgb(255, 0, 0)" stroke-width="4.51" stroke-opacity="1.00" stroke-linejoin="round"/>
</g>
</svg>
