<?xml version="1.0" encoding="UTF-8" standalone="no"?>
<!DOCTYPE svg PUBLIC "-//W3C//DTD SVG 1.1//EN" "http://www.w3.org/Graphics/SVG/1.1/DTD/svg11.dtd">
<svg width="128.40" height="181.68" viewBox="0.00 0.00 535.00 757.00" xmlns="http://www.w3.org/2000/svg" xmlns:xlink="http://www.w3.org/1999/xlink">
<g stroke-linecap="round" transform="translate(44.00, 155.00)" id="83-비">
<path d="M144.44,-57.97 C144.44,-57.97 144.71,-58.67 144.71,-58.67 C144.71,-58.67 147.17,-60.35 147.17,-60.35 C145.51,-60.21 142.39,-57.47 140.40,-55.61 C135.15,-50.68 123.95,-40.02 118.01,-34.29 C110.75,-27.00 102.12,-17.17 98.33,-12.46 C95.27,-8.65 87.16,3.41 83.49,9.04 C79.96,14.86 72.90,26.80 70.25,31.85 C66.97,38.38 61.15,50.13 60.04,53.30" fill="none" stroke="rgb(0, 255, 255)" stroke-width="4.51" stroke-opacity="1.00" stroke-linejoin="round"/>
<path d="M210.54,-41.18 C209.26,-41.80 208.76,-42.32 208.64,-42.48 C207.98,-43.12 204.10,-41.84 201.77,-39.73 C199.49,-37.62 173.20,-5.56 163.33,6.48 C154.10,17.57 139.90,36.25 132.87,48.04 C128.48,55.44 125.74,61.78 125.23,63.05" fill="none" stroke="rgb(0, 255, 255)" stroke-width="4.51" stroke-opacity="1.00" stroke-linejoin="round"/>
<path d="M279.87,-13.02 C280.30,-13.37 280.60,-13.61 280.76,-13.73 C281.16,-14.02 281.70,-14.34 281.84,-14.39 C281.08,-13.92 265.58,-5.35 260.82,-1.88 C257.50,0.55 242.91,12.56 239.13,16.00 C231.85,22.83 223.14,31.92 217.88,37.49 C213.09,42.82 202.05,55.38 199.18,59.01 C194.70,64.85 184.20,79.50 180.99,84.29 C179.95,85.86 179.08,87.37 177.75,89.82 C177.74,89.84 177.71,89.90 177.72,89.88" fill="none" stroke="rgb(0, 255, 255)" stroke-width="4.51" stroke-opacity="1.00" stroke-linejoin="round"/>
<path d="M334.17,30.74 C334.18,30.48 334.20,30.30 334.23,30.17 C334.26,30.05 334.34,29.82 334.46,29.49 C334.12,29.54 329.88,32.06 327.47,33.49 C307.26,45.52 296.33,53.30 279.46,66.60 C275.78,69.63 274.99,70.35 273.81,71.48" fill="none" stroke="rgb(0, 255, 255)" stroke-width="4.51" stroke-opacity="1.00" stroke-linejoin="round"/>
<path d="M189.33,45.19 C187.39,45.05 185.97,45.23 184.93,45.95 C183.40,47.03 155.64,74.32 145.01,84.51 C133.44,95.33 108.43,119.23 100.70,127.38 C90.46,138.27 74.47,158.98 72.50,162.54 C71.78,163.85 71.34,164.95 71.47,165.01 C71.47,165.01 71.66,164.98 71.66,164.98" fill="none" stroke="rgb(0, 255, 255)" stroke-width="4.51" stroke-opacity="1.00" stroke-linejoin="round"/>
<path d="M236.05,69.25 C236.05,69.25 235.00,69.51 235.00,69.51 C233.70,71.67 230.51,75.36 228.51,77.36 C220.25,85.59 211.51,93.80 205.64,98.58 C197.87,104.88 146.03,142.01 132.87,152.05 C122.73,159.96 121.81,160.62 120.14,161.76 C120.14,161.76 120.48,161.16 120.48,161.16" fill="none" stroke="rgb(0, 255, 255)" stroke-width="4.51" stroke-opacity="1.00" stroke-linejoin="round"/>
<path d="M316.81,49.36 C316.81,49.36 316.17,47.77 316.17,47.77 C316.17,47.77 316.50,47.05 316.50,47.05 C316.78,48.02 304.38,58.41 298.72,63.06 C295.85,65.35 282.70,76.03 278.87,80.18 C272.55,87.21 268.45,90.92 261.16,95.70 C259.68,96.66 257.70,98.07 256.27,99.09 C254.53,100.32 253.48,100.65 252.48,100.45 C252.48,100.45 252.03,99.92 252.03,99.92" fill="none" stroke="rgb(0, 255, 255)" stroke-width="4.51" stroke-opacity="1.00" stroke-linejoin="round"/>
<path d="M245.27,108.77 C245.27,108.77 245.50,107.86 245.50,107.86 C245.27,107.93 243.95,108.63 243.15,109.23 C242.12,110.00 240.30,111.68 239.62,112.40" fill="none" stroke="rgb(0, 255, 255)" stroke-width="4.51" stroke-opacity="1.00" stroke-linejoin="round"/>
<path d="M233.78,117.68 C232.41,118.70 230.28,120.22 229.32,120.78 C228.37,121.35 226.48,122.20 225.32,122.67" fill="none" stroke="rgb(0, 255, 255)" stroke-width="4.51" stroke-opacity="1.00" stroke-linejoin="round"/>
<path d="M213.89,123.55 C212.87,123.61 211.70,123.85 209.86,124.43 C204.00,126.30 197.76,130.42 196.03,132.21 C195.16,133.12 194.76,133.67 194.77,133.83 C194.66,133.85 194.97,133.91 195.08,133.92 C195.38,133.97 196.28,134.09 197.78,134.29" fill="none" stroke="rgb(0, 255, 255)" stroke-width="4.51" stroke-opacity="1.00" stroke-linejoin="round"/>
<path d="M213.13,140.28 C213.10,140.14 213.08,140.05 213.08,140.02 C213.07,139.98 213.07,139.94 213.06,139.90 C213.08,139.92 212.93,140.02 212.60,140.21 C209.41,142.06 201.88,145.37 201.33,145.59 C201.03,145.71 200.55,145.89 199.87,146.14" fill="none" stroke="rgb(0, 255, 255)" stroke-width="4.51" stroke-opacity="1.00" stroke-linejoin="round"/>
<path d="M332.91,98.61 C332.91,98.61 333.22,96.99 333.22,96.99 C330.87,99.14 329.92,99.97 325.87,103.42 C313.43,113.94 290.63,131.84 278.95,140.69 C265.64,150.68 234.00,174.46 229.60,177.96 C226.21,180.73 214.71,190.81 210.34,195.16 C207.43,198.09 195.41,211.65 190.25,217.77 C187.17,221.50 184.16,225.61 181.17,230.04" fill="none" stroke="rgb(0, 255, 255)" stroke-width="4.51" stroke-opacity="1.00" stroke-linejoin="round"/>
<path d="M244.39,175.70 C244.00,174.96 242.90,173.93 242.15,174.31 C240.64,175.13 237.02,182.15 235.43,185.22 C234.84,186.38 233.49,188.97 232.73,190.41" fill="none" stroke="rgb(0, 255, 255)" stroke-width="4.51" stroke-opacity="1.00" stroke-linejoin="round"/>
</g>
</svg>
