<?xml version="1.0" encoding="UTF-8" standalone="no"?>
<!DOCTYPE svg PUBLIC "-//W3C//DTD SVG 1.1//EN" "http://www.w3.org/Graphics/SVG/1.1/DTD/svg11.dtd">
<svg width="128.40" height="181.68" viewBox="0.00 0.00 535.00 757.00" xmlns="http://www.w3.org/2000/svg" xmlns:xlink="http://www.w3.org/1999/xlink">
<g stroke-linecap="round" transform="translate(44.00, 155.00)" id="84-비">
<path d="M73.04,65.41 C72.89,64.80 72.80,64.37 72.78,64.11 C72.75,63.86 72.77,63.42 72.81,62.80 C72.81,62.80 72.67,62.62 72.67,62.62 C71.09,64.34 68.60,69.22 67.12,72.80 C63.13,82.75 60.47,90.63 58.68,98.14 C57.81,101.82 56.68,109.50 56.44,112.68 C56.33,114.32 56.30,116.43 56.35,116.79 C56.38,116.81 56.41,116.79 56.43,116.73 C56.46,116.66 56.51,116.46 56.61,116.13" fill="none" stroke="rgb(0, 255, 255)" stroke-width="2.97" stroke-opacity="1.00" stroke-linejoin="round"/>
<path d="M116.13,75.48 C116.13,75.48 115.65,74.99 115.65,74.99 C115.65,74.99 115.75,73.93 115.75,73.93 C115.61,73.89 112.42,76.62 109.92,81.85 C107.51,87.03 104.48,98.96 103.64,105.98 C103.19,109.80 103.21,112.35 103.30,114.15" fill="none" stroke="rgb(0, 255, 255)" stroke-width="2.97" stroke-opacity="1.00" stroke-linejoin="round"/>
<path d="M117.73,75.48 C117.73,75.48 116.63,75.11 116.63,75.11 C115.98,76.72 114.99,82.14 114.39,86.80 C113.41,94.82 112.20,104.94 111.99,107.59" fill="none" stroke="rgb(0, 255, 255)" stroke-width="2.97" stroke-opacity="1.00" stroke-linejoin="round"/>
<path d="M148.16,63.97 C148.16,63.97 148.21,63.08 148.21,63.08 C147.17,64.23 146.51,65.14 145.49,66.93 C141.17,74.57 136.62,86.22 135.20,91.54 C134.32,94.91 133.21,100.26 132.98,103.07 C132.58,108.69 132.99,114.04 133.51,114.35" fill="none" stroke="rgb(0, 255, 255)" stroke-width="2.97" stroke-opacity="1.00" stroke-linejoin="round"/>
<path d="M159.05,64.19 C159.05,64.19 158.86,64.14 158.86,64.14 C158.33,64.79 154.73,69.49 153.97,70.96 C152.49,73.87 150.60,80.86 149.98,85.10 C149.50,88.53 149.16,95.77 149.28,96.99 C149.33,97.47 149.50,98.56 149.78,100.26" fill="none" stroke="rgb(0, 255, 255)" stroke-width="2.97" stroke-opacity="1.00" stroke-linejoin="round"/>
<path d="M163.42,73.21 C163.42,73.21 163.22,72.73 163.22,72.73 C162.01,73.58 157.97,89.46 156.97,97.12 C156.49,100.97 156.39,105.36 156.64,107.94 C156.64,107.94 156.85,107.80 156.85,107.80 C156.85,107.80 157.05,106.33 157.05,106.33" fill="none" stroke="rgb(0, 255, 255)" stroke-width="2.97" stroke-opacity="1.00" stroke-linejoin="round"/>
<path d="M216.80,65.63 C217.57,64.92 218.06,64.46 218.27,64.25 C218.48,64.03 218.70,63.77 218.93,63.45 C218.62,65.19 217.87,71.66 217.61,75.29 C216.63,89.64 220.87,108.12 221.82,111.06 C222.21,112.23 222.63,113.26 222.84,113.67" fill="none" stroke="rgb(0, 255, 255)" stroke-width="2.97" stroke-opacity="1.00" stroke-linejoin="round"/>
<path d="M227.42,72.21 C227.19,72.27 226.79,73.89 226.39,76.60 C225.56,82.19 225.14,97.91 226.21,105.23 C226.51,107.21 227.17,110.06 227.74,111.89 C228.19,113.32 228.77,114.55 229.25,115.30" fill="none" stroke="rgb(0, 255, 255)" stroke-width="2.97" stroke-opacity="1.00" stroke-linejoin="round"/>
<path d="M239.37,68.51 C239.14,69.19 239.04,70.07 238.95,72.56 C238.78,76.18 238.44,82.81 238.26,85.82 C238.18,87.21 238.05,89.31 238.01,90.03" fill="none" stroke="rgb(0, 255, 255)" stroke-width="2.97" stroke-opacity="1.00" stroke-linejoin="round"/>
<path d="M274.11,79.07 C273.65,78.29 273.28,77.79 273.01,77.58 C272.33,77.08 270.54,76.87 269.94,77.17 C268.29,78.12 266.24,82.65 265.72,85.08 C264.68,90.37 265.54,96.87 265.75,97.40" fill="none" stroke="rgb(0, 255, 255)" stroke-width="2.97" stroke-opacity="1.00" stroke-linejoin="round"/>
<path d="M285.23,73.43 C284.89,73.90 284.55,74.80 283.95,76.92 C282.35,82.74 280.85,93.44 280.89,98.75 C280.99,106.09 282.78,111.98 283.18,113.16" fill="none" stroke="rgb(0, 255, 255)" stroke-width="2.97" stroke-opacity="1.00" stroke-linejoin="round"/>
<path d="M339.77,86.10 C339.77,86.10 338.07,84.95 338.07,84.95 C337.06,86.33 336.18,89.58 335.88,92.85 C335.48,97.56 335.36,103.12 335.57,107.80 C335.97,115.86 337.55,122.66 337.81,123.71" fill="none" stroke="rgb(0, 255, 255)" stroke-width="2.97" stroke-opacity="1.00" stroke-linejoin="round"/>
<path d="M361.01,71.05 C361.01,71.05 360.38,69.27 360.38,69.27 C359.45,69.46 358.75,70.09 358.17,71.59 C356.02,77.13 353.17,94.03 352.99,99.07 C352.93,100.83 352.92,104.09 352.95,106.08" fill="none" stroke="rgb(0, 255, 255)" stroke-width="2.97" stroke-opacity="1.00" stroke-linejoin="round"/>
<path d="M375.34,90.25 C375.34,90.25 373.73,89.43 373.73,89.43 C372.02,90.80 368.97,104.38 368.92,110.36 C368.89,116.96 370.85,128.07 371.19,129.70" fill="none" stroke="rgb(0, 255, 255)" stroke-width="2.97" stroke-opacity="1.00" stroke-linejoin="round"/>
</g>
</svg>
