<?xml version="1.0" encoding="UTF-8" standalone="no"?>
<!DOCTYPE svg PUBLIC "-//W3C//DTD SVG 1.1//EN" "http://www.w3.org/Graphics/SVG/1.1/DTD/svg11.dtd">
<svg width="128.40" height="181.68" viewBox="0.00 0.00 535.00 757.00" xmlns="http://www.w3.org/2000/svg" xmlns:xlink="http://www.w3.org/1999/xlink">
<g stroke-linecap="round" transform="translate(44.00, 155.00)" id="85-사람">
<path d="M154.52,114.35 C154.52,114.35 153.98,114.52 153.98,114.52 C153.98,114.52 153.57,114.34 153.57,114.34 C153.57,114.34 153.77,113.07 153.77,113.07 C153.05,112.94 149.83,115.72 147.55,119.14 C143.88,124.80 139.98,144.81 140.00,148.53 C140.03,151.56 141.17,156.31 142.44,160.53 C143.92,165.35 146.83,170.44 149.63,172.95 C152.22,175.22 159.31,180.22 162.20,181.34 C164.81,182.29 168.14,182.21 173.18,181.59 C178.79,180.90 182.69,180.16 184.81,179.15 C187.20,177.97 190.64,175.50 192.35,173.83 C193.94,172.26 196.74,168.66 197.92,166.70 C200.17,162.91 203.42,150.95 204.09,145.42 C204.65,140.59 204.98,125.62 204.16,122.68 C203.18,119.30 200.22,115.23 199.06,114.07 C196.19,111.23 188.40,107.12 183.56,106.01 C181.21,105.48 176.89,105.15 174.63,105.38 C170.28,105.85 156.46,110.99 151.67,114.78 C150.31,115.89 147.61,118.86 146.87,120.15 C145.35,122.85 145.31,125.24 145.39,125.41" fill="none" stroke="rgb(255, 0, 0)" stroke-width="2.97" stroke-opacity="1.00" stroke-linejoin="round"/>
<path d="M153.83,118.07 C153.81,118.04 153.81,117.96 153.84,117.82 C153.86,117.69 153.94,117.30 154.08,116.67 C153.76,115.70 148.80,111.34 147.15,110.67 C144.85,109.77 141.62,110.80 140.67,111.66 C139.52,112.75 136.88,117.78 135.90,120.53 C134.73,123.89 133.33,130.65 133.05,135.11 C132.83,139.17 133.49,146.02 134.31,148.32 C135.15,150.55 137.51,153.43 138.77,153.86 C139.89,154.23 140.89,154.21 141.25,153.92" fill="none" stroke="rgb(255, 0, 0)" stroke-width="2.97" stroke-opacity="1.00" stroke-linejoin="round"/>
<path d="M156.65,116.59 C156.55,116.87 156.26,117.25 155.98,117.40 C155.90,117.45 155.74,117.50 155.52,117.56 C155.52,117.56 155.21,117.45 155.21,117.45 C154.76,117.01 155.24,112.71 156.44,109.32 C157.58,106.22 160.85,100.30 162.59,97.93 C164.52,95.33 169.33,91.03 172.02,89.38 C174.34,87.99 179.83,85.77 181.72,85.56 C183.78,85.38 186.97,85.71 188.41,86.36 C191.07,87.65 193.99,92.44 195.55,95.92 C196.86,98.83 199.06,101.68 201.15,101.91 C201.72,101.96 209.65,101.99 211.90,102.26 C214.52,102.61 219.07,104.83 220.12,106.42 C220.91,107.79 220.91,112.64 219.51,116.32 C218.22,119.60 208.28,132.26 207.82,133.52 C208.26,134.21 212.80,135.97 214.56,137.03 C215.70,137.76 217.72,139.77 218.68,141.26 C219.71,142.91 220.39,146.17 220.27,148.06 C220.12,149.64 217.93,153.15 215.71,155.48 C210.55,160.84 200.63,169.56 196.55,171.97 C196.31,172.12 196.10,172.23 195.93,172.33" fill="none" stroke="rgb(255, 0, 0)" stroke-width="2.97" stroke-opacity="1.00" stroke-linejoin="round"/>
<path d="M170.05,183.89 C170.10,183.74 170.13,183.61 170.15,183.50 C170.17,183.40 170.21,183.17 170.25,182.83 C170.68,184.49 170.71,189.34 170.56,193.31 C170.45,196.30 171.02,200.69 172.41,203.03 C172.62,203.37 172.95,203.75 173.39,204.16" fill="none" stroke="rgb(255, 0, 0)" stroke-width="2.97" stroke-opacity="1.00" stroke-linejoin="round"/>
<path d="M182.88,184.26 C182.89,184.11 182.89,183.99 182.88,183.90 C182.87,183.80 182.82,183.60 182.75,183.29 C182.82,184.92 183.05,187.08 183.36,188.64 C183.73,190.50 184.68,193.38 184.69,193.42" fill="none" stroke="rgb(255, 0, 0)" stroke-width="2.97" stroke-opacity="1.00" stroke-linejoin="round"/>
<path d="M172.42,203.63 C172.42,203.63 171.78,203.15 171.78,203.15 C170.70,203.43 166.15,216.82 159.52,233.07 C157.65,237.98 152.64,252.84 152.79,256.46 C152.98,260.30 156.54,271.25 159.33,277.03 C160.83,280.11 163.69,285.06 165.55,287.59 C168.62,291.68 173.97,295.64 174.29,295.78 C174.29,295.78 174.05,294.82 174.05,294.82" fill="none" stroke="rgb(255, 0, 0)" stroke-width="2.97" stroke-opacity="1.00" stroke-linejoin="round"/>
<path d="M172.54,247.84 C172.50,248.25 171.88,249.59 171.86,249.73 C171.26,253.49 173.73,266.72 174.98,270.99 C175.86,273.98 182.80,294.59 183.26,295.17 C183.75,294.60 184.04,294.23 184.13,294.08 C184.23,293.93 184.27,293.79 184.25,293.65" fill="none" stroke="rgb(255, 0, 0)" stroke-width="2.97" stroke-opacity="1.00" stroke-linejoin="round"/>
<path d="M203.80,246.90 C203.80,246.90 204.03,245.93 204.03,245.93 C204.03,245.93 204.19,245.87 204.19,245.87 C204.65,246.42 205.99,263.11 206.73,269.83 C207.11,273.26 207.40,279.57 206.73,280.87 C205.87,282.42 194.76,288.90 187.48,293.44 C185.88,294.44 185.35,294.73 184.93,294.84 C188.56,289.80 206.80,282.39 209.69,281.10 C212.05,280.04 213.15,278.73 213.08,278.67" fill="none" stroke="rgb(255, 0, 0)" stroke-width="2.97" stroke-opacity="1.00" stroke-linejoin="round"/>
<path d="M191.34,190.92 C191.34,190.92 191.31,191.38 191.31,191.38 C191.31,191.38 191.02,191.57 191.02,191.57 C191.02,191.57 190.67,191.39 190.67,191.39 C191.17,193.46 194.10,198.23 195.37,199.93 C197.22,202.40 210.14,217.96 212.29,222.50 C214.51,227.33 217.59,242.32 218.97,249.23 C220.97,260.94 222.21,272.07 222.32,281.23 C222.36,285.08 222.10,286.77 221.97,286.95 C221.97,286.95 221.78,285.75 221.78,285.75" fill="none" stroke="rgb(255, 0, 0)" stroke-width="2.97" stroke-opacity="1.00" stroke-linejoin="round"/>
<path d="M179.86,295.94 C180.05,296.05 180.19,296.12 180.27,296.16 C180.42,296.24 180.57,296.31 180.72,296.37 C180.78,296.39 180.87,296.42 180.99,296.46 C180.54,299.28 165.17,343.62 164.20,347.68 C163.91,348.92 162.75,356.47 162.71,358.93 C162.67,363.48 165.95,374.72 168.24,379.06 C169.71,381.82 171.90,384.72 174.47,387.40 C176.71,389.71 182.75,395.77 184.53,396.89 C187.80,398.93 197.56,400.50 198.85,401.14 C198.11,399.64 196.79,391.63 196.74,389.39 C196.74,389.01 196.75,388.43 196.79,387.65 C196.80,387.44 196.81,387.22 196.82,387.00" fill="none" stroke="rgb(255, 0, 0)" stroke-width="2.97" stroke-opacity="1.00" stroke-linejoin="round"/>
<path d="M205.36,282.70 C205.36,282.70 205.41,283.55 205.41,283.55 C206.00,283.56 206.44,284.15 208.12,287.84 C214.21,301.03 224.61,324.10 226.13,329.35 C227.07,332.66 227.72,339.42 227.59,342.22 C227.51,343.54 226.72,349.04 225.85,351.73 C224.00,357.29 215.58,369.41 211.87,372.96 C209.98,374.76 194.40,388.35 193.26,390.00 C192.29,391.44 189.83,395.15 189.46,395.62 C189.22,395.93 188.88,396.26 188.45,396.63" fill="none" stroke="rgb(255, 0, 0)" stroke-width="2.97" stroke-opacity="1.00" stroke-linejoin="round"/>
<path d="M186.23,403.85 C186.23,403.85 186.40,404.04 186.40,404.04 C186.40,404.04 186.59,403.97 186.59,403.97 C186.68,403.36 186.75,402.97 186.76,402.78 C186.80,402.13 186.84,401.48 186.88,400.83 C186.90,400.52 186.94,400.07 187.00,399.49 C186.76,405.27 187.05,410.67 188.16,411.77 C188.28,411.88 188.52,412.01 188.88,412.17 C188.88,412.17 189.39,411.97 189.39,411.97" fill="none" stroke="rgb(255, 0, 0)" stroke-width="2.97" stroke-opacity="1.00" stroke-linejoin="round"/>
<path d="M196.65,393.77 C196.43,394.63 197.50,398.39 199.27,401.84 C200.24,403.70 201.75,406.39 202.36,407.34 C202.62,407.75 202.96,408.17 203.38,408.62" fill="none" stroke="rgb(255, 0, 0)" stroke-width="2.97" stroke-opacity="1.00" stroke-linejoin="round"/>
<path d="M207.56,371.57 C207.12,372.60 207.04,373.10 207.29,374.20 C207.80,376.37 211.23,394.92 213.87,402.14 C214.45,403.71 214.93,404.76 215.12,405.00 C215.12,405.00 215.19,404.94 215.19,404.94 C215.19,404.94 215.16,404.58 215.16,404.58" fill="none" stroke="rgb(255, 0, 0)" stroke-width="2.97" stroke-opacity="1.00" stroke-linejoin="round"/>
<path d="M212.55,375.37 C212.55,375.37 212.43,375.50 212.43,375.50 C212.38,375.49 212.82,377.95 213.92,380.70 C214.11,381.17 217.61,388.87 218.22,390.89 C219.53,395.38 219.88,400.58 219.78,401.26 C219.78,401.26 219.57,401.31 219.57,401.31" fill="none" stroke="rgb(255, 0, 0)" stroke-width="2.97" stroke-opacity="1.00" stroke-linejoin="round"/>
<path d="M147.21,143.44 C147.21,143.44 146.86,142.38 146.86,142.38 C146.86,142.38 146.14,142.58 146.14,142.58 C149.20,140.99 153.19,139.98 157.26,139.88 C159.34,139.85 160.83,139.73 162.23,139.53 C162.23,139.53 162.09,139.65 162.09,139.65" fill="none" stroke="rgb(255, 0, 0)" stroke-width="2.97" stroke-opacity="1.00" stroke-linejoin="round"/>
<path d="M152.81,149.61 C152.81,149.61 152.45,149.86 152.45,149.86 C153.02,149.78 154.86,149.18 155.58,149.00 C156.78,148.71 161.21,149.84 161.20,149.84 C161.20,149.84 155.00,150.28 155.00,150.28 C155.00,150.28 155.57,150.56 155.57,150.56 C155.57,150.56 155.28,155.49 155.28,155.49 C155.28,155.49 156.37,149.67 156.37,149.67 C156.37,149.67 156.39,154.39 156.39,154.39 C156.39,154.39 157.00,151.32 157.00,151.32 C156.21,151.44 155.77,151.71 155.70,152.39 C155.53,154.25 156.10,155.27 156.45,155.64" fill="none" stroke="rgb(255, 0, 0)" stroke-width="2.97" stroke-opacity="1.00" stroke-linejoin="round"/>
<path d="M169.40,131.30 C169.46,131.29 169.50,131.27 169.53,131.24 C169.55,131.22 169.59,131.15 169.64,131.04 C169.64,131.04 169.77,131.05 169.77,131.05 C169.77,131.87 169.44,139.25 169.49,142.64 C169.55,146.49 170.52,151.68 171.23,152.44 C172.05,153.22 175.72,153.03 178.18,152.53 C178.53,152.46 179.17,152.30 180.11,152.06" fill="none" stroke="rgb(255, 0, 0)" stroke-width="2.97" stroke-opacity="1.00" stroke-linejoin="round"/>
<path d="M179.20,135.96 C179.20,135.96 178.80,136.31 178.80,136.31 C178.83,136.21 179.17,136.09 180.67,135.74 C182.90,135.22 185.53,134.78 187.35,134.66 C189.01,134.55 190.70,134.85 191.40,135.26 C191.52,135.33 191.56,135.41 191.54,135.50" fill="none" stroke="rgb(255, 0, 0)" stroke-width="2.97" stroke-opacity="1.00" stroke-linejoin="round"/>
<path d="M187.62,141.64 C187.62,141.64 187.56,140.13 187.56,140.13 C187.56,140.13 185.81,143.10 185.81,143.10 C186.84,143.69 188.09,141.64 188.12,141.27 C188.12,141.27 186.65,143.94 186.65,143.94 C186.65,143.94 188.60,141.20 188.60,141.20 C188.60,141.20 186.44,142.65 186.44,142.65 C186.44,142.65 188.08,141.86 188.08,141.86 C187.70,141.43 186.45,142.14 185.46,143.55 C185.22,143.90 184.96,144.45 184.68,145.20" fill="none" stroke="rgb(255, 0, 0)" stroke-width="2.97" stroke-opacity="1.00" stroke-linejoin="round"/>
<path d="M169.19,166.40 C169.19,166.40 169.29,166.41 169.29,166.41 C169.29,166.41 166.26,170.32 166.26,170.32 C166.26,170.32 169.53,166.99 169.53,166.99 C170.11,166.76 173.43,168.43 173.42,168.72 C173.41,168.76 173.42,168.86 173.46,169.01 C173.09,169.27 168.51,168.10 168.49,168.09 C168.37,168.08 166.83,169.31 166.51,169.55 C166.74,169.77 171.31,167.42 171.99,167.30 C172.42,167.22 174.01,167.69 174.23,167.55 C174.23,167.55 174.22,167.18 174.22,167.18" fill="none" stroke="rgb(255, 0, 0)" stroke-width="2.97" stroke-opacity="1.00" stroke-linejoin="round"/>
</g>
</svg>
