<?xml version="1.0" encoding="UTF-8" standalone="no"?>
<!DOCTYPE svg PUBLIC "-//W3C//DTD SVG 1.1//EN" "http://www.w3.org/Graphics/SVG/1.1/DTD/svg11.dtd">
<svg width="128.40" height="181.68" viewBox="0.00 0.00 535.00 757.00" xmlns="http://www.w3.org/2000/svg" xmlns:xlink="http://www.w3.org/1999/xlink">
<g stroke-linecap="round" transform="translate(44.00, 155.00)" id="86-사람">
<path d="M297.67,165.59 C297.67,165.59 298.00,164.99 298.00,164.99 C298.00,164.99 298.09,165.13 298.09,165.13 C297.45,165.71 294.93,168.07 294.24,168.80 C293.11,169.98 291.34,174.22 290.95,176.79 C290.61,179.13 290.93,183.63 291.45,185.79 C292.43,189.65 297.86,198.75 299.95,200.43 C301.07,201.29 307.23,203.04 308.35,203.13 C309.00,203.18 309.70,202.64 309.68,202.59" fill="none" stroke="rgb(255, 0, 255)" stroke-width="2.97" stroke-opacity="1.00" stroke-linejoin="round"/>
<path d="M299.15,165.28 C299.15,165.28 299.48,164.50 299.48,164.50 C299.48,164.50 299.47,164.15 299.47,164.15 C299.87,163.61 303.29,161.68 306.10,160.59 C309.71,159.22 315.61,158.11 318.09,158.57 C320.74,159.13 326.02,162.75 328.14,165.32 C330.09,167.77 331.15,171.50 331.23,175.07 C331.26,178.81 330.32,182.23 328.75,185.21 C325.70,190.79 316.31,203.52 316.01,204.09 C315.00,206.08 314.83,214.84 314.55,215.80 C314.55,215.80 314.39,215.86 314.39,215.86 C314.39,215.86 314.36,215.82 314.36,215.82" fill="none" stroke="rgb(255, 0, 255)" stroke-width="2.97" stroke-opacity="1.00" stroke-linejoin="round"/>
<path d="M305.34,204.42 C305.39,204.43 305.58,204.40 305.60,204.41 C305.63,204.42 305.70,204.45 305.79,204.52 C305.86,206.73 305.96,208.29 306.21,210.11 C306.62,213.13 307.40,219.04 307.28,219.63 C307.28,219.63 307.46,218.93 307.46,218.93" fill="none" stroke="rgb(255, 0, 255)" stroke-width="2.97" stroke-opacity="1.00" stroke-linejoin="round"/>
<path d="M306.03,218.45 C306.03,218.45 306.02,218.30 306.02,218.30 C305.52,218.25 302.36,219.12 301.09,219.45 C300.95,219.49 291.73,221.97 288.53,223.42 C285.81,224.67 280.39,227.90 278.31,229.47 C275.37,231.71 271.55,236.37 270.57,238.70 C269.64,241.07 270.47,247.33 272.05,250.64 C273.27,253.13 276.97,256.80 278.89,258.38 C280.02,259.31 281.52,259.38 281.64,259.31" fill="none" stroke="rgb(255, 0, 255)" stroke-width="2.97" stroke-opacity="1.00" stroke-linejoin="round"/>
<path d="M297.67,231.61 C298.00,230.90 298.33,230.18 298.67,229.47 C298.79,229.21 298.87,229.04 298.91,228.96 C298.06,229.21 294.47,232.18 292.08,235.40 C289.65,238.71 284.23,248.37 283.32,252.46 C282.79,254.90 282.83,256.58 283.37,257.14 C283.78,257.17 284.03,257.18 284.12,257.18 C284.21,257.18 284.27,257.16 284.30,257.12" fill="none" stroke="rgb(255, 0, 255)" stroke-width="2.97" stroke-opacity="1.00" stroke-linejoin="round"/>
<path d="M296.53,229.92 C296.53,229.92 297.06,228.83 297.06,228.83 C297.22,228.88 297.64,229.38 295.76,251.53 C294.70,266.22 293.08,288.25 293.81,290.97 C294.23,292.43 296.44,294.86 297.97,295.51 C300.36,296.49 315.63,296.75 317.96,296.58 C319.81,296.43 321.63,295.42 321.64,295.33" fill="none" stroke="rgb(255, 0, 255)" stroke-width="2.97" stroke-opacity="1.00" stroke-linejoin="round"/>
<path d="M330.90,239.14 C330.90,239.14 331.54,238.09 331.54,238.09 C331.54,238.09 331.71,238.15 331.71,238.15 C331.35,238.97 327.63,246.31 326.98,248.15 C325.56,252.29 324.44,262.63 324.26,268.94 C324.02,277.31 323.59,291.86 322.35,295.95 C321.82,297.69 321.73,298.06 321.79,298.13 C322.08,297.62 322.26,297.29 322.34,297.15 C322.41,297.01 322.47,296.86 322.53,296.70" fill="none" stroke="rgb(255, 0, 255)" stroke-width="2.97" stroke-opacity="1.00" stroke-linejoin="round"/>
<path d="M312.76,217.31 C312.76,217.31 311.44,218.51 311.44,218.51 C311.44,218.51 311.55,218.93 311.55,218.93 C312.64,219.32 326.54,220.89 330.15,221.78 C332.79,222.47 336.80,224.80 338.43,226.59 C342.68,231.39 348.74,243.52 350.77,249.83 C352.22,254.43 353.35,259.85 353.48,264.36 C353.52,265.95 353.42,267.20 353.31,267.52 C353.31,267.52 353.23,267.53 353.23,267.53" fill="none" stroke="rgb(255, 0, 255)" stroke-width="2.97" stroke-opacity="1.00" stroke-linejoin="round"/>
<path d="M327.10,229.99 C327.10,229.99 327.03,229.68 327.03,229.68 C327.35,230.61 336.06,241.94 338.61,247.07 C340.88,251.73 342.39,255.32 344.15,260.10 C345.16,262.76 347.49,267.47 348.57,267.58 C349.59,267.66 351.24,267.53 351.65,267.33 C352.21,267.03 352.74,266.60 352.98,266.29" fill="none" stroke="rgb(255, 0, 255)" stroke-width="2.97" stroke-opacity="1.00" stroke-linejoin="round"/>
<path d="M345.79,264.95 C345.83,264.97 345.86,264.98 345.87,264.98 C345.88,264.99 345.89,265.00 345.91,265.02 C345.51,265.00 343.83,266.33 342.69,268.11 C341.49,270.00 341.19,272.12 341.40,272.20 C341.40,272.20 345.85,269.41 345.85,269.41 C345.85,269.41 342.69,276.71 342.69,276.71 C342.69,276.71 348.58,270.91 348.58,270.91 C348.58,270.91 348.07,277.46 348.07,277.46 C348.07,277.46 351.63,271.54 351.63,271.54 C351.63,271.54 353.71,273.80 353.71,273.80 C353.71,273.80 354.62,269.38 354.62,269.38 C354.62,269.38 356.46,270.62 356.46,270.62 C358.19,269.62 355.65,263.25 355.67,263.13 C355.67,263.13 356.06,263.29 356.06,263.29" fill="none" stroke="rgb(255, 0, 255)" stroke-width="2.97" stroke-opacity="1.00" stroke-linejoin="round"/>
<path d="M283.09,257.07 C283.09,257.07 282.98,257.17 282.98,257.17 C282.97,257.29 282.96,257.36 282.95,257.38 C282.94,257.42 282.93,257.45 282.93,257.49 C282.95,257.70 283.00,257.87 283.07,258.02 C283.31,258.52 286.18,261.83 286.27,262.02 C285.77,262.34 283.29,262.11 282.81,261.50 C282.75,261.43 281.88,259.80 281.72,259.60 C281.84,260.36 284.22,264.10 284.14,264.75 C284.12,264.89 284.02,265.13 283.83,265.48 C283.83,265.48 280.71,261.20 280.71,261.20 C280.71,261.20 281.18,268.07 281.18,268.07 C279.51,266.79 279.16,264.20 278.87,261.46 C278.87,261.46 277.54,266.81 277.54,266.81 C276.62,266.36 276.24,265.74 276.28,264.41 C276.38,261.80 277.53,258.61 277.83,258.39 C277.89,258.36 278.00,258.32 278.17,258.28" fill="none" stroke="rgb(255, 0, 255)" stroke-width="2.97" stroke-opacity="1.00" stroke-linejoin="round"/>
<path d="M296.04,296.08 C296.04,296.08 296.58,295.26 296.58,295.26 C295.68,297.98 295.22,299.43 294.65,301.48 C292.73,308.36 290.52,321.80 289.42,328.87 C287.27,343.99 285.98,376.35 286.03,377.57 C286.04,377.80 286.08,378.17 286.15,378.67 C287.07,379.33 299.12,378.67 300.01,378.48 C300.48,378.38 300.74,377.93 300.99,377.24" fill="none" stroke="rgb(255, 0, 255)" stroke-width="2.97" stroke-opacity="1.00" stroke-linejoin="round"/>
<path d="M308.89,307.30 C308.95,306.87 308.99,306.55 309.02,306.36 C309.06,306.17 309.12,305.82 309.22,305.34 C309.22,305.34 308.76,305.44 308.76,305.44 C308.76,305.44 309.38,301.16 309.38,301.16 C307.61,304.45 305.45,313.01 303.45,325.32 C302.22,333.44 300.28,348.43 300.13,356.40 C300.10,358.08 300.14,364.99 299.63,369.32 C299.04,374.38 299.41,375.62 299.83,375.74 C299.83,375.74 300.79,374.78 300.79,374.78" fill="none" stroke="rgb(255, 0, 255)" stroke-width="2.97" stroke-opacity="1.00" stroke-linejoin="round"/>
<path d="M316.91,302.92 C316.51,303.76 316.37,304.83 316.28,305.23 C314.62,313.51 313.79,324.04 313.42,331.35 C313.15,339.68 313.13,351.05 313.09,357.73 C312.98,365.76 313.70,371.98 313.58,373.24 C314.09,373.60 322.90,371.53 323.72,370.67 C324.09,370.26 324.28,369.51 324.47,368.10" fill="none" stroke="rgb(255, 0, 255)" stroke-width="2.97" stroke-opacity="1.00" stroke-linejoin="round"/>
<path d="M321.23,301.05 C321.23,301.05 321.42,298.02 321.42,298.02 C322.47,301.42 324.40,313.99 324.84,319.82 C325.06,322.84 325.49,342.26 325.82,350.15 C326.56,361.60 326.67,366.17 325.64,373.00 C325.25,375.50 325.05,376.35 324.96,376.17 C324.96,376.17 324.89,375.17 324.89,375.17" fill="none" stroke="rgb(255, 0, 255)" stroke-width="2.97" stroke-opacity="1.00" stroke-linejoin="round"/>
<path d="M289.65,378.88 C289.62,378.63 289.59,378.45 289.58,378.36 C289.56,378.26 289.53,378.10 289.47,377.89 C289.41,377.92 289.34,377.95 289.25,377.99 C287.89,378.60 284.36,380.27 283.16,382.02 C282.60,382.89 282.72,385.57 283.66,387.09 C284.77,388.84 288.11,391.59 290.02,392.61 C294.14,394.75 299.73,395.17 300.93,394.26 C301.91,393.36 302.79,390.61 302.95,388.17 C303.16,384.32 302.90,375.30 302.31,372.90 C301.48,373.15 301.33,373.97 301.74,376.67 C301.80,377.04 302.70,385.01 303.46,387.24 C304.05,388.90 304.89,389.56 305.40,389.76" fill="none" stroke="rgb(255, 0, 255)" stroke-width="2.97" stroke-opacity="1.00" stroke-linejoin="round"/>
<path d="M315.32,370.39 C315.32,370.39 315.05,370.07 315.05,370.07 C315.05,370.07 315.27,370.06 315.27,370.06 C315.28,371.54 314.42,375.55 313.18,378.86 C312.34,381.13 312.43,385.70 313.11,387.41 C313.71,388.81 315.90,390.32 317.26,390.49 C318.74,390.64 321.35,389.85 322.40,388.98 C323.52,387.97 324.80,384.05 324.62,382.22 C323.79,375.16 319.67,370.64 318.81,370.06 C317.75,369.98 316.41,370.26 315.65,371.00 C313.98,372.69 313.27,377.99 313.60,379.10 C313.63,379.20 313.70,379.32 313.81,379.47" fill="none" stroke="rgb(255, 0, 255)" stroke-width="2.97" stroke-opacity="1.00" stroke-linejoin="round"/>
<path d="M299.57,161.66 C299.57,161.66 299.08,162.31 299.08,162.31 C298.67,161.52 300.30,157.60 303.76,154.60 C305.36,153.25 310.59,150.42 313.77,149.55 C317.19,148.63 322.90,147.99 324.71,148.61 C325.98,149.07 330.78,151.59 331.83,152.92 C334.13,155.87 336.18,160.18 336.48,162.70 C336.85,166.40 336.73,170.87 335.45,172.88 C333.98,175.07 332.06,176.18 330.78,176.59 C334.30,175.85 337.56,177.91 337.91,178.30 C337.71,178.53 337.53,178.68 337.37,178.75 C337.21,178.83 336.83,178.93 336.25,179.06" fill="none" stroke="rgb(255, 0, 255)" stroke-width="2.97" stroke-opacity="1.00" stroke-linejoin="round"/>
<path d="M333.04,181.90 C333.04,181.90 332.77,181.81 332.77,181.81" fill="none" stroke="rgb(255, 0, 255)" stroke-width="2.97" stroke-opacity="1.00" stroke-linejoin="round"/>
<path d="M331.32,178.00 C331.32,178.00 331.08,178.06 331.08,178.06 C331.04,178.05 331.14,178.09 331.18,178.10 C334.33,178.83 337.34,180.87 337.86,180.75 C338.56,180.35 339.21,179.59 339.28,178.77 C339.36,177.77 338.76,176.53 337.93,175.60 C337.93,175.60 336.74,175.36 336.74,175.36 C336.07,175.76 335.49,176.32 335.31,176.50 C335.30,176.52 335.26,176.50 335.27,176.59 C335.30,176.84 335.17,177.34 334.87,178.23" fill="none" stroke="rgb(255, 0, 255)" stroke-width="2.97" stroke-opacity="1.00" stroke-linejoin="round"/>
<path d="M291.84,192.24 C291.84,192.24 291.46,190.97 291.46,190.97 C291.46,190.97 294.78,197.60 294.78,197.60 C294.78,197.60 293.11,196.73 293.11,196.73 C293.11,196.73 295.26,200.42 295.26,200.42 C295.26,200.42 291.00,200.78 291.00,200.78 C290.97,201.66 291.18,202.13 291.79,202.30 C292.74,202.54 294.30,201.85 294.56,201.20 C292.51,200.54 293.36,203.94 294.29,204.35 C294.29,204.35 296.01,202.07 296.01,202.07 C295.16,201.94 294.64,202.16 294.46,202.86 C294.21,203.93 295.71,206.01 297.01,205.85 C299.90,205.39 298.81,202.39 298.66,202.25 C298.83,204.12 301.32,204.33 301.93,204.22 C302.16,203.11 302.12,202.44 301.59,201.87 C301.00,201.23 300.10,200.38 300.11,200.46 C300.11,200.46 305.49,202.67 305.49,202.67 C305.49,202.67 305.69,202.47 305.69,202.47" fill="none" stroke="rgb(255, 0, 255)" stroke-width="2.97" stroke-opacity="1.00" stroke-linejoin="round"/>
<path d="M321.42,202.40 C321.42,202.40 319.94,201.70 319.94,201.70 C318.06,202.38 316.10,206.55 316.44,207.73 C319.24,208.20 318.61,204.96 318.31,204.54 C317.34,204.68 316.82,204.97 316.73,205.55 C316.62,206.56 318.35,207.90 319.56,207.39 C320.90,206.78 322.23,203.27 321.88,201.41 C321.71,200.55 321.25,199.87 320.84,199.64 C320.59,200.75 320.70,201.60 321.35,202.47 C322.55,204.05 323.94,204.49 324.68,204.51 C324.68,204.51 324.93,203.50 324.93,203.50 C323.90,202.87 321.72,203.80 321.71,205.09 C321.75,206.71 323.88,208.25 325.15,207.82 C326.29,206.60 326.43,202.77 325.62,200.56 C325.22,199.51 324.62,198.71 324.10,198.35 C323.22,199.84 325.07,201.49 325.73,201.65 C326.17,201.41 328.08,198.37 326.17,196.14 C325.19,196.83 324.83,197.48 325.09,198.47 C325.56,200.23 327.00,201.24 327.85,201.11 C330.86,198.59 328.47,195.75 328.25,195.65 C327.54,196.04 328.31,198.38 329.73,199.03 C329.73,199.03 330.80,198.67 330.80,198.67 C331.60,197.11 330.96,194.34 329.98,193.31 C329.30,193.90 329.16,194.47 329.69,195.35 C330.26,196.31 330.91,196.90 331.79,197.35 C333.12,196.56 333.60,195.75 333.30,194.37 C332.80,192.15 330.97,189.25 329.97,189.15 C329.97,189.15 331.30,193.10 331.30,193.10 C332.32,192.57 332.76,192.05 332.62,190.85 C332.13,186.87 331.50,185.79 331.12,185.34 C331.12,185.34 332.36,189.09 332.36,189.09 C333.33,188.19 333.69,187.40 333.49,186.22 C333.29,185.09 333.00,184.35 332.59,183.76 C332.59,183.76 333.96,187.17 333.96,187.17 C335.10,186.41 335.52,185.85 335.34,184.93 C335.23,184.35 335.11,183.76 334.99,183.18 C334.99,183.18 336.04,184.50 336.04,184.50 C337.21,183.66 336.86,180.98 336.42,178.77" fill="none" stroke="rgb(255, 0, 255)" stroke-width="2.97" stroke-opacity="1.00" stroke-linejoin="round"/>
<path d="M316.41,156.21 C316.56,156.15 316.68,156.11 316.77,156.09 C316.85,156.08 317.00,156.05 317.24,156.03 C317.82,156.57 318.31,156.86 318.83,156.87 C319.25,156.88 325.25,156.01 326.64,156.82 C327.58,157.45 330.22,161.56 331.27,163.27 C331.27,163.27 329.81,163.61 329.81,163.61" fill="none" stroke="rgb(255, 0, 255)" stroke-width="2.97" stroke-opacity="1.00" stroke-linejoin="round"/>
<path d="M312.61,157.01 C312.51,156.94 312.41,156.89 312.31,156.84 C312.05,156.72 311.38,156.42 311.29,156.29 C312.07,155.68 316.06,156.40 319.33,157.45 C319.59,157.54 319.94,157.66 320.37,157.83" fill="none" stroke="rgb(255, 0, 255)" stroke-width="2.97" stroke-opacity="1.00" stroke-linejoin="round"/>
<path d="M314.82,159.60 C314.65,159.65 314.53,159.68 314.45,159.71 C314.37,159.73 314.23,159.78 314.02,159.85 C319.53,163.43 322.64,165.66 324.07,167.75 C326.38,171.29 328.64,184.40 329.73,188.04 C329.73,188.04 329.71,187.63 329.71,187.63" fill="none" stroke="rgb(255, 0, 255)" stroke-width="2.97" stroke-opacity="1.00" stroke-linejoin="round"/>
<path d="M298.37,176.56 C298.37,176.56 297.59,176.77 297.59,176.77 C297.59,176.77 301.72,173.88 301.72,173.88 C301.72,173.88 303.57,176.86 303.57,176.86 C303.57,176.86 303.91,177.00 303.91,177.00" fill="none" stroke="rgb(255, 0, 255)" stroke-width="2.97" stroke-opacity="1.00" stroke-linejoin="round"/>
<path d="M297.44,182.09 C297.44,182.09 297.44,181.96 297.44,181.96 C298.45,181.80 299.47,181.76 301.05,181.84 C302.34,181.92 304.03,183.05 304.01,183.11 C303.64,183.28 303.43,183.38 303.36,183.42 C303.35,183.43 303.33,183.46 303.34,183.46" fill="none" stroke="rgb(255, 0, 255)" stroke-width="2.97" stroke-opacity="1.00" stroke-linejoin="round"/>
<path d="M302.28,183.71 C302.28,183.71 301.51,182.57 301.51,182.57 C297.89,182.46 298.43,185.15 298.61,185.60 C298.61,185.60 303.73,184.38 303.73,184.38 C303.73,184.38 301.26,185.49 301.26,185.49 C301.26,185.49 305.94,184.88 305.94,184.88" fill="none" stroke="rgb(255, 0, 255)" stroke-width="2.97" stroke-opacity="1.00" stroke-linejoin="round"/>
<path d="M311.47,175.18 C311.47,175.18 310.97,173.76 310.97,173.76 C311.36,173.32 314.98,173.81 316.42,175.27 C316.78,175.65 317.07,176.05 317.27,176.47 C317.32,176.59 317.30,176.67 317.22,176.71" fill="none" stroke="rgb(255, 0, 255)" stroke-width="2.97" stroke-opacity="1.00" stroke-linejoin="round"/>
<path d="M312.85,180.26 C312.85,180.26 312.77,179.64 312.77,179.64 C312.77,179.64 315.29,179.79 315.29,179.79 C315.29,179.79 314.54,183.19 314.54,183.19 C314.54,183.19 317.19,183.27 317.19,183.27 C317.19,183.27 316.79,184.88 316.79,184.88 C316.79,184.88 313.88,182.47 313.88,182.47 C313.88,182.47 315.81,181.06 315.81,181.06 C315.72,181.30 315.66,181.45 315.65,181.50 C315.63,181.56 315.64,181.59 315.67,181.61" fill="none" stroke="rgb(255, 0, 255)" stroke-width="2.97" stroke-opacity="1.00" stroke-linejoin="round"/>
<path d="M309.05,178.77 C309.01,178.75 308.84,178.82 308.66,178.97 C308.58,179.03 308.41,179.18 308.15,179.41 C308.15,179.41 309.81,182.69 309.81,182.69 C309.81,182.69 306.49,183.04 306.49,183.04 C306.10,183.43 306.72,189.04 307.00,190.11 C307.20,190.88 310.25,192.64 311.20,194.43 C311.36,194.74 311.53,195.24 311.71,195.94 C311.71,195.94 311.93,195.77 311.93,195.77" fill="none" stroke="rgb(255, 0, 255)" stroke-width="2.97" stroke-opacity="1.00" stroke-linejoin="round"/>
<path d="M306.04,201.33 C306.04,201.33 305.54,201.79 305.54,201.79 C305.77,201.59 305.91,200.17 306.01,199.60 C306.22,198.50 307.15,197.43 308.13,197.21 C309.93,196.84 311.68,197.56 312.26,197.99 C312.26,197.99 310.23,204.06 310.23,204.06 C310.23,204.06 310.63,204.05 310.63,204.05" fill="none" stroke="rgb(255, 0, 255)" stroke-width="2.97" stroke-opacity="1.00" stroke-linejoin="round"/>
</g>
</svg>
