<?xml version="1.0" encoding="UTF-8" standalone="no"?>
<!DOCTYPE svg PUBLIC "-//W3C//DTD SVG 1.1//EN" "http://www.w3.org/Graphics/SVG/1.1/DTD/svg11.dtd">
<svg width="128.40" height="181.68" viewBox="0.00 0.00 535.00 757.00" xmlns="http://www.w3.org/2000/svg" xmlns:xlink="http://www.w3.org/1999/xlink">
<g stroke-linecap="round" id="86-비">
<path d="M309.72,297.83 C309.72,297.83 310.01,297.76 310.01,297.76 C310.01,297.76 310.22,297.46 310.22,297.46 C310.22,297.46 309.73,297.10 309.73,297.10 C308.54,298.10 298.77,311.23 295.41,316.64 C292.35,321.58 284.06,337.66 282.33,341.42 C278.36,350.07 277.89,352.47 278.01,353.75 C278.01,353.75 278.60,354.11 278.60,354.11 C278.60,354.11 279.51,353.70 279.51,353.70" fill="none" stroke="rgb(0, 255, 0)" stroke-width="2.97" stroke-opacity="1.00" stroke-linejoin="round"/>
<path d="M316.97,309.47 C316.97,309.47 317.65,308.71 317.65,308.71 C316.33,309.12 308.04,320.38 303.75,327.63 C300.29,333.63 293.31,345.91 289.71,352.55 C286.27,359.12 285.11,363.99 285.51,364.41 C285.51,364.41 286.13,364.49 286.13,364.49" fill="none" stroke="rgb(0, 255, 0)" stroke-width="2.97" stroke-opacity="1.00" stroke-linejoin="round"/>
<path d="M303.62,348.63 C303.17,349.02 302.66,349.72 301.18,351.99 C293.92,363.22 292.01,366.71 292.04,368.21 C292.04,368.21 292.61,368.45 292.61,368.45 C292.61,368.45 293.41,368.13 293.41,368.13" fill="none" stroke="rgb(0, 255, 0)" stroke-width="2.97" stroke-opacity="1.00" stroke-linejoin="round"/>
<path d="M304.45,355.43 C304.45,355.43 305.84,355.11 305.84,355.11 C305.77,356.05 297.17,368.53 294.03,374.42 C291.44,379.30 285.48,392.84 285.92,393.83 C285.92,393.83 288.73,393.87 288.73,393.87" fill="none" stroke="rgb(0, 255, 0)" stroke-width="2.97" stroke-opacity="1.00" stroke-linejoin="round"/>
<path d="M298.36,388.87 C298.29,389.33 298.24,389.66 298.22,389.87 C297.90,392.96 292.81,402.79 292.10,404.28 C291.59,405.37 291.12,406.86 290.36,409.55" fill="none" stroke="rgb(0, 255, 0)" stroke-width="2.97" stroke-opacity="1.00" stroke-linejoin="round"/>
<path d="M290.94,437.09 C290.76,436.92 288.79,441.30 287.83,443.95 C286.51,447.62 284.48,455.47 284.51,457.09 C284.62,460.18 286.49,460.66 287.42,460.61" fill="none" stroke="rgb(0, 255, 0)" stroke-width="2.97" stroke-opacity="1.00" stroke-linejoin="round"/>
<path d="M296.82,449.88 C296.82,449.88 297.09,449.91 297.09,449.91 C297.51,450.31 297.27,451.75 296.16,455.25 C294.94,459.14 293.72,464.22 293.53,466.33 C293.38,468.02 293.45,469.62 293.64,470.32" fill="none" stroke="rgb(0, 255, 0)" stroke-width="2.97" stroke-opacity="1.00" stroke-linejoin="round"/>
<path d="M311.76,458.67 C311.92,459.15 309.79,464.61 307.68,468.55 C304.33,474.51 297.28,487.33 294.80,493.12 C293.69,495.74 292.34,499.52 292.12,500.94 C292.12,500.94 292.31,501.02 292.31,501.02 C292.31,501.02 292.82,500.43 292.82,500.43" fill="none" stroke="rgb(0, 255, 0)" stroke-width="2.97" stroke-opacity="1.00" stroke-linejoin="round"/>
<path d="M306.98,487.33 C306.51,488.10 306.18,488.64 306.01,488.94 C305.76,489.39 301.74,497.24 301.06,499.13 C300.82,499.81 300.86,500.34 300.95,500.55 C300.95,500.55 301.07,500.56 301.07,500.56" fill="none" stroke="rgb(0, 255, 0)" stroke-width="2.97" stroke-opacity="1.00" stroke-linejoin="round"/>
<path d="M308.52,495.51 C308.52,495.51 308.64,495.47 308.64,495.47 C308.93,495.97 306.54,502.95 305.55,505.84 C303.93,510.66 302.61,514.91 302.57,515.77 C302.56,515.96 302.57,516.41 302.59,517.13 C302.59,517.13 302.73,517.25 302.73,517.25 C302.73,517.25 302.92,517.21 302.92,517.21" fill="none" stroke="rgb(0, 255, 0)" stroke-width="2.97" stroke-opacity="1.00" stroke-linejoin="round"/>
<path d="M307.86,514.62 C307.86,514.62 308.86,514.15 308.86,514.15 C309.14,516.54 307.78,523.20 306.96,525.40 C306.83,525.73 306.73,525.81 306.64,525.65 C306.64,525.65 306.71,524.49 306.71,524.49" fill="none" stroke="rgb(0, 255, 0)" stroke-width="2.97" stroke-opacity="1.00" stroke-linejoin="round"/>
<path d="M388.36,307.50 C388.36,307.50 387.95,309.03 387.95,309.03 C389.79,310.17 393.13,313.52 395.96,317.39 C398.11,320.37 400.82,324.60 401.38,325.65 C401.61,326.06 401.79,326.52 401.92,327.01" fill="none" stroke="rgb(0, 255, 0)" stroke-width="2.97" stroke-opacity="1.00" stroke-linejoin="round"/>
<path d="M384.90,318.42 C384.90,318.42 384.34,318.59 384.34,318.59 C385.83,318.61 388.01,319.23 389.32,320.24 C390.38,321.06 393.04,324.61 393.25,325.02" fill="none" stroke="rgb(0, 255, 0)" stroke-width="2.97" stroke-opacity="1.00" stroke-linejoin="round"/>
<path d="M395.11,332.92 C395.11,332.92 394.89,332.93 394.89,332.93 C394.70,332.95 395.57,334.44 395.94,335.05 C397.48,337.60 408.97,351.34 409.30,352.04 C409.70,352.88 409.89,353.52 409.88,353.94 C409.86,354.21 409.67,354.56 409.30,355.02" fill="none" stroke="rgb(0, 255, 0)" stroke-width="2.97" stroke-opacity="1.00" stroke-linejoin="round"/>
<path d="M401.48,350.05 C401.48,350.05 400.12,349.10 400.12,349.10 C400.12,349.10 399.51,349.30 399.51,349.30 C399.82,349.79 403.84,354.25 405.36,356.44 C408.49,361.00 418.35,386.02 420.00,388.68 C420.00,388.68 419.63,387.46 419.63,387.46" fill="none" stroke="rgb(0, 255, 0)" stroke-width="2.97" stroke-opacity="1.00" stroke-linejoin="round"/>
<path d="M390.56,352.80 C390.45,353.56 390.38,353.80 390.54,354.05 C391.34,355.25 400.98,371.30 403.63,375.39 C402.73,374.58 400.24,372.35 399.60,371.88 C399.18,371.58 398.37,371.06 397.16,370.31 C397.05,370.48 397.80,373.09 401.41,378.67 C401.73,379.16 402.29,379.95 403.09,381.04" fill="none" stroke="rgb(0, 255, 0)" stroke-width="2.97" stroke-opacity="1.00" stroke-linejoin="round"/>
<path d="M416.04,388.60 C416.04,388.60 416.17,389.87 416.17,389.87 C417.99,390.94 418.86,393.48 420.55,399.44 C421.69,403.48 423.71,410.76 424.60,413.99 C424.96,415.32 425.01,415.88 424.92,416.47 C424.92,416.47 424.68,416.20 424.68,416.20" fill="none" stroke="rgb(0, 255, 0)" stroke-width="2.97" stroke-opacity="1.00" stroke-linejoin="round"/>
<path d="M406.76,393.16 C406.76,393.16 406.06,392.25 406.06,392.25 C406.35,393.68 407.00,396.17 407.56,397.80 C408.01,399.11 411.26,406.31 411.37,406.60 C411.41,406.70 411.44,406.82 411.45,406.94" fill="none" stroke="rgb(0, 255, 0)" stroke-width="2.97" stroke-opacity="1.00" stroke-linejoin="round"/>
<path d="M409.39,410.29 C409.37,410.62 409.38,410.92 409.43,411.19 C409.70,412.55 412.91,421.61 413.53,422.92 C415.03,426.03 416.49,427.53 417.02,427.92" fill="none" stroke="rgb(0, 255, 0)" stroke-width="2.97" stroke-opacity="1.00" stroke-linejoin="round"/>
<path d="M419.71,430.39 C419.71,430.39 419.96,430.27 419.96,430.27 C420.29,430.62 420.57,431.53 421.00,433.88 C421.56,436.98 421.58,437.58 421.58,437.63" fill="none" stroke="rgb(0, 255, 0)" stroke-width="2.97" stroke-opacity="1.00" stroke-linejoin="round"/>
<path d="M402.36,445.16 C402.36,445.16 402.65,445.27 402.65,445.27 C402.83,445.16 403.16,442.97 401.46,442.51 C400.43,442.63 399.15,444.46 397.47,447.74 C395.96,450.74 390.40,464.92 387.74,471.76 C387.41,472.62 387.07,473.47 386.73,474.32" fill="none" stroke="rgb(0, 255, 0)" stroke-width="2.97" stroke-opacity="1.00" stroke-linejoin="round"/>
<path d="M384.46,448.95 C384.31,449.00 384.19,449.11 384.10,449.27 C383.79,449.80 381.38,454.81 380.64,457.13 C379.72,460.10 378.90,466.26 379.20,469.50 C379.49,472.30 380.01,473.25 380.35,473.57" fill="none" stroke="rgb(0, 255, 0)" stroke-width="2.97" stroke-opacity="1.00" stroke-linejoin="round"/>
<path d="M392.75,476.18 C392.75,476.18 394.27,475.60 394.27,475.60 C393.01,477.39 391.48,480.59 390.33,483.36 C389.08,486.47 389.40,490.11 389.84,490.80" fill="none" stroke="rgb(0, 255, 0)" stroke-width="2.97" stroke-opacity="1.00" stroke-linejoin="round"/>
<path d="M391.76,499.91 C391.76,499.91 391.85,499.78 391.85,499.78 C391.58,500.22 391.34,500.61 391.13,500.92 C387.96,505.64 386.08,508.70 384.92,510.64 C384.50,511.30 383.51,512.90 383.67,513.03 C384.03,512.93 384.25,512.87 384.32,512.85 C384.40,512.84 384.44,512.85 384.44,512.88" fill="none" stroke="rgb(0, 255, 0)" stroke-width="2.97" stroke-opacity="1.00" stroke-linejoin="round"/>
<path d="M383.20,512.92 C382.55,514.01 382.12,514.71 381.91,515.04 C378.80,519.65 377.48,525.92 377.44,528.37 C377.44,528.37 378.01,528.98 378.01,528.98 C378.01,528.98 378.42,528.37 378.42,528.37" fill="none" stroke="rgb(0, 255, 0)" stroke-width="2.97" stroke-opacity="1.00" stroke-linejoin="round"/>
<path d="M394.89,490.84 C394.91,490.89 394.92,490.89 394.94,490.84 C394.94,490.84 394.95,490.85 394.95,490.86 C394.61,492.60 394.09,494.09 392.97,496.35 C392.23,497.86 390.58,501.24 390.39,501.83 C390.31,502.09 390.30,502.37 390.36,502.68 C390.36,502.68 390.64,502.65 390.64,502.65" fill="none" stroke="rgb(0, 255, 0)" stroke-width="2.97" stroke-opacity="1.00" stroke-linejoin="round"/>
</g>
</svg>
