<?xml version="1.0" encoding="UTF-8" standalone="no"?>
<!DOCTYPE svg PUBLIC "-//W3C//DTD SVG 1.1//EN" "http://www.w3.org/Graphics/SVG/1.1/DTD/svg11.dtd">
<svg width="128.40" height="181.68" viewBox="0.00 0.00 535.00 757.00" xmlns="http://www.w3.org/2000/svg" xmlns:xlink="http://www.w3.org/1999/xlink">
<g stroke-linecap="round" transform="translate(44.00, 155.00)" id="88-풀-2">
<path d="M218.06,330.68 C217.75,330.64 217.52,330.60 217.37,330.54 C217.23,330.48 216.95,330.33 216.54,330.09 C216.54,330.09 200.78,341.99 200.78,341.99 C203.95,338.67 206.73,336.02 210.39,332.87 C210.71,332.59 211.08,332.27 211.15,332.22" fill="none" stroke="rgb(0, 255, 0)" stroke-width="2.93" stroke-opacity="1.00" stroke-linejoin="round"/>
<path d="M215.81,331.32 C215.81,331.32 220.34,329.85 220.34,329.85 C220.53,330.14 221.19,336.38 221.82,336.74 C221.85,336.75 222.05,336.83 222.43,336.98 C222.43,336.98 226.14,333.94 226.14,333.94 C227.04,334.11 227.44,334.59 228.48,336.93 C229.68,339.58 231.82,341.68 234.66,344.10 C234.66,344.10 233.50,344.43 233.50,344.43" fill="none" stroke="rgb(0, 255, 0)" stroke-width="2.93" stroke-opacity="1.00" stroke-linejoin="round"/>
</g>
</svg>
