<?xml version="1.0" encoding="UTF-8" standalone="no"?>
<!DOCTYPE svg PUBLIC "-//W3C//DTD SVG 1.1//EN" "http://www.w3.org/Graphics/SVG/1.1/DTD/svg11.dtd">
<svg width="128.40" height="181.68" viewBox="0.00 0.00 535.00 757.00" xmlns="http://www.w3.org/2000/svg" xmlns:xlink="http://www.w3.org/1999/xlink">
<g stroke-linecap="round" transform="translate(44.00, 155.00)" id="88-풀-4">
<path d="M64.68,342.98 C64.68,342.98 65.44,340.30 65.44,340.30 C65.29,340.25 57.17,344.41 56.44,347.34 C57.25,347.35 67.76,339.47 68.90,338.92 C69.61,338.60 74.58,341.70 76.98,342.11 C77.92,342.26 79.26,341.01 79.40,339.27 C79.40,339.27 76.55,343.11 76.55,343.11" fill="none" stroke="rgb(0, 255, 0)" stroke-width="2.93" stroke-opacity="1.00" stroke-linejoin="round"/>
<path d="M44.88,352.35 C44.88,352.35 44.71,352.21 44.71,352.21 C49.30,352.16 52.31,352.07 55.12,351.79 C59.80,351.26 79.19,348.38 83.15,348.06 C83.15,348.06 83.31,348.36 83.31,348.36 C83.31,348.36 82.98,348.57 82.98,348.57" fill="none" stroke="rgb(0, 255, 0)" stroke-width="2.93" stroke-opacity="1.00" stroke-linejoin="round"/>
</g>
</svg>
