<?xml version="1.0" encoding="UTF-8" standalone="no"?>
<!DOCTYPE svg PUBLIC "-//W3C//DTD SVG 1.1//EN" "http://www.w3.org/Graphics/SVG/1.1/DTD/svg11.dtd">
<svg width="128.40" height="181.68" viewBox="0.00 0.00 535.00 757.00" xmlns="http://www.w3.org/2000/svg" xmlns:xlink="http://www.w3.org/1999/xlink">
<g stroke-linecap="round" transform="translate(44.00, 155.00)" id="88-풀-1">
<path d="M286.21,329.22 C286.21,329.22 286.02,328.67 286.02,328.67 C285.27,329.06 284.80,329.93 284.91,331.06 C285.11,332.56 288.56,336.67 292.00,338.89 C295.22,340.94 299.14,342.40 300.24,342.09 C300.24,342.09 301.40,340.59 301.40,340.59 C302.02,340.31 309.27,343.07 310.88,343.25 C312.00,343.37 315.13,342.77 315.33,342.77 C317.23,342.79 325.35,345.82 325.61,345.91 C325.61,345.91 323.76,346.61 323.76,346.61" fill="none" stroke="rgb(0, 255, 0)" stroke-width="2.93" stroke-opacity="1.00" stroke-linejoin="round"/>
</g>
</svg>
