<?xml version="1.0" encoding="UTF-8" standalone="no"?>
<!DOCTYPE svg PUBLIC "-//W3C//DTD SVG 1.1//EN" "http://www.w3.org/Graphics/SVG/1.1/DTD/svg11.dtd">
<svg width="128.40" height="181.68" viewBox="0.00 0.00 535.00 757.00" xmlns="http://www.w3.org/2000/svg" xmlns:xlink="http://www.w3.org/1999/xlink">
<g stroke-linecap="round" transform="translate(44.00, 155.00)" id="88-사람_">
<path d="M216.59,237.55 C216.59,237.55 217.34,236.52 217.34,236.52 C217.06,235.97 212.49,235.31 211.29,235.15 C207.83,234.66 201.14,232.53 198.93,232.41 C196.99,232.33 194.09,234.20 191.65,236.73 C190.17,238.19 187.27,238.98 186.33,238.46 C186.04,236.54 188.67,230.57 191.02,228.63 C193.07,227.00 198.52,224.58 200.73,224.40 C202.86,224.28 206.11,225.54 207.94,227.07 C209.76,228.60 213.63,232.00 214.32,233.02 C214.64,233.51 214.80,234.08 214.77,234.27 C214.77,234.27 214.72,234.33 214.72,234.33" fill="none" stroke="rgb(255, 0, 0)" stroke-width="2.93" stroke-opacity="1.00" stroke-linejoin="round"/>
<path d="M213.29,236.62 C213.29,236.62 213.44,235.92 213.44,235.92 C213.44,235.92 213.39,235.91 213.39,235.91 C213.06,236.03 212.51,240.85 213.41,241.94 C214.06,242.73 216.10,244.75 216.26,245.40 C216.64,247.15 214.89,250.38 213.34,251.74 C212.00,252.86 209.39,253.55 207.10,253.40 C203.91,253.14 198.89,251.61 196.68,249.17 C196.00,248.41 192.30,245.77 192.27,245.24 C192.28,244.92 192.34,244.11 192.20,243.98" fill="none" stroke="rgb(255, 0, 0)" stroke-width="2.93" stroke-opacity="1.00" stroke-linejoin="round"/>
<path d="M191.59,247.90 C191.59,247.90 191.59,246.35 191.59,246.35 C191.59,246.35 189.16,237.91 189.16,237.91 C189.16,237.91 188.78,245.60 188.78,245.60 C188.78,245.60 188.83,242.22 188.83,242.22 C187.97,242.49 187.06,247.80 187.77,249.10 C188.07,249.60 188.42,249.83 188.84,249.91 C188.84,249.91 189.98,248.46 189.98,248.46 C187.77,248.14 188.84,252.05 189.19,252.61 C189.19,252.61 191.74,251.56 191.74,251.56 C192.35,253.69 193.09,255.28 193.94,256.00 C194.99,256.86 196.71,257.10 197.38,257.14 C197.38,257.14 197.00,257.06 197.00,257.06" fill="none" stroke="rgb(255, 0, 0)" stroke-width="2.93" stroke-opacity="1.00" stroke-linejoin="round"/>
<path d="M195.79,241.23 C195.92,240.98 196.01,240.81 196.06,240.73 C196.12,240.59 196.19,240.45 196.26,240.31 C196.26,240.31 196.23,240.28 196.33,240.11 C196.65,239.57 197.29,238.92 198.14,238.22 C198.14,238.22 199.84,243.07 199.84,243.07 C198.78,243.38 197.98,243.13 197.62,242.14 C197.31,241.29 197.36,240.22 197.62,239.57 C197.62,239.57 197.47,243.30 197.47,243.30 C197.47,243.30 197.17,239.37 197.17,239.37 C197.17,239.37 197.15,239.83 197.15,239.83 C197.15,239.83 197.24,239.71 197.24,239.71" fill="none" stroke="rgb(255, 0, 0)" stroke-width="2.93" stroke-opacity="1.00" stroke-linejoin="round"/>
<path d="M209.66,241.75 C209.75,241.38 209.94,240.86 209.99,240.67 C210.14,239.99 210.09,239.20 209.79,238.83 C208.25,237.03 203.86,239.28 203.76,239.35 C203.76,239.35 208.87,238.39 208.87,238.39" fill="none" stroke="rgb(255, 0, 0)" stroke-width="2.93" stroke-opacity="1.00" stroke-linejoin="round"/>
<path d="M206.66,240.18 C206.66,240.18 206.12,240.00 206.12,240.00 C206.12,240.00 205.23,245.40 205.23,245.40 C205.23,245.40 206.66,240.21 206.66,240.21 C206.66,240.21 206.14,244.06 206.14,244.06 C206.14,244.06 206.64,240.19 206.64,240.19 C206.64,240.19 204.79,241.63 204.79,241.63" fill="none" stroke="rgb(255, 0, 0)" stroke-width="2.93" stroke-opacity="1.00" stroke-linejoin="round"/>
<path d="M200.17,253.90 C200.17,253.90 200.32,253.21 200.32,253.21 C200.32,253.21 200.74,253.45 200.74,253.45 C200.99,254.29 202.64,264.99 203.00,266.11 C203.11,266.42 203.23,266.60 203.36,266.65" fill="none" stroke="rgb(255, 0, 0)" stroke-width="2.93" stroke-opacity="1.00" stroke-linejoin="round"/>
<path d="M205.12,266.31 C205.12,266.31 205.61,265.75 205.61,265.75 C205.61,265.75 205.81,265.74 205.81,265.74 C205.24,266.40 203.34,268.07 202.80,269.60 C201.67,273.20 194.10,287.31 190.38,294.18 C187.88,299.01 185.23,308.76 184.28,312.31 C183.48,315.31 183.22,316.54 183.30,316.70 C183.30,316.70 183.77,315.87 183.77,315.87" fill="none" stroke="rgb(255, 0, 0)" stroke-width="2.93" stroke-opacity="1.00" stroke-linejoin="round"/>
<path d="M205.50,263.57 C205.44,263.79 205.37,264.03 205.28,264.29 C204.00,268.05 203.30,278.56 203.46,285.51 C203.73,292.74 204.45,317.41 204.05,320.38 C204.05,320.38 204.39,317.80 204.39,317.80" fill="none" stroke="rgb(255, 0, 0)" stroke-width="2.93" stroke-opacity="1.00" stroke-linejoin="round"/>
<path d="M205.27,265.48 C205.27,265.48 204.64,265.98 204.64,265.98 C204.41,266.91 207.53,271.60 207.97,272.58 C209.49,276.07 211.95,293.08 213.19,297.32 C214.54,301.88 221.77,318.80 224.73,323.46 C226.35,326.01 227.25,327.26 228.10,328.24 C228.10,328.24 227.49,327.45 227.49,327.45" fill="none" stroke="rgb(255, 0, 0)" stroke-width="2.93" stroke-opacity="1.00" stroke-linejoin="round"/>
</g>
</svg>
