<?xml version="1.0" encoding="UTF-8" standalone="no"?>
<!DOCTYPE svg PUBLIC "-//W3C//DTD SVG 1.1//EN" "http://www.w3.org/Graphics/SVG/1.1/DTD/svg11.dtd">
<svg width="128.40" height="181.68" viewBox="0.00 0.00 535.00 757.00" xmlns="http://www.w3.org/2000/svg" xmlns:xlink="http://www.w3.org/1999/xlink">
<g stroke-linecap="round" transform="translate(44.00, 155.00)" id="88-비">
<path d="M19.37,132.52 C19.37,132.35 19.37,132.19 19.37,132.02 C19.37,131.69 19.37,131.36 19.37,131.03 C18.06,131.39 16.19,132.11 14.81,132.89 C12.39,134.26 11.94,135.27 11.90,135.56 C11.90,135.56 12.06,135.86 12.06,135.86" fill="none" stroke="rgb(0, 0, 255)" stroke-width="2.93" stroke-opacity="1.00" stroke-linejoin="round"/>
<path d="M5.08,139.34 C5.08,139.34 5.14,138.09 5.14,138.09 C5.14,138.09 -0.95,143.79 -0.95,143.79 C-0.95,143.79 0.05,144.35 0.05,144.35 C0.29,144.75 -2.09,148.00 -3.89,149.84 C-5.76,151.74 -7.22,152.97 -8.09,153.46 C-8.09,153.46 -8.29,153.18 -8.29,153.18" fill="none" stroke="rgb(0, 0, 255)" stroke-width="2.93" stroke-opacity="1.00" stroke-linejoin="round"/>
<path d="M17.79,84.01 C17.79,84.01 18.23,82.88 18.23,82.88 C18.23,82.67 17.59,83.32 16.00,85.17 C14.98,86.37 14.63,88.54 14.64,88.65" fill="none" stroke="rgb(0, 0, 255)" stroke-width="2.93" stroke-opacity="1.00" stroke-linejoin="round"/>
<path d="M11.49,96.94 C10.96,97.20 10.47,97.65 10.28,98.16 C9.98,98.95 7.29,102.79 6.86,104.35 C6.75,104.76 6.64,105.42 6.54,106.33" fill="none" stroke="rgb(0, 0, 255)" stroke-width="2.93" stroke-opacity="1.00" stroke-linejoin="round"/>
<path d="M6.47,109.69 C6.47,109.69 4.71,110.61 4.71,110.61 C4.61,111.07 2.79,115.92 2.59,120.02 C2.36,124.69 0.42,130.65 0.07,131.84 C-0.82,134.87 -0.74,137.12 -0.65,137.63" fill="none" stroke="rgb(0, 0, 255)" stroke-width="2.93" stroke-opacity="1.00" stroke-linejoin="round"/>
<path d="M-8.79,172.60 C-8.79,172.60 -9.06,172.22 -9.06,172.22 C-9.27,172.29 -10.73,174.41 -10.99,176.61 C-11.12,177.80 -10.87,179.53 -10.67,179.92" fill="none" stroke="rgb(0, 0, 255)" stroke-width="2.93" stroke-opacity="1.00" stroke-linejoin="round"/>
<path d="M-13.62,193.67 C-13.62,193.67 -13.84,193.70 -13.84,193.70 C-13.84,193.70 -13.87,190.96 -13.87,190.96 C-17.76,191.40 -16.26,201.73 -16.86,204.01 C-17.12,204.98 -18.16,208.15 -18.31,208.93 C-18.35,209.13 -18.36,209.33 -18.34,209.54" fill="none" stroke="rgb(0, 0, 255)" stroke-width="2.93" stroke-opacity="1.00" stroke-linejoin="round"/>
<path d="M-16.29,225.50 C-16.49,225.65 -16.63,225.78 -16.70,225.89 C-17.21,226.73 -18.25,232.55 -18.46,235.10 C-18.51,235.76 -18.59,236.92 -18.69,238.57 C-18.72,239.03 -18.75,239.50 -18.78,239.97" fill="none" stroke="rgb(0, 0, 255)" stroke-width="2.93" stroke-opacity="1.00" stroke-linejoin="round"/>
<path d="M-28.76,255.87 C-28.74,255.99 -29.01,256.91 -29.46,257.68 C-30.07,258.72 -33.55,264.80 -34.56,267.62 C-35.46,270.13 -35.57,270.31 -35.61,270.33" fill="none" stroke="rgb(0, 0, 255)" stroke-width="2.93" stroke-opacity="1.00" stroke-linejoin="round"/>
<path d="M42.12,189.32 C42.16,189.27 42.19,189.19 42.24,189.10 C42.35,188.85 42.46,188.60 42.57,188.35 C42.75,188.66 42.83,189.91 42.84,192.93 C42.84,194.39 42.84,197.01 42.84,198.17" fill="none" stroke="rgb(0, 0, 255)" stroke-width="2.93" stroke-opacity="1.00" stroke-linejoin="round"/>
<path d="M39.16,205.70 C39.16,205.70 38.75,206.02 38.75,206.02 C38.75,206.02 37.89,205.72 37.89,205.72 C36.64,205.98 34.22,208.11 33.78,210.18 C33.47,211.87 36.14,216.10 36.50,218.07 C36.87,220.14 36.69,224.97 36.65,226.12 C36.64,226.40 36.63,226.69 36.61,226.97" fill="none" stroke="rgb(0, 0, 255)" stroke-width="2.93" stroke-opacity="1.00" stroke-linejoin="round"/>
<path d="M35.68,233.22 C35.68,233.22 35.63,232.99 35.63,232.99 C33.69,237.99 32.72,241.30 32.93,243.94 C33.13,245.86 36.25,248.57 36.31,248.66 C36.91,249.67 36.09,253.75 35.12,255.08 C34.38,256.08 29.51,262.72 28.63,263.98 C26.92,266.43 25.52,270.24 25.40,272.71 C25.32,274.97 27.61,281.68 27.77,282.50 C28.51,286.30 27.05,300.71 25.43,307.04 C23.45,314.54 20.41,322.95 19.87,323.44 C19.87,323.44 19.67,322.76 19.67,322.76" fill="none" stroke="rgb(0, 0, 255)" stroke-width="2.93" stroke-opacity="1.00" stroke-linejoin="round"/>
<path d="M110.66,186.81 C110.66,186.81 110.82,186.72 110.82,186.72 C110.82,186.72 110.79,186.93 110.79,186.93 C110.79,186.93 113.28,188.83 113.28,188.83 C113.47,189.53 108.59,194.99 107.98,196.33 C107.74,196.89 106.13,204.58 106.00,207.19 C105.92,208.89 107.46,220.54 106.74,224.69 C106.54,225.85 105.56,230.42 105.36,231.47 C105.29,231.79 105.25,232.08 105.23,232.35" fill="none" stroke="rgb(0, 0, 255)" stroke-width="2.93" stroke-opacity="1.00" stroke-linejoin="round"/>
<path d="M103.91,244.09 C103.91,244.09 103.89,243.91 103.89,243.91 C103.89,243.91 103.56,243.66 103.56,243.66 C103.53,244.59 102.07,255.15 102.66,257.81 C102.89,258.83 105.37,261.03 106.02,261.89 C106.79,262.92 105.19,267.40 102.89,272.59 C101.33,276.10 100.22,281.87 101.06,285.58 C101.70,288.24 103.51,293.93 104.63,295.66 C104.99,296.21 106.77,298.78 106.97,299.51 C107.53,301.59 106.12,319.02 106.07,319.98 C106.07,319.98 106.10,319.58 106.10,319.58" fill="none" stroke="rgb(0, 0, 255)" stroke-width="2.93" stroke-opacity="1.00" stroke-linejoin="round"/>
<path d="M59.90,64.04 C59.87,64.39 59.31,66.43 59.11,67.28 C58.81,68.55 58.14,71.91 57.77,73.43 C57.63,74.01 57.49,74.58 57.35,75.16" fill="none" stroke="rgb(0, 0, 255)" stroke-width="2.93" stroke-opacity="1.00" stroke-linejoin="round"/>
<path d="M53.03,75.69 C53.03,75.69 52.58,75.75 52.58,75.75 C52.06,78.69 51.22,83.52 51.15,84.14 C51.11,84.53 51.06,85.22 51.01,86.21" fill="none" stroke="rgb(0, 0, 255)" stroke-width="2.93" stroke-opacity="1.00" stroke-linejoin="round"/>
<path d="M45.80,95.03 C45.70,95.47 45.48,95.91 45.45,96.08 C45.43,96.43 45.24,97.58 44.87,98.55 C43.89,101.04 41.28,104.33 41.24,104.64 C41.19,105.09 42.20,107.12 42.24,107.20" fill="none" stroke="rgb(0, 0, 255)" stroke-width="2.93" stroke-opacity="1.00" stroke-linejoin="round"/>
<path d="M40.44,110.33 C40.44,110.33 40.30,110.64 40.30,110.64 C40.23,110.59 38.87,111.41 38.13,113.18 C37.72,114.21 37.88,115.55 38.44,116.33 C38.99,117.00 39.76,117.95 40.11,118.52" fill="none" stroke="rgb(0, 0, 255)" stroke-width="2.93" stroke-opacity="1.00" stroke-linejoin="round"/>
<path d="M38.45,120.04 C37.99,120.90 37.72,121.49 37.64,121.82 C37.53,122.29 37.54,122.88 37.69,123.59 C37.73,123.80 37.83,124.11 37.99,124.51" fill="none" stroke="rgb(0, 0, 255)" stroke-width="2.93" stroke-opacity="1.00" stroke-linejoin="round"/>
<path d="M38.71,129.15 C38.71,129.15 38.40,128.41 38.40,128.41 C38.40,128.41 35.30,129.16 35.30,129.16 C35.30,129.16 44.90,124.76 44.90,124.76" fill="none" stroke="rgb(0, 0, 255)" stroke-width="2.93" stroke-opacity="1.00" stroke-linejoin="round"/>
<path d="M56.82,122.66 C56.82,122.66 55.17,122.97 55.17,122.97 C55.49,123.07 56.56,123.06 58.51,122.90 C59.80,122.78 62.16,122.56 63.23,122.45" fill="none" stroke="rgb(0, 0, 255)" stroke-width="2.93" stroke-opacity="1.00" stroke-linejoin="round"/>
<path d="M70.81,120.97 C70.81,120.97 70.81,121.09 70.81,121.09 C70.96,121.39 74.86,121.00 76.11,120.86 C76.50,120.83 77.12,120.79 77.98,120.75" fill="none" stroke="rgb(0, 0, 255)" stroke-width="2.93" stroke-opacity="1.00" stroke-linejoin="round"/>
<path d="M90.94,109.84 C91.11,109.43 91.24,109.15 91.33,108.99 C91.42,108.83 91.58,108.58 91.82,108.22 C91.47,108.26 90.85,108.73 89.69,109.90 C89.16,110.43 87.84,111.74 87.59,111.90" fill="none" stroke="rgb(0, 0, 255)" stroke-width="2.93" stroke-opacity="1.00" stroke-linejoin="round"/>
<path d="M119.17,55.97 C119.17,55.97 119.72,55.37 119.72,55.37 C117.97,57.59 117.01,58.87 116.26,60.00 C116.04,60.34 115.81,60.68 115.58,61.03" fill="none" stroke="rgb(0, 0, 255)" stroke-width="2.93" stroke-opacity="1.00" stroke-linejoin="round"/>
<path d="M114.56,61.78 C114.56,61.78 113.17,63.27 113.17,63.27" fill="none" stroke="rgb(0, 0, 255)" stroke-width="2.93" stroke-opacity="1.00" stroke-linejoin="round"/>
<path d="M112.38,65.53 C112.38,65.53 112.66,65.47 112.66,65.47 C112.68,65.47 112.68,65.49 112.64,65.51 C111.65,66.19 109.99,69.89 110.34,71.94 C110.66,73.68 109.97,75.73 109.61,76.44" fill="none" stroke="rgb(0, 0, 255)" stroke-width="2.93" stroke-opacity="1.00" stroke-linejoin="round"/>
<path d="M108.37,78.46 C108.37,78.46 108.52,78.66 108.52,78.66 C108.44,79.36 108.38,80.16 108.52,80.46 C108.59,80.61 108.79,80.89 109.13,81.30" fill="none" stroke="rgb(0, 0, 255)" stroke-width="2.93" stroke-opacity="1.00" stroke-linejoin="round"/>
<path d="M108.97,83.30 C108.91,83.24 108.78,83.35 108.58,83.63 C107.24,85.52 104.28,90.64 103.59,93.53 C103.56,93.63 97.61,101.21 96.79,102.68 C96.31,103.55 95.99,104.35 95.82,105.07 C95.76,105.37 95.75,105.82 95.79,106.43" fill="none" stroke="rgb(0, 0, 255)" stroke-width="2.93" stroke-opacity="1.00" stroke-linejoin="round"/>
<path d="M98.40,115.84 C98.40,115.84 97.84,115.37 97.84,115.37 C98.05,115.37 99.00,114.98 101.35,113.90 C102.85,113.21 103.78,112.80 104.13,112.66 C104.50,112.52 105.02,112.37 105.69,112.20" fill="none" stroke="rgb(0, 0, 255)" stroke-width="2.93" stroke-opacity="1.00" stroke-linejoin="round"/>
<path d="M107.43,112.05 C107.64,112.21 107.80,112.32 107.92,112.38 C109.25,112.98 116.58,111.97 118.26,112.08 C118.71,112.11 119.95,112.25 121.97,112.49 C122.49,112.56 123.02,112.62 123.58,112.68" fill="none" stroke="rgb(0, 0, 255)" stroke-width="2.93" stroke-opacity="1.00" stroke-linejoin="round"/>
<path d="M136.60,111.38 C136.55,111.40 136.71,111.37 136.77,111.36 C138.01,111.19 139.50,111.08 140.52,111.15 C141.19,111.19 141.90,111.29 142.63,111.45 C142.90,111.50 143.32,111.62 143.90,111.79" fill="none" stroke="rgb(0, 0, 255)" stroke-width="2.93" stroke-opacity="1.00" stroke-linejoin="round"/>
<path d="M146.01,112.20 C146.41,112.23 146.75,112.27 147.02,112.32 C147.72,112.44 150.12,112.79 151.42,112.66 C151.85,112.61 152.79,112.48 154.26,112.27" fill="none" stroke="rgb(0, 0, 255)" stroke-width="2.93" stroke-opacity="1.00" stroke-linejoin="round"/>
<path d="M156.02,99.38 C156.02,99.38 156.86,98.98 156.86,98.98 C156.91,99.25 155.44,104.95 155.48,105.62 C155.53,106.22 155.86,106.77 156.15,106.92 C156.15,106.92 156.59,106.83 156.59,106.83 C156.59,106.83 156.81,106.38 156.81,106.38" fill="none" stroke="rgb(0, 0, 255)" stroke-width="2.93" stroke-opacity="1.00" stroke-linejoin="round"/>
<path d="M163.93,77.97 C163.93,77.97 164.53,77.65 164.53,77.65 C164.02,78.64 163.52,79.63 163.01,80.62 C162.28,82.08 161.36,83.93 161.36,83.89" fill="none" stroke="rgb(0, 0, 255)" stroke-width="2.93" stroke-opacity="1.00" stroke-linejoin="round"/>
<path d="M173.61,60.92 C173.61,60.92 173.36,60.56 173.36,60.56 C172.57,60.48 169.37,63.73 168.66,66.00 C168.57,66.32 168.48,66.82 168.41,67.49" fill="none" stroke="rgb(0, 0, 255)" stroke-width="2.93" stroke-opacity="1.00" stroke-linejoin="round"/>
<path d="M168.13,115.09 C167.87,115.09 167.68,115.08 167.55,115.08 C167.43,115.08 167.21,115.07 166.88,115.06 C166.88,115.06 166.76,115.33 166.76,115.33 C167.31,117.80 192.28,121.16 192.89,121.19 C193.24,121.20 193.90,121.14 194.87,121.01" fill="none" stroke="rgb(0, 0, 255)" stroke-width="2.93" stroke-opacity="1.00" stroke-linejoin="round"/>
<path d="M191.94,121.39 C191.94,121.39 191.58,121.43 191.58,121.43 C195.57,122.47 208.01,130.65 213.53,135.03 C216.17,137.13 220.84,141.39 223.14,143.40 C224.42,144.58 225.81,147.27 226.74,150.26 C228.06,154.54 228.51,155.78 228.61,155.87" fill="none" stroke="rgb(0, 0, 255)" stroke-width="2.93" stroke-opacity="1.00" stroke-linejoin="round"/>
<path d="M229.84,163.98 C229.84,163.98 229.71,163.56 229.71,163.56 C231.59,166.87 234.16,170.62 234.44,171.56 C234.82,172.87 235.06,174.29 235.05,174.92" fill="none" stroke="rgb(0, 0, 255)" stroke-width="2.93" stroke-opacity="1.00" stroke-linejoin="round"/>
<path d="M232.17,186.10 C232.06,186.26 231.98,186.52 231.92,186.88 C231.55,189.11 231.71,191.67 232.35,194.33 C232.46,194.76 232.73,195.83 232.85,196.47" fill="none" stroke="rgb(0, 0, 255)" stroke-width="2.93" stroke-opacity="1.00" stroke-linejoin="round"/>
<path d="M236.07,197.94 C236.07,197.94 236.22,197.95 236.22,197.95 C236.35,198.03 236.46,198.51 236.57,199.58 C236.67,200.54 237.41,207.02 238.54,208.84 C240.45,211.88 241.79,215.07 242.26,217.30 C242.46,218.31 243.49,223.95 243.75,224.76 C244.14,225.96 247.32,230.12 247.36,230.20 C249.03,233.24 250.17,251.37 250.24,252.61 C250.40,255.59 250.09,262.04 249.80,265.39 C249.31,270.17 248.54,273.34 247.63,274.27 C247.63,274.27 247.05,274.33 247.05,274.33" fill="none" stroke="rgb(0, 0, 255)" stroke-width="2.93" stroke-opacity="1.00" stroke-linejoin="round"/>
<path d="M166.86,199.29 C167.15,198.89 167.37,198.59 167.52,198.39 C167.68,198.18 167.98,197.80 168.43,197.23 C168.43,197.23 168.45,197.32 168.45,197.32 C167.12,199.40 166.53,202.65 167.16,203.96 C167.39,204.40 170.43,207.20 170.62,207.44 C171.92,209.05 171.94,216.09 171.96,217.02 C171.97,217.49 167.81,224.51 168.04,225.52 C168.20,225.96 168.85,226.68 169.48,226.80 C170.08,226.92 174.09,227.38 174.56,227.62 C175.35,228.06 175.44,229.86 174.87,231.50 C174.50,232.51 172.47,236.98 172.30,237.53 C172.20,237.83 173.22,241.26 172.43,245.06 C171.70,248.55 172.23,251.12 172.76,251.59 C173.49,252.16 174.94,253.38 175.16,254.01 C175.40,254.73 175.67,266.51 175.82,267.84 C175.85,268.18 176.01,269.99 176.01,269.98" fill="none" stroke="rgb(0, 0, 255)" stroke-width="2.93" stroke-opacity="1.00" stroke-linejoin="round"/>
<path d="M177.28,272.32 C177.28,272.32 177.36,272.03 177.36,272.03 C177.36,272.03 176.65,271.60 176.65,271.60 C175.89,271.95 174.66,277.53 174.44,278.70 C173.97,281.28 173.41,287.13 173.54,288.62 C173.74,290.87 174.92,294.39 175.13,295.40 C175.38,296.62 175.12,300.48 175.04,301.39 C174.97,302.17 176.83,304.42 176.97,305.07 C177.28,306.76 176.03,315.71 174.86,322.86 C174.81,323.17 176.78,342.88 177.07,343.91 C177.07,343.91 177.42,343.95 177.42,343.95 C177.42,343.95 177.77,343.33 177.77,343.33" fill="none" stroke="rgb(0, 0, 255)" stroke-width="2.93" stroke-opacity="1.00" stroke-linejoin="round"/>
</g>
</svg>
