<?xml version="1.0" encoding="UTF-8" standalone="no"?>
<!DOCTYPE svg PUBLIC "-//W3C//DTD SVG 1.1//EN" "http://www.w3.org/Graphics/SVG/1.1/DTD/svg11.dtd">
<svg width="128.40" height="181.68" viewBox="0.00 0.00 535.00 757.00" xmlns="http://www.w3.org/2000/svg" xmlns:xlink="http://www.w3.org/1999/xlink">
<g stroke-linecap="round" transform="translate(44.00, 155.00)" id="89-사람">
<path d="M224.72,154.65 C224.65,154.46 224.60,154.34 224.59,154.28 C224.58,154.22 224.57,153.81 224.51,153.68 C224.23,153.18 221.82,151.77 220.76,151.83 C220.71,151.83 213.87,153.00 211.72,154.46 C210.26,155.48 208.36,158.02 207.65,159.90 C205.91,164.74 206.61,174.42 206.82,176.41 C206.82,176.41 206.74,175.02 206.74,175.02" fill="none" stroke="rgb(255, 0, 0)" stroke-width="2.49" stroke-opacity="1.00" stroke-linejoin="round"/>
<path d="M205.47,170.31 C205.47,170.31 205.38,169.80 205.38,169.80 C205.29,169.55 199.59,169.63 198.70,170.12 C197.59,170.80 197.93,174.76 199.03,176.01 C202.16,179.43 210.25,183.00 211.02,183.81 C212.36,185.22 216.33,191.89 217.64,193.19 C220.38,195.79 229.92,196.21 230.74,195.76 C230.85,195.69 231.03,195.53 231.30,195.28" fill="none" stroke="rgb(255, 0, 0)" stroke-width="2.49" stroke-opacity="1.00" stroke-linejoin="round"/>
<path d="M223.26,153.33 C222.98,153.35 222.56,153.53 222.41,153.76 C222.36,153.83 222.31,153.97 222.27,154.17 C222.85,154.60 233.30,154.49 238.29,154.66 C241.69,154.68 243.14,155.60 243.71,157.00 C244.20,158.45 243.57,162.08 241.63,165.58 C241.49,165.82 240.82,167.65 240.51,168.40 C240.51,168.40 240.36,168.38 240.36,168.38" fill="none" stroke="rgb(255, 0, 0)" stroke-width="2.49" stroke-opacity="1.00" stroke-linejoin="round"/>
<path d="M230.49,193.76 C230.48,193.44 230.74,193.00 230.85,192.81 C232.50,189.86 235.38,185.33 236.51,182.81 C237.69,180.18 239.00,177.92 239.06,176.64 C239.10,175.78 239.17,171.52 239.24,170.78 C239.50,168.35 241.06,165.47 241.28,165.17 C241.78,165.10 241.98,165.10 242.11,165.20 C242.13,165.21 242.14,165.22 242.17,165.22" fill="none" stroke="rgb(255, 0, 0)" stroke-width="2.49" stroke-opacity="1.00" stroke-linejoin="round"/>
<path d="M240.70,169.28 C240.61,169.20 240.39,169.08 240.32,169.04 C240.29,169.02 240.28,169.00 240.29,168.98 C241.06,168.42 242.83,167.53 244.83,166.75 C245.72,166.40 246.41,166.30 247.08,166.28 C247.77,166.75 247.86,169.20 247.26,171.00 C246.63,172.84 244.50,176.12 243.00,177.51 C242.31,178.14 237.96,180.32 237.05,181.77 C237.05,181.77 237.04,181.36 237.04,181.36" fill="none" stroke="rgb(255, 0, 0)" stroke-width="2.49" stroke-opacity="1.00" stroke-linejoin="round"/>
<path d="M215.36,202.77 C215.36,202.77 215.63,202.72 215.63,202.72 C215.63,202.72 215.75,202.52 215.75,202.52 C215.75,202.52 215.73,202.41 215.73,202.41 C214.16,202.85 213.05,203.14 212.39,203.28 C211.16,203.54 205.00,205.04 202.65,206.37 C201.08,207.28 193.98,212.11 192.36,213.53 C189.59,216.00 188.38,218.57 188.44,219.02 C191.95,221.09 195.66,223.02 197.74,223.55 C198.38,223.70 199.45,223.14 201.12,220.02 C201.76,218.83 209.66,207.98 213.36,204.55 C214.56,203.43 216.29,202.05 216.26,202.09 C215.16,204.10 209.46,210.86 208.90,212.22 C208.01,214.55 206.50,232.30 206.49,235.07 C206.48,237.16 206.62,247.26 206.17,248.32 C206.20,248.33 223.36,248.34 225.39,247.92 C225.94,247.80 227.11,247.49 228.90,246.96" fill="none" stroke="rgb(255, 0, 0)" stroke-width="2.49" stroke-opacity="1.00" stroke-linejoin="round"/>
<path d="M241.13,198.64 C239.39,198.73 236.78,198.01 235.66,197.78 C235.02,197.64 234.07,197.32 233.80,197.28 C233.71,197.27 233.58,197.29 233.43,197.34 C234.42,198.36 235.72,199.54 236.45,199.94 C237.91,200.71 243.57,198.27 245.05,198.03 C246.63,197.81 249.68,197.91 250.77,198.37 C251.01,198.48 254.96,200.56 255.57,200.77 C256.89,201.20 260.08,200.52 262.57,198.61 C264.92,196.78 267.16,192.69 268.19,189.54 C269.25,186.20 270.10,179.92 269.81,177.34 C269.49,174.85 268.01,171.72 265.78,168.40 C263.25,164.69 258.23,158.94 257.68,158.26 C256.21,156.39 254.55,151.79 254.31,149.23 C254.20,147.81 254.36,146.39 254.72,145.60 C254.95,145.11 256.08,144.27 258.55,142.59 C258.55,142.59 258.90,142.65 258.90,142.65" fill="none" stroke="rgb(255, 0, 0)" stroke-width="2.49" stroke-opacity="1.00" stroke-linejoin="round"/>
<path d="M261.13,140.52 C261.12,140.52 261.14,140.52 261.15,140.52 C261.68,140.60 263.48,141.75 264.68,142.90 C265.89,144.08 276.19,162.39 277.19,163.88 C278.47,165.77 280.60,167.57 282.98,167.88 C284.49,168.06 288.14,168.88 289.21,169.01 C290.30,169.36 289.17,172.70 287.14,176.16 C284.70,180.31 280.99,192.80 279.37,198.45 C278.65,200.85 276.04,207.30 274.84,208.60 C274.09,209.36 272.53,210.24 271.40,210.43 C268.08,210.95 263.11,211.03 260.26,211.29 C258.80,211.42 253.64,211.92 252.36,211.17 C252.36,211.17 253.44,211.14 253.44,211.14" fill="none" stroke="rgb(255, 0, 0)" stroke-width="2.49" stroke-opacity="1.00" stroke-linejoin="round"/>
<path d="M254.72,214.40 C254.72,214.40 255.15,213.43 255.15,213.43 C255.18,213.47 251.86,229.12 251.29,232.58 C250.98,234.55 250.53,236.37 249.93,238.34 C249.74,237.77 248.46,236.99 247.63,237.61 C244.79,239.79 243.79,242.36 243.82,242.44 C243.82,242.44 243.83,242.34 243.83,242.34" fill="none" stroke="rgb(255, 0, 0)" stroke-width="2.49" stroke-opacity="1.00" stroke-linejoin="round"/>
<path d="M220.59,249.03 C220.42,248.80 220.30,248.65 220.25,248.58 C220.18,248.48 220.11,248.38 220.05,248.28 C220.03,248.26 220.02,248.26 220.02,248.27 C220.40,249.25 220.70,249.97 220.68,250.43 C220.60,252.08 220.50,255.12 220.72,255.93 C220.97,256.83 222.36,259.01 222.65,259.60 C223.50,261.33 222.90,267.16 222.54,270.21 C222.41,271.79 221.70,285.63 221.62,286.82 C221.62,286.82 222.00,285.11 222.00,285.11" fill="none" stroke="rgb(255, 0, 0)" stroke-width="2.49" stroke-opacity="1.00" stroke-linejoin="round"/>
<path d="M234.40,251.77 C234.40,251.77 235.69,248.30 235.69,248.30 C235.69,248.30 235.50,247.89 235.50,247.89 C234.85,248.01 233.57,249.68 232.77,253.13 C232.63,253.77 231.18,262.76 231.13,264.77 C231.12,265.18 231.73,270.07 230.98,274.29 C230.85,275.03 229.19,283.32 228.91,284.74 C228.91,284.74 228.96,282.51 228.96,282.51" fill="none" stroke="rgb(255, 0, 0)" stroke-width="2.49" stroke-opacity="1.00" stroke-linejoin="round"/>
<path d="M225.68,247.89 C225.68,247.89 225.69,247.81 225.69,247.81 C225.69,247.81 225.86,247.84 225.86,247.84" fill="none" stroke="rgb(255, 0, 0)" stroke-width="2.49" stroke-opacity="1.00" stroke-linejoin="round"/>
<path d="M234.62,247.00 C234.62,247.00 235.13,246.71 235.13,246.71 C236.35,246.79 238.47,250.08 239.78,252.23 C241.11,254.16 244.23,257.10 244.67,257.82 C245.95,260.01 247.23,272.22 248.41,273.94 C248.41,273.94 248.53,272.53 248.53,272.53" fill="none" stroke="rgb(255, 0, 0)" stroke-width="2.49" stroke-opacity="1.00" stroke-linejoin="round"/>
<path d="M252.41,236.36 C252.41,236.36 252.71,235.94 252.71,235.94 C252.63,236.46 252.48,236.76 251.85,237.73 C250.64,239.69 250.39,245.01 250.98,248.39 C251.28,249.92 252.14,252.40 252.82,253.41 C253.25,254.06 255.52,255.80 255.83,256.25 C256.70,257.56 256.95,266.31 257.08,268.89 C257.12,270.28 256.76,271.29 255.92,271.73 C254.79,272.30 252.68,272.86 250.43,273.26 C250.43,273.26 255.72,272.85 255.72,272.85 C255.72,272.85 255.84,273.12 255.84,273.12 C255.84,273.12 255.43,273.79 255.43,273.79" fill="none" stroke="rgb(255, 0, 0)" stroke-width="2.49" stroke-opacity="1.00" stroke-linejoin="round"/>
<path d="M225.58,288.47 C225.49,288.25 225.28,287.85 225.28,287.79 C225.27,287.70 225.28,287.53 225.32,287.26 C225.04,286.62 221.46,286.00 218.28,285.98 C216.03,285.97 214.26,287.09 213.85,288.21 C213.46,289.41 213.75,291.94 214.48,293.17 C215.87,295.33 220.06,295.37 220.10,295.58 C220.10,295.58 220.71,298.59 220.71,298.59 C221.06,298.85 224.20,297.57 225.68,298.33 C226.42,298.77 227.41,299.36 227.68,299.35 C228.28,299.02 228.43,292.20 227.51,288.87 C227.40,288.47 226.56,286.07 226.59,286.02 C226.61,286.02 226.62,285.97 226.63,285.88" fill="none" stroke="rgb(255, 0, 0)" stroke-width="2.49" stroke-opacity="1.00" stroke-linejoin="round"/>
<path d="M252.13,273.66 C252.13,273.66 252.06,272.68 252.06,272.68 C252.06,272.68 251.50,272.83 251.50,272.83 C251.28,273.55 251.15,274.59 251.00,277.11 C250.72,281.87 250.88,283.73 251.06,283.89 C251.06,283.89 252.19,283.47 252.19,283.47" fill="none" stroke="rgb(255, 0, 0)" stroke-width="2.49" stroke-opacity="1.00" stroke-linejoin="round"/>
<path d="M255.61,271.35 C255.61,271.35 255.57,272.15 255.57,272.15 C256.04,273.18 258.24,278.31 259.80,278.76 C260.37,278.91 263.22,278.64 263.59,278.71 C264.27,278.84 265.07,279.75 265.82,280.95 C266.11,281.43 268.25,281.70 268.69,282.18 C269.21,282.87 268.70,288.83 267.58,292.58 C266.76,295.24 265.40,296.29 264.83,296.12 C263.48,295.68 257.61,291.61 256.82,291.23 C256.03,290.86 253.89,292.15 252.94,292.71 C251.90,292.54 250.71,291.83 249.83,290.64 C249.02,289.50 248.46,287.60 248.75,286.91 C248.84,286.71 250.56,284.32 250.46,283.62 C250.43,283.41 250.32,282.87 250.14,281.99" fill="none" stroke="rgb(255, 0, 0)" stroke-width="2.49" stroke-opacity="1.00" stroke-linejoin="round"/>
</g>
</svg>
