<?xml version="1.0" encoding="UTF-8" standalone="no"?>
<!DOCTYPE svg PUBLIC "-//W3C//DTD SVG 1.1//EN" "http://www.w3.org/Graphics/SVG/1.1/DTD/svg11.dtd">
<svg width="64.20" height="90.84" viewBox="0.00 0.00 535.00 757.00" xmlns="http://www.w3.org/2000/svg" xmlns:xlink="http://www.w3.org/1999/xlink">
<g stroke-linecap="round" transform="translate(156.00, 267.00)" id="9-비">
<path d="M18.51,-132.24 C18.43,-132.14 17.22,-131.09 16.70,-128.22 C16.13,-125.00 16.05,-117.34 15.95,-115.89 C15.94,-115.75 15.98,-115.63 16.05,-115.54" fill="none" stroke="rgb(57, 77, 239)" stroke-width="3.05" stroke-opacity="1.00" stroke-linejoin="round"/>
<path d="M110.64,-147.33 C109.97,-146.95 108.70,-144.65 108.28,-142.17 C108.07,-140.93 107.96,-139.98 107.95,-139.31 C107.95,-138.93 108.01,-138.43 108.15,-137.81" fill="none" stroke="rgb(57, 77, 239)" stroke-width="3.05" stroke-opacity="1.00" stroke-linejoin="round"/>
<path d="M-99.67,-88.24 C-99.67,-88.24 -100.02,-88.24 -100.02,-88.24 C-100.85,-87.47 -101.85,-82.40 -101.86,-80.14 C-101.83,-76.01 -99.24,-62.43 -98.97,-61.05 C-98.97,-61.05 -98.97,-62.99 -98.97,-62.99" fill="none" stroke="rgb(57, 77, 239)" stroke-width="3.05" stroke-opacity="1.00" stroke-linejoin="round"/>
<path d="M-38.20,-10.70 C-38.20,-10.70 -38.55,-10.70 -38.55,-10.70 C-39.40,-8.61 -39.62,-4.63 -39.61,-0.32 C-39.58,6.84 -39.70,11.39 -40.60,12.51 C-40.76,12.70 -41.12,12.99 -41.69,13.39 C-41.69,13.39 -43.12,13.29 -43.12,13.29" fill="none" stroke="rgb(57, 77, 239)" stroke-width="3.05" stroke-opacity="1.00" stroke-linejoin="round"/>
<path d="M-113.64,61.26 C-115.50,64.33 -118.47,69.28 -119.29,71.06 C-119.85,72.32 -120.87,74.62 -121.33,75.66 C-121.33,75.66 -121.33,75.40 -121.33,75.40" fill="none" stroke="rgb(57, 77, 239)" stroke-width="3.05" stroke-opacity="1.00" stroke-linejoin="round"/>
<path d="M-51.47,117.84 C-51.47,117.84 -51.82,117.84 -51.82,117.84 C-52.03,117.86 -52.65,119.38 -52.83,120.67 C-52.90,121.23 -52.95,128.70 -53.58,132.28 C-54.99,139.92 -55.72,146.10 -55.66,146.34 C-55.62,146.51 -55.44,146.78 -55.13,147.15" fill="none" stroke="rgb(57, 77, 239)" stroke-width="3.05" stroke-opacity="1.00" stroke-linejoin="round"/>
<path d="M4.42,126.92 C4.42,126.92 3.72,126.92 3.72,126.92 C3.73,130.39 3.71,138.02 3.38,140.57 C3.26,141.48 2.41,144.25 2.40,144.55 C2.39,144.83 2.55,145.18 2.87,145.59" fill="none" stroke="rgb(57, 77, 239)" stroke-width="3.05" stroke-opacity="1.00" stroke-linejoin="round"/>
<path d="M-25.62,200.27 C-25.67,202.25 -25.70,205.33 -25.62,206.62 C-25.55,207.83 -25.14,213.65 -24.92,214.24 C-24.83,214.48 -24.50,214.83 -23.93,215.31" fill="none" stroke="rgb(57, 77, 239)" stroke-width="3.05" stroke-opacity="1.00" stroke-linejoin="round"/>
<path d="M-13.75,261.05 C-14.14,262.24 -14.37,263.12 -14.44,263.67 C-14.56,264.52 -14.47,269.10 -14.44,270.76 C-14.44,270.78 -14.44,270.85 -14.44,270.83" fill="none" stroke="rgb(57, 77, 239)" stroke-width="3.05" stroke-opacity="1.00" stroke-linejoin="round"/>
<path d="M-54.96,258.26 C-56.52,261.12 -59.96,266.56 -60.64,267.92 C-61.37,269.38 -65.46,279.41 -66.00,280.10 C-66.00,280.10 -66.19,280.06 -66.19,280.06" fill="none" stroke="rgb(57, 77, 239)" stroke-width="3.05" stroke-opacity="1.00" stroke-linejoin="round"/>
<path d="M-78.02,395.88 C-78.71,398.45 -79.07,399.97 -79.32,401.42 C-79.57,402.88 -79.77,403.81 -80.07,404.96 C-80.07,404.96 -79.41,404.96 -79.41,404.96" fill="none" stroke="rgb(57, 77, 239)" stroke-width="3.05" stroke-opacity="1.00" stroke-linejoin="round"/>
<path d="M-59.85,380.51 C-59.80,386.10 -61.90,393.45 -62.47,393.64 C-62.47,393.64 -62.19,392.30 -62.19,392.30" fill="none" stroke="rgb(57, 77, 239)" stroke-width="3.05" stroke-opacity="1.00" stroke-linejoin="round"/>
<path d="M285.25,-145.52 C285.25,-145.52 285.25,-118.98 285.25,-118.98 C285.25,-118.98 285.65,-120.20 285.65,-120.20" fill="none" stroke="rgb(57, 77, 239)" stroke-width="3.05" stroke-opacity="1.00" stroke-linejoin="round"/>
<path d="M269.88,191.89 C269.85,193.08 269.91,194.23 270.11,195.84 C270.47,198.65 271.34,203.03 272.82,206.41 C274.77,205.05 275.79,203.33 276.03,200.48 C276.12,199.28 276.19,193.88 276.16,193.19 C276.11,191.95 275.84,189.72 275.65,188.40" fill="none" stroke="rgb(57, 77, 239)" stroke-width="3.05" stroke-opacity="1.00" stroke-linejoin="round"/>
<path d="M223.77,253.37 C223.27,253.75 222.69,255.37 222.37,257.53 C221.71,262.09 220.96,271.20 221.01,274.61 C221.01,274.61 221.52,274.00 221.52,274.00" fill="none" stroke="rgb(57, 77, 239)" stroke-width="3.05" stroke-opacity="1.00" stroke-linejoin="round"/>
<path d="M277.56,295.28 C277.33,296.93 276.86,299.51 276.86,299.70 C276.86,300.63 278.03,305.70 278.35,307.01 C278.88,307.94 281.89,304.17 283.20,301.64 C283.20,301.64 284.14,301.57 284.14,301.57" fill="none" stroke="rgb(57, 77, 239)" stroke-width="3.05" stroke-opacity="1.00" stroke-linejoin="round"/>
<path d="M272.67,365.84 C272.47,367.45 271.75,369.11 271.62,369.75 C271.39,370.94 271.24,374.37 271.27,375.74 C271.27,375.74 271.75,375.33 271.75,375.33" fill="none" stroke="rgb(57, 77, 239)" stroke-width="3.05" stroke-opacity="1.00" stroke-linejoin="round"/>
<path d="M323.67,386.10 C322.85,387.27 322.38,388.21 321.97,389.67 C321.55,391.15 321.00,393.00 320.62,394.25 C320.62,394.25 319.07,393.96 319.07,393.96" fill="none" stroke="rgb(57, 77, 239)" stroke-width="3.05" stroke-opacity="1.00" stroke-linejoin="round"/>
</g>
</svg>
