<?xml version="1.0" encoding="UTF-8" standalone="no"?>
<!DOCTYPE svg PUBLIC "-//W3C//DTD SVG 1.1//EN" "http://www.w3.org/Graphics/SVG/1.1/DTD/svg11.dtd">
<svg width="64.20" height="90.84" viewBox="0.00 0.00 535.00 757.00" xmlns="http://www.w3.org/2000/svg" xmlns:xlink="http://www.w3.org/1999/xlink">
<g stroke-linecap="round" transform="translate(156.00, 267.00)" id="9-우산">
<path d="M183.33,-105.69 C183.33,-105.69 182.79,-106.41 182.79,-106.41 C182.70,-106.41 181.69,-121.79 181.98,-122.68 C182.39,-123.86 185.57,-123.93 186.25,-123.18 C187.45,-121.78 187.47,-109.73 187.41,-108.03 C187.41,-108.03 187.63,-107.84 187.63,-107.84" fill="none" stroke="rgb(255, 0, 30)" stroke-width="3.05" stroke-opacity="1.00" stroke-linejoin="round"/>
<path d="M183.69,-103.54 C183.69,-103.54 184.40,-104.97 184.40,-104.97 C183.21,-106.05 180.39,-107.92 177.53,-108.34 C175.96,-108.56 157.16,-108.36 154.25,-108.17 C150.69,-107.92 135.13,-105.40 128.76,-104.35 C121.98,-103.13 108.48,-99.32 102.18,-96.41 C100.49,-95.62 82.25,-86.61 78.65,-84.48 C73.53,-81.41 63.80,-73.45 58.94,-68.38 C53.85,-63.00 45.37,-53.03 41.39,-47.56 C37.92,-42.77 30.16,-30.34 27.32,-24.42 C23.65,-16.64 19.98,-5.94 18.47,0.43 C16.85,7.32 14.82,20.77 14.47,27.06 C14.06,34.76 14.57,39.16 14.82,40.59 C18.05,41.29 29.14,42.34 34.97,41.84 C37.96,41.58 46.53,40.30 47.67,40.24 C47.98,40.23 48.51,40.23 49.27,40.23" fill="none" stroke="rgb(255, 0, 30)" stroke-width="3.05" stroke-opacity="1.00" stroke-linejoin="round"/>
<path d="M156.44,-93.50 C154.85,-93.15 151.50,-93.52 150.54,-93.28 C147.97,-92.62 133.76,-84.77 127.12,-81.07 C121.95,-78.14 111.39,-69.34 106.23,-65.01 C101.09,-60.66 96.50,-55.62 90.43,-47.67 C82.62,-37.60 78.50,-31.95 72.94,-22.95 C66.93,-12.84 63.07,-5.62 58.41,3.92 C51.54,18.44 47.63,30.96 46.54,38.06 C46.54,38.06 47.44,39.52 47.44,39.52" fill="none" stroke="rgb(255, 0, 30)" stroke-width="3.05" stroke-opacity="1.00" stroke-linejoin="round"/>
<path d="M49.95,36.65 C50.14,36.78 54.74,32.90 55.30,32.47 C57.72,30.69 64.07,29.24 66.06,28.67 C77.78,25.36 104.02,16.09 116.97,13.60 C125.38,12.01 155.01,9.13 168.32,9.03 C177.48,9.07 185.31,9.44 194.26,10.79 C215.12,14.27 227.76,17.51 248.44,21.64 C250.58,22.06 288.69,31.79 303.19,34.49 C328.68,39.11 333.69,40.62 335.88,41.76 C335.88,41.76 334.99,42.03 334.99,42.03" fill="none" stroke="rgb(255, 0, 30)" stroke-width="3.05" stroke-opacity="1.00" stroke-linejoin="round"/>
<path d="M199.10,-103.90 C199.75,-103.91 200.20,-103.91 200.45,-103.90 C200.95,-103.88 209.10,-103.05 211.10,-102.59 C211.77,-102.44 220.47,-100.07 224.79,-99.41 C227.72,-98.97 231.81,-98.57 233.82,-98.30 C237.76,-97.72 249.14,-92.47 257.54,-88.00 C264.80,-84.10 278.00,-76.59 282.46,-72.72 C286.70,-69.04 295.47,-59.91 300.68,-54.49 C310.29,-44.45 313.60,-40.74 320.33,-31.72 C328.27,-20.87 335.50,-7.27 336.29,-5.64 C336.29,-5.64 336.06,-5.30 336.06,-5.30" fill="none" stroke="rgb(255, 0, 30)" stroke-width="3.05" stroke-opacity="1.00" stroke-linejoin="round"/>
<path d="M280.85,-67.69 C280.85,-67.69 280.49,-67.69 280.49,-67.69 C285.83,-64.28 290.25,-59.70 296.78,-51.62 C304.70,-41.73 308.31,-36.87 311.64,-30.72 C315.67,-23.24 322.02,-7.34 322.94,-4.00 C323.07,-3.54 323.26,-2.66 323.51,-1.36" fill="none" stroke="rgb(255, 0, 30)" stroke-width="3.05" stroke-opacity="1.00" stroke-linejoin="round"/>
<path d="M204.84,-94.22 C204.83,-93.74 204.90,-92.79 205.09,-92.05 C205.81,-89.35 210.25,-83.95 211.05,-83.02 C214.31,-79.26 220.18,-68.78 223.48,-62.85 C225.33,-59.44 232.77,-40.83 234.12,-36.11 C235.78,-30.19 236.62,-23.09 236.66,-22.31 C236.66,-22.31 233.52,-21.43 233.52,-21.43" fill="none" stroke="rgb(255, 0, 30)" stroke-width="3.05" stroke-opacity="1.00" stroke-linejoin="round"/>
<path d="M171.14,-89.20 C170.10,-87.29 168.04,-84.57 167.59,-83.12 C167.34,-82.30 164.91,-74.59 163.25,-71.75 C162.76,-70.91 158.56,-64.52 156.88,-61.48 C150.88,-50.58 149.89,-40.27 149.68,-37.62 C149.68,-37.62 149.98,-37.93 149.98,-37.93" fill="none" stroke="rgb(255, 0, 30)" stroke-width="3.05" stroke-opacity="1.00" stroke-linejoin="round"/>
<path d="M183.42,9.56 C183.61,10.83 184.09,14.26 184.19,15.51 C185.55,33.60 183.47,103.04 185.16,119.69 C186.79,139.01 186.14,156.02 185.42,158.73 C184.87,160.71 182.52,165.15 181.35,166.40 C180.36,167.44 176.49,169.06 175.22,169.02 C173.44,168.89 170.99,166.12 169.66,163.35 C168.53,160.96 167.40,159.84 166.41,159.76 C165.40,159.72 163.88,161.11 163.42,162.97 C162.95,165.03 163.32,170.46 164.26,172.40 C164.78,173.41 166.11,174.67 167.30,175.35 C168.60,176.05 170.40,176.42 171.63,176.16 C172.78,175.89 179.02,172.99 181.51,171.82 C183.61,170.83 186.95,168.48 188.26,167.29 C191.22,164.55 192.89,161.73 193.23,159.89 C194.25,154.01 192.47,129.27 192.42,128.43 C192.40,128.06 192.33,127.38 192.21,126.38" fill="none" stroke="rgb(255, 0, 30)" stroke-width="3.05" stroke-opacity="1.00" stroke-linejoin="round"/>
<path d="M188.23,13.53 C188.18,13.73 188.50,14.39 190.06,17.31 C192.81,22.47 193.54,28.62 193.94,38.61 C194.14,43.15 193.68,59.62 193.25,62.89 C191.89,72.93 191.15,80.52 190.49,91.26 C189.96,101.88 190.76,117.08 190.75,117.09 C190.75,117.09 191.37,116.54 191.37,116.54" fill="none" stroke="rgb(255, 0, 30)" stroke-width="3.05" stroke-opacity="1.00" stroke-linejoin="round"/>
</g>
</svg>
