<?xml version="1.0" encoding="UTF-8" standalone="no"?>
<!DOCTYPE svg PUBLIC "-//W3C//DTD SVG 1.1//EN" "http://www.w3.org/Graphics/SVG/1.1/DTD/svg11.dtd">
<svg width="128.40" height="181.68" viewBox="0.00 0.00 535.00 757.00" xmlns="http://www.w3.org/2000/svg" xmlns:xlink="http://www.w3.org/1999/xlink">
<g stroke-linecap="round" transform="translate(44.00, 155.00)" id="90-사람">
<path d="M209.42,90.30 C209.42,90.30 208.97,91.45 208.97,91.45 C208.97,91.45 208.68,91.45 208.68,91.45 C208.30,89.55 209.12,86.34 210.41,83.26 C210.87,82.19 212.64,78.12 212.94,77.61 C214.08,75.69 215.82,75.20 218.23,75.95 C218.58,76.08 220.30,77.02 220.56,77.59 C221.74,80.35 222.63,96.89 222.16,100.31 C222.09,100.80 222.01,101.28 221.94,101.76" fill="none" stroke="rgb(255, 0, 255)" stroke-width="2.69" stroke-opacity="1.00" stroke-linejoin="round"/>
<path d="M211.18,99.09 C211.18,99.09 211.47,99.30 211.47,99.30 C211.47,99.30 211.65,99.28 211.65,99.28 C210.86,98.81 204.49,99.56 200.98,100.29 C195.06,101.55 184.51,105.02 175.15,107.12 C167.61,108.76 150.89,112.49 146.39,113.85 C139.59,115.92 125.33,121.58 118.69,124.88 C104.30,132.07 87.70,143.07 86.08,145.29 C85.61,145.96 85.42,147.28 85.80,147.67 C87.54,149.24 97.42,150.55 100.10,150.89" fill="none" stroke="rgb(255, 0, 255)" stroke-width="2.69" stroke-opacity="1.00" stroke-linejoin="round"/>
<path d="M196.37,99.63 C196.37,99.63 197.77,98.46 197.77,98.46 C197.12,98.28 192.11,99.64 188.97,100.48 C180.82,102.51 164.36,106.59 156.07,108.64 C145.20,111.51 133.35,115.66 127.94,118.66 C125.75,119.90 121.12,123.60 119.08,126.56 C117.01,129.64 114.52,135.74 113.38,139.88 C108.46,158.68 106.50,174.31 106.64,179.71 C106.69,181.37 106.92,184.05 107.07,184.54 C107.11,184.68 107.20,184.82 107.33,184.96" fill="none" stroke="rgb(255, 0, 255)" stroke-width="2.69" stroke-opacity="1.00" stroke-linejoin="round"/>
<path d="M99.21,187.12 C99.21,187.12 97.94,187.82 97.94,187.82 C100.75,185.22 113.89,178.28 120.68,174.71 C126.37,171.81 137.57,166.20 143.20,163.89 C148.16,161.87 171.67,156.17 172.41,155.98 C173.26,155.77 174.42,155.50 175.90,155.19 C176.26,155.11 176.48,155.08 176.57,155.07" fill="none" stroke="rgb(255, 0, 255)" stroke-width="2.69" stroke-opacity="1.00" stroke-linejoin="round"/>
<path d="M188.60,149.60 C188.60,149.60 188.80,148.70 188.80,148.70 C192.83,148.61 197.92,148.33 199.55,148.00 C200.02,147.91 201.09,147.65 202.76,147.24" fill="none" stroke="rgb(255, 0, 255)" stroke-width="2.69" stroke-opacity="1.00" stroke-linejoin="round"/>
<path d="M222.00,100.04 C222.00,100.04 221.62,99.32 221.62,99.32 C227.16,98.24 238.72,97.59 245.42,98.42 C248.26,98.79 254.73,100.27 257.44,101.21 C260.64,102.35 264.85,104.28 268.43,106.79 C272.86,109.92 286.65,120.91 292.27,125.52 C299.81,131.83 306.32,137.94 309.22,141.75 C310.80,143.86 313.83,148.93 314.96,151.61 C317.25,157.14 319.78,168.82 319.37,170.07 C319.37,170.07 318.90,170.11 318.90,170.11 C318.90,170.11 318.33,169.72 318.33,169.72" fill="none" stroke="rgb(255, 0, 255)" stroke-width="2.69" stroke-opacity="1.00" stroke-linejoin="round"/>
<path d="M220.38,151.15 C220.38,151.15 218.96,152.72 218.96,152.72 C220.85,152.40 224.09,151.89 225.43,151.76 C228.29,151.50 231.92,151.72 233.47,151.85" fill="none" stroke="rgb(255, 0, 255)" stroke-width="2.69" stroke-opacity="1.00" stroke-linejoin="round"/>
<path d="M242.08,150.68 C244.30,151.40 247.98,152.00 252.75,152.37 C259.44,152.88 267.51,154.45 278.61,156.89 C289.07,159.30 297.41,161.71 303.64,164.60 C307.29,166.31 311.97,169.10 316.21,171.98 C320.49,174.93 321.41,175.52 323.14,176.58" fill="none" stroke="rgb(255, 0, 255)" stroke-width="2.69" stroke-opacity="1.00" stroke-linejoin="round"/>
<path d="M173.25,153.92 C172.97,153.95 172.79,153.97 172.68,153.98 C172.58,153.99 172.42,154.02 172.20,154.05 C172.14,154.16 172.08,154.31 172.02,154.52 C171.03,157.99 171.16,174.66 171.08,180.22 C170.91,186.17 169.59,208.72 169.57,209.31 C169.34,215.47 170.56,232.48 171.18,240.27 C171.98,249.87 171.60,255.59 171.47,257.22 C171.47,257.22 171.57,256.89 171.57,256.89" fill="none" stroke="rgb(255, 0, 255)" stroke-width="2.69" stroke-opacity="1.00" stroke-linejoin="round"/>
<path d="M173.11,262.58 C173.04,261.76 173.01,261.21 173.02,260.93 C173.03,260.65 173.09,260.25 173.21,259.73 C173.16,259.95 172.98,262.09 172.93,263.44 C172.91,264.17 172.95,273.98 173.15,277.93 C173.34,281.36 175.26,284.48 175.27,284.55 C175.30,284.76 175.44,303.93 176.35,311.98 C176.42,312.62 176.49,313.26 176.57,313.90 C176.57,313.90 176.50,311.78 176.50,311.78" fill="none" stroke="rgb(255, 0, 255)" stroke-width="2.69" stroke-opacity="1.00" stroke-linejoin="round"/>
<path d="M181.70,154.13 C181.70,154.13 182.85,151.00 182.85,151.00 C182.85,151.00 181.81,150.98 181.81,150.98 C181.01,157.85 181.19,172.53 181.31,180.16 C181.97,200.40 183.74,216.84 184.28,232.32 C184.37,240.02 184.50,257.39 184.75,261.51 C185.16,267.91 188.59,283.93 189.07,288.38 C189.21,289.74 191.02,305.62 190.93,305.96 C190.93,305.96 188.31,301.27 188.31,301.27 C187.93,301.56 187.36,305.89 186.98,308.86 C186.25,315.05 186.76,319.72 186.89,321.33 C187.35,326.95 187.92,332.18 188.61,334.22 C189.64,337.20 192.20,340.99 193.96,342.50 C196.64,344.76 200.42,346.18 200.64,346.17" fill="none" stroke="rgb(255, 0, 255)" stroke-width="2.69" stroke-opacity="1.00" stroke-linejoin="round"/>
<path d="M193.26,341.22 C193.26,341.22 193.62,342.57 193.62,342.57 C196.38,343.45 198.42,343.55 200.01,342.54 C202.36,341.02 205.79,336.36 206.39,335.09 C208.90,329.70 210.57,320.47 210.19,319.48 C210.13,319.34 209.96,319.20 209.69,319.05" fill="none" stroke="rgb(255, 0, 255)" stroke-width="2.69" stroke-opacity="1.00" stroke-linejoin="round"/>
<path d="M176.16,314.78 C177.40,317.11 178.06,318.48 178.81,320.39 C180.85,325.64 187.43,344.57 188.66,346.60 C190.26,349.16 192.58,351.20 193.47,351.10 C193.47,351.10 193.93,350.84 193.93,350.84 C193.93,350.84 194.01,350.89 194.01,350.89" fill="none" stroke="rgb(255, 0, 255)" stroke-width="2.69" stroke-opacity="1.00" stroke-linejoin="round"/>
<path d="M204.02,347.51 C204.02,347.51 203.84,347.09 203.84,347.09 C204.71,347.05 207.62,345.20 208.54,344.15 C209.97,342.47 214.56,334.90 215.33,333.19 C216.05,331.58 216.84,328.79 216.98,328.19 C217.01,328.07 217.03,328.05 217.06,328.12 C217.06,328.12 217.32,328.24 217.32,328.24" fill="none" stroke="rgb(255, 0, 255)" stroke-width="2.69" stroke-opacity="1.00" stroke-linejoin="round"/>
</g>
</svg>
