<?xml version="1.0" encoding="UTF-8" standalone="no"?>
<!DOCTYPE svg PUBLIC "-//W3C//DTD SVG 1.1//EN" "http://www.w3.org/Graphics/SVG/1.1/DTD/svg11.dtd">
<svg width="128.40" height="181.68" viewBox="0.00 0.00 535.00 757.00" xmlns="http://www.w3.org/2000/svg" xmlns:xlink="http://www.w3.org/1999/xlink">
<g stroke-linecap="round" transform="translate(44.00, 155.00)" id="91-사람">
<path d="M163.45,186.99 C163.49,186.81 163.53,186.66 163.56,186.56 C163.73,185.99 163.75,185.78 163.70,185.48 C161.67,184.64 146.15,187.51 144.81,188.01 C142.75,188.82 138.49,192.58 136.16,195.00 C134.19,197.09 131.66,201.02 131.07,202.72 C130.37,204.84 132.10,222.84 131.77,229.66 C131.60,232.90 130.40,244.74 130.33,245.51 C130.33,245.51 130.81,244.30 130.81,244.30" fill="none" stroke="rgb(0, 0, 255)" stroke-width="2.55" stroke-opacity="1.00" stroke-linejoin="round"/>
<path d="M160.21,201.65 C160.21,201.65 160.83,200.18 160.83,200.18 C160.13,199.87 155.01,200.49 152.32,201.18 C148.44,202.20 142.47,204.47 141.26,205.84 C139.39,208.07 137.77,218.37 137.35,225.03 C137.08,228.07 132.11,240.97 132.46,241.36 C132.46,241.36 132.95,240.68 132.95,240.68" fill="none" stroke="rgb(0, 0, 255)" stroke-width="2.55" stroke-opacity="1.00" stroke-linejoin="round"/>
<path d="M162.33,200.69 C162.33,200.69 161.08,201.11 161.08,201.11 C161.08,201.11 160.98,200.93 160.98,200.93 C166.77,199.00 175.01,198.77 181.21,199.19 C183.01,199.28 187.13,199.53 188.11,199.81 C190.47,200.54 193.14,204.88 194.10,208.02 C195.49,212.70 195.32,224.78 195.84,226.82 C196.42,228.97 199.02,232.12 200.44,232.21 C200.62,232.22 200.88,232.16 201.22,232.05 C201.22,232.05 201.31,231.86 201.31,231.86" fill="none" stroke="rgb(0, 0, 255)" stroke-width="2.55" stroke-opacity="1.00" stroke-linejoin="round"/>
<path d="M170.80,184.36 C170.80,184.36 170.74,184.61 170.74,184.61 C170.77,184.68 175.55,184.79 183.66,186.59 C187.83,187.59 193.65,190.28 196.32,192.69 C198.76,194.96 201.72,199.91 202.50,202.22 C203.46,205.22 201.64,218.95 202.37,224.19 C202.52,225.22 203.12,228.75 203.15,229.04 C203.40,230.94 203.79,231.52 203.97,231.63" fill="none" stroke="rgb(0, 0, 255)" stroke-width="2.55" stroke-opacity="1.00" stroke-linejoin="round"/>
<path d="M142.22,210.69 C142.17,210.52 142.11,210.40 142.05,210.32 C141.98,210.24 141.83,210.08 141.57,209.86 C141.57,209.86 140.73,209.92 140.73,209.92 C144.09,209.71 147.40,210.29 148.28,211.90 C148.46,212.26 152.62,223.02 152.70,223.25 C154.52,228.21 156.36,231.21 158.79,233.84 C160.69,235.86 165.86,241.40 166.31,241.27 C169.06,240.63 186.18,214.83 187.81,213.18 C189.86,211.19 192.52,210.77 194.72,210.67 C195.06,210.66 195.29,210.66 195.39,210.69" fill="none" stroke="rgb(0, 0, 255)" stroke-width="2.55" stroke-opacity="1.00" stroke-linejoin="round"/>
<path d="M154.64,211.40 C154.64,211.62 154.61,211.81 154.55,211.96 C154.37,212.36 153.78,213.39 153.61,214.02 C153.73,213.94 156.38,210.22 158.27,209.87 C159.13,209.72 160.41,209.83 161.05,210.00 C161.05,210.00 161.23,210.76 161.23,210.76" fill="none" stroke="rgb(0, 0, 255)" stroke-width="2.55" stroke-opacity="1.00" stroke-linejoin="round"/>
<path d="M171.21,209.37 C171.21,209.37 169.85,208.98 169.85,208.98 C169.85,208.98 175.88,210.30 175.88,210.30 C175.79,210.63 175.72,210.83 175.69,210.91 C175.66,210.99 175.61,211.04 175.55,211.09" fill="none" stroke="rgb(0, 0, 255)" stroke-width="2.55" stroke-opacity="1.00" stroke-linejoin="round"/>
<path d="M158.27,217.87 C158.11,217.97 158.00,218.02 157.94,218.05 C157.88,218.07 157.78,218.09 157.63,218.10 C157.63,218.10 157.19,217.76 157.19,217.76 C157.19,217.76 158.66,217.84 158.66,217.84 C158.66,217.84 157.28,217.89 157.28,217.89 C157.28,217.89 158.66,216.90 158.66,216.90 C158.66,216.90 157.48,218.43 157.48,218.43 C157.48,218.43 158.79,218.07 158.79,218.07 C158.79,218.07 157.59,218.53 157.59,218.53 C157.59,218.53 159.36,219.46 159.36,219.46" fill="none" stroke="rgb(0, 0, 255)" stroke-width="2.55" stroke-opacity="1.00" stroke-linejoin="round"/>
<path d="M164.62,217.91 C164.85,217.39 165.01,217.04 165.09,216.86 C165.18,216.68 165.31,216.42 165.49,216.08 C165.49,216.08 165.92,227.04 165.92,227.04 C165.92,227.04 166.09,226.67 166.09,226.67" fill="none" stroke="rgb(0, 0, 255)" stroke-width="2.55" stroke-opacity="1.00" stroke-linejoin="round"/>
<path d="M172.73,218.91 C172.73,218.91 172.31,218.82 172.31,218.82 C172.31,218.82 172.06,218.49 172.06,218.49 C172.06,218.49 176.01,218.04 176.01,218.04 C176.01,218.04 171.61,218.37 171.61,218.37 C171.61,218.37 173.97,218.38 173.97,218.38 C173.97,218.38 172.61,218.75 172.61,218.75 C172.61,218.75 174.91,217.62 174.91,217.62 C174.91,217.62 173.33,218.25 173.33,218.25 C173.33,218.25 174.69,218.28 174.69,218.28 C174.69,218.28 174.57,218.57 174.57,218.57" fill="none" stroke="rgb(0, 0, 255)" stroke-width="2.55" stroke-opacity="1.00" stroke-linejoin="round"/>
<path d="M164.02,231.57 C164.02,231.57 163.82,231.46 163.82,231.46 C163.82,231.46 162.99,232.42 162.99,232.42 C164.19,233.06 165.80,231.76 166.39,231.20 C166.77,231.21 167.58,231.64 167.91,231.64 C168.07,231.64 170.49,230.03 171.14,229.82 C171.14,229.82 172.92,231.28 172.92,231.28" fill="none" stroke="rgb(0, 0, 255)" stroke-width="2.55" stroke-opacity="1.00" stroke-linejoin="round"/>
<path d="M158.63,238.40 C158.63,238.40 159.27,236.62 159.27,236.62 C159.97,239.52 158.78,252.84 159.00,254.19 C159.08,254.70 159.39,255.31 159.49,255.42" fill="none" stroke="rgb(0, 0, 255)" stroke-width="2.55" stroke-opacity="1.00" stroke-linejoin="round"/>
<path d="M174.29,234.69 C174.29,234.69 175.46,232.88 175.46,232.88 C175.68,232.82 177.90,251.20 177.90,251.24 C177.98,251.79 178.06,252.80 178.15,254.28" fill="none" stroke="rgb(0, 0, 255)" stroke-width="2.55" stroke-opacity="1.00" stroke-linejoin="round"/>
<path d="M155.80,254.78 C155.80,254.78 155.86,254.53 155.86,254.53 C151.85,259.05 140.37,265.83 135.49,268.34 C132.98,269.63 109.81,280.28 109.60,280.39 C109.07,280.66 107.05,280.54 106.56,281.57 C106.52,281.66 106.51,281.79 106.54,281.94 C106.54,281.94 110.23,282.60 110.23,282.60 C110.23,282.60 105.26,286.74 105.26,286.74 C105.26,286.74 109.86,286.28 109.86,286.28 C109.86,286.28 107.55,291.30 107.55,291.30 C107.55,291.30 110.50,289.31 110.50,289.31 C110.50,289.31 108.78,294.45 108.78,294.45 C108.78,294.45 113.08,291.35 113.08,291.35 C113.08,291.35 114.15,297.39 114.15,297.39 C115.38,296.87 117.93,292.86 118.35,292.17 C119.68,290.01 121.35,289.05 122.11,289.03 C122.11,289.03 123.01,289.78 123.01,289.78" fill="none" stroke="rgb(0, 0, 255)" stroke-width="2.55" stroke-opacity="1.00" stroke-linejoin="round"/>
<path d="M123.17,287.69 C123.17,287.69 123.24,286.70 123.24,286.70 C123.28,286.58 125.24,287.61 126.09,287.88 C127.39,288.25 129.43,283.99 130.29,283.87 C130.48,283.86 145.96,284.02 149.10,284.40 C148.23,284.97 147.97,285.78 148.47,287.15 C149.38,289.64 151.78,294.11 153.98,296.60 C155.94,298.77 159.61,300.37 161.67,300.36 C167.92,300.06 172.17,299.64 172.53,299.70 C172.53,299.70 172.69,300.22 172.69,300.22" fill="none" stroke="rgb(0, 0, 255)" stroke-width="2.55" stroke-opacity="1.00" stroke-linejoin="round"/>
<path d="M183.37,253.12 C183.37,253.12 182.91,253.08 182.91,253.08 C182.91,253.08 182.81,252.80 182.81,252.80 C182.81,252.80 182.96,252.42 182.96,252.42 C184.02,251.85 187.08,252.22 191.85,253.63 C197.09,255.22 200.64,256.59 202.73,258.10 C205.24,259.93 209.36,262.46 211.32,263.57 C211.56,263.71 211.78,263.82 211.97,263.90" fill="none" stroke="rgb(0, 0, 255)" stroke-width="2.55" stroke-opacity="1.00" stroke-linejoin="round"/>
<path d="M214.52,266.22 C214.52,266.22 214.46,265.93 214.46,265.93 C215.14,265.54 217.90,266.61 219.35,268.09 C220.50,269.31 224.42,274.92 225.34,278.38 C225.55,279.16 226.34,285.22 227.23,287.09 C227.50,287.67 228.60,289.96 228.73,290.86 C228.98,292.66 228.31,293.86 228.26,293.86" fill="none" stroke="rgb(0, 0, 255)" stroke-width="2.55" stroke-opacity="1.00" stroke-linejoin="round"/>
<path d="M189.36,280.32 C189.36,280.32 189.83,279.19 189.83,279.19 C195.54,278.74 198.94,278.91 201.88,280.96 C202.66,281.53 210.71,288.63 213.14,290.37 C215.80,292.26 219.47,294.39 221.58,294.72 C223.35,294.97 226.25,294.10 228.33,292.32 C229.14,291.61 230.35,290.38 230.47,290.35 C230.47,290.35 230.70,291.41 230.70,291.41" fill="none" stroke="rgb(0, 0, 255)" stroke-width="2.55" stroke-opacity="1.00" stroke-linejoin="round"/>
<path d="M225.79,294.78 C225.79,294.78 225.74,294.76 225.74,294.76 C225.67,294.65 225.58,294.74 225.47,295.04 C224.25,298.42 224.30,301.83 224.74,302.21 C224.74,302.21 226.76,299.42 226.76,299.42 C226.76,299.42 227.54,305.38 227.54,305.38 C228.76,304.36 228.51,300.65 228.39,300.20 C228.39,300.20 229.59,305.07 229.59,305.07 C230.55,302.96 229.72,300.24 229.05,298.52 C229.05,298.52 231.35,301.19 231.35,301.19 C231.35,301.19 231.36,297.55 231.36,297.55 C231.36,297.55 234.10,298.53 234.10,298.53 C234.30,297.60 231.81,293.19 229.10,290.61 C228.29,289.84 227.34,289.25 227.07,289.19" fill="none" stroke="rgb(0, 0, 255)" stroke-width="2.55" stroke-opacity="1.00" stroke-linejoin="round"/>
<path d="M191.80,280.72 C191.80,280.72 192.14,280.04 192.14,280.04 C192.14,280.04 192.54,279.90 192.54,279.90 C192.68,280.51 192.91,287.28 193.24,289.21 C193.37,289.92 194.11,292.66 194.39,293.22 C194.96,294.39 197.26,296.64 197.82,297.51 C198.53,298.66 199.19,301.77 199.07,303.15 C197.75,313.09 197.76,317.93 197.88,320.95 C197.88,320.95 197.81,319.53 197.81,319.53" fill="none" stroke="rgb(0, 0, 255)" stroke-width="2.55" stroke-opacity="1.00" stroke-linejoin="round"/>
<path d="M155.85,303.17 C155.85,303.17 155.95,302.94 155.95,302.94 C155.95,302.94 158.80,316.53 158.80,316.53 C160.02,316.68 175.85,313.89 179.90,314.00 C181.50,314.06 187.05,314.99 188.72,316.05 C189.71,316.69 192.09,318.49 192.51,318.59 C192.51,318.59 192.47,318.39 192.47,318.39" fill="none" stroke="rgb(0, 0, 255)" stroke-width="2.55" stroke-opacity="1.00" stroke-linejoin="round"/>
<path d="M153.45,314.27 C153.44,314.35 153.42,314.42 153.41,314.50 C153.28,315.56 153.98,320.57 155.42,321.60 C156.67,322.43 162.08,321.66 167.83,320.62 C177.79,318.86 185.76,317.94 187.40,317.24 C187.40,317.24 187.42,316.67 187.42,316.67 C187.42,316.67 187.33,316.55 187.33,316.55" fill="none" stroke="rgb(0, 0, 255)" stroke-width="2.55" stroke-opacity="1.00" stroke-linejoin="round"/>
<path d="M153.45,321.34 C153.45,321.34 153.37,321.34 153.37,321.34 C153.19,321.57 152.32,322.84 151.89,323.57 C150.26,326.38 148.73,331.79 148.89,333.83 C149.05,335.56 151.75,340.99 152.36,343.96 C153.80,351.64 157.55,362.17 157.67,362.38 C158.01,362.95 163.39,362.91 163.84,362.85 C164.15,362.81 164.68,362.69 165.41,362.49" fill="none" stroke="rgb(0, 0, 255)" stroke-width="2.55" stroke-opacity="1.00" stroke-linejoin="round"/>
<path d="M192.16,319.82 C192.16,319.82 192.32,319.34 192.32,319.34 C192.32,319.34 192.46,320.12 192.46,320.12 C192.46,320.12 191.48,324.27 191.48,324.27 C192.46,324.89 193.24,326.05 193.08,330.61 C193.09,331.20 196.16,333.89 196.19,335.89 C196.20,336.64 195.63,340.07 195.58,340.64 C195.50,341.46 197.84,342.29 198.67,342.74 C198.99,342.91 199.24,343.21 199.41,343.65 C199.22,345.11 194.41,352.39 194.04,353.22 C193.54,354.35 190.64,361.12 190.65,362.33 C190.67,362.90 192.11,371.22 192.19,374.21 C192.28,380.69 193.36,398.51 193.30,401.90 C193.24,404.62 192.48,407.66 191.48,407.93 C190.84,408.05 189.77,407.41 189.15,406.52 C188.98,406.28 188.71,405.81 188.35,405.11" fill="none" stroke="rgb(0, 0, 255)" stroke-width="2.55" stroke-opacity="1.00" stroke-linejoin="round"/>
<path d="M176.90,361.64 C176.90,361.64 177.23,361.47 177.23,361.47 C177.40,361.82 177.48,363.05 177.46,365.66 C177.26,379.59 177.27,382.23 177.70,392.90 C177.92,401.79 178.78,403.97 179.36,404.71 C179.85,404.86 180.29,404.91 180.63,404.67 C181.34,404.15 181.80,403.42 181.81,402.89" fill="none" stroke="rgb(0, 0, 255)" stroke-width="2.55" stroke-opacity="1.00" stroke-linejoin="round"/>
<path d="M156.93,360.72 C156.90,361.01 156.88,361.20 156.87,361.30 C156.86,361.54 156.95,363.45 157.01,364.62 C157.73,377.61 158.13,390.89 158.17,391.08 C158.36,392.12 159.10,393.45 159.75,394.06 C160.48,394.68 162.61,395.36 164.70,395.68 C165.15,395.75 165.73,395.80 166.44,395.82" fill="none" stroke="rgb(0, 0, 255)" stroke-width="2.55" stroke-opacity="1.00" stroke-linejoin="round"/>
<path d="M166.63,396.10 C166.72,396.57 166.76,396.97 166.75,397.31 C166.59,400.45 167.17,405.72 167.46,406.81 C167.75,407.83 168.59,408.74 169.50,409.06 C170.37,409.33 171.96,409.50 172.45,409.34 C172.73,409.25 173.58,408.71 173.63,408.68" fill="none" stroke="rgb(0, 0, 255)" stroke-width="2.55" stroke-opacity="1.00" stroke-linejoin="round"/>
<path d="M174.10,408.29 C174.10,408.29 174.45,409.18 174.45,409.18 C175.54,409.27 176.19,409.33 176.42,409.36 C176.65,409.38 176.77,409.41 176.78,409.44" fill="none" stroke="rgb(0, 0, 255)" stroke-width="2.55" stroke-opacity="1.00" stroke-linejoin="round"/>
</g>
</svg>
