<?xml version="1.0" encoding="UTF-8" standalone="no"?>
<!DOCTYPE svg PUBLIC "-//W3C//DTD SVG 1.1//EN" "http://www.w3.org/Graphics/SVG/1.1/DTD/svg11.dtd">
<svg width="128.40" height="181.68" viewBox="0.00 0.00 535.00 757.00" xmlns="http://www.w3.org/2000/svg" xmlns:xlink="http://www.w3.org/1999/xlink">
<g stroke-linecap="round" transform="translate(44.00, 155.00)" id="93-가방-1">
<path d="M314.65,232.41 C314.84,231.94 314.94,231.65 314.97,231.56 C315.00,231.47 314.99,231.43 314.95,231.45 C314.40,231.99 311.92,237.05 311.27,240.57 C310.31,245.93 311.77,253.71 312.38,255.42 C312.63,255.35 312.03,247.31 311.99,245.16 C311.94,241.51 312.36,235.79 312.12,235.57 C311.56,236.23 311.08,238.85 311.25,242.86 C311.33,244.54 312.80,256.72 312.89,256.97 C313.05,257.02 313.16,257.05 313.19,257.06 C313.23,257.06 313.26,257.05 313.27,257.02" fill="none" stroke="rgb(255, 0, 255)" stroke-width="3.58" stroke-opacity="1.00" stroke-linejoin="round"/>
<path d="M322.96,223.06 C322.95,223.13 322.94,223.17 322.93,223.21 C322.92,223.24 322.89,223.32 322.85,223.43 C322.92,223.42 323.92,223.37 324.43,223.50 C326.48,224.01 330.33,226.42 332.28,227.86 C335.03,229.96 338.41,234.14 338.69,236.79 C338.76,237.53 338.64,239.36 338.66,239.49 C338.66,239.50 338.67,239.59 338.71,239.76" fill="none" stroke="rgb(255, 0, 255)" stroke-width="3.58" stroke-opacity="1.00" stroke-linejoin="round"/>
<path d="M313.21,255.67 C313.21,255.67 312.83,255.64 312.83,255.64 C312.83,255.64 312.73,255.76 312.73,255.76 C314.77,253.30 318.67,250.00 321.69,247.79 C324.79,245.53 330.50,241.72 333.86,239.68 C336.53,237.99 344.70,231.64 345.09,231.36 C346.60,230.31 347.79,229.88 348.57,229.97 C348.57,229.97 352.04,251.74 352.04,251.74 C351.82,252.08 351.58,252.33 351.31,252.50 C351.04,252.67 350.36,252.99 349.28,253.48" fill="none" stroke="rgb(255, 0, 255)" stroke-width="3.58" stroke-opacity="1.00" stroke-linejoin="round"/>
<path d="M313.30,255.31 C313.30,255.31 313.07,255.62 313.07,255.62 C313.71,257.82 315.23,261.15 316.55,263.58 C317.81,265.88 319.94,268.42 320.94,268.77 C322.53,269.25 328.66,265.86 336.41,261.10 C339.30,259.24 346.05,254.79 347.54,253.73 C352.28,250.31 353.53,248.97 354.37,247.64 C354.37,247.64 354.27,247.35 354.27,247.35 C354.27,247.35 354.13,247.31 354.13,247.31" fill="none" stroke="rgb(255, 0, 255)" stroke-width="3.58" stroke-opacity="1.00" stroke-linejoin="round"/>
<path d="M329.06,244.64 C329.06,244.64 328.75,245.18 328.75,245.18 C328.75,245.18 327.89,245.49 327.89,245.49 C328.21,246.87 329.03,247.87 330.86,248.86 C332.41,249.70 333.48,250.13 333.91,250.14 C334.51,249.31 333.48,242.38 333.58,239.00 C333.59,238.69 333.63,238.58 333.63,238.54" fill="none" stroke="rgb(255, 0, 255)" stroke-width="3.58" stroke-opacity="1.00" stroke-linejoin="round"/>
</g>
</svg>
