<?xml version="1.0" encoding="UTF-8" standalone="no"?>
<!DOCTYPE svg PUBLIC "-//W3C//DTD SVG 1.1//EN" "http://www.w3.org/Graphics/SVG/1.1/DTD/svg11.dtd">
<svg width="128.40" height="181.68" viewBox="0.00 0.00 535.00 757.00" xmlns="http://www.w3.org/2000/svg" xmlns:xlink="http://www.w3.org/1999/xlink">
<g stroke-linecap="round" transform="translate(44.00, 155.00)" id="93-사람-2">
<path d="M146.27,186.64 C146.30,186.63 146.32,186.62 146.34,186.61 C146.35,186.60 146.37,186.58 146.40,186.54 C146.40,186.54 145.95,186.59 145.95,186.59 C145.92,186.58 138.90,178.54 137.26,177.63 C136.48,177.25 135.10,177.19 134.31,177.60 C133.34,178.14 120.71,191.79 120.27,192.41 C119.35,193.73 118.64,195.60 118.86,195.66 C119.48,196.06 121.98,195.32 124.64,194.06 C126.68,193.09 130.89,191.37 133.31,190.53 C135.79,189.69 140.36,188.75 145.06,189.01 C146.06,189.07 147.15,188.97 147.50,188.89" fill="none" stroke="rgb(0, 0, 255)" stroke-width="3.58" stroke-opacity="1.00" stroke-linejoin="round"/>
<path d="M160.21,182.81 C160.00,182.76 159.88,182.73 159.86,182.72 C159.44,182.63 158.96,182.64 158.38,182.80 C156.42,183.37 152.42,185.46 150.74,187.02 C149.15,188.55 146.55,193.15 146.08,195.67 C145.59,198.52 146.59,204.13 148.00,206.28 C149.49,208.44 152.93,209.81 156.39,210.41 C159.75,210.96 163.85,211.01 166.51,210.55 C168.85,210.11 172.33,207.96 173.51,205.84 C175.06,202.95 176.20,195.86 175.99,193.20 C175.73,190.42 172.51,186.18 170.94,185.06 C167.99,183.05 160.77,180.62 157.47,180.73 C155.80,180.81 152.04,182.79 150.91,184.19 C149.79,185.64 149.15,187.86 149.01,188.84 C148.99,189.01 148.99,189.11 149.02,189.14" fill="none" stroke="rgb(0, 0, 255)" stroke-width="3.58" stroke-opacity="1.00" stroke-linejoin="round"/>
<path d="M146.76,192.77 C146.76,192.77 146.65,193.45 146.65,193.45 C146.77,193.43 146.89,193.40 147.01,193.37 C148.40,193.01 154.79,192.33 156.42,192.44 C157.75,192.53 163.03,193.79 164.83,194.52 C169.71,196.55 173.52,201.46 174.43,203.06 C174.58,203.33 174.64,203.49 174.61,203.56" fill="none" stroke="rgb(0, 0, 255)" stroke-width="3.58" stroke-opacity="1.00" stroke-linejoin="round"/>
<path d="M174.74,183.49 C174.74,183.49 173.93,183.85 173.93,183.85 C173.68,183.07 174.69,179.24 176.23,177.95 C177.19,177.20 179.49,176.48 180.66,176.59 C181.87,176.75 183.93,178.02 185.07,179.26 C185.61,179.86 195.54,191.41 195.51,192.84 C195.01,192.56 191.51,189.91 189.15,188.70 C186.63,187.43 180.98,185.84 178.18,185.93 C175.41,186.04 170.04,187.12 169.31,187.50 C169.25,187.54 169.20,187.59 169.17,187.66 C169.17,187.66 169.24,187.71 169.24,187.71" fill="none" stroke="rgb(0, 0, 255)" stroke-width="3.58" stroke-opacity="1.00" stroke-linejoin="round"/>
<path d="M148.50,198.51 C148.50,198.51 147.80,198.49 147.80,198.49 C147.78,198.49 147.84,198.46 147.86,198.46 C148.79,198.39 151.56,198.56 152.50,198.63 C152.86,198.65 153.24,198.67 153.64,198.68" fill="none" stroke="rgb(0, 0, 255)" stroke-width="3.58" stroke-opacity="1.00" stroke-linejoin="round"/>
<path d="M158.74,198.01 C158.74,198.01 158.30,198.19 158.30,198.19 C158.31,198.21 161.32,197.98 163.61,199.22 C164.20,199.54 164.78,199.93 165.34,200.38 C165.52,200.52 165.72,200.72 165.96,200.98" fill="none" stroke="rgb(0, 0, 255)" stroke-width="3.58" stroke-opacity="1.00" stroke-linejoin="round"/>
<path d="M155.40,203.81 C155.40,203.81 155.59,203.61 155.59,203.61 C158.06,203.35 160.74,203.53 162.57,203.86 C162.99,203.93 163.36,204.04 163.68,204.19" fill="none" stroke="rgb(0, 0, 255)" stroke-width="3.58" stroke-opacity="1.00" stroke-linejoin="round"/>
<path d="M156.50,212.91 C156.50,212.91 155.98,211.89 155.98,211.89 C155.93,211.96 155.90,212.45 155.88,212.67 C155.84,213.26 155.56,216.43 155.62,217.02 C155.86,219.33 156.66,219.69 156.87,219.79" fill="none" stroke="rgb(0, 0, 255)" stroke-width="3.58" stroke-opacity="1.00" stroke-linejoin="round"/>
<path d="M162.51,212.48 C162.51,212.74 162.51,212.99 162.51,213.25 C162.51,214.64 162.51,218.35 162.50,219.09 C162.49,219.57 162.47,220.37 162.43,221.50" fill="none" stroke="rgb(0, 0, 255)" stroke-width="3.58" stroke-opacity="1.00" stroke-linejoin="round"/>
<path d="M150.62,219.87 C150.69,219.65 150.75,219.48 150.79,219.35 C150.84,219.23 150.94,218.99 151.10,218.63 C150.07,218.60 142.17,219.60 139.07,219.87 C131.03,220.60 121.38,223.06 116.29,224.40 C116.29,224.40 116.61,224.31 116.61,224.31" fill="none" stroke="rgb(0, 0, 255)" stroke-width="3.58" stroke-opacity="1.00" stroke-linejoin="round"/>
<path d="M117.55,224.43 C117.45,224.32 117.32,223.18 117.01,222.71 C115.05,219.75 112.46,218.53 111.95,218.77 C111.32,219.19 110.49,223.21 111.38,226.96 C111.90,229.07 114.36,231.17 115.56,230.86 C116.56,230.53 117.11,227.35 116.55,225.45 C115.36,221.56 113.83,219.73 113.28,219.18 C113.28,219.18 113.36,219.84 113.36,219.84" fill="none" stroke="rgb(0, 0, 255)" stroke-width="3.58" stroke-opacity="1.00" stroke-linejoin="round"/>
<path d="M118.80,232.89 C118.80,232.89 118.14,232.09 118.14,232.09 C123.90,231.61 144.47,229.64 145.85,229.41 C146.56,229.29 146.95,229.05 147.05,228.95" fill="none" stroke="rgb(0, 0, 255)" stroke-width="3.58" stroke-opacity="1.00" stroke-linejoin="round"/>
<path d="M149.48,225.81 C149.48,225.81 149.42,225.63 149.42,225.63 C148.29,226.55 145.49,239.15 145.19,243.28 C145.06,245.28 145.44,254.56 146.06,256.92 C146.14,257.20 147.22,257.67 150.53,257.13 C158.81,255.72 162.21,254.79 163.79,254.17 C164.27,253.98 164.88,253.68 165.62,253.28" fill="none" stroke="rgb(0, 0, 255)" stroke-width="3.58" stroke-opacity="1.00" stroke-linejoin="round"/>
<path d="M174.06,235.16 C174.06,235.16 174.50,233.42 174.50,233.42 C174.32,233.68 163.97,252.71 162.46,255.28 C161.89,256.24 161.52,256.80 161.41,256.91 C161.42,256.86 161.45,256.81 161.48,256.74 C161.65,256.33 161.83,255.92 162.01,255.51 C162.78,253.74 163.82,251.36 164.00,251.03" fill="none" stroke="rgb(0, 0, 255)" stroke-width="3.58" stroke-opacity="1.00" stroke-linejoin="round"/>
<path d="M166.34,223.51 C166.34,223.51 162.34,222.04 162.34,222.04 C162.70,222.03 184.01,224.37 187.88,225.10 C189.04,225.34 191.53,225.86 192.19,226.08 C193.54,226.56 195.44,227.47 196.24,227.97" fill="none" stroke="rgb(0, 0, 255)" stroke-width="3.58" stroke-opacity="1.00" stroke-linejoin="round"/>
<path d="M173.39,232.25 C173.39,232.25 172.35,232.28 172.35,232.28 C173.32,232.58 183.90,234.62 186.77,234.98 C188.41,235.18 189.86,235.28 191.65,235.33" fill="none" stroke="rgb(0, 0, 255)" stroke-width="3.58" stroke-opacity="1.00" stroke-linejoin="round"/>
<path d="M197.51,227.96 C197.51,227.96 197.06,226.75 197.06,226.75 C197.06,226.75 196.06,226.59 196.06,226.59 C194.58,227.62 193.04,230.22 192.54,232.79 C192.30,234.11 193.66,235.84 195.21,235.96 C196.91,236.04 200.24,234.53 200.98,232.96 C201.78,231.09 200.16,228.02 198.91,227.40 C196.89,226.50 195.93,227.53 195.83,227.73" fill="none" stroke="rgb(0, 0, 255)" stroke-width="3.58" stroke-opacity="1.00" stroke-linejoin="round"/>
<path d="M160.67,254.87 C160.67,254.87 160.54,254.84 160.54,254.84 C160.39,255.62 174.34,266.59 176.91,268.75 C181.42,272.56 190.08,281.21 195.11,286.04 C195.41,286.34 195.83,286.79 196.36,287.38" fill="none" stroke="rgb(0, 0, 255)" stroke-width="3.58" stroke-opacity="1.00" stroke-linejoin="round"/>
<path d="M138.73,257.84 C138.73,257.84 139.93,256.44 139.93,256.44 C139.04,256.84 129.61,268.52 127.42,270.92 C123.63,275.05 113.19,284.83 108.57,288.58 C104.67,291.73 95.05,297.33 93.45,298.68 C98.59,298.02 148.54,297.49 152.18,297.21 C160.26,296.59 174.85,296.66 179.63,296.15 C181.79,295.91 186.73,295.04 187.14,295.00 C187.14,295.00 187.41,292.41 187.41,292.41 C188.42,291.92 191.57,292.10 192.18,291.43 C192.84,290.59 192.45,287.39 191.41,285.69 C188.83,281.59 186.56,281.26 186.27,281.33" fill="none" stroke="rgb(0, 0, 255)" stroke-width="3.58" stroke-opacity="1.00" stroke-linejoin="round"/>
<path d="M141.30,296.00 C141.10,296.07 140.95,296.11 140.85,296.14 C140.75,296.16 140.56,296.20 140.29,296.25 C140.29,296.25 128.28,341.84 128.28,341.84 C128.28,341.84 129.04,340.24 129.04,340.24" fill="none" stroke="rgb(0, 0, 255)" stroke-width="3.58" stroke-opacity="1.00" stroke-linejoin="round"/>
<path d="M148.05,297.42 C148.05,297.42 147.62,296.71 147.62,296.71 C147.97,296.75 149.11,298.02 145.40,317.21 C142.42,332.42 139.00,346.12 138.94,346.39 C138.91,346.51 138.88,346.65 138.85,346.81" fill="none" stroke="rgb(0, 0, 255)" stroke-width="3.58" stroke-opacity="1.00" stroke-linejoin="round"/>
<path d="M128.98,344.00 C128.98,344.00 129.16,343.92 129.16,343.92 C129.16,343.92 129.25,343.70 129.25,343.70 C127.90,343.59 122.45,344.38 120.07,346.22 C118.00,347.85 117.62,350.41 118.27,350.96 C120.06,352.27 130.45,350.97 130.82,350.55 C131.26,349.62 129.75,346.25 128.41,345.42 C127.71,345.02 127.09,344.82 126.70,344.82 C126.70,344.82 126.60,344.99 126.60,344.99" fill="none" stroke="rgb(0, 0, 255)" stroke-width="3.58" stroke-opacity="1.00" stroke-linejoin="round"/>
<path d="M165.09,300.08 C165.08,299.91 165.08,299.77 165.09,299.64 C165.10,299.52 165.14,299.24 165.21,298.81 C165.40,298.96 165.57,315.61 166.02,319.52 C166.32,321.93 167.44,323.63 168.42,323.49 C170.15,323.22 177.80,320.90 180.63,320.28 C183.58,319.64 191.64,318.55 193.10,317.93 C194.27,317.41 194.34,316.10 194.24,315.67" fill="none" stroke="rgb(0, 0, 255)" stroke-width="3.58" stroke-opacity="1.00" stroke-linejoin="round"/>
<path d="M173.98,297.32 C173.98,297.32 172.92,297.11 172.92,297.11 C172.81,297.16 172.13,300.61 173.40,304.09 C174.27,306.37 177.52,309.29 179.71,309.96 C182.59,310.78 195.42,309.27 195.77,309.45 C196.97,311.25 194.89,316.00 194.10,316.46 C193.58,316.75 191.41,317.77 190.75,318.08 C190.75,318.08 190.80,318.19 190.80,318.19" fill="none" stroke="rgb(0, 0, 255)" stroke-width="3.58" stroke-opacity="1.00" stroke-linejoin="round"/>
<path d="M200.09,306.21 C200.09,306.21 200.23,304.97 200.23,304.97 C200.46,311.71 200.82,315.51 202.19,316.38 C203.28,317.01 206.07,317.04 206.77,316.56 C207.76,315.84 208.67,313.46 208.41,312.18 C208.10,310.84 206.13,308.92 203.43,306.95 C202.61,306.35 198.70,303.45 198.23,302.66 C198.23,302.66 198.25,302.59 198.25,302.59" fill="none" stroke="rgb(0, 0, 255)" stroke-width="3.58" stroke-opacity="1.00" stroke-linejoin="round"/>
</g>
</svg>
