<?xml version="1.0" encoding="UTF-8" standalone="no"?>
<!DOCTYPE svg PUBLIC "-//W3C//DTD SVG 1.1//EN" "http://www.w3.org/Graphics/SVG/1.1/DTD/svg11.dtd">
<svg width="128.40" height="181.68" viewBox="0.00 0.00 535.00 757.00" xmlns="http://www.w3.org/2000/svg" xmlns:xlink="http://www.w3.org/1999/xlink">
<g stroke-linecap="round" transform="translate(44.00, 155.00)" id="93-사람-1">
<path d="M284.58,193.61 C284.17,193.85 283.90,194.00 283.80,194.07 C283.26,194.42 278.73,198.78 277.73,200.52 C276.42,202.83 275.32,209.36 276.22,210.88 C277.18,212.36 284.54,214.63 286.44,215.00 C289.95,215.63 296.25,214.22 298.45,212.94 C300.22,211.86 302.33,209.57 302.86,208.11 C303.40,206.58 303.34,203.34 302.88,202.18 C302.34,200.91 299.37,197.97 296.29,196.42 C292.77,194.69 286.64,193.80 284.04,194.33 C283.08,194.54 281.58,195.08 280.18,195.65 C281.86,193.14 283.37,191.17 284.67,190.04 C286.18,188.76 289.08,187.23 290.97,186.75 C292.87,186.31 296.26,186.31 297.77,186.78 C300.17,187.59 306.06,191.98 307.18,193.45 C308.11,194.73 309.46,199.68 309.59,201.49 C309.65,202.37 309.10,209.01 309.63,210.71 C310.16,212.18 314.67,216.23 314.87,216.93 C315.01,217.53 314.27,218.48 313.26,218.71 C312.01,218.93 306.60,217.66 302.82,216.26 C301.55,215.79 300.52,215.27 300.44,215.13" fill="none" stroke="rgb(229, 0, 16)" stroke-width="3.58" stroke-opacity="1.00" stroke-linejoin="round"/>
<path d="M280.42,199.59 C280.42,199.59 280.37,199.05 280.37,199.05 C280.53,198.90 281.29,198.53 281.77,198.50 C282.43,198.45 284.28,199.33 284.82,199.60 C284.96,199.68 285.10,199.65 285.27,199.69" fill="none" stroke="rgb(229, 0, 16)" stroke-width="3.58" stroke-opacity="1.00" stroke-linejoin="round"/>
<path d="M291.39,200.75 C291.39,200.75 291.36,200.46 291.36,200.46 C292.15,200.33 293.13,200.45 293.85,200.85 C294.91,201.46 295.47,202.47 295.58,202.81" fill="none" stroke="rgb(229, 0, 16)" stroke-width="3.58" stroke-opacity="1.00" stroke-linejoin="round"/>
<path d="M285.41,206.58 C285.41,206.58 285.30,206.83 285.30,206.83 C285.30,206.83 285.40,206.61 285.40,206.61 C285.69,206.48 287.76,206.72 288.53,208.73 C289.01,210.09 288.51,211.12 288.05,211.62 C285.95,212.13 283.78,207.77 283.86,206.96 C283.94,206.37 284.34,205.96 284.93,205.75" fill="none" stroke="rgb(229, 0, 16)" stroke-width="3.58" stroke-opacity="1.00" stroke-linejoin="round"/>
<path d="M287.93,191.22 C287.77,191.12 287.61,191.08 287.45,191.11 C287.17,191.17 285.85,191.73 285.07,192.07 C285.07,192.07 291.32,190.24 291.32,190.24 C291.32,190.24 287.27,192.53 287.27,192.53 C287.95,192.51 289.67,192.09 290.32,191.92 C290.87,191.78 291.52,191.67 291.52,191.68" fill="none" stroke="rgb(229, 0, 16)" stroke-width="3.58" stroke-opacity="1.00" stroke-linejoin="round"/>
<path d="M293.23,191.71 C291.32,191.33 290.49,191.20 290.07,191.28 C288.62,191.58 286.72,192.68 286.57,192.93 C286.57,192.93 295.80,190.17 295.80,190.17 C295.80,190.17 287.54,192.18 287.54,192.18 C287.54,192.18 294.28,189.98 294.28,189.98 C294.28,189.98 288.26,190.74 288.26,190.74 C288.26,190.74 296.73,188.90 296.73,188.90 C296.73,188.90 288.74,188.37 288.74,188.37 C288.74,188.37 296.87,188.40 296.87,188.40 C296.87,188.40 292.49,190.41 292.49,190.41 C292.49,190.41 300.00,191.13 300.00,191.13 C300.00,191.13 293.42,191.72 293.42,191.72 C295.10,193.31 301.16,193.39 301.60,192.98 C301.60,192.98 295.46,191.33 295.46,191.33 C295.28,193.09 300.77,196.36 302.30,197.11 C302.30,197.11 296.27,193.57 296.27,193.57 C296.27,193.57 302.97,197.60 302.97,197.60 C302.97,197.60 295.73,194.80 295.73,194.80 C296.09,196.04 301.00,197.77 302.15,197.39 C302.32,195.97 294.29,190.10 294.26,189.67 C295.55,189.75 299.12,191.05 301.10,192.60 C302.76,193.93 304.57,196.71 305.02,198.33 C305.02,198.33 303.25,192.63 303.25,192.63 C303.25,192.63 304.84,204.59 304.84,204.59 C304.84,204.59 304.55,193.65 304.55,193.65 C305.52,192.83 307.69,207.00 307.91,206.74 C307.91,206.74 307.34,197.31 307.34,197.31 C306.10,197.71 308.56,208.78 309.22,209.81 C309.22,209.81 308.01,203.94 308.01,203.94 C308.01,203.94 305.60,211.74 305.60,211.74 C305.60,211.74 306.11,207.37 306.11,207.37 C304.89,207.47 303.99,211.41 304.45,212.20 C306.14,212.01 306.62,210.71 306.69,210.05 C305.89,209.43 305.30,209.37 304.70,210.00 C303.69,211.09 303.23,213.12 303.68,213.78 C304.78,213.33 304.77,211.77 304.06,211.16 C304.06,211.16 302.32,213.23 302.32,213.23 C302.32,213.23 303.37,213.83 303.37,213.83 C303.37,213.83 305.50,208.01 305.50,208.01 C305.50,208.01 303.42,212.58 303.42,212.58 C304.77,212.34 306.06,209.62 306.07,208.29 C305.20,208.10 304.60,208.41 304.05,209.52 C303.16,211.37 303.34,212.85 303.68,213.60 C305.33,214.90 307.53,212.40 307.42,212.06 C306.15,212.79 306.96,215.87 307.74,216.21 C308.23,215.12 308.27,214.58 307.78,214.24 C307.24,213.88 306.92,213.81 306.50,213.90 C307.07,216.77 310.48,216.90 310.92,216.80 C310.92,216.80 307.91,214.67 307.91,214.67 C307.91,214.67 311.53,216.60 311.53,216.60 C311.53,216.60 309.31,213.06 309.31,213.06 C309.31,213.06 312.31,214.90 312.31,214.90 C312.31,214.70 311.72,214.30 310.66,213.91 C310.31,213.78 309.57,213.54 308.44,213.17" fill="none" stroke="rgb(229, 0, 16)" stroke-width="3.58" stroke-opacity="1.00" stroke-linejoin="round"/>
<path d="M279.80,224.32 C279.80,224.32 279.64,223.46 279.64,223.46 C279.38,223.28 279.01,223.14 278.39,223.08 C275.98,222.81 272.50,220.50 271.00,218.53 C269.67,216.72 267.55,212.69 266.13,208.99 C264.87,205.63 263.76,198.67 263.43,197.24 C262.75,194.47 261.29,191.88 259.76,191.83 C258.94,191.86 257.18,193.24 256.22,194.99 C255.20,196.93 254.45,202.08 254.77,205.89 C254.86,206.82 255.92,211.37 257.11,213.80 C261.46,222.54 266.04,229.40 266.46,230.23 C266.99,231.27 268.44,235.12 268.74,235.83 C268.83,236.06 268.97,236.36 269.16,236.71" fill="none" stroke="rgb(229, 0, 16)" stroke-width="3.58" stroke-opacity="1.00" stroke-linejoin="round"/>
<path d="M266.84,233.67 C266.99,233.27 267.07,233.12 267.16,233.11 C267.22,233.10 267.29,233.09 267.39,233.07 C267.68,233.61 268.52,238.62 268.80,241.33 C269.57,249.11 269.82,251.09 270.70,252.29 C271.81,252.82 276.88,252.79 278.74,252.48 C281.42,251.99 284.05,250.05 285.08,248.48 C286.43,246.39 290.90,238.54 291.13,238.19 C291.32,237.91 291.64,237.47 292.10,236.87 C292.40,237.64 287.12,248.93 286.04,251.21 C285.55,252.23 285.28,252.67 285.23,252.63 C285.23,252.63 285.34,252.23 285.34,252.23" fill="none" stroke="rgb(229, 0, 16)" stroke-width="3.58" stroke-opacity="1.00" stroke-linejoin="round"/>
<path d="M282.38,215.74 C282.34,215.70 282.28,215.65 282.22,215.60 C281.78,215.22 281.46,214.99 281.24,214.90 C280.99,215.30 280.36,222.45 280.43,222.99 C280.63,224.25 281.65,224.26 281.74,224.23" fill="none" stroke="rgb(229, 0, 16)" stroke-width="3.58" stroke-opacity="1.00" stroke-linejoin="round"/>
<path d="M284.95,215.22 C284.95,215.22 285.02,215.23 285.02,215.23 C285.06,215.32 285.10,216.42 285.12,217.30 C285.31,220.21 285.60,225.70 285.29,226.14 C285.29,226.14 282.03,225.11 282.03,225.11 C281.79,225.93 281.94,226.42 282.69,226.66 C283.32,226.85 284.57,226.84 285.55,226.65 C286.35,226.49 287.46,226.00 288.95,225.23" fill="none" stroke="rgb(229, 0, 16)" stroke-width="3.58" stroke-opacity="1.00" stroke-linejoin="round"/>
<path d="M288.97,224.93 C288.97,224.93 288.08,225.74 288.08,225.74 C289.57,226.42 307.82,225.18 308.14,225.16 C308.43,225.14 308.99,225.11 309.83,225.08 C309.83,225.08 309.83,225.35 309.83,225.35 C309.83,225.35 309.75,225.44 309.75,225.44" fill="none" stroke="rgb(229, 0, 16)" stroke-width="3.58" stroke-opacity="1.00" stroke-linejoin="round"/>
<path d="M290.01,233.94 C290.01,233.94 289.95,233.91 289.95,233.91 C291.17,233.93 292.57,233.80 295.39,233.37 C302.33,232.32 316.41,230.86 321.18,230.15 C321.50,230.10 321.83,230.05 322.15,230.01 C322.15,230.01 322.19,229.96 322.19,229.96" fill="none" stroke="rgb(229, 0, 16)" stroke-width="3.58" stroke-opacity="1.00" stroke-linejoin="round"/>
<path d="M315.57,223.10 C315.57,223.10 315.40,223.34 315.40,223.34 C315.56,223.19 316.54,222.93 317.42,222.92 C319.77,222.92 321.33,224.28 321.46,225.30 C321.58,226.44 320.59,228.44 319.43,228.76 C318.29,229.04 316.07,228.14 315.54,227.30 C315.34,226.98 315.31,226.60 315.38,226.20" fill="none" stroke="rgb(229, 0, 16)" stroke-width="3.58" stroke-opacity="1.00" stroke-linejoin="round"/>
<path d="M270.91,252.58 C271.08,252.27 271.33,251.88 271.51,251.78 C271.71,251.67 272.19,251.62 272.25,251.65 C271.83,253.93 256.38,288.06 250.10,301.56 C246.42,309.17 236.17,325.58 235.83,327.42 C235.67,328.40 238.11,330.05 240.06,329.87 C242.03,329.65 244.38,328.30 245.31,327.59" fill="none" stroke="rgb(229, 0, 16)" stroke-width="3.58" stroke-opacity="1.00" stroke-linejoin="round"/>
<path d="M272.17,276.36 C273.27,275.22 274.47,273.93 274.74,273.50 C274.87,273.30 275.03,272.95 275.21,272.47 C273.65,274.94 267.19,288.32 263.87,295.23 C252.02,320.41 245.62,333.01 243.45,333.60 C243.08,333.46 242.79,333.12 242.63,332.62 C242.61,332.54 242.60,332.48 242.62,332.44" fill="none" stroke="rgb(229, 0, 16)" stroke-width="3.58" stroke-opacity="1.00" stroke-linejoin="round"/>
<path d="M238.43,330.12 C238.43,330.12 237.59,329.25 237.59,329.25 C237.59,329.25 236.61,329.12 236.61,329.12 C235.26,329.88 231.70,334.80 230.16,337.72 C228.44,341.09 228.51,342.99 228.86,343.70 C230.08,344.16 234.55,342.78 235.90,341.91 C237.18,341.03 238.84,338.47 240.12,335.47 C241.67,331.79 243.15,328.79 243.48,328.29" fill="none" stroke="rgb(229, 0, 16)" stroke-width="3.58" stroke-opacity="1.00" stroke-linejoin="round"/>
<path d="M273.58,274.19 C273.58,274.19 274.49,273.62 274.49,273.62 C274.49,273.62 274.62,273.65 274.62,273.65 C274.48,275.08 274.39,277.39 274.41,279.55 C274.50,289.18 279.53,313.00 280.42,313.58 C281.62,314.18 287.40,310.84 297.83,306.21 C300.66,304.95 306.41,302.33 307.16,301.79 C309.46,300.11 310.37,298.81 310.70,298.13" fill="none" stroke="rgb(229, 0, 16)" stroke-width="3.58" stroke-opacity="1.00" stroke-linejoin="round"/>
<path d="M283.97,254.26 C284.08,254.14 284.15,254.02 284.20,253.92 C284.25,253.82 284.34,253.59 284.47,253.22 C286.10,253.19 289.07,286.39 289.50,289.14 C289.96,291.94 291.31,295.09 292.42,295.63 C293.54,295.97 297.38,294.59 301.04,292.51 C303.97,290.85 312.69,285.88 313.59,285.49 C315.83,284.55 318.09,284.08 318.54,284.38 C318.59,284.42 318.65,284.51 318.73,284.64" fill="none" stroke="rgb(229, 0, 16)" stroke-width="3.58" stroke-opacity="1.00" stroke-linejoin="round"/>
<path d="M319.13,284.51 C319.13,284.51 319.03,284.70 319.03,284.70 C319.67,284.98 321.95,289.38 321.83,291.78 C321.40,298.28 316.75,301.64 316.38,301.65 C315.63,300.36 315.33,299.31 315.47,297.86 C315.76,294.78 316.55,289.89 317.40,285.95 C317.92,283.53 317.94,282.61 317.94,282.62" fill="none" stroke="rgb(229, 0, 16)" stroke-width="3.58" stroke-opacity="1.00" stroke-linejoin="round"/>
<path d="M260.68,193.46 C260.69,193.45 260.65,193.46 260.63,193.46 C258.10,194.53 256.57,200.33 256.90,200.91 C260.46,200.30 262.36,194.72 262.31,194.54 C260.60,194.75 257.80,197.87 256.91,200.00 C256.91,200.00 259.83,195.72 259.83,195.72 C259.48,195.32 258.60,195.88 257.19,197.65 C256.00,199.16 254.85,200.96 254.37,201.93 C254.37,201.93 254.52,201.82 254.52,201.82" fill="none" stroke="rgb(229, 0, 16)" stroke-width="3.58" stroke-opacity="1.00" stroke-linejoin="round"/>
</g>
</svg>
