<?xml version="1.0" encoding="UTF-8" standalone="no"?>
<!DOCTYPE svg PUBLIC "-//W3C//DTD SVG 1.1//EN" "http://www.w3.org/Graphics/SVG/1.1/DTD/svg11.dtd">
<svg width="128.40" height="181.68" viewBox="0.00 0.00 535.00 757.00" xmlns="http://www.w3.org/2000/svg" xmlns:xlink="http://www.w3.org/1999/xlink">
<g stroke-linecap="round" transform="translate(44.00, 155.00)" id="94-사람_">
<path d="M150.06,-3.41 C150.06,-3.41 148.94,-3.14 148.94,-3.14 C148.89,-3.12 149.06,-3.14 149.11,-3.16 C151.00,-3.76 154.09,-4.74 154.79,-4.87 C157.17,-5.30 176.53,-6.97 179.91,-7.37 C182.64,-7.63 201.05,-8.07 208.76,-8.11 C216.89,-8.41 234.37,-12.35 239.53,-12.71 C241.91,-12.85 252.34,-11.44 252.41,-11.73 C251.23,-9.66 250.61,-7.53 250.49,-4.77 C250.46,-4.04 249.89,4.84 249.91,6.97 C249.93,11.96 250.18,17.86 250.15,18.28 C250.04,19.69 249.62,21.26 249.23,21.95 C248.97,22.10 248.66,22.16 248.29,22.15 C247.92,22.13 246.99,22.01 245.48,21.78" fill="none" stroke="rgb(230, 0, 19)" stroke-width="5.39" stroke-opacity="1.00" stroke-linejoin="round"/>
<path d="M145.05,2.59 C145.44,2.10 146.03,1.87 147.38,1.82 C149.07,1.80 150.66,2.42 150.98,3.58 C151.45,5.42 149.98,13.05 149.84,15.31 C149.61,20.11 150.69,23.59 153.19,28.44 C153.86,29.76 154.24,31.64 153.94,32.51 C153.51,33.32 153.02,34.31 152.96,34.31 C152.73,34.31 152.10,34.36 151.09,34.45" fill="none" stroke="rgb(230, 0, 19)" stroke-width="5.39" stroke-opacity="1.00" stroke-linejoin="round"/>
<path d="M148.58,34.59 C148.58,34.59 148.61,34.72 148.61,34.72 C148.61,34.72 148.89,34.73 148.89,34.73 C148.64,34.70 143.98,33.45 141.95,34.26 C136.29,36.62 133.56,41.59 133.30,43.33 C133.97,44.67 135.26,45.76 136.97,46.02 C138.30,46.22 142.72,46.00 143.13,46.40 C142.49,47.34 140.68,49.04 140.04,49.75 C138.68,51.31 137.33,54.01 137.19,55.69 C136.95,59.41 138.41,62.48 139.46,63.81 C140.84,64.47 142.61,64.38 144.60,63.25 C146.16,62.36 148.31,60.59 149.48,59.42 C148.46,58.79 147.64,58.40 146.29,57.95 C144.95,57.50 140.01,55.08 139.39,55.08 C139.39,55.08 143.13,55.15 143.13,55.15 C143.13,55.15 142.84,60.28 142.84,60.28 C143.79,58.27 145.02,52.61 145.46,49.68 C145.56,49.00 145.65,48.32 145.75,47.65" fill="none" stroke="rgb(230, 0, 19)" stroke-width="5.39" stroke-opacity="1.00" stroke-linejoin="round"/>
<path d="M149.28,30.50 C149.28,30.50 151.59,27.44 151.59,27.44 C151.83,28.33 151.38,33.57 151.26,35.68 C151.04,39.80 151.34,44.67 152.16,48.40 C153.24,53.20 156.12,59.86 156.46,60.61 C156.90,61.61 167.36,95.89 167.56,96.50 C168.10,97.97 172.61,99.87 179.20,102.33 C181.78,103.29 186.79,105.15 190.10,107.32 C194.70,110.33 199.56,112.85 203.84,114.41 C207.69,115.78 211.25,116.85 213.44,117.07 C216.00,117.28 220.70,115.55 222.16,114.17 C223.48,112.88 226.31,107.82 226.81,106.95 C227.06,106.54 227.50,105.82 228.13,104.82" fill="none" stroke="rgb(230, 0, 19)" stroke-width="5.39" stroke-opacity="1.00" stroke-linejoin="round"/>
<path d="M249.25,6.19 C249.25,6.19 249.38,6.14 249.38,6.14 C249.50,6.33 249.53,7.10 249.48,9.19 C249.30,16.71 246.49,58.52 245.23,66.28 C244.47,70.65 242.96,79.09 242.13,81.42 C240.67,85.42 229.27,101.53 227.38,104.89 C226.02,107.44 223.55,111.92 223.19,112.21 C223.65,111.42 224.24,110.61 224.91,109.88 C225.02,109.76 225.10,109.67 225.17,109.62" fill="none" stroke="rgb(230, 0, 19)" stroke-width="5.39" stroke-opacity="1.00" stroke-linejoin="round"/>
<path d="M251.44,35.09 C251.44,35.09 251.83,36.35 251.83,36.35 C252.23,35.92 252.50,35.58 252.65,35.32 C252.91,34.85 254.11,31.55 254.45,30.99 C255.08,29.95 256.64,28.43 257.26,28.18 C257.86,27.98 258.93,28.16 259.38,28.59 C260.33,29.58 260.89,35.58 260.65,38.23 C260.35,41.20 259.60,45.98 258.73,50.64 C258.21,53.46 258.73,59.73 257.63,62.79 C256.48,65.88 253.56,70.03 252.11,70.41 C251.22,69.81 250.89,65.97 251.28,64.58 C251.31,64.50 251.33,64.40 251.36,64.29" fill="none" stroke="rgb(230, 0, 19)" stroke-width="5.39" stroke-opacity="1.00" stroke-linejoin="round"/>
<path d="M255.32,36.43 C255.32,36.43 255.59,36.44 255.59,36.44 C255.59,36.44 255.52,35.98 255.52,35.98 C255.52,35.98 251.26,42.74 251.26,42.74 C251.26,42.74 253.84,43.74 253.84,43.74 C253.84,43.74 252.49,49.22 252.49,49.22" fill="none" stroke="rgb(230, 0, 19)" stroke-width="5.39" stroke-opacity="1.00" stroke-linejoin="round"/>
<path d="M199.02,65.53 C199.01,65.13 199.01,64.85 199.02,64.69 C199.02,64.54 199.04,64.30 199.06,63.98 C200.25,65.13 201.62,66.76 202.15,67.87 C203.13,70.01 202.03,73.14 201.76,73.86 C204.59,73.89 206.11,73.68 207.74,72.87 C209.16,72.19 212.20,70.70 212.85,70.59 C213.28,70.52 214.24,70.49 215.73,70.51 C215.73,70.51 215.76,70.66 215.76,70.66" fill="none" stroke="rgb(230, 0, 19)" stroke-width="5.39" stroke-opacity="1.00" stroke-linejoin="round"/>
<path d="M192.52,84.18 C192.52,84.18 191.98,84.53 191.98,84.53 C191.98,84.53 191.74,85.36 191.74,85.36 C193.72,85.75 207.93,83.32 215.10,82.09 C220.50,81.29 222.10,81.64 224.38,82.35 C224.64,84.29 222.91,87.35 219.51,90.52 C216.96,92.84 213.99,94.93 211.17,96.41 C208.16,97.90 202.25,98.42 199.59,97.38 C197.20,96.36 193.52,94.06 191.29,92.14 C188.89,90.03 187.17,87.42 186.91,86.64 C188.36,87.19 193.01,90.28 195.65,91.80 C202.46,95.71 205.52,95.61 205.80,95.35 C205.85,93.71 195.48,89.71 192.06,88.61 C201.43,92.59 205.40,93.16 208.26,93.39 C207.85,92.15 207.16,91.35 205.56,90.52 C202.97,89.19 198.43,87.41 196.47,87.25 C203.22,89.74 207.23,88.98 207.90,88.62 C206.78,84.71 201.39,87.31 200.43,88.26 C200.11,89.50 200.26,90.83 201.05,91.71 C201.75,92.47 203.77,93.17 205.00,93.12 C210.58,92.72 211.10,87.92 210.95,86.94 C209.72,86.62 208.87,86.79 208.52,87.62 C208.25,88.29 208.41,89.62 208.87,90.12 C209.47,90.71 211.11,91.06 212.34,90.83 C218.25,89.59 219.41,85.56 219.33,84.72 C218.05,83.98 214.32,84.86 212.34,86.41 C211.39,87.17 210.73,88.16 210.31,89.19 C211.70,89.90 212.79,89.96 214.28,89.19 C216.73,87.91 220.99,84.67 221.09,83.91 C217.82,84.14 211.89,90.53 211.41,91.87 C216.53,89.16 218.90,84.68 219.12,83.77 C218.16,83.53 213.72,86.94 211.36,89.58 C208.74,92.55 208.22,94.50 208.44,95.18 C209.55,95.43 213.00,93.11 215.15,90.41 C217.50,87.39 218.17,85.27 218.17,84.28 C218.17,84.28 202.66,88.92 202.66,88.92 C202.66,88.92 218.30,85.01 218.30,85.01 C218.30,85.01 198.88,85.91 198.88,85.91 C198.88,85.91 216.30,82.61 216.30,82.61 C216.30,82.61 195.62,85.41 195.62,85.41 C195.62,85.41 205.41,90.77 205.41,90.77 C205.41,90.77 197.86,91.78 197.86,91.78 C198.94,92.93 199.80,93.47 201.21,93.76 C203.95,94.31 207.85,94.02 208.20,93.80 C206.33,93.92 202.67,94.20 201.97,94.17 C199.79,94.04 195.18,90.57 192.75,88.84 C190.30,87.10 189.56,86.44 189.75,86.22 C189.75,86.22 221.65,81.96 221.65,81.96 C220.01,83.33 213.61,85.31 210.27,85.99 C205.17,86.97 204.10,87.12 202.94,87.22" fill="none" stroke="rgb(230, 0, 19)" stroke-width="5.39" stroke-opacity="1.00" stroke-linejoin="round"/>
<path d="M212.51,9.09 C212.51,9.09 212.19,6.85 212.19,6.85 C212.19,6.85 207.80,9.56 207.80,9.56 C207.80,9.56 219.25,0.14 219.25,0.14 C219.25,0.14 208.80,11.61 208.80,11.61 C208.80,11.61 215.08,2.41 215.08,2.41 C215.08,2.41 211.58,7.81 211.58,7.81 C211.22,7.39 215.58,3.39 217.48,2.40 C219.62,1.34 222.43,0.73 224.01,1.13 C225.80,1.63 233.26,7.51 233.54,7.91 C231.00,7.49 229.12,6.83 226.68,5.37 C224.13,3.85 222.12,2.71 221.21,2.37 C219.59,1.81 217.53,3.19 213.44,6.51 C210.37,9.08 209.23,10.84 209.20,11.18 C212.15,10.08 215.16,7.16 217.45,5.20 C218.55,4.30 220.89,3.31 222.14,3.40 C223.71,3.57 229.75,8.92 231.53,10.50 C231.53,10.55 230.99,10.25 230.75,10.23 C230.61,10.21 228.20,10.36 225.55,10.46 C221.03,10.64 215.04,10.88 213.57,10.94" fill="none" stroke="rgb(230, 0, 19)" stroke-width="5.39" stroke-opacity="1.00" stroke-linejoin="round"/>
<path d="M159.46,16.23 C159.50,16.35 159.50,16.52 159.46,16.73 C159.41,16.94 159.27,17.50 159.02,18.39 C159.02,18.39 167.40,12.43 167.40,12.43 C167.40,12.43 160.33,21.50 160.33,21.50 C160.33,21.50 169.81,13.06 169.81,13.06 C169.81,13.06 163.66,17.07 163.66,17.07 C165.16,15.25 168.92,12.61 171.42,11.29 C172.76,10.61 175.77,9.66 177.16,9.58 C179.77,9.49 182.48,12.16 184.77,15.21 C185.68,16.49 186.34,17.53 186.27,17.52 C183.85,15.89 180.73,14.29 178.44,13.93 C173.28,13.21 168.71,15.66 166.58,16.97 C167.54,15.13 170.93,13.11 173.28,12.09 C174.54,11.59 177.45,11.17 178.91,11.42 C180.96,11.81 185.17,15.73 185.44,16.20 C183.82,15.87 177.91,13.66 177.24,14.22 C176.76,14.67 176.43,15.46 176.49,15.82" fill="none" stroke="rgb(230, 0, 19)" stroke-width="5.39" stroke-opacity="1.00" stroke-linejoin="round"/>
<path d="M172.39,29.44 C172.52,29.32 172.71,29.03 172.71,28.85 C172.71,28.77 172.67,28.63 172.58,28.41 C171.82,28.35 170.36,28.82 169.57,29.74 C168.37,31.14 167.84,33.40 168.07,35.04 C169.49,34.62 170.42,34.06 170.89,32.85 C171.78,30.56 172.16,28.33 171.90,27.57 C170.83,27.56 170.19,27.96 169.78,29.16 C169.06,31.39 169.43,34.70 170.82,35.59 C171.99,35.53 173.17,34.98 174.09,33.83 C176.02,31.36 175.91,28.97 175.46,28.13 C173.40,29.57 172.22,30.94 171.95,32.60 C171.68,34.21 172.08,35.55 172.92,36.63 C175.53,36.02 176.82,35.33 177.39,33.96 C178.50,31.20 177.65,29.17 176.91,28.29 C174.50,28.51 173.32,28.95 172.85,30.05 C171.92,32.31 172.79,33.95 173.56,34.64 C174.74,34.91 175.96,34.75 177.04,34.04 C179.11,32.64 179.83,30.31 179.83,29.02 C178.19,27.86 177.07,27.73 175.88,28.83 C173.68,30.90 173.11,33.09 173.17,34.56 C175.26,35.89 176.63,36.11 178.19,35.02 C181.31,32.82 182.26,30.43 182.33,29.27 C180.41,28.01 179.01,27.74 177.49,28.65 C174.59,30.45 173.21,33.40 172.76,35.20 C172.76,35.20 175.03,36.94 175.03,36.94 C176.58,35.94 178.15,34.49 178.95,33.08 C179.73,31.68 179.98,29.72 179.61,28.79 C179.36,28.31 177.92,27.69 177.06,27.82 C175.92,28.00 173.37,29.06 172.42,29.60 C173.76,28.02 177.11,26.39 179.86,26.11 C185.47,25.65 190.85,29.11 191.67,29.80 C191.67,29.80 178.54,25.68 178.54,25.68 C185.44,28.85 187.52,30.94 188.96,32.68 C188.96,32.68 183.72,28.38 183.72,28.38 C183.72,28.38 189.66,30.62 189.66,30.62 C188.84,31.38 180.43,32.96 178.23,34.41 C178.01,34.56 177.88,34.76 177.84,35.02 C177.84,35.02 185.67,32.17 185.67,32.17 C182.59,32.29 178.21,33.80 176.17,35.03 C174.54,36.05 172.29,38.95 171.82,39.63 C171.36,38.33 171.34,36.47 172.00,34.41 C172.28,33.55 175.09,26.66 175.42,25.66 C174.47,25.26 173.28,25.64 171.71,26.98 C168.00,30.20 164.71,37.43 165.30,37.88 C166.80,35.75 168.57,32.05 170.04,29.32 C170.79,27.98 172.71,25.80 174.09,24.88 C175.35,24.06 178.09,23.73 179.52,24.06 C181.14,24.51 185.60,28.16 186.78,29.13 C182.59,28.54 179.45,28.26 176.93,28.75 C176.20,28.91 173.66,29.86 173.03,30.37 C171.71,31.50 169.88,33.98 169.26,35.54 C168.70,37.06 168.98,38.96 169.97,39.57 C170.73,39.99 174.05,40.29 175.18,40.10 C177.95,39.56 181.63,35.64 182.71,33.61 C183.84,31.59 184.69,30.69 185.93,30.64 C186.53,30.63 189.81,31.33 191.42,31.66 C191.42,31.66 191.39,31.13 191.39,31.13" fill="none" stroke="rgb(230, 0, 19)" stroke-width="5.39" stroke-opacity="1.00" stroke-linejoin="round"/>
<path d="M219.36,19.19 C219.36,19.19 219.96,18.34 219.96,18.34 C219.86,18.05 216.00,16.18 213.62,19.82 C212.95,20.87 212.58,22.70 212.82,23.42 C213.14,24.11 214.99,25.27 216.44,25.47 C217.10,25.55 231.73,22.93 235.30,22.50 C231.93,21.85 225.20,20.62 221.84,20.04 C219.59,19.58 215.36,18.85 213.79,19.98 C213.50,20.19 213.00,20.68 212.28,21.44 C213.03,22.44 214.34,23.85 215.16,24.23 C216.54,24.85 224.34,24.39 226.13,23.96 C228.90,23.26 230.41,22.15 231.15,21.31 C230.78,19.57 230.15,18.66 228.69,18.22 C226.08,17.45 220.78,17.42 218.35,18.00 C217.16,18.29 216.43,18.74 215.74,19.46 C216.01,21.23 216.60,22.23 217.91,22.72 C220.26,23.57 225.38,24.28 229.26,24.17 C233.08,23.99 234.59,23.21 236.40,21.81 C235.36,19.74 234.39,18.77 232.56,18.33 C228.92,17.48 222.45,17.51 219.69,18.43 C218.21,18.96 216.32,20.25 215.62,21.17 C215.01,22.02 214.96,23.05 215.26,24.19 C216.30,25.14 217.54,25.84 219.00,26.08 C222.08,26.56 229.32,25.32 231.70,24.06 C232.90,23.41 233.65,22.46 233.90,21.58 C233.49,20.61 232.57,19.74 231.19,19.36 C224.01,17.44 219.88,20.64 219.28,21.56 C219.37,22.54 219.91,23.56 220.96,24.23 C223.03,25.52 228.24,25.91 230.65,25.06 C230.94,23.27 230.42,22.19 228.55,21.74 C219.68,19.69 215.23,23.72 214.92,24.59 C215.51,25.40 216.65,25.94 218.31,25.98 C221.00,26.02 226.50,24.34 228.15,23.01 C227.21,21.63 226.13,21.09 223.85,21.11 C219.78,21.16 216.96,21.99 215.58,22.63 C216.02,24.51 216.78,25.37 218.74,25.67 C223.03,26.30 228.38,25.45 229.88,24.07 C228.23,22.28 226.76,21.52 224.51,21.58 C222.33,21.64 220.73,21.95 219.22,22.50 C220.18,23.87 221.27,24.41 223.52,24.42 C227.45,24.41 229.26,23.65 230.10,22.97 C229.37,21.71 228.15,21.06 226.16,21.11 C220.04,21.27 216.82,23.51 215.48,24.72" fill="none" stroke="rgb(230, 0, 19)" stroke-width="5.39" stroke-opacity="1.00" stroke-linejoin="round"/>
<path d="M195.06,46.32 C195.11,46.32 195.19,46.24 195.28,46.08 C195.37,45.92 195.60,45.47 195.98,44.71 C195.98,44.71 197.27,47.39 197.27,47.39 C198.21,46.04 198.29,44.82 197.32,44.03 C197.13,43.87 196.81,43.72 196.36,43.57 C196.36,43.57 197.19,45.23 197.19,45.23 C197.19,45.23 196.88,43.07 196.88,43.07 C196.88,43.07 197.12,44.81 197.12,44.81" fill="none" stroke="rgb(230, 0, 19)" stroke-width="5.39" stroke-opacity="1.00" stroke-linejoin="round"/>
<path d="M181.57,113.08 C181.57,113.08 182.88,110.78 182.88,110.78 C182.88,110.78 183.23,110.76 183.23,110.76 C185.04,114.29 192.85,123.09 196.38,127.84 C197.78,129.72 207.01,142.21 208.24,143.05 C209.68,143.97 212.06,144.72 213.63,144.64 C215.24,144.50 217.79,143.27 218.89,142.01 C220.86,139.67 223.47,132.97 224.05,130.26 C225.03,125.52 224.93,113.26 224.51,110.10 C224.51,110.10 224.36,110.11 224.36,110.11 C224.36,110.11 224.23,110.52 224.23,110.52" fill="none" stroke="rgb(230, 0, 19)" stroke-width="5.39" stroke-opacity="1.00" stroke-linejoin="round"/>
<path d="M209.54,150.31 C209.54,150.31 210.05,148.00 210.05,148.00 C209.37,149.87 204.20,166.17 202.02,171.85 C200.13,176.60 197.28,181.93 196.11,182.62 C194.70,183.41 192.47,183.71 190.46,183.45 C189.39,183.29 185.33,182.88 184.71,182.75 C182.79,182.31 179.31,180.86 177.91,179.80 C176.54,178.70 174.73,176.24 174.37,174.82 C173.51,171.15 172.40,123.40 172.71,117.40 C172.98,112.55 173.90,106.69 173.90,106.69 C173.90,106.69 173.89,107.03 173.89,107.03" fill="none" stroke="rgb(230, 0, 19)" stroke-width="5.39" stroke-opacity="1.00" stroke-linejoin="round"/>
<path d="M209.40,148.54 C209.40,148.54 208.61,146.61 208.61,146.61 C208.62,146.73 208.82,147.08 209.57,148.30 C212.76,153.46 221.74,166.72 222.99,169.38 C224.37,172.43 228.06,188.81 228.80,190.24 C228.80,190.24 230.62,188.67 230.62,188.67" fill="none" stroke="rgb(230, 0, 19)" stroke-width="5.39" stroke-opacity="1.00" stroke-linejoin="round"/>
<path d="M231.94,113.50 C232.14,112.75 232.25,112.28 232.28,112.06 C232.30,111.91 232.19,111.11 232.21,110.87 C234.73,111.72 238.93,115.01 240.97,116.81 C246.63,121.90 259.24,136.59 261.30,138.65 C261.22,138.42 261.17,138.27 261.14,138.21 C261.12,138.14 261.08,138.08 261.03,138.01" fill="none" stroke="rgb(230, 0, 19)" stroke-width="5.39" stroke-opacity="1.00" stroke-linejoin="round"/>
<path d="M254.19,130.17 C254.19,130.17 254.06,129.68 254.06,129.68 C254.20,130.01 254.12,131.38 253.81,132.74 C253.56,133.87 246.70,149.80 243.77,156.18 C240.85,162.26 235.80,170.88 230.22,181.57 C227.37,187.18 224.84,193.23 224.33,194.04 C224.33,194.04 224.32,193.03 224.32,193.03" fill="none" stroke="rgb(230, 0, 19)" stroke-width="5.39" stroke-opacity="1.00" stroke-linejoin="round"/>
<path d="M158.73,111.81 C158.73,111.81 159.00,111.28 159.00,111.28" fill="none" stroke="rgb(230, 0, 19)" stroke-width="5.39" stroke-opacity="1.00" stroke-linejoin="round"/>
<path d="M160.63,108.92 C160.63,108.92 160.24,109.31 160.24,109.31 C160.24,109.31 160.21,109.17 160.21,109.17 C159.84,109.08 159.30,109.11 157.96,109.36 C153.10,110.26 136.66,114.77 132.55,117.42 C129.48,119.43 115.28,130.89 109.56,136.44 C105.77,140.19 102.63,143.78 101.26,146.40 C98.73,151.48 96.53,156.34 95.33,160.69 C95.00,161.92 92.96,171.58 92.60,175.24 C92.27,178.68 92.16,193.15 91.39,197.04 C91.39,197.04 91.59,197.12 91.59,197.12 C91.59,197.12 91.91,196.84 91.91,196.84" fill="none" stroke="rgb(230, 0, 19)" stroke-width="5.39" stroke-opacity="1.00" stroke-linejoin="round"/>
<path d="M111.04,161.83 C111.04,161.83 110.93,160.91 110.93,160.91 C110.83,160.89 107.25,162.82 102.82,169.49 C99.92,174.13 95.88,185.64 94.57,191.35 C93.77,194.87 91.70,213.23 91.45,217.69 C91.04,225.15 91.89,239.26 92.78,243.18 C93.89,247.87 98.60,256.52 100.63,264.89 C101.47,268.48 103.39,276.48 104.26,278.58 C104.67,279.56 106.33,281.51 107.53,282.70 C109.67,284.75 113.39,285.47 113.70,285.34" fill="none" stroke="rgb(230, 0, 19)" stroke-width="5.39" stroke-opacity="1.00" stroke-linejoin="round"/>
<path d="M157.81,210.36 C157.81,210.36 158.00,210.36 158.00,210.36 C158.30,210.16 158.47,209.60 158.64,207.96 C159.37,200.87 158.88,194.89 156.96,185.90 C155.95,181.37 154.41,177.16 152.82,174.11 C151.11,170.90 146.43,166.85 143.83,166.33 C142.19,166.06 140.16,167.14 138.99,168.78 C137.01,171.69 134.63,180.07 131.77,191.79 C128.54,204.39 126.92,211.33 126.44,217.00 C126.27,219.08 126.32,220.44 126.55,221.70 C126.55,221.70 127.36,222.29 127.36,222.29 C127.36,222.29 128.70,220.79 128.70,220.79" fill="none" stroke="rgb(230, 0, 19)" stroke-width="5.39" stroke-opacity="1.00" stroke-linejoin="round"/>
<path d="M143.40,161.97 C143.40,161.97 143.51,160.76 143.51,160.76 C143.51,160.76 142.46,160.45 142.46,160.45 C139.52,161.61 136.25,163.98 134.69,165.83 C131.79,169.35 127.60,180.63 126.02,188.21 C124.71,194.53 124.54,203.17 125.94,208.54 C128.01,216.57 129.07,233.31 128.94,237.26 C128.89,238.67 128.42,245.61 128.50,250.05 C128.86,262.34 130.18,273.43 130.52,278.34 C130.72,281.56 130.81,285.62 130.82,285.80" fill="none" stroke="rgb(230, 0, 19)" stroke-width="5.39" stroke-opacity="1.00" stroke-linejoin="round"/>
<path d="M103.91,288.70 C103.91,288.70 106.24,285.80 106.24,285.80 C106.29,287.60 100.69,334.56 100.57,336.45 C100.34,340.12 100.62,360.40 101.87,365.37 C103.17,370.36 112.83,393.09 115.19,395.69 C118.77,399.13 122.83,403.05 123.72,403.81 C123.72,403.81 125.04,400.98 125.04,400.98" fill="none" stroke="rgb(230, 0, 19)" stroke-width="5.39" stroke-opacity="1.00" stroke-linejoin="round"/>
<path d="M135.98,288.91 C135.22,290.40 134.21,296.05 133.62,299.23 C132.66,304.88 131.95,317.37 131.74,323.60 C131.60,331.50 131.87,343.70 132.31,348.75 C132.90,355.40 135.42,370.33 135.83,375.01 C136.15,378.88 134.58,395.88 134.55,396.07 C134.28,397.50 128.51,402.59 128.02,405.24 C127.85,406.35 128.47,408.33 129.17,409.21 C130.31,410.58 133.65,412.83 134.54,413.42 C134.75,413.56 135.00,413.71 135.29,413.88 C135.29,413.88 135.21,413.80 135.21,413.80" fill="none" stroke="rgb(230, 0, 19)" stroke-width="5.39" stroke-opacity="1.00" stroke-linejoin="round"/>
<path d="M214.82,216.15 C215.16,215.68 215.50,215.22 215.85,214.75 C215.97,214.58 216.03,214.48 216.02,214.44 C215.98,214.32 215.92,214.19 215.87,214.07 C215.87,214.07 204.02,216.64 204.02,216.64 C206.69,215.95 212.42,214.50 216.06,213.89 C219.71,213.30 221.53,213.77 222.51,214.40 C223.33,215.93 222.37,220.19 220.63,223.29 C218.81,226.43 213.94,231.04 211.60,231.80 C210.38,232.16 208.12,232.06 207.38,231.57 C206.48,230.90 205.77,228.68 205.97,226.94 C206.29,224.44 208.23,219.39 210.15,215.91 C211.45,213.56 212.75,212.33 214.82,211.25 C214.82,211.25 215.70,212.30 215.70,212.30" fill="none" stroke="rgb(230, 0, 19)" stroke-width="5.39" stroke-opacity="1.00" stroke-linejoin="round"/>
<path d="M213.48,251.05 C213.67,250.96 213.80,250.89 213.85,250.84 C214.01,250.70 214.55,248.77 214.65,248.80 C214.67,248.95 214.46,249.71 214.08,250.50 C214.06,250.54 209.68,259.41 208.21,263.71 C206.55,268.62 205.14,275.09 205.21,277.09 C205.27,278.14 206.11,279.48 206.90,279.88 C208.38,280.52 213.41,279.17 215.97,277.37 C218.53,275.52 221.65,271.32 222.52,268.86 C222.87,267.73 221.90,265.59 220.47,264.05 C220.14,263.71 213.90,260.37 208.32,257.30 C202.75,254.24 201.98,253.87 200.94,253.49 C200.94,253.49 200.99,253.76 200.99,253.76" fill="none" stroke="rgb(230, 0, 19)" stroke-width="5.39" stroke-opacity="1.00" stroke-linejoin="round"/>
<path d="M217.79,292.02 C217.79,291.13 217.95,289.84 217.92,289.38 C217.91,289.20 217.84,288.95 217.72,288.63 C216.66,288.32 213.56,290.59 210.77,293.35 C208.34,295.84 200.55,309.19 199.24,313.24 C198.84,314.53 198.39,317.14 198.51,318.24 C198.64,319.39 199.66,320.82 200.34,321.09 C201.71,321.52 206.08,320.40 208.44,318.88 C211.49,316.87 216.34,311.64 217.20,308.52 C217.63,306.79 217.13,303.33 216.21,301.83 C215.39,300.56 213.45,299.02 212.03,298.30 C209.28,297.02 206.49,296.90 205.72,297.16" fill="none" stroke="rgb(230, 0, 19)" stroke-width="5.39" stroke-opacity="1.00" stroke-linejoin="round"/>
<path d="M210.02,327.56 C210.02,327.56 210.77,327.94 210.77,327.94 C210.98,328.40 211.63,329.93 211.88,330.36 C212.30,331.08 213.52,333.18 213.59,334.19 C213.78,337.31 209.35,355.33 208.72,359.04 C207.57,365.86 207.40,378.80 208.22,384.90 C208.82,389.24 209.40,391.25 209.97,392.62 C209.97,392.62 210.65,390.83 210.65,390.83" fill="none" stroke="rgb(230, 0, 19)" stroke-width="5.39" stroke-opacity="1.00" stroke-linejoin="round"/>
<path d="M125.74,270.76 C126.30,270.44 127.06,269.70 127.38,269.47 C127.57,269.35 127.97,269.14 128.57,268.87 C129.69,269.07 132.37,272.50 133.83,275.05 C136.96,280.56 140.75,292.55 141.79,298.87 C144.02,312.66 145.06,336.71 146.54,354.81 C146.86,358.43 147.60,366.01 148.06,368.64 C148.86,373.10 151.07,380.90 150.85,382.49 C150.53,384.43 147.30,389.65 145.45,391.28 C144.89,391.76 144.24,392.28 143.50,392.83 C142.46,393.59 140.44,394.92 140.05,395.24 C138.27,396.65 137.44,398.03 137.38,399.44 C138.18,400.30 140.35,400.49 145.88,400.49 C146.68,400.48 167.53,399.78 175.67,399.47 C185.38,398.94 212.87,395.11 231.66,393.64 C269.52,391.11 300.76,392.80 303.35,392.61 C307.09,392.33 308.06,391.47 308.27,391.09 C308.27,391.09 308.22,390.72 308.22,390.72" fill="none" stroke="rgb(230, 0, 19)" stroke-width="5.39" stroke-opacity="1.00" stroke-linejoin="round"/>
<path d="M296.84,299.44 C296.93,299.14 296.98,298.86 296.98,298.60 C296.99,298.33 296.96,297.72 296.89,296.75 C296.89,296.75 295.86,296.12 295.86,296.12 C294.24,297.00 292.67,301.78 292.15,304.84 C291.50,308.91 291.03,315.16 291.68,318.31 C291.84,319.04 293.87,326.45 294.11,328.79 C294.45,332.30 294.93,349.15 295.26,355.35 C295.78,362.81 301.02,387.87 301.49,389.61 C301.49,389.61 302.07,384.71 302.07,384.71" fill="none" stroke="rgb(230, 0, 19)" stroke-width="5.39" stroke-opacity="1.00" stroke-linejoin="round"/>
<path d="M292.67,295.13 C292.86,294.51 292.94,294.06 292.91,293.77 C292.83,293.04 292.06,291.69 291.70,291.32 C294.16,292.30 295.33,293.85 297.68,299.20 C308.35,325.33 312.44,337.90 313.12,338.98 C313.12,338.98 313.28,336.10 313.28,336.10" fill="none" stroke="rgb(230, 0, 19)" stroke-width="5.39" stroke-opacity="1.00" stroke-linejoin="round"/>
<path d="M236.68,104.36 C236.14,104.27 234.42,103.75 234.33,103.75 C232.42,103.57 227.11,105.73 226.94,105.93 C230.38,105.71 239.93,105.09 241.99,104.91 C245.78,104.56 253.89,103.16 254.73,103.01" fill="none" stroke="rgb(230, 0, 19)" stroke-width="5.39" stroke-opacity="1.00" stroke-linejoin="round"/>
<path d="M287.76,100.40 C287.75,100.45 287.70,100.48 287.62,100.50 C286.93,100.72 286.56,100.98 285.92,101.71 C287.78,102.37 289.22,102.50 291.90,102.10 C299.35,101.02 303.65,100.52 306.94,100.46 C310.26,100.42 315.00,100.98 321.19,102.05 C325.25,102.81 328.77,104.42 331.04,106.19 C334.40,108.90 346.01,123.90 347.63,126.47 C350.79,131.59 355.59,148.33 356.81,154.34 C357.95,160.03 359.36,172.66 361.22,182.48 C362.24,188.00 361.78,200.72 361.59,206.45 C361.54,208.23 361.47,208.95 361.33,209.47 C361.33,209.47 361.09,207.24 361.09,207.24" fill="none" stroke="rgb(230, 0, 19)" stroke-width="5.39" stroke-opacity="1.00" stroke-linejoin="round"/>
<path d="M311.49,114.32 C311.49,114.32 311.31,114.41 311.31,114.41 C311.31,114.41 310.53,110.33 310.53,110.33 C310.53,110.33 311.04,110.25 311.04,110.25 C311.42,111.88 311.40,121.28 311.51,122.84 C311.78,126.74 313.70,132.72 315.03,135.30 C316.05,137.22 319.26,140.82 323.54,145.28 C326.40,148.31 328.44,151.69 330.02,155.16 C332.21,160.21 344.81,186.97 345.39,187.58 C345.39,187.58 344.63,183.57 344.63,183.57" fill="none" stroke="rgb(230, 0, 19)" stroke-width="5.39" stroke-opacity="1.00" stroke-linejoin="round"/>
<path d="M294.40,110.79 C294.40,110.79 293.48,109.69 293.48,109.69 C293.48,109.69 293.54,108.75 293.54,108.75 C294.56,108.53 295.38,108.91 296.44,110.31 C298.72,113.31 322.92,147.30 331.31,158.30 C335.05,163.20 338.38,169.51 340.47,174.03 C341.54,176.29 342.28,177.47 342.55,177.48" fill="none" stroke="rgb(230, 0, 19)" stroke-width="5.39" stroke-opacity="1.00" stroke-linejoin="round"/>
<path d="M356.85,214.07 C356.85,214.07 357.97,211.72 357.97,211.72 C357.97,211.72 359.46,211.57 359.46,211.57 C360.61,213.70 363.97,228.22 364.67,234.91 C365.29,241.10 364.96,254.24 363.74,263.87 C362.61,272.27 360.22,289.87 359.33,292.32 C357.45,297.42 351.81,310.71 349.61,317.80 C347.21,325.59 345.00,341.96 344.99,342.02 C343.56,346.83 338.57,361.47 338.00,361.81 C337.67,360.03 337.68,354.56 337.69,351.67 C337.69,351.30 337.70,350.93 337.70,350.56" fill="none" stroke="rgb(230, 0, 19)" stroke-width="5.39" stroke-opacity="1.00" stroke-linejoin="round"/>
<path d="M335.73,320.88 C335.77,320.19 335.82,319.67 335.87,319.33 C335.97,318.62 336.33,316.83 336.36,316.45 C335.90,323.04 334.80,340.85 334.88,345.11 C334.96,348.21 335.86,357.51 335.87,359.19 C335.88,361.21 333.09,379.74 332.81,386.00 C332.81,386.00 333.04,385.24 333.04,385.24" fill="none" stroke="rgb(230, 0, 19)" stroke-width="5.39" stroke-opacity="1.00" stroke-linejoin="round"/>
<path d="M303.09,397.60 C303.09,397.60 303.49,397.41 303.49,397.41 C303.49,397.41 303.51,396.99 303.51,396.99 C303.51,396.99 303.30,396.83 303.30,396.83 C302.13,397.08 301.68,400.24 301.69,406.62 C301.64,415.87 300.86,429.03 301.35,432.11 C303.20,442.19 304.53,456.01 305.54,460.00 C306.27,462.77 308.57,468.65 310.61,473.14 C312.62,477.62 313.44,480.21 314.14,484.31 C315.17,490.61 316.84,500.99 319.06,509.22 C321.35,517.34 326.25,534.83 326.45,537.94 C326.99,547.28 326.26,572.34 326.07,578.35 C326.07,578.35 325.33,574.10 325.33,574.10" fill="none" stroke="rgb(230, 0, 19)" stroke-width="5.39" stroke-opacity="1.00" stroke-linejoin="round"/>
<path d="M135.80,401.84 C135.80,401.84 134.26,401.42 134.26,401.42 C134.26,401.42 135.48,400.09 135.48,400.09 C134.65,403.78 133.92,408.70 133.74,412.35 C133.48,418.09 134.34,430.17 135.30,439.01 C136.37,447.09 143.47,484.93 145.08,495.57 C145.98,502.49 147.43,517.01 147.93,524.54 C148.25,532.39 149.20,550.96 149.75,556.25 C151.06,567.20 152.51,576.41 154.50,582.85 C155.99,587.62 157.14,591.05 158.10,591.92 C158.10,591.92 159.47,589.77 159.47,589.77" fill="none" stroke="rgb(230, 0, 19)" stroke-width="5.39" stroke-opacity="1.00" stroke-linejoin="round"/>
<path d="M208.78,453.05 C208.28,454.26 208.52,460.04 208.22,462.17 C208.14,462.73 206.19,471.26 205.87,474.77 C205.75,476.13 205.35,485.91 205.40,486.61 C205.59,489.32 206.11,491.01 206.75,491.31 C206.75,491.31 208.00,490.72 208.00,490.72" fill="none" stroke="rgb(230, 0, 19)" stroke-width="5.39" stroke-opacity="1.00" stroke-linejoin="round"/>
<path d="M219.09,451.90 C219.68,453.91 219.84,455.23 219.48,456.49 C218.55,459.75 211.52,477.84 210.21,481.94 C206.05,494.99 203.63,514.32 203.15,518.27 C203.15,518.27 206.62,507.82 206.62,507.82" fill="none" stroke="rgb(230, 0, 19)" stroke-width="5.39" stroke-opacity="1.00" stroke-linejoin="round"/>
<path d="M211.39,490.00 C211.38,489.94 211.40,490.12 211.40,490.17 C211.67,493.35 210.90,509.07 210.96,519.45 C211.38,534.27 213.78,562.29 213.86,564.91 C213.86,564.91 213.94,559.43 213.94,559.43" fill="none" stroke="rgb(230, 0, 19)" stroke-width="5.39" stroke-opacity="1.00" stroke-linejoin="round"/>
<path d="M212.66,466.26 C211.56,464.03 211.03,462.60 210.75,460.99 C210.46,459.38 210.37,458.46 210.35,457.43" fill="none" stroke="rgb(230, 0, 19)" stroke-width="5.39" stroke-opacity="1.00" stroke-linejoin="round"/>
<path d="M212.59,451.22 C212.78,451.05 212.92,450.91 213.03,450.78 C213.15,450.64 213.38,450.34 213.72,449.88 C216.18,450.97 217.43,451.89 218.33,453.57 C226.03,468.28 230.56,482.46 231.59,486.45 C232.11,488.51 232.98,489.98 234.89,492.37 C234.89,492.37 236.37,490.95 236.37,490.95" fill="none" stroke="rgb(230, 0, 19)" stroke-width="5.39" stroke-opacity="1.00" stroke-linejoin="round"/>
<path d="M238.38,440.69 C238.09,441.02 237.94,441.35 237.93,441.70 C238.10,455.53 237.23,484.72 237.97,501.62 C238.44,508.88 239.34,518.99 239.82,519.77 C239.82,519.77 241.48,517.46 241.48,517.46" fill="none" stroke="rgb(230, 0, 19)" stroke-width="5.39" stroke-opacity="1.00" stroke-linejoin="round"/>
<path d="M244.31,500.03 C244.30,500.27 244.33,500.56 244.38,500.89 C245.33,506.42 247.94,516.40 251.46,527.02 C256.65,542.40 270.65,584.66 270.73,584.88 C272.29,588.75 273.19,589.95 274.00,590.67 C274.00,590.67 274.34,590.14 274.34,590.14 C274.34,590.14 274.12,588.64 274.12,588.64" fill="none" stroke="rgb(230, 0, 19)" stroke-width="5.39" stroke-opacity="1.00" stroke-linejoin="round"/>
</g>
</svg>
