<?xml version="1.0" encoding="UTF-8" standalone="no"?>
<!DOCTYPE svg PUBLIC "-//W3C//DTD SVG 1.1//EN" "http://www.w3.org/Graphics/SVG/1.1/DTD/svg11.dtd">
<svg width="128.40" height="181.68" viewBox="0.00 0.00 535.00 757.00" xmlns="http://www.w3.org/2000/svg" xmlns:xlink="http://www.w3.org/1999/xlink">
<g stroke-linecap="round" transform="translate(44.00, 155.00)" id="94-비_">
<path d="M152.20,-116.76 C152.20,-116.76 152.47,-116.88 152.47,-116.88 C152.47,-116.88 152.82,-117.66 152.82,-117.66 C152.70,-117.88 149.43,-116.90 144.08,-112.57 C138.16,-107.66 126.42,-98.31 120.70,-93.82 C115.94,-90.00 106.82,-80.11 103.83,-76.16 C98.84,-69.51 92.48,-58.42 89.13,-51.20 C86.54,-45.53 83.34,-36.93 79.91,-26.31 C77.12,-17.35 74.74,-7.08 73.78,0.82 C73.31,4.73 72.77,12.41 72.71,14.09 C72.56,18.46 72.90,22.15 73.55,25.79" fill="none" stroke="rgb(0, 0, 255)" stroke-width="5.39" stroke-opacity="1.00" stroke-linejoin="round"/>
<path d="M125.21,-79.67 C125.74,-80.37 126.12,-80.90 126.33,-81.24 C126.55,-81.59 126.92,-82.25 127.44,-83.21 C127.44,-83.21 127.07,-83.40 127.07,-83.40 C124.36,-80.70 121.92,-76.87 120.21,-74.08 C113.36,-62.29 100.33,-37.80 95.70,-26.63 C92.28,-18.13 87.96,-6.07 85.95,1.30 C83.95,8.69 81.41,22.91 80.69,30.13 C79.13,46.09 80.81,61.57 80.93,62.61" fill="none" stroke="rgb(0, 0, 255)" stroke-width="5.39" stroke-opacity="1.00" stroke-linejoin="round"/>
<path d="M122.81,-45.34 C122.81,-45.34 121.95,-46.71 121.95,-46.71 C120.71,-46.96 117.97,-44.84 116.32,-42.61 C113.30,-38.46 107.56,-27.02 105.57,-21.65 C102.78,-14.09 98.88,-0.91 97.32,7.74 C95.74,16.98 95.69,28.43 96.10,33.65 C96.40,37.22 97.14,41.13 98.09,45.08" fill="none" stroke="rgb(0, 0, 255)" stroke-width="5.39" stroke-opacity="1.00" stroke-linejoin="round"/>
<path d="M147.68,-87.02 C147.68,-87.02 147.45,-90.49 147.45,-90.49 C146.65,-90.97 145.79,-91.24 144.98,-91.06 C143.04,-90.60 138.51,-86.39 136.74,-83.98 C133.53,-79.55 127.36,-66.77 125.21,-60.70 C122.72,-53.61 120.59,-39.86 120.70,-34.21 C120.74,-32.29 121.23,-30.53 122.14,-28.33" fill="none" stroke="rgb(0, 0, 255)" stroke-width="5.39" stroke-opacity="1.00" stroke-linejoin="round"/>
<path d="M169.93,-132.72 C169.93,-132.72 170.06,-132.76 170.06,-132.76 C166.91,-128.90 163.76,-125.16 161.69,-122.13 C158.23,-117.01 152.09,-105.59 147.61,-96.20 C144.87,-90.16 139.25,-77.52 137.73,-72.08 C136.38,-67.10 135.43,-62.38 135.17,-59.08 C134.95,-55.79 135.40,-54.36 136.24,-52.65" fill="none" stroke="rgb(0, 0, 255)" stroke-width="5.39" stroke-opacity="1.00" stroke-linejoin="round"/>
<path d="M172.26,-92.67 C172.26,-92.67 170.58,-93.80 170.58,-93.80 C168.58,-93.30 167.40,-92.68 166.28,-91.31 C162.85,-87.08 154.52,-72.91 152.34,-68.42 C144.69,-52.54 142.52,-42.35 142.28,-40.84" fill="none" stroke="rgb(0, 0, 255)" stroke-width="5.39" stroke-opacity="1.00" stroke-linejoin="round"/>
<path d="M194.51,-130.18 C194.51,-130.18 193.90,-131.37 193.90,-131.37 C192.15,-130.22 190.11,-126.94 188.60,-124.07 C183.74,-114.74 179.71,-106.47 176.94,-99.51 C175.53,-95.88 173.79,-89.89 173.22,-86.35 C172.70,-82.99 173.00,-81.07 173.47,-79.36 C173.47,-79.36 174.15,-78.82 174.15,-78.82" fill="none" stroke="rgb(0, 0, 255)" stroke-width="5.39" stroke-opacity="1.00" stroke-linejoin="round"/>
<path d="M213.66,-100.94 C211.45,-100.92 209.65,-100.36 207.75,-98.96 C203.85,-96.06 196.06,-86.15 192.68,-80.14 C190.66,-76.53 188.11,-70.91 186.41,-66.37 C184.88,-62.18 183.63,-57.10 183.16,-53.17 C182.30,-45.43 183.45,-42.77 183.65,-42.53" fill="none" stroke="rgb(0, 0, 255)" stroke-width="5.39" stroke-opacity="1.00" stroke-linejoin="round"/>
<path d="M265.87,-132.37 C263.92,-133.40 262.50,-133.74 261.24,-133.17 C258.95,-132.11 254.29,-128.09 251.86,-125.34 C247.57,-120.45 239.84,-109.58 237.17,-104.67 C235.66,-101.87 232.55,-95.37 231.73,-92.80 C229.75,-86.57 230.22,-78.31 231.11,-76.78" fill="none" stroke="rgb(0, 0, 255)" stroke-width="5.39" stroke-opacity="1.00" stroke-linejoin="round"/>
<path d="M265.37,-101.22 C265.37,-101.22 265.59,-102.05 265.59,-102.05 C263.83,-102.37 260.48,-100.93 255.00,-98.09 C249.31,-95.11 238.90,-87.48 234.45,-82.96 C229.93,-78.33 222.78,-68.48 220.09,-63.40 C217.88,-59.16 214.69,-49.89 214.27,-47.76 C214.10,-46.93 214.07,-45.95 214.11,-44.85" fill="none" stroke="rgb(0, 0, 255)" stroke-width="5.39" stroke-opacity="1.00" stroke-linejoin="round"/>
<path d="M287.91,-119.30 C286.17,-119.24 284.49,-117.29 281.08,-112.01 C264.67,-86.06 242.49,-50.67 240.80,-46.63 C239.58,-43.67 238.27,-39.15 238.53,-37.58 C238.53,-37.58 238.94,-37.16 238.94,-37.16" fill="none" stroke="rgb(0, 0, 255)" stroke-width="5.39" stroke-opacity="1.00" stroke-linejoin="round"/>
<path d="M308.82,-99.38 C308.82,-99.38 309.57,-100.31 309.57,-100.31 C306.83,-99.25 302.67,-96.61 300.24,-94.66 C294.55,-90.06 285.46,-80.94 280.23,-74.35 C269.59,-60.73 268.11,-51.80 268.24,-50.82" fill="none" stroke="rgb(0, 0, 255)" stroke-width="5.39" stroke-opacity="1.00" stroke-linejoin="round"/>
<path d="M322.88,-79.18 C322.88,-79.18 323.45,-82.19 323.45,-82.19 C320.87,-81.37 319.36,-80.67 317.88,-79.46 C312.45,-74.99 302.42,-64.12 299.47,-59.79 C295.06,-53.21 290.58,-42.52 290.49,-40.12" fill="none" stroke="rgb(0, 0, 255)" stroke-width="5.39" stroke-opacity="1.00" stroke-linejoin="round"/>
<path d="M305.92,-34.74 C304.45,-33.24 304.05,-31.86 304.49,-29.31 C306.68,-16.68 306.23,3.84 305.36,11.93 C304.49,19.28 303.00,28.14 302.77,29.44" fill="none" stroke="rgb(0, 0, 255)" stroke-width="5.39" stroke-opacity="1.00" stroke-linejoin="round"/>
<path d="M289.18,-30.79 C289.17,-31.59 289.12,-32.13 289.05,-32.41 C288.98,-32.68 288.78,-33.08 288.44,-33.60 C288.44,-33.60 287.73,-33.58 287.73,-33.58 C287.21,-31.19 287.11,-29.71 287.49,-27.58 C289.32,-16.83 290.39,-7.50 290.50,-2.16 C290.56,1.54 288.55,18.59 287.55,26.50 C287.27,28.47 286.79,31.69 286.61,32.92" fill="none" stroke="rgb(0, 0, 255)" stroke-width="5.39" stroke-opacity="1.00" stroke-linejoin="round"/>
<path d="M288.61,42.40 C287.54,44.57 287.07,45.79 286.44,48.26 C285.48,51.95 282.97,59.02 281.66,62.07 C278.33,69.80 275.07,74.90 274.49,75.70" fill="none" stroke="rgb(0, 0, 255)" stroke-width="5.39" stroke-opacity="1.00" stroke-linejoin="round"/>
<path d="M269.33,31.73 C269.33,31.73 269.40,30.47 269.40,30.47 C269.30,33.55 269.10,36.57 268.63,41.57 C268.24,45.35 267.41,53.33 266.96,57.52 C266.65,60.44 266.13,65.08 265.93,66.81" fill="none" stroke="rgb(0, 0, 255)" stroke-width="5.39" stroke-opacity="1.00" stroke-linejoin="round"/>
<path d="M111.65,-19.20 C111.65,-19.20 111.74,-19.22 111.74,-19.22 C111.17,-16.31 110.90,-14.86 110.55,-12.53 C109.56,-5.97 108.74,14.05 108.98,20.04 C109.27,26.90 110.96,38.80 111.90,42.13" fill="none" stroke="rgb(0, 0, 255)" stroke-width="5.39" stroke-opacity="1.00" stroke-linejoin="round"/>
<path d="M133.55,-23.23 C134.52,-26.75 136.56,-30.64 138.01,-32.63 C138.63,-33.47 140.45,-35.69 141.48,-36.90 C141.79,-37.26 142.26,-37.80 142.90,-38.52 C140.50,-35.35 134.50,-23.99 131.28,-15.96 C128.61,-9.12 123.33,5.33 120.80,12.68 C118.36,20.05 116.24,28.86 116.36,32.56 C116.36,32.56 116.94,33.08 116.94,33.08 C116.94,33.08 118.05,32.45 118.05,32.45" fill="none" stroke="rgb(0, 0, 255)" stroke-width="5.39" stroke-opacity="1.00" stroke-linejoin="round"/>
<path d="M165.27,-27.82 C165.27,-27.82 164.97,-29.87 164.97,-29.87 C164.00,-29.96 159.70,-25.36 156.84,-21.20 C153.15,-15.76 145.71,-2.83 141.86,4.74 C132.23,24.09 131.77,29.63 131.82,30.90 C131.82,30.90 133.26,29.51 133.26,29.51" fill="none" stroke="rgb(0, 0, 255)" stroke-width="5.39" stroke-opacity="1.00" stroke-linejoin="round"/>
<path d="M203.34,-51.49 C203.34,-51.49 203.99,-52.27 203.99,-52.27 C202.09,-49.66 194.23,-35.01 191.87,-29.34 C188.80,-21.91 185.01,-8.05 184.92,-3.38 C184.88,-0.97 185.18,1.03 185.66,2.09" fill="none" stroke="rgb(0, 0, 255)" stroke-width="5.39" stroke-opacity="1.00" stroke-linejoin="round"/>
<path d="M190.77,-53.46 C190.77,-53.46 191.03,-53.89 191.03,-53.89 C190.72,-54.03 189.56,-52.85 188.01,-50.73 C186.61,-48.82 177.36,-32.53 173.63,-25.86 C169.70,-18.64 162.48,-5.22 161.06,0.16 C160.02,4.26 160.01,5.47 160.26,6.66" fill="none" stroke="rgb(0, 0, 255)" stroke-width="5.39" stroke-opacity="1.00" stroke-linejoin="round"/>
<path d="M233.23,-57.70 C233.23,-57.70 233.88,-59.81 233.88,-59.81 C232.68,-59.63 229.07,-55.40 226.98,-52.10 C224.11,-47.49 218.48,-35.67 216.45,-30.13 C213.95,-23.26 211.79,-12.39 211.93,-6.01 C212.01,-3.15 212.66,1.10 213.74,3.87" fill="none" stroke="rgb(0, 0, 255)" stroke-width="5.39" stroke-opacity="1.00" stroke-linejoin="round"/>
<path d="M247.92,-49.30 C247.90,-49.44 247.86,-49.55 247.80,-49.64 C247.74,-49.72 247.58,-49.89 247.31,-50.14 C245.86,-50.20 242.04,-46.40 240.02,-42.94 C237.66,-38.76 233.45,-24.45 232.86,-18.70 C232.04,-10.48 232.49,-1.85 233.01,0.99" fill="none" stroke="rgb(0, 0, 255)" stroke-width="5.39" stroke-opacity="1.00" stroke-linejoin="round"/>
<path d="M256.47,-37.07 C256.47,-37.07 256.28,-37.81 256.28,-37.81 C256.28,-37.81 255.89,-37.92 255.89,-37.92 C258.96,-36.63 261.26,-34.17 262.20,-31.91 C263.11,-29.59 264.22,-23.78 264.33,-20.67 C264.49,-15.40 262.50,-1.51 260.98,4.86 C260.37,7.38 257.90,16.33 257.01,19.49" fill="none" stroke="rgb(0, 0, 255)" stroke-width="5.39" stroke-opacity="1.00" stroke-linejoin="round"/>
<path d="M109.88,55.96 C109.88,55.96 108.87,56.01 108.87,56.01 C107.54,56.96 106.02,61.98 105.26,66.38 C104.35,71.94 104.01,89.73 104.11,94.21 C104.30,101.06 105.78,111.22 106.55,114.06" fill="none" stroke="rgb(0, 0, 255)" stroke-width="5.39" stroke-opacity="1.00" stroke-linejoin="round"/>
<path d="M100.70,43.74 C100.70,43.74 100.29,39.26 100.29,39.26 C98.26,40.41 97.19,41.33 96.51,42.76 C94.27,47.59 91.20,58.38 90.18,65.31 C89.26,71.83 90.23,88.89 91.23,94.11 C91.74,96.69 92.90,99.38 93.38,100.28" fill="none" stroke="rgb(0, 0, 255)" stroke-width="5.39" stroke-opacity="1.00" stroke-linejoin="round"/>
<path d="M132.21,68.04 C132.21,68.04 130.78,68.24 130.78,68.24 C128.66,71.40 125.09,86.66 124.32,93.88 C123.66,100.24 123.71,116.45 124.40,122.43 C125.52,131.96 127.27,136.50 128.15,138.28" fill="none" stroke="rgb(0, 0, 255)" stroke-width="5.39" stroke-opacity="1.00" stroke-linejoin="round"/>
<path d="M147.39,82.60 C147.39,82.60 148.34,83.00 148.34,83.00" fill="none" stroke="rgb(0, 0, 255)" stroke-width="5.39" stroke-opacity="1.00" stroke-linejoin="round"/>
<path d="M148.24,77.16 C148.24,77.16 148.02,77.20 148.02,77.20 C147.67,77.76 147.45,78.50 146.93,81.07 C144.96,90.95 142.28,99.93 141.38,101.31 C139.87,103.49 137.90,104.96 136.48,104.63 C134.41,104.09 131.43,99.35 130.97,97.12" fill="none" stroke="rgb(0, 0, 255)" stroke-width="5.39" stroke-opacity="1.00" stroke-linejoin="round"/>
<path d="M138.28,85.70 C138.27,87.00 138.25,87.97 138.22,88.63 C138.13,91.71 138.31,93.78 138.91,95.20 C140.19,98.02 145.03,99.34 146.97,99.47" fill="none" stroke="rgb(0, 0, 255)" stroke-width="5.39" stroke-opacity="1.00" stroke-linejoin="round"/>
<path d="M321.46,-69.85 C318.50,-70.59 317.22,-70.74 316.65,-70.25 C315.26,-68.98 314.18,-65.37 313.68,-61.45 C313.30,-58.34 313.40,-51.55 313.83,-47.73 C314.16,-44.94 315.24,-38.59 315.46,-37.32" fill="none" stroke="rgb(0, 0, 255)" stroke-width="5.39" stroke-opacity="1.00" stroke-linejoin="round"/>
<path d="M314.40,-47.67 C314.40,-47.67 313.73,-48.18 313.73,-48.18 C314.50,-43.63 315.91,-39.32 317.47,-36.24 C322.25,-27.05 324.52,-20.85 325.92,-13.63 C326.32,-11.52 326.30,-4.81 326.12,-3.65 C325.54,0.11 319.98,20.30 317.70,28.33 C316.51,32.55 315.56,36.71 314.85,41.25 C314.85,41.25 315.02,41.37 315.02,41.37 C315.02,41.37 315.27,40.84 315.27,40.84" fill="none" stroke="rgb(0, 0, 255)" stroke-width="5.39" stroke-opacity="1.00" stroke-linejoin="round"/>
<path d="M334.81,-58.83 C334.99,-59.56 335.10,-60.07 335.15,-60.34 C335.19,-60.62 335.23,-61.05 335.26,-61.64 C335.26,-61.64 334.96,-61.55 334.96,-61.55 C334.16,-56.56 335.95,-40.30 336.92,-34.84 C338.23,-28.24 340.11,-18.93 340.68,-16.23" fill="none" stroke="rgb(0, 0, 255)" stroke-width="5.39" stroke-opacity="1.00" stroke-linejoin="round"/>
<path d="M341.46,-13.27 C341.14,-12.46 340.93,-11.87 340.81,-11.50 C339.75,-8.14 332.63,8.39 330.57,15.30 C329.04,20.58 326.15,32.35 324.30,42.00 C323.14,48.90 320.50,64.22 319.25,69.34 C315.62,84.07 308.69,94.28 305.76,98.06 C303.77,100.74 303.29,101.93 303.41,102.17" fill="none" stroke="rgb(0, 0, 255)" stroke-width="5.39" stroke-opacity="1.00" stroke-linejoin="round"/>
<path d="M300.69,58.01 C299.53,58.90 297.43,68.20 293.86,80.13 C292.89,83.40 291.59,89.32 291.03,92.85 C290.08,99.26 292.19,104.81 292.38,104.86" fill="none" stroke="rgb(0, 0, 255)" stroke-width="5.39" stroke-opacity="1.00" stroke-linejoin="round"/>
<path d="M271.73,78.43 C270.32,79.93 269.47,80.92 269.18,81.40 C268.74,82.14 268.68,84.66 268.65,85.58" fill="none" stroke="rgb(0, 0, 255)" stroke-width="5.39" stroke-opacity="1.00" stroke-linejoin="round"/>
<path d="M337.00,1.92 C337.00,1.92 337.94,0.27 337.94,0.27 C338.22,0.31 340.56,7.16 341.08,22.21 C341.26,27.87 340.20,39.18 338.85,47.29 C338.06,51.81 333.83,70.23 332.04,77.78 C331.72,79.04 331.20,81.06 331.01,81.81" fill="none" stroke="rgb(0, 0, 255)" stroke-width="5.39" stroke-opacity="1.00" stroke-linejoin="round"/>
</g>
</svg>
