<?xml version="1.0" encoding="UTF-8" standalone="no"?>
<!DOCTYPE svg PUBLIC "-//W3C//DTD SVG 1.1//EN" "http://www.w3.org/Graphics/SVG/1.1/DTD/svg11.dtd">
<svg width="128.40" height="181.68" viewBox="0.00 0.00 535.00 757.00" xmlns="http://www.w3.org/2000/svg" xmlns:xlink="http://www.w3.org/1999/xlink">
<g stroke-linecap="round" transform="translate(44.00, 155.00)" id="95-우산">
<path d="M121.04,54.18 C121.04,54.18 121.04,53.97 121.04,53.97 C120.57,53.96 118.56,52.66 118.17,51.36 C117.79,49.97 118.82,46.20 120.04,45.62 C121.31,45.08 123.80,47.15 124.36,48.56 C124.92,50.20 123.24,54.55 122.22,54.91 C121.04,54.19 120.72,51.32 120.96,49.92 C121.25,48.34 121.87,47.40 122.15,47.16 C122.15,47.16 119.47,52.10 119.47,52.10 C119.47,52.10 120.56,47.33 120.56,47.33 C117.93,48.52 119.99,51.06 120.51,51.35 C122.72,50.69 123.68,47.69 123.71,47.29 C123.34,47.16 121.74,52.62 122.08,53.91 C122.13,54.07 122.27,54.26 122.50,54.46 C122.50,54.46 123.55,52.64 123.55,52.64 C121.24,53.71 121.76,59.74 121.91,60.20 C121.17,61.77 107.33,59.62 104.81,60.26 C102.02,61.01 84.46,69.62 79.53,72.95 C72.09,78.02 62.02,84.23 56.16,87.74 C50.99,91.00 42.41,100.73 42.21,100.82 C42.11,100.86 41.93,100.92 41.66,100.99 C41.66,100.99 41.52,100.90 41.52,100.90 C41.58,100.81 41.65,100.57 41.76,100.42 C42.20,99.84 43.15,98.90 44.23,97.96" fill="none" stroke="rgb(230, 0, 19)" stroke-width="2.55" stroke-opacity="1.00" stroke-linejoin="round"/>
<path d="M117.26,60.31 C117.26,60.31 117.13,60.31 117.13,60.31 C117.72,61.96 120.41,64.41 122.99,65.86 C127.32,68.25 140.18,72.49 145.68,73.09 C146.86,73.21 162.55,74.19 172.43,75.86 C175.44,76.37 182.67,77.46 182.68,77.46 C185.69,78.00 190.10,79.73 190.70,80.60 C191.04,81.14 191.15,82.46 190.93,83.21 C189.81,86.55 180.08,90.92 179.58,91.07 C179.49,91.09 179.40,91.11 179.30,91.11" fill="none" stroke="rgb(230, 0, 19)" stroke-width="2.55" stroke-opacity="1.00" stroke-linejoin="round"/>
<path d="M61.41,95.97 C61.48,95.80 61.77,95.31 61.87,95.10 C61.93,94.98 62.03,94.75 62.18,94.41 C59.60,97.16 57.25,100.11 56.27,102.05 C55.19,104.21 54.40,106.40 53.75,108.92 C53.63,109.35 53.58,109.40 53.54,109.48" fill="none" stroke="rgb(230, 0, 19)" stroke-width="2.55" stroke-opacity="1.00" stroke-linejoin="round"/>
<path d="M90.89,79.16 C91.30,78.79 91.57,78.54 91.70,78.41 C91.82,78.28 91.96,78.08 92.12,77.83 C92.12,77.83 92.10,77.61 92.10,77.61 C90.95,76.79 83.20,85.11 79.68,89.90 C77.00,93.55 71.64,103.30 70.61,108.09 C70.32,109.45 70.42,110.44 70.64,110.71 C70.64,110.71 70.88,110.64 70.88,110.64" fill="none" stroke="rgb(230, 0, 19)" stroke-width="2.55" stroke-opacity="1.00" stroke-linejoin="round"/>
<path d="M44.74,100.09 C44.74,100.09 44.37,99.72 44.37,99.72 C44.17,99.77 44.04,99.82 43.96,99.84 C43.89,99.87 43.77,99.91 43.62,99.97 C43.62,99.97 43.07,99.71 43.07,99.71 C43.07,99.71 42.50,100.65 42.50,100.65 C43.19,100.26 50.20,102.25 52.03,103.31 C53.85,104.39 55.68,109.30 56.50,109.78 C56.65,109.86 56.95,109.93 57.40,109.98 C57.40,109.98 58.66,109.04 58.66,109.04 C59.26,109.04 65.80,107.48 69.53,108.07 C70.51,108.22 73.59,108.73 74.22,108.48 C74.38,108.41 74.54,108.23 74.69,107.94" fill="none" stroke="rgb(230, 0, 19)" stroke-width="2.55" stroke-opacity="1.00" stroke-linejoin="round"/>
<path d="M163.89,93.08 C163.68,93.26 163.54,93.39 163.46,93.45 C163.23,93.63 163.05,93.75 162.94,93.79 C162.88,93.82 162.80,93.82 162.71,93.79 C165.03,92.34 169.51,91.49 172.37,91.79 C175.23,92.10 180.61,90.83 181.33,90.66 C181.79,90.55 182.13,90.54 182.20,90.58" fill="none" stroke="rgb(230, 0, 19)" stroke-width="2.55" stroke-opacity="1.00" stroke-linejoin="round"/>
<path d="M139.18,95.73 C139.18,95.73 138.94,95.73 138.94,95.73 C138.94,95.73 139.00,96.14 139.00,96.14 C141.67,97.21 144.52,98.86 144.90,101.25 C144.94,101.59 143.84,120.50 143.39,126.43 C143.08,130.43 143.68,135.44 144.68,136.89 C145.17,137.51 146.46,137.96 147.34,137.76 C148.77,137.39 157.04,131.98 158.17,131.35 C161.16,129.70 165.43,128.98 168.37,129.26 C170.78,129.51 175.93,129.64 177.12,130.11 C177.42,130.23 178.72,131.00 179.23,131.28 C179.23,131.28 174.52,133.65 174.52,133.65 C174.29,133.61 172.31,131.25 170.60,131.23 C167.36,131.24 161.31,134.04 160.26,134.16 C159.59,134.23 151.27,134.34 148.03,135.48 C145.06,136.54 144.95,136.51 144.56,136.31 C143.87,135.63 143.52,120.56 143.38,112.73 C143.20,102.36 142.82,96.84 141.81,95.63 C141.05,94.76 138.31,93.89 138.30,93.87 C139.21,93.79 141.37,95.86 142.48,98.37 C143.59,101.00 145.04,106.10 145.29,109.32 C145.61,113.99 143.77,131.59 144.24,133.79 C144.43,134.58 145.11,135.22 145.83,135.38 C146.42,135.46 154.05,132.31 155.13,131.94 C157.49,131.14 162.17,130.56 164.52,130.73 C166.76,130.93 173.64,133.25 174.45,133.51 C174.85,133.64 175.24,133.70 175.62,133.69 C175.71,133.68 175.80,133.65 175.89,133.59" fill="none" stroke="rgb(230, 0, 19)" stroke-width="2.55" stroke-opacity="1.00" stroke-linejoin="round"/>
<path d="M74.69,107.61 C74.69,107.61 74.25,108.41 74.25,108.41 C74.25,108.41 74.63,108.36 74.63,108.36" fill="none" stroke="rgb(230, 0, 19)" stroke-width="2.55" stroke-opacity="1.00" stroke-linejoin="round"/>
<path d="M71.49,110.54 C71.49,110.54 70.64,110.74 70.64,110.74 C70.64,110.74 70.91,110.74 70.91,110.74" fill="none" stroke="rgb(230, 0, 19)" stroke-width="2.55" stroke-opacity="1.00" stroke-linejoin="round"/>
<path d="M87.93,90.77 C87.93,90.77 87.50,90.23 87.50,90.23" fill="none" stroke="rgb(230, 0, 19)" stroke-width="2.55" stroke-opacity="1.00" stroke-linejoin="round"/>
<path d="M90.24,89.64 C90.16,89.52 90.11,89.42 90.08,89.35 C90.06,89.27 90.02,89.12 89.98,88.89 C89.98,88.89 90.85,89.62 90.85,89.62" fill="none" stroke="rgb(230, 0, 19)" stroke-width="2.55" stroke-opacity="1.00" stroke-linejoin="round"/>
</g>
</svg>
