<?xml version="1.0" encoding="UTF-8" standalone="no"?>
<!DOCTYPE svg PUBLIC "-//W3C//DTD SVG 1.1//EN" "http://www.w3.org/Graphics/SVG/1.1/DTD/svg11.dtd">
<svg width="128.40" height="181.68" viewBox="0.00 0.00 535.00 757.00" xmlns="http://www.w3.org/2000/svg" xmlns:xlink="http://www.w3.org/1999/xlink">
<g stroke-linecap="round" transform="translate(44.00, 155.00)" id="96-사람">
<path d="M88.37,22.92 C88.37,22.92 88.17,23.51 88.17,23.51 C88.12,23.89 93.91,23.02 96.56,23.35 C100.14,23.83 106.64,26.05 109.37,27.77 C111.94,29.43 115.94,33.84 117.79,36.80 C119.44,39.47 122.19,45.88 122.66,47.67 C123.89,52.45 129.80,93.87 129.44,94.92 C128.89,96.38 127.30,98.32 126.17,98.91 C124.23,99.85 117.79,101.27 116.47,102.48 C115.90,103.03 112.53,107.47 110.56,111.18 C110.56,111.18 110.84,112.58 110.84,112.58 C113.53,113.55 118.85,113.06 122.02,112.76 C123.45,112.66 127.41,116.39 129.37,119.16 C131.01,121.58 132.47,125.49 133.02,130.19 C133.34,132.98 133.89,135.33 134.55,136.56 C134.98,137.32 141.49,144.14 142.34,144.64 C142.78,144.89 144.33,145.30 145.15,146.15 C145.23,146.24 145.43,147.12 145.33,147.41 C144.99,148.27 142.11,149.64 140.19,149.72 C138.65,149.76 136.98,148.81 136.89,148.05 C136.84,146.08 138.79,143.56 139.88,142.79 C140.19,143.68 140.38,144.22 140.44,144.38 C140.46,144.43 140.53,144.56 140.52,144.51" fill="none" stroke="rgb(229, 0, 80)" stroke-width="3.63" stroke-opacity="1.00" stroke-linejoin="round"/>
<path d="M138.74,145.76 C138.74,145.76 138.98,145.47 138.98,145.47 C138.98,145.47 138.47,144.70 138.47,144.70 C138.47,144.70 137.91,144.81 137.91,144.81 C137.12,146.86 136.69,148.56 136.83,149.69 C136.98,150.82 137.86,152.22 138.73,152.75 C139.47,153.15 142.35,153.49 143.86,153.41 C144.75,153.34 146.10,152.43 146.46,151.86 C146.87,151.11 146.99,149.39 146.69,148.59 C146.44,147.91 145.84,147.30 145.55,147.23" fill="none" stroke="rgb(229, 0, 80)" stroke-width="3.63" stroke-opacity="1.00" stroke-linejoin="round"/>
<path d="M140.42,152.91 C140.42,152.91 140.45,153.74 140.45,153.74 C140.45,153.74 140.70,153.82 140.70,153.82 C140.76,154.73 140.72,155.99 140.54,157.35 C140.17,160.09 138.13,164.67 137.97,165.69 C137.85,166.65 138.12,169.33 138.50,170.53 C139.39,173.23 143.16,176.05 145.90,177.21 C148.60,178.28 162.36,180.75 166.67,180.29 C169.01,180.03 180.06,177.97 181.16,177.80 C183.62,177.45 191.53,177.61 192.26,178.24 C192.83,178.75 192.71,184.47 193.68,187.61 C194.16,189.25 194.12,190.72 193.41,191.79 C193.33,191.92 186.09,201.49 185.14,202.91 C183.01,206.15 180.36,212.20 179.58,214.79 C178.89,217.19 179.68,221.80 180.83,224.43 C182.19,227.49 184.71,231.20 186.61,233.51 C192.13,240.16 195.81,242.01 196.23,242.08 C196.23,242.08 196.41,241.53 196.41,241.53" fill="none" stroke="rgb(229, 0, 80)" stroke-width="3.63" stroke-opacity="1.00" stroke-linejoin="round"/>
<path d="M190.58,231.20 C190.58,231.20 190.65,230.63 190.65,230.63 C190.65,230.57 190.30,231.85 190.02,232.94 C188.54,238.58 183.64,250.82 179.02,258.13 C177.05,261.21 163.10,278.87 161.84,280.00 C161.84,280.00 161.49,280.02 161.49,280.02 C161.49,280.02 161.59,279.34 161.59,279.34" fill="none" stroke="rgb(229, 0, 80)" stroke-width="3.63" stroke-opacity="1.00" stroke-linejoin="round"/>
<path d="M214.50,116.97 C215.78,115.23 216.58,114.18 216.87,113.82 C217.58,112.96 218.69,112.49 219.64,112.42 C220.79,112.39 222.86,112.73 223.97,113.17 C225.14,113.68 226.38,115.15 226.54,116.36 C226.66,117.50 226.11,121.21 225.66,122.67 C224.99,124.70 221.23,128.61 219.50,131.46 C217.71,134.45 217.39,136.06 217.56,136.48 C217.56,136.48 218.55,136.83 218.55,136.83" fill="none" stroke="rgb(229, 0, 80)" stroke-width="3.63" stroke-opacity="1.00" stroke-linejoin="round"/>
<path d="M220.88,133.32 C220.90,133.32 220.92,133.32 220.94,133.32 C220.97,133.32 220.93,133.23 220.83,133.02 C220.83,133.13 224.67,136.03 225.04,137.69 C225.12,138.07 225.16,138.87 225.14,140.07 C224.17,141.29 222.73,142.15 221.27,142.08 C220.00,142.02 218.71,141.33 218.36,140.76 C218.36,140.76 218.37,140.47 218.37,140.47" fill="none" stroke="rgb(229, 0, 80)" stroke-width="3.63" stroke-opacity="1.00" stroke-linejoin="round"/>
<path d="M138.38,89.05 C138.38,89.05 138.11,87.97 138.11,87.97 C138.11,87.97 138.45,88.13 138.45,88.13 C138.71,88.04 142.13,84.13 143.72,83.12 C145.16,82.24 150.17,80.69 153.43,80.65 C154.91,80.63 155.98,81.06 156.47,81.58 C156.47,81.58 156.27,82.58 156.27,82.58" fill="none" stroke="rgb(229, 0, 80)" stroke-width="3.63" stroke-opacity="1.00" stroke-linejoin="round"/>
<path d="M145.89,94.60 C145.89,94.60 146.48,93.53 146.48,93.53 C146.48,93.53 144.08,95.78 144.08,95.78 C144.86,96.70 145.59,97.00 146.60,96.61 C148.74,95.75 149.94,94.23 150.32,93.36 C149.46,92.39 148.75,92.03 148.03,92.63 C146.76,93.70 146.11,94.87 146.32,95.48 C147.70,95.85 148.62,95.76 149.41,95.01 C150.20,94.26 150.62,93.49 150.77,92.71 C149.81,91.96 148.15,92.41 146.90,93.95 C146.65,94.25 146.49,94.65 146.42,95.16 C147.23,96.19 148.81,96.23 150.27,95.06 C150.55,94.83 150.78,94.48 150.95,94.01 C150.95,94.01 150.13,92.88 150.13,92.88 C148.49,92.94 147.49,95.11 147.64,96.09 C147.64,96.09 149.39,95.72 149.39,95.72" fill="none" stroke="rgb(229, 0, 80)" stroke-width="3.63" stroke-opacity="1.00" stroke-linejoin="round"/>
<path d="M143.08,90.25 C143.08,90.25 143.56,88.42 143.56,88.42 C143.56,88.42 144.21,88.10 144.21,88.10 C144.21,88.10 147.04,92.26 147.04,92.26 C147.04,92.26 148.01,92.21 148.01,92.21 C148.01,92.21 148.26,91.81 148.26,91.81" fill="none" stroke="rgb(229, 0, 80)" stroke-width="3.63" stroke-opacity="1.00" stroke-linejoin="round"/>
<path d="M147.64,87.93 C147.64,87.93 147.97,87.68 147.97,87.68 C147.97,87.68 148.24,87.71 148.24,87.71 C148.24,87.71 149.60,92.72 149.60,92.72 C150.00,92.50 150.23,92.35 150.31,92.29 C150.39,92.23 150.41,92.16 150.37,92.10" fill="none" stroke="rgb(229, 0, 80)" stroke-width="3.63" stroke-opacity="1.00" stroke-linejoin="round"/>
<path d="M150.38,86.82 C150.32,86.96 150.27,87.24 150.25,87.66 C150.12,89.48 150.10,90.73 150.16,91.44 C150.21,91.89 150.38,92.24 150.68,92.49 C150.68,92.49 151.25,92.70 151.25,92.70" fill="none" stroke="rgb(229, 0, 80)" stroke-width="3.63" stroke-opacity="1.00" stroke-linejoin="round"/>
<path d="M154.44,88.35 C154.44,88.35 154.86,87.99 154.86,87.99 C154.86,87.99 154.96,88.35 154.96,88.35 C154.96,88.35 150.73,94.98 150.73,94.98 C150.73,94.98 151.75,96.05 151.75,96.05" fill="none" stroke="rgb(229, 0, 80)" stroke-width="3.63" stroke-opacity="1.00" stroke-linejoin="round"/>
<path d="M107.72,27.67 C107.72,27.70 107.72,27.61 107.72,27.57 C107.78,26.27 107.57,24.56 107.61,23.94 C107.70,22.68 110.38,17.65 112.50,14.71 C116.58,9.15 128.74,-1.37 133.80,-4.27 C134.55,-4.68 136.44,-5.32 137.25,-5.35 C140.03,-5.42 140.58,-3.50 140.62,-2.92" fill="none" stroke="rgb(229, 0, 80)" stroke-width="3.63" stroke-opacity="1.00" stroke-linejoin="round"/>
<path d="M111.93,28.72 C111.93,28.72 110.53,28.16 110.53,28.16 C110.46,26.76 110.84,25.57 112.11,24.06 C116.41,18.97 127.35,11.03 134.39,7.07 C140.87,3.44 155.98,-3.83 159.40,-4.84 C161.36,-5.40 164.72,-5.98 166.04,-5.88 C169.73,-5.56 170.70,-3.96 170.80,-3.65" fill="none" stroke="rgb(229, 0, 80)" stroke-width="3.63" stroke-opacity="1.00" stroke-linejoin="round"/>
<path d="M115.72,41.56 C115.72,41.56 115.38,41.53 115.38,41.53 C114.64,40.78 115.40,37.12 117.58,34.19 C119.86,31.19 129.16,23.50 135.34,19.66 C143.73,14.52 153.26,9.20 161.07,5.46 C170.29,1.18 179.10,-2.47 185.04,-3.91 C187.58,-4.51 191.71,-4.91 192.45,-4.44 C192.45,-4.44 192.54,-4.21 192.54,-4.21" fill="none" stroke="rgb(229, 0, 80)" stroke-width="3.63" stroke-opacity="1.00" stroke-linejoin="round"/>
<path d="M128.28,46.68 C127.98,46.04 127.76,44.75 128.21,43.88 C129.42,41.61 134.22,37.61 137.24,35.55 C145.98,29.70 156.52,23.28 162.49,19.84 C169.11,16.21 182.05,9.30 188.03,6.36 C193.99,3.59 208.27,-2.15 212.65,-2.90 C215.67,-3.39 217.81,-3.23 218.96,-2.97 C218.96,-2.97 219.35,-2.40 219.35,-2.40 C219.35,-2.40 219.30,-2.08 219.30,-2.08" fill="none" stroke="rgb(229, 0, 80)" stroke-width="3.63" stroke-opacity="1.00" stroke-linejoin="round"/>
<path d="M141.82,41.56 C141.82,41.56 141.59,41.13 141.59,41.13 C142.53,39.05 146.04,36.03 148.86,34.25 C154.96,30.44 166.36,24.75 174.57,21.26 C180.39,18.93 191.64,14.78 200.97,11.83 C217.25,6.94 230.90,5.82 233.03,5.97 C235.07,6.12 236.43,6.57 237.18,7.21" fill="none" stroke="rgb(229, 0, 80)" stroke-width="3.63" stroke-opacity="1.00" stroke-linejoin="round"/>
<path d="M144.69,47.24 C144.69,47.24 143.84,47.17 143.84,47.17 C145.55,45.48 157.93,38.30 165.54,34.92 C173.86,31.32 181.93,28.32 190.16,25.67 C198.98,22.98 211.34,19.92 215.56,19.09 C222.41,17.85 235.21,15.81 240.14,15.53 C247.87,15.18 259.78,16.13 262.10,16.85 C262.37,16.93 262.95,17.15 263.85,17.49" fill="none" stroke="rgb(229, 0, 80)" stroke-width="3.63" stroke-opacity="1.00" stroke-linejoin="round"/>
<path d="M116.35,80.85 C116.35,80.85 116.31,81.12 116.31,81.12 C116.31,81.12 116.49,81.33 116.49,81.33 C117.93,80.04 127.58,69.59 133.27,65.19 C137.63,61.83 149.75,53.65 156.69,49.70 C165.01,45.18 175.27,40.17 182.97,36.89 C199.45,30.08 217.13,24.82 223.68,23.37 C226.68,22.72 230.95,22.05 231.82,21.92" fill="none" stroke="rgb(229, 0, 80)" stroke-width="3.63" stroke-opacity="1.00" stroke-linejoin="round"/>
<path d="M140.06,74.95 C140.06,74.95 138.93,75.53 138.93,75.53 C144.26,71.37 157.25,61.43 161.58,58.66 C164.18,57.01 178.12,49.07 184.23,45.83 C190.57,42.68 203.57,36.60 210.31,33.70 C215.42,31.60 234.28,24.63 237.87,23.82 C241.75,22.97 248.18,22.93 248.87,23.91 C248.96,24.06 249.07,24.40 249.19,24.94" fill="none" stroke="rgb(229, 0, 80)" stroke-width="3.63" stroke-opacity="1.00" stroke-linejoin="round"/>
<path d="M173.60,62.82 C173.60,62.82 173.50,62.88 173.50,62.88 C192.40,50.67 210.24,40.28 224.20,34.41 C229.83,32.06 247.19,26.29 251.48,25.62 C252.94,25.39 253.55,25.37 254.38,25.44" fill="none" stroke="rgb(229, 0, 80)" stroke-width="3.63" stroke-opacity="1.00" stroke-linejoin="round"/>
<path d="M207.06,44.44 C207.06,44.44 205.60,44.86 205.60,44.86 C214.09,44.94 223.29,46.48 227.72,48.71 C230.43,50.10 234.22,53.29 235.50,55.06 C237.51,57.95 237.74,61.61 237.42,62.59 C237.42,62.59 237.09,62.85 237.09,62.85" fill="none" stroke="rgb(229, 0, 80)" stroke-width="3.63" stroke-opacity="1.00" stroke-linejoin="round"/>
<path d="M209.87,46.40 C209.87,46.40 208.77,45.19 208.77,45.19 C210.41,45.20 214.72,47.94 216.92,49.89 C219.36,52.10 223.52,57.11 225.28,60.12 C226.79,62.74 229.87,69.87 231.09,74.28 C233.15,81.81 235.18,94.03 234.48,96.30 C234.48,96.30 233.85,96.17 233.85,96.17 C233.85,96.17 233.54,95.80 233.54,95.80" fill="none" stroke="rgb(229, 0, 80)" stroke-width="3.63" stroke-opacity="1.00" stroke-linejoin="round"/>
<path d="M203.97,59.73 C203.97,59.73 202.60,57.71 202.60,57.71 C208.88,65.23 215.05,73.14 217.77,77.74 C221.19,83.58 226.37,96.22 228.12,103.83 C228.76,106.64 229.00,107.50 229.59,109.17 C229.73,108.95 229.82,108.81 229.85,108.73 C229.88,108.66 229.91,108.55 229.94,108.42" fill="none" stroke="rgb(229, 0, 80)" stroke-width="3.63" stroke-opacity="1.00" stroke-linejoin="round"/>
<path d="M225.09,74.18 C225.09,74.18 223.41,69.03 223.41,69.03 C225.79,73.56 229.35,85.76 231.55,95.39 C231.97,97.36 232.53,100.35 232.79,101.79 C233.17,104.01 233.54,106.24 233.53,106.24 C233.51,105.96 233.52,105.68 233.57,105.41 C233.94,103.47 236.43,97.58 237.58,94.84" fill="none" stroke="rgb(229, 0, 80)" stroke-width="3.63" stroke-opacity="1.00" stroke-linejoin="round"/>
<path d="M233.30,78.46 C233.30,78.46 233.36,78.43 233.36,78.43 C233.39,78.15 233.44,76.73 233.52,76.41 C233.99,74.59 237.50,69.82 239.40,68.42 C240.51,67.65 242.29,67.31 243.19,67.73 C244.71,68.54 246.26,72.43 247.32,76.94 C247.52,77.86 250.33,94.79 251.13,95.82 C251.37,95.75 252.17,94.15 252.51,93.72 C253.53,92.46 259.53,92.28 263.65,92.65 C266.21,92.91 268.94,93.54 270.15,94.27 C271.41,95.09 272.54,97.49 272.36,99.08 C271.97,101.81 267.67,109.67 265.95,112.21 C265.02,113.55 263.49,115.77 262.88,116.64" fill="none" stroke="rgb(229, 0, 80)" stroke-width="3.63" stroke-opacity="1.00" stroke-linejoin="round"/>
<path d="M253.43,122.31 C253.43,122.31 253.57,123.00 253.57,123.00 C254.22,123.32 258.45,123.28 260.64,124.59 C262.81,125.94 266.55,130.90 267.67,134.37 C268.85,138.21 268.76,142.38 268.10,147.80 C267.82,150.06 267.18,155.05 267.09,155.72 C266.93,156.72 266.77,157.73 266.62,158.74" fill="none" stroke="rgb(229, 0, 80)" stroke-width="3.63" stroke-opacity="1.00" stroke-linejoin="round"/>
<path d="M242.77,130.79 C242.77,130.79 241.61,131.23 241.61,131.23 C250.77,137.00 258.41,142.90 259.30,144.16 C260.61,146.11 260.82,148.32 260.06,151.02 C259.44,153.22 259.52,156.34 260.51,157.64 C260.69,157.86 264.27,160.86 264.96,161.82 C266.39,163.86 266.86,169.88 265.88,171.87 C264.22,175.07 262.45,175.22 261.77,174.97" fill="none" stroke="rgb(229, 0, 80)" stroke-width="3.63" stroke-opacity="1.00" stroke-linejoin="round"/>
<path d="M232.60,112.27 C232.60,112.27 232.60,112.09 232.60,112.09 C232.84,113.65 233.85,129.43 234.85,136.18 C236.01,143.24 239.02,157.95 240.76,165.11 C243.21,174.38 245.87,182.78 247.84,185.54 C247.84,185.54 248.37,184.27 248.37,184.27" fill="none" stroke="rgb(229, 0, 80)" stroke-width="3.63" stroke-opacity="1.00" stroke-linejoin="round"/>
<path d="M229.51,149.88 C229.51,149.88 229.79,148.78 229.79,148.78 C228.86,150.03 225.31,162.43 224.26,169.20 C223.80,172.25 223.70,176.62 224.45,179.36 C224.79,180.52 226.16,182.65 226.98,183.21 C228.06,183.92 231.49,185.27 232.26,185.66 C233.29,186.19 234.19,187.37 234.43,188.41 C234.66,189.55 234.71,194.70 234.62,200.74 C234.57,206.66 234.87,212.22 235.81,214.53 C237.18,217.78 240.07,223.15 242.38,225.34 C243.18,226.10 245.83,228.64 246.62,229.94 C247.02,230.60 250.36,237.25 252.01,238.98 C254.00,241.01 258.29,243.87 262.42,245.42 C268.68,247.74 278.78,254.00 283.84,257.23 C285.77,258.36 290.42,260.45 292.75,260.99 C294.01,261.26 295.51,261.12 296.49,260.65 C297.20,260.30 297.64,259.55 297.84,258.73" fill="none" stroke="rgb(229, 0, 80)" stroke-width="3.63" stroke-opacity="1.00" stroke-linejoin="round"/>
<path d="M247.54,228.17 C247.54,228.17 246.38,226.94 246.38,226.94 C248.72,228.21 261.92,232.90 269.00,234.73 C271.73,235.44 276.65,237.39 278.89,239.32 C279.57,239.91 282.14,243.26 282.85,244.04 C284.08,245.38 286.28,246.80 287.95,247.28 C291.96,248.36 300.93,248.47 303.12,247.74 C304.32,247.28 305.84,244.85 306.05,242.94 C306.11,242.36 305.97,241.49 305.63,240.33" fill="none" stroke="rgb(229, 0, 80)" stroke-width="3.63" stroke-opacity="1.00" stroke-linejoin="round"/>
<path d="M254.41,180.95 C254.41,180.95 253.24,181.20 253.24,181.20 C253.24,181.20 252.85,184.24 252.85,184.24 C254.70,183.36 257.62,178.57 258.94,175.64 C260.93,171.07 261.29,170.07 261.63,168.85" fill="none" stroke="rgb(229, 0, 80)" stroke-width="3.63" stroke-opacity="1.00" stroke-linejoin="round"/>
<path d="M235.05,55.87 C235.05,55.87 234.37,55.48 234.37,55.48 C235.57,55.87 236.50,56.19 238.93,57.09 C244.32,59.09 248.87,61.06 251.84,62.68 C253.20,63.42 254.02,63.95 255.42,64.94" fill="none" stroke="rgb(229, 0, 80)" stroke-width="3.63" stroke-opacity="1.00" stroke-linejoin="round"/>
<path d="M128.70,56.08 C128.70,56.08 128.31,56.89 128.31,56.89 C133.44,48.73 139.33,40.53 145.27,34.71 C152.31,27.84 154.70,26.58 157.53,25.22 C157.53,25.22 157.96,25.50 157.96,25.50" fill="none" stroke="rgb(229, 0, 80)" stroke-width="3.63" stroke-opacity="1.00" stroke-linejoin="round"/>
<path d="M120.91,31.18 C120.91,31.18 121.01,31.65 121.01,31.65 C122.57,29.08 126.72,24.31 128.66,22.48 C131.02,20.27 138.06,14.76 141.40,12.68 C144.60,10.72 148.16,9.26 148.78,9.20" fill="none" stroke="rgb(229, 0, 80)" stroke-width="3.63" stroke-opacity="1.00" stroke-linejoin="round"/>
<path d="M121.75,23.74 C121.34,21.58 121.54,19.85 122.75,18.41 C125.31,15.41 138.58,6.59 144.46,3.55 C156.33,-2.56 170.93,-7.41 173.04,-8.04" fill="none" stroke="rgb(229, 0, 80)" stroke-width="3.63" stroke-opacity="1.00" stroke-linejoin="round"/>
<path d="M138.59,68.99 C138.71,68.52 139.35,67.51 140.75,65.69 C143.93,61.60 156.06,51.40 163.50,46.26 C169.10,42.59 183.42,33.48 186.88,31.53 C189.30,30.17 195.85,26.71 197.09,26.05" fill="none" stroke="rgb(229, 0, 80)" stroke-width="3.63" stroke-opacity="1.00" stroke-linejoin="round"/>
<path d="M155.78,69.06 C155.78,69.06 154.87,68.35 154.87,68.35 C154.59,66.87 157.74,63.67 161.66,60.15 C168.42,54.18 176.09,48.59 185.20,42.59 C192.98,37.59 199.66,33.85 210.38,28.57 C220.69,23.65 224.23,22.30 225.44,21.88" fill="none" stroke="rgb(229, 0, 80)" stroke-width="3.63" stroke-opacity="1.00" stroke-linejoin="round"/>
<path d="M215.83,50.61 C216.85,50.35 219.55,49.66 220.39,49.49 C223.90,48.78 235.02,50.03 238.06,50.81 C239.28,51.13 242.32,52.10 243.44,52.47" fill="none" stroke="rgb(229, 0, 80)" stroke-width="3.63" stroke-opacity="1.00" stroke-linejoin="round"/>
<path d="M240.59,24.09 C240.52,24.09 240.68,24.23 240.75,24.26 C242.31,24.90 245.11,26.08 246.80,26.94 C250.36,28.77 256.21,32.98 258.00,34.75 C258.74,35.51 259.62,36.70 260.97,38.72" fill="none" stroke="rgb(229, 0, 80)" stroke-width="3.63" stroke-opacity="1.00" stroke-linejoin="round"/>
<path d="M259.04,37.91 C259.49,38.54 259.84,39.08 260.08,39.52 C261.14,41.52 262.06,44.14 262.03,45.34 C261.88,48.01 259.63,53.65 257.38,57.19 C257.21,57.45 257.03,57.68 256.84,57.88" fill="none" stroke="rgb(229, 0, 80)" stroke-width="3.63" stroke-opacity="1.00" stroke-linejoin="round"/>
</g>
</svg>
