<?xml version="1.0" encoding="UTF-8" standalone="no"?>
<!DOCTYPE svg PUBLIC "-//W3C//DTD SVG 1.1//EN" "http://www.w3.org/Graphics/SVG/1.1/DTD/svg11.dtd">
<svg width="128.40" height="181.68" viewBox="0.00 0.00 535.00 757.00" xmlns="http://www.w3.org/2000/svg" xmlns:xlink="http://www.w3.org/1999/xlink">
<g stroke-linecap="round" transform="translate(44.00, 155.00)" id="98-사람">
<path d="M182.81,204.52 C182.85,204.03 182.90,203.71 182.96,203.58 C183.02,203.42 183.16,203.28 183.37,203.16 C183.42,203.14 183.47,203.13 183.51,203.14 C183.40,203.75 184.95,208.19 185.64,210.24 C186.10,211.47 187.74,216.24 188.20,217.36 C189.46,220.38 198.02,225.87 199.99,226.91 C200.79,227.32 203.38,227.37 203.68,227.37" fill="none" stroke="rgb(229, 0, 16)" stroke-width="3.65" stroke-opacity="1.00" stroke-linejoin="round"/>
<path d="M231.07,198.54 C231.07,198.54 231.50,198.03 231.50,198.03 C231.50,198.03 231.76,198.07 231.76,198.07 C231.98,199.68 232.04,200.77 231.98,202.88 C231.85,206.31 230.33,210.05 228.62,212.06 C225.56,215.53 210.88,224.00 209.96,224.69 C209.73,224.86 209.56,225.04 209.46,225.23 C209.44,225.31 209.38,225.35 209.17,225.44" fill="none" stroke="rgb(229, 0, 16)" stroke-width="3.65" stroke-opacity="1.00" stroke-linejoin="round"/>
<path d="M179.20,193.37 C179.20,193.37 178.82,193.48 178.82,193.48 C177.91,195.15 177.41,196.44 177.04,198.37 C176.66,200.29 176.82,201.21 177.50,201.94 C179.24,201.81 181.86,200.14 184.64,198.84 C186.24,198.10 187.22,197.36 187.34,197.31" fill="none" stroke="rgb(229, 0, 16)" stroke-width="3.65" stroke-opacity="1.00" stroke-linejoin="round"/>
<path d="M239.62,183.57 C239.62,183.57 239.35,182.23 239.35,182.23 C238.56,183.50 237.26,188.98 236.94,193.35 C236.81,195.60 238.11,199.71 239.63,203.65 C241.23,207.73 242.90,210.15 244.79,210.93 C245.63,211.26 247.73,212.06 247.82,212.26 C247.82,213.23 244.67,217.39 242.64,218.09 C241.35,218.50 239.25,217.79 237.89,216.57 C235.54,214.34 234.12,209.01 233.94,205.97 C233.92,205.64 233.94,205.16 233.99,204.55" fill="none" stroke="rgb(229, 0, 16)" stroke-width="3.65" stroke-opacity="1.00" stroke-linejoin="round"/>
<path d="M213.81,188.10 C213.81,188.10 213.54,188.51 213.54,188.51 C213.73,188.43 217.74,187.06 220.15,187.92 C220.82,188.16 223.45,189.47 223.48,189.47" fill="none" stroke="rgb(229, 0, 16)" stroke-width="3.65" stroke-opacity="1.00" stroke-linejoin="round"/>
<path d="M214.82,182.90 C214.80,182.91 214.84,182.90 214.86,182.90 C215.74,182.63 216.35,182.47 216.69,182.44 C217.83,182.33 221.03,182.92 222.37,183.56 C223.44,184.08 225.64,185.56 225.58,185.53" fill="none" stroke="rgb(229, 0, 16)" stroke-width="3.65" stroke-opacity="1.00" stroke-linejoin="round"/>
<path d="M188.89,189.38 C188.90,189.09 188.90,188.88 188.89,188.75 C188.89,188.62 188.86,188.39 188.82,188.05 C188.82,188.05 188.76,188.13 188.76,188.13 C190.45,187.90 191.54,187.81 192.04,187.84 C192.75,187.89 193.51,188.16 194.31,188.66 C194.57,188.83 195.02,189.18 195.67,189.71" fill="none" stroke="rgb(229, 0, 16)" stroke-width="3.65" stroke-opacity="1.00" stroke-linejoin="round"/>
<path d="M188.22,194.97 C188.22,194.97 188.24,194.63 188.24,194.63 C189.77,193.67 194.59,193.17 196.48,194.35 C196.65,194.46 196.77,194.62 196.84,194.83 C196.85,195.67 193.36,197.53 192.10,197.27 C191.02,197.00 190.68,196.15 190.61,195.59 C191.32,194.49 194.16,194.49 194.59,195.15 C194.59,195.15 190.18,195.17 190.18,195.17 C190.18,195.17 194.13,195.38 194.13,195.38 C194.13,196.47 191.57,196.56 191.14,196.45 C191.14,196.45 195.34,194.46 195.34,194.46 C195.34,194.46 193.51,193.61 193.51,193.61 C193.51,193.61 193.21,194.03 193.21,194.03" fill="none" stroke="rgb(229, 0, 16)" stroke-width="3.65" stroke-opacity="1.00" stroke-linejoin="round"/>
<path d="M215.82,195.14 C215.82,195.14 214.24,194.37 214.24,194.37 C214.24,194.37 213.31,195.58 213.31,195.58 C213.31,195.58 217.91,195.08 217.91,195.08 C217.56,194.44 216.97,194.11 215.87,194.41 C213.75,194.99 212.20,195.84 212.19,196.32 C214.59,197.39 218.37,195.39 218.56,194.92 C218.56,194.92 214.09,195.21 214.09,195.21 C214.09,195.21 222.31,195.46 222.31,195.46 C222.07,194.97 217.40,196.63 216.45,198.01 C216.37,198.14 216.29,198.33 216.23,198.58" fill="none" stroke="rgb(229, 0, 16)" stroke-width="3.65" stroke-opacity="1.00" stroke-linejoin="round"/>
<path d="M192.64,213.24 C192.64,213.24 192.86,212.27 192.86,212.27 C192.86,212.27 193.76,212.09 193.76,212.09 C194.40,212.28 198.27,215.31 199.18,215.37 C199.45,215.39 200.32,215.41 201.80,215.42" fill="none" stroke="rgb(229, 0, 16)" stroke-width="3.65" stroke-opacity="1.00" stroke-linejoin="round"/>
<path d="M214.20,213.01 C214.44,212.67 214.60,212.45 214.68,212.36 C214.75,212.27 214.86,212.18 215.00,212.09 C214.27,212.77 213.75,213.25 213.45,213.52 C212.93,213.99 211.61,215.18 211.26,215.62" fill="none" stroke="rgb(229, 0, 16)" stroke-width="3.65" stroke-opacity="1.00" stroke-linejoin="round"/>
<path d="M191.18,224.58 C191.18,224.58 191.47,223.81 191.47,223.81 C191.47,223.81 191.57,223.75 191.57,223.75 C190.35,225.26 189.54,226.52 189.30,227.59 C189.02,228.87 189.17,230.62 189.65,231.43 C189.83,231.71 194.68,237.58 195.05,237.90 C195.97,238.68 197.88,239.48 198.87,239.55 C199.16,239.57 199.86,239.48 199.85,239.49" fill="none" stroke="rgb(229, 0, 16)" stroke-width="3.65" stroke-opacity="1.00" stroke-linejoin="round"/>
<path d="M194.48,223.51 C194.57,223.31 194.64,223.16 194.68,223.09 C194.72,223.01 194.78,222.90 194.87,222.75 C194.93,224.60 195.14,227.14 195.45,228.60 C196.02,231.26 200.21,238.01 200.39,238.42 C200.89,239.53 199.36,242.25 198.85,243.07 C198.70,243.29 198.68,243.39 198.79,243.37 C198.79,243.37 199.13,243.40 199.13,243.40" fill="none" stroke="rgb(229, 0, 16)" stroke-width="3.65" stroke-opacity="1.00" stroke-linejoin="round"/>
<path d="M218.00,220.94 C217.75,221.27 217.27,221.66 217.24,221.86 C217.19,222.15 217.18,222.85 217.21,223.95 C217.28,227.20 216.89,230.94 215.97,233.76 C215.60,234.84 212.71,242.32 212.57,243.60 C213.67,244.36 214.59,244.33 216.18,243.28 C219.05,241.35 221.89,237.80 222.42,234.79 C222.90,231.81 221.67,224.86 221.51,223.97 C221.16,222.09 221.06,220.85 221.19,220.49" fill="none" stroke="rgb(229, 0, 16)" stroke-width="3.65" stroke-opacity="1.00" stroke-linejoin="round"/>
<path d="M185.15,222.68 C185.25,222.40 185.35,222.12 185.45,221.84 C185.54,221.58 185.63,221.33 185.72,221.08 C185.72,221.06 185.66,221.10 185.65,221.13 C185.49,221.46 176.16,242.52 175.05,246.12 C172.69,253.48 169.29,265.19 168.05,271.44 C167.11,276.16 165.29,291.49 164.37,298.41 C162.80,311.28 163.65,324.38 163.79,325.07 C165.16,323.76 165.83,322.71 166.41,320.68 C168.39,313.67 171.48,302.48 172.18,297.98 C172.19,308.40 167.24,334.89 166.83,339.61 C166.18,347.74 168.14,353.49 168.57,353.95 C169.48,353.56 172.29,348.95 174.00,346.03 C175.76,342.99 178.66,337.89 179.25,335.24 C180.72,328.17 184.55,310.06 184.86,307.94 C185.19,305.60 187.07,286.55 187.56,280.11 C188.09,270.23 187.98,263.13 186.93,257.63 C186.49,255.35 186.33,253.15 186.40,250.80 C186.41,250.41 186.44,250.01 186.49,249.61" fill="none" stroke="rgb(229, 0, 16)" stroke-width="3.65" stroke-opacity="1.00" stroke-linejoin="round"/>
<path d="M235.71,222.23 C235.71,222.23 235.35,221.61 235.35,221.61 C235.35,221.61 234.72,221.43 234.72,221.43 C234.78,221.57 240.72,221.71 242.68,222.27 C244.64,222.86 249.40,224.88 252.03,226.68 C257.75,230.64 272.93,245.46 274.50,248.61 C275.22,250.10 275.84,253.19 275.78,254.82 C275.61,257.87 274.17,262.91 273.01,265.29 C271.90,267.52 261.93,285.07 259.18,288.98 C257.34,291.58 253.09,296.22 251.28,297.83 C248.54,300.25 244.85,302.55 242.53,303.66 C241.43,304.18 240.88,304.35 240.50,304.32 C240.50,304.32 240.41,304.01 240.41,304.01" fill="none" stroke="rgb(229, 0, 16)" stroke-width="3.65" stroke-opacity="1.00" stroke-linejoin="round"/>
<path d="M244.98,248.32 C244.98,248.32 244.75,248.37 244.75,248.37 C244.75,248.37 244.28,249.25 244.28,249.25 C244.42,251.18 248.54,256.40 249.35,257.81 C249.98,258.98 250.75,261.87 250.73,263.41 C250.67,265.30 247.79,269.05 244.60,273.40 C241.67,277.34 238.22,281.57 235.97,283.90 C233.49,286.47 229.28,290.26 229.52,292.08 C230.21,296.49 239.04,304.20 240.76,305.09 C240.76,305.09 240.52,304.61 240.52,304.61" fill="none" stroke="rgb(229, 0, 16)" stroke-width="3.65" stroke-opacity="1.00" stroke-linejoin="round"/>
<path d="M229.17,297.48 C229.61,296.48 229.84,296.10 230.09,296.04 C230.17,296.01 230.28,295.98 230.43,295.92 C230.43,295.92 230.45,296.04 230.45,296.04 C229.35,297.15 227.27,299.22 226.61,299.70 C223.20,302.15 213.50,305.71 211.79,306.32 C211.40,306.45 211.07,306.58 210.79,306.70" fill="none" stroke="rgb(229, 0, 16)" stroke-width="3.65" stroke-opacity="1.00" stroke-linejoin="round"/>
<path d="M203.87,311.95 C203.87,311.95 204.36,311.51 204.36,311.51 C204.36,311.51 204.27,311.45 204.27,311.45 C204.27,311.45 197.66,316.79 197.66,316.79 C198.45,317.67 199.16,317.99 200.37,317.61 C200.69,317.51 201.69,317.16 203.38,316.58 C203.38,316.58 200.54,319.59 200.54,319.59 C201.33,320.63 202.24,320.91 203.56,320.29 C204.06,320.06 205.27,319.46 205.54,319.55 C205.54,319.55 202.68,324.24 202.68,324.24 C202.68,324.24 207.49,322.70 207.49,322.70 C207.49,322.70 205.97,325.00 205.97,325.00 C206.54,324.88 206.96,324.71 207.24,324.49 C207.30,324.43 207.82,323.85 208.79,322.73 C208.83,322.69 208.97,322.62 208.95,322.67" fill="none" stroke="rgb(229, 0, 16)" stroke-width="3.65" stroke-opacity="1.00" stroke-linejoin="round"/>
<path d="M217.16,321.44 C217.16,321.44 216.80,322.49 216.80,322.49 C217.30,322.72 221.77,320.85 224.43,319.21 C229.81,315.85 236.36,308.82 239.08,305.51 C240.03,304.40 240.93,303.64 241.30,303.49 C241.30,303.49 241.36,303.51 241.36,303.51" fill="none" stroke="rgb(229, 0, 16)" stroke-width="3.65" stroke-opacity="1.00" stroke-linejoin="round"/>
<path d="M270.40,293.18 C270.40,293.18 270.30,293.09 270.30,293.09 C269.11,286.28 270.12,283.12 270.52,282.68 C270.52,282.68 271.01,291.30 271.01,291.30" fill="none" stroke="rgb(229, 0, 16)" stroke-width="3.65" stroke-opacity="1.00" stroke-linejoin="round"/>
<path d="M266.99,298.82 C264.88,297.82 262.04,294.93 260.80,292.60 C259.86,290.78 259.10,288.94 258.89,288.04 C258.87,287.92 258.85,287.84 258.84,287.81 C258.70,289.75 258.24,296.25 258.22,297.81 C258.17,302.74 259.21,308.08 260.94,312.61 C263.53,319.14 269.39,330.16 270.92,334.72 C271.36,336.05 278.13,359.42 278.62,361.26 C279.77,365.71 281.00,377.07 280.30,381.39 C280.30,381.39 280.12,380.42 280.12,380.42" fill="none" stroke="rgb(229, 0, 16)" stroke-width="3.65" stroke-opacity="1.00" stroke-linejoin="round"/>
<path d="M258.28,334.74 C258.28,334.74 258.38,334.94 258.38,334.94 C258.38,334.94 258.76,335.04 258.76,335.04 C261.77,339.39 269.55,362.00 270.01,362.32 C270.15,362.40 270.49,362.54 271.04,362.72" fill="none" stroke="rgb(229, 0, 16)" stroke-width="3.65" stroke-opacity="1.00" stroke-linejoin="round"/>
<path d="M271.02,368.09 C270.96,368.84 270.93,369.34 270.92,369.56 C270.82,371.43 271.08,377.63 271.36,379.77 C271.41,380.15 271.51,380.72 271.67,381.48 C271.67,381.48 271.73,381.05 271.73,381.05" fill="none" stroke="rgb(229, 0, 16)" stroke-width="3.65" stroke-opacity="1.00" stroke-linejoin="round"/>
<path d="M261.41,354.18 C261.41,354.18 261.03,354.13 261.03,354.13 C260.94,356.25 260.92,357.16 260.93,358.98 C260.99,364.36 265.08,380.08 265.57,381.42 C265.67,381.70 265.75,381.76 265.81,381.63 C265.81,381.63 265.82,381.42 265.82,381.42" fill="none" stroke="rgb(229, 0, 16)" stroke-width="3.65" stroke-opacity="1.00" stroke-linejoin="round"/>
<path d="M169.79,349.65 C169.79,349.65 169.51,348.15 169.51,348.15 C169.51,348.15 169.43,348.21 169.43,348.21 C168.57,352.12 166.85,355.34 165.94,356.90 C164.19,359.84 161.52,362.03 160.86,363.10 C158.51,366.87 155.78,369.52 155.76,370.09 C156.70,370.73 157.31,370.93 158.02,370.43 C158.89,369.84 162.45,366.93 162.62,366.87 C162.92,367.65 160.88,369.87 160.14,370.81 C159.87,371.16 157.29,377.60 157.07,378.36 C157.92,378.44 158.58,378.09 159.56,376.88 C161.05,374.81 162.86,372.33 163.36,372.04 C159.79,379.64 159.05,384.52 159.19,384.91 C160.35,384.51 161.07,383.93 161.91,382.49 C163.44,379.81 166.24,374.81 167.52,372.50 C167.52,372.50 165.82,382.48 165.82,382.48 C167.39,381.63 168.24,380.55 168.88,378.29 C169.29,376.88 169.86,374.83 170.15,373.88 C170.28,373.91 170.75,378.33 171.55,379.66 C171.66,379.83 171.82,379.97 172.03,380.07 C173.07,378.95 173.63,377.64 173.79,375.51 C173.99,372.81 173.99,365.82 173.78,362.74 C173.56,359.83 171.93,350.92 172.14,349.94 C172.21,349.64 172.49,348.99 172.98,347.99 C173.18,347.59 173.46,347.02 173.82,346.28" fill="none" stroke="rgb(229, 0, 16)" stroke-width="3.65" stroke-opacity="1.00" stroke-linejoin="round"/>
<path d="M179.28,200.80 C179.28,200.80 178.99,200.50 178.99,200.50 C178.99,200.50 179.45,200.62 179.45,200.62 C179.55,200.65 179.08,202.91 179.22,207.15 C179.37,211.49 178.17,216.42 176.27,218.81 C173.45,222.35 171.21,226.04 171.41,227.64 C171.78,228.28 180.18,226.23 181.12,226.07 C181.43,226.02 181.73,226.02 182.02,226.06 C182.02,226.06 182.37,226.37 182.37,226.37 C182.37,226.37 182.32,226.63 182.32,226.63" fill="none" stroke="rgb(229, 0, 16)" stroke-width="3.65" stroke-opacity="1.00" stroke-linejoin="round"/>
</g>
</svg>
