<?xml version="1.0" encoding="UTF-8" standalone="no"?>
<!DOCTYPE svg PUBLIC "-//W3C//DTD SVG 1.1//EN" "http://www.w3.org/Graphics/SVG/1.1/DTD/svg11.dtd">
<svg width="128.40" height="181.68" viewBox="0.00 0.00 535.00 757.00" xmlns="http://www.w3.org/2000/svg" xmlns:xlink="http://www.w3.org/1999/xlink">
<g stroke-linecap="round" transform="translate(44.00, 155.00)" id="98-비">
<path d="M-15.72,109.77 C-15.82,110.05 -15.84,110.04 -15.84,110.04 C-16.09,114.60 -17.12,148.16 -17.87,154.83 C-17.87,154.83 -17.67,154.13 -17.67,154.13" fill="none" stroke="rgb(164, 0, 1)" stroke-width="3.65" stroke-opacity="1.00" stroke-linejoin="round"/>
<path d="M-18.80,161.50 C-18.80,161.50 -19.85,161.38 -19.85,161.38 C-21.43,163.71 -21.08,166.63 -20.78,166.99 C-19.73,166.67 -19.18,166.23 -19.03,165.38 C-18.74,163.62 -19.44,162.24 -19.90,161.71 C-19.90,161.71 -21.26,161.90 -21.26,161.90 C-21.26,161.90 -19.77,164.85 -19.77,164.85" fill="none" stroke="rgb(164, 0, 1)" stroke-width="3.65" stroke-opacity="1.00" stroke-linejoin="round"/>
<path d="M57.35,98.87 C57.35,98.87 57.39,97.85 57.39,97.85 C57.39,97.85 59.35,97.21 59.35,97.21 C61.09,100.66 68.40,162.04 69.15,170.58 C69.31,172.52 69.56,173.62 70.17,175.35 C70.17,175.35 70.90,175.63 70.90,175.63" fill="none" stroke="rgb(164, 0, 1)" stroke-width="3.65" stroke-opacity="1.00" stroke-linejoin="round"/>
<path d="M72.77,175.63 C73.09,176.05 73.32,176.80 73.35,177.97 C73.42,180.09 73.53,180.80 73.95,182.10 C75.39,181.46 74.22,177.40 73.71,177.09 C71.59,177.99 71.60,181.57 71.83,181.89 C71.83,181.89 72.61,178.42 72.61,178.42" fill="none" stroke="rgb(164, 0, 1)" stroke-width="3.65" stroke-opacity="1.00" stroke-linejoin="round"/>
<path d="M31.26,184.46 C30.64,184.87 30.15,186.11 30.04,187.89 C30.01,188.42 30.75,233.50 30.91,249.39 C30.75,258.06 29.93,270.04 29.24,270.90 C29.24,270.90 27.84,271.10 27.84,271.10 C27.19,272.09 26.64,273.93 26.81,275.39 C26.99,276.96 27.82,278.51 28.29,278.63 C30.28,277.50 30.16,276.21 29.99,275.22 C28.93,274.81 28.19,274.97 27.86,275.86 C27.61,276.52 27.61,277.42 27.75,278.00 C27.75,278.00 28.05,275.02 28.05,275.02 C28.00,275.02 27.97,275.02 27.95,275.03 C27.93,275.04 27.89,275.07 27.83,275.13" fill="none" stroke="rgb(164, 0, 1)" stroke-width="3.65" stroke-opacity="1.00" stroke-linejoin="round"/>
<path d="M-11.65,291.72 C-11.34,291.53 -10.55,292.09 -9.93,293.06 C-9.07,294.45 -4.69,325.50 -3.62,328.01 C-3.62,328.01 -3.28,328.15 -3.28,328.15 C-3.20,328.03 -3.12,327.91 -3.04,327.79 C-3.03,327.78 -3.00,327.73 -3.01,327.75" fill="none" stroke="rgb(164, 0, 1)" stroke-width="3.65" stroke-opacity="1.00" stroke-linejoin="round"/>
<path d="M-3.60,327.58 C-3.60,327.85 -3.62,328.06 -3.67,328.20 C-3.82,328.58 -4.83,329.91 -5.05,330.29 C-7.20,334.18 -4.41,337.40 -3.72,337.75 C-2.86,337.47 -2.12,336.67 -1.97,335.51 C-1.81,334.34 -2.28,333.10 -3.01,332.24 C-3.01,332.24 -4.26,332.28 -4.26,332.28 C-5.61,333.54 -5.76,336.42 -5.18,337.44 C-5.18,337.44 -4.59,337.73 -4.59,337.73" fill="none" stroke="rgb(164, 0, 1)" stroke-width="3.65" stroke-opacity="1.00" stroke-linejoin="round"/>
<path d="M69.75,244.40 C69.61,244.66 69.49,244.83 69.40,244.91 C69.31,244.99 69.11,245.10 68.81,245.24 C68.81,245.24 68.46,244.97 68.46,244.97 C68.24,245.00 65.45,248.06 67.03,266.04 C67.91,274.34 69.67,290.18 70.54,297.72 C70.93,301.56 71.44,308.81 71.78,308.66 C71.78,308.66 72.21,308.31 72.21,308.31" fill="none" stroke="rgb(164, 0, 1)" stroke-width="3.65" stroke-opacity="1.00" stroke-linejoin="round"/>
<path d="M73.38,314.06 C73.54,314.42 73.66,314.75 73.74,315.07 C74.01,316.13 75.04,325.61 75.67,326.42 C76.58,326.06 77.00,325.50 77.01,324.35 C77.01,321.92 76.14,320.26 75.57,319.64 C74.21,320.28 73.62,320.91 73.62,322.02 C73.61,323.31 73.86,324.26 74.35,325.21 C74.35,325.21 75.87,324.94 75.87,324.94 C75.87,324.94 74.37,318.02 74.37,318.02 C73.27,318.46 73.17,319.32 74.02,320.95 C74.02,320.95 74.88,321.14 74.88,321.14" fill="none" stroke="rgb(164, 0, 1)" stroke-width="3.65" stroke-opacity="1.00" stroke-linejoin="round"/>
<path d="M107.35,55.13 C107.48,55.20 107.63,55.18 107.78,55.08 C108.38,54.59 109.22,53.94 109.45,54.04 C110.04,55.01 110.59,69.13 110.86,76.18 C111.14,81.65 111.46,83.81 111.88,86.37 C111.88,86.37 111.91,96.40 111.91,96.40 C111.91,96.40 111.49,94.70 111.49,94.70 C111.49,94.70 110.72,97.42 110.72,97.42 C111.98,97.35 112.75,97.01 113.15,95.91 C113.27,95.58 113.57,94.64 114.06,93.09" fill="none" stroke="rgb(164, 0, 1)" stroke-width="3.65" stroke-opacity="1.00" stroke-linejoin="round"/>
<path d="M140.31,52.45 C140.31,52.45 140.31,51.08 140.31,51.08 C140.41,51.53 140.52,55.50 140.76,59.86 C141.52,72.18 142.18,78.93 142.47,81.64 C142.58,82.85 142.70,84.06 142.81,85.27" fill="none" stroke="rgb(164, 0, 1)" stroke-width="3.65" stroke-opacity="1.00" stroke-linejoin="round"/>
<path d="M145.73,97.70 C145.73,97.70 145.30,97.15 145.30,97.15 C144.79,98.20 144.47,98.91 144.32,99.29 C143.85,100.54 143.73,102.13 143.86,103.62 C143.86,103.62 145.33,99.68 145.33,99.68 C143.67,99.46 143.78,102.78 144.21,103.14 C144.21,103.14 145.35,102.16 145.35,102.16" fill="none" stroke="rgb(164, 0, 1)" stroke-width="3.65" stroke-opacity="1.00" stroke-linejoin="round"/>
<path d="M209.58,54.80 C209.58,54.80 209.85,53.74 209.85,53.74 C210.28,60.27 212.48,75.15 212.81,77.95 C213.04,79.79 213.43,80.90 214.42,82.76 C214.85,83.55 215.09,84.14 215.16,84.55 C215.32,85.48 215.25,86.44 215.34,87.38 C215.40,88.14 215.70,89.07 215.77,89.16" fill="none" stroke="rgb(164, 0, 1)" stroke-width="3.65" stroke-opacity="1.00" stroke-linejoin="round"/>
<path d="M214.38,96.08 C214.38,96.08 214.20,95.73 214.20,95.73 C214.20,95.73 214.43,96.03 214.43,96.03 C214.43,96.03 214.81,100.10 214.81,100.10 C218.55,99.12 216.68,94.99 216.11,94.43 C216.11,94.43 214.45,96.17 214.45,96.17 C214.45,96.17 215.75,93.33 215.75,93.33 C215.75,93.33 215.14,93.94 215.14,93.94" fill="none" stroke="rgb(164, 0, 1)" stroke-width="3.65" stroke-opacity="1.00" stroke-linejoin="round"/>
<path d="M264.44,74.52 C264.44,74.52 263.38,73.02 263.38,73.02 C263.04,73.20 263.15,76.87 263.64,82.42 C263.96,85.84 264.54,89.11 264.78,89.81 C264.87,90.07 265.11,90.70 265.50,91.70" fill="none" stroke="rgb(164, 0, 1)" stroke-width="3.65" stroke-opacity="1.00" stroke-linejoin="round"/>
<path d="M264.72,98.93 C264.72,98.93 264.72,98.68 264.72,98.68 C264.74,98.64 264.33,100.62 264.29,100.92 C264.16,102.05 264.39,103.78 264.74,105.17 C265.75,103.75 263.95,101.73 263.42,101.73 C263.42,101.73 262.48,103.89 262.48,103.89 C263.33,104.09 264.11,103.37 264.82,101.59 C264.94,101.28 265.08,100.88 265.22,100.37" fill="none" stroke="rgb(164, 0, 1)" stroke-width="3.65" stroke-opacity="1.00" stroke-linejoin="round"/>
<path d="M312.76,92.51 C312.76,92.51 312.72,92.23 312.72,92.23 C312.72,92.23 312.45,92.03 312.45,92.03 C312.06,92.79 312.22,96.29 312.21,99.59 C312.30,103.51 314.25,129.05 314.00,132.22 C313.44,138.90 312.73,141.54 312.40,142.87 C311.94,144.62 311.50,145.79 311.08,146.22 C310.86,146.45 309.87,147.24 309.67,148.13 C308.97,151.28 310.41,153.87 310.88,153.93 C311.78,152.80 312.10,151.91 311.84,150.82 C311.61,149.86 311.22,149.18 310.63,148.54 C310.63,148.54 309.06,149.42 309.06,149.42 C309.51,148.90 309.84,147.89 310.59,144.69 C310.73,144.08 310.84,143.91 310.88,143.86" fill="none" stroke="rgb(164, 0, 1)" stroke-width="3.65" stroke-opacity="1.00" stroke-linejoin="round"/>
<path d="M353.72,76.23 C353.48,78.75 351.12,89.11 350.26,98.22 C349.39,107.51 346.44,124.47 346.23,126.22 C345.85,129.55 346.33,130.76 347.68,132.91 C348.32,133.96 347.45,141.08 348.24,143.21 C349.72,143.30 350.63,142.90 351.14,141.67 C351.62,140.49 351.83,139.08 351.77,137.52 C351.66,135.38 350.71,133.76 350.70,133.79" fill="none" stroke="rgb(164, 0, 1)" stroke-width="3.65" stroke-opacity="1.00" stroke-linejoin="round"/>
</g>
</svg>
