<?xml version="1.0" encoding="UTF-8" standalone="no"?>
<!DOCTYPE svg PUBLIC "-//W3C//DTD SVG 1.1//EN" "http://www.w3.org/Graphics/SVG/1.1/DTD/svg11.dtd">
<svg width="128.40" height="181.68" viewBox="0.00 0.00 535.00 757.00" xmlns="http://www.w3.org/2000/svg" xmlns:xlink="http://www.w3.org/1999/xlink">
<g stroke-linecap="round" transform="translate(44.00, 155.00)" id="99-사람">
<path d="M170.54,182.70 C170.54,182.70 170.48,182.48 170.48,182.48 C170.37,183.73 172.88,189.82 174.29,191.18 C176.26,192.97 180.97,194.73 183.83,194.59 C186.14,194.44 192.39,192.50 194.42,191.62 C195.65,191.06 197.51,189.62 198.35,188.48 C200.12,186.00 202.31,178.91 202.58,174.75 C202.75,171.77 202.08,167.99 202.02,168.02" fill="none" stroke="rgb(0, 0, 255)" stroke-width="2.85" stroke-opacity="1.00" stroke-linejoin="round"/>
<path d="M174.65,152.19 C174.65,152.19 174.55,152.21 174.55,152.21 C174.49,152.11 174.08,151.37 173.82,151.15 C172.63,150.23 166.58,149.58 162.59,150.10 C159.25,150.56 153.59,152.56 151.31,153.59 C149.09,154.62 145.95,156.75 144.53,158.10 C142.82,159.78 139.97,164.70 139.62,167.81 C139.30,171.10 140.63,178.03 142.21,181.71 C142.99,183.47 145.60,187.91 146.96,189.56 C148.41,191.30 152.11,194.77 154.52,196.34 C155.49,196.97 162.40,201.17 165.17,202.90 C166.71,203.83 168.80,204.65 170.29,205.02 C170.51,205.07 170.64,205.08 170.66,205.04" fill="none" stroke="rgb(0, 0, 255)" stroke-width="2.85" stroke-opacity="1.00" stroke-linejoin="round"/>
<path d="M181.24,149.54 C181.29,149.29 181.32,149.12 181.35,149.01 C181.52,148.45 182.16,147.28 182.73,146.70 C183.98,145.46 189.66,143.21 191.93,142.56 C195.20,141.65 199.96,140.80 202.38,141.07 C204.90,141.38 209.90,143.53 212.42,145.27 C214.55,146.77 218.21,150.50 219.41,152.23 C222.13,156.20 226.23,166.86 226.98,171.95 C227.68,176.91 226.10,187.57 224.48,193.01 C223.72,195.50 221.90,199.42 220.61,201.27 C218.62,204.05 211.16,210.94 206.83,212.85 C206.70,212.90 206.57,212.97 206.44,213.04 C206.44,213.04 206.44,213.12 206.44,213.12" fill="none" stroke="rgb(0, 0, 255)" stroke-width="2.85" stroke-opacity="1.00" stroke-linejoin="round"/>
<path d="M181.52,194.41 C181.52,194.41 181.75,194.06 181.75,194.06 C181.75,194.06 181.95,194.06 181.95,194.06 C182.04,194.54 179.86,200.16 178.71,202.39 C177.50,204.68 174.05,208.86 172.06,210.21 C169.89,211.59 165.90,211.82 161.25,211.10 C155.03,210.17 151.20,209.77 147.21,209.72 C141.57,209.67 138.24,210.01 134.16,211.07 C130.57,212.01 129.98,212.32 129.39,212.87 C129.40,213.63 131.02,216.35 133.26,218.36 C135.16,220.02 137.17,220.40 140.61,219.82 C145.58,218.98 162.23,219.36 163.48,219.78 C164.81,220.30 165.57,224.04 165.30,228.39 C164.46,240.45 164.85,243.76 165.66,244.57 C167.31,246.09 171.89,247.52 174.70,247.94 C177.74,248.37 186.42,248.02 188.77,247.22 C190.37,246.65 192.72,244.72 193.93,243.12 C196.02,240.23 197.90,235.58 198.37,232.44 C198.78,229.37 199.82,221.31 199.92,220.77 C199.99,220.36 200.18,219.52 200.48,218.24" fill="none" stroke="rgb(0, 0, 255)" stroke-width="2.85" stroke-opacity="1.00" stroke-linejoin="round"/>
<path d="M195.68,193.96 C195.65,193.96 195.61,193.96 195.58,193.96 C195.55,193.96 195.51,193.96 195.48,193.96 C195.19,195.06 195.03,196.02 194.66,198.84 C194.33,201.41 194.16,204.13 194.30,205.51 C194.58,207.91 197.52,210.32 199.99,211.76 C201.91,212.85 209.42,215.41 212.51,216.36 C215.10,217.15 221.42,218.85 222.74,220.08 C224.22,221.56 225.69,226.27 225.92,230.08 C226.12,233.97 225.77,237.00 224.59,237.92 C223.10,239.00 218.37,240.47 216.64,240.08 C215.55,239.79 213.31,236.25 212.35,233.36 C210.68,228.04 208.98,224.71 207.09,223.04 C205.39,221.61 202.27,220.31 199.07,219.86 C198.83,219.82 198.68,219.75 198.64,219.65" fill="none" stroke="rgb(0, 0, 255)" stroke-width="2.85" stroke-opacity="1.00" stroke-linejoin="round"/>
<path d="M129.30,216.41 C129.30,216.41 129.30,216.12 129.30,216.12 C129.27,216.03 128.21,216.21 127.20,216.53 C122.04,218.24 119.09,222.34 118.85,222.88 C118.85,222.88 124.61,220.97 124.61,220.97 C121.05,223.42 119.49,225.24 119.26,227.02 C119.25,227.10 119.23,227.38 119.21,227.83 C119.21,227.83 125.16,222.66 125.16,222.66 C125.42,222.80 122.99,228.22 123.01,228.90 C123.01,229.08 123.09,229.44 123.22,229.96 C124.62,229.90 125.34,229.56 126.01,228.27 C127.43,225.49 127.89,224.68 128.12,224.51 C128.12,224.51 127.48,229.58 127.48,229.58 C127.48,229.58 130.24,224.85 130.24,224.85 C130.24,224.85 130.99,228.28 130.99,228.28 C131.63,228.42 132.32,227.81 132.74,226.32 C133.10,225.07 133.55,221.85 133.60,220.60 C133.62,220.21 133.61,219.85 133.58,219.54 C133.58,219.53 133.55,219.50 133.55,219.51" fill="none" stroke="rgb(0, 0, 255)" stroke-width="2.85" stroke-opacity="1.00" stroke-linejoin="round"/>
<path d="M212.27,238.79 C212.33,238.61 212.47,238.20 212.51,238.11 C212.54,238.07 212.57,238.04 212.61,238.02 C212.02,239.23 209.65,243.26 209.10,245.22 C208.56,247.17 208.82,248.34 209.09,248.79 C209.09,248.79 211.79,244.82 211.79,244.82 C211.86,245.32 210.74,250.48 210.79,251.54 C210.84,252.54 211.09,253.50 211.27,253.62 C212.44,252.54 213.94,247.00 214.10,246.56 C214.14,246.45 214.20,246.33 214.27,246.19 C214.27,246.19 215.65,254.52 215.65,254.52 C216.94,253.95 217.41,245.67 217.41,245.72 C217.41,245.72 218.10,249.95 218.10,249.95 C218.92,249.87 219.26,249.59 219.47,248.34 C220.01,245.22 220.16,244.19 220.19,243.40 C220.19,243.40 221.92,249.77 221.92,249.77 C223.27,248.61 224.31,242.79 224.41,239.78 C224.43,239.25 224.42,238.00 224.55,237.81 C224.55,237.81 224.94,238.09 224.94,238.09" fill="none" stroke="rgb(0, 0, 255)" stroke-width="2.85" stroke-opacity="1.00" stroke-linejoin="round"/>
<path d="M169.29,249.39 C169.18,249.52 169.08,249.66 168.98,249.79 C168.61,250.32 167.52,253.22 165.05,259.02 C161.75,266.66 157.00,273.93 153.70,278.76 C152.53,280.67 143.28,297.65 140.37,303.14 C137.13,309.41 135.64,313.47 135.69,313.42 C135.69,313.42 135.77,313.40 135.77,313.40 C135.77,313.40 135.94,313.19 135.94,313.19" fill="none" stroke="rgb(0, 0, 255)" stroke-width="2.85" stroke-opacity="1.00" stroke-linejoin="round"/>
<path d="M179.74,255.49 C179.87,255.31 179.96,255.19 180.01,255.13 C180.07,255.08 180.17,255.02 180.32,254.95 C180.78,255.62 180.71,259.49 180.30,262.43 C179.09,270.32 176.07,289.43 176.05,289.81 C175.97,291.74 176.05,299.31 175.85,301.92 C175.69,303.99 175.72,305.06 175.92,305.45 C175.92,305.45 176.22,305.26 176.22,305.26" fill="none" stroke="rgb(0, 0, 255)" stroke-width="2.85" stroke-opacity="1.00" stroke-linejoin="round"/>
<path d="M189.23,247.16 C189.20,247.10 189.17,247.06 189.16,247.03 C189.14,246.99 189.09,246.93 189.03,246.83 C189.02,246.82 189.06,246.84 189.07,246.85 C190.33,248.21 193.26,251.61 194.77,253.59 C199.10,259.32 205.91,271.65 207.82,277.43 C210.96,287.10 210.45,300.04 210.32,301.40 C210.28,301.87 210.19,302.42 210.08,303.06 C210.08,303.07 210.07,303.08 210.07,303.07 C210.08,303.08 210.06,303.05 210.05,303.04 C210.01,303.01 209.87,302.90 209.63,302.72" fill="none" stroke="rgb(0, 0, 255)" stroke-width="2.85" stroke-opacity="1.00" stroke-linejoin="round"/>
<path d="M175.35,313.26 C175.35,313.26 175.22,313.38 175.22,313.38 C175.27,313.60 179.04,312.94 183.40,312.01 C196.59,309.05 208.46,305.50 209.07,305.51 C209.07,305.51 209.09,305.56 209.09,305.56 C209.09,305.56 209.07,305.63 209.07,305.63" fill="none" stroke="rgb(0, 0, 255)" stroke-width="2.85" stroke-opacity="1.00" stroke-linejoin="round"/>
<path d="M138.88,312.28 C138.88,312.27 138.90,312.31 138.90,312.32 C139.26,312.75 140.55,314.12 141.34,314.72 C144.38,317.00 150.60,318.38 153.61,318.11 C155.48,317.90 166.47,314.69 168.68,314.15 C168.95,314.08 169.12,314.04 169.18,314.03" fill="none" stroke="rgb(0, 0, 255)" stroke-width="2.85" stroke-opacity="1.00" stroke-linejoin="round"/>
<path d="M151.40,316.75 C151.24,316.84 150.94,317.02 150.82,317.50 C150.13,320.06 149.77,320.86 148.94,321.18 C148.34,321.40 143.59,323.24 142.45,324.41 C141.45,325.48 140.30,328.15 140.42,329.25 C140.59,330.40 142.45,331.42 144.19,331.36 C146.33,331.25 163.24,325.90 163.68,325.77 C167.89,324.50 169.70,323.07 169.50,322.14 C169.22,321.02 168.54,319.51 167.49,317.65 C167.28,317.28 167.07,316.89 166.85,316.49" fill="none" stroke="rgb(0, 0, 255)" stroke-width="2.85" stroke-opacity="1.00" stroke-linejoin="round"/>
<path d="M187.35,311.73 C187.35,311.73 187.22,311.58 187.22,311.58 C187.09,311.74 186.75,313.14 186.61,314.48 C186.43,316.29 186.50,318.39 186.80,318.99 C187.48,320.23 190.16,320.93 192.36,320.69 C195.18,320.37 203.38,319.12 204.03,318.99 C207.30,318.32 208.70,317.14 208.80,316.28 C208.51,315.37 202.67,311.09 201.43,309.85 C200.94,309.36 198.90,307.06 198.16,306.23" fill="none" stroke="rgb(0, 0, 255)" stroke-width="2.85" stroke-opacity="1.00" stroke-linejoin="round"/>
<path d="M188.46,168.54 C188.46,168.54 188.73,167.89 188.73,167.89 C189.25,167.66 189.63,167.51 189.85,167.43 C191.18,166.99 193.86,166.95 195.82,167.37 C196.35,167.48 196.82,167.67 197.23,167.93 C197.30,167.98 197.40,168.07 197.54,168.20" fill="none" stroke="rgb(0, 0, 255)" stroke-width="2.85" stroke-opacity="1.00" stroke-linejoin="round"/>
<path d="M170.33,169.45 C170.33,169.45 170.34,169.57 170.34,169.57 C170.94,169.55 171.55,169.53 172.15,169.51 C173.38,169.48 174.29,169.46 174.88,169.46 C175.21,169.46 175.55,169.48 175.91,169.51" fill="none" stroke="rgb(0, 0, 255)" stroke-width="2.85" stroke-opacity="1.00" stroke-linejoin="round"/>
<path d="M171.52,175.58 C171.52,175.58 171.39,175.35 171.39,175.35 C172.21,175.30 173.12,175.22 174.85,175.02 C175.51,174.94 176.16,174.87 176.82,174.79 C175.12,174.97 173.81,175.53 173.71,176.19 C173.52,177.50 173.58,178.69 173.80,178.93 C173.80,178.93 174.92,175.66 174.92,175.66 C174.92,175.66 174.00,179.02 174.00,179.02 C174.00,179.02 175.17,176.80 175.17,176.80 C175.17,176.80 174.54,178.07 174.54,178.07 C174.54,178.07 175.28,177.95 175.28,177.95" fill="none" stroke="rgb(0, 0, 255)" stroke-width="2.85" stroke-opacity="1.00" stroke-linejoin="round"/>
<path d="M189.12,172.38 C189.12,172.38 188.74,172.29 188.74,172.29 C188.74,172.29 188.25,172.68 188.25,172.68 C188.22,172.82 195.52,172.56 195.82,172.55 C196.00,172.55 196.20,172.59 196.41,172.66 C196.41,172.66 196.27,172.80 196.27,172.80" fill="none" stroke="rgb(0, 0, 255)" stroke-width="2.85" stroke-opacity="1.00" stroke-linejoin="round"/>
<path d="M191.67,173.88 C191.68,173.88 191.33,173.89 191.22,173.93 C190.64,174.17 189.90,176.56 190.24,177.05 C190.24,177.05 192.05,173.77 192.05,173.77 C192.05,173.77 191.14,176.49 191.14,176.49 C191.14,176.49 191.99,174.99 191.99,174.99 C191.99,174.99 190.57,176.08 190.57,176.08 C190.57,176.08 191.72,174.32 191.72,174.32 C191.72,174.32 191.24,174.50 191.24,174.50 C191.24,174.50 191.00,174.92 191.00,174.92" fill="none" stroke="rgb(0, 0, 255)" stroke-width="2.85" stroke-opacity="1.00" stroke-linejoin="round"/>
<path d="M181.84,177.99 C181.84,177.99 182.09,177.23 182.09,177.23 C182.09,177.23 182.51,177.23 182.51,177.23 C182.51,177.23 183.43,178.08 183.43,178.08 C183.43,178.08 183.48,177.02 183.48,177.02 C183.10,177.59 183.22,178.14 183.92,178.60 C184.06,178.69 184.30,178.81 184.63,178.97" fill="none" stroke="rgb(0, 0, 255)" stroke-width="2.85" stroke-opacity="1.00" stroke-linejoin="round"/>
<path d="M180.65,185.63 C180.65,185.63 180.71,185.19 180.71,185.19 C180.71,185.19 181.08,185.10 181.08,185.10 C183.70,186.51 188.00,184.50 189.80,183.15 C189.53,184.02 189.09,186.97 188.85,188.08 C188.60,189.21 187.65,189.60 186.03,189.63 C184.04,189.58 182.12,188.33 181.25,186.59 C180.91,185.89 180.86,185.08 180.99,184.17 C181.07,184.20 180.61,187.16 181.07,188.12 C181.52,189.00 184.33,189.67 186.81,189.13 C187.95,188.84 188.68,185.73 188.58,185.88 C185.63,188.63 183.75,187.54 183.28,187.03 C183.28,187.03 187.93,186.28 187.93,186.28 C187.93,186.28 184.00,187.72 184.00,187.72 C184.00,187.72 188.65,186.61 188.65,186.61 C188.65,186.61 185.40,186.83 185.40,186.83" fill="none" stroke="rgb(0, 0, 255)" stroke-width="2.85" stroke-opacity="1.00" stroke-linejoin="round"/>
<path d="M167.89,163.49 C167.92,163.42 167.95,163.36 167.98,163.31 C168.02,163.27 168.10,163.18 168.23,163.03 C168.71,163.12 167.65,166.69 167.66,168.84 C167.67,170.30 169.33,182.26 170.14,183.96 C171.13,185.97 173.11,187.00 173.39,187.05" fill="none" stroke="rgb(0, 0, 255)" stroke-width="2.85" stroke-opacity="1.00" stroke-linejoin="round"/>
<path d="M170.33,164.71 C170.33,164.71 170.14,165.16 170.14,165.16 C171.46,165.94 178.09,166.90 180.59,166.94 C184.56,166.97 191.19,165.22 193.83,163.70 C195.42,162.76 198.74,159.50 199.24,159.39 C200.28,160.02 203.41,168.75 204.84,176.04 C205.37,178.76 205.43,182.87 204.90,185.94 C203.60,193.10 201.38,199.64 200.90,200.82 C200.57,201.58 200.23,202.42 200.24,202.40" fill="none" stroke="rgb(0, 0, 255)" stroke-width="2.85" stroke-opacity="1.00" stroke-linejoin="round"/>
<path d="M209.52,169.48 C209.52,169.48 209.59,169.52 209.59,169.52 C209.62,170.73 209.66,173.04 209.59,173.83 C209.31,176.72 204.01,203.41 204.15,204.78 C204.23,205.43 204.46,205.86 204.87,206.30" fill="none" stroke="rgb(0, 0, 255)" stroke-width="2.85" stroke-opacity="1.00" stroke-linejoin="round"/>
<path d="M210.91,164.99 C210.99,166.21 211.01,167.33 210.89,171.56 C210.71,178.81 204.66,202.92 203.51,206.39 C202.95,208.06 202.55,209.10 202.16,209.96 C202.16,209.96 202.46,209.19 202.46,209.19" fill="none" stroke="rgb(0, 0, 255)" stroke-width="2.85" stroke-opacity="1.00" stroke-linejoin="round"/>
<path d="M211.92,161.85 C211.92,161.85 212.09,161.73 212.09,161.73 C212.09,161.73 212.48,161.96 212.48,161.96 C213.98,165.47 215.39,175.86 215.34,180.02 C215.15,189.57 209.75,205.68 209.01,206.42 C208.87,206.37 208.94,205.67 209.27,204.25 C209.33,203.98 209.42,203.59 209.55,203.08" fill="none" stroke="rgb(0, 0, 255)" stroke-width="2.85" stroke-opacity="1.00" stroke-linejoin="round"/>
<path d="M223.39,174.43 C223.39,174.99 223.39,175.55 223.39,176.11 C223.40,182.32 222.13,190.10 220.84,194.07 C219.94,196.80 218.49,199.98 216.66,202.68 C214.57,205.72 212.27,207.79 211.71,208.01" fill="none" stroke="rgb(0, 0, 255)" stroke-width="2.85" stroke-opacity="1.00" stroke-linejoin="round"/>
<path d="M158.30,158.96 C158.38,158.74 158.43,158.57 158.45,158.46 C158.47,158.34 158.50,158.13 158.53,157.81 C158.01,157.41 155.42,158.05 153.82,159.45 C151.83,161.24 148.68,166.74 147.82,169.21 C147.01,171.61 146.41,176.59 146.65,178.37 C147.13,181.74 148.94,185.97 150.23,187.98 C151.76,190.30 156.12,194.74 159.64,196.85 C160.70,197.48 161.82,197.92 162.33,198.03" fill="none" stroke="rgb(0, 0, 255)" stroke-width="2.85" stroke-opacity="1.00" stroke-linejoin="round"/>
<path d="M170.02,156.51 C169.31,155.94 167.88,156.03 166.12,157.41 C164.34,158.85 160.55,163.81 159.24,166.71 C158.09,169.31 156.92,174.20 156.76,176.16 C156.60,178.37 156.92,182.34 157.46,184.40 C157.97,186.29 160.20,190.77 162.13,193.00 C164.09,195.24 169.96,199.24 171.58,199.84 C172.25,200.08 173.04,200.15 173.51,200.11 C173.51,200.11 173.89,199.74 173.89,199.74" fill="none" stroke="rgb(0, 0, 255)" stroke-width="2.85" stroke-opacity="1.00" stroke-linejoin="round"/>
<path d="M168.76,160.21 C168.65,160.04 168.56,159.91 168.48,159.82 C168.40,159.72 168.22,159.53 167.94,159.25 C167.94,159.25 167.60,159.41 167.60,159.41 C166.70,160.67 165.24,175.71 165.80,181.80 C165.99,183.80 166.97,188.18 167.62,189.83 C169.22,193.75 172.99,198.42 175.03,199.42 C175.22,199.50 175.48,199.58 175.82,199.64" fill="none" stroke="rgb(0, 0, 255)" stroke-width="2.85" stroke-opacity="1.00" stroke-linejoin="round"/>
<path d="M173.05,155.19 C173.05,155.19 173.08,154.87 173.08,154.87 C173.13,155.97 173.26,159.03 173.35,159.63 C173.64,161.80 174.33,162.73 174.48,162.86" fill="none" stroke="rgb(0, 0, 255)" stroke-width="2.85" stroke-opacity="1.00" stroke-linejoin="round"/>
<path d="M178.66,155.22 C178.66,155.22 179.09,154.20 179.09,154.20 C179.31,155.17 179.56,157.71 179.74,158.67 C180.02,160.21 180.73,162.08 181.22,162.91" fill="none" stroke="rgb(0, 0, 255)" stroke-width="2.85" stroke-opacity="1.00" stroke-linejoin="round"/>
<path d="M186.40,153.13 C186.27,153.47 186.21,153.79 186.21,154.10 C186.23,155.08 186.60,158.82 186.71,160.63 C186.75,161.17 186.86,162.01 187.02,163.14" fill="none" stroke="rgb(0, 0, 255)" stroke-width="2.85" stroke-opacity="1.00" stroke-linejoin="round"/>
<path d="M193.83,151.63 C193.46,152.71 193.24,153.49 193.17,154.00 C192.93,155.69 193.34,158.40 193.95,159.44 C194.10,159.68 194.43,160.13 194.95,160.78" fill="none" stroke="rgb(0, 0, 255)" stroke-width="2.85" stroke-opacity="1.00" stroke-linejoin="round"/>
<path d="M200.42,149.30 C200.42,149.30 200.51,148.52 200.51,148.52 C200.51,148.52 200.41,148.52 200.41,148.52 C201.99,149.40 204.67,151.99 205.70,154.41 C206.80,157.09 207.83,161.80 208.39,165.79 C208.92,169.66 209.53,171.80 209.65,171.74" fill="none" stroke="rgb(0, 0, 255)" stroke-width="2.85" stroke-opacity="1.00" stroke-linejoin="round"/>
<path d="M201.74,152.40 C201.74,152.46 201.79,152.62 201.92,152.89 C202.55,154.30 206.06,161.34 206.95,163.48 C210.30,171.63 210.92,188.45 211.05,191.34 C211.13,192.61 211.20,193.13 211.24,193.04 C211.31,193.03 211.36,192.94 211.40,192.77 C211.52,192.14 211.67,190.17 211.76,188.37" fill="none" stroke="rgb(0, 0, 255)" stroke-width="2.85" stroke-opacity="1.00" stroke-linejoin="round"/>
<path d="M212.38,149.96 C212.38,149.96 212.47,149.95 212.47,149.95 C213.70,150.85 217.41,160.68 219.11,168.28 C220.30,173.61 222.05,186.32 221.94,191.13 C221.85,194.00 220.75,199.99 219.92,202.30 C219.77,202.68 219.63,203.07 219.49,203.46" fill="none" stroke="rgb(0, 0, 255)" stroke-width="2.85" stroke-opacity="1.00" stroke-linejoin="round"/>
<path d="M224.72,185.00 C224.61,186.42 224.35,187.68 223.84,188.92 C222.03,193.24 213.66,204.53 210.49,207.79 C208.99,209.32 207.71,210.18 207.54,210.13" fill="none" stroke="rgb(0, 0, 255)" stroke-width="2.85" stroke-opacity="1.00" stroke-linejoin="round"/>
<path d="M203.88,183.30 C203.63,184.35 203.31,185.36 202.40,187.92 C200.84,192.29 198.03,200.17 197.73,201.38 C197.69,201.52 197.67,201.67 197.65,201.81" fill="none" stroke="rgb(0, 0, 255)" stroke-width="2.85" stroke-opacity="1.00" stroke-linejoin="round"/>
<path d="M204.08,185.21 C204.08,185.18 204.08,185.26 204.08,185.28 C203.93,186.55 203.58,188.62 203.24,190.15 C202.84,191.90 201.42,196.62 200.52,199.24 C199.66,201.69 199.50,202.20 199.51,202.38 C199.51,202.39 199.54,202.38 199.54,202.37 C199.79,202.09 200.15,201.68 200.36,201.47" fill="none" stroke="rgb(0, 0, 255)" stroke-width="2.85" stroke-opacity="1.00" stroke-linejoin="round"/>
<path d="M202.20,199.78 C202.13,200.51 202.02,201.08 201.88,201.48 C201.11,203.66 198.57,207.96 197.92,208.84 C197.92,208.84 197.69,208.88 197.69,208.88 C197.76,208.71 197.82,208.59 197.85,208.52 C197.88,208.46 197.94,208.37 198.01,208.25" fill="none" stroke="rgb(0, 0, 255)" stroke-width="2.85" stroke-opacity="1.00" stroke-linejoin="round"/>
<path d="M209.73,198.25 C209.63,200.52 209.42,201.95 208.89,203.56 C208.51,204.70 207.65,207.20 207.17,208.55 C207.06,208.84 206.98,209.08 206.92,209.27" fill="none" stroke="rgb(0, 0, 255)" stroke-width="2.85" stroke-opacity="1.00" stroke-linejoin="round"/>
<path d="M220.29,194.17 C219.87,195.16 219.45,196.16 219.04,197.16 C218.40,198.70 217.11,201.85 216.45,203.47 C215.93,204.71 215.12,206.70 214.81,207.44" fill="none" stroke="rgb(0, 0, 255)" stroke-width="2.85" stroke-opacity="1.00" stroke-linejoin="round"/>
<path d="M157.05,154.32 C156.00,154.50 154.53,154.49 154.02,154.62 C151.92,155.16 148.78,158.18 147.55,160.53 C146.21,163.15 145.02,168.94 145.10,170.91 C145.30,174.52 146.86,178.99 147.88,180.73 C148.86,182.34 151.77,185.90 154.24,188.10 C156.26,189.89 158.82,191.69 161.12,193.19" fill="none" stroke="rgb(0, 0, 255)" stroke-width="2.85" stroke-opacity="1.00" stroke-linejoin="round"/>
<path d="M159.11,156.72 C159.11,156.72 158.37,155.74 158.37,155.74 C157.64,155.83 155.62,158.49 154.62,162.07 C153.64,165.75 153.75,175.34 155.10,180.23 C155.75,182.53 157.67,187.16 158.66,188.96 C160.08,191.51 162.49,194.73 164.44,196.48 C166.56,198.36 168.33,199.34 168.91,199.50" fill="none" stroke="rgb(0, 0, 255)" stroke-width="2.85" stroke-opacity="1.00" stroke-linejoin="round"/>
<path d="M164.33,160.77 C164.33,160.77 162.98,158.99 162.98,158.99 C161.55,160.89 160.49,167.00 160.31,168.75 C159.87,173.21 160.65,182.33 161.95,186.41 C162.33,187.54 163.49,189.91 164.40,191.39 C165.14,192.59 166.17,193.62 167.25,194.47" fill="none" stroke="rgb(0, 0, 255)" stroke-width="2.85" stroke-opacity="1.00" stroke-linejoin="round"/>
<path d="M166.04,164.32 C166.04,164.32 165.46,164.28 165.46,164.28 C164.30,165.90 163.61,177.50 164.27,182.35 C164.62,184.77 165.78,189.37 166.40,190.93 C167.92,194.65 171.01,198.74 171.05,198.37" fill="none" stroke="rgb(0, 0, 255)" stroke-width="2.85" stroke-opacity="1.00" stroke-linejoin="round"/>
<path d="M163.39,154.00 C163.03,153.82 162.13,153.71 161.37,154.08 C158.58,155.50 154.44,160.61 153.19,163.03 C152.00,165.43 150.60,169.40 150.04,172.03 C148.75,178.54 150.88,182.44 151.24,182.86" fill="none" stroke="rgb(0, 0, 255)" stroke-width="2.85" stroke-opacity="1.00" stroke-linejoin="round"/>
<path d="M162.98,158.96 C162.06,159.03 159.30,161.38 157.97,164.15 C156.70,166.84 154.95,173.26 154.64,175.39 C153.78,181.65 155.50,186.30 156.19,187.25" fill="none" stroke="rgb(0, 0, 255)" stroke-width="2.85" stroke-opacity="1.00" stroke-linejoin="round"/>
<path d="M163.64,156.31 C161.72,155.63 160.02,156.29 159.11,157.59 C157.66,159.75 155.81,165.55 155.37,168.63 C154.98,171.49 154.78,176.28 154.88,178.24 C155.19,183.46 156.45,186.74 156.61,186.89" fill="none" stroke="rgb(0, 0, 255)" stroke-width="2.85" stroke-opacity="1.00" stroke-linejoin="round"/>
<path d="M155.51,152.68 C154.97,152.68 154.57,152.69 154.30,152.71 C151.86,152.99 147.05,155.82 145.75,157.16 C144.15,158.89 142.37,163.60 142.02,166.92 C141.73,169.95 142.12,175.75 142.76,178.69 C143.47,181.78 145.69,186.40 147.50,188.91 C149.30,191.35 154.00,195.68 157.23,198.00 C159.57,199.66 167.17,203.85 168.74,204.50 C170.48,205.21 172.59,205.88 172.46,205.73" fill="none" stroke="rgb(0, 0, 255)" stroke-width="2.85" stroke-opacity="1.00" stroke-linejoin="round"/>
<path d="M164.47,199.95 C164.53,199.91 164.62,199.92 164.76,200.00 C165.32,200.31 168.07,202.05 169.24,202.55 C170.41,203.06 173.04,203.88 172.94,203.81" fill="none" stroke="rgb(0, 0, 255)" stroke-width="2.85" stroke-opacity="1.00" stroke-linejoin="round"/>
<path d="M169.91,193.82 C169.91,193.82 169.63,194.37 169.63,194.37 C169.63,194.37 171.90,196.00 171.90,196.00" fill="none" stroke="rgb(0, 0, 255)" stroke-width="2.85" stroke-opacity="1.00" stroke-linejoin="round"/>
<path d="M171.27,153.69 C170.63,153.66 169.62,153.31 169.59,153.31 C167.00,153.29 162.61,155.10 160.67,156.94 C159.68,157.90 159.45,159.09 159.49,159.28" fill="none" stroke="rgb(0, 0, 255)" stroke-width="2.85" stroke-opacity="1.00" stroke-linejoin="round"/>
<path d="M175.28,156.24 C174.75,155.79 172.76,155.84 170.83,156.68 C170.42,156.87 167.47,158.47 166.98,158.83 C166.10,159.49 164.79,160.79 164.85,160.84" fill="none" stroke="rgb(0, 0, 255)" stroke-width="2.85" stroke-opacity="1.00" stroke-linejoin="round"/>
<path d="M189.89,149.09 C189.46,148.79 188.05,148.90 187.15,149.86 C186.26,150.83 185.04,152.56 184.81,153.19 C184.45,154.29 184.90,155.79 185.25,156.42" fill="none" stroke="rgb(0, 0, 255)" stroke-width="2.85" stroke-opacity="1.00" stroke-linejoin="round"/>
<path d="M192.23,147.03 C192.23,147.03 192.28,146.56 192.28,146.56 C192.28,147.41 192.43,149.81 192.70,151.03 C193.06,152.69 194.09,155.31 194.67,156.39" fill="none" stroke="rgb(0, 0, 255)" stroke-width="2.85" stroke-opacity="1.00" stroke-linejoin="round"/>
<path d="M196.31,148.04 C196.31,148.04 196.41,147.70 196.41,147.70 C196.62,149.20 197.05,152.34 197.27,153.97 C197.56,155.98 198.66,158.39 198.75,158.39" fill="none" stroke="rgb(0, 0, 255)" stroke-width="2.85" stroke-opacity="1.00" stroke-linejoin="round"/>
<path d="M200.70,146.75 C200.70,146.75 201.26,146.13 201.26,146.13 C201.49,146.49 202.25,151.39 202.78,154.81 C202.87,155.40 202.95,155.99 203.04,156.58" fill="none" stroke="rgb(0, 0, 255)" stroke-width="2.85" stroke-opacity="1.00" stroke-linejoin="round"/>
<path d="M201.74,144.10 C201.74,144.10 202.24,143.01 202.24,143.01 C203.91,142.91 207.21,145.56 208.44,147.08 C208.85,147.60 209.62,148.69 210.75,150.34" fill="none" stroke="rgb(0, 0, 255)" stroke-width="2.85" stroke-opacity="1.00" stroke-linejoin="round"/>
<path d="M192.44,145.46 C192.44,145.46 192.29,145.41 192.29,145.41 C192.25,145.41 193.11,145.19 194.47,144.98 C196.73,144.66 201.41,144.92 203.87,145.51 C206.52,146.19 211.55,149.09 213.51,150.98 C215.30,152.75 217.73,156.16 218.54,157.63 C218.78,158.06 219.12,158.77 219.55,159.74 C219.57,159.76 219.60,159.84 219.59,159.82" fill="none" stroke="rgb(0, 0, 255)" stroke-width="2.85" stroke-opacity="1.00" stroke-linejoin="round"/>
<path d="M218.69,160.21 C218.65,161.22 218.68,161.99 218.79,162.53 C219.05,163.77 220.85,171.55 221.09,174.50 C221.36,178.11 221.19,184.23 220.57,188.19 C219.97,191.89 217.77,198.82 216.63,200.58 C215.41,202.41 213.81,204.05 213.14,204.28 C213.05,204.30 213.02,204.30 213.04,204.28" fill="none" stroke="rgb(0, 0, 255)" stroke-width="2.85" stroke-opacity="1.00" stroke-linejoin="round"/>
<path d="M203.98,190.30 C203.98,190.30 203.98,189.88 203.98,189.88 C203.59,192.16 202.18,196.02 199.89,201.64 C199.68,202.14 199.47,202.64 199.26,203.13" fill="none" stroke="rgb(0, 0, 255)" stroke-width="2.85" stroke-opacity="1.00" stroke-linejoin="round"/>
<path d="M197.04,194.03 C197.04,194.03 196.99,194.09 196.99,194.09 C197.07,194.57 197.04,195.09 196.73,196.56 C196.47,197.79 196.21,199.02 195.96,200.25" fill="none" stroke="rgb(0, 0, 255)" stroke-width="2.85" stroke-opacity="1.00" stroke-linejoin="round"/>
<path d="M167.96,193.61 C167.92,193.64 167.94,193.67 168.01,193.72 C169.61,194.81 174.26,198.72 175.13,199.14 C175.14,198.83 175.07,198.53 174.86,198.13 C174.83,198.07 174.77,197.96 174.68,197.80" fill="none" stroke="rgb(0, 0, 255)" stroke-width="2.85" stroke-opacity="1.00" stroke-linejoin="round"/>
<path d="M171.52,193.50 C171.52,193.50 171.28,193.17 171.28,193.17 C171.29,193.36 171.91,194.21 172.66,194.95 C173.12,195.41 173.58,195.81 174.06,196.15 C174.24,196.29 174.52,196.46 174.89,196.66" fill="none" stroke="rgb(0, 0, 255)" stroke-width="2.85" stroke-opacity="1.00" stroke-linejoin="round"/>
</g>
</svg>
