<?xml version="1.0" encoding="utf-8"?>
<!-- Generator: Adobe Illustrator 26.2.1, SVG Export Plug-In . SVG Version: 6.00 Build 0)  -->
<svg version="1.1" xmlns="http://www.w3.org/2000/svg" xmlns:xlink="http://www.w3.org/1999/xlink" x="0px" y="0px"
	 viewBox="0 0 535 757" style="enable-background:new 0 0 535 757;" xml:space="preserve">
<style type="text/css">
	.st0{fill:#FFFFFF;}
	.st1{fill:none;stroke:#000000;stroke-width:2;}
</style>
<g id="레이어_1" xmlns:ev="http://www.w3.org/2001/xml-events">
	<rect class="st0" width="535" height="757"/>
	<rect class="st0" width="535" height="757"/>
</g>
<g id="_x31_00-비">
	<g>
		<polyline class="st1" points="58.5,32.7 56.5,39.7 60.5,59.7 61.5,75.7 66.5,100.7 69.5,125.7 		"/>
		<polyline class="st1" points="84.5,30.7 85.5,30.7 84.5,39.7 84.5,49.7 88.5,114.7 		"/>
		<polyline class="st1" points="121.5,29.7 116.5,32.7 116.5,46.7 119.5,69.7 		"/>
		<polyline class="st1" points="152.5,23.7 153.5,23.7 149.5,27.7 149.5,43.7 		"/>
		<polyline class="st1" points="438.5,33.7 435.5,41.7 437.5,88.7 		"/>
		<polyline class="st1" points="476.5,52.7 471.5,56.7 467.5,95.7 466.5,120.7 		"/>
		<line class="st1" x1="72.5" y1="275.7" x2="73.5" y2="275.7"/>
		<polyline class="st1" points="77.5,222.7 78.5,242.7 86.5,310.7 93.5,345.7 		"/>
		<polyline class="st1" points="106.5,251.7 110.5,264.7 118.5,309.7 		"/>
		<polyline class="st1" points="436.5,220.7 433.5,232.7 433.5,258.7 434.5,282.7 440.5,337.7 446.5,368.7 448.5,372.7 		"/>
		<polyline class="st1" points="462.5,218.7 459.5,229.7 457.5,261.7 458.5,287.7 463.5,340.7 467.5,368.7 		"/>
		<polyline class="st1" points="87.5,381.7 86.5,387.7 90.5,411.7 90.5,415.7 		"/>
		<polyline class="st1" points="130.5,362.7 131.5,363.7 124.5,367.7 124.5,371.7 136.5,437.7 		"/>
	</g>
	<polyline class="st1" points="221.5,498.7 221.5,510.7 224.5,529.7 225.5,546.7 226.5,546.7 	"/>
</g>
<g id="_x31_00-우산">
	<g>
		<polyline class="st1" points="330.5,392.7 329.5,397.7 330.5,399.7 330.5,402.7 333.5,406.7 339.5,410.7 336.5,410.7 		"/>
		<polyline class="st1" points="332.5,412.7 337.5,412.7 339.5,410.7 		"/>
		<polyline class="st1" points="355.5,214.7 359.5,241.7 359.5,265.7 360.5,288.7 362.5,309.7 363.5,351.7 364.5,356.7 364.5,383.7 
			365.5,395.7 364.5,401.7 		"/>
		<polyline class="st1" points="374.5,217.7 377.5,222.7 380.5,234.7 383.5,256.7 385.5,279.7 389.5,299.7 390.5,309.7 396.5,336.7 
			398.5,368.7 400.5,378.7 402.5,382.7 		"/>
		<polyline class="st1" points="365.5,400.7 360.5,397.7 358.5,393.7 		"/>
		<polyline class="st1" points="359.5,405.7 351.5,407.7 347.5,407.7 340.5,402.7 335.5,397.7 333.5,392.7 329.5,391.7 331.5,397.7 
			330.5,398.7 326.5,398.7 325.5,400.7 330.5,405.7 346.5,411.7 348.5,413.7 356.5,417.7 361.5,416.7 362.5,414.7 363.5,405.7 
			367.5,397.7 		"/>
		<polyline class="st1" points="391.5,384.7 389.5,389.7 385.5,393.7 380.5,400.7 366.5,413.7 359.5,417.7 357.5,417.7 357.5,416.7 
			347.5,415.7 		"/>
		<polyline class="st1" points="339.5,397.7 344.5,401.7 368.5,411.7 371.5,413.7 373.5,413.7 		"/>
		<polyline class="st1" points="149.5,139.7 148.5,134.7 149.5,131.7 149.5,126.7 154.5,112.7 157.5,107.7 159.5,106.7 160.5,103.7 
			186.5,76.7 188.5,73.7 199.5,65.7 235.5,48.7 254.5,42.7 263.5,41.7 269.5,39.7 277.5,38.7 318.5,38.7 321.5,39.7 332.5,39.7 
			339.5,41.7 353.5,43.7 362.5,46.7 382.5,59.7 393.5,68.7 398.5,76.7 400.5,81.7 402.5,83.7 410.5,95.7 413.5,101.7 417.5,106.7 
			418.5,109.7 422.5,114.7 430.5,135.7 430.5,138.7 432.5,141.7 432.5,143.7 429.5,147.7 		"/>
		<polyline class="st1" points="282.5,10.7 281.5,30.7 282.5,35.7 284.5,36.7 285.5,38.7 		"/>
		<polyline class="st1" points="281.5,12.7 286.5,17.7 288.5,18.7 289.5,20.7 291.5,26.7 288.5,33.7 		"/>
		<polyline class="st1" points="146.5,136.7 138.5,157.7 135.5,169.7 134.5,174.7 134.5,182.7 135.5,183.7 		"/>
		<polyline class="st1" points="134.5,185.7 139.5,181.7 141.5,178.7 		"/>
		<polyline class="st1" points="170.5,152.7 174.5,148.7 174.5,147.7 184.5,138.7 193.5,131.7 194.5,131.7 		"/>
		<polyline class="st1" points="140.5,177.7 146.5,169.7 182.5,147.7 185.5,144.7 199.5,135.7 202.5,135.7 208.5,132.7 220.5,130.7 
			261.5,119.7 277.5,117.7 291.5,116.7 330.5,116.7 335.5,117.7 346.5,117.7 352.5,118.7 353.5,120.7 364.5,127.7 370.5,129.7 
			373.5,131.7 395.5,136.7 398.5,137.7 398.5,138.7 411.5,139.7 420.5,141.7 432.5,147.7 434.5,147.7 434.5,148.7 		"/>
		<polyline class="st1" points="329.5,123.7 330.5,123.7 332.5,131.7 334.5,135.7 346.5,186.7 347.5,192.7 347.5,203.7 352.5,228.7 
			352.5,234.7 358.5,252.7 		"/>
		<polyline class="st1" points="341.5,128.7 346.5,134.7 353.5,167.7 356.5,175.7 360.5,199.7 364.5,214.7 368.5,235.7 371.5,244.7 
			376.5,265.7 377.5,275.7 		"/>
		<line class="st1" x1="194.5" y1="73.7" x2="194.5" y2="73.7"/>
		<polyline class="st1" points="195.5,75.7 193.5,83.7 193.5,91.7 195.5,104.7 196.5,118.7 200.5,130.7 202.5,131.7 		"/>
		<polyline class="st1" points="239.5,54.7 235.5,58.7 234.5,62.7 233.5,91.7 231.5,106.7 232.5,112.7 237.5,128.7 		"/>
		<polyline class="st1" points="267.5,52.7 267.5,66.7 272.5,100.7 276.5,111.7 278.5,114.7 		"/>
		<polyline class="st1" points="321.5,39.7 321.5,46.7 324.5,60.7 324.5,83.7 326.5,94.7 330.5,102.7 		"/>
		<line class="st1" x1="372.5" y1="82.7" x2="372.5" y2="90.7"/>
	</g>
</g>
<g id="_x31_00-사람">
	<g>
		<polyline class="st1" points="195.5,295.7 191.5,292.7 186.5,286.7 181.5,274.7 178.5,263.7 175.5,245.7 175.5,233.7 177.5,221.7 
			179.5,216.7 191.5,203.7 197.5,199.7 210.5,194.7 224.5,193.7 244.5,193.7 250.5,194.7 262.5,197.7 267.5,199.7 275.5,206.7 
			282.5,216.7 287.5,225.7 291.5,242.7 290.5,249.7 284.5,268.7 276.5,279.7 258.5,292.7 249.5,296.7 243.5,296.7 235.5,299.7 
			231.5,299.7 228.5,300.7 205.5,300.7 201.5,297.7 198.5,296.7 194.5,296.7 190.5,294.7 		"/>
		<polyline class="st1" points="174.5,267.7 166.5,263.7 164.5,261.7 153.5,254.7 143.5,244.7 138.5,236.7 135.5,233.7 132.5,225.7 
			134.5,211.7 136.5,206.7 144.5,193.7 150.5,187.7 179.5,165.7 186.5,161.7 204.5,155.7 213.5,153.7 220.5,152.7 261.5,152.7 
			265.5,153.7 282.5,162.7 288.5,166.7 292.5,169.7 305.5,182.7 311.5,191.7 312.5,194.7 312.5,196.7 314.5,201.7 314.5,211.7 
			312.5,216.7 305.5,226.7 305.5,228.7 301.5,238.7 296.5,242.7 290.5,245.7 291.5,245.7 		"/>
		<polyline class="st1" points="188.5,232.7 190.5,227.7 193.5,225.7 198.5,224.7 211.5,224.7 		"/>
		<polyline class="st1" points="243.5,223.7 244.5,224.7 247.5,220.7 250.5,220.7 265.5,224.7 		"/>
		<polyline class="st1" points="196.5,244.7 197.5,244.7 197.5,249.7 199.5,248.7 199.5,245.7 195.5,245.7 193.5,248.7 		"/>
		<polyline class="st1" points="254.5,237.7 252.5,242.7 254.5,244.7 258.5,245.7 263.5,241.7 263.5,239.7 262.5,238.7 259.5,238.7 
			258.5,239.7 		"/>
		<polyline class="st1" points="215.5,236.7 216.5,236.7 217.5,240.7 217.5,245.7 216.5,247.7 216.5,252.7 215.5,254.7 214.5,254.7 
			218.5,257.7 224.5,258.7 227.5,260.7 229.5,260.7 233.5,257.7 237.5,249.7 237.5,239.7 236.5,237.7 236.5,231.7 235.5,228.7 
			233.5,227.7 		"/>
		<polyline class="st1" points="215.5,276.7 221.5,275.7 239.5,275.7 241.5,274.7 242.5,272.7 		"/>
		<line class="st1" x1="217.5" y1="308.7" x2="217.5" y2="309.7"/>
		<polyline class="st1" points="220.5,301.7 221.5,301.7 220.5,308.7 221.5,313.7 221.5,339.7 		"/>
		<polyline class="st1" points="245.5,298.7 248.5,311.7 249.5,320.7 249.5,331.7 		"/>
		<polyline class="st1" points="218.5,344.7 210.5,345.7 207.5,347.7 203.5,347.7 197.5,349.7 191.5,352.7 186.5,356.7 178.5,364.7 
			174.5,372.7 174.5,378.7 179.5,382.7 		"/>
		<polyline class="st1" points="254.5,332.7 257.5,329.7 261.5,327.7 278.5,324.7 290.5,324.7 298.5,326.7 310.5,331.7 318.5,336.7 
			324.5,342.7 333.5,354.7 335.5,359.7 335.5,363.7 339.5,375.7 341.5,377.7 341.5,379.7 342.5,379.7 342.5,380.7 		"/>
		<polyline class="st1" points="266.5,348.7 272.5,346.7 276.5,347.7 289.5,352.7 299.5,358.7 309.5,368.7 313.5,376.7 317.5,380.7 
			317.5,384.7 		"/>
		<polyline class="st1" points="211.5,359.7 206.5,359.7 206.5,360.7 205.5,360.7 202.5,364.7 198.5,373.7 195.5,383.7 190.5,393.7 
			190.5,396.7 191.5,397.7 195.5,397.7 197.5,399.7 197.5,402.7 196.5,402.7 196.5,401.7 		"/>
		<polyline class="st1" points="177.5,383.7 178.5,389.7 183.5,398.7 183.5,400.7 185.5,402.7 186.5,402.7 187.5,404.7 		"/>
		<polyline class="st1" points="319.5,391.7 325.5,389.7 329.5,389.7 333.5,387.7 340.5,387.7 		"/>
		<polyline class="st1" points="211.5,364.7 215.5,369.7 216.5,373.7 216.5,379.7 218.5,391.7 218.5,402.7 219.5,404.7 219.5,411.7 
			216.5,417.7 215.5,429.7 209.5,448.7 205.5,465.7 201.5,473.7 198.5,482.7 197.5,491.7 		"/>
		<polyline class="st1" points="267.5,355.7 276.5,402.7 287.5,438.7 297.5,465.7 306.5,483.7 316.5,497.7 316.5,501.7 315.5,501.7 
					"/>
		<polyline class="st1" points="224.5,419.7 229.5,419.7 232.5,418.7 249.5,418.7 267.5,420.7 270.5,420.7 270.5,419.7 272.5,419.7 
			273.5,420.7 		"/>
		<polyline class="st1" points="203.5,491.7 208.5,495.7 211.5,495.7 218.5,497.7 236.5,499.7 240.5,501.7 250.5,503.7 256.5,503.7 
			272.5,500.7 282.5,499.7 288.5,497.7 308.5,494.7 314.5,491.7 		"/>
		<polyline class="st1" points="232.5,507.7 237.5,504.7 237.5,502.7 238.5,501.7 239.5,502.7 246.5,544.7 		"/>
		<polyline class="st1" points="279.5,504.7 280.5,510.7 284.5,522.7 288.5,539.7 290.5,544.7 		"/>
		<polyline class="st1" points="293.5,505.7 295.5,540.7 297.5,549.7 		"/>
		<polyline class="st1" points="271.5,550.7 271.5,551.7 283.5,550.7 290.5,552.7 294.5,552.7 300.5,550.7 308.5,543.7 312.5,542.7 
			314.5,543.7 318.5,548.7 318.5,550.7 319.5,551.7 319.5,556.7 318.5,560.7 316.5,562.7 312.5,564.7 304.5,566.7 299.5,566.7 
			289.5,562.7 284.5,562.7 281.5,561.7 279.5,559.7 277.5,553.7 277.5,551.7 280.5,549.7 		"/>
		<polyline class="st1" points="219.5,550.7 225.5,551.7 231.5,550.7 236.5,549.7 245.5,545.7 249.5,544.7 254.5,544.7 254.5,546.7 
			243.5,568.7 237.5,570.7 229.5,569.7 223.5,566.7 218.5,557.7 218.5,554.7 221.5,550.7 226.5,546.7 		"/>
		<polyline class="st1" points="318.5,399.7 322.5,404.7 327.5,408.7 332.5,410.7 		"/>
	</g>
</g>
</svg>
