<?xml version="1.0" encoding="utf-8"?>
<!-- Generator: Adobe Illustrator 26.2.1, SVG Export Plug-In . SVG Version: 6.00 Build 0)  -->
<svg version="1.1" xmlns="http://www.w3.org/2000/svg" xmlns:xlink="http://www.w3.org/1999/xlink" x="0px" y="0px"
	 viewBox="0 0 535 757" style="enable-background:new 0 0 535 757;" xml:space="preserve">
<style type="text/css">
	.st0{fill:none;stroke:#000000;stroke-width:2;}
	.st1{fill:#FFFFFF;}
</style>
<g id="레이어_1" xmlns:ev="http://www.w3.org/2001/xml-events">
	<polyline class="st0" points="92.5,331.1 99.8,322.9 110.9,323.9 149.6,338.9 202.9,353.7 234.6,366 275,380 300.3,390.5 
		313.4,400.9 324.5,406.6 323,406.3 322.4,407.4 322.7,406.7 	"/>
	<polyline class="st0" points="439.7,252.6 433.9,262.6 435.7,290.8 438.1,300.8 447.8,323.5 459.2,319.3 467.2,294.3 466.1,288.5 	
		"/>
	<polyline class="st0" points="459.8,257.9 461.8,285.1 453.8,313.2 441.2,315.8 432.9,304.5 438.6,295.9 442.7,291.9 452.4,284.9 
		458.8,282.9 	"/>
	<polyline class="st0" points="486.5,246.5 483.6,254.4 483.4,279.1 483.8,288.6 485.9,303.1 	"/>
	<polyline class="st0" points="479.5,289.3 458,336.8 452.6,342.2 	"/>
	<polyline class="st0" points="453.3,323.4 465,316.6 469.9,317.3 485.1,324.3 499.1,329.4 500.7,328.6 495.7,328.7 	"/>
	<polyline class="st0" points="475.3,340.2 478.5,350.2 478.4,357.1 483.7,375.5 493.8,372.2 507.2,363.5 508.8,358.8 	"/>
	<polyline class="st0" points="478.1,358.4 476.6,354.5 488.4,344.6 496.1,345.2 502,360 499,368 	"/>
	<polyline class="st0" points="479.5,393.3 488,392.5 505.3,377.1 508.5,380.3 490.9,415.8 491.5,416.3 504.2,406 511.2,402.8 
		506.3,410.4 496.9,440.8 502.9,448 520.3,433.6 	"/>
	<rect class="st1" width="535" height="758"/>
</g>
<g id="_x31_02-사람">
	<g>
		<path class="st1" d="M535,0"/>
		<path class="st1" d="M0,0"/>
		<path class="st1" d="M0,757"/>
		<polyline class="st0" points="282.1,205.6 281.5,205.5 281.1,213.7 278.9,214.9 282,213.6 286.1,216.6 287.7,214.7 288.4,215.3 
			287.1,215.8 286.6,215.2 287.2,213.8 288,213.4 288.5,214.1 290.4,212.7 292.8,215 298.1,214.4 301,215.1 304.6,214.4 
			305.1,215.2 307.5,215.4 308.5,216.4 316.3,216 315.8,214.7 316.5,213.7 322.2,212.7 323.4,220.6 325.4,222.2 327.9,222.5 
			333.3,227.5 342.5,231.8 344.1,233.3 351.4,243.7 359.7,262.2 365.6,271.2 369.9,280.1 371.1,287.1 370.5,296.6 369.6,299.3 
			366.3,303 365.7,304.4 366.5,306 		"/>
		<polyline class="st0" points="273.7,222.3 265.6,231 261.3,236.8 261.3,238.2 259.6,240.6 		"/>
		<polyline class="st0" points="334.2,280 344.5,299.5 349.1,311.6 356.5,341 356.8,341.5 358.4,340.4 		"/>
		<polyline class="st0" points="260,277.4 268.4,277.7 272.1,279.8 271.2,283.8 271.8,283.6 		"/>
		<polyline class="st0" points="265.9,293.6 269.1,304.8 270.5,307.3 272,307.9 274.7,306.3 274.5,304.8 271,304.3 262.9,305.7 
			262,306.1 263.3,306.6 		"/>
		<polyline class="st0" points="305.1,311 309.8,319.9 315.8,323.4 317.2,322.6 317.5,319.1 312.9,309 309.6,307.1 305.8,309.2 
			305.1,317.3 		"/>
		<polyline class="st0" points="298.5,269.1 292.6,279 285,296.9 284,314.9 288,355.1 293.2,359.2 298.5,362 299.3,360.3 
			295.4,362.3 		"/>
		<polyline class="st0" points="282.8,361 275.7,367.9 275.4,368.8 277.2,371.3 285.3,374.9 293.8,376 295,375.2 290.8,373.5 
			286,374.3 281.8,376.8 		"/>
		<polyline class="st0" points="239.8,274.4 232.3,279.2 224.4,289 221.4,297.5 219.2,308.4 212.3,317.2 211.2,324.3 208,327.4 
			207.7,331.6 208.3,334.6 218.1,356 224.4,367.2 254.9,415.5 268.5,433.7 270.8,435.9 270.5,434.5 		"/>
		<polyline class="st0" points="365.6,320 366.2,331.4 370.7,366.4 371.8,382.7 370.5,389.9 365.1,401.9 361.7,405.9 348.2,413.8 
			336.3,418 310,423.8 301.1,427.6 278.6,439.9 265.4,438.9 		"/>
		<polyline class="st0" points="253.5,252.2 245.3,256.7 243.9,262.9 		"/>
		<polyline class="st0" points="199.6,542.5 201.8,550.5 197.2,626.3 192.9,660.6 189.7,675.2 184.6,688.2 		"/>
		<polyline class="st0" points="234.5,605.1 237.6,641.2 238.8,680.9 241.5,700.9 233.7,702.2 		"/>
		<polyline class="st0" points="189.6,688.6 180,692.4 154.1,718 141.4,724.6 130.8,727.8 146.1,732.7 176.2,747.4 192.8,750 
			210.7,748.9 220,749.7 225.5,746.3 230.6,741.3 230.8,730.7 219.6,714.5 218.3,707.2 220.3,696.7 219.6,692.4 223.3,695.4 
			227.4,696.5 228.9,695.5 232.4,689.9 235.9,686.8 		"/>
		<line class="st0" x1="284.1" y1="578.7" x2="283.7" y2="570"/>
		<polyline class="st0" points="283.5,565 284.9,574.6 293.2,599.6 307.5,647.5 310.6,666.1 312.1,688.2 307,695.2 288.2,697.4 
			276.4,696.7 263.3,697.6 251,703.1 244.1,708.7 243.1,711.2 243.5,714.1 244.4,715 248.4,715.3 		"/>
		<polyline class="st0" points="339.1,550.5 338.4,563.4 344.9,588.8 363.8,643.2 372.4,673.4 374.3,693.8 372.9,702.9 367.8,706.7 
			331.5,718.7 323.7,719.7 316,722.5 314,722.3 307.6,726.8 290.6,730.4 285,734.6 290.9,731 		"/>
		<polyline class="st0" points="353.1,468.1 363.8,470.6 394.2,495.8 403.4,506 410.4,516.2 419.2,526.7 		"/>
		<polyline class="st0" points="344.2,506.3 352.4,510.6 362.2,520.9 387.6,543.1 406.2,563.9 417.2,577.6 414.4,574.3 414.3,572.3 
					"/>
		<polyline class="st0" points="420.6,532.2 425,541.2 442.1,562.9 448,571.7 449.1,576.5 446.7,577 442.7,575.4 		"/>
		<polyline class="st0" points="412.4,572.2 410.3,574.7 416.3,587.5 419.8,601.8 424.2,639.6 427.2,652.8 426.4,653.3 424.3,653.1 
			424.6,650.2 		"/>
		<polyline class="st0" points="449,587.5 448.9,596.2 450.1,601.8 451.1,624 448.7,646.5 449.9,649.6 448.9,647.9 		"/>
		<polyline class="st0" points="424.3,658.5 428.1,668.1 433.9,665.5 433.5,649.3 432.1,646.6 430.1,646.8 430,648 432.4,654.4 
			435.7,661.3 439.7,666.6 441.4,666.4 441.7,654.9 439.6,644.1 437.3,639.6 437,642.8 445,654.8 451.4,657.5 455.3,654.8 
			453.4,646.8 447.8,639.3 446.2,639 446.7,641.8 448.5,644.8 439.9,642 437.9,638.4 		"/>
		<polyline class="st0" points="142.2,496.6 147.5,488 150,486.3 158.6,475.4 166.2,460 170.1,454.2 182.5,440.2 202.2,448.6 
			216.5,451.8 217.7,453.3 218.5,452.4 		"/>
		<polyline class="st0" points="192.8,486.7 182.5,501.3 171,513.8 165.6,526.6 161.7,542.8 156,581.8 152.3,598.7 150.1,613.1 
			149.1,628.5 148.4,628.2 		"/>
		<polyline class="st0" points="134.3,530.1 129.7,540.1 121.1,571.5 118.9,602.9 116.4,612 113.6,618.1 114.3,623.7 118.4,628.2 
			120.6,629.2 		"/>
		<polyline class="st0" points="130.7,617.9 127.9,626.3 128.6,633.6 137.5,656.6 135.1,657.1 133.4,654.4 137.1,651 		"/>
		<polyline class="st0" points="124.5,651.7 110.3,646.4 100.6,647.7 104.1,652.2 110.6,658 113.2,663.6 115.1,654.5 121.3,648.1 
			127.2,640.3 132.6,635.1 		"/>
		<polyline class="st0" points="141.8,615.7 150.3,641.9 153.3,650.2 154.2,650.9 154.8,647.1 152.5,639.2 150.2,635.7 147.9,634.7 
			144,636.3 134.1,656.9 130,658 122.9,653 116.9,651.7 110.7,652.8 96.6,648.3 97.7,647.6 108.7,653.1 121.6,655.6 96,640.8 
			99,641.1 105.8,639.9 		"/>
		<polyline class="st0" points="106.4,624.9 106.1,633.3 108.9,639.9 110.2,645.7 108.7,664.9 106.1,666.1 112.3,664.1 		"/>
		<polyline class="st0" points="430.2,650.3 429.8,653.3 431.2,653.2 429.3,657 431.3,657.1 		"/>
		<polyline class="st0" points="237.9,457.6 241.8,446.7 248.2,447.6 253.7,453.1 261.4,465.1 258.2,464 257,466.2 258.1,468.3 		
			"/>
		<polyline class="st0" points="299.6,449.2 295.8,459 295.2,465.5 289.8,481.5 		"/>
		<polyline class="st0" points="51.3,667.3 60.3,668.6 68.1,674 80.3,685.9 97.1,699.9 141.4,729 183.1,747.8 214.4,757.7 
			263.5,763.9 293.2,766.9 321.6,765.4 425.1,746 440,742.2 452,738.2 463.4,732.8 475.4,724.3 477.5,720 472.6,720.3 461.5,718.8 
			446.5,718 418.9,721 399,720.2 378.5,721.5 358.8,727 332.5,741 317.8,746.9 307.7,750.3 284.3,755.9 272.8,760.1 259.9,767.8 
			283.1,769.2 292.9,766.8 285.1,761.7 266.7,758.7 232,759.3 202.8,761.3 199.3,764.1 		"/>
		<polyline class="st0" points="22.1,669 27.5,676.4 31.8,679.6 42.5,684.8 56,695.8 70.8,710.9 102.1,746.5 106.3,750.3 
			112.8,753.9 128.4,758.7 144.2,757.1 161,752.3 176.9,751 193.3,750.9 214.1,753 222.7,758.3 228.6,763.3 239.2,767.5 
			252.3,768.4 274.4,759.3 289.9,754.5 297.1,753.8 		"/>
		<polyline class="st0" points="270.3,756.4 279.3,782.2 280.4,791 277.8,807.5 264.9,801.7 254.5,793 262.6,794.9 273.3,795.2 		
			"/>
		<polyline class="st0" points="242.8,729.8 234.5,735.7 230.4,759.5 230.2,764.7 233.3,769.2 235.1,769.3 246.6,756.4 255,736.9 
			254.8,735 		"/>
		<polyline class="st0" points="243.7,735.6 243.9,745.6 246.6,761.2 245.3,767.4 241.9,774.2 239.7,774.7 233.2,768.2 235.6,760.7 
			240.6,753.2 244.8,751.6 260.1,755.1 267.8,750.1 		"/>
		<polyline class="st0" points="265.9,721.3 262.8,737.9 260.9,774.1 258.7,781.7 254.5,782.5 245.5,777.5 242.6,776.7 236.7,776.5 
			232.5,778.5 231.4,779.9 271.1,794.7 270.8,790.5 268.3,789.3 		"/>
		<polyline class="st0" points="377.7,698.5 385.1,702.4 390.6,720.4 399.2,741.9 407.7,745.5 		"/>
	</g>
</g>
<g id="_x31_02-비">
	<g>
		<polyline class="st0" points="293.7,45.8 291.5,33.6 292.2,33.3 293.7,33.3 291.3,36.4 287.5,48.2 286.5,67.1 287.8,86.6 
			287,124.1 287.4,135 286.9,141.3 284.3,146.7 284,148.8 286.7,150.9 		"/>
		<polyline class="st0" points="318.7,64.1 309.6,66.2 308.5,80.3 314.9,143.4 318.5,165.7 325.3,190.7 326,207.8 324.5,207.8 		"/>
		<polyline class="st0" points="358,66.2 350.6,60.9 349.4,61.8 345.6,70.5 343.2,82.3 342.8,117.6 340.5,140 341.3,145.6 
			343.5,150.8 354.3,167.4 355.8,172 356.3,182.3 353.6,200.2 354.5,216 		"/>
		<polyline class="st0" points="387.6,56.1 382.3,62.2 379.3,116.5 378.4,179.6 379.8,192.6 382.7,202.5 387.1,225.6 387.6,236.8 
			384,253.1 374.3,264.1 		"/>
		<polyline class="st0" points="427.5,61.5 423.4,54.4 421.5,56.4 412,74.4 405.6,90.1 404.9,107.3 411.9,157.3 416.5,181.9 
			418.4,203.2 418.2,212.8 416.6,220.6 409.1,244.1 407.7,251.9 407.2,259 409.2,285.6 		"/>
		<polyline class="st0" points="287.4,710.6 290.3,720.1 290.5,736.7 294.2,738.6 292.7,731.9 		"/>
		<polyline class="st0" points="45.3,447.8 55.4,455.1 57.6,459.4 63,480.2 41,558.3 41.9,572.2 46.5,588.2 52.1,612.9 52.8,627.3 
			51.9,637.7 51.1,638.6 57.7,634 		"/>
		<polyline class="st0" points="120.8,439.5 119.4,450.8 114.5,467.5 107.5,487.8 98.2,508.7 86.1,524.9 71.2,541.5 65.7,551.9 
			62.4,561.7 61.2,566.8 60.5,577.8 65.1,602.3 64.7,622.3 59.6,641.5 55.8,662.3 52.1,671.6 45.7,679.2 		"/>
		<polyline class="st0" points="466.3,372.8 475.1,368.3 480.6,369.4 481.8,372.6 482.3,387.4 479.7,403.2 476.9,441.5 467.5,475.9 
			462.9,488.5 471.8,524.1 474.4,543.4 476.1,580.8 478.7,606.8 476.7,641.8 470.1,662.6 459.6,678.7 437.2,707.4 		"/>
		<polyline class="st0" points="496.3,441.2 505.6,463 508.2,487.6 504.2,526.9 501.7,577.9 494.3,622.1 485.7,645.7 482.8,659.9 
			483.2,677.3 487.5,681.2 		"/>
		<polyline class="st0" points="480,704.4 470,707.1 472.7,705.7 		"/>
		<polyline class="st0" points="424.1,356.9 421.4,365.1 422.5,370.6 433.5,397.9 444.2,417.7 		"/>
		<polyline class="st0" points="95.9,364.8 106.8,344 133.6,299.3 155.2,273.4 158.1,272 		"/>
		<polyline class="st0" points="135.2,343.8 144.9,337.6 154.2,329.4 173.8,302.3 181.1,295.6 184.7,294.9 185.7,295.4 		"/>
		<polyline class="st0" points="52.9,193.6 66.8,182.4 93.1,164.5 148,128.7 174.9,112.9 183.7,108.9 191.5,108.6 185,127 		"/>
		<polyline class="st0" points="135.6,187.6 111.2,195.7 106.8,195.6 99.8,197.3 90.9,210.9 87.2,227.7 91.7,230.8 126.9,175.5 
			132.2,174.8 137.9,183.4 141.5,194.6 154.4,180.5 163.2,167.3 177.9,147.6 179.8,146.3 182.4,154.6 186.4,177.2 189,182.2 		"/>
		<polyline class="st0" points="93.2,262.1 84.3,265.4 81,268 68.9,283.1 56.3,300.8 54.4,301.1 55.4,298.3 63.1,286 91.8,253.8 
			119.7,228.7 161.4,205.7 190.9,194.2 198.8,194.1 194.7,207.3 188.8,220.4 		"/>
		<polyline class="st0" points="121.7,231.7 117.3,241.6 108.7,265.2 100.2,293.2 95.9,298.6 94.1,289.6 96,284.7 		"/>
		<polyline class="st0" points="126.5,241.2 124.5,253.8 128.5,265.4 148.4,263.5 163.5,242.4 154,229.1 140.5,232.7 136.9,234.9 
			137.1,236 154.2,230.3 175.4,227.9 204.1,230.3 188,249.1 163.4,273.6 		"/>
		<polyline class="st0" points="107.1,302.8 98.8,310.3 91.4,319.7 55.3,371.9 55.4,364.9 59.1,354.8 97.4,300.5 130.8,271.6 
			163.9,254.5 156.2,285.4 134.8,349.6 117.7,384.3 100.2,399.7 		"/>
		<line class="st0" x1="86.1" y1="376.4" x2="87.2" y2="363.9"/>
	</g>
</g>
</svg>
