<?xml version="1.0" encoding="utf-8"?>
<!-- Generator: Adobe Illustrator 26.2.1, SVG Export Plug-In . SVG Version: 6.00 Build 0)  -->
<svg version="1.1" xmlns="http://www.w3.org/2000/svg" xmlns:xlink="http://www.w3.org/1999/xlink" x="0px" y="0px"
	 viewBox="0 0 535 757" style="enable-background:new 0 0 535 757;" xml:space="preserve">
<style type="text/css">
	.st0{fill:#FFFFFF;}
	.st1{fill:none;stroke:#000000;stroke-width:2;}
</style>
<g id="레이어_1" xmlns:ev="http://www.w3.org/2001/xml-events">
	<rect class="st0" width="535" height="757"/>
</g>
<g id="_x31_04-비">
	<g>
		<line class="st1" x1="228.6" y1="167.8" x2="234.3" y2="199.4"/>
		<polyline class="st1" points="280.6,165.8 281.2,174.5 280.5,184.3 		"/>
		<line class="st1" x1="248.9" y1="233" x2="246.9" y2="250.9"/>
		<polyline class="st1" points="307.9,218 309,227.7 307.8,237.9 		"/>
	</g>
</g>
<g id="_x31_04-사람">
	<g>
		<rect class="st0" width="535" height="757"/>
		<polyline class="st1" points="240.6,394.1 230.6,395.6 222.8,399 215.7,405.6 213.6,409 210.6,418 208.4,431.3 208.2,442.2 
			209,447.5 212,455.1 215.3,458.6 		"/>
		<polyline class="st1" points="241.1,398.7 261.4,396.7 266.2,397.7 273.7,401.3 278,401.9 282,404.8 285.4,405.8 286.4,411.9 
			290,418.2 293.8,432.6 293.9,440.1 295.7,451.6 294.7,459.6 		"/>
		<polyline class="st1" points="217.2,459.9 219,445.3 226.5,432.5 237.3,422.2 240.9,420.2 255.4,419.7 266.5,422.3 269.9,424.2 
			275.4,425.8 282.8,432 284.3,435.3 285.4,441.1 288.5,443.8 288.7,447.1 287.7,450.8 289.4,454.4 288.4,461 290.8,466.2 		"/>
		<polyline class="st1" points="222.8,464.1 220.5,474.5 221.4,478.2 225.8,485.4 228.3,492.9 233,497.9 237.8,500.6 246.5,502.7 
			257.4,499.9 263.5,497.2 		"/>
		<polyline class="st1" points="236.7,454.8 242.4,449.2 246.7,455.7 248.2,454.9 		"/>
		<line class="st1" x1="274.1" y1="450.9" x2="278.2" y2="458.2"/>
		<polyline class="st1" points="241.3,475.2 248.3,470 239.1,475.1 237.5,474.5 238.3,473.9 		"/>
		<polyline class="st1" points="257.1,459.9 252,480.9 254.7,486.2 255.7,486.4 259.4,484.6 265.3,480.9 272.6,473.6 		"/>
		<polyline class="st1" points="223,483 221,483 217.9,484.7 218.5,483.3 217.2,484.6 222.4,484.9 226.8,488.8 229.7,495.7 
			233.8,500.5 235.1,505.8 236.9,521 239.8,528.8 		"/>
		<polyline class="st1" points="292.4,474.4 283.9,478.8 277.6,483.1 272.3,488.7 269.2,494.3 262.9,499.9 259,506.8 257.1,513.6 
			257.1,516.7 260.3,526.9 		"/>
		<polyline class="st1" points="267.2,522.4 277.6,518.9 282.8,520 286.7,522.1 291.2,522.9 292.9,523.9 298.9,535.3 301,536.9 
			303.6,540.9 307.7,561 307.8,565.8 303.1,583.3 		"/>
		<polyline class="st1" points="238,524.3 237.3,522.7 237.3,523.6 239,531.3 239.1,538.7 237,553.2 235.6,558.1 229.1,567.2 
			222.3,572.3 213,573.9 201.8,573.9 195,569.2 179.1,552.8 176.3,548.2 166.5,523.8 162.5,495.6 159.5,485.4 159,472.1 161,461.7 
			170.6,446 174.9,437.5 194,420.6 		"/>
		<polyline class="st1" points="191.8,447.6 185.3,453.8 184.3,455.7 182.5,468.9 183.3,476.8 185.4,480.5 186.2,484.6 186.2,488.8 
			187.2,489.9 188.8,497.6 197.3,518.8 199.2,521.7 205,527.5 216.4,531.1 220.8,530.7 226.1,531.7 228.6,530.7 232.4,527.6 
			236.8,521.8 237.6,519.4 		"/>
		<polyline class="st1" points="195.7,415.4 200.7,407.3 216.9,397.3 242.4,390.7 258.8,390.1 264.2,388.5 268.1,390.1 268.9,392.2 
			270.4,393.4 		"/>
		<polyline class="st1" points="279.8,576.3 276,585.1 275.6,589.6 276,604.9 278.3,618.8 283.1,632.5 285.6,637.3 291.1,644.5 
			296.7,647.5 298.4,646.7 		"/>
		<polyline class="st1" points="311.7,580.8 312.4,588.9 317.6,602.9 318.4,608 318.1,617.5 315.1,626.3 311.1,632.7 308.3,633.7 
			296,634.2 289,636 287.1,634.1 291.3,621.2 		"/>
		<polyline class="st1" points="228.8,566.8 226.5,576.8 227.7,601.2 226.4,613.2 221.2,633.1 219.1,645 220,650.2 223.5,657.5 		
			"/>
		<polyline class="st1" points="225.4,660.3 233.5,660 247.7,650.4 254.3,650.6 260.1,652.5 262.3,652.3 		"/>
		<polyline class="st1" points="232.6,663.6 229.3,671.4 229.4,687.7 218.5,747.1 219.4,765.3 222.4,773 		"/>
		<polyline class="st1" points="250.7,661.4 257.5,672.3 263.2,690.6 264.8,709.8 261.4,732.4 		"/>
		<polyline class="st1" points="217.3,751.8 224.3,757.3 232.8,772.7 234.7,779.1 236.6,782.2 		"/>
		<polyline class="st1" points="255.4,728.8 254.5,741.5 251.5,756.3 251.9,763.3 248.5,766.5 248.4,764.9 		"/>
		<polyline class="st1" points="217.8,753.6 218.4,753.5 218.5,756.5 222.4,759.5 230.1,762.9 231.6,766.3 229.4,763 215.5,768.5 
			210,771.7 202.3,777.7 200.1,783.8 200.2,787 208.8,793.4 213.5,794.9 222.6,795.2 226.3,796.2 231.8,795.6 239,793.5 
			239.9,792.8 239.2,790.6 		"/>
		<polyline class="st1" points="267.1,656.9 276,650 279.5,648.9 290.5,648.9 296.5,649.7 299.7,654.4 300.8,659.5 307.8,677.2 
			310,679.9 311.1,694.3 313.6,712.1 314.1,721.1 312.1,730.6 308.1,739.2 305.1,743.4 		"/>
		<polyline class="st1" points="284.8,681.5 281.4,689.9 277.4,709.7 276,720.7 279.7,744.4 281.2,748 312.6,748.5 319.1,741.5 
			313.5,732.8 313.4,731.1 		"/>
		<polyline class="st1" points="301.7,591.9 297.3,602.7 295,612 296.5,622.6 300,638.8 303.1,638.5 306.9,636.4 310,632.7 
			311.3,632.5 308.2,635.9 302.4,640.3 300.4,642.9 304.1,648 305,651.9 307.2,653.1 310.8,652.6 316.6,650 319.6,644.8 
			320.7,641.4 320.1,640 316.4,648.6 321.8,644.2 323.6,640.7 325,633.5 324.8,627.7 323.7,625.7 		"/>
	</g>
</g>
<g id="_x31_04-우산">
	<g>
		<polyline class="st1" points="261.7,306.1 246.4,305.1 238.2,307.1 233.3,309.1 225.2,315.2 212.1,329 208.6,334.3 203.3,351.6 
			200.3,365.9 		"/>
		<polyline class="st1" points="258.1,307.6 271.6,303.2 273.7,306.1 281.5,307.4 283.8,311.9 292.9,316.7 301.2,324 311.8,331.9 
			317.9,339.1 328.3,364.9 		"/>
		<polyline class="st1" points="195.2,372.7 201.6,367 215.5,360.2 218,360.3 217.9,362.9 218.8,363.5 223,364.1 223.6,365.1 
			223.5,371.6 226.9,373.8 230.4,373 237,369.1 249,366.4 255.2,365.6 256.8,370 		"/>
		<polyline class="st1" points="244.8,372.3 253.9,369.6 264,365.1 265.5,368.1 274.1,370.8 274.2,373.1 271.3,379.4 288.3,371.7 
			291.2,371.4 292,375.3 293.9,375.8 299.4,374.6 		"/>
		<polyline class="st1" points="303.9,373 316.6,373.3 335.1,366.4 343.2,365.2 		"/>
		<polyline class="st1" points="275.2,374.5 275.2,388.2 277.2,399.2 276.6,416.4 272.6,432 269.9,437.1 266.8,439.1 251.6,434.5 
			245.2,426.1 		"/>
	</g>
</g>
</svg>
