<?xml version="1.0" encoding="utf-8"?>
<!-- Generator: Adobe Illustrator 26.2.1, SVG Export Plug-In . SVG Version: 6.00 Build 0)  -->
<svg version="1.1" xmlns="http://www.w3.org/2000/svg" xmlns:xlink="http://www.w3.org/1999/xlink" x="0px" y="0px"
	 viewBox="0 0 535 757" style="enable-background:new 0 0 535 757;" xml:space="preserve">
<style type="text/css">
	.st0{fill:#FFFFFF;}
	.st1{fill:none;stroke:#000000;stroke-width:2;}
</style>
<g id="레이어_1" xmlns:ev="http://www.w3.org/2001/xml-events">
	<rect class="st0" width="535" height="757"/>
	<rect class="st0" width="535" height="757"/>
</g>
<g id="_x31_05-사람-1">
	<g>
		<polyline class="st1" points="122,494.3 117.7,487.4 118.4,481.9 120,478 126.1,467.7 133.7,463.7 137.4,463.7 139.9,465.1 
			144.1,469.3 147.3,473.4 148.3,476.8 148.4,487.3 145.6,494.8 141.9,498.4 134.4,502.4 127.5,502.2 123.7,500.5 117.5,494.3 
			116.4,491.9 118.8,478.9 123.6,470.5 125.9,468.5 129.8,467.7 137.1,469.1 139.3,469.9 146.8,475.5 149.2,478.9 147.1,491.5 
			142.7,500.8 		"/>
		<polyline class="st1" points="124.6,507.6 130.4,513.6 130.7,510.9 132.1,509.9 		"/>
		<polyline class="st1" points="125.3,510.4 122.6,514.7 110.9,519.1 108.2,521.1 101.4,527.2 98.5,531.1 94.2,549.9 93.9,564.6 
			94.8,578.4 93.7,582.7 93.9,585.9 96.2,595.5 97.2,596.3 		"/>
		<polyline class="st1" points="145.7,511.2 145.5,510.5 161.2,517 169.5,517.8 180.2,520.6 195.1,539.3 197.9,546.8 198.4,550.2 
			198.6,563 200.9,582.5 201.3,595.5 200.5,599.9 198.7,599.9 		"/>
		<polyline class="st1" points="125.1,561.9 119.8,569.3 120,587.9 122.7,594.1 121.9,596.3 119.6,598.1 118.6,598 118.8,595.7 
			121,593.4 		"/>
		<polyline class="st1" points="143.4,560.7 152.7,554.9 160.9,554.6 166.5,555.4 174.7,567.5 177.2,573.2 180.1,586.5 184.8,590.6 
			185.7,589.7 		"/>
		<polyline class="st1" points="98.4,597.8 106.6,600.8 108.7,598.8 		"/>
		<polyline class="st1" points="116.1,551.6 123.8,556 129.4,561.9 131.4,562.2 134.3,561.2 149.4,550.9 149.3,553.4 150.9,555.5 
			161.3,559.5 165.6,560.1 169,559.3 171.7,557.5 173.3,555.3 175.2,550.6 174.9,547.9 173.7,550.5 		"/>
		<polyline class="st1" points="110.6,602.5 113.9,616.5 114.4,624.2 115.9,630.5 118.9,634.6 123.3,637.7 123.6,639.4 		"/>
		<polyline class="st1" points="189.5,594.7 182.8,601.1 182.1,604.4 183.1,599 185.6,594.4 186.3,594.2 188.1,596.8 187.2,596.4 
			187.2,597.7 189.5,612.2 188.2,621.5 		"/>
		<polyline class="st1" points="116.2,612.1 115.5,624.6 107.6,641.9 104.1,647.2 103.1,651.9 104.5,654.1 118.1,654.7 132.8,651.5 
			150.1,651 172.1,647 191.3,646.1 200.8,646.4 206.7,645.3 210.1,643.5 212.4,640.6 214.6,633.5 214.8,626.6 214,625.5 
			204.6,621.9 201.3,617.6 190.2,612.6 188.4,611 		"/>
		<polyline class="st1" points="137.2,654.9 133.5,662 133.1,660.5 134.4,658 133.4,660.3 132.5,672.6 133.9,682.9 134.1,693.5 
			136.4,694.6 137.1,697 138.9,697.8 143.2,690.7 144.6,665.6 144,659.8 144.2,659.3 146.1,659.7 		"/>
		<polyline class="st1" points="184,652.6 183.3,662.9 185.6,673.6 185.7,684.9 188,688.1 188.1,691.7 189.5,689.4 189.2,667.8 
			190.1,661.1 186.3,656.2 		"/>
		<line class="st1" x1="147.3" y1="614.4" x2="156.7" y2="610.2"/>
		<line class="st1" x1="149.3" y1="626.5" x2="162.5" y2="619.4"/>
		<polyline class="st1" points="105.2,472.5 110.4,466.3 112.3,465.5 134.9,466.3 147,463.3 150.9,465.1 156.2,469.6 159.1,470.1 
			162.5,468.6 167.3,464.3 168.8,461.7 167.8,460.7 166.7,461.5 		"/>
		<polyline class="st1" points="103.5,471.1 107.7,463.2 109,456.6 110.5,454 115.9,449.3 118.4,448.6 121.1,449.9 124.3,449.7 
			139.1,441.5 142.7,441.1 144.8,441.4 147.4,443.4 156.2,452 165.9,464.5 166.8,466.8 166.6,468.5 157.6,472.3 		"/>
	</g>
</g>
<g id="_x31_05-사람-2">
	<g>
		<polyline class="st1" points="320.1,425.5 312.6,420.8 312.4,410.3 313.2,407.8 315.1,406.1 323.8,402.2 332.5,400.6 337.2,400.5 
			340.2,401.6 343.6,403.5 347.3,406.8 348.6,411 348.7,415.2 347.5,420 343,429.6 336.4,433.6 331.3,433.1 324.1,430.4 319,426.7 
			317.9,422.6 319.7,422.5 320.3,423.2 		"/>
		<polyline class="st1" points="324,432.9 324.9,441.1 329.7,431.7 329.8,436.8 331.1,437.2 328.6,435.7 327.3,437 325.3,437.5 
			324.4,439 323.9,444.1 323.8,442 320.2,446 314.2,448.2 307.7,453.2 304.1,458.2 299.9,466.1 296.2,482 294.8,484.3 293.5,484.7 
			293.7,483.7 296.4,479.8 		"/>
		<polyline class="st1" points="337.7,440.2 337.5,439.5 345.4,443.2 348.9,444 358.7,444.3 361.8,445.2 368.5,448 372.5,452.3 
			376,457.5 378.9,467.8 378.8,486.9 378.6,487.9 376.4,487.2 		"/>
		<polyline class="st1" points="300.6,478.2 294.2,486 296.5,485.5 		"/>
		<polyline class="st1" points="307.7,480.3 308.4,488.5 303.8,495.9 302.3,508.3 298.6,510.2 300.3,508.1 300.7,505.2 297.6,500.5 
			293.4,502.6 293.6,503.8 292.8,502.5 282,498.7 281,496.6 283.8,493.6 283.5,496.2 284.8,496.3 290.2,492.7 292.5,490.1 
			291.2,489.6 291.4,486.6 298.4,486.3 304.1,483.4 		"/>
		<polyline class="st1" points="376,458.8 378.8,457.4 379.1,463.9 381.1,468.9 381.1,473.3 382.5,476.5 386.7,479.5 388,487.3 
			387.1,492.8 388.4,496.4 389.6,496.2 389.4,497.7 388.6,495.2 		"/>
		<polyline class="st1" points="322,470.6 314.3,475.9 313.4,482.5 310.7,486.2 316,482.7 322.8,476.2 324.8,475.3 325.4,481.9 
			324.6,488.3 325.3,499.5 324.3,507.2 325.7,509.9 327.6,507.1 		"/>
		<polyline class="st1" points="352.2,482 349.4,497.5 349.7,500.5 350.6,501.1 350.2,505 350.9,504.7 351.7,500.7 354.8,480.2 
			353.7,478.2 352.2,477.3 354.2,478.7 357,483.1 357.9,486.2 357.5,487.7 358.7,487.4 355.6,484.9 356.1,475 355.2,475.2 
			355.2,482.4 357.1,486.5 358.7,488 359.5,490.9 358,498.6 357.3,508.9 360.5,509.1 360.9,509.8 360.1,508.3 		"/>
		<polyline class="st1" points="363.8,481.8 371.8,480.4 374.5,481.6 376.3,483.5 377.6,486.7 386.1,488.9 388.1,493.4 391.1,492.7 
			394.7,489.5 		"/>
		<polyline class="st1" points="325.9,511.7 321.3,519.4 321.4,520.5 323,514.1 324.7,513.1 324.7,514.5 320.2,524.1 312,536.8 
			311.7,540.6 309.3,548.2 307.4,558.2 307,565.9 305.5,572.4 307,582.3 307.6,581 306.4,581.1 306.3,580.1 305.8,584 306.4,584.9 
			307.8,578.9 		"/>
		<polyline class="st1" points="338.2,533.4 330.8,537.8 327.7,543.8 326,552.2 323.1,560 324.3,566.4 324,573.1 323.2,574.7 
			318,579.3 317.8,582.1 318.2,581.7 317.6,579.1 		"/>
		<polyline class="st1" points="344.5,532.2 352,528.9 353,528.8 354.8,531.1 356.1,535.5 361.7,541.8 365.4,548.2 365.4,550.3 
			367.2,554.2 368.8,567.2 369.7,570.3 369.7,568.8 		"/>
		<polyline class="st1" points="359.2,510.2 359,509.7 361.5,509.6 361.7,512.9 364.7,518.3 371.1,524 375.3,531.1 383.1,538 
			385.5,546 385.4,556.5 386.7,563.4 387.8,565.3 387.6,573 384,579.9 382.1,581.2 377.8,580.8 374.2,579.4 373.4,577.3 
			374.3,571.7 378,569 380.1,573.3 374.4,574.7 		"/>
		<polyline class="st1" points="322.2,581.4 309.1,586.1 308.6,577.8 310.1,575.5 314.2,574.5 317.6,575.1 320.2,578.8 320.5,581.8 
			320.5,585.6 319.7,587 311,587.8 310.1,587 310,583.2 311,579.5 313.3,577.2 		"/>
	</g>
</g>
<g id="_x31_05-우산">
	<g>
		<polyline class="st1" points="134.6,340.2 137.6,332.3 147,319.8 158.7,308.2 163.9,304 190.8,290.1 217.5,278.4 237.7,273.8 
			267.8,270.5 283.5,270.9 300.1,272.9 312.9,276.8 338.2,287.2 344.9,293 355.5,309.5 361.1,324 367.9,338.4 370.1,350.8 
			375.3,363 374.7,363.7 369.7,363.6 		"/>
		<polyline class="st1" points="243.4,263.7 242.9,271.8 243.8,277.3 241.7,261.6 241.8,271.7 		"/>
		<polyline class="st1" points="135.7,393.5 143.5,391.1 164.3,376.6 181.4,368.8 202,362.8 229.4,357.3 245.8,356.3 261.5,354.2 
			268.8,354.1 284.6,355.1 299.3,357.1 337.7,356.7 371,363.8 376.4,363.6 379,362 376.2,361.6 		"/>
		<polyline class="st1" points="248.1,361.9 249.4,373.3 250.7,399.4 254,425.6 256.8,440.1 257.4,441.4 258.5,441.4 259.7,445.6 
			259.7,487.2 260.9,496.7 262.4,501.1 270.5,507.7 276.6,512 280.8,512.8 287.3,509 289.3,506.3 289.6,499 286.5,496.3 287,494.5 
					"/>
		<polyline class="st1" points="137.8,337.4 130.2,342.1 129.5,345.9 128.1,355.4 127.9,365.9 129.9,391.7 129.9,393.3 129.2,393.4 
			129.1,392.7 129.6,389.5 		"/>
	</g>
</g>
<g id="_x31_05-비">
	<g>
		<polyline class="st1" points="148,196.7 154.4,205 158.4,208.6 		"/>
		<line class="st1" x1="128.4" y1="247.1" x2="132" y2="255.6"/>
		<polyline class="st1" points="101.8,284.2 103.5,294.5 104.9,298.6 107.4,300 		"/>
		<line class="st1" x1="274.8" y1="193.6" x2="276.2" y2="204.4"/>
		<line class="st1" x1="359.5" y1="200.6" x2="366.6" y2="222.5"/>
		<polyline class="st1" points="425.7,289.7 428.1,299.2 431.6,307.9 		"/>
		<line class="st1" x1="91.1" y1="378.4" x2="94.8" y2="388.3"/>
	</g>
</g>
</svg>
