<?xml version="1.0" encoding="utf-8"?>
<!-- Generator: Adobe Illustrator 26.2.1, SVG Export Plug-In . SVG Version: 6.00 Build 0)  -->
<svg version="1.1" xmlns="http://www.w3.org/2000/svg" xmlns:xlink="http://www.w3.org/1999/xlink" x="0px" y="0px"
	 viewBox="0 0 535 757" style="enable-background:new 0 0 535 757;" xml:space="preserve">
<style type="text/css">
	.st0{fill:#FFFFFF;}
	.st1{fill:none;stroke:#000000;stroke-width:2;}
</style>
<g id="레이어_1" xmlns:ev="http://www.w3.org/2001/xml-events">
	<rect class="st0" width="535" height="757"/>
	<rect class="st0" width="535" height="757"/>
</g>
<g id="_x31_07-사람">
	<g>
		<polyline class="st1" points="224.3,324.8 214.2,325.5 211,319.1 209.2,302.1 211.5,291.7 215.5,283.2 224,270.6 230.2,263.2 
			234.9,258.3 238.1,256.7 241.2,256.3 247.3,258.7 261.9,268.3 265.9,272.8 269.2,278.1 271.1,284.3 271.6,294.6 269.8,299.7 
			265.9,304.6 248.4,321.2 230.8,331.7 226,332.9 224.6,330.6 224.6,329 227.8,327.8 228.9,325.3 227.6,326.4 226.9,328.2 
			227.6,328.4 220.7,328.5 218,336.1 215.6,358 211.4,382.3 210.4,396.3 210.5,413.2 213.3,437.3 216.9,455.7 222.1,475.9 
			224.4,479.8 227.3,481.2 234.6,480.5 237.8,478.4 241.1,475.8 248.6,465.1 251.6,459.1 253.7,452.5 254.6,445.8 257.7,381 
			256.2,377.2 254,374.3 248.6,369.8 243.7,367.8 242.4,368 242.3,369 243.1,378.4 		"/>
		<polyline class="st1" points="213.6,454.1 206.9,460.9 198,502.9 191.5,519.8 194.4,520 197.9,518.2 208.9,504.9 213.3,495.6 
			215.5,488 216.3,482 215.6,477.1 210.3,469.6 207.8,464 207.5,465.4 		"/>
		<polyline class="st1" points="252.6,457.3 251,458 251.1,457.1 254.1,453 266.5,475 288.3,503.5 293.4,509.4 296.6,512.2 
			297.9,512.3 298.3,510.3 295.3,492 292,481 280.4,462 273.1,454.5 268.8,451.2 268.2,451.8 		"/>
		<polyline class="st1" points="199.7,380.3 200.2,366.8 199.2,365.5 196.4,365 158.8,393.8 151.9,400 150.5,403.3 147.7,419.6 
			147,426.3 147.5,427 164.1,411.6 170.3,407.9 175.9,403.1 188.2,386.5 192.8,381.6 196.3,378.9 199.1,378.5 200.1,379.2 		"/>
		<polyline class="st1" points="277.2,373 262.7,373.8 257,376.6 278.5,376.4 294.1,379.5 310.2,380.7 318.2,380 322.1,377.7 
			322.8,375.3 322.5,368 320.3,361.8 315.2,355.2 310.7,351.8 298.3,351.5 293.8,352.5 287.9,355.7 284.7,358.8 280.2,361.3 
			266.3,366.3 261.2,366.7 250.5,365.7 248.4,365 247.7,363.6 		"/>
		<polyline class="st1" points="202.1,340.4 207,348.6 207.5,360.6 		"/>
		<polyline class="st1" points="203.3,418.5 197.9,429.3 201.1,431.1 		"/>
	</g>
</g>
<g id="_x31_07-비">
	<g>
		<polyline class="st1" points="301.7,246.2 294.7,241.8 297.3,242.1 301,244.4 		"/>
		<polyline class="st1" points="310.7,291.8 313.6,300.9 314.6,301.9 		"/>
		<line class="st1" x1="336.4" y1="395" x2="335.1" y2="408.3"/>
		<line class="st1" x1="326.1" y1="424.3" x2="329.9" y2="445.4"/>
		<polyline class="st1" points="341.6,470 349,491 351.5,495.5 		"/>
		<polyline class="st1" points="124.6,467.5 128.1,491.5 127.4,501.9 		"/>
		<polyline class="st1" points="119.1,530.2 115.5,540.6 117.6,542.2 		"/>
		<polyline class="st1" points="58.1,290.7 47.5,290 43.8,292.5 43.2,295.8 46.4,299.8 49.5,300.8 		"/>
		<polyline class="st1" points="76.1,383.6 71,390.4 71.9,392.1 		"/>
		<polyline class="st1" points="69.6,438.3 67.5,448.7 70.3,451.6 		"/>
		<polyline class="st1" points="87.4,487.6 91.4,516.8 91.9,530.4 90.2,543.7 84.5,556.1 83.3,556.4 		"/>
		<polyline class="st1" points="194.1,223.4 183.4,214.7 182.8,216 184.6,225.9 		"/>
		<line class="st1" x1="217.7" y1="527.3" x2="221.2" y2="540"/>
		<line class="st1" x1="228.9" y1="549" x2="238.4" y2="550.4"/>
	</g>
</g>
</svg>
