<?xml version="1.0" encoding="utf-8"?>
<!-- Generator: Adobe Illustrator 26.2.1, SVG Export Plug-In . SVG Version: 6.00 Build 0)  -->
<svg version="1.1" xmlns="http://www.w3.org/2000/svg" xmlns:xlink="http://www.w3.org/1999/xlink" x="0px" y="0px"
	 viewBox="0 0 535 757" style="enable-background:new 0 0 535 757;" xml:space="preserve">
<style type="text/css">
	.st0{fill:#FFFFFF;}
	.st1{fill:none;stroke:#000000;stroke-width:2;}
</style>
<g id="레이어_1" xmlns:ev="http://www.w3.org/2001/xml-events">
	<rect class="st0" width="535" height="757"/>
	<polyline class="st1" points="204.4,756.4 213.6,755.6 229.3,757.2 242.5,762.6 	"/>
	<polyline class="st1" points="386.1,636.5 387.5,647 386.7,657 387.4,658.4 	"/>
	<polyline class="st1" points="401.8,632.2 407.7,643.1 407.8,648.2 404.5,656.7 393.4,659.3 387.5,652.9 392,649.6 405.2,643.7 	
		"/>
	<polyline class="st1" points="422,626.8 424.9,642.9 424.9,653 422.7,669.7 420.1,669 	"/>
	<polyline class="st1" points="438.2,637.2 449.7,632.5 451.6,635.4 453,645.3 447.3,655.5 444.2,655.2 	"/>
	<polyline class="st1" points="442.5,646.3 442.9,655.3 442.1,658.5 436.9,662.4 436.5,663.7 	"/>
	<polyline class="st1" points="437.7,638 445.5,635.2 455.8,633.3 446.7,652.6 439.7,663.6 437.7,662.4 438.8,657.7 	"/>
	<polyline class="st1" points="473.8,621.6 470.9,629.5 470.2,648.6 468.5,666.1 	"/>
	<polyline class="st1" points="472,646.8 483.7,640.9 491,640.1 491.4,642.1 	"/>
	<polyline class="st1" points="402.6,682.4 407.4,692.8 405.9,700.7 392,704.9 422,691 421.9,691.8 	"/>
	<polyline class="st1" points="399.3,678.2 394.1,686.4 394.5,687.5 403,682 403.6,678.6 398.1,674.4 392.6,677.6 392.2,683.8 
		396.1,683.4 	"/>
	<polyline class="st1" points="407.4,706.6 404.6,717.1 406,719.1 407.3,718.2 	"/>
	<polyline class="st1" points="418.9,700.2 420.1,710.9 418.8,713.9 415.6,714.3 405.2,708.1 425.9,700 435.6,685.6 434.2,693.1 
		438.1,701.5 444.9,694 449.9,681.3 450.3,712.6 	"/>
	<polyline class="st1" points="456.2,693.6 464.5,687 470.5,679 465.3,694.7 465.6,701.1 467.9,700.7 473.4,695.1 480.9,683.4 
		483.7,681.7 485,698.8 495.3,697.5 514.3,681.3 	"/>
	<rect class="st0" width="535" height="757"/>
</g>
<g id="_x31_08-사람">
	<g>
		<polyline class="st1" points="211,469.1 203.5,472.4 198.1,480.6 196.5,487.5 199.7,491.8 200.8,498.3 198.1,502.7 189.7,509.2 
			183.8,515.2 182.4,515.7 185.9,516.6 189.2,516.4 190.7,517.1 188.5,517.8 201.6,520.3 210.9,518.7 214.4,516.4 213.1,516.2 
			212.1,517.7 		"/>
		<polyline class="st1" points="197.1,525 195,533.1 198.2,542.6 201.5,549 208,556.9 213.9,561.7 222.3,564.4 236.3,564.6 
			247.7,562.6 252.9,559.9 261.7,551.5 270.4,534.5 		"/>
		<polyline class="st1" points="210,457.3 199.2,460.6 196.9,465.1 		"/>
		<line class="st1" x1="213.6" y1="460.5" x2="204" y2="476.1"/>
		<line class="st1" x1="238.1" y1="467.4" x2="232.8" y2="478.2"/>
		<line class="st1" x1="226.7" y1="464.3" x2="221.7" y2="476.6"/>
		<line class="st1" x1="229.2" y1="464.5" x2="223.8" y2="476.5"/>
		<polyline class="st1" points="211.7,454.9 225.2,449 236.8,446.9 254.2,447.2 261.3,448.2 264.7,449.1 270.7,452.5 280.1,466.5 
			284.6,482.6 283.8,513.3 281.8,523 280.2,526.6 273.4,530.5 		"/>
		<polyline class="st1" points="242.5,462.6 247.3,474.9 245.7,481.8 		"/>
		<line class="st1" x1="258.7" y1="472.7" x2="257.3" y2="488.6"/>
		<polyline class="st1" points="263.2,477 263,488.8 263.7,493.1 264.5,494.1 		"/>
		<polyline class="st1" points="223.3,573.9 218.1,586.4 216.2,592.9 		"/>
		<polyline class="st1" points="251,563.8 249.4,574 250.2,580.7 		"/>
		<polyline class="st1" points="244.2,589.2 253.2,586.2 264.2,585 270.9,585.6 276.4,587.7 291.3,597.1 300,606.8 305.5,615.1 
			309.7,624.9 312.6,636.2 313.8,651 		"/>
		<polyline class="st1" points="212,595.3 205.1,616 203.7,632.1 		"/>
		<polyline class="st1" points="206.5,631.2 198,641.5 194.7,643.8 187,646.2 181,644 175.1,638.3 169.3,632 162.3,615.6 
			159.7,601.6 159.2,595.5 160.1,587 158.7,584.3 159.6,586.2 		"/>
		<polyline class="st1" points="141.2,593.7 147.9,606 152.5,631.8 154.3,636 158.6,640.9 168.3,641.5 		"/>
		<polyline class="st1" points="143.9,595.8 141.3,586.5 146.4,582.4 157.4,579.1 162.5,580.4 161.2,584.6 156.1,589.9 		"/>
		<polyline class="st1" points="146.2,569.2 148.9,557 157.6,545.4 159.9,551.9 159.3,561.5 160.1,561.5 		"/>
		<polyline class="st1" points="166.5,556.2 166.7,567.1 166.7,563.3 167.8,560.6 168.1,565.9 167,574.2 		"/>
		<polyline class="st1" points="168.5,529.8 163.5,549.1 162,552.9 159.9,555.2 		"/>
		<line class="st1" x1="169.3" y1="555.8" x2="168.4" y2="545.6"/>
		<line class="st1" x1="177.2" y1="645.8" x2="187.3" y2="648.4"/>
		<polyline class="st1" points="260.1,617.1 273,619.8 282.2,627.2 285.7,634.6 286.9,642.8 289.5,652.8 294.9,667.6 		"/>
		<line class="st1" x1="288.6" y1="667.8" x2="319.7" y2="658"/>
		<polyline class="st1" points="306.5,670.7 306.1,683.5 309,693.2 310.4,697 310.4,695.1 		"/>
		<polyline class="st1" points="315.9,667.1 316.2,678.5 317.5,687.2 319,694.4 322.4,701.6 		"/>
		<polyline class="st1" points="198.5,636.5 200.5,650.9 199.2,676.2 201.1,678.6 205.6,679.2 214,677.1 229.5,676 258.1,677.5 
			285.2,674.9 290.2,676.9 		"/>
		<polyline class="st1" points="217.2,679.5 213.5,693.5 206.7,763.5 207.1,764.8 207.5,764.4 		"/>
		<polyline class="st1" points="251.6,681.3 248.7,689.3 245.1,714.2 241.9,759.5 240.8,763.5 		"/>
		<polyline class="st1" points="273.4,678.8 282.4,682.6 283.6,684.3 286,693.4 292.5,757.1 296.4,778.3 		"/>
		<polyline class="st1" points="257.5,677.7 255.4,674.9 258.5,681.7 260.6,691.5 261.3,706.2 265.5,732.8 273.3,760.3 		"/>
	</g>
</g>
<g id="_x31_08-우산">
	<g>
		<polyline class="st1" points="355.9,304.5 344.4,311.5 339,326.4 		"/>
		<polyline class="st1" points="68.9,431 70.4,418.1 72.3,410 78.4,392.6 88.1,370.1 101.5,343.8 110.6,329.5 125.9,312.5 
			131.7,307.4 138,303.1 152,296.5 172.4,289.5 188.9,286.2 246.8,280.6 254.8,280.7 268.8,283.7 305.8,296 321.1,304.3 
			336.1,314.4 344.9,321.7 360.8,338.6 387.1,373.5 390.9,380.5 393.6,388.1 398.3,408.2 397.5,410.4 397.1,408.4 		"/>
		<polyline class="st1" points="219.5,286.3 223.2,277.8 223.3,269.3 224.6,266.4 228.5,265.2 231.2,267.5 235,274.6 235.1,281.3 
			233.6,283.2 229.4,283.6 228.4,280.3 		"/>
		<polyline class="st1" points="77.2,435.9 81.2,428.9 83.4,428.1 82.3,428.4 		"/>
		<polyline class="st1" points="83.3,428.9 84.2,426.8 94.2,422 109.1,421.1 124.8,416.2 134.5,414.4 179.5,409.3 229.5,401.6 
			262,398.6 277.9,398.1 302.2,397.8 309.9,398.5 337.2,406.7 387.9,417.5 394,420.4 394.4,421.4 		"/>
		<line class="st1" x1="140.1" y1="399.6" x2="131.6" y2="419.1"/>
		<polyline class="st1" points="208.3,404.1 207,404.9 207.7,404.6 207.4,403.3 206,400.8 205.5,401.6 206,409.6 207.3,410.7 
			209.1,408.6 210,402.5 209.2,400.6 208.1,400.5 206.4,403.7 208.8,407.1 		"/>
		<polyline class="st1" points="210.6,413.9 206.2,424 199,462.9 		"/>
		<polyline class="st1" points="189.6,460.9 187.6,472.6 182.1,488.2 177.1,506.1 171.1,532 		"/>
		<line class="st1" x1="267.9" y1="346" x2="263.1" y2="356.4"/>
		<line class="st1" x1="332.8" y1="361.3" x2="325.3" y2="361"/>
		<polyline class="st1" points="71.5,437.9 78.4,432.3 80,429.6 		"/>
	</g>
</g>
<g id="_x31_08-비">
	<g>
		<line class="st1" x1="180.6" y1="98.7" x2="178.1" y2="111.9"/>
		<polyline class="st1" points="233.8,90.4 227,105.3 226,111.2 		"/>
		<polyline class="st1" points="273.1,114 269.1,121.9 263,155.1 		"/>
		<polyline class="st1" points="306.1,151.1 302.5,167.1 301.6,178.3 		"/>
		<polyline class="st1" points="336,172.1 330.8,188.2 330.8,197.9 		"/>
		<polyline class="st1" points="346.5,252.4 343.2,265.8 343.9,272.6 		"/>
		<line class="st1" x1="90.5" y1="93.2" x2="87.1" y2="103.8"/>
		<polyline class="st1" points="46.4,54 44,65.3 44.3,71.9 		"/>
		<polyline class="st1" points="147.1,30.6 145.7,45.8 151.9,61.1 		"/>
		<polyline class="st1" points="236.7,26.6 235.7,37.2 236.6,50.8 237.9,57.8 		"/>
		<polyline class="st1" points="289.8,51.8 295.2,60.7 299,64.6 		"/>
		<line class="st1" x1="368.4" y1="52.8" x2="379.6" y2="72.9"/>
		<line class="st1" x1="458.1" y1="53.3" x2="452.1" y2="66.7"/>
		<polyline class="st1" points="414.4,136.4 410.6,145.4 411.9,158.9 		"/>
		<polyline class="st1" points="463.6,143.4 462.7,155.3 463.4,160.9 		"/>
		<polyline class="st1" points="470.8,207.5 469.6,225 470.6,230.7 		"/>
		<line class="st1" x1="58" y1="176.5" x2="49.9" y2="194.3"/>
		<polyline class="st1" points="57.5,188.7 50,191.8 50.4,200.9 		"/>
		<line class="st1" x1="166.1" y1="229.1" x2="162.8" y2="239.3"/>
		<line class="st1" x1="67.7" y1="262.8" x2="63.2" y2="277.3"/>
		<line class="st1" x1="199.7" y1="185" x2="195.6" y2="194.1"/>
		<line class="st1" x1="140.9" y1="188.5" x2="129.1" y2="194"/>
	</g>
</g>
</svg>
