<?xml version="1.0" encoding="utf-8"?>
<!-- Generator: Adobe Illustrator 26.2.1, SVG Export Plug-In . SVG Version: 6.00 Build 0)  -->
<svg version="1.1" xmlns="http://www.w3.org/2000/svg" xmlns:xlink="http://www.w3.org/1999/xlink" x="0px" y="0px"
	 viewBox="0 0 535 757" style="enable-background:new 0 0 535 757;" xml:space="preserve">
<style type="text/css">
	.st0{fill:#FFFFFF;}
	.st1{fill:none;stroke:#000000;stroke-width:2;}
</style>
<g id="레이어_1" xmlns:ev="http://www.w3.org/2001/xml-events">
	<rect class="st0" width="535" height="757"/>
	<rect class="st0" width="535" height="757"/>
</g>
<g id="_x31_10-지면">
	<g>
		<polyline class="st1" points="98.3,436 106.2,437.7 113.6,434.6 122.2,433.7 132.1,435.9 157.9,431.7 171.6,428.1 188.8,428.1 
			217.6,425.6 256.7,419.8 285.4,418.8 356.9,414.1 382.2,405.8 388.3,404.7 399.2,404.2 430,395.6 433.9,395.5 432.5,395.2 
			432.1,396.8 434.9,399 434,397.2 424.1,392.5 415.6,390.7 412.7,388.6 412.1,389 413.8,396.1 416,401.5 409.4,397.2 401.7,396 
			405.3,409 		"/>
		<polyline class="st1" points="394.9,406.3 385.7,400.1 381.8,398.6 380.5,399.6 383.1,412.4 368.5,406.1 		"/>
		<polyline class="st1" points="360.1,408.6 351,415.1 350.8,417.2 		"/>
		<polyline class="st1" points="344.1,409.6 333.1,411.1 331.8,413.7 333.5,418.3 336.9,419.4 337.5,421.7 		"/>
		<line class="st1" x1="181.9" y1="438.7" x2="176.6" y2="429.5"/>
		<polyline class="st1" points="178,425.3 170.7,430.9 167.7,436.9 167.2,436.2 		"/>
		<polyline class="st1" points="157.3,427.8 148,430.6 146.8,431.3 146.6,432.7 147.2,432.9 		"/>
		<polyline class="st1" points="144.4,434.3 143.1,434.2 142.4,435.4 141.6,439.5 140.6,437.8 		"/>
		<polyline class="st1" points="130.5,426.6 123,435.3 117.9,438.9 115.8,438.2 		"/>
		<polyline class="st1" points="118,436.6 109.4,444.1 115.4,443.7 		"/>
	</g>
</g>
<g id="_x31_10-사람">
	<g>
		<polyline class="st1" points="270.1,206.1 268.1,198.3 265.6,196.6 263.2,197.6 256.4,196.7 253.6,197.4 251.2,198.6 247,202.4 
			245.2,205.8 244.2,217.3 246.3,221.5 250.1,224 253.9,224.8 259.3,224 266.5,221.3 268.9,217.5 267.6,212.6 266.1,210.9 
			262.7,209.3 262,211.2 264,216.1 262.7,217.3 259.8,225.1 246.8,233.1 241.2,240.5 240.5,241 240.5,240.1 240.1,243.4 
			239.2,243.6 239.2,242 244.6,240 258.8,240.1 275,237.2 278,235.8 266.1,225.6 264.3,225.4 261.6,226.7 260.5,228.6 260,232.8 
			256.9,233 248.1,241.4 240.6,251.7 235.3,262.4 237.4,256.4 236,256 234,258.6 233.4,264.6 235.9,289.7 233.8,302.9 233.7,302.1 
			232.9,302.2 234.4,315.9 234.4,323.3 233.3,328.7 238.2,318.7 		"/>
		<polyline class="st1" points="272.3,242.1 280.3,242.9 285.8,245.7 286.7,245.6 287.1,243 283.2,244.6 283.2,251.4 287.9,264.7 
			294.4,279.2 295.5,287.2 295.5,298.3 293.8,302.7 292.7,315.1 291.3,316.8 289.5,316.7 289,315.1 290,312.6 		"/>
		<polyline class="st1" points="227.2,327.5 234.6,333 241,334.7 256.8,332.3 273.5,327.9 280.4,324.3 283.4,324.2 285,325.2 
			284.5,326.8 288.7,333.9 287.1,341.2 287.7,356 289.5,368.1 288,380.1 285.8,376.3 		"/>
		<polyline class="st1" points="260.9,334.5 256.9,344.3 257.1,352.3 255.7,363.8 256.2,366.6 255.5,369.5 255.2,386 254.9,386.6 
			253.9,383.5 253.8,380 255.2,378.1 		"/>
		<polyline class="st1" points="239.5,337.4 233.8,343.3 233.7,370.7 235.4,384.6 234.8,383.9 234.1,387.1 232.8,389.1 229.4,390.9 
			228.5,393.4 229.9,394.1 229.2,396.4 223,401.4 218.9,403.1 215.9,405.9 212.5,414.4 219.9,415.8 223.2,414.6 234.9,408.7 
			238.9,405.3 250.5,400.1 250.9,396.6 251.8,395.2 251.3,396.3 251.8,396 252.8,397.4 250.7,400.3 252.3,401.9 253.9,402.2 
			255.2,404.5 263.7,404.2 265.1,402.2 		"/>
		<polyline class="st1" points="289.4,388.1 281.2,388.8 272.9,399.7 271,403.6 271.5,405.3 277.8,409.4 283,409.2 296.7,405.5 
			300.7,403.8 304.9,400.8 305.2,399.2 302.8,390.7 298.9,386.2 296.4,381.7 295.7,377.2 293.6,373.1 		"/>
		<polyline class="st1" points="283.5,260 287.3,251.1 286,246.2 286,247.8 288.6,247.8 291.6,246.3 292.8,249.6 295.2,251.9 
			301.1,254.3 307.1,261.2 314.7,272.2 320.2,284.7 319.6,291.2 317.2,292.5 312.1,291.5 		"/>
		<polyline class="st1" points="284.6,261.4 283.1,262 285.3,259.7 286.2,265.6 297,278.4 302.8,297.6 302.3,312.1 304,310.6 
			304.9,312.3 303.6,316.7 305.5,317 310,315.7 314.2,316 314,312.6 316.8,305.7 317.8,300.9 316.9,295.8 313.1,286.4 312.7,291.7 
			309.5,296.2 308.6,295.8 305.9,290.4 302.8,286.6 		"/>
		<polyline class="st1" points="240.7,260 232.1,255.5 227.8,254.8 212.5,261.3 205.9,267.1 203.1,271.1 198.7,280.3 197.9,292 
			195.4,304.1 195.4,308.3 197.5,317.5 197,329.7 197.9,340.6 203.2,327.3 		"/>
		<polyline class="st1" points="229.3,274.6 220.4,273.2 218.1,274 212.5,280.7 210.1,285 208.3,296 203,304.8 201.2,328.4 
			198.1,331.7 196.4,335.5 193.7,331.6 191.2,330.5 196.6,330.6 196.7,333.4 		"/>
	</g>
</g>
<g id="_x31_10-비">
	<g>
		<polyline class="st1" points="172.2,80.8 167.2,88.1 167.1,90.7 171.1,95.6 		"/>
		<polyline class="st1" points="170.5,108.8 167.3,119.7 167.7,124.8 169.6,122.3 		"/>
		<polyline class="st1" points="147,69.3 140.5,64.5 142.4,73.8 142.2,77.3 139.4,81.8 		"/>
		<polyline class="st1" points="137,99.9 134.3,108.3 135.3,113.4 137,117 		"/>
		<polyline class="st1" points="133,135.9 131.2,149.5 131.5,151.5 		"/>
		<polyline class="st1" points="135.5,162.1 133.5,173.9 134.7,180.5 135,181 136.5,180.2 		"/>
		<polyline class="st1" points="205.1,65.5 201.5,72.9 201.6,77.1 		"/>
		<polyline class="st1" points="195.4,100.3 193.3,114.1 193.3,117.4 194.7,118.2 		"/>
		<polyline class="st1" points="192.1,139.1 190.3,147.5 191.7,146.6 		"/>
		<line class="st1" x1="185.8" y1="166" x2="181.8" y2="176.9"/>
		<polyline class="st1" points="252.7,41 251.8,51 247.9,56.2 245.9,60.7 246.6,63.7 		"/>
		<polyline class="st1" points="247.7,94.2 244.2,103.4 245.4,112.7 246,114.1 248,115.5 		"/>
		<line class="st1" x1="273.9" y1="69.9" x2="271.8" y2="82.9"/>
		<polyline class="st1" points="378.9,62.6 375.7,70.9 375.9,83.4 		"/>
		<line class="st1" x1="382.1" y1="114.4" x2="381.2" y2="125.8"/>
		<polyline class="st1" points="385.5,152.3 384.5,160.9 383.1,163.9 384.1,166.7 		"/>
		<polyline class="st1" points="388.4,168.6 387.5,177 386.1,180.8 		"/>
		<line class="st1" x1="385" y1="206.2" x2="386.1" y2="214.7"/>
		<polyline class="st1" points="360,189.4 357.2,197 356.1,202.8 		"/>
	</g>
</g>
<g id="_x31_10-우산">
	<g>
		<polyline class="st1" points="268.8,134.6 263.2,128.7 258.4,129.1 245.2,135 228.4,146.6 216.8,156.7 208,168.9 200.5,176.5 
			197.2,187.9 197.4,195.1 196.6,196.1 196.8,191.8 201.6,179 209.4,166.6 220.1,153.3 243.5,135.6 255.7,130.7 260.9,129.4 
			277.5,129.8 287.3,133.5 297.3,135.9 301.2,137.8 305.1,140.1 332.2,160.9 339.5,167.7 345.1,171.7 346.6,178.4 344.8,177.2 
			337.1,175.9 335.3,174.9 335.3,176.3 333.8,177.5 328.8,176.8 326.1,177.5 324,174.2 319.1,171.3 316,168.4 312.1,166.4 
			305.1,164.5 300.6,161.4 298.4,156 294.1,151.5 282.8,147.6 276.6,147.4 268.5,149.9 248.7,162.5 244.1,166.3 234.7,177 
			219.6,189.4 214,197.6 205.3,208 202.9,209 201.4,208.7 198.6,202.7 198.4,201.4 199.9,198.8 		"/>
		<line class="st1" x1="258.7" y1="172.8" x2="251.6" y2="178.2"/>
		<polyline class="st1" points="262.6,154.7 257,162.8 257.2,174.9 258.5,182.9 257.8,202.4 258.7,212.5 258.1,225.7 256.8,227.5 
			256.1,231.8 256.1,250.3 257.1,255 255.8,268.1 256.2,286.3 255.4,295.2 257.3,298.8 256.8,305 258.9,301.8 259,299.6 
			258.3,299.8 		"/>
		<polyline class="st1" points="271.3,167.2 268.4,158.8 266.5,160 265.8,162.9 264.5,176.8 265.1,184.9 263.4,196.2 262.4,212.5 
			260.5,224.6 260.1,240.8 258.5,253.4 256.4,262.3 256.5,280.1 253.9,293.6 252,297.9 252.1,300.6 252.6,300.1 252.1,298.7 
			252.8,295.7 		"/>
	</g>
</g>
</svg>
