<?xml version="1.0" encoding="utf-8"?>
<!-- Generator: Adobe Illustrator 26.2.1, SVG Export Plug-In . SVG Version: 6.00 Build 0)  -->
<svg version="1.1" xmlns="http://www.w3.org/2000/svg" xmlns:xlink="http://www.w3.org/1999/xlink" x="0px" y="0px"
	 viewBox="0 0 535 757" style="enable-background:new 0 0 535 757;" xml:space="preserve">
<style type="text/css">
	.st0{fill:#FFFFFF;}
	.st1{fill:none;stroke:#000000;stroke-width:2;}
</style>
<g id="레이어_1" xmlns:ev="http://www.w3.org/2001/xml-events">
	<rect class="st0" width="535" height="757"/>
	<rect class="st0" width="535" height="757"/>
</g>
<g id="_x31_19-사람">
	<g>
		<polyline class="st1" points="274.7,211.5 266.2,210.7 250.6,218.7 242.8,224.1 236.7,232.4 226.4,252.9 225,259.3 225.6,265.5 
			229.3,283.2 230.4,294.9 239.7,303.1 250.6,315.3 264.8,316.2 274.9,320.3 280.1,321.6 288.5,321.2 297.3,315.5 311,310.2 
			315.9,307.4 323,300.2 324.6,292.2 324.5,274.3 318.3,239.1 317,235.6 312.3,228.9 298.9,214.5 280.2,204.5 276,203.5 
			272.2,204.1 262.9,212.2 		"/>
		<polyline class="st1" points="255.7,252.6 262.9,246 266.5,247 272.8,245.6 274.2,247.9 		"/>
		<polyline class="st1" points="295.4,243.3 309,234.9 300.5,242.7 		"/>
		<polyline class="st1" points="274.9,256.8 266.8,260.8 263,263.9 265.5,267.2 270.2,267.3 272.5,261.7 272,260.2 		"/>
		<polyline class="st1" points="306.9,253.1 300.1,257.3 299.8,261.3 305.9,267 306.9,265.7 308,257.2 306.7,252.8 303.3,249.9 
			296,248.3 294.5,249.1 		"/>
		<polyline class="st1" points="287,251.4 294.2,258.3 292.9,266.8 295.1,268.1 294.4,264.3 295.7,257.4 		"/>
		<polyline class="st1" points="284.1,287.5 300.2,276.9 302.2,278.6 304.6,278.5 311.6,275.8 310.4,279.1 311.9,279.5 311.7,278.5 
			309.8,279.5 306.2,279.7 295.9,285.4 295.4,285.5 294.7,282.4 291.9,280.6 286.9,280.1 280,283.3 		"/>
		<polyline class="st1" points="235.1,236.4 234,236.1 232.7,232.9 233.8,227 237.5,221 240.9,219.1 246.2,217.6 258,218.3 
			260.4,223 260.9,233.9 		"/>
		<polyline class="st1" points="259.5,213.1 260.4,203.9 264.2,199.4 268.5,195.6 273.2,193 280.7,193 		"/>
		<polyline class="st1" points="296.8,195.9 302.3,208.4 302.3,216.4 		"/>
		<polyline class="st1" points="301.6,203.8 310.8,203.7 314.6,206.4 327.3,209.2 		"/>
		<polyline class="st1" points="231.5,253.7 231.1,242.1 227.4,232.8 226.7,228 227.1,222.3 228,221.9 232.2,222.7 		"/>
		<polyline class="st1" points="243.8,214.9 247.4,207.2 255.2,199.8 260.4,197 261.7,202.5 261.4,210 259.1,221.6 		"/>
		<polyline class="st1" points="232.1,245.7 233.6,235.8 231,234.9 221.3,239.8 212.7,252.7 211.8,259.3 		"/>
		<polyline class="st1" points="233.4,251.8 222.8,264.1 219.5,269.6 218.9,273.7 238.3,281.9 		"/>
		<line class="st1" x1="283.1" y1="325.8" x2="280.7" y2="337.5"/>
		<polyline class="st1" points="304.2,314.3 299.9,321.2 298.8,329.8 		"/>
		<polyline class="st1" points="233.9,350.4 238.6,343.3 248.1,343 254.6,340.1 269.1,337.2 278.3,331.8 281.5,331.9 290.6,335.3 
			296.4,333.3 309.4,326.1 312.1,325.9 315.6,329.8 317.6,334.5 		"/>
		<polyline class="st1" points="318.5,332.5 323.3,325.7 329.8,331.6 343.2,331.9 347.5,336.6 349.3,345.1 355,346.1 358.5,349.3 
			361,362.1 362.8,364.9 368.2,368.2 371,371.1 375.6,387.2 377.7,388.5 383.1,389.5 		"/>
		<polyline class="st1" points="244.4,346.2 242.3,356.6 234.6,364.9 221.8,376.5 216.5,387.9 214.8,394.6 209.6,404.2 198.6,410.6 
			198.3,419.2 201,422.3 		"/>
		<polyline class="st1" points="245.3,375.9 244.2,385.5 236.6,397.3 235,406 235.3,410 232.8,417.5 227.5,421.3 212.6,423.9 
			208.4,422.5 209.5,421 215.2,421 		"/>
		<polyline class="st1" points="278.3,375.1 273.5,389.7 271.9,398 271.5,416.2 277.3,432.6 280.7,453.8 286.1,454.8 296.7,455 		
			"/>
		<polyline class="st1" points="317,374.4 323.1,380.7 323.5,391.5 326.5,400.5 333.1,409.9 334.4,416.6 327.6,437 322.9,445.4 
			314.7,452.5 313.8,452.4 		"/>
		<polyline class="st1" points="335.4,364.5 338.5,373.6 343.6,380.3 344.5,385.5 345.8,407.9 354.7,410 372.3,404.7 381.1,407.6 		
			"/>
		<polyline class="st1" points="372.5,399.8 372.2,408.1 370.3,412.8 378.5,417.1 385,418.5 385.8,418.1 385.8,415.5 389.1,416.9 
			378.8,400.3 377,400.9 		"/>
		<polyline class="st1" points="208.3,420.4 199.3,427.6 194.2,433.4 207.8,436.9 216.6,436.8 217.3,434.3 215.2,432 206.4,426.6 		
			"/>
		<polyline class="st1" points="204.5,437.7 213.3,437.2 212.9,441.7 211.4,445.4 		"/>
		<polyline class="st1" points="287.9,455.1 288.1,450.9 286.9,451.1 286.8,452.1 288.1,463.3 286.8,465.9 282.8,469.6 280.4,474.1 
			279.6,479.6 275.8,486.8 265.3,497.6 265,510.4 261.6,517 259.5,523.6 255.9,539.1 256.2,540.9 259.8,543.6 267,541.5 
			266.4,540.9 269.4,541.1 270,538.9 273.5,535 270.6,529 270.5,527.3 279.1,508.3 288.7,494.2 289.3,488.8 286.2,481.9 
			286.4,476.8 288.5,475.6 289.7,473.7 289.3,468.8 293.3,461.5 298.1,460.5 		"/>
		<polyline class="st1" points="315.7,453 322.4,462.4 323.7,469.8 328.1,482.1 343.5,499.7 352.4,515.5 354.7,526.2 		"/>
		<polyline class="st1" points="332.2,444.8 332,436.6 333.1,437.8 332.1,446.4 346.6,466.7 351.7,475.2 354.3,481.7 355.1,486.9 
			358.1,491.2 363.1,496.3 364.7,503.1 363,512.2 367.4,513.5 370.3,516.8 363.9,528.9 359,536.3 361.7,542.5 362.7,543.2 		"/>
		<polyline class="st1" points="271.5,535.9 275.8,532.4 280.4,534.8 286.4,536.6 289,536.2 291.3,533.6 289,532.7 287.6,534.4 
			289.5,537.2 285.1,546 283.3,546.4 278.9,545.3 272,545.3 265.8,541.1 261.7,539.8 261.1,542.8 		"/>
		<polyline class="st1" points="355,527.2 363.5,522.9 379.2,521.7 386.8,516.9 390,517.4 389.2,519.3 392,522 388.7,522.5 
			382.1,526.3 376.1,528.1 361.1,526.6 		"/>
		<polyline class="st1" points="277.3,454.9 273.6,469.2 278.2,485.3 278.9,491.7 		"/>
		<polyline class="st1" points="305.4,451.9 303.3,462 299.5,475.1 297.2,490.2 		"/>
	</g>
</g>
<g id="_x31_19-비">
	<g>
		<line class="st1" x1="161.7" y1="57.5" x2="166.5" y2="65.8"/>
		<line class="st1" x1="163.5" y1="96.1" x2="171.2" y2="100.5"/>
		<polyline class="st1" points="171.7,110.1 179.2,117.7 179.9,121.2 		"/>
		<polyline class="st1" points="217.8,52.9 224.2,44.3 228.6,41.3 232,43.7 226.4,56.9 217.6,69.6 216.5,74.8 224.6,76.7 
			232.9,85.7 231.4,106.4 228.8,126.4 230.9,132.3 		"/>
		<polyline class="st1" points="295.8,47.5 298.8,58.3 289.6,73.5 292.4,81.6 300.3,87.4 304.1,98.4 303.6,107.9 301.9,112.9 
			302,116.7 309.7,125.9 		"/>
		<polyline class="st1" points="378.9,53.3 367.8,63.8 356.9,81.8 		"/>
		<polyline class="st1" points="348.7,91.5 357.9,100.9 360,113.5 358.8,124.7 351.3,157 		"/>
		<polyline class="st1" points="274.6,136.1 277.3,156.3 282.7,176.5 290.8,185.5 		"/>
		<polyline class="st1" points="218.8,158.9 219.1,172.5 232.8,192.8 233.8,196.6 243.5,206.7 		"/>
		<polyline class="st1" points="139.9,114.6 153.5,129 155.8,139.7 154.7,142.7 157.1,147.7 168.7,154 178.4,164.2 177.1,187.7 
			194.3,198 200.9,203 		"/>
		<polyline class="st1" points="119.8,114.2 121.3,128.8 121.3,140.1 126.2,171.9 133.3,184.8 141.8,190.1 159.6,189.5 169.4,199.8 
			172.7,231.1 175.2,231.7 		"/>
		<polyline class="st1" points="406.9,96.5 408.2,88 409.7,86.6 410.6,87.4 407.8,98.8 391.8,118.6 372,137.6 360.8,156.6 
			368.1,164.8 374.6,169.2 375,175.4 374,186.6 368,199.1 		"/>
	</g>
</g>
</svg>
