<?xml version="1.0" encoding="utf-8"?>
<!-- Generator: Adobe Illustrator 26.2.1, SVG Export Plug-In . SVG Version: 6.00 Build 0)  -->
<svg version="1.1" xmlns="http://www.w3.org/2000/svg" xmlns:xlink="http://www.w3.org/1999/xlink" x="0px" y="0px"
	 viewBox="0 0 535 757" style="enable-background:new 0 0 535 757;" xml:space="preserve">
<style type="text/css">
	.st0{fill:#FFFFFF;}
	.st1{fill:none;stroke:#000000;stroke-width:2;}
</style>
<g id="레이어_1" xmlns:ev="http://www.w3.org/2001/xml-events">
	<rect class="st0" width="535" height="757"/>
	<rect class="st0" width="535" height="757"/>
</g>
<g id="_x31_20-사람">
	<g>
		<polyline class="st1" points="359,546.4 351.3,543.8 329.9,550.2 327,551.5 323.7,554.5 320.5,563.3 318.6,574.7 318.4,588.3 
			320.3,594 326.6,603.9 337.3,610.5 346.2,612.2 		"/>
		<line class="st1" x1="359.1" y1="547.3" x2="363.4" y2="546.7"/>
		<polyline class="st1" points="372.9,554.1 378.7,570.6 378.9,577.1 376.3,586.3 371,596.3 354.8,613.8 350.6,616.9 		"/>
		<polyline class="st1" points="347.8,610.1 347.3,636 349.8,661 		"/>
		<polyline class="st1" points="358.8,607.1 359.1,622.9 362.3,644.1 365.2,654.6 		"/>
		<polyline class="st1" points="349.5,639.4 323.3,644.9 300.8,652.7 		"/>
		<polyline class="st1" points="309.3,684.3 317.5,700.9 330.9,718.9 		"/>
		<polyline class="st1" points="364.4,635.8 374.1,637.3 389.3,638.4 409.6,637.5 		"/>
		<polyline class="st1" points="417.3,634.4 411.4,642.2 389.4,700.1 		"/>
		<polyline class="st1" points="338.2,712.6 346.5,715.2 381,710.9 		"/>
		<polyline class="st1" points="365,714.2 350.1,740.9 336.2,768.8 		"/>
		<polyline class="st1" points="373,713.5 380.6,721 390.5,764.4 		"/>
		<line class="st1" x1="349.9" y1="750.4" x2="394.6" y2="741"/>
		<polyline class="st1" points="366.4,750.1 360.2,756.5 359.8,771 361.3,774.1 		"/>
		<polyline class="st1" points="382.2,750.6 374.7,747.6 373.6,750.4 374.3,760.4 378.6,770.9 		"/>
		<polyline class="st1" points="344.2,643.5 337,650.6 324.6,690 326.2,690.3 		"/>
		<polyline class="st1" points="374.9,647.1 384.3,651.5 390.7,656.3 396.9,662 402.2,670.8 		"/>
		<polyline class="st1" points="352,562.7 360.3,560.6 364.8,560.9 		"/>
		<polyline class="st1" points="341.4,565.6 331.3,568.1 329.7,569.7 		"/>
		<line class="st1" x1="347.4" y1="572.8" x2="349.9" y2="582.1"/>
		<line class="st1" x1="346.4" y1="598.6" x2="355" y2="593.3"/>
		<polyline class="st1" points="317.7,585 314.2,583.4 313,580.1 312.2,571.3 313.2,558.6 317.3,544.7 320.3,538.2 329.3,525.9 
			338.4,517.5 347.7,514 355.4,514.1 363.8,517.1 370.7,522.6 379.6,532.1 386.1,536.9 389,544 388.9,555.4 384.1,578.1 
			381.1,584.8 		"/>
		<polyline class="st1" points="319.4,677.3 308.1,678 305.4,681.3 303.1,692.9 305.8,702.1 312,703.7 321.6,698.1 330.7,691.2 
			335.7,685.2 336.4,679.9 333,674.8 327.7,669.1 321.6,666.1 316.2,668.1 313.2,673 312,680.3 312.5,687.6 316.8,690.5 
			323.4,687.5 329.9,678.8 328.3,675.7 317.3,674.4 310.7,678 308.7,684 312,689.8 316.6,690.3 318.6,686.9 318.2,682.7 
			317.2,681.4 		"/>
		<line class="st1" x1="323.6" y1="666.2" x2="320.3" y2="669"/>
	</g>
</g>
<g id="_x31_20-비">
	<g>
		<polyline class="st1" points="100.3,35.4 98.8,27.1 98.6,19.5 102.5,42.7 104.3,67.4 		"/>
		<polyline class="st1" points="99,127.4 94.6,134.4 92.4,141.8 88.2,167 87.5,178.7 		"/>
		<polyline class="st1" points="81.7,263 77.6,274.1 77.9,292.6 		"/>
		<polyline class="st1" points="182.3,24.7 175.6,32.5 175.6,43.2 177.1,53.4 		"/>
		<polyline class="st1" points="172.2,126.2 167,136.4 165.1,161.5 		"/>
		<polyline class="st1" points="157.7,229 157,240.4 157.6,288.2 		"/>
		<line class="st1" x1="253.1" y1="22.8" x2="253.9" y2="39.2"/>
		<polyline class="st1" points="241.8,137 240.2,145.3 240.1,153.2 		"/>
		<line class="st1" x1="227.5" y1="307.8" x2="227.2" y2="324.8"/>
		<polyline class="st1" points="323.3,18.2 321.1,29.9 322.9,52.5 		"/>
		<polyline class="st1" points="326.2,135.4 322.9,148.1 320.4,168.2 		"/>
		<polyline class="st1" points="294.2,257.7 288.7,273.3 288.9,295.7 290.9,300.6 		"/>
		<polyline class="st1" points="402,20.2 398.4,30.9 400.1,44.7 		"/>
		<line class="st1" x1="396.5" y1="114.1" x2="390" y2="169.8"/>
		<polyline class="st1" points="370.7,284.5 368.7,294.6 367.5,319 368.5,328.6 		"/>
		<line class="st1" x1="469.3" y1="30.4" x2="469.6" y2="48.2"/>
		<polyline class="st1" points="469,140.3 468.7,157.6 466.7,176.2 		"/>
		<polyline class="st1" points="444.2,272.6 441.9,283.7 442.1,290.7 446.2,299.4 		"/>
		<line class="st1" x1="414" y1="155.1" x2="406.8" y2="169.6"/>
		<polyline class="st1" points="401.3,250.2 400.1,261.6 395.5,280.2 		"/>
		<line class="st1" x1="325" y1="234.6" x2="325.9" y2="261.9"/>
		<line class="st1" x1="225.1" y1="213" x2="223.9" y2="222.5"/>
		<polyline class="st1" points="205,295.4 201,303.3 198.4,314.7 		"/>
	</g>
</g>
<g id="_x31_20-우산">
	<g>
		<polyline class="st1" points="255.2,442.4 270.3,429.5 284.3,420.3 309.1,410.8 322.5,406.8 335.6,406.2 360.1,410.2 370.1,413 
			410.2,432.4 420.7,439.3 429.5,448.1 437.6,463.3 438.9,468.1 440.6,471 441.7,470.5 441.2,469.6 		"/>
		<polyline class="st1" points="265.8,431.4 259.1,438.4 247.5,457.6 240.1,475 234.1,493.6 231.1,505.7 		"/>
		<polyline class="st1" points="234.3,508.1 241.7,502.1 246,495.8 247.6,495.3 250.7,496.1 257.2,499.9 262.8,500.6 289.8,488.3 
			301.7,480.8 302.5,481.5 302.9,485.4 308.7,487.3 320.4,485.8 331.4,480.9 335.5,481.8 336.6,484.5 340,486.5 346.2,486.8 
			359,483.9 378.6,481.5 400,484.9 409.7,483.9 436.5,471 443,466.9 439.6,465.4 432.7,465.1 		"/>
		<polyline class="st1" points="323.7,415.3 319.1,422.4 299.8,473.5 		"/>
		<polyline class="st1" points="340.9,413.7 346.8,424.5 360.8,459.7 371.8,471 		"/>
		<polyline class="st1" points="331.3,417.8 330.1,428.7 328.4,461.9 		"/>
		<polyline class="st1" points="339.6,482.1 338.7,496.9 339,513.8 		"/>
		<polyline class="st1" points="307.8,484.1 301.9,490.4 302.9,508 301.7,518 302.1,534.9 303.2,540.2 304.5,564.6 309.5,582.8 
			311.3,594.6 317.7,619.8 317.8,630.7 320.5,645.8 318,680.8 		"/>
		<polyline class="st1" points="301,532.1 299.4,528.5 302.2,548.9 301.8,576 304.1,622.1 302.6,640.6 306.5,666 		"/>
		<line class="st1" x1="318.4" y1="602.9" x2="319.1" y2="633.3"/>
	</g>
</g>
</svg>
