<?xml version="1.0" encoding="utf-8"?>
<!-- Generator: Adobe Illustrator 26.2.1, SVG Export Plug-In . SVG Version: 6.00 Build 0)  -->
<svg version="1.1" xmlns="http://www.w3.org/2000/svg" xmlns:xlink="http://www.w3.org/1999/xlink" x="0px" y="0px"
	 viewBox="0 0 535 757" style="enable-background:new 0 0 535 757;" xml:space="preserve">
<style type="text/css">
	.st0{fill:#FFFFFF;}
	.st1{fill:none;stroke:#000000;stroke-width:2;}
</style>
<g id="레이어_1" xmlns:ev="http://www.w3.org/2001/xml-events">
	<rect class="st0" width="535" height="757"/>
	<rect class="st0" width="535" height="757"/>
</g>
<g id="_x31_23-비">
	<g>
		<polyline class="st1" points="375.7,280.5 377.9,267.2 377.3,261.1 373.9,253.8 367.8,245.4 340.8,215.4 313.1,178.9 294.7,160.3 
			282.2,142.7 278.7,134.2 275.6,121.4 275.7,119 281.9,117.8 287.6,118.9 304.7,126.8 325.4,138.8 346.6,153.8 348.5,156.9 
			348.4,159.9 343.2,165.8 		"/>
		<polyline class="st1" points="394.1,237.7 388.9,215.8 386.5,208.8 380.2,196.6 371.2,183.8 369.8,177.7 371.7,172.2 369.6,169.2 
			363.8,166.3 		"/>
		<polyline class="st1" points="120.7,44.5 115.9,77.2 115.4,90.7 118.7,106.8 		"/>
		<line class="st1" x1="244.1" y1="15.2" x2="242.8" y2="33.9"/>
		<polyline class="st1" points="173.7,67.1 172.3,86.2 173.4,97.9 176.3,103.3 		"/>
		<line class="st1" x1="230.2" y1="80.8" x2="228.1" y2="97.2"/>
		<line class="st1" x1="344.9" y1="15.7" x2="348" y2="44.2"/>
		<line class="st1" x1="357.1" y1="106.3" x2="357.1" y2="115.4"/>
		<line class="st1" x1="430.9" y1="207.2" x2="431.6" y2="225.8"/>
		<line class="st1" x1="394.4" y1="334.2" x2="401" y2="351.5"/>
		<line class="st1" x1="429.5" y1="418.6" x2="430.3" y2="443.2"/>
		<polyline class="st1" points="19.2,293.8 12.9,310.5 14.1,319.9 		"/>
		<line class="st1" x1="25.6" y1="413.9" x2="31.7" y2="432.3"/>
		<polyline class="st1" points="36.1,493.6 30.3,508.4 32.9,524 		"/>
	</g>
</g>
<g id="_x31_23-사람">
	<g>
		<polyline class="st1" points="232.8,461.6 223.6,456.6 214.8,449.2 198.2,439.8 190.5,431.3 192.9,433.3 198.9,444.7 207,457 
			211.2,461.2 222.1,469.6 225.7,469.8 228.5,469.1 230.5,467.3 233.5,466.8 239.4,460.2 242,456.3 242.6,448.5 241.9,445.7 
			240.2,444.6 234.1,452.8 		"/>
		<polyline class="st1" points="309.4,376.1 301.6,382.2 301.1,384.4 300.6,399.2 304.6,412.3 303.2,415.5 301.2,417.8 296.5,420.6 
			293.8,423.3 292.4,426.5 292.1,429.1 292.1,435.6 293.5,436.7 311.6,437.1 304.6,443.2 301.2,447.6 300.5,449.9 307.1,451.1 
			308.4,453.1 299,464.3 296.3,468.8 298.4,471.1 300.2,471.7 302.2,472 306.1,470.4 		"/>
		<polyline class="st1" points="334.1,375.5 342.9,371.7 349.9,372 353.1,373 362.1,378 364.3,380.7 366.5,388.5 366.2,394.7 
			361,413.6 353,433.1 350.4,438.8 348.1,441.8 		"/>
		<polyline class="st1" points="305.1,398.5 317.3,400.7 319.5,401.6 321.3,403.7 		"/>
		<polyline class="st1" points="351.3,461 359.8,458.9 368.6,462.4 		"/>
		<polyline class="st1" points="379,472.2 380.8,480.2 380.6,488.1 376.8,512.5 372,524.9 371.2,535.2 		"/>
		<polyline class="st1" points="323.4,511.2 315.2,509.1 312.8,512.6 308.8,532.5 300.5,554.9 298.3,563.3 		"/>
		<polyline class="st1" points="333.4,565.5 317.1,576.9 306.4,582.4 		"/>
		<polyline class="st1" points="262.1,527.4 256.4,534.8 254.2,548.7 254.5,552.9 		"/>
		<polyline class="st1" points="306.7,621.7 305.9,631 301.8,641.7 298.4,661.4 298.4,669.9 301,683.3 301.6,690.1 		"/>
		<polyline class="st1" points="267.2,636.2 267.5,652.8 263.3,678.1 261.5,699.2 265.9,702.2 268.5,702.5 		"/>
		<polyline class="st1" points="341.6,654.9 340.7,645.7 338.5,639.5 334.6,636 332.8,635.3 329.8,635.8 330.3,633.6 329.3,634.4 
			329.6,677.3 328.2,698 330.6,713.5 329.9,712.4 		"/>
		<polyline class="st1" points="279.7,733.8 272.3,729.3 255.4,730 247.9,734.1 251.5,737.5 257.7,741.2 261.4,742.5 268.8,742.9 
			271.7,741.9 281.8,732.9 287.6,732 297.1,728.3 		"/>
		<polyline class="st1" points="337.7,725.2 329.2,723 315.3,731.8 315.7,733.8 326,737.7 329.9,738.1 339.4,736.4 348.9,733.4 
			350.8,732.2 350.6,731.1 344.8,724.3 348.1,721.7 349.3,719.2 		"/>
		<polyline class="st1" points="257.9,484.6 256.2,468.6 255.3,465.3 252.6,461.8 		"/>
		<polyline class="st1" points="256.5,480.1 253.2,473.8 247.5,458.1 239.5,446.5 237.8,442.1 244.8,443.4 256.5,443.2 		"/>
		<polyline class="st1" points="245,439.4 236.5,434.9 232.7,430.7 231.5,428.9 232.2,425.4 234.6,424 241.2,424.7 256.7,434.9 
			261.7,439.4 262.8,441.7 262.9,443.8 260.1,451.2 		"/>
		<polyline class="st1" points="336.4,379.7 344.7,380.4 352,397.3 		"/>
		<polyline class="st1" points="332.6,390.5 341.1,399.9 346.2,406.6 347.9,410.3 		"/>
	</g>
</g>
<g id="_x31_23-우산">
	<g>
		<polyline class="st1" points="204.8,133.4 193.2,138.5 184.4,144.2 173,153.4 139.2,184.9 100,226.2 70.6,264.5 61.1,279.6 
			51.3,302.5 50.4,310 51.6,314.8 54.5,316.7 59.3,315.7 67.1,310.9 78.7,301.5 200.2,188.3 196.8,194.2 182.8,213.4 159.9,260.2 
			152.3,280.1 143.8,318.3 148.2,323.3 157,321.1 169.9,310.3 201.5,273 224.6,240.9 232.2,233.7 232.5,234.7 220.3,260.9 
			213,280.8 206.5,302.9 202.6,322.1 204.1,332.6 212.5,333.4 227,325.3 261.5,287.8 278.1,265.9 289.8,254 298.7,256 298.7,277.7 
			303,284.2 		"/>
		<polyline class="st1" points="257.8,279.5 258.1,269.5 257.4,267.7 252.9,279.7 248.9,296.4 239.2,352.1 232.5,404.2 231.1,433 
			230.9,454 229.6,453.4 227.3,449.8 226.3,450.4 227,450.4 227.6,448.8 		"/>
	</g>
</g>
</svg>
