<?xml version="1.0" encoding="utf-8"?>
<!-- Generator: Adobe Illustrator 26.2.1, SVG Export Plug-In . SVG Version: 6.00 Build 0)  -->
<svg version="1.1" xmlns="http://www.w3.org/2000/svg" xmlns:xlink="http://www.w3.org/1999/xlink" x="0px" y="0px"
	 viewBox="0 0 535 757" style="enable-background:new 0 0 535 757;" xml:space="preserve">
<style type="text/css">
	.st0{fill:#FFFFFF;}
	.st1{fill:none;stroke:#000000;stroke-width:2;}
</style>
<g id="레이어_1" xmlns:ev="http://www.w3.org/2001/xml-events">
	<rect class="st0" width="535" height="757"/>
	<rect class="st0" width="535" height="757"/>
</g>
<g id="_x31_32-비">
	<g>
		<polyline class="st1" points="142.8,61.6 129.1,81.9 77.4,163.1 		"/>
		<polyline class="st1" points="119.1,53.7 106.9,63.9 79.5,99.2 		"/>
		<polyline class="st1" points="149.3,30 135.7,32.7 125.7,42 105.6,67.7 61.3,131.3 		"/>
		<polyline class="st1" points="118,33.2 93.5,52.6 50.9,97.2 		"/>
		<polyline class="st1" points="426.2,43.3 428.8,32.6 433.7,30 441.9,28 444.8,29.1 453,36.7 475.3,46.6 493.4,50.3 531.6,54.2 		
			"/>
		<polyline class="st1" points="406.1,60 420.4,55.5 434.1,55.4 486.9,64.1 516.1,72.6 528.5,80.4 		"/>
		<polyline class="st1" points="386.7,107 385.4,97.1 390.3,93.5 397.9,90.5 406.3,88.8 420.2,90 427,93.3 452.2,102.4 484.9,109.9 
			515.9,111.7 528.2,110.6 		"/>
		<polyline class="st1" points="393.8,142.8 379.2,146.7 385.4,143.3 389.7,142.3 397.2,141.8 392.9,142.7 398.2,143.5 447.4,147.8 
			474.5,156.7 486.4,171.3 484.8,182.9 		"/>
		<polyline class="st1" points="355.4,191.6 371.8,192.6 386.7,195.5 424.1,209.8 454.7,236.3 491.4,292.4 		"/>
		<polyline class="st1" points="415.4,274.4 428.5,282.1 450.1,308.3 461.4,326.7 485.7,377.7 		"/>
		<polyline class="st1" points="127.8,193.6 119.1,195.3 79.2,234.3 		"/>
		<polyline class="st1" points="137.6,222 122.4,239.5 96.3,267.3 71,298.4 		"/>
		<polyline class="st1" points="136.3,259.8 144.1,263.8 144.3,265.8 146.8,267.7 146.8,275 139.9,292.5 106.3,346.9 63.3,413.7 		
			"/>
		<polyline class="st1" points="368,232.1 370.8,222.5 368.1,221.3 367.3,220 368,218.3 399.8,220.2 434.2,237.5 450.6,260.3 		"/>
		<polyline class="st1" points="365.6,268.1 355.8,264.7 351.8,265 355.8,267.3 360.1,272.9 367.2,285 408.2,336.9 453.7,368.2 		
			"/>
	</g>
</g>
<g id="_x31_33-사람">
	<g>
		<polyline class="st1" points="170.1,98.9 173.4,89.5 178.1,82.7 182.9,77.6 191,70.3 196.8,66.3 206.2,61.6 214,59.1 237.2,52.5 
			254,49.9 263.8,52.1 280,54.3 287.5,56.4 308.5,58.1 314.5,61.1 321.6,68.5 339.6,97.4 343.2,108.1 343.9,121 350.5,136.2 
			350.7,139.3 349,142.2 		"/>
		<polyline class="st1" points="190.6,76.4 176.8,89 178.2,95.3 177.5,97.7 177.9,101.1 176.8,102.2 178.6,102.7 170.7,107.2 
			170.3,111.2 171.4,114.5 173.2,116.2 175.5,115 176.6,112.8 		"/>
		<polyline class="st1" points="181.7,99.5 176.3,106.9 173.9,113 174.9,118.4 178.9,123.6 182,125.7 185.4,124.7 		"/>
		<polyline class="st1" points="180.1,120.9 172.1,124.1 177.1,122 173.6,123.5 170.6,126.1 163.1,134.9 161.2,138.2 163.6,136 
			162.1,136.3 159.4,139.1 171.9,139 175.7,138.1 176.8,136.9 173.9,138.7 173.3,139.3 174,139.2 178.2,136.3 179.9,134.2 
			180.3,131.9 182.6,130.6 182.4,134 		"/>
		<polyline class="st1" points="185.7,133.3 179.9,139.9 178,145.4 181.8,150.6 185.1,161.5 189.9,158.5 191.9,158.3 190.3,160.2 
			192.2,160 198.4,156.7 205.5,154.6 205.4,155.7 200.3,158.6 195.5,160.1 195,162.3 195.9,163.8 198.1,164.1 200,165.4 
			199.1,170.1 199.6,169 199.2,170 197,166.8 196,162 194.7,163 193.8,165.2 195.2,166 194.9,168.7 196.2,172.3 197.6,172.3 
			197.6,176.8 202.4,178.2 203.7,181.1 205.7,181.4 204.7,182.4 		"/>
		<polyline class="st1" points="203.6,184 207.8,193.3 208.8,193.6 216.4,191.3 		"/>
		<polyline class="st1" points="309.5,93.1 301.2,86.2 296,84.4 295.6,83.2 300.2,81.6 293.9,87.6 298.4,88.8 301,90.3 302.6,92.3 
			303.4,97.3 303.1,101.8 300.4,105.8 294,110.1 302.8,110.2 305.9,112.1 306.7,114.7 297,138.4 		"/>
		<polyline class="st1" points="347,138.8 346.5,138.5 340.3,144.1 339.3,153.8 340.6,158.5 340.3,160.6 329.6,178.9 327.8,184.1 
			321,189.4 322,193 318.8,198.2 304.8,208.2 292.5,214.2 288.8,214.7 		"/>
		<polyline class="st1" points="211,121.6 214.9,113.8 223.6,109.2 221,114.4 223,114.4 		"/>
		<polyline class="st1" points="222.1,114.2 224.3,109.5 219.7,112.2 216.6,112.2 214.8,113.3 198.9,128.9 204.2,120.3 208.6,119.2 
			221.6,113 222.9,113.7 222.9,115.2 		"/>
		<polyline class="st1" points="210.5,139.8 214.5,131.4 222.3,126.5 226.6,126.1 230.4,128 231,129.2 228.5,134.5 226.2,136.6 
			219.5,140.4 206,145.7 208.3,141.4 211.3,139.4 224.5,136.8 231.2,133.5 		"/>
		<polyline class="st1" points="238.2,105 238.8,113.2 241.4,115 241.5,116.7 241.2,128.6 238.4,134.9 242.7,138.4 243.6,140 		"/>
		<polyline class="st1" points="266.8,100.4 260.2,107.9 259.8,111.4 262.9,116.7 267.1,117.8 270.3,120.6 271.1,122.6 271.7,128.4 
			268.6,139.5 269.1,144.9 		"/>
		<polyline class="st1" points="245.4,144.2 248.2,153.5 254.1,155.3 267.4,145.8 		"/>
		<polyline class="st1" points="224.2,206 223,197 221.3,200 217.4,202.4 216.1,196 216.3,192.4 212.8,191.8 211.7,195.6 
			211.3,206.1 208.4,219 209.6,219.9 211,218.4 212.2,215 211.4,210.3 212.6,211.3 211.4,227.9 214.2,232.5 216.2,232.9 		"/>
		<polyline class="st1" points="291.2,213.4 294.1,245 293.2,261.3 294.4,263.2 293,270.7 293.1,274.2 293.8,275.5 		"/>
		<polyline class="st1" points="211,226.5 209.6,226.4 205.4,235.8 202.2,254.7 205.5,271 205.5,277.3 		"/>
		<polyline class="st1" points="195,285.5 183.7,289.5 172.9,299.5 158.1,320.6 150.7,334.5 137.5,368.7 129.5,399.5 128.3,410.8 
			130.4,426.1 132.7,430.1 136.4,432.3 138,431.3 		"/>
		<polyline class="st1" points="316.1,291.3 325.7,303 326.4,315 328.7,317.7 332.3,327.5 337.2,335.2 340.2,351.7 339.7,365.3 
			340.5,374.4 352.2,406.4 365.6,433.6 367.6,444.7 367.6,450.1 350.5,493.8 346.7,515.4 343.2,517.4 		"/>
		<polyline class="st1" points="454.8,749.2 80.5,524.5 170.5,512.5 180.5,508.5 186.5,504.5 189.5,495.5 185.5,485.5 167.5,476.5 
			163.5,469.5 162.5,460.5 168.5,453.5 171.5,451.5 173.5,448.5 169.5,447.5 156.5,447.5 147.5,441.5 151.5,430.5 158.5,425.5 
			158.5,424.5 157.5,426.5 147.5,429.5 143.5,434.5 147.5,434.5 		"/>
		<line class="st1" x1="148.4" y1="434.7" x2="157.3" y2="459.1"/>
		<polyline class="st1" points="204.7,176.1 205.4,167.1 203.3,169 202.8,172 210,162.9 213.2,163 211.9,162.7 199.4,166.8 
			198.4,168.6 199.9,168.6 206.5,165.4 209,165.3 209,168 203.6,174 200.7,178.3 200.9,179.1 213.5,168.1 213,166.9 210.2,165.5 
			205.4,167.3 199,172.9 198.3,176.6 201,179 207.5,181.6 221.6,183 		"/>
		<line class="st1" x1="209.8" y1="178.6" x2="212.6" y2="189.8"/>
		<polyline class="st1" points="232,92 227.4,98.9 226,98.2 227.6,97.1 232.5,96.7 235.1,98.3 237,103.8 		"/>
		<polyline class="st1" points="271.9,95.7 276.6,88 279,85.8 286.5,84.8 287.9,86.1 294.1,86.7 295,87.1 295.1,88.1 		"/>
		<polyline class="st1" points="242.3,189.5 247.9,183 252.7,181.6 254.9,181.5 259.7,184 269.7,182.4 280.9,182.7 283.9,183.4 
			285.8,184.9 285.9,189.4 291.9,188.1 		"/>
		<polyline class="st1" points="241.2,192.8 258,195.4 275.6,192.4 293.7,187.2 295,188.8 295.2,192 293.3,193.4 287.4,194.6 		"/>
		<polyline class="st1" points="284.8,103 294.1,94.5 292.2,100.5 		"/>
		<polyline class="st1" points="277.8,104.9 287.6,97 298.1,93 299.1,95 		"/>
		<polyline class="st1" points="284,114.9 292.6,115.8 298.8,110.9 296.1,110 287.9,109.4 282.7,107.6 281.7,109.3 284,110.2 
			291.4,110.2 289.8,109.5 282.5,111.2 283.4,107.7 287.4,106 294.2,106 301.6,107.7 303.9,111.7 300.9,116.4 294.1,120.7 
			288,122.2 288,116.4 295.2,104.1 294.2,100.5 289.8,104.1 		"/>
	</g>
</g>
</svg>
