<?xml version="1.0" encoding="utf-8"?>
<!-- Generator: Adobe Illustrator 26.2.1, SVG Export Plug-In . SVG Version: 6.00 Build 0)  -->
<svg version="1.1" xmlns="http://www.w3.org/2000/svg" xmlns:xlink="http://www.w3.org/1999/xlink" x="0px" y="0px"
	 viewBox="0 0 535 757" style="enable-background:new 0 0 535 757;" xml:space="preserve">
<style type="text/css">
	.st0{fill:#FFFFFF;}
	.st1{fill:none;stroke:#000000;stroke-width:2;}
</style>
<g id="레이어_1" xmlns:ev="http://www.w3.org/2001/xml-events">
	<rect class="st0" width="535" height="757"/>
	<rect class="st0" width="535" height="757"/>
</g>
<g id="_x31_34-비">
	<g>
		<polyline class="st1" points="84.1,88.7 80.9,100.9 82.8,126 		"/>
		<line class="st1" x1="90.9" y1="234.5" x2="96.5" y2="270.9"/>
		<polyline class="st1" points="286.4,54.7 285,67.4 287.3,79.8 290.2,90.9 296.1,106.3 		"/>
		<polyline class="st1" points="376.5,204 379,223.3 386,238.1 		"/>
		<polyline class="st1" points="468.8,77.5 468.8,91.5 470.6,99.3 473.2,118.6 		"/>
		<polyline class="st1" points="522.6,466.2 517.9,475.6 523.4,494.6 		"/>
		<polyline class="st1" points="154.7,486.7 153.9,497.3 161.3,517.6 162.2,521.9 		"/>
		<polyline class="st1" points="58.7,610.9 53.2,627.4 56.9,645.7 60.5,652.9 		"/>
		<polyline class="st1" points="223.6,636.4 220.8,645.5 224.6,660 227.5,667.3 		"/>
		<polyline class="st1" points="488.3,473.7 488.4,486.7 490.4,499.9 		"/>
		<polyline class="st1" points="79.5,404.3 80.5,412.7 83.9,420.3 87.6,425.6 		"/>
		<polyline class="st1" points="463.7,205.6 465,225.6 466.9,236.3 		"/>
		<polyline class="st1" points="158.7,383.3 159.3,398.3 163.3,406.2 		"/>
		<polyline class="st1" points="19.1,147.7 19.8,162.1 24,175.7 		"/>
		<polyline class="st1" points="163.6,108 168.5,139.7 170.3,146 		"/>
		<polyline class="st1" points="493,592.7 491.2,601.2 495.4,611.1 		"/>
		<line class="st1" x1="273.7" y1="618.1" x2="283.5" y2="642"/>
	</g>
</g>
<g id="_x31_34-사람">
	<g>
		<polyline class="st1" points="352.6,353 341.8,356.6 331.5,367.2 328.4,371.6 322.7,382.6 319.8,394.8 318.7,407.6 321.6,418.8 
			324.3,424 330.9,433.4 339.5,440.7 353.3,447 366.5,447.5 384.2,444.8 388.1,443.7 395.3,439.8 403,431.8 407.3,422.9 
			408.6,417.8 410.7,405.4 410.8,399.6 409.3,388.2 406.2,378.8 400.1,370.7 393,364.7 377.8,356.7 372.9,355.8 349.7,354.8 
			344.1,357.3 343.6,358.9 		"/>
		<polyline class="st1" points="356.2,356.8 345.5,363.6 342.1,382.7 348.4,405 		"/>
		<polyline class="st1" points="357.8,355.4 355.2,366.4 356.1,382.6 363,394.1 365.5,397.1 368.4,397.6 		"/>
		<polyline class="st1" points="372.5,362 372,375.5 373.1,381.1 376,385.9 379.6,389.2 382.7,390.2 387.4,387.8 		"/>
		<polyline class="st1" points="379.3,364.7 382.7,382.9 386.4,387.4 391.4,388.8 395.7,388.6 398,386.7 		"/>
		<polyline class="st1" points="343.3,360.6 334.4,370.7 331.2,377.1 330.1,395.6 333.2,401.4 336.6,404.3 339.4,405.1 		"/>
		<polyline class="st1" points="358.1,407 356.8,416.7 356.9,419.4 357.7,420.9 358.7,421.2 		"/>
		<polyline class="st1" points="377.5,405.7 376.4,415.6 377.3,418.4 379.1,420.3 		"/>
		<polyline class="st1" points="359.8,427.2 362.1,436.2 365.4,439.3 369.2,440.2 375.1,436.3 377.5,428.8 380.1,429.4 		"/>
		<polyline class="st1" points="357.3,450.8 356.6,459.6 358.2,466.2 		"/>
		<polyline class="st1" points="374.7,449.9 375.3,457.9 378,463.9 		"/>
		<polyline class="st1" points="385.7,464.1 405.3,447.6 418.4,440.2 423.1,438.9 422.6,439.8 		"/>
		<polyline class="st1" points="357.6,471.1 308.4,445.7 303.5,444.5 303.2,445.5 		"/>
		<polyline class="st1" points="425.3,438.9 427.5,448.3 434.5,454.3 440.8,456.1 433.7,465.1 415.7,481.7 417,482.4 		"/>
		<polyline class="st1" points="297.9,449.2 295.2,458.4 284.8,474.8 306.1,487 308.8,490.9 		"/>
		<polyline class="st1" points="289.4,455 277.5,429.5 283.5,440.5 290.5,443.5 292.5,442.5 290.5,440.5 288.5,444.5 288.5,448.5 
			290.5,449.5 		"/>
		<polyline class="st1" points="431.5,444 428.7,451.6 431.7,453.2 435.9,453.1 441.6,447.9 441.6,445 436.6,441.4 433.8,441.2 
			431.6,442.1 430.3,444.6 431.1,445 		"/>
		<polyline class="st1" points="281,432 281.7,441.2 284,444.9 301.6,449.2 302,446.1 304.2,443.2 301.5,446.3 297.3,448.8 
			289.8,449.3 282.6,445.2 278,438.3 277.9,434.2 		"/>
		<polyline class="st1" points="406.5,364 400.9,352.2 399.4,351.1 394.2,356.3 391.5,363.3 390.5,371.7 391.8,372.2 397.1,367.2 
			404.9,355.8 413.6,352 415.6,357.1 415,361.4 410.9,369.7 404.4,376.6 401.8,376.6 400.7,366.9 402.4,366.2 		"/>
		<polyline class="st1" points="407.4,365.2 411.1,355.4 421.7,347.6 438,349.9 443.5,352.9 448.2,359.4 456.4,381.3 459.7,399.3 
			460.5,409.5 459.5,409.9 		"/>
		<polyline class="st1" points="398.7,382 407.2,375 416,373.6 429,374.3 458.2,390 466.5,397.9 477,404.3 479.9,405 477.5,402.5 		
			"/>
		<polyline class="st1" points="311.1,485.6 319.6,493.3 334,498.3 344.8,505.7 346.5,508.9 345.2,507.8 344.5,508.4 343.5,513.8 
			339.3,558.7 339.2,567.2 		"/>
		<polyline class="st1" points="418,492 419.5,517.1 423.5,552.5 		"/>
		<polyline class="st1" points="347.6,568.5 362.9,565.8 369.4,563.4 412,553.9 422.3,552 421.9,553.7 		"/>
		<polyline class="st1" points="346.9,571.9 346.4,580.5 352.3,626.3 354.6,637.2 360.1,653.1 360.4,656.4 		"/>
		<polyline class="st1" points="388.4,601.4 388.9,609.8 393.5,629.1 395.9,636.2 397.3,644.8 397.7,643.7 		"/>
		<polyline class="st1" points="426.3,555 429.8,583.2 437.8,630.1 437.4,636 436,634.1 		"/>
		<polyline class="st1" points="404.5,647.5 413.4,649.8 419.5,647.7 427.6,648.4 		"/>
		<polyline class="st1" points="360.3,658.4 369.9,653.6 392,651 394.9,649.9 		"/>
		<polyline class="st1" points="362.7,658.4 356.4,664.3 353.4,669.2 352.6,675.9 360.7,674.3 376.1,664.6 385.8,661 387.1,661.9 		
			"/>
		<polyline class="st1" points="429.2,650.2 433.1,658.7 440.1,667 426.1,665.8 414.4,663.2 		"/>
	</g>
</g>
<g id="_x31_34-우산">
	<g>
		<polyline class="st1" points="287.4,448.7 286.2,449.3 286.4,449.9 284,441.5 281.9,423.5 283.4,408.1 284.2,360.2 289.3,322.4 
			289,319.6 287.4,321.3 		"/>
		<polyline class="st1" points="284.8,236.3 278,231.3 269.4,231.1 252.4,235.3 233.5,242.8 214.9,253 206.5,259.5 193.8,276.2 
			189.5,285 187,293 185.1,307.4 185.6,317.5 186.6,320.9 188.3,323.3 208.6,320.3 236.6,318.6 263.2,322.3 312.9,324.7 
			357.6,324.1 374.6,326.4 394.2,327.4 396,327.8 394.4,328.7 		"/>
		<polyline class="st1" points="266.3,218 287.9,218.9 304.6,223.6 314.3,226.7 333.4,234.6 342.4,239.6 350.3,245.7 362.1,261.7 
			378,287.9 382.4,305.7 380.1,306.6 		"/>
		<polyline class="st1" points="273.1,207.9 273.5,218.1 272.6,232.1 		"/>
		<polyline class="st1" points="260.8,233.7 249.7,234.6 243.7,239 224.2,255.7 213.3,271.5 208.6,291.7 210.1,310.8 212.7,315.7 
			215.8,318.4 218.6,319.4 		"/>
		<polyline class="st1" points="254.6,241.5 255.5,251.5 253.1,260.6 250.2,279.6 249.5,308.6 250.9,317.5 255.1,326.3 256.5,326.9 
			256.6,326.4 		"/>
		<polyline class="st1" points="265.2,231.7 265.2,230.8 268.9,233.6 282.6,256 287.6,273 291.5,293.7 293.1,313.6 294.1,314.9 
			293.4,314.1 		"/>
		<polyline class="st1" points="270.3,231.7 278.1,228.4 283.5,228.6 297,232.9 311.2,240.8 317,246.6 327.1,259.9 333.8,276.2 
			341.4,304.9 348.1,317.7 349.8,317 351.2,318 		"/>
	</g>
</g>
<g id="_x31_34-물웅덩이">
	<g>
		<polyline class="st1" points="183,679.7 192.5,675.6 181.9,675 168.1,676.5 158.5,678.9 125.2,691.2 107.2,705.2 100.8,717.4 
			112.2,729.6 130.3,732.7 151.8,734.8 190.9,733.4 216.5,730.7 247.9,718.5 258.7,708.3 256.4,689.6 246.1,678.7 227.7,672 
			205.8,668.8 179.4,670.2 		"/>
		<polyline class="st1" points="171.3,691.9 160.7,694.3 155.5,698.4 143.6,714.6 150,718.5 166.2,715.8 197.7,704 209.1,694.9 
			209.3,688.9 199.4,684.8 174.8,684.5 149.7,691.4 138.8,705.4 148.7,709.7 158.8,709.4 		"/>
	</g>
</g>
</svg>
