<?xml version="1.0" encoding="utf-8"?>
<!-- Generator: Adobe Illustrator 26.2.1, SVG Export Plug-In . SVG Version: 6.00 Build 0)  -->
<svg version="1.1" xmlns="http://www.w3.org/2000/svg" xmlns:xlink="http://www.w3.org/1999/xlink" x="0px" y="0px"
	 viewBox="0 0 535 757" style="enable-background:new 0 0 535 757;" xml:space="preserve">
<style type="text/css">
	.st0{fill:#FFFFFF;}
	.st1{fill:none;stroke:#000000;stroke-width:2;}
</style>
<g id="레이어_1" xmlns:ev="http://www.w3.org/2001/xml-events">
	<rect class="st0" width="535" height="757"/>
	<rect class="st0" width="535" height="757"/>
</g>
<g id="_x31_37-표지판">
	<g>
		<polyline class="st1" points="511.8,283.4 513,299.2 514.4,304.8 514.6,313.8 518.2,340.7 517.8,377.1 518.4,389.4 517.1,421.4 
			518.3,437.8 518.4,477.9 519.7,493.6 518.5,503.4 519.9,512.3 518.3,518.8 518.6,522.9 524.9,536.5 526.5,537.4 530.2,537.5 
			541.3,540.4 		"/>
		<polyline class="st1" points="512.2,276 501.3,277.9 484.4,274.9 473.8,268.5 459.4,248.3 455.5,241 446.4,227.4 439.1,209.1 
			437,192.3 439.5,173.2 447.3,157.6 460.4,146 471.9,140 483.4,137.4 500.2,135.8 515.3,139.4 523.7,146.2 		"/>
		<polyline class="st1" points="474.1,176.2 473.6,187.3 476.9,193.5 480.2,193 481.9,189.5 481.3,172.8 		"/>
		<polyline class="st1" points="473.7,184.8 489.3,183 490.6,181.9 		"/>
		<polyline class="st1" points="490,177.1 491.1,195 492.8,192.1 		"/>
		<polyline class="st1" points="500.3,174.9 499.2,183.8 497.1,188.7 498.5,185.6 		"/>
		<polyline class="st1" points="500,176.1 507.2,177.5 508.2,180.1 		"/>
		<polyline class="st1" points="499.5,189.1 509.7,187.9 512.4,188.2 514,187.4 		"/>
		<polyline class="st1" points="518.2,226.8 509.8,231 497.6,233 483.6,230.6 473.7,225.6 470.8,223 464.2,213.9 459.2,198.5 
			458.5,184.4 461,173.1 468.2,163.9 479.2,158.7 492.7,157.6 505.4,159.8 515.8,165.5 521.7,172.4 525.2,183.6 527.7,196 
			527,208.5 522.5,222.1 516.7,227.5 		"/>
	</g>
</g>
<g id="_x31_37-비">
	<g>
		<polyline class="st1" points="91.7,104.6 89.1,115 84.4,124 83.8,130.4 84.9,131.8 89.5,131.3 92.3,127.4 93.4,124.4 93.1,120.1 
			89.2,108.6 		"/>
		<polyline class="st1" points="140.8,159.8 127.6,178.8 126.9,182.2 128.3,184.3 131.4,185.3 134.5,182.9 134,176.8 131.1,174.6 
			132,174.6 		"/>
		<polyline class="st1" points="91.2,272.6 87.8,282.1 87.3,287.3 82.5,296 81.4,300 90.8,296.9 92,295.7 93,292.2 93.8,280.8 
			90.5,275.4 		"/>
		<polyline class="st1" points="231,47.2 225.5,60.8 222.3,66 223,67.3 228.6,69.9 232,69 231.2,52.6 229.7,47.5 230.4,47 		"/>
		<polyline class="st1" points="226.1,141.5 222.6,154.1 223.1,159.1 227.1,160.2 230.4,157.4 230.7,155.6 229.5,153.3 229.5,147.7 
			228.2,145.9 227.3,141 225.7,137.7 225.3,138.4 		"/>
		<polyline class="st1" points="215.9,242.6 211.9,250.2 208.7,260.2 208.8,261.7 211.6,264.1 213.6,263.9 216.2,258.6 214.9,247 
			213.1,244.9 212.5,240.7 		"/>
		<polyline class="st1" points="323,33.1 318.9,42.3 317.6,49.8 319.7,49.8 327.5,46.5 327.5,45.3 326,43.9 323.1,32.5 321.5,29.4 
			320.4,28.7 320.4,30.8 		"/>
		<polyline class="st1" points="302.6,102.8 301.2,116.4 302.4,125 305.9,130.2 308.5,129.7 310.3,126.2 310.5,123.3 308.2,113.9 
			304.9,105.4 299.4,100.8 300.5,100.9 		"/>
		<polyline class="st1" points="365.4,154.7 362.6,163.8 362.6,174.1 365.6,183.1 367.5,183.7 369.1,182.6 369.8,177.1 369.4,163.8 
			367.7,159.5 367.4,155 363.1,150.2 364.7,148.7 		"/>
		<polyline class="st1" points="439.6,72.7 434.8,82.7 433.1,90 432.2,101 433.7,106.9 435.8,108.1 439.4,100.2 440.3,76 
			438.6,70.1 437.8,70.9 		"/>
		<polyline class="st1" points="453.1,179 451.1,187.5 452.7,200.5 454,201.4 459.4,188.7 459.7,184 457.4,178.5 454.9,177.7 
			449.7,180.8 451.4,184 		"/>
		<polyline class="st1" points="469.8,260.3 466.5,268.4 466.9,274.6 467.8,275.5 470.1,275.5 472.1,274.3 473.5,269.1 471.8,257.4 
			469.1,258.7 465.2,273.5 465.5,275.5 		"/>
		<polyline class="st1" points="119.1,368.8 116.9,377.9 111.7,390.4 111.6,391.5 113.4,390.1 118,383.2 120.2,374.2 118.5,369 
			113.4,372.8 110.9,378.1 		"/>
		<polyline class="st1" points="73.4,467.8 70.1,475.5 66.8,486.5 69.9,481 74.2,469.7 76.2,459.8 75.5,458.9 69.3,472.8 		"/>
		<polyline class="st1" points="136.7,442.7 130.1,452.6 130.1,461.9 133.9,462.1 135.9,461.4 138.6,455.1 138,446.6 135.3,444.1 
			131.1,445.4 129.1,448.5 127.7,459.7 		"/>
		<polyline class="st1" points="87.5,545.1 87.9,553.4 85.7,567.3 87.5,566.8 89.6,563.5 94.7,550.9 93.8,542.4 87.3,548.2 
			84.7,556.9 		"/>
		<polyline class="st1" points="419.1,348.8 419.9,357.1 417.6,365.3 417.8,368.1 419.2,371.6 420.6,372.3 423.4,369.3 424.9,360.9 
			424.7,352.5 421.7,346.9 418.5,345.2 420.7,346 		"/>
		<polyline class="st1" points="442.2,427.8 436.9,440 436.4,449.2 440.5,452.3 445.2,451.5 447.1,448.5 448.6,440.7 441.3,429.7 
			440.4,427.2 441.4,426.7 		"/>
		<polyline class="st1" points="361.4,475.2 362,486.2 361.1,490.2 363.2,495.2 365,495.1 367.1,492.5 367.9,489 366.8,478.7 
			367.2,474.5 365.2,469.7 362,470.6 360.2,473.5 360.7,474.5 		"/>
		<polyline class="st1" points="484.9,349.1 484.4,358.5 479.3,366.7 478.2,370.3 479.3,373 480.8,373.6 484.2,373.1 487.2,370.9 
			488.5,361.3 487.8,352.7 486.2,350.2 484.9,351.4 		"/>
		<polyline class="st1" points="446.5,501.4 443.5,513.2 447.6,518.8 450.8,517.1 453.3,511.4 449.7,501.8 447.4,498.7 445.1,497.3 
			445.6,500.4 		"/>
		<polyline class="st1" points="147.9,601.8 135,620.3 137.5,621.3 143.4,620.3 145.8,618.3 148.2,608.9 146.2,605.6 143.7,603.8 
			143.2,604.9 		"/>
		<polyline class="st1" points="476.7,555.5 476.1,565.2 472,581.1 476,582.1 479.9,578.4 480.3,573.9 476.4,557.2 476.4,552.6 		
			"/>
		<polyline class="st1" points="433.4,623.9 429.8,633 428,646.3 429.2,655.5 429.7,656.7 432,657.5 434.2,654.5 434.2,650.6 
			431.5,634.9 430,632.2 427.9,630.5 		"/>
		<polyline class="st1" points="494.7,664.5 493,674.9 494.9,688.5 496.2,690.7 498.2,683.6 497.8,680.4 494.8,666.7 493.5,665.5 
			492.1,666.1 		"/>
		<polyline class="st1" points="58.9,643.2 56.4,652.8 51.5,664.3 52.8,668.4 56.8,669.7 60.6,666.2 61.2,658.5 59.9,655.7 
			59.3,643.9 		"/>
		<polyline class="st1" points="35.8,204.6 31.3,218.1 33.4,218 37.5,214.7 39,211.6 38.3,205.1 36.9,201.1 35.9,199.9 34,199.2 		
			"/>
		<polyline class="st1" points="34.1,36.9 33.6,47.1 28.8,56.2 33.1,59.3 34.9,58.6 39.8,56 41.8,52.1 41.7,49.9 37.6,42 37.4,36.4 
			29.8,39 		"/>
		<polyline class="st1" points="137,34.2 131.6,44.9 129.2,54.7 131.3,56.4 139.5,54.8 138.5,42.1 134.9,32.7 133.1,33.1 		"/>
		<polyline class="st1" points="496.3,27.9 498.5,36.1 495.8,42.6 497,45.1 500.5,45.5 505.7,42.3 504.2,39 504,33.5 499.8,20.8 
			498.5,19.3 496.1,21.8 492.9,27.7 492,33.1 		"/>
		<polyline class="st1" points="384.8,46.3 379.2,59.4 371.9,66.1 382.7,66.5 384.8,63.6 386.5,55.5 384.5,42.4 384,44.2 		"/>
		<polyline class="st1" points="381.8,544.5 376.6,554.1 375.5,558.1 375.3,563.5 376.8,565.2 381.1,566 382.7,558.8 380.6,546.4 
			380.9,539.2 		"/>
		<polyline class="st1" points="178.5,511.4 172,523.3 172.9,527.6 177.3,528.2 181.5,524.9 181.5,518 177.5,513 176.5,509.3 
			176.9,505.7 180.6,503.5 		"/>
	</g>
</g>
<g id="_x31_37-지면">
	<g>
		<polyline class="st1" points="31.7,709.2 57.3,707.6 87.3,707.3 167,704.1 219.6,703.2 		"/>
		<line class="st1" x1="303.3" y1="703.9" x2="331.8" y2="702.3"/>
		<polyline class="st1" points="378.9,696.4 411,696.7 461.6,693.8 493.6,693.2 		"/>
	</g>
</g>
<g id="_x31_37-사람">
	<g>
		<polyline class="st1" points="272.1,326.1 263.8,327.8 256.7,330.6 254.2,332.4 246.2,341.6 241.5,351.9 240.3,358.3 239.7,371.7 
			240.2,395.4 241,400.6 236.6,409.6 238.7,409.8 242.5,408.4 245.5,409.4 253.4,409.3 254.2,407.9 		"/>
		<polyline class="st1" points="272.7,325.8 281.2,323.2 288,323.5 297.1,326.4 306.6,331.6 314,342.5 315.9,348 318.5,352.5 
			321.2,361.9 323.5,364.1 		"/>
		<line class="st1" x1="311.9" y1="406.2" x2="321.4" y2="403.4"/>
		<polyline class="st1" points="270.3,351.3 266.4,365.7 260.6,372.5 		"/>
		<line class="st1" x1="277.9" y1="349.2" x2="280.3" y2="370.3"/>
		<polyline class="st1" points="287.6,353.1 291.4,364.4 297,369.7 		"/>
		<polyline class="st1" points="262.3,387.3 266.3,379.4 269.6,378.5 275.9,379.5 276.2,380 274.9,380.2 		"/>
		<polyline class="st1" points="287.1,381.8 292.4,374.8 295.8,373.9 299.8,377.2 301.7,380.7 300.4,381.4 		"/>
		<polyline class="st1" points="275.1,396.5 282.5,401.2 284,400.8 288.9,393.5 		"/>
		<polyline class="st1" points="262.8,405.9 269.1,412.2 286.3,416.5 292.1,415.4 297.3,413.1 301.8,409.6 308.7,400 		"/>
		<polyline class="st1" points="307.1,381 308.7,393.7 307.1,404.1 		"/>
		<polyline class="st1" points="252.2,382.6 257.1,399.5 259.9,405.5 262.2,408.9 265.4,407.6 		"/>
		<polyline class="st1" points="280.4,416.5 280.9,415.9 281.5,423.5 		"/>
		<polyline class="st1" points="289.6,416.1 290.5,420.4 291.8,421 		"/>
		<polyline class="st1" points="291.2,422.7 300.2,425.3 306.8,423.3 311.3,417.5 318.4,410.6 322.3,404.8 321.9,403.8 321.4,404.7 
					"/>
		<polyline class="st1" points="322.1,405.7 322.7,400 326.2,396.1 329.3,394.4 332.1,394.6 333,397.2 332.2,399.9 325.3,405.7 
			321,406.6 320.4,403.8 321.1,401.6 323.7,398.5 327,396.3 		"/>
		<polyline class="st1" points="279.6,423.8 269,423.1 262.3,424.2 250.7,427.9 243.9,431.4 229.2,445.6 227.8,448.7 223.1,473 
			221.7,487 222.1,505.9 221.1,505.9 222.3,504.7 222.4,502.2 		"/>
		<polyline class="st1" points="220.8,502.5 221.5,501.7 222.4,519.5 		"/>
		<polyline class="st1" points="251.5,459.2 245.7,474.3 244,486 243.4,508.1 244.1,527.8 		"/>
		<polyline class="st1" points="322.5,421.2 317.8,431 304.5,453.1 302.1,458.1 299.9,466.8 300.3,479.7 308.5,516.4 311.9,527.9 
			310.5,527.7 302.9,530.7 293.7,531.4 267.5,528.1 252.2,529.6 245.2,533.4 247.7,527.6 		"/>
		<polyline class="st1" points="223.3,515.8 231.4,520.1 237.6,521.7 240.1,522.1 242.1,519.8 241.5,519.3 		"/>
		<polyline class="st1" points="230.8,518.9 225.5,530.7 225.7,533.6 227.2,534.2 229.6,528.1 228.9,536.4 229.8,537.6 231.2,534.6 
			232.4,528.1 232.2,533.6 232.7,536.1 233.6,537 235.1,530.8 235.9,536.6 236.5,535.6 237.4,531.5 236.9,529.2 240.5,535.3 
			241.5,532.2 241.5,529.4 240.6,524 238.2,521.2 239.8,520.4 		"/>
		<polyline class="st1" points="320.2,402.8 322.5,399 327.1,394.8 327.9,394.6 327,397.8 323.6,403 329.5,398.8 331.2,398.6 
			325.6,406.1 331.3,403.7 325.6,409.6 323.6,410.1 		"/>
		<polyline class="st1" points="251.8,528.6 248.6,532.4 246.1,543.2 244.1,576.2 246.3,618.7 248.6,628.3 249.2,634.4 248.4,637.2 
			249.6,635.3 		"/>
		<polyline class="st1" points="247.9,634.3 248.2,650.4 243.9,675.2 246.5,676.5 		"/>
		<polyline class="st1" points="282.7,559.9 283.6,600.8 283.5,674.6 		"/>
		<polyline class="st1" points="283.1,557.7 285.3,568.7 295.7,595.1 322.8,676.6 323.6,678.4 323.4,675 		"/>
		<polyline class="st1" points="310.6,527.3 312.5,544.4 317.2,562.7 320.6,570.4 322.7,578.7 346.6,634.6 363.7,668.9 363.3,669.9 
			341.5,677.5 324.9,679.1 323.8,678.8 324.4,674.8 		"/>
		<polyline class="st1" points="242.4,674.3 251.3,679.9 266.2,680.9 273.5,679.9 280.6,677.5 281.7,676.8 280.1,676.8 282.8,674.1 
					"/>
		<polyline class="st1" points="257.7,682 260.7,692.1 259.4,695.8 253.9,703.3 251.3,709.1 253.6,710.6 257.5,710.5 268.7,706.4 
			271.3,703.3 271.1,689.3 272.3,682.1 273.6,679.7 		"/>
		<polyline class="st1" points="342.2,673.6 343.6,682.9 346.7,687.3 355.1,684.3 360.5,683.4 364.5,685.3 365,687.1 363.9,690.6 
			358.2,698.3 354.6,701.6 350.1,704.2 347.1,704.1 342.6,698.7 335.7,685.7 334.6,679.1 332.7,677.5 332.6,678.1 		"/>
	</g>
</g>
<g id="_x31_37-우산">
	<g>
		<polyline class="st1" points="306.8,232.6 307.8,224.1 307.4,212.6 308.8,211.5 308.1,211.4 307.4,220.2 307.5,228.6 310.4,207.3 
			309,226.4 309.1,216.5 309.1,232.1 308.4,230.4 308.7,228.1 		"/>
		<polyline class="st1" points="305.9,231.7 306.4,230.5 304.3,230.2 300,231.4 282,240.2 265.1,254.8 239.7,278.5 231.1,288 
			219.6,298.5 211.6,309.1 204.4,317.1 202,323.6 203.8,326.2 		"/>
		<polyline class="st1" points="308.5,230.3 307.8,228.1 310.4,225.2 312,225 320.2,229.2 322.3,231.1 347.5,239.4 377.3,255 
			415.2,271 422.4,275.7 430.8,285.9 439.3,301.6 442,301.5 		"/>
		<polyline class="st1" points="203.1,327.7 217.3,319.9 222.3,318.7 230.3,319.4 233.2,321.1 239.8,323 240.9,324.6 244.2,326 
			251.5,325.9 257.1,324.9 270.1,317.2 276,314.5 280,313.6 292.2,313.1 297.8,313.8 304.3,314.9 319.5,319.5 321.8,317.7 
			331.4,314.9 356.5,311.3 369.7,311.1 378.5,309.8 384.8,310.4 387,312.1 415.4,304.1 422.3,303.1 441.7,303.1 443.5,301.9 
			449.7,300.6 450.1,301.1 448.7,301.6 447.4,303.8 447.5,305 		"/>
		<polyline class="st1" points="320.7,316.4 319.8,325.1 319.9,337.9 322.8,396.1 322.3,421.1 		"/>
		<polyline class="st1" points="331.1,314.7 332.4,313.1 331.1,314.1 330.8,328 330.8,346.4 331.9,357.9 332.4,374.3 332.5,403.7 
			331.3,420.7 331.9,421.5 332.1,420.5 		"/>
		<polyline class="st1" points="301.3,258.6 293.4,265.4 287,274.3 280.2,288 277.1,296.8 		"/>
		<line class="st1" x1="312.9" y1="262.5" x2="311" y2="288.2"/>
		<polyline class="st1" points="340,258.2 347.3,263 351,266.5 356.6,276.2 357.4,284.3 		"/>
	</g>
</g>
</svg>
