<?xml version="1.0" encoding="utf-8"?>
<!-- Generator: Adobe Illustrator 26.2.1, SVG Export Plug-In . SVG Version: 6.00 Build 0)  -->
<svg version="1.1" xmlns="http://www.w3.org/2000/svg" xmlns:xlink="http://www.w3.org/1999/xlink" x="0px" y="0px"
	 viewBox="0 0 535 757" style="enable-background:new 0 0 535 757;" xml:space="preserve">
<style type="text/css">
	.st0{fill:#FFFFFF;}
	.st1{fill:none;stroke:#000000;stroke-width:2;}
</style>
<g id="레이어_1" xmlns:ev="http://www.w3.org/2001/xml-events">
	<rect class="st0" width="535" height="757"/>
	<rect class="st0" width="535" height="757"/>
</g>
<g id="_x31_39-비">
	<g>
		<polyline class="st1" points="357.5,145 355.5,146 355.5,162 354.5,166 354.5,175 356.5,181 358.5,182 359.5,182 361.5,176 
			361.5,164 358.5,148 357.5,148 357.5,149 		"/>
		<polyline class="st1" points="191.5,148 191.5,149 189.5,150 187.5,170 187.5,182 186.5,187 186.5,192 187.5,196 190.5,201 
			193.5,202 195.5,199 195.5,173 194.5,165 190.5,152 186.5,145 		"/>
		<polyline class="st1" points="142.5,257 141.5,259 141.5,288 143.5,292 143.5,295 145.5,297 146.5,296 148.5,290 149.5,274 
			144.5,253 		"/>
		<polyline class="st1" points="382.5,286 381.5,287 381.5,292 377.5,316 377.5,334 379.5,336 380.5,336 384.5,333 386.5,326 
			387.5,317 387.5,304 385.5,290 385.5,278 		"/>
		<polyline class="st1" points="120.5,134 118.5,137 116.5,143 112.5,166 110.5,179 110.5,189 111.5,191 113.5,190 116.5,178 
			117.5,169 117.5,135 119.5,133 		"/>
		<polyline class="st1" points="280.5,103 277.5,109 275.5,133 275.5,149 277.5,150 280.5,147 283.5,142 283.5,138 284.5,135 
			283.5,131 283.5,104 280.5,97 		"/>
		<polyline class="st1" points="389.5,53 387.5,55 386.5,58 386.5,62 385.5,63 385.5,66 381.5,81 380.5,94 379.5,97 381.5,101 
			383.5,102 386.5,102 388.5,100 390.5,94 392.5,72 392.5,65 389.5,54 389.5,49 390.5,48 		"/>
		<polyline class="st1" points="149.5,33 148.5,34 148.5,36 145.5,43 142.5,54 140.5,67 139.5,69 139.5,81 141.5,83 142.5,83 
			144.5,81 147.5,71 149.5,53 149.5,42 147.5,37 148.5,37 149.5,35 		"/>
		<polyline class="st1" points="66.5,110 65.5,108 64.5,108 63.5,121 59.5,146 57.5,154 57.5,167 58.5,171 59.5,171 63.5,161 
			68.5,141 68.5,122 67.5,119 67.5,112 		"/>
		<polyline class="st1" points="78.5,255 76.5,255 76.5,266 73.5,286 73.5,306 77.5,305 79.5,302 81.5,295 81.5,270 79.5,261 
			77.5,257 		"/>
		<polyline class="st1" points="411.5,210 410.5,210 409.5,212 409.5,224 413.5,243 417.5,245 417.5,241 419.5,238 420.5,232 
			420.5,226 416.5,212 415.5,210 413.5,208 412.5,208 		"/>
		<polyline class="st1" points="443.5,113 440.5,120 440.5,125 439.5,129 439.5,138 438.5,142 438.5,152 437.5,157 437.5,172 
			439.5,180 441.5,184 443.5,185 446.5,185 448.5,184 450.5,177 452.5,174 453.5,163 450.5,153 449.5,131 444.5,115 444.5,110 
			445.5,110 		"/>
		<polyline class="st1" points="316.5,109 314.5,109 313.5,113 313.5,131 315.5,132 317.5,131 318.5,129 318.5,120 315.5,111 
			313.5,108 313.5,106 314.5,106 		"/>
		<polyline class="st1" points="227.5,24 226.5,24 225.5,30 221.5,42 221.5,47 220.5,49 220.5,62 217.5,88 217.5,100 219.5,115 
			220.5,119 222.5,121 224.5,121 226.5,118 230.5,104 232.5,88 232.5,72 228.5,58 227.5,50 227.5,28 228.5,28 		"/>
	</g>
</g>
<g id="_x31_39-사람">
	<g>
		<polyline class="st1" points="254.5,306 253.5,307 251.5,306 242.5,306 239.5,307 225.5,313 216.5,321 215.5,324 213.5,326 
			210.5,332 207.5,343 207.5,368 212.5,382 213.5,382 214.5,385 222.5,394 237.5,400 244.5,400 247.5,399 257.5,398 279.5,389 
			285.5,385 288.5,382 294.5,371 295.5,367 295.5,352 293.5,345 288.5,333 282.5,325 281.5,322 279.5,321 279.5,320 276.5,317 
			268.5,312 266.5,312 262.5,310 257.5,309 252.5,305 250.5,305 248.5,307 247.5,307 247.5,308 		"/>
		<polyline class="st1" points="209.5,336 210.5,336 209.5,341 209.5,355 210.5,354 		"/>
		<polyline class="st1" points="213.5,331 212.5,331 211.5,333 211.5,342 212.5,347 213.5,348 215.5,347 		"/>
		<polyline class="st1" points="215.5,331 214.5,331 214.5,345 215.5,349 217.5,351 218.5,350 		"/>
		<polyline class="st1" points="217.5,330 216.5,330 216.5,342 217.5,347 219.5,351 221.5,351 221.5,350 		"/>
		<polyline class="st1" points="221.5,323 220.5,321 220.5,340 221.5,346 223.5,347 		"/>
		<polyline class="st1" points="222.5,320 221.5,321 220.5,326 222.5,343 224.5,347 226.5,348 226.5,346 		"/>
		<polyline class="st1" points="225.5,318 224.5,321 224.5,334 225.5,343 227.5,348 230.5,349 230.5,348 		"/>
		<polyline class="st1" points="229.5,316 228.5,316 226.5,327 228.5,344 229.5,347 230.5,347 		"/>
		<polyline class="st1" points="232.5,312 231.5,321 231.5,332 235.5,348 237.5,349 239.5,346 		"/>
		<polyline class="st1" points="238.5,310 237.5,319 237.5,330 238.5,338 240.5,345 243.5,346 		"/>
		<polyline class="st1" points="240.5,309 238.5,315 238.5,324 243.5,350 244.5,349 244.5,346 		"/>
		<polyline class="st1" points="236.5,312 235.5,312 234.5,317 234.5,330 236.5,341 241.5,357 244.5,359 246.5,358 		"/>
		<polyline class="st1" points="237.5,314 235.5,316 233.5,320 232.5,327 233.5,336 236.5,343 238.5,344 		"/>
		<polyline class="st1" points="226.5,317 224.5,319 222.5,325 222.5,346 224.5,354 226.5,354 227.5,351 		"/>
		<polyline class="st1" points="218.5,320 214.5,325 212.5,335 212.5,347 215.5,359 217.5,364 219.5,365 221.5,364 		"/>
		<polyline class="st1" points="214.5,333 211.5,342 211.5,355 214.5,364 218.5,367 221.5,366 		"/>
		<polyline class="st1" points="219.5,333 216.5,340 217.5,354 220.5,359 223.5,359 		"/>
		<polyline class="st1" points="221.5,332 219.5,340 220.5,347 224.5,355 227.5,357 230.5,356 		"/>
		<polyline class="st1" points="227.5,322 226.5,324 225.5,332 226.5,341 228.5,349 231.5,352 232.5,351 		"/>
		<polyline class="st1" points="229.5,307 229.5,306 230.5,307 232.5,311 232.5,313 233.5,313 235.5,317 235.5,328 234.5,334 
			234.5,344 235.5,346 235.5,351 232.5,357 222.5,367 220.5,368 219.5,370 219.5,369 226.5,363 230.5,357 233.5,348 237.5,328 
			237.5,316 236.5,316 236.5,327 235.5,334 232.5,342 221.5,359 211.5,367 207.5,369 206.5,369 206.5,367 209.5,363 209.5,362 
			216.5,357 225.5,349 		"/>
		<polyline class="st1" points="245.5,309 243.5,309 245.5,315 248.5,321 254.5,330 		"/>
		<polyline class="st1" points="243.5,304 241.5,304 241.5,308 243.5,319 245.5,326 249.5,335 254.5,340 261.5,343 270.5,350 
			274.5,352 282.5,353 285.5,352 286.5,349 		"/>
		<polyline class="st1" points="247.5,307 246.5,308 246.5,310 248.5,316 257.5,336 261.5,341 263.5,340 264.5,336 		"/>
		<polyline class="st1" points="248.5,314 246.5,313 245.5,315 255.5,333 262.5,343 269.5,351 271.5,351 272.5,350 272.5,346 		"/>
		<polyline class="st1" points="253.5,314 252.5,313 254.5,318 262.5,333 274.5,351 276.5,345 		"/>
		<polyline class="st1" points="258.5,310 256.5,310 256.5,311 268.5,330 275.5,344 280.5,347 281.5,345 281.5,339 		"/>
		<polyline class="st1" points="264.5,309 263.5,308 263.5,310 282.5,345 283.5,346 285.5,346 286.5,345 286.5,341 		"/>
		<polyline class="st1" points="271.5,313 272.5,318 288.5,340 289.5,341 291.5,341 292.5,338 291.5,334 		"/>
		<polyline class="st1" points="279.5,318 279.5,321 281.5,326 288.5,333 294.5,341 299.5,342 		"/>
		<polyline class="st1" points="230.5,327 229.5,333 221.5,346 212.5,355 208.5,358 205.5,358 203.5,357 203.5,356 206.5,352 		"/>
		<polyline class="st1" points="219.5,328 219.5,325 218.5,326 213.5,350 211.5,357 210.5,358 210.5,362 211.5,358 		"/>
		<polyline class="st1" points="219.5,333 220.5,326 210.5,353 		"/>
		<polyline class="st1" points="209.5,348 207.5,350 206.5,350 205.5,348 202.5,348 199.5,354 200.5,372 203.5,379 205.5,380 
			208.5,371 		"/>
		<polyline class="st1" points="293.5,340 292.5,340 292.5,337 294.5,334 297.5,332 300.5,332 302.5,336 303.5,344 301.5,351 
			298.5,355 295.5,356 293.5,354 		"/>
		<polyline class="st1" points="248.5,361 249.5,361 247.5,366 247.5,370 248.5,374 250.5,374 		"/>
		<polyline class="st1" points="264.5,355 262.5,356 262.5,357 263.5,357 263.5,355 		"/>
		<polyline class="st1" points="237.5,364 237.5,363 235.5,362 235.5,365 236.5,365 		"/>
		<polyline class="st1" points="249.5,385 251.5,386 257.5,386 		"/>
		<polyline class="st1" points="238.5,401 235.5,401 235.5,406 234.5,410 234.5,426 236.5,435 236.5,457 237.5,462 237.5,478 
			238.5,480 		"/>
		<polyline class="st1" points="277.5,389 275.5,389 274.5,391 273.5,436 272.5,446 272.5,477 		"/>
		<polyline class="st1" points="273.5,417 274.5,417 274.5,416 276.5,414 289.5,408 297.5,403 308.5,394 308.5,398 307.5,400 
			307.5,410 306.5,415 304.5,419 300.5,422 295.5,424 285.5,431 282.5,432 278.5,436 277.5,436 278.5,436 		"/>
		<polyline class="st1" points="234.5,426 233.5,425 229.5,425 209.5,415 206.5,415 204.5,418 204.5,420 201.5,429 201.5,432 
			200.5,433 200.5,435 205.5,437 217.5,444 226.5,446 231.5,446 231.5,447 230.5,447 		"/>
		<polyline class="st1" points="232.5,480 232.5,479 244.5,479 266.5,475 276.5,475 276.5,474 274.5,474 		"/>
		<polyline class="st1" points="232.5,480 232.5,479 231.5,479 231.5,485 229.5,496 229.5,501 228.5,503 227.5,521 225.5,532 
			225.5,537 227.5,539 234.5,539 239.5,537 241.5,535 241.5,533 244.5,529 247.5,520 248.5,513 249.5,510 250.5,510 251.5,504 
			252.5,503 251.5,503 251.5,530 252.5,533 253.5,534 255.5,534 260.5,536 263.5,536 272.5,533 275.5,517 275.5,504 272.5,480 
			272.5,481 271.5,481 		"/>
		<polyline class="st1" points="228.5,541 227.5,541 227.5,559 228.5,560 		"/>
		<polyline class="st1" points="235.5,544 234.5,545 234.5,559 		"/>
		<polyline class="st1" points="227.5,563 226.5,562 224.5,562 222.5,564 220.5,570 221.5,573 226.5,574 232.5,572 236.5,566 
			236.5,560 233.5,556 229.5,556 228.5,557 		"/>
		<polyline class="st1" points="260.5,535 258.5,536 254.5,564 254.5,565 255.5,564 255.5,562 		"/>
		<polyline class="st1" points="266.5,538 266.5,537 267.5,537 266.5,540 266.5,544 261.5,558 260.5,559 260.5,558 262.5,556 		"/>
		<polyline class="st1" points="258.5,564 251.5,564 251.5,570 253.5,573 258.5,574 263.5,569 266.5,561 266.5,554 263.5,552 
			253.5,552 		"/>
		<polyline class="st1" points="308.5,402 307.5,402 308.5,400 328.5,392 330.5,391 329.5,391 		"/>
		<polyline class="st1" points="307.5,410 327.5,401 328.5,399 		"/>
		<polyline class="st1" points="333.5,392 332.5,392 328.5,397 327.5,404 330.5,405 335.5,402 340.5,396 342.5,391 341.5,389 
			337.5,389 		"/>
		<line class="st1" x1="231.5" y1="322" x2="217.5" y2="360"/>
		<polyline class="st1" points="230.5,325 230.5,323 229.5,326 228.5,335 226.5,356 226.5,358 227.5,355 		"/>
		<polyline class="st1" points="235.5,323 233.5,324 231.5,330 226.5,360 227.5,360 227.5,359 		"/>
		<polyline class="st1" points="239.5,322 237.5,323 234.5,329 231.5,338 229.5,348 229.5,350 231.5,346 		"/>
		<polyline class="st1" points="239.5,323 238.5,323 233.5,337 231.5,346 231.5,353 232.5,353 		"/>
		<polyline class="st1" points="231.5,315 230.5,315 227.5,318 224.5,324 221.5,334 215.5,347 214.5,347 216.5,337 		"/>
		<polyline class="st1" points="228.5,314 228.5,312 225.5,314 215.5,329 213.5,335 211.5,344 212.5,351 217.5,351 		"/>
		<polyline class="st1" points="245.5,315 242.5,314 241.5,316 247.5,328 252.5,335 256.5,337 258.5,335 257.5,330 		"/>
		<polyline class="st1" points="249.5,316 247.5,316 248.5,321 259.5,341 265.5,348 268.5,347 269.5,345 		"/>
		<polyline class="st1" points="254.5,316 255.5,320 264.5,338 269.5,345 272.5,345 272.5,342 		"/>
		<polyline class="st1" points="257.5,318 255.5,319 255.5,320 257.5,326 262.5,334 271.5,344 272.5,344 271.5,338 		"/>
		<polyline class="st1" points="256.5,312 255.5,312 256.5,316 268.5,338 273.5,345 276.5,347 276.5,343 270.5,331 		"/>
		<polyline class="st1" points="263.5,320 274.5,342 278.5,345 279.5,343 279.5,338 		"/>
		<polyline class="st1" points="267.5,316 269.5,328 274.5,338 279.5,344 282.5,345 282.5,341 280.5,336 		"/>
		<polyline class="st1" points="271.5,319 272.5,326 277.5,333 287.5,342 288.5,341 288.5,339 		"/>
		<polyline class="st1" points="278.5,323 280.5,330 286.5,340 293.5,349 		"/>
		<polyline class="st1" points="257.5,319 258.5,319 264.5,328 270.5,335 		"/>
		<polyline class="st1" points="249.5,313 249.5,316 251.5,322 258.5,330 264.5,334 		"/>
		<polyline class="st1" points="247.5,304 245.5,306 244.5,311 249.5,328 252.5,335 254.5,336 		"/>
		<polyline class="st1" points="247.5,308 247.5,319 250.5,329 256.5,337 260.5,338 262.5,333 262.5,331 		"/>
		<polyline class="st1" points="252.5,307 253.5,308 254.5,317 257.5,326 261.5,332 263.5,332 264.5,327 		"/>
		<polyline class="st1" points="258.5,308 257.5,307 257.5,308 263.5,324 268.5,331 271.5,333 271.5,327 		"/>
		<polyline class="st1" points="229.5,319 226.5,323 219.5,348 		"/>
		<polyline class="st1" points="234.5,318 226.5,333 224.5,341 222.5,345 		"/>
		<polyline class="st1" points="235.5,317 232.5,318 227.5,323 219.5,339 216.5,348 214.5,351 		"/>
		<polyline class="st1" points="225.5,320 221.5,322 217.5,326 206.5,353 		"/>
		<polyline class="st1" points="203.5,350 203.5,351 204.5,351 		"/>
		<polyline class="st1" points="202.5,360 202.5,359 201.5,361 201.5,366 		"/>
		<polyline class="st1" points="293.5,339 295.5,339 295.5,345 294.5,346 		"/>
		<polyline class="st1" points="200.5,427 200.5,428 197.5,428 195.5,427 189.5,427 186.5,426 		"/>
		<polyline class="st1" points="200.5,422 197.5,422 191.5,420 188.5,417 188.5,418 		"/>
		<polyline class="st1" points="184.5,415 183.5,418 181.5,420 180.5,426 181.5,429 184.5,429 186.5,427 188.5,422 188.5,415 
			187.5,411 186.5,410 		"/>
	</g>
</g>
<g id="_x31_39-우산">
	<g>
		<polyline class="st1" points="328.5,389 328.5,392 327.5,390 326.5,381 321.5,365 321.5,362 315.5,330 314.5,318 312.5,312 
			312.5,308 310.5,304 310.5,297 309.5,297 309.5,298 308.5,297 		"/>
		<polyline class="st1" points="293.5,191 291.5,191 290.5,192 290.5,197 293.5,197 294.5,192 		"/>
		<polyline class="st1" points="285.5,196 275.5,201 256.5,217 252.5,221 243.5,233 233.5,249 228.5,255 224.5,267 218.5,280 
			211.5,300 211.5,302 212.5,299 213.5,299 214.5,297 216.5,297 216.5,296 218.5,294 222.5,292 224.5,292 229.5,289 236.5,289 
			240.5,287 254.5,287 255.5,288 		"/>
		<polyline class="st1" points="254.5,299 253.5,299 253.5,294 254.5,290 257.5,283 259.5,275 263.5,267 271.5,246 277.5,233 
			286.5,217 297.5,199 299.5,198 		"/>
		<polyline class="st1" points="258.5,288 257.5,289 258.5,289 262.5,287 267.5,286 301.5,286 305.5,287 310.5,290 311.5,290 
			309.5,289 		"/>
		<polyline class="st1" points="294.5,214 295.5,212 296.5,212 298.5,220 300.5,233 307.5,265 309.5,279 313.5,291 313.5,292 
			313.5,291 312.5,291 		"/>
		<polyline class="st1" points="297.5,203 298.5,203 300.5,206 309.5,229 320.5,247 322.5,253 329.5,259 337.5,272 341.5,280 
			339.5,280 		"/>
		<polyline class="st1" points="312.5,288 315.5,286 332.5,279 342.5,274 351.5,273 351.5,271 350.5,270 		"/>
		<polyline class="st1" points="299.5,194 305.5,195 321.5,203 335.5,212 345.5,221 353.5,224 359.5,228 368.5,240 370.5,242 
			376.5,245 384.5,261 385.5,261 384.5,258 383.5,258 		"/>
		<polyline class="st1" points="341.5,274 340.5,276 341.5,275 355.5,272 363.5,269 380.5,260 386.5,259 385.5,257 		"/>
		<polyline class="st1" points="342.5,279 343.5,279 341.5,279 339.5,282 338.5,285 338.5,287 339.5,288 341.5,289 345.5,285 
			347.5,280 346.5,278 340.5,278 		"/>
		<polyline class="st1" points="309.5,286 303.5,292 303.5,295 307.5,297 312.5,297 316.5,294 318.5,289 315.5,287 312.5,287 		"/>
		<polyline class="st1" points="387.5,258 383.5,258 381.5,263 381.5,266 382.5,268 385.5,267 388.5,263 388.5,259 387.5,257 
			385.5,256 		"/>
		<polyline class="st1" points="254.5,291 255.5,290 254.5,290 252.5,293 251.5,298 254.5,299 257.5,296 259.5,292 259.5,290 
			256.5,289 253.5,289 253.5,290 		"/>
		<polyline class="st1" points="211.5,298 209.5,298 208.5,306 211.5,307 216.5,304 219.5,300 220.5,296 217.5,293 		"/>
	</g>
</g>
</svg>
