<?xml version="1.0" encoding="utf-8"?>
<!-- Generator: Adobe Illustrator 26.2.1, SVG Export Plug-In . SVG Version: 6.00 Build 0)  -->
<svg version="1.1" xmlns="http://www.w3.org/2000/svg" xmlns:xlink="http://www.w3.org/1999/xlink" x="0px" y="0px"
	 viewBox="0 0 535 757" style="enable-background:new 0 0 535 757;" xml:space="preserve">
<style type="text/css">
	.st0{fill:#FFFFFF;}
	.st1{fill:none;stroke:#000000;stroke-width:2;}
</style>
<g id="레이어_1" xmlns:ev="http://www.w3.org/2001/xml-events">
	<rect class="st0" width="535" height="757"/>
	<polyline class="st1" points="86.5,582 74.5,579 61.5,577 46.5,578 45.5,579 50.5,583 57.5,586 66.5,588 88.5,590 140.5,590 
		167.5,591 204.5,599 230.5,600 242.5,598 253.5,594 256.5,590 255.5,588 243.5,583 219.5,577 201.5,577 155.5,589 148.5,589 
		146.5,588 	"/>
	<polyline class="st1" points="486.5,589 470.5,580 461.5,579 448.5,585 444.5,586 451.5,585 469.5,585 492.5,587 519.5,586 
		518.5,587 516.5,587 	"/>
	<rect class="st0" width="535" height="757"/>
</g>
<g id="_x31_40-비">
	<g>
		<polyline class="st1" points="433.5,247 438.5,256 439.5,256 441.5,258 		"/>
		<polyline class="st1" points="55.5,29 53.5,25 52.5,26 53.5,38 52.5,60 49.5,93 46.5,150 		"/>
		<polyline class="st1" points="108.5,11 109.5,10 110.5,14 111.5,29 110.5,56 107.5,84 106.5,105 109.5,125 		"/>
		<polyline class="st1" points="119.5,215 114.5,228 112.5,246 113.5,278 116.5,295 118.5,301 119.5,302 		"/>
		<polyline class="st1" points="258.5,23 257.5,21 252.5,58 251.5,82 253.5,101 		"/>
		<polyline class="st1" points="246.5,288 239.5,302 238.5,317 240.5,324 243.5,328 		"/>
		<polyline class="st1" points="350.5,27 349.5,25 347.5,41 346.5,67 346.5,89 347.5,93 		"/>
		<polyline class="st1" points="434.5,157 430.5,180 430.5,198 432.5,219 436.5,239 442.5,259 		"/>
		<polyline class="st1" points="451.5,348 446.5,354 441.5,368 440.5,391 441.5,412 443.5,427 445.5,435 446.5,436 		"/>
		<polyline class="st1" points="493.5,82 494.5,64 495.5,58 494.5,71 488.5,131 487.5,170 488.5,198 491.5,224 495.5,277 		"/>
		<polyline class="st1" points="177.5,373 171.5,377 170.5,392 174.5,417 183.5,462 185.5,482 		"/>
		<polyline class="st1" points="63.5,398 56.5,398 51.5,403 51.5,420 60.5,471 66.5,496 68.5,508 		"/>
		<polyline class="st1" points="491.5,480 484.5,479 476.5,481 475.5,489 479.5,508 486.5,531 492.5,547 497.5,555 		"/>
		<polyline class="st1" points="512.5,487 512.5,512 514.5,534 519.5,550 		"/>
		<polyline class="st1" points="239.5,493 235.5,496 231.5,516 233.5,547 238.5,568 244.5,577 246.5,578 		"/>
		<polyline class="st1" points="210.5,46 210.5,41 211.5,38 216.5,34 		"/>
		<polyline class="st1" points="457.5,7 457.5,6 459.5,10 462.5,19 463.5,38 		"/>
		<polyline class="st1" points="55.5,165 51.5,169 50.5,184 51.5,200 56.5,208 		"/>
		<polyline class="st1" points="383.5,104 385.5,102 384.5,108 386.5,112 400.5,122 406.5,123 		"/>
	</g>
</g>
<g id="_x31_40-지면">
	<g>
		<polyline class="st1" points="24.5,580 33.5,580 53.5,578 93.5,572 114.5,572 183.5,575 231.5,574 408.5,574 422.5,573 455.5,573 
			476.5,575 501.5,574 513.5,576 523.5,579 		"/>
	</g>
</g>
<g id="_x31_40-우산">
	<g>
		<polyline class="st1" points="231.5,254 228.5,254 226.5,252 226.5,251 231.5,246 242.5,240 262.5,234 276.5,234 288.5,236 
			289.5,237 303.5,239 309.5,239 315.5,241 333.5,252 338.5,257 344.5,273 346.5,273 349.5,275 		"/>
		<polyline class="st1" points="223.5,256 221.5,255 220.5,253 220.5,245 222.5,239 231.5,224 237.5,216 248.5,204 256.5,197 
			273.5,187 294.5,178 309.5,175 345.5,174 355.5,176 371.5,181 378.5,184 390.5,191 397.5,196 398.5,198 403.5,201 415.5,215 
			427.5,235 429.5,240 431.5,251 431.5,262 433.5,263 		"/>
		<polyline class="st1" points="349.5,278 347.5,279 347.5,276 348.5,275 358.5,270 376.5,266 383.5,267 397.5,273 411.5,277 
			412.5,277 411.5,275 417.5,267 422.5,264 426.5,263 431.5,264 440.5,269 443.5,269 445.5,270 		"/>
		<polyline class="st1" points="399.5,269 400.5,269 400.5,277 402.5,290 402.5,323 409.5,370 410.5,392 413.5,406 413.5,442 
			411.5,446 411.5,450 410.5,453 410.5,456 411.5,454 		"/>
		<polyline class="st1" points="409.5,467 407.5,477 405.5,480 402.5,482 396.5,481 387.5,476 382.5,472 381.5,472 387.5,470 		"/>
		<polyline class="st1" points="356.5,173 350.5,171 340.5,176 332.5,183 321.5,190 309.5,200 295.5,214 286.5,227 280.5,245 
			279.5,253 277.5,255 275.5,255 273.5,253 270.5,252 266.5,252 260.5,250 252.5,249 241.5,254 229.5,261 227.5,263 217.5,268 
			215.5,270 219.5,270 221.5,269 		"/>
		<polyline class="st1" points="277.5,256 276.5,255 276.5,253 282.5,251 288.5,251 305.5,256 328.5,265 339.5,275 340.5,278 
			338.5,277 		"/>
		<polyline class="st1" points="344.5,184 338.5,177 338.5,176 336.5,175 338.5,177 342.5,179 346.5,183 353.5,197 353.5,202 
			354.5,204 354.5,215 356.5,225 363.5,247 362.5,254 359.5,259 358.5,263 358.5,267 359.5,267 		"/>
		<polyline class="st1" points="366.5,190 363.5,190 366.5,196 370.5,200 379.5,219 383.5,234 396.5,264 396.5,269 393.5,270 		"/>
		<polyline class="st1" points="245.5,216 240.5,217 233.5,222 228.5,230 223.5,241 220.5,253 218.5,262 218.5,268 219.5,267 		"/>
		<polyline class="st1" points="379.5,185 388.5,186 395.5,189 401.5,196 405.5,208 408.5,235 408.5,245 409.5,246 		"/>
	</g>
</g>
<g id="_x31_40-사람">
	<g>
		<polyline class="st1" points="335.5,317 334.5,317 330.5,312 319.5,309 309.5,309 301.5,310 300.5,311 296.5,312 289.5,316 
			283.5,324 282.5,329 282.5,339 286.5,356 290.5,366 296.5,375 303.5,381 316.5,386 331.5,388 344.5,386 350.5,384 361.5,378 
			367.5,373 375.5,362 378.5,356 379.5,346 377.5,335 373.5,325 370.5,322 366.5,320 361.5,318 351.5,316 329.5,316 323.5,317 
			316.5,319 315.5,321 315.5,324 		"/>
		<polyline class="st1" points="321.5,384 320.5,402 322.5,406 324.5,407 327.5,407 333.5,404 343.5,395 345.5,390 343.5,387 
			340.5,385 339.5,383 		"/>
		<polyline class="st1" points="319.5,392 318.5,391 315.5,391 312.5,393 310.5,396 306.5,399 288.5,418 285.5,419 285.5,420 
			282.5,422 278.5,428 277.5,432 274.5,436 274.5,437 273.5,437 268.5,442 267.5,445 271.5,445 272.5,446 279.5,448 288.5,448 
			288.5,447 289.5,447 299.5,438 310.5,425 310.5,424 312.5,424 312.5,423 313.5,423 314.5,424 314.5,430 312.5,446 312.5,458 
			311.5,467 310.5,470 309.5,470 310.5,472 328.5,470 360.5,470 362.5,469 363.5,467 		"/>
		<polyline class="st1" points="345.5,391 347.5,391 355.5,394 363.5,399 378.5,406 400.5,422 404.5,427 406.5,431 406.5,437 
			407.5,440 407.5,446 406.5,449 401.5,455 397.5,456 392.5,452 390.5,448 368.5,427 365.5,426 360.5,426 360.5,432 365.5,456 
			366.5,469 364.5,469 363.5,470 359.5,470 		"/>
		<polyline class="st1" points="308.5,471 308.5,469 309.5,472 309.5,478 305.5,517 305.5,524 303.5,530 300.5,546 297.5,549 
			296.5,553 300.5,552 330.5,552 334.5,553 334.5,536 335.5,529 336.5,506 337.5,501 340.5,493 341.5,493 344.5,534 345.5,543 
			346.5,545 347.5,546 349.5,546 349.5,547 351.5,549 383.5,548 381.5,545 378.5,518 376.5,511 372.5,479 371.5,475 368.5,472 
			368.5,471 		"/>
		<polyline class="st1" points="311.5,553 305.5,552 287.5,565 291.5,565 303.5,568 325.5,572 329.5,572 333.5,569 333.5,567 
			325.5,549 324.5,549 327.5,551 		"/>
		<polyline class="st1" points="360.5,550 358.5,549 355.5,553 351.5,569 352.5,568 386.5,568 393.5,569 390.5,568 387.5,565 
			373.5,538 		"/>
		<polyline class="st1" points="402.5,448 405.5,465 409.5,470 415.5,473 419.5,470 419.5,460 415.5,450 412.5,446 410.5,445 
			408.5,445 408.5,446 		"/>
		<polyline class="st1" points="275.5,446 270.5,447 264.5,454 261.5,460 260.5,465 262.5,467 267.5,467 273.5,464 280.5,458 		"/>
		<polyline class="st1" points="305.5,314 299.5,314 295.5,316 290.5,321 277.5,341 277.5,342 281.5,341 		"/>
		<polyline class="st1" points="313.5,315 313.5,313 312.5,313 297.5,333 286.5,350 287.5,350 291.5,347 302.5,337 316.5,321 
			319.5,315 312.5,321 300.5,336 295.5,345 299.5,343 305.5,338 313.5,333 333.5,316 331.5,320 314.5,340 315.5,340 325.5,332 
			341.5,321 342.5,321 341.5,325 334.5,338 332.5,340 342.5,332 350.5,327 357.5,321 360.5,320 360.5,322 358.5,327 350.5,341 
			370.5,329 371.5,330 369.5,336 362.5,350 364.5,349 376.5,337 379.5,336 380.5,337 380.5,352 381.5,353 385.5,348 386.5,342 
			383.5,339 376.5,329 370.5,323 363.5,318 355.5,316 347.5,316 335.5,318 334.5,317 335.5,313 333.5,312 328.5,312 301.5,325 
			293.5,327 290.5,327 292.5,318 283.5,331 283.5,333 285.5,333 		"/>
		<polyline class="st1" points="299.5,357 298.5,357 298.5,356 306.5,352 316.5,351 319.5,351 319.5,352 		"/>
		<polyline class="st1" points="309.5,363 307.5,363 310.5,363 310.5,362 312.5,361 312.5,364 		"/>
		<polyline class="st1" points="352.5,355 348.5,355 351.5,354 367.5,352 		"/>
		<polyline class="st1" points="357.5,359 355.5,359 358.5,365 357.5,367 356.5,366 355.5,364 355.5,359 358.5,359 358.5,361 		"/>
		<polyline class="st1" points="326.5,380 323.5,379 323.5,380 325.5,382 332.5,383 335.5,382 337.5,380 337.5,379 339.5,378 
			339.5,377 		"/>
		<polyline class="st1" points="311.5,366 311.5,365 310.5,365 306.5,367 306.5,366 308.5,364 311.5,364 312.5,366 		"/>
	</g>
</g>
</svg>
