<?xml version="1.0" encoding="utf-8"?>
<!-- Generator: Adobe Illustrator 26.2.1, SVG Export Plug-In . SVG Version: 6.00 Build 0)  -->
<svg version="1.1" xmlns="http://www.w3.org/2000/svg" xmlns:xlink="http://www.w3.org/1999/xlink" x="0px" y="0px"
	 viewBox="0 0 535 757" style="enable-background:new 0 0 535 757;" xml:space="preserve">
<style type="text/css">
	.st0{fill:#FFFFFF;}
	.st1{fill:none;stroke:#000000;stroke-width:2;}
</style>
<g id="레이어_1" xmlns:ev="http://www.w3.org/2001/xml-events">
	<rect class="st0" width="535" height="757"/>
	<rect class="st0" width="535" height="757"/>
</g>
<g id="_x31_41-우산">
	<g>
		<polyline class="st1" points="172,119 162,119 151,124 137,134 123,147 107,166 92,187 88,195 85,199 80,210 78,212 72,224 
			72,226 69,229 67,234 66,234 66,236 65,236 65,240 69,239 73,235 80,231 82,229 87,227 88,230 91,229 94,226 97,228 101,228 
			105,224 108,227 112,224 116,228 119,228 122,226 125,229 129,228 133,231 136,231 138,232 141,234 147,248 149,250 152,250 
			155,247 156,244 159,240 161,234 167,223 169,225 170,223 174,219 182,215 189,215 190,216 194,217 195,219 200,224 202,225 
			207,225 209,224 221,211 224,211 231,206 236,206 240,208 253,222 257,223 264,223 267,222 277,216 283,214 286,214 289,215 
			293,219 299,229 305,235 308,236 316,236 329,228 331,228 332,229 334,235 335,233 335,218 334,214 329,199 326,193 320,185 
			312,178 303,168 296,162 292,160 276,148 252,132 243,127 234,123 214,119 204,118 179,118 163,121 155,124 141,132 138,135 
			143,135 149,133 		"/>
		<polyline class="st1" points="195,121 192,121 192,118 195,110 203,94 206,95 206,128 208,132 209,132 209,133 		"/>
		<polyline class="st1" points="140,232 138,233 134,244 131,258 129,274 129,308 130,312 130,340 131,343 131,348 133,355 135,390 
			133,395 131,397 127,397 120,387 120,385 117,381 116,378 114,376 114,374 115,374 		"/>
	</g>
</g>
<g id="_x31_41-사람">
	<g>
		<polyline class="st1" points="215,322 211,324 209,324 205,326 200,327 193,327 179,324 168,320 162,316 151,305 147,297 143,303 
			141,295 139,304 137,293 138,284 143,269 152,256 158,250 170,241 192,232 200,231 216,231 243,235 252,235 258,247 261,259 
			261,272 260,278 258,289 254,299 247,311 237,319 231,325 222,331 214,334 211,334 207,331 206,331 		"/>
		<polyline class="st1" points="208,317 208,333 210,348 210,359 212,373 212,378 214,388 216,416 218,426 219,442 221,456 221,464 
			222,468 222,484 221,480 		"/>
		<polyline class="st1" points="209,395 209,398 207,398 201,395 191,392 174,391 166,392 153,396 150,396 144,399 		"/>
		<polyline class="st1" points="235,383 238,383 241,381 246,380 271,368 279,365 282,365 		"/>
		<polyline class="st1" points="220,466 214,471 207,481 190,508 188,513 185,516 181,524 179,525 179,520 		"/>
		<polyline class="st1" points="207,464 210,463 216,463 220,465 227,472 240,491 246,502 249,505 251,509 255,513 256,516 258,517 
			258,518 		"/>
	</g>
</g>
<g id="_x31_41-비">
	<g>
		<polyline class="st1" points="53,46 52,47 51,54 51,64 54,73 57,78 59,75 		"/>
		<polyline class="st1" points="48,136 49,137 46,148 46,166 48,170 53,171 		"/>
		<polyline class="st1" points="210,47 211,48 209,59 209,68 209,67 211,71 		"/>
		<polyline class="st1" points="316,124 319,130 319,134 322,150 323,151 326,149 		"/>
		<polyline class="st1" points="378,66 375,72 373,82 373,115 		"/>
		<polyline class="st1" points="384,194 382,210 382,222 383,232 		"/>
		<polyline class="st1" points="387,273 387,295 388,298 390,314 		"/>
		<polyline class="st1" points="332,323 331,323 329,328 329,355 331,364 		"/>
		<polyline class="st1" points="36,269 31,283 31,299 		"/>
		<polyline class="st1" points="28,347 29,352 28,354 27,363 28,374 30,379 36,389 38,391 		"/>
	</g>
</g>
</svg>
