<?xml version="1.0" encoding="utf-8"?>
<!-- Generator: Adobe Illustrator 26.2.1, SVG Export Plug-In . SVG Version: 6.00 Build 0)  -->
<svg version="1.1" xmlns="http://www.w3.org/2000/svg" xmlns:xlink="http://www.w3.org/1999/xlink" x="0px" y="0px"
	 viewBox="0 0 535 757" style="enable-background:new 0 0 535 757;" xml:space="preserve">
<style type="text/css">
	.st0{fill:#FFFFFF;}
	.st1{fill:none;stroke:#000000;stroke-width:2;}
</style>
<g id="레이어_1" xmlns:ev="http://www.w3.org/2001/xml-events">
	<rect class="st0" width="535" height="757"/>
	<rect class="st0" width="535" height="757"/>
</g>
<g id="_x31_44-사람">
	<g>
		<polyline class="st1" points="101.5,419 101.5,418 95.5,418 89.5,421 85.5,425 81.5,431 80.5,435 79.5,435 77.5,439 73.5,450 
			73.5,456 75.5,460 77.5,461 77.5,462 81.5,465 90.5,468 97.5,469 118.5,469 130.5,466 136.5,463 138.5,461 141.5,454 141.5,451 
			142.5,449 142.5,437 138.5,429 131.5,422 130.5,422 129.5,420 117.5,415 102.5,415 100.5,414 97.5,414 95.5,415 84.5,427 
			80.5,435 80.5,443 85.5,454 92.5,459 96.5,460 		"/>
		<polyline class="st1" points="90.5,422 88.5,424 85.5,425 84.5,427 80.5,430 77.5,436 77.5,446 78.5,449 78.5,453 82.5,465 
			91.5,468 119.5,467 		"/>
		<polyline class="st1" points="106.5,412 106.5,413 110.5,412 119.5,412 122.5,413 127.5,419 141.5,432 		"/>
		<polyline class="st1" points="114.5,449 113.5,451 113.5,455 120.5,455 123.5,452 124.5,452 125.5,450 		"/>
		<polyline class="st1" points="97.5,454 100.5,458 101.5,458 		"/>
		<polyline class="st1" points="83.5,454 81.5,454 84.5,454 97.5,464 101.5,464 		"/>
		<polyline class="st1" points="82.5,450 82.5,451 97.5,463 		"/>
		<polyline class="st1" points="78.5,452 77.5,452 78.5,454 86.5,466 92.5,469 94.5,468 		"/>
		<polyline class="st1" points="83.5,457 84.5,460 90.5,466 94.5,468 98.5,468 		"/>
		<polyline class="st1" points="87.5,456 88.5,458 89.5,458 96.5,464 103.5,467 		"/>
		<polyline class="st1" points="90.5,456 89.5,456 89.5,459 95.5,463 105.5,467 		"/>
		<line class="st1" x1="98.5" y1="461" x2="113.5" y2="469"/>
		<polyline class="st1" points="101.5,459 103.5,462 106.5,464 111.5,465 116.5,468 		"/>
		<polyline class="st1" points="103.5,459 105.5,461 116.5,464 		"/>
		<polyline class="st1" points="93.5,453 90.5,453 91.5,453 93.5,455 102.5,460 		"/>
		<polyline class="st1" points="82.5,442 82.5,445 85.5,448 93.5,454 97.5,456 		"/>
		<polyline class="st1" points="84.5,448 85.5,451 92.5,455 96.5,456 		"/>
		<polyline class="st1" points="86.5,445 88.5,447 97.5,449 103.5,452 		"/>
		<polyline class="st1" points="83.5,445 83.5,446 87.5,446 91.5,445 97.5,442 		"/>
		<polyline class="st1" points="86.5,441 85.5,441 85.5,440 89.5,436 		"/>
		<polyline class="st1" points="87.5,438 86.5,438 86.5,436 90.5,434 		"/>
		<polyline class="st1" points="83.5,440 89.5,440 99.5,445 		"/>
		<polyline class="st1" points="92.5,445 97.5,447 101.5,447 		"/>
		<line class="st1" x1="100.5" y1="443" x2="106.5" y2="443"/>
		<line class="st1" x1="104.5" y1="442" x2="122.5" y2="442"/>
		<line class="st1" x1="116.5" y1="442" x2="122.5" y2="443"/>
		<line class="st1" x1="109.5" y1="444" x2="115.5" y2="445"/>
		<polyline class="st1" points="98.5,445 98.5,447 108.5,452 		"/>
		<polyline class="st1" points="99.5,447 104.5,451 116.5,454 		"/>
		<polyline class="st1" points="106.5,450 107.5,453 119.5,459 		"/>
		<polyline class="st1" points="111.5,454 110.5,456 118.5,462 		"/>
		<polyline class="st1" points="106.5,457 104.5,458 105.5,460 110.5,462 116.5,462 		"/>
		<polyline class="st1" points="98.5,455 96.5,455 95.5,456 101.5,459 115.5,462 118.5,462 		"/>
		<polyline class="st1" points="111.5,460 114.5,461 121.5,461 		"/>
		<line class="st1" x1="120.5" y1="461" x2="127.5" y2="461"/>
		<polyline class="st1" points="128.5,462 132.5,462 133.5,461 		"/>
		<polyline class="st1" points="120.5,462 123.5,463 132.5,463 137.5,461 		"/>
		<polyline class="st1" points="124.5,463 124.5,464 130.5,464 138.5,463 138.5,462 		"/>
		<polyline class="st1" points="125.5,463 128.5,465 130.5,465 133.5,463 		"/>
		<polyline class="st1" points="124.5,463 123.5,463 120.5,467 120.5,468 122.5,470 129.5,470 133.5,469 135.5,467 		"/>
		<line class="st1" x1="123.5" y1="463" x2="139.5" y2="462"/>
		<polyline class="st1" points="88.5,447 84.5,446 83.5,442 87.5,432 91.5,427 		"/>
		<polyline class="st1" points="88.5,439 86.5,437 86.5,433 94.5,430 98.5,430 		"/>
		<line class="st1" x1="91.5" y1="431" x2="107.5" y2="431"/>
		<polyline class="st1" points="86.5,432 86.5,430 89.5,425 95.5,419 97.5,418 		"/>
		<polyline class="st1" points="90.5,425 91.5,423 95.5,420 98.5,418 100.5,418 		"/>
		<line class="st1" x1="97.5" y1="423" x2="100.5" y2="420"/>
		<polyline class="st1" points="93.5,434 91.5,435 97.5,435 103.5,434 104.5,433 		"/>
		<polyline class="st1" points="93.5,437 93.5,439 103.5,440 		"/>
		<polyline class="st1" points="93.5,436 93.5,437 95.5,437 101.5,435 103.5,433 		"/>
		<polyline class="st1" points="94.5,424 92.5,424 92.5,423 93.5,423 93.5,422 95.5,422 		"/>
		<polyline class="st1" points="97.5,419 98.5,419 98.5,421 		"/>
		<polyline class="st1" points="113.5,418 113.5,417 111.5,417 111.5,418 108.5,422 108.5,430 109.5,431 		"/>
		<polyline class="st1" points="110.5,423 108.5,423 107.5,424 107.5,426 		"/>
		<polyline class="st1" points="110.5,424 108.5,424 109.5,424 109.5,425 111.5,425 111.5,426 		"/>
		<line class="st1" x1="114.5" y1="416" x2="114.5" y2="417"/>
		<polyline class="st1" points="113.5,425 112.5,427 111.5,427 113.5,426 114.5,424 115.5,424 		"/>
		<polyline class="st1" points="114.5,423 113.5,423 113.5,419 112.5,418 113.5,416 		"/>
		<polyline class="st1" points="122.5,418 120.5,417 123.5,417 125.5,416 131.5,416 134.5,417 		"/>
		<polyline class="st1" points="131.5,419 130.5,419 130.5,422 		"/>
		<line class="st1" x1="132.5" y1="419" x2="132.5" y2="420"/>
		<polyline class="st1" points="134.5,425 134.5,424 133.5,424 140.5,424 		"/>
		<polyline class="st1" points="139.5,427 139.5,430 140.5,431 		"/>
		<polyline class="st1" points="139.5,425 138.5,424 139.5,425 		"/>
		<polyline class="st1" points="103.5,448 103.5,449 104.5,447 107.5,447 109.5,448 116.5,448 		"/>
		<line class="st1" x1="118.5" y1="447" x2="118.5" y2="448"/>
		<polyline class="st1" points="118.5,445 116.5,445 115.5,446 115.5,450 116.5,451 118.5,452 121.5,452 126.5,449 		"/>
		<polyline class="st1" points="125.5,447 125.5,448 127.5,448 		"/>
		<line class="st1" x1="99.5" y1="435" x2="107.5" y2="439"/>
		<polyline class="st1" points="102.5,436 103.5,438 107.5,439 		"/>
		<line class="st1" x1="101.5" y1="431" x2="102.5" y2="433"/>
		<polyline class="st1" points="102.5,428 103.5,429 106.5,428 		"/>
		<polyline class="st1" points="101.5,422 102.5,419 104.5,419 104.5,418 107.5,418 		"/>
		<polyline class="st1" points="104.5,418 104.5,417 105.5,417 		"/>
		<polyline class="st1" points="103.5,423 103.5,424 104.5,423 		"/>
		<polyline class="st1" points="103.5,422 102.5,422 101.5,419 103.5,417 105.5,417 		"/>
		<polyline class="st1" points="103.5,421 102.5,421 104.5,421 108.5,424 		"/>
		<polyline class="st1" points="105.5,426 105.5,428 104.5,428 104.5,429 		"/>
		<polyline class="st1" points="94.5,460 93.5,460 93.5,462 94.5,463 98.5,465 101.5,465 		"/>
		<polyline class="st1" points="101.5,464 103.5,466 106.5,466 108.5,467 		"/>
		<polyline class="st1" points="110.5,467 110.5,468 111.5,468 		"/>
		<polyline class="st1" points="115.5,465 113.5,466 115.5,466 115.5,465 		"/>
		<polyline class="st1" points="143.5,440 143.5,441 144.5,441 		"/>
		<line class="st1" x1="145.5" y1="440" x2="148.5" y2="440"/>
		<polyline class="st1" points="149.5,440 147.5,440 150.5,439 153.5,439 		"/>
		<polyline class="st1" points="143.5,460 147.5,460 149.5,461 		"/>
		<polyline class="st1" points="141.5,466 142.5,467 145.5,467 		"/>
		<line class="st1" x1="143.5" y1="466" x2="152.5" y2="466"/>
		<polyline class="st1" points="156.5,465 159.5,466 166.5,471 167.5,471 		"/>
		<polyline class="st1" points="159.5,466 159.5,467 182.5,476 184.5,476 		"/>
		<polyline class="st1" points="175.5,470 177.5,470 183.5,473 190.5,478 199.5,483 204.5,483 		"/>
		<polyline class="st1" points="206.5,481 216.5,485 221.5,485 		"/>
		<polyline class="st1" points="221.5,480 223.5,481 229.5,481 		"/>
		<polyline class="st1" points="233.5,481 238.5,481 240.5,482 248.5,483 		"/>
		<polyline class="st1" points="220.5,483 220.5,484 231.5,485 242.5,488 261.5,488 		"/>
		<polyline class="st1" points="157.5,465 156.5,465 155.5,464 156.5,464 162.5,469 167.5,471 184.5,481 194.5,483 219.5,485 
			242.5,491 249.5,491 256.5,489 270.5,489 270.5,490 		"/>
		<polyline class="st1" points="265.5,490 266.5,491 268.5,490 268.5,489 269.5,489 		"/>
		<polyline class="st1" points="267.5,488 267.5,489 268.5,489 		"/>
		<polyline class="st1" points="237.5,465 237.5,466 252.5,466 259.5,468 263.5,468 		"/>
		<polyline class="st1" points="241.5,464 238.5,464 242.5,464 252.5,468 258.5,469 		"/>
		<polyline class="st1" points="228.5,461 232.5,463 236.5,463 240.5,465 250.5,467 253.5,469 257.5,469 256.5,468 254.5,468 
			258.5,469 262.5,469 263.5,470 263.5,472 		"/>
		<polyline class="st1" points="225.5,460 246.5,468 251.5,469 		"/>
		<polyline class="st1" points="156.5,435 156.5,434 185.5,434 		"/>
		<polyline class="st1" points="188.5,432 208.5,431 211.5,430 		"/>
		<polyline class="st1" points="186.5,430 214.5,426 225.5,426 234.5,429 		"/>
		<line class="st1" x1="248.5" y1="432" x2="264.5" y2="432"/>
		<polyline class="st1" points="264.5,467 263.5,467 263.5,468 265.5,469 271.5,469 		"/>
		<line class="st1" x1="269.5" y1="468" x2="279.5" y2="468"/>
		<line class="st1" x1="280.5" y1="471" x2="290.5" y2="471"/>
		<polyline class="st1" points="270.5,485 270.5,486 281.5,486 287.5,483 		"/>
		<polyline class="st1" points="286.5,483 286.5,484 285.5,484 		"/>
		<polyline class="st1" points="290.5,467 290.5,468 290.5,467 296.5,464 		"/>
		<polyline class="st1" points="295.5,466 295.5,467 296.5,467 301.5,471 301.5,472 299.5,473 298.5,475 295.5,477 		"/>
		<line class="st1" x1="294.5" y1="476" x2="295.5" y2="478"/>
		<polyline class="st1" points="296.5,477 296.5,478 307.5,479 		"/>
		<polyline class="st1" points="304.5,478 303.5,479 303.5,480 304.5,480 304.5,482 301.5,483 297.5,483 302.5,483 304.5,484 
			305.5,486 306.5,486 306.5,487 304.5,487 300.5,489 301.5,489 302.5,491 302.5,493 301.5,493 302.5,496 295.5,496 294.5,497 
			294.5,499 293.5,499 289.5,493 285.5,489 276.5,483 276.5,484 		"/>
		<polyline class="st1" points="309.5,468 308.5,468 307.5,470 314.5,473 319.5,473 		"/>
		<line class="st1" x1="313.5" y1="478" x2="318.5" y2="478"/>
		<polyline class="st1" points="263.5,436 300.5,436 308.5,437 323.5,435 330.5,433 332.5,433 334.5,435 338.5,435 		"/>
		<polyline class="st1" points="338.5,435 339.5,435 339.5,436 341.5,436 344.5,434 354.5,431 		"/>
		<polyline class="st1" points="352.5,433 355.5,432 366.5,432 		"/>
		<line class="st1" x1="364.5" y1="433" x2="378.5" y2="429"/>
		<polyline class="st1" points="371.5,430 375.5,430 377.5,429 389.5,427 		"/>
		<polyline class="st1" points="383.5,434 383.5,432 392.5,432 410.5,430 416.5,428 		"/>
		<polyline class="st1" points="405.5,429 413.5,429 432.5,425 442.5,422 446.5,422 447.5,423 		"/>
		<polyline class="st1" points="438.5,425 449.5,428 452.5,428 456.5,426 458.5,426 		"/>
		<polyline class="st1" points="447.5,427 446.5,427 446.5,426 448.5,426 449.5,427 453.5,428 456.5,428 456.5,427 455.5,427 		"/>
		<polyline class="st1" points="317.5,469 315.5,469 314.5,470 315.5,470 317.5,469 324.5,468 352.5,465 368.5,466 403.5,456 
			417.5,457 432.5,454 433.5,453 		"/>
		<polyline class="st1" points="444.5,427 445.5,428 454.5,430 455.5,431 458.5,431 458.5,434 		"/>
		<polyline class="st1" points="450.5,427 451.5,427 454.5,423 460.5,423 460.5,430 456.5,436 452.5,440 448.5,442 448.5,443 
			445.5,447 445.5,449 442.5,456 440.5,458 431.5,463 431.5,462 425.5,459 424.5,457 424.5,456 427.5,454 		"/>
		<polyline class="st1" points="452.5,428 450.5,427 462.5,424 464.5,429 464.5,433 462.5,439 461.5,440 		"/>
		<polyline class="st1" points="273.5,436 271.5,440 271.5,448 		"/>
		<polyline class="st1" points="273.5,447 276.5,453 277.5,458 279.5,462 280.5,468 		"/>
		<line class="st1" x1="277.5" y1="459" x2="279.5" y2="465"/>
		<line class="st1" x1="274.5" y1="443" x2="279.5" y2="452"/>
		<polyline class="st1" points="302.5,421 300.5,421 302.5,429 302.5,436 301.5,436 301.5,437 301.5,436 		"/>
		<polyline class="st1" points="150.5,436 159.5,432 181.5,428 192.5,424 198.5,424 		"/>
		<polyline class="st1" points="201.5,426 200.5,426 201.5,425 206.5,424 214.5,424 227.5,426 		"/>
		<line class="st1" x1="226.5" y1="423" x2="251.5" y2="423"/>
		<polyline class="st1" points="331.5,424 359.5,424 361.5,425 		"/>
		<line class="st1" x1="362.5" y1="427" x2="363.5" y2="427"/>
		<polyline class="st1" points="315.5,427 338.5,427 346.5,428 374.5,429 378.5,430 		"/>
		<polyline class="st1" points="413.5,423 428.5,424 433.5,425 437.5,427 		"/>
	</g>
</g>
<g id="_x31_44-비">
	<g>
		<line class="st1" x1="97.5" y1="507" x2="97.5" y2="508"/>
		<polyline class="st1" points="286.5,241 286.5,236 287.5,234 288.5,234 		"/>
		<polyline class="st1" points="292.5,229 293.5,229 293.5,227 		"/>
		<polyline class="st1" points="297.5,280 295.5,280 295.5,291 296.5,294 296.5,316 295.5,317 295.5,319 297.5,318 		"/>
		<polyline class="st1" points="325.5,309 325.5,308 323.5,308 323.5,307 322.5,307 321.5,309 321.5,313 322.5,313 322.5,314 		"/>
		<polyline class="st1" points="49.5,35 46.5,36 45.5,41 45.5,56 51.5,73 52.5,78 54.5,97 54.5,104 		"/>
		<polyline class="st1" points="104.5,39 106.5,50 107.5,71 112.5,90 113.5,91 		"/>
		<polyline class="st1" points="86.5,135 88.5,156 88.5,177 		"/>
		<polyline class="st1" points="68.5,215 65.5,218 64.5,230 66.5,238 68.5,252 70.5,259 		"/>
		<polyline class="st1" points="79.5,274 76.5,280 75.5,285 75.5,290 77.5,293 		"/>
		<polyline class="st1" points="134.5,285 134.5,291 138.5,309 140.5,317 143.5,322 		"/>
		<polyline class="st1" points="176.5,307 173.5,311 172.5,334 172.5,336 175.5,340 176.5,340 		"/>
		<polyline class="st1" points="193.5,150 192.5,156 194.5,195 197.5,229 200.5,249 203.5,257 		"/>
		<polyline class="st1" points="204.5,80 201.5,80 201.5,93 205.5,115 208.5,141 		"/>
		<polyline class="st1" points="177.5,32 176.5,34 177.5,42 187.5,71 190.5,83 193.5,102 197.5,120 202.5,130 		"/>
		<polyline class="st1" points="270.5,54 272.5,60 276.5,84 277.5,103 279.5,114 284.5,120 		"/>
		<polyline class="st1" points="318.5,111 321.5,112 325.5,122 327.5,132 331.5,142 334.5,145 339.5,148 341.5,148 		"/>
		<polyline class="st1" points="358.5,158 357.5,161 357.5,172 359.5,179 362.5,185 366.5,190 		"/>
		<polyline class="st1" points="389.5,227 387.5,231 386.5,239 386.5,249 390.5,262 395.5,268 		"/>
		<polyline class="st1" points="408.5,292 406.5,295 405.5,310 408.5,316 410.5,317 		"/>
		<polyline class="st1" points="417.5,334 414.5,339 413.5,346 413.5,353 415.5,359 		"/>
		<polyline class="st1" points="420.5,364 419.5,368 419.5,389 420.5,402 		"/>
		<polyline class="st1" points="431.5,42 430.5,41 435.5,108 437.5,121 440.5,132 442.5,134 442.5,136 440.5,140 434.5,159 
			434.5,166 		"/>
		<polyline class="st1" points="444.5,197 444.5,224 446.5,233 		"/>
		<polyline class="st1" points="456.5,282 453.5,296 456.5,311 459.5,315 		"/>
		<polyline class="st1" points="479.5,333 476.5,335 470.5,342 470.5,354 473.5,360 478.5,366 		"/>
		<polyline class="st1" points="483.5,375 477.5,389 474.5,400 		"/>
		<polyline class="st1" points="265.5,203 261.5,205 257.5,261 257.5,272 258.5,272 258.5,273 254.5,275 253.5,281 253.5,292 		"/>
		<polyline class="st1" points="249.5,324 247.5,327 246.5,332 246.5,336 247.5,336 		"/>
		<polyline class="st1" points="237.5,372 234.5,378 229.5,382 228.5,385 231.5,380 		"/>
		<polyline class="st1" points="216.5,279 213.5,270 212.5,270 213.5,275 213.5,297 209.5,347 		"/>
		<polyline class="st1" points="208.5,349 207.5,347 206.5,347 204.5,349 198.5,359 194.5,361 		"/>
		<polyline class="st1" points="184.5,360 179.5,359 176.5,351 175.5,346 		"/>
		<polyline class="st1" points="124.5,256 116.5,257 113.5,267 111.5,286 111.5,304 110.5,307 		"/>
		<polyline class="st1" points="101.5,349 94.5,358 93.5,363 		"/>
		<polyline class="st1" points="58.5,376 50.5,375 49.5,373 		"/>
		<polyline class="st1" points="37.5,324 32.5,328 25.5,346 21.5,366 17.5,393 6.5,440 7.5,455 9.5,464 23.5,481 28.5,491 29.5,499 
			28.5,527 30.5,531 		"/>
		<polyline class="st1" points="63.5,506 62.5,507 61.5,514 65.5,522 		"/>
		<polyline class="st1" points="102.5,524 105.5,535 112.5,545 		"/>
		<polyline class="st1" points="463.5,529 453.5,518 455.5,516 456.5,517 459.5,522 462.5,533 464.5,558 464.5,567 465.5,568 		"/>
		<polyline class="st1" points="487.5,510 488.5,511 489.5,517 491.5,521 		"/>
		<polyline class="st1" points="511.5,523 509.5,527 508.5,539 		"/>
		<polyline class="st1" points="488.5,92 490.5,108 490.5,131 		"/>
	</g>
</g>
<g id="_x31_44-운동장">
	<g>
		<polyline class="st1" points="3.5,219 3.5,220 2.5,220 4.5,220 6.5,219 9.5,219 17.5,217 29.5,216 32.5,215 69.5,215 88.5,212 
			95.5,210 127.5,206 133.5,206 180.5,213 188.5,213 201.5,215 222.5,215 228.5,214 242.5,214 281.5,220 331.5,220 370.5,215 
			396.5,215 420.5,217 442.5,217 455.5,215 461.5,215 486.5,211 518.5,211 519.5,212 522.5,212 523.5,213 522.5,213 522.5,212 
			520.5,211 		"/>
		<polyline class="st1" points="3.5,200 1.5,200 1.5,198 3.5,197 25.5,192 33.5,192 67.5,185 87.5,184 101.5,182 123.5,183 
			170.5,190 185.5,190 193.5,189 217.5,184 231.5,183 254.5,183 259.5,184 290.5,184 296.5,185 324.5,185 329.5,186 407.5,186 
			410.5,187 433.5,189 467.5,189 470.5,188 481.5,187 505.5,187 510.5,190 524.5,190 523.5,189 515.5,189 509.5,192 		"/>
		<polyline class="st1" points="300.5,315 299.5,316 298.5,316 298.5,315 295.5,315 295.5,316 293.5,317 284.5,326 280.5,332 
			274.5,338 270.5,345 267.5,348 258.5,365 253.5,380 252.5,387 252.5,409 253.5,414 253.5,425 254.5,431 256.5,434 257.5,434 
			259.5,432 		"/>
		<polyline class="st1" points="295.5,227 294.5,226 294.5,230 295.5,232 295.5,263 296.5,266 296.5,272 295.5,273 295.5,286 
			299.5,286 299.5,288 297.5,289 296.5,291 295.5,291 295.5,294 		"/>
		<polyline class="st1" points="324.5,223 323.5,223 323.5,222 323.5,230 322.5,235 322.5,266 320.5,274 320.5,284 319.5,286 
			320.5,290 320.5,307 319.5,307 319.5,308 320.5,309 		"/>
		<polyline class="st1" points="320.5,311 319.5,311 319.5,315 323.5,331 323.5,358 324.5,361 324.5,399 323.5,401 323.5,422 
			322.5,423 322.5,425 		"/>
		<polyline class="st1" points="302.5,350 301.5,350 301.5,354 302.5,356 302.5,375 301.5,378 301.5,385 299.5,394 299.5,419 
			298.5,421 298.5,425 300.5,426 		"/>
		<polyline class="st1" points="300.5,355 299.5,354 296.5,354 296.5,356 292.5,361 282.5,382 281.5,386 281.5,391 278.5,399 
			278.5,423 279.5,423 279.5,426 280.5,427 280.5,432 281.5,432 281.5,435 282.5,435 		"/>
		<polyline class="st1" points="282.5,489 280.5,489 283.5,493 296.5,504 302.5,507 303.5,508 303.5,511 305.5,512 		"/>
		<polyline class="st1" points="311.5,473 311.5,495 310.5,498 310.5,505 311.5,505 		"/>
		<polyline class="st1" points="334.5,467 332.5,467 332.5,469 333.5,470 335.5,478 335.5,511 336.5,511 336.5,508 		"/>
		<polyline class="st1" points="326.5,355 324.5,356 324.5,357 328.5,357 330.5,358 347.5,358 351.5,360 357.5,366 364.5,377 
			366.5,379 366.5,380 368.5,382 374.5,398 377.5,408 378.5,419 380.5,425 381.5,432 		"/>
		<polyline class="st1" points="323.5,314 320.5,314 318.5,315 325.5,317 329.5,317 342.5,320 348.5,324 350.5,327 359.5,334 
			365.5,340 371.5,348 373.5,352 378.5,358 388.5,366 399.5,382 401.5,388 406.5,394 407.5,397 412.5,405 413.5,412 414.5,414 
			414.5,420 415.5,421 415.5,424 		"/>
		<polyline class="st1" points="387.5,462 386.5,462 386.5,464 383.5,471 380.5,475 367.5,488 361.5,492 357.5,498 355.5,499 
			353.5,502 349.5,504 347.5,506 339.5,509 339.5,511 		"/>
		<polyline class="st1" points="414.5,459 415.5,459 415.5,462 411.5,472 403.5,482 394.5,490 382.5,502 379.5,506 365.5,517 
			353.5,528 346.5,533 345.5,533 345.5,534 341.5,536 		"/>
		<polyline class="st1" points="342.5,534 340.5,535 340.5,559 338.5,566 338.5,570 336.5,579 336.5,590 		"/>
		<polyline class="st1" points="311.5,532 311.5,535 312.5,536 315.5,551 316.5,586 318.5,591 		"/>
		<polyline class="st1" points="337.5,589 336.5,589 336.5,590 337.5,590 350.5,586 354.5,586 368.5,581 373.5,580 386.5,580 
			391.5,581 421.5,581 432.5,579 442.5,579 454.5,577 487.5,577 514.5,572 522.5,573 527.5,573 525.5,572 		"/>
		<polyline class="st1" points="315.5,591 309.5,591 302.5,588 295.5,588 262.5,583 254.5,583 246.5,581 237.5,580 212.5,580 
			204.5,581 168.5,581 147.5,584 130.5,584 124.5,585 100.5,585 88.5,583 34.5,583 28.5,585 11.5,586 2.5,584 -10.5,584 		"/>
		<polyline class="st1" points="-0.5,605 -0.5,606 0.5,606 2.5,608 7.5,609 31.5,607 33.5,606 42.5,605 84.5,605 120.5,609 
			146.5,610 181.5,610 184.5,611 196.5,611 230.5,614 253.5,614 264.5,613 267.5,612 275.5,612 295.5,610 340.5,600 397.5,592 
			416.5,592 422.5,593 432.5,593 446.5,596 468.5,599 480.5,599 485.5,600 519.5,600 521.5,599 528.5,599 538.5,596 		"/>
	</g>
</g>
</svg>
