<?xml version="1.0" encoding="utf-8"?>
<!-- Generator: Adobe Illustrator 26.2.1, SVG Export Plug-In . SVG Version: 6.00 Build 0)  -->
<svg version="1.1" xmlns="http://www.w3.org/2000/svg" xmlns:xlink="http://www.w3.org/1999/xlink" x="0px" y="0px"
	 viewBox="0 0 535 757" style="enable-background:new 0 0 535 757;" xml:space="preserve">
<style type="text/css">
	.st0{fill:#FFFFFF;}
	.st1{fill:none;stroke:#000000;stroke-width:2;}
</style>
<g id="레이어_1" xmlns:ev="http://www.w3.org/2001/xml-events">
	<rect class="st0" width="535" height="757"/>
	<line class="st1" x1="534.5" y1="252" x2="534.5" y2="252"/>
	<rect class="st0" width="535" height="757"/>
</g>
<g id="_x31_49-비">
	<g>
		<line class="st1" x1="472.5" y1="445" x2="477.5" y2="447"/>
		<polyline class="st1" points="338.5,21 338.5,27 337.5,28 336.5,36 334.5,40 334.5,44 333.5,45 333.5,50 332.5,52 332.5,58 
			333.5,58 333.5,59 335.5,60 339.5,59 341.5,55 342.5,49 338.5,28 336.5,20 335.5,19 		"/>
		<polyline class="st1" points="104.5,4 104.5,19 99.5,29 97.5,31 96.5,36 97.5,37 101.5,38 103.5,37 103.5,36 104.5,36 106.5,32 
			106.5,15 105.5,14 105.5,10 104.5,9 104.5,0 103.5,-1 		"/>
		<line class="st1" x1="47.5" y1="57" x2="47.5" y2="58"/>
		<polyline class="st1" points="44.5,83 43.5,83 43.5,90 41.5,96 		"/>
		<line class="st1" x1="123.5" y1="60" x2="123.5" y2="62"/>
		<line class="st1" x1="100.5" y1="78" x2="100.5" y2="84"/>
		<polyline class="st1" points="73.5,27 73.5,31 74.5,32 74.5,34 		"/>
		<polyline class="st1" points="74.5,48 75.5,48 75.5,52 		"/>
		<polyline class="st1" points="75.5,73 77.5,89 77.5,97 		"/>
		<polyline class="st1" points="246.5,28 247.5,28 246.5,28 246.5,29 		"/>
		<polyline class="st1" points="346.5,194 347.5,195 350.5,205 		"/>
		<polyline class="st1" points="391.5,340 391.5,343 395.5,353 399.5,357 		"/>
		<polyline class="st1" points="387.5,115 388.5,116 389.5,132 390.5,134 390.5,148 		"/>
		<line class="st1" x1="395.5" y1="210" x2="395.5" y2="230"/>
		<polyline class="st1" points="333.5,242 334.5,248 337.5,256 339.5,265 		"/>
		<polyline class="st1" points="356.5,315 357.5,325 358.5,325 363.5,335 		"/>
		<line class="st1" x1="249.5" y1="44" x2="252.5" y2="50"/>
		<polyline class="st1" points="296.5,66 297.5,67 300.5,76 		"/>
		<polyline class="st1" points="416.5,184 417.5,185 417.5,190 416.5,191 416.5,208 417.5,208 417.5,210 418.5,210 418.5,211 
			421.5,211 421.5,208 422.5,208 422.5,200 420.5,196 420.5,190 419.5,186 418.5,185 		"/>
		<polyline class="st1" points="287.5,281 287.5,289 286.5,291 286.5,298 285.5,299 285.5,304 286.5,304 286.5,305 288.5,305 
			289.5,303 289.5,292 287.5,287 287.5,285 286.5,285 		"/>
		<line class="st1" x1="67.5" y1="263" x2="66.5" y2="265"/>
		<polyline class="st1" points="44.5,265 45.5,266 42.5,281 		"/>
		<polyline class="st1" points="51.5,326 52.5,327 52.5,339 53.5,342 53.5,348 		"/>
		<polyline class="st1" points="27.5,396 25.5,407 29.5,418 		"/>
		<polyline class="st1" points="45.5,467 43.5,483 43.5,496 		"/>
		<polyline class="st1" points="41.5,546 41.5,562 42.5,564 		"/>
		<polyline class="st1" points="324.5,445 324.5,451 327.5,465 329.5,465 330.5,457 327.5,452 326.5,452 325.5,449 323.5,448 
			322.5,443 		"/>
		<polyline class="st1" points="341.5,546 339.5,551 341.5,561 341.5,568 343.5,572 344.5,572 345.5,570 345.5,564 342.5,554 
			340.5,550 339.5,550 338.5,544 		"/>
		<polyline class="st1" points="271.5,460 269.5,467 269.5,475 268.5,477 270.5,460 		"/>
		<line class="st1" x1="291.5" y1="520" x2="290.5" y2="524"/>
		<polyline class="st1" points="307.5,578 309.5,590 313.5,597 314.5,601 		"/>
		<polyline class="st1" points="305.5,372 304.5,372 301.5,380 		"/>
		<line class="st1" x1="311.5" y1="430" x2="309.5" y2="437"/>
		<line class="st1" x1="409.5" y1="436" x2="408.5" y2="442"/>
		<polyline class="st1" points="408.5,455 410.5,470 410.5,484 		"/>
		<line class="st1" x1="365.5" y1="399" x2="365.5" y2="400"/>
		<line class="st1" x1="368.5" y1="412" x2="368.5" y2="417"/>
		<line class="st1" x1="368.5" y1="428" x2="368.5" y2="435"/>
		<polyline class="st1" points="368.5,444 369.5,449 369.5,461 368.5,462 		"/>
		<line class="st1" x1="445.5" y1="292" x2="445.5" y2="293"/>
		<line class="st1" x1="449.5" y1="357" x2="449.5" y2="360"/>
		<line class="st1" x1="464.5" y1="439" x2="464.5" y2="455"/>
		<polyline class="st1" points="432.5,56 430.5,57 430.5,58 		"/>
		<line class="st1" x1="463.5" y1="72" x2="462.5" y2="72"/>
		<polyline class="st1" points="461.5,171 462.5,172 463.5,178 		"/>
		<line class="st1" x1="444.5" y1="98" x2="445.5" y2="109"/>
		<line class="st1" x1="487.5" y1="145" x2="487.5" y2="153"/>
		<line class="st1" x1="494.5" y1="298" x2="492.5" y2="318"/>
		<polyline class="st1" points="447.5,231 448.5,231 452.5,239 		"/>
		<polyline class="st1" points="493.5,250 492.5,255 492.5,264 		"/>
		<polyline class="st1" points="493.5,553 492.5,556 492.5,561 493.5,562 		"/>
		<polyline class="st1" points="430.5,526 429.5,535 431.5,551 		"/>
		<polyline class="st1" points="370.5,644 372.5,644 375.5,656 375.5,662 		"/>
		<line class="st1" x1="327.5" y1="652" x2="329.5" y2="665"/>
		<line class="st1" x1="473.5" y1="670" x2="472.5" y2="671"/>
		<line class="st1" x1="260.5" y1="603" x2="262.5" y2="607"/>
		<polyline class="st1" points="61.5,655 63.5,656 59.5,664 		"/>
		<polyline class="st1" points="44.5,678 43.5,680 45.5,681 		"/>
		<line class="st1" x1="433.5" y1="472" x2="435.5" y2="456"/>
	</g>
</g>
<g id="_x31_49-우산">
	<g>
		<polyline class="st1" points="211.5,355 212.5,355 212.5,356 211.5,356 209.5,354 208.5,354 208.5,353 207.5,353 207.5,352 
			205.5,351 204.5,348 202.5,348 201.5,352 200.5,352 200.5,357 201.5,357 201.5,359 202.5,359 202.5,360 203.5,360 204.5,362 
			207.5,363 208.5,365 210.5,365 210.5,366 214.5,367 		"/>
		<polyline class="st1" points="234.5,355 235.5,355 235.5,356 235.5,355 236.5,355 236.5,351 237.5,351 237.5,343 236.5,343 
			236.5,339 235.5,339 235.5,336 234.5,336 234.5,334 233.5,334 233.5,331 232.5,331 232.5,329 231.5,329 231.5,328 		"/>
		<polyline class="st1" points="240.5,326 240.5,328 241.5,330 242.5,330 242.5,332 245.5,337 245.5,340 246.5,341 246.5,343 
			247.5,344 247.5,348 248.5,349 248.5,354 249.5,354 249.5,359 248.5,359 247.5,363 246.5,363 246.5,364 244.5,366 243.5,366 
			243.5,367 241.5,367 		"/>
		<polyline class="st1" points="230.5,326 230.5,327 230.5,326 234.5,324 234.5,323 242.5,323 242.5,327 243.5,328 243.5,331 
			244.5,331 244.5,334 245.5,334 246.5,342 		"/>
		<line class="st1" x1="218.5" y1="209" x2="218.5" y2="207"/>
		<polyline class="st1" points="219.5,203 217.5,203 217.5,208 219.5,214 220.5,226 223.5,238 224.5,248 225.5,249 225.5,252 
			226.5,253 227.5,264 228.5,265 228.5,271 229.5,272 229.5,277 230.5,278 230.5,283 231.5,285 231.5,289 232.5,290 232.5,296 
			233.5,297 233.5,302 234.5,303 234.5,311 235.5,312 236.5,324 		"/>
		<polyline class="st1" points="212.5,203 214.5,204 214.5,217 215.5,218 215.5,225 216.5,227 216.5,231 218.5,235 222.5,259 
			225.5,268 225.5,271 226.5,275 227.5,276 229.5,284 229.5,287 230.5,288 230.5,291 231.5,292 231.5,295 232.5,296 232.5,299 
			233.5,300 234.5,314 235.5,314 235.5,319 236.5,320 238.5,328 		"/>
		<polyline class="st1" points="216.5,207 216.5,213 217.5,214 218.5,224 219.5,225 220.5,231 221.5,232 223.5,241 224.5,242 
			224.5,246 225.5,247 225.5,250 226.5,251 226.5,254 227.5,255 227.5,258 228.5,259 229.5,266 230.5,267 231.5,273 232.5,274 
			233.5,283 234.5,287 235.5,288 235.5,294 236.5,295 236.5,300 237.5,301 237.5,311 238.5,312 238.5,319 239.5,320 239.5,322 		"/>
		<polyline class="st1" points="187.5,77 187.5,78 180.5,78 174.5,76 158.5,76 152.5,77 143.5,79 137.5,81 136.5,82 131.5,83 
			120.5,89 115.5,90 105.5,95 99.5,99 95.5,100 87.5,106 80.5,113 79.5,113 65.5,127 63.5,130 62.5,130 60.5,134 52.5,142 51.5,142 
			46.5,149 45.5,152 37.5,164 37.5,165 35.5,167 30.5,177 27.5,181 26.5,185 25.5,185 22.5,196 17.5,204 16.5,208 12.5,215 
			12.5,214 13.5,214 13.5,213 18.5,207 21.5,202 31.5,191 35.5,188 40.5,186 50.5,179 56.5,176 64.5,174 68.5,172 70.5,172 
			70.5,171 73.5,171 75.5,170 91.5,170 92.5,171 103.5,172 104.5,173 107.5,173 111.5,175 		"/>
		<polyline class="st1" points="109.5,175 110.5,177 111.5,177 111.5,178 112.5,178 112.5,179 116.5,183 118.5,187 123.5,193 
			125.5,198 127.5,200 129.5,208 130.5,208 130.5,214 131.5,214 131.5,218 132.5,219 133.5,230 		"/>
		<polyline class="st1" points="133.5,225 135.5,219 140.5,210 145.5,205 146.5,203 148.5,202 150.5,198 152.5,197 153.5,195 
			157.5,192 163.5,189 165.5,187 171.5,184 175.5,181 191.5,174 193.5,174 196.5,172 213.5,168 214.5,167 223.5,166 223.5,165 		"/>
		<polyline class="st1" points="222.5,164 228.5,167 232.5,168 238.5,173 239.5,173 240.5,175 253.5,183 253.5,184 256.5,186 
			256.5,187 258.5,188 258.5,189 272.5,200 272.5,201 277.5,206 277.5,207 282.5,212 282.5,213 284.5,214 		"/>
		<polyline class="st1" points="190.5,77 191.5,77 193.5,73 194.5,73 196.5,71 204.5,68 216.5,66 231.5,66 238.5,68 241.5,68 
			257.5,74 274.5,78 280.5,81 282.5,81 295.5,86 310.5,95 314.5,96 318.5,99 320.5,99 324.5,102 329.5,104 339.5,111 340.5,113 
			345.5,117 349.5,119 354.5,123 355.5,123 355.5,124 357.5,124 		"/>
		<polyline class="st1" points="353.5,124 350.5,124 349.5,123 347.5,123 343.5,121 336.5,121 333.5,122 302.5,134 295.5,139 
			292.5,144 289.5,147 289.5,149 288.5,150 288.5,152 286.5,155 285.5,159 285.5,169 287.5,176 288.5,188 289.5,189 289.5,193 
			290.5,194 290.5,201 291.5,202 291.5,212 292.5,213 292.5,217 		"/>
		<polyline class="st1" points="132.5,226 134.5,226 138.5,222 147.5,217 149.5,217 153.5,215 155.5,215 160.5,213 170.5,211 
			173.5,209 175.5,209 176.5,208 182.5,206 186.5,206 198.5,203 209.5,203 210.5,204 247.5,204 248.5,203 271.5,203 272.5,204 
			286.5,205 		"/>
		<polyline class="st1" points="346.5,120 346.5,121 340.5,124 339.5,126 337.5,127 336.5,129 319.5,146 308.5,162 305.5,168 
			300.5,183 299.5,191 296.5,198 296.5,200 293.5,209 293.5,219 292.5,220 		"/>
		<polyline class="st1" points="19.5,213 35.5,211 45.5,211 52.5,210 65.5,211 72.5,214 85.5,217 97.5,223 109.5,227 114.5,230 
			125.5,233 129.5,235 129.5,236 130.5,236 		"/>
		<polyline class="st1" points="188.5,78 190.5,78 184.5,79 180.5,82 175.5,84 169.5,90 149.5,104 128.5,125 123.5,132 120.5,134 
			119.5,137 112.5,144 106.5,162 102.5,170 100.5,176 100.5,179 		"/>
		<polyline class="st1" points="186.5,77 185.5,79 186.5,79 190.5,84 192.5,88 194.5,90 206.5,109 209.5,112 213.5,119 213.5,121 
			216.5,127 216.5,129 227.5,151 227.5,154 231.5,168 231.5,172 230.5,173 		"/>
		<polyline class="st1" points="185.5,80 180.5,80 180.5,82 178.5,86 174.5,99 167.5,116 160.5,128 154.5,144 149.5,164 149.5,167 
			141.5,191 141.5,197 140.5,200 139.5,214 137.5,220 		"/>
		<polyline class="st1" points="181.5,79 172.5,79 145.5,93 142.5,96 137.5,98 129.5,103 112.5,115 109.5,118 90.5,129 84.5,135 
			80.5,137 74.5,142 68.5,148 61.5,158 50.5,169 42.5,181 35.5,187 32.5,191 28.5,200 27.5,210 		"/>
		<polyline class="st1" points="188.5,78 189.5,78 189.5,79 191.5,81 195.5,83 197.5,85 211.5,93 213.5,96 216.5,98 220.5,104 
			223.5,106 230.5,115 243.5,134 251.5,143 256.5,150 265.5,172 273.5,185 278.5,197 282.5,205 284.5,207 287.5,215 		"/>
		<polyline class="st1" points="189.5,80 198.5,80 207.5,83 241.5,98 248.5,104 251.5,105 258.5,111 268.5,118 271.5,119 273.5,122 
			275.5,123 290.5,137 292.5,138 295.5,142 295.5,143 		"/>
		<polyline class="st1" points="194.5,77 201.5,76 203.5,75 215.5,76 218.5,77 224.5,77 236.5,81 241.5,84 247.5,86 257.5,91 
			259.5,91 262.5,93 277.5,98 307.5,112 314.5,114 318.5,114 318.5,115 320.5,115 332.5,120 339.5,121 340.5,122 345.5,122 		"/>
		<polyline class="st1" points="186.5,76 187.5,76 187.5,77 185.5,78 174.5,78 172.5,77 172.5,71 173.5,70 173.5,68 174.5,68 
			175.5,66 179.5,63 189.5,63 191.5,64 192.5,67 193.5,67 193.5,72 192.5,72 192.5,74 189.5,78 187.5,79 184.5,79 183.5,80 
			179.5,80 178.5,79 174.5,78 172.5,76 172.5,75 171.5,75 171.5,68 173.5,66 173.5,65 174.5,65 174.5,64 176.5,63 176.5,62 
			178.5,61 183.5,61 184.5,63 		"/>
		<polyline class="st1" points="172.5,72 172.5,49 177.5,49 177.5,50 179.5,50 182.5,53 183.5,53 183.5,54 184.5,54 184.5,55 
			189.5,60 189.5,61 190.5,61 190.5,63 191.5,63 191.5,65 192.5,66 192.5,73 188.5,77 186.5,78 180.5,78 177.5,75 177.5,73 
			175.5,71 174.5,67 173.5,66 172.5,62 172.5,56 171.5,55 171.5,53 172.5,52 		"/>
		<polyline class="st1" points="173.5,52 174.5,53 176.5,60 181.5,71 181.5,75 		"/>
		<polyline class="st1" points="176.5,54 176.5,62 178.5,67 182.5,73 182.5,76 183.5,76 182.5,76 182.5,75 		"/>
		<polyline class="st1" points="182.5,56 183.5,66 188.5,76 187.5,72 186.5,71 185.5,64 184.5,62 185.5,68 185.5,76 181.5,76 
			178.5,73 177.5,68 178.5,58 182.5,58 186.5,69 186.5,74 184.5,75 180.5,73 176.5,66 176.5,59 178.5,56 183.5,57 188.5,65 
			190.5,71 189.5,75 187.5,76 182.5,74 178.5,69 178.5,60 180.5,58 181.5,58 183.5,59 186.5,65 188.5,72 188.5,73 185.5,74 
			181.5,69 180.5,63 181.5,62 183.5,62 187.5,66 189.5,70 189.5,74 183.5,75 176.5,70 174.5,58 177.5,54 178.5,54 182.5,61 
			182.5,66 181.5,66 177.5,62 174.5,57 174.5,56 177.5,56 		"/>
		<polyline class="st1" points="189.5,130 187.5,133 187.5,136 		"/>
		<line class="st1" x1="247.5" y1="155" x2="252.5" y2="166"/>
	</g>
</g>
<g id="_x31_49-사람">
	<g>
		<polyline class="st1" points="156.5,352 156.5,356 154.5,358 154.5,359 152.5,360 151.5,362 147.5,363 146.5,364 140.5,364 
			130.5,359 123.5,351 123.5,349 120.5,344 119.5,338 117.5,334 117.5,330 116.5,329 116.5,317 117.5,316 117.5,314 120.5,308 
			122.5,307 124.5,303 125.5,303 125.5,302 126.5,302 129.5,299 130.5,299 130.5,298 134.5,297 135.5,296 143.5,296 147.5,298 
			148.5,300 150.5,301 151.5,304 152.5,304 152.5,306 153.5,306 154.5,309 155.5,309 155.5,311 157.5,314 157.5,316 158.5,316 
			159.5,324 160.5,324 160.5,343 159.5,344 158.5,351 157.5,351 157.5,354 155.5,355 		"/>
		<polyline class="st1" points="106.5,263 107.5,265 105.5,269 103.5,271 101.5,276 99.5,278 99.5,280 94.5,289 94.5,291 93.5,291 
			93.5,293 91.5,297 90.5,297 89.5,303 88.5,303 88.5,306 86.5,310 86.5,313 85.5,313 85.5,319 84.5,320 84.5,331 85.5,332 
			85.5,338 86.5,338 86.5,341 87.5,342 88.5,346 89.5,347 89.5,349 91.5,353 92.5,353 92.5,354 95.5,357 95.5,358 96.5,358 
			96.5,359 97.5,359 98.5,361 99.5,361 99.5,362 102.5,365 102.5,366 104.5,367 104.5,369 105.5,369 106.5,372 107.5,372 107.5,374 
					"/>
		<polyline class="st1" points="105.5,264 106.5,264 108.5,259 109.5,259 109.5,258 112.5,255 114.5,254 117.5,254 117.5,253 
			120.5,253 120.5,252 124.5,252 124.5,251 131.5,251 131.5,252 133.5,252 133.5,253 135.5,253 137.5,254 137.5,255 139.5,255 
			146.5,259 146.5,260 147.5,260 147.5,261 148.5,261 148.5,262 149.5,262 149.5,263 150.5,263 150.5,264 151.5,264 151.5,265 
			152.5,265 153.5,267 154.5,267 154.5,268 156.5,269 156.5,270 157.5,270 157.5,271 158.5,271 162.5,275 162.5,276 163.5,276 
			165.5,278 166.5,280 167.5,280 174.5,294 174.5,296 176.5,299 176.5,302 177.5,302 177.5,305 178.5,306 178.5,309 179.5,310 
			179.5,313 180.5,313 181.5,321 182.5,322 182.5,337 181.5,337 181.5,340 180.5,340 178.5,348 177.5,348 177.5,350 171.5,361 
			171.5,365 170.5,365 170.5,367 169.5,368 169.5,370 168.5,370 167.5,375 		"/>
		<polyline class="st1" points="138.5,374 138.5,375 128.5,375 124.5,378 123.5,380 120.5,382 118.5,387 117.5,387 116.5,389 
			116.5,395 117.5,396 123.5,396 126.5,393 127.5,393 129.5,391 132.5,385 132.5,383 133.5,382 133.5,380 135.5,376 137.5,376 
			137.5,375 139.5,375 139.5,374 141.5,374 142.5,373 145.5,373 145.5,372 150.5,372 150.5,373 151.5,373 152.5,376 153.5,376 
			154.5,381 155.5,381 156.5,385 157.5,385 157.5,388 158.5,388 158.5,391 159.5,392 159.5,394 158.5,394 158.5,395 152.5,395 
			151.5,393 150.5,393 147.5,387 147.5,385 145.5,381 144.5,381 143.5,379 141.5,379 141.5,378 139.5,377 136.5,377 135.5,378 
			135.5,401 136.5,403 137.5,416 138.5,417 138.5,420 139.5,422 139.5,421 		"/>
		<polyline class="st1" points="136.5,377 137.5,381 138.5,381 141.5,384 141.5,385 143.5,386 149.5,397 150.5,403 151.5,404 
			151.5,409 152.5,409 153.5,417 		"/>
		<polyline class="st1" points="104.5,373 104.5,375 105.5,373 103.5,373 101.5,374 101.5,375 97.5,376 96.5,378 93.5,379 91.5,381 
			90.5,381 89.5,383 88.5,383 88.5,385 87.5,385 83.5,394 82.5,394 82.5,396 81.5,396 80.5,400 77.5,404 77.5,406 76.5,406 
			75.5,410 74.5,410 74.5,413 73.5,413 72.5,417 70.5,420 70.5,423 69.5,423 69.5,430 68.5,431 68.5,448 69.5,449 69.5,451 
			72.5,457 73.5,457 74.5,460 76.5,461 77.5,464 78.5,464 78.5,465 79.5,465 79.5,466 81.5,468 82.5,468 83.5,470 84.5,470 
			93.5,478 94.5,478 101.5,484 102.5,484 		"/>
		<polyline class="st1" points="108.5,439 110.5,442 110.5,444 111.5,444 111.5,448 112.5,448 112.5,457 111.5,458 111.5,464 
			110.5,464 110.5,468 108.5,472 108.5,475 107.5,476 105.5,484 103.5,488 101.5,490 100.5,494 97.5,497 97.5,499 96.5,499 
			95.5,502 		"/>
		<polyline class="st1" points="103.5,435 104.5,435 104.5,436 105.5,436 105.5,437 106.5,437 107.5,439 108.5,439 108.5,440 
			110.5,441 		"/>
		<polyline class="st1" points="167.5,372 169.5,371 175.5,371 175.5,372 177.5,372 177.5,373 178.5,373 178.5,374 180.5,374 
			180.5,375 		"/>
		<polyline class="st1" points="179.5,423 178.5,423 178.5,421 		"/>
		<polyline class="st1" points="200.5,413 201.5,413 201.5,414 201.5,412 202.5,412 203.5,404 204.5,404 204.5,402 207.5,397 
			207.5,395 208.5,395 210.5,387 211.5,387 211.5,384 212.5,383 212.5,380 213.5,379 213.5,375 214.5,375 214.5,370 215.5,370 
			215.5,369 240.5,369 241.5,370 241.5,372 242.5,373 242.5,397 241.5,398 241.5,411 240.5,412 240.5,419 239.5,420 239.5,424 
			238.5,425 238.5,430 237.5,431 237.5,436 236.5,437 235.5,446 233.5,450 233.5,454 232.5,454 		"/>
		<polyline class="st1" points="176.5,444 176.5,445 177.5,445 179.5,449 180.5,449 187.5,456 188.5,456 191.5,459 192.5,459 
			193.5,461 196.5,462 197.5,464 201.5,465 201.5,466 215.5,466 217.5,465 217.5,464 222.5,463 222.5,462 224.5,462 224.5,461 
			226.5,461 226.5,460 229.5,459 230.5,456 231.5,456 231.5,454 		"/>
		<polyline class="st1" points="187.5,379 186.5,377 181.5,375 181.5,374 181.5,375 184.5,376 184.5,377 186.5,377 187.5,379 
			192.5,381 192.5,382 193.5,382 193.5,383 194.5,383 194.5,384 196.5,385 198.5,389 199.5,389 199.5,390 200.5,390 200.5,391 
			201.5,391 202.5,393 204.5,394 206.5,398 		"/>
		<polyline class="st1" points="215.5,367 215.5,366 218.5,366 		"/>
		<polyline class="st1" points="217.5,366 216.5,366 216.5,367 216.5,366 215.5,366 214.5,364 214.5,360 215.5,360 217.5,356 
			220.5,356 220.5,355 234.5,355 234.5,356 236.5,356 236.5,357 237.5,357 237.5,358 238.5,358 238.5,359 240.5,360 240.5,365 
			239.5,365 237.5,367 		"/>
		<polyline class="st1" points="87.5,477 88.5,475 89.5,475 89.5,474 89.5,491 90.5,494 91.5,506 92.5,507 92.5,514 		"/>
		<polyline class="st1" points="90.5,512 90.5,517 91.5,517 91.5,523 94.5,535 94.5,539 95.5,539 95.5,543 96.5,544 97.5,550 
			98.5,550 99.5,555 101.5,556 101.5,558 		"/>
		<polyline class="st1" points="101.5,558 106.5,558 107.5,559 110.5,559 111.5,560 131.5,560 133.5,559 145.5,559 146.5,560 
			168.5,560 184.5,555 193.5,554 196.5,552 201.5,552 213.5,550 214.5,548 		"/>
		<polyline class="st1" points="224.5,464 225.5,464 225.5,466 226.5,467 226.5,470 227.5,471 228.5,478 229.5,478 229.5,481 
			230.5,482 230.5,485 231.5,486 233.5,494 233.5,501 234.5,503 235.5,520 236.5,523 236.5,539 		"/>
		<polyline class="st1" points="235.5,539 235.5,541 233.5,541 232.5,543 230.5,543 221.5,546 220.5,547 216.5,547 215.5,548 
			207.5,550 		"/>
		<polyline class="st1" points="137.5,384 138.5,387 138.5,391 		"/>
		<polyline class="st1" points="144.5,408 145.5,416 146.5,418 146.5,432 147.5,433 150.5,443 153.5,458 154.5,460 155.5,469 
			157.5,473 158.5,481 159.5,482 160.5,486 163.5,510 164.5,513 164.5,517 165.5,517 165.5,525 166.5,525 166.5,529 168.5,535 
			168.5,546 169.5,547 169.5,552 170.5,552 170.5,556 		"/>
		<polyline class="st1" points="144.5,452 144.5,458 146.5,459 146.5,457 147.5,457 147.5,454 145.5,454 		"/>
		<polyline class="st1" points="148.5,484 148.5,489 149.5,489 149.5,487 150.5,487 150.5,486 149.5,486 149.5,488 		"/>
		<polyline class="st1" points="153.5,515 153.5,514 152.5,514 		"/>
		<polyline class="st1" points="155.5,534 154.5,536 154.5,538 155.5,538 		"/>
		<polyline class="st1" points="119.5,559 119.5,558 120.5,558 120.5,565 121.5,566 121.5,572 122.5,574 122.5,579 123.5,580 
			123.5,589 124.5,590 124.5,595 125.5,596 125.5,603 126.5,605 126.5,604 		"/>
		<polyline class="st1" points="161.5,560 163.5,560 163.5,584 162.5,584 162.5,601 		"/>
		<polyline class="st1" points="205.5,552 206.5,552 206.5,553 205.5,554 205.5,560 203.5,568 203.5,574 201.5,580 201.5,586 
			200.5,586 200.5,591 198.5,599 197.5,600 197.5,605 196.5,605 196.5,610 		"/>
		<polyline class="st1" points="123.5,605 123.5,604 114.5,604 114.5,605 		"/>
		<polyline class="st1" points="116.5,604 116.5,608 117.5,608 121.5,612 127.5,614 128.5,615 130.5,615 138.5,619 147.5,620 
			149.5,621 155.5,621 156.5,620 159.5,620 160.5,619 166.5,618 166.5,617 		"/>
		<polyline class="st1" points="162.5,600 162.5,601 164.5,602 167.5,608 167.5,616 166.5,616 166.5,617 		"/>
		<polyline class="st1" points="125.5,604 126.5,604 126.5,603 126.5,604 127.5,604 131.5,608 139.5,611 150.5,611 159.5,608 
			163.5,603 163.5,602 		"/>
		<polyline class="st1" points="160.5,599 160.5,600 159.5,600 161.5,600 		"/>
		<polyline class="st1" points="114.5,611 115.5,609 115.5,605 114.5,605 115.5,674 116.5,677 116.5,683 117.5,684 118.5,691 		"/>
		<polyline class="st1" points="169.5,612 170.5,616 172.5,616 172.5,617 176.5,618 189.5,618 189.5,617 192.5,616 192.5,615 
			194.5,614 195.5,612 196.5,612 		"/>
		<polyline class="st1" points="168.5,602 168.5,601 168.5,602 169.5,602 172.5,606 179.5,608 189.5,608 189.5,607 192.5,607 
			192.5,606 194.5,605 		"/>
		<polyline class="st1" points="199.5,611 199.5,613 200.5,614 200.5,663 201.5,666 201.5,672 202.5,673 202.5,691 		"/>
		<polyline class="st1" points="164.5,614 164.5,636 165.5,638 165.5,671 166.5,675 166.5,685 167.5,686 167.5,699 		"/>
		<polyline class="st1" points="148.5,705 152.5,705 168.5,699 181.5,699 182.5,700 186.5,700 186.5,701 189.5,701 198.5,705 
			207.5,712 208.5,712 212.5,719 212.5,721 		"/>
		<polyline class="st1" points="118.5,708 119.5,708 122.5,711 128.5,714 145.5,718 148.5,719 148.5,720 152.5,721 157.5,721 
			163.5,723 183.5,724 186.5,723 208.5,723 209.5,722 211.5,722 		"/>
		<polyline class="st1" points="118.5,717 118.5,719 120.5,719 124.5,721 132.5,722 139.5,724 149.5,725 151.5,726 163.5,726 
			165.5,727 177.5,729 193.5,729 193.5,730 199.5,732 207.5,732 209.5,729 210.5,725 		"/>
		<polyline class="st1" points="117.5,690 115.5,690 115.5,693 116.5,695 117.5,707 118.5,708 118.5,710 120.5,714 		"/>
		<polyline class="st1" points="122.5,716 123.5,716 123.5,718 		"/>
		<polyline class="st1" points="200.5,690 202.5,689 204.5,690 204.5,691 207.5,692 207.5,693 210.5,694 210.5,695 211.5,695 
			212.5,697 214.5,697 215.5,699 217.5,700 217.5,701 219.5,702 220.5,704 221.5,704 223.5,706 223.5,707 224.5,707 224.5,708 
			225.5,708 225.5,709 228.5,713 228.5,715 		"/>
		<polyline class="st1" points="217.5,716 220.5,717 226.5,717 226.5,718 234.5,718 		"/>
		<polyline class="st1" points="233.5,720 234.5,722 234.5,725 233.5,727 232.5,727 232.5,728 230.5,728 229.5,729 208.5,729 
			208.5,728 		"/>
		<polyline class="st1" points="127.5,310 128.5,310 127.5,312 127.5,320 129.5,320 130.5,319 143.5,319 143.5,308 144.5,308 
			148.5,317 		"/>
		<polyline class="st1" points="148.5,316 148.5,317 152.5,317 154.5,316 		"/>
		<polyline class="st1" points="125.5,308 126.5,308 126.5,309 125.5,309 125.5,310 121.5,312 120.5,315 120.5,319 		"/>
		<line class="st1" x1="119.5" y1="319" x2="117.5" y2="319"/>
		<polyline class="st1" points="145.5,329 144.5,329 144.5,328 145.5,328 145.5,327 147.5,327 147.5,326 149.5,326 149.5,325 
			153.5,325 157.5,327 		"/>
		<polyline class="st1" points="147.5,326 148.5,326 148.5,329 149.5,329 149.5,330 151.5,330 151.5,329 152.5,329 152.5,326 		"/>
		<polyline class="st1" points="153.5,331 153.5,332 154.5,332 		"/>
		<polyline class="st1" points="149.5,331 149.5,332 150.5,332 		"/>
		<polyline class="st1" points="129.5,328 130.5,329 130.5,327 123.5,327 123.5,328 121.5,328 121.5,329 		"/>
		<polyline class="st1" points="125.5,328 125.5,333 128.5,333 128.5,332 129.5,332 129.5,327 		"/>
		<line class="st1" x1="120.5" y1="328" x2="119.5" y2="330"/>
		<line class="st1" x1="128.5" y1="327" x2="130.5" y2="328"/>
		<polyline class="st1" points="129.5,327 130.5,327 130.5,328 132.5,329 		"/>
		<polyline class="st1" points="129.5,326 130.5,326 131.5,328 		"/>
		<line class="st1" x1="122.5" y1="333" x2="121.5" y2="335"/>
		<line class="st1" x1="127.5" y1="334" x2="127.5" y2="335"/>
		<polyline class="st1" points="129.5,345 129.5,344 130.5,345 141.5,345 141.5,344 144.5,344 144.5,343 146.5,343 146.5,342 
			149.5,342 149.5,341 151.5,341 		"/>
		<polyline class="st1" points="140.5,349 140.5,350 142.5,350 142.5,349 144.5,349 144.5,348 		"/>
	</g>
</g>
</svg>
