<?xml version="1.0" encoding="utf-8"?>
<!-- Generator: Adobe Illustrator 26.2.1, SVG Export Plug-In . SVG Version: 6.00 Build 0)  -->
<svg version="1.1" xmlns="http://www.w3.org/2000/svg" xmlns:xlink="http://www.w3.org/1999/xlink" x="0px" y="0px"
	 viewBox="0 0 535 757" style="enable-background:new 0 0 535 757;" xml:space="preserve">
<style type="text/css">
	.st0{fill:#FFFFFF;}
	.st1{fill:none;stroke:#000000;stroke-width:2;}
</style>
<g id="레이어_1" xmlns:ev="http://www.w3.org/2001/xml-events">
	<rect class="st0" width="535" height="757"/>
	<rect class="st0" width="531" height="753.7"/>
</g>
<g id="_x31_53-우산">
	<g>
		<polyline class="st1" points="240.3,402.8 237.4,420.4 234,420.7 227.2,440.1 226,449 228.2,440 223.4,426.1 218.5,436.5 
			226.2,448.3 234.5,442.3 229.3,431.5 217.8,431.7 211.3,412.6 210.4,413.9 212,422.9 216.7,428 216.1,415.8 212,414.8 
			216.9,434.5 224,448.6 233.8,444.7 235.6,436.9 237.7,444.4 243.1,444.7 250.6,429.4 250.5,426.2 250.6,433.7 254.8,435.9 
			257.8,420 		"/>
		<polyline class="st1" points="219.9,440.3 242.4,445.1 255.6,441 257.8,424.7 254.3,416.5 		"/>
		<polyline class="st1" points="258.2,351.2 259.9,365.5 260.1,428.2 261.2,426.1 		"/>
		<polyline class="st1" points="261.4,379.2 259.4,388.9 254.8,430.4 254.1,442.4 		"/>
		<polyline class="st1" points="267.5,278.7 264,291.8 263.3,302.4 263.9,378.3 262.1,392.2 		"/>
		<polyline class="st1" points="248,244.9 246.8,270.2 241.6,320.7 236.4,426.6 235.6,432.6 235.5,417.1 240,350.2 242.5,326 
			251.3,279.2 246.7,387.3 244.7,409.4 247.4,343.3 254.8,283.6 252.8,328.1 245.7,407.6 		"/>
		<polyline class="st1" points="248.6,273.2 268.3,276.5 282,276.8 297.7,275.4 339.3,264.9 351,252.3 311.1,241.7 273.1,240.5 
			273.1,241.5 292.9,244.1 306.2,244 337.2,236.4 341.6,232.4 		"/>
		<polyline class="st1" points="265.6,268.7 247.7,271.7 216.1,271.5 166.9,266 121.9,267.9 103.9,266.3 111,263.9 183.7,265.4 
			204.2,264.9 		"/>
		<polyline class="st1" points="245.1,253.1 241.1,303.8 236.9,316.6 234.8,308 233.4,252.3 233.8,231.5 239.5,203.1 241.5,208.8 
			244.3,248.3 		"/>
		<polyline class="st1" points="260.3,231.3 266,247.5 266.4,266.9 258.4,307.5 256.8,237.4 259.8,217.8 263.7,246 259.1,314.4 		
			"/>
		<polyline class="st1" points="239.8,220.1 268.4,221.2 338.7,217.7 353,213.9 302.3,218.4 292.4,220.5 285.1,223 292.2,224.4 
			339.6,225.1 425.1,224.6 		"/>
		<polyline class="st1" points="219.1,237.4 210.1,231.5 199.9,232.3 166.5,232.4 224.9,238.3 262.7,234.2 217,219.1 124.5,212.1 
			86.5,210.6 		"/>
		<polyline class="st1" points="87.7,166.6 133.4,125.8 154.2,112.8 224,73.2 		"/>
		<polyline class="st1" points="166.4,104.6 199.4,93.4 251.7,83 266.2,78 		"/>
		<polyline class="st1" points="220.8,89.1 283.6,83.7 318.2,84.4 		"/>
		<polyline class="st1" points="293.1,79.5 325.6,104.1 344.4,112.5 389.3,135.5 397.5,142.1 404.9,150.1 		"/>
		<polyline class="st1" points="389.1,144.7 377.9,141.9 387.9,154.7 423.1,187.1 438.9,203.1 		"/>
		<polyline class="st1" points="383,222.2 417.8,225.8 434,225.7 482,216 		"/>
		<line class="st1" x1="481.9" y1="218.4" x2="429.4" y2="184.4"/>
		<polyline class="st1" points="375.4,158.4 324.4,131.7 277.5,117.4 		"/>
		<polyline class="st1" points="202.5,100.9 194.1,101.6 156.9,116.5 		"/>
		<polyline class="st1" points="253.6,98.6 214,107.2 197,116.1 144.7,174.4 141.7,185.6 		"/>
		<polyline class="st1" points="240.3,94.8 249.2,99.6 279.3,122.5 285,132 293.9,173.9 294.6,185 		"/>
		<polyline class="st1" points="275.5,85.2 290,97.5 299.4,104.3 351.7,160.8 372,203.9 		"/>
		<line class="st1" x1="212.2" y1="82.9" x2="214.3" y2="104.1"/>
		<line class="st1" x1="204.8" y1="114.4" x2="206.6" y2="169.9"/>
		<line class="st1" x1="288.2" y1="224.3" x2="287.4" y2="257.6"/>
		<line class="st1" x1="274" y1="236.1" x2="271.7" y2="251.8"/>
		<polyline class="st1" points="226.6,130.1 220.4,136.9 214.1,187.5 221.5,226.5 		"/>
		<line class="st1" x1="199.6" y1="136.8" x2="207.6" y2="217.6"/>
		<polyline class="st1" points="282.4,123.6 290.5,144.4 316.9,193.3 		"/>
		<polyline class="st1" points="441.5,107.6 434.8,121.2 437.1,180.4 		"/>
		<polyline class="st1" points="173.2,100.8 172.1,99.4 158.3,105.1 151.5,109.2 127.2,140 105,170.1 85.3,210.7 95.6,187.4 
			104.1,174.3 168.2,98.9 155.4,106.4 103.1,150.6 65.6,232 71.1,216.8 62.5,211 56.9,249.5 152.6,241.8 209.6,232.3 122.5,237.2 
			157.4,228.9 250.7,211.9 198.8,209 167.1,219.4 284.3,221.1 327.7,225.6 269.4,212.8 415.7,195.2 483.6,194.3 517.3,192.3 
			510.1,179.2 		"/>
		<polyline class="st1" points="254.9,102.8 255,99.3 217.2,104.4 138.1,192.2 129.3,211.4 128.7,228.7 		"/>
		<polyline class="st1" points="223.9,102.2 231.7,121.8 230.7,142.8 234.6,220.8 		"/>
		<line class="st1" x1="233.9" y1="125.7" x2="247.7" y2="131.1"/>
		<polyline class="st1" points="254.1,108.9 268.7,114.5 281.4,142.7 314.4,127.6 332.3,137 343.4,150.1 361.8,184.9 		"/>
		<line class="st1" x1="313" y1="125.7" x2="345.7" y2="170.8"/>
		<line class="st1" x1="340.6" y1="128.8" x2="388.9" y2="200.9"/>
		<line class="st1" x1="382.9" y1="155" x2="431.2" y2="221"/>
	</g>
</g>
<g id="_x31_53-비">
	<g>
		<polyline class="st1" points="83.1,202.1 90.9,187.7 122.3,152.7 131,140.8 143.2,118.4 		"/>
		<polyline class="st1" points="436.7,187.1 459.2,217.8 473.3,232 		"/>
		<polyline class="st1" points="151,108 95.9,169.7 80.8,194 		"/>
		<line class="st1" x1="32.6" y1="65" x2="29.3" y2="123.3"/>
		<polyline class="st1" points="55.2,95.9 53.4,106.4 53.1,158 		"/>
		<polyline class="st1" points="40.6,243.4 37.2,256.9 38.8,356.7 		"/>
		<polyline class="st1" points="48.3,404.7 51.6,420.3 70.7,486.3 		"/>
		<polyline class="st1" points="86.4,387.2 88.8,407.1 105.2,480.9 		"/>
		<polyline class="st1" points="130.4,346.1 132.8,368.5 147.4,447.5 		"/>
		<polyline class="st1" points="101.6,395.3 103.3,407.8 125,472.3 		"/>
		<line class="st1" x1="147.9" y1="339.9" x2="139.8" y2="376.6"/>
		<line class="st1" x1="68" y1="257.4" x2="99.3" y2="317.4"/>
		<line class="st1" x1="58" y1="54.6" x2="59" y2="84.5"/>
		<line class="st1" x1="148.1" y1="83.4" x2="151.2" y2="105.6"/>
		<polyline class="st1" points="344.2,58.6 349.6,69.8 363.5,92.7 		"/>
		<line class="st1" x1="446.4" y1="68.2" x2="469" y2="149.7"/>
		<polyline class="st1" points="466.5,75.8 466.1,85.8 488.1,165.7 		"/>
		<line class="st1" x1="478.7" y1="255.6" x2="488.7" y2="307.9"/>
		<line class="st1" x1="496.6" y1="359.1" x2="505.2" y2="389.8"/>
		<line class="st1" x1="345.6" y1="17.8" x2="336.5" y2="59.6"/>
		<line class="st1" x1="247.8" y1="58.7" x2="233.8" y2="87.1"/>
		<line class="st1" x1="194.2" y1="286" x2="193.5" y2="321.4"/>
		<line class="st1" x1="184.9" y1="393.2" x2="186.4" y2="430"/>
		<line class="st1" x1="93.6" y1="56.4" x2="93.3" y2="106.7"/>
		<line class="st1" x1="102.8" y1="50.5" x2="100.5" y2="71.5"/>
		<line class="st1" x1="389.9" y1="62.4" x2="397.4" y2="87.4"/>
		<polyline class="st1" points="435.1,103.7 435.2,119.1 439.3,144.3 		"/>
		<polyline class="st1" points="446.4,211.6 445.4,224.2 445.1,251.5 		"/>
		<polyline class="st1" points="497.7,461.3 501.5,482.4 501.5,488.1 		"/>
		<polyline class="st1" points="482.8,381 503.3,457.7 502.7,468 		"/>
		<line class="st1" x1="457.4" y1="442.8" x2="459.6" y2="466.1"/>
		<line class="st1" x1="473.9" y1="423.2" x2="484.8" y2="438.5"/>
		<polyline class="st1" points="473.5,93.4 472.3,103.7 471.7,126.8 		"/>
		<polyline class="st1" points="486.8,48.6 487,57.5 495,121 		"/>
		<polyline class="st1" points="353.8,33.5 347.4,39.2 323,65.3 		"/>
		<line class="st1" x1="248.4" y1="48.6" x2="221.2" y2="65"/>
		<polyline class="st1" points="142.5,36.5 135.7,43 108.7,65.2 		"/>
		<polyline class="st1" points="63.9,68.7 43,110.5 32.5,121.6 		"/>
		<line class="st1" x1="5.6" y1="18.3" x2="7.4" y2="119.6"/>
		<line class="st1" x1="38" y1="77.4" x2="36" y2="223"/>
		<line class="st1" x1="118.7" y1="297.6" x2="124.8" y2="344.6"/>
		<line class="st1" x1="110.3" y1="275.7" x2="110.1" y2="357.1"/>
		<polyline class="st1" points="130.5,277.1 128.5,295.5 131.5,338.5 		"/>
		<line class="st1" x1="123.5" y1="256.9" x2="114.8" y2="329.4"/>
		<line class="st1" x1="83.4" y1="38.7" x2="84.4" y2="106.4"/>
		<polyline class="st1" points="139.8,56.6 142.5,72.6 149.6,83 		"/>
		<polyline class="st1" points="190.1,41.9 189.6,51 191.1,60.9 		"/>
		<line class="st1" x1="223.2" y1="28.9" x2="221.8" y2="43.7"/>
		<line class="st1" x1="54" y1="419.6" x2="48.2" y2="435.9"/>
		<line class="st1" x1="35.9" y1="518.1" x2="32.1" y2="592.1"/>
		<polyline class="st1" points="22.7,590.3 21.4,610.9 24.3,699.6 		"/>
		<polyline class="st1" points="42.1,630 44.1,638.5 67,693.9 		"/>
		<line class="st1" x1="87.6" y1="493.7" x2="91.4" y2="530.5"/>
		<polyline class="st1" points="130.9,495.1 127.8,515.8 131.7,599.4 		"/>
		<line class="st1" x1="146.7" y1="598.3" x2="172.6" y2="711.8"/>
		<line class="st1" x1="155.5" y1="503.2" x2="189.2" y2="560.1"/>
		<polyline class="st1" points="218.1,594.5 219,606 226.7,654.6 		"/>
		<line class="st1" x1="234.1" y1="576.3" x2="249.9" y2="662.4"/>
		<polyline class="st1" points="193.2,473.5 188.7,484.3 185,533.5 		"/>
		<polyline class="st1" points="74.5,173.1 65.9,176.7 50.5,189.6 		"/>
		<line class="st1" x1="15.2" y1="85.5" x2="6.8" y2="176.4"/>
		<line class="st1" x1="149.3" y1="47.9" x2="158.3" y2="74.7"/>
		<line class="st1" x1="298.9" y1="32.3" x2="340.9" y2="63.1"/>
		<line class="st1" x1="460.5" y1="69" x2="465.2" y2="86.3"/>
		<polyline class="st1" points="483.6,82.6 483.9,108.4 488.1,126 		"/>
		<polyline class="st1" points="463.9,87.9 462.7,122.4 467.8,163.1 		"/>
		<polyline class="st1" points="514,521.4 511.1,536.4 516.2,568.2 		"/>
		<polyline class="st1" points="475.8,577.8 469.9,604.4 470.8,695.9 		"/>
		<polyline class="st1" points="472.1,662.6 481.5,676.7 497.1,697.8 		"/>
		<polyline class="st1" points="478.1,61.1 474.5,70.3 475,89.7 		"/>
		<polyline class="st1" points="385.5,51.6 377.1,65 383.6,90.1 		"/>
		<polyline class="st1" points="444.5,59.5 445.9,71.9 456.8,103 		"/>
		<polyline class="st1" points="512.5,36.8 511.4,46.2 518.9,95.6 		"/>
		<polyline class="st1" points="104.6,602.6 91.1,659.6 96.9,690.8 108.4,728.7 		"/>
		<line class="st1" x1="81.4" y1="568.6" x2="90.5" y2="623.6"/>
	</g>
</g>
<g id="_x31_53-사람">
	<g>
		<polyline class="st1" points="403.3,258.3 402.9,250.2 400,247.9 394.8,245.8 385.8,243.8 372.9,242.6 359.5,243.1 348,246.9 
			337.3,254.3 327.5,265.4 311.9,298.7 306.2,319.5 302.2,341.6 301.6,364.2 311.3,408.7 337.3,437.5 356.2,443.2 378,441.8 
			419.2,419.4 435,400.9 448.4,379.2 458.3,354.8 461.2,330.1 445.3,281.4 421.8,258.5 401.1,249.7 388.1,254.1 		"/>
		<polyline class="st1" points="352.3,440.2 351.9,452.9 349.9,470.5 352,443.3 351.2,436.4 347.8,470.3 348.4,470.8 		"/>
		<polyline class="st1" points="385.2,436.7 385.5,470.5 386.2,452.2 387.4,443.4 388.1,442.2 388.7,448.3 388,465.1 		"/>
		<polyline class="st1" points="300.8,451.7 311.8,458.2 342.2,479.8 344.2,480.4 343.5,478.5 340.1,476.2 315.3,466.8 297.3,457.8 
			296.6,457.1 298.2,457.3 303,459.5 342.6,479.6 346.8,484.4 		"/>
		<polyline class="st1" points="293.5,450.8 312,462 322.7,470.2 316.8,463.3 301.7,451.2 292.2,447.2 		"/>
		<polyline class="st1" points="277.4,417.4 280.7,442 283.7,453.5 285.3,455.9 287.7,450.7 288.3,442.7 288.2,434.6 283.8,424.1 
			291.8,463.6 292.5,446.4 		"/>
		<polyline class="st1" points="279.1,418.8 270.7,414.8 252.3,413.5 242.1,414.9 		"/>
		<polyline class="st1" points="270.4,408.7 255.4,405.4 245.6,406.4 236.4,409.7 221,417.9 220.8,418.6 230.7,420.7 		"/>
		<polyline class="st1" points="246.8,405.9 243.7,405.7 240.7,408.2 236.4,423 235,432.7 234.8,442.1 235.7,449.8 237.9,454.7 
			240.1,456 242.3,453.2 243.8,446.5 242.5,429.5 239.8,423.6 236.6,421.6 233.2,429.3 233,438.5 235.8,462.3 237.9,474.3 
			240.7,479.7 240.7,463.6 238.7,452.8 235.1,444 232.4,440.8 231.9,442.9 232.5,450.7 237.5,469.4 240.5,477.4 245.2,483.3 		"/>
		<polyline class="st1" points="225.4,406.2 229.2,421.4 233.8,447.4 237.9,464.6 238.9,465.1 239.2,460.1 234.8,439.9 230.2,429.8 
			226,424.3 224.9,425.3 225.3,433.6 235.2,477.6 239.7,490 		"/>
		<polyline class="st1" points="224.2,477.4 230.5,488.6 243.4,507.7 250.7,515.9 257.2,518.1 266.3,513.4 		"/>
		<polyline class="st1" points="235.6,492.4 243.2,499.5 263.5,509.7 272.8,513 281,513.3 290.4,509.4 289.6,507.3 		"/>
		<polyline class="st1" points="234.4,478.9 242.9,485.2 276.2,502.2 285.6,504.5 296.1,505.1 296.3,504 286,497.7 		"/>
		<polyline class="st1" points="255.7,489.2 260.5,496.2 268.4,501.2 291.5,509.6 303.2,511 311.9,510.4 317.5,506.7 313.8,503.9 		
			"/>
		<polyline class="st1" points="271.1,498 279.9,502.2 292.1,504.7 306.6,506.7 326.4,506.5 		"/>
		<polyline class="st1" points="303.3,496.5 321.1,507.8 325,509 		"/>
		<polyline class="st1" points="317.5,501.1 312.4,512.2 304.2,564.1 300,578.5 299.3,578.2 299.5,573.6 311,517.4 315.6,498.2 
			315,505.4 291,612.9 289.9,610 289.3,600.9 291.8,586.7 304.1,546.4 311.4,526.6 317.4,514.3 317.3,521.3 314.7,535.7 
			305.6,576.3 299.1,597.4 293.5,612 		"/>
		<polyline class="st1" points="280.4,612.7 292.8,618.9 320.2,620.8 338.1,621 354.8,619.6 382.8,614.1 391.7,613 404,613.2 
			354.4,616.4 337.5,620 334,622.6 339.2,627.3 349,628.1 363,627.8 396,621.7 425.7,613.6 411.1,613.2 385.1,616.6 379.9,620.3 
			382.5,626.6 388.9,627.3 397.7,625 416.8,615.3 424.8,608.5 		"/>
		<polyline class="st1" points="407.6,521.4 411,531.2 415.2,557.1 422.3,587.1 425.7,596.2 427.7,596.3 413.9,550.4 411.9,536.5 
			414.7,519.5 416.5,518.8 417.5,532 421.8,564.5 426.8,596.5 429.2,602.1 428.7,597.3 426.1,587.3 413.3,544 410.8,530.5 
			412,520.2 412.9,536.2 414.9,551 421.5,587.5 424.4,598.7 426.3,601.7 425,593.9 418.7,563.9 414.6,539.6 416,545.6 422.5,598.9 
					"/>
		<polyline class="st1" points="404.4,518.5 415.6,520.9 425.1,517.1 428.1,513.5 411.7,508 411.4,509.6 415,520.3 419.7,525.8 
			421.3,526.4 424.3,523.4 424.6,517.8 422.2,514.5 420.8,516.2 423.8,530.1 428.4,541.9 422.6,519.7 427.2,529.1 433.2,544.7 
			438.8,565.2 438.5,561.6 435.3,550.4 		"/>
		<polyline class="st1" points="390.3,470.2 402.9,472 421.7,466.5 431.3,466.8 431.7,466.1 430.8,465.5 425.8,467.5 421.1,467.1 		
			"/>
		<polyline class="st1" points="403.5,476.3 414,478.4 418.9,480.2 422.2,482.6 426.6,492.6 423.7,471.7 422.2,467.4 432,499.7 
			438.4,525.9 443.7,542.1 442.8,539.9 441.2,523.4 443.8,508 445.3,507 447.6,510.9 456,549.4 459.4,569 459.2,569.7 454.9,565.9 
			453.3,563.2 449.9,562.2 		"/>
		<polyline class="st1" points="411.1,581 423.3,582.3 440.9,580.2 448.1,577.8 455.1,572.4 452,570.3 441.6,570.4 440.5,572.4 
			446.4,577.2 450.6,577.1 457.6,571.3 460,563.4 459,560 452.3,558.5 444.2,561 429.2,568 427,571.9 428.1,572.4 432.1,568.5 
			433.3,559.5 		"/>
		<polyline class="st1" points="432.2,506.5 427.2,483.4 423.9,460.4 427.1,463.6 429.9,472.7 441.7,532.5 452.3,564.2 455.6,568 
			454,557.5 440.2,528.6 443.2,536.5 445.8,549.2 		"/>
		<polyline class="st1" points="286.4,610.7 286.1,620.8 288,645.8 287.7,676.5 286.3,696.7 284.8,702.2 283.7,693.6 286.3,673.8 
			288.9,665.2 290.5,653.6 291.4,674 289.7,702 284.8,729.8 282.2,738.8 279.6,739.8 271.5,739.8 264.1,748 264.1,755.8 
			266.9,758.1 284.8,755.5 328,745.3 347.4,745 347.5,743.8 345.1,742.8 340.5,743.1 338.3,745.8 338.4,747.3 338.9,747 
			349.3,715.3 352,703.3 353.2,689.7 355.5,685.3 354.4,709 353.5,707.5 353.3,701.8 355.9,682.9 363.2,654.7 362.9,660.1 
			362.2,659.6 363.7,664.5 364.8,675.5 365.3,714.3 366.1,718.1 362.8,702.2 364,691.7 365.6,693.9 367.9,718.3 370.8,732.7 
			372.5,734.8 382.9,735.9 390.7,735.4 395,734.3 411.3,725.3 416.5,723.7 419.8,721.6 423.4,716.4 423.1,675.3 421.6,647.1 
			422.4,633.6 424.4,632.9 427,648.5 430.3,703.1 425.7,664.2 425.3,651.6 426.3,624 428.7,619.3 429.6,624.3 430.6,655.9 
			430.9,697.7 435,698.8 433.8,671.1 430,652.2 426.1,626.2 425.6,657.7 		"/>
		<polyline class="st1" points="386,730.9 393.3,736.9 393.1,735.1 391.3,734 384.7,734.4 374.6,739.9 369.3,746.8 368.1,750 
			369,753.7 376.1,757.5 387.9,752.1 404.4,740 405,736.6 396.7,735.8 383.4,741.3 379.9,745.2 379.9,751.4 388.5,753.5 
			404.9,748.1 419.4,739.8 427.4,732.8 423.6,724.8 417.2,715.3 416.2,710.7 423.7,747.7 423.9,733.4 423,718.7 426.4,723.8 
			429.3,741.3 429.8,750 428.2,758.7 		"/>
		<polyline class="st1" points="286,737.3 268.1,741.5 263.2,752.7 269.1,764 277.2,766.2 288.4,764.6 313.6,750.4 324.9,742 
			322.2,741.5 314.2,749.4 318.7,763.8 336.7,770.1 348.8,767.1 362.7,759.3 		"/>
		<polyline class="st1" points="310.8,332.9 308.9,344.9 308.9,348.4 309.8,350.1 310.5,349.4 		"/>
		<polyline class="st1" points="311.7,335.5 312.6,350.2 313.6,344.3 317.3,332.7 319.2,336.6 323.7,341.9 330.9,343.6 334.6,340.2 
					"/>
		<polyline class="st1" points="342.4,327.2 344.5,342.5 346.8,346.3 		"/>
		<line class="st1" x1="335.7" y1="329.7" x2="332.7" y2="344.7"/>
		<polyline class="st1" points="338,293.4 330.2,301.2 326,317.1 325.2,323.5 325.9,322.3 		"/>
		<polyline class="st1" points="337.2,266.1 333.1,287.1 328.8,316.5 		"/>
		<polyline class="st1" points="351.4,276.9 357.4,295.6 361.4,323.9 364.1,331.7 		"/>
		<polyline class="st1" points="383.9,283.4 392.4,300.2 396.5,312.1 		"/>
		<polyline class="st1" points="348.8,304.3 353.3,329 358.7,331.1 364.2,327.7 		"/>
		<polyline class="st1" points="348.1,284.9 350.3,301.6 353,310.1 356.4,314.2 360.4,311.5 		"/>
		<polyline class="st1" points="346.4,285.5 352.3,297.3 361.2,304.1 374.7,310.7 		"/>
		<polyline class="st1" points="402.9,285.9 408.1,295.9 419,313.1 		"/>
		<polyline class="st1" points="374.7,294.1 379.7,319.9 384.1,329.5 		"/>
		<polyline class="st1" points="363.6,336.6 385.1,350.8 396.3,354.5 410.1,353.1 		"/>
		<polyline class="st1" points="381.2,333 419.6,347.7 430,348.5 		"/>
		<line class="st1" x1="418.5" y1="323.9" x2="436.1" y2="344"/>
		<polyline class="st1" points="414.4,287.3 438.1,324.6 451,331 		"/>
		<polyline class="st1" points="418.8,281.6 421.3,298.2 436.1,324.6 438.6,322.1 		"/>
		<polyline class="st1" points="403.9,266.5 420.3,293.6 421.2,296.8 		"/>
		<polyline class="st1" points="365.9,264.2 360.8,274.2 365.6,282.1 378.2,294.8 389.2,291.5 392.9,286.9 		"/>
		<line class="st1" x1="319.8" y1="346.3" x2="330.2" y2="346.3"/>
		<polyline class="st1" points="338.2,335.2 346.6,345.4 351.5,341.7 349.9,338.6 357.2,346.9 360.8,357.2 363.9,346 366.2,342.6 
			370.2,347.6 375,346.9 389.3,337.2 395.9,338.3 406.6,353.4 409.7,347.5 416.8,328.7 420.2,332.4 423,343.9 428.4,353.7 
			433.4,345.6 440.7,338.1 445.4,350.9 450.1,355.8 452.9,348.9 453.7,342.3 454.6,354.9 		"/>
		<polyline class="st1" points="388.9,271 384.4,291 385.8,301.9 389.3,312.5 		"/>
		<polyline class="st1" points="372.4,280.4 372.7,289.4 379,302.4 386.8,321.1 		"/>
		<polyline class="st1" points="405,290.4 408.9,293.9 419.1,308.9 424.6,329.2 428.2,337.1 		"/>
		<line class="st1" x1="430.8" y1="292.4" x2="436.3" y2="318.2"/>
		<polyline class="st1" points="350,251.9 344.2,258 331.9,280.6 329.6,286.6 		"/>
		<polyline class="st1" points="326.6,272.3 318.2,291.2 316.1,300.9 315.4,310.6 		"/>
		<polyline class="st1" points="367.2,270.7 358.5,290.7 351.4,317.2 		"/>
		<line class="st1" x1="313.4" y1="304.4" x2="319.9" y2="315.7"/>
		<polyline class="st1" points="319.6,290.4 312.3,304.8 310.8,312.8 310.6,322.6 		"/>
		<polyline class="st1" points="310.3,281.4 307.1,297 306.9,307.5 309.7,324.4 311.3,305.6 		"/>
		<polyline class="st1" points="312.1,280.1 314.3,304.3 317.3,308.4 318.3,299.8 319.2,260.5 322.4,251.9 336.7,264.2 337.8,262.8 
					"/>
		<polyline class="st1" points="337,244.1 336.5,263.3 337,279.9 		"/>
		<polyline class="st1" points="316.7,259.2 337.8,267.1 348.8,267.3 367.2,259.9 		"/>
		<polyline class="st1" points="364.1,239.5 360.1,253.3 362.5,261.8 366.1,270.5 371.5,277.7 		"/>
		<polyline class="st1" points="343.2,249.5 364.1,269.2 369.4,271.1 373.6,267.3 		"/>
		<polyline class="st1" points="362.4,240.2 368.9,259.7 374.6,266.5 381.7,269.4 		"/>
		<polyline class="st1" points="380.5,239.7 383.4,251.4 388,260.2 405.6,280.3 		"/>
		<polyline class="st1" points="417.5,247 432.8,265.8 443.8,286.7 		"/>
		<polyline class="st1" points="437.5,285.3 452.9,306.4 457.2,309.2 		"/>
		<polyline class="st1" points="458.9,289.7 458.8,309.8 457.7,316.1 456.2,317.8 		"/>
		<line class="st1" x1="439.1" y1="286.8" x2="441.1" y2="328.7"/>
		<polyline class="st1" points="397.7,300.7 401.8,312.3 413.3,324.8 417.6,324.2 		"/>
		<polyline class="st1" points="398.6,301 401.1,311.9 405.6,319.3 421.8,333.9 423.2,331.7 		"/>
		<polyline class="st1" points="413.6,298.2 427.6,321.5 430.4,324.3 		"/>
		<polyline class="st1" points="445.1,290.7 457.5,326 458,330.1 458.6,329 		"/>
		<polyline class="st1" points="454.2,306.6 457.9,337.5 448.8,348.4 		"/>
		<line class="st1" x1="443.2" y1="320.9" x2="452.9" y2="341.9"/>
		<polyline class="st1" points="398.5,283.3 400.1,296.4 402.8,302.4 404.6,303.7 405.2,299.6 		"/>
		<polyline class="st1" points="387.6,259.8 385.3,259.5 384.3,273.9 397.2,292.9 		"/>
		<line class="st1" x1="418.2" y1="256" x2="424" y2="284.5"/>
		<line class="st1" x1="338.7" y1="299" x2="332.6" y2="335.5"/>
		<line class="st1" x1="318.8" y1="298" x2="322.7" y2="331.7"/>
		<polyline class="st1" points="299.9,307.7 316.9,335 324.3,340.7 332,338.4 		"/>
		<polyline class="st1" points="321.8,289.6 320.4,298 325.9,307.2 342.1,325.3 		"/>
		<polyline class="st1" points="302,292 323.1,329.1 331.5,324.7 336.1,319.1 		"/>
		<polyline class="st1" points="346.2,251.9 348.4,240 354.7,261.7 356.2,271.5 		"/>
		<polyline class="st1" points="369.6,215.4 375.7,245.2 381.1,277.3 		"/>
		<line class="st1" x1="392.1" y1="238.8" x2="389.5" y2="285.6"/>
		<polyline class="st1" points="411.7,254.8 409.1,303.1 409.5,306.6 		"/>
		<polyline class="st1" points="424.7,273.4 422.1,284.5 420.1,310.2 		"/>
		<polyline class="st1" points="435.6,300.1 437.7,314.8 437.3,315.4 436.8,314.8 		"/>
		<polyline class="st1" points="423.8,291 419.6,300.8 420.4,325.2 419.2,325.5 		"/>
		<polyline class="st1" points="393.8,299.9 378,289.9 369.7,302.7 373.6,311.3 390.4,316.1 		"/>
		<polyline class="st1" points="396.6,291.8 402.6,295.5 418.6,322.3 423.6,323.8 		"/>
		<polyline class="st1" points="423.5,293.9 410.4,311 409.2,322 		"/>
		<polyline class="st1" points="382.1,305.8 370,314.8 361.8,333.9 		"/>
		<polyline class="st1" points="342.8,291.2 357.9,311.2 362.5,311.3 		"/>
		<line class="st1" x1="377.6" y1="252.4" x2="395.4" y2="279.7"/>
		<polyline class="st1" points="382.9,267.7 381.9,279.2 398.7,316.4 		"/>
		<polyline class="st1" points="242.5,367.3 243.3,377.4 241.1,406.3 241.2,419.9 241.2,405.5 244,385.5 244.4,375.4 244.4,384.6 
			242.8,409.4 241,419.6 242,408.1 245.6,389.8 		"/>
		<polyline class="st1" points="323.3,372.7 353.5,371 355.8,368.7 		"/>
		<polyline class="st1" points="380.6,370.3 409.5,370.9 415.2,372.2 		"/>
		<polyline class="st1" points="336.7,411.8 345.2,409.4 374.9,408.3 381.1,406.8 		"/>
		<polyline class="st1" points="275.9,412.7 262.5,398.6 267.3,415.4 269,416.2 269.1,401.5 266.5,396.9 247.3,404 246.8,409 
			261.1,391.5 253.4,375.5 216.6,400.2 		"/>
		<polyline class="st1" points="444.6,563.8 428.8,578.8 435.1,591.1 455.9,571.6 427.9,584.9 427,590.1 446.9,590.6 439.7,576.4 
			441.4,595.5 451.9,568.8 433.8,593.1 454.7,571 433.7,589.8 456.6,581.7 441.1,582.5 460,580.7 437.6,585.1 449.1,595.6 
			453.9,571.9 446.2,598.1 460.2,568.7 431.4,594.8 462.1,585.9 434.6,583.8 456.2,602.1 465.7,573.7 452.9,599.2 474.1,584.9 		"/>
		<polyline class="st1" points="319.8,506.5 309.9,534.3 296.5,591.7 317.2,503.7 301,555.8 293.3,585.4 297.3,565.9 309.7,519.5 
			289.5,619 		"/>
		<polyline class="st1" points="241.6,473.9 274.3,502.9 281,507.4 252.3,484.1 240,490.4 255.8,496.5 305.8,496.3 240.5,487 
			239.8,489.5 302.6,513.9 328.5,509.2 		"/>
		<polyline class="st1" points="333,481.3 347.6,483.7 353.2,480.7 344.6,469.1 337.8,471.6 332.7,481.3 335,471.9 321.8,479.7 		
			"/>
		<polyline class="st1" points="342.5,472.2 348.9,479.5 353.5,479.2 353.5,474.9 348.6,475.1 357.2,480 365,479.8 369.7,474.6 
			362,473.9 360.5,481.9 361.8,470.7 353.3,473.6 366,487.2 		"/>
		<polyline class="st1" points="357.2,467.8 370.8,468.1 362.5,471.3 361.7,474.3 384.1,475.5 388.2,468.6 380.6,480.5 385.8,480.1 
			400.8,470.2 		"/>
		<polyline class="st1" points="303.9,615.7 290.8,642.9 290,689.6 285.4,628.1 283.4,631.1 281.8,728.8 283.7,705.3 		"/>
		<polyline class="st1" points="291.6,605.8 284.3,638.9 292.6,614.7 294.4,607.3 289.8,628.9 290.9,628.1 294.6,616.7 292.9,622.1 
			300.4,611.2 298.4,628.5 305.1,626.9 306.5,620 303.5,631.7 308,621.5 312.8,621.3 315.3,619.5 318.4,622.7 324.6,615.2 
			324.9,618.5 323.4,625.3 325.1,617.8 323.6,627.3 332.4,619.1 335.4,626.5 343.1,619.8 346.9,618.5 348.8,622 352.5,614 
			351.7,627.6 363.3,611.6 364.2,624.2 371,614.4 369.9,617.4 376,610 376.1,622.8 387,611 387.6,626 397.7,612 398.3,622.7 
			403.4,620.5 408.9,616 409.5,625.5 419.1,612.3 419.1,620.7 423.7,613.1 424.7,609.8 424.7,625.5 425.4,598.9 429.5,629.4 
			425.2,589.4 428.4,634.1 428.3,589.2 431.1,611.3 421.8,603.1 432.1,598.7 430.9,607.9 428.9,595 429.3,608.3 431.2,589.2 
			424.1,530.8 412.7,526.1 427.3,515.6 418.7,515.3 412.1,522 413.6,512.9 418.3,532.3 421.4,519.7 424.7,575.7 421.8,531.2 
			432.3,573.9 445.5,551.6 442.9,574.9 444.3,547.7 447.8,575.9 452,542.7 452.9,568.1 440.8,520.2 441.7,551.8 419.6,477.9 
			415.4,478.2 		"/>
		<polyline class="st1" points="370.5,476.8 392.9,477.8 406.5,476.2 409.6,471.8 382.9,475.9 432.9,458.5 431.3,458.2 387.5,474.4 
			388.1,478.4 404.5,471.6 377.7,462.3 422.2,473 417.6,472 422.4,495.1 424.1,478 423,486.6 437,485.2 419.3,483.9 		"/>
		<polyline class="st1" points="291.5,613.4 302.7,613.1 289.8,617.7 294.5,619.5 337.3,612.2 295.2,621.1 297,623 360,620.8 
			364.2,622.3 305.5,619.7 328.1,621.8 372,622.1 303.8,622.6 374.7,613.2 358.1,613 348.1,618.4 403.3,612 362.2,627.8 
			425.5,606.6 391.6,631.9 436.3,611.4 		"/>
		<polyline class="st1" points="361.9,657.5 361.6,656.5 352.6,671.8 348.8,686.1 339.5,730.9 340,725.1 345.6,700.5 		"/>
		<polyline class="st1" points="356.8,669.4 335.4,735.3 323.5,766.5 		"/>
		<polyline class="st1" points="352.2,666.8 373.1,747.7 377,752 		"/>
		<polyline class="st1" points="385.6,729.9 351.7,752.2 349.6,758.8 395.1,756.4 407.8,749.7 411.8,729.8 401.7,731.7 394.7,760.8 
			405.2,756.2 423.3,722 411.4,723 389.2,756.5 400.9,751.4 417.6,717.9 393.8,754.8 422.1,713.9 		"/>
		<polyline class="st1" points="328.5,728.8 271.4,738.7 254.4,755.5 307.7,753.6 284.3,740.9 264.5,748.7 286.3,766.2 307,759.7 
			296.8,732.4 337.5,752.6 345.5,707.2 		"/>
	</g>
</g>
</svg>
