<?xml version="1.0" encoding="utf-8" ?>
<svg baseProfile="full" height="757" version="1.1" width="535" xmlns="http://www.w3.org/2000/svg" xmlns:ev="http://www.w3.org/2001/xml-events" xmlns:xlink="http://www.w3.org/1999/xlink"><defs /><rect fill="white" height="757" width="535" x="0" y="0" /><path d="M249.10208572713017,422.4204234293892 228.8094138223741,428.054247468537 204.57092424672322,467.11552513015204 254.36314542086825,510.8716561577235 305.28276270148996,507.679131454659 326.32703201056387,444.39236159628 310.3559459447398,395.7536318965418 263.94582148766,374.72066440284226 215.28096588587002,418.1011827469232 209.64409222291224,471.99824587338907 244.02893301800196,508.6182241989207 260.56370950353397,505.9890574855568 M279.16534068328787,517.8200635535534 279.35321713377607,539.4165111080239 294.76064331401386,676.8820862195871 294.572736329404,680.0746109226517 M279.916907553484,518.5712889205346 279.54112411838594,517.6323182473433 262.0668737780479,532.2802363349136 228.24572340266616,579.0411467593397 221.8572828695122,589.1819567871636 224.2999209988322,584.1116128087867 M266.38845961697996,516.3177348906613 319.5628080423118,536.7873443946601 351.1291967388619,543.9234970967 356.95394685230787,544.2991097801906 M294.1969528943059,658.290418061971 277.6621764087739,675.3797575566952 254.17526897038002,704.8634611091164 249.28999271174004,708.9949564853723 M297.2032814433338,662.7975261217174 349.6260324643479,672.1872328536306 365.033428110464,680.8257142185626 369.16713749890783,681.7646848917539 374.61610417725575,676.694340913377 M68.72267812667057,185.04806961614776 57.44896896840705,357.63132490811813 53.31526721349364,472.37385855687967 M120.5817539950375,14.530623047840491 128.66125052025447,119.32000042168539 114.19332872894438,330.2133080082895 105.36225006647044,421.8570654396884 M249.10208572713017,-1.9952974216477481 241.02260446897404,182.6067702800644 224.67570443393026,343.5467648102484 M364.8455516599758,16.784146559946127 356.5781634172098,164.39071480593884 364.4697682248777,313.3118358908459 M438.50047897467357,0.25822609045788825 460.86000557365156,115.37631138717484 482.2800888519452,396.8803478759432 466.49684870248774,544.2991097801906 467.6242295419036,548.0549924729559 M427.9783290530758,126.45615312372531 427.9783290530758,283.26468279542104 423.46886676365557,413.59407468717677 429.29361687710156,533.782687068876 M330.27283441439783,43.826581294051714 356.2023799821117,220.35346458499745 354.887092158086,346.73928951331294 M288.9358626664462,64.1083844563052 283.29901953761004,176.22172087393534 283.862709957318,219.60230025355145 275.78319816504023,306.175683188806 272.96477660062214,317.818821879522 M176.19874054968935,44.57774562549773 158.5365984918023,195.00119537329678 147.4507734175574,305.8000705053154 102.54381323499155,602.3276682829123 M193.48509917247833,65.61074363696483 192.16984188257422,267.4899266573788 139.1833851747914,509.7449401783221 130.35230651231745,534.1581776812963 M43.168931261115596,85.89254679921832 49.18157309211064,235.18925004984837 53.69105828212213,395.3780192130512 M41.665766986601625,23.544747614030626 42.04155805523012,87.77048814560095 30.76784126343619,231.62117369882841 37.34417351413918,300.9173497620783 M98.03433567851046,53.59187019168786 97.65853697635156,116.69089474385676 101.22855594508744,141.10413224683091 M376.8708353219659,359.32152094829064 369.7308279186158,416.7865993902413 385.88982096904965,515.7543769009606 M459.5447482837475,508.8059695051308 455.9747293150116,554.8156545625756 455.5989458799135,619.6047530838466 M454.28365805588777,586.9285248283608 M455.41103889530365,578.8532793820591 459.5447482837475,149.36712299934263 456.7262961852078,72.37134469104933 444.13732210350975,-52.69983584504908 439.8157362645777,-147.16053581378952 440.7552101193837,-155.23568970678835 " fill="none" stroke="black" stroke-width="2" /></svg>