<?xml version="1.0" encoding="utf-8"?>
<!-- Generator: Adobe Illustrator 26.2.1, SVG Export Plug-In . SVG Version: 6.00 Build 0)  -->
<svg version="1.1" xmlns="http://www.w3.org/2000/svg" xmlns:xlink="http://www.w3.org/1999/xlink" x="0px" y="0px"
	 viewBox="0 0 535 757" style="enable-background:new 0 0 535 757;" xml:space="preserve">
<style type="text/css">
	.st0{fill:#FFFFFF;}
	.st1{fill:none;stroke:#000000;stroke-width:2;}
</style>
<g id="레이어_1" xmlns:ev="http://www.w3.org/2001/xml-events">
	<rect class="st0" width="535" height="757"/>
	<rect class="st0" width="535" height="757"/>
</g>
<g id="_x31_66-사람">
	<g>
		<polyline class="st1" points="192.5,380 192.5,390 193.5,392 193.5,401 194.5,402 195.5,417 196.5,417 196.5,422 197.5,422 
			197.5,424 199.5,427 199.5,429 200.5,429 201.5,432 203.5,433 203.5,434 204.5,434 205.5,436 206.5,436 210.5,439 212.5,439 
			218.5,442 221.5,442 222.5,443 229.5,444 229.5,445 232.5,445 		"/>
		<line class="st1" x1="268.5" y1="390" x2="267.5" y2="390"/>
		<polyline class="st1" points="266.5,375 265.5,375 265.5,382 266.5,385 266.5,397 267.5,398 267.5,417 266.5,417 265.5,424 
			262.5,430 261.5,430 260.5,432 254.5,437 245.5,442 243.5,444 241.5,444 237.5,446 232.5,446 231.5,447 231.5,446 		"/>
		<polyline class="st1" points="221.5,362 220.5,362 219.5,369 215.5,382 211.5,390 208.5,394 208.5,396 188.5,424 187.5,424 
			186.5,426 179.5,432 		"/>
		<polyline class="st1" points="229.5,361 228.5,361 228.5,362 229.5,362 229.5,365 230.5,366 233.5,374 238.5,379 247.5,392 
			252.5,397 260.5,403 267.5,410 269.5,411 270.5,413 271.5,413 		"/>
		<polyline class="st1" points="232.5,347 240.5,350 241.5,351 246.5,352 253.5,358 257.5,360 263.5,367 268.5,377 273.5,397 
			274.5,407 275.5,408 275.5,432 274.5,434 273.5,444 273.5,459 274.5,461 		"/>
		<polyline class="st1" points="218.5,347 215.5,344 208.5,342 202.5,344 192.5,351 189.5,354 182.5,363 180.5,368 177.5,379 
			177.5,401 179.5,418 180.5,444 181.5,452 		"/>
		<polyline class="st1" points="182.5,407 182.5,408 181.5,408 181.5,407 181.5,409 183.5,417 186.5,437 190.5,453 192.5,469 
			191.5,486 186.5,495 184.5,501 		"/>
		<polyline class="st1" points="186.5,434 184.5,437 184.5,448 187.5,461 197.5,492 201.5,499 204.5,503 205.5,503 		"/>
		<polyline class="st1" points="275.5,421 278.5,432 279.5,445 279.5,475 278.5,503 275.5,512 273.5,515 272.5,515 		"/>
		<polyline class="st1" points="229.5,453 229.5,454 229.5,453 		"/>
		<line class="st1" x1="228.5" y1="446" x2="228.5" y2="448"/>
		<polyline class="st1" points="228.5,445 227.5,456 228.5,461 229.5,462 		"/>
		<polyline class="st1" points="243.5,442 243.5,456 244.5,457 		"/>
		<polyline class="st1" points="244.5,444 243.5,444 243.5,461 244.5,463 		"/>
		<polyline class="st1" points="227.5,456 227.5,460 225.5,463 225.5,465 224.5,465 223.5,467 222.5,467 219.5,470 204.5,478 
			194.5,481 		"/>
		<polyline class="st1" points="241.5,458 241.5,457 248.5,465 261.5,472 263.5,472 266.5,474 276.5,475 		"/>
		<line class="st1" x1="279.5" y1="474" x2="280.5" y2="474"/>
		<polyline class="st1" points="273.5,392 272.5,390 273.5,390 279.5,394 282.5,399 288.5,418 289.5,425 289.5,442 281.5,469 
			279.5,479 279.5,483 280.5,485 		"/>
		<polyline class="st1" points="281.5,422 282.5,420 283.5,420 287.5,434 286.5,505 287.5,512 289.5,517 290.5,517 292.5,515 		"/>
		<polyline class="st1" points="279.5,412 275.5,413 272.5,422 270.5,443 270.5,470 271.5,481 276.5,506 282.5,518 289.5,529 
			292.5,533 296.5,536 		"/>
		<polyline class="st1" points="194.5,416 190.5,414 191.5,422 191.5,441 186.5,464 184.5,482 187.5,501 190.5,512 194.5,522 
			198.5,528 205.5,533 207.5,533 		"/>
		<polyline class="st1" points="179.5,405 176.5,405 174.5,407 171.5,420 170.5,452 170.5,480 171.5,488 173.5,496 178.5,508 
			191.5,524 193.5,525 195.5,529 197.5,531 		"/>
		<polyline class="st1" points="193.5,339 191.5,340 188.5,344 184.5,360 178.5,392 175.5,425 178.5,451 193.5,505 		"/>
		<polyline class="st1" points="175.5,484 174.5,484 174.5,485 170.5,490 170.5,493 168.5,501 168.5,505 166.5,512 166.5,549 
			167.5,553 167.5,575 168.5,577 		"/>
		<polyline class="st1" points="270.5,472 268.5,472 268.5,473 269.5,473 269.5,474 271.5,476 272.5,476 272.5,477 274.5,478 
			275.5,480 277.5,480 277.5,481 279.5,481 280.5,482 280.5,480 281.5,480 281.5,479 		"/>
		<polyline class="st1" points="273.5,478 274.5,477 277.5,477 281.5,479 288.5,486 289.5,488 292.5,490 293.5,494 297.5,502 
			302.5,530 304.5,536 304.5,539 306.5,544 310.5,548 312.5,548 315.5,545 316.5,542 317.5,542 317.5,538 318.5,535 		"/>
		<polyline class="st1" points="310.5,546 309.5,546 310.5,546 326.5,529 327.5,526 330.5,523 330.5,522 333.5,518 335.5,513 		"/>
		<polyline class="st1" points="279.5,532 277.5,532 280.5,544 292.5,570 296.5,573 303.5,573 307.5,570 309.5,570 310.5,569 
			318.5,559 320.5,558 321.5,556 323.5,555 324.5,553 327.5,551 327.5,550 329.5,548 330.5,548 330.5,547 336.5,541 336.5,539 
			339.5,536 342.5,532 342.5,531 343.5,531 		"/>
		<polyline class="st1" points="338.5,514 340.5,519 340.5,521 344.5,529 344.5,531 345.5,531 		"/>
		<polyline class="st1" points="344.5,517 343.5,517 342.5,515 343.5,511 345.5,509 345.5,508 347.5,507 348.5,505 349.5,505 
			349.5,504 354.5,503 354.5,502 363.5,502 368.5,506 370.5,510 371.5,520 368.5,526 363.5,529 360.5,529 354.5,531 353.5,532 
			350.5,532 350.5,531 		"/>
		<polyline class="st1" points="186.5,542 187.5,572 188.5,575 188.5,594 189.5,597 189.5,604 188.5,603 		"/>
		<polyline class="st1" points="171.5,578 171.5,575 170.5,574 170.5,567 169.5,567 169.5,577 171.5,591 171.5,598 173.5,609 
			173.5,615 		"/>
		<polyline class="st1" points="194.5,540 194.5,534 195.5,538 		"/>
		<line class="st1" x1="196.5" y1="547" x2="196.5" y2="550"/>
		<polyline class="st1" points="191.5,539 192.5,540 194.5,549 196.5,553 198.5,555 202.5,565 207.5,594 208.5,611 		"/>
		<polyline class="st1" points="279.5,532 279.5,589 280.5,603 281.5,607 		"/>
		<polyline class="st1" points="214.5,613 220.5,616 227.5,618 243.5,621 254.5,621 265.5,620 273.5,618 279.5,618 		"/>
		<polyline class="st1" points="207.5,618 206.5,619 205.5,623 200.5,670 199.5,693 199.5,722 202.5,748 207.5,769 208.5,770 		"/>
		<polyline class="st1" points="296.5,618 297.5,618 300.5,624 302.5,637 305.5,674 310.5,706 311.5,722 311.5,742 310.5,754 		"/>
		<polyline class="st1" points="255.5,657 254.5,657 252.5,666 252.5,718 255.5,762 255.5,772 256.5,772 257.5,765 		"/>
		<polyline class="st1" points="259.5,663 261.5,675 269.5,775 270.5,780 271.5,782 272.5,782 272.5,781 		"/>
		<polyline class="st1" points="189.5,600 197.5,597 209.5,589 221.5,578 		"/>
		<polyline class="st1" points="179.5,616 179.5,615 179.5,616 176.5,616 177.5,617 183.5,617 187.5,616 201.5,609 224.5,591 
			224.5,590 226.5,589 227.5,587 		"/>
		<polyline class="st1" points="226.5,558 225.5,558 226.5,579 228.5,595 228.5,590 		"/>
		<polyline class="st1" points="225.5,552 224.5,552 224.5,551 241.5,545 244.5,543 247.5,543 248.5,545 251.5,568 252.5,592 
			253.5,593 253.5,591 		"/>
		<polyline class="st1" points="202.5,442 204.5,465 205.5,467 205.5,474 207.5,484 208.5,487 209.5,487 		"/>
		<polyline class="st1" points="233.5,598 257.5,594 257.5,593 		"/>
	</g>
</g>
<g id="_x31_65-비">
	<g>
		<polyline class="st1" points="81.5,316 80.5,317 79.5,321 79.5,335 83.5,351 85.5,349 		"/>
		<polyline class="st1" points="239.5,39 237.5,56 237.5,75 238.5,80 		"/>
		<polyline class="st1" points="338.5,71 336.5,79 334.5,98 		"/>
		<polyline class="st1" points="429.5,130 425.5,141 426.5,161 		"/>
		<polyline class="st1" points="479.5,280 478.5,298 480.5,323 		"/>
		<polyline class="st1" points="486.5,487 486.5,509 488.5,542 488.5,568 		"/>
		<line class="st1" x1="491.5" y1="665" x2="490.5" y2="680"/>
		<polyline class="st1" points="58.5,395 58.5,426 59.5,447 		"/>
		<polyline class="st1" points="76.5,80 71.5,99 74.5,146 76.5,153 		"/>
		<polyline class="st1" points="156.5,104 157.5,140 160.5,149 		"/>
		<polyline class="st1" points="445.5,369 440.5,371 445.5,396 446.5,409 		"/>
		<polyline class="st1" points="87.5,557 80.5,582 77.5,600 		"/>
		<polyline class="st1" points="34.5,599 32.5,617 34.5,645 		"/>
		<polyline class="st1" points="111.5,674 107.5,681 105.5,727 108.5,745 		"/>
		<polyline class="st1" points="444.5,652 441.5,670 441.5,681 		"/>
		<polyline class="st1" points="493.5,74 491.5,97 495.5,134 		"/>
		<line class="st1" x1="461.5" y1="222" x2="460.5" y2="231"/>
		<line class="st1" x1="455.5" y1="484" x2="455.5" y2="519"/>
		<line class="st1" x1="431.5" y1="590" x2="429.5" y2="618"/>
		<polyline class="st1" points="22.5,213 22.5,234 25.5,265 		"/>
		<polyline class="st1" points="416.5,678 415.5,696 418.5,708 		"/>
		<polyline class="st1" points="492.5,657 491.5,677 492.5,697 		"/>
		<polyline class="st1" points="441.5,431 440.5,464 441.5,475 		"/>
		<polyline class="st1" points="413.5,423 411.5,455 412.5,464 		"/>
	</g>
</g>
<g id="_x31_65-가방">
	<g>
		<polyline class="st1" points="186.5,582 188.5,582 192.5,586 194.5,587 194.5,588 195.5,588 199.5,596 		"/>
		<polyline class="st1" points="188.5,574 191.5,575 195.5,579 200.5,586 202.5,591 202.5,594 		"/>
		<polyline class="st1" points="165.5,579 162.5,579 161.5,580 155.5,591 150.5,604 149.5,614 152.5,613 		"/>
		<polyline class="st1" points="166.5,591 165.5,591 163.5,595 162.5,601 160.5,605 158.5,612 158.5,618 159.5,619 		"/>
		<polyline class="st1" points="149.5,607 149.5,636 150.5,638 150.5,641 152.5,643 153.5,641 		"/>
		<polyline class="st1" points="157.5,615 157.5,627 159.5,632 159.5,634 160.5,635 162.5,635 		"/>
		<polyline class="st1" points="137.5,648 137.5,649 143.5,649 150.5,647 151.5,646 153.5,646 157.5,643 169.5,637 175.5,632 
			178.5,631 196.5,613 203.5,605 205.5,601 207.5,598 209.5,597 209.5,596 		"/>
		<polyline class="st1" points="143.5,653 141.5,653 147.5,667 153.5,674 159.5,679 163.5,681 178.5,682 190.5,680 197.5,676 
			202.5,670 207.5,660 211.5,647 213.5,635 213.5,620 214.5,619 214.5,611 213.5,611 		"/>
	</g>
</g>
<g id="_x31_65-우산">
	<g>
		<polyline class="st1" points="358.5,533 358.5,547 359.5,549 359.5,553 358.5,554 355.5,554 354.5,555 348.5,555 346.5,556 
			347.5,556 		"/>
		<polyline class="st1" points="367.5,530 367.5,543 369.5,551 369.5,559 368.5,561 360.5,565 357.5,565 350.5,567 344.5,567 
			338.5,564 335.5,559 336.5,555 338.5,554 341.5,554 347.5,556 350.5,556 		"/>
		<polyline class="st1" points="333.5,316 334.5,326 334.5,346 336.5,358 337.5,383 339.5,398 340.5,421 342.5,428 342.5,435 
			344.5,447 344.5,457 345.5,460 345.5,469 346.5,473 346.5,483 347.5,485 347.5,491 348.5,493 348.5,501 349.5,502 349.5,507 
			349.5,500 		"/>
		<polyline class="st1" points="350.5,317 350.5,333 353.5,374 353.5,388 354.5,394 355.5,424 356.5,430 356.5,449 357.5,454 
			357.5,465 359.5,474 359.5,483 360.5,486 361.5,497 362.5,499 362.5,507 362.5,502 		"/>
		<polyline class="st1" points="85.5,324 82.5,324 81.5,323 82.5,305 84.5,301 85.5,294 95.5,265 108.5,241 125.5,221 132.5,214 
			155.5,194 170.5,184 183.5,177 190.5,174 205.5,170 213.5,167 223.5,165 240.5,163 248.5,163 250.5,162 281.5,162 296.5,165 
			300.5,165 301.5,166 304.5,166 306.5,167 314.5,168 315.5,169 319.5,170 326.5,171 327.5,172 360.5,182 386.5,197 398.5,207 
			415.5,225 417.5,229 423.5,237 425.5,242 435.5,255 446.5,276 449.5,287 450.5,288 450.5,291 454.5,304 454.5,308 		"/>
		<polyline class="st1" points="87.5,352 85.5,354 86.5,348 90.5,343 103.5,331 115.5,324 127.5,322 135.5,322 140.5,323 145.5,325 
			154.5,332 158.5,338 157.5,332 159.5,327 159.5,325 162.5,319 168.5,312 180.5,304 194.5,301 209.5,301 211.5,302 215.5,302 
			223.5,306 226.5,310 228.5,311 228.5,312 229.5,312 229.5,315 229.5,313 234.5,303 240.5,298 248.5,295 253.5,294 266.5,294 
			275.5,297 281.5,300 293.5,312 296.5,317 297.5,321 298.5,315 302.5,309 313.5,301 317.5,299 322.5,298 335.5,298 346.5,302 
			353.5,309 353.5,310 356.5,313 356.5,315 357.5,316 359.5,308 367.5,300 375.5,297 388.5,297 395.5,299 405.5,304 415.5,311 
			420.5,319 421.5,319 421.5,320 422.5,320 427.5,311 436.5,305 439.5,304 446.5,303 453.5,307 454.5,309 457.5,310 457.5,311 		"/>
		<polyline class="st1" points="333.5,306 333.5,303 332.5,302 332.5,320 333.5,324 333.5,334 334.5,333 		"/>
		<polyline class="st1" points="350.5,309 349.5,309 349.5,326 350.5,329 350.5,333 		"/>
		<polyline class="st1" points="266.5,156 264.5,156 262.5,152 261.5,149 261.5,141 263.5,133 265.5,130 268.5,127 273.5,125 
			276.5,125 279.5,127 281.5,129 282.5,134 279.5,134 276.5,136 272.5,141 265.5,154 265.5,157 267.5,157 268.5,156 		"/>
		<polyline class="st1" points="282.5,157 277.5,157 277.5,153 285.5,146 295.5,146 296.5,148 292.5,152 290.5,152 279.5,156 
			277.5,157 276.5,158 277.5,158 		"/>
	</g>
</g>
</svg>
