<?xml version="1.0" encoding="utf-8"?>
<!-- Generator: Adobe Illustrator 26.2.1, SVG Export Plug-In . SVG Version: 6.00 Build 0)  -->
<svg version="1.1" xmlns="http://www.w3.org/2000/svg" xmlns:xlink="http://www.w3.org/1999/xlink" x="0px" y="0px"
	 viewBox="0 0 535 757" style="enable-background:new 0 0 535 757;" xml:space="preserve">
<style type="text/css">
	.st0{fill:#FFFFFF;}
	.st1{fill:none;stroke:#000000;stroke-width:2;}
</style>
<g id="레이어_1" xmlns:ev="http://www.w3.org/2001/xml-events">
	<rect class="st0" width="535" height="757"/>
	<polyline class="st1" points="449.5,558 444.5,554 443.5,543 445.5,538 447.5,535 451.5,534 453.5,540 453.5,543 451.5,545 
		450.5,545 449.5,543 449.5,538 452.5,532 463.5,518 472.5,513 472.5,512 469.5,514 	"/>
	<polyline class="st1" points="437.5,546 436.5,549 436.5,554 440.5,556 445.5,556 456.5,551 456.5,550 	"/>
	<polyline class="st1" points="474.5,498 469.5,497 472.5,496 479.5,496 479.5,498 477.5,499 474.5,503 	"/>
	<polyline class="st1" points="476.5,498 477.5,498 482.5,503 482.5,504 	"/>
	<polyline class="st1" points="486.5,492 486.5,493 485.5,493 485.5,508 486.5,509 	"/>
	<polyline class="st1" points="488.5,493 488.5,491 490.5,491 492.5,493 492.5,495 489.5,499 489.5,501 491.5,502 494.5,502 
		495.5,501 	"/>
	<polyline class="st1" points="494.5,496 500.5,493 500.5,504 	"/>
	<polyline class="st1" points="494.5,505 493.5,507 491.5,508 490.5,512 492.5,513 496.5,513 501.5,508 501.5,506 495.5,506 
		494.5,507 494.5,508 498.5,507 	"/>
	<polyline class="st1" points="510.5,498 504.5,498 505.5,502 509.5,503 510.5,501 509.5,497 507.5,497 507.5,500 	"/>
	<polyline class="st1" points="519.5,492 520.5,501 520.5,515 	"/>
	<rect class="st0" width="535" height="757"/>
</g>
<g id="_x31_67-우산">
	<g>
		<polyline class="st1" points="100.5,233 99.5,234 99.5,231 102.5,222 108.5,210 134.5,166 148.5,149 164.5,134 171.5,128 
			193.5,113 206.5,107 227.5,99 248.5,93 262.5,91 284.5,91 309.5,96 319.5,100 324.5,101 332.5,105 341.5,108 344.5,111 365.5,121 
			373.5,128 386.5,137 399.5,149 408.5,155 420.5,171 424.5,175 430.5,188 436.5,196 440.5,204 440.5,209 		"/>
		<line class="st1" x1="297.5" y1="262" x2="296.5" y2="262"/>
		<polyline class="st1" points="101.5,235 100.5,235 101.5,239 106.5,250 111.5,255 115.5,256 120.5,255 126.5,251 138.5,241 
			148.5,231 153.5,227 158.5,225 161.5,225 187.5,248 193.5,252 199.5,254 206.5,254 218.5,251 228.5,243 241.5,231 245.5,229 
			252.5,227 259.5,230 269.5,238 274.5,243 280.5,247 285.5,249 294.5,251 307.5,251 313.5,249 335.5,232 341.5,229 350.5,226 
			355.5,227 370.5,237 381.5,241 388.5,242 394.5,242 402.5,236 413.5,225 420.5,228 430.5,230 434.5,230 437.5,225 442.5,213 
			442.5,211 443.5,210 		"/>
		<polyline class="st1" points="268.5,245 269.5,250 269.5,273 268.5,279 269.5,280 269.5,278 		"/>
		<polyline class="st1" points="309.5,246 307.5,247 307.5,250 306.5,251 306.5,273 307.5,284 308.5,287 		"/>
	</g>
</g>
<g id="_x31_67-풀">
	<g>
		<polyline class="st1" points="7.5,533 3.5,532 10.5,530 26.5,528 33.5,532 36.5,535 36.5,538 30.5,547 34.5,548 50.5,542 
			64.5,543 65.5,544 66.5,549 56.5,562 57.5,563 82.5,563 85.5,564 88.5,567 88.5,571 82.5,580 82.5,583 84.5,585 98.5,585 
			104.5,587 107.5,591 109.5,596 108.5,602 105.5,608 102.5,619 		"/>
		<polyline class="st1" points="18.5,598 16.5,602 16.5,605 15.5,606 14.5,612 15.5,611 15.5,612 18.5,612 21.5,616 26.5,616 		"/>
		<polyline class="st1" points="23.5,560 21.5,564 18.5,575 18.5,577 20.5,578 		"/>
		<polyline class="st1" points="38.5,561 34.5,562 33.5,563 30.5,568 27.5,576 27.5,580 33.5,582 		"/>
		<polyline class="st1" points="66.5,588 55.5,599 53.5,603 		"/>
		<polyline class="st1" points="79.5,591 79.5,592 69.5,603 66.5,608 66.5,609 67.5,609 		"/>
	</g>
</g>
<g id="_x31_67-지렁이">
	<g>
		<polyline class="st1" points="430.5,577 427.5,578 438.5,566 443.5,575 445.5,577 449.5,579 453.5,578 465.5,567 467.5,566 
			468.5,566 472.5,574 477.5,577 481.5,577 494.5,572 495.5,572 501.5,577 511.5,576 516.5,574 517.5,573 517.5,572 516.5,573 		"/>
		<polyline class="st1" points="431.5,576 431.5,574 430.5,575 429.5,579 426.5,584 425.5,592 431.5,591 435.5,588 443.5,586 
			447.5,584 451.5,584 451.5,591 453.5,593 460.5,592 468.5,585 469.5,585 469.5,584 469.5,585 470.5,585 470.5,589 472.5,590 
			478.5,588 483.5,585 486.5,585 488.5,584 488.5,586 490.5,591 494.5,592 494.5,591 498.5,588 501.5,587 504.5,587 508.5,585 
			510.5,586 513.5,586 516.5,582 516.5,581 514.5,581 		"/>
		<polyline class="st1" points="441.5,577 435.5,575 434.5,576 432.5,576 432.5,578 431.5,578 433.5,579 437.5,577 437.5,575 
			434.5,575 432.5,576 433.5,576 		"/>
	</g>
</g>
<g id="_x31_67-사람">
	<g>
		<polyline class="st1" points="287.5,279 285.5,277 285.5,276 283.5,275 273.5,275 257.5,281 248.5,286 233.5,297 223.5,306 
			216.5,314 211.5,322 206.5,340 204.5,367 204.5,377 205.5,379 206.5,387 209.5,396 213.5,403 218.5,409 232.5,419 259.5,431 
			269.5,433 289.5,432 309.5,426 319.5,421 329.5,415 337.5,409 345.5,402 350.5,396 355.5,386 358.5,378 360.5,369 362.5,351 
			362.5,341 358.5,325 350.5,312 348.5,311 341.5,304 333.5,299 315.5,291 288.5,283 278.5,282 276.5,281 271.5,281 259.5,283 		"/>
		<polyline class="st1" points="259.5,292 242.5,307 227.5,327 217.5,344 212.5,357 213.5,363 214.5,364 		"/>
		<polyline class="st1" points="278.5,292 266.5,300 255.5,315 245.5,331 237.5,348 237.5,353 244.5,354 		"/>
		<polyline class="st1" points="302.5,288 303.5,292 298.5,298 270.5,341 265.5,352 265.5,358 270.5,358 		"/>
		<polyline class="st1" points="319.5,300 310.5,307 297.5,329 292.5,341 291.5,348 295.5,350 		"/>
		<polyline class="st1" points="329.5,303 320.5,322 316.5,334 314.5,342 314.5,352 316.5,353 		"/>
		<polyline class="st1" points="343.5,308 338.5,312 335.5,319 333.5,328 333.5,338 335.5,343 340.5,345 		"/>
		<polyline class="st1" points="356.5,320 352.5,326 351.5,341 352.5,348 353.5,350 		"/>
		<polyline class="st1" points="229.5,395 225.5,394 224.5,391 224.5,386 228.5,380 232.5,376 238.5,376 242.5,381 248.5,396 
			250.5,399 251.5,399 251.5,398 		"/>
		<polyline class="st1" points="309.5,391 305.5,388 304.5,385 307.5,376 310.5,372 314.5,370 316.5,371 317.5,373 320.5,401 
			322.5,403 322.5,401 		"/>
		<polyline class="st1" points="287.5,386 286.5,384 285.5,384 274.5,394 276.5,394 285.5,398 289.5,399 289.5,401 		"/>
		<polyline class="st1" points="253.5,419 253.5,416 252.5,416 252.5,418 262.5,423 279.5,423 283.5,422 284.5,421 286.5,421 
			286.5,420 288.5,420 292.5,418 294.5,416 304.5,411 304.5,410 		"/>
		<polyline class="st1" points="269.5,437 265.5,441 265.5,444 266.5,448 270.5,456 272.5,458 274.5,456 282.5,454 292.5,454 
			293.5,453 291.5,449 291.5,445 289.5,435 289.5,430 		"/>
		<polyline class="st1" points="266.5,455 260.5,462 244.5,472 230.5,479 197.5,499 173.5,512 155.5,519 161.5,522 165.5,527 
			174.5,556 176.5,559 178.5,561 183.5,561 208.5,541 247.5,516 256.5,509 258.5,506 258.5,582 261.5,582 262.5,581 266.5,580 
			274.5,580 281.5,579 297.5,575 310.5,569 306.5,549 306.5,522 309.5,485 309.5,492 311.5,497 320.5,512 325.5,522 333.5,533 
			352.5,554 353.5,556 354.5,556 352.5,552 351.5,543 353.5,533 358.5,521 367.5,511 385.5,501 393.5,500 393.5,499 378.5,493 
			309.5,450 283.5,436 284.5,435 287.5,435 		"/>
		<polyline class="st1" points="262.5,578 258.5,581 254.5,593 251.5,605 251.5,614 250.5,618 		"/>
		<polyline class="st1" points="281.5,587 279.5,589 273.5,604 271.5,614 271.5,618 		"/>
		<polyline class="st1" points="306.5,578 307.5,583 311.5,591 314.5,600 316.5,617 		"/>
		<polyline class="st1" points="282.5,591 282.5,592 282.5,591 287.5,589 293.5,589 294.5,590 298.5,603 301.5,618 		"/>
		<polyline class="st1" points="346.5,536 349.5,542 354.5,560 355.5,571 359.5,591 363.5,594 370.5,591 375.5,579 379.5,564 
			379.5,548 377.5,541 375.5,542 374.5,550 373.5,552 373.5,559 375.5,567 379.5,571 384.5,573 387.5,572 389.5,565 389.5,545 
			387.5,535 389.5,542 393.5,548 397.5,552 405.5,554 410.5,553 414.5,549 415.5,541 413.5,532 406.5,522 398.5,516 391.5,514 
			388.5,514 388.5,515 394.5,517 402.5,516 409.5,514 412.5,512 412.5,508 407.5,503 399.5,499 390.5,496 378.5,496 378.5,497 		"/>
		<polyline class="st1" points="162.5,522 158.5,521 155.5,519 152.5,515 149.5,508 146.5,488 144.5,481 139.5,476 133.5,472 
			120.5,471 117.5,473 117.5,481 118.5,487 119.5,490 123.5,495 131.5,500 142.5,503 151.5,504 144.5,504 135.5,506 129.5,508 
			121.5,512 116.5,517 115.5,524 119.5,529 127.5,531 138.5,531 156.5,526 159.5,526 158.5,525 147.5,526 135.5,536 131.5,543 
			133.5,548 138.5,551 144.5,551 166.5,543 166.5,542 155.5,557 153.5,564 159.5,567 170.5,564 187.5,555 189.5,552 		"/>
		<polyline class="st1" points="237.5,425 236.5,424 236.5,422 		"/>
		<polyline class="st1" points="236.5,419 237.5,418 236.5,420 236.5,449 234.5,455 230.5,459 216.5,469 184.5,485 166.5,490 
			144.5,493 138.5,493 130.5,490 128.5,489 130.5,489 		"/>
		<polyline class="st1" points="257.5,428 259.5,428 259.5,439 260.5,441 260.5,455 253.5,456 199.5,487 161.5,505 136.5,514 
			127.5,516 123.5,516 		"/>
	</g>
</g>
<g id="_x31_67-비_00000155824585862738764860000007989519073547368322_">
	<g>
		<polyline class="st1" points="37.5,31 26.5,69 21.5,126 21.5,148 24.5,190 32.5,222 		"/>
		<polyline class="st1" points="183.5,10 163.5,41 162.5,65 164.5,85 166.5,93 170.5,104 		"/>
		<polyline class="st1" points="116.5,14 115.5,17 107.5,29 97.5,54 94.5,71 96.5,106 101.5,120 102.5,121 		"/>
		<polyline class="st1" points="244.5,0 239.5,21 241.5,39 244.5,52 249.5,68 257.5,73 		"/>
		<polyline class="st1" points="356.5,12 352.5,23 349.5,41 352.5,63 360.5,76 365.5,79 		"/>
		<polyline class="st1" points="439.5,10 430.5,58 430.5,80 432.5,104 433.5,108 440.5,120 442.5,121 		"/>
		<polyline class="st1" points="506.5,13 507.5,20 500.5,74 500.5,114 504.5,155 511.5,192 518.5,222 522.5,249 525.5,301 		"/>
		<polyline class="st1" points="451.5,93 440.5,138 451.5,182 		"/>
	</g>
</g>
</svg>
