<?xml version="1.0" encoding="utf-8"?>
<!-- Generator: Adobe Illustrator 26.2.1, SVG Export Plug-In . SVG Version: 6.00 Build 0)  -->
<svg version="1.1" xmlns="http://www.w3.org/2000/svg" xmlns:xlink="http://www.w3.org/1999/xlink" x="0px" y="0px"
	 viewBox="0 0 535 757" style="enable-background:new 0 0 535 757;" xml:space="preserve">
<style type="text/css">
	.st0{fill:#FFFFFF;}
	.st1{fill:none;stroke:#000000;stroke-width:2;}
</style>
<g id="레이어_1" xmlns:ev="http://www.w3.org/2001/xml-events">
	<rect class="st0" width="535" height="757"/>
	<polyline class="st1" points="163.5,650 163.5,649 159.5,650 155.5,652 153.5,655 154.5,657 157.5,658 163.5,658 	"/>
	<polyline class="st1" points="163.5,650 162.5,650 163.5,649 177.5,650 186.5,652 192.5,655 201.5,655 203.5,654 208.5,654 
		209.5,653 216.5,653 216.5,655 217.5,655 217.5,658 216.5,660 210.5,663 190.5,663 189.5,662 184.5,662 182.5,661 178.5,661 
		177.5,660 165.5,660 164.5,659 161.5,659 	"/>
	<polyline class="st1" points="165.5,653 163.5,655 165.5,654 165.5,653 164.5,655 	"/>
	<polyline class="st1" points="186.5,615 187.5,619 184.5,626 179.5,628 177.5,628 174.5,626 174.5,623 177.5,623 179.5,622 
		181.5,623 181.5,631 180.5,635 179.5,637 178.5,637 176.5,641 175.5,641 	"/>
	<polyline class="st1" points="173.5,634 173.5,640 175.5,643 177.5,643 180.5,641 185.5,641 187.5,640 	"/>
	<polyline class="st1" points="184.5,598 193.5,596 195.5,597 192.5,604 188.5,610 	"/>
	<polyline class="st1" points="193.5,603 194.5,605 197.5,608 198.5,608 	"/>
	<polyline class="st1" points="201.5,595 201.5,606 202.5,613 	"/>
	<polyline class="st1" points="208.5,595 208.5,594 213.5,594 214.5,595 214.5,598 208.5,603 211.5,605 216.5,605 217.5,604 	"/>
	<polyline class="st1" points="215.5,598 216.5,599 222.5,599 225.5,597 225.5,595 224.5,595 225.5,597 225.5,606 	"/>
	<polyline class="st1" points="221.5,606 219.5,607 217.5,611 222.5,614 224.5,613 226.5,610 226.5,608 224.5,607 220.5,607 	"/>
	<polyline class="st1" points="232.5,600 230.5,608 231.5,609 233.5,609 236.5,607 237.5,605 236.5,603 234.5,602 231.5,602 	"/>
	<polyline class="st1" points="241.5,596 242.5,598 243.5,610 244.5,611 	"/>
	<polyline class="st1" points="175.5,650 175.5,657 174.5,659 	"/>
	<line class="st1" x1="181.5" y1="652" x2="181.5" y2="660"/>
	<polyline class="st1" points="193.5,654 192.5,656 192.5,662 	"/>
	<line class="st1" x1="204.5" y1="656" x2="203.5" y2="662"/>
	<line class="st1" x1="210.5" y1="655" x2="210.5" y2="661"/>
	<rect class="st0" width="535" height="757"/>
</g>
<g id="_x31_70-사람">
	<g>
		<polyline class="st1" points="304.5,264 299.5,265 295.5,268 280.5,292 278.5,301 278.5,310 277.5,312 278.5,322 280.5,331 
			291.5,346 299.5,355 309.5,362 320.5,367 342.5,370 357.5,370 370.5,368 391.5,358 400.5,351 406.5,343 413.5,327 413.5,324 
			416.5,313 417.5,302 416.5,293 414.5,285 406.5,268 393.5,254 376.5,248 367.5,244 357.5,242 347.5,242 337.5,244 318.5,251 
			309.5,256 298.5,265 		"/>
		<polyline class="st1" points="337.5,371 337.5,380 338.5,381 347.5,381 349.5,382 358.5,382 358.5,381 370.5,381 370.5,377 		"/>
		<line class="st1" x1="371.5" y1="369" x2="369.5" y2="380"/>
		<polyline class="st1" points="220.5,360 219.5,360 220.5,358 231.5,346 238.5,342 240.5,342 249.5,348 267.5,357 301.5,371 
			305.5,374 312.5,377 323.5,379 338.5,383 		"/>
		<polyline class="st1" points="220.5,360 219.5,361 219.5,363 221.5,364 224.5,370 229.5,372 237.5,380 247.5,384 255.5,390 
			259.5,391 269.5,397 276.5,399 280.5,399 286.5,401 286.5,402 289.5,403 291.5,405 296.5,406 298.5,408 		"/>
		<polyline class="st1" points="371.5,384 374.5,384 384.5,388 391.5,389 401.5,396 411.5,399 425.5,408 431.5,414 439.5,424 
			442.5,426 452.5,442 455.5,444 459.5,450 461.5,456 464.5,462 467.5,466 470.5,475 473.5,481 476.5,485 476.5,487 475.5,487 		"/>
		<polyline class="st1" points="412.5,444 414.5,446 428.5,470 431.5,477 436.5,493 446.5,516 448.5,517 451.5,517 457.5,512 
			462.5,509 467.5,507 471.5,507 475.5,505 478.5,499 478.5,497 		"/>
		<polyline class="st1" points="475.5,485 475.5,488 478.5,499 478.5,502 		"/>
		<polyline class="st1" points="397.5,433 396.5,433 400.5,435 402.5,438 404.5,438 409.5,443 409.5,444 412.5,448 		"/>
		<polyline class="st1" points="394.5,432 393.5,433 394.5,451 394.5,499 393.5,516 		"/>
		<polyline class="st1" points="297.5,409 297.5,410 299.5,411 303.5,415 312.5,421 313.5,423 316.5,424 318.5,429 317.5,447 
			319.5,457 319.5,472 320.5,482 321.5,484 322.5,501 323.5,506 324.5,506 		"/>
		<polyline class="st1" points="325.5,508 325.5,509 324.5,509 327.5,511 330.5,512 334.5,512 336.5,513 368.5,513 375.5,515 
			392.5,514 394.5,513 		"/>
		<polyline class="st1" points="223.5,354 214.5,356 209.5,355 207.5,351 207.5,345 212.5,339 218.5,335 227.5,333 232.5,335 
			233.5,339 232.5,345 230.5,349 227.5,352 227.5,353 		"/>
		<polyline class="st1" points="466.5,506 458.5,509 454.5,515 453.5,522 455.5,527 464.5,528 469.5,526 474.5,522 476.5,518 
			475.5,513 472.5,509 468.5,507 		"/>
		<polyline class="st1" points="321.5,516 318.5,522 316.5,536 316.5,575 314.5,607 312.5,622 312.5,643 		"/>
		<polyline class="st1" points="360.5,562 358.5,572 360.5,585 361.5,611 359.5,645 358.5,650 356.5,650 355.5,649 351.5,649 
			347.5,650 333.5,651 326.5,653 319.5,653 315.5,651 		"/>
		<polyline class="st1" points="357.5,563 361.5,573 369.5,600 373.5,623 375.5,647 377.5,651 378.5,651 		"/>
		<polyline class="st1" points="399.5,519 398.5,523 398.5,534 401.5,551 405.5,572 421.5,634 422.5,646 420.5,649 418.5,650 
			380.5,651 378.5,652 		"/>
		<polyline class="st1" points="324.5,654 318.5,654 315.5,656 310.5,666 307.5,679 308.5,690 315.5,694 325.5,695 335.5,690 
			342.5,683 344.5,676 343.5,667 339.5,659 331.5,655 		"/>
		<polyline class="st1" points="399.5,655 391.5,657 387.5,661 384.5,672 383.5,686 387.5,695 392.5,699 402.5,699 408.5,696 
			411.5,689 412.5,681 411.5,669 408.5,661 402.5,655 		"/>
		<polyline class="st1" points="307.5,261 302.5,265 295.5,275 286.5,293 		"/>
		<polyline class="st1" points="314.5,259 302.5,275 298.5,284 297.5,291 		"/>
		<polyline class="st1" points="325.5,256 320.5,261 314.5,272 312.5,277 309.5,289 308.5,294 309.5,295 		"/>
		<polyline class="st1" points="339.5,252 333.5,260 329.5,272 326.5,289 326.5,297 		"/>
		<polyline class="st1" points="353.5,248 352.5,268 346.5,298 		"/>
		<polyline class="st1" points="366.5,248 367.5,252 367.5,262 364.5,297 		"/>
		<polyline class="st1" points="380.5,253 385.5,265 386.5,271 387.5,293 385.5,305 		"/>
		<polyline class="st1" points="398.5,265 399.5,267 400.5,276 400.5,287 401.5,295 404.5,308 		"/>
		<polyline class="st1" points="410.5,277 408.5,284 408.5,294 410.5,312 		"/>
		<polyline class="st1" points="303.5,267 296.5,274 287.5,289 283.5,298 283.5,304 		"/>
		<polyline class="st1" points="313.5,259 308.5,262 302.5,273 300.5,280 295.5,292 293.5,300 293.5,304 		"/>
		<polyline class="st1" points="325.5,252 320.5,258 316.5,269 311.5,285 307.5,304 		"/>
		<polyline class="st1" points="335.5,252 332.5,254 330.5,260 326.5,275 322.5,296 322.5,300 		"/>
		<polyline class="st1" points="343.5,253 341.5,254 338.5,259 336.5,265 333.5,293 333.5,305 		"/>
		<polyline class="st1" points="349.5,253 347.5,253 346.5,260 343.5,298 		"/>
		<polyline class="st1" points="363.5,254 364.5,252 365.5,258 360.5,290 358.5,298 358.5,302 		"/>
		<line class="st1" x1="378.5" y1="254" x2="374.5" y2="304"/>
		<polyline class="st1" points="386.5,262 385.5,263 385.5,266 388.5,307 		"/>
		<polyline class="st1" points="401.5,270 402.5,273 403.5,285 403.5,304 405.5,310 		"/>
		<polyline class="st1" points="411.5,285 414.5,292 415.5,298 415.5,308 		"/>
		<polyline class="st1" points="332.5,318 332.5,319 330.5,320 330.5,325 331.5,326 333.5,326 335.5,324 335.5,320 334.5,319 
			332.5,319 331.5,322 331.5,324 334.5,324 335.5,320 333.5,319 331.5,321 331.5,323 332.5,324 334.5,322 334.5,321 333.5,323 
			332.5,323 333.5,323 334.5,320 331.5,321 331.5,322 332.5,322 334.5,321 334.5,320 332.5,320 331.5,321 		"/>
		<polyline class="st1" points="365.5,318 364.5,323 365.5,324 367.5,324 367.5,323 368.5,323 368.5,320 367.5,319 364.5,323 
			364.5,325 365.5,326 367.5,326 368.5,324 368.5,321 366.5,320 364.5,321 363.5,323 363.5,325 364.5,326 366.5,326 368.5,322 
			367.5,321 365.5,321 363.5,323 364.5,325 367.5,323 367.5,321 366.5,320 364.5,320 362.5,322 362.5,323 364.5,324 366.5,323 
			366.5,321 365.5,320 363.5,321 362.5,324 364.5,324 366.5,321 366.5,320 364.5,319 362.5,322 363.5,323 365.5,323 366.5,322 
			366.5,319 365.5,319 363.5,321 363.5,323 365.5,323 367.5,321 367.5,320 366.5,320 365.5,324 366.5,324 368.5,322 366.5,320 
			365.5,320 365.5,321 		"/>
		<polyline class="st1" points="348.5,332 347.5,336 344.5,342 349.5,342 351.5,343 		"/>
		<polyline class="st1" points="333.5,349 333.5,350 339.5,354 344.5,356 356.5,357 366.5,352 369.5,348 		"/>
		<polyline class="st1" points="388.5,336 386.5,343 386.5,344 387.5,343 		"/>
		<line class="st1" x1="392.5" y1="336" x2="392.5" y2="343"/>
		<polyline class="st1" points="305.5,334 305.5,341 306.5,341 		"/>
		<polyline class="st1" points="311.5,335 310.5,339 311.5,342 		"/>
		<polyline class="st1" points="369.5,304 368.5,305 376.5,305 378.5,306 		"/>
		<polyline class="st1" points="329.5,304 322.5,306 320.5,307 320.5,308 		"/>
		<polyline class="st1" points="322.5,382 320.5,383 318.5,394 318.5,426 319.5,428 		"/>
		<polyline class="st1" points="330.5,383 331.5,387 331.5,394 327.5,421 324.5,431 		"/>
		<polyline class="st1" points="386.5,388 385.5,393 387.5,407 392.5,429 		"/>
		<polyline class="st1" points="377.5,389 377.5,409 382.5,428 386.5,438 		"/>
		<polyline class="st1" points="337.5,514 331.5,527 327.5,532 317.5,541 315.5,541 315.5,540 		"/>
		<polyline class="st1" points="381.5,516 379.5,515 384.5,522 396.5,535 396.5,536 		"/>
		<line class="st1" x1="353.5" y1="515" x2="354.5" y2="548"/>
		<polyline class="st1" points="357.5,515 357.5,523 358.5,528 358.5,543 357.5,544 353.5,545 		"/>
		<polyline class="st1" points="328.5,587 332.5,588 343.5,588 338.5,590 329.5,592 329.5,593 335.5,593 340.5,594 340.5,595 
			331.5,597 335.5,598 		"/>
		<polyline class="st1" points="383.5,590 395.5,590 396.5,591 384.5,597 394.5,597 392.5,599 388.5,600 390.5,601 393.5,601 		"/>
		<line class="st1" x1="292.5" y1="298" x2="291.5" y2="309"/>
		<polyline class="st1" points="324.5,509 321.5,518 320.5,518 		"/>
		<polyline class="st1" points="395.5,514 396.5,522 397.5,523 		"/>
		<polyline class="st1" points="319.5,431 318.5,432 317.5,430 		"/>
		<polyline class="st1" points="318.5,426 317.5,426 317.5,431 316.5,434 315.5,482 316.5,485 319.5,487 321.5,486 		"/>
		<polyline class="st1" points="395.5,435 397.5,457 398.5,459 398.5,471 399.5,473 399.5,492 395.5,495 393.5,494 		"/>
		<polyline class="st1" points="401.5,654 400.5,653 392.5,656 387.5,664 384.5,676 384.5,683 389.5,691 394.5,693 400.5,693 
			406.5,690 410.5,687 414.5,680 418.5,664 416.5,655 413.5,651 409.5,650 403.5,651 397.5,656 391.5,666 387.5,684 387.5,693 
			390.5,697 395.5,699 401.5,699 406.5,696 410.5,691 414.5,676 414.5,668 413.5,662 410.5,657 407.5,655 401.5,654 		"/>
		<polyline class="st1" points="331.5,654 328.5,654 312.5,672 309.5,680 311.5,695 314.5,697 327.5,697 329.5,696 334.5,691 
			337.5,686 341.5,677 342.5,660 340.5,653 339.5,652 330.5,652 323.5,654 319.5,657 315.5,664 312.5,672 310.5,681 311.5,689 
			314.5,694 321.5,695 328.5,692 335.5,686 339.5,679 341.5,673 341.5,666 337.5,658 333.5,655 332.5,655 		"/>
		<polyline class="st1" points="325.5,260 319.5,274 313.5,297 313.5,303 		"/>
		<polyline class="st1" points="332.5,255 332.5,253 331.5,253 324.5,266 316.5,285 313.5,295 313.5,300 		"/>
		<polyline class="st1" points="327.5,252 325.5,253 313.5,267 307.5,278 297.5,302 297.5,304 		"/>
		<polyline class="st1" points="323.5,256 316.5,263 301.5,285 297.5,295 295.5,303 		"/>
		<polyline class="st1" points="317.5,258 312.5,261 304.5,269 296.5,279 290.5,288 287.5,294 282.5,305 282.5,306 283.5,306 		"/>
		<polyline class="st1" points="314.5,257 307.5,262 296.5,275 290.5,284 288.5,291 289.5,293 		"/>
		<polyline class="st1" points="341.5,247 340.5,247 337.5,294 		"/>
		<polyline class="st1" points="353.5,244 350.5,253 347.5,278 346.5,295 		"/>
		<polyline class="st1" points="361.5,249 358.5,260 356.5,286 355.5,293 354.5,295 		"/>
		<polyline class="st1" points="366.5,250 362.5,269 360.5,298 		"/>
		<polyline class="st1" points="371.5,256 371.5,278 370.5,298 369.5,302 		"/>
		<polyline class="st1" points="379.5,254 376.5,266 376.5,289 377.5,299 		"/>
		<polyline class="st1" points="387.5,257 385.5,259 385.5,275 387.5,293 386.5,299 		"/>
		<polyline class="st1" points="392.5,260 391.5,261 388.5,271 388.5,293 389.5,294 390.5,302 		"/>
		<polyline class="st1" points="392.5,266 391.5,266 394.5,292 395.5,311 		"/>
		<polyline class="st1" points="397.5,262 397.5,270 402.5,292 402.5,309 401.5,313 		"/>
		<polyline class="st1" points="403.5,270 403.5,268 403.5,270 405.5,275 408.5,291 410.5,307 410.5,315 		"/>
		<polyline class="st1" points="413.5,286 412.5,286 413.5,296 413.5,312 		"/>
		<polyline class="st1" points="322.5,261 317.5,266 302.5,290 300.5,299 		"/>
		<polyline class="st1" points="332.5,252 327.5,257 316.5,281 315.5,291 316.5,293 		"/>
		<polyline class="st1" points="339.5,257 333.5,264 326.5,283 324.5,294 324.5,301 325.5,302 		"/>
		<polyline class="st1" points="355.5,253 353.5,256 347.5,282 346.5,289 346.5,302 		"/>
		<polyline class="st1" points="359.5,255 358.5,257 354.5,298 		"/>
		<polyline class="st1" points="370.5,255 372.5,254 372.5,284 371.5,296 		"/>
		<polyline class="st1" points="342.5,267 338.5,294 338.5,299 		"/>
		<polyline class="st1" points="373.5,260 371.5,266 373.5,288 375.5,297 		"/>
		<polyline class="st1" points="384.5,261 383.5,263 382.5,271 382.5,283 385.5,304 		"/>
		<polyline class="st1" points="385.5,267 382.5,269 381.5,275 381.5,285 384.5,293 387.5,298 		"/>
		<polyline class="st1" points="397.5,269 398.5,283 401.5,305 		"/>
	</g>
</g>
<g id="_x31_70-물웅덩이-1">
	<g>
		<polyline class="st1" points="503.5,712 490.5,712 473.5,709 469.5,707 459.5,699 458.5,697 458.5,690 460.5,683 466.5,678 
			477.5,673 491.5,670 516.5,669 529.5,673 536.5,678 541.5,683 543.5,689 540.5,695 532.5,699 523.5,702 484.5,706 476.5,704 
			470.5,699 469.5,695 470.5,688 481.5,678 		"/>
		<polyline class="st1" points="479.5,695 484.5,686 501.5,683 520.5,691 524.5,694 		"/>
		<polyline class="st1" points="478.5,695 479.5,690 492.5,682 508.5,679 521.5,680 531.5,683 537.5,689 539.5,694 538.5,700 
			534.5,703 528.5,706 520.5,707 		"/>
		<polyline class="st1" points="512.5,642 510.5,643 506.5,651 506.5,655 507.5,658 509.5,658 511.5,654 511.5,642 512.5,640 		"/>
		<polyline class="st1" points="521.5,640 519.5,644 517.5,652 518.5,657 521.5,657 523.5,649 522.5,639 		"/>
	</g>
</g>
<g id="_x31_70-물웅덩이-2">
	<g>
		<polyline class="st1" points="227.5,713 134.5,714 106.5,712 87.5,710 56.5,705 48.5,703 36.5,697 34.5,691 41.5,684 56.5,678 
			77.5,673 103.5,669 152.5,668 178.5,671 207.5,676 227.5,681 242.5,686 249.5,693 247.5,701 239.5,705 228.5,708 201.5,713 
			177.5,715 125.5,716 101.5,712 81.5,707 69.5,703 64.5,699 64.5,695 73.5,690 86.5,686 104.5,684 125.5,683 173.5,683 198.5,686 
			218.5,691 222.5,694 222.5,698 211.5,702 195.5,706 169.5,708 		"/>
		<polyline class="st1" points="176.5,708 167.5,709 99.5,711 86.5,709 73.5,703 71.5,699 77.5,695 88.5,693 104.5,692 135.5,692 		
			"/>
		<polyline class="st1" points="177.5,716 141.5,718 85.5,719 54.5,713 42.5,707 37.5,702 38.5,695 49.5,688 69.5,682 95.5,678 
			127.5,675 157.5,675 183.5,678 205.5,683 222.5,689 234.5,696 236.5,700 234.5,705 225.5,710 199.5,716 175.5,720 141.5,722 
			130.5,721 122.5,717 122.5,712 129.5,707 144.5,704 162.5,702 188.5,702 194.5,705 195.5,707 		"/>
		<polyline class="st1" points="45.5,649 44.5,661 45.5,665 49.5,667 50.5,666 50.5,661 44.5,649 		"/>
		<polyline class="st1" points="60.5,655 60.5,654 59.5,654 59.5,664 60.5,666 63.5,666 64.5,665 64.5,659 63.5,659 60.5,656 
			60.5,655 		"/>
	</g>
</g>
<g id="_x31_70-비">
	<g>
		<polyline class="st1" points="54.5,51 51.5,61 49.5,99 48.5,103 48.5,124 		"/>
		<polyline class="st1" points="135.5,42 133.5,48 131.5,61 131.5,80 133.5,91 134.5,93 		"/>
		<polyline class="st1" points="60.5,180 58.5,193 57.5,207 57.5,225 52.5,313 48.5,352 49.5,357 		"/>
		<polyline class="st1" points="138.5,314 135.5,321 134.5,331 136.5,369 138.5,386 141.5,402 		"/>
		<polyline class="st1" points="83.5,429 80.5,432 79.5,443 77.5,453 69.5,523 68.5,556 		"/>
		<polyline class="st1" points="395.5,21 392.5,42 392.5,69 394.5,77 		"/>
		<polyline class="st1" points="463.5,29 466.5,60 472.5,100 476.5,135 477.5,137 		"/>
		<polyline class="st1" points="237.5,22 234.5,33 232.5,53 234.5,58 		"/>
		<polyline class="st1" points="508.5,240 507.5,245 506.5,264 506.5,294 502.5,367 502.5,386 		"/>
		<polyline class="st1" points="459.5,321 456.5,360 453.5,380 454.5,385 		"/>
		<polyline class="st1" points="501.5,446 501.5,460 503.5,475 503.5,511 504.5,516 		"/>
		<polyline class="st1" points="134.5,451 133.5,464 133.5,508 134.5,512 134.5,521 135.5,528 		"/>
		<polyline class="st1" points="93.5,46 93.5,80 91.5,130 		"/>
		<polyline class="st1" points="99.5,286 95.5,309 90.5,370 90.5,391 		"/>
		<polyline class="st1" points="41.5,409 36.5,440 33.5,525 31.5,542 		"/>
		<polyline class="st1" points="433.5,34 431.5,46 433.5,112 		"/>
		<polyline class="st1" points="503.5,99 503.5,171 504.5,193 509.5,232 509.5,241 		"/>
		<polyline class="st1" points="227.5,426 224.5,444 222.5,500 		"/>
		<line class="st1" x1="181.5" y1="420" x2="179.5" y2="459"/>
		<polyline class="st1" points="273.5,502 269.5,530 266.5,559 		"/>
		<polyline class="st1" points="182.5,533 180.5,549 179.5,570 		"/>
		<polyline class="st1" points="146.5,235 144.5,253 144.5,277 		"/>
		<polyline class="st1" points="347.5,21 346.5,21 342.5,49 		"/>
		<polyline class="st1" points="472.5,566 470.5,572 470.5,604 		"/>
		<line class="st1" x1="100.5" y1="549" x2="100.5" y2="595"/>
		<polyline class="st1" points="32.5,575 28.5,586 24.5,608 		"/>
	</g>
</g>
<g id="_x31_70-우산">
	<g>
		<polyline class="st1" points="98.5,226 92.5,222 93.5,216 105.5,193 116.5,177 131.5,158 149.5,140 169.5,123 192.5,106 219.5,92 
			247.5,81 274.5,77 299.5,77 322.5,79 345.5,85 367.5,94 385.5,105 413.5,131 432.5,152 441.5,165 454.5,188 461.5,205 469.5,232 
			470.5,240 		"/>
		<polyline class="st1" points="96.5,231 96.5,230 103.5,225 120.5,210 132.5,202 170.5,180 175.5,176 180.5,175 181.5,181 
			184.5,188 190.5,209 196.5,237 198.5,237 199.5,232 210.5,221 225.5,209 233.5,204 236.5,203 238.5,201 250.5,194 255.5,192 
			257.5,190 261.5,189 263.5,187 269.5,187 270.5,191 271.5,192 271.5,194 273.5,198 274.5,204 288.5,227 292.5,232 296.5,235 
			300.5,236 303.5,232 303.5,230 305.5,229 312.5,215 312.5,213 318.5,203 321.5,201 322.5,199 336.5,186 343.5,183 347.5,183 
			350.5,189 358.5,211 362.5,218 370.5,229 371.5,229 372.5,231 373.5,231 377.5,235 378.5,235 382.5,231 388.5,223 392.5,215 
			399.5,206 403.5,202 407.5,200 415.5,193 415.5,192 416.5,192 416.5,190 417.5,190 420.5,195 422.5,201 426.5,207 431.5,212 
			440.5,224 456.5,240 458.5,243 		"/>
		<polyline class="st1" points="458.5,244 460.5,245 464.5,244 468.5,242 470.5,240 470.5,239 		"/>
		<polyline class="st1" points="178.5,176 179.5,173 182.5,171 200.5,149 218.5,132 229.5,123 254.5,107 262.5,103 280.5,95 
			288.5,94 		"/>
		<polyline class="st1" points="294.5,90 289.5,96 285.5,105 282.5,118 275.5,150 274.5,161 272.5,169 271.5,180 271.5,193 		"/>
		<polyline class="st1" points="300.5,88 304.5,94 328.5,143 342.5,176 345.5,186 345.5,189 		"/>
		<polyline class="st1" points="306.5,87 316.5,88 326.5,93 338.5,100 353.5,111 367.5,125 390.5,152 403.5,172 415.5,187 		"/>
		<polyline class="st1" points="290.5,93 289.5,85 294.5,70 298.5,63 307.5,55 314.5,50 315.5,50 314.5,55 314.5,67 316.5,78 
			318.5,82 318.5,86 319.5,89 		"/>
		<polyline class="st1" points="216.5,219 214.5,246 213.5,285 213.5,313 214.5,318 214.5,326 215.5,326 		"/>
		<polyline class="st1" points="239.5,206 238.5,208 238.5,228 239.5,245 239.5,263 238.5,277 238.5,343 		"/>
		<polyline class="st1" points="290.5,91 292.5,66 295.5,62 306.5,60 307.5,59 310.5,59 313.5,65 314.5,87 314.5,59 312.5,59 
			311.5,58 297.5,59 294.5,61 293.5,64 290.5,90 289.5,92 289.5,86 291.5,74 296.5,60 297.5,59 314.5,58 315.5,59 316.5,92 		"/>
		<polyline class="st1" points="213.5,325 214.5,326 214.5,330 213.5,332 209.5,334 206.5,334 201.5,338 201.5,341 204.5,345 
			208.5,347 211.5,347 		"/>
		<polyline class="st1" points="211.5,344 210.5,344 212.5,347 219.5,347 225.5,344 230.5,340 233.5,340 		"/>
	</g>
</g>
</svg>
