<?xml version="1.0" encoding="utf-8"?>
<!-- Generator: Adobe Illustrator 26.2.1, SVG Export Plug-In . SVG Version: 6.00 Build 0)  -->
<svg version="1.1" xmlns="http://www.w3.org/2000/svg" xmlns:xlink="http://www.w3.org/1999/xlink" x="0px" y="0px"
	 viewBox="0 0 535 757" style="enable-background:new 0 0 535 757;" xml:space="preserve">
<style type="text/css">
	.st0{fill:#FFFFFF;}
	.st1{fill:none;stroke:#000000;stroke-width:2;}
</style>
<g id="레이어_1" xmlns:ev="http://www.w3.org/2001/xml-events">
	<rect class="st0" width="535" height="757"/>
	<polyline class="st1" points="363.5,294 360.5,298 360.5,299 360.5,298 358.5,296 358.5,280 357.5,278 356.5,268 354.5,265 
		355.5,261 357.5,258 360.5,257 362.5,255 368.5,253 375.5,253 379.5,255 381.5,258 384.5,279 384.5,289 382.5,292 382.5,294 
		378.5,293 371.5,293 371.5,289 	"/>
	<polyline class="st1" points="369.5,269 368.5,267 367.5,267 364.5,272 362.5,280 363.5,281 373.5,280 	"/>
	<polyline class="st1" points="366.5,256 364.5,256 364.5,249 363.5,248 362.5,244 368.5,244 369.5,248 368.5,249 368.5,256 
		367.5,257 367.5,261 368.5,261 369.5,258 370.5,258 	"/>
	<polyline class="st1" points="361.5,294 361.5,293 363.5,293 364.5,294 373.5,293 373.5,294 375.5,294 381.5,292 	"/>
	<rect class="st0" width="535" height="757"/>
</g>
<g id="_x31_76-건물">
	<g>
		<polyline class="st1" points="14.5,194 12.5,190 9.5,190 9.5,191 16.5,190 21.5,187 24.5,187 24.5,186 28.5,186 40.5,180 
			62.5,173 74.5,171 85.5,170 92.5,173 95.5,176 96.5,176 96.5,179 97.5,179 98.5,181 94.5,209 93.5,237 97.5,292 97.5,324 
			95.5,352 91.5,373 90.5,385 90.5,393 92.5,406 94.5,428 94.5,439 93.5,448 91.5,456 89.5,460 89.5,462 		"/>
		<polyline class="st1" points="92.5,183 93.5,177 97.5,179 97.5,182 98.5,183 100.5,183 120.5,176 137.5,168 147.5,165 172.5,164 
			172.5,165 169.5,168 169.5,172 171.5,173 169.5,181 167.5,198 167.5,220 166.5,234 166.5,322 165.5,329 165.5,373 164.5,384 
			165.5,415 161.5,443 161.5,466 160.5,462 		"/>
		<polyline class="st1" points="8.5,223 9.5,220 74.5,213 86.5,215 98.5,220 100.5,220 		"/>
		<polyline class="st1" points="3.5,267 5.5,260 16.5,258 67.5,259 83.5,255 		"/>
		<polyline class="st1" points="12.5,303 6.5,299 18.5,294 49.5,288 70.5,287 105.5,289 113.5,287 		"/>
		<polyline class="st1" points="7.5,347 4.5,342 11.5,341 51.5,343 77.5,338 83.5,338 82.5,344 		"/>
		<polyline class="st1" points="11.5,386 29.5,379 51.5,377 84.5,378 91.5,379 92.5,381 		"/>
		<polyline class="st1" points="18.5,413 15.5,411 18.5,412 45.5,414 92.5,413 		"/>
		<polyline class="st1" points="100.5,218 98.5,217 100.5,215 117.5,214 146.5,214 154.5,215 156.5,218 156.5,220 		"/>
		<polyline class="st1" points="101.5,245 97.5,233 102.5,235 128.5,241 156.5,244 160.5,246 161.5,248 		"/>
		<polyline class="st1" points="106.5,283 105.5,275 124.5,269 128.5,267 143.5,264 153.5,265 157.5,268 158.5,272 157.5,274 		"/>
		<polyline class="st1" points="103.5,320 101.5,318 102.5,317 113.5,312 120.5,311 152.5,312 165.5,315 166.5,316 165.5,319 
			155.5,325 		"/>
		<polyline class="st1" points="94.5,354 89.5,352 88.5,350 88.5,347 95.5,341 110.5,337 131.5,336 148.5,336 158.5,340 160.5,345 
			158.5,350 155.5,352 		"/>
		<polyline class="st1" points="95.5,393 92.5,391 92.5,387 93.5,386 101.5,382 116.5,378 133.5,376 146.5,376 153.5,379 156.5,383 
			159.5,385 		"/>
		<polyline class="st1" points="35.5,181 34.5,187 33.5,228 37.5,330 37.5,389 40.5,408 40.5,437 41.5,443 42.5,444 43.5,443 
			47.5,433 		"/>
		<polyline class="st1" points="72.5,186 68.5,189 66.5,204 67.5,246 65.5,274 61.5,309 60.5,354 55.5,394 55.5,412 57.5,420 
			59.5,416 		"/>
		<polyline class="st1" points="123.5,168 122.5,164 120.5,198 121.5,233 120.5,282 117.5,303 109.5,343 106.5,366 106.5,392 
			107.5,416 105.5,430 107.5,398 		"/>
		<polyline class="st1" points="151.5,156 148.5,156 139.5,182 142.5,214 144.5,245 144.5,257 143.5,303 137.5,373 132.5,408 
			133.5,432 131.5,432 132.5,427 135.5,421 		"/>
	</g>
</g>
<g id="_x31_76-풀-1">
	<g>
		<polyline class="st1" points="170.5,567 167.5,566 167.5,548 169.5,531 173.5,508 177.5,500 180.5,500 183.5,511 185.5,523 
			186.5,538 190.5,554 192.5,556 194.5,554 197.5,526 201.5,509 205.5,499 207.5,497 208.5,498 209.5,501 209.5,516 211.5,546 
			213.5,554 214.5,555 215.5,554 218.5,532 221.5,517 225.5,505 230.5,495 235.5,490 242.5,489 244.5,494 246.5,504 250.5,559 
			252.5,566 		"/>
	</g>
</g>
<g id="_x31_76-풀-2">
	<g>
		<polyline class="st1" points="411.5,383 410.5,383 413.5,385 413.5,389 411.5,395 414.5,391 417.5,379 422.5,349 428.5,324 
			431.5,318 433.5,318 435.5,326 436.5,344 436.5,366 434.5,395 435.5,385 440.5,356 444.5,341 452.5,323 454.5,320 455.5,321 
			455.5,323 453.5,354 453.5,380 454.5,383 456.5,381 466.5,349 468.5,348 468.5,365 		"/>
	</g>
</g>
<g id="_x31_76-풀-3">
	<g>
		<polyline class="st1" points="407.5,544 404.5,545 403.5,543 402.5,539 402.5,525 409.5,482 413.5,467 416.5,451 419.5,426 
			419.5,438 421.5,452 437.5,528 438.5,541 437.5,524 437.5,486 439.5,461 442.5,443 446.5,431 452.5,420 454.5,421 457.5,468 
			459.5,483 460.5,502 461.5,506 463.5,528 463.5,535 462.5,534 462.5,511 463.5,494 466.5,470 471.5,446 476.5,429 480.5,419 
			484.5,416 486.5,417 488.5,439 491.5,506 494.5,553 		"/>
	</g>
</g>
<g id="_x31_76-풀-4">
	<g>
		<polyline class="st1" points="16.5,541 12.5,539 11.5,535 11.5,524 15.5,478 17.5,475 19.5,475 21.5,479 27.5,521 29.5,532 
			32.5,541 34.5,513 36.5,503 43.5,480 48.5,468 51.5,458 53.5,455 53.5,521 55.5,543 56.5,543 63.5,497 71.5,467 75.5,454 
			77.5,450 78.5,454 78.5,464 81.5,506 82.5,544 83.5,545 83.5,537 84.5,533 92.5,513 		"/>
	</g>
</g>
<g id="_x31_76-비">
	<g>
		<polyline class="st1" points="43.5,35 39.5,53 39.5,65 42.5,73 44.5,73 45.5,71 46.5,63 51.5,53 51.5,47 50.5,46 54.5,44 		"/>
		<polyline class="st1" points="94.5,36 92.5,36 90.5,55 89.5,76 90.5,82 96.5,90 102.5,64 112.5,38 112.5,31 111.5,28 108.5,30 
			107.5,35 108.5,39 		"/>
		<polyline class="st1" points="157.5,87 153.5,90 153.5,95 155.5,100 159.5,103 165.5,104 168.5,102 175.5,81 176.5,55 174.5,44 
			169.5,40 166.5,42 164.5,51 165.5,53 		"/>
		<polyline class="st1" points="155.5,93 152.5,87 152.5,85 154.5,79 155.5,69 158.5,57 162.5,55 		"/>
		<polyline class="st1" points="208.5,106 207.5,105 207.5,93 206.5,90 206.5,58 209.5,52 211.5,51 218.5,51 222.5,55 222.5,74 
			221.5,75 220.5,79 215.5,85 215.5,86 212.5,87 206.5,94 205.5,99 204.5,99 205.5,97 207.5,96 		"/>
		<polyline class="st1" points="246.5,98 244.5,95 243.5,91 243.5,84 241.5,72 241.5,49 243.5,35 244.5,31 246.5,28 248.5,26 
			253.5,26 259.5,33 260.5,38 260.5,49 257.5,67 257.5,74 254.5,86 252.5,88 250.5,92 250.5,93 251.5,93 		"/>
		<polyline class="st1" points="303.5,87 297.5,86 294.5,80 294.5,75 290.5,67 288.5,53 288.5,46 289.5,40 295.5,28 298.5,26 
			301.5,26 305.5,29 308.5,34 311.5,44 311.5,50 309.5,56 306.5,71 304.5,76 300.5,81 302.5,81 		"/>
		<polyline class="st1" points="334.5,99 331.5,99 329.5,97 328.5,73 330.5,63 340.5,41 342.5,40 345.5,40 347.5,42 353.5,55 
			353.5,66 351.5,77 347.5,86 340.5,94 334.5,97 337.5,95 339.5,95 		"/>
		<polyline class="st1" points="374.5,121 370.5,114 369.5,109 369.5,94 375.5,81 378.5,79 380.5,79 383.5,82 387.5,89 389.5,96 
			389.5,107 379.5,128 378.5,129 376.5,129 375.5,128 375.5,125 378.5,121 		"/>
		<polyline class="st1" points="415.5,71 411.5,78 405.5,67 402.5,59 401.5,53 401.5,41 400.5,38 400.5,34 403.5,27 408.5,23 
			414.5,22 417.5,23 422.5,30 422.5,41 419.5,54 419.5,57 418.5,59 418.5,62 414.5,74 411.5,76 410.5,80 		"/>
		<polyline class="st1" points="282.5,163 278.5,163 278.5,162 280.5,161 280.5,151 278.5,145 276.5,133 276.5,124 278.5,117 
			280.5,114 279.5,112 279.5,113 278.5,112 278.5,113 280.5,110 286.5,107 293.5,107 293.5,110 290.5,117 290.5,120 293.5,128 
			294.5,136 292.5,138 291.5,138 291.5,147 290.5,149 290.5,152 286.5,159 286.5,160 289.5,160 289.5,162 		"/>
		<polyline class="st1" points="370.5,173 366.5,172 366.5,170 358.5,154 357.5,147 354.5,139 354.5,137 356.5,132 357.5,132 
			359.5,130 362.5,130 370.5,134 371.5,136 370.5,173 369.5,176 369.5,173 		"/>
		<polyline class="st1" points="192.5,186 191.5,184 189.5,183 188.5,178 188.5,149 187.5,146 187.5,142 190.5,135 193.5,131 
			196.5,130 202.5,144 204.5,152 204.5,162 203.5,169 201.5,174 200.5,174 200.5,175 197.5,178 197.5,179 195.5,180 191.5,184 
			194.5,184 		"/>
		<polyline class="st1" points="422.5,155 419.5,155 419.5,156 		"/>
		<polyline class="st1" points="418.5,158 416.5,157 416.5,153 415.5,150 414.5,140 414.5,118 416.5,113 418.5,111 422.5,111 
			425.5,116 425.5,127 424.5,130 424.5,134 423.5,136 423.5,152 420.5,157 417.5,157 417.5,156 		"/>
		<polyline class="st1" points="471.5,108 469.5,108 469.5,105 467.5,98 465.5,96 461.5,86 456.5,62 457.5,50 458.5,46 461.5,40 
			463.5,39 466.5,39 469.5,41 472.5,48 472.5,53 473.5,57 473.5,72 472.5,82 473.5,87 475.5,90 476.5,94 476.5,96 473.5,101 
			470.5,104 468.5,109 466.5,112 465.5,112 465.5,111 		"/>
	</g>
</g>
<g id="_x31_76-우산">
	<g>
		<polyline class="st1" points="204.5,239 204.5,238 203.5,238 203.5,235 202.5,234 201.5,226 204.5,215 206.5,212 208.5,203 
			210.5,201 211.5,198 215.5,192 218.5,188 221.5,186 222.5,184 234.5,178 253.5,171 264.5,171 268.5,172 276.5,176 280.5,177 
			289.5,181 293.5,184 302.5,194 309.5,204 315.5,218 311.5,225 		"/>
		<polyline class="st1" points="216.5,224 211.5,226 211.5,225 209.5,225 207.5,227 203.5,228 203.5,229 208.5,227 218.5,225 
			232.5,220 242.5,221 246.5,223 248.5,225 253.5,226 258.5,225 268.5,225 274.5,226 282.5,223 288.5,223 293.5,225 297.5,225 
			309.5,222 307.5,225 		"/>
		<polyline class="st1" points="215.5,198 215.5,193 218.5,196 220.5,200 219.5,208 216.5,214 215.5,218 214.5,224 214.5,226 
			215.5,226 		"/>
		<polyline class="st1" points="229.5,185 228.5,189 233.5,208 234.5,215 234.5,221 232.5,225 230.5,226 230.5,227 		"/>
		<polyline class="st1" points="245.5,183 246.5,176 247.5,176 250.5,179 253.5,187 255.5,197 255.5,215 250.5,228 		"/>
		<polyline class="st1" points="270.5,179 276.5,197 275.5,211 273.5,218 271.5,222 271.5,224 		"/>
		<polyline class="st1" points="292.5,189 294.5,193 294.5,200 293.5,209 290.5,218 289.5,219 		"/>
		<polyline class="st1" points="251.5,235 250.5,236 250.5,226 		"/>
		<polyline class="st1" points="257.5,216 257.5,218 253.5,225 249.5,235 249.5,236 252.5,236 252.5,240 247.5,253 247.5,293 
			248.5,295 248.5,312 247.5,316 247.5,321 248.5,324 248.5,332 249.5,334 255.5,334 256.5,333 263.5,333 266.5,332 274.5,335 
			281.5,335 278.5,335 278.5,332 277.5,330 273.5,327 273.5,325 272.5,325 269.5,306 269.5,293 266.5,282 264.5,279 264.5,239 
			268.5,230 268.5,226 267.5,225 267.5,219 268.5,218 267.5,224 		"/>
	</g>
</g>
<g id="_x31_76-사람">
	<g>
		<polyline class="st1" points="290.5,427 286.5,446 285.5,457 		"/>
		<polyline class="st1" points="333.5,412 333.5,418 342.5,427 363.5,443 		"/>
		<polyline class="st1" points="294.5,241 294.5,238 293.5,236 294.5,260 297.5,264 302.5,264 304.5,263 310.5,259 316.5,253 
			320.5,248 322.5,243 322.5,229 319.5,226 319.5,225 315.5,223 310.5,224 306.5,226 294.5,239 293.5,242 297.5,243 		"/>
		<polyline class="st1" points="301.5,264 300.5,264 302.5,266 304.5,272 304.5,278 303.5,283 306.5,279 		"/>
		<polyline class="st1" points="312.5,262 310.5,262 309.5,261 311.5,262 312.5,266 312.5,279 311.5,280 311.5,283 313.5,278 
			321.5,273 327.5,274 328.5,277 334.5,316 334.5,322 332.5,328 332.5,335 330.5,345 329.5,346 332.5,342 		"/>
		<polyline class="st1" points="309.5,292 309.5,283 307.5,282 305.5,279 299.5,280 296.5,283 294.5,288 294.5,305 295.5,309 
			295.5,323 296.5,328 296.5,344 295.5,347 299.5,341 		"/>
		<polyline class="st1" points="296.5,307 291.5,300 285.5,298 277.5,300 272.5,303 272.5,319 273.5,320 285.5,320 287.5,319 
			293.5,313 294.5,313 293.5,314 294.5,313 294.5,315 		"/>
		<polyline class="st1" points="331.5,294 328.5,286 332.5,281 337.5,279 349.5,277 353.5,277 356.5,278 358.5,280 358.5,286 
			356.5,290 352.5,294 342.5,297 342.5,298 339.5,298 336.5,300 		"/>
		<polyline class="st1" points="296.5,344 297.5,352 297.5,367 296.5,371 297.5,373 299.5,374 303.5,375 308.5,375 316.5,373 
			323.5,370 324.5,368 324.5,363 325.5,359 325.5,351 323.5,349 323.5,348 323.5,352 321.5,356 321.5,360 327.5,362 333.5,366 
			336.5,370 337.5,369 338.5,358 335.5,345 334.5,343 331.5,342 328.5,342 327.5,343 328.5,342 		"/>
		<polyline class="st1" points="296.5,368 294.5,368 294.5,373 292.5,378 291.5,384 285.5,397 284.5,401 284.5,420 285.5,423 
			288.5,427 290.5,427 294.5,424 295.5,421 299.5,416 303.5,408 306.5,394 308.5,391 310.5,384 310.5,375 308.5,374 308.5,373 
			310.5,372 		"/>
		<polyline class="st1" points="318.5,372 315.5,372 315.5,377 318.5,389 320.5,402 322.5,407 331.5,419 335.5,421 335.5,422 
			336.5,421 339.5,413 339.5,396 337.5,386 337.5,382 334.5,376 334.5,368 332.5,366 330.5,366 330.5,367 		"/>
		<polyline class="st1" points="301.5,249 303.5,241 305.5,241 306.5,243 307.5,250 308.5,250 309.5,247 		"/>
		<polyline class="st1" points="303.5,255 303.5,253 300.5,252 302.5,253 303.5,258 305.5,257 313.5,248 314.5,249 		"/>
	</g>
</g>
</svg>
