<?xml version="1.0" encoding="utf-8"?>
<!-- Generator: Adobe Illustrator 26.2.1, SVG Export Plug-In . SVG Version: 6.00 Build 0)  -->
<svg version="1.1" xmlns="http://www.w3.org/2000/svg" xmlns:xlink="http://www.w3.org/1999/xlink" x="0px" y="0px"
	 viewBox="0 0 535 757" style="enable-background:new 0 0 535 757;" xml:space="preserve">
<style type="text/css">
	.st0{fill:#FFFFFF;}
	.st1{fill:#FFFFFF;stroke:#000000;stroke-width:2;}
	.st2{fill:none;stroke:#000000;stroke-width:2;}
</style>
<g id="레이어_1" xmlns:ev="http://www.w3.org/2001/xml-events">
	<rect class="st0" width="535" height="757"/>
	<rect class="st1" width="535" height="757"/>
</g>
<g id="_x31_78-비">
	<g>
		<polyline class="st2" points="50.5,63 43.5,57 51.5,96 56.5,126 62.5,150 69.5,166 		"/>
		<polyline class="st2" points="133.5,62 127.5,64 119.5,86 114.5,116 112.5,137 114.5,165 119.5,177 121.5,178 		"/>
		<polyline class="st2" points="196.5,48 192.5,54 187.5,70 181.5,108 179.5,135 182.5,153 184.5,156 		"/>
		<polyline class="st2" points="261.5,66 252.5,75 241.5,103 236.5,127 235.5,136 		"/>
		<polyline class="st2" points="309.5,53 305.5,73 294.5,114 288.5,141 286.5,158 		"/>
		<polyline class="st2" points="359.5,54 341.5,95 332.5,121 331.5,133 		"/>
		<polyline class="st2" points="416.5,42 411.5,66 403.5,92 400.5,111 		"/>
		<polyline class="st2" points="445.5,58 434.5,67 414.5,97 388.5,146 		"/>
		<polyline class="st2" points="30.5,219 16.5,253 23.5,259 		"/>
		<polyline class="st2" points="75.5,209 65.5,242 65.5,246 72.5,254 79.5,255 		"/>
		<polyline class="st2" points="119.5,239 111.5,249 111.5,258 119.5,257 123.5,254 		"/>
		<polyline class="st2" points="165.5,240 163.5,240 162.5,243 162.5,244 165.5,244 177.5,236 		"/>
		<polyline class="st2" points="203.5,261 207.5,262 217.5,257 225.5,248 		"/>
		<polyline class="st2" points="254.5,240 255.5,244 256.5,245 263.5,244 		"/>
		<polyline class="st2" points="291.5,236 291.5,241 293.5,242 299.5,243 306.5,239 		"/>
		<polyline class="st2" points="415.5,198 406.5,213 401.5,223 404.5,222 406.5,219 		"/>
		<polyline class="st2" points="383.5,201 361.5,202 347.5,202 344.5,201 		"/>
		<polyline class="st2" points="92.5,207 95.5,209 100.5,210 117.5,210 122.5,208 		"/>
		<polyline class="st2" points="239.5,201 258.5,208 262.5,208 		"/>
		<line class="st2" x1="415.5" y1="209" x2="421.5" y2="219"/>
		<polyline class="st2" points="310.5,133 304.5,129 301.5,141 298.5,162 301.5,186 		"/>
		<polyline class="st2" points="372.5,128 363.5,134 349.5,159 341.5,181 338.5,206 342.5,219 		"/>
		<polyline class="st2" points="432.5,113 423.5,122 412.5,144 403.5,174 400.5,195 402.5,210 403.5,213 410.5,216 		"/>
		<polyline class="st2" points="471.5,107 469.5,109 466.5,115 460.5,132 451.5,166 447.5,196 448.5,215 454.5,219 		"/>
		<polyline class="st2" points="497.5,119 493.5,122 487.5,130 477.5,147 462.5,181 453.5,209 451.5,228 455.5,214 460.5,188 
			463.5,157 464.5,134 463.5,125 457.5,119 440.5,128 417.5,154 396.5,181 381.5,197 374.5,201 373.5,199 		"/>
		<polyline class="st2" points="371.5,123 355.5,128 333.5,144 314.5,164 304.5,177 302.5,181 		"/>
		<polyline class="st2" points="302.5,107 290.5,112 268.5,136 249.5,167 241.5,185 237.5,198 		"/>
		<polyline class="st2" points="283.5,78 272.5,84 261.5,95 243.5,119 219.5,155 202.5,184 		"/>
		<polyline class="st2" points="253.5,68 241.5,73 226.5,83 218.5,90 204.5,104 179.5,132 168.5,146 		"/>
		<polyline class="st2" points="187.5,61 174.5,64 151.5,80 121.5,108 96.5,134 		"/>
		<polyline class="st2" points="118.5,50 103.5,60 72.5,89 32.5,138 		"/>
		<polyline class="st2" points="79.5,46 79.5,47 68.5,58 48.5,86 34.5,111 28.5,125 26.5,134 26.5,138 		"/>
		<polyline class="st2" points="191.5,35 186.5,36 175.5,48 161.5,67 141.5,107 		"/>
		<polyline class="st2" points="261.5,59 254.5,60 242.5,71 224.5,95 216.5,111 214.5,121 		"/>
		<polyline class="st2" points="290.5,101 274.5,107 256.5,127 245.5,151 243.5,158 		"/>
	</g>
</g>
<g id="_x31_78-사람">
	<g>
		<polyline class="st2" points="247.5,322 249.5,309 247.5,305 239.5,305 225.5,312 208.5,324 192.5,343 179.5,366 173.5,389 
			175.5,409 184.5,419 188.5,420 211.5,418 241.5,401 270.5,377 294.5,350 310.5,324 313.5,303 299.5,292 274.5,294 253.5,304 
			239.5,313 		"/>
		<polyline class="st2" points="211.5,349 208.5,346 205.5,346 210.5,347 		"/>
		<polyline class="st2" points="254.5,329 251.5,327 250.5,328 248.5,336 		"/>
		<polyline class="st2" points="237.5,351 234.5,351 233.5,352 236.5,355 		"/>
		<polyline class="st2" points="200.5,373 195.5,383 202.5,390 210.5,394 219.5,394 222.5,393 240.5,383 260.5,364 279.5,344 		"/>
		<line class="st2" x1="194.5" y1="450" x2="191.5" y2="444"/>
		<polyline class="st2" points="188.5,420 173.5,429 167.5,436 159.5,453 157.5,469 162.5,480 169.5,485 176.5,485 		"/>
		<polyline class="st2" points="254.5,393 255.5,400 256.5,401 258.5,416 255.5,439 243.5,491 		"/>
		<line class="st2" x1="179.5" y1="460" x2="180.5" y2="447"/>
		<polyline class="st2" points="182.5,427 178.5,426 175.5,428 167.5,438 162.5,453 158.5,475 158.5,496 162.5,511 168.5,520 
			172.5,522 		"/>
		<polyline class="st2" points="252.5,391 251.5,406 254.5,421 255.5,431 256.5,465 255.5,473 253.5,478 253.5,480 251.5,484 
			243.5,495 227.5,501 216.5,503 175.5,515 166.5,521 166.5,522 		"/>
		<polyline class="st2" points="166.5,518 163.5,518 161.5,521 160.5,538 157.5,563 157.5,570 158.5,571 170.5,572 186.5,568 
			202.5,562 203.5,559 202.5,542 195.5,506 193.5,503 190.5,506 		"/>
		<polyline class="st2" points="174.5,558 165.5,558 160.5,563 157.5,568 151.5,580 149.5,593 151.5,602 159.5,605 172.5,601 
			187.5,589 199.5,574 206.5,560 205.5,549 195.5,545 180.5,549 165.5,561 157.5,572 156.5,577 		"/>
		<line class="st2" x1="225.5" y1="518" x2="221.5" y2="518"/>
		<polyline class="st2" points="231.5,496 231.5,495 229.5,496 226.5,502 224.5,511 223.5,549 224.5,558 226.5,564 229.5,563 
			232.5,560 237.5,557 244.5,556 256.5,550 261.5,545 264.5,539 264.5,531 256.5,508 250.5,500 244.5,496 239.5,496 237.5,500 		"/>
		<polyline class="st2" points="244.5,547 232.5,559 228.5,566 224.5,580 224.5,592 230.5,596 242.5,591 256.5,576 267.5,558 
			271.5,543 268.5,532 253.5,527 233.5,528 215.5,531 		"/>
		<line class="st2" x1="255.5" y1="425" x2="255.5" y2="424"/>
		<polyline class="st2" points="255.5,416 252.5,419 251.5,419 252.5,419 263.5,408 266.5,406 300.5,370 309.5,362 329.5,341 
			333.5,339 334.5,340 		"/>
		<polyline class="st2" points="250.5,455 245.5,456 244.5,454 247.5,449 271.5,431 289.5,420 306.5,408 334.5,386 357.5,365 
			357.5,364 350.5,364 347.5,363 333.5,355 317.5,355 311.5,353 309.5,350 309.5,346 317.5,330 332.5,318 346.5,313 358.5,311 
			370.5,311 376.5,314 378.5,320 374.5,329 367.5,341 358.5,352 350.5,360 343.5,365 328.5,372 		"/>
		<polyline class="st2" points="172.5,442 167.5,438 157.5,392 152.5,375 147.5,364 139.5,351 130.5,343 124.5,343 123.5,344 		"/>
		<polyline class="st2" points="154.5,450 139.5,453 128.5,457 130.5,455 132.5,455 132.5,454 126.5,450 115.5,434 109.5,421 
			95.5,381 90.5,371 83.5,363 80.5,362 79.5,364 82.5,366 88.5,364 112.5,347 127.5,339 144.5,332 141.5,333 133.5,340 131.5,340 
			130.5,338 132.5,323 132.5,315 130.5,309 124.5,307 112.5,310 82.5,329 71.5,341 65.5,350 63.5,362 71.5,369 87.5,370 107.5,363 
			125.5,349 135.5,334 135.5,320 122.5,310 107.5,310 85.5,323 80.5,327 		"/>
		<line class="st2" x1="118.5" y1="343" x2="123.5" y2="343"/>
		<polyline class="st2" points="157.5,324 154.5,323 157.5,330 163.5,342 169.5,350 175.5,356 180.5,357 183.5,355 		"/>
		<polyline class="st2" points="187.5,309 186.5,309 186.5,324 189.5,331 193.5,335 196.5,336 198.5,334 		"/>
		<polyline class="st2" points="199.5,297 197.5,299 197.5,306 201.5,315 209.5,322 214.5,322 215.5,321 		"/>
		<polyline class="st2" points="219.5,284 217.5,286 216.5,289 216.5,304 218.5,312 220.5,316 224.5,316 		"/>
		<polyline class="st2" points="234.5,283 232.5,291 232.5,299 234.5,304 238.5,308 240.5,309 243.5,309 		"/>
		<polyline class="st2" points="253.5,278 250.5,287 248.5,297 248.5,302 250.5,304 252.5,304 		"/>
		<polyline class="st2" points="272.5,270 263.5,290 261.5,297 261.5,300 263.5,300 264.5,299 		"/>
		<polyline class="st2" points="293.5,264 291.5,266 280.5,283 276.5,291 275.5,295 277.5,295 		"/>
		<polyline class="st2" points="305.5,268 303.5,269 299.5,273 282.5,298 282.5,300 283.5,299 		"/>
		<polyline class="st2" points="312.5,278 311.5,278 300.5,290 296.5,296 295.5,299 		"/>
		<polyline class="st2" points="311.5,294 295.5,306 294.5,309 		"/>
		<polyline class="st2" points="311.5,305 307.5,307 299.5,317 		"/>
		<polyline class="st2" points="317.5,311 295.5,330 292.5,334 295.5,332 		"/>
		<polyline class="st2" points="327.5,317 322.5,320 315.5,326 304.5,337 		"/>
		<polyline class="st2" points="226.5,360 226.5,357 228.5,354 232.5,352 237.5,347 239.5,347 237.5,348 233.5,353 233.5,354 
			235.5,354 244.5,347 236.5,355 233.5,360 242.5,348 241.5,351 		"/>
	</g>
</g>
<g id="_x31_78-우산">
	<g>
		<polyline class="st2" points="189.5,213 152.5,211 127.5,214 84.5,232 76.5,233 		"/>
		<polyline class="st2" points="116.5,347 110.5,347 106.5,344 105.5,342 105.5,331 107.5,323 110.5,316 112.5,308 118.5,291 
			118.5,283 120.5,279 127.5,272 130.5,270 136.5,269 140.5,266 139.5,266 139.5,267 139.5,266 		"/>
		<polyline class="st2" points="140.5,271 137.5,271 136.5,272 134.5,271 130.5,271 108.5,278 78.5,285 64.5,285 51.5,279 49.5,277 
			49.5,269 50.5,265 56.5,254 62.5,245 65.5,242 87.5,228 95.5,225 98.5,225 105.5,223 113.5,219 119.5,217 150.5,217 161.5,215 
			165.5,215 173.5,216 184.5,219 194.5,220 226.5,221 245.5,224 255.5,228 268.5,230 280.5,230 285.5,231 300.5,235 308.5,238 
			311.5,243 311.5,256 308.5,260 304.5,262 298.5,267 288.5,273 274.5,276 241.5,276 235.5,274 219.5,274 203.5,276 178.5,276 
			174.5,275 162.5,275 144.5,277 140.5,277 137.5,276 115.5,276 		"/>
	</g>
</g>
</svg>
