<?xml version="1.0" encoding="utf-8"?>
<!-- Generator: Adobe Illustrator 26.2.1, SVG Export Plug-In . SVG Version: 6.00 Build 0)  -->
<svg version="1.1" xmlns="http://www.w3.org/2000/svg" xmlns:xlink="http://www.w3.org/1999/xlink" x="0px" y="0px"
	 viewBox="0 0 535 757" style="enable-background:new 0 0 535 757;" xml:space="preserve">
<style type="text/css">
	.st0{fill:#FFFFFF;}
	.st1{fill:none;stroke:#000000;stroke-width:2;}
</style>
<g id="레이어_1" xmlns:ev="http://www.w3.org/2001/xml-events">
	<rect class="st0" width="535" height="757"/>
	<polyline class="st1" points="107.5,458 121.5,458 134.5,457 	"/>
	<line class="st1" x1="135.5" y1="457" x2="136.5" y2="457"/>
	<line class="st1" x1="139.5" y1="457" x2="140.5" y2="457"/>
	<polyline class="st1" points="102.5,520 109.5,520 111.5,521 	"/>
	<rect class="st0" width="535" height="757"/>
</g>
<g id="_x31_80-태양">
	<g>
		<polyline class="st1" points="432.5,5 432.5,12 436.5,28 439.5,36 451.5,54 459.5,60 471.5,66 471.5,67 479.5,70 482.5,72 
			495.5,77 499.5,77 502.5,78 518.5,78 525.5,76 531.5,76 536.5,72 535.5,69 		"/>
		<polyline class="st1" points="497.5,50 497.5,47 493.5,42 490.5,40 482.5,39 478.5,40 474.5,44 471.5,49 470.5,57 470.5,54 		"/>
		<polyline class="st1" points="498.5,19 499.5,19 498.5,19 		"/>
		<polyline class="st1" points="470.5,27 469.5,28 467.5,27 467.5,28 		"/>
	</g>
</g>
<g id="_x31_80-우산">
	<g>
		<polyline class="st1" points="250.5,364 251.5,364 251.5,359 250.5,356 250.5,343 244.5,343 244.5,363 245.5,363 245.5,367 
			244.5,367 244.5,366 235.5,366 234.5,367 231.5,367 227.5,369 202.5,377 197.5,380 183.5,385 176.5,391 173.5,395 168.5,406 
			164.5,413 161.5,416 160.5,420 164.5,414 		"/>
		<polyline class="st1" points="252.5,365 259.5,368 269.5,368 281.5,370 287.5,372 289.5,374 289.5,375 292.5,376 295.5,379 
			299.5,381 301.5,381 308.5,385 314.5,391 318.5,393 332.5,404 340.5,412 341.5,414 341.5,422 340.5,423 340.5,420 		"/>
		<polyline class="st1" points="341.5,426 337.5,424 332.5,424 330.5,423 326.5,423 323.5,422 303.5,422 291.5,420 286.5,420 
			277.5,418 242.5,418 239.5,417 218.5,417 215.5,418 211.5,418 199.5,422 193.5,422 192.5,423 180.5,423 179.5,424 162.5,424 
			161.5,426 166.5,424 		"/>
		<polyline class="st1" points="251.5,374 250.5,371 250.5,367 		"/>
		<polyline class="st1" points="250.5,367 250.5,366 260.5,377 271.5,385 275.5,389 278.5,393 287.5,402 290.5,406 296.5,420 
			295.5,416 293.5,413 		"/>
		<line class="st1" x1="255.5" y1="386" x2="253.5" y2="382"/>
		<polyline class="st1" points="248.5,369 253.5,382 256.5,409 256.5,402 		"/>
		<polyline class="st1" points="245.5,373 245.5,369 246.5,369 246.5,368 246.5,369 245.5,369 232.5,401 230.5,408 230.5,414 
			229.5,418 229.5,412 		"/>
		<polyline class="st1" points="243.5,370 243.5,371 240.5,374 228.5,381 214.5,392 205.5,402 198.5,408 197.5,412 195.5,414 
			193.5,420 		"/>
		<polyline class="st1" points="256.5,398 256.5,404 258.5,418 258.5,420 257.5,420 257.5,417 		"/>
		<polyline class="st1" points="263.5,389 262.5,387 261.5,387 261.5,389 262.5,387 261.5,386 259.5,386 258.5,387 258.5,389 
			260.5,391 261.5,391 262.5,389 261.5,387 259.5,387 259.5,388 261.5,389 261.5,388 260.5,388 260.5,389 261.5,389 261.5,387 
			259.5,386 		"/>
		<polyline class="st1" points="228.5,387 229.5,388 230.5,387 230.5,385 229.5,384 227.5,389 228.5,390 230.5,390 231.5,389 
			231.5,387 230.5,386 228.5,387 228.5,389 229.5,389 229.5,386 228.5,388 		"/>
		<polyline class="st1" points="270.5,394 272.5,392 274.5,392 275.5,390 274.5,393 271.5,397 260.5,406 253.5,410 242.5,410 
			230.5,405 223.5,401 221.5,399 218.5,393 		"/>
		<polyline class="st1" points="245.5,419 248.5,434 248.5,468 244.5,501 243.5,502 241.5,509 239.5,512 235.5,516 231.5,517 
			227.5,512 227.5,510 226.5,509 225.5,505 225.5,500 		"/>
		<polyline class="st1" points="242.5,417 244.5,430 244.5,445 243.5,453 242.5,455 242.5,471 241.5,472 240.5,482 239.5,483 
			239.5,488 238.5,489 237.5,496 236.5,496 235.5,498 233.5,498 232.5,496 230.5,495 229.5,491 228.5,490 228.5,491 226.5,493 
			226.5,502 227.5,505 227.5,502 		"/>
	</g>
</g>
<g id="_x31_80-비">
	<g>
		<polyline class="st1" points="372.5,156 370.5,156 369.5,155 369.5,153 366.5,159 359.5,187 360.5,195 362.5,197 363.5,200 
			369.5,201 373.5,199 379.5,192 380.5,188 380.5,179 378.5,168 373.5,160 368.5,156 368.5,157 		"/>
		<polyline class="st1" points="375.5,179 376.5,179 376.5,176 375.5,176 373.5,179 373.5,181 374.5,182 376.5,181 376.5,179 
			375.5,179 		"/>
		<polyline class="st1" points="366.5,181 366.5,177 365.5,176 364.5,177 364.5,182 365.5,183 366.5,180 		"/>
		<polyline class="st1" points="374.5,183 374.5,186 372.5,189 367.5,192 365.5,192 362.5,184 362.5,180 363.5,181 		"/>
		<polyline class="st1" points="139.5,169 138.5,169 135.5,175 131.5,188 130.5,195 128.5,200 128.5,208 129.5,211 132.5,213 
			135.5,213 138.5,211 141.5,207 144.5,195 144.5,190 141.5,181 138.5,178 137.5,178 137.5,180 		"/>
		<polyline class="st1" points="139.5,197 139.5,195 138.5,196 138.5,197 140.5,199 140.5,196 139.5,194 		"/>
		<polyline class="st1" points="131.5,197 132.5,199 134.5,200 135.5,198 135.5,195 134.5,195 133.5,193 132.5,193 131.5,195 
			131.5,198 133.5,199 133.5,195 		"/>
		<polyline class="st1" points="139.5,200 141.5,202 141.5,205 139.5,209 135.5,212 131.5,213 128.5,211 126.5,208 126.5,205 
			127.5,203 129.5,203 129.5,202 		"/>
		<polyline class="st1" points="307.5,210 308.5,210 307.5,210 305.5,212 303.5,216 301.5,224 301.5,238 302.5,241 304.5,243 
			312.5,243 316.5,242 319.5,240 321.5,236 321.5,230 319.5,223 314.5,216 310.5,213 309.5,213 		"/>
		<polyline class="st1" points="313.5,227 314.5,227 314.5,226 313.5,226 313.5,227 314.5,228 315.5,228 315.5,227 		"/>
		<polyline class="st1" points="307.5,227 309.5,228 309.5,226 306.5,224 305.5,225 305.5,228 307.5,229 307.5,227 		"/>
		<polyline class="st1" points="315.5,231 317.5,231 318.5,232 317.5,235 313.5,239 310.5,240 308.5,240 305.5,237 304.5,231 		"/>
		<polyline class="st1" points="60.5,244 55.5,254 53.5,266 53.5,273 57.5,278 61.5,279 65.5,279 67.5,277 68.5,274 68.5,266 
			65.5,258 61.5,251 59.5,249 57.5,248 58.5,250 59.5,250 		"/>
		<polyline class="st1" points="63.5,269 63.5,267 64.5,266 63.5,268 65.5,269 65.5,268 63.5,267 		"/>
		<polyline class="st1" points="58.5,266 60.5,268 59.5,265 57.5,264 57.5,268 58.5,270 59.5,268 58.5,266 58.5,268 		"/>
		<polyline class="st1" points="62.5,270 64.5,270 66.5,272 66.5,274 62.5,277 59.5,277 57.5,275 56.5,269 58.5,269 58.5,271 		"/>
		<polyline class="st1" points="217.5,197 206.5,226 204.5,236 204.5,248 206.5,251 208.5,251 221.5,240 223.5,236 222.5,228 
			220.5,223 220.5,215 219.5,212 217.5,210 214.5,210 214.5,214 		"/>
		<polyline class="st1" points="218.5,234 218.5,230 218.5,235 217.5,233 		"/>
		<polyline class="st1" points="210.5,233 213.5,235 213.5,232 212.5,231 211.5,235 212.5,236 213.5,236 213.5,235 		"/>
		<polyline class="st1" points="217.5,239 218.5,239 219.5,242 217.5,246 212.5,249 209.5,248 208.5,245 208.5,241 209.5,240 		"/>
		<polyline class="st1" points="390.5,255 391.5,255 390.5,258 381.5,270 379.5,275 377.5,287 378.5,291 382.5,291 388.5,286 
			390.5,282 391.5,278 391.5,263 389.5,259 		"/>
		<polyline class="st1" points="388.5,275 389.5,275 389.5,274 388.5,274 		"/>
		<polyline class="st1" points="385.5,275 385.5,276 386.5,276 385.5,276 383.5,274 		"/>
		<polyline class="st1" points="388.5,279 389.5,280 388.5,284 384.5,287 381.5,287 379.5,282 379.5,280 		"/>
		<polyline class="st1" points="114.5,289 115.5,289 111.5,291 108.5,298 104.5,312 102.5,323 104.5,325 107.5,326 111.5,326 
			114.5,325 116.5,323 118.5,319 118.5,310 117.5,305 111.5,294 109.5,292 110.5,296 		"/>
		<polyline class="st1" points="112.5,311 113.5,313 114.5,313 114.5,312 113.5,312 		"/>
		<polyline class="st1" points="107.5,313 109.5,315 107.5,313 107.5,315 108.5,315 108.5,314 		"/>
		<polyline class="st1" points="114.5,316 115.5,317 115.5,321 112.5,326 110.5,327 106.5,327 104.5,323 104.5,320 		"/>
		<polyline class="st1" points="266.5,254 266.5,253 264.5,254 261.5,258 258.5,264 255.5,275 255.5,281 256.5,284 261.5,288 
			264.5,288 278.5,283 281.5,281 282.5,275 281.5,271 273.5,254 271.5,252 271.5,251 269.5,251 269.5,252 		"/>
		<polyline class="st1" points="272.5,268 273.5,268 273.5,266 272.5,266 272.5,270 273.5,270 272.5,267 271.5,267 		"/>
		<polyline class="st1" points="274.5,274 275.5,274 276.5,276 274.5,279 268.5,282 262.5,282 261.5,280 261.5,272 		"/>
		<polyline class="st1" points="263.5,270 264.5,269 264.5,268 263.5,268 263.5,271 264.5,271 264.5,267 263.5,267 		"/>
	</g>
</g>
<g id="_x31_80-사람">
	<g>
		<polyline class="st1" points="294.5,523 296.5,525 300.5,525 304.5,522 311.5,514 316.5,506 321.5,492 324.5,478 323.5,465 
			319.5,452 310.5,443 294.5,439 286.5,440 275.5,445 266.5,455 261.5,470 259.5,489 260.5,509 262.5,517 267.5,526 273.5,529 
			285.5,530 288.5,529 288.5,526 286.5,524 		"/>
		<polyline class="st1" points="304.5,476 305.5,477 305.5,475 300.5,478 300.5,480 304.5,480 304.5,476 302.5,476 303.5,479 
			305.5,478 305.5,476 304.5,476 		"/>
		<polyline class="st1" points="282.5,479 283.5,478 282.5,474 280.5,474 279.5,475 279.5,479 280.5,479 282.5,475 282.5,473 
			280.5,473 279.5,474 279.5,477 281.5,477 		"/>
		<polyline class="st1" points="313.5,485 314.5,486 314.5,490 311.5,494 298.5,504 290.5,506 280.5,506 277.5,505 274.5,497 
			273.5,488 		"/>
		<polyline class="st1" points="304.5,439 307.5,439 315.5,443 315.5,444 321.5,451 326.5,466 327.5,476 328.5,478 328.5,480 
			327.5,481 325.5,468 321.5,452 318.5,446 316.5,444 317.5,444 323.5,451 325.5,457 327.5,467 327.5,476 326.5,476 326.5,470 
			324.5,459 320.5,450 318.5,447 317.5,447 317.5,446 316.5,446 316.5,448 318.5,450 319.5,454 321.5,470 321.5,477 318.5,478 
			318.5,455 317.5,449 316.5,448 319.5,453 319.5,470 318.5,475 317.5,475 317.5,472 318.5,470 318.5,459 315.5,449 316.5,451 
			318.5,465 318.5,479 316.5,480 315.5,476 314.5,458 312.5,453 312.5,451 311.5,451 311.5,449 310.5,449 310.5,448 310.5,472 
			309.5,476 309.5,460 310.5,454 310.5,447 311.5,446 311.5,471 310.5,472 309.5,470 307.5,452 309.5,443 310.5,443 312.5,451 
			313.5,469 310.5,452 310.5,447 312.5,447 314.5,451 315.5,460 315.5,471 313.5,463 311.5,449 310.5,445 309.5,445 309.5,462 
			308.5,468 307.5,468 307.5,465 306.5,463 306.5,442 306.5,465 305.5,469 304.5,470 303.5,469 303.5,445 303.5,451 301.5,460 
			299.5,466 298.5,467 299.5,455 302.5,443 302.5,452 301.5,453 298.5,466 297.5,466 298.5,464 299.5,455 303.5,445 304.5,445 
			304.5,449 302.5,458 300.5,463 297.5,468 296.5,468 297.5,456 299.5,450 303.5,442 296.5,461 296.5,463 294.5,466 294.5,463 
			295.5,461 297.5,449 298.5,446 299.5,446 296.5,450 292.5,459 290.5,462 289.5,462 289.5,461 290.5,457 292.5,455 297.5,443 
			299.5,443 296.5,447 290.5,458 285.5,464 282.5,465 285.5,457 291.5,445 295.5,441 295.5,440 295.5,442 291.5,446 283.5,462 
			281.5,464 285.5,457 288.5,454 294.5,444 294.5,443 293.5,443 288.5,447 277.5,464 283.5,456 286.5,450 291.5,446 293.5,443 
			283.5,457 280.5,464 286.5,459 294.5,449 297.5,448 297.5,447 295.5,448 290.5,455 284.5,461 285.5,453 290.5,441 289.5,441 
			283.5,449 276.5,463 273.5,466 275.5,464 276.5,464 282.5,447 277.5,452 270.5,465 272.5,463 275.5,455 276.5,454 278.5,446 
			279.5,445 279.5,444 277.5,444 276.5,445 269.5,458 267.5,463 267.5,465 269.5,462 273.5,451 273.5,448 275.5,443 275.5,442 
			273.5,442 269.5,446 264.5,461 264.5,465 266.5,465 268.5,459 269.5,444 266.5,451 262.5,465 261.5,466 261.5,468 264.5,465 
			267.5,458 270.5,443 270.5,447 267.5,455 273.5,445 279.5,441 285.5,440 297.5,440 299.5,441 297.5,440 285.5,441 284.5,442 
			279.5,443 272.5,447 270.5,450 269.5,450 279.5,446 292.5,443 306.5,444 306.5,445 303.5,443 302.5,441 294.5,437 282.5,440 
			274.5,445 278.5,446 295.5,441 302.5,441 307.5,442 311.5,453 311.5,457 310.5,458 308.5,453 307.5,446 		"/>
		<polyline class="st1" points="295.5,527 295.5,529 292.5,535 291.5,540 290.5,541 290.5,536 		"/>
		<polyline class="st1" points="279.5,529 278.5,531 278.5,535 280.5,542 280.5,540 279.5,539 280.5,539 280.5,540 272.5,540 
			270.5,541 267.5,540 257.5,540 255.5,541 252.5,541 251.5,536 251.5,527 250.5,526 250.5,519 249.5,517 249.5,511 248.5,509 
			248.5,505 247.5,500 246.5,500 246.5,498 245.5,498 245.5,497 245.5,498 243.5,498 243.5,499 238.5,506 236.5,511 237.5,526 
			238.5,529 238.5,536 239.5,539 239.5,544 240.5,546 240.5,554 241.5,554 241.5,555 243.5,555 243.5,556 257.5,556 259.5,555 
			263.5,555 266.5,558 266.5,568 265.5,573 265.5,614 266.5,617 266.5,630 268.5,637 269.5,637 275.5,631 277.5,621 278.5,620 
			281.5,606 281.5,603 282.5,602 311.5,602 311.5,610 310.5,615 310.5,627 311.5,628 312.5,628 316.5,623 318.5,617 320.5,606 
			320.5,593 321.5,591 321.5,583 320.5,575 319.5,573 319.5,560 318.5,559 318.5,556 325.5,559 330.5,559 331.5,558 332.5,553 
			332.5,545 331.5,543 326.5,542 308.5,542 304.5,540 295.5,540 293.5,539 		"/>
		<polyline class="st1" points="303.5,556 303.5,553 302.5,552 		"/>
		<polyline class="st1" points="302.5,548 299.5,542 296.5,550 295.5,551 292.5,553 285.5,554 282.5,552 275.5,543 273.5,539 
			273.5,537 274.5,538 274.5,540 		"/>
	</g>
</g>
<g id="_x31_80-구름-1">
	<g>
		<polyline class="st1" points="140.5,89 141.5,89 141.5,85 132.5,62 128.5,55 121.5,49 119.5,48 115.5,48 111.5,50 107.5,56 
			104.5,64 102.5,76 102.5,86 103.5,86 103.5,87 103.5,82 101.5,70 97.5,63 90.5,55 79.5,47 71.5,46 68.5,48 66.5,53 64.5,62 
			64.5,96 65.5,98 66.5,96 66.5,90 62.5,75 48.5,58 39.5,55 37.5,55 35.5,57 34.5,60 28.5,95 28.5,100 30.5,111 31.5,113 32.5,113 
			36.5,95 		"/>
		<polyline class="st1" points="144.5,87 142.5,85 142.5,83 147.5,76 151.5,73 158.5,70 173.5,70 178.5,72 181.5,75 182.5,84 
			179.5,89 172.5,93 160.5,97 143.5,100 146.5,101 150.5,104 151.5,107 150.5,118 147.5,124 137.5,136 131.5,137 128.5,136 
			124.5,132 122.5,125 122.5,115 111.5,136 104.5,145 98.5,150 92.5,152 84.5,150 77.5,144 72.5,134 71.5,129 68.5,121 68.5,125 
			64.5,138 52.5,159 49.5,162 43.5,164 39.5,163 33.5,156 24.5,148 18.5,140 18.5,137 19.5,136 20.5,136 20.5,140 16.5,153 
			14.5,156 11.5,159 0.5,162 -2.5,162 -3.5,160 -12.5,151 -13.5,148 -13.5,145 -12.5,144 -11.5,140 -6.5,131 -0.5,126 10.5,122 
			24.5,120 32.5,120 28.5,118 28.5,117 		"/>
		<polyline class="st1" points="94.5,97 95.5,97 95.5,93 94.5,91 92.5,91 90.5,95 90.5,98 92.5,100 93.5,100 94.5,98 94.5,95 
			93.5,94 91.5,94 90.5,98 92.5,99 92.5,94 		"/>
		<polyline class="st1" points="77.5,98 77.5,95 75.5,93 73.5,99 73.5,102 74.5,103 76.5,102 76.5,96 74.5,94 72.5,97 73.5,103 
			74.5,103 75.5,100 75.5,96 73.5,98 73.5,101 76.5,101 		"/>
		<polyline class="st1" points="126.5,78 127.5,77 127.5,89 126.5,95 123.5,101 119.5,106 114.5,110 99.5,117 87.5,120 70.5,120 
			58.5,115 53.5,110 52.5,104 54.5,104 		"/>
	</g>
</g>
<g id="_x31_80-구름-2">
	<g>
		<polyline class="st1" points="386.5,78 388.5,78 389.5,76 389.5,64 388.5,55 385.5,46 382.5,42 378.5,39 372.5,38 366.5,41 
			362.5,48 359.5,58 359.5,71 360.5,71 360.5,56 355.5,39 349.5,31 342.5,24 334.5,20 328.5,21 323.5,26 319.5,35 315.5,47 
			313.5,58 313.5,70 315.5,81 316.5,80 317.5,73 316.5,65 314.5,58 306.5,45 305.5,42 294.5,33 284.5,28 276.5,28 272.5,31 
			269.5,39 269.5,66 272.5,85 274.5,92 274.5,91 271.5,89 254.5,86 251.5,86 243.5,88 234.5,92 226.5,99 221.5,106 218.5,115 
			219.5,119 223.5,123 233.5,128 236.5,128 241.5,130 259.5,129 269.5,123 270.5,121 268.5,121 266.5,123 265.5,126 265.5,132 
			268.5,139 276.5,148 289.5,149 292.5,147 298.5,140 302.5,130 307.5,111 309.5,107 310.5,107 311.5,112 321.5,137 326.5,142 
			330.5,144 336.5,144 342.5,139 347.5,133 352.5,119 353.5,112 353.5,108 352.5,106 355.5,110 364.5,129 368.5,133 380.5,136 
			384.5,134 387.5,131 389.5,127 391.5,122 391.5,119 393.5,115 397.5,111 403.5,108 412.5,108 413.5,107 414.5,103 413.5,96 
			407.5,82 405.5,81 405.5,82 404.5,82 404.5,85 405.5,84 405.5,81 		"/>
		<polyline class="st1" points="341.5,83 339.5,83 339.5,84 341.5,84 344.5,80 341.5,76 339.5,77 337.5,80 336.5,86 339.5,88 
			343.5,83 343.5,80 342.5,79 340.5,79 338.5,81 338.5,86 340.5,87 341.5,84 340.5,78 338.5,78 336.5,80 336.5,83 338.5,87 
			339.5,87 341.5,85 341.5,83 338.5,85 		"/>
		<polyline class="st1" points="310.5,91 311.5,91 312.5,88 312.5,85 311.5,83 310.5,82 308.5,82 306.5,85 305.5,88 305.5,91 
			306.5,93 308.5,93 311.5,91 311.5,83 308.5,82 307.5,84 307.5,91 308.5,92 309.5,91 310.5,88 310.5,86 309.5,85 308.5,86 
			308.5,90 309.5,91 312.5,86 		"/>
		<polyline class="st1" points="366.5,62 366.5,61 367.5,61 370.5,65 372.5,75 372.5,82 368.5,94 365.5,100 362.5,104 354.5,110 
			341.5,117 312.5,118 302.5,115 293.5,111 290.5,109 279.5,96 274.5,92 271.5,88 270.5,88 270.5,84 272.5,78 272.5,74 273.5,74 
			274.5,76 		"/>
	</g>
</g>
</svg>
