<?xml version="1.0" encoding="utf-8"?>
<!-- Generator: Adobe Illustrator 26.2.1, SVG Export Plug-In . SVG Version: 6.00 Build 0)  -->
<svg version="1.1" xmlns="http://www.w3.org/2000/svg" xmlns:xlink="http://www.w3.org/1999/xlink" x="0px" y="0px"
	 viewBox="0 0 535 757" style="enable-background:new 0 0 535 757;" xml:space="preserve">
<style type="text/css">
	.st0{fill:#FFFFFF;}
	.st1{fill:none;stroke:#000000;stroke-width:2;}
</style>
<g id="레이어_1" xmlns:ev="http://www.w3.org/2001/xml-events">
	<rect class="st0" width="535" height="757"/>
	<rect class="st0" width="535" height="757"/>
</g>
<g id="_x31_83-사람">
	<g>
		<polyline class="st1" points="216.4,441 208.8,435 208.4,433.4 		"/>
		<polyline class="st1" points="217.3,452.5 207.3,450.3 204.9,446.4 204.9,442.8 		"/>
		<polyline class="st1" points="182.4,376.1 182.9,385.1 188.2,421.6 189.8,428.2 194.4,440.3 		"/>
		<polyline class="st1" points="196.9,444.5 205.8,440.2 210.2,437.2 		"/>
		<polyline class="st1" points="203.6,376.2 202.9,387.4 204.4,401 211.6,429.2 		"/>
		<polyline class="st1" points="183.1,373.8 182,365.4 185.9,354.2 189.2,350.5 191.6,349.7 195.1,349.5 197.3,350.3 		"/>
		<polyline class="st1" points="251.5,351 259.6,351 261.6,352 263.7,354.7 265.6,365.5 266.5,393.1 266.1,443.2 261.6,443.6 
			252.2,446.9 		"/>
		<polyline class="st1" points="253.2,447.5 251.8,448.9 252,420.4 251.3,411.6 248.9,399.4 245.3,390 		"/>
		<polyline class="st1" points="190.3,455.5 204.2,451.2 205.8,450.6 205.6,450 		"/>
		<polyline class="st1" points="196.9,455 194.6,466.7 195.3,495.3 205.6,572.5 206.2,571.2 		"/>
		<polyline class="st1" points="206.4,577 214,582 219,583.3 227.1,583.7 230.3,582.9 230.6,578.5 		"/>
		<polyline class="st1" points="232,585.9 233.1,574.1 231.6,523.3 231.9,517.5 233.5,514.6 		"/>
		<line class="st1" x1="234.2" y1="516.9" x2="235.4" y2="500"/>
		<polyline class="st1" points="243.7,502 243.1,511 244.4,538.9 246.5,556.1 247.4,582.5 247.9,581.7 		"/>
		<polyline class="st1" points="248.2,585.8 257.3,589 265.4,588.7 276.2,590.5 276.8,590.1 274.3,586.8 		"/>
		<polyline class="st1" points="274.1,588 274.8,570.8 271,536.1 268.4,462.4 267.6,458.9 266.8,458.5 		"/>
		<polyline class="st1" points="266.6,456.5 257.8,453.7 245.8,451.9 244.1,450.9 245,450.8 		"/>
		<polyline class="st1" points="216.1,589.3 216.4,599.2 216.9,600.2 218,598.3 		"/>
		<polyline class="st1" points="227.1,587.4 227.9,598.7 228.5,597.7 		"/>
		<polyline class="st1" points="219,604.4 209.6,601.3 202.3,601.6 200,602.1 196.4,608.5 196.9,612.8 200.4,618.2 207,620.2 
			213.1,620.8 221.1,619.4 228.8,616.7 237.2,616.4 232.7,602.2 		"/>
		<polyline class="st1" points="222.4,604.6 231.1,603.3 233,601.7 		"/>
		<polyline class="st1" points="258.3,591.1 260,604.5 260.6,605.6 260.8,603.6 		"/>
		<polyline class="st1" points="263.6,592.3 266.7,601.2 267.4,605.8 267.7,603.6 		"/>
		<polyline class="st1" points="259,609.5 268.8,605.9 276.3,605.6 286.2,603.3 287.4,604.1 288.4,602.3 290.9,603.4 294.2,607.6 
			297.6,615.7 297.6,617.5 291.9,623.5 287.3,626.3 280.9,627.5 267.3,628.1 259.3,626.8 259.2,610.6 260.5,609.3 		"/>
		<polyline class="st1" points="273,608 276.6,617.6 277.2,614.7 		"/>
		<polyline class="st1" points="279.2,607.6 283.4,616.2 283.7,615.5 		"/>
		<polyline class="st1" points="214.3,603.4 216.6,614.6 217.2,611 		"/>
		<polyline class="st1" points="210.9,605.8 209,614.3 209.9,614.2 210.4,612.8 		"/>
		<polyline class="st1" points="188,308.6 183.8,316 183.4,320 184.9,325.4 186.9,326.5 		"/>
		<polyline class="st1" points="192,311.8 189.7,313.9 188.5,321.2 190.1,322.7 191.6,322.2 		"/>
		<polyline class="st1" points="217.2,312.7 216.4,322.1 218,322.9 		"/>
		<polyline class="st1" points="239.1,308.8 238.6,308.6 238.6,310 239.7,321.9 240.3,323.1 240.7,321.8 		"/>
		<polyline class="st1" points="244.3,311.4 245.1,321.4 245.5,320.9 		"/>
		<line class="st1" x1="249.7" y1="312.4" x2="251.2" y2="322.6"/>
		<polyline class="st1" points="202.2,348.1 194,350.7 201.3,348.1 206.5,348.3 		"/>
		<polyline class="st1" points="210.9,348.5 216,356.5 220.3,356.7 222.5,355.9 		"/>
		<polyline class="st1" points="234.3,355.1 233.2,356.4 236.2,355.6 242.1,351.2 244.1,348 243.7,345.9 		"/>
		<line class="st1" x1="245.9" y1="347.1" x2="254.6" y2="347.3"/>
		<polyline class="st1" points="200.8,329.9 203.6,339.8 205.8,341.7 214.2,341.8 		"/>
		<polyline class="st1" points="243.8,325.4 242.5,337.8 238.6,341.3 236.7,341.8 236.3,341 237.3,339.6 		"/>
		<polyline class="st1" points="238.8,344.1 237.1,353 237.9,353.1 		"/>
		<polyline class="st1" points="215.1,342.7 216.6,353.5 217.7,355.8 		"/>
		<polyline class="st1" points="259.4,448.1 258.7,458.3 259.2,457.9 		"/>
		<polyline class="st1" points="265.4,444.2 266,443.4 267.5,446.1 267.7,458.1 268.6,456.2 		"/>
		<polyline class="st1" points="250.1,457.4 250.8,467.4 251.9,469.9 257.7,476.4 259.4,478 261.6,478.6 270.7,479 		"/>
	</g>
</g>
<g id="_x31_83-비">
	<g>
		<line class="st1" x1="128.1" y1="123.3" x2="128.4" y2="147.1"/>
		<line class="st1" x1="155.5" y1="113" x2="156.1" y2="132.6"/>
		<line class="st1" x1="107.2" y1="59.1" x2="106.3" y2="88.6"/>
		<line class="st1" x1="132.8" y1="63.6" x2="131.1" y2="80.8"/>
		<line class="st1" x1="55" y1="138.8" x2="58.2" y2="165"/>
		<line class="st1" x1="65.3" y1="61.9" x2="64.7" y2="78.3"/>
		<line class="st1" x1="84.9" y1="121.6" x2="84.2" y2="134.4"/>
		<line class="st1" x1="104.7" y1="109.4" x2="105.4" y2="124.5"/>
		<line class="st1" x1="231.4" y1="30" x2="231.1" y2="65.1"/>
		<line class="st1" x1="205.3" y1="81.8" x2="206.6" y2="109.5"/>
		<polyline class="st1" points="184.8,56.4 184.6,71.1 186.3,80.5 		"/>
		<polyline class="st1" points="146.4,31.9 145.8,44.1 148.3,47.5 		"/>
		<polyline class="st1" points="198.8,163.8 196.1,173.6 196.4,181.2 198.1,187.8 		"/>
		<polyline class="st1" points="178.3,140.5 175,155.1 175.1,162.1 		"/>
		<polyline class="st1" points="237.6,111.9 236.3,123.7 237.1,131.7 239.9,141.7 		"/>
		<polyline class="st1" points="218.2,124.4 216.3,142.4 218.2,149.2 		"/>
		<line class="st1" x1="271.3" y1="53.8" x2="269.9" y2="76.2"/>
		<polyline class="st1" points="236.7,85.1 234.6,94.4 236.3,99.5 		"/>
		<polyline class="st1" points="274.5,100.1 273.5,112.1 274.2,119 		"/>
		<polyline class="st1" points="265.9,167 266.2,189.1 269.5,195.2 		"/>
		<line class="st1" x1="317.7" y1="159.5" x2="320.6" y2="175.8"/>
		<polyline class="st1" points="80.1,218.2 78.2,226.6 80,243.5 		"/>
		<line class="st1" x1="100.3" y1="213.3" x2="99.5" y2="224.3"/>
		<polyline class="st1" points="91.4,180.7 90,190.2 91.8,192.2 		"/>
		<polyline class="st1" points="134.8,180.9 133.3,192 134.8,196 		"/>
		<line class="st1" x1="145.4" y1="201" x2="149.2" y2="213.8"/>
		<polyline class="st1" points="335.7,26.6 334.1,47.2 334.5,59.6 		"/>
		<line class="st1" x1="320.9" y1="96.3" x2="320.1" y2="113"/>
		<polyline class="st1" points="347.5,99.2 345.5,109.3 346.7,110.5 		"/>
		<polyline class="st1" points="297.6,33.7 295.3,41.9 297.6,58.8 		"/>
		<polyline class="st1" points="290,134.9 289.1,143.3 289.7,149.2 		"/>
		<line class="st1" x1="329.2" y1="138.6" x2="330.2" y2="148.3"/>
		<line class="st1" x1="360.3" y1="162.1" x2="363.6" y2="188.2"/>
		<polyline class="st1" points="387.4,79.3 388.7,130.8 390.8,141.7 		"/>
		<line class="st1" x1="368.5" y1="114.7" x2="366.9" y2="128.1"/>
		<polyline class="st1" points="372.6,40.1 370.3,49.8 370.7,54.9 		"/>
		<line class="st1" x1="406.3" y1="28.2" x2="404.7" y2="57.4"/>
		<polyline class="st1" points="409.3,114.1 410.3,129.5 410.1,144.6 		"/>
		<polyline class="st1" points="410.9,185.1 408.2,197.6 409.3,202.8 		"/>
		<line class="st1" x1="427" y1="188" x2="428.1" y2="196.9"/>
		<polyline class="st1" points="441.9,178.8 444.2,187.8 444.9,194.8 		"/>
		<line class="st1" x1="456.4" y1="153" x2="457.5" y2="169.9"/>
		<polyline class="st1" points="467,48.9 458.9,101.7 457,121.4 		"/>
		<line class="st1" x1="436.4" y1="77.8" x2="435.2" y2="126.5"/>
		<polyline class="st1" points="443.3,25.3 441.2,40.5 441.5,52.9 		"/>
		<polyline class="st1" points="491.3,65.3 491.1,74.4 487.2,110.2 486.8,130.1 		"/>
		<line class="st1" x1="487.6" y1="161.6" x2="486.2" y2="178.9"/>
		<polyline class="st1" points="499.6,17.8 498.6,37.2 499.2,40.2 		"/>
		<polyline class="st1" points="514,54.7 512.4,67.8 507.9,90 505.2,112.9 505,127.7 		"/>
		<polyline class="st1" points="509.3,163.8 509.7,185.7 511.2,189.1 		"/>
	</g>
</g>
<g id="_x31_83-우산">
	<g>
		<polyline class="st1" points="121.7,318.6 123.7,309.6 132,296.3 137.1,291.3 148.3,280.3 168.3,263.3 179.9,254.7 195.5,245 
			208.7,240.5 226.5,238.9 247.8,242.2 269.6,249.2 279.9,255.5 309.9,281.2 325.4,303.7 329.4,314.7 333.2,321.3 331.4,318.2 
			317.7,310.9 306.3,306.8 295.1,305.7 287.3,307.2 281.8,310.1 277.3,316.7 277.5,318 279.6,319.2 279.7,318.6 278.7,317.9 
			273.3,315.3 244.8,309 230.7,307.4 224.9,307.6 216,310.3 206.5,319.4 206.2,320.1 207.1,320.4 202.1,316.1 193.8,312.9 
			177.9,310.7 156.5,310.1 144,313.3 138.8,315.8 131,321.3 128.6,323.9 128.5,325 129.7,325.3 133.1,323.7 		"/>
		<polyline class="st1" points="339.1,324.1 330.1,324.5 328.8,322.8 328.3,319.8 329,316.2 333.6,311.1 336.5,310.1 341.2,312.5 
			341.5,320 337.3,325.4 335.1,325.9 333.6,322.7 		"/>
		<polyline class="st1" points="281.8,324.4 273.4,321.1 273.6,318.9 276.8,315.8 279.3,315.3 281.5,316.8 282.7,322.7 281.7,325.5 
			279.8,326.7 279.3,324.7 		"/>
		<polyline class="st1" points="205.8,329.2 201.1,322.1 202.8,317.5 205,317.1 206.1,318.2 208.4,323.1 208.6,325.6 207,328 
			205.4,328 199.9,323.9 198.3,320.3 198.1,313.9 		"/>
		<polyline class="st1" points="223.8,238.6 220.4,240.9 218,240.2 217.1,238.8 217.9,230.6 220.7,228.6 223.4,228.9 225.7,232.2 
			224.9,238.4 222.3,242.3 220.9,240.4 220.4,236.3 		"/>
		<polyline class="st1" points="220.1,309.4 219,321.9 219,335.4 221.5,367.9 222.4,411.7 221.1,434.5 221.9,433.7 222.6,430.4 		
			"/>
		<polyline class="st1" points="236.3,307.2 236.1,306.6 235.7,308.1 234.4,340.5 236.2,416.2 235.5,434.6 		"/>
		<polyline class="st1" points="235.5,439 228.1,434.7 221.6,437.1 219.5,440.3 220,460.9 221,467.4 222.2,468.1 234.5,467.4 
			236.7,465.8 237.7,460.5 237.8,450.9 235.9,439.5 235.2,439.1 234.9,441.1 		"/>
		<polyline class="st1" points="226.9,470.3 228.7,479.6 229.3,478.1 		"/>
		<line class="st1" x1="232.3" y1="469.4" x2="233.8" y2="479.5"/>
		<polyline class="st1" points="236,480.4 227.9,479.7 225,482.5 226.5,488.6 229.4,495.5 232.7,498.1 245.9,498.7 250.8,497.2 
			253.7,495.4 254.8,493.8 254.9,487.9 253.2,484.2 251.4,482.6 246.1,488.4 243.1,489.7 241.3,489.6 239.2,487.8 238.2,485.3 
			238.1,480.1 237.8,481.2 		"/>
		<polyline class="st1" points="128.4,328.3 121.5,323.7 121.3,321.7 122.9,318.8 125.1,317.3 128.5,323 129.3,329.8 127,331.8 
			124,326.5 		"/>
	</g>
</g>
</svg>
