<?xml version="1.0" encoding="utf-8"?>
<!-- Generator: Adobe Illustrator 26.2.1, SVG Export Plug-In . SVG Version: 6.00 Build 0)  -->
<svg version="1.1" xmlns="http://www.w3.org/2000/svg" xmlns:xlink="http://www.w3.org/1999/xlink" x="0px" y="0px"
	 viewBox="0 0 535 757" style="enable-background:new 0 0 535 757;" xml:space="preserve">
<style type="text/css">
	.st0{fill:#FFFFFF;}
	.st1{fill:none;stroke:#000000;stroke-width:2;}
</style>
<g id="레이어_1" xmlns:ev="http://www.w3.org/2001/xml-events">
	<rect class="st0" width="535" height="757"/>
	<rect class="st0" width="535" height="757"/>
</g>
<g id="_x31_85-사람">
	<g>
		<line class="st1" x1="277.2" y1="297" x2="272.6" y2="308.3"/>
		<polyline class="st1" points="218.2,498 208.4,506.8 209.8,510.8 		"/>
		<polyline class="st1" points="251,372.5 247.3,363.5 246,376 		"/>
		<polyline class="st1" points="217.9,480.8 212.5,489.2 212.2,493.3 		"/>
		<polyline class="st1" points="364,308.5 361.7,318.2 366.8,322.7 		"/>
		<polyline class="st1" points="355.9,375.2 352.3,384.3 354.3,388.5 		"/>
		<polyline class="st1" points="345.5,471.5 342.4,479.1 341.8,482.3 342.8,484 		"/>
		<polyline class="st1" points="233.3,279.1 237.7,286 237.5,297.8 232.2,318.2 223.4,334.5 222.6,339.6 226.2,341 237,340.2 
			236.6,341.5 237.7,341.9 236.9,344.1 238,345.7 237.3,354.5 237.8,358.3 235,366.4 229.1,375.7 227.3,383.7 222.5,393.7 
			222.3,397.3 223.4,406.3 227.6,410.8 233.3,414.3 236.2,415.2 247.3,415.2 259.4,417.2 266.3,419 273.9,419.7 283.4,423.2 
			286.6,423 302.6,414.5 		"/>
		<polyline class="st1" points="234.7,281.4 236.9,279.7 242.9,279 254.3,275.6 266.6,269.7 270.9,269.3 298.2,279.1 312.7,290.7 
			327.3,306.7 332.5,317.1 335,328.8 337.1,345.1 336.4,355.4 334.4,367.1 331.2,378.5 328.4,383.9 324.6,394.7 317.2,405.9 		"/>
		<polyline class="st1" points="252.6,318.4 260.7,314.8 271,312.7 276.3,314.1 285.2,323.1 289,325.9 		"/>
		<polyline class="st1" points="254.6,274.2 251.1,273.5 250.7,272.5 259.4,267.1 266.5,265.5 281.7,265.1 291.2,263.9 319.7,266.2 
			328.3,268.1 331.9,270.1 347,282 352.3,288.2 357.3,296.2 364.4,311.6 370.2,327.1 381.6,348.5 384.8,369.7 385.8,384.2 
			386.4,429.8 384.8,442.1 		"/>
		<polyline class="st1" points="341.7,316.8 350.1,325.1 351.8,331.2 353.2,338.2 354.9,366.4 358.6,390.9 365.5,414.1 366.9,423.2 
			366.9,429.4 364.5,433.9 358.2,438.2 		"/>
		<polyline class="st1" points="335.1,381.1 330.9,390 333.3,395.9 335.1,404 335.4,424.5 333,440.8 333.8,441.2 335.1,439.6 		"/>
		<polyline class="st1" points="340.5,391.7 343.5,416.4 344.4,443.8 345.4,452.4 		"/>
		<polyline class="st1" points="319.8,408.9 320.2,428.7 324,438.2 		"/>
		<polyline class="st1" points="309.7,416.1 307.5,424.6 307.3,445 306.1,447.2 		"/>
		<polyline class="st1" points="295.3,430.2 290.8,437.5 288.6,448.8 		"/>
		<polyline class="st1" points="285.1,430.7 285.4,444.1 286.1,448.3 287.5,450.7 		"/>
		<polyline class="st1" points="373.2,420.7 371.2,429.6 371.4,440.7 371.1,446.6 370.4,447 		"/>
		<polyline class="st1" points="253.9,426.6 261.7,441.7 269.6,448.6 274.7,451.1 275.4,454.1 		"/>
		<polyline class="st1" points="284.6,428.8 280.9,439.5 276.2,448.5 		"/>
		<polyline class="st1" points="304.4,423.3 313,429.9 319.8,431 331.1,431.1 341,432.7 357,438.5 386.7,450.8 400.7,461.7 
			408.1,470.6 417.3,484.8 422.6,489.8 431.6,495.6 432.6,498 431,502.2 		"/>
		<polyline class="st1" points="427.8,490 429.9,499 429.3,502.9 431.1,513.7 431.2,519.7 428.2,540.9 428,547.6 429.6,559.8 
			425.6,574 421,599.6 417.9,603.7 		"/>
		<polyline class="st1" points="307.5,478.4 319.7,478.7 324.3,479.7 339,487 344.5,492.3 351.6,502.3 355.1,509.5 359.5,515.8 
			362.1,522.3 363.3,527.9 364.7,539.5 364.7,548.3 361.7,579.9 358.4,590.9 		"/>
		<polyline class="st1" points="270.5,499.1 272,507.8 276.2,509.9 277.6,509.6 278.1,507.8 277.1,503.4 275.2,503.9 		"/>
		<polyline class="st1" points="275.6,505.5 273.4,507.2 273.1,509.6 273.8,511.2 276.3,510.9 279.6,504 278.8,496.7 274.9,507.7 		
			"/>
		<polyline class="st1" points="279,467.9 272.3,473.1 273,475.5 281.3,471.8 281.2,466.5 277,462.3 274.3,462.4 273.6,463.8 
			275.3,469.3 275.2,462.8 274.8,461.9 273.4,461.9 283.1,463.5 283.1,464.8 		"/>
		<polyline class="st1" points="271,536.7 278.5,532.9 275.8,531.3 273.1,534.6 271,542.2 		"/>
		<polyline class="st1" points="236.3,438.2 235.9,447.1 231.2,455.8 229.5,457.5 227.9,457.7 224.6,462.2 223.5,464.3 222.3,470.7 
			220.1,472 216.5,477.8 211,481.9 208.6,485.4 213.1,491.9 212.6,497.4 209.2,503.1 198,514.3 196.6,518.8 197.3,523.6 
			204.4,539.6 208.1,564.4 203.6,585.7 		"/>
		<polyline class="st1" points="200.7,536.6 208.9,592.9 208.6,599.1 202.9,604.5 		"/>
		<polyline class="st1" points="211.1,602.4 222.7,606.2 250.2,612 263.5,611.6 272.4,609.3 281.8,612.7 299.2,616.4 308.9,613 
			331.2,609 339.6,606 343.8,605.8 346.1,607 349.4,605.3 351.2,602.6 		"/>
		<polyline class="st1" points="424.7,591.6 418.9,618.9 417.6,621 		"/>
		<polyline class="st1" points="364.8,588.5 366.8,598.3 382.6,617.7 385.3,619.6 386.6,617.9 		"/>
		<line class="st1" x1="397.3" y1="609" x2="410.2" y2="614.7"/>
		<polyline class="st1" points="207.7,602.8 208.1,613.7 186.6,666.3 177.1,700.9 172.4,713.3 156.9,744 143.3,762.4 140.2,764.2 		
			"/>
		<polyline class="st1" points="358.9,601 363.2,614.6 370.6,627.6 376.7,645.3 391.6,679 397.4,686.6 402,700.5 405.6,714.6 
			421.2,752.3 427.4,758.3 433.5,760.9 434,761.9 		"/>
		<polyline class="st1" points="157.4,743.5 158.2,742.6 156.6,741.8 148.7,742.4 147.7,744.9 148.7,751.2 166.9,753.2 181.1,758 
			189,758.8 207.1,757.4 226.5,749.4 226.6,752.2 231.5,756.7 237.6,753.3 245,746 245,744 245.8,745.4 256.1,746.8 265.7,750.2 		
			"/>
		<polyline class="st1" points="260.6,753.3 266.4,761.1 269.5,763.3 280.8,768 284.5,768.4 293.1,765.6 302.8,757.9 306.7,753.2 
			310.4,745.8 309.7,743.7 307.5,742.9 306.2,748.3 306.8,757.6 310.1,761.7 314.7,760.7 328.3,751.7 331.2,751.3 336.3,755.2 
			342.5,757.9 351,759.1 362.7,758.1 365.4,757.2 365,747 366.4,747.1 369.1,752.6 374.1,755.8 382.7,753.9 401.1,742.2 410,739.3 
			410.4,742.3 404.2,747.3 		"/>
		<polyline class="st1" points="178.8,747.5 170.8,748.9 164.1,743.3 		"/>
	</g>
</g>
<g id="_x31_85-비">
	<g>
		<polyline class="st1" points="200,248.3 188.6,261.6 185.8,268 		"/>
		<line class="st1" x1="162.3" y1="337.6" x2="157.5" y2="344.6"/>
		<polyline class="st1" points="105.2,508.6 96.5,504.4 96.2,505.5 98.8,508.3 		"/>
		<polyline class="st1" points="297.8,242.4 294.7,234.7 293.1,249.9 		"/>
		<line class="st1" x1="367.2" y1="236.6" x2="378.6" y2="241.5"/>
		<polyline class="st1" points="437.9,415.8 433.2,423.3 434.4,428.5 		"/>
		<line class="st1" x1="431" y1="460" x2="429.7" y2="468.3"/>
		<line class="st1" x1="232.9" y1="112.6" x2="238.2" y2="120.5"/>
		<polyline class="st1" points="169.4,174.2 167.9,185.4 166,191.5 160.6,198.9 		"/>
		<polyline class="st1" points="318.8,95.1 312,109.3 309.5,124.7 		"/>
		<line class="st1" x1="334.8" y1="167.8" x2="343.5" y2="176.9"/>
		<polyline class="st1" points="394.2,193.9 396.2,204.4 402,211.3 		"/>
		<polyline class="st1" points="427,235.8 439.1,232.6 444.2,235.1 446,238.9 		"/>
		<polyline class="st1" points="476.2,359.4 467.1,372.9 473.7,375.3 		"/>
		<polyline class="st1" points="484,413.5 483.9,424.3 492.5,419.7 		"/>
		<line class="st1" x1="421.3" y1="333.3" x2="424.7" y2="323.3"/>
		<polyline class="st1" points="140.8,87.1 132.7,86.1 135.5,96 		"/>
		<polyline class="st1" points="91.4,248.5 84.1,262.7 86.3,268.4 		"/>
		<line class="st1" x1="82" y1="359.1" x2="77.2" y2="377.8"/>
		<line class="st1" x1="232" y1="175.8" x2="222.1" y2="187.5"/>
		<line class="st1" x1="147.5" y1="458" x2="131.4" y2="483.9"/>
		<polyline class="st1" points="486.2,512.8 477.6,516.2 486.1,513.5 		"/>
		<line class="st1" x1="450.9" y1="150.4" x2="442.2" y2="154.9"/>
		<polyline class="st1" points="482.2,581.2 490.8,505.8 491.5,494.5 493.5,438.5 492.8,379.8 499.5,311.2 505.5,279.8 		"/>
		<polyline class="st1" points="381.2,100.7 390.5,101.8 394.2,111.5 		"/>
		<polyline class="st1" points="316.2,145 326.9,146.3 327.5,144 		"/>
		<line class="st1" x1="125.9" y1="206.7" x2="121.5" y2="216.5"/>
	</g>
</g>
</svg>
