<?xml version="1.0" encoding="utf-8"?>
<!-- Generator: Adobe Illustrator 26.2.1, SVG Export Plug-In . SVG Version: 6.00 Build 0)  -->
<svg version="1.1" xmlns="http://www.w3.org/2000/svg" xmlns:xlink="http://www.w3.org/1999/xlink" x="0px" y="0px"
	 viewBox="0 0 535 757" style="enable-background:new 0 0 535 757;" xml:space="preserve">
<style type="text/css">
	.st0{fill:none;stroke:#000000;stroke-width:2;}
</style>
<g id="레이어_1" xmlns:ev="http://www.w3.org/2001/xml-events">
	<rect class="st0" width="535" height="757"/>
</g>
<g id="_x34_6-사람">
	<g>
		<polyline class="st0" points="242.6,421.5 228.2,414.4 220.8,420.1 206.4,438.5 204.2,451.1 		"/>
		<polyline class="st0" points="235.5,417 231.8,415.2 230.4,415.2 		"/>
		<polyline class="st0" points="228.6,411.6 213.7,418.8 206.1,425 196.4,441.2 195,449.9 203.3,465.2 		"/>
		<polyline class="st0" points="232.1,418 224.4,412.6 205.7,428.7 200.7,440.1 197.7,452.9 201.5,475 207.9,481.5 220.9,483.9 		
			"/>
		<polyline class="st0" points="217,423.4 206,430.6 197.7,440.3 191.4,465.5 194.5,478.5 201.5,489.4 221.5,501.5 235.7,499.1 		
			"/>
		<polyline class="st0" points="211.6,423.9 203,434.6 197.6,462.9 200.7,479 208.5,493.2 232.9,510.6 244.6,513.2 260,510.1 		"/>
		<polyline class="st0" points="192,449 188.6,474 203.6,500.6 219,506.5 235.7,507 268.5,497.7 284,484.9 		"/>
		<polyline class="st0" points="195.5,449.8 190.5,445.4 190.1,438.2 201.1,419.2 211.7,411.9 224.4,407.7 236,406.7 246,408.6 		
			"/>
		<polyline class="st0" points="202.8,428.9 204.4,424 211.3,416.6 222.7,410.9 249.3,410.5 263.2,414.4 279.6,420.6 		"/>
		<polyline class="st0" points="228.7,418.7 238.9,412.2 264.2,417.4 275.4,425.2 284.5,432.9 294.1,445.4 		"/>
		<polyline class="st0" points="267,413.8 276.2,423.6 282.8,433.9 288.8,445.1 293.5,456.1 295.7,465.9 293.5,480.1 292.7,480.8 		
			"/>
		<polyline class="st0" points="275.7,442.2 284.4,459 287.7,471.6 289,484.4 289,495.3 284.9,506.6 		"/>
		<polyline class="st0" points="287.4,470.1 283.5,488.4 278.2,500.8 265,516.5 249.3,520.2 		"/>
		<polyline class="st0" points="231.7,507.3 229.8,508.9 227.9,513.4 227.6,519.4 		"/>
		<polyline class="st0" points="224.1,507.4 222.6,515.4 222.6,523.3 221.7,524.2 		"/>
		<polyline class="st0" points="221.9,511.7 222.5,526.5 223,520.3 		"/>
		<polyline class="st0" points="265,513.1 264.8,523.6 265.2,524.9 265.5,521.9 		"/>
		<polyline class="st0" points="264.8,511.6 264.7,520.7 265.5,527.9 265,521.8 263.8,517.4 262.4,515.3 264,527.7 		"/>
		<polyline class="st0" points="221,524.8 210.4,524 202.2,526.3 200,528.2 201.4,528.2 		"/>
		<polyline class="st0" points="219.4,524.3 211.7,524 200,526.8 194,530.2 190.3,533.3 188.6,538.9 189.2,539.7 		"/>
		<polyline class="st0" points="203.4,527.3 190.2,533.1 184.9,536.6 179.9,545.4 179,553.6 		"/>
		<polyline class="st0" points="192.1,530.7 183.4,538.9 176.1,547.1 168,560.4 163.7,569.1 161.6,578.6 157.4,614.9 155.5,642.2 
			156,644.9 		"/>
		<polyline class="st0" points="265.7,529.1 275.9,529.5 291.1,535.4 296.5,539.5 298.8,542.7 304.6,555 		"/>
		<polyline class="st0" points="282.2,533.4 289.8,536.9 301.7,546 305.5,552.5 307.6,558.3 308.7,566.4 		"/>
		<polyline class="st0" points="302.6,545.9 309.1,557.1 311.9,564.8 312.9,573.4 310.9,592.8 		"/>
		<polyline class="st0" points="307.8,569.7 311.6,600.3 312.1,616.8 310.9,623.6 		"/>
		<polyline class="st0" points="309.4,600.8 312.7,663.3 312.6,667.6 310.8,669 		"/>
		<polyline class="st0" points="157.2,617.4 156.1,620.1 154.8,656.5 		"/>
		<polyline class="st0" points="154.9,623.4 153.8,633 153.5,679.6 		"/>
		<polyline class="st0" points="153.5,650.9 153.5,647.8 154.5,649.4 155.4,670.2 154.2,695.4 		"/>
		<polyline class="st0" points="154.9,667.4 152.6,682.1 152.8,698.1 		"/>
		<polyline class="st0" points="310.6,662.3 309.9,673.2 310.4,685.4 311.4,687.4 311.4,667 312.5,688.9 312.3,713 		"/>
		<polyline class="st0" points="311.6,668.2 314.9,740.8 316.3,751.1 318,755.8 317.9,743.1 		"/>
		<polyline class="st0" points="316.4,699.7 315.8,713.4 317.1,745.9 319.2,771.5 320.5,776.2 		"/>
		<polyline class="st0" points="320.5,725.7 318.5,737.7 319.2,806.5 		"/>
		<polyline class="st0" points="151.5,693.2 148.3,711 148.9,714.6 149.2,713.6 		"/>
		<polyline class="st0" points="150.9,692 150.9,718.4 147.9,750.6 147.6,743.5 149.6,713.8 150.5,768.5 152.8,779.2 		"/>
		<polyline class="st0" points="194.8,455.6 191.9,491.8 192.2,508.3 193.1,475.1 		"/>
		<polyline class="st0" points="193,457.6 190.3,511.3 190.7,518.5 192.8,487.1 193.6,483.4 192.3,530.1 192.7,514.5 194.6,491.2 
			195.5,529.1 196.3,513.9 198.9,502.8 197.9,529.3 201.2,506.4 201.3,513.6 202.6,522 204.2,505 204.9,524.2 205.9,528.1 
			207.8,504.2 209.7,523.6 211.9,511.6 213.5,528.6 215.2,513.8 217.1,528.1 217.9,527.6 219.1,516.5 220.4,524.3 221.7,525.2 
			223.4,508 224.2,518.3 226.9,524.8 		"/>
		<polyline class="st0" points="268.7,517.8 268.7,526.5 268.7,512 271.1,529.1 272.6,522.7 273.2,508.1 274.8,526.9 276.3,531.2 
			276.7,514.7 275.7,500.8 276.6,497.1 280.3,523.4 281.8,525.5 282.8,493.8 284.2,520.3 286.1,529.2 286.8,522.6 286.1,497.7 
			286.5,478 290,519 291.4,524.3 291.9,466.1 291.5,479 294.7,529.9 296,529.5 		"/>
		<polyline class="st0" points="173.6,557.7 177.5,567.4 180.8,569.9 		"/>
		<polyline class="st0" points="174.2,552.9 173.6,561 179.9,584.8 181,585.4 180.3,578.2 		"/>
		<polyline class="st0" points="174.3,559.1 173.2,559.1 174.5,568.1 178.9,586.8 184.3,604.2 188.9,607.9 188.9,607.2 		"/>
		<polyline class="st0" points="174.7,567.1 173.3,571.2 178.1,586.9 190.6,609.9 195.5,615.8 		"/>
		<polyline class="st0" points="185.6,600.7 185.7,605.3 191.8,615.3 196.1,617.4 205.2,615.5 207.3,611.6 208.2,602.2 		"/>
		<polyline class="st0" points="203.5,585.7 206.5,609.4 208.7,618.2 209.6,615.5 		"/>
		<polyline class="st0" points="209.5,573.3 207.4,582.5 205,606.8 205.1,610.3 206.5,605.8 208,595.5 		"/>
		<polyline class="st0" points="211.3,570.7 206.2,603.6 213.5,567.3 204.8,614.9 212.9,566.5 210.4,573.8 204.7,612.8 202.6,614.6 
					"/>
		<polyline class="st0" points="159.4,595.7 158.8,598.6 164.1,615.1 168.9,626.3 179,642.8 186.2,652.5 198.6,665.9 206.7,669.8 
			214.8,671.1 225.9,669.5 232.1,662.9 235.7,650.9 238.3,638.8 239.7,626.9 238.5,601 238.7,593.8 240.9,581.2 240.6,621.7 
			237.9,630.9 		"/>
		<polyline class="st0" points="218.7,551.2 213.3,557.8 214.4,568.1 216.9,573.7 224.8,580.6 234.6,579.7 242.3,575.8 245,570 
			243.9,561.5 239.3,555.1 233,548.9 221.9,546.6 216.2,550.4 212.8,556.5 213,565.5 		"/>
		<line class="st0" x1="218.2" y1="557.1" x2="222.3" y2="571.9"/>
		<polyline class="st0" points="224,560.4 228.9,572.9 229.9,570.5 		"/>
		<polyline class="st0" points="230.9,559 234,568.1 236.9,580.5 238,579.5 		"/>
		<polyline class="st0" points="215,451.6 223.9,462 230.7,466.2 234.4,466.3 		"/>
		<polyline class="st0" points="253.6,444.3 252,452.7 247.9,465.6 250.5,463 		"/>
		<polyline class="st0" points="230.7,489.5 236.5,476.5 246.1,476.6 253.4,494.3 254.8,494.5 		"/>
		<polyline class="st0" points="302.1,547.3 294,545.9 291.5,543.4 291.9,540.6 299.7,548.7 309,564.2 319.2,578.6 322.3,586.9 		
			"/>
		<polyline class="st0" points="310.1,562 314.9,568.5 327.5,590.8 330.5,607.2 		"/>
		<polyline class="st0" points="324,585.1 329.8,604.2 334,625.6 335.5,641.4 		"/>
		<polyline class="st0" points="332.9,626.7 336.2,639 341.2,675.4 344.8,694.9 345.4,693.2 		"/>
		<polyline class="st0" points="340.9,661.9 345.1,721.7 348,747.8 348.5,748.5 348.4,740 		"/>
		<polyline class="st0" points="347,711 346.5,723.1 347.2,735.9 349,758.8 350.1,763.3 		"/>
		<polyline class="st0" points="277.3,534 275.8,566.6 277.5,569.4 		"/>
		<polyline class="st0" points="278,538.3 276.5,583.2 277.1,588.5 278.6,590.3 		"/>
		<polyline class="st0" points="281,536.7 280.1,548.9 279.1,610.2 282.2,619.9 282.7,618.2 		"/>
		<polyline class="st0" points="279.8,575.6 277.3,584.1 283.2,622 290.9,649.3 293.9,653.6 		"/>
		<polyline class="st0" points="289.5,637.5 294.2,651.6 306.8,669.1 317.8,681.7 318.1,680.9 		"/>
		<line class="st0" x1="269.5" y1="528.4" x2="267.8" y2="538.7"/>
		<polyline class="st0" points="267.3,532.4 264.9,554.1 266.1,563.2 		"/>
		<polyline class="st0" points="266.8,535 264.9,560.4 264.6,590.4 265,594.5 266.1,591.5 		"/>
		<polyline class="st0" points="265.8,554.7 264.3,559.3 264.7,575.6 267.1,613.9 269.8,630.7 		"/>
		<polyline class="st0" points="265.9,595 265,593.4 264.7,597.2 270,627.4 279.8,661.4 281.7,664.5 		"/>
		<polyline class="st0" points="274.9,643.4 277.5,655.2 282.2,663.3 294.7,680.6 306.3,695.2 305.3,693 		"/>
		<line class="st0" x1="298.7" y1="684.4" x2="316.2" y2="707.6"/>
		<polyline class="st0" points="206.1,529.8 204,541.9 202.6,561.3 202,563.3 201.8,555.8 204.1,537.6 202,550.3 197.5,593.5 
			196.6,595.1 196,590.2 191.4,613.2 		"/>
		<polyline class="st0" points="154.8,662.4 163.5,653.7 173.1,640.8 173.7,636.9 170.7,641.6 155.6,659.1 		"/>
		<line class="st0" x1="162.1" y1="651.5" x2="171.2" y2="638.5"/>
		<polyline class="st0" points="158.4,690.8 166.6,685.7 178.2,676 187.5,663.9 185.6,661.5 184.3,661.5 184.5,659.9 189.8,652.2 
			183.2,664.9 160.3,701 		"/>
	</g>
</g>
<g id="_x34_6-비">
	<g>
		<polyline class="st0" points="66.6,40.8 50.8,65.3 48.1,82.7 47.2,114.2 49.9,124.4 61.5,126.1 65.1,91.9 66.2,60.1 69.1,41.9 		
			"/>
		<polyline class="st0" points="113.7,167.5 102.8,205.9 102.4,225.4 112.6,257.7 122.1,249.8 122.9,219.9 117.7,188.7 115.9,171.4 
			117.5,168.6 		"/>
		<polyline class="st0" points="308.6,192 298.5,216.4 296.2,231 296.5,257.6 299.1,265.1 309,265.8 311.4,239.4 307.7,204.7 
			306.1,197.2 303.5,190.8 305.1,191.3 		"/>
		<polyline class="st0" points="218.4,63.2 208.7,60.9 207,67.1 206.4,102 214.3,109.8 217.4,106.9 221.1,91.3 218.5,73.5 
			215.1,64.4 215.1,62.9 219.7,56.4 		"/>
		<polyline class="st0" points="408.7,238.8 402.1,258 401,266.5 401.5,281 403.9,286.3 412.6,289.5 415.8,277.7 406.3,240.8 
			406.9,235.3 		"/>
		<polyline class="st0" points="435.2,60.8 427.2,78.7 425.9,89.2 427.6,104.9 430.7,106 440,95 433.8,74.1 433.2,59.4 437.6,53.7 
					"/>
		<polyline class="st0" points="42.7,337.9 34.4,348.6 31.1,355.4 29.8,381.3 39.1,394.3 41.5,393.3 43.5,375.7 39.4,355.5 
			39.2,340.4 42,338.9 		"/>
		<polyline class="st0" points="477,446.6 469.9,475.6 471.6,483.7 484.5,496.1 490.7,490.5 484.6,467.7 476.6,442.5 476.1,438.8 
			477.2,439.5 		"/>
	</g>
</g>
<g id="_x34_6-구름-1">
	<g>
		<polyline class="st0" points="49.4,18.3 38.3,15.6 20.8,22.3 15.8,30 16.7,54.1 24.1,59.5 50.1,61.5 55.4,58.7 59.2,51.2 
			57.6,50.8 56.7,59.5 83.1,84.5 112.6,75.1 111.9,61.9 119.6,64.6 142.1,64 147.3,45.3 134.5,31.6 138.5,28.8 146,15.7 130.6,7.9 
			129.9,8.4 133.7,4.7 115.3,-6.3 97.9,-0.1 100,5.1 98.4,-3.7 72.3,-7.9 69.4,1.4 72.8,1.9 49.1,-5.3 38.3,14.2 44.7,21.8 
			49.6,22.9 		"/>
	</g>
</g>
<g id="_x34_6-구름-2">
	<g>
		<polyline class="st0" points="211.3,17.4 199.4,16.9 194,19.9 173.9,39 173.3,64.8 181,68.9 207.7,63.2 210.4,52.9 224.4,76.8 
			257.6,80.4 268.2,61.9 269,56.9 287.5,64.4 315.4,51 305.8,27.1 305.1,27.3 321.6,18.7 313.5,6.5 295.9,9.5 293.8,7.3 259.7,-8 
			224.3,0 216.5,17.3 226.9,19.7 219.2,8.9 198.3,27.4 198.3,30 		"/>
	</g>
</g>
<g id="_x34_6-구름-3">
	<g>
		<polyline class="st0" points="372.8,38.7 355.7,40 351.5,47.5 349.9,81.9 388.1,85.7 396.4,77.4 398.3,95 426.4,110.3 
			435.6,100.6 441,96.5 468.5,100.1 486.5,77.9 477.3,61.8 488.6,63.2 504.7,43.5 487.4,23.7 484.5,23.8 493.8,16 473.1,-1.9 
			452.4,8.2 454.3,16.3 440.8,0.8 415.2,3.8 405.5,17.6 393.8,8.2 369.6,10 365.2,33 384.5,45.4 		"/>
	</g>
</g>
<g id="_x34_6-우산">
	<g>
		<polyline class="st0" points="222,550.6 218.4,537.4 216.9,502 216.4,460.6 216.9,448 221.8,411.3 224.3,418.3 		"/>
		<polyline class="st0" points="232.7,549.6 229.5,516.8 228.6,451.9 230.8,414.3 233.3,395 234.7,391.9 235.6,401.8 		"/>
		<polyline class="st0" points="201.2,316.4 179.2,322.5 170.5,327.9 152.2,344.3 132.3,369 118.4,392 109.4,424.9 109.2,440.8 
			107.1,445.9 108.7,444.3 112.3,442.8 116.1,439.4 		"/>
		<polyline class="st0" points="115.7,449.5 117.8,439.4 128.2,432.6 144.9,433.8 180.3,444.4 190.8,452.7 193.7,462 194.5,461.8 		
			"/>
		<polyline class="st0" points="206.1,462.3 207.1,452.4 209.8,448.9 215.2,445.1 234.6,439.2 257.1,440.8 272.8,447.3 283.9,461.6 
			289,463.5 		"/>
		<polyline class="st0" points="285.8,462.5 283.7,460.8 285.4,453.1 300.2,442.5 318.8,439.5 342.2,445.6 351.8,453.1 350.7,454.2 
					"/>
		<polyline class="st0" points="196.9,319.2 202,310.9 208.1,308.2 215.2,307.7 266.8,310 283,314 305.9,322.9 338.7,342.1 
			351.4,350.5 381.2,373.2 394.9,391.1 407.6,411.7 414.4,436 414.3,445.3 412.8,446.4 		"/>
		<polyline class="st0" points="354.2,453.9 364,441.2 394.9,435.1 402.9,437.5 413.6,443.2 417.9,451 		"/>
		<polyline class="st0" points="255.5,311.4 244.8,317.8 226.3,343.5 208,380.3 199.6,421.4 200.9,455.4 199.4,463.8 		"/>
		<polyline class="st0" points="255.2,315.7 266.6,348.6 285.5,413.6 287.4,435.4 287.3,453.5 286.1,460.3 		"/>
		<polyline class="st0" points="261.7,316.5 272,320.1 315.5,349.8 321.2,355.5 338.3,377.5 341,382 344.7,391.6 355.1,436.7 
			356.1,451 355.6,458.6 		"/>
		<polyline class="st0" points="251.9,310.6 246.1,302.7 246.6,275.6 255.2,274.6 265.2,278 267.1,315.2 267.1,319.1 266.4,320 		
			"/>
	</g>
</g>
</svg>
