<?xml version="1.0" encoding="utf-8"?>
<!-- Generator: Adobe Illustrator 26.2.1, SVG Export Plug-In . SVG Version: 6.00 Build 0)  -->
<svg version="1.1" id="레이어_1" xmlns="http://www.w3.org/2000/svg" xmlns:xlink="http://www.w3.org/1999/xlink" x="0px"
	 y="0px" viewBox="0 0 535 757" style="enable-background:new 0 0 535 757;" xml:space="preserve">
<style type="text/css">
	.st0{fill:#FFFFFF;}
	.st1{fill:none;stroke:#000000;stroke-width:2;}
</style>
<g id="레이어_1_00000110442472002970665580000013290074936817941928_" xmlns:ev="http://www.w3.org/2001/xml-events">
	<rect class="st0" width="535" height="757"/>
</g>
<g id="_x34_8-비">
	<g>
		<polyline class="st1" points="172.3,40.2 168.8,48.8 165.9,63.6 165.6,72.3 168.5,77.3 171.9,74.7 175.6,64.3 176.4,56.9 
			176.1,47.5 174.6,37.8 175.3,38.7 		"/>
		<polyline class="st1" points="156.8,158.8 155.1,169.6 155,176.4 157.1,184 159.6,187.9 160.1,188.1 162,185.5 163.8,178.8 
			163,167.2 158,154.4 		"/>
		<polyline class="st1" points="155.1,291.4 154,308.4 154.5,311.5 158.4,318.6 161.3,318.8 163.8,314.4 164.6,306.6 157.8,283.2 		
			"/>
		<polyline class="st1" points="249.4,38.8 243.7,54.3 243.4,57 244.7,64.6 246.9,66.4 249.2,65.4 253.2,57.2 253.6,55 252.5,48.2 
			248.3,39.8 249.2,39.1 		"/>
		<polyline class="st1" points="222.8,100.5 219.6,120.2 222.3,123.3 223.6,123.1 233.6,110.8 233.7,105.3 233,103.5 228.5,98.9 
			227.5,96.4 228.5,96.3 		"/>
		<polyline class="st1" points="390.3,31.9 384.6,46.2 384.6,48.9 391,52.5 395.4,49.3 394.4,41 388,25.5 		"/>
		<polyline class="st1" points="451.6,64.2 443.1,77.3 442.3,81.7 444.6,84.4 449.7,82.9 451.4,79.3 453.4,70.6 452.7,60.5 		"/>
		<polyline class="st1" points="473.5,155.4 470.4,167.6 470.2,169.9 471.4,173.3 477,170.6 479.8,165 478.9,157.6 476,146.7 		"/>
		<polyline class="st1" points="494.4,241.3 492,253.2 491.2,268 492.7,277 493.5,277.7 497.6,276.2 499.6,267.5 499.7,261.9 
			497.8,246.6 498.2,242.3 		"/>
		<polyline class="st1" points="492.9,343.2 490,361 490.6,366.7 493.4,367.1 496.5,361.1 496.9,358.8 497.2,352.4 495.1,342.4 		
			"/>
		<polyline class="st1" points="93.5,47.6 90.3,66.8 90.2,71 92,79.1 93,79.4 96.8,73.8 99.1,57.6 98.7,53.8 94.8,44.1 92.5,40.8 		
			"/>
		<polyline class="st1" points="104.8,136.1 101.3,152.3 102.2,162.6 102.8,163.1 107,160.2 110.1,147.2 109.4,134.6 107.9,129.2 
			107.2,128.4 105.7,128.8 		"/>
		<polyline class="st1" points="39.7,98.7 36.7,120 39.5,125.3 41,125.7 44.3,123.3 45.1,121.2 45,108.5 42.5,99.3 38.2,93.8 		"/>
		<polyline class="st1" points="23.7,43.9 26.6,35.1 26.7,32.5 26.4,25.2 23.2,14.4 18.6,28.4 16.3,44.7 18.8,48.3 20.6,47.9 
			25.6,42.6 		"/>
		<polyline class="st1" points="65.2,210 63.1,225.5 63.9,233.6 64.8,235.1 67.8,235.5 69.2,224 69,216.7 66.7,209.8 62.4,202.2 
			63.2,202.1 		"/>
		<polyline class="st1" points="28.3,288.8 25.6,302.6 25.5,305.8 26.6,310.6 28,311.5 31.5,311.3 33.7,307.5 34.2,301.9 
			32.1,293.1 28.5,285.2 		"/>
		<polyline class="st1" points="98.5,347.9 98.8,365.3 100,367.8 103.6,369.8 105.8,368.7 107.5,357.3 105.8,348 102.1,341.4 
			97.2,335.5 		"/>
		<polyline class="st1" points="42.4,414 40.6,424.1 39.7,449.3 40.4,453.3 45,452.6 45.4,450.2 44.7,445.9 40.9,429 37.6,418.4 		
			"/>
		<polyline class="st1" points="113.1,510.9 111.9,520.2 112.3,523 114,526 116.8,527.6 119.1,527.9 121.4,527.1 122.4,525.1 
			122.5,521.7 114.9,497.7 112.7,515.8 		"/>
		<polyline class="st1" points="35.5,568.4 33.4,577.5 31.2,593.7 31.6,595.5 		"/>
		<polyline class="st1" points="33.6,596.2 40.5,591.1 39.5,582 35,573.3 35.2,572.3 		"/>
		<polyline class="st1" points="173.7,442.8 169.7,454.6 168,463 166.8,475.8 166.9,478.1 168.8,477.9 174.1,472.4 174,466.7 
			170.6,454.2 170.4,448.2 		"/>
		<polyline class="st1" points="148.4,598.6 156.2,601.8 160.3,594.8 161.9,586.3 161.4,573.7 159.9,567.7 157.8,563.1 156.7,562.8 
			146.4,595 147.4,601.5 		"/>
		<polyline class="st1" points="504.5,420.5 504.8,439 505.5,440.1 507.5,441.1 508.5,440.5 512.8,430.5 513.4,427.5 512.4,417.7 
			510.3,410.3 508.8,406.6 508.3,407.6 		"/>
		<polyline class="st1" points="442.3,479.6 443.3,498.3 444.3,500.1 446.5,501.8 449.1,498.9 450.3,493.2 449.2,484 444.2,467.1 		
			"/>
		<polyline class="st1" points="474.3,532.7 473.1,549.1 474,552.4 476.3,554.4 477.5,554.4 480.2,547.4 481.2,541.1 480.7,531.2 
			477.5,521 475.4,516.7 		"/>
		<polyline class="st1" points="496.8,606.8 496,628.4 498.2,634.1 501.6,635 503.8,632 504.4,625.3 498.2,605 		"/>
		<polyline class="st1" points="96.4,620.8 95.1,635 98.4,638.5 102.6,637.3 104.1,631.2 98.9,613.3 		"/>
		<polyline class="st1" points="327.9,17.3 324.2,38.2 324.6,46.4 326.4,47.7 328.5,47.5 332.1,44.7 333.4,41.9 333.8,38.3 
			329.4,27 327.7,20.4 		"/>
		<polyline class="st1" points="494.3,29.2 493.2,39.6 493.3,49.9 494.5,52.4 497.3,52 498.7,50.4 498.4,43.4 494.8,27.8 		"/>
	</g>
</g>
<g id="_x34_8-사람">
	<g>
		<polyline class="st1" points="231.4,254.1 225.1,259.2 220.7,265 216.5,274.9 214.1,286 213.9,292.8 215.3,299.2 223.3,310.5 
			229.1,314.9 235.1,317.8 239.4,319 252.9,318.9 268.8,315.2 277.3,312.2 289.2,304.5 291.8,301.8 295.8,295.2 298.2,287.8 
			298.5,279.6 297.2,267.1 294.7,261.5 290.4,256.4 288.7,254.5 284.3,252.1 270.8,247.6 261.2,246 255.1,246.1 248.7,247.3 
			238.9,251.5 234,254.4 230.2,257.9 		"/>
		<polyline class="st1" points="248.6,323.2 249.3,343.7 248.5,325.9 248,325 247.9,334.7 248.5,341 		"/>
		<polyline class="st1" points="266.1,326.2 268,341.5 267.9,317.9 268.6,337.8 		"/>
		<polyline class="st1" points="250.5,346.9 259.6,353.1 261.7,353.7 264.5,351 271,338.4 260.7,352.3 260.1,352.1 		"/>
		<polyline class="st1" points="236.4,349.6 214,368.4 224.7,358.6 241.2,345.6 242.5,343.6 		"/>
		<polyline class="st1" points="282.5,342.7 289.5,349.2 310.3,364.3 299.8,355.9 276.5,340.6 		"/>
		<line class="st1" x1="240.4" y1="413.2" x2="249.8" y2="435.6"/>
		<polyline class="st1" points="227.8,385.3 233.3,400.8 240.5,412.3 235.7,405.4 231.9,397.8 229,389.5 228.9,387.2 		"/>
		<polyline class="st1" points="289.8,400.1 286.6,427.6 288.6,413.9 296.7,384 294.1,396.3 292.3,419 290,431.1 		"/>
		<polyline class="st1" points="240.5,450.5 236.5,459.7 232.7,471.5 240.6,460.9 242.4,453.5 248.7,439.4 248.6,438.1 242.9,447.9 
			240,456.8 237.7,466.4 238.8,468.5 246.8,468.1 272.5,462.1 285,461.6 310,462.8 309.2,457.7 303.3,446.2 297.8,438.5 
			296.2,432.3 		"/>
		<polyline class="st1" points="214.5,389.5 213.3,398.8 213.7,403.7 		"/>
		<polyline class="st1" points="210.5,386.8 211.7,403.9 214.8,369 212.7,379.4 210.8,400.3 		"/>
		<polyline class="st1" points="316.9,383.9 318.2,393.3 320.8,401.3 321.7,402.6 321.1,399.9 315.5,384.7 308.7,369.5 308.1,364.4 
			315.3,384.6 316.8,385.3 		"/>
		<polyline class="st1" points="237.2,484.8 234.7,514.9 233.6,588.5 235.4,633.4 236.9,646.8 247.7,644.5 262.9,643 268.6,643 
			272.6,644.2 277,646.9 279.4,645.7 		"/>
		<polyline class="st1" points="307.2,477.6 310.6,535.7 316.8,591.1 323.7,643.6 315.8,644 309.1,646 282.3,649 267.4,648.7 		"/>
		<polyline class="st1" points="270.1,516.2 271,559.3 273.6,607.4 277.2,642.5 277.3,651.1 		"/>
		<polyline class="st1" points="224.3,648.5 215.1,650.6 212.2,653.2 211,656.7 210.9,661.3 212.5,665.8 215.1,668.2 219.9,669 
			226.2,668.4 232.1,666.9 255.5,658.5 266.7,653.1 270.1,649 270.8,646.5 264.5,645.2 		"/>
		<polyline class="st1" points="281.5,650.7 285.3,659.6 288,661.1 296.1,661.1 306,658.5 327.7,655.8 335.7,652.2 338.9,650 
			340.4,647.6 339.3,646 336.4,644.4 330.3,643.8 320,647.2 		"/>
		<line class="st1" x1="240.7" y1="283.1" x2="240.5" y2="282.5"/>
		<line class="st1" x1="241.2" y1="285" x2="240.5" y2="284.5"/>
		<polyline class="st1" points="239.8,295.6 234.5,286 235.4,281.2 239.4,282.7 241.1,288.7 240.9,291.7 239.3,291 236.9,284.6 
			237.3,281.3 239.3,283.5 242.4,292.4 243.2,296.8 239.7,290.6 238.9,286.5 238.6,290.7 237.6,289.5 236.1,284.9 237.9,290.5 
			236.9,287.4 237.2,286.3 		"/>
		<polyline class="st1" points="268.1,286.8 264.6,278.1 265.9,275.8 268.3,276.9 271.2,284.8 271.7,290.2 270.4,290.2 266.6,284.9 
			264.8,279.5 266.2,277.7 268.1,280.1 268.8,284.7 267.9,288.1 267.6,280.5 269.2,281.4 269.6,285.3 268.8,287.3 267.1,286.5 
			264.7,281.3 264.9,279.3 266.5,281.7 266.6,284 265.6,285.6 265.3,282.4 268,285.9 		"/>
		<polyline class="st1" points="254.2,308.5 262.4,309.2 264.5,308 266.9,305 264,300.8 260.6,299.1 257.5,299.1 254.8,300.5 
			253.5,302.8 253.2,306.9 255.2,309.5 257.7,309.8 258.1,308.4 		"/>
		<line class="st1" x1="231.2" y1="269.4" x2="233.1" y2="277.5"/>
		<polyline class="st1" points="232,263.9 232.4,272.9 233.3,276.5 		"/>
		<polyline class="st1" points="246.7,259.9 250.7,267.2 252.3,273.3 247.7,256.3 		"/>
		<polyline class="st1" points="257.7,261 262.1,270.9 262.9,270.9 262.4,266 259.4,253.5 264.6,265.1 		"/>
		<polyline class="st1" points="272.4,259.3 276.6,269.3 271.3,257.8 270.8,255.4 275.3,264.7 273.2,258.3 		"/>
		<polyline class="st1" points="280.7,263.1 285.8,272.2 281.1,259.6 280.5,255.7 286.7,266.5 284.4,260 287.9,268.7 		"/>
		<polyline class="st1" points="241.5,273.2 242.2,264.8 241.2,259.4 242.2,268.6 241.7,257.9 242.3,268.7 242.9,266.1 		"/>
		<polyline class="st1" points="224,277.5 223.9,268.8 225.2,265.4 223,279.6 225.2,272.4 225,265.7 222.9,277.7 223.3,278.2 		"/>
		<polyline class="st1" points="322,405.1 328.9,382.6 331.6,369.4 328.2,384.4 323.6,400.2 		"/>
		<polyline class="st1" points="296.5,396.8 315.8,429.7 322.8,436.8 332.1,414.2 336.3,406.8 345.3,386.5 348,377.4 347.7,376.3 
			345.9,378.4 343.6,378.8 339.2,376.4 332.3,368 331.4,360.5 335.7,355.6 342.2,354.2 346.8,357 349.5,363.9 349.2,370.6 
			345.9,373.8 341.4,372.8 336.3,366.5 335.6,358.9 338.7,352.9 344.1,352.9 348.7,358.5 348.8,367.5 342.3,373 336.1,367.4 
			333.9,360.1 337.6,356.7 344.1,361.6 344.3,368.7 339.5,372.3 334.3,367.7 334,360.3 339,359.4 343.3,366.4 341.8,370.1 
			337.7,367.1 338,361 342.8,359.4 345.2,364.4 343.1,367.6 339.2,366.4 340.1,359.2 343,359.5 345.3,365.6 342.6,365.7 
			341.1,359.2 344.2,356.8 346.6,362.2 343.6,364.9 338.7,359.6 341.2,355.2 344.8,356.8 342.2,366.2 338.3,367.2 338.2,362.6 
			342.5,362.7 343.3,366.5 		"/>
		<polyline class="st1" points="209.4,400.9 198.9,400.4 188.9,401.7 157.8,400.9 149.1,401.8 181.5,402.2 194,404.1 215.4,403.3 
			216,403.1 215.8,401.6 215.5,403.8 		"/>
		<polyline class="st1" points="137.6,421.7 129.9,415.6 128.2,403.2 131,392.2 136.9,389.6 145.1,391.8 150.9,399.3 151.1,407.8 
			145.2,414.5 135.6,414.1 131.2,406.4 132.7,394.3 139.8,389.9 147.4,400.6 144.4,413 136.1,417.3 130.3,412.2 131.4,400.6 
			137.9,395.1 144,400.8 141.9,413.4 136.1,414.1 132,406.1 135.8,397.5 143.9,400.9 145.3,410.6 138.2,411.2 135.1,402.4 
			138.2,396.3 142.5,403.8 142.2,410 140,407.6 142.1,399.5 144.1,405.4 140.1,409.3 137.2,403.7 139.5,399.6 145,402.9 145.6,409 
			140.6,406.5 138,399.6 139.7,397 142.7,405.6 141.9,409.4 146.7,409.3 147.7,414.5 145,419.1 148.6,419.3 167.9,415.7 
			174.3,415.7 213,422.8 223,423.9 226,423.7 227.9,422.4 228.3,421.1 230.2,394.2 232.2,391.7 		"/>
		<polyline class="st1" points="236.6,468.1 234.7,491.4 234.8,483.9 237.8,472.3 235.7,488.2 		"/>
		<polyline class="st1" points="304.3,475.3 303.6,463.4 305.1,475.8 304.8,463 305.6,482.1 305.1,486.7 		"/>
	</g>
</g>
<g id="_x34_8-지면">
	<g>
		<polyline class="st1" points="64.4,669.6 73.1,668.6 123.2,667.8 149.1,665.5 182.6,664.2 199,664 217.4,665 		"/>
		<polyline class="st1" points="374.1,651 474.8,652.7 506.9,655.1 528.7,655.3 		"/>
		<polyline class="st1" points="364,652.2 349.9,652.5 335.8,653.8 376.1,649.1 		"/>
		<polyline class="st1" points="61.3,668.7 49.3,667.7 -2.3,673.6 17.1,670.7 41.7,669 65.4,670.1 		"/>
	</g>
</g>
<g id="_x34_8-우산">
	<g>
		<polyline class="st0" points="206.4,177.1 224.4,152.4 242.1,133.6 262.4,119.3 278,111.8 302.9,104 319.4,101.7 343.7,99.5 
			357.6,99.4 376.4,102.2 386.3,104.2 399.7,109 407.5,112.9 417.5,119.2 425.4,126.2 437.5,140.4 446.8,155 451.3,165.7 
			455.3,178.7 458.1,191.9 459.2,201.1 459.8,217.4 459,221.6 457.9,222.6 456,222.7 451,221.3 442,217 414.2,206.5 401.8,203.5 
			390.6,202.1 383.8,203.6 369.6,212.8 340.5,226.2 328.2,227.2 322.1,226 298.3,216.9 289,214.4 272.8,211.6 263.6,211.6 
			242.5,215.8 231.8,221.1 219.8,229.1 213.4,232.3 202.6,236.9 196.1,237.8 191.6,234.9 190.2,231.9 192.2,214.5 194.6,202.7 
			198.5,190.5 202.4,183 216.9,165.2 		"/>
		<polyline class="st0" points="337.2,243.9 336.6,261.7 341,312.1 		"/>
		<polyline class="st0" points="351.2,234.5 350.3,243.1 350.7,319 352,337.1 352.7,332.8 351.7,296.1 352.9,251.8 352.3,242.3 
			350.4,224.8 349.6,231.4 349.4,287.6 351.4,344.6 		"/>
		<polyline class="st0" points="336.3,248 338.9,265 338.9,272.2 337.4,252.5 336.3,228.5 336.3,250.6 339.2,296.4 339.7,330.6 
			340.6,339.4 341.4,341.9 342,340.7 348,341 354,339.5 342.5,339.4 344.2,343 345.7,351.9 345.5,356.6 343.2,364.1 339.8,364.6 
			336.3,362.2 334.4,359.3 333.1,353.1 330.2,359 329.5,365.2 332.7,370.8 337.5,374.1 341.6,375.3 348.3,375.3 353.2,372.6 
			356.1,369.4 359.1,362.3 360.8,348.5 358.5,342.3 356.4,340.6 351.6,339.7 351,337 		"/>
		<polyline class="st0" points="322.7,94.2 316.5,67.1 320.8,68.9 331.1,70 332.4,70.9 332.4,91.3 332.7,92.3 334.8,92.4 		"/>
		<polyline class="st0" points="310.3,107.4 299.3,116.7 276.6,143.9 261.6,165.3 243.9,193.5 238.7,203.5 234.8,213.2 		"/>
		<polyline class="st0" points="316.3,109.1 313.4,127.9 313,160.7 316.4,200.2 319.2,220.3 320.1,220.9 		"/>
		<polyline class="st0" points="341,109.6 357.5,151.2 365.3,167.7 370.5,183.3 374.4,205.5 375,205.9 		"/>
		<polyline class="st0" points="345.9,108.2 361.1,118.8 384,138.1 395,152.2 410,175.4 421.5,196.1 424.7,205 		"/>
	</g>
</g>
</svg>
