<?xml version="1.0" encoding="utf-8"?>
<!-- Generator: Adobe Illustrator 26.2.1, SVG Export Plug-In . SVG Version: 6.00 Build 0)  -->
<svg version="1.1" xmlns="http://www.w3.org/2000/svg" xmlns:xlink="http://www.w3.org/1999/xlink" x="0px" y="0px"
	 viewBox="0 0 535 757" style="enable-background:new 0 0 535 757;" xml:space="preserve">
<style type="text/css">
	.st0{fill:#FFFFFF;}
	.st1{fill:none;stroke:#000000;stroke-width:2;}
</style>
<g id="레이어_1" xmlns:ev="http://www.w3.org/2001/xml-events">
	<rect class="st0" width="535" height="757"/>
</g>
<g id="_x34_9-비">
	<g>
		<polyline class="st1" points="105.5,121.7 170.5,115.7 202.5,110.7 218.5,109.7 247.5,110.7 287.5,115.7 		"/>
		<polyline class="st1" points="148.5,141.7 145.5,162.7 141.5,172.7 		"/>
		<polyline class="st1" points="189.5,142.7 182.5,149.7 179.5,162.7 177.5,177.7 		"/>
		<polyline class="st1" points="220.5,141.7 222.5,137.7 222.5,138.7 221.5,144.7 219.5,149.7 216.5,165.7 		"/>
		<polyline class="st1" points="251.5,139.7 238.5,167.7 239.5,167.7 		"/>
		<polyline class="st1" points="269.5,141.7 270.5,146.7 270.5,169.7 267.5,192.7 267.5,207.7 265.5,222.7 265.5,237.7 263.5,263.7 
			256.5,310.7 256.5,325.7 257.5,332.7 257.5,343.7 256.5,346.7 		"/>
		<polyline class="st1" points="110.5,147.7 109.5,152.7 109.5,158.7 111.5,163.7 111.5,165.7 108.5,170.7 104.5,174.7 		"/>
		<polyline class="st1" points="83.5,147.7 74.5,168.7 73.5,173.7 67.5,189.7 65.5,198.7 60.5,209.7 39.5,271.7 33.5,285.7 
			29.5,298.7 13.5,332.7 		"/>
	</g>
</g>
<g id="_x34_9-사람">
	<g>
		<polyline class="st1" points="122.5,218.7 123.5,219.7 124.5,213.7 116.5,213.7 111.5,215.7 107.5,220.7 106.5,224.7 103.5,228.7 
			102.5,231.7 101.5,231.7 101.5,236.7 100.5,238.7 99.5,245.7 98.5,246.7 98.5,260.7 97.5,261.7 97.5,263.7 99.5,267.7 
			101.5,267.7 101.5,268.7 105.5,269.7 106.5,270.7 110.5,270.7 112.5,271.7 123.5,271.7 125.5,270.7 128.5,270.7 129.5,269.7 
			138.5,269.7 139.5,268.7 140.5,268.7 139.5,268.7 137.5,270.7 		"/>
		<polyline class="st1" points="118.5,224.7 122.5,218.7 126.5,217.7 128.5,215.7 132.5,213.7 143.5,213.7 145.5,214.7 149.5,214.7 
			163.5,221.7 166.5,226.7 167.5,231.7 168.5,232.7 168.5,245.7 166.5,249.7 162.5,254.7 144.5,267.7 141.5,267.7 138.5,269.7 
			128.5,269.7 120.5,272.7 120.5,273.7 		"/>
		<polyline class="st1" points="106.5,240.7 110.5,236.7 118.5,232.7 120.5,232.7 118.5,233.7 117.5,235.7 		"/>
		<polyline class="st1" points="133.5,234.7 138.5,231.7 144.5,230.7 148.5,228.7 149.5,228.7 148.5,230.7 144.5,233.7 		"/>
		<polyline class="st1" points="123.5,235.7 126.5,240.7 125.5,241.7 125.5,246.7 126.5,248.7 127.5,248.7 123.5,249.7 		"/>
		<polyline class="st1" points="110.5,266.7 115.5,263.7 135.5,256.7 140.5,256.7 141.5,258.7 		"/>
		<polyline class="st1" points="116.5,285.7 114.5,291.7 114.5,296.7 		"/>
		<polyline class="st1" points="134.5,281.7 138.5,288.7 138.5,293.7 140.5,292.7 		"/>
		<polyline class="st1" points="108.5,301.7 101.5,303.7 87.5,322.7 43.5,371.7 36.5,384.7 35.5,387.7 36.5,388.7 		"/>
		<polyline class="st1" points="151.5,315.7 157.5,315.7 159.5,316.7 		"/>
		<polyline class="st1" points="146.5,299.7 151.5,298.7 172.5,309.7 189.5,325.7 201.5,334.7 215.5,339.7 222.5,339.7 		"/>
		<polyline class="st1" points="106.5,335.7 100.5,339.7 92.5,348.7 63.5,374.7 59.5,376.7 57.5,378.7 52.5,380.7 49.5,386.7 
			48.5,390.7 45.5,393.7 41.5,393.7 41.5,394.7 38.5,394.7 35.5,390.7 34.5,383.7 33.5,383.7 		"/>
		<polyline class="st1" points="142.5,336.7 149.5,338.7 158.5,339.7 170.5,344.7 178.5,350.7 186.5,359.7 192.5,363.7 200.5,366.7 
			202.5,366.7 204.5,368.7 218.5,375.7 226.5,377.7 227.5,371.7 227.5,364.7 226.5,363.7 222.5,362.7 		"/>
		<polyline class="st1" points="211.5,344.7 209.5,348.7 210.5,352.7 213.5,360.7 216.5,362.7 217.5,366.7 217.5,370.7 214.5,372.7 
					"/>
		<polyline class="st1" points="103.5,342.7 105.5,347.7 105.5,360.7 104.5,365.7 102.5,370.7 95.5,406.7 93.5,410.7 92.5,415.7 
			88.5,426.7 81.5,456.7 79.5,458.7 78.5,461.7 77.5,461.7 79.5,460.7 		"/>
		<polyline class="st1" points="150.5,351.7 144.5,349.7 143.5,348.7 143.5,346.7 144.5,346.7 144.5,348.7 140.5,356.7 140.5,365.7 
			141.5,370.7 143.5,401.7 146.5,428.7 146.5,438.7 143.5,459.7 143.5,469.7 144.5,472.7 146.5,473.7 		"/>
		<polyline class="st1" points="74.5,464.7 79.5,461.7 96.5,461.7 114.5,464.7 123.5,464.7 125.5,465.7 143.5,465.7 144.5,466.7 		
			"/>
		<polyline class="st1" points="98.5,467.7 93.5,466.7 92.5,465.7 92.5,463.7 91.5,465.7 91.5,470.7 89.5,477.7 87.5,481.7 
			85.5,490.7 83.5,494.7 82.5,502.7 		"/>
		<polyline class="st1" points="122.5,467.7 118.5,470.7 117.5,472.7 117.5,489.7 118.5,498.7 117.5,503.7 114.5,508.7 114.5,510.7 
					"/>
		<polyline class="st1" points="66.5,507.7 56.5,515.7 51.5,517.7 42.5,524.7 39.5,524.7 32.5,526.7 31.5,526.7 30.5,524.7 
			33.5,521.7 34.5,522.7 33.5,534.7 35.5,535.7 42.5,535.7 48.5,528.7 49.5,528.7 49.5,532.7 53.5,534.7 56.5,533.7 60.5,530.7 
			61.5,528.7 69.5,522.7 73.5,518.7 73.5,515.7 75.5,511.7 75.5,509.7 72.5,505.7 70.5,504.7 70.5,506.7 		"/>
		<polyline class="st1" points="110.5,514.7 108.5,524.7 103.5,528.7 101.5,532.7 97.5,535.7 95.5,538.7 94.5,538.7 94.5,540.7 
			93.5,541.7 93.5,543.7 94.5,541.7 96.5,541.7 97.5,543.7 102.5,546.7 105.5,549.7 105.5,552.7 105.5,551.7 108.5,550.7 
			109.5,547.7 114.5,541.7 116.5,537.7 119.5,535.7 119.5,533.7 127.5,530.7 129.5,528.7 128.5,528.7 128.5,527.7 131.5,528.7 
			137.5,527.7 140.5,522.7 140.5,520.7 139.5,519.7 137.5,519.7 129.5,516.7 122.5,516.7 112.5,511.7 106.5,511.7 110.5,511.7 		"/>
	</g>
</g>
<g id="_x34_9-구름">
	<g>
		<path class="st0" d="M0,0"/>
		<path class="st0" d="M535,757"/>
		<polyline class="st1" points="58.5,83.7 60.5,77.7 84.5,47.7 89.5,42.7 98.5,37.7 103.5,36.7 114.5,36.7 121.5,38.7 124.5,40.7 
			126.5,42.7 128.5,46.7 128.5,60.7 129.5,67.7 131.5,60.7 135.5,51.7 138.5,46.7 146.5,37.7 167.5,26.7 178.5,22.7 185.5,22.7 
			190.5,31.7 191.5,36.7 194.5,43.7 195.5,47.7 195.5,49.7 194.5,50.7 193.5,49.7 195.5,42.7 204.5,30.7 218.5,19.7 233.5,12.7 
			245.5,10.7 255.5,11.7 267.5,19.7 270.5,24.7 272.5,31.7 273.5,39.7 274.5,58.7 265.5,65.7 264.5,65.7 264.5,66.7 265.5,66.7 		
			"/>
	</g>
</g>
</svg>
