<?xml version="1.0" encoding="utf-8"?>
<!-- Generator: Adobe Illustrator 26.2.1, SVG Export Plug-In . SVG Version: 6.00 Build 0)  -->
<svg version="1.1" xmlns="http://www.w3.org/2000/svg" xmlns:xlink="http://www.w3.org/1999/xlink" x="0px" y="0px"
	 viewBox="0 0 535 757" style="enable-background:new 0 0 535 757;" xml:space="preserve">
<style type="text/css">
	.st0{fill:#FFFFFF;}
	.st1{fill:none;stroke:#000000;stroke-width:2;}
</style>
<g id="레이어_1" xmlns:ev="http://www.w3.org/2001/xml-events">
	<rect class="st0" width="535" height="757"/>
	<rect class="st1" width="535" height="757"/>
</g>
<g id="_x35_8-우산">
	<g>
		<polyline class="st1" points="454.5,333 455.5,333 455.5,324 453.5,317 453.5,313 449.5,300 447.5,297 446.5,293 441.5,287 
			437.5,283 435.5,282 430.5,275 422.5,267 416.5,265 409.5,265 408.5,264 394.5,264 394.5,247 391.5,240 385.5,234 381.5,232 
			374.5,230 371.5,228 355.5,224 343.5,224 326.5,228 323.5,229 321.5,231 322.5,231 325.5,225 325.5,223 326.5,222 326.5,215 
			321.5,206 314.5,203 302.5,203 299.5,204 295.5,204 285.5,207 279.5,210 278.5,212 276.5,212 276.5,211 275.5,211 275.5,208 
			274.5,207 274.5,201 275.5,199 276.5,199 276.5,198 283.5,192 283.5,190 284.5,189 284.5,185 285.5,185 285.5,183 293.5,175 
			300.5,171 300.5,170 306.5,166 310.5,162 320.5,157 325.5,155 327.5,155 335.5,151 338.5,148 340.5,148 347.5,144 351.5,143 
			361.5,141 365.5,141 366.5,140 373.5,140 374.5,139 387.5,139 394.5,141 397.5,141 400.5,143 405.5,144 407.5,146 437.5,160 
			442.5,166 450.5,173 452.5,176 455.5,178 471.5,197 476.5,206 480.5,219 482.5,222 485.5,231 485.5,234 488.5,243 489.5,249 
			489.5,258 491.5,268 491.5,292 489.5,301 474.5,325 470.5,330 465.5,334 464.5,336 462.5,335 		"/>
		<polyline class="st1" points="324.5,229 324.5,228 325.5,228 329.5,221 333.5,217 350.5,206 354.5,202 370.5,195 394.5,182 
			404.5,178 417.5,175 430.5,175 431.5,176 428.5,174 426.5,171 426.5,168 427.5,166 414.5,162 405.5,161 394.5,161 382.5,163 
			368.5,167 308.5,187 302.5,190 289.5,194 287.5,196 		"/>
		<polyline class="st1" points="430.5,175 433.5,175 435.5,182 435.5,189 432.5,214 428.5,225 422.5,237 414.5,247 407.5,258 
			401.5,265 396.5,267 395.5,267 395.5,266 		"/>
		<polyline class="st1" points="434.5,175 439.5,175 439.5,176 441.5,177 441.5,178 444.5,182 446.5,187 448.5,195 453.5,209 
			454.5,216 458.5,229 461.5,246 465.5,276 465.5,292 463.5,307 461.5,314 459.5,328 458.5,328 458.5,329 		"/>
		<polyline class="st1" points="445.5,175 450.5,173 453.5,170 457.5,161 457.5,155 456.5,151 455.5,150 451.5,150 447.5,154 
			441.5,163 441.5,165 438.5,172 438.5,177 437.5,179 		"/>
		<polyline class="st1" points="353.5,242 354.5,240 352.5,239 347.5,240 337.5,248 330.5,256 315.5,278 312.5,281 304.5,292 
			294.5,309 286.5,329 286.5,332 		"/>
		<polyline class="st1" points="355.5,245 354.5,248 353.5,248 346.5,257 331.5,273 325.5,282 318.5,289 310.5,299 309.5,302 
			304.5,309 298.5,323 287.5,345 287.5,347 285.5,351 		"/>
		<polyline class="st1" points="263.5,401 262.5,403 261.5,411 259.5,416 252.5,428 251.5,428 249.5,430 242.5,434 235.5,435 
			231.5,433 228.5,429 228.5,422 229.5,421 229.5,419 231.5,414 234.5,411 235.5,411 236.5,409 239.5,408 240.5,414 241.5,414 
			241.5,418 242.5,418 250.5,408 253.5,401 254.5,393 255.5,393 		"/>
		<polyline class="st1" points="283.5,329 283.5,331 277.5,348 275.5,351 273.5,357 272.5,357 		"/>
	</g>
</g>
<g id="_x35_8-사람">
	<g>
		<polyline class="st1" points="347.5,288 346.5,292 337.5,306 		"/>
		<polyline class="st1" points="355.5,295 356.5,294 356.5,293 355.5,293 349.5,304 348.5,310 		"/>
		<polyline class="st1" points="363.5,302 364.5,302 364.5,301 365.5,301 365.5,302 362.5,305 362.5,307 360.5,309 358.5,313 		"/>
		<polyline class="st1" points="375.5,306 373.5,313 369.5,322 		"/>
		<line class="st1" x1="388.5" y1="313" x2="381.5" y2="328"/>
		<line class="st1" x1="397.5" y1="323" x2="394.5" y2="329"/>
		<polyline class="st1" points="356.5,278 362.5,275 371.5,273 372.5,272 384.5,272 392.5,274 396.5,276 398.5,276 409.5,281 
			417.5,286 422.5,290 426.5,295 434.5,310 434.5,312 436.5,315 437.5,323 438.5,324 439.5,332 440.5,333 441.5,340 442.5,342 
			442.5,356 440.5,364 439.5,365 438.5,370 436.5,373 436.5,375 430.5,389 425.5,397 422.5,406 419.5,411 415.5,415 405.5,431 
			399.5,436 390.5,445 388.5,448 		"/>
		<polyline class="st1" points="337.5,306 337.5,305 337.5,306 336.5,306 336.5,314 333.5,320 331.5,322 328.5,322 327.5,323 
			322.5,324 322.5,325 320.5,325 319.5,326 320.5,328 322.5,329 323.5,332 325.5,333 325.5,340 324.5,340 324.5,342 321.5,346 
			321.5,348 320.5,348 319.5,350 319.5,357 321.5,359 322.5,362 325.5,365 325.5,366 326.5,366 326.5,367 328.5,369 329.5,369 
			329.5,370 335.5,371 336.5,372 340.5,372 341.5,373 343.5,373 344.5,374 346.5,374 350.5,376 357.5,377 358.5,378 360.5,378 
			361.5,379 363.5,379 366.5,381 370.5,382 370.5,384 369.5,384 369.5,385 367.5,386 366.5,389 365.5,389 365.5,390 363.5,392 
			362.5,392 362.5,393 358.5,395 		"/>
		<polyline class="st1" points="379.5,386 379.5,387 378.5,387 373.5,392 373.5,394 371.5,398 		"/>
		<polyline class="st1" points="340.5,308 339.5,306 345.5,306 353.5,310 356.5,313 357.5,316 357.5,319 356.5,319 		"/>
		<polyline class="st1" points="348.5,311 348.5,310 349.5,310 348.5,310 		"/>
		<polyline class="st1" points="346.5,309 344.5,309 340.5,312 339.5,318 344.5,321 349.5,321 353.5,319 354.5,315 351.5,312 
			347.5,311 346.5,310 340.5,310 338.5,311 337.5,314 338.5,318 343.5,321 350.5,321 352.5,317 352.5,314 349.5,310 344.5,310 
			342.5,311 341.5,312 340.5,317 343.5,321 349.5,321 351.5,320 352.5,318 352.5,314 351.5,312 346.5,312 344.5,315 344.5,318 
			347.5,318 347.5,317 349.5,315 349.5,313 		"/>
		<polyline class="st1" points="324.5,347 324.5,348 338.5,348 338.5,349 336.5,351 334.5,351 330.5,354 323.5,355 		"/>
		<polyline class="st1" points="404.5,327 402.5,327 402.5,329 400.5,333 396.5,349 397.5,349 401.5,354 403.5,354 404.5,355 
			411.5,355 414.5,358 414.5,361 405.5,367 402.5,367 400.5,368 395.5,367 393.5,370 393.5,372 392.5,372 392.5,374 388.5,381 
			386.5,387 385.5,389 384.5,389 		"/>
		<polyline class="st1" points="366.5,283 364.5,284 357.5,301 356.5,305 356.5,311 		"/>
		<polyline class="st1" points="374.5,291 373.5,298 368.5,311 366.5,319 366.5,322 		"/>
		<polyline class="st1" points="384.5,298 382.5,304 381.5,305 378.5,317 378.5,324 380.5,324 		"/>
		<polyline class="st1" points="398.5,304 397.5,302 396.5,302 394.5,306 391.5,313 389.5,322 387.5,327 		"/>
		<polyline class="st1" points="403.5,308 401.5,307 399.5,309 391.5,331 		"/>
		<polyline class="st1" points="425.5,380 424.5,383 417.5,393 409.5,409 402.5,418 392.5,426 		"/>
		<polyline class="st1" points="410.5,381 409.5,388 407.5,394 398.5,412 386.5,428 380.5,431 		"/>
		<polyline class="st1" points="392.5,389 387.5,404 384.5,410 375.5,425 369.5,432 		"/>
		<polyline class="st1" points="359.5,436 360.5,437 360.5,444 359.5,446 359.5,453 358.5,454 358.5,457 357.5,458 357.5,465 
			356.5,467 356.5,472 355.5,475 355.5,479 354.5,481 354.5,487 353.5,491 353.5,513 352.5,515 352.5,518 		"/>
		<polyline class="st1" points="337.5,435 338.5,435 338.5,441 333.5,461 332.5,475 326.5,488 326.5,490 324.5,495 324.5,500 
			321.5,508 319.5,510 315.5,518 312.5,521 311.5,521 320.5,521 322.5,522 341.5,522 		"/>
		<polyline class="st1" points="375.5,407 376.5,407 377.5,409 384.5,437 385.5,444 385.5,453 387.5,463 387.5,467 392.5,486 
			392.5,491 395.5,503 396.5,522 397.5,527 397.5,555 396.5,563 394.5,569 394.5,575 393.5,577 		"/>
		<polyline class="st1" points="357.5,397 357.5,394 357.5,400 358.5,400 359.5,403 361.5,405 371.5,409 374.5,409 376.5,410 		"/>
		<polyline class="st1" points="349.5,393 349.5,392 348.5,392 348.5,393 337.5,404 334.5,405 334.5,406 328.5,409 325.5,409 
			325.5,408 316.5,407 316.5,406 315.5,406 315.5,405 314.5,405 314.5,404 313.5,404 312.5,402 311.5,402 311.5,401 309.5,400 
			309.5,399 306.5,396 306.5,395 303.5,392 302.5,392 301.5,390 300.5,390 299.5,385 298.5,385 298.5,383 297.5,383 296.5,380 
			295.5,380 295.5,381 290.5,381 286.5,383 284.5,385 280.5,386 274.5,386 275.5,386 275.5,388 		"/>
		<polyline class="st1" points="273.5,389 273.5,393 276.5,398 279.5,401 279.5,403 282.5,407 282.5,409 284.5,411 289.5,421 
			289.5,424 290.5,426 294.5,431 299.5,435 299.5,436 		"/>
		<polyline class="st1" points="305.5,434 305.5,435 301.5,439 296.5,446 288.5,462 284.5,472 276.5,501 274.5,505 272.5,517 
			265.5,534 264.5,538 264.5,543 265.5,544 		"/>
		<polyline class="st1" points="265.5,538 265.5,540 266.5,540 266.5,544 263.5,556 263.5,571 267.5,587 268.5,587 268.5,585 
			274.5,585 281.5,587 285.5,587 286.5,588 292.5,588 294.5,589 307.5,591 323.5,593 329.5,593 330.5,594 338.5,594 340.5,595 
			365.5,595 369.5,594 380.5,594 384.5,595 385.5,596 387.5,596 387.5,594 		"/>
		<polyline class="st1" points="350.5,520 352.5,519 353.5,523 355.5,526 355.5,530 352.5,529 348.5,525 348.5,524 347.5,524 
			347.5,523 349.5,526 349.5,530 350.5,532 349.5,538 345.5,538 344.5,537 343.5,535 343.5,530 342.5,530 342.5,533 341.5,533 
			340.5,537 336.5,538 334.5,534 334.5,525 333.5,530 331.5,534 330.5,534 330.5,535 329.5,535 329.5,533 328.5,532 328.5,529 
			329.5,528 329.5,526 330.5,526 330.5,528 328.5,531 326.5,532 323.5,532 321.5,528 321.5,524 322.5,523 		"/>
		<polyline class="st1" points="340.5,593 342.5,594 343.5,601 339.5,629 339.5,638 338.5,640 		"/>
		<polyline class="st1" points="318.5,591 319.5,592 320.5,616 322.5,630 322.5,635 		"/>
		<polyline class="st1" points="294.5,587 295.5,585 295.5,587 292.5,592 291.5,596 283.5,609 284.5,609 		"/>
		<polyline class="st1" points="309.5,594 309.5,598 306.5,603 297.5,613 292.5,620 291.5,623 289.5,625 288.5,630 		"/>
		<polyline class="st1" points="295.5,627 297.5,625 297.5,624 291.5,618 285.5,610 279.5,605 277.5,604 273.5,604 272.5,603 
			270.5,603 270.5,605 269.5,605 269.5,606 268.5,606 261.5,613 256.5,620 244.5,631 241.5,638 238.5,638 238.5,637 237.5,637 
			237.5,635 236.5,635 236.5,634 230.5,629 221.5,626 218.5,626 218.5,636 221.5,644 227.5,650 229.5,650 233.5,655 234.5,655 
			243.5,667 248.5,667 249.5,666 254.5,665 260.5,662 279.5,646 285.5,642 287.5,642 		"/>
		<polyline class="st1" points="346.5,631 332.5,631 322.5,630 316.5,631 315.5,632 311.5,633 310.5,634 310.5,647 309.5,649 
			309.5,653 307.5,660 307.5,667 306.5,671 300.5,672 290.5,676 289.5,678 282.5,685 282.5,688 288.5,691 291.5,691 293.5,692 
			315.5,692 318.5,691 329.5,691 335.5,690 336.5,688 334.5,688 		"/>
		<polyline class="st1" points="348.5,630 349.5,631 349.5,636 347.5,643 345.5,664 344.5,668 344.5,686 343.5,686 		"/>
		<polyline class="st1" points="293.5,371 295.5,371 295.5,367 294.5,366 294.5,364 292.5,360 290.5,360 289.5,364 288.5,364 
			288.5,365 		"/>
		<polyline class="st1" points="266.5,385 265.5,385 265.5,384 262.5,380 262.5,378 261.5,378 261.5,374 260.5,373 260.5,366 
			263.5,359 265.5,357 269.5,357 269.5,358 270.5,358 		"/>
		<line class="st1" x1="269.5" y1="357" x2="268.5" y2="362"/>
		<polyline class="st1" points="271.5,355 272.5,355 272.5,365 		"/>
		<line class="st1" x1="278.5" y1="358" x2="278.5" y2="366"/>
		<polyline class="st1" points="284.5,358 285.5,358 285.5,366 284.5,367 		"/>
		<polyline class="st1" points="272.5,355 272.5,356 272.5,355 278.5,355 		"/>
	</g>
</g>
<g id="_x35_8-비">
	<g>
		<polyline class="st1" points="384.5,667 388.5,665 390.5,663 396.5,663 400.5,666 400.5,668 398.5,669 384.5,670 379.5,672 		"/>
		<polyline class="st1" points="370.5,650 371.5,650 374.5,647 375.5,645 375.5,641 373.5,641 368.5,652 368.5,654 		"/>
		<polyline class="st1" points="233.5,142 235.5,146 235.5,161 234.5,163 233.5,163 233.5,161 232.5,160 232.5,147 		"/>
		<polyline class="st1" points="120.5,190 120.5,181 121.5,180 121.5,189 120.5,194 120.5,211 119.5,216 118.5,216 117.5,211 
			117.5,195 120.5,189 		"/>
		<polyline class="st1" points="381.5,53 384.5,55 385.5,62 382.5,70 380.5,71 377.5,59 377.5,54 378.5,54 378.5,53 380.5,53 
			381.5,54 		"/>
		<polyline class="st1" points="194.5,33 193.5,41 191.5,46 189.5,46 187.5,41 186.5,35 187.5,31 189.5,31 		"/>
		<polyline class="st1" points="200.5,334 201.5,334 200.5,348 		"/>
		<line class="st1" x1="78.5" y1="63" x2="80.5" y2="76"/>
		<polyline class="st1" points="475.5,57 477.5,58 473.5,75 		"/>
		<polyline class="st1" points="58.5,315 59.5,319 57.5,331 		"/>
		<polyline class="st1" points="27.5,29 28.5,29 25.5,35 27.5,50 24.5,49 22.5,45 22.5,42 25.5,34 25.5,32 26.5,31 		"/>
		<polyline class="st1" points="477.5,403 477.5,418 475.5,427 473.5,430 471.5,423 472.5,414 473.5,410 476.5,406 479.5,406 		"/>
		<polyline class="st1" points="82.5,430 83.5,430 82.5,442 		"/>
	</g>
</g>
</svg>
