<?xml version="1.0" encoding="utf-8"?>
<!-- Generator: Adobe Illustrator 26.2.1, SVG Export Plug-In . SVG Version: 6.00 Build 0)  -->
<svg version="1.1" xmlns="http://www.w3.org/2000/svg" xmlns:xlink="http://www.w3.org/1999/xlink" x="0px" y="0px"
	 viewBox="0 0 535 757" style="enable-background:new 0 0 535 757;" xml:space="preserve">
<style type="text/css">
	.st0{fill:#FFFFFF;}
	.st1{fill:none;stroke:#000000;stroke-width:2;}
</style>
<g id="레이어_1" xmlns:ev="http://www.w3.org/2001/xml-events">
	<rect class="st0" width="535" height="757"/>
</g>
<g id="_x36_4-우산">
	<g>
		<polyline class="st1" points="208.5,372 207.5,368 207.5,324 206.5,323 206.5,275 		"/>
		<polyline class="st1" points="217.5,271 218.5,271 218.5,331 217.5,333 217.5,345 216.5,347 216.5,372 		"/>
		<polyline class="st1" points="208.5,394 208.5,396 207.5,397 208.5,429 207.5,429 206.5,432 205.5,432 204.5,434 200.5,435 
			199.5,436 195.5,436 189.5,433 188.5,431 187.5,431 185.5,429 185.5,428 184.5,428 184.5,426 183.5,426 183.5,422 182.5,421 
			182.5,418 181.5,418 180.5,414 178.5,413 175.5,413 175.5,412 172.5,412 170.5,416 169.5,416 169.5,425 170.5,425 171.5,430 
			172.5,430 173.5,434 174.5,434 175.5,437 177.5,439 177.5,440 179.5,441 181.5,445 191.5,450 198.5,450 199.5,449 204.5,448 
			204.5,447 207.5,446 207.5,445 211.5,443 212.5,441 214.5,440 214.5,438 215.5,438 216.5,433 217.5,433 217.5,429 218.5,429 
			218.5,403 217.5,402 217.5,394 216.5,393 		"/>
		<polyline class="st1" points="208.5,141 200.5,141 199.5,142 192.5,142 190.5,143 179.5,144 169.5,147 145.5,151 144.5,152 
			142.5,152 141.5,153 139.5,153 124.5,158 118.5,161 109.5,164 109.5,165 105.5,166 103.5,168 89.5,176 84.5,180 71.5,194 
			71.5,195 66.5,200 64.5,204 63.5,204 56.5,215 56.5,216 54.5,217 47.5,231 45.5,233 44.5,237 40.5,244 40.5,246 39.5,246 
			36.5,254 36.5,257 		"/>
		<polyline class="st1" points="212.5,141 210.5,142 227.5,142 229.5,143 242.5,143 245.5,144 251.5,144 253.5,145 262.5,145 
			263.5,146 282.5,149 287.5,151 303.5,155 304.5,156 324.5,163 329.5,166 331.5,166 334.5,168 340.5,170 344.5,172 346.5,174 
			349.5,175 351.5,177 354.5,178 361.5,185 361.5,186 363.5,187 369.5,193 373.5,200 375.5,201 380.5,207 383.5,213 387.5,217 
			387.5,218 389.5,219 391.5,224 392.5,224 392.5,226 394.5,227 394.5,229 399.5,239 399.5,241 400.5,241 400.5,247 401.5,248 
			401.5,255 402.5,257 		"/>
		<polyline class="st1" points="35.5,260 35.5,261 37.5,259 40.5,258 40.5,257 54.5,250 58.5,250 60.5,249 72.5,249 73.5,250 
			76.5,250 83.5,256 84.5,256 95.5,267 95.5,268 96.5,268 96.5,269 98.5,263 101.5,261 102.5,259 118.5,250 133.5,245 146.5,245 
			159.5,249 170.5,256 170.5,257 174.5,260 175.5,260 175.5,261 177.5,262 178.5,264 179.5,264 179.5,260 181.5,257 188.5,251 
			194.5,248 202.5,246 220.5,246 232.5,249 233.5,250 237.5,251 244.5,255 246.5,257 246.5,258 247.5,258 249.5,262 251.5,263 
			252.5,257 256.5,253 258.5,252 258.5,251 259.5,251 261.5,249 263.5,249 267.5,246 279.5,244 280.5,243 298.5,243 300.5,244 
			300.5,245 311.5,254 312.5,254 313.5,256 314.5,256 317.5,259 317.5,256 318.5,254 329.5,245 339.5,240 343.5,239 352.5,239 
			353.5,240 369.5,242 370.5,243 372.5,243 378.5,246 385.5,251 388.5,252 389.5,254 392.5,255 395.5,258 396.5,258 396.5,259 
			397.5,259 398.5,261 399.5,261 399.5,257 		"/>
		<line class="st1" x1="206.5" y1="246" x2="206.5" y2="272"/>
		<polyline class="st1" points="218.5,245 217.5,246 217.5,260 218.5,261 218.5,271 219.5,273 		"/>
		<polyline class="st1" points="206.5,141 206.5,125 207.5,125 207.5,122 208.5,122 208.5,120 211.5,120 213.5,121 213.5,122 
			214.5,122 214.5,125 215.5,126 215.5,142 		"/>
		<polyline class="st1" points="96.5,266 95.5,268 95.5,259 96.5,253 98.5,249 99.5,242 101.5,239 103.5,231 104.5,230 107.5,222 
			113.5,212 126.5,195 134.5,186 148.5,173 171.5,158 182.5,152 187.5,150 189.5,150 190.5,149 192.5,149 193.5,148 195.5,148 
			196.5,147 198.5,147 199.5,146 202.5,146 203.5,145 208.5,144 208.5,143 213.5,143 207.5,146 200.5,152 191.5,169 188.5,180 
			187.5,192 184.5,202 184.5,208 183.5,209 183.5,222 182.5,224 182.5,234 181.5,236 181.5,258 		"/>
		<polyline class="st1" points="214.5,141 215.5,141 220.5,153 223.5,157 227.5,167 230.5,172 235.5,185 237.5,197 241.5,208 
			242.5,214 244.5,219 245.5,227 247.5,232 247.5,236 248.5,237 249.5,243 249.5,249 251.5,257 		"/>
		<polyline class="st1" points="214.5,144 214.5,145 213.5,145 214.5,143 223.5,144 226.5,146 228.5,146 239.5,151 247.5,156 
			253.5,158 256.5,161 260.5,163 260.5,164 263.5,167 273.5,172 274.5,174 278.5,178 280.5,179 281.5,181 282.5,181 283.5,184 
			288.5,188 288.5,189 291.5,192 295.5,198 298.5,203 298.5,205 307.5,219 308.5,223 310.5,226 313.5,234 314.5,238 314.5,243 
			315.5,244 315.5,250 316.5,251 316.5,255 		"/>
	</g>
</g>
<g id="_x36_4-사람">
	<g>
		<polyline class="st1" points="277.5,324 278.5,324 278.5,329 277.5,329 277.5,337 278.5,337 278.5,342 279.5,343 279.5,351 
			280.5,352 281.5,360 282.5,360 283.5,363 286.5,366 286.5,367 288.5,368 289.5,371 290.5,371 290.5,372 291.5,372 291.5,373 
			292.5,373 292.5,374 293.5,374 293.5,375 294.5,375 294.5,376 295.5,376 296.5,378 298.5,378 298.5,379 300.5,379 300.5,380 
			302.5,380 306.5,382 329.5,382 330.5,381 334.5,381 335.5,380 337.5,380 338.5,379 342.5,378 342.5,377 343.5,377 348.5,372 
			349.5,372 349.5,371 350.5,371 351.5,369 354.5,368 354.5,367 355.5,367 355.5,365 356.5,365 356.5,362 357.5,362 357.5,361 		"/>
		<polyline class="st1" points="357.5,343 358.5,342 358.5,340 360.5,340 360.5,339 366.5,339 368.5,340 370.5,342 370.5,343 
			371.5,343 371.5,345 372.5,346 372.5,350 371.5,351 371.5,353 370.5,353 369.5,355 369.5,357 365.5,359 365.5,360 359.5,360 
			359.5,359 		"/>
		<polyline class="st1" points="314.5,383 314.5,384 315.5,384 315.5,390 314.5,390 314.5,393 313.5,394 303.5,394 		"/>
		<polyline class="st1" points="360.5,360 361.5,360 361.5,363 360.5,363 360.5,366 359.5,367 359.5,372 358.5,372 358.5,390 
			359.5,391 359.5,393 360.5,393 361.5,395 363.5,395 364.5,397 366.5,397 		"/>
		<polyline class="st1" points="308.5,278 302.5,278 298.5,280 291.5,280 290.5,281 285.5,281 283.5,283 282.5,283 281.5,285 
			277.5,285 275.5,289 274.5,289 274.5,291 273.5,291 272.5,295 271.5,295 269.5,299 269.5,301 268.5,301 268.5,303 265.5,308 
			265.5,310 264.5,310 263.5,316 262.5,317 262.5,320 261.5,321 261.5,325 260.5,326 260.5,334 259.5,335 259.5,357 260.5,358 
			260.5,367 261.5,368 261.5,376 262.5,377 262.5,393 		"/>
		<polyline class="st1" points="271.5,328 271.5,329 277.5,329 278.5,328 291.5,328 291.5,327 292.5,327 292.5,321 295.5,315 
			296.5,316 296.5,318 298.5,322 298.5,325 299.5,325 299.5,327 300.5,327 301.5,329 308.5,329 309.5,328 325.5,328 325.5,326 
			326.5,325 326.5,317 327.5,317 327.5,315 327.5,316 328.5,316 328.5,318 329.5,318 329.5,320 334.5,330 344.5,330 345.5,331 
			352.5,331 352.5,332 353.5,332 353.5,333 354.5,333 355.5,335 356.5,340 358.5,341 		"/>
		<polyline class="st1" points="312.5,279.9 315.5,279.9 315.5,279 320.5,279 320.5,278 324.5,278 325.5,277 353.5,277 353.5,278 
			356.5,278 359.5,279.9 362.5,279.9 362.5,280.9 365.5,281.9 365.5,282.9 367.5,283.9 367.5,284.8 373.5,290.7 373.5,291.7 
			375.5,292.7 375.5,293.6 377.5,295.6 377.5,296.6 379.5,297.5 381.5,301.5 382.5,301.5 382.5,303.4 389.5,316.1 389.5,318.1 
			390.5,319.1 392.5,326.9 393.5,326.9 394.5,334.7 395.5,335.7 395.5,340.6 396.5,341.6 396.5,356.3 397.5,357.2 397.5,395.4 
			396.5,395.4 396.5,412 395.5,414 		"/>
		<polyline class="st1" points="306.5,393 306.5,395 307.5,395 307.5,398 308.5,400 310.5,402 310.5,403 314.5,407 315.5,407 
			315.5,408 318.5,409 318.5,410 320.5,410 320.5,411 323.5,411 324.5,412 330.5,412 331.5,413 344.5,413 344.5,412 348.5,412 
			349.5,411 351.5,411 351.5,410 353.5,410 353.5,409 357.5,408 357.5,407 358.5,407 358.5,406 359.5,406 359.5,405 360.5,405 
			363.5,402 363.5,401 365.5,400 365.5,398 366.5,397 		"/>
		<polyline class="st1" points="308.5,353 308.5,351 311.5,351 311.5,352 		"/>
		<polyline class="st1" points="304.5,366 304.5,367 317.5,367 		"/>
		<polyline class="st1" points="323.5,340 322.5,340 322.5,341 323.5,341 324.5,339 328.5,337 332.5,337 332.5,338 337.5,339 
			337.5,340 339.5,340 339.5,341 		"/>
		<polyline class="st1" points="330.5,340 329.5,340 329.5,342 331.5,342 332.5,341 331.5,339 329.5,339 329.5,340 328.5,340 
			328.5,342 329.5,342 329.5,343 331.5,343 331.5,341 330.5,340 328.5,340 328.5,343 332.5,343 332.5,341 330.5,341 329.5,340 
			327.5,340 326.5,342 328.5,343 328.5,344 332.5,344 		"/>
		<polyline class="st1" points="325.5,344 324.5,344 326.5,344 326.5,345 336.5,345 		"/>
		<polyline class="st1" points="282.5,340 281.5,340 281.5,341 283.5,340 283.5,339 288.5,338 288.5,337 290.5,337 290.5,338 
			293.5,338 293.5,339 296.5,339 296.5,340 298.5,340 		"/>
		<polyline class="st1" points="287.5,341 287.5,343 288.5,343 288.5,341 286.5,341 286.5,344 290.5,344 290.5,343 291.5,343 
			291.5,341 290.5,341 290.5,340 287.5,340 287.5,341 286.5,341 286.5,344 290.5,344 290.5,343 291.5,343 291.5,340 286.5,340 
			286.5,341 285.5,341 285.5,343 286.5,344 290.5,344 290.5,341 286.5,340 286.5,342 		"/>
		<polyline class="st1" points="285.5,344 284.5,344 284.5,345 287.5,345 288.5,346 291.5,346 291.5,345 296.5,345 296.5,344 		"/>
		<line class="st1" x1="290.5" y1="340" x2="289.5" y2="340"/>
		<polyline class="st1" points="300.5,394 293.5,394 292.5,395 289.5,395 289.5,396 286.5,396 286.5,397 284.5,397 284.5,398 
			280.5,399 280.5,400 279.5,400 279.5,401 277.5,402 276.5,405 274.5,406 274.5,408 272.5,409 272.5,411 271.5,411 267.5,419 
			267.5,421 266.5,421 262.5,429 261.5,429 261.5,431 260.5,431 260.5,433 259.5,433 259.5,435 258.5,435 258.5,437 257.5,437 
			257.5,439 256.5,439 256.5,441 255.5,441 255.5,443 254.5,443 254.5,445 253.5,446 		"/>
		<polyline class="st1" points="200.5,399 200.5,400 199.5,400 199.5,403 200.5,404 200.5,407 202.5,413 203.5,423 204.5,424 
			205.5,429 207.5,431 207.5,433 209.5,436 210.5,441 211.5,442 212.5,447 215.5,452 215.5,454 217.5,458 218.5,458 220.5,463 
			222.5,465 227.5,475 229.5,476 230.5,479 231.5,479 231.5,480 232.5,480 233.5,482 236.5,483 236.5,484 240.5,485 240.5,486 
			250.5,487 251.5,486 255.5,486 256.5,485 261.5,485 261.5,484 265.5,484 265.5,483 267.5,483 273.5,478 274.5,478 274.5,477 
			278.5,473 279.5,470 281.5,468 285.5,457 290.5,447 291.5,447 291.5,445 293.5,441 		"/>
		<polyline class="st1" points="202.5,400 205.5,400 205.5,399 213.5,398 213.5,397 216.5,397 216.5,396 223.5,396 223.5,397 
			224.5,397 225.5,400 227.5,402 228.5,402 230.5,407 231.5,407 231.5,409 232.5,409 233.5,414 239.5,426 239.5,428 240.5,430 
			241.5,430 243.5,436 244.5,436 246.5,441 247.5,441 251.5,449 252.5,449 253.5,454 254.5,454 		"/>
		<polyline class="st1" points="202.5,399 199.5,399 196.5,396 194.5,392 194.5,390 193.5,390 193.5,388 192.5,388 192.5,384 
			194.5,380 195.5,380 196.5,377 198.5,376 198.5,374 199.5,374 200.5,372 205.5,372 205.5,373 217.5,373 219.5,374 219.5,375 
			220.5,375 220.5,377 221.5,377 221.5,382 219.5,383 219.5,385 220.5,385 220.5,389 221.5,390 221.5,396 		"/>
		<polyline class="st1" points="208.5,394 207.5,395 207.5,394 208.5,394 209.5,392 211.5,392 212.5,391 214.5,391 214.5,392 
			216.5,392 216.5,393 		"/>
		<polyline class="st1" points="262.5,393 262.5,410 261.5,411 261.5,421 260.5,422 260.5,425 		"/>
		<polyline class="st1" points="368.5,378 367.5,377 367.5,389 366.5,390 366.5,394 364.5,400 364.5,404 363.5,404 363.5,407 
			358.5,416 358.5,418 356.5,421 352.5,432 351.5,432 351.5,435 350.5,436 350.5,439 349.5,440 348.5,444 348.5,454 347.5,457 
			348.5,470 349.5,470 350.5,476 352.5,478 354.5,482 355.5,482 355.5,483 356.5,479 357.5,477 358.5,477 358.5,476 359.5,476 
			359.5,477 360.5,477 360.5,478 361.5,478 361.5,479 363.5,480 363.5,481 364.5,481 364.5,479 365.5,478 365.5,476 367.5,472 
			372.5,466 372.5,465 374.5,464 374.5,463 376.5,460 377.5,460 378.5,457 382.5,452 382.5,451 385.5,448 386.5,444 388.5,440 
			389.5,440 389.5,437 391.5,433 391.5,429 392.5,428 393.5,422 395.5,418 395.5,412 		"/>
		<polyline class="st1" points="290.5,425 291.5,434 292.5,434 292.5,437 293.5,439 		"/>
		<polyline class="st1" points="396.5,409 396.5,410 397.5,410 397.5,411 401.5,415 401.5,416 403.5,417 403.5,418 404.5,418 
			404.5,419 409.5,426 411.5,434 411.5,437 413.5,442 413.5,448 414.5,450 414.5,511 413.5,514 413.5,555 414.5,556 414.5,567 
			412.5,568 409.5,568 405.5,570 398.5,571 397.5,572 392.5,572 391.5,573 380.5,573 380.5,572 376.5,571 376.5,522 375.5,520 
			375.5,494 374.5,492 374.5,480 373.5,479 373.5,470 		"/>
		<polyline class="st1" points="384.5,574 384.5,589 383.5,589 383.5,597 384.5,597 384.5,598 386.5,599 386.5,600 390.5,600 
			390.5,597 391.5,597 391.5,589 392.5,589 392.5,582 		"/>
		<polyline class="st1" points="391.5,596 391.5,613 390.5,613 390.5,619 391.5,619 391.5,620 396.5,620 396.5,619 398.5,618 
			398.5,610 398.5,612 399.5,612 399.5,614 400.5,614 400.5,616 401.5,616 401.5,617 403.5,617 403.5,616 404.5,616 404.5,614 
			405.5,614 405.5,612 406.5,610 407.5,610 407.5,609 408.5,613 410.5,613 410.5,612 411.5,612 411.5,610 412.5,609 412.5,602 
			413.5,601 413.5,581 412.5,580 412.5,575 411.5,574 410.5,569 		"/>
		<polyline class="st1" points="398.5,605 398.5,604 397.5,604 398.5,615 		"/>
		<line class="st1" x1="403.5" y1="602" x2="403.5" y2="616"/>
		<polyline class="st1" points="406.5,600 407.5,601 407.5,611 		"/>
		<polyline class="st1" points="286.5,456 286.5,457 285.5,457 285.5,503 286.5,505 286.5,530 287.5,532 287.5,536 291.5,541 
			291.5,542 293.5,543 293.5,544 294.5,544 294.5,545 296.5,547 300.5,548 300.5,549 302.5,549 303.5,550 306.5,550 307.5,551 
			318.5,551 321.5,550 342.5,550 346.5,552 349.5,552 350.5,553 353.5,553 354.5,554 359.5,554 360.5,555 374.5,555 375.5,554 
			378.5,554 378.5,553 		"/>
		<polyline class="st1" points="318.5,573 318.5,588 317.5,589 317.5,596 316.5,597 315.5,608 314.5,609 314.5,613 313.5,614 
			313.5,617 312.5,618 312.5,622 311.5,623 309.5,635 308.5,636 307.5,643 306.5,644 305.5,653 304.5,654 301.5,668 300.5,669 
			299.5,676 298.5,677 298.5,681 297.5,682 297.5,685 296.5,686 296.5,689 295.5,693 294.5,694 293.5,701 292.5,702 292.5,706 
			291.5,706 291.5,715 292.5,715 296.5,718 305.5,721 312.5,722 317.5,724 333.5,726 333.5,727 337.5,727 339.5,728 343.5,728 
			345.5,716 347.5,710 348.5,702 349.5,698 350.5,698 350.5,695 351.5,694 352.5,683 356.5,668 356.5,665 357.5,665 359.5,655 
			360.5,654 361.5,649 362.5,649 362.5,646 363.5,645 364.5,640 365.5,639 369.5,626 370.5,625 372.5,616 375.5,609 376.5,602 
			377.5,601 377.5,596 378.5,595 378.5,590 379.5,589 379.5,585 380.5,584 381.5,578 		"/>
		<polyline class="st1" points="291.5,543 291.5,554 292.5,556 293.5,565 294.5,567 294.5,574 296.5,582 296.5,590 297.5,591 
			297.5,598 298.5,600 298.5,604 300.5,610 301.5,618 303.5,621 303.5,625 304.5,626 304.5,628 305.5,628 306.5,636 307.5,636 		"/>
		<polyline class="st1" points="355.5,679 355.5,682 359.5,687 361.5,692 363.5,695 364.5,695 366.5,699 368.5,701 370.5,701 
			372.5,705 373.5,705 377.5,713 378.5,713 378.5,712 379.5,712 380.5,710 382.5,709 382.5,708 383.5,708 386.5,705 392.5,702 
			392.5,701 394.5,700 397.5,697 397.5,696 398.5,696 398.5,695 400.5,694 400.5,693 401.5,693 402.5,689 403.5,689 406.5,683 		"/>
		<polyline class="st1" points="374.5,615 374.5,617 382.5,631 384.5,633 386.5,638 389.5,643 392.5,646 393.5,649 395.5,651 
			398.5,659 400.5,663 401.5,663 402.5,667 403.5,667 404.5,671 406.5,674 409.5,682 		"/>
		<polyline class="st1" points="376.5,712 375.5,717 373.5,719 373.5,720 372.5,720 371.5,723 370.5,723 368.5,727 366.5,728 
			365.5,730 364.5,730 364.5,731 362.5,732 362.5,734 361.5,734 361.5,739 364.5,745 366.5,745 366.5,746 370.5,748 377.5,748 
			380.5,746 382.5,746 387.5,741 389.5,740 393.5,736 394.5,734 396.5,733 397.5,731 409.5,719 415.5,707 415.5,690 414.5,689 
			414.5,686 411.5,682 407.5,680 		"/>
		<polyline class="st1" points="289.5,713 288.5,714 288.5,713 281.5,713 278.5,712 269.5,712 267.5,713 253.5,713 251.5,717 
			251.5,724 253.5,728 255.5,729 255.5,730 262.5,733 264.5,735 268.5,736 275.5,740 278.5,740 278.5,741 281.5,741 281.5,742 
			285.5,743 293.5,744 299.5,747 316.5,749 317.5,750 321.5,750 321.5,751 327.5,751 331.5,750 331.5,749 332.5,749 334.5,746 
			335.5,746 336.5,743 337.5,743 337.5,740 338.5,740 339.5,732 340.5,731 340.5,725 		"/>
	</g>
</g>
<g id="_x36_4-지면">
	<g>
		<polyline class="st1" points="1.5,637 13.5,637 16.5,636 62.5,637 71.5,636 97.5,636 126.5,634 147.5,634 189.5,637 226.5,637 
			236.5,636 256.5,636 263.5,637 283.5,637 283.5,638 287.5,638 287.5,639 301.5,639 		"/>
		<polyline class="st1" points="389.5,635 391.5,634 398.5,633 413.5,632 447.5,632 448.5,631 482.5,631 484.5,632 495.5,632 
			503.5,631 525.5,631 526.5,632 529.5,632 		"/>
		<line class="st1" x1="53.5" y1="675" x2="83.5" y2="675"/>
		<polyline class="st1" points="78.5,685 79.5,686 93.5,686 		"/>
		<line class="st1" x1="220.5" y1="663" x2="233.5" y2="661"/>
		<line class="st1" x1="467.5" y1="716" x2="482.5" y2="715"/>
		<line class="st1" x1="491.5" y1="722" x2="496.5" y2="722"/>
		<polyline class="st1" points="508.5,666 502.5,669 501.5,672 504.5,674 511.5,674 511.5,673 515.5,671 515.5,669 511.5,666 
			510.5,666 		"/>
		<polyline class="st1" points="114.5,724 108.5,725 107.5,727 108.5,730 123.5,730 124.5,729 120.5,724 113.5,724 		"/>
	</g>
</g>
<g id="_x36_4-풀">
	<g>
		<polyline class="st1" points="3.5,459 2.5,459 2.5,458 3.5,458 6.5,455 7.5,455 		"/>
		<polyline class="st1" points="7.5,455 9.5,453 11.5,453 11.5,452 17.5,453 		"/>
		<polyline class="st1" points="19.5,451 20.5,467 25.5,465 30.5,462 30.5,461 34.5,461 34.5,465 35.5,465 35.5,469 36.5,470 
			37.5,476 38.5,477 39.5,476 43.5,475 50.5,475 51.5,480 51.5,489 52.5,489 52.5,490 63.5,489 65.5,490 67.5,494 68.5,494 
			71.5,493 71.5,490 72.5,488 79.5,488 81.5,484 84.5,482 89.5,482 89.5,481 91.5,479 94.5,480 94.5,481 96.5,482 103.5,481 
			103.5,480 108.5,481 108.5,482 109.5,482 114.5,486 115.5,489 115.5,497 116.5,497 116.5,502 115.5,503 119.5,501 125.5,501 
			126.5,503 132.5,507 142.5,512 143.5,513 144.5,518 145.5,518 148.5,511 151.5,508 160.5,511 170.5,510 170.5,509 171.5,509 
			171.5,508 172.5,508 173.5,506 173.5,503 189.5,501 189.5,500 190.5,500 189.5,498 189.5,493 191.5,492 194.5,492 194.5,491 
			196.5,491 197.5,489 197.5,485 206.5,489 207.5,491 215.5,491 219.5,489 219.5,488 220.5,488 222.5,485 221.5,485 224.5,485 
			225.5,484 225.5,476 225.5,477 225.5,476 226.5,476 		"/>
		<polyline class="st1" points="415.5,475 423.5,479 424.5,482 428.5,485 429.5,485 429.5,489 435.5,490 436.5,493 437.5,493 
			437.5,496 438.5,496 438.5,497 442.5,497 446.5,494 455.5,494 456.5,487 457.5,487 457.5,485 464.5,485 466.5,486 466.5,487 
			467.5,487 468.5,490 469.5,490 470.5,494 473.5,496 473.5,497 475.5,499 490.5,498 490.5,497 492.5,495 492.5,490 491.5,489 
			491.5,487 495.5,485 497.5,485 500.5,483 501.5,479 500.5,479 500.5,477 501.5,477 501.5,476 507.5,471 511.5,469 512.5,462 
			513.5,460 516.5,458 520.5,458 521.5,459 522.5,458 523.5,459 523.5,458 524.5,458 524.5,459 524.5,457 528.5,455 533.5,455 
			534.5,453 		"/>
	</g>
</g>
<g id="_x36_4-비">
	<g>
		<path class="st0" d="M0,0"/>
		<path class="st0" d="M0,757"/>
		<path class="st0" d="M535,757"/>
		<polyline class="st1" points="334.5,33 335.5,63 336.5,65 336.5,72 337.5,74 337.5,97 		"/>
		<polyline class="st1" points="412.5,60 412.5,77 414.5,101 414.5,129 413.5,131 413.5,140 412.5,146 412.5,170 413.5,170 
			413.5,180 		"/>
		<polyline class="st1" points="484.5,31 485.5,42 485.5,101 		"/>
		<polyline class="st1" points="137.5,53 137.5,96 138.5,101 138.5,107 		"/>
		<polyline class="st1" points="40.5,90 39.5,98 39.5,160 		"/>
	</g>
</g>
</svg>
