<?xml version="1.0" encoding="utf-8"?>
<!-- Generator: Adobe Illustrator 26.2.1, SVG Export Plug-In . SVG Version: 6.00 Build 0)  -->
<svg version="1.1" xmlns="http://www.w3.org/2000/svg" xmlns:xlink="http://www.w3.org/1999/xlink" x="0px" y="0px"
	 viewBox="0 0 535 757" style="enable-background:new 0 0 535 757;" xml:space="preserve">
<style type="text/css">
	.st0{fill:#FFFFFF;}
	.st1{fill:none;stroke:#000000;stroke-width:2;}
</style>
<g id="레이어_1" xmlns:ev="http://www.w3.org/2001/xml-events">
	<rect class="st0" width="535" height="757"/>
</g>
<g id="_x36_7-지면">
	<g>
		<path class="st0" d="M535,757"/>
		<path class="st0" d="M535,0"/>
		<path class="st0" d="M0,0"/>
		<path class="st0" d="M0,757"/>
		<polyline class="st1" points="21.5,635 21.5,636 33.5,636 37.5,637 51.5,637 57.5,638 66.5,638 68.5,637 74.5,637 78.5,638 
			133.5,638 141.5,637 213.5,637 235.5,634 247.5,634 247.5,633 248.5,633 		"/>
		<polyline class="st1" points="268.5,633 273.5,633 274.5,632 279.5,631 286.5,631 287.5,630 		"/>
		<polyline class="st1" points="304.5,627 307.5,628 311.5,626 316.5,625 342.5,625 343.5,626 382.5,626 387.5,627 410.5,627 
			411.5,628 453.5,628 455.5,627 467.5,625 497.5,625 500.5,624 509.5,624 510.5,623 514.5,623 515.5,622 523.5,622 		"/>
	</g>
</g>
<g id="_x36_7-사람">
	<g>
		<polyline class="st1" points="204.5,272 205.5,272 208.5,275 209.5,275 209.5,276 214.5,280 217.5,286 217.5,288 219.5,290 
			219.5,292 220.5,294 221.5,294 221.5,296 222.5,296 222.5,298 223.5,298 227.5,306 228.5,306 229.5,310 232.5,313 234.5,313 
			235.5,314 237.5,314 241.5,316 245.5,316 246.5,317 260.5,317 261.5,316 266.5,315 268.5,313 269.5,313 272.5,310 272.5,309 
			279.5,299 279.5,297 282.5,291 282.5,287 283.5,286 283.5,282 284.5,280 284.5,258 		"/>
		<polyline class="st1" points="228.5,274 229.5,274 229.5,273 230.5,273 230.5,272 231.5,272 234.5,269 236.5,269 237.5,268 
			240.5,268 242.5,270 243.5,270 244.5,272 		"/>
		<polyline class="st1" points="258.5,270 258.5,271 257.5,271 258.5,271 259.5,269 260.5,269 260.5,268 261.5,268 262.5,266 
			263.5,266 263.5,265 265.5,264 265.5,263 269.5,262 270.5,264 271.5,264 272.5,267 273.5,267 274.5,271 		"/>
		<polyline class="st1" points="238.5,276 239.5,276 239.5,277 235.5,277 236.5,275 240.5,275 240.5,277 238.5,277 238.5,276 
			237.5,276 239.5,276 		"/>
		<polyline class="st1" points="268.5,275 267.5,275 266.5,277 265.5,277 265.5,276 266.5,276 266.5,275 268.5,275 266.5,275 		"/>
		<polyline class="st1" points="249.5,283 250.5,287 253.5,287 255.5,286 255.5,285 256.5,285 256.5,283 		"/>
		<polyline class="st1" points="243.5,297 241.5,297 244.5,297 244.5,298 245.5,298 251.5,305 255.5,305 260.5,301 260.5,298 
			261.5,298 261.5,295 262.5,295 262.5,293 		"/>
		<polyline class="st1" points="246.5,296 262.5,296 262.5,295 264.5,295 265.5,293 		"/>
		<polyline class="st1" points="219.5,273 217.5,269 215.5,268 212.5,268 212.5,277 213.5,278 213.5,281 214.5,281 214.5,283 
			215.5,285 216.5,285 219.5,291 223.5,291 224.5,290 224.5,284 		"/>
		<polyline class="st1" points="286.5,272 285.5,272 286.5,268 289.5,265 290.5,265 290.5,264 292.5,264 293.5,266 293.5,274 
			292.5,276 291.5,276 290.5,280 289.5,280 289.5,283 287.5,287 286.5,287 286.5,288 284.5,288 284.5,287 		"/>
		<polyline class="st1" points="233.5,311 233.5,310 234.5,312 235.5,312 235.5,313 236.5,313 236.5,314 237.5,314 237.5,315 
			238.5,315 238.5,316 239.5,316 239.5,317 241.5,318 241.5,320 242.5,321 242.5,329 243.5,330 243.5,335 242.5,335 		"/>
		<polyline class="st1" points="265.5,315 265.5,318 264.5,318 264.5,321 262.5,325 262.5,335 263.5,335 263.5,334 		"/>
		<line class="st1" x1="232.5" y1="336" x2="234.5" y2="336"/>
		<polyline class="st1" points="241.5,336 242.5,336 242.5,335 239.5,335 236.5,337 234.5,337 233.5,338 231.5,338 227.5,340 
			226.5,340 227.5,340 228.5,338 		"/>
		<polyline class="st1" points="237.5,335 237.5,336 238.5,336 238.5,337 239.5,337 240.5,339 248.5,340 249.5,341 253.5,341 
			254.5,340 258.5,339 258.5,338 262.5,337 262.5,336 264.5,335 264.5,333 		"/>
		<polyline class="st1" points="261.5,331 261.5,330 263.5,330 263.5,331 264.5,331 264.5,332 266.5,333 267.5,335 269.5,335 
			270.5,336 278.5,336 278.5,337 282.5,337 282.5,338 286.5,338 286.5,339 296.5,340 298.5,341 298.5,342 299.5,342 300.5,345 
			301.5,345 301.5,346 302.5,346 304.5,350 305.5,350 307.5,358 308.5,358 308.5,360 310.5,364 310.5,369 311.5,370 312.5,378 
			315.5,384 316.5,384 316.5,386 317.5,386 318.5,388 318.5,392 319.5,393 319.5,396 321.5,402 321.5,411 		"/>
		<polyline class="st1" points="226.5,337 226.5,338 223.5,339 223.5,340 221.5,340 221.5,341 220.5,341 220.5,342 218.5,343 
			216.5,347 215.5,347 215.5,348 214.5,348 212.5,350 211.5,350 211.5,351 210.5,351 210.5,353 209.5,353 209.5,354 207.5,355 
			207.5,357 205.5,358 205.5,360 204.5,360 203.5,363 202.5,363 202.5,365 201.5,365 201.5,368 200.5,368 200.5,372 199.5,373 
			199.5,375 198.5,375 197.5,379 196.5,379 195.5,382 194.5,382 194.5,384 192.5,385 190.5,389 190.5,392 189.5,392 189.5,404 
			190.5,404 190.5,405 191.5,405 192.5,407 194.5,407 194.5,408 200.5,411 200.5,412 201.5,412 202.5,414 203.5,414 203.5,415 
			204.5,415 204.5,416 206.5,417 206.5,418 208.5,418 208.5,419 210.5,419 215.5,422 219.5,422 220.5,423 228.5,423 228.5,424 
			255.5,424 255.5,423 258.5,423 260.5,422 		"/>
		<polyline class="st1" points="210.5,391 219.5,394 223.5,396 228.5,400 231.5,400 232.5,401 235.5,401 236.5,402 250.5,402 
			250.5,401 253.5,401 253.5,400 257.5,400 257.5,399 259.5,399 259.5,398 261.5,398 261.5,397 263.5,397 263.5,396 264.5,396 
			264.5,403 265.5,404 265.5,407 266.5,408 266.5,414 265.5,414 265.5,416 261.5,420 260.5,420 260.5,421 257.5,422 		"/>
		<polyline class="st1" points="265.5,396 265.5,397 265.5,396 266.5,396 266.5,395 268.5,395 268.5,394 273.5,394 273.5,395 
			276.5,396 276.5,397 278.5,398 278.5,400 279.5,400 279.5,404 280.5,405 280.5,411 279.5,412 279.5,414 276.5,417 274.5,417 
			274.5,418 269.5,418 269.5,419 265.5,419 264.5,417 		"/>
		<polyline class="st1" points="270.5,398 275.5,398 277.5,396 277.5,395 		"/>
		<polyline class="st1" points="272.5,403 271.5,405 272.5,404 274.5,404 274.5,403 277.5,403 277.5,402 279.5,401 		"/>
		<polyline class="st1" points="274.5,409 278.5,409 279.5,408 282.5,408 282.5,407 		"/>
		<polyline class="st1" points="274.5,412 275.5,412 276.5,415 277.5,415 		"/>
		<polyline class="st1" points="236.5,239 237.5,236 235.5,236 229.5,240 227.5,243 226.5,243 225.5,246 224.5,246 224.5,248 
			221.5,254 221.5,258 223.5,262 223.5,265 224.5,266 		"/>
		<polyline class="st1" points="237.5,234 238.5,233 238.5,235 236.5,236 234.5,240 231.5,249 231.5,253 230.5,254 230.5,260 
			231.5,261 233.5,259 		"/>
		<polyline class="st1" points="243.5,236 242.5,259 241.5,261 241.5,260 		"/>
		<polyline class="st1" points="248.5,238 248.5,259 249.5,259 250.5,255 253.5,237 253.5,239 255.5,243 257.5,256 259.5,259 
			260.5,259 260.5,257 		"/>
		<polyline class="st1" points="263.5,242 263.5,239 264.5,244 265.5,257 266.5,258 266.5,260 		"/>
		<polyline class="st1" points="266.5,240 266.5,242 268.5,245 270.5,251 270.5,257 		"/>
		<line class="st1" x1="273.5" y1="243" x2="273.5" y2="250"/>
		<line class="st1" x1="219.5" y1="252" x2="224.5" y2="249"/>
		<polyline class="st1" points="227.5,242 227.5,240 226.5,241 220.5,257 214.5,268 214.5,271 213.5,273 215.5,295 216.5,295 
			219.5,304 222.5,309 		"/>
		<polyline class="st1" points="230.5,241 228.5,240 228.5,239 225.5,239 223.5,240 214.5,251 210.5,259 208.5,275 208.5,304 
			211.5,314 213.5,317 216.5,318 		"/>
		<polyline class="st1" points="286.5,244 286.5,251 288.5,256 289.5,265 		"/>
		<polyline class="st1" points="290.5,253 289.5,253 289.5,254 		"/>
		<polyline class="st1" points="291.5,262 295.5,273 295.5,282 297.5,294 297.5,312 293.5,317 		"/>
		<polyline class="st1" points="290.5,284 291.5,284 292.5,286 293.5,298 290.5,311 288.5,315 287.5,315 287.5,316 		"/>
		<polyline class="st1" points="288.5,284 288.5,298 287.5,310 286.5,314 285.5,315 282.5,315 		"/>
		<polyline class="st1" points="287.5,292 286.5,292 284.5,294 281.5,313 279.5,316 280.5,315 282.5,306 282.5,296 283.5,290 
			282.5,290 281.5,293 280.5,303 277.5,314 276.5,314 276.5,307 280.5,292 281.5,292 281.5,294 279.5,297 275.5,312 275.5,315 
			274.5,315 277.5,310 280.5,300 284.5,292 286.5,291 283.5,305 282.5,316 285.5,305 285.5,301 288.5,292 289.5,286 290.5,285 
			289.5,289 288.5,304 286.5,315 289.5,300 291.5,282 291.5,310 292.5,310 292.5,305 294.5,292 295.5,308 		"/>
		<polyline class="st1" points="228.5,243 227.5,243 225.5,245 224.5,248 218.5,251 214.5,254 211.5,255 208.5,259 207.5,271 
			207.5,295 212.5,308 216.5,315 217.5,315 217.5,316 217.5,314 216.5,314 216.5,293 217.5,290 218.5,291 219.5,298 222.5,309 
			222.5,313 224.5,317 224.5,310 222.5,299 222.5,294 225.5,300 227.5,310 230.5,317 231.5,317 231.5,314 229.5,309 229.5,307 
			228.5,306 227.5,297 229.5,303 230.5,304 230.5,306 232.5,310 233.5,310 234.5,316 231.5,308 230.5,307 229.5,302 229.5,305 
			232.5,311 228.5,303 223.5,297 219.5,296 219.5,295 220.5,295 223.5,310 223.5,311 222.5,310 221.5,301 220.5,299 		"/>
		<polyline class="st1" points="220.5,289 214.5,289 214.5,288 211.5,285 208.5,278 208.5,267 209.5,269 209.5,275 207.5,300 
			209.5,312 211.5,316 211.5,315 		"/>
		<polyline class="st1" points="239.5,237 239.5,236 237.5,234 234.5,234 228.5,243 221.5,258 220.5,263 220.5,267 221.5,269 
			222.5,269 222.5,267 223.5,266 223.5,258 224.5,257 227.5,249 242.5,237 243.5,235 241.5,234 240.5,235 238.5,244 237.5,252 
			237.5,262 238.5,261 238.5,259 244.5,243 246.5,234 246.5,233 245.5,233 243.5,247 243.5,259 244.5,260 245.5,260 246.5,254 
			247.5,254 248.5,247 252.5,234 253.5,235 254.5,252 256.5,259 261.5,239 262.5,239 263.5,247 265.5,254 266.5,254 266.5,239 
			267.5,237 268.5,239 269.5,249 270.5,250 270.5,252 271.5,252 272.5,245 272.5,237 274.5,236 276.5,242 276.5,245 277.5,245 		"/>
		<polyline class="st1" points="287.5,249 285.5,267 283.5,274 282.5,272 283.5,258 285.5,251 285.5,258 		"/>
		<polyline class="st1" points="294.5,274 293.5,289 292.5,290 292.5,285 293.5,275 294.5,273 293.5,279 292.5,280 292.5,283 
			293.5,283 		"/>
		<polyline class="st1" points="225.5,369 224.5,370 223.5,374 218.5,381 213.5,385 212.5,388 210.5,390 210.5,392 208.5,393 
			209.5,393 		"/>
		<polyline class="st1" points="219.5,379 222.5,384 223.5,391 		"/>
		<polyline class="st1" points="224.5,426 224.5,428 224.5,427 223.5,427 		"/>
		<polyline class="st1" points="225.5,425 224.5,427 224.5,438 225.5,442 225.5,447 223.5,466 223.5,483 222.5,485 222.5,492 
			221.5,494 221.5,502 220.5,507 219.5,508 218.5,513 216.5,517 215.5,526 214.5,529 211.5,533 205.5,554 204.5,554 201.5,564 
			200.5,565 200.5,568 197.5,572 197.5,573 191.5,579 190.5,583 189.5,584 189.5,587 188.5,587 187.5,592 184.5,596 195.5,596 
			219.5,599 260.5,599 267.5,598 334.5,598 335.5,599 340.5,599 344.5,598 349.5,598 349.5,597 351.5,597 		"/>
		<polyline class="st1" points="291.5,365 291.5,364 293.5,365 293.5,367 295.5,371 295.5,374 296.5,375 296.5,378 297.5,379 
			297.5,381 299.5,384 299.5,386 302.5,392 304.5,401 304.5,410 305.5,412 305.5,419 304.5,419 304.5,437 305.5,440 305.5,446 		"/>
		<polyline class="st1" points="322.5,405 321.5,405 319.5,407 319.5,421 322.5,426 322.5,431 321.5,433 321.5,445 		"/>
		<polyline class="st1" points="296.5,370 296.5,376 295.5,377 295.5,393 297.5,397 297.5,411 298.5,413 298.5,418 299.5,419 
			299.5,423 298.5,423 298.5,425 297.5,425 297.5,440 301.5,445 		"/>
		<polyline class="st1" points="306.5,443 305.5,443 305.5,451 304.5,458 303.5,460 303.5,466 312.5,466 313.5,467 317.5,467 
			318.5,465 318.5,461 320.5,453 321.5,453 323.5,449 323.5,446 322.5,446 321.5,443 320.5,443 		"/>
		<polyline class="st1" points="306.5,466 304.5,466 304.5,467 303.5,467 302.5,469 301.5,469 301.5,481 302.5,481 302.5,483 
			303.5,484 		"/>
		<polyline class="st1" points="316.5,465 315.5,465 322.5,473 323.5,481 322.5,483 320.5,484 		"/>
		<polyline class="st1" points="308.5,474 307.5,474 307.5,480 306.5,481 306.5,485 		"/>
		<line class="st1" x1="312.5" y1="476" x2="311.5" y2="487"/>
		<line class="st1" x1="318.5" y1="479" x2="318.5" y2="485"/>
		<polyline class="st1" points="306.5,485 308.5,485 309.5,486 313.5,487 317.5,487 321.5,486 323.5,484 		"/>
		<polyline class="st1" points="299.5,433 300.5,434 301.5,443 305.5,450 306.5,454 		"/>
		<polyline class="st1" points="337.5,553 338.5,553 340.5,556 340.5,558 350.5,581 353.5,593 355.5,594 356.5,596 357.5,596 
			357.5,598 358.5,598 360.5,601 		"/>
		<line class="st1" x1="223.5" y1="342" x2="222.5" y2="342"/>
		<polyline class="st1" points="215.5,345 216.5,344 220.5,344 225.5,347 238.5,350 241.5,352 245.5,353 246.5,355 248.5,355 
			252.5,357 252.5,358 253.5,358 254.5,360 255.5,360 254.5,359 254.5,342 255.5,342 255.5,337 		"/>
		<polyline class="st1" points="258.5,340 256.5,339 256.5,338 258.5,338 258.5,339 262.5,344 262.5,347 263.5,351 264.5,352 
			264.5,355 264.5,349 265.5,349 265.5,348 267.5,347 		"/>
		<polyline class="st1" points="273.5,350 274.5,350 275.5,347 282.5,344 286.5,340 293.5,335 		"/>
		<polyline class="st1" points="237.5,599 238.5,600 240.5,600 242.5,604 243.5,607 243.5,612 244.5,613 245.5,620 248.5,626 
			250.5,635 250.5,639 251.5,639 251.5,640 		"/>
		<polyline class="st1" points="264.5,598 263.5,598 263.5,613 266.5,625 266.5,642 		"/>
		<polyline class="st1" points="287.5,598 287.5,619 288.5,621 289.5,627 289.5,634 291.5,639 291.5,643 		"/>
		<polyline class="st1" points="305.5,596 305.5,599 304.5,599 304.5,623 306.5,636 306.5,644 		"/>
		<polyline class="st1" points="251.5,642 250.5,642 250.5,641 250.5,642 251.5,642 251.5,643 255.5,647 259.5,647 263.5,644 
			263.5,643 265.5,642 265.5,640 265.5,641 264.5,642 262.5,642 262.5,643 251.5,643 250.5,641 250.5,639 257.5,639 257.5,640 
			258.5,640 		"/>
		<polyline class="st1" points="246.5,640 245.5,640 247.5,641 250.5,647 250.5,649 253.5,657 253.5,664 254.5,666 254.5,651 
			253.5,649 253.5,642 252.5,643 252.5,648 251.5,649 251.5,663 252.5,664 252.5,663 		"/>
		<polyline class="st1" points="268.5,641 268.5,670 269.5,671 269.5,674 269.5,669 		"/>
		<polyline class="st1" points="255.5,651 263.5,651 262.5,654 255.5,657 252.5,657 262.5,657 254.5,661 252.5,663 263.5,663 
			259.5,665 256.5,668 255.5,668 255.5,669 258.5,669 262.5,668 262.5,667 265.5,667 265.5,668 257.5,670 256.5,671 257.5,671 
			257.5,670 		"/>
		<polyline class="st1" points="291.5,638 290.5,638 290.5,639 305.5,639 306.5,636 304.5,636 		"/>
		<polyline class="st1" points="288.5,638 288.5,637 290.5,638 290.5,639 288.5,643 287.5,643 287.5,644 289.5,644 295.5,641 
			297.5,641 291.5,649 295.5,647 298.5,647 300.5,646 300.5,647 291.5,658 300.5,653 302.5,653 300.5,656 294.5,660 300.5,658 
			301.5,657 302.5,658 302.5,659 297.5,662 300.5,662 302.5,664 302.5,666 300.5,667 		"/>
		<line class="st1" x1="308.5" y1="639" x2="308.5" y2="666"/>
		<polyline class="st1" points="291.5,639 290.5,638 290.5,645 291.5,649 291.5,667 		"/>
		<polyline class="st1" points="304.5,657 306.5,656 308.5,652 309.5,652 313.5,647 319.5,644 320.5,644 320.5,645 		"/>
		<polyline class="st1" points="304.5,659 303.5,659 303.5,658 311.5,656 320.5,655 		"/>
		<polyline class="st1" points="259.5,658 250.5,655 243.5,655 238.5,660 		"/>
		<polyline class="st1" points="262.5,659 262.5,658 259.5,658 247.5,665 		"/>
		<polyline class="st1" points="254.5,667 254.5,671 252.5,677 250.5,678 250.5,679 247.5,680 247.5,681 245.5,681 245.5,682 
			243.5,682 243.5,683 238.5,684 236.5,685 236.5,686 235.5,686 233.5,690 233.5,692 231.5,694 231.5,700 233.5,701 233.5,702 
			238.5,702 238.5,703 244.5,703 244.5,702 248.5,702 249.5,700 262.5,694 262.5,691 263.5,691 264.5,688 265.5,688 265.5,686 
			266.5,686 266.5,685 267.5,685 267.5,684 268.5,684 269.5,682 		"/>
		<polyline class="st1" points="270.5,672 271.5,671 272.5,672 272.5,674 273.5,674 275.5,690 271.5,693 269.5,693 267.5,697 
			265.5,697 265.5,698 264.5,698 264.5,690 		"/>
		<polyline class="st1" points="233.5,701 233.5,700 232.5,700 232.5,701 234.5,703 237.5,703 239.5,702 242.5,702 242.5,701 
			244.5,700 250.5,699 253.5,696 258.5,694 258.5,693 260.5,692 257.5,692 250.5,698 249.5,699 250.5,699 257.5,695 264.5,689 
			267.5,688 269.5,686 		"/>
		<polyline class="st1" points="240.5,686 239.5,687 240.5,684 243.5,684 247.5,687 251.5,688 		"/>
		<polyline class="st1" points="248.5,681 256.5,681 258.5,682 		"/>
		<polyline class="st1" points="255.5,675 261.5,676 264.5,678 		"/>
		<line class="st1" x1="260.5" y1="670" x2="261.5" y2="671"/>
		<polyline class="st1" points="290.5,662 291.5,662 291.5,687 290.5,687 		"/>
		<polyline class="st1" points="291.5,681 296.5,684 300.5,685 302.5,687 304.5,687 304.5,688 307.5,688 311.5,691 315.5,691 
			318.5,693 325.5,693 325.5,694 329.5,694 329.5,695 335.5,695 		"/>
		<polyline class="st1" points="309.5,666 309.5,667 310.5,667 310.5,668 314.5,671 316.5,671 317.5,670 330.5,670 330.5,671 
			332.5,671 332.5,672 334.5,673 334.5,674 340.5,677 342.5,677 344.5,679 344.5,681 345.5,681 345.5,686 344.5,688 341.5,689 
			340.5,691 339.5,691 339.5,692 335.5,694 333.5,694 333.5,693 332.5,693 		"/>
		<polyline class="st1" points="291.5,678 291.5,679 299.5,680 300.5,681 312.5,682 313.5,683 317.5,683 317.5,684 326.5,685 
			327.5,686 336.5,686 337.5,685 343.5,684 344.5,682 		"/>
		<polyline class="st1" points="311.5,677 311.5,675 313.5,673 313.5,672 329.5,662 329.5,663 		"/>
		<polyline class="st1" points="322.5,676 328.5,671 332.5,669 		"/>
		<polyline class="st1" points="328.5,677 327.5,678 335.5,674 		"/>
		<polyline class="st1" points="294.5,685 294.5,686 292.5,686 292.5,687 294.5,687 295.5,688 305.5,688 303.5,680 303.5,688 
			304.5,688 304.5,686 292.5,686 304.5,687 304.5,685 308.5,685 311.5,688 312.5,688 312.5,689 318.5,692 318.5,693 319.5,693 
			319.5,692 316.5,690 		"/>
		<polyline class="st1" points="267.5,696 268.5,693 270.5,692 267.5,696 		"/>
		<polyline class="st1" points="248.5,702 244.5,702 238.5,704 230.5,704 229.5,705 228.5,705 229.5,703 230.5,703 230.5,704 
			243.5,705 245.5,703 245.5,702 243.5,702 240.5,704 232.5,704 231.5,703 231.5,702 232.5,702 238.5,705 245.5,705 245.5,704 		"/>
		<polyline class="st1" points="343.5,688 343.5,686 341.5,686 341.5,687 335.5,691 333.5,691 333.5,692 334.5,691 336.5,691 
			341.5,689 345.5,685 345.5,684 345.5,685 343.5,686 342.5,688 337.5,691 337.5,692 336.5,692 		"/>
		<polyline class="st1" points="293.5,685 294.5,686 289.5,686 286.5,687 290.5,689 296.5,689 292.5,689 286.5,687 294.5,687 
			307.5,691 304.5,691 298.5,689 300.5,689 301.5,690 305.5,690 		"/>
		<polyline class="st1" points="322.5,693 320.5,692 325.5,693 330.5,695 337.5,695 343.5,696 344.5,697 341.5,697 338.5,695 
			322.5,692 334.5,694 343.5,697 344.5,698 334.5,698 340.5,697 346.5,693 336.5,695 338.5,695 342.5,693 345.5,691 344.5,691 
			336.5,695 345.5,690 346.5,690 346.5,691 344.5,694 343.5,694 343.5,695 349.5,693 		"/>
		<polyline class="st1" points="244.5,703 248.5,706 249.5,704 240.5,705 228.5,705 243.5,705 243.5,706 239.5,706 231.5,704 
			233.5,703 241.5,702 228.5,702 227.5,703 249.5,705 249.5,704 251.5,703 256.5,702 261.5,698 261.5,697 263.5,696 263.5,697 
			257.5,700 264.5,696 265.5,695 262.5,696 262.5,697 		"/>
		<polyline class="st1" points="284.5,683 282.5,683 284.5,682 287.5,682 281.5,683 277.5,683 281.5,683 282.5,682 288.5,681 
			283.5,681 282.5,682 278.5,683 279.5,683 279.5,682 281.5,682 285.5,680 278.5,684 278.5,685 281.5,685 289.5,682 284.5,686 
			277.5,690 279.5,690 280.5,689 285.5,688 289.5,686 279.5,689 287.5,689 288.5,688 290.5,688 287.5,690 279.5,692 278.5,693 
			294.5,690 295.5,689 293.5,689 292.5,690 285.5,692 281.5,692 284.5,692 284.5,691 285.5,691 		"/>
		<polyline class="st1" points="220.5,260 222.5,260 222.5,259 224.5,257 225.5,257 225.5,256 222.5,257 220.5,261 218.5,269 
			214.5,274 214.5,275 211.5,276 211.5,278 211.5,275 215.5,269 218.5,266 219.5,262 221.5,261 221.5,260 220.5,260 220.5,262 
			219.5,263 219.5,270 221.5,271 223.5,271 224.5,270 224.5,264 225.5,259 226.5,256 227.5,256 227.5,272 227.5,270 228.5,269 
			228.5,263 227.5,262 227.5,268 226.5,269 223.5,266 216.5,265 214.5,267 212.5,273 214.5,277 216.5,279 217.5,285 219.5,289 
			223.5,291 223.5,292 224.5,292 224.5,293 223.5,293 223.5,292 224.5,292 		"/>
		<polyline class="st1" points="228.5,251 224.5,250 219.5,253 216.5,253 209.5,260 208.5,271 208.5,275 209.5,277 209.5,290 
			209.5,289 210.5,289 211.5,278 213.5,272 216.5,253 218.5,250 218.5,251 219.5,251 216.5,254 214.5,266 213.5,295 217.5,313 
			216.5,312 216.5,282 215.5,274 213.5,275 212.5,279 212.5,298 213.5,299 		"/>
		<polyline class="st1" points="248.5,233 248.5,232 253.5,231 258.5,232 259.5,233 261.5,238 263.5,250 262.5,244 262.5,230 
			265.5,236 267.5,252 267.5,253 264.5,247 262.5,239 260.5,235 260.5,247 263.5,256 264.5,256 265.5,252 266.5,251 267.5,244 
			269.5,239 271.5,239 273.5,247 273.5,256 273.5,253 274.5,253 274.5,257 		"/>
		<polyline class="st1" points="286.5,254 286.5,253 287.5,254 287.5,258 288.5,261 287.5,259 286.5,261 285.5,261 		"/>
	</g>
</g>
<g id="_x36_7-가방">
	<g>
		<polyline class="st1" points="327.5,476 327.5,477 338.5,488 339.5,490 339.5,492 341.5,496 341.5,501 342.5,506 343.5,507 
			343.5,511 344.5,511 344.5,515 345.5,516 345.5,519 343.5,519 		"/>
		<polyline class="st1" points="296.5,488 294.5,492 294.5,510 295.5,511 295.5,513 294.5,513 307.5,513 308.5,514 313.5,514 
			314.5,515 329.5,515 344.5,511 344.5,515 346.5,522 346.5,525 347.5,526 347.5,529 348.5,530 349.5,545 		"/>
		<polyline class="st1" points="293.5,510 294.5,510 294.5,513 293.5,515 292.5,521 292.5,528 291.5,530 291.5,551 292.5,549 
			299.5,549 300.5,550 305.5,550 308.5,551 335.5,551 338.5,550 344.5,550 345.5,549 349.5,549 350.5,545 		"/>
		<polyline class="st1" points="293.5,511 294.5,510 295.5,512 296.5,512 296.5,513 297.5,513 301.5,516 307.5,522 307.5,523 
			311.5,527 312.5,530 316.5,534 317.5,536 323.5,536 327.5,533 328.5,533 337.5,522 344.5,515 345.5,515 345.5,514 		"/>
		<polyline class="st1" points="296.5,491 297.5,485 298.5,485 298.5,484 300.5,482 301.5,482 301.5,481 302.5,481 		"/>
	</g>
</g>
<g id="_x36_7-비">
	<g>
		<polyline class="st1" points="375.5,40 365.5,60 355.5,85 		"/>
		<polyline class="st1" points="408.5,69 407.5,69 390.5,112 		"/>
		<polyline class="st1" points="431.5,127 430.5,128 422.5,151 		"/>
		<line class="st1" x1="440.5" y1="214" x2="436.5" y2="241"/>
		<polyline class="st1" points="418.5,301 417.5,301 412.5,312 411.5,318 403.5,345 		"/>
		<polyline class="st1" points="366.5,287 365.5,286 357.5,313 		"/>
		<line class="st1" x1="345.5" y1="266" x2="338.5" y2="288"/>
		<polyline class="st1" points="339.5,129 337.5,131 329.5,150 		"/>
		<polyline class="st1" points="273.5,146 271.5,148 260.5,182 		"/>
		<line class="st1" x1="224.5" y1="144" x2="215.5" y2="183"/>
		<line class="st1" x1="199.5" y1="114" x2="185.5" y2="138"/>
		<line class="st1" x1="198.5" y1="50" x2="174.5" y2="100"/>
		<line class="st1" x1="264.5" y1="37" x2="245.5" y2="82"/>
		<polyline class="st1" points="131.5,78 129.5,79 110.5,128 		"/>
		<polyline class="st1" points="98.5,180 97.5,181 89.5,220 		"/>
		<polyline class="st1" points="117.5,245 110.5,281 108.5,308 		"/>
		<polyline class="st1" points="156.5,274 151.5,311 148.5,323 		"/>
		<line class="st1" x1="188.5" y1="311" x2="179.5" y2="372"/>
		<line class="st1" x1="116.5" y1="461" x2="104.5" y2="507"/>
		<line class="st1" x1="151.5" y1="497" x2="147.5" y2="535"/>
		<polyline class="st1" points="84.5,348 82.5,350 65.5,398 		"/>
		<line class="st1" x1="146.5" y1="367" x2="138.5" y2="424"/>
		<polyline class="st1" points="381.5,402 380.5,401 383.5,454 		"/>
		<polyline class="st1" points="461.5,395 457.5,417 455.5,470 		"/>
		<polyline class="st1" points="491.5,410 490.5,412 486.5,472 486.5,486 		"/>
		<polyline class="st1" points="397.5,507 396.5,508 396.5,541 398.5,555 398.5,561 		"/>
		<line class="st1" x1="480.5" y1="522" x2="484.5" y2="565"/>
		<line class="st1" x1="497.5" y1="40" x2="498.5" y2="85"/>
		<polyline class="st1" points="66.5,37 65.5,37 61.5,79 		"/>
		<line class="st1" x1="33.5" y1="229" x2="30.5" y2="249"/>
		<line class="st1" x1="137.5" y1="20" x2="131.5" y2="35"/>
		<polyline class="st1" points="484.5,159 484.5,157 488.5,165 		"/>
		<line class="st1" x1="485.5" y1="260" x2="484.5" y2="284"/>
		<polyline class="st1" points="460.5,321 459.5,322 459.5,342 		"/>
		<polyline class="st1" points="63.5,441 63.5,440 58.5,443 59.5,449 59.5,459 		"/>
	</g>
</g>
<g id="_x36_7-우산_00000136384763017446284360000016656504748216067210_">
	<g>
		<polyline class="st1" points="262.5,417 262.5,418 263.5,418 264.5,420 264.5,423 265.5,423 265.5,437 264.5,437 264.5,440 
			263.5,442 261.5,443 261.5,444 251.5,444 250.5,443 248.5,443 248.5,442 246.5,441 246.5,439 245.5,439 245.5,437 244.5,436 
			244.5,432 243.5,432 243.5,429 		"/>
		<polyline class="st1" points="279.5,234 279.5,235 280.5,235 279.5,253 278.5,254 278.5,257 277.5,258 277.5,263 276.5,264 
			276.5,276 275.5,277 275.5,282 274.5,283 274.5,290 273.5,291 272.5,297 271.5,298 271.5,319 270.5,320 270.5,331 269.5,333 
			269.5,350 268.5,351 268.5,373 267.5,374 267.5,386 266.5,387 266.5,402 265.5,403 265.5,420 		"/>
		<polyline class="st1" points="180.5,225 179.5,225 179.5,224 180.5,224 180.5,223 181.5,223 181.5,222 182.5,222 182.5,221 
			184.5,220 184.5,219 185.5,219 189.5,216 193.5,216 194.5,215 204.5,215 205.5,214 222.5,214 223.5,215 225.5,215 227.5,217 
			235.5,221 237.5,221 242.5,224 246.5,225 247.5,227 249.5,227 249.5,228 251.5,228 251.5,229 252.5,229 252.5,227 253.5,227 
			254.5,223 255.5,223 255.5,222 257.5,221 257.5,220 259.5,219 259.5,218 265.5,218 266.5,217 286.5,217 287.5,218 294.5,219 
			306.5,225 308.5,227 309.5,227 309.5,228 312.5,229 312.5,230 313.5,230 314.5,232 317.5,233 317.5,234 323.5,237 323.5,238 
			325.5,238 326.5,236 327.5,236 328.5,233 330.5,232 330.5,231 344.5,224 346.5,224 347.5,223 349.5,223 353.5,221 365.5,221 
			366.5,222 368.5,222 368.5,223 372.5,225 372.5,226 374.5,227 375.5,229 379.5,230 380.5,231 387.5,232 389.5,233 389.5,234 		"/>
		<polyline class="st1" points="179.5,226 179.5,224 178.5,224 178.5,223 176.5,223 172.5,221 166.5,221 165.5,220 161.5,220 
			160.5,219 149.5,219 141.5,222 139.5,224 138.5,224 138.5,225 136.5,226 136.5,227 134.5,228 133.5,230 132.5,230 132.5,231 
			130.5,231 130.5,232 128.5,232 128.5,233 126.5,234 		"/>
		<polyline class="st1" points="119.5,232 118.5,232 118.5,233 119.5,233 117.5,233 117.5,234 118.5,234 118.5,235 120.5,237 
			122.5,237 124.5,236 124.5,235 125.5,235 125.5,233 126.5,233 128.5,229 130.5,228 130.5,229 131.5,229 131.5,230 132.5,230 
			132.5,231 133.5,231 133.5,232 135.5,233 135.5,234 139.5,234 140.5,230 141.5,229 141.5,222 141.5,225 142.5,226 143.5,230 
			145.5,232 147.5,232 147.5,231 148.5,231 148.5,227 149.5,226 149.5,219 150.5,219 152.5,227 153.5,227 153.5,228 155.5,229 
			155.5,230 160.5,230 160.5,229 163.5,225 163.5,219 163.5,220 164.5,220 164.5,225 166.5,229 167.5,229 167.5,230 171.5,230 
			172.5,229 175.5,224 175.5,221 175.5,224 177.5,226 178.5,226 179.5,228 183.5,228 186.5,223 187.5,218 188.5,218 188.5,222 
			189.5,224 190.5,224 190.5,225 197.5,225 200.5,217 201.5,216 201.5,214 202.5,214 202.5,213 203.5,221 206.5,227 207.5,227 
			210.5,224 213.5,216 214.5,215 214.5,221 217.5,225 217.5,226 224.5,226 226.5,225 229.5,219 229.5,216 229.5,225 231.5,229 
			236.5,229 239.5,225 240.5,225 242.5,221 242.5,230 246.5,232 252.5,231 254.5,229 255.5,229 255.5,228 256.5,228 256.5,231 
			262.5,231 262.5,230 264.5,229 266.5,224 266.5,218 267.5,220 267.5,225 269.5,229 272.5,229 272.5,228 273.5,228 275.5,226 
			278.5,222 278.5,221 279.5,221 279.5,220 279.5,224 280.5,226 281.5,226 281.5,227 283.5,228 286.5,228 290.5,226 292.5,224 
			295.5,223 295.5,224 296.5,224 296.5,229 298.5,230 298.5,231 302.5,231 303.5,230 312.5,228 313.5,229 313.5,231 315.5,235 
			320.5,235 323.5,233 325.5,233 325.5,232 327.5,232 327.5,236 329.5,236 329.5,237 332.5,236 332.5,235 333.5,235 333.5,234 
			335.5,232 335.5,231 337.5,230 337.5,229 338.5,229 339.5,233 340.5,233 340.5,234 345.5,234 348.5,232 350.5,230 350.5,229 
			351.5,229 351.5,227 352.5,227 352.5,226 353.5,230 356.5,232 358.5,232 363.5,229 363.5,228 365.5,227 366.5,224 367.5,224 
			367.5,228 368.5,228 368.5,230 370.5,230 371.5,231 375.5,228 377.5,228 377.5,229 381.5,232 384.5,233 392.5,233 393.5,235 
			393.5,234 		"/>
		<polyline class="st1" points="117.5,232 116.5,232 116.5,230 117.5,230 117.5,228 118.5,228 121.5,214 126.5,204 126.5,201 
			128.5,196 128.5,194 129.5,193 129.5,191 132.5,187 136.5,184 143.5,171 145.5,170 147.5,167 149.5,167 151.5,165 157.5,162 
			158.5,160 160.5,159 163.5,155 173.5,146 183.5,141 189.5,135 192.5,134 205.5,126 221.5,121 238.5,114 248.5,112 249.5,111 
			255.5,111 257.5,110 266.5,109 266.5,108 268.5,108 267.5,108 267.5,109 264.5,111 255.5,121 250.5,124 247.5,127 245.5,127 
			243.5,129 237.5,137 235.5,141 226.5,152 226.5,154 223.5,159 222.5,164 211.5,179 209.5,184 205.5,189 202.5,191 200.5,194 
			193.5,208 188.5,213 185.5,222 185.5,230 		"/>
		<polyline class="st1" points="265.5,111 262.5,111 262.5,115 264.5,117 266.5,121 266.5,125 267.5,127 267.5,166 266.5,169 
			266.5,185 265.5,187 265.5,192 264.5,194 264.5,206 263.5,208 262.5,217 261.5,219 261.5,229 		"/>
		<polyline class="st1" points="269.5,106 269.5,105 271.5,105 277.5,111 280.5,117 291.5,131 293.5,138 299.5,149 303.5,154 
			307.5,165 308.5,166 308.5,169 324.5,215 324.5,221 325.5,226 326.5,227 326.5,229 328.5,234 328.5,236 329.5,237 329.5,238 
			328.5,238 328.5,236 		"/>
		<polyline class="st1" points="266.5,104 267.5,103 273.5,104 283.5,108 307.5,121 317.5,125 322.5,128 324.5,128 332.5,134 
			336.5,138 348.5,145 366.5,162 374.5,172 380.5,183 387.5,190 394.5,203 395.5,207 396.5,208 397.5,215 398.5,216 398.5,238 		"/>
		<polyline class="st1" points="264.5,105 264.5,106 265.5,106 265.5,105 266.5,105 268.5,101 268.5,97 269.5,95 269.5,86 270.5,86 
			270.5,85 272.5,85 274.5,87 274.5,91 272.5,96 272.5,98 271.5,99 271.5,101 270.5,101 270.5,103 268.5,106 		"/>
		<polyline class="st1" points="277.5,228 277.5,232 276.5,232 275.5,237 275.5,246 276.5,246 276.5,247 277.5,243 277.5,237 
			278.5,233 280.5,229 281.5,229 281.5,224 282.5,224 282.5,223 282.5,225 283.5,226 283.5,239 282.5,240 283.5,236 283.5,228 
			282.5,226 281.5,232 280.5,233 280.5,236 279.5,237 278.5,297 277.5,298 277.5,302 276.5,302 276.5,313 275.5,315 275.5,322 
			274.5,324 274.5,339 273.5,340 272.5,360 271.5,361 271.5,372 271.5,360 272.5,358 272.5,339 273.5,333 273.5,316 274.5,311 
			274.5,293 275.5,290 275.5,284 276.5,283 276.5,276 278.5,267 278.5,258 279.5,256 279.5,250 281.5,246 281.5,243 283.5,239 
			284.5,232 285.5,231 285.5,224 284.5,230 283.5,231 283.5,234 282.5,235 279.5,260 279.5,267 278.5,269 276.5,283 275.5,311 
			274.5,314 273.5,326 271.5,336 271.5,357 270.5,360 270.5,371 271.5,373 271.5,378 272.5,381 272.5,390 271.5,373 272.5,374 
			272.5,389 271.5,389 271.5,392 270.5,393 271.5,371 271.5,376 270.5,377 270.5,384 269.5,391 268.5,392 269.5,373 270.5,371 
			270.5,352 270.5,356 269.5,357 269.5,372 		"/>
		<polyline class="st1" points="268.5,420 268.5,446 267.5,446 267.5,447 267.5,435 268.5,433 268.5,425 269.5,418 269.5,423 
			268.5,423 268.5,426 267.5,427 265.5,441 264.5,442 264.5,444 263.5,444 263.5,445 261.5,446 257.5,446 251.5,442 251.5,441 
			249.5,439 249.5,438 248.5,438 245.5,432 245.5,427 245.5,428 247.5,430 247.5,432 251.5,443 253.5,445 253.5,446 255.5,446 
			255.5,447 260.5,447 261.5,448 264.5,448 266.5,447 269.5,443 270.5,439 271.5,439 271.5,432 270.5,432 269.5,440 267.5,444 
			266.5,444 264.5,446 259.5,446 		"/>
		<polyline class="st1" points="280.5,221 280.5,225 281.5,225 281.5,228 282.5,230 281.5,238 280.5,240 280.5,247 		"/>
	</g>
</g>
</svg>
