<?xml version="1.0" encoding="utf-8"?>
<!-- Generator: Adobe Illustrator 26.2.1, SVG Export Plug-In . SVG Version: 6.00 Build 0)  -->
<svg version="1.1" xmlns="http://www.w3.org/2000/svg" xmlns:xlink="http://www.w3.org/1999/xlink" x="0px" y="0px"
	 viewBox="0 0 535 757" style="enable-background:new 0 0 535 757;" xml:space="preserve">
<style type="text/css">
	.st0{display:none;fill:none;stroke:#000000;stroke-width:2;}
	.st1{display:none;}
	.st2{display:inline;fill:none;stroke:#000000;stroke-width:2;}
	.st3{fill:#FFFFFF;}
	.st4{fill:none;stroke:#000000;stroke-width:2;}
</style>
<g id="레이어_1" xmlns:ev="http://www.w3.org/2001/xml-events">
	<polyline class="st0" points="214.5,581 216.5,581 221.5,578 230.5,578 236.5,575 242.5,575 247.5,571 247.5,572 254.5,572 
		255.5,573 254.5,573 254.5,572 	"/>
	<g class="st1">
		<polyline class="st2" points="220.5,290 220.5,291 218.5,290 217.5,293 217.5,305 218.5,306 218.5,312 233.5,312 238.5,311 
			239.5,309 236.5,306 236.5,301 232.5,289 228.5,289 228.5,290 		"/>
		<polyline class="st2" points="216.5,305 220.5,303 222.5,304 232.5,303 230.5,304 		"/>
		<polyline class="st2" points="246.5,289 247.5,287 247.5,309 246.5,318 247.5,314 		"/>
		<polyline class="st2" points="212.5,329 211.5,329 210.5,326 210.5,334 211.5,337 211.5,343 211.5,339 		"/>
		<polyline class="st2" points="210.5,323 213.5,324 219.5,323 221.5,325 221.5,327 222.5,328 222.5,342 223.5,341 223.5,339 		"/>
		<polyline class="st2" points="212.5,347 211.5,346 219.5,344 224.5,344 		"/>
		<line class="st2" x1="227.5" y1="336" x2="235.5" y2="336"/>
		<polyline class="st2" points="233.5,331 232.5,332 233.5,332 236.5,335 236.5,340 237.5,344 		"/>
		<polyline class="st2" points="226.5,356 226.5,355 229.5,353 233.5,352 237.5,353 238.5,356 238.5,363 237.5,363 		"/>
		<polyline class="st2" points="225.5,374 225.5,375 230.5,373 235.5,373 236.5,374 236.5,377 234.5,381 231.5,391 231.5,394 		"/>
		<polyline class="st2" points="244.5,369 244.5,373 247.5,381 248.5,390 248.5,399 246.5,400 		"/>
	</g>
	<rect class="st3" width="535" height="757"/>
</g>
<g id="_x37_7-사람">
	<g>
		<polyline class="st4" points="181.5,257 181.5,254 171.5,237 168.5,226 168.5,202 171.5,186 174.5,180 175.5,180 180.5,174 
			182.5,170 185.5,167 193.5,161 196.5,160 205.5,152 214.5,146 227.5,141 252.5,137 264.5,138 275.5,141 288.5,147 294.5,153 
			300.5,157 304.5,163 306.5,169 307.5,169 307.5,174 309.5,183 309.5,192 302.5,222 297.5,232 292.5,237 282.5,242 282.5,243 
			270.5,250 268.5,249 268.5,246 		"/>
		<polyline class="st4" points="231.5,186 231.5,190 230.5,191 228.5,191 228.5,190 226.5,190 225.5,189 221.5,189 217.5,191 
			208.5,199 207.5,201 207.5,205 211.5,208 212.5,210 225.5,220 233.5,222 241.5,222 246.5,219 254.5,203 254.5,198 252.5,194 
			252.5,192 251.5,190 247.5,186 240.5,183 233.5,183 230.5,185 228.5,185 228.5,184 229.5,184 		"/>
		<polyline class="st4" points="212.5,164 210.5,166 208.5,166 208.5,168 210.5,173 211.5,174 212.5,173 212.5,165 210.5,165 
			208.5,167 205.5,173 209.5,173 212.5,166 209.5,171 209.5,175 210.5,176 212.5,176 213.5,175 213.5,172 212.5,171 208.5,171 
			208.5,172 209.5,172 210.5,171 210.5,169 215.5,169 		"/>
		<polyline class="st4" points="273.5,165 271.5,166 268.5,166 268.5,174 269.5,176 271.5,176 272.5,175 272.5,173 273.5,173 
			273.5,171 269.5,167 269.5,170 273.5,172 273.5,167 271.5,164 271.5,169 273.5,171 274.5,171 274.5,168 272.5,165 270.5,166 
			270.5,169 273.5,169 273.5,168 274.5,168 		"/>
		<polyline class="st4" points="207.5,154 205.5,155 202.5,155 200.5,157 202.5,154 205.5,152 209.5,151 218.5,151 224.5,153 
			229.5,153 231.5,154 239.5,154 241.5,153 250.5,154 253.5,153 257.5,150 263.5,149 264.5,151 273.5,151 275.5,153 277.5,153 
			278.5,152 289.5,152 289.5,153 292.5,153 294.5,154 294.5,155 295.5,155 295.5,161 294.5,162 		"/>
		<polyline class="st4" points="182.5,261 182.5,259 182.5,260 182.5,259 183.5,261 188.5,266 189.5,266 189.5,267 207.5,273 
			212.5,274 230.5,273 230.5,272 233.5,272 249.5,266 256.5,257 269.5,246 268.5,245 		"/>
		<polyline class="st4" points="182.5,266 181.5,264 181.5,267 178.5,273 177.5,280 174.5,289 169.5,298 167.5,300 159.5,316 
			157.5,322 151.5,334 147.5,340 146.5,344 141.5,354 138.5,357 135.5,365 134.5,366 134.5,371 138.5,378 139.5,384 142.5,389 
			145.5,400 146.5,412 148.5,417 149.5,417 149.5,416 150.5,416 153.5,407 158.5,400 162.5,397 169.5,382 176.5,373 178.5,367 
			194.5,335 202.5,323 204.5,318 205.5,321 205.5,326 204.5,327 202.5,335 198.5,363 199.5,366 199.5,384 200.5,387 200.5,391 
			203.5,400 205.5,424 209.5,424 212.5,422 222.5,419 230.5,419 234.5,420 248.5,417 251.5,416 255.5,411 255.5,396 254.5,395 
			254.5,389 253.5,384 253.5,338 257.5,317 255.5,301 264.5,305 281.5,311 305.5,325 311.5,326 322.5,333 329.5,336 338.5,336 
			340.5,331 340.5,315 339.5,309 335.5,297 333.5,294 320.5,283 308.5,277 298.5,264 289.5,261 277.5,259 272.5,256 271.5,256 
			261.5,263 		"/>
		<polyline class="st4" points="132.5,370 130.5,370 129.5,372 127.5,372 127.5,373 125.5,374 124.5,376 120.5,379 120.5,381 
			117.5,386 115.5,387 114.5,390 112.5,390 111.5,391 109.5,395 108.5,401 107.5,402 107.5,410 108.5,410 108.5,411 112.5,413 
			114.5,410 114.5,407 116.5,403 116.5,418 118.5,422 118.5,424 119.5,424 123.5,421 124.5,415 126.5,413 127.5,415 127.5,427 
			128.5,434 130.5,437 134.5,429 136.5,420 136.5,437 137.5,440 139.5,442 140.5,440 141.5,429 143.5,433 143.5,436 146.5,441 
			150.5,444 153.5,444 154.5,443 154.5,439 155.5,437 156.5,429 154.5,425 149.5,420 147.5,420 147.5,418 		"/>
		<polyline class="st4" points="342.5,341 341.5,341 339.5,337 339.5,341 341.5,343 342.5,346 346.5,351 348.5,350 348.5,347 
			349.5,345 349.5,343 348.5,342 348.5,338 348.5,339 351.5,339 353.5,337 353.5,333 349.5,332 349.5,333 350.5,333 353.5,331 
			354.5,329 354.5,326 351.5,325 353.5,325 356.5,319 356.5,317 351.5,317 355.5,316 356.5,312 353.5,308 349.5,306 346.5,306 
			343.5,304 339.5,303 337.5,302 338.5,301 		"/>
		<polyline class="st4" points="208.5,428 207.5,428 208.5,428 208.5,438 206.5,444 203.5,461 202.5,465 201.5,466 200.5,485 
			195.5,517 194.5,531 192.5,537 192.5,546 198.5,545 206.5,545 226.5,548 226.5,547 225.5,547 225.5,545 223.5,543 223.5,531 
			229.5,515 231.5,506 231.5,503 230.5,502 230.5,493 233.5,483 233.5,470 232.5,468 233.5,467 234.5,461 235.5,461 235.5,460 
			237.5,460 237.5,467 236.5,472 239.5,481 239.5,508 240.5,513 240.5,529 241.5,540 245.5,542 272.5,542 275.5,541 292.5,541 
			291.5,537 285.5,528 277.5,506 274.5,485 272.5,479 271.5,472 271.5,462 267.5,452 265.5,445 265.5,442 264.5,441 261.5,433 
			260.5,428 253.5,413 253.5,412 254.5,412 		"/>
		<polyline class="st4" points="191.5,549 187.5,549 181.5,552 179.5,552 170.5,560 170.5,561 168.5,563 167.5,569 172.5,575 
			180.5,581 184.5,583 194.5,585 203.5,585 207.5,586 213.5,584 215.5,580 215.5,577 216.5,575 215.5,564 217.5,557 219.5,554 
			219.5,551 		"/>
		<polyline class="st4" points="245.5,542 244.5,542 244.5,543 246.5,546 250.5,567 252.5,569 273.5,573 286.5,573 292.5,572 
			299.5,572 312.5,569 314.5,568 316.5,565 318.5,559 318.5,552 313.5,545 309.5,541 306.5,540 303.5,542 295.5,545 295.5,539 		"/>
		<polyline class="st4" points="232.5,170 232.5,171 230.5,173 230.5,174 229.5,174 226.5,180 226.5,185 227.5,185 228.5,187 
			232.5,187 233.5,185 234.5,185 235.5,183 236.5,183 236.5,180 234.5,176 232.5,174 231.5,174 231.5,173 		"/>
		<polyline class="st4" points="246.5,180 246.5,179 247.5,179 		"/>
		<polyline class="st4" points="246.5,181 246.5,180 245.5,181 244.5,185 242.5,188 242.5,195 243.5,196 243.5,199 244.5,200 
			247.5,200 248.5,198 249.5,198 250.5,194 251.5,193 250.5,183 249.5,183 250.5,176 250.5,179 		"/>
		<polyline class="st4" points="211.5,186 211.5,190 210.5,193 213.5,204 214.5,205 222.5,205 225.5,202 224.5,197 216.5,189 
			208.5,189 208.5,187 		"/>
	</g>
</g>
<g id="_x37_7-풀">
	<g>
		<polyline class="st4" points="3.5,592 3.5,594 9.5,590 15.5,588 29.5,588 38.5,591 41.5,591 45.5,589 49.5,583 54.5,583 58.5,585 
			62.5,585 65.5,586 69.5,586 77.5,582 94.5,582 97.5,583 121.5,583 126.5,581 136.5,581 138.5,582 145.5,582 146.5,583 151.5,584 
			157.5,584 160.5,580 162.5,579 166.5,579 168.5,578 176.5,578 179.5,574 		"/>
		<polyline class="st4" points="321.5,571 320.5,571 319.5,568 323.5,567 345.5,567 349.5,568 357.5,574 367.5,575 371.5,574 
			379.5,574 402.5,567 408.5,567 411.5,569 417.5,571 420.5,571 431.5,568 435.5,568 441.5,565 445.5,564 451.5,564 453.5,565 
			477.5,565 482.5,564 492.5,564 495.5,565 503.5,565 511.5,567 515.5,569 519.5,573 523.5,573 527.5,577 529.5,578 533.5,574 
			533.5,573 		"/>
		<polyline class="st4" points="337.5,566 336.5,567 340.5,558 345.5,549 353.5,544 354.5,547 360.5,557 366.5,575 366.5,568 
			368.5,561 373.5,549 376.5,545 380.5,542 380.5,540 381.5,540 381.5,539 387.5,539 391.5,543 401.5,565 403.5,565 407.5,560 
			411.5,548 415.5,542 419.5,538 421.5,534 422.5,533 424.5,533 424.5,534 425.5,534 426.5,539 430.5,549 435.5,565 437.5,568 
			438.5,568 439.5,562 447.5,545 452.5,540 455.5,540 457.5,541 462.5,552 464.5,554 467.5,560 469.5,559 474.5,550 478.5,546 
			479.5,544 481.5,543 485.5,543 487.5,548 489.5,557 492.5,562 498.5,552 506.5,545 507.5,545 508.5,543 510.5,541 511.5,541 
			511.5,540 512.5,540 515.5,544 515.5,545 519.5,549 520.5,551 524.5,566 527.5,570 529.5,572 530.5,572 530.5,573 529.5,568 		"/>
		<polyline class="st4" points="4.5,586 11.5,578 30.5,565 34.5,566 41.5,572 45.5,581 52.5,572 53.5,569 57.5,564 59.5,563 
			62.5,563 63.5,562 68.5,566 70.5,571 75.5,577 75.5,578 76.5,578 88.5,563 98.5,553 102.5,553 108.5,572 113.5,575 115.5,579 
			116.5,579 123.5,561 128.5,557 132.5,557 132.5,558 138.5,561 142.5,566 143.5,566 146.5,570 148.5,571 150.5,561 155.5,551 
			157.5,553 159.5,563 163.5,572 164.5,577 165.5,578 163.5,577 		"/>
	</g>
</g>
<g id="_x37_7-비">
	<g>
		<polyline class="st4" points="236.5,92 234.5,90 235.5,90 235.5,101 236.5,104 236.5,124 237.5,124 		"/>
		<polyline class="st4" points="278.5,81 277.5,82 277.5,94 275.5,115 275.5,124 277.5,131 		"/>
		<polyline class="st4" points="179.5,93 178.5,101 181.5,131 181.5,139 180.5,141 		"/>
		<polyline class="st4" points="127.5,84 126.5,89 126.5,143 128.5,156 129.5,158 		"/>
		<polyline class="st4" points="154.5,63 152.5,81 153.5,114 157.5,116 		"/>
		<polyline class="st4" points="252.5,25 249.5,24 251.5,31 252.5,53 248.5,80 250.5,85 253.5,86 		"/>
		<polyline class="st4" points="397.5,101 396.5,101 395.5,107 397.5,119 396.5,143 396.5,170 400.5,235 400.5,252 401.5,254 		"/>
		<polyline class="st4" points="363.5,257 361.5,260 365.5,284 364.5,336 366.5,340 		"/>
		<polyline class="st4" points="463.5,226 462.5,233 471.5,275 470.5,302 		"/>
		<polyline class="st4" points="352.5,9 353.5,19 353.5,50 351.5,69 351.5,79 350.5,82 352.5,83 		"/>
		<polyline class="st4" points="481.5,40 478.5,45 485.5,85 487.5,103 		"/>
		<polyline class="st4" points="41.5,212 41.5,219 42.5,224 42.5,269 44.5,285 51.5,313 		"/>
		<polyline class="st4" points="113.5,276 112.5,288 114.5,312 115.5,316 116.5,338 121.5,359 120.5,364 117.5,369 114.5,369 
			111.5,359 		"/>
		<polyline class="st4" points="58.5,34 55.5,47 55.5,99 		"/>
		<polyline class="st4" points="447.5,375 447.5,369 451.5,383 454.5,400 454.5,409 452.5,427 448.5,452 447.5,456 446.5,456 		"/>
		<polyline class="st4" points="322.5,388 322.5,386 320.5,394 319.5,412 319.5,445 312.5,525 310.5,529 		"/>
		<polyline class="st4" points="377.5,402 378.5,399 378.5,403 384.5,428 386.5,443 387.5,474 385.5,502 385.5,528 386.5,531 
			390.5,523 		"/>
		<polyline class="st4" points="496.5,423 497.5,422 498.5,446 497.5,505 495.5,513 		"/>
		<polyline class="st4" points="33.5,392 32.5,394 31.5,409 35.5,448 36.5,488 40.5,523 		"/>
		<polyline class="st4" points="118.5,455 115.5,454 117.5,456 119.5,461 119.5,494 120.5,505 122.5,513 123.5,524 124.5,528 
			126.5,530 126.5,531 		"/>
		<polyline class="st4" points="469.5,139 465.5,137 465.5,161 461.5,183 461.5,187 460.5,189 459.5,189 455.5,193 452.5,193 		"/>
		<polyline class="st4" points="440.5,260 433.5,269 432.5,273 432.5,286 430.5,318 430.5,354 431.5,353 		"/>
		<polyline class="st4" points="512.5,232 511.5,234 507.5,236 507.5,238 503.5,251 504.5,316 502.5,328 501.5,353 		"/>
		<polyline class="st4" points="99.5,177 99.5,174 101.5,181 101.5,230 100.5,246 99.5,248 98.5,260 104.5,248 		"/>
		<polyline class="st4" points="431.5,118 429.5,113 428.5,107 		"/>
		<polyline class="st4" points="428.5,43 425.5,38 423.5,37 424.5,42 425.5,43 426.5,51 429.5,100 429.5,115 430.5,128 433.5,142 
			433.5,148 		"/>
		<polyline class="st4" points="349.5,133 347.5,132 341.5,138 335.5,159 332.5,187 332.5,216 330.5,223 		"/>
		<polyline class="st4" points="24.5,105 23.5,105 23.5,130 25.5,178 26.5,194 29.5,215 		"/>
		<polyline class="st4" points="89.5,98 90.5,101 90.5,110 87.5,122 86.5,123 85.5,129 84.5,154 87.5,154 92.5,152 99.5,145 
			105.5,137 107.5,123 105.5,119 105.5,115 106.5,115 		"/>
		<polyline class="st4" points="106.5,15 103.5,15 102.5,31 100.5,40 100.5,46 98.5,60 98.5,72 101.5,76 101.5,77 106.5,77 
			106.5,76 109.5,76 110.5,75 111.5,75 111.5,76 		"/>
		<polyline class="st4" points="202.5,21 202.5,19 198.5,31 195.5,36 192.5,44 192.5,76 191.5,93 193.5,95 193.5,97 		"/>
		<polyline class="st4" points="76.5,323 75.5,323 74.5,327 76.5,339 79.5,393 		"/>
		<polyline class="st4" points="190.5,383 190.5,386 186.5,397 187.5,434 189.5,462 		"/>
		<polyline class="st4" points="393.5,342 394.5,342 397.5,362 404.5,394 		"/>
	</g>
</g>
</svg>
