<?xml version="1.0" encoding="utf-8"?>
<!-- Generator: Adobe Illustrator 26.2.1, SVG Export Plug-In . SVG Version: 6.00 Build 0)  -->
<svg version="1.1" xmlns="http://www.w3.org/2000/svg" xmlns:xlink="http://www.w3.org/1999/xlink" x="0px" y="0px"
	 viewBox="0 0 535 757" style="enable-background:new 0 0 535 757;" xml:space="preserve">
<style type="text/css">
	.st0{display:none;fill:none;stroke:#000000;stroke-width:2;}
	.st1{fill:#FFFFFF;}
	.st2{fill:none;stroke:#000000;stroke-width:2;}
</style>
<g id="레이어_1" xmlns:ev="http://www.w3.org/2001/xml-events">
	<polyline class="st0" points="121.5,191 116.5,191 109.5,187 107.5,185 103.5,178 104.5,169 105.5,167 107.5,166 110.5,166 
		110.5,167 113.5,169 117.5,174 119.5,179 119.5,173 121.5,168 124.5,165 127.5,164 130.5,166 131.5,169 131.5,175 125.5,188 
		123.5,191 122.5,191 	"/>
	<rect class="st1" width="535" height="757"/>
</g>
<g id="_x37_8-가로등">
	<g>
		<polyline class="st2" points="377.5,104 376.5,104 376.5,128 377.5,133 377.5,143 383.5,214 383.5,238 384.5,246 384.5,286 
			387.5,323 388.5,351 388.5,411 389.5,427 389.5,511 		"/>
		<polyline class="st2" points="385.5,96 385.5,143 388.5,166 389.5,187 391.5,202 393.5,210 393.5,216 395.5,229 395.5,237 
			397.5,255 397.5,265 399.5,286 399.5,296 403.5,341 404.5,376 407.5,420 407.5,466 409.5,500 		"/>
		<polyline class="st2" points="383.5,100 383.5,93 378.5,78 367.5,59 350.5,44 338.5,40 321.5,40 318.5,41 314.5,41 313.5,42 
			304.5,44 270.5,61 264.5,66 256.5,75 251.5,85 250.5,97 		"/>
		<polyline class="st2" points="374.5,102 372.5,93 368.5,83 366.5,79 360.5,71 350.5,63 341.5,54 333.5,52 305.5,52 300.5,54 
			290.5,61 287.5,62 284.5,65 283.5,65 280.5,68 279.5,68 277.5,71 276.5,71 274.5,73 274.5,74 268.5,82 268.5,84 265.5,87 
			265.5,89 264.5,89 264.5,91 262.5,94 262.5,96 261.5,96 		"/>
		<polyline class="st2" points="219.5,131 218.5,131 219.5,127 227.5,114 235.5,107 249.5,102 279.5,100 283.5,101 290.5,105 
			291.5,107 293.5,108 293.5,109 297.5,114 303.5,125 305.5,133 306.5,133 306.5,143 		"/>
		<polyline class="st2" points="213.5,144 216.5,143 243.5,143 247.5,142 265.5,142 281.5,144 300.5,143 		"/>
		<polyline class="st2" points="212.5,144 210.5,144 212.5,137 215.5,132 217.5,126 221.5,118 224.5,115 231.5,111 247.5,106 
			251.5,103 265.5,100 279.5,100 290.5,103 295.5,106 299.5,112 302.5,115 304.5,119 307.5,122 312.5,130 313.5,134 313.5,138 
			312.5,139 		"/>
		<polyline class="st2" points="236.5,141 236.5,144 237.5,146 239.5,147 248.5,156 255.5,160 273.5,160 275.5,159 281.5,152 
			283.5,148 283.5,146 284.5,146 		"/>
		<polyline class="st2" points="233.5,153 231.5,155 225.5,158 212.5,167 211.5,168 213.5,168 		"/>
		<polyline class="st2" points="236.5,175 228.5,179 226.5,183 		"/>
		<polyline class="st2" points="267.5,174 266.5,174 266.5,178 269.5,186 		"/>
		<polyline class="st2" points="292.5,161 303.5,166 307.5,167 		"/>
		<line class="st2" x1="386.5" y1="506" x2="386.5" y2="524"/>
		<polyline class="st2" points="406.5,496 406.5,508 407.5,510 409.5,522 410.5,523 410.5,522 		"/>
	</g>
</g>
<g id="_x37_8-사람">
	<g>
		<polyline class="st2" points="240.5,296 239.5,293 238.5,294 238.5,303 239.5,303 242.5,295 239.5,303 		"/>
		<line class="st2" x1="276.5" y1="295" x2="276.5" y2="296"/>
		<polyline class="st2" points="238.5,308 238.5,320 240.5,328 242.5,330 242.5,331 243.5,331 243.5,332 246.5,335 249.5,336 
			250.5,338 252.5,338 255.5,340 257.5,340 257.5,341 260.5,341 		"/>
		<polyline class="st2" points="284.5,311 284.5,313 283.5,314 283.5,318 281.5,322 281.5,324 279.5,328 276.5,331 276.5,332 
			268.5,338 266.5,338 264.5,340 260.5,341 		"/>
		<polyline class="st2" points="265.5,304 268.5,306 273.5,307 275.5,309 276.5,309 276.5,310 277.5,310 		"/>
		<polyline class="st2" points="268.5,315 268.5,312 270.5,313 270.5,316 268.5,316 267.5,315 267.5,314 269.5,314 269.5,315 		"/>
		<polyline class="st2" points="252.5,305 255.5,305 246.5,308 		"/>
		<polyline class="st2" points="251.5,313 251.5,312 252.5,312 252.5,315 250.5,316 250.5,314 251.5,314 251.5,313 		"/>
		<polyline class="st2" points="255.5,328 255.5,329 255.5,328 260.5,324 264.5,324 264.5,325 265.5,325 266.5,327 		"/>
		<polyline class="st2" points="243.5,298 243.5,300 244.5,300 249.5,295 254.5,293 254.5,296 256.5,300 258.5,297 259.5,297 
			259.5,295 260.5,295 260.5,294 262.5,293 266.5,301 268.5,299 270.5,294 272.5,294 275.5,301 276.5,301 278.5,297 279.5,297 
			280.5,299 280.5,304 282.5,304 282.5,308 		"/>
		<polyline class="st2" points="283.5,310 281.5,310 281.5,309 284.5,307 287.5,307 288.5,308 288.5,315 283.5,319 281.5,319 
			281.5,318 		"/>
		<polyline class="st2" points="239.5,312 238.5,312 238.5,311 235.5,311 233.5,314 233.5,318 237.5,321 240.5,321 		"/>
		<polyline class="st2" points="246.5,352 247.5,352 247.5,353 249.5,354 250.5,356 254.5,360 260.5,363 262.5,363 263.5,364 
			269.5,364 272.5,365 273.5,367 275.5,368 		"/>
		<polyline class="st2" points="247.5,365 247.5,364 254.5,369 261.5,372 269.5,374 276.5,374 277.5,375 279.5,375 		"/>
		<polyline class="st2" points="278.5,366 277.5,366 277.5,371 278.5,372 278.5,374 278.5,369 279.5,372 		"/>
		<polyline class="st2" points="279.5,370 278.5,370 278.5,368 281.5,364 286.5,360 290.5,360 292.5,362 292.5,369 289.5,372 
			288.5,372 288.5,373 286.5,373 280.5,376 282.5,376 290.5,371 292.5,369 292.5,368 293.5,368 293.5,366 		"/>
		<polyline class="st2" points="288.5,332 288.5,334 292.5,342 294.5,349 294.5,358 		"/>
		<polyline class="st2" points="288.5,357 292.5,356 293.5,355 296.5,355 		"/>
		<polyline class="st2" points="294.5,358 294.5,356 296.5,356 297.5,358 297.5,365 294.5,368 293.5,368 294.5,367 295.5,362 
			296.5,362 296.5,356 296.5,360 295.5,361 295.5,364 294.5,365 		"/>
		<polyline class="st2" points="281.5,327 282.5,327 287.5,336 289.5,338 288.5,337 287.5,332 285.5,330 285.5,329 283.5,328 		"/>
		<polyline class="st2" points="246.5,346 246.5,348 248.5,351 246.5,348 246.5,346 245.5,345 245.5,346 248.5,352 248.5,351 		"/>
		<polyline class="st2" points="239.5,352 240.5,356 245.5,365 244.5,360 		"/>
		<polyline class="st2" points="242.5,333 242.5,339 240.5,352 239.5,384 238.5,387 238.5,402 239.5,403 239.5,407 253.5,405 
			261.5,405 265.5,406 273.5,406 278.5,407 282.5,409 285.5,409 		"/>
		<polyline class="st2" points="290.5,371 291.5,384 292.5,385 292.5,389 293.5,392 293.5,410 288.5,410 		"/>
		<polyline class="st2" points="253.5,342 253.5,339 252.5,339 253.5,339 254.5,342 259.5,349 261.5,350 267.5,350 269.5,349 
			269.5,347 272.5,341 273.5,335 		"/>
		<polyline class="st2" points="244.5,408 245.5,406 245.5,413 248.5,433 249.5,459 251.5,467 251.5,471 252.5,468 		"/>
		<polyline class="st2" points="264.5,420 264.5,423 265.5,424 265.5,441 266.5,445 266.5,468 267.5,472 268.5,496 		"/>
		<polyline class="st2" points="289.5,410 287.5,419 287.5,457 288.5,461 288.5,474 290.5,484 290.5,493 		"/>
		<polyline class="st2" points="268.5,421 268.5,426 271.5,438 278.5,494 		"/>
		<polyline class="st2" points="250.5,455 250.5,458 251.5,460 251.5,476 252.5,479 252.5,484 255.5,493 255.5,497 256.5,497 
			256.5,498 257.5,498 257.5,497 262.5,497 266.5,499 		"/>
		<polyline class="st2" points="280.5,494 279.5,493 284.5,493 286.5,494 289.5,494 290.5,495 		"/>
		<polyline class="st2" points="286.5,497 288.5,496 288.5,495 290.5,495 291.5,494 295.5,494 297.5,498 297.5,503 294.5,507 
			292.5,507 291.5,508 287.5,508 286.5,509 283.5,509 281.5,508 278.5,505 276.5,501 276.5,492 277.5,489 278.5,488 278.5,489 		"/>
		<polyline class="st2" points="258.5,494 256.5,494 255.5,493 250.5,493 248.5,495 248.5,500 252.5,504 257.5,506 263.5,505 
			268.5,502 269.5,500 268.5,500 268.5,498 		"/>
		<polyline class="st2" points="237.5,302 237.5,311 238.5,311 		"/>
		<polyline class="st2" points="237.5,322 236.5,322 236.5,327 234.5,336 234.5,342 233.5,347 233.5,371 234.5,370 234.5,368 		"/>
		<polyline class="st2" points="289.5,301 291.5,316 293.5,323 294.5,331 295.5,335 296.5,336 296.5,347 297.5,347 297.5,354 
			298.5,355 		"/>
		<polyline class="st2" points="234.5,370 236.5,365 237.5,365 237.5,370 		"/>
		<polyline class="st2" points="295.5,369 295.5,375 294.5,374 292.5,374 		"/>
		<polyline class="st2" points="277.5,405 277.5,409 278.5,410 281.5,421 283.5,422 284.5,421 284.5,419 		"/>
		<polyline class="st2" points="256.5,406 256.5,405 255.5,406 254.5,411 250.5,417 247.5,417 		"/>
		<polyline class="st2" points="266.5,420 267.5,420 266.5,418 264.5,418 263.5,420 263.5,418 264.5,418 265.5,420 		"/>
	</g>
</g>
<g id="_x37_8-우산">
	<g>
		<polyline class="st2" points="178.5,299 178.5,297 177.5,297 177.5,293 184.5,276 192.5,265 200.5,256 217.5,242 230.5,234 
			251.5,225 254.5,225 261.5,223 267.5,223 267.5,222 268.5,222 268.5,214 269.5,213 269.5,210 270.5,210 		"/>
		<polyline class="st2" points="269.5,224 272.5,223 283.5,223 296.5,226 325.5,239 334.5,245 348.5,258 349.5,258 355.5,263 
			366.5,276 369.5,283 		"/>
		<polyline class="st2" points="179.5,306 179.5,305 184.5,299 190.5,294 200.5,288 210.5,285 216.5,285 218.5,286 221.5,286 
			222.5,287 225.5,287 234.5,291 234.5,292 240.5,297 241.5,297 241.5,298 243.5,297 245.5,293 247.5,292 249.5,289 255.5,286 
			259.5,285 267.5,285 282.5,290 288.5,293 295.5,299 297.5,299 297.5,297 299.5,295 301.5,291 304.5,288 308.5,285 318.5,281 
			330.5,281 343.5,285 347.5,287 349.5,289 352.5,289 353.5,286 357.5,283 360.5,283 361.5,282 367.5,282 377.5,284 		"/>
		<polyline class="st2" points="238.5,296 237.5,294 237.5,280 238.5,268 240.5,258 251.5,237 260.5,228 262.5,228 		"/>
		<polyline class="st2" points="266.5,228 267.5,227 269.5,227 275.5,233 283.5,244 289.5,255 294.5,267 297.5,282 298.5,295 
			299.5,295 		"/>
		<polyline class="st2" points="270.5,223 273.5,224 277.5,224 287.5,228 289.5,228 318.5,247 326.5,254 330.5,261 352.5,288 		"/>
		<polyline class="st2" points="350.5,291 350.5,289 351.5,290 354.5,296 353.5,296 347.5,291 349.5,293 350.5,293 351.5,295 
			352.5,295 		"/>
		<polyline class="st2" points="287.5,297 289.5,317 289.5,332 289.5,313 288.5,308 288.5,300 288.5,361 289.5,361 289.5,369 
			288.5,371 		"/>
		<polyline class="st2" points="280.5,339 286.5,352 287.5,356 287.5,360 286.5,361 		"/>
		<polyline class="st2" points="288.5,296 288.5,295 287.5,296 286.5,307 286.5,322 285.5,332 285.5,354 286.5,358 286.5,364 
			284.5,341 284.5,301 284.5,336 285.5,358 286.5,360 286.5,363 286.5,359 		"/>
		<polyline class="st2" points="288.5,376 286.5,375 286.5,386 284.5,389 277.5,392 273.5,392 273.5,391 280.5,391 284.5,388 
			287.5,377 287.5,372 287.5,383 285.5,387 283.5,389 278.5,389 272.5,386 279.5,389 283.5,388 287.5,382 288.5,379 288.5,374 
			288.5,382 286.5,388 282.5,391 278.5,391 277.5,389 		"/>
		<polyline class="st2" points="289.5,294 289.5,291 288.5,291 287.5,300 287.5,358 285.5,338 285.5,317 287.5,306 287.5,348 
			288.5,364 		"/>
		<polyline class="st2" points="287.5,379 287.5,383 284.5,392 280.5,394 278.5,394 268.5,386 271.5,389 277.5,392 283.5,392 
			285.5,387 285.5,384 287.5,381 287.5,379 287.5,383 284.5,389 282.5,391 278.5,391 		"/>
		<polyline class="st2" points="267.5,216 267.5,210 268.5,212 268.5,220 269.5,222 268.5,214 269.5,215 270.5,220 268.5,208 
			269.5,208 271.5,211 271.5,218 271.5,216 270.5,215 270.5,213 270.5,215 271.5,216 		"/>
		<polyline class="st2" points="373.5,288 371.5,287 372.5,287 375.5,291 375.5,292 373.5,293 371.5,291 371.5,288 372.5,288 
			375.5,294 		"/>
		<polyline class="st2" points="297.5,302 294.5,303 294.5,305 295.5,306 295.5,300 295.5,303 296.5,303 296.5,304 		"/>
		<polyline class="st2" points="180.5,300 179.5,299 177.5,299 175.5,302 175.5,305 177.5,305 180.5,301 180.5,300 178.5,301 
			171.5,308 171.5,309 174.5,308 		"/>
	</g>
</g>
<g id="_x37_8-도로">
	<g>
		<polyline class="st2" points="34.5,524 48.5,525 106.5,525 121.5,526 333.5,526 349.5,525 410.5,525 456.5,527 519.5,527 
			540.5,525 542.5,524 		"/>
		<polyline class="st2" points="32.5,527 34.5,527 32.5,526 25.5,524 7.5,524 -2.5,525 -0.5,526 44.5,526 -2.5,526 		"/>
		<polyline class="st2" points="4.5,691 5.5,690 10.5,690 40.5,692 64.5,692 76.5,691 131.5,690 235.5,686 304.5,686 326.5,687 
			388.5,687 421.5,689 439.5,689 443.5,690 459.5,690 506.5,693 526.5,693 559.5,696 		"/>
		<polyline class="st2" points="7.5,602 6.5,600 12.5,598 51.5,598 67.5,597 80.5,599 82.5,600 83.5,601 82.5,605 76.5,608 
			64.5,610 -3.5,610 		"/>
		<polyline class="st2" points="189.5,595 200.5,595 220.5,592 234.5,591 248.5,591 258.5,593 259.5,594 259.5,596 256.5,600 
			250.5,602 196.5,602 152.5,604 150.5,603 151.5,601 155.5,600 156.5,599 164.5,598 173.5,598 		"/>
		<polyline class="st2" points="312.5,594 317.5,593 344.5,592 347.5,591 386.5,590 395.5,591 408.5,594 406.5,599 404.5,601 
			396.5,604 389.5,605 354.5,605 343.5,604 331.5,604 309.5,601 308.5,599 		"/>
		<polyline class="st2" points="462.5,593 463.5,592 472.5,591 493.5,590 519.5,591 531.5,593 533.5,594 532.5,594 528.5,592 		"/>
		<polyline class="st2" points="470.5,591 466.5,592 459.5,592 457.5,594 457.5,595 465.5,598 475.5,599 524.5,599 527.5,600 
			534.5,600 		"/>
		<polyline class="st2" points="2.5,691 4.5,693 6.5,697 		"/>
	</g>
</g>
<g id="_x37_8-자동차">
	<g>
		<line class="st1" x1="0" y1="757" x2="0" y2="0"/>
		<path class="st1" d="M535,757"/>
		<polyline class="st2" points="311.5,566 310.5,565 309.5,561 316.5,550 321.5,538 330.5,521 339.5,508 350.5,498 367.5,488 
			379.5,483 396.5,478 405.5,476 411.5,476 415.5,475 436.5,475 437.5,471 444.5,461 449.5,452 453.5,448 462.5,434 471.5,424 
			479.5,418 490.5,412 501.5,408 517.5,404 534.5,404 		"/>
		<polyline class="st2" points="309.5,565 309.5,564 348.5,558 359.5,557 379.5,557 400.5,555 424.5,554 531.5,553 544.5,555 
			554.5,555 		"/>
		<polyline class="st2" points="355.5,563 351.5,563 344.5,572 342.5,582 342.5,591 346.5,599 354.5,604 361.5,608 377.5,609 
			395.5,600 404.5,593 407.5,589 409.5,584 411.5,568 411.5,556 408.5,552 399.5,545 389.5,543 371.5,542 		"/>
		<polyline class="st2" points="529.5,559 527.5,557 523.5,556 520.5,557 516.5,561 512.5,569 510.5,578 511.5,588 515.5,596 
			525.5,607 531.5,609 538.5,610 546.5,609 550.5,608 555.5,605 		"/>
		<polyline class="st2" points="469.5,475 465.5,477 463.5,477 464.5,470 473.5,456 486.5,442 506.5,430 514.5,427 527.5,424 
			534.5,424 535.5,426 		"/>
		<polyline class="st2" points="468.5,475 464.5,474 486.5,473 510.5,473 537.5,475 542.5,476 546.5,478 545.5,477 		"/>
		<polyline class="st2" points="359.5,493 354.5,493 341.5,514 337.5,522 313.5,551 318.5,549 323.5,544 358.5,503 370.5,490 
			376.5,482 373.5,483 356.5,504 329.5,544 324.5,553 325.5,555 329.5,553 373.5,496 387.5,481 381.5,493 341.5,551 337.5,558 
			338.5,558 345.5,553 373.5,524 399.5,491 412.5,477 391.5,503 371.5,530 360.5,552 362.5,553 407.5,490 420.5,476 425.5,473 
			426.5,473 424.5,479 403.5,511 384.5,534 378.5,543 377.5,547 378.5,548 414.5,497 429.5,479 436.5,472 437.5,472 437.5,474 
			430.5,486 402.5,526 384.5,554 384.5,557 391.5,549 415.5,515 448.5,473 455.5,468 453.5,473 444.5,488 404.5,542 402.5,548 
			403.5,550 407.5,548 425.5,525 429.5,521 444.5,501 459.5,484 466.5,478 467.5,479 463.5,486 417.5,549 412.5,558 413.5,559 
			421.5,552 439.5,527 470.5,490 485.5,478 490.5,477 491.5,478 488.5,484 451.5,532 440.5,549 442.5,550 444.5,548 463.5,521 
			480.5,501 502.5,479 506.5,477 507.5,477 505.5,481 497.5,493 474.5,522 464.5,536 461.5,542 461.5,544 462.5,544 466.5,539 
			502.5,489 513.5,478 515.5,477 514.5,482 506.5,498 493.5,519 482.5,535 475.5,548 476.5,548 478.5,546 485.5,535 508.5,503 
			520.5,487 524.5,483 524.5,486 521.5,493 497.5,535 492.5,548 511.5,521 520.5,510 530.5,500 532.5,499 532.5,502 528.5,512 
			511.5,542 510.5,547 510.5,548 511.5,547 529.5,525 537.5,519 538.5,519 527.5,544 526.5,548 		"/>
		<polyline class="st2" points="454.5,450 451.5,448 450.5,445 451.5,448 451.5,452 450.5,456 449.5,472 450.5,474 452.5,472 
			457.5,459 459.5,456 467.5,431 468.5,429 468.5,431 467.5,438 453.5,476 466.5,446 472.5,428 477.5,420 479.5,420 479.5,423 
			475.5,441 467.5,464 469.5,463 478.5,445 490.5,416 490.5,423 487.5,431 483.5,447 497.5,421 506.5,410 506.5,413 499.5,430 
			496.5,440 495.5,441 497.5,440 511.5,413 515.5,408 519.5,405 518.5,412 512.5,427 511.5,433 529.5,407 531.5,406 530.5,410 
			520.5,430 522.5,429 529.5,420 534.5,413 539.5,404 531.5,418 525.5,426 525.5,427 543.5,408 543.5,410 533.5,422 533.5,423 
			534.5,423 		"/>
		<polyline class="st2" points="527.5,482 527.5,480 523.5,476 516.5,475 484.5,474 450.5,477 398.5,483 353.5,493 329.5,500 
			331.5,501 341.5,500 400.5,487 429.5,483 455.5,481 485.5,481 490.5,482 485.5,481 475.5,481 433.5,486 401.5,491 353.5,501 
			344.5,504 345.5,505 356.5,504 431.5,493 467.5,490 497.5,489 515.5,489 520.5,490 465.5,496 420.5,502 389.5,507 371.5,511 
			367.5,513 381.5,513 401.5,511 428.5,507 469.5,503 509.5,503 506.5,502 481.5,502 411.5,509 386.5,512 356.5,517 343.5,521 
			354.5,521 401.5,517 465.5,514 502.5,515 528.5,517 454.5,519 413.5,521 373.5,526 356.5,529 344.5,533 357.5,533 449.5,526 
			475.5,526 520.5,528 524.5,529 521.5,530 455.5,535 421.5,536 387.5,539 367.5,543 368.5,544 379.5,545 455.5,543 487.5,543 
			531.5,545 409.5,545 368.5,547 344.5,547 341.5,549 330.5,551 		"/>
		<polyline class="st2" points="367.5,491 360.5,490 357.5,493 331.5,512 326.5,517 317.5,530 310.5,545 307.5,549 305.5,554 
			305.5,557 306.5,557 313.5,546 317.5,542 326.5,528 340.5,513 348.5,507 369.5,495 393.5,485 416.5,478 430.5,478 431.5,477 
			428.5,476 423.5,477 399.5,483 376.5,490 360.5,496 343.5,506 322.5,527 302.5,558 301.5,561 302.5,563 307.5,563 311.5,561 
			324.5,557 332.5,555 341.5,554 382.5,551 416.5,551 429.5,549 475.5,545 487.5,545 498.5,544 536.5,544 		"/>
		<polyline class="st2" points="378.5,566 372.5,569 369.5,574 367.5,581 368.5,588 374.5,587 382.5,579 384.5,571 381.5,568 
			378.5,566 373.5,566 369.5,567 366.5,572 364.5,578 364.5,583 365.5,587 369.5,588 374.5,587 379.5,583 383.5,578 384.5,573 
			383.5,569 377.5,562 375.5,561 		"/>
		<polyline class="st2" points="529.5,571 528.5,569 524.5,568 524.5,569 521.5,571 520.5,574 520.5,582 522.5,586 525.5,588 
			527.5,589 529.5,589 530.5,588 530.5,587 525.5,585 523.5,583 521.5,579 521.5,573 526.5,566 529.5,564 531.5,564 529.5,564 
			525.5,567 522.5,575 522.5,580 524.5,583 530.5,586 533.5,586 535.5,585 		"/>
		<polyline class="st2" points="405.5,555 407.5,562 408.5,573 404.5,589 400.5,594 386.5,603 376.5,607 368.5,609 358.5,609 
			354.5,607 350.5,604 336.5,586 333.5,576 332.5,569 333.5,567 338.5,565 		"/>
		<polyline class="st2" points="308.5,546 308.5,543 302.5,542 286.5,543 279.5,546 278.5,554 301.5,553 		"/>
		<polyline class="st2" points="259.5,546 259.5,544 257.5,541 256.5,541 251.5,537 246.5,536 237.5,536 231.5,539 232.5,542 
			238.5,545 232.5,541 227.5,540 216.5,541 210.5,543 200.5,548 197.5,553 199.5,555 204.5,557 207.5,557 208.5,556 208.5,554 
			207.5,554 204.5,558 205.5,564 208.5,567 217.5,569 227.5,564 228.5,561 229.5,561 230.5,565 233.5,568 237.5,569 243.5,568 
			245.5,566 247.5,560 250.5,555 250.5,553 255.5,553 257.5,552 263.5,552 267.5,551 261.5,550 255.5,547 254.5,544 		"/>
	</g>
</g>
<g id="_x37_8-비">
	<g>
		<polyline class="st2" points="70.5,10 65.5,22 48.5,56 39.5,76 35.5,87 35.5,93 		"/>
		<polyline class="st2" points="29.5,117 27.5,117 17.5,134 17.5,135 19.5,131 22.5,128 		"/>
		<polyline class="st2" points="105.5,49 80.5,97 74.5,112 56.5,149 52.5,160 52.5,161 53.5,161 		"/>
		<polyline class="st2" points="29.5,198 28.5,199 27.5,209 23.5,217 		"/>
		<polyline class="st2" points="175.5,14 176.5,12 174.5,20 170.5,31 154.5,65 146.5,85 145.5,87 143.5,87 		"/>
		<polyline class="st2" points="125.5,121 124.5,122 122.5,129 119.5,132 121.5,128 		"/>
		<polyline class="st2" points="202.5,82 197.5,89 181.5,129 166.5,163 158.5,176 		"/>
		<polyline class="st2" points="230.5,38 229.5,39 226.5,49 		"/>
		<polyline class="st2" points="290.5,11 288.5,14 279.5,34 		"/>
		<polyline class="st2" points="348.5,81 344.5,82 327.5,125 		"/>
		<polyline class="st2" points="323.5,191 320.5,193 310.5,216 303.5,225 298.5,229 295.5,230 295.5,229 		"/>
		<polyline class="st2" points="233.5,224 233.5,221 233.5,226 230.5,237 223.5,253 221.5,256 221.5,257 222.5,257 		"/>
		<polyline class="st2" points="212.5,262 205.5,259 200.5,258 192.5,258 191.5,260 		"/>
		<polyline class="st2" points="229.5,264 226.5,264 224.5,262 225.5,257 228.5,253 235.5,247 241.5,244 		"/>
		<polyline class="st2" points="295.5,256 305.5,256 311.5,260 314.5,263 314.5,264 316.5,257 320.5,252 327.5,247 		"/>
		<polyline class="st2" points="287.5,270 286.5,270 290.5,267 306.5,263 		"/>
		<polyline class="st2" points="332.5,257 333.5,252 334.5,252 338.5,249 347.5,246 349.5,247 350.5,249 		"/>
		<polyline class="st2" points="285.5,243 276.5,255 269.5,267 267.5,269 267.5,270 		"/>
		<polyline class="st2" points="464.5,13 463.5,10 449.5,45 436.5,72 412.5,133 406.5,144 404.5,150 400.5,158 		"/>
		<polyline class="st2" points="369.5,180 365.5,182 357.5,206 346.5,229 		"/>
		<polyline class="st2" points="442.5,192 441.5,193 441.5,196 437.5,209 435.5,212 424.5,237 406.5,270 403.5,274 		"/>
		<polyline class="st2" points="528.5,29 528.5,28 517.5,48 489.5,102 473.5,137 469.5,150 		"/>
		<polyline class="st2" points="510.5,131 506.5,136 486.5,180 483.5,185 480.5,196 479.5,197 479.5,199 		"/>
		<polyline class="st2" points="533.5,180 529.5,183 517.5,204 508.5,228 506.5,231 502.5,242 489.5,270 		"/>
		<polyline class="st2" points="461.5,262 460.5,261 457.5,276 452.5,288 422.5,340 421.5,344 421.5,350 		"/>
		<polyline class="st2" points="506.5,320 503.5,324 492.5,355 487.5,366 469.5,397 461.5,409 461.5,410 		"/>
		<polyline class="st2" points="433.5,418 428.5,424 420.5,443 		"/>
		<polyline class="st2" points="363.5,324 361.5,324 348.5,355 344.5,373 338.5,390 338.5,394 340.5,393 		"/>
		<polyline class="st2" points="372.5,413 368.5,416 364.5,435 360.5,447 352.5,459 350.5,460 		"/>
		<polyline class="st2" points="318.5,436 314.5,445 308.5,464 		"/>
		<polyline class="st2" points="31.5,278 30.5,280 22.5,327 13.5,359 15.5,360 17.5,359 		"/>
	</g>
</g>
<g id="_x37_8-동물">
	<g>
		<polyline class="st2" points="6.5,473 7.5,471 7.5,468 10.5,460 13.5,442 13.5,413 18.5,390 22.5,366 31.5,328 41.5,297 52.5,267 
			56.5,258 72.5,233 88.5,218 92.5,216 101.5,209 116.5,204 139.5,204 150.5,208 166.5,216 174.5,222 180.5,229 188.5,236 
			190.5,239 194.5,241 		"/>
		<polyline class="st2" points="205.5,295 204.5,295 204.5,299 205.5,300 211.5,316 219.5,331 220.5,337 222.5,342 230.5,388 
			232.5,394 237.5,421 239.5,445 240.5,446 240.5,449 242.5,457 242.5,463 244.5,476 244.5,486 242.5,496 242.5,500 241.5,504 
			240.5,504 		"/>
		<polyline class="st2" points="16.5,460 16.5,457 15.5,456 14.5,458 14.5,494 16.5,500 19.5,505 28.5,513 38.5,518 43.5,518 		"/>
		<polyline class="st2" points="241.5,501 239.5,503 238.5,506 229.5,518 229.5,519 		"/>
		<polyline class="st2" points="79.5,225 80.5,226 80.5,224 70.5,213 70.5,212 66.5,209 59.5,206 52.5,207 49.5,212 47.5,220 
			47.5,234 48.5,238 48.5,246 49.5,246 		"/>
		<polyline class="st2" points="173.5,220 178.5,212 189.5,202 191.5,202 193.5,204 194.5,208 194.5,213 195.5,215 195.5,239 		"/>
		<polyline class="st2" points="147.5,256 146.5,255 146.5,253 148.5,253 150.5,256 149.5,258 147.5,258 147.5,255 149.5,254 
			149.5,256 148.5,257 148.5,255 151.5,252 151.5,254 		"/>
		<polyline class="st2" points="103.5,259 102.5,259 102.5,257 103.5,256 105.5,257 104.5,261 102.5,262 101.5,261 101.5,258 
			103.5,257 103.5,259 102.5,259 102.5,257 103.5,256 		"/>
		<polyline class="st2" points="124.5,271 126.5,270 132.5,270 132.5,273 129.5,275 123.5,276 122.5,275 122.5,273 123.5,272 
			127.5,274 128.5,274 128.5,272 129.5,272 127.5,273 127.5,274 128.5,273 		"/>
		<polyline class="st2" points="134.5,273 151.5,266 158.5,265 163.5,266 		"/>
		<polyline class="st2" points="134.5,277 135.5,276 145.5,275 160.5,275 162.5,276 160.5,276 		"/>
		<polyline class="st2" points="137.5,283 139.5,284 148.5,284 153.5,285 156.5,286 157.5,287 156.5,287 		"/>
		<polyline class="st2" points="120.5,272 116.5,274 78.5,273 77.5,272 		"/>
		<polyline class="st2" points="115.5,276 108.5,277 82.5,285 81.5,285 81.5,284 		"/>
		<polyline class="st2" points="108.5,281 104.5,284 102.5,284 98.5,286 88.5,289 82.5,292 82.5,291 		"/>
		<polyline class="st2" points="120.5,280 121.5,280 121.5,286 122.5,288 122.5,291 124.5,291 129.5,284 130.5,276 131.5,275 		"/>
		<polyline class="st2" points="66.5,518 63.5,518 63.5,511 62.5,508 62.5,488 63.5,482 64.5,453 67.5,426 78.5,387 83.5,373 
			97.5,340 103.5,332 114.5,323 126.5,319 136.5,319 152.5,329 163.5,339 166.5,343 170.5,351 173.5,360 184.5,379 188.5,389 
			198.5,409 210.5,454 210.5,468 211.5,477 210.5,481 210.5,487 207.5,502 207.5,506 205.5,511 205.5,514 		"/>
		<polyline class="st2" points="201.5,325 201.5,324 200.5,324 194.5,331 192.5,336 192.5,339 198.5,342 206.5,338 		"/>
		<polyline class="st2" points="63.5,325 69.5,337 68.5,341 63.5,343 57.5,344 51.5,339 51.5,336 		"/>
		<polyline class="st2" points="110.5,208 109.5,210 109.5,219 110.5,225 112.5,227 113.5,226 113.5,223 116.5,211 116.5,205 		"/>
		<polyline class="st2" points="122.5,207 120.5,215 120.5,229 121.5,229 123.5,222 125.5,206 126.5,206 		"/>
		<polyline class="st2" points="137.5,206 134.5,207 132.5,213 133.5,218 135.5,217 139.5,207 		"/>
		<polyline class="st2" points="113.5,364 110.5,364 112.5,362 114.5,358 115.5,355 115.5,351 117.5,348 120.5,351 122.5,360 
			122.5,365 118.5,365 116.5,364 113.5,356 		"/>
		<polyline class="st2" points="129.5,360 129.5,359 127.5,357 127.5,349 129.5,345 131.5,344 132.5,344 136.5,359 135.5,361 
			134.5,360 132.5,360 129.5,358 128.5,355 		"/>
		<polyline class="st2" points="143.5,359 141.5,359 140.5,358 140.5,349 142.5,344 144.5,343 149.5,356 149.5,359 147.5,361 
			145.5,361 141.5,358 		"/>
		<polyline class="st2" points="123.5,383 122.5,381 122.5,378 124.5,373 126.5,371 128.5,371 129.5,376 129.5,383 128.5,385 
			125.5,385 122.5,382 		"/>
		<polyline class="st2" points="138.5,383 137.5,383 135.5,381 135.5,373 138.5,369 140.5,368 141.5,370 141.5,373 145.5,383 
			144.5,382 137.5,381 136.5,380 		"/>
		<polyline class="st2" points="52.5,342 41.5,361 41.5,365 38.5,383 		"/>
	</g>
</g>
</svg>
