<?xml version="1.0" encoding="utf-8"?>
<!-- Generator: Adobe Illustrator 26.2.1, SVG Export Plug-In . SVG Version: 6.00 Build 0)  -->
<svg version="1.1" xmlns="http://www.w3.org/2000/svg" xmlns:xlink="http://www.w3.org/1999/xlink" x="0px" y="0px"
	 viewBox="0 0 535 757" style="enable-background:new 0 0 535 757;" xml:space="preserve">
<style type="text/css">
	.st0{fill:#FFFFFF;}
	.st1{fill:none;stroke:#000000;stroke-width:2;}
</style>
<g id="레이어_1" xmlns:ev="http://www.w3.org/2001/xml-events">
	<rect class="st0" width="535" height="757"/>
	<rect class="st0" width="535" height="757"/>
</g>
<g id="_x37_9-사람">
	<g>
		<polyline class="st1" points="263.5,272 263.5,270 262.5,271 261.5,284 261.5,307 267.5,348 272.5,371 273.5,379 273.5,384 
			272.5,387 274.5,385 272.5,381 272.5,383 285.5,399 305.5,417 308.5,418 313.5,422 315.5,422 337.5,433 		"/>
		<polyline class="st1" points="343.5,431 351.5,431 376.5,421 386.5,416 402.5,403 418.5,394 421.5,391 422.5,391 425.5,388 
			425.5,386 427.5,383 		"/>
		<polyline class="st1" points="441.5,328 442.5,318 443.5,315 450.5,310 453.5,310 457.5,313 460.5,317 464.5,323 466.5,328 
			468.5,341 469.5,343 468.5,351 463.5,360 		"/>
		<polyline class="st1" points="436.5,377 435.5,378 438.5,377 453.5,370 460.5,368 465.5,365 		"/>
		<polyline class="st1" points="320.5,203 315.5,207 309.5,219 300.5,252 295.5,277 294.5,287 295.5,307 299.5,323 		"/>
		<polyline class="st1" points="304.5,324 305.5,326 308.5,328 316.5,331 340.5,335 372.5,337 385.5,335 		"/>
		<polyline class="st1" points="384.5,237 383.5,249 383.5,285 384.5,301 386.5,311 387.5,322 392.5,334 		"/>
		<polyline class="st1" points="392.5,252 393.5,258 405.5,286 415.5,300 423.5,309 431.5,314 446.5,318 		"/>
		<polyline class="st1" points="322.5,201 319.5,205 309.5,215 301.5,228 289.5,245 274.5,272 265.5,295 260.5,311 259.5,323 
			262.5,331 		"/>
		<polyline class="st1" points="371.5,317 372.5,315 378.5,312 387.5,312 396.5,316 405.5,326 		"/>
		<polyline class="st1" points="413.5,333 414.5,338 415.5,339 415.5,348 413.5,353 405.5,366 397.5,374 395.5,375 395.5,374 
			396.5,374 406.5,367 409.5,366 409.5,367 401.5,373 397.5,375 396.5,377 395.5,377 401.5,373 409.5,365 411.5,364 		"/>
		<polyline class="st1" points="378.5,315 375.5,316 373.5,318 369.5,325 367.5,333 366.5,342 367.5,352 371.5,358 375.5,360 		"/>
		<polyline class="st1" points="373.5,317 370.5,319 367.5,323 365.5,328 364.5,348 367.5,356 370.5,359 375.5,360 380.5,359 
			385.5,356 		"/>
		<polyline class="st1" points="391.5,329 393.5,333 394.5,339 390.5,352 388.5,358 386.5,361 384.5,362 383.5,360 381.5,359 
			387.5,359 390.5,358 393.5,354 394.5,348 394.5,331 395.5,326 396.5,330 396.5,342 392.5,351 386.5,354 		"/>
		<polyline class="st1" points="409.5,327 413.5,332 419.5,334 422.5,334 423.5,335 		"/>
		<polyline class="st1" points="421.5,337 420.5,338 424.5,337 422.5,339 418.5,341 418.5,342 418.5,341 420.5,339 		"/>
		<polyline class="st1" points="395.5,319 393.5,318 393.5,316 393.5,318 396.5,324 397.5,332 396.5,335 395.5,336 393.5,336 
			393.5,334 395.5,332 396.5,329 396.5,322 393.5,317 389.5,316 		"/>
		<polyline class="st1" points="289.5,309 291.5,309 295.5,311 297.5,313 300.5,314 302.5,316 303.5,319 294.5,312 288.5,310 
			284.5,309 274.5,310 271.5,311 266.5,320 266.5,327 		"/>
		<polyline class="st1" points="273.5,314 269.5,316 268.5,319 266.5,331 266.5,338 268.5,350 272.5,361 276.5,369 279.5,373 		"/>
		<polyline class="st1" points="281.5,317 279.5,316 275.5,319 272.5,327 272.5,344 274.5,349 278.5,352 288.5,351 291.5,346 
			293.5,340 293.5,327 290.5,317 		"/>
		<polyline class="st1" points="287.5,314 292.5,317 295.5,320 296.5,324 296.5,335 293.5,345 291.5,347 283.5,347 289.5,347 
			292.5,346 297.5,340 297.5,338 298.5,337 298.5,333 295.5,324 294.5,323 		"/>
		<polyline class="st1" points="300.5,318 302.5,317 305.5,318 309.5,322 312.5,328 311.5,326 309.5,325 302.5,317 297.5,317 
			297.5,316 304.5,319 307.5,322 312.5,330 		"/>
		<polyline class="st1" points="284.5,310 276.5,310 270.5,309 267.5,307 265.5,305 265.5,304 264.5,304 264.5,309 269.5,315 
			271.5,316 273.5,315 274.5,313 		"/>
		<polyline class="st1" points="268.5,345 268.5,350 270.5,353 280.5,358 286.5,360 286.5,359 		"/>
		<polyline class="st1" points="276.5,353 270.5,353 290.5,358 		"/>
		<polyline class="st1" points="333.5,370 332.5,372 331.5,372 330.5,374 328.5,375 328.5,376 329.5,376 331.5,374 335.5,373 
			341.5,373 341.5,372 		"/>
		<polyline class="st1" points="335.5,370 335.5,371 338.5,371 341.5,373 333.5,373 333.5,374 338.5,374 337.5,373 333.5,373 		"/>
		<polyline class="st1" points="316.5,393 318.5,389 324.5,388 332.5,388 339.5,391 346.5,396 346.5,397 348.5,399 349.5,403 
			348.5,405 344.5,407 332.5,409 321.5,401 317.5,396 316.5,392 		"/>
		<polyline class="st1" points="444.5,381 442.5,380 441.5,381 436.5,390 430.5,406 428.5,426 428.5,438 430.5,449 432.5,453 		"/>
		<polyline class="st1" points="363.5,431 362.5,433 361.5,441 358.5,450 		"/>
		<polyline class="st1" points="420.5,393 420.5,394 405.5,416 389.5,436 371.5,454 366.5,458 360.5,459 		"/>
		<polyline class="st1" points="368.5,431 369.5,429 369.5,431 366.5,446 367.5,442 378.5,425 380.5,424 380.5,426 375.5,440 
			379.5,431 384.5,425 388.5,421 392.5,420 392.5,422 		"/>
		<polyline class="st1" points="332.5,185 333.5,183 331.5,181 324.5,183 309.5,189 299.5,194 293.5,198 		"/>
		<polyline class="st1" points="255.5,248 252.5,258 244.5,301 243.5,324 242.5,331 242.5,411 		"/>
		<polyline class="st1" points="242.5,430 242.5,433 245.5,434 252.5,439 264.5,442 280.5,443 316.5,442 		"/>
		<polyline class="st1" points="410.5,181 415.5,180 462.5,197 473.5,208 490.5,230 		"/>
		<polyline class="st1" points="503.5,249 507.5,253 512.5,260 517.5,273 518.5,284 518.5,297 514.5,332 509.5,357 508.5,371 
			507.5,374 		"/>
		<polyline class="st1" points="460.5,422 459.5,423 461.5,423 476.5,417 491.5,413 509.5,413 		"/>
		<polyline class="st1" points="359.5,457 358.5,458 358.5,467 359.5,470 361.5,471 364.5,471 		"/>
		<polyline class="st1" points="377.5,469 401.5,459 410.5,456 413.5,454 		"/>
		<polyline class="st1" points="393.5,462 394.5,460 398.5,457 403.5,454 411.5,451 425.5,447 430.5,446 436.5,446 		"/>
		<polyline class="st1" points="437.5,446 437.5,447 442.5,446 453.5,446 454.5,447 		"/>
		<polyline class="st1" points="442.5,446 447.5,441 467.5,436 476.5,437 483.5,439 487.5,442 490.5,443 		"/>
		<polyline class="st1" points="497.5,446 508.5,481 511.5,492 511.5,497 		"/>
		<polyline class="st1" points="507.5,497 507.5,503 504.5,525 493.5,594 493.5,602 		"/>
		<polyline class="st1" points="443.5,488 446.5,486 446.5,485 		"/>
		<polyline class="st1" points="449.5,492 449.5,491 458.5,488 469.5,488 483.5,490 497.5,494 507.5,498 512.5,502 513.5,509 		"/>
		<polyline class="st1" points="449.5,491 441.5,542 436.5,600 436.5,616 437.5,620 		"/>
		<line class="st1" x1="437.5" y1="620" x2="437.5" y2="623"/>
		<polyline class="st1" points="439.5,625 440.5,627 445.5,631 450.5,633 460.5,634 		"/>
		<polyline class="st1" points="495.5,608 494.5,617 494.5,654 493.5,664 		"/>
		<polyline class="st1" points="437.5,597 435.5,630 433.5,647 426.5,687 426.5,702 		"/>
		<polyline class="st1" points="357.5,461 346.5,462 305.5,470 299.5,470 		"/>
		<polyline class="st1" points="304.5,468 296.5,477 284.5,503 277.5,521 270.5,542 260.5,578 		"/>
		<polyline class="st1" points="288.5,489 282.5,508 271.5,548 263.5,573 245.5,644 240.5,657 238.5,658 238.5,661 239.5,661 
			239.5,663 240.5,664 		"/>
		<line class="st1" x1="241.5" y1="665" x2="241.5" y2="668"/>
		<polyline class="st1" points="324.5,529 321.5,541 320.5,597 322.5,630 325.5,657 		"/>
		<polyline class="st1" points="312.5,527 311.5,534 310.5,612 310.5,664 311.5,670 		"/>
		<polyline class="st1" points="321.5,681 325.5,686 332.5,689 350.5,692 377.5,691 413.5,687 422.5,687 427.5,688 		"/>
		<polyline class="st1" points="233.5,673 246.5,683 255.5,687 273.5,689 		"/>
		<polyline class="st1" points="288.5,690 290.5,692 302.5,691 307.5,689 311.5,685 311.5,683 312.5,684 312.5,690 311.5,693 
			309.5,696 298.5,705 		"/>
		<polyline class="st1" points="314.5,647 313.5,679 310.5,729 308.5,741 305.5,750 303.5,755 301.5,757 301.5,754 		"/>
		<polyline class="st1" points="312.5,648 313.5,649 310.5,663 302.5,719 297.5,778 298.5,782 		"/>
		<polyline class="st1" points="504.5,726 509.5,742 523.5,761 		"/>
		<polyline class="st1" points="492.5,687 494.5,697 509.5,737 518.5,755 518.5,757 520.5,759 520.5,757 		"/>
		<polyline class="st1" points="412.5,515 413.5,516 414.5,521 392.5,577 382.5,611 362.5,689 358.5,695 		"/>
		<line class="st1" x1="391.5" y1="653" x2="391.5" y2="652"/>
		<polyline class="st1" points="397.5,634 396.5,635 390.5,651 381.5,664 376.5,669 378.5,666 383.5,668 387.5,668 395.5,666 
			409.5,656 		"/>
		<line class="st1" x1="462.5" y1="184" x2="461.5" y2="195"/>
		<polyline class="st1" points="458.5,214 460.5,211 476.5,203 486.5,202 488.5,204 		"/>
		<polyline class="st1" points="262.5,218 264.5,218 275.5,226 		"/>
		<polyline class="st1" points="274.5,226 275.5,226 275.5,222 276.5,221 277.5,214 280.5,208 		"/>
		<polyline class="st1" points="279.5,221 278.5,222 276.5,231 276.5,235 277.5,237 280.5,237 282.5,233 281.5,227 284.5,225 
			286.5,225 285.5,227 283.5,228 		"/>
		<polyline class="st1" points="249.5,676 245.5,700 242.5,711 236.5,729 231.5,740 228.5,745 226.5,746 		"/>
		<polyline class="st1" points="240.5,683 238.5,686 229.5,723 223.5,742 218.5,751 212.5,758 		"/>
		<polyline class="st1" points="497.5,642 496.5,644 492.5,667 485.5,694 482.5,701 480.5,709 480.5,715 		"/>
		<polyline class="st1" points="497.5,614 496.5,615 494.5,627 488.5,649 477.5,697 476.5,708 476.5,722 		"/>
		<line class="st1" x1="436.5" y1="648" x2="430.5" y2="726"/>
		<polyline class="st1" points="307.5,286 307.5,311 307.5,305 306.5,301 306.5,295 308.5,286 307.5,300 307.5,308 308.5,314 
			310.5,315 311.5,294 311.5,314 312.5,301 313.5,302 313.5,316 313.5,310 315.5,306 315.5,317 316.5,315 316.5,309 317.5,308 
			317.5,318 318.5,322 319.5,322 319.5,317 		"/>
		<polyline class="st1" points="285.5,292 283.5,293 275.5,293 273.5,294 269.5,298 255.5,320 		"/>
		<polyline class="st1" points="259.5,356 260.5,358 264.5,361 272.5,365 287.5,370 298.5,370 302.5,369 310.5,366 317.5,362 		"/>
		<polyline class="st1" points="306.5,289 309.5,291 322.5,306 328.5,318 329.5,324 329.5,338 327.5,346 324.5,353 321.5,356 
			318.5,357 		"/>
		<polyline class="st1" points="324.5,341 325.5,340 333.5,337 343.5,338 344.5,341 		"/>
		<polyline class="st1" points="385.5,300 381.5,299 369.5,302 353.5,313 349.5,320 344.5,336 343.5,351 344.5,358 348.5,365 
			353.5,372 365.5,377 374.5,378 		"/>
		<polyline class="st1" points="375.5,376 380.5,379 386.5,381 393.5,382 400.5,382 401.5,381 		"/>
		<polyline class="st1" points="392.5,299 392.5,297 405.5,299 411.5,306 422.5,332 424.5,343 424.5,353 		"/>
		<polyline class="st1" points="410.5,378 412.5,378 414.5,376 419.5,375 424.5,372 		"/>
		<polyline class="st1" points="430.5,322 437.5,318 453.5,316 		"/>
		<polyline class="st1" points="425.5,326 435.5,322 446.5,320 437.5,323 		"/>
		<polyline class="st1" points="264.5,302 262.5,302 261.5,297 260.5,302 260.5,308 		"/>
		<polyline class="st1" points="260.5,311 260.5,305 258.5,304 258.5,303 		"/>
		<polyline class="st1" points="290.5,296 290.5,302 291.5,304 293.5,305 294.5,302 294.5,298 295.5,297 		"/>
		<polyline class="st1" points="312.5,343 312.5,342 310.5,343 308.5,348 308.5,354 312.5,353 313.5,351 317.5,349 		"/>
		<polyline class="st1" points="353.5,344 352.5,345 354.5,354 362.5,351 363.5,350 		"/>
		<polyline class="st1" points="400.5,320 401.5,326 404.5,328 408.5,323 408.5,318 		"/>
		<polyline class="st1" points="394.5,390 393.5,394 395.5,395 400.5,392 404.5,388 		"/>
		<polyline class="st1" points="290.5,401 293.5,407 295.5,408 296.5,410 297.5,418 299.5,421 299.5,423 300.5,423 301.5,426 
			303.5,428 305.5,428 309.5,426 309.5,425 311.5,423 311.5,425 319.5,424 		"/>
		<polyline class="st1" points="336.5,436 336.5,437 339.5,438 		"/>
		<polyline class="st1" points="339.5,437 338.5,437 339.5,439 340.5,439 340.5,440 344.5,441 		"/>
		<polyline class="st1" points="346.5,439 348.5,439 350.5,435 		"/>
		<polyline class="st1" points="351.5,436 351.5,434 354.5,432 354.5,431 356.5,431 		"/>
		<polyline class="st1" points="287.5,383 290.5,389 290.5,388 292.5,388 294.5,382 295.5,382 		"/>
	</g>
</g>
<g id="_x37_9-비">
	<g>
		<polyline class="st1" points="108.5,22 104.5,35 99.5,61 100.5,67 102.5,72 105.5,72 108.5,57 108.5,47 		"/>
		<polyline class="st1" points="184.5,217 183.5,223 183.5,252 182.5,264 182.5,327 		"/>
		<polyline class="st1" points="75.5,205 74.5,217 72.5,286 72.5,301 74.5,334 		"/>
		<polyline class="st1" points="196.5,538 195.5,560 195.5,610 		"/>
		<polyline class="st1" points="120.5,382 121.5,384 121.5,423 		"/>
		<polyline class="st1" points="242.5,75 241.5,79 239.5,100 239.5,118 		"/>
		<line class="st1" x1="72.5" y1="478" x2="69.5" y2="572"/>
		<polyline class="st1" points="422.5,40 421.5,43 420.5,64 420.5,110 		"/>
		<line class="st1" x1="107.5" y1="696" x2="107.5" y2="745"/>
		<line class="st1" x1="189.5" y1="657" x2="188.5" y2="713"/>
		<polyline class="st1" points="40.5,140 39.5,142 40.5,150 44.5,150 45.5,149 46.5,145 46.5,140 		"/>
	</g>
</g>
</svg>
