<?xml version="1.0" encoding="utf-8"?>
<!-- Generator: Adobe Illustrator 26.2.1, SVG Export Plug-In . SVG Version: 6.00 Build 0)  -->
<svg version="1.1" xmlns="http://www.w3.org/2000/svg" xmlns:xlink="http://www.w3.org/1999/xlink" x="0px" y="0px"
	 viewBox="0 0 535 757" style="enable-background:new 0 0 535 757;" xml:space="preserve">
<style type="text/css">
	.st0{fill:#FFFFFF;}
	.st1{fill:none;stroke:#000000;stroke-width:2;}
</style>
<g id="레이어_1" xmlns:ev="http://www.w3.org/2001/xml-events">
	<rect class="st0" width="535" height="757"/>
	<rect class="st0" width="535" height="757"/>
</g>
<g id="_x38_1-사람">
	<g>
		<polyline class="st1" points="340.5,330 342.5,330 342.5,331 343.5,331 346.5,337 347.5,341 347.5,344 348.5,346 347.5,364 
			346.5,368 343.5,371 343.5,372 342.5,372 342.5,373 341.5,373 341.5,374 339.5,375 336.5,379 332.5,381 328.5,385 328.5,386 
			327.5,386 327.5,385 		"/>
		<polyline class="st1" points="343.5,328 343.5,329 346.5,330 348.5,332 348.5,333 351.5,336 355.5,343 357.5,344 357.5,345 
			359.5,347 361.5,353 362.5,354 363.5,359 365.5,362 366.5,371 367.5,373 367.5,377 368.5,379 368.5,395 367.5,396 367.5,398 
			365.5,402 362.5,406 362.5,409 361.5,409 361.5,411 349.5,411 347.5,412 344.5,412 343.5,413 331.5,413 329.5,412 322.5,411 
			321.5,410 314.5,409 313.5,408 311.5,408 308.5,406 304.5,405 300.5,402 297.5,397 293.5,393 292.5,389 		"/>
		<polyline class="st1" points="323.5,386 323.5,385 320.5,385 308.5,387 300.5,387 299.5,386 293.5,385 289.5,381 288.5,379 		"/>
		<polyline class="st1" points="335.5,332 336.5,334 331.5,334 323.5,337 318.5,345 318.5,346 319.5,346 320.5,344 323.5,344 
			325.5,343 331.5,343 334.5,344 336.5,347 336.5,348 334.5,348 333.5,347 326.5,347 324.5,348 320.5,355 319.5,359 320.5,359 
			320.5,358 324.5,356 330.5,356 333.5,359 333.5,360 326.5,360 324.5,361 323.5,363 321.5,364 317.5,371 321.5,370 322.5,369 
			327.5,369 329.5,370 329.5,372 321.5,372 317.5,374 315.5,374 318.5,374 321.5,376 321.5,381 320.5,381 318.5,383 311.5,384 
			304.5,381 300.5,377 299.5,375 299.5,376 296.5,379 288.5,379 		"/>
		<polyline class="st1" points="340.5,328 339.5,326 336.5,325 336.5,324 329.5,320 323.5,320 322.5,321 319.5,321 318.5,322 
			312.5,323 306.5,326 306.5,327 302.5,328 301.5,330 300.5,330 293.5,336 290.5,336 		"/>
		<polyline class="st1" points="323.5,332 323.5,334 307.5,334 306.5,335 300.5,336 294.5,340 291.5,341 291.5,342 287.5,347 		"/>
		<polyline class="st1" points="285.5,349 285.5,355 284.5,357 284.5,368 287.5,374 288.5,374 		"/>
		<line class="st1" x1="281.5" y1="350" x2="274.5" y2="350"/>
		<line class="st1" x1="285.5" y1="369" x2="281.5" y2="371"/>
		<polyline class="st1" points="283.5,372 282.5,372 281.5,370 275.5,367 275.5,365 274.5,365 273.5,362 271.5,360 271.5,357 
			270.5,357 270.5,356 		"/>
		<polyline class="st1" points="275.5,349 273.5,354 271.5,356 270.5,356 270.5,357 		"/>
		<polyline class="st1" points="281.5,369 281.5,379 280.5,381 278.5,379 278.5,378 277.5,378 277.5,377 271.5,371 270.5,371 
			270.5,372 267.5,375 267.5,376 265.5,376 264.5,374 263.5,362 266.5,357 		"/>
		<polyline class="st1" points="273.5,387 274.5,387 274.5,392 265.5,400 263.5,400 260.5,402 250.5,404 244.5,407 239.5,408 
			232.5,408 		"/>
		<polyline class="st1" points="224.5,405 224.5,404 223.5,404 219.5,400 217.5,399 216.5,397 213.5,395 211.5,390 208.5,387 
			208.5,385 207.5,384 207.5,378 204.5,369 204.5,364 205.5,364 207.5,359 		"/>
		<polyline class="st1" points="236.5,381 237.5,381 237.5,380 235.5,378 231.5,371 230.5,359 		"/>
		<polyline class="st1" points="225.5,358 216.5,355 204.5,354 		"/>
		<polyline class="st1" points="226.5,357 227.5,357 227.5,354 230.5,348 230.5,344 228.5,342 227.5,342 225.5,343 223.5,347 
			222.5,347 224.5,344 224.5,338 221.5,336 216.5,336 213.5,339 205.5,355 205.5,357 		"/>
		<polyline class="st1" points="275.5,347 277.5,347 277.5,345 274.5,337 268.5,328 265.5,321 258.5,317 257.5,315 		"/>
		<polyline class="st1" points="255.5,315 255.5,313 253.5,313 252.5,312 242.5,312 234.5,315 229.5,318 225.5,324 221.5,328 
			219.5,332 219.5,334 		"/>
		<polyline class="st1" points="247.5,330 249.5,331 249.5,332 240.5,338 235.5,344 234.5,347 232.5,349 		"/>
		<polyline class="st1" points="230.5,351 233.5,351 234.5,355 235.5,356 235.5,359 231.5,357 		"/>
		<polyline class="st1" points="224.5,313 220.5,312 206.5,306 173.5,296 154.5,293 148.5,291 145.5,291 145.5,295 		"/>
		<polyline class="st1" points="210.5,404 210.5,401 209.5,403 207.5,404 187.5,411 170.5,414 155.5,418 152.5,417 		"/>
		<polyline class="st1" points="149.5,292 150.5,290 150.5,295 143.5,309 139.5,314 133.5,329 131.5,340 131.5,367 134.5,389 
			138.5,402 142.5,410 151.5,420 		"/>
		<polyline class="st1" points="131.5,327 99.5,323 96.5,323 92.5,325 92.5,326 		"/>
		<polyline class="st1" points="125.5,350 124.5,348 118.5,346 113.5,346 100.5,344 88.5,344 		"/>
		<polyline class="st1" points="90.5,323 91.5,322 91.5,324 89.5,330 87.5,344 86.5,344 		"/>
		<polyline class="st1" points="126.5,360 127.5,358 103.5,358 96.5,359 94.5,360 		"/>
		<polyline class="st1" points="128.5,374 128.5,375 117.5,375 95.5,378 		"/>
		<polyline class="st1" points="88.5,354 89.5,354 89.5,364 90.5,369 94.5,381 95.5,381 94.5,381 94.5,380 		"/>
		<polyline class="st1" points="87.5,358 87.5,357 88.5,357 87.5,358 72.5,360 70.5,361 70.5,362 		"/>
		<polyline class="st1" points="88.5,321 89.5,319 78.5,319 74.5,318 78.5,318 78.5,305 76.5,301 75.5,301 75.5,300 73.5,299 
			73.5,298 71.5,297 67.5,297 65.5,298 60.5,303 60.5,304 57.5,308 56.5,314 55.5,315 55.5,333 54.5,333 54.5,334 		"/>
		<polyline class="st1" points="85.5,342 85.5,341 83.5,340 77.5,340 67.5,338 52.5,338 		"/>
		<polyline class="st1" points="70.5,362 70.5,359 69.5,357 64.5,351 60.5,351 59.5,352 57.5,352 55.5,353 55.5,355 54.5,355 
			54.5,367 55.5,368 55.5,371 56.5,371 56.5,373 58.5,375 59.5,378 63.5,382 63.5,383 		"/>
		<polyline class="st1" points="90.5,378 86.5,378 84.5,379 75.5,380 67.5,382 64.5,384 62.5,384 		"/>
		<line class="st1" x1="258.5" y1="357" x2="259.5" y2="357"/>
		<polyline class="st1" points="272.5,346 272.5,344 274.5,344 274.5,342 272.5,341 270.5,337 267.5,335 267.5,339 265.5,340 
			265.5,342 263.5,342 261.5,341 261.5,340 259.5,341 260.5,347 264.5,352 264.5,353 266.5,354 266.5,355 		"/>
		<polyline class="st1" points="256.5,352 258.5,352 258.5,351 256.5,350 253.5,350 252.5,351 252.5,353 255.5,356 258.5,356 
			260.5,353 259.5,351 257.5,350 		"/>
		<polyline class="st1" points="240.5,351 241.5,351 241.5,349 237.5,349 237.5,353 239.5,354 242.5,354 243.5,352 		"/>
		<polyline class="st1" points="313.5,336 316.5,336 317.5,338 317.5,344 314.5,347 313.5,347 		"/>
		<polyline class="st1" points="313.5,359 315.5,359 316.5,361 316.5,367 313.5,370 312.5,370 312.5,371 310.5,371 		"/>
		<polyline class="st1" points="310.5,350 310.5,349 305.5,349 305.5,350 303.5,350 303.5,353 		"/>
		<polyline class="st1" points="295.5,348 295.5,350 294.5,351 294.5,359 297.5,362 298.5,362 298.5,363 300.5,364 		"/>
		<polyline class="st1" points="223.5,363 226.5,363 226.5,365 225.5,365 224.5,367 		"/>
		<polyline class="st1" points="226.5,367 228.5,366 224.5,366 222.5,367 219.5,367 218.5,368 215.5,368 214.5,369 200.5,369 		"/>
		<polyline class="st1" points="209.5,355 210.5,355 210.5,359 212.5,364 212.5,366 213.5,367 213.5,364 212.5,364 208.5,357 
			206.5,350 		"/>
	</g>
</g>
<g id="_x38_1-나무">
	<g>
		<polyline class="st1" points="85.5,81 103.5,81 137.5,76 176.5,76 187.5,75 		"/>
		<polyline class="st1" points="87.5,92 92.5,92 105.5,89 108.5,87 115.5,86 130.5,86 131.5,87 134.5,87 144.5,90 157.5,101 		"/>
		<polyline class="st1" points="168.5,103 169.5,103 173.5,106 192.5,123 		"/>
		<polyline class="st1" points="159.5,104 164.5,118 172.5,134 173.5,134 		"/>
		<line class="st1" x1="162.5" y1="96" x2="179.5" y2="95"/>
		<polyline class="st1" points="156.5,72 156.5,71 171.5,56 177.5,51 180.5,50 		"/>
		<polyline class="st1" points="92.5,141 93.5,139 112.5,139 119.5,137 132.5,135 158.5,134 		"/>
		<polyline class="st1" points="94.5,152 94.5,150 107.5,150 108.5,149 124.5,148 131.5,149 		"/>
		<polyline class="st1" points="135.5,153 144.5,153 146.5,154 149.5,156 152.5,160 165.5,171 172.5,178 181.5,185 192.5,191 		"/>
		<polyline class="st1" points="154.5,154 157.5,154 159.5,155 172.5,155 175.5,154 179.5,154 		"/>
		<polyline class="st1" points="157.5,172 158.5,173 158.5,185 159.5,192 160.5,194 		"/>
		<polyline class="st1" points="213.5,14 214.5,12 216.5,12 229.5,18 234.5,26 235.5,34 		"/>
		<polyline class="st1" points="232.5,46 232.5,45 234.5,45 247.5,50 250.5,53 254.5,60 254.5,64 251.5,72 248.5,77 248.5,80 
			250.5,84 256.5,90 260.5,97 261.5,107 260.5,109 257.5,111 255.5,114 250.5,118 250.5,121 254.5,129 253.5,130 253.5,132 
			250.5,140 250.5,148 249.5,151 247.5,154 240.5,158 227.5,157 227.5,159 228.5,160 		"/>
		<polyline class="st1" points="232.5,170 231.5,174 228.5,176 218.5,176 		"/>
		<polyline class="st1" points="217.5,182 217.5,181 214.5,184 210.5,186 208.5,186 203.5,184 		"/>
		<polyline class="st1" points="241.5,171 243.5,172 248.5,178 251.5,184 253.5,191 253.5,195 252.5,199 246.5,208 236.5,217 
			236.5,224 		"/>
		<polyline class="st1" points="235.5,232 230.5,238 221.5,242 211.5,245 209.5,247 195.5,254 		"/>
		<polyline class="st1" points="179.5,258 162.5,258 159.5,257 153.5,253 		"/>
		<polyline class="st1" points="153.5,256 151.5,259 140.5,262 132.5,256 127.5,248 127.5,241 126.5,240 126.5,241 121.5,241 
			118.5,240 114.5,237 113.5,234 113.5,222 114.5,217 111.5,213 107.5,212 105.5,209 		"/>
		<polyline class="st1" points="100.5,208 99.5,205 95.5,200 95.5,195 96.5,194 		"/>
		<polyline class="st1" points="145.5,8 145.5,6 142.5,4 140.5,4 132.5,8 129.5,14 129.5,18 		"/>
		<polyline class="st1" points="120.5,17 119.5,14 113.5,15 109.5,22 109.5,27 110.5,30 106.5,31 101.5,35 		"/>
		<polyline class="st1" points="99.5,53 101.5,53 103.5,56 103.5,60 		"/>
		<polyline class="st1" points="96.5,96 96.5,99 98.5,103 100.5,110 100.5,114 		"/>
		<line class="st1" x1="97.5" y1="124" x2="96.5" y2="124"/>
		<polyline class="st1" points="97.5,165 96.5,163 95.5,163 95.5,170 		"/>
		<polyline class="st1" points="183.5,234 183.5,232 181.5,230 99.5,176 		"/>
	</g>
</g>
<g id="_x38_1-우산">
	<g>
		<polyline class="st1" points="386.5,293 389.5,293 391.5,294 395.5,298 396.5,302 399.5,308 400.5,313 400.5,325 399.5,329 
			395.5,336 391.5,340 389.5,341 385.5,346 386.5,346 391.5,352 392.5,356 392.5,375 391.5,379 385.5,388 382.5,390 380.5,393 
			371.5,398 373.5,398 377.5,408 377.5,422 376.5,425 371.5,433 361.5,441 355.5,443 352.5,445 346.5,447 343.5,447 343.5,450 
			344.5,450 345.5,455 345.5,464 341.5,474 339.5,475 338.5,477 332.5,481 329.5,481 325.5,483 323.5,483 322.5,484 319.5,484 
			320.5,484 321.5,487 321.5,495 317.5,499 311.5,503 308.5,507 306.5,507 306.5,506 		"/>
		<polyline class="st1" points="392.5,291 393.5,291 393.5,290 394.5,290 394.5,291 396.5,291 406.5,299 414.5,307 421.5,311 
			431.5,323 433.5,327 439.5,335 443.5,344 449.5,365 450.5,381 451.5,386 451.5,402 449.5,413 449.5,417 441.5,447 437.5,455 
			435.5,457 434.5,460 429.5,466 428.5,469 427.5,469 423.5,474 420.5,479 413.5,487 402.5,494 400.5,494 396.5,496 393.5,496 
			387.5,499 385.5,499 384.5,500 379.5,500 372.5,503 368.5,503 367.5,504 363.5,504 356.5,506 303.5,506 		"/>
		<polyline class="st1" points="371.5,417 372.5,417 371.5,416 359.5,411 348.5,409 343.5,406 341.5,406 335.5,403 308.5,394 
			306.5,392 304.5,392 294.5,388 291.5,388 284.5,384 262.5,377 252.5,372 233.5,366 211.5,355 209.5,355 207.5,353 203.5,351 		"/>
		<polyline class="st1" points="368.5,412 362.5,409 357.5,408 347.5,404 345.5,404 340.5,402 337.5,402 326.5,396 324.5,396 
			316.5,392 301.5,387 298.5,385 293.5,384 279.5,378 277.5,378 260.5,371 257.5,369 252.5,368 233.5,361 211.5,350 209.5,350 
			200.5,346 193.5,342 		"/>
		<polyline class="st1" points="441.5,422 443.5,421 443.5,416 439.5,398 435.5,388 421.5,367 418.5,365 414.5,360 407.5,354 
			382.5,341 		"/>
		<polyline class="st1" points="443.5,429 443.5,425 439.5,424 421.5,415 406.5,412 395.5,408 389.5,408 373.5,405 371.5,403 
			370.5,403 		"/>
		<polyline class="st1" points="436.5,435 436.5,438 434.5,441 431.5,443 423.5,447 404.5,452 395.5,452 393.5,453 363.5,455 
			356.5,454 344.5,450 		"/>
		<polyline class="st1" points="425.5,453 425.5,455 421.5,457 415.5,462 410.5,465 402.5,469 385.5,474 374.5,474 365.5,476 
			359.5,476 357.5,477 337.5,477 335.5,478 330.5,478 		"/>
		<polyline class="st1" points="446.5,426 446.5,425 447.5,425 457.5,435 457.5,436 456.5,437 449.5,437 449.5,436 447.5,436 
			445.5,435 445.5,434 443.5,434 		"/>
		<polyline class="st1" points="203.5,348 201.5,348 200.5,346 195.5,344 195.5,343 191.5,340 190.5,338 190.5,335 191.5,335 
			191.5,333 192.5,333 196.5,330 204.5,329 205.5,330 204.5,330 200.5,328 191.5,327 191.5,328 190.5,328 189.5,330 188.5,330 
			186.5,334 186.5,337 185.5,338 186.5,344 187.5,344 187.5,345 189.5,346 189.5,347 191.5,349 203.5,355 		"/>
		<polyline class="st1" points="372.5,412 374.5,412 360.5,406 		"/>
	</g>
</g>
<g id="_x38_1-비">
	<g>
		<polyline class="st1" points="527.5,309 526.5,305 514.5,296 494.5,283 469.5,269 455.5,260 		"/>
		<polyline class="st1" points="529.5,578 529.5,576 518.5,564 478.5,530 454.5,513 		"/>
		<polyline class="st1" points="426.5,610 428.5,610 429.5,609 427.5,606 417.5,598 313.5,523 		"/>
		<polyline class="st1" points="359.5,670 358.5,668 338.5,654 281.5,609 		"/>
		<polyline class="st1" points="451.5,182 453.5,181 425.5,168 400.5,155 373.5,140 362.5,132 		"/>
		<polyline class="st1" points="266.5,602 268.5,600 259.5,590 256.5,589 256.5,594 258.5,597 265.5,600 267.5,600 268.5,599 		"/>
		<polyline class="st1" points="348.5,126 348.5,123 346.5,121 342.5,119 342.5,118 340.5,118 340.5,122 341.5,122 343.5,125 
			349.5,127 		"/>
		<polyline class="st1" points="518.5,717 519.5,717 504.5,703 493.5,694 471.5,674 		"/>
		<polyline class="st1" points="528.5,145 529.5,144 506.5,129 474.5,104 		"/>
		<polyline class="st1" points="449.5,88 441.5,81 413.5,61 383.5,42 		"/>
		<polyline class="st1" points="353.5,28 353.5,27 350.5,23 342.5,18 340.5,18 340.5,19 345.5,24 345.5,25 348.5,27 352.5,27 
			354.5,26 354.5,25 		"/>
		<polyline class="st1" points="192.5,619 191.5,617 156.5,586 138.5,571 120.5,558 		"/>
		<polyline class="st1" points="259.5,725 260.5,725 224.5,693 217.5,689 		"/>
	</g>
</g>
<g id="_x38_1-물웅덩이-1">
	<g>
		<polyline class="st1" points="44.5,155 45.5,155 45.5,150 42.5,144 40.5,144 40.5,160 41.5,172 44.5,178 45.5,178 46.5,176 
			45.5,168 		"/>
		<polyline class="st1" points="48.5,149 47.5,141 44.5,131 40.5,125 36.5,125 32.5,132 31.5,142 31.5,163 34.5,190 36.5,196 
			39.5,197 41.5,197 46.5,195 48.5,193 50.5,183 51.5,164 		"/>
		<polyline class="st1" points="50.5,129 47.5,113 40.5,99 35.5,96 33.5,96 27.5,108 25.5,115 23.5,139 23.5,185 24.5,196 28.5,213 
			31.5,219 38.5,225 41.5,225 44.5,223 47.5,220 54.5,210 58.5,195 58.5,176 57.5,169 		"/>
		<polyline class="st1" points="72.5,163 72.5,161 62.5,153 57.5,150 55.5,150 56.5,152 60.5,156 65.5,156 66.5,154 		"/>
	</g>
</g>
<g id="_x38_1-물웅덩이-2">
	<g>
		<polyline class="st1" points="97.5,522 97.5,516 93.5,500 89.5,490 86.5,488 83.5,488 80.5,491 76.5,501 72.5,519 71.5,529 
			71.5,545 70.5,550 70.5,571 71.5,573 72.5,594 75.5,603 78.5,608 82.5,610 88.5,611 90.5,609 92.5,603 96.5,569 96.5,560 		"/>
		<polyline class="st1" points="92.5,543 92.5,541 93.5,540 92.5,531 86.5,516 84.5,514 82.5,514 81.5,515 78.5,524 77.5,535 
			77.5,561 78.5,568 80.5,575 82.5,577 84.5,574 88.5,558 88.5,547 		"/>
		<line class="st1" x1="86.5" y1="542" x2="86.5" y2="538"/>
		<polyline class="st1" points="97.5,546 95.5,545 92.5,541 87.5,537 86.5,537 86.5,539 88.5,542 91.5,544 95.5,544 		"/>
	</g>
</g>
<g id="_x38_1-지면">
	<g>
		<polyline class="st1" points="74.5,6 75.5,6 75.5,40 74.5,43 74.5,55 75.5,58 75.5,65 74.5,68 73.5,98 74.5,103 74.5,114 
			75.5,118 75.5,141 76.5,146 76.5,162 77.5,168 77.5,214 79.5,224 79.5,232 80.5,235 79.5,243 		"/>
		<polyline class="st1" points="78.5,238 79.5,239 82.5,248 83.5,254 86.5,261 86.5,264 88.5,272 90.5,275 96.5,290 97.5,291 		"/>
		<polyline class="st1" points="148.5,443 149.5,443 151.5,445 152.5,448 152.5,452 158.5,486 158.5,491 164.5,521 164.5,526 
			167.5,540 167.5,545 173.5,583 176.5,619 176.5,682 175.5,695 174.5,697 		"/>
	</g>
</g>
</svg>
