<?xml version="1.0" encoding="utf-8"?>
<!-- Generator: Adobe Illustrator 26.2.1, SVG Export Plug-In . SVG Version: 6.00 Build 0)  -->
<svg version="1.1" id="레이어_1" xmlns="http://www.w3.org/2000/svg" xmlns:xlink="http://www.w3.org/1999/xlink" x="0px"
	 y="0px" viewBox="0 0 535 757" style="enable-background:new 0 0 535 757;" xml:space="preserve">
<style type="text/css">
	.st0{fill:#FFFFFF;stroke:#231815;}
	.st1{fill:none;stroke:#000000;stroke-width:2;}
</style>
<rect class="st0" width="535" height="757"/>
<g id="_x39_6-강아지">
	<g>
		<polyline class="st1" points="137.1,563.2 135.8,554.4 136,547 139.4,541.6 142.3,540 146.2,541.2 149.4,545.8 150.3,553.7 
			149.8,563.3 150.3,562.7 		"/>
		<polyline class="st1" points="149.1,563 151.4,567.2 154.6,569 158.5,564.1 169.4,546.7 170.6,546.9 173.4,550.8 173.9,557.3 
			172.4,560.3 164.8,568.4 165.1,570.1 		"/>
		<polyline class="st1" points="162,574.9 171.3,581.4 176.1,588.4 178.3,595.9 179.4,608.3 178.8,610.7 		"/>
		<polyline class="st1" points="178.1,610.3 176,612.3 172.1,619.1 168.4,619 157.6,614.2 155.2,612.2 151.2,605.9 149.9,605 
			147,605.3 140.2,608.3 133,613.4 126.1,621 115.5,626.3 108.9,631.2 108.6,633 112.1,657.1 113,668.6 112,674.3 108.1,678.1 
			106.1,665.3 104.5,643.2 101.9,639.8 100.6,636.6 101.2,647.7 104.1,669 104.2,675.3 101.9,681 98.2,680.2 95.3,675.7 94.3,670.9 
			94.1,649.1 90.8,639.5 92.4,637.5 		"/>
		<polyline class="st1" points="135.7,565.4 125.2,578.8 117.7,585.9 112.3,590.5 103.8,595.5 98.8,597.3 92,598.1 71.9,596.1 
			49.6,595.8 39.4,597.4 32.3,601 27.8,601.2 24.6,599.2 21.8,596.2 12.7,583.7 9.8,583.4 7.7,590.1 7.6,599.2 9.1,598.9 
			11.4,600.1 19.3,605.6 33.1,618 36,624.1 35.3,631.5 36,634.4 38.5,637 42.8,639.3 44,641 46.6,649.5 48.2,658.5 51.7,685.3 
			54.3,684.4 54.9,677.1 53,662.9 48.1,646.2 49.7,641 52,642.5 55.2,648.6 59,662.1 62,678.4 63.2,679.8 65,679.9 66.6,677.4 
			66.7,674.1 65.3,666.6 60.9,651.7 56.8,641.6 73.6,640.1 85.4,641.5 88.7,640.8 92,639 		"/>
		<line class="st1" x1="163.3" y1="586.1" x2="162.8" y2="585.6"/>
		<line class="st1" x1="166.6" y1="585.4" x2="165.8" y2="584.6"/>
		<line class="st1" x1="164.2" y1="586.1" x2="163.8" y2="585.6"/>
		<line class="st1" x1="166.3" y1="610.3" x2="172" y2="616"/>
		<line class="st1" x1="165.1" y1="587.4" x2="164.8" y2="586.6"/>
		<line class="st1" x1="43.1" y1="606.4" x2="48.6" y2="615.1"/>
		<polyline class="st1" points="52.8,600.5 57.8,613.4 59.2,614.6 		"/>
		<line class="st1" x1="59" y1="600.2" x2="63.3" y2="607"/>
		<line class="st1" x1="65.8" y1="599.2" x2="69.3" y2="611.4"/>
		<line class="st1" x1="80.9" y1="602.6" x2="83.8" y2="614.7"/>
		<line class="st1" x1="40.1" y1="612.2" x2="50.8" y2="603.1"/>
		<line class="st1" x1="48.7" y1="614.6" x2="61.4" y2="600.6"/>
		<line class="st1" x1="56.2" y1="612.3" x2="66.8" y2="602.4"/>
		<line class="st1" x1="66.8" y1="609.2" x2="73.8" y2="602"/>
		<polyline class="st1" points="72,612.4 80.3,602.1 83.7,599.6 		"/>
		<line class="st1" x1="81.7" y1="610.6" x2="90.9" y2="599"/>
		<line class="st1" x1="91.7" y1="607.7" x2="100.3" y2="597.5"/>
	</g>
</g>
<g id="_x39_6-사람">
	<g>
		<polyline class="st1" points="237.3,236.3 229.3,239.4 209.5,252 206,256 201.7,265.2 198.8,282.9 199.1,307.3 200.8,317.9 
			203.7,327.9 205.2,330.4 207.4,331.4 		"/>
		<polyline class="st1" points="237.7,240.6 246.9,237 255.4,237 264.9,239 271.9,241.6 281.3,247 290,256.1 294.1,266.1 
			296.5,281.4 298,324.5 297.4,333 296.2,337.7 293.5,342.6 288.2,347.7 260.8,371.2 254,374.8 248.9,375.8 239.7,368.3 
			226.7,360.1 223.3,356.9 217.2,349.4 212.8,338.7 208.5,334.6 		"/>
		<polyline class="st1" points="239.9,371.9 242,381.7 243,396.4 244.4,405.5 246.5,411.3 247.3,410.3 		"/>
		<polyline class="st1" points="271.2,363.7 270.1,390.3 270.4,407.1 		"/>
		<polyline class="st1" points="246,411.1 239.3,410.4 224,413.3 209.6,413.8 190.9,410.7 185.2,407.8 172.6,397.1 167.1,390.2 
			162.7,381.5 159.8,370.5 158.1,357.7 157.8,343.1 160.6,323.9 164,312.4 171.7,298 184,282.1 187.1,279.5 188.6,280.5 		"/>
		<polyline class="st1" points="225.1,441.3 217.2,445.1 210.1,447 201.3,448.4 191.5,448.4 185.9,447.6 175.6,444.2 159.9,436.9 
			149.2,429.3 143.9,424.4 129.5,407.4 117.5,385.8 111.5,370.3 107.9,355.4 107,348 107.2,333.6 109.7,319.8 114.4,306.8 
			117.1,301.6 123.7,292.1 134.8,281.9 153.9,270.5 169.1,264.4 		"/>
		<polyline class="st1" points="177.5,262.6 186.4,281.7 188.2,284.9 188.2,283.7 		"/>
		<polyline class="st1" points="182.5,269.6 180.7,260.2 182,255.1 185.5,244 187.6,239.8 190.9,236.3 192.9,236.4 193.9,237.4 
			195.7,240.7 196,244.7 192.2,252.1 185.9,258.9 191.7,252 199.2,247.8 201.8,248.5 202.6,250.3 201.4,253.9 191,262.6 
			196.4,259.4 204.4,256.5 212,255.5 215.5,256 215.1,258.5 212.8,261.1 206,266.5 201,269.2 203.3,267.2 208.9,264.7 213.1,264.6 
			214.2,265.6 213.8,269.2 211.9,271.5 209.2,273.9 205,276 209,274 214.1,274 217.9,278.2 218.7,284.7 215.4,291.2 212.8,293.8 
			209.5,295.5 202.7,296 199,294.7 188.7,287.6 189.3,286.8 		"/>
		<polyline class="st1" points="274.6,407.1 283.2,409.7 298.9,409.4 311.1,405.8 323.2,399 329.3,394.4 340.3,383.6 348.3,371.6 
			352.8,359.1 354.3,346.3 354.3,339.6 354,333 351.9,319.5 347.8,307.5 340.2,293.4 331.8,282.2 325.9,276.7 318.4,273 
			314.1,271.9 300.1,270 295.2,270.2 285.4,272.1 276.4,275.3 272.7,277.4 273.2,277.9 		"/>
		<polyline class="st1" points="283.2,433 295.1,435.7 300.2,435.5 312.2,431.7 319,428.5 333.2,418.9 340.6,412.4 354.1,397.9 
			365.8,382.1 370.7,373.8 374.5,365.3 380.3,347.4 382.2,338.5 384,314.6 382.7,299.8 379.4,285.6 377,279.2 368.4,263.3 
			361.1,254.6 352.9,247.6 343.8,242.5 338.3,240.6 328.4,238.3 318.4,237.7 309,238.5 294.3,241.4 286,244.5 280.8,247.4 		"/>
		<polyline class="st1" points="278.4,249.8 270.8,244.1 255.3,238.1 258.5,246.8 262.3,249.2 259.9,247.5 256.1,247.3 250.9,248.9 
			246.7,251.5 245.8,253.2 247.8,254.8 257.6,253.4 253.3,260.2 250.9,270 251.4,271.7 252.6,272.7 256,272.6 261.8,267.6 
			258.7,278.9 258.8,283.1 259.6,283.8 262.2,283.5 268.1,277.3 267.9,286.2 270.5,287.9 274.7,287 277.1,285 281.2,278.8 
			282.5,270.3 281.5,272.1 		"/>
		<polyline class="st1" points="217.6,442.3 218.9,453.3 220.7,510 218.7,524.8 215.2,535.1 214.6,539.7 217.7,539 240.9,539.5 
			261.9,537.3 278.4,533.8 297.8,526.7 317.7,521.6 		"/>
		<polyline class="st1" points="310.1,436.7 324.6,507.2 324.7,514.6 323.7,516.1 		"/>
		<polyline class="st1" points="244.7,416.5 255.9,435.5 260.9,441.5 261.1,438.8 		"/>
		<polyline class="st1" points="272.5,404.2 267.6,417.6 255.4,444.4 257.7,440.6 261.4,437.5 261,443.2 264.5,460.1 268.6,474.4 
			271.2,492.5 275.4,511.8 277.2,524.8 277.7,525.6 277.7,523.7 		"/>
		<polyline class="st1" points="245.4,418.3 245.5,416.5 244.5,416.5 233.5,430.4 236.9,429.8 246.8,425.9 251.4,425.4 251.6,426.9 
			244.4,439.2 244.5,442.2 247.4,443.1 257.5,438.8 		"/>
		<polyline class="st1" points="276.5,412.4 281.2,419 286.1,423.1 285.9,425.6 280.4,429 268.9,433.9 274,431.4 279,432.2 
			280.6,435.5 279.8,437.4 270.6,442.5 265.1,444 264.3,443.7 264.5,443 		"/>
		<polyline class="st1" points="280.6,459.2 299.5,450 296.8,458.1 293.3,461.8 291.4,462.7 288.1,462.7 285.4,461.9 282.1,459.4 		
			"/>
		<polyline class="st1" points="264.3,457.5 263.5,457.4 263.2,458.4 264.1,461.4 266.8,459.1 266.2,455.9 264.5,454.5 261.3,454.2 
			260.6,454.6 260.8,456.6 		"/>
		<polyline class="st1" points="268.3,477.4 269.6,480.9 271.4,481 272.8,479.9 273,478.3 272,476.9 268.2,477.3 266.5,478.9 
			264.7,484 		"/>
		<polyline class="st1" points="272.8,500.3 272,500.5 271.9,502.5 273.4,507.6 274.4,507.7 275.4,506.7 276.2,504.6 276.3,500.2 
			275.8,500.1 273.3,502.2 272.2,504.5 		"/>
		<polyline class="st1" points="277.2,519.7 277,526.1 280.5,521.8 280.8,520.8 279.6,521.3 		"/>
		<polyline class="st1" points="224.1,545.1 224.1,559.3 222.5,576.5 217.6,605.2 229.2,607.1 239.8,606.6 250.7,604.7 263.8,601.2 
			266.6,599.8 273.3,592.9 275.9,585.9 276.4,578.9 280.2,590.3 281.9,593.4 295.6,589.5 321.1,584.8 330.4,581.6 336.5,579 
			336.9,578.2 321.2,525.6 317.5,513.6 318,517.4 		"/>
		<polyline class="st1" points="239.3,603.7 238.1,613.3 235.7,663.4 236.6,677.3 238.7,670.3 		"/>
		<polyline class="st1" points="258,604.7 262.6,659 264.8,675.2 265.4,676.9 265.9,674.5 		"/>
		<polyline class="st1" points="303,592.8 315.2,661.1 319.2,677.8 319.2,671.6 		"/>
		<polyline class="st1" points="322.6,590.4 326.1,608.9 339.4,662.1 		"/>
		<polyline class="st1" points="236.6,680.1 247.1,682.9 263.6,681.8 264.6,681.5 263.1,680.7 		"/>
		<polyline class="st1" points="226.7,674 236.7,676.9 255.6,679.8 272,680.4 275.8,679.5 274,679.1 		"/>
		<polyline class="st1" points="226.8,678.6 227.4,717.1 218.1,714.3 210.1,713.5 189.2,715.8 184.6,717.2 180.5,719.7 177.2,724.6 
			176.5,727.2 176.5,733.9 177.7,741.6 181.2,748.3 183,750.5 187.4,753.1 195.2,754 209.5,753.7 230.7,750.4 268.1,747.4 
			274.1,745.3 275.9,743.1 		"/>
		<polyline class="st1" points="272.2,685.4 271.4,707 273.2,743.7 		"/>
		<polyline class="st1" points="301.6,668 300.9,677.1 301.5,694.2 310.5,743.1 321.9,743.7 333.9,743.2 341.4,742.1 370.3,734.8 
			386.9,728.2 389.3,726.3 391.8,719.7 		"/>
		<polyline class="st1" points="301,680.3 310.9,679.1 347.9,668 349.1,668.5 351.1,672.3 361,704.8 375.8,695.4 384.9,692.6 
			392.4,691.6 399.1,692.9 404.2,694.9 407.6,698.4 408.2,700.9 408.2,706.8 405.6,713.8 396.6,722.9 389.5,727.9 386.7,727.4 		"/>
		<polyline class="st1" points="206.8,308.2 234.9,299.3 243.8,297.9 255.7,297.5 264.4,297.9 280.6,300.9 286,302.7 293.3,307 
			295.1,308.5 294.5,308.9 		"/>
		<polyline class="st1" points="222.3,324.4 227.2,317.1 229.7,315.6 235.4,314.7 238.1,315.7 		"/>
		<polyline class="st1" points="254.1,315.7 263.1,310.7 270,309.4 272.2,309.7 276.6,313.8 278.7,318.4 278.7,320.4 		"/>
		<polyline class="st1" points="235.6,334.5 238.2,325.3 240,323.9 243.7,322.8 244.9,324.2 245.8,327.9 244,332.5 242.4,334.2 
			234.9,340.6 229.4,342.9 228.1,342 227.8,337.2 229.7,330.2 233.4,326.7 235.1,327.6 		"/>
		<polyline class="st1" points="258.2,326.5 265.9,322.4 268.4,322.9 271,324.8 274.9,328.7 275.2,330.2 272.2,333.7 268.4,335.8 
			264.7,335.8 262.4,333.4 260.1,328.2 260.3,324.4 262,321.8 264.3,321.1 267.4,324.1 		"/>
		<line class="st1" x1="269.1" y1="331.3" x2="268.8" y2="330.6"/>
		<polyline class="st1" points="237.1,330.7 237.8,330.6 238.6,332.3 238.9,335.6 239.2,334.8 239.3,332.5 238.3,332.6 236.3,338.3 
			237.4,335.7 237.5,332.1 237.1,331.4 236.7,332 236.4,336.1 237.1,333.6 236.4,331.1 236.8,334.8 238.4,325.6 237.8,332.1 
			240.8,326.8 239.3,328.3 236.8,334.4 238.6,332.1 240,327.7 239.7,326.3 237.5,326.1 233.6,330.9 		"/>
		<line class="st1" x1="268.9" y1="325.3" x2="269" y2="325.1"/>
		<line class="st1" x1="268.9" y1="324.7" x2="268" y2="324.4"/>
		<polyline class="st1" points="264.5,325.2 268.3,333.7 268.3,328.6 267.5,327.1 266.9,327.5 266.2,333.3 266.6,334 267.5,333.2 
			268.3,329.2 268.1,334.7 268.7,335 269.3,333.4 269.1,328.3 266.7,328.5 		"/>
		<line class="st1" x1="251" y1="345.4" x2="250.8" y2="344.6"/>
		<polyline class="st1" points="246.6,343.7 253.4,346.9 251.9,348.4 252.3,349.5 253,349.2 		"/>
		<polyline class="st1" points="240.9,354.1 247.6,359.5 253.2,361.2 254.7,360.9 265.6,350.1 		"/>
		<polyline class="st1" points="251.1,345.9 251.9,342.7 254.2,340.7 255.6,340.4 255.7,342.1 253,349.6 		"/>
		<polyline class="st1" points="202.5,320.1 202,320.7 199.5,319.9 198.6,320.5 195.9,327.4 193.6,336.1 194.5,338.3 195.9,339.2 
			204.7,338.2 		"/>
		<polyline class="st1" points="300.7,312.4 308.9,311.9 309.1,314.3 306,322.4 302.1,327.3 297.7,329.2 296.5,328.8 		"/>
		<polyline class="st1" points="233.3,331.1 235.7,337.1 238.4,339.9 238.4,338.8 		"/>
		<polyline class="st1" points="229.2,545.7 229.9,558.3 228.7,567.8 227.9,570.4 223.6,574.6 		"/>
		<polyline class="st1" points="313.5,527.5 317.7,537.5 322.2,541.5 325.6,542.5 		"/>
		<polyline class="st1" points="274.6,539.5 273.9,561.3 276.3,579.6 		"/>
		<polyline class="st1" points="275.9,541.9 283.3,547.3 284.2,552.2 284,556.9 280.9,566.3 274.4,577.2 		"/>
		<polyline class="st1" points="221.6,252.2 228.4,257.5 228.6,260.6 233,249.7 232.4,259.7 235.9,249.6 235.9,256 234.6,264.5 
			238.5,249.3 238.9,256.9 242.3,252.5 244.2,248.2 245,259.7 246.1,258.3 249.5,247.3 249,254.7 251.7,247.3 251.7,252.6 
			251.7,250 250.3,247.4 245,244.5 242,243.7 239.8,243.9 236.7,246.7 236.6,244.4 234.1,250.9 232.3,253.2 230.1,246.4 
			222.5,253.9 221.4,252.6 		"/>
		<polyline class="st1" points="225.7,262.8 217.7,265.1 216.8,263.9 216.2,264.4 216.7,264.5 220.2,262.8 		"/>
		<polyline class="st1" points="255.6,242.1 254.8,242.1 254.3,244.7 		"/>
		<polyline class="st1" points="216.9,249.4 220.7,258.3 221.9,258.4 222.7,257.6 223.5,264.7 222.9,259.8 221.1,256.1 220.3,256.2 
			222.2,252.2 224.6,249.8 230,248.1 		"/>
		<polyline class="st1" points="256.1,242.8 255.6,242.2 256.4,241.1 255.7,242.5 		"/>
		<polyline class="st1" points="224.2,244 223.8,243.6 232.5,240.2 234.9,245.6 236.9,242.3 237.7,244.6 239.1,240.9 239.9,241.4 
			240,240.4 237.8,236.5 235.6,236.7 235.9,237.6 		"/>
	</g>
</g>
<g id="_x39_6-우산">
	<g>
		<polyline class="st1" points="331.8,410.5 324.2,402.5 320.1,396.2 319.6,392.1 321.9,385.7 324.6,381.3 330.4,381.3 339.1,384.3 
					"/>
		<polyline class="st1" points="328.1,409.5 320,408.1 316.5,406 313.2,401 313.4,397.3 315.2,392.2 318.4,386.8 322.9,382.6 
			325.9,381.8 332.6,382.3 		"/>
		<polyline class="st1" points="333.2,383.3 329.3,383.4 336.4,392.3 338,392.3 		"/>
		<polyline class="st1" points="353.8,401.2 351.8,410.1 350.1,425.4 		"/>
		<polyline class="st1" points="348.1,408.2 348,420.3 347.1,427.6 346.8,424.5 		"/>
		<polyline class="st1" points="342.3,383.4 334.9,378.9 328.8,380 323.7,384.3 318.2,391.7 316.9,394.3 317,398.3 		"/>
		<polyline class="st1" points="348.8,421.6 346.1,446.1 345.8,455.8 		"/>
		<line class="st1" x1="352.7" y1="426.5" x2="351.6" y2="461.3"/>
		<polyline class="st1" points="333.8,461.1 342,466.2 343.2,465.9 348.3,461.5 354.4,459.5 358.3,462.2 359.1,465.6 361.9,463.2 
			367.4,460.8 371.3,461.5 371.9,462.5 374.8,460.1 379,461.5 380.9,465.2 381.8,465.4 385.7,463.1 393.3,461.5 400.7,455.8 
			399.2,458.2 		"/>
		<polyline class="st1" points="334.8,466.7 335.9,485.2 338.4,500.8 343.3,519.4 355,550.2 374.3,608.3 385.4,634.3 386.2,637.7 
			386.3,635.6 		"/>
		<polyline class="st1" points="400.6,459 400.8,470.9 398.7,495.5 398,517 398.7,563.5 390.7,625.4 389.2,630.8 386.7,633.5 
			383.8,633.5 		"/>
		<polyline class="st1" points="347.8,471.7 352.6,487.5 361.7,532.7 381.9,611 383.4,628.7 383,629 381.5,625.2 		"/>
		<polyline class="st1" points="369.3,472.5 382.6,588.1 388,616.2 386.3,610.3 		"/>
		<polyline class="st1" points="387.1,471.7 384.9,485 384.8,520.1 386.2,583.4 388.6,616.3 		"/>
		<polyline class="st1" points="388,628.4 388.7,645.7 390,654.6 387.5,637.3 		"/>
	</g>
</g>
<g id="_x39_6-물웅덩이">
	<g>
		<polyline class="st1" points="186.8,677.4 177.6,675.1 171.3,674.6 154.6,674.2 138,675.1 124.6,679.2 121.1,683.5 118.6,679.6 
			109.9,675.2 94.8,674.6 78.5,680.5 62.5,690.9 56.8,695.5 50.8,701.7 43.5,713 39.5,727.7 39.5,737.1 43.7,743.7 51.1,749.4 		"/>
		<polyline class="st1" points="400.7,672.6 408,664.3 413.1,662.6 441.4,660.9 452.8,656.9 465.9,650.3 483.6,647.7 491.4,648.9 
			495.3,656.1 497.5,663.2 501.7,668.3 506.9,671.4 511.8,672.3 522.9,670.6 524,670.8 524.8,672.6 		"/>
		<polyline class="st1" points="518.2,739.8 495.7,749.9 467.8,765.9 458.9,770.1 436.4,776.5 		"/>
	</g>
</g>
<g id="_x39_6-비_00000018233757554507964020000000349727915431608975_">
	<g>
		<line class="st1" x1="58.6" y1="63.2" x2="61.1" y2="150.2"/>
		<polyline class="st1" points="104.5,72.1 106.2,86.8 108.1,160.4 		"/>
		<line class="st1" x1="63.1" y1="168.8" x2="69.8" y2="199.2"/>
		<line class="st1" x1="97.5" y1="203.4" x2="105.5" y2="225.3"/>
		<polyline class="st1" points="154.9,68.4 160.4,81.8 162,95.6 		"/>
		<line class="st1" x1="189.7" y1="84" x2="191.1" y2="123.8"/>
		<polyline class="st1" points="181.4,184.3 186,193.2 189.2,197.6 		"/>
		<line class="st1" x1="222" y1="56.9" x2="236" y2="79.4"/>
		<line class="st1" x1="222.6" y1="167.4" x2="229.2" y2="190.4"/>
		<line class="st1" x1="156.3" y1="137.1" x2="164.5" y2="160.4"/>
		<line class="st1" x1="292.9" y1="54" x2="299.5" y2="77"/>
		<line class="st1" x1="275.3" y1="145.8" x2="286.4" y2="179.1"/>
		<line class="st1" x1="248.3" y1="115.9" x2="257.2" y2="131.8"/>
		<line class="st1" x1="352.1" y1="41.7" x2="356.9" y2="69.9"/>
		<polyline class="st1" points="328.2,146.9 325.3,155.3 336.7,186.7 		"/>
		<line class="st1" x1="384.9" y1="176.7" x2="393.5" y2="198.4"/>
		<polyline class="st1" points="430.1,63.8 433.7,79.5 433.9,86.8 		"/>
		<line class="st1" x1="397.6" y1="193" x2="406.3" y2="221"/>
		<line class="st1" x1="354.6" y1="97" x2="358.6" y2="119.2"/>
		<line class="st1" x1="314.5" y1="92.7" x2="319.3" y2="106.3"/>
		<line class="st1" x1="350.1" y1="203.6" x2="352.8" y2="220.5"/>
		<line class="st1" x1="426.5" y1="251" x2="430.8" y2="270.9"/>
		<polyline class="st1" points="437.3,134.8 443.8,155.9 445.1,170.6 		"/>
		<line class="st1" x1="397.6" y1="106.1" x2="405.9" y2="124.9"/>
		<line class="st1" x1="487.1" y1="46.9" x2="491.1" y2="70.5"/>
		<polyline class="st1" points="480.7,200.4 482.8,230.9 484.1,237.8 		"/>
		<line class="st1" x1="55.3" y1="244.9" x2="66" y2="279.5"/>
		<polyline class="st1" points="40.5,337.7 42.5,368.9 45.3,378.8 		"/>
		<line class="st1" x1="71.7" y1="351.3" x2="71.6" y2="389.5"/>
		<line class="st1" x1="28.1" y1="220" x2="31.2" y2="258"/>
	</g>
</g>
</svg>
