<?xml version="1.0" encoding="utf-8"?>
<!-- Generator: Adobe Illustrator 26.2.1, SVG Export Plug-In . SVG Version: 6.00 Build 0)  -->
<svg version="1.1" xmlns="http://www.w3.org/2000/svg" xmlns:xlink="http://www.w3.org/1999/xlink" x="0px" y="0px"
	 viewBox="0 0 535 757" style="enable-background:new 0 0 535 757;" xml:space="preserve">
<style type="text/css">
	.st0{fill:#FFFFFF;}
	.st1{fill:none;stroke:#000000;stroke-width:2;}
</style>
<g id="레이어_1" xmlns:ev="http://www.w3.org/2001/xml-events">
	<rect class="st0" width="535" height="757"/>
</g>
<g id="_x39_7-해">
	<g>
		<rect class="st0" width="535" height="757"/>
		<polyline class="st1" points="183.3,134.5 190.6,139.2 193.9,140.5 197.5,140.8 207.1,140.4 219,138.4 224.9,136.5 241,128 
			252.8,119.9 262.6,109.7 268.8,99.2 273.3,87.1 277.6,72 278.8,64.4 279.5,50.1 277.3,38.1 271.1,23.7 262.4,12 256.4,6.5 
			245.1,1.6 		"/>
		<polyline class="st1" points="216.6,151.6 214.4,160.4 215.1,161.9 216.2,158.2 216.6,150.9 216.6,158.4 217.1,159.8 218.7,157.4 
			219.4,151.4 218.4,150.7 217.5,153.1 		"/>
		<polyline class="st1" points="243.1,133.3 257,134.5 256.1,132.4 250,129.7 249,129.8 248.5,131.7 250.7,134.8 253.2,135.6 
			256.9,135.1 257.3,133.2 254,129.7 251,129 250.8,129.7 251.6,130.6 254.7,131.3 		"/>
		<polyline class="st1" points="278.5,101.6 294.8,102.5 288.2,99.6 285.5,100.6 285.2,101.8 288,103.4 290.3,103.4 292.2,102.4 
			292.2,100.7 		"/>
		<polyline class="st1" points="294.1,47.5 303.9,51.8 305.9,52 303.9,49.8 294.7,46.9 295.5,48.8 297.1,49.2 300.5,47.5 
			303.6,44.5 		"/>
		<polyline class="st1" points="293.6,13.5 298.6,7.1 286.7,15.5 288.3,15.1 		"/>
	</g>
</g>
<g id="_x39_7-지면">
	<g>
		<polyline class="st1" points="20.1,692.4 57.2,688.7 97.6,686.1 133,686.7 187.7,689.8 120.6,688.7 80,690.2 53.2,693.1 
			56.6,693.9 123,686.4 180.2,682.7 253.5,682.5 271.1,683.5 272.4,684.5 		"/>
		<polyline class="st1" points="494.8,678.2 514.9,677.6 532.4,680.7 508.6,678.1 491.8,679.1 495.7,679.5 		"/>
	</g>
</g>
<g id="_x39_7-사람">
	<g>
		<polyline class="st1" points="308.6,407.9 291.8,418.7 286.8,424.3 283.8,430.4 282.5,436.6 282.3,442.8 284.3,451.2 288.2,455.7 
			293.9,458.9 301,460.3 308.1,460.2 323.1,453.2 344.7,437 352.4,428.1 352.4,427.1 		"/>
		<polyline class="st1" points="326.5,450.9 321.4,458.9 315.8,471.6 311.9,489.9 309.1,522.9 310.4,532.8 312.6,539.4 316.1,544.2 
			325.1,550.2 333.2,552.9 351.7,557 366.6,559.1 407.1,560.9 420.1,560.9 434.9,558.8 440.2,556.9 444.4,551.9 445.2,546.4 
			444.4,537.6 417.3,458.6 409.5,437.9 409.5,433.3 		"/>
		<polyline class="st1" points="336,555.4 334.4,572.8 334.4,580.1 335.3,585.1 337.2,589.2 344.7,592.9 350.1,593.6 356.2,592.2 
			357.9,591.5 360.3,588.5 362.8,582.6 364.3,572.9 364.6,562 		"/>
		<polyline class="st1" points="389.1,561.7 396.5,571.7 399.4,573.9 404.2,576.2 411,576.9 422.7,574.2 425.4,571.9 425,564.6 
			423.2,560.4 422.4,560.4 		"/>
		<polyline class="st1" points="334,584.8 334,593.1 335.4,601.5 334.8,604.9 331.6,610 319.8,619.5 317.9,621.8 315.1,629.1 
			314.5,636.3 316.2,640.5 318.4,643.3 322.7,647.3 331.2,652 335.3,653.3 345.4,654.1 348.8,653.4 347.8,653.3 346.1,651.2 		"/>
		<polyline class="st1" points="359.9,590.1 360.1,596.8 358.4,601.7 357.8,607.1 358.5,618.7 363.9,632.7 364.7,638.9 364.1,642.3 
			362.4,645.4 358.5,649.4 349,653.2 348,652.9 		"/>
		<polyline class="st1" points="399.4,572.5 401,575.3 402.4,588.6 410.2,604.4 411,607.4 410.7,616.4 400.1,644.9 399.8,649 
			404.1,653.1 409.7,653.7 419.6,651.1 435,643.7 447.5,634 452.8,625.6 453.9,618.3 452,610.3 449.9,605.2 440.7,592.2 428.5,578 
					"/>
	</g>
</g>
<g id="_x39_7-비">
	<g>
		<polyline class="st1" points="45.3,277.8 52.5,288.6 72.5,324.3 94.7,356.8 94.7,360.3 		"/>
		<polyline class="st1" points="150.8,291.4 161.2,304.3 177.9,328.7 192.4,346.2 195,347.3 		"/>
		<line class="st1" x1="212.3" y1="212.9" x2="218.2" y2="222.5"/>
		<polyline class="st1" points="240.4,396.4 246.1,404.2 265.3,426.2 		"/>
		<polyline class="st1" points="145.6,404.1 168.5,439.4 172.3,442.9 		"/>
		<polyline class="st1" points="317.5,136.7 333,158.2 345.7,172.4 		"/>
		<polyline class="st1" points="483.1,414.4 496.5,434.2 497.9,439.8 		"/>
		<line class="st1" x1="42.4" y1="437.9" x2="52.9" y2="456.8"/>
		<polyline class="st1" points="486.8,230.8 500.4,242.8 505.8,252.2 		"/>
	</g>
</g>
<g id="_x39_7-우산">
	<g>
		<polyline class="st1" points="258.2,261.3 258.8,282 258.1,302.3 251.8,334.1 252.6,346.7 256.7,353.7 267.7,362.4 272,367.1 
			283.2,382.9 288,388.1 313.9,412.9 318.8,416.3 326.3,418.4 359.2,422.4 384.5,424.2 408.3,429.7 411.7,429.8 416,427.9 
			444.1,400.7 451.7,394.3 463.6,385.9 482.3,375.1 484.8,372.8 487.7,368.1 489.4,363.5 491.7,352.4 492.5,343.8 493.6,307.1 
			494.6,294.7 494.4,286.6 493,281.1 490.7,276.6 482.9,268.3 471.2,260.2 453.6,245.7 420.9,215.7 414.4,212.3 403.3,211.8 
			398.6,212.6 390.2,212.5 370.6,217.4 360.5,219 351.7,218.8 338.2,215.2 334.7,215.5 331.5,216.9 299.2,237.2 258.7,264.6 
			259.7,262.7 		"/>
		<polyline class="st1" points="380.7,279.4 386.8,273.4 386.7,272.5 384.2,275.9 386.3,279.3 390.7,277.9 391,273.3 387.4,272.4 
			385.4,275.4 386.1,276.1 389.1,274.3 388.7,273.8 384.4,277.2 381.3,281 372.4,298.6 339,372.2 327.2,406.7 324.5,416.8 
			322.9,414.5 		"/>
		<polyline class="st1" points="388.6,280.5 388.3,281.4 392.1,284.8 393.5,287.1 402.2,312.6 410.1,348.8 412.6,375.4 413.1,396.9 
			411.1,420.3 412.3,424.2 411.7,421.6 		"/>
		<polyline class="st1" points="386.9,278.7 395.1,283.3 400.2,287.9 413.4,296 420.5,302 436.2,318.3 447.8,332.9 454.1,337.9 
			473.2,357.5 482.7,369.1 484.6,373.9 482.1,371.4 		"/>
		<polyline class="st1" points="383.9,281 391.8,276.8 401.1,273.9 406.6,273 418.1,272.9 427.2,274.3 456.9,276.5 464,277.9 
			485.9,285.9 488.8,286.7 488.2,286.1 		"/>
		<polyline class="st1" points="388.9,275.4 389.1,263.9 390.9,255.4 396.4,236.7 406.1,220.6 410.4,216.7 417,213.2 416.7,213.9 		
			"/>
		<polyline class="st1" points="385.8,272.9 382.1,266.8 379.7,258.5 375.3,250.2 369.7,241.7 363.4,234.3 357.4,227.8 351.4,223.2 
			333.9,214.9 334.7,214.1 		"/>
		<polyline class="st1" points="380.9,278.5 371.1,274.7 362,272.9 339,270.1 304.6,263.4 294.8,262.2 271.8,261.3 263.1,263.9 
			261.3,264.8 263.1,264.5 		"/>
		<polyline class="st1" points="372.8,280.3 358.1,284 328.8,295 316.2,300.3 295.2,310.7 286.8,315.7 270.5,327.8 252.8,344.3 		
			"/>
		<polyline class="st1" points="278.5,364.3 263.5,341.7 267.1,352.3 270.5,352.7 270.2,348.6 267.3,337.5 265.9,337.5 256.8,346 
			259.4,345 262.9,333.4 257.8,347.7 264.2,342.1 266.8,337.1 261.6,345.9 272.6,343.1 269.2,336.5 261.6,351.9 269.7,349 
			268.7,336.5 261.6,345.3 265.5,352.5 265.5,342.3 264.8,351.5 273.9,353.4 273.1,346.4 276.1,359.5 279.6,362.5 272.4,352 
			273.6,362.8 285.2,378.6 280.5,362.3 270.4,356.3 279.2,377.5 282.8,379.5 275.9,366.2 276.7,370.5 291.7,385.5 288.9,378.5 
			279.1,367.2 287.7,381.4 300.9,395.9 295.4,380.4 293.3,377.2 311.7,406.8 304.9,394.5 294,385.6 302.6,398.6 313.9,407.7 
			307.7,395.6 306.9,396.5 319.2,413.9 315.3,406 311.3,401.3 324.9,417.8 321.1,406.6 		"/>
	</g>
</g>
<g id="_x39_7-구름-1">
	<g>
		<polyline class="st1" points="378.4,4.4 370.3,5.2 365.3,8 361.4,11.7 356.6,21.9 353.3,36.5 350.9,55.3 350.5,74.1 352.9,83.2 
			361.3,100.2 368.1,106.3 375.9,111 390.6,114.2 404.9,113.3 403.3,127.7 403.5,134 408,147.8 412.5,156 426.3,174.1 444.8,186.1 
			454.9,189.2 470.7,191.8 477.3,191.1 486.6,186.6 491.3,195.3 498.5,203.9 509.4,212 515.9,213.9 522.4,213.5 533.8,208.6 
			539.3,203.2 		"/>
		<polyline class="st1" points="378.2,3.7 375,6.3 376.9,16.3 380.9,17.6 387.3,12.5 388,7.9 382.9,3.8 377.6,5.5 365.9,20.8 
			369,23.8 380.1,8.9 369.6,5 358.8,24.8 368.4,24 374.4,5.3 367.2,9.9 361,33.5 371.7,18.4 368.3,11.5 355,26.4 359.2,42.6 
			368.2,32.2 365.8,18.2 356,42.9 357.4,52.8 363.7,31.6 359.6,29.3 357.8,62 366.3,62.9 366.8,39.3 358.1,46.2 354.3,73.8 
			363.9,76.3 360.1,52 353.6,61.4 361.1,95.3 363.4,75.9 354.8,64.7 354.7,85.2 365.7,98.4 359.7,75.8 353,77.2 363.9,97.5 
			375,93.4 366,81.6 369,98.1 383.8,105.7 386.1,97.8 372.8,97.5 384.5,106.7 400.2,107.9 393.1,102 388.9,108.5 406.1,112.8 
			408.4,107.7 396,110.7 406.1,116.2 412,109.6 406.3,108.6 410.4,126.6 415,121.2 413,111.4 409.6,135.1 416,147.7 418.1,129.1 
			414.7,121 415.2,143.8 420.2,154.8 415.1,130.3 408.9,128.6 416.6,151.1 424.7,152.4 416.3,126.2 403.3,133.1 413.3,158.7 
			427.6,164.5 420.9,146.8 415.9,149.4 427.8,171.2 438.1,177.4 426,159.6 424.3,163.4 436.9,177.8 437.5,172.1 426.1,163.8 
			433.1,176.2 445.9,179.7 437.7,169.7 447.9,179.9 462.1,182.5 454.2,175.8 450.7,181.7 468.5,184 469.2,176.1 461.8,181.5 
			479,187.2 485.3,183.3 471.1,179.9 473,186.3 488.4,179.1 483.2,176.2 483.1,188.1 494.1,186.6 492.7,180.1 498.1,192.9 
			503.4,194.2 497.5,183.7 499.8,192.1 510.2,197.9 507.8,191.1 502.1,196.3 510.2,208.3 516.6,202.5 509.8,197.5 511.4,207.6 
			522.8,202.8 517.5,198.8 519.9,208.9 522.9,204.1 521.9,201.9 		"/>
	</g>
</g>
<g id="_x39_7-구름-2">
	<g>
		<polyline class="st1" points="4.1,183.2 3.1,192.8 4.8,197.6 7.3,202.6 11.5,208.2 17.1,213.9 31.3,223.8 39,227.4 53.9,230.4 
			60.7,230.1 66.8,227.9 72,224.4 77.1,219.7 80.9,214.4 86.8,201.8 112.3,206.3 132,206.7 142.9,204.3 162.9,194.5 170.8,186.8 
			178,177.7 183,167.7 185.9,157.7 186.5,138.4 185,130.1 181.8,120.5 181.6,117.1 193,110.2 199,105.4 207.1,96.4 212.7,86.6 
			216.8,75.8 220,53.8 219.1,42.4 216.2,31 211.9,21.3 199.4,7.4 193.4,2.5 186.9,-0.5 175.3,-0.6 170.6,0.9 167.4,3.1 168.2,5.3 		
			"/>
		<polyline class="st1" points="11.9,183.5 10.9,195.5 12.3,197 14.6,196.2 15.4,193.5 13.8,188.5 11.7,187.9 7.9,196.6 15.9,203.6 
			17.2,187.1 6,184.3 6.7,195.4 15.8,199.9 14.1,185.5 4.3,179.9 6,195.2 18.5,202.8 10.5,187.2 6.5,197.9 19.6,211.3 26.9,207.8 
			19.2,198.6 18.3,201.8 30.2,214.6 37.2,209.4 27.3,201.7 27.3,217.3 42.3,220.7 42.7,209.7 32.8,210.5 40.7,220.4 50.5,219.7 
			47.1,214.5 41.2,215.4 53.5,223.2 63.1,216.3 54.1,211.9 54.2,223.8 63,227.7 70.9,213.7 61.9,209.6 59.3,221.8 72.7,218.9 
			74.1,200.4 66.8,203.7 72.1,213.3 82.1,202.7 77.8,197 77.2,207.2 89.1,205.3 89.8,193.2 83,197.3 91.3,203.6 99,195 93.6,192 
			94.9,198.9 108,202 108,191.8 101.3,194.6 111.7,201.9 119.6,195.8 108.2,188.1 108.6,197.3 121.4,197.3 119.3,186.9 114.1,194.4 
			127.5,197.9 123.8,183.4 111.9,188.5 125,195.2 135.4,186.8 121.6,182.2 118.4,194.3 133.7,194.2 133.6,184.4 120,186.5 
			130.1,195.4 144.7,185.3 141.3,177.9 123.1,185.8 123.9,198.1 146.1,183.3 135.5,178.2 126.2,192.2 139.6,197.2 149.5,190 
			141.5,183.2 130.8,196 143.5,198.8 152.9,182 141.5,180 136.2,195.7 153.1,196.5 162.3,176.5 145.7,178.1 140.5,195.6 156.6,191 
			163.1,165.2 155.8,168.3 157.3,182.9 169.8,170.4 169.5,146.3 159.5,158.5 165.6,172.3 176.2,157.2 171.7,136.6 166.2,146.7 
			175.6,157.4 180.4,136.1 171.9,125.1 169.8,146.3 177.1,156 179.1,132.3 173.6,126.7 173.4,145.6 178.9,153.8 180.9,124.2 
			171.7,122.5 170.3,137.3 177.5,144 176.3,112.5 173.6,109.5 176.9,116 190.8,108.6 180.8,99.5 175.4,107.6 188.2,108.3 
			194.9,93.3 183,94 183.2,106.2 200.2,100.2 198.1,87.9 183.7,95.7 189.5,101.8 202.7,87.6 196.3,78 187.6,94.5 196.7,98.3 
			205.7,72.9 201.1,68.8 195,89.6 205,89.2 208.1,66 197.7,65 198.8,82.7 210.4,74.4 212.1,48.6 206.7,68.8 216.1,68.4 209.6,47.4 
			204.4,48.6 209.6,62.5 215.3,49.7 209,30.4 204.4,44.3 214.2,53 212.2,37.2 202.7,24.7 208.1,37.5 213.6,31.6 206.2,10.4 
			200.7,23.8 208.8,38.9 209.6,27.1 196.6,13.4 198,20.5 204.2,24.7 195.2,4 183.2,4.3 193.6,17.9 199.2,12.7 184.9,-0.1 180.6,5.5 
			189.9,10.6 181.8,-1.5 172.5,0.3 181.8,10.3 187.9,4.1 170.1,1.5 169.7,10.5 171.9,6.1 169,2.7 		"/>
	</g>
</g>
<g id="_x39_7-물웅덩이-1">
	<g>
		<polyline class="st1" points="125.2,541.7 108.6,543.5 91.8,548.6 80.4,556.4 75.8,562.8 75.5,565.8 81.4,574.3 88.8,579.8 
			98.5,583.7 110.3,584.9 116.8,588.2 128.7,595.9 136.1,598.7 140.8,599.2 149.9,597.9 154.4,596.5 166.2,590.9 173.2,586.4 
			183.8,572.5 191.5,557.6 193.4,551.3 187.5,542.4 180.1,536.9 174.5,535 161.1,533 154,532.5 140.4,533.4 126.4,536.2 
			115.3,541.8 		"/>
		<polyline class="st1" points="63.8,607.2 57.3,601.8 55.6,603.2 55.4,610.5 56.8,612.2 61,614.9 63.2,615.7 67.8,615.6 
			74.7,611.6 77.9,611.8 81.8,616 81.6,610.9 79.8,605.6 72,599 69,597.9 63.5,597.6 59.1,600 57.1,602.8 56.7,605.1 		"/>
		<polyline class="st1" points="175.9,608.3 167.4,609.3 156.8,614.3 154.4,619.4 157.3,623.6 159.4,624.6 165.7,625.1 175.3,619.2 
			180.1,617.1 183.3,617.2 185.7,615.5 184.1,610.6 180.3,607.8 171.6,608.1 		"/>
	</g>
</g>
<g id="_x39_7-물웅덩이-2">
	<g>
		<polyline class="st1" points="296.2,633 288,633.4 264.2,639.9 259.8,641.9 252.4,650.1 250,659.3 250.6,667.4 253.2,672.4 
			260,678.9 268.1,684.4 278.1,690.3 289.5,695.6 303.5,700.2 335.3,708 350.6,711 363.3,710.1 378.5,705.5 397.2,703.4 433,696.4 
			463.9,691.8 477.5,686.6 487.7,677.5 498.2,665.1 502.6,650 502.9,640.1 498.8,625.3 490.6,611.9 478.2,607.4 466.9,607.7 
			463,609.5 459.5,609.1 		"/>
	</g>
</g>
</svg>
