<?xml version="1.0" encoding="utf-8"?>
<!-- Generator: Adobe Illustrator 26.2.1, SVG Export Plug-In . SVG Version: 6.00 Build 0)  -->
<svg version="1.1" xmlns="http://www.w3.org/2000/svg" xmlns:xlink="http://www.w3.org/1999/xlink" x="0px" y="0px"
	 viewBox="0 0 535 757" style="enable-background:new 0 0 535 757;" xml:space="preserve">
<style type="text/css">
	.st0{fill:#FFFFFF;}
	.st1{fill:none;stroke:#000000;stroke-width:2;}
</style>
<g id="레이어_1" xmlns:ev="http://www.w3.org/2001/xml-events">
	<rect class="st0" width="535" height="757"/>
	<polyline class="st1" points="294.6,308.4 293.7,321.1 295.6,327.6 301.5,338.1 304.1,334.9 304.3,330.7 	"/>
	<polyline class="st1" points="276,355.4 284.3,353.6 292.2,347.9 	"/>
	<line class="st1" x1="252.6" y1="320.2" x2="252.3" y2="331.3"/>
	<polyline class="st1" points="285.6,298.3 277.5,298.2 274.1,299.7 268.9,304.3 265.2,308.9 270.7,305.3 271.2,310.9 270.2,328.8 
		271.5,348.8 276.2,359 280.7,359.9 283.5,356.1 284.4,353.2 	"/>
	<polyline class="st1" points="281,310.6 288.7,313.1 290.5,314.8 	"/>
	<line class="st1" x1="260.7" y1="320.6" x2="281.4" y2="317.7"/>
	<rect class="st0" width="535" height="757"/>
</g>
<g id="_x39_8-비">
	<g>
		<polyline class="st1" points="161.4,46.5 151.1,61.9 133.4,91.5 113.6,129.1 		"/>
		<line class="st1" x1="111.6" y1="49.2" x2="100" y2="56.2"/>
		<line class="st1" x1="124.3" y1="216.1" x2="113.4" y2="242"/>
		<polyline class="st1" points="216.5,238.1 203.8,253 185.7,298.1 		"/>
		<polyline class="st1" points="252.2,418.4 241,439.4 227.7,491.7 		"/>
		<polyline class="st1" points="430.6,261 419.4,312.4 416,333 		"/>
		<polyline class="st1" points="459.8,105.5 457.4,132.3 453.2,158.9 		"/>
		<line class="st1" x1="297.4" y1="53.7" x2="287.6" y2="83.9"/>
		<polyline class="st1" points="220.9,62.7 210.9,85.9 207.7,101.2 		"/>
		<polyline class="st1" points="369.6,73.8 363.6,83.4 358.8,109.8 		"/>
		<polyline class="st1" points="83.9,367.2 75.7,390.2 62.2,438.1 		"/>
		<polyline class="st1" points="131.1,429.8 116.4,453 107.4,475.2 80.1,549.8 		"/>
		<polyline class="st1" points="342.6,560.5 335.8,579.6 332.7,648 		"/>
		<polyline class="st1" points="304.9,518.4 296.5,530.8 285.8,585.1 284.9,604.3 		"/>
		<line class="st1" x1="486" y1="528.4" x2="494.9" y2="571.7"/>
		<polyline class="st1" points="438.7,196.3 445.4,254.4 444.9,279.1 		"/>
		<polyline class="st1" points="294.3,454.4 293.8,470.9 295.2,493.5 297.4,509.8 		"/>
	</g>
</g>
<g id="_x39_8-우산">
	<g>
		<polyline class="st1" points="317,281.4 309.6,301.5 306.7,359.2 		"/>
		<polyline class="st1" points="418.6,173.2 401.8,161.9 387.9,156.6 361.4,153.1 351.4,153.1 329.4,155.1 310.1,158.7 293.4,165.3 
			280.3,174.7 269.6,184.2 259.8,194.6 249.1,209.5 248,209.8 248.2,207.3 251.2,201.2 256.9,193.3 274.6,177.7 284.5,171.9 
			324.4,155.7 338,152.1 351.4,150.5 364.3,150.6 376.4,153.6 391.1,158.8 403.5,165.4 413.8,175.2 436.4,214.1 439.3,227.7 
			438.9,253.2 		"/>
		<polyline class="st1" points="328.9,263.8 326,279.5 325.9,286.5 330.6,290.1 358.8,269.6 361.7,271.5 370.6,298 380.1,299.8 
			392.7,289 403.3,281.9 407.9,282.7 418.6,288 427.1,289.2 434.5,283.1 441.2,272.3 442.8,272.8 453.7,288.9 455,286.9 		"/>
		<polyline class="st1" points="215.2,258.9 209,266.3 206.3,275.3 215.3,273.9 247.4,250.2 256.5,248.2 263,256.1 267.6,268.8 
			271.8,272.6 278.5,269.1 288.7,261.3 		"/>
		<polyline class="st1" points="295.4,266.5 303.7,262.6 313.9,262.4 319.1,257.8 317.3,256 314.6,259.9 314.9,264.7 319.2,266 		
			"/>
		<polyline class="st1" points="314.9,310.2 308.7,322.5 302.8,344.4 300.2,372.3 		"/>
		<polyline class="st1" points="299.7,381.3 300,389.5 302.6,365.5 		"/>
	</g>
</g>
</svg>
