<?xml version="1.0" encoding="utf-8"?>
<!-- Generator: Adobe Illustrator 26.2.1, SVG Export Plug-In . SVG Version: 6.00 Build 0)  -->
<svg version="1.1" xmlns="http://www.w3.org/2000/svg" xmlns:xlink="http://www.w3.org/1999/xlink" x="0px" y="0px"
	 viewBox="0 0 535 757" style="enable-background:new 0 0 535 757;" xml:space="preserve">
<style type="text/css">
	.st0{fill:#FFFFFF;}
	.st1{fill:none;stroke:#000000;stroke-width:2;}
</style>
<g id="레이어_1" xmlns:ev="http://www.w3.org/2001/xml-events">
	<rect class="st0" width="535" height="757"/>
	<rect class="st0" width="535" height="757"/>
</g>
<g id="_x31_00-사람">
	<g>
		<polyline class="st1" points="241.5,265 240.5,263 236.5,264 229.5,270 223.5,281 220.5,291 220.5,300 225.5,306 232.5,309 
			239.5,310 248.5,310 251.5,309 		"/>
		<polyline class="st1" points="267.5,268 267.5,266 276.5,266 298.5,271 312.5,276 325.5,282 334.5,289 340.5,297 342.5,303 
			341.5,309 336.5,315 329.5,321 316.5,329 		"/>
		<polyline class="st1" points="265.5,306 263.5,304 260.5,303 259.5,303 258.5,305 258.5,320 260.5,326 263.5,331 264.5,331 		"/>
		<polyline class="st1" points="303.5,323 304.5,323 304.5,322 306.5,324 308.5,328 310.5,336 307.5,336 303.5,331 299.5,324 
			298.5,315 301.5,313 306.5,313 310.5,315 311.5,319 308.5,326 299.5,340 		"/>
		<polyline class="st1" points="265.5,334 259.5,331 257.5,329 256.5,324 257.5,319 262.5,313 267.5,310 272.5,311 274.5,316 
			272.5,326 267.5,336 262.5,343 		"/>
		<polyline class="st1" points="278.5,335 278.5,349 283.5,354 290.5,356 291.5,359 291.5,361 287.5,367 		"/>
		<polyline class="st1" points="258.5,373 262.5,381 266.5,385 271.5,387 279.5,388 287.5,386 291.5,386 302.5,384 314.5,381 
			317.5,379 315.5,379 		"/>
		<polyline class="st1" points="239.5,346 238.5,346 239.5,360 244.5,380 253.5,395 258.5,401 263.5,406 270.5,409 278.5,411 
			300.5,410 311.5,408 321.5,404 330.5,398 337.5,392 344.5,381 346.5,373 346.5,361 344.5,347 341.5,337 337.5,332 330.5,330 
			327.5,332 326.5,334 		"/>
		<polyline class="st1" points="273.5,425 272.5,423 271.5,423 268.5,458 267.5,459 267.5,457 		"/>
		<polyline class="st1" points="294.5,422 293.5,421 293.5,439 294.5,445 292.5,444 		"/>
		<polyline class="st1" points="267.5,437 266.5,439 264.5,439 261.5,441 240.5,445 234.5,445 219.5,449 215.5,453 211.5,467 
			210.5,482 212.5,513 215.5,527 217.5,523 		"/>
		<polyline class="st1" points="293.5,452 293.5,449 297.5,446 317.5,444 320.5,445 324.5,448 327.5,453 330.5,461 332.5,483 
			329.5,495 321.5,543 320.5,547 319.5,544 		"/>
		<polyline class="st1" points="324.5,517 325.5,517 334.5,510 342.5,502 350.5,492 359.5,484 370.5,476 371.5,476 370.5,476 
			366.5,480 		"/>
		<polyline class="st1" points="326.5,534 331.5,532 339.5,524 350.5,511 372.5,489 380.5,482 381.5,482 379.5,482 		"/>
		<polyline class="st1" points="358.5,476 357.5,476 357.5,475 362.5,471 367.5,464 379.5,451 388.5,446 392.5,446 392.5,451 
			383.5,465 379.5,468 382.5,464 388.5,459 394.5,458 394.5,461 391.5,470 390.5,471 395.5,469 397.5,469 398.5,471 395.5,475 
			385.5,484 		"/>
		<polyline class="st1" points="212.5,492 211.5,492 211.5,491 208.5,490 203.5,486 198.5,485 194.5,483 183.5,483 164.5,481 
			155.5,481 156.5,487 162.5,498 172.5,509 180.5,513 195.5,516 208.5,520 223.5,527 227.5,527 227.5,526 226.5,526 		"/>
		<polyline class="st1" points="170.5,488 167.5,485 155.5,478 139.5,465 129.5,458 126.5,458 123.5,460 120.5,466 120.5,478 
			122.5,481 128.5,480 132.5,477 130.5,493 132.5,496 134.5,497 136.5,495 139.5,491 141.5,486 140.5,493 141.5,500 146.5,504 
			157.5,503 165.5,498 165.5,500 		"/>
		<polyline class="st1" points="219.5,536 221.5,553 222.5,578 223.5,582 226.5,585 226.5,586 232.5,589 240.5,589 253.5,591 
			264.5,591 274.5,590 291.5,590 303.5,592 314.5,591 317.5,588 318.5,584 320.5,571 320.5,565 322.5,554 322.5,539 320.5,539 		"/>
		<polyline class="st1" points="229.5,597 227.5,595 224.5,594 223.5,597 221.5,613 221.5,616 222.5,617 227.5,617 241.5,620 
			264.5,622 275.5,622 307.5,615 313.5,615 314.5,614 311.5,599 304.5,588 		"/>
		<polyline class="st1" points="231.5,624 229.5,622 223.5,636 215.5,661 210.5,673 205.5,684 194.5,702 187.5,717 186.5,721 
			191.5,721 218.5,727 240.5,728 244.5,730 247.5,721 251.5,716 259.5,698 264.5,660 267.5,651 267.5,640 267.5,643 266.5,645 		"/>
		<polyline class="st1" points="273.5,646 269.5,638 270.5,645 273.5,660 279.5,678 286.5,695 298.5,718 305.5,724 312.5,725 
			329.5,718 336.5,717 338.5,715 340.5,706 340.5,674 339.5,667 332.5,646 323.5,625 316.5,618 312.5,617 		"/>
		<polyline class="st1" points="218.5,722 214.5,721 211.5,721 209.5,722 204.5,729 201.5,738 		"/>
		<polyline class="st1" points="236.5,724 228.5,740 219.5,748 215.5,749 		"/>
		<polyline class="st1" points="209.5,738 193.5,734 180.5,736 163.5,743 164.5,748 172.5,757 178.5,760 201.5,763 221.5,763 
			230.5,762 240.5,760 244.5,758 241.5,754 234.5,748 227.5,744 223.5,739 		"/>
		<polyline class="st1" points="296.5,728 296.5,736 294.5,743 294.5,744 295.5,744 		"/>
		<polyline class="st1" points="307.5,732 313.5,726 315.5,726 315.5,737 316.5,740 318.5,742 324.5,743 340.5,737 357.5,736 
			360.5,740 361.5,740 361.5,741 358.5,744 354.5,747 348.5,748 339.5,749 328.5,749 304.5,753 297.5,753 288.5,751 278.5,755 		"/>
		<polyline class="st1" points="254.5,492 249.5,504 245.5,540 245.5,546 		"/>
	</g>
</g>
<g id="_x31_00-비">
	<g>
		<polyline class="st1" points="94.5,84 94.5,82 89.5,74 84.5,69 84.5,80 77.5,137 76.5,166 79.5,188 87.5,220 88.5,221 		"/>
		<polyline class="st1" points="152.5,64 149.5,63 145.5,71 138.5,94 131.5,129 129.5,163 132.5,189 139.5,222 143.5,227 144.5,227 
					"/>
		<polyline class="st1" points="213.5,66 212.5,59 211.5,60 206.5,81 199.5,114 195.5,149 197.5,171 202.5,184 206.5,189 		"/>
		<polyline class="st1" points="282.5,59 282.5,55 281.5,57 258.5,132 249.5,174 250.5,203 256.5,217 		"/>
		<polyline class="st1" points="357.5,68 356.5,65 345.5,92 334.5,130 330.5,162 332.5,181 339.5,192 		"/>
		<polyline class="st1" points="423.5,60 422.5,58 406.5,132 404.5,165 406.5,188 409.5,199 		"/>
		<polyline class="st1" points="474.5,55 474.5,52 470.5,70 459.5,101 449.5,136 447.5,161 447.5,170 		"/>
		<polyline class="st1" points="71.5,272 70.5,272 79.5,370 83.5,402 90.5,472 		"/>
		<polyline class="st1" points="115.5,300 110.5,312 103.5,373 107.5,403 110.5,408 		"/>
		<polyline class="st1" points="154.5,284 147.5,313 140.5,360 142.5,407 145.5,415 149.5,411 		"/>
		<polyline class="st1" points="196.5,277 196.5,275 195.5,276 190.5,299 183.5,339 179.5,374 179.5,391 180.5,394 183.5,385 		"/>
		<polyline class="st1" points="213.5,279 213.5,283 209.5,310 201.5,353 199.5,373 		"/>
		<line class="st1" x1="435.5" y1="274" x2="425.5" y2="274"/>
		<polyline class="st1" points="403.5,302 398.5,344 396.5,408 398.5,422 403.5,441 		"/>
		<polyline class="st1" points="431.5,264 424.5,376 424.5,445 430.5,488 		"/>
		<polyline class="st1" points="445.5,433 447.5,437 454.5,501 460.5,531 464.5,541 		"/>
		<polyline class="st1" points="472.5,535 470.5,546 467.5,585 467.5,608 469.5,628 		"/>
		<polyline class="st1" points="411.5,561 405.5,564 390.5,620 390.5,635 		"/>
		<polyline class="st1" points="363.5,396 358.5,397 344.5,425 344.5,427 		"/>
		<polyline class="st1" points="139.5,558 133.5,558 128.5,610 129.5,618 132.5,629 132.5,632 		"/>
		<polyline class="st1" points="111.5,595 106.5,602 103.5,649 103.5,717 		"/>
		<polyline class="st1" points="40.5,574 37.5,572 38.5,609 43.5,642 54.5,673 		"/>
		<polyline class="st1" points="209.5,607 204.5,619 196.5,659 194.5,674 		"/>
		<polyline class="st1" points="470.5,681 468.5,681 458.5,726 		"/>
	</g>
</g>
</svg>
