<?xml version="1.0" encoding="utf-8"?>
<!-- Generator: Adobe Illustrator 26.2.1, SVG Export Plug-In . SVG Version: 6.00 Build 0)  -->
<svg version="1.1" id="레이어_1" xmlns="http://www.w3.org/2000/svg" xmlns:xlink="http://www.w3.org/1999/xlink" x="0px"
	 y="0px" viewBox="0 0 535 757" style="enable-background:new 0 0 535 757;" xml:space="preserve">
<style type="text/css">
	.st0{fill:#FFFFFF;}
	.st1{fill:none;stroke:#000000;stroke-width:2;}
</style>
<g id="레이어_1_00000178910654659668825900000009911519863820801710_" xmlns:ev="http://www.w3.org/2001/xml-events">
	<rect class="st0" width="535" height="757"/>
	<rect class="st0" width="535" height="757"/>
</g>
<g id="_x31_50-양동이">
	<g>
		<polyline class="st1" points="178.5,80 191.5,82 199.5,86 202.5,86 210.5,89 218.5,95 222.5,96 228.5,99 230.5,101 235.5,103 
			253.5,115 262.5,122 268.5,125 275.5,132 276.5,132 281.5,136 283.5,136 284.5,134 284.5,131 281.5,129 280.5,126 275.5,122 
			272.5,118 262.5,109 256.5,105 248.5,98 242.5,95 239.5,91 233.5,88 228.5,83 214.5,76 210.5,75 207.5,73 205.5,73 201.5,70 
			197.5,69 196.5,68 182.5,68 181.5,69 179.5,69 179.5,70 175.5,74 174.5,76 		"/>
		<polyline class="st1" points="189.5,64 189.5,63 190.5,63 190.5,62 193.5,59 198.5,56 199.5,54 208.5,49 219.5,41 230.5,36 
			234.5,33 241.5,32 243.5,31 248.5,31 250.5,30 263.5,30 272.5,33 278.5,38 279.5,38 280.5,40 286.5,43 293.5,50 296.5,52 
			298.5,55 302.5,58 308.5,65 309.5,78 308.5,80 307.5,88 302.5,97 302.5,99 300.5,101 293.5,115 290.5,118 290.5,119 287.5,122 
			287.5,123 285.5,125 284.5,125 284.5,126 		"/>
		<polyline class="st1" points="181.5,84 182.5,86 187.5,91 		"/>
		<polyline class="st1" points="197.5,94 193.5,99 189.5,106 189.5,109 188.5,111 188.5,131 181.5,144 175.5,152 171.5,156 
			166.5,165 165.5,169 165.5,175 167.5,178 174.5,179 176.5,180 181.5,178 190.5,171 193.5,167 195.5,166 206.5,151 212.5,145 
			218.5,141 224.5,140 229.5,143 231.5,143 233.5,146 236.5,148 236.5,149 241.5,151 241.5,152 249.5,157 253.5,157 262.5,150 
			264.5,146 264.5,144 265.5,144 266.5,138 267.5,137 		"/>
	</g>
</g>
<g id="_x31_50-비">
	<g>
		<line class="st1" x1="258.5" y1="267" x2="260.5" y2="266"/>
		<line class="st1" x1="259.5" y1="266" x2="259.5" y2="267"/>
		<line class="st1" x1="258.5" y1="267" x2="259.5" y2="267"/>
		<polyline class="st1" points="263.5,243 262.5,243 263.5,244 264.5,252 265.5,253 265.5,255 267.5,257 267.5,258 268.5,258 
			263.5,258 		"/>
		<polyline class="st1" points="93.5,17 92.5,50 93.5,51 		"/>
		<polyline class="st1" points="107.5,21 109.5,40 114.5,119 114.5,172 		"/>
		<polyline class="st1" points="63.5,64 64.5,91 65.5,97 65.5,114 		"/>
		<line class="st1" x1="91.5" y1="93" x2="90.5" y2="135"/>
		<polyline class="st1" points="64.5,160 63.5,171 63.5,191 		"/>
		<polyline class="st1" points="48.5,232 48.5,253 49.5,265 		"/>
		<line class="st1" x1="153.5" y1="51" x2="154.5" y2="73"/>
		<line class="st1" x1="148.5" y1="171" x2="144.5" y2="219"/>
		<line class="st1" x1="125.5" y1="273" x2="120.5" y2="300"/>
		<polyline class="st1" points="83.5,247 80.5,279 80.5,302 		"/>
		<polyline class="st1" points="52.5,414 54.5,452 56.5,470 		"/>
		<polyline class="st1" points="79.5,497 80.5,526 81.5,532 		"/>
		<line class="st1" x1="156.5" y1="466" x2="156.5" y2="497"/>
		<polyline class="st1" points="158.5,400 157.5,401 150.5,427 149.5,434 		"/>
		<line class="st1" x1="124.5" y1="448" x2="125.5" y2="476"/>
		<line class="st1" x1="359.5" y1="23" x2="360.5" y2="45"/>
		<polyline class="st1" points="340.5,68 338.5,81 338.5,101 		"/>
		<polyline class="st1" points="378.5,42 377.5,57 379.5,74 		"/>
		<polyline class="st1" points="425.5,23 428.5,41 436.5,70 438.5,86 		"/>
		<polyline class="st1" points="424.5,104 421.5,110 420.5,119 420.5,131 428.5,186 		"/>
		<polyline class="st1" points="369.5,135 370.5,159 372.5,171 		"/>
		<line class="st1" x1="289.5" y1="187" x2="288.5" y2="224"/>
		<polyline class="st1" points="307.5,222 306.5,229 306.5,237 		"/>
		<line class="st1" x1="355.5" y1="299" x2="356.5" y2="348"/>
		<polyline class="st1" points="314.5,330 313.5,330 311.5,345 311.5,371 		"/>
		<polyline class="st1" points="278.5,306 273.5,322 269.5,345 268.5,347 		"/>
		<polyline class="st1" points="391.5,226 390.5,250 392.5,255 		"/>
		<polyline class="st1" points="469.5,39 479.5,69 482.5,98 		"/>
		<polyline class="st1" points="465.5,135 463.5,144 463.5,176 464.5,189 		"/>
		<polyline class="st1" points="462.5,302 461.5,310 462.5,329 463.5,334 463.5,349 		"/>
		<polyline class="st1" points="468.5,414 467.5,424 467.5,432 469.5,447 469.5,455 468.5,461 		"/>
		<polyline class="st1" points="464.5,522 464.5,539 465.5,545 465.5,553 		"/>
		<polyline class="st1" points="377.5,427 383.5,478 383.5,496 		"/>
		<line class="st1" x1="339.5" y1="425" x2="339.5" y2="459"/>
		<polyline class="st1" points="391.5,363 392.5,363 396.5,395 		"/>
		<line class="st1" x1="423.5" y1="324" x2="425.5" y2="332"/>
		<polyline class="st1" points="429.5,230 426.5,233 425.5,237 424.5,247 424.5,256 425.5,262 		"/>
		<polyline class="st1" points="487.5,188 491.5,213 497.5,230 		"/>
		<polyline class="st1" points="507.5,285 508.5,330 509.5,338 		"/>
		<polyline class="st1" points="513.5,410 511.5,443 511.5,455 512.5,466 		"/>
		<line class="st1" x1="511.5" y1="526" x2="510.5" y2="557"/>
		<line class="st1" x1="398.5" y1="559" x2="398.5" y2="587"/>
		<line class="st1" x1="231.5" y1="608" x2="232.5" y2="623"/>
		<line class="st1" x1="57.5" y1="591" x2="56.5" y2="613"/>
		<polyline class="st1" points="27.5,585 25.5,590 24.5,605 		"/>
		<line class="st1" x1="160.5" y1="235" x2="159.5" y2="232"/>
		<polyline class="st1" points="161.5,228 158.5,238 158.5,241 151.5,254 151.5,259 152.5,260 158.5,260 161.5,259 165.5,255 
			168.5,250 168.5,240 165.5,234 161.5,231 		"/>
		<polyline class="st1" points="151.5,313 152.5,313 154.5,316 154.5,320 145.5,337 145.5,339 141.5,339 139.5,336 139.5,330 
			141.5,327 		"/>
		<polyline class="st1" points="314.5,296 314.5,295 315.5,296 318.5,296 320.5,298 327.5,302 333.5,308 335.5,311 336.5,315 
			335.5,324 327.5,328 318.5,330 312.5,329 310.5,325 309.5,317 309.5,311 311.5,300 		"/>
		<polyline class="st1" points="305.5,382 306.5,395 308.5,399 311.5,400 314.5,399 316.5,394 316.5,392 313.5,385 310.5,382 
			309.5,382 307.5,384 		"/>
		<polyline class="st1" points="460.5,46 458.5,35 458.5,2 459.5,-8 464.5,-23 465.5,-29 469.5,-40 471.5,-50 476.5,-67 479.5,-74 
			489.5,-91 496.5,-106 500.5,-110 		"/>
	</g>
</g>
<g id="_x31_50-사람">
	<g>
		<polyline class="st1" points="183.5,191 183.5,217 184.5,219 185.5,227 188.5,230 189.5,233 197.5,239 199.5,239 203.5,242 
			213.5,247 219.5,248 223.5,250 228.5,250 229.5,249 232.5,249 244.5,242 245.5,240 257.5,229 262.5,219 262.5,217 264.5,215 
			264.5,212 265.5,212 265.5,207 266.5,206 266.5,196 267.5,195 267.5,190 268.5,189 		"/>
		<polyline class="st1" points="265.5,197 266.5,197 271.5,193 274.5,193 276.5,195 276.5,197 277.5,198 277.5,205 276.5,206 
			276.5,208 274.5,212 270.5,216 270.5,217 268.5,217 267.5,218 263.5,218 263.5,217 		"/>
		<polyline class="st1" points="183.5,201 182.5,198 178.5,196 173.5,196 173.5,197 172.5,197 170.5,201 170.5,205 171.5,206 
			171.5,209 178.5,217 178.5,218 181.5,221 184.5,221 		"/>
		<polyline class="st1" points="217.5,164 220.5,171 224.5,177 229.5,182 234.5,184 234.5,185 232.5,185 225.5,174 220.5,164 
			220.5,162 222.5,162 223.5,165 230.5,171 236.5,174 238.5,176 253.5,183 254.5,183 248.5,178 241.5,167 239.5,165 246.5,173 
			260.5,183 263.5,186 263.5,187 264.5,186 		"/>
		<polyline class="st1" points="212.5,162 213.5,162 210.5,164 206.5,169 202.5,171 199.5,175 186.5,187 188.5,182 195.5,172 
			198.5,164 193.5,170 192.5,173 186.5,181 180.5,192 		"/>
		<polyline class="st1" points="228.5,187 240.5,184 261.5,184 		"/>
		<polyline class="st1" points="184.5,190 184.5,191 190.5,189 205.5,189 206.5,190 209.5,190 210.5,191 		"/>
		<polyline class="st1" points="228.5,200 229.5,201 246.5,201 254.5,197 256.5,195 256.5,194 		"/>
		<polyline class="st1" points="208.5,200 208.5,201 206.5,202 206.5,203 201.5,204 198.5,206 188.5,206 184.5,204 		"/>
		<polyline class="st1" points="216.5,210 216.5,214 215.5,214 214.5,218 217.5,221 221.5,221 222.5,220 		"/>
		<polyline class="st1" points="201.5,224 206.5,227 209.5,227 211.5,228 224.5,227 236.5,220 239.5,217 240.5,217 240.5,216 
			241.5,218 241.5,230 239.5,234 237.5,236 233.5,238 230.5,238 229.5,239 216.5,239 215.5,238 211.5,237 207.5,234 205.5,232 
			204.5,229 202.5,227 202.5,228 		"/>
		<polyline class="st1" points="209.5,245 210.5,247 211.5,260 210.5,264 207.5,270 		"/>
		<polyline class="st1" points="236.5,248 235.5,248 235.5,261 238.5,268 244.5,271 248.5,271 		"/>
		<polyline class="st1" points="268.5,200 270.5,199 273.5,202 273.5,203 		"/>
		<polyline class="st1" points="177.5,201 175.5,204 175.5,208 176.5,208 		"/>
		<polyline class="st1" points="255.5,268 255.5,267 259.5,267 269.5,263 280.5,255 288.5,251 295.5,245 310.5,235 312.5,232 
			322.5,223 324.5,222 326.5,219 326.5,211 321.5,197 318.5,192 308.5,178 303.5,173 298.5,166 294.5,162 287.5,157 287.5,156 
			291.5,154 303.5,143 306.5,143 311.5,149 321.5,156 322.5,158 328.5,164 340.5,182 348.5,190 350.5,196 352.5,199 353.5,206 
			354.5,208 354.5,213 349.5,227 343.5,236 342.5,239 334.5,249 326.5,257 323.5,259 315.5,269 301.5,279 296.5,284 289.5,289 		"/>
		<polyline class="st1" points="206.5,267 197.5,272 182.5,277 173.5,281 171.5,283 167.5,285 161.5,290 145.5,317 140.5,326 
			140.5,328 138.5,330 121.5,371 119.5,375 115.5,380 114.5,383 112.5,385 111.5,385 117.5,385 123.5,388 128.5,393 134.5,396 
			137.5,396 139.5,397 140.5,390 143.5,383 145.5,381 155.5,358 165.5,340 165.5,338 167.5,334 168.5,334 170.5,329 171.5,329 		"/>
		<polyline class="st1" points="289.5,289 285.5,291 282.5,295 279.5,297 276.5,302 272.5,305 262.5,322 262.5,324 260.5,327 
			259.5,332 259.5,346 262.5,357 262.5,361 265.5,368 265.5,371 267.5,375 267.5,377 271.5,388 274.5,393 278.5,404 278.5,406 
			277.5,403 273.5,399 267.5,395 263.5,395 257.5,393 247.5,393 245.5,395 239.5,397 237.5,399 232.5,401 215.5,414 210.5,416 
			200.5,423 191.5,426 188.5,428 181.5,429 175.5,429 171.5,428 172.5,428 181.5,419 183.5,412 182.5,407 182.5,365 181.5,362 
			181.5,357 180.5,355 179.5,341 178.5,339 178.5,326 179.5,324 179.5,319 181.5,315 175.5,323 172.5,325 169.5,329 166.5,335 		"/>
		<line class="st1" x1="297.5" y1="138" x2="298.5" y2="138"/>
		<polyline class="st1" points="273.5,132 273.5,133 270.5,136 267.5,136 		"/>
		<polyline class="st1" points="266.5,137 267.5,135 266.5,128 		"/>
		<polyline class="st1" points="295.5,149 299.5,146 295.5,139 295.5,137 293.5,133 293.5,128 292.5,128 291.5,126 289.5,127 
			289.5,137 288.5,137 287.5,134 284.5,131 281.5,131 281.5,133 283.5,134 		"/>
		<polyline class="st1" points="271.5,137 272.5,137 272.5,138 276.5,143 		"/>
		<polyline class="st1" points="271.5,146 267.5,143 265.5,143 265.5,144 266.5,146 272.5,152 276.5,154 278.5,156 284.5,158 
			288.5,158 		"/>
		<polyline class="st1" points="276.5,140 275.5,134 274.5,133 		"/>
		<polyline class="st1" points="263.5,155 265.5,157 270.5,167 271.5,175 272.5,175 274.5,193 		"/>
		<polyline class="st1" points="269.5,219 270.5,218 270.5,223 268.5,231 268.5,235 267.5,236 265.5,244 260.5,254 259.5,260 
			257.5,263 257.5,266 256.5,267 256.5,272 255.5,274 255.5,281 254.5,283 253.5,291 251.5,295 251.5,298 247.5,306 241.5,315 
			239.5,316 235.5,320 234.5,320 234.5,321 233.5,321 237.5,316 239.5,312 242.5,300 243.5,292 243.5,283 245.5,276 243.5,263 
			237.5,252 237.5,250 236.5,250 236.5,248 		"/>
		<polyline class="st1" points="177.5,177 176.5,187 175.5,190 		"/>
		<polyline class="st1" points="179.5,222 178.5,223 178.5,227 181.5,237 182.5,248 183.5,250 183.5,255 184.5,256 183.5,264 
			182.5,268 181.5,268 181.5,270 179.5,273 179.5,276 		"/>
		<polyline class="st1" points="182.5,253 172.5,273 170.5,274 169.5,276 163.5,282 160.5,286 160.5,288 159.5,290 158.5,290 
			158.5,291 		"/>
		<polyline class="st1" points="186.5,276 188.5,277 189.5,279 198.5,288 208.5,294 209.5,296 215.5,300 219.5,300 220.5,301 
			222.5,301 224.5,299 232.5,295 241.5,281 243.5,279 243.5,277 		"/>
		<polyline class="st1" points="114.5,385 113.5,385 107.5,390 95.5,396 93.5,398 89.5,400 89.5,403 92.5,403 103.5,398 103.5,399 
			95.5,408 93.5,412 91.5,414 91.5,416 93.5,416 96.5,414 104.5,406 104.5,405 105.5,405 100.5,416 98.5,418 97.5,422 99.5,422 
			104.5,418 108.5,409 109.5,409 109.5,411 104.5,425 106.5,425 110.5,423 116.5,412 115.5,416 115.5,421 114.5,423 114.5,427 
			115.5,427 121.5,419 122.5,411 124.5,405 124.5,401 125.5,398 126.5,398 		"/>
		<polyline class="st1" points="183.5,427 183.5,442 182.5,444 182.5,452 179.5,464 179.5,467 168.5,509 166.5,513 164.5,521 
			156.5,542 152.5,549 152.5,551 153.5,552 159.5,551 170.5,551 174.5,552 180.5,552 203.5,560 211.5,560 210.5,554 210.5,539 
			214.5,517 216.5,492 218.5,486 219.5,479 219.5,471 223.5,445 223.5,436 224.5,431 227.5,423 230.5,423 231.5,424 232.5,428 
			232.5,432 235.5,447 237.5,470 240.5,479 243.5,492 245.5,514 246.5,518 246.5,527 247.5,530 247.5,556 256.5,551 264.5,550 
			267.5,548 281.5,544 288.5,543 299.5,543 303.5,542 307.5,540 308.5,538 307.5,537 306.5,530 302.5,515 298.5,506 294.5,490 
			293.5,489 293.5,486 292.5,485 291.5,477 287.5,461 286.5,460 285.5,454 283.5,450 282.5,444 281.5,443 278.5,429 277.5,429 
			276.5,423 275.5,422 272.5,413 272.5,411 271.5,410 270.5,403 		"/>
		<polyline class="st1" points="162.5,552 162.5,553 161.5,553 161.5,554 159.5,554 159.5,555 153.5,556 147.5,559 138.5,560 
			131.5,564 125.5,569 125.5,573 126.5,573 126.5,574 142.5,578 169.5,579 170.5,580 177.5,580 178.5,579 180.5,579 185.5,576 
			190.5,571 193.5,566 195.5,555 196.5,555 		"/>
		<polyline class="st1" points="254.5,555 254.5,558 256.5,564 260.5,569 265.5,571 269.5,571 285.5,565 290.5,565 298.5,563 
			316.5,556 324.5,552 326.5,550 326.5,547 324.5,545 322.5,545 321.5,544 310.5,544 306.5,542 		"/>
		<polyline class="st1" points="309.5,545 309.5,544 315.5,544 316.5,545 316.5,547 315.5,548 312.5,548 316.5,549 317.5,551 
			309.5,552 309.5,553 308.5,553 310.5,553 310.5,554 308.5,555 305.5,555 304.5,556 301.5,556 300.5,557 292.5,558 289.5,560 
			283.5,560 281.5,561 278.5,561 277.5,562 273.5,563 272.5,564 270.5,564 269.5,565 263.5,565 		"/>
		<polyline class="st1" points="141.5,559 141.5,560 135.5,561 133.5,563 133.5,565 134.5,566 139.5,565 138.5,566 135.5,566 
			132.5,569 132.5,570 136.5,570 136.5,569 134.5,570 134.5,572 150.5,573 151.5,574 158.5,574 159.5,575 163.5,576 175.5,576 
			176.5,575 179.5,575 180.5,574 183.5,574 185.5,573 190.5,568 		"/>
		<polyline class="st1" points="212.5,232 213.5,233 216.5,233 216.5,232 226.5,232 228.5,230 231.5,230 238.5,225 		"/>
		<line class="st1" x1="224.5" y1="227" x2="226.5" y2="230"/>
		<line class="st1" x1="216.5" y1="229" x2="216.5" y2="231"/>
		<polyline class="st1" points="224.5,237 227.5,236 231.5,236 232.5,234 234.5,233 234.5,234 237.5,234 239.5,233 		"/>
	</g>
</g>
<g id="_x31_50-물웅덩이">
	<g>
		<polyline class="st1" points="142.5,539 137.5,540 136.5,541 133.5,541 125.5,543 117.5,547 108.5,553 102.5,559 97.5,568 
			97.5,576 100.5,584 105.5,590 110.5,591 119.5,595 123.5,596 133.5,597 141.5,600 146.5,600 161.5,603 172.5,603 177.5,602 
			182.5,599 191.5,597 225.5,598 241.5,601 247.5,601 251.5,602 262.5,602 267.5,601 289.5,601 310.5,596 321.5,591 325.5,590 
			331.5,586 343.5,580 358.5,578 370.5,575 378.5,568 382.5,559 382.5,555 380.5,549 377.5,544 364.5,534 358.5,531 348.5,529 
			344.5,529 338.5,527 		"/>
		<polyline class="st1" points="105.5,565 105.5,568 108.5,582 108.5,563 110.5,557 110.5,567 113.5,586 116.5,592 		"/>
		<polyline class="st1" points="116.5,540 115.5,540 114.5,543 114.5,550 116.5,569 119.5,580 120.5,581 120.5,578 		"/>
		<polyline class="st1" points="121.5,552 120.5,555 120.5,568 121.5,577 124.5,588 		"/>
		<polyline class="st1" points="124.5,555 123.5,555 122.5,561 124.5,576 125.5,580 127.5,580 127.5,574 		"/>
		<polyline class="st1" points="127.5,543 126.5,551 127.5,554 128.5,555 129.5,553 129.5,542 130.5,541 134.5,554 		"/>
		<polyline class="st1" points="141.5,584 147.5,597 151.5,590 		"/>
		<polyline class="st1" points="153.5,580 156.5,588 159.5,593 163.5,596 166.5,595 168.5,587 168.5,584 170.5,586 175.5,595 
			176.5,595 176.5,596 177.5,595 178.5,589 179.5,587 181.5,586 182.5,586 183.5,588 188.5,592 190.5,587 190.5,579 191.5,577 
			198.5,588 202.5,592 203.5,592 205.5,591 205.5,584 203.5,566 205.5,567 215.5,588 217.5,590 219.5,589 219.5,563 220.5,563 
			222.5,572 230.5,589 232.5,590 234.5,587 233.5,575 229.5,560 226.5,552 224.5,542 228.5,564 236.5,580 239.5,588 244.5,594 
			245.5,592 244.5,575 242.5,563 237.5,544 238.5,555 242.5,567 247.5,579 256.5,596 259.5,597 260.5,595 260.5,586 257.5,566 
			258.5,566 259.5,570 265.5,584 268.5,589 271.5,591 273.5,591 274.5,587 274.5,579 272.5,569 272.5,565 274.5,567 277.5,574 
			286.5,590 288.5,590 290.5,588 290.5,583 292.5,575 293.5,575 295.5,577 300.5,586 303.5,589 305.5,589 307.5,588 308.5,583 
			308.5,565 310.5,563 314.5,566 318.5,573 323.5,579 327.5,582 330.5,583 332.5,582 334.5,577 335.5,569 335.5,555 338.5,556 
			347.5,571 351.5,572 352.5,568 352.5,547 353.5,546 368.5,569 370.5,570 371.5,569 371.5,564 369.5,555 362.5,539 361.5,538 
			360.5,539 363.5,561 353.5,540 343.5,523 340.5,525 339.5,534 339.5,550 338.5,555 334.5,548 331.5,540 325.5,530 325.5,536 
			330.5,552 320.5,528 319.5,528 320.5,535 323.5,547 323.5,545 321.5,541 		"/>
		<polyline class="st1" points="224.5,532 232.5,534 237.5,534 243.5,532 		"/>
	</g>
</g>
</svg>
