<?xml version="1.0" encoding="utf-8" ?>
<svg baseProfile="full" height="757" version="1.1" width="535" xmlns="http://www.w3.org/2000/svg" xmlns:ev="http://www.w3.org/2001/xml-events" xmlns:xlink="http://www.w3.org/1999/xlink"><defs /><rect fill="white" height="757" width="535" x="0" y="0" /><path d="M269.5,237.0 270.5,228.0 285.5,209.0 294.5,199.0 311.5,183.0 331.5,167.0 371.5,145.0 396.5,137.0 416.5,132.0 412.5,132.0 412.5,134.0 413.5,134.0 M250.5,231.0 239.5,221.0 233.5,209.0 219.5,172.0 209.5,155.0 206.5,148.0 205.5,140.0 208.5,137.0 219.5,133.0 237.5,124.0 274.5,111.0 292.5,106.0 326.5,102.0 352.5,103.0 375.5,106.0 393.5,112.0 407.5,118.0 416.5,124.0 423.5,133.0 423.5,135.0 M190.5,154.0 179.5,156.0 170.5,159.0 157.5,169.0 134.5,193.0 114.5,219.0 97.5,247.0 74.5,290.0 72.5,292.0 71.5,292.0 72.5,293.0 77.5,290.0 79.5,290.0 102.5,266.0 130.5,252.0 145.5,246.0 175.5,240.0 198.5,239.0 219.5,241.0 256.5,242.0 279.5,239.0 M283.5,242.0 283.5,240.0 285.5,240.0 288.5,244.0 300.5,261.0 313.5,283.0 329.5,304.0 336.5,307.0 337.5,307.0 337.5,306.0 335.5,306.0 333.5,304.0 334.5,301.0 337.5,299.0 343.5,297.0 352.5,295.0 381.5,292.0 398.5,289.0 413.5,284.0 427.5,275.0 437.5,264.0 444.5,250.0 448.5,232.0 447.5,213.0 444.5,196.0 439.5,184.0 435.5,178.0 432.5,176.0 424.5,164.0 422.5,165.0 M102.5,281.0 101.5,277.0 104.5,275.0 115.5,280.0 137.5,293.0 151.5,304.0 158.5,308.0 174.5,320.0 179.5,325.0 198.5,340.0 206.5,343.0 212.5,344.0 217.5,344.0 221.5,343.0 226.5,339.0 239.5,332.0 266.5,323.0 304.5,317.0 358.5,306.0 368.5,305.0 378.5,305.0 382.5,306.0 M266.5,241.0 263.5,245.0 262.5,242.0 262.5,236.0 264.5,222.0 265.5,220.0 269.5,197.0 270.5,197.0 273.5,205.0 275.5,220.0 275.5,227.0 272.5,243.0 271.5,244.0 267.5,243.0 264.5,240.0 261.5,228.0 262.5,223.0 266.5,213.0 268.5,210.0 270.5,210.0 269.5,221.0 267.5,229.0 267.5,231.0 269.5,231.0 M344.5,313.0 343.5,312.0 341.5,324.0 333.5,405.0 332.5,425.0 332.5,460.0 329.5,471.0 325.5,480.0 324.5,485.0 323.5,486.0 323.5,488.0 322.5,488.0 322.5,492.0 319.5,509.0 313.5,524.0 311.5,526.0 309.5,530.0 307.5,531.0 305.5,530.0 305.5,526.0 306.5,520.0 316.5,487.0 323.5,457.0 327.5,425.0 329.5,398.0 333.5,374.0 M339.5,310.0 337.5,306.0 338.5,308.0 338.5,313.0 324.5,401.0 324.5,409.0 325.5,401.0 331.5,376.0 333.5,364.0 338.5,345.0 341.5,306.0 337.5,323.0 335.5,339.0 334.5,356.0 326.5,424.0 319.5,471.0 317.5,482.0 315.5,488.0 315.5,492.0 320.5,472.0 321.5,464.0 325.5,454.0 320.5,479.0 315.5,497.0 318.5,477.0 322.5,464.0 324.5,459.0 327.5,456.0 328.5,456.0 317.5,501.0 314.5,508.0 314.5,511.0 313.5,512.0 324.5,477.0 329.5,466.0 329.5,468.0 325.5,487.0 319.5,503.0 310.5,521.0 M206.5,339.0 201.5,339.0 196.5,342.0 191.5,348.0 188.5,350.0 179.5,361.0 169.5,381.0 167.5,388.0 167.5,396.0 171.5,408.0 180.5,422.0 188.5,432.0 199.5,440.0 211.5,445.0 225.5,448.0 M203.5,347.0 200.5,348.0 192.5,356.0 189.5,362.0 177.5,393.0 176.5,398.0 176.5,405.0 178.5,416.0 184.5,430.0 192.5,441.0 206.5,454.0 214.5,458.0 225.5,461.0 250.5,463.0 262.5,462.0 287.5,456.0 306.5,450.0 320.5,447.0 324.5,447.0 M225.5,360.0 223.5,358.0 216.5,359.0 207.5,372.0 203.5,387.0 205.5,396.0 210.5,400.0 224.5,403.0 231.5,400.0 238.5,395.0 243.5,389.0 246.5,384.0 247.5,380.0 248.5,379.0 248.5,368.0 247.5,364.0 244.5,359.0 240.5,357.0 227.5,354.0 226.5,355.0 222.5,356.0 214.5,364.0 209.5,373.0 206.5,381.0 205.5,389.0 207.5,394.0 M284.5,363.0 278.5,363.0 273.5,368.0 267.5,378.0 265.5,386.0 265.5,393.0 266.5,399.0 269.5,405.0 272.5,409.0 276.5,412.0 283.5,412.0 289.5,410.0 302.5,402.0 307.5,398.0 312.5,391.0 312.5,379.0 311.5,375.0 302.5,361.0 295.5,358.0 292.5,358.0 291.5,359.0 287.5,360.0 275.5,371.0 266.5,385.0 263.5,392.0 262.5,398.0 263.5,409.0 264.5,410.0 264.5,412.0 268.5,416.0 273.5,418.0 279.5,418.0 286.5,415.0 304.5,399.0 308.5,394.0 311.5,388.0 312.5,382.0 M231.5,365.0 231.5,361.0 232.5,359.0 231.5,359.0 227.5,364.0 223.5,375.0 224.5,377.0 226.5,377.0 231.5,371.0 234.5,365.0 234.5,359.0 232.5,358.0 228.5,365.0 226.5,372.0 229.5,371.0 233.5,364.0 233.5,360.0 231.5,361.0 228.5,367.0 227.5,370.0 229.5,370.0 M295.5,369.0 293.5,368.0 289.5,370.0 284.5,376.0 283.5,378.0 283.5,380.0 284.5,381.0 288.5,381.0 293.5,377.0 296.5,368.0 296.5,367.0 294.5,365.0 293.5,365.0 293.5,366.0 291.5,368.0 289.5,374.0 288.5,381.0 290.5,381.0 294.5,369.0 294.5,365.0 291.5,368.0 288.5,374.0 286.5,376.0 286.5,379.0 288.5,379.0 290.5,377.0 295.5,368.0 295.5,366.0 294.5,366.0 291.5,369.0 288.5,375.0 288.5,377.0 289.5,377.0 M213.5,413.0 211.5,410.0 216.5,420.0 222.5,425.0 229.5,430.0 244.5,437.0 254.5,438.0 262.5,436.0 273.5,430.0 M313.5,443.0 322.5,435.0 329.5,421.0 330.5,409.0 329.5,407.0 327.5,406.0 324.5,406.0 320.5,409.0 313.5,420.0 312.5,423.0 309.5,442.0 310.5,448.0 312.5,451.0 316.5,454.0 322.5,453.0 328.5,447.0 334.5,439.0 339.5,425.0 340.5,417.0 337.5,405.0 335.5,400.0 331.5,397.0 328.5,397.0 323.5,400.0 318.5,408.0 314.5,419.0 312.5,429.0 311.5,440.0 315.5,449.0 321.5,453.0 328.5,454.0 334.5,449.0 339.5,441.0 343.5,430.0 345.5,418.0 343.5,401.0 338.5,395.0 329.5,393.0 323.5,397.0 318.5,406.0 314.5,416.0 313.5,424.0 314.5,433.0 318.5,437.0 326.5,438.0 332.5,433.0 337.5,425.0 340.5,416.0 340.5,408.0 337.5,402.0 334.5,399.0 328.5,398.0 325.5,399.0 321.5,402.0 M203.5,458.0 203.5,457.0 200.5,456.0 196.5,458.0 192.5,462.0 179.5,484.0 160.5,521.0 145.5,544.0 141.5,548.0 140.5,548.0 140.5,545.0 148.5,526.0 178.5,473.0 188.5,460.0 188.5,459.0 185.5,460.0 169.5,497.0 154.5,529.0 M287.5,458.0 285.5,457.0 283.5,469.0 272.5,514.0 260.5,548.0 259.5,552.0 260.5,553.0 266.5,544.0 274.5,518.0 281.5,489.0 282.5,481.0 284.5,474.0 284.5,469.0 285.5,467.0 280.5,484.0 271.5,528.0 269.5,549.0 291.5,501.0 294.5,492.0 304.5,473.0 311.5,463.0 M317.5,457.0 317.5,456.0 316.5,456.0 314.5,458.0 298.5,479.0 282.5,494.0 287.5,486.0 300.5,473.0 312.5,459.0 314.5,455.0 316.5,453.0 312.5,455.0 309.5,459.0 282.5,487.0 285.5,485.0 305.5,464.0 315.5,457.0 314.5,457.0 300.5,476.0 287.5,492.0 280.5,499.0 294.5,482.0 311.5,464.0 320.5,458.0 316.5,461.0 304.5,479.0 286.5,501.0 300.5,485.0 308.5,479.0 306.5,482.0 299.5,488.0 293.5,495.0 286.5,501.0 285.5,500.0 M259.5,328.0 259.5,324.0 254.5,327.0 242.5,342.0 233.5,355.0 233.5,360.0 242.5,359.0 253.5,353.0 264.5,342.0 266.5,339.0 252.5,361.0 251.5,367.0 255.5,369.0 264.5,368.0 268.5,364.0 273.5,361.0 269.5,378.0 270.5,383.0 273.5,386.0 281.5,385.0 294.5,375.0 298.5,370.0 299.5,367.0 298.5,365.0 297.5,365.0 305.5,358.0 308.5,353.0 309.5,349.0 307.5,347.0 303.5,348.0 301.5,350.0 M250.5,338.0 248.5,336.0 237.5,331.0 213.5,330.0 204.5,331.0 186.5,338.0 170.5,350.0 163.5,358.0 158.5,366.0 157.5,371.0 161.5,374.0 174.5,373.0 178.5,369.0 178.5,366.0 174.5,365.0 162.5,369.0 151.5,382.0 146.5,395.0 143.5,406.0 141.5,424.0 141.5,431.0 143.5,435.0 146.5,436.0 151.5,434.0 156.5,428.0 159.5,422.0 159.5,420.0 156.5,421.0 152.5,425.0 145.5,437.0 143.5,444.0 142.5,453.0 143.5,461.0 147.5,467.0 152.5,470.0 157.5,471.0 161.5,469.0 M236.5,330.0 232.5,328.0 215.5,327.0 193.5,341.0 178.5,359.0 167.5,375.0 152.5,405.0 149.5,412.0 147.5,425.0 148.5,431.0 151.5,434.0 155.5,435.0 151.5,436.0 144.5,444.0 130.5,467.0 125.5,483.0 124.5,495.0 128.5,504.0 141.5,514.0 147.5,514.0 154.5,510.0 157.5,506.0 M289.5,326.0 281.5,321.0 269.5,322.0 262.5,336.0 262.5,338.0 267.5,344.0 272.5,345.0 283.5,344.0 293.5,340.0 291.5,345.0 285.5,354.0 283.5,362.0 284.5,369.0 287.5,374.0 293.5,377.0 301.5,377.0 309.5,373.0 318.5,365.0 325.5,357.0 323.5,357.0 318.5,360.0 315.5,364.0 314.5,367.0 316.5,370.0 322.5,372.0 330.5,371.0 M335.5,312.0 334.5,311.0 334.5,312.0 337.5,319.0 346.5,333.0 350.5,342.0 353.5,353.0 355.5,387.0 353.5,402.0 349.5,420.0 335.5,448.0 328.5,458.0 333.5,451.0 339.5,437.0 333.5,458.0 328.5,471.0 311.5,504.0 301.5,520.0 295.5,528.0 293.5,530.0 292.5,530.0 295.5,528.0 300.5,522.0 304.5,514.0 304.5,512.0 305.5,512.0 304.5,512.0 303.5,515.0 300.5,515.0 299.5,514.0 299.5,512.0 300.5,502.0 309.5,457.0 310.5,440.0 307.5,456.0 300.5,484.0 296.5,506.0 296.5,509.0 298.5,509.0 300.5,504.0 303.5,492.0 317.5,423.0 319.5,401.0 M317.5,431.0 316.5,432.0 301.5,473.0 293.5,483.0 289.5,487.0 286.5,488.0 288.5,487.0 294.5,480.0 302.5,469.0 309.5,457.0 314.5,446.0 310.5,449.0 293.5,474.0 289.5,478.0 288.5,478.0 294.5,469.0 304.5,457.0 304.5,456.0 297.5,461.0 289.5,469.0 287.5,472.0 284.5,474.0 287.5,471.0 300.5,452.0 294.5,460.0 290.5,467.0 285.5,472.0 285.5,473.0 293.5,457.0 294.5,457.0 291.5,458.0 283.5,469.0 280.5,475.0 M186.5,441.0 183.5,443.0 180.5,443.0 175.5,460.0 174.5,467.0 175.5,470.0 179.5,466.0 182.5,462.0 188.5,451.0 180.5,477.0 183.5,478.0 190.5,473.0 M122.5,269.0 120.5,267.0 114.5,270.0 97.5,286.0 87.5,297.0 72.5,318.0 65.5,326.0 49.5,348.0 48.5,350.0 49.5,351.0 57.5,346.0 57.5,345.0 M123.5,287.0 124.5,286.0 121.5,287.0 106.5,299.0 101.5,304.0 88.5,314.0 64.5,336.0 56.5,341.0 52.5,342.0 53.5,340.0 78.5,315.0 103.5,296.0 113.5,294.0 114.5,297.0 M133.5,307.0 129.5,305.0 123.5,305.0 115.5,310.0 111.5,314.0 118.5,313.0 136.5,304.0 140.5,301.0 145.5,301.0 147.5,303.0 147.5,308.0 141.5,324.0 158.5,318.0 M347.5,327.0 344.5,326.0 343.5,323.0 369.5,309.0 404.5,300.0 408.5,298.0 409.5,297.0 409.5,295.0 407.5,294.0 411.5,292.0 414.5,289.0 427.5,268.0 429.5,266.0 437.5,250.0 438.5,246.0 432.5,256.0 426.5,269.0 420.5,278.0 M91.5,60.0 83.5,50.0 69.5,76.0 66.5,129.0 M69.5,132.0 69.5,130.0 66.5,137.0 63.5,155.0 M55.5,177.0 50.5,183.0 46.5,204.0 46.5,210.0 48.5,222.0 50.5,225.0 M64.5,219.0 58.5,231.0 48.5,268.0 46.5,281.0 47.5,285.0 M165.5,95.0 164.5,93.0 158.5,94.0 141.5,134.0 137.5,150.0 137.5,158.0 141.5,160.0 152.5,144.0 M189.5,106.0 195.5,100.0 198.5,99.0 197.5,106.0 192.5,119.0 188.5,134.0 187.5,146.0 M228.5,173.0 226.5,183.0 225.5,196.0 227.5,204.0 237.5,217.0 M326.5,181.0 325.5,179.0 322.5,190.0 321.5,210.0 323.5,214.0 330.5,220.0 M397.5,56.0 396.5,45.0 391.5,43.0 384.5,72.0 M422.5,151.0 416.5,176.0 417.5,189.0 426.5,205.0 431.5,212.0 M444.5,244.0 445.5,252.0 444.5,257.0 433.5,295.0 431.5,308.0 431.5,318.0 437.5,337.0 440.5,344.0 M447.5,368.0 439.5,397.0 438.5,408.0 441.5,420.0 M451.5,450.0 446.5,458.0 440.5,470.0 438.5,483.0 438.5,487.0 439.5,490.0 M82.5,391.0 62.5,375.0 35.5,374.0 32.5,388.0 M45.5,432.0 44.5,434.0 41.5,461.0 42.5,468.0 46.5,475.0 M60.5,508.0 44.5,540.0 30.5,564.0 31.5,565.0 33.5,563.0 M90.5,418.0 85.5,402.0 79.5,408.0 79.5,415.0 81.5,423.0 M84.5,452.0 80.5,457.0 78.5,463.0 77.5,469.0 78.5,475.0 83.5,481.0 90.5,487.0 M103.5,530.0 97.5,539.0 90.5,547.0 89.5,551.0 95.5,555.0 M389.5,383.0 388.5,378.0 386.5,393.0 388.5,405.0 M373.5,485.0 361.5,494.0 356.5,506.0 356.5,509.0 359.5,515.0 365.5,523.0 M373.5,578.0 359.5,579.0 358.5,577.0 M312.5,521.0 301.5,515.0 291.5,520.0 289.5,523.0 M223.5,491.0 211.5,487.0 195.5,493.0 194.5,494.0 M108.5,488.0 98.5,485.0 95.5,487.0 94.5,491.0 M138.5,345.0 130.5,339.0 127.5,351.0 128.5,353.0 " fill="none" stroke="black" stroke-width="2" /></svg>