<?xml version="1.0" encoding="utf-8"?>
<!-- Generator: Adobe Illustrator 26.2.1, SVG Export Plug-In . SVG Version: 6.00 Build 0)  -->
<svg version="1.1" xmlns="http://www.w3.org/2000/svg" xmlns:xlink="http://www.w3.org/1999/xlink" x="0px" y="0px"
	 viewBox="0 0 535 757" style="enable-background:new 0 0 535 757;" xml:space="preserve">
<style type="text/css">
	.st0{fill:#FFFFFF;}
	.st1{fill:none;stroke:#000000;stroke-width:2;}
</style>
<g id="레이어_1" xmlns:ev="http://www.w3.org/2001/xml-events">
	<rect class="st0" width="535" height="757"/>
	<rect class="st0" width="535" height="757"/>
</g>
<g id="_x38_8-사람">
	<g>
		<polyline class="st1" points="308.2,156.7 301.3,152.1 293.9,152 290,153.3 283.7,157.3 277.8,163.4 275.2,167.8 269.7,187.3 
			268.6,201.1 269.1,208 271.8,220.5 276.4,226.2 292.8,234.7 293.2,236.9 		"/>
		<polyline class="st1" points="311.4,156.3 322.9,171.6 326,177.5 332.6,200.3 331.2,209.5 329.6,212.9 326.5,216.7 315.9,224.1 
			296,233.9 285.5,236.6 281.2,235.2 		"/>
		<polyline class="st1" points="300.8,148.6 331.4,151.5 340.6,154 349,159 352.9,162.5 355.9,166.7 358.6,173.5 360,183.3 
			359.3,195.2 357.7,201.1 354,208.6 341.8,219 320.6,228.7 311.2,231.8 300.1,237.4 292.5,239.8 292.3,238.4 290.3,238 		"/>
		<polyline class="st1" points="281.4,181.8 289.3,183.7 295.5,190.8 		"/>
		<polyline class="st1" points="306.8,188.8 314.9,187.9 315.8,189.4 		"/>
		<polyline class="st1" points="282.4,206 285.9,213.2 289.6,217.8 302.1,209.2 		"/>
		<line class="st1" x1="289.3" y1="233.8" x2="289" y2="233.8"/>
		<line class="st1" x1="287.9" y1="232.4" x2="287.4" y2="232.6"/>
		<polyline class="st1" points="287.2,230.5 286.9,238.7 284.2,249.9 		"/>
		<polyline class="st1" points="286.6,233.8 288.1,235.6 288.8,238.3 288.3,243.1 286.4,248.3 282.6,253.5 		"/>
		<polyline class="st1" points="322.2,226.7 319.8,232.3 319.2,236.6 321.7,245.5 		"/>
		<polyline class="st1" points="248.1,252.3 234.2,256.4 221.8,263.2 214,269.7 205,281.4 202.3,285.7 199.7,292.6 199,298.8 
			200.1,303.8 204,308.6 205.8,309.7 209.3,310.6 231.5,310.7 240,307.4 257,298.2 274,287.2 278,283.8 285.4,273.6 285.8,266.2 
			285,263 		"/>
		<polyline class="st1" points="255.2,261.9 252.9,275.6 253.4,280.6 255.1,282.2 258.4,280.9 278.3,268.2 278.6,262.8 278.1,261.9 
			277,261.9 277.8,261.6 277.7,258.6 284.4,258.7 285.4,267.9 		"/>
		<polyline class="st1" points="290.6,259.5 300.3,257.9 314.4,251.5 322.4,242.6 		"/>
		<polyline class="st1" points="288.2,259.7 294.3,268 301.2,283.7 308.2,269.7 312.2,264.9 319.4,258.9 321.2,256.5 326.1,246.8 
			325.5,243.7 		"/>
		<polyline class="st1" points="326,246.4 335.6,251.7 342.2,253.6 351.6,259.5 356.3,261.6 363.1,266.6 369.9,269.2 371.6,273.1 		
			"/>
		<polyline class="st1" points="361.3,264.9 367.7,267.4 375.9,273.2 379.8,276.6 386.9,285.4 390.9,291.8 397.5,312.9 		"/>
		<polyline class="st1" points="351.5,275.1 342.4,303 340,306.9 335.7,309.2 328.1,311.6 316.7,312.7 308.9,308 297.7,294.1 
			284.8,281.1 279.4,277.9 280.1,276.6 		"/>
		<polyline class="st1" points="258.8,295.4 263.6,307.1 270.3,319.4 276.8,327.4 281.5,330 297.5,334.3 303,334.6 320.4,330.9 
			327.4,330.2 334.6,327.4 333.6,327.1 		"/>
		<polyline class="st1" points="285.4,284.3 276.3,280.5 270.3,280.2 268.4,280.9 266.6,285.7 265.4,297.8 265.4,299.1 266.5,300.2 
			265.2,301.6 266.1,304.5 270.3,306 		"/>
		<polyline class="st1" points="347.8,282.7 348.6,288.1 347.9,295.2 346.2,298.5 		"/>
		<polyline class="st1" points="258.4,309.8 251.6,318.5 239.7,358.8 237.6,368.8 235.1,390.1 235.3,401.2 		"/>
		<polyline class="st1" points="233.6,399 233.4,396.1 239.7,391 249.3,386.5 257.1,385.5 264.8,386.1 277.8,388.6 284.8,391.1 
			293.5,391.9 318.2,398.3 338.9,400.9 347.1,400.8 358.7,397.6 377.5,389.1 381,386.3 380,385.2 		"/>
		<polyline class="st1" points="398,301.8 395.7,312.7 390.5,348.8 389.1,367.5 389.8,383.4 391,388.5 389.4,388.2 		"/>
		<polyline class="st1" points="352.6,262.7 357.9,269.4 368.9,286.9 377.5,305.6 382.2,326.7 384,339.9 387.9,372.9 388.3,395.5 		
			"/>
		<polyline class="st1" points="240.5,390.7 239.5,392.6 239,399.7 236.8,407.5 235.3,418.2 232.3,427.5 228.7,434.5 223.2,436.8 		
			"/>
		<polyline class="st1" points="229.6,426.9 237.7,425.5 248.4,426 260.9,432.1 271,435.5 282.9,437.9 299.2,438.9 331,429.9 
			352.1,428.9 371.9,429.9 379.8,431.3 385.1,430.7 389,429.7 400.1,423.9 402.5,421.4 402.7,417.1 		"/>
		<polyline class="st1" points="381.5,380.1 388.5,393.6 390.6,404.4 389.2,421.9 		"/>
		<line class="st1" x1="263.1" y1="431" x2="262.9" y2="430.2"/>
		<polyline class="st1" points="263.8,434.8 254.5,459.9 240.2,490.9 229,521.7 218.6,560.9 218,570.9 219.9,588 220.6,588.7 		"/>
		<polyline class="st1" points="221.2,585.5 231.2,584.3 244.1,585.5 250.5,587 263,586.8 265.6,587.8 		"/>
		<polyline class="st1" points="315.4,474.4 310.5,488 309.5,484.5 		"/>
		<polyline class="st1" points="312.5,473.6 307.6,486 300.4,509.3 294.2,525.3 284.1,558.6 274,581.7 273.1,588.8 270.9,590.8 
			271.7,589.1 		"/>
		<polyline class="st1" points="310.7,476.2 308.5,489 307,507.9 308.6,553.4 309.5,563.8 319.8,591.7 320.2,590.6 		"/>
		<polyline class="st1" points="355,430.6 359.3,442.4 364,466.3 371.7,496 378.9,531.5 382.7,555.8 382.5,571 378.3,602.7 
			376.5,608.7 370.6,618.3 368.2,617.9 		"/>
		<polyline class="st1" points="314.3,587.4 327.7,589.4 353.1,603.4 358.5,602.8 361.5,604.4 363.4,604.4 366.4,602.3 369.2,594.1 
					"/>
		<polyline class="st1" points="234.5,583.8 234.7,588.4 238.3,602 		"/>
		<polyline class="st1" points="253.7,589.1 254.4,601.9 254.8,605 256.1,606 		"/>
		<polyline class="st1" points="331.7,595.3 332.6,605.5 334.1,608.2 		"/>
		<line class="st1" x1="351.3" y1="597.7" x2="349.5" y2="612.8"/>
		<polyline class="st1" points="218.5,601.8 235.2,603.6 248.1,603.9 274.5,602.1 274.7,604.7 273.8,605.4 		"/>
		<polyline class="st1" points="223.5,601.9 226.4,612.9 228.5,625.2 227.5,643.4 228,649 		"/>
		<line class="st1" x1="275.3" y1="602.3" x2="275.3" y2="602.3"/>
		<polyline class="st1" points="274.7,603.5 274.2,617.4 275.7,638.3 275.3,647.4 274.9,648.4 273.1,647.1 		"/>
		<polyline class="st1" points="220.5,647.1 211.5,647.7 202.6,650.1 196,652.9 189.9,656.8 179.3,667 175.7,672.9 174.5,677.4 
			180.1,696.6 183.8,702.9 187,704.3 189.4,704.3 197,700.8 219.6,695 230.9,695.2 238.7,697.6 254,698.1 264.2,695.1 268.1,692.8 
			270.3,690.6 		"/>
		<polyline class="st1" points="278,648.5 277.1,658 277.9,677.4 276.7,682.1 272.4,689.8 269.6,692.8 265.6,696.7 259.2,699.6 		
			"/>
		<polyline class="st1" points="226.6,644.7 224.1,643.2 221,643.7 203.6,650.2 191.4,659.3 188.9,662.8 182.7,674.9 180.4,681 
			178.3,696.9 178.7,700.6 182.3,709.6 		"/>
		<polyline class="st1" points="330.7,604.5 335.4,611 337.5,628.5 341,648.1 		"/>
		<polyline class="st1" points="360.6,609.7 362.7,629.4 362.9,650.8 		"/>
		<polyline class="st1" points="331.7,644.2 322.7,643.3 320.9,644.2 316.7,648.3 312.5,654.3 303.9,663 299.7,670.5 296.5,680.3 
			300,695.4 303.9,701.8 307.9,702.3 318.1,701.4 341.8,695.2 353.5,693.5 364,694.8 371.2,696.8 373.3,696.6 374.7,692.1 		"/>
		<polyline class="st1" points="368,651 373.7,660.2 375,665.9 375.9,685.9 374.6,699.9 373.4,701.2 		"/>
		<polyline class="st1" points="321.1,645.2 322.4,645.3 324.9,648.4 329.2,650.8 331.8,651.4 331.6,650.8 		"/>
		<polyline class="st1" points="329.9,607.6 339.4,610.1 353.4,611.5 360.6,613.1 374.2,613 363.9,611.5 320.8,611.5 323.8,638.9 
			324.9,644.6 325.6,645.8 325.7,645 		"/>
		<polyline class="st1" points="373.7,614.1 374.1,649.5 374.9,654.1 374.8,650 		"/>
		<polyline class="st1" points="207.7,668.1 213.2,675.1 213.6,672.6 213.2,672.2 212.3,672.8 211.5,674.8 212.7,672.8 212.1,670.9 
			210.5,670.9 208.9,673.1 		"/>
		<polyline class="st1" points="371.1,648.3 372.3,656.5 376.7,669.8 376.5,679.4 371.9,693.5 370.2,695.9 		"/>
	</g>
</g>
<g id="_x38_8-지면">
	<g>
		<polyline class="st1" points="42,552.9 51.5,553.1 72.4,556.6 88.9,557.3 123.2,552.8 139.2,549.4 141.3,549.9 		"/>
		<polyline class="st1" points="398.9,546.3 407.7,545.9 499.3,548.9 528,542.3 535.7,539 		"/>
		<polyline class="st1" points="136.4,550.3 136,548.9 140.8,546.7 155.5,543.3 173.6,541.3 191.3,540.5 212.6,542.2 219,534.2 		
			"/>
		<polyline class="st1" points="42.4,550.3 34.1,550.8 26,553.3 13.5,555.8 9.6,555.6 		"/>
	</g>
</g>
<g id="_x38_8-우산">
	<g>
		<polyline class="st1" points="255.6,20.6 252,29.2 252.5,35.4 		"/>
		<polyline class="st1" points="252.2,34.5 229.7,37.8 210.9,43.3 181.3,57.6 164.2,69.1 156.5,76.7 149.7,85.1 140.6,99.9 
			134.4,115.5 127.6,142.6 133.8,136.9 143.7,133.1 158.6,130.7 164.5,130.8 183.9,135.1 199.6,144.6 204,148.2 205,143.8 
			206.5,141.2 211.3,136.1 224.4,131.6 236.9,129.1 249.9,127.7 256.5,127.9 278.8,131.1 286.4,135.4 290.6,140.6 291.4,136 
			292.7,133.6 297,126.4 300.2,123.6 310,120 319.1,117.7 324.4,117.1 330,117.3 340.8,119.3 355.3,124.7 360.1,127.8 362.3,130.2 
			365.6,139.2 368.4,132 371.9,127.4 376.4,123.2 380.3,120.6 382.8,119.9 396.9,119 403,119.4 431.5,126.4 442.9,130.5 
			442.1,126.3 436.6,111.3 429.9,102.6 425.2,97.9 412.9,88.5 389.1,73.4 368,61.5 351,53.9 338.6,50 299.2,39.9 280.5,36.7 
			267,36.2 260.1,34.9 254.7,22.8 250.9,19 248.4,17.6 		"/>
		<polyline class="st1" points="246.3,35.4 245.4,35 237.5,52.6 224,79.1 220.7,87.6 209.4,133.4 		"/>
		<polyline class="st1" points="261.4,38 266.7,47.4 279.2,76.3 287,92 288.8,99.1 289.4,116.9 290.5,124.1 290.8,122.9 		"/>
		<polyline class="st1" points="261.6,32.7 271.3,36.4 291.2,52.4 333.9,84.6 355.6,97.5 360.7,101.5 374.8,122.2 377.4,131.6 
			376.3,132.1 		"/>
		<polyline class="st1" points="258.7,127.2 259.1,140.2 257.2,156.1 257,166.8 257.6,187.1 261.4,232.8 262.9,263.8 264.4,268 
			266.6,269.6 269.5,269.9 272.1,268.7 274,266.1 276.2,259.5 277.7,251.5 275.8,248.2 274.8,249 272.5,257 273.6,264.3 
			271.1,266.7 267.4,263.9 264.2,254.5 264.3,225.6 261.4,191.1 261.1,170.6 257.9,122.4 		"/>
	</g>
</g>
<g id="_x38_8-비">
	<g>
		<polyline class="st1" points="210.9,14.8 203.9,21.6 201.3,28.6 		"/>
		<polyline class="st1" points="161.8,164.3 157.3,171.3 146.2,195.7 133.4,231.1 119.6,265.9 120.8,264.5 		"/>
		<polyline class="st1" points="120,339.4 118,347.8 116.2,363.4 114.3,365.8 		"/>
		<polyline class="st1" points="101.8,435.6 97.5,444.7 93.1,470.2 91,473.8 89.9,474.1 		"/>
		<polyline class="st1" points="226.7,163.9 224.1,174.2 221.4,199.8 216.9,219.6 217.8,219.7 		"/>
		<polyline class="st1" points="184.6,353.5 180.4,365 174.9,397.2 		"/>
		<polyline class="st1" points="396.2,5.8 388.7,20.4 385.2,29.1 382.4,42.8 		"/>
		<polyline class="st1" points="383.5,155.1 375,176.7 365.1,196.3 366.6,196 		"/>
		<polyline class="st1" points="398.2,444.4 391.8,455.8 389,465 386.8,475.7 387.3,475.8 		"/>
		<polyline class="st1" points="488,63.7 483.8,78.3 466,124.5 458.3,153 455.4,173.1 455.1,181.1 		"/>
		<polyline class="st1" points="462.1,284.9 449.3,333.6 445.9,351.3 445.8,347.1 		"/>
		<polyline class="st1" points="426.3,206.7 420.2,235.2 410.1,273 410.8,273.6 		"/>
		<polyline class="st1" points="477.5,356 469.7,385.2 459.9,414.7 448.8,442.6 439.7,470.8 433.4,484.4 428.4,490.7 427.3,491 
			426.4,490 		"/>
		<polyline class="st1" points="170.2,477.3 166.1,491.4 164.4,503.8 155.8,543.1 		"/>
		<polyline class="st1" points="65.1,105.7 57,132.6 49.4,168.3 37.8,233.3 38,245.3 38.5,246.6 38.7,244.8 		"/>
		<line class="st1" x1="109.1" y1="20.8" x2="91.6" y2="64.1"/>
		<polyline class="st1" points="63.9,298.8 63,308.2 57.3,339.4 58.3,347.5 59.8,349.2 		"/>
		<polyline class="st1" points="133.5,593.9 98.6,626.9 91.7,637.5 		"/>
		<polyline class="st1" points="499.8,206.1 492.2,228.1 488.2,243.4 485.2,264.8 485.2,271.2 		"/>
		<polyline class="st1" points="502.5,399.3 502.3,445.3 503.9,463.9 		"/>
		<polyline class="st1" points="470.8,510.8 471.2,524.9 469.1,543.1 		"/>
		<polyline class="st1" points="197.7,55.1 190.7,70.3 190.4,72.4 191.1,71.5 		"/>
		<polyline class="st1" points="338.5,9.4 335.6,23.8 336.2,27 338.9,30.7 		"/>
		<polyline class="st1" points="441.2,17.6 439.5,26 440,33.8 		"/>
	</g>
</g>
</svg>
