<?xml version="1.0" encoding="utf-8" ?>
<svg baseProfile="full" height="757" version="1.1" width="535" xmlns="http://www.w3.org/2000/svg" xmlns:ev="http://www.w3.org/2001/xml-events" xmlns:xlink="http://www.w3.org/1999/xlink"><defs /><rect fill="white" height="757" width="535" x="0" y="0" /><path d="M243.65 422.5 229.23 415.41 221.78 421.14 207.42 439.52 205.24 452.11M236.5 418.01 232.78 416.18 231.42 416.24M229.64 412.57 214.69 419.78 207.07 425.99 197.44 442.24 195.96 450.93 204.35 466.18M233.13 418.96 225.45 413.64 206.71 429.71 201.69 441.06 198.68 453.94 202.52 476.05 208.9 482.55 221.9 484.91M218 424.39 207.01 431.6 198.74 441.3 192.41 466.53 195.49 479.47 202.52 490.41 222.49 502.52 236.68 500.1M212.56 424.93 204 435.56 198.62 463.93 201.75 480.01 209.49 494.19 233.9 511.56 245.6 514.17 260.97 511.09M193 450.04 189.58 474.98 204.59 501.58 219.95 507.49 236.74 507.96 269.53 498.74 284.96 485.86M196.55 450.75 191.53 446.38 191.11 439.17 202.1 420.2 212.74 412.87 225.45 408.67 237.03 407.67 247.02 409.62M203.82 429.95 205.35 425.04 212.33 417.6 223.73 411.86 250.27 411.51 264.22 415.35 280.59 421.56M229.7 419.67 239.93 413.17 265.22 418.37 276.45 426.17 285.55 433.91 295.12 446.38M268 414.82 277.22 424.63 283.78 434.85 289.8 446.14 294.53 457.08 296.72 466.95 294.53 481.07 293.71 481.84M276.68 443.25 285.37 460.03 288.68 472.62 289.98 485.44 289.98 496.32 285.9 507.61M288.39 471.08 284.49 489.4 279.17 501.81 266.05 517.53 250.27 521.2M232.66 508.26 230.83 509.91 228.88 514.4 228.58 520.37M225.09 508.43 223.56 516.41 223.56 524.27 222.67 525.22M222.91 512.69 223.5 527.52 223.97 521.26M265.99 514.11 265.75 524.63 266.22 525.87 266.46 522.91M265.81 512.57 265.69 521.67 266.52 528.94 265.99 522.79 264.81 518.36 263.45 516.29 264.98 528.7M221.96 525.81 211.38 524.98 203.23 527.29 200.98 529.24 202.4 529.18M220.42 525.34 212.74 524.98 200.98 527.76 194.95 531.24 191.35 534.32 189.63 539.87 190.17 540.7M204.41 528.35 191.23 534.08 185.85 537.63 180.89 546.37 180 554.59M193.12 531.72 184.43 539.87 177.11 548.09 169.01 561.39 164.7 570.13 162.63 579.59 158.37 615.87 156.48 643.24 156.95 645.9M266.7 530.12 276.86 530.54 292.11 536.45 297.49 540.52 299.79 543.71 305.58 556.01M283.24 534.38 290.75 537.86 302.75 547.02 306.53 553.47 308.6 559.32 309.72 567.35M303.57 546.91 310.07 558.14 312.85 565.76 313.92 574.45 311.91 593.77M308.77 570.66 312.56 601.28 313.15 617.83 311.91 624.56M310.37 601.75 313.74 664.34 313.62 668.59 311.85 670.01M158.19 618.42 157.07 621.08 155.77 657.48M155.95 624.44 154.77 634.02 154.53 680.59M154.53 651.93 154.53 648.79 155.48 650.45 156.36 671.19 155.24 696.37M155.95 668.41 153.64 683.07 153.76 699.09M311.61 663.27 310.9 674.21 311.43 686.44 312.44 688.39 312.44 668 313.5 689.93 313.33 713.98M312.56 669.18 315.93 741.76 317.28 752.1 319 756.83 318.94 744.12M317.4 700.74 316.75 714.39 318.11 746.9 320.18 772.49 321.48 777.16M321.54 726.69 319.53 738.74 320.18 807.47M152.52 694.18 149.27 711.97 149.86 715.57 150.22 714.57M151.87 693 151.87 719.36 148.92 751.57 148.62 744.47 150.63 714.81 151.52 769.53 153.82 780.23M195.78 456.6 192.94 492.83 193.18 509.32 194.13 476.11M194.01 458.55 191.29 512.27 191.7 519.48 193.77 488.1 194.6 484.44 193.3 531.13 193.65 515.47 195.6 492.24 196.55 530.06 197.32 514.93 199.86 503.82 198.85 530.3 202.22 507.43 202.28 514.64 203.58 523.03 205.18 506.01 205.95 525.22 206.89 529.06 208.84 505.18 210.67 524.57 212.92 512.57 214.51 529.65 216.17 514.76 218.12 529.06 218.95 528.59 220.07 517.47 221.37 525.34 222.67 526.22 224.44 509.02 225.21 519.31 227.93 525.81M269.65 518.78 269.71 527.46 269.71 512.98 272.08 530.12 273.61 523.68 274.2 509.14 275.8 527.94 277.34 532.19 277.75 515.7 276.74 501.81 277.63 498.09 281.29 524.39 282.83 526.46 283.84 494.84 285.2 521.26 287.15 530.18 287.8 523.62 287.09 498.68 287.5 479 291.05 519.96 292.4 525.28 292.88 467.12 292.52 480.01 295.71 530.95 297.01 530.48M174.56 558.73 178.47 568.42 181.77 570.9M175.16 553.94 174.56 562.04 180.95 585.79 181.95 586.38 181.3 579.17M175.27 560.09 174.21 560.09 175.45 569.07 179.88 587.8 185.26 605.18 189.93 608.9 189.93 608.19M175.75 568.12 174.33 572.2 179.06 587.86 191.58 610.91 196.49 616.76M186.62 601.69 186.74 606.3 192.77 616.35 197.14 618.36 206.18 616.52 208.31 612.57 209.2 603.17M204.47 586.68 207.54 610.38 209.67 619.18 210.61 616.52M210.5 574.33 208.37 583.49 206 607.78 206.12 611.32 207.48 606.77 208.96 596.55M212.27 571.67 207.19 604.59 214.51 568.3 205.83 615.93 213.86 567.47 211.44 574.8 205.71 613.81 203.58 615.58M160.38 596.67 159.85 599.56 165.05 616.05 169.9 627.34 180 643.77 187.15 653.52 199.62 666.94 207.66 670.84 215.76 672.08 226.87 670.54 233.07 663.86 236.74 651.93 239.28 639.75 240.69 627.93 239.51 601.99 239.75 594.78 241.94 582.19 241.58 622.67 238.92 631.89M219.72 552.17 214.34 558.84 215.4 569.13 217.88 574.68 225.8 581.6 235.61 580.65 243.3 576.75 246.01 571.02 244.95 562.51 240.34 556.07 234.02 549.86 222.91 547.56 217.23 551.4 213.81 557.54 213.98 566.47M224.97 561.44 229.88 573.86 230.94 571.49M231.95 560.03 234.96 569.07 237.86 581.48 238.98 580.47M215.99 452.58 224.92 462.99 231.65 467.18 235.38 467.3M254.64 445.26 252.99 453.71 248.85 466.59 251.51 463.99M231.71 490.47 237.5 477.46 247.14 477.58 254.41 495.25 255.76 495.55M303.1 548.27 295.01 546.91 292.52 544.36 292.88 541.59 300.68 549.68 309.96 565.17 320.18 579.65 323.25 587.86M311.08 563.04 315.93 569.54 328.51 591.76 331.53 608.19M325.03 586.15 330.76 605.24 335.01 626.57 336.49 642.41M333.89 627.69 337.2 639.99 342.16 676.39 345.83 695.89 346.42 694.24M341.87 662.92 346.07 722.67 349.02 748.85 349.49 749.5 349.43 741.05M348.02 711.97 347.54 724.14 348.19 736.91 349.97 759.78 351.15 764.33M278.34 534.97 276.8 567.65 278.52 570.43M279.05 539.28 277.51 584.2 278.1 589.46 279.58 591.35M282 537.69 281.06 549.92 280.11 611.21 283.19 620.9 283.72 619.24M280.82 576.57 278.34 585.08 284.19 622.97 291.93 650.33 294.89 654.58M290.51 638.51 295.18 652.58 307.83 670.07 318.82 682.72 319.06 681.89M268.29 533.37 265.93 555.06 267.05 564.22M267.76 536.03 265.87 561.39 265.63 591.41 266.05 595.49 267.11 592.53M266.82 555.71 265.34 560.26 265.69 576.57 268.12 614.87 270.83 631.71M266.87 596.02 265.99 594.42 265.69 598.2 270.95 628.4 280.82 662.39 282.71 665.52M275.86 644.42 278.46 656.18 283.19 664.28 295.66 681.59 307.3 696.19 306.29 694M207.07 530.83 205 542.89 203.64 562.27 202.99 564.34 202.75 556.83 205.06 538.57 202.99 551.34 198.5 594.48 197.55 596.08 196.96 591.17 192.41 614.16M155.77 663.45 164.52 654.7 174.09 641.76 174.68 637.86 171.67 642.59 156.6 660.08M159.38 691.76 167.59 686.73 179.17 677.04 188.45 664.87 186.56 662.5 185.26 662.5 185.5 660.91 190.82 653.23 184.2 665.87 161.33 702.04" fill="none" stroke="black" stroke-width="2" /></svg>