<?xml version="1.0" encoding="utf-8" ?>
<svg baseProfile="full" height="757" version="1.1" width="535" xmlns="http://www.w3.org/2000/svg" xmlns:ev="http://www.w3.org/2001/xml-events" xmlns:xlink="http://www.w3.org/1999/xlink"><defs /><rect fill="white" height="757" width="535" x="0" y="0" /><path d="M69.5 37 68.5 32 68.5 122 70.5 125 71.5 125M162.5 86 161.5 113 163.5 126 166.5 131M450.5 28 450.5 38 447.5 51 443.5 88 442.5 107 442.5 137 441.5 150 437.5 168M74.5 310 65.5 378 65.5 402M92.5 526 91.5 527 89.5 593M449.5 349 448.5 350 438.5 423 438.5 441 440.5 448 440.5 453M478.5 571 477.5 571 475.5 630 473.5 633" fill="none" stroke="black" stroke-width="2" /></svg>