<?xml version="1.0" encoding="utf-8" ?>
<svg baseProfile="full" height="757" version="1.1" width="535" xmlns="http://www.w3.org/2000/svg" xmlns:ev="http://www.w3.org/2001/xml-events" xmlns:xlink="http://www.w3.org/1999/xlink"><defs /><rect fill="white" height="757" width="535" x="0" y="0" /><path d="M282.5 290 269.5 291 258.5 299 248.5 309 240.5 320 235.5 332 233.5 335 228.5 351 228.5 355 226.5 361 225.5 368 224.5 369 225.5 369M287.5 288 296.5 287 300.5 289 303.5 289 318.5 294 328.5 299 336.5 305 343.5 313 353.5 333 354.5 341 356.5 344 357.5 348 359.5 361 359.5 376 358.5 376M229.5 374 227.5 373 226.5 370M226.5 366 225.5 367 225.5 384 226.5 390 233.5 407 236.5 410 240.5 416 248.5 422 259.5 427 286.5 433 291.5 433 306.5 429 318.5 422 333.5 410 337.5 405 340.5 403 343.5 398 346.5 394 348.5 393 350.5 389 354.5 384 359.5 369M231.5 346 239.5 347 250.5 347 272.5 344 280.5 344 287.5 345 304.5 345 310.5 344 346.5 344 348.5 345 357.5 345 358.5 346M229.5 344 227.5 345 222.5 355 218.5 366 213.5 389 213.5 394 211.5 401 211.5 408 210.5 411 210.5 422 209.5 424 209.5 427 218.5 427 231.5 425 238.5 425 242.5 420M356.5 347 356.5 343 358.5 349 368.5 368 372.5 379 376.5 395 376.5 402 377.5 406 377.5 423 376.5 425 376.5 429 375.5 430 373.5 429 360.5 427 353.5 427 341.5 424 338.5 422 330.5 420M249.5 369 249.5 368 260.5 362 270.5 362 279.5 367M268.5 368 263.5 372 263.5 376 266.5 376 267.5 372 266.5 371 265.5 372 265.5 374 267.5 374 267.5 371 265.5 372 265.5 373 266.5 373 268.5 372 268.5 370 267.5 370 267.5 371M304.5 368 303.5 368 313.5 362 316.5 362 318.5 361 321.5 361 326.5 363 330.5 366 331.5 366 331.5 367M318.5 372 316.5 373 316.5 375 317.5 376 320.5 372 318.5 373 318.5 374 319.5 373M287.5 379 285.5 385 284.5 387 282.5 388 282.5 389 291.5 394M275.5 411 279.5 414 285.5 416 288.5 416 291.5 415 296.5 409M357.5 358 358.5 358 360.5 360 362.5 365 362.5 372 356.5 380 354.5 384M226.5 355 223.5 356 217.5 364 217.5 370 222.5 377 224.5 382M274.5 432 279.5 444 283.5 449 285.5 449M294.5 433 286.5 444 282.5 447 282.5 449M271.5 438 271.5 437 258.5 456 256.5 463 254.5 467 252.5 474 249.5 499 248.5 502 248.5 507 247.5 509M312.5 440 323.5 456 326.5 468 331.5 491 332.5 499 332.5 507 333.5 510 333.5 534 329.5 535 313.5 536 273.5 544 267.5 544 261.5 546 255.5 546 251.5 541 251.5 511 250.5 508 253.5 506 255.5 506M255.5 547 254.5 550 250.5 587 248.5 596 248.5 600 246.5 607 246.5 613 245.5 615 245.5 620 244.5 622 244.5 627 243.5 629 243.5 636 240.5 650 239.5 663 238.5 667 237.5 668 237.5 670 249.5 670 259.5 671 266.5 672 272.5 674 285.5 674 286.5 652 289.5 634 289.5 612 290.5 609 290.5 604 291.5 602 292.5 602M328.5 539 328.5 538 330.5 539 335.5 575 339.5 591 343.5 617 344.5 632 346.5 648 348.5 655 349.5 667 328.5 672 320.5 675 317.5 675 313.5 671 310.5 663 302.5 649 295.5 615 289.5 606 289.5 603 292.5 603M253.5 673 252.5 672 245.5 677 243.5 679 241.5 684 241.5 688 242.5 690 252.5 693 269.5 693 276.5 690 280.5 677M343.5 672 351.5 678 356.5 683 356.5 685 354.5 689 348.5 693 345.5 694 335.5 694 329.5 692 325.5 689 321.5 685 321.5 682 324.5 676M270.5 436 232.5 469 232.5 470 236.5 474 245.5 480 251.5 480M317.5 439 317.5 438 325.5 444 333.5 448 338.5 449 352.5 455 364.5 461 367.5 463 367.5 464 368.5 464 349.5 475 330.5 484M236.5 474 235.5 473 231.5 473 227.5 476 224.5 477 209.5 478 192.5 473 182.5 468 176.5 466 171.5 463 161.5 455 153.5 444 145.5 424 140.5 402 139.5 379 141.5 380M247.5 483 244.5 488 237.5 494 225.5 500 220.5 502 206.5 505 189.5 507 185.5 507 165.5 502 144.5 491 139.5 486 129.5 473 123.5 462 121.5 456 119.5 444 117.5 439 115.5 427 115.5 416 118.5 403 123.5 390 123.5 388 127.5 386M138.5 380 138.5 378 142.5 375 145.5 370 144.5 365 142.5 364 141.5 362 138.5 360 128.5 360 124.5 362 119.5 366 115.5 382 115.5 386 116.5 388 117.5 388 121.5 391M343.5 480 356.5 531 361.5 543 364.5 556 365.5 557 366.5 556 366.5 554M354.5 472 357.5 486 370.5 524 370.5 530 372.5 538 375.5 545 376.5 552 378.5 552 378.5 551 383.5 548 390.5 548 393.5 552 393.5 556 392.5 559 388.5 562 387.5 565 378.5 571 369.5 571 364.5 567 361.5 561 363.5 555 366.5 553" fill="none" stroke="black" stroke-width="2" /></svg>