<?xml version="1.0" encoding="utf-8" ?>
<svg baseProfile="full" height="757" version="1.1" width="535" xmlns="http://www.w3.org/2000/svg" xmlns:ev="http://www.w3.org/2001/xml-events" xmlns:xlink="http://www.w3.org/1999/xlink"><defs /><rect fill="white" height="757" width="535" x="0" y="0" /><path d="M122.5 218.73 123.5 219.73 124.5 213.73 116.5 213.73 111.5 215.73 107.5 220.73 106.5 224.73 103.5 228.73 102.5 231.73 101.5 231.73 101.5 236.73 100.5 238.73 99.5 245.73 98.5 246.73 98.5 260.73 97.5 261.73 97.5 263.73 99.5 267.73 101.5 267.73 101.5 268.73 105.5 269.73 106.5 270.73 110.5 270.73 112.5 271.73 123.5 271.73 125.5 270.73 128.5 270.73 129.5 269.73 138.5 269.73 139.5 268.73 140.5 268.73 139.5 268.73 137.5 270.73M118.5 224.73 122.5 218.73 126.5 217.73 128.5 215.73 132.5 213.73 143.5 213.73 145.5 214.73 149.5 214.73 163.5 221.73 166.5 226.73 167.5 231.73 168.5 232.73 168.5 245.73 166.5 249.73 162.5 254.73 144.5 267.73 141.5 267.73 138.5 269.73 128.5 269.73 120.5 272.73 120.5 273.73M106.5 240.73 110.5 236.73 118.5 232.73 120.5 232.73 118.5 233.73 117.5 235.73M133.5 234.73 138.5 231.73 144.5 230.73 148.5 228.73 149.5 228.73 148.5 230.73 144.5 233.73M123.5 235.73 126.5 240.73 125.5 241.73 125.5 246.73 126.5 248.73 127.5 248.73 123.5 249.73M110.5 266.73 115.5 263.73 135.5 256.73 140.5 256.73 141.5 258.73M116.5 285.73 114.5 291.73 114.5 296.73M134.5 281.73 138.5 288.73 138.5 293.73 140.5 292.73M108.5 301.73 101.5 303.73 87.5 322.73 43.5 371.73 36.5 384.73 35.5 387.73 36.5 388.73M151.5 315.73 157.5 315.73 159.5 316.73M146.5 299.73 151.5 298.73 172.5 309.73 189.5 325.73 201.5 334.73 215.5 339.73 222.5 339.73M106.5 335.73 100.5 339.73 92.5 348.73 63.5 374.73 59.5 376.73 57.5 378.73 52.5 380.73 49.5 386.73 48.5 390.73 45.5 393.73 41.5 393.73 41.5 394.73 38.5 394.73 35.5 390.73 34.5 383.73 33.5 383.73M142.5 336.73 149.5 338.73 158.5 339.73 170.5 344.73 178.5 350.73 186.5 359.73 192.5 363.73 200.5 366.73 202.5 366.73 204.5 368.73 218.5 375.73 226.5 377.73 227.5 371.73 227.5 364.73 226.5 363.73 222.5 362.73M211.5 344.73 209.5 348.73 210.5 352.73 213.5 360.73 216.5 362.73 217.5 366.73 217.5 370.73 214.5 372.73M103.5 342.73 105.5 347.73 105.5 360.73 104.5 365.73 102.5 370.73 95.5 406.73 93.5 410.73 92.5 415.73 88.5 426.73 81.5 456.73 79.5 458.73 78.5 461.73 77.5 461.73 79.5 460.73M150.5 351.73 144.5 349.73 143.5 348.73 143.5 346.73 144.5 346.73 144.5 348.73 140.5 356.73 140.5 365.73 141.5 370.73 143.5 401.73 146.5 428.73 146.5 438.73 143.5 459.73 143.5 469.73 144.5 472.73 146.5 473.73M74.5 464.73 79.5 461.73 96.5 461.73 114.5 464.73 123.5 464.73 125.5 465.73 143.5 465.73 144.5 466.73M98.5 467.73 93.5 466.73 92.5 465.73 92.5 463.73 91.5 465.73 91.5 470.73 89.5 477.73 87.5 481.73 85.5 490.73 83.5 494.73 82.5 502.73M122.5 467.73 118.5 470.73 117.5 472.73 117.5 489.73 118.5 498.73 117.5 503.73 114.5 508.73 114.5 510.73M66.5 507.73 56.5 515.73 51.5 517.73 42.5 524.73 39.5 524.73 32.5 526.73 31.5 526.73 30.5 524.73 33.5 521.73 34.5 522.73 33.5 534.73 35.5 535.73 42.5 535.73 48.5 528.73 49.5 528.73 49.5 532.73 53.5 534.73 56.5 533.73 60.5 530.73 61.5 528.73 69.5 522.73 73.5 518.73 73.5 515.73 75.5 511.73 75.5 509.73 72.5 505.73 70.5 504.73 70.5 506.73M110.5 514.73 108.5 524.73 103.5 528.73 101.5 532.73 97.5 535.73 95.5 538.73 94.5 538.73 94.5 540.73 93.5 541.73 93.5 543.73 94.5 541.73 96.5 541.73 97.5 543.73 102.5 546.73 105.5 549.73 105.5 552.73 105.5 551.73 108.5 550.73 109.5 547.73 114.5 541.73 116.5 537.73 119.5 535.73 119.5 533.73 127.5 530.73 129.5 528.73 128.5 528.73 128.5 527.73 131.5 528.73 137.5 527.73 140.5 522.73 140.5 520.73 139.5 519.73 137.5 519.73 129.5 516.73 122.5 516.73 112.5 511.73 106.5 511.73 110.5 511.73" fill="none" stroke="black" stroke-width="2" /></svg>