<?xml version="1.0" encoding="utf-8" ?>
<svg baseProfile="full" height="757" version="1.1" width="535" xmlns="http://www.w3.org/2000/svg" xmlns:ev="http://www.w3.org/2001/xml-events" xmlns:xlink="http://www.w3.org/1999/xlink"><defs /><rect fill="white" height="757" width="535" x="0" y="0" /><path d="M217.5 382 216.5 383 216.5 389 219.5 400 221.5 402 227.5 414 235.5 422 238.5 424 245.5 426 248.5 428 251.5 428 254.5 430 257.5 430 259.5 431 275.5 431 285.5 426 292.5 420 297.5 413 298.5 410 300.5 408 302.5 404 304.5 396 304.5 393 305.5 392 305.5 386 306.5 382M250.5 357 248.5 362 248.5 367 250.5 370M262.5 353 262.5 354 261.5 354 261.5 365 262.5 367M271.5 353 271.5 356 273.5 361 274.5 363 276.5 364M285.5 359 286.5 362 292.5 368 296.5 370 298.5 370M305.5 374 305.5 367 310.5 363 313.5 362 316.5 364 316.5 370 315.5 375 309.5 383M218.5 378 215.5 378 210.5 373 208.5 373 206.5 375 205.5 380 205.5 384 206.5 387 213.5 391M225.5 362 225.5 367 223.5 376 222.5 377M238.5 360 237.5 366 233.5 373M195.5 369 194.5 369 189.5 390 185.5 398 184.5 402 182.5 405 180.5 414 180.5 421 182.5 427 186.5 435 190.5 439 192.5 440 195.5 440M343.5 361 343.5 362 344.5 362 344.5 363 346.5 364 349.5 369 350.5 373 355.5 383 358.5 395 358.5 408 357.5 418 356.5 419 355.5 424 349.5 431 341.5 434M194.5 369 193.5 369 192.5 366 196.5 351 200.5 344 210.5 336 219.5 333M312.5 315 315.5 318 316.5 321 318.5 322 320.5 325 322.5 326 332.5 336 336.5 343 338.5 345 339.5 348 342.5 351 346.5 360 347.5 370 349.5 372M231.5 389 231.5 384 232.5 382 237.5 379 240.5 379 244.5 381 246.5 383 245.5 383 245.5 382 243.5 380 240.5 379 236.5 379 230.5 382 228.5 385 228.5 391M240.5 380 236.5 380 235.5 383 235.5 391 239.5 393 241.5 393 244.5 389 245.5 386 245.5 381 242.5 379 239.5 379 235.5 384 235.5 385 237.5 386 240.5 382 237.5 388 237.5 393 238.5 393 239.5 391 241.5 386 241.5 383 241.5 387 242.5 387 245.5 383 245.5 384 242.5 387 242.5 390M271.5 379 271.5 376 272.5 374 278.5 371 284.5 371 288.5 373 291.5 377 291.5 378 290.5 378 289.5 375 287.5 373 283.5 371 279.5 371 277.5 375 277.5 382 278.5 384 279.5 385 284.5 385 287.5 383 288.5 381 288.5 377 287.5 374 285.5 372 282.5 372 280.5 377 280.5 381 282.5 381 286.5 377 287.5 372 285.5 372 283.5 374 281.5 378 281.5 379 286.5 376 285.5 378M261.5 397 260.5 398 260.5 400M254.5 408 254.5 409 255.5 409 255.5 410 257.5 411 262.5 411 263.5 412 266.5 412 272.5 409 273.5 407M276.5 387 276.5 388 275.5 388 285.5 388 288.5 385 292.5 383M233.5 394 233.5 395 236.5 397 240.5 397 245.5 394 246.5 392M260.5 433 260.5 434 258.5 435 258.5 437 259.5 439 260.5 439 260.5 440 273.5 440 273.5 439M296.5 416 294.5 428 293.5 428 293.5 429 291.5 429 291.5 430 283.5 434M303.5 424 303.5 425 306.5 427 324.5 432 328.5 435 338.5 446 346.5 451 347.5 453 353.5 457M251.5 429 254.5 429 254.5 430 252.5 430 246.5 433 238.5 435 230.5 439 226.5 440 217.5 445 212.5 446 199.5 455 189.5 465 179.5 478 175.5 487 175.5 490 172.5 498 171.5 499 171.5 501 170.5 501 170.5 504 167.5 510 167.5 512 165.5 515 164.5 523 161.5 530 161.5 533 159.5 538 157.5 548 156.5 549 156.5 553 157.5 554 157.5 560 158.5 562 158.5 568 159.5 569 159.5 568M354.5 456 362.5 471 363.5 475 370.5 488 370.5 490 371.5 490 372.5 494 376.5 503 380.5 510 380.5 512 381.5 513 384.5 523 385.5 523 387.5 529 388.5 530 388.5 532 392.5 539 392.5 542 394.5 545 396.5 553M301.5 571 303.5 573 304.5 573 304.5 574 318.5 578 331.5 578 334.5 579 353.5 579 356.5 580 371.5 579 372.5 578 380.5 577 386.5 574 391.5 569 391.5 568 392.5 568 393.5 564 394.5 563 395.5 556M277.5 537 277.5 539 276.5 539 275.5 543 275.5 547 278.5 553 280.5 556 290.5 566 293.5 567M275.5 516 272.5 522 272.5 530 278.5 536 282.5 536 286.5 534 289.5 531 293.5 523 293.5 516 291.5 513 289.5 511 288.5 511 288.5 510 284.5 509 276.5 510 274.5 511 273.5 513 272.5 513 272.5 515M297.5 514 297.5 516 304.5 524 304.5 525 320.5 533 321.5 535 322.5 535 326.5 539 327.5 541M323.5 535 322.5 537 323.5 538 325.5 538 325.5 539 327.5 539 332.5 542 344.5 543 345.5 544 349.5 545 350.5 547 345.5 536 343.5 534 342.5 531 339.5 527 335.5 519 328.5 502 327.5 502 326.5 500M332.5 500 332.5 506 336.5 529 336.5 536M159.5 568 158.5 572 163.5 596 164.5 597 161.5 595 155.5 595 149.5 597 145.5 605 145.5 611 147.5 616 149.5 618 156.5 620 164.5 621 179.5 621 189.5 617 193.5 613 193.5 609 185.5 601 179.5 598 169.5 598M197.5 604 194.5 602 194.5 591 195.5 584 199.5 574 199.5 572 201.5 567 201.5 565 206.5 547 207.5 546 207.5 544 209.5 541 211.5 534 215.5 529 216.5 524 218.5 521 220.5 515 222.5 514 222.5 513M223.5 515 223.5 519 222.5 521 221.5 529 221.5 605 222.5 615 225.5 625 225.5 629 226.5 631 226.5 635 227.5 636 227.5 638 228.5 636 236.5 634 237.5 633 250.5 633 281.5 627 297.5 627 309.5 625 316.5 625 318.5 624 321.5 624 329.5 622 349.5 622M352.5 578 352.5 585 354.5 596 354.5 625M228.5 635 227.5 638 227.5 679M295.5 638 294.5 641 293.5 653 292.5 679M358.5 620 357.5 622 358.5 623 361.5 639 361.5 675 362.5 677M298.5 637 299.5 640 302.5 643 308.5 656 315.5 667 316.5 670 318.5 672 318.5 674" fill="none" stroke="black" stroke-width="2" /></svg>