<?xml version="1.0" encoding="utf-8" ?>
<svg baseProfile="full" height="757" version="1.1" width="535" xmlns="http://www.w3.org/2000/svg" xmlns:ev="http://www.w3.org/2001/xml-events" xmlns:xlink="http://www.w3.org/1999/xlink"><defs /><rect fill="white" height="757" width="535" x="0" y="0" /><path d="M379.5 662 379.5 653 380.5 651 383.5 648 391.5 643 394.5 642 405.5 642 411.5 644 414.5 644 419.5 648 421.5 652 424.5 655 428.5 657 434.5 657 436.5 656 439.5 656 452.5 651 463.5 650 465.5 649 476.5 649 486.5 653 497.5 665 503.5 676 502.5 689 508.5 701 508.5 703 509.5 704 510.5 709 511.5 710 511.5 714 507.5 724 503.5 730 493.5 734 461.5 734 449.5 739 442.5 744 438.5 748 430.5 752 421.5 752 406.5 748 394.5 740 390.5 736 385.5 727 383.5 721 383.5 712 381.5 707 376.5 701 372.5 698 366.5 696 364.5 694 361.5 693 358.5 688 356.5 680 356.5 673 359.5 665 361.5 664 365.5 659 368.5 657 371.5 657 373.5 656 375.5 653 376.5 653" fill="none" stroke="black" stroke-width="2" /></svg>