<?xml version="1.0" encoding="utf-8" ?>
<svg baseProfile="full" height="757" version="1.1" width="535" xmlns="http://www.w3.org/2000/svg" xmlns:ev="http://www.w3.org/2001/xml-events" xmlns:xlink="http://www.w3.org/1999/xlink"><defs /><rect fill="white" height="757" width="535" x="0" y="0" /><path d="M320.5 348 319.5 349 317.5 348 317.5 337 319.5 329 326.5 313 331.5 306 337.5 300 357.5 288 372.5 286 379.5 286 386.5 287 394.5 290 416.5 307 433.5 329 434.5 329 433.5 329M318.5 349 318.5 350 322.5 348 328.5 347 335.5 347 338.5 348 354.5 349 357.5 350 372.5 350 375.5 349 379.5 349 419.5 340 434.5 334 442.5 332 442.5 331 443.5 331 442.5 331M357.5 289 358.5 289 358.5 294 354.5 302 349.5 308 343.5 321 338.5 329 336.5 339 336.5 348M357.5 294 358.5 294 359.5 296 368.5 327 368.5 343M363.5 292 363.5 293 362.5 293 373.5 304 383.5 319 393.5 329 399.5 342 399.5 345M372.5 288 371.5 289 377.5 292 404.5 311 423.5 329 426.5 334 424.5 330M365.5 285 359.5 285 360.5 289 362.5 290 366.5 290 371.5 286 372.5 282 370.5 281 364.5 282 361.5 284 360.5 290 361.5 291 365.5 291 368.5 287 368.5 285 366.5 286 362.5 290 359.5 297 362.5 294 365.5 289 365.5 288 364.5 288 361.5 292M374.5 347 374.5 354 376.5 365 376.5 372 377.5 374 377.5 388 378.5 389 379.5 399 379.5 398 382.5 401 384.5 401 385.5 402 393.5 402 394.5 401 396.5 401 399.5 398 399.5 391 397.5 390 393.5 390 393.5 391 384.5 391 383.5 387 383.5 377 377.5 353 377.5 346M350.5 329 350.5 333 352.5 340" fill="none" stroke="black" stroke-width="2" /></svg>