<?xml version="1.0" encoding="utf-8" ?>
<svg baseProfile="full" height="757" version="1.1" width="535" xmlns="http://www.w3.org/2000/svg" xmlns:ev="http://www.w3.org/2001/xml-events" xmlns:xlink="http://www.w3.org/1999/xlink"><defs /><rect fill="white" height="757" width="535" x="0" y="0" /><path d="M133.5 351 129.5 352 124.5 355 118.5 364 114.5 371 111.5 379 109.5 393 109.5 403 110.5 408 114.5 414 123.5 421 133.5 424 138.5 424 142.5 422 150.5 417 157.5 410 160.5 406 164.5 397 167.5 384 167.5 380 163.5 364 161.5 361 152.5 352 137.5 350 131.5 350 130.5 351 128.5 351M119.5 365 117.5 385 111.5 427 111.5 436 115.5 380 115.5 373 112.5 397 108.5 438 109.5 433 109.5 423 112.5 379 112.5 375 112.5 379 111.5 380 111.5 388 110.5 392 110.5 406 109.5 412 109.5 442 112.5 430 113.5 416 114.5 412 115.5 393 118.5 374 114.5 410 114.5 424 113.5 427 113.5 433 114.5 433 115.5 431 116.5 424 116.5 411 118.5 373 120.5 364 120.5 369 119.5 371 118.5 382 116.5 421 118.5 401 119.5 367 121.5 352 121.5 362 119.5 376 118.5 391 118.5 404 123.5 364 126.5 352 128.5 349 128.5 360 127.5 363 127.5 371 126.5 373 126.5 383 129.5 359 131.5 349 132.5 349 132.5 374 133.5 355 135.5 349 136.5 350 136.5 359 137.5 365 138.5 364 138.5 356 139.5 351 140.5 349 141.5 350 144.5 371 145.5 373 146.5 360 148.5 355 149.5 355 153.5 371 152.5 366 152.5 360 153.5 355 154.5 354 156.5 356 160.5 383 159.5 367 160.5 363 161.5 362 163.5 365 169.5 413 170.5 416 163.5 380 163.5 372 164.5 376 170.5 421 172.5 434 172.5 430 165.5 405 162.5 389 161.5 379 161.5 391 164.5 424 166.5 432 167.5 434 167.5 431 160.5 390 159.5 377 163.5 425 165.5 436 166.5 438M134.5 423 132.5 427 131.5 438 129.5 447M145.5 419 146.5 419 147.5 421 151.5 433M133.5 445 131.5 445 130.5 446 126.5 447 118.5 447 113.5 446 105.5 441 96.5 427 90.5 405 90.5 387 93.5 372 95.5 370 97.5 366 98.5 366 99.5 364 100.5 364 104.5 360 112.5 357 119.5 357 120.5 356 122.5 356 124.5 357 124.5 358 125.5 358M126.5 455 123.5 455 119.5 457 113.5 458 104.5 456 95.5 451 85.5 438 79.5 432 76.5 425 73.5 416 71.5 405 71.5 393 72.5 392 73.5 382 79.5 366 87.5 355 88.5 355 93.5 350 98.5 347 101.5 347 106.5 345 120.5 344 124.5 346 128.5 351 128.5 353 129.5 354 129.5 359 128.5 361M153.5 432 154.5 434 159.5 436 171.5 436 183.5 433 193.5 427 197.5 419 198.5 413 198.5 397 197.5 392 196.5 388 190.5 378 183.5 370 180.5 369 168.5 361 158.5 356 151.5 351 146.5 349 134.5 348M136.5 348 136.5 349 135.5 349 136.5 345 140.5 341 144.5 339 149.5 338 159.5 338 170.5 340 179.5 344 187.5 349 199.5 362 201.5 366 205.5 371 207.5 376 211.5 392 211.5 417 209.5 429 201.5 446 195.5 452 191.5 453 176.5 453M130.5 453 130.5 454 129.5 454 129.5 455 128.5 455 126.5 457 121.5 469 121.5 471 119.5 474 119.5 477 118.5 478 118.5 481 117.5 482 117.5 498 118.5 499 120.5 507 122.5 511 125.5 514 128.5 514 128.5 515 150.5 515 153.5 514 163.5 513 169.5 511 172.5 509 187.5 503 188.5 501 189.5 497 189.5 488 188.5 481 180.5 451M128.5 513 128.5 514 127.5 514 126.5 518 126.5 536 129.5 553 134.5 562 142.5 571 148.5 573 151.5 573 154.5 572 162.5 564 164.5 560 164.5 553 163.5 552 163.5 549 162.5 548 161.5 539 161.5 542 162.5 542 162.5 544 163.5 544 167.5 552 172.5 555 174.5 555 177.5 557 181.5 558 185.5 558 193.5 552 195.5 546 195.5 533 189.5 509 187.5 503 185.5 503M157.5 567 155.5 572 155.5 577 157.5 580 164.5 583 166.5 581 168.5 577 168.5 567 166.5 563 163.5 562 160.5 563 156.5 571M186.5 562 186.5 565 187.5 566 191.5 566 196.5 562 195.5 555 192.5 554 187.5 555M131.5 434 134.5 436 140.5 436 144.5 435 149.5 431 151.5 427M126.5 388 134.5 388 136.5 387M139.5 399 138.5 399 137.5 402 137.5 408 139.5 412 141.5 412 145.5 409 145.5 402 144.5 399 143.5 397 141.5 397 141.5 398M182.5 381 183.5 384 182.5 386 182.5 389 185.5 395" fill="none" stroke="black" stroke-width="2" /></svg>