<?xml version="1.0" encoding="utf-8" ?>
<svg baseProfile="full" height="757" version="1.1" width="535" xmlns="http://www.w3.org/2000/svg" xmlns:ev="http://www.w3.org/2001/xml-events" xmlns:xlink="http://www.w3.org/1999/xlink"><defs /><rect fill="white" height="757" width="535" x="0" y="0" /><path d="M348.5 289 347.5 293 338.5 307M356.5 296 357.5 295 357.5 294 356.5 294 350.5 305 349.5 311M364.5 303 365.5 303 365.5 302 366.5 302 366.5 303 363.5 306 363.5 308 361.5 310 359.5 314M376.5 307 374.5 314 370.5 323M357.5 279 363.5 276 372.5 274 373.5 273 385.5 273 393.5 275 397.5 277 399.5 277 410.5 282 418.5 287 423.5 291 427.5 296 435.5 311 435.5 313 437.5 316 438.5 324 439.5 325 440.5 333 441.5 334 442.5 341 443.5 343 443.5 357 441.5 365 440.5 366 439.5 371 437.5 374 437.5 376 431.5 390 426.5 398 423.5 407 420.5 412 416.5 416 406.5 432 400.5 437 391.5 446 389.5 449M338.5 307 338.5 306 338.5 307 337.5 307 337.5 315 334.5 321 332.5 323 329.5 323 328.5 324 323.5 325 323.5 326 321.5 326 320.5 327 321.5 329 323.5 330 324.5 333 326.5 334 326.5 341 325.5 341 325.5 343 322.5 347 322.5 349 321.5 349 320.5 351 320.5 358 322.5 360 323.5 363 326.5 366 326.5 367 327.5 367 327.5 368 329.5 370 330.5 370 330.5 371 336.5 372 337.5 373 341.5 373 342.5 374 344.5 374 345.5 375 347.5 375 351.5 377 358.5 378 359.5 379 361.5 379 362.5 380 364.5 380 367.5 382 371.5 383 371.5 385 370.5 385 370.5 386 368.5 387 367.5 390 366.5 390 366.5 391 364.5 393 363.5 393 363.5 394 359.5 396M380.5 387 380.5 388 379.5 388 374.5 393 374.5 395 372.5 399M341.5 309 340.5 307 346.5 307 354.5 311 357.5 314 358.5 317 358.5 320 357.5 320M349.5 312 349.5 311 350.5 311 349.5 311M347.5 310 345.5 310 341.5 313 340.5 319 345.5 322 350.5 322 354.5 320 355.5 316 352.5 313 348.5 312 347.5 311 341.5 311 339.5 312 338.5 315 339.5 319 344.5 322 351.5 322 353.5 318 353.5 315 350.5 311 345.5 311 343.5 312 342.5 313 341.5 318 344.5 322 350.5 322 352.5 321 353.5 319 353.5 315 352.5 313 347.5 313 345.5 316 345.5 319 348.5 319 348.5 318 350.5 316 350.5 314M325.5 348 325.5 349 339.5 349 339.5 350 337.5 352 335.5 352 331.5 355 324.5 356M405.5 328 403.5 328 403.5 330 401.5 334 397.5 350 398.5 350 402.5 355 404.5 355 405.5 356 412.5 356 415.5 359 415.5 362 406.5 368 403.5 368 401.5 369 396.5 368 394.5 371 394.5 373 393.5 373 393.5 375 389.5 382 387.5 388 386.5 390 385.5 390M367.5 284 365.5 285 358.5 302 357.5 306 357.5 312M375.5 292 374.5 299 369.5 312 367.5 320 367.5 323M385.5 299 383.5 305 382.5 306 379.5 318 379.5 325 381.5 325M399.5 305 398.5 303 397.5 303 395.5 307 392.5 314 390.5 323 388.5 328M404.5 309 402.5 308 400.5 310 392.5 332M426.5 381 425.5 384 418.5 394 410.5 410 403.5 419 393.5 427M411.5 382 410.5 389 408.5 395 399.5 413 387.5 429 381.5 432M393.5 390 388.5 405 385.5 411 376.5 426 370.5 433M360.5 437 361.5 438 361.5 445 360.5 447 360.5 454 359.5 455 359.5 458 358.5 459 358.5 466 357.5 468 357.5 473 356.5 476 356.5 480 355.5 482 355.5 488 354.5 492 354.5 514 353.5 516 353.5 519M338.5 436 339.5 436 339.5 442 334.5 462 333.5 476 327.5 489 327.5 491 325.5 496 325.5 501 322.5 509 320.5 511 316.5 519 313.5 522 312.5 522 321.5 522 323.5 523 342.5 523M376.5 408 377.5 408 378.5 410 385.5 438 386.5 445 386.5 454 388.5 464 388.5 468 393.5 487 393.5 492 396.5 504 397.5 523 398.5 528 398.5 556 397.5 564 395.5 570 395.5 576 394.5 578M358.5 398 358.5 395 358.5 401 359.5 401 360.5 404 362.5 406 372.5 410 375.5 410 377.5 411M350.5 394 350.5 393 349.5 393 349.5 394 338.5 405 335.5 406 335.5 407 329.5 410 326.5 410 326.5 409 317.5 408 317.5 407 316.5 407 316.5 406 315.5 406 315.5 405 314.5 405 313.5 403 312.5 403 312.5 402 310.5 401 310.5 400 307.5 397 307.5 396 304.5 393 303.5 393 302.5 391 301.5 391 300.5 386 299.5 386 299.5 384 298.5 384 297.5 381 296.5 381 296.5 382 291.5 382 287.5 384 285.5 386 281.5 387 275.5 387 276.5 387 276.5 389M274.5 390 274.5 394 277.5 399 280.5 402 280.5 404 283.5 408 283.5 410 285.5 412 290.5 422 290.5 425 291.5 427 295.5 432 300.5 436 300.5 437M306.5 435 306.5 436 302.5 440 297.5 447 289.5 463 285.5 473 277.5 502 275.5 506 273.5 518 266.5 535 265.5 539 265.5 544 266.5 545M266.5 539 266.5 541 267.5 541 267.5 545 264.5 557 264.5 572 268.5 588 269.5 588 269.5 586 275.5 586 282.5 588 286.5 588 287.5 589 293.5 589 295.5 590 308.5 592 324.5 594 330.5 594 331.5 595 339.5 595 341.5 596 366.5 596 370.5 595 381.5 595 385.5 596 386.5 597 388.5 597 388.5 595M351.5 521 353.5 520 354.5 524 356.5 527 356.5 531 353.5 530 349.5 526 349.5 525 348.5 525 348.5 524 350.5 527 350.5 531 351.5 533 350.5 539 346.5 539 345.5 538 344.5 536 344.5 531 343.5 531 343.5 534 342.5 534 341.5 538 337.5 539 335.5 535 335.5 526 334.5 531 332.5 535 331.5 535 331.5 536 330.5 536 330.5 534 329.5 533 329.5 530 330.5 529 330.5 527 331.5 527 331.5 529 329.5 532 327.5 533 324.5 533 322.5 529 322.5 525 323.5 524M341.5 594 343.5 595 344.5 602 340.5 630 340.5 639 339.5 641M319.5 592 320.5 593 321.5 617 323.5 631 323.5 636M295.5 588 296.5 586 296.5 588 293.5 593 292.5 597 284.5 610 285.5 610M310.5 595 310.5 599 307.5 604 298.5 614 293.5 621 292.5 624 290.5 626 289.5 631M296.5 628 298.5 626 298.5 625 292.5 619 286.5 611 280.5 606 278.5 605 274.5 605 273.5 604 271.5 604 271.5 606 270.5 606 270.5 607 269.5 607 262.5 614 257.5 621 245.5 632 242.5 639 239.5 639 239.5 638 238.5 638 238.5 636 237.5 636 237.5 635 231.5 630 222.5 627 219.5 627 219.5 637 222.5 645 228.5 651 230.5 651 234.5 656 235.5 656 244.5 668 249.5 668 250.5 667 255.5 666 261.5 663 280.5 647 286.5 643 288.5 643M347.5 632 333.5 632 323.5 631 317.5 632 316.5 633 312.5 634 311.5 635 311.5 648 310.5 650 310.5 654 308.5 661 308.5 668 307.5 672 301.5 673 291.5 677 290.5 679 283.5 686 283.5 689 289.5 692 292.5 692 294.5 693 316.5 693 319.5 692 330.5 692 336.5 691 337.5 689 335.5 689M349.5 631 350.5 632 350.5 637 348.5 644 346.5 665 345.5 669 345.5 687 344.5 687M294.5 372 296.5 372 296.5 368 295.5 367 295.5 365 293.5 361 291.5 361 290.5 365 289.5 365 289.5 366M267.5 386 266.5 386 266.5 385 263.5 381 263.5 379 262.5 379 262.5 375 261.5 374 261.5 367 264.5 360 266.5 358 270.5 358 270.5 359 271.5 359M272.5 356 273.5 356 273.5 366M285.5 359 286.5 359 286.5 367 285.5 368M273.5 356 273.5 357 273.5 356 279.5 356" fill="none" stroke="black" stroke-width="2" /></svg>