<?xml version="1.0" encoding="utf-8" ?>
<svg baseProfile="full" height="757" version="1.1" width="535" xmlns="http://www.w3.org/2000/svg" xmlns:ev="http://www.w3.org/2001/xml-events" xmlns:xlink="http://www.w3.org/1999/xlink"><defs /><rect fill="white" height="757" width="535" x="0" y="0" /><path d="M102 70.48 101 79.48 99 86.48 97 87.48 97 89.48M154 90.48 156 94.48 156 101.48 154 111.48 153 112.48M71 163.48 71 172.48 70 174.48 70 179.48M46 53.48 45 53.48 44 55.48 42 56.48 36 68.48 35 68.48M307 39.48 311 39.48 311 42.48 313 48.48 313 57.48M254 128.48 255 130.48 255 146.48M169 167.48 169 179.48 168 180.48 168 183.48 167 183.48 167 184.48M60 265.48 59 270.48 56 275.48 55 279.48 55 285.48M18 207.48 20 210.48 20 221.48 19 229.48 18 229.48M112 351.48 112 360.48 110 363.48 109 369.48M158 405.48 158 414.48 159 416.48 159 421.48M57 399.48 56 402.48 53 404.48 52 406.48 51 418.48 50 418.48M111 450.48 109 458.48 109 468.48M39 497.48 37 501.48 37 506.48 36 512.48 35 513.48M411 141.48 411 151.48 412 157.48M367 147.48 367 158.48 365 162.48 365 164.48M447 38.48 448 38.48 451 47.48 451 55.48M388 50.48 387 51.48 387 55.48 384 67.48M510 46.48 512 47.48 517 56.48 519 65.48M345 225.48 345 237.48 344 243.48M476 230.48 478 230.48 480 236.48 481 245.48M379 287.48 379 300.48 380 300.48 380 301.48M476 302.48 476 311.48 478 329.48M456 368.48 458 368.48 459 373.48 459 383.48M518 393.48 520 397.48 520 416.48M421 507.48 421 515.48 422 521.48M393 602.48 392 602.48 388 607.48 387 609.48 387 612.48M68 572.48 67 572.48 67 576.48 70 582.48 70 584.48M500 608.48 501 609.48 502 619.48M36 681.48 36 690.48 37 691.48M142 666.48 143 666.48 143 671.48M93 710.48 93 726.48 92 726.48M100 711.48 101 711.48 101 723.48M22 723.48 23 723.48 23 733.48M191 702.48 190 702.48 190 713.48 189 713.48M275 695.48 276 695.48 276 704.48M287 695.48 288 697.48 288 705.48M251 735.48 252 738.48 252 742.48 253 744.48M376 655.48 377 655.48 377 667.48M455 667.48 455 673.48 454 676.48M390 713.48 391 713.48 394 721.48M493 700.48 494 700.48 494 707.48 493 709.48M508 700.48 507 701.48 506 705.48 504 706.48 504 709.48M442 738.48 441 739.48 441 745.48 442 748.48M463 611.48 463 616.48 465 623.48M479 551.48 479 564.48 480 565.48M487 549.48 486 565.48 485 567.48M97 500.48 98 502.48 98 506.48 99 509.48M17 610.48 18 613.48 18 620.48M27 606.48 28 608.48 28 612.48M314 730.48 314 737.48 313 740.48M319 731.48 320 731.48 320 739.48M347 447.48 347 454.48 350 465.48M50 459.48 50 467.48 49 469.48M90 542.48 91 542.48 91 546.48M172 519.48 173 519.48 173 526.48M186 463.48 186 465.48 184 469.48 184 473.48M155 734.48 156 738.48 156 745.48M335 542.48 336 542.48 336 548.48M527 730.48 528 731.48 529 738.48" fill="none" stroke="black" stroke-width="2" /></svg>