<?xml version="1.0" encoding="utf-8" ?>
<svg baseProfile="full" height="757" version="1.1" width="535" xmlns="http://www.w3.org/2000/svg" xmlns:ev="http://www.w3.org/2001/xml-events" xmlns:xlink="http://www.w3.org/1999/xlink"><defs /><rect fill="white" height="757" width="535" x="0" y="0" /><path d="M164 564.48 164 561.48 162 559.48 160 554.48 158 552.48 150 539.48 148 538.48 147 536.48 145 536.48 143 534.48 133 534.48 130 538.48 130 543.48 131 543.48 132 545.48 135 546.48 135 547.48 140 547.48 142 548.48 142 549.48 146 549.48 150 551.48 152 553.48 156 555.48 157 557.48 160 558.48 160 559.48 161 559.48 162 561.48M152 576.48 151 576.48 146 572.48 141 570.48 139 568.48 136 567.48 134 565.48 120 565.48 120 566.48 117 566.48 113 570.48 111 571.48 109 575.48 109 580.48 112 580.48 113 581.48 124 581.48 128 579.48 128 577.48 132 576.48 133 575.48 148 575.48 148 576.48 149 576.48M336 580.48 336 578.48 341 573.48 342 573.48 343 571.48 346 570.48 348 567.48 350 567.48 352 565.48 355 564.48 355 562.48 364 562.48 366 564.48 366 566.48 367 566.48 368 569.48 369 569.48 369 574.48 367 574.48 365 576.48 361 577.48 350 577.48 350 576.48 340 576.48 339 577.48 337 577.48 336 579.48M189 556.48 185 555.48 182 553.48 175 552.48 174 551.48 162 551.48 161 552.48M153 555.48 144 555.48 144 556.48 141 557.48 141 558.48 140 558.48 139 560.48 137 561.48 137 562.48 135 562.48 135 563.48M124 579.48 124 580.48 120 582.48 120 584.48 118 585.48 116 593.48 114 594.48 114 607.48 115 608.48 115 611.48 119 616.48 121 620.48 125 622.48 130 626.48 132 626.48 137 628.48 146 628.48 147 629.48 149 629.48 171 637.48 175 640.48 176 640.48 177 642.48 178 642.48 180 646.48 183 648.48 184 650.48 193 658.48 199 660.48 200 662.48 204 664.48 207 664.48 219 668.48 252 676.48 296 676.48 309 672.48 312 672.48 332 661.48 341 654.48 343 650.48 343 648.48 345 646.48 347 641.48 348 624.48 347 623.48 346 617.48 344 616.48 341 610.48 339 609.48 339 608.48 338 608.48 338 607.48 336 605.48 327 598.48 325 598.48 324 596.48 321 595.48 321 594.48 318 594.48 318 593.48M254 568.48 256 568.48 249 562.48 240 562.48 239 561.48 234 561.48 233 560.48 230 560.48 230 559.48" fill="none" stroke="black" stroke-width="2" /></svg>