<?xml version="1.0" encoding="utf-8" ?>
<svg baseProfile="full" height="757" version="1.1" width="535" xmlns="http://www.w3.org/2000/svg" xmlns:ev="http://www.w3.org/2001/xml-events" xmlns:xlink="http://www.w3.org/1999/xlink"><defs /><rect fill="white" height="757" width="535" x="0" y="0" /><path d="M249 265.48 243 265.48 238 267.48 238 268.48 231 278.48 224 286.48 221 292.48 221 296.48 219 303.48 219 323.48 220 326.48 228 337.48 233 342.48 237 345.48 242 347.48 244 349.48 250 350.48 267 350.48 279 346.48 294 334.48 301 330.48 305 326.48 312 312.48 312 292.48 305 281.48 303 279.48 302 279.48 298 274.48 292 272.48 291 270.48 289 269.48 286 268.48 244 268.48M242 267.48 238 267.48 236 269.48 235 269.48 234 271.48 234 274.48 233 275.48 233 278.48 231 282.48 231 286.48 230 289.48 231 289.48 239 279.48 240 279.48 240 278.48 242 278.48 243 280.48 244 288.48 251 285.48 254 282.48 261 278.48 262 279.48 262 282.48 265 291.48 266 291.48 267 289.48 269 288.48 273 284.48 276 283.48 279 280.48 282 280.48 282 288.48 283 289.48 287 287.48 288 284.48 291 283.48 292 281.48 293 281.48 294 282.48 294 286.48 295 286.48 296 288.48 296 292.48 297 292.48 300 285.48 302 284.48 302 283.48 304 283.48 304 286.48 306 289.48 306 292.48 307 289.48 308 289.48 309 286.48 310 286.48 310 284.48M269 252.48 250 252.48 246 254.48 240 255.48 239 257.48 232 258.48 231 259.48 228 259.48 227 261.48 222 263.48 221 265.48 218 266.48 216 271.48 212 276.48 211 281.48 208 284.48 207 292.48 205 296.48 205 302.48 204 303.48 204 315.48 203 316.48 203 338.48 204 338.48 204 339.48 207 342.48 208 345.48 210 346.48 214 353.48 215 353.48 215 354.48 216 354.48 217 356.48 219 356.48 219 357.48 223 358.48 224 360.48 227 360.48 227 361.48 231 363.48 232 365.48 233 365.48 216 365.48 215 366.48 215 374.48 216 375.48 216 377.48 232 377.48 232 376.48 234 375.48 234 374.48 235 374.48 236 368.48M236 365.48 238 364.48 245 363.48 249 361.48 256 361.48 260 364.48 260 366.48 262 370.48 262 376.48 258 378.48 248 378.48 246 377.48 242 373.48 242 372.48 239 369.48 238 369.48 238 368.48 236 368.48 236 384.48 235 385.48 235 387.48 234 387.48 234 392.48M237 370.48 240 374.48 241 377.48 245 381.48 246 385.48 248 386.48 248 391.48 249 392.48M270 253.48 285 253.48 288 255.48 292 255.48 297 259.48 300 260.48 307 266.48 310 267.48 317 273.48 318 273.48 319 275.48 322 276.48 323 278.48 325 279.48 327 284.48 330 288.48 333 294.48 333 312.48 331 317.48 331 319.48 328 324.48 328 326.48 325 329.48 324 332.48 322 333.48 319 337.48 318 340.48 316 341.48 314 344.48 310 347.48 305 350.48 303 350.48 302 352.48 296 354.48 290 358.48 287 358.48 286 359.48 278 359.48 275 361.48 267 362.48 266 363.48 263 363.48 262 364.48 259 364.48 257 365.48 253 365.48M245 300.48 245 303.48 244 304.48 243 310.48M281 303.48 279 308.48 277 310.48 275 314.48M257 311.48 256 311.48 254 314.48 253 314.48 252 316.48 251 316.48M235 319.48 236 327.48 240 332.48 244 332.48 250 334.48 259 334.48 263 332.48 263 331.48 266 330.48 266 328.48M305 348.48 326 348.48 328 347.48 336 347.48 339 345.48 353 342.48 356 342.48 364 339.48 372 339.48 375 355.48 375 377.48 373 378.48 372 380.48 369 380.48 368 382.48 365 382.48 363 384.48 356 387.48 346 389.48 340 389.48 338 390.48 310 390.48 310 395.48 318 427.48 318 439.48 322 456.48 322 472.48 323 475.48 323 503.48 324 505.48 325 517.48 324 518.48 321 518.48 319 519.48 244 519.48 238 518.48 229 515.48 226 515.48 222 513.48 219 513.48 215 511.48 211 511.48 211 510.48 209 510.48 203 507.48 201 507.48 199 505.48 196 505.48 192 502.48 188 501.48 188 498.48 193 491.48 194 486.48 198 478.48 202 465.48 203 453.48 206 442.48 207 430.48 208 427.48 208 412.48 209 411.48 209 388.48 205 386.48 193 383.48 191 381.48 190 381.48 190 380.48 187 379.48 185 377.48 181 375.48 176 370.48 170 366.48 163 356.48 160 353.48 156 345.48 154 343.48 152 339.48 149 336.48 149 331.48 159 317.48 159 314.48 162 308.48 163 308.48 164 305.48 168 307.48 171 310.48 175 311.48 180 315.48 188 316.48 189 318.48 193 318.48 197 319.48 198 320.48 200 320.48M234 506.48 235 507.48 241 507.48M208 511.48 207 512.48 207 528.48 209 528.48 215 531.48 232 531.48 235 525.48 236 517.48M204 524.48 204 523.48 197 523.48 196 531.48 194 537.48 194 543.48 192 548.48 192 552.48 189 560.48 189 568.48 188 569.48 188 572.48 187 574.48 186 574.48 186 577.48 182 577.48 169 580.48 168 581.48 168 591.48 169 593.48 170 593.48 174 597.48 180 600.48 184 600.48 192 602.48 210 602.48 211 601.48 216 600.48 220 598.48 220 595.48 223 589.48 224 583.48 226 581.48 227 577.48 228 577.48 228 573.48 231 567.48 232 559.48 235 554.48 235 551.48 236 550.48 237 544.48 239 541.48 239 538.48 242 534.48 242 532.48 240 531.48 240 530.48 238 530.48 238 529.48 235 529.48 234 527.48M195 532.48 197 536.48 200 537.48 202 539.48 212 542.48 240 542.48 240 543.48 239 543.48 237 548.48 236 548.48 234 550.48 234 551.48 230 551.48 225 553.48 202 553.48 200 551.48 195 551.48 192 549.48M272 519.48 271 520.48 271 534.48 272 534.48 272 535.48 274 535.48 274 536.48 277 536.48 277 537.48 291 537.48 292 536.48 294 536.48 298 534.48 298 526.48 299 526.48 299 520.48M270 531.48 262 531.48 261 533.48 260 533.48 260 538.48 262 539.48 262 540.48 264 542.48 267 542.48 267 543.48 271 543.48 272 544.48 279 544.48 280 545.48 305 545.48 305 544.48 307 543.48 307 536.48 306 536.48 306 532.48 298 528.48M258 538.48 258 552.48 257 554.48 257 563.48 256 565.48 256 576.48 255 577.48 255 584.48 254 586.48 254 589.48 252 592.48 252 597.48 253 597.48 255 602.48 256 602.48 256 603.48 257 603.48 263 608.48 270 611.48 276 611.48 279 612.48 306 612.48 311 609.48 317 608.48 317 607.48 319 606.48 319 594.48 312 588.48 311 588.48 311 587.48 309 587.48 306 584.48 304 584.48 304 583.48 303 583.48 303 558.48 304 557.48 304 553.48 306 549.48 306 542.48M301 560.48 293 560.48 292 561.48 275 561.48 273 559.48 272 559.48 270 557.48 270 556.48 265 555.48 265 554.48 264 554.48 264 553.48 263 553.48 262 551.48 261 551.48 259 549.48 258 549.48 258 558.48 265 564.48 271 567.48 273 569.48 276 569.48 277 570.48 291 570.48 292 568.48 296 568.48 301 564.48 303 564.48M374 343.48 381 343.48 383 342.48 386 342.48 389 340.48 395 339.48 395 326.48 396 324.48 398 323.48 400 323.48 400 334.48 400 332.48 401 332.48 402 329.48 403 329.48 403 328.48 406 326.48 407 324.48 411 323.48 412 322.48 414 322.48 414 331.48 410 336.48 411 336.48 412 334.48 414 334.48 415 332.48 416 332.48 416 331.48 422 331.48 422 336.48 417 341.48 416 341.48 416 342.48 413 342.48 413 343.48 411 343.48 420 343.48 420 345.48 421 345.48 423 347.48 423 351.48 420 351.48 417 353.48 410 353.48 411 353.48 411 354.48 413 355.48 413 362.48 409 363.48 401 363.48 401 362.48 399 360.48 399 358.48 397 356.48 397 355.48 396 355.48 396 352.48 395 350.48 393 349.48 388 349.48 387 350.48 383 350.48 381 351.48 375 351.48M162 304.48 162 302.48 159 298.48 158 292.48 157 292.48 157 290.48 154 284.48 152 283.48 152 278.48 154 274.48 154 270.48 155 268.48 154 266.48 147 266.48 146 270.48 145 270.48 145 271.48 142 271.48 141 268.48 140 268.48 135 263.48 133 262.48 133 260.48 132 260.48 131 258.48 127 258.48 127 263.48 128 264.48 128 266.48 129 266.48 131 270.48 132 270.48 128 270.48 126 268.48 124 268.48 123 267.48 119 267.48 119 271.48 121 271.48 121 272.48 127 275.48 117 275.48 117 282.48 126 282.48 131 283.48 126 283.48 126 284.48 124 284.48 122 286.48 122 287.48 121 287.48 121 288.48 122 288.48 123 290.48 136 290.48 137 292.48 138 292.48 139 295.48 141 296.48 143 301.48 145 302.48 145 303.48 146 303.48 146 305.48 149 308.48 149 310.48 150 311.48 150 315.48 151 315.48 151 317.48 152 319.48 153 319.48" fill="none" stroke="black" stroke-width="2" /></svg>