<?xml version="1.0" encoding="utf-8" ?>
<svg baseProfile="full" height="757" version="1.1" width="535" xmlns="http://www.w3.org/2000/svg" xmlns:ev="http://www.w3.org/2001/xml-events" xmlns:xlink="http://www.w3.org/1999/xlink"><defs /><rect fill="white" height="757" width="535" x="0" y="0" /><path d="M208.5 372 207.5 368 207.5 324 206.5 323 206.5 275M217.5 271 218.5 271 218.5 331 217.5 333 217.5 345 216.5 347 216.5 372M208.5 394 208.5 396 207.5 397 208.5 429 207.5 429 206.5 432 205.5 432 204.5 434 200.5 435 199.5 436 195.5 436 189.5 433 188.5 431 187.5 431 185.5 429 185.5 428 184.5 428 184.5 426 183.5 426 183.5 422 182.5 421 182.5 418 181.5 418 180.5 414 178.5 413 175.5 413 175.5 412 172.5 412 170.5 416 169.5 416 169.5 425 170.5 425 171.5 430 172.5 430 173.5 434 174.5 434 175.5 437 177.5 439 177.5 440 179.5 441 181.5 445 191.5 450 198.5 450 199.5 449 204.5 448 204.5 447 207.5 446 207.5 445 211.5 443 212.5 441 214.5 440 214.5 438 215.5 438 216.5 433 217.5 433 217.5 429 218.5 429 218.5 403 217.5 402 217.5 394 216.5 393M208.5 141 200.5 141 199.5 142 192.5 142 190.5 143 179.5 144 169.5 147 145.5 151 144.5 152 142.5 152 141.5 153 139.5 153 124.5 158 118.5 161 109.5 164 109.5 165 105.5 166 103.5 168 89.5 176 84.5 180 71.5 194 71.5 195 66.5 200 64.5 204 63.5 204 56.5 215 56.5 216 54.5 217 47.5 231 45.5 233 44.5 237 40.5 244 40.5 246 39.5 246 36.5 254 36.5 257M212.5 141 210.5 142 227.5 142 229.5 143 242.5 143 245.5 144 251.5 144 253.5 145 262.5 145 263.5 146 282.5 149 287.5 151 303.5 155 304.5 156 324.5 163 329.5 166 331.5 166 334.5 168 340.5 170 344.5 172 346.5 174 349.5 175 351.5 177 354.5 178 361.5 185 361.5 186 363.5 187 369.5 193 373.5 200 375.5 201 380.5 207 383.5 213 387.5 217 387.5 218 389.5 219 391.5 224 392.5 224 392.5 226 394.5 227 394.5 229 399.5 239 399.5 241 400.5 241 400.5 247 401.5 248 401.5 255 402.5 257M35.5 260 35.5 261 37.5 259 40.5 258 40.5 257 54.5 250 58.5 250 60.5 249 72.5 249 73.5 250 76.5 250 83.5 256 84.5 256 95.5 267 95.5 268 96.5 268 96.5 269 98.5 263 101.5 261 102.5 259 118.5 250 133.5 245 146.5 245 159.5 249 170.5 256 170.5 257 174.5 260 175.5 260 175.5 261 177.5 262 178.5 264 179.5 264 179.5 260 181.5 257 188.5 251 194.5 248 202.5 246 220.5 246 232.5 249 233.5 250 237.5 251 244.5 255 246.5 257 246.5 258 247.5 258 249.5 262 251.5 263 252.5 257 256.5 253 258.5 252 258.5 251 259.5 251 261.5 249 263.5 249 267.5 246 279.5 244 280.5 243 298.5 243 300.5 244 300.5 245 311.5 254 312.5 254 313.5 256 314.5 256 317.5 259 317.5 256 318.5 254 329.5 245 339.5 240 343.5 239 352.5 239 353.5 240 369.5 242 370.5 243 372.5 243 378.5 246 385.5 251 388.5 252 389.5 254 392.5 255 395.5 258 396.5 258 396.5 259 397.5 259 398.5 261 399.5 261 399.5 257M218.5 245 217.5 246 217.5 260 218.5 261 218.5 271 219.5 273M206.5 141 206.5 125 207.5 125 207.5 122 208.5 122 208.5 120 211.5 120 213.5 121 213.5 122 214.5 122 214.5 125 215.5 126 215.5 142M96.5 266 95.5 268 95.5 259 96.5 253 98.5 249 99.5 242 101.5 239 103.5 231 104.5 230 107.5 222 113.5 212 126.5 195 134.5 186 148.5 173 171.5 158 182.5 152 187.5 150 189.5 150 190.5 149 192.5 149 193.5 148 195.5 148 196.5 147 198.5 147 199.5 146 202.5 146 203.5 145 208.5 144 208.5 143 213.5 143 207.5 146 200.5 152 191.5 169 188.5 180 187.5 192 184.5 202 184.5 208 183.5 209 183.5 222 182.5 224 182.5 234 181.5 236 181.5 258M214.5 141 215.5 141 220.5 153 223.5 157 227.5 167 230.5 172 235.5 185 237.5 197 241.5 208 242.5 214 244.5 219 245.5 227 247.5 232 247.5 236 248.5 237 249.5 243 249.5 249 251.5 257M214.5 144 214.5 145 213.5 145 214.5 143 223.5 144 226.5 146 228.5 146 239.5 151 247.5 156 253.5 158 256.5 161 260.5 163 260.5 164 263.5 167 273.5 172 274.5 174 278.5 178 280.5 179 281.5 181 282.5 181 283.5 184 288.5 188 288.5 189 291.5 192 295.5 198 298.5 203 298.5 205 307.5 219 308.5 223 310.5 226 313.5 234 314.5 238 314.5 243 315.5 244 315.5 250 316.5 251 316.5 255" fill="none" stroke="black" stroke-width="2" /></svg>