<?xml version="1.0" encoding="utf-8" ?>
<svg baseProfile="full" height="757" version="1.1" width="535" xmlns="http://www.w3.org/2000/svg" xmlns:ev="http://www.w3.org/2001/xml-events" xmlns:xlink="http://www.w3.org/1999/xlink"><defs /><rect fill="white" height="757" width="535" x="0" y="0" /><path d="M340 134 337 134 322 146 320 153 318 165 318 177 319 185 322 191 327 196 335 201 350 203 362 201 366 198 374 187 376 180 378 168 378 162 375 149 369 139 365 137 355 135 350 133 343 133 341 135M324 174 323 176 324 171 328 169 328 168 329 169 334 170M348 163 349 165 352 166 360 166 364 164 366 160 367 160M343 191 342 191 343 185 347 180 353 179 358 184 359 184 360 186M362 126 360 126 359 128 358 131 358 136 360 136 364 132 365 130 365 124 363 123 361 124 360 127 359 127 359 132 362 132 364 130 364 127 365 125 363 124 360 128 360 129 361 130 364 129M337 134 333 135 330 142 328 151 328 158 330 163 332 163M340 135 338 136 336 143 336 153 338 154 341 154M348 134 347 137 347 147 350 152M367 130 367 128 373 123 376 123 379 121 383 120 388 120 401 132 409 141 411 148 413 164 418 174 422 188 423 196 423 219 422 222 421 222M373 132 380 132 387 139 391 145 401 156 402 160 404 163 407 174 408 175 413 188 415 197 415 213 414 213 413 205M371 131 376 131 379 132 388 146 397 156 401 165 403 172 404 181 406 189 406 206 405 215 405 222 406 221M351 204 351 216 352 216M341 211 341 210 336 210 335 211 333 211 333 218 334 220 340 223 342 225 344 225 345 226 349 226 355 224 358 222 360 217 360 208 353 210M330 212 328 211 326 212 323 212 317 220 317 222 313 228 308 248 307 254 307 262 306 265 306 272 305 274 305 290 307 290 308 288M306 287 307 289 313 289 319 291 321 257 322 256 323 251 323 253 324 252 326 252 327 253M361 210 361 209 364 207 374 207 377 209 379 209 382 214 385 217 390 228 390 232 391 233 391 243 392 246 392 268 393 270 393 280 394 281 394 285 394 284 382 284 382 279 381 278 381 272 380 270 380 262 378 252 376 247 376 245 374 242 373 237 371 235 368 229M328 238 326 238 326 244 325 247 325 259 324 263 324 281 325 286 325 303 326 306 327 318 330 332 332 334M368 231 370 244 372 248 374 257 376 260 379 271 379 318M332 327 330 329 331 330 338 330 346 328 351 328 365 324 368 322 372 322 373 325M339 329 338 330 338 336 337 339 339 351 339 359 338 359 338 360 337 360 337 361 335 362 331 367 331 370 333 372 338 372 342 370 342 369 348 369 353 367 355 367 355 353 354 349 354 344 353 342 353 333 352 332 353 331M367 322 368 332 370 338 370 343 371 347 372 348 372 353 370 355 367 355 367 356 365 357 365 362 366 363 374 363 384 357 387 356 388 354 388 349 386 345 386 341 384 333 384 328 382 323 382 321M311 289 310 289 310 288 306 288 306 289 304 290 304 291 303 291 303 301 305 305 311 305 312 304 315 304 319 296 319 289M311 292 309 292 309 296 312 302 314 303M313 293 313 301 315 302M393 285 393 286 399 291 400 293 400 299 390 306 385 306 381 303 379 298 379 287M384 296 384 301 385 305 386 306 387 305M389 297 390 297 390 304 391 304M324 220 324 226 325 227M336 256 334 263 335 269M335 295 335 299 339 314M341 318 341 320 342 322 343 322M354 301 354 306 356 307M354 255 352 256 352 260 353 262M373 211 372 212 372 217 373 219 376 220M378 221 379 222 381 230 381 234M378 254 378 255 381 257 382 259M353 227 350 228 350 242 352 247M358 263 356 264 354 267 354 271M346 283 345 285 345 287 346 288M366 288 367 294 369 298M375 140 374 140 374 154 375 156 377 156 379 153 379 149 376 145 376 140M358 139 360 138 359 138 357 143 357 152 358 152 358 153 359 149 360 149 360 146 361 145 361 138 360 137 360 134M341 203 339 210 339 216 341 217" fill="none" stroke="black" stroke-width="2" /></svg>