<?xml version="1.0" encoding="utf-8" ?>
<svg baseProfile="full" height="757" version="1.1" width="535" xmlns="http://www.w3.org/2000/svg" xmlns:ev="http://www.w3.org/2001/xml-events" xmlns:xlink="http://www.w3.org/1999/xlink"><defs /><rect fill="white" height="757" width="535" x="0" y="0" /><path d="M316 179 313 189 312 204 313 196 316 183 316 182 315 182M326 192 325 192 324 195 321 210 324 210 325 205 325 192M318 139 317 140 312 154 311 159 313 158 315 154 315 151 317 147 317 145 319 140 319 137M127 37 126 38 125 46 126 55 127 56M157 31 155 41 155 48M127 92 126 92 125 94 125 101 126 102M163 108 162 108 161 116M218 112 217 113 216 123 216 134M246 47 244 47 240 53 242 62M268 92 266 113 268 119M319 63 318 64 318 77 320 81M323 21 322 22 320 31 323 37M390 52 391 52 393 61 398 69M420 21 421 20 423 30 427 39M465 78 466 79 467 94 468 97M464 145 459 163 458 164M439 191 438 192 436 204 440 211M433 288 431 289 430 295 430 303M414 347 412 368 412 378M382 405 375 412 368 426 365 429M308 405 302 406 294 424 292 426 291 426M253 397 248 399 245 412 245 417 244 421M254 349 252 349 250 357M241 290 238 290 235 306M239 227 238 227 238 240 239 240M240 159 238 158 229 182 227 191M159 199 149 209 142 229 141 234 141 242M282 211 284 212 289 225 290 230M285 120 279 124 274 159M171 259 165 265 157 291 157 301 156 307M130 382 112 416 110 417M65 300 62 302 59 314 58 325M70 137 67 144 65 164M73 218 73 222 76 241 77 242M115 264 114 270 114 293M151 341 149 346 148 364 151 381M163 395 162 400 162 414 164 426M213 398 211 407 211 420M462 395 463 415 465 421 468 423M490 378 490 389 491 392 493 393M497 270 496 269 496 279M503 122 501 121 497 141 498 150M46 361 47 397 50 409M57 184 54 190 53 198M53 63 51 62 47 93 48 104" fill="none" stroke="black" stroke-width="2" /></svg>