<?xml version="1.0" encoding="utf-8" ?>
<svg baseProfile="full" height="757" version="1.1" width="535" xmlns="http://www.w3.org/2000/svg" xmlns:ev="http://www.w3.org/2001/xml-events" xmlns:xlink="http://www.w3.org/1999/xlink"><defs /><rect fill="white" height="757" width="535" x="0" y="0" /><path d="M353.26 230 346.26 229 345.26 227 354.26 219 364.26 213 377.26 208 388.26 206 398.26 206 403.26 207 411.26 211 415.26 216 416.26 221 415.26 226M339.26 230 349.26 232 356.26 235 365.26 237 387.26 237 406.26 235 407.26 234 410.26 234 411.26 233M387.26 217 384.26 215 379.26 215 376.26 216 371.26 225 370.26 229 371.26 233 374.26 236 378.26 238 386.26 237 390.26 234 391.26 234 395.26 227 395.26 222 393.26 220 385.26 218 379.26 218 374.26 220 370.26 226 370.26 231 371.26 235 373.26 238 376.26 239 380.26 239 389.26 232 392.26 227 391.26 225M299.26 229 285.26 221 276.26 219 245.26 219 233.26 220 208.26 226 199.26 231 202.26 236M198.26 238 197.26 238 197.26 240 200.26 242 213.26 248 220.26 250 232.26 253 246.26 255 262.26 255 270.26 252 291.26 241 295.26 235 296.26 230M268.26 227 268.26 226 263.26 221 259.26 220 252.26 222 242.26 229 240.26 232 238.26 238 237.26 245 242.26 248 256.26 251 261.26 249 268.26 244 271.26 236 271.26 232 268.26 227 263.26 224 253.26 223 247.26 225 240.26 229 237.26 235 236.26 239 236.26 247 239.26 251 245.26 254 251.26 254 262.26 250 269.26 244 271.26 238 271.26 233 268.26 227 263.26 224 255.26 224 246.26 228 239.26 234 235.26 240 235.26 245 236.26 249M314.26 253 313.26 253 312.26 258 312.26 265 309.26 290 310.26 294 312.26 296M337.26 254 337.26 253 338.26 254 338.26 259 339.26 261 339.26 289 340.26 292 342.26 294M347.26 278 346.26 278 352.26 275 360.26 275 361.26 276 363.26 276 368.26 280 372.26 288 372.26 292 367.26 300 355.26 308 349.26 309M289.26 286 298.26 281 298.26 280 295.26 281 288.26 286 284.26 291 282.26 295 283.26 304 287.26 308 292.26 309 293.26 310 304.26 311M313.26 306 313.26 310 317.26 317 324.26 324 331.26 326 334.26 325 337.26 322 340.26 318 348.26 303 349.26 303M281.26 360 280.26 360 280.26 356 289.26 348 298.26 342 306.26 339 314.26 339 319.26 342 322.26 348 322.26 359 321.26 362 321.26 359 324.26 355 326.26 354 330.26 350 331.26 348 333.26 347 339.26 341 345.26 338 353.26 336 358.26 336 361.26 339 363.26 344 363.26 352 360.26 355 359.26 355M275.26 367 279.26 366 289.26 366 314.26 364 328.26 362 338.26 362 345.26 361 349.26 360 347.26 360M281.26 366 280.26 367 283.26 374 287.26 380 292.26 385 299.26 388 308.26 389 318.26 387 327.26 383 335.26 378 350.26 361M172.26 185 170.26 181 177.26 165 199.26 149 221.26 137 247.26 126 276.26 118 304.26 115 329.26 116 347.26 118 357.26 120 378.26 126 382.26 128M348.26 134 363.26 129 372.26 127 379.26 127 386.26 128 397.26 132 405.26 136 419.26 146 430.26 161 438.26 176 443.26 189M379.26 133 371.26 128 353.26 122 330.26 120 308.26 120 284.26 123 264.26 128 248.26 133 239.26 137M322.26 122 313.26 120 282.26 120 259.26 124 232.26 133 202.26 146 184.26 157 182.26 160 182.26 161 184.26 162M270.26 121 265.26 120 252.26 121 240.26 125 223.26 134 205.26 148 187.26 168 171.26 188 161.26 206 157.26 219 157.26 230M208.26 144 207.26 143 201.26 146 197.26 150 177.26 176 163.26 199 152.26 222 145.26 243 143.26 261 147.26 272 155.26 277M193.26 156 190.26 155 183.26 163 170.26 197 165.26 217 161.26 248 160.26 280 161.26 305 166.26 326 172.26 336M173.26 199 172.26 200 169.26 211 164.26 254 164.26 279 167.26 311 171.26 332 176.26 346 180.26 353 186.26 361 191.26 364 193.26 364M161.26 257 157.26 259 154.26 266 153.26 283 158.26 307 176.26 358 191.26 388 197.26 398 210.26 414 222.26 426 227.26 430M178.26 350 177.26 353 179.26 360 187.26 371 208.26 395 237.26 424 265.26 450 273.26 455 280.26 457M218.26 401 216.26 402 216.26 404 226.26 415 243.26 430 277.26 456 290.26 463 300.26 466 311.26 466 318.26 464 323.26 461M334.26 453 338.26 448 373.26 417 396.26 394M448.26 185 449.26 183 450.26 193 448.26 219 439.26 265 437.26 271 436.26 278 435.26 278M446.26 191 447.26 190 447.26 221 443.26 258 434.26 318M445.26 234 447.26 230 448.26 232 448.26 243 445.26 263 440.26 288 427.26 334 418.26 359 415.26 365M431.26 318 430.26 319 420.26 343 411.26 359 400.26 377 389.26 393 386.26 397 380.26 402M423.26 343 419.26 355 406.26 378 400.26 385 395.26 394 391.26 398 382.26 412 373.26 422 362.26 437 360.26 438 359.26 440 356.26 442 352.26 442M382.26 409 371.26 422 360.26 432 336.26 450 333.26 453 320.26 461 296.26 473M163.26 261 163.26 253 161.26 250 157.26 247 151.26 246 144.26 247 137.26 251 130.26 257 126.26 267 124.26 278 126.26 290 130.26 300 138.26 309M157.26 256 156.26 252 150.26 248 145.26 248 141.26 249 135.26 255 131.26 264 129.26 273 130.26 295 134.26 306 138.26 313 145.26 322 152.26 328 160.26 332 166.26 334M444.26 295 443.26 290 444.26 285 447.26 282 452.26 279 458.26 277 466.26 279 469.26 282 473.26 288 474.26 297 471.26 308M446.26 284 450.26 282 463.26 282 472.26 287 478.26 293 479.26 303 477.26 314 471.26 325 465.26 333 460.26 338 417.26 364 410.26 369 406.26 371 404.26 371 404.26 372M351.26 454 350.26 445 351.26 446 351.26 489 352.26 487 352.26 443 353.26 442 353.26 457 352.26 460 352.26 485 353.26 492M261.26 461 262.26 447 264.26 447 265.26 448 267.26 456 268.26 469 268.26 490 269.26 495 267.26 490 262.26 461 262.26 441 263.26 440 264.26 443 266.26 473 266.26 490 267.26 498 269.26 503M352.26 495 351.26 493 356.26 495M355.26 491 351.26 491 353.26 490 367.26 495 386.26 500 387.26 501 382.26 501 381.26 500 357.26 492 349.26 492 357.26 497 369.26 500 372.26 500 391.26 504 395.26 508M254.26 503 260.26 503 261.26 502 270.26 499 271.26 498 264.26 498 236.26 506 230.26 509 225.26 513 224.26 513 224.26 514 225.26 513 234.26 510 246.26 507 267.26 503 265.26 504 229.26 516 213.26 523 209.26 523 208.26 521M210.26 521 207.26 520 207.26 519 210.26 519 221.26 521 226.26 523 253.26 539 265.26 539 274.26 541 324.26 545 332.26 546 334.26 548M269.26 543 275.26 547 287.26 551 293.26 552 316.26 549 333.26 544 338.26 544 350.26 542 360.26 538 366.26 537 374.26 534 381.26 527 382.26 524M356.26 538 355.26 538 361.26 533 372.26 527 386.26 517 395.26 509 395.26 507 390.26 508 377.26 516 371.26 518 366.26 521 364.26 521 379.26 511 395.26 502 400.26 500M384.26 503 382.26 501 383.26 501 386.26 502 396.26 503 411.26 502 445.26 502 472.26 504 453.26 504 415.26 502 387.26 502 399.26 502 437.26 498 454.26 498 459.26 497 481.26 497 518.26 500 500.26 498 446.26 495 445.26 496 452.26 497 469.26 498 519.26 498 565.26 500 568.26 501M205.26 527 192.26 526 133.26 531 93.26 533 67.26 533 123.26 519 147.26 515 175.26 513 191.26 513 213.26 515 218.26 517 208.26 519 151.26 523 126.26 526 90.26 529 38.26 536 14.26 538 .26 538 15.26 534 40.26 530 83.26 525 114.26 524 156.26 524 184.26 526 189.26 527 112.26 527 35.26 525 22.26 524 18.26 523 28.26 520M327.26 111 325.26 106 315.26 95 287.26 94 264.26 102 256.26 109 256.26 111M323.26 106 319.26 101 300.26 97 284.26 96 265.26 98 246.26 104 227.26 115 213.26 127 205.26 138 203.26 148 209.26 158 216.26 162M290.26 102 279.26 98 260.26 98 245.26 101 221.26 111 204.26 121 176.26 146 162.26 165 157.26 180 162.26 195 168.26 202M252.26 110 247.26 106 241.26 105 223.26 114 210.26 124 190.26 142 172.26 162 154.26 187 146.26 202 142.26 216 143.26 224 149.26 231 152.26 233M289.26 120 285.26 121 231.26 166 215.26 187 198.26 214 198.26 216M282.26 124 274.26 122 263.26 127 248.26 138 227.26 155 204.26 176 184.26 197 172.26 212 170.26 220 176.26 222M257.26 133 247.26 133 220.26 145 209.26 153 189.26 173 170.26 202 164.26 217 162.26 229 166.26 242 171.26 244M240.26 133 224.26 131 201.26 142 186.26 155 168.26 175 157.26 192 155.26 205 161.26 215 171.26 221M320.26 117 315.26 106 306.26 126 297.26 151 292.26 181 295.26 184 299.26 182M327.26 103 323.26 103 314.26 121 310.26 147 309.26 170 310.26 185 312.26 196 314.26 200M328.26 121 325.26 119 322.26 129 321.26 137 321.26 157 326.26 198 332.26 214 334.26 214M335.26 125 333.26 125 334.26 139 337.26 151 342.26 168 354.26 194M341.26 142 335.26 124 337.26 116 345.26 112 352.26 111 360.26 111 388.26 121 427.26 143 438.26 150 445.26 156M336.26 121 335.26 111 362.26 97 380.26 96 392.26 97 407.26 104 424.26 118 436.26 132 442.26 145 443.26 155M324.26 120 334.26 102 360.26 93 373.26 93 405.26 102 426.26 120 441.26 138 450.26 154 453.26 165 452.26 171M362.26 126 363.26 123 373.26 114 389.26 118 402.26 126 419.26 144 442.26 181 447.26 191 448.26 205M354.26 137 358.26 130 368.26 130 384.26 140 402.26 157 433.26 190 442.26 203 445.26 212M368.26 125 369.26 120 376.26 117 387.26 122 405.26 137 428.26 163 443.26 188 447.26 197 448.26 201 450.26 212 443.26 220 441.26 221M389.26 136 390.26 133 397.26 124 412.26 128 421.26 141 428.26 159 438.26 192 442.26 210 442.26 227 441.26 230M438.26 159 449.26 156 451.26 159 453.26 166 455.26 188 455.26 199 457.26 218 457.26 243 456.26 246M439.26 152 439.26 146 445.26 146 453.26 160 460.26 178 466.26 202 471.26 227 473.26 241 473.26 250M453.26 157 454.26 158 461.26 179 464.26 191 467.26 230 467.26 256 463.26 268 459.26 273M351.26 134 351.26 123 353.26 120 361.26 130 362.26 141 362.26 162 360.26 182 359.26 215M355.26 121 348.26 131 347.26 144 347.26 215 346.26 216M343.26 131 339.26 130 337.26 137 336.26 145 335.26 161 335.26 184 337.26 220 336.26 226 334.26 224M320.26 138 318.26 139 318.26 153 319.26 174 321.26 194 322.26 225M319.26 134 316.26 136 314.26 149 312.26 171 312.26 193 314.26 209M266.26 138 266.26 135 265.26 135 262.26 141 256.26 168 253.26 191 253.26 197 254.26 193 254.26 186M265.26 130 268.26 120 267.26 121 260.26 135 252.26 155 248.26 169 240.26 190 238.26 201M257.26 141 255.26 141 250.26 145 242.26 158 224.26 197 217.26 209M225.26 150 225.26 149 213.26 163 191.26 205 186.26 217 178.26 241 177.26 246M37.26 558 36.26 557 33.26 548 35.26 544 39.26 531 37.26 538 31.26 577 31.26 594 32.26 597 37.26 593 44.26 578 49.26 564 53.26 544 53.26 563 55.26 586 56.26 591 59.26 599 60.26 600 66.26 598 71.26 589 82.26 565 83.26 565 83.26 582 84.26 589 86.26 592 91.26 593 116.26 569 123.26 565 131.26 565 134.26 568 137.26 575 138.26 587 140.26 587 149.26 569 157.26 557 159.26 555 163.26 556 169.26 578 171.26 582 172.26 583 174.26 583 174.26 572 174.26 613 176.26 612 177.26 598 177.26 618 178.26 623 182.26 624 186.26 621 190.26 615 203.26 583 204.26 585 206.26 598 207.26 598 212.26 608 215.26 609 219.26 601 233.26 563 237.26 558 238.26 558 243.26 578 245.26 577 251.26 564 253.26 562 257.26 575 261.26 581 267.26 584 273.26 584 277.26 582 287.26 573 292.26 565 295.26 563 297.26 565 302.26 583 305.26 588 310.26 594 312.26 595 319.26 593 334.26 571 339.26 568 343.26 568 349.26 577 351.26 582 357.26 590 361.26 592 372.26 587 383.26 574 389.26 563 392.26 554 395.26 549 396.26 550 396.26 559 398.26 572 402.26 576 407.26 576 414.26 572 422.26 565 432.26 554 434.26 554 440.26 559 446.26 569 458.26 582 466.26 580 476.26 570 488.26 553 491.26 551 493.26 552 495.26 558 496.26 566 500.26 580 502.26 584 507.26 583 511.26 578 508.26 594 508.26 616 510.26 629 512.26 634 517.26 638 518.26 638 524.26 636 532.26 632 538.26 626 544.26 624 545.26 625 546.26 629 548.26 632 549.26 632 554.26 630 563.26 616M422.26 106 417.26 107 411.26 161 411.26 166M263.26 115 260.26 119 256.26 165M171.26 133 168.26 135 149.26 199 147.26 208M289.26 122 286.26 126 271.26 179M290.26 118 279.26 141 269.26 170M270.26 121 268.26 122 259.26 132 250.26 149 246.26 167 245.26 185 246.26 193M355.26 121 352.26 127 347.26 144 345.26 160 346.26 182M398.26 135 388.26 147 384.26 166 384.26 176 387.26 188M315.26 223 316.26 221 316.26 216 314.26 217 311.26 232 311.26 236 312.26 239 313.26 239 315.26 233 316.26 221 315.26 219 312.26 223 310.26 232 313.26 231 313.26 228 311.26 226 311.26 228M190.26 295 189.26 310 195.26 296 195.26 293M400.26 314 397.26 316 395.26 319 395.26 318 403.26 308 404.26 308 400.26 324 399.26 332M285.26 412 283.26 413 281.26 416 281.26 420 290.26 412 290.26 416M345.26 518 344.26 515 344.26 529 346.26 528 350.26 518 351.26 513 351.26 520M267.26 512 269.26 511 271.26 513 270.26 514 271.26 508 272.26 510 272.26 520 273.26 522" fill="none" stroke="black" stroke-width="2" /></svg>