<?xml version="1.0" encoding="utf-8" ?>
<svg baseProfile="full" height="757" version="1.1" width="535" xmlns="http://www.w3.org/2000/svg" xmlns:ev="http://www.w3.org/2001/xml-events" xmlns:xlink="http://www.w3.org/1999/xlink"><defs /><rect fill="white" height="757" width="535" x="0" y="0" /><path d="M184 257.48 182 257.48 182 259.48 181 259.48 181 285.48 182 286.48 182 289.48 184 293.48 184 295.48 188 302.48 188 304.48 191 307.48 191 308.48 192 308.48 196 313.48 199 314.48 203 317.48 209 319.48 231 319.48 235 317.48 237 317.48 239 315.48 242 314.48 251 305.48 251 303.48 253 302.48 256 292.48 257 291.48 257 285.48 258 284.48 258 260.48 257 260.48 257 257.48 256 257.48 256 254.48 255 254.48 255 253.48M211 232.48 210 235.48 205 241.48 201 245.48 200 245.48 199 247.48 186 256.48 184 256.48 183 258.48 179 259.48 179 260.48 178 260.48M215 228.48 216 228.48 218 230.48 220 235.48 225 240.48 231 242.48 232 243.48 240 245.48 241 246.48 247 247.48 257 252.48 258 254.48 261 256.48 262 258.48 264 259.48 267 265.48 271 282.48 271 293.48 272 295.48 272 311.48 263 326.48 257 334.48 257 335.48 254 338.48 254 339.48 253 339.48M181 258.48 180 258.48 177 262.48 176 270.48 175 271.48 175 303.48 176 306.48 176 312.48 180 321.48 180 323.48 181 323.48 181 325.48 187 333.48M193 266.48 193 265.48 194 265.48 195 263.48 199 261.48 210 261.48 210 262.48 211 262.48 211 264.48 213 264.48 213 265.48M226 264.48 226 263.48 228 262.48 228 260.48 229 260.48 229 259.48 232 259.48 233 258.48 240 258.48 243 261.48 244 261.48 245 263.48M205 270.48 204 270.48 204 274.48 206 274.48 206 273.48 207 273.48 208 271.48 209 271.48 209 270.48 204 270.48 204 271.48 205 271.48M230 269.48 230 272.48 233 272.48 233 268.48 232 268.48 232 271.48 230 270.48M206 273.48 206 271.48 206 273.48M218 280.48 219 280.48 219 290.48 221 291.48 221 292.48 222 292.48M213 302.48 213 304.48 215 308.48 217 309.48 226 309.48 226 308.48 228 307.48 229 299.48M211 198.48 210 196.48 203 196.48 202 197.48 198 198.48 195 201.48 193 201.48 193 202.48 190 203.48 190 204.48 187 207.48 187 208.48 184 210.48 184 212.48 182 213.48 179 219.48 177 228.48 175 231.48 175 235.48 174 236.48 174 242.48 173 243.48 173 247.48 172 247.48 172 253.48 171 253.48 171 255.48 170 257.48 169 257.48 169 259.48 168 259.48 166 263.48 166 285.48 167 288.48 167 301.48 168 302.48 168 310.48 170 317.48 170 320.48 172 324.48 172 329.48M221 196.48 225 196.48 227 197.48 235 202.48 241 207.48 242 207.48 244 210.48 246 211.48 247 214.48 251 217.48 251 219.48 255 223.48 255 226.48 258 230.48 259 234.48 260 234.48 260 235.48 262 235.48 263 237.48 268 241.48 269 241.48 269 242.48 271 242.48 275 247.48 277 251.48 279 253.48 280 259.48 282 262.48 282 264.48 284 268.48 284 286.48 283 287.48 283 291.48 279 299.48 278 303.48 277 304.48 277 306.48 273 309.48 266 319.48 264 320.48 260 325.48M215 193.48 219 191.48 223 191.48 225 190.48 232 190.48 233 191.48 239 192.48 241 193.48 241 194.48 245 195.48 251 200.48 253 200.48 254 202.48 257 204.48 258 207.48 260 208.48 262 211.48 265 217.48 265 219.48 266 220.48 267 224.48 267 227.48 268 227.48 269 229.48 270 234.48 272 238.48 273 238.48 273 240.48 274 242.48 275 242.48 277 247.48 278 247.48 278 249.48 279 249.48 280 251.48 280 253.48 282 257.48 282 260.48 283 261.48 283 269.48 284 271.48 284 281.48 283 283.48 283 287.48 281 289.48 281 292.48 279 295.48 273 309.48 271 311.48 268 318.48 267 318.48 266 322.48 263 327.48M213 320.48 215 325.48 216 338.48 217 338.48 217 345.48M239 316.48 237 319.48 237 339.48 238 341.48 239 341.48 239 344.48 240 346.48 237 346.48 234 348.48 217 348.48 217 347.48 215 346.48M239 345.48 246 345.48 248 347.48 254 348.48 257 350.48 260 350.48 265 352.48 267 352.48 268 353.48 272 353.48 277 356.48 285 358.48 291 360.48 292 361.48 294 361.48 294 362.48 296 362.48 300 365.48 313 370.48 313 371.48 316 372.48 321 377.48 323 378.48 327 382.48 331 389.48 333 390.48 333 392.48 335 392.48 348 407.48 349 411.48 352 415.48 352 418.48 356 426.48 358 428.48 359 432.48 360 432.48 361 434.48 363 443.48 364 444.48 364 451.48 365 451.48 365 454.48 366 454.48 366 455.48M274 396.48 289 409.48 292 414.48 298 421.48 300 422.48 307 433.48 308 436.48 319 445.48 320 447.48 320 450.48 321 450.48 321 453.48 322 454.48 322 458.48 323 460.48 323 463.48 324 464.48 324 467.48 326 470.48 326 472.48 327 472.48 328 477.48 331 481.48 331 485.48 332 486.48 332 492.48 333 495.48 335 496.48 336 495.48 339 495.48 344 492.48 348 492.48 348 491.48 351 491.48 353 490.48 360 490.48 361 489.48M366 454.48 366 456.48 367 457.48 368 472.48 369 474.48 369 478.48 370 479.48 370 483.48 371 483.48 371 484.48 370 486.48 364 486.48 360 488.48 360 489.48M344 491.48 344 495.48 347 501.48 347 503.48 348 503.48 348 511.48 347 511.48 347 513.48 346 513.48 346 516.48 345 517.48 345 525.48 347 526.48 352 526.48 353 524.48 355 524.48 356 523.48 357 519.48 358 518.48 358 511.48 358 525.48 361 526.48 361 527.48 366 527.48 368 522.48 368 515.48 368 520.48 370 524.48 370 526.48 371 526.48 372 523.48 372 518.48 373 518.48 378 522.48 382 522.48 383 519.48 383 515.48 384 519.48 386 519.48 387 517.48 387 500.48 385 498.48 381 491.48 378 488.48 375 487.48 375 486.48 369 486.48 366 484.48 360 484.48M209 348.48 205 348.48 195 355.48 192 356.48 191 358.48 185 361.48 174 371.48 172 371.48 172 372.48 168 375.48 168 376.48 166 378.48 164 382.48 164 384.48 163 384.48 163 385.48M185 447.48 185 457.48 184 459.48 184 462.48 183 463.48 183 466.48 175 482.48 172 485.48 168 492.48 166 493.48 164 497.48 160 500.48 160 501.48 154 501.48 149 496.48 149 495.48 146 492.48 145 492.48 143 489.48 142 489.48 141 486.48 140 486.48 138 482.48 137 477.48 135 473.48 135 469.48 133 465.48 133 460.48 131 454.48 131 446.48 130 445.48 130 442.48 126 432.48 125 423.48 120 413.48M122 411.48 120 410.48 118 407.48 118 405.48 116 404.48 114 400.48 114 397.48 113 397.48 113 389.48 114 387.48 115 387.48 117 383.48 121 383.48 122 384.48 124 384.48 124 385.48 127 389.48 128 393.48 130 395.48 130 397.48 131 397.48 131 399.48M131 392.48 132 392.48 132 390.48 133 390.48 133 388.48 134 388.48 134 387.48 138 387.48 139 386.48 141 386.48 146 391.48 147 394.48 148 394.48 148 390.48M149 385.48 150 384.48 155 384.48 158 389.48 158 391.48M126 418.48 132 418.48 137 421.48 147 421.48 155 416.48M185 437.48 185 438.48 186 438.48 186 443.48 187 446.48 187 457.48 189 461.48 189 467.48 190 472.48 190 501.48 183 527.48 183 530.48 178 554.48 178 562.48 176 569.48 176 590.48 175 593.48 175 606.48 174 609.48 174 639.48M274 394.48 274 408.48 278 419.48 280 427.48 280 430.48 282 435.48 284 451.48 286 455.48 286 461.48 292 481.48 292 486.48 298 522.48 305 554.48 305 558.48 308 575.48 308 584.48 311 602.48 311 625.48M174 638.48 189 640.48 202 640.48 210 642.48 273 642.48 282 640.48 287 640.48 294 638.48 298 638.48 298 637.48 301 637.48 303 635.48 307 633.48 308 631.48 310 630.48 312 626.48M216 643.48 217 643.48 219 646.48 224 663.48 226 677.48 226 684.48 227 688.48 227 705.48M251 643.48 250 646.48 250 683.48 251 686.48 251 709.48 252 713.48M261 641.48 265 662.48 267 679.48 270 688.48 271 694.48 271 701.48 273 704.48 273 711.48 274 713.48 274 712.48M287 641.48 287 647.48 289 652.48 295 682.48 295 710.48 296 712.48 296 717.48M228 702.48 228 704.48 225 708.48 220 711.48 218 711.48 215 714.48 213 714.48 209 718.48 203 721.48 203 722.48 202 722.48 198 726.48 198 727.48 197 727.48 196 729.48 195 729.48 195 738.48M253 709.48 253 717.48 252 719.48 251 728.48M274 711.48 273 711.48 273 712.48 271 713.48 270 715.48 261 721.48 260 723.48 259 723.48 257 725.48 256 729.48 255 729.48 255 739.48M295 717.48 301 718.48 304 722.48 304 724.48 305 725.48 305 733.48 297 736.48M255 733.48 256 734.48 272 737.48 294 737.48 300 735.48 303 733.48M195 736.48 205 739.48 210 739.48 213 740.48 234 740.48 237 738.48 241 738.48 243 737.48 243 736.48 250 731.48 253 727.48 253 726.48M215 717.48 215 719.48 220 720.48 244 720.48 251 716.48 254 716.48 256 714.48M267 720.48 292 720.48 292 719.48 293 719.48M156 439.48 156 446.48 158 446.48M204 353.48 204 354.48 206 356.48 211 358.48 233 358.48 234 357.48 242 357.48 242 356.48 245 356.48 254 351.48M160 429.48 157 429.48 155 427.48 155 426.48 153 426.48 151 422.48 151 416.48 152 415.48 152 412.48" fill="none" stroke="black" stroke-width="2" /></svg>