<?xml version="1.0" encoding="utf-8" ?>
<svg baseProfile="full" height="757" version="1.1" width="535" xmlns="http://www.w3.org/2000/svg" xmlns:ev="http://www.w3.org/2001/xml-events" xmlns:xlink="http://www.w3.org/1999/xlink"><defs /><rect fill="white" height="757" width="535" x="0" y="0" /><path d="M29 186.48 29 182.48 30 180.48 38 171.48 49 164.48 53 163.48 56 161.48 59 161.48 64 159.48 90 159.48 95 160.48 98 162.48 100 162.48 102 164.48 110 168.48 119 175.48 125 175.48 132 170.48 134 170.48 139 167.48 142 167.48 144 165.48 148 164.48 154 161.48 158 161.48 159 160.48 195 160.48 200 162.48 200 163.48 202 163.48 202 164.48 204 164.48 209 160.48 210 158.48 214 156.48 230 153.48 249 153.48 257 154.48 261 155.48 262 156.48 264 156.48 268 158.48 271 158.48 282 161.48 287 165.48 288 165.48 291 168.48 294 169.48 297 172.48 298 172.48 298 173.48 299 173.48 300 171.48 307 168.48 312 168.48 317 166.48 345 166.48 350 167.48 354 169.48 358 169.48 361 171.48 369 174.48 377 176.48 381 176.48 385 178.48 388 178.48 391 180.48 393 180.48 393 181.48 393 164.48 392 162.48 392 157.48 390 152.48 390 137.48 389 130.48 388 128.48 387 118.48 385 115.48 385 112.48 383 107.48 381 105.48 380 101.48 375 93.48 375 91.48 370 86.48 368 82.48 362 76.48 357 69.48 349 61.48 344 59.48 339 55.48 331 52.48 330 51.48 324 50.48 322 48.48 319 48.48 311 45.48 308 45.48 304 44.48 303 43.48 300 43.48 298 42.48 295 42.48 283 39.48 279 37.48 275 37.48 274 36.48 271 36.48 259 33.48 254 33.48 252 32.48 248 32.48 245 31.48 223 31.48 221 30.48 199 30.48 196 31.48 192 31.48 161 39.48 157 39.48 155 41.48 151 41.48 148 43.48 145 43.48 142 45.48 140 45.48 130 50.48 128 52.48 124 53.48 118 58.48 116 58.48 112 61.48 107 63.48 100 69.48 98 69.48 88 77.48 78 87.48 77 89.48 74 91.48 74 92.48 69 97.48 65 103.48 63 104.48 63 105.48 54 116.48 52 120.48 50 121.48 35 151.48 35 155.48 33 156.48 33 159.48 31 163.48 31 166.48 29 170.48 29 174.48 28 174.48 28 182.48M210 27.48 211 27.48 213 19.48 216 13.48 220 11.48 221 9.48 223 9.48 224 11.48 225 19.48 226 20.48 226 23.48 227 23.48 227 26.48 228 26.48 228 30.48M120 171.48 120 156.48 121 144.48 126 112.48 140 78.48 147 67.48 154 59.48 156 58.48 157 56.48 162 53.48 165 50.48 167 50.48 169 48.48 174 46.48 177 46.48 181 44.48 184 44.48 188 42.48 191 42.48 207 38.48 212 35.48 217 35.48 220 33.48 224 33.48 226 32.48M226 32.48 225 34.48 223 35.48 222 37.48 217 42.48 216 42.48 215 45.48 212 48.48 211 51.48 208 54.48 201 67.48 200 72.48 197 76.48 194 88.48 192 106.48 192 157.48 194 159.48 194 161.48 195 161.48 196 163.48 198 163.48M231 30.48 232 33.48 252 47.48 266 58.48 269 61.48 279 75.48 288 86.48 290 92.48 293 96.48 295 105.48 298 109.48 300 116.48 302 120.48 302 123.48 304 126.48 304 137.48 305 140.48 305 162.48 304 162.48M149 166.48 150 169.48 150 184.48 152 192.48 152 218.48 153 223.48 153 232.48 154 234.48 154 256.48 155 259.48 155 272.48 154 275.48 154 315.48 153 318.48 153 325.48 152 327.48 152 335.48 151 338.48 151 361.48 155 369.48M161 163.48 159 166.48 158 170.48 157 185.48 156 187.48 156 294.48 157 296.48 157 303.48 158 307.48 158 320.48 159 321.48 159 346.48 158 348.48 158 364.48 157 364.48 157 363.48 152 363.48 152 365.48 154 369.48 155 369.48 155 370.48 157 371.48 158 375.48 160 377.48 161 383.48 162 383.48M156 362.48 157 362.48 158 364.48 158 367.48 160 370.48 160 373.48 161 374.48 161 401.48 155 409.48 153 409.48 153 410.48 152 410.48 151 412.48 148 412.48 148 413.48 138 413.48 136 412.48 136 411.48 135 411.48 135 410.48 133 409.48 133 407.48 130 402.48 130 399.48 128 393.48 128 376.48 127 376.48 127 375.48 142 375.48 142 382.48 141 384.48 141 395.48 142 395.48 143 397.48 145 397.48 150 399.48 157 399.48 157 398.48 158 398.48 159 396.48 159 381.48 160 380.48 160 377.48M168 160.48 168 168.48 167 170.48 167 208.48 166 209.48 166 217.48 164 224.48 164 230.48 161 240.48 161 247.48 159 254.48 159 287.48 158 289.48 157 298.48 156 321.48 155 324.48 155 357.48 157 364.48 158 376.48" fill="none" stroke="black" stroke-width="2" /></svg>