<?xml version="1.0" encoding="utf-8" ?>
<svg baseProfile="full" height="757" version="1.1" width="535" xmlns="http://www.w3.org/2000/svg" xmlns:ev="http://www.w3.org/2001/xml-events" xmlns:xlink="http://www.w3.org/1999/xlink"><defs /><rect fill="white" height="757" width="535" x="0" y="0" /><path d="M110.5 202 112.5 201 112.5 197 113.5 197M504.5 56 504.5 64 505.5 76 506.5 77 506.5 83M479.5 189 478.5 193 478.5 222 479.5 224 479.5 222M263.5 27 263.5 54 264.5 60 264.5 63 263.5 60M200.5 166 199.5 185 201.5 209 202.5 209 202.5 210 202.5 209M188.5 297 188.5 315 191.5 332 192.5 349M481.5 293 482.5 316 488.5 351 489.5 345M452.5 419 448.5 432 448.5 450 450.5 464 450.5 461M502.5 454 503.5 454 501.5 469 503.5 487 503.5 501 502.5 499M137.5 369 138.5 377 138.5 399 139.5 414 141.5 422M112.5 196 111.5 202 111.5 220 112.5 223 114.5 239 115.5 256 116.5 252M47.5 77 48.5 77 48.5 102 50.5 111M101.5 493 100.5 508 100.5 534 106.5 562 106.5 563 105.5 562M227.5 526 226.5 530 225.5 545 225.5 564 227.5 572M61.5 215 60.5 243 62.5 244M290.5 68 287.5 70 281.5 77 277.5 90 272.5 95 268.5 97 266.5 96 266.5 90 268.5 87 268.5 85 270.5 83 272.5 79 282.5 72 284.5 72 286.5 70 286.5 69 288.5 68M251.5 125 252.5 126 252.5 131 250.5 138 250.5 161 249.5 165 249.5 181 248.5 182 244.5 181 243.5 176 243.5 168 248.5 152 249.5 141 251.5 132 252.5 131 253.5 127M472.5 177 472.5 188 475.5 195 475.5 198 476.5 198 477.5 201 475.5 202 471.5 198 470.5 194 470.5 188 471.5 186 471.5 172 470.5 172M481.5 109 483.5 124 483.5 139M56.5 325 57.5 342 57.5 360M37.5 462 38.5 483 39.5 489 43.5 502 45.5 504 47.5 508 47.5 510M134.5 115 136.5 121 136.5 137 137.5 147 138.5 149 141.5 147M210.5 70 212.5 73 215.5 95M86.5 30 87.5 32 88.5 50 89.5 53 91.5 55 91.5 56 92.5 56M324.5 14 321.5 18 320.5 32 322.5 38M381.5 18 381.5 25 380.5 28 380.5 35 381.5 39M479.5 25 478.5 47 477.5 51M507.5 368 507.5 373 508.5 373 507.5 374 505.5 383 504.5 393 504.5 405 505.5 408 505.5 413 504.5 411M488.5 554 486.5 574 486.5 587 484.5 597" fill="none" stroke="black" stroke-width="2" /></svg>