<?xml version="1.0" encoding="utf-8" ?>
<svg baseProfile="full" height="757" version="1.1" width="535" xmlns="http://www.w3.org/2000/svg" xmlns:ev="http://www.w3.org/2001/xml-events" xmlns:xlink="http://www.w3.org/1999/xlink"><defs /><rect fill="white" height="757" width="535" x="0" y="0" /><path d="M408.5 212 408.5 211 413.5 211 413.5 212 415.5 212 424.5 219 424.5 220 426.5 221 433.5 229 436.5 237 438.5 240 438.5 243 439.5 244 439.5 247 440.5 249 440.5 271 435.5 287 431.5 292 429.5 293 428.5 295 425.5 296 425.5 297 419.5 300 411.5 303 404.5 303 402.5 304 389.5 304 388.5 303 384.5 303 380.5 300 379.5 300 376.5 296 373.5 291 373.5 289 372.5 288 371.5 284 371.5 280 370.5 278 370.5 258 372.5 248 374.5 245 374.5 243 377.5 239 377.5 237 378.5 236 378.5 234 380.5 230 385.5 224 385.5 223 389.5 221 390.5 219 394.5 218 396.5 217 396.5 216 400.5 215 400.5 214 403.5 214 403.5 213 406.5 213 406.5 212 409.5 212 410.5 211 412.5 211 412.5 212M425.5 218 427.5 217 438.5 217 439.5 218 445.5 220 448.5 225 450.5 233 452.5 249 453.5 251 456.5 254 457.5 254 457.5 255 459.5 255 456.5 255 455.5 256 451.5 256 449.5 255 446.5 251 445.5 251 444.5 248 443.5 248 442.5 246 442.5 243 441.5 243M390.5 216 390.5 217 386.5 214 384.5 214 379.5 216 372.5 224 370.5 228 370.5 230 368.5 232 364.5 239 356.5 244 353.5 245 355.5 246 368.5 246 372.5 244M436.5 242 434.5 242 433.5 243 422.5 243 420.5 241 415.5 241 412.5 240 407.5 235 406.5 235 406.5 234 403.5 235 403.5 236 399.5 238 397.5 238 396.5 239 391.5 240 390.5 241 378.5 241 378.5 240 379.5 240M429.5 260 429.5 255 427.5 253 425.5 253 424.5 252 416.5 252 416.5 253M401.5 251 400.5 251 400.5 250 393.5 249 390.5 252 390.5 253 388.5 254 388.5 256 387.5 256 387.5 257 388.5 257M406.5 260 407.5 260 406.5 261 405.5 261 405.5 260 406.5 260 405.5 260M421.5 273 421.5 274 418.5 277 410.5 280 402.5 280 401.5 279 399.5 279 397.5 278 397.5 277 395.5 277 395.5 276 394.5 276 394.5 274 393.5 274 393.5 273 393.5 274M411.5 303 411.5 310 395.5 310 394.5 303M395.5 310 392.5 312 376.5 312 375.5 311 368.5 310 366.5 308 362.5 306 361.5 304 359.5 303 359.5 302 356.5 300 349.5 292 348.5 292 348.5 290 346.5 286 346.5 270 345.5 269 345.5 266 346.5 265 346.5 249 345.5 245 344.5 243 343.5 243 339.5 245 337.5 245 337.5 246 335.5 246 331.5 262 331.5 279 332.5 281 332.5 285 333.5 287 334.5 295 341.5 305 344.5 311 352.5 316 354.5 316 357.5 318 364.5 319 367.5 321 387.5 321 387.5 320 388.5 320M389.5 320 388.5 339 389.5 348 390.5 350M412.5 310 420.5 310 426.5 312 434.5 322 435.5 325 437.5 327 440.5 345 441.5 369 442.5 370 442.5 385M417.5 329 418.5 329 418.5 330 422.5 332 424.5 340 424.5 353 425.5 357 425.5 375M388.5 345 388.5 349 390.5 357 390.5 373 391.5 375M416.5 330 414.5 340 414.5 358 413.5 361 413.5 375 412.5 377 402.5 377 400.5 378 395.5 378M424.5 373 425.5 373 426.5 375 426.5 378 427.5 379 427.5 382 428.5 382 428.5 383 431.5 383 431.5 384 441.5 385 442.5 386 444.5 386M392.5 379 389.5 393 389.5 399 388.5 402 388.5 416 387.5 419 387.5 437 386.5 440 386.5 450 385.5 453 385.5 478 384.5 479 384.5 481M401.5 400 401.5 402 400.5 403 400.5 412 399.5 414 399.5 429 398.5 432 398.5 452 397.5 454 397.5 470 396.5 470 396.5 474 395.5 475 395.5 477 387.5 477 387.5 476M403.5 400 404.5 402 405.5 416 406.5 419 406.5 463 407.5 470 407.5 480 408.5 475 409.5 474M415.5 377 415.5 383 416.5 386 416.5 396 417.5 400 417.5 459 418.5 460 418.5 470 419.5 470 419.5 473 417.5 474 411.5 474 410.5 475M419.5 473 423.5 475 425.5 478 425.5 481 424.5 482 420.5 483 411.5 483 410.5 482 408.5 482 407.5 475M388.5 477 388.5 478 386.5 479 386.5 484 392.5 484 396.5 482 396.5 480 395.5 479 395.5 477 396.5 477M443.5 386 445.5 386 445.5 388 446.5 389 446.5 393 437.5 393 435.5 392 431.5 388 430.5 386 430.5 381M345.5 241 346.5 241 346.5 237 345.5 236 339.5 236 337.5 237 336.5 239 336.5 245" fill="none" stroke="black" stroke-width="2" /></svg>