<?xml version="1.0" encoding="utf-8" ?>
<svg baseProfile="full" height="757" version="1.1" width="535" xmlns="http://www.w3.org/2000/svg" xmlns:ev="http://www.w3.org/2001/xml-events" xmlns:xlink="http://www.w3.org/1999/xlink"><defs /><rect fill="white" height="757" width="535" x="0" y="0" /><path d="M293.5 345 296.5 346 296.5 347 300.5 351 301.5 353 303.5 359 303.5 364 304.5 364 305.5 378 303.5 386 297.5 393 290.5 397 283.5 399 276.5 399 276.5 398 273.5 398 270.5 396 268.5 396 264.5 392 263.5 389 262.5 389 262.5 386 261.5 385 261.5 374 266.5 361 268.5 359 268.5 358 273.5 353 274.5 353 274.5 352 276.5 352 276.5 351 279.5 350 279.5 349 282.5 348 282.5 347 285.5 347 288.5 345 294.5 345M295.5 346 293.5 344 293.5 338 294.5 335 298.5 333 301.5 333 305.5 336 309.5 335 313.5 327 313.5 335 311.5 341 307.5 343 304.5 343 303.5 342 301.5 342 301.5 341 299.5 341 296.5 347M305.5 359 304.5 359 304.5 361 303.5 361 303.5 362 300.5 366M299.5 355 300.5 355 299.5 359 297.5 364 295.5 365M295.5 354 296.5 354 296.5 357 294.5 363M296.5 353 295.5 361 293.5 363M295.5 350 293.5 358 292.5 360 291.5 360M292.5 350 291.5 357 290.5 357 289.5 359 289.5 358M288.5 348 289.5 349 289.5 351 286.5 361M286.5 352 286.5 354 284.5 356 284.5 357M285.5 351 285.5 354 283.5 359M283.5 353 282.5 358 281.5 358 281.5 359 281.5 358M283.5 352 283.5 355 282.5 356 282.5 359 281.5 361M280.5 355 279.5 356 278.5 360 277.5 359M281.5 353 280.5 353 277.5 360M277.5 354 276.5 357 273.5 361M276.5 354 276.5 355 274.5 356 271.5 362M273.5 356 273.5 359 272.5 361M295.5 350 296.5 349 296.5 352 290.5 362M296.5 352 298.5 352 298.5 353 293.5 363M299.5 349 300.5 349 301.5 353 298.5 360 298.5 362 297.5 363 297.5 362M298.5 351 295.5 357 292.5 361M293.5 349 293.5 352 289.5 360 287.5 362M289.5 351 287.5 352 282.5 361M283.5 352 280.5 354 276.5 358 276.5 359M298.5 375 298.5 373 295.5 372 291.5 372 290.5 373 296.5 373 297.5 375M281.5 372 278.5 370 273.5 370 271.5 372 272.5 372 272.5 371 277.5 370M286.5 376 286.5 377 287.5 377 287.5 378 286.5 378 286.5 376 287.5 376 286.5 378M290.5 382 288.5 383 284.5 383 282.5 382 284.5 390 286.5 391 287.5 390 289.5 386 289.5 383 290.5 382M296.5 379 299.5 379 299.5 382 296.5 382 295.5 381 295.5 380 299.5 380 295.5 381M276.5 378 279.5 379 277.5 381 275.5 380 276.5 378 278.5 378 278.5 379 276.5 379 276.5 378 279.5 377 279.5 379 275.5 380 274.5 378 276.5 378M276.5 378 277.5 378 277.5 379M304.5 387 309.5 386 310.5 385 315.5 377 316.5 372 317.5 371 317.5 368 324.5 367 326.5 366 326.5 372 325.5 373 324.5 384 321.5 390 317.5 393 313.5 394M260.5 384 258.5 384 254.5 381 252.5 373 252.5 368 248.5 370 242.5 371 241.5 379 241.5 389 243.5 395 248.5 399 249.5 401 253.5 403M314.5 394 315.5 398 315.5 403 314.5 406 314.5 410 313.5 410M256.5 402 254.5 414 260.5 425 261.5 425M313.5 397 315.5 397 315.5 403 314.5 416 312.5 423 312.5 429M305.5 429 305.5 430 272.5 431 264.5 433M265.5 432 262.5 452 262.5 460 263.5 459M307.5 431 307.5 432 308.5 432 309.5 437 309.5 453 308.5 454 301.5 455 270.5 456 262.5 458M273.5 458 273.5 463 272.5 464 272.5 475 273.5 477M273.5 476 272.5 478 269.5 479 266.5 483 266.5 484 270.5 487 278.5 486 280.5 485 283.5 481 285.5 473 287.5 457M306.5 457 304.5 462 304.5 470 305.5 471 305.5 473 306.5 473 306.5 474 313.5 475 318.5 479 317.5 482 313.5 484 301.5 484 297.5 482 295.5 476 295.5 460M319.5 368 317.5 365 317.5 358 319.5 356 321.5 356 322.5 355 327.5 355 329.5 359 329.5 368 328.5 367M242.5 368 243.5 369 242.5 369 242.5 361 245.5 356 249.5 355 252.5 358 252.5 364" fill="none" stroke="black" stroke-width="2" /></svg>