<?xml version="1.0" encoding="utf-8" ?>
<svg baseProfile="full" height="757" version="1.1" width="535" xmlns="http://www.w3.org/2000/svg" xmlns:ev="http://www.w3.org/2001/xml-events" xmlns:xlink="http://www.w3.org/1999/xlink"><defs /><rect fill="white" height="757" width="535" x="0" y="0" /><path d="M334.5 382 348.5 363 366.5 344M322.5 400 318.5 401 312.5 409 308.5 420 308.5 427 311.5 432 320.5 435 330.5 431 335.5 427M334.5 428 331.5 428 327.5 424 325.5 420 325.5 414 326.5 411 330.5 406 334.5 404 334.5 403 336.5 402 338.5 399 341.5 397 342.5 393 345.5 389 346.5 389 347.5 387 351.5 383 351.5 382 363.5 367 366.5 362 371.5 358M319.5 320 321.5 318 328.5 317 337.5 319 341.5 322 345.5 337 346.5 338 346.5 342 347.5 342 348.5 339 351.5 337 356.5 336 359.5 336 366.5 339 370.5 343 374.5 354 374.5 366 376.5 366 376.5 365 379.5 362 384.5 359 394.5 357 400.5 357 412.5 364 417.5 369 419.5 379 419.5 384 417.5 387 417.5 384 419.5 384 424.5 380 429.5 379 434.5 379 436.5 381 441.5 383 445.5 386 450.5 394 453.5 402 453.5 408 452.5 409 453.5 409M307.5 299 304.5 299 305.5 298 323.5 291 333.5 288 348.5 285 353.5 283 368.5 280 373.5 278 395.5 275 403.5 273 431.5 271 431.5 273 440.5 298 445.5 318 445.5 325 446.5 327 448.5 345 448.5 399 449.5 401 449.5 405 450.5 406M345.5 338 351.5 332 373.5 315 382.5 307 388.5 303 392.5 299 400.5 293 412.5 286 420.5 276 427.5 271 428.5 271M427.5 279 417.5 294 407.5 314 402.5 321 394.5 336 377.5 361 374.5 373M430.5 277 430.5 276 429.5 276 426.5 291 426.5 322 427.5 338 425.5 359 425.5 385 424.5 387M312.5 316 315.5 316 324.5 313 339.5 304 348.5 300 356.5 297 373.5 293 392.5 285 399.5 281 402.5 280 406.5 280M415.5 277 420.5 274 430.5 273 433.5 272M428.5 274 429.5 267 431.5 261 432.5 260 437.5 260 438.5 262 438.5 269 434.5 274M345.5 367 343.5 368 342.5 371" fill="none" stroke="black" stroke-width="2" /></svg>