<?xml version="1.0" encoding="utf-8" ?>
<svg baseProfile="full" height="757" version="1.1" width="535" xmlns="http://www.w3.org/2000/svg" xmlns:ev="http://www.w3.org/2001/xml-events" xmlns:xlink="http://www.w3.org/1999/xlink"><defs /><rect fill="white" height="757" width="535" x="0" y="0" /><path d="M183.5 331 182.5 331 184.5 331 184.5 332 187.5 333 187.5 334 189.5 335 189.5 341 188.5 343 186.5 344 186.5 345 182.5 346M181.5 226 181.5 317 182.5 317 182.5 330M185.5 347 185.5 349 184.5 350 184.5 354 188.5 354 188.5 353 189.5 353 190.5 351 190.5 345 189.5 344 189.5 342 187.5 341 187.5 352 186.5 352 186.5 349 185.5 348 185.5 351 184.5 352 185.5 351 186.5 345 186.5 347M183.5 307 182.5 307 182.5 318 183.5 321 183.5 280 182.5 271 182.5 285 184.5 309 185.5 313 185.5 321 184.5 311 184.5 260 183.5 244 182.5 243 182.5 237 182.5 247 183.5 252 183.5 264 184.5 275 184.5 304 183.5 300 183.5 221 182.5 224 182.5 266 183.5 269 183.5 279 184.5 282 184.5 297 185.5 299 185.5 302M186.5 224 185.5 221 185.5 243 184.5 245 184.5 248 184.5 226 185.5 222 186.5 222 184.5 240M158.5 226 157.5 226 157.5 225 159.5 222 160.5 222 169.5 216 177.5 213 185.5 213 196.5 217 197.5 218 199.5 218 203.5 220 204.5 222 205.5 221M211.5 223 210.5 223 210.5 222 211.5 222 211.5 221 214.5 218 214.5 217 215.5 217 217.5 214 218.5 214 222.5 210 224.5 210 225.5 209 234.5 209 244.5 212 248.5 214 249.5 216 250.5 216 252.5 218 253.5 218 253.5 219 254.5 219 254.5 218 255.5 218 256.5 216 257.5 216 264.5 210 272.5 206 276.5 206 277.5 205 291.5 205 295.5 207 298.5 207 302.5 209 307.5 210 307.5 211 310.5 212 310.5 213 311.5 213 313.5 215 315.5 215 317.5 217 318.5 217 319.5 219M153.5 225 148.5 223 144.5 220 129.5 220 123.5 222 123.5 223 121.5 224 117.5 228 116.5 231 115.5 231 115.5 232 113.5 234 114.5 232M110.5 235 99.5 230 93.5 229 84.5 229 80.5 230 75.5 232 71.5 236 69.5 237 67.5 240 66.5 240 65.5 242 62.5 244 58.5 251 57.5 252 57.5 251M50.5 254 50.5 245 51.5 244 54.5 236 57.5 232 61.5 224 64.5 217 64.5 215 69.5 207 70.5 204 76.5 196 85.5 180 97.5 166 101.5 162 103.5 161 105.5 158 110.5 154 111.5 152 125.5 140 130.5 137 147.5 129 168.5 125 176.5 125 178.5 124 200.5 124 201.5 125 206.5 125 207.5 126 215.5 127 220.5 129 222.5 129 227.5 131 239.5 134 258.5 142 269.5 148 278.5 151 291.5 162 291.5 163 293.5 164 300.5 172 301.5 172 308.5 179 309.5 179 316.5 188 317.5 188 319.5 191 326.5 198 330.5 206 335.5 211 335.5 212 337.5 214 338.5 214 341.5 220 343.5 221 343.5 222 342.5 222M44.5 265 42.5 272 41.5 273 41.5 274 42.5 273M115.5 246 114.5 245 114.5 249 113.5 251 113.5 253 114.5 254M157.5 239 156.5 238 156.5 244 158.5 245M214.5 231 213.5 231 213.5 234 214.5 236 215.5 236M262.5 224 260.5 224 261.5 227 263.5 228M338.5 230 338.5 228 342.5 230 344.5 233 344.5 235 345.5 235M155.5 141 153.5 142 136.5 164 135.5 167 130.5 173 114.5 201 110.5 211 110.5 215M172.5 147 172.5 145 168.5 151 168.5 153 160.5 179 156.5 202M184.5 145 184.5 143 185.5 145 186.5 145 186.5 148 189.5 158 189.5 167 191.5 178 192.5 180 192.5 183 199.5 199 199.5 203M198.5 142 197.5 139 201.5 140 213.5 148 224.5 157 233.5 171 242.5 183 246.5 191 247.5 195M162.5 117 161.5 119 160.5 118 160.5 111 161.5 108 162.5 108 165.5 117 165.5 124" fill="none" stroke="black" stroke-width="2" /></svg>