<?xml version="1.0" encoding="utf-8" ?>
<svg baseProfile="full" height="757" version="1.1" width="535" xmlns="http://www.w3.org/2000/svg" xmlns:ev="http://www.w3.org/2001/xml-events" xmlns:xlink="http://www.w3.org/1999/xlink"><defs /><rect fill="white" height="757" width="535" x="0" y="0" /><path d="M61.5 46 60.5 46 58.5 66 58.5 91 57.5 93 57.5 107M186.5 34 185.5 34 185.5 86 187.5 92M324.5 55 319.5 58 318.5 61 318.5 81 322.5 108 322.5 112 323.5 114 324.5 122M413.5 121 411.5 121 410.5 142 411.5 151 412.5 198 415.5 247M401.5 307 398.5 307 398.5 328 402.5 365 402.5 388M439.5 411 438.5 412 437.5 432 440.5 475 440.5 495M482.5 348 481.5 346 483.5 390 487.5 437M375.5 206 373.5 223 374.5 251 376.5 258 376.5 267M39.5 324 38.5 321 37.5 321 36.5 382 37.5 403M79.5 495 79.5 492 80.5 495 81.5 508 79.5 544 79.5 560M35.5 147 34.5 144 35.5 160 34.5 179 34.5 207M118.5 64 116.5 61 115.5 82 116.5 98 118.5 109M290.5 65 287.5 63 286.5 61 284.5 72 286.5 101 287.5 103 287.5 108 286.5 109 286.5 108M373.5 39 372.5 39 371.5 63 372.5 80 373.5 85 373.5 99M460.5 57 458.5 63 459.5 99 460.5 104 459.5 119M493.5 171 490.5 172 489.5 195 489.5 228 488.5 246M510.5 534 507.5 544 506.5 576 508.5 592 508.5 613M37.5 507 34.5 514 35.5 572 35.5 601 34.5 614 35.5 614M85.5 638 82.5 638 81.5 655 82.5 663 82.5 673 80.5 696 78.5 704 78.5 707 80.5 708M110.5 344 109.5 354 109.5 423 111.5 435M429.5 555 423.5 563 424.5 589 425.5 596M477.5 644 476.5 646 475.5 661 480.5 673M512.5 633 511.5 630 508.5 635 506.5 642 509.5 645 510.5 644 511.5 640 510.5 627 507.5 625 506.5 627M33.5 627 32.5 625 33.5 631 31.5 641 27.5 647 29.5 648 33.5 644 32.5 628 30.5 628M425.5 268 423.5 261 421.5 260 419.5 267 418.5 275 419.5 276 421.5 276 423.5 273 423.5 265 420.5 262 419.5 262M488.5 262 482.5 273 482.5 275 484.5 278 486.5 278 489.5 275 489.5 269 485.5 262 484.5 262 484.5 263M374.5 115 372.5 114 370.5 121 368.5 124 368.5 127 373.5 128 374.5 128 375.5 126 372.5 120 367.5 114M62.5 112 61.5 112 59.5 118 58.5 125 57.5 126 57.5 129 59.5 129 63.5 126 62.5 117 59.5 114M37.5 222 35.5 219 32.5 234 36.5 235 35.5 220 34.5 218 32.5 217M110.5 447 109.5 448 108.5 455 104.5 462 108.5 464 110.5 461 110.5 459 111.5 459 110.5 450 109.5 450 107.5 448 106.5 452M83.5 579 80.5 578 78.5 586 78.5 594 79.5 594 79.5 595 82.5 592 82.5 586 78.5 575 77.5 575" fill="none" stroke="black" stroke-width="2" /></svg>