<?xml version="1.0" encoding="utf-8" ?>
<svg baseProfile="full" height="757" version="1.1" width="535" xmlns="http://www.w3.org/2000/svg" xmlns:ev="http://www.w3.org/2001/xml-events" xmlns:xlink="http://www.w3.org/1999/xlink"><defs /><rect fill="white" height="757" width="535" x="0" y="0" /><path d="M235.5 263 235.5 284 236.5 284 236.5 289 237.5 289 238.5 294 239.5 294 240.5 297 241.5 297 242.5 299 245.5 300 245.5 301 247.5 301 247.5 302 249.5 302 249.5 303 251.5 303 255.5 305 267.5 305 268.5 304 270.5 304 270.5 303 271.5 303 271.5 302 272.5 302 272.5 301 273.5 301 276.5 298 276.5 297 278.5 296 278.5 294 279.5 294 280.5 291 283.5 287 283.5 284 284.5 284 284.5 280 285.5 280 285.5 259 283.5 258M247.5 231 245.5 230 245.5 229 240.5 229 237.5 232 236.5 232 234.5 234 234.5 235 233.5 235 233.5 236 230.5 239 228.5 244 227.5 244 227.5 246 225.5 250 225.5 253 223.5 257 223.5 262 222.5 263 222.5 282 223.5 283 224.5 290 225.5 291 226.5 297 227.5 298 227.5 308 225.5 312 223.5 313 223.5 314 218.5 315 218.5 313M258.5 230 258.5 229 260.5 229 261.5 228 272.5 228 280.5 232 280.5 233 284.5 235 288.5 239 288.5 241 293.5 249 294.5 257 295.5 258 295.5 299 296.5 299 296.5 300 298.5 301 305.5 301 307.5 300 307.5 299 307.5 300M235.5 267 234.5 267 236.5 267 240.5 264 241.5 262 243.5 261 248.5 256 252.5 248 253.5 248 253.5 251 254.5 253 262.5 257 269.5 258 269.5 259 271.5 259 272.5 260 276.5 260 277.5 261 281.5 261 282.5 260 284.5 260M247.5 273 247.5 276 246.5 277 246.5 278 247.5 277M271.5 274 271.5 273 272.5 273 272.5 277 271.5 277M257.5 281 257.5 285 255.5 288 259.5 290M254.5 297 255.5 299 262.5 299 262.5 298 263.5 298M270.5 306 270.5 320 271.5 321 271.5 324 272.5 324 272.5 325M250.5 323 249.5 323 249.5 324 250.5 324 250.5 326 252.5 327 252.5 328 253.5 328 254.5 330 258.5 331 259.5 332 266.5 332 267.5 331 269.5 331 271.5 329 272.5 329 272.5 328 273.5 328 274.5 326M249.5 325 249.5 324 247.5 324 247.5 325 244.5 326 244.5 327 243.5 327 238.5 331 236.5 331 227.5 340 227.5 341 226.5 341 223.5 345 223.5 346 222.5 346 216.5 357 216.5 359 215.5 359 215.5 364 217.5 364 221.5 367 226.5 368 228.5 369 228.5 370 232.5 371 232.5 372 233.5 372 233.5 373 235.5 374M239.5 364 239.5 374 240.5 375 240.5 382 241.5 383 241.5 387 242.5 387 242.5 391 243.5 391 243.5 396 244.5 397 244.5 438 243.5 439 243.5 450 242.5 450 242.5 461 241.5 463 241.5 470 240.5 471 240.5 479 239.5 479 239.5 487 238.5 488 237.5 499 236.5 500 236.5 503 235.5 503 235.5 507 234.5 508 234.5 511 233.5 511 232.5 520 231.5 521 231.5 524 230.5 525 230.5 530 229.5 532 229.5 535 228.5 536 228.5 540 227.5 541 227.5 545 226.5 547 225.5 559M280.5 325 280.5 324 279.5 324 278.5 322 283.5 322 283.5 323 285.5 323 287.5 325 290.5 326 297.5 333 298.5 333 298.5 334 300.5 335 301.5 337 302.5 337 307.5 347 308.5 347 310.5 351 311.5 351 312.5 356 313.5 356 313.5 363 312.5 363 311.5 365 310.5 365 310.5 366 309.5 366 309.5 367 308.5 367 308.5 368 306.5 369 306.5 370 305.5 370 305.5 371M302.5 360 302.5 363 303.5 364 303.5 371 302.5 372 302.5 377 301.5 377 301.5 385 300.5 385 300.5 423 301.5 424 301.5 432 302.5 433 302.5 438 303.5 440 305.5 456 306.5 457 307.5 466 310.5 476 310.5 479 311.5 480 312.5 484 312.5 488 315.5 499 316.5 507 317.5 507 317.5 511 319.5 515 319.5 518 320.5 519 320.5 521 322.5 525 322.5 528 327.5 542 327.5 544 328.5 545 328.5 547 331.5 553 331.5 556 332.5 557 333.5 562 334.5 562 334.5 565M226.5 562 224.5 562 224.5 563 226.5 565 228.5 565 229.5 566 233.5 567 245.5 567 253.5 569 261.5 569 263.5 570 306.5 570 309.5 569 336.5 569 337.5 568M223.5 368 223.5 371 222.5 372 222.5 375 221.5 376 221.5 381 220.5 381 220.5 385 218.5 386 218.5 392 217.5 392 217.5 397 216.5 397 216.5 398 216.5 397 215.5 397 214.5 393 213.5 393 213.5 392 212.5 392 212.5 391 211.5 391 210.5 389 210.5 387 208.5 384 208.5 382 207.5 382 206.5 378 205.5 378 204.5 376 204.5 373 203.5 373 203.5 371 201.5 368 201.5 366 200.5 366 200.5 362 199.5 361 199.5 359 197.5 355 197.5 351 196.5 351 196.5 350 194.5 350 194.5 347 195.5 347 196.5 343 197.5 342 197.5 337 198.5 337 198.5 330 196.5 328 196.5 327 194.5 327 194.5 326 189.5 326 189.5 328M180.5 331 180.5 330 176.5 331 176.5 332 175.5 332 171.5 337 170.5 341 171.5 346 172.5 346 172.5 347 174.5 349 178.5 348M176.5 350 176.5 349 177.5 351 177.5 354 178.5 354 179.5 362 180.5 362 180.5 367 181.5 367 181.5 369 184.5 373 185.5 380 187.5 382 187.5 384 188.5 384 188.5 388 189.5 389 189.5 391 192.5 395 192.5 397 193.5 398 194.5 404 195.5 404 196.5 409 197.5 409 197.5 411 199.5 412 199.5 414 201.5 416 202.5 416 202.5 417 203.5 417 203.5 418 204.5 418 205.5 420M241.5 387 237.5 396 230.5 406 229.5 409 224.5 414 222.5 418 217.5 423 217.5 424 216.5 424 215.5 426 212.5 426 212.5 427 210.5 427 208.5 426 208.5 425M314.5 371 315.5 379 317.5 383 317.5 386 318.5 388 318.5 393 319.5 394 320.5 407 321.5 411 322.5 412 322.5 415 323.5 415 323.5 426 324.5 427 324.5 438 325.5 439 325.5 456 324.5 457M302.5 407 304.5 411 304.5 414 306.5 421 306.5 425 307.5 426 308.5 432 309.5 433 310.5 445 311.5 446 311.5 451 312.5 453 312.5 461 313.5 462 313.5 471M314.5 476 314.5 484 316.5 485 320.5 485 324.5 483 328.5 483 328.5 484 329.5 483M327.5 462 327.5 467 329.5 469 329.5 471 330.5 471 331.5 477 332.5 477 332.5 479 333.5 480 333.5 483 332.5 485 330.5 486M255.5 570 255.5 568 256.5 568 257.5 570 257.5 588 260.5 610 260.5 645 261.5 649 261.5 664 262.5 666 262.5 677M280.5 571 279.5 584 278.5 587 278.5 611 277.5 618 277.5 628 276.5 630 275.5 668M300.5 572 299.5 572 298.5 574 299.5 575 303.5 587 303.5 589 312.5 618 317.5 629 324.5 648 325.5 653 328.5 659 328.5 661M317.5 573 317.5 571 318.5 572 318.5 576 320.5 585 326.5 602 327.5 603 327.5 606 329.5 611 329.5 614 333.5 627 333.5 629 334.5 630 336.5 642 339.5 651 340.5 662M263.5 682 263.5 681 261.5 681 259.5 684 242.5 701 239.5 706 239.5 708 243.5 708 243.5 707 245.5 707 247.5 705 250.5 704 257.5 699 261.5 697 268.5 695 269.5 694 273.5 694 275.5 693 275.5 692 274.5 692M263.5 651 276.5 651 275.5 651 275.5 671 276.5 673 277.5 693 275.5 693M322.5 642 323.5 641 331.5 639 334.5 637 337.5 637M329.5 664 328.5 667 327.5 667 327.5 668 323.5 673 318.5 682 315.5 685 315.5 686 312.5 690 312.5 692 314.5 692 315.5 691 320.5 690 324.5 688 329.5 687 330.5 686 335.5 685 336.5 684 338.5 684 339.5 683 341.5 683 342.5 682 346.5 681 346.5 676 344.5 669 344.5 663 343.5 662 342.5 655 341.5 653M268.5 656 267.5 652 266.5 655 263.5 658 266.5 655 271.5 652 270.5 654 267.5 656 265.5 660 266.5 661 268.5 659 272.5 657 269.5 662 263.5 668 263.5 669 264.5 669 269.5 665 272.5 664 263.5 673 263.5 674 261.5 676 263.5 676 269.5 672 273.5 671 267.5 679 262.5 684 262.5 685 261.5 685 262.5 686 270.5 682 271.5 682 271.5 683 256.5 699 254.5 702 253.5 702 254.5 702 258.5 697 262.5 693 263.5 693 263.5 692 250.5 703 249.5 703 257.5 693 263.5 687 263.5 686 260.5 689 249.5 697 248.5 699 252.5 695 253.5 693 262.5 685 262.5 684 248.5 697 248.5 698 248.5 697 253.5 691 255.5 690 258.5 685 260.5 679 262.5 678 263.5 676 264.5 676 264.5 671M265.5 665 263.5 658 263.5 654 262.5 654 261.5 660 261.5 666 263.5 675 263.5 676 262.5 675 261.5 666 261.5 653 260.5 652 260.5 663 259.5 669 259.5 678 260.5 685 261.5 688 261.5 680 263.5 672 265.5 651 266.5 657 266.5 686 267.5 691 267.5 687 272.5 659 272.5 655 271.5 669 271.5 681 272.5 690 275.5 653 274.5 662 274.5 689 274.5 676 275.5 665 275.5 691 270.5 691 259.5 695 246.5 702 245.5 703 248.5 702 250.5 700 259.5 695 269.5 691 263.5 694 245.5 706 255.5 699 268.5 693M330.5 645 329.5 643 325.5 645 325.5 646 327.5 643 328.5 643 330.5 639 329.5 639 325.5 645 325.5 647 327.5 647 331.5 645 334.5 642 335.5 642 334.5 642 328.5 649 327.5 653 329.5 653 333.5 650 336.5 649 335.5 653 334.5 653 331.5 659 329.5 660 328.5 647 327.5 642 326.5 642 326.5 641 328.5 660 331.5 670 331.5 673 332.5 673 331.5 672 332.5 646 333.5 646 334.5 648 335.5 662 337.5 672 338.5 673 338.5 649 337.5 641 338.5 653 340.5 660 343.5 666 343.5 668 344.5 669 343.5 661 341.5 653 340.5 652 340.5 663 341.5 668 342.5 668 342.5 670 343.5 671 338.5 672 330.5 679 324.5 683 334.5 673 334.5 672 337.5 668 336.5 668 319.5 689 324.5 685 332.5 672 334.5 666 333.5 666 327.5 673 325.5 677 317.5 688 326.5 674 330.5 665 319.5 681 315.5 690 318.5 688 334.5 673 336.5 672 329.5 679 326.5 683 326.5 684 325.5 684 327.5 685 330.5 684 340.5 677 341.5 677 341.5 676 336.5 679 333.5 682 329.5 684 329.5 685 333.5 684 335.5 682 339.5 680 341.5 680 337.5 680 336.5 678 336.5 673 334.5 680 334.5 682 338.5 680 341.5 674 341.5 672 339.5 674 340.5 682 341.5 682 341.5 683M284.5 321 284.5 320 283.5 322 283.5 337 284.5 339 284.5 342 285.5 343 287.5 354 288.5 354 288.5 357 289.5 357 291.5 367 294.5 373 295.5 377M287.5 327 289.5 345 290.5 346 291.5 352 293.5 356 294.5 363 295.5 364 295.5 375 295.5 371 294.5 365 293.5 364 291.5 346 288.5 332 286.5 328 285.5 328 285.5 339 286.5 352 288.5 363 292.5 371 293.5 375 296.5 380 297.5 380 297.5 381 296.5 380 293.5 352 294.5 361 295.5 363 297.5 375 299.5 380 300.5 380 299.5 368 294.5 347 288.5 331 287.5 331 287.5 330M247.5 327 246.5 326 246.5 349 245.5 351 245.5 356 243.5 364 243.5 368 242.5 372 241.5 372 241.5 373 244.5 364 246.5 347 247.5 346 247.5 332 246.5 327 244.5 361 242.5 372 241.5 372 241.5 327 238.5 373 238.5 361 239.5 358 240.5 343 242.5 330 243.5 329 243.5 339 242.5 341 241.5 362 241.5 358 245.5 336 245.5 326 245.5 332 242.5 345 241.5 359M284.5 330 283.5 329 284.5 328 284.5 324 283.5 322 284.5 331 286.5 341 289.5 349 287.5 327 289.5 339 290.5 352 293.5 366 294.5 367 289.5 335 288.5 334 288.5 327 289.5 329 292.5 355 293.5 358 292.5 349 292.5 329 291.5 322 285.5 322 285.5 321 284.5 321 284.5 323 284.5 322 285.5 322M252.5 322 250.5 319 244.5 319 240.5 320 237.5 323 237.5 326 239.5 325 239.5 324 247.5 321 247.5 320 238.5 324 237.5 327 241.5 326 246.5 322 249.5 322 249.5 323 244.5 324 242.5 326 241.5 326 241.5 327 240.5 327 244.5 326M281.5 321 279.5 319 278.5 319 283.5 318 286.5 318 290.5 320 291.5 321 291.5 323 289.5 323 283.5 322 278.5 320 271.5 319 283.5 319 290.5 322 296.5 329M242.5 407 241.5 407 241.5 428 240.5 436 240.5 424 241.5 408 242.5 404 242.5 397 242.5 432 241.5 432 241.5 433 241.5 424 242.5 407 243.5 403 243.5 391 242.5 392 239.5 411 238.5 424 238.5 431 239.5 433 239.5 415 237.5 399 236.5 411 236.5 442 237.5 408 236.5 399 234.5 412 234.5 444 241.5 391 242.5 392 242.5 398 241.5 399 241.5 402 241.5 395 240.5 393 238.5 420 238.5 429 239.5 436 240.5 435 241.5 430 240.5 422 239.5 423 238.5 436 239.5 440 241.5 442 242.5 441 242.5 439 241.5 437 239.5 438 239.5 443 242.5 443M302.5 418 304.5 425 304.5 433 304.5 412 303.5 412 303.5 413 304.5 433 305.5 438 305.5 414 305.5 433 304.5 434 304.5 437" fill="none" stroke="black" stroke-width="2" /></svg>