<?xml version="1.0" encoding="utf-8" ?>
<svg baseProfile="full" height="757" version="1.1" width="535" xmlns="http://www.w3.org/2000/svg" xmlns:ev="http://www.w3.org/2001/xml-events" xmlns:xlink="http://www.w3.org/1999/xlink"><defs /><rect fill="white" height="757" width="535" x="0" y="0" /><path d="M181.5 257 181.5 254 171.5 237 168.5 226 168.5 202 171.5 186 174.5 180 175.5 180 180.5 174 182.5 170 185.5 167 193.5 161 196.5 160 205.5 152 214.5 146 227.5 141 252.5 137 264.5 138 275.5 141 288.5 147 294.5 153 300.5 157 304.5 163 306.5 169 307.5 169 307.5 174 309.5 183 309.5 192 302.5 222 297.5 232 292.5 237 282.5 242 282.5 243 270.5 250 268.5 249 268.5 246M231.5 186 231.5 190 230.5 191 228.5 191 228.5 190 226.5 190 225.5 189 221.5 189 217.5 191 208.5 199 207.5 201 207.5 205 211.5 208 212.5 210 225.5 220 233.5 222 241.5 222 246.5 219 254.5 203 254.5 198 252.5 194 252.5 192 251.5 190 247.5 186 240.5 183 233.5 183 230.5 185 228.5 185 228.5 184 229.5 184M212.5 164 210.5 166 208.5 166 208.5 168 210.5 173 211.5 174 212.5 173 212.5 165 210.5 165 208.5 167 205.5 173 209.5 173 212.5 166 209.5 171 209.5 175 210.5 176 212.5 176 213.5 175 213.5 172 212.5 171 208.5 171 208.5 172 209.5 172 210.5 171 210.5 169 215.5 169M273.5 165 271.5 166 268.5 166 268.5 174 269.5 176 271.5 176 272.5 175 272.5 173 273.5 173 273.5 171 269.5 167 269.5 170 273.5 172 273.5 167 271.5 164 271.5 169 273.5 171 274.5 171 274.5 168 272.5 165 270.5 166 270.5 169 273.5 169 273.5 168 274.5 168M207.5 154 205.5 155 202.5 155 200.5 157 202.5 154 205.5 152 209.5 151 218.5 151 224.5 153 229.5 153 231.5 154 239.5 154 241.5 153 250.5 154 253.5 153 257.5 150 263.5 149 264.5 151 273.5 151 275.5 153 277.5 153 278.5 152 289.5 152 289.5 153 292.5 153 294.5 154 294.5 155 295.5 155 295.5 161 294.5 162M182.5 261 182.5 259 182.5 260 182.5 259 183.5 261 188.5 266 189.5 266 189.5 267 207.5 273 212.5 274 230.5 273 230.5 272 233.5 272 249.5 266 256.5 257 269.5 246 268.5 245M182.5 266 181.5 264 181.5 267 178.5 273 177.5 280 174.5 289 169.5 298 167.5 300 159.5 316 157.5 322 151.5 334 147.5 340 146.5 344 141.5 354 138.5 357 135.5 365 134.5 366 134.5 371 138.5 378 139.5 384 142.5 389 145.5 400 146.5 412 148.5 417 149.5 417 149.5 416 150.5 416 153.5 407 158.5 400 162.5 397 169.5 382 176.5 373 178.5 367 194.5 335 202.5 323 204.5 318 205.5 321 205.5 326 204.5 327 202.5 335 198.5 363 199.5 366 199.5 384 200.5 387 200.5 391 203.5 400 205.5 424 209.5 424 212.5 422 222.5 419 230.5 419 234.5 420 248.5 417 251.5 416 255.5 411 255.5 396 254.5 395 254.5 389 253.5 384 253.5 338 257.5 317 255.5 301 264.5 305 281.5 311 305.5 325 311.5 326 322.5 333 329.5 336 338.5 336 340.5 331 340.5 315 339.5 309 335.5 297 333.5 294 320.5 283 308.5 277 298.5 264 289.5 261 277.5 259 272.5 256 271.5 256 261.5 263M132.5 370 130.5 370 129.5 372 127.5 372 127.5 373 125.5 374 124.5 376 120.5 379 120.5 381 117.5 386 115.5 387 114.5 390 112.5 390 111.5 391 109.5 395 108.5 401 107.5 402 107.5 410 108.5 410 108.5 411 112.5 413 114.5 410 114.5 407 116.5 403 116.5 418 118.5 422 118.5 424 119.5 424 123.5 421 124.5 415 126.5 413 127.5 415 127.5 427 128.5 434 130.5 437 134.5 429 136.5 420 136.5 437 137.5 440 139.5 442 140.5 440 141.5 429 143.5 433 143.5 436 146.5 441 150.5 444 153.5 444 154.5 443 154.5 439 155.5 437 156.5 429 154.5 425 149.5 420 147.5 420 147.5 418M342.5 341 341.5 341 339.5 337 339.5 341 341.5 343 342.5 346 346.5 351 348.5 350 348.5 347 349.5 345 349.5 343 348.5 342 348.5 338 348.5 339 351.5 339 353.5 337 353.5 333 349.5 332 349.5 333 350.5 333 353.5 331 354.5 329 354.5 326 351.5 325 353.5 325 356.5 319 356.5 317 351.5 317 355.5 316 356.5 312 353.5 308 349.5 306 346.5 306 343.5 304 339.5 303 337.5 302 338.5 301M208.5 428 207.5 428 208.5 428 208.5 438 206.5 444 203.5 461 202.5 465 201.5 466 200.5 485 195.5 517 194.5 531 192.5 537 192.5 546 198.5 545 206.5 545 226.5 548 226.5 547 225.5 547 225.5 545 223.5 543 223.5 531 229.5 515 231.5 506 231.5 503 230.5 502 230.5 493 233.5 483 233.5 470 232.5 468 233.5 467 234.5 461 235.5 461 235.5 460 237.5 460 237.5 467 236.5 472 239.5 481 239.5 508 240.5 513 240.5 529 241.5 540 245.5 542 272.5 542 275.5 541 292.5 541 291.5 537 285.5 528 277.5 506 274.5 485 272.5 479 271.5 472 271.5 462 267.5 452 265.5 445 265.5 442 264.5 441 261.5 433 260.5 428 253.5 413 253.5 412 254.5 412M191.5 549 187.5 549 181.5 552 179.5 552 170.5 560 170.5 561 168.5 563 167.5 569 172.5 575 180.5 581 184.5 583 194.5 585 203.5 585 207.5 586 213.5 584 215.5 580 215.5 577 216.5 575 215.5 564 217.5 557 219.5 554 219.5 551M245.5 542 244.5 542 244.5 543 246.5 546 250.5 567 252.5 569 273.5 573 286.5 573 292.5 572 299.5 572 312.5 569 314.5 568 316.5 565 318.5 559 318.5 552 313.5 545 309.5 541 306.5 540 303.5 542 295.5 545 295.5 539M232.5 170 232.5 171 230.5 173 230.5 174 229.5 174 226.5 180 226.5 185 227.5 185 228.5 187 232.5 187 233.5 185 234.5 185 235.5 183 236.5 183 236.5 180 234.5 176 232.5 174 231.5 174 231.5 173M246.5 180 246.5 179 247.5 179M246.5 181 246.5 180 245.5 181 244.5 185 242.5 188 242.5 195 243.5 196 243.5 199 244.5 200 247.5 200 248.5 198 249.5 198 250.5 194 251.5 193 250.5 183 249.5 183 250.5 176 250.5 179M211.5 186 211.5 190 210.5 193 213.5 204 214.5 205 222.5 205 225.5 202 224.5 197 216.5 189 208.5 189 208.5 187" fill="none" stroke="black" stroke-width="2" /></svg>