<?xml version="1.0" encoding="utf-8" ?>
<svg baseProfile="full" height="757" version="1.1" width="535" xmlns="http://www.w3.org/2000/svg" xmlns:ev="http://www.w3.org/2001/xml-events" xmlns:xlink="http://www.w3.org/1999/xlink"><defs /><rect fill="white" height="757" width="535" x="0" y="0" /><path d="M236.5 92 234.5 90 235.5 90 235.5 101 236.5 104 236.5 124 237.5 124M278.5 81 277.5 82 277.5 94 275.5 115 275.5 124 277.5 131M179.5 93 178.5 101 181.5 131 181.5 139 180.5 141M127.5 84 126.5 89 126.5 143 128.5 156 129.5 158M154.5 63 152.5 81 153.5 114 157.5 116M252.5 25 249.5 24 251.5 31 252.5 53 248.5 80 250.5 85 253.5 86M397.5 101 396.5 101 395.5 107 397.5 119 396.5 143 396.5 170 400.5 235 400.5 252 401.5 254M363.5 257 361.5 260 365.5 284 364.5 336 366.5 340M463.5 226 462.5 233 471.5 275 470.5 302M352.5 9 353.5 19 353.5 50 351.5 69 351.5 79 350.5 82 352.5 83M481.5 40 478.5 45 485.5 85 487.5 103M41.5 212 41.5 219 42.5 224 42.5 269 44.5 285 51.5 313M113.5 276 112.5 288 114.5 312 115.5 316 116.5 338 121.5 359 120.5 364 117.5 369 114.5 369 111.5 359M58.5 34 55.5 47 55.5 99M447.5 375 447.5 369 451.5 383 454.5 400 454.5 409 452.5 427 448.5 452 447.5 456 446.5 456M322.5 388 322.5 386 320.5 394 319.5 412 319.5 445 312.5 525 310.5 529M377.5 402 378.5 399 378.5 403 384.5 428 386.5 443 387.5 474 385.5 502 385.5 528 386.5 531 390.5 523M496.5 423 497.5 422 498.5 446 497.5 505 495.5 513M33.5 392 32.5 394 31.5 409 35.5 448 36.5 488 40.5 523M118.5 455 115.5 454 117.5 456 119.5 461 119.5 494 120.5 505 122.5 513 123.5 524 124.5 528 126.5 530 126.5 531M469.5 139 465.5 137 465.5 161 461.5 183 461.5 187 460.5 189 459.5 189 455.5 193 452.5 193M440.5 260 433.5 269 432.5 273 432.5 286 430.5 318 430.5 354 431.5 353M512.5 232 511.5 234 507.5 236 507.5 238 503.5 251 504.5 316 502.5 328 501.5 353M99.5 177 99.5 174 101.5 181 101.5 230 100.5 246 99.5 248 98.5 260 104.5 248M431.5 118 429.5 113 428.5 107M428.5 43 425.5 38 423.5 37 424.5 42 425.5 43 426.5 51 429.5 100 429.5 115 430.5 128 433.5 142 433.5 148M349.5 133 347.5 132 341.5 138 335.5 159 332.5 187 332.5 216 330.5 223M24.5 105 23.5 105 23.5 130 25.5 178 26.5 194 29.5 215M89.5 98 90.5 101 90.5 110 87.5 122 86.5 123 85.5 129 84.5 154 87.5 154 92.5 152 99.5 145 105.5 137 107.5 123 105.5 119 105.5 115 106.5 115M106.5 15 103.5 15 102.5 31 100.5 40 100.5 46 98.5 60 98.5 72 101.5 76 101.5 77 106.5 77 106.5 76 109.5 76 110.5 75 111.5 75 111.5 76M202.5 21 202.5 19 198.5 31 195.5 36 192.5 44 192.5 76 191.5 93 193.5 95 193.5 97M76.5 323 75.5 323 74.5 327 76.5 339 79.5 393M190.5 383 190.5 386 186.5 397 187.5 434 189.5 462M393.5 342 394.5 342 397.5 362 404.5 394" fill="none" stroke="black" stroke-width="2" /></svg>