<?xml version="1.0" encoding="utf-8" ?>
<svg baseProfile="full" height="757" version="1.1" width="535" xmlns="http://www.w3.org/2000/svg" xmlns:ev="http://www.w3.org/2001/xml-events" xmlns:xlink="http://www.w3.org/1999/xlink"><defs /><rect fill="white" height="757" width="535" x="0" y="0" /><path d="M108.5 22 104.5 35 99.5 61 100.5 67 102.5 72 105.5 72 108.5 57 108.5 47M184.5 217 183.5 223 183.5 252 182.5 264 182.5 327M75.5 205 74.5 217 72.5 286 72.5 301 74.5 334M196.5 538 195.5 560 195.5 610M120.5 382 121.5 384 121.5 423M242.5 75 241.5 79 239.5 100 239.5 118M422.5 40 421.5 43 420.5 64 420.5 110M40.5 140 39.5 142 40.5 150 44.5 150 45.5 149 46.5 145 46.5 140" fill="none" stroke="black" stroke-width="2" /></svg>