<?xml version="1.0" encoding="utf-8" ?>
<svg baseProfile="full" height="757" version="1.1" width="535" xmlns="http://www.w3.org/2000/svg" xmlns:ev="http://www.w3.org/2001/xml-events" xmlns:xlink="http://www.w3.org/1999/xlink"><defs /><rect fill="white" height="757" width="535" x="0" y="0" /><path d="M44.5 155 45.5 155 45.5 150 42.5 144 40.5 144 40.5 160 41.5 172 44.5 178 45.5 178 46.5 176 45.5 168M48.5 149 47.5 141 44.5 131 40.5 125 36.5 125 32.5 132 31.5 142 31.5 163 34.5 190 36.5 196 39.5 197 41.5 197 46.5 195 48.5 193 50.5 183 51.5 164M50.5 129 47.5 113 40.5 99 35.5 96 33.5 96 27.5 108 25.5 115 23.5 139 23.5 185 24.5 196 28.5 213 31.5 219 38.5 225 41.5 225 44.5 223 47.5 220 54.5 210 58.5 195 58.5 176 57.5 169M72.5 163 72.5 161 62.5 153 57.5 150 55.5 150 56.5 152 60.5 156 65.5 156 66.5 154" fill="none" stroke="black" stroke-width="2" /></svg>