<?xml version="1.0" encoding="utf-8" ?>
<svg baseProfile="full" height="757" version="1.1" width="535" xmlns="http://www.w3.org/2000/svg" xmlns:ev="http://www.w3.org/2001/xml-events" xmlns:xlink="http://www.w3.org/1999/xlink"><defs /><rect fill="white" height="757" width="535" x="0" y="0" /><path d="M527.5 309 526.5 305 514.5 296 494.5 283 469.5 269 455.5 260M529.5 578 529.5 576 518.5 564 478.5 530 454.5 513M426.5 610 428.5 610 429.5 609 427.5 606 417.5 598 313.5 523M359.5 670 358.5 668 338.5 654 281.5 609M451.5 182 453.5 181 425.5 168 400.5 155 373.5 140 362.5 132M266.5 602 268.5 600 259.5 590 256.5 589 256.5 594 258.5 597 265.5 600 267.5 600 268.5 599M348.5 126 348.5 123 346.5 121 342.5 119 342.5 118 340.5 118 340.5 122 341.5 122 343.5 125 349.5 127M518.5 717 519.5 717 504.5 703 493.5 694 471.5 674M528.5 145 529.5 144 506.5 129 474.5 104M449.5 88 441.5 81 413.5 61 383.5 42M353.5 28 353.5 27 350.5 23 342.5 18 340.5 18 340.5 19 345.5 24 345.5 25 348.5 27 352.5 27 354.5 26 354.5 25M192.5 619 191.5 617 156.5 586 138.5 571 120.5 558M259.5 725 260.5 725 224.5 693 217.5 689" fill="none" stroke="black" stroke-width="2" /></svg>