<?xml version="1.0" encoding="utf-8" ?>
<svg baseProfile="full" height="757" version="1.1" width="535" xmlns="http://www.w3.org/2000/svg" xmlns:ev="http://www.w3.org/2001/xml-events" xmlns:xlink="http://www.w3.org/1999/xlink"><defs /><rect fill="white" height="757" width="535" x="0" y="0" /><path d="M386.5 293 389.5 293 391.5 294 395.5 298 396.5 302 399.5 308 400.5 313 400.5 325 399.5 329 395.5 336 391.5 340 389.5 341 385.5 346 386.5 346 391.5 352 392.5 356 392.5 375 391.5 379 385.5 388 382.5 390 380.5 393 371.5 398 373.5 398 377.5 408 377.5 422 376.5 425 371.5 433 361.5 441 355.5 443 352.5 445 346.5 447 343.5 447 343.5 450 344.5 450 345.5 455 345.5 464 341.5 474 339.5 475 338.5 477 332.5 481 329.5 481 325.5 483 323.5 483 322.5 484 319.5 484 320.5 484 321.5 487 321.5 495 317.5 499 311.5 503 308.5 507 306.5 507 306.5 506M392.5 291 393.5 291 393.5 290 394.5 290 394.5 291 396.5 291 406.5 299 414.5 307 421.5 311 431.5 323 433.5 327 439.5 335 443.5 344 449.5 365 450.5 381 451.5 386 451.5 402 449.5 413 449.5 417 441.5 447 437.5 455 435.5 457 434.5 460 429.5 466 428.5 469 427.5 469 423.5 474 420.5 479 413.5 487 402.5 494 400.5 494 396.5 496 393.5 496 387.5 499 385.5 499 384.5 500 379.5 500 372.5 503 368.5 503 367.5 504 363.5 504 356.5 506 303.5 506M371.5 417 372.5 417 371.5 416 359.5 411 348.5 409 343.5 406 341.5 406 335.5 403 308.5 394 306.5 392 304.5 392 294.5 388 291.5 388 284.5 384 262.5 377 252.5 372 233.5 366 211.5 355 209.5 355 207.5 353 203.5 351M368.5 412 362.5 409 357.5 408 347.5 404 345.5 404 340.5 402 337.5 402 326.5 396 324.5 396 316.5 392 301.5 387 298.5 385 293.5 384 279.5 378 277.5 378 260.5 371 257.5 369 252.5 368 233.5 361 211.5 350 209.5 350 200.5 346 193.5 342M441.5 422 443.5 421 443.5 416 439.5 398 435.5 388 421.5 367 418.5 365 414.5 360 407.5 354 382.5 341M443.5 429 443.5 425 439.5 424 421.5 415 406.5 412 395.5 408 389.5 408 373.5 405 371.5 403 370.5 403M436.5 435 436.5 438 434.5 441 431.5 443 423.5 447 404.5 452 395.5 452 393.5 453 363.5 455 356.5 454 344.5 450M425.5 453 425.5 455 421.5 457 415.5 462 410.5 465 402.5 469 385.5 474 374.5 474 365.5 476 359.5 476 357.5 477 337.5 477 335.5 478 330.5 478M446.5 426 446.5 425 447.5 425 457.5 435 457.5 436 456.5 437 449.5 437 449.5 436 447.5 436 445.5 435 445.5 434 443.5 434M203.5 348 201.5 348 200.5 346 195.5 344 195.5 343 191.5 340 190.5 338 190.5 335 191.5 335 191.5 333 192.5 333 196.5 330 204.5 329 205.5 330 204.5 330 200.5 328 191.5 327 191.5 328 190.5 328 189.5 330 188.5 330 186.5 334 186.5 337 185.5 338 186.5 344 187.5 344 187.5 345 189.5 346 189.5 347 191.5 349 203.5 355M372.5 412 374.5 412 360.5 406" fill="none" stroke="black" stroke-width="2" /></svg>