<?xml version="1.0" encoding="utf-8" ?>
<svg baseProfile="full" height="757" version="1.1" width="535" xmlns="http://www.w3.org/2000/svg" xmlns:ev="http://www.w3.org/2001/xml-events" xmlns:xlink="http://www.w3.org/1999/xlink"><defs /><rect fill="white" height="757" width="535" x="0" y="0" /><path d="M122.5 99 121.5 101 122.5 100 124.5 100 124.5 101 126.5 102 125.5 102M126.5 102 124.5 100 124.5 92 126.5 90 126.5 89M417.5 20 415.5 22 410.5 33 411.5 40 413.5 42M417.5 58 411.5 64 410.5 71 409.5 72 409.5 73 411.5 75M423.5 69 421.5 71 418.5 84 418.5 87 419.5 89 420.5 89M453.5 37 450.5 39 447.5 48 447.5 49 449.5 50M468.5 33 465.5 37 464.5 45 464.5 46 468.5 46M492.5 33 486.5 48 486.5 52M494.5 53 494.5 54 490.5 59 485.5 77M471.5 84 467.5 83 465.5 87 466.5 94 465.5 96M453.5 83 448.5 88 444.5 94 442.5 99 442.5 92M439.5 55 432.5 58 427.5 63 425.5 63 420.5 59M394.5 25 391.5 27 385.5 38 385.5 40 383.5 41 381.5 40 379.5 36M366.5 20 364.5 28 364.5 35 362.5 30M348.5 16 343.5 31 341.5 33 338.5 33 335.5 31M307.5 14 305.5 18 304.5 31 303.5 31M285.5 21 283.5 36 282.5 36M265.5 17 261.5 21 257.5 33 256.5 47 253.5 47M177.5 31 170.5 41 163.5 45 161.5 44M120.5 29 118.5 41 117.5 58 114.5 60 112.5 60M69.5 47 65.5 53 63.5 60 62.5 69 60.5 73 57.5 74M33.5 39 32.5 41 31.5 52 38.5 75 42.5 85 45.5 90 47.5 89 48.5 83M56.5 68 59.5 70 70.5 95 74.5 102 78.5 106 80.5 107M104.5 89 106.5 89 111.5 99 113.5 101 115.5 102 118.5 99M137.5 76 145.5 79 147.5 81 150.5 81 152.5 79 153.5 76M169.5 46 183.5 54 193.5 53M252.5 40 255.5 46 260.5 50 271.5 44M326.5 31 328.5 40 335.5 50 338.5 50 344.5 47M361.5 34 364.5 37 370.5 48 377.5 54 378.5 54M408.5 44 413.5 49 419.5 61 421.5 61 424.5 59M456.5 41 459.5 44 464.5 52 467.5 53 471.5 51 474.5 48M491.5 52 490.5 59 480.5 80 476.5 85 472.5 88M451.5 89 450.5 92 443.5 104 441.5 106 436.5 107M425.5 96 425.5 98 416.5 102 412.5 99 411.5 97M170.5 39 162.5 51 147.5 65 143.5 63M92.5 43 87.5 50 85.5 73M48.5 32 45.5 33 43.5 48 51.5 62M37.5 23 35.5 21 32.5 32 30.5 78 29.5 84 25.5 87 23.5 84 19.5 80 18.5 80 15.5 88 16.5 97 19.5 109 23.5 117 27.5 122M36.5 113 39.5 111 43.5 112 50.5 120 61.5 128 66.5 128 69.5 126M83.5 107 84.5 110 84.5 133 86.5 141 87.5 141 88.5 139M107.5 77 108.5 75 109.5 86 110.5 88 112.5 88 114.5 85M141.5 56 146.5 67 149.5 70 152.5 69 156.5 65 163.5 51M177.5 42 184.5 52 185.5 55 187.5 57 189.5 56M223.5 42 221.5 46 221.5 48M241.5 41 237.5 49 238.5 54" fill="none" stroke="black" stroke-width="2" /></svg>