<?xml version="1.0" encoding="utf-8" ?>
<svg baseProfile="full" height="757" version="1.1" width="535" xmlns="http://www.w3.org/2000/svg" xmlns:ev="http://www.w3.org/2001/xml-events" xmlns:xlink="http://www.w3.org/1999/xlink"><defs /><rect fill="white" height="757" width="535" x="0" y="0" /><path d="M71 539 67 539 61 542 62 545 81 547 104 547 121 545 122 543 120 541 115 540 115 539 96 539M92 524 86 523 48 528 30 535 26 539 22 544 22 545 24 547 24 549 30 554 37 558 50 561 68 563 87 563 97 564 122 564 124 563 132 562 141 557 146 551 147 546 146 541 135 531 128 527 112 522 104 522 101 523 101 524M87 536 86 536 85 540 91 540M91 507 91 521 89 534M82 520 83 520 82 518 81 518 74 513 62 511M47 511 47 510 39 510 33 511 33 512 35 514 44 513 45 510" fill="none" stroke="black" stroke-width="2" /></svg>