<?xml version="1.0" encoding="utf-8" ?>
<svg baseProfile="full" height="757" version="1.1" width="535" xmlns="http://www.w3.org/2000/svg" xmlns:ev="http://www.w3.org/2001/xml-events" xmlns:xlink="http://www.w3.org/1999/xlink"><defs /><rect fill="white" height="757" width="535" x="0" y="0" /><path d="M315 306 312 312 310 325 308 329 306 337 304 340 303 345 302 346 301 350 301 355 297 363 297 366 295 370 295 373 294 373 293 379 292 380 292 383 290 386 290 388M314 303 311 309 310 309 309 314 303 327 302 333 299 339 299 341 297 345 295 353 294 354 294 358 293 359 293 365 292 366 291 374 290 375 290 378 289 379 289 382 288 383 288 387 288 386 290 384 293 375 293 369 294 365 298 358 300 352 302 350 300 357 297 363 296 368 293 375 293 377 294 368 298 356 301 350 305 336 305 333 304 335 293 371 293 365 301 341 303 332 299 343 298 351 294 364 297 356 300 351 306 330 309 323 309 318 305 334 305 336 306 335 310 325 313 314 315 312 315 311 316 311 315 311 310 322 310 320 313 314 315 312 316 308 314 316 316 310 317 308 318 307 318 308 316 309 315 313 319 306 319 305 318 305 317 307 316 307 316 306 314 307 311 315 313 308 313 304 314 303 309 313 307 318 307 320 311 310 311 307 310 311 308 314 304 325 301 339 298 345 298 347 296 350 296 353 294 356 294 358 292 362 292 365 291 365 291 368 289 371 288 376 287 376 287 380 286 380 286 382 285 382 285 385 284 385 284 386 285 386M273 434 271 445 273 439 275 435 276 435 275 439 273 442 273 445 278 435 277 440 279 434 278 440 278 437 279 433 280 432 280 434 280 431 279 433 277 444 277 437 277 441 276 442 276 444 273 438 273 434 272 434 271 440 271 437M270 446 274 447 269 447 274 447M272 446 272 447 274 447 275 442M271 435 270 443 269 444 269 445 270 445M268 448 268 450 267 450 266 454M274 450 274 449 273 449 274 450 278 450 279 451 278 455 277 456 277 461 276 464 265 464 265 463 264 463 264 458 267 452 267 450M348 205 348 207 347 208 347 207 350 202 351 202 354 194 354 196 349 205 353 193 354 187 355 187 351 198 350 203 348 207 348 205 351 197 355 189 357 187 353 195 353 198 358 187 359 187 355 201 356 196 358 190 359 189 359 187 359 190 358 190 354 202 354 199 356 195 356 197 351 207 353 201M357 183 358 178 359 178 358 179 358 182 357 182 357 184 357 182 359 178 359 180 357 185M357 185 360 179 358 187 360 182 359 186 361 182 361 181 359 181 359 180 358 180 357 184 357 180 357 181 355 182 354 185 354 183 356 180 357 179 357 181 356 182 357 182M359 172 359 170 363 161 365 161 365 160 366 160 367 161 367 170 364 175 364 177 363 178 358 178 358 177 357 177 361 169M362 156 359 156 358 157 352 157 351 158 348 158 348 159 345 159 344 160 340 160 338 161 335 161 334 162 331 162 330 163 324 164 323 165 318 166 317 167 312 168 309 170 305 171 285 186 269 203 265 205 265 206 265 205M368 163 369 171 371 174 372 180 373 181 374 190 375 190 377 199 378 200 378 232 377 237 377 245 376 246 376 250 375 251 375 255 374 256 374 259 375 257M357 151 356 151 356 150 351 150 338 148 324 145 318 145 317 144 310 144 304 143 283 143 283 144 277 144 275 145 268 146 259 151 250 154 247 154 246 155 241 156 237 158 235 158 233 159 233 160 234 159M234 160 229 161 220 166 220 167 218 167 218 168M215 172 221 173 221 174 222 174 227 178 227 179 254 192 261 200M266 206 270 208 273 208 282 211 287 211 305 218 307 220 309 220 318 223 319 224 322 224 332 228 334 228 346 232 349 232 350 233 358 235 361 237 363 237 371 241 373 243 374 243 374 244M370 153 367 154 367 155 372 156 386 166 387 166 404 181 405 183 408 185 408 186 411 187 411 188 412 188 412 190 413 190 420 197 420 198 421 198 423 202M423 205 424 211 427 215 428 222 429 222 432 230 433 235 434 236 434 238 435 238 435 241 436 241 436 245 437 247 437 246 436 246M380 243 386 245 396 245 401 248 411 251 424 253 429 253 432 254 438 254M387 165 388 165 394 170 399 172 407 180 408 180 412 184 416 187 417 187 421 192 422 192 429 199 432 206 441 220 442 224 444 226 446 230 447 230 449 237M441 251 441 252 440 252 442 251 442 250 445 250 449 248M449 249 450 248 452 248 453 246 454 246 453 246 451 243 450 243 449 240M227 155 222 161 219 167 218 167M230 155 232 155 233 154 238 154 242 153 243 152 255 150 256 149 260 148 265 148 266 147 271 147 273 146M361 150 361 147 365 142 367 141 376 142 377 143 376 146 375 146 372 153 371 153 371 154 368 157 368 158 367 158 367 157 361 157 362 148 364 146 364 145 369 144 370 143 372 144 373 147 373 151 371 158 374 150 375 145 374 142 373 142 373 141 371 140 364 143 364 145M235 166 248 166 271 173 274 173 283 176 283 177 285 178M306 185 317 187 318 188 324 190 343 194 344 195 346 195 349 197 353 198 358 201M363 202 367 205 368 207 374 210M386 214 391 217 406 222 412 225 418 230 422 231 422 232 426 234 427 236 429 237M438 243 440 243 440 244 443 246" fill="none" stroke="black" stroke-width="2" /></svg>