<?xml version="1.0" encoding="utf-8" ?>
<svg baseProfile="full" height="757" version="1.1" width="535" xmlns="http://www.w3.org/2000/svg" xmlns:ev="http://www.w3.org/2001/xml-events" xmlns:xlink="http://www.w3.org/1999/xlink"><defs /><rect fill="white" height="757" width="535" x="0" y="0" /><path d="M308 232 308 231 307 231 307 232 306 232 306 233 303 237 301 245 300 245 300 247 299 247 299 251 298 251 298 255 297 256 297 275 298 276 298 283 301 286 301 288 303 290 304 293 305 293 305 294 309 298 310 300 312 300 314 302 314 303 317 304 318 307 320 308 320 306 323 306 325 307 327 311 328 308 331 308 333 312 334 312 335 310 339 310 341 312 344 312 344 311 346 311 347 310 355 308 357 306 359 306 363 302 364 302 364 301 365 301 365 300 366 300 367 298 368 298 372 290 372 288 373 288 373 286 374 286 374 285M315 219 317 218 317 217M318 216 319 215 319 214 318 214 318 215 316 216 314 220 313 220 313 222 311 223 308 229 308 232 307 232 307 234M318 222 318 221 319 221 317 223 315 227 314 227 313 230 311 232 310 236 309 237 309 239 311 237 311 236M325 222 325 221 324 221 322 227 320 230 318 237 318 239 319 239 319 238M332 226 331 226 325 239 324 244 324 243 322 243 322 242M339 222 337 224 334 232 332 245M342 229 340 237 338 240 338 246M347 233 345 240 345 246M366 234 365 240 363 243 359 253 358 253 358 254 360 252M371 238 373 238 372 238 372 240 365 251 361 260 361 265 362 264M371 246 366 260 365 260 365 261M377 250 377 251 375 253 370 262M384 248 381 256 373 271 373 273 374 273M378 272 376 271 376 270 378 269 381 269 382 268 384 269 384 272 383 273 383 275 382 275 381 279 378 280 378 281 377 281 377 282 376 282 374 284 374 285M323 211 324 211 324 210 326 209 330 209 331 208 349 208 350 209 357 209 363 212 366 212 366 213 369 214 369 215 371 215 372 217 375 218 377 220 377 221 378 221 379 224 380 224 381 228 382 228 382 231 383 231 383 233 384 233 385 238 386 238 387 246 388 247 388 266 389 266 389 288 390 289 390 302 389 303 389 308 388 310 387 318 386 319 385 327 384 327 384 330 381 336 381 338 380 339 380 341 378 346M307 252 317 250 319 251 320 253 324 255 325 257M315 253 314 253 312 258 312 263 315 264 317 263 319 259 320 259 320 254 319 254 318 252 314 253 314 259 316 260 317 258 317 253 316 252 314 252 312 256 312 259 314 261 316 261 316 256 314 255 312 257 312 261 314 262 314 263 317 263 317 262 318 262 319 260 320 260 321 257M341 264 343 264 343 263 348 263 349 264 351 264 354 270M343 266 343 265 344 264 344 265 343 265 342 268 342 273 348 273 351 269 351 266 345 265 344 267 344 273 346 273 348 272 349 270 349 266 348 265 346 265 345 267 344 267 344 272 348 272 348 270 349 270 349 267 347 265 344 265 344 266 342 268 342 273 348 273 350 270 350 267 349 267 349 266M342 267 343 271 345 273 345 274 349 274 349 272 350 272 350 271M350 255 350 256 354 257 354 258M317 241 319 241 322 243 324 243M325 268 325 267 326 267 326 268 325 268 324 271 322 272 322 273 324 274M318 287 320 288 328 288 329 287M322 309 322 315 323 316M342 311 341 313 341 320 343 320M314 317 318 316 318 315 320 315 320 316 321 316 321 317 323 317 323 318M324 318 330 317 330 319 331 319 331 320 334 320M344 316 349 315 350 316 351 322 350 324 349 324 349 325 347 326 343 334M318 331 317 327 319 326 321 326 322 327 322 329 321 330 321 331 322 331M328 332 328 330 331 330 329 332 328 332M310 332 316 332 319 333 335 333M300 323 300 322 298 322 297 323 293 324M294 324 289 325 283 328M278 332 278 331 276 330 275 332 274 332 273 334 272 334 271 336 270 336 268 340 268 342 266 344 260 357 257 362 256 362 256 364 254 367 253 371 249 379 248 385 247 385 246 393 245 394 245 402 244 402 244 411 243 412 243 425 244 425 244 427 245 427 245 428 247 429 247 431 248 431 248 432M286 386 278 387 274 390 268 392M276 378 282 379 284 381 286 385 287 385M286 387 286 386 298 386 300 387 304 387 304 388 306 388 306 389M309 392 310 398 310 412 309 412 309 411M310 392 311 392 311 391 313 391 315 394 315 407 314 409 314 413 313 412M312 396 311 396 313 395 318 395M313 409 312 409 313 409M308 414 303 424 299 427 297 427 293 429 280 431 279 432 275 433 270 433 268 434 258 434 258 435M350 326 356 329 358 331 359 331 359 332 362 333 362 334 364 334 364 335 365 335 365 337M370 341 370 342 371 342 371 345 372 345 372 349M372 349 373 352 373 356 374 357 374 361M376 365 377 368 377 386 378 387 378 393 379 395 379 400 380 402 380 436 378 438 378 439 377 439 377 440 376 440 375 442 373 442 373 443 353 443 348 442 347 441 344 441 340 439 338 439 332 436 326 431 325 431 325 430M331 398 335 397 348 397 349 398 351 398 354 400 356 400 359 402 367 405M346 397 346 396 347 396 347 395 349 394 349 393 355 391M346 392 346 382 345 382 345 380 344 380M322 418 323 427 325 428M326 401 325 401 325 403 323 407 322 414M326 400 327 400 327 406 324 414 322 416 322 417M324 410 323 410 324 411M316 394 320 392 322 392 325 390 329 390 329 391 330 391M323 394 328 392 328 391M315 409 319 409 321 408 321 407 322 407M325 396 328 395 332 395 332 396 331 396 331 397 329 399M317 410 318 410 318 411 319 411 321 413 323 413M316 390 316 391 315 391 314 389 314 386 315 386 315 387 317 388 317 390M318 390 317 389 317 387 319 387 319 388 320 388 320 386 321 386 321 387 323 388M313 368 313 370 311 373 311 376 310 377 309 381 308 386 308 388 309 388M313 371 333 371 334 372 334 373 333 373 333 378 332 379 332 393M314 373 313 378 321 378 321 377M321 378 321 374 315 374M311 371 310 371 310 374 309 374 308 377 307 382 307 389M334 373 333 373 333 372 332 378 332 389 331 390 331 393 332 393M267 454 266 455 265 459 265 464M350 206 351 206 351 207 351 206 350 206M322 338 322 337 321 337 320 345 320 364M314 418 315 418 314 418 312 428 311 445 310 446 310 451 308 456 302 459 292 461 283 461 281 460 282 460M254 438 253 445 255 449 256 449 261 453 267 455M312 454 313 454 313 455 314 455 317 458 326 462 329 462 336 465 356 467 363 465 367 463 367 462M366 444 367 450 367 456 366 459M359 470 360 484 362 494 362 501 363 502 363 509 364 511 364 515 366 514M305 483 303 491 303 509M304 508 306 509 317 510 345 510 348 509 356 509 360 508M302 511 296 511 295 512 296 526 301 529 313 529 318 528 353 528 355 527 365 526 365 525 366 525 367 512 366 512 366 510 364 509M260 459 259 459 260 459 260 460 259 461 259 465 258 467 257 474 257 483 254 494 254 497 255 497M257 497 264 498 275 502 296 504M254 499 252 499 250 504 253 516 267 516 279 519 291 520 291 521 292 521M307 456 307 458 306 459 305 463 308 464 313 464 312 456 311 456 311 455 312 455M321 529 322 613 323 612M273 518 273 525 275 533 276 546 277 549 280 571 280 588 282 596 283 612 284 616 284 613M304 530 304 537 303 539 303 559 302 562 302 602 303 603 303 608 304 608M349 529 350 528 350 529 349 529 349 552 346 574 346 613 345 614 345 619 346 619 346 618M327 563 329 564 334 564 336 563M283 621 282 621 283 627 282 627 282 628 280 629M281 629 279 629 279 630 276 631 276 632 273 634 273 635 274 635M302 615 302 616 303 616 304 624 305 626 305 629 302 635 303 634M321 618 321 631 317 638M345 623 344 636 342 639M269 639 269 640 271 640 272 645 272 650 271 644 269 641 267 640 271 647 271 651 270 646 269 645 268 640 267 640 267 639 267 643 269 646M273 649 274 648 281 648 281 649 285 650 280 649 273 649 282 648 285 649 286 651 282 649 270 648 286 648 288 649 290 651 290 652 289 652 284 648 276 647 272 648 281 648 289 650 292 652 288 652 275 648 266 648 271 649 283 649 292 652 283 650 272 650 272 651 272 649 271 649 270 646 267 642 267 641 268 641M313 656 316 659 317 661 316 660M316 660 311 655 309 654 313 658 315 659 317 661 316 661 310 656 316 659 317 661 315 660 312 656 315 657 317 660 318 660 316 659 314 656 311 654 318 660 319 660 312 656 317 659 319 659 316 657 315 655 312 654 314 656 316 660 319 661M323 662 323 661 331 657 337 656 332 657 332 658 323 661 326 659 335 658 331 658 325 660 322 662 323 661 335 658 328 659 322 662 324 662 336 658 330 659 329 660 320 663 323 663 335 660 332 659 320 662 330 659 334 659 328 659 327 660 329 659M307 659 305 661 304 664 305 666 310 666 313 663M316 664 316 665 315 665 315 669 317 670 320 668 321 665 321 667 323 668M324 669 324 668 326 666 326 664 326 665 329 666 330 664 331 665 333 665 334 662M337 651 337 652 337 650 340 647 341 644M316 644 314 645 310 652 311 654M283 654 281 655 280 658 279 658 277 660 275 660 273 658 273 657 274 657 274 655 275 655M272 653 272 654 266 655 265 652 267 651 267 650 268 651 267 653 263 653 263 650M264 650 266 649 264 651 262 651 262 650 265 647 265 646 265 647 262 648 261 648 261 646 264 643 266 643 268 641 269 641M299 639 294 646 293 646 293 647M305 656 305 655 306 655 303 659 302 663 302 666 304 667 305 669 312 671 312 672 317 672 325 674 307 670 306 669 310 671 314 672 320 672 321 673 320 673 308 670 307 669 310 671 319 673 327 673 331 670 335 665 335 664 327 671 326 671 327 671 327 670 330 667 331 667 334 663 334 662 337 660 337 659 340 656 347 644 348 635 345 632 344 632M258 652 258 651 257 651 257 652 255 653 255 656 256 656 257 658 259 658M259 659 265 662 266 664 268 664M259 654 260 658 258 652 257 653 258 658 257 651 257 657 258 657 257 653 256 654 256 656 258 659 259 659 259 657 262 663 266 666 272 666 265 663 267 664 276 664 277 663 270 664 269 665 271 665 275 664 280 661 282 661 280 661 277 663 275 665 277 665 282 661 290 657 293 654 294 654 295 652 299 650 300 648 302 647 302 646 303 646 306 640 306 638 307 638 307 634 305 633 305 632 306 634 306 640 305 643 300 650 299 650 296 654 292 657 291 657 290 659 284 664 278 666 278 667 272 667 273 666M299 289 296 304 295 320" fill="none" stroke="black" stroke-width="2" /></svg>