<?xml version="1.0" encoding="utf-8" ?>
<svg baseProfile="full" height="757" version="1.1" width="535" xmlns="http://www.w3.org/2000/svg" xmlns:ev="http://www.w3.org/2001/xml-events" xmlns:xlink="http://www.w3.org/1999/xlink"><defs /><rect fill="white" height="757" width="535" x="0" y="0" /><path d="M54 16 43 16 29 20 27 21 23 25 23 26 28 28 43 30 57 30 58 31 27 46 29 49 32 50 41 51 63 56 80 58 193 58 196 57 227 53 230 49 225 47 206 47 202 48 160 47 159 46 160 45 185 34 186 28 185 26 177 24 145 22 109 23 107 22 95 20 83 16 71 14 58 14 56 15" fill="none" stroke="black" stroke-width="2" /></svg>