<?xml version="1.0" encoding="utf-8" ?>
<svg baseProfile="full" height="757" version="1.1" width="535" xmlns="http://www.w3.org/2000/svg" xmlns:ev="http://www.w3.org/2001/xml-events" xmlns:xlink="http://www.w3.org/1999/xlink"><defs /><rect fill="white" height="757" width="535" x="0" y="0" /><path d="M196.2 402.65 191.83 413.23 189.05 415.3 181.78 415.77 175.4 413.88 169.49 406.08 167.95 401.23 168.19 396.03 167.36 400.29 167.36 407.44 168.31 404.66 167.95 396.15 167.6 404.3 168.6 393.55 165 402.89 168.96 393.14 166.36 399.87 164.35 402.65 168.96 393.79 168.31 393.08 166.47 395.68 165.05 400.23 165.88 400.88 169.07 394.73 169.49 391.48 168.19 393.43 166.24 399.4 169.49 392.9 170.14 389.83 169.61 389.53 168.78 391.84 169.31 394.02 173.45 396.62 173.09 394.85 169.49 391.18 173.62 392.78 170.79 389.23 175.75 392.78 171.26 389.59 171.85 393.37 170.43 395.74 173.21 391.78 166.83 402.71 167.36 402.89 169.43 399.93 173.74 391.66 167.77 401.05 170.31 398.28 173.51 391.84 167.95 403.36 170.37 400.94 173.39 392.96 167.36 404.01 169.31 398.04 167.77 409.86 169.43 407.79 168.54 401.94 168.78 405.31 172.74 411.46 167.12 402.95 167.48 406.67 168.72 409.39 171.2 412.7 170.79 410.57 166.95 402.3 166.77 405.01 168.78 412.58 170.96 416.89 170.49 407.97 168.96 399.16 169.61 410.98 171.26 415.59 168.84 405.43 171.67 411.69 175.57 416.83 175.99 414.59 172.32 410.27 180.12 416.12 185.09 417.01 183.73 415.77 178 413.58 187.33 414.88 180.36 414.59 180.18 415.59 182.19 415.83 192.18 412.52 187.51 415.24 186.45 417.42 187.45 417.19 192 412.64 185.38 414.94 191.65 413.29 186.74 415.65 185.38 417.42 186.27 417.84 195.43 412.87 191.65 414.35 189.64 416.66 195.25 411.4 191 415.65 191.65 413.29 196.85 404.9 195.14 409.92 193.36 412.52 200.99 401.76M195.84 396.62 195.61 397.69 200.81 395.85 201.05 398.69 196.85 398.63 196.32 399.64 200.75 401.29 201.28 400.4 200.51 399.64 197.5 399.05 198.56 400.23 203.29 402.3 202.7 399.87 199.86 397.33 200.69 398.99 205.42 401.65 200.51 397.27 200.4 398.22 205.54 401.82 200.28 400.23 199.74 407.5 196.2 415.36 189.58 418.13 187.87 418.13 178.82 416.42 172.15 412.99 169.72 408.15 169.25 404.66 171.44 392.37 172.26 390.53 171.85 394.97M201.1 397.27 200.81 396.33 206.25 381.79 208.37 378.72 218.01 356.91 227.64 339.89 231.01 332.68 230.95 330.43 232.19 330.61M104.95 174.41 118.01 180.32 130.19 180.56 154.24 184.57 170.31 190.37 197.03 193.32 213.51 198.7 230.89 205.97 268.24 229.43 278.34 237.29 341.22 291.96 354.23 305.02 375.32 321.98 380.94 327.95 406.47 358.62 413.09 368.49 422.31 379.96 425.32 385.51 426.91 393.84 421.6 393.55M103.53 177.48 106.49 186.88 113.05 195.33 120.2 202.72 131.25 218.97 137.4 225.65 146.91 233.75 157.31 240.54 169.37 251.53 185.27 262.47 205.42 272.1 203.94 267.85M310.2 316.13 332.89 337.23 348.91 350.47 371.01 366.3 387.44 376.88 401.09 382.44 433.77 393.49 434.89 393.55 435.01 391.42M103.77 172.99 110.27 166.19 113.05 165.07 130.36 160.23 142.07 158.04 181.6 152.78 252.52 145.51 298.61 145.98 327.81 149 350.97 154.61 370.6 161.23 367.99 162.65M369.24 157.21 374.85 166.55 396.54 212.88 407.94 234.63 411.67 244.68 415.75 260.4 419.35 276.06 432.71 371.56 433.59 386.22 432.77 396.98 429.22 406.31M174.81 186.82 185.21 184.16 198.09 183.33 205.95 181.62 232.96 180.02 269.13 176.01 285.91 172.81 296.07 169.09 322.73 163.59 359.78 158.45 375.38 153.49 374.73 155.68 355.41 173.58 330.88 194.5 320.01 205.44 308.66 215.48 280.83 236.46 271.08 246.87M369.53 161.53 368.76 164.13 373.43 175.06 381.59 202.48 390.75 246.22 398.31 272.1 403.99 297.39 406.94 316.54 412.85 341.78 415.15 383.21M202.58 161.82 196.61 154.55 189.7 150.12 190.88 152.13 191.94 157.27M205.6 164.78 197.97 170.21 197.91 172.1M431.7 400.05 429.22 400.46 429.81 405.72M367.34 161.23 366.22 161.35 367.17 159.22 378.4 147.52 376.74 148.35 367.82 157.86 373.31 155.5 366.04 164.72 368.29 160.11 374.67 154.61 375.15 156.86" fill="none" stroke="black" stroke-width="2" /></svg>