<?xml version="1.0" encoding="utf-8" ?>
<svg baseProfile="full" height="757" version="1.1" width="535" xmlns="http://www.w3.org/2000/svg" xmlns:ev="http://www.w3.org/2001/xml-events" xmlns:xlink="http://www.w3.org/1999/xlink"><defs /><rect fill="white" height="757" width="535" x="0" y="0" /><path d="M429.87 440.12 430.58 455.54 429.87 446.15 429.28 445.02 428.04 444.91 427.68 445.91 428.16 448.98 431.35 453.06M429.87 584.5 431.76 597.5 432.29 599.45 432.65 596.49 432.47 612.45M262.21 25.83 250.15 43.86 240.29 61.41 220.72 99.59M334.25 39.55 300.68 81.27 287.33 103.9M474.55 239.71 461.66 257.62 418.58 322.1M467.4 119.68 460.78 127.84 432.23 168.44M128.36 115.07 79.78 177.96 64.41 206.21M363.74 577.05 351.45 595.19 325.56 652.34M168.07 630.89 105.78 714.16 96.56 730.77" fill="none" stroke="black" stroke-width="2" /></svg>