<?xml version="1.0" encoding="utf-8" ?>
<svg baseProfile="full" height="757" version="1.1" width="535" xmlns="http://www.w3.org/2000/svg" xmlns:ev="http://www.w3.org/2001/xml-events" xmlns:xlink="http://www.w3.org/1999/xlink"><defs /><rect fill="white" height="757" width="535" x="0" y="0" /><path d="M231.36 344.44 227.88 352.3 214.76 392.43 205.42 427.71 195.67 469.14M325.74 340.01 332.54 357.2 344 379.31 353.99 407.38 359.13 418.02 371.48 448.16 380.29 465.95M194.37 470.38 198.62 478.71 211.27 483.79 227.7 487.99 239.4 490.23 246.14 489.64 283.84 490.47 322.79 484.68 343.06 478.06 356.29 470.08 366.99 465.3 370.06 463.34 373.9 459.33M315.28 324.88 316.52 333.8 319.65 340.48 324.09 346.62M316.88 331.97 316.58 335.1 321.6 342.13M223.27 361.28 216.59 368.55 210.74 377.12 201.93 387.64 191.71 402.83 186.86 406.37 188.63 406.67 190.88 413.82 193.01 414.23 193.54 415.83 196.55 418.43 197.85 418.13 198.68 415.95 204.95 411.69 212.75 408.15 215.41 405.84 216.29 407.32M195.79 402.24 195.5 401.49 192 412.99 195.61 407.26M194.25 410.04 195.37 407.2 195.02 409.27M200.75 396.74 200.75 394.73 202.11 391.66 208.02 380.78M201.4 395.91 203 391.24 210.32 376.65M202.94 392.96 206.72 382.38 210.5 376.76M212.39 252.18 208.96 242.91 207.96 226.18 206.95 228.37 206.54 238.47 208.55 246.16 208.14 228.66 208.61 224.88 210.62 223.05 215.94 226.95 229.88 233.57 243 245.62 252.76 258.03 266.05 277.95 274.33 294.97 277.46 304.25 279.05 320.56 275.33 323.28 270.07 324.23 264.04 326.83 259.2 326.94 255.36 326.24 256.01 325.76M211.03 249.35 212.98 245.09 214.4 243.91 215.46 243.91 216.11 245.15M229.23 279.9 229.59 288.18 231.48 297.28 234.44 305.96 239.58 312.58 244.95 316.31 250.51 317.9 256.12 318.38 270.37 315.36 271.84 314.77 271.02 313.71M220.43 242.14 213.34 248.82 212.75 250.94 210.56 271.21 211.15 274.58 212.21 276.18 213.51 276.3 215.52 273.93 221.85 262.64 230.59 252.66 228.88 255.26 226.4 264.3 225.75 270.21 227.11 275.47 231.24 270.56 237.98 258.86 242.41 253.72 240.7 257.03 238.99 264.36 239.16 272.22 240.17 273.16 241.88 273.16 247.2 266.37 259.43 253.6 260.14 251.83 260.08 253.31M232.54 329.01 234.08 330.19 236.27 330.02 241.59 324.23 245.19 318.2 248.97 316.13M315.99 327.24 315.46 328.07 315.93 329.07 315.46 329.43 315.22 328.3M320.36 329.96 324.68 341.19 319.18 327.65 322.02 337.29 319.65 331.08 320.6 338.59 314.81 325.17 315.34 327.71 311.97 316.42 313.92 325.58 311.5 316.9 309.43 315.07M200.75 269.97 204.83 269.09 209.73 269.62M255.59 416.42 261.8 422.21 272.91 430.49 277.99 432.67 268.65 421.98 257.54 411.22 274.8 427.47 257.96 416.07 261.09 418.9 269.95 425.7 282.07 431.31 263.98 416.54 261.38 412.99 281.77 431.96 285.61 434.5 275.15 427.65 257.19 412.46 257.66 411.99 269.54 422.09 276.51 429.78 279.88 432.32 270.6 422.98 269.42 423.04 272.55 426.47 278.46 431.25 280.77 432.08 279.82 433.2M261.56 415.77 260.08 415.77 260.62 413.23 267.47 411.93 275.74 407.5 288.69 399.22 298.67 391.42 298.91 390.42 298.08 385.87 294.77 379.42 284.14 366.25 277.1 360.04 273.14 352.95 274.62 358.27M300.21 335.63 314.93 351.94 322.79 364.18 335.43 387.99 337.38 394.38 337.44 401.88 334.72 407.56 330.35 411.81 316.58 420.08 287.03 435.04 278.29 437.75 269.66 438.94 266.47 438.58 267.47 439.88M280.35 437.93 280.12 439.23 282.19 440.77 287.03 443.78 288.57 443.72M242.71 316.72 250.21 313.71 242.24 313.17 249.33 314.36 246.61 314.3 253.41 313.17 254.94 316.72M234.61 291.13 232.66 301.18 234.26 293.08 233.61 299.76 234.14 299.35M235.68 292.08 231.42 305.85 234.79 296.63 231.07 302.3 230.95 303.01 231.54 302.54 235.38 297.34 232.43 304.9 233.96 302.42 236.98 301.3 237.27 302.83 232.66 303.66 238.22 302.54 235.44 303.48 235.85 304.07 239.1 302.6 235.91 302.71 238.69 302.36 243.54 300.11 241.7 298.75 244.72 301.65M186.33 409.68 183.91 418.31 185.15 421.74 187.57 418.19M188.75 409.33 188.46 408.68 187.33 409.27 185.27 412.93 182.72 415.18 183.2 416.42 185.09 414.71 185.98 409.98 184.62 408.32 181.66 409.86 176.99 417.6 177.29 420.2 180.24 422.39 181.96 419.91 190.53 415.24M261.15 486.81 260.14 500.46 260.73 502.23M264.1 495.14 265.58 516.3 264.87 519.37M269.07 482.97 260.97 503.59 246.2 537.16M249.09 541.3 253.23 550.34 258.07 557.14M313.68 497.15 311.32 518.96 311.85 542.36M325.03 470.14 323.61 504.83 323.61 570.73M315.46 599.33 295.25 606.48 293.71 608.91M306.89 600.63 295.01 606.48 294.54 608.26M293.59 608.91 286.03 612.22 287.33 617.42 289.34 619.07 288.33 621.61 287.45 621.73" fill="none" stroke="black" stroke-width="2" /></svg>