<?xml version="1.0" encoding="utf-8" ?>
<svg baseProfile="full" height="757" version="1.1" width="535" xmlns="http://www.w3.org/2000/svg" xmlns:ev="http://www.w3.org/2001/xml-events" xmlns:xlink="http://www.w3.org/1999/xlink"><defs /><rect fill="white" height="757" width="535" x="0" y="0" /><path d="M308.23 156.7 301.35 152.08 293.88 151.99 289.98 153.26 283.68 157.29 277.75 163.36 275.17 167.75 269.69 187.32 268.56 201.09 269.1 207.98 271.82 220.48 276.44 226.23 292.79 234.65 293.24 236.92M311.45 156.34 322.86 171.56 326.03 177.49 332.65 200.32 331.15 209.52 329.61 212.87 326.53 216.72 315.89 224.15 296.05 233.93 285.45 236.65 281.19 235.24M300.81 148.59 331.38 151.54 340.62 154.03 349.04 159.01 352.94 162.5 355.93 166.67 358.56 173.51 359.96 183.34 359.33 195.25 357.7 201.14 354.03 208.61 341.75 218.98 320.64 228.68 311.18 231.8 300.13 237.42 292.52 239.82 292.34 238.37 290.25 237.96M281.42 181.75 289.3 183.65 295.51 190.81M306.78 188.82 314.94 187.86 315.75 189.36M282.42 205.98 285.95 213.23 289.57 217.76 302.12 209.2M287.17 230.53 286.95 238.69 284.18 249.92M286.63 233.84 288.08 235.56 288.8 238.28 288.3 243.12 286.45 248.33 282.55 253.5M322.23 226.73 319.83 232.34 319.2 236.65 321.73 245.48M248.08 252.27 234.18 256.44 221.77 263.19 213.98 269.67 205.01 281.35 202.33 285.75 199.71 292.63 198.98 298.84 200.07 303.82 203.97 308.58 205.82 309.71 209.31 310.57 231.46 310.71 240.02 307.4 256.96 298.2 274.04 287.24 277.98 283.85 285.41 273.61 285.77 266.23 285 262.96M255.24 261.92 252.93 275.6 253.38 280.63 255.15 282.17 258.41 280.95 278.29 268.22 278.57 262.78 278.11 261.92 276.98 261.92 277.8 261.56 277.66 258.57 284.41 258.71 285.36 267.9M290.61 259.52 300.26 257.94 314.44 251.55 322.37 242.58M288.17 259.7 294.28 268.04 301.21 283.66 308.19 269.71 312.17 264.91 319.42 258.89 321.23 256.49 326.08 246.79 325.54 243.71M326.03 246.39 335.59 251.69 342.16 253.59 351.63 259.52 356.29 261.56 363.09 266.63 369.93 269.17 371.56 273.07M361.32 264.87 367.66 267.45 375.86 273.16 379.75 276.6 386.87 285.39 390.9 291.77 397.51 312.88M351.54 275.06 342.43 302.96 340.03 306.86 335.73 309.21 328.12 311.57 316.7 312.65 308.87 308.03 297.68 294.13 284.82 281.08 279.38 277.87 280.11 276.64M258.77 295.35 263.62 307.13 270.28 319.45 276.84 327.42 281.51 329.96 297.54 334.26 302.98 334.58 320.37 330.91 327.39 330.18 334.64 327.42 333.6 327.06M285.36 284.25 276.35 280.49 270.28 280.22 268.37 280.9 266.61 285.75 265.38 297.75 265.38 299.06 266.47 300.15 265.25 301.6 266.11 304.45 270.28 305.99M347.82 282.67 348.64 288.06 347.87 295.17 346.19 298.52M258.41 309.84 251.57 318.45 239.75 358.81 237.62 368.77 235.13 390.11 235.31 401.16M233.63 398.99 233.41 396.13 239.7 391.01 249.26 386.48 257.14 385.53 264.84 386.08 277.8 388.61 284.82 391.06 293.51 391.87 318.2 398.31 338.94 400.93 347.14 400.75 358.69 397.63 377.53 389.11 381.02 386.3 379.98 385.22M398.01 301.78 395.7 312.74 390.53 348.8 389.09 367.46 389.81 383.45 390.99 388.48 389.4 388.21M352.58 262.74 357.92 269.44 368.88 286.88 377.49 305.63 382.15 326.74 383.97 339.92 387.86 372.9 388.32 395.54M240.52 390.74 239.52 392.6 238.98 399.66 236.8 407.55 235.31 418.19 232.27 427.52 228.7 434.45 223.22 436.76M229.56 426.89 237.71 425.53 248.35 425.98 260.95 432.14 271 435.54 282.91 437.94 299.18 438.89 331.02 429.92 352.12 428.93 371.92 429.92 379.84 431.33 385.14 430.69 388.99 429.65 400.09 423.85 402.54 421.41 402.72 417.1M381.48 380.05 388.5 393.6 390.58 404.38 389.18 421.9M263.75 434.75 254.51 459.94 240.2 490.88 229.01 521.72 218.55 560.86 218.01 570.91 219.91 588.03 220.59 588.67M221.22 585.54 231.19 584.32 244.14 585.45 250.53 586.99 262.98 586.76 265.57 587.76M315.39 474.39 310.45 488.02 309.46 484.53M312.54 473.57 307.6 485.98 300.35 509.31 294.24 525.34 284.14 558.59 274.04 581.69 273.13 588.85 270.87 590.84 271.68 589.12M310.68 476.2 308.46 488.97 307.01 507.86 308.55 553.38 309.55 563.85 319.83 591.7 320.19 590.57M354.98 430.63 359.33 442.41 363.99 466.33 371.74 495.99 378.94 531.5 382.65 555.78 382.52 571 378.26 602.71 376.54 608.73 370.56 618.29 368.25 617.93M314.3 587.44 327.71 589.39 353.12 603.39 358.51 602.84 361.46 604.38 363.45 604.43 366.44 602.26 369.25 594.15M234.49 583.82 234.72 588.35 238.25 601.98M253.74 589.08 254.38 601.94 254.83 605.02 256.14 605.97M331.74 595.33 332.56 605.47 334.05 608.23M218.46 601.85 235.17 603.57 248.08 603.93 274.49 602.07 274.72 604.66 273.81 605.43M223.49 601.94 226.43 612.9 228.47 625.18 227.52 643.38 227.97 649M274.67 603.52 274.17 617.38 275.67 638.31 275.26 647.37 274.94 648.37 273.09 647.05M220.45 647.05 211.53 647.73 202.56 650.13 195.99 652.85 189.88 656.79 179.28 667.03 175.66 672.92 174.52 677.36 180.14 696.61 183.76 702.95 186.98 704.31 189.43 704.26 197.04 700.77 219.64 695.02 230.92 695.25 238.66 697.6 254.02 698.1 264.21 695.07 268.15 692.8 270.28 690.58M277.98 648.55 277.12 657.97 277.93 677.36 276.71 682.11 272.41 689.77 269.6 692.8 265.61 696.7 259.18 699.6M226.57 644.65 224.12 643.25 220.95 643.75 203.56 650.18 191.42 659.28 188.88 662.77 182.68 674.86 180.37 681.02 178.28 696.92 178.74 700.64 182.27 709.61M330.65 604.48 335.41 611.04 337.49 628.53 341.03 648.14M360.64 609.68 362.68 629.43 362.86 650.77M331.65 644.15 322.73 643.29 320.87 644.15 316.66 648.28 312.49 654.3 303.93 663 299.72 670.47 296.55 680.3 300.04 695.38 303.89 701.77 307.92 702.27 318.06 701.41 341.84 695.25 353.48 693.53 364.04 694.79 371.19 696.79 373.28 696.56 374.73 692.08M368.02 651.04 373.73 660.23 374.95 665.85 375.95 685.92 374.59 699.91 373.37 701.18M321.14 645.2 322.37 645.33 324.95 648.41 329.16 650.77 331.79 651.36 331.61 650.81M329.93 607.65 339.44 610.09 353.44 611.54 360.59 613.08 374.18 613.04 363.9 611.45 320.78 611.5 323.82 638.85 324.95 644.56 325.63 645.83 325.72 644.97M373.68 614.08 374.14 649.5 374.86 654.12 374.82 649.95M207.68 668.09 213.16 675.11 213.61 672.62 213.16 672.16 212.3 672.8 211.53 674.84 212.71 672.84 212.12 670.85 210.53 670.9 208.9 673.12M371.15 648.28 372.33 656.52 376.67 669.79 376.49 679.39 371.87 693.53 370.15 695.93" fill="none" stroke="black" stroke-width="2" /></svg>