<?xml version="1.0" encoding="utf-8" ?>
<svg baseProfile="full" height="757" version="1.1" width="535" xmlns="http://www.w3.org/2000/svg" xmlns:ev="http://www.w3.org/2001/xml-events" xmlns:xlink="http://www.w3.org/1999/xlink"><defs /><rect fill="white" height="757" width="535" x="0" y="0" /><path d="M255.6 20.64 251.98 29.24 252.52 35.4M252.16 34.5 229.69 37.76 210.85 43.28 181.27 57.6 164.24 69.06 156.45 76.67 149.66 85.09 140.55 99.95 134.44 115.53 127.64 142.57 133.8 136.86 143.68 133.15 158.63 130.66 164.51 130.84 183.94 135.14 199.57 144.61 203.97 148.23 204.96 143.79 206.5 141.21 211.3 136.14 224.44 131.56 236.94 129.12 249.94 127.71 256.51 127.94 278.84 131.11 286.36 135.37 290.61 140.62 291.43 136.05 292.7 133.56 297 126.35 300.17 123.64 310.05 119.97 319.06 117.66 324.36 117.11 329.98 117.29 340.85 119.29 355.3 124.72 360.14 127.76 362.27 130.16 365.62 139.17 368.43 132.02 371.92 127.35 376.45 123.18 380.3 120.56 382.79 119.92 396.88 119.02 402.99 119.42 431.48 126.35 442.9 130.48 442.08 126.31 436.55 111.32 429.9 102.57 425.23 97.86 412.86 88.53 389.09 73.45 368.02 61.49 351.04 53.88 338.58 49.99 299.22 39.89 280.47 36.67 267.02 36.17 260.13 34.9 254.65 22.81 250.94 19.05 248.35 17.65M246.32 35.36 245.41 35.04 237.53 52.57 224.03 79.07 220.68 87.63 209.36 133.42M261.44 37.98 266.65 47.36 279.25 76.35 286.99 92.02 288.8 99.09 289.39 116.89 290.48 124.13 290.84 122.91M261.58 32.73 271.32 36.35 291.25 52.39 333.92 84.64 355.57 97.46 360.69 101.53 374.77 122.23 377.35 131.61 376.31 132.11M258.68 127.21 259.09 140.21 257.23 156.11 257.01 166.8 257.64 187.14 261.44 232.8 262.89 263.82 264.43 268.04 266.61 269.62 269.46 269.94 272.13 268.72 273.99 266.09 276.21 259.48 277.66 251.5 275.76 248.2 274.76 249.01 272.5 256.99 273.58 264.28 271.14 266.72 267.42 263.92 264.16 254.54 264.3 225.64 261.35 191.08 261.13 170.61 257.91 122.41" fill="none" stroke="black" stroke-width="2" /></svg>