<?xml version="1.0" encoding="utf-8" ?>
<svg baseProfile="full" height="757" version="1.1" width="535" xmlns="http://www.w3.org/2000/svg" xmlns:ev="http://www.w3.org/2001/xml-events" xmlns:xlink="http://www.w3.org/1999/xlink"><defs /><rect fill="white" height="757" width="535" x="0" y="0" /><path d="M426.5 302 424.5 302 424.5 301 414.5 310 410.5 310 410.5 311 409.5 309 411.5 308M399.5 252 383.5 249 383.5 255M387.5 232 380.5 228 377.5 231 378.5 231M386.5 230 385.5 229 385.5 232M398.5 248 396.5 247 396.5 250M404.5 262 400.5 262 404.5 262M412.5 261 409.5 259 410.5 258M416.5 242 415.5 241 414.5 243M420.5 255 419.5 254 420.5 255M433.5 256 431.5 254 432.5 254M444.5 245 441.5 244 442.5 243M347.5 199 342.5 198 346.5 202M368.5 210 367.5 210 365.5 212 365.5 214M368.5 219 365.5 219 365.5 220 368.5 221M384.5 211 383.5 209 385.5 208M373.5 194 371.5 193 371.5 192M428.5 226 425.5 224 427.5 224M449.5 213 448.5 213 447.5 212 448.5 212M437.5 293 434.5 291 438.5 294M456.5 303 455.5 303 454.5 302 455.5 302M477.5 301 475.5 299 477.5 299M487.5 298 484.5 296 484.5 297M425.5 320 421.5 318 424.5 319M436.5 326 433.5 326 433.5 328 434.5 328M445.5 325 444.5 325 443.5 324 444.5 324M422.5 282 420.5 281 423.5 281M445.5 283 443.5 282 444.5 283M453.5 291 449.5 292 450.5 292 452.5 294M463.5 292 461.5 291 463.5 291M104.5 231 99.5 232 106.5 233M133.5 238 130.5 238 128.5 242 133.5 242M138.5 255 137.5 256 126.5 260 126.5 261 133.5 260M105.5 250 102.5 249 103.5 248M96.5 244 93.5 244 89.5 247M71.5 258 66.5 258 64.5 260M46.5 254 44.5 254 41.5 250M95.5 209 92.5 208 91.5 208 92.5 209M134.5 212 132.5 212 132.5 215M138.5 230 135.5 230 136.5 231M124.5 220 118.5 220 119.5 221M124.5 195 122.5 193 122.5 190M198.5 235 191.5 235 190.5 236 198.5 238M185.5 206 181.5 205 180.5 203M159.5 183 155.5 182 157.5 180M171.5 238 167.5 239 166.5 242M119.5 274 112.5 275 110.5 279 113.5 279M282.5 289 279.5 289 278.5 290 280.5 292M294.5 301 292.5 302 292.5 304 296.5 304M258.5 267 255.5 266 250.5 266 253.5 268M268.5 256 269.5 258 271.5 259M274.5 285 270.5 286 259.5 293M255.5 300 248.5 304 251.5 304M303.5 284 300.5 285 300.5 286 302.5 286M317.5 284 315.5 284 315.5 283M299.5 200 295.5 199 296.5 198M151.5 48 149.5 50 149.5 52 164.5 73 160.5 67 154.5 46 153.5 46 151.5 52 151.5 47M207.5 87 205.5 87 206.5 89 221.5 99M197.5 113 198.5 117 211.5 134M248.5 154 249.5 157 264.5 172 262.5 172M298.5 136 297.5 136 306.5 147 309.5 148 317.5 148 317.5 145M299.5 87 301.5 91 317.5 98 318.5 97M383.5 112 383.5 114 394.5 123 396.5 123 398.5 121M435.5 80 434.5 80 445.5 86 455.5 93 455.5 87M278.5 30 277.5 33 294.5 48 298.5 48M340.5 52 340.5 54 345.5 56 355.5 65M448.5 164 459.5 172 470.5 175 472.5 173 476.5 173M92.5 35 90.5 35 90.5 36 97.5 74 97.5 73 97.5 74 97.5 73 99.5 76M116.5 119 115.5 125 127.5 150 127.5 149 129.5 149M152.5 119 160.5 135 168.5 142 168.5 133 169.5 133M182.5 192 182.5 196 183.5 198 196.5 215M76.5 132 74.5 135 74.5 137 80.5 162 79.5 162M52.5 81 49.5 81 48.5 83 54.5 108M27.5 213 27.5 214 25.5 216 25.5 220M23.5 274 18.5 274 16.5 276M370.5 701 364.5 698 370.5 700M367.5 670 366.5 670 364.5 668 367.5 667M396.5 674 391.5 674 392.5 678M368.5 690 364.5 688 364.5 689 365.5 689 367.5 691M385.5 690 384.5 689 385.5 686 387.5 686M384.5 680 382.5 678 386.5 679M408.5 699 407.5 698 411.5 698M425.5 669 422.5 666 427.5 665M435.5 661 432.5 657 434.5 659M69.5 527 67.5 522 68.5 523 71.5 530M66.5 508 63.5 506 59.5 510M42.5 519 40.5 518 40.5 519M50.5 489 49.5 489 48.5 487 49.5 487M82.5 613 80.5 609 84.5 613M48.5 620 46.5 620 45.5 619M403.5 645 395.5 647 393.5 648 397.5 647M431.5 627 430.5 627 429.5 629 428.5 629 428.5 630M423.5 150 422.5 148 420.5 149M407.5 160 401.5 162 400.5 164 404.5 164M422.5 178 426.5 177 426.5 176M449.5 129 449.5 128 447.5 127 449.5 126M435.5 489 431.5 489 437.5 490M424.5 512 423.5 513 421.5 513 426.5 514 428.5 514 428.5 513M459.5 486 455.5 486 457.5 485M493.5 448 489.5 447 488.5 446" fill="none" stroke="black" stroke-width="2" /></svg>