<?xml version="1.0" encoding="utf-8" ?>
<svg baseProfile="full" height="757" version="1.1" width="535" xmlns="http://www.w3.org/2000/svg" xmlns:ev="http://www.w3.org/2001/xml-events" xmlns:xlink="http://www.w3.org/1999/xlink"><defs /><rect fill="white" height="757" width="535" x="0" y="0" /><path d="M274.5 456 274.5 455 272.5 454 272.5 451 271.5 450 269.5 442 269.5 439 268.5 438 268.5 435 267.5 434 267.5 431 265.5 423 265.5 418 264.5 415 264.5 409 263.5 407 263.5 402 262.5 399 262.5 386 261.5 383 261.5 372 260.5 369 260.5 357 259.5 355 259.5 342 258.5 339 258.5 330 257.5 328 257.5 317 258.5 314 258.5 305 259.5 303 259.5 281 260.5 280 272.5 280 272.5 279 274.5 279 274.5 294 275.5 296 275.5 328 276.5 330 276.5 369 277.5 371 277.5 386 278.5 389 278.5 393 279.5 395 279.5 416 280.5 418 280.5 425 281.5 426 282.5 444 283.5 446 283.5 449 285.5 453M158.5 270 156.5 271 156.5 266 155.5 265 155.5 247 157.5 242 159.5 233 162.5 225 164.5 222 165.5 218 172.5 205 180.5 196 185.5 189 186.5 186 196.5 176 198.5 175 204.5 169 205.5 167 206.5 167 209.5 164 217.5 160 221.5 159 224.5 157 226.5 157 229.5 155 231.5 155 236.5 153 244.5 153 255.5 150 271.5 150 274.5 151 285.5 151 287.5 150 299.5 150 300.5 149 306.5 149 307.5 150 310.5 150 312.5 151 320.5 151 322.5 152 325.5 152 330.5 156 332.5 160 334.5 162 339.5 163 344.5 167 354.5 172 366.5 182 371.5 189 374.5 197 375.5 197 375.5 198 377.5 199 377.5 200 379.5 202 379.5 204 381.5 207 381.5 209 383.5 211 386.5 217 386.5 219 388.5 221 389.5 225 390.5 226 390.5 229 391.5 230 391.5 233 393.5 240 393.5 244 392.5 246 393.5 247 395.5 247 396.5 248 396.5 250M159.5 271 157.5 271 157.5 270 162.5 266 165.5 265 174.5 265 189.5 262 196.5 262 208.5 271 208.5 272 209.5 272 214.5 276 214.5 277 215.5 277 215.5 272 218.5 268 224.5 265 229.5 263 238.5 261 249.5 261 257.5 262 266.5 268 267.5 271 269.5 273 270.5 276 271.5 276 271.5 278 272.5 278 272.5 279 273.5 278 274.5 271 276.5 268 278.5 267 278.5 266 282.5 263 292.5 258 298.5 258 302.5 259 313.5 264 313.5 265 314.5 264 314.5 261 318.5 256 326.5 254 333.5 251 340.5 250 344.5 254 345.5 256 349.5 258 352.5 261 353.5 261 353.5 262 355.5 262 355.5 261 356.5 261 362.5 254 365.5 253 372.5 248 375.5 248 377.5 247 393.5 247 399.5 253 399.5 254 401.5 254M260.5 282 260.5 272 259.5 270 259.5 267 260.5 267 260.5 265M210.5 278 209.5 275 211.5 270 211.5 260 213.5 251 214.5 250 228.5 207 240.5 184 240.5 182 241.5 182 242.5 178 243.5 178 244.5 175 247.5 172 249.5 167 255.5 159 260.5 154 261.5 154 266.5 150M264.5 150 262.5 152 262.5 154 263.5 157 263.5 173 264.5 180 264.5 189 265.5 193 265.5 207 266.5 211 267.5 226 268.5 228 270.5 239 270.5 248 271.5 250 271.5 254 272.5 257 272.5 274M263.5 153 278.5 164 279.5 164 285.5 171 290.5 179 291.5 179 299.5 187 307.5 198 311.5 206 312.5 212 313.5 213 314.5 218 318.5 228 319.5 234 319.5 262 318.5 264 318.5 263M269.5 147 267.5 148 268.5 149 289.5 158 302.5 166 315.5 178 318.5 179 322.5 182 328.5 188 336.5 199 349.5 225 352.5 239 352.5 244 355.5 251 356.5 263M265.5 142 264.5 142 262.5 144 261.5 144 261.5 145 260.5 145 260.5 148 260.5 146 262.5 143 262.5 141 263.5 139 264.5 139M264.5 139 264.5 138 265.5 138 265.5 140 270.5 149M261.5 147 261.5 149 260.5 151 259.5 151 258.5 155" fill="none" stroke="black" stroke-width="2" /></svg>