<?xml version="1.0" encoding="utf-8" ?>
<svg baseProfile="full" height="757" version="1.1" width="535" xmlns="http://www.w3.org/2000/svg" xmlns:ev="http://www.w3.org/2001/xml-events" xmlns:xlink="http://www.w3.org/1999/xlink"><defs /><rect fill="white" height="757" width="535" x="0" y="0" /><path d="M187.3 677.9 178.1 675.6 171.8 675.1 155.1 674.7 138.5 675.6 125.1 679.7 121.6 684 119.1 680.1 110.4 675.7 95.3 675.1 79 681 63 691.4 57.3 696 51.3 702.2 44 713.5 40 728.2 40 737.6 44.2 744.2 51.6 749.9M401.2 673.1 408.5 664.8 413.6 663.1 441.9 661.4 453.3 657.4 466.4 650.8 484.1 648.2 491.9 649.4 495.8 656.6 498 663.7 502.2 668.8 507.4 671.9 512.3 672.8 523.4 671.1 524.5 671.3 525.3 673.1M518.7 740.3 496.2 750.4 468.3 766.4 459.4 770.6 436.9 777" fill="none" stroke="black" stroke-width="2" /></svg>