<?xml version="1.0" encoding="utf-8" ?>
<svg baseProfile="full" height="757" version="1.1" width="535" xmlns="http://www.w3.org/2000/svg" xmlns:ev="http://www.w3.org/2001/xml-events" xmlns:xlink="http://www.w3.org/1999/xlink"><defs /><rect fill="white" height="757" width="535" x="0" y="0" /><path d="M4.07 185.73 3.13 195.36 4.78 200.15 7.32 205.17 11.46 210.73 17.08 216.46 31.26 226.33 39 229.94 53.89 233.01 60.69 232.72 66.84 230.47 72.04 226.98 77.06 222.25 80.9 216.94 86.81 204.41 112.28 208.9 131.96 209.25 142.89 206.89 162.87 197.08 170.85 189.4 178 180.29 182.96 170.25 185.92 160.26 186.51 140.99 185.03 132.72 181.78 123.03 181.6 119.72 193.01 112.74 199.04 107.96 207.13 98.97 212.75 89.22 216.82 78.35 220.02 56.36 219.07 45.02 216.23 33.55 211.86 23.86 199.39 9.97 193.36 5.07 186.92 2.11 175.28 1.93 170.61 3.47 167.42 5.66 168.25 7.84M11.93 186.03 10.93 198.08 12.35 199.56 14.59 198.79 15.36 196.07 13.82 191.05 11.7 190.46 7.92 199.15 15.89 206.18 17.19 189.69 6.02 186.91 6.73 197.96 15.78 202.46 14.06 188.1 4.25 182.48 6.02 197.73 18.49 205.41 10.46 189.81 6.5 200.51 19.56 213.92 26.94 210.38 19.2 201.16 18.26 204.35 30.19 217.17 37.17 211.97 27.3 204.23 27.3 219.83 42.31 223.26 42.66 212.27 32.8 213.04 40.66 222.96 50.47 222.31 47.1 217.11 41.19 218 53.54 225.74 63.05 218.89 54.07 214.51 54.25 226.39 62.99 230.23 70.91 216.23 61.87 212.15 59.27 224.38 72.74 221.43 74.1 202.99 66.78 206.3 72.09 215.87 82.08 205.23 77.83 199.56 77.18 209.73 89.11 207.83 89.82 195.78 83.03 199.86 91.3 206.18 99.04 197.61 93.61 194.6 94.91 201.51 107.97 204.58 108.03 194.42 101.35 197.14 111.75 204.47 119.61 198.38 108.2 190.7 108.56 199.92 121.38 199.92 119.31 189.45 114.11 196.96 127.47 200.45 123.8 185.97 111.87 191.11 125.05 197.79 135.45 189.34 121.56 184.79 118.37 196.9 133.67 196.78 133.62 186.97 119.96 189.1 130.07 198.02 144.73 187.86 141.3 180.47 123.1 188.33 123.92 200.68 146.14 185.85 135.51 180.77 126.23 194.77 139.58 199.8 149.51 192.53 141.53 185.73 130.78 198.56 143.48 201.33 152.94 184.55 141.53 182.6 136.16 198.32 153.12 199.09 162.28 179.11 145.67 180.65 140.47 198.2 156.6 193.53 163.1 167.82 155.84 170.84 157.25 185.49 169.84 172.97 169.55 148.85 159.5 161.03 165.65 174.86 176.22 159.79 171.73 139.22 166.24 149.27 175.57 160.02 180.36 138.63 171.91 127.64 169.78 148.91 177.11 158.6 179.06 134.91 173.62 129.29 173.39 148.2 178.94 156.36 180.89 126.81 171.67 125.1 170.26 139.87 177.52 146.55 176.28 115.05 173.56 112.09 176.93 118.59 190.76 111.21 180.77 102.11 175.4 110.2 188.16 110.91 194.9 95.84 182.96 96.61 183.2 108.78 200.22 102.76 198.09 90.46 183.67 98.32 189.46 104.41 202.7 90.17 196.32 80.53 187.63 97.08 196.67 100.87 205.71 75.45 201.1 71.37 194.96 92.18 205 91.82 208.08 68.54 197.74 67.59 198.8 85.32 210.38 76.93 212.1 51.22 206.66 71.37 216.11 71.02 209.56 49.98 204.35 51.16 209.56 65.05 215.29 52.23 208.96 33.02 204.35 46.85 214.22 55.54 212.21 39.76 202.7 27.23 208.14 40.11 213.63 34.14 206.19 12.98 200.69 26.34 208.79 41.47 209.56 29.71 196.55 15.94 198.03 23.09 204.18 27.23 195.19 6.6 183.2 6.9 193.6 20.43 199.15 15.29 184.91 2.52 180.6 8.08 189.93 13.16 181.78 1.11 172.5 2.88 181.78 12.87 187.93 6.66 170.14 4.06 169.66 13.1 171.91 8.67 169.01 5.24" fill="none" stroke="black" stroke-width="2" /></svg>