<?xml version="1.0" encoding="utf-8" ?>
<svg baseProfile="full" height="757" version="1.1" width="535" xmlns="http://www.w3.org/2000/svg" xmlns:ev="http://www.w3.org/2001/xml-events" xmlns:xlink="http://www.w3.org/1999/xlink"><defs /><rect fill="white" height="757" width="535" x="0" y="0" /><path d="M125.16 541.71 108.62 543.48 91.83 548.62 80.37 556.37 75.82 562.81 75.52 565.82 81.43 574.33 88.76 579.83 98.51 583.67 110.33 584.91 116.77 588.16 128.71 595.9 136.1 598.74 140.77 599.15 149.87 597.91 154.36 596.49 166.24 590.94 173.21 586.39 183.79 572.5 191.53 557.61 193.42 551.28 187.51 542.36 180.07 536.86 174.45 535.03 161.1 532.96 154 532.49 140.35 533.38 126.41 536.21 115.29 541.77M63.82 607.19 57.26 601.81 55.61 603.23 55.43 610.5 56.79 612.22 61.04 614.87 63.23 615.7 67.84 615.64 74.7 611.57 77.95 611.8 81.85 616 81.55 610.92 79.84 605.6 72.04 598.98 68.96 597.91 63.47 597.56 59.09 600.04 57.14 602.76 56.67 605.12M175.93 608.31 167.36 609.26 156.78 614.28 154.36 619.43 157.25 623.56 159.38 624.57 165.7 625.1 175.28 619.19 180.07 617.06 183.32 617.18 185.68 615.52 184.14 610.62 180.3 607.84 171.61 608.08" fill="none" stroke="black" stroke-width="2" /></svg>