<?xml version="1.0" encoding="utf-8" ?>
<svg baseProfile="full" height="757" version="1.1" width="535" xmlns="http://www.w3.org/2000/svg" xmlns:ev="http://www.w3.org/2001/xml-events" xmlns:xlink="http://www.w3.org/1999/xlink"><defs /><rect fill="white" height="757" width="535" x="0" y="0" /><path d="M296.19 633.02 287.98 633.37 264.16 639.87 259.79 641.94 252.4 650.1 250.04 659.26 250.57 667.41 253.23 672.44 260.02 678.94 268.12 684.38 278.11 690.34 289.51 695.6 303.52 700.15 335.31 708.01 350.56 710.97 363.27 710.08 378.51 705.53 397.25 703.41 433 696.43 463.85 691.76 477.5 686.62 487.67 677.52 498.19 665.11 502.56 649.98 502.91 640.11 498.84 625.34 490.56 611.92 478.21 607.37 466.86 607.72 462.96 609.5 459.54 609.14" fill="none" stroke="black" stroke-width="2" /></svg>