<?xml version="1.0" encoding="utf-8" ?>
<svg baseProfile="full" height="757" version="1.1" width="535" xmlns="http://www.w3.org/2000/svg" xmlns:ev="http://www.w3.org/2001/xml-events" xmlns:xlink="http://www.w3.org/1999/xlink"><defs /><rect fill="white" height="757" width="535" x="0" y="0" /><path d="M316.99 281.38 309.61 301.53 306.65 359.15M418.64 173.17 401.8 161.88 387.91 156.56 361.44 153.07 351.45 153.13 329.4 155.08 310.08 158.69 293.41 165.31 280.29 174.71 269.6 184.22 259.79 194.56 249.09 209.46 248.03 209.81 248.2 207.33 251.22 201.24 256.89 193.26 274.62 177.66 284.55 171.93 324.44 155.73 337.97 152.13 351.39 150.53 364.27 150.59 376.39 153.61 391.1 158.81 403.51 165.37 413.8 175.24 436.37 214.12 439.33 227.66 438.85 253.19M328.93 263.83 325.98 279.49 325.86 286.52 330.59 290.13 358.78 269.56 361.67 271.45 370.6 297.99 380.11 299.76 392.7 289 403.34 281.85 407.89 282.68 418.64 288 427.09 289.18 434.48 283.09 441.22 272.34 442.75 272.81 453.69 288.88 455.05 286.88M215.23 258.86 209.02 266.31 206.3 275.29 215.35 273.93 247.38 250.23 256.48 248.22 263.04 256.14 267.65 268.79 271.84 272.57 278.46 269.09 288.69 261.34M295.42 266.55 303.7 262.59 313.92 262.41 319.06 257.8 317.29 255.97 314.63 259.93 314.87 264.65 319.24 265.95M314.87 310.22 308.66 322.51 302.75 344.44 300.15 372.27M299.68 381.32 300.03 389.47 302.57 365.48" fill="none" stroke="black" stroke-width="2" /></svg>