<?xml version="1.0" encoding="utf-8" ?>
<svg baseProfile="full" height="757" version="1.1" width="535" xmlns="http://www.w3.org/2000/svg" xmlns:ev="http://www.w3.org/2001/xml-events" xmlns:xlink="http://www.w3.org/1999/xlink"><defs /><rect fill="white" height="757" width="535" x="0" y="0" /><path d="M161.39 46.52 151.11 61.94 133.44 91.49 113.58 129.14M216.47 238.06 203.76 253.01 185.68 298.1M252.22 418.43 240.99 439.35 227.7 491.65M430.64 261.05 419.35 312.41 416.04 333.03M459.83 105.5 457.35 132.27 453.21 158.87M220.9 62.65 210.91 85.88 207.72 101.19M369.65 73.82 363.62 83.4 358.83 109.81M83.91 367.25 75.7 390.18 62.17 438.05M131.07 429.78 116.36 453 107.38 475.16 80.13 549.81M342.64 560.5 335.79 579.59 332.65 647.97M304.88 518.37 296.55 530.78 285.79 585.09 284.9 604.3M438.73 196.34 445.41 254.37 444.94 279.07M294.3 454.36 293.77 470.91 295.19 493.49 297.43 509.8" fill="none" stroke="black" stroke-width="2" /></svg>