<?xml version="1.0" encoding="utf-8" ?>
<svg baseProfile="full" height="757" version="1.1" width="535" xmlns="http://www.w3.org/2000/svg" xmlns:ev="http://www.w3.org/2001/xml-events" xmlns:xlink="http://www.w3.org/1999/xlink"><defs /><rect fill="white" height="757" width="535" x="0" y="0" /><path d="M58.5 32.72 56.5 39.72 60.5 59.72 61.5 75.72 66.5 100.72 69.5 125.72M84.5 30.72 85.5 30.72 84.5 39.72 84.5 49.72 88.5 114.72M121.5 29.72 116.5 32.72 116.5 46.72 119.5 69.72M152.5 23.72 153.5 23.72 149.5 27.72 149.5 43.72M438.5 33.72 435.5 41.72 437.5 88.72M476.5 52.72 471.5 56.72 467.5 95.72 466.5 120.72M77.5 222.72 78.5 242.72 86.5 310.72 93.5 345.72M106.5 251.72 110.5 264.72 118.5 309.72M436.5 220.72 433.5 232.72 433.5 258.72 434.5 282.72 440.5 337.72 446.5 368.72 448.5 372.72M462.5 218.72 459.5 229.72 457.5 261.72 458.5 287.72 463.5 340.72 467.5 368.72M87.5 381.72 86.5 387.72 90.5 411.72 90.5 415.72M130.5 362.72 131.5 363.72 124.5 367.72 124.5 371.72 136.5 437.72M221.5 498.7 221.5 510.7 224.5 529.7 225.5 546.7 226.5 546.7" fill="none" stroke="black" stroke-width="2" /></svg>