<?xml version="1.0" encoding="utf-8" ?>
<svg baseProfile="full" height="757" version="1.1" width="535" xmlns="http://www.w3.org/2000/svg" xmlns:ev="http://www.w3.org/2001/xml-events" xmlns:xlink="http://www.w3.org/1999/xlink"><defs /><rect fill="white" height="757" width="535" x="0" y="0" /><path d="M293.65 45.75 291.52 33.58 292.23 33.28 293.71 33.28 291.29 36.41 287.5 48.23 286.5 67.09 287.8 86.59 286.97 124.12 287.45 134.99 286.85 141.31 284.25 146.69 284.02 148.82 286.68 150.95M318.71 64.07 309.61 66.2 308.54 80.26 314.93 143.44 318.47 165.66 325.27 190.66 325.98 207.8 324.5 207.8M358.01 66.2 350.56 60.94 349.44 61.77 345.6 70.51 343.23 82.27 342.76 117.56 340.51 140.01 341.34 145.57 343.47 150.77 354.34 167.38 355.82 172.05 356.29 182.27 353.58 200.24 354.52 216.02M387.62 56.09 382.3 62.24 379.34 116.49 378.4 179.55 379.76 192.55 382.71 202.54 387.08 225.65 387.56 236.76 384.01 253.13 374.32 264.06M427.51 61.47 423.43 54.38 421.54 56.45 411.96 74.41 405.64 90.08 404.87 107.27 411.9 157.33 416.45 181.92 418.4 203.25 418.17 212.76 416.57 220.57 409.13 244.09 407.71 251.95 407.18 258.98 409.24 285.63M287.39 710.56 290.28 720.13 290.46 736.74 294.18 738.63 292.71 731.89M45.26 447.8 55.37 455.13 57.56 459.39 62.99 480.19 41.01 558.32 41.9 572.21 46.51 588.16 52.12 612.92 52.77 627.29 51.94 637.75 51.06 638.63 57.73 633.96M120.79 439.47 119.43 450.76 114.47 467.54 107.49 487.75 98.22 508.73 86.1 524.87 71.21 541.47 65.65 551.88 62.4 561.74 61.22 566.83 60.51 577.76 65.12 602.29 64.71 622.32 59.57 641.47 55.84 662.27 52.12 671.55 45.68 679.23M466.33 372.81 475.08 368.25 480.63 369.38 481.82 372.57 482.29 387.4 479.75 403.18 476.91 441.48 467.51 475.87 462.91 488.46 471.77 524.1 474.37 543.36 476.14 580.83 478.68 606.78 476.73 641.76 470.06 662.57 459.6 678.7 437.2 707.36M496.3 441.18 505.57 463.05 508.23 487.63 504.21 526.88 501.73 577.94 494.34 622.14 485.72 645.67 482.82 659.91 483.23 677.28 487.49 681.24M479.98 704.35 470 707.07 472.72 705.65M424.14 356.91 421.42 365.06 422.48 370.62 433.47 397.92 444.17 417.72M95.91 364.83 106.84 343.96 133.62 299.29 155.19 273.4 158.08 272.04M135.15 343.85 144.9 337.64 154.24 329.43 173.8 302.3 181.07 295.62 184.73 294.85 185.68 295.44M52.95 193.62 66.78 182.39 93.07 164.54 147.98 128.73 174.87 112.95 183.73 108.87 191.53 108.57 185.03 126.95M135.62 187.59 111.16 195.74 106.84 195.63 99.81 197.28 90.89 210.93 87.16 227.72 91.72 230.79 126.94 175.53 132.2 174.82 137.87 183.39 141.53 194.62 154.36 180.5 163.16 167.26 177.88 147.58 179.83 146.34 182.43 154.61 186.45 177.19 188.99 182.21M93.19 262.11 84.27 265.36 80.96 267.96 68.9 283.09 56.32 300.76 54.42 301.06 55.43 298.28 63.05 285.99 91.77 253.78 119.73 228.72 161.45 205.73 190.88 194.21 198.8 194.15 194.72 207.27 188.75 220.45M121.68 231.74 117.3 241.61 108.74 265.19 100.17 293.2 95.91 298.58 94.14 289.59 96.03 284.75M126.46 241.19 124.51 253.78 128.47 265.42 148.39 263.53 163.46 242.37 154 229.08 140.47 232.68 136.87 234.87 137.1 236.05 154.18 230.32 175.4 227.89 204.12 230.26 188.04 249.05 163.4 273.64M107.14 302.83 98.81 310.34 91.42 319.68 55.31 371.92 55.37 364.89 59.09 354.84 97.39 300.47 130.84 271.63 163.87 254.49 156.19 285.4 134.8 349.58 117.66 384.33 100.23 399.7" fill="none" stroke="black" stroke-width="2" /></svg>