<?xml version="1.0" encoding="utf-8" ?>
<svg baseProfile="full" height="757" version="1.1" width="535" xmlns="http://www.w3.org/2000/svg" xmlns:ev="http://www.w3.org/2001/xml-events" xmlns:xlink="http://www.w3.org/1999/xlink"><defs /><rect fill="white" height="757" width="535" x="0" y="0" /><path d="M282.07 205.55 281.5 205.49 281.06 213.65 278.94 214.89 282.01 213.59 286.15 216.61 287.68 214.72 288.39 215.31 287.09 215.78 286.62 215.19 287.21 213.77 288.04 213.36 288.51 214.07 290.4 212.71 292.82 214.95 298.08 214.36 300.98 215.07 304.64 214.36 305.12 215.19 307.48 215.42 308.54 216.37 316.28 215.96 315.81 214.66 316.52 213.65 322.19 212.71 323.38 220.57 325.44 222.22 327.93 222.46 333.3 227.54 342.46 231.79 344.12 233.33 351.45 243.73 359.72 262.17 365.57 271.21 369.89 280.14 371.07 287.11 370.54 296.63 369.59 299.35 366.28 303.01 365.75 304.37 366.46 306.02M273.73 222.34 265.64 231.03 261.32 236.76 261.32 238.18 259.61 240.6M334.19 280.02 344.47 299.46 349.14 311.58 356.47 341.01 356.83 341.48 358.36 340.42M259.97 277.36 268.36 277.66 272.14 279.78 271.19 283.8 271.78 283.57M265.87 293.55 269.07 304.84 270.54 307.26 272.02 307.91 274.74 306.26 274.5 304.84 271.02 304.25 262.92 305.73 261.97 306.08 263.27 306.56M305.06 311.05 309.84 319.85 315.75 323.4 317.23 322.63 317.47 319.08 312.86 308.98 309.61 307.15 305.77 309.21 305.06 317.31M298.5 269.09 292.65 278.96 284.96 296.92 283.96 314.89 288.04 355.13 293.18 359.15 298.5 362.05 299.32 360.34 295.36 362.34M282.84 360.99 275.74 367.9 275.45 368.79 277.16 371.27 285.32 374.93 293.77 376 295.01 375.23 290.81 373.46 285.97 374.34 281.83 376.82M239.81 274.41 232.31 279.19 224.39 289 221.43 297.45 219.19 308.45 212.27 317.19 211.15 324.34 207.96 327.42 207.72 331.55 208.31 334.63 218.07 356.02 224.39 367.25 254.88 415.53 268.53 433.68 270.78 435.92 270.48 434.5M365.57 320.03 366.16 331.44 370.71 366.36 371.78 382.73 370.54 389.88 365.1 401.94 361.67 405.9 348.2 413.82 336.26 418.02 309.96 423.81 301.1 427.65 278.64 439.94 265.4 438.94M253.46 252.18 245.31 256.68 243.89 262.88M199.57 542.54 201.81 550.46 197.2 626.34 192.95 660.56 189.7 675.21 184.56 688.16M234.49 605.06 237.63 641.23 238.81 680.95 241.53 700.92 233.73 702.22M189.64 688.57 180.01 692.35 154.06 718 141.36 724.62 130.78 727.81 146.14 732.72 176.17 747.37 192.77 750.03 210.74 748.91 220.02 749.74 225.51 746.31 230.59 741.35 230.77 730.71 219.6 714.46 218.3 707.19 220.25 696.67 219.6 692.35 223.32 695.37 227.4 696.55 228.88 695.54 232.37 689.93 235.91 686.8M283.49 565 284.9 574.57 293.24 599.57 307.54 647.5 310.61 666.11 312.15 688.16 307.01 695.25 288.15 697.38 276.39 696.67 263.33 697.61 251.04 703.11 244.13 708.72 243.06 711.21 243.54 714.1 244.42 715.05 248.44 715.28M339.1 550.52 338.39 563.4 344.95 588.81 363.8 643.18 372.37 673.38 374.32 693.83 372.9 702.87 367.82 706.66 331.53 718.65 323.73 719.66 316.05 722.49 314.04 722.26 307.6 726.81 290.64 730.35 285.02 734.55 290.93 731M353.1 468.13 363.8 470.61 394.23 495.85 403.39 506.01 410.37 516.18 419.23 526.7M344.24 506.31 352.39 510.56 362.2 520.91 387.62 543.13 406.23 563.93 417.16 577.58 414.45 574.33 414.33 572.32M420.59 532.2 424.96 541.18 442.1 562.93 448.01 571.73 449.14 576.46 446.65 576.99 442.69 575.4M412.44 572.21 410.31 574.69 416.28 587.51 419.76 601.81 424.2 639.64 427.21 652.76 426.38 653.35 424.31 653.05 424.61 650.22M448.96 587.51 448.9 596.2 450.08 601.81 451.09 623.98 448.72 646.49 449.9 649.63 448.9 647.85M424.26 658.49 428.1 668.12 433.89 665.46 433.47 649.27 432.06 646.55 430.11 646.79 429.99 647.97 432.41 654.35 435.72 661.33 439.68 666.59 441.39 666.41 441.75 654.94 439.62 644.07 437.26 639.64 436.96 642.77 445 654.83 451.38 657.49 455.34 654.77 453.45 646.79 447.84 639.34 446.24 638.99 446.65 641.76 448.49 644.78 439.86 642 437.91 638.4M142.24 496.62 147.5 488.05 149.99 486.28 158.55 475.4 166.18 460.04 170.14 454.24 182.55 440.24 202.23 448.63 216.53 451.76 217.71 453.3 218.54 452.35M192.77 486.75 182.55 501.35 171.02 513.82 165.65 526.58 161.69 542.77 156.01 581.84 152.29 598.74 150.1 613.1 149.1 628.47 148.45 628.17M134.27 530.13 129.71 540.11 121.15 571.5 118.9 602.88 116.36 611.98 113.64 618.13 114.29 623.68 118.37 628.23 120.61 629.18M130.66 617.95 127.88 626.28 128.59 633.55 137.46 656.6 135.09 657.13 133.44 654.35 137.1 650.98M124.46 651.69 110.27 646.37 100.58 647.67 104.07 652.17 110.57 657.96 113.23 663.63 115.06 654.53 121.32 648.15 127.23 640.29 132.55 635.15M141.83 615.7 150.34 641.88 153.29 650.22 154.18 650.93 154.77 647.14 152.53 639.16 150.22 635.74 147.86 634.67 143.96 636.27 134.09 656.89 130.01 657.96 122.92 652.99 116.89 651.69 110.69 652.82 96.62 648.32 97.74 647.56 108.68 653.05 121.62 655.59 95.97 640.82 98.98 641.11 105.84 639.87M106.43 624.92 106.08 633.25 108.91 639.93 110.21 645.67 108.74 664.87 106.13 666.05 112.28 664.1M430.22 650.33 429.75 653.29 431.23 653.17 429.34 657.01 431.35 657.13M237.92 457.55 241.82 446.68 248.2 447.62 253.7 453.12 261.38 465.06 258.19 463.99 256.95 466.18 258.13 468.25M299.56 449.16 295.84 459.03 295.25 465.53 289.75 481.55M51.29 667.3 60.33 668.6 68.08 674.03 80.25 685.91 97.09 699.92 141.42 728.99 183.08 747.85 214.4 757.66 263.51 763.92 293.24 766.94 321.6 765.4 425.14 745.96 440.03 742.17 452.03 738.16 463.38 732.78 475.43 724.27 477.5 719.95 472.6 720.31 461.49 718.77 446.48 718 418.88 721.02 398.96 720.25 378.46 721.49 358.78 726.99 332.54 740.99 317.76 746.9 307.72 750.33 284.31 755.89 272.79 760.14 259.91 767.76 283.07 769.18 292.88 766.76 285.14 761.74 266.7 758.66 231.95 759.31 202.76 761.26 199.33 764.1M22.1 668.95 27.48 676.4 31.79 679.59 42.49 684.79 55.96 695.84 70.79 710.91 102.12 746.55 106.25 750.27 112.81 753.88 128.41 758.66 144.19 757.13 160.98 752.28 176.87 750.98 193.3 750.92 214.11 752.99 222.67 758.31 228.64 763.33 239.16 767.53 252.28 768.36 274.38 759.31 289.93 754.53 297.08 753.76M270.31 756.42 279.35 782.18 280.35 790.99 277.75 807.48 264.87 801.75 254.47 793 262.62 794.95 273.32 795.25M242.77 729.76 234.49 735.67 230.36 759.55 230.18 764.69 233.31 769.18 235.14 769.3 246.55 756.36 255 736.86 254.82 735.02M243.65 735.55 243.95 745.6 246.61 761.2 245.31 767.35 241.88 774.21 239.69 774.68 233.19 768.24 235.56 760.67 240.64 753.23 244.78 751.63 260.14 755.06 267.77 750.09M265.87 721.31 262.8 737.92 260.85 774.15 258.72 781.71 254.47 782.48 245.49 777.52 242.65 776.75 236.68 776.45 232.54 778.52 231.42 779.94 271.08 794.65 270.78 790.52 268.3 789.28M377.75 698.5 385.07 702.4 390.63 720.43 399.2 741.94 407.71 745.54" fill="none" stroke="black" stroke-width="2" /></svg>