<?xml version="1.0" encoding="utf-8" ?>
<svg baseProfile="full" height="757" version="1.1" width="535" xmlns="http://www.w3.org/2000/svg" xmlns:ev="http://www.w3.org/2001/xml-events" xmlns:xlink="http://www.w3.org/1999/xlink"><defs /><rect fill="white" height="757" width="535" x="0" y="0" /><path d="M261.74 306.14 246.37 305.08 238.16 307.09 233.25 309.1 225.16 315.18 212.1 328.95 208.55 334.27 203.35 351.65 200.34 365.89M258.13 307.62 271.61 303.25 273.68 306.08 281.54 307.44 283.78 311.93 292.94 316.72 301.16 324.05 311.79 331.91 317.94 339.06 328.28 364.89M195.19 372.69 201.64 366.95 215.52 360.22 218.01 360.34 217.95 362.94 218.77 363.53 222.97 364.06 223.56 365.06 223.5 371.56 226.87 373.75 230.36 373.04 236.98 369.14 249.03 366.36 255.24 365.6 256.83 369.97M244.78 372.27 253.94 369.55 263.98 365.06 265.52 368.14 274.09 370.8 274.21 373.1 271.31 379.42 288.33 371.74 291.17 371.39 292 375.35 293.95 375.82 299.44 374.64M303.87 372.98 316.64 373.34 335.08 366.36 343.23 365.18M275.15 374.46 275.15 388.23 277.22 399.22 276.63 416.36 272.61 431.96 269.89 437.1 266.76 439.06 251.63 434.5 245.25 426.05" fill="none" stroke="black" stroke-width="2" /></svg>