<?xml version="1.0" encoding="utf-8" ?>
<svg baseProfile="full" height="757" version="1.1" width="535" xmlns="http://www.w3.org/2000/svg" xmlns:ev="http://www.w3.org/2001/xml-events" xmlns:xlink="http://www.w3.org/1999/xlink"><defs /><rect fill="white" height="757" width="535" x="0" y="0" /><path d="M134.62 340.24 137.63 332.26 147.03 319.79 158.67 308.15 163.93 304.01 190.82 290.07 217.53 278.36 237.69 273.81 267.83 270.5 283.49 270.92 300.09 272.87 312.92 276.83 338.15 287.17 344.89 292.96 355.53 309.45 361.14 323.99 367.94 338.35 370.06 350.82 375.26 362.99 374.67 363.7 369.71 363.64M243.42 263.71 242.89 271.8 243.83 277.3 241.7 261.58 241.76 271.75M135.74 393.55 143.54 391.07 164.35 376.59 181.42 368.79 201.99 362.82 229.41 357.26 245.78 356.32 261.5 354.19 268.83 354.13 284.61 355.08 299.26 357.08 337.74 356.73 371.01 363.82 376.39 363.64 379.05 362.05 376.21 361.58M248.09 361.93 249.45 373.28 250.75 399.4 254 425.58 256.83 440.12 257.42 441.36 258.55 441.36 259.73 445.62 259.67 487.22 260.85 496.74 262.39 501.11 270.48 507.67 276.63 512.04 280.77 512.75 287.33 508.97 289.28 506.31 289.63 499.04 286.5 496.32 287.03 494.55M137.81 337.4 130.25 342.13 129.54 345.86 128.12 355.43 127.88 365.89 129.89 391.66 129.89 393.25 129.18 393.43 129.12 392.72 129.6 389.47" fill="none" stroke="black" stroke-width="2" /></svg>