<?xml version="1.0" encoding="utf-8" ?>
<svg baseProfile="full" height="757" version="1.1" width="535" xmlns="http://www.w3.org/2000/svg" xmlns:ev="http://www.w3.org/2001/xml-events" xmlns:xlink="http://www.w3.org/1999/xlink"><defs /><rect fill="white" height="757" width="535" x="0" y="0" /><path d="M94.5 84 94.5 82 89.5 74 84.5 69 84.5 80 77.5 137 76.5 166 79.5 188 87.5 220 88.5 221M152.5 64 149.5 63 145.5 71 138.5 94 131.5 129 129.5 163 132.5 189 139.5 222 143.5 227 144.5 227M213.5 66 212.5 59 211.5 60 206.5 81 199.5 114 195.5 149 197.5 171 202.5 184 206.5 189M282.5 59 282.5 55 281.5 57 258.5 132 249.5 174 250.5 203 256.5 217M357.5 68 356.5 65 345.5 92 334.5 130 330.5 162 332.5 181 339.5 192M423.5 60 422.5 58 406.5 132 404.5 165 406.5 188 409.5 199M474.5 55 474.5 52 470.5 70 459.5 101 449.5 136 447.5 161 447.5 170M71.5 272 70.5 272 79.5 370 83.5 402 90.5 472M115.5 300 110.5 312 103.5 373 107.5 403 110.5 408M154.5 284 147.5 313 140.5 360 142.5 407 145.5 415 149.5 411M196.5 277 196.5 275 195.5 276 190.5 299 183.5 339 179.5 374 179.5 391 180.5 394 183.5 385M213.5 279 213.5 283 209.5 310 201.5 353 199.5 373M403.5 302 398.5 344 396.5 408 398.5 422 403.5 441M431.5 264 424.5 376 424.5 445 430.5 488M445.5 433 447.5 437 454.5 501 460.5 531 464.5 541M472.5 535 470.5 546 467.5 585 467.5 608 469.5 628M411.5 561 405.5 564 390.5 620 390.5 635M363.5 396 358.5 397 344.5 425 344.5 427M139.5 558 133.5 558 128.5 610 129.5 618 132.5 629 132.5 632M111.5 595 106.5 602 103.5 649 103.5 717M40.5 574 37.5 572 38.5 609 43.5 642 54.5 673M209.5 607 204.5 619 196.5 659 194.5 674M470.5 681 468.5 681 458.5 726" fill="none" stroke="black" stroke-width="2" /></svg>