<?xml version="1.0" encoding="utf-8" ?>
<svg baseProfile="full" height="757" version="1.1" width="535" xmlns="http://www.w3.org/2000/svg" xmlns:ev="http://www.w3.org/2001/xml-events" xmlns:xlink="http://www.w3.org/1999/xlink"><defs /><rect fill="white" height="757" width="535" x="0" y="0" /><path d="M224.27 324.76 214.16 325.47 210.97 319.08 209.2 302.06 211.51 291.72 215.46 283.21 224.03 270.62 230.18 263.18 234.91 258.33 238.1 256.73 241.17 256.32 247.26 258.74 261.92 268.26 265.93 272.75 269.24 278.13 271.08 284.33 271.61 294.62 269.78 299.7 265.93 304.6 248.38 321.21 230.83 331.67 225.98 332.91 224.62 330.61 224.62 328.95 227.76 327.77 228.94 325.29 227.64 326.41 226.87 328.19 227.58 328.42 220.67 328.48 218.01 336.1 215.64 357.97 211.39 382.32 210.44 396.33 210.5 413.23 213.28 437.34 216.94 455.66 222.08 475.93 224.39 479.77 227.28 481.19 234.61 480.54 237.8 478.36 241.05 475.76 248.56 465.06 251.63 459.09 253.7 452.53 254.65 445.79 257.66 380.96 256.24 377.24 254 374.34 248.56 369.79 243.65 367.78 242.35 368.02 242.3 369.02 243.06 378.36M213.63 454.07 206.9 460.92 197.97 502.88 191.53 519.84 194.43 519.96 197.85 518.19 208.91 504.89 213.28 495.61 215.52 488.05 216.29 482.02 215.58 477.06 210.26 469.55 207.84 463.99 207.55 465.41M252.64 457.26 250.98 458.03 251.1 457.08 254.11 453 266.47 474.99 288.33 503.47 293.36 509.38 296.61 512.16 297.91 512.28 298.26 510.33 295.31 492.01 292 480.96 280.41 462.04 273.14 454.48 268.83 451.23 268.24 451.82M199.74 380.31 200.16 366.78 199.21 365.48 196.38 365 158.79 393.84 151.94 399.99 150.52 403.3 147.68 419.61 146.97 426.35 147.5 427 164.05 411.63 170.31 407.91 175.87 403.12 188.16 386.52 192.83 381.55 196.26 378.89 199.09 378.48 200.1 379.19M277.22 372.98 262.68 373.75 256.95 376.65 278.46 376.41 294.12 379.54 310.2 380.67 318.24 380.02 322.14 377.65 322.79 375.29 322.49 368.02 320.3 361.81 315.16 355.19 310.73 351.82 298.26 351.53 293.77 352.53 287.86 355.73 284.67 358.8 280.18 361.34 266.35 366.3 261.21 366.72 250.51 365.71 248.44 365 247.73 363.59M202.11 340.36 207.01 348.57 207.49 360.57M203.35 418.55 197.85 429.3 201.1 431.08" fill="none" stroke="black" stroke-width="2" /></svg>