<?xml version="1.0" encoding="utf-8" ?>
<svg baseProfile="full" height="757" version="1.1" width="535" xmlns="http://www.w3.org/2000/svg" xmlns:ev="http://www.w3.org/2001/xml-events" xmlns:xlink="http://www.w3.org/1999/xlink"><defs /><rect fill="white" height="757" width="535" x="0" y="0" /><path d="M211.03 469.14 203.53 472.45 198.15 480.6 196.49 487.52 199.69 491.77 200.81 498.27 198.15 502.7 189.7 509.21 183.85 515.23 182.43 515.71 185.86 516.59 189.23 516.36 190.7 517.07 188.52 517.78 201.58 520.26 210.91 518.72 214.4 516.42 213.1 516.18 212.1 517.72M197.09 524.99 194.96 533.08 198.21 542.6 201.46 549.04 207.96 556.9 213.93 561.69 222.26 564.4 236.33 564.64 247.73 562.63 252.93 559.91 261.74 551.46 270.43 534.5M210.03 457.26 199.15 460.63 196.91 465.12M211.74 454.89 225.16 449.04 236.8 446.92 254.17 447.15 261.27 448.16 264.69 449.1 270.66 452.53 280.12 466.54 284.61 482.61 283.78 513.34 281.77 522.98 280.24 526.64 273.44 530.54M242.47 462.58 247.26 474.93 245.72 481.78M263.16 477 263.04 488.82 263.69 493.07 264.52 494.14M223.32 573.86 218.07 586.45 216.23 592.89M250.98 563.81 249.45 574.04 250.21 580.66M244.19 589.23 253.17 586.15 264.16 585.03 270.9 585.56 276.39 587.75 291.29 597.09 299.97 606.84 305.47 615.05 309.67 624.92 312.62 636.21 313.8 651.04M212.04 595.31 205.06 616 203.7 632.13M206.54 631.25 197.97 641.47 194.66 643.83 187.04 646.2 181.01 643.95 175.1 638.34 169.31 631.95 162.28 615.64 159.68 601.64 159.2 595.49 160.15 586.98 158.73 584.32 159.62 586.15M141.24 593.72 147.86 605.95 152.53 631.84 154.3 636.03 158.61 640.88 168.31 641.47M143.9 595.84 141.3 586.51 146.44 582.43 157.43 579.12 162.51 580.42 161.21 584.62 156.07 589.94M146.2 569.19 148.86 557.02 157.61 545.43 159.91 551.93 159.32 561.51 160.09 561.51M166.53 556.25 166.71 567.06 166.71 563.34 167.83 560.56 168.07 565.94 167.01 574.16M168.54 529.83 163.52 549.1 162.04 552.88 159.85 555.24M260.08 617.12 273.03 619.78 282.19 627.23 285.67 634.61 286.85 642.77 289.51 652.82 294.89 667.59M306.53 670.72 306.12 683.55 308.96 693.18 310.43 696.96 310.43 695.13M315.93 667.06 316.23 678.47 317.53 687.15 319 694.36 322.43 701.57M198.5 636.51 200.51 650.93 199.15 676.22 201.1 678.58 205.6 679.17 214.05 677.11 229.53 675.98 258.07 677.46 285.2 674.86 290.22 676.93M217.18 679.47 213.51 693.54 206.66 763.51 207.13 764.81 207.55 764.4M251.57 681.3 248.68 689.28 245.13 714.22 241.88 759.55 240.76 763.51M273.44 678.76 282.42 682.6 283.6 684.32 286.03 693.42 292.53 757.13 296.37 778.34M257.54 677.7 255.36 674.92 258.49 681.66 260.56 691.53 261.27 706.18 265.46 732.78 273.32 760.32" fill="none" stroke="black" stroke-width="2" /></svg>