<?xml version="1.0" encoding="utf-8" ?>
<svg baseProfile="full" height="757" version="1.1" width="535" xmlns="http://www.w3.org/2000/svg" xmlns:ev="http://www.w3.org/2001/xml-events" xmlns:xlink="http://www.w3.org/1999/xlink"><defs /><rect fill="white" height="757" width="535" x="0" y="0" /><path d="M233.84 90.37 226.99 105.26 225.98 111.23M273.08 114.01 269.13 121.87 263.04 155.08M306.06 151.12 302.46 167.08 301.63 178.31M336.02 172.1 330.76 188.18 330.76 197.93M346.54 252.42 343.17 265.84 343.94 272.57M46.39 53.97 44.02 65.31 44.32 71.93M147.09 30.62 145.73 45.75 151.88 61.06M236.74 26.6 235.74 37.24 236.56 50.83 237.86 57.81M289.75 51.78 295.25 60.7 298.97 64.6M414.39 136.41 410.6 145.39 411.9 158.93M463.56 143.44 462.73 155.32 463.38 160.94M470.82 207.51 469.64 225 470.59 230.73M57.5 188.71 49.99 191.78 50.41 200.95" fill="none" stroke="black" stroke-width="2" /></svg>