<?xml version="1.0" encoding="utf-8" ?>
<svg baseProfile="full" height="757" version="1.1" width="535" xmlns="http://www.w3.org/2000/svg" xmlns:ev="http://www.w3.org/2001/xml-events" xmlns:xlink="http://www.w3.org/1999/xlink"><defs /><rect fill="white" height="757" width="535" x="0" y="0" /><path d="M273.5 398 272.5 398 276.5 394 279.5 393 282.5 389 287.5 388 295.5 383 299.5 383 307.5 380 320.5 380 322.5 381 326.5 381 331.5 383 331.5 384 335.5 389 340.5 402 341.5 403 343.5 411 344.5 412 344.5 432 343.5 433 343.5 438 342.5 439 341.5 448 340.5 450 338.5 452 337.5 452M273.5 400 275.5 407 275.5 417 274.5 417 274.5 426 273.5 423 273.5 419M283.5 412 284.5 412 286.5 410 289.5 409 293.5 406 296.5 406 300.5 403 311.5 403 312.5 404 314.5 404 315.5 408 316.5 409 316.5 411 317.5 411 318.5 415 322.5 417 330.5 417 332.5 415 336.5 413 340.5 409 340.5 408 341.5 408 338.5 409M285.5 436 291.5 437 292.5 435M321.5 459 326.5 457 332.5 451 329.5 455 321.5 459 314.5 462 305.5 464 294.5 463 285.5 460 283.5 459 282.5 457 281.5 457 282.5 456M303.5 450 306.5 452 313.5 453 317.5 451 321.5 447 321.5 446 323.5 445 322.5 445 319.5 448 308.5 452 304.5 455 296.5 459 294.5 459 294.5 457 293.5 456 293.5 454 296.5 450 296.5 449 299.5 453 302.5 454 306.5 454M334.5 419 332.5 418 332.5 426 334.5 426M311.5 425 315.5 423 319.5 423 320.5 422 321.5 422 321.5 423 323.5 424M311.5 433 313.5 433 315.5 435 318.5 433M315.5 475 315.5 505 316.5 506M323.5 466 322.5 466 322.5 468 326.5 506 326.5 516M279.5 437 278.5 437 278.5 436 276.5 444 276.5 452 277.5 451M310.5 389 312.5 392 312.5 396 310.5 398M260.5 490 260.5 491 256.5 491 258.5 491 259.5 492 282.5 492 288.5 491 297.5 488 303.5 487 310.5 487 318.5 485 319.5 484 323.5 484 328.5 482 342.5 482 343.5 481 346.5 481 348.5 480 363.5 480 369.5 481 375.5 484 376.5 486 386.5 493 386.5 495 393.5 504M304.5 464 305.5 466 304.5 479 306.5 480M316.5 501 313.5 501 312.5 503 312.5 509 311.5 513 311.5 530 310.5 535 310.5 577 311.5 579 311.5 596 307.5 591 306.5 588M318.5 503 318.5 498 315.5 495 315.5 534 316.5 539 315.5 548 315.5 597 316.5 599 315.5 598 315.5 595M307.5 520 306.5 520 308.5 521 310.5 521 314.5 525M312.5 538 318.5 539 319.5 540M315.5 553 315.5 554 317.5 555 317.5 556M314.5 573 315.5 576 319.5 578M296.5 520 296.5 522 294.5 522M279.5 540 274.5 540 273.5 539 274.5 539 285.5 542 294.5 542 298.5 541 296.5 539 295.5 539 295.5 538M278.5 539 274.5 539 271.5 537 268.5 537 266.5 538 263.5 543 261.5 551 261.5 560 260.5 563 260.5 569 260.5 565M251.5 530 249.5 530 249.5 533 247.5 542 246.5 543 245.5 550 245.5 559 249.5 562M334.5 533 336.5 533 340.5 531 348.5 530 353.5 528 353.5 527 359.5 530 369.5 530 369.5 529 371.5 529 374.5 526 375.5 526 381.5 536 382.5 541 389.5 556 392.5 559 393.5 559 393.5 557M399.5 505 398.5 505 398.5 521 399.5 523 399.5 526 402.5 534 402.5 536 403.5 538 404.5 538 405.5 540 406.5 540 407.5 543 408.5 543 406.5 543M331.5 544 330.5 545 331.5 542M279.5 563 276.5 563 274.5 575 274.5 604 275.5 609 276.5 610 288.5 614 295.5 614 307.5 612 313.5 610 317.5 610 327.5 608 334.5 608 340.5 606 356.5 603 364.5 603 367.5 604 376.5 604 376.5 605 378.5 607 378.5 612 377.5 612 377.5 609 375.5 602 372.5 595 369.5 577 366.5 566 364.5 562 363.5 553 363.5 532M237.5 566 237.5 565 233.5 565 233.5 571 234.5 576 235.5 580 237.5 581 239.5 577 240.5 572 240.5 566 241.5 572 241.5 584 244.5 583 255.5 574M398.5 559 397.5 559 397.5 560 400.5 582 402.5 580 406.5 565 407.5 568 410.5 571 415.5 573 422.5 573 420.5 569 419.5 561 412.5 548 407.5 546 403.5 546M302.5 610 300.5 611 298.5 630 292.5 666 288.5 686 288.5 689 284.5 704 283.5 721 281.5 715M366.5 617 372.5 653 375.5 666 376.5 682 380.5 703 380.5 731 381.5 733 378.5 730 375.5 725M334.5 658 330.5 663 330.5 667 329.5 670 329.5 701 328.5 709 328.5 719 329.5 719M342.5 684 340.5 684 340.5 690 344.5 705 350.5 718 352.5 720 357.5 734 361.5 741 363.5 741 373.5 737 376.5 734 376.5 731M277.5 718 279.5 718 291.5 713 297.5 712 301.5 712 307.5 715 318.5 718 326.5 714M300.5 720 300.5 730 299.5 731 299.5 735 298.5 738 299.5 736M307.5 720 304.5 724 303.5 730 303.5 732 305.5 733M264.5 745 255.5 747 251.5 745 258.5 743 262.5 741 278.5 739 301.5 732 317.5 731 319.5 735 319.5 756 312.5 751 308.5 750 303.5 750 294.5 751 286.5 753 256.5 762 251.5 762 249.5 760 248.5 751 250.5 745 255.5 738 257.5 737M345.5 741 341.5 740 340.5 739 344.5 743 347.5 744 351.5 744 361.5 740 363.5 740 366.5 738 374.5 736 374.5 735 380.5 732 382.5 733 390.5 733 392.5 739 393.5 746 393.5 750 392.5 753 379.5 753 374.5 752 370.5 751 360.5 746 350.5 746 336.5 751 334.5 751 330.5 747 324.5 739 320.5 738M258.5 750 257.5 750 259.5 751" fill="none" stroke="black" stroke-width="2" /></svg>