<?xml version="1.0" encoding="utf-8" ?>
<svg baseProfile="full" height="757" version="1.1" width="535" xmlns="http://www.w3.org/2000/svg" xmlns:ev="http://www.w3.org/2001/xml-events" xmlns:xlink="http://www.w3.org/1999/xlink"><defs /><rect fill="white" height="757" width="535" x="0" y="0" /><path d="M236.5 366 235.5 371 235.5 395M215.5 361 210.5 368 206.5 389 207.5 398M238.5 343 235.5 347 225.5 390M423.5 371 422.5 373 424.5 382 430.5 400M453.5 368 451.5 371 453.5 398 455.5 414M494.5 376 491.5 382 486.5 399 483.5 417M503.5 381 505.5 399 512.5 426 514.5 438 514.5 443" fill="none" stroke="black" stroke-width="2" /></svg>