<?xml version="1.0" encoding="utf-8" ?>
<svg baseProfile="full" height="757" version="1.1" width="535" xmlns="http://www.w3.org/2000/svg" xmlns:ev="http://www.w3.org/2001/xml-events" xmlns:xlink="http://www.w3.org/1999/xlink"><defs /><rect fill="white" height="757" width="535" x="0" y="0" /><path d="M355.5 146 355.5 191 360.5 234 363.5 229M345.5 194 345.5 190 348.5 178 351.5 156 343.5 181 340.5 188 334.5 217 334.5 241M222.5 321 222.5 318 226.5 305 226.5 298 227.5 294 236.5 273 238.5 270 240.5 264 244.5 258 248.5 254 266.5 242 272.5 237 286.5 231 342.5 216 386.5 211 403.5 211 410.5 213 416.5 216 426.5 223 446.5 233 451.5 238 462.5 256 482.5 282 490.5 297 496.5 317 501.5 335 502.5 342 502.5 354 507.5 365 507.5 368 507.5 366 506.5 366 505.5 364 491.5 356 473.5 348 456.5 334 449.5 331 441.5 325 435.5 326 425.5 336 423.5 339 421.5 346 421.5 354 418.5 351 417.5 348 414.5 345 407.5 342 393.5 333 381.5 331 375.5 332 354.5 343 343.5 350 332.5 354 330.5 354 328.5 352 321.5 340 301.5 325 299.5 326 294.5 336 293.5 341 288.5 350 284.5 349 281.5 346 273.5 341 266.5 338 262.5 338 247.5 342 237.5 342 223.5 339 218.5 336 217.5 333M304.5 230 301.5 230 296.5 232 293.5 241 283.5 264 277.5 280 274.5 295 273.5 305 277.5 312 278.5 312M344.5 237 344.5 253 328.5 316 328.5 322 331.5 322M375.5 246 373.5 246 365.5 295 364.5 306 364.5 312 367.5 314 370.5 314M406.5 240 415.5 244 424.5 250 426.5 250 430.5 261 436.5 271 444.5 281 458.5 302 472.5 319 482.5 330 485.5 332M364.5 349 360.5 352 359.5 357 358.5 358 358.5 384 362.5 413 363.5 442 365.5 465 365.5 477 364.5 482 363.5 483 363.5 488 359.5 488 351.5 493 343.5 496 321.5 496 311.5 499 299.5 499 293.5 497 290.5 494 289.5 491 289.5 487 285.5 486 283.5 482M378.5 350 377.5 351 375.5 358 373.5 361 370.5 369 369.5 383 370.5 400 370.5 424 372.5 447 372.5 475 371.5 480 371.5 487 370.5 490 370.5 498 369.5 498 369.5 499 339.5 505 318.5 508 311.5 510 301.5 509 297.5 507 294.5 504 288.5 494 288.5 489 292.5 485 297.5 481 305.5 478 319.5 476 329.5 476" fill="none" stroke="black" stroke-width="2" /></svg>