<?xml version="1.0" encoding="utf-8" ?>
<svg baseProfile="full" height="757" version="1.1" width="535" xmlns="http://www.w3.org/2000/svg" xmlns:ev="http://www.w3.org/2001/xml-events" xmlns:xlink="http://www.w3.org/1999/xlink"><defs /><rect fill="white" height="757" width="535" x="0" y="0" /><path d="M268.83 134.64 263.22 128.67 258.43 129.14 245.19 134.99 228.41 146.57 216.76 156.74 208.02 168.85 200.51 176.54 197.2 187.94 197.44 195.09 196.55 196.1 196.85 191.78 201.64 179.02 209.38 166.61 220.07 153.25 243.54 135.64 255.65 130.74 260.91 129.38 277.52 129.79 287.33 133.45 297.26 135.88 301.22 137.83 305.12 140.07 332.24 160.88 339.51 167.67 345.07 171.69 346.6 178.37 344.83 177.25 337.09 175.95 335.26 174.88 335.31 176.3 333.84 177.48 328.75 176.83 326.09 177.54 324.03 174.17 319.06 171.28 316.05 168.44 312.09 166.43 305.12 164.54 300.56 161.41 298.38 156.03 294.06 151.48 282.78 147.58 276.63 147.4 268.53 149.94 248.74 162.47 244.13 166.31 234.67 176.95 219.6 189.42 214.05 197.58 205.3 207.98 202.88 209.04 201.4 208.69 198.56 202.72 198.44 201.42 199.86 198.76M262.57 154.67 256.95 162.77 257.25 174.88 258.55 182.86 257.84 202.42 258.66 212.53 258.07 225.71 256.77 227.48 256.12 231.79 256.12 250.29 257.07 255.02 255.83 268.14 256.24 286.28 255.41 295.21 257.31 298.75 256.83 304.96 258.9 301.77 259.02 299.64 258.25 299.76M271.25 167.2 268.42 158.81 266.52 159.99 265.76 162.94 264.52 176.77 265.11 184.93 263.39 196.22 262.45 212.47 260.5 224.64 260.08 240.78 258.49 253.43 256.42 262.29 256.54 280.08 253.88 293.61 252.05 297.93 252.11 300.59 252.58 300.11 252.11 298.69 252.76 295.68" fill="none" stroke="black" stroke-width="2" /></svg>