<?xml version="1.0" encoding="utf-8" ?>
<svg baseProfile="full" height="757" version="1.1" width="535" xmlns="http://www.w3.org/2000/svg" xmlns:ev="http://www.w3.org/2001/xml-events" xmlns:xlink="http://www.w3.org/1999/xlink"><defs /><rect fill="white" height="757" width="535" x="0" y="0" /><path d="M172.21 80.8 167.18 88.07 167.12 90.73 171.08 95.63M170.49 108.75 167.3 119.68 167.66 124.77 169.61 122.34M146.97 69.33 140.53 64.49 142.42 73.82 142.24 77.25 139.41 81.8M136.98 99.89 134.32 108.28 135.33 113.36 136.98 117.02M133.02 135.88 131.19 149.53 131.55 151.54M135.51 162.12 133.5 173.94 134.68 180.5 135.03 180.97 136.51 180.2M205.06 65.55 201.52 72.88 201.64 77.07M195.37 100.3 193.3 114.07 193.3 117.38 194.66 118.21M192.06 139.07 190.29 147.46 191.71 146.63M252.7 40.96 251.81 50.95 247.91 56.21 245.9 60.7 246.61 63.72M247.73 94.15 244.25 103.37 245.43 112.71 245.96 114.07 248.03 115.49M378.87 62.59 375.68 70.93 375.85 83.4M385.49 152.31 384.48 160.94 383.12 163.89 384.07 166.67M388.44 168.56 387.5 176.95 386.08 180.79M360.02 189.36 357.18 197.04 356.12 202.78" fill="none" stroke="black" stroke-width="2" /></svg>