<?xml version="1.0" encoding="utf-8" ?>
<svg baseProfile="full" height="757" version="1.1" width="535" xmlns="http://www.w3.org/2000/svg" xmlns:ev="http://www.w3.org/2001/xml-events" xmlns:xlink="http://www.w3.org/1999/xlink"><defs /><rect fill="white" height="757" width="535" x="0" y="0" /><path d="M270.07 206.09 268.06 198.29 265.64 196.57 263.22 197.58 256.42 196.69 253.58 197.4 251.16 198.58 246.96 202.36 245.25 205.79 244.19 217.32 246.31 221.51 250.1 223.99 253.88 224.82 259.32 223.99 266.47 221.28 268.89 217.49 267.59 212.65 266.11 210.87 262.74 209.34 262.03 211.23 264.04 216.07 262.74 217.26 259.85 225.12 246.79 233.1 241.17 240.54 240.46 241.01 240.52 240.13 240.11 243.44 239.16 243.56 239.22 241.96 244.6 239.95 258.84 240.13 275.03 237.23 277.99 235.75 266.05 225.59 264.28 225.41 261.56 226.71 260.5 228.6 259.97 232.8 256.89 232.98 248.15 241.37 240.64 251.65 235.26 262.41 237.45 256.38 235.97 256.03 234.02 258.57 233.37 264.59 235.91 289.71 233.79 302.89 233.73 302.12 232.9 302.24 234.38 315.89 234.38 323.34 233.25 328.72 238.22 318.67M272.26 242.08 280.29 242.91 285.85 245.68 286.68 245.62 287.15 243.02 283.19 244.56 283.25 251.36 287.86 264.71 294.36 279.19 295.54 287.23 295.48 298.28 293.83 302.65 292.71 315.12 291.35 316.84 289.45 316.72 289.04 315.12 290.05 312.64M227.17 327.54 234.61 333.03 240.99 334.69 256.83 332.26 273.5 327.95 280.35 324.28 283.37 324.17 285.02 325.23 284.49 326.83 288.75 333.92 287.09 341.19 287.74 355.96 289.51 368.08 288.04 380.07 285.79 376.29M260.91 334.51 256.89 344.26 257.13 352.3 255.71 363.76 256.18 366.6 255.47 369.5 255.24 386.04 254.94 386.58 253.94 383.5 253.82 380.02 255.24 378.06M239.52 337.4 233.84 343.26 233.67 370.68 235.44 384.62 234.79 383.92 234.08 387.11 232.78 389.06 229.41 390.89 228.47 393.43 229.88 394.14 229.18 396.44 223.03 401.41 218.89 403.12 215.88 405.9 212.51 414.35 219.9 415.77 223.21 414.59 234.91 408.68 238.93 405.25 250.51 400.11 250.86 396.62 251.81 395.2 251.28 396.33 251.75 396.03 252.81 397.45 250.75 400.29 252.28 401.88 253.88 402.24 255.24 404.54 263.75 404.25 265.11 402.24M289.4 388.05 281.24 388.82 272.91 399.7 270.96 403.6 271.49 405.25 277.75 409.45 282.95 409.21 296.72 405.55 300.74 403.83 304.88 400.76 305.17 399.22 302.81 390.71 298.85 386.16 296.37 381.73 295.66 377.24 293.59 373.1M283.49 259.99 287.33 251.12 286.03 246.16 285.97 247.81 288.63 247.75 291.58 246.33 292.82 249.64 295.25 251.95 301.1 254.31 307.07 261.17 314.75 272.22 320.24 284.75 319.59 291.19 317.17 292.49 312.09 291.48M284.61 261.4 283.07 261.99 285.26 259.69 286.2 265.6 296.96 278.36 302.75 297.63 302.34 312.05 303.99 310.57 304.94 312.35 303.64 316.72 305.47 317.02 309.96 315.72 314.16 315.95 313.98 312.64 316.82 305.67 317.82 300.94 316.93 295.8 313.09 286.4 312.68 291.72 309.55 296.21 308.6 295.8 305.88 290.36 302.81 286.58M240.7 259.99 232.13 255.49 227.76 254.78 212.51 261.29 205.89 267.14 203.05 271.1 198.74 280.32 197.85 291.96 195.37 304.07 195.37 308.33 197.5 317.55 196.97 329.66 197.91 340.6 203.23 327.3M229.29 274.58 220.43 273.22 218.12 273.99 212.51 280.67 210.15 285.04 208.25 296.04 203 304.78 201.22 328.36 198.15 331.67 196.44 335.45 193.72 331.61 191.18 330.49 196.61 330.61 196.73 333.45" fill="none" stroke="black" stroke-width="2" /></svg>