<?xml version="1.0" encoding="utf-8" ?>
<svg baseProfile="full" height="757" version="1.1" width="535" xmlns="http://www.w3.org/2000/svg" xmlns:ev="http://www.w3.org/2001/xml-events" xmlns:xlink="http://www.w3.org/1999/xlink"><defs /><rect fill="white" height="757" width="535" x="0" y="0" /><path d="M117.42 48.35 107.49 56.86 104.66 69.98 108.32 73.76 122.8 80.26 134.5 90.67 135.57 97.88 133.97 105.91 121.74 134.05 120.44 139.95M181.6 36.3 170.73 42.38 166.36 49.18 164.05 57.33 164.35 65.61 172.21 82.1 182.02 100.18 188.81 116.08 189.99 122.82 188.69 130.09M225.1 36.12 218.48 41.02 214.34 47.82 211.09 56.09 209.79 72.76 216.17 90.61 219.54 111.29 219.19 135.94M271.55 36.83 261.8 42.38 258.49 47.76 255.12 63.66 255 71.75 257.07 79.61 275.45 113.06 275.74 118.38 269.24 137.77M312.15 38.9 315.34 50.42 322.31 63.95 325.33 79.08 329.94 95.81 337.86 133.63 341.81 141.55 343.94 150.83 340.75 175.18 339.98 186.94 341.76 198.76 349.79 237.29 354.88 256.91M46.27 65.31 48.69 89.31 51.35 101.3 54.37 131.21 53.77 164.95 55.9 197.99 56.49 234.51 54.25 253.66 52.24 290.48 54.07 311.52 54.66 346.39" fill="none" stroke="black" stroke-width="2" /></svg>