<?xml version="1.0" encoding="utf-8" ?>
<svg baseProfile="full" height="757" version="1.1" width="535" xmlns="http://www.w3.org/2000/svg" xmlns:ev="http://www.w3.org/2001/xml-events" xmlns:xlink="http://www.w3.org/1999/xlink"><defs /><rect fill="white" height="757" width="535" x="0" y="0" /><path d="M250.86 156.27 248.38 147.93 246.2 145.39 243.42 144.62 239.64 145.75 223.5 157.92 207.43 173.46 197.5 185.58 193.07 192.32 188.16 203.25 187.87 207.92 188.69 211.76 193.66 215.13M247.44 148.52 254.29 142.79 259.55 142.73 274.74 147.76 293.18 148.88 311.97 146.22 321.25 145.92 362.79 150.18 397.37 150.59 411.9 152.66 423.49 158.16 426.32 161.47 427.27 166.67 425.91 172.46 416.81 194.27 412.55 201.6 409.01 211.88 404.16 217.61M236.33 180.2 244.78 176.71 250.81 175.3 258.07 174.65 262.45 175.77M323.02 172.22 327.04 164.3 333.6 164.19 337.56 165.54 349.08 166.79 362.56 165.37M196.67 214.6 202.4 223.58 205.77 227.01 214.05 228.49 226.16 227.66 234.91 229.55 260.67 239.71 277.52 247.63 288.33 250.71 294.3 251.65 307.3 251.47 313.21 250.12 324.26 249.05 335.43 249.94 349.44 258.51 352.81 258.63 362.91 256.5 369.71 253.84M388.09 241.61 398.78 232.21 410.25 224.05 412.2 221.75 412.85 218.2 411.9 211.17 419 198.46M299.03 171.69 299.32 180.08 296.07 193.44 295.78 197.64 297.43 200.18 304.52 200.83 312.15 199.41M306.89 223.7 296.31 222.99 281.48 223.64 278.99 224.94 277.22 228.07 277.34 230.02 280.24 234.45 282.72 236.29 291.4 237.65 319 235.1 322.08 232.98 324.26 223.4 323.79 221.22 320.95 218.2 319.71 215.6 317.53 215.13M276.39 254.78 267.12 266.19 255.41 292.61 250.86 304.13 247.91 314.77 247.5 318.67 248.2 320.62M363.5 257.44 362.09 258.27 359.07 262.88 357.12 271.69 357.3 277.54 361.14 282.27 363.09 287.7 363.09 290.6 360.49 301.3 356 312.7 356.29 326.41 355.7 331.85 354.34 334.21 349.67 335.28 343.23 340.12M156.13 331.26 167.18 326.41 180.6 326.12 197.5 324.46 244.13 314.47 257.19 310.51 258.07 310.04 256.77 309.81 253.41 310.69M171.5 338.76 161.98 337.64 154.89 349.05 152.41 360.63 152.41 369.5 153.83 382.44 157.14 396.98 159.09 397.57 173.21 397.39 176.22 397.86 172.8 399.34M175.75 340.3 169.01 344.97 165.76 352.95M350.62 330.55 360.14 325.05 389.45 314.47 400.85 309.21 409.6 306.91 418.05 309.57 422.84 309.57 429.28 308.39 437.08 308.86 438.68 321.68 439.92 322.69 444.7 323.93 447.01 332.74 446.06 338.94 443.05 343.2 442.46 348.28M358.66 335.57 363.09 354.19 369.12 369.02 370.65 374.87 369.71 385.75 362.44 406.85 359.37 418.49 357.36 422.86 353.22 425.88 350.15 425.88 341.34 429.48 337.86 432.2M257.66 332.8 252.99 345.74 250.51 357.73 253.46 374.64 255.24 396.68 258.31 406.14 263.04 414.17 266.23 417.42 281 426.35 281.77 429.78 275.27 443.43M199.09 391.18 192.71 385.81 185.15 383.21 165.35 380.55 165.11 374.52 171.56 366.95 187.63 354.43 198.92 349.87 207.43 349.87 217.53 353.36 221.85 352.95 223.8 351.88 235.09 343.91 237.39 334.39 237.04 332.2 238.81 329.66 242.41 326.94 245.13 329.72M375.15 361.16 379.11 350.52 390.45 336.93 393.76 335.04 402.27 334.1 412.61 334.98 421.54 337.52 427.45 341.19 430.46 342.07 430.28 351.65 431.94 352.06 444.11 342.72 449.19 340.12 453.63 339.3 452.39 341.6M285.26 440.41 270.72 461.39 245.01 489.53 243.24 495.26 244.6 496.2 244.48 498.15 224.8 516.53 205.77 537.69 207.66 538.52 221.43 538.46 226.04 536.92M345.54 434.21 352.63 443.96 360.79 462.87 362.38 468.78 363.27 481.61 368.35 493.84 372.13 498.39 393.58 511.75 407.24 522.62 413.32 529.95 425.38 549.92 430.93 556.43 441.39 563.7 441.39 564.58 437.2 565.88M290.52 446.38 299.21 454.18 304.94 456.37 307.77 458.38 316.11 469.67 318.06 476.46 316.58 481.13 310.14 490.94 304.94 496.85 289.99 510.33 283.49 520.38 283.01 522.92 284.73 536.04 283.31 543.13 281.83 545.85 275.68 553.65 254.29 566.35 242.83 577.64 228.64 593.84 219.96 596.44 209.14 603.65 195.37 614.52 192.3 614.46 186.27 616.65 180.83 620.43 179.24 621.32 180.77 619.84 185.68 617.48 194.25 616.17M226.69 535.68 217.95 552.47 198.03 568.6 193.48 575.16 190.11 582.07 189.11 589.94 194.13 606.25 194.49 608.26 193.07 607.9M438.26 557.14 419.59 577.23 413.56 581.19 382.71 589.99 372.66 597.44 369.41 603.53 373.2 615.29 374.97 623.56 376.86 625.45 378.81 624.51 372.31 627.29 363.68 626.28 352.22 621.02M368.35 413.29 379.99 416.77 385.19 420.38 402.51 429.07 416.93 441.66 428.69 459.03 441.93 482.43 449.73 502.35 454.99 522.03 456.76 544.07 459.12 558.55 456.82 563.28 444.59 576.58 440.92 587.81 440.45 594.25 441.93 599.04 438.62 602.4 430.58 605.01 418.88 606.66 407.29 609.61 394.83 617.48 393.7 619.66 393.64 621.97 387.14 628.41 361.38 637.16 361.08 638.46" fill="none" stroke="black" stroke-width="2" /></svg>