<?xml version="1.0" encoding="utf-8" ?>
<svg baseProfile="full" height="757" version="1.1" width="535" xmlns="http://www.w3.org/2000/svg" xmlns:ev="http://www.w3.org/2001/xml-events" xmlns:xlink="http://www.w3.org/1999/xlink"><defs /><rect fill="white" height="757" width="535" x="0" y="0" /><path d="M255.24 442.36 270.31 429.54 284.31 420.32 309.07 410.81 322.55 406.85 335.55 406.2 360.14 410.16 370.12 412.99 410.25 432.38 420.71 439.29 429.46 448.1 437.55 463.34 438.85 468.13 440.63 471.03 441.69 470.5 441.16 469.55M265.76 431.37 259.14 438.41 247.5 457.61 240.11 475.05 234.08 493.6 231.13 505.66M234.26 508.08 241.7 502.05 245.96 495.85 247.55 495.26 250.75 496.09 257.25 499.93 262.8 500.58 289.81 488.28 301.75 480.84 302.52 481.49 302.93 485.45 308.66 487.28 320.42 485.8 331.41 480.9 335.49 481.84 336.56 484.5 340.04 486.45 346.25 486.81 359.01 483.85 378.57 481.55 399.97 484.92 409.66 483.91 436.55 470.97 443.05 466.89 439.62 465.41 432.71 465.12M323.67 415.3 319.06 422.45 299.8 473.45M340.93 413.7 346.78 424.46 360.79 459.68 371.84 471.03M331.3 417.78 330.05 428.71 328.4 461.87M339.57 482.08 338.68 496.85 339.04 513.82M307.83 484.15 301.92 490.35 302.87 507.96 301.69 518.01 302.1 534.85 303.17 540.17 304.47 564.58 309.49 582.78 311.32 594.6 317.7 619.84 317.76 630.71 320.48 645.84 318 680.83M300.98 532.14 299.44 528.53 302.16 548.86 301.81 576.05 304.05 622.08 302.57 640.58 306.47 666" fill="none" stroke="black" stroke-width="2" /></svg>