<?xml version="1.0" encoding="utf-8" ?>
<svg baseProfile="full" height="757" version="1.1" width="535" xmlns="http://www.w3.org/2000/svg" xmlns:ev="http://www.w3.org/2001/xml-events" xmlns:xlink="http://www.w3.org/1999/xlink"><defs /><rect fill="white" height="757" width="535" x="0" y="0" /><path d="M100.28 35.41 98.81 27.08 98.57 19.51 102.53 42.68 104.3 67.38M98.98 127.43 94.55 134.4 92.37 141.79 88.23 167.02 87.52 178.72M81.67 263 77.65 274.11 77.95 292.61M182.25 24.65 175.63 32.45 175.57 43.21 177.11 53.43M172.21 126.18 167.01 136.41 165.11 161.53M157.67 228.96 156.96 240.42 157.61 288.23M241.76 137 240.23 145.27 240.11 153.19M323.32 18.15 321.13 29.85 322.9 52.49M326.21 135.4 322.9 148.11 320.36 168.2M294.18 257.68 288.75 273.34 288.86 295.74 290.87 300.65M401.98 20.16 398.37 30.86 400.14 44.69M370.65 284.51 368.7 294.62 367.52 318.97 368.53 328.6M468.99 140.25 468.7 157.63 466.69 176.24M444.23 272.63 441.93 283.68 442.1 290.66 446.18 299.4M401.27 250.23 400.08 261.58 395.53 280.2M205 295.39 200.99 303.3 198.44 314.65" fill="none" stroke="black" stroke-width="2" /></svg>