<?xml version="1.0" encoding="utf-8" ?>
<svg baseProfile="full" height="757" version="1.1" width="535" xmlns="http://www.w3.org/2000/svg" xmlns:ev="http://www.w3.org/2001/xml-events" xmlns:xlink="http://www.w3.org/1999/xlink"><defs /><rect fill="white" height="757" width="535" x="0" y="0" /><path d="M273.97 293.14 264.16 287.53 249.45 285.93 237.33 286.17 226.93 289.65 220.61 293.02 215.52 296.92 209.2 304.43 205.71 312.17 204.83 322.16 205.54 328.24 209.61 338.41 212.98 343.55 217.36 346.86 222.08 349.64 227.93 351.35 240.05 351.65 258.25 345.97M270.78 293.2 278.76 294.62 286.32 299.46 292.35 307.38 295.42 315.83 296.01 320.74 295.48 327.71 292.23 332.5 281.71 340.24M250.51 338.76 247.61 329.19 246.96 331.44 250.1 370.5 250.21 380.49" fill="none" stroke="black" stroke-width="2" /></svg>