<?xml version="1.0" encoding="utf-8" ?>
<svg baseProfile="full" height="757" version="1.1" width="535" xmlns="http://www.w3.org/2000/svg" xmlns:ev="http://www.w3.org/2001/xml-events" xmlns:xlink="http://www.w3.org/1999/xlink"><defs /><rect fill="white" height="757" width="535" x="0" y="0" /><path d="M232.78 461.63 223.56 456.61 214.76 449.22 198.21 439.76 190.47 431.31 192.89 433.32 198.86 444.73 207.01 456.96 211.15 461.16 222.14 469.61 225.75 469.85 228.53 469.14 230.48 467.3 233.55 466.83 239.4 460.15 242 456.31 242.65 448.45 241.94 445.67 240.17 444.55 234.08 452.77M309.43 376.06 301.63 382.2 301.1 384.45 300.56 399.16 304.64 412.28 303.22 415.47 301.16 417.78 296.49 420.62 293.83 423.33 292.35 426.47 292.11 429.13 292.05 435.57 293.47 436.69 311.62 437.1 304.58 443.19 301.22 447.62 300.51 449.93 307.07 451.11 308.37 453.12 299.03 464.35 296.31 468.84 298.38 471.15 300.21 471.74 302.22 471.97 306.06 470.38M334.07 375.46 342.94 371.68 349.85 372.04 353.1 372.98 362.09 378.01 364.27 380.72 366.46 388.53 366.22 394.73 360.96 413.64 353.04 433.15 350.44 438.82 348.08 441.77M305.06 398.45 317.35 400.7 319.54 401.65 321.31 403.71M351.33 461.04 359.84 458.85 368.59 462.4M379.05 472.21 380.82 480.25 380.64 488.11 376.8 512.52 371.95 524.87 371.19 535.21M323.44 511.22 315.22 509.15 312.8 512.63 308.78 532.49 300.51 554.89 298.26 563.28M333.42 565.47 317.11 576.87 306.42 582.43M262.09 527.41 256.36 534.8 254.17 548.74 254.53 552.88M306.71 621.73 305.88 631.01 301.81 641.71 298.38 661.39 298.38 669.9 301.04 683.31 301.57 690.11M267.23 636.15 267.53 652.76 263.33 678.05 261.5 699.21 265.87 702.16 268.48 702.52M341.64 654.94 340.69 645.72 338.51 639.52 334.6 635.97 332.83 635.32 329.82 635.8 330.29 633.61 329.29 634.38 329.64 677.34 328.16 698.03 330.59 713.45 329.94 712.39M279.7 733.78 272.32 729.29 255.41 730 247.85 734.14 251.51 737.51 257.72 741.17 261.38 742.47 268.77 742.88 271.67 741.88 281.77 732.9 287.62 732.01 297.14 728.34M337.74 725.21 329.17 722.97 315.28 731.83 315.69 733.78 326.04 737.74 329.94 738.1 339.39 736.44 348.91 733.43 350.8 732.19 350.62 731.12 344.83 724.27 348.14 721.67 349.26 719.18M257.9 484.62 256.18 468.6 255.3 465.3 252.64 461.81M256.54 480.07 253.17 473.81 247.5 458.14 239.46 446.5 237.8 442.07 244.84 443.37 256.54 443.19M244.95 439.35 236.5 434.92 232.66 430.66 231.48 428.89 232.19 425.4 234.61 424.04 241.23 424.69 256.66 434.86 261.74 439.41 262.8 441.71 262.92 443.84 260.08 451.17M336.38 379.72 344.71 380.37 352.04 397.33M332.6 390.53 341.11 399.87 346.25 406.55 347.9 410.27" fill="none" stroke="black" stroke-width="2" /></svg>