<?xml version="1.0" encoding="utf-8" ?>
<svg baseProfile="full" height="757" version="1.1" width="535" xmlns="http://www.w3.org/2000/svg" xmlns:ev="http://www.w3.org/2001/xml-events" xmlns:xlink="http://www.w3.org/1999/xlink"><defs /><rect fill="white" height="757" width="535" x="0" y="0" /><path d="M375.74 280.49 377.86 267.2 377.33 261.11 373.9 253.84 367.76 245.39 340.75 215.42 313.09 178.9 294.71 160.34 282.19 142.67 278.7 134.16 275.57 121.4 275.74 118.97 281.95 117.79 287.56 118.92 304.7 126.83 325.39 138.77 346.6 153.78 348.49 156.86 348.37 159.87 343.17 165.84M394.06 237.7 388.86 215.78 386.49 208.81 380.17 196.57 371.19 183.81 369.77 177.72 371.72 172.22 369.65 169.21 363.8 166.25M120.67 44.45 115.95 77.19 115.35 90.73 118.66 106.8M173.68 67.09 172.26 86.17 173.45 97.94 176.28 103.31M19.2 293.79 12.94 310.46 14.12 319.91M36.1 493.6 30.25 508.44 32.91 524.04" fill="none" stroke="black" stroke-width="2" /></svg>