<?xml version="1.0" encoding="utf-8" ?>
<svg baseProfile="full" height="757" version="1.1" width="535" xmlns="http://www.w3.org/2000/svg" xmlns:ev="http://www.w3.org/2001/xml-events" xmlns:xlink="http://www.w3.org/1999/xlink"><defs /><rect fill="white" height="757" width="535" x="0" y="0" /><path d="M204.77 133.39 193.24 138.48 184.44 144.15 173.03 153.37 139.23 184.87 99.99 226.24 70.62 264.54 61.1 279.61 51.29 302.48 50.41 310.04 51.59 314.77 54.48 316.72 59.33 315.72 67.07 310.87 78.65 301.47 200.22 188.3 196.85 194.21 182.78 213.42 159.91 260.16 152.35 280.14 143.84 318.32 148.15 323.34 156.96 321.09 169.9 310.28 201.46 272.99 224.57 240.9 232.19 233.69 232.48 234.69 220.31 260.87 213.04 280.85 206.48 302.89 202.64 322.1 204.06 332.62 212.51 333.39 226.99 325.29 261.5 287.76 278.11 265.89 289.75 253.96 298.67 256.03 298.67 277.71 303.05 284.22M257.78 279.55 258.07 269.5 257.36 267.73 252.93 279.67 248.91 296.45 239.16 352.12 232.54 404.25 231.07 433.03 230.89 454.01 229.59 453.42 227.28 449.75 226.28 450.4 227.05 450.4 227.64 448.81" fill="none" stroke="black" stroke-width="2" /></svg>