<?xml version="1.0" encoding="utf-8" ?>
<svg baseProfile="full" height="757" version="1.1" width="535" xmlns="http://www.w3.org/2000/svg" xmlns:ev="http://www.w3.org/2001/xml-events" xmlns:xlink="http://www.w3.org/1999/xlink"><defs /><rect fill="white" height="757" width="535" x="0" y="0" /><path d="M249.5 244.91 246.31 253.01 247.85 261.23 249.21 264.12 250.21 264.12M276.39 247.87 273.68 255.79 273.56 260.46 275.15 266.6M260.73 286.88 257.54 297.39 259.32 302.6 260.02 303.42 261.32 303.3M293.47 290.13 289.57 300.11 289.87 303.13 293.36 308.33M280.47 331.02 277.81 340.77 278.94 345.74 280.18 347.39M323.2 325.7 322.14 340.71 322.84 341.6M321.54 245.09 320.07 258.09 320.6 259.99 322.19 261.58M341.16 276.24 339.69 286.11 340.28 288 342.58 290.48M360.67 306.26 358.3 316.07 359.72 319.2 360.61 324.23M370.06 237.59 370.18 247.46 373.79 255.26M396.3 272.34 394.71 280.67 396.13 286.99M393.76 314.3 391.04 323.46 391.52 330.49M369.24 358.5 367.64 368.37 368.76 375.05M336.2 365.06 335.2 373.75 335.55 378.18 337.74 385.63 339.69 387.4M299.15 371.68 299.32 384.27 301.22 391.78 302.87 393.9M248.68 355.31 248.15 364.83 248.91 371.86 250.33 373.75 251.69 373.87M259.37 408.62 257.07 417.42 257.9 422.15 259.32 423.69 260.85 423.45M299.32 416.42 297.73 429.19 299.32 433.03 302.22 432.91M360.19 418.61 358.3 426.88 358.54 430.49 360.25 439.11 361.67 438.29M393.47 415.3 392.28 425.76 394.41 431.96 395.65 431.79M411.43 370.03 413.62 381.97 416.51 388.88M420.59 321.09 419.59 330.84 421.01 337.4M410.9 225.94 410.07 236.11 412.91 240.25 413.32 243.56M389.03 120.75 389.45 130.09 392.4 137.3 393.29 137.41M422.66 122.34 422.6 132.15 424.85 139.66 426.8 142.14 427.45 140.72M461.78 118.56 461.78 130.5 464.26 138.65M420.36 170.21 421.24 183.57 422.54 189.3 424.02 189.89M447.6 169.09 450.44 186.17 452.8 187.65M445.59 213.47 445.89 223.52 448.43 231.03 451.44 228.43M478.39 202.78 479.1 212.53 482.53 227.72M466.63 260.28 465.45 271.57 466.04 275.11 467.75 277.6M446 270.39 450.14 291.01 452.98 290.48M87.87 133.93 87.22 145.92 90.47 165.84M110.69 129.79 109.33 138.95 108.97 148.52 111.57 160.82 114.35 162.53M146.44 125.77 144.84 133.81 147.86 144.92 149.69 148.41M183.14 116.55 185.86 126.3 187.33 141.85 188.52 142.67M173.21 166.31 175.69 179.26 175.69 183.98M147.44 170.21 145.79 196.45 145.14 194.86M118.37 181.68 117.13 189.89 118.31 199.17M88.94 183.27 86.69 200.83 87.76 201M100.46 238 99.69 249.7 101.53 253.72 102.12 252.95M124.63 229.79 123.15 241.9 123.69 247.04 125.52 253.31 127.59 252.18M152.35 225.06 152.7 235.99 154.59 247.63 155.13 249.52 156.01 248.11M181.19 218.44 181.19 228.37 185.33 244.8 187.1 245.15M205.89 222.75 205.6 231.26 206.84 240.25 208.08 243.08 209.79 243.85M192 273.11 193.54 294.14 194.66 296.92M161.8 272.63 162.81 281.38 166.3 297.69M104.42 281.44 99.99 289 101.88 302.3 103.42 304.25 105.66 301.95M115.06 339.18 114.94 352.95 115.89 363.76M132.49 340.77 131.96 350.05 137.4 366.9 138.34 367.43M162.69 337.46 160.62 349.87 163.81 361.75 164.4 360.69M185.98 330.14 185.68 346.86 188.04 354.9M204.59 329.96 206.01 341.9 208.2 352.3M82.14 344.44 83.15 358.56 86.87 364M111.75 392.84 108.62 403.83 108.38 414.17 110.21 418.07M129.77 394.73 132.79 416.77 134.44 416.54M155.84 395.91 164.58 417.78 164.11 418.02 163.05 415.24M184.85 388.82 191.47 411.81 192.06 412.82 192.89 412.76M128.06 447.15 130.54 459.68 132.43 465.18 135.33 470.32M159.09 444.14 164.17 462.34 167.42 469.55 172.38 468.37M192.77 440 193.3 448.39 195.08 457.26 198.68 463.11 199.63 463.34M213.28 439.65 216.94 448.87 220.31 460.92 221.02 461.93 222.44 461.16M242.3 440.24 242.35 452.65 243.36 461.99M278.46 454.54 278.05 473.33 278.88 476.29 281.12 476.64M324.85 454.54 323.32 462.75 325.68 470.14 329.46 475.16M381.06 468.13 380.88 479.66 381.59 483.32 382.83 485.86 384.01 486.22M418.7 461.04 419.17 469.49 421.48 478.59M238.45 496.97 239.1 509.44 241.47 513.93 241.94 518.54M210.62 497.74 208.61 506.07 210.38 512.87 210.21 517.01M176.64 496.32 175.28 521.03 176.17 520.79M145.67 499.51 144.08 510.74 144.9 518.01 143.84 515.94M113.7 492.78 110.92 503.06 111.04 515.23M88.05 442.54 90.47 455.13 89.29 470.14 90.83 467.78M134.62 542.6 138.87 575.93 139.76 573.68M194.9 548.98 195.73 558.02 199.92 571.56 200.16 570.31M230.71 546.85 230.89 561.74 232.66 569.96M262.51 551.93 267.29 570.2 268.24 571.02M457.53 469.2 456.11 489.05 456.11 495.38 456.7 496.26M444.47 420.2 442.1 432.32 443.05 435.45 445.41 435.69M481.23 410.86 484.42 425.64 485.24 433.2M458.95 349.76 456.11 374.16 455.05 380.96 454.22 381.49" fill="none" stroke="black" stroke-width="2" /></svg>