<?xml version="1.0" encoding="utf-8" ?>
<svg baseProfile="full" height="757" version="1.1" width="535" xmlns="http://www.w3.org/2000/svg" xmlns:ev="http://www.w3.org/2001/xml-events" xmlns:xlink="http://www.w3.org/1999/xlink"><defs /><rect fill="white" height="757" width="535" x="0" y="0" /><path d="M247.14 296.86 246.49 319.14 246.96 327.54 248.32 298.4 248.91 317.31 248.44 296.86 248.38 325.7 248.62 300.29 248.2 296.39 246.85 301.41 246.37 322.63 247.55 325.64 249.21 318.97 249.09 303.01 247.67 296.69 246.85 300.7 246.85 313.88 248.74 325.11 250.04 327.89 251.28 325.35 253.17 315.3 253.64 304.13 252.46 297.57 250.51 294.68 249.62 294.26 247.85 297.57 247.5 309.04 250.98 324.7 251.81 317.55 252.16 298.58 251.63 295.27 249.92 298.22 248.62 308.21 249.09 320.92 250.21 326.06 251.34 300.59 250.63 296.27 247.73 306.38M82.44 84.87 79.84 94.86 80.25 111.76 81.14 112.24 83.26 101.9 83.09 95.75 79.72 81.51 78.42 81.74 78.71 94.86 80.72 107.98 83.38 101.78 83.91 88.36 82.32 80.62 79.54 84.05 78.83 97.17 79.72 105.68 81.43 104.85 84.21 94.98 85.04 82.75 82.97 85.29 81.49 90.37 80.19 105.2 80.9 105.38 80.55 99.47M360.9 150 358.66 163.83 358.95 176.95 361.44 177.78 363.98 169.09 364.15 162.06 361.85 150.36 359.48 152.54 358.78 164.6 360.14 173.58 362.85 173.4 364.8 167.32 364.8 156.62 362.68 146.93 360.67 152.31 360.67 164.36 362.09 170.39 363.27 166.61 362.26 154.32 360.67 157.51 359.78 171.22 361.32 168.62 362.56 155.14 361.73 165.9 361.44 176.77 362.03 177.36 362.03 173.52M288.45 60.94 285.73 75.77 288.04 88.24 289.34 89.78 291.11 87 292.47 73.23 291.29 59.58 288.86 59.52 288.15 70.22 289.1 82.98 291.29 84.87 292.35 78.2 290.75 63.3 289.75 65.25 289.1 81.21 290.22 79.2 291.64 70.1 290.58 67.03 288.75 75.6 288.21 84.52 289.63 86.29M440.45 105.2 440.27 125.59 440.92 132.69 443.11 137.65 444.17 131.39 444.76 118.09 442.1 109.46 441.45 113.77 442.75 133.75 445.77 135.88 447.36 130.62 446 111.53 444.41 110.94 443.05 130.74 444.53 111.35 443.7 113.01 442.1 131.15 443.52 128.55 443.17 114.37 441.04 116.79 440.86 137.24M428.45 193.08 428.45 204.31 429.87 221.81 431.47 212.59 431.17 200.71 429.4 196.69 430.05 213.65 431.7 221.63 434.42 218.26 435.13 210.81 433 199.05 431.52 200.95 429.69 219.92 432.23 214.36 433.06 202.66 430.99 197.64 429.22 206.91 429.87 219.21 431.7 220.74 432.17 200.41 428.69 197.46 427.8 207.62 428.27 218.5 430.4 219.44 430.7 216.55M485.95 135.4 485.6 156.62 486.84 157.63 487.84 150.83 487.9 135.58 486.96 151.83 488.44 155.03 491.51 146.99 490.44 136.53 487.55 136.29 486.01 145.69 486.43 153.84 488.73 154.79 491.09 149.29 491.98 139.84 490.62 139.6 487.73 152.96 487.55 156.92 488.91 156.62M167.36 241.19 169.61 264.54 170.31 265.89 172.09 254.37 169.78 241.84 168.66 241.49 169.78 263.47 171.67 259.45 172.68 246.45 171.61 236.11 170.43 240.48 169.9 252.89 171.08 257.92 172.97 248.58 170.49 241.66 168.25 254.61 168.84 264.83 169.66 266.9M39.35 344.32 40.06 362.88 39.83 348.52 36.46 341.13 34.8 346.45 34.51 353.13 35.99 368.67 38.23 367.01 39.24 357.68 38.29 344.38 37.76 341.72 38.35 363.76 39.3 361.99 38.35 347.22 36.93 344.91 35.75 364.77 37.52 359.74 38.05 349.64 36.99 349.46 35.93 366.84 36.99 364.35M380.29 268.2 380.82 281.26 382.24 289 383.06 289.48 384.66 278.01 382.18 266.6 379.87 272.69 380.11 286.23 381.94 290.42 384.84 281.97 385.13 271.98 382.59 273.58 382.24 285.22 383.77 289.53 386.14 284.16 385.37 267.67 383.06 268.2 383.01 282.38 384.07 284.33 386.02 277.71 385.37 269.62 383.24 277.06 382.77 286.46 383.66 281.2 382.89 278.54" fill="none" stroke="black" stroke-width="2" /></svg>