<?xml version="1.0" encoding="utf-8" ?>
<svg baseProfile="full" height="757" version="1.1" width="535" xmlns="http://www.w3.org/2000/svg" xmlns:ev="http://www.w3.org/2001/xml-events" xmlns:xlink="http://www.w3.org/1999/xlink"><defs /><rect fill="white" height="757" width="535" x="0" y="0" /><path d="M201.46 251.77 191.83 242.02 187.98 233.57 189.05 211.29 200.87 187.94 217.77 171.28 233.9 160.58 248.68 159.52 256.48 163.24 271.19 182.45 279.88 216.55 284.85 252.24 286.56 271.39 286.32 276.41M131.96 346.45 140.88 336.28 179.83 306.02 206.6 286.76 249.86 251.18 264.99 236.17 280.89 215.13 283.6 209.1 284.25 204.61 283.6 199.64 290.87 197.58 299.68 192.26 303.93 191.02 301.45 193.26M127.17 336.64 122.62 344.73 122.74 347.27 124.46 351.23 128.59 357.03 135.15 363.23 149.04 366.54 155.72 366.36 161.92 364.47 173.27 357.62 184.68 345.8 193.72 327.77 201.05 293.73 205.89 280.14 211.09 268.5 212.92 268.38 215.41 271.1 222.79 272.87 236.56 270.09 255.53 260.34 273.56 248.76 288.69 232.21 296.61 218.85 310.49 198.05 310.49 201.24M211.09 331.32 212.16 319.38 219.9 311.81 224.03 310.16 227.52 313.29M217.47 338.94 226.58 337.11 228.82 335.51 226.75 334.57 225.33 335.22 225.04 336.46M238.51 344.85 238.28 368.31 241.88 381.67 244.07 384.15 246.2 385.87 248.68 386.58 248.56 381.79 256.71 371.68 258.49 368.55 257.96 366.84 256.48 368.67 254.47 373.75 254.41 375.17 255.77 375.88 260.44 368.67M283.66 292.55 294.06 299.11 297.67 309.98 299.56 324.58 300.8 354.84 298.97 356.79 271.13 363.7 264.52 365.83 260.02 368.55 255.53 377.59 256.12 384.57 260.56 392.96M259.67 396.92 256.54 406.73 255.65 414.06 255.89 418.19 260.26 418.13M279.88 391.95 285.02 400.4 284.96 410.21 283.25 427.94M260.26 419.67 253.11 413.23 246.79 412.05 237.86 413.17 224.39 418.13 191.29 438.58 178.23 450.93 171.2 461.99 162.04 498.51 163.58 514.88 172.56 546.97 183.85 563.52M294.66 422.15 303.4 416.12 298.97 415.83M272.85 412.28 281.12 411.87 296.49 418.84 301.92 423.57 306.42 429.48 309.19 442.66 308.25 457.43 309.9 507.85 303.87 537.87 302.22 540.35 301.51 531.6 299.62 541.89M299.62 521.14 297.85 532.08 297.79 540.29 295.31 552.35 294.3 553.12M182.43 569.19 188.99 576.05 198.98 579.47 210.32 581.54 237.51 582.13 283.66 575.04M208.85 589.82 207.78 605.12 210.44 675.04 210.5 715.64 215.17 704.41M228.53 595.19 227.7 610.21 230.36 650.75 228.11 698.15 223.5 714.69 211.45 733.84 208.55 734.43M272.49 584.91 270.78 607.13 272.38 651.87 271.25 689.87 268.71 701.99 264.34 704.41M300.15 667.18 292.82 709.73 278.99 728.76M201.1 719.24 185.09 714.75 171.44 722.91 162.69 732.6 162.81 736.68 164.94 739.16 172.8 744.42 179.12 745.31 194.49 743.77 213.75 736.38M268.12 712.33 261.38 719.42 257.66 724.74 256.12 728.52 263.1 728.17 291.29 713.16 305.77 711.74 311.03 715.11 319.89 726.28 326.92 730.12" fill="none" stroke="black" stroke-width="2" /></svg>