<?xml version="1.0" encoding="utf-8" ?>
<svg baseProfile="full" height="757" version="1.1" width="535" xmlns="http://www.w3.org/2000/svg" xmlns:ev="http://www.w3.org/2001/xml-events" xmlns:xlink="http://www.w3.org/1999/xlink"><defs /><rect fill="white" height="757" width="535" x="0" y="0" /><path d="M117.2 59.2 123.5 48.7 118.5 62 115.6 72.8 108.2 132.6 107.2 162.1 112.9 172.3 130.6 185 136.4 193.4 131.1 216.4 126.3 226.8 118.2 276 85.7 332.3 100.2 339.9M209.5 57.1 215 66.2 217.5 72.1 217.3 78.8 194.4 133.5 193.3 154.4 208.6 182.2 222.7 201.9 225.9 228.4 227.8 262.3 224.4 290.4 194.2 334.1 194.9 357 200.9 359.3M300.7 50.1 296.3 61.8 290 84.6 279.8 145.6 279.3 169.5 286.9 197.6 291.6 210 294.4 242.1 287.8 268.9 287.4 275.5 292.2 287.6 275 331.7 269.2 351.6 280.2 357.5M359.3 79.1 361.8 64.4 363.4 60.5 372.1 75.5 371.2 90.7 363 107.3 344.5 163.7 348.4 214.8 357.9 229.7 375.6 252.8 379.4 264.4 380.1 309 375.8 343.8M450.6 22.7 449.7 35.9 437.3 90 432.6 120.3 429.2 148.2 426.9 199.8 436.6 254 444.5 274.6 458.5 306.8 460.2 364.1 434.1 420.1 365.6 526.1" fill="none" stroke="black" stroke-width="2" /></svg>