<?xml version="1.0" encoding="utf-8" ?>
<svg baseProfile="full" height="757" version="1.1" width="535" xmlns="http://www.w3.org/2000/svg" xmlns:ev="http://www.w3.org/2001/xml-events" xmlns:xlink="http://www.w3.org/1999/xlink"><defs /><rect fill="white" height="757" width="535" x="0" y="0" /><path d="M217.3 217.37 225.81 214.24 238.28 213 246.37 214.83 249.56 216.43 253.7 221.04 256.83 225.59 259.49 231.44 261.97 246.57 263.51 268.73 265.46 276.47 268.53 277.71M213.81 223.05 204.59 228.07 199.69 232.62 198.56 238.89 199.86 246.57 199.15 247.93M203.17 226 210.8 220.15 220.07 218.56 225.39 218.73M222.32 218.5 236.44 214.83 248.44 214.89 258.66 218.73 260.08 220.09 265.17 227.48 269.54 238.18 269.78 246.27 271.55 257.92 270.96 268.73 275.15 288.77 279.41 293.97 286.09 294.5M214.11 233.39 208.31 241.25 208.31 246.81 209.85 250.59 211.15 251.71 210.56 252.18M200.93 244.21 201.64 253.84 204.06 255.43M224.51 240.25 220.25 248.17 219.42 252.07 221.97 254.61 224.33 255.08M240.4 241.43 237.57 254.67 236.74 255.49M220.61 232.39 227.7 227.66 235.09 225.47 244.95 225.88 252.93 228.9 258.13 234.04 260.44 238.83 261.62 248.46 261.09 254.13 258.66 259.04M240.11 242.79 249.74 248.58 253.82 251.83 257.78 256.85 260.38 264.77 260.79 273.28M258.96 226.48 268.53 228.43 275.15 240.72 279.94 256.38 281.83 279.49 284.37 290.89 288.1 317.49 288.98 319.5 294.18 322.1 296.31 321.74M251.99 257.44 262.03 265.3 264.46 268.14 265.76 271.1 267.12 288.06 273.03 309.21 274.98 312.41M200.69 257.8 201.81 266.19 201.4 272.75 202.46 280.14 204 283.62 206.19 285.63 211.39 287.64 214.81 290.36 220.67 290.95 222.38 291.9 226.69 291.9 234.97 289.83 243.54 285.75 249.09 276.95 250.57 273.4 251.4 268.32 253.05 266.84M249.62 263.35 257.66 262.82 257.66 265.07 253.7 269.85M201.46 262.94 201.1 261.64 201.75 261.34 214.05 258.03 216.82 257.86 220.19 259.63M230.42 259.93 239.69 259.87 242.59 261.05 244.9 263.47 244.9 264.89 243.6 265.54M224.27 256.2 224.8 265.13 222.85 269.62 220.25 272.1 225.39 272.93 229.41 275.41M212.45 276.12 220.37 279.49 222.08 281.14 227.99 282.09 231.95 280.26 235.2 275 229.18 280.55 220.37 283.03M249.5 273.93 248.91 289.53 249.62 297.16 260.08 306.91M255.95 286.64 259.85 296.92 261.92 300.41M218.6 291.84 220.25 301.95 218.24 309.98 216.06 313.23 217.95 312.88M235.56 292.02 233.79 302.06 236.03 309.16 237.8 311.28 239.28 311.76 239.22 310.75M239.93 289.65 238.69 300.53 243.89 313.17M206.48 287.41 207.9 295.56 204.65 306.14 200.81 311.46M213.16 294.2 212.33 305.55 204.24 314.3 197.79 318.08M246.55 296.51 248.91 306.73 254.53 312.82 255.95 315.83M238.93 294.44 238.39 295.44 245.78 307.03 250.69 312.29 254.06 313.77 262.03 315.07M239.4 314.95 245.9 319.85 249.8 319.97 248.03 320.74M216.11 311.34 207.96 318.02 206.19 321.39M197.09 319.68 201.52 327.77 206.72 334.51 218.83 341.78 222.56 342.49 230.12 341.48 232.96 339 246.96 332.62 249.68 329.07M254.23 315.24 249.74 325.53 244.07 330.37 233.9 336.87M256.83 313.59 256.18 313.77 256.36 319.2 254.53 325.7 252.11 329.78 250.51 335.45 248.62 338 243.36 342.66 239.22 345.09 227.82 349.28 218.83 349.64 216.94 348.52 209.2 346.62 206.07 343.79 201.46 338.05 194.72 325.53 193.24 319.2 193.48 317.78 195.14 317.96M254.35 319.62 255.95 319.38 256.89 320.09 255.71 319.44 256.42 319.26 265.64 321.03 266.76 321.57 266.17 323.16M258.49 324.58 267.47 321.68 275.15 317.84 311.56 289.36 314.04 288.12 311.08 291.78M257.01 320.74 265.4 317.49 272.38 316.31 276.57 316.07 277.22 316.72M255.95 324.34 263.69 320.38 275.8 321.92 280.89 320.68 288.04 315.6 294.18 312.64M272.26 324.11 279.11 317.55 296.55 304.84 340.28 268.5 360.73 257.56 370.77 253.78 373.85 254.25 373.25 256.32M359.43 253.96 370.18 255.49 374.73 258.63 376.8 261.4 376.74 262.47 375.09 263.29 374.85 264.36 377.33 266.78 375.74 271.8 368.53 277.12 362.03 283.27M373.31 274.05 368.35 274.46 359.07 280.67 348.26 293.02M360.84 281.56 342.05 290.66 324.03 303.84 309.19 318.73 304.52 326 297.67 334.39 281.65 353.3 270.66 364.89M106.43 241.96 125.81 266.25 134.44 273.93 146.85 281.5M122.74 255.91 126.88 263.53 146.91 290.72 154.54 298.04 156.31 301.24M143.54 279.43 147.74 288.65 170.02 311.7 173.21 312.35 175.99 314.59 180.77 316.84 185.74 317.31 187.1 316.78 192.89 319.08 195.14 318.97 197.26 315.83M101.23 230.85 94.2 223.93 93.61 225.88 98.69 234.34 125.52 263.53M97.68 231.38 89.82 236.23 88.35 238.3 82.79 250.12 82.26 257.98 93.13 273.58 101.17 281.02 113.88 289.59M83.68 248.64 100.99 271.39 119.37 300.82 127.65 313.17 133.5 320.09M106.37 283.45 117.54 291.37 134.74 306.02 144.73 315.48 151.17 322.93M122.98 303.36 131.55 312.17 164.23 341.36 175.4 353.07M368.35 253.6 379.81 242.08 388.68 236.82 394.53 236.4M387.08 242.31 393.41 237.05 396.13 236.35M384.54 247.04 390.69 241.07 395.95 238 403.63 235.81 405.94 235.64 406.29 236.58M389.98 249.64 399.73 241.61 405.7 239.06 413.03 237.05 420.77 237 415.15 242.73 399.73 252.89M396.01 254.9 403.63 249.41 407.18 247.99 414.15 246.04 418.17 246.87 417.52 248.28 412.85 249.94 406.11 254.96 393.76 259.63 403.34 257.15 410.13 256.56 411.67 257.27 411.85 260.4 410.96 262.47 399.67 264.95 387.56 263.53 382.53 264.06 378.46 267.61M94.2 229.25 92.96 229.25 90.36 226.36 87.58 224.7 80.49 221.39 75.7 220.45 59.8 221.81 61.4 221.87 69.79 227.72 74.4 228.43 72.63 229.14M71.98 227.6 69.08 226.06 63.29 226.3 59.15 225.18 50.64 225 44.32 228.43 41.72 230.73 40.42 232.5 43.91 232.92M45.5 232.92 54.07 229.55 57.03 230.38 60.22 232.98 63.94 232.5 63.7 233.1 61.34 232.74M61.99 234.34 55.67 234.93 51 236.7 47.86 236.7 38.35 243.67 44.38 240.6 52.47 239.06 60.75 238.65M39.47 244.68 48.93 243.79 62.58 238.71 62.7 240.25M58.56 241.43 48.63 250.35 47.39 252.3 57.97 247.69 62.4 247.69 65.54 246.22M57.85 253.31 66.72 249.29 72.33 244.74 76.7 245.39 83.68 249.64M71.68 249.41 80.13 250.23 81.61 249.76M141.42 325.88 151.29 328.13 153.89 329.66 167.71 341.9 173.8 350.58 174.39 361.58M170.26 339.47 178.71 345.92 186.51 357.14 193.24 372.63M176.22 354.43 182.67 363.59 185.03 369.55 189.34 389.71M300.03 329.01 290.75 334.57 286.62 338.35 278.11 349.64 273.03 364.29M282.78 346.27 276.63 352.71 270.54 362.4 263.45 381.08 259.97 397.21M283.66 349.22 279.64 353.13 274.38 364.89 270.25 380.61 270.13 384.21 271.84 385.1M273.03 368.25 271.08 368.43 269.48 369.79 263.92 378.48 258.78 392.07 255.65 403.71 255.65 409.98 258.37 413.64M261.03 400.29 259.08 417.07 258.07 419.55M190.88 375.23 192.54 386.34 195.9 429.66M191.94 386.99 191.71 422.8 190.05 444.37M259.91 382.08 257.01 389.88 255.41 398.75 254.76 409.27 257.01 412.34 260.2 412.34M265.28 383.21 262.03 393.43 261.56 397.98 260.5 430.6 261.5 435.04 266.11 446.74 267.77 455.43 276.04 478.06 280.35 487.58 283.84 498.86 286.56 515.17 284.31 529 285.5 535.5M277.52 489.23 284.14 535.15 286.03 557.73 290.05 580.66 292.76 606.54M196.38 414.29 188.69 440.41 182.78 464.82 180.07 490.65M198.09 431.96 194.49 439.65 192.83 447.8 176.99 476.88 170.37 491.24 159.62 546.2 157.37 574.57 159.44 583.43M178.06 496.44 174.27 513.99 170.08 552.64 168.42 575.87 171.44 620.73M167.77 604.53 174.57 609.38 182.78 611.27 199.21 609.5 212.63 610.32 229.12 609.79 253.52 610.97 278.94 610.92M196.55 608.85 196.08 607.25 195.25 609.38 194.9 617.59 197.14 657.37 197.32 674.56 195.37 692.71 189.23 718.06 185.33 718.48 183.73 720.07 180.66 727.22 172.09 742.82 174.39 743.77 176.82 743.47 182.96 738.98M217.59 609.32 216.23 618.6 214.99 648.44 215.52 671.37 216.82 681.83M218.12 656.6 215.46 683.49 216 707.07 215.23 712.09 212.57 717.94M216.88 684.55 215.58 700.92 212.33 710.14 210.38 712.62M215.52 698.44 211.03 708.55 212.16 727.64 209.32 731.71 208.67 734.49M217.83 702.34 215.76 712.03 211.68 724.74 212.98 724.68M208.49 718.3 201.58 726.1 199.04 738.1 195.02 743.3 185.86 749.15 174.98 750.98 172.38 753.34M187.98 706.89 180.07 723.91 173.39 733.37 171.38 738.81 165.53 747.02 164.76 749.74 166.95 752.81 169.49 754.47 172.62 753.17 181.01 746.9 183.73 747.14M256.42 610.68 255 611.51 253.64 629.24 254.23 640.29 253.82 657.66 254.17 663.22 255.24 658.49M253.05 616.17 252.05 624.92 252.34 639.93 255 674.98 257.66 690.58 262.39 701.51 279.76 721.55 288.27 727.4 290.93 732.01 294.48 735.91 296.72 740.87M228.23 610.97 231.18 620.31 232.48 649.86 234.2 666.05 236.8 675.81 241.53 686.33 242.24 689.1 241.53 692.83 242.59 693.71M240.46 673.26 241.94 706.83 242.65 706.3M244.3 693.71 242.71 704.11 241.47 726.45 247.08 732.9 247.91 734.67 247.2 736.8M247.73 728.52 246.31 739.28 246.61 744.89 247.26 745.37M250.98 740.58 253.29 731.54 257.9 728.34 267.71 733.19M265.17 726.57 269.83 737.03 274.03 742.94 278.46 746.25 283.31 748.56 284.25 748.67 287.74 746.43 289.4 746.37M286.44 743.95 294.95 746.67 297.02 746.37 299.56 748.26 300.51 746.72M260.14 616.12 257.96 630.65 257.01 648.27 260.62 701.1M270.84 705.24 277.1 717.88 286.56 732.13M256.6 727.58 254.53 728.11 254.17 730.12 253.64 741.58 255.71 744.48 253.17 742.88" fill="none" stroke="black" stroke-width="2" /></svg>