<?xml version="1.0" encoding="utf-8" ?>
<svg baseProfile="full" height="757" version="1.1" width="535" xmlns="http://www.w3.org/2000/svg" xmlns:ev="http://www.w3.org/2001/xml-events" xmlns:xlink="http://www.w3.org/1999/xlink"><defs /><rect fill="white" height="757" width="535" x="0" y="0" /><path d="M325.27 99.71 325.39 88.66 328.28 85.82 346.42 79.32 352.1 82.92 357.36 94.33 361.49 92.44 362.38 87.24 366.1 81.27 377.98 72.7 382.53 75.71 386.08 80.62 390.04 75.36 400.68 64.66 411.67 67.5 419.82 74.95 428.1 76.42 436.61 85.58 443.99 89.43 449.73 94.74 451.68 99.18 448.72 102.07M331.53 112 326.92 121.46 330.65 126.54 346.9 131.09 351.21 131.62 366.81 127.07 392.17 126.78 399.2 124.29 403.87 117.14 409.6 116.85 423.66 119.62 444.94 106.45 453.8 105.15 456.46 102.78 467.63 99.24 454.45 104.55M321.19 100.24 315.87 110.23 318.12 114.84 330.94 110.88 328.4 110.29" fill="none" stroke="black" stroke-width="2" /></svg>