<?xml version="1.0" encoding="utf-8" ?>
<svg baseProfile="full" height="757" version="1.1" width="535" xmlns="http://www.w3.org/2000/svg" xmlns:ev="http://www.w3.org/2001/xml-events" xmlns:xlink="http://www.w3.org/1999/xlink"><defs /><rect fill="white" height="757" width="535" x="0" y="0" /><path d="M90.06 66.55 91.07 82.87 103.59 126.36M212.92 184.4 213.34 195.63 218.36 208.45 222.32 234.1M239.1 51.78 241.05 88.42 240.4 125M346.31 73.17 346.72 62.83 348.85 61.83 352.04 65.19 357.48 80.38 358.72 89.54 359.01 110.64 358.07 130.74M337.97 215.31 337.38 235.75 339.21 285.04M477.32 178.13 475.73 190.13 475.85 204.08 474.67 211.76M478.63 27.55 479.51 37.18 479.04 91.14M302.81 367.37 305.88 377.95 309.55 400.58 311.32 405.07" fill="none" stroke="black" stroke-width="2" /></svg>