<?xml version="1.0" encoding="utf-8" ?>
<svg baseProfile="full" height="757" version="1.1" width="535" xmlns="http://www.w3.org/2000/svg" xmlns:ev="http://www.w3.org/2001/xml-events" xmlns:xlink="http://www.w3.org/1999/xlink"><defs /><rect fill="white" height="757" width="535" x="0" y="0" /><path d="M217.24 448.04 209.56 438.52 187.57 406.91 175.52 393.55 172.21 388.94 169.49 383.68 169.01 381.14M232.07 448.1 223.86 439.88 197.44 403.06 186.39 384.8 173.68 370.44 170.67 368.49 169.96 364.95M103.89 352.12 108.26 362.11 125.28 383.38 132.55 388.23 140.06 390.59 146.73 391.3 152.17 389.94 157.96 381.97 162.28 378.01 166.06 369.91 167.83 368.08 167.71 365.42M100.82 355.73 99.75 364.24 96.21 370.03 86.1 381.73 75.82 389.94 61.99 394.67 47.63 397.45 36.75 398.28 27.77 392.78 20.98 380.31 17.78 370.97 16.9 357.62M173.21 365.71 178.47 372.45 196.2 382.32 208.14 380.37 230.71 361.52 237.57 352.48 241.47 340.48 242.24 331.79 241.41 329.9M22.63 356.02 31.2 348.46 55.96 319.62 77.53 289.18 89.76 268.38 101.35 253.31 122.27 228.66 126.17 226 131.61 223.7 134.32 221.16 136.87 220.68 140.94 222.16 157.19 242.26 174.27 270.15 198.5 296.69 206.9 307.21 216.29 315.83 224.39 320.86 227.4 324.05M117.78 214.83 110.51 263.53 109.15 293.26 109.03 321.39 107.14 345.26 103.42 360.39 99.58 370.32M144.73 213.24 161.27 268.61 186.27 362.34 187.39 372.86 185.68 374.4" fill="none" stroke="black" stroke-width="2" /></svg>