<?xml version="1.0" encoding="utf-8" ?>
<svg baseProfile="full" height="757" version="1.1" width="535" xmlns="http://www.w3.org/2000/svg" xmlns:ev="http://www.w3.org/2001/xml-events" xmlns:xlink="http://www.w3.org/1999/xlink"><defs /><rect fill="white" height="757" width="535" x="0" y="0" /><path d="M352.57 353.01 341.76 356.55 331.53 367.19 328.4 371.62 322.67 382.62 319.83 394.79 318.71 407.56 321.6 418.84 324.26 424.04 330.94 433.38 339.45 440.65 353.28 447.03 366.46 447.51 384.19 444.79 388.15 443.72 395.3 439.76 402.98 431.79 407.29 422.92 408.59 417.78 410.72 405.37 410.84 399.58 409.3 388.23 406.17 378.77 400.08 370.74 392.99 364.71 377.81 356.67 372.9 355.78 349.67 354.78 344.12 357.26 343.59 358.86M356.18 356.79 345.54 363.64 342.11 382.73 348.37 404.96M357.77 355.37 355.17 366.36 356.06 382.56 362.97 394.14 365.45 397.09 368.41 397.63M372.55 361.99 371.95 375.46 373.08 381.08 375.97 385.87 379.64 389.18 382.71 390.18 387.44 387.82M379.28 364.71 382.65 382.91 386.43 387.4 391.4 388.76 395.65 388.58 397.96 386.69M343.29 360.57 334.37 370.68 331.18 377.06 330.11 395.56 333.25 401.41 336.56 404.3 339.39 405.07M358.13 406.96 356.77 416.66 356.88 419.38 357.65 420.85 358.72 421.21M377.51 405.72 376.39 415.59 377.33 418.43 379.11 420.26M359.78 427.18 362.09 436.22 365.39 439.29 369.24 440.24 375.15 436.28 377.51 428.77 380.11 429.36M357.3 450.76 356.65 459.56 358.18 466.18M374.73 449.87 375.32 457.91 377.98 463.94M385.72 464.05 405.29 447.62 418.4 440.24 423.07 438.94 422.6 439.76M357.59 471.09 308.37 445.73 303.52 444.49 303.17 445.5M425.32 438.94 427.51 448.27 434.54 454.3 440.8 456.13 433.71 465.06 415.69 481.67 417.05 482.37M297.91 449.16 295.25 458.38 284.85 474.81 306.12 487.04 308.84 490.89M289.4 455.01 277.5 429.49 283.5 440.49 290.5 443.49 292.5 442.49 290.5 440.49 288.5 444.49 288.5 448.49 290.5 449.49M431.47 443.96 428.69 451.58 431.7 453.18 435.9 453.06 441.63 447.86 441.63 445.02 436.61 441.36 433.77 441.18 431.58 442.07 430.34 444.61 431.05 444.97M281 432.02 281.71 441.24 284.02 444.91 301.63 449.22 302.04 446.15 304.23 443.19 301.45 446.32 297.26 448.81 289.75 449.34 282.6 445.2 277.99 438.35 277.93 434.21M406.47 364 400.85 352.24 399.38 351.06 394.18 356.32 391.52 363.29 390.51 371.68 391.81 372.16 397.07 367.19 404.87 355.84 413.56 352 415.57 357.14 415.04 361.4 410.9 369.67 404.4 376.59 401.8 376.65 400.73 366.9 402.45 366.19M407.35 365.18 411.08 355.43 421.66 347.63 437.97 349.87 443.52 352.95 448.19 359.45 456.4 381.26 459.65 399.34 460.54 409.51 459.54 409.86M398.67 381.97 407.24 374.99 415.98 373.57 428.98 374.28 458.18 390 466.45 397.92 477.03 404.3 479.93 405.01 477.5 402.53M311.08 485.57 319.59 493.31 334.01 498.33 344.83 505.66 346.48 508.91 345.24 507.79 344.47 508.38 343.53 513.76 339.27 558.73 339.21 567.24M417.99 492.01 419.53 517.12 423.49 552.53M347.61 568.54 362.91 565.76 369.41 563.4 411.96 553.88 422.31 551.99 421.89 553.71M346.9 571.91 346.37 580.48 352.33 626.34 354.64 637.16 360.14 653.05 360.43 656.36M388.38 601.4 388.86 609.79 393.47 629.12 395.89 636.15 397.31 644.78 397.72 643.66M426.26 555.01 429.81 583.2 437.79 630.06 437.38 636.03 435.96 634.14M404.52 647.5 413.44 649.8 419.53 647.67 427.57 648.44M360.25 658.37 369.89 653.58 391.99 651.04 394.94 649.86M362.68 658.37 356.35 664.28 353.4 669.25 352.63 675.87 360.73 674.27 376.09 664.58 385.78 661.03 387.14 661.86M429.22 650.22 433.06 658.73 440.09 667 426.15 665.76 414.45 663.22" fill="none" stroke="black" stroke-width="2" /></svg>