<?xml version="1.0" encoding="utf-8" ?>
<svg baseProfile="full" height="757" version="1.1" width="535" xmlns="http://www.w3.org/2000/svg" xmlns:ev="http://www.w3.org/2001/xml-events" xmlns:xlink="http://www.w3.org/1999/xlink"><defs /><rect fill="white" height="757" width="535" x="0" y="0" /><path d="M229.77 229.67 227.82 238.89 223.97 250.77 223.8 263.24 222.14 275.71M216.65 293.38 215.41 303.01 215.05 325.94 213.34 331.02 213.4 338.65 210.86 348.87 210.86 374.52 213.04 375.64M215.52 330.31 212.69 339.24 213.51 348.46 211.09 372.1 207.84 384.33 205.18 388.64 199.04 391.66 187.93 391.3 184.85 390.12 180.95 385.69 176.22 377.53 171.79 360.93 173.51 371.98 175.1 376.65 178.29 382.02 182.72 387.17 186.57 390 194.6 392.19 202.05 392.84 205.06 387.05 213.69 380.37M233.79 211.11 230.95 237.11 228.58 247.1 229.47 247.46M127.23 201.54 140.12 199.11 173.62 197.93 196.67 198.05 240.94 193.32 257.42 190.07 276.34 187.47 293.06 187.12 301.39 187.88 326.51 192.97 326.63 194.15 324.2 195.39M230.12 192.08 234.61 199.82 234.79 211.88 235.85 218.97 235.2 225.94 233.67 231.85 232.25 235.81 230.36 238.41M123.8 198.82 118.13 192.97 115.89 183.57 119.55 164.6 124.63 152.07 130.72 142.2 137.16 134.99 157.14 116.55 165.29 107.69 181.07 99.18 188.52 98.47 195.73 96.52 198.62 98.23 200.28 97.58M318.89 186.94 313.86 179.79 312.03 169.74 310.61 166.08 298.2 145.57 283.01 125.71 264.04 106.45 248.56 98.53 234.73 98.94 226.87 97.94 216.88 99.35 209.08 97.17 177.23 92.85M201.16 93.56 195.79 99.59 183.61 110.05 172.32 121.75 165.29 130.09 158.67 140.61 141.24 178.9 140.23 186.17 141.06 194.15 139.58 200.71M215.58 98.35 208.91 103.9 190.05 131.27 184.38 137.47 177.17 149.77 171.73 170.15 167.77 180.32 166.18 197.28M227.76 101.66 234.44 106.74 250.86 116.97 259.97 126.07 282.24 153.61 289.1 159.81 296.07 174.59 300.03 187.83 299.38 189.07M215.82 100.36 214.16 99.83 214.76 98.76 217.47 101.6 224.45 115.49 235.85 134.46 242.83 147.76 252.52 177.6 253.17 180.62 253.05 191.25 254.11 192.67M213.99 99.59 213.87 101.48 210.86 108.4 210.15 114.96 210.09 124.23 212.21 140.84 208.2 160.64 208.14 177.9 210.8 196.63M218.6 92.2 216.35 99.94 207.55 94.51 205.3 90.61 206.01 85.23 212.92 81.21 219.07 81.03 222.5 81.8 224.8 88.07 221.91 92.91 213.28 97.4 212.75 96.52" fill="none" stroke="black" stroke-width="2" /></svg>