<?xml version="1.0" encoding="utf-8" ?>
<svg baseProfile="full" height="757" version="1.1" width="535" xmlns="http://www.w3.org/2000/svg" xmlns:ev="http://www.w3.org/2001/xml-events" xmlns:xlink="http://www.w3.org/1999/xlink"><defs /><rect fill="white" height="757" width="535" x="0" y="0" /><path d="M60.69 122.17 63.76 135.88 64.35 141.49 63.94 149.94 64.18 150.42 65.54 149.12M62.76 187.94 61.63 199.17 63.23 208.1 65.36 243.97 68.14 248.82M69.61 326.83 66.24 342.9 67.6 354.13 67.66 396.86M56.67 469.67 52.95 493.31 57.14 532.2 58.44 566.35M120.08 518.78 129.89 577.82 130.42 587.98M453.27 178.07 457.47 215.07 458.12 229.61 457.65 243.2M393.29 94.92 385.67 107.98 385.07 146.22M322.19 105.56 319.89 122.93 318.89 149.88M160.74 232.74 162.81 262.23 162.04 273.34 160.5 280.73M200.75 449.57 209.38 484.74 213.22 508.26M467.51 550.28 469.88 574.98 472.83 592 471.77 612.33M492.81 430.54 493.99 444.02 497.24 460.98 493.58 470.38M498.66 311.93 497.42 326.53 497.42 337.17 493.34 375.46 491.57 380.67M411.25 238.12 407.06 265.07 409.24 282.56M494.34 87.36 496.59 104.55 499.31 142.73M67.54 592.77 72.51 606.42 74.87 630.77M500.73 552.35 505.57 575.28 506.4 598.03M184.97 568.9 188.99 592.71 191.65 616.35" fill="none" stroke="black" stroke-width="2" /></svg>