<?xml version="1.0" encoding="utf-8" ?>
<svg baseProfile="full" height="757" version="1.1" width="535" xmlns="http://www.w3.org/2000/svg" xmlns:ev="http://www.w3.org/2001/xml-events" xmlns:xlink="http://www.w3.org/1999/xlink"><defs /><rect fill="white" height="757" width="535" x="0" y="0" /><path d="M323.49 67.43 320.95 58.15 320.66 54.43 321.49 45.5 324.2 36.81 328.64 31.32 338.68 24.34 345.12 20.92 357.89 16.48 372.78 13.88 383.89 13.71 387.62 15.18 395.53 21.51 402.27 27.83 407.53 34.69 410.43 36.7 411.55 36.64 419.06 22.28 424.43 15.3 434.95 7.68 444.88 2 448.78 1 461.13 1 464.62 2.42 467.69 4.84 472.07 11.58 476.97 21.8 480.28 32.85 480.4 36.87 482.64 30.08 486.78 22.51 497.77 14.06 503.15 11.87 508.82 10.87 511.31 11.34 522.48 16.6 528.09 23.28 533.29 37.88 533.82 40.66 529.92 41.48M324.38 64.12 320.3 55.02 328.16 70.26 334.84 78.24 343.11 84.74 361.44 91.19 366.58 91.6 372.01 91.3 388.21 86.75 397.6 82.73 402.33 79.72 416.57 66.01 421.18 55.9 420.41 61.93 423.31 68.14 428.45 74.81 435.66 78.01 446.48 78.36 453.86 77.53 457.7 75.64 466.1 67.72 481.76 55.49 482.23 54.19 481.7 53.54 480.69 55.08 480.99 60.45 483.41 65.42 487.25 67.66 491.74 68.73 503.39 69.08 517.75 62.17 522.89 57.74 526.85 51.47 535.54 31.44 538.43 27.06 536.24 25.29" fill="none" stroke="black" stroke-width="2" /></svg>