<?xml version="1.0" encoding="utf-8" ?>
<svg baseProfile="full" height="757" version="1.1" width="535" xmlns="http://www.w3.org/2000/svg" xmlns:ev="http://www.w3.org/2001/xml-events" xmlns:xlink="http://www.w3.org/1999/xlink"><defs /><rect fill="white" height="757" width="535" x="0" y="0" /><path d="M154 446.26 144.48 446.91 141.59 448.21 134.26 454.36 129.36 460.27 123.92 471.26 121.26 481.84 121.26 487.57 123.86 497.97 136.33 517.65 141.65 522.85 161.92 534.38 170.25 537.8 183.67 539.16 192.18 537.98 199.68 533.31 205.18 527.17 209.85 504.77 207.84 485.21 202.28 473.45 195.96 466.06 173.68 449.51 164.4 447.97 153.59 447.97 151.69 448.62M155.06 444.31 157.54 453.83 158.43 465.65 156.36 477.41 153.7 483.14 146.85 492.89 143.01 496.49 129.18 503.65 122.15 504.89M160.74 446.02 164.28 467.06 167.18 476.81 171.14 485.03 179.59 494.49 185.03 498.8 200.21 507.19 212.86 512.1M135.97 451.58 126.16 446.2 120.08 446.5 116.18 449.57 112.1 453.83 110.21 458.2 110.09 465.53 112.69 473.56 112.81 472.32 111.63 471.32 107.73 471.08 101.05 473.03 92.42 479.3 88.7 483.14 87.81 487.04 90.06 492.59 96.79 496.91 102.47 496.79 97.03 496.38 85.03 500.93 74.63 508.73 73.8 513.16 77.11 520.02 79.77 521.49 86.81 523.27 95.79 520.55 107.37 514.93 111.09 512.33 114.76 507.13 118.48 504.06 117.36 504.18 127.11 499.15M174.51 450.93 174.33 449.75 175.75 446.91 180.53 444.25 192.59 440.65 199.15 439.58 204.11 440.29 210.08 449.33 209.73 452.17 202.46 454.36 195.19 455.3 202.93 454.95 209.79 456.96 214.63 459.91 216.05 464.58 214.69 468.84 208.6 471.26 205.59 471.14 208.37 470.61 214.69 471.73 223.08 481.84 225.45 489.23 223.73 491.89 219.66 494.13 213.39 493.36 211.8 491.83M144.25 502.88 151.16 497.97 154.06 501.05 155.95 506.36 158.37 503.11M170.66 503.7 179.29 500.22 181.72 503.94 182.54 508.37 181.48 513.75 182.6 511.51M166.29 512.45 168.83 520.31 168.71 522.26 166 522.03M156.19 517.06 159.79 524.39 174.39 528.05 177.46 527.11M161.8 536.68 166.59 543.3 165.82 548.03 161.68 556.78 165.05 552.93M178.88 539.81 179.94 549.57 179.65 554.41 180 554.94 181.24 554.41M186.56 549.68 207.3 565.64 220.42 572.5 230.06 575.92 235.02 576.51 249.56 573.03 258.66 569.42 267.88 566.88 275.33 563.34 285.67 555.83 290.87 548.32 291.58 537.63 289.27 517.42 285.79 509.38 281.53 502.17 280.64 501.99 282.95 503.53 284.84 503.65M161.27 546.2 157.72 555.3 152.58 564.93 149.33 567.35 141.77 569.36 133.55 570.13 124.75 569.9 96.32 566.47 83.73 563.87 79.24 564.99 73.51 568.95 70.26 573.15 66 579.82 62.93 587.68 60.86 601.04 61.33 601.63 62.93 599.98 66.89 598.74M163.99 562.45 163.81 571.37 159.32 577.16 151.58 581.83 133.08 586.15 127.64 586.27 113.93 583.25 107.19 583.19 93.48 584.97 89.88 586.74 86.81 593.77 85.33 603.76M63.76 599.92 68.66 604.11 75.93 607.36 87.63 606.48 100.46 602.7 100.28 603.58M283.42 503.41 279.94 494.01 283.13 492.36 285.14 492.48 290.45 500.16 291.52 505.89 291.05 501.16 294.06 490.64 294.89 490.35 295.89 494.01 296.07 503.41 295.54 502.23 296.66 497.56 298.96 492.95 304.46 487.63 306.59 489.88 305.52 494.6 301.98 501.22 299.56 509.97 298.61 510.8 300.62 509.67M303.57 506.9 310.37 516.12 315.33 527.94 316.58 540.41 315.87 552.46 313.33 561.98 310.49 568.77 303.16 576.4 296.96 580.89 275.44 591.11 269.89 592.29 254.05 591.7 241.76 589.93 225.27 582.37 204.29 574.68 198.03 573.56 193.77 570.6M160.56 572.32 152.88 579 139.87 595.9 137.22 602.81 134.38 616.88 135.68 625.39 137.39 627.75 137.69 625.69M200.21 568.95 205.18 578.11 212.98 583.02 215.76 585.97 218.24 607.6 217.59 623.14 215.16 621.08M177.87 579.82 170.25 585.08 171.85 588.63 180.83 582.01 176.75 577.82 171.37 580.47M176.34 606.01 169.13 612.86 169.66 616.88 179.77 612.68 179.12 606.77 172.67 605 167.65 605.41M134.67 628.7 142.77 625.09 150.81 630.18 154.77 630.95 160.2 627.64 163.75 623.56 167.24 622.26 174.39 626.22 182.42 628.76 186.09 626.99 191.11 622.91 195.43 626.87 198.09 627.87 209.25 624.68 215.87 624.74 214.99 624.09 211.56 624.33M138.75 626.22 137.33 622.85 134.56 622.02 113.93 633.25 103.59 643.18 99.22 648.26 95.55 654.53 90.94 667.11 88.64 676.98 86.63 693.12 89.46 704.88 92.83 710.97 95.67 705.06M214.81 620.6 220.37 619.89 226.33 622.32 247.25 638.51 257.3 650.74 260.37 657.19 275.09 680.17 277.93 694 278.04 697.55 275.8 693M92.83 697.9 94.61 706.12 101.76 709.9 132.19 716.82 144.48 716.93 155.59 713.98 156.36 713.45 154.47 709.13 156.07 708.9M160.74 702.22 169.72 708.9 175.1 711.02 188.45 714.27 215.52 708.78 221.67 706M211.8 700.74 221.67 705.65 250.68 706.71 256.89 705.71 272.96 699.97 275.5 695.95 272.84 696.72M160.85 705.94 156.13 714.45 153.29 727.51 152.52 737.03 155.42 762.79 158.31 765.4 159.61 761.67M169.36 706.77 165.23 716.05 164.4 737.32 170.07 759.49 170.78 766.58 171.02 765.1M185.08 710.85 188.69 723.97 185.97 758.36 184.67 772.07 182.37 766.58 180.36 764.98M154.94 756.35 152.76 756.12 150.99 758.24 150.63 760.43 154.89 765.22 161.8 765.51 164.46 760.37 159.02 757.71 150.99 758.07 154.47 758.66M183.19 753.22 177.11 759.43 181.54 765.1 184.55 764.27 192.89 756.77 188.93 754.4 176.16 752.28M156.24 755.05 164.64 752.87 166.17 754.34 165.7 760.96M62.46 596.14 54.42 607.78 50.7 617.41 57.49 617.88 63.05 605.18 60.33 608.25 58.26 624.09 65.47 624.21 68.01 614.87 66.89 611.62 67.13 631.95 72.27 620.07 72.21 610.73 72.21 612.86 77.23 626.57 78.59 626.39 80.36 608.96 81.25 613.75 85.03 624.03 89.52 617.59 90.06 605.47 87.93 604.23M63.76 613.16 71.91 617.65 69.43 617.65 65.23 614.93 68.54 615.93M202.64 711.79 202.34 713.09 204.23 719.77 205.24 738.39 204.76 746.01 202.52 751.21 201.51 749.38 201.75 745.95M205.53 740.22 201.75 755.23 198.68 758.72M184.97 754.99 199.8 748.97 201.51 752.93 201.69 756.53 196.02 761.97 192.77 762.5 188.04 762.03 185.5 760.55 183.96 753.16" fill="none" stroke="black" stroke-width="2" /></svg>