<?xml version="1.0" encoding="utf-8" ?>
<svg baseProfile="full" height="757" version="1.1" width="535" xmlns="http://www.w3.org/2000/svg" xmlns:ev="http://www.w3.org/2001/xml-events" xmlns:xlink="http://www.w3.org/1999/xlink"><defs /><rect fill="white" height="757" width="535" x="0" y="0" /><path d="M91.72 104.55 89.11 114.96 84.39 124 83.8 130.38 84.92 131.8 89.53 131.33 92.31 127.37 93.37 124.41 93.07 120.1 89.23 108.63M140.77 159.75 127.65 178.78 126.88 182.21 128.3 184.28 131.43 185.28 134.5 182.86 133.97 176.77 131.07 174.59 132.02 174.59M91.24 272.57 87.81 282.09 87.34 287.29 82.5 296.04 81.43 300 90.77 296.92 92.01 295.68 92.96 292.19 93.78 280.79 90.47 275.41M231.01 47.17 225.45 60.76 222.26 66.02 222.97 67.32 228.58 69.86 232.01 68.98 231.18 52.61 229.71 47.52 230.36 46.99M226.1 141.49 222.56 154.08 223.15 159.1 227.11 160.23 230.36 157.45 230.71 155.56 229.47 153.25 229.47 147.7 228.23 145.86 227.34 140.96 225.69 137.65 225.27 138.42M215.94 242.61 211.92 250.23 208.67 260.16 208.79 261.7 211.56 264.06 213.57 263.89 216.17 258.63 214.93 246.98 213.1 244.86 212.51 240.66M323.02 33.1 318.89 42.26 317.58 49.77 319.65 49.83 327.45 46.52 327.45 45.34 325.98 43.92 323.08 32.51 321.54 29.38 320.42 28.73 320.42 30.8M302.63 102.78 301.16 116.37 302.4 125 305.94 130.2 308.48 129.67 310.26 126.24 310.49 123.29 308.19 113.89 304.88 105.38 299.44 100.83 300.51 100.95M365.39 154.67 362.56 163.77 362.56 174.06 365.63 183.1 367.52 183.69 369.06 182.62 369.77 177.13 369.35 163.83 367.7 159.52 367.4 154.97 363.15 150.18 364.69 148.7M439.56 72.7 434.77 82.75 433.06 89.96 432.17 101.01 433.71 106.92 435.78 108.1 439.44 100.18 440.27 75.95 438.62 70.1 437.85 70.87M453.1 179.02 451.14 187.53 452.74 200.47 454.04 201.36 459.36 188.71 459.71 183.98 457.35 178.55 454.93 177.66 449.67 180.79 451.38 183.98M469.82 260.28 466.51 268.44 466.86 274.64 467.81 275.53 470.12 275.53 472.12 274.35 473.54 269.15 471.83 257.38 469.05 258.68 465.15 273.46 465.51 275.53M119.08 368.85 116.95 377.89 111.75 390.42 111.57 391.54 113.4 390.12 117.95 383.21 120.2 374.22 118.55 369.02 113.4 372.81 110.92 378.12M73.39 467.84 70.14 475.46 66.78 486.51 69.91 480.96 74.16 469.67 76.23 459.8 75.46 458.91 69.32 472.8M136.69 442.72 130.13 452.65 130.07 461.87 133.85 462.1 135.86 461.39 138.64 455.13 138.05 446.56 135.33 444.14 131.07 445.44 129.06 448.45 127.71 459.74M87.46 545.08 87.87 553.41 85.69 567.3 87.46 566.83 89.59 563.52 94.67 550.87 93.78 542.36 87.28 548.15 84.74 556.9M419.06 348.75 419.94 357.14 417.58 365.3 417.81 368.08 419.17 371.62 420.59 372.27 423.43 369.32 424.91 360.87 424.73 352.48 421.71 346.86 418.52 345.21 420.71 345.97M442.22 427.83 436.9 440 436.43 449.16 440.51 452.29 445.24 451.47 447.13 448.45 448.6 440.65 441.28 429.66 440.45 427.24 441.39 426.7M361.38 475.22 361.97 486.22 361.08 490.18 363.21 495.2 365.04 495.14 367.11 492.48 367.94 488.99 366.81 478.65 367.17 474.51 365.22 469.73 362.03 470.61 360.19 473.45 360.73 474.51M484.89 349.11 484.42 358.5 479.28 366.72 478.15 370.32 479.33 372.98 480.75 373.57 484.18 373.1 487.19 370.85 488.49 361.28 487.79 352.65 486.25 350.23 484.95 351.41M446.48 501.4 443.46 513.17 447.6 518.84 450.85 517.12 453.27 511.39 449.73 501.76 447.42 498.69 445.06 497.33 445.59 500.4M147.92 601.81 134.97 620.25 137.52 621.32 143.37 620.31 145.85 618.3 148.15 608.91 146.2 605.6 143.72 603.82 143.25 604.95M476.73 555.54 476.08 565.17 472.01 581.13 475.97 582.07 479.87 578.35 480.34 573.86 476.44 557.19 476.44 552.64M433.36 623.92 429.75 632.96 427.98 646.26 429.22 655.48 429.69 656.72 432 657.49 434.18 654.47 434.18 650.57 431.52 634.91 429.99 632.25 427.92 630.54M494.7 664.46 493.04 674.92 494.94 688.51 496.24 690.7 498.19 683.61 497.83 680.36 494.76 666.7 493.52 665.52 492.1 666.11M58.86 643.18 56.43 652.82 51.47 664.34 52.83 668.42 56.85 669.72 60.57 666.17 61.16 658.55 59.92 655.71 59.33 643.89M35.81 204.61 31.26 218.14 33.39 217.97 37.52 214.66 39 211.64 38.29 205.08 36.87 201.12 35.93 199.88 34.04 199.23M34.1 36.89 33.56 47.11 28.78 56.15 33.15 59.34 34.92 58.58 39.77 56.03 41.84 52.07 41.66 49.89 37.58 41.97 37.4 36.35 29.84 39.01M137.04 34.23 131.61 44.86 129.24 54.73 131.31 56.45 139.52 54.79 138.46 42.15 134.92 32.75 133.14 33.1M496.3 27.9 498.54 36.06 495.76 42.56 497 45.1 500.49 45.51 505.69 42.26 504.21 38.95 503.98 33.52 499.84 20.75 498.54 19.27 496.12 21.76 492.87 27.67 491.98 33.1M384.78 46.28 379.22 59.4 371.9 66.14 382.71 66.49 384.84 63.6 386.49 55.5 384.54 42.38 384.01 44.21M381.82 544.49 376.62 554.06 375.5 558.08 375.32 563.46 376.8 565.23 381.11 566 382.65 558.79 380.64 546.44 380.94 539.17M178.53 511.39 172.03 523.33 172.86 527.64 177.35 528.24 181.54 524.93 181.48 518.01 177.47 513.05 176.46 509.26 176.93 505.72 180.6 503.47" fill="none" stroke="black" stroke-width="2" /></svg>