<?xml version="1.0" encoding="utf-8" ?>
<svg baseProfile="full" height="757" version="1.1" width="535" xmlns="http://www.w3.org/2000/svg" xmlns:ev="http://www.w3.org/2001/xml-events" xmlns:xlink="http://www.w3.org/1999/xlink"><defs /><rect fill="white" height="757" width="535" x="0" y="0" /><path d="M272.08 326.06 263.81 327.77 256.71 330.61 254.17 332.38 246.2 341.6 241.47 351.88 240.34 358.33 239.69 371.74 240.17 395.44 240.99 400.58 236.62 409.56 238.69 409.8 242.47 408.44 245.49 409.39 253.41 409.27 254.23 407.91M272.67 325.82 281.24 323.16 287.98 323.52 297.14 326.35 306.59 331.61 313.98 342.49 315.87 347.98 318.53 352.53 321.25 361.93 323.49 364.12M270.31 351.29 266.41 365.71 260.56 372.45M287.62 353.07 291.4 364.35 296.96 369.67M262.27 387.34 266.35 379.37 269.6 378.54 275.86 379.54 276.22 380.02 274.92 380.19M287.09 381.79 292.35 374.76 295.84 373.93 299.8 377.18 301.69 380.67 300.45 381.43M275.09 396.5 282.48 401.17 283.96 400.82 288.86 393.55M262.8 405.9 269.13 412.17 286.26 416.48 292.05 415.42 297.26 413.05 301.81 409.62 308.66 399.99M307.07 381.02 308.72 393.73 307.07 404.13M252.22 382.62 257.07 399.46 259.91 405.55 262.21 408.91 265.4 407.61M280.35 416.48 280.94 415.89 281.48 423.45M289.57 416.07 290.52 420.38 291.82 420.97M291.23 422.74 300.21 425.29 306.77 423.28 311.26 417.48 318.41 410.57 322.25 404.78 321.9 403.77 321.43 404.66M322.08 405.72 322.67 399.99 326.15 396.15 329.29 394.44 332.06 394.55 333.01 397.15 332.24 399.87 325.33 405.72 321.01 406.55 320.36 403.83 321.07 401.59 323.73 398.45 326.98 396.33M279.64 423.81 269.01 423.1 262.33 424.22 250.75 427.94 243.89 431.37 229.23 445.56 227.76 448.75 223.15 472.98 221.67 486.98 222.14 505.9 221.08 505.9 222.32 504.71 222.44 502.23M220.78 502.47 221.49 501.7 222.44 519.49M251.46 459.21 245.66 474.34 244.01 485.98 243.36 508.14 244.07 527.76M322.55 421.21 317.82 431.02 304.52 453.06 302.1 458.14 299.91 466.83 300.33 479.66 308.54 516.36 311.91 527.88 310.49 527.7 302.87 530.72 293.65 531.43 267.53 528.06 252.16 529.59 245.25 533.44 247.67 527.64M223.32 515.82 231.36 520.08 237.57 521.68 240.11 522.15 242.12 519.84 241.47 519.31M230.77 518.9 225.51 530.66 225.75 533.61 227.23 534.2 229.65 528.12 228.88 536.39 229.77 537.63 231.18 534.56 232.37 528.06 232.19 533.61 232.66 536.1 233.61 537.04 235.09 530.78 235.91 536.57 236.5 535.62 237.39 531.55 236.92 529.18 240.46 535.27 241.53 532.2 241.53 529.36 240.58 524.04 238.22 521.2 239.75 520.43M320.19 402.77 322.49 398.99 327.1 394.85 327.93 394.61 327.04 397.8 323.55 403 329.46 398.81 331.24 398.57 325.56 406.08 331.3 403.71 325.56 409.56 323.55 410.1M251.81 528.59 248.62 532.37 246.14 543.19 244.13 576.22 246.31 618.66 248.62 628.35 249.15 634.38 248.44 637.21 249.62 635.32M247.91 634.32 248.2 650.39 243.95 675.21 246.49 676.52M282.72 559.85 283.6 600.75 283.49 674.62M283.07 557.67 285.26 568.72 295.72 595.14 322.79 676.63 323.55 678.41 323.44 674.98M310.61 527.29 312.5 544.37 317.23 562.69 320.6 570.43 322.73 578.71 346.6 634.61 363.68 668.89 363.33 669.9 341.52 677.52 324.85 679.06 323.85 678.82 324.38 674.8M242.35 674.27 251.28 679.88 266.17 680.95 273.5 679.94 280.65 677.46 281.71 676.81 280.06 676.75 282.84 674.09M257.66 682.01 260.67 692.12 259.43 695.84 253.88 703.35 251.28 709.14 253.64 710.62 257.48 710.5 268.65 706.42 271.31 703.35 271.13 689.34 272.32 682.13 273.56 679.71M342.17 673.62 343.59 682.9 346.72 687.33 355.11 684.32 360.49 683.43 364.51 685.26 365.04 687.09 363.92 690.64 358.18 698.26 354.58 701.57 350.15 704.23 347.07 704.06 342.58 698.68 335.67 685.73 334.6 679.06 332.65 677.52 332.6 678.11" fill="none" stroke="black" stroke-width="2" /></svg>