<?xml version="1.0" encoding="utf-8" ?>
<svg baseProfile="full" height="757" version="1.1" width="535" xmlns="http://www.w3.org/2000/svg" xmlns:ev="http://www.w3.org/2001/xml-events" xmlns:xlink="http://www.w3.org/1999/xlink"><defs /><rect fill="white" height="757" width="535" x="0" y="0" /><path d="M306.83 232.56 307.77 224.05 307.42 212.65 308.78 211.46 308.13 211.41 307.36 220.15 307.54 228.6 310.38 207.27 308.96 226.36 309.07 216.49 309.07 232.09 308.37 230.38 308.72 228.13M305.94 231.68 306.42 230.49 304.29 230.2 300.03 231.38 282.01 240.25 265.11 254.84 239.69 278.48 231.07 288 219.6 298.46 211.62 309.1 204.41 317.07 201.99 323.63 203.82 326.18M308.48 230.26 307.83 228.07 310.38 225.23 312.03 225 320.24 229.19 322.25 231.14 347.55 239.42 377.27 255.02 415.15 270.98 422.42 275.71 430.82 285.87 439.33 301.59 441.98 301.53M203.11 327.71 217.3 319.91 222.32 318.67 230.3 319.44 233.19 321.09 239.75 322.98 240.88 324.58 244.19 326 251.46 325.88 257.07 324.93 270.07 317.19 275.98 314.53 280 313.65 292.23 313.06 297.85 313.77 304.29 314.95 319.54 319.5 321.78 317.67 331.41 314.95 356.53 311.34 369.71 311.11 378.51 309.81 384.78 310.4 387.02 312.05 415.39 304.13 422.31 303.07 441.69 303.07 443.46 301.95 449.73 300.59 450.08 301.06 448.72 301.59 447.36 303.84 447.48 305.02M320.72 316.37 319.83 325.05 319.95 337.88 322.79 396.15 322.31 421.09M331.06 314.65 332.42 313.12 331.12 314.06 330.76 328.01 330.76 346.39 331.95 357.85 332.42 374.34 332.48 403.65 331.3 420.73 331.89 421.5 332.12 420.5M301.27 258.63 293.36 265.42 287.03 274.35 280.18 288 277.1 296.8M339.98 258.15 347.31 263 351.03 266.49 356.59 276.24 357.42 284.33" fill="none" stroke="black" stroke-width="2" /></svg>