<?xml version="1.0" encoding="utf-8" ?>
<svg baseProfile="full" height="757" version="1.1" width="535" xmlns="http://www.w3.org/2000/svg" xmlns:ev="http://www.w3.org/2001/xml-events" xmlns:xlink="http://www.w3.org/1999/xlink"><defs /><rect fill="white" height="757" width="535" x="0" y="0" /><path d="M254.5 306 253.5 307 251.5 306 242.5 306 239.5 307 225.5 313 216.5 321 215.5 324 213.5 326 210.5 332 207.5 343 207.5 368 212.5 382 213.5 382 214.5 385 222.5 394 237.5 400 244.5 400 247.5 399 257.5 398 279.5 389 285.5 385 288.5 382 294.5 371 295.5 367 295.5 352 293.5 345 288.5 333 282.5 325 281.5 322 279.5 321 279.5 320 276.5 317 268.5 312 266.5 312 262.5 310 257.5 309 252.5 305 250.5 305 248.5 307 247.5 307 247.5 308M209.5 336 210.5 336 209.5 341 209.5 355 210.5 354M213.5 331 212.5 331 211.5 333 211.5 342 212.5 347 213.5 348 215.5 347M215.5 331 214.5 331 214.5 345 215.5 349 217.5 351 218.5 350M217.5 330 216.5 330 216.5 342 217.5 347 219.5 351 221.5 351 221.5 350M221.5 323 220.5 321 220.5 340 221.5 346 223.5 347M222.5 320 221.5 321 220.5 326 222.5 343 224.5 347 226.5 348 226.5 346M225.5 318 224.5 321 224.5 334 225.5 343 227.5 348 230.5 349 230.5 348M229.5 316 228.5 316 226.5 327 228.5 344 229.5 347 230.5 347M232.5 312 231.5 321 231.5 332 235.5 348 237.5 349 239.5 346M238.5 310 237.5 319 237.5 330 238.5 338 240.5 345 243.5 346M240.5 309 238.5 315 238.5 324 243.5 350 244.5 349 244.5 346M236.5 312 235.5 312 234.5 317 234.5 330 236.5 341 241.5 357 244.5 359 246.5 358M237.5 314 235.5 316 233.5 320 232.5 327 233.5 336 236.5 343 238.5 344M226.5 317 224.5 319 222.5 325 222.5 346 224.5 354 226.5 354 227.5 351M218.5 320 214.5 325 212.5 335 212.5 347 215.5 359 217.5 364 219.5 365 221.5 364M214.5 333 211.5 342 211.5 355 214.5 364 218.5 367 221.5 366M219.5 333 216.5 340 217.5 354 220.5 359 223.5 359M221.5 332 219.5 340 220.5 347 224.5 355 227.5 357 230.5 356M227.5 322 226.5 324 225.5 332 226.5 341 228.5 349 231.5 352 232.5 351M229.5 307 229.5 306 230.5 307 232.5 311 232.5 313 233.5 313 235.5 317 235.5 328 234.5 334 234.5 344 235.5 346 235.5 351 232.5 357 222.5 367 220.5 368 219.5 370 219.5 369 226.5 363 230.5 357 233.5 348 237.5 328 237.5 316 236.5 316 236.5 327 235.5 334 232.5 342 221.5 359 211.5 367 207.5 369 206.5 369 206.5 367 209.5 363 209.5 362 216.5 357 225.5 349M245.5 309 243.5 309 245.5 315 248.5 321 254.5 330M243.5 304 241.5 304 241.5 308 243.5 319 245.5 326 249.5 335 254.5 340 261.5 343 270.5 350 274.5 352 282.5 353 285.5 352 286.5 349M247.5 307 246.5 308 246.5 310 248.5 316 257.5 336 261.5 341 263.5 340 264.5 336M248.5 314 246.5 313 245.5 315 255.5 333 262.5 343 269.5 351 271.5 351 272.5 350 272.5 346M253.5 314 252.5 313 254.5 318 262.5 333 274.5 351 276.5 345M258.5 310 256.5 310 256.5 311 268.5 330 275.5 344 280.5 347 281.5 345 281.5 339M264.5 309 263.5 308 263.5 310 282.5 345 283.5 346 285.5 346 286.5 345 286.5 341M271.5 313 272.5 318 288.5 340 289.5 341 291.5 341 292.5 338 291.5 334M279.5 318 279.5 321 281.5 326 288.5 333 294.5 341 299.5 342M230.5 327 229.5 333 221.5 346 212.5 355 208.5 358 205.5 358 203.5 357 203.5 356 206.5 352M219.5 328 219.5 325 218.5 326 213.5 350 211.5 357 210.5 358 210.5 362 211.5 358M219.5 333 220.5 326 210.5 353M209.5 348 207.5 350 206.5 350 205.5 348 202.5 348 199.5 354 200.5 372 203.5 379 205.5 380 208.5 371M293.5 340 292.5 340 292.5 337 294.5 334 297.5 332 300.5 332 302.5 336 303.5 344 301.5 351 298.5 355 295.5 356 293.5 354M248.5 361 249.5 361 247.5 366 247.5 370 248.5 374 250.5 374M264.5 355 262.5 356 262.5 357 263.5 357 263.5 355M237.5 364 237.5 363 235.5 362 235.5 365 236.5 365M249.5 385 251.5 386 257.5 386M238.5 401 235.5 401 235.5 406 234.5 410 234.5 426 236.5 435 236.5 457 237.5 462 237.5 478 238.5 480M277.5 389 275.5 389 274.5 391 273.5 436 272.5 446 272.5 477M273.5 417 274.5 417 274.5 416 276.5 414 289.5 408 297.5 403 308.5 394 308.5 398 307.5 400 307.5 410 306.5 415 304.5 419 300.5 422 295.5 424 285.5 431 282.5 432 278.5 436 277.5 436 278.5 436M234.5 426 233.5 425 229.5 425 209.5 415 206.5 415 204.5 418 204.5 420 201.5 429 201.5 432 200.5 433 200.5 435 205.5 437 217.5 444 226.5 446 231.5 446 231.5 447 230.5 447M232.5 480 232.5 479 244.5 479 266.5 475 276.5 475 276.5 474 274.5 474M232.5 480 232.5 479 231.5 479 231.5 485 229.5 496 229.5 501 228.5 503 227.5 521 225.5 532 225.5 537 227.5 539 234.5 539 239.5 537 241.5 535 241.5 533 244.5 529 247.5 520 248.5 513 249.5 510 250.5 510 251.5 504 252.5 503 251.5 503 251.5 530 252.5 533 253.5 534 255.5 534 260.5 536 263.5 536 272.5 533 275.5 517 275.5 504 272.5 480 272.5 481 271.5 481M228.5 541 227.5 541 227.5 559 228.5 560M235.5 544 234.5 545 234.5 559M227.5 563 226.5 562 224.5 562 222.5 564 220.5 570 221.5 573 226.5 574 232.5 572 236.5 566 236.5 560 233.5 556 229.5 556 228.5 557M260.5 535 258.5 536 254.5 564 254.5 565 255.5 564 255.5 562M266.5 538 266.5 537 267.5 537 266.5 540 266.5 544 261.5 558 260.5 559 260.5 558 262.5 556M258.5 564 251.5 564 251.5 570 253.5 573 258.5 574 263.5 569 266.5 561 266.5 554 263.5 552 253.5 552M308.5 402 307.5 402 308.5 400 328.5 392 330.5 391 329.5 391M307.5 410 327.5 401 328.5 399M333.5 392 332.5 392 328.5 397 327.5 404 330.5 405 335.5 402 340.5 396 342.5 391 341.5 389 337.5 389M230.5 325 230.5 323 229.5 326 228.5 335 226.5 356 226.5 358 227.5 355M235.5 323 233.5 324 231.5 330 226.5 360 227.5 360 227.5 359M239.5 322 237.5 323 234.5 329 231.5 338 229.5 348 229.5 350 231.5 346M239.5 323 238.5 323 233.5 337 231.5 346 231.5 353 232.5 353M231.5 315 230.5 315 227.5 318 224.5 324 221.5 334 215.5 347 214.5 347 216.5 337M228.5 314 228.5 312 225.5 314 215.5 329 213.5 335 211.5 344 212.5 351 217.5 351M245.5 315 242.5 314 241.5 316 247.5 328 252.5 335 256.5 337 258.5 335 257.5 330M249.5 316 247.5 316 248.5 321 259.5 341 265.5 348 268.5 347 269.5 345M254.5 316 255.5 320 264.5 338 269.5 345 272.5 345 272.5 342M257.5 318 255.5 319 255.5 320 257.5 326 262.5 334 271.5 344 272.5 344 271.5 338M256.5 312 255.5 312 256.5 316 268.5 338 273.5 345 276.5 347 276.5 343 270.5 331M263.5 320 274.5 342 278.5 345 279.5 343 279.5 338M267.5 316 269.5 328 274.5 338 279.5 344 282.5 345 282.5 341 280.5 336M271.5 319 272.5 326 277.5 333 287.5 342 288.5 341 288.5 339M278.5 323 280.5 330 286.5 340 293.5 349M257.5 319 258.5 319 264.5 328 270.5 335M249.5 313 249.5 316 251.5 322 258.5 330 264.5 334M247.5 304 245.5 306 244.5 311 249.5 328 252.5 335 254.5 336M247.5 308 247.5 319 250.5 329 256.5 337 260.5 338 262.5 333 262.5 331M252.5 307 253.5 308 254.5 317 257.5 326 261.5 332 263.5 332 264.5 327M258.5 308 257.5 307 257.5 308 263.5 324 268.5 331 271.5 333 271.5 327M229.5 319 226.5 323 219.5 348M234.5 318 226.5 333 224.5 341 222.5 345M235.5 317 232.5 318 227.5 323 219.5 339 216.5 348 214.5 351M225.5 320 221.5 322 217.5 326 206.5 353M203.5 350 203.5 351 204.5 351M202.5 360 202.5 359 201.5 361 201.5 366M293.5 339 295.5 339 295.5 345 294.5 346M200.5 427 200.5 428 197.5 428 195.5 427 189.5 427 186.5 426M200.5 422 197.5 422 191.5 420 188.5 417 188.5 418M184.5 415 183.5 418 181.5 420 180.5 426 181.5 429 184.5 429 186.5 427 188.5 422 188.5 415 187.5 411 186.5 410" fill="none" stroke="black" stroke-width="2" /></svg>