<?xml version="1.0" encoding="utf-8" ?>
<svg baseProfile="full" height="757" version="1.1" width="535" xmlns="http://www.w3.org/2000/svg" xmlns:ev="http://www.w3.org/2001/xml-events" xmlns:xlink="http://www.w3.org/1999/xlink"><defs /><rect fill="white" height="757" width="535" x="0" y="0" /><path d="M433.5 247 438.5 256 439.5 256 441.5 258M55.5 29 53.5 25 52.5 26 53.5 38 52.5 60 49.5 93 46.5 150M108.5 11 109.5 10 110.5 14 111.5 29 110.5 56 107.5 84 106.5 105 109.5 125M119.5 215 114.5 228 112.5 246 113.5 278 116.5 295 118.5 301 119.5 302M258.5 23 257.5 21 252.5 58 251.5 82 253.5 101M246.5 288 239.5 302 238.5 317 240.5 324 243.5 328M350.5 27 349.5 25 347.5 41 346.5 67 346.5 89 347.5 93M434.5 157 430.5 180 430.5 198 432.5 219 436.5 239 442.5 259M451.5 348 446.5 354 441.5 368 440.5 391 441.5 412 443.5 427 445.5 435 446.5 436M493.5 82 494.5 64 495.5 58 494.5 71 488.5 131 487.5 170 488.5 198 491.5 224 495.5 277M177.5 373 171.5 377 170.5 392 174.5 417 183.5 462 185.5 482M63.5 398 56.5 398 51.5 403 51.5 420 60.5 471 66.5 496 68.5 508M491.5 480 484.5 479 476.5 481 475.5 489 479.5 508 486.5 531 492.5 547 497.5 555M512.5 487 512.5 512 514.5 534 519.5 550M239.5 493 235.5 496 231.5 516 233.5 547 238.5 568 244.5 577 246.5 578M210.5 46 210.5 41 211.5 38 216.5 34M457.5 7 457.5 6 459.5 10 462.5 19 463.5 38M55.5 165 51.5 169 50.5 184 51.5 200 56.5 208M383.5 104 385.5 102 384.5 108 386.5 112 400.5 122 406.5 123" fill="none" stroke="black" stroke-width="2" /></svg>