<?xml version="1.0" encoding="utf-8" ?>
<svg baseProfile="full" height="757" version="1.1" width="535" xmlns="http://www.w3.org/2000/svg" xmlns:ev="http://www.w3.org/2001/xml-events" xmlns:xlink="http://www.w3.org/1999/xlink"><defs /><rect fill="white" height="757" width="535" x="0" y="0" /><path d="M215 322 211 324 209 324 205 326 200 327 193 327 179 324 168 320 162 316 151 305 147 297 143 303 141 295 139 304 137 293 138 284 143 269 152 256 158 250 170 241 192 232 200 231 216 231 243 235 252 235 258 247 261 259 261 272 260 278 258 289 254 299 247 311 237 319 231 325 222 331 214 334 211 334 207 331 206 331M208 317 208 333 210 348 210 359 212 373 212 378 214 388 216 416 218 426 219 442 221 456 221 464 222 468 222 484 221 480M209 395 209 398 207 398 201 395 191 392 174 391 166 392 153 396 150 396 144 399M235 383 238 383 241 381 246 380 271 368 279 365 282 365M220 466 214 471 207 481 190 508 188 513 185 516 181 524 179 525 179 520M207 464 210 463 216 463 220 465 227 472 240 491 246 502 249 505 251 509 255 513 256 516 258 517 258 518" fill="none" stroke="black" stroke-width="2" /></svg>