<?xml version="1.0" encoding="utf-8" ?>
<svg baseProfile="full" height="757" version="1.1" width="535" xmlns="http://www.w3.org/2000/svg" xmlns:ev="http://www.w3.org/2001/xml-events" xmlns:xlink="http://www.w3.org/1999/xlink"><defs /><rect fill="white" height="757" width="535" x="0" y="0" /><path d="M126.5 75 127.5 76 127.5 86 128.5 91 129.5 94 129.5 91 131.5 100 131.5 94 133.5 101M84.5 197 82.5 199 81.5 205 81.5 216 82.5 227 85.5 242 87.5 250 89.5 252M71.5 355 69.5 358 69.5 363 73.5 380 75.5 400 76.5 406 77.5 407M220.5 196 217.5 221 217.5 237 218.5 241 219.5 241M273.5 69 271.5 73 269.5 86 269.5 121M344.5 242 342.5 254 341.5 268 343.5 293 353.5 314M395.5 386 396.5 388 396.5 399 398.5 406 398.5 418 397.5 425M462.5 337 461.5 337 460.5 347 466.5 374 469.5 382M451.5 147 449.5 158 448.5 173 449.5 211M376.5 66 373.5 73 372.5 87 374.5 123M51.5 53 50.5 55 49.5 62 49.5 91 50.5 100M50.5 498 49.5 502 49.5 512 51.5 532 53.5 540M463.5 511 460.5 518 459.5 524 459.5 543 463.5 564" fill="none" stroke="black" stroke-width="2" /></svg>