<?xml version="1.0" encoding="utf-8" ?>
<svg baseProfile="full" height="757" version="1.1" width="535" xmlns="http://www.w3.org/2000/svg" xmlns:ev="http://www.w3.org/2001/xml-events" xmlns:xlink="http://www.w3.org/1999/xlink"><defs /><rect fill="white" height="757" width="535" x="0" y="0" /><path d="M211.5 355 212.5 355 212.5 356 211.5 356 209.5 354 208.5 354 208.5 353 207.5 353 207.5 352 205.5 351 204.5 348 202.5 348 201.5 352 200.5 352 200.5 357 201.5 357 201.5 359 202.5 359 202.5 360 203.5 360 204.5 362 207.5 363 208.5 365 210.5 365 210.5 366 214.5 367M234.5 355 235.5 355 235.5 356 235.5 355 236.5 355 236.5 351 237.5 351 237.5 343 236.5 343 236.5 339 235.5 339 235.5 336 234.5 336 234.5 334 233.5 334 233.5 331 232.5 331 232.5 329 231.5 329 231.5 328M240.5 326 240.5 328 241.5 330 242.5 330 242.5 332 245.5 337 245.5 340 246.5 341 246.5 343 247.5 344 247.5 348 248.5 349 248.5 354 249.5 354 249.5 359 248.5 359 247.5 363 246.5 363 246.5 364 244.5 366 243.5 366 243.5 367 241.5 367M230.5 326 230.5 327 230.5 326 234.5 324 234.5 323 242.5 323 242.5 327 243.5 328 243.5 331 244.5 331 244.5 334 245.5 334 246.5 342M219.5 203 217.5 203 217.5 208 219.5 214 220.5 226 223.5 238 224.5 248 225.5 249 225.5 252 226.5 253 227.5 264 228.5 265 228.5 271 229.5 272 229.5 277 230.5 278 230.5 283 231.5 285 231.5 289 232.5 290 232.5 296 233.5 297 233.5 302 234.5 303 234.5 311 235.5 312 236.5 324M212.5 203 214.5 204 214.5 217 215.5 218 215.5 225 216.5 227 216.5 231 218.5 235 222.5 259 225.5 268 225.5 271 226.5 275 227.5 276 229.5 284 229.5 287 230.5 288 230.5 291 231.5 292 231.5 295 232.5 296 232.5 299 233.5 300 234.5 314 235.5 314 235.5 319 236.5 320 238.5 328M216.5 207 216.5 213 217.5 214 218.5 224 219.5 225 220.5 231 221.5 232 223.5 241 224.5 242 224.5 246 225.5 247 225.5 250 226.5 251 226.5 254 227.5 255 227.5 258 228.5 259 229.5 266 230.5 267 231.5 273 232.5 274 233.5 283 234.5 287 235.5 288 235.5 294 236.5 295 236.5 300 237.5 301 237.5 311 238.5 312 238.5 319 239.5 320 239.5 322M187.5 77 187.5 78 180.5 78 174.5 76 158.5 76 152.5 77 143.5 79 137.5 81 136.5 82 131.5 83 120.5 89 115.5 90 105.5 95 99.5 99 95.5 100 87.5 106 80.5 113 79.5 113 65.5 127 63.5 130 62.5 130 60.5 134 52.5 142 51.5 142 46.5 149 45.5 152 37.5 164 37.5 165 35.5 167 30.5 177 27.5 181 26.5 185 25.5 185 22.5 196 17.5 204 16.5 208 12.5 215 12.5 214 13.5 214 13.5 213 18.5 207 21.5 202 31.5 191 35.5 188 40.5 186 50.5 179 56.5 176 64.5 174 68.5 172 70.5 172 70.5 171 73.5 171 75.5 170 91.5 170 92.5 171 103.5 172 104.5 173 107.5 173 111.5 175M109.5 175 110.5 177 111.5 177 111.5 178 112.5 178 112.5 179 116.5 183 118.5 187 123.5 193 125.5 198 127.5 200 129.5 208 130.5 208 130.5 214 131.5 214 131.5 218 132.5 219 133.5 230M133.5 225 135.5 219 140.5 210 145.5 205 146.5 203 148.5 202 150.5 198 152.5 197 153.5 195 157.5 192 163.5 189 165.5 187 171.5 184 175.5 181 191.5 174 193.5 174 196.5 172 213.5 168 214.5 167 223.5 166 223.5 165M222.5 164 228.5 167 232.5 168 238.5 173 239.5 173 240.5 175 253.5 183 253.5 184 256.5 186 256.5 187 258.5 188 258.5 189 272.5 200 272.5 201 277.5 206 277.5 207 282.5 212 282.5 213 284.5 214M190.5 77 191.5 77 193.5 73 194.5 73 196.5 71 204.5 68 216.5 66 231.5 66 238.5 68 241.5 68 257.5 74 274.5 78 280.5 81 282.5 81 295.5 86 310.5 95 314.5 96 318.5 99 320.5 99 324.5 102 329.5 104 339.5 111 340.5 113 345.5 117 349.5 119 354.5 123 355.5 123 355.5 124 357.5 124M353.5 124 350.5 124 349.5 123 347.5 123 343.5 121 336.5 121 333.5 122 302.5 134 295.5 139 292.5 144 289.5 147 289.5 149 288.5 150 288.5 152 286.5 155 285.5 159 285.5 169 287.5 176 288.5 188 289.5 189 289.5 193 290.5 194 290.5 201 291.5 202 291.5 212 292.5 213 292.5 217M132.5 226 134.5 226 138.5 222 147.5 217 149.5 217 153.5 215 155.5 215 160.5 213 170.5 211 173.5 209 175.5 209 176.5 208 182.5 206 186.5 206 198.5 203 209.5 203 210.5 204 247.5 204 248.5 203 271.5 203 272.5 204 286.5 205M346.5 120 346.5 121 340.5 124 339.5 126 337.5 127 336.5 129 319.5 146 308.5 162 305.5 168 300.5 183 299.5 191 296.5 198 296.5 200 293.5 209 293.5 219 292.5 220M19.5 213 35.5 211 45.5 211 52.5 210 65.5 211 72.5 214 85.5 217 97.5 223 109.5 227 114.5 230 125.5 233 129.5 235 129.5 236 130.5 236M188.5 78 190.5 78 184.5 79 180.5 82 175.5 84 169.5 90 149.5 104 128.5 125 123.5 132 120.5 134 119.5 137 112.5 144 106.5 162 102.5 170 100.5 176 100.5 179M186.5 77 185.5 79 186.5 79 190.5 84 192.5 88 194.5 90 206.5 109 209.5 112 213.5 119 213.5 121 216.5 127 216.5 129 227.5 151 227.5 154 231.5 168 231.5 172 230.5 173M185.5 80 180.5 80 180.5 82 178.5 86 174.5 99 167.5 116 160.5 128 154.5 144 149.5 164 149.5 167 141.5 191 141.5 197 140.5 200 139.5 214 137.5 220M181.5 79 172.5 79 145.5 93 142.5 96 137.5 98 129.5 103 112.5 115 109.5 118 90.5 129 84.5 135 80.5 137 74.5 142 68.5 148 61.5 158 50.5 169 42.5 181 35.5 187 32.5 191 28.5 200 27.5 210M188.5 78 189.5 78 189.5 79 191.5 81 195.5 83 197.5 85 211.5 93 213.5 96 216.5 98 220.5 104 223.5 106 230.5 115 243.5 134 251.5 143 256.5 150 265.5 172 273.5 185 278.5 197 282.5 205 284.5 207 287.5 215M189.5 80 198.5 80 207.5 83 241.5 98 248.5 104 251.5 105 258.5 111 268.5 118 271.5 119 273.5 122 275.5 123 290.5 137 292.5 138 295.5 142 295.5 143M194.5 77 201.5 76 203.5 75 215.5 76 218.5 77 224.5 77 236.5 81 241.5 84 247.5 86 257.5 91 259.5 91 262.5 93 277.5 98 307.5 112 314.5 114 318.5 114 318.5 115 320.5 115 332.5 120 339.5 121 340.5 122 345.5 122M186.5 76 187.5 76 187.5 77 185.5 78 174.5 78 172.5 77 172.5 71 173.5 70 173.5 68 174.5 68 175.5 66 179.5 63 189.5 63 191.5 64 192.5 67 193.5 67 193.5 72 192.5 72 192.5 74 189.5 78 187.5 79 184.5 79 183.5 80 179.5 80 178.5 79 174.5 78 172.5 76 172.5 75 171.5 75 171.5 68 173.5 66 173.5 65 174.5 65 174.5 64 176.5 63 176.5 62 178.5 61 183.5 61 184.5 63M172.5 72 172.5 49 177.5 49 177.5 50 179.5 50 182.5 53 183.5 53 183.5 54 184.5 54 184.5 55 189.5 60 189.5 61 190.5 61 190.5 63 191.5 63 191.5 65 192.5 66 192.5 73 188.5 77 186.5 78 180.5 78 177.5 75 177.5 73 175.5 71 174.5 67 173.5 66 172.5 62 172.5 56 171.5 55 171.5 53 172.5 52M173.5 52 174.5 53 176.5 60 181.5 71 181.5 75M176.5 54 176.5 62 178.5 67 182.5 73 182.5 76 183.5 76 182.5 76 182.5 75M182.5 56 183.5 66 188.5 76 187.5 72 186.5 71 185.5 64 184.5 62 185.5 68 185.5 76 181.5 76 178.5 73 177.5 68 178.5 58 182.5 58 186.5 69 186.5 74 184.5 75 180.5 73 176.5 66 176.5 59 178.5 56 183.5 57 188.5 65 190.5 71 189.5 75 187.5 76 182.5 74 178.5 69 178.5 60 180.5 58 181.5 58 183.5 59 186.5 65 188.5 72 188.5 73 185.5 74 181.5 69 180.5 63 181.5 62 183.5 62 187.5 66 189.5 70 189.5 74 183.5 75 176.5 70 174.5 58 177.5 54 178.5 54 182.5 61 182.5 66 181.5 66 177.5 62 174.5 57 174.5 56 177.5 56M189.5 130 187.5 133 187.5 136" fill="none" stroke="black" stroke-width="2" /></svg>