<?xml version="1.0" encoding="utf-8" ?>
<svg baseProfile="full" height="757" version="1.1" width="535" xmlns="http://www.w3.org/2000/svg" xmlns:ev="http://www.w3.org/2001/xml-events" xmlns:xlink="http://www.w3.org/1999/xlink"><defs /><rect fill="white" height="757" width="535" x="0" y="0" /><path d="M338.5 22.71 338.5 28.71 337.5 29.71 336.5 37.71 334.5 41.71 334.5 45.71 333.5 46.71 333.5 51.71 332.5 53.71 332.5 59.71 333.5 59.71 333.5 60.71 335.5 61.71 339.5 60.71 341.5 56.71 342.5 50.71 338.5 29.71 336.5 21.71 335.5 20.71M104.5 5.71 104.5 20.71 99.5 30.71 97.5 32.71 96.5 37.71 97.5 38.71 101.5 39.71 103.5 38.71 103.5 37.71 104.5 37.71 106.5 33.71 106.5 16.71 105.5 15.71 105.5 11.71 104.5 10.71 104.5 1.71 103.5 .71M44.5 84.71 43.5 84.71 43.5 91.71 41.5 97.71M73.5 28.71 73.5 32.71 74.5 33.71 74.5 35.71M74.5 49.71 75.5 49.71 75.5 53.71M75.5 74.71 77.5 90.71 77.5 98.71M246.5 29.71 247.5 29.71 246.5 29.71 246.5 30.71M346.5 195.71 347.5 196.71 350.5 206.71M391.5 341.71 391.5 344.71 395.5 354.71 399.5 358.71M387.5 116.71 388.5 117.71 389.5 133.71 390.5 135.71 390.5 149.71M333.5 243.71 334.5 249.71 337.5 257.71 339.5 266.71M356.5 316.71 357.5 326.71 358.5 326.71 363.5 336.71M296.5 67.71 297.5 68.71 300.5 77.71M416.5 185.71 417.5 186.71 417.5 191.71 416.5 192.71 416.5 209.71 417.5 209.71 417.5 211.71 418.5 211.71 418.5 212.71 421.5 212.71 421.5 209.71 422.5 209.71 422.5 201.71 420.5 197.71 420.5 191.71 419.5 187.71 418.5 186.71M287.5 282.71 287.5 290.71 286.5 292.71 286.5 299.71 285.5 300.71 285.5 305.71 286.5 305.71 286.5 306.71 288.5 306.71 289.5 304.71 289.5 293.71 287.5 288.71 287.5 286.71 286.5 286.71M44.5 266.71 45.5 267.71 42.5 282.71M51.5 327.71 52.5 328.71 52.5 340.71 53.5 343.71 53.5 349.71M27.5 397.71 25.5 408.71 29.5 419.71M45.5 468.71 43.5 484.71 43.5 497.71M41.5 547.71 41.5 563.71 42.5 565.71M324.5 446.71 324.5 452.71 327.5 466.71 329.5 466.71 330.5 458.71 327.5 453.71 326.5 453.71 325.5 450.71 323.5 449.71 322.5 444.71M341.5 547.71 339.5 552.71 341.5 562.71 341.5 569.71 343.5 573.71 344.5 573.71 345.5 571.71 345.5 565.71 342.5 555.71 340.5 551.71 339.5 551.71 338.5 545.71M271.5 461.71 269.5 468.71 269.5 476.71 268.5 478.71 270.5 461.71M307.5 579.71 309.5 591.71 313.5 598.71 314.5 602.71M305.5 373.71 304.5 373.71 301.5 381.71M408.5 456.71 410.5 471.71 410.5 485.71M368.5 445.71 369.5 450.71 369.5 462.71 368.5 463.71M432.5 57.71 430.5 58.71 430.5 59.71M461.5 172.71 462.5 173.71 463.5 179.71M447.5 232.71 448.5 232.71 452.5 240.71M493.5 251.71 492.5 256.71 492.5 265.71M493.5 554.71 492.5 557.71 492.5 562.71 493.5 563.71M430.5 527.71 429.5 536.71 431.5 552.71M370.5 645.71 372.5 645.71 375.5 657.71 375.5 663.71M61.5 656.71 63.5 657.71 59.5 665.71M44.5 679.71 43.5 681.71 45.5 682.71" fill="none" stroke="black" stroke-width="2" /></svg>