<?xml version="1.0" encoding="utf-8" ?>
<svg baseProfile="full" height="757" version="1.1" width="535" xmlns="http://www.w3.org/2000/svg" xmlns:ev="http://www.w3.org/2001/xml-events" xmlns:xlink="http://www.w3.org/1999/xlink"><defs /><rect fill="white" height="757" width="535" x="0" y="0" /><path d="M142.5 539 137.5 540 136.5 541 133.5 541 125.5 543 117.5 547 108.5 553 102.5 559 97.5 568 97.5 576 100.5 584 105.5 590 110.5 591 119.5 595 123.5 596 133.5 597 141.5 600 146.5 600 161.5 603 172.5 603 177.5 602 182.5 599 191.5 597 225.5 598 241.5 601 247.5 601 251.5 602 262.5 602 267.5 601 289.5 601 310.5 596 321.5 591 325.5 590 331.5 586 343.5 580 358.5 578 370.5 575 378.5 568 382.5 559 382.5 555 380.5 549 377.5 544 364.5 534 358.5 531 348.5 529 344.5 529 338.5 527M105.5 565 105.5 568 108.5 582 108.5 563 110.5 557 110.5 567 113.5 586 116.5 592M116.5 540 115.5 540 114.5 543 114.5 550 116.5 569 119.5 580 120.5 581 120.5 578M121.5 552 120.5 555 120.5 568 121.5 577 124.5 588M124.5 555 123.5 555 122.5 561 124.5 576 125.5 580 127.5 580 127.5 574M127.5 543 126.5 551 127.5 554 128.5 555 129.5 553 129.5 542 130.5 541 134.5 554M141.5 584 147.5 597 151.5 590M153.5 580 156.5 588 159.5 593 163.5 596 166.5 595 168.5 587 168.5 584 170.5 586 175.5 595 176.5 595 176.5 596 177.5 595 178.5 589 179.5 587 181.5 586 182.5 586 183.5 588 188.5 592 190.5 587 190.5 579 191.5 577 198.5 588 202.5 592 203.5 592 205.5 591 205.5 584 203.5 566 205.5 567 215.5 588 217.5 590 219.5 589 219.5 563 220.5 563 222.5 572 230.5 589 232.5 590 234.5 587 233.5 575 229.5 560 226.5 552 224.5 542 228.5 564 236.5 580 239.5 588 244.5 594 245.5 592 244.5 575 242.5 563 237.5 544 238.5 555 242.5 567 247.5 579 256.5 596 259.5 597 260.5 595 260.5 586 257.5 566 258.5 566 259.5 570 265.5 584 268.5 589 271.5 591 273.5 591 274.5 587 274.5 579 272.5 569 272.5 565 274.5 567 277.5 574 286.5 590 288.5 590 290.5 588 290.5 583 292.5 575 293.5 575 295.5 577 300.5 586 303.5 589 305.5 589 307.5 588 308.5 583 308.5 565 310.5 563 314.5 566 318.5 573 323.5 579 327.5 582 330.5 583 332.5 582 334.5 577 335.5 569 335.5 555 338.5 556 347.5 571 351.5 572 352.5 568 352.5 547 353.5 546 368.5 569 370.5 570 371.5 569 371.5 564 369.5 555 362.5 539 361.5 538 360.5 539 363.5 561 353.5 540 343.5 523 340.5 525 339.5 534 339.5 550 338.5 555 334.5 548 331.5 540 325.5 530 325.5 536 330.5 552 320.5 528 319.5 528 320.5 535 323.5 547 323.5 545 321.5 541M224.5 532 232.5 534 237.5 534 243.5 532" fill="none" stroke="black" stroke-width="2" /></svg>