<?xml version="1.0" encoding="utf-8" ?>
<svg baseProfile="full" height="757" version="1.1" width="535" xmlns="http://www.w3.org/2000/svg" xmlns:ev="http://www.w3.org/2001/xml-events" xmlns:xlink="http://www.w3.org/1999/xlink"><defs /><rect fill="white" height="757" width="535" x="0" y="0" /><path d="M183.5 191 183.5 217 184.5 219 185.5 227 188.5 230 189.5 233 197.5 239 199.5 239 203.5 242 213.5 247 219.5 248 223.5 250 228.5 250 229.5 249 232.5 249 244.5 242 245.5 240 257.5 229 262.5 219 262.5 217 264.5 215 264.5 212 265.5 212 265.5 207 266.5 206 266.5 196 267.5 195 267.5 190 268.5 189M265.5 197 266.5 197 271.5 193 274.5 193 276.5 195 276.5 197 277.5 198 277.5 205 276.5 206 276.5 208 274.5 212 270.5 216 270.5 217 268.5 217 267.5 218 263.5 218 263.5 217M183.5 201 182.5 198 178.5 196 173.5 196 173.5 197 172.5 197 170.5 201 170.5 205 171.5 206 171.5 209 178.5 217 178.5 218 181.5 221 184.5 221M217.5 164 220.5 171 224.5 177 229.5 182 234.5 184 234.5 185 232.5 185 225.5 174 220.5 164 220.5 162 222.5 162 223.5 165 230.5 171 236.5 174 238.5 176 253.5 183 254.5 183 248.5 178 241.5 167 239.5 165 246.5 173 260.5 183 263.5 186 263.5 187 264.5 186M212.5 162 213.5 162 210.5 164 206.5 169 202.5 171 199.5 175 186.5 187 188.5 182 195.5 172 198.5 164 193.5 170 192.5 173 186.5 181 180.5 192M228.5 187 240.5 184 261.5 184M184.5 190 184.5 191 190.5 189 205.5 189 206.5 190 209.5 190 210.5 191M228.5 200 229.5 201 246.5 201 254.5 197 256.5 195 256.5 194M208.5 200 208.5 201 206.5 202 206.5 203 201.5 204 198.5 206 188.5 206 184.5 204M216.5 210 216.5 214 215.5 214 214.5 218 217.5 221 221.5 221 222.5 220M201.5 224 206.5 227 209.5 227 211.5 228 224.5 227 236.5 220 239.5 217 240.5 217 240.5 216 241.5 218 241.5 230 239.5 234 237.5 236 233.5 238 230.5 238 229.5 239 216.5 239 215.5 238 211.5 237 207.5 234 205.5 232 204.5 229 202.5 227 202.5 228M209.5 245 210.5 247 211.5 260 210.5 264 207.5 270M236.5 248 235.5 248 235.5 261 238.5 268 244.5 271 248.5 271M268.5 200 270.5 199 273.5 202 273.5 203M177.5 201 175.5 204 175.5 208 176.5 208M255.5 268 255.5 267 259.5 267 269.5 263 280.5 255 288.5 251 295.5 245 310.5 235 312.5 232 322.5 223 324.5 222 326.5 219 326.5 211 321.5 197 318.5 192 308.5 178 303.5 173 298.5 166 294.5 162 287.5 157 287.5 156 291.5 154 303.5 143 306.5 143 311.5 149 321.5 156 322.5 158 328.5 164 340.5 182 348.5 190 350.5 196 352.5 199 353.5 206 354.5 208 354.5 213 349.5 227 343.5 236 342.5 239 334.5 249 326.5 257 323.5 259 315.5 269 301.5 279 296.5 284 289.5 289M206.5 267 197.5 272 182.5 277 173.5 281 171.5 283 167.5 285 161.5 290 145.5 317 140.5 326 140.5 328 138.5 330 121.5 371 119.5 375 115.5 380 114.5 383 112.5 385 111.5 385 117.5 385 123.5 388 128.5 393 134.5 396 137.5 396 139.5 397 140.5 390 143.5 383 145.5 381 155.5 358 165.5 340 165.5 338 167.5 334 168.5 334 170.5 329 171.5 329M289.5 289 285.5 291 282.5 295 279.5 297 276.5 302 272.5 305 262.5 322 262.5 324 260.5 327 259.5 332 259.5 346 262.5 357 262.5 361 265.5 368 265.5 371 267.5 375 267.5 377 271.5 388 274.5 393 278.5 404 278.5 406 277.5 403 273.5 399 267.5 395 263.5 395 257.5 393 247.5 393 245.5 395 239.5 397 237.5 399 232.5 401 215.5 414 210.5 416 200.5 423 191.5 426 188.5 428 181.5 429 175.5 429 171.5 428 172.5 428 181.5 419 183.5 412 182.5 407 182.5 365 181.5 362 181.5 357 180.5 355 179.5 341 178.5 339 178.5 326 179.5 324 179.5 319 181.5 315 175.5 323 172.5 325 169.5 329 166.5 335M273.5 132 273.5 133 270.5 136 267.5 136M266.5 137 267.5 135 266.5 128M295.5 149 299.5 146 295.5 139 295.5 137 293.5 133 293.5 128 292.5 128 291.5 126 289.5 127 289.5 137 288.5 137 287.5 134 284.5 131 281.5 131 281.5 133 283.5 134M271.5 137 272.5 137 272.5 138 276.5 143M271.5 146 267.5 143 265.5 143 265.5 144 266.5 146 272.5 152 276.5 154 278.5 156 284.5 158 288.5 158M276.5 140 275.5 134 274.5 133M263.5 155 265.5 157 270.5 167 271.5 175 272.5 175 274.5 193M269.5 219 270.5 218 270.5 223 268.5 231 268.5 235 267.5 236 265.5 244 260.5 254 259.5 260 257.5 263 257.5 266 256.5 267 256.5 272 255.5 274 255.5 281 254.5 283 253.5 291 251.5 295 251.5 298 247.5 306 241.5 315 239.5 316 235.5 320 234.5 320 234.5 321 233.5 321 237.5 316 239.5 312 242.5 300 243.5 292 243.5 283 245.5 276 243.5 263 237.5 252 237.5 250 236.5 250 236.5 248M177.5 177 176.5 187 175.5 190M179.5 222 178.5 223 178.5 227 181.5 237 182.5 248 183.5 250 183.5 255 184.5 256 183.5 264 182.5 268 181.5 268 181.5 270 179.5 273 179.5 276M182.5 253 172.5 273 170.5 274 169.5 276 163.5 282 160.5 286 160.5 288 159.5 290 158.5 290 158.5 291M186.5 276 188.5 277 189.5 279 198.5 288 208.5 294 209.5 296 215.5 300 219.5 300 220.5 301 222.5 301 224.5 299 232.5 295 241.5 281 243.5 279 243.5 277M114.5 385 113.5 385 107.5 390 95.5 396 93.5 398 89.5 400 89.5 403 92.5 403 103.5 398 103.5 399 95.5 408 93.5 412 91.5 414 91.5 416 93.5 416 96.5 414 104.5 406 104.5 405 105.5 405 100.5 416 98.5 418 97.5 422 99.5 422 104.5 418 108.5 409 109.5 409 109.5 411 104.5 425 106.5 425 110.5 423 116.5 412 115.5 416 115.5 421 114.5 423 114.5 427 115.5 427 121.5 419 122.5 411 124.5 405 124.5 401 125.5 398 126.5 398M183.5 427 183.5 442 182.5 444 182.5 452 179.5 464 179.5 467 168.5 509 166.5 513 164.5 521 156.5 542 152.5 549 152.5 551 153.5 552 159.5 551 170.5 551 174.5 552 180.5 552 203.5 560 211.5 560 210.5 554 210.5 539 214.5 517 216.5 492 218.5 486 219.5 479 219.5 471 223.5 445 223.5 436 224.5 431 227.5 423 230.5 423 231.5 424 232.5 428 232.5 432 235.5 447 237.5 470 240.5 479 243.5 492 245.5 514 246.5 518 246.5 527 247.5 530 247.5 556 256.5 551 264.5 550 267.5 548 281.5 544 288.5 543 299.5 543 303.5 542 307.5 540 308.5 538 307.5 537 306.5 530 302.5 515 298.5 506 294.5 490 293.5 489 293.5 486 292.5 485 291.5 477 287.5 461 286.5 460 285.5 454 283.5 450 282.5 444 281.5 443 278.5 429 277.5 429 276.5 423 275.5 422 272.5 413 272.5 411 271.5 410 270.5 403M162.5 552 162.5 553 161.5 553 161.5 554 159.5 554 159.5 555 153.5 556 147.5 559 138.5 560 131.5 564 125.5 569 125.5 573 126.5 573 126.5 574 142.5 578 169.5 579 170.5 580 177.5 580 178.5 579 180.5 579 185.5 576 190.5 571 193.5 566 195.5 555 196.5 555M254.5 555 254.5 558 256.5 564 260.5 569 265.5 571 269.5 571 285.5 565 290.5 565 298.5 563 316.5 556 324.5 552 326.5 550 326.5 547 324.5 545 322.5 545 321.5 544 310.5 544 306.5 542M309.5 545 309.5 544 315.5 544 316.5 545 316.5 547 315.5 548 312.5 548 316.5 549 317.5 551 309.5 552 309.5 553 308.5 553 310.5 553 310.5 554 308.5 555 305.5 555 304.5 556 301.5 556 300.5 557 292.5 558 289.5 560 283.5 560 281.5 561 278.5 561 277.5 562 273.5 563 272.5 564 270.5 564 269.5 565 263.5 565M141.5 559 141.5 560 135.5 561 133.5 563 133.5 565 134.5 566 139.5 565 138.5 566 135.5 566 132.5 569 132.5 570 136.5 570 136.5 569 134.5 570 134.5 572 150.5 573 151.5 574 158.5 574 159.5 575 163.5 576 175.5 576 176.5 575 179.5 575 180.5 574 183.5 574 185.5 573 190.5 568M212.5 232 213.5 233 216.5 233 216.5 232 226.5 232 228.5 230 231.5 230 238.5 225M224.5 237 227.5 236 231.5 236 232.5 234 234.5 233 234.5 234 237.5 234 239.5 233" fill="none" stroke="black" stroke-width="2" /></svg>