<?xml version="1.0" encoding="utf-8" ?>
<svg baseProfile="full" height="757" version="1.1" width="535" xmlns="http://www.w3.org/2000/svg" xmlns:ev="http://www.w3.org/2001/xml-events" xmlns:xlink="http://www.w3.org/1999/xlink"><defs /><rect fill="white" height="757" width="535" x="0" y="0" /><path d="M240.34 402.77 237.39 420.38 233.96 420.73 227.17 440.12 225.98 448.98 228.17 440 223.38 426.05 218.54 436.51 226.16 448.33 234.49 442.31 229.29 431.55 217.77 431.67 211.33 412.64 210.44 413.94 211.98 422.92 216.71 428 216.06 415.77 212.04 414.82 216.88 434.5 224.03 448.57 233.79 444.73 235.56 436.93 237.74 444.43 243.06 444.67 250.63 429.42 250.45 426.23 250.63 433.68 254.76 435.86 257.84 419.97M219.9 440.3 242.35 445.08 255.59 441.01 257.84 424.69 254.29 416.54M258.19 351.23 259.91 365.48 260.14 428.24 261.21 426.11M261.38 379.25 259.43 388.94 254.76 430.43 254.11 442.36M267.47 278.66 264.04 291.78 263.33 302.36 263.87 378.3 262.09 392.25M248.03 244.91 246.85 270.21 241.59 320.68 236.39 426.64 235.56 432.55 235.5 417.07 239.99 350.23 242.47 326 251.34 279.19 246.73 387.28 244.72 409.39 247.38 343.26 254.82 283.57 252.76 328.13 245.72 407.56M248.56 273.22 268.3 276.47 282.01 276.77 297.67 275.41 339.27 264.89 351.03 252.3 311.08 241.66 273.14 240.54 273.08 241.55 292.88 244.09 306.18 244.03 337.21 236.4 341.64 232.39M265.64 268.73 247.73 271.75 216.11 271.45 166.95 265.95 121.85 267.9 103.89 266.31 111.04 263.89 183.67 265.36 204.24 264.89M245.07 253.07 241.05 303.84 236.86 316.6 234.85 308.03 233.43 252.3 233.84 231.5 239.46 203.13 241.47 208.81 244.3 248.34M260.26 231.26 265.99 247.46 266.41 266.9 258.43 307.5 256.83 237.35 259.85 217.85 263.69 245.98 259.08 314.42M239.75 220.09 268.36 221.16 338.68 217.73 352.98 213.89 302.34 218.44 292.35 220.51 285.14 223.05 292.23 224.41 339.63 225.06 425.14 224.64M219.13 237.41 210.09 231.5 199.86 232.27 166.47 232.44 224.86 238.3 262.74 234.22 217 219.15 124.46 212.11 86.51 210.58M87.7 166.61 133.38 125.83 154.18 112.83 223.97 73.17M166.41 104.61 199.39 93.44 251.69 83.04 266.23 77.96M220.84 89.07 283.6 83.69 318.18 84.4M293.12 79.5 325.56 104.08 344.36 112.47 389.33 135.52 397.54 142.08 404.87 150.12M389.09 144.68 377.86 141.91 387.91 154.67 423.13 187.12 438.85 203.07M383.01 222.22 417.75 225.83 434.01 225.71 481.99 215.96M375.44 158.39 324.44 131.74 277.46 117.38M202.52 100.89 194.07 101.6 156.9 116.49M253.64 98.64 214.05 107.21 197.03 116.08 144.67 174.41 141.65 185.64M240.34 94.8 249.15 99.65 279.35 122.52 284.96 132.04 293.89 173.88 294.6 185.05M275.51 85.23 289.99 97.46 299.38 104.26 351.74 160.76 371.95 203.9M226.63 130.09 220.37 136.88 214.11 187.53 221.49 226.53M282.42 123.64 290.52 144.39 316.93 193.26M441.45 107.57 434.83 121.16 437.08 180.38M173.21 100.77 172.15 99.41 158.32 105.09 151.52 109.22 127.23 140.01 104.95 170.1 85.33 210.7 95.62 187.41 104.07 174.29 168.25 98.88 155.42 106.39 103.06 150.59 65.59 231.97 71.15 216.84 62.46 210.99 56.91 249.47 152.59 241.78 209.61 232.27 122.5 237.17 157.43 228.9 250.75 211.94 198.8 209.04 167.12 219.44 284.25 221.1 327.69 225.59 269.36 212.76 415.75 195.15 483.59 194.33 517.27 192.26 510.12 179.2M254.88 102.78 255 99.29 217.24 104.44 138.11 192.2 129.3 211.41 128.65 228.72M223.92 102.19 231.66 121.81 230.65 142.79 234.55 220.8M254.11 108.87 268.71 114.54 281.36 142.73 314.39 127.6 332.3 137 343.35 150.06 361.79 184.93" fill="none" stroke="black" stroke-width="2" /></svg>