<?xml version="1.0" encoding="utf-8" ?>
<svg baseProfile="full" height="757" version="1.1" width="535" xmlns="http://www.w3.org/2000/svg" xmlns:ev="http://www.w3.org/2001/xml-events" xmlns:xlink="http://www.w3.org/1999/xlink"><defs /><rect fill="white" height="757" width="535" x="0" y="0" /><path d="M403.34 258.33 402.86 250.17 399.97 247.87 394.83 245.8 385.78 243.79 372.9 242.61 359.48 243.14 348.02 246.87 337.32 254.25 327.51 265.36 311.85 298.69 306.24 319.5 302.22 341.6 301.57 364.24 311.26 408.68 337.32 437.46 356.23 443.19 378.04 441.77 419.17 419.43 434.95 400.94 448.43 379.19 458.3 354.84 461.19 330.14 445.29 281.38 421.77 258.51 401.09 249.7 388.15 254.13M352.33 440.18 351.92 452.94 349.85 470.5 352.04 443.31 351.21 436.4 347.84 470.26 348.37 470.79M385.19 436.69 385.49 470.5 386.2 452.18 387.38 443.43 388.09 442.25 388.68 448.27 388.03 465.12M300.8 451.7 311.79 458.2 342.17 479.83 344.24 480.42 343.53 478.53 340.1 476.17 315.28 466.77 297.26 457.85 296.61 457.14 298.2 457.26 302.99 459.5 342.64 479.6 346.84 484.44M293.47 450.76 312.03 461.99 322.67 470.2 316.76 463.29 301.75 451.17 292.23 447.15M277.4 417.42 280.71 441.95 283.72 453.48 285.26 455.9 287.68 450.7 288.27 442.72 288.21 434.56 283.78 424.1 291.76 463.58 292.47 446.38M279.05 418.84 270.66 414.77 252.28 413.47 242.06 414.94M270.37 408.74 255.36 405.43 245.6 406.37 236.44 409.74 220.96 417.9 220.84 418.61 230.65 420.73M246.85 405.9 243.71 405.66 240.7 408.21 236.39 422.98 235.03 432.73 234.79 442.07 235.74 449.81 237.86 454.72 240.11 456.02 242.3 453.24 243.83 446.5 242.47 429.54 239.81 423.57 236.62 421.56 233.19 429.3 232.96 438.46 235.79 462.28 237.92 474.28 240.7 479.72 240.7 463.58 238.69 452.77 235.14 444.02 232.37 440.77 231.89 442.9 232.54 450.7 237.51 469.37 240.46 477.35 245.19 483.26M225.39 406.2 229.23 421.44 233.84 447.39 237.92 464.65 238.93 465.12 239.16 460.09 234.85 439.88 230.18 429.84 225.98 424.34 224.86 425.34 225.27 433.62 235.2 477.59 239.69 490M224.21 477.35 230.53 488.58 243.36 507.67 250.69 515.88 257.25 518.13 266.35 513.4M235.62 492.36 243.24 499.45 263.45 509.74 272.79 513.05 281 513.34 290.4 509.44 289.57 507.31M234.44 478.95 242.95 485.21 276.22 502.17 285.61 504.48 296.07 505.13 296.25 504 285.97 497.74M255.71 489.17 260.5 496.2 268.42 501.23 291.52 509.56 303.17 510.98 311.91 510.45 317.47 506.66 313.8 503.89M271.08 498.04 279.88 502.17 292.11 504.71 306.59 506.72 326.45 506.49M303.34 496.5 321.13 507.79 324.97 509.03M317.53 501.11 312.38 512.16 304.23 564.11 300.03 578.53 299.32 578.17 299.5 573.56 310.97 517.36 315.63 498.21 314.98 505.42 290.99 612.92 289.87 610.03 289.34 600.93 291.82 586.74 304.11 546.44 311.44 526.64 317.41 514.29 317.29 521.32 314.69 535.74 305.59 576.28 299.09 597.44 293.53 612.04M280.41 612.75 292.82 618.89 320.19 620.84 338.09 620.96 354.82 619.6 382.77 614.11 391.69 613.04 404.04 613.16 354.4 616.41 337.5 620.02 334.01 622.56 339.21 627.34 348.97 628.11 363.03 627.76 396.01 621.73 425.73 613.57 411.08 613.16 385.13 616.65 379.93 620.31 382.47 626.58 388.86 627.29 397.66 624.98 416.81 615.29 424.85 608.49M407.65 521.38 411.02 531.19 415.21 557.08 422.31 587.1 425.73 596.2 427.68 596.32 413.91 550.4 411.9 536.45 414.68 519.55 416.45 518.84 417.46 532.02 421.83 564.52 426.8 596.49 429.22 602.11 428.75 597.26 426.09 587.28 413.26 543.96 410.78 530.54 411.96 520.2 412.91 536.21 414.86 551.05 421.48 587.45 424.43 598.74 426.32 601.7 425.02 593.89 418.7 563.87 414.62 539.58 415.98 545.55 422.54 598.86M404.4 518.54 415.63 520.91 425.08 517.12 428.1 513.46 411.67 507.96 411.43 509.62 415.04 520.26 419.71 525.75 421.3 526.4 424.26 523.39 424.61 517.83 422.19 514.47 420.77 516.24 423.78 530.07 428.39 541.95 422.6 519.73 427.15 529.12 433.18 544.67 438.79 565.17 438.5 561.63 435.31 550.4M390.27 470.2 402.92 471.97 421.66 466.54 431.29 466.77 431.7 466.06 430.76 465.47 425.79 467.48 421.06 467.13M403.45 476.29 413.97 478.42 418.94 480.25 422.25 482.61 426.62 492.6 423.66 471.68 422.19 467.36 432 499.75 438.38 525.87 443.7 542.06 442.75 539.94 441.22 523.39 443.76 507.96 445.29 506.96 447.6 510.86 456.05 549.39 459.36 569.01 459.18 569.66 454.93 565.94 453.33 563.22 449.9 562.16M411.08 580.95 423.31 582.25 440.86 580.24 448.07 577.82 455.1 572.38 451.97 570.31 441.57 570.37 440.51 572.38 446.42 577.17 450.55 577.05 457.65 571.32 459.95 563.4 459 560.03 452.27 558.49 444.17 561.04 429.16 568.01 427.03 571.85 428.1 572.44 432.06 568.54 433.3 559.5M432.17 506.49 427.15 483.38 423.9 460.39 427.09 463.64 429.93 472.74 441.69 532.55 452.33 564.23 455.64 568.01 453.98 557.49 440.15 528.59 443.17 536.51 445.77 549.16M286.44 610.74 286.09 620.78 288.04 645.84 287.74 676.46 286.26 696.67 284.85 702.22 283.66 693.59 286.32 673.8 288.86 665.17 290.46 653.64 291.4 673.97 289.69 702.05 284.79 729.82 282.24 738.81 279.59 739.81 271.55 739.75 264.1 747.97 264.1 755.83 266.94 758.07 284.79 755.47 328.05 745.31 347.37 745.01 347.49 743.77 345.12 742.77 340.46 743.06 338.33 745.84 338.39 747.26 338.92 746.96 349.32 715.34 352.04 703.35 353.22 689.69 355.47 685.32 354.4 708.96 353.52 707.54 353.34 701.81 355.94 682.9 363.21 654.71 362.85 660.09 362.2 659.61 363.68 664.52 364.8 675.51 365.34 714.34 366.1 718.06 362.79 702.22 363.98 691.7 365.57 693.89 367.94 718.3 370.77 732.66 372.49 734.79 382.89 735.85 390.69 735.38 395 734.25 411.31 725.33 416.45 723.68 419.76 721.61 423.37 716.41 423.13 675.27 421.6 647.14 422.42 633.55 424.43 632.9 426.97 648.5 430.28 703.05 425.73 664.16 425.26 651.58 426.32 624.04 428.69 619.31 429.57 624.33 430.58 655.95 430.93 697.67 434.95 698.8 433.77 671.08 430.05 652.17 426.15 626.16 425.61 657.66M385.96 730.95 393.35 736.86 393.11 735.08 391.34 734.02 384.66 734.37 374.55 739.93 369.3 746.78 368.11 750.03 369 753.7 376.09 757.48 387.91 752.1 404.4 739.99 404.99 736.62 396.66 735.79 383.36 741.35 379.87 745.19 379.87 751.39 388.5 753.46 404.87 748.14 419.35 739.81 427.39 732.78 423.61 724.8 417.16 715.34 416.22 710.73 423.66 747.67 423.9 733.37 422.96 718.71 426.44 723.79 429.28 741.35 429.75 749.98 428.16 758.66M286.03 737.27 268.12 741.46 263.22 752.69 269.07 763.98 277.16 766.23 288.39 764.57 313.57 750.45 324.91 742 322.19 741.46 314.22 749.44 318.71 763.8 336.73 770.13 348.79 767.11 362.68 759.31M310.79 332.91 308.9 344.91 308.9 348.4 309.84 350.11 310.49 349.4M311.68 335.51 312.62 350.23 313.57 344.32 317.35 332.68 319.24 336.64 323.73 341.9 330.88 343.61 334.6 340.18M342.41 327.18 344.47 342.49 346.78 346.33M338.03 293.38 330.23 301.18 326.04 317.13 325.21 323.46 325.86 322.28M337.21 266.07 333.07 287.05 328.81 316.54M351.45 276.95 357.42 295.56 361.38 323.93 364.09 331.73M383.89 283.39 392.4 300.23 396.48 312.05M348.79 304.25 353.34 329.01 358.72 331.08 364.21 327.65M348.08 284.87 350.27 301.59 353.04 310.1 356.41 314.18 360.37 311.46M346.42 285.52 352.33 297.34 361.2 304.07 374.73 310.69M402.92 285.93 408.06 295.86 419 313.12M374.73 294.14 379.7 319.85 384.13 329.49M363.62 336.58 385.13 350.82 396.3 354.54 410.07 353.07M381.17 332.97 419.59 347.69 429.99 348.52M414.39 287.29 438.08 324.58 451.03 330.96M418.82 281.62 421.3 298.16 436.08 324.64 438.56 322.1M403.87 266.49 420.3 293.55 421.18 296.8M365.87 264.18 360.79 274.17 365.57 282.15 378.22 294.79 389.15 291.48 392.93 286.88M338.21 335.16 346.6 345.44 351.51 341.66 349.91 338.59 357.18 346.92 360.84 357.2 363.86 345.97 366.22 342.61 370.18 347.57 374.97 346.92 389.33 337.23 395.89 338.29 406.59 353.42 409.72 347.45 416.81 328.66 420.18 332.38 423.01 343.91 428.39 353.66 433.42 345.62 440.68 338.05 445.41 350.94 450.14 355.84 452.92 348.93 453.69 342.31 454.63 354.9M388.92 270.98 384.36 291.01 385.84 301.89 389.27 312.52M372.37 280.37 372.72 289.42 379.05 302.42 386.79 321.09M404.99 290.42 408.95 293.91 419.11 308.92 424.55 329.19 428.16 337.05M350.03 251.89 344.24 257.98 331.95 280.55 329.58 286.58M326.57 272.34 318.24 291.25 316.11 300.94 315.4 310.63M367.23 270.68 358.48 290.72 351.39 317.19M319.59 290.42 312.27 304.84 310.79 312.82 310.61 322.57M310.26 281.38 307.07 297.04 306.95 307.5 309.67 324.4 311.26 305.61M312.15 280.14 314.33 304.31 317.35 308.39 318.29 299.82 319.18 260.46 322.43 251.89 336.73 264.18 337.8 262.76M337.03 244.09 336.5 263.29 336.97 279.9M316.7 259.22 337.8 267.08 348.79 267.31 367.17 259.93M364.09 239.54 360.08 253.31 362.5 261.76 366.1 270.5 371.54 277.66M343.17 249.52 364.09 269.2 369.41 271.1 373.61 267.25M362.44 240.25 368.88 259.69 374.55 266.55 381.71 269.44M380.46 239.71 383.36 251.36 387.97 260.16 405.64 280.32M417.52 247.04 432.77 265.78 443.82 286.7M437.49 285.34 452.92 306.44 457.23 309.21M458.95 289.65 458.83 309.81 457.7 316.13 456.17 317.84M397.72 300.7 401.8 312.29 413.32 324.76 417.64 324.17M398.61 301 401.09 311.93 405.58 319.32 421.83 333.86 423.19 331.73M413.62 298.16 427.62 321.51 430.4 324.34M445.06 290.66 457.53 326 458 330.08 458.59 329.01M454.22 306.56 457.94 337.52 448.84 348.4M398.55 283.33 400.08 296.39 402.8 302.42 404.64 303.72 405.23 299.64M387.62 259.81 385.31 259.45 384.31 273.93 397.25 292.9M299.91 307.68 316.88 334.98 324.32 340.66 332 338.41M321.84 289.59 320.42 298.04 325.92 307.21 342.11 325.35M301.98 291.96 323.14 329.07 331.53 324.7 336.08 319.08M346.19 251.89 348.37 240.01 354.7 261.7 356.18 271.51M369.59 215.42 375.74 245.15 381.06 277.3M411.67 254.78 409.13 303.07 409.54 306.61M424.73 273.4 422.13 284.51 420.06 310.22M435.6 300.05 437.73 314.83 437.32 315.42 436.78 314.77M423.78 290.95 419.65 300.82 420.41 325.17 419.17 325.53M393.76 299.94 377.98 289.89 369.71 302.65 373.55 311.28 390.39 316.07M396.6 291.78 402.63 295.5 418.64 322.33 423.61 323.81M423.49 293.91 410.43 311.05 409.19 322.04M382.06 305.85 370 314.83 361.85 333.86M342.82 291.25 357.95 311.22 362.5 311.34M382.89 267.67 381.94 279.19 398.73 316.37M242.53 367.31 243.3 377.36 241.11 406.31 241.23 419.91 241.17 405.49 244.01 385.45 244.42 375.41 244.36 384.57 242.77 409.39 240.99 419.55 242 408.09 245.6 389.77M323.26 372.75 353.46 370.97 355.76 368.73M380.64 370.26 409.48 370.91 415.15 372.16M336.67 411.75 345.24 409.39 374.91 408.32 381.06 406.85M275.92 412.7 262.51 398.63 267.29 415.42 269.01 416.18 269.13 401.47 266.52 396.92 247.26 404.01 246.79 408.97 261.15 391.54 253.41 375.52 216.59 400.17M444.59 563.75 428.81 578.77 435.07 591.06 455.87 571.61 427.86 584.91 426.97 590.05 446.89 590.64 439.68 576.4 441.39 595.49 451.85 568.84 433.77 593.13 454.69 571.02 433.71 589.76 456.58 581.66 441.1 582.55 459.95 580.66 437.61 585.15 449.08 595.61 453.92 571.85 446.18 598.09 460.19 568.66 431.41 594.84 462.08 585.92 434.6 583.79 456.23 602.05 465.68 573.68 452.86 599.21 474.07 584.85M319.77 506.49 309.9 534.26 296.55 591.71 317.17 503.71 300.98 555.78 293.3 585.38 297.31 565.94 309.67 519.55 289.51 619.01M241.64 473.92 274.27 502.88 281 507.43 252.34 484.09 239.99 490.35 255.77 496.5 305.82 496.26 240.52 487.04 239.81 489.47 302.57 513.93 328.52 509.21M332.95 481.25 347.61 483.67 353.22 480.66 344.59 469.08 337.8 471.56 332.65 481.31 335.02 471.86 321.78 479.72M342.52 472.21 348.91 479.48 353.52 479.24 353.52 474.87 348.55 475.11 357.18 480.01 364.98 479.77 369.71 474.57 362.03 473.92 360.49 481.9 361.79 470.73 353.28 473.57 366.04 487.16M357.18 467.84 370.83 468.13 362.5 471.32 361.73 474.34 384.13 475.46 388.21 468.6 380.64 480.54 385.78 480.13 400.79 470.2M303.93 615.7 290.75 642.89 289.99 689.64 285.44 628.11 283.43 631.13 281.77 728.76 283.72 705.3M291.64 605.77 284.31 638.93 292.59 614.7 294.36 607.31 289.75 628.94 290.87 628.05 294.6 616.71 292.88 622.08 300.45 611.15 298.38 628.47 305.06 626.93 306.47 619.96 303.52 631.72 308.01 621.49 312.8 621.26 315.28 619.48 318.41 622.68 324.62 615.23 324.91 618.48 323.44 625.28 325.09 617.83 323.61 627.34 332.36 619.07 335.43 626.52 343.11 619.78 346.9 618.54 348.79 621.97 352.45 614.05 351.68 627.64 363.27 611.57 364.21 624.15 371.01 614.4 369.95 617.36 376.03 610.03 376.09 622.79 387.02 610.97 387.62 625.99 397.72 612.04 398.25 622.68 403.39 620.55 408.95 616 409.48 625.45 419.06 612.27 419.06 620.73 423.72 613.1 424.73 609.79 424.73 625.51 425.44 598.86 429.46 629.41 425.2 589.4 428.39 634.08 428.33 589.23 431.11 611.27 421.77 603.05 432.12 598.68 430.87 607.9 428.87 595.02 429.28 608.26 431.17 589.23 424.08 530.84 412.73 526.11 427.33 515.59 418.7 515.29 412.08 522.03 413.62 512.87 418.35 532.25 421.42 519.73 424.67 575.69 421.77 531.19 432.29 573.86 445.53 551.64 442.93 574.92 444.35 547.68 447.84 575.87 452.03 542.66 452.92 568.13 440.8 520.2 441.75 551.82 419.65 477.88 415.39 478.24M370.48 476.76 392.87 477.82 406.47 476.17 409.6 471.8 382.89 475.87 432.94 458.5 431.29 458.2 387.5 474.4 388.15 478.36 404.52 471.62 377.69 462.34 422.25 472.98 417.58 471.97 422.42 495.08 424.08 478 422.96 486.63 436.96 485.15 419.29 483.85M291.46 613.4 302.69 613.1 289.75 617.65 294.48 619.54 337.26 612.22 295.19 621.08 296.96 623.03 359.96 620.78 364.15 622.32 305.47 619.66 328.1 621.85 372.01 622.14 303.76 622.62 374.67 613.16 358.13 612.98 348.08 618.42 403.28 612.04 362.2 627.76 425.5 606.6 391.57 631.9 436.25 611.39M361.91 657.54 361.55 656.48 352.63 671.85 348.79 686.15 339.45 730.95 339.98 725.09 345.6 700.45M356.83 669.36 335.43 735.26 323.49 766.52M352.22 666.76 373.14 747.73 376.98 751.98M385.61 729.94 351.68 752.16 349.56 758.84 395.12 756.36 407.83 749.74 411.79 729.76 401.68 731.71 394.71 760.79 405.23 756.18 423.25 721.96 411.43 722.97 389.15 756.54 400.85 751.39 417.64 717.88 393.76 754.82 422.07 713.87M328.46 728.76 271.37 738.75 254.35 755.53 307.66 753.64 284.31 740.93 264.52 748.67 286.26 766.17 307.01 759.73 296.84 732.36 337.5 752.63 345.54 707.19" fill="none" stroke="black" stroke-width="2" /></svg>