<?xml version="1.0" encoding="utf-8" ?>
<svg baseProfile="full" height="757" version="1.1" width="535" xmlns="http://www.w3.org/2000/svg" xmlns:ev="http://www.w3.org/2001/xml-events" xmlns:xlink="http://www.w3.org/1999/xlink"><defs /><rect fill="white" height="757" width="535" x="0" y="0" /><path d="M58.56 63.6 59.57 80.74 61.46 87.65M92.07 52.9 90.71 68.5 93.72 85.35M129.54 74.83 129.48 84.11 134.97 104.73M220.07 67.97 220.49 91.49 223.27 106.92M297.43 78.55 295.36 89.01 299.68 120.04M315.99 70.93 314.22 94.74 316.17 109.76M346.37 70.1 346.31 81.33 347.67 100.83 349.62 110.88M387.14 70.75 384.84 86 386.55 103.61M416.51 71.52 412.44 80.68 412.38 100.3 417.87 122.99M442.1 71.4 440.68 85.11 445.59 113.83M467.28 65.25 468.34 83.28 472.77 106.45M423.31 141.91 417.75 149.23 416.87 166.19 420.65 181.44M363.74 128.25 356.83 153.19 357.95 164.89M298.08 119.8 291.35 155.03 292.71 160.88M242.71 122.05 239.04 133.04 243.3 158.57M134.97 110.17 132.61 134.58 137.52 155.91M96.56 96.87 93.07 109.46 99.04 148.82M56.37 178.31 54.19 188.95 58.38 211.46M59.45 187.94 55.31 207.09 61.58 233.15M102.53 176.06 99.04 189.89 100.64 208.45 111.04 240.25M133.14 156.27 130.96 183.39 138.87 221.39M165.05 165.07 162.34 188.48 171.32 227.42M202.23 178.25 201.99 189.72 205.6 216.67M218.6 188.12 221.37 206.5 224.21 218.62M285.5 152.42 282.01 176.95 287.92 202.6 292.71 216.13M270.43 119.92 262.09 144.03 262.21 173.46M201.87 133.87 192 143.56 190.53 175.65M164.82 117.85 158.02 138.06 158.14 170.39M176.93 113.24 182.31 159.16 191.53 184.69M244.01 135.35 243.89 158.45 253.17 200.3M307.54 152.66 307.42 162.35 315.28 220.51M349.38 157.27 349.38 166.73 353.75 212.94M431.64 119.21 430.17 130.38 432.53 184.57M469.64 121.4 472.83 149.47 478.68 189.42M503.74 102.25 501.73 116.85 500.08 152.9M437.85 148.82 429.28 180.08 433.12 219.62M451.38 149.53 448.49 157.09 446.59 190.72M347.72 102.78 339.75 111.71 336.79 141.14 340.75 184.16M309.02 128.55 304.94 157.63 306.3 198.58M305.82 135.17 300.27 149.94 296.31 218.73M232.66 151.77 221.55 203.49 224.21 236.94M186.68 164.54 181.37 184.57 185.38 232.27M160.56 174.88 145.55 208.39 149.04 251.53M125.11 153.02 117.19 168.2 125.58 235.1M91.54 128.96 85.04 158.45 86.57 197.16 91.24 233.04M60.22 155.44 50.64 197.1 55.37 239 60.16 263.65M54.66 200.71 54.6 203.01 71.98 289.12M127.59 229.84 124.22 239.24 124.28 263.89 129.48 295.27 139.05 325.17M159.97 223.23 157.85 284.87 165.41 315.18M195.02 242.91 188.63 301.65 194.43 331.32M236.44 215.66 230.77 244.5 237.63 311.76M268.77 231.79 260.73 268.26 264.52 327.42M470.65 214.01 466.98 222.75 462.02 277.3M462.08 204.14 458.89 281.38 459.71 292.73M350.68 229.9 343.41 237.47 333.01 282.38M230.77 233.98 222.08 258.92 218.42 306.5M156.84 240.84 150.4 250.23 145.02 314.47M87.7 246.75 79.3 297.51 83.74 330.25M69.61 230.08 65 267.96 68.79 310.28 72.15 333.5M65 207.68 54.19 257.92 56.32 302.65M77.53 232.15 69.14 290.66 73.34 327.71M91.6 248.34 88.17 267.25 89.29 313.29M112.1 255.79 110.74 323.99 115.59 348.4M212.21 201.24 211.98 209.46 219.54 306.73M296.43 207.15 292.76 213.24 292 300.35M400.32 154.61 392.28 235.64 393.29 247.93M335.67 97.46 327.87 101.66 288.86 173.76M156.54 37 146.97 58.1 144.55 98.41 147.33 137.83M305.71 30.44 282.84 73 277.04 155.38M346.96 49.53 345.66 62.24 348.02 146.04M417.93 76.13 414.03 87.3 407.59 167.79M475.26 71.52 466.57 94.63 459.12 168.85M444.29 213.53 441.1 217.02 432.12 266.25M181.54 157.03 180.18 160.46 175.63 230.61M129.95 122.05 112.46 166.84 114.94 238.41M466.86 218.79 466.16 221.69 465.27 290.3M74.7 360.45 71.09 367.66 69.32 385.98M69.49 434.27 66.07 448.57 70.09 467.42M60.1 467.3 61.52 506.72 66.24 521.03M80.84 360.75 78.6 378.42 82.91 401.7M114.82 352.59 114.53 370.26 116.77 419.43M127.11 343.67 125.58 357.32 123.39 422.39M165.47 374.87 162.69 392.31 161.21 415.53M259.08 311.4 248.74 322.1 239.04 386.99M253.58 369.73 249.92 375.88 250.98 376M300.98 368.73 298.44 372.39 296.01 379.19M255.59 381.26 255 382.02 255.47 394.44M254.65 383.21 253.41 387.11 254.23 387.93M223.68 476.35 223.56 475.64 224.27 476.23M338.33 289.59 319 355.9 322.37 431.73 323.85 439.94M371.54 287.29 346.6 431.25 348.61 476.76M413.26 268.79 367.64 480.01 369.59 486.69M443.46 260.52 398.25 453.36 402.63 523.45 408.24 537.93M448.96 327.24 445.06 342.96 443.46 544.07M494.23 290.54 480.93 346.86 482.41 479.18M484.48 349.87 482.23 414.77 484.83 439.65M504.81 279.61 496.3 304.19 487.9 498.27M452.74 286.82 440.68 311.22 436.19 464.35M452.8 332.85 440.74 352.06 422.25 501.64M363.62 408.68 354.17 438.23 363.68 563.34M372.55 410.75 368.41 422.45 366.04 567.12M420.06 375.35 417.1 384.74 402.69 496.68M448.01 387.23 446.24 396.8 456.52 558.61M477.56 370.09 475.73 378.95 473.66 575.75M490.74 427.47 484.83 482.79 494.94 584.73M166.3 461.87 158.91 474.69 158.2 562.51M157.31 386.1 100.99 542.42 102.71 558.38M408.06 293.26 395.3 307.44 359.48 405.25M375.68 475.81 368.05 487.69 364.86 508.08M340.69 385.16 329.29 406.61 322.67 483.56M230.59 382.91 219.54 402.47 222.91 470.26M226.99 374.58 224.51 384.45 225.69 442.84M191.12 518.19 184.85 525.64 184.2 528.77M410.84 506.96 406.82 529.65 405.34 564.23M441.16 396.27 431.35 437.93 429.04 472.27" fill="none" stroke="black" stroke-width="2" /></svg>