<?xml version="1.0" encoding="utf-8" ?>
<svg baseProfile="full" height="757" version="1.1" width="535" xmlns="http://www.w3.org/2000/svg" xmlns:ev="http://www.w3.org/2001/xml-events" xmlns:xlink="http://www.w3.org/1999/xlink"><defs /><rect fill="white" height="757" width="535" x="0" y="0" /><path d="M182.5 387 183.5 381 183.5 349 184.5 346 184.5 339 185.5 337 185.5 328 187.5 320 187.5 315 188.5 313 189.5 306 189.5 289 191.5 280 191.5 270 192.5 267 192.5 259 193.5 256 193.5 246 194.5 246 194.5 245M190.5 245 192.5 246 192.5 248 188.5 270 185.5 300 185.5 325 184.5 328 184.5 342 183.5 345 183.5 382 182.5 385 182.5 386 183.5 386M188.5 249 185.5 266 183.5 293 182.5 351 180.5 374 179.5 377 178.5 390 177.5 393 177.5 394 178.5 392M194.5 249 188.5 270 186.5 290 185.5 326 184.5 329 184.5 360 182.5 369 182.5 385 184.5 384M193.5 252 189.5 265 188.5 275 188.5 294 187.5 303 186.5 347 183.5 375M195.5 250 195.5 248 196.5 248 192.5 266 187.5 304 187.5 317 186.5 323 186.5 343 185.5 348 185.5 359 184.5 364 184.5 376 183.5 380 183.5 391 183.5 387 186.5 375 188.5 349 188.5 315 189.5 312 189.5 303 190.5 299 190.5 281 192.5 275 194.5 249 195.5 249 195.5 248 195.5 252 193.5 259 186.5 340 187.5 345 187.5 354 186.5 358 186.5 374M191.5 251 190.5 253 190.5 259 188.5 273 188.5 281 186.5 292 184.5 298 180.5 333 180.5 345 178.5 366 178.5 385 179.5 384M190.5 238 188.5 239 188.5 266 187.5 270 187.5 264M189.5 240 190.5 240 191.5 244 191.5 267 190.5 272 189.5 304 184.5 334 184.5 352 182.5 365 182.5 385 183.5 386M190.5 238 190.5 258 182.5 313 182.5 317 178.5 337 178.5 351 177.5 355 177.5 376 176.5 379 176.5 384 177.5 386M193.5 239 193.5 238 192.5 238 194.5 237 194.5 242 192.5 258 192.5 267M197.5 238 197.5 246 195.5 263 195.5 259 194.5 256 194.5 247 195.5 243 196.5 242 196.5 239 197.5 239 197.5 243 195.5 251 195.5 257 193.5 267 193.5 295 192.5 298 192.5 304 191.5 306 190.5 323 189.5 327 189.5 336 188.5 339 188.5 358 187.5 359 187.5 379 186.5 383 186.5 394M196.5 245 196.5 250 198.5 259 198.5 277 196.5 289 196.5 295 194.5 305 193.5 330 189.5 356 188.5 373 187.5 377 187.5 385M63.5 237 68.5 233 82.5 225 104.5 220 115.5 220 125.5 225 134.5 228 134.5 229M143.5 232 143.5 230 146.5 227 151.5 224 159.5 221 177.5 221 196.5 224 207.5 227 210.5 229 217.5 231 220.5 234 220.5 235M233.5 234 232.5 232 233.5 230 239.5 227 243.5 226 281.5 226 291.5 227 297.5 228 304.5 230 305.5 231 309.5 231 313.5 233 313.5 234M52.5 235 52.5 234 51.5 234 57.5 226 67.5 216 72.5 208 94.5 182 98.5 179 98.5 178 104.5 174 116.5 161 121.5 158 124.5 155 133.5 151 137.5 147 151.5 139 153.5 139 155.5 137 170.5 131 173.5 131 180.5 129 185.5 129 187.5 128 206.5 128 211.5 130 214.5 130 223.5 133 230.5 136 232.5 138 239.5 140 246.5 144 257.5 152 260.5 153 266.5 159 272.5 163 278.5 170 289.5 178 294.5 185 296.5 186 296.5 187 300.5 190 305.5 196 310.5 205 315.5 210 319.5 217 322.5 225 322.5 227 323.5 227M187.5 129 191.5 128 192.5 126 192.5 123 193.5 121 193.5 108 192.5 107 192.5 105 199.5 105 199.5 112 197.5 119 197.5 130 197.5 120 195.5 108 195.5 127 194.5 129 194.5 114 195.5 111 196.5 112 196.5 117 194.5 128 197.5 112 198.5 111 199.5 114M186.5 137 181.5 141 163.5 166 153.5 192 149.5 211M207.5 142 207.5 145 215.5 156 223.5 172 233.5 214 238.5 225M188.5 249 188.5 246 189.5 244 189.5 235 188.5 234 188.5 244 189.5 248 190.5 247 190.5 229 190.5 248 192.5 241 193.5 231 194.5 230 195.5 242 196.5 243 200.5 235 201.5 230 200.5 232 200.5 235" fill="none" stroke="black" stroke-width="2" /></svg>