<?xml version="1.0" encoding="utf-8" ?>
<svg baseProfile="full" height="757" version="1.1" width="535" xmlns="http://www.w3.org/2000/svg" xmlns:ev="http://www.w3.org/2001/xml-events" xmlns:xlink="http://www.w3.org/1999/xlink"><defs /><rect fill="white" height="757" width="535" x="0" y="0" /><path d="M95.5 110 97.5 110 98.5 119 98.5 130 96.5 143 94.5 145M227.5 39 227.5 54 226.5 59 228.5 76 227.5 78 226.5 78M203.5 88 205.5 92 205.5 112 203.5 113M166.5 175 168.5 177 168.5 189 165.5 202 163.5 204M157.5 280 158.5 284 158.5 303 154.5 314M139.5 399 140.5 408 134.5 441M134.5 464 136.5 468 137.5 475 136.5 480M318.5 91 320.5 94 321.5 99 321.5 118 320.5 125 318.5 130M310.5 151 312.5 155 312.5 158 311.5 168 309.5 175M287.5 121 289.5 132 289.5 140 288.5 142M331.5 223 332.5 224 335.5 248 335.5 256 334.5 260M236.5 138 236.5 141 239.5 150 239.5 152M327.5 331 329.5 334 329.5 378 328.5 377M308.5 266 310.5 275 310.5 288 309.5 290M315.5 410 318.5 416 319.5 421 321.5 444M85.5 271 88.5 274 89.5 278 89.5 295 88.5 299 87.5 300M89.5 424 90.5 424 90.5 425 87.5 438 87.5 456M114.5 233 116.5 236 119.5 249 119.5 254 116.5 260M116.5 372 117.5 373 118.5 377 119.5 389M41.5 184 41.5 188 44.5 202 44.5 209 42.5 215 41.5 216M43.5 359 44.5 366 40.5 410 39.5 420 36.5 427 36.5 429M361.5 63 364.5 74 362.5 80M365.5 136 366.5 140 366.5 146 365.5 157 363.5 162M365.5 218 365.5 233 366.5 236M372.5 296 374.5 299 374.5 311 373.5 316 372.5 317M373.5 394 374.5 394 374.5 421 373.5 424 371.5 425M291.5 34 291.5 35 289.5 36 290.5 37 291.5 41 293.5 53 293.5 64M422.5 63 424.5 67 425.5 77 425.5 85 422.5 87M421.5 148 421.5 155 423.5 171 423.5 181 422.5 182M391.5 41 395.5 63 394.5 69M396.5 121 399.5 127 399.5 150 398.5 155M425.5 282 428.5 285 429.5 289 430.5 321 429.5 323 428.5 322M408.5 243 409.5 245 409.5 266 406.5 272M413.5 373 416.5 377 417.5 382 417.5 390 415.5 410 415.5 421M471.5 385 473.5 388 473.5 394 471.5 402 471.5 418 470.5 425M417.5 463 419.5 461 419.5 460 418.5 473 418.5 487M387.5 463 389.5 482 389.5 489 390.5 492 390.5 497 390.5 496 391.5 496M453.5 478 455.5 480 456.5 484 454.5 496M476.5 492 479.5 496 481.5 503 481.5 505 479.5 506M474.5 88 476.5 91 481.5 119 481.5 126 480.5 128M449.5 108 452.5 113 454.5 124 455.5 140 454.5 146 452.5 148 452.5 149M489.5 195 490.5 198 491.5 208 491.5 234 493.5 244 493.5 256" fill="none" stroke="black" stroke-width="2" /></svg>