<?xml version="1.0" encoding="utf-8" ?>
<svg baseProfile="full" height="757" version="1.1" width="535" xmlns="http://www.w3.org/2000/svg" xmlns:ev="http://www.w3.org/2001/xml-events" xmlns:xlink="http://www.w3.org/1999/xlink"><defs /><rect fill="white" height="757" width="535" x="0" y="0" /><path d="M381.5 506 374.5 506 351.5 509 340.5 513 335.5 517 327.5 527 327.5 533 328.5 536 331.5 538 335.5 540 343.5 541M500.5 508 504.5 510 508.5 517 509.5 522 508.5 527 501.5 536 495.5 539 458.5 539 450.5 542 438.5 548 422.5 559 417.5 560 383.5 555 367.5 554 363.5 553 362.5 552M453.5 526 444.5 530 432.5 534 407.5 535 393.5 534 373.5 529" fill="none" stroke="black" stroke-width="2" /></svg>