<?xml version="1.0" encoding="utf-8" ?>
<svg baseProfile="full" height="757" version="1.1" width="535" xmlns="http://www.w3.org/2000/svg" xmlns:ev="http://www.w3.org/2001/xml-events" xmlns:xlink="http://www.w3.org/1999/xlink"><defs /><rect fill="white" height="757" width="535" x="0" y="0" /><path d="M266.5 231 267.5 231 267.5 233 263.5 245 257.5 251 256.5 251 251.5 255 242.5 259 225.5 262 219.5 261 219.5 260 214.5 258 209.5 254 203.5 243 203.5 240 202.5 238 202.5 230M209.5 195 209.5 196 208.5 196 205.5 200 199.5 213 196.5 228 196.5 231 198.5 237 200.5 237 200.5 233 201.5 230 206.5 221 208.5 219 210.5 219 216.5 228 219.5 230 221.5 229 223.5 223 226.5 219 233.5 227 235.5 227 236.5 225 240.5 221 246.5 220 251.5 223 257.5 231 258.5 231 259.5 228 262.5 228 267.5 232 269.5 232 271.5 230 271.5 216 263.5 199 257.5 193 248.5 188 237.5 185 220.5 184 219.5 185 217.5 185 212.5 187M242.5 260 243.5 260 243.5 263 240.5 269 234.5 274 230.5 275 226.5 274 222.5 269 221.5 265 223.5 262M260.5 255 263.5 256 267.5 261 276.5 277 276.5 279 284.5 293 293.5 316 296.5 321 296.5 322 289.5 322 286.5 323 282.5 323 280.5 324 273.5 324 270.5 325M208.5 264 209.5 264 204.5 269 201.5 275 194.5 293 185.5 311 183.5 319 183.5 324 182.5 324 182.5 326 188.5 324 198.5 324M216.5 284 218.5 284 218.5 287 217.5 293 214.5 300 210.5 322 210.5 359 212.5 361 217.5 361 226.5 363 234.5 363 240.5 364 266.5 364 267.5 363 270.5 363 272.5 360 273.5 344 270.5 324 268.5 316 267.5 297 266.5 294 266.5 286M286.5 321 290.5 323 290.5 329 287.5 335 283.5 337 280.5 337 277.5 335 271.5 328M192.5 325 192.5 326 191.5 326 187.5 331 186.5 335 186.5 339 189.5 342 200.5 344 213.5 344 213.5 345M195.5 324 207.5 324 215.5 326M256.5 373 258.5 373 258.5 372 260.5 371M263.5 364 262.5 364 262.5 392 266.5 423 267.5 444 268.5 445 268.5 450 269.5 452M238.5 380 236.5 376 236.5 374M236.5 369 236.5 365 235.5 374 234.5 453 236.5 457 243.5 461 273.5 460 279.5 462M217.5 371 215.5 367 215.5 363 210.5 380 208.5 390 207.5 408 203.5 435 202.5 449 200.5 457 200.5 463 206.5 466 232.5 466 232.5 463M268.5 460 266.5 460 270.5 460 286.5 465 290.5 469 290.5 472 288.5 476 272.5 480 260.5 480 245.5 477 241.5 476 241.5 475 240.5 475M240.5 459 242.5 460 242.5 466 241.5 472 240.5 473M237.5 463 240.5 466 240.5 467 231.5 479 226.5 483 223.5 484 210.5 480 196.5 481M201.5 468 193.5 470 185.5 476 185.5 479 187.5 481 197.5 482M220.5 236 221.5 237 220.5 237 220.5 236M234.5 248 235.5 249 224.5 249 220.5 250" fill="none" stroke="black" stroke-width="2" /></svg>