<?xml version="1.0" encoding="utf-8" ?>
<svg baseProfile="full" height="757" version="1.1" width="535" xmlns="http://www.w3.org/2000/svg" xmlns:ev="http://www.w3.org/2001/xml-events" xmlns:xlink="http://www.w3.org/1999/xlink"><defs /><rect fill="white" height="757" width="535" x="0" y="0" /><path d="M282.95 650.31 301.69 647.83 311.68 648.07 281.48 653.03 298.67 651.91 275.33 659.12 301.87 657.82 302.22 659 278.76 665.09 269.01 666.09 313.98 660.71 338.03 659.59 317.58 664.08 259.08 669.16 241.11 668.22 339.27 660.65 333.19 666.09 269.13 677.5 227.82 677.79 241.88 675.07 353.28 665.38 301.81 671.47 231.72 676.02 237.69 677.56 275.33 677.26 352.69 669.4 353.63 668.22 296.78 677.38 233.43 688.55 229.65 690.26 288.63 687.78 378.4 676.02 320.3 685.36 245.25 691.09 218.77 690.32 383.6 681.04 317.29 689.02 246.49 695.05 235.85 694.34 302.87 687.54 365.69 679.74 374.61 674.42M336.85 669.4 371.19 667.15 365.63 667.51 322.84 676.14 281.89 676.2 230.06 679.92 196.55 687.25 232.6 680.33 281.83 673.89 272.08 677.97 224.86 691.8 239.69 692.69 311.38 686.6 349.56 684.41 334.49 690.14 249.03 709.11 191 715.44 209.02 711.83 304.7 700.96 374.91 693.93 361.38 698.3 271.96 716.21 197.62 721.64 335.14 702.79 376.39 698.12 331.35 709.17 220.84 729.39 332.83 717.09 392.11 718.45" fill="none" stroke="black" stroke-width="2" /></svg>