<?xml version="1.0" encoding="utf-8" ?>
<svg baseProfile="full" height="757" version="1.1" width="535" xmlns="http://www.w3.org/2000/svg" xmlns:ev="http://www.w3.org/2001/xml-events" xmlns:xlink="http://www.w3.org/1999/xlink"><defs /><rect fill="white" height="757" width="535" x="0" y="0" /><path d="M261.86 399.32 254.06 397.13 251.22 393.41 249.33 387.14 248.56 370.42 251.51 362.2 254.41 359.31M255.83 362.26 264.63 358.72 272.79 358.36 277.52 361.14 279.53 363.27 281.18 366.93 283.78 381.65 283.72 394.59 284.2 389.27 283.49 380.52 281.59 371.42 277.52 363.5 274.38 360.55 271.61 359.31 264.63 359.01 260.73 359.6 257.84 360.96 253.58 365.45 250.33 372.66 250.1 379.81 251.57 385.49 256.89 396.07 261.86 399.97 268.53 401.92 271.25 403.57M285.44 381.06 283.31 392.76 282.01 395.42 278.64 397.78 265.46 402.27M265.17 398.73 263.51 407.41 264.04 412.73 264.52 413.97 265.28 413.15M274.03 399.97 273.5 399.67 273.97 405.64 276.22 415.81M265.05 404.81 256.66 408.71 244.13 418.41 243.77 419.71 235.44 427.39 231.36 435.49 229.53 442.76 228.35 460.54 228.58 470.77 231.01 478.51M275.8 406.17 285.79 407.3 297.85 411.79 303.46 421.6 311.62 432.77 318.12 445.77 319.83 459.78 322.02 469.53 326.57 482.47 327.04 483.47 327.99 483.47M262.45 403.16 253.88 408 247.73 413.5 255.36 415.75 253.7 419.77 249.27 424.67 264.75 430.82 264.57 429.69M263.33 406.29 260.79 407.35 261.56 416.93 268.42 432.89 268.89 431.11M276.57 403.28 287.03 405.58 290.52 407.59 290.99 408.77 287.33 412.67 290.4 418.11 296.31 423.02 283.13 426.21 286.97 431.47 282.78 433.48 274.68 435.49M246.49 438.91 245.72 452.15 247.44 463.14 250.33 470.71 251.69 472.3M294.06 430.05 290.46 440.15 292.59 465.57 291.7 466.34 290.4 465.57M250.75 473.66 259.32 466.99 266.35 464.74 280.12 462.38 291.58 461.55 294.6 461.79 291.94 464.03M292.82 469.23 281.48 470.06 271.37 472.25 259.61 475.44 248.2 479.69 253.29 478.81M277.34 462.32 276.22 461.67 274.92 466.75 275.27 471.54 276.87 472.36 279.82 472.42 288.63 469.29 293.36 466.28 288.45 458.59 285.2 458.18 277.46 466.04 275.63 469.41 279.23 470.24 281.42 469.11 284.79 463.74 285.85 467.16 288.21 485.54 290.81 528.27 295.6 547.66 297.79 553.51 300.03 553.21 306.95 548.37 309.43 545 310.67 540.39 310.38 536.72 303.64 519.29 299.38 505.34 297.79 497.13 295.72 472.01M255.53 475.85 251.34 478.92 249.21 487.55 248.8 494.7 248.2 561.78 251.16 590.15 281.89 590.86 290.46 594.58 291.35 596.83M299.8 463.38 299.62 472.84 314.45 532.76 318.24 543.58 324.03 566.27 327.04 585.42 313.03 585.01 290.58 590.15 290.75 586.13M282.01 472.9 278.94 484.83 279.17 493.99 285.32 529.93 294.48 569.64 299.38 594.82M234.44 479.34 231.72 491.63 231.66 502.21 236.21 522.18 238.75 529.87 249.09 527.92 249.62 529.57M249.62 461.79 248.91 471.3 250.21 490.03 253.58 513.44 256.3 523.66M319.3 445.83 321.9 450.62 325.39 461.08 329.7 484.95 331.3 521.53 331.18 522.36 327.45 521.89 319.89 522.48 315.1 524.31 315.93 520.35M297.26 443.52 297.91 456.11 309.49 493.52 316.82 526.97M252.58 378.46 245.43 382.95 245.13 386.79 246.25 389.15 250.63 392.7 257.36 390.69M283.84 375.86 285.61 374.85 288.45 375.15 290.28 378.63 289.22 387.26 288.51 388.33 286.09 389.21M262.03 590.98 263.45 590.33 263.16 594.29 265.7 610.3 271.43 640.26M276.1 586.13 275.03 597.3 279.05 625.37 280.94 644.93 281.95 651.02 282.3 651.67 282.72 648.95M267.94 654.51 259.2 653.38 257.72 654.92 259.91 662.54 270.25 664.91 273.97 663.43 280.29 658.7 281.65 654.98 280.24 652.44 276.87 652.56M300.39 588.14 299.56 588.32 297.85 593.04 297.49 606.7 301.87 636.66 306.47 652.14 306.3 647.3M312.68 576.02 312.15 585.83 319.42 628.09 320.42 636.66 320.24 642.27M311.2 649.13 305.88 657.11 306.53 659.53 309.49 661.84 317.94 660.48 326.86 655.1 329.82 651.49 326.57 649.84 316.58 647.77M243.12 526.73 237.27 535.13 235.26 540.74 238.16 546.47 244.3 548.31 246.96 546.77 250.45 540.51 250.33 535.36 247.55 527.8M320.07 522.24 317.23 524.84 316.46 529.34 317.7 537.02 323.02 539.68 329.17 539.38 331.18 538.02 332.71 534.48 331 529.87 326.57 524.78 322.49 523.19M228.23 452.21 230.12 463.44 232.66 470.3 234.61 469.11 237.8 462.79 237.45 459.66 239.93 459.78 245.25 455.82 244.6 444 248.91 441.22 251.22 435.01 248.44 427.69 255.77 414.62M235.74 429.64 233.19 437.44 233.08 448.61 233.08 458.24 235.44 460.48 240.34 436.43 241.05 427.69 242.06 448.31 244.3 442.05 246.96 424.26 249.86 428.39 252.34 428.34M278.4 406.88 276.93 407.12 279.76 408.77M274.09 409.72 280.35 407.77 288.21 415.87 292.94 414.45 294.6 429.69 300.21 429.64 303.34 435.78 305.94 444.23 315.69 461.73 319.06 461.19 320.6 453.63 320.01 447.01 320.48 441.28M297.85 410.55 297.91 418.88 300.27 435.78 303.93 439.74 306.36 435.84 312.98 451.38 316.23 452.8M257.6 433.18 265.58 426.5 272.55 425.68 274.27 427.98 276.87 429.46M268.36 431.41 268.18 452.27 268.89 460.37 269.83 461.08" fill="none" stroke="black" stroke-width="2" /></svg>