<?xml version="1.0" encoding="utf-8" ?>
<svg baseProfile="full" height="757" version="1.1" width="535" xmlns="http://www.w3.org/2000/svg" xmlns:ev="http://www.w3.org/2001/xml-events" xmlns:xlink="http://www.w3.org/1999/xlink"><defs /><rect fill="white" height="757" width="535" x="0" y="0" /><path d="M59.15 167.71 46.51 182.19 46.8 200.27 59.98 231M125.11 67.71 122.98 88.75 124.46 104.71 128.59 117.65M161.51 36.04 162.28 44.84 164.88 46.02M186.09 57.9 193.95 71.5 197.44 82.72 209.97 100.45M355.35 82.61 354.93 91.23 360.25 112.69M388.38 112.57 388.74 121.85 395.42 127.23 400.44 141.29 405.17 163.87M473.01 121.43 470.65 139.64 475.43 152.64 476.62 150.92M418.4 51.76 410.37 50.75 408.95 52.64 407.29 61.51M309.84 41.47 293.47 31.78 286.56 28.77 269.24 45.96M46.21 162.27 42.55 173.38 54.84 210.32M57.38 225.68 52.95 222.37 44.56 254.29M94.97 235.26 98.87 251.33 100.4 254.29" fill="none" stroke="black" stroke-width="2" /></svg>