<?xml version="1.0" encoding="utf-8" ?>
<svg baseProfile="full" height="757" version="1.1" width="535" xmlns="http://www.w3.org/2000/svg" xmlns:ev="http://www.w3.org/2001/xml-events" xmlns:xlink="http://www.w3.org/1999/xlink"><defs /><rect fill="white" height="757" width="535" x="0" y="0" /><path d="M151.5 681.82 142.83 674.49 136.17 673.16 116.17 686.49 107.5 704.49 107.5 734.49M159.5 695.16 150.17 693.16 138.83 693.16 136.17 694.49 130.83 699.16 129.5 705.82 129.5 719.82 127.5 735.82M122.17 728.49 122.17 742.49 123.5 759.82 125.5 766.49M102.83 728.49 106.17 751.16 110.83 766.49M129.5 731.82 139.5 729.16 150.17 724.49 156.83 723.16 156.83 729.16 150.83 737.16 145.5 742.49 158.17 742.49 158.83 743.16 152.17 751.16 148.17 751.82 151.5 753.16 145.5 759.82 138.17 763.16M98.83 729.16 88.83 723.16 84.17 723.16 86.17 734.49 90.83 743.16 86.83 746.49 81.5 749.16 88.83 755.16 92.17 755.82 93.5 761.82 104.83 767.16 110.17 767.16 118.83 770.49" fill="none" stroke="black" stroke-width="2" /></svg>