<?xml version="1.0" encoding="utf-8" ?>
<svg baseProfile="full" height="757" version="1.1" width="535" xmlns="http://www.w3.org/2000/svg" xmlns:ev="http://www.w3.org/2001/xml-events" xmlns:xlink="http://www.w3.org/1999/xlink"><defs /><rect fill="white" height="757" width="535" x="0" y="0" /><path d="M225.5 494.49 217.5 487.82 209.5 477.82 204.17 466.49 200.83 453.82 200.17 443.82 202.83 427.82 209.5 411.16 216.17 400.49 225.5 391.16 241.5 384.49 253.5 383.82 267.5 385.16 282.17 390.49 290.83 394.49 302.83 403.82 308.17 411.82 311.5 419.82 314.17 433.16 313.5 453.82 310.83 464.49 296.17 486.49M293.5 489.16 306.83 499.16 314.83 503.82 343.5 511.82 350.83 512.49 358.83 512.49 379.5 507.82 398.17 500.49 417.5 491.16M432.17 488.49 441.5 490.49 446.83 495.16 452.17 504.49 457.5 517.82 459.5 526.49 460.17 563.82 457.5 577.82 452.17 589.82 446.17 596.49M441.5 599.82 423.5 605.16 400.83 607.82 370.83 609.16 343.5 608.49M440.83 484.49 446.83 477.16 449.5 471.82 454.17 467.16 462.17 464.49 468.83 463.82 476.83 465.82 484.83 473.82 490.17 485.16 490.17 496.49 483.5 504.49M209.5 499.16 199.5 505.16 183.5 536.49 172.17 555.82 155.5 589.16 148.17 607.16 142.83 629.16 141.5 656.49M239.5 627.16 237.5 647.16 230.83 657.82 221.5 665.82 210.83 669.82 192.17 675.16 172.17 677.16 156.17 676.49 144.17 674.49 132.17 671.16M158.83 686.49 162.17 695.82 170.83 701.82 180.83 701.82 190.83 690.49 192.83 681.16M351.5 610.49 360.17 615.16 362.83 619.16 368.83 637.82 378.83 687.16 381.5 734.49 380.17 783.16M225.5 661.16 220.83 679.16 217.5 703.82 216.83 741.16 220.17 771.16M264.17 415.16 257.5 421.16 252.17 432.49 248.17 447.82 249.5 457.82 258.83 470.49 272.83 481.16 281.5 483.82 285.5 483.82 290.17 480.49 296.83 467.16 301.5 451.16 302.83 435.16 297.5 427.16 281.5 419.82 262.83 419.16 259.5 420.49M262.17 431.82 266.83 439.82 268.17 443.82M289.5 429.82 296.17 436.49 297.5 441.16M206.83 561.16 206.83 572.49 208.83 579.16 212.83 581.16 215.5 579.16M280.17 661.82 282.17 671.16 284.83 674.49 290.83 674.49 300.83 666.49M394.17 555.16 394.17 568.49 396.83 578.49 400.83 582.49 407.5 578.49M221.5 429.82 221.5 456.49 223.5 461.82 226.17 463.16 231.5 463.16 234.17 460.49 235.5 454.49 235.5 444.49M232.17 719.82 238.83 727.82 238.83 743.82 235.5 751.82 235.5 761.16 238.83 770.49 242.83 775.82 247.5 776.49 252.17 773.82 253.5 761.82M315.5 528.49 328.17 611.16 330.17 620.49M257.5 560.49 268.17 585.16 273.5 589.16 278.83 587.16 282.83 579.82M246.17 619.82 260.83 629.16 274.83 645.82M349.5 653.82 343.5 668.49 336.17 701.16M357.5 618.49 357.5 642.49 359.5 658.49 361.5 667.16 366.17 707.16 374.17 758.49 378.17 769.82M356.83 611.82 366.17 699.16 375.5 771.16 380.17 798.49M222.17 652.49 219.5 663.16 213.5 716.49 206.83 787.16M155.5 644.49 167.5 581.82 184.17 541.82M202.17 659.82 203.5 649.16 205.5 643.82 215.5 603.82M217.5 610.49 230.17 597.82 235.5 593.82M185.5 540.49 202.17 532.49 224.83 519.16M211.5 525.16 214.83 523.16 245.5 511.16M239.5 494.49 240.17 504.49 239.5 509.16M239.5 513.82 246.17 519.16 258.83 527.16M286.17 515.16 279.5 521.16 273.5 525.16M290.17 512.49 316.17 520.49 337.5 523.82 366.17 523.16 386.17 519.16 404.83 511.82 414.83 506.49 427.5 501.82M454.83 531.82 437.5 541.16 369.5 565.16M431.5 551.16 422.17 552.49 416.17 554.49 390.17 563.16 333.5 583.82M371.5 577.16 361.5 579.16 336.17 595.16 327.5 607.16 328.83 624.49 344.17 699.82M340.83 653.82 344.17 673.16 345.5 718.49M228.17 602.49 228.83 616.49 228.17 678.49M229.5 708.49 239.5 709.82 284.17 711.16 342.17 709.82M276.83 719.82 286.17 718.49 290.83 716.49M228.83 717.82 229.5 734.49 229.5 785.16M356.17 708.49 356.83 733.82 362.83 775.82M262.17 668.49 272.17 670.49 279.5 677.16M315.5 678.49 294.83 696.49 277.5 713.82M454.17 477.82 458.83 484.49 458.83 487.82 462.17 493.16 466.17 497.16 468.17 497.82 473.5 489.82 473.5 481.82M166.17 686.49 170.17 695.16 172.17 697.16 176.83 693.16M276.17 475.16 284.17 479.16 285.5 477.82M240.83 511.82 240.83 508.49 259.5 511.16M279.5 506.49 267.5 509.82 259.5 515.82M258.17 533.16 258.17 542.49 262.17 544.49 268.17 542.49 271.5 538.49 269.5 532.49 266.17 533.82" fill="none" stroke="black" stroke-width="2" /></svg>