<?xml version="1.0" encoding="utf-8" ?>
<svg baseProfile="full" height="757" version="1.1" width="535" xmlns="http://www.w3.org/2000/svg" xmlns:ev="http://www.w3.org/2001/xml-events" xmlns:xlink="http://www.w3.org/1999/xlink"><defs /><rect fill="white" height="757" width="535" x="0" y="0" /><path d="M358.5 533 358.5 547 359.5 549 359.5 553 358.5 554 355.5 554 354.5 555 348.5 555 346.5 556 347.5 556M367.5 530 367.5 543 369.5 551 369.5 559 368.5 561 360.5 565 357.5 565 350.5 567 344.5 567 338.5 564 335.5 559 336.5 555 338.5 554 341.5 554 347.5 556 350.5 556M333.5 316 334.5 326 334.5 346 336.5 358 337.5 383 339.5 398 340.5 421 342.5 428 342.5 435 344.5 447 344.5 457 345.5 460 345.5 469 346.5 473 346.5 483 347.5 485 347.5 491 348.5 493 348.5 501 349.5 502 349.5 507 349.5 500M350.5 317 350.5 333 353.5 374 353.5 388 354.5 394 355.5 424 356.5 430 356.5 449 357.5 454 357.5 465 359.5 474 359.5 483 360.5 486 361.5 497 362.5 499 362.5 507 362.5 502M85.5 324 82.5 324 81.5 323 82.5 305 84.5 301 85.5 294 95.5 265 108.5 241 125.5 221 132.5 214 155.5 194 170.5 184 183.5 177 190.5 174 205.5 170 213.5 167 223.5 165 240.5 163 248.5 163 250.5 162 281.5 162 296.5 165 300.5 165 301.5 166 304.5 166 306.5 167 314.5 168 315.5 169 319.5 170 326.5 171 327.5 172 360.5 182 386.5 197 398.5 207 415.5 225 417.5 229 423.5 237 425.5 242 435.5 255 446.5 276 449.5 287 450.5 288 450.5 291 454.5 304 454.5 308M87.5 352 85.5 354 86.5 348 90.5 343 103.5 331 115.5 324 127.5 322 135.5 322 140.5 323 145.5 325 154.5 332 158.5 338 157.5 332 159.5 327 159.5 325 162.5 319 168.5 312 180.5 304 194.5 301 209.5 301 211.5 302 215.5 302 223.5 306 226.5 310 228.5 311 228.5 312 229.5 312 229.5 315 229.5 313 234.5 303 240.5 298 248.5 295 253.5 294 266.5 294 275.5 297 281.5 300 293.5 312 296.5 317 297.5 321 298.5 315 302.5 309 313.5 301 317.5 299 322.5 298 335.5 298 346.5 302 353.5 309 353.5 310 356.5 313 356.5 315 357.5 316 359.5 308 367.5 300 375.5 297 388.5 297 395.5 299 405.5 304 415.5 311 420.5 319 421.5 319 421.5 320 422.5 320 427.5 311 436.5 305 439.5 304 446.5 303 453.5 307 454.5 309 457.5 310 457.5 311M333.5 306 333.5 303 332.5 302 332.5 320 333.5 324 333.5 334 334.5 333M350.5 309 349.5 309 349.5 326 350.5 329 350.5 333M266.5 156 264.5 156 262.5 152 261.5 149 261.5 141 263.5 133 265.5 130 268.5 127 273.5 125 276.5 125 279.5 127 281.5 129 282.5 134 279.5 134 276.5 136 272.5 141 265.5 154 265.5 157 267.5 157 268.5 156M282.5 157 277.5 157 277.5 153 285.5 146 295.5 146 296.5 148 292.5 152 290.5 152 279.5 156 277.5 157 276.5 158 277.5 158" fill="none" stroke="black" stroke-width="2" /></svg>