<?xml version="1.0" encoding="utf-8" ?>
<svg baseProfile="full" height="757" version="1.1" width="535" xmlns="http://www.w3.org/2000/svg" xmlns:ev="http://www.w3.org/2001/xml-events" xmlns:xlink="http://www.w3.org/1999/xlink"><defs /><rect fill="white" height="757" width="535" x="0" y="0" /><path d="M104.5 279 103.5 279 101.5 281 91.5 281 89.5 280 85.5 276 83.5 268 84.5 258 95.5 246 99.5 244 102.5 241 112.5 237 116.5 237 119.5 236 127.5 236 131.5 239 139.5 248 141.5 252 142.5 261 141.5 267 138.5 273M101.5 282 100.5 282 98.5 285 97.5 285 87.5 296 83.5 303 81.5 310 81.5 319 83.5 322 87.5 323 90.5 321 99.5 312 102.5 308 106.5 299 108.5 298 108.5 297 108.5 301 106.5 311 106.5 323 103.5 342 101.5 350 101.5 357 104.5 357 110.5 355 122.5 355 125.5 356 129.5 356 130.5 355 130.5 352 132.5 346 136.5 318 136.5 303 137.5 296 137.5 299 138.5 300 143.5 323 148.5 325 162.5 318 164.5 318 164.5 317 160.5 312 157.5 304 151.5 292 144.5 282 144.5 281 147.5 282M107.5 355 101.5 357 95.5 363 93.5 369 83.5 381 90.5 383 102.5 389 104.5 391 104.5 392 105.5 392 107.5 387 111.5 368 113.5 366 114.5 366 116.5 371 117.5 381 118.5 385 119.5 386 124.5 384 128.5 381 134.5 381 135.5 380 137.5 380 134.5 356 133.5 355 133.5 353 135.5 352M103.5 267 102.5 271 105.5 274 108.5 275 112.5 275 121.5 273 125.5 271 125.5 270 126.5 270 126.5 268 127.5 268M126.5 254 123.5 254 122.5 253 122.5 255M160.5 323 155.5 325 152.5 328 151.5 333 152.5 339 156.5 341 161.5 341 168.5 335 170.5 327 168.5 325 161.5 324 158.5 325 158.5 326M83.5 305 78.5 305 73.5 307 70.5 320 71.5 324 76.5 325 80.5 323 83.5 320 84.5 317 84.5 313 83.5 312M143.5 259 141.5 251 141.5 249 142.5 248M143.5 249 142.5 246 143.5 243 147.5 241 151.5 244 151.5 249 143.5 259M87.5 261 82.5 260 80.5 260 79.5 261 79.5 268 80.5 270 82.5 272 85.5 273 93.5 270M89.5 254 88.5 254 88.5 257 92.5 258 94.5 257 98.5 253 101.5 249 101.5 248 104.5 248 106.5 251 110.5 252 117.5 247 118.5 245 127.5 245 137.5 241 138.5 241 139.5 243 142.5 245M84.5 385 75.5 386 72.5 389 71.5 399 73.5 403 77.5 405 82.5 405 87.5 403 93.5 396 93.5 393 89.5 388 85.5 386 83.5 386 83.5 387M140.5 381 134.5 381 129.5 382 127.5 383 123.5 388 119.5 398 119.5 401 121.5 403 126.5 405 129.5 404 135.5 397 135.5 390 128.5 384" fill="none" stroke="black" stroke-width="2" /></svg>