<?xml version="1.0" encoding="utf-8" ?>
<svg baseProfile="full" height="757" version="1.1" width="535" xmlns="http://www.w3.org/2000/svg" xmlns:ev="http://www.w3.org/2001/xml-events" xmlns:xlink="http://www.w3.org/1999/xlink"><defs /><rect fill="white" height="757" width="535" x="0" y="0" /><path d="M113.5 194 111.5 194 110.5 193 112.5 189 120.5 178 122.5 173 141.5 151 161.5 135 165.5 131 177.5 123 193.5 116 208.5 111 219.5 109 224.5 109 257.5 105 301.5 105 331.5 109 348.5 115 364.5 125 371.5 132 387.5 154 397.5 176 398.5 182 399.5 182 397.5 187 395.5 189M107.5 194 112.5 194 113.5 195 119.5 196 189.5 195 196.5 196 232.5 196 242.5 198 246.5 198 247.5 199 247.5 203 239.5 250 239.5 262 238.5 273 234.5 298 234.5 302 238.5 302 246.5 300 258.5 299 261.5 298 286.5 298 286.5 280 293.5 240 296.5 199 302.5 201 318.5 203 339.5 203 362.5 201 382.5 198 384.5 197 384.5 196 386.5 196 387.5 195 392.5 195 392.5 194 395.5 190 396.5 185 396.5 187M145.5 150 143.5 149 143.5 191 145.5 192M183.5 129 183.5 137 179.5 160 179.5 181 182.5 182 184.5 181M229.5 124 228.5 124 219.5 147 214.5 162 211.5 174 208.5 188 209.5 189 212.5 188 215.5 184M268.5 122 267.5 126 239.5 174 234.5 187 234.5 193 240.5 190M314.5 121 314.5 119 313.5 123 284.5 164 277.5 176 274.5 186 274.5 189 278.5 188 284.5 181M335.5 140 335.5 141 325.5 156 309.5 174 303.5 182 302.5 186 303.5 187 313.5 182M366.5 149 361.5 154 357.5 160 347.5 171 344.5 180M394.5 148 390.5 149 384.5 156 381.5 162 375.5 171 373.5 178" fill="none" stroke="black" stroke-width="2" /></svg>