<?xml version="1.0" encoding="utf-8" ?>
<svg baseProfile="full" height="757" version="1.1" width="535" xmlns="http://www.w3.org/2000/svg" xmlns:ev="http://www.w3.org/2001/xml-events" xmlns:xlink="http://www.w3.org/1999/xlink"><defs /><rect fill="white" height="757" width="535" x="0" y="0" /><path d="M44.5 30 40.5 29 40.5 30 38.5 31 33.5 42 33.5 44 36.5 48 38.5 48 46.5 44 45.5 52 45.5 61 55.5 65 61.5 64 63.5 63 70.5 55 71.5 57 77.5 61 81.5 61 86.5 59 90.5 55 91.5 51M58.5 25 56.5 23 58.5 13 60.5 11 68.5 8 70.5 8 74.5 10 80.5 15 82.5 19 84.5 13 87.5 11 90.5 11 100.5 15 108.5 24 111.5 32 112.5 31 119.5 31 122.5 32 126.5 36 126.5 38 127.5 38 126.5 44 119.5 51 108.5 54 104.5 54 101.5 55" fill="none" stroke="black" stroke-width="2" /></svg>