<?xml version="1.0" encoding="utf-8" ?>
<svg baseProfile="full" height="757" version="1.1" width="535" xmlns="http://www.w3.org/2000/svg" xmlns:ev="http://www.w3.org/2001/xml-events" xmlns:xlink="http://www.w3.org/1999/xlink"><defs /><rect fill="white" height="757" width="535" x="0" y="0" /><path d="M166.5 57 164.5 57 161.5 61 160.5 64 160.5 73 162.5 75 169.5 74 176.5 68 176.5 70 179.5 78 183.5 79 194.5 77 198.5 74 198.5 73 200.5 72 214.5 71 216.5 70 217.5 68M170.5 52 166.5 48 168.5 37 171.5 36 185.5 39 188.5 44 191.5 37 193.5 36 202.5 43 208.5 54 213.5 52 221.5 52 223.5 55 223.5 62 216.5 69 216.5 70" fill="none" stroke="black" stroke-width="2" /></svg>