<?xml version="1.0" encoding="utf-8" ?>
<svg baseProfile="full" height="757" version="1.1" width="535" xmlns="http://www.w3.org/2000/svg" xmlns:ev="http://www.w3.org/2001/xml-events" xmlns:xlink="http://www.w3.org/1999/xlink"><defs /><rect fill="white" height="757" width="535" x="0" y="0" /><path d="M503.5 712 490.5 712 473.5 709 469.5 707 459.5 699 458.5 697 458.5 690 460.5 683 466.5 678 477.5 673 491.5 670 516.5 669 529.5 673 536.5 678 541.5 683 543.5 689 540.5 695 532.5 699 523.5 702 484.5 706 476.5 704 470.5 699 469.5 695 470.5 688 481.5 678M479.5 695 484.5 686 501.5 683 520.5 691 524.5 694M478.5 695 479.5 690 492.5 682 508.5 679 521.5 680 531.5 683 537.5 689 539.5 694 538.5 700 534.5 703 528.5 706 520.5 707M512.5 642 510.5 643 506.5 651 506.5 655 507.5 658 509.5 658 511.5 654 511.5 642 512.5 640M521.5 640 519.5 644 517.5 652 518.5 657 521.5 657 523.5 649 522.5 639" fill="none" stroke="black" stroke-width="2" /></svg>