<?xml version="1.0" encoding="utf-8" ?>
<svg baseProfile="full" height="757" version="1.1" width="535" xmlns="http://www.w3.org/2000/svg" xmlns:ev="http://www.w3.org/2001/xml-events" xmlns:xlink="http://www.w3.org/1999/xlink"><defs /><rect fill="white" height="757" width="535" x="0" y="0" /><path d="M98.5 226 92.5 222 93.5 216 105.5 193 116.5 177 131.5 158 149.5 140 169.5 123 192.5 106 219.5 92 247.5 81 274.5 77 299.5 77 322.5 79 345.5 85 367.5 94 385.5 105 413.5 131 432.5 152 441.5 165 454.5 188 461.5 205 469.5 232 470.5 240M96.5 231 96.5 230 103.5 225 120.5 210 132.5 202 170.5 180 175.5 176 180.5 175 181.5 181 184.5 188 190.5 209 196.5 237 198.5 237 199.5 232 210.5 221 225.5 209 233.5 204 236.5 203 238.5 201 250.5 194 255.5 192 257.5 190 261.5 189 263.5 187 269.5 187 270.5 191 271.5 192 271.5 194 273.5 198 274.5 204 288.5 227 292.5 232 296.5 235 300.5 236 303.5 232 303.5 230 305.5 229 312.5 215 312.5 213 318.5 203 321.5 201 322.5 199 336.5 186 343.5 183 347.5 183 350.5 189 358.5 211 362.5 218 370.5 229 371.5 229 372.5 231 373.5 231 377.5 235 378.5 235 382.5 231 388.5 223 392.5 215 399.5 206 403.5 202 407.5 200 415.5 193 415.5 192 416.5 192 416.5 190 417.5 190 420.5 195 422.5 201 426.5 207 431.5 212 440.5 224 456.5 240 458.5 243M458.5 244 460.5 245 464.5 244 468.5 242 470.5 240 470.5 239M178.5 176 179.5 173 182.5 171 200.5 149 218.5 132 229.5 123 254.5 107 262.5 103 280.5 95 288.5 94M294.5 90 289.5 96 285.5 105 282.5 118 275.5 150 274.5 161 272.5 169 271.5 180 271.5 193M300.5 88 304.5 94 328.5 143 342.5 176 345.5 186 345.5 189M306.5 87 316.5 88 326.5 93 338.5 100 353.5 111 367.5 125 390.5 152 403.5 172 415.5 187M290.5 93 289.5 85 294.5 70 298.5 63 307.5 55 314.5 50 315.5 50 314.5 55 314.5 67 316.5 78 318.5 82 318.5 86 319.5 89M216.5 219 214.5 246 213.5 285 213.5 313 214.5 318 214.5 326 215.5 326M239.5 206 238.5 208 238.5 228 239.5 245 239.5 263 238.5 277 238.5 343M290.5 91 292.5 66 295.5 62 306.5 60 307.5 59 310.5 59 313.5 65 314.5 87 314.5 59 312.5 59 311.5 58 297.5 59 294.5 61 293.5 64 290.5 90 289.5 92 289.5 86 291.5 74 296.5 60 297.5 59 314.5 58 315.5 59 316.5 92M213.5 325 214.5 326 214.5 330 213.5 332 209.5 334 206.5 334 201.5 338 201.5 341 204.5 345 208.5 347 211.5 347M211.5 344 210.5 344 212.5 347 219.5 347 225.5 344 230.5 340 233.5 340" fill="none" stroke="black" stroke-width="2" /></svg>