<?xml version="1.0" encoding="utf-8" ?>
<svg baseProfile="full" height="757" version="1.1" width="535" xmlns="http://www.w3.org/2000/svg" xmlns:ev="http://www.w3.org/2001/xml-events" xmlns:xlink="http://www.w3.org/1999/xlink"><defs /><rect fill="white" height="757" width="535" x="0" y="0" /><path d="M407.5 424 407.5 426 412.5 412 416.5 388 418.5 359 417.5 346 417.5 325 416.5 323 414.5 323 410.5 325 400.5 334 388.5 345 380.5 355 375.5 360 377.5 344 377.5 336 376.5 329 369.5 305 364.5 294 351.5 271 343.5 261 331.5 250 325.5 247 314.5 244 307.5 244 298.5 246 294.5 248 287.5 249 278.5 253 271.5 258 264.5 266 259.5 276 251.5 300 247.5 329 247.5 336 245.5 341 244.5 341 233.5 330 212.5 315 192.5 303 183.5 303 178.5 307 176.5 315 175.5 331 180.5 382 184.5 412 184.5 414 183.5 413M283.5 273 283.5 268 282.5 271 282.5 280 284.5 299 285.5 303 286.5 304 288.5 300 288.5 296M313.5 264 314.5 263 315.5 264 318.5 272 320.5 282 324.5 296 325.5 297M346.5 324 348.5 326 348.5 325 341.5 319 336.5 317 330.5 316 320.5 316 309.5 319 298.5 327 294.5 332 291.5 338 288.5 347 287.5 349 287.5 348M317.5 320 318.5 333 324.5 352 328.5 360 334.5 368 336.5 370 337.5 370 341.5 365 341.5 363 342.5 362 342.5 358 344.5 348 344.5 337 341.5 325 337.5 316M276.5 313 277.5 313 277.5 311 273.5 317 269.5 328 269.5 338 270.5 339 270.5 341 274.5 341 276.5 338 276.5 312 275.5 311M287.5 215 289.5 219 293.5 236M287.5 248 286.5 243 282.5 236 278.5 232 277.5 232M293.5 242 294.5 238 294.5 225" fill="none" stroke="black" stroke-width="2" /></svg>