<?xml version="1.0" encoding="utf-8" ?>
<svg baseProfile="full" height="757" version="1.1" width="535" xmlns="http://www.w3.org/2000/svg" xmlns:ev="http://www.w3.org/2001/xml-events" xmlns:xlink="http://www.w3.org/1999/xlink"><defs /><rect fill="white" height="757" width="535" x="0" y="0" /><path d="M20.5 22 21.5 24 21.5 38M35.5 23 36.5 26 37.5 37M73.5 23 74.5 26 73.5 38M88.5 21 90.5 26 89.5 35 88.5 37M99.5 22 101.5 24 101.5 38 100.5 40M116.5 23 117.5 27 117.5 38M134.5 20 135.5 25 135.5 35 134.5 37M143.5 22 145.5 26 145.5 37M152.5 21 153.5 23 153.5 30 152.5 31M165.5 28 167.5 30 167.5 36 166.5 37M172.5 22 176.5 27 178.5 40M183.5 30 189.5 34 189.5 37M517.5 11 521.5 20 521.5 40M512.5 14 516.5 23 516.5 29 514.5 32M484.5 16 487.5 26 487.5 31 486.5 34 484.5 36M474.5 23 477.5 28 477.5 39 474.5 42 470.5 44M453.5 20 453.5 21 454.5 21 453.5 32 452.5 36 451.5 37M434.5 23 435.5 26 435.5 35 434.5 39 433.5 40M413.5 22 414.5 42 413.5 43 410.5 43M386.5 20 389.5 31 389.5 37 387.5 37M366.5 19 366.5 31 364.5 34 359.5 35M341.5 18 342.5 33 340.5 39 338.5 39M317.5 20 317.5 27 314.5 32 310.5 34M286.5 20 286.5 29 284.5 34 281.5 36 277.5 35 276.5 34M253.5 17 245.5 29 243.5 30M225.5 17 221.5 33 218.5 37 215.5 39M192.5 36 189.5 38 187.5 41 182.5 42M2.5 55 6.5 67 5.5 67 4.5 64M7.5 60 8.5 68 9.5 68 11.5 71M21.5 58 29.5 77 30.5 78 32.5 74M38.5 60 39.5 76 41.5 79M47.5 62 49.5 72 53.5 77 55.5 83 57.5 85 59.5 84 59.5 83M65.5 59 71.5 71 74.5 79 78.5 85 80.5 86M80.5 62 91.5 79 94.5 85 96.5 86M108.5 52 126.5 78 130.5 81M132.5 57 135.5 63 139.5 66 142.5 70M149.5 56 163.5 74 165.5 75M180.5 67 197.5 85 199.5 85M208.5 68 224.5 82 231.5 86M245.5 70 261.5 87 265.5 87M265.5 68 274.5 79 275.5 79 278.5 82M281.5 67 294.5 81 298.5 84 301.5 85M309.5 76 320.5 86 322.5 89M324.5 69 335.5 81 337.5 82M341.5 63 352.5 73 357.5 79M367.5 62 382.5 75 384.5 75M422.5 58 437.5 66 439.5 66M454.5 52 468.5 66 469.5 66 469.5 67M480.5 57 491.5 64 495.5 68 496.5 68M500.5 57 510.5 63 518.5 72 519.5 72 519.5 73M486.5 81 505.5 93 506.5 93M486.5 86 495.5 97 497.5 101M472.5 98 483.5 111 485.5 111M453.5 106 458.5 111 463.5 118 463.5 119M431.5 101 432.5 104 436.5 109 442.5 120M417.5 107 421.5 115 421.5 119 420.5 119M392.5 109 398.5 119 399.5 120 399.5 119M369.5 108 378.5 126 379.5 126 377.5 126M345.5 109 349.5 116 350.5 119 349.5 120M316.5 111 320.5 122 320.5 123 318.5 122M289.5 107 295.5 120 293.5 121 290.5 120M259.5 112 262.5 121 262.5 122 260.5 120M238.5 114 239.5 119 237.5 118M207.5 109 211.5 116 207.5 114M182.5 107 185.5 114 188.5 117 188.5 118M161.5 107 166.5 115 166.5 116 162.5 113M135.5 104 139.5 112 139.5 113 135.5 111M91.5 100 97.5 109 97.5 112M62.5 94 67.5 106 66.5 106M503.5 142 509.5 154 509.5 162M490.5 149 494.5 158 494.5 167M470.5 147 473.5 153 473.5 160 471.5 160M452.5 142 453.5 145 454.5 156 452.5 160M426.5 141 432.5 150 435.5 162 435.5 167M410.5 144 415.5 152 416.5 158 419.5 166 419.5 169M388.5 149 390.5 153 392.5 167 393.5 168M354.5 140 357.5 145 362.5 158 364.5 166 366.5 169M342.5 145 344.5 149 348.5 164 349.5 172M318.5 149 321.5 169 321.5 174 322.5 175M278.5 146 280.5 157 280.5 162 277.5 166 275.5 168 274.5 168M245.5 143 248.5 147 250.5 153 250.5 155 248.5 158M211.5 132 214.5 145 214.5 150M171.5 134 175.5 143 178.5 154 177.5 156M124.5 131 127.5 144 135.5 159 136.5 164M102.5 144 105.5 154 113.5 170 114.5 170M77.5 148 78.5 156 82.5 169M44.5 145 45.5 148 54.5 163 56.5 170M34.5 201 41.5 214 42.5 214M42.5 210 46.5 212 49.5 216 50.5 216 50.5 215M54.5 211 55.5 211 60.5 215 61.5 217 62.5 217M73.5 213 78.5 216 80.5 216 80.5 218 81.5 219M82.5 203 88.5 209 90.5 210 91.5 214M102.5 202 108.5 207 108.5 208 109.5 208 113.5 213 114.5 213M112.5 198 120.5 208 122.5 209 124.5 213M140.5 199 148.5 206 149.5 206 152.5 210M158.5 193 166.5 200 173.5 208M177.5 194 190.5 207 193.5 209 194.5 208M198.5 195 207.5 204 210.5 208 212.5 209M224.5 192 232.5 196 238.5 201 240.5 201M252.5 193 265.5 202 265.5 203 266.5 203M272.5 192 278.5 194 284.5 198 294.5 199M298.5 189 308.5 198 308.5 197M320.5 193 325.5 196 328.5 199 329.5 199 329.5 197M336.5 189 343.5 192 343.5 190M352.5 185 357.5 189 363.5 192M370.5 182 380.5 189 381.5 189M397.5 191 404.5 195 403.5 193M402.5 182 409.5 185 411.5 188 411.5 192M420.5 188 428.5 190 430.5 192M452.5 189 458.5 189 461.5 190M463.5 188 471.5 193 475.5 201M483.5 193 495.5 198 501.5 198M484.5 228 485.5 228 490.5 239 490.5 253M477.5 235 476.5 235 476.5 245 475.5 246M464.5 237 459.5 234 454.5 234 451.5 238M422.5 215 421.5 225 423.5 234M396.5 215 403.5 222 406.5 233 405.5 234M374.5 214 379.5 225 381.5 238M341.5 208 342.5 209 343.5 214 348.5 222 351.5 230M315.5 207 323.5 233 323.5 235M245.5 237 246.5 238 247.5 246 247.5 249 245.5 253M201.5 239 205.5 254 205.5 257M171.5 238 172.5 244 178.5 257 177.5 257M142.5 236 141.5 236 142.5 245 146.5 257 145.5 255 136.5 246 132.5 243 130.5 244 132.5 251 136.5 259 139.5 269 136.5 270M105.5 252 110.5 256 109.5 257 106.5 257M68.5 240 88.5 265 90.5 269M52.5 249 58.5 260 62.5 265 64.5 269M32.5 253 41.5 267 44.5 270 46.5 274M16.5 257 17.5 261 29.5 277 36.5 282M13.5 115 30.5 130 36.5 133 41.5 134M489.5 280 508.5 302 514.5 317M477.5 274 479.5 274 487.5 283 493.5 297 493.5 299M441.5 265 445.5 268 447.5 275 452.5 287 452.5 288 451.5 288M416.5 256 417.5 256 421.5 264 433.5 295M401.5 258 407.5 269 416.5 290 416.5 295M23.5 340 24.5 331 24.5 321M36.5 333 38.5 333 38.5 321 39.5 320M53.5 336 53.5 337 54.5 336 55.5 322 56.5 322M69.5 336 69.5 325 71.5 321M81.5 327 81.5 323 82.5 319 83.5 319M93.5 327 94.5 327 95.5 325 96.5 325 97.5 323 99.5 322M104.5 324 106.5 321 108.5 320M438.5 349 444.5 348 445.5 346M454.5 352 459.5 352 463.5 353 463.5 352M455.5 388 463.5 395 463.5 398M472.5 390 475.5 391 479.5 394M489.5 390 493.5 391 497.5 397M505.5 395 509.5 396 512.5 400 513.5 406M81.5 385 85.5 388 86.5 394M82.5 388 86.5 396 87.5 402M65.5 386 68.5 395 69.5 405M43.5 394 44.5 397 44.5 403 45.5 408 47.5 413M118.5 406 125.5 406 127.5 407 128.5 406 129.5 402" fill="none" stroke="black" stroke-width="2" /></svg>