<?xml version="1.0" encoding="utf-8" ?>
<svg baseProfile="full" height="757" version="1.1" width="535" xmlns="http://www.w3.org/2000/svg" xmlns:ev="http://www.w3.org/2001/xml-events" xmlns:xlink="http://www.w3.org/1999/xlink"><defs /><rect fill="white" height="757" width="535" x="0" y="0" /><path d="M163.5 303 167.5 304 170.5 301M169.5 291 168.5 293 167.5 303 167.5 310 168.5 314 165.5 322 165.5 328 163.5 334 161.5 336 161.5 338 160.5 335M141.5 290 144.5 291 151.5 288 170.5 288 180.5 290 186.5 290 187.5 289 191.5 289 194.5 288 201.5 288 210.5 285 220.5 285 219.5 281 213.5 271 199.5 257 191.5 253 173.5 249 168.5 247 159.5 247 149.5 252 141.5 261 138.5 266 134.5 278 132.5 289 131.5 292 130.5 292M149.5 330 152.5 334 158.5 338 160.5 335M163.5 250 156.5 267 155.5 273 154.5 274 152.5 281M170.5 250 170.5 253 165.5 274 163.5 291 162.5 293 163.5 292M180.5 253 181.5 253 182.5 256 183.5 263 183.5 279M182.5 252 186.5 259 194.5 277 200.5 284" fill="none" stroke="black" stroke-width="2" /></svg>