<?xml version="1.0" encoding="utf-8" ?>
<svg baseProfile="full" height="757" version="1.1" width="535" xmlns="http://www.w3.org/2000/svg" xmlns:ev="http://www.w3.org/2001/xml-events" xmlns:xlink="http://www.w3.org/1999/xlink"><defs /><rect fill="white" height="757" width="535" x="0" y="0" /><path d="M43.5 35 39.5 53 39.5 65 42.5 73 44.5 73 45.5 71 46.5 63 51.5 53 51.5 47 50.5 46 54.5 44M94.5 36 92.5 36 90.5 55 89.5 76 90.5 82 96.5 90 102.5 64 112.5 38 112.5 31 111.5 28 108.5 30 107.5 35 108.5 39M157.5 87 153.5 90 153.5 95 155.5 100 159.5 103 165.5 104 168.5 102 175.5 81 176.5 55 174.5 44 169.5 40 166.5 42 164.5 51 165.5 53M155.5 93 152.5 87 152.5 85 154.5 79 155.5 69 158.5 57 162.5 55M208.5 106 207.5 105 207.5 93 206.5 90 206.5 58 209.5 52 211.5 51 218.5 51 222.5 55 222.5 74 221.5 75 220.5 79 215.5 85 215.5 86 212.5 87 206.5 94 205.5 99 204.5 99 205.5 97 207.5 96M246.5 98 244.5 95 243.5 91 243.5 84 241.5 72 241.5 49 243.5 35 244.5 31 246.5 28 248.5 26 253.5 26 259.5 33 260.5 38 260.5 49 257.5 67 257.5 74 254.5 86 252.5 88 250.5 92 250.5 93 251.5 93M303.5 87 297.5 86 294.5 80 294.5 75 290.5 67 288.5 53 288.5 46 289.5 40 295.5 28 298.5 26 301.5 26 305.5 29 308.5 34 311.5 44 311.5 50 309.5 56 306.5 71 304.5 76 300.5 81 302.5 81M334.5 99 331.5 99 329.5 97 328.5 73 330.5 63 340.5 41 342.5 40 345.5 40 347.5 42 353.5 55 353.5 66 351.5 77 347.5 86 340.5 94 334.5 97 337.5 95 339.5 95M374.5 121 370.5 114 369.5 109 369.5 94 375.5 81 378.5 79 380.5 79 383.5 82 387.5 89 389.5 96 389.5 107 379.5 128 378.5 129 376.5 129 375.5 128 375.5 125 378.5 121M415.5 71 411.5 78 405.5 67 402.5 59 401.5 53 401.5 41 400.5 38 400.5 34 403.5 27 408.5 23 414.5 22 417.5 23 422.5 30 422.5 41 419.5 54 419.5 57 418.5 59 418.5 62 414.5 74 411.5 76 410.5 80M282.5 163 278.5 163 278.5 162 280.5 161 280.5 151 278.5 145 276.5 133 276.5 124 278.5 117 280.5 114 279.5 112 279.5 113 278.5 112 278.5 113 280.5 110 286.5 107 293.5 107 293.5 110 290.5 117 290.5 120 293.5 128 294.5 136 292.5 138 291.5 138 291.5 147 290.5 149 290.5 152 286.5 159 286.5 160 289.5 160 289.5 162M370.5 173 366.5 172 366.5 170 358.5 154 357.5 147 354.5 139 354.5 137 356.5 132 357.5 132 359.5 130 362.5 130 370.5 134 371.5 136 370.5 173 369.5 176 369.5 173M192.5 186 191.5 184 189.5 183 188.5 178 188.5 149 187.5 146 187.5 142 190.5 135 193.5 131 196.5 130 202.5 144 204.5 152 204.5 162 203.5 169 201.5 174 200.5 174 200.5 175 197.5 178 197.5 179 195.5 180 191.5 184 194.5 184M422.5 155 419.5 155 419.5 156M418.5 158 416.5 157 416.5 153 415.5 150 414.5 140 414.5 118 416.5 113 418.5 111 422.5 111 425.5 116 425.5 127 424.5 130 424.5 134 423.5 136 423.5 152 420.5 157 417.5 157 417.5 156M471.5 108 469.5 108 469.5 105 467.5 98 465.5 96 461.5 86 456.5 62 457.5 50 458.5 46 461.5 40 463.5 39 466.5 39 469.5 41 472.5 48 472.5 53 473.5 57 473.5 72 472.5 82 473.5 87 475.5 90 476.5 94 476.5 96 473.5 101 470.5 104 468.5 109 466.5 112 465.5 112 465.5 111" fill="none" stroke="black" stroke-width="2" /></svg>