<?xml version="1.0" encoding="utf-8" ?>
<svg baseProfile="full" height="757" version="1.1" width="535" xmlns="http://www.w3.org/2000/svg" xmlns:ev="http://www.w3.org/2001/xml-events" xmlns:xlink="http://www.w3.org/1999/xlink"><defs /><rect fill="white" height="757" width="535" x="0" y="0" /><path d="M290.5 427 286.5 446 285.5 457M333.5 412 333.5 418 342.5 427 363.5 443M294.5 241 294.5 238 293.5 236 294.5 260 297.5 264 302.5 264 304.5 263 310.5 259 316.5 253 320.5 248 322.5 243 322.5 229 319.5 226 319.5 225 315.5 223 310.5 224 306.5 226 294.5 239 293.5 242 297.5 243M301.5 264 300.5 264 302.5 266 304.5 272 304.5 278 303.5 283 306.5 279M312.5 262 310.5 262 309.5 261 311.5 262 312.5 266 312.5 279 311.5 280 311.5 283 313.5 278 321.5 273 327.5 274 328.5 277 334.5 316 334.5 322 332.5 328 332.5 335 330.5 345 329.5 346 332.5 342M309.5 292 309.5 283 307.5 282 305.5 279 299.5 280 296.5 283 294.5 288 294.5 305 295.5 309 295.5 323 296.5 328 296.5 344 295.5 347 299.5 341M296.5 307 291.5 300 285.5 298 277.5 300 272.5 303 272.5 319 273.5 320 285.5 320 287.5 319 293.5 313 294.5 313 293.5 314 294.5 313 294.5 315M331.5 294 328.5 286 332.5 281 337.5 279 349.5 277 353.5 277 356.5 278 358.5 280 358.5 286 356.5 290 352.5 294 342.5 297 342.5 298 339.5 298 336.5 300M296.5 344 297.5 352 297.5 367 296.5 371 297.5 373 299.5 374 303.5 375 308.5 375 316.5 373 323.5 370 324.5 368 324.5 363 325.5 359 325.5 351 323.5 349 323.5 348 323.5 352 321.5 356 321.5 360 327.5 362 333.5 366 336.5 370 337.5 369 338.5 358 335.5 345 334.5 343 331.5 342 328.5 342 327.5 343 328.5 342M296.5 368 294.5 368 294.5 373 292.5 378 291.5 384 285.5 397 284.5 401 284.5 420 285.5 423 288.5 427 290.5 427 294.5 424 295.5 421 299.5 416 303.5 408 306.5 394 308.5 391 310.5 384 310.5 375 308.5 374 308.5 373 310.5 372M318.5 372 315.5 372 315.5 377 318.5 389 320.5 402 322.5 407 331.5 419 335.5 421 335.5 422 336.5 421 339.5 413 339.5 396 337.5 386 337.5 382 334.5 376 334.5 368 332.5 366 330.5 366 330.5 367M301.5 249 303.5 241 305.5 241 306.5 243 307.5 250 308.5 250 309.5 247M303.5 255 303.5 253 300.5 252 302.5 253 303.5 258 305.5 257 313.5 248 314.5 249" fill="none" stroke="black" stroke-width="2" /></svg>