<?xml version="1.0" encoding="utf-8" ?>
<svg baseProfile="full" height="757" version="1.1" width="535" xmlns="http://www.w3.org/2000/svg" xmlns:ev="http://www.w3.org/2001/xml-events" xmlns:xlink="http://www.w3.org/1999/xlink"><defs /><rect fill="white" height="757" width="535" x="0" y="0" /><path d="M204.5 239 204.5 238 203.5 238 203.5 235 202.5 234 201.5 226 204.5 215 206.5 212 208.5 203 210.5 201 211.5 198 215.5 192 218.5 188 221.5 186 222.5 184 234.5 178 253.5 171 264.5 171 268.5 172 276.5 176 280.5 177 289.5 181 293.5 184 302.5 194 309.5 204 315.5 218 311.5 225M216.5 224 211.5 226 211.5 225 209.5 225 207.5 227 203.5 228 203.5 229 208.5 227 218.5 225 232.5 220 242.5 221 246.5 223 248.5 225 253.5 226 258.5 225 268.5 225 274.5 226 282.5 223 288.5 223 293.5 225 297.5 225 309.5 222 307.5 225M215.5 198 215.5 193 218.5 196 220.5 200 219.5 208 216.5 214 215.5 218 214.5 224 214.5 226 215.5 226M229.5 185 228.5 189 233.5 208 234.5 215 234.5 221 232.5 225 230.5 226 230.5 227M245.5 183 246.5 176 247.5 176 250.5 179 253.5 187 255.5 197 255.5 215 250.5 228M270.5 179 276.5 197 275.5 211 273.5 218 271.5 222 271.5 224M292.5 189 294.5 193 294.5 200 293.5 209 290.5 218 289.5 219M251.5 235 250.5 236 250.5 226M257.5 216 257.5 218 253.5 225 249.5 235 249.5 236 252.5 236 252.5 240 247.5 253 247.5 293 248.5 295 248.5 312 247.5 316 247.5 321 248.5 324 248.5 332 249.5 334 255.5 334 256.5 333 263.5 333 266.5 332 274.5 335 281.5 335 278.5 335 278.5 332 277.5 330 273.5 327 273.5 325 272.5 325 269.5 306 269.5 293 266.5 282 264.5 279 264.5 239 268.5 230 268.5 226 267.5 225 267.5 219 268.5 218 267.5 224" fill="none" stroke="black" stroke-width="2" /></svg>