<?xml version="1.0" encoding="utf-8" ?>
<svg baseProfile="full" height="757" version="1.1" width="535" xmlns="http://www.w3.org/2000/svg" xmlns:ev="http://www.w3.org/2001/xml-events" xmlns:xlink="http://www.w3.org/1999/xlink"><defs /><rect fill="white" height="757" width="535" x="0" y="0" /><path d="M74.5 59 75.5 59 72.5 77M111.5 192 112.5 196 109.5 214M151.5 120 151.5 117 150.5 117 149.5 132 148.5 137 147.5 138 147.5 137M251.5 234 253.5 234 253.5 254 252.5 255M280.5 132 281.5 135 280.5 143 280.5 155M368.5 229 369.5 235 367.5 253 368.5 255 369.5 254M447.5 190 452.5 204 456.5 217 456.5 219M192.5 308 203.5 311 199.5 322 196.5 335 195.5 347 195.5 360" fill="none" stroke="black" stroke-width="2" /></svg>