<?xml version="1.0" encoding="utf-8" ?>
<svg baseProfile="full" height="757" version="1.1" width="535" xmlns="http://www.w3.org/2000/svg" xmlns:ev="http://www.w3.org/2001/xml-events" xmlns:xlink="http://www.w3.org/1999/xlink"><defs /><rect fill="white" height="757" width="535" x="0" y="0" /><path d="M259.5 305 260.5 304 259.5 305 249.5 306 242.5 310 239.5 313 235.5 320 232.5 323 225.5 335 224.5 346 226.5 359 233.5 375 237.5 381 244.5 387 260.5 392 268.5 393 285.5 393 293.5 392 302.5 390 310.5 387 324.5 376 333.5 365 335.5 360 336.5 354 336.5 347 334.5 340 328.5 328 324.5 322 309.5 306 303.5 302 296.5 300 282.5 301 266.5 306 260.5 309M266.5 394 265.5 392 263.5 393 259.5 421 259.5 424 260.5 424M288.5 393 289.5 399 286.5 409 284.5 420 284.5 426 283.5 425M258.5 426 258.5 425 256.5 425 249.5 427 241.5 427 239.5 428 238.5 430 240.5 430 242.5 432 246.5 434 260.5 445 268.5 453 272.5 455 278.5 455 291.5 451 301.5 443 311.5 429 308.5 428 302.5 430 297.5 430 291.5 429 283.5 426 281.5 427M239.5 426 199.5 454 193.5 464 189.5 473 184.5 498 184.5 509 185.5 515 188.5 520 191.5 522 193.5 521M322.5 425 320.5 425 320.5 428 326.5 432 341.5 445 349.5 455 353.5 467 354.5 478 350.5 494 335.5 533 335.5 535 333.5 533 329.5 526M224.5 469 224.5 481 215.5 514 214.5 529 215.5 531 216.5 525M326.5 476 320.5 492 305.5 513 298.5 526 294.5 540 294.5 538M228.5 325 222.5 350 202.5 390 191.5 417 181.5 447 175.5 455 173.5 455 172.5 456 168.5 455 166.5 451M234.5 355 232.5 363 220.5 382 191.5 422 186.5 436 184.5 447 181.5 454 180.5 455 178.5 454 177.5 451M231.5 374 231.5 382 228.5 396 218.5 416 198.5 446 196.5 448 195.5 444M240.5 385 240.5 383 242.5 384 241.5 388 221.5 431 218.5 436 217.5 435 217.5 430M251.5 382 249.5 385 247.5 396 239.5 421 237.5 430 236.5 433 235.5 430M319.5 334 319.5 327 321.5 327 325.5 332 333.5 353 339.5 382 353.5 435 353.5 437 349.5 431M345.5 349 348.5 351 350.5 358 357.5 433 357.5 449 357.5 433M338.5 370 336.5 370 341.5 390 343.5 408 344.5 428 347.5 447 349.5 454M330.5 386 330.5 385 332.5 386 334.5 389 334.5 399 338.5 440 339.5 444M326.5 385 326.5 384 328.5 387 330.5 420 332.5 439 332.5 442 331.5 441 330.5 434M322.5 396 320.5 394 319.5 394 317.5 399 316.5 410 316.5 423 319.5 439 317.5 435M298.5 403 296.5 411 299.5 428 304.5 441M259.5 334 255.5 336 253.5 343 255.5 346 260.5 347 265.5 341 266.5 336 265.5 332 263.5 332 259.5 335 256.5 339 255.5 342 256.5 344 259.5 346 262.5 345 265.5 341 267.5 333 266.5 332 263.5 334 258.5 343 258.5 346 261.5 345 263.5 342 264.5 338 263.5 338 262.5 340 262.5 343M299.5 334 297.5 335 295.5 339 293.5 346 297.5 348 301.5 344 303.5 338 302.5 337 300.5 337 297.5 339 296.5 342 297.5 346 300.5 346 302.5 345 304.5 342 304.5 339 302.5 337 300.5 337 298.5 339 297.5 342 296.5 342 296.5 345 295.5 345M282.5 365 284.5 373 284.5 377 282.5 381 280.5 383 276.5 385 271.5 385 264.5 376 263.5 369 267.5 369M271.5 309 274.5 315 271.5 323 271.5 327M280.5 308 282.5 310 282.5 316 280.5 326M290.5 306 288.5 320 288.5 327 290.5 326 290.5 325M299.5 308 299.5 320 298.5 328 299.5 328 300.5 326M309.5 314 311.5 325 314.5 331M316.5 321 321.5 330 324.5 340 324.5 343M252.5 312 255.5 317 254.5 330 252.5 337 250.5 340 248.5 340 247.5 332M248.5 322 247.5 321 245.5 321 243.5 324 241.5 334 238.5 343 236.5 344 236.5 339M235.5 328 233.5 329 229.5 340 229.5 359M289.5 541 290.5 543 278.5 545 266.5 545 247.5 543 206.5 534 203.5 534 202.5 535 204.5 540M181.5 514 179.5 514 178.5 518 178.5 526 181.5 552 188.5 573 190.5 573 193.5 571M211.5 527 206.5 542 204.5 566 206.5 579 207.5 577M300.5 537 298.5 537 286.5 561 282.5 579 284.5 580M341.5 535 337.5 545 327.5 564 326.5 569 323.5 574 321.5 575 318.5 575M248.5 577 250.5 575 247.5 572 246.5 572 239.5 612M209.5 548 206.5 573 203.5 615M290.5 550 292.5 546 293.5 549 294.5 555 294.5 571 289.5 601 287.5 607 285.5 610" fill="none" stroke="black" stroke-width="2" /></svg>