<?xml version="1.0" encoding="utf-8" ?>
<svg baseProfile="full" height="757" version="1.1" width="535" xmlns="http://www.w3.org/2000/svg" xmlns:ev="http://www.w3.org/2001/xml-events" xmlns:xlink="http://www.w3.org/1999/xlink"><defs /><rect fill="white" height="757" width="535" x="0" y="0" /><path d="M294.5 523 296.5 525 300.5 525 304.5 522 311.5 514 316.5 506 321.5 492 324.5 478 323.5 465 319.5 452 310.5 443 294.5 439 286.5 440 275.5 445 266.5 455 261.5 470 259.5 489 260.5 509 262.5 517 267.5 526 273.5 529 285.5 530 288.5 529 288.5 526 286.5 524M304.5 476 305.5 477 305.5 475 300.5 478 300.5 480 304.5 480 304.5 476 302.5 476 303.5 479 305.5 478 305.5 476 304.5 476M282.5 479 283.5 478 282.5 474 280.5 474 279.5 475 279.5 479 280.5 479 282.5 475 282.5 473 280.5 473 279.5 474 279.5 477 281.5 477M313.5 485 314.5 486 314.5 490 311.5 494 298.5 504 290.5 506 280.5 506 277.5 505 274.5 497 273.5 488M304.5 439 307.5 439 315.5 443 315.5 444 321.5 451 326.5 466 327.5 476 328.5 478 328.5 480 327.5 481 325.5 468 321.5 452 318.5 446 316.5 444 317.5 444 323.5 451 325.5 457 327.5 467 327.5 476 326.5 476 326.5 470 324.5 459 320.5 450 318.5 447 317.5 447 317.5 446 316.5 446 316.5 448 318.5 450 319.5 454 321.5 470 321.5 477 318.5 478 318.5 455 317.5 449 316.5 448 319.5 453 319.5 470 318.5 475 317.5 475 317.5 472 318.5 470 318.5 459 315.5 449 316.5 451 318.5 465 318.5 479 316.5 480 315.5 476 314.5 458 312.5 453 312.5 451 311.5 451 311.5 449 310.5 449 310.5 448 310.5 472 309.5 476 309.5 460 310.5 454 310.5 447 311.5 446 311.5 471 310.5 472 309.5 470 307.5 452 309.5 443 310.5 443 312.5 451 313.5 469 310.5 452 310.5 447 312.5 447 314.5 451 315.5 460 315.5 471 313.5 463 311.5 449 310.5 445 309.5 445 309.5 462 308.5 468 307.5 468 307.5 465 306.5 463 306.5 442 306.5 465 305.5 469 304.5 470 303.5 469 303.5 445 303.5 451 301.5 460 299.5 466 298.5 467 299.5 455 302.5 443 302.5 452 301.5 453 298.5 466 297.5 466 298.5 464 299.5 455 303.5 445 304.5 445 304.5 449 302.5 458 300.5 463 297.5 468 296.5 468 297.5 456 299.5 450 303.5 442 296.5 461 296.5 463 294.5 466 294.5 463 295.5 461 297.5 449 298.5 446 299.5 446 296.5 450 292.5 459 290.5 462 289.5 462 289.5 461 290.5 457 292.5 455 297.5 443 299.5 443 296.5 447 290.5 458 285.5 464 282.5 465 285.5 457 291.5 445 295.5 441 295.5 440 295.5 442 291.5 446 283.5 462 281.5 464 285.5 457 288.5 454 294.5 444 294.5 443 293.5 443 288.5 447 277.5 464 283.5 456 286.5 450 291.5 446 293.5 443 283.5 457 280.5 464 286.5 459 294.5 449 297.5 448 297.5 447 295.5 448 290.5 455 284.5 461 285.5 453 290.5 441 289.5 441 283.5 449 276.5 463 273.5 466 275.5 464 276.5 464 282.5 447 277.5 452 270.5 465 272.5 463 275.5 455 276.5 454 278.5 446 279.5 445 279.5 444 277.5 444 276.5 445 269.5 458 267.5 463 267.5 465 269.5 462 273.5 451 273.5 448 275.5 443 275.5 442 273.5 442 269.5 446 264.5 461 264.5 465 266.5 465 268.5 459 269.5 444 266.5 451 262.5 465 261.5 466 261.5 468 264.5 465 267.5 458 270.5 443 270.5 447 267.5 455 273.5 445 279.5 441 285.5 440 297.5 440 299.5 441 297.5 440 285.5 441 284.5 442 279.5 443 272.5 447 270.5 450 269.5 450 279.5 446 292.5 443 306.5 444 306.5 445 303.5 443 302.5 441 294.5 437 282.5 440 274.5 445 278.5 446 295.5 441 302.5 441 307.5 442 311.5 453 311.5 457 310.5 458 308.5 453 307.5 446M295.5 527 295.5 529 292.5 535 291.5 540 290.5 541 290.5 536M279.5 529 278.5 531 278.5 535 280.5 542 280.5 540 279.5 539 280.5 539 280.5 540 272.5 540 270.5 541 267.5 540 257.5 540 255.5 541 252.5 541 251.5 536 251.5 527 250.5 526 250.5 519 249.5 517 249.5 511 248.5 509 248.5 505 247.5 500 246.5 500 246.5 498 245.5 498 245.5 497 245.5 498 243.5 498 243.5 499 238.5 506 236.5 511 237.5 526 238.5 529 238.5 536 239.5 539 239.5 544 240.5 546 240.5 554 241.5 554 241.5 555 243.5 555 243.5 556 257.5 556 259.5 555 263.5 555 266.5 558 266.5 568 265.5 573 265.5 614 266.5 617 266.5 630 268.5 637 269.5 637 275.5 631 277.5 621 278.5 620 281.5 606 281.5 603 282.5 602 311.5 602 311.5 610 310.5 615 310.5 627 311.5 628 312.5 628 316.5 623 318.5 617 320.5 606 320.5 593 321.5 591 321.5 583 320.5 575 319.5 573 319.5 560 318.5 559 318.5 556 325.5 559 330.5 559 331.5 558 332.5 553 332.5 545 331.5 543 326.5 542 308.5 542 304.5 540 295.5 540 293.5 539M303.5 556 303.5 553 302.5 552M302.5 548 299.5 542 296.5 550 295.5 551 292.5 553 285.5 554 282.5 552 275.5 543 273.5 539 273.5 537 274.5 538 274.5 540" fill="none" stroke="black" stroke-width="2" /></svg>