<?xml version="1.0" encoding="utf-8" ?>
<svg baseProfile="full" height="757" version="1.1" width="535" xmlns="http://www.w3.org/2000/svg" xmlns:ev="http://www.w3.org/2001/xml-events" xmlns:xlink="http://www.w3.org/1999/xlink"><defs /><rect fill="white" height="757" width="535" x="0" y="0" /><path d="M250.5 364 251.5 364 251.5 359 250.5 356 250.5 343 244.5 343 244.5 363 245.5 363 245.5 367 244.5 367 244.5 366 235.5 366 234.5 367 231.5 367 227.5 369 202.5 377 197.5 380 183.5 385 176.5 391 173.5 395 168.5 406 164.5 413 161.5 416 160.5 420 164.5 414M252.5 365 259.5 368 269.5 368 281.5 370 287.5 372 289.5 374 289.5 375 292.5 376 295.5 379 299.5 381 301.5 381 308.5 385 314.5 391 318.5 393 332.5 404 340.5 412 341.5 414 341.5 422 340.5 423 340.5 420M341.5 426 337.5 424 332.5 424 330.5 423 326.5 423 323.5 422 303.5 422 291.5 420 286.5 420 277.5 418 242.5 418 239.5 417 218.5 417 215.5 418 211.5 418 199.5 422 193.5 422 192.5 423 180.5 423 179.5 424 162.5 424 161.5 426 166.5 424M251.5 374 250.5 371 250.5 367M250.5 367 250.5 366 260.5 377 271.5 385 275.5 389 278.5 393 287.5 402 290.5 406 296.5 420 295.5 416 293.5 413M248.5 369 253.5 382 256.5 409 256.5 402M245.5 373 245.5 369 246.5 369 246.5 368 246.5 369 245.5 369 232.5 401 230.5 408 230.5 414 229.5 418 229.5 412M243.5 370 243.5 371 240.5 374 228.5 381 214.5 392 205.5 402 198.5 408 197.5 412 195.5 414 193.5 420M256.5 398 256.5 404 258.5 418 258.5 420 257.5 420 257.5 417M263.5 389 262.5 387 261.5 387 261.5 389 262.5 387 261.5 386 259.5 386 258.5 387 258.5 389 260.5 391 261.5 391 262.5 389 261.5 387 259.5 387 259.5 388 261.5 389 261.5 388 260.5 388 260.5 389 261.5 389 261.5 387 259.5 386M228.5 387 229.5 388 230.5 387 230.5 385 229.5 384 227.5 389 228.5 390 230.5 390 231.5 389 231.5 387 230.5 386 228.5 387 228.5 389 229.5 389 229.5 386 228.5 388M270.5 394 272.5 392 274.5 392 275.5 390 274.5 393 271.5 397 260.5 406 253.5 410 242.5 410 230.5 405 223.5 401 221.5 399 218.5 393M245.5 419 248.5 434 248.5 468 244.5 501 243.5 502 241.5 509 239.5 512 235.5 516 231.5 517 227.5 512 227.5 510 226.5 509 225.5 505 225.5 500M242.5 417 244.5 430 244.5 445 243.5 453 242.5 455 242.5 471 241.5 472 240.5 482 239.5 483 239.5 488 238.5 489 237.5 496 236.5 496 235.5 498 233.5 498 232.5 496 230.5 495 229.5 491 228.5 490 228.5 491 226.5 493 226.5 502 227.5 505 227.5 502" fill="none" stroke="black" stroke-width="2" /></svg>