<?xml version="1.0" encoding="utf-8" ?>
<svg baseProfile="full" height="757" version="1.1" width="535" xmlns="http://www.w3.org/2000/svg" xmlns:ev="http://www.w3.org/2001/xml-events" xmlns:xlink="http://www.w3.org/1999/xlink"><defs /><rect fill="white" height="757" width="535" x="0" y="0" /><path d="M372.5 156 370.5 156 369.5 155 369.5 153 366.5 159 359.5 187 360.5 195 362.5 197 363.5 200 369.5 201 373.5 199 379.5 192 380.5 188 380.5 179 378.5 168 373.5 160 368.5 156 368.5 157M375.5 179 376.5 179 376.5 176 375.5 176 373.5 179 373.5 181 374.5 182 376.5 181 376.5 179 375.5 179M366.5 181 366.5 177 365.5 176 364.5 177 364.5 182 365.5 183 366.5 180M374.5 183 374.5 186 372.5 189 367.5 192 365.5 192 362.5 184 362.5 180 363.5 181M139.5 169 138.5 169 135.5 175 131.5 188 130.5 195 128.5 200 128.5 208 129.5 211 132.5 213 135.5 213 138.5 211 141.5 207 144.5 195 144.5 190 141.5 181 138.5 178 137.5 178 137.5 180M139.5 197 139.5 195 138.5 196 138.5 197 140.5 199 140.5 196 139.5 194M131.5 197 132.5 199 134.5 200 135.5 198 135.5 195 134.5 195 133.5 193 132.5 193 131.5 195 131.5 198 133.5 199 133.5 195M139.5 200 141.5 202 141.5 205 139.5 209 135.5 212 131.5 213 128.5 211 126.5 208 126.5 205 127.5 203 129.5 203 129.5 202M307.5 210 308.5 210 307.5 210 305.5 212 303.5 216 301.5 224 301.5 238 302.5 241 304.5 243 312.5 243 316.5 242 319.5 240 321.5 236 321.5 230 319.5 223 314.5 216 310.5 213 309.5 213M313.5 227 314.5 227 314.5 226 313.5 226 313.5 227 314.5 228 315.5 228 315.5 227M307.5 227 309.5 228 309.5 226 306.5 224 305.5 225 305.5 228 307.5 229 307.5 227M315.5 231 317.5 231 318.5 232 317.5 235 313.5 239 310.5 240 308.5 240 305.5 237 304.5 231M60.5 244 55.5 254 53.5 266 53.5 273 57.5 278 61.5 279 65.5 279 67.5 277 68.5 274 68.5 266 65.5 258 61.5 251 59.5 249 57.5 248 58.5 250 59.5 250M63.5 269 63.5 267 64.5 266 63.5 268 65.5 269 65.5 268 63.5 267M58.5 266 60.5 268 59.5 265 57.5 264 57.5 268 58.5 270 59.5 268 58.5 266 58.5 268M62.5 270 64.5 270 66.5 272 66.5 274 62.5 277 59.5 277 57.5 275 56.5 269 58.5 269 58.5 271M217.5 197 206.5 226 204.5 236 204.5 248 206.5 251 208.5 251 221.5 240 223.5 236 222.5 228 220.5 223 220.5 215 219.5 212 217.5 210 214.5 210 214.5 214M218.5 234 218.5 230 218.5 235 217.5 233M210.5 233 213.5 235 213.5 232 212.5 231 211.5 235 212.5 236 213.5 236 213.5 235M217.5 239 218.5 239 219.5 242 217.5 246 212.5 249 209.5 248 208.5 245 208.5 241 209.5 240M390.5 255 391.5 255 390.5 258 381.5 270 379.5 275 377.5 287 378.5 291 382.5 291 388.5 286 390.5 282 391.5 278 391.5 263 389.5 259M388.5 275 389.5 275 389.5 274 388.5 274M385.5 275 385.5 276 386.5 276 385.5 276 383.5 274M388.5 279 389.5 280 388.5 284 384.5 287 381.5 287 379.5 282 379.5 280M114.5 289 115.5 289 111.5 291 108.5 298 104.5 312 102.5 323 104.5 325 107.5 326 111.5 326 114.5 325 116.5 323 118.5 319 118.5 310 117.5 305 111.5 294 109.5 292 110.5 296M112.5 311 113.5 313 114.5 313 114.5 312 113.5 312M107.5 313 109.5 315 107.5 313 107.5 315 108.5 315 108.5 314M114.5 316 115.5 317 115.5 321 112.5 326 110.5 327 106.5 327 104.5 323 104.5 320M266.5 254 266.5 253 264.5 254 261.5 258 258.5 264 255.5 275 255.5 281 256.5 284 261.5 288 264.5 288 278.5 283 281.5 281 282.5 275 281.5 271 273.5 254 271.5 252 271.5 251 269.5 251 269.5 252M272.5 268 273.5 268 273.5 266 272.5 266 272.5 270 273.5 270 272.5 267 271.5 267M274.5 274 275.5 274 276.5 276 274.5 279 268.5 282 262.5 282 261.5 280 261.5 272M263.5 270 264.5 269 264.5 268 263.5 268 263.5 271 264.5 271 264.5 267 263.5 267" fill="none" stroke="black" stroke-width="2" /></svg>