<?xml version="1.0" encoding="utf-8" ?>
<svg baseProfile="full" height="757" version="1.1" width="535" xmlns="http://www.w3.org/2000/svg" xmlns:ev="http://www.w3.org/2001/xml-events" xmlns:xlink="http://www.w3.org/1999/xlink"><defs /><rect fill="white" height="757" width="535" x="0" y="0" /><path d="M73.17 63.29 72.82 78.13 71.37 92.79 71.5 101.32 73.35 111.62 80.25 119.88 102.18 133.52 114.6 139.52 120.56 140.29 125.2 136.02 132.98 132.03 140.06 126.28 148.93 111.81 152.19 104.85M75.81 84.44 67.68 83.98 64.6 86.3 66.58 90.01 69.92 92.42M162.03 95.76 163.92 106.06 161.77 109.86 156.58 112.64M110.44 45.48 104.81 54.2 99.85 57.72 91.19 66.91 82.49 71.64 79.02 76.28 75.5 78.87 71.02 97.71 70.71 103.64 71.33 106.52M121.42 51.41 129.77 60.41 137.07 64.31 153.37 71.17 157.77 74.79 160.8 79.62 162.21 86.11 161.02 103.18 159.17 110.79 150.43 130.46M111.49 36.2 99.19 35.18 89.34 38.98 81.57 43.53 74.05 49.65 69.92 55.22 66.76 60.97 63.55 69.41 57.35 103.74 57.22 114.68 78.67 127.49 85.3 128.79M126.96 44.55 134.78 39.54 141.59 38.15 150.25 39.63 161.68 44.55 169.15 52.25 174.11 59.95 177.41 68.2 177.94 72.1 177.59 88.8 176.44 98.54 171.43 119.69 166.25 134.91 165.24 136.21 157.68 138.9 139 135.65M87.94 93.72 95.8 87.87 98.97 87.32 103.76 88.8 114.39 94.46M126.35 97.99 135 91.31 143.57 88.8 147.22 89.17 155.61 96.87M94.18 111.16 105.78 120.44 119.84 124.33 131.22 122.11 144.89 114.68M123.45 100.03 118.08 109.21 120.06 110.32 122.48 113.2M115.27 143.26 109.91 157.45 111.18 161.44 114.52 164.13 116.72 164.69 126.81 166.24 128.46 165.9 128.89 149.47 129.47 146.97 130.56 146.41M114.74 159.59 96.81 164.41 78.36 173.13 70.23 179.35 56.08 194.65 51.29 201.71 43.51 217.38 35.25 243.45 34.5 247.54 35.55 250.69M134.87 168.31 158.52 165.41 168.67 165.99 172.75 167.29 181.8 173.04 184.71 175.36 193.98 185.84 197.89 193.08 199.34 198.55 201.54 220.72 201.93 246.52 201.23 262.1 200.75 264.98 198.24 264.05 196.39 264.61M38.28 256.26 52.21 255.42 68.16 257.18 67.63 256.72 69.79 247.07 73.08 235.38 75.24 230.47 79.1 226.01 86.09 223.41 90.53 226.29 93.39 230.56 94.27 233.34 92.16 245.68 87.41 259.5 88.42 262.29 89.74 263.03 132.63 260.9 153.46 261.45 164.45 260.9 162.6 256.44 161.33 249.58 161.55 239.28 163.13 233.99 165.54 230.37 169.32 228.05 173.06 227.5 177.41 229.45 179.43 232.23 179.96 234.36 180.35 239.84 179.52 251.34 177.94 260.99 178.73 263.4 181.15 264.33 186.29 264.61 205.71 263.31M51.81 257.93 44.83 263.96 43.55 267.2 43.68 268.97 41.09 270.73 39.29 275.09 41.44 275.37 43.46 274.07 49 272.58 48.7 275.99 43.11 285.2 43.16 286.13 44.87 287.24 47.82 287.06 54.63 283.44 62.62 276.11 63.92 271.3 63.33 262.75 63.94 258.67M187.61 270.73 188.84 281.68 193.36 289.93 195.47 291.23 202.68 291.97 203.16 291.14 202.37 286.41 200.61 283.16 211.69 284.92 209.23 279.82 201.4 273.42 199.91 270.73M104.9 267.57 97.39 276.02 94.84 280.38 84.19 303.63 64.16 364.8 64.29 365.73 73.74 361 79.06 359.33 88.07 359.33 91.67 360.07 102.7 364.52 108.55 368.33 105.52 364.89 107.23 359.7 129.55 314.8 131.53 312.66 132.32 312.57 132.28 315.26 129.91 328.16 129.42 336.13 131.36 351.26 136.06 354.04 157.11 351.53 170.51 352 175.52 353.39 180.27 355.9 172.14 350.61 166.6 343.28 159.14 323.18 157.8 309.05 157.81 280.18 159.79 263.64 162.38 263.79M79.41 364.18 82.71 374.1 79.76 380.08 75.54 380.39 77.43 379.91 80.29 380.88M147.09 357.23 147.75 372.16 146.74 373.28 173.04 372.91 159.44 373.69 160.14 365.76 161.06 363.35M99.8 364.83 97.56 375.5 98.53 379.12 98.09 380.33 98.04 364.83 75.11 364.77" fill="none" stroke="black" stroke-width="2" /></svg>