<?xml version="1.0" encoding="utf-8" ?>
<svg baseProfile="full" height="757" version="1.1" width="535" xmlns="http://www.w3.org/2000/svg" xmlns:ev="http://www.w3.org/2001/xml-events" xmlns:xlink="http://www.w3.org/1999/xlink"><defs /><rect fill="white" height="757" width="535" x="0" y="0" /><path d="M121.71 318.61 123.75 309.64 131.99 296.32 137.06 291.25 148.3 280.33 168.32 263.35 179.91 254.65 195.54 245 208.68 240.52 226.52 238.94 247.81 242.15 269.55 249.17 279.92 255.47 309.86 281.2 325.36 303.71 329.39 314.71 333.19 321.28 331.43 318.2 317.75 310.86 306.29 306.79 295.1 305.65 287.26 307.24 281.78 310.14 277.34 316.71 277.48 317.97 279.56 319.24 279.74 318.61 278.66 317.88 273.27 315.26 244.82 309.01 230.73 307.38 224.94 307.65 216.01 310.27 206.55 319.42 206.18 320.15 207.09 320.42 202.06 316.12 193.82 312.9 177.87 310.73 156.5 310.09 143.99 313.26 138.79 315.8 130.99 321.28 128.59 323.86 128.46 324.95 129.68 325.31 133.12 323.68M339.13 324.13 330.11 324.54 328.75 322.82 328.3 319.83 328.98 316.21 333.6 311.14 336.54 310.14 341.21 312.54 341.53 320.01 337.27 325.4 335.09 325.95 333.6 322.69M281.78 324.36 273.45 321.05 273.58 318.93 276.8 315.8 279.34 315.35 281.51 316.75 282.69 322.73 281.69 325.54 279.79 326.72 279.34 324.72M205.78 329.16 201.07 322.05 202.79 317.52 205.01 317.11 206.14 318.16 208.36 323.09 208.63 325.63 207.04 327.98 205.37 328.03 199.89 323.91 198.35 320.33 198.08 313.94M223.8 238.57 220.36 240.93 217.96 240.2 217.15 238.75 217.87 230.6 220.68 228.61 223.35 228.88 225.66 232.19 224.89 238.39 222.31 242.33 220.91 240.38 220.41 236.26M220.14 309.37 219 321.92 219.05 335.41 221.49 367.89 222.35 411.69 221.09 434.52 221.95 433.7 222.58 430.35M236.31 307.24 236.08 306.56 235.67 308.1 234.45 340.53 236.17 416.22 235.49 434.56M235.49 439.05 228.11 434.65 221.63 437.05 219.55 440.27 220 460.88 221 467.45 222.17 468.13 234.49 467.4 236.71 465.82 237.71 460.52 237.8 450.91 235.94 439.46 235.17 439.14 234.9 441.09M226.93 470.3 228.74 479.59 229.28 478.14M236.03 480.4 227.88 479.68 224.98 482.49 226.52 488.55 229.42 495.48 232.68 498.11 245.91 498.7 250.8 497.16 253.65 495.44 254.83 493.76 254.92 487.88 253.16 484.16 251.43 482.58 246.13 488.42 243.1 489.69 241.29 489.6 239.16 487.78 238.21 485.34 238.12 480.13 237.8 481.17M128.41 328.26 121.48 323.73 121.26 321.73 122.93 318.84 125.11 317.3 128.5 322.96 129.27 329.75 127.01 331.79 124.02 326.54" fill="none" stroke="black" stroke-width="2" /></svg>