<?xml version="1.0" encoding="utf-8" ?>
<svg baseProfile="full" height="757" version="1.1" width="535" xmlns="http://www.w3.org/2000/svg" xmlns:ev="http://www.w3.org/2001/xml-events" xmlns:xlink="http://www.w3.org/1999/xlink"><defs /><rect fill="white" height="757" width="535" x="0" y="0" /><path d="M184.76 56.44 184.62 71.12 186.3 80.54M146.44 31.89 145.81 44.08 148.34 47.52M198.85 163.79 196.13 173.57 196.45 181.23 198.12 187.8M178.33 140.46 174.98 155.14 175.07 162.07M237.62 111.88 236.26 123.71 237.08 131.68 239.93 141.69M218.23 124.38 216.29 142.41 218.23 149.21M236.67 85.07 234.58 94.44 236.31 99.52M274.53 100.11 273.49 112.11 274.17 118.99M265.93 166.96 266.2 189.07 269.46 195.18M80.13 218.19 78.23 226.57 79.99 243.51M91.36 180.69 90.05 190.24 91.77 192.24M134.75 180.91 133.3 192.01 134.75 195.95M335.73 26.59 334.05 47.2 334.46 59.61M347.51 99.16 345.47 109.3 346.69 110.48M297.64 33.75 295.33 41.95 297.59 58.8M290.03 134.94 289.12 143.32 289.66 149.16M387.41 79.32 388.72 130.82 390.81 141.69M372.64 40.14 370.33 49.78 370.7 54.9M409.33 114.15 410.33 129.46 410.1 144.63M410.92 185.12 408.16 197.63 409.29 202.79M441.9 178.83 444.16 187.75 444.89 194.77M467.04 48.88 458.89 101.74 457.03 121.4M443.3 25.32 441.18 40.45 441.49 52.86M491.27 65.27 491.14 74.38 487.24 110.21 486.83 130.14M499.56 17.76 498.56 37.19 499.15 40.23M514.01 54.72 512.38 67.81 507.94 90.01 505.22 112.88 505 127.69M509.3 163.79 509.71 185.71 511.25 189.07" fill="none" stroke="black" stroke-width="2" /></svg>