<?xml version="1.0" encoding="utf-8" ?>
<svg baseProfile="full" height="757" version="1.1" width="535" xmlns="http://www.w3.org/2000/svg" xmlns:ev="http://www.w3.org/2001/xml-events" xmlns:xlink="http://www.w3.org/1999/xlink"><defs /><rect fill="white" height="757" width="535" x="0" y="0" /><path d="M265.11 105.38 257.48 100.59 252.52 103.31 243.6 109.99 210.97 137.89 184.85 157.86 108.91 213.12 102.23 217.2 108.68 212.35M200.63 116.85 213.28 115.31 241.82 116.14 271.43 117.44 311.32 120.81 352.63 127.78 406.82 139.13 423.49 141.2 404.69 143.32 390.87 143.44 350.8 141.08 303.52 141.08M326.21 147.16 309.02 151.89 279.23 165.96 257.6 174.76 248.62 176.71 239.99 176.66M238.45 147.16 235.68 169.5 233.55 178.25M170.02 182.51 193.78 176.3 259.85 164.42 326.57 157.15 350.97 157.03 352.28 157.57M273.38 165.96 268.36 173.05 263.81 201.42 262.27 223.52 257.54 256.68 256.48 279.49 252.46 308.51 247.02 328.54 240.7 343.26 239.52 348.1 238.04 347.69 236.8 339.36M234.91 175.77 237.15 174.29 239.69 174.76 241.17 193.91 240.94 216.13 237.8 253.13 221.37 359.09 219.31 377.77 219.25 389.53 216.82 404.25 217.24 405.43 219.9 401.11 221.32 395.5M316.88 121.04 321.72 121.81 342.94 130.03 384.54 137.77 413.15 140.25 442.87 148.29 450.85 151.66 447.07 153.96 435.19 155.5 408.18 156.98 386.97 156.15 313.63 147.22 310.02 145.69M246.67 103.96 237.57 106.15 203.17 128.9 98.39 191.9 76.88 208.27 64.41 219.56 59.98 229.08 64 232.56 79.84 230.26 87.64 227.01 102.94 218.97 144.19 195.92 196.91 174.71 214.46 168.56M337.68 161.76 366.16 161.53 377.69 162.53 407.77 168.03 432.29 171.22 462.43 171.34 466.98 170.51 464.5 169.45 453.98 167.85 437.38 166.14 423.31 162.83 409.72 157.86 378.81 133.99 351.15 123.94 335.67 121.52M231.95 306.2 230.71 297.1 232.07 297.16 223.27 309.98 225.33 311.28 234.26 311.87 239.04 317.02M258.13 185.64 252.99 224.11 251.4 252.89M250.57 298.69 248.97 327.18 253.7 330.43" fill="none" stroke="black" stroke-width="2" /></svg>