<?xml version="1.0" encoding="utf-8" ?>
<svg baseProfile="full" height="757" version="1.1" width="535" xmlns="http://www.w3.org/2000/svg" xmlns:ev="http://www.w3.org/2001/xml-events" xmlns:xlink="http://www.w3.org/1999/xlink"><defs /><rect fill="white" height="757" width="535" x="0" y="0" /><path d="M335.08 224.11 325.92 223.4 318.77 227.54 311.26 232.44 305 237.94 301.75 244.44 301.45 282.62 305 301.12 310.2 312.58 314.16 317.19 322.49 322.1 337.8 326.47 344.65 327.18 351.27 327 358.48 325.47 366.22 322.51 376.03 315.95 383.89 306.67 394.83 289.12 396.6 283.15 397.25 272.16 397.07 238.77 394.59 230.14 392.52 225.94 389.98 223.23 384.66 220.03 372.6 217.73 361.14 213.89 355.76 213.06 342.76 213.42 328.87 216.78 324.44 218.44 317.58 222.58 308.31 230.91 306.53 233.45 304.82 240.48M317.23 251.06 326.45 247.81 327.1 248.87 328.99 249.11M361.91 255.08 355.58 248.87 354.99 249.41M357.59 256.85 366.52 254.43 370.83 258.74 374.2 260.64 373.49 261.94 370.83 262.53M330.29 261.94 322.14 260.46 319.18 262.53 318 266.84 320.3 268.61 325.98 267.55 328.28 266.13 330.11 262.7 330.05 261.11 327.87 258.98 327.1 259.33 327.04 260.64 328.05 261.11M343.11 260.4 337.74 271.98 337.26 274.35 339.16 278.13 338.68 278.6 344.53 280.49 348.02 279.31 354.28 280.49 354.11 277.06 351.09 279.78M335.73 294.79 348.37 292.61 352.63 293.85 355.35 296.27 355.47 297.04 352.16 296.8 344.77 298.1 343.71 297.63 342.76 294.62 342.41 296.21 339.33 298.58M341.52 327.71 337.97 336.28 338.21 340.06M357.12 329.07 356.83 337.17 358.3 345.09M311.38 350.7 321.96 347.87 340.63 347.33 355.17 344.85 356.53 344.97 358.54 349.87M389.74 350.82 400.14 360.63 404.75 363.11 404.99 365 410.84 370.68 411.73 375.82 411.31 382.14M410.84 378.12 406.05 382.97 404.16 407.61 404.93 417.84 408.48 433.2 408.89 438.46 403.75 462.87 403.75 474.04 405.29 477.88 408.06 481.96 408.71 481.61M381.59 387.76 384.84 396.8 385.07 400.11 382.06 423.45 384.96 437.22 387.85 445.67 389.51 457.85 390.63 479.42 394.06 485.51 394.29 487.58 394.65 485.33M304.47 394.97 303.34 433.74 305.53 443.78 308.01 470.5 317.17 483.62 321.43 492.24 331 504.06 321.19 503.77M310.73 386.69 302.63 393.25 301.87 394.97M292.59 367.43 278.46 372.92 274.15 372.27 260.08 363.35 252.34 357.2 259.32 354.25M267.65 333.68 264.46 351.94 265.34 376.47 266.64 370.91 266.52 367.43M241.47 386.46 247.08 394.91 251.69 395.74 271.31 396.68 291.11 399.75 300.21 397.57 304.94 395.32 296.55 393.25M340.04 401.94 339.98 414.82 338.21 432.2 341.28 458.74 346.78 470.55 347.13 475.81 344.53 476.52M354.88 416.83 346.37 420.97 350.5 418.37M339.57 444.91 338.15 453.06 338.86 455.37 340.87 452.35M340.63 364.29 334.84 371.98 334.72 374.93 337.62 376.88M328.1 375.29 336.61 373.22 344.42 381.37 349.79 385.57 355.17 382.85M365.28 364.29 356.71 366.9 349.14 377.18 347.02 381.85M349.56 445.97 351.09 463.7 354.93 475.58 354.17 479.42M372.43 485.15 359.72 484.15 350.5 484.92 344.06 486.39M368.23 485.27 357.71 485.57 341.99 490.35 319.3 500.28 325.33 496.79 331.06 495.44 340.51 494.73 360.67 497.92M372.84 405.72 374.85 418.37 380.05 430.43M328.87 495.55 328.52 493.19 322.84 512.4 320.01 529.89 318.47 558.55 319 576.46 321.37 593.36 321.6 608.37 319.89 617.12 320.19 617.89 323.49 613.63 325.33 610.09M374.73 488.88 376.33 500.64 374.5 522.62 375.74 539.52 382.95 567 383.66 579.83 378.99 610.38 378.46 625.22 376.5 632.9 374.55 633.2 373.14 620.25M348.85 494.9 347.96 491.24 345.07 521.5 343.65 541.41 343 572.03 346.07 604.71 346.19 620.96 345.07 632.43 346.01 634.44 348.08 629.12M324.97 612.92 332.71 610.32 342.11 614.05 358.07 615.58 372.07 614.46 371.72 617.06M334.25 618.3 322.79 616.65 348.97 618.36 368.23 621.38 362.91 621.85M334.49 625.34 326.98 621.49 324.09 623.8 317.17 632.07 317.94 633.43 337.26 625.39 336.5 624.57 330.76 624.15 316.82 626.81 311.85 629.12 313.92 632.78 317.58 631.66M315.28 631.72 300.15 635.8 298.79 637.45 298.61 640.05 296.13 641.29 300.33 642.41 316.82 640.52 317.94 652.82 324.85 643.89 328.4 640.52 338.74 634.91 335.61 637.98 337.32 639.11 351.45 636.8 366.4 636.86 379.58 631.19 381.17 627.64 380.82 624.27 374.38 620.13 371.66 620.31 370.12 623.09 377.63 626.93 381.65 630.65 381.53 642.65 375.62 643.83 368.59 643.83 363.09 642.65 361.49 639.87 360.67 635.97 357.83 633.43 355.41 632.72 361.44 626.75 361.67 624.63 357.53 623.68 350.09 624.33 338.39 622.97 334.6 621.43 334.78 620.84 342.52 621.67M265.87 337.11 264.57 334.1 261.09 333.09 239.22 333.21 216.76 330.96 205.42 334.98 203.59 345.21 214.99 348.28 243.6 345.62 260.38 342.25 267.47 337.94 239.1 337.29 228.17 340.12 234.55 339.71 215.94 358.03 208.31 378.36 208.2 387.4 229.12 384.62 253.52 379.84 264.34 381.67 267.71 383.32 264.93 383.97 258.37 377.47 248.5 362.4 248.97 362.11M243.36 375.17 236.92 380.19 235.97 383.09 237.57 402.83 228.82 393.55 218.72 390.06 210.21 388.11 222.38 379.72M303.93 266.84 295.36 266.6 286.44 270.09 284.49 273.52 289.45 284.57 296.19 287.88 305.06 286.4 307.12 287.88M391.87 261.23 402.33 262.7 411.08 266.13 402.98 276.71 401.68 290.48 400.56 293.08 396.13 290.78 387.91 281.62 383.54 273.99M303.64 238.35 303.46 236.52 307.77 235.46 314.16 231.09M323.26 224.64 327.4 224.23 337.62 232.8 354.46 231.32 369 226.48 394.35 232.62 395.89 230.14 392.11 228.72 389.33 224.17 391.46 213.53 390.75 212.47 385.78 222.22 381.41 227.24 377.39 221.39 374.44 209.22 368.17 208.33 360.84 215.13 353.81 211.41 345.3 203.01 327.16 210.4 318.71 208.92 312.5 212.29 312.74 220.98 312.98 220.27 308.31 220.33 304.41 229.19 332.48 220.86 352.22 225.65M392.34 232.86 401.03 235.1 396.6 245.62M309.61 362.64 300.62 364.06 296.61 368.79 289.45 372.1 283.72 350.11M332.42 298.34 343.41 298.75 351.62 296.15M356.35 261.99 363.86 266.13 366.46 266.13 370.06 261.88 368.59 258.51 366.28 259.45M359.78 250.82 369.59 246.81 380.17 247.75 380.52 254.08 379.46 254.02M321.6 253.9 313.45 254.08 314.39 254.73 316.82 251.42 319.36 251.12M402.8 425.99 399.97 413.64 400.08 411.1 401.5 410.04 407.12 410.98 409.54 431.49 410.9 477.82 407.89 474.69 402.92 458.91 395.12 455.6M355.7 633.02 379.16 633.08 381.06 632.78 375.56 631.19M329.82 617.42 328.93 616.77 332.48 614.99M313.74 351.77 297.85 352.95 292.53 350.76M329.52 303.07 344.95 297.69 349.08 297.75M393.94 233.8 395.53 223.17 395 218.56 392.99 218.02 390.51 213.59 381.29 213.24 378.69 213.89M367.34 215.42 357.71 214.48 351.15 210.34M323.14 210.46 314.98 210.34 303.76 215.96 298.08 230.44 301.51 238.71 302.34 231.85M312.5 213.18 313.98 212.29 321.96 212M337.68 221.04 344.65 222.63 354.64 220.39 357.06 211.17 367.76 201 374.97 202.6 393.88 211.41 393.17 215.25 395.36 220.03 397.43 231.14 393.29 238.47 392.11 236.82M297.26 226.59 299.68 238.59 290.16 247.4 292.65 246.33M350.27 516.89 351.51 527.7 349.97 535.56M346.84 551.4 347.43 570.49 345.89 591.18 350.97 611.98 352.16 630.71 354.05 629.18M374.97 621.02 373.02 619.43 373.43 618.66 383.18 622.73 390.33 628.11 389.21 634.79 386.49 637.21 383.83 628.94 374.55 628.88 362.79 632.55M246.43 333.8 251.28 336.93 256.36 366.54 254.17 386.28 254.17 388.17 255.83 387.17 255.89 383.68M238.51 344.32 241.17 351.41 242.77 391.48 243.89 401.11 247.32 393.37 246.02 385.81M235.44 360.87 227.99 341.66 218.48 348.57 211.27 357.5 223.86 360.39 225.63 371.5M212.33 386.22 208.55 388.05 208.49 390.89 229.23 393.25 257.19 389.06 254 391.13M320.84 331.79 331.3 332.2 335.08 334.75 340.4 340.54 343.29 340.42M362.26 327.65 353.46 335.69 346.13 346.33M360.73 333.5 357.59 341.66 358.07 346.33 361.55 349.64 362.62 344.56 362.14 347.87 367.29 353.95 386.43 362.46 397.66 360.34M406.59 453 405.94 462.75 404.4 469.85 395.65 478.18 388.27 468.49 382.3 466.18 385.55 469.79 382 484.38 385.55 487.63 391.69 480.07 396.13 480.25 398.31 481.61 407 478.24 416.28 482.02 408.65 485.27 394.71 483.91 383.18 480.42 380.58 473.63 378.63 473.33 380.35 480.42 394.29 479.36 417.22 475.76 413.09 473.92 410.72 478.71 418.29 481.25M369.06 444.85 358.13 449.4 355.11 451.82M329.05 427.12 334.55 419.32 334.96 417.84 332.65 420.62M335.91 451.41 336.61 441.06 340.28 433.74M342.64 413.52 335.31 417.37 336.67 419.38 340.69 417.66 340.63 421.44M344.89 445.26 343.59 457.2 341.34 460.69M303.22 468.31 307.12 477.94 306.47 481.9 309.31 490.29 317.05 494.43 315.1 496.38 309.55 498.21 311.85 497.03 328.05 493.84 338.45 493.78 348.43 489.76 348.61 490.89" fill="none" stroke="black" stroke-width="2" /></svg>