<?xml version="1.0" encoding="utf-8" ?>
<svg baseProfile="full" height="757" version="1.1" width="535" xmlns="http://www.w3.org/2000/svg" xmlns:ev="http://www.w3.org/2001/xml-events" xmlns:xlink="http://www.w3.org/1999/xlink"><defs /><rect fill="white" height="757" width="535" x="0" y="0" /><path d="M199.98 248.28 188.58 261.58 185.8 268.02M105.25 508.61 96.5 504.36 96.21 505.48 98.81 508.26M297.85 242.37 294.66 234.75 293.12 249.94M437.91 415.83 433.24 423.33 434.36 428.48M169.43 174.17 167.89 185.4 166 191.55 160.56 198.88M318.77 95.1 311.97 109.34 309.49 124.71M394.18 193.85 396.24 204.37 402.04 211.35M427.03 235.75 439.09 232.62 444.23 235.1 446 238.89M476.2 359.39 467.1 372.92 473.72 375.29M484 413.52 483.88 424.34 492.51 419.73M140.83 87.06 132.73 86.12 135.51 96.04M91.36 248.52 84.09 262.7 86.28 268.44M486.19 512.81 477.56 516.18 486.07 513.46M482.17 581.16 490.83 505.82 491.5 494.49 493.5 438.49 492.83 379.82 499.5 311.16 505.5 279.82M381.17 100.65 390.45 101.84 394.23 111.47M316.23 144.98 326.92 146.34 327.51 144.03" fill="none" stroke="black" stroke-width="2" /></svg>