<?xml version="1.0" encoding="utf-8" ?>
<svg baseProfile="full" height="757" version="1.1" width="535" xmlns="http://www.w3.org/2000/svg" xmlns:ev="http://www.w3.org/2001/xml-events" xmlns:xlink="http://www.w3.org/1999/xlink"><defs /><rect fill="white" height="757" width="535" x="0" y="0" /><path d="M39.77 417.96 35.87 429.72 36.52 431.9M39.24 460.92 32.32 490.06 32.68 504.54M100.28 210.05 91.54 212.59 94.43 222.16M452.27 131.03 444.76 144.92 450.02 148.29M460.19 185.93 450.91 196.87 456.64 207.09M200.99 75.66 190.76 82.75 189.52 98.41M383.54 423.93 376.45 436.45 378.46 450.58M387.32 490.89 384.01 500.64 387.26 521.08M434.54 437.64 437.08 459.21 437.79 473.57 437.61 509.5M446.24 548.8 443.34 558.38 443.93 560.74M146.5 473.75 136.27 486.57 134.74 494.43M124.34 554.95 119.43 561.98 121.68 598.33" fill="none" stroke="black" stroke-width="2" /></svg>