<?xml version="1.0" encoding="utf-8" ?>
<svg baseProfile="full" height="757" version="1.1" width="535" xmlns="http://www.w3.org/2000/svg" xmlns:ev="http://www.w3.org/2001/xml-events" xmlns:xlink="http://www.w3.org/1999/xlink"><defs /><rect fill="white" height="757" width="535" x="0" y="0" /><path d="M274.68 211.46 266.17 210.7 250.57 218.73 242.77 224.05 236.74 232.39 226.4 252.89 225.04 259.33 225.57 265.54 229.29 283.21 230.36 294.85 239.69 303.07 250.63 315.3 264.75 316.19 274.86 320.33 280.06 321.63 288.45 321.15 297.26 315.54 311.03 310.22 315.93 307.44 322.96 300.23 324.56 292.19 324.5 274.29 318.29 239.06 316.99 235.64 312.27 228.9 298.91 214.48 280.24 204.49 275.98 203.49 272.2 204.08 262.86 212.17M255.71 252.6 262.92 245.98 266.52 246.98 272.79 245.62 274.21 247.87M295.36 243.32 308.96 234.93 300.51 242.73M274.92 256.79 266.76 260.75 262.98 263.94 265.52 267.2 270.25 267.25 272.49 261.7 272.02 260.16M306.95 253.07 300.09 257.33 299.8 261.29 305.88 266.96 306.89 265.66 308.01 257.21 306.71 252.83 303.28 249.88 296.01 248.34 294.48 249.11M286.97 251.36 294.24 258.33 292.88 266.84 295.13 268.14 294.42 264.3 295.72 257.44M284.14 287.53 300.15 276.95 302.16 278.6 304.64 278.48 311.62 275.82 310.43 279.07 311.91 279.55 311.68 278.54 309.84 279.49 306.18 279.72 295.9 285.4 295.36 285.52 294.66 282.38 291.94 280.61 286.85 280.14 280 283.27M235.09 236.4 234.02 236.11 232.66 232.92 233.84 227.01 237.51 220.98 240.94 219.09 246.2 217.55 258.01 218.26 260.38 223.05 260.85 233.86M259.49 213.06 260.38 203.9 264.16 199.41 268.48 195.57 273.2 193.03 280.71 193.03M296.84 195.86 302.28 208.39 302.28 216.43M301.63 203.78 310.79 203.72 314.57 206.44 327.34 209.16M231.48 253.72 231.07 242.08 227.4 232.8 226.69 228.01 227.11 222.34 227.99 221.87 232.25 222.69M243.83 214.89 247.44 207.21 255.24 199.82 260.38 197.04 261.74 202.48 261.38 210.05 259.14 221.63M232.13 245.68 233.61 235.75 231.01 234.93 221.26 239.77 212.75 252.72 211.8 259.33M233.37 251.83 222.79 264.06 219.54 269.56 218.89 273.7 238.28 281.85M304.23 314.3 299.91 321.15 298.79 329.84M233.9 350.41 238.63 343.31 248.15 342.96 254.59 340.12 269.13 337.17 278.34 331.79 281.48 331.91 290.64 335.28 296.37 333.33 309.37 326.12 312.15 325.88 315.58 329.84 317.58 334.51M318.47 332.5 323.26 325.7 329.82 331.61 343.17 331.91 347.55 336.64 349.32 345.15 354.99 346.09 358.54 349.34 361.02 362.11 362.79 364.95 368.23 368.2 371.01 371.09 375.62 387.17 377.69 388.53 383.12 389.53M244.36 346.15 242.3 356.55 234.61 364.89 221.85 376.53 216.47 387.93 214.81 394.55 209.61 404.19 198.62 410.63 198.33 419.2 201.05 422.33M245.31 375.88 244.25 385.45 236.62 397.33 235.03 405.96 235.26 410.04 232.78 417.54 227.52 421.27 212.63 423.87 208.43 422.51 209.5 420.97 215.23 420.97M278.34 375.11 273.5 389.71 271.9 397.98 271.55 416.24 277.34 432.55 280.71 453.83 286.15 454.83 296.72 455.01M316.99 374.4 323.14 380.67 323.49 391.54 326.51 400.52 333.07 409.86 334.43 416.6 327.63 437.05 322.9 445.44 314.69 452.47 313.8 452.41M335.43 364.53 338.51 373.57 343.59 380.25 344.53 385.45 345.77 407.91 354.7 410.04 372.31 404.66 381.11 407.61M372.55 399.75 372.19 408.15 370.3 412.82 378.51 417.13 384.96 418.49 385.84 418.07 385.84 415.53 389.09 416.89 378.75 400.29 376.98 400.94M208.31 420.44 199.33 427.65 194.19 433.38 207.78 436.93 216.59 436.75 217.3 434.27 215.17 431.96 206.42 426.59M204.53 437.7 213.28 437.22 212.92 441.66 211.45 445.38M287.92 455.07 288.1 450.88 286.85 451.11 286.8 452.12 288.1 463.29 286.8 465.89 282.84 469.61 280.41 474.1 279.64 479.6 275.8 486.81 265.28 497.56 264.99 510.45 261.62 517.01 259.49 523.63 255.89 539.11 256.18 540.94 259.79 543.6 267 541.53 266.41 540.88 269.36 541.12 269.95 538.87 273.5 534.97 270.6 529 270.54 527.29 279.05 508.32 288.75 494.19 289.28 488.76 286.2 481.9 286.38 476.82 288.45 475.58 289.69 473.69 289.28 468.84 293.3 461.51 298.08 460.51M315.69 453 322.37 462.4 323.67 469.85 328.1 482.08 343.47 499.69 352.39 515.47 354.7 526.17M332.18 444.85 332 436.57 333.13 437.81 332.06 446.44 346.6 466.71 351.74 475.16 354.28 481.67 355.11 486.93 358.07 491.18 363.15 496.26 364.69 503.06 362.97 512.16 367.4 513.46 370.3 516.77 363.86 528.94 358.95 536.27 361.73 542.48 362.74 543.19M271.55 535.92 275.8 532.43 280.41 534.8 286.38 536.57 289.04 536.21 291.35 533.61 289.04 532.67 287.62 534.38 289.45 537.16 285.08 545.97 283.31 546.44 278.94 545.26 272.02 545.26 265.82 541.06 261.68 539.76 261.09 542.77M354.99 527.23 363.5 522.92 379.16 521.73 386.79 516.95 390.04 517.42 389.21 519.31 392.05 522.03 388.74 522.5 382.12 526.34 376.09 528.06 361.14 526.58M277.28 454.89 273.56 469.2 278.17 485.33 278.88 491.71M305.35 451.88 303.34 461.99 299.5 475.11 297.2 490.23" fill="none" stroke="black" stroke-width="2" /></svg>