<?xml version="1.0" encoding="utf-8" ?>
<svg baseProfile="full" height="757" version="1.1" width="535" xmlns="http://www.w3.org/2000/svg" xmlns:ev="http://www.w3.org/2001/xml-events" xmlns:xlink="http://www.w3.org/1999/xlink"><defs /><rect fill="white" height="757" width="535" x="0" y="0" /><path d="M209.14,530.78 211.68,539.52 208.67,587.63 208.37,633.25     207.6,638.69 211.68,656.42 268.95,655.89 302.1,649.98 305.65,645.96 300.21,600.04 299.26,523.45 301.87,523.51 305.35,524.93     305.71,523.86 303.4,519.02   M301.57,521.68 309.67,524.93 328.16,525.28 341.34,525.28     356.12,522.21 367.17,521.5 368.59,522.21 369.89,528.12 369.95,551.11 372.13,568.6 371.66,591.59 372.55,594.72 372.07,607.84     369.18,613.69 368.88,616 371.19,616.47 375.56,615.76 381.11,612.81 387.14,610.86 418.4,603.71 428.87,599.21 430.34,597.44     430.05,591.41 426.32,572.68 425.44,552.64 426.8,529.59 427.86,479.07 433.36,448.57 435.01,422.57 435.01,410.57 432.88,391.07     429.63,379.48 429.04,359.33 433.36,364.83 441.33,380.84 447.95,390.42 453.27,395.03 456.88,403.06 462.55,407.5 470,417.01     472.07,418.19 474.55,418.43 477.03,416.3 486.84,416.24 486.07,407.73 486.72,400.82 486.43,390.36 485.3,376.53 485.83,366.72     484.06,353.72 483.53,341.25 484.24,335.1 481.05,334.57 458.71,320.21 449.08,315.24 440.74,306.08 435.72,303.72 432.17,300.82     431.35,297.1 435.13,295.27   M436.19,297.22 427.57,295.68 421.01,296.8 411.55,293.79     384.31,291.43 373.67,289.77 364.21,290.83 357.24,289.83 352.98,290.18 361.61,289.12 367.58,285.99 373.67,276.41 374.61,272.1     373.96,256.2 371.3,242.73 365.39,220.39 361.85,211.29 346.78,185.93 344.06,182.98 337.97,179.37 332.48,178.61 318.53,180.38     309.73,179.37 302.46,179.79 295.84,182.51 291.23,185.52 280.12,195.51 267.47,214.12 256.42,226.71 248.5,237.53 241.23,252.42     237.63,264.48 237.15,274.64 237.98,278.01 243.71,288.06 248.15,292.67 251.34,295.39 260.2,299.11 271.02,301.71 281.89,302.89     286.62,304.55 289.99,308.21 289.4,310.99 284.25,314.53 279.47,316.54 267.47,317.37 258.19,319.2 242.06,320.86 216.29,329.01     212.86,329.54 210.26,329.25 209.44,328.42 213.16,325.47   M287.03,240.36 286.5,239.49 283.78,248.28 282.01,248.34     281.06,242.61 282.95,239.95 286.32,241.37 287.5,243.5 288.27,247.87 287.74,248.99 284.61,248.87 281.65,243.61 281.06,240.36     283.13,235.99 287.27,236.82 289.63,241.66 289.69,244.74 286.91,245.51 283.19,243.26 280.89,238.77 281.24,236.46     283.37,238.35 284.55,244.03 283.43,248.4 282.6,248.93 280.41,246.57 280.41,242.26 282.42,241.61 284.14,244.5 284.25,247.34     285.32,247.04   M330.41,232.98 330.53,241.37 326.27,242.61 323.32,239.77     324.32,234.99 329.7,230.79 332.95,230.61 337.09,234.69 336.79,240.31 331.77,244.21 326.21,243.67 324.14,241.13 323.91,236.88     328.22,235.7 333.01,238.77 333.66,242.55 331,243.5 328.58,239.6 329.4,236.11 330.76,235.7 332.71,239.48 332.6,240.96     330.23,241.49 327.16,238.53 326.45,236.88 326.45,239.12 326.15,236.11 326.98,241.43 327.87,235.52 330.29,234.28     331.24,238.12 330.94,240.31 328.81,241.66 327.1,240.36   M296.49,273.4 302.63,278.6 311.2,281.08 316.93,281.38     320.3,278.31 321.78,273.52 322.14,266.6   M283.31,194.8 295.9,188.06 304.64,186.64 313.51,186.29     322.37,187.12 329.64,188.83 334.37,192.38 330,194.09 294.18,197.58 285.02,197.52 285.38,194.68 300.86,193.74 321.07,195.63     329.82,199.05 326.21,201.83 302.93,202.84 288.45,199.64 284.79,194.27 293.65,189.72 315.04,194.15 330.29,203.66     318.65,206.09 298.85,206.8 290.34,206.8 283.43,202.66 297.2,190.48 307.95,189.48 324.26,194.21 327.63,202.78 324.62,204.67     302.04,205.26 295.13,202.36 289.34,196.34 307.3,191.08 327.63,195.69 334.25,200.89 327.93,204.9 311.08,204.67 297.85,200.95     296.84,197.28 316.28,197.04 324.32,201.06 323.91,204.25 317.58,204.85 312.74,203.25   M483.53,336.58 482.29,332.32 483,323.52 484.42,318.91     488.55,311.76 494.94,307.09 500.49,305.55 505.16,305.49 507.29,306.44 509.53,309.1 510.24,312.47 505.22,324.82 503.15,326.47     507.52,326.35 516.68,329.66 520.17,336.4 520.35,339.18 516.68,343.02 506.4,348.99 517.33,353.89 526.14,363.88 524.48,369.02     518.93,375.23 511.42,378.18 504.1,379.37 502.62,378.95 507.23,378.36 512.55,380.72 516.33,385.1 517.45,390.95 516.51,395.97     514.2,401.41 512.67,402.89 511.01,403.6 501.91,403.54 498.07,404.72 503.8,416.18 505.99,424.52 506.11,426.35 505.16,428.12     499.01,431.02 495.82,431.31 477.8,413.58 480.58,412.46   M216.23,482.91 227.58,479.66 248.85,478.18 288.69,481.07     333.48,481.19 358.48,480.31 374.61,477.88 385.55,474.28 395.83,474.4 404.04,477.35 410.66,478.06 422.9,476.94 426.86,478.71     430.05,479.07 439.86,475.64 447.42,477.71   M203.65,606.72 196.26,612.69 176.76,621.61 165.7,629.35     154.18,639.11 137.04,649.39 133.97,651.99 130.66,656.48 134.86,658.73 142.78,658.96 155.95,656.07 171.14,654.71     196.97,656.54 219.84,654.18 223.68,651.93   M427.27,559.38 458.18,559.32 470.82,560.86 481.88,563.04     509.12,570.25 521.47,572.32 527.08,574.98 526.55,576.99 522.95,579.24 501.08,588.04 463.79,599.33 455.81,604 444.11,605.18     419.94,600.1 415.69,600.22 407.59,602.17   M280.12,381.91 275.27,374.34 275.03,370.8 269.42,353.07     268.71,344.67 265.99,337.94 268.24,340.54 271.13,341.96 273.26,344.14 277.34,351.23 284.67,360.39 293.71,368.08     297.96,368.85 303.52,371.86 308.13,372.33 311.73,375.41 313.57,368.31 321.37,366.42 329.94,371.74 338.68,380.13     338.62,379.07 345.89,366.42 354.93,348.28 359.13,336.93 362.97,331.61 368.53,327.89 370.18,330.55 371.72,346.86     370.18,356.43 365.34,413.64 361.97,424.69 356.77,435.86 354.23,443.49 351.86,454.54 348.43,460.51 343.11,464.17     338.51,464.94 329.35,459.15 306.77,439 275.86,396.15 272.32,388.11 265.93,381.73 265.76,379.54   M309.13,422.45 314.98,416.66 316.82,424.4 314.98,428.48     309.61,419.97 309.9,418.78 310.61,427.12 316.05,422.15 318.06,421.56 316.99,429.19 310.49,428.12 312.56,418.96 316.4,417.07     315.52,422.86 313.51,423.81 312.74,418.37 313.21,424.16 312.5,425.34 311.97,424.52 311.97,427.89 310.43,432.08 304.94,431.43     283.49,436.51 270.54,436.16 260.73,432.97 249.09,424.93 245.49,420.32 251.16,420.79   M317.35,432.85 328.87,433.44 342.82,431.67 356.53,429.19     367.17,425.64 376.62,419.2 382.89,410.63 383.36,405.84 386.32,402.35 392.46,400.29   M312.92,425.05 312.8,426.29 316.11,427.53 320.6,427.18     331.53,423.22 336.67,420.5 344.89,414.88 359.37,397.04 367.29,390.3 373.49,386.16 376.27,385.27   M296.72,426.11 276.99,420.73 265.64,416.72 247.55,408.03     231.95,406.2 232.78,404.36   M307.12,424.52 316.58,416.89 331.24,408.32 354.52,384.8     391.93,355.78 402.92,343.49   M309.61,424.81 307.66,426.17 302.93,422.15 290.87,417.37     262.98,400.58 222.26,388.17 213.63,383.68 210.26,383.38 211.33,382.91   M295.07,399.22 297.91,389.53 301.63,388.64 305.29,389.23     302.87,399.99 291.35,401.05 293.65,386.99 303.76,390.89 305.65,395.32 303.76,401.05 301.1,401.35 293.95,387.64 299.26,388.29     296.31,396.21 290.52,392.78 303.22,387.7 300.15,396.5 289.69,395.85 294.3,388.64 300.98,387.11   M325.86,399.87 332.71,393.08 338.39,396.8 337.38,398.63     331.89,399.99 328.81,398.57 327.22,393.25 329.05,390.65 335.85,396.21 329.82,399.52 327.75,397.69 326.33,392.54 327.75,398.4     324.74,403.89 322.61,394.08 323.91,388.58 323.38,395.32 325.86,393.08   M350.44,356.55 354.58,360.39 354.99,363.64 358.3,358.92     361.26,357.56 363.39,365.06 361.97,369.02 359.43,371.68 366.69,359.39 376.33,354.78 371.48,366.6 361.67,365.89 369.06,353.42     374.85,356.73 368.7,367.43 361.73,362.52 365.93,352.89 360.02,362.4 354.28,357.26 361.02,348.16 363.33,354.78 353.4,360.75     352.75,357.26   M273.03,368.96 263.16,363.88 261.92,361.93 271.43,367.13     275.03,364.95 276.45,357.2 272.91,365.54 271.9,371.74 274.98,360.81 275.98,353.36 279.41,366.13 279.59,376.29 272.85,366.01     270.48,358.86 272.32,368.96 274.33,369.2 273.91,362.7 270.78,367.25   " fill="none" stroke="black" stroke-width="2" /></svg>