<?xml version="1.0" encoding="utf-8" ?>
<svg baseProfile="full" height="757" version="1.1" width="535" xmlns="http://www.w3.org/2000/svg" xmlns:ev="http://www.w3.org/2001/xml-events" xmlns:xlink="http://www.w3.org/1999/xlink"><defs /><rect fill="white" height="757" width="535" x="0" y="0" /><path d="M223.5 213 221.5 212 215.5 217 212.5 231 215.5 240 221.5 247 228.5 248 235.5 246 241.5 241 244.5 234 245.5 225 243.5 220 239.5 214 233.5 210 229.5 209 224.5 210 222.5 211 221.5 213M286.5 208 282.5 209 278.5 214 275.5 226 275.5 233 277.5 237 279.5 239 283.5 241 289.5 241 295.5 239 301.5 234 304.5 228 305.5 215 302.5 211 298.5 208 288.5 204 283.5 204 281.5 205 280.5 207 279.5 207M198.5 212 198.5 210 201.5 203 205.5 197 213.5 193 221.5 194 229.5 197 242.5 204M274.5 196 274.5 193 277.5 187 283.5 182 292.5 180 301.5 181 309.5 184 321.5 194M253.5 261 267.5 258 270.5 258 268.5 273 264.5 276 261.5 276 257.5 272 254.5 266 254.5 264M187.5 209 189.5 227 195.5 244 203.5 258 209.5 265 215.5 271 229.5 281 236.5 284 245.5 287 251.5 288 264.5 288M271.5 289 270.5 287 272.5 286 280.5 286 290.5 281 292.5 277 295.5 278 296.5 275 306.5 265 314.5 251 315.5 248 316.5 248 321.5 235 323.5 224 324.5 222 325.5 205 324.5 203 324.5 196 323.5 196 323.5 195 322.5 197M273.5 287 271.5 288 273.5 288 285.5 285 293.5 284 299.5 280M275.5 286 273.5 287 279.5 287 285.5 285 291.5 281 297.5 273 306.5 265 307.5 265M283.5 285 291.5 280 296.5 275 302.5 267 304.5 266 311.5 258M325.5 206 327.5 204 333.5 202 337.5 203 340.5 205 342.5 210 342.5 224 339.5 229 337.5 235 334.5 238 327.5 242 318.5 245M179.5 215 174.5 213 170.5 214 168.5 219 167.5 225 167.5 232 168.5 238 174.5 246 194.5 254 196.5 253M185.5 226 184.5 228 184.5 232 186.5 239 185.5 239 185.5 238 180.5 234 174.5 233M329.5 212 329.5 226 329.5 223 331.5 219 334.5 220M332.5 214 331.5 209 332.5 208 334.5 209 336.5 212 338.5 221 335.5 227 332.5 229 331.5 231M181.5 221 179.5 220 175.5 221 172.5 228 172.5 237 177.5 242 185.5 246M242.5 286 242.5 295 241.5 296 243.5 296 245.5 298 251.5 301 255.5 302 260.5 303 268.5 303 269.5 302M280.5 288 280.5 291 278.5 297 277.5 297M240.5 292 239.5 292 239.5 291 235.5 289 229.5 288 223.5 285 203.5 281 189.5 275 170.5 275 169.5 274 167.5 274 167.5 273 163.5 273 162.5 272 164.5 272M162.5 271 161.5 271 159.5 293 159.5 313 161.5 317 162.5 322 164.5 325 172.5 331 186.5 336 190.5 338 194.5 342M284.5 298 301.5 289 321.5 283 330.5 282 346.5 274 348.5 275 354.5 272 356.5 272 357.5 273 360.5 282 365.5 291 366.5 296 367.5 297 368.5 304 369.5 305 369.5 312 370.5 313 369.5 322 369.5 320 368.5 320 366.5 328 363.5 332 351.5 342 346.5 345 344.5 345 340.5 350 338.5 351 335.5 356M194.5 348 199.5 379 201.5 430 202.5 437 203.5 441 204.5 442M343.5 359 343.5 358 344.5 358 345.5 356 345.5 355 343.5 355M341.5 353 339.5 353 340.5 355 344.5 357 351.5 373 359.5 387 361.5 392 364.5 395M204.5 440 204.5 441 203.5 441 210.5 435 220.5 430 236.5 419 238.5 419 257.5 411 279.5 400 304.5 392 328.5 386 346.5 386 350.5 385 360.5 388 363.5 390 365.5 394M250.5 192 250.5 194 250.5 193 251.5 194 254.5 203 255.5 213 256.5 214 256.5 219 257.5 219 262.5 201 263.5 203 264.5 212 267.5 215 268.5 215 269.5 211M240.5 168 248.5 183 249.5 187M259.5 169 259.5 171 265.5 185 267.5 198 267.5 192 267.5 195 273.5 203 278.5 203 282.5 199 280.5 193 278.5 191 276.5 185 275.5 184 276.5 184 278.5 186 284.5 194 293.5 200 302.5 202 307.5 202 307.5 201 308.5 201M301.5 191 301.5 192 304.5 196 314.5 204 320.5 206 324.5 206M242.5 179 241.5 179 239.5 189 233.5 201 229.5 206 229.5 207 228.5 207 228.5 187 227.5 182 224.5 179 222.5 182 220.5 189 213.5 201 201.5 217 196.5 221 192.5 223 193.5 223M240.5 130 241.5 129 241.5 127 236.5 125 229.5 125 221.5 127 214.5 129 205.5 133 199.5 137 194.5 139 186.5 145 174.5 163 167.5 180 164.5 193 164.5 207 165.5 207M164.5 201 164.5 210 163.5 214 161.5 218 158.5 221 157.5 221 158.5 218 170.5 209 170.5 207 169.5 213 169.5 217 170.5 218M191.5 253 191.5 254 199.5 261 207.5 264 211.5 264M248.5 126 249.5 123 256.5 119 267.5 116 271.5 114 274.5 114 282.5 112 290.5 112 296.5 113 303.5 116 307.5 119 327.5 141 334.5 152 338.5 160 340.5 165 342.5 176 346.5 190 348.5 195 350.5 197 353.5 198 351.5 198 345.5 193 341.5 191 338.5 191 343.5 204M329.5 241 329.5 240 323.5 250 316.5 256 309.5 258 309.5 260M208.5 153 200.5 168 193.5 196 193.5 205 194.5 208 195.5 207M205.5 185 206.5 183 207.5 183 207.5 187 202.5 205 201.5 206 201.5 209 202.5 209M286.5 144 286.5 143 288.5 142 294.5 146 302.5 158 310.5 172 316.5 180 322.5 186 327.5 197 325.5 196M324.5 181 324.5 182 332.5 189 335.5 190 336.5 189M265.5 152 286.5 170 292.5 178 295.5 184 298.5 187M202.5 149 200.5 150 188.5 163 181.5 180 181.5 182 179.5 185 176.5 193 177.5 195M237.5 143 238.5 143 236.5 145 234.5 149 230.5 161 228.5 176 228.5 185 229.5 190M158.5 285 158.5 282 159.5 282 160.5 280 160.5 281 159.5 281 159.5 280 157.5 280 156.5 279 147.5 279M140.5 284 137.5 282 132.5 285 130.5 288 131.5 290 133.5 291 133.5 292 141.5 292M143.5 279 143.5 277 140.5 272 134.5 269 125.5 269 119.5 272 112.5 280 110.5 285 110.5 296 112.5 300 117.5 305 120.5 306 128.5 306 128.5 304M139.5 305 143.5 307 153.5 308 161.5 310M263.5 245 263.5 246 263.5 245M300.5 244 300.5 243 299.5 243 297.5 245 294.5 249 293.5 251 294.5 251M302.5 246 303.5 245 303.5 246 301.5 248 299.5 252M227.5 255 227.5 262 226.5 263M361.5 284 362.5 282 365.5 282 369.5 280 372.5 276 375.5 276 376.5 278 377.5 276 377.5 272 377.5 277M370.5 305 369.5 306 370.5 306 375.5 303 382.5 303 386.5 301 387.5 301 387.5 302M390.5 275 389.5 275 389.5 274 394.5 272 399.5 272 401.5 274 397.5 281 391.5 283M381.5 270 381.5 266 384.5 260 388.5 255 391.5 253 401.5 251 405.5 252 408.5 254 411.5 257 417.5 266 420.5 275 421.5 285 420.5 289 416.5 295 410.5 299 403.5 302 398.5 302 396.5 301 393.5 297M398.5 266 396.5 270 396.5 274 397.5 274M213.5 438 213.5 458 214.5 461 214.5 468M279.5 418 280.5 423 280.5 432 281.5 440 281.5 458 280.5 460 278.5 461 278.5 462 271.5 463 260.5 466 252.5 466 249.5 467 237.5 467M215.5 473 245.5 473 246.5 471M226.5 472 226.5 500 224.5 505 224.5 515 223.5 515 223.5 514 220.5 511 217.5 510 208.5 510 203.5 514 201.5 521 201.5 524 203.5 528 209.5 531 238.5 530 238.5 529M264.5 468 259.5 508 257.5 516 257.5 519 256.5 521 257.5 523M285.5 417 291.5 444 294.5 449 299.5 455 301.5 456 306.5 458 326.5 454 343.5 453 361.5 449M348.5 385 349.5 393 356.5 420 361.5 434 366.5 444 369.5 455M280.5 420 277.5 420 281.5 427 284.5 424 288.5 428 290.5 437M310.5 457 313.5 466 328.5 501 332.5 514 339.5 528 347.5 537 348.5 537 348.5 536 351.5 533 356.5 531M336.5 453 347.5 475 351.5 485 355.5 500 359.5 505 360.5 505 360.5 503 364.5 495 370.5 491 379.5 488 381.5 488 384.5 490 387.5 497 387.5 501 382.5 508 370.5 521 359.5 528 353.5 535 352.5 538 354.5 536M224.5 476 224.5 477 225.5 476 232.5 475 246.5 476 257.5 474 264.5 474 264.5 475 266.5 475 265.5 479 264.5 503M347.5 466 348.5 465 348.5 469 347.5 467 347.5 469M347.5 460 347.5 459 337.5 464 327.5 467 315.5 473 310.5 478 310.5 479 309.5 479 324.5 511 329.5 519 331.5 524 337.5 533 339.5 533M347.5 462 351.5 472 353.5 482 356.5 493 358.5 497 358.5 499 360.5 495 364.5 490 370.5 485 374.5 483 382.5 483 387.5 485 391.5 493 392.5 497 390.5 507 383.5 515 354.5 531 347.5 536 344.5 537 344.5 535 342.5 534 342.5 532M262.5 510 262.5 502 261.5 518 259.5 522 257.5 529 256.5 530 256.5 532 254.5 535 254.5 534 252.5 533 239.5 533 238.5 534 229.5 534 226.5 533 226.5 532M220.5 508 221.5 510 222.5 510 222.5 511 222.5 510 220.5 510 217.5 508 208.5 508 205.5 510 202.5 517 202.5 524 204.5 527 213.5 534 231.5 535 243.5 538 246.5 538 249.5 537 249.5 536M228.5 476 227.5 475 227.5 482 223.5 508 223.5 516 224.5 516M259.5 343 260.5 345 259.5 337 254.5 335 247.5 335 246.5 336 244.5 340 245.5 348 247.5 349 252.5 349 253.5 350M262.5 344 263.5 342 266.5 341 274.5 341 278.5 340 278.5 339M279.5 338 280.5 333 282.5 331 286.5 329 291.5 330 295.5 338 294.5 340 291.5 341 292.5 339 298.5 341 302.5 346 304.5 353 305.5 354M254.5 352 252.5 354 251.5 354 249.5 359 250.5 364 252.5 368 256.5 370M261.5 363 261.5 362 278.5 355 293.5 353 295.5 353 296.5 354M261.5 374 264.5 375 294.5 369 303.5 365 307.5 362 307.5 361M259.5 377 250.5 381 244.5 391M245.5 391 248.5 393 254.5 394 257.5 392 261.5 384 263.5 385 266.5 385 266.5 386 269.5 386 270.5 387 269.5 395 268.5 395 268.5 398 277.5 398 278.5 396 282.5 394 284.5 392 289.5 394 292.5 394 292.5 395 296.5 395 298.5 394 299.5 390 302.5 386 305.5 386 307.5 387 315.5 387 319.5 385 321.5 381 321.5 378 320.5 377M285.5 380 281.5 380 280.5 386 281.5 386 283.5 388 286.5 387 293.5 380 284.5 380 282.5 381 281.5 383M233.5 312 231.5 321 231.5 327 233.5 331 235.5 329 237.5 317M254.5 315 254.5 324 256.5 329 257.5 328 257.5 320M288.5 305 287.5 310 289.5 318 290.5 319 290.5 307M304.5 323 305.5 332 306.5 337 307.5 338 309.5 338 310.5 336 310.5 329 309.5 325M230.5 356 229.5 356 231.5 378 234.5 376 235.5 374 235.5 369 236.5 366M321.5 358 321.5 364 325.5 371 326.5 371 328.5 364 328.5 357M222.5 346 220.5 350 221.5 359 223.5 360 225.5 356M325.5 339 324.5 340 326.5 352 328.5 353 330.5 352 332.5 348 332.5 341" fill="none" stroke="black" stroke-width="2" /></svg>