<?xml version="1.0" encoding="UTF-8"?><svg xmlns="http://www.w3.org/2000/svg" viewBox="0 0 535 757"><defs><style>.f{fill:#fff;}.g{fill:none;stroke:#000;stroke-width:2px;}</style></defs><g id="a"/><g id="b"><g id="c"><rect class="f" width="535" height="757"/></g><g id="d"><g id="e"><g><polyline class="g" points="89 56 90 56 89 62 68 124 64 133 62 140 61 150 60 151 61 148"/><polyline class="g" points="161 83 138 151 126 193 121 207 120 208 122 207"/><polyline class="g" points="237 36 237 39 235 45 233 56 228 71 217 115 202 215 200 221 201 216 202 215"/><polyline class="g" points="291 67 291 65 290 65 291 65 292 68 291 96 283 153 276 245 276 289 277 302 277 296"/><polyline class="g" points="357 39 356 40 356 43 358 48 360 59 367 122 374 174 377 225 382 260 385 273"/><polyline class="g" points="468 110 465 156 465 251 464 256 464 254"/><polyline class="g" points="165 329 164 329 161 336 154 357 147 372 145 374 145 375 145 374"/><polyline class="g" points="232 364 230 361 230 368 233 427 234 427"/><polyline class="g" points="356 375 361 393 370 414 379 426"/><polyline class="g" points="492 71 495 83 501 133 503 159 504 159"/><polyline class="g" points="511 262 512 269 511 278 501 315 484 368 482 379 484 377"/><polyline class="g" points="309 394 308 393 308 399 296 481 295 494 294 497 294 498 295 498"/><polyline class="g" points="393 488 399 503 401 510 402 512 402 511"/><line class="g" x1="189" y1="475" x2="188" y2="519"/><polyline class="g" points="93 467 92 466 100 515 108 548"/><polyline class="g" points="221 43 220 43 196 176"/><polyline class="g" points="369 53 368 60 384 173 389 196"/><polyline class="g" points="288 198 287 201 285 302 286 302 286 301"/><polyline class="g" points="162 308 161 308 160 310 122 393 119 405 121 412"/><polyline class="g" points="323 368 320 384 310 481"/><polyline class="g" points="77 53 49 147 46 165 47 164"/><polyline class="g" points="80 229 80 234 70 323 70 324 71 324 73 322"/><line class="g" x1="422" y1="214" x2="437" y2="303"/><line class="g" x1="520" y1="269" x2="490" y2="377"/><polyline class="g" points="505 71 505 70 504 70 517 141 518 150 516 159"/></g></g></g></g></svg>