<?xml version="1.0" encoding="utf-8" ?>
<svg baseProfile="full" height="757" version="1.1" width="535" xmlns="http://www.w3.org/2000/svg" xmlns:ev="http://www.w3.org/2001/xml-events" xmlns:xlink="http://www.w3.org/1999/xlink"><defs /><rect fill="white" height="757" width="535" x="0" y="0" /><path d="M373.84 41.73 356.7 43.09 352.51 50.6 350.91 84.93 389.15 88.77 397.42 80.5 399.31 98.05 427.44 113.36 436.6 103.67 441.98 99.59 469.46 103.13 487.49 80.97 478.32 64.84 489.61 66.32 505.69 46.58 488.37 26.78 485.48 26.9 494.75 19.1 474.13 1.19 453.39 11.29 455.28 19.39 441.8 3.85 416.21 6.92 406.46 20.63 394.82 11.24 370.59 13.07 366.22 36.06 385.48 48.47" fill="none" stroke="black" stroke-width="2" /></svg>