<?xml version="1.0" encoding="UTF-8"?><svg xmlns="http://www.w3.org/2000/svg" viewBox="0 0 539.21 773"><defs><style>.g{fill:#fff;}.h{fill:none;stroke:#000;stroke-width:2px;}</style></defs><g id="a"/><g id="b"><g id="c"><g id="d"><rect class="g" y="16" width="535" height="757"/><polyline class="h" points="492.5 481 492.5 479 486.5 472 486.5 461 489.5 455 491.5 454 495.5 454 495.5 455 496.5 455 499.5 465 498.5 469 498.5 476 499.5 479 501.5 480 501.5 487 500.5 487 499.5 489 495.5 490"/><polyline class="h" points="491.5 486 489.5 491 494.5 493 494.5 492"/><polyline class="h" points="502.5 449 509.5 451 510.5 452 510.5 460"/><polyline class="h" points="499.5 452 501.5 453 503.5 458 502.5 463"/><polyline class="h" points="478.5 477 477.5 477 478.5 483 479.5 484 478.5 490"/><polyline class="h" points="238.5 502 236.5 503 233.5 518 235.5 520 243.5 510 244.5 500 242.5 500"/><polyline class="h" points="489.5 463 488.5 462 488.5 468 495.5 467 493.5 476 498.5 473 495.5 482 499.5 481"/><polyline class="h" points="502.5 317 501.5 315 501.5 320 503.5 336 503.5 351 504.5 348"/><polyline class="h" points="531.5 256 531.5 255 526.5 256 524.5 258 517.5 266 517.5 271 523.5 276 523.5 285 521.5 293 522.5 300 524.5 304 531.5 305 535.5 302 537.5 302 538.5 301"/><rect class="g" y="16" width="535" height="757"/></g></g><g id="e"><g id="f"><polyline class="h" points="78.5 102 77.5 102 77.5 104 70.5 115"/><polyline class="h" points="59.5 133 55.5 143 35.5 170 35.5 171"/><polyline class="h" points="106.5 104 105.5 109 98.5 122 97.5 122"/><polyline class="h" points="89.5 148 87.5 148 83.5 160 77.5 171 68.5 184 51.5 213 47.5 218 46.5 220 46.5 222 47.5 220"/><polyline class="h" points="140.5 102 138.5 104 121.5 138 98.5 177 82.5 214 83.5 213"/><polyline class="h" points="150.5 159 145.5 164 139.5 181"/><polyline class="h" points="69.5 249 76.5 246 55.5 291 55.5 293 53.5 297 54.5 297"/><polyline class="h" points="203.5 122 201.5 122 187.5 156 183.5 164 172.5 195"/><polyline class="h" points="116.5 250 113.5 251 93.5 308"/><polyline class="h" points="211.5 228 198.5 267 197.5 272 189.5 291 170.5 349 165.5 371 165.5 374 167.5 376"/><polyline class="h" points="109.5 356 108.5 356 89.5 400"/><polyline class="h" points="514.5 83 516.5 79 510.5 94 510.5 99 511.5 99"/><polyline class="h" points="268.5 403 266.5 405 247.5 479 236.5 501 237.5 502 239.5 502"/><polyline class="h" points="259.5 299 256.5 307 240.5 389"/></g></g></g></svg>