<?xml version="1.0" encoding="UTF-8"?><svg xmlns="http://www.w3.org/2000/svg" viewBox="0 0 539.21 773"><defs><style>.f{fill:#fff;}.g{fill:none;stroke:#000;stroke-width:2px;}</style></defs><g id="a"/><g id="b"><g id="c"><g id="d"><rect class="f" y="16" width="535" height="757"/><polyline class="g" points="492.5 481 492.5 479 486.5 472 486.5 461 489.5 455 491.5 454 495.5 454 495.5 455 496.5 455 499.5 465 498.5 469 498.5 476 499.5 479 501.5 480 501.5 487 500.5 487 499.5 489 495.5 490"/><polyline class="g" points="491.5 486 489.5 491 494.5 493 494.5 492"/><polyline class="g" points="502.5 449 509.5 451 510.5 452 510.5 460"/><polyline class="g" points="499.5 452 501.5 453 503.5 458 502.5 463"/><polyline class="g" points="478.5 477 477.5 477 478.5 483 479.5 484 478.5 490"/><polyline class="g" points="238.5 502 236.5 503 233.5 518 235.5 520 243.5 510 244.5 500 242.5 500"/><polyline class="g" points="489.5 463 488.5 462 488.5 468 495.5 467 493.5 476 498.5 473 495.5 482 499.5 481"/><polyline class="g" points="502.5 317 501.5 315 501.5 320 503.5 336 503.5 351 504.5 348"/><polyline class="g" points="531.5 256 531.5 255 526.5 256 524.5 258 517.5 266 517.5 271 523.5 276 523.5 285 521.5 293 522.5 300 524.5 304 531.5 305 535.5 302 537.5 302 538.5 301"/><rect class="f" y="16" width="535" height="757"/></g></g><g id="e"><g><polyline class="g" points="42.5 313 39.5 318 34.5 332 39.5 334 41.5 333 44.5 327 45.5 316 45.5 314 44.5 313"/><polyline class="g" points="29.5 195 26.5 193 24.5 196 16.5 214 16.5 216 21.5 215 25.5 211 28.5 200 27.5 197"/><polyline class="g" points="150.5 223 149.5 220 148.5 220 148.5 224 145.5 238 145.5 241 146.5 242 149.5 242 150.5 240 152.5 239 155.5 233 156.5 229 154.5 219 150.5 220"/><polyline class="g" points="154.5 398 152.5 399 149.5 417 151.5 417 155.5 411 153.5 400 151.5 399"/><polyline class="g" points="84.5 408 83.5 407 81.5 411 79.5 417 79.5 423 83.5 422 88.5 412 88.5 409 83.5 406"/><polyline class="g" points="506.5 101 506.5 104 503.5 112 504.5 113 509.5 110 510.5 108 509.5 104 507.5 104"/><polyline class="g" points="279.5 305 278.5 305 273.5 313 272.5 316 271.5 321 271.5 332 272.5 333 275.5 333 283.5 319 284.5 314 281.5 307 280.5 307 279.5 305 277.5 304"/></g></g></g></svg>