<?xml version="1.0" encoding="utf-8" ?>
<svg baseProfile="full" height="757" version="1.1" width="535" xmlns="http://www.w3.org/2000/svg" xmlns:ev="http://www.w3.org/2001/xml-events" xmlns:xlink="http://www.w3.org/1999/xlink"><defs /><rect fill="white" height="757" width="535" x="0" y="0" /><path d="M342.5 547 333.5 544 322.5 544 304.5 553 296.5 562 293.5 567 292.5 579 296.5 586 311.5 595 322.5 598 328.5 598 331.5 599 351.5 599 359.5 600 370.5 600 373.5 601 377.5 601 378.5 602 383.5 602 384.5 603 389.5 603 389.5 604 391.5 604 395.5 606 403.5 615 409.5 619M353.5 547 352.5 547 350.5 545 350.5 544 355.5 538 363.5 534 373.5 533 384.5 533 391.5 534 397.5 536 398.5 537 414.5 540 424.5 541 425.5 542 443.5 542 444.5 541 448.5 541 459.5 539 483.5 537 494.5 535 511.5 534 523.5 535 540.5 539 548.5 542 550.5 542 550.5 545M354.5 544 352.5 544 348.5 547 339.5 547 339.5 546 336.5 544M353.5 558 352.5 557 355.5 552 361.5 549 361.5 548 366.5 548 377.5 551 414.5 558 415.5 558 415.5 557 425.5 556 429.5 554 434.5 553M444.5 554 452.5 555 454.5 556 454.5 557M353.5 556 352.5 556 352.5 558 354.5 560 358.5 560 358.5 559 360.5 559 363.5 557 366.5 557 380.5 562 385.5 563 391.5 566 407.5 566 409.5 567 422.5 567 432.5 562 433.5 559 433.5 554M445.5 555 441.5 555 438.5 557 438.5 561 439.5 562 458.5 563 457.5 560 453.5 556 451.5 556M309.5 575 310.5 572 328.5 559 333.5 556 342.5 554 340.5 559 327.5 578 321.5 584 319.5 588 341.5 573 348.5 570 359.5 567 359.5 571 348.5 586 346.5 590 370.5 573 376.5 570 385.5 570 385.5 574 376.5 588 404.5 572 413.5 571 414.5 572 407.5 587 397.5 598 399.5 598 416.5 585 430.5 577 432.5 577 424.5 588 422.5 589 408.5 604 409.5 604 434.5 583 451.5 573 453.5 571 454.5 573 448.5 579 423.5 601 417.5 605 454.5 572 466.5 563 486.5 552 477.5 565 468.5 575 442.5 599 440.5 600 453.5 584 471.5 569 494.5 555 498.5 554 502.5 561 498.5 567 460.5 603 452.5 608 453.5 605 465.5 596 499.5 572 508.5 568 510.5 575 508.5 578 500.5 587 477.5 609 474.5 611 481.5 604 488.5 599 511.5 586 513.5 586 505.5 604 496.5 612 498.5 612 525.5 597 529.5 592" fill="none" stroke="black" stroke-width="2" /></svg>