<?xml version="1.0" encoding="utf-8" ?>
<svg baseProfile="full" height="757" version="1.1" width="535" xmlns="http://www.w3.org/2000/svg" xmlns:ev="http://www.w3.org/2001/xml-events" xmlns:xlink="http://www.w3.org/1999/xlink"><defs /><rect fill="white" height="757" width="535" x="0" y="0" /><path d="M172.3 40.2 168.8 48.8 165.9 63.6 165.6 72.3 168.5 77.3 171.9 74.7 175.6 64.3 176.4 56.9 176.1 47.5 174.6 37.8 175.3 38.7M156.8 158.8 155.1 169.6 155 176.4 157.1 184 159.6 187.9 160.1 188.1 162 185.5 163.8 178.8 163 167.2 158 154.4M155.1 291.4 154 308.4 154.5 311.5 158.4 318.6 161.3 318.8 163.8 314.4 164.6 306.6 157.8 283.2M249.4 38.8 243.7 54.3 243.4 57 244.7 64.6 246.9 66.4 249.2 65.4 253.2 57.2 253.6 55 252.5 48.2 248.3 39.8 249.2 39.1M222.8 100.5 219.6 120.2 222.3 123.3 223.6 123.1 233.6 110.8 233.7 105.3 233 103.5 228.5 98.9 227.5 96.4 228.5 96.3M390.3 31.9 384.6 46.2 384.6 48.9 391 52.5 395.4 49.3 394.4 41 388 25.5M451.6 64.2 443.1 77.3 442.3 81.7 444.6 84.4 449.7 82.9 451.4 79.3 453.4 70.6 452.7 60.5M473.5 155.4 470.4 167.6 470.2 169.9 471.4 173.3 477 170.6 479.8 165 478.9 157.6 476 146.7M494.4 241.3 492 253.2 491.2 268 492.7 277 493.5 277.7 497.6 276.2 499.6 267.5 499.7 261.9 497.8 246.6 498.2 242.3M492.9 343.2 490 361 490.6 366.7 493.4 367.1 496.5 361.1 496.9 358.8 497.2 352.4 495.1 342.4M93.5 47.6 90.3 66.8 90.2 71 92 79.1 93 79.4 96.8 73.8 99.1 57.6 98.7 53.8 94.8 44.1 92.5 40.8M104.8 136.1 101.3 152.3 102.2 162.6 102.8 163.1 107 160.2 110.1 147.2 109.4 134.6 107.9 129.2 107.2 128.4 105.7 128.8M39.7 98.7 36.7 120 39.5 125.3 41 125.7 44.3 123.3 45.1 121.2 45 108.5 42.5 99.3 38.2 93.8M23.7 43.9 26.6 35.1 26.7 32.5 26.4 25.2 23.2 14.4 18.6 28.4 16.3 44.7 18.8 48.3 20.6 47.9 25.6 42.6M65.2 210 63.1 225.5 63.9 233.6 64.8 235.1 67.8 235.5 69.2 224 69 216.7 66.7 209.8 62.4 202.2 63.2 202.1M28.3 288.8 25.6 302.6 25.5 305.8 26.6 310.6 28 311.5 31.5 311.3 33.7 307.5 34.2 301.9 32.1 293.1 28.5 285.2M98.5 347.9 98.8 365.3 100 367.8 103.6 369.8 105.8 368.7 107.5 357.3 105.8 348 102.1 341.4 97.2 335.5M42.4 414 40.6 424.1 39.7 449.3 40.4 453.3 45 452.6 45.4 450.2 44.7 445.9 40.9 429 37.6 418.4M113.1 510.9 111.9 520.2 112.3 523 114 526 116.8 527.6 119.1 527.9 121.4 527.1 122.4 525.1 122.5 521.7 114.9 497.7 112.7 515.8M35.5 568.4 33.4 577.5 31.2 593.7 31.6 595.5M33.6 596.2 40.5 591.1 39.5 582 35 573.3 35.2 572.3M173.7 442.8 169.7 454.6 168 463 166.8 475.8 166.9 478.1 168.8 477.9 174.1 472.4 174 466.7 170.6 454.2 170.4 448.2M148.4 598.6 156.2 601.8 160.3 594.8 161.9 586.3 161.4 573.7 159.9 567.7 157.8 563.1 156.7 562.8 146.4 595 147.4 601.5M504.5 420.5 504.8 439 505.5 440.1 507.5 441.1 508.5 440.5 512.8 430.5 513.4 427.5 512.4 417.7 510.3 410.3 508.8 406.6 508.3 407.6M442.3 479.6 443.3 498.3 444.3 500.1 446.5 501.8 449.1 498.9 450.3 493.2 449.2 484 444.2 467.1M474.3 532.7 473.1 549.1 474 552.4 476.3 554.4 477.5 554.4 480.2 547.4 481.2 541.1 480.7 531.2 477.5 521 475.4 516.7M496.8 606.8 496 628.4 498.2 634.1 501.6 635 503.8 632 504.4 625.3 498.2 605M96.4 620.8 95.1 635 98.4 638.5 102.6 637.3 104.1 631.2 98.9 613.3M327.9 17.3 324.2 38.2 324.6 46.4 326.4 47.7 328.5 47.5 332.1 44.7 333.4 41.9 333.8 38.3 329.4 27 327.7 20.4M494.3 29.2 493.2 39.6 493.3 49.9 494.5 52.4 497.3 52 498.7 50.4 498.4 43.4 494.8 27.8" fill="none" stroke="black" stroke-width="2" /></svg>