<?xml version="1.0" encoding="utf-8" ?>
<svg baseProfile="full" height="757" version="1.1" width="535" xmlns="http://www.w3.org/2000/svg" xmlns:ev="http://www.w3.org/2001/xml-events" xmlns:xlink="http://www.w3.org/1999/xlink"><defs /><rect fill="white" height="757" width="535" x="0" y="0" /><path d="M275.09 163.42 262.68 168.03 249.39 175.59 233.13 187.29 205.48 204.9 184.03 216.37 132.79 253.43 125.99 259.1 105.13 279.96 78.24 309.69 61.81 324.17 54.54 333.09 48.46 337.64 50.64 338 62.58 331.38 79.36 327.54 97.21 320.09 100.99 319.26 118.84 318.97 122.5 320.33 124.57 322.69 126.76 323.28M132.55 343.61 137.46 355.96 139.11 363.7 139.76 385.81 139.7 383.09 138.93 381.91 139.05 382.73 140.83 382.38 145.91 376.94 150.28 373.99 164.35 371.39 173.39 371.03 181.6 372.21 184.91 373.87 188.81 379.48 196.79 393.61 199.63 400.35 203.23 405.31 208.49 408.38 223.8 414.59 222.73 414.71 222.62 416.54M222.79 417.01 222.44 415.12 228.29 409.39 231.42 404.84 241.94 393.25 247.32 388.47 255.47 384.8 265.82 383.21 272.49 383.56 295.07 388.41 306.24 392.6 320.13 406.14 322.84 412.58 320.89 415.77M334.37 409.45 343.59 394.2 350.38 377.77 353.1 375.23 359.66 371.33 367.11 370.74 381.06 375.46 396.48 376.17 407.47 375.17 416.45 372.81M417.81 371.5 427.39 369.79 436.13 373.1 442.28 373.57 447.6 377.71 446.77 378.18 446.24 377.65M448.72 372.33 459.48 362.58 462.73 355.43 465.68 338.76 466.04 329.19 463.5 301.65 461.72 293.61 456.7 281.67 442.22 265.19 425.67 250.65 418.52 242.85 383.6 215.19 362.68 202.01 355.94 196.28 347.9 191.13 338.74 187 309.49 169.68 294.3 159.69 277.28 144.45 271.78 136.59 271.08 131.68M274.56 165.72 269.54 159.28 269.78 155.2 272.32 151.07 278.11 134.1 281.83 128.84 287.03 123.41 290.34 116.91 294.77 111.94 298.44 110.17 315.58 106.74 316.05 107.86M268.36 166.84 244.54 201.95 215.23 249.82 207.72 265.24 196.08 295.33 172.15 335.75 158.2 363.7 136.27 393.02M207.25 396.74 202.64 406.73 202.35 413.35M259.37 175.53 255.59 194.5 251.69 224.35 246.14 256.62 239.93 284.69 223.97 347.33 219.01 391.36 217 416.18M284.79 253.84 285.97 264.36 291.82 293.02 303.82 341.96 306.77 379.84 311.14 402.77 314.22 412.87M284.37 178.9 290.46 169.21 291.46 166.14 289.45 164.48 285.73 165.37 283.72 164.66 282.48 165.66 282.01 169.92 286.38 179.67 292.23 189.89 301.1 213.12 309.84 223.58 324.44 249.29 331.77 267.25 346.25 290.54 358.89 308.03 369.95 320.5 383.66 339.95 397.31 355.9M277.16 165.01 276.57 175.24 278.4 191.84 277.1 210.11 283.13 230.67 285.08 240.66M254.94 400.76 251.1 410.51 249.62 418.13 249.27 426.05 238.57 504.95 236.98 539.82 229.23 590.76 230.3 594.49 232.48 596.73 239.93 598.15 243.3 598.09 256.12 594.31 260.5 594.37 264.87 591.77" fill="none" stroke="black" stroke-width="2" /></svg>