<?xml version="1.0" encoding="UTF-8" standalone="no"?>
<!DOCTYPE svg PUBLIC "-//W3C//DTD SVG 1.1//EN" "http://www.w3.org/Graphics/SVG/1.1/DTD/svg11.dtd">
<svg width="128.40" height="181.68" viewBox="0.00 0.00 535.00 757.00" xmlns="http://www.w3.org/2000/svg" xmlns:xlink="http://www.w3.org/1999/xlink">
<g stroke-linecap="round" id="101">
<path d="M158.39,517.37 C158.01,517.56 157.60,517.81 157.38,518.25 C156.37,520.25 153.96,530.49 153.63,531.94" fill="none" stroke="rgb(229, 0, 16)" stroke-width="2.39" stroke-opacity="1.00" stroke-linejoin="round"/>
<path d="M159.19,527.00 C158.50,527.29 157.87,527.75 156.86,528.71 C156.08,529.49 154.88,533.59 154.58,536.56 C154.30,539.65 156.03,555.44 156.94,562.86 C157.43,566.90 157.71,570.82 157.85,573.74" fill="none" stroke="rgb(229, 0, 16)" stroke-width="2.39" stroke-opacity="1.00" stroke-linejoin="round"/>
<path d="M147.96,570.30 C147.38,570.61 140.30,583.42 136.99,587.86 C135.58,589.73 130.60,595.85 130.10,596.39 C129.74,596.77 128.97,597.53 127.80,598.65" fill="none" stroke="rgb(229, 0, 16)" stroke-width="2.39" stroke-opacity="1.00" stroke-linejoin="round"/>
<path d="M147.96,516.57 C146.39,517.96 145.63,519.04 145.32,520.53 C144.16,526.17 141.17,540.19 139.07,546.74 C136.93,553.34 132.96,562.39 128.59,570.75 C127.60,572.65 125.79,576.93 125.31,578.08" fill="none" stroke="rgb(229, 0, 16)" stroke-width="2.39" stroke-opacity="1.00" stroke-linejoin="round"/>
<path d="M138.74,525.80 C138.74,525.80 138.18,525.39 138.18,525.39 C137.21,527.15 136.65,528.42 135.95,530.66 C134.77,534.33 132.52,541.17 131.44,544.35" fill="none" stroke="rgb(229, 0, 16)" stroke-width="2.39" stroke-opacity="1.00" stroke-linejoin="round"/>
<path d="M123.90,572.71 C123.09,572.68 121.76,572.92 121.25,572.99 C117.89,573.48 113.79,575.21 111.24,577.32 C109.72,578.62 107.72,581.45 107.21,583.12 C106.74,584.83 106.94,588.50 107.59,590.23 C108.85,593.33 111.36,595.13 114.09,596.96" fill="none" stroke="rgb(229, 0, 16)" stroke-width="2.39" stroke-opacity="1.00" stroke-linejoin="round"/>
<path d="M108.26,593.96 C107.45,594.70 106.46,595.18 105.77,595.49 C102.97,597.20 96.18,606.51 95.52,607.41" fill="none" stroke="rgb(229, 0, 16)" stroke-width="2.39" stroke-opacity="1.00" stroke-linejoin="round"/>
<path d="M113.88,529.40 C113.84,539.62 113.11,547.34 111.67,556.98 C111.16,559.99 109.98,566.63 109.29,570.02 C108.61,573.23 106.79,579.49 105.76,581.79" fill="none" stroke="rgb(229, 0, 16)" stroke-width="2.39" stroke-opacity="1.00" stroke-linejoin="round"/>
<path d="M117.49,496.92 C117.49,496.92 115.31,497.13 115.31,497.13 C113.87,499.45 110.75,514.66 109.17,522.40 C107.51,530.19 104.33,539.63 100.68,548.08 C95.44,559.72 93.13,565.51 91.77,570.07" fill="none" stroke="rgb(229, 0, 16)" stroke-width="2.39" stroke-opacity="1.00" stroke-linejoin="round"/>
<path d="M107.86,516.57 C107.22,518.42 105.79,524.06 104.85,527.15 C104.19,529.28 103.24,532.06 102.51,533.93 C101.56,536.36 98.53,543.22 97.94,544.53" fill="none" stroke="rgb(229, 0, 16)" stroke-width="2.39" stroke-opacity="1.00" stroke-linejoin="round"/>
<path d="M81.80,506.55 C81.74,506.69 81.67,506.83 81.60,506.95 C80.42,508.96 79.54,511.55 77.89,517.84 C76.78,522.24 74.53,531.03 73.57,534.12 C73.41,534.64 73.20,535.24 72.94,535.94" fill="none" stroke="rgb(229, 0, 16)" stroke-width="2.39" stroke-opacity="1.00" stroke-linejoin="round"/>
<path d="M67.36,513.36 C67.90,515.79 69.10,521.33 69.62,524.72 C70.17,528.35 70.78,535.38 70.91,539.49 C71.02,543.32 70.84,549.39 70.74,552.02" fill="none" stroke="rgb(229, 0, 16)" stroke-width="2.39" stroke-opacity="1.00" stroke-linejoin="round"/>
<path d="M42.90,499.73 C42.19,500.60 41.88,504.30 41.53,509.98 C41.05,517.64 39.95,533.29 38.56,540.31 C37.55,545.30 36.11,550.75 34.87,554.53" fill="none" stroke="rgb(229, 0, 16)" stroke-width="2.39" stroke-opacity="1.00" stroke-linejoin="round"/>
<path d="M54.53,558.68 C54.19,562.52 54.89,566.54 55.55,569.78 C56.62,574.87 58.17,585.23 58.59,588.09 C58.78,589.33 58.96,590.56 59.15,591.80" fill="none" stroke="rgb(229, 0, 16)" stroke-width="2.39" stroke-opacity="1.00" stroke-linejoin="round"/>
<path d="M37.29,560.68 C37.29,561.49 37.29,562.30 37.29,563.11 C37.32,566.25 37.59,571.74 37.90,575.36 C38.28,578.96 39.07,586.20 39.48,589.84" fill="none" stroke="rgb(229, 0, 16)" stroke-width="2.39" stroke-opacity="1.00" stroke-linejoin="round"/>
<path d="M27.67,565.09 C28.37,567.40 29.92,571.77 30.81,574.96 C32.62,581.60 33.72,590.79 33.87,592.01" fill="none" stroke="rgb(229, 0, 16)" stroke-width="2.39" stroke-opacity="1.00" stroke-linejoin="round"/>
<path d="M21.25,593.16 C21.57,593.99 21.80,594.53 21.95,594.76 C22.23,595.18 33.37,604.47 40.92,611.49 C43.20,613.71 46.16,616.58 46.84,617.25" fill="none" stroke="rgb(229, 0, 16)" stroke-width="2.39" stroke-opacity="1.00" stroke-linejoin="round"/>
<path d="M64.16,596.37 C64.16,596.37 63.76,597.68 63.76,597.68 C64.41,599.01 68.93,602.84 69.93,603.78 C70.91,604.71 72.65,606.61 73.66,607.77" fill="none" stroke="rgb(229, 0, 16)" stroke-width="2.39" stroke-opacity="1.00" stroke-linejoin="round"/>
<path d="M62.95,604.39 C62.98,604.83 63.54,605.97 64.36,607.09 C64.52,607.31 66.27,609.37 66.96,610.30 C67.62,611.17 69.62,614.03 70.37,615.11" fill="none" stroke="rgb(229, 0, 16)" stroke-width="2.39" stroke-opacity="1.00" stroke-linejoin="round"/>
<path d="M82.20,444.40 C82.20,444.40 81.80,444.40 81.80,444.40 C80.56,445.49 74.91,459.48 72.52,464.32 C69.38,470.60 61.68,482.60 56.88,488.98 C53.41,493.54 45.07,501.93 41.92,504.87" fill="none" stroke="rgb(229, 0, 16)" stroke-width="2.39" stroke-opacity="1.00" stroke-linejoin="round"/>
<path d="M21.65,359.79 C21.65,359.79 21.05,359.79 21.05,359.79 C20.94,359.79 20.54,361.78 20.45,363.07 C20.41,363.65 20.91,366.91 21.18,368.73" fill="none" stroke="rgb(229, 0, 16)" stroke-width="2.39" stroke-opacity="1.00" stroke-linejoin="round"/>
<path d="M21.25,373.42 C21.51,374.61 22.25,378.02 22.35,378.44 C22.73,379.84 23.24,380.95 24.20,382.60 C25.41,384.68 26.45,387.46 26.83,388.60" fill="none" stroke="rgb(229, 0, 16)" stroke-width="2.39" stroke-opacity="1.00" stroke-linejoin="round"/>
<path d="M28.47,393.87 C29.42,396.51 31.55,402.45 32.47,405.36 C34.37,411.42 35.67,418.09 37.56,430.14 C38.85,437.81 42.22,456.45 42.30,460.25 C42.39,466.57 41.65,478.79 41.03,482.97 C40.57,486.04 37.14,502.99 36.17,507.70" fill="none" stroke="rgb(229, 0, 16)" stroke-width="2.39" stroke-opacity="1.00" stroke-linejoin="round"/>
<path d="M111.87,395.88 C111.87,395.88 111.27,396.04 111.27,396.04 C110.69,398.33 110.64,413.50 110.49,421.01 C110.20,430.31 108.79,439.23 108.03,442.36" fill="none" stroke="rgb(229, 0, 16)" stroke-width="2.39" stroke-opacity="1.00" stroke-linejoin="round"/>
<path d="M64.16,313.28 C63.97,313.34 60.39,312.68 59.48,312.49 C58.99,312.44 57.92,313.16 57.54,313.73 C56.52,315.39 56.71,320.89 57.50,324.93 C58.36,329.10 68.12,364.15 71.48,377.21 C75.36,393.79 79.41,415.38 81.10,430.80 C81.42,434.36 81.97,440.56 82.20,443.19" fill="none" stroke="rgb(229, 0, 16)" stroke-width="2.39" stroke-opacity="1.00" stroke-linejoin="round"/>
<path d="M74.98,314.08 C76.45,315.18 77.52,316.16 77.79,316.95 C78.11,317.94 78.28,320.30 78.09,321.32 C77.60,323.63 74.99,329.59 74.26,331.23" fill="none" stroke="rgb(229, 0, 16)" stroke-width="2.39" stroke-opacity="1.00" stroke-linejoin="round"/>
<path d="M100.65,287.21 C100.04,288.06 99.58,288.91 99.13,290.17 C97.91,293.63 95.55,327.65 95.52,329.55 C95.45,334.23 96.27,343.96 96.45,345.62" fill="none" stroke="rgb(229, 0, 16)" stroke-width="2.39" stroke-opacity="1.00" stroke-linejoin="round"/>
<path d="M70.57,266.76 C69.19,268.26 68.56,271.14 68.57,273.18 C68.58,274.17 68.94,276.80 69.17,278.33" fill="none" stroke="rgb(229, 0, 16)" stroke-width="2.39" stroke-opacity="1.00" stroke-linejoin="round"/>
<path d="M109.87,269.17 C111.23,269.45 112.11,269.69 112.50,269.89 C113.11,270.20 114.88,272.31 115.52,273.08" fill="none" stroke="rgb(229, 0, 16)" stroke-width="2.39" stroke-opacity="1.00" stroke-linejoin="round"/>
<path d="M41.70,205.41 C41.70,205.41 41.90,204.81 41.90,204.81 C43.14,205.50 44.18,211.07 44.76,216.18 C45.39,223.28 46.88,240.38 46.77,242.31 C46.70,243.42 46.33,246.71 46.03,247.54 C45.59,248.75 44.34,252.33 44.77,254.21 C44.84,254.54 50.95,272.17 52.93,279.09 C55.03,286.43 59.05,300.51 60.98,307.25" fill="none" stroke="rgb(229, 0, 16)" stroke-width="2.39" stroke-opacity="1.00" stroke-linejoin="round"/>
<path d="M28.47,245.51 C28.42,248.59 29.33,255.34 29.86,258.36 C31.20,265.88 32.14,276.83 32.35,285.69 C32.37,288.72 32.26,295.40 32.19,298.27" fill="none" stroke="rgb(229, 0, 16)" stroke-width="2.39" stroke-opacity="1.00" stroke-linejoin="round"/>
<path d="M22.05,302.45 C22.36,305.28 22.63,307.02 23.19,309.44 C24.08,313.47 25.89,321.93 26.21,323.79 C27.59,332.60 29.77,346.82 30.59,352.23" fill="none" stroke="rgb(229, 0, 16)" stroke-width="2.39" stroke-opacity="1.00" stroke-linejoin="round"/>
<path d="M21.81,172.58 C21.03,175.37 21.04,178.81 21.62,181.78 C21.84,182.91 23.99,192.78 24.14,194.85 C24.24,196.63 23.40,201.44 21.82,204.63 C21.09,206.09 19.62,208.70 18.83,210.07" fill="none" stroke="rgb(229, 0, 16)" stroke-width="2.39" stroke-opacity="1.00" stroke-linejoin="round"/>
<path d="M59.45,182.85 C59.39,184.19 60.44,186.28 62.55,189.61 C66.31,195.40 73.38,206.44 77.05,213.04 C80.42,219.21 85.21,230.90 87.36,238.57 C88.21,241.68 89.51,247.44 90.32,251.98 C91.01,256.09 92.26,263.59 92.81,266.96" fill="none" stroke="rgb(229, 0, 16)" stroke-width="2.39" stroke-opacity="1.00" stroke-linejoin="round"/>
<path d="M101.36,219.63 C101.00,222.06 101.08,223.64 101.79,225.48 C102.49,227.31 103.22,228.98 103.71,230.11 C104.20,231.22 104.69,232.34 105.18,233.45" fill="none" stroke="rgb(229, 0, 16)" stroke-width="2.39" stroke-opacity="1.00" stroke-linejoin="round"/>
<path d="M133.01,274.37 C133.01,274.37 130.73,273.52 130.73,273.52 C129.77,276.00 129.46,277.35 129.70,278.74 C130.22,281.67 131.67,285.24 134.46,290.67 C143.99,308.31 152.54,327.55 158.71,341.09 C161.48,347.55 165.66,361.01 167.25,367.89 C168.91,375.15 170.52,386.43 171.38,394.97 C171.68,398.87 172.16,405.98 172.34,409.18" fill="none" stroke="rgb(229, 0, 16)" stroke-width="2.39" stroke-opacity="1.00" stroke-linejoin="round"/>
<path d="M120.60,287.63 C120.60,287.63 119.54,287.63 119.54,287.63 C119.54,287.63 118.89,287.09 118.89,287.09 C119.70,286.69 121.10,287.33 123.47,289.30 C125.54,291.02 128.69,294.64 130.09,297.63 C130.57,298.67 133.75,306.72 135.53,309.98 C139.25,316.55 145.41,327.69 148.93,336.55 C151.39,343.07 156.03,355.71 157.77,361.99 C160.20,371.09 161.50,377.45 162.99,387.96 C163.90,394.88 164.53,408.27 164.39,414.58 C164.18,421.69 163.16,431.12 161.78,440.04 C160.15,448.91 156.83,461.92 154.71,467.27 C153.23,470.96 147.79,482.15 147.27,483.23" fill="none" stroke="rgb(229, 0, 16)" stroke-width="2.39" stroke-opacity="1.00" stroke-linejoin="round"/>
<path d="M164.66,453.57 C163.77,455.19 163.44,456.73 163.37,459.86 C163.30,462.95 162.15,467.57 160.79,471.39 C159.75,474.17 150.17,491.88 147.86,495.75 C145.82,499.15 143.78,501.58 142.34,502.99" fill="none" stroke="rgb(229, 0, 16)" stroke-width="2.39" stroke-opacity="1.00" stroke-linejoin="round"/>
<path d="M143.27,459.98 C142.80,462.12 142.83,467.57 142.25,471.39 C141.68,475.09 140.54,479.28 139.66,481.38 C138.52,484.04 135.47,489.26 134.10,491.58" fill="none" stroke="rgb(229, 0, 16)" stroke-width="2.39" stroke-opacity="1.00" stroke-linejoin="round"/>
<path d="M125.74,291.91 C125.74,291.91 124.24,293.30 124.24,293.30 C124.08,294.71 124.18,295.72 124.76,297.80 C125.29,299.69 125.73,301.93 125.91,303.68 C125.95,304.05 126.01,304.71 126.08,305.65" fill="none" stroke="rgb(229, 0, 16)" stroke-width="2.39" stroke-opacity="1.00" stroke-linejoin="round"/>
<path d="M137.71,274.37 C137.00,276.01 136.58,277.04 136.43,277.47 C135.29,280.90 137.20,293.60 138.26,296.76 C138.63,297.86 139.43,299.60 139.96,300.62" fill="none" stroke="rgb(229, 0, 16)" stroke-width="2.39" stroke-opacity="1.00" stroke-linejoin="round"/>
<path d="M122.32,172.16 C122.32,172.16 121.67,172.28 121.67,172.28 C121.59,174.13 127.89,186.69 131.31,193.48 C134.90,200.48 142.40,215.07 144.01,219.17 C147.03,226.92 149.55,238.28 150.32,245.53 C150.74,249.56 151.65,263.07 151.73,264.33" fill="none" stroke="rgb(229, 0, 16)" stroke-width="2.39" stroke-opacity="1.00" stroke-linejoin="round"/>
<path d="M182.19,242.72 C181.70,244.94 182.60,247.26 185.08,249.86 C185.93,250.73 187.78,253.00 189.51,255.29 C190.23,256.24 190.94,257.20 191.65,258.15" fill="none" stroke="rgb(229, 0, 16)" stroke-width="2.39" stroke-opacity="1.00" stroke-linejoin="round"/>
<path d="M172.78,276.51 C172.78,276.51 172.78,276.30 172.78,276.30 C172.65,276.11 172.38,275.97 172.35,275.61 C172.24,273.85 172.66,271.84 173.42,270.23 C174.62,272.15 175.46,278.20 175.98,281.75 C178.15,298.34 180.46,316.06 180.60,317.18" fill="none" stroke="rgb(229, 0, 16)" stroke-width="2.39" stroke-opacity="1.00" stroke-linejoin="round"/>
<path d="M150.54,347.50 C150.00,349.73 149.41,355.45 148.80,359.31 C147.16,369.21 144.83,377.62 143.49,381.61" fill="none" stroke="rgb(229, 0, 16)" stroke-width="2.39" stroke-opacity="1.00" stroke-linejoin="round"/>
<path d="M188.61,379.15 C187.35,380.53 186.86,381.87 186.89,384.25 C187.04,391.09 187.61,407.82 188.04,417.72" fill="none" stroke="rgb(229, 0, 16)" stroke-width="2.39" stroke-opacity="1.00" stroke-linejoin="round"/>
<path d="M136.86,369.31 C138.38,373.04 141.79,389.26 142.70,397.17 C143.44,404.62 144.69,419.52 145.06,425.17" fill="none" stroke="rgb(229, 0, 16)" stroke-width="2.39" stroke-opacity="1.00" stroke-linejoin="round"/>
<path d="M195.45,397.54 C196.64,405.14 197.51,416.81 197.44,424.03 C197.36,430.30 196.28,438.34 196.13,439.44" fill="none" stroke="rgb(229, 0, 16)" stroke-width="2.39" stroke-opacity="1.00" stroke-linejoin="round"/>
<path d="M208.28,411.23 C208.28,411.23 206.35,410.80 206.35,410.80 C206.35,410.80 205.36,411.30 205.36,411.30 C204.84,413.70 205.29,432.73 205.10,435.52 C204.82,439.45 202.59,452.78 202.37,454.07" fill="none" stroke="rgb(229, 0, 16)" stroke-width="2.39" stroke-opacity="1.00" stroke-linejoin="round"/>
<path d="M210.42,416.79 C210.42,416.79 209.99,416.79 209.99,416.79 C213.99,420.68 217.12,424.06 219.88,427.67 C222.12,430.65 224.39,434.23 227.28,439.15" fill="none" stroke="rgb(229, 0, 16)" stroke-width="2.39" stroke-opacity="1.00" stroke-linejoin="round"/>
<path d="M226.24,405.24 C226.24,405.24 226.24,404.60 226.24,404.60 C227.11,404.49 228.27,405.35 229.23,407.03 C229.63,407.75 230.56,410.87 230.77,411.91 C231.26,414.49 231.61,419.00 231.75,421.22" fill="none" stroke="rgb(229, 0, 16)" stroke-width="2.39" stroke-opacity="1.00" stroke-linejoin="round"/>
<path d="M213.84,356.48 C214.19,362.72 215.11,377.27 215.30,382.35 C215.71,398.75 213.34,410.77 213.14,411.78" fill="none" stroke="rgb(229, 0, 16)" stroke-width="2.39" stroke-opacity="1.00" stroke-linejoin="round"/>
<path d="M181.76,444.59 C181.99,446.81 182.17,448.05 182.58,449.87 C183.30,453.13 184.84,460.22 185.28,463.36 C185.57,465.40 185.95,471.61 186.03,472.96" fill="none" stroke="rgb(229, 0, 16)" stroke-width="2.39" stroke-opacity="1.00" stroke-linejoin="round"/>
<path d="M202.72,453.57 C202.72,453.80 202.72,454.64 202.72,455.28 C202.67,459.10 202.29,463.92 201.61,466.86 C200.80,470.20 198.29,477.24 196.76,480.10 C195.28,482.82 192.71,486.47 191.39,488.26" fill="none" stroke="rgb(229, 0, 16)" stroke-width="2.39" stroke-opacity="1.00" stroke-linejoin="round"/>
<path d="M184.33,479.23 C183.96,479.74 183.89,480.02 183.90,481.03 C183.90,481.21 183.89,481.49 183.85,481.87 C183.55,482.13 181.73,482.82 181.39,484.69 C181.16,485.99 179.14,496.03 178.88,496.91 C178.50,498.20 175.91,503.89 173.87,507.94" fill="none" stroke="rgb(229, 0, 16)" stroke-width="2.39" stroke-opacity="1.00" stroke-linejoin="round"/>
<path d="M186.04,491.63 C186.02,491.69 184.78,492.72 184.66,492.87 C184.45,493.13 182.60,500.25 181.94,501.90 C181.22,503.65 178.49,507.83 176.60,509.73 C174.97,511.34 168.98,515.51 166.82,516.03 C166.16,516.18 164.98,516.25 163.26,516.25" fill="none" stroke="rgb(229, 0, 16)" stroke-width="2.39" stroke-opacity="1.00" stroke-linejoin="round"/>
<path d="M177.06,468.54 C175.80,470.23 175.34,471.12 175.35,472.17 C175.38,477.73 173.35,488.40 170.69,495.51 C169.55,498.51 166.95,504.38 165.78,506.63 C164.89,508.34 162.79,512.17 161.97,513.64" fill="none" stroke="rgb(229, 0, 16)" stroke-width="2.39" stroke-opacity="1.00" stroke-linejoin="round"/>
<path d="M200.15,163.60 C201.13,168.73 203.46,182.91 204.78,191.07 C206.44,201.99 210.19,236.62 210.97,248.06 C211.29,253.59 210.75,258.54 210.65,259.45" fill="none" stroke="rgb(229, 0, 16)" stroke-width="2.39" stroke-opacity="1.00" stroke-linejoin="round"/>
<path d="M169.79,189.26 C169.79,189.26 169.79,188.19 169.79,188.19 C169.79,188.19 168.71,188.02 168.71,188.02 C168.00,189.10 168.32,194.95 169.63,199.09 C170.92,202.99 178.78,218.03 182.18,223.52 C186.22,229.84 195.70,244.27 198.40,249.76 C201.66,256.62 206.24,270.01 207.67,275.02 C211.39,288.23 213.69,304.16 213.84,305.16" fill="none" stroke="rgb(229, 0, 16)" stroke-width="2.39" stroke-opacity="1.00" stroke-linejoin="round"/>
<path d="M241.64,282.07 C241.64,282.07 241.64,281.86 241.64,281.86 C241.64,281.86 240.89,281.25 240.89,281.25 C240.70,280.61 241.33,278.94 242.77,276.32 C244.39,273.39 248.13,267.45 249.86,264.72" fill="none" stroke="rgb(229, 0, 16)" stroke-width="2.39" stroke-opacity="1.00" stroke-linejoin="round"/>
<path d="M260.45,264.53 C261.34,263.98 269.20,271.14 275.20,278.57 C282.34,287.38 288.37,295.64 290.48,301.09 C291.18,302.95 292.93,308.73 293.83,312.73 C294.79,316.98 296.38,322.91 297.16,325.76" fill="none" stroke="rgb(229, 0, 16)" stroke-width="2.39" stroke-opacity="1.00" stroke-linejoin="round"/>
<path d="M255.32,292.33 C255.32,292.33 253.83,293.62 253.83,293.62 C253.75,293.51 256.62,289.23 259.94,288.24 C261.10,287.94 263.80,287.88 265.17,288.16 C266.77,288.54 269.75,290.11 270.88,291.30 C272.90,293.45 275.29,298.41 276.44,301.32 C280.25,310.83 288.13,327.65 288.39,328.26 C291.09,334.67 293.98,346.66 295.32,353.99 C297.50,366.89 300.92,403.10 301.00,409.44 C300.99,416.22 299.85,425.89 298.33,436.71 C297.77,440.39 296.76,446.76 296.30,449.45" fill="none" stroke="rgb(229, 0, 16)" stroke-width="2.39" stroke-opacity="1.00" stroke-linejoin="round"/>
<path d="M262.17,349.64 C262.17,349.64 261.39,348.28 261.39,348.28 C261.72,347.55 262.37,346.90 263.31,346.57 C264.47,346.20 266.33,347.02 267.50,348.47 C269.75,351.36 273.66,368.59 274.31,373.68 C275.45,382.70 275.83,404.26 275.85,405.66" fill="none" stroke="rgb(229, 0, 16)" stroke-width="2.39" stroke-opacity="1.00" stroke-linejoin="round"/>
<path d="M266.87,313.29 C266.87,313.29 267.30,312.43 267.30,312.43 C265.90,312.72 263.45,314.94 261.16,317.48 C254.03,325.43 251.25,328.26 242.90,335.76 C236.51,341.47 222.50,353.99 220.47,355.69 C219.35,356.63 218.10,357.46 215.93,358.78" fill="none" stroke="rgb(229, 0, 16)" stroke-width="2.39" stroke-opacity="1.00" stroke-linejoin="round"/>
<path d="M235.22,328.69 C235.22,328.69 234.15,329.33 234.15,329.33 C233.72,330.07 237.29,348.49 238.87,356.72 C240.56,366.28 241.69,376.29 242.42,382.94 C243.19,390.42 244.56,403.69 245.16,409.47" fill="none" stroke="rgb(229, 0, 16)" stroke-width="2.39" stroke-opacity="1.00" stroke-linejoin="round"/>
<path d="M234.37,313.29 C233.79,313.35 233.11,314.00 232.30,315.39 C232.18,315.60 230.94,317.95 230.16,319.35 C229.10,321.22 227.14,324.65 226.24,326.20" fill="none" stroke="rgb(229, 0, 16)" stroke-width="2.39" stroke-opacity="1.00" stroke-linejoin="round"/>
<path d="M261.17,161.25 C261.17,161.25 260.12,162.94 260.12,162.94 C259.86,162.99 259.18,166.72 266.09,186.01 C267.89,191.00 275.50,207.13 278.95,213.93 C286.52,227.99 300.05,253.13 301.90,258.10 C302.78,260.48 303.24,262.19 303.71,264.58" fill="none" stroke="rgb(229, 0, 16)" stroke-width="2.39" stroke-opacity="1.00" stroke-linejoin="round"/>
<path d="M268.35,157.45 C267.62,161.87 268.77,170.32 270.38,179.09 C272.43,188.87 281.51,226.47 282.19,234.93 C282.27,235.95 282.56,240.70 282.65,242.12" fill="none" stroke="rgb(229, 0, 16)" stroke-width="2.39" stroke-opacity="1.00" stroke-linejoin="round"/>
<path d="M340.07,170.11 C340.07,170.11 339.44,169.99 339.44,169.99 C339.10,169.23 339.77,167.13 340.56,166.81 C340.99,166.65 341.53,166.84 342.10,167.25 C342.99,170.46 341.00,182.21 338.61,192.65 C336.59,200.96 332.77,216.36 330.96,223.45 C326.98,239.60 321.54,261.90 320.08,268.07" fill="none" stroke="rgb(229, 0, 16)" stroke-width="2.39" stroke-opacity="1.00" stroke-linejoin="round"/>
<path d="M376.36,167.58 C376.36,167.58 375.73,167.15 375.73,167.15 C375.80,169.29 377.09,173.09 378.26,176.28 C379.81,180.38 386.63,201.08 387.45,203.85 C388.82,208.51 391.81,224.78 392.31,230.57 C392.82,236.76 392.38,249.52 391.39,254.42 C390.33,259.60 386.42,269.14 385.18,271.81" fill="none" stroke="rgb(229, 0, 16)" stroke-width="2.39" stroke-opacity="1.00" stroke-linejoin="round"/>
<path d="M402.94,149.01 C402.94,149.01 401.88,149.01 401.88,149.01 C401.87,149.06 405.04,152.27 407.32,155.76 C410.64,160.88 419.09,177.81 420.71,181.46 C423.33,187.43 427.74,201.23 429.13,207.99 C431.25,218.45 431.18,234.67 430.14,243.26 C429.06,251.53 426.90,260.83 426.60,262.11" fill="none" stroke="rgb(229, 0, 16)" stroke-width="2.39" stroke-opacity="1.00" stroke-linejoin="round"/>
<path d="M452.31,145.21 C452.34,145.44 452.08,149.22 453.32,151.87 C456.81,159.28 460.69,168.85 462.67,175.10 C466.85,189.05 475.13,219.04 476.28,227.49 C477.04,233.10 477.29,243.35 476.94,249.70 C476.49,256.48 472.46,281.73 471.28,288.63 C471.00,290.14 469.98,294.16 469.71,295.20" fill="none" stroke="rgb(229, 0, 16)" stroke-width="2.39" stroke-opacity="1.00" stroke-linejoin="round"/>
<path d="M485.64,286.56 C485.44,288.43 486.57,291.66 489.52,297.58 C492.89,304.31 498.12,318.90 499.94,325.66 C501.73,332.34 503.61,344.51 503.95,350.49 C504.06,352.61 504.17,356.10 504.20,358.03" fill="none" stroke="rgb(229, 0, 16)" stroke-width="2.39" stroke-opacity="1.00" stroke-linejoin="round"/>
<path d="M471.71,324.96 C471.71,324.96 471.08,324.96 471.08,324.96 C471.08,324.96 471.32,324.03 471.32,324.03 C472.86,323.90 474.13,324.07 475.10,324.81 C478.09,327.13 485.51,338.23 489.59,344.79 C495.61,354.88 500.73,364.13 503.68,371.11 C507.19,379.45 515.92,412.92 517.70,417.78" fill="none" stroke="rgb(229, 0, 16)" stroke-width="2.39" stroke-opacity="1.00" stroke-linejoin="round"/>
<path d="M487.33,351.11 C488.60,357.26 490.40,368.40 491.21,375.83 C492.33,388.09 492.60,398.11 491.87,403.93 C491.51,406.72 490.60,410.61 489.50,414.03 C488.34,417.61 487.09,419.82 486.31,420.88" fill="none" stroke="rgb(229, 0, 16)" stroke-width="2.39" stroke-opacity="1.00" stroke-linejoin="round"/>
<path d="M426.15,286.14 C426.15,286.14 426.15,285.72 426.15,285.72 C427.52,285.66 437.81,296.22 441.18,301.09 C444.55,306.03 450.89,318.89 453.37,325.64 C455.35,331.05 459.17,343.92 460.80,352.76 C462.61,363.42 463.93,375.22 464.23,377.33" fill="none" stroke="rgb(229, 0, 16)" stroke-width="2.39" stroke-opacity="1.00" stroke-linejoin="round"/>
<path d="M412.64,302.17 C412.64,302.17 412.22,302.05 412.22,302.05 C413.25,301.49 414.27,301.11 415.35,301.00 C416.83,300.88 419.27,301.54 420.77,302.49 C422.08,303.37 425.39,307.96 427.39,311.86 C441.45,339.52 463.66,377.65 468.66,387.21 C471.74,393.42 475.70,401.78 476.31,403.10" fill="none" stroke="rgb(229, 0, 16)" stroke-width="2.39" stroke-opacity="1.00" stroke-linejoin="round"/>
<path d="M440.91,297.11 C439.50,298.07 438.68,299.65 438.21,302.59 C438.20,302.66 434.46,328.11 433.26,334.36 C432.47,338.04 430.64,346.26 430.30,347.59 C429.26,351.68 427.99,355.36 427.71,356.17" fill="none" stroke="rgb(229, 0, 16)" stroke-width="2.39" stroke-opacity="1.00" stroke-linejoin="round"/>
<path d="M463.28,354.07 C463.28,354.07 460.95,354.49 460.95,354.49 C462.47,355.21 464.57,358.82 465.76,362.17 C467.02,365.82 468.83,379.42 469.80,390.00 C470.34,397.35 470.87,406.42 470.90,409.25" fill="none" stroke="rgb(229, 0, 16)" stroke-width="2.39" stroke-opacity="1.00" stroke-linejoin="round"/>
<path d="M443.44,361.24 C443.44,361.24 442.81,361.24 442.81,361.24 C442.78,361.36 446.83,368.19 450.65,385.90 C451.94,392.38 454.61,406.79 456.00,414.72 C456.65,418.79 457.72,425.51 458.14,428.15" fill="none" stroke="rgb(229, 0, 16)" stroke-width="2.39" stroke-opacity="1.00" stroke-linejoin="round"/>
<path d="M477.20,400.48 C477.20,400.48 474.13,400.77 474.13,400.77 C474.13,400.77 473.86,401.25 473.86,401.25 C475.24,401.45 479.51,404.51 481.11,406.46 C482.79,408.60 485.08,415.24 485.67,418.47 C486.47,423.01 488.02,441.03 488.15,448.59 C488.22,455.06 487.25,466.48 486.12,474.34 C484.93,482.18 482.37,493.47 480.70,498.75 C479.17,503.58 466.59,534.07 458.87,550.39 C455.38,558.07 450.62,568.55 449.35,571.36" fill="none" stroke="rgb(229, 0, 16)" stroke-width="2.39" stroke-opacity="1.00" stroke-linejoin="round"/>
<path d="M456.52,459.55 C456.47,458.81 459.14,455.03 460.43,454.33 C461.18,453.94 462.63,453.63 463.47,453.71 C465.43,453.98 467.53,456.89 469.74,461.17 C471.39,464.31 474.13,468.26 477.28,472.08 C479.93,475.30 483.04,480.74 484.70,484.45 C487.63,491.09 491.98,506.09 492.88,509.84 C493.83,513.80 496.59,528.60 496.58,534.70 C496.54,538.11 495.52,545.58 494.69,548.71 C493.75,552.20 489.49,564.67 489.03,565.99" fill="none" stroke="rgb(229, 0, 16)" stroke-width="2.39" stroke-opacity="1.00" stroke-linejoin="round"/>
<path d="M524.45,554.06 C524.45,554.06 523.61,555.12 523.61,555.12 C524.47,557.05 524.92,559.52 524.79,562.90 C524.65,566.02 523.05,571.44 521.43,575.12 C520.70,576.73 517.29,581.08 515.28,583.60 C512.51,587.20 506.13,596.82 505.52,597.75" fill="none" stroke="rgb(229, 0, 16)" stroke-width="2.39" stroke-opacity="1.00" stroke-linejoin="round"/>
<path d="M373.40,301.75 C373.40,301.75 371.83,303.07 371.83,303.07 C372.73,303.17 377.19,306.51 379.58,309.64 C381.78,312.59 390.86,325.67 395.07,331.49 C398.17,335.79 403.19,346.56 406.34,353.00 C411.99,364.14 427.62,400.41 428.69,403.75 C429.04,404.86 433.59,427.12 434.55,430.88 C436.33,437.76 442.69,453.77 444.59,457.56 C445.68,459.71 450.95,468.46 451.50,469.36" fill="none" stroke="rgb(229, 0, 16)" stroke-width="2.39" stroke-opacity="1.00" stroke-linejoin="round"/>
<path d="M362.43,306.39 C364.18,309.56 366.28,312.53 368.61,314.34 C369.76,315.22 372.90,317.46 374.30,318.45 C375.11,319.02 375.93,319.58 376.74,320.14" fill="none" stroke="rgb(229, 0, 16)" stroke-width="2.39" stroke-opacity="1.00" stroke-linejoin="round"/>
<path d="M354.42,248.16 C354.45,248.44 354.27,249.08 354.21,249.33 C354.04,250.25 367.06,263.01 370.52,267.27 C374.64,272.37 380.14,281.51 382.74,286.96 C384.15,289.94 389.60,303.68 391.27,309.22 C392.11,312.22 393.24,316.24 393.52,317.26" fill="none" stroke="rgb(229, 0, 16)" stroke-width="2.39" stroke-opacity="1.00" stroke-linejoin="round"/>
<path d="M399.99,327.07 C399.99,327.07 400.20,326.85 400.20,326.85 C400.83,327.60 404.26,343.99 405.90,352.00 C408.39,363.85 409.74,369.31 409.99,370.34" fill="none" stroke="rgb(229, 0, 16)" stroke-width="2.39" stroke-opacity="1.00" stroke-linejoin="round"/>
<path d="M389.02,362.93 C389.02,362.93 387.96,362.93 387.96,362.93 C387.70,362.94 389.23,379.08 389.54,386.11 C389.75,393.07 389.85,402.54 389.86,405.39 C389.86,407.43 389.86,410.67 389.86,411.87" fill="none" stroke="rgb(229, 0, 16)" stroke-width="2.39" stroke-opacity="1.00" stroke-linejoin="round"/>
<path d="M335.85,268.84 C335.80,269.46 335.91,270.69 336.25,273.26 C336.76,277.18 337.03,283.40 336.71,287.11 C336.58,288.47 336.21,290.86 335.94,292.33" fill="none" stroke="rgb(229, 0, 16)" stroke-width="2.39" stroke-opacity="1.00" stroke-linejoin="round"/>
<path d="M305.05,278.54 C304.62,280.17 304.65,281.74 305.26,283.89 C305.45,284.52 306.48,287.78 306.84,288.93" fill="none" stroke="rgb(229, 0, 16)" stroke-width="2.39" stroke-opacity="1.00" stroke-linejoin="round"/>
<path d="M321.51,308.08 C320.64,311.62 320.68,315.10 320.88,317.72 C320.94,318.50 321.23,321.59 321.33,322.69" fill="none" stroke="rgb(229, 0, 16)" stroke-width="2.39" stroke-opacity="1.00" stroke-linejoin="round"/>
<path d="M276.78,247.74 C276.78,247.74 275.94,247.32 275.94,247.32 C276.37,247.07 280.28,249.88 282.69,252.80 C283.94,254.31 290.05,261.33 291.96,262.96 C292.46,263.38 293.50,264.20 295.07,265.42" fill="none" stroke="rgb(229, 0, 16)" stroke-width="2.39" stroke-opacity="1.00" stroke-linejoin="round"/>
<path d="M265.39,250.70 C264.60,252.12 264.49,255.90 266.34,259.21 C266.70,259.83 267.36,260.81 268.32,262.13 C268.88,262.87 269.43,263.61 269.98,264.35" fill="none" stroke="rgb(229, 0, 16)" stroke-width="2.39" stroke-opacity="1.00" stroke-linejoin="round"/>
<path d="M268.77,264.20 C268.77,264.20 268.77,265.25 268.77,265.25 C269.11,265.64 272.89,267.60 275.51,269.54 C279.78,272.81 289.03,282.50 291.72,285.17 C293.28,286.76 298.95,293.37 300.94,296.05 C302.66,298.37 308.00,306.60 308.84,307.60 C309.71,308.63 315.30,313.49 316.81,315.14 C320.20,318.89 326.31,329.62 329.33,333.77 C335.53,342.24 341.18,351.62 345.41,360.78 C349.89,370.71 354.58,382.42 356.59,388.97 C357.81,392.97 361.45,407.55 363.30,415.16 C364.30,419.28 365.95,426.07 366.60,428.74" fill="none" stroke="rgb(229, 0, 16)" stroke-width="2.39" stroke-opacity="1.00" stroke-linejoin="round"/>
<path d="M324.46,348.16 C323.84,349.02 323.43,350.61 324.20,353.01 C326.66,359.97 329.23,370.69 330.31,378.19 C331.29,385.05 332.10,397.90 332.41,403.24" fill="none" stroke="rgb(229, 0, 16)" stroke-width="2.39" stroke-opacity="1.00" stroke-linejoin="round"/>
<path d="M381.84,430.02 C382.98,430.23 384.21,431.12 385.18,432.65 C387.48,436.30 391.04,449.19 392.28,456.01 C393.50,462.87 394.89,477.12 394.85,484.43 C394.79,491.81 393.26,503.95 391.46,512.00 C390.16,517.68 387.20,525.95 383.21,533.04 C381.92,535.32 379.16,539.54 378.61,540.39" fill="none" stroke="rgb(229, 0, 16)" stroke-width="2.39" stroke-opacity="1.00" stroke-linejoin="round"/>
<path d="M375.09,449.00 C375.09,449.00 375.09,448.58 375.09,448.58 C375.83,448.43 379.62,452.06 382.85,455.97 C386.90,460.91 395.51,473.18 399.97,479.86 C405.06,487.64 410.79,497.99 413.41,505.01 C414.91,509.10 418.93,525.80 420.21,532.00 C420.89,535.68 421.78,540.57 422.00,541.80" fill="none" stroke="rgb(229, 0, 16)" stroke-width="2.39" stroke-opacity="1.00" stroke-linejoin="round"/>
<path d="M312.23,411.87 C312.23,411.87 309.37,411.03 309.37,411.03 C311.17,415.70 317.08,426.95 318.96,431.61 C321.03,436.77 324.81,450.70 325.70,458.38 C326.14,462.49 326.70,467.90 326.83,469.19" fill="none" stroke="rgb(229, 0, 16)" stroke-width="2.39" stroke-opacity="1.00" stroke-linejoin="round"/>
<path d="M309.69,401.32 C309.69,401.32 309.27,401.32 309.27,401.32 C309.62,401.89 313.67,405.32 315.19,407.32 C324.94,420.83 336.48,433.97 339.45,438.91 C341.54,442.48 345.11,449.09 346.12,450.66 C348.32,454.08 357.87,465.24 361.50,471.49 C363.41,474.72 373.23,490.02 375.02,493.82 C376.82,497.72 378.89,502.66 379.61,504.80 C380.78,508.30 384.44,522.21 384.79,523.57" fill="none" stroke="rgb(229, 0, 16)" stroke-width="2.39" stroke-opacity="1.00" stroke-linejoin="round"/>
<path d="M366.23,455.33 C366.23,455.33 364.76,457.86 364.76,457.86 C365.13,460.75 373.84,475.66 375.59,479.06 C377.42,482.63 383.54,496.30 385.61,502.72 C387.81,509.77 390.63,524.30 391.18,529.31 C392.24,539.20 392.89,576.30 392.48,584.75 C392.39,586.50 392.23,589.38 392.17,590.53" fill="none" stroke="rgb(229, 0, 16)" stroke-width="2.39" stroke-opacity="1.00" stroke-linejoin="round"/>
<path d="M345.14,484.44 C345.14,484.44 343.24,484.37 343.24,484.37 C342.55,483.67 342.92,481.13 344.53,479.68 C346.20,478.26 351.52,477.16 354.46,477.80 C357.10,478.41 376.63,488.00 378.30,488.89 C381.83,490.80 391.21,498.91 398.15,506.08 C405.52,513.95 411.66,521.02 414.98,526.65 C417.72,531.33 423.35,543.07 425.80,550.80 C426.22,552.12 428.78,561.23 429.87,565.21 C430.43,567.35 431.36,570.86 431.73,572.25" fill="none" stroke="rgb(229, 0, 16)" stroke-width="2.39" stroke-opacity="1.00" stroke-linejoin="round"/>
<path d="M419.82,573.05 C418.50,574.40 415.55,575.13 412.99,576.53 C409.85,578.26 406.28,580.52 404.38,582.20 C402.03,584.30 398.29,588.43 395.85,591.60 C391.19,597.73 385.90,602.66 382.93,605.39" fill="none" stroke="rgb(229, 0, 16)" stroke-width="2.39" stroke-opacity="1.00" stroke-linejoin="round"/>
<path d="M457.79,563.34 C457.79,563.34 456.05,565.03 456.05,565.03 C453.18,565.09 449.66,565.88 447.60,567.45 C445.37,569.23 441.41,573.71 438.53,578.17 C437.46,579.85 431.88,588.97 431.15,590.01 C429.79,591.92 425.49,595.73 421.38,599.03" fill="none" stroke="rgb(229, 0, 16)" stroke-width="2.39" stroke-opacity="1.00" stroke-linejoin="round"/>
<path d="M369.61,493.30 C368.82,493.69 367.67,493.73 364.32,492.81 C363.16,492.50 359.83,492.46 358.41,492.70 C357.04,492.97 355.75,495.86 355.55,499.57 C355.37,503.62 357.77,519.45 359.85,526.56 C361.77,532.86 365.32,544.46 366.87,550.72 C368.00,555.37 369.39,565.29 369.27,569.78 C369.13,573.93 368.02,579.89 366.56,583.41 C365.97,584.82 362.96,591.64 362.41,592.90" fill="none" stroke="rgb(229, 0, 16)" stroke-width="2.39" stroke-opacity="1.00" stroke-linejoin="round"/>
<path d="M276.36,420.31 C276.36,420.31 276.36,421.28 276.36,421.28 C277.17,421.58 281.49,422.50 282.91,423.31 C285.47,424.80 300.66,437.88 301.95,439.13 C305.66,442.74 315.76,454.60 319.64,460.09 C324.02,466.35 330.02,479.42 332.48,484.87" fill="none" stroke="rgb(229, 0, 16)" stroke-width="2.39" stroke-opacity="1.00" stroke-linejoin="round"/>
<path d="M326.57,455.33 C327.38,457.41 330.52,463.09 332.13,465.93 C336.44,473.82 339.78,483.34 340.76,490.33 C341.20,493.53 341.55,499.36 341.69,501.91" fill="none" stroke="rgb(229, 0, 16)" stroke-width="2.39" stroke-opacity="1.00" stroke-linejoin="round"/>
<path d="M326.99,478.54 C326.88,479.55 329.60,489.58 331.82,499.04 C333.48,506.61 336.93,534.27 338.25,541.80 C339.51,549.07 338.37,552.90 337.96,554.06" fill="none" stroke="rgb(229, 0, 16)" stroke-width="2.39" stroke-opacity="1.00" stroke-linejoin="round"/>
<path d="M339.23,537.61 C339.23,539.92 340.03,544.25 341.24,548.62 C342.32,552.42 343.87,559.07 344.58,562.92 C346.05,571.02 346.06,578.97 346.06,580.07" fill="none" stroke="rgb(229, 0, 16)" stroke-width="2.39" stroke-opacity="1.00" stroke-linejoin="round"/>
<path d="M342.18,538.03 C342.85,539.58 345.33,544.46 347.55,549.58 C350.15,555.79 353.32,568.09 354.12,575.29 C354.48,578.80 354.95,583.40 355.05,584.50" fill="none" stroke="rgb(229, 0, 16)" stroke-width="2.39" stroke-opacity="1.00" stroke-linejoin="round"/>
<path d="M339.65,572.20 C339.19,572.31 337.52,571.68 336.86,571.46 C335.81,571.14 333.11,573.13 330.95,575.63 C329.78,577.01 326.55,581.89 324.91,585.28 C324.42,586.31 317.78,600.73 312.95,608.83" fill="none" stroke="rgb(229, 0, 16)" stroke-width="2.39" stroke-opacity="1.00" stroke-linejoin="round"/>
<path d="M306.32,567.14 C305.42,566.62 302.91,564.87 302.36,565.06 C302.25,565.10 302.02,565.23 301.64,565.46 C301.00,567.46 301.24,570.86 301.89,574.16 C303.07,580.09 306.89,593.60 308.92,600.43 C312.37,611.71 313.46,616.24 313.69,617.47" fill="none" stroke="rgb(229, 0, 16)" stroke-width="2.39" stroke-opacity="1.00" stroke-linejoin="round"/>
<path d="M308.43,535.50 C308.09,535.43 307.88,535.37 307.80,535.33 C307.71,535.29 307.64,535.20 307.58,535.07 C307.58,536.09 307.58,537.11 307.58,538.13 C307.62,542.32 305.83,557.80 304.53,562.97 C303.04,568.83 298.51,580.86 295.66,586.40 C292.03,593.17 286.16,604.08 283.91,608.23" fill="none" stroke="rgb(229, 0, 16)" stroke-width="2.39" stroke-opacity="1.00" stroke-linejoin="round"/>
<path d="M304.21,581.91 C302.03,583.49 300.75,584.53 300.21,585.37 C298.13,588.71 294.75,601.69 293.10,608.13 C292.50,610.59 291.56,614.39 291.23,615.73" fill="none" stroke="rgb(229, 0, 16)" stroke-width="2.39" stroke-opacity="1.00" stroke-linejoin="round"/>
<path d="M253.58,419.89 C253.58,419.89 254.14,420.31 254.14,420.31 C255.65,420.22 259.46,421.03 262.32,422.67 C266.44,425.08 274.86,433.47 278.48,438.25 C280.21,440.54 283.77,446.14 285.85,449.83" fill="none" stroke="rgb(229, 0, 16)" stroke-width="2.39" stroke-opacity="1.00" stroke-linejoin="round"/>
<path d="M262.86,425.37 C263.04,426.47 263.77,428.57 264.65,430.12 C265.36,431.36 271.62,439.41 273.50,442.13 C274.31,443.31 277.73,448.60 278.64,450.12" fill="none" stroke="rgb(229, 0, 16)" stroke-width="2.39" stroke-opacity="1.00" stroke-linejoin="round"/>
<path d="M305.05,453.64 C305.05,453.64 305.13,452.89 305.13,452.89 C306.99,454.62 313.03,463.83 315.35,468.73 C318.35,475.13 322.10,487.03 323.72,494.92 C324.40,498.37 325.29,502.91 325.51,504.00" fill="none" stroke="rgb(229, 0, 16)" stroke-width="2.39" stroke-opacity="1.00" stroke-linejoin="round"/>
<path d="M302.94,524.53 C301.92,525.93 298.94,540.95 296.04,548.68 C295.00,551.40 291.12,558.32 290.59,559.05 C289.59,560.40 287.54,561.96 286.38,562.20 C285.25,562.37 282.47,561.73 281.01,560.95 C277.97,559.22 275.09,554.93 271.66,549.46" fill="none" stroke="rgb(229, 0, 16)" stroke-width="2.39" stroke-opacity="1.00" stroke-linejoin="round"/>
<path d="M503.78,549.84 C503.70,550.29 500.09,554.12 498.49,557.01 C493.37,566.45 489.59,575.93 487.74,582.29 C486.87,585.15 484.59,590.96 483.32,593.22 C482.02,595.50 478.62,599.80 476.34,601.82 C471.60,605.97 465.12,610.29 463.52,611.32" fill="none" stroke="rgb(229, 0, 16)" stroke-width="2.39" stroke-opacity="1.00" stroke-linejoin="round"/>
<path d="M520.66,507.23 C520.66,507.23 520.31,506.38 520.31,506.38 C521.08,507.02 523.88,510.80 524.99,513.20 C526.03,515.50 527.53,520.39 527.89,521.58" fill="none" stroke="rgb(229, 0, 16)" stroke-width="2.39" stroke-opacity="1.00" stroke-linejoin="round"/>
<path d="M167.03,327.52 C166.03,327.50 164.29,325.82 162.26,326.36 C161.46,326.59 158.82,327.95 158.48,328.31 C156.94,330.03 155.81,344.32 155.77,352.18 C155.83,359.68 156.03,367.61 156.06,368.67" fill="none" stroke="rgb(229, 0, 16)" stroke-width="2.39" stroke-opacity="1.00" stroke-linejoin="round"/>
<path d="M363.82,296.27 C365.09,299.39 367.63,307.01 367.81,307.46 C368.94,310.23 370.84,313.36 371.52,314.52" fill="none" stroke="rgb(229, 0, 16)" stroke-width="2.39" stroke-opacity="1.00" stroke-linejoin="round"/>
<path d="M274.54,478.55 C276.58,480.74 279.19,484.50 281.81,489.16 C282.51,490.44 282.97,491.29 283.19,491.70 C283.75,492.80 284.30,493.91 284.86,495.01" fill="none" stroke="rgb(0, 160, 232)" stroke-width="2.39" stroke-opacity="1.00" stroke-linejoin="round"/>
<path d="M276.02,478.92 C276.02,478.92 276.02,479.11 276.02,479.11 C275.90,479.24 275.44,479.58 275.12,479.67 C274.18,479.89 269.72,477.24 267.90,476.43 C266.34,475.76 261.56,474.25 259.80,474.05 C259.04,473.97 249.50,473.20 246.01,472.84 C242.85,472.64 238.08,473.73 234.39,474.90 C231.33,475.89 227.66,477.49 227.22,478.86 C227.10,479.25 226.94,479.74 226.75,480.33 C227.15,481.12 245.41,490.60 245.48,490.63 C247.87,491.76 253.39,493.58 256.68,494.20 C259.13,494.64 263.48,494.84 268.24,494.88 C271.48,494.91 275.10,494.34 278.13,493.32 C279.15,492.97 282.28,491.69 283.41,491.22" fill="none" stroke="rgb(0, 160, 232)" stroke-width="2.39" stroke-opacity="1.00" stroke-linejoin="round"/>
<path d="M265.61,481.53 C265.50,481.49 265.37,481.49 265.24,481.53 C265.10,481.56 264.75,481.69 264.19,481.90 C264.68,481.94 265.01,481.97 265.21,482.01 C265.40,482.04 265.73,482.12 266.18,482.24" fill="none" stroke="rgb(0, 160, 232)" stroke-width="2.39" stroke-opacity="1.00" stroke-linejoin="round"/>
<path d="M237.71,477.81 C237.71,477.81 236.96,477.81 236.96,477.81 C237.33,478.12 237.87,478.34 238.07,478.42 C238.20,478.48 238.48,478.60 238.89,478.80" fill="none" stroke="rgb(0, 160, 232)" stroke-width="2.39" stroke-opacity="1.00" stroke-linejoin="round"/>
<path d="M252.22,485.25 C252.22,485.25 251.59,485.53 251.59,485.53 C251.45,486.86 251.33,487.71 251.21,488.01 C251.17,488.13 251.05,488.38 250.86,488.76" fill="none" stroke="rgb(0, 160, 232)" stroke-width="2.39" stroke-opacity="1.00" stroke-linejoin="round"/>
<path d="M258.91,448.79 C257.75,448.77 257.12,448.82 256.59,448.99 C256.04,449.15 248.53,449.19 245.04,449.69 C241.71,450.18 236.49,451.96 234.47,453.10 C232.66,454.14 228.66,457.76 226.49,460.85 C225.21,462.70 215.63,478.99 213.89,483.03 C212.42,486.45 207.61,502.75 206.89,508.22 C206.54,511.16 206.84,513.43 207.20,515.38" fill="none" stroke="rgb(0, 160, 232)" stroke-width="2.39" stroke-opacity="1.00" stroke-linejoin="round"/>
<path d="M208.69,508.31 C208.69,508.31 208.69,507.67 208.69,507.67 C208.72,515.40 210.58,522.64 211.61,524.54 C211.61,524.54 212.30,524.52 212.30,524.52" fill="none" stroke="rgb(0, 160, 232)" stroke-width="2.39" stroke-opacity="1.00" stroke-linejoin="round"/>
<path d="M211.30,500.50 C211.30,500.50 211.30,500.31 211.30,500.31 C211.30,500.31 211.11,500.13 211.11,500.13 C211.11,500.13 210.95,516.65 210.95,516.65 C211.23,513.26 211.84,505.35 212.18,500.84 C212.38,496.91 212.68,490.42 212.78,487.85" fill="none" stroke="rgb(0, 160, 232)" stroke-width="2.39" stroke-opacity="1.00" stroke-linejoin="round"/>
<path d="M213.90,484.50 C214.02,487.41 211.93,503.27 210.98,510.22 C210.86,511.22 210.74,512.22 210.62,513.22 C210.62,513.22 211.30,510.92 211.30,510.92" fill="none" stroke="rgb(0, 160, 232)" stroke-width="2.39" stroke-opacity="1.00" stroke-linejoin="round"/>
<path d="M221.34,479.67 C220.59,480.27 220.13,480.67 219.94,480.88 C219.07,481.91 211.97,511.26 209.34,519.78 C209.34,519.78 212.41,510.54 212.41,510.54" fill="none" stroke="rgb(0, 160, 232)" stroke-width="2.39" stroke-opacity="1.00" stroke-linejoin="round"/>
<path d="M225.80,478.92 C224.34,481.69 219.51,497.60 216.99,505.43 C214.93,511.34 212.55,518.21 212.23,519.16 C212.23,519.16 212.73,518.29 212.73,518.29" fill="none" stroke="rgb(0, 160, 232)" stroke-width="2.39" stroke-opacity="1.00" stroke-linejoin="round"/>
<path d="M228.41,482.64 C227.20,484.80 226.60,486.26 225.65,489.43 C224.41,493.55 215.68,513.42 215.31,514.94 C215.31,514.94 217.12,512.40 217.12,512.40" fill="none" stroke="rgb(0, 160, 232)" stroke-width="2.39" stroke-opacity="1.00" stroke-linejoin="round"/>
<path d="M231.38,484.88 C230.14,487.47 222.49,507.78 221.58,509.76 C221.43,510.09 216.67,519.51 216.01,520.80 C216.01,520.80 219.02,516.72 219.02,516.72" fill="none" stroke="rgb(0, 160, 232)" stroke-width="2.39" stroke-opacity="1.00" stroke-linejoin="round"/>
<path d="M234.73,488.97 C234.81,488.86 232.74,492.92 230.43,497.88 C224.14,512.79 219.82,521.28 219.41,522.38 C219.41,522.38 222.15,518.95 222.15,518.95" fill="none" stroke="rgb(0, 160, 232)" stroke-width="2.39" stroke-opacity="1.00" stroke-linejoin="round"/>
<path d="M239.57,487.85 C239.57,487.85 239.94,488.13 239.94,488.13 C239.27,490.19 237.91,492.99 235.96,496.67 C230.09,507.65 226.93,514.22 225.33,518.68 C225.33,518.68 226.93,517.08 226.93,517.08" fill="none" stroke="rgb(0, 160, 232)" stroke-width="2.39" stroke-opacity="1.00" stroke-linejoin="round"/>
<path d="M241.80,491.57 C241.80,491.57 241.15,491.76 241.15,491.76 C241.15,491.76 225.00,520.04 225.00,520.04 C225.00,520.04 225.99,518.65 225.99,518.65" fill="none" stroke="rgb(0, 160, 232)" stroke-width="2.39" stroke-opacity="1.00" stroke-linejoin="round"/>
<path d="M242.54,492.69 C242.02,493.45 239.94,496.11 238.51,498.09 C233.44,504.81 222.72,519.32 222.15,520.01 C221.97,520.09 222.65,517.84 222.93,516.90 C223.30,515.63 223.55,514.65 223.68,513.98 C223.75,513.64 223.78,513.24 223.76,512.80 C223.40,513.01 222.50,514.17 222.13,514.63 C219.91,517.32 217.72,518.38 217.18,518.31 C217.18,518.31 218.63,512.02 218.63,512.02 C218.63,512.02 215.03,518.48 215.03,518.48" fill="none" stroke="rgb(0, 160, 232)" stroke-width="2.39" stroke-opacity="1.00" stroke-linejoin="round"/>
<path d="M236.22,488.22 C236.08,488.60 234.91,489.70 234.02,491.81 C233.43,493.24 232.54,495.21 231.83,496.66 C231.32,497.67 230.25,499.80 229.69,500.92" fill="none" stroke="rgb(0, 160, 232)" stroke-width="2.39" stroke-opacity="1.00" stroke-linejoin="round"/>
<path d="M231.01,462.93 C231.01,462.93 230.36,463.86 230.36,463.86 C228.80,464.09 228.08,465.06 226.15,468.22 C220.38,477.89 217.13,482.82 216.43,483.78 C216.20,484.10 215.75,484.69 215.09,485.57" fill="none" stroke="rgb(0, 160, 232)" stroke-width="2.39" stroke-opacity="1.00" stroke-linejoin="round"/>
<path d="M228.41,462.18 C228.09,462.44 227.85,462.63 227.70,462.74 C227.10,463.21 224.98,467.12 223.89,469.14 C222.58,471.48 217.00,480.50 216.38,481.46 C216.23,481.70 216.03,482.02 215.79,482.42" fill="none" stroke="rgb(0, 160, 232)" stroke-width="2.39" stroke-opacity="1.00" stroke-linejoin="round"/>
<path d="M232.50,455.49 C232.63,455.45 229.45,459.51 227.50,463.41 C224.35,469.98 219.37,480.36 219.24,481.02 C219.24,481.02 223.20,475.20 223.20,475.20" fill="none" stroke="rgb(0, 160, 232)" stroke-width="2.39" stroke-opacity="1.00" stroke-linejoin="round"/>
<path d="M232.13,459.95 C232.93,458.82 235.14,455.71 235.57,455.21 C235.85,454.88 236.30,454.43 236.92,453.86 C236.92,453.86 224.14,475.79 224.14,475.79 C224.14,475.79 225.70,473.39 225.70,473.39" fill="none" stroke="rgb(0, 160, 232)" stroke-width="2.39" stroke-opacity="1.00" stroke-linejoin="round"/>
<path d="M241.43,451.02 C241.43,451.02 242.17,450.19 242.17,450.19 C241.25,452.86 238.69,458.05 235.67,463.40 C230.60,472.15 228.06,475.45 227.58,476.07 C227.58,476.07 229.41,472.02 229.41,472.02" fill="none" stroke="rgb(0, 160, 232)" stroke-width="2.39" stroke-opacity="1.00" stroke-linejoin="round"/>
<path d="M245.15,450.28 C245.21,450.26 244.98,450.99 243.61,454.41 C242.20,457.85 233.66,472.00 232.99,472.96 C232.99,472.96 234.81,469.27 234.81,469.27" fill="none" stroke="rgb(0, 160, 232)" stroke-width="2.39" stroke-opacity="1.00" stroke-linejoin="round"/>
<path d="M246.26,451.40 C246.26,451.40 246.82,450.65 246.82,450.65 C246.67,451.49 244.22,456.73 243.01,459.34 C241.77,461.89 237.61,469.28 235.70,472.66 C235.70,472.66 238.13,468.55 238.13,468.55" fill="none" stroke="rgb(0, 160, 232)" stroke-width="2.39" stroke-opacity="1.00" stroke-linejoin="round"/>
<path d="M249.98,450.28 C249.98,450.28 240.21,471.02 240.21,471.02 C240.21,471.02 242.63,466.41 242.63,466.41" fill="none" stroke="rgb(0, 160, 232)" stroke-width="2.39" stroke-opacity="1.00" stroke-linejoin="round"/>
<path d="M250.36,451.77 C250.48,451.71 249.67,453.18 249.38,453.82 C249.24,454.14 244.16,468.89 243.40,471.01 C243.40,471.01 245.07,467.30 245.07,467.30" fill="none" stroke="rgb(0, 160, 232)" stroke-width="2.39" stroke-opacity="1.00" stroke-linejoin="round"/>
<path d="M252.96,452.14 C252.96,452.14 253.33,451.58 253.33,451.58 C253.35,451.54 253.19,452.73 253.03,453.41 C252.08,457.48 248.96,465.87 248.19,467.83 C248.19,467.83 248.96,466.45 248.96,466.45" fill="none" stroke="rgb(0, 160, 232)" stroke-width="2.39" stroke-opacity="1.00" stroke-linejoin="round"/>
<path d="M256.31,449.54 C256.31,449.54 256.31,449.29 256.31,449.29 C255.99,451.81 255.70,453.50 255.24,455.26 C253.60,461.60 250.63,469.63 250.21,470.74 C250.21,470.74 252.02,466.02 252.02,466.02" fill="none" stroke="rgb(0, 160, 232)" stroke-width="2.39" stroke-opacity="1.00" stroke-linejoin="round"/>
<path d="M258.54,450.28 C258.66,450.18 258.08,452.28 257.62,453.91 C256.41,459.26 254.10,468.60 252.55,472.65 C252.55,472.65 253.33,470.00 253.33,470.00" fill="none" stroke="rgb(0, 160, 232)" stroke-width="2.39" stroke-opacity="1.00" stroke-linejoin="round"/>
<path d="M261.89,449.16 C261.77,449.46 261.64,449.99 261.34,451.44 C259.60,459.70 257.75,466.57 256.06,471.97 C256.06,471.97 257.37,467.57 257.37,467.57" fill="none" stroke="rgb(0, 160, 232)" stroke-width="2.39" stroke-opacity="1.00" stroke-linejoin="round"/>
<path d="M262.63,453.63 C262.14,454.19 261.67,456.02 260.68,461.40 C260.04,464.76 258.82,471.04 258.25,473.96 C258.25,473.96 258.81,471.25 258.81,471.25" fill="none" stroke="rgb(0, 160, 232)" stroke-width="2.39" stroke-opacity="1.00" stroke-linejoin="round"/>
<path d="M263.00,458.46 C262.31,460.71 260.80,464.72 260.49,465.39 C260.31,465.80 259.86,466.63 259.15,467.90" fill="none" stroke="rgb(0, 160, 232)" stroke-width="2.39" stroke-opacity="1.00" stroke-linejoin="round"/>
<path d="M248.12,470.37 C247.89,470.55 247.72,470.67 247.60,470.74 C246.99,471.07 228.89,476.60 228.63,476.74 C228.11,477.05 224.94,480.07 224.38,480.70 C223.84,481.31 222.45,483.47 221.95,484.26" fill="none" stroke="rgb(0, 160, 232)" stroke-width="2.39" stroke-opacity="1.00" stroke-linejoin="round"/>
<path d="M227.66,472.97 C224.81,476.25 223.13,479.73 221.89,482.52 C221.21,484.07 220.34,485.92 219.55,487.51 C218.79,489.03 218.04,490.38 217.07,492.00" fill="none" stroke="rgb(0, 160, 232)" stroke-width="2.39" stroke-opacity="1.00" stroke-linejoin="round"/>
<path d="M265.24,451.40 C265.24,451.40 265.24,450.65 265.24,450.65 C265.24,450.63 265.24,450.70 265.24,450.73 C265.09,459.87 264.01,471.62 263.11,473.48 C262.97,473.76 262.59,474.26 261.98,474.97" fill="none" stroke="rgb(0, 160, 232)" stroke-width="2.39" stroke-opacity="1.00" stroke-linejoin="round"/>
<path d="M267.47,450.65 C266.55,452.18 266.13,454.78 266.03,460.63 C265.98,464.15 265.69,468.25 265.35,472.26 C265.35,472.26 265.24,471.86 265.24,471.86" fill="none" stroke="rgb(0, 160, 232)" stroke-width="2.39" stroke-opacity="1.00" stroke-linejoin="round"/>
<path d="M269.33,452.88 C269.33,452.88 269.14,452.88 269.14,452.88 C268.84,453.12 268.63,454.29 268.66,456.07 C269.01,463.71 269.36,474.81 269.36,478.27 C269.58,477.63 270.47,470.25 270.66,468.14 C270.82,466.28 271.32,458.11 271.35,457.68 C271.39,457.24 271.48,456.31 271.64,454.86 C271.64,454.86 272.00,454.65 272.00,454.65 C272.00,454.65 273.66,479.72 273.66,479.72 C274.66,474.95 274.87,463.61 274.91,460.39 C274.91,458.25 274.92,457.07 274.93,456.85 C274.94,456.46 275.00,456.14 275.08,455.87 C275.47,457.30 276.14,459.78 276.33,460.83 C277.32,466.32 278.35,478.41 278.61,482.06 C278.79,481.05 278.91,476.44 278.97,473.64 C278.98,472.00 279.00,468.81 279.01,467.26 C279.00,465.90 278.98,461.57 279.00,461.01 C279.01,460.59 279.05,460.16 279.12,459.71 C280.19,460.94 282.17,474.23 282.50,481.18 C282.55,482.40 282.59,483.62 282.64,484.84 C282.64,484.84 282.35,484.88 282.35,484.88" fill="none" stroke="rgb(0, 160, 232)" stroke-width="2.39" stroke-opacity="1.00" stroke-linejoin="round"/>
<path d="M283.09,459.95 C283.09,459.95 283.77,460.01 283.77,460.01 C284.95,464.35 285.77,476.76 285.58,484.77 C285.50,487.68 285.14,491.87 284.92,492.59 C284.92,492.59 284.58,489.34 284.58,489.34" fill="none" stroke="rgb(0, 160, 232)" stroke-width="2.39" stroke-opacity="1.00" stroke-linejoin="round"/>
<path d="M286.07,463.67 C286.07,463.67 286.63,462.83 286.63,462.83 C287.38,464.39 288.12,468.53 288.43,471.73 C289.05,478.29 288.42,486.42 288.02,488.34 C288.02,488.34 286.81,488.97 286.81,488.97" fill="none" stroke="rgb(0, 160, 232)" stroke-width="2.39" stroke-opacity="1.00" stroke-linejoin="round"/>
<path d="M271.56,448.42 C271.56,448.42 271.19,448.42 271.19,448.42 C271.19,448.42 271.19,448.61 271.19,448.61 C271.17,448.84 277.09,451.82 279.22,454.00 C279.95,454.76 287.78,464.25 287.99,464.52 C289.89,466.98 293.77,475.69 294.11,476.46 C295.11,478.74 297.21,492.62 297.17,495.83 C296.98,506.18 289.96,526.84 288.96,527.78 C287.94,528.66 283.14,528.85 280.26,528.94 C276.81,529.04 272.83,527.97 270.90,526.46 C268.05,524.09 266.92,523.44 265.93,522.77 C265.93,522.66 268.80,505.47 268.42,501.44 C268.36,500.82 268.17,499.52 267.84,497.52" fill="none" stroke="rgb(0, 160, 232)" stroke-width="2.39" stroke-opacity="1.00" stroke-linejoin="round"/>
<path d="M269.33,496.78 C269.33,496.78 268.96,497.28 268.96,497.28 C269.03,497.82 269.98,502.13 270.25,506.04 C270.75,513.74 270.02,521.20 269.82,522.67 C269.82,522.67 269.70,520.96 269.70,520.96" fill="none" stroke="rgb(0, 160, 232)" stroke-width="2.39" stroke-opacity="1.00" stroke-linejoin="round"/>
<path d="M273.05,495.29 C273.05,495.66 273.05,497.32 273.05,498.61 C272.87,514.77 270.59,525.01 270.12,526.23 C270.12,526.23 270.80,522.17 270.80,522.17" fill="none" stroke="rgb(0, 160, 232)" stroke-width="2.39" stroke-opacity="1.00" stroke-linejoin="round"/>
<path d="M273.05,500.50 C272.33,501.49 272.00,503.46 271.44,508.44 C270.35,518.31 269.38,522.23 268.28,525.22 C268.28,525.22 267.10,525.05 267.10,525.05" fill="none" stroke="rgb(0, 160, 232)" stroke-width="2.39" stroke-opacity="1.00" stroke-linejoin="round"/>
<path d="M268.21,515.38 C266.96,517.47 266.29,518.89 265.73,520.72 C264.92,523.38 264.43,526.18 264.29,527.12 C264.29,527.12 266.26,524.46 266.26,524.46" fill="none" stroke="rgb(0, 160, 232)" stroke-width="2.39" stroke-opacity="1.00" stroke-linejoin="round"/>
<path d="M269.33,516.87 C269.33,516.81 269.33,516.99 269.33,517.05 C269.23,519.02 268.84,521.73 268.77,522.66 C268.72,523.26 268.67,524.52 268.62,526.44 C268.62,526.44 269.74,523.16 269.74,523.16" fill="none" stroke="rgb(0, 160, 232)" stroke-width="2.39" stroke-opacity="1.00" stroke-linejoin="round"/>
<path d="M276.02,496.04 C276.02,496.04 276.40,494.55 276.40,494.55 C276.23,498.20 275.33,504.67 274.82,508.29 C274.15,512.56 271.37,523.94 270.43,527.71 C270.43,527.71 273.05,517.24 273.05,517.24" fill="none" stroke="rgb(0, 160, 232)" stroke-width="2.39" stroke-opacity="1.00" stroke-linejoin="round"/>
<path d="M278.63,492.69 C278.63,492.69 279.19,491.39 279.19,491.39 C279.37,494.19 277.14,510.17 275.12,519.86 C274.00,525.15 273.81,525.96 273.42,527.47 C273.42,527.47 274.48,522.28 274.48,522.28" fill="none" stroke="rgb(0, 160, 232)" stroke-width="2.39" stroke-opacity="1.00" stroke-linejoin="round"/>
<path d="M281.23,491.94 C281.24,492.06 281.24,492.31 281.23,492.69 C281.14,496.83 280.73,501.41 280.27,504.61 C279.26,511.41 276.04,526.12 275.52,527.72 C275.52,527.72 276.31,523.96 276.31,523.96" fill="none" stroke="rgb(0, 160, 232)" stroke-width="2.39" stroke-opacity="1.00" stroke-linejoin="round"/>
<path d="M283.84,491.94 C283.84,491.94 284.21,491.94 284.21,491.94 C284.67,492.05 284.47,498.94 284.36,502.08 C283.73,514.51 279.49,527.41 279.15,528.34 C279.26,526.85 279.33,525.84 279.37,525.33 C279.42,524.82 279.50,524.08 279.61,523.12" fill="none" stroke="rgb(0, 160, 232)" stroke-width="2.39" stroke-opacity="1.00" stroke-linejoin="round"/>
<path d="M284.58,490.83 C284.58,490.83 286.63,486.55 286.63,486.55 C287.56,487.11 286.56,503.12 285.38,509.25 C283.69,517.46 281.58,524.02 279.77,527.59 C279.77,526.36 279.78,525.52 279.81,525.05 C279.85,524.58 279.95,523.84 280.12,522.82" fill="none" stroke="rgb(0, 160, 232)" stroke-width="2.39" stroke-opacity="1.00" stroke-linejoin="round"/>
<path d="M287.93,490.08 C287.93,490.08 288.30,489.71 288.30,489.71 C288.30,489.71 288.86,490.18 288.86,490.18 C289.07,495.37 287.39,507.47 285.78,513.84 C283.87,521.25 281.28,526.11 279.93,528.24 C279.93,528.24 280.12,523.94 280.12,523.94" fill="none" stroke="rgb(0, 160, 232)" stroke-width="2.39" stroke-opacity="1.00" stroke-linejoin="round"/>
<path d="M288.30,498.64 C288.30,498.64 288.67,498.27 288.67,498.27 C288.67,498.27 289.04,498.45 289.04,498.45 C289.05,501.77 288.69,505.72 287.78,509.65 C286.40,515.44 281.92,526.33 280.12,528.07 C280.12,528.07 280.49,524.68 280.49,524.68" fill="none" stroke="rgb(0, 160, 232)" stroke-width="2.39" stroke-opacity="1.00" stroke-linejoin="round"/>
<path d="M289.04,507.20 C289.04,507.20 289.23,507.01 289.23,507.01 C289.23,507.01 289.42,507.29 289.42,507.29 C289.16,509.63 288.12,514.10 287.31,516.78 C286.43,519.68 284.51,524.64 282.57,527.90 C282.57,527.90 281.60,527.28 281.60,527.28" fill="none" stroke="rgb(0, 160, 232)" stroke-width="2.39" stroke-opacity="1.00" stroke-linejoin="round"/>
<path d="M288.30,512.40 C288.30,512.40 289.14,510.73 289.14,510.73 C289.14,510.73 289.32,510.98 289.32,510.98 C289.27,514.71 285.31,525.77 282.66,530.06 C282.66,530.06 282.21,529.77 282.21,529.77 C282.21,529.77 282.72,528.03 282.72,528.03" fill="none" stroke="rgb(0, 160, 232)" stroke-width="2.39" stroke-opacity="1.00" stroke-linejoin="round"/>
<path d="M288.30,517.98 C288.30,517.98 288.86,517.05 288.86,517.05 C288.86,517.05 289.04,517.30 289.04,517.30 C288.50,522.13 285.97,527.81 283.90,531.48 C283.90,531.48 283.09,531.38 283.09,531.38" fill="none" stroke="rgb(0, 160, 232)" stroke-width="2.39" stroke-opacity="1.00" stroke-linejoin="round"/>
<path d="M282.72,519.10 C282.49,519.58 282.30,519.95 282.16,520.22 C281.96,520.59 278.35,527.19 276.95,529.40 C276.95,529.40 277.81,527.10 277.81,527.10" fill="none" stroke="rgb(0, 160, 232)" stroke-width="2.39" stroke-opacity="1.00" stroke-linejoin="round"/>
<path d="M282.35,516.87 C282.35,516.87 274.94,532.90 274.94,532.90 C274.94,532.90 276.02,529.14 276.02,529.14" fill="none" stroke="rgb(0, 160, 232)" stroke-width="2.39" stroke-opacity="1.00" stroke-linejoin="round"/>
<path d="M281.23,515.38 C281.23,515.38 281.23,515.11 281.23,515.11 C280.65,516.97 279.82,519.60 279.16,521.46 C278.60,523.03 277.63,525.73 277.23,526.85 C277.13,527.12 276.97,527.51 276.77,528.03" fill="none" stroke="rgb(0, 160, 232)" stroke-width="2.39" stroke-opacity="1.00" stroke-linejoin="round"/>
<path d="M287.93,517.98 C287.41,519.22 286.58,521.37 286.16,522.68 C285.74,523.99 284.62,528.07 284.21,529.59 C287.22,521.31 289.31,514.83 290.38,508.92 C291.49,502.51 292.94,493.02 294.49,485.86 C293.52,491.28 290.54,514.01 290.26,514.61 C290.12,514.90 289.73,515.55 289.09,516.57" fill="none" stroke="rgb(0, 160, 232)" stroke-width="2.39" stroke-opacity="1.00" stroke-linejoin="round"/>
<path d="M288.30,477.81 C288.30,477.81 288.30,477.44 288.30,477.44 C288.48,477.39 289.38,478.50 289.93,479.66 C291.77,483.61 293.05,494.06 292.86,498.43 C292.61,503.41 290.42,512.93 288.21,517.27 C288.21,517.27 286.44,517.61 286.44,517.61" fill="none" stroke="rgb(0, 160, 232)" stroke-width="2.39" stroke-opacity="1.00" stroke-linejoin="round"/>
<path d="M290.90,472.23 C290.90,472.23 291.93,471.48 291.93,471.48 C292.85,471.72 294.33,476.11 294.69,479.06 C295.37,484.96 294.86,498.39 293.52,505.48 C292.02,513.26 289.36,519.75 288.27,520.80 C288.10,520.96 287.74,521.26 287.18,521.70" fill="none" stroke="rgb(0, 160, 232)" stroke-width="2.39" stroke-opacity="1.00" stroke-linejoin="round"/>
<path d="M292.02,471.11 C292.29,474.27 292.82,479.03 292.92,480.74 C293.30,487.20 292.29,499.51 290.57,506.72 C289.78,509.99 287.89,515.16 286.70,517.64 C285.07,520.95 283.10,522.84 281.60,523.94" fill="none" stroke="rgb(0, 160, 232)" stroke-width="2.39" stroke-opacity="1.00" stroke-linejoin="round"/>
<path d="M290.90,475.20 C290.98,475.05 290.82,478.28 290.73,479.51 C290.43,483.83 287.20,497.10 284.84,502.30 C283.08,506.11 281.05,509.43 279.56,511.71 C279.56,511.71 280.12,509.80 280.12,509.80" fill="none" stroke="rgb(0, 160, 232)" stroke-width="2.39" stroke-opacity="1.00" stroke-linejoin="round"/>
<path d="M288.67,484.88 C288.72,484.92 288.47,487.44 288.18,489.15 C287.39,493.75 283.34,505.72 280.49,511.61 C279.26,514.16 278.23,515.90 276.77,517.98" fill="none" stroke="rgb(0, 160, 232)" stroke-width="2.39" stroke-opacity="1.00" stroke-linejoin="round"/>
<path d="M290.53,470.00 C290.77,470.16 291.24,473.48 291.62,477.26 C291.87,479.73 292.17,485.19 292.17,488.26 C292.16,492.07 291.77,496.86 291.28,500.13" fill="none" stroke="rgb(0, 160, 232)" stroke-width="2.39" stroke-opacity="1.00" stroke-linejoin="round"/>
<path d="M243.29,494.55 C243.29,494.55 240.75,495.29 240.75,495.29 C240.75,495.29 245.13,500.45 245.13,500.45 C245.24,500.51 242.76,501.03 241.17,501.59 C240.08,501.97 237.52,503.08 235.85,503.85" fill="none" stroke="rgb(0, 160, 232)" stroke-width="2.39" stroke-opacity="1.00" stroke-linejoin="round"/>
<path d="M248.50,497.52 C247.52,498.90 246.82,500.06 246.60,500.84 C246.36,501.78 246.33,503.86 246.56,504.85 C246.75,505.60 250.51,509.77 250.73,510.46 C250.90,509.08 254.40,507.10 258.19,506.64 C261.55,506.26 267.27,505.96 270.16,505.82 C271.25,505.78 272.33,505.74 273.42,505.71" fill="none" stroke="rgb(0, 160, 232)" stroke-width="2.39" stroke-opacity="1.00" stroke-linejoin="round"/>
<path d="M248.50,500.50 C248.50,500.50 248.12,500.50 248.12,500.50 C248.12,500.50 247.85,500.13 247.85,500.13 C252.53,499.14 269.10,498.92 272.35,498.13 C272.70,498.04 273.38,497.81 274.39,497.43 C274.39,497.43 273.05,497.52 273.05,497.52" fill="none" stroke="rgb(0, 160, 232)" stroke-width="2.39" stroke-opacity="1.00" stroke-linejoin="round"/>
<path d="M272.68,529.89 C271.99,530.35 271.68,530.72 271.21,531.81 C268.95,536.90 260.55,549.65 259.65,551.26 C258.48,553.38 255.15,557.23 255.03,557.48 C255.69,558.68 261.50,563.10 262.70,564.02 C262.98,564.24 263.33,564.52 263.75,564.86" fill="none" stroke="rgb(0, 160, 232)" stroke-width="2.39" stroke-opacity="1.00" stroke-linejoin="round"/>
<path d="M255.94,558.16 C255.94,558.16 255.19,558.16 255.19,558.16 C255.04,558.28 253.77,559.99 253.53,560.77 C253.18,562.05 253.93,564.27 254.93,564.96 C255.89,565.58 259.78,566.92 260.87,567.04 C261.26,567.08 261.60,566.97 261.89,566.72" fill="none" stroke="rgb(0, 160, 232)" stroke-width="2.39" stroke-opacity="1.00" stroke-linejoin="round"/>
<path d="M253.70,560.39 C253.25,560.73 252.93,560.79 252.86,560.86 C252.02,561.87 247.66,566.43 246.65,568.39 C249.64,570.57 256.19,565.75 256.65,565.30 C256.65,565.30 250.93,574.30 250.93,574.30 C252.30,574.76 256.83,571.04 258.14,569.77 C258.47,569.44 259.06,568.84 259.91,567.96" fill="none" stroke="rgb(0, 160, 232)" stroke-width="2.39" stroke-opacity="1.00" stroke-linejoin="round"/>
<path d="M260.40,569.32 C260.44,569.42 260.44,569.55 260.40,569.69 C260.36,569.84 260.24,570.21 260.03,570.81 C260.03,570.81 262.59,569.14 262.59,569.14 C262.59,569.14 255.55,578.83 255.55,578.83 C256.18,579.41 262.72,570.17 263.06,569.50 C263.17,569.28 263.18,569.11 263.08,568.99" fill="none" stroke="rgb(0, 160, 232)" stroke-width="2.39" stroke-opacity="1.00" stroke-linejoin="round"/>
<path d="M263.75,567.09 C263.75,567.09 263.75,566.90 263.75,566.90 C264.13,566.36 264.12,566.33 264.15,566.29 C266.93,563.05 276.81,552.92 280.84,546.75 C285.69,539.27 288.80,531.26 289.07,530.17 C289.28,529.27 289.96,525.15 290.16,523.94" fill="none" stroke="rgb(0, 160, 232)" stroke-width="2.39" stroke-opacity="1.00" stroke-linejoin="round"/>
<path d="M215.39,525.80 C214.99,526.19 214.46,526.45 214.27,526.54 C214.27,526.54 211.99,529.71 209.88,532.43 C207.04,535.95 204.39,538.51 201.44,540.14 C198.75,541.64 183.96,559.35 182.06,561.36 C181.74,561.70 181.31,562.13 180.79,562.62" fill="none" stroke="rgb(0, 160, 232)" stroke-width="2.39" stroke-opacity="1.00" stroke-linejoin="round"/>
<path d="M194.93,544.40 C194.74,544.58 194.56,544.77 194.37,544.95 C193.98,545.35 193.59,545.75 193.20,546.15 C191.84,546.34 189.51,545.88 187.40,544.08 C186.00,542.87 185.53,542.34 185.27,541.82 C186.18,541.70 191.85,531.86 194.44,526.15 C198.45,516.94 202.15,511.53 203.94,509.31 C205.42,507.47 207.07,505.73 208.69,504.22" fill="none" stroke="rgb(0, 160, 232)" stroke-width="2.39" stroke-opacity="1.00" stroke-linejoin="round"/>
<path d="M199.39,517.61 C199.35,517.57 198.95,518.19 198.12,519.63 C196.47,522.43 192.28,527.94 191.04,528.59 C190.19,529.01 187.01,531.65 186.01,532.36 C185.85,532.48 185.66,532.60 185.47,532.72" fill="none" stroke="rgb(0, 160, 232)" stroke-width="2.39" stroke-opacity="1.00" stroke-linejoin="round"/>
<path d="M184.14,542.54 C184.14,542.54 184.14,542.16 184.14,542.16 C184.14,542.16 184.51,542.06 184.51,542.06 C184.51,542.06 184.51,541.79 184.51,541.79 C181.26,544.49 177.07,547.22 175.21,549.37 C174.64,550.03 174.43,550.88 174.32,551.80 C176.48,551.92 177.76,551.70 179.04,550.81 C179.72,550.34 180.40,549.86 181.08,549.39 C181.08,549.39 174.91,556.77 174.91,556.77 C174.91,556.77 182.28,551.36 182.28,551.36 C182.28,551.36 178.40,559.65 178.40,559.65 C178.40,559.65 184.21,552.97 184.21,552.97 C184.21,552.97 182.63,556.50 182.63,556.50 C182.63,556.50 184.47,557.16 184.47,557.16" fill="none" stroke="rgb(0, 160, 232)" stroke-width="2.39" stroke-opacity="1.00" stroke-linejoin="round"/>
<path d="M198.65,563.74 C198.65,563.74 198.74,564.48 198.74,564.48 C199.07,564.47 204.24,564.87 206.13,565.72 C208.70,566.92 210.28,570.52 210.73,573.56 C211.72,573.24 214.53,553.50 214.61,553.04 C215.01,550.83 215.48,549.57 215.86,549.48 C216.84,549.68 218.35,552.19 219.37,555.25 C220.43,558.52 222.58,567.56 222.91,568.22 C223.76,567.79 224.29,556.06 223.81,547.46 C223.07,535.00 223.54,530.79 224.11,530.14 C225.12,531.38 226.74,541.36 227.99,551.10 C229.01,559.57 230.68,573.62 231.10,573.53 C231.36,570.07 230.33,548.92 229.97,544.76 C229.46,538.84 226.53,524.56 226.35,521.86 C228.43,524.27 233.49,534.01 235.21,538.77 C239.38,550.49 240.25,564.86 240.34,571.78 C241.14,567.31 240.13,535.86 239.98,528.44 C239.90,523.52 240.12,522.21 240.70,521.33 C241.92,521.83 242.71,522.57 243.29,524.17 C246.17,532.13 248.37,561.00 249.09,560.46 C249.09,560.46 255.51,525.07 255.51,525.07 C256.58,525.48 257.82,529.93 258.20,532.96 C258.34,534.09 258.69,537.62 258.82,538.95" fill="none" stroke="rgb(0, 160, 232)" stroke-width="2.39" stroke-opacity="1.00" stroke-linejoin="round"/>
<path d="M256.31,577.13 C256.31,577.13 255.19,576.39 255.19,576.39 C255.19,576.39 249.64,586.20 249.64,586.20 C249.02,585.81 236.98,582.45 231.15,580.70 C227.46,579.56 210.16,573.01 204.46,571.76 C196.72,570.05 189.20,567.46 184.88,565.93 C181.04,564.60 176.58,561.19 176.34,561.10 C176.34,561.10 177.07,560.76 177.07,560.76" fill="none" stroke="rgb(0, 160, 232)" stroke-width="2.39" stroke-opacity="1.00" stroke-linejoin="round"/>
<path d="M190.09,570.81 C189.61,570.81 189.12,570.81 188.64,570.81 C188.50,570.81 188.37,570.81 188.23,570.81 C188.42,572.23 181.95,584.91 178.20,589.23 C177.35,590.18 168.75,592.08 168.32,592.22 C164.89,593.39 164.71,594.67 164.73,595.95 C165.92,597.76 170.31,599.13 173.48,599.46 C175.39,599.64 180.02,599.55 184.77,599.36 C188.28,599.21 190.76,598.46 191.51,596.74 C192.56,593.91 191.40,590.88 189.90,589.26 C190.08,588.96 193.55,584.89 195.13,581.43 C196.64,578.09 197.09,574.55 197.12,574.48 C197.20,574.30 197.46,573.95 197.90,573.41" fill="none" stroke="rgb(0, 160, 232)" stroke-width="2.39" stroke-opacity="1.00" stroke-linejoin="round"/>
<path d="M222.08,578.25 C222.08,578.25 221.34,578.74 221.34,578.74 C221.28,580.39 218.53,587.04 217.07,588.99 C216.61,589.61 213.15,593.41 213.26,594.75 C213.33,595.38 213.76,596.72 214.18,597.64 C214.89,599.03 219.13,601.16 225.25,603.52 C229.09,604.92 235.34,606.48 237.08,606.51 C239.90,606.52 243.67,605.06 244.60,603.89 C244.80,603.61 245.20,602.56 244.95,602.27 C243.62,600.84 238.24,599.92 235.33,599.73 C232.23,599.53 227.15,599.87 225.98,599.38 C225.60,598.03 226.59,593.75 227.82,591.02 C228.80,588.90 233.01,580.77 233.50,579.97 C233.68,579.68 233.97,579.35 234.36,578.99" fill="none" stroke="rgb(0, 160, 232)" stroke-width="2.39" stroke-opacity="1.00" stroke-linejoin="round"/>
</g>
</svg>
