<?xml version="1.0" encoding="UTF-8" standalone="no"?>
<!DOCTYPE svg PUBLIC "-//W3C//DTD SVG 1.1//EN" "http://www.w3.org/Graphics/SVG/1.1/DTD/svg11.dtd">
<svg width="128.40" height="181.68" viewBox="0.00 0.00 535.00 757.00" xmlns="http://www.w3.org/2000/svg" xmlns:xlink="http://www.w3.org/1999/xlink">
<g stroke-linecap="round" id="102">
<path d="M114.36,322.93 C114.36,322.93 113.76,322.72 113.76,322.72 C112.93,321.28 110.32,303.91 109.52,296.89 C108.13,280.48 107.06,248.15 107.60,244.95 C107.66,244.62 107.84,243.65 108.14,242.05" fill="none" stroke="rgb(255, 255, 0)" stroke-width="2.39" stroke-opacity="1.00" stroke-linejoin="round"/>
<path d="M131.00,208.95 C131.00,208.95 129.47,209.76 129.47,209.76 C129.47,209.76 128.31,209.20 128.31,209.20 C127.47,205.62 125.70,186.50 124.99,177.99 C124.48,170.51 124.47,155.10 125.32,153.07 C125.44,152.79 125.79,152.06 126.37,150.89" fill="none" stroke="rgb(255, 255, 0)" stroke-width="2.39" stroke-opacity="1.00" stroke-linejoin="round"/>
<path d="M42.98,212.19 C41.40,209.96 40.54,206.85 40.53,203.36 C40.56,200.15 37.30,154.66 37.03,152.57 C37.00,152.36 36.95,152.18 36.89,152.04" fill="none" stroke="rgb(255, 255, 0)" stroke-width="2.39" stroke-opacity="1.00" stroke-linejoin="round"/>
<path d="M24.72,263.30 C24.72,263.30 23.10,264.52 23.10,264.52 C22.76,265.49 22.73,266.32 23.11,267.70 C24.83,273.73 27.72,285.89 29.44,293.17 C31.18,300.10 35.91,313.58 38.29,319.88 C40.98,326.66 44.40,331.89 45.82,333.50" fill="none" stroke="rgb(255, 255, 0)" stroke-width="2.39" stroke-opacity="1.00" stroke-linejoin="round"/>
<path d="M29.18,334.69 C29.18,334.69 27.16,335.57 27.16,335.57 C27.28,336.97 35.98,379.19 38.63,389.34 C43.29,405.97 48.09,413.22 48.79,413.89 C49.17,414.25 50.05,414.94 51.43,415.97" fill="none" stroke="rgb(255, 255, 0)" stroke-width="2.39" stroke-opacity="1.00" stroke-linejoin="round"/>
<path d="M45.82,448.26 C45.82,448.26 44.19,448.47 44.19,448.47 C43.68,449.90 45.15,488.00 45.90,493.93 C46.92,501.46 49.20,508.98 49.98,511.52" fill="none" stroke="rgb(255, 255, 0)" stroke-width="2.39" stroke-opacity="1.00" stroke-linejoin="round"/>
<path d="M92.06,434.07 C91.81,434.48 89.73,437.18 89.49,439.05 C89.33,440.33 87.21,509.48 87.32,526.43 C87.43,531.63 88.57,538.92 88.91,539.53 C89.10,539.84 89.57,540.39 90.34,541.15" fill="none" stroke="rgb(255, 255, 0)" stroke-width="2.39" stroke-opacity="1.00" stroke-linejoin="round"/>
<path d="M53.52,507.08 C52.08,507.94 50.66,508.70 50.38,509.00 C48.98,510.54 48.00,512.97 47.96,515.20 C47.93,519.38 51.21,534.25 54.21,542.60 C56.23,548.05 58.41,553.18 60.00,555.71 C61.67,558.32 65.07,563.17 67.10,565.48 C67.92,566.41 73.81,572.69 75.63,574.80" fill="none" stroke="rgb(255, 255, 0)" stroke-width="2.39" stroke-opacity="1.00" stroke-linejoin="round"/>
<path d="M111.93,540.74 C111.93,540.74 110.71,541.70 110.71,541.70 C111.08,542.72 137.02,584.58 139.33,587.90 C142.65,592.54 151.33,604.09 156.87,609.64 C161.36,614.09 167.69,618.06 169.53,619.16" fill="none" stroke="rgb(255, 255, 0)" stroke-width="2.39" stroke-opacity="1.00" stroke-linejoin="round"/>
<path d="M160.61,549.67 C159.69,551.03 159.47,552.65 160.03,554.86 C160.83,557.92 165.73,568.03 170.83,577.53 C175.98,586.76 182.45,596.97 185.96,601.26 C189.15,605.14 194.50,608.75 196.76,609.85" fill="none" stroke="rgb(255, 255, 0)" stroke-width="2.39" stroke-opacity="1.00" stroke-linejoin="round"/>
<path d="M177.64,545.61 C177.01,546.36 178.26,550.34 179.80,553.80 C185.82,566.55 197.04,591.28 197.80,592.94 C199.50,596.61 202.76,600.56 203.99,601.58" fill="none" stroke="rgb(255, 255, 0)" stroke-width="2.39" stroke-opacity="1.00" stroke-linejoin="round"/>
<path d="M182.51,369.17 C181.79,367.29 179.35,365.83 178.24,366.13 C176.76,368.04 175.14,381.77 174.68,390.98 C174.32,400.16 174.43,411.38 175.23,417.74 C175.67,421.21 176.89,427.14 177.49,429.07 C178.08,430.94 179.84,434.87 180.29,435.87" fill="none" stroke="rgb(255, 255, 0)" stroke-width="2.39" stroke-opacity="1.00" stroke-linejoin="round"/>
<path d="M136.67,440.56 C136.67,440.56 136.07,440.56 136.07,440.56 C136.07,440.56 135.86,440.33 135.86,440.33 C135.67,437.93 135.43,436.52 134.83,434.65 C132.77,428.03 128.96,414.62 127.32,408.29 C125.92,402.55 125.09,390.47 125.75,385.69 C125.96,384.26 126.35,381.65 126.54,380.47" fill="none" stroke="rgb(255, 255, 0)" stroke-width="2.39" stroke-opacity="1.00" stroke-linejoin="round"/>
<path d="M251.06,354.97 C249.80,357.60 248.87,373.74 248.48,381.47 C248.39,384.81 248.24,392.42 248.26,393.68 C248.31,395.80 249.03,402.49 249.22,404.22" fill="none" stroke="rgb(255, 255, 0)" stroke-width="2.39" stroke-opacity="1.00" stroke-linejoin="round"/>
<path d="M314.74,363.49 C312.51,364.19 311.17,365.33 309.74,367.51 C306.93,371.84 300.26,385.28 299.05,389.20 C297.98,392.76 296.49,403.59 295.99,414.69 C295.83,419.16 295.56,427.30 295.45,430.96 C295.28,438.91 295.49,446.65 295.54,447.88" fill="none" stroke="rgb(255, 255, 0)" stroke-width="2.39" stroke-opacity="1.00" stroke-linejoin="round"/>
<path d="M363.42,363.08 C363.42,363.08 362.81,362.88 362.81,362.88 C362.32,363.26 362.23,367.03 362.35,369.80 C363.21,388.45 365.00,409.39 365.66,413.09 C365.86,414.22 366.57,416.89 366.92,418.19" fill="none" stroke="rgb(255, 255, 0)" stroke-width="2.39" stroke-opacity="1.00" stroke-linejoin="round"/>
<path d="M375.99,411.35 C375.99,411.35 374.59,410.91 374.59,410.91 C374.15,414.23 374.02,430.51 374.05,437.93 C374.26,445.51 374.96,458.61 375.80,468.08 C376.59,476.04 378.30,481.54 378.98,483.51" fill="none" stroke="rgb(255, 255, 0)" stroke-width="2.39" stroke-opacity="1.00" stroke-linejoin="round"/>
<path d="M382.89,492.88 C382.89,492.88 380.96,493.59 380.96,493.59 C380.89,495.79 380.99,496.86 381.57,498.83 C382.43,501.80 387.68,523.53 388.55,526.75 C390.26,533.04 396.61,549.38 398.11,552.63 C401.58,560.10 404.86,565.13 405.57,566.13" fill="none" stroke="rgb(255, 255, 0)" stroke-width="2.39" stroke-opacity="1.00" stroke-linejoin="round"/>
<path d="M457.52,351.32 C457.52,351.32 457.52,350.10 457.52,350.10 C456.28,350.49 449.19,362.52 444.76,371.16 C441.81,377.13 436.92,389.28 434.89,395.79 C433.62,399.89 429.47,416.16 428.89,421.55 C428.61,424.21 428.62,429.07 428.89,431.80" fill="none" stroke="rgb(255, 255, 0)" stroke-width="2.39" stroke-opacity="1.00" stroke-linejoin="round"/>
<path d="M445.35,414.19 C445.35,414.19 443.73,414.19 443.73,414.19 C443.27,414.24 443.33,421.35 443.35,424.94 C443.25,432.55 443.11,445.12 443.50,456.28 C443.70,460.56 444.32,464.76 445.24,467.81 C445.93,470.05 447.78,474.14 449.00,476.25" fill="none" stroke="rgb(255, 255, 0)" stroke-width="2.39" stroke-opacity="1.00" stroke-linejoin="round"/>
<path d="M487.54,418.65 C485.24,417.92 484.22,417.77 483.70,418.37 C481.04,421.55 476.29,432.42 474.93,438.27 C473.34,445.24 471.98,456.38 471.50,465.04 C470.87,479.28 471.52,506.83 472.83,511.84 C473.40,513.98 474.46,516.92 475.20,518.58" fill="none" stroke="rgb(255, 255, 0)" stroke-width="2.39" stroke-opacity="1.00" stroke-linejoin="round"/>
<path d="M339.48,527.76 C339.48,527.76 338.06,527.76 338.06,527.76 C338.06,527.76 338.01,527.92 338.01,527.92 C341.27,532.13 344.66,541.83 346.86,551.57 C348.54,559.20 352.11,574.77 354.12,582.51 C356.35,591.12 357.98,601.80 358.02,606.67 C358.02,611.68 357.49,615.35 356.93,618.22" fill="none" stroke="rgb(255, 255, 0)" stroke-width="2.39" stroke-opacity="1.00" stroke-linejoin="round"/>
<path d="M333.81,230.04 C333.81,230.04 332.59,231.26 332.59,231.26 C334.20,235.54 334.60,242.97 333.90,253.96 C333.40,260.90 332.68,277.99 332.70,280.85 C332.76,287.19 334.85,297.66 337.60,306.86 C338.62,310.19 339.97,314.57 340.30,315.63" fill="none" stroke="rgb(255, 255, 0)" stroke-width="2.39" stroke-opacity="1.00" stroke-linejoin="round"/>
<path d="M262.82,236.12 C262.82,236.12 262.77,231.73 262.77,231.73 C262.05,232.11 262.09,245.99 262.97,255.11 C263.58,261.15 267.39,277.05 269.08,281.28 C269.60,282.56 271.98,287.64 272.56,288.85" fill="none" stroke="rgb(255, 255, 0)" stroke-width="2.39" stroke-opacity="1.00" stroke-linejoin="round"/>
<path d="M208.06,239.37 C206.84,240.51 206.85,244.43 207.07,248.59 C208.09,263.21 210.09,293.30 210.87,296.63 C211.34,298.60 211.99,300.49 212.85,302.49" fill="none" stroke="rgb(255, 255, 0)" stroke-width="2.39" stroke-opacity="1.00" stroke-linejoin="round"/>
<path d="M221.85,203.67 C221.85,203.67 220.23,205.09 220.23,205.09 C220.23,205.09 220.23,205.30 220.23,205.30 C219.80,206.78 215.34,191.37 214.55,185.38 C214.14,182.14 214.21,176.70 214.82,174.03 C215.94,169.36 222.78,156.99 226.61,151.69 C227.87,149.96 232.74,143.87 234.41,142.06 C236.61,139.75 239.56,138.04 241.81,137.24" fill="none" stroke="rgb(255, 255, 0)" stroke-width="2.39" stroke-opacity="1.00" stroke-linejoin="round"/>
<path d="M330.56,137.56 C330.56,137.56 330.49,136.14 330.49,136.14 C329.81,135.72 327.09,137.04 325.30,139.33 C321.98,143.63 316.17,155.42 313.33,162.69 C310.48,170.00 306.39,182.60 305.82,187.15 C305.55,189.45 306.01,192.55 306.80,195.46" fill="none" stroke="rgb(255, 255, 0)" stroke-width="2.39" stroke-opacity="1.00" stroke-linejoin="round"/>
<path d="M436.43,146.89 C436.43,146.89 435.56,146.08 435.56,146.08 C435.35,145.66 422.87,159.18 419.09,164.85 C414.21,172.20 407.44,185.80 405.52,192.00 C404.59,195.06 403.40,201.41 403.21,203.49 C402.72,209.38 403.99,215.22 405.19,219.87" fill="none" stroke="rgb(255, 255, 0)" stroke-width="2.39" stroke-opacity="1.00" stroke-linejoin="round"/>
<path d="M477.39,229.23 C477.39,229.23 477.39,229.03 477.39,229.03 C477.39,229.03 476.99,228.62 476.99,228.62 C477.00,232.58 476.45,239.01 475.64,243.07 C474.85,246.92 472.11,254.87 470.79,257.93 C468.85,262.36 462.56,270.96 459.07,274.35 C458.21,275.18 453.51,279.54 452.65,280.34" fill="none" stroke="rgb(255, 255, 0)" stroke-width="2.39" stroke-opacity="1.00" stroke-linejoin="round"/>
<path d="M219.42,372.41 C219.65,371.96 219.79,371.67 219.83,371.55 C219.87,371.43 219.87,371.31 219.83,371.20 C219.36,372.58 215.07,377.73 213.51,380.54 C210.73,385.54 205.31,390.81 195.74,399.60 C188.57,406.13 163.78,421.46 153.63,428.59 C147.92,432.68 143.05,437.52 136.54,444.56 C132.24,449.18 113.72,472.53 111.99,477.21 C111.07,479.83 110.72,486.03 111.35,488.92 C111.68,490.32 112.46,491.88 113.19,492.69 C113.94,493.47 118.79,495.48 121.15,496.75 C123.36,497.81 128.85,497.52 132.08,496.47 C133.26,496.08 139.86,493.39 140.93,493.23 C141.18,493.19 155.16,492.96 158.26,492.90 C160.10,492.89 163.10,492.88 164.26,492.88" fill="none" stroke="rgb(0, 0, 255)" stroke-width="2.39" stroke-opacity="1.00" stroke-linejoin="round"/>
<path d="M222.67,372.82 C222.67,372.82 222.26,372.82 222.26,372.82 C222.26,372.82 221.85,372.41 221.85,372.41 C221.85,372.41 221.94,370.85 221.94,370.85 C222.30,370.37 240.08,371.82 243.41,372.58 C249.28,374.26 260.75,376.37 267.45,379.04 C272.98,381.26 286.22,390.79 289.06,392.64 C295.50,396.75 310.19,408.38 320.07,419.77 C324.46,424.85 331.63,434.51 334.18,440.26 C339.79,452.94 341.10,456.34 344.09,466.01 C345.20,469.68 346.02,473.29 346.24,476.18 C346.41,478.60 345.96,483.68 345.51,485.11 C344.84,487.13 342.08,489.68 339.42,490.72 C333.25,493.06 307.78,494.88 299.74,495.52 C299.20,495.56 297.98,495.63 296.08,495.72" fill="none" stroke="rgb(0, 0, 255)" stroke-width="2.39" stroke-opacity="1.00" stroke-linejoin="round"/>
<path d="M331.37,504.24 C331.12,504.23 330.92,504.23 330.76,504.24 C330.60,504.24 330.27,504.25 329.75,504.28 C331.44,508.47 331.88,513.06 331.78,515.16 C331.54,519.35 330.23,523.28 329.03,526.02 C325.13,534.65 321.50,541.25 317.28,547.09 C314.08,551.45 307.10,558.19 303.17,560.36 C300.06,562.05 295.44,564.01 292.88,564.68 C290.07,565.39 285.13,565.56 282.58,565.38 C282.51,564.71 282.46,564.20 282.45,563.84 C282.44,563.53 282.46,561.30 282.46,561.06 C283.14,560.29 295.87,549.00 299.24,544.82 C301.06,542.54 312.71,525.40 314.05,522.79 C316.47,518.04 320.52,503.47 320.55,503.21 C320.59,502.78 320.56,502.01 320.46,500.88" fill="none" stroke="rgb(0, 0, 255)" stroke-width="2.39" stroke-opacity="1.00" stroke-linejoin="round"/>
<path d="M317.99,499.37 C317.99,499.37 317.99,499.57 317.99,499.57 C317.99,499.57 316.60,499.98 316.60,499.98 C316.54,500.09 314.73,514.60 312.51,519.74 C311.99,520.93 308.42,527.58 306.88,530.30 C306.70,530.64 306.64,530.86 306.71,530.97" fill="none" stroke="rgb(0, 0, 255)" stroke-width="2.39" stroke-opacity="1.00" stroke-linejoin="round"/>
<path d="M332.99,496.53 C332.98,496.92 333.00,497.00 332.99,497.08 C332.57,500.51 331.31,510.62 331.16,511.61 C330.48,515.97 329.36,518.64 327.29,521.30 C325.43,523.70 320.26,535.68 315.54,544.73 C313.50,548.60 311.71,551.63 310.02,553.60 C306.83,557.24 295.03,565.40 292.45,566.43 C292.11,566.56 291.43,566.79 290.40,567.11" fill="none" stroke="rgb(0, 0, 255)" stroke-width="2.39" stroke-opacity="1.00" stroke-linejoin="round"/>
<path d="M281.48,395.53 C281.40,395.94 280.43,396.87 279.73,400.00 C278.28,405.96 276.48,413.49 275.52,422.85 C275.20,426.06 273.28,440.28 272.73,443.34 C272.58,444.21 271.94,447.33 271.75,448.26" fill="none" stroke="rgb(0, 0, 255)" stroke-width="2.39" stroke-opacity="1.00" stroke-linejoin="round"/>
<path d="M330.56,434.88 C330.56,434.88 327.92,435.44 327.92,435.44 C326.37,438.60 324.08,448.90 324.13,453.62 C324.17,455.99 326.98,475.99 327.27,481.81 C327.34,483.35 327.49,486.70 327.56,488.51 C327.60,489.81 327.68,492.40 327.72,493.69" fill="none" stroke="rgb(0, 0, 255)" stroke-width="2.39" stroke-opacity="1.00" stroke-linejoin="round"/>
<path d="M338.67,472.19 C338.23,472.70 337.82,472.98 337.86,473.32 C338.93,481.72 338.98,487.94 338.75,490.17 C338.75,490.17 338.27,490.45 338.27,490.45" fill="none" stroke="rgb(0, 0, 255)" stroke-width="2.39" stroke-opacity="1.00" stroke-linejoin="round"/>
<path d="M257.95,378.90 C256.67,379.98 256.34,382.02 256.33,386.23 C256.19,400.68 253.49,431.08 253.59,438.56 C253.59,438.56 253.88,437.22 253.88,437.22" fill="none" stroke="rgb(0, 0, 255)" stroke-width="2.39" stroke-opacity="1.00" stroke-linejoin="round"/>
<path d="M221.45,392.29 C221.45,392.29 221.04,392.59 221.04,392.59 C221.04,392.59 229.53,439.37 229.53,439.37 C229.53,439.37 230.31,439.46 230.31,439.46" fill="none" stroke="rgb(0, 0, 255)" stroke-width="2.39" stroke-opacity="1.00" stroke-linejoin="round"/>
<path d="M195.89,405.27 C195.89,405.27 194.75,405.61 194.75,405.61 C194.15,406.66 195.39,410.79 197.38,416.61 C200.13,424.81 204.75,439.03 205.54,442.73 C205.71,443.49 205.87,444.25 206.03,445.02" fill="none" stroke="rgb(0, 0, 255)" stroke-width="2.39" stroke-opacity="1.00" stroke-linejoin="round"/>
<path d="M154.52,436.50 C154.52,436.50 161.28,482.03 161.28,482.03 C161.28,482.03 161.42,482.08 161.42,482.08" fill="none" stroke="rgb(0, 0, 255)" stroke-width="2.39" stroke-opacity="1.00" stroke-linejoin="round"/>
<path d="M131.00,453.94 C131.01,457.02 131.12,458.53 131.44,459.59 C134.35,469.11 136.50,495.63 136.78,498.21 C136.78,498.21 137.89,497.34 137.89,497.34" fill="none" stroke="rgb(0, 0, 255)" stroke-width="2.39" stroke-opacity="1.00" stroke-linejoin="round"/>
<path d="M231.99,423.93 C231.99,423.93 230.26,424.28 230.26,424.28 C229.34,423.48 214.08,423.58 209.06,424.65 C206.14,425.30 201.74,428.64 199.56,430.99 C197.83,432.90 184.60,448.49 181.25,453.99 C179.85,456.31 173.14,470.21 168.62,478.53 C164.62,485.66 160.73,494.08 158.37,502.54 C155.46,513.21 154.01,521.04 153.42,528.88 C153.12,533.06 153.33,538.00 153.93,540.95 C154.36,542.95 155.91,547.60 157.52,550.44 C159.26,553.46 161.20,554.84 162.11,555.20 C163.34,555.00 166.10,552.25 169.96,548.25 C176.36,541.69 181.31,538.22 190.15,533.27 C195.51,530.25 196.35,529.74 197.58,528.91 C197.58,528.91 198.33,528.98 198.33,528.98" fill="none" stroke="rgb(0, 255, 0)" stroke-width="2.39" stroke-opacity="1.00" stroke-linejoin="round"/>
<path d="M203.20,528.17 C203.20,528.17 200.25,529.76 200.25,529.76 C199.35,529.10 194.99,526.69 193.57,525.27 C190.20,521.85 185.25,513.44 183.73,509.12 C183.66,509.09 183.59,509.06 183.51,509.02 C183.43,508.98 183.23,508.87 182.91,508.70" fill="none" stroke="rgb(0, 255, 0)" stroke-width="2.39" stroke-opacity="1.00" stroke-linejoin="round"/>
<path d="M201.57,529.39 C201.57,529.39 200.76,529.39 200.76,529.39 C207.33,529.38 218.72,529.35 224.89,530.29 C229.87,530.93 247.84,528.49 252.65,527.42 C256.98,526.44 263.36,523.99 266.16,522.35 C267.84,521.36 276.66,515.40 277.63,514.53 C279.64,512.68 282.73,507.20 283.62,504.74 C284.75,501.57 285.52,495.92 285.61,493.44 C285.76,487.65 283.42,478.55 280.99,473.70 C279.78,471.30 277.28,467.41 276.13,466.19 C273.18,463.12 258.23,454.17 252.47,451.31 C247.68,448.98 238.32,446.55 230.79,445.22 C223.85,444.01 217.54,443.73 216.33,443.91 C216.33,443.91 216.99,446.23 216.99,446.23" fill="none" stroke="rgb(0, 255, 0)" stroke-width="2.39" stroke-opacity="1.00" stroke-linejoin="round"/>
<path d="M221.04,448.26 C221.04,448.26 220.23,448.26 220.23,448.26 C220.67,451.31 220.29,456.48 219.56,459.86 C218.41,464.83 211.75,476.23 206.44,484.77 C203.61,489.31 197.95,497.18 196.19,498.42 C196.19,498.42 199.78,485.06 199.78,485.06" fill="none" stroke="rgb(0, 255, 0)" stroke-width="2.39" stroke-opacity="1.00" stroke-linejoin="round"/>
<path d="M212.93,457.19 C212.93,456.21 212.93,455.23 212.93,454.25 C212.93,453.08 212.93,451.91 212.93,450.74 C212.38,454.37 208.05,466.09 205.02,472.61 C202.28,478.33 195.83,489.27 190.95,495.91 C184.40,504.70 184.02,505.31 184.18,505.33 C184.18,505.33 188.73,498.59 188.73,498.59" fill="none" stroke="rgb(0, 255, 0)" stroke-width="2.39" stroke-opacity="1.00" stroke-linejoin="round"/>
<path d="M214.96,449.89 C211.75,452.73 209.74,455.88 208.46,457.88 C206.17,461.46 196.96,477.16 193.15,483.67 C188.37,491.67 182.89,499.59 182.51,500.32 C182.51,500.32 185.79,496.09 185.79,496.09" fill="none" stroke="rgb(0, 255, 0)" stroke-width="2.39" stroke-opacity="1.00" stroke-linejoin="round"/>
<path d="M206.85,448.67 C204.11,450.76 201.92,453.94 200.03,457.45 C196.98,463.28 179.04,501.20 179.10,501.60 C181.69,497.08 184.00,492.71 185.68,489.05 C186.70,486.82 190.61,477.49 191.64,474.81 C192.29,473.10 194.87,465.81 195.59,463.44 C196.43,460.64 197.72,455.54 197.99,454.48 C196.40,456.83 195.62,458.12 195.07,459.47 C188.78,474.25 178.81,494.38 176.97,497.65 C176.88,497.58 182.63,482.57 185.29,475.74 C189.16,465.59 190.73,460.23 191.16,457.59 C191.16,457.59 190.38,456.98 190.38,456.98 C188.22,459.75 182.84,471.28 179.63,479.83 C176.78,487.68 174.95,493.29 174.09,497.24 C174.09,497.24 176.17,494.95 176.17,494.95" fill="none" stroke="rgb(0, 255, 0)" stroke-width="2.39" stroke-opacity="1.00" stroke-linejoin="round"/>
<path d="M205.22,438.93 C202.80,438.96 200.98,439.19 200.02,439.85 C198.11,441.18 187.04,455.70 182.45,461.83 C179.18,466.24 173.23,477.24 170.48,483.15 C167.77,489.09 163.21,501.36 161.73,506.75 C160.58,510.97 156.39,531.21 156.67,532.11 C156.77,532.40 157.15,532.87 157.83,533.52" fill="none" stroke="rgb(0, 255, 0)" stroke-width="2.39" stroke-opacity="1.00" stroke-linejoin="round"/>
<path d="M167.91,488.01 C165.19,489.02 163.68,489.78 163.14,490.68 C161.54,493.40 160.21,503.37 159.07,515.48 C158.10,526.36 157.47,539.91 157.47,542.82 C157.52,551.43 159.79,555.97 160.59,556.74 C161.43,555.54 161.73,554.71 161.55,553.48 C161.32,551.96 159.88,543.71 159.53,540.33 C158.79,532.95 159.07,520.91 160.10,515.44 C161.24,509.63 164.77,500.59 165.34,499.15 C163.72,505.19 164.61,532.87 165.40,541.01 C165.93,546.27 166.50,548.19 167.32,549.76 C168.36,547.28 168.77,545.85 168.70,544.44 C168.59,542.31 167.15,522.08 166.77,513.98 C166.16,495.31 168.04,488.90 168.95,486.36 C169.34,488.52 171.82,528.06 173.02,542.58 C173.13,543.94 173.38,545.14 174.02,547.50 C175.08,544.69 175.19,532.31 174.73,521.67 C173.67,502.82 173.89,490.76 174.53,488.42 C174.82,494.36 174.96,509.11 175.46,516.28 C175.88,522.12 178.17,538.86 179.50,541.32 C180.33,540.76 180.43,535.28 180.39,534.38 C180.29,532.22 177.81,505.89 177.80,502.52 C178.49,503.78 184.15,530.07 184.32,530.80 C184.85,533.09 185.43,534.54 186.16,535.64 C186.16,535.64 186.16,526.95 186.16,526.95" fill="none" stroke="rgb(0, 255, 0)" stroke-width="2.39" stroke-opacity="1.00" stroke-linejoin="round"/>
<path d="M207.66,433.26 C207.66,433.26 208.47,430.62 208.47,430.62 C208.47,430.62 207.86,430.42 207.86,430.42 C205.82,431.20 202.31,434.55 201.14,436.04 C199.37,438.32 186.43,459.06 186.33,459.35 C186.22,459.67 186.07,460.43 185.89,461.61 C189.36,459.25 196.93,451.60 204.31,443.15 C208.48,438.23 218.19,426.04 218.41,426.26 C214.46,433.16 207.54,444.55 203.19,450.02 C200.92,452.84 197.85,456.16 197.28,456.78 C197.28,456.78 229.29,429.50 229.29,429.50 C226.31,431.50 216.15,441.20 211.38,446.32 C208.01,449.96 207.34,451.03 207.15,452.03 C211.75,449.57 232.09,431.47 235.17,428.69 C235.17,428.69 216.88,450.04 216.88,450.04 C216.88,450.04 219.37,449.50 219.37,449.50" fill="none" stroke="rgb(0, 255, 0)" stroke-width="2.39" stroke-opacity="1.00" stroke-linejoin="round"/>
<path d="M237.27,424.33 C237.27,424.33 234.43,423.93 234.43,423.93 C236.49,423.84 243.36,425.64 245.83,425.95 C246.92,426.09 255.12,426.68 257.84,427.26 C263.98,428.58 276.83,432.04 282.70,435.67 C286.50,438.04 294.11,445.70 296.67,449.85 C299.58,454.60 302.66,463.53 304.59,471.46 C307.73,484.97 312.35,505.00 313.12,513.57" fill="none" stroke="rgb(0, 255, 0)" stroke-width="2.39" stroke-opacity="1.00" stroke-linejoin="round"/>
<path d="M312.71,509.51 C312.71,509.51 312.51,509.51 312.51,509.51 C312.33,509.41 312.24,511.28 312.40,513.14 C312.46,513.80 316.22,538.18 316.77,540.78 C315.18,541.09 310.24,538.62 306.34,536.20 C302.63,533.88 295.85,529.63 294.03,528.74 C292.57,528.06 280.85,525.19 278.99,523.97 C277.91,523.25 274.62,520.66 273.37,519.65" fill="none" stroke="rgb(0, 255, 0)" stroke-width="2.39" stroke-opacity="1.00" stroke-linejoin="round"/>
<path d="M273.37,521.68 C273.37,521.68 270.53,524.01 270.53,524.01 C270.53,524.01 270.53,524.06 270.53,524.06 C270.81,523.53 273.79,522.73 276.57,523.36 C277.31,523.53 284.81,526.23 286.16,526.60 C289.93,527.61 292.95,527.97 295.98,528.17 C296.05,528.24 290.62,526.70 285.69,524.13 C282.97,522.64 279.66,520.84 277.93,519.98 C277.93,519.98 301.04,536.58 301.04,536.58 C301.04,536.58 281.21,514.42 281.21,514.42 C281.18,514.15 294.93,525.80 298.60,529.81 C300.52,531.92 301.57,533.34 302.52,534.72 C301.75,536.03 285.38,508.73 284.73,507.20 C288.51,510.62 302.71,532.34 304.74,535.44 C304.74,535.44 288.95,502.83 288.95,502.83 C290.81,503.37 308.59,537.32 309.40,537.77 C308.83,535.75 290.45,497.45 288.68,491.77 C288.40,490.86 287.60,488.07 287.29,487.00 C287.29,487.00 312.21,532.73 312.21,532.73 C311.36,530.29 303.78,513.02 302.18,508.86 C300.01,503.21 296.17,490.91 295.14,484.90 C295.14,484.90 315.45,533.61 315.45,533.61 C310.55,521.88 301.14,498.74 296.69,483.87 C291.66,465.71 290.36,456.96 290.27,456.10 C293.86,464.40 311.84,526.80 312.31,528.24 C311.57,523.88 297.41,482.73 294.42,472.71 C292.37,465.14 289.18,453.28 289.09,449.48 C291.13,451.43 296.61,463.04 299.07,469.59 C300.53,473.51 306.24,491.92 307.18,495.80 C308.90,502.91 311.16,515.57 311.33,520.06 C308.27,513.20 306.03,506.68 303.18,497.24 C298.29,480.29 292.88,458.20 290.91,447.99 C290.91,447.99 298.62,485.95 298.62,485.95 C296.59,479.93 290.77,468.61 287.39,462.13 C283.96,455.55 276.65,440.86 275.19,438.36 C274.33,439.26 275.60,443.43 277.44,448.72 C281.59,460.20 288.50,474.17 289.36,475.88 C285.53,472.20 280.43,463.36 275.11,453.13 C271.30,445.58 264.91,432.53 263.19,429.03 C263.30,432.17 263.89,435.27 265.42,439.61 C269.11,449.92 280.65,473.50 282.56,475.47 C278.84,470.34 270.27,458.83 266.04,453.04 C261.33,446.78 253.27,436.53 249.71,433.49 C249.71,433.49 247.14,434.13 247.14,434.13 C247.25,436.86 249.22,441.62 250.64,443.88 C253.20,447.87 261.79,457.12 265.30,459.86 C267.14,461.29 269.14,462.43 271.51,463.47 C271.73,463.27 266.91,459.99 263.87,457.25 C260.73,454.39 246.70,438.90 244.07,436.15 C242.44,434.44 236.91,429.82 234.84,429.39 C234.36,429.30 233.65,429.40 232.70,429.71 C232.70,429.71 230.88,432.61 230.88,432.61 C231.69,435.20 232.51,436.62 234.07,437.64 C237.00,439.56 254.33,448.62 256.63,449.98 C260.45,452.25 267.37,457.64 267.89,458.71 C261.03,456.70 251.99,451.42 244.80,446.17 C238.86,441.73 231.26,436.12 228.01,434.40 C228.74,435.45 242.14,441.00 249.42,444.01 C257.74,447.59 276.01,457.29 276.55,458.17 C274.16,458.22 270.55,456.94 267.88,455.12 C264.56,452.81 256.07,443.34 249.37,435.27 C247.21,432.71 241.82,427.77 239.30,427.01 C238.21,426.70 236.67,427.22 234.77,428.22 C234.68,428.51 241.41,429.60 245.41,430.91 C250.50,432.60 262.08,439.62 268.37,444.25 C275.40,449.45 278.24,452.38 279.52,454.08 C277.84,455.85 269.61,452.15 267.79,451.25" fill="none" stroke="rgb(0, 255, 0)" stroke-width="2.39" stroke-opacity="1.00" stroke-linejoin="round"/>
<path d="M238.08,428.39 C236.88,428.35 234.50,428.48 233.52,428.69 C233.20,428.76 232.91,428.90 232.64,429.10 C232.72,429.14 250.52,431.71 254.77,433.39 C257.53,434.51 262.56,437.28 266.74,439.92 C269.78,441.87 273.63,445.19 277.92,449.38 C280.69,452.14 282.67,454.78 283.85,457.05 C283.85,457.05 282.20,459.52 282.20,459.52" fill="none" stroke="rgb(0, 255, 0)" stroke-width="2.39" stroke-opacity="1.00" stroke-linejoin="round"/>
<path d="M247.81,427.98 C247.81,427.98 245.79,427.88 245.79,427.88 C245.79,427.88 245.58,427.68 245.58,427.68 C247.93,427.28 253.11,427.52 256.07,428.24 C261.17,429.52 270.99,434.77 277.87,439.65 C280.34,441.41 294.52,452.41 295.88,454.72 C296.43,455.69 297.10,458.12 297.10,459.08 C297.07,460.26 296.41,461.84 295.34,463.62" fill="none" stroke="rgb(0, 255, 0)" stroke-width="2.39" stroke-opacity="1.00" stroke-linejoin="round"/>
<path d="M263.63,428.79 C263.63,428.79 262.82,429.72 262.82,429.72 C264.32,431.35 277.88,439.39 283.24,442.97 C286.29,445.06 288.04,446.41 290.82,448.96 C296.37,454.14 296.97,458.48 296.97,460.50 C296.97,460.50 296.08,461.42 296.08,461.42 C293.91,461.29 289.75,458.67 286.81,455.93 C277.96,447.48 270.17,440.81 265.28,437.83 C260.83,435.16 250.60,432.26 242.53,430.64 C235.44,429.28 227.97,429.22 215.84,429.87 C213.00,430.01 212.20,430.08 211.43,430.26 C211.43,430.26 211.71,432.04 211.71,432.04" fill="none" stroke="rgb(0, 255, 0)" stroke-width="2.39" stroke-opacity="1.00" stroke-linejoin="round"/>
<path d="M214.96,448.67 C214.96,448.67 213.54,448.97 213.54,448.97 C212.84,450.25 213.84,452.87 216.07,455.83 C220.02,460.98 230.15,470.92 235.36,474.19 C237.12,475.29 254.58,485.11 257.54,487.22 C258.58,487.98 261.04,490.11 261.49,490.66 C261.67,490.89 261.75,491.16 261.72,491.45" fill="none" stroke="rgb(0, 255, 0)" stroke-width="2.39" stroke-opacity="1.00" stroke-linejoin="round"/>
<path d="M223.48,460.43 C223.48,460.43 221.25,461.04 221.25,461.04 C221.44,461.39 224.95,463.45 230.05,466.65 C238.44,471.97 246.99,478.16 256.53,485.43 C263.73,490.84 276.94,497.86 279.22,499.37 C281.55,500.94 283.08,502.50 284.49,504.10 C281.67,502.76 273.39,495.24 266.76,488.58 C255.69,476.98 229.62,449.63 225.55,446.03 C223.19,443.99 220.81,442.87 218.93,442.34 C220.12,444.05 232.65,456.76 237.14,461.30 C240.72,464.82 251.44,473.94 257.32,478.88 C262.71,483.13 274.27,492.14 277.32,494.71 C273.14,492.70 269.57,490.15 267.09,487.93 C255.24,477.30 228.85,453.73 223.71,450.51 C220.79,448.73 219.22,448.54 217.42,448.62 C216.63,449.57 216.33,450.84 216.85,452.27 C218.11,455.67 226.83,463.04 234.46,468.98 C249.68,480.24 267.12,491.81 270.71,493.28 C273.98,494.60 278.39,495.71 279.32,495.48 C274.04,491.82 265.79,484.68 261.06,479.67 C255.92,474.22 236.50,449.40 230.88,440.66 C236.94,448.19 264.44,478.87 269.88,484.02 C271.88,485.90 288.11,499.70 288.11,499.71 C284.54,496.22 274.47,485.53 269.21,479.92 C257.86,467.50 244.73,450.26 240.51,444.54 C243.42,448.76 252.84,460.83 256.99,466.02 C262.47,472.56 271.24,481.82 277.61,487.58 C283.51,492.76 290.98,499.32 291.52,500.18 C287.48,496.88 277.85,485.21 273.14,478.78 C263.73,465.59 255.87,451.30 254.81,448.57 C257.48,450.98 266.76,464.20 271.42,470.84 C283.29,487.84 289.82,496.62 291.72,499.34 C291.35,499.85 287.29,495.13 284.79,491.02 C278.72,480.87 272.61,462.75 271.58,458.37 C271.58,458.37 272.93,457.73 272.93,457.73 C276.53,462.98 282.31,474.48 286.18,483.67 C288.47,489.23 292.90,502.47 293.45,505.25 C293.45,505.25 290.88,501.14 290.88,501.14" fill="none" stroke="rgb(0, 255, 0)" stroke-width="2.39" stroke-opacity="1.00" stroke-linejoin="round"/>
<path d="M280.26,487.20 C279.95,488.35 279.61,491.08 279.76,492.37 C280.02,494.52 290.42,506.98 291.57,507.98 C291.90,508.27 292.59,508.78 293.65,509.51" fill="none" stroke="rgb(0, 255, 0)" stroke-width="2.39" stroke-opacity="1.00" stroke-linejoin="round"/>
<path d="M253.49,486.80 C253.49,486.80 253.49,486.39 253.49,486.39 C253.17,486.36 249.22,487.48 246.64,488.19 C243.83,489.02 239.73,490.03 238.58,491.10 C237.66,492.02 237.79,493.63 239.15,496.68 C240.82,500.36 243.85,504.92 245.58,505.83 C246.75,506.41 252.45,507.30 253.86,507.16 C256.23,506.89 261.31,504.06 263.28,501.82 C264.87,499.95 266.35,496.57 266.24,494.02 C266.19,492.97 265.82,489.97 265.66,488.82" fill="none" stroke="rgb(0, 255, 0)" stroke-width="2.39" stroke-opacity="1.00" stroke-linejoin="round"/>
<path d="M243.76,491.66 C243.76,491.66 241.12,491.66 241.12,491.66 C241.02,491.75 242.16,501.60 247.34,504.76 C247.34,504.76 248.38,504.04 248.38,504.04 C249.18,501.60 248.83,496.25 247.75,493.78 C247.17,492.49 246.28,491.44 245.37,490.78 C245.37,490.78 244.17,491.12 244.17,491.12 C243.47,492.49 243.13,494.34 243.43,496.14 C244.08,499.78 246.26,501.30 247.72,501.62 C249.12,500.75 250.17,499.31 250.34,497.54 C250.45,496.25 249.85,493.45 249.27,492.18 C248.62,490.82 247.71,489.99 246.63,489.53 C245.55,489.93 244.77,491.22 244.54,493.30 C244.49,493.89 244.77,496.69 244.95,497.37 C245.64,499.83 246.79,501.42 248.24,502.18 C249.73,501.74 250.97,500.49 251.33,498.62 C252.40,492.70 247.20,487.39 245.97,486.53 C245.97,486.53 244.36,486.78 244.36,486.78 C243.36,488.67 242.92,489.96 242.89,491.45 C242.77,498.47 245.51,502.46 246.91,503.57 C246.91,503.57 248.85,503.32 248.85,503.32 C249.87,501.50 250.46,499.30 250.25,497.10 C250.08,495.47 248.90,491.67 248.16,490.26 C247.21,488.51 245.89,487.65 244.31,487.41 C242.78,489.04 242.07,490.22 241.88,491.76 C241.70,493.39 241.68,495.63 241.85,497.20 C242.04,498.85 242.74,500.48 244.13,502.82 C244.13,502.82 248.63,500.99 248.63,500.99" fill="none" stroke="rgb(0, 255, 0)" stroke-width="2.39" stroke-opacity="1.00" stroke-linejoin="round"/>
<path d="M201.17,488.42 C201.17,488.42 199.71,489.23 199.71,489.23 C201.58,489.75 210.97,490.61 212.74,490.73 C216.66,490.97 219.00,490.81 221.51,490.58 C221.51,490.58 219.83,490.45 219.83,490.45" fill="none" stroke="rgb(0, 255, 0)" stroke-width="2.39" stroke-opacity="1.00" stroke-linejoin="round"/>
<path d="M216.58,491.26 C216.58,491.26 216.01,491.42 216.01,491.42 C216.01,491.42 215.89,491.93 215.89,491.93 C217.05,492.92 218.50,494.80 219.06,496.43 C219.60,498.03 219.79,501.23 219.53,502.62 C219.35,503.37 216.95,504.23 216.02,504.53 C214.13,505.12 210.03,507.22 206.41,507.22 C205.90,507.22 197.85,506.59 197.25,506.49 C194.95,506.06 190.67,503.13 190.29,501.17 C190.15,500.38 190.51,496.48 190.62,495.31" fill="none" stroke="rgb(0, 255, 0)" stroke-width="2.39" stroke-opacity="1.00" stroke-linejoin="round"/>
<path d="M206.85,490.85 C206.85,490.85 203.06,492.07 203.06,492.07 C203.06,492.07 202.79,491.66 202.79,491.66 C202.78,495.41 204.30,502.28 206.26,504.23 C206.59,504.54 207.25,504.94 208.23,505.41 C209.62,505.08 210.78,504.27 211.53,502.81 C212.13,501.61 212.83,498.76 212.83,497.53 C212.80,496.29 212.06,494.31 211.37,493.55 C210.68,492.86 208.87,492.10 207.97,492.17 C206.91,492.29 205.00,493.67 204.40,494.85 C203.75,496.23 203.68,499.87 204.37,501.55 C205.24,503.47 208.26,505.55 210.05,505.36 C211.79,505.11 214.71,502.52 215.47,500.76 C216.00,499.41 215.82,496.84 215.25,495.76 C214.68,494.80 212.94,493.31 211.86,492.84 C210.69,492.38 208.36,492.34 207.29,492.84 C206.04,493.49 204.30,496.00 204.14,497.63 C204.01,499.53 205.70,503.08 207.24,503.98 C208.85,504.85 212.23,504.09 213.45,502.67 C214.45,501.44 214.87,498.60 214.41,497.35 C213.98,496.29 212.92,495.41 211.79,494.89 C210.60,495.09 209.52,495.91 209.18,497.21 C208.57,499.71 210.06,502.47 210.97,503.51 C210.97,503.51 212.25,503.39 212.25,503.39 C213.43,501.31 212.80,498.08 211.61,497.08 C211.61,497.08 210.41,497.79 210.41,497.79 C210.41,497.79 212.52,500.59 212.52,500.59" fill="none" stroke="rgb(0, 255, 0)" stroke-width="2.39" stroke-opacity="1.00" stroke-linejoin="round"/>
<path d="M212.12,498.15 C210.76,498.19 209.88,498.19 209.48,498.15 C209.09,498.11 208.61,497.98 208.06,497.75 C208.06,497.75 211.58,500.31 211.58,500.31 C214.45,497.14 210.28,495.32 209.07,495.18 C207.84,495.71 207.14,496.49 206.81,497.98 C206.71,498.44 206.27,500.91 206.03,502.21" fill="none" stroke="rgb(0, 255, 0)" stroke-width="2.39" stroke-opacity="1.00" stroke-linejoin="round"/>
<path d="M231.59,500.18 C230.47,500.66 229.73,500.99 229.70,500.99 C229.63,501.00 229.43,501.01 229.10,501.02 C224.86,504.81 224.84,510.23 225.27,511.37 C226.35,511.99 227.61,512.36 230.45,512.82 C231.01,512.91 231.66,513.03 232.40,513.16" fill="none" stroke="rgb(0, 255, 0)" stroke-width="2.39" stroke-opacity="1.00" stroke-linejoin="round"/>
<path d="M243.35,521.27 C243.35,521.27 242.95,521.27 242.95,521.27 C242.59,521.43 240.60,523.43 238.59,523.65 C235.65,523.92 231.86,523.12 230.39,521.40 C229.28,520.07 227.53,519.61 225.91,520.69 C225.12,521.24 223.49,522.79 222.81,523.68 C222.54,524.03 221.96,524.85 221.04,526.14" fill="none" stroke="rgb(0, 255, 0)" stroke-width="2.39" stroke-opacity="1.00" stroke-linejoin="round"/>
<path d="M204.82,510.73 C203.41,511.55 202.54,512.11 202.24,512.40 C201.87,512.76 199.94,526.95 199.15,527.94 C199.15,527.94 197.76,511.92 197.76,511.92 C197.76,511.92 194.71,521.42 194.71,521.42 C194.71,521.42 192.98,511.43 192.98,511.43 C192.98,511.43 190.11,524.04 190.11,524.04 C190.11,524.04 188.76,512.18 188.76,512.18 C188.76,512.18 187.38,518.44 187.38,518.44" fill="none" stroke="rgb(0, 255, 0)" stroke-width="2.39" stroke-opacity="1.00" stroke-linejoin="round"/>
<path d="M259.58,506.27 C259.58,506.27 258.36,505.86 258.36,505.86 C258.36,505.86 261.42,519.36 261.42,519.36 C261.42,519.36 265.73,500.80 265.73,500.80 C265.94,502.26 265.73,509.24 265.91,511.97 C266.02,513.54 266.26,514.26 266.70,514.67 C268.23,513.36 269.94,502.87 270.23,500.38 C270.30,500.46 270.29,505.38 270.54,508.69 C270.86,512.60 271.79,513.92 272.58,514.12 C272.58,514.12 275.75,502.67 275.75,502.67 C275.84,503.88 276.21,506.04 276.74,508.03 C276.87,508.54 277.10,509.30 277.42,510.32" fill="none" stroke="rgb(0, 255, 0)" stroke-width="2.39" stroke-opacity="1.00" stroke-linejoin="round"/>
<path d="M220.64,532.23 C220.64,532.23 219.62,532.83 219.62,532.83 C219.62,532.83 219.57,533.31 219.57,533.31 C220.13,533.88 223.81,536.72 225.09,539.87 C225.79,541.65 227.31,556.03 227.99,562.92 C228.59,570.68 228.90,580.06 226.61,585.82 C226.16,586.92 225.79,587.52 225.58,587.64 C224.32,587.80 219.96,557.05 219.00,549.47 C218.58,546.12 218.88,543.69 219.01,543.61 C218.48,543.63 217.11,547.74 216.59,551.25 C215.89,556.15 216.52,570.87 218.05,577.83 C218.76,581.02 220.24,585.89 222.05,590.19 C222.05,590.19 222.32,590.02 222.32,590.02" fill="none" stroke="rgb(0, 255, 0)" stroke-width="2.39" stroke-opacity="1.00" stroke-linejoin="round"/>
<path d="M220.23,583.33 C220.19,584.42 220.19,585.09 220.23,585.36 C220.32,585.99 220.65,586.18 220.64,586.62 C220.57,591.12 220.32,594.36 220.23,595.45 C217.27,588.91 214.13,577.72 213.20,571.60 C212.33,565.77 212.07,549.95 212.69,546.60 C213.46,542.64 217.60,532.70 218.96,530.55 C219.05,531.52 214.45,539.81 213.74,541.29 C212.79,543.28 209.69,552.24 209.73,555.58 C209.74,556.14 210.43,562.61 211.06,566.95 C211.14,567.54 211.22,568.14 211.31,568.73" fill="none" stroke="rgb(0, 255, 0)" stroke-width="2.39" stroke-opacity="1.00" stroke-linejoin="round"/>
<path d="M234.83,547.64 C234.83,547.64 234.63,547.64 234.63,547.64 C234.63,547.64 234.43,547.84 234.43,547.84 C234.67,549.32 235.22,550.98 235.44,551.59 C237.18,556.47 240.61,572.83 240.33,578.60 C240.22,580.35 239.40,582.99 238.66,584.09 C238.41,584.44 232.15,592.30 231.76,592.53 C231.27,591.76 230.53,587.41 230.11,584.86 C229.90,583.56 229.42,580.56 229.16,578.87" fill="none" stroke="rgb(0, 255, 0)" stroke-width="2.39" stroke-opacity="1.00" stroke-linejoin="round"/>
<path d="M255.52,533.44 C255.52,533.44 253.70,534.05 253.70,534.05 C253.15,535.20 253.03,536.19 253.29,538.05 C254.09,543.59 257.23,553.84 260.59,562.67 C261.68,565.43 264.99,571.29 265.45,571.90 C267.04,573.98 271.18,576.80 271.63,576.95 C271.99,577.07 272.70,577.17 273.77,577.25" fill="none" stroke="rgb(0, 255, 0)" stroke-width="2.39" stroke-opacity="1.00" stroke-linejoin="round"/>
<path d="M251.46,543.58 C251.37,543.95 250.86,545.14 250.86,545.51 C250.85,547.85 257.98,561.17 261.33,566.15 C262.40,567.74 265.91,572.44 267.97,574.20 C270.41,576.25 277.36,579.12 277.35,578.77 C275.76,575.78 273.79,571.03 271.81,565.26 C270.48,561.41 268.16,554.72 267.16,551.87" fill="none" stroke="rgb(0, 255, 0)" stroke-width="2.39" stroke-opacity="1.00" stroke-linejoin="round"/>
<path d="M262.82,526.95 C262.82,526.95 261.20,526.55 261.20,526.55 C262.65,526.98 271.50,539.67 275.64,545.64 C279.20,550.87 283.96,560.29 284.91,566.38 C285.79,573.83 286.84,582.47 287.24,583.92 C287.24,583.92 287.56,582.12 287.56,582.12" fill="none" stroke="rgb(0, 255, 0)" stroke-width="2.39" stroke-opacity="1.00" stroke-linejoin="round"/>
<path d="M268.50,533.04 C269.30,533.14 272.26,535.55 274.47,538.01 C276.83,540.70 280.52,546.81 281.81,550.14 C283.20,553.85 284.06,558.53 284.21,561.78 C284.33,564.79 283.79,567.73 283.52,568.90 C282.38,566.78 281.22,561.91 280.23,559.45 C279.06,556.55 275.86,550.76 274.72,549.13 C272.70,546.25 263.68,535.77 263.67,534.66 C263.67,534.40 263.79,533.73 264.03,532.65" fill="none" stroke="rgb(0, 255, 0)" stroke-width="2.39" stroke-opacity="1.00" stroke-linejoin="round"/>
<path d="M285.54,564.68 C285.54,564.68 284.36,564.33 284.36,564.33 C284.43,566.54 285.14,573.57 285.13,576.91 C285.07,584.05 284.08,586.98 283.53,587.42 C280.94,587.92 278.05,588.15 276.60,587.27 C275.35,586.47 264.74,575.06 261.58,571.61 C265.59,576.31 272.45,585.85 276.22,591.16 C276.49,591.52 276.75,591.89 277.02,592.26" fill="none" stroke="rgb(0, 255, 0)" stroke-width="2.39" stroke-opacity="1.00" stroke-linejoin="round"/>
<path d="M279.45,589.01 C279.37,589.17 279.30,589.31 279.25,589.42 C279.13,589.66 279.02,589.90 278.90,590.14 C277.66,590.23 272.49,590.25 265.49,590.68 C257.09,591.25 247.23,593.23 241.74,594.70 C238.44,595.59 230.60,598.17 229.40,598.53 C225.57,599.69 224.11,599.75 222.91,599.54 C222.32,598.99 221.92,598.31 221.82,597.40 C221.66,595.65 222.99,593.96 224.29,592.26" fill="none" stroke="rgb(0, 255, 0)" stroke-width="2.39" stroke-opacity="1.00" stroke-linejoin="round"/>
<path d="M237.27,579.68 C237.27,579.68 234.02,580.90 234.02,580.90 C235.01,582.69 236.72,588.09 237.21,591.21 C237.54,593.38 237.70,597.97 237.47,597.89 C237.47,597.89 235.52,588.77 235.52,588.77 C234.59,592.51 234.28,594.31 234.18,594.46 C234.04,594.66 233.63,595.02 232.96,595.53" fill="none" stroke="rgb(0, 255, 0)" stroke-width="2.39" stroke-opacity="1.00" stroke-linejoin="round"/>
<path d="M231.59,598.75 C231.59,598.75 230.17,598.75 230.17,598.75 C230.17,598.75 229.56,598.06 229.56,598.06 C229.56,598.06 229.70,596.20 229.70,596.20 C230.55,596.31 231.02,596.68 231.55,597.95 C238.58,614.73 242.13,624.98 242.53,626.15 C242.53,626.15 243.76,623.90 243.76,623.90" fill="none" stroke="rgb(0, 255, 0)" stroke-width="2.39" stroke-opacity="1.00" stroke-linejoin="round"/>
<path d="M250.25,595.10 C250.25,595.10 249.32,595.30 249.32,595.30 C249.14,595.43 249.04,595.63 249.03,595.89 C248.84,601.26 256.13,621.10 256.89,621.54 C256.89,621.54 257.55,617.81 257.55,617.81" fill="none" stroke="rgb(0, 255, 0)" stroke-width="2.39" stroke-opacity="1.00" stroke-linejoin="round"/>
<path d="M259.98,590.64 C259.98,590.64 258.77,591.85 258.77,591.85 C258.76,592.35 258.86,592.60 259.64,593.59 C262.55,597.33 265.47,604.81 269.27,616.83 C269.63,617.89 270.00,618.96 270.36,620.02 C270.36,620.02 272.15,619.43 272.15,619.43" fill="none" stroke="rgb(0, 255, 0)" stroke-width="2.39" stroke-opacity="1.00" stroke-linejoin="round"/>
<path d="M280.26,588.20 C280.26,588.20 279.25,588.81 279.25,588.81 C279.25,588.81 279.11,589.28 279.11,589.28 C279.28,589.62 293.06,612.89 294.79,615.40 C295.76,616.80 297.24,618.51 298.19,619.37 C298.44,619.59 298.82,619.88 299.33,620.25" fill="none" stroke="rgb(0, 255, 0)" stroke-width="2.39" stroke-opacity="1.00" stroke-linejoin="round"/>
<path d="M283.91,584.55 C283.91,584.28 283.91,584.01 283.91,583.74 C283.91,583.62 283.91,583.50 283.91,583.39 C286.13,588.38 285.83,592.14 285.60,593.00 C285.60,593.00 281.07,590.64 281.07,590.64" fill="none" stroke="rgb(0, 255, 0)" stroke-width="2.39" stroke-opacity="1.00" stroke-linejoin="round"/>
</g>
</svg>
