<?xml version="1.0" encoding="UTF-8" standalone="no"?>
<!DOCTYPE svg PUBLIC "-//W3C//DTD SVG 1.1//EN" "http://www.w3.org/Graphics/SVG/1.1/DTD/svg11.dtd">
<svg width="128.40" height="181.68" viewBox="0.00 0.00 535.00 757.00" xmlns="http://www.w3.org/2000/svg" xmlns:xlink="http://www.w3.org/1999/xlink">
<g stroke-linecap="round" id="104">
<path d="M37.34,382.09 C37.34,382.09 37.34,382.71 37.34,382.71 C38.30,379.94 40.34,374.24 41.40,371.30 C42.19,369.13 45.21,360.04 45.76,357.28 C46.47,353.53 45.81,347.63 44.37,344.72 C43.04,342.11 39.26,337.36 36.96,335.19 C35.95,334.26 33.43,332.54 32.21,332.02 C30.79,331.43 22.09,331.24 20.77,331.33 C18.28,331.54 16.17,333.51 14.80,336.09 C11.83,341.24 6.91,350.09 5.45,355.44 C4.48,359.01 3.73,363.83 3.60,365.96 C3.50,368.03 4.69,373.83 6.31,376.66 C7.86,379.29 12.17,383.28 14.05,384.47 C16.01,385.67 20.08,386.81 22.62,387.04 C24.85,387.20 30.15,386.28 31.94,384.95 C32.99,384.12 33.94,382.23 34.00,380.83 C34.02,379.12 32.19,371.67 31.60,369.75 C31.08,368.08 28.83,361.87 27.86,360.09 C26.52,357.70 21.95,352.68 19.72,352.11 C18.19,351.77 15.79,352.88 14.41,354.40 C13.35,355.64 11.63,361.21 11.51,364.40 C11.43,368.01 12.80,373.92 13.84,376.30 C15.01,378.79 18.44,382.98 21.02,383.88 C23.44,384.64 28.29,382.98 29.75,381.35 C31.12,379.73 33.45,376.16 36.30,371.37" fill="none" stroke="rgb(229, 0, 16)" stroke-width="2.37" stroke-opacity="1.00" stroke-linejoin="round"/>
<path d="M43.91,347.17 C40.89,346.09 35.90,344.51 34.38,344.17 C33.02,343.88 26.97,343.99 25.28,344.47 C22.87,345.19 19.03,347.96 17.47,350.11 C16.29,351.78 13.47,358.08 12.91,360.42 C12.28,363.12 12.21,369.52 13.10,372.29 C13.68,374.02 15.40,376.69 16.96,378.57 C17.58,379.27 20.08,381.01 21.10,381.46 C22.54,382.05 26.14,382.22 27.77,381.75 C30.46,380.93 35.19,377.57 36.52,376.37 C38.17,374.87 40.87,371.82 42.27,369.86 C43.86,367.56 45.97,362.36 46.38,358.23 C46.45,357.55 47.64,335.27 47.05,333.52 C45.73,332.63 44.60,332.44 42.75,333.00 C39.91,333.86 32.26,336.80 30.17,337.90 C27.24,339.45 23.34,342.53 22.31,343.70 C20.90,345.34 18.69,350.04 17.94,353.04 C16.85,357.56 17.18,369.49 18.59,374.40 C19.53,377.56 22.09,382.38 23.56,383.90 C24.52,384.87 26.16,385.61 28.35,386.24" fill="none" stroke="rgb(229, 0, 16)" stroke-width="2.37" stroke-opacity="1.00" stroke-linejoin="round"/>
<path d="M32.15,356.85 C30.87,356.81 28.75,357.65 28.00,359.45 C27.10,361.76 26.93,379.76 27.40,385.06 C25.72,382.24 24.31,377.93 23.82,375.11 C23.33,372.22 22.98,364.57 23.30,361.36 C23.57,358.84 25.03,353.14 26.55,350.76 C27.37,349.52 29.73,347.47 31.07,346.76 C33.63,345.50 40.78,345.11 44.06,346.01 C46.86,346.80 51.22,349.44 52.80,351.65 C53.70,352.95 54.74,356.07 54.91,357.80 C55.15,360.83 53.66,367.27 52.35,370.08 C51.18,372.50 47.95,376.93 46.77,377.87 C45.20,379.04 42.58,380.10 40.78,380.14 C38.94,380.14 35.80,379.10 34.48,378.03 C33.32,377.03 31.58,374.16 31.10,372.61 C30.34,369.84 31.57,364.55 33.64,360.90 C34.68,359.10 37.80,355.11 39.25,353.67 C41.28,351.71 45.58,349.64 47.60,349.98 C48.67,350.20 50.46,351.33 51.24,352.28 C52.76,354.22 53.75,359.76 53.02,362.53 C52.28,365.15 48.77,369.50 47.09,370.53 C44.44,372.12 39.73,373.52 39.26,373.45 C38.95,373.40 38.46,373.11 37.79,372.60" fill="none" stroke="rgb(229, 0, 16)" stroke-width="2.37" stroke-opacity="1.00" stroke-linejoin="round"/>
<path d="M36.65,369.99 C35.32,369.85 33.18,369.53 32.41,369.21 C31.16,368.68 29.80,366.46 29.20,364.34 C28.78,362.74 28.81,357.62 29.33,355.15 C30.58,349.53 37.38,337.40 40.74,333.55 C44.05,329.83 50.90,324.19 54.39,322.40 C56.32,321.42 60.53,319.96 62.09,319.72 C64.31,319.43 67.88,319.51 69.67,320.05 C72.79,321.02 76.89,324.21 78.06,325.62 C79.40,327.29 81.46,331.35 82.14,333.66 C83.41,338.16 83.36,348.50 82.33,353.75 C81.94,355.74 80.32,361.59 79.20,364.20 C77.73,367.50 73.08,372.38 69.35,374.60 C64.60,377.36 56.25,380.69 52.14,381.52 C51.11,381.71 48.24,381.89 46.96,381.77 C45.39,381.61 42.63,380.39 41.43,379.35 C38.97,377.09 36.92,370.57 36.89,367.62 C36.91,365.01 37.56,360.88 38.36,358.63 C39.90,354.35 45.71,345.89 50.13,341.30 C54.86,336.41 63.26,330.27 67.67,328.43 C69.53,327.67 74.37,326.66 76.67,327.36 C77.93,327.78 79.82,330.00 80.29,331.51 C81.04,334.12 80.86,339.58 80.56,341.42 C80.18,343.60 79.01,347.58 78.04,349.93 C76.86,352.69 73.11,357.78 69.61,360.35 C66.61,362.51 59.18,366.10 56.36,366.71 C54.81,367.02 52.14,366.93 51.20,366.50 C50.28,366.03 49.07,364.23 48.74,362.90 C48.18,360.42 48.89,354.29 49.55,351.81 C50.24,349.36 52.19,345.06 53.67,342.82 C55.24,340.50 58.55,337.30 60.30,336.20 C62.12,335.08 65.97,334.22 67.99,334.47 C69.94,334.74 73.70,336.41 75.40,337.75 C77.32,339.34 81.04,344.13 81.47,347.35 C81.66,349.05 80.97,352.71 80.16,354.37 C78.57,357.50 72.90,362.22 69.32,363.90 C67.75,364.61 65.40,365.40 63.68,365.81 C62.30,366.09 59.47,365.68 58.34,364.92 C57.28,364.15 56.70,362.04 57.21,360.91 C57.34,360.65 57.86,359.64 58.77,357.89" fill="none" stroke="rgb(229, 0, 16)" stroke-width="2.37" stroke-opacity="1.00" stroke-linejoin="round"/>
<path d="M67.07,358.24 C67.07,358.24 61.40,361.49 61.40,361.49 C60.28,360.35 60.30,355.79 60.92,353.15 C61.57,350.54 64.32,345.17 66.49,342.38 C68.08,340.38 72.99,336.06 75.97,334.25 C78.28,332.88 84.27,331.07 86.64,331.37 C88.01,331.57 90.45,332.83 91.26,333.78 C92.83,335.71 93.32,341.77 92.31,344.70 C91.35,347.35 87.31,352.82 84.77,355.10 C82.18,357.39 76.58,360.51 74.09,360.97 C72.82,361.18 70.52,360.96 69.60,360.52 C68.70,360.04 67.31,358.36 66.87,357.21 C65.94,354.57 66.55,348.26 67.46,345.73 C69.03,341.61 74.91,333.66 78.78,330.36 C82.62,327.14 91.05,323.04 95.57,322.11 C97.92,321.66 103.59,321.89 105.07,322.55 C106.69,323.34 108.65,325.14 109.25,326.57 C110.18,328.95 109.15,334.62 108.18,337.15 C106.54,341.30 100.91,349.96 98.07,353.16 C93.79,357.95 84.34,365.99 78.88,369.41 C75.37,371.57 73.29,372.05 70.79,372.29 C70.79,372.29 69.65,368.35 69.65,368.35" fill="none" stroke="rgb(229, 0, 16)" stroke-width="2.37" stroke-opacity="1.00" stroke-linejoin="round"/>
<path d="M88.85,354.78 C88.85,354.78 86.43,355.47 86.43,355.47 C86.32,353.86 88.52,347.79 89.22,344.98 C89.97,341.91 90.73,335.60 90.70,332.52 C90.65,329.89 89.76,323.85 88.49,320.17 C87.65,317.84 84.33,313.48 81.70,312.73 C79.17,312.12 73.15,314.21 70.40,315.87 C65.88,318.67 56.58,326.96 53.41,331.09 C52.12,332.81 50.04,337.08 50.45,339.64 C50.88,342.16 56.55,351.78 57.28,353.01" fill="none" stroke="rgb(229, 0, 16)" stroke-width="2.37" stroke-opacity="1.00" stroke-linejoin="round"/>
<path d="M86.43,364.11 C84.99,363.69 82.32,362.49 81.50,361.61 C80.61,360.60 81.03,357.58 82.06,355.43 C84.36,350.93 92.43,341.99 95.99,339.22 C100.50,335.74 109.03,331.55 113.32,330.65 C114.39,330.45 117.10,330.34 118.36,330.52 C119.76,330.76 121.99,332.17 122.67,333.27 C123.86,335.35 123.76,341.41 123.25,344.18 C122.31,349.00 118.23,359.67 115.33,364.08 C112.32,368.59 104.08,376.23 98.33,380.19 C93.14,383.73 81.78,389.99 77.79,391.63 C73.45,393.38 69.05,394.29 67.47,393.64 C67.00,391.26 67.14,389.56 68.09,387.51 C69.51,384.45 76.07,373.28 81.72,365.07 C87.35,357.05 94.42,348.66 98.60,344.59 C102.66,340.67 109.36,336.13 111.52,335.42 C112.74,335.04 114.86,335.35 115.61,335.97 C116.36,336.65 117.22,339.02 117.23,340.55 C117.20,343.38 115.49,348.80 114.63,350.76 C112.46,355.65 105.52,365.72 101.47,369.60 C99.31,371.64 95.17,374.54 92.51,375.86 C90.54,376.82 85.75,378.24 83.14,377.97 C81.76,377.80 79.47,376.39 78.76,375.33 C77.61,373.49 77.14,365.96 77.75,362.75 C78.31,359.95 80.35,355.15 81.99,353.19 C82.93,352.11 85.42,350.27 86.69,349.71 C88.09,349.11 90.41,348.71 93.15,348.45" fill="none" stroke="rgb(229, 0, 16)" stroke-width="2.37" stroke-opacity="1.00" stroke-linejoin="round"/>
<path d="M89.54,329.89 C89.54,329.89 89.71,329.20 89.71,329.20 C89.71,329.20 90.84,328.33 90.84,328.33 C94.76,328.85 99.85,331.22 102.08,333.02 C103.37,334.09 105.43,336.51 106.15,337.86 C107.46,340.44 107.74,346.48 107.37,349.16 C106.63,354.08 101.51,365.03 97.58,370.80 C95.93,373.20 92.37,377.88 90.69,379.87 C89.01,381.86 86.75,384.15 84.52,386.27" fill="none" stroke="rgb(229, 0, 16)" stroke-width="2.37" stroke-opacity="1.00" stroke-linejoin="round"/>
<path d="M104.75,358.58 C104.48,354.67 104.94,350.80 106.27,349.03 C107.63,347.29 112.41,344.74 115.32,344.06 C116.84,343.73 119.52,343.54 120.68,343.72 C121.90,343.94 123.96,345.10 124.87,346.11 C126.68,348.20 128.36,353.70 128.61,356.33 C128.98,360.90 126.90,370.65 124.75,374.83 C123.56,377.07 119.99,381.94 117.48,383.81 C114.86,385.72 107.72,388.49 103.94,389.26 C100.21,389.98 94.23,390.17 91.45,389.65 C90.23,389.39 88.73,387.87 88.19,386.41 C87.81,385.28 89.67,379.38 91.38,376.64 C93.15,373.90 97.60,369.91 100.80,368.20 C102.16,367.48 107.26,365.51 108.21,365.15" fill="none" stroke="rgb(229, 0, 16)" stroke-width="2.37" stroke-opacity="1.00" stroke-linejoin="round"/>
<path d="M122.38,363.77 C119.30,365.23 116.04,366.27 113.31,366.62 C109.74,367.02 107.12,366.82 105.72,366.43 C105.08,365.36 105.33,363.78 106.60,361.97 C107.61,360.56 112.43,357.54 115.32,356.71 C116.85,356.30 120.38,355.84 122.01,355.89 C125.49,356.03 131.02,358.75 132.58,360.28 C133.92,361.68 135.79,365.58 135.82,366.95 C135.81,368.85 134.93,371.80 133.78,373.33 C131.98,375.62 124.52,380.20 120.98,381.56 C117.42,382.91 111.40,383.81 109.65,383.70 C107.58,383.53 104.93,382.79 103.77,381.92 C102.70,381.06 101.34,378.57 101.21,377.13 C101.02,374.48 102.84,369.53 103.79,367.84 C104.96,365.77 108.09,361.79 109.91,360.05 C111.79,358.30 115.88,355.58 118.10,354.58 C120.31,353.61 124.92,352.47 127.14,352.34 C129.00,352.24 134.39,353.07 136.83,354.70 C138.19,355.64 140.26,358.67 140.82,360.41 C141.74,363.45 140.96,369.51 140.16,372.06 C139.53,373.99 137.52,378.49 136.70,379.87 C134.37,383.73 129.50,388.23 126.04,389.72 C122.16,391.32 115.89,391.58 113.47,390.78 C112.31,390.31 110.16,388.85 109.39,387.72 C107.88,385.45 107.65,379.38 108.02,377.17 C108.48,374.48 110.44,368.95 111.90,366.33 C113.39,363.71 116.97,359.30 118.87,357.79 C120.74,356.34 124.81,354.61 126.98,354.31 C129.17,354.03 133.11,354.49 135.43,355.36 C137.50,356.17 140.57,358.53 141.85,360.35 C143.13,362.22 144.75,366.80 145.08,369.52 C145.39,372.42 144.95,378.25 144.23,381.57 C142.95,387.33 137.26,399.67 134.27,403.08 C131.50,406.17 123.95,410.14 119.64,410.94 C117.37,411.34 113.03,411.36 111.43,410.98 C109.26,410.41 106.21,408.98 104.77,407.70 C102.04,405.19 99.44,398.63 99.20,396.37 C99.03,394.24 99.18,391.97 99.70,391.01 C100.19,390.14 102.01,389.07 103.42,388.73 C105.89,388.18 111.99,388.22 114.14,388.46 C116.87,388.81 121.30,390.52 123.10,391.92 C124.02,392.68 125.46,394.43 126.04,395.60 C126.62,396.84 126.73,399.35 126.30,400.47 C125.43,402.50 121.16,405.07 118.63,406.02 C113.35,407.92 102.81,409.69 98.51,408.93 C96.45,408.53 92.71,406.48 91.31,404.97 C89.93,403.43 88.25,399.58 87.80,397.08 C87.40,394.66 87.66,390.84 88.19,388.38 C88.45,387.38 89.72,385.15 90.64,384.34 C92.60,382.69 99.29,382.99 102.54,383.84 C107.78,385.28 116.08,389.93 119.04,393.17 C119.78,394.01 121.21,396.47 121.54,397.65 C121.87,398.90 121.24,401.41 120.41,402.55 C118.84,404.58 112.58,408.21 108.83,409.53 C105.02,410.84 98.19,411.64 95.40,411.04 C94.12,410.74 92.31,409.79 91.34,408.97 C90.54,408.22 90.53,406.16 91.27,404.73 C92.76,402.07 103.75,399.96 105.98,400.27 C107.17,400.47 109.05,401.48 109.70,402.31 C111.15,404.34 110.91,410.96 109.87,413.34 C108.87,415.49 106.71,418.62 105.22,420.07 C103.77,421.46 100.27,423.85 98.33,424.80 C96.62,425.63 92.14,427.12 88.48,427.32 C86.58,427.40 81.10,425.28 79.49,422.68 C78.01,420.20 77.37,414.87 77.49,413.08 C77.67,410.82 78.95,406.66 80.10,404.90 C81.06,403.47 84.80,400.06 87.90,399.12 C91.45,398.10 98.38,399.55 101.03,400.94 C103.29,402.22 106.85,405.81 107.55,407.59 C108.20,409.41 108.45,412.14 107.98,413.69 C107.50,415.15 105.69,417.51 104.26,418.59 C100.27,421.51 88.90,424.42 84.61,424.55 C82.28,424.60 77.53,424.00 76.07,423.45 C73.99,422.62 71.05,420.73 69.82,419.27 C68.68,417.85 67.23,414.29 67.11,412.56 C66.88,407.58 70.22,402.30 70.99,401.14" fill="none" stroke="rgb(229, 0, 16)" stroke-width="2.37" stroke-opacity="1.00" stroke-linejoin="round"/>
<path d="M85.05,407.67 C84.94,408.46 84.62,411.18 84.53,411.65 C84.27,412.89 83.43,414.13 82.67,414.41 C81.92,414.63 80.30,414.16 79.65,413.35 C78.47,411.85 64.87,378.82 64.07,375.74 C65.39,374.88 70.15,374.34 71.21,374.35 C73.10,374.38 77.93,375.50 79.42,377.39 C79.70,377.74 79.95,378.39 80.18,379.33 C79.72,380.47 78.64,381.40 77.02,381.54 C73.98,381.78 60.16,378.85 54.48,378.37 C50.31,378.04 41.04,379.07 36.94,380.44 C34.69,381.21 29.23,383.89 26.94,385.98 C24.42,388.31 21.93,393.60 21.26,396.37 C20.72,398.71 20.18,404.20 20.22,406.98 C20.29,410.03 21.17,415.77 22.04,418.65 C22.96,421.59 25.47,426.67 27.14,428.93 C28.82,431.17 32.59,434.57 34.77,435.82 C36.90,437.00 41.66,438.51 44.34,438.87 C49.35,439.52 60.39,437.96 65.14,436.28 C67.46,435.44 71.52,433.35 73.18,432.10 C74.92,430.77 77.46,427.77 78.48,425.85 C80.36,422.22 82.09,412.93 81.68,407.79 C81.24,402.72 77.87,391.63 75.51,386.70 C74.23,384.06 71.50,379.84 69.86,378.03 C67.90,375.91 63.14,372.85 59.55,372.28 C56.01,371.77 49.06,373.02 45.54,374.92 C42.21,376.78 35.77,384.15 33.60,388.69 C32.57,390.90 31.03,395.98 30.89,397.55 C30.56,401.88 31.95,404.02 33.04,404.91 C33.04,404.91 38.03,403.87 38.03,403.87" fill="none" stroke="rgb(229, 0, 16)" stroke-width="2.37" stroke-opacity="1.00" stroke-linejoin="round"/>
<path d="M41.83,387.28 C38.20,386.91 34.80,387.02 32.20,387.69 C31.00,388.02 28.69,389.02 27.50,389.75 C26.20,390.57 24.55,395.09 24.70,398.08 C24.87,401.02 26.33,406.57 27.07,408.51 C27.98,410.89 30.38,415.22 31.82,417.09 C33.06,418.67 37.10,422.29 40.10,423.57 C41.83,424.27 45.64,424.74 47.32,424.45 C48.96,424.12 52.25,422.40 53.79,421.14 C55.24,419.90 57.69,416.95 58.56,415.37 C59.39,413.81 60.35,410.49 60.49,408.73 C60.69,405.63 59.19,399.74 58.20,397.30 C57.38,395.34 55.13,391.05 53.99,389.29 C52.45,386.98 48.11,382.48 45.28,381.40 C42.85,380.49 37.53,380.49 35.09,381.31 C31.93,382.42 27.15,387.01 25.56,389.40 C24.25,391.45 22.52,395.12 21.91,397.25 C21.25,399.61 20.91,403.73 21.37,406.26 C21.81,408.51 23.65,412.07 25.16,413.51 C26.64,414.89 30.57,416.90 32.60,417.35 C34.66,417.79 38.92,417.64 40.99,417.07 C43.18,416.43 46.87,414.31 48.66,412.74 C51.64,410.09 57.14,400.90 57.71,397.43 C58.32,393.36 57.10,388.13 55.80,385.32 C54.38,382.33 51.16,379.07 49.50,379.18 C47.70,379.40 43.94,383.41 42.48,385.81 C39.80,390.33 35.91,400.83 35.31,406.50 C35.09,408.85 35.76,413.42 37.52,414.69 C38.46,415.32 41.55,415.31 43.27,414.83 C46.07,413.99 50.71,410.65 52.49,408.94 C55.63,405.87 60.79,398.62 62.00,394.74 C62.69,392.41 63.28,386.59 62.68,383.13 C62.35,381.34 61.27,378.19 60.57,376.93 C59.84,375.70 58.09,373.99 57.07,373.52 C55.99,373.07 53.64,373.06 52.43,373.54 C49.98,374.57 46.31,379.31 44.94,382.09 C43.71,384.68 42.21,390.03 41.83,392.69 C41.45,395.63 42.02,400.66 42.98,402.89 C43.96,405.04 46.81,407.91 48.31,408.34 C50.23,408.81 53.34,408.70 55.17,407.93 C57.90,406.75 62.35,403.00 63.66,401.62 C65.28,399.91 68.28,396.03 69.47,394.08 C70.48,392.40 72.68,387.32 73.03,384.30 C73.39,380.97 71.16,374.01 69.36,372.10 C68.47,371.21 66.45,370.31 65.38,370.33 C63.07,370.48 58.73,374.62 57.15,377.17 C55.80,379.41 53.87,383.72 53.21,385.95 C52.58,388.10 52.17,392.57 52.42,394.53 C52.58,395.54 53.72,397.42 54.71,398.14 C55.68,398.80 58.56,399.10 60.04,398.80 C62.76,398.17 68.14,394.31 70.44,391.83 C73.15,388.79 73.63,386.98 73.73,384.66 C72.31,383.59 70.48,383.09 68.92,383.75 C66.45,384.81 63.47,389.31 62.78,391.15 C62.07,393.15 61.57,398.11 61.98,399.64 C62.26,400.56 63.20,401.91 64.03,402.56 C65.82,403.85 70.70,403.50 76.40,402.49" fill="none" stroke="rgb(229, 0, 16)" stroke-width="2.37" stroke-opacity="1.00" stroke-linejoin="round"/>
<path d="M78.82,396.96 C78.82,396.96 76.82,396.40 76.82,396.40 C76.90,397.14 78.76,402.43 78.98,403.91 C79.13,405.05 78.84,407.35 78.27,408.37 C77.00,410.53 72.18,414.74 70.46,415.94 C68.45,417.32 63.55,419.61 61.61,419.92 C59.20,420.27 53.69,419.59 50.43,418.53 C46.82,417.34 41.14,414.09 39.23,411.99 C37.56,410.10 36.31,405.94 36.91,404.37 C37.67,402.54 41.63,399.80 44.32,399.31 C45.65,399.10 48.13,399.40 49.36,399.97 C51.82,401.16 55.69,405.93 56.86,408.22 C57.96,410.46 59.18,414.43 59.15,415.89 C59.06,417.81 58.20,420.01 56.99,421.07 C55.11,422.64 48.63,424.80 45.35,425.19 C41.84,425.56 35.06,424.43 32.18,422.74 C29.07,420.83 24.70,415.54 23.48,412.99 C21.53,408.74 19.65,399.74 19.56,394.88 C19.56,394.17 19.83,390.94 20.20,390.53 C21.03,389.68 22.88,389.05 24.33,389.06 C27.80,389.06 30.07,389.32 32.20,389.65" fill="none" stroke="rgb(229, 0, 16)" stroke-width="2.37" stroke-opacity="1.00" stroke-linejoin="round"/>
<path d="M23.16,378.63 C23.16,378.63 20.54,376.90 20.54,376.90 C19.56,377.08 16.51,380.08 14.80,382.36 C11.41,386.95 7.75,397.53 7.04,402.13 C6.67,404.57 6.66,409.79 7.03,412.15 C7.25,413.37 8.42,415.80 9.40,416.85 C10.31,417.80 13.04,418.93 14.46,419.08 C17.46,419.30 21.79,417.52 25.24,414.83 C25.93,414.29 26.62,413.75 27.31,413.20" fill="none" stroke="rgb(229, 0, 16)" stroke-width="2.37" stroke-opacity="1.00" stroke-linejoin="round"/>
<path d="M21.09,387.62 C21.09,387.62 15.99,384.25 15.99,384.25 C14.72,384.61 12.41,388.65 11.38,391.81 C10.51,394.61 9.81,399.98 9.81,402.43 C9.83,404.79 10.58,408.89 11.29,411.25 C11.64,412.30 13.18,414.71 14.25,415.71 C15.33,416.68 18.04,417.63 19.45,417.64 C21.89,417.58 27.46,415.14 29.59,413.29 C31.55,411.54 33.66,407.50 33.68,405.95 C33.68,402.59 32.13,398.29 30.94,395.93 C29.67,393.44 26.95,390.13 25.22,389.18 C23.46,388.28 19.46,388.80 17.85,390.35 C16.05,392.18 14.28,398.44 14.80,401.53 C15.07,402.99 16.39,405.69 17.27,406.57 C18.92,408.17 23.31,408.75 25.28,407.93 C27.02,407.16 30.96,403.64 31.48,400.94 C31.71,399.58 30.37,396.48 29.09,395.12 C27.96,393.97 25.67,392.35 24.51,391.78 C23.43,391.35 21.02,391.08 19.95,391.52 C17.34,392.66 16.97,395.93 16.88,398.28" fill="none" stroke="rgb(229, 0, 16)" stroke-width="2.37" stroke-opacity="1.00" stroke-linejoin="round"/>
<path d="M19.36,381.40 C16.93,378.94 13.23,374.90 11.60,375.20 C10.42,375.48 8.91,377.72 8.25,379.99 C7.77,381.78 7.39,388.44 7.87,391.32 C8.42,394.34 10.89,399.41 12.91,401.66 C15.09,404.02 20.41,407.47 24.46,408.68 C26.03,409.14 30.73,409.83 33.08,409.85 C36.77,409.87 45.94,408.10 46.98,407.90" fill="none" stroke="rgb(229, 0, 16)" stroke-width="2.37" stroke-opacity="1.00" stroke-linejoin="round"/>
<path d="M76.88,411.78 C76.88,411.78 76.04,411.81 76.04,411.81 C75.84,412.16 73.81,418.28 72.73,421.51 C71.72,424.49 69.99,428.42 67.95,430.84 C67.61,431.23 63.71,435.26 62.56,436.54 C61.65,437.55 60.41,439.11 59.73,440.02" fill="none" stroke="rgb(229, 0, 16)" stroke-width="2.37" stroke-opacity="1.00" stroke-linejoin="round"/>
<path d="M78.45,416.50 C78.45,416.50 76.56,416.74 76.56,416.74 C76.58,418.46 76.67,419.13 77.17,420.48 C78.06,422.91 82.45,439.60 83.09,441.30 C83.62,442.70 84.41,443.85 85.38,444.86" fill="none" stroke="rgb(229, 0, 16)" stroke-width="2.37" stroke-opacity="1.00" stroke-linejoin="round"/>
<path d="M77.19,379.96 C77.19,379.96 75.14,381.93 75.14,381.93 C77.20,382.66 78.25,382.84 79.17,382.51 C81.18,381.76 84.28,379.59 86.70,377.32 C91.65,372.63 94.88,367.26 95.24,364.92 C95.24,364.92 92.89,364.44 92.89,364.44" fill="none" stroke="rgb(229, 0, 16)" stroke-width="2.37" stroke-opacity="1.00" stroke-linejoin="round"/>
<path d="M92.95,359.16 C92.47,359.24 90.74,359.59 90.35,360.11 C88.87,362.10 88.18,379.63 89.27,384.06 C89.60,385.30 90.75,387.62 91.56,388.73 C93.00,390.59 95.95,392.34 97.71,393.25" fill="none" stroke="rgb(229, 0, 16)" stroke-width="2.37" stroke-opacity="1.00" stroke-linejoin="round"/>
<path d="M97.67,354.12 C97.67,354.12 96.88,353.02 96.88,353.02 C96.32,354.08 95.85,357.61 95.81,360.29 C95.78,363.88 96.68,369.49 97.45,371.37 C98.90,374.70 101.93,377.80 104.26,378.58 C105.51,378.99 107.30,379.11 109.27,379.05" fill="none" stroke="rgb(229, 0, 16)" stroke-width="2.37" stroke-opacity="1.00" stroke-linejoin="round"/>
<path d="M97.67,362.31 C97.68,363.75 97.87,364.68 98.38,365.07 C98.84,365.41 99.67,365.69 100.17,365.75 C100.23,365.63 96.74,363.04 94.49,361.23 C92.55,359.65 89.35,355.93 88.14,354.02 C86.76,351.79 85.00,346.28 85.11,343.94 C85.19,342.66 86.02,340.27 86.75,339.28 C88.22,337.38 94.18,334.32 97.34,333.69 C98.89,333.41 101.84,333.38 102.97,333.65 C104.03,333.93 105.63,334.99 106.34,335.78 C106.85,336.44 107.36,338.73 107.12,339.99 C107.01,340.54 106.63,341.60 105.98,343.16" fill="none" stroke="rgb(229, 0, 16)" stroke-width="2.37" stroke-opacity="1.00" stroke-linejoin="round"/>
<path d="M100.51,342.78 C100.51,342.78 100.67,342.78 100.67,342.78 C101.09,342.31 101.40,341.98 101.61,341.81 C105.06,338.90 107.14,336.41 106.90,334.10 C106.74,332.94 105.34,330.83 103.99,329.57 C101.47,327.31 96.75,325.08 94.22,324.44 C90.28,323.49 79.43,322.52 76.13,323.43 C73.73,324.13 68.74,327.56 67.10,329.37 C65.48,331.18 63.53,334.55 63.08,335.33" fill="none" stroke="rgb(229, 0, 16)" stroke-width="2.37" stroke-opacity="1.00" stroke-linejoin="round"/>
<path d="M85.70,323.24 C83.97,322.61 76.77,319.73 76.14,319.60 C74.85,319.36 72.74,319.63 71.87,320.17 C69.77,321.59 66.10,326.44 64.87,328.86 C63.85,330.94 61.84,336.53 61.39,338.67 C60.34,343.95 62.43,350.34 63.23,352.05" fill="none" stroke="rgb(229, 0, 16)" stroke-width="2.37" stroke-opacity="1.00" stroke-linejoin="round"/>
<path d="M32.14,428.48 C32.14,428.48 30.40,425.91 30.40,425.91 C31.21,434.34 35.43,454.66 38.37,465.50 C39.49,469.74 40.56,486.93 40.94,490.05 C41.22,492.31 42.21,497.32 42.83,499.14 C43.25,500.34 44.90,504.34 45.06,504.72" fill="none" stroke="rgb(229, 0, 16)" stroke-width="2.37" stroke-opacity="1.00" stroke-linejoin="round"/>
<path d="M73.73,423.12 C73.73,423.12 71.84,423.12 71.84,423.12 C71.74,423.26 74.07,436.44 75.69,448.02 C77.59,462.03 78.87,470.22 80.92,477.02 C81.80,479.90 84.07,485.50 84.49,486.27 C85.49,488.07 89.87,494.05 90.67,495.98 C90.93,496.64 91.52,498.51 91.69,499.05" fill="none" stroke="rgb(229, 0, 16)" stroke-width="2.37" stroke-opacity="1.00" stroke-linejoin="round"/>
<path d="M70.89,424.70 C71.08,424.31 71.19,424.02 71.21,423.83 C71.23,423.64 71.19,423.30 71.09,422.79 C69.27,422.85 64.14,426.08 61.04,426.43 C58.48,426.69 51.61,425.66 49.10,425.20 C46.92,424.77 45.13,420.99 44.77,419.77" fill="none" stroke="rgb(229, 0, 16)" stroke-width="2.37" stroke-opacity="1.00" stroke-linejoin="round"/>
<path d="M39.70,404.22 C39.70,404.22 37.97,404.85 37.97,404.85 C42.15,400.66 48.09,391.28 49.84,386.45 C50.49,384.63 52.09,378.08 52.65,377.28 C52.65,377.28 54.51,378.67 54.51,378.67" fill="none" stroke="rgb(229, 0, 16)" stroke-width="2.37" stroke-opacity="1.00" stroke-linejoin="round"/>
<path d="M40.01,392.24 C40.01,392.24 37.97,393.58 37.97,393.58 C40.72,394.00 42.15,393.94 43.41,393.16 C47.80,390.38 61.18,376.35 62.54,375.94 C62.80,375.86 63.26,375.86 63.93,375.94 C64.67,376.66 65.15,377.72 65.27,379.29 C65.33,380.04 65.52,387.09 66.45,388.33 C67.86,388.80 70.90,387.27 73.76,385.41 C74.87,384.68 78.25,382.36 79.97,381.16 C82.81,379.17 86.61,376.50 87.56,375.83" fill="none" stroke="rgb(229, 0, 16)" stroke-width="2.37" stroke-opacity="1.00" stroke-linejoin="round"/>
<path d="M90.11,358.53 C88.66,359.61 87.06,360.85 86.39,361.54 C86.09,361.85 85.52,362.50 84.68,363.49" fill="none" stroke="rgb(229, 0, 16)" stroke-width="2.37" stroke-opacity="1.00" stroke-linejoin="round"/>
<path d="M81.29,373.65 C80.89,376.35 80.19,381.43 80.23,383.95 C80.29,385.26 81.01,388.35 81.72,389.82 C82.51,391.38 85.21,393.87 86.95,394.72 C89.82,396.05 94.78,396.80 97.68,397.07 C99.42,397.23 102.32,397.49 103.48,397.59" fill="none" stroke="rgb(229, 0, 16)" stroke-width="2.37" stroke-opacity="1.00" stroke-linejoin="round"/>
<path d="M89.17,352.86 C86.99,353.67 82.44,355.61 81.21,357.58 C79.10,361.16 76.79,373.82 76.54,379.53 C76.42,382.89 76.84,389.26 77.89,391.38 C78.10,391.80 78.60,392.61 79.39,393.81" fill="none" stroke="rgb(229, 0, 16)" stroke-width="2.37" stroke-opacity="1.00" stroke-linejoin="round"/>
<path d="M87.27,364.20 C87.27,364.20 86.49,363.41 86.49,363.41 C86.49,363.41 86.33,363.43 86.33,363.43 C85.83,366.20 85.18,369.35 84.28,373.37 C83.71,376.00 82.56,382.47 82.30,385.21 C82.09,387.62 81.94,393.08 81.91,394.18" fill="none" stroke="rgb(229, 0, 16)" stroke-width="2.37" stroke-opacity="1.00" stroke-linejoin="round"/>
<path d="M94.21,370.82 C93.56,371.00 96.67,387.26 98.56,392.27 C99.48,394.70 102.21,400.53 103.65,402.81 C103.86,403.13 104.17,403.60 104.60,404.22" fill="none" stroke="rgb(229, 0, 16)" stroke-width="2.37" stroke-opacity="1.00" stroke-linejoin="round"/>
<path d="M140.16,431.07 C140.16,431.07 139.74,431.63 139.74,431.63 C138.53,431.64 136.24,434.21 134.93,434.86 C132.84,435.86 125.27,437.05 124.31,436.18 C124.17,435.89 123.53,431.73 122.06,430.36 C121.09,429.47 120.35,426.66 121.10,424.32 C121.53,423.07 122.84,420.88 123.75,419.94 C125.43,418.31 131.45,416.89 133.94,417.41 C135.26,417.72 137.47,418.99 138.16,419.88 C139.37,421.52 140.40,426.89 140.13,429.17 C139.83,431.30 138.30,433.73 137.04,435.49" fill="none" stroke="rgb(0, 160, 232)" stroke-width="2.37" stroke-opacity="1.00" stroke-linejoin="round"/>
<path d="M133.74,431.07 C133.74,431.07 132.90,431.84 132.90,431.84 C132.91,432.24 134.68,447.20 135.33,450.96 C135.98,454.61 147.02,491.48 147.24,491.84 C147.42,492.14 147.85,492.63 148.54,493.33" fill="none" stroke="rgb(0, 160, 232)" stroke-width="2.37" stroke-opacity="1.00" stroke-linejoin="round"/>
<path d="M159.99,439.17 C159.99,439.17 158.06,437.77 158.06,437.77 C158.03,437.81 159.49,446.61 159.62,447.27 C160.35,450.92 164.32,457.84 165.45,460.61 C167.46,465.55 174.06,492.57 174.26,493.55 C174.26,493.55 174.57,493.70 174.57,493.70 C174.57,493.70 174.78,493.33 174.78,493.33" fill="none" stroke="rgb(28, 31, 136)" stroke-width="2.37" stroke-opacity="1.00" stroke-linejoin="round"/>
<path d="M162.22,438.89 C161.26,439.53 160.65,439.95 160.40,440.15 C160.16,440.34 159.93,440.57 159.71,440.84 C169.73,440.83 179.23,441.76 179.98,441.79 C183.97,441.96 219.40,438.34 219.74,439.33 C219.74,439.33 219.10,453.12 219.10,453.12 C216.58,451.75 205.31,451.45 194.12,452.14 C176.98,452.90 165.74,452.53 164.19,451.77 C164.08,451.72 163.70,451.52 163.06,451.17" fill="none" stroke="rgb(28, 31, 136)" stroke-width="2.37" stroke-opacity="1.00" stroke-linejoin="round"/>
<path d="M220.01,442.80 C220.01,442.80 219.46,442.88 219.46,442.88 C218.84,443.25 219.43,450.22 219.52,451.10 C221.50,473.49 223.30,484.79 224.76,493.48 C224.76,493.38 224.76,493.29 224.76,493.19 C224.76,493.15 224.76,493.10 224.76,493.05" fill="none" stroke="rgb(28, 31, 136)" stroke-width="2.37" stroke-opacity="1.00" stroke-linejoin="round"/>
<path d="M211.08,474.07 C210.94,474.07 210.80,474.07 210.66,474.07 C210.52,474.07 210.38,474.07 210.24,474.07 C210.24,474.07 210.24,473.84 210.24,473.84 C209.65,473.31 205.63,472.84 202.29,473.28 C190.88,475.06 173.67,476.02 172.26,476.02 C172.01,475.83 171.84,475.69 171.76,475.60 C171.68,475.52 171.57,475.38 171.43,475.19" fill="none" stroke="rgb(28, 31, 136)" stroke-width="2.37" stroke-opacity="1.00" stroke-linejoin="round"/>
<path d="M192.65,453.69 C191.66,454.24 191.07,454.53 190.85,454.52 C188.68,454.60 187.53,459.30 188.10,460.20 C188.10,460.20 189.15,459.92 189.15,459.92" fill="none" stroke="rgb(228, 0, 126)" stroke-width="2.37" stroke-opacity="1.00" stroke-linejoin="round"/>
<path d="M188.74,460.11 C188.74,460.11 188.46,460.39 188.46,460.39 C188.47,460.56 189.86,461.13 191.15,461.37 C193.32,461.77 198.53,460.80 199.85,459.72 C201.69,458.14 198.16,454.95 197.46,454.75 C196.93,454.60 193.85,454.11 192.93,453.97" fill="none" stroke="rgb(228, 0, 126)" stroke-width="2.37" stroke-opacity="1.00" stroke-linejoin="round"/>
<path d="M192.09,457.87 C192.09,457.87 191.55,457.87 191.55,457.87 C191.55,457.87 192.07,457.65 192.07,457.65" fill="none" stroke="rgb(228, 0, 126)" stroke-width="2.37" stroke-opacity="1.00" stroke-linejoin="round"/>
<path d="M197.68,457.87 C197.68,457.87 196.56,457.87 196.56,457.87 C196.85,457.57 197.00,457.39 197.03,457.34 C197.06,457.28 197.00,457.28 196.85,457.32" fill="none" stroke="rgb(228, 0, 126)" stroke-width="2.37" stroke-opacity="1.00" stroke-linejoin="round"/>
<path d="M194.05,460.39 C193.77,460.39 193.49,460.39 193.21,460.39 C193.02,460.39 192.84,460.39 192.65,460.39 C192.91,460.23 193.12,460.14 193.29,460.11 C193.47,460.08 193.84,460.08 194.41,460.11" fill="none" stroke="rgb(228, 0, 126)" stroke-width="2.37" stroke-opacity="1.00" stroke-linejoin="round"/>
<path d="M193.77,462.62 C193.77,462.62 192.79,462.62 192.79,462.62 C192.69,462.66 192.64,462.79 192.65,463.02 C192.71,463.99 193.47,467.03 193.90,467.97 C194.03,468.24 194.21,468.47 194.46,468.65" fill="none" stroke="rgb(228, 0, 126)" stroke-width="2.37" stroke-opacity="1.00" stroke-linejoin="round"/>
<path d="M199.35,462.34 C199.35,462.34 199.63,462.34 199.63,462.34 C199.79,463.72 200.06,466.66 200.14,468.20 C200.17,468.74 200.18,469.50 200.19,470.48 C200.19,470.48 200.19,470.28 200.19,470.28" fill="none" stroke="rgb(228, 0, 126)" stroke-width="2.37" stroke-opacity="1.00" stroke-linejoin="round"/>
<path d="M193.49,467.65 C193.49,467.65 192.93,467.93 192.93,467.93 C192.93,467.93 181.10,471.97 181.10,471.97 C181.08,472.15 182.99,481.14 183.05,481.32 C183.10,481.45 183.23,481.74 183.44,482.17" fill="none" stroke="rgb(228, 0, 126)" stroke-width="2.37" stroke-opacity="1.00" stroke-linejoin="round"/>
<path d="M183.16,481.33 C183.16,481.33 183.02,480.97 183.02,480.97 C183.02,480.97 182.60,480.77 182.60,480.77 C182.60,480.77 184.32,489.29 184.32,489.29 C184.32,489.29 184.90,489.05 184.90,489.05" fill="none" stroke="rgb(228, 0, 126)" stroke-width="2.37" stroke-opacity="1.00" stroke-linejoin="round"/>
<path d="M186.51,482.44 C186.51,482.44 184.83,482.44 184.83,482.44 C185.74,482.52 185.98,482.82 186.36,484.65 C186.57,485.69 187.09,486.93 187.31,487.14 C187.31,487.14 188.19,486.91 188.19,486.91" fill="none" stroke="rgb(228, 0, 126)" stroke-width="2.37" stroke-opacity="1.00" stroke-linejoin="round"/>
<path d="M190.70,481.05 C190.70,481.05 189.72,481.89 189.72,481.89 C189.57,482.99 189.88,484.70 190.65,486.62 C190.80,487.02 191.05,487.54 191.38,488.19 C191.38,488.19 192.00,486.43 192.00,486.43" fill="none" stroke="rgb(228, 0, 126)" stroke-width="2.37" stroke-opacity="1.00" stroke-linejoin="round"/>
<path d="M193.21,481.33 C193.21,481.33 194.86,485.97 194.86,485.97 C194.86,485.97 194.67,485.86 194.67,485.86" fill="none" stroke="rgb(228, 0, 126)" stroke-width="2.37" stroke-opacity="1.00" stroke-linejoin="round"/>
<path d="M186.23,481.89 C186.23,481.89 184.07,482.31 184.07,482.31 C184.12,482.38 188.97,482.44 191.82,482.02 C192.30,481.95 193.04,481.81 194.05,481.61" fill="none" stroke="rgb(228, 0, 126)" stroke-width="2.37" stroke-opacity="1.00" stroke-linejoin="round"/>
<path d="M192.37,472.67 C191.49,473.72 191.64,474.51 193.93,479.23 C195.99,483.51 195.71,487.97 195.68,488.02 C195.01,487.63 191.81,487.54 187.98,487.88 C186.81,488.00 184.82,488.22 184.00,488.31" fill="none" stroke="rgb(228, 0, 126)" stroke-width="2.37" stroke-opacity="1.00" stroke-linejoin="round"/>
<path d="M201.59,466.53 C201.04,467.09 200.49,467.64 200.47,467.88 C200.42,468.55 201.91,473.45 202.48,478.22 C203.69,488.45 203.97,492.68 204.04,493.44 C204.04,493.44 204.38,493.05 204.38,493.05" fill="none" stroke="rgb(228, 0, 126)" stroke-width="2.37" stroke-opacity="1.00" stroke-linejoin="round"/>
<path d="M184.00,489.15 C183.86,489.15 183.72,489.15 183.58,489.15 C183.44,489.15 183.30,489.15 183.16,489.15 C183.16,489.15 183.95,492.30 183.95,492.30 C183.95,492.30 184.21,492.27 184.21,492.27" fill="none" stroke="rgb(228, 0, 126)" stroke-width="2.37" stroke-opacity="1.00" stroke-linejoin="round"/>
<path d="M10.44,506.88 C9.90,506.16 9.42,505.71 8.98,505.56 C7.80,505.13 5.41,505.39 5.45,505.68 C7.64,506.11 30.10,506.09 31.54,505.99 C57.16,504.11 73.79,503.41 86.78,501.48 C90.32,500.96 128.28,496.56 143.14,494.76 C156.60,493.27 215.95,491.47 226.68,490.72 C236.49,490.04 261.39,490.94 282.78,491.22 C302.59,491.86 315.37,491.01 367.64,488.53 C385.73,487.93 411.10,488.14 426.09,488.33 C439.60,488.48 464.39,490.89 480.58,490.64 C487.37,490.40 501.72,489.92 508.41,491.21 C510.13,491.55 511.32,491.82 511.99,492.01 C512.52,492.16 513.45,492.48 514.78,492.96" fill="none" stroke="rgb(0, 153, 67)" stroke-width="2.37" stroke-opacity="1.00" stroke-linejoin="round"/>
<path d="M519.81,556.39 C519.81,556.39 519.65,555.70 519.65,555.70 C509.94,554.06 477.54,551.50 462.76,549.76 C449.29,548.10 422.83,547.03 409.57,546.67 C393.51,546.04 366.87,544.81 348.99,543.33 C334.27,542.09 306.49,541.56 295.59,540.89 C280.06,539.86 249.75,540.87 235.63,540.93 C221.25,540.93 178.11,541.30 177.99,541.30 C152.20,541.09 126.56,542.05 117.52,542.41 C98.72,543.07 75.88,544.51 61.53,545.36 C42.32,546.52 24.64,548.29 10.37,548.27 C10.37,548.27 11.22,548.65 11.22,548.65" fill="none" stroke="rgb(0, 153, 67)" stroke-width="2.37" stroke-opacity="1.00" stroke-linejoin="round"/>
<path d="M282.33,400.91 C278.91,405.59 268.39,416.84 266.75,418.49 C265.27,420.00 261.95,425.32 260.43,426.78 C259.87,427.31 259.32,427.84 258.76,428.37 C270.75,427.85 335.73,425.46 338.14,425.30 C345.73,424.78 369.87,421.64 371.11,421.42 C371.19,420.59 341.17,399.41 341.14,399.38 C339.47,398.22 337.73,397.55 335.99,397.58 C321.42,398.03 289.67,399.20 284.34,399.76 C283.92,399.80 283.25,399.93 282.33,400.14" fill="none" stroke="rgb(255, 0, 255)" stroke-width="2.37" stroke-opacity="1.00" stroke-linejoin="round"/>
<path d="M278.47,432.63 C278.47,432.63 277.40,432.43 277.40,432.43 C277.40,432.43 276.92,431.24 276.92,431.24 C277.93,430.95 278.51,431.27 278.80,432.74 C279.36,435.61 281.24,457.22 282.15,461.26 C282.82,464.22 286.61,485.81 286.93,486.89 C286.93,486.89 288.91,487.16 288.91,487.16" fill="none" stroke="rgb(255, 0, 255)" stroke-width="2.37" stroke-opacity="1.00" stroke-linejoin="round"/>
<path d="M334.55,432.24 C334.88,431.38 335.01,430.70 334.93,429.79 C334.92,429.62 334.87,429.08 334.79,428.17 C334.04,428.58 333.89,429.06 334.38,430.66 C335.29,433.68 340.46,455.54 340.93,458.56 C341.44,461.18 348.20,489.17 348.40,490.43 C348.40,490.43 348.86,489.48 348.86,489.48" fill="none" stroke="rgb(255, 0, 255)" stroke-width="2.37" stroke-opacity="1.00" stroke-linejoin="round"/>
<path d="M303.99,441.13 C303.99,441.13 303.99,440.94 303.99,440.94 C303.65,440.67 303.31,440.38 303.21,440.36 C300.30,439.88 292.82,440.84 291.26,441.69 C290.74,442.99 291.28,448.21 292.27,452.27 C293.57,457.54 298.31,466.22 299.43,466.79 C301.60,467.74 314.85,465.71 316.81,464.97 C316.45,463.56 309.47,449.29 306.50,442.03 C306.22,441.33 305.93,440.62 305.64,439.92 C305.64,439.92 305.54,439.97 305.54,439.97" fill="none" stroke="rgb(255, 0, 255)" stroke-width="2.37" stroke-opacity="1.00" stroke-linejoin="round"/>
<path d="M291.62,453.51 C291.62,453.51 290.84,453.51 290.84,453.51 C290.79,453.13 291.07,452.25 291.58,451.90 C291.77,451.78 304.80,450.25 309.15,449.62 C309.15,449.62 307.06,449.63 307.06,449.63" fill="none" stroke="rgb(255, 0, 255)" stroke-width="2.37" stroke-opacity="1.00" stroke-linejoin="round"/>
<path d="M297.42,436.11 C297.42,436.11 297.03,434.61 297.03,434.61 C297.18,435.18 300.63,450.37 303.19,457.38 C304.46,460.84 306.62,465.42 307.65,467.33 C307.65,467.33 308.63,466.27 308.63,466.27" fill="none" stroke="rgb(255, 0, 255)" stroke-width="2.37" stroke-opacity="1.00" stroke-linejoin="round"/>
<path d="M319.08,446.94 C318.49,446.97 318.11,446.97 317.92,446.94 C317.73,446.90 317.47,446.77 317.14,446.55 C317.87,446.97 319.78,458.62 320.61,461.35 C320.93,462.39 327.92,485.30 328.37,486.44 C328.62,487.07 328.88,487.69 329.13,488.32" fill="none" stroke="rgb(255, 0, 255)" stroke-width="2.37" stroke-opacity="1.00" stroke-linejoin="round"/>
<path d="M319.08,444.62 C319.08,444.62 320.10,442.73 320.10,442.73 C320.77,442.65 328.77,443.55 330.35,444.00 C332.05,444.50 332.53,446.18 332.64,448.24 C332.79,450.57 333.62,457.52 334.05,460.99 C334.56,464.79 335.37,467.42 337.60,472.36 C339.20,475.82 342.69,482.36 344.19,485.16 C344.34,485.44 344.48,485.72 344.60,486.00" fill="none" stroke="rgb(255, 0, 255)" stroke-width="2.37" stroke-opacity="1.00" stroke-linejoin="round"/>
<path d="M409.58,386.60 C409.58,386.41 409.58,386.21 409.58,386.02 C409.58,385.58 409.58,385.14 409.58,384.70 C409.58,384.70 400.30,394.72 400.30,394.72 C400.75,395.06 474.87,396.24 478.30,396.62 C480.85,396.91 505.99,400.95 507.02,400.80 C507.02,400.80 495.92,387.35 495.92,387.35 C495.57,387.22 458.22,385.52 445.77,384.67 C425.84,383.15 410.02,383.03 407.90,383.48 C407.45,383.58 406.59,383.85 405.32,384.28" fill="none" stroke="rgb(255, 0, 255)" stroke-width="2.37" stroke-opacity="1.00" stroke-linejoin="round"/>
<path d="M413.45,397.82 C413.25,397.56 413.06,397.30 412.87,397.04 C412.78,396.93 412.68,396.80 412.56,396.66 C412.29,403.24 411.64,418.28 411.47,420.04 C411.26,422.22 410.42,435.51 411.07,444.41 C411.59,452.03 410.80,478.99 410.91,479.85 C410.97,480.31 411.17,481.46 411.51,483.29" fill="none" stroke="rgb(255, 0, 255)" stroke-width="2.37" stroke-opacity="1.00" stroke-linejoin="round"/>
<path d="M483.06,401.69 C483.06,401.69 484.22,398.24 484.22,398.24 C484.24,399.20 478.42,421.96 478.21,422.69 C476.29,429.12 469.66,444.07 468.15,448.68 C466.87,452.69 463.82,466.86 463.35,472.82 C462.82,480.18 462.21,488.38 462.09,489.41 C461.99,490.21 461.89,491.00 461.79,491.80" fill="none" stroke="rgb(255, 0, 255)" stroke-width="2.37" stroke-opacity="1.00" stroke-linejoin="round"/>
<path d="M475.71,465.11 C474.47,465.13 473.72,465.13 473.48,465.11 C473.04,465.09 467.75,463.37 462.87,463.01 C460.44,462.84 454.45,462.82 451.39,462.51 C441.58,461.43 432.61,459.94 422.35,457.55 C416.81,456.13 413.07,454.79 412.05,454.20 C411.58,453.93 411.02,453.44 410.35,452.74" fill="none" stroke="rgb(255, 0, 255)" stroke-width="2.37" stroke-opacity="1.00" stroke-linejoin="round"/>
<path d="M478.42,427.98 C478.28,428.02 478.15,428.02 478.04,427.98 C477.75,427.91 475.24,426.95 474.65,426.86 C473.74,426.72 453.92,424.90 449.44,424.00 C444.92,423.10 427.13,422.14 421.09,420.51 C419.80,420.13 416.55,419.03 415.81,418.50 C415.38,418.18 414.72,417.48 413.83,416.38" fill="none" stroke="rgb(255, 0, 255)" stroke-width="2.37" stroke-opacity="1.00" stroke-linejoin="round"/>
<path d="M429.69,407.49 C429.69,407.49 428.53,406.71 428.53,406.71 C428.53,406.71 427.04,415.00 427.04,415.00 C427.04,415.00 441.87,410.32 441.87,410.32 C441.84,409.59 440.94,407.13 440.13,406.33 C439.44,405.67 436.82,405.34 435.29,405.42 C433.70,405.56 430.71,405.82 429.30,405.94" fill="none" stroke="rgb(255, 0, 255)" stroke-width="2.37" stroke-opacity="1.00" stroke-linejoin="round"/>
<path d="M455.60,405.94 C455.07,405.63 454.75,405.44 454.64,405.36 C454.52,405.28 454.46,405.22 454.44,405.17 C455.58,405.46 456.26,407.06 457.16,410.54 C457.49,411.90 458.05,414.38 458.19,414.90 C458.84,417.17 459.86,419.17 460.84,419.42 C461.98,419.67 470.74,418.09 472.24,417.11 C472.89,415.70 472.35,410.30 471.95,409.14 C471.49,407.95 470.31,406.95 468.91,406.66 C468.17,406.52 467.17,406.40 465.90,406.30 C465.02,406.24 460.73,406.01 459.47,405.94" fill="none" stroke="rgb(255, 0, 255)" stroke-width="2.37" stroke-opacity="1.00" stroke-linejoin="round"/>
<path d="M429.69,431.85 C429.69,431.85 428.53,432.42 428.53,432.42 C428.53,432.42 429.28,431.89 429.28,431.89 C429.28,431.89 417.84,431.90 417.84,431.90 C417.12,432.48 416.53,436.35 416.18,440.60 C415.84,445.01 415.76,449.32 416.07,449.71 C416.07,449.71 431.77,447.32 431.77,447.32 C431.12,439.35 430.27,433.17 430.14,432.43 C430.11,432.26 430.09,432.20 430.08,432.24" fill="none" stroke="rgb(255, 0, 255)" stroke-width="2.37" stroke-opacity="1.00" stroke-linejoin="round"/>
<path d="M454.83,438.04 C454.87,437.75 454.87,437.52 454.83,437.33 C454.79,437.15 454.66,436.76 454.44,436.16 C455.11,436.88 455.32,437.90 455.19,440.62 C454.68,452.12 454.86,456.99 454.90,457.69 C455.05,457.72 457.07,455.97 460.74,454.99 C464.70,453.96 467.91,453.44 467.95,453.39 C467.95,453.39 464.89,436.20 464.89,436.20 C464.89,436.20 455.04,435.73 455.04,435.73 C455.04,435.73 455.85,435.39 455.85,435.39" fill="none" stroke="rgb(255, 0, 255)" stroke-width="2.37" stroke-opacity="1.00" stroke-linejoin="round"/>
<path d="M455.22,472.85 C455.22,472.85 457.15,469.75 457.15,469.75 C457.15,469.75 447.54,471.69 447.54,471.69 C447.54,471.69 449.44,485.76 449.44,485.76 C449.44,485.76 462.64,482.15 462.64,482.15 C462.64,482.15 459.47,469.58 459.47,469.58 C459.47,469.58 459.47,470.92 459.47,470.92" fill="none" stroke="rgb(255, 0, 255)" stroke-width="2.37" stroke-opacity="1.00" stroke-linejoin="round"/>
<path d="M441.68,484.45 C441.68,484.45 441.68,484.65 441.68,484.65 C441.68,484.65 441.29,485.14 441.29,485.14 C441.29,485.14 445.55,470.05 445.55,470.05 C445.50,469.25 444.71,467.64 440.54,466.49 C438.05,465.82 436.15,466.02 435.29,466.37 C434.51,468.73 434.55,473.94 434.72,476.84 C435.00,480.99 435.75,488.94 436.03,489.91 C436.12,490.23 436.33,490.61 436.65,491.03" fill="none" stroke="rgb(255, 0, 255)" stroke-width="2.37" stroke-opacity="1.00" stroke-linejoin="round"/>
<path d="M429.69,467.43 C429.69,467.43 426.84,468.59 426.84,468.59 C426.53,468.42 424.44,466.25 422.45,465.77 C421.36,465.54 418.75,465.63 418.04,466.03 C417.24,466.54 416.78,468.40 416.56,471.31 C416.48,472.63 416.28,476.12 416.31,477.93 C416.31,477.93 417.29,478.83 417.29,478.83 C417.29,478.83 434.54,478.04 434.54,478.04 C434.07,477.25 431.03,472.00 429.07,467.65 C428.87,467.21 428.56,466.49 428.14,465.50" fill="none" stroke="rgb(255, 0, 255)" stroke-width="2.37" stroke-opacity="1.00" stroke-linejoin="round"/>
<path d="M290.84,198.64 C290.37,198.57 290.01,198.64 289.77,198.84 C289.10,199.45 284.17,208.41 283.17,210.78 C282.37,212.67 276.03,230.30 273.69,236.07 C270.66,243.33 268.23,251.55 267.55,256.97 C267.23,259.59 266.24,275.65 266.35,281.76 C266.55,290.63 268.75,301.72 271.15,307.97 C271.86,309.82 275.54,318.33 277.11,321.91 C278.43,324.89 280.07,328.62 280.40,329.36" fill="none" stroke="rgb(254, 240, 0)" stroke-width="2.37" stroke-opacity="1.00" stroke-linejoin="round"/>
<path d="M372.84,191.67 C371.75,192.24 370.73,193.35 370.06,194.88 C369.88,195.31 364.02,213.14 361.88,218.97 C360.57,222.39 352.32,241.89 351.41,244.24 C350.45,246.72 344.30,265.37 341.50,273.50 C338.30,282.65 337.46,286.19 335.16,297.92 C333.22,307.62 331.84,319.14 331.68,324.65 C331.54,330.28 333.49,342.17 335.16,345.85 C335.94,347.58 338.84,353.41 339.58,354.89" fill="none" stroke="rgb(254, 240, 0)" stroke-width="2.37" stroke-opacity="1.00" stroke-linejoin="round"/>
<path d="M423.50,207.53 C423.57,208.73 423.02,210.39 421.20,213.88 C416.21,223.40 411.53,233.87 408.69,240.27 C404.21,250.11 400.07,260.74 398.29,267.35 C396.72,273.24 395.04,283.89 394.32,291.49 C393.59,300.15 393.39,306.40 393.42,318.71 C393.55,329.33 394.27,336.30 395.61,346.76 C396.08,350.36 397.51,357.27 398.31,360.29 C399.35,364.16 401.10,368.09 403.00,371.90" fill="none" stroke="rgb(254, 240, 0)" stroke-width="2.37" stroke-opacity="1.00" stroke-linejoin="round"/>
<path d="M478.42,223.39 C478.42,223.39 478.81,222.04 478.81,222.04 C478.81,222.04 478.49,221.65 478.49,221.65 C478.10,221.65 475.65,223.24 466.49,241.91 C462.64,249.92 458.21,260.44 455.04,269.18 C452.88,275.30 450.00,287.02 449.39,292.75 C447.77,308.00 448.23,331.06 448.61,339.41 C449.22,350.35 449.94,357.26 450.19,359.53" fill="none" stroke="rgb(254, 240, 0)" stroke-width="2.37" stroke-opacity="1.00" stroke-linejoin="round"/>
<path d="M447.87,368.81 C447.87,368.81 447.09,369.20 447.09,369.20 C447.11,369.10 446.71,369.50 445.22,371.13 C423.06,395.17 394.54,421.30 389.09,427.55 C386.56,430.46 380.67,437.97 379.73,439.25 C378.29,441.23 375.15,445.97 374.00,447.71" fill="none" stroke="rgb(254, 240, 0)" stroke-width="2.37" stroke-opacity="1.00" stroke-linejoin="round"/>
<path d="M404.55,335.55 C404.55,335.55 404.68,334.97 404.68,334.97 C404.68,334.97 409.42,332.07 409.42,332.07 C410.38,332.28 404.28,345.26 401.31,349.42 C398.83,352.87 390.57,361.79 383.57,368.11 C377.86,373.16 366.55,382.81 364.82,384.58 C362.91,386.55 351.30,400.07 348.14,405.74 C342.64,415.73 338.94,422.07 335.08,428.45 C328.26,439.86 320.33,457.53 318.69,461.25" fill="none" stroke="rgb(254, 240, 0)" stroke-width="2.37" stroke-opacity="1.00" stroke-linejoin="round"/>
<path d="M347.70,345.22 C346.73,345.37 346.29,345.57 346.15,345.60 C345.99,345.67 336.38,358.77 332.42,363.99 C328.64,368.94 315.26,381.56 314.81,382.00 C310.27,386.61 300.35,396.52 294.97,401.82 C287.37,409.45 277.24,421.65 276.06,422.99 C272.62,426.92 260.42,438.75 257.61,442.06 C255.82,444.17 252.99,447.78 252.25,448.75" fill="none" stroke="rgb(254, 240, 0)" stroke-width="2.37" stroke-opacity="1.00" stroke-linejoin="round"/>
<path d="M253.71,349.09 C253.22,348.58 252.89,348.25 252.75,348.12 C252.60,347.98 252.43,347.85 252.22,347.71 C252.95,352.05 253.13,355.58 252.51,358.50 C251.44,363.30 246.92,373.42 244.94,376.30 C243.88,377.82 233.40,390.09 230.64,394.80 C226.83,401.47 217.96,414.09 217.03,415.52 C213.61,420.75 203.98,439.65 202.91,441.96 C201.84,444.28 198.06,456.75 197.63,458.15" fill="none" stroke="rgb(254, 240, 0)" stroke-width="2.37" stroke-opacity="1.00" stroke-linejoin="round"/>
<path d="M167.47,350.63 C167.47,350.63 166.69,350.83 166.69,350.83 C166.69,357.26 166.38,366.28 165.37,372.68 C164.28,378.77 162.58,388.68 161.42,399.57 C160.83,406.04 159.75,419.00 160.01,423.92 C160.36,430.17 162.71,443.67 164.12,448.64 C164.60,450.35 165.83,454.32 166.31,455.83" fill="none" stroke="rgb(254, 240, 0)" stroke-width="2.37" stroke-opacity="1.00" stroke-linejoin="round"/>
<path d="M195.31,220.29 C194.37,221.66 193.83,223.09 193.77,224.81 C193.83,233.78 192.60,244.07 191.03,255.16 C189.89,264.20 189.16,275.05 189.20,282.42 C189.26,290.38 191.07,303.83 193.12,310.30 C195.20,316.72 200.29,325.96 202.56,329.60" fill="none" stroke="rgb(254, 240, 0)" stroke-width="2.37" stroke-opacity="1.00" stroke-linejoin="round"/>
<path d="M272.67,171.95 C272.67,171.95 271.12,172.65 271.12,172.65 C271.78,174.56 271.83,176.70 270.78,178.84 C269.64,181.12 266.70,185.34 264.72,187.43 C263.12,189.10 232.12,213.53 219.46,223.65 C209.57,231.53 205.48,234.96 197.39,242.50 C192.38,247.19 187.02,254.17 181.70,262.84 C181.08,263.87 180.46,264.90 179.84,265.93" fill="none" stroke="rgb(254, 240, 0)" stroke-width="2.37" stroke-opacity="1.00" stroke-linejoin="round"/>
<path d="M360.85,167.31 C360.85,167.31 360.79,166.24 360.79,166.24 C358.97,167.81 345.64,178.46 341.86,182.03 C338.70,185.03 324.17,200.69 320.68,203.82 C309.92,213.35 293.91,227.81 289.03,232.64 C282.95,238.54 275.90,245.38 274.92,246.32" fill="none" stroke="rgb(254, 240, 0)" stroke-width="2.37" stroke-opacity="1.00" stroke-linejoin="round"/>
<path d="M424.28,179.68 C423.79,179.68 423.31,179.68 422.83,179.68 C422.66,179.68 422.50,179.68 422.34,179.68 C422.61,180.57 422.73,181.76 422.37,182.61 C421.00,185.73 413.52,191.71 405.30,197.65 C398.02,202.89 384.55,212.56 378.36,217.00 C372.78,220.96 360.60,228.70 354.20,232.80 C352.71,233.79 350.27,235.43 349.31,236.07" fill="none" stroke="rgb(254, 240, 0)" stroke-width="2.37" stroke-opacity="1.00" stroke-linejoin="round"/>
<path d="M475.33,195.93 C475.10,196.15 473.55,197.70 473.10,198.07 C464.32,205.34 443.51,215.57 441.03,217.38 C436.29,220.90 427.82,232.79 424.42,238.75 C422.40,242.33 420.26,247.60 420.66,249.72 C420.75,250.16 421.59,253.03 421.82,253.74 C422.45,255.56 423.29,257.98 423.50,258.58" fill="none" stroke="rgb(254, 240, 0)" stroke-width="2.37" stroke-opacity="1.00" stroke-linejoin="round"/>
<path d="M189.13,162.28 C189.13,162.28 186.75,162.86 186.75,162.86 C184.68,167.76 178.59,176.67 173.74,182.74 C167.73,190.27 162.03,198.11 158.83,201.96 C145.80,217.24 130.91,231.85 118.09,245.29 C113.64,249.94 105.63,258.21 102.80,262.04 C100.97,264.57 99.62,267.89 98.40,272.88 C98.12,274.16 97.65,276.30 97.46,277.15" fill="none" stroke="rgb(254, 240, 0)" stroke-width="2.37" stroke-opacity="1.00" stroke-linejoin="round"/>
<path d="M111.77,262.45 C111.77,262.45 110.32,262.06 110.32,262.06 C110.00,262.48 109.98,262.88 110.35,264.12 C111.60,268.34 118.39,297.44 121.15,314.15 C122.13,319.98 124.86,328.70 128.53,338.76 C130.63,344.60 134.24,354.79 135.75,359.14" fill="none" stroke="rgb(254, 240, 0)" stroke-width="2.37" stroke-opacity="1.00" stroke-linejoin="round"/>
<path d="M100.94,173.88 C101.46,175.15 101.84,175.82 102.33,176.01 C102.46,176.06 102.86,176.19 103.52,176.40 C103.33,176.78 95.75,187.63 93.24,192.27 C83.18,209.81 68.45,231.66 62.34,242.41 C56.97,252.15 52.54,260.92 49.16,268.58 C47.90,271.39 45.31,276.95 44.53,278.59" fill="none" stroke="rgb(254, 240, 0)" stroke-width="2.37" stroke-opacity="1.00" stroke-linejoin="round"/>
<path d="M40.61,229.96 C40.50,229.70 40.12,229.14 39.84,229.00 C39.71,228.93 39.45,228.89 39.06,228.85 C39.11,230.07 42.67,242.69 43.97,250.97 C45.82,263.03 47.01,269.73 49.10,277.00 C52.54,288.58 54.32,297.16 54.60,303.53 C54.68,305.53 54.75,315.76 54.78,316.91 C54.89,320.67 57.37,331.26 58.40,335.55" fill="none" stroke="rgb(254, 240, 0)" stroke-width="2.37" stroke-opacity="1.00" stroke-linejoin="round"/>
<path d="M12.38,192.45 C12.38,192.45 12.38,190.64 12.38,190.64" fill="none" stroke="rgb(0, 255, 0)" stroke-width="2.37" stroke-opacity="1.00" stroke-linejoin="round"/>
<path d="M12.76,190.13 C13.82,190.15 26.90,189.64 32.61,188.99 C39.82,188.13 54.36,184.67 62.20,182.71 C68.70,180.94 85.21,176.44 88.57,175.66 C95.98,173.94 102.58,173.11 114.03,172.60 C121.71,172.20 135.97,171.49 141.20,171.65 C147.09,171.85 153.74,172.50 156.68,173.15 C159.89,173.90 163.99,176.68 164.74,178.28 C165.12,179.12 167.14,184.81 167.44,185.49 C167.80,186.30 169.52,188.13 170.30,188.71 C172.38,190.20 177.73,191.31 180.90,191.46 C186.70,191.69 197.42,191.08 208.71,189.91 C215.32,189.14 239.77,184.55 262.08,178.77 C277.44,174.72 309.46,166.34 319.22,164.14 C333.68,161.18 358.70,157.48 374.45,155.96 C378.72,155.64 395.15,155.14 403.00,154.97 C412.16,154.86 420.03,155.78 432.19,157.63 C441.27,159.03 473.73,162.38 487.64,163.77 C491.06,164.04 497.89,164.56 500.41,164.61 C500.80,164.62 501.27,164.62 501.83,164.60" fill="none" stroke="rgb(0, 255, 0)" stroke-width="2.37" stroke-opacity="1.00" stroke-linejoin="round"/>
<path d="M517.10,196.70 C515.19,196.60 511.54,196.98 506.19,197.91 C492.28,200.18 461.78,204.46 451.51,207.30 C444.71,209.32 431.39,213.39 424.88,215.44 C418.79,217.30 406.53,220.28 401.82,220.50 C399.37,220.57 397.13,220.20 396.12,219.37 C394.40,217.88 392.13,212.27 391.54,209.49 C391.03,207.05 389.76,199.46 388.77,197.39 C387.34,194.48 383.45,191.69 381.34,191.15 C377.27,190.16 363.24,190.32 355.32,190.94 C341.53,192.22 322.13,195.02 296.19,200.15 C278.48,203.79 256.54,209.45 244.43,213.48 C237.47,215.89 228.66,218.98 220.14,222.27 C208.20,226.64 201.53,228.46 199.62,227.85 C198.75,227.53 197.72,226.00 197.62,224.94 C197.50,222.92 200.69,214.08 200.78,211.43 C200.80,210.10 198.44,207.65 196.30,206.62 C190.87,204.09 179.11,202.17 172.86,201.90 C170.29,201.79 130.44,200.71 117.02,201.79 C107.79,202.54 51.60,211.17 43.96,212.23 C40.74,212.69 35.39,213.48 33.26,213.82" fill="none" stroke="rgb(0, 255, 0)" stroke-width="2.37" stroke-opacity="1.00" stroke-linejoin="round"/>
<path d="M35.97,270.96 C35.97,270.96 31.33,270.57 31.33,270.57 C36.77,269.04 47.59,263.73 49.63,262.20 C58.07,255.84 65.64,250.89 71.47,247.79 C76.99,244.88 91.06,239.83 96.33,239.29 C98.34,239.10 103.37,239.79 105.69,241.66 C106.53,242.34 109.84,246.35 110.43,246.88 C112.55,248.78 117.38,249.82 119.82,249.82 C125.16,249.78 137.89,247.39 144.43,245.24 C150.21,243.24 162.10,238.87 168.10,236.67 C175.46,234.15 185.73,230.98 194.75,229.32 C199.10,228.55 205.27,227.96 209.24,228.02 C213.09,228.11 219.24,229.25 222.01,230.22 C226.88,231.96 234.86,237.15 239.77,241.59 C242.01,243.63 247.18,249.15 248.85,250.60 C251.93,253.25 257.70,256.33 260.29,257.06 C264.55,258.19 274.22,258.87 279.87,258.46 C285.04,258.06 301.81,254.51 309.01,252.91 C330.75,247.59 356.68,239.31 364.08,237.53 C372.10,235.76 390.30,231.92 394.67,231.58 C400.19,231.18 411.56,231.14 421.64,231.71 C431.96,232.42 452.59,236.27 456.50,236.80 C458.12,237.02 467.77,238.05 471.61,238.47 C473.12,238.64 475.75,238.94 476.87,239.07" fill="none" stroke="rgb(0, 255, 0)" stroke-width="2.37" stroke-opacity="1.00" stroke-linejoin="round"/>
<path d="M466.05,273.28 C466.05,273.28 466.05,272.31 466.05,272.31 C464.73,272.69 452.04,277.73 445.52,279.42 C441.44,280.47 420.93,284.66 415.92,285.03 C412.24,285.29 393.15,285.23 388.21,285.45 C372.95,286.48 342.25,288.22 325.74,288.69 C312.13,288.90 291.03,289.59 269.93,290.54 C261.92,290.78 248.53,289.20 245.79,287.60 C241.66,285.14 235.33,278.75 230.86,273.45 C228.31,270.47 223.04,268.02 220.34,267.44 C214.43,266.23 202.06,266.18 196.35,266.93 C189.70,267.83 181.50,269.93 170.49,273.07 C150.09,279.03 139.48,281.86 133.92,282.65 C131.02,283.03 125.37,282.60 123.98,281.37 C123.35,280.75 123.81,278.33 126.33,274.87 C126.64,274.45 131.86,267.75 132.36,266.11 C132.44,265.78 132.01,264.94 131.80,264.83 C129.63,263.78 114.93,266.59 107.35,268.65 C103.56,269.68 84.87,275.36 81.59,276.12 C75.42,277.53 64.08,276.90 62.99,276.85 C62.01,276.79 58.10,276.77 56.93,276.76" fill="none" stroke="rgb(0, 255, 0)" stroke-width="2.37" stroke-opacity="1.00" stroke-linejoin="round"/>
<path d="M49.12,276.37 C48.08,276.42 45.56,276.22 43.76,276.07 C43.28,276.03 32.78,276.03 31.67,276.10 C28.30,276.36 21.08,278.51 19.53,279.23 C16.98,280.44 13.77,283.16 13.46,284.39 C13.36,284.91 13.58,285.60 14.02,286.23 C14.72,287.10 19.63,287.89 23.70,287.39 C29.78,286.59 45.23,283.37 51.20,282.23 C57.68,280.92 70.67,278.19 76.48,276.17 C96.91,268.68 110.86,264.56 114.39,264.35 C116.86,264.23 121.27,265.05 124.93,267.23 C130.06,270.34 136.42,276.37 138.51,280.01 C139.89,282.53 141.35,289.11 140.65,292.83 C139.97,296.16 131.63,312.77 130.99,315.15 C130.16,318.35 129.65,321.94 129.84,323.55 C130.10,325.44 131.11,328.27 132.10,329.58 C133.87,331.85 139.49,333.66 142.39,334.06 C147.65,334.73 161.21,333.43 167.55,332.06 C174.47,330.55 227.45,315.11 247.31,308.92 C252.23,307.46 264.18,304.84 272.51,303.95 C283.08,302.91 293.09,302.52 298.83,303.25 C301.67,303.62 318.62,307.69 323.98,308.33 C328.34,308.83 337.80,308.63 346.74,307.58 C352.31,306.91 386.71,299.79 400.68,296.94 C408.63,295.12 423.80,290.21 423.84,290.20 C425.80,289.59 431.05,288.11 432.07,287.83" fill="none" stroke="rgb(0, 255, 0)" stroke-width="2.37" stroke-opacity="1.00" stroke-linejoin="round"/>
<path d="M521.74,302.29 C521.74,302.29 519.81,300.98 519.81,300.98 C513.51,301.54 497.27,303.03 492.84,303.85 C489.22,304.53 449.52,317.50 440.47,319.61 C433.94,321.08 422.64,321.84 416.01,321.14 C403.36,319.73 383.75,315.61 359.54,311.81 C346.73,309.68 337.76,308.53 332.11,309.10 C326.68,309.67 317.70,311.86 307.93,314.89 C293.51,319.51 261.02,332.34 253.43,333.89 C247.16,335.14 236.56,335.08 233.15,334.25 C230.97,333.69 228.37,332.57 227.28,331.61 C226.17,330.61 222.55,325.34 221.14,323.74 C219.81,322.31 214.90,321.15 210.01,320.99 C203.62,320.83 192.09,322.20 186.02,323.66 C182.31,324.57 133.10,338.69 131.47,339.08 C127.54,339.99 120.21,341.65 116.82,342.41" fill="none" stroke="rgb(0, 255, 0)" stroke-width="2.37" stroke-opacity="1.00" stroke-linejoin="round"/>
<path d="M120.67,343.67 C119.45,343.34 118.75,343.20 118.31,343.28 C115.58,343.80 104.32,344.19 104.02,344.37 C103.94,344.42 103.76,344.52 103.47,344.67" fill="none" stroke="rgb(0, 255, 0)" stroke-width="2.37" stroke-opacity="1.00" stroke-linejoin="round"/>
<path d="M115.25,379.64 C117.90,378.90 121.85,378.51 125.29,378.37 C134.65,377.97 144.55,376.37 153.04,373.93 C168.32,369.51 187.03,366.68 205.33,364.78 C214.99,363.66 223.82,363.45 227.34,364.48 C229.48,365.15 231.83,366.58 232.61,367.82 C233.22,368.82 235.59,376.99 237.69,379.12 C239.73,381.12 245.26,382.43 249.42,382.95 C255.52,383.57 265.96,383.10 276.45,382.13 C294.92,380.18 312.09,376.99 336.59,371.39 C341.75,370.32 358.02,368.31 365.88,367.76 C372.97,367.36 388.27,366.51 392.10,366.62 C395.83,366.77 408.28,371.01 413.37,371.65 C415.90,371.95 433.93,372.77 441.23,373.08 C448.13,373.26 462.15,372.93 467.63,372.59 C476.76,371.93 489.20,370.17 495.66,368.68 C502.26,367.06 514.29,363.79 516.84,362.85 C516.84,362.85 515.94,363.01 515.94,363.01" fill="none" stroke="rgb(0, 255, 0)" stroke-width="2.37" stroke-opacity="1.00" stroke-linejoin="round"/>
</g>
</svg>
