<?xml version="1.0" encoding="UTF-8" standalone="no"?>
<!DOCTYPE svg PUBLIC "-//W3C//DTD SVG 1.1//EN" "http://www.w3.org/Graphics/SVG/1.1/DTD/svg11.dtd">
<svg width="128.40" height="181.68" viewBox="0.00 0.00 535.00 757.00" xmlns="http://www.w3.org/2000/svg" xmlns:xlink="http://www.w3.org/1999/xlink">
<g stroke-linecap="round" id="106">
<path d="M87.95,167.58 C87.95,167.58 87.38,167.80 87.38,167.80 C87.38,167.80 87.34,167.73 87.34,167.73 C88.39,166.65 89.07,165.60 88.52,163.72 C87.66,161.00 85.71,158.42 84.12,157.91 C81.35,157.11 69.89,158.08 65.02,159.79 C61.24,161.14 55.77,165.33 55.75,165.32 C55.57,165.09 51.56,161.60 49.32,160.18 C46.23,158.27 41.01,156.86 37.79,157.04 C34.91,157.25 30.51,158.69 28.85,159.74 C27.18,160.84 24.19,164.47 23.75,165.47 C21.05,165.37 15.34,165.23 13.98,165.72 C12.64,166.24 9.66,169.58 8.72,171.31 C7.66,173.34 7.06,178.75 7.83,181.20 C8.55,183.41 10.80,186.53 10.89,186.81 C10.83,186.92 7.52,187.40 6.43,188.93 C5.27,190.65 4.48,195.08 5.00,197.01 C5.59,199.00 8.44,202.60 10.60,203.59 C12.70,204.50 17.02,204.61 20.09,204.10 C20.52,204.04 21.38,203.95 22.67,203.83" fill="none" stroke="rgb(255, 0, 0)" stroke-width="2.36" stroke-opacity="1.00" stroke-linejoin="round"/>
<path d="M24.12,205.42 C24.12,205.42 22.79,205.42 22.79,205.42 C22.65,205.56 26.62,209.67 29.50,210.93 C31.80,211.92 38.07,212.93 40.82,212.55 C43.36,212.17 48.71,209.98 50.90,208.77 C52.42,207.92 57.77,204.07 58.37,203.92 C58.64,203.88 61.53,205.37 63.86,206.06 C66.82,206.91 74.01,207.29 77.00,207.22 C81.88,207.04 88.00,202.28 90.83,199.90 C91.23,200.21 93.84,200.36 96.40,199.72 C98.29,199.22 101.23,197.78 102.50,196.69 C103.49,195.79 104.78,193.64 105.04,192.56 C105.49,190.32 104.15,186.66 102.61,185.29 C102.06,184.81 101.24,184.32 100.57,184.00 C103.48,182.44 107.10,179.22 107.65,177.80 C108.10,176.44 107.14,174.29 105.29,172.57 C103.24,170.71 99.20,168.77 96.56,168.45 C95.39,168.32 92.15,168.47 90.97,168.68 C90.56,168.76 90.01,168.92 89.32,169.17" fill="none" stroke="rgb(255, 0, 0)" stroke-width="2.36" stroke-opacity="1.00" stroke-linejoin="round"/>
<path d="M107.56,174.64 C107.56,174.64 107.10,173.44 107.10,173.44 C107.69,172.66 111.58,170.43 116.34,167.81 C120.25,165.67 123.67,164.21 127.47,163.67 C129.60,163.39 137.13,162.08 140.10,161.80 C142.89,161.56 149.28,161.62 151.84,162.08 C152.32,162.17 160.73,163.95 162.65,164.16 C165.21,164.42 171.41,163.96 174.67,163.18 C183.72,160.93 194.28,158.58 200.31,157.23 C204.20,156.43 209.41,156.26 213.77,156.85 C221.77,157.97 232.73,160.35 239.54,163.07 C240.59,163.49 248.63,167.03 250.70,167.47 C253.72,168.09 259.80,168.01 260.71,167.93 C262.91,167.72 278.00,165.45 287.54,164.99 C293.97,164.71 300.62,164.79 303.23,165.21 C306.73,165.79 321.47,171.72 324.45,173.28 C325.83,174.00 333.09,177.59 336.46,178.13 C338.74,178.47 354.94,179.73 363.75,179.56 C370.21,179.36 385.43,178.91 388.75,179.89 C390.15,180.32 392.84,182.31 393.99,183.79 C395.18,185.39 396.71,189.36 396.55,192.04 C396.43,193.55 394.24,197.03 390.92,199.29 C390.30,199.71 381.72,205.17 378.77,207.01 C376.29,208.51 370.96,211.15 367.77,211.95 C364.09,212.86 351.12,214.26 345.87,213.83 C344.26,213.69 335.66,212.98 331.47,213.57 C329.55,213.85 309.76,219.38 308.54,219.86 C299.85,223.45 292.32,225.39 286.87,225.86 C280.68,226.37 270.44,225.45 265.00,223.97 C258.17,222.11 249.60,221.00 239.67,220.64 C235.79,220.53 229.56,221.12 225.62,221.82 C223.64,222.18 214.19,224.20 211.93,224.55 C206.44,225.35 192.49,225.37 189.10,224.85 C185.86,224.34 166.59,219.48 165.26,219.16 C158.28,217.30 146.79,214.41 139.12,213.47 C132.85,212.73 116.36,214.88 111.84,214.81 C108.04,214.72 103.93,214.09 101.40,213.18 C99.36,212.42 93.42,208.97 92.84,208.47 C91.53,207.32 90.15,205.37 89.85,204.29 C89.30,202.06 89.74,198.86 91.03,197.64 C92.92,195.93 104.20,191.14 107.68,189.96 C107.68,189.96 107.37,190.12 107.37,190.12" fill="none" stroke="rgb(255, 0, 0)" stroke-width="2.36" stroke-opacity="1.00" stroke-linejoin="round"/>
<path d="M463.83,149.56 C463.53,149.31 462.91,148.77 462.74,148.72 C458.28,147.50 435.36,150.68 431.12,152.15 C430.80,152.26 413.70,161.05 408.91,162.62 C404.26,164.12 388.71,165.53 381.97,166.99 C378.16,167.84 369.72,169.75 367.74,170.79 C366.86,171.27 363.05,174.32 362.30,174.99 C361.01,176.17 361.40,178.64 361.43,178.63 C361.43,178.63 362.08,179.03 362.08,179.03" fill="none" stroke="rgb(255, 0, 0)" stroke-width="2.36" stroke-opacity="1.00" stroke-linejoin="round"/>
<path d="M522.97,178.29 C522.97,178.29 522.97,178.43 522.97,178.43 C522.97,178.43 523.11,178.57 523.11,178.57 C523.11,178.57 523.25,178.57 523.25,178.57 C523.00,178.58 511.81,175.65 504.26,174.67 C500.00,174.16 491.65,173.19 487.67,173.11 C482.66,173.04 466.76,176.59 459.72,178.26 C454.04,179.45 434.97,178.85 430.65,177.99 C425.99,176.98 422.63,176.43 420.25,176.23 C417.89,176.05 411.14,176.65 407.39,177.57 C403.88,178.45 398.69,180.50 395.74,182.01 C392.98,183.48 391.33,185.11 388.95,188.29 C388.56,188.81 388.18,189.32 387.80,189.83 C387.80,189.83 387.91,190.00 387.91,190.00" fill="none" stroke="rgb(255, 0, 0)" stroke-width="2.36" stroke-opacity="1.00" stroke-linejoin="round"/>
<path d="M385.45,201.45 C385.45,201.45 384.05,200.61 384.05,200.61 C384.22,201.05 384.80,204.32 385.36,205.10 C386.26,206.32 391.68,210.13 395.31,211.84 C399.49,213.76 404.99,215.63 409.35,216.31 C410.06,216.41 429.27,218.81 434.90,218.55 C438.61,218.39 443.15,218.75 445.64,219.46 C452.73,221.62 458.33,222.60 469.46,224.13 C476.55,225.08 490.82,226.90 495.85,226.98 C504.87,227.06 511.69,225.56 512.91,225.12 C513.37,224.96 514.21,224.59 515.44,224.04" fill="none" stroke="rgb(255, 0, 0)" stroke-width="2.36" stroke-opacity="1.00" stroke-linejoin="round"/>
<path d="M389.35,188.06 C389.35,188.06 388.82,188.16 388.82,188.16 C387.87,191.07 385.84,195.04 385.66,195.73 C385.51,196.33 385.40,198.19 385.45,199.14 C385.47,199.51 385.53,200.18 385.64,201.16" fill="none" stroke="rgb(255, 0, 0)" stroke-width="2.36" stroke-opacity="1.00" stroke-linejoin="round"/>
<path d="M18.84,212.99 C18.84,212.99 18.42,212.65 18.42,212.65 C18.42,212.65 17.80,212.74 17.80,212.74 C17.18,214.21 15.17,224.33 15.04,225.19 C14.97,225.66 14.86,226.53 14.71,227.80" fill="none" stroke="rgb(255, 255, 0)" stroke-width="2.36" stroke-opacity="1.00" stroke-linejoin="round"/>
<path d="M31.40,209.93 C31.40,209.93 30.72,210.05 30.72,210.05 C30.43,210.48 30.37,210.94 30.39,213.07 C30.39,213.39 30.39,218.07 30.54,218.54 C30.64,218.82 30.93,219.23 31.41,219.75" fill="none" stroke="rgb(255, 255, 0)" stroke-width="2.36" stroke-opacity="1.00" stroke-linejoin="round"/>
<path d="M37.51,217.40 C37.51,217.40 37.51,217.06 37.51,217.06 C37.49,218.70 37.49,219.78 37.51,220.31 C37.54,220.84 37.62,221.54 37.75,222.44" fill="none" stroke="rgb(255, 255, 0)" stroke-width="2.36" stroke-opacity="1.00" stroke-linejoin="round"/>
<path d="M27.33,234.03 C27.37,234.57 27.06,238.17 27.01,243.17 C27.00,246.47 26.98,254.79 27.01,255.12 C27.04,255.36 27.11,255.67 27.24,256.06" fill="none" stroke="rgb(255, 255, 0)" stroke-width="2.36" stroke-opacity="1.00" stroke-linejoin="round"/>
<path d="M14.09,234.03 C12.81,234.31 12.23,235.63 11.46,240.65 C10.58,246.52 9.77,253.27 9.68,255.66 C9.67,256.01 9.67,256.57 9.68,257.33" fill="none" stroke="rgb(255, 255, 0)" stroke-width="2.36" stroke-opacity="1.00" stroke-linejoin="round"/>
<path d="M12.40,264.24 C12.40,264.24 11.21,264.34 11.21,264.34 C10.95,265.02 11.73,270.91 12.12,273.83 C12.38,275.75 12.62,278.05 12.78,279.69 C12.87,280.54 12.96,281.39 13.05,282.24" fill="none" stroke="rgb(255, 255, 0)" stroke-width="2.36" stroke-opacity="1.00" stroke-linejoin="round"/>
<path d="M13.75,294.79 C13.75,294.79 13.07,294.79 13.07,294.79 C13.07,294.73 13.08,296.16 13.08,297.35 C13.08,299.13 13.08,302.40 13.07,303.89 C13.05,306.38 12.90,309.42 12.85,310.44" fill="none" stroke="rgb(255, 255, 0)" stroke-width="2.36" stroke-opacity="1.00" stroke-linejoin="round"/>
<path d="M14.09,324.66 C14.09,324.66 12.79,322.72 12.79,322.72 C12.76,325.61 12.71,332.27 12.82,336.30 C12.88,338.24 12.99,341.42 13.03,342.67" fill="none" stroke="rgb(255, 255, 0)" stroke-width="2.36" stroke-opacity="1.00" stroke-linejoin="round"/>
<path d="M18.84,349.78 C18.54,350.00 17.88,350.39 17.83,350.88 C17.81,351.01 17.83,355.00 17.81,355.88 C17.88,358.73 18.92,371.03 19.02,372.23" fill="none" stroke="rgb(255, 255, 0)" stroke-width="2.36" stroke-opacity="1.00" stroke-linejoin="round"/>
<path d="M23.60,389.49 C23.60,389.49 22.24,390.00 22.24,390.00 C22.26,392.46 23.90,401.99 24.15,403.45 C24.35,404.74 24.55,406.03 24.76,407.32" fill="none" stroke="rgb(255, 255, 0)" stroke-width="2.36" stroke-opacity="1.00" stroke-linejoin="round"/>
<path d="M25.97,415.63 C25.97,415.63 25.29,415.68 25.29,415.68 C25.54,417.38 25.81,418.53 26.37,420.21 C26.63,421.00 26.90,421.80 27.16,422.59" fill="none" stroke="rgb(255, 255, 0)" stroke-width="2.36" stroke-opacity="1.00" stroke-linejoin="round"/>
<path d="M26.65,431.58 C26.65,431.58 26.65,431.24 26.65,431.24 C26.65,431.24 26.31,430.90 26.31,430.90 C26.33,432.84 26.30,436.06 26.24,438.02 C26.19,439.59 25.79,445.17 25.72,446.16" fill="none" stroke="rgb(255, 255, 0)" stroke-width="2.36" stroke-opacity="1.00" stroke-linejoin="round"/>
<path d="M26.65,454.32 C26.65,454.32 26.31,453.64 26.31,453.64 C26.30,456.37 26.29,464.45 26.31,465.71 C26.36,468.12 26.49,470.94 26.58,472.35" fill="none" stroke="rgb(255, 255, 0)" stroke-width="2.36" stroke-opacity="1.00" stroke-linejoin="round"/>
<path d="M25.29,484.19 C25.28,484.11 25.22,484.05 25.12,484.02 C25.02,483.99 24.74,483.93 24.28,483.85 C23.99,485.62 25.08,491.17 25.71,494.39 C25.94,495.69 26.36,498.04 26.54,499.08" fill="none" stroke="rgb(255, 255, 0)" stroke-width="2.36" stroke-opacity="1.00" stroke-linejoin="round"/>
<path d="M26.65,507.61 C26.65,507.61 25.97,507.61 25.97,507.61 C26.22,510.84 26.70,516.56 26.90,518.05 C26.99,518.72 27.19,519.98 27.51,521.83" fill="none" stroke="rgb(255, 255, 0)" stroke-width="2.36" stroke-opacity="1.00" stroke-linejoin="round"/>
<path d="M26.99,528.99 C26.59,529.62 26.37,530.18 26.31,530.69 C26.21,531.61 26.50,535.14 26.66,536.61 C27.21,540.98 27.70,543.39 28.18,544.91" fill="none" stroke="rgb(255, 255, 0)" stroke-width="2.36" stroke-opacity="1.00" stroke-linejoin="round"/>
<path d="M26.99,553.43 C26.94,553.46 26.89,553.46 26.82,553.43 C26.75,553.40 26.59,553.31 26.31,553.14 C26.53,554.63 26.93,557.22 27.10,558.32 C27.40,560.29 28.16,566.73 28.34,568.31" fill="none" stroke="rgb(255, 255, 0)" stroke-width="2.36" stroke-opacity="1.00" stroke-linejoin="round"/>
<path d="M30.72,581.26 C30.68,583.08 30.68,585.91 30.79,587.15 C30.89,588.40 31.34,590.80 31.66,592.27" fill="none" stroke="rgb(255, 255, 0)" stroke-width="2.36" stroke-opacity="1.00" stroke-linejoin="round"/>
<path d="M58.56,562.60 C57.83,563.38 57.47,565.41 57.84,567.94 C57.99,568.93 59.81,576.14 60.10,577.82 C60.10,577.82 60.25,577.87 60.25,577.87" fill="none" stroke="rgb(255, 255, 0)" stroke-width="2.36" stroke-opacity="1.00" stroke-linejoin="round"/>
<path d="M45.66,500.48 C45.66,500.48 43.28,499.80 43.28,499.80 C45.01,503.32 46.52,516.24 46.16,519.99 C46.12,520.48 45.96,521.62 45.71,523.40" fill="none" stroke="rgb(255, 255, 0)" stroke-width="2.36" stroke-opacity="1.00" stroke-linejoin="round"/>
<path d="M38.87,430.90 C38.87,430.90 38.87,430.05 38.87,430.05 C38.89,429.99 39.01,430.58 39.19,431.70 C40.74,441.43 40.90,460.82 40.91,460.91 C40.94,461.27 41.04,461.73 41.21,462.28" fill="none" stroke="rgb(255, 255, 0)" stroke-width="2.36" stroke-opacity="1.00" stroke-linejoin="round"/>
<path d="M36.49,374.22 C36.49,374.22 35.31,374.39 35.31,374.39 C35.08,374.92 35.26,380.99 35.34,383.42 C35.39,386.92 35.44,396.89 35.48,397.46 C35.51,397.91 35.60,398.76 35.75,400.01" fill="none" stroke="rgb(255, 255, 0)" stroke-width="2.36" stroke-opacity="1.00" stroke-linejoin="round"/>
<path d="M31.40,347.06 C31.51,347.39 31.81,348.23 31.87,348.51 C32.23,350.26 33.05,360.25 33.16,360.97 C33.23,361.51 33.43,362.51 33.75,363.96" fill="none" stroke="rgb(255, 255, 0)" stroke-width="2.36" stroke-opacity="1.00" stroke-linejoin="round"/>
<path d="M34.12,308.71 C34.12,308.70 34.12,308.72 34.12,308.73 C34.52,314.94 35.39,325.04 35.72,328.29 C35.72,328.29 36.46,328.80 36.46,328.80" fill="none" stroke="rgb(255, 255, 0)" stroke-width="2.36" stroke-opacity="1.00" stroke-linejoin="round"/>
<path d="M25.29,275.78 C25.10,275.23 24.99,274.86 24.95,274.67 C24.92,274.47 24.92,274.18 24.95,273.79 C25.50,278.08 25.66,288.66 25.74,289.52 C25.80,290.10 25.98,291.13 26.26,292.61" fill="none" stroke="rgb(255, 255, 0)" stroke-width="2.36" stroke-opacity="1.00" stroke-linejoin="round"/>
<path d="M44.64,264.92 C44.64,264.92 43.45,264.50 43.45,264.50 C43.23,265.64 42.81,273.11 42.56,277.45 C42.40,279.84 42.07,282.87 41.79,284.38 C41.71,284.79 41.58,285.28 41.41,285.84" fill="none" stroke="rgb(255, 255, 0)" stroke-width="2.36" stroke-opacity="1.00" stroke-linejoin="round"/>
<path d="M40.23,237.09 C40.16,237.40 40.10,237.62 40.06,237.77 C39.83,238.64 39.24,245.94 39.21,246.62 C39.19,247.08 39.19,247.63 39.21,248.26" fill="none" stroke="rgb(255, 255, 0)" stroke-width="2.36" stroke-opacity="1.00" stroke-linejoin="round"/>
<path d="M45.32,297.51 C45.32,297.51 44.81,297.51 44.81,297.51 C44.54,297.76 44.34,298.70 44.30,300.46 C44.28,301.24 44.31,307.39 44.33,308.08 C44.35,308.59 44.41,309.36 44.51,310.37" fill="none" stroke="rgb(255, 255, 0)" stroke-width="2.36" stroke-opacity="1.00" stroke-linejoin="round"/>
<path d="M49.05,312.44 C48.76,313.00 48.68,313.94 48.71,316.70 C48.71,319.70 48.71,326.50 48.72,330.29 C48.73,333.94 48.89,337.22 48.98,338.11" fill="none" stroke="rgb(255, 255, 0)" stroke-width="2.36" stroke-opacity="1.00" stroke-linejoin="round"/>
<path d="M39.55,341.63 C39.55,341.63 38.70,341.63 38.70,341.63 C38.70,341.63 38.53,341.88 38.53,341.88 C38.66,343.77 39.25,347.24 39.85,350.28 C40.42,353.20 41.22,357.31 41.43,358.49" fill="none" stroke="rgb(255, 255, 0)" stroke-width="2.36" stroke-opacity="1.00" stroke-linejoin="round"/>
<path d="M43.96,368.11 C43.68,368.57 43.51,368.93 43.45,369.18 C42.91,371.53 43.41,380.45 43.82,384.64 C43.82,384.64 44.74,384.78 44.74,384.78" fill="none" stroke="rgb(255, 255, 0)" stroke-width="2.36" stroke-opacity="1.00" stroke-linejoin="round"/>
<path d="M51.43,363.01 C50.64,364.94 50.28,368.75 50.57,373.34 C50.83,376.91 51.08,379.39 51.25,380.34 C51.48,381.57 51.71,382.80 51.93,384.03" fill="none" stroke="rgb(255, 255, 0)" stroke-width="2.36" stroke-opacity="1.00" stroke-linejoin="round"/>
<path d="M47.70,399.33 C47.70,399.33 47.19,398.65 47.19,398.65 C47.19,398.65 47.02,398.72 47.02,398.72 C47.03,402.01 47.09,407.73 47.26,410.82 C47.55,415.26 47.78,416.71 48.20,418.62" fill="none" stroke="rgb(255, 255, 0)" stroke-width="2.36" stroke-opacity="1.00" stroke-linejoin="round"/>
<path d="M54.14,400.35 C53.95,400.49 53.84,400.76 53.81,401.14 C53.75,401.92 53.90,406.41 53.97,407.91 C54.31,414.78 54.71,422.56 54.77,423.48" fill="none" stroke="rgb(255, 255, 0)" stroke-width="2.36" stroke-opacity="1.00" stroke-linejoin="round"/>
<path d="M48.37,429.20 C48.37,429.20 47.87,429.20 47.87,429.20 C47.65,429.61 47.84,434.81 48.13,437.46 C48.91,444.37 50.26,449.95 50.45,450.74" fill="none" stroke="rgb(255, 255, 0)" stroke-width="2.36" stroke-opacity="1.00" stroke-linejoin="round"/>
<path d="M59.92,436.67 C60.26,439.39 60.60,446.20 60.78,449.94 C60.97,454.49 61.01,454.97 61.16,456.38" fill="none" stroke="rgb(255, 255, 0)" stroke-width="2.36" stroke-opacity="1.00" stroke-linejoin="round"/>
<path d="M50.41,456.70 C49.87,457.16 49.59,458.85 50.07,463.03 C50.17,463.88 50.51,466.19 50.68,467.39 C50.93,468.92 51.38,471.66 51.58,472.87" fill="none" stroke="rgb(255, 255, 0)" stroke-width="2.36" stroke-opacity="1.00" stroke-linejoin="round"/>
<path d="M54.14,481.13 C54.14,481.13 53.64,481.30 53.64,481.30 C53.30,481.60 53.76,488.51 54.38,490.71 C54.51,491.18 54.85,492.12 55.38,493.53" fill="none" stroke="rgb(255, 255, 0)" stroke-width="2.36" stroke-opacity="1.00" stroke-linejoin="round"/>
<path d="M61.61,471.97 C60.59,472.93 60.21,474.49 60.57,476.95 C60.62,477.26 62.57,486.30 62.92,488.41 C63.17,489.89 63.34,490.62 63.90,492.75" fill="none" stroke="rgb(255, 255, 0)" stroke-width="2.36" stroke-opacity="1.00" stroke-linejoin="round"/>
<path d="M55.50,502.52 C55.50,502.52 55.50,502.18 55.50,502.18 C55.41,502.71 56.22,507.06 56.95,509.62 C57.28,510.78 58.40,514.47 58.83,515.88" fill="none" stroke="rgb(255, 255, 0)" stroke-width="2.36" stroke-opacity="1.00" stroke-linejoin="round"/>
<path d="M60.59,521.86 C60.17,522.27 59.89,522.66 59.92,523.11 C60.02,524.54 61.68,528.87 62.21,529.82 C62.42,530.20 62.86,530.89 63.53,531.89" fill="none" stroke="rgb(255, 255, 0)" stroke-width="2.36" stroke-opacity="1.00" stroke-linejoin="round"/>
<path d="M67.72,540.53 C67.72,540.53 66.36,540.53 66.36,540.53 C68.44,543.51 70.98,552.08 71.53,553.98 C71.85,555.04 72.16,556.10 72.47,557.16" fill="none" stroke="rgb(255, 255, 0)" stroke-width="2.36" stroke-opacity="1.00" stroke-linejoin="round"/>
<path d="M67.04,560.90 C67.12,561.93 67.17,562.64 67.21,563.02 C67.29,563.83 68.15,573.44 68.03,575.35 C68.00,575.75 67.90,576.37 67.72,577.19" fill="none" stroke="rgb(255, 255, 0)" stroke-width="2.36" stroke-opacity="1.00" stroke-linejoin="round"/>
<path d="M77.23,483.85 C77.18,483.97 77.30,484.57 77.68,485.89 C77.95,486.84 78.22,487.79 78.49,488.74 C78.63,489.25 78.87,490.14 79.20,491.42" fill="none" stroke="rgb(255, 255, 0)" stroke-width="2.36" stroke-opacity="1.00" stroke-linejoin="round"/>
<path d="M74.51,453.98 C74.51,454.24 74.51,454.51 74.51,454.77 C74.53,456.86 76.00,468.38 76.22,470.15 C76.22,470.15 76.52,468.67 76.52,468.67" fill="none" stroke="rgb(255, 255, 0)" stroke-width="2.36" stroke-opacity="1.00" stroke-linejoin="round"/>
<path d="M67.72,436.33 C67.93,438.06 68.20,439.39 68.74,441.33 C69.10,442.62 69.34,443.43 69.46,443.77 C69.58,444.08 69.77,444.53 70.05,445.11" fill="none" stroke="rgb(255, 255, 0)" stroke-width="2.36" stroke-opacity="1.00" stroke-linejoin="round"/>
<path d="M66.02,418.00 C66.02,418.00 65.69,418.00 65.69,418.00 C65.64,418.03 65.88,420.79 66.15,421.80 C66.30,422.34 66.63,423.09 67.14,424.08" fill="none" stroke="rgb(255, 255, 0)" stroke-width="2.36" stroke-opacity="1.00" stroke-linejoin="round"/>
<path d="M61.61,401.03 C61.56,401.34 62.29,405.06 62.41,405.61 C62.50,405.95 62.65,406.57 62.89,407.45" fill="none" stroke="rgb(255, 255, 0)" stroke-width="2.36" stroke-opacity="1.00" stroke-linejoin="round"/>
<path d="M58.22,377.27 C58.22,377.27 58.27,376.79 58.27,376.79 C59.66,383.27 60.57,391.45 60.67,391.66 C60.78,391.86 61.07,392.18 61.57,392.61" fill="none" stroke="rgb(255, 255, 0)" stroke-width="2.36" stroke-opacity="1.00" stroke-linejoin="round"/>
<path d="M51.77,345.03 C52.02,346.18 52.19,347.20 52.35,348.81 C52.62,351.58 53.04,356.18 53.15,356.76 C53.23,357.13 53.42,357.82 53.72,358.83" fill="none" stroke="rgb(255, 255, 0)" stroke-width="2.36" stroke-opacity="1.00" stroke-linejoin="round"/>
<path d="M51.77,277.14 C50.94,278.36 50.67,280.57 50.79,285.67 C50.84,286.90 51.03,290.27 51.09,290.66 C51.12,290.86 51.18,291.04 51.28,291.20" fill="none" stroke="rgb(255, 255, 0)" stroke-width="2.36" stroke-opacity="1.00" stroke-linejoin="round"/>
<path d="M49.39,252.02 C49.39,252.02 48.41,252.40 48.41,252.40 C48.80,255.43 49.65,262.07 49.91,265.15 C50.13,267.72 50.22,268.57 50.60,271.66" fill="none" stroke="rgb(255, 255, 0)" stroke-width="2.36" stroke-opacity="1.00" stroke-linejoin="round"/>
<path d="M45.66,225.55 C45.31,225.52 45.33,226.38 45.78,229.73 C45.87,230.40 46.64,237.41 46.70,237.84 C46.74,238.12 46.80,238.54 46.90,239.11" fill="none" stroke="rgb(255, 255, 0)" stroke-width="2.36" stroke-opacity="1.00" stroke-linejoin="round"/>
<path d="M47.70,211.29 C47.70,211.29 47.36,209.71 47.36,209.71 C47.34,211.39 47.34,212.59 47.36,213.31 C47.38,214.02 47.44,215.25 47.55,217.00" fill="none" stroke="rgb(255, 255, 0)" stroke-width="2.36" stroke-opacity="1.00" stroke-linejoin="round"/>
<path d="M70.78,206.88 C70.78,206.88 69.76,207.15 69.76,207.15 C69.76,207.15 68.79,219.92 68.79,219.92 C68.79,219.92 69.20,219.68 69.20,219.68" fill="none" stroke="rgb(255, 255, 0)" stroke-width="2.36" stroke-opacity="1.00" stroke-linejoin="round"/>
<path d="M69.76,227.25 C69.76,227.25 69.59,227.25 69.59,227.25 C69.59,227.25 69.25,226.91 69.25,226.91 C69.25,226.91 69.08,226.91 69.08,226.91 C69.03,239.04 68.84,244.73 68.85,244.97 C68.87,245.26 68.94,246.03 69.06,247.27" fill="none" stroke="rgb(255, 255, 0)" stroke-width="2.36" stroke-opacity="1.00" stroke-linejoin="round"/>
<path d="M72.13,258.13 C72.13,258.13 71.32,256.14 71.32,256.14 C71.16,256.75 70.24,268.59 69.93,272.33 C69.70,274.71 69.30,278.62 69.13,280.15" fill="none" stroke="rgb(255, 255, 0)" stroke-width="2.36" stroke-opacity="1.00" stroke-linejoin="round"/>
<path d="M70.78,288.68 C70.78,288.68 70.27,288.34 70.27,288.34 C70.27,288.34 70.10,288.41 70.10,288.41 C70.10,294.75 70.02,312.02 70.10,312.64 C70.16,313.12 70.36,314.07 70.69,315.48" fill="none" stroke="rgb(255, 255, 0)" stroke-width="2.36" stroke-opacity="1.00" stroke-linejoin="round"/>
<path d="M75.19,334.50 C74.15,337.70 74.16,341.28 74.42,345.01 C75.07,352.72 75.91,362.48 75.99,363.01 C76.05,363.38 76.20,364.03 76.43,364.97" fill="none" stroke="rgb(255, 255, 0)" stroke-width="2.36" stroke-opacity="1.00" stroke-linejoin="round"/>
<path d="M79.60,383.72 C79.60,383.72 78.24,383.43 78.24,383.43 C78.24,383.43 80.68,405.36 80.68,405.36 C80.68,405.36 80.96,405.10 80.96,405.10" fill="none" stroke="rgb(255, 255, 0)" stroke-width="2.36" stroke-opacity="1.00" stroke-linejoin="round"/>
<path d="M86.39,422.07 C86.39,422.07 84.78,421.73 84.78,421.73 C84.68,421.68 86.54,427.21 87.20,430.90 C88.10,436.14 88.80,452.61 88.77,453.00 C88.74,453.29 88.65,453.69 88.49,454.21" fill="none" stroke="rgb(255, 255, 0)" stroke-width="2.36" stroke-opacity="1.00" stroke-linejoin="round"/>
<path d="M88.77,462.47 C88.77,462.47 88.26,462.64 88.26,462.64 C87.96,463.52 89.18,470.75 89.82,474.36 C90.24,476.77 90.62,477.76 91.31,478.63 C91.31,478.63 91.82,478.08 91.82,478.08" fill="none" stroke="rgb(255, 255, 0)" stroke-width="2.36" stroke-opacity="1.00" stroke-linejoin="round"/>
<path d="M83.34,234.03 C81.94,235.40 81.05,237.91 81.02,240.93 C81.02,244.29 81.69,264.49 81.74,264.67 C81.79,264.87 81.98,265.20 82.29,265.65" fill="none" stroke="rgb(255, 255, 0)" stroke-width="2.36" stroke-opacity="1.00" stroke-linejoin="round"/>
<path d="M80.28,206.54 C80.28,206.54 79.94,205.52 79.94,205.52 C79.93,208.36 79.90,213.23 79.94,214.07 C79.97,214.61 80.05,215.70 80.18,217.35" fill="none" stroke="rgb(255, 255, 0)" stroke-width="2.36" stroke-opacity="1.00" stroke-linejoin="round"/>
<path d="M84.35,273.75 C84.35,273.75 83.17,274.00 83.17,274.00 C82.91,274.72 83.56,281.01 83.86,283.91 C84.51,290.74 84.80,300.31 84.91,300.72 C84.99,301.02 85.26,301.76 85.71,302.94" fill="none" stroke="rgb(255, 255, 0)" stroke-width="2.36" stroke-opacity="1.00" stroke-linejoin="round"/>
<path d="M92.50,327.38 C92.39,327.33 92.28,327.33 92.16,327.38 C92.04,327.42 91.76,327.57 91.31,327.84 C91.25,329.02 93.75,355.67 93.82,356.17 C93.89,356.66 94.08,357.73 94.40,359.38" fill="none" stroke="rgb(255, 255, 0)" stroke-width="2.36" stroke-opacity="1.00" stroke-linejoin="round"/>
<path d="M100.31,379.99 C100.31,379.99 99.02,380.16 99.02,380.16 C99.02,380.16 98.68,380.74 98.68,380.74 C98.95,382.80 101.51,396.66 101.84,403.56 C101.92,405.34 101.99,408.92 102.02,410.56 C102.04,412.55 102.13,413.82 102.34,415.61" fill="none" stroke="rgb(255, 255, 0)" stroke-width="2.36" stroke-opacity="1.00" stroke-linejoin="round"/>
<path d="M107.43,435.31 C107.43,435.31 106.25,434.63 106.25,434.63 C105.98,435.24 106.39,439.52 107.10,442.80 C108.93,451.00 109.66,456.27 109.70,456.54 C109.71,456.60 109.80,456.76 109.81,456.70" fill="none" stroke="rgb(255, 255, 0)" stroke-width="2.36" stroke-opacity="1.00" stroke-linejoin="round"/>
<path d="M103.70,250.67 C103.73,253.91 103.68,257.03 103.50,262.29 C103.20,269.68 102.79,279.59 102.81,281.33 C102.81,281.33 103.54,279.70 103.54,279.70" fill="none" stroke="rgb(255, 255, 0)" stroke-width="2.36" stroke-opacity="1.00" stroke-linejoin="round"/>
<path d="M103.02,226.91 C101.89,228.58 101.33,229.92 101.41,231.21 C101.45,231.77 102.33,238.74 102.34,241.40 C102.34,241.55 102.34,241.70 102.34,241.86" fill="none" stroke="rgb(255, 255, 0)" stroke-width="2.36" stroke-opacity="1.00" stroke-linejoin="round"/>
<path d="M96.23,214.69 C96.23,214.69 96.23,214.35 96.23,214.35 C96.50,214.55 96.67,214.75 96.75,214.94 C97.10,215.83 97.58,219.84 97.81,222.36" fill="none" stroke="rgb(255, 255, 0)" stroke-width="2.36" stroke-opacity="1.00" stroke-linejoin="round"/>
<path d="M106.08,290.38 C106.08,290.38 104.55,290.89 104.55,290.89 C104.31,292.77 106.50,305.29 107.18,312.42 C107.51,316.03 107.96,321.03 108.09,322.41" fill="none" stroke="rgb(255, 255, 0)" stroke-width="2.36" stroke-opacity="1.00" stroke-linejoin="round"/>
<path d="M109.13,342.99 C109.13,342.99 108.62,342.65 108.62,342.65 C108.62,342.65 108.45,342.85 108.45,342.85 C108.92,346.41 110.01,354.83 110.20,356.75 C110.39,359.05 110.67,362.28 110.75,363.21" fill="none" stroke="rgb(255, 255, 0)" stroke-width="2.36" stroke-opacity="1.00" stroke-linejoin="round"/>
<path d="M113.20,378.29 C113.20,378.29 112.19,379.22 112.19,379.22 C112.09,380.23 113.17,384.83 113.53,386.78 C113.73,387.88 114.36,391.88 114.67,393.85 C115.29,397.63 116.23,400.98 116.58,401.99" fill="none" stroke="rgb(255, 255, 0)" stroke-width="2.36" stroke-opacity="1.00" stroke-linejoin="round"/>
<path d="M123.73,415.63 C123.69,418.09 123.79,420.29 124.07,421.99 C124.17,422.60 125.82,430.85 126.46,435.38 C127.03,439.62 128.14,448.09 128.72,449.71 C128.82,449.99 128.97,450.17 129.16,450.25" fill="none" stroke="rgb(255, 255, 0)" stroke-width="2.36" stroke-opacity="1.00" stroke-linejoin="round"/>
<path d="M114.22,236.07 C113.39,236.49 112.43,238.09 112.62,242.70 C112.74,245.24 113.48,249.15 113.90,250.29 C114.09,250.77 114.46,251.49 115.03,252.42" fill="none" stroke="rgb(255, 255, 0)" stroke-width="2.36" stroke-opacity="1.00" stroke-linejoin="round"/>
<path d="M119.31,267.98 C119.31,267.98 117.62,267.69 117.62,267.69 C118.24,271.71 118.80,277.08 119.15,282.62 C119.28,284.82 119.26,286.16 119.31,286.64 C119.35,286.92 119.46,287.60 119.65,288.68" fill="none" stroke="rgb(255, 255, 0)" stroke-width="2.36" stroke-opacity="1.00" stroke-linejoin="round"/>
<path d="M108.45,217.74 C108.45,217.74 107.77,218.15 107.77,218.15 C108.01,220.00 108.43,223.20 108.58,223.97 C109.04,226.42 110.57,232.35 111.28,235.05" fill="none" stroke="rgb(255, 255, 0)" stroke-width="2.36" stroke-opacity="1.00" stroke-linejoin="round"/>
<path d="M121.69,296.49 C121.69,296.49 121.18,296.15 121.18,296.15 C120.87,296.74 121.54,301.44 122.32,306.30 C122.76,309.26 123.59,315.05 123.98,317.87 C124.27,319.96 124.78,323.51 124.99,324.99" fill="none" stroke="rgb(255, 255, 0)" stroke-width="2.36" stroke-opacity="1.00" stroke-linejoin="round"/>
<path d="M125.76,340.27 C125.76,340.27 124.46,340.73 124.46,340.73 C125.11,341.50 126.71,346.56 127.21,350.52 C127.39,352.07 128.37,363.04 128.84,366.03 C128.90,366.46 129.01,367.03 129.15,367.74" fill="none" stroke="rgb(255, 255, 0)" stroke-width="2.36" stroke-opacity="1.00" stroke-linejoin="round"/>
<path d="M132.55,374.22 C132.55,374.22 131.36,374.64 131.36,374.64 C131.28,375.13 132.85,380.13 133.42,382.59 C134.73,388.37 135.57,397.54 135.75,398.32 C135.88,398.86 136.20,399.88 136.73,401.39" fill="none" stroke="rgb(255, 255, 0)" stroke-width="2.36" stroke-opacity="1.00" stroke-linejoin="round"/>
<path d="M139.00,417.66 C138.78,417.21 138.64,416.93 138.58,416.81 C138.51,416.70 138.42,416.59 138.32,416.49 C138.78,419.81 140.12,429.55 140.24,430.55 C140.93,436.58 142.10,443.29 142.29,444.34" fill="none" stroke="rgb(255, 255, 0)" stroke-width="2.36" stroke-opacity="1.00" stroke-linejoin="round"/>
<path d="M144.77,453.98 C144.77,453.98 144.26,453.64 144.26,453.64 C144.26,453.64 143.92,454.04 143.92,454.04 C143.92,454.04 149.55,476.00 149.55,476.00 C149.55,476.00 149.84,475.24 149.84,475.24" fill="none" stroke="rgb(255, 255, 0)" stroke-width="2.36" stroke-opacity="1.00" stroke-linejoin="round"/>
<path d="M136.96,455.00 C136.53,456.96 136.20,459.21 137.05,461.79 C137.24,462.35 138.35,464.81 138.75,465.70" fill="none" stroke="rgb(255, 255, 0)" stroke-width="2.36" stroke-opacity="1.00" stroke-linejoin="round"/>
<path d="M159.71,455.00 C158.83,454.80 158.29,454.68 158.09,454.66 C157.89,454.63 157.75,454.66 157.67,454.74 C159.34,462.93 159.91,467.98 160.07,468.35 C160.24,468.74 160.79,469.70 161.71,471.23" fill="none" stroke="rgb(255, 255, 0)" stroke-width="2.36" stroke-opacity="1.00" stroke-linejoin="round"/>
<path d="M166.49,451.26 C165.79,452.11 165.42,452.84 165.48,453.64 C165.56,454.69 166.93,460.81 167.14,461.81 C167.24,462.34 167.45,463.27 167.76,464.60" fill="none" stroke="rgb(255, 255, 0)" stroke-width="2.36" stroke-opacity="1.00" stroke-linejoin="round"/>
<path d="M167.17,422.41 C167.17,422.41 166.83,421.96 166.83,421.96 C166.83,421.96 166.66,421.99 166.66,421.99 C166.47,423.00 166.23,433.17 166.15,436.57 C166.15,436.78 166.15,437.03 166.15,437.32" fill="none" stroke="rgb(255, 255, 0)" stroke-width="2.36" stroke-opacity="1.00" stroke-linejoin="round"/>
<path d="M162.42,395.60 C162.42,395.60 161.57,396.21 161.57,396.21 C161.57,396.21 161.40,408.71 161.40,408.71 C161.40,408.71 161.65,408.43 161.65,408.43" fill="none" stroke="rgb(255, 255, 0)" stroke-width="2.36" stroke-opacity="1.00" stroke-linejoin="round"/>
<path d="M158.01,346.04 C157.31,347.08 156.29,348.13 156.25,348.21 C155.20,350.47 153.81,356.60 153.32,358.98 C153.00,360.55 152.77,361.55 152.38,363.09" fill="none" stroke="rgb(255, 255, 0)" stroke-width="2.36" stroke-opacity="1.00" stroke-linejoin="round"/>
<path d="M149.52,305.31 C148.87,306.14 148.41,306.79 148.17,307.26 C147.59,308.37 146.43,311.66 145.72,313.95 C145.41,314.99 145.09,316.03 144.78,317.07 C144.48,318.13 144.17,319.20 143.87,320.27" fill="none" stroke="rgb(255, 255, 0)" stroke-width="2.36" stroke-opacity="1.00" stroke-linejoin="round"/>
<path d="M142.39,272.05 C142.43,273.98 141.41,279.11 141.27,279.74 C141.15,280.34 141.02,281.04 140.89,281.83 C140.85,282.10 140.78,282.53 140.70,283.11" fill="none" stroke="rgb(255, 255, 0)" stroke-width="2.36" stroke-opacity="1.00" stroke-linejoin="round"/>
<path d="M139.34,239.46 C139.34,239.46 139.00,238.82 139.00,238.82 C138.99,239.78 138.98,242.40 139.00,243.43 C139.03,244.46 139.17,247.02 139.22,247.96" fill="none" stroke="rgb(255, 255, 0)" stroke-width="2.36" stroke-opacity="1.00" stroke-linejoin="round"/>
<path d="M159.03,222.15 C159.03,222.15 159.03,221.31 159.03,221.31 C159.03,221.31 158.74,221.36 158.74,221.36 C157.97,224.09 157.62,237.45 157.53,243.08 C157.53,243.52 157.56,244.28 157.61,245.37" fill="none" stroke="rgb(255, 255, 0)" stroke-width="2.36" stroke-opacity="1.00" stroke-linejoin="round"/>
<path d="M168.19,239.80 C168.19,239.80 168.59,237.99 168.59,237.99 C169.29,237.98 169.71,242.30 169.73,244.92 C169.73,246.33 169.53,257.75 169.43,259.60 C169.38,260.38 169.27,262.08 169.22,263.02" fill="none" stroke="rgb(255, 255, 0)" stroke-width="2.36" stroke-opacity="1.00" stroke-linejoin="round"/>
<path d="M173.96,275.78 C173.96,275.78 173.79,275.27 173.79,275.27 C173.79,275.27 173.45,275.10 173.45,275.10 C173.19,275.42 173.46,279.42 173.92,282.49 C174.13,283.91 175.05,288.67 175.15,288.93 C175.21,289.09 175.34,289.24 175.52,289.37" fill="none" stroke="rgb(255, 255, 0)" stroke-width="2.36" stroke-opacity="1.00" stroke-linejoin="round"/>
<path d="M161.40,288.68 C161.40,288.68 161.06,286.73 161.06,286.73 C161.48,288.34 164.13,294.60 164.67,296.14 C165.33,298.04 166.67,302.53 166.82,303.46 C166.88,303.85 166.91,304.43 166.89,305.20" fill="none" stroke="rgb(255, 255, 0)" stroke-width="2.36" stroke-opacity="1.00" stroke-linejoin="round"/>
<path d="M153.94,293.77 C154.02,293.77 155.49,301.24 153.10,320.74 C153.10,320.74 153.94,321.27 153.94,321.27" fill="none" stroke="rgb(255, 255, 0)" stroke-width="2.36" stroke-opacity="1.00" stroke-linejoin="round"/>
<path d="M169.55,338.92 C169.66,340.46 169.73,341.19 170.02,343.68 C170.36,346.65 170.91,355.92 171.22,356.39 C171.22,356.39 171.74,355.84 171.74,355.84" fill="none" stroke="rgb(255, 255, 0)" stroke-width="2.36" stroke-opacity="1.00" stroke-linejoin="round"/>
<path d="M177.36,325.00 C176.33,325.35 175.90,325.56 175.83,325.93 C175.53,327.62 177.05,335.79 177.59,339.86 C177.80,341.36 178.17,344.00 178.33,345.14" fill="none" stroke="rgb(255, 255, 0)" stroke-width="2.36" stroke-opacity="1.00" stroke-linejoin="round"/>
<path d="M177.69,368.11 C177.69,368.11 177.02,368.11 177.02,368.11 C177.00,368.41 179.42,373.47 179.91,374.91 C181.51,379.66 182.08,386.97 182.11,390.48 C182.11,391.16 182.11,391.83 182.11,392.51" fill="none" stroke="rgb(255, 255, 0)" stroke-width="2.36" stroke-opacity="1.00" stroke-linejoin="round"/>
<path d="M190.59,364.03 C190.59,364.03 190.25,364.29 190.25,364.29 C190.23,368.53 191.81,385.82 192.13,390.55 C193.01,405.14 192.97,421.76 192.97,422.89 C192.97,423.23 192.97,423.57 192.97,423.91" fill="none" stroke="rgb(255, 255, 0)" stroke-width="2.36" stroke-opacity="1.00" stroke-linejoin="round"/>
<path d="M187.88,452.28 C187.88,452.28 187.71,452.28 187.71,452.28 C187.46,452.99 188.13,460.34 188.44,463.73 C188.64,466.00 188.82,467.49 189.04,468.12 C189.14,468.38 189.40,468.95 189.82,469.84" fill="none" stroke="rgb(255, 255, 0)" stroke-width="2.36" stroke-opacity="1.00" stroke-linejoin="round"/>
<path d="M210.62,462.13 C210.62,462.13 210.11,461.79 210.11,461.79 C210.11,461.79 209.34,462.24 209.34,462.24 C208.73,464.19 206.57,476.05 206.50,476.73 C206.44,477.28 206.34,478.52 206.21,480.45" fill="none" stroke="rgb(255, 255, 0)" stroke-width="2.36" stroke-opacity="1.00" stroke-linejoin="round"/>
<path d="M200.78,485.55 C200.19,486.67 200.00,488.05 200.32,491.35 C200.47,492.74 200.72,495.17 200.84,496.22 C201.14,499.22 201.59,503.73 201.73,505.23" fill="none" stroke="rgb(255, 255, 0)" stroke-width="2.36" stroke-opacity="1.00" stroke-linejoin="round"/>
<path d="M207.56,508.29 C207.56,508.29 207.05,508.29 207.05,508.29 C206.80,508.47 206.48,508.92 206.38,509.50 C206.14,510.86 206.71,516.22 207.33,520.35 C207.62,522.36 208.18,526.11 208.44,527.86" fill="none" stroke="rgb(255, 255, 0)" stroke-width="2.36" stroke-opacity="1.00" stroke-linejoin="round"/>
<path d="M210.62,533.74 C210.21,534.44 209.88,535.87 209.99,537.14 C210.03,537.67 211.80,545.49 212.47,548.55 C212.86,550.47 213.46,553.42 213.67,554.45" fill="none" stroke="rgb(255, 255, 0)" stroke-width="2.36" stroke-opacity="1.00" stroke-linejoin="round"/>
<path d="M215.37,564.29 C215.37,564.29 215.20,564.29 215.20,564.29 C215.20,564.29 214.90,564.63 214.90,564.63 C214.70,566.38 214.69,567.69 214.93,570.02 C215.54,576.12 216.09,583.58 216.02,585.59 C215.94,587.41 215.62,589.43 215.37,590.09" fill="none" stroke="rgb(255, 255, 0)" stroke-width="2.36" stroke-opacity="1.00" stroke-linejoin="round"/>
<path d="M210.62,403.07 C209.72,402.66 209.15,402.40 208.92,402.30 C208.69,402.20 208.46,402.12 208.24,402.05 C208.24,402.05 208.98,445.81 208.98,445.81 C208.98,445.81 209.43,446.05 209.43,446.05" fill="none" stroke="rgb(255, 255, 0)" stroke-width="2.36" stroke-opacity="1.00" stroke-linejoin="round"/>
<path d="M203.15,362.34 C203.15,362.34 203.24,361.49 203.24,361.49 C203.68,362.18 204.95,380.10 205.55,383.53 C205.96,385.82 206.97,388.71 207.27,389.57" fill="none" stroke="rgb(255, 255, 0)" stroke-width="2.36" stroke-opacity="1.00" stroke-linejoin="round"/>
<path d="M198.74,308.03 C198.74,308.03 198.74,307.35 198.74,307.35 C198.76,309.45 198.87,314.97 198.96,318.39 C199.09,323.04 199.31,331.04 199.41,334.39 C199.50,337.12 199.69,338.74 200.03,340.10" fill="none" stroke="rgb(255, 255, 0)" stroke-width="2.36" stroke-opacity="1.00" stroke-linejoin="round"/>
<path d="M193.31,262.55 C193.31,262.55 193.48,262.55 193.48,262.55 C193.48,262.55 193.89,261.87 193.89,261.87 C194.29,264.11 195.48,293.84 196.25,295.84 C196.34,296.07 196.47,296.24 196.63,296.37" fill="none" stroke="rgb(255, 255, 0)" stroke-width="2.36" stroke-opacity="1.00" stroke-linejoin="round"/>
<path d="M188.22,225.89 C188.20,227.54 188.18,228.55 188.17,228.92 C188.14,229.72 185.70,246.69 185.56,250.09 C185.54,250.61 185.52,251.72 185.50,253.43" fill="none" stroke="rgb(255, 255, 0)" stroke-width="2.36" stroke-opacity="1.00" stroke-linejoin="round"/>
<path d="M215.37,224.53 C215.37,224.50 215.31,224.50 215.20,224.53 C215.09,224.56 214.78,224.65 214.27,224.80 C213.09,227.96 212.33,237.68 212.44,239.70 C212.49,240.71 212.78,243.72 212.90,244.85" fill="none" stroke="rgb(255, 255, 0)" stroke-width="2.36" stroke-opacity="1.00" stroke-linejoin="round"/>
<path d="M211.98,251.01 C211.98,251.01 211.98,250.33 211.98,250.33 C211.98,251.39 211.98,253.82 211.98,255.18 C211.98,257.05 211.98,260.73 211.98,262.54 C211.98,265.63 211.98,269.64 211.98,270.55" fill="none" stroke="rgb(255, 255, 0)" stroke-width="2.36" stroke-opacity="1.00" stroke-linejoin="round"/>
<path d="M214.69,282.23 C214.69,282.23 214.69,281.38 214.69,281.38 C214.69,285.06 215.05,301.71 215.03,302.06 C215.01,302.54 214.93,303.52 214.79,305.02" fill="none" stroke="rgb(255, 255, 0)" stroke-width="2.36" stroke-opacity="1.00" stroke-linejoin="round"/>
<path d="M205.19,296.49 C205.19,296.49 205.02,295.64 205.02,295.64 C205.02,295.64 204.85,295.70 204.85,295.70 C204.85,298.87 204.87,306.87 204.95,307.71 C204.99,308.21 205.14,309.33 205.38,311.06" fill="none" stroke="rgb(255, 255, 0)" stroke-width="2.36" stroke-opacity="1.00" stroke-linejoin="round"/>
<path d="M207.56,328.39 C207.56,328.39 207.05,328.56 207.05,328.56 C206.90,328.84 206.86,329.18 206.98,329.96 C207.56,333.76 207.92,337.27 208.07,341.37 C208.22,347.74 208.24,354.10 208.24,354.53" fill="none" stroke="rgb(255, 255, 0)" stroke-width="2.36" stroke-opacity="1.00" stroke-linejoin="round"/>
<path d="M220.46,310.06 C220.46,310.06 219.95,309.84 219.95,309.84 C219.70,310.90 219.94,316.71 220.28,321.48 C220.41,323.16 220.73,326.34 220.90,327.69 C221.07,328.89 221.57,332.00 221.75,333.14" fill="none" stroke="rgb(255, 255, 0)" stroke-width="2.36" stroke-opacity="1.00" stroke-linejoin="round"/>
<path d="M227.59,348.08 C227.59,348.08 227.42,348.08 227.42,348.08 C227.21,349.16 227.32,353.48 227.40,356.32 C227.70,363.94 228.08,373.69 228.13,374.15 C228.18,374.58 228.33,375.45 228.56,376.75" fill="none" stroke="rgb(255, 255, 0)" stroke-width="2.36" stroke-opacity="1.00" stroke-linejoin="round"/>
<path d="M214.35,360.64 C214.35,360.64 212.76,360.64 212.76,360.64 C212.62,360.65 215.62,376.77 216.04,383.32 C216.12,384.82 216.29,388.03 216.25,388.74 C216.23,389.23 216.11,390.35 215.92,392.10" fill="none" stroke="rgb(255, 255, 0)" stroke-width="2.36" stroke-opacity="1.00" stroke-linejoin="round"/>
<path d="M218.09,407.48 C218.09,407.48 217.75,406.52 217.75,406.52 C218.88,410.90 219.75,420.85 220.11,428.21 C220.32,435.74 220.68,450.24 221.14,453.22 C221.14,453.22 221.90,453.72 221.90,453.72" fill="none" stroke="rgb(255, 255, 0)" stroke-width="2.36" stroke-opacity="1.00" stroke-linejoin="round"/>
<path d="M235.74,396.96 C235.74,396.96 234.89,396.79 234.89,396.79 C234.89,396.79 234.76,396.39 234.76,396.39 C236.11,397.80 236.73,401.56 236.96,404.22 C237.25,408.05 237.58,414.87 237.62,416.68 C237.67,420.15 237.35,427.41 237.19,430.65" fill="none" stroke="rgb(255, 255, 0)" stroke-width="2.36" stroke-opacity="1.00" stroke-linejoin="round"/>
<path d="M225.21,469.25 C225.21,469.25 225.21,467.61 225.21,467.61 C225.43,469.90 227.39,484.44 228.06,491.67 C228.83,501.90 228.95,521.29 228.92,521.47 C228.89,521.61 228.80,521.77 228.64,521.94" fill="none" stroke="rgb(255, 255, 0)" stroke-width="2.36" stroke-opacity="1.00" stroke-linejoin="round"/>
<path d="M245.92,449.57 C245.35,449.55 244.17,449.61 243.80,449.74 C243.64,449.79 243.45,449.92 243.25,450.12 C245.75,460.97 247.66,485.88 247.76,486.39 C247.84,486.81 248.06,487.58 248.43,488.71" fill="none" stroke="rgb(255, 255, 0)" stroke-width="2.36" stroke-opacity="1.00" stroke-linejoin="round"/>
<path d="M230.98,531.37 C230.98,531.37 230.14,531.37 230.14,531.37 C229.88,531.49 231.81,536.26 232.46,538.20 C234.28,543.68 237.20,557.06 237.35,557.44 C237.48,557.77 237.73,558.02 238.11,558.18" fill="none" stroke="rgb(255, 255, 0)" stroke-width="2.36" stroke-opacity="1.00" stroke-linejoin="round"/>
<path d="M249.65,539.18 C249.65,539.18 249.31,539.18 249.31,539.18 C248.99,540.77 248.97,544.77 249.28,550.44 C249.41,552.72 249.60,554.40 250.02,557.31 C250.02,557.31 250.67,555.81 250.67,555.81" fill="none" stroke="rgb(255, 255, 0)" stroke-width="2.36" stroke-opacity="1.00" stroke-linejoin="round"/>
<path d="M248.63,504.21 C248.63,504.21 247.45,503.37 247.45,503.37 C247.45,503.37 247.06,503.45 247.06,503.45 C248.12,507.37 249.82,518.94 250.20,522.56 C250.32,523.57 250.82,527.29 251.01,528.65" fill="none" stroke="rgb(255, 255, 0)" stroke-width="2.36" stroke-opacity="1.00" stroke-linejoin="round"/>
<path d="M261.53,496.41 C260.92,497.02 260.84,500.11 260.83,504.70 C260.96,511.59 261.31,520.84 262.15,524.97 C262.15,524.97 263.79,525.92 263.79,525.92" fill="none" stroke="rgb(255, 255, 0)" stroke-width="2.36" stroke-opacity="1.00" stroke-linejoin="round"/>
<path d="M262.89,541.89 C262.89,541.89 262.89,541.72 262.89,541.72 C262.89,541.72 262.72,541.55 262.72,541.55 C262.72,541.55 262.55,541.68 262.55,541.68 C262.71,544.20 264.79,552.22 265.53,554.45 C265.93,555.61 266.38,556.66 267.10,558.13" fill="none" stroke="rgb(255, 255, 0)" stroke-width="2.36" stroke-opacity="1.00" stroke-linejoin="round"/>
<path d="M275.79,552.41 C275.79,552.41 274.60,553.77 274.60,553.77 C274.84,555.67 275.14,556.91 275.84,558.77 C275.91,558.95 279.01,568.98 279.30,569.92 C279.30,569.92 280.14,570.14 280.14,570.14" fill="none" stroke="rgb(255, 255, 0)" stroke-width="2.36" stroke-opacity="1.00" stroke-linejoin="round"/>
<path d="M285.63,503.20 C285.63,503.20 285.12,502.86 285.12,502.86 C284.64,503.94 284.13,509.69 283.81,513.33 C283.41,517.58 282.68,525.40 282.34,528.97 C282.31,529.36 282.27,529.75 282.24,530.14" fill="none" stroke="rgb(255, 255, 0)" stroke-width="2.36" stroke-opacity="1.00" stroke-linejoin="round"/>
<path d="M279.86,477.40 C279.15,477.65 278.01,478.01 277.91,478.06 C277.29,478.40 275.91,482.68 274.46,487.96 C273.55,491.30 272.24,496.87 271.52,501.12" fill="none" stroke="rgb(255, 255, 0)" stroke-width="2.36" stroke-opacity="1.00" stroke-linejoin="round"/>
<path d="M266.96,430.90 C267.00,431.74 266.33,432.94 266.28,433.54 C265.90,440.16 264.55,451.34 263.49,456.14 C263.19,457.48 262.67,459.53 262.36,460.66" fill="none" stroke="rgb(255, 255, 0)" stroke-width="2.36" stroke-opacity="1.00" stroke-linejoin="round"/>
<path d="M257.12,417.66 C257.12,417.66 256.78,417.32 256.78,417.32 C256.83,418.63 256.96,421.93 257.03,423.93 C257.20,427.96 257.62,433.58 257.74,434.96" fill="none" stroke="rgb(255, 255, 0)" stroke-width="2.36" stroke-opacity="1.00" stroke-linejoin="round"/>
<path d="M267.98,375.57 C266.64,376.95 265.99,380.54 265.64,384.70 C265.33,388.44 264.74,395.60 264.47,399.02 C264.24,402.41 263.97,406.60 263.92,407.41" fill="none" stroke="rgb(255, 255, 0)" stroke-width="2.36" stroke-opacity="1.00" stroke-linejoin="round"/>
<path d="M239.81,353.17 C239.81,353.17 239.33,353.17 239.33,353.17 C239.08,353.33 239.20,356.84 239.50,360.80 C240.15,368.23 241.08,378.94 241.36,382.21 C241.53,384.49 241.76,387.65 241.81,388.80" fill="none" stroke="rgb(255, 255, 0)" stroke-width="2.36" stroke-opacity="1.00" stroke-linejoin="round"/>
<path d="M237.09,290.72 C237.09,290.72 235.74,289.70 235.74,289.70 C236.50,297.08 237.50,312.59 237.97,320.94 C238.56,332.18 238.86,335.51 238.99,336.78" fill="none" stroke="rgb(255, 255, 0)" stroke-width="2.36" stroke-opacity="1.00" stroke-linejoin="round"/>
<path d="M233.02,257.45 C233.02,257.45 233.87,256.86 233.87,256.86 C233.87,256.86 234.04,256.34 234.04,256.34 C234.68,263.00 236.43,281.44 236.56,281.95 C236.66,282.37 236.97,283.42 237.48,285.08" fill="none" stroke="rgb(255, 255, 0)" stroke-width="2.36" stroke-opacity="1.00" stroke-linejoin="round"/>
<path d="M230.64,234.37 C230.64,234.37 229.29,234.81 229.29,234.81 C228.97,235.42 228.92,237.17 229.22,239.64 C229.45,241.48 230.27,245.38 230.68,247.14" fill="none" stroke="rgb(255, 255, 0)" stroke-width="2.36" stroke-opacity="1.00" stroke-linejoin="round"/>
<path d="M252.03,227.92 C252.03,227.92 249.82,228.26 249.82,228.26 C249.55,229.19 248.79,231.72 248.29,233.32 C247.36,236.21 246.09,240.09 245.77,241.08" fill="none" stroke="rgb(255, 255, 0)" stroke-width="2.36" stroke-opacity="1.00" stroke-linejoin="round"/>
<path d="M251.69,253.04 C251.69,253.04 251.69,251.85 251.69,251.85 C251.36,253.02 250.64,255.58 250.24,256.99 C249.71,258.93 248.64,262.84 248.15,264.77 C247.53,267.24 246.21,273.11 245.97,274.22" fill="none" stroke="rgb(255, 255, 0)" stroke-width="2.36" stroke-opacity="1.00" stroke-linejoin="round"/>
<path d="M254.40,288.34 C254.40,288.34 253.46,287.45 253.46,287.45 C252.83,290.02 249.52,309.54 249.60,309.77 C249.72,310.14 250.19,310.91 251.01,312.10" fill="none" stroke="rgb(255, 255, 0)" stroke-width="2.36" stroke-opacity="1.00" stroke-linejoin="round"/>
<path d="M258.82,332.47 C258.82,332.47 257.41,332.19 257.41,332.19 C257.41,332.19 254.36,357.41 254.36,357.41 C254.36,357.41 255.42,356.90 255.42,356.90" fill="none" stroke="rgb(255, 255, 0)" stroke-width="2.36" stroke-opacity="1.00" stroke-linejoin="round"/>
<path d="M270.70,293.09 C270.70,293.09 270.87,291.91 270.87,291.91 C270.87,291.91 271.04,292.08 271.04,292.08 C271.07,302.27 270.43,316.87 270.41,317.29 C270.40,317.43 270.38,317.62 270.36,317.87" fill="none" stroke="rgb(255, 255, 0)" stroke-width="2.36" stroke-opacity="1.00" stroke-linejoin="round"/>
<path d="M265.61,268.66 C265.61,268.66 265.27,269.08 265.27,269.08 C265.82,271.60 266.21,276.48 266.22,281.53 C266.21,285.18 265.92,288.70 265.78,289.83" fill="none" stroke="rgb(255, 255, 0)" stroke-width="2.36" stroke-opacity="1.00" stroke-linejoin="round"/>
<path d="M271.04,226.91 C271.04,226.91 271.04,226.23 271.04,226.23 C270.06,229.34 268.75,234.70 268.04,237.63 C267.03,241.91 266.47,247.90 266.28,250.28" fill="none" stroke="rgb(255, 255, 0)" stroke-width="2.36" stroke-opacity="1.00" stroke-linejoin="round"/>
<path d="M279.86,244.56 C279.86,244.56 280.43,240.03 280.43,240.03 C279.92,242.84 279.60,244.80 279.39,246.63 C279.25,247.91 279.00,250.27 278.88,251.36" fill="none" stroke="rgb(255, 255, 0)" stroke-width="2.36" stroke-opacity="1.00" stroke-linejoin="round"/>
<path d="M278.50,274.43 C278.50,274.43 277.82,271.77 277.82,271.77 C277.82,274.78 277.83,281.85 277.88,283.48 C277.91,284.37 278.08,285.66 278.46,288.14" fill="none" stroke="rgb(255, 255, 0)" stroke-width="2.36" stroke-opacity="1.00" stroke-linejoin="round"/>
<path d="M280.88,301.58 C280.88,301.58 279.86,300.90 279.86,300.90 C279.98,303.89 280.20,308.84 280.52,311.52 C280.77,313.50 281.23,317.14 281.44,318.81" fill="none" stroke="rgb(255, 255, 0)" stroke-width="2.36" stroke-opacity="1.00" stroke-linejoin="round"/>
<path d="M286.65,340.61 C286.65,340.61 285.80,341.05 285.80,341.05 C285.57,342.09 285.71,345.68 286.04,349.51 C286.22,351.50 286.62,355.70 286.77,356.94 C287.01,358.84 287.42,361.37 287.67,362.68" fill="none" stroke="rgb(255, 255, 0)" stroke-width="2.36" stroke-opacity="1.00" stroke-linejoin="round"/>
<path d="M273.07,341.63 C273.07,344.04 273.26,345.90 273.84,348.45 C274.64,351.98 276.31,359.24 277.17,362.96 C277.66,364.96 278.25,367.22 278.50,368.11" fill="none" stroke="rgb(255, 255, 0)" stroke-width="2.36" stroke-opacity="1.00" stroke-linejoin="round"/>
<path d="M301.58,376.59 C301.58,376.59 300.57,376.59 300.57,376.59 C300.47,377.29 301.73,383.76 301.98,385.01 C302.68,388.63 303.37,394.80 303.41,397.37 C303.43,398.86 303.25,400.95 302.94,403.41" fill="none" stroke="rgb(255, 255, 0)" stroke-width="2.36" stroke-opacity="1.00" stroke-linejoin="round"/>
<path d="M282.92,385.76 C282.20,386.43 281.89,386.85 281.90,387.36 C282.05,394.52 286.75,415.16 287.83,419.22 C288.66,422.41 290.40,425.36 291.31,426.39" fill="none" stroke="rgb(255, 255, 0)" stroke-width="2.36" stroke-opacity="1.00" stroke-linejoin="round"/>
<path d="M295.14,441.42 C295.14,441.42 293.95,442.86 293.95,442.86 C293.76,444.23 295.13,450.57 295.56,452.99 C295.79,454.27 296.52,458.92 296.88,461.19 C297.39,464.56 297.99,468.62 298.09,469.31" fill="none" stroke="rgb(255, 255, 0)" stroke-width="2.36" stroke-opacity="1.00" stroke-linejoin="round"/>
<path d="M283.93,457.37 C283.93,457.37 283.09,457.98 283.09,457.98 C282.94,458.62 283.07,460.17 283.51,462.04 C283.65,462.64 284.75,466.36 285.26,468.06 C286.27,471.34 287.55,474.18 288.01,475.02" fill="none" stroke="rgb(255, 255, 0)" stroke-width="2.36" stroke-opacity="1.00" stroke-linejoin="round"/>
<path d="M304.64,494.03 C304.39,494.25 304.16,495.44 304.76,497.82 C304.88,498.30 307.46,506.95 308.40,510.18 C308.58,510.74 308.88,511.62 309.30,512.80" fill="none" stroke="rgb(255, 255, 0)" stroke-width="2.36" stroke-opacity="1.00" stroke-linejoin="round"/>
<path d="M296.83,521.86 C296.04,522.27 295.55,522.61 295.42,523.07 C295.29,523.56 291.94,543.49 291.81,544.16 C291.61,545.16 291.17,547.91 291.01,548.94" fill="none" stroke="rgb(255, 255, 0)" stroke-width="2.36" stroke-opacity="1.00" stroke-linejoin="round"/>
<path d="M309.73,521.53 C308.73,522.15 308.19,523.12 307.78,525.26 C306.58,531.53 304.44,542.99 304.28,544.46 C304.09,546.27 303.96,548.91 303.96,550.38" fill="none" stroke="rgb(255, 255, 0)" stroke-width="2.36" stroke-opacity="1.00" stroke-linejoin="round"/>
<path d="M302.26,564.29 C301.71,565.04 301.07,567.34 300.96,570.38 C300.77,575.31 299.98,582.47 299.94,583.11 C299.91,583.57 299.89,584.42 299.89,585.67" fill="none" stroke="rgb(255, 255, 0)" stroke-width="2.36" stroke-opacity="1.00" stroke-linejoin="round"/>
<path d="M323.99,541.21 C323.12,544.03 320.65,552.29 320.35,553.63 C319.30,558.44 319.38,561.27 319.55,563.22 C319.55,563.22 320.79,563.34 320.79,563.34" fill="none" stroke="rgb(255, 255, 0)" stroke-width="2.36" stroke-opacity="1.00" stroke-linejoin="round"/>
<path d="M326.36,466.54 C326.08,466.54 325.80,466.54 325.51,466.54 C325.34,466.54 325.17,466.54 325.00,466.54 C325.85,472.50 327.69,486.42 328.48,494.08 C328.77,497.87 329.24,504.65 329.42,507.64" fill="none" stroke="rgb(255, 255, 0)" stroke-width="2.36" stroke-opacity="1.00" stroke-linejoin="round"/>
<path d="M314.48,443.12 C314.48,443.12 313.80,444.01 313.80,444.01 C314.22,446.61 317.72,467.57 317.82,468.52 C317.95,469.54 318.07,470.55 318.20,471.57" fill="none" stroke="rgb(255, 255, 0)" stroke-width="2.36" stroke-opacity="1.00" stroke-linejoin="round"/>
<path d="M317.20,403.41 C317.20,403.41 315.84,405.10 315.84,405.10 C315.84,405.09 316.27,411.46 316.53,415.36 C317.35,427.14 318.53,435.34 319.31,440.58" fill="none" stroke="rgb(255, 255, 0)" stroke-width="2.36" stroke-opacity="1.00" stroke-linejoin="round"/>
<path d="M328.74,429.54 C328.74,429.54 328.74,427.05 328.74,427.05 C328.77,433.22 328.92,446.10 329.05,452.80 C329.06,453.77 329.07,454.73 329.08,455.70" fill="none" stroke="rgb(255, 255, 0)" stroke-width="2.36" stroke-opacity="1.00" stroke-linejoin="round"/>
<path d="M318.56,355.89 C318.56,355.89 319.49,357.07 319.49,357.07 C319.49,357.07 321.45,354.07 321.45,354.07 C321.02,353.42 319.50,368.60 319.15,376.02 C319.08,377.91 319.10,380.90 319.20,382.56 C319.29,384.09 319.79,385.37 320.80,387.14" fill="none" stroke="rgb(255, 255, 0)" stroke-width="2.36" stroke-opacity="1.00" stroke-linejoin="round"/>
<path d="M311.09,337.90 C310.67,338.54 310.32,339.40 310.58,342.73 C310.95,347.16 311.59,353.08 311.71,354.54 C312.08,358.79 312.43,366.29 312.37,367.77 C312.35,368.14 312.29,368.90 312.20,370.04" fill="none" stroke="rgb(255, 255, 0)" stroke-width="2.36" stroke-opacity="1.00" stroke-linejoin="round"/>
<path d="M304.98,291.40 C304.98,291.40 306.34,291.53 306.34,291.53 C306.88,293.00 304.37,315.70 304.09,319.08 C303.84,322.24 303.98,323.61 304.29,325.32" fill="none" stroke="rgb(255, 255, 0)" stroke-width="2.36" stroke-opacity="1.00" stroke-linejoin="round"/>
<path d="M319.23,287.66 C317.81,288.86 317.05,290.29 316.72,292.64 C316.47,294.40 316.30,298.69 316.22,304.42 C316.21,307.53 316.96,314.96 316.98,315.46 C317.00,315.85 316.98,316.46 316.92,317.27" fill="none" stroke="rgb(255, 255, 0)" stroke-width="2.36" stroke-opacity="1.00" stroke-linejoin="round"/>
<path d="M298.53,253.38 C298.47,253.46 298.75,256.04 298.97,258.02 C299.30,261.80 298.93,276.18 298.83,277.52 C298.72,279.06 298.49,281.17 298.33,282.26" fill="none" stroke="rgb(255, 255, 0)" stroke-width="2.36" stroke-opacity="1.00" stroke-linejoin="round"/>
<path d="M299.89,226.23 C299.92,226.18 299.90,226.34 299.89,226.40 C299.50,227.53 298.86,229.48 298.48,231.10 C297.70,234.47 296.50,241.97 296.32,244.96 C296.23,246.40 296.28,247.55 296.44,248.76" fill="none" stroke="rgb(255, 255, 0)" stroke-width="2.36" stroke-opacity="1.00" stroke-linejoin="round"/>
<path d="M328.40,217.06 C328.40,217.06 326.84,217.44 326.84,217.44 C323.93,221.17 317.41,236.07 316.63,239.99 C316.38,241.19 315.87,243.83 315.61,245.28" fill="none" stroke="rgb(255, 255, 0)" stroke-width="2.36" stroke-opacity="1.00" stroke-linejoin="round"/>
<path d="M339.94,232.68 C339.94,232.68 340.50,231.32 340.50,231.32 C339.89,231.63 338.15,234.65 335.73,239.37 C333.93,242.95 331.35,248.89 329.95,253.13 C329.28,255.18 328.72,257.21 328.11,259.63" fill="none" stroke="rgb(255, 255, 0)" stroke-width="2.36" stroke-opacity="1.00" stroke-linejoin="round"/>
<path d="M342.32,272.39 C342.32,272.39 342.22,270.37 342.22,270.37 C340.44,271.10 338.09,274.84 336.32,278.06 C333.69,282.94 331.38,287.47 330.32,289.97 C327.72,296.19 326.54,301.54 326.04,304.74" fill="none" stroke="rgb(255, 255, 0)" stroke-width="2.36" stroke-opacity="1.00" stroke-linejoin="round"/>
<path d="M337.90,312.10 C337.90,312.10 336.04,311.80 336.04,311.80 C335.74,312.27 331.29,324.83 330.26,328.83 C329.23,332.93 328.82,341.35 328.74,342.99" fill="none" stroke="rgb(255, 255, 0)" stroke-width="2.36" stroke-opacity="1.00" stroke-linejoin="round"/>
<path d="M334.85,362.34 C334.85,362.34 333.62,362.49 333.62,362.49 C332.78,363.42 331.18,368.85 330.02,374.07 C329.55,376.21 328.92,380.04 328.74,381.74 C328.66,382.57 328.46,385.80 328.40,386.77" fill="none" stroke="rgb(255, 255, 0)" stroke-width="2.36" stroke-opacity="1.00" stroke-linejoin="round"/>
<path d="M343.67,410.53 C343.67,410.83 343.67,411.29 343.62,411.38 C343.21,412.25 339.74,430.22 339.24,433.81 C338.74,437.79 338.07,443.12 337.90,444.48" fill="none" stroke="rgb(255, 255, 0)" stroke-width="2.36" stroke-opacity="1.00" stroke-linejoin="round"/>
<path d="M356.57,443.12 C356.57,443.12 355.55,440.87 355.55,440.87 C354.60,445.20 353.13,455.56 352.86,461.95 C352.54,469.98 353.68,482.17 354.82,487.61 C355.13,489.13 355.75,492.21 356.06,493.76" fill="none" stroke="rgb(255, 255, 0)" stroke-width="2.36" stroke-opacity="1.00" stroke-linejoin="round"/>
<path d="M339.60,509.31 C339.60,509.31 338.02,509.55 338.02,509.55 C337.63,510.52 337.11,526.99 336.94,532.65 C336.92,533.74 336.90,534.83 336.88,535.92" fill="none" stroke="rgb(255, 255, 0)" stroke-width="2.36" stroke-opacity="1.00" stroke-linejoin="round"/>
<path d="M347.07,534.08 C346.70,534.02 346.19,533.79 345.99,533.74 C345.37,533.63 344.31,534.60 342.78,538.68 C341.76,541.45 339.52,551.94 339.09,560.84 C338.89,565.08 339.02,571.76 339.21,574.85 C339.29,576.21 339.44,578.03 339.52,578.88" fill="none" stroke="rgb(255, 255, 0)" stroke-width="2.36" stroke-opacity="1.00" stroke-linejoin="round"/>
<path d="M350.12,555.47 C350.12,555.47 349.95,555.47 349.95,555.47 C349.71,555.62 349.41,556.12 349.20,556.90 C348.67,558.86 346.66,575.92 346.91,578.58 C346.91,578.58 348.09,578.55 348.09,578.55" fill="none" stroke="rgb(255, 255, 0)" stroke-width="2.36" stroke-opacity="1.00" stroke-linejoin="round"/>
<path d="M370.15,522.88 C370.15,522.88 368.87,522.54 368.87,522.54 C368.87,522.54 368.22,523.11 368.22,523.11 C368.22,523.11 367.74,568.82 367.74,568.82 C367.74,568.82 368.51,567.94 368.51,567.94" fill="none" stroke="rgb(255, 255, 0)" stroke-width="2.36" stroke-opacity="1.00" stroke-linejoin="round"/>
<path d="M371.51,531.37 C371.51,533.45 371.51,537.97 371.51,540.41 C371.51,540.65 371.51,540.89 371.51,541.13" fill="none" stroke="rgb(255, 255, 0)" stroke-width="2.36" stroke-opacity="1.00" stroke-linejoin="round"/>
<path d="M369.13,488.26 C368.73,488.03 366.84,487.82 366.13,488.73 C364.32,491.15 362.87,503.76 363.27,509.59 C363.42,511.52 364.50,516.99 365.74,520.07" fill="none" stroke="rgb(255, 255, 0)" stroke-width="2.36" stroke-opacity="1.00" stroke-linejoin="round"/>
<path d="M377.95,496.75 C377.95,496.75 377.95,496.58 377.95,496.58 C377.95,496.58 377.78,496.41 377.78,496.41 C377.78,496.41 377.62,496.41 377.62,496.41 C377.64,500.95 377.32,512.61 377.28,514.06 C377.27,514.09 377.27,514.19 377.28,514.16" fill="none" stroke="rgb(255, 255, 0)" stroke-width="2.36" stroke-opacity="1.00" stroke-linejoin="round"/>
<path d="M373.20,447.53 C373.20,447.53 372.35,447.72 372.35,447.72 C371.87,450.69 371.83,468.69 371.99,472.32 C372.04,473.38 372.13,474.07 372.26,474.40 C372.35,474.63 372.63,475.04 373.09,475.62" fill="none" stroke="rgb(255, 255, 0)" stroke-width="2.36" stroke-opacity="1.00" stroke-linejoin="round"/>
<path d="M392.89,456.70 C392.26,456.49 391.87,456.38 391.70,456.36 C391.53,456.34 391.36,456.38 391.19,456.49 C390.74,461.94 389.77,471.51 389.67,472.20 C389.60,472.67 389.44,473.60 389.20,474.98" fill="none" stroke="rgb(255, 255, 0)" stroke-width="2.36" stroke-opacity="1.00" stroke-linejoin="round"/>
<path d="M372.18,359.96 C372.18,359.96 373.54,357.41 373.54,357.41 C373.54,358.56 373.55,361.07 373.56,362.42 C373.58,366.46 373.65,374.13 373.68,377.75 C373.76,382.63 373.90,386.74 373.71,388.51 C373.68,388.78 373.63,388.87 373.54,388.81" fill="none" stroke="rgb(255, 255, 0)" stroke-width="2.36" stroke-opacity="1.00" stroke-linejoin="round"/>
<path d="M353.86,345.36 C353.86,345.46 353.86,345.68 353.86,346.04 C353.50,359.91 353.13,375.23 353.18,375.71 C353.20,375.95 353.29,376.46 353.43,377.23" fill="none" stroke="rgb(255, 255, 0)" stroke-width="2.36" stroke-opacity="1.00" stroke-linejoin="round"/>
<path d="M358.61,302.26 C358.61,302.26 358.95,299.03 358.95,299.03 C358.94,298.97 358.82,299.38 358.32,301.46 C355.57,313.14 355.46,325.41 355.66,326.41 C355.99,328.05 356.75,330.24 357.59,332.13" fill="none" stroke="rgb(255, 255, 0)" stroke-width="2.36" stroke-opacity="1.00" stroke-linejoin="round"/>
<path d="M383.72,308.37 C382.94,310.01 382.50,311.15 382.37,312.36 C382.04,315.33 381.35,337.86 381.16,339.49 C381.03,340.54 380.90,341.60 380.77,342.66" fill="none" stroke="rgb(255, 255, 0)" stroke-width="2.36" stroke-opacity="1.00" stroke-linejoin="round"/>
<path d="M354.87,266.28 C354.87,266.28 353.28,265.77 353.28,265.77 C353.14,266.45 354.01,279.50 354.65,286.59 C355.03,290.34 355.34,292.59 356.32,297.02" fill="none" stroke="rgb(255, 255, 0)" stroke-width="2.36" stroke-opacity="1.00" stroke-linejoin="round"/>
<path d="M382.03,263.56 C381.14,263.99 379.73,264.67 379.62,264.98 C379.34,265.82 377.57,287.02 377.49,288.43 C377.44,289.51 377.32,291.81 377.39,292.21 C377.46,292.57 377.68,293.43 378.07,294.79" fill="none" stroke="rgb(255, 255, 0)" stroke-width="2.36" stroke-opacity="1.00" stroke-linejoin="round"/>
<path d="M371.17,223.85 C371.17,223.85 371.17,223.51 371.17,223.51 C371.25,226.41 371.42,233.05 371.34,236.29 C371.29,238.19 370.71,248.20 370.70,248.60 C370.69,249.01 370.69,249.84 370.69,251.11" fill="none" stroke="rgb(255, 255, 0)" stroke-width="2.36" stroke-opacity="1.00" stroke-linejoin="round"/>
<path d="M363.36,213.67 C362.91,214.08 361.98,215.73 361.46,219.01 C360.82,223.23 360.45,233.85 360.75,234.42 C360.89,234.68 361.31,235.26 362.03,236.18" fill="none" stroke="rgb(255, 255, 0)" stroke-width="2.36" stroke-opacity="1.00" stroke-linejoin="round"/>
<path d="M385.42,234.71 C385.42,234.71 385.08,233.02 385.08,233.02 C385.09,232.97 385.09,233.10 385.08,233.14 C384.77,237.01 384.51,241.05 384.45,245.68 C384.43,248.01 384.41,251.86 384.40,253.38" fill="none" stroke="rgb(255, 255, 0)" stroke-width="2.36" stroke-opacity="1.00" stroke-linejoin="round"/>
<path d="M404.43,273.41 C404.43,273.41 403.92,273.07 403.92,273.07 C403.34,273.38 403.04,276.11 403.12,279.46 C403.19,281.96 403.99,286.54 404.59,288.01 C405.28,289.67 406.42,291.68 407.19,292.72" fill="none" stroke="rgb(255, 255, 0)" stroke-width="2.36" stroke-opacity="1.00" stroke-linejoin="round"/>
<path d="M392.21,296.15 C392.14,296.93 392.09,297.50 392.04,297.87 C390.94,306.26 389.10,313.18 388.82,313.69 C388.72,313.88 388.50,314.15 388.16,314.50" fill="none" stroke="rgb(255, 255, 0)" stroke-width="2.36" stroke-opacity="1.00" stroke-linejoin="round"/>
<path d="M407.48,226.23 C407.48,226.23 407.44,224.91 407.44,224.91 C406.41,228.76 404.01,252.36 404.00,255.08 C403.99,256.13 404.30,257.72 404.90,260.41" fill="none" stroke="rgb(255, 255, 0)" stroke-width="2.36" stroke-opacity="1.00" stroke-linejoin="round"/>
<path d="M404.77,318.55 C404.76,319.72 404.76,320.52 404.77,320.96 C405.22,327.55 405.77,346.16 405.79,346.50 C405.82,347.01 405.92,347.93 406.09,349.26" fill="none" stroke="rgb(255, 255, 0)" stroke-width="2.36" stroke-opacity="1.00" stroke-linejoin="round"/>
<path d="M412.24,349.10 C412.24,349.10 411.61,349.30 411.61,349.30 C408.31,365.27 405.64,388.01 405.79,392.43 C405.82,393.27 405.98,395.66 406.05,396.54" fill="none" stroke="rgb(255, 255, 0)" stroke-width="2.36" stroke-opacity="1.00" stroke-linejoin="round"/>
<path d="M389.49,388.47 C389.49,388.47 389.40,387.96 389.40,387.96 C389.40,387.96 389.17,387.79 389.17,387.79 C388.70,388.49 388.49,404.31 388.89,409.02 C389.50,415.86 390.91,420.99 392.09,424.50 C392.60,426.00 393.08,427.28 393.97,429.54" fill="none" stroke="rgb(255, 255, 0)" stroke-width="2.36" stroke-opacity="1.00" stroke-linejoin="round"/>
<path d="M410.88,407.82 C410.88,407.82 410.37,407.73 410.37,407.73 C410.20,409.41 409.78,415.61 409.54,419.01 C409.10,424.09 408.60,429.88 408.50,432.00" fill="none" stroke="rgb(255, 255, 0)" stroke-width="2.36" stroke-opacity="1.00" stroke-linejoin="round"/>
<path d="M415.63,444.48 C415.63,444.48 415.63,444.31 415.63,444.31 C415.63,444.31 415.05,443.80 415.05,443.80 C414.96,443.84 414.80,459.96 414.44,465.13 C414.33,466.83 414.08,469.68 413.98,470.74" fill="none" stroke="rgb(255, 255, 0)" stroke-width="2.36" stroke-opacity="1.00" stroke-linejoin="round"/>
<path d="M423.44,472.99 C423.44,472.99 422.42,473.25 422.42,473.25 C421.99,474.04 422.33,481.05 422.54,485.03 C422.87,491.72 421.77,502.16 421.64,503.24 C421.57,503.75 421.50,504.57 421.41,505.67" fill="none" stroke="rgb(255, 255, 0)" stroke-width="2.36" stroke-opacity="1.00" stroke-linejoin="round"/>
<path d="M390.85,505.23 C390.85,505.23 390.17,504.55 390.17,504.55 C390.18,511.04 390.36,528.02 390.49,530.34 C390.58,531.75 391.48,538.10 392.21,539.89 C392.37,540.26 392.70,540.96 393.21,541.99" fill="none" stroke="rgb(255, 255, 0)" stroke-width="2.36" stroke-opacity="1.00" stroke-linejoin="round"/>
<path d="M398.66,545.96 C398.04,547.89 397.95,552.26 398.07,555.61 C398.26,560.82 398.35,564.74 398.32,566.93 C398.32,566.93 398.32,565.89 398.32,565.89" fill="none" stroke="rgb(255, 255, 0)" stroke-width="2.36" stroke-opacity="1.00" stroke-linejoin="round"/>
<path d="M382.71,557.84 C382.71,557.84 382.37,557.94 382.37,557.94 C382.30,559.01 385.27,569.72 386.23,575.10 C386.34,575.65 386.51,576.44 386.74,577.46" fill="none" stroke="rgb(255, 255, 0)" stroke-width="2.36" stroke-opacity="1.00" stroke-linejoin="round"/>
<path d="M385.08,579.23 C384.70,580.55 384.50,581.69 384.18,584.60 C384.09,585.39 383.66,588.72 383.58,589.20 C383.54,589.44 383.48,589.74 383.39,590.09" fill="none" stroke="rgb(255, 255, 0)" stroke-width="2.36" stroke-opacity="1.00" stroke-linejoin="round"/>
<path d="M423.78,567.01 C423.78,567.01 422.39,567.91 422.39,567.91 C422.24,570.26 424.24,579.09 424.41,581.52 C424.43,581.75 424.44,582.01 424.46,582.30" fill="none" stroke="rgb(255, 255, 0)" stroke-width="2.36" stroke-opacity="1.00" stroke-linejoin="round"/>
<path d="M418.01,532.05 C418.03,542.71 419.26,554.09 420.83,558.77 C420.83,558.77 421.29,558.70 421.29,558.70" fill="none" stroke="rgb(255, 255, 0)" stroke-width="2.36" stroke-opacity="1.00" stroke-linejoin="round"/>
<path d="M410.20,528.99 C410.00,529.14 409.85,529.37 409.75,529.67 C409.40,530.67 408.85,533.44 408.66,535.11 C408.33,538.05 408.24,541.65 408.45,542.05 C408.58,542.28 408.96,542.65 409.61,543.16" fill="none" stroke="rgb(255, 255, 0)" stroke-width="2.36" stroke-opacity="1.00" stroke-linejoin="round"/>
<path d="M433.62,517.79 C432.59,518.13 431.08,519.74 431.01,521.59 C430.62,533.22 430.32,538.44 430.35,538.51 C430.42,538.72 430.70,539.16 431.17,539.82" fill="none" stroke="rgb(255, 255, 0)" stroke-width="2.36" stroke-opacity="1.00" stroke-linejoin="round"/>
<path d="M434.30,557.84 C434.30,557.84 433.96,556.83 433.96,556.83 C433.96,556.83 435.12,572.67 435.12,572.67 C435.12,572.67 435.91,572.87 435.91,572.87" fill="none" stroke="rgb(255, 255, 0)" stroke-width="2.36" stroke-opacity="1.00" stroke-linejoin="round"/>
<path d="M453.99,520.17 C453.20,520.73 452.41,523.31 451.93,528.08 C450.72,539.48 449.67,546.66 448.02,553.13 C448.02,553.13 448.46,551.71 448.46,551.71" fill="none" stroke="rgb(255, 255, 0)" stroke-width="2.36" stroke-opacity="1.00" stroke-linejoin="round"/>
<path d="M439.73,480.12 C439.73,480.12 438.71,479.44 438.71,479.44 C438.71,479.44 441.28,508.54 441.28,508.54 C441.28,508.54 441.93,508.68 441.93,508.68" fill="none" stroke="rgb(255, 255, 0)" stroke-width="2.36" stroke-opacity="1.00" stroke-linejoin="round"/>
<path d="M440.07,435.31 C439.97,434.96 439.73,434.45 439.46,434.12 C439.38,434.02 439.21,433.85 438.96,433.61 C438.78,434.04 438.27,448.24 438.21,454.30 C438.20,457.53 438.65,459.80 439.21,461.77" fill="none" stroke="rgb(255, 255, 0)" stroke-width="2.36" stroke-opacity="1.00" stroke-linejoin="round"/>
<path d="M436.00,408.16 C434.71,407.85 433.80,407.79 433.20,408.16 C431.84,409.02 429.75,414.70 429.14,417.58 C428.52,420.58 427.68,427.25 427.67,429.21 C427.67,429.69 427.69,430.54 427.75,431.78" fill="none" stroke="rgb(255, 255, 0)" stroke-width="2.36" stroke-opacity="1.00" stroke-linejoin="round"/>
<path d="M450.25,347.06 C449.64,347.33 448.75,347.71 448.54,348.02 C447.11,350.19 443.85,364.12 442.85,372.31 C441.82,381.75 441.04,396.06 441.20,397.69 C441.25,398.16 441.40,399.37 441.65,401.31" fill="none" stroke="rgb(255, 255, 0)" stroke-width="2.36" stroke-opacity="1.00" stroke-linejoin="round"/>
<path d="M451.95,319.57 C450.74,320.65 448.40,324.33 447.04,327.59 C445.29,331.85 443.50,337.44 442.92,340.77 C442.84,341.22 442.71,341.93 442.53,342.90" fill="none" stroke="rgb(255, 255, 0)" stroke-width="2.36" stroke-opacity="1.00" stroke-linejoin="round"/>
<path d="M430.23,297.85 C430.23,297.85 430.06,296.66 430.06,296.66 C430.06,296.66 429.89,296.60 429.89,296.60 C430.41,303.91 431.16,314.86 431.39,318.49 C431.62,322.13 432.07,326.45 432.24,327.76" fill="none" stroke="rgb(255, 255, 0)" stroke-width="2.36" stroke-opacity="1.00" stroke-linejoin="round"/>
<path d="M426.83,233.02 C426.47,235.77 426.29,249.54 425.59,256.44 C425.38,258.46 424.46,265.78 424.06,269.08 C423.82,271.22 423.72,273.20 423.66,276.16" fill="none" stroke="rgb(255, 255, 0)" stroke-width="2.36" stroke-opacity="1.00" stroke-linejoin="round"/>
<path d="M424.79,218.08 C424.79,218.08 422.90,218.25 422.90,218.25 C421.97,219.89 420.51,224.50 419.52,227.76 C418.41,231.64 416.93,236.84 416.56,238.14" fill="none" stroke="rgb(255, 255, 0)" stroke-width="2.36" stroke-opacity="1.00" stroke-linejoin="round"/>
<path d="M457.38,225.21 C457.38,225.21 457.28,224.22 457.28,224.22 C454.45,230.80 450.26,254.27 450.08,256.12 C449.93,257.70 449.88,259.89 449.91,261.02" fill="none" stroke="rgb(255, 255, 0)" stroke-width="2.36" stroke-opacity="1.00" stroke-linejoin="round"/>
<path d="M450.25,275.78 C450.25,275.78 449.23,275.98 449.23,275.98 C449.82,283.32 450.69,300.32 450.73,300.73 C450.91,302.62 451.40,304.00 452.11,304.97" fill="none" stroke="rgb(255, 255, 0)" stroke-width="2.36" stroke-opacity="1.00" stroke-linejoin="round"/>
<path d="M472.99,244.22 C472.99,244.22 472.99,244.05 472.99,244.05 C472.99,244.05 472.82,243.88 472.82,243.88 C472.50,244.19 472.13,251.12 471.97,254.51 C471.65,263.38 471.31,277.78 471.38,278.39 C471.43,278.78 471.59,279.55 471.85,280.71" fill="none" stroke="rgb(255, 255, 0)" stroke-width="2.36" stroke-opacity="1.00" stroke-linejoin="round"/>
<path d="M488.61,232.00 C488.62,232.02 488.62,232.07 488.61,232.17 C488.54,232.66 488.46,233.08 488.36,233.44 C488.33,233.54 480.88,256.35 480.09,259.33 C478.86,264.01 478.69,266.15 478.70,268.09" fill="none" stroke="rgb(255, 255, 0)" stroke-width="2.36" stroke-opacity="1.00" stroke-linejoin="round"/>
<path d="M475.37,286.31 C475.37,288.16 475.37,291.36 475.37,292.72 C475.37,300.36 475.37,313.09 475.52,314.07 C475.57,314.45 475.73,314.80 475.97,315.12" fill="none" stroke="rgb(255, 255, 0)" stroke-width="2.36" stroke-opacity="1.00" stroke-linejoin="round"/>
<path d="M494.04,278.84 C494.04,278.84 493.02,279.18 493.02,279.18 C492.97,288.74 492.55,295.27 491.17,305.64 C491.11,306.09 491.05,306.53 490.99,306.97" fill="none" stroke="rgb(255, 255, 0)" stroke-width="2.36" stroke-opacity="1.00" stroke-linejoin="round"/>
<path d="M507.95,246.93 C507.95,246.93 507.61,246.93 507.61,246.93 C507.61,250.77 507.54,260.17 507.46,262.36 C507.40,264.13 506.95,271.11 506.73,274.07 C506.60,275.78 506.50,276.69 506.34,277.97" fill="none" stroke="rgb(255, 255, 0)" stroke-width="2.36" stroke-opacity="1.00" stroke-linejoin="round"/>
<path d="M505.24,300.90 C505.24,300.90 505.24,298.86 505.24,298.86 C505.03,301.25 500.12,321.52 499.85,322.78 C499.54,324.24 499.24,326.09 499.13,326.97" fill="none" stroke="rgb(255, 255, 0)" stroke-width="2.36" stroke-opacity="1.00" stroke-linejoin="round"/>
<path d="M487.59,322.96 C487.59,322.96 487.59,320.59 487.59,320.59 C487.29,321.25 483.78,333.06 482.72,336.59 C482.22,338.30 481.45,340.91 481.19,341.81" fill="none" stroke="rgb(255, 255, 0)" stroke-width="2.36" stroke-opacity="1.00" stroke-linejoin="round"/>
<path d="M475.03,323.98 C475.03,323.98 475.37,319.99 475.37,319.99 C475.37,319.99 470.00,337.39 467.92,344.31 C463.46,360.22 462.61,373.76 462.50,374.58 C462.43,375.07 462.26,375.98 461.99,377.31" fill="none" stroke="rgb(255, 255, 0)" stroke-width="2.36" stroke-opacity="1.00" stroke-linejoin="round"/>
<path d="M472.65,379.65 C472.65,379.65 473.05,378.63 473.05,378.63 C473.05,378.63 477.46,401.37 477.46,401.37 C477.46,401.37 477.46,401.26 477.46,401.26" fill="none" stroke="rgb(255, 255, 0)" stroke-width="2.36" stroke-opacity="1.00" stroke-linejoin="round"/>
<path d="M488.27,345.70 C488.35,345.56 488.40,345.45 488.44,345.36 C488.47,345.28 488.53,345.11 488.61,344.86 C488.97,351.11 489.90,371.70 489.96,372.41 C490.08,373.71 490.36,375.50 490.55,376.42" fill="none" stroke="rgb(255, 255, 0)" stroke-width="2.36" stroke-opacity="1.00" stroke-linejoin="round"/>
<path d="M453.65,379.99 C453.31,382.28 453.17,383.52 453.05,385.62 C452.65,392.56 452.09,403.39 452.14,404.00 C452.24,405.35 452.72,406.42 453.60,407.47" fill="none" stroke="rgb(255, 255, 0)" stroke-width="2.36" stroke-opacity="1.00" stroke-linejoin="round"/>
<path d="M475.03,408.50 C475.03,408.50 474.86,407.65 474.86,407.65 C474.86,407.65 474.46,407.48 474.46,407.48 C474.46,407.48 473.42,442.47 473.42,442.47 C473.42,442.47 473.87,442.54 473.87,442.54" fill="none" stroke="rgb(255, 255, 0)" stroke-width="2.36" stroke-opacity="1.00" stroke-linejoin="round"/>
<path d="M453.31,427.17 C453.31,427.17 452.97,423.88 452.97,423.88 C452.97,431.59 452.98,446.79 453.00,454.28 C453.00,455.43 453.03,456.16 453.08,456.48 C453.13,456.76 453.27,457.17 453.51,457.73" fill="none" stroke="rgb(255, 255, 0)" stroke-width="2.36" stroke-opacity="1.00" stroke-linejoin="round"/>
<path d="M458.40,462.47 C458.40,462.47 457.89,462.47 457.89,462.47 C457.89,462.47 457.48,462.83 457.48,462.83 C457.48,462.83 456.36,497.74 456.36,497.74 C456.36,497.74 456.70,497.77 456.70,497.77" fill="none" stroke="rgb(255, 255, 0)" stroke-width="2.36" stroke-opacity="1.00" stroke-linejoin="round"/>
<path d="M472.31,481.81 C471.61,483.00 471.29,484.02 471.30,485.37 C471.33,490.30 473.40,507.54 473.97,509.33 C474.06,509.63 474.30,510.18 474.68,510.98 C474.68,510.98 475.03,511.00 475.03,511.00" fill="none" stroke="rgb(255, 255, 0)" stroke-width="2.36" stroke-opacity="1.00" stroke-linejoin="round"/>
<path d="M483.18,458.73 C483.18,458.73 483.18,458.56 483.18,458.56 C483.18,458.56 482.84,458.19 482.84,458.19 C482.86,465.00 483.53,486.86 483.57,487.07 C483.63,487.41 483.80,487.99 484.09,488.82" fill="none" stroke="rgb(255, 255, 0)" stroke-width="2.36" stroke-opacity="1.00" stroke-linejoin="round"/>
<path d="M486.91,422.41 C486.91,422.02 486.91,421.62 486.91,421.23 C486.91,421.09 486.91,420.96 486.91,420.83 C486.91,420.83 488.69,448.04 488.69,448.04 C488.69,448.04 489.25,448.53 489.25,448.53" fill="none" stroke="rgb(255, 255, 0)" stroke-width="2.36" stroke-opacity="1.00" stroke-linejoin="round"/>
<path d="M503.54,433.61 C503.54,433.61 503.54,431.92 503.54,431.92 C502.93,434.92 500.76,466.13 500.09,469.51 C500.00,469.96 499.80,470.79 499.48,472.00" fill="none" stroke="rgb(255, 255, 0)" stroke-width="2.36" stroke-opacity="1.00" stroke-linejoin="round"/>
<path d="M492.00,388.81 C492.00,388.81 491.83,388.64 491.83,388.64 C493.99,390.22 497.86,403.95 497.92,407.82 C497.92,408.11 497.90,408.72 497.85,409.63" fill="none" stroke="rgb(255, 255, 0)" stroke-width="2.36" stroke-opacity="1.00" stroke-linejoin="round"/>
<path d="M506.94,377.95 C506.98,378.08 506.57,383.14 506.63,387.18 C506.91,397.50 506.88,403.26 506.63,404.46 C506.56,404.80 506.39,405.19 506.12,405.65" fill="none" stroke="rgb(255, 255, 0)" stroke-width="2.36" stroke-opacity="1.00" stroke-linejoin="round"/>
<path d="M504.22,330.09 C503.76,327.89 503.37,326.43 503.29,325.99 C503.26,325.82 503.23,325.51 503.20,325.03 C503.69,329.05 503.77,336.24 503.74,338.54 C503.68,342.26 502.66,357.67 502.28,362.94" fill="none" stroke="rgb(255, 255, 0)" stroke-width="2.36" stroke-opacity="1.00" stroke-linejoin="round"/>
<path d="M497.77,473.67 C497.58,474.96 497.47,475.83 497.43,476.26 C497.41,476.58 497.41,486.44 497.42,490.39 C497.43,493.28 497.43,496.87 497.43,497.56 C497.43,497.66 497.43,497.73 497.43,497.77" fill="none" stroke="rgb(255, 255, 0)" stroke-width="2.36" stroke-opacity="1.00" stroke-linejoin="round"/>
<path d="M484.53,498.44 C484.53,498.44 484.19,497.77 484.19,497.77 C484.19,501.12 484.18,506.88 484.22,507.60 C484.25,508.10 484.34,509.07 484.49,510.51" fill="none" stroke="rgb(255, 255, 0)" stroke-width="2.36" stroke-opacity="1.00" stroke-linejoin="round"/>
<path d="M494.38,513.38 C494.21,513.10 493.71,516.41 492.92,522.32 C491.90,530.55 490.77,539.76 490.66,540.99 C490.66,540.99 490.92,540.71 490.92,540.71" fill="none" stroke="rgb(255, 255, 0)" stroke-width="2.36" stroke-opacity="1.00" stroke-linejoin="round"/>
<path d="M476.05,526.96 C476.05,526.96 476.05,526.62 476.05,526.62 C475.73,527.80 474.99,533.29 474.49,537.01 C473.60,544.33 473.28,546.56 473.58,547.36 C473.58,547.36 474.01,546.98 474.01,546.98" fill="none" stroke="rgb(255, 255, 0)" stroke-width="2.36" stroke-opacity="1.00" stroke-linejoin="round"/>
<path d="M488.95,556.15 C488.85,555.81 488.67,555.40 488.27,554.70 C488.04,554.32 487.81,553.93 487.59,553.54 C487.59,553.56 487.59,554.74 487.59,555.69 C487.51,563.12 487.35,578.12 487.44,578.39 C487.53,578.62 487.80,579.01 488.27,579.57" fill="none" stroke="rgb(255, 255, 0)" stroke-width="2.36" stroke-opacity="1.00" stroke-linejoin="round"/>
<path d="M508.63,531.37 C508.63,531.37 508.05,531.42 508.05,531.42 C508.05,531.42 504.28,562.17 504.28,562.17 C504.28,562.17 504.78,562.60 504.78,562.60" fill="none" stroke="rgb(255, 255, 0)" stroke-width="2.36" stroke-opacity="1.00" stroke-linejoin="round"/>
<path d="M506.60,575.15 C506.53,575.15 506.48,575.15 506.43,575.15 C506.38,575.16 506.26,575.19 506.09,575.23 C506.09,575.23 505.24,588.20 505.24,588.20 C505.24,588.20 505.24,587.37 505.24,587.37" fill="none" stroke="rgb(255, 255, 0)" stroke-width="2.36" stroke-opacity="1.00" stroke-linejoin="round"/>
<path d="M113.88,468.58 C113.89,468.14 113.86,467.30 113.79,467.13 C113.31,465.87 113.83,461.62 114.14,461.02 C114.14,461.02 122.09,462.49 122.09,462.49 C122.23,462.83 122.29,463.18 122.29,463.53 C122.29,463.88 122.23,464.72 122.11,466.04" fill="none" stroke="rgb(0, 255, 255)" stroke-width="2.36" stroke-opacity="1.00" stroke-linejoin="round"/>
<path d="M120.67,466.20 C117.52,466.16 107.07,470.02 104.76,471.65 C100.97,474.37 90.87,483.65 88.93,485.26 C87.28,486.61 82.97,489.60 81.34,491.08 C80.07,492.24 72.97,499.15 72.12,500.05 C70.18,502.15 67.17,506.95 66.85,508.71 C66.72,509.48 67.93,511.66 69.10,512.58 C70.06,513.29 79.15,513.94 80.46,514.02 C83.47,514.19 85.16,513.90 89.46,512.86 C91.54,512.32 104.23,507.17 104.23,507.17 C104.54,507.02 105.04,506.72 105.74,506.25" fill="none" stroke="rgb(0, 255, 255)" stroke-width="2.36" stroke-opacity="1.00" stroke-linejoin="round"/>
<path d="M109.13,507.61 C109.13,507.61 108.50,507.71 108.50,507.71 C109.78,507.93 117.31,509.83 118.49,509.99 C120.37,510.21 123.23,509.74 125.15,508.97 C128.00,507.77 134.46,502.51 135.02,502.24 C136.13,501.75 137.73,502.04 138.80,502.76 C140.41,503.87 145.37,505.50 149.77,505.98 C154.12,506.41 160.05,505.38 162.74,503.93 C165.37,502.46 171.07,498.32 171.82,497.85 C173.57,498.32 179.40,499.54 181.91,499.64 C184.50,499.72 190.09,498.97 191.61,498.16 C193.60,497.04 196.91,492.41 197.31,490.09 C197.45,488.99 196.28,487.71 194.41,486.72 C192.60,485.80 182.02,483.12 175.31,479.91 C174.26,479.45 156.85,472.64 151.11,471.47 C147.99,470.84 141.48,469.53 138.10,468.84 C133.78,467.95 124.88,468.47 124.45,468.44 C123.89,468.40 122.75,468.22 121.01,467.90" fill="none" stroke="rgb(0, 255, 255)" stroke-width="2.36" stroke-opacity="1.00" stroke-linejoin="round"/>
<path d="M124.41,473.33 C124.41,473.33 123.05,473.33 123.05,473.33 C124.02,473.27 124.98,472.60 125.73,471.89 C126.05,471.58 126.37,471.28 126.70,470.98" fill="none" stroke="rgb(0, 255, 255)" stroke-width="2.36" stroke-opacity="1.00" stroke-linejoin="round"/>
<path d="M133.23,474.68 C133.23,474.68 132.55,474.55 132.55,474.55 C133.23,473.80 134.16,472.92 134.71,472.53 C134.85,472.44 134.99,472.38 135.13,472.34" fill="none" stroke="rgb(0, 255, 255)" stroke-width="2.36" stroke-opacity="1.00" stroke-linejoin="round"/>
<path d="M130.85,483.85 C130.85,483.85 130.76,482.45 130.76,482.45 C131.72,481.40 132.37,480.73 132.72,480.45 C133.06,480.17 133.59,479.87 134.30,479.57" fill="none" stroke="rgb(0, 255, 255)" stroke-width="2.36" stroke-opacity="1.00" stroke-linejoin="round"/>
<path d="M117.62,482.15 C117.62,482.15 117.28,481.13 117.28,481.13 C117.33,481.39 117.11,483.99 116.85,485.69 C116.79,486.10 116.72,486.35 116.64,486.44" fill="none" stroke="rgb(0, 255, 255)" stroke-width="2.36" stroke-opacity="1.00" stroke-linejoin="round"/>
<path d="M107.09,480.79 C107.09,480.64 107.09,480.49 107.09,480.34 C107.09,480.27 107.09,480.19 107.09,480.12 C107.16,480.68 107.36,481.41 107.68,481.87 C107.79,482.04 108.06,482.37 108.48,482.85" fill="none" stroke="rgb(0, 255, 255)" stroke-width="2.36" stroke-opacity="1.00" stroke-linejoin="round"/>
<path d="M103.36,488.60 C103.36,488.60 103.41,487.29 103.41,487.29 C103.41,487.29 105.45,487.68 105.45,487.68" fill="none" stroke="rgb(0, 255, 255)" stroke-width="2.36" stroke-opacity="1.00" stroke-linejoin="round"/>
<path d="M104.38,490.98 C104.21,490.94 104.04,490.94 103.87,490.98 C103.70,491.01 103.31,491.12 102.68,491.32 C103.18,491.36 105.23,491.21 107.06,490.99 C107.51,490.93 108.05,490.84 108.68,490.72" fill="none" stroke="rgb(0, 255, 255)" stroke-width="2.36" stroke-opacity="1.00" stroke-linejoin="round"/>
<path d="M91.14,494.37 C91.14,494.37 91.14,493.69 91.14,493.69 C91.46,494.34 91.69,494.79 91.82,495.03 C91.95,495.28 92.17,495.66 92.47,496.18" fill="none" stroke="rgb(0, 255, 255)" stroke-width="2.36" stroke-opacity="1.00" stroke-linejoin="round"/>
<path d="M89.44,501.50 C89.44,501.50 87.63,501.33 87.63,501.33 C87.70,501.23 87.85,501.18 88.06,501.16 C88.27,501.14 88.86,501.14 89.81,501.16" fill="none" stroke="rgb(0, 255, 255)" stroke-width="2.36" stroke-opacity="1.00" stroke-linejoin="round"/>
<path d="M112.19,501.16 C112.19,501.16 110.66,502.40 110.66,502.40 C110.66,502.40 111.74,502.95 111.74,502.95" fill="none" stroke="rgb(0, 255, 255)" stroke-width="2.36" stroke-opacity="1.00" stroke-linejoin="round"/>
<path d="M143.75,492.00 C143.75,492.00 143.41,491.49 143.41,491.49 C143.41,491.49 143.58,491.03 143.58,491.03 C143.76,490.98 143.96,490.96 144.19,490.98 C144.42,490.99 145.00,491.05 145.92,491.16" fill="none" stroke="rgb(0, 255, 255)" stroke-width="2.36" stroke-opacity="1.00" stroke-linejoin="round"/>
<path d="M149.18,483.51 C149.18,483.51 147.49,483.51 147.49,483.51 C148.59,484.32 149.57,485.21 150.20,485.80 C150.52,486.07 151.25,486.65 152.40,487.55" fill="none" stroke="rgb(0, 255, 255)" stroke-width="2.36" stroke-opacity="1.00" stroke-linejoin="round"/>
<path d="M155.63,482.15 C155.63,482.15 154.67,482.32 154.67,482.32 C154.37,482.47 154.19,484.13 154.50,485.32 C154.60,485.69 154.85,486.19 155.27,486.81" fill="none" stroke="rgb(0, 255, 255)" stroke-width="2.36" stroke-opacity="1.00" stroke-linejoin="round"/>
<path d="M164.12,483.51 C164.12,483.51 162.17,483.51 162.17,483.51 C162.10,484.21 162.07,484.69 162.08,484.95 C162.09,485.22 162.16,485.63 162.28,486.20" fill="none" stroke="rgb(0, 255, 255)" stroke-width="2.36" stroke-opacity="1.00" stroke-linejoin="round"/>
<path d="M168.87,484.19 C168.87,484.19 168.36,484.36 168.36,484.36 C167.69,485.29 167.47,485.72 167.14,486.83 C167.07,487.09 166.91,487.56 166.67,488.24" fill="none" stroke="rgb(0, 255, 255)" stroke-width="2.36" stroke-opacity="1.00" stroke-linejoin="round"/>
<path d="M154.61,496.07 C154.61,496.07 154.61,495.73 154.61,495.73 C154.62,495.73 154.82,495.96 154.97,496.16 C155.05,496.26 155.21,496.48 155.46,496.83" fill="none" stroke="rgb(0, 255, 255)" stroke-width="2.36" stroke-opacity="1.00" stroke-linejoin="round"/>
<path d="M175.66,479.78 C175.42,479.75 175.25,479.75 175.15,479.78 C175.04,479.80 174.86,479.89 174.59,480.04 C174.07,481.27 173.72,482.65 173.60,483.11 C173.56,483.28 173.49,483.46 173.39,483.66" fill="none" stroke="rgb(0, 255, 255)" stroke-width="2.36" stroke-opacity="1.00" stroke-linejoin="round"/>
<path d="M173.62,496.41 C173.62,496.41 173.62,496.75 173.62,496.75 C172.78,496.62 166.28,491.70 165.78,491.37 C164.39,490.49 136.59,477.13 127.80,472.58 C126.04,471.63 120.60,467.99 119.03,467.91 C122.05,471.95 125.98,478.21 130.46,483.33 C132.27,485.43 134.72,489.69 136.10,493.76 C137.47,497.88 137.94,500.21 137.98,501.63 C137.99,501.93 137.99,502.57 137.98,503.54" fill="none" stroke="rgb(0, 255, 255)" stroke-width="2.36" stroke-opacity="1.00" stroke-linejoin="round"/>
<path d="M115.24,469.59 C115.24,469.59 115.24,469.17 115.24,469.17 C115.07,469.04 106.91,491.11 106.57,492.11 C105.43,495.46 104.27,503.46 104.19,504.57 C104.15,505.06 104.10,506.06 104.04,507.56" fill="none" stroke="rgb(0, 255, 255)" stroke-width="2.36" stroke-opacity="1.00" stroke-linejoin="round"/>
<path d="M121.69,509.31 C121.69,509.31 120.84,509.31 120.84,509.31 C120.51,509.77 120.29,510.40 120.33,511.27 C120.98,525.77 121.93,536.32 123.29,547.52 C123.95,553.24 125.40,559.27 126.75,561.42 C128.00,563.33 129.83,564.79 131.80,565.47 C134.70,566.41 136.73,566.06 139.05,564.54 C140.19,563.75 141.47,562.19 141.77,561.05 C142.32,558.74 141.45,554.91 141.08,553.95 C140.75,554.02 140.54,554.10 139.97,554.42 C138.99,555.05 138.25,561.53 137.19,562.04 C136.49,562.33 133.25,562.51 132.33,562.27 C131.14,561.93 129.50,560.28 128.87,558.90 C127.60,555.89 126.00,539.59 125.42,531.04 C125.14,527.20 125.09,511.50 125.08,508.04 C125.08,508.04 125.08,508.29 125.08,508.29" fill="none" stroke="rgb(0, 255, 255)" stroke-width="2.36" stroke-opacity="1.00" stroke-linejoin="round"/>
<path d="M181.77,517.79 C181.77,517.79 181.27,519.14 181.27,519.14 C181.18,519.09 180.82,516.24 177.21,514.69 C174.30,513.48 167.34,512.55 165.99,512.46 C162.55,512.26 145.98,515.16 143.07,516.34 C140.19,517.55 136.72,520.04 135.09,521.90 C133.47,523.84 132.21,527.86 131.77,531.43 C131.59,533.18 131.78,535.97 132.29,537.73 C132.86,539.56 134.48,541.77 135.95,542.90 C138.78,544.98 144.00,547.71 146.82,548.63 C150.26,549.68 154.02,550.04 158.61,549.86 C164.84,549.55 172.42,547.72 176.01,545.75 C178.07,544.60 181.14,541.71 182.75,539.59 C184.62,537.04 187.32,530.72 187.02,527.70 C186.71,525.18 183.58,519.73 182.45,518.57 C182.15,518.27 181.47,517.67 180.41,516.77" fill="none" stroke="rgb(255, 0, 255)" stroke-width="2.36" stroke-opacity="1.00" stroke-linejoin="round"/>
<path d="M167.51,514.74 C167.51,514.74 166.17,514.08 166.17,514.08 C166.08,515.23 167.22,518.29 169.04,519.43 C174.95,522.89 179.55,519.63 180.01,518.95 C177.14,516.68 168.98,515.70 168.05,515.76 C168.67,516.84 173.41,518.22 175.46,518.50 C176.21,518.61 176.95,518.71 177.69,518.81" fill="none" stroke="rgb(255, 0, 255)" stroke-width="2.36" stroke-opacity="1.00" stroke-linejoin="round"/>
<path d="M173.62,515.75 C173.62,515.75 170.94,514.84 170.94,514.84 C171.09,515.79 173.27,517.48 175.53,517.88 C177.51,518.20 179.09,517.94 179.66,517.73 C179.66,517.73 173.95,515.17 173.95,515.17 C173.95,515.17 179.73,519.15 179.73,519.15" fill="none" stroke="rgb(255, 0, 255)" stroke-width="2.36" stroke-opacity="1.00" stroke-linejoin="round"/>
<path d="M151.56,515.08 C151.56,515.08 150.59,515.75 150.59,515.75 C150.59,515.75 150.54,514.47 150.54,514.47 C150.54,514.47 150.15,518.94 149.24,520.57 C147.67,523.08 135.34,524.67 135.01,524.74 C135.01,524.74 147.74,517.62 147.74,517.62 C146.96,517.04 145.54,516.97 143.88,517.72 C140.67,519.17 138.06,522.45 137.93,523.07 C139.30,523.30 140.45,523.07 141.89,522.14 C144.38,520.51 146.90,518.44 147.65,517.05 C146.37,516.88 145.47,517.05 144.49,517.74 C142.78,518.98 142.12,520.14 141.86,521.03 C143.27,521.95 144.36,522.10 145.74,521.37 C147.87,520.23 148.81,519.06 149.25,518.27 C148.48,517.61 147.79,517.70 146.60,518.83 C145.75,519.65 144.15,521.16 143.41,521.86" fill="none" stroke="rgb(255, 0, 255)" stroke-width="2.36" stroke-opacity="1.00" stroke-linejoin="round"/>
<path d="M157.67,523.22 C157.67,523.22 156.99,522.80 156.99,522.80 C157.03,522.18 158.84,520.82 160.48,520.87 C161.42,520.92 163.16,521.49 163.72,521.93 C163.88,522.05 164.01,522.26 164.12,522.54" fill="none" stroke="rgb(255, 0, 255)" stroke-width="2.36" stroke-opacity="1.00" stroke-linejoin="round"/>
<path d="M152.24,550.04 C151.72,550.07 151.35,550.07 151.12,550.04 C150.47,549.96 140.68,548.89 139.11,548.61 C136.41,548.15 133.26,548.67 132.89,549.59 C132.53,550.58 133.19,553.33 134.08,554.02 C134.55,554.37 135.96,554.60 138.71,554.89 C139.49,554.97 140.26,555.05 141.04,555.13" fill="none" stroke="rgb(255, 0, 255)" stroke-width="2.36" stroke-opacity="1.00" stroke-linejoin="round"/>
<path d="M132.55,550.38 C132.55,550.38 132.04,550.38 132.04,550.38 C131.60,549.93 130.61,549.49 129.59,549.36 C128.66,549.25 127.28,550.75 127.67,551.65 C128.30,552.93 130.91,553.66 132.69,554.02" fill="none" stroke="rgb(255, 0, 255)" stroke-width="2.36" stroke-opacity="1.00" stroke-linejoin="round"/>
<path d="M141.72,555.47 C141.72,555.47 141.56,554.79 141.56,554.79 C141.56,554.79 155.59,555.47 155.59,555.47 C155.38,556.89 155.30,558.23 155.29,560.87 C155.32,562.66 155.55,563.83 156.19,564.10 C157.99,564.79 163.19,565.47 165.40,565.10 C170.35,563.85 175.79,562.52 176.03,562.43 C176.03,562.43 174.71,554.48 174.71,554.48 C175.75,555.45 189.17,558.97 191.75,558.48 C193.20,558.18 194.80,557.54 196.42,556.63 C197.40,556.04 197.23,552.80 196.31,551.65 C194.45,549.52 189.80,550.48 189.58,551.00 C189.24,551.87 188.50,554.49 187.87,556.35 C187.87,556.35 187.88,555.81 187.88,555.81" fill="none" stroke="rgb(255, 0, 255)" stroke-width="2.36" stroke-opacity="1.00" stroke-linejoin="round"/>
<path d="M190.25,549.70 C190.25,549.70 189.24,550.04 189.24,550.04 C188.04,549.99 179.44,546.64 176.45,546.39 C175.90,546.35 174.95,546.32 173.62,546.30" fill="none" stroke="rgb(255, 0, 255)" stroke-width="2.36" stroke-opacity="1.00" stroke-linejoin="round"/>
<path d="M156.65,565.31 C156.65,565.31 156.01,565.65 156.01,565.65 C156.01,565.65 156.66,575.12 156.66,575.12 C157.44,575.59 157.99,575.73 159.12,575.42 C160.88,574.91 164.75,573.72 165.31,573.27 C166.46,572.31 167.39,567.20 167.47,566.84 C167.47,566.84 167.37,574.10 167.37,574.10 C168.43,574.66 173.78,574.03 175.49,573.14 C176.35,572.65 177.20,571.46 177.31,570.53 C177.38,569.75 176.91,566.29 176.57,565.07 C176.42,564.55 176.12,563.73 175.66,562.60" fill="none" stroke="rgb(255, 0, 255)" stroke-width="2.36" stroke-opacity="1.00" stroke-linejoin="round"/>
<path d="M159.03,575.15 C159.03,575.15 157.03,575.83 157.03,575.83 C157.03,575.83 155.87,580.21 155.87,580.21 C156.94,581.13 159.02,580.87 160.06,580.21 C161.46,579.28 163.63,577.04 164.28,575.72 C164.48,575.32 164.65,574.68 164.80,573.80" fill="none" stroke="rgb(255, 0, 255)" stroke-width="2.36" stroke-opacity="1.00" stroke-linejoin="round"/>
<path d="M168.19,574.48 C167.97,574.45 167.56,574.52 167.34,574.64 C167.28,574.68 167.23,574.73 167.17,574.81 C168.16,576.64 171.00,580.56 173.16,581.42 C175.02,582.12 176.83,581.38 177.23,580.63 C177.64,579.81 177.65,576.66 176.53,574.49 C176.23,573.91 174.56,571.83 173.96,571.08" fill="none" stroke="rgb(255, 0, 255)" stroke-width="2.36" stroke-opacity="1.00" stroke-linejoin="round"/>
<path d="M235.98,590.21 C235.98,590.21 235.98,590.07 235.98,590.07 C235.98,590.07 235.71,589.81 235.71,589.81 C235.71,589.81 234.68,590.40 234.68,590.40 C234.68,590.40 227.11,584.55 227.11,584.55 C227.11,584.55 237.48,589.39 237.48,589.39 C237.48,589.39 237.51,577.52 237.51,577.52 C237.51,577.52 241.99,588.15 241.99,588.15 C242.12,588.10 244.93,584.09 246.75,582.51 C250.98,578.90 254.90,577.52 255.28,577.53 C251.07,580.51 246.84,587.56 246.48,589.17 C246.48,589.17 261.74,582.43 261.74,582.43 C259.23,584.81 253.68,590.45 252.94,591.27 C252.46,591.81 251.57,593.31 251.07,594.18" fill="none" stroke="rgb(0, 153, 67)" stroke-width="2.36" stroke-opacity="1.00" stroke-linejoin="round"/>
<path d="M7.83,590.39 C7.83,590.39 8.87,586.50 8.87,586.50 C8.98,586.79 11.40,588.33 14.93,588.76 C20.22,589.37 35.80,587.60 40.72,587.22 C46.95,586.70 77.31,584.50 91.48,582.42 C104.08,581.34 133.30,578.32 143.00,577.89 C145.70,577.82 152.02,577.78 153.33,577.78 C153.82,577.78 154.30,577.78 154.79,577.78" fill="none" stroke="rgb(228, 0, 126)" stroke-width="2.36" stroke-opacity="1.00" stroke-linejoin="round"/>
<path d="M177.20,577.42 C177.63,576.78 178.32,576.33 178.41,576.34 C183.73,577.02 191.71,576.96 200.68,576.01 C206.11,575.39 218.85,574.62 224.72,574.58 C238.56,574.88 266.98,575.64 281.55,576.11 C289.52,576.33 300.08,576.01 305.96,576.04 C320.35,576.30 352.97,578.95 360.84,579.48 C374.62,580.57 403.64,583.17 413.62,582.23 C428.47,580.67 467.15,577.90 472.27,577.77 C476.97,577.65 487.47,578.23 495.84,579.52 C502.38,580.60 528.86,587.84 530.64,589.36 C531.06,589.73 531.89,591.55 532.17,592.19" fill="none" stroke="rgb(228, 0, 126)" stroke-width="2.36" stroke-opacity="1.00" stroke-linejoin="round"/>
<path d="M311.26,578.86 C311.26,578.86 309.53,577.78 309.53,577.78 C308.98,578.57 308.49,582.76 309.00,584.47 C309.32,585.41 310.68,586.49 311.90,586.65 C315.98,587.09 320.67,585.46 320.99,584.55 C321.20,583.51 318.85,581.33 317.67,581.53 C317.13,582.97 317.08,583.93 317.66,584.98 C318.29,586.08 319.55,587.21 320.59,587.47 C325.94,588.66 329.06,583.85 329.64,582.47 C329.57,582.98 332.13,585.35 334.09,586.36 C336.60,587.59 340.39,587.91 344.41,587.75 C345.40,587.70 348.64,587.47 349.30,587.21 C350.33,586.79 351.06,585.36 351.11,584.47 C350.73,583.52 350.12,582.83 349.08,582.42 C346.62,581.47 344.62,581.71 343.50,582.13 C343.50,582.13 342.88,583.30 342.88,583.30 C343.11,584.41 343.65,585.81 344.31,586.59 C345.10,587.48 347.31,588.54 348.81,588.71 C351.60,588.97 357.58,587.13 359.32,585.62 C360.55,584.50 361.70,581.15 361.69,580.93" fill="none" stroke="rgb(28, 31, 136)" stroke-width="2.36" stroke-opacity="1.00" stroke-linejoin="round"/>
<path d="M400.63,598.68 C400.63,598.68 400.45,598.68 400.45,598.68 C400.45,598.68 400.27,599.04 400.27,599.04" fill="none" stroke="rgb(28, 31, 136)" stroke-width="2.36" stroke-opacity="1.00" stroke-linejoin="round"/>
<path d="M399.91,599.04 C399.91,599.04 400.27,598.67 400.27,598.67 C400.27,598.04 400.27,597.66 400.27,597.51 C400.22,596.31 398.90,594.12 396.97,593.28 C390.86,590.74 385.15,592.52 384.28,593.05 C383.59,594.36 384.11,598.71 385.10,600.19 C385.80,601.19 387.73,602.30 389.23,602.61 C391.99,603.14 396.32,602.40 397.42,601.20 C397.78,600.79 398.06,600.34 398.26,599.87 C398.38,599.58 398.61,598.90 398.93,597.84" fill="none" stroke="rgb(28, 31, 136)" stroke-width="2.36" stroke-opacity="1.00" stroke-linejoin="round"/>
<path d="M404.59,589.31 C404.59,589.31 403.51,588.23 403.51,588.23 C402.98,588.19 400.27,590.37 398.74,592.06 C397.64,593.30 396.60,595.42 396.43,596.78 C396.31,598.00 396.81,599.86 397.46,600.50 C398.70,601.63 404.79,602.87 408.22,602.57 C409.93,602.40 413.13,601.60 414.40,601.02 C415.74,600.37 417.25,598.92 417.63,597.92 C418.21,596.27 418.06,592.50 417.62,591.09 C417.62,591.09 415.50,589.70 415.50,589.70" fill="none" stroke="rgb(28, 31, 136)" stroke-width="2.36" stroke-opacity="1.00" stroke-linejoin="round"/>
<path d="M408.92,592.55 C408.92,592.55 407.66,591.47 407.66,591.47 C406.50,592.48 405.11,595.88 405.41,598.04 C405.55,598.88 407.36,599.38 408.79,598.93 C413.25,597.40 411.95,594.00 411.33,593.13 C411.33,593.13 409.49,592.89 409.49,592.89" fill="none" stroke="rgb(28, 31, 136)" stroke-width="2.36" stroke-opacity="1.00" stroke-linejoin="round"/>
<path d="M409.64,596.52 C409.64,596.52 409.10,596.52 409.10,596.52 C409.10,596.52 409.87,598.79 409.87,598.79 C411.32,598.39 411.39,597.40 411.31,596.13 C411.31,596.13 409.90,595.72 409.90,595.72" fill="none" stroke="rgb(28, 31, 136)" stroke-width="2.36" stroke-opacity="1.00" stroke-linejoin="round"/>
<path d="M438.83,600.84 C438.83,600.84 438.65,600.84 438.65,600.84 C438.37,600.50 438.15,599.67 437.99,599.40 C437.91,599.26 437.71,599.07 437.41,598.81 C437.41,598.81 436.05,600.02 436.05,600.02 C436.26,600.90 437.77,601.80 438.86,601.79 C439.89,601.75 441.09,600.64 441.13,599.74 C440.80,599.14 440.50,598.77 440.23,598.61 C439.96,598.46 439.35,598.30 438.40,598.14" fill="none" stroke="rgb(28, 31, 136)" stroke-width="2.36" stroke-opacity="1.00" stroke-linejoin="round"/>
<path d="M452.16,594.36 C451.90,594.03 451.60,593.30 451.39,592.80 C450.95,591.98 447.34,590.49 443.79,590.11 C439.96,589.71 416.40,590.58 413.95,590.01 C413.25,589.85 407.74,588.51 405.02,588.32 C400.62,588.07 394.78,589.63 391.05,590.69 C389.01,591.21 380.94,592.91 377.69,593.29 C372.78,593.88 365.83,597.39 364.91,598.78 C364.90,600.38 366.67,603.39 368.58,604.14 C371.62,605.25 385.75,604.69 390.20,606.12 C394.37,607.46 398.17,608.05 401.71,608.04 C405.00,607.99 408.55,607.48 412.60,606.48 C415.85,605.69 423.06,604.01 426.25,604.43 C426.88,604.52 436.08,606.05 439.06,606.53 C441.13,606.85 446.07,606.76 448.48,605.99 C450.99,605.14 453.85,602.40 454.42,600.60 C454.88,598.98 454.69,595.23 453.76,593.74 C452.80,592.30 450.57,590.73 448.92,589.67" fill="none" stroke="rgb(28, 31, 136)" stroke-width="2.36" stroke-opacity="1.00" stroke-linejoin="round"/>
</g>
</svg>
