<?xml version="1.0" encoding="UTF-8" standalone="no"?>
<!DOCTYPE svg PUBLIC "-//W3C//DTD SVG 1.1//EN" "http://www.w3.org/Graphics/SVG/1.1/DTD/svg11.dtd">
<svg width="128.40" height="181.68" viewBox="0.00 0.00 535.00 757.00" xmlns="http://www.w3.org/2000/svg" xmlns:xlink="http://www.w3.org/1999/xlink">
<g stroke-linecap="round" id="107">
<path d="M207.00,169.87 C207.00,169.87 206.92,167.67 206.92,167.67 C205.64,169.23 202.62,173.61 198.77,178.59 C195.26,183.04 163.87,213.31 163.66,213.96 C161.92,219.69 156.85,230.16 153.72,236.47 C152.65,238.85 147.36,254.59 145.24,261.32 C144.39,264.12 143.22,269.82 143.94,270.83 C144.50,271.54 150.70,271.79 152.62,271.70 C153.68,271.64 156.20,271.49 157.66,271.40" fill="none" stroke="rgb(0, 255, 255)" stroke-width="2.58" stroke-opacity="1.00" stroke-linejoin="round"/>
<path d="M146.95,267.16" fill="none" stroke="rgb(0, 255, 255)" stroke-width="2.58" stroke-opacity="1.00" stroke-linejoin="round"/>
<path d="M146.95,267.62 C146.88,268.43 146.80,268.97 146.72,269.25 C146.64,269.54 146.43,269.95 146.10,270.50" fill="none" stroke="rgb(0, 255, 255)" stroke-width="2.58" stroke-opacity="1.00" stroke-linejoin="round"/>
<path d="M145.56,273.68 C145.56,273.68 145.56,272.75 145.56,272.75 C145.56,272.75 145.79,272.51 145.79,272.51 C145.79,272.51 146.49,272.98 146.49,272.98 C147.23,271.98 149.07,269.29 149.47,268.88 C150.91,267.42 158.35,264.85 161.12,263.39 C163.71,262.02 167.68,258.76 171.45,257.26 C180.69,253.44 193.38,248.08 194.05,247.90 C197.74,247.19 204.16,245.70 206.91,244.92 C208.87,244.41 216.03,242.35 219.13,241.44" fill="none" stroke="rgb(0, 255, 255)" stroke-width="2.58" stroke-opacity="1.00" stroke-linejoin="round"/>
<path d="M236.33,239.23 C236.33,239.23 234.47,237.56 234.47,237.56 C236.27,237.93 240.28,237.35 242.99,236.51 C245.05,235.85 249.85,234.06 250.69,234.05 C250.69,234.05 250.39,234.91 250.39,234.91" fill="none" stroke="rgb(0, 255, 255)" stroke-width="2.58" stroke-opacity="1.00" stroke-linejoin="round"/>
<path d="M312.21,222.94 C312.21,222.94 310.11,222.70 310.11,222.70 C310.11,222.70 309.88,222.24 309.88,222.24 C310.41,221.30 324.54,220.85 330.66,221.90 C331.49,222.04 335.39,222.94 337.11,223.34 C337.03,223.41 326.60,213.08 326.24,212.79 C325.91,212.52 325.14,212.03 323.94,211.32" fill="none" stroke="rgb(0, 255, 255)" stroke-width="2.58" stroke-opacity="1.00" stroke-linejoin="round"/>
<path d="M336.41,222.94 C335.79,222.96 334.91,222.89 334.08,222.70 C333.89,222.66 333.60,222.58 333.21,222.47 C335.84,222.41 340.77,224.03 341.29,224.14 C341.58,224.21 342.06,224.26 342.72,224.31 C335.49,218.87 329.58,210.83 328.65,209.97 C327.81,209.23 319.49,209.20 316.67,208.99 C312.38,208.64 297.91,205.41 292.91,204.81 C288.65,204.31 262.94,202.25 260.21,202.10 C257.34,201.97 252.31,203.04 248.81,204.71 C248.34,204.94 232.50,212.68 225.99,215.00 C221.12,216.75 185.12,231.44 184.27,231.81 C180.98,233.28 177.49,235.58 175.29,237.80 C171.73,241.48 159.02,257.14 158.88,257.41 C158.62,257.94 158.20,259.14 157.64,260.99" fill="none" stroke="rgb(0, 255, 255)" stroke-width="2.58" stroke-opacity="1.00" stroke-linejoin="round"/>
<path d="M255.41,199.66 C255.41,199.66 255.88,199.66 255.88,199.66 C255.90,199.66 249.72,198.25 247.49,197.15 C245.27,196.01 243.13,193.12 241.58,190.06 C240.59,188.14 237.95,184.23 236.69,182.91 C235.56,181.76 229.63,177.68 228.61,176.78 C227.79,176.04 225.91,173.69 225.44,173.08 C225.10,172.64 224.39,171.72 223.30,170.34" fill="none" stroke="rgb(0, 255, 255)" stroke-width="2.58" stroke-opacity="1.00" stroke-linejoin="round"/>
<path d="M220.50,171.73 C220.50,171.73 216.43,171.27 216.43,171.27 C219.41,169.98 248.43,168.39 250.65,168.54 C252.43,168.66 262.09,171.85 263.48,171.89 C263.88,171.90 264.60,171.85 265.63,171.73" fill="none" stroke="rgb(0, 255, 255)" stroke-width="2.58" stroke-opacity="1.00" stroke-linejoin="round"/>
<path d="M267.52,171.73 C267.52,171.73 265.89,172.20 265.89,172.20 C265.66,172.65 266.50,173.31 269.37,174.90 C272.02,176.38 275.14,177.97 281.09,180.85 C283.33,181.93 289.27,184.93 292.76,185.38 C295.92,185.76 300.93,186.57 303.19,187.07 C303.19,187.07 302.43,187.56 302.43,187.56" fill="none" stroke="rgb(0, 255, 255)" stroke-width="2.58" stroke-opacity="1.00" stroke-linejoin="round"/>
<path d="M310.34,190.35 C310.34,190.35 306.93,190.74 306.93,190.74 C306.82,191.71 309.26,193.82 310.25,194.62 C311.37,195.54 315.90,201.70 316.57,202.51 C318.53,204.81 323.35,208.39 324.06,209.16 C324.22,209.34 324.46,209.59 324.77,209.90" fill="none" stroke="rgb(0, 255, 255)" stroke-width="2.58" stroke-opacity="1.00" stroke-linejoin="round"/>
<path d="M327.57,196.87 C327.57,196.87 326.40,196.40 326.40,196.40 C326.40,196.40 325.75,196.71 325.75,196.71 C327.64,200.32 330.83,214.14 332.81,219.71 C332.90,219.95 333.02,220.25 333.15,220.61" fill="none" stroke="rgb(0, 255, 255)" stroke-width="2.58" stroke-opacity="1.00" stroke-linejoin="round"/>
<path d="M258.21,195.47 C258.14,195.52 258.06,195.52 257.97,195.47 C257.89,195.43 257.68,195.27 257.35,195.01 C257.34,193.81 257.47,193.07 258.08,191.85 C259.51,188.99 259.97,187.79 259.83,187.33 C258.45,186.87 256.87,186.87 255.13,187.70 C250.73,189.83 236.57,201.98 231.49,206.26 C223.84,213.09 221.31,215.50 220.69,216.11 C220.69,216.11 222.82,213.76 222.82,213.76 C222.82,213.76 220.83,214.76 220.83,214.76 C221.07,212.20 237.50,186.71 237.76,185.99 C236.04,185.26 230.47,189.90 220.41,199.11 C202.86,214.80 196.95,220.88 194.66,222.85 C194.52,222.70 203.75,209.33 207.38,203.72 C217.40,187.56 219.06,180.65 218.96,179.75 C218.08,179.69 208.18,190.81 200.50,200.14 C195.61,206.24 185.19,219.64 183.20,222.01 C181.08,224.50 177.68,227.86 174.79,230.40 C174.79,230.40 197.31,187.87 197.31,187.87 C193.84,191.55 185.21,205.46 181.39,211.93 C174.20,224.52 167.54,238.49 166.78,239.81 C166.78,239.81 166.47,239.19 166.47,239.19" fill="none" stroke="rgb(0, 255, 255)" stroke-width="2.58" stroke-opacity="1.00" stroke-linejoin="round"/>
<path d="M171.62,215.49 C171.62,215.49 172.56,215.11 172.56,215.11 C168.43,223.00 163.14,238.70 161.91,241.92 C159.07,249.32 152.18,261.95 152.11,261.15 C152.11,261.15 154.41,256.47 154.41,256.47" fill="none" stroke="rgb(0, 255, 255)" stroke-width="2.58" stroke-opacity="1.00" stroke-linejoin="round"/>
<path d="M153.47,262.04 C153.47,262.04 150.68,264.60 150.68,264.60 C152.58,262.53 156.99,257.76 159.50,255.07 C160.73,253.78 162.75,251.65 163.53,250.82" fill="none" stroke="rgb(0, 255, 255)" stroke-width="2.58" stroke-opacity="1.00" stroke-linejoin="round"/>
<path d="M158.13,265.30 C158.13,265.30 156.26,266.23 156.26,266.23 C158.14,264.41 173.28,248.61 177.72,244.69 C181.31,241.55 187.66,235.73 187.97,235.46 C191.38,232.55 192.78,232.26 193.31,232.26 C193.03,234.45 192.80,235.46 192.22,236.30 C185.10,246.76 184.30,248.11 183.85,249.07 C183.85,249.07 207.07,229.46 207.07,229.46 C207.86,231.02 200.32,243.26 199.95,244.11 C203.02,242.07 207.86,238.13 210.26,236.41 C212.66,234.71 216.65,232.23 217.63,231.63" fill="none" stroke="rgb(0, 255, 255)" stroke-width="2.58" stroke-opacity="1.00" stroke-linejoin="round"/>
<path d="M235.40,230.85 C235.40,230.85 234.47,230.72 234.47,230.72 C236.86,229.61 238.65,228.88 239.79,228.74 C240.22,228.69 241.23,228.62 242.84,228.52" fill="none" stroke="rgb(0, 255, 255)" stroke-width="2.58" stroke-opacity="1.00" stroke-linejoin="round"/>
<path d="M281.02,190.82 C281.02,190.82 281.48,190.35 281.48,190.35 C281.48,190.35 281.48,189.89 281.48,189.89 C278.35,191.77 274.92,194.16 272.53,196.38 C270.41,198.37 266.83,202.24 264.37,205.01" fill="none" stroke="rgb(0, 255, 255)" stroke-width="2.58" stroke-opacity="1.00" stroke-linejoin="round"/>
<path d="M218.17,219.21 C218.17,219.21 217.71,219.21 217.71,219.21 C217.64,219.18 220.66,224.26 222.29,228.16 C223.43,230.94 224.85,236.05 226.32,242.08 C227.16,245.47 231.29,257.35 233.06,262.88 C234.57,267.43 243.51,300.90 244.23,302.81 C244.23,302.81 244.71,303.00 244.71,303.00" fill="none" stroke="rgb(0, 255, 255)" stroke-width="2.58" stroke-opacity="1.00" stroke-linejoin="round"/>
<path d="M225.16,217.82 C225.16,217.82 225.16,218.05 225.16,218.05 C225.16,218.05 224.51,218.37 224.51,218.37 C224.51,218.37 224.23,218.75 224.23,218.75 C224.95,218.74 225.37,219.12 225.88,220.60 C230.34,233.57 239.11,258.52 242.75,272.59 C244.63,280.43 247.86,295.59 249.58,303.31 C252.21,314.04 255.69,324.65 256.79,328.34 C256.79,328.34 256.81,328.24 256.81,328.24" fill="none" stroke="rgb(0, 255, 255)" stroke-width="2.58" stroke-opacity="1.00" stroke-linejoin="round"/>
<path d="M247.97,316.04 C249.46,318.84 252.56,329.41 252.68,329.77 C252.81,330.15 253.03,330.71 253.34,331.44" fill="none" stroke="rgb(0, 255, 255)" stroke-width="2.58" stroke-opacity="1.00" stroke-linejoin="round"/>
<path d="M257.74,337.45 C257.74,337.45 257.04,337.68 257.04,337.68 C256.84,338.34 256.72,339.13 256.94,339.92 C257.28,341.16 257.65,342.15 258.04,342.89 C258.23,343.25 258.54,343.58 258.96,343.88" fill="none" stroke="rgb(0, 255, 255)" stroke-width="2.58" stroke-opacity="1.00" stroke-linejoin="round"/>
<path d="M261.93,339.31 C261.58,339.57 261.36,339.75 261.27,339.84 C261.18,339.93 261.09,340.07 261.00,340.24 C260.99,340.23 261.38,340.82 261.66,341.45 C262.09,342.42 263.09,344.94 263.33,345.36" fill="none" stroke="rgb(0, 255, 255)" stroke-width="2.58" stroke-opacity="1.00" stroke-linejoin="round"/>
<path d="M259.60,357.93 C259.60,357.93 258.21,357.93 258.21,357.93 C258.20,365.34 258.15,386.69 258.22,387.45 C258.46,389.86 258.99,391.74 259.42,391.78 C260.43,391.69 261.97,389.66 262.27,387.93 C262.65,385.61 262.87,359.78 262.86,357.45 C262.86,357.45 262.86,379.14 262.86,379.14" fill="none" stroke="rgb(0, 255, 255)" stroke-width="2.58" stroke-opacity="1.00" stroke-linejoin="round"/>
<path d="M257.28,337.45 C257.28,337.45 257.04,337.45 257.04,337.45 C257.04,337.45 256.81,337.68 256.81,337.68 C256.78,337.85 256.78,338.02 256.81,338.19 C256.84,338.37 256.93,338.81 257.09,339.50" fill="none" stroke="rgb(0, 255, 255)" stroke-width="2.58" stroke-opacity="1.00" stroke-linejoin="round"/>
<path d="M258.21,207.58 C258.21,207.58 256.56,208.20 256.56,208.20 C255.26,212.42 254.79,226.42 255.84,230.08 C258.19,238.01 261.51,243.30 261.76,243.27 C261.67,241.14 260.50,235.42 260.15,233.16 C259.85,231.14 259.15,223.76 260.32,221.83 C260.72,221.19 262.35,219.74 263.14,217.88 C263.14,217.88 262.29,224.57 262.29,224.57 C262.29,224.57 268.61,213.07 268.61,213.07 C268.61,213.07 268.35,220.29 268.35,220.29 C268.35,220.29 269.38,219.21 269.38,219.21" fill="none" stroke="rgb(0, 255, 0)" stroke-width="2.58" stroke-opacity="1.00" stroke-linejoin="round"/>
<path d="M271.71,213.16 C271.71,215.66 271.69,224.83 271.77,225.44 C271.82,225.83 271.98,226.34 272.25,226.97 C272.25,226.97 272.57,225.02 272.57,225.02" fill="none" stroke="rgb(0, 255, 0)" stroke-width="2.58" stroke-opacity="1.00" stroke-linejoin="round"/>
<path d="M277.29,208.97 C276.73,210.54 276.37,212.04 276.22,213.88 C275.89,218.15 275.95,231.07 276.45,232.53 C276.83,230.26 276.85,224.46 277.08,222.00 C277.39,218.94 279.86,211.28 280.58,210.48 C280.86,210.17 281.53,209.66 282.61,208.95" fill="none" stroke="rgb(0, 255, 0)" stroke-width="2.58" stroke-opacity="1.00" stroke-linejoin="round"/>
<path d="M282.88,210.37 C282.88,210.37 282.18,210.37 282.18,210.37 C281.57,211.50 281.39,212.82 281.62,215.60 C281.99,219.73 282.49,225.19 282.63,226.52 C282.63,226.52 283.22,226.82 283.22,226.82" fill="none" stroke="rgb(0, 255, 0)" stroke-width="2.58" stroke-opacity="1.00" stroke-linejoin="round"/>
<path d="M288.46,215.95 C288.46,215.95 287.77,215.95 287.77,215.95 C287.77,215.95 287.53,216.19 287.53,216.19 C287.54,217.12 287.91,219.40 288.36,220.46 C288.52,220.84 288.84,221.34 289.33,221.94" fill="none" stroke="rgb(0, 255, 0)" stroke-width="2.58" stroke-opacity="1.00" stroke-linejoin="round"/>
<path d="M295.45,215.49 C294.43,215.77 293.81,215.97 293.59,216.07 C293.36,216.17 293.20,216.33 293.12,216.54 C295.06,218.26 297.41,220.88 298.32,222.95 C299.06,224.64 300.59,229.54 300.95,230.69 C300.95,230.69 300.57,229.92 300.57,229.92" fill="none" stroke="rgb(0, 255, 0)" stroke-width="2.58" stroke-opacity="1.00" stroke-linejoin="round"/>
<path d="M305.22,208.51 C305.22,208.51 305.22,208.04 305.22,208.04 C304.77,208.33 304.75,210.58 305.75,214.52 C306.70,218.32 307.08,223.31 306.83,225.92 C306.31,230.84 302.91,239.83 301.99,240.59 C301.99,240.59 301.50,239.23 301.50,239.23" fill="none" stroke="rgb(0, 255, 0)" stroke-width="2.58" stroke-opacity="1.00" stroke-linejoin="round"/>
<path d="M303.36,236.44 C303.36,236.59 303.36,236.75 303.36,236.90 C303.36,237.06 303.36,237.21 303.36,237.37 C303.27,237.18 300.05,243.32 298.26,245.53 C298.15,245.66 291.25,252.80 290.65,253.44 C288.72,255.46 285.08,258.18 282.10,258.86 C280.40,259.20 276.92,257.98 273.47,255.30 C272.41,254.47 268.88,251.32 267.20,249.79 C265.36,248.10 263.33,246.08 262.36,244.99 C262.11,244.71 261.82,244.34 261.47,243.88" fill="none" stroke="rgb(0, 255, 0)" stroke-width="2.58" stroke-opacity="1.00" stroke-linejoin="round"/>
<path d="M266.59,236.90 C266.59,236.90 264.29,236.90 264.29,236.90 C265.08,236.81 273.22,233.45 273.38,233.45 C273.50,233.45 273.85,233.49 274.43,233.57" fill="none" stroke="rgb(0, 255, 0)" stroke-width="2.58" stroke-opacity="1.00" stroke-linejoin="round"/>
<path d="M267.52,236.90 C267.52,236.90 267.52,237.13 267.52,237.13 C266.78,237.95 266.58,238.21 266.59,238.59 C266.62,239.86 266.83,240.61 267.43,241.62 C269.34,241.46 270.52,241.08 271.44,240.22 C272.13,239.54 272.65,238.38 272.61,237.43 C272.59,237.09 272.49,236.32 272.29,235.11" fill="none" stroke="rgb(0, 255, 0)" stroke-width="2.58" stroke-opacity="1.00" stroke-linejoin="round"/>
<path d="M264.26,228.99 C264.26,228.99 263.10,229.92 263.10,229.92 C263.10,229.92 262.94,229.92 262.94,229.92 C262.96,230.03 268.32,228.43 269.43,228.15 C269.85,228.03 270.75,227.75 272.13,227.31" fill="none" stroke="rgb(0, 255, 0)" stroke-width="2.58" stroke-opacity="1.00" stroke-linejoin="round"/>
<path d="M285.21,224.80 C285.21,224.80 283.34,224.80 283.34,224.80 C286.93,224.72 296.27,223.08 296.62,223.02 C296.69,223.00 296.78,222.97 296.86,222.94" fill="none" stroke="rgb(0, 255, 0)" stroke-width="2.58" stroke-opacity="1.00" stroke-linejoin="round"/>
<path d="M284.74,231.32 C284.66,231.32 284.59,231.32 284.51,231.32 C284.29,231.32 284.08,231.32 283.86,231.32 C283.86,231.32 301.26,227.66 301.26,227.66 C301.26,227.66 299.27,228.03 299.27,228.03" fill="none" stroke="rgb(0, 255, 0)" stroke-width="2.58" stroke-opacity="1.00" stroke-linejoin="round"/>
<path d="M287.07,231.78 C287.06,232.07 287.06,232.29 287.07,232.43 C287.07,232.58 287.09,232.86 287.12,233.28 C287.12,233.28 288.09,234.39 288.09,234.39 C293.17,235.18 295.69,232.01 296.01,231.10 C295.84,230.30 295.58,229.70 295.19,229.39 C295.09,229.32 294.91,229.20 294.63,229.05" fill="none" stroke="rgb(0, 255, 0)" stroke-width="2.58" stroke-opacity="1.00" stroke-linejoin="round"/>
<path d="M278.69,241.09 C278.69,241.09 278.22,241.09 278.22,241.09 C278.31,241.21 278.41,241.31 278.53,241.39 C278.66,241.47 278.98,241.65 279.49,241.91" fill="none" stroke="rgb(0, 255, 0)" stroke-width="2.58" stroke-opacity="1.00" stroke-linejoin="round"/>
<path d="M280.09,248.07 C280.09,248.07 277.76,249.00 277.76,249.00 C277.76,249.00 288.38,245.75 288.38,245.75 C288.38,245.75 288.00,245.75 288.00,245.75" fill="none" stroke="rgb(0, 255, 0)" stroke-width="2.58" stroke-opacity="1.00" stroke-linejoin="round"/>
<path d="M274.03,255.52 C274.03,255.52 273.34,255.68 273.34,255.68 C273.13,256.67 273.21,257.47 273.78,259.16 C274.63,261.74 275.45,266.30 275.47,266.39 C275.54,266.66 275.67,267.07 275.88,267.63" fill="none" stroke="rgb(0, 255, 0)" stroke-width="2.58" stroke-opacity="1.00" stroke-linejoin="round"/>
<path d="M295.91,247.61 C295.91,247.61 294.05,247.67 294.05,247.67 C294.05,247.67 296.82,264.82 296.82,264.82 C296.82,264.82 297.31,264.83 297.31,264.83" fill="none" stroke="rgb(0, 255, 0)" stroke-width="2.58" stroke-opacity="1.00" stroke-linejoin="round"/>
<path d="M301.50,262.04 C301.50,262.04 300.38,260.71 300.38,260.71 C299.04,261.38 288.35,272.14 285.60,276.16 C284.80,277.34 283.99,278.27 283.03,279.16 C282.98,279.14 282.93,279.07 282.87,278.94 C282.81,278.82 282.66,278.46 282.41,277.87" fill="none" stroke="rgb(0, 255, 0)" stroke-width="2.58" stroke-opacity="1.00" stroke-linejoin="round"/>
<path d="M277.29,247.61 C277.29,247.61 276.59,248.77 276.59,248.77 C276.59,248.77 275.90,249.00 275.90,249.00 C281.11,247.27 286.67,246.23 287.95,245.50 C288.05,245.44 288.21,245.37 288.42,245.30" fill="none" stroke="rgb(0, 255, 0)" stroke-width="2.58" stroke-opacity="1.00" stroke-linejoin="round"/>
<path d="M276.83,246.68 C276.83,246.68 277.29,246.68 277.29,246.68" fill="none" stroke="rgb(0, 255, 0)" stroke-width="2.58" stroke-opacity="1.00" stroke-linejoin="round"/>
<path d="M270.31,252.26 C270.31,252.26 269.15,252.96 269.15,252.96 C268.94,253.33 268.61,256.50 267.20,258.81 C266.50,259.92 255.05,272.37 251.29,276.44 C252.69,276.53 253.63,276.35 254.86,275.59 C257.49,273.95 263.21,270.04 265.93,267.80 C267.27,266.69 268.85,265.24 271.07,263.13" fill="none" stroke="rgb(0, 255, 0)" stroke-width="2.58" stroke-opacity="1.00" stroke-linejoin="round"/>
<path d="M272.17,263.44 C271.90,264.10 270.62,265.00 269.74,265.94 C269.45,266.21 263.74,270.89 263.18,271.87 C262.39,273.31 262.10,275.11 262.49,276.48 C263.42,279.54 265.12,283.94 265.66,285.31" fill="none" stroke="rgb(0, 255, 0)" stroke-width="2.58" stroke-opacity="1.00" stroke-linejoin="round"/>
<path d="M274.97,267.16 C274.97,267.16 274.03,267.16 274.03,267.16 C274.08,268.54 278.24,285.00 277.97,287.95 C277.87,288.89 268.33,301.48 267.05,302.29 C267.05,302.29 260.93,293.17 260.93,293.17 C262.37,290.76 263.79,286.97 264.00,283.33 C264.16,279.95 262.76,275.89 261.42,274.54 C261.25,274.38 260.94,274.13 260.49,273.78 C260.23,275.21 261.01,294.59 260.63,297.94 C260.57,298.46 260.38,299.53 260.07,301.14" fill="none" stroke="rgb(0, 255, 0)" stroke-width="2.58" stroke-opacity="1.00" stroke-linejoin="round"/>
<path d="M242.85,297.42 C241.84,297.41 241.22,297.43 240.97,297.46 C240.27,297.56 237.41,299.51 236.26,300.57 C235.58,301.23 234.01,305.95 233.56,309.26 C233.22,311.90 233.16,317.32 233.30,317.71 C233.40,317.97 233.72,318.33 234.24,318.79" fill="none" stroke="rgb(0, 255, 0)" stroke-width="2.58" stroke-opacity="1.00" stroke-linejoin="round"/>
<path d="M236.79,319.76 C236.79,319.76 234.00,321.39 234.00,321.39 C234.00,321.39 233.71,321.27 233.71,321.27 C233.71,321.27 244.85,308.30 244.85,308.30 C244.85,308.30 244.78,308.49 244.78,308.49" fill="none" stroke="rgb(0, 255, 0)" stroke-width="2.58" stroke-opacity="1.00" stroke-linejoin="round"/>
<path d="M237.26,319.76 C237.26,319.76 234.66,319.99 234.66,319.99 C235.08,320.23 249.23,328.41 249.76,329.35 C249.86,329.53 250.05,330.02 250.33,330.80" fill="none" stroke="rgb(0, 255, 0)" stroke-width="2.58" stroke-opacity="1.00" stroke-linejoin="round"/>
<path d="M259.60,318.83 C259.60,318.83 257.28,318.83 257.28,318.83 C258.95,318.90 265.36,319.68 265.63,319.75 C267.81,320.35 274.19,323.54 277.27,325.10 C281.42,327.23 282.81,328.07 284.73,330.52 C286.53,332.80 290.72,334.73 292.57,335.50 C292.57,335.50 291.79,334.72 291.79,334.72" fill="none" stroke="rgb(0, 255, 0)" stroke-width="2.58" stroke-opacity="1.00" stroke-linejoin="round"/>
<path d="M288.93,332.79 C288.93,332.79 288.46,332.10 288.46,332.10 C288.54,331.91 299.59,319.60 303.23,313.91 C304.95,311.21 310.03,301.67 310.54,300.78 C310.84,300.28 313.98,296.11 314.33,294.88 C314.33,294.88 314.11,294.22 314.11,294.22" fill="none" stroke="rgb(0, 255, 0)" stroke-width="2.58" stroke-opacity="1.00" stroke-linejoin="round"/>
<path d="M298.71,287.18 C298.71,287.18 300.57,284.96 300.57,284.96 C300.57,284.96 300.38,284.85 300.38,284.85 C299.52,285.14 298.53,287.23 298.13,290.20 C297.89,291.99 297.81,295.19 297.72,296.41 C297.59,297.81 296.75,298.69 295.23,299.40 C290.31,301.55 283.99,306.18 275.18,313.26 C272.16,315.69 267.50,319.72 267.14,319.92 C266.84,320.09 266.19,320.35 265.20,320.69" fill="none" stroke="rgb(0, 255, 0)" stroke-width="2.58" stroke-opacity="1.00" stroke-linejoin="round"/>
<path d="M276.83,270.88 C276.83,270.88 273.69,270.88 273.69,270.88 C275.68,273.02 280.04,276.38 282.17,277.98 C282.55,278.28 283.32,278.93 284.48,279.94" fill="none" stroke="rgb(0, 255, 0)" stroke-width="2.58" stroke-opacity="1.00" stroke-linejoin="round"/>
<path d="M312.21,272.75 C312.21,272.75 311.15,272.75 311.15,272.75 C308.73,275.60 304.29,281.78 302.90,283.33 C301.68,284.68 297.58,288.41 297.37,288.67 C297.21,288.87 297.10,289.13 297.05,289.45" fill="none" stroke="rgb(0, 255, 0)" stroke-width="2.58" stroke-opacity="1.00" stroke-linejoin="round"/>
<path d="M301.50,262.04 C301.50,262.04 299.40,262.74 299.40,262.74 C299.40,262.74 299.52,263.26 299.52,263.26 C304.81,265.15 312.51,268.87 318.60,273.20 C320.62,274.61 325.94,275.30 329.66,275.29 C334.85,275.31 339.92,276.28 341.76,278.19 C343.80,280.45 345.07,286.32 344.68,289.24 C343.93,294.24 340.15,303.65 337.39,307.79 C336.09,309.72 318.88,331.76 313.93,336.39 C311.13,338.99 305.53,343.43 303.66,345.25 C301.66,347.19 294.06,355.89 293.47,356.21 C292.47,356.13 284.64,351.21 274.27,346.44 C269.94,344.49 262.20,337.99 254.99,333.17 C254.35,332.74 253.72,332.30 253.09,331.86" fill="none" stroke="rgb(0, 255, 0)" stroke-width="2.58" stroke-opacity="1.00" stroke-linejoin="round"/>
<path d="M323.38,276.93 C323.38,276.93 324.77,276.47 324.77,276.47 C324.38,276.58 321.74,278.92 320.31,281.27 C319.56,282.49 317.92,285.84 316.86,288.11" fill="none" stroke="rgb(0, 255, 0)" stroke-width="2.58" stroke-opacity="1.00" stroke-linejoin="round"/>
<path d="M239.59,330.00 C239.59,330.00 238.19,330.07 238.19,330.07 C238.15,332.63 238.54,338.98 238.52,340.06 C238.47,342.99 236.09,355.26 235.94,357.72 C235.83,359.62 236.58,361.57 237.12,362.77 C237.22,363.09 236.44,365.17 236.15,366.47 C234.70,373.11 238.81,376.94 239.55,377.25 C241.58,373.90 243.67,370.94 246.60,368.03 C248.72,365.95 254.03,361.46 254.60,361.12 C254.90,360.94 255.33,360.81 255.88,360.72" fill="none" stroke="rgb(0, 255, 0)" stroke-width="2.58" stroke-opacity="1.00" stroke-linejoin="round"/>
<path d="M244.71,354.67 C244.71,354.67 242.46,356.07 242.46,356.07 C244.76,354.38 254.97,345.61 255.06,345.54 C255.41,345.25 256.04,344.69 256.95,343.87" fill="none" stroke="rgb(0, 255, 0)" stroke-width="2.58" stroke-opacity="1.00" stroke-linejoin="round"/>
<path d="M254.48,336.05 C254.23,336.21 253.51,336.52 253.32,337.12 C252.98,338.22 252.75,339.53 252.62,341.03 C252.55,341.89 252.87,344.44 252.99,345.37" fill="none" stroke="rgb(0, 255, 0)" stroke-width="2.58" stroke-opacity="1.00" stroke-linejoin="round"/>
<path d="M261.47,344.90 C260.10,344.83 258.64,345.03 257.66,345.54 C256.88,345.96 255.82,347.44 255.58,348.46 C255.12,350.64 256.89,356.91 257.83,357.78 C257.83,357.78 273.34,356.82 273.34,356.82 C273.93,354.65 273.87,352.84 273.05,350.19 C272.09,347.11 270.55,343.52 269.70,342.40 C269.16,341.70 268.28,341.19 267.46,340.97 C267.46,340.97 264.26,343.04 264.26,343.04" fill="none" stroke="rgb(0, 255, 0)" stroke-width="2.58" stroke-opacity="1.00" stroke-linejoin="round"/>
<path d="M266.12,346.29 C266.12,346.29 264.49,347.69 264.49,347.69 C264.49,347.69 264.49,348.39 264.49,348.39 C265.81,349.04 269.64,349.15 271.15,349.02 C271.66,348.97 272.27,348.85 272.99,348.65" fill="none" stroke="rgb(0, 255, 0)" stroke-width="2.58" stroke-opacity="1.00" stroke-linejoin="round"/>
<path d="M267.98,351.41 C267.98,351.41 266.82,352.58 266.82,352.58 C266.82,352.58 266.99,352.81 266.99,352.81 C268.89,352.90 270.73,353.07 271.49,353.28 C271.73,353.34 272.06,353.47 272.48,353.67" fill="none" stroke="rgb(0, 255, 0)" stroke-width="2.58" stroke-opacity="1.00" stroke-linejoin="round"/>
<path d="M281.48,358.86 C281.53,358.94 281.45,359.02 281.25,359.10 C280.73,359.28 278.81,359.77 278.48,359.79 C275.98,360.03 272.14,362.55 271.27,364.05 C271.48,364.48 272.42,369.31 272.53,370.55 C272.56,370.85 272.59,371.46 272.64,372.36" fill="none" stroke="rgb(0, 255, 0)" stroke-width="2.58" stroke-opacity="1.00" stroke-linejoin="round"/>
<path d="M273.10,373.29 C273.10,373.29 272.24,373.29 272.24,373.29 C272.24,373.29 281.96,368.81 281.96,368.81 C282.18,365.64 282.00,360.97 281.94,358.07 C281.91,357.69 281.81,357.48 281.64,357.45" fill="none" stroke="rgb(0, 255, 0)" stroke-width="2.58" stroke-opacity="1.00" stroke-linejoin="round"/>
<path d="M270.78,366.31 C270.47,366.31 270.16,366.31 269.85,366.31 C268.97,366.31 266.44,366.33 266.02,366.40 C265.81,366.44 265.67,366.53 265.62,366.69" fill="none" stroke="rgb(0, 255, 0)" stroke-width="2.58" stroke-opacity="1.00" stroke-linejoin="round"/>
<path d="M271.24,372.36 C270.34,373.00 269.79,373.39 269.61,373.53 C269.43,373.66 269.35,373.74 269.38,373.76 C267.74,374.65 266.73,375.19 266.33,375.37 C265.94,375.55 265.61,375.63 265.36,375.61" fill="none" stroke="rgb(0, 255, 0)" stroke-width="2.58" stroke-opacity="1.00" stroke-linejoin="round"/>
<path d="M253.55,369.10 C253.55,369.10 252.23,369.10 252.23,369.10 C251.13,368.72 253.23,377.38 253.69,378.59 C253.69,378.59 255.74,378.19 255.74,378.19" fill="none" stroke="rgb(0, 255, 0)" stroke-width="2.58" stroke-opacity="1.00" stroke-linejoin="round"/>
<path d="M286.14,365.84 C285.48,365.84 284.82,365.84 284.16,365.84 C283.91,365.84 283.65,365.84 283.40,365.84 C286.59,365.04 299.78,363.80 304.00,362.17 C308.97,360.19 317.98,353.78 319.92,351.98 C320.15,354.65 319.79,364.46 319.48,366.06 C319.16,367.59 318.13,368.75 316.84,369.23 C313.75,370.25 306.59,372.88 302.85,374.28 C296.72,376.53 291.16,378.14 288.19,378.13 C284.51,378.07 273.26,377.11 272.09,377.02 C271.38,378.21 270.58,379.14 269.00,380.48 C268.40,380.99 267.81,381.50 267.21,382.00" fill="none" stroke="rgb(0, 255, 0)" stroke-width="2.58" stroke-opacity="1.00" stroke-linejoin="round"/>
<path d="M324.77,325.35 C324.77,325.35 323.84,325.25 323.84,325.25 C323.84,325.25 324.14,321.24 324.14,321.24 C325.04,325.58 323.73,337.71 322.00,344.55 C321.68,345.75 321.37,346.95 321.05,348.16" fill="none" stroke="rgb(0, 255, 0)" stroke-width="2.58" stroke-opacity="1.00" stroke-linejoin="round"/>
<path d="M324.31,376.55 C324.31,376.55 322.45,376.98 322.45,376.98 C322.49,377.44 328.06,395.13 330.50,402.95 C341.48,442.47 346.64,465.68 353.54,491.15 C356.81,502.88 359.13,510.46 361.17,514.11 C362.29,516.11 364.36,521.41 364.17,521.79 C361.15,523.25 348.05,524.03 344.02,525.15 C331.79,528.61 322.57,530.09 319.31,530.90 C313.35,532.35 302.79,534.04 296.50,533.78 C288.79,533.50 274.01,533.89 270.74,533.12 C269.40,532.80 263.14,530.44 259.34,530.01 C258.12,529.88 247.45,529.69 246.13,529.72 C241.69,529.87 219.62,534.06 219.00,534.00 C218.40,533.34 217.57,532.51 217.76,531.97 C217.90,531.55 226.66,512.88 229.72,505.89 C232.61,499.26 237.14,488.04 240.16,479.33 C242.68,471.73 244.72,463.19 247.06,454.60 C249.97,444.07 252.03,433.82 253.07,429.87 C255.21,421.59 257.28,403.36 257.74,399.39 C257.83,398.72 258.94,391.35 259.14,390.05" fill="none" stroke="rgb(0, 255, 0)" stroke-width="2.58" stroke-opacity="1.00" stroke-linejoin="round"/>
<path d="M293.59,382.14 C293.39,382.37 282.21,399.77 280.55,402.18 C276.17,408.48 263.22,422.22 262.71,422.65 C262.39,422.92 261.75,423.37 260.79,424.01" fill="none" stroke="rgb(0, 255, 0)" stroke-width="2.58" stroke-opacity="1.00" stroke-linejoin="round"/>
<path d="M282.41,415.19 C281.44,415.17 280.86,415.24 280.53,415.67 C279.68,416.82 274.60,426.27 267.75,437.33 C253.28,460.52 249.50,467.05 247.41,471.83 C255.88,463.59 280.40,441.54 287.56,433.71 C289.81,431.21 293.04,426.71 294.18,425.00 C287.42,437.17 272.74,464.10 265.97,477.25 C258.27,492.77 257.40,499.26 257.53,499.88 C258.14,499.94 269.08,488.34 274.35,483.43 C281.01,477.32 290.64,469.63 293.39,468.29 C293.39,468.29 292.19,470.58 292.19,470.58" fill="none" stroke="rgb(0, 255, 0)" stroke-width="2.58" stroke-opacity="1.00" stroke-linejoin="round"/>
<path d="M288.00,498.98 C288.00,498.98 287.07,500.37 287.07,500.37 C288.39,498.75 297.47,490.44 302.70,483.59 C304.76,480.83 308.82,475.34 309.97,473.63 C309.97,473.63 308.30,475.06 308.30,475.06" fill="none" stroke="rgb(0, 255, 0)" stroke-width="2.58" stroke-opacity="1.00" stroke-linejoin="round"/>
<path d="M285.21,498.51 C285.19,498.47 285.19,498.39 285.21,498.28 C285.68,495.91 294.27,483.95 298.29,478.49 C300.59,475.45 308.60,461.06 312.33,454.26 C315.51,448.32 320.56,436.43 322.97,430.66 C323.09,430.36 323.21,430.06 323.34,429.76" fill="none" stroke="rgb(0, 255, 0)" stroke-width="2.58" stroke-opacity="1.00" stroke-linejoin="round"/>
<path d="M328.50,426.36 C328.53,427.16 328.07,445.85 327.63,449.93 C326.84,457.22 319.63,486.63 319.71,487.76 C319.73,488.03 319.83,488.61 320.01,489.50" fill="none" stroke="rgb(0, 255, 0)" stroke-width="2.58" stroke-opacity="1.00" stroke-linejoin="round"/>
<path d="M345.26,459.88 C345.18,460.45 344.94,461.10 344.29,462.44 C335.97,479.80 329.83,495.24 329.16,500.00 C330.25,499.22 333.00,495.79 335.61,493.16 C338.42,490.35 343.18,486.80 344.96,486.72 C346.00,486.73 347.56,487.95 348.05,489.17 C348.66,490.82 349.31,503.56 349.39,504.89" fill="none" stroke="rgb(0, 255, 0)" stroke-width="2.58" stroke-opacity="1.00" stroke-linejoin="round"/>
<path d="M321.05,381.67 C321.05,381.67 319.36,380.04 319.36,380.04 C316.92,383.08 314.98,388.53 313.75,392.07 C311.36,399.22 306.70,413.57 304.56,420.79 C299.60,438.87 299.10,445.34 299.01,447.96" fill="none" stroke="rgb(0, 255, 0)" stroke-width="2.58" stroke-opacity="1.00" stroke-linejoin="round"/>
<path d="M308.02,375.15 C308.28,374.32 308.44,373.82 308.48,373.64 C308.55,373.36 308.41,373.12 308.34,373.00 C306.90,373.97 305.18,378.73 304.07,381.87 C302.78,385.59 299.72,394.31 298.90,396.47 C298.33,397.95 297.38,400.36 297.02,401.28" fill="none" stroke="rgb(0, 255, 0)" stroke-width="2.58" stroke-opacity="1.00" stroke-linejoin="round"/>
<path d="M317.33,339.31 C316.60,339.80 316.14,340.16 315.93,340.38 C315.27,341.08 312.12,349.01 311.46,350.55 C310.08,353.75 308.36,356.60 307.65,357.71" fill="none" stroke="rgb(0, 255, 0)" stroke-width="2.58" stroke-opacity="1.00" stroke-linejoin="round"/>
<path d="M307.08,532.49 C306.97,533.66 306.61,537.18 306.62,537.56 C306.63,537.83 306.71,538.00 306.88,538.08" fill="none" stroke="rgb(0, 255, 0)" stroke-width="2.58" stroke-opacity="1.00" stroke-linejoin="round"/>
<path d="M324.31,533.42 C324.31,533.42 324.31,533.19 324.31,533.19 C324.31,533.19 323.18,532.69 323.18,532.69 C322.99,533.10 322.83,535.30 322.95,536.81 C322.98,537.19 323.07,537.52 323.21,537.81" fill="none" stroke="rgb(0, 255, 0)" stroke-width="2.58" stroke-opacity="1.00" stroke-linejoin="round"/>
<path d="M326.64,539.94 C325.62,540.45 324.89,540.92 324.48,540.87 C311.98,539.23 305.26,538.87 303.73,539.58 C303.71,540.52 310.24,591.72 310.29,594.47 C310.28,602.28 310.17,621.81 309.64,624.04 C309.06,626.37 300.96,647.89 300.00,651.06 C298.79,655.10 298.13,660.27 297.91,662.57 C297.72,664.89 298.51,670.83 300.11,671.77 C300.79,672.11 303.36,671.76 304.65,671.25 C307.39,670.10 311.15,665.47 312.55,663.05 C313.55,661.28 316.38,654.05 317.12,652.76 C318.37,650.59 323.48,646.41 324.32,645.46 C325.93,643.59 327.03,639.05 327.07,635.89 C327.17,626.41 324.72,584.26 324.94,576.62 C325.58,560.24 325.27,545.74 325.24,544.43 C325.24,544.09 325.24,543.52 325.24,542.73" fill="none" stroke="rgb(0, 255, 0)" stroke-width="2.58" stroke-opacity="1.00" stroke-linejoin="round"/>
<path d="M282.41,532.96 C281.46,533.96 281.77,537.63 282.95,541.68 C283.70,544.20 284.00,545.07 284.32,545.72 C284.32,545.72 284.96,545.40 284.96,545.40" fill="none" stroke="rgb(0, 255, 0)" stroke-width="2.58" stroke-opacity="1.00" stroke-linejoin="round"/>
<path d="M305.69,535.75 C305.21,535.69 304.34,536.11 303.99,536.19 C297.48,537.81 290.38,541.00 284.66,543.21 C284.30,543.36 283.57,543.69 282.48,544.19 C282.54,545.34 299.66,585.44 301.26,591.15 C302.13,594.27 304.69,606.03 305.41,609.87 C305.68,611.26 306.76,616.22 307.08,617.68" fill="none" stroke="rgb(0, 255, 0)" stroke-width="2.58" stroke-opacity="1.00" stroke-linejoin="round"/>
<path d="M299.64,552.98 C299.64,552.98 298.56,551.16 298.56,551.16 C298.34,551.63 296.52,564.29 295.98,567.43 C295.90,567.94 295.85,568.71 295.81,569.73" fill="none" stroke="rgb(0, 255, 0)" stroke-width="2.58" stroke-opacity="1.00" stroke-linejoin="round"/>
<path d="M303.83,567.41 C303.83,567.41 303.59,567.41 303.59,567.41 C303.46,567.26 303.04,568.94 302.90,570.61 C302.83,571.36 302.10,592.98 302.03,594.34 C302.03,594.34 302.33,594.49 302.33,594.49" fill="none" stroke="rgb(0, 255, 0)" stroke-width="2.58" stroke-opacity="1.00" stroke-linejoin="round"/>
<path d="M313.60,546.92 C313.60,546.92 312.90,546.92 312.90,546.92 C312.07,548.83 309.10,567.80 309.06,568.12 C309.02,568.55 308.98,569.31 308.95,570.41" fill="none" stroke="rgb(0, 255, 0)" stroke-width="2.58" stroke-opacity="1.00" stroke-linejoin="round"/>
<path d="M315.93,557.17 C314.96,557.97 314.39,558.45 314.22,558.60 C313.17,559.57 309.25,577.75 308.85,580.10 C308.28,583.51 308.29,586.21 308.30,587.41" fill="none" stroke="rgb(0, 255, 0)" stroke-width="2.58" stroke-opacity="1.00" stroke-linejoin="round"/>
<path d="M321.98,566.94 C321.56,567.02 319.96,567.24 319.62,567.76 C318.55,569.40 316.94,587.72 315.63,596.37 C315.09,599.98 314.37,604.82 314.18,606.04" fill="none" stroke="rgb(0, 255, 0)" stroke-width="2.58" stroke-opacity="1.00" stroke-linejoin="round"/>
<path d="M306.15,615.82 C306.15,615.82 306.15,615.35 306.15,615.35 C306.15,615.35 305.23,614.42 305.23,614.42 C305.02,614.61 304.31,620.76 303.99,623.90 C303.51,627.56 298.18,643.31 298.29,644.45 C298.33,644.95 298.63,645.96 299.17,647.47" fill="none" stroke="rgb(0, 255, 0)" stroke-width="2.58" stroke-opacity="1.00" stroke-linejoin="round"/>
<path d="M320.58,627.92 C320.58,627.92 318.89,627.92 318.89,627.92 C315.16,631.60 303.28,652.55 300.01,658.66 C300.01,658.66 301.58,657.19 301.58,657.19" fill="none" stroke="rgb(0, 255, 0)" stroke-width="2.58" stroke-opacity="1.00" stroke-linejoin="round"/>
<path d="M317.33,641.89 C316.08,642.85 314.88,643.31 314.63,643.63 C312.92,645.80 304.70,662.54 303.68,667.12 C303.68,667.12 305.31,664.83 305.31,664.83" fill="none" stroke="rgb(0, 255, 0)" stroke-width="2.58" stroke-opacity="1.00" stroke-linejoin="round"/>
<path d="M309.88,655.85 C309.92,656.30 309.76,657.26 309.41,658.06 C308.22,660.53 306.77,664.71 306.55,665.25 C306.41,665.61 306.16,666.16 305.81,666.89" fill="none" stroke="rgb(0, 255, 0)" stroke-width="2.58" stroke-opacity="1.00" stroke-linejoin="round"/>
<path d="M327.57,618.15 C327.57,618.15 326.64,618.15 326.64,618.15 C328.49,619.13 331.75,624.46 331.58,627.15 C331.47,628.33 329.98,630.45 328.94,631.09 C328.58,631.29 327.82,631.63 326.64,632.11" fill="none" stroke="rgb(0, 255, 0)" stroke-width="2.58" stroke-opacity="1.00" stroke-linejoin="round"/>
<path d="M253.09,279.73 C253.09,279.73 252.16,279.73 252.16,279.73 C253.09,280.59 254.10,285.04 254.80,291.51 C255.30,296.45 255.55,306.86 256.02,310.22 C256.02,310.22 256.60,310.52 256.60,310.52" fill="none" stroke="rgb(0, 0, 255)" stroke-width="2.58" stroke-opacity="1.00" stroke-linejoin="round"/>
<path d="M257.28,279.26 C257.28,279.26 256.81,278.40 256.81,278.40 C257.08,279.22 259.63,286.07 259.97,289.53 C260.56,295.82 260.55,309.74 261.00,316.07 C261.00,316.07 261.47,313.71 261.47,313.71" fill="none" stroke="rgb(0, 0, 255)" stroke-width="2.58" stroke-opacity="1.00" stroke-linejoin="round"/>
<path d="M256.81,278.33 C256.81,278.10 256.81,277.87 256.81,277.63 C256.81,277.27 256.81,276.91 256.81,276.55 C254.90,276.37 253.40,276.69 252.69,277.58 C252.40,277.95 252.28,278.43 252.32,279.02 C252.36,279.36 252.52,280.29 252.81,281.80" fill="none" stroke="rgb(0, 0, 255)" stroke-width="2.58" stroke-opacity="1.00" stroke-linejoin="round"/>
<path d="M246.57,372.83 C246.57,372.83 246.57,372.59 246.57,372.59 C246.57,372.59 246.80,372.36 246.80,372.36 C246.80,372.36 247.04,372.36 247.04,372.36" fill="none" stroke="rgb(0, 0, 255)" stroke-width="2.58" stroke-opacity="1.00" stroke-linejoin="round"/>
<path d="M247.97,371.43 C247.97,371.43 247.04,371.43 247.04,371.43 C247.10,371.53 246.30,380.07 242.88,391.13 C241.83,394.37 239.34,401.98 239.22,403.00 C239.06,404.77 242.32,410.13 244.00,412.88 C246.73,417.41 250.01,424.01 250.26,424.27 C250.48,424.49 250.95,424.72 251.69,424.96" fill="none" stroke="rgb(0, 0, 255)" stroke-width="2.58" stroke-opacity="1.00" stroke-linejoin="round"/>
<path d="M252.16,385.86 C252.16,385.86 251.69,385.40 251.69,385.40 C251.69,385.40 249.40,410.89 249.40,410.89 C249.40,410.89 253.35,402.69 253.35,402.69 C253.35,402.69 253.60,407.54 253.60,407.54" fill="none" stroke="rgb(0, 0, 255)" stroke-width="2.58" stroke-opacity="1.00" stroke-linejoin="round"/>
<path d="M261.93,393.31 C261.93,393.31 261.70,393.31 261.70,393.31 C261.70,393.31 261.00,394.08 261.00,394.08 C260.94,394.43 262.15,411.13 261.41,417.41 C260.93,421.26 259.42,428.39 258.76,429.31 C258.56,429.58 258.08,429.91 257.35,430.30 C255.81,430.06 254.39,429.12 253.20,427.30 C251.68,424.78 249.53,421.28 248.90,420.31" fill="none" stroke="rgb(0, 0, 255)" stroke-width="2.58" stroke-opacity="1.00" stroke-linejoin="round"/>
<path d="M222.83,325.81 C222.83,325.81 221.25,325.29 221.25,325.29 C221.25,325.29 220.97,324.88 220.97,324.88 C220.65,328.23 215.83,341.80 212.68,347.93 C205.90,360.96 204.92,363.06 200.58,374.11 C197.65,381.61 192.18,395.66 189.65,402.22 C187.71,407.39 183.75,423.32 182.94,426.26 C180.30,435.71 166.91,466.32 163.56,476.12 C158.54,491.23 150.60,512.53 145.28,526.81 C142.31,535.04 128.70,566.25 124.69,576.57 C112.94,606.08 90.12,651.91 88.19,656.54 C87.42,658.38 75.65,692.82 74.85,694.64 C73.71,697.20 72.30,699.88 71.54,701.00" fill="none" stroke="rgb(0, 153, 67)" stroke-width="2.58" stroke-opacity="1.00" stroke-linejoin="round"/>
<path d="M439.29,289.97 C439.29,289.97 436.11,288.57 436.11,288.57 C437.63,290.45 439.06,293.46 439.91,296.46 C440.86,299.95 443.01,337.22 443.60,350.19 C444.69,364.97 447.21,427.82 448.09,444.40 C448.17,446.95 448.23,463.56 448.33,470.60 C448.60,477.33 456.06,557.70 458.91,587.10 C459.70,598.08 460.85,632.36 461.38,648.67 C462.34,668.99 465.53,698.93 465.53,698.93 C465.47,699.20 465.26,699.74 464.89,700.54" fill="none" stroke="rgb(0, 153, 67)" stroke-width="2.58" stroke-opacity="1.00" stroke-linejoin="round"/>
<path d="M119.95,237.83 C119.95,237.83 118.79,237.83 118.79,237.83 C118.53,238.60 118.31,244.34 118.18,247.63 C118.10,249.81 118.16,252.33 118.32,254.20 C118.36,254.59 118.43,255.30 118.54,256.31" fill="none" stroke="rgb(229, 0, 16)" stroke-width="2.58" stroke-opacity="1.00" stroke-linejoin="round"/>
<path d="M139.97,278.80 C139.97,278.80 139.04,277.87 139.04,277.87 C139.11,278.78 139.33,281.39 139.48,282.73 C139.64,284.07 140.19,288.20 140.40,289.74" fill="none" stroke="rgb(229, 0, 16)" stroke-width="2.58" stroke-opacity="1.00" stroke-linejoin="round"/>
<path d="M106.45,326.74 C106.45,326.74 106.45,326.04 106.45,326.04 C106.45,326.04 105.99,326.00 105.99,326.00 C106.02,327.07 106.10,328.58 106.17,329.66 C106.36,333.30 106.71,340.37 106.87,343.80" fill="none" stroke="rgb(229, 0, 16)" stroke-width="2.58" stroke-opacity="1.00" stroke-linejoin="round"/>
<path d="M149.28,352.35 C149.28,352.35 147.31,352.62 147.31,352.62 C147.04,353.74 146.95,354.75 147.08,356.48 C147.37,359.94 147.96,366.48 148.26,369.55" fill="none" stroke="rgb(229, 0, 16)" stroke-width="2.58" stroke-opacity="1.00" stroke-linejoin="round"/>
<path d="M158.59,436.60 C158.59,436.60 157.66,437.43 157.66,437.43 C157.72,439.90 157.84,441.53 158.16,443.98 C158.73,448.65 158.96,452.26 159.01,455.82 C159.02,457.41 159.05,460.04 159.06,461.08" fill="none" stroke="rgb(229, 0, 16)" stroke-width="2.58" stroke-opacity="1.00" stroke-linejoin="round"/>
<path d="M106.92,509.68 C106.31,511.29 104.83,515.69 104.17,518.97 C104.04,519.66 103.43,523.16 103.22,524.39" fill="none" stroke="rgb(229, 0, 16)" stroke-width="2.58" stroke-opacity="1.00" stroke-linejoin="round"/>
<path d="M181.40,538.08 C181.40,538.16 181.33,538.23 181.17,538.31 C181.01,538.39 180.54,538.58 179.77,538.87 C179.36,539.74 178.81,541.59 178.40,543.69 C178.23,544.55 177.41,550.14 177.23,551.44" fill="none" stroke="rgb(229, 0, 16)" stroke-width="2.58" stroke-opacity="1.00" stroke-linejoin="round"/>
<path d="M409.03,246.21 C409.03,246.21 408.80,246.21 408.80,246.21 C408.29,248.15 407.65,257.94 407.63,258.83 C407.62,259.42 407.62,260.68 407.63,262.59" fill="none" stroke="rgb(229, 0, 16)" stroke-width="2.58" stroke-opacity="1.00" stroke-linejoin="round"/>
<path d="M348.51,208.04 C347.97,209.51 348.04,214.83 348.07,217.70 C348.09,220.48 348.15,222.08 348.32,225.23 C348.39,226.41 348.45,227.58 348.51,228.76" fill="none" stroke="rgb(229, 0, 16)" stroke-width="2.58" stroke-opacity="1.00" stroke-linejoin="round"/>
<path d="M458.37,186.16 C457.33,187.29 456.76,188.24 456.63,189.38 C456.54,190.19 456.45,193.66 456.51,194.49 C456.58,195.47 456.93,197.32 457.18,198.44" fill="none" stroke="rgb(229, 0, 16)" stroke-width="2.58" stroke-opacity="1.00" stroke-linejoin="round"/>
<path d="M471.41,278.33 C470.63,280.79 470.05,284.66 470.01,285.51 C469.99,286.04 469.99,287.24 470.01,289.09" fill="none" stroke="rgb(229, 0, 16)" stroke-width="2.58" stroke-opacity="1.00" stroke-linejoin="round"/>
<path d="M487.23,379.81 C487.23,380.73 487.23,381.65 487.23,382.56 C487.25,384.27 487.27,388.48 487.23,389.95 C487.20,391.41 487.00,394.76 486.92,395.97" fill="none" stroke="rgb(229, 0, 16)" stroke-width="2.58" stroke-opacity="1.00" stroke-linejoin="round"/>
<path d="M481.18,452.43 C480.72,452.92 480.27,453.34 480.25,453.87 C480.24,454.24 480.25,458.75 480.25,460.12 C480.25,461.49 480.25,464.47 480.25,466.09" fill="none" stroke="rgb(229, 0, 16)" stroke-width="2.58" stroke-opacity="1.00" stroke-linejoin="round"/>
</g>
</svg>
