<?xml version="1.0" encoding="UTF-8" standalone="no"?>
<!DOCTYPE svg PUBLIC "-//W3C//DTD SVG 1.1//EN" "http://www.w3.org/Graphics/SVG/1.1/DTD/svg11.dtd">
<svg width="128.40" height="181.68" viewBox="0.00 0.00 535.00 757.00" xmlns="http://www.w3.org/2000/svg" xmlns:xlink="http://www.w3.org/1999/xlink">
<g stroke-linecap="round" id="109">
<path d="M147.78,64.21 C146.65,64.45 144.30,65.36 143.44,66.17 C142.57,67.02 133.13,86.22 130.11,91.09 C127.35,95.50 114.12,113.57 113.21,115.03 C113.21,115.03 114.03,115.93 114.03,115.93" fill="none" stroke="rgb(229, 0, 16)" stroke-width="2.85" stroke-opacity="1.00" stroke-linejoin="round"/>
<path d="M132.09,118.63 C132.09,118.63 132.01,115.93 132.01,115.93 C132.01,115.93 118.93,182.65 118.93,182.65 C118.93,182.65 119.49,183.07 119.49,183.07" fill="none" stroke="rgb(229, 0, 16)" stroke-width="2.85" stroke-opacity="1.00" stroke-linejoin="round"/>
<path d="M171.80,95.09 C172.37,95.60 172.29,99.79 172.29,101.94 C172.28,108.00 172.28,122.59 172.29,131.12 C172.29,167.09 172.29,208.75 172.29,214.43 C172.29,215.71 172.29,217.78 172.29,218.57" fill="none" stroke="rgb(229, 0, 16)" stroke-width="2.85" stroke-opacity="1.00" stroke-linejoin="round"/>
<path d="M51.19,147.55 C51.19,147.55 51.68,147.72 51.68,147.72 C51.13,149.47 49.25,154.59 48.15,157.57 C45.88,163.93 41.58,176.46 39.54,182.63 C38.09,187.29 36.15,196.34 35.58,199.12" fill="none" stroke="rgb(229, 0, 16)" stroke-width="2.85" stroke-opacity="1.00" stroke-linejoin="round"/>
<path d="M227.69,119.61 C225.65,122.04 224.06,132.29 223.70,139.38 C223.12,155.87 222.34,180.61 222.30,186.48 C222.30,193.44 222.30,201.56 222.30,202.72" fill="none" stroke="rgb(229, 0, 16)" stroke-width="2.85" stroke-opacity="1.00" stroke-linejoin="round"/>
<path d="M278.19,150.98 C278.08,151.29 276.67,155.00 276.70,159.07 C276.70,166.69 276.71,182.78 276.71,191.25 C276.70,199.02 276.74,216.08 277.09,219.85 C277.15,220.50 277.26,221.39 277.42,222.53" fill="none" stroke="rgb(229, 0, 16)" stroke-width="2.85" stroke-opacity="1.00" stroke-linejoin="round"/>
<path d="M299.76,63.23 C299.76,63.23 298.29,62.25 298.29,62.25 C296.18,68.06 291.61,80.35 289.16,86.84 C288.42,88.88 287.03,92.84 286.36,94.76 C285.60,96.98 284.92,99.14 284.44,100.65" fill="none" stroke="rgb(229, 0, 16)" stroke-width="2.85" stroke-opacity="1.00" stroke-linejoin="round"/>
<path d="M351.73,91.17 C351.73,91.17 351.48,90.31 351.48,90.31 C351.15,90.07 348.91,89.55 345.09,94.54 C343.35,96.84 332.36,112.80 327.57,119.72 C322.19,127.16 312.35,139.95 311.77,140.77 C311.53,141.11 311.27,141.63 310.97,142.33" fill="none" stroke="rgb(229, 0, 16)" stroke-width="2.85" stroke-opacity="1.00" stroke-linejoin="round"/>
<path d="M373.30,105.88 C371.33,106.39 370.36,107.11 369.78,108.70 C368.58,112.07 357.88,146.36 352.18,161.93 C346.25,178.37 341.37,199.20 341.63,201.40 C341.70,201.94 342.01,203.15 342.55,205.02" fill="none" stroke="rgb(229, 0, 16)" stroke-width="2.85" stroke-opacity="1.00" stroke-linejoin="round"/>
<path d="M431.64,75.97 C431.64,75.97 431.64,76.22 431.64,76.22 C431.52,76.37 430.09,77.68 428.26,80.85 C427.92,81.44 416.87,101.46 413.58,106.90 C409.64,113.13 402.94,123.74 402.59,124.35 C401.55,126.15 400.40,128.34 399.90,129.46" fill="none" stroke="rgb(229, 0, 16)" stroke-width="2.85" stroke-opacity="1.00" stroke-linejoin="round"/>
<path d="M455.17,100.00 C454.16,99.94 452.41,101.97 450.53,106.59 C447.18,114.87 443.48,126.79 441.15,134.49 C438.73,142.89 434.16,159.11 432.01,166.94 C430.85,171.40 427.68,187.53 426.33,194.94 C425.84,197.92 425.30,206.02 425.27,207.04 C425.25,207.44 425.25,207.94 425.27,208.54" fill="none" stroke="rgb(229, 0, 16)" stroke-width="2.85" stroke-opacity="1.00" stroke-linejoin="round"/>
<path d="M393.89,186.28 C393.89,186.28 392.17,185.39 392.17,185.39 C391.82,186.92 384.10,235.73 383.14,240.91 C383.10,241.21 383.08,241.64 383.08,242.20" fill="none" stroke="rgb(229, 0, 16)" stroke-width="2.85" stroke-opacity="1.00" stroke-linejoin="round"/>
<path d="M352.71,242.66 C352.71,242.66 352.22,240.95 352.22,240.95 C352.30,247.87 352.47,261.74 352.44,269.23 C352.25,278.10 350.94,289.01 350.05,292.63 C350.05,292.63 350.26,291.69 350.26,291.69" fill="none" stroke="rgb(229, 0, 16)" stroke-width="2.85" stroke-opacity="1.00" stroke-linejoin="round"/>
<path d="M504.20,144.12 C504.20,144.12 503.58,141.42 503.58,141.42 C500.88,143.36 494.52,152.21 488.33,161.45 C479.39,175.18 467.78,194.09 467.63,194.74 C467.57,195.04 467.62,195.49 467.79,196.07" fill="none" stroke="rgb(229, 0, 16)" stroke-width="2.85" stroke-opacity="1.00" stroke-linejoin="round"/>
<path d="M477.23,218.64 C475.75,219.85 475.31,220.28 475.27,220.81 C474.85,227.21 460.41,295.76 460.20,299.33 C460.16,300.13 460.12,300.93 460.07,301.73" fill="none" stroke="rgb(229, 0, 16)" stroke-width="2.85" stroke-opacity="1.00" stroke-linejoin="round"/>
<path d="M85.51,111.76 C85.51,111.76 82.74,108.35 82.74,108.35 C82.97,111.01 83.50,117.78 83.42,120.87 C83.28,125.27 82.13,140.88 81.59,147.91 C81.16,156.21 81.40,169.28 81.59,176.14 C81.56,184.47 81.09,200.37 81.16,202.92 C81.16,202.92 81.85,203.06 81.85,203.06" fill="none" stroke="rgb(255, 255, 0)" stroke-width="2.85" stroke-opacity="1.00" stroke-linejoin="round"/>
<path d="M85.51,112.74 C85.51,112.74 84.78,112.74 84.78,112.74 C84.78,112.74 84.53,112.53 84.53,112.53 C84.36,111.97 87.91,109.18 90.43,108.24 C92.57,107.50 111.53,107.30 116.39,106.56 C125.21,105.22 160.68,104.45 176.79,104.05 C186.65,103.77 195.51,104.17 202.41,104.48 C204.02,104.57 221.10,106.02 231.11,106.01 C238.77,105.89 252.61,105.60 261.31,105.09 C274.07,104.23 277.83,104.13 290.05,104.76 C294.21,104.98 299.35,104.91 299.78,105.42 C300.02,107.52 299.85,144.07 298.15,160.65 C297.05,170.78 296.84,175.86 296.81,187.45 C296.81,203.59 296.34,236.68 296.39,237.41 C296.43,237.88 296.57,238.65 296.82,239.72" fill="none" stroke="rgb(255, 255, 0)" stroke-width="2.85" stroke-opacity="1.00" stroke-linejoin="round"/>
<path d="M311.52,330.91 C311.52,330.91 310.05,329.04 310.05,329.04 C310.27,330.59 312.39,371.83 313.26,389.04 C313.99,404.15 315.10,479.78 315.40,483.67 C315.40,483.67 315.45,481.91 315.45,481.91" fill="none" stroke="rgb(255, 255, 0)" stroke-width="2.85" stroke-opacity="1.00" stroke-linejoin="round"/>
<path d="M298.29,464.75 C298.29,464.75 297.36,466.22 297.36,466.22 C298.16,452.80 298.31,420.21 299.04,413.36 C300.23,402.67 300.51,394.70 300.10,383.78 C299.72,376.29 298.98,361.83 298.62,354.86 C298.47,352.30 297.95,345.73 297.12,344.52 C294.87,343.17 280.83,343.55 274.40,344.81 C265.78,346.54 260.60,346.39 257.84,346.17 C257.84,346.17 258.09,346.11 258.09,346.11" fill="none" stroke="rgb(255, 255, 0)" stroke-width="2.85" stroke-opacity="1.00" stroke-linejoin="round"/>
<path d="M280.64,396.12 C280.64,396.12 279.95,394.52 279.95,394.52 C279.95,394.52 276.68,394.39 276.68,394.39 C275.53,395.17 275.34,399.60 275.57,413.98 C275.73,422.55 275.94,433.93 276.28,436.87 C278.34,435.84 279.49,435.17 279.92,434.54 C281.09,432.77 281.53,427.52 281.49,424.26 C281.07,410.04 280.63,395.03 280.63,393.81 C280.63,393.81 280.23,394.02 280.23,394.02" fill="none" stroke="rgb(255, 255, 0)" stroke-width="2.85" stroke-opacity="1.00" stroke-linejoin="round"/>
<path d="M280.15,399.55 C279.49,400.06 278.77,400.83 278.47,401.02 C278.32,401.11 274.66,403.37 274.41,403.84 C274.41,403.84 275.46,404.79 275.46,404.79" fill="none" stroke="rgb(255, 255, 0)" stroke-width="2.85" stroke-opacity="1.00" stroke-linejoin="round"/>
<path d="M279.17,406.90 C278.19,408.21 277.73,408.96 277.17,410.25 C275.18,414.68 274.92,415.39 274.90,415.77 C274.90,415.77 275.53,416.54 275.53,416.54" fill="none" stroke="rgb(255, 255, 0)" stroke-width="2.85" stroke-opacity="1.00" stroke-linejoin="round"/>
<path d="M279.66,415.73 C278.16,418.17 276.26,420.73 275.78,421.67 C275.59,422.03 275.43,422.59 275.29,423.37 C275.29,423.37 277.50,424.06 277.50,424.06" fill="none" stroke="rgb(255, 255, 0)" stroke-width="2.85" stroke-opacity="1.00" stroke-linejoin="round"/>
<path d="M279.17,423.57 C279.15,424.08 278.48,426.34 278.21,427.24 C278.02,427.88 277.24,430.85 277.13,431.22 C277.05,431.48 276.91,431.87 276.72,432.40" fill="none" stroke="rgb(255, 255, 0)" stroke-width="2.85" stroke-opacity="1.00" stroke-linejoin="round"/>
<path d="M178.17,347.09 C178.70,347.38 179.15,347.54 179.52,347.58 C179.89,347.62 180.70,347.59 181.95,347.50 C181.85,346.16 176.81,344.55 172.74,344.65 C168.77,344.78 161.17,345.89 159.38,346.11 C153.27,346.81 140.41,344.65 138.91,344.88 C138.46,344.95 137.99,345.20 137.48,345.62" fill="none" stroke="rgb(255, 255, 0)" stroke-width="2.85" stroke-opacity="1.00" stroke-linejoin="round"/>
<path d="M120.32,380.43 C120.32,380.43 119.59,380.67 119.59,380.67 C118.89,382.25 118.85,387.68 118.72,391.10 C118.33,400.14 115.34,413.32 114.49,418.13 C113.28,425.22 112.13,438.95 111.52,446.84 C110.46,462.37 112.11,474.12 112.53,475.61 C112.53,475.61 113.46,475.54 113.46,475.54" fill="none" stroke="rgb(255, 255, 0)" stroke-width="2.85" stroke-opacity="1.00" stroke-linejoin="round"/>
<path d="M134.05,410.33 C133.82,410.33 133.59,410.33 133.36,410.33 C133.26,410.33 133.17,410.33 133.07,410.33 C132.60,424.72 132.12,449.53 132.58,468.68 C132.79,474.14 133.05,477.98 133.49,482.29 C133.49,482.29 134.05,481.91 134.05,481.91" fill="none" stroke="rgb(255, 255, 0)" stroke-width="2.85" stroke-opacity="1.00" stroke-linejoin="round"/>
<path d="M126.20,150.98 C126.20,150.98 123.83,149.02 123.83,149.02 C123.83,149.02 122.75,191.96 122.75,191.96 C123.16,192.17 124.86,193.41 126.80,193.01 C130.69,192.14 136.89,190.79 140.39,190.74 C148.59,190.68 159.65,191.47 165.66,191.97 C169.29,192.12 187.34,191.85 195.33,191.44 C202.09,191.15 215.19,191.71 222.04,192.08 C229.00,192.38 274.27,188.27 278.08,188.23 C278.45,186.18 278.91,173.54 280.24,164.18 C280.67,161.41 282.05,153.78 282.33,151.58 C282.57,149.41 282.00,144.48 280.38,143.18 C277.67,141.11 264.57,137.85 257.16,136.94 C245.82,135.62 233.77,134.79 227.89,135.22 C225.30,135.41 182.98,140.21 172.34,141.91 C164.07,143.07 145.92,144.71 142.99,145.39 C142.15,145.59 136.36,147.18 135.70,147.56 C135.28,147.81 134.40,148.46 133.07,149.51" fill="none" stroke="rgb(255, 255, 0)" stroke-width="2.85" stroke-opacity="1.00" stroke-linejoin="round"/>
<path d="M309.07,152.46 C309.07,152.46 303.76,156.14 303.76,156.14 C304.65,154.71 306.37,154.31 311.97,153.39 C315.47,152.82 325.61,151.99 334.18,150.03 C339.28,148.91 356.94,149.32 362.16,148.95 C364.03,148.81 382.62,146.81 390.35,147.22 C393.17,147.37 398.23,147.61 400.45,147.31 C406.87,146.49 418.80,145.09 427.10,145.10 C440.00,145.04 458.72,143.89 469.83,144.30 C469.83,144.30 472.15,143.98 472.15,143.98 C473.02,145.64 473.17,158.45 472.61,169.41 C471.47,189.06 470.95,231.51 471.06,234.08 C471.22,237.20 471.32,241.28 471.35,242.66" fill="none" stroke="rgb(255, 255, 0)" stroke-width="2.85" stroke-opacity="1.00" stroke-linejoin="round"/>
<path d="M438.01,166.67 C438.01,166.67 435.44,166.80 435.44,166.80 C434.29,168.58 433.90,169.90 434.07,172.29 C434.46,178.74 434.62,184.11 434.27,187.15 C433.86,190.66 432.04,200.49 432.13,201.47 C432.16,201.99 352.88,205.71 346.62,205.36 C345.81,205.31 335.31,204.28 333.53,204.25 C332.24,204.23 327.43,204.40 326.35,204.20 C325.83,203.50 326.69,197.92 326.89,196.59 C328.44,185.93 329.38,176.11 329.24,173.17 C329.24,173.17 329.17,175.50 329.17,175.50" fill="none" stroke="rgb(255, 255, 0)" stroke-width="2.85" stroke-opacity="1.00" stroke-linejoin="round"/>
<path d="M325.74,163.24 C325.74,163.24 323.29,165.14 323.29,165.14 C324.26,165.30 330.59,165.80 333.50,165.41 C333.99,165.34 343.01,163.23 343.68,163.10 C345.18,162.81 361.51,161.84 366.87,160.58 C372.11,159.36 377.23,158.47 379.68,158.55 C381.57,158.63 434.71,161.88 434.98,161.92 C435.31,161.96 436.00,162.07 437.03,162.26" fill="none" stroke="rgb(255, 255, 0)" stroke-width="2.85" stroke-opacity="1.00" stroke-linejoin="round"/>
<path d="M326.23,376.51 C325.71,374.92 325.17,373.74 325.01,373.35 C324.89,373.09 324.65,372.47 324.29,371.50 C325.54,373.91 326.42,387.94 326.78,394.56 C327.49,410.17 328.71,458.86 328.92,459.89 C328.96,460.09 329.05,460.41 329.17,460.83" fill="none" stroke="rgb(255, 255, 0)" stroke-width="2.85" stroke-opacity="1.00" stroke-linejoin="round"/>
<path d="M438.01,364.25 C438.01,364.25 435.68,363.76 435.68,363.76 C435.68,363.76 435.63,405.32 435.63,405.32 C435.63,405.32 435.56,404.94 435.56,404.94" fill="none" stroke="rgb(255, 255, 0)" stroke-width="2.85" stroke-opacity="1.00" stroke-linejoin="round"/>
<path d="M451.25,344.15 C451.25,344.15 449.78,344.64 449.78,344.64 C452.28,344.63 474.89,345.23 478.33,345.51 C484.05,346.03 498.42,346.25 500.11,347.33 C501.19,349.85 501.48,355.50 501.49,357.84 C501.49,363.83 498.54,402.59 497.49,416.91 C495.88,433.87 491.94,474.72 491.92,481.46 C491.93,483.66 491.94,487.08 491.79,487.60 C491.71,487.92 491.43,488.64 490.96,489.76" fill="none" stroke="rgb(255, 255, 0)" stroke-width="2.85" stroke-opacity="1.00" stroke-linejoin="round"/>
<path d="M147.29,207.85 C147.29,207.85 146.67,207.36 146.67,207.36 C145.87,208.30 145.38,209.24 145.04,210.71 C144.84,211.63 140.72,256.25 139.93,261.23 C139.21,266.17 134.97,309.27 134.44,324.59 C134.07,333.13 132.07,380.26 131.77,380.24 C126.23,379.45 110.49,381.19 107.50,381.32 C87.44,381.70 73.04,383.59 72.67,383.90 C72.70,385.37 74.62,398.64 74.59,409.09 C74.56,413.43 74.62,424.68 75.70,437.27 C76.22,444.23 75.70,478.54 75.55,482.49 C75.55,482.49 73.75,477.99 73.75,477.99" fill="none" stroke="rgb(0, 255, 0)" stroke-width="2.85" stroke-opacity="1.00" stroke-linejoin="round"/>
<path d="M51.68,478.97 C51.34,479.71 51.09,480.20 50.95,480.44 C50.80,480.68 50.56,481.01 50.21,481.42 C50.34,467.65 51.79,442.82 52.54,428.16 C54.00,412.27 56.99,379.20 57.03,378.74 C52.62,379.51 40.86,379.32 38.81,378.21 C37.64,377.51 37.00,373.44 36.78,367.35 C35.94,342.93 38.08,292.40 37.36,283.22 C35.96,267.57 34.57,240.33 33.79,224.85 C33.54,220.75 34.13,216.41 35.43,215.59 C38.37,213.90 47.54,212.92 59.57,212.09 C73.64,211.30 113.35,208.66 116.73,208.65 C122.69,208.66 144.32,210.77 147.01,210.83 C147.01,210.83 148.27,212.27 148.27,212.27" fill="none" stroke="rgb(0, 255, 0)" stroke-width="2.85" stroke-opacity="1.00" stroke-linejoin="round"/>
<path d="M106.59,235.80 C105.57,235.30 104.12,234.34 104.08,234.33 C103.29,234.15 85.54,235.01 78.03,236.15 C72.25,237.12 66.45,238.73 64.38,240.15 C61.70,242.03 58.07,246.25 56.42,248.69 C54.88,251.02 48.66,265.79 48.16,270.57 C47.81,274.39 49.81,284.66 51.83,288.50 C52.90,290.51 55.57,294.29 57.12,295.80 C59.93,298.49 68.38,302.44 73.45,303.52 C78.34,304.54 99.75,305.49 105.07,304.56 C107.54,304.10 112.96,300.86 116.91,297.73 C119.89,295.34 125.40,287.35 126.72,283.06 C127.77,279.54 128.58,270.95 128.36,267.68 C128.06,263.69 125.51,256.65 123.32,253.04 C119.22,246.38 114.33,240.61 111.65,238.42 C109.90,237.02 107.29,235.31 105.16,234.15 C104.72,233.92 103.89,233.48 102.67,232.86" fill="none" stroke="rgb(0, 255, 0)" stroke-width="2.85" stroke-opacity="1.00" stroke-linejoin="round"/>
<path d="M111.50,253.94 C110.96,253.94 110.42,253.94 109.88,253.94 C103.63,253.94 88.80,253.94 83.22,254.48 C72.15,255.70 67.68,256.56 66.37,257.45 C66.78,260.28 67.62,266.25 67.87,269.30 C68.15,272.67 68.88,278.14 69.33,281.36" fill="none" stroke="rgb(0, 255, 0)" stroke-width="2.85" stroke-opacity="1.00" stroke-linejoin="round"/>
<path d="M77.67,262.27 C77.07,262.26 76.68,262.26 76.49,262.27 C76.31,262.29 76.07,262.35 75.78,262.46 C75.78,262.46 76.22,271.01 76.22,271.01 C77.28,271.17 81.21,269.83 81.35,269.03 C81.51,267.66 81.28,264.18 80.63,263.38 C80.32,263.00 79.45,262.31 78.04,261.32" fill="none" stroke="rgb(0, 255, 0)" stroke-width="2.85" stroke-opacity="1.00" stroke-linejoin="round"/>
<path d="M94.34,262.27 C93.98,262.34 93.41,261.87 93.13,261.81 C92.92,261.77 92.41,261.77 91.60,261.82 C90.96,262.28 90.26,264.40 90.95,267.34 C90.95,267.34 94.38,267.65 94.38,267.65 C94.38,267.65 94.83,261.84 94.83,261.84" fill="none" stroke="rgb(0, 255, 0)" stroke-width="2.85" stroke-opacity="1.00" stroke-linejoin="round"/>
<path d="M108.55,260.80 C108.55,260.80 108.55,261.54 108.55,261.54 C108.55,261.54 104.20,261.29 104.20,261.29 C103.74,262.56 103.58,263.51 103.61,265.14 C103.65,266.71 104.50,268.01 105.76,268.54 C106.24,268.72 106.88,268.43 107.50,268.06 C107.50,268.06 108.43,262.35 108.43,262.35" fill="none" stroke="rgb(0, 255, 0)" stroke-width="2.85" stroke-opacity="1.00" stroke-linejoin="round"/>
<path d="M113.46,255.90 C118.18,262.88 116.46,281.96 115.89,281.33 C115.25,280.07 110.86,279.93 104.98,280.20 C97.06,280.58 75.23,279.42 69.06,279.43 C69.06,279.43 70.80,279.43 70.80,279.43" fill="none" stroke="rgb(0, 255, 0)" stroke-width="2.85" stroke-opacity="1.00" stroke-linejoin="round"/>
<path d="M73.75,279.43 C73.44,279.79 72.74,280.31 72.28,280.41 C72.10,280.45 71.80,280.45 71.38,280.41 C71.31,280.83 73.49,284.31 75.22,284.88 C76.51,285.27 78.91,284.69 80.34,283.67 C82.65,281.95 82.94,280.34 82.77,279.55 C83.35,280.39 83.77,280.81 84.19,280.72 C84.94,280.56 88.56,278.86 89.43,278.45" fill="none" stroke="rgb(0, 255, 0)" stroke-width="2.85" stroke-opacity="1.00" stroke-linejoin="round"/>
<path d="M109.05,279.92 C109.05,279.92 106.10,282.20 106.10,282.20 C106.36,283.10 107.23,284.15 108.30,284.57 C109.02,284.84 111.46,284.76 112.27,284.46 C113.38,284.01 114.77,281.81 114.85,280.33 C114.87,279.86 114.74,279.07 114.44,277.96" fill="none" stroke="rgb(0, 255, 0)" stroke-width="2.85" stroke-opacity="1.00" stroke-linejoin="round"/>
<path d="M26.68,486.33 C24.81,486.34 24.05,486.30 23.78,485.96 C22.68,484.60 22.30,484.20 21.29,483.38 C23.45,483.66 28.86,485.25 31.94,485.55 C39.89,486.28 50.09,485.32 58.05,484.61 C67.43,483.87 96.11,485.02 109.60,484.69 C126.18,484.45 160.21,486.56 164.06,486.64 C166.42,486.68 175.01,486.60 179.47,486.91 C183.33,487.20 202.75,489.68 205.84,489.56 C236.23,488.64 286.42,486.88 295.64,487.50 C305.44,488.26 314.72,488.56 324.68,488.41 C333.25,488.25 344.37,489.14 349.51,489.69 C355.93,490.53 367.09,491.90 374.91,492.11 C402.93,492.43 418.62,493.28 430.96,493.68 C434.53,493.76 454.30,493.41 462.35,493.28 C467.45,493.30 498.64,495.35 505.88,495.67 C507.75,495.78 512.73,496.45 514.00,496.62" fill="none" stroke="rgb(0, 160, 232)" stroke-width="2.85" stroke-opacity="1.00" stroke-linejoin="round"/>
<path d="M488.51,518.19 C488.51,518.19 489.25,517.95 489.25,517.95 C489.25,517.95 489.49,517.46 489.49,517.46 C486.92,516.78 469.56,515.74 466.16,515.74 C462.82,515.75 444.21,517.21 438.43,517.34 C431.63,517.40 392.90,517.44 382.33,517.24 C362.50,516.44 328.38,516.73 323.15,516.54 C317.08,516.29 306.34,515.90 295.77,516.31 C287.90,516.70 271.86,517.30 263.44,517.31 C255.99,517.18 240.56,516.79 235.58,516.43 C222.20,515.06 193.27,512.77 177.72,511.85 C164.02,511.32 135.63,510.18 120.95,509.58 C106.95,509.32 73.30,508.63 62.20,508.91 C47.97,509.70 29.02,510.82 24.30,511.15 C24.30,511.15 24.72,510.84 24.72,510.84" fill="none" stroke="rgb(0, 160, 232)" stroke-width="2.85" stroke-opacity="1.00" stroke-linejoin="round"/>
<path d="M32.56,489.27 C32.56,489.27 33.05,485.97 33.05,485.97 C33.05,485.97 18.58,501.98 18.58,501.98 C18.58,501.98 19.33,502.50 19.33,502.50" fill="none" stroke="rgb(0, 160, 232)" stroke-width="2.85" stroke-opacity="1.00" stroke-linejoin="round"/>
<path d="M72.28,484.85 C72.28,484.77 72.28,484.69 72.28,484.61 C72.28,484.36 72.28,484.12 72.28,483.87 C69.94,486.98 67.34,490.07 64.18,492.83 C62.95,493.89 51.71,503.07 50.03,504.93 C50.03,504.93 52.64,505.00 52.64,505.00" fill="none" stroke="rgb(0, 160, 232)" stroke-width="2.85" stroke-opacity="1.00" stroke-linejoin="round"/>
<path d="M97.77,483.87 C97.77,483.87 97.77,483.63 97.77,483.63 C97.77,483.63 96.07,482.89 96.07,482.89 C93.36,484.24 89.25,488.89 86.75,491.74 C79.31,500.28 74.61,504.97 71.82,507.93 C71.82,507.93 75.31,506.16 75.31,506.16" fill="none" stroke="rgb(0, 160, 232)" stroke-width="2.85" stroke-opacity="1.00" stroke-linejoin="round"/>
<path d="M125.22,486.33 C125.22,486.33 125.22,485.59 125.22,485.59 C125.22,485.59 124.49,485.00 124.49,485.00 C117.54,488.62 104.61,502.70 103.02,504.60 C103.02,504.60 105.06,504.63 105.06,504.63" fill="none" stroke="rgb(0, 160, 232)" stroke-width="2.85" stroke-opacity="1.00" stroke-linejoin="round"/>
<path d="M155.13,485.34 C155.13,485.34 153.95,484.85 153.95,484.85 C152.14,485.26 148.91,487.98 145.87,490.76 C139.79,496.36 129.20,506.17 126.51,508.77 C126.51,508.77 127.25,509.08 127.25,509.08" fill="none" stroke="rgb(0, 160, 232)" stroke-width="2.85" stroke-opacity="1.00" stroke-linejoin="round"/>
<path d="M193.86,488.29 C193.86,488.29 194.35,486.82 194.35,486.82 C193.46,487.39 189.37,490.68 186.50,492.72 C177.85,498.85 169.93,505.21 168.89,506.82 C168.62,507.24 168.28,508.08 167.86,509.36" fill="none" stroke="rgb(0, 160, 232)" stroke-width="2.85" stroke-opacity="1.00" stroke-linejoin="round"/>
<path d="M234.55,488.78 C233.81,488.47 232.84,487.78 232.51,487.80 C228.85,487.98 218.33,494.25 207.82,501.19 C201.19,505.43 192.55,510.69 192.31,510.93 C192.17,511.07 191.98,511.37 191.74,511.82" fill="none" stroke="rgb(0, 160, 232)" stroke-width="2.85" stroke-opacity="1.00" stroke-linejoin="round"/>
<path d="M270.83,488.29 C269.81,488.30 263.93,488.47 261.91,489.77 C248.87,498.97 233.24,508.83 233.09,508.93 C232.63,509.24 231.71,509.90 230.36,510.91" fill="none" stroke="rgb(0, 160, 232)" stroke-width="2.85" stroke-opacity="1.00" stroke-linejoin="round"/>
<path d="M315.45,487.31 C314.46,487.30 312.38,487.34 311.65,487.43 C309.51,487.70 269.89,508.18 264.95,511.10 C264.31,511.49 263.67,511.87 263.03,512.26 C263.03,512.26 262.58,513.76 262.58,513.76" fill="none" stroke="rgb(0, 160, 232)" stroke-width="2.85" stroke-opacity="1.00" stroke-linejoin="round"/>
<path d="M342.90,491.23 C342.90,491.23 342.90,490.00 342.90,490.00 C341.85,488.86 338.13,489.84 332.86,491.94 C328.89,493.57 297.07,511.81 295.04,513.22 C295.04,513.22 295.25,513.81 295.25,513.81" fill="none" stroke="rgb(0, 160, 232)" stroke-width="2.85" stroke-opacity="1.00" stroke-linejoin="round"/>
<path d="M367.41,492.70 C366.68,492.28 364.37,492.02 362.61,492.31 C359.38,492.87 324.17,515.67 321.70,517.40 C321.70,517.40 323.04,516.69 323.04,516.69" fill="none" stroke="rgb(0, 160, 232)" stroke-width="2.85" stroke-opacity="1.00" stroke-linejoin="round"/>
<path d="M404.18,495.15 C404.18,495.15 404.18,494.90 404.18,494.90 C404.18,494.90 404.67,494.44 404.67,494.44 C402.64,494.75 397.38,497.15 394.08,498.93 C385.72,503.51 366.55,516.05 365.60,516.67 C365.60,516.67 366.43,515.74 366.43,515.74" fill="none" stroke="rgb(0, 160, 232)" stroke-width="2.85" stroke-opacity="1.00" stroke-linejoin="round"/>
<path d="M440.46,496.62 C438.41,496.54 434.40,497.71 429.35,500.09 C419.72,504.67 403.37,513.55 400.80,515.04 C400.80,515.04 401.22,515.03 401.22,515.03" fill="none" stroke="rgb(0, 160, 232)" stroke-width="2.85" stroke-opacity="1.00" stroke-linejoin="round"/>
<path d="M477.72,496.13 C477.13,495.97 474.34,495.43 470.29,496.43 C466.32,497.45 445.20,506.49 443.41,507.31 C443.41,507.31 446.81,507.03 446.81,507.03" fill="none" stroke="rgb(0, 160, 232)" stroke-width="2.85" stroke-opacity="1.00" stroke-linejoin="round"/>
<path d="M487.04,500.05 C487.04,500.05 486.55,500.05 486.55,500.05 C485.21,500.18 481.18,502.39 475.11,506.05 C467.47,510.69 461.14,514.85 457.06,517.31 C457.06,517.31 459.35,514.97 459.35,514.97" fill="none" stroke="rgb(0, 160, 232)" stroke-width="2.85" stroke-opacity="1.00" stroke-linejoin="round"/>
<path d="M249.03,235.25 C249.03,235.25 248.10,235.25 248.10,235.25 C248.10,235.25 249.02,222.22 249.02,222.22 C249.73,223.29 250.57,230.18 250.68,231.09 C250.88,233.07 250.47,235.29 250.21,237.02 C250.21,237.02 248.45,224.57 248.45,224.57 C246.82,226.69 247.21,234.29 247.43,236.59 C248.74,235.94 248.87,225.11 248.78,223.50 C247.57,226.91 248.13,234.35 248.28,234.97 C248.28,234.97 249.26,225.10 249.26,225.10 C249.64,225.86 249.77,231.59 250.02,233.13 C250.07,233.40 250.15,233.80 250.26,234.33" fill="none" stroke="rgb(50, 0, 74)" stroke-width="2.85" stroke-opacity="1.00" stroke-linejoin="round"/>
<path d="M252.11,238.02 C251.53,237.37 251.26,237.13 250.97,237.10 C249.85,237.05 243.67,239.02 241.92,239.18 C239.30,239.42 233.88,238.75 231.81,238.88 C228.51,239.11 214.16,242.65 210.01,244.25 C202.08,247.29 190.54,253.69 189.70,254.20 C185.42,256.84 175.60,265.83 170.97,271.48 C165.58,278.11 162.26,282.88 157.01,292.84 C154.70,297.20 152.44,301.83 151.68,304.43 C150.48,308.69 149.48,321.15 149.62,323.25 C149.62,323.25 150.30,323.64 150.30,323.64" fill="none" stroke="rgb(50, 0, 74)" stroke-width="2.85" stroke-opacity="1.00" stroke-linejoin="round"/>
<path d="M320.19,331.68 C320.01,331.32 314.02,329.29 310.69,328.20 C307.34,327.01 302.63,322.62 299.75,321.13 C295.17,318.84 291.02,316.44 287.27,313.64 C283.73,311.00 281.73,310.15 277.22,308.69 C270.02,306.35 256.42,303.23 248.53,301.42 C237.19,298.92 230.09,297.84 225.30,297.80 C218.91,297.93 201.23,298.06 199.28,298.49 C198.25,298.74 173.80,307.57 172.66,308.11 C166.95,310.90 156.42,318.57 151.31,324.18 C148.28,327.54 146.65,329.28 146.10,329.87" fill="none" stroke="rgb(50, 0, 74)" stroke-width="2.85" stroke-opacity="1.00" stroke-linejoin="round"/>
<path d="M237.94,299.64 C237.94,299.64 236.70,299.33 236.70,299.33 C237.44,299.40 238.32,303.21 238.94,311.74 C239.15,314.82 241.26,362.46 241.32,367.51 C241.33,367.94 241.32,369.88 241.32,370.34 C241.32,370.34 241.38,369.18 241.38,369.18 C241.38,369.18 247.44,368.57 247.44,368.57 C247.54,368.34 245.90,357.35 245.55,346.79 C245.19,320.25 244.48,309.21 242.44,300.21 C242.37,299.88 242.31,299.64 242.29,299.50" fill="none" stroke="rgb(50, 0, 74)" stroke-width="2.85" stroke-opacity="1.00" stroke-linejoin="round"/>
<path d="M241.32,368.95 C241.63,374.43 241.93,384.70 240.64,388.19 C236.86,389.89 228.02,388.03 227.41,388.25 C226.63,389.61 228.06,393.64 229.38,394.31 C230.67,394.91 242.96,396.10 245.37,395.35 C246.46,394.97 247.00,393.59 247.41,390.88 C248.99,378.92 247.48,367.87 247.31,367.38 C247.22,367.11 247.03,366.85 246.73,366.60" fill="none" stroke="rgb(50, 0, 74)" stroke-width="2.85" stroke-opacity="1.00" stroke-linejoin="round"/>
<path d="M241.32,372.03 C241.32,372.03 247.49,372.96 247.49,372.96" fill="none" stroke="rgb(50, 0, 74)" stroke-width="2.85" stroke-opacity="1.00" stroke-linejoin="round"/>
<path d="M242.86,378.50 C242.81,378.50 242.76,378.50 242.71,378.50 C242.66,378.50 242.61,378.50 242.56,378.50 C242.95,379.06 246.26,379.08 246.62,379.12 C246.85,379.15 247.45,379.25 248.41,379.43" fill="none" stroke="rgb(50, 0, 74)" stroke-width="2.85" stroke-opacity="1.00" stroke-linejoin="round"/>
<path d="M243.17,384.05 C243.17,384.05 242.71,384.17 242.71,384.17 C242.71,384.17 242.56,384.39 242.56,384.39 C243.30,386.14 247.31,388.40 248.47,388.97 C248.76,389.14 249.15,389.45 249.64,389.90" fill="none" stroke="rgb(50, 0, 74)" stroke-width="2.85" stroke-opacity="1.00" stroke-linejoin="round"/>
<path d="M240.71,390.21 C240.88,390.48 241.06,390.82 241.26,391.22 C241.64,392.01 242.15,393.10 242.79,394.50 C242.96,394.88 243.07,395.14 243.12,395.28" fill="none" stroke="rgb(50, 0, 74)" stroke-width="2.85" stroke-opacity="1.00" stroke-linejoin="round"/>
<path d="M236.39,390.52 C236.23,390.59 237.43,395.22 237.63,395.75 C237.69,395.92 237.77,396.02 237.86,396.05" fill="none" stroke="rgb(50, 0, 74)" stroke-width="2.85" stroke-opacity="1.00" stroke-linejoin="round"/>
<path d="M232.08,390.52 C232.08,390.52 231.77,390.62 231.77,390.62 C231.74,390.91 231.92,393.28 232.12,394.18 C232.20,394.54 232.36,394.91 232.59,395.27" fill="none" stroke="rgb(50, 0, 74)" stroke-width="2.85" stroke-opacity="1.00" stroke-linejoin="round"/>
<path d="M253.65,238.02 C253.65,238.02 253.49,237.25 253.49,237.25 C253.49,237.25 253.03,237.10 253.03,237.10 C254.60,236.34 261.63,237.02 262.90,237.05 C264.36,237.10 281.09,239.47 285.07,241.24 C289.46,243.29 291.85,244.57 296.68,247.96 C297.78,248.74 304.47,252.10 304.61,252.19 C307.28,254.15 313.82,258.61 314.89,259.45 C316.84,260.99 319.60,264.11 320.83,266.29 C321.87,268.16 329.47,285.50 330.09,287.95 C331.22,292.52 332.00,302.51 331.88,307.54 C331.71,313.77 330.31,322.85 328.71,326.48 C327.10,330.04 322.37,335.80 322.10,336.18 C320.25,333.81 319.21,332.80 317.83,331.80 C317.48,331.55 317.14,331.31 316.80,331.06" fill="none" stroke="rgb(50, 0, 74)" stroke-width="2.85" stroke-opacity="1.00" stroke-linejoin="round"/>
<path d="M320.50,333.22 C320.50,333.22 320.19,334.14 320.19,334.14 C317.60,311.30 306.73,277.79 304.77,273.07 C303.67,270.45 302.27,268.00 299.36,264.38 C294.56,258.50 289.56,253.68 288.97,253.19 C288.65,252.92 288.17,252.59 287.53,252.20" fill="none" stroke="rgb(50, 0, 74)" stroke-width="2.85" stroke-opacity="1.00" stroke-linejoin="round"/>
<path d="M262.27,238.33 C261.63,238.34 261.22,238.34 261.04,238.33 C260.86,238.32 260.68,238.28 260.48,238.22 C260.48,238.22 261.03,236.68 261.03,236.68 C262.07,236.37 264.11,237.97 265.85,240.16 C266.82,241.39 273.83,249.91 274.66,251.07 C277.90,255.64 281.00,265.60 283.87,277.14 C286.60,288.47 288.03,298.30 288.13,304.03 C288.15,306.66 288.34,313.81 288.39,313.86 C288.51,313.99 288.73,314.28 289.07,314.73" fill="none" stroke="rgb(50, 0, 74)" stroke-width="2.85" stroke-opacity="1.00" stroke-linejoin="round"/>
<path d="M249.33,298.41 C249.33,298.41 248.72,298.46 248.72,298.46 C248.72,298.46 249.29,299.30 249.29,299.30 C249.59,298.39 247.75,284.74 245.47,273.73 C243.66,265.21 236.18,244.44 234.67,242.64 C234.11,241.99 232.71,240.37 232.45,240.16 C232.34,240.08 232.23,239.99 232.10,239.88" fill="none" stroke="rgb(50, 0, 74)" stroke-width="2.85" stroke-opacity="1.00" stroke-linejoin="round"/>
<path d="M229.62,241.41 C229.62,241.41 229.62,239.93 229.62,239.93 C229.41,240.28 218.60,255.32 216.55,259.66 C214.34,264.35 210.13,280.30 209.39,283.16 C208.16,288.13 207.13,296.19 207.14,297.17 C207.14,297.52 207.22,297.86 207.37,298.20" fill="none" stroke="rgb(50, 0, 74)" stroke-width="2.85" stroke-opacity="1.00" stroke-linejoin="round"/>
<path d="M173.24,307.03 C172.85,307.03 172.56,307.03 172.38,307.03 C172.20,307.03 171.88,307.02 171.42,307.00 C171.19,305.53 174.61,285.63 174.64,285.46 C176.04,277.51 186.87,258.54 189.01,255.78 C189.30,255.42 189.95,254.62 190.96,253.39" fill="none" stroke="rgb(50, 0, 74)" stroke-width="2.85" stroke-opacity="1.00" stroke-linejoin="round"/>
<path d="M184.33,270.37 C184.19,269.48 187.55,265.47 191.63,261.20 C198.00,254.62 210.00,247.60 212.35,245.72 C212.56,245.57 212.67,245.53 212.71,245.58" fill="none" stroke="rgb(50, 0, 74)" stroke-width="2.85" stroke-opacity="1.00" stroke-linejoin="round"/>
<path d="M210.52,251.27 C209.29,251.45 205.83,254.60 205.17,255.21 C200.06,260.17 184.72,282.99 183.20,285.65 C183.11,285.82 183.07,285.96 183.10,286.08" fill="none" stroke="rgb(50, 0, 74)" stroke-width="2.85" stroke-opacity="1.00" stroke-linejoin="round"/>
<path d="M183.10,285.77 C186.94,281.36 189.73,278.43 191.36,277.16 C193.39,275.61 197.82,272.58 200.20,270.96 C203.27,268.88 208.18,266.76 208.67,266.37" fill="none" stroke="rgb(50, 0, 74)" stroke-width="2.85" stroke-opacity="1.00" stroke-linejoin="round"/>
<path d="M185.26,284.85 C185.05,285.10 184.90,285.28 184.79,285.40 C184.04,286.25 175.98,295.31 175.45,296.72 C175.45,296.72 175.71,296.56 175.71,296.56" fill="none" stroke="rgb(50, 0, 74)" stroke-width="2.85" stroke-opacity="1.00" stroke-linejoin="round"/>
<path d="M202.20,279.61 C202.20,279.61 201.37,279.82 201.37,279.82 C199.72,282.22 188.68,296.38 187.06,299.37 C186.94,299.59 186.92,299.70 186.99,299.72" fill="none" stroke="rgb(50, 0, 74)" stroke-width="2.85" stroke-opacity="1.00" stroke-linejoin="round"/>
<path d="M198.50,294.09 C198.50,294.09 198.58,294.40 198.58,294.40 C200.19,292.75 202.94,290.57 203.42,290.27 C203.72,290.09 204.33,289.77 205.24,289.32" fill="none" stroke="rgb(50, 0, 74)" stroke-width="2.85" stroke-opacity="1.00" stroke-linejoin="round"/>
<path d="M245.64,241.10 C245.64,241.10 245.17,241.10 245.17,241.10 C245.00,241.21 242.83,246.03 239.82,251.97 C239.61,252.37 239.34,252.88 239.01,253.49" fill="none" stroke="rgb(50, 0, 74)" stroke-width="2.85" stroke-opacity="1.00" stroke-linejoin="round"/>
<path d="M257.34,238.33 C257.34,238.33 256.91,237.72 256.91,237.72 C255.75,238.19 247.38,257.24 247.32,257.56 C247.29,257.77 247.34,258.05 247.47,258.41" fill="none" stroke="rgb(50, 0, 74)" stroke-width="2.85" stroke-opacity="1.00" stroke-linejoin="round"/>
<path d="M265.05,246.34 C265.05,246.34 264.19,246.34 264.19,246.34 C262.81,247.57 256.20,260.84 254.30,265.87 C253.19,268.85 251.62,274.20 250.93,276.63 C250.78,277.16 250.63,277.69 250.49,278.23" fill="none" stroke="rgb(50, 0, 74)" stroke-width="2.85" stroke-opacity="1.00" stroke-linejoin="round"/>
<path d="M267.51,258.05 C266.93,258.08 265.77,258.85 263.48,262.59 C260.46,267.58 253.63,279.45 250.03,285.47 C248.99,287.19 247.59,289.40 246.56,291.32" fill="none" stroke="rgb(50, 0, 74)" stroke-width="2.85" stroke-opacity="1.00" stroke-linejoin="round"/>
<path d="M270.90,270.06 C270.08,270.05 269.26,271.11 267.70,274.04 C264.92,279.22 258.20,291.42 256.82,295.05 C256.43,296.15 255.94,298.27 256.06,299.01 C256.11,299.33 256.33,299.85 256.73,300.56" fill="none" stroke="rgb(50, 0, 74)" stroke-width="2.85" stroke-opacity="1.00" stroke-linejoin="round"/>
<path d="M273.98,278.38 C272.76,278.37 271.66,279.04 270.09,281.42 C269.51,282.33 266.47,288.47 264.82,291.84 C261.01,299.61 260.74,300.47 260.42,301.79" fill="none" stroke="rgb(50, 0, 74)" stroke-width="2.85" stroke-opacity="1.00" stroke-linejoin="round"/>
<path d="M280.76,283.62 C280.54,283.68 280.38,283.73 280.29,283.77 C279.83,284.01 271.29,298.16 271.23,298.32 C271.13,298.58 270.96,299.18 270.72,300.15" fill="none" stroke="rgb(50, 0, 74)" stroke-width="2.85" stroke-opacity="1.00" stroke-linejoin="round"/>
<path d="M285.07,288.24 C283.01,289.93 280.36,293.95 278.67,296.75 C278.55,296.95 278.25,297.42 277.78,298.15 C277.70,298.27 277.64,298.38 277.59,298.46" fill="none" stroke="rgb(50, 0, 74)" stroke-width="2.85" stroke-opacity="1.00" stroke-linejoin="round"/>
<path d="M298.62,253.12 C298.62,253.12 298.16,253.12 298.16,253.12 C298.06,253.03 297.17,256.60 297.07,257.11 C297.01,257.44 296.92,257.96 296.80,258.68" fill="none" stroke="rgb(50, 0, 74)" stroke-width="2.85" stroke-opacity="1.00" stroke-linejoin="round"/>
<path d="M303.55,256.51 C303.55,256.51 303.14,255.89 303.14,255.89 C303.14,255.89 300.64,262.67 300.64,262.67" fill="none" stroke="rgb(50, 0, 74)" stroke-width="2.85" stroke-opacity="1.00" stroke-linejoin="round"/>
<path d="M310.64,259.90 C310.64,259.90 309.48,259.97 309.48,259.97 C308.94,260.57 308.14,264.66 307.72,266.95 C307.33,268.87 306.61,272.35 306.28,273.90" fill="none" stroke="rgb(50, 0, 74)" stroke-width="2.85" stroke-opacity="1.00" stroke-linejoin="round"/>
<path d="M316.49,271.60 C316.42,271.60 316.37,271.60 316.34,271.60 C316.08,271.67 315.81,272.02 315.28,273.00 C313.43,276.48 311.19,280.94 310.89,282.05 C310.73,282.69 310.57,283.32 310.41,283.96" fill="none" stroke="rgb(50, 0, 74)" stroke-width="2.85" stroke-opacity="1.00" stroke-linejoin="round"/>
<path d="M319.88,282.69 C319.88,282.69 318.30,282.94 318.30,282.94 C317.98,283.66 316.52,287.42 316.52,287.43 C316.15,288.29 314.19,292.28 313.48,293.72" fill="none" stroke="rgb(50, 0, 74)" stroke-width="2.85" stroke-opacity="1.00" stroke-linejoin="round"/>
<path d="M320.50,291.63 C320.50,291.63 320.50,291.47 320.50,291.47 C320.50,291.47 320.34,291.32 320.34,291.32 C320.34,291.32 320.12,291.32 320.12,291.32 C319.75,292.25 318.73,294.81 318.40,295.56 C315.92,301.32 315.40,303.18 315.35,304.25" fill="none" stroke="rgb(50, 0, 74)" stroke-width="2.85" stroke-opacity="1.00" stroke-linejoin="round"/>
<path d="M321.73,299.64 C321.73,299.64 320.50,299.80 320.50,299.80 C320.34,300.32 319.95,301.68 319.66,302.70 C319.30,304.00 318.61,306.52 318.27,307.74 C318.12,308.29 317.97,308.85 317.82,309.40" fill="none" stroke="rgb(50, 0, 74)" stroke-width="2.85" stroke-opacity="1.00" stroke-linejoin="round"/>
<path d="M326.35,303.95 C325.86,304.04 325.50,304.21 325.25,304.47 C324.74,305.04 322.48,309.09 321.63,310.79 C320.52,313.06 319.82,315.20 319.32,317.07" fill="none" stroke="rgb(50, 0, 74)" stroke-width="2.85" stroke-opacity="1.00" stroke-linejoin="round"/>
<path d="M329.43,311.04 C329.43,311.04 328.57,311.19 328.57,311.19 C328.31,311.43 327.88,312.08 326.40,314.54 C325.05,316.79 323.39,319.45 322.07,321.49 C321.57,322.26 321.08,323.03 320.58,323.79" fill="none" stroke="rgb(50, 0, 74)" stroke-width="2.85" stroke-opacity="1.00" stroke-linejoin="round"/>
<path d="M440.52,237.52 C440.52,237.52 438.86,238.19 438.86,238.19 C438.86,238.19 439.53,233.48 439.53,233.48 C439.53,233.48 445.42,233.00 445.42,233.00 C445.42,233.00 445.22,238.59 445.22,238.59 C445.22,238.59 443.96,235.44 443.96,235.44 C443.96,235.44 442.59,237.67 442.59,237.67 C442.59,237.67 442.52,237.70 442.52,237.70" fill="none" stroke="rgb(50, 0, 74)" stroke-width="2.85" stroke-opacity="1.00" stroke-linejoin="round"/>
<path d="M447.50,239.18 C447.50,239.18 447.50,237.79 447.50,237.79 C446.80,237.05 444.17,236.85 438.51,236.88 C435.42,236.92 433.73,236.99 432.82,237.26 C432.26,237.43 416.39,241.95 411.40,243.75 C403.48,246.69 389.91,252.70 386.82,255.25 C382.94,258.55 378.60,262.60 376.35,265.11 C374.78,266.88 369.97,274.07 367.64,277.61 C364.89,281.82 362.18,287.01 361.12,290.36 C357.54,301.95 356.73,317.70 356.87,319.64 C356.89,319.97 356.96,320.46 357.08,321.10" fill="none" stroke="rgb(50, 0, 74)" stroke-width="2.85" stroke-opacity="1.00" stroke-linejoin="round"/>
<path d="M488.66,313.88 C488.66,313.88 488.66,314.04 488.66,314.04 C488.66,314.04 487.37,314.51 487.37,314.51 C487.05,314.07 483.55,309.50 481.51,308.45 C477.96,306.66 466.30,303.57 458.62,302.11 C449.78,300.49 439.00,299.55 431.57,299.72 C422.26,299.90 410.93,299.04 408.48,299.08 C403.18,299.22 385.75,304.05 382.15,305.67 C380.85,306.26 364.08,314.83 360.71,317.69 C359.90,318.39 358.37,319.93 357.42,320.94" fill="none" stroke="rgb(50, 0, 74)" stroke-width="2.85" stroke-opacity="1.00" stroke-linejoin="round"/>
<path d="M447.83,238.19 C447.83,238.19 447.16,238.19 447.16,238.19 C451.45,238.17 456.23,239.22 457.99,239.41 C459.31,239.56 468.22,240.99 469.41,241.88 C470.12,242.42 485.30,253.65 486.69,256.09 C489.57,261.33 491.11,268.70 493.33,281.79 C495.03,292.15 493.36,308.11 492.82,309.72 C492.53,310.56 490.90,314.00 490.32,315.21" fill="none" stroke="rgb(50, 0, 74)" stroke-width="2.85" stroke-opacity="1.00" stroke-linejoin="round"/>
<path d="M474.05,254.12 C474.05,254.12 473.06,254.12 473.06,254.12 C473.33,257.19 474.39,272.03 474.25,278.34 C474.15,282.10 473.45,289.31 473.41,290.16 C473.40,290.30 473.40,290.46 473.39,290.64" fill="none" stroke="rgb(50, 0, 74)" stroke-width="2.85" stroke-opacity="1.00" stroke-linejoin="round"/>
<path d="M453.47,244.16 C453.47,244.16 451.54,244.33 451.54,244.33 C449.79,246.57 447.76,255.20 447.11,257.78 C446.65,259.60 444.01,269.26 443.38,272.35 C443.01,274.22 442.17,280.44 442.12,283.52 C442.09,286.16 443.04,289.40 443.51,290.97" fill="none" stroke="rgb(50, 0, 74)" stroke-width="2.85" stroke-opacity="1.00" stroke-linejoin="round"/>
<path d="M418.61,243.83 C418.61,243.83 418.61,242.84 418.61,242.84 C416.80,247.68 412.39,261.10 410.98,265.51 C407.86,275.15 405.40,294.14 405.67,295.09 C405.73,295.31 405.93,295.76 406.27,296.46" fill="none" stroke="rgb(50, 0, 74)" stroke-width="2.85" stroke-opacity="1.00" stroke-linejoin="round"/>
<path d="M386.41,255.12 C386.41,255.12 385.37,254.52 385.37,254.52 C385.17,254.50 383.81,267.30 381.79,278.41 C380.19,287.38 380.18,297.10 380.50,300.72 C380.63,302.16 380.75,303.14 380.85,303.66 C380.93,304.07 381.10,304.64 381.36,305.37" fill="none" stroke="rgb(50, 0, 74)" stroke-width="2.85" stroke-opacity="1.00" stroke-linejoin="round"/>
<path d="M364.17,296.95 C365.23,294.47 366.82,291.20 368.53,288.16 C373.24,279.96 380.25,270.78 381.41,270.60 C381.68,271.45 381.78,272.02 381.74,272.32 C381.67,272.76 378.38,277.63 377.18,280.39 C374.58,286.41 373.68,289.78 373.39,291.14 C373.76,290.65 376.37,285.97 378.61,282.68 C382.14,277.55 389.98,268.98 396.41,262.68 C406.84,252.74 408.05,251.74 409.33,250.86 C408.29,252.10 404.04,256.07 402.42,258.13 C389.79,274.82 382.40,286.39 380.97,289.59 C381.49,289.46 392.67,277.56 397.92,272.20 C403.60,266.61 413.58,257.51 418.02,253.40 C423.96,247.96 427.31,246.86 427.91,246.76 C427.87,247.18 414.84,259.88 409.17,265.62 C399.23,275.94 387.45,290.24 387.60,291.51 C394.46,284.47 427.77,256.74 430.63,254.52 C432.44,253.12 437.58,249.60 439.20,248.99 C439.54,249.52 434.86,253.29 433.19,254.82 C422.73,264.55 398.64,287.65 395.20,291.32 C395.88,291.48 408.53,281.17 412.14,278.15 C417.79,273.54 428.16,265.59 435.78,260.21 C458.19,244.15 460.42,243.10 462.76,242.23 C461.03,244.52 424.57,276.30 419.98,280.79 C414.48,286.21 414.32,288.17 414.38,288.70 C419.16,284.45 431.02,275.60 435.27,272.70 C446.83,265.08 471.27,251.81 471.99,252.14 C470.83,253.24 458.23,261.51 452.12,265.85 C446.85,269.74 437.63,276.64 430.88,282.67 C427.87,285.40 422.78,290.67 422.64,291.06 C425.48,289.46 440.53,280.23 447.31,276.08 C463.09,266.91 476.36,261.38 482.90,259.48 C482.73,260.89 482.07,262.34 480.86,263.40 C479.72,264.38 463.15,274.34 460.08,276.43 C455.92,279.27 444.95,288.25 444.66,289.63 C446.59,289.24 462.67,280.01 467.27,277.96 C480.60,272.05 487.95,271.35 488.76,271.42 C488.94,272.31 486.66,274.95 484.51,276.40 C481.67,278.28 470.62,285.32 467.78,287.80 C466.08,289.29 464.71,290.75 463.79,292.01 C465.09,292.41 468.10,291.16 471.15,289.78 C476.75,287.20 486.51,283.45 489.07,283.34 C488.93,285.02 486.29,287.12 482.17,290.28 C478.30,293.27 475.22,295.89 474.60,297.39 C475.72,298.62 476.58,299.16 478.00,299.36 C480.47,299.70 485.04,300.47 485.69,300.65 C485.69,300.65 486.33,301.56 486.33,301.56" fill="none" stroke="rgb(50, 0, 74)" stroke-width="2.85" stroke-opacity="1.00" stroke-linejoin="round"/>
<path d="M431.89,300.27 C431.89,300.27 430.90,299.94 430.90,299.94 C430.86,299.96 431.57,304.68 431.50,308.69 C431.24,317.07 430.65,324.18 430.57,335.56 C430.56,343.45 430.57,362.31 430.45,363.46 C430.34,364.36 429.39,365.76 428.69,366.06 C424.77,367.56 421.70,364.60 420.89,363.56 C420.89,363.56 421.27,362.68 421.27,362.68" fill="none" stroke="rgb(50, 0, 74)" stroke-width="2.85" stroke-opacity="1.00" stroke-linejoin="round"/>
<path d="M198.46,304.47 C197.67,304.91 196.93,306.98 196.09,310.46 C195.23,314.11 195.07,318.22 195.55,318.98 C195.55,318.98 196.44,318.60 196.44,318.60" fill="none" stroke="rgb(0, 0, 255)" stroke-width="2.85" stroke-opacity="1.00" stroke-linejoin="round"/>
<path d="M203.17,301.55 C202.89,301.53 202.70,301.53 202.61,301.55 C202.51,301.57 202.38,301.64 202.21,301.75 C202.21,301.75 201.19,314.83 201.19,314.83 C201.19,314.83 201.46,314.55 201.46,314.55" fill="none" stroke="rgb(0, 0, 255)" stroke-width="2.85" stroke-opacity="1.00" stroke-linejoin="round"/>
<path d="M210.12,300.66 C210.12,300.66 209.56,300.81 209.56,300.81 C208.66,303.16 207.90,314.34 207.94,314.45 C208.01,314.60 208.25,314.99 208.68,315.62" fill="none" stroke="rgb(0, 0, 255)" stroke-width="2.85" stroke-opacity="1.00" stroke-linejoin="round"/>
<path d="M219.54,300.66 C219.19,300.81 218.66,301.75 218.16,305.95 C218.07,306.79 217.95,310.12 218.03,310.66 C218.07,311.01 218.24,311.64 218.51,312.55" fill="none" stroke="rgb(0, 0, 255)" stroke-width="2.85" stroke-opacity="1.00" stroke-linejoin="round"/>
<path d="M226.71,301.10 C226.71,301.10 226.26,301.10 226.26,301.10 C226.17,307.02 225.22,312.27 225.04,313.59 C224.98,314.03 224.99,314.34 225.07,314.52" fill="none" stroke="rgb(0, 0, 255)" stroke-width="2.85" stroke-opacity="1.00" stroke-linejoin="round"/>
<path d="M231.65,305.59 C231.65,305.59 231.65,305.70 231.65,305.70 C231.42,306.00 231.45,308.42 231.14,310.54 C230.69,313.55 229.25,320.35 228.64,322.12 C227.51,325.27 224.62,328.50 222.51,330.02 C219.85,331.87 216.51,333.28 213.59,333.13 C210.66,332.93 206.14,331.57 203.72,330.10 C201.04,328.40 197.07,323.18 195.56,319.08 C195.40,318.66 195.27,318.16 195.16,317.60" fill="none" stroke="rgb(0, 0, 255)" stroke-width="2.85" stroke-opacity="1.00" stroke-linejoin="round"/>
<path d="M199.13,313.89 C199.13,313.89 198.23,313.10 198.23,313.10 C200.36,310.55 206.93,311.33 208.44,312.00 C208.53,312.05 208.62,312.12 208.71,312.21" fill="none" stroke="rgb(0, 0, 255)" stroke-width="2.85" stroke-opacity="1.00" stroke-linejoin="round"/>
<path d="M204.06,317.92 C204.06,317.92 203.50,317.81 203.50,317.81 C203.50,317.81 203.48,317.48 203.48,317.48 C203.48,317.48 204.75,317.69 204.75,317.69 C204.75,317.69 204.70,317.53 204.70,317.53" fill="none" stroke="rgb(0, 0, 255)" stroke-width="2.85" stroke-opacity="1.00" stroke-linejoin="round"/>
<path d="M213.93,313.66 C213.93,313.66 212.70,313.10 212.70,313.10 C212.70,313.10 212.68,320.74 212.68,320.74 C212.68,320.74 213.12,321.11 213.12,321.11" fill="none" stroke="rgb(0, 0, 255)" stroke-width="2.85" stroke-opacity="1.00" stroke-linejoin="round"/>
<path d="M219.99,313.66 C219.99,313.66 219.57,313.66 219.57,313.66 C219.57,313.66 226.87,313.67 226.87,313.67 C226.87,313.67 226.77,313.83 226.77,313.83" fill="none" stroke="rgb(0, 0, 255)" stroke-width="2.85" stroke-opacity="1.00" stroke-linejoin="round"/>
<path d="M222.23,317.70 C222.23,317.70 221.33,317.81 221.33,317.81 C221.33,317.81 222.84,316.94 222.84,316.94 C222.67,316.87 222.55,316.87 222.47,316.93 C222.39,316.99 222.24,317.20 222.01,317.56" fill="none" stroke="rgb(0, 0, 255)" stroke-width="2.85" stroke-opacity="1.00" stroke-linejoin="round"/>
<path d="M210.79,325.32 C210.79,325.32 210.34,324.35 210.34,324.35 C211.59,325.48 214.24,326.69 216.71,326.65 C217.03,326.64 217.40,326.59 217.84,326.51" fill="none" stroke="rgb(0, 0, 255)" stroke-width="2.85" stroke-opacity="1.00" stroke-linejoin="round"/>
<path d="M189.71,304.02 C189.71,304.02 189.26,302.90 189.26,302.90 C189.26,302.90 189.32,337.32 189.32,337.32 C189.32,337.32 189.86,337.85 189.86,337.85" fill="none" stroke="rgb(0, 0, 255)" stroke-width="2.85" stroke-opacity="1.00" stroke-linejoin="round"/>
<path d="M193.52,316.35 C193.37,316.11 193.31,315.89 193.27,315.83 C193.17,315.66 192.85,315.47 192.50,315.33 C190.98,316.69 192.15,320.86 192.90,321.12 C193.09,321.18 193.58,321.29 194.39,321.43" fill="none" stroke="rgb(0, 0, 255)" stroke-width="2.85" stroke-opacity="1.00" stroke-linejoin="round"/>
<path d="M193.52,328.02 C193.10,328.37 193.02,329.45 193.09,333.41 C193.17,336.57 193.51,338.34 193.83,339.25 C193.83,339.25 194.87,337.21 194.87,337.21" fill="none" stroke="rgb(0, 0, 255)" stroke-width="2.85" stroke-opacity="1.00" stroke-linejoin="round"/>
<path d="M200.70,329.36 C200.45,329.52 199.98,329.91 199.85,330.21 C199.62,330.76 199.56,335.14 199.60,335.62 C199.63,335.96 199.74,336.57 199.92,337.44" fill="none" stroke="rgb(0, 0, 255)" stroke-width="2.85" stroke-opacity="1.00" stroke-linejoin="round"/>
<path d="M228.96,327.57 C228.96,327.57 228.84,327.57 228.84,327.57 C228.78,327.64 228.55,327.90 228.53,328.30 C228.41,331.46 228.58,333.85 228.85,335.66 C228.85,335.66 229.26,335.83 229.26,335.83" fill="none" stroke="rgb(0, 0, 255)" stroke-width="2.85" stroke-opacity="1.00" stroke-linejoin="round"/>
<path d="M234.79,317.48 C234.76,317.38 234.72,317.31 234.67,317.25 C234.63,317.20 234.52,317.08 234.34,316.91 C234.34,316.91 233.03,335.64 233.03,335.64 C233.03,335.64 232.82,335.69 232.82,335.69" fill="none" stroke="rgb(0, 0, 255)" stroke-width="2.85" stroke-opacity="1.00" stroke-linejoin="round"/>
<path d="M221.56,333.85 C221.56,333.85 220.88,333.89 220.88,333.89 C220.88,333.89 221.34,338.40 221.34,338.40 C221.34,338.40 221.65,338.59 221.65,338.59" fill="none" stroke="rgb(0, 0, 255)" stroke-width="2.85" stroke-opacity="1.00" stroke-linejoin="round"/>
<path d="M204.29,331.16 C204.23,331.33 204.20,331.48 204.17,331.60 C203.86,333.69 204.18,336.89 204.30,337.46 C204.30,337.46 204.61,337.66 204.61,337.66" fill="none" stroke="rgb(0, 0, 255)" stroke-width="2.85" stroke-opacity="1.00" stroke-linejoin="round"/>
<path d="M203.17,337.43 C202.85,337.51 202.53,337.58 202.21,337.66 C201.92,337.72 201.62,337.79 201.32,337.86 C201.20,337.80 199.45,337.07 198.04,337.80 C197.47,338.12 196.97,339.48 197.18,340.42 C197.40,341.27 198.87,342.98 201.11,344.03 C206.16,346.34 210.91,344.99 211.10,344.80 C211.23,343.31 204.80,339.10 203.73,338.64 C203.43,338.51 203.05,338.41 202.58,338.35" fill="none" stroke="rgb(0, 0, 255)" stroke-width="2.85" stroke-opacity="1.00" stroke-linejoin="round"/>
<path d="M212.36,344.61 C212.36,344.61 210.68,345.17 210.68,345.17 C211.20,345.60 213.75,344.66 216.77,342.52 C218.58,341.24 221.41,338.11 222.38,337.21 C222.89,336.74 225.58,336.05 226.42,336.23 C227.36,337.09 227.99,339.96 227.53,341.51 C227.04,342.98 223.99,344.31 221.44,344.59 C219.27,344.80 216.61,344.30 216.21,344.07 C216.03,343.96 215.72,343.69 215.26,343.26" fill="none" stroke="rgb(0, 0, 255)" stroke-width="2.85" stroke-opacity="1.00" stroke-linejoin="round"/>
<path d="M212.58,345.96 C212.58,345.96 212.25,345.96 212.25,345.96 C211.71,346.18 212.16,351.33 212.90,352.09 C213.55,352.69 215.70,352.20 216.78,351.44 C217.78,350.67 218.47,348.02 218.04,345.77 C218.04,345.77 217.56,345.33 217.56,345.33" fill="none" stroke="rgb(0, 0, 255)" stroke-width="2.85" stroke-opacity="1.00" stroke-linejoin="round"/>
<path d="M213.93,353.36 C213.93,353.36 213.15,352.91 213.15,352.91 C213.15,352.91 212.44,361.00 212.44,361.00 C212.44,361.00 213.26,359.86 213.26,359.86" fill="none" stroke="rgb(0, 0, 255)" stroke-width="2.85" stroke-opacity="1.00" stroke-linejoin="round"/>
<path d="M217.74,352.68 C217.74,352.68 217.74,352.46 217.74,352.46 C218.48,356.60 218.72,359.42 218.86,361.33 C218.90,361.67 218.95,361.76 219.01,361.58" fill="none" stroke="rgb(0, 0, 255)" stroke-width="2.85" stroke-opacity="1.00" stroke-linejoin="round"/>
<path d="M215.28,365.92 C215.28,365.92 214.15,366.14 214.15,366.14 C214.15,366.14 229.15,342.53 229.15,342.53 C229.15,342.53 228.71,343.18 228.71,343.18" fill="none" stroke="rgb(0, 0, 255)" stroke-width="2.85" stroke-opacity="1.00" stroke-linejoin="round"/>
<path d="M217.52,366.81 C217.52,366.81 217.11,367.04 217.11,367.04 C217.78,366.95 219.51,365.72 221.45,363.32 C223.64,360.53 227.70,355.33 229.12,353.81 C229.12,353.81 228.23,354.91 228.23,354.91" fill="none" stroke="rgb(0, 0, 255)" stroke-width="2.85" stroke-opacity="1.00" stroke-linejoin="round"/>
<path d="M214.38,365.69 C214.38,365.69 214.04,365.58 214.04,365.58 C213.79,364.53 212.23,360.91 211.14,358.68 C210.46,357.32 202.57,348.34 199.64,345.33 C199.64,345.33 199.05,345.60 199.05,345.60" fill="none" stroke="rgb(0, 0, 255)" stroke-width="2.85" stroke-opacity="1.00" stroke-linejoin="round"/>
<path d="M195.54,346.63 C195.54,346.63 194.42,347.38 194.42,347.38 C194.42,347.48 198.93,350.67 200.89,353.48 C203.30,356.94 206.11,359.08 206.47,359.33 C207.57,360.14 210.63,366.22 211.23,366.89 C211.35,367.01 211.52,367.21 211.74,367.48" fill="none" stroke="rgb(0, 0, 255)" stroke-width="2.85" stroke-opacity="1.00" stroke-linejoin="round"/>
<path d="M229.63,341.92 C229.63,341.92 229.40,341.70 229.40,341.70 C229.37,341.92 229.84,347.92 229.94,350.54 C229.99,351.79 230.13,357.11 231.33,360.44 C231.46,360.84 231.69,361.87 232.05,362.42 C233.03,362.84 235.56,362.50 236.15,361.58 C236.90,360.27 234.54,342.60 233.95,341.48 C233.65,340.97 232.74,340.33 232.04,340.25 C231.56,340.20 229.17,340.27 228.45,340.29" fill="none" stroke="rgb(0, 0, 255)" stroke-width="2.85" stroke-opacity="1.00" stroke-linejoin="round"/>
<path d="M196.66,341.70 C196.40,341.69 196.23,341.69 196.18,341.70 C195.93,341.72 191.09,341.60 189.86,342.45 C189.61,343.00 191.25,360.31 191.49,361.04 C191.53,361.17 191.64,361.37 191.80,361.65 C192.19,361.56 195.22,357.70 195.72,356.18 C196.25,354.43 196.42,344.86 196.44,343.28 C196.44,342.96 196.44,342.66 196.44,342.39" fill="none" stroke="rgb(0, 0, 255)" stroke-width="2.85" stroke-opacity="1.00" stroke-linejoin="round"/>
<path d="M191.06,344.39 C190.93,344.12 190.84,343.93 190.78,343.83 C190.71,343.72 190.58,343.54 190.39,343.29 C189.65,343.37 185.41,346.82 184.60,348.17 C183.35,350.31 181.11,356.27 180.61,359.28 C179.84,364.12 179.45,376.27 179.72,381.38 C180.08,387.74 181.84,391.89 182.21,392.11 C182.70,392.39 188.13,391.62 189.22,391.21 C189.72,391.01 190.75,389.52 191.05,386.07 C191.56,379.68 190.84,361.32 190.84,361.24 C190.82,360.89 190.81,360.55 190.83,360.24" fill="none" stroke="rgb(0, 0, 255)" stroke-width="2.85" stroke-opacity="1.00" stroke-linejoin="round"/>
<path d="M182.31,393.50 C182.31,393.50 181.97,393.50 181.97,393.50 C181.97,393.50 181.52,393.93 181.52,393.93 C181.36,395.94 181.75,397.99 182.48,399.07 C183.30,400.22 185.65,401.29 186.85,401.05 C188.01,400.79 189.78,398.83 190.23,397.58 C190.57,396.54 190.23,394.16 188.89,392.73 C188.62,392.45 188.07,391.99 187.24,391.34" fill="none" stroke="rgb(0, 0, 255)" stroke-width="2.85" stroke-opacity="1.00" stroke-linejoin="round"/>
<path d="M233.44,362.55 C233.44,362.55 232.54,363.15 232.54,363.15 C232.51,363.57 234.09,385.67 234.11,385.80 C234.13,385.89 234.19,385.98 234.30,386.08" fill="none" stroke="rgb(0, 0, 255)" stroke-width="2.85" stroke-opacity="1.00" stroke-linejoin="round"/>
<path d="M226.04,396.19 C226.04,396.19 225.14,397.09 225.14,397.09 C223.38,396.36 207.64,397.39 204.88,397.10 C202.59,396.85 194.54,395.34 194.29,395.32 C194.14,395.30 193.71,395.24 192.97,395.13" fill="none" stroke="rgb(0, 0, 255)" stroke-width="2.85" stroke-opacity="1.00" stroke-linejoin="round"/>
<path d="M214.38,370.63 C214.39,370.05 214.43,369.68 214.49,369.50 C214.55,369.33 214.72,369.12 215.00,368.87 C215.00,368.87 215.24,368.83 215.24,368.83 C215.24,368.83 214.71,368.87 214.71,368.87 C214.58,369.90 214.85,389.48 214.73,391.82 C214.69,392.74 214.48,395.19 214.40,396.09 C214.40,396.09 214.60,394.17 214.60,394.17" fill="none" stroke="rgb(0, 0, 255)" stroke-width="2.85" stroke-opacity="1.00" stroke-linejoin="round"/>
<path d="M211.24,375.78 C211.24,375.78 211.24,375.67 211.24,375.67 C211.17,375.59 210.99,375.49 210.93,375.45 C210.85,375.39 210.61,375.15 210.57,375.11 C210.58,375.35 209.54,375.30 209.74,375.70 C209.80,375.82 210.00,376.15 210.34,376.68" fill="none" stroke="rgb(0, 0, 255)" stroke-width="2.85" stroke-opacity="1.00" stroke-linejoin="round"/>
<path d="M211.91,384.53 C211.91,384.53 210.12,384.95 210.12,384.95 C210.12,384.95 211.20,383.00 211.20,383.00 C211.20,383.00 210.63,384.44 210.63,384.44" fill="none" stroke="rgb(0, 0, 255)" stroke-width="2.85" stroke-opacity="1.00" stroke-linejoin="round"/>
<path d="M211.01,389.01 C211.01,389.01 209.70,390.14 209.70,390.14 C209.70,390.14 210.89,387.72 210.89,387.72 C210.89,387.72 209.88,388.85 209.88,388.85" fill="none" stroke="rgb(0, 0, 255)" stroke-width="2.85" stroke-opacity="1.00" stroke-linejoin="round"/>
<path d="M237.70,341.25 C237.70,341.25 235.56,341.47 235.56,341.47 C236.78,341.47 239.04,341.46 239.11,341.47 C239.22,341.48 239.39,341.53 239.64,341.61" fill="none" stroke="rgb(0, 0, 255)" stroke-width="2.85" stroke-opacity="1.00" stroke-linejoin="round"/>
<path d="M238.60,358.74 C238.60,358.74 237.51,358.74 237.51,358.74 C237.72,358.71 237.90,358.71 238.05,358.74 C238.20,358.77 238.52,358.87 239.01,359.05" fill="none" stroke="rgb(0, 0, 255)" stroke-width="2.85" stroke-opacity="1.00" stroke-linejoin="round"/>
<path d="M248.91,343.71 C248.91,343.71 247.84,343.71 247.84,343.71 C247.83,343.60 250.27,343.75 254.27,345.53 C256.43,346.50 260.84,350.07 261.67,351.25 C262.88,353.05 264.74,357.55 265.30,359.92 C265.83,362.24 265.89,365.91 265.35,367.66 C264.77,369.36 259.40,375.15 256.72,376.40 C254.35,377.47 251.88,377.54 251.70,377.52 C251.70,377.52 251.38,376.68 251.38,376.68" fill="none" stroke="rgb(0, 0, 255)" stroke-width="2.85" stroke-opacity="1.00" stroke-linejoin="round"/>
<path d="M249.14,369.06 C249.14,369.06 248.69,369.09 248.69,369.09 C250.63,369.84 254.77,365.20 254.89,364.24 C254.04,362.53 249.64,358.61 248.57,357.37 C248.34,357.10 248.09,356.75 247.82,356.33" fill="none" stroke="rgb(0, 0, 255)" stroke-width="2.85" stroke-opacity="1.00" stroke-linejoin="round"/>
<path d="M240.62,370.18 C240.13,370.32 239.27,371.38 239.00,372.49 C238.71,373.80 239.36,376.98 240.03,377.62 C241.50,378.99 243.78,379.14 243.98,379.07 C243.98,379.07 244.21,378.70 244.21,378.70" fill="none" stroke="rgb(0, 0, 255)" stroke-width="2.85" stroke-opacity="1.00" stroke-linejoin="round"/>
<path d="M235.23,397.09 C235.23,397.09 234.11,397.31 234.11,397.31 C235.88,397.87 238.61,402.75 242.49,412.19 C246.45,421.89 247.53,432.07 247.49,432.87 C245.60,433.60 236.41,433.24 227.47,434.06 C224.88,434.30 219.93,434.49 216.45,433.79 C211.19,432.73 208.50,432.57 204.94,432.68 C196.49,432.99 192.04,432.86 190.07,431.51 C189.35,430.98 189.38,426.95 190.13,417.13 C190.38,413.26 190.43,408.03 190.38,401.72 C190.38,401.24 190.38,400.77 190.38,400.29" fill="none" stroke="rgb(0, 0, 255)" stroke-width="2.85" stroke-opacity="1.00" stroke-linejoin="round"/>
<path d="M215.50,397.99 C214.31,398.41 213.57,398.68 213.28,398.81 C212.93,398.97 196.54,411.54 192.80,417.19 C192.50,417.64 191.92,418.63 191.07,420.16" fill="none" stroke="rgb(0, 0, 255)" stroke-width="2.85" stroke-opacity="1.00" stroke-linejoin="round"/>
<path d="M232.54,402.25 C232.07,402.24 231.44,402.28 231.07,402.50 C230.74,402.70 218.54,411.27 215.76,413.15 C212.64,415.27 208.25,419.37 205.98,421.50 C205.61,421.85 205.16,422.37 204.61,423.05" fill="none" stroke="rgb(0, 0, 255)" stroke-width="2.85" stroke-opacity="1.00" stroke-linejoin="round"/>
<path d="M217.52,424.67 C217.89,424.32 218.50,423.66 218.85,423.38 C221.27,421.42 236.03,411.60 237.87,410.59 C237.87,410.59 238.39,410.85 238.39,410.85" fill="none" stroke="rgb(0, 0, 255)" stroke-width="2.85" stroke-opacity="1.00" stroke-linejoin="round"/>
<path d="M227.39,399.56 C227.07,399.98 227.33,401.62 229.38,404.71 C233.14,410.25 235.20,413.38 235.76,414.53 C237.14,417.43 238.84,423.59 239.06,424.00 C239.06,424.00 239.08,423.87 239.08,423.87" fill="none" stroke="rgb(0, 0, 255)" stroke-width="2.85" stroke-opacity="1.00" stroke-linejoin="round"/>
<path d="M213.71,403.37 C213.71,403.37 212.92,403.14 212.92,403.14 C216.04,406.40 220.53,414.45 224.89,423.10 C226.40,426.14 227.67,429.14 228.28,432.58 C228.28,432.58 228.28,432.60 228.28,432.60" fill="none" stroke="rgb(0, 0, 255)" stroke-width="2.85" stroke-opacity="1.00" stroke-linejoin="round"/>
<path d="M200.25,402.25 C200.25,402.25 200.08,400.94 200.08,400.94 C202.79,402.69 214.84,430.82 214.81,430.88 C214.81,430.88 214.36,430.47 214.36,430.47" fill="none" stroke="rgb(0, 0, 255)" stroke-width="2.85" stroke-opacity="1.00" stroke-linejoin="round"/>
<path d="M190.83,415.93 C191.57,417.21 192.19,418.20 193.58,420.28 C197.40,426.07 201.04,432.68 201.48,434.37 C201.48,434.37 201.59,434.44 201.59,434.44" fill="none" stroke="rgb(0, 0, 255)" stroke-width="2.85" stroke-opacity="1.00" stroke-linejoin="round"/>
<path d="M219.74,436.49 C219.74,436.49 218.66,436.04 218.66,436.04 C218.18,436.87 219.18,446.48 218.76,453.45 C218.42,459.50 218.86,478.72 218.95,479.53 C219.00,479.92 219.12,480.50 219.31,481.26" fill="none" stroke="rgb(0, 0, 255)" stroke-width="2.85" stroke-opacity="1.00" stroke-linejoin="round"/>
<path d="M228.32,438.28 C228.32,438.28 227.84,437.20 227.84,437.20 C227.48,449.33 226.89,467.49 226.86,475.65 C226.86,475.66 226.86,475.71 226.86,475.69" fill="none" stroke="rgb(0, 0, 255)" stroke-width="2.85" stroke-opacity="1.00" stroke-linejoin="round"/>
<path d="M226.22,471.32 C225.54,470.65 224.79,468.87 223.48,468.77 C222.34,468.71 213.39,471.08 212.99,471.11 C212.56,471.13 212.13,471.16 211.71,471.18" fill="none" stroke="rgb(0, 0, 255)" stroke-width="2.85" stroke-opacity="1.00" stroke-linejoin="round"/>
<path d="M219.74,478.77 C219.74,478.77 219.25,478.85 219.25,478.85 C220.15,479.16 223.37,478.48 223.87,478.36 C225.50,478.01 231.13,478.25 232.27,478.23 C234.25,478.22 237.52,479.26 237.97,479.77 C238.45,480.36 238.90,483.33 238.81,483.78 C238.79,483.87 238.73,483.98 238.63,484.13" fill="none" stroke="rgb(0, 0, 255)" stroke-width="2.85" stroke-opacity="1.00" stroke-linejoin="round"/>
<path d="M221.03,479.58 C219.01,479.58 218.58,479.95 218.53,480.35 C218.39,481.64 218.49,485.72 218.68,486.25 C219.51,488.12 239.32,485.49 240.63,485.31 C240.68,485.30 240.78,485.28 240.92,485.26" fill="none" stroke="rgb(0, 0, 255)" stroke-width="2.85" stroke-opacity="1.00" stroke-linejoin="round"/>
<path d="M228.32,479.91 C228.32,479.91 226.51,480.22 226.51,480.22 C226.51,480.22 227.13,485.45 227.13,485.45 C227.30,485.19 227.80,483.54 228.07,482.93 C228.19,482.66 228.39,482.35 228.69,482.01" fill="none" stroke="rgb(0, 0, 255)" stroke-width="2.85" stroke-opacity="1.00" stroke-linejoin="round"/>
<path d="M207.91,479.26 C207.57,479.25 207.27,479.26 207.17,479.22 C205.79,478.63 203.61,478.62 201.54,479.57 C199.70,480.44 197.52,482.11 197.25,482.52 C197.11,482.73 197.00,483.12 196.91,483.68" fill="none" stroke="rgb(0, 0, 255)" stroke-width="2.85" stroke-opacity="1.00" stroke-linejoin="round"/>
<path d="M207.43,478.61 C207.43,478.61 206.45,478.61 206.45,478.61 C206.46,480.47 206.14,482.12 206.17,482.23 C206.20,482.32 206.30,482.53 206.49,482.88" fill="none" stroke="rgb(0, 0, 255)" stroke-width="2.85" stroke-opacity="1.00" stroke-linejoin="round"/>
<path d="M209.05,478.45 C209.05,478.45 208.48,478.61 208.48,478.61 C208.48,478.61 208.48,478.61 208.48,478.61 C209.03,478.62 213.72,478.73 216.01,479.40 C216.65,479.59 217.26,480.12 217.00,481.26 C216.61,482.84 215.59,484.07 214.18,484.37 C213.06,484.60 203.13,486.36 200.61,486.15 C197.70,485.88 194.26,484.16 193.57,483.35 C191.95,481.30 190.32,472.44 190.50,466.21 C190.67,460.79 190.50,450.59 191.21,445.40 C191.92,440.38 193.39,436.20 193.74,435.49 C193.90,435.18 194.20,434.66 194.65,433.95" fill="none" stroke="rgb(0, 0, 255)" stroke-width="2.85" stroke-opacity="1.00" stroke-linejoin="round"/>
<path d="M206.29,434.71 C206.29,434.71 206.29,434.63 206.29,434.63 C206.29,434.63 206.37,434.55 206.37,434.55 C206.23,444.89 205.86,463.15 206.55,476.20 C206.57,476.45 206.62,476.84 206.70,477.37" fill="none" stroke="rgb(0, 0, 255)" stroke-width="2.85" stroke-opacity="1.00" stroke-linejoin="round"/>
<path d="M392.81,305.00 C392.81,305.00 391.63,305.00 391.63,305.00 C391.63,307.86 391.61,314.60 391.66,315.32 C391.99,319.25 393.20,322.49 394.21,323.65 C395.26,324.80 399.09,327.27 401.17,327.99 C403.35,328.72 407.13,329.32 409.40,329.10 C411.32,328.89 416.36,327.02 417.56,326.23 C419.47,324.93 422.22,319.93 422.99,316.63 C423.55,314.10 423.86,309.79 423.82,309.35 C423.80,309.12 423.72,308.78 423.59,308.31" fill="none" stroke="rgb(0, 0, 255)" stroke-width="2.85" stroke-opacity="1.00" stroke-linejoin="round"/>
<path d="M394.46,315.86 C394.46,315.86 394.34,315.86 394.34,315.86 C395.11,315.42 396.15,315.18 398.33,315.01 C404.62,314.58 418.17,314.97 423.81,315.15 C423.81,315.15 423.44,315.15 423.44,315.15" fill="none" stroke="rgb(0, 0, 255)" stroke-width="2.85" stroke-opacity="1.00" stroke-linejoin="round"/>
<path d="M398.94,304.77 C398.94,304.77 398.94,304.65 398.94,304.65 C398.90,304.55 393.91,309.58 397.70,312.81 C398.59,312.62 400.24,310.66 402.21,307.26 C404.42,303.45 407.10,300.97 408.17,301.14 C408.75,301.94 408.14,305.43 407.61,308.23 C407.42,309.71 407.58,311.17 407.84,311.64 C409.09,311.25 409.71,310.85 410.39,309.69 C413.82,303.91 414.13,303.46 414.44,303.22 C414.44,303.22 414.93,312.01 414.93,312.01 C415.79,311.87 417.05,309.80 419.43,305.42 C420.19,304.01 420.59,303.41 420.91,303.11 C421.17,303.97 421.04,307.23 421.00,308.51 C420.95,310.17 421.13,312.30 421.35,313.81" fill="none" stroke="rgb(0, 0, 255)" stroke-width="2.85" stroke-opacity="1.00" stroke-linejoin="round"/>
<path d="M426.33,313.50 C426.33,313.50 425.85,313.50 425.85,313.50 C427.80,313.20 429.11,314.14 429.40,315.46 C429.66,316.75 429.46,319.46 429.05,320.07 C428.86,320.30 427.67,320.64 426.98,320.55 C426.65,320.51 426.01,320.34 425.05,320.03" fill="none" stroke="rgb(0, 0, 255)" stroke-width="2.85" stroke-opacity="1.00" stroke-linejoin="round"/>
<path d="M388.56,318.46 C387.82,318.38 387.35,318.16 387.18,318.10 C385.93,317.71 381.89,317.94 380.06,318.03 C378.17,318.20 376.79,319.15 376.91,319.82 C377.06,320.51 378.29,322.06 379.21,322.44 C380.50,322.92 384.61,322.25 387.50,320.85 C388.16,320.53 388.82,320.21 389.49,319.89" fill="none" stroke="rgb(0, 0, 255)" stroke-width="2.85" stroke-opacity="1.00" stroke-linejoin="round"/>
<path d="M401.54,318.70 C401.54,318.70 399.71,318.75 399.71,318.75 C399.71,318.75 399.89,318.82 399.89,318.82" fill="none" stroke="rgb(0, 0, 255)" stroke-width="2.85" stroke-opacity="1.00" stroke-linejoin="round"/>
<path d="M406.26,318.22 C406.26,318.22 405.08,318.22 405.08,318.22 C405.08,318.22 407.62,324.38 407.62,324.38 C407.97,324.48 408.26,324.50 408.48,324.43 C408.70,324.36 409.16,324.11 409.88,323.67" fill="none" stroke="rgb(0, 0, 255)" stroke-width="2.85" stroke-opacity="1.00" stroke-linejoin="round"/>
<path d="M415.23,319.40 C415.23,319.40 414.52,319.17 414.52,319.17 C414.52,319.17 415.16,319.17 415.16,319.17 C414.85,319.24 414.64,319.31 414.55,319.37 C414.45,319.42 414.32,319.55 414.15,319.75" fill="none" stroke="rgb(0, 0, 255)" stroke-width="2.85" stroke-opacity="1.00" stroke-linejoin="round"/>
<path d="M405.32,328.37 C405.32,328.37 405.08,328.37 405.08,328.37 C405.26,328.37 405.45,328.37 405.63,328.37 C405.77,328.37 405.91,328.37 406.05,328.37" fill="none" stroke="rgb(0, 0, 255)" stroke-width="2.85" stroke-opacity="1.00" stroke-linejoin="round"/>
<path d="M420.19,328.85 C420.19,328.85 419.43,328.89 419.43,328.89 C419.35,329.00 421.37,332.93 421.72,336.22 C421.96,338.69 421.93,345.85 421.87,346.83 C421.87,346.83 421.84,346.72 421.84,346.72" fill="none" stroke="rgb(0, 0, 255)" stroke-width="2.85" stroke-opacity="1.00" stroke-linejoin="round"/>
<path d="M421.13,329.08 C421.13,329.08 420.31,329.08 420.31,329.08 C420.31,329.08 420.37,328.53 420.37,328.53 C420.37,328.53 421.93,327.57 421.93,327.57 C422.67,327.85 426.04,333.95 426.08,337.27 C426.08,339.58 425.05,344.06 424.52,344.73 C424.10,345.24 423.68,345.75 423.25,346.26" fill="none" stroke="rgb(0, 0, 255)" stroke-width="2.85" stroke-opacity="1.00" stroke-linejoin="round"/>
<path d="M400.83,330.03 C400.83,330.03 401.54,329.08 401.54,329.08 C401.08,329.13 399.72,331.26 397.58,336.34 C391.65,349.25 391.05,350.23 389.91,350.73 C388.86,350.30 387.69,347.27 388.13,345.23 C388.46,343.75 391.89,335.25 393.19,332.55 C393.92,331.05 395.54,328.83 396.66,327.84 C397.01,327.54 397.56,327.18 398.32,326.78" fill="none" stroke="rgb(0, 0, 255)" stroke-width="2.85" stroke-opacity="1.00" stroke-linejoin="round"/>
<path d="M397.06,327.67 C396.06,328.11 395.42,328.39 395.15,328.53 C395.05,328.58 393.02,329.84 392.60,330.21 C389.01,333.53 385.47,336.34 384.46,337.83 C381.79,341.94 380.81,364.46 380.62,368.85 C381.76,369.64 382.44,369.86 383.35,369.59 C384.61,369.20 385.68,368.72 386.28,368.24 C387.50,367.18 387.85,363.29 387.93,358.35 C387.98,355.58 388.08,350.70 388.07,350.45 C388.07,350.15 388.02,349.75 387.95,349.25" fill="none" stroke="rgb(0, 0, 255)" stroke-width="2.85" stroke-opacity="1.00" stroke-linejoin="round"/>
<path d="M381.24,369.21 C381.24,369.21 380.55,368.50 380.55,368.50 C379.94,369.10 378.71,374.00 378.78,375.06 C378.89,376.23 380.65,377.44 381.99,377.57 C383.28,377.67 385.65,376.64 386.55,375.51 C387.50,374.28 388.10,371.36 387.69,370.06 C387.58,369.71 387.13,369.10 386.30,368.05" fill="none" stroke="rgb(0, 0, 255)" stroke-width="2.85" stroke-opacity="1.00" stroke-linejoin="round"/>
<path d="M401.07,334.98 C401.07,334.98 400.48,334.04 400.48,334.04 C400.91,334.64 403.79,335.46 405.53,334.86 C408.98,333.55 408.16,330.71 407.69,329.83 C409.63,332.26 411.96,333.89 412.99,333.96 C415.06,334.01 418.63,330.86 418.95,330.46 C419.03,330.36 419.27,330.03 419.68,329.45" fill="none" stroke="rgb(0, 0, 255)" stroke-width="2.85" stroke-opacity="1.00" stroke-linejoin="round"/>
<path d="M406.73,335.46 C406.95,335.60 407.10,336.99 407.62,337.54 C408.25,338.17 410.27,338.30 411.15,337.67 C412.10,336.95 412.63,335.66 413.02,334.43 C413.02,334.43 412.78,334.01 412.78,334.01" fill="none" stroke="rgb(0, 0, 255)" stroke-width="2.85" stroke-opacity="1.00" stroke-linejoin="round"/>
<path d="M409.33,339.00 C409.33,339.00 408.39,339.19 408.39,339.19 C408.41,340.59 407.61,353.92 407.73,360.11 C407.86,364.55 409.33,370.77 410.12,371.60 C411.09,372.61 412.05,373.24 412.49,373.20 C413.15,373.11 413.98,367.91 413.90,365.74 C413.79,363.27 410.62,340.45 410.61,340.37 C410.59,340.09 410.55,339.34 410.50,338.12" fill="none" stroke="rgb(0, 0, 255)" stroke-width="2.85" stroke-opacity="1.00" stroke-linejoin="round"/>
<path d="M426.80,331.68 C426.80,331.68 425.97,331.44 425.97,331.44 C426.95,331.50 427.46,331.55 427.99,331.66 C428.29,331.72 428.60,331.78 428.91,331.85" fill="none" stroke="rgb(0, 0, 255)" stroke-width="2.85" stroke-opacity="1.00" stroke-linejoin="round"/>
<path d="M428.69,337.58 C428.49,337.71 428.37,337.79 428.33,337.82 C428.33,337.82 428.30,337.82 428.31,337.82 C428.31,337.82 429.21,337.82 429.21,337.82" fill="none" stroke="rgb(0, 0, 255)" stroke-width="2.85" stroke-opacity="1.00" stroke-linejoin="round"/>
<path d="M433.64,350.33 C433.64,350.33 434.77,349.38 434.77,349.38 C434.77,349.38 435.02,349.47 435.02,349.47 C434.11,349.44 430.95,348.56 429.63,349.01 C428.40,349.44 427.91,350.66 428.08,351.07 C428.40,351.77 430.51,353.12 430.52,353.15 C428.69,353.89 427.44,355.55 427.68,356.26 C428.03,357.02 430.25,357.33 432.03,356.90 C432.03,356.90 430.72,359.78 430.72,359.78 C431.34,360.33 433.27,360.07 434.85,358.95 C437.29,357.20 437.87,355.87 437.85,354.72 C437.83,354.06 437.04,351.49 437.16,351.21 C437.33,350.96 441.68,346.61 441.98,345.16 C442.18,343.99 440.69,342.00 439.24,341.16 C437.43,340.12 433.91,338.37 432.71,337.93 C432.35,337.80 431.89,337.69 431.33,337.59" fill="none" stroke="rgb(0, 0, 255)" stroke-width="2.85" stroke-opacity="1.00" stroke-linejoin="round"/>
<path d="M431.52,331.44 C431.52,331.44 431.28,331.68 431.28,331.68 C431.51,331.74 435.55,330.97 437.10,331.10 C438.63,331.27 443.15,333.34 444.29,334.71 C444.61,335.12 447.54,338.64 447.93,340.79 C448.20,342.53 448.12,345.69 447.77,347.36 C447.31,349.27 444.33,354.12 441.64,356.55 C440.62,357.43 438.26,358.02 436.48,358.35" fill="none" stroke="rgb(0, 0, 255)" stroke-width="2.85" stroke-opacity="1.00" stroke-linejoin="round"/>
<path d="M434.82,331.91 C433.15,332.38 428.92,332.16 428.79,332.15 C428.38,332.13 427.96,332.19 427.55,332.15 C427.44,332.14 427.36,332.09 427.31,332.01" fill="none" stroke="rgb(0, 0, 255)" stroke-width="2.85" stroke-opacity="1.00" stroke-linejoin="round"/>
<path d="M421.84,346.55 C421.84,346.55 420.78,347.65 420.78,347.65 C420.61,348.24 421.05,351.69 421.10,353.69 C421.56,373.33 421.74,376.14 421.83,377.06 C421.84,376.98 420.70,377.71 412.70,377.70 C404.49,377.77 395.15,379.54 389.54,380.53 C389.31,375.60 389.82,353.92 390.11,351.14 C390.20,350.40 390.28,349.66 390.36,348.93" fill="none" stroke="rgb(0, 0, 255)" stroke-width="2.85" stroke-opacity="1.00" stroke-linejoin="round"/>
<path d="M391.15,382.19 C391.15,382.19 390.45,381.96 390.45,381.96 C390.15,382.31 392.82,416.15 392.83,432.83 C392.77,440.24 392.68,453.09 393.58,460.31 C393.97,463.25 395.00,468.29 395.29,469.19 C395.73,470.44 397.37,471.53 400.92,472.51 C402.81,473.02 404.23,473.18 404.94,473.01 C405.80,472.65 406.77,469.00 407.04,464.83 C407.51,456.83 407.15,444.96 406.93,437.80 C406.82,431.07 405.65,417.98 405.56,415.66 C405.16,403.38 409.50,390.58 409.95,389.78 C410.72,390.47 413.69,410.87 416.50,437.31 C417.25,444.07 419.13,453.00 421.32,460.23 C422.31,463.47 424.23,466.23 425.55,466.82 C426.89,467.35 433.39,467.84 435.97,467.49 C437.52,467.27 438.97,466.60 439.52,466.06 C439.49,465.40 428.45,391.50 427.23,386.06 C424.70,375.54 423.78,372.21 423.53,371.62 C423.43,371.39 423.26,371.14 423.02,370.86" fill="none" stroke="rgb(0, 0, 255)" stroke-width="2.85" stroke-opacity="1.00" stroke-linejoin="round"/>
<path d="M405.31,380.56 C404.77,380.50 403.28,382.26 401.16,385.31 C394.94,394.34 392.20,397.82 391.86,398.34 C391.77,398.48 391.69,398.68 391.62,398.94" fill="none" stroke="rgb(0, 0, 255)" stroke-width="2.85" stroke-opacity="1.00" stroke-linejoin="round"/>
<path d="M412.68,378.34 C411.68,379.01 411.03,379.47 410.75,379.73 C409.06,381.30 405.62,388.24 399.80,400.63 C397.54,405.32 396.21,407.90 394.61,410.80" fill="none" stroke="rgb(0, 0, 255)" stroke-width="2.85" stroke-opacity="1.00" stroke-linejoin="round"/>
<path d="M421.53,380.19 C420.48,381.45 417.96,386.19 416.54,388.86 C415.73,390.32 414.45,392.63 413.97,393.48" fill="none" stroke="rgb(0, 0, 255)" stroke-width="2.85" stroke-opacity="1.00" stroke-linejoin="round"/>
<path d="M426.33,391.99 C425.43,392.39 424.81,392.76 424.48,393.10 C423.37,394.25 420.62,400.53 419.59,403.03 C417.75,407.56 417.16,409.11 416.77,410.16" fill="none" stroke="rgb(0, 0, 255)" stroke-width="2.85" stroke-opacity="1.00" stroke-linejoin="round"/>
<path d="M404.20,406.01 C403.33,407.27 401.89,410.39 400.45,413.19 C398.88,416.17 395.63,422.31 393.63,425.28 C393.31,425.76 392.86,426.37 392.29,427.12" fill="none" stroke="rgb(0, 0, 255)" stroke-width="2.85" stroke-opacity="1.00" stroke-linejoin="round"/>
<path d="M403.09,421.86 C402.61,421.71 402.25,421.75 401.99,421.97 C400.78,423.05 396.76,432.80 396.22,434.02 C395.46,435.73 394.46,437.82 393.91,438.89" fill="none" stroke="rgb(0, 0, 255)" stroke-width="2.85" stroke-opacity="1.00" stroke-linejoin="round"/>
<path d="M424.85,403.42 C424.85,403.42 424.67,403.42 424.67,403.42 C423.95,404.34 423.37,405.34 422.57,407.19 C421.17,410.38 418.84,416.39 417.53,419.81 C416.83,421.65 415.67,424.71 415.21,425.93" fill="none" stroke="rgb(0, 0, 255)" stroke-width="2.85" stroke-opacity="1.00" stroke-linejoin="round"/>
<path d="M429.28,415.59 C428.32,418.54 421.15,435.55 420.53,437.54 C420.01,439.22 419.39,441.78 419.10,443.27" fill="none" stroke="rgb(0, 0, 255)" stroke-width="2.85" stroke-opacity="1.00" stroke-linejoin="round"/>
<path d="M431.49,431.08 C431.49,431.08 430.82,431.27 430.82,431.27 C430.10,431.97 427.42,438.22 426.19,441.14 C424.91,444.19 422.04,451.17 421.78,452.05 C421.48,453.13 421.19,454.20 420.89,455.28" fill="none" stroke="rgb(0, 0, 255)" stroke-width="2.85" stroke-opacity="1.00" stroke-linejoin="round"/>
<path d="M431.12,444.73 C431.02,445.49 430.93,446.04 430.85,446.39 C430.74,446.84 428.76,453.75 428.03,456.99 C427.68,458.61 427.05,461.48 426.77,462.75" fill="none" stroke="rgb(0, 0, 255)" stroke-width="2.85" stroke-opacity="1.00" stroke-linejoin="round"/>
<path d="M402.73,448.79 C402.66,449.31 402.48,449.77 401.74,451.34 C401.24,452.42 399.90,455.28 399.40,456.31 C398.86,457.41 397.29,460.46 396.72,461.57" fill="none" stroke="rgb(0, 0, 255)" stroke-width="2.85" stroke-opacity="1.00" stroke-linejoin="round"/>
<path d="M404.20,461.33 C402.91,462.72 400.32,468.26 399.78,469.36 C399.26,470.43 398.20,472.41 397.84,473.07" fill="none" stroke="rgb(0, 0, 255)" stroke-width="2.85" stroke-opacity="1.00" stroke-linejoin="round"/>
<path d="M399.41,477.18 C398.64,477.74 396.53,479.28 395.95,479.66 C394.68,480.45 392.91,481.57 392.16,482.14 C392.16,482.14 394.53,481.68 394.53,481.68 C394.47,481.80 394.43,481.90 394.40,481.96 C394.37,482.03 394.32,482.16 394.24,482.35" fill="none" stroke="rgb(0, 0, 255)" stroke-width="2.85" stroke-opacity="1.00" stroke-linejoin="round"/>
<path d="M396.09,479.40 C394.53,479.46 392.69,479.89 391.68,480.66 C390.02,481.93 388.08,485.28 387.66,486.27 C387.78,487.15 389.44,488.32 390.92,488.60 C393.03,488.94 396.18,488.73 398.13,487.96 C401.40,486.65 403.50,484.30 403.82,483.69 C403.65,482.62 403.47,479.30 403.34,478.03 C403.28,477.44 403.15,476.59 402.94,475.47" fill="none" stroke="rgb(0, 0, 255)" stroke-width="2.85" stroke-opacity="1.00" stroke-linejoin="round"/>
<path d="M399.04,473.87 C399.04,473.87 398.19,474.42 398.19,474.42 C397.82,476.83 399.29,479.21 399.92,479.72 C399.92,479.72 403.51,478.49 403.51,478.49" fill="none" stroke="rgb(0, 0, 255)" stroke-width="2.85" stroke-opacity="1.00" stroke-linejoin="round"/>
<path d="M430.75,467.23 C429.96,467.97 429.15,469.00 428.91,469.94 C428.49,471.61 428.53,475.90 428.54,476.82 C428.51,476.83 425.54,477.32 422.38,479.79 C421.92,480.15 419.85,482.35 419.53,482.87 C418.44,484.68 417.99,486.94 418.42,488.23 C418.74,489.09 421.01,490.05 422.68,489.73 C424.49,489.35 429.06,486.79 430.77,485.24 C432.65,483.49 433.59,481.02 433.18,480.12 C432.75,479.36 430.51,477.95 428.95,477.76 C428.34,477.69 427.21,477.77 425.56,478.01" fill="none" stroke="rgb(0, 0, 255)" stroke-width="2.85" stroke-opacity="1.00" stroke-linejoin="round"/>
<path d="M433.34,477.18 C433.34,477.18 432.23,477.18 432.23,477.18 C433.55,472.92 434.01,466.27 434.07,465.34 C434.07,465.33 434.08,465.28 434.07,465.29" fill="none" stroke="rgb(0, 0, 255)" stroke-width="2.85" stroke-opacity="1.00" stroke-linejoin="round"/>
</g>
</svg>
