<?xml version="1.0" encoding="UTF-8" standalone="no"?>
<!DOCTYPE svg PUBLIC "-//W3C//DTD SVG 1.1//EN" "http://www.w3.org/Graphics/SVG/1.1/DTD/svg11.dtd">
<svg width="64.20" height="90.84" viewBox="0.00 0.00 535.00 757.00" xmlns="http://www.w3.org/2000/svg" xmlns:xlink="http://www.w3.org/1999/xlink">
<g stroke-linecap="round" id="11">
<path d="M410.67,329.40" fill="none" stroke="rgb(255, 113, 0)" stroke-width="2.76" stroke-opacity="1.00" stroke-linejoin="round"/>
<path d="M226.39,226.80 C226.39,226.80 226.39,227.02 226.39,227.02 C228.12,227.12 230.99,228.40 232.17,229.50 C233.17,230.45 239.29,236.76 242.02,238.04 C242.66,238.33 243.28,238.60 243.90,238.85 C244.47,239.08 245.04,239.31 245.61,239.54" fill="none" stroke="rgb(255, 113, 0)" stroke-width="2.76" stroke-opacity="1.00" stroke-linejoin="round"/>
<path d="M233.64,225.95 C233.64,225.95 233.64,226.06 233.64,226.06 C233.64,226.06 233.47,226.26 233.47,226.26 C241.35,234.14 246.21,238.58 250.33,240.58 C252.30,241.49 257.86,242.37 261.34,242.15 C263.76,241.99 272.47,240.36 274.32,239.72 C275.95,239.14 280.94,236.64 281.84,236.19" fill="none" stroke="rgb(255, 113, 0)" stroke-width="2.76" stroke-opacity="1.00" stroke-linejoin="round"/>
<path d="M223.40,210.81 C224.45,208.89 227.23,205.78 229.09,204.41 C233.54,201.18 244.20,196.45 247.73,196.05 C250.94,195.72 262.28,197.57 266.23,198.84 C268.61,199.62 273.26,201.92 275.40,203.73 C278.03,206.02 284.75,218.87 286.03,222.80 C286.91,225.66 286.71,230.19 285.92,231.90 C285.48,232.78 284.41,234.47 283.89,234.92 C283.14,235.56 278.60,237.64 277.58,238.11" fill="none" stroke="rgb(255, 113, 0)" stroke-width="2.76" stroke-opacity="1.00" stroke-linejoin="round"/>
<path d="M234.49,213.37 C235.09,213.37 238.03,213.38 238.76,213.44 C241.48,213.73 247.90,216.93 250.63,219.74 C253.03,222.52 255.97,225.87 257.27,227.02 C257.27,227.02 256.15,227.02 256.15,227.02" fill="none" stroke="rgb(255, 113, 0)" stroke-width="2.76" stroke-opacity="1.00" stroke-linejoin="round"/>
<path d="M231.51,221.05 C232.53,219.93 240.60,223.36 247.23,227.22 C251.63,229.82 252.42,230.33 252.89,230.72 C252.89,230.72 251.85,230.74 251.85,230.74" fill="none" stroke="rgb(255, 113, 0)" stroke-width="2.76" stroke-opacity="1.00" stroke-linejoin="round"/>
<path d="M254.33,202.49 C253.16,202.47 249.90,203.99 246.93,206.97 C246.15,207.77 245.39,209.07 245.26,209.62 C245.20,209.95 245.54,211.30 245.75,212.10" fill="none" stroke="rgb(255, 113, 0)" stroke-width="2.76" stroke-opacity="1.00" stroke-linejoin="round"/>
<path d="M259.87,213.15 C259.87,213.15 259.82,212.25 259.82,212.25 C259.82,212.25 258.96,212.22 258.96,212.22 C257.76,212.99 255.33,215.94 254.87,217.04 C254.38,218.30 254.79,219.76 255.30,221.39" fill="none" stroke="rgb(255, 113, 0)" stroke-width="2.76" stroke-opacity="1.00" stroke-linejoin="round"/>
<path d="M263.07,221.05 C263.17,221.17 261.28,224.23 260.86,225.33 C260.80,225.50 260.70,225.79 260.56,226.21" fill="none" stroke="rgb(255, 113, 0)" stroke-width="2.76" stroke-opacity="1.00" stroke-linejoin="round"/>
<path d="M221.48,213.58 C221.48,213.58 221.16,213.58 221.16,213.58 C220.63,213.99 219.49,216.95 218.39,221.50 C217.12,226.94 216.15,232.79 216.30,235.88 C216.48,239.27 217.54,246.00 218.03,246.46 C218.03,246.46 218.53,246.63 218.53,246.63" fill="none" stroke="rgb(255, 113, 0)" stroke-width="2.76" stroke-opacity="1.00" stroke-linejoin="round"/>
<path d="M226.18,229.58 C225.15,230.05 223.86,231.62 223.06,233.74 C222.32,235.76 220.11,246.25 219.80,246.66 C219.80,246.66 220.07,247.39 220.07,247.39" fill="none" stroke="rgb(255, 113, 0)" stroke-width="2.76" stroke-opacity="1.00" stroke-linejoin="round"/>
<path d="M221.06,247.71 C221.25,248.83 223.33,254.00 224.22,256.71 C225.21,259.83 225.84,273.64 227.56,280.02 C228.53,283.52 230.36,288.12 231.77,290.10 C233.42,292.35 243.68,300.23 244.19,300.53 C244.81,300.88 247.38,301.99 248.14,302.31" fill="none" stroke="rgb(255, 113, 0)" stroke-width="2.76" stroke-opacity="1.00" stroke-linejoin="round"/>
<path d="M281.20,239.82 C281.20,239.82 280.88,239.92 280.88,239.92 C280.63,239.64 280.89,244.92 281.44,248.55 C282.60,256.09 282.91,274.83 281.86,280.62 C281.36,283.21 279.53,287.70 277.93,290.00 C273.90,295.63 267.28,301.44 266.05,302.04 C266.05,302.04 264.99,301.24 264.99,301.24" fill="none" stroke="rgb(255, 113, 0)" stroke-width="2.76" stroke-opacity="1.00" stroke-linejoin="round"/>
<path d="M281.42,253.04 C281.43,252.99 281.18,251.82 281.72,250.81 C282.31,249.74 286.13,246.31 287.28,246.24 C288.37,246.22 289.94,247.34 290.43,248.07 C291.06,249.09 291.74,252.71 291.54,255.32 C291.15,259.94 288.58,264.09 287.59,265.32 C287.59,265.32 284.19,265.84 284.19,265.84" fill="none" stroke="rgb(255, 113, 0)" stroke-width="2.76" stroke-opacity="1.00" stroke-linejoin="round"/>
<path d="M223.62,254.11 C223.35,254.14 223.15,254.14 223.01,254.11 C220.39,253.49 219.47,253.46 218.52,254.04 C217.71,254.59 216.43,256.74 216.39,259.20 C216.38,262.10 217.93,265.82 219.97,269.47 C220.86,271.03 221.93,273.10 222.14,273.41 C222.14,273.41 224.76,273.94 224.76,273.94" fill="none" stroke="rgb(255, 113, 0)" stroke-width="2.76" stroke-opacity="1.00" stroke-linejoin="round"/>
<path d="M230.44,247.92 C230.44,247.92 229.80,248.13 229.80,248.13 C233.43,248.24 239.98,249.61 241.79,250.35 C244.13,251.32 245.98,252.86 246.06,252.91 C246.06,252.91 245.80,253.25 245.80,253.25" fill="none" stroke="rgb(255, 113, 0)" stroke-width="2.76" stroke-opacity="1.00" stroke-linejoin="round"/>
<path d="M229.59,252.19 C229.92,252.24 230.25,252.27 230.59,252.29 C235.84,252.56 244.61,254.93 245.99,255.39 C245.99,255.39 245.61,255.39 245.61,255.39" fill="none" stroke="rgb(255, 113, 0)" stroke-width="2.76" stroke-opacity="1.00" stroke-linejoin="round"/>
<path d="M233.85,253.89 C233.85,253.89 233.32,254.21 233.32,254.21 C233.23,254.56 233.18,255.35 233.24,256.08 C233.40,257.67 234.96,259.31 235.67,259.35 C235.86,259.36 236.32,259.33 237.08,259.27" fill="none" stroke="rgb(255, 113, 0)" stroke-width="2.76" stroke-opacity="1.00" stroke-linejoin="round"/>
<path d="M241.53,253.89 C241.57,253.96 241.70,254.25 241.81,254.87 C242.15,256.81 242.46,258.84 242.60,260.13 C242.60,260.13 242.11,260.66 242.11,260.66" fill="none" stroke="rgb(255, 113, 0)" stroke-width="2.76" stroke-opacity="1.00" stroke-linejoin="round"/>
<path d="M232.36,260.08 C232.36,260.08 232.15,260.29 232.15,260.29 C232.11,260.28 234.15,260.48 234.70,260.50 C234.84,260.51 244.98,260.53 247.68,259.67 C248.83,259.25 250.37,258.76 250.55,258.66 C250.59,258.64 250.71,258.54 250.92,258.37" fill="none" stroke="rgb(255, 113, 0)" stroke-width="2.76" stroke-opacity="1.00" stroke-linejoin="round"/>
<path d="M258.60,254.11 C258.60,254.11 258.54,253.95 258.54,253.95 C259.60,253.24 263.44,251.76 265.19,251.63 C268.94,251.39 272.41,251.95 273.45,252.19 C273.45,252.19 272.53,252.38 272.53,252.38" fill="none" stroke="rgb(255, 113, 0)" stroke-width="2.76" stroke-opacity="1.00" stroke-linejoin="round"/>
<path d="M263.50,252.83 C263.50,252.83 262.75,253.15 262.75,253.15 C262.57,253.52 263.14,256.09 263.60,256.61 C263.72,256.74 263.86,256.81 264.03,256.84 C264.12,256.86 264.36,256.87 264.76,256.88" fill="none" stroke="rgb(255, 113, 0)" stroke-width="2.76" stroke-opacity="1.00" stroke-linejoin="round"/>
<path d="M268.41,250.91 C268.34,252.43 267.97,255.17 268.00,255.95 C268.01,256.18 268.07,256.44 268.17,256.73" fill="none" stroke="rgb(255, 113, 0)" stroke-width="2.76" stroke-opacity="1.00" stroke-linejoin="round"/>
<path d="M260.51,258.37 C260.51,258.37 259.87,258.37 259.87,258.37 C262.01,258.38 263.39,258.33 265.93,258.09 C269.90,257.70 273.76,256.28 275.33,255.51 C275.33,255.51 275.46,255.18 275.46,255.18" fill="none" stroke="rgb(255, 113, 0)" stroke-width="2.76" stroke-opacity="1.00" stroke-linejoin="round"/>
<path d="M255.82,251.97 C255.82,251.97 255.61,252.19 255.61,252.19 C256.82,252.19 260.76,252.17 260.94,252.17 C261.34,252.18 265.09,249.24 266.07,248.68 C267.65,247.81 273.33,246.44 275.32,246.36 C275.66,246.34 275.96,246.42 276.23,246.60" fill="none" stroke="rgb(255, 113, 0)" stroke-width="2.76" stroke-opacity="1.00" stroke-linejoin="round"/>
<path d="M254.12,257.31 C254.12,257.31 254.01,257.31 254.01,257.31 C253.96,257.40 254.91,260.52 255.91,263.54 C256.55,265.01 257.48,265.95 258.58,266.95 C257.71,268.82 254.97,274.23 254.75,274.72 C254.66,274.93 254.52,275.31 254.33,275.86" fill="none" stroke="rgb(255, 113, 0)" stroke-width="2.76" stroke-opacity="1.00" stroke-linejoin="round"/>
<path d="M243.88,289.73 C244.99,289.70 245.94,289.64 247.92,289.45 C257.68,288.48 271.71,284.30 272.85,284.01 C272.85,284.01 271.82,284.39 271.82,284.39" fill="none" stroke="rgb(255, 113, 0)" stroke-width="2.76" stroke-opacity="1.00" stroke-linejoin="round"/>
<path d="M254.33,294.84 C255.28,296.24 259.30,295.64 259.72,295.36 C259.89,295.25 260.24,294.94 260.77,294.45" fill="none" stroke="rgb(255, 113, 0)" stroke-width="2.76" stroke-opacity="1.00" stroke-linejoin="round"/>
<path d="M238.12,301.46 C238.12,301.46 237.59,301.62 237.59,301.62 C237.31,303.17 238.26,309.00 238.45,310.40 C239.28,317.17 240.30,324.59 240.40,324.76 C240.40,324.76 241.96,323.00 241.96,323.00" fill="none" stroke="rgb(255, 113, 0)" stroke-width="2.76" stroke-opacity="1.00" stroke-linejoin="round"/>
<path d="M244.73,313.40 C244.17,314.19 243.73,317.55 244.15,321.03 C244.31,322.30 244.62,323.50 244.91,324.28 C244.91,324.28 245.89,324.89 245.89,324.89" fill="none" stroke="rgb(255, 113, 0)" stroke-width="2.76" stroke-opacity="1.00" stroke-linejoin="round"/>
<path d="M277.58,294.84 C277.64,297.51 277.70,298.94 277.83,300.63 C278.48,310.51 278.35,315.63 278.23,315.62 C278.23,315.62 278.57,313.87 278.57,313.87" fill="none" stroke="rgb(255, 113, 0)" stroke-width="2.76" stroke-opacity="1.00" stroke-linejoin="round"/>
<path d="M281.63,295.48 C281.30,296.99 281.00,301.44 281.00,305.00 C281.02,309.16 281.56,314.60 282.01,315.20 C282.06,315.25 282.19,315.37 282.41,315.55" fill="none" stroke="rgb(255, 113, 0)" stroke-width="2.76" stroke-opacity="1.00" stroke-linejoin="round"/>
<path d="M244.73,313.19 C245.12,313.98 245.61,314.52 246.53,314.95 C248.73,315.97 254.59,317.93 257.06,318.20 C259.25,318.41 262.25,317.79 262.99,317.41 C262.99,317.41 263.06,316.98 263.06,316.98" fill="none" stroke="rgb(255, 113, 0)" stroke-width="2.76" stroke-opacity="1.00" stroke-linejoin="round"/>
<path d="M264.14,303.80 C264.14,303.80 263.61,303.64 263.61,303.64 C263.55,304.41 264.55,310.29 264.77,311.78 C265.53,317.15 265.41,323.40 265.36,324.38 C265.36,324.38 264.96,323.89 264.96,323.89" fill="none" stroke="rgb(255, 113, 0)" stroke-width="2.76" stroke-opacity="1.00" stroke-linejoin="round"/>
<path d="M256.46,306.58 C256.02,309.11 256.03,315.00 256.04,317.69 C256.04,319.63 256.05,324.03 256.14,324.63 C256.19,324.95 256.34,325.29 256.58,325.64" fill="none" stroke="rgb(255, 113, 0)" stroke-width="2.76" stroke-opacity="1.00" stroke-linejoin="round"/>
<path d="M248.14,325.98 C248.14,325.98 247.93,325.98 247.93,325.98 C247.91,325.96 247.95,326.04 247.97,326.07 C251.23,330.55 255.93,332.55 258.16,333.40 C258.16,333.40 257.52,332.94 257.52,332.94" fill="none" stroke="rgb(255, 113, 0)" stroke-width="2.76" stroke-opacity="1.00" stroke-linejoin="round"/>
<path d="M238.55,322.79 C237.10,323.78 236.24,324.43 235.97,324.79 C235.69,325.17 234.77,328.18 234.60,328.48 C234.46,328.71 235.04,329.84 237.23,330.72 C245.65,334.04 259.71,333.12 260.49,333.07 C260.75,333.55 259.03,345.79 258.92,346.48 C258.87,346.78 258.76,347.27 258.60,347.95" fill="none" stroke="rgb(255, 113, 0)" stroke-width="2.76" stroke-opacity="1.00" stroke-linejoin="round"/>
<path d="M234.49,329.40 C234.49,329.40 234.07,328.97 234.07,328.97 C234.07,328.97 233.68,329.08 233.68,329.08 C233.68,329.08 231.98,339.69 231.98,339.69 C233.38,340.78 250.28,345.04 254.03,346.81 C254.55,347.08 255.07,347.35 255.59,347.62 C255.96,347.80 256.82,348.20 258.17,348.81" fill="none" stroke="rgb(255, 113, 0)" stroke-width="2.76" stroke-opacity="1.00" stroke-linejoin="round"/>
<path d="M263.93,331.96 C263.93,331.96 263.39,332.40 263.39,332.40 C263.42,333.65 265.07,339.56 265.17,341.58 C265.28,344.17 265.05,346.67 265.05,346.87 C265.05,346.87 266.39,345.51 266.39,345.51" fill="none" stroke="rgb(255, 113, 0)" stroke-width="2.76" stroke-opacity="1.00" stroke-linejoin="round"/>
<path d="M266.70,330.68 C266.70,330.68 266.70,331.42 266.70,331.42 C268.10,331.71 270.58,330.37 272.62,328.88 C275.57,326.67 277.63,324.36 280.10,320.28 C281.61,317.74 282.71,315.67 283.20,314.98 C283.45,314.94 289.03,318.70 291.01,319.64 C292.46,320.36 292.91,320.90 292.87,322.03 C292.26,330.44 292.32,333.78 291.96,334.37 C291.12,334.74 281.00,339.32 273.02,344.40 C271.66,345.27 270.76,345.84 270.33,346.09 C269.90,346.35 269.04,346.83 267.77,347.53" fill="none" stroke="rgb(255, 113, 0)" stroke-width="2.76" stroke-opacity="1.00" stroke-linejoin="round"/>
<path d="M231.48,334.04 C231.48,334.04 231.48,333.55 231.48,333.55 C231.28,333.40 230.86,333.36 230.38,333.51 C230.29,333.54 220.34,340.34 213.72,343.62 C210.35,345.30 196.36,355.99 194.18,358.63 C192.80,360.34 191.50,365.42 191.17,368.88 C191.04,370.24 190.13,381.56 190.06,382.16 C190.06,382.16 190.70,382.65 190.70,382.65" fill="none" stroke="rgb(255, 113, 0)" stroke-width="2.76" stroke-opacity="1.00" stroke-linejoin="round"/>
<path d="M150.89,334.36 C150.89,334.36 150.89,334.20 150.89,334.20 C150.89,334.20 150.48,354.60 150.48,354.60 C150.76,353.26 150.95,352.36 151.05,351.91 C151.16,351.46 151.32,350.83 151.53,350.01" fill="none" stroke="rgb(255, 113, 0)" stroke-width="2.76" stroke-opacity="1.00" stroke-linejoin="round"/>
<path d="M152.84,331.42 C152.84,331.42 152.19,331.75 152.19,331.75 C152.91,331.66 153.67,331.50 155.09,331.07 C169.78,326.71 179.86,325.51 180.14,325.86 C184.51,331.70 191.83,339.10 191.62,339.06 C184.81,340.06 179.76,341.63 170.35,345.39 C163.07,348.25 151.66,351.23 150.24,351.61 C150.24,351.61 150.23,349.70 150.23,349.70" fill="none" stroke="rgb(255, 113, 0)" stroke-width="2.76" stroke-opacity="1.00" stroke-linejoin="round"/>
<path d="M156.11,335.67 C156.11,335.67 156.11,335.50 156.11,335.50 C156.47,335.35 170.73,332.41 170.73,332.41 C170.86,332.37 170.96,332.29 171.02,332.17" fill="none" stroke="rgb(255, 113, 0)" stroke-width="2.76" stroke-opacity="1.00" stroke-linejoin="round"/>
<path d="M174.38,338.28 C172.76,339.58 171.54,340.78 171.36,341.46 C171.30,341.68 171.30,342.08 171.36,342.68 C173.70,343.00 175.24,342.69 176.18,341.50 C176.36,341.28 176.65,340.82 177.07,340.14 C175.83,339.24 174.80,339.06 173.18,339.61 C172.57,339.83 171.95,340.04 171.34,340.25" fill="none" stroke="rgb(255, 113, 0)" stroke-width="2.76" stroke-opacity="1.00" stroke-linejoin="round"/>
<path d="M155.78,352.31 C155.50,352.68 155.37,353.31 155.51,354.40 C155.85,356.93 159.12,366.53 159.44,367.51 C160.38,370.47 160.97,376.20 161.06,376.95 C161.16,377.94 161.89,378.84 163.29,380.04" fill="none" stroke="rgb(255, 113, 0)" stroke-width="2.76" stroke-opacity="1.00" stroke-linejoin="round"/>
<path d="M166.55,374.50 C166.55,374.50 166.06,374.50 166.06,374.50 C165.22,373.97 172.89,415.85 175.09,424.11 C178.10,434.78 181.11,441.98 184.60,447.24 C188.63,453.17 196.56,464.11 199.02,466.13 C200.20,467.09 201.21,467.72 202.03,468.01 C202.48,468.16 203.22,468.21 204.24,468.17" fill="none" stroke="rgb(255, 113, 0)" stroke-width="2.76" stroke-opacity="1.00" stroke-linejoin="round"/>
<path d="M150.89,366.99 C151.06,367.65 154.88,371.06 156.14,373.27 C157.51,375.73 159.35,386.89 162.07,397.91 C164.49,407.16 168.75,420.70 169.67,424.22 C170.69,428.10 173.07,441.81 175.18,448.46 C176.66,453.17 179.13,463.76 181.17,473.96 C181.93,477.59 183.31,481.92 184.85,484.79 C185.66,486.29 187.38,488.53 188.04,488.95 C188.62,489.28 190.01,489.17 190.60,488.75 C193.90,486.20 203.54,472.62 205.47,468.15 C205.62,467.81 205.87,467.16 206.22,466.23" fill="none" stroke="rgb(255, 113, 0)" stroke-width="2.76" stroke-opacity="1.00" stroke-linejoin="round"/>
<path d="M216.47,451.18 C216.47,451.18 216.47,450.85 216.47,450.85 C216.47,450.85 216.44,450.58 216.44,450.58 C215.18,453.67 213.78,456.81 212.86,458.41 C211.10,461.46 209.32,463.38 208.28,463.53 C208.28,463.53 208.52,462.31 208.52,462.31" fill="none" stroke="rgb(255, 113, 0)" stroke-width="2.76" stroke-opacity="1.00" stroke-linejoin="round"/>
<path d="M223.65,449.55 C223.04,450.68 220.09,454.86 218.44,457.19 C218.11,457.67 213.25,465.39 212.83,465.93 C210.62,468.69 207.93,470.61 207.01,471.08 C207.91,485.15 209.78,516.89 208.88,523.38 C208.82,523.76 208.77,523.94 208.70,523.90 C208.70,523.90 208.97,521.34 208.97,521.34" fill="none" stroke="rgb(255, 113, 0)" stroke-width="2.76" stroke-opacity="1.00" stroke-linejoin="round"/>
<path d="M204.40,474.02 C204.40,474.02 202.28,474.84 202.28,474.84 C201.83,475.57 200.85,489.85 200.31,495.30 C199.54,502.58 198.19,529.68 198.20,531.06 C198.20,531.06 199.90,529.99 199.90,529.99" fill="none" stroke="rgb(255, 113, 0)" stroke-width="2.76" stroke-opacity="1.00" stroke-linejoin="round"/>
<path d="M207.99,529.49 C207.99,529.49 204.81,529.44 204.81,529.44 C206.76,528.70 211.26,527.61 212.75,527.58 C218.24,527.49 230.15,528.76 235.82,530.13 C239.22,530.96 252.39,536.01 259.23,536.71 C259.65,536.76 260.08,536.74 260.52,536.67" fill="none" stroke="rgb(255, 113, 0)" stroke-width="2.76" stroke-opacity="1.00" stroke-linejoin="round"/>
<path d="M257.91,349.05 C257.86,349.15 258.22,350.47 258.38,351.02 C260.19,357.89 261.34,367.64 261.09,371.42 C260.93,373.65 259.25,388.54 259.09,394.81 C258.85,430.18 257.31,476.64 257.90,486.49 C258.33,493.78 259.35,509.07 260.31,514.25 C260.73,516.49 262.26,522.99 261.88,525.47 C261.76,526.20 261.61,526.83 261.42,527.37 C261.30,527.69 261.00,528.39 260.52,529.49" fill="none" stroke="rgb(255, 113, 0)" stroke-width="2.76" stroke-opacity="1.00" stroke-linejoin="round"/>
<path d="M249.10,443.02 C249.10,443.02 251.39,459.57 251.39,459.57 C251.39,459.57 251.92,455.52 251.92,455.52" fill="none" stroke="rgb(255, 113, 0)" stroke-width="2.76" stroke-opacity="1.00" stroke-linejoin="round"/>
<path d="M264.77,348.72 C264.77,348.72 263.46,349.09 263.46,349.09 C263.47,353.69 263.58,366.27 264.27,371.83 C266.04,385.61 266.42,389.44 266.84,401.76 C267.23,410.83 271.10,445.25 271.23,451.73 C272.79,493.00 271.02,506.07 270.91,506.91 C270.91,506.91 271.29,506.00 271.29,506.00" fill="none" stroke="rgb(255, 113, 0)" stroke-width="2.76" stroke-opacity="1.00" stroke-linejoin="round"/>
<path d="M271.95,512.20 C271.95,512.20 271.51,512.20 271.51,512.20 C271.51,512.20 271.43,512.34 271.43,512.34 C273.58,514.57 280.51,530.72 281.62,533.11 C281.74,533.36 281.85,533.58 281.95,533.75 C282.89,534.38 295.46,532.00 301.35,530.11 C306.19,528.53 324.59,519.49 325.77,518.98 C330.10,517.10 343.35,513.08 346.89,511.75 C347.90,511.35 348.92,510.96 349.93,510.57" fill="none" stroke="rgb(255, 113, 0)" stroke-width="2.76" stroke-opacity="1.00" stroke-linejoin="round"/>
<path d="M294.79,324.57 C294.79,324.57 294.79,324.25 294.79,324.25 C294.91,323.95 297.38,323.99 299.40,324.80 C316.01,331.93 331.97,337.42 334.71,338.39 C338.61,339.80 343.50,342.31 345.59,344.90 C346.52,346.10 348.91,351.62 349.54,354.34 C350.84,360.11 351.27,375.10 351.40,381.89 C351.43,394.04 352.32,430.30 353.38,435.74 C354.12,439.40 355.91,445.18 356.16,446.09 C357.03,449.15 357.59,450.45 358.59,451.55 C360.36,453.42 365.62,456.81 366.46,457.40 C368.60,458.91 372.43,462.60 373.43,463.58" fill="none" stroke="rgb(255, 113, 0)" stroke-width="2.76" stroke-opacity="1.00" stroke-linejoin="round"/>
<path d="M342.75,413.65 C342.75,413.65 342.26,413.98 342.26,413.98 C342.26,413.98 345.07,450.81 345.07,450.81 C345.07,450.81 345.53,449.89 345.53,449.89" fill="none" stroke="rgb(255, 113, 0)" stroke-width="2.76" stroke-opacity="1.00" stroke-linejoin="round"/>
<path d="M349.28,426.05 C348.71,426.28 347.66,428.08 347.82,432.09 C348.20,438.29 348.29,449.30 348.30,454.57 C348.30,454.57 348.30,452.72 348.30,452.72" fill="none" stroke="rgb(255, 113, 0)" stroke-width="2.76" stroke-opacity="1.00" stroke-linejoin="round"/>
<path d="M316.65,401.25 C316.65,401.25 316.00,400.44 316.00,400.44 C316.00,400.44 316.00,400.33 316.00,400.33 C316.78,404.11 318.42,408.84 319.53,411.11 C321.52,415.13 331.33,426.82 333.00,427.35 C333.71,427.57 336.93,428.05 336.78,428.04 C336.10,428.36 334.93,431.70 334.76,434.69 C334.71,435.69 337.65,476.16 337.86,476.96 C337.98,477.44 338.31,478.31 338.84,479.57" fill="none" stroke="rgb(255, 113, 0)" stroke-width="2.76" stroke-opacity="1.00" stroke-linejoin="round"/>
<path d="M340.47,441.39 C340.07,442.29 339.78,443.22 339.82,444.17 C339.86,445.33 341.71,465.28 342.05,468.15 C343.68,481.24 350.22,503.13 350.10,503.45 C349.72,504.31 349.03,505.05 348.05,505.46 C347.52,505.67 346.56,506.07 345.16,506.67" fill="none" stroke="rgb(255, 113, 0)" stroke-width="2.76" stroke-opacity="1.00" stroke-linejoin="round"/>
<path d="M350.91,476.96 C350.91,476.96 350.91,476.63 350.91,476.63 C350.91,476.63 349.29,477.61 349.29,477.61 C351.71,478.66 366.85,481.97 369.02,483.08 C369.26,483.21 369.38,483.35 369.36,483.51 C368.01,483.85 366.71,483.36 363.31,481.58 C362.66,481.23 362.01,480.89 361.35,480.55" fill="none" stroke="rgb(255, 113, 0)" stroke-width="2.76" stroke-opacity="1.00" stroke-linejoin="round"/>
<path d="M362.66,482.83 C360.35,483.96 358.92,484.62 358.17,484.87 C357.48,485.09 350.88,485.37 350.01,486.10 C350.20,487.23 350.59,487.97 351.70,488.71 C353.55,489.93 355.37,490.93 356.14,491.18 C356.14,491.18 355.15,490.01 355.15,490.01" fill="none" stroke="rgb(255, 113, 0)" stroke-width="2.76" stroke-opacity="1.00" stroke-linejoin="round"/>
<path d="M343.08,483.48 C343.08,483.48 342.43,483.48 342.43,483.48 C342.35,483.68 342.81,484.68 343.63,485.43 C346.03,487.59 350.48,489.75 353.29,490.74 C358.20,492.44 362.28,494.15 363.85,495.60 C364.42,496.13 366.61,498.47 366.58,498.44 C366.58,498.44 367.11,496.90 367.11,496.90" fill="none" stroke="rgb(255, 113, 0)" stroke-width="2.76" stroke-opacity="1.00" stroke-linejoin="round"/>
<path d="M381.91,450.20 C381.91,450.20 381.91,449.55 381.91,449.55 C381.31,449.69 376.31,465.37 375.68,467.32 C373.41,474.44 368.89,494.17 367.55,497.84 C368.54,497.13 373.11,495.41 375.78,494.89 C378.05,494.48 382.68,494.15 386.63,494.44 C388.78,494.60 390.10,494.56 391.99,494.31" fill="none" stroke="rgb(255, 113, 0)" stroke-width="2.76" stroke-opacity="1.00" stroke-linejoin="round"/>
<path d="M381.26,446.94 C381.26,446.97 381.28,447.73 381.39,448.18 C382.04,450.78 385.14,455.76 387.54,458.22 C390.47,461.17 393.60,464.06 394.31,464.25 C390.89,474.88 388.28,496.32 388.23,496.64 C388.23,496.64 387.80,496.55 387.80,496.55" fill="none" stroke="rgb(255, 113, 0)" stroke-width="2.76" stroke-opacity="1.00" stroke-linejoin="round"/>
<path d="M399.21,473.37 C398.53,473.37 397.85,473.37 397.17,473.37 C396.21,473.37 395.26,473.37 394.31,473.37 C394.31,473.37 401.05,479.21 401.05,479.21 C401.05,479.21 392.31,481.40 392.31,481.40 C392.29,482.04 392.66,482.85 393.36,483.40 C393.77,483.72 395.05,484.12 397.03,484.67" fill="none" stroke="rgb(255, 113, 0)" stroke-width="2.76" stroke-opacity="1.00" stroke-linejoin="round"/>
<path d="M407.36,468.15 C406.87,468.60 406.03,469.47 406.05,471.93 C406.13,475.03 407.64,478.76 407.29,479.91 C405.19,481.44 402.18,483.71 401.70,485.48 C400.72,489.64 403.57,498.07 404.76,499.49 C405.61,500.44 407.63,501.43 409.19,501.61 C411.32,501.83 419.30,501.18 422.35,500.89 C423.38,500.77 424.41,500.66 425.45,500.54" fill="none" stroke="rgb(255, 113, 0)" stroke-width="2.76" stroke-opacity="1.00" stroke-linejoin="round"/>
<path d="M408.34,467.17 C408.32,467.66 408.42,469.08 408.59,469.94 C409.10,472.41 411.29,474.67 413.15,474.96 C414.45,475.15 420.82,476.23 421.10,476.97 C422.07,479.96 421.58,485.32 420.63,486.59 C418.99,487.19 414.89,485.48 413.05,483.54 C412.81,483.27 412.32,481.73 411.69,479.86" fill="none" stroke="rgb(255, 113, 0)" stroke-width="2.76" stroke-opacity="1.00" stroke-linejoin="round"/>
<path d="M423.03,476.63 C423.03,476.63 422.70,476.63 422.70,476.63 C424.78,477.86 427.81,482.13 428.27,483.87 C428.62,485.32 428.79,490.83 427.76,493.47 C426.90,495.59 421.89,500.90 421.51,501.06 C421.19,501.19 420.32,501.42 418.92,501.74" fill="none" stroke="rgb(255, 113, 0)" stroke-width="2.76" stroke-opacity="1.00" stroke-linejoin="round"/>
<path d="M530.71,359.49" fill="none" stroke="rgb(255, 113, 0)" stroke-width="2.76" stroke-opacity="1.00" stroke-linejoin="round"/>
<path d="M202.99,532.63 C202.99,532.63 202.40,533.10 202.40,533.10 C202.53,533.29 205.27,534.10 208.82,534.88 C211.85,535.54 218.25,537.50 218.49,537.53 C218.65,537.54 218.86,537.52 219.13,537.45" fill="none" stroke="rgb(255, 113, 0)" stroke-width="2.76" stroke-opacity="1.00" stroke-linejoin="round"/>
<path d="M219.99,525.92 C219.70,526.30 219.22,527.02 219.09,527.60 C218.62,529.74 218.56,543.55 218.55,549.53 C218.55,549.53 219.27,549.14 219.27,549.14" fill="none" stroke="rgb(255, 113, 0)" stroke-width="2.76" stroke-opacity="1.00" stroke-linejoin="round"/>
<path d="M221.90,550.34 C221.90,550.34 220.71,550.16 220.71,550.16 C220.71,550.16 220.47,549.86 220.47,549.86 C225.93,550.07 241.24,549.57 242.20,549.69 C242.55,549.74 242.98,549.91 243.48,550.19 C243.78,550.37 244.28,550.64 244.98,551.01" fill="none" stroke="rgb(255, 113, 0)" stroke-width="2.76" stroke-opacity="1.00" stroke-linejoin="round"/>
<path d="M250.87,556.80 C251.10,556.78 251.32,556.75 251.55,556.72 C252.70,556.56 256.89,555.01 261.49,553.05 C263.89,552.03 268.37,550.46 271.60,549.89 C275.09,549.40 281.08,548.47 284.58,547.29 C286.03,546.80 293.68,543.98 296.46,543.22 C297.82,542.85 299.25,542.74 302.46,542.69 C303.00,542.69 307.69,544.36 310.57,544.43 C314.13,544.48 332.27,543.17 335.32,542.88 C335.32,542.88 334.65,541.72 334.65,541.72" fill="none" stroke="rgb(255, 113, 0)" stroke-width="2.76" stroke-opacity="1.00" stroke-linejoin="round"/>
<path d="M334.17,518.02 C334.17,518.02 333.45,518.02 333.45,518.02 C333.46,518.01 333.44,518.54 333.45,518.84 C333.60,521.31 334.45,523.52 336.40,527.75 C337.87,530.99 338.31,532.45 337.74,533.33 C337.32,533.87 335.38,535.45 334.12,536.17 C333.42,536.58 330.84,537.60 330.10,537.89" fill="none" stroke="rgb(255, 113, 0)" stroke-width="2.76" stroke-opacity="1.00" stroke-linejoin="round"/>
<path d="M330.10,523.53 C328.50,523.97 327.48,524.27 327.03,524.43 C324.63,525.27 311.18,534.16 305.37,537.24 C304.05,537.94 303.31,538.43 302.89,538.89 C302.81,538.98 302.71,539.13 302.57,539.33" fill="none" stroke="rgb(255, 113, 0)" stroke-width="2.76" stroke-opacity="1.00" stroke-linejoin="round"/>
<path d="M237.22,548.66 C237.22,548.66 236.63,549.02 236.63,549.02 C236.18,549.99 233.46,567.54 233.03,570.61 C231.22,584.11 229.68,600.57 229.34,603.15 C228.96,606.04 228.77,607.66 228.62,609.46" fill="none" stroke="rgb(255, 113, 0)" stroke-width="2.76" stroke-opacity="1.00" stroke-linejoin="round"/>
<path d="M228.13,556.08 C228.13,556.08 227.89,555.73 227.89,555.73 C227.88,555.67 226.04,577.50 225.97,578.50 C225.48,584.99 227.29,614.25 227.95,626.96 C228.07,629.94 228.28,635.33 228.37,637.74 C228.37,637.82 228.38,638.05 228.37,637.97" fill="none" stroke="rgb(255, 113, 0)" stroke-width="2.76" stroke-opacity="1.00" stroke-linejoin="round"/>
<path d="M224.54,559.68 C224.54,559.68 224.18,559.68 224.18,559.68 C223.81,560.06 221.39,594.92 221.45,610.12 C221.45,618.23 221.34,635.02 221.07,642.80 C220.84,649.16 221.99,662.34 222.64,669.21 C224.71,689.03 227.83,698.26 228.30,699.17 C228.30,699.17 228.74,698.29 228.74,698.29" fill="none" stroke="rgb(255, 113, 0)" stroke-width="2.76" stroke-opacity="1.00" stroke-linejoin="round"/>
<path d="M226.45,631.73 C226.45,631.73 226.33,631.61 226.33,631.61 C225.97,631.91 226.53,642.19 226.83,652.77 C226.95,656.85 226.73,673.26 226.70,681.54 C226.74,690.77 227.95,700.44 229.19,701.38 C229.19,701.38 231.00,701.09 231.00,701.09" fill="none" stroke="rgb(255, 113, 0)" stroke-width="2.76" stroke-opacity="1.00" stroke-linejoin="round"/>
<path d="M279.59,581.46 C279.59,581.46 279.35,580.98 279.35,580.98 C279.35,580.97 279.35,581.01 279.35,581.02 C281.15,583.76 285.88,591.00 286.44,591.69 C287.26,592.71 288.51,593.77 288.86,593.91 C288.86,593.91 288.15,594.36 288.15,594.36" fill="none" stroke="rgb(255, 113, 0)" stroke-width="2.76" stroke-opacity="1.00" stroke-linejoin="round"/>
<path d="M277.20,598.21 C277.20,598.21 276.24,598.93 276.24,598.93 C276.50,599.11 277.21,599.49 277.98,599.65 C279.00,599.87 285.71,600.76 286.22,600.94 C285.58,602.31 282.41,606.34 281.69,607.72 C280.79,609.49 280.87,610.83 281.07,611.44 C281.07,611.44 282.45,611.84 282.45,611.84" fill="none" stroke="rgb(255, 113, 0)" stroke-width="2.76" stroke-opacity="1.00" stroke-linejoin="round"/>
<path d="M291.56,582.89 C291.09,583.17 290.79,584.10 290.60,586.26 C290.30,590.05 287.84,609.66 287.78,612.73 C287.73,622.70 289.33,646.13 290.71,662.52 C292.41,676.08 294.16,690.20 294.22,690.39 C294.22,690.39 294.98,688.87 294.98,688.87" fill="none" stroke="rgb(255, 113, 0)" stroke-width="2.76" stroke-opacity="1.00" stroke-linejoin="round"/>
<path d="M289.65,681.04 C289.65,681.04 288.69,681.83 288.69,681.83 C288.69,681.83 288.58,682.64 288.58,682.64 C288.58,682.64 291.17,684.67 291.17,684.67 C291.17,684.67 291.26,684.90 291.26,684.90 C290.73,685.11 288.98,685.72 288.67,685.87 C287.62,686.39 286.12,687.84 285.57,688.97 C284.61,691.08 284.64,696.74 285.11,699.58 C285.23,700.23 285.51,700.97 285.99,702.07" fill="none" stroke="rgb(255, 113, 0)" stroke-width="2.76" stroke-opacity="1.00" stroke-linejoin="round"/>
<path d="M300.18,682.24 C300.18,682.24 299.94,682.24 299.94,682.24 C299.92,682.20 300.12,683.42 300.26,683.87 C300.32,684.07 300.42,684.27 300.56,684.46" fill="none" stroke="rgb(255, 113, 0)" stroke-width="2.76" stroke-opacity="1.00" stroke-linejoin="round"/>
<path d="M323.88,568.29 C324.36,571.14 325.36,577.12 325.88,580.25 C326.42,583.45 327.64,600.62 328.17,608.40 C328.41,612.06 328.41,654.84 329.13,663.45 C330.65,679.53 331.04,696.02 331.35,698.62 C331.39,698.95 331.45,699.39 331.54,699.93" fill="none" stroke="rgb(255, 113, 0)" stroke-width="2.76" stroke-opacity="1.00" stroke-linejoin="round"/>
<path d="M321.72,670.03 C321.93,670.48 322.21,675.88 322.49,677.67 C323.33,683.07 323.76,687.63 323.58,689.01 C323.58,689.01 323.23,687.94 323.23,687.94" fill="none" stroke="rgb(255, 113, 0)" stroke-width="2.76" stroke-opacity="1.00" stroke-linejoin="round"/>
<path d="M331.54,550.82 C331.54,550.82 331.54,549.86 331.54,549.86 C332.95,553.47 334.40,571.58 334.63,573.13 C335.00,575.54 339.46,595.88 339.84,600.81 C339.87,601.24 339.86,601.78 339.80,602.44 C339.80,602.44 339.44,598.21 339.44,598.21" fill="none" stroke="rgb(255, 113, 0)" stroke-width="2.76" stroke-opacity="1.00" stroke-linejoin="round"/>
<path d="M341.35,573.32 C341.35,573.32 340.52,573.46 340.52,573.46 C340.44,573.96 339.78,591.68 340.28,596.74 C340.45,598.35 343.08,619.26 343.41,622.33 C344.29,630.64 344.73,643.21 345.44,647.03 C346.92,655.31 349.44,676.28 350.12,682.83 C350.47,685.62 352.66,695.23 352.73,695.56 C352.94,696.69 352.78,698.46 352.38,699.53 C351.96,700.62 351.22,701.81 350.72,702.12 C350.46,702.28 349.97,702.60 349.25,703.06" fill="none" stroke="rgb(255, 113, 0)" stroke-width="2.76" stroke-opacity="1.00" stroke-linejoin="round"/>
<path d="M135.38,289.85 C135.36,289.86 134.42,289.88 132.22,290.78 C129.80,291.79 128.39,292.97 127.85,294.00 C126.95,295.86 125.87,311.28 124.67,316.20 C123.77,319.92 123.55,323.94 124.16,324.40 C125.50,325.06 131.80,323.04 137.69,320.60 C137.69,320.60 138.00,320.99 138.00,320.99" fill="none" stroke="rgb(255, 113, 0)" stroke-width="2.76" stroke-opacity="1.00" stroke-linejoin="round"/>
<path d="M136.40,303.38 C136.40,303.38 136.11,303.38 136.11,303.38 C136.11,303.38 144.57,302.13 144.57,302.13 C144.57,302.13 144.44,302.08 144.44,302.08" fill="none" stroke="rgb(255, 113, 0)" stroke-width="2.76" stroke-opacity="1.00" stroke-linejoin="round"/>
<path d="M135.38,311.39 C135.73,311.38 136.06,311.37 136.38,311.35 C136.85,311.31 140.35,310.94 141.62,310.80 C141.62,310.80 141.53,310.91 141.53,310.91" fill="none" stroke="rgb(255, 113, 0)" stroke-width="2.76" stroke-opacity="1.00" stroke-linejoin="round"/>
<path d="M137.71,317.64 C137.71,317.64 137.12,318.08 137.12,318.08 C137.50,318.07 138.20,318.00 139.01,317.76 C140.87,317.19 143.18,316.48 143.88,316.35 C143.99,316.33 144.19,316.28 144.47,316.21" fill="none" stroke="rgb(255, 113, 0)" stroke-width="2.76" stroke-opacity="1.00" stroke-linejoin="round"/>
<path d="M139.31,320.84 C139.31,320.84 138.87,320.99 138.87,320.99 C138.90,321.08 139.19,321.42 139.59,321.80 C140.95,323.08 143.11,324.38 144.89,325.00 C147.01,325.73 147.31,326.52 147.48,329.08 C147.65,331.65 148.58,335.14 149.58,336.18 C149.80,336.41 150.27,336.77 150.99,337.27" fill="none" stroke="rgb(255, 113, 0)" stroke-width="2.76" stroke-opacity="1.00" stroke-linejoin="round"/>
<path d="M146.14,283.60 C146.01,283.60 145.42,283.63 145.20,283.76 C144.83,284.00 142.12,287.29 138.90,290.50 C137.27,292.14 135.04,297.92 134.96,298.55 C136.92,299.59 142.42,298.46 144.39,297.14 C144.71,296.92 145.04,296.70 145.37,296.48" fill="none" stroke="rgb(255, 113, 0)" stroke-width="2.76" stroke-opacity="1.00" stroke-linejoin="round"/>
<path d="M148.62,282.72 C148.62,282.72 148.47,282.87 148.47,282.87 C148.84,283.72 152.18,287.31 153.75,288.96 C154.50,289.77 160.80,296.93 161.25,297.39 C163.26,299.44 164.12,299.46 164.43,299.46 C165.03,299.75 166.63,310.12 167.56,319.82 C167.77,322.10 168.01,324.71 168.08,325.32 C168.08,325.32 167.98,324.98 167.98,324.98" fill="none" stroke="rgb(255, 113, 0)" stroke-width="2.76" stroke-opacity="1.00" stroke-linejoin="round"/>
<path d="M155.89,309.93 C155.89,309.93 155.03,309.79 155.03,309.79 C154.19,310.41 155.00,321.70 155.63,325.06 C155.71,325.46 155.78,325.74 155.85,325.90 C155.92,326.04 156.11,326.41 156.42,327.01" fill="none" stroke="rgb(255, 113, 0)" stroke-width="2.76" stroke-opacity="1.00" stroke-linejoin="round"/>
<path d="M188.00,341.90 C188.00,341.90 187.02,342.36 187.02,342.36 C186.47,343.54 186.52,346.30 187.14,350.51 C190.92,376.39 191.88,379.25 191.96,379.25 C191.96,379.25 192.89,379.06 192.89,379.06" fill="none" stroke="rgb(255, 113, 0)" stroke-width="2.76" stroke-opacity="1.00" stroke-linejoin="round"/>
<path d="M194.77,106.62 C194.77,106.04 193.58,104.68 191.62,104.77 C187.98,105.04 180.15,105.03 177.92,105.38 C173.58,106.10 159.60,111.58 151.53,114.75 C140.09,119.30 132.66,122.69 126.95,125.69 C120.63,129.01 113.56,133.50 107.88,137.80 C102.57,141.93 92.37,150.02 86.80,155.98 C81.81,161.53 70.25,174.56 68.60,176.99 C67.06,179.32 64.84,184.40 63.51,188.30 C62.35,191.79 62.59,194.06 63.04,195.91" fill="none" stroke="rgb(255, 0, 8)" stroke-width="2.76" stroke-opacity="1.00" stroke-linejoin="round"/>
<path d="M69.37,200.66 C69.49,200.47 69.63,199.92 69.69,199.71 C69.79,199.35 70.08,198.97 70.60,198.45 C71.10,198.48 77.02,197.80 79.36,197.87 C85.90,198.19 91.99,197.88 104.63,196.43 C125.34,194.12 145.56,191.91 146.02,191.83 C146.41,191.75 147.36,191.53 148.85,191.16" fill="none" stroke="rgb(255, 0, 8)" stroke-width="2.76" stroke-opacity="1.00" stroke-linejoin="round"/>
<path d="M247.33,122.77 C251.75,122.32 255.45,122.77 258.40,124.38 C263.47,127.17 279.49,132.19 281.72,133.00 C287.15,134.99 296.25,140.30 300.02,143.50 C303.60,146.61 312.58,160.24 316.41,164.40 C318.40,166.54 326.59,174.19 330.13,179.64 C331.76,182.19 338.06,194.55 339.73,196.80 C329.27,195.37 314.69,194.83 312.92,194.65 C307.87,194.10 295.20,190.37 289.77,189.08 C282.62,187.40 234.83,182.89 229.12,182.62 C218.51,182.14 183.06,186.65 180.38,186.41 C180.09,186.39 179.60,186.28 178.94,186.10" fill="none" stroke="rgb(255, 0, 8)" stroke-width="2.76" stroke-opacity="1.00" stroke-linejoin="round"/>
<path d="M238.78,120.55 C238.78,120.55 238.15,120.71 238.15,120.71 C239.77,122.71 243.12,124.76 246.52,126.68 C264.78,136.91 282.20,146.99 283.05,147.56 C285.15,148.98 297.03,161.37 300.60,166.15 C301.85,167.84 308.74,177.91 308.94,178.76 C308.99,178.99 309.03,179.22 309.08,179.45" fill="none" stroke="rgb(255, 0, 8)" stroke-width="2.76" stroke-opacity="1.00" stroke-linejoin="round"/>
<path d="M149.17,193.06 C149.17,193.06 148.54,193.13 148.54,193.13 C149.01,193.96 158.80,193.99 164.68,194.76 C168.04,195.10 179.94,193.56 187.50,193.21 C193.18,192.86 205.00,192.16 211.61,192.11 C214.40,192.11 246.24,194.08 251.25,194.01 C251.63,194.01 252.02,194.01 252.40,194.01" fill="none" stroke="rgb(255, 0, 8)" stroke-width="2.76" stroke-opacity="1.00" stroke-linejoin="round"/>
<path d="M159.94,175.96 C159.94,175.96 159.78,175.96 159.78,175.96 C159.60,177.37 159.59,189.06 158.70,196.96 C157.57,206.60 155.27,217.51 153.70,224.62 C152.94,228.30 145.58,282.06 145.17,284.82 C145.17,284.82 144.74,283.63 144.74,283.63" fill="none" stroke="rgb(255, 0, 8)" stroke-width="2.76" stroke-opacity="1.00" stroke-linejoin="round"/>
<path d="M149.49,176.28 C149.49,176.28 148.85,176.28 148.85,176.28 C148.85,176.26 149.11,183.70 148.83,185.60 C148.43,188.21 145.40,198.73 144.02,208.40 C141.74,225.31 139.31,254.65 139.11,263.56 C139.05,269.67 138.65,287.81 138.33,289.90 C138.26,290.35 138.07,291.21 137.77,292.49" fill="none" stroke="rgb(255, 0, 8)" stroke-width="2.76" stroke-opacity="1.00" stroke-linejoin="round"/>
<path d="M141.25,322.89 C141.25,322.89 141.25,322.58 141.25,322.58 C141.26,322.56 141.26,322.62 141.25,322.64 C139.41,327.29 138.38,333.87 137.69,345.01 C136.43,364.76 135.66,387.11 135.30,400.54 C134.92,407.73 131.81,421.20 131.37,422.11 C129.81,425.33 128.35,426.79 127.41,427.54 C125.80,427.67 122.53,426.71 121.27,425.29 C119.67,423.42 113.29,406.69 112.85,406.18 C111.50,406.64 110.76,407.13 110.29,408.06 C109.42,409.83 108.93,415.27 109.42,417.97 C109.95,420.67 112.90,426.59 114.30,428.35 C116.17,430.66 119.35,433.35 121.76,434.14 C122.70,434.43 124.99,433.97 126.98,432.31 C127.85,431.58 129.12,430.07 130.28,428.53" fill="none" stroke="rgb(255, 0, 8)" stroke-width="2.76" stroke-opacity="1.00" stroke-linejoin="round"/>
<path d="M146.64,326.69 C146.27,327.51 146.04,328.34 145.81,330.00 C144.13,343.60 140.63,380.54 140.65,386.16 C140.71,401.08 138.60,424.61 138.08,429.60 C138.08,429.60 134.92,428.97 134.92,428.97" fill="none" stroke="rgb(255, 0, 8)" stroke-width="2.76" stroke-opacity="1.00" stroke-linejoin="round"/>
<path d="M86.75,120.83 C86.50,120.90 85.90,121.42 85.65,122.10 C83.47,128.30 84.42,183.20 84.41,184.28 C84.41,184.66 84.47,185.05 84.59,185.45" fill="none" stroke="rgb(57, 77, 239)" stroke-width="2.76" stroke-opacity="1.00" stroke-linejoin="round"/>
<path d="M114.04,116.64 C112.67,120.07 111.35,124.58 110.79,127.95 C109.80,134.56 110.23,151.82 110.21,154.55 C110.15,160.48 108.01,168.37 107.89,168.55 C107.82,168.65 107.64,168.84 107.34,169.10" fill="none" stroke="rgb(57, 77, 239)" stroke-width="2.76" stroke-opacity="1.00" stroke-linejoin="round"/>
<path d="M202.62,119.57 C201.90,120.31 201.52,123.16 201.00,127.57 C200.52,131.84 198.86,154.44 198.48,157.75 C198.01,161.71 193.44,179.70 193.03,181.27 C191.88,185.74 189.37,199.98 188.21,207.44 C186.78,217.69 185.39,234.88 185.38,234.91 C185.13,237.44 182.60,253.73 182.47,260.28 C182.40,272.28 182.06,292.92 182.05,299.01 C182.05,299.01 181.25,297.73 181.25,297.73" fill="none" stroke="rgb(57, 77, 239)" stroke-width="2.76" stroke-opacity="1.00" stroke-linejoin="round"/>
<path d="M94.31,288.76 C94.31,288.76 93.89,288.97 93.89,288.97 C93.88,291.22 95.46,329.78 96.09,346.22 C97.08,362.75 100.64,386.06 101.52,399.99 C101.98,409.12 102.47,414.10 103.85,426.28 C104.60,433.63 105.08,450.66 105.49,455.69 C106.40,466.79 118.30,537.79 118.46,538.21 C118.63,538.64 119.11,539.52 119.90,540.85" fill="none" stroke="rgb(57, 77, 239)" stroke-width="2.76" stroke-opacity="1.00" stroke-linejoin="round"/>
<path d="M349.63,122.97 C349.63,122.97 348.87,121.08 348.87,121.08 C347.86,127.51 344.15,141.77 342.66,147.43 C340.23,157.73 339.37,162.82 338.19,173.26 C337.37,180.98 337.06,191.71 336.42,197.26 C336.05,200.45 330.49,235.57 328.51,254.33 C326.97,271.64 325.93,291.27 325.64,313.07 C325.32,331.29 325.70,365.37 326.08,371.88 C326.50,378.82 331.12,426.13 331.11,427.28 C331.11,427.28 331.62,427.44 331.62,427.44" fill="none" stroke="rgb(57, 77, 239)" stroke-width="2.76" stroke-opacity="1.00" stroke-linejoin="round"/>
<path d="M424.17,135.08 C424.08,135.09 423.57,135.11 423.42,135.08 C422.60,135.00 421.01,139.62 419.39,146.25 C417.09,156.13 415.54,167.99 414.75,174.12 C412.82,192.94 411.31,204.56 411.04,206.32 C411.04,206.32 410.93,206.11 410.93,206.11" fill="none" stroke="rgb(57, 77, 239)" stroke-width="2.76" stroke-opacity="1.00" stroke-linejoin="round"/>
<path d="M267.52,119.94 C267.06,120.38 266.84,120.87 266.69,122.05 C265.71,128.35 264.34,137.51 263.26,148.18 C261.22,176.97 257.57,231.49 255.96,257.21 C255.82,262.72 256.52,295.80 256.54,296.05 C256.57,296.59 256.68,297.85 256.85,299.82" fill="none" stroke="rgb(57, 77, 239)" stroke-width="2.76" stroke-opacity="1.00" stroke-linejoin="round"/>
</g>
</svg>
