<?xml version="1.0" encoding="UTF-8" standalone="no"?>
<!DOCTYPE svg PUBLIC "-//W3C//DTD SVG 1.1//EN" "http://www.w3.org/Graphics/SVG/1.1/DTD/svg11.dtd">
<svg width="128.40" height="181.68" viewBox="0.00 0.00 535.00 757.00" xmlns="http://www.w3.org/2000/svg" xmlns:xlink="http://www.w3.org/1999/xlink">
<g stroke-linecap="round" id="112">
<path d="M67.00,659.14 C66.83,659.14 66.67,659.14 66.50,659.14 C66.32,659.14 66.14,659.14 65.96,659.14 C64.01,659.13 58.77,658.45 55.19,657.98 C51.11,657.42 44.05,656.47 41.08,656.07" fill="none" stroke="rgb(0, 255, 255)" stroke-width="3.16" stroke-opacity="1.00" stroke-linejoin="round"/>
<path d="M122.07,649.40 C121.29,649.90 120.49,650.28 119.74,650.46 C118.47,650.75 113.71,650.52 111.15,649.70 C106.46,648.17 93.69,641.24 87.39,637.18 C81.55,633.33 74.06,627.17 66.58,620.60" fill="none" stroke="rgb(0, 255, 255)" stroke-width="3.16" stroke-opacity="1.00" stroke-linejoin="round"/>
<path d="M148.33,658.72 C148.33,658.72 148.33,659.14 148.33,659.14 C148.18,659.15 148.08,659.15 148.02,659.14 C147.65,659.09 115.57,643.53 106.46,637.57 C98.28,632.20 76.74,614.95 63.35,602.87 C54.48,594.62 41.47,579.58 37.77,575.28" fill="none" stroke="rgb(0, 255, 255)" stroke-width="3.16" stroke-opacity="1.00" stroke-linejoin="round"/>
<path d="M107.66,566.38 C106.58,567.42 106.38,567.67 106.34,567.65 C102.61,566.19 101.48,565.51 95.81,561.50 C90.94,557.99 78.51,547.28 73.46,542.71 C70.15,539.63 56.63,525.58 51.22,519.70 C46.86,514.77 38.28,504.30 35.85,500.84" fill="none" stroke="rgb(0, 255, 255)" stroke-width="3.16" stroke-opacity="1.00" stroke-linejoin="round"/>
<path d="M209.75,661.26 C209.81,661.37 208.40,660.79 207.53,660.29 C205.36,659.02 174.83,628.72 166.52,621.10 C158.08,613.43 129.71,589.98 117.11,579.98 C105.18,571.00 88.17,558.06 83.10,554.10" fill="none" stroke="rgb(0, 255, 255)" stroke-width="3.16" stroke-opacity="1.00" stroke-linejoin="round"/>
<path d="M247.87,652.79 C247.87,652.79 247.44,653.21 247.44,653.21 C243.63,652.53 237.60,649.53 234.17,647.82 C226.55,643.92 199.04,626.66 186.65,618.03 C172.72,607.78 153.50,592.26 141.77,582.12 C132.22,573.49 111.11,552.81 101.73,543.51" fill="none" stroke="rgb(0, 255, 255)" stroke-width="3.16" stroke-opacity="1.00" stroke-linejoin="round"/>
<path d="M117.83,518.94 C117.83,518.94 116.56,519.79 116.56,519.79 C113.11,518.01 109.42,514.57 106.54,512.08 C88.09,496.09 75.20,483.75 63.70,470.74 C46.74,450.40 42.73,446.02 42.01,445.24" fill="none" stroke="rgb(0, 255, 255)" stroke-width="3.16" stroke-opacity="1.00" stroke-linejoin="round"/>
<path d="M214.83,610.01 C212.33,608.58 208.72,605.62 205.00,601.87 C200.68,597.51 172.41,573.06 159.65,561.98 C154.87,557.66 134.01,535.44 123.69,523.36 C118.52,517.12 112.59,509.95 111.84,509.04" fill="none" stroke="rgb(0, 255, 255)" stroke-width="3.16" stroke-opacity="1.00" stroke-linejoin="round"/>
<path d="M190.68,526.99 C190.68,526.99 190.68,528.20 190.68,528.20 C190.44,526.90 166.20,496.60 159.96,490.07 C155.39,485.44 145.28,475.25 139.73,469.69 C127.47,457.31 113.36,443.04 111.49,441.15" fill="none" stroke="rgb(0, 255, 255)" stroke-width="3.16" stroke-opacity="1.00" stroke-linejoin="round"/>
<path d="M233.89,514.28 C233.89,514.28 233.31,514.70 233.31,514.70 C232.29,514.66 198.90,491.05 191.56,485.32 C187.70,482.31 173.56,470.22 167.30,464.63 C159.74,457.61 144.86,442.13 144.20,441.45" fill="none" stroke="rgb(0, 255, 255)" stroke-width="3.16" stroke-opacity="1.00" stroke-linejoin="round"/>
<path d="M125.88,409.23 C125.88,409.23 124.29,409.18 124.29,409.18 C123.55,408.52 82.69,362.84 66.44,345.06 C55.94,333.72 42.90,319.72 40.36,317.07" fill="none" stroke="rgb(0, 255, 255)" stroke-width="3.16" stroke-opacity="1.00" stroke-linejoin="round"/>
<path d="M134.77,360.10 C134.77,360.10 134.56,361.16 134.56,361.16 C134.56,361.16 134.24,361.37 134.24,361.37 C132.44,359.97 105.72,332.24 94.13,319.19 C86.95,310.86 65.74,283.45 60.65,278.35" fill="none" stroke="rgb(0, 255, 255)" stroke-width="3.16" stroke-opacity="1.00" stroke-linejoin="round"/>
<path d="M200.85,419.82 C200.85,419.82 201.70,421.45 201.70,421.45 C199.58,421.13 174.28,405.36 158.65,394.66 C146.18,385.87 127.87,372.86 110.09,358.68 C103.51,353.40 94.88,346.49 92.84,344.85" fill="none" stroke="rgb(0, 255, 255)" stroke-width="3.16" stroke-opacity="1.00" stroke-linejoin="round"/>
<path d="M84.37,348.24 C88.26,350.63 115.14,376.17 126.40,386.81 C137.91,397.95 155.13,414.82 166.40,427.55 C173.04,435.30 186.48,452.42 188.14,454.56" fill="none" stroke="rgb(0, 255, 255)" stroke-width="3.16" stroke-opacity="1.00" stroke-linejoin="round"/>
<path d="M145.36,351.20 C145.26,351.20 157.58,362.41 163.12,368.24 C195.61,404.43 203.70,414.37 204.24,415.03" fill="none" stroke="rgb(0, 255, 255)" stroke-width="3.16" stroke-opacity="1.00" stroke-linejoin="round"/>
<path d="M93.69,405.42 C100.06,410.03 111.73,420.49 114.18,422.85 C116.63,425.22 139.55,451.43 144.41,457.09 C148.30,461.77 151.39,466.03 152.56,467.69" fill="none" stroke="rgb(0, 255, 255)" stroke-width="3.16" stroke-opacity="1.00" stroke-linejoin="round"/>
<path d="M65.73,398.64 C63.18,399.42 61.68,400.81 57.95,400.54 C56.39,400.42 51.80,398.65 48.34,396.99 C43.86,394.79 28.00,380.86 27.24,380.18" fill="none" stroke="rgb(0, 255, 255)" stroke-width="3.16" stroke-opacity="1.00" stroke-linejoin="round"/>
<path d="M325.81,569.77 C325.81,569.77 324.90,570.62 324.90,570.62 C324.38,570.65 294.69,549.32 281.27,538.99 C275.26,534.22 264.09,523.81 261.04,520.66 C248.89,507.85 241.14,497.46 236.41,490.70" fill="none" stroke="rgb(0, 255, 255)" stroke-width="3.16" stroke-opacity="1.00" stroke-linejoin="round"/>
<path d="M294.04,600.27 C294.04,600.27 294.46,599.84 294.46,599.84 C291.22,595.22 276.41,582.53 274.47,581.13 C271.54,579.04 236.51,557.60 223.13,548.87 C209.87,539.95 190.02,526.32 180.70,519.34" fill="none" stroke="rgb(0, 255, 255)" stroke-width="3.16" stroke-opacity="1.00" stroke-linejoin="round"/>
<path d="M185.18,517.24 C185.18,517.24 184.27,518.82 184.27,518.82 C182.12,518.75 167.59,511.79 160.72,508.30 C153.85,504.66 141.65,497.83 134.64,493.23 C129.37,489.73 118.97,481.57 113.21,475.70 C107.34,469.51 100.55,462.33 99.62,461.33" fill="none" stroke="rgb(0, 255, 255)" stroke-width="3.16" stroke-opacity="1.00" stroke-linejoin="round"/>
<path d="M316.06,644.32 C316.06,644.32 316.06,643.79 316.06,643.79 C315.51,643.60 315.08,643.45 314.78,643.31 C312.94,642.50 297.75,631.78 292.65,628.73 C283.34,623.33 249.31,605.61 239.78,600.12 C226.10,591.86 202.58,575.57 191.47,566.77 C179.83,557.10 167.36,546.74 166.54,546.05" fill="none" stroke="rgb(0, 255, 255)" stroke-width="3.16" stroke-opacity="1.00" stroke-linejoin="round"/>
<path d="M271.16,502.42 C269.44,502.56 267.31,501.50 263.93,498.68 C261.98,497.00 251.15,484.72 245.73,478.58 C244.63,477.34 242.76,475.23 242.00,474.37" fill="none" stroke="rgb(0, 255, 255)" stroke-width="3.16" stroke-opacity="1.00" stroke-linejoin="round"/>
<path d="M332.58,507.08 C332.58,507.08 331.62,507.50 331.62,507.50 C328.52,506.44 316.27,497.60 313.03,494.98 C307.02,490.12 282.77,466.78 273.57,456.82 C262.23,444.04 253.75,433.52 252.99,432.58" fill="none" stroke="rgb(0, 255, 255)" stroke-width="3.16" stroke-opacity="1.00" stroke-linejoin="round"/>
<path d="M369.43,496.49 C369.43,496.49 369.31,497.13 369.31,497.13 C369.31,497.13 368.55,497.28 368.55,497.28 C367.74,496.75 364.31,492.58 362.68,490.94 C359.73,488.00 344.13,477.79 340.97,475.57 C320.58,461.70 307.07,451.12 296.67,442.86 C273.70,424.42 244.38,400.54 238.02,395.10" fill="none" stroke="rgb(0, 255, 255)" stroke-width="3.16" stroke-opacity="1.00" stroke-linejoin="round"/>
<path d="M355.03,558.33 C354.65,558.57 354.40,558.72 354.29,558.76 C353.38,559.04 349.38,556.87 345.79,554.20 C308.27,524.75 295.47,513.48 292.80,511.09" fill="none" stroke="rgb(0, 255, 255)" stroke-width="3.16" stroke-opacity="1.00" stroke-linejoin="round"/>
<path d="M488.04,595.18 C487.70,595.17 487.46,595.17 487.32,595.18 C485.71,595.26 476.72,589.40 469.67,583.59 C458.32,574.30 435.29,556.36 424.21,547.81 C410.87,536.91 395.39,524.26 393.27,522.51" fill="none" stroke="rgb(0, 255, 255)" stroke-width="3.16" stroke-opacity="1.00" stroke-linejoin="round"/>
<path d="M386.38,371.11 C383.56,370.83 353.89,351.19 343.95,345.20 C332.56,338.39 311.77,323.04 300.31,313.28 C287.33,301.84 277.04,291.29 274.76,288.94" fill="none" stroke="rgb(0, 255, 255)" stroke-width="3.16" stroke-opacity="1.00" stroke-linejoin="round"/>
<path d="M306.75,337.22 C306.32,337.22 306.16,337.21 305.84,337.06 C301.68,335.00 273.53,314.67 261.76,306.13 C259.97,304.81 245.97,294.12 240.99,290.86 C239.57,289.93 238.55,289.33 236.75,288.34 C236.75,288.34 236.03,288.70 236.03,288.70" fill="none" stroke="rgb(0, 255, 255)" stroke-width="3.16" stroke-opacity="1.00" stroke-linejoin="round"/>
<path d="M267.78,331.72 C265.73,331.63 264.04,331.07 262.55,329.85 C259.84,327.60 251.02,314.15 249.63,312.50 C248.41,311.06 232.84,294.05 230.39,291.68" fill="none" stroke="rgb(0, 255, 255)" stroke-width="3.16" stroke-opacity="1.00" stroke-linejoin="round"/>
<path d="M280.06,366.03 C279.79,365.82 279.52,365.60 279.26,365.39 C276.74,363.35 246.90,333.81 239.68,326.16 C227.79,313.08 209.45,295.22 198.81,285.10 C193.08,279.58 182.89,270.40 179.65,267.74 C174.78,263.74 162.43,255.97 156.59,252.28 C155.03,251.28 153.91,250.46 151.75,248.75" fill="none" stroke="rgb(0, 255, 255)" stroke-width="3.16" stroke-opacity="1.00" stroke-linejoin="round"/>
<path d="M307.59,373.23 C307.24,373.19 305.68,373.34 305.11,373.23 C301.93,372.54 296.26,368.94 292.75,366.54 C289.39,364.21 281.36,358.52 279.42,357.05 C275.93,354.41 270.52,349.89 268.41,348.11" fill="none" stroke="rgb(0, 255, 255)" stroke-width="3.16" stroke-opacity="1.00" stroke-linejoin="round"/>
<path d="M308.86,398.22 C306.16,397.96 297.48,393.10 287.97,386.93 C280.37,381.92 267.28,372.83 261.83,368.78 C249.80,359.34 233.94,346.34 231.76,344.55" fill="none" stroke="rgb(0, 255, 255)" stroke-width="3.16" stroke-opacity="1.00" stroke-linejoin="round"/>
<path d="M258.03,424.06 C258.03,424.06 258.46,424.06 258.46,424.06 C256.18,422.39 250.86,418.47 247.83,416.22 C245.79,414.69 218.82,392.21 207.47,380.91 C198.16,371.42 176.66,348.87 172.07,344.65 C172.05,344.63 160.92,333.44 153.54,326.54 C147.67,321.12 138.02,311.93 135.84,310.17" fill="none" stroke="rgb(0, 255, 255)" stroke-width="3.16" stroke-opacity="1.00" stroke-linejoin="round"/>
<path d="M191.11,341.46 C191.11,341.46 191.11,341.04 191.11,341.04 C189.74,339.93 117.80,275.65 108.86,268.35 C102.81,263.68 91.21,254.87 84.50,250.02 C79.15,246.36 64.65,236.91 61.92,235.05 C56.77,231.53 48.62,224.05 45.98,221.85" fill="none" stroke="rgb(0, 255, 255)" stroke-width="3.16" stroke-opacity="1.00" stroke-linejoin="round"/>
<path d="M249.99,399.07 C246.44,396.72 244.12,394.65 242.23,392.15 C240.37,389.64 231.88,377.20 226.05,369.82 C222.02,364.72 213.85,354.89 209.65,349.92 C203.65,342.82 194.96,329.95 194.60,329.42 C190.03,322.66 173.05,306.13 158.63,289.74 C148.96,278.29 123.32,247.30 121.75,245.65 C120.39,244.24 118.23,242.18 116.98,241.07" fill="none" stroke="rgb(0, 255, 255)" stroke-width="3.16" stroke-opacity="1.00" stroke-linejoin="round"/>
<path d="M75.05,239.80 C75.05,239.80 72.08,240.79 72.08,240.79 C67.26,232.70 57.25,202.56 55.56,197.02" fill="none" stroke="rgb(0, 255, 255)" stroke-width="3.16" stroke-opacity="1.00" stroke-linejoin="round"/>
<path d="M143.67,222.86 C140.51,222.12 136.78,219.96 134.61,218.16 C134.49,218.06 103.23,184.98 97.88,179.03 C92.59,172.81 83.65,162.20 79.99,157.82" fill="none" stroke="rgb(0, 255, 255)" stroke-width="3.16" stroke-opacity="1.00" stroke-linejoin="round"/>
<path d="M197.46,249.54 C195.49,249.03 194.45,248.59 193.65,247.73 C193.21,247.25 181.59,234.75 173.21,227.00 C158.20,213.41 133.92,194.09 129.46,190.45 C124.86,186.60 116.84,179.21 116.07,178.49" fill="none" stroke="rgb(0, 255, 255)" stroke-width="3.16" stroke-opacity="1.00" stroke-linejoin="round"/>
<path d="M495.24,485.05 C492.60,483.86 491.12,483.08 489.36,481.84 C483.25,477.68 470.87,469.22 466.64,466.03 C458.50,459.85 442.87,444.24 440.74,442.10" fill="none" stroke="rgb(0, 255, 255)" stroke-width="3.16" stroke-opacity="1.00" stroke-linejoin="round"/>
<path d="M405.02,347.81 C405.31,347.91 407.73,345.53 408.67,341.66 C409.15,339.61 408.89,332.76 408.37,329.73 C407.30,323.67 403.10,312.80 402.05,310.12" fill="none" stroke="rgb(0, 255, 255)" stroke-width="3.16" stroke-opacity="1.00" stroke-linejoin="round"/>
<path d="M435.09,349.08 C433.10,348.90 424.74,337.54 419.22,328.55 C416.93,324.75 413.05,318.29 411.45,315.62" fill="none" stroke="rgb(0, 255, 255)" stroke-width="3.16" stroke-opacity="1.00" stroke-linejoin="round"/>
<path d="M399.93,375.77 C399.50,375.75 397.11,375.29 395.46,373.98 C390.64,370.14 383.56,362.11 377.86,354.72" fill="none" stroke="rgb(0, 255, 255)" stroke-width="3.16" stroke-opacity="1.00" stroke-linejoin="round"/>
<path d="M508.79,346.12 C508.79,346.12 508.08,347.39 508.08,347.39 C507.15,346.45 494.74,331.51 488.65,324.16 C483.26,317.59 475.48,308.00 473.09,304.98" fill="none" stroke="rgb(0, 255, 255)" stroke-width="3.16" stroke-opacity="1.00" stroke-linejoin="round"/>
<path d="M433.87,306.05 C433.88,306.04 409.02,275.02 400.59,264.62 C386.90,247.32 374.96,230.50 365.39,216.43 C361.14,210.03 356.27,202.71 355.65,201.78" fill="none" stroke="rgb(0, 255, 255)" stroke-width="3.16" stroke-opacity="1.00" stroke-linejoin="round"/>
<path d="M419.83,237.62 C418.32,235.84 394.63,211.69 385.54,202.28 C363.91,178.96 334.75,147.83 325.55,137.98 C320.68,132.81 312.85,124.65 309.89,121.66" fill="none" stroke="rgb(0, 255, 255)" stroke-width="3.16" stroke-opacity="1.00" stroke-linejoin="round"/>
<path d="M363.64,150.62 C363.64,150.62 363.19,150.62 363.19,150.62 C361.18,147.41 358.73,144.01 355.73,140.69 C346.70,130.96 327.24,109.94 316.80,98.66 C305.75,86.36 277.26,56.61 273.08,51.45 C272.10,50.23 270.48,48.19 269.83,47.38" fill="none" stroke="rgb(0, 255, 255)" stroke-width="3.16" stroke-opacity="1.00" stroke-linejoin="round"/>
<path d="M426.17,208.17 C426.17,208.17 426.62,208.17 426.62,208.17 C409.77,188.26 358.36,136.29 349.06,125.58 C342.02,117.14 319.74,86.56 313.86,79.50 C304.34,67.73 291.56,52.69 290.62,51.66" fill="none" stroke="rgb(0, 255, 255)" stroke-width="3.16" stroke-opacity="1.00" stroke-linejoin="round"/>
<path d="M400.80,150.62 C400.72,150.62 400.65,150.62 400.57,150.62 C400.46,150.62 400.35,150.62 400.24,150.62 C396.83,148.16 382.77,127.61 371.32,108.94 C368.22,103.67 357.62,81.87 355.75,77.97" fill="none" stroke="rgb(0, 255, 255)" stroke-width="3.16" stroke-opacity="1.00" stroke-linejoin="round"/>
<path d="M470.12,194.58 C470.12,194.58 470.05,195.03 470.05,195.03 C469.68,195.06 460.13,184.08 455.17,178.47 C445.22,167.34 434.64,155.50 434.02,154.80" fill="none" stroke="rgb(0, 255, 255)" stroke-width="3.16" stroke-opacity="1.00" stroke-linejoin="round"/>
<path d="M447.02,101.23 C447.02,101.23 446.79,101.46 446.79,101.46 C446.79,101.46 446.00,101.35 446.00,101.35 C443.91,99.23 430.44,82.46 427.96,79.07 C421.36,69.81 408.47,50.06 405.63,45.56" fill="none" stroke="rgb(0, 255, 255)" stroke-width="3.16" stroke-opacity="1.00" stroke-linejoin="round"/>
<path d="M503.20,205.00 C503.25,204.51 503.02,203.23 502.56,202.34 C502.51,202.25 497.61,195.00 495.40,192.29 C494.54,191.25 487.79,183.37 485.43,180.64" fill="none" stroke="rgb(0, 255, 255)" stroke-width="3.16" stroke-opacity="1.00" stroke-linejoin="round"/>
<path d="M475.56,259.83 C475.56,259.83 475.11,260.69 475.11,260.69 C475.11,260.69 433.81,213.84 433.81,213.84" fill="none" stroke="rgb(0, 255, 255)" stroke-width="3.16" stroke-opacity="1.00" stroke-linejoin="round"/>
<path d="M284.80,189.14 C285.35,189.46 285.70,189.69 285.83,189.82 C285.96,189.95 286.07,190.18 286.16,190.50 C286.14,186.93 284.05,182.83 281.99,179.44 C280.08,176.43 269.41,161.86 265.88,157.96 C255.70,146.93 233.00,122.38 220.47,108.85 C216.27,104.31 211.27,98.91 210.48,98.06" fill="none" stroke="rgb(0, 255, 255)" stroke-width="3.16" stroke-opacity="1.00" stroke-linejoin="round"/>
<path d="M263.05,201.37 C263.05,201.37 262.48,201.83 262.48,201.83 C259.19,196.89 251.08,186.86 248.60,183.04 C245.43,178.16 233.93,165.96 229.06,161.50 C221.08,154.40 196.37,133.37 181.35,119.75 C175.81,114.57 165.91,104.86 160.87,99.36 C150.43,87.36 139.28,73.98 137.79,72.17" fill="none" stroke="rgb(0, 255, 255)" stroke-width="3.16" stroke-opacity="1.00" stroke-linejoin="round"/>
<path d="M363.64,253.48 C363.64,253.48 363.58,255.75 363.58,255.75 C360.85,250.23 353.57,239.65 348.55,233.44 C335.51,217.64 314.17,188.98 312.31,186.33 C304.38,174.48 292.81,156.99 289.18,151.36" fill="none" stroke="rgb(0, 255, 255)" stroke-width="3.16" stroke-opacity="1.00" stroke-linejoin="round"/>
<path d="M337.36,174.19 C337.36,174.19 337.81,176.00 337.81,176.00 C336.94,176.15 325.00,163.94 321.57,159.94 C316.61,153.92 306.96,142.02 302.27,136.15 C301.48,135.13 300.17,133.44 299.65,132.77" fill="none" stroke="rgb(0, 255, 255)" stroke-width="3.16" stroke-opacity="1.00" stroke-linejoin="round"/>
<path d="M272.11,254.39 C272.11,254.39 271.91,255.23 271.91,255.23 C270.87,254.31 263.21,245.38 255.41,237.78 C249.75,232.42 238.73,222.04 233.37,217.02 C222.31,206.29 210.17,194.47 209.09,193.36" fill="none" stroke="rgb(0, 255, 255)" stroke-width="3.16" stroke-opacity="1.00" stroke-linejoin="round"/>
<path d="M226.34,224.48 C226.34,224.48 225.44,224.48 225.44,224.48 C224.64,223.88 215.60,212.63 209.55,206.49 C190.15,186.63 152.14,149.96 151.26,148.93 C133.56,128.17 105.91,97.02 94.00,82.59 C83.65,69.50 75.57,56.24 73.27,52.41" fill="none" stroke="rgb(0, 255, 255)" stroke-width="3.16" stroke-opacity="1.00" stroke-linejoin="round"/>
<path d="M273.92,301.06 C274.02,300.81 273.05,299.85 270.64,297.90 C264.82,293.24 253.35,283.96 246.85,277.97 C236.99,268.71 219.03,247.53 212.01,239.10" fill="none" stroke="rgb(0, 255, 255)" stroke-width="3.16" stroke-opacity="1.00" stroke-linejoin="round"/>
<path d="M275.69,197.10 C274.97,196.15 274.40,195.47 273.98,195.04 C272.37,193.45 261.18,184.83 254.73,178.59 C247.33,171.14 245.22,168.28 244.52,167.26" fill="none" stroke="rgb(0, 255, 255)" stroke-width="3.16" stroke-opacity="1.00" stroke-linejoin="round"/>
<path d="M296.34,265.45 C296.36,265.51 296.00,269.31 296.29,271.49 C296.63,273.84 298.06,278.78 298.97,280.66 C299.43,281.50 300.93,283.38 301.90,283.84 C302.41,284.08 303.60,284.43 305.45,284.88" fill="none" stroke="rgb(228, 0, 126)" stroke-width="3.16" stroke-opacity="1.00" stroke-linejoin="round"/>
<path d="M300.02,270.26 C300.01,270.45 300.01,270.59 300.02,270.69 C300.12,272.08 301.65,276.31 302.87,278.57 C303.87,280.36 307.41,284.43 309.48,286.43 C309.72,286.66 310.04,286.94 310.44,287.27" fill="none" stroke="rgb(228, 0, 126)" stroke-width="3.16" stroke-opacity="1.00" stroke-linejoin="round"/>
<path d="M306.24,257.82 C306.24,257.82 305.25,257.82 305.25,257.82 C305.25,257.82 304.97,258.10 304.97,258.10 C303.86,262.92 312.42,282.51 313.57,283.82 C313.91,284.20 314.59,284.78 315.61,285.55" fill="none" stroke="rgb(228, 0, 126)" stroke-width="3.16" stroke-opacity="1.00" stroke-linejoin="round"/>
<path d="M302.56,256.12 C302.02,256.64 297.04,260.61 295.53,263.11 C293.57,266.49 292.40,272.68 292.22,273.67 C292.16,273.96 292.06,274.44 291.93,275.11" fill="none" stroke="rgb(228, 0, 126)" stroke-width="3.16" stroke-opacity="1.00" stroke-linejoin="round"/>
<path d="M300.87,256.40 C300.68,256.40 300.01,256.41 299.28,256.52 C295.97,257.02 289.79,258.51 288.00,259.56 C286.90,260.23 283.47,265.56 282.36,268.84 C281.82,270.49 280.94,274.88 281.04,276.02 C281.09,276.56 281.34,277.60 281.79,279.12" fill="none" stroke="rgb(228, 0, 126)" stroke-width="3.16" stroke-opacity="1.00" stroke-linejoin="round"/>
<path d="M288.14,282.14 C288.14,282.14 288.14,282.28 288.14,282.28 C288.55,282.74 291.34,283.43 295.30,283.55 C296.11,283.58 296.28,283.53 296.61,283.36" fill="none" stroke="rgb(228, 0, 126)" stroke-width="3.16" stroke-opacity="1.00" stroke-linejoin="round"/>
<path d="M289.27,278.75 C289.64,278.91 289.95,279.03 290.20,279.11 C290.98,279.37 296.49,281.19 297.27,282.06 C297.41,282.23 297.53,282.44 297.63,282.72" fill="none" stroke="rgb(228, 0, 126)" stroke-width="3.16" stroke-opacity="1.00" stroke-linejoin="round"/>
<path d="M288.71,275.63 C288.71,275.63 288.71,275.92 288.71,275.92 C287.25,277.50 284.14,289.40 283.35,290.99 C281.64,294.42 281.23,299.08 281.69,302.05 C282.70,308.09 284.90,314.02 285.99,314.80 C287.28,315.69 291.91,316.04 294.07,315.28 C297.44,314.05 308.08,305.84 309.46,304.47 C309.81,304.12 310.30,303.55 310.91,302.76" fill="none" stroke="rgb(228, 0, 126)" stroke-width="3.16" stroke-opacity="1.00" stroke-linejoin="round"/>
<path d="M300.02,313.82 C300.02,313.82 309.03,332.99 309.03,332.99 C309.03,332.99 308.89,332.85 308.89,332.85" fill="none" stroke="rgb(228, 0, 126)" stroke-width="3.16" stroke-opacity="1.00" stroke-linejoin="round"/>
<path d="M312.75,297.98 C312.75,297.98 312.60,297.98 312.60,297.98 C314.85,298.24 316.64,298.29 317.86,298.00 C320.85,297.26 324.89,293.53 326.60,290.21 C327.20,289.01 327.77,287.60 328.06,286.73 C328.06,286.73 327.06,286.72 327.06,286.72" fill="none" stroke="rgb(228, 0, 126)" stroke-width="3.16" stroke-opacity="1.00" stroke-linejoin="round"/>
<path d="M322.64,286.95 C322.13,287.21 321.90,287.26 321.87,287.37 C320.90,291.05 319.13,292.52 318.66,292.76 C318.52,292.83 318.25,292.94 317.85,293.09" fill="none" stroke="rgb(228, 0, 126)" stroke-width="3.16" stroke-opacity="1.00" stroke-linejoin="round"/>
<path d="M311.05,263.76 C311.67,267.61 313.94,272.68 315.36,274.88 C316.84,277.09 321.03,280.92 322.16,281.39 C322.33,281.45 322.49,281.52 322.63,281.57" fill="none" stroke="rgb(228, 0, 126)" stroke-width="3.16" stroke-opacity="1.00" stroke-linejoin="round"/>
<path d="M315.29,256.40 C315.19,256.48 315.52,257.17 316.16,258.14 C320.14,263.90 324.71,272.69 325.80,277.46 C326.01,278.39 326.64,281.81 326.70,282.33 C326.73,282.59 326.74,282.92 326.72,283.33" fill="none" stroke="rgb(228, 0, 126)" stroke-width="3.16" stroke-opacity="1.00" stroke-linejoin="round"/>
<path d="M322.93,257.53 C322.93,257.53 322.79,257.53 322.79,257.53 C322.77,257.56 322.40,257.98 322.49,258.35 C322.60,258.74 330.38,275.39 331.80,278.83" fill="none" stroke="rgb(228, 0, 126)" stroke-width="3.16" stroke-opacity="1.00" stroke-linejoin="round"/>
<path d="M310.77,254.14 C310.77,254.14 308.79,254.71 308.79,254.71 C308.98,254.70 312.64,251.33 314.53,250.22 C316.77,248.93 321.08,247.28 323.68,246.75 C326.53,246.19 334.79,246.24 336.44,246.61 C340.42,247.57 351.35,253.67 355.62,257.27 C356.85,258.33 358.93,260.26 359.70,261.23 C360.09,261.72 360.76,262.72 361.72,264.21" fill="none" stroke="rgb(228, 0, 126)" stroke-width="3.16" stroke-opacity="1.00" stroke-linejoin="round"/>
<path d="M324.62,254.99 C324.62,254.99 323.49,254.99 323.49,254.99 C327.58,254.28 334.26,254.95 337.42,256.26 C340.66,257.66 345.54,262.38 347.28,266.05 C347.88,267.38 349.00,271.44 349.18,272.75 C349.24,273.24 349.27,273.99 349.26,275.00" fill="none" stroke="rgb(228, 0, 126)" stroke-width="3.16" stroke-opacity="1.00" stroke-linejoin="round"/>
<path d="M333.68,250.75 C333.71,250.76 336.29,250.92 339.94,252.97 C341.74,253.99 346.39,257.00 348.60,258.67 C353.43,262.41 355.86,264.69 356.09,266.15 C356.11,266.29 356.19,267.03 356.33,268.35" fill="none" stroke="rgb(228, 0, 126)" stroke-width="3.16" stroke-opacity="1.00" stroke-linejoin="round"/>
<path d="M326.32,260.64 C327.37,260.60 331.77,261.86 333.49,262.87 C335.41,264.04 338.25,267.12 339.36,269.33 C341.21,273.11 344.39,287.60 344.66,290.71 C344.66,290.71 344.52,290.95 344.52,290.95" fill="none" stroke="rgb(228, 0, 126)" stroke-width="3.16" stroke-opacity="1.00" stroke-linejoin="round"/>
<path d="M337.07,258.95 C337.07,258.95 336.64,259.37 336.64,259.37 C337.21,260.40 343.80,265.68 345.12,267.64 C346.78,270.18 347.90,275.07 348.38,278.49 C348.73,281.64 348.98,286.04 348.54,288.34 C348.11,290.45 346.65,294.50 345.20,296.62 C344.52,297.60 341.76,301.25 341.08,301.98 C340.70,302.39 339.93,303.13 338.78,304.19" fill="none" stroke="rgb(228, 0, 126)" stroke-width="3.16" stroke-opacity="1.00" stroke-linejoin="round"/>
<path d="M341.59,301.37 C342.63,301.14 346.29,298.45 348.54,295.71 C350.41,293.41 354.25,288.15 355.22,285.88 C355.88,284.30 357.07,278.90 357.18,276.67 C357.21,276.18 357.22,275.11 357.22,273.49" fill="none" stroke="rgb(228, 0, 126)" stroke-width="3.16" stroke-opacity="1.00" stroke-linejoin="round"/>
<path d="M337.35,304.77 C337.37,311.28 337.45,314.12 338.46,315.44 C338.64,315.66 339.00,315.87 339.52,316.05 C339.52,316.05 339.61,315.91 339.61,315.91" fill="none" stroke="rgb(228, 0, 126)" stroke-width="3.16" stroke-opacity="1.00" stroke-linejoin="round"/>
<path d="M331.41,284.69 C331.41,284.69 331.41,283.02 331.41,283.02 C331.71,285.26 334.55,299.57 335.89,302.50 C336.11,302.97 336.48,303.68 337.01,304.66" fill="none" stroke="rgb(228, 0, 126)" stroke-width="3.16" stroke-opacity="1.00" stroke-linejoin="round"/>
<path d="M339.90,316.36 C339.90,316.36 340.43,316.36 340.43,316.36 C339.91,316.40 334.81,315.92 331.73,316.62 C328.69,317.34 324.87,319.51 321.36,322.79 C319.71,324.34 311.57,330.81 311.15,331.85 C310.87,332.62 310.52,334.54 310.63,335.42 C310.69,335.87 310.89,337.00 311.24,338.82" fill="none" stroke="rgb(228, 0, 126)" stroke-width="3.16" stroke-opacity="1.00" stroke-linejoin="round"/>
<path d="M340.46,315.51 C340.15,315.58 339.86,316.02 339.69,316.11 C339.53,316.23 341.92,326.11 341.88,326.10 C341.88,326.10 341.49,325.85 341.49,325.85" fill="none" stroke="rgb(228, 0, 126)" stroke-width="3.16" stroke-opacity="1.00" stroke-linejoin="round"/>
<path d="M307.94,331.92 C307.86,331.91 307.75,331.91 307.61,331.92 C305.86,332.05 303.26,334.70 302.95,336.10 C302.59,337.98 304.22,346.44 304.48,347.75 C304.48,347.75 305.00,347.60 305.00,347.60" fill="none" stroke="rgb(228, 0, 126)" stroke-width="3.16" stroke-opacity="1.00" stroke-linejoin="round"/>
<path d="M311.05,335.31 C310.46,336.58 310.30,337.36 310.14,339.68 C309.95,342.13 307.84,347.63 306.06,349.77 C304.19,352.03 302.21,357.47 301.67,358.90 C296.34,372.14 292.44,378.86 292.37,378.88 C293.23,378.19 304.08,360.51 306.29,357.59 C306.89,356.80 318.23,343.44 321.87,340.02 C327.34,334.91 338.10,326.86 340.13,325.89 C340.30,325.81 340.63,325.67 341.11,325.48" fill="none" stroke="rgb(228, 0, 126)" stroke-width="3.16" stroke-opacity="1.00" stroke-linejoin="round"/>
<path d="M339.05,324.56 C339.05,324.56 339.47,325.27 339.47,325.27 C339.47,325.27 339.47,325.13 339.47,325.13 C339.11,325.11 327.27,333.27 322.58,336.71 C321.16,337.66 312.66,341.83 311.98,342.15 C311.65,342.30 311.05,342.57 310.20,342.95" fill="none" stroke="rgb(228, 0, 126)" stroke-width="3.16" stroke-opacity="1.00" stroke-linejoin="round"/>
<path d="M343.01,323.43 C343.01,323.43 342.19,323.72 342.19,323.72 C343.91,324.21 348.28,326.97 350.44,329.57 C351.80,331.26 354.47,337.05 356.18,340.39 C357.39,342.88 358.27,346.82 359.40,353.15 C359.91,356.11 361.12,362.78 361.82,366.48 C361.96,367.22 362.10,367.95 362.24,368.68" fill="none" stroke="rgb(228, 0, 126)" stroke-width="3.16" stroke-opacity="1.00" stroke-linejoin="round"/>
<path d="M349.51,333.61 C349.51,333.61 349.37,333.61 349.37,333.61 C349.23,333.49 346.51,333.23 342.29,335.21 C337.89,337.30 335.56,341.81 335.09,343.75 C334.92,344.46 334.32,347.80 334.10,348.92" fill="none" stroke="rgb(228, 0, 126)" stroke-width="3.16" stroke-opacity="1.00" stroke-linejoin="round"/>
<path d="M329.43,341.82 C329.43,341.82 328.32,342.22 328.32,342.22 C328.31,342.42 327.52,347.00 326.84,352.34 C326.35,356.35 326.27,360.30 327.12,362.30 C328.92,366.36 336.53,375.56 338.05,378.09 C338.26,378.44 338.59,379.08 339.05,380.00" fill="none" stroke="rgb(228, 0, 126)" stroke-width="3.16" stroke-opacity="1.00" stroke-linejoin="round"/>
<path d="M337.92,375.19 C337.92,375.19 337.28,375.47 337.28,375.47 C337.14,375.61 337.10,375.80 337.18,376.04 C339.43,381.45 342.35,392.57 344.55,397.46 C347.53,403.97 351.85,408.67 355.41,412.31 C356.88,413.83 361.08,418.35 361.96,419.31" fill="none" stroke="rgb(228, 0, 126)" stroke-width="3.16" stroke-opacity="1.00" stroke-linejoin="round"/>
<path d="M350.93,398.38 C351.58,399.62 353.04,402.37 353.83,403.88 C355.55,407.16 365.46,424.50 365.72,425.03 C368.65,430.90 372.55,442.43 374.81,446.33 C376.16,448.64 388.50,466.60 390.09,468.38 C390.28,468.58 390.53,468.79 390.66,468.92 C390.66,468.92 400.52,466.68 400.52,466.68 C400.99,465.85 401.33,456.91 401.34,456.25 C401.42,451.81 400.71,446.25 399.46,442.19 C397.95,437.39 395.77,431.69 394.13,429.24 C392.93,427.47 382.57,415.95 378.36,410.20 C375.31,406.00 372.22,399.86 371.26,397.87 C370.37,396.00 369.21,392.03 368.87,390.75" fill="none" stroke="rgb(228, 0, 126)" stroke-width="3.16" stroke-opacity="1.00" stroke-linejoin="round"/>
<path d="M379.78,411.11 C379.78,411.11 379.49,411.11 379.49,411.11 C379.47,411.23 374.15,393.44 370.06,386.28 C369.42,385.16 365.40,378.26 364.53,375.17 C364.27,374.21 363.52,370.98 363.16,369.39 C362.40,366.17 361.38,361.86 361.11,360.77" fill="none" stroke="rgb(228, 0, 126)" stroke-width="3.16" stroke-opacity="1.00" stroke-linejoin="round"/>
<path d="M390.81,467.96 C390.84,468.05 390.31,470.02 390.02,474.08 C389.81,477.20 393.65,490.26 393.95,491.02 C395.22,494.24 397.67,496.36 398.22,496.66 C398.56,496.84 399.45,497.25 400.89,497.89" fill="none" stroke="rgb(228, 0, 126)" stroke-width="3.16" stroke-opacity="1.00" stroke-linejoin="round"/>
<path d="M398.73,487.47 C398.73,487.47 398.73,487.61 398.73,487.61 C398.73,487.61 398.44,487.87 398.44,487.87 C398.44,487.87 402.84,497.50 402.84,497.50 C402.84,497.50 404.08,497.66 404.08,497.66" fill="none" stroke="rgb(228, 0, 126)" stroke-width="3.16" stroke-opacity="1.00" stroke-linejoin="round"/>
<path d="M404.10,488.89 C404.34,489.10 404.56,489.64 404.66,489.86 C406.06,493.04 408.04,495.95 409.18,496.49 C409.18,496.49 409.19,496.03 409.19,496.03" fill="none" stroke="rgb(228, 0, 126)" stroke-width="3.16" stroke-opacity="1.00" stroke-linejoin="round"/>
<path d="M410.32,494.83 C410.25,494.88 410.21,494.93 410.18,494.97 C410.08,495.11 410.02,495.31 410.04,495.39 C411.26,494.71 412.67,493.03 412.20,490.49 C411.47,486.79 405.71,469.00 404.22,466.66 C403.22,465.32 401.87,463.43 400.71,461.45" fill="none" stroke="rgb(228, 0, 126)" stroke-width="3.16" stroke-opacity="1.00" stroke-linejoin="round"/>
<path d="M407.78,495.39 C407.78,495.39 407.49,495.67 407.49,495.67 C407.49,495.67 407.41,495.70 407.41,495.70 C406.95,496.37 406.79,496.61 405.16,495.30" fill="none" stroke="rgb(228, 0, 126)" stroke-width="3.16" stroke-opacity="1.00" stroke-linejoin="round"/>
<path d="M336.28,355.26 C336.49,364.70 338.35,374.97 338.99,376.74 C339.13,377.12 339.47,377.88 340.01,379.03" fill="none" stroke="rgb(228, 0, 126)" stroke-width="3.16" stroke-opacity="1.00" stroke-linejoin="round"/>
<path d="M349.42,361.36 C349.42,361.36 348.50,361.31 348.50,361.31 C348.50,361.31 351.80,342.94 351.80,342.94 C351.80,342.94 351.86,343.69 351.86,343.69" fill="none" stroke="rgb(228, 0, 126)" stroke-width="3.16" stroke-opacity="1.00" stroke-linejoin="round"/>
<path d="M330.79,383.35 C330.79,383.35 329.64,383.40 329.64,383.40 C329.56,383.93 329.49,393.65 329.41,395.51 C329.02,403.01 325.99,413.94 323.30,420.32 C320.93,425.92 320.60,426.79 320.29,427.79 C320.29,427.79 320.98,427.55 320.98,427.55" fill="none" stroke="rgb(228, 0, 126)" stroke-width="3.16" stroke-opacity="1.00" stroke-linejoin="round"/>
<path d="M338.12,409.92 C336.43,411.05 335.58,411.96 335.19,413.49 C333.25,421.53 330.70,430.29 329.15,433.05 C328.94,433.43 328.54,434.00 327.96,434.75" fill="none" stroke="rgb(228, 0, 126)" stroke-width="3.16" stroke-opacity="1.00" stroke-linejoin="round"/>
<path d="M292.31,379.99 C292.31,379.99 291.39,379.99 291.39,379.99 C291.39,387.98 290.37,397.46 292.46,402.48 C293.31,404.48 298.11,412.93 300.93,421.02 C301.12,421.55 301.50,422.53 302.08,423.97" fill="none" stroke="rgb(228, 0, 126)" stroke-width="3.16" stroke-opacity="1.00" stroke-linejoin="round"/>
<path d="M296.58,395.57 C296.58,395.57 295.97,396.29 295.97,396.29 C296.17,397.06 299.16,401.12 299.69,402.66 C300.79,405.91 301.87,416.91 302.28,427.80 C302.45,433.14 301.75,443.79 302.56,445.80 C303.02,446.91 303.50,447.77 303.98,448.40 C304.33,448.85 305.12,449.67 306.35,450.85" fill="none" stroke="rgb(228, 0, 126)" stroke-width="3.16" stroke-opacity="1.00" stroke-linejoin="round"/>
<path d="M366.21,439.24 C366.30,439.19 366.01,439.23 365.91,439.24 C365.32,439.30 346.50,441.58 341.01,443.08 C337.37,444.09 333.38,445.44 327.90,447.44 C321.34,449.70 308.10,450.72 307.76,450.71 C307.45,450.69 306.47,450.64 304.83,450.54" fill="none" stroke="rgb(228, 0, 126)" stroke-width="3.16" stroke-opacity="1.00" stroke-linejoin="round"/>
<path d="M359.49,421.22 C359.28,421.22 359.06,421.22 358.84,421.22 C358.67,421.22 358.50,421.22 358.33,421.22 C358.55,421.11 362.30,434.40 364.00,437.77 C364.20,438.17 364.43,438.46 364.69,438.63" fill="none" stroke="rgb(228, 0, 126)" stroke-width="3.16" stroke-opacity="1.00" stroke-linejoin="round"/>
<path d="M370.79,439.55 C370.79,439.55 370.95,439.55 370.95,439.55 C370.95,439.55 371.71,444.43 371.71,444.43 C369.92,444.68 351.14,449.35 347.10,450.17 C337.22,452.18 309.54,461.65 307.61,461.48 C307.22,461.44 306.60,461.26 305.74,460.93" fill="none" stroke="rgb(228, 0, 126)" stroke-width="3.16" stroke-opacity="1.00" stroke-linejoin="round"/>
<path d="M311.24,450.24 C310.19,451.10 309.58,452.37 309.48,454.21 C309.46,454.74 309.58,458.00 309.64,458.75 C309.77,460.23 310.09,461.96 310.51,463.63" fill="none" stroke="rgb(228, 0, 126)" stroke-width="3.16" stroke-opacity="1.00" stroke-linejoin="round"/>
<path d="M354.30,441.99 C354.30,441.94 354.30,441.89 354.30,441.84 C354.30,441.60 354.30,441.36 354.30,441.12 C354.50,441.90 355.70,444.54 355.96,444.78 C356.07,444.89 356.47,445.23 357.15,445.80" fill="none" stroke="rgb(228, 0, 126)" stroke-width="3.16" stroke-opacity="1.00" stroke-linejoin="round"/>
<path d="M372.32,446.57 C372.32,446.57 372.32,446.42 372.32,446.42 C372.32,446.42 372.02,446.27 372.02,446.27 C374.35,449.15 376.39,457.32 376.82,458.86 C376.82,458.86 376.60,459.40 376.60,459.40" fill="none" stroke="rgb(228, 0, 126)" stroke-width="3.16" stroke-opacity="1.00" stroke-linejoin="round"/>
<path d="M373.54,467.34 C373.54,467.29 373.54,467.24 373.54,467.19 C373.54,467.03 373.54,466.88 373.54,466.73 C375.66,475.87 376.97,482.94 377.49,491.66 C377.99,500.01 378.95,515.13 379.60,519.50 C380.59,526.03 383.58,535.29 387.06,543.79 C390.14,550.97 394.11,559.14 397.32,563.93 C408.57,580.61 413.11,586.14 415.69,588.46 C415.21,588.36 409.00,585.62 406.37,585.40 C405.76,585.36 403.43,585.48 402.97,585.81 C400.57,587.64 398.13,591.26 397.32,592.87 C395.35,596.85 392.05,610.35 390.99,614.58 C389.90,618.86 389.16,621.10 387.73,622.67 C385.42,625.11 376.93,628.90 374.50,629.65 C374.50,629.65 371.71,628.59 371.71,628.59" fill="none" stroke="rgb(228, 0, 126)" stroke-width="3.16" stroke-opacity="1.00" stroke-linejoin="round"/>
<path d="M407.44,579.42 C407.44,579.42 407.23,580.03 407.23,580.03 C403.11,580.06 399.41,580.84 397.24,581.81 C394.77,582.98 391.77,585.95 390.76,588.12 C390.35,589.03 387.59,594.76 387.34,595.25 C387.33,595.27 387.28,595.33 387.29,595.30" fill="none" stroke="rgb(228, 0, 126)" stroke-width="3.16" stroke-opacity="1.00" stroke-linejoin="round"/>
<path d="M400.72,572.09 C400.16,572.07 399.49,572.59 399.26,572.70 C398.51,573.06 391.38,576.49 389.74,577.71 C387.43,579.47 385.84,582.64 384.52,585.41 C381.77,591.41 378.37,602.79 377.75,604.57 C377.65,604.85 377.47,605.33 377.21,605.99" fill="none" stroke="rgb(228, 0, 126)" stroke-width="3.16" stroke-opacity="1.00" stroke-linejoin="round"/>
<path d="M389.42,585.53 C387.02,587.34 386.21,588.33 384.23,592.63 C380.86,599.35 376.61,609.63 373.11,615.28 C372.96,615.52 372.69,615.78 372.32,616.07" fill="none" stroke="rgb(228, 0, 126)" stroke-width="3.16" stroke-opacity="1.00" stroke-linejoin="round"/>
<path d="M383.32,579.73 C383.25,579.66 382.37,579.92 381.38,580.32 C379.91,580.94 375.13,584.60 373.22,586.57 C371.05,588.89 369.73,591.51 369.27,594.74 C368.93,597.23 366.20,616.17 366.14,616.48 C366.14,616.48 365.60,616.99 365.60,616.99" fill="none" stroke="rgb(228, 0, 126)" stroke-width="3.16" stroke-opacity="1.00" stroke-linejoin="round"/>
<path d="M374.15,618.21 C374.15,618.21 373.16,620.04 373.16,620.04 C372.14,620.00 359.23,623.43 354.69,624.64 C350.27,625.81 338.00,628.29 338.02,628.29 C338.02,628.29 335.99,618.11 335.99,618.11 C335.99,618.11 329.44,623.28 329.44,623.28 C329.44,623.28 320.30,609.55 320.30,609.55 C322.02,612.63 326.55,624.11 326.21,627.06 C326.11,627.09 322.99,628.59 321.31,629.14 C318.79,629.93 316.78,629.66 315.29,629.30 C313.62,628.27 313.39,587.58 314.28,577.21 C316.01,557.93 316.07,540.41 314.76,534.27 C314.66,533.81 314.40,532.78 313.99,531.17" fill="none" stroke="rgb(228, 0, 126)" stroke-width="3.16" stroke-opacity="1.00" stroke-linejoin="round"/>
<path d="M314.29,594.08 C314.22,594.08 311.84,592.07 310.17,576.72 C309.86,573.79 308.73,557.57 307.05,547.83 C306.47,544.42 305.49,532.33 305.61,526.41 C306.02,513.70 306.54,488.83 306.11,485.93 C306.01,485.26 302.72,475.43 302.37,474.21 C301.95,472.62 305.60,463.84 306.29,462.28 C306.29,462.28 306.65,462.13 306.65,462.13" fill="none" stroke="rgb(228, 0, 126)" stroke-width="3.16" stroke-opacity="1.00" stroke-linejoin="round"/>
<path d="M314.29,460.93 C313.67,461.30 313.40,461.49 313.33,461.54 C313.30,461.55 313.21,461.60 313.07,461.66 C312.21,468.24 305.76,477.04 305.68,477.03 C305.68,477.03 305.73,476.83 305.73,476.83" fill="none" stroke="rgb(228, 0, 126)" stroke-width="3.16" stroke-opacity="1.00" stroke-linejoin="round"/>
<path d="M313.38,476.20 C313.38,476.20 312.92,476.35 312.92,476.35 C312.58,476.49 314.58,487.78 315.20,498.10 C315.83,509.48 315.88,514.89 315.25,521.51 C314.74,527.41 316.71,541.00 317.63,547.26 C317.74,548.01 317.85,548.75 317.96,549.49" fill="none" stroke="rgb(228, 0, 126)" stroke-width="3.16" stroke-opacity="1.00" stroke-linejoin="round"/>
<path d="M328.95,471.31 C328.95,471.21 328.95,471.11 328.95,471.00 C328.95,470.97 328.95,470.94 328.95,470.90 C329.75,475.42 332.56,521.93 333.21,528.05 C335.34,545.52 339.95,566.51 340.64,579.19 C340.84,583.12 340.81,601.49 340.65,607.38 C340.60,608.90 340.54,615.35 340.53,616.87" fill="none" stroke="rgb(228, 0, 126)" stroke-width="3.16" stroke-opacity="1.00" stroke-linejoin="round"/>
<path d="M338.42,497.57 C338.42,497.57 338.27,497.57 338.27,497.57 C338.12,497.71 344.06,532.00 347.46,546.67 C349.40,555.25 351.36,569.58 351.91,572.32 C353.64,580.89 359.84,600.12 361.85,606.65 C362.61,609.04 363.81,612.78 364.25,614.13" fill="none" stroke="rgb(228, 0, 126)" stroke-width="3.16" stroke-opacity="1.00" stroke-linejoin="round"/>
<path d="M359.49,517.43 C359.47,517.38 359.68,518.50 360.10,520.27 C361.41,525.70 364.69,539.32 366.02,549.23 C368.49,567.48 368.58,573.51 370.06,588.05 C370.32,590.35 370.64,592.77 370.79,593.78" fill="none" stroke="rgb(228, 0, 126)" stroke-width="3.16" stroke-opacity="1.00" stroke-linejoin="round"/>
<path d="M395.84,577.59 C395.51,577.27 382.43,561.12 382.27,560.88 C381.52,559.73 375.68,543.02 372.19,536.29 C369.79,531.67 366.66,521.16 365.64,514.82 C364.72,509.00 364.36,496.85 365.21,490.34 C365.60,487.48 367.22,480.28 367.52,479.58 C367.74,479.08 368.32,477.90 369.26,476.05" fill="none" stroke="rgb(228, 0, 126)" stroke-width="3.16" stroke-opacity="1.00" stroke-linejoin="round"/>
<path d="M378.43,552.55 C378.43,552.79 378.43,553.04 378.43,553.28 C378.45,557.04 379.94,580.88 379.96,582.80 C379.96,583.10 379.96,583.40 379.96,583.70" fill="none" stroke="rgb(228, 0, 126)" stroke-width="3.16" stroke-opacity="1.00" stroke-linejoin="round"/>
<path d="M346.97,471.00 C345.66,473.50 344.58,475.45 344.50,475.87 C343.93,479.03 345.27,496.36 345.79,503.25 C346.41,509.86 346.67,511.70 346.91,512.94 C347.36,514.45 352.58,490.99 352.62,490.73 C352.64,490.59 352.63,490.49 352.59,490.43" fill="none" stroke="rgb(228, 0, 126)" stroke-width="3.16" stroke-opacity="1.00" stroke-linejoin="round"/>
<path d="M298.11,422.45 C297.46,422.60 290.27,428.43 289.37,429.46 C288.72,430.23 288.48,434.67 288.34,436.99 C288.31,437.76 288.28,443.92 288.08,445.17 C287.55,448.42 285.50,453.46 284.52,455.41 C283.00,458.47 281.43,464.03 282.15,466.94 C282.45,468.10 283.86,471.45 284.49,472.64 C284.73,473.09 285.28,474.06 286.13,475.55" fill="none" stroke="rgb(228, 0, 126)" stroke-width="3.16" stroke-opacity="1.00" stroke-linejoin="round"/>
<path d="M289.25,459.09 C289.25,459.09 288.64,459.09 288.64,459.09 C288.64,459.09 289.42,477.35 289.42,477.35 C289.42,477.35 289.86,477.11 289.86,477.11" fill="none" stroke="rgb(228, 0, 126)" stroke-width="3.16" stroke-opacity="1.00" stroke-linejoin="round"/>
<path d="M291.08,465.20 C291.08,465.20 289.90,465.81 289.90,465.81 C289.90,465.81 302.33,475.24 302.33,475.24 C302.33,475.24 301.90,475.04 301.90,475.04" fill="none" stroke="rgb(228, 0, 126)" stroke-width="3.16" stroke-opacity="1.00" stroke-linejoin="round"/>
<path d="M289.25,475.28 C289.25,475.28 288.64,475.32 288.64,475.32 C292.22,476.74 300.60,477.13 303.30,476.78 C303.30,476.78 303.16,476.57 303.16,476.57" fill="none" stroke="rgb(228, 0, 126)" stroke-width="3.16" stroke-opacity="1.00" stroke-linejoin="round"/>
<path d="M295.05,434.97 C295.05,434.97 295.05,434.36 295.05,434.36 C293.79,447.30 295.58,463.22 295.97,465.01 C295.97,465.01 296.58,464.29 296.58,464.29" fill="none" stroke="rgb(228, 0, 126)" stroke-width="3.16" stroke-opacity="1.00" stroke-linejoin="round"/>
<path d="M300.86,452.37 C300.86,452.37 300.86,470.18 300.86,470.18 C300.86,470.18 300.86,469.73 300.86,469.73" fill="none" stroke="rgb(228, 0, 126)" stroke-width="3.16" stroke-opacity="1.00" stroke-linejoin="round"/>
<path d="M289.25,474.67 C289.23,479.91 289.77,486.27 290.14,490.24 C290.28,492.35 289.61,500.60 289.60,500.84 C289.40,505.04 290.62,511.69 292.32,514.78 C293.48,516.84 301.64,527.41 301.73,527.52 C301.86,527.65 302.04,527.75 302.27,527.81" fill="none" stroke="rgb(228, 0, 126)" stroke-width="3.16" stroke-opacity="1.00" stroke-linejoin="round"/>
<path d="M298.72,498.80 C298.36,498.80 298.01,498.80 297.65,498.80 C297.60,498.80 297.45,498.80 297.50,498.80 C298.34,510.26 299.35,518.95 301.10,523.21 C301.38,523.88 302.70,526.91 303.09,527.50 C303.25,527.74 303.48,527.95 303.77,528.11" fill="none" stroke="rgb(228, 0, 126)" stroke-width="3.16" stroke-opacity="1.00" stroke-linejoin="round"/>
<path d="M302.69,504.60 C302.56,505.97 304.69,520.66 305.59,523.24 C305.71,523.58 305.84,523.74 305.97,523.72" fill="none" stroke="rgb(228, 0, 126)" stroke-width="3.16" stroke-opacity="1.00" stroke-linejoin="round"/>
<path d="M371.60,622.38 C371.37,622.38 371.13,622.38 370.89,622.38 C370.77,622.38 370.64,622.38 370.52,622.38 C370.91,622.40 372.22,644.37 371.75,647.92 C370.98,653.43 367.06,665.29 366.11,670.77 C365.52,674.30 365.04,689.41 365.26,693.45 C365.55,697.86 366.93,704.02 369.89,714.67 C370.41,716.63 370.46,718.28 370.08,720.53 C369.92,721.34 369.77,722.16 369.62,722.97" fill="none" stroke="rgb(228, 0, 126)" stroke-width="3.16" stroke-opacity="1.00" stroke-linejoin="round"/>
<path d="M338.73,628.61 C340.00,637.47 345.66,664.64 347.17,680.10 C347.50,683.03 348.94,696.62 348.93,699.32 C348.89,701.37 348.37,702.91 347.20,704.42 C345.19,706.93 340.98,712.17 339.85,713.18 C336.69,715.90 318.49,724.47 318.29,724.57 C316.99,725.23 316.13,725.85 316.16,726.06 C316.39,726.69 319.09,727.93 321.73,728.01 C324.16,728.07 331.73,726.31 333.44,726.07 C335.44,725.79 354.90,724.96 356.99,725.07 C360.05,725.25 365.63,725.58 367.73,724.67 C368.51,724.31 369.10,723.59 369.75,722.39 C369.99,721.92 370.23,721.45 370.47,720.99" fill="none" stroke="rgb(228, 0, 126)" stroke-width="3.16" stroke-opacity="1.00" stroke-linejoin="round"/>
<path d="M394.55,607.08 C394.34,607.08 394.13,607.08 393.92,607.08 C393.85,607.08 393.78,607.08 393.70,607.08 C395.22,606.93 412.01,615.69 413.11,616.40 C418.09,619.62 428.70,628.42 432.50,630.34 C433.02,630.60 443.66,635.50 445.64,636.67 C447.09,637.56 448.98,639.97 449.63,642.53 C450.31,645.35 451.46,661.21 450.80,666.51 C450.03,672.39 445.92,678.41 445.71,679.19 C446.80,679.81 447.73,679.98 449.14,679.63 C450.78,679.19 453.11,678.11 454.33,677.11 C456.90,674.93 459.76,668.65 460.23,664.63 C460.74,659.86 459.37,644.73 460.29,641.18 C460.81,639.25 464.09,632.94 464.27,632.49 C464.93,630.76 463.73,627.82 461.99,626.31 C460.15,624.77 456.42,623.56 453.32,623.25 C450.72,622.99 447.14,621.78 444.99,620.52 C442.67,619.13 438.66,615.97 436.72,613.51 C435.78,612.30 431.15,605.81 429.85,604.33 C429.07,603.46 415.83,588.01 413.47,586.36 C413.01,586.04 410.35,584.49 409.29,583.84" fill="none" stroke="rgb(228, 0, 126)" stroke-width="3.16" stroke-opacity="1.00" stroke-linejoin="round"/>
<path d="M389.13,474.22 C389.04,474.22 386.90,471.12 383.28,467.08 C381.73,465.39 377.88,462.90 372.24,459.59 C368.32,457.32 365.97,456.28 363.22,455.65 C360.78,455.11 358.03,455.20 356.84,455.96 C356.03,456.54 354.08,462.49 354.25,464.67 C354.47,466.87 357.15,471.90 358.89,473.26 C360.59,474.53 362.68,474.84 363.58,474.81 C364.19,473.56 364.21,472.61 363.48,471.22 C361.57,467.62 360.91,466.46 360.04,464.99 C360.43,463.70 363.70,462.28 366.18,462.36 C369.21,462.51 372.67,464.94 374.62,467.62 C376.63,470.43 382.62,476.53 384.61,478.55 C385.35,479.28 386.09,480.01 386.83,480.74" fill="none" stroke="rgb(19, 26, 118)" stroke-width="3.16" stroke-opacity="1.00" stroke-linejoin="round"/>
<path d="M389.52,484.20 C389.52,484.20 379.57,482.66 379.57,482.66 C381.68,482.54 392.32,490.51 392.89,490.96 C393.25,491.25 393.92,491.81 394.89,492.64" fill="none" stroke="rgb(19, 26, 118)" stroke-width="3.16" stroke-opacity="1.00" stroke-linejoin="round"/>
<path d="M409.85,475.37 C414.05,481.61 422.23,489.01 422.51,489.18 C422.51,489.18 422.51,488.85 422.51,488.85" fill="none" stroke="rgb(19, 26, 118)" stroke-width="3.16" stroke-opacity="1.00" stroke-linejoin="round"/>
<path d="M421.36,487.65 C421.36,487.65 419.98,487.72 419.98,487.72 C418.93,489.13 415.88,497.08 415.43,497.94 C414.85,499.04 413.16,501.69 412.93,502.46 C413.21,502.60 413.71,502.62 414.80,502.46 C416.97,502.10 418.19,499.81 420.07,494.61 C421.45,490.72 422.15,489.20 422.13,488.45 C422.13,488.45 415.22,501.46 415.22,501.46 C415.33,500.91 410.22,499.07 407.62,498.16 C407.31,498.04 406.90,497.86 406.40,497.62" fill="none" stroke="rgb(19, 26, 118)" stroke-width="3.16" stroke-opacity="1.00" stroke-linejoin="round"/>
<path d="M421.75,488.80 C421.84,488.81 427.00,488.91 429.84,489.81 C434.48,491.32 442.17,496.70 449.90,500.76 C453.53,502.68 474.49,519.22 491.08,534.11 C496.34,539.00 505.08,547.86 507.98,549.97 C511.65,552.64 515.19,555.53 517.17,557.51 C519.24,559.63 519.13,561.12 518.83,562.46 C518.02,563.17 513.86,563.23 511.83,562.54 C509.48,561.72 506.46,559.85 503.21,557.20 C499.87,554.48 496.77,553.02 492.45,551.48 C488.12,549.96 480.72,546.42 471.95,542.84 C465.45,540.12 454.48,532.49 447.97,528.04 C444.00,525.27 435.02,518.26 425.04,511.57 C422.11,509.60 414.91,504.53 414.42,504.09 C413.78,503.54 411.07,500.78 410.24,499.93" fill="none" stroke="rgb(19, 26, 118)" stroke-width="3.16" stroke-opacity="1.00" stroke-linejoin="round"/>
<path d="M519.19,560.93 C519.19,560.93 518.81,560.93 518.81,560.93 C522.09,561.34 530.06,566.20 531.40,567.73 C530.78,570.13 521.36,564.22 520.09,563.34 C520.09,563.34 529.63,567.44 529.63,567.44 C529.63,567.44 519.78,562.24 519.78,562.24 C521.35,562.91 524.33,564.31 525.45,565.04 C525.98,565.39 526.84,566.07 528.02,567.06" fill="none" stroke="rgb(19, 26, 118)" stroke-width="3.16" stroke-opacity="1.00" stroke-linejoin="round"/>
<path d="M422.51,497.24 C423.50,498.24 429.56,503.62 430.68,504.52 C433.99,507.18 437.17,510.79 439.28,514.05 C440.96,516.64 444.28,521.13 445.91,523.33" fill="none" stroke="rgb(19, 26, 118)" stroke-width="3.16" stroke-opacity="1.00" stroke-linejoin="round"/>
<path d="M421.36,501.46 C421.36,501.46 420.98,501.46 420.98,501.46 C420.91,501.44 421.05,501.59 421.11,501.63 C421.19,501.70 424.42,504.10 425.14,504.69 C427.41,506.54 441.65,520.07 443.72,521.88 C445.72,523.64 449.57,526.82 450.90,527.93" fill="none" stroke="rgb(19, 26, 118)" stroke-width="3.16" stroke-opacity="1.00" stroke-linejoin="round"/>
<path d="M439.78,508.37 C440.32,508.91 441.53,510.11 442.02,510.55 C443.82,512.15 451.83,518.44 452.14,518.67 C455.04,520.83 468.09,527.78 469.61,529.08 C469.93,529.35 470.21,529.74 470.47,530.23" fill="none" stroke="rgb(19, 26, 118)" stroke-width="3.16" stroke-opacity="1.00" stroke-linejoin="round"/>
<path d="M452.44,525.25 C452.44,525.25 452.44,526.21 452.44,526.21 C452.44,526.21 452.05,526.40 452.05,526.40 C451.91,525.93 470.95,530.30 472.79,531.43 C477.71,534.47 486.36,538.70 493.21,543.25 C496.21,545.32 502.70,549.82 503.28,550.30 C503.65,550.60 504.48,551.33 505.76,552.49" fill="none" stroke="rgb(19, 26, 118)" stroke-width="3.16" stroke-opacity="1.00" stroke-linejoin="round"/>
<path d="M501.93,549.42 C501.16,549.43 500.22,549.33 499.60,548.88 C498.48,548.07 492.87,542.36 491.55,541.22 C487.98,538.18 473.01,527.88 470.79,525.94 C467.58,523.15 451.94,511.83 449.88,510.45 C444.94,507.14 434.64,498.29 430.96,495.79 C429.99,495.13 428.09,493.82 427.38,493.28 C426.37,492.52 422.48,489.30 421.33,488.34" fill="none" stroke="rgb(19, 26, 118)" stroke-width="3.16" stroke-opacity="1.00" stroke-linejoin="round"/>
<path d="M451.29,503.76 C458.02,510.61 470.59,521.30 471.35,522.15 C471.48,522.29 475.55,527.59 476.87,528.81 C477.80,529.67 490.10,538.48 498.35,545.52 C501.11,547.87 506.90,552.75 508.35,553.89 C511.08,556.00 515.16,559.14 516.51,560.16" fill="none" stroke="rgb(19, 26, 118)" stroke-width="3.16" stroke-opacity="1.00" stroke-linejoin="round"/>
<path d="M471.62,536.76 C471.62,536.95 475.01,538.49 491.65,546.55 C500.61,550.52 502.95,552.09 512.35,559.01 C518.98,563.77 522.62,565.77 523.11,566.09 C523.30,566.21 523.52,566.40 523.80,566.68" fill="none" stroke="rgb(19, 26, 118)" stroke-width="3.16" stroke-opacity="1.00" stroke-linejoin="round"/>
</g>
</svg>
