<?xml version="1.0" encoding="UTF-8" standalone="no"?>
<!DOCTYPE svg PUBLIC "-//W3C//DTD SVG 1.1//EN" "http://www.w3.org/Graphics/SVG/1.1/DTD/svg11.dtd">
<svg width="128.40" height="181.68" viewBox="0.00 0.00 535.00 757.00" xmlns="http://www.w3.org/2000/svg" xmlns:xlink="http://www.w3.org/1999/xlink">
<g stroke-linecap="round" id="115">
<path d="M294.21,240.42 C294.21,240.42 292.23,241.40 292.23,241.40 C292.19,239.29 292.11,233.81 292.15,232.49 C292.23,229.64 292.46,228.03 292.70,226.88 C295.24,228.66 300.13,230.32 300.70,231.17 C301.25,232.03 301.53,234.55 301.53,237.32 C301.51,238.51 301.48,240.86 301.46,242.03 C301.45,243.04 301.43,244.05 301.42,245.06" fill="none" stroke="rgb(220, 215, 24)" stroke-width="2.91" stroke-opacity="1.00" stroke-linejoin="round"/>
<path d="M300.91,241.45 C300.91,241.45 300.26,240.93 300.26,240.93 C300.07,240.68 297.51,239.93 292.43,239.90 C289.01,239.93 271.45,243.09 264.99,245.05 C221.06,258.76 194.81,267.19 183.96,271.14 C174.82,274.76 165.94,278.84 160.37,281.94 C152.92,286.10 142.96,293.77 138.11,299.07 C134.01,303.54 122.93,315.20 120.84,319.85 C120.29,321.11 119.91,322.51 119.55,324.40 C126.80,320.35 138.73,315.85 144.15,315.48 C146.35,315.35 154.82,316.33 155.40,316.44 C158.76,317.10 163.52,318.99 165.18,319.92 C168.90,322.03 176.10,328.99 178.81,331.62 C179.07,331.87 179.40,332.21 179.83,332.64" fill="none" stroke="rgb(220, 215, 24)" stroke-width="2.91" stroke-opacity="1.00" stroke-linejoin="round"/>
<path d="M282.36,322.85 C282.36,322.85 280.81,323.89 280.81,323.89 C280.91,323.33 281.77,321.07 282.04,320.16 C282.39,318.92 282.17,317.03 281.47,316.08 C279.92,314.07 276.00,311.75 273.87,310.88 C270.49,309.56 256.50,308.53 251.17,308.69 C246.81,308.85 231.01,311.99 223.14,313.59 C213.68,315.55 198.08,319.91 195.09,320.88 C189.03,322.89 180.85,328.65 180.33,329.18 C180.07,329.44 179.74,329.91 179.31,330.58" fill="none" stroke="rgb(220, 215, 24)" stroke-width="2.91" stroke-opacity="1.00" stroke-linejoin="round"/>
<path d="M285.45,321.82 C285.45,321.82 283.90,321.31 283.90,321.31 C283.89,321.32 291.02,316.39 293.76,314.90 C296.53,313.41 303.04,311.13 305.29,310.66 C307.66,310.18 315.00,309.51 317.40,309.54 C319.36,309.58 335.65,311.09 341.24,311.46 C343.94,311.67 348.94,312.73 351.99,314.40 C355.19,316.19 360.14,320.08 361.25,321.81 C362.18,323.29 362.65,324.78 362.50,325.35 C362.74,324.08 363.17,323.35 364.27,322.60 C369.23,319.28 380.27,313.85 384.66,313.11 C386.35,312.83 410.32,311.01 410.56,311.00 C414.08,311.00 418.48,312.64 421.09,314.31 C423.02,315.60 425.45,320.19 426.29,323.17 C427.01,325.87 427.22,332.07 427.39,332.73 C427.48,333.04 427.57,333.36 427.65,333.67" fill="none" stroke="rgb(220, 215, 24)" stroke-width="2.91" stroke-opacity="1.00" stroke-linejoin="round"/>
<path d="M429.20,327.49 C428.54,327.42 428.11,327.34 427.91,327.23 C427.71,327.13 427.45,326.87 427.14,326.44 C427.55,325.54 438.18,321.17 445.11,320.13 C447.57,319.78 451.02,320.01 456.29,321.06 C469.13,323.77 476.06,325.66 483.81,329.34 C486.56,330.69 492.12,334.32 494.71,336.56 C497.37,338.93 499.09,341.96 499.78,343.90 C497.87,336.93 491.75,320.34 490.98,318.49 C489.72,315.52 480.68,302.22 477.11,296.52 C473.76,291.30 464.51,280.81 459.13,276.63 C454.09,272.90 440.11,262.12 436.97,260.03 C434.66,258.50 420.80,251.01 414.86,248.30 C407.36,244.99 397.61,241.54 391.16,240.69 C388.30,240.33 371.33,238.78 364.45,238.77 C356.05,238.83 312.72,240.80 307.33,242.02 C304.21,242.74 300.30,243.28 298.14,243.51 C298.14,243.51 298.84,243.51 298.84,243.51" fill="none" stroke="rgb(220, 215, 24)" stroke-width="2.91" stroke-opacity="1.00" stroke-linejoin="round"/>
<path d="M298.33,245.06 C298.33,245.06 296.81,245.06 296.81,245.06 C299.91,245.09 306.69,245.23 308.98,246.09 C312.26,247.38 323.13,255.38 327.60,259.95 C332.30,264.78 339.41,274.57 343.50,281.55 C346.50,286.48 353.09,297.52 355.31,303.68 C355.38,303.87 359.27,315.27 359.91,316.99 C360.97,319.83 362.61,322.85 363.25,323.89" fill="none" stroke="rgb(220, 215, 24)" stroke-width="2.91" stroke-opacity="1.00" stroke-linejoin="round"/>
<path d="M431.77,328.52 C431.11,328.77 430.68,328.94 430.49,329.04 C430.10,329.26 429.58,329.54 429.35,329.55 C429.29,329.50 428.02,323.87 427.39,321.89 C426.37,318.73 422.25,312.20 420.50,310.05 C416.86,305.61 406.20,295.03 400.45,289.40 C393.64,282.93 383.48,276.05 375.77,272.32 C366.59,267.96 359.71,264.16 351.00,259.79 C342.10,255.40 334.95,252.39 326.98,249.65 C319.26,247.14 304.46,242.37 297.69,241.45 C296.85,241.35 295.82,242.65 295.35,243.82 C293.05,250.02 288.92,289.73 287.19,297.56 C285.84,303.30 283.62,312.79 282.79,314.77 C282.17,316.22 280.77,318.61 280.30,319.25" fill="none" stroke="rgb(220, 215, 24)" stroke-width="2.91" stroke-opacity="1.00" stroke-linejoin="round"/>
<path d="M296.78,244.54 C296.78,244.54 296.78,242.22 296.78,242.22 C296.62,242.13 291.87,245.09 287.92,246.58 C277.75,250.33 264.15,255.50 262.56,256.12 C257.90,257.97 245.19,265.52 239.41,268.98 C235.83,271.16 223.59,279.43 219.38,282.93 C215.28,286.39 199.91,300.05 198.11,301.73 C193.42,306.15 185.14,316.47 181.26,321.61 C179.36,324.17 176.09,328.99 174.67,331.10" fill="none" stroke="rgb(220, 215, 24)" stroke-width="2.91" stroke-opacity="1.00" stroke-linejoin="round"/>
<path d="M293.69,319.76 C293.69,319.76 291.20,319.76 291.20,319.76 C291.20,319.76 292.40,320.22 292.40,320.22 C293.58,323.11 294.71,335.82 295.27,342.56 C295.88,356.13 298.28,389.15 298.30,396.50 C298.31,411.57 298.35,441.33 298.38,456.01 C298.42,457.97 298.94,461.36 299.46,462.57 C299.87,463.50 301.21,464.09 302.58,464.43 C303.50,463.83 303.94,457.48 304.03,455.90 C304.48,448.23 306.81,436.49 308.10,430.54 C309.07,424.95 309.20,412.16 308.85,406.40 C308.57,401.96 305.51,384.50 304.59,376.96 C303.50,367.40 303.03,334.32 302.53,319.65 C302.53,318.63 302.50,317.93 302.44,317.55 C302.39,317.17 302.22,316.37 301.94,315.13" fill="none" stroke="rgb(220, 215, 24)" stroke-width="2.91" stroke-opacity="1.00" stroke-linejoin="round"/>
<path d="M299.36,459.39 C299.36,459.39 299.10,459.39 299.10,459.39 C298.95,459.63 298.42,461.12 298.33,462.10 C298.28,462.63 298.33,472.70 298.27,476.05 C298.22,477.99 297.78,480.92 297.23,482.68 C296.74,484.13 295.15,486.51 294.30,486.83 C292.55,487.42 286.35,486.79 283.60,485.49 C282.08,484.75 268.69,474.39 267.55,473.55 C266.74,476.02 266.52,477.92 267.06,479.92 C267.96,483.24 269.99,487.26 271.20,488.98 C272.82,491.19 277.82,494.91 281.70,496.26 C284.25,497.11 290.56,497.96 292.76,498.02 C295.18,498.06 298.11,497.34 300.00,495.45 C301.95,493.44 305.68,487.71 306.80,484.36 C307.89,480.97 308.62,474.25 308.36,471.02 C307.71,463.90 306.12,460.97 305.61,460.42 C305.61,460.42 305.03,456.81 305.03,456.81" fill="none" stroke="rgb(220, 215, 24)" stroke-width="2.91" stroke-opacity="1.00" stroke-linejoin="round"/>
<path d="M254.54,375.92 C254.28,376.05 258.76,375.47 249.59,381.96 C248.03,383.03 239.60,385.60 238.45,385.87 C235.80,386.49 215.05,387.57 213.33,387.60 C208.85,387.65 202.85,386.24 199.58,385.12 C197.71,384.46 194.48,382.95 193.40,382.16 C192.19,381.22 190.66,378.91 190.23,377.42 C189.64,375.22 189.91,368.35 190.25,365.66 C190.66,362.71 192.31,358.31 194.54,356.13 C198.04,352.78 208.55,348.17 213.78,346.98 C216.38,346.40 220.79,345.80 223.21,345.74 C225.93,345.72 231.52,346.97 235.21,349.06 C239.09,351.30 245.71,356.00 246.72,356.93 C248.31,358.45 252.40,364.75 253.14,366.35 C253.86,367.97 254.65,370.73 254.82,372.32 C254.97,373.88 255.03,380.14 255.05,382.11" fill="none" stroke="rgb(228, 0, 126)" stroke-width="2.91" stroke-opacity="1.00" stroke-linejoin="round"/>
<path d="M208.16,350.16 C208.16,350.16 208.16,350.68 208.16,350.68 C208.16,350.68 201.67,355.65 201.67,355.65 C201.67,355.65 212.94,348.94 212.94,348.94 C212.94,348.94 212.34,350.81 212.34,350.81 C213.25,350.37 214.55,349.28 215.07,348.93 C215.31,348.77 215.74,348.56 216.34,348.32" fill="none" stroke="rgb(228, 0, 126)" stroke-width="2.91" stroke-opacity="1.00" stroke-linejoin="round"/>
<path d="M220.01,346.04 C219.32,346.00 218.01,346.75 217.95,348.02 C217.89,349.64 217.98,352.71 218.07,353.37 C218.07,353.37 218.80,353.81 218.80,353.81" fill="none" stroke="rgb(228, 0, 126)" stroke-width="2.91" stroke-opacity="1.00" stroke-linejoin="round"/>
<path d="M222.08,347.59 C222.08,347.59 221.05,347.71 221.05,347.71 C221.05,347.71 221.90,353.83 221.90,353.83 C221.90,353.83 222.83,354.02 222.83,354.02 C223.57,353.48 224.17,352.81 224.72,351.81 C225.01,351.29 225.21,350.85 225.32,350.52 C225.39,350.28 225.51,349.77 225.68,348.98 C225.68,348.98 228.00,352.47 228.00,352.47 C228.00,352.47 230.74,350.47 230.74,350.47 C231.18,350.49 231.61,350.61 232.03,350.84 C232.44,351.06 233.42,351.69 234.96,352.74" fill="none" stroke="rgb(228, 0, 126)" stroke-width="2.91" stroke-opacity="1.00" stroke-linejoin="round"/>
<path d="M200.95,365.62 C200.95,365.62 198.89,366.13 198.89,366.13 C198.89,366.13 204.10,361.71 204.10,361.71 C205.02,361.98 205.76,362.48 206.42,363.47 C206.68,363.86 208.15,366.29 208.68,367.16" fill="none" stroke="rgb(228, 0, 126)" stroke-width="2.91" stroke-opacity="1.00" stroke-linejoin="round"/>
<path d="M224.14,363.56 C224.14,363.56 221.88,365.10 221.88,365.10 C221.88,365.10 221.60,364.93 221.60,364.93 C222.16,363.80 223.47,362.65 225.39,361.73 C226.21,361.36 229.43,361.38 230.38,361.80 C230.85,362.01 231.52,362.60 232.38,363.56" fill="none" stroke="rgb(228, 0, 126)" stroke-width="2.91" stroke-opacity="1.00" stroke-linejoin="round"/>
<path d="M209.20,373.86 C209.02,373.86 208.85,373.86 208.68,373.86 C208.42,373.86 208.16,373.86 207.91,373.86 C207.91,373.86 207.65,374.43 207.65,374.43 C208.46,375.73 209.22,376.61 210.12,377.10 C211.21,377.64 213.44,377.82 214.82,377.27 C219.15,375.48 223.70,369.61 224.26,368.80 C224.48,368.47 224.96,367.76 225.68,366.65" fill="none" stroke="rgb(228, 0, 126)" stroke-width="2.91" stroke-opacity="1.00" stroke-linejoin="round"/>
<path d="M222.08,387.77 C222.08,387.77 220.79,387.77 220.79,387.77 C220.79,387.77 220.10,388.55 220.10,388.55 C219.99,390.06 220.10,392.98 220.48,393.95 C220.63,394.31 220.96,394.65 221.49,394.96" fill="none" stroke="rgb(228, 0, 126)" stroke-width="2.91" stroke-opacity="1.00" stroke-linejoin="round"/>
<path d="M241.14,385.71 C241.14,385.71 239.59,385.78 239.59,385.78 C239.59,389.18 239.59,394.01 239.59,395.43 C239.59,395.80 239.59,396.17 239.59,396.53" fill="none" stroke="rgb(228, 0, 126)" stroke-width="2.91" stroke-opacity="1.00" stroke-linejoin="round"/>
<path d="M296.78,472.27 C296.82,471.47 296.77,470.96 296.52,469.10 C296.26,467.22 294.96,446.84 294.57,444.39 C293.36,437.40 291.54,423.89 289.79,418.45 C288.84,415.55 286.81,411.27 284.80,407.57 C283.08,404.46 280.27,401.61 278.00,400.76 C275.56,399.88 258.54,396.06 253.19,395.83 C246.55,395.57 229.00,397.50 225.96,397.69 C222.89,397.87 204.99,396.99 200.48,397.44 C197.42,397.77 190.84,399.65 188.46,400.59 C186.18,401.51 181.18,404.79 179.39,407.38 C178.24,409.11 175.54,430.42 175.38,432.01 C174.70,438.74 175.50,447.87 176.55,455.08 C177.07,458.78 177.03,461.61 176.27,468.72 C175.67,474.05 175.30,478.25 175.33,481.78 C175.48,487.16 176.06,492.49 177.33,494.53 C178.49,496.30 183.32,497.63 186.34,497.71 C188.10,497.75 206.31,497.55 211.94,497.66 C219.86,497.80 233.74,496.45 239.33,497.11 C241.43,497.36 249.98,498.93 253.05,499.49 C256.53,500.14 272.67,500.13 278.30,500.09 C278.80,500.09 279.29,500.09 279.78,500.09" fill="none" stroke="rgb(228, 0, 126)" stroke-width="2.91" stroke-opacity="1.00" stroke-linejoin="round"/>
<path d="M282.87,479.48 C282.87,479.48 281.64,479.48 281.64,479.48 C280.76,478.27 278.44,474.17 277.06,471.13 C276.15,469.08 272.65,448.11 271.98,445.31 C271.62,443.87 267.57,432.24 266.99,430.19 C266.79,429.45 266.59,428.71 266.39,427.96" fill="none" stroke="rgb(228, 0, 126)" stroke-width="2.91" stroke-opacity="1.00" stroke-linejoin="round"/>
<path d="M288.54,502.15 C288.54,502.15 286.54,501.54 286.54,501.54 C289.18,503.13 294.13,505.10 296.28,505.07 C297.58,505.02 299.38,503.85 300.13,502.62 C300.67,501.67 301.76,498.01 301.79,497.07 C301.80,496.67 301.68,496.13 301.42,495.46" fill="none" stroke="rgb(228, 0, 126)" stroke-width="2.91" stroke-opacity="1.00" stroke-linejoin="round"/>
<path d="M188.59,403.23 C187.35,403.12 184.92,400.42 183.13,400.93 C179.59,402.00 171.97,409.71 170.06,412.99 C169.24,414.42 157.90,435.13 156.69,437.79 C153.02,446.26 150.42,453.90 149.62,459.74 C148.48,468.30 148.15,482.75 149.19,487.73 C149.51,489.14 150.76,491.39 151.70,492.26 C153.33,493.68 157.97,495.48 163.54,497.33 C172.04,500.01 177.63,498.25 178.47,497.41 C178.75,497.10 179.03,496.79 179.31,496.49" fill="none" stroke="rgb(228, 0, 126)" stroke-width="2.91" stroke-opacity="1.00" stroke-linejoin="round"/>
<path d="M156.13,492.36 C155.43,492.19 154.51,491.85 154.50,491.85 C154.34,491.83 153.95,491.85 153.33,491.90 C151.94,493.43 150.90,498.14 150.66,500.73 C150.42,503.54 151.14,509.38 152.17,511.05 C153.26,512.73 157.69,515.39 160.62,516.20 C163.71,517.01 168.61,516.56 171.17,514.84 C173.43,513.25 177.66,507.98 178.03,506.51 C178.25,505.56 177.49,501.43 177.25,500.09" fill="none" stroke="rgb(228, 0, 126)" stroke-width="2.91" stroke-opacity="1.00" stroke-linejoin="round"/>
<path d="M159.22,501.12 C157.81,502.02 156.67,502.72 156.64,503.18 C156.53,505.71 158.53,512.96 158.65,513.16 C158.83,513.48 159.32,514.08 160.11,514.97" fill="none" stroke="rgb(228, 0, 126)" stroke-width="2.91" stroke-opacity="1.00" stroke-linejoin="round"/>
<path d="M164.89,498.55 C163.88,501.25 163.22,504.31 163.47,506.62 C163.74,508.93 164.30,511.35 164.52,512.08 C164.52,512.08 165.92,511.43 165.92,511.43" fill="none" stroke="rgb(228, 0, 126)" stroke-width="2.91" stroke-opacity="1.00" stroke-linejoin="round"/>
<path d="M169.01,502.15 C169.01,502.07 168.97,504.99 169.01,505.67 C169.15,508.46 169.93,510.19 170.49,510.74 C170.49,510.74 171.28,510.91 171.28,510.91" fill="none" stroke="rgb(228, 0, 126)" stroke-width="2.91" stroke-opacity="1.00" stroke-linejoin="round"/>
<path d="M173.13,504.73 C173.13,504.99 173.13,505.25 173.13,505.50 C173.13,506.23 173.13,506.95 173.13,507.67" fill="none" stroke="rgb(228, 0, 126)" stroke-width="2.91" stroke-opacity="1.00" stroke-linejoin="round"/>
<path d="M181.37,498.55 C181.45,498.71 180.93,500.57 180.86,501.35 C180.69,503.33 187.04,521.42 187.91,525.12 C188.37,527.14 190.40,537.68 191.20,540.68 C192.14,544.19 198.05,559.03 200.44,566.23 C202.71,573.43 206.85,586.33 209.26,592.35 C210.95,596.52 213.99,601.35 215.97,602.62 C219.30,604.65 232.25,607.25 234.26,606.89 C235.62,606.60 237.62,605.20 238.15,604.01 C241.41,596.26 244.00,526.68 245.45,514.03 C245.82,510.91 246.19,505.99 246.29,504.22" fill="none" stroke="rgb(228, 0, 126)" stroke-width="2.91" stroke-opacity="1.00" stroke-linejoin="round"/>
<path d="M279.27,499.06 C279.27,499.06 277.98,499.32 277.98,499.32 C277.76,500.43 277.68,501.22 277.69,502.58 C277.82,519.52 275.65,540.81 275.67,556.67 C275.69,565.67 275.65,587.08 275.40,590.78 C275.15,594.35 274.04,598.53 272.56,599.92 C270.32,601.91 254.81,605.64 250.19,605.72 C245.68,605.71 245.05,605.63 244.78,605.31 C243.69,603.12 243.99,589.61 244.20,583.31 C244.21,580.91 244.22,576.91 244.23,575.32" fill="none" stroke="rgb(228, 0, 126)" stroke-width="2.91" stroke-opacity="1.00" stroke-linejoin="round"/>
<path d="M249.38,606.23 C249.38,606.23 247.49,606.23 247.49,606.23 C247.37,606.15 247.18,614.17 247.39,615.47 C247.61,616.67 248.91,618.03 250.08,618.31 C251.27,618.56 259.64,618.82 264.66,619.37 C266.06,619.52 270.64,619.98 271.80,619.23 C272.53,617.57 271.58,614.16 269.69,611.10 C267.53,607.66 265.04,604.13 262.81,602.06 C262.26,601.56 259.46,599.13 258.14,597.99" fill="none" stroke="rgb(228, 0, 126)" stroke-width="2.91" stroke-opacity="1.00" stroke-linejoin="round"/>
<path d="M218.98,601.08 C218.98,601.08 218.73,601.08 218.73,601.08 C218.34,601.52 217.83,601.70 217.70,601.83 C216.84,602.73 213.11,612.14 212.38,613.93 C215.72,615.55 221.25,616.24 224.30,616.63 C225.96,616.85 231.93,617.52 233.60,616.73 C235.21,615.91 236.22,613.21 235.73,610.65 C235.16,607.87 233.97,604.60 233.41,603.14" fill="none" stroke="rgb(228, 0, 126)" stroke-width="2.91" stroke-opacity="1.00" stroke-linejoin="round"/>
<path d="M118.32,276.00 C118.32,276.00 118.19,278.03 118.19,278.03 C118.19,278.03 117.71,278.28 117.71,278.28 C117.66,274.69 111.65,232.26 109.26,215.24 C108.60,210.15 107.59,195.44 107.21,188.73 C106.45,164.34 108.98,121.47 109.20,119.45 C109.35,118.07 110.56,111.00 111.05,108.21" fill="none" stroke="rgb(0, 160, 232)" stroke-width="2.91" stroke-opacity="1.00" stroke-linejoin="round"/>
<path d="M77.69,149.26 C77.69,149.26 77.39,149.26 77.39,149.26 C76.91,149.31 76.44,146.41 76.48,141.39 C76.47,130.67 75.93,121.44 74.46,115.42 C71.89,105.00 68.50,83.06 68.18,80.60" fill="none" stroke="rgb(0, 160, 232)" stroke-width="2.91" stroke-opacity="1.00" stroke-linejoin="round"/>
<path d="M69.20,146.23 C69.20,146.23 66.78,146.23 66.78,146.23 C66.06,145.86 66.26,139.81 66.35,136.90 C66.47,133.72 69.17,89.32 69.89,80.05 C70.63,73.11 72.17,62.73 72.38,61.74 C72.77,59.96 73.42,57.63 73.79,56.54" fill="none" stroke="rgb(0, 160, 232)" stroke-width="2.91" stroke-opacity="1.00" stroke-linejoin="round"/>
<path d="M50.40,280.85 C50.40,280.85 46.97,283.13 46.97,283.13 C46.02,280.89 46.17,274.06 46.24,270.32 C46.52,255.19 47.43,219.63 48.27,208.69 C48.69,204.62 49.75,195.35 49.99,193.86 C50.52,190.58 51.87,185.35 53.49,183.37 C53.49,183.37 55.42,184.42 55.42,184.42" fill="none" stroke="rgb(0, 160, 232)" stroke-width="2.91" stroke-opacity="1.00" stroke-linejoin="round"/>
<path d="M20.08,238.40 C18.46,236.20 21.31,228.25 25.15,218.69 C28.78,209.77 32.64,201.36 37.43,192.08 C41.26,185.07 50.16,170.04 50.50,169.53 C50.76,169.15 51.31,168.38 52.15,167.20" fill="none" stroke="rgb(0, 160, 232)" stroke-width="2.91" stroke-opacity="1.00" stroke-linejoin="round"/>
<path d="M172.29,228.10 C172.04,220.63 171.39,199.80 171.33,198.83 C171.09,195.02 169.43,176.66 168.83,168.89 C168.41,161.37 168.15,146.87 168.29,139.66 C169.68,102.51 174.58,81.26 176.34,75.09" fill="none" stroke="rgb(0, 160, 232)" stroke-width="2.91" stroke-opacity="1.00" stroke-linejoin="round"/>
<path d="M205.64,115.30 C204.91,115.22 203.53,116.36 202.11,118.40 C200.91,120.13 193.96,140.56 192.68,145.22 C191.56,149.31 188.03,164.65 187.02,172.42 C186.12,180.21 183.71,201.70 183.61,202.90 C183.45,204.80 183.26,207.95 183.21,209.39" fill="none" stroke="rgb(0, 160, 232)" stroke-width="2.91" stroke-opacity="1.00" stroke-linejoin="round"/>
<path d="M229.29,80.13 C228.56,80.38 226.55,83.36 225.70,86.20 C221.09,101.56 214.46,128.82 211.03,146.42 C209.93,152.64 208.95,162.45 208.68,165.30" fill="none" stroke="rgb(0, 160, 232)" stroke-width="2.91" stroke-opacity="1.00" stroke-linejoin="round"/>
<path d="M219.59,162.60 C219.59,162.60 219.29,162.60 219.29,162.60 C217.68,163.49 214.09,179.69 213.80,186.59 C213.46,195.06 214.16,209.91 214.78,214.31 C215.05,216.20 217.09,224.90 217.44,226.01 C218.29,228.66 221.28,233.44 224.30,235.84" fill="none" stroke="rgb(0, 160, 232)" stroke-width="2.91" stroke-opacity="1.00" stroke-linejoin="round"/>
<path d="M285.08,83.16 C284.01,82.92 282.36,85.11 281.65,88.93 C280.83,93.49 278.91,112.81 278.46,120.28 C278.15,128.01 278.00,142.53 278.16,149.34 C278.91,167.72 281.69,184.60 283.62,189.60 C285.26,193.67 288.25,195.93 290.87,197.51" fill="none" stroke="rgb(0, 160, 232)" stroke-width="2.91" stroke-opacity="1.00" stroke-linejoin="round"/>
<path d="M336.63,112.88 C336.63,112.88 335.72,112.88 335.72,112.88 C335.24,113.76 332.04,135.88 331.01,140.69 C329.66,146.95 325.37,162.14 323.24,169.07 C318.68,182.92 310.95,202.58 308.66,207.15 C307.61,209.20 304.97,211.97 303.69,213.26" fill="none" stroke="rgb(0, 160, 232)" stroke-width="2.91" stroke-opacity="1.00" stroke-linejoin="round"/>
<path d="M381.50,64.97 C380.81,65.39 379.78,66.31 379.68,67.09 C379.61,67.73 380.20,71.42 380.35,72.10 C380.98,74.86 382.65,80.41 383.46,83.07" fill="none" stroke="rgb(0, 160, 232)" stroke-width="2.91" stroke-opacity="1.00" stroke-linejoin="round"/>
<path d="M382.11,125.61 C382.11,125.61 382.11,122.19 382.11,122.19 C381.79,126.22 379.57,144.70 378.80,152.47 C377.58,167.14 376.89,191.97 377.04,195.93 C377.15,198.72 377.83,206.21 378.47,209.90" fill="none" stroke="rgb(0, 160, 232)" stroke-width="2.91" stroke-opacity="1.00" stroke-linejoin="round"/>
<path d="M410.61,162.60 C410.61,162.60 408.38,162.00 408.38,162.00 C407.39,162.16 406.40,166.11 405.56,172.03 C404.47,180.96 403.73,189.42 403.24,200.95 C402.96,211.04 403.88,223.81 404.67,227.56 C405.67,232.16 407.57,237.13 409.24,239.53 C411.06,242.06 413.63,244.15 414.85,245.08" fill="none" stroke="rgb(0, 160, 232)" stroke-width="2.91" stroke-opacity="1.00" stroke-linejoin="round"/>
<path d="M440.93,112.88 C440.93,112.88 440.93,109.54 440.93,109.54 C440.93,109.54 440.93,109.54 440.93,109.54 C442.06,116.42 444.33,130.50 445.47,137.72 C446.72,146.13 448.65,162.31 449.32,170.11 C450.43,186.49 450.02,207.22 449.26,213.85 C449.01,216.09 448.58,219.81 448.41,221.31" fill="none" stroke="rgb(0, 160, 232)" stroke-width="2.91" stroke-opacity="1.00" stroke-linejoin="round"/>
<path d="M489.44,169.27 C488.43,170.12 487.87,170.66 487.75,171.23 C487.68,171.61 486.92,181.08 486.47,184.29 C485.56,190.53 482.02,202.80 479.11,208.82 C476.91,213.33 467.85,228.00 464.70,232.20 C461.75,236.10 455.24,242.88 454.38,243.78" fill="none" stroke="rgb(0, 160, 232)" stroke-width="2.91" stroke-opacity="1.00" stroke-linejoin="round"/>
<path d="M501.57,180.19 C501.08,181.26 500.77,181.98 500.66,182.36 C500.53,182.81 496.91,207.35 495.97,211.92 C494.64,218.29 490.16,232.37 486.68,239.36 C485.00,242.73 481.37,248.96 479.77,251.30 C478.10,253.71 473.69,258.93 470.64,262.05" fill="none" stroke="rgb(0, 160, 232)" stroke-width="2.91" stroke-opacity="1.00" stroke-linejoin="round"/>
<path d="M507.63,266.30 C506.44,261.82 499.29,244.20 498.49,242.09 C496.24,236.01 492.02,222.40 490.95,216.93 C489.58,209.87 487.93,196.35 487.28,187.02 C486.98,182.14 486.83,162.81 487.08,157.05 C487.96,142.92 490.59,122.28 491.17,117.93" fill="none" stroke="rgb(0, 160, 232)" stroke-width="2.91" stroke-opacity="1.00" stroke-linejoin="round"/>
<path d="M91.03,312.99 C91.03,312.99 90.73,312.08 90.73,312.08 C90.13,312.69 91.32,326.75 92.37,336.49 C93.17,343.45 94.96,359.08 95.95,367.76 C98.04,389.05 99.08,406.18 99.31,410.13" fill="none" stroke="rgb(0, 160, 232)" stroke-width="2.91" stroke-opacity="1.00" stroke-linejoin="round"/>
<path d="M78.30,332.40 C78.30,332.40 78.30,332.16 78.30,332.16 C78.15,332.05 76.99,333.58 63.15,392.95 C60.25,406.88 56.91,435.39 56.22,447.42 C55.80,456.35 56.35,524.23 56.45,538.26 C56.33,549.16 55.87,554.55 55.60,557.23" fill="none" stroke="rgb(0, 160, 232)" stroke-width="2.91" stroke-opacity="1.00" stroke-linejoin="round"/>
<path d="M79.51,380.30 C79.30,380.98 76.93,394.96 74.63,404.74 C69.17,425.62 61.10,458.57 60.50,461.37 C59.13,468.34 50.22,508.04 46.99,520.65 C42.80,537.76 35.95,560.68 31.89,573.83 C27.38,589.38 21.82,612.54 19.40,627.63 C17.10,643.90 15.58,659.20 15.09,668.42 C14.83,677.03 16.20,689.83 16.44,692.60" fill="none" stroke="rgb(0, 160, 232)" stroke-width="2.91" stroke-opacity="1.00" stroke-linejoin="round"/>
<path d="M97.70,619.23 C97.70,619.23 95.28,620.44 95.28,620.44 C91.98,620.18 59.97,632.02 59.65,632.18 C59.25,632.39 58.94,632.72 58.72,633.17 C59.05,634.45 61.26,641.27 62.32,642.57 C63.44,643.90 73.80,651.53 74.55,652.59 C75.87,654.50 76.24,656.06 75.86,657.63 C74.52,658.84 58.55,664.58 51.19,668.17 C44.03,671.65 35.34,675.01 33.67,676.40 C32.79,677.17 31.98,679.47 31.95,680.91 C31.97,682.70 32.99,685.37 34.18,686.91 C35.13,688.07 39.84,690.75 42.58,691.56 C46.43,692.69 61.23,694.28 66.14,694.37 C72.95,694.42 87.07,694.59 92.54,695.26 C98.78,696.35 111.25,698.27 117.71,698.14 C120.76,698.07 130.21,697.20 132.57,696.60 C133.93,696.21 135.25,695.03 135.50,693.94 C135.89,691.97 134.34,685.37 133.59,683.60 C132.19,680.37 128.81,676.07 129.00,674.85 C132.04,673.18 145.52,671.75 158.09,670.89 C169.48,670.05 180.77,668.13 185.84,667.07 C187.87,666.68 189.13,666.05 191.32,664.49 C190.01,662.44 185.16,658.84 181.98,657.33 C176.59,654.85 158.89,651.88 157.25,651.21 C155.27,650.35 153.90,648.93 153.99,647.66 C154.12,646.35 156.21,640.48 155.81,639.44 C155.18,637.95 151.22,635.98 146.43,634.22 C143.47,633.19 137.87,631.80 134.51,631.58 C132.25,631.44 122.22,631.64 122.08,631.63 C119.89,631.50 116.76,630.80 115.47,630.04 C114.30,629.33 106.09,621.51 104.51,620.28 C104.06,619.93 103.61,619.58 103.16,619.23" fill="none" stroke="rgb(28, 31, 136)" stroke-width="2.91" stroke-opacity="1.00" stroke-linejoin="round"/>
<path d="M451.84,608.92 C451.84,608.92 451.46,606.85 451.46,606.85 C449.95,606.54 448.27,606.39 447.31,606.67 C446.33,606.97 443.87,608.45 442.92,609.30 C441.61,610.53 440.67,612.26 440.29,614.12 C440.06,615.45 440.06,618.45 440.42,619.58 C440.92,621.05 442.56,623.53 443.64,624.51 C446.00,626.57 452.36,629.81 455.53,630.98 C466.24,634.78 486.47,637.34 490.15,638.17 C492.83,638.80 497.90,640.62 500.10,642.69 C501.00,643.57 502.02,646.01 502.09,647.23 C502.14,649.62 500.72,652.21 500.31,652.57 C498.59,652.60 491.22,652.12 487.71,652.61 C479.58,653.78 463.90,656.17 456.35,657.38 C449.40,658.63 433.59,663.86 431.73,664.55 C425.65,666.81 421.39,669.95 421.00,671.30 C420.75,672.60 425.74,676.03 428.36,676.90 C431.17,677.80 441.63,680.59 443.05,681.02 C446.50,682.07 450.32,684.00 451.04,685.12 C451.35,685.65 451.53,687.25 451.20,687.89 C449.82,690.37 444.95,693.18 441.52,694.41 C438.73,695.37 419.85,698.13 411.95,699.01 C404.67,699.67 391.18,700.47 384.25,700.67 C373.17,700.81 348.17,699.12 340.57,698.69 C335.35,698.30 329.80,697.22 328.44,695.86 C328.20,695.61 327.61,694.92 326.67,693.79 C326.64,691.93 327.41,690.13 329.25,688.13 C331.01,686.23 335.61,683.04 339.35,681.19 C342.55,679.64 384.58,666.58 394.83,663.01 C403.08,660.00 413.44,654.99 415.45,653.24 C417.29,651.62 418.22,650.16 418.53,648.60 C417.84,647.13 416.74,645.69 415.05,644.38 C411.30,641.52 394.54,634.07 392.31,632.01 C391.00,630.75 389.89,628.62 390.19,627.52 C390.54,626.40 392.00,624.90 393.32,624.14 C397.81,621.70 414.41,617.18 417.31,616.59 C418.47,616.36 430.13,615.11 431.23,614.98" fill="none" stroke="rgb(28, 31, 136)" stroke-width="2.91" stroke-opacity="1.00" stroke-linejoin="round"/>
<path d="M493.08,645.30 C493.08,645.30 492.87,644.11 492.87,644.11 C492.00,645.34 491.69,646.58 492.25,647.67 C492.78,648.70 498.35,653.55 500.38,655.86 C503.30,659.30 505.82,662.79 505.49,664.24 C504.92,666.29 493.04,671.39 485.99,673.23 C479.77,674.76 467.48,677.96 461.72,680.06 C459.50,680.87 444.73,686.32 442.67,687.39 C441.36,688.07 440.76,688.82 440.36,689.96 C440.70,691.16 441.41,692.08 442.93,692.87 C447.59,695.27 459.70,697.04 470.91,698.23 C482.32,699.44 485.61,700.17 487.56,700.69 C488.00,700.81 488.42,700.94 488.84,701.09" fill="none" stroke="rgb(28, 31, 136)" stroke-width="2.91" stroke-opacity="1.00" stroke-linejoin="round"/>
<path d="M12.81,627.72 C12.81,627.72 10.99,627.65 10.99,627.65 C11.71,626.23 12.23,625.78 13.46,625.90 C21.51,626.65 29.71,626.04 43.04,624.63 C49.48,624.02 60.30,623.02 68.79,622.93 C95.64,622.87 114.94,621.67 128.46,621.64 C133.44,621.66 170.33,620.79 190.73,621.03 C201.98,621.02 232.24,621.72 247.39,621.63 C253.65,621.48 270.26,621.03 275.24,621.44 C278.67,621.73 292.59,623.53 301.62,623.88 C314.33,624.17 361.64,622.88 362.06,622.88 C393.26,622.84 453.83,622.48 483.20,622.15 C496.69,622.39 520.32,623.20 520.47,623.21 C520.82,623.24 521.39,623.33 522.16,623.47" fill="none" stroke="rgb(0, 255, 0)" stroke-width="2.91" stroke-opacity="1.00" stroke-linejoin="round"/>
<path d="M8.56,639.24 C8.56,639.24 7.95,638.63 7.95,638.63 C9.30,637.92 14.53,638.02 18.05,638.10 C32.25,638.36 43.17,637.43 46.60,637.12 C55.04,636.43 73.82,635.08 81.02,635.12 C89.52,635.25 98.74,636.12 103.73,636.31 C110.38,636.54 148.69,634.66 164.51,633.98 C180.36,633.55 211.47,632.86 226.72,632.59 C257.93,632.89 338.42,633.16 348.95,633.42 C365.67,633.95 398.47,635.06 414.56,635.63 C421.85,635.96 467.61,636.34 473.16,636.67 C491.86,638.07 514.29,638.54 528.14,638.63 C528.14,638.63 527.65,639.24 527.65,639.24" fill="none" stroke="rgb(0, 255, 0)" stroke-width="2.91" stroke-opacity="1.00" stroke-linejoin="round"/>
<path d="M530.68,645.91 C529.10,645.91 528.09,645.91 527.63,645.91 C523.12,646.00 484.91,644.94 470.62,644.67 C459.99,644.58 451.76,644.12 443.43,642.93 C436.23,641.75 422.24,639.39 413.54,638.47 C397.39,636.98 372.57,635.37 365.69,635.16 C360.32,635.03 347.76,635.40 344.12,635.49" fill="none" stroke="rgb(0, 255, 0)" stroke-width="2.91" stroke-opacity="1.00" stroke-linejoin="round"/>
</g>
</svg>
