<?xml version="1.0" encoding="UTF-8" standalone="no"?>
<!DOCTYPE svg PUBLIC "-//W3C//DTD SVG 1.1//EN" "http://www.w3.org/Graphics/SVG/1.1/DTD/svg11.dtd">
<svg width="128.40" height="181.68" viewBox="0.00 0.00 535.00 757.00" xmlns="http://www.w3.org/2000/svg" xmlns:xlink="http://www.w3.org/1999/xlink">
<g stroke-linecap="round" id="116">
<path d="M58.32,129.56 C58.24,127.77 60.10,124.48 62.35,122.00 C64.45,119.81 67.56,117.34 70.60,115.51 C73.76,113.64 78.33,111.65 81.37,110.84 C83.28,110.34 93.43,108.93 94.25,108.99 C95.29,109.08 96.07,109.42 96.58,110.01 C97.07,110.61 97.74,112.57 98.37,113.04 C100.02,113.47 103.33,112.42 106.57,111.16 C112.78,108.61 123.44,104.99 132.93,103.13 C141.15,101.67 156.71,99.51 162.78,99.45 C165.82,99.43 169.11,99.70 171.85,100.23 C174.83,100.83 181.18,103.97 182.90,104.86 C186.50,106.75 190.20,108.49 190.65,108.66 C191.01,108.59 203.13,105.05 206.91,104.60 C214.00,103.78 221.82,103.83 231.35,104.25 C234.96,104.48 241.11,105.79 244.20,107.14 C245.57,107.75 248.80,109.67 249.95,110.30 C251.46,111.10 256.06,109.61 258.69,108.70 C261.12,107.96 266.98,106.66 270.03,106.40 C273.31,106.14 279.13,106.52 281.50,107.02 C286.11,108.04 297.59,113.20 303.94,116.09 C304.68,116.41 318.26,121.28 318.60,122.00 C320.13,125.50 320.85,126.54 323.32,128.21 C326.32,130.25 328.09,131.88 328.83,133.95 C329.54,136.05 330.18,141.34 329.12,142.78 C327.90,144.32 321.85,146.22 318.66,146.54 C306.48,147.68 294.40,149.42 291.57,149.35 C285.49,149.14 272.13,146.18 267.43,144.18 C265.16,143.23 263.22,143.39 258.02,144.45 C250.99,145.94 237.79,148.65 228.46,149.80 C221.14,150.52 204.29,152.02 200.70,151.99 C194.85,151.91 184.50,150.15 179.79,148.39 C175.04,146.65 171.12,145.81 167.50,146.95 C166.85,147.16 148.20,154.29 142.64,155.29 C139.72,155.80 135.52,155.97 133.49,155.68 C131.63,155.39 127.12,153.92 125.87,153.35 C124.09,152.51 115.68,147.06 114.24,146.51 C112.92,146.04 110.34,146.03 108.87,146.52 C106.92,147.22 90.31,155.87 83.50,158.17 C74.15,161.23 64.77,163.38 60.77,163.66 C49.31,164.40 38.06,160.10 37.41,159.54 C37.41,159.54 37.87,159.57 37.87,159.57" fill="none" stroke="rgb(0, 255, 255)" stroke-width="2.60" stroke-opacity="1.00" stroke-linejoin="round"/>
<path d="M236.73,90.59 C236.73,90.59 233.47,89.87 233.47,89.87 C232.81,90.12 231.82,90.79 230.83,91.76 C228.44,94.13 225.29,98.15 224.85,100.09 C224.74,100.71 224.79,102.53 225.16,103.14 C226.44,105.17 230.38,109.23 232.44,110.63 C235.79,112.85 246.01,116.27 256.40,120.33 C269.86,125.73 276.03,129.09 280.73,131.78 C283.62,133.06 288.68,133.98 290.69,133.96 C296.82,133.81 304.53,130.09 305.24,130.02 C305.88,129.98 313.51,131.49 316.25,131.40 C319.14,131.28 322.28,130.89 326.53,129.96 C330.45,129.16 338.15,128.68 338.68,128.60 C340.74,128.30 371.92,120.76 372.41,120.73 C373.47,120.69 379.46,121.11 381.94,120.83 C384.74,120.50 389.51,118.97 391.04,117.95 C392.44,117.01 394.99,114.73 395.68,114.24 C397.21,113.20 402.69,113.16 406.36,113.70 C407.85,113.92 412.17,114.88 412.19,114.88 C414.62,115.29 418.20,114.13 421.43,112.52 C428.96,108.71 437.54,103.82 443.14,100.60 C445.62,99.16 451.10,95.60 451.34,94.35 C451.43,93.75 451.27,92.44 451.14,91.90 C451.14,91.90 447.68,91.30 447.68,91.30" fill="none" stroke="rgb(0, 255, 255)" stroke-width="2.60" stroke-opacity="1.00" stroke-linejoin="round"/>
<path d="M523.11,110.39 C522.33,110.41 521.58,110.36 521.27,110.24 C518.53,109.26 505.30,110.81 501.95,111.04 C497.53,111.32 492.65,111.14 488.56,110.44 C486.11,110.14 478.68,111.48 477.48,111.34 C476.52,111.22 471.53,108.68 469.18,108.20 C466.72,107.73 461.07,107.47 458.82,107.69 C452.08,108.36 435.35,113.95 434.59,113.73 C430.41,112.07 411.76,107.47 407.64,106.65 C401.29,105.41 390.75,105.80 382.17,107.10 C374.93,108.23 358.83,110.76 355.28,111.03 C347.93,111.56 340.57,113.10 336.91,115.03 C334.81,116.18 329.92,119.90 328.30,122.47 C326.72,125.05 326.03,130.74 326.82,133.05 C327.24,134.15 328.69,136.40 329.68,137.46 C331.57,139.44 337.00,142.07 339.92,142.68 C340.48,142.80 350.84,144.48 355.27,145.19 C361.42,146.14 364.59,146.38 367.78,146.09 C373.61,145.51 387.42,141.93 388.48,141.67 C391.59,140.94 394.81,141.27 397.17,142.32 C399.81,143.57 405.91,146.31 408.35,146.90 C411.25,147.56 416.08,148.08 419.28,147.94 C425.33,147.59 438.60,144.42 446.13,142.61 C449.53,141.78 454.29,141.47 457.25,142.32 C465.84,144.88 471.76,146.00 476.86,145.86 C481.55,145.70 498.99,142.04 499.71,141.92 C503.73,141.25 508.96,142.51 511.59,143.20 C512.95,143.49 514.87,143.80 515.76,143.78 C516.89,143.75 523.76,142.62 525.30,142.36" fill="none" stroke="rgb(0, 255, 255)" stroke-width="2.60" stroke-opacity="1.00" stroke-linejoin="round"/>
<path d="M220.53,165.05 C219.56,165.77 217.74,167.66 217.13,168.86 C216.00,171.16 217.07,173.23 217.95,174.14 C218.22,174.42 218.69,174.91 219.36,175.64" fill="none" stroke="rgb(0, 255, 0)" stroke-width="2.60" stroke-opacity="1.00" stroke-linejoin="round"/>
<path d="M215.61,195.57 C215.61,195.57 215.61,193.23 215.61,193.23 C216.04,198.55 213.93,212.01 211.38,220.76 C210.24,224.59 208.93,228.02 206.71,232.31 C205.50,234.65 204.61,236.06 203.40,237.67" fill="none" stroke="rgb(0, 255, 0)" stroke-width="2.60" stroke-opacity="1.00" stroke-linejoin="round"/>
<path d="M238.74,162.59 C238.74,162.59 238.00,162.84 238.00,162.84 C237.82,163.37 237.90,163.86 238.49,165.32 C238.73,165.91 239.90,168.95 240.33,170.07" fill="none" stroke="rgb(0, 255, 0)" stroke-width="2.60" stroke-opacity="1.00" stroke-linejoin="round"/>
<path d="M241.69,195.08 C241.69,195.08 241.69,194.34 241.69,194.34 C241.29,196.11 241.08,197.16 240.74,199.21 C240.15,202.81 238.95,210.36 238.54,213.90 C238.34,215.68 237.54,225.22 237.27,228.81 C237.14,230.49 236.94,233.27 236.86,234.37" fill="none" stroke="rgb(0, 255, 0)" stroke-width="2.60" stroke-opacity="1.00" stroke-linejoin="round"/>
<path d="M238.74,272.35 C238.74,272.35 238.74,271.86 238.74,271.86 C238.71,274.60 239.46,289.54 239.60,297.40 C239.58,304.80 239.02,318.22 238.64,325.35 C237.72,340.95 236.67,359.01 236.28,362.92" fill="none" stroke="rgb(0, 255, 0)" stroke-width="2.60" stroke-opacity="1.00" stroke-linejoin="round"/>
<path d="M237.26,359.47 C236.42,360.13 236.12,361.40 236.33,363.97 C236.78,369.57 236.62,405.16 236.43,408.52 C236.18,411.87 235.61,422.05 235.55,422.96" fill="none" stroke="rgb(0, 255, 0)" stroke-width="2.60" stroke-opacity="1.00" stroke-linejoin="round"/>
<path d="M212.16,271.37 C211.65,275.13 210.69,292.03 210.03,299.69 C209.56,305.29 208.98,326.69 208.88,328.14 C208.72,330.38 205.90,349.66 205.39,354.53 C203.96,369.30 203.40,400.30 202.74,415.20 C202.43,422.23 200.42,431.09 200.15,432.29" fill="none" stroke="rgb(0, 255, 0)" stroke-width="2.60" stroke-opacity="1.00" stroke-linejoin="round"/>
<path d="M193.46,473.67 C192.21,475.73 191.25,478.92 191.12,482.23 C190.97,486.35 190.88,524.95 190.78,527.83 C190.75,528.71 190.59,531.47 190.54,532.31" fill="none" stroke="rgb(0, 255, 0)" stroke-width="2.60" stroke-opacity="1.00" stroke-linejoin="round"/>
<path d="M238.25,458.41 C237.36,461.37 237.27,474.86 237.26,482.86 C237.18,490.37 236.97,506.55 236.85,515.22 C236.78,518.46 236.66,525.01 236.32,528.33 C236.17,529.79 235.85,531.75 235.49,533.65" fill="none" stroke="rgb(0, 255, 0)" stroke-width="2.60" stroke-opacity="1.00" stroke-linejoin="round"/>
<path d="M190.01,568.17 C188.98,569.58 188.53,570.63 188.54,572.25 C188.55,575.37 189.67,595.42 190.12,603.43 C190.46,609.17 190.66,610.44 191.13,612.83" fill="none" stroke="rgb(0, 255, 0)" stroke-width="2.60" stroke-opacity="1.00" stroke-linejoin="round"/>
<path d="M240.71,539.13 C240.71,539.13 238.99,539.99 238.99,539.99 C238.52,541.75 240.67,556.11 241.54,562.73 C243.20,577.65 243.13,597.68 243.17,599.14 C243.22,601.06 243.38,603.54 243.51,604.87" fill="none" stroke="rgb(0, 255, 0)" stroke-width="2.60" stroke-opacity="1.00" stroke-linejoin="round"/>
<path d="M249.08,618.37 C248.40,617.69 247.99,617.28 247.85,617.14 C247.70,617.01 247.62,616.94 247.60,616.96 C247.74,619.83 249.87,636.10 250.38,643.36 C250.80,648.81 251.18,649.80 251.87,650.08 C251.87,650.08 252.52,649.88 252.52,649.88" fill="none" stroke="rgb(0, 255, 0)" stroke-width="2.60" stroke-opacity="1.00" stroke-linejoin="round"/>
<path d="M191.49,635.60 C191.08,636.02 190.83,636.43 190.75,636.83 C190.49,638.15 192.20,661.66 191.98,662.88 C191.90,663.29 191.63,664.07 191.15,665.22" fill="none" stroke="rgb(0, 255, 0)" stroke-width="2.60" stroke-opacity="1.00" stroke-linejoin="round"/>
<path d="M183.61,184.74 C183.61,184.74 183.12,184.74 183.12,184.74 C184.48,184.06 182.06,202.15 180.06,209.07 C179.26,211.79 177.29,217.39 176.48,218.80 C174.22,222.76 173.09,225.67 172.27,230.22 C171.88,232.47 171.24,238.14 171.06,239.81" fill="none" stroke="rgb(0, 255, 0)" stroke-width="2.60" stroke-opacity="1.00" stroke-linejoin="round"/>
<path d="M180.66,160.13 C180.67,161.12 180.68,163.85 180.74,164.36 C180.83,165.10 181.05,165.83 181.17,166.57 C181.26,167.12 181.42,168.36 181.64,170.26" fill="none" stroke="rgb(0, 255, 0)" stroke-width="2.60" stroke-opacity="1.00" stroke-linejoin="round"/>
<path d="M171.80,263.49 C171.80,263.49 170.57,264.37 170.57,264.37 C170.25,266.08 170.84,271.60 171.20,275.04 C172.19,285.83 169.55,310.35 168.49,315.27 C167.62,319.26 163.36,333.03 162.94,334.36" fill="none" stroke="rgb(0, 255, 0)" stroke-width="2.60" stroke-opacity="1.00" stroke-linejoin="round"/>
<path d="M158.02,382.61 C158.08,386.27 158.03,390.05 157.71,394.32 C156.38,408.10 152.89,445.08 151.90,451.49 C150.84,458.04 148.89,471.25 147.98,477.92 C147.72,480.03 147.28,483.49 147.11,484.85" fill="none" stroke="rgb(0, 255, 0)" stroke-width="2.60" stroke-opacity="1.00" stroke-linejoin="round"/>
<path d="M145.22,507.14 C144.19,509.83 143.77,511.42 143.76,513.40 C143.75,516.97 143.74,523.78 143.75,527.03 C143.79,534.56 143.88,546.67 143.92,551.26" fill="none" stroke="rgb(0, 255, 0)" stroke-width="2.60" stroke-opacity="1.00" stroke-linejoin="round"/>
<path d="M141.28,605.58 C141.25,609.55 141.81,614.02 142.52,617.19 C143.45,621.30 144.53,627.64 144.97,630.95 C145.30,633.60 145.85,638.67 146.08,641.08" fill="none" stroke="rgb(0, 255, 0)" stroke-width="2.60" stroke-opacity="1.00" stroke-linejoin="round"/>
<path d="M124.55,611.98 C124.51,615.74 124.58,618.75 124.86,624.76 C125.01,628.57 124.89,630.57 124.69,632.78" fill="none" stroke="rgb(0, 255, 0)" stroke-width="2.60" stroke-opacity="1.00" stroke-linejoin="round"/>
<path d="M125.53,551.43 C125.53,554.39 125.53,561.32 125.53,565.30 C125.53,568.39 125.53,572.49 125.53,573.50" fill="none" stroke="rgb(0, 255, 0)" stroke-width="2.60" stroke-opacity="1.00" stroke-linejoin="round"/>
<path d="M126.02,646.92 C126.02,646.92 125.29,646.92 125.29,646.92 C124.93,647.19 126.04,654.65 126.28,657.27 C126.35,658.00 126.47,660.71 126.52,661.69" fill="none" stroke="rgb(0, 255, 0)" stroke-width="2.60" stroke-opacity="1.00" stroke-linejoin="round"/>
<path d="M100.92,637.57 C100.36,641.73 100.47,655.51 100.43,656.48 C100.36,658.19 100.17,660.06 100.01,660.88" fill="none" stroke="rgb(0, 255, 0)" stroke-width="2.60" stroke-opacity="1.00" stroke-linejoin="round"/>
<path d="M101.41,530.76 C99.98,532.16 99.40,533.34 99.42,535.29 C99.49,542.06 101.39,596.70 101.25,597.91 C101.18,598.49 100.98,599.43 100.65,600.73" fill="none" stroke="rgb(0, 255, 0)" stroke-width="2.60" stroke-opacity="1.00" stroke-linejoin="round"/>
<path d="M127.01,490.40 C127.01,490.40 128.08,488.68 128.08,488.68 C128.08,488.68 128.38,488.86 128.38,488.86 C129.34,493.59 129.27,510.68 129.00,515.69 C128.78,519.16 128.53,523.26 128.49,523.87" fill="none" stroke="rgb(0, 255, 0)" stroke-width="2.60" stroke-opacity="1.00" stroke-linejoin="round"/>
<path d="M105.84,434.29 C105.34,437.93 105.33,454.34 105.35,463.08 C105.34,471.68 105.35,485.51 105.37,486.51 C105.43,489.19 105.57,492.33 105.68,493.89" fill="none" stroke="rgb(0, 255, 0)" stroke-width="2.60" stroke-opacity="1.00" stroke-linejoin="round"/>
<path d="M138.82,424.94 C138.28,426.90 138.34,430.74 138.04,434.41 C137.64,438.67 136.74,447.59 136.07,451.36 C135.89,452.34 135.10,456.07 134.86,457.19" fill="none" stroke="rgb(0, 255, 0)" stroke-width="2.60" stroke-opacity="1.00" stroke-linejoin="round"/>
<path d="M115.20,331.91 C115.21,334.55 115.12,336.42 114.69,341.78 C114.02,349.98 112.60,366.80 111.85,375.41 C110.66,387.89 109.54,394.59 109.15,396.80" fill="none" stroke="rgb(0, 255, 0)" stroke-width="2.60" stroke-opacity="1.00" stroke-linejoin="round"/>
<path d="M149.65,342.74 C149.65,342.74 148.91,342.74 148.91,342.74 C148.45,345.02 146.09,363.98 144.95,371.98 C144.29,376.70 143.87,380.24 143.75,381.44" fill="none" stroke="rgb(0, 255, 0)" stroke-width="2.60" stroke-opacity="1.00" stroke-linejoin="round"/>
<path d="M154.57,252.67 C154.57,256.39 154.55,263.17 154.54,266.23 C154.41,274.32 153.27,287.65 151.77,294.89 C151.31,297.02 150.94,298.54 150.41,300.46" fill="none" stroke="rgb(0, 255, 0)" stroke-width="2.60" stroke-opacity="1.00" stroke-linejoin="round"/>
<path d="M156.05,211.32 C155.57,215.06 155.49,220.90 155.45,224.35 C155.38,227.68 155.23,233.58 155.15,236.16 C155.12,237.49 155.08,239.62 155.07,240.40" fill="none" stroke="rgb(0, 255, 0)" stroke-width="2.60" stroke-opacity="1.00" stroke-linejoin="round"/>
<path d="M157.03,165.55 C157.03,165.55 157.28,165.55 157.28,165.55 C157.65,165.82 157.31,168.80 156.28,174.80 C155.62,178.25 154.74,182.85 154.51,184.01" fill="none" stroke="rgb(0, 255, 0)" stroke-width="2.60" stroke-opacity="1.00" stroke-linejoin="round"/>
<path d="M132.42,162.10 C132.42,162.10 132.42,162.35 132.42,162.35 C132.42,162.35 132.18,162.59 132.18,162.59 C132.00,162.59 131.50,163.15 131.44,163.81 C131.40,164.25 131.40,165.35 131.44,167.09" fill="none" stroke="rgb(0, 255, 0)" stroke-width="2.60" stroke-opacity="1.00" stroke-linejoin="round"/>
<path d="M133.90,181.79 C133.90,181.79 133.16,182.03 133.16,182.03 C132.86,182.38 131.34,201.24 130.64,209.96 C130.30,214.68 129.77,222.12 129.59,224.83" fill="none" stroke="rgb(0, 255, 0)" stroke-width="2.60" stroke-opacity="1.00" stroke-linejoin="round"/>
<path d="M124.06,253.16 C124.06,253.62 124.06,254.08 124.06,254.54 C124.08,261.18 124.08,276.51 124.07,285.19 C123.85,296.81 123.35,304.98 123.20,307.31" fill="none" stroke="rgb(0, 255, 0)" stroke-width="2.60" stroke-opacity="1.00" stroke-linejoin="round"/>
<path d="M112.24,200.49 C111.97,200.99 109.09,204.61 108.49,207.54 C107.83,210.96 107.37,216.95 107.68,219.48 C107.72,219.78 107.81,220.31 107.93,221.07" fill="none" stroke="rgb(0, 255, 0)" stroke-width="2.60" stroke-opacity="1.00" stroke-linejoin="round"/>
<path d="M108.31,240.36 C108.31,240.36 108.06,240.36 108.06,240.36 C107.53,241.49 104.81,260.79 104.35,263.47 C103.90,266.02 102.01,273.19 101.09,275.82" fill="none" stroke="rgb(0, 255, 0)" stroke-width="2.60" stroke-opacity="1.00" stroke-linejoin="round"/>
<path d="M108.80,176.37 C108.80,176.37 107.57,177.25 107.57,177.25 C107.27,178.37 107.43,184.41 107.53,185.43 C107.59,186.08 107.75,187.35 108.02,189.23" fill="none" stroke="rgb(0, 255, 0)" stroke-width="2.60" stroke-opacity="1.00" stroke-linejoin="round"/>
<path d="M93.05,177.36 C93.05,177.48 93.04,178.15 93.05,178.51 C93.06,179.85 93.06,183.40 92.98,184.83 C92.89,186.25 92.48,189.94 92.32,191.29" fill="none" stroke="rgb(0, 255, 0)" stroke-width="2.60" stroke-opacity="1.00" stroke-linejoin="round"/>
<path d="M92.06,213.78 C92.06,213.78 90.91,211.03 90.91,211.03 C90.61,212.44 88.66,231.15 87.79,239.03 C86.83,247.03 85.24,260.38 84.61,265.72" fill="none" stroke="rgb(0, 255, 0)" stroke-width="2.60" stroke-opacity="1.00" stroke-linejoin="round"/>
<path d="M70.90,178.34 C70.90,178.34 69.67,178.59 69.67,178.59 C69.03,180.53 68.83,181.74 68.98,183.52 C69.32,187.68 69.71,191.42 70.07,194.08" fill="none" stroke="rgb(0, 255, 0)" stroke-width="2.60" stroke-opacity="1.00" stroke-linejoin="round"/>
<path d="M69.91,214.77 C69.91,214.77 69.91,212.80 69.91,212.80 C69.93,216.67 69.87,221.65 69.61,225.67 C69.41,228.72 68.72,234.59 68.10,238.31 C67.51,241.71 66.74,246.17 66.55,247.23" fill="none" stroke="rgb(0, 255, 0)" stroke-width="2.60" stroke-opacity="1.00" stroke-linejoin="round"/>
<path d="M36.94,179.82 C36.95,180.93 36.97,184.00 36.94,185.28 C36.90,186.56 36.71,189.91 36.64,191.14" fill="none" stroke="rgb(0, 255, 0)" stroke-width="2.60" stroke-opacity="1.00" stroke-linejoin="round"/>
<path d="M36.94,200.98 C36.71,202.04 36.17,204.76 35.85,206.42 C35.36,209.01 35.05,210.90 34.67,213.48" fill="none" stroke="rgb(0, 255, 0)" stroke-width="2.60" stroke-opacity="1.00" stroke-linejoin="round"/>
<path d="M40.38,227.07 C40.38,227.07 39.89,226.09 39.89,226.09 C39.88,227.33 39.87,230.49 39.86,232.40 C39.86,236.25 40.08,241.25 40.19,243.03" fill="none" stroke="rgb(0, 255, 0)" stroke-width="2.60" stroke-opacity="1.00" stroke-linejoin="round"/>
<path d="M36.44,266.45 C35.82,267.90 36.07,272.08 36.43,275.89 C36.76,279.14 37.32,284.80 37.68,289.74 C38.09,297.46 38.35,305.46 38.39,306.52" fill="none" stroke="rgb(0, 255, 0)" stroke-width="2.60" stroke-opacity="1.00" stroke-linejoin="round"/>
<path d="M63.51,265.96 C62.50,268.41 61.79,271.29 61.59,276.21 C61.49,279.55 61.22,288.19 61.09,290.54 C60.92,293.97 60.38,300.73 60.27,302.06" fill="none" stroke="rgb(0, 255, 0)" stroke-width="2.60" stroke-opacity="1.00" stroke-linejoin="round"/>
<path d="M81.73,297.46 C80.12,301.56 79.77,305.55 79.58,309.57 C79.20,318.23 78.65,330.73 78.49,334.58 C78.38,337.46 78.29,341.60 78.28,342.50" fill="none" stroke="rgb(0, 255, 0)" stroke-width="2.60" stroke-opacity="1.00" stroke-linejoin="round"/>
<path d="M101.91,303.85 C100.88,304.30 100.38,306.65 100.65,310.74 C101.23,320.10 101.38,330.17 100.83,336.37 C100.16,343.80 98.75,350.79 97.70,355.54" fill="none" stroke="rgb(0, 255, 0)" stroke-width="2.60" stroke-opacity="1.00" stroke-linejoin="round"/>
<path d="M58.59,340.77 C58.31,341.26 57.14,342.69 57.12,342.74 C56.60,343.76 56.81,362.83 56.92,371.66 C56.93,375.06 56.92,384.85 56.75,387.31 C56.70,388.08 55.91,395.69 55.48,399.56" fill="none" stroke="rgb(0, 255, 0)" stroke-width="2.60" stroke-opacity="1.00" stroke-linejoin="round"/>
<path d="M54.66,423.46 C54.55,423.74 53.13,427.52 53.16,431.63 C53.17,435.46 53.18,443.55 53.19,447.81 C53.12,456.52 52.90,465.02 52.86,466.09" fill="none" stroke="rgb(0, 255, 0)" stroke-width="2.60" stroke-opacity="1.00" stroke-linejoin="round"/>
<path d="M74.84,404.76 C74.68,405.52 74.26,407.66 74.10,408.69 C73.63,411.80 73.05,429.47 72.17,437.62 C71.81,440.94 66.28,482.81 64.52,494.12 C63.83,498.62 62.70,511.75 62.57,520.06 C62.55,527.94 62.57,543.57 62.62,551.32 C62.83,557.81 63.65,572.16 64.57,578.08 C65.58,584.38 67.62,597.45 68.16,603.43 C68.53,607.07 69.24,613.93 69.58,617.16" fill="none" stroke="rgb(0, 255, 0)" stroke-width="2.60" stroke-opacity="1.00" stroke-linejoin="round"/>
<path d="M68.44,633.63 C69.95,638.06 71.89,648.53 72.60,654.62 C72.66,655.12 72.75,655.96 72.87,657.15" fill="none" stroke="rgb(0, 255, 0)" stroke-width="2.60" stroke-opacity="1.00" stroke-linejoin="round"/>
<path d="M88.62,577.52 C88.69,577.87 88.19,579.80 88.13,580.60 C88.12,580.72 89.15,596.91 88.61,603.06 C88.30,606.53 87.67,610.84 86.81,615.76 C86.61,616.89 86.28,619.06 86.16,619.85" fill="none" stroke="rgb(0, 255, 0)" stroke-width="2.60" stroke-opacity="1.00" stroke-linejoin="round"/>
<path d="M99.45,406.73 C99.45,406.73 97.48,406.79 97.48,406.79 C97.33,409.26 96.91,416.23 96.64,420.72 C96.13,429.46 95.44,441.24 95.26,444.28" fill="none" stroke="rgb(0, 255, 0)" stroke-width="2.60" stroke-opacity="1.00" stroke-linejoin="round"/>
<path d="M88.13,479.08 C87.22,483.62 87.12,487.46 87.18,491.46 C87.34,499.42 87.59,514.16 87.68,520.94 C87.68,522.37 87.89,528.13 87.94,529.48" fill="none" stroke="rgb(0, 255, 0)" stroke-width="2.60" stroke-opacity="1.00" stroke-linejoin="round"/>
<path d="M52.69,487.45 C52.76,487.40 52.27,489.16 52.11,489.91 C51.81,491.39 50.96,520.22 50.82,521.50 C50.55,523.90 50.08,527.12 49.76,528.95" fill="none" stroke="rgb(0, 255, 0)" stroke-width="2.60" stroke-opacity="1.00" stroke-linejoin="round"/>
<path d="M45.80,559.80 C44.83,563.46 44.80,565.86 45.06,571.71 C45.38,580.05 45.01,587.09 44.60,591.91 C44.31,594.82 43.93,598.56 43.84,599.38" fill="none" stroke="rgb(0, 255, 0)" stroke-width="2.60" stroke-opacity="1.00" stroke-linejoin="round"/>
<path d="M42.84,631.17 C42.84,631.17 42.21,630.43 42.21,630.43 C42.21,630.43 41.96,630.70 41.96,630.70 C41.95,632.15 42.89,636.90 43.39,640.14 C44.03,644.38 44.75,650.09 45.00,653.69 C45.06,654.64 45.25,658.55 45.30,659.72" fill="none" stroke="rgb(0, 255, 0)" stroke-width="2.60" stroke-opacity="1.00" stroke-linejoin="round"/>
<path d="M27.09,610.99 C27.07,612.61 27.12,613.78 27.32,615.93 C29.29,637.27 27.23,647.64 26.76,649.33 C26.76,649.33 25.84,648.74 25.84,648.74" fill="none" stroke="rgb(0, 255, 0)" stroke-width="2.60" stroke-opacity="1.00" stroke-linejoin="round"/>
<path d="M28.57,568.17 C28.22,568.16 27.97,568.11 27.83,568.03 C27.69,567.95 27.44,567.72 27.09,567.34 C27.18,570.01 27.39,576.05 27.52,579.42 C27.72,583.04 27.98,586.79 28.05,587.67" fill="none" stroke="rgb(0, 255, 0)" stroke-width="2.60" stroke-opacity="1.00" stroke-linejoin="round"/>
<path d="M34.97,506.15 C34.68,506.32 32.43,507.93 32.25,509.95 C32.03,512.60 32.09,531.73 32.44,534.36 C32.44,534.36 32.89,534.60 32.89,534.60" fill="none" stroke="rgb(0, 255, 0)" stroke-width="2.60" stroke-opacity="1.00" stroke-linejoin="round"/>
<path d="M37.92,453.98 C37.92,453.98 36.20,454.47 36.20,454.47 C35.91,454.86 35.99,459.86 36.04,462.70 C36.24,468.61 37.18,476.83 37.80,481.33" fill="none" stroke="rgb(0, 255, 0)" stroke-width="2.60" stroke-opacity="1.00" stroke-linejoin="round"/>
<path d="M36.44,384.08 C36.45,386.70 36.46,392.92 36.47,396.52 C36.50,398.29 36.55,402.05 36.59,403.03 C36.74,406.02 37.02,409.04 37.24,410.38" fill="none" stroke="rgb(0, 255, 0)" stroke-width="2.60" stroke-opacity="1.00" stroke-linejoin="round"/>
<path d="M40.38,329.94 C40.38,329.94 39.15,330.68 39.15,330.68 C38.95,331.34 38.85,332.37 38.85,334.42 C38.86,336.59 38.95,339.62 39.08,342.11 C39.13,343.11 39.18,344.10 39.24,345.09" fill="none" stroke="rgb(0, 255, 0)" stroke-width="2.60" stroke-opacity="1.00" stroke-linejoin="round"/>
<path d="M258.43,156.69 C258.43,156.69 256.71,158.04 256.71,158.04 C256.71,158.04 256.56,161.94 256.56,161.94 C256.56,161.94 257.48,162.85 257.48,162.85" fill="none" stroke="rgb(0, 255, 0)" stroke-width="2.60" stroke-opacity="1.00" stroke-linejoin="round"/>
<path d="M260.89,180.80 C260.13,182.03 259.72,186.40 259.98,192.12 C260.05,193.40 260.32,196.39 260.49,197.91 C260.80,200.62 261.39,203.40 261.62,204.31" fill="none" stroke="rgb(0, 255, 0)" stroke-width="2.60" stroke-opacity="1.00" stroke-linejoin="round"/>
<path d="M300.76,162.10 C300.76,162.10 298.89,160.24 298.89,160.24 C298.18,161.42 298.65,168.56 298.59,171.79 C298.56,173.52 298.40,175.34 298.11,177.76" fill="none" stroke="rgb(0, 255, 0)" stroke-width="2.60" stroke-opacity="1.00" stroke-linejoin="round"/>
<path d="M297.80,190.16 C297.80,190.16 295.34,190.28 295.34,190.28 C294.91,191.28 294.64,210.42 294.37,215.11 C293.96,222.39 291.97,237.59 291.29,239.76 C290.97,240.78 287.88,249.53 287.36,251.30 C286.93,252.81 284.40,266.17 283.93,268.80" fill="none" stroke="rgb(0, 255, 0)" stroke-width="2.60" stroke-opacity="1.00" stroke-linejoin="round"/>
<path d="M270.24,232.49 C270.24,232.49 268.52,231.99 268.52,231.99 C268.23,232.37 268.41,237.50 268.88,239.72 C269.11,240.85 273.79,261.98 274.65,269.30 C275.05,272.72 276.72,291.44 277.52,295.67 C279.42,304.96 283.32,336.31 285.05,349.71 C285.41,353.25 285.90,366.79 285.98,370.15 C286.00,372.27 286.00,375.48 285.99,376.58" fill="none" stroke="rgb(0, 255, 0)" stroke-width="2.60" stroke-opacity="1.00" stroke-linejoin="round"/>
<path d="M284.52,292.53 C284.33,292.82 284.08,293.67 284.02,294.63 C283.61,303.80 281.61,316.51 280.33,323.59 C279.01,330.25 276.32,343.28 274.95,349.64 C274.10,353.34 272.91,358.48 272.57,359.92" fill="none" stroke="rgb(0, 255, 0)" stroke-width="2.60" stroke-opacity="1.00" stroke-linejoin="round"/>
<path d="M270.24,372.27 C270.24,372.27 268.52,372.89 268.52,372.89 C268.45,373.26 266.11,391.72 264.29,401.09 C262.49,409.83 260.78,415.30 260.51,416.17" fill="none" stroke="rgb(0, 255, 0)" stroke-width="2.60" stroke-opacity="1.00" stroke-linejoin="round"/>
<path d="M256.46,439.21 C256.46,439.21 255.35,438.72 255.35,438.72 C255.16,438.71 255.05,439.74 254.98,442.53 C254.84,447.86 252.98,466.20 252.12,470.85 C251.94,471.82 251.14,475.59 250.90,476.71" fill="none" stroke="rgb(0, 255, 0)" stroke-width="2.60" stroke-opacity="1.00" stroke-linejoin="round"/>
<path d="M244.65,503.20 C244.65,503.20 243.17,503.20 243.17,503.20 C243.15,503.44 243.82,517.72 242.95,524.39 C242.39,528.27 241.27,535.76 240.73,539.37 C240.46,541.11 240.11,543.90 239.87,545.85" fill="none" stroke="rgb(0, 255, 0)" stroke-width="2.60" stroke-opacity="1.00" stroke-linejoin="round"/>
<path d="M237.76,557.34 C237.66,557.33 237.58,557.33 237.51,557.34 C237.44,557.35 237.28,557.39 237.04,557.45 C236.54,559.14 233.82,580.10 232.88,585.14 C232.45,587.50 231.00,594.12 230.75,595.27" fill="none" stroke="rgb(0, 255, 0)" stroke-width="2.60" stroke-opacity="1.00" stroke-linejoin="round"/>
<path d="M223.48,611.98 C223.48,611.98 223.24,611.98 223.24,611.98 C222.91,612.18 222.64,612.84 222.58,613.96 C222.56,614.36 222.37,624.24 222.12,627.51 C222.01,628.93 221.67,632.24 221.54,633.47" fill="none" stroke="rgb(0, 255, 0)" stroke-width="2.60" stroke-opacity="1.00" stroke-linejoin="round"/>
<path d="M221.51,650.37 C221.51,650.37 220.77,650.74 220.77,650.74 C220.41,652.10 220.16,653.48 219.81,656.23 C219.39,659.50 218.85,663.54 218.74,664.30" fill="none" stroke="rgb(0, 255, 0)" stroke-width="2.60" stroke-opacity="1.00" stroke-linejoin="round"/>
<path d="M288.45,477.60 C288.38,478.78 288.33,479.57 288.29,479.98 C288.26,480.29 286.82,489.97 286.24,493.84 C285.92,495.98 285.71,497.20 285.27,499.38" fill="none" stroke="rgb(0, 255, 0)" stroke-width="2.60" stroke-opacity="1.00" stroke-linejoin="round"/>
<path d="M281.56,512.06 C281.56,512.06 281.56,511.57 281.56,511.57 C281.29,512.72 280.79,514.76 280.57,515.64 C279.99,517.98 279.17,521.31 278.93,522.29" fill="none" stroke="rgb(0, 255, 0)" stroke-width="2.60" stroke-opacity="1.00" stroke-linejoin="round"/>
<path d="M281.56,532.24 C281.56,532.24 281.56,531.75 281.56,531.75 C281.11,532.24 280.80,533.05 280.22,535.53 C278.91,541.09 274.48,555.16 272.66,560.14 C272.04,561.78 271.11,564.11 270.62,565.31" fill="none" stroke="rgb(0, 255, 0)" stroke-width="2.60" stroke-opacity="1.00" stroke-linejoin="round"/>
<path d="M298.79,412.14 C298.79,412.14 296.82,409.34 296.82,409.34 C296.82,409.34 295.29,433.56 295.29,433.56" fill="none" stroke="rgb(0, 255, 0)" stroke-width="2.60" stroke-opacity="1.00" stroke-linejoin="round"/>
<path d="M292.88,444.13 C292.88,444.13 292.39,444.13 292.39,444.13 C291.80,444.48 291.46,445.47 291.32,447.68 C291.27,448.36 291.04,453.16 290.93,455.36 C290.71,459.62 290.29,462.91 290.13,463.82" fill="none" stroke="rgb(0, 255, 0)" stroke-width="2.60" stroke-opacity="1.00" stroke-linejoin="round"/>
<path d="M304.20,365.38 C304.20,365.38 302.97,363.66 302.97,363.66 C302.31,363.98 301.78,367.53 301.35,371.17 C300.57,378.06 299.60,389.18 299.36,392.45" fill="none" stroke="rgb(0, 255, 0)" stroke-width="2.60" stroke-opacity="1.00" stroke-linejoin="round"/>
<path d="M315.03,322.56 C315.03,322.56 314.29,322.56 314.29,322.56 C313.48,323.28 313.12,323.84 312.89,325.06 C312.37,327.88 311.23,334.00 310.60,337.30 C309.94,340.53 308.77,345.98 308.26,348.20" fill="none" stroke="rgb(0, 255, 0)" stroke-width="2.60" stroke-opacity="1.00" stroke-linejoin="round"/>
<path d="M321.92,274.81 C321.92,274.81 321.43,274.81 321.43,274.81 C320.70,275.96 320.18,281.71 319.87,285.11 C318.91,293.63 317.56,305.47 317.16,308.80" fill="none" stroke="rgb(0, 255, 0)" stroke-width="2.60" stroke-opacity="1.00" stroke-linejoin="round"/>
<path d="M323.40,238.88 C323.40,238.88 322.17,238.15 322.17,238.15 C322.17,238.15 320.25,252.25 320.25,252.25" fill="none" stroke="rgb(0, 255, 0)" stroke-width="2.60" stroke-opacity="1.00" stroke-linejoin="round"/>
<path d="M332.26,197.05 C332.26,197.05 331.27,196.06 331.27,196.06 C330.69,196.43 329.78,202.79 329.38,205.52 C329.15,207.15 328.76,209.99 328.60,211.20" fill="none" stroke="rgb(0, 255, 0)" stroke-width="2.60" stroke-opacity="1.00" stroke-linejoin="round"/>
<path d="M335.21,158.65 C335.21,158.65 334.23,156.07 334.23,156.07 C334.23,156.07 333.94,164.95 333.94,164.95" fill="none" stroke="rgb(0, 255, 0)" stroke-width="2.60" stroke-opacity="1.00" stroke-linejoin="round"/>
<path d="M373.11,164.07 C373.11,164.07 370.67,164.49 370.67,164.49 C370.39,165.50 370.15,167.55 370.16,169.41 C370.16,170.17 370.39,173.06 370.47,174.10" fill="none" stroke="rgb(0, 255, 0)" stroke-width="2.60" stroke-opacity="1.00" stroke-linejoin="round"/>
<path d="M368.68,191.63 C368.68,191.63 367.94,189.42 367.94,189.42 C367.82,189.46 367.63,191.90 367.90,201.15 C367.95,202.83 368.05,205.61 368.08,206.71" fill="none" stroke="rgb(0, 255, 0)" stroke-width="2.60" stroke-opacity="1.00" stroke-linejoin="round"/>
<path d="M368.19,232.49 C368.19,232.49 366.22,230.04 366.22,230.04 C366.46,231.43 366.78,235.21 367.19,241.22 C367.45,245.25 367.80,250.53 367.88,251.78" fill="none" stroke="rgb(0, 255, 0)" stroke-width="2.60" stroke-opacity="1.00" stroke-linejoin="round"/>
<path d="M367.21,270.39 C367.21,270.39 366.96,268.91 366.96,268.91 C366.59,269.97 365.87,284.13 365.56,290.78 C365.41,297.59 365.25,305.89 365.24,307.36" fill="none" stroke="rgb(0, 255, 0)" stroke-width="2.60" stroke-opacity="1.00" stroke-linejoin="round"/>
<path d="M364.74,327.48 C364.02,327.95 363.03,330.93 362.88,334.50 C362.84,335.79 362.78,357.24 362.77,365.67 C362.77,367.43 362.78,370.22 362.78,371.25" fill="none" stroke="rgb(0, 255, 0)" stroke-width="2.60" stroke-opacity="1.00" stroke-linejoin="round"/>
<path d="M360.81,386.55 C360.24,387.29 359.80,388.35 359.58,389.71 C359.50,390.17 358.64,398.00 358.22,401.50 C357.30,408.04 356.28,415.26 356.16,415.94" fill="none" stroke="rgb(0, 255, 0)" stroke-width="2.60" stroke-opacity="1.00" stroke-linejoin="round"/>
<path d="M354.90,434.78 C354.90,434.78 353.53,434.78 353.53,434.78 C352.72,435.01 352.33,438.97 351.96,445.25 C351.33,455.39 350.75,461.73 350.65,462.76" fill="none" stroke="rgb(0, 255, 0)" stroke-width="2.60" stroke-opacity="1.00" stroke-linejoin="round"/>
<path d="M352.44,474.65 C352.44,474.65 352.28,474.16 352.28,474.16 C352.08,474.75 351.98,475.68 351.85,478.46 C351.74,480.72 351.54,484.61 351.45,486.24 C351.35,487.88 351.18,490.57 351.12,491.63" fill="none" stroke="rgb(0, 255, 0)" stroke-width="2.60" stroke-opacity="1.00" stroke-linejoin="round"/>
<path d="M347.03,510.09 C347.03,510.09 347.27,510.09 347.27,510.09 C347.27,510.09 347.52,509.84 347.52,509.84 C347.52,509.84 347.52,509.60 347.52,509.60 C347.52,509.60 347.20,521.89 347.20,521.89" fill="none" stroke="rgb(0, 255, 0)" stroke-width="2.60" stroke-opacity="1.00" stroke-linejoin="round"/>
<path d="M346.53,540.11 C345.68,540.52 344.79,541.67 344.37,545.28 C344.32,545.69 344.11,548.57 343.97,550.14 C343.75,552.28 343.35,556.18 343.16,557.95" fill="none" stroke="rgb(0, 255, 0)" stroke-width="2.60" stroke-opacity="1.00" stroke-linejoin="round"/>
<path d="M298.79,461.36 C298.79,461.36 297.89,460.47 297.89,460.47 C298.56,462.30 299.69,466.24 300.82,470.67 C302.40,477.14 304.52,491.58 305.09,496.33" fill="none" stroke="rgb(0, 255, 0)" stroke-width="2.60" stroke-opacity="1.00" stroke-linejoin="round"/>
<path d="M306.66,511.07 C307.04,514.45 307.96,522.49 308.51,527.15 C309.12,532.01 310.25,536.50 310.68,537.53" fill="none" stroke="rgb(0, 255, 0)" stroke-width="2.60" stroke-opacity="1.00" stroke-linejoin="round"/>
<path d="M348.01,567.18 C348.01,567.18 345.71,567.61 345.71,567.61 C344.71,569.81 345.46,579.99 345.80,581.26 C345.92,581.69 346.23,582.68 346.75,584.25" fill="none" stroke="rgb(0, 255, 0)" stroke-width="2.60" stroke-opacity="1.00" stroke-linejoin="round"/>
<path d="M349.49,606.07 C349.49,606.07 349.49,603.85 349.49,603.85 C349.49,605.10 349.50,608.73 349.48,609.25 C349.39,613.12 348.53,620.70 348.13,624.13" fill="none" stroke="rgb(0, 255, 0)" stroke-width="2.60" stroke-opacity="1.00" stroke-linejoin="round"/>
<path d="M351.45,634.62 C351.21,634.86 350.34,635.79 350.22,636.29 C349.99,637.38 349.33,652.62 348.73,656.06 C348.41,657.85 347.92,659.57 347.05,662.13" fill="none" stroke="rgb(0, 255, 0)" stroke-width="2.60" stroke-opacity="1.00" stroke-linejoin="round"/>
<path d="M414.95,161.61 C414.95,161.61 413.72,160.99 413.72,160.99 C413.32,162.16 413.10,163.12 413.00,164.44 C412.88,165.91 412.74,168.81 412.67,170.67 C412.62,172.46 412.52,175.42 412.49,176.59" fill="none" stroke="rgb(0, 255, 0)" stroke-width="2.60" stroke-opacity="1.00" stroke-linejoin="round"/>
<path d="M414.95,191.14 C414.20,191.34 413.50,193.12 412.39,201.90 C411.44,210.78 411.03,217.44 411.01,220.09 C411.01,221.17 411.01,222.26 411.01,223.34" fill="none" stroke="rgb(0, 255, 0)" stroke-width="2.60" stroke-opacity="1.00" stroke-linejoin="round"/>
<path d="M411.50,235.44 C411.50,235.44 409.78,233.96 409.78,233.96 C409.78,233.96 409.54,234.04 409.54,234.04 C409.86,235.89 410.42,242.31 410.51,243.97 C410.76,248.36 410.75,253.45 410.63,256.66" fill="none" stroke="rgb(0, 255, 0)" stroke-width="2.60" stroke-opacity="1.00" stroke-linejoin="round"/>
<path d="M409.04,280.23 C409.04,280.23 409.04,278.88 409.04,278.88 C409.07,284.06 408.97,288.81 408.62,292.70 C408.02,299.12 407.09,305.56 406.99,306.23" fill="none" stroke="rgb(0, 255, 0)" stroke-width="2.60" stroke-opacity="1.00" stroke-linejoin="round"/>
<path d="M406.58,325.51 C406.58,325.51 405.84,325.51 405.84,325.51 C405.63,325.45 405.57,326.29 405.60,329.47 C405.56,336.60 405.42,347.85 405.31,351.99" fill="none" stroke="rgb(0, 255, 0)" stroke-width="2.60" stroke-opacity="1.00" stroke-linejoin="round"/>
<path d="M401.66,378.18 C400.22,379.93 399.65,381.14 399.67,382.86 C399.68,389.73 399.69,397.88 399.69,399.17" fill="none" stroke="rgb(0, 255, 0)" stroke-width="2.60" stroke-opacity="1.00" stroke-linejoin="round"/>
<path d="M399.69,421.00 C399.69,421.00 398.95,421.25 398.95,421.25 C398.72,422.57 398.70,423.53 398.87,425.66 C398.93,426.37 399.13,429.42 399.20,430.55" fill="none" stroke="rgb(0, 255, 0)" stroke-width="2.60" stroke-opacity="1.00" stroke-linejoin="round"/>
<path d="M395.75,447.58 C394.67,448.55 394.29,448.96 394.28,449.46 C394.26,450.24 394.26,453.98 394.28,454.63 C394.31,455.75 394.52,459.02 394.59,460.20" fill="none" stroke="rgb(0, 255, 0)" stroke-width="2.60" stroke-opacity="1.00" stroke-linejoin="round"/>
<path d="M394.28,475.63 C394.28,478.53 394.28,485.06 394.27,488.68 C394.21,498.48 393.78,503.19 393.59,504.61" fill="none" stroke="rgb(0, 255, 0)" stroke-width="2.60" stroke-opacity="1.00" stroke-linejoin="round"/>
<path d="M394.77,528.30 C394.77,528.30 393.54,527.32 393.54,527.32 C393.22,527.89 393.97,536.29 394.09,538.25 C394.47,544.46 394.10,550.49 393.90,552.74" fill="none" stroke="rgb(0, 255, 0)" stroke-width="2.60" stroke-opacity="1.00" stroke-linejoin="round"/>
<path d="M390.83,575.06 C390.83,575.06 389.51,574.76 389.51,574.76 C389.43,575.99 389.85,583.57 389.86,586.72 C389.85,589.88 389.85,596.32 389.85,599.59" fill="none" stroke="rgb(0, 255, 0)" stroke-width="2.60" stroke-opacity="1.00" stroke-linejoin="round"/>
<path d="M389.85,622.31 C389.85,622.31 389.11,622.56 389.11,622.56 C388.82,623.31 388.85,627.87 388.87,630.93 C388.82,639.52 388.09,656.70 387.57,662.70 C387.13,666.78 386.55,672.18 386.40,673.50" fill="none" stroke="rgb(0, 255, 0)" stroke-width="2.60" stroke-opacity="1.00" stroke-linejoin="round"/>
<path d="M432.18,160.62 C432.18,160.62 430.70,160.62 430.70,160.62 C432.15,163.49 433.52,167.57 434.38,172.53 C434.68,174.31 435.58,181.43 435.87,184.27 C436.25,188.30 436.66,191.86 437.04,194.35" fill="none" stroke="rgb(0, 255, 0)" stroke-width="2.60" stroke-opacity="1.00" stroke-linejoin="round"/>
<path d="M444.97,233.47 C444.97,233.47 443.90,233.56 443.90,233.56 C443.09,236.34 445.56,255.42 445.73,257.23 C446.38,264.37 447.03,278.33 446.49,286.88 C444.66,308.42 443.57,330.53 442.90,346.33 C442.63,353.62 442.32,361.83 442.29,362.75" fill="none" stroke="rgb(0, 255, 0)" stroke-width="2.60" stroke-opacity="1.00" stroke-linejoin="round"/>
<path d="M440.54,376.21 C440.54,376.21 440.30,375.22 440.30,375.22 C440.01,375.24 440.07,381.12 440.08,383.83 C440.10,400.15 439.33,429.60 439.09,443.40 C439.08,446.12 439.06,449.78 439.07,450.71" fill="none" stroke="rgb(0, 255, 0)" stroke-width="2.60" stroke-opacity="1.00" stroke-linejoin="round"/>
<path d="M443.01,482.03 C441.91,483.36 441.31,484.60 441.16,486.18 C440.91,488.84 442.07,505.98 442.40,513.03 C442.67,521.27 439.64,545.70 439.48,546.88" fill="none" stroke="rgb(0, 255, 0)" stroke-width="2.60" stroke-opacity="1.00" stroke-linejoin="round"/>
<path d="M441.04,584.41 C440.60,585.64 440.48,586.73 440.71,588.50 C443.32,606.09 443.84,621.84 444.03,628.58 C444.19,632.64 444.42,636.55 444.47,637.47" fill="none" stroke="rgb(0, 255, 0)" stroke-width="2.60" stroke-opacity="1.00" stroke-linejoin="round"/>
<path d="M458.26,158.16 C458.26,158.16 456.38,158.16 456.38,158.16 C457.57,159.53 458.12,160.39 458.30,161.54 C458.59,163.39 459.48,170.85 459.84,174.02" fill="none" stroke="rgb(0, 255, 0)" stroke-width="2.60" stroke-opacity="1.00" stroke-linejoin="round"/>
<path d="M464.17,186.22 C464.17,186.22 463.19,186.22 463.19,186.22 C463.25,187.58 466.36,210.41 466.58,215.74 C466.70,218.39 468.17,234.89 468.21,243.41 C468.51,255.33 468.47,285.37 468.31,301.27 C468.01,314.90 467.68,333.60 466.10,357.35 C465.01,374.63 463.80,394.40 463.68,396.88" fill="none" stroke="rgb(0, 255, 0)" stroke-width="2.60" stroke-opacity="1.00" stroke-linejoin="round"/>
<path d="M461.71,419.03 C461.12,421.59 460.90,423.66 460.66,429.71 C460.62,430.72 459.96,440.89 459.88,442.89 C459.76,445.79 459.64,453.54 459.38,456.23" fill="none" stroke="rgb(0, 255, 0)" stroke-width="2.60" stroke-opacity="1.00" stroke-linejoin="round"/>
<path d="M463.19,481.05 C462.59,481.96 462.25,483.09 462.20,484.80 C462.16,494.15 461.47,500.89 459.97,512.34 C457.83,529.05 457.36,541.56 457.34,542.84" fill="none" stroke="rgb(0, 255, 0)" stroke-width="2.60" stroke-opacity="1.00" stroke-linejoin="round"/>
<path d="M463.68,564.23 C463.26,565.38 463.11,566.64 463.19,568.78 C463.48,575.67 464.09,589.83 464.42,597.09 C464.71,602.40 465.43,608.14 465.82,611.23" fill="none" stroke="rgb(0, 255, 0)" stroke-width="2.60" stroke-opacity="1.00" stroke-linejoin="round"/>
<path d="M467.12,638.55 C467.12,638.55 466.63,638.06 466.63,638.06 C466.75,641.23 467.03,648.58 467.19,652.76 C467.36,657.36 467.57,663.30 467.62,664.64" fill="none" stroke="rgb(0, 255, 0)" stroke-width="2.60" stroke-opacity="1.00" stroke-linejoin="round"/>
<path d="M484.35,156.19 C484.35,156.19 482.38,157.05 482.38,157.05 C482.59,159.32 482.94,160.86 483.78,162.70 C484.29,163.78 484.79,164.87 485.30,165.95" fill="none" stroke="rgb(0, 255, 0)" stroke-width="2.60" stroke-opacity="1.00" stroke-linejoin="round"/>
<path d="M489.27,181.30 C489.71,188.88 490.30,199.08 490.46,201.69 C490.54,203.19 490.68,205.62 490.73,206.55" fill="none" stroke="rgb(0, 255, 0)" stroke-width="2.60" stroke-opacity="1.00" stroke-linejoin="round"/>
<path d="M491.24,216.73 C491.24,216.73 491.24,216.00 491.24,216.00 C491.24,216.00 491.44,216.14 491.44,216.14 C491.78,218.70 492.27,226.26 492.55,230.54 C492.76,233.68 493.03,237.68 493.08,238.55" fill="none" stroke="rgb(0, 255, 0)" stroke-width="2.60" stroke-opacity="1.00" stroke-linejoin="round"/>
<path d="M492.72,263.49 C492.72,263.49 491.98,262.26 491.98,262.26 C491.98,262.26 491.24,262.82 491.24,262.82 C491.29,265.84 492.31,283.16 492.77,290.89 C492.87,292.62 493.03,295.43 493.09,296.50" fill="none" stroke="rgb(0, 255, 0)" stroke-width="2.60" stroke-opacity="1.00" stroke-linejoin="round"/>
<path d="M491.24,313.70 C491.31,314.02 490.69,317.40 490.83,321.28 C490.95,324.63 491.13,331.16 491.20,334.34 C491.22,336.98 491.02,342.51 490.90,345.58" fill="none" stroke="rgb(0, 255, 0)" stroke-width="2.60" stroke-opacity="1.00" stroke-linejoin="round"/>
<path d="M490.26,370.30 C490.26,370.30 490.26,369.67 490.26,369.67 C490.26,369.67 490.01,369.42 490.01,369.42 C489.69,369.96 490.28,384.44 490.56,391.60 C490.69,398.48 490.04,406.83 489.97,407.78" fill="none" stroke="rgb(0, 255, 0)" stroke-width="2.60" stroke-opacity="1.00" stroke-linejoin="round"/>
<path d="M490.75,421.49 C490.75,421.49 490.01,421.74 490.01,421.74 C489.51,422.55 489.25,423.21 489.26,424.21 C489.28,426.75 490.47,441.62 490.59,443.10" fill="none" stroke="rgb(0, 255, 0)" stroke-width="2.60" stroke-opacity="1.00" stroke-linejoin="round"/>
<path d="M490.75,455.45 C490.75,455.45 490.75,455.21 490.75,455.21 C490.75,455.21 490.50,454.96 490.50,454.96 C490.50,454.96 489.76,455.19 489.76,455.19 C489.76,457.25 489.76,463.29 489.76,467.28 C489.76,471.02 489.76,477.43 489.76,480.10" fill="none" stroke="rgb(0, 255, 0)" stroke-width="2.60" stroke-opacity="1.00" stroke-linejoin="round"/>
<path d="M490.26,493.85 C489.64,495.20 488.64,497.43 488.55,498.02 C488.38,499.21 488.25,501.72 488.24,504.05 C488.25,508.47 488.27,516.16 488.29,519.43" fill="none" stroke="rgb(0, 255, 0)" stroke-width="2.60" stroke-opacity="1.00" stroke-linejoin="round"/>
<path d="M488.78,545.53 C488.85,546.55 488.27,548.50 488.30,553.31 C489.25,566.52 491.18,600.52 491.22,604.47 C491.22,611.55 490.98,621.64 490.90,624.13" fill="none" stroke="rgb(0, 255, 0)" stroke-width="2.60" stroke-opacity="1.00" stroke-linejoin="round"/>
<path d="M491.73,645.94 C491.31,648.83 491.25,651.57 491.24,652.48 C491.24,653.24 492.16,655.54 492.51,656.57 C492.68,657.09 492.99,659.97 493.17,661.60" fill="none" stroke="rgb(0, 255, 0)" stroke-width="2.60" stroke-opacity="1.00" stroke-linejoin="round"/>
<path d="M291.41,406.23 C291.41,406.23 288.62,405.03 288.62,405.03 C290.94,413.13 292.43,421.67 294.18,433.99 C294.72,437.94 295.62,444.57 295.98,447.25" fill="none" stroke="rgb(0, 255, 0)" stroke-width="2.60" stroke-opacity="1.00" stroke-linejoin="round"/>
<path d="M292.83,524.89 C292.83,524.89 291.70,526.02 291.70,526.02 C291.70,526.02 293.25,520.71 293.25,520.71 C293.37,520.70 293.52,522.51 293.58,525.24 C293.60,525.74 293.60,526.22 293.58,526.67" fill="none" stroke="rgb(255, 0, 255)" stroke-width="2.60" stroke-opacity="1.00" stroke-linejoin="round"/>
<path d="M293.21,526.77 C292.62,526.81 292.14,526.81 291.74,526.77 C287.91,526.39 281.65,527.15 278.63,527.15 C275.02,527.16 271.09,527.99 267.62,529.56 C264.02,531.23 259.14,535.15 256.35,538.55 C255.81,539.23 251.68,544.59 249.09,548.44 C245.21,554.25 242.72,562.03 242.09,564.67 C242.84,564.27 244.66,563.62 246.78,563.03 C248.87,562.45 254.55,561.35 260.27,560.36" fill="none" stroke="rgb(255, 0, 255)" stroke-width="2.60" stroke-opacity="1.00" stroke-linejoin="round"/>
<path d="M263.10,559.13 C263.10,559.13 261.98,559.13 261.98,559.13 C262.50,559.88 266.95,560.51 267.42,560.60 C274.31,561.96 276.27,564.78 276.27,564.77 C276.11,563.71 279.66,560.19 282.12,558.92 C283.99,557.98 289.17,556.18 291.95,556.38 C292.82,556.45 296.73,557.42 298.14,557.73" fill="none" stroke="rgb(255, 0, 255)" stroke-width="2.60" stroke-opacity="1.00" stroke-linejoin="round"/>
<path d="M297.35,559.13 C297.35,559.13 296.78,558.94 296.78,558.94 C296.78,558.94 296.60,558.49 296.60,558.49 C297.28,557.95 302.91,558.06 305.07,558.52 C308.99,559.39 313.44,563.40 313.80,563.58 C314.88,561.83 318.64,559.12 320.83,558.47 C322.97,557.86 327.61,557.46 329.27,557.59 C334.08,558.01 341.72,560.39 347.34,562.65 C343.85,556.62 336.95,545.49 334.48,542.66 C331.60,539.42 327.75,536.83 322.71,534.25 C321.54,533.63 312.58,528.64 311.04,527.99 C308.56,526.98 293.91,526.63 293.83,526.66 C295.43,527.65 298.65,530.29 300.60,532.43 C302.91,535.01 306.31,540.77 307.46,543.65 C309.09,547.81 310.66,556.44 310.83,557.58 C310.92,558.20 311.07,559.34 311.27,561.01" fill="none" stroke="rgb(255, 0, 255)" stroke-width="2.60" stroke-opacity="1.00" stroke-linejoin="round"/>
<path d="M284.93,529.40 C284.53,529.39 284.28,529.39 284.16,529.40 C283.32,529.57 280.08,534.69 279.10,536.85 C277.28,540.97 275.31,551.35 275.26,552.91 C275.22,553.93 275.34,557.77 275.38,558.87" fill="none" stroke="rgb(255, 0, 255)" stroke-width="2.60" stroke-opacity="1.00" stroke-linejoin="round"/>
<path d="M289.82,559.51 C289.86,561.18 290.11,564.36 290.60,569.86 C291.62,582.70 290.29,602.59 289.71,604.04 C289.62,604.25 289.53,604.46 289.45,604.66" fill="none" stroke="rgb(255, 0, 255)" stroke-width="2.60" stroke-opacity="1.00" stroke-linejoin="round"/>
<path d="M291.33,597.51 C291.33,597.51 290.95,597.64 290.95,597.64 C290.95,597.64 290.95,597.83 290.95,597.83 C290.95,597.83 295.20,596.78 295.20,596.78 C295.98,600.37 293.35,609.97 292.44,610.55 C290.45,611.76 284.79,612.81 283.26,612.77 C282.07,612.72 280.03,612.06 279.27,611.46 C277.35,609.86 275.84,601.65 276.07,600.79 C276.48,600.18 280.69,601.70 282.05,603.32 C282.77,604.16 285.21,606.79 286.17,606.73 C286.94,606.64 289.10,605.05 289.31,604.36 C289.54,603.54 289.45,602.66 289.57,601.82 C289.64,601.31 289.85,600.37 290.20,599.02" fill="none" stroke="rgb(255, 0, 255)" stroke-width="2.60" stroke-opacity="1.00" stroke-linejoin="round"/>
<path d="M296.22,596.01 C296.06,596.06 295.93,596.12 295.84,596.20 C295.75,596.27 295.56,596.46 295.28,596.76 C295.21,596.08 295.90,568.08 295.29,558.74 C295.23,557.56 295.16,556.38 295.10,555.21" fill="none" stroke="rgb(255, 0, 255)" stroke-width="2.60" stroke-opacity="1.00" stroke-linejoin="round"/>
<path d="M303.37,560.64 C303.37,560.64 301.62,560.68 301.62,560.68 C301.45,561.26 301.50,569.47 301.34,570.27 C301.30,570.47 300.04,572.89 299.70,573.97 C300.74,575.50 309.03,580.99 309.07,581.02 C309.55,581.36 311.24,582.86 311.85,582.96 C314.50,583.32 319.65,581.04 321.12,579.57 C321.94,578.73 324.30,574.72 324.76,574.20 C324.76,574.20 326.85,572.12 326.85,572.12 C326.29,571.04 324.82,569.84 324.33,569.35 C323.29,568.26 323.54,564.80 323.61,563.55 C323.63,563.26 323.66,562.87 323.68,562.38" fill="none" stroke="rgb(229, 0, 16)" stroke-width="2.60" stroke-opacity="1.00" stroke-linejoin="round"/>
<path d="M317.29,570.04 C316.81,569.83 316.49,569.70 316.35,569.67 C316.21,569.64 316.04,569.65 315.85,569.71 C315.85,569.71 317.27,568.76 317.27,568.76 C317.27,568.76 317.03,569.34 317.03,569.34" fill="none" stroke="rgb(229, 0, 16)" stroke-width="2.60" stroke-opacity="1.00" stroke-linejoin="round"/>
<path d="M307.51,570.80 C307.51,570.80 307.51,570.23 307.51,570.23 C307.51,570.23 307.13,570.04 307.13,570.04 C307.13,570.04 307.68,569.50 307.68,569.50" fill="none" stroke="rgb(229, 0, 16)" stroke-width="2.60" stroke-opacity="1.00" stroke-linejoin="round"/>
<path d="M309.01,582.09 C308.99,600.62 309.63,621.50 309.64,622.24 C309.67,625.50 309.09,636.47 309.38,647.93 C309.45,650.85 309.60,656.07 309.68,656.66 C309.72,656.99 309.83,657.30 310.01,657.58" fill="none" stroke="rgb(229, 0, 16)" stroke-width="2.60" stroke-opacity="1.00" stroke-linejoin="round"/>
<path d="M320.30,658.47 C320.30,658.47 320.30,658.66 320.30,658.66 C320.30,658.66 319.93,658.85 319.93,658.85 C320.12,645.58 319.94,619.91 319.57,607.51 C319.67,594.73 319.54,581.07 319.63,580.69 C320.80,580.97 324.65,592.75 325.44,598.62 C325.62,600.21 323.13,607.66 323.12,608.33 C323.12,608.79 324.27,611.28 324.65,612.25 C325.29,613.91 324.10,616.84 323.51,617.05 C323.15,617.17 322.09,617.43 320.30,617.83" fill="none" stroke="rgb(229, 0, 16)" stroke-width="2.60" stroke-opacity="1.00" stroke-linejoin="round"/>
<path d="M322.18,580.58 C322.18,580.58 321.43,581.60 321.43,581.60 C321.73,582.39 325.49,583.77 328.57,584.85 C331.57,586.15 336.22,589.78 337.03,591.54 C337.86,593.50 339.93,607.66 340.93,614.72 C341.53,619.53 341.76,632.17 341.66,633.09 C341.66,633.09 333.90,630.92 333.90,630.92 C333.17,629.60 333.38,614.13 332.46,606.86 C332.23,605.03 331.71,601.92 331.49,600.67 C331.43,600.29 331.34,599.62 331.21,598.64" fill="none" stroke="rgb(229, 0, 16)" stroke-width="2.60" stroke-opacity="1.00" stroke-linejoin="round"/>
<path d="M334.22,630.63 C333.96,630.67 333.77,630.67 333.66,630.63 C333.55,630.59 333.36,630.47 333.10,630.25 C333.09,634.01 333.88,636.75 335.34,637.19 C338.27,637.86 339.95,634.59 340.83,632.50 C340.83,632.50 340.35,631.05 340.35,631.05" fill="none" stroke="rgb(229, 0, 16)" stroke-width="2.60" stroke-opacity="1.00" stroke-linejoin="round"/>
<path d="M336.11,638.91 C336.11,638.91 336.11,638.15 336.11,638.15 C336.11,638.15 336.73,662.79 336.73,662.79 C336.73,662.79 336.86,660.73 336.86,660.73" fill="none" stroke="rgb(229, 0, 16)" stroke-width="2.60" stroke-opacity="1.00" stroke-linejoin="round"/>
<path d="M307.88,583.59 C307.71,583.58 307.56,583.58 307.41,583.59 C307.27,583.60 306.94,583.65 306.43,583.72 C305.35,585.62 302.86,592.30 302.01,595.60 C301.27,598.55 301.10,604.75 301.27,605.04 C303.09,608.02 304.95,611.94 304.91,615.23 C304.89,615.90 304.89,616.26 304.91,616.29 C305.02,616.55 305.49,617.42 306.32,618.89" fill="none" stroke="rgb(229, 0, 16)" stroke-width="2.60" stroke-opacity="1.00" stroke-linejoin="round"/>
<path d="M284.55,611.81 C284.55,611.81 282.80,612.33 282.80,612.33 C282.61,613.68 283.37,615.38 284.67,616.45 C286.14,617.62 288.88,618.02 289.85,617.05 C290.68,616.16 290.83,613.45 290.16,611.99 C289.26,610.19 287.97,609.44 286.25,608.78 C286.25,608.78 284.38,610.07 284.38,610.07" fill="none" stroke="rgb(229, 0, 16)" stroke-width="2.60" stroke-opacity="1.00" stroke-linejoin="round"/>
<path d="M303.37,583.59 C303.36,582.98 303.37,582.84 303.37,582.84 C303.36,582.84 297.99,583.97 297.33,585.13 C297.20,585.35 296.87,586.06 296.34,587.27" fill="none" stroke="rgb(229, 0, 16)" stroke-width="2.60" stroke-opacity="1.00" stroke-linejoin="round"/>
<path d="M294.71,606.17 C294.39,606.80 294.29,607.55 294.34,609.70 C294.45,615.40 293.94,648.87 293.96,658.88 C293.96,658.88 293.62,658.21 293.62,658.21" fill="none" stroke="rgb(229, 0, 16)" stroke-width="2.60" stroke-opacity="1.00" stroke-linejoin="round"/>
</g>
</svg>
