<?xml version="1.0" encoding="UTF-8" standalone="no"?>
<!DOCTYPE svg PUBLIC "-//W3C//DTD SVG 1.1//EN" "http://www.w3.org/Graphics/SVG/1.1/DTD/svg11.dtd">
<svg width="128.40" height="181.68" viewBox="0.00 0.00 535.00 757.00" xmlns="http://www.w3.org/2000/svg" xmlns:xlink="http://www.w3.org/1999/xlink">
<g stroke-linecap="round" id="118">
<path d="M290.91,198.43 C290.29,199.83 290.59,203.00 291.24,205.99 C292.16,210.07 296.52,220.97 296.79,221.51 C296.98,221.90 297.37,222.59 297.96,223.60" fill="none" stroke="rgb(255, 0, 255)" stroke-width="3.01" stroke-opacity="1.00" stroke-linejoin="round"/>
<path d="M281.85,143.04 C281.43,145.73 281.52,147.42 282.34,149.33 C282.88,150.58 284.29,153.79 284.48,154.13 C284.68,154.49 285.12,155.12 285.80,156.04" fill="none" stroke="rgb(255, 0, 255)" stroke-width="3.01" stroke-opacity="1.00" stroke-linejoin="round"/>
<path d="M237.03,133.47 C237.03,133.47 236.08,132.97 236.08,132.97 C236.95,137.01 237.72,140.20 239.10,145.42 C239.89,148.40 240.93,152.38 241.20,153.39" fill="none" stroke="rgb(255, 0, 255)" stroke-width="3.01" stroke-opacity="1.00" stroke-linejoin="round"/>
<path d="M216.89,156.63 C216.28,157.03 215.94,158.28 215.89,160.78 C215.87,161.49 215.90,165.11 215.84,165.60 C215.81,165.86 215.71,166.18 215.55,166.55" fill="none" stroke="rgb(255, 0, 255)" stroke-width="3.01" stroke-opacity="1.00" stroke-linejoin="round"/>
<path d="M214.38,81.11 C212.32,82.24 211.36,83.29 211.10,84.84 C210.86,86.35 210.00,98.96 209.78,102.28 C209.64,104.17 209.43,106.89 209.36,107.73" fill="none" stroke="rgb(255, 0, 255)" stroke-width="3.01" stroke-opacity="1.00" stroke-linejoin="round"/>
<path d="M148.41,126.93 C148.41,126.93 146.28,128.08 146.28,128.08 C146.00,129.71 145.83,132.53 146.01,134.49 C146.09,135.41 146.84,139.16 147.12,140.51" fill="none" stroke="rgb(255, 0, 255)" stroke-width="3.01" stroke-opacity="1.00" stroke-linejoin="round"/>
<path d="M165.53,207.49 C164.60,207.90 163.80,209.85 163.46,213.33 C163.11,216.95 162.34,232.40 161.90,236.07 C161.78,237.03 161.24,240.75 161.07,241.87" fill="none" stroke="rgb(255, 0, 255)" stroke-width="3.01" stroke-opacity="1.00" stroke-linejoin="round"/>
<path d="M117.20,245.25 C117.20,245.25 116.69,245.25 116.69,245.25 C116.41,245.40 116.31,245.78 116.07,247.84 C115.89,249.33 114.76,254.83 114.10,256.73 C113.76,257.68 112.72,260.16 112.32,261.08" fill="none" stroke="rgb(255, 0, 255)" stroke-width="3.01" stroke-opacity="1.00" stroke-linejoin="round"/>
<path d="M94.54,185.84 C92.93,188.27 91.98,190.46 91.26,193.78 C89.03,204.61 88.34,207.37 88.24,207.86 C88.20,208.08 88.11,208.58 87.99,209.36" fill="none" stroke="rgb(255, 0, 255)" stroke-width="3.01" stroke-opacity="1.00" stroke-linejoin="round"/>
<path d="M207.83,250.29 C206.36,254.32 206.33,257.21 206.32,258.24 C206.32,259.14 206.32,260.04 206.32,260.94" fill="none" stroke="rgb(255, 0, 255)" stroke-width="3.01" stroke-opacity="1.00" stroke-linejoin="round"/>
<path d="M263.22,305.68 C263.22,305.68 261.71,305.78 261.71,305.78 C261.72,307.40 262.68,310.94 263.46,313.20 C263.87,314.34 264.27,315.48 264.68,316.62" fill="none" stroke="rgb(255, 0, 255)" stroke-width="3.01" stroke-opacity="1.00" stroke-linejoin="round"/>
<path d="M279.83,355.02 C279.21,356.99 279.67,362.12 279.86,362.95 C279.98,363.48 280.29,364.49 280.79,365.98" fill="none" stroke="rgb(255, 0, 255)" stroke-width="3.01" stroke-opacity="1.00" stroke-linejoin="round"/>
<path d="M249.12,384.73 C249.16,385.17 249.67,387.53 250.10,388.75 C250.32,389.37 250.81,390.51 251.56,392.17" fill="none" stroke="rgb(255, 0, 255)" stroke-width="3.01" stroke-opacity="1.00" stroke-linejoin="round"/>
<path d="M205.31,354.01 C204.26,356.16 203.81,357.54 203.80,359.22 C203.82,361.08 203.90,366.03 204.00,366.78 C204.09,367.33 204.32,368.22 204.72,369.44" fill="none" stroke="rgb(255, 0, 255)" stroke-width="3.01" stroke-opacity="1.00" stroke-linejoin="round"/>
<path d="M180.64,319.77 C180.25,320.34 179.73,321.27 179.63,321.91 C179.56,322.40 179.59,326.50 179.63,327.16 C179.66,327.65 179.76,328.61 179.91,330.04" fill="none" stroke="rgb(255, 0, 255)" stroke-width="3.01" stroke-opacity="1.00" stroke-linejoin="round"/>
<path d="M94.03,356.53 C94.03,356.53 94.03,355.27 94.03,355.27 C94.03,355.27 93.34,355.08 93.34,355.08 C92.92,355.84 90.16,371.12 88.38,377.23 C86.17,384.79 81.79,393.25 79.06,396.18" fill="none" stroke="rgb(255, 0, 255)" stroke-width="3.01" stroke-opacity="1.00" stroke-linejoin="round"/>
<path d="M60.80,307.19 C59.23,309.80 58.56,315.46 58.33,317.47 C58.17,318.98 57.93,321.39 57.85,322.28" fill="none" stroke="rgb(255, 0, 255)" stroke-width="3.01" stroke-opacity="1.00" stroke-linejoin="round"/>
<path d="M106.12,411.42 C105.14,415.09 104.80,424.62 103.96,433.27 C103.32,439.52 103.07,441.26 102.69,443.38" fill="none" stroke="rgb(255, 0, 255)" stroke-width="3.01" stroke-opacity="1.00" stroke-linejoin="round"/>
<path d="M54.26,496.01 C53.90,495.31 54.00,494.21 54.80,491.55 C57.76,482.00 60.92,473.09 63.48,468.01 C63.48,468.01 63.80,468.00 63.80,468.00" fill="none" stroke="rgb(255, 0, 255)" stroke-width="3.01" stroke-opacity="1.00" stroke-linejoin="round"/>
<path d="M62.31,545.35 C62.31,545.35 61.05,544.85 61.05,544.85 C61.05,544.85 60.55,545.18 60.55,545.18 C60.34,546.38 60.21,548.61 60.30,550.51 C60.34,551.30 60.68,554.33 60.80,555.42" fill="none" stroke="rgb(255, 0, 255)" stroke-width="3.01" stroke-opacity="1.00" stroke-linejoin="round"/>
<path d="M170.57,457.24 C168.91,459.75 168.22,461.24 167.93,463.23 C167.48,466.34 166.55,473.07 166.60,473.63 C166.64,473.92 166.77,474.67 166.99,475.86" fill="none" stroke="rgb(255, 0, 255)" stroke-width="3.01" stroke-opacity="1.00" stroke-linejoin="round"/>
<path d="M170.57,552.40 C170.57,552.40 170.07,551.90 170.07,551.90 C170.07,552.78 170.06,555.09 170.05,556.53 C170.04,558.03 170.06,559.03 170.11,559.55 C170.15,560.05 170.28,560.94 170.51,562.24" fill="none" stroke="rgb(255, 0, 255)" stroke-width="3.01" stroke-opacity="1.00" stroke-linejoin="round"/>
<path d="M220.92,450.19 C220.92,450.19 219.41,451.82 219.41,451.82 C219.43,452.85 219.49,455.69 219.66,456.56 C219.77,457.13 220.10,458.34 220.63,460.18" fill="none" stroke="rgb(255, 0, 255)" stroke-width="3.01" stroke-opacity="1.00" stroke-linejoin="round"/>
<path d="M281.85,514.13 C281.85,514.13 281.09,514.39 281.09,514.39 C280.87,515.32 280.79,516.68 280.95,518.01 C281.02,518.51 281.67,521.93 281.97,523.51 C282.49,526.30 283.13,529.86 283.26,530.62" fill="none" stroke="rgb(255, 0, 255)" stroke-width="3.01" stroke-opacity="1.00" stroke-linejoin="round"/>
<path d="M293.93,551.39 C293.93,551.39 293.68,551.65 293.68,551.65 C293.51,552.94 293.43,553.80 293.43,554.23 C293.43,554.91 294.01,557.78 294.26,558.97 C294.45,559.86 294.65,560.76 294.84,561.65" fill="none" stroke="rgb(255, 0, 255)" stroke-width="3.01" stroke-opacity="1.00" stroke-linejoin="round"/>
<path d="M234.01,605.77 C234.01,605.77 233.26,606.03 233.26,606.03 C232.91,606.43 233.76,613.75 233.93,615.53 C234.07,617.05 234.40,621.46 234.45,622.56 C234.47,623.07 234.49,624.06 234.52,625.52" fill="none" stroke="rgb(255, 0, 255)" stroke-width="3.01" stroke-opacity="1.00" stroke-linejoin="round"/>
<path d="M139.85,636.99 C138.70,637.87 138.26,639.68 137.94,643.85 C136.75,662.64 134.70,674.38 134.27,676.36 C134.27,676.36 134.73,673.19 134.73,673.19" fill="none" stroke="rgb(255, 0, 255)" stroke-width="3.01" stroke-opacity="1.00" stroke-linejoin="round"/>
<path d="M379.03,235.18 C379.03,235.18 378.02,235.33 378.02,235.33 C378.02,235.33 377.52,236.20 377.52,236.20 C378.33,242.21 382.57,251.20 382.97,251.80 C383.15,252.05 383.45,252.39 383.88,252.80" fill="none" stroke="rgb(255, 0, 255)" stroke-width="3.01" stroke-opacity="1.00" stroke-linejoin="round"/>
<path d="M406.22,315.24 C406.25,318.50 406.83,323.05 407.94,326.51 C408.37,327.83 409.76,331.47 410.15,332.31 C410.33,332.68 410.66,333.31 411.15,334.20" fill="none" stroke="rgb(255, 0, 255)" stroke-width="3.01" stroke-opacity="1.00" stroke-linejoin="round"/>
<path d="M444.48,261.37 C444.42,263.27 444.60,264.86 445.24,266.40 C447.05,270.47 448.78,275.14 448.98,275.53 C449.11,275.78 449.29,275.96 449.51,276.07" fill="none" stroke="rgb(255, 0, 255)" stroke-width="3.01" stroke-opacity="1.00" stroke-linejoin="round"/>
<path d="M394.13,185.84 C394.22,188.23 394.46,189.83 395.11,191.82 C395.54,193.14 395.87,194.04 396.08,194.53 C396.29,194.98 396.74,195.86 397.44,197.15" fill="none" stroke="rgb(255, 0, 255)" stroke-width="3.01" stroke-opacity="1.00" stroke-linejoin="round"/>
<path d="M342.77,161.67 C342.71,161.74 343.10,162.83 343.43,163.73 C344.53,167.07 350.23,190.24 350.42,190.89 C350.48,191.08 350.60,191.34 350.80,191.67 C350.80,191.67 351.33,190.87 351.33,190.87" fill="none" stroke="rgb(255, 0, 255)" stroke-width="3.01" stroke-opacity="1.00" stroke-linejoin="round"/>
<path d="M293.93,87.15 C293.55,91.41 293.76,95.69 294.64,99.02 C300.30,120.00 303.66,129.75 304.36,130.55 C304.54,130.74 304.91,130.97 305.47,131.24" fill="none" stroke="rgb(255, 0, 255)" stroke-width="3.01" stroke-opacity="1.00" stroke-linejoin="round"/>
<path d="M383.56,87.65 C383.06,90.89 383.06,93.24 383.89,95.96 C385.18,99.97 391.00,113.09 392.51,116.45 C393.17,117.87 394.11,119.81 394.53,120.63" fill="none" stroke="rgb(255, 0, 255)" stroke-width="3.01" stroke-opacity="1.00" stroke-linejoin="round"/>
<path d="M444.99,163.18 C444.49,165.09 444.50,167.25 445.26,168.91 C445.44,169.30 448.17,173.58 448.97,175.18 C449.70,176.61 450.99,179.86 451.76,181.96" fill="none" stroke="rgb(255, 0, 255)" stroke-width="3.01" stroke-opacity="1.00" stroke-linejoin="round"/>
<path d="M498.36,351.50 C498.36,351.50 498.00,352.14 498.00,352.14 C501.90,359.09 506.80,371.46 507.01,372.09 C507.15,372.54 507.45,373.52 507.89,375.03" fill="none" stroke="rgb(255, 0, 255)" stroke-width="3.01" stroke-opacity="1.00" stroke-linejoin="round"/>
<path d="M475.20,343.94 C475.20,343.94 473.77,345.62 473.77,345.62 C475.78,347.91 476.92,349.36 477.95,351.04 C478.99,352.71 479.76,354.12 480.91,356.34" fill="none" stroke="rgb(255, 0, 255)" stroke-width="3.01" stroke-opacity="1.00" stroke-linejoin="round"/>
<path d="M493.33,419.98 C493.27,421.27 493.30,423.41 493.49,424.63 C493.70,425.85 494.88,430.03 495.39,431.22 C495.63,431.77 496.18,432.90 497.03,434.61" fill="none" stroke="rgb(255, 0, 255)" stroke-width="3.01" stroke-opacity="1.00" stroke-linejoin="round"/>
<path d="M425.35,405.37 C425.10,405.59 424.33,406.29 424.34,406.58 C424.37,407.13 426.60,414.71 427.37,418.25 C427.72,419.95 428.31,422.75 428.54,423.85" fill="none" stroke="rgb(255, 0, 255)" stroke-width="3.01" stroke-opacity="1.00" stroke-linejoin="round"/>
<path d="M393.12,388.76 C392.88,390.29 392.59,392.79 392.62,394.17 C392.66,395.65 393.22,399.66 393.66,402.04 C394.38,405.81 395.43,409.88 396.31,412.84" fill="none" stroke="rgb(255, 0, 255)" stroke-width="3.01" stroke-opacity="1.00" stroke-linejoin="round"/>
<path d="M431.39,476.87 C430.74,479.78 431.72,486.47 432.28,488.65 C432.72,490.34 436.28,502.84 436.59,503.90" fill="none" stroke="rgb(255, 0, 255)" stroke-width="3.01" stroke-opacity="1.00" stroke-linejoin="round"/>
<path d="M497.35,488.45 C497.75,490.40 499.01,494.99 500.82,501.07 C502.06,505.17 503.98,511.55 504.16,512.04 C504.31,512.48 504.64,513.32 505.15,514.57" fill="none" stroke="rgb(255, 0, 255)" stroke-width="3.01" stroke-opacity="1.00" stroke-linejoin="round"/>
<path d="M422.33,538.30 C422.33,538.30 421.32,537.30 421.32,537.30 C421.81,541.05 425.25,556.96 425.76,560.45 C425.93,561.52 426.09,562.59 426.25,563.66" fill="none" stroke="rgb(255, 0, 255)" stroke-width="3.01" stroke-opacity="1.00" stroke-linejoin="round"/>
<path d="M456.57,568.01 C456.57,568.01 456.06,568.18 456.06,568.18 C456.04,569.06 456.13,569.88 456.40,570.44 C456.54,570.73 456.83,571.20 457.27,571.84 C457.77,572.56 458.27,573.27 458.76,573.98" fill="none" stroke="rgb(255, 0, 255)" stroke-width="3.01" stroke-opacity="1.00" stroke-linejoin="round"/>
<path d="M488.79,614.33 C491.75,621.36 494.73,631.26 496.35,640.94 C496.49,641.80 496.63,642.66 496.77,643.51 C496.77,643.51 496.05,641.10 496.05,641.10" fill="none" stroke="rgb(255, 0, 255)" stroke-width="3.01" stroke-opacity="1.00" stroke-linejoin="round"/>
<path d="M342.60,386.15 C341.40,386.82 340.83,389.46 341.33,393.18 C341.84,396.70 342.87,404.03 343.39,407.84 C343.77,410.68 344.70,415.47 346.20,418.79 C348.65,424.14 353.72,432.05 360.55,441.70 C364.22,446.79 367.44,450.79 369.56,452.62 C371.63,454.38 374.70,457.21 377.23,459.74 C380.06,462.57 382.63,464.64 384.08,464.44 C384.08,464.44 385.14,463.30 385.14,463.30 C385.14,463.30 385.62,458.93 385.62,458.93 C381.35,457.20 375.88,452.59 368.88,447.02 C364.76,443.70 359.99,437.91 354.25,429.34 C348.49,420.73 348.00,419.77 347.54,418.61 C347.54,418.61 347.97,419.41 347.97,419.41" fill="none" stroke="rgb(28, 31, 136)" stroke-width="3.01" stroke-opacity="1.00" stroke-linejoin="round"/>
<path d="M351.83,425.08 C354.84,429.10 357.03,432.43 358.06,435.10 C358.88,437.23 363.37,444.01 363.67,444.53 C364.81,446.89 367.04,451.08 369.17,452.62 C372.64,455.10 379.53,462.96 380.08,462.93 C380.08,462.93 368.93,448.86 368.93,448.86 C368.93,448.86 382.95,463.36 382.95,463.36 C382.95,463.36 378.50,457.35 378.50,457.35 C379.32,457.86 381.07,459.40 382.45,460.93 C382.85,461.37 383.46,462.11 384.29,463.14" fill="none" stroke="rgb(28, 31, 136)" stroke-width="3.01" stroke-opacity="1.00" stroke-linejoin="round"/>
<path d="M367.49,396.18 C367.49,396.18 367.60,397.79 367.60,397.79 C368.26,398.52 374.20,400.52 375.80,401.43 C378.35,402.92 396.66,417.54 397.08,417.91 C397.18,418.00 397.23,418.10 397.26,418.23" fill="none" stroke="rgb(28, 31, 136)" stroke-width="3.01" stroke-opacity="1.00" stroke-linejoin="round"/>
<path d="M370.70,396.18 C370.70,396.18 370.70,396.58 370.70,396.58 C372.14,396.43 381.91,404.43 387.78,409.25 C391.92,412.70 396.02,417.92 396.57,418.62 C396.57,418.62 396.79,418.26 396.79,418.26" fill="none" stroke="rgb(28, 31, 136)" stroke-width="3.01" stroke-opacity="1.00" stroke-linejoin="round"/>
<path d="M371.90,386.55 C371.90,386.55 371.50,387.95 371.50,387.95 C371.85,388.52 375.91,389.28 376.79,389.59 C378.57,390.25 389.60,398.93 397.26,403.53 C398.84,404.47 405.27,408.57 406.90,409.43 C408.57,410.30 412.44,412.04 412.67,412.15 C412.89,412.25 413.21,412.41 413.65,412.64" fill="none" stroke="rgb(28, 31, 136)" stroke-width="3.01" stroke-opacity="1.00" stroke-linejoin="round"/>
<path d="M417.26,413.44 C415.87,413.42 413.96,413.36 413.50,412.89 C411.97,411.34 408.00,407.20 404.97,405.31 C400.21,402.37 396.95,399.90 393.79,396.87 C391.39,394.70 383.79,391.03 382.23,390.27 C379.48,388.94 369.80,381.21 368.62,380.75 C368.45,380.69 368.24,380.63 367.99,380.56" fill="none" stroke="rgb(28, 31, 136)" stroke-width="3.01" stroke-opacity="1.00" stroke-linejoin="round"/>
<path d="M369.89,384.94 C369.89,384.94 368.78,385.06 368.78,385.06 C368.78,385.06 368.29,385.85 368.29,385.85 C368.29,385.85 370.30,386.55 370.30,386.55" fill="none" stroke="rgb(28, 31, 136)" stroke-width="3.01" stroke-opacity="1.00" stroke-linejoin="round"/>
<path d="M416.05,413.84 C416.05,413.84 415.30,413.84 415.30,413.84 C415.30,413.84 416.73,414.32 416.73,414.32 C413.35,414.44 405.22,412.86 404.76,412.79 C402.42,412.42 400.60,412.92 400.10,413.18 C400.30,414.76 400.68,415.79 401.65,416.57 C403.77,418.25 410.82,422.05 414.16,423.83 C416.03,424.83 429.50,434.90 431.56,436.54 C436.39,440.45 447.51,450.49 448.58,450.59 C449.22,449.89 449.45,449.29 449.26,448.38 C448.79,446.24 446.60,441.92 444.65,439.76 C443.73,438.74 441.41,437.14 440.73,436.45 C440.37,436.07 436.45,430.09 435.04,428.61 C433.62,427.13 427.12,421.33 426.59,420.98 C424.96,419.88 420.64,417.84 418.44,415.85 C417.27,414.79 415.08,412.78 414.05,411.84" fill="none" stroke="rgb(28, 31, 136)" stroke-width="3.01" stroke-opacity="1.00" stroke-linejoin="round"/>
<path d="M398.79,416.65 C398.70,416.82 382.43,412.21 379.20,411.93 C378.51,411.89 377.09,412.28 376.65,412.80 C375.45,414.31 374.33,416.00 373.57,417.43 C373.28,417.98 372.99,418.52 372.70,419.06" fill="none" stroke="rgb(28, 31, 136)" stroke-width="3.01" stroke-opacity="1.00" stroke-linejoin="round"/>
<path d="M379.13,461.61 C379.13,461.61 377.12,459.60 377.12,459.60 C379.49,462.67 382.53,465.38 383.97,466.34 C385.71,467.47 393.08,471.04 395.94,472.19 C399.80,473.73 414.91,475.77 417.50,474.93 C417.83,474.83 418.42,474.53 419.27,474.05" fill="none" stroke="rgb(28, 31, 136)" stroke-width="3.01" stroke-opacity="1.00" stroke-linejoin="round"/>
<path d="M407.22,472.05 C407.22,472.05 407.33,472.79 407.33,472.79 C409.33,473.29 418.50,473.22 419.79,473.25 C423.10,473.34 426.02,472.86 428.19,472.02 C429.26,471.59 436.28,468.20 438.85,467.68 C440.66,467.32 442.65,466.47 444.04,465.42 C445.19,464.52 446.55,460.96 446.76,457.84 C446.88,455.75 446.75,454.37 446.27,452.41 C446.10,451.73 445.93,451.05 445.76,450.37" fill="none" stroke="rgb(28, 31, 136)" stroke-width="3.01" stroke-opacity="1.00" stroke-linejoin="round"/>
<path d="M424.48,438.33 C424.48,438.13 424.48,437.93 424.48,437.73 C424.48,437.41 424.48,437.08 424.48,436.76 C423.80,437.17 420.57,438.14 417.79,438.22 C416.26,438.26 409.44,437.93 405.95,438.69 C401.80,439.62 395.32,441.61 392.61,442.63 C389.81,443.68 385.51,444.44 383.37,444.09 C381.27,443.70 374.93,440.43 374.50,440.34 C373.91,440.21 372.65,440.07 370.70,439.93" fill="none" stroke="rgb(28, 31, 136)" stroke-width="3.01" stroke-opacity="1.00" stroke-linejoin="round"/>
<path d="M375.11,426.69 C375.11,426.69 375.11,426.89 375.11,426.89 C375.11,426.89 374.71,427.27 374.71,427.27 C375.83,429.68 376.73,431.79 377.49,433.79 C377.50,433.83 377.54,433.95 377.52,433.91" fill="none" stroke="rgb(28, 31, 136)" stroke-width="3.01" stroke-opacity="1.00" stroke-linejoin="round"/>
<path d="M376.72,422.27 C376.93,423.83 377.32,425.13 378.32,427.36 C380.22,431.54 382.29,434.99 383.28,435.76 C383.28,435.76 383.52,435.67 383.52,435.67" fill="none" stroke="rgb(28, 31, 136)" stroke-width="3.01" stroke-opacity="1.00" stroke-linejoin="round"/>
<path d="M379.53,419.06 C379.68,419.92 379.97,420.70 380.84,422.23 C386.43,432.17 388.12,434.80 389.13,435.45 C389.13,435.45 388.57,434.89 388.57,434.89" fill="none" stroke="rgb(28, 31, 136)" stroke-width="3.01" stroke-opacity="1.00" stroke-linejoin="round"/>
<path d="M385.55,423.08 C385.54,423.35 385.54,423.56 385.55,423.68 C385.68,424.86 389.11,427.95 391.11,429.60 C392.73,430.93 394.74,432.33 394.71,432.31 C394.71,432.31 391.60,424.75 391.60,424.75 C392.07,425.40 392.55,426.05 393.02,426.70 C395.20,429.64 397.54,432.48 398.16,433.23" fill="none" stroke="rgb(28, 31, 136)" stroke-width="3.01" stroke-opacity="1.00" stroke-linejoin="round"/>
<path d="M397.19,449.97 C397.19,449.97 397.19,450.17 397.19,450.17 C397.19,450.17 396.79,450.57 396.79,450.57 C396.64,450.92 399.90,453.78 402.31,457.74 C404.51,461.38 410.68,467.03 411.80,468.21 C413.57,470.06 417.82,475.61 418.32,476.09 C418.64,476.41 419.32,476.96 420.36,477.75" fill="none" stroke="rgb(28, 31, 136)" stroke-width="3.01" stroke-opacity="1.00" stroke-linejoin="round"/>
<path d="M418.86,472.45 C418.86,472.45 418.86,473.54 418.86,473.54 C418.86,473.54 415.28,465.10 415.28,465.10 C415.28,465.10 417.14,464.44 417.14,464.44 C417.86,463.99 414.92,458.91 412.17,455.58 C410.48,453.59 406.83,450.28 405.58,449.44 C405.36,449.29 404.97,449.06 404.41,448.76" fill="none" stroke="rgb(28, 31, 136)" stroke-width="3.01" stroke-opacity="1.00" stroke-linejoin="round"/>
<path d="M398.79,445.95 C398.50,446.05 398.31,446.12 398.23,446.16 C398.15,446.19 398.07,446.26 397.99,446.36 C397.99,446.36 397.52,445.95 397.52,445.95 C398.38,445.92 410.38,446.97 411.21,447.08 C411.35,447.10 411.49,447.13 411.64,447.16" fill="none" stroke="rgb(28, 31, 136)" stroke-width="3.01" stroke-opacity="1.00" stroke-linejoin="round"/>
<path d="M419.27,457.19 C419.27,457.19 418.46,457.60 418.46,457.60 C419.03,458.32 421.44,461.38 423.45,464.76 C423.81,465.36 424.25,466.10 424.75,466.99 C424.80,467.07 424.94,467.30 424.88,467.23" fill="none" stroke="rgb(28, 31, 136)" stroke-width="3.01" stroke-opacity="1.00" stroke-linejoin="round"/>
<path d="M437.33,445.55 C437.33,445.55 437.13,445.55 437.13,445.55 C437.13,445.55 436.93,445.35 436.93,445.35 C436.93,445.35 436.93,445.15 436.93,445.15 C439.24,448.00 443.70,451.49 444.20,452.17 C444.98,453.27 447.68,459.40 447.70,459.32 C447.80,456.47 444.85,450.36 442.96,447.96 C442.96,447.96 443.32,447.96 443.32,447.96" fill="none" stroke="rgb(28, 31, 136)" stroke-width="3.01" stroke-opacity="1.00" stroke-linejoin="round"/>
<path d="M417.26,423.08 C417.26,423.08 414.07,423.08 414.07,423.08 C414.59,423.06 420.47,424.55 422.62,424.80 C425.62,425.00 430.10,425.36 434.08,426.88 C436.92,428.03 439.80,429.34 440.62,430.08 C441.41,430.81 442.14,433.08 442.53,434.83 C442.61,435.25 442.75,435.88 442.95,436.72" fill="none" stroke="rgb(28, 31, 136)" stroke-width="3.01" stroke-opacity="1.00" stroke-linejoin="round"/>
<path d="M423.68,425.89 C423.68,425.89 421.74,427.49 421.74,427.49 C424.26,427.82 425.92,428.61 427.83,430.59 C428.56,431.34 429.29,432.09 430.01,432.84 C430.01,432.84 426.25,428.83 426.25,428.83 C426.25,428.83 432.74,435.67 432.74,435.67 C432.74,435.67 430.73,427.67 430.73,427.67 C430.73,427.67 435.76,437.91 435.76,437.91 C436.24,437.35 436.24,436.30 435.62,434.03 C435.38,433.18 435.14,432.32 434.91,431.47 C435.65,432.85 437.50,436.83 437.78,437.21 C438.12,437.65 438.77,438.16 439.74,438.73" fill="none" stroke="rgb(28, 31, 136)" stroke-width="3.01" stroke-opacity="1.00" stroke-linejoin="round"/>
<path d="M436.93,431.10 C436.93,431.10 437.33,431.10 437.33,431.10 C439.69,436.18 441.71,441.02 442.93,444.01 C443.03,444.25 443.16,444.51 443.32,444.78" fill="none" stroke="rgb(28, 31, 136)" stroke-width="3.01" stroke-opacity="1.00" stroke-linejoin="round"/>
<path d="M441.34,430.30 C440.58,432.07 440.50,435.14 442.09,438.63 C443.28,441.15 445.16,444.47 446.02,445.84 C446.02,445.84 445.36,443.55 445.36,443.55" fill="none" stroke="rgb(28, 31, 136)" stroke-width="3.01" stroke-opacity="1.00" stroke-linejoin="round"/>
<path d="M444.95,438.73 C444.95,438.73 444.55,438.33 444.55,438.33 C444.55,438.83 444.57,439.22 444.60,439.52 C444.81,441.18 446.92,448.84 447.32,450.15 C447.32,450.15 447.64,449.89 447.64,449.89 C447.64,449.89 447.76,449.17 447.76,449.17" fill="none" stroke="rgb(28, 31, 136)" stroke-width="3.01" stroke-opacity="1.00" stroke-linejoin="round"/>
<path d="M447.76,445.55 C447.76,446.76 447.76,448.53 447.76,449.10 C447.76,449.12 447.76,449.19 447.76,449.17" fill="none" stroke="rgb(28, 31, 136)" stroke-width="3.01" stroke-opacity="1.00" stroke-linejoin="round"/>
<path d="M428.90,429.50 C428.90,429.50 425.89,429.90 425.89,429.90 C427.56,429.41 432.07,428.80 432.84,428.81 C433.33,428.82 434.29,428.92 435.72,429.10" fill="none" stroke="rgb(28, 31, 136)" stroke-width="3.01" stroke-opacity="1.00" stroke-linejoin="round"/>
<path d="M430.91,425.89 C430.75,426.04 430.61,426.17 430.50,426.29 C430.39,426.40 430.15,426.67 429.77,427.09 C430.39,427.46 431.01,427.83 431.63,428.20 C431.90,428.36 432.19,428.52 432.51,428.70" fill="none" stroke="rgb(28, 31, 136)" stroke-width="3.01" stroke-opacity="1.00" stroke-linejoin="round"/>
<path d="M304.47,271.02 C304.47,271.02 303.58,271.46 303.58,271.46 C302.93,274.43 302.37,278.78 302.32,280.92 C302.25,285.74 305.20,297.34 305.77,298.90 C305.77,298.79 303.16,295.06 301.93,292.73 C300.12,289.22 298.63,283.88 298.37,279.99 C298.21,277.23 298.33,271.52 298.65,269.90 C299.12,267.72 300.67,264.02 301.33,262.75 C301.52,262.38 301.80,261.92 302.17,261.38" fill="none" stroke="rgb(0, 255, 0)" stroke-width="3.01" stroke-opacity="1.00" stroke-linejoin="round"/>
<path d="M302.25,265.26 C302.17,265.99 302.19,266.57 302.32,266.99 C302.95,269.02 307.22,274.53 309.15,276.37 C310.22,277.38 315.38,281.27 316.33,283.17 C317.37,285.39 318.19,289.28 318.25,293.94 C318.29,297.70 318.91,303.58 319.08,305.06 C319.02,299.83 320.78,286.45 320.77,286.38 C320.74,286.29 320.63,286.04 320.43,285.65" fill="none" stroke="rgb(0, 255, 0)" stroke-width="3.01" stroke-opacity="1.00" stroke-linejoin="round"/>
<path d="M306.68,292.29 C306.51,292.19 306.37,292.12 306.24,292.07 C306.11,292.03 305.83,291.96 305.40,291.85 C305.40,291.85 312.58,292.74 312.58,292.74 C312.58,292.74 307.95,292.74 307.95,292.74 C307.95,292.74 307.93,293.08 307.93,293.08" fill="none" stroke="rgb(0, 255, 0)" stroke-width="3.01" stroke-opacity="1.00" stroke-linejoin="round"/>
<path d="M304.91,283.87 C304.91,283.87 304.69,283.87 304.69,283.87 C304.69,283.87 304.27,283.43 304.27,283.43 C305.36,284.09 307.75,284.28 308.17,284.36 C308.36,284.39 308.70,284.51 309.19,284.70" fill="none" stroke="rgb(0, 255, 0)" stroke-width="3.01" stroke-opacity="1.00" stroke-linejoin="round"/>
<path d="M299.59,292.74 C299.59,292.74 293.83,298.50 293.83,298.50 C295.05,299.41 300.04,303.11 299.98,304.13 C299.91,304.81 299.69,306.75 299.67,308.27 C301.86,309.34 303.09,309.70 303.82,309.33 C303.92,309.28 304.29,309.07 304.91,308.70" fill="none" stroke="rgb(0, 255, 0)" stroke-width="3.01" stroke-opacity="1.00" stroke-linejoin="round"/>
<path d="M300.92,314.01 C300.92,314.01 300.92,313.57 300.92,313.57 C300.92,313.57 301.85,319.38 301.85,319.38 C303.65,321.63 312.55,319.32 313.13,319.05 C313.56,318.86 314.51,318.37 315.98,317.57" fill="none" stroke="rgb(0, 255, 0)" stroke-width="3.01" stroke-opacity="1.00" stroke-linejoin="round"/>
<path d="M322.20,299.39 C322.20,299.39 321.31,299.83 321.31,299.83 C322.64,299.84 325.54,302.28 326.08,305.63 C326.19,306.57 326.02,307.98 325.46,308.38 C324.59,308.98 323.63,309.45 322.79,310.10 C322.45,310.37 322.12,310.76 321.81,311.27" fill="none" stroke="rgb(0, 255, 0)" stroke-width="3.01" stroke-opacity="1.00" stroke-linejoin="round"/>
<path d="M322.20,311.80 C322.20,311.80 321.31,312.24 321.31,312.24 C323.99,310.28 326.78,307.83 328.64,305.51 C330.74,302.83 332.98,298.41 333.77,295.38 C334.37,292.95 335.42,281.39 335.48,280.70 C335.48,280.69 335.45,286.38 335.24,289.38 C334.89,294.11 331.53,303.80 329.15,307.08 C327.62,309.01 325.91,311.21 325.89,311.41 C326.96,310.97 333.83,306.53 335.49,305.14 C337.20,303.69 340.90,299.36 342.33,296.94 C343.55,294.86 346.19,287.92 346.26,286.47 C346.28,285.96 346.09,285.24 345.69,284.32" fill="none" stroke="rgb(0, 255, 0)" stroke-width="3.01" stroke-opacity="1.00" stroke-linejoin="round"/>
<path d="M323.08,268.80 C323.08,268.80 322.96,267.69 322.96,267.69 C323.87,271.43 326.05,280.31 326.44,281.79 C327.88,287.15 332.02,296.11 332.70,296.71 C332.70,296.71 332.05,294.81 332.05,294.81" fill="none" stroke="rgb(0, 255, 0)" stroke-width="3.01" stroke-opacity="1.00" stroke-linejoin="round"/>
<path d="M335.05,281.21 C335.05,281.42 335.05,281.63 335.05,281.83 C335.05,282.03 335.05,282.22 335.05,282.42 C335.05,282.42 335.48,282.54 335.48,282.54 C335.52,282.44 335.26,281.43 334.85,280.43 C333.76,277.80 331.03,272.99 329.98,271.53 C328.00,268.84 324.95,265.73 322.31,264.40 C314.45,260.55 309.20,259.97 306.34,259.93 C306.34,259.93 305.80,259.49 305.80,259.49" fill="none" stroke="rgb(0, 255, 0)" stroke-width="3.01" stroke-opacity="1.00" stroke-linejoin="round"/>
<path d="M306.68,259.05 C306.68,259.05 306.46,259.49 306.46,259.49 C304.57,260.17 300.95,261.08 300.68,261.27 C299.56,262.03 296.38,267.89 295.81,269.50 C295.00,271.83 294.65,275.97 294.91,280.09 C295.08,282.33 295.65,285.27 296.29,286.75 C296.83,287.94 298.88,290.48 299.64,290.85 C299.97,291.00 300.72,291.18 301.86,291.40" fill="none" stroke="rgb(0, 255, 0)" stroke-width="3.01" stroke-opacity="1.00" stroke-linejoin="round"/>
<path d="M304.91,260.38 C304.91,260.38 303.14,261.27 303.14,261.27 C303.12,261.28 303.18,261.28 303.19,261.27 C303.88,260.81 305.80,259.47 306.59,258.90 C309.41,256.95 317.33,253.77 319.07,253.50 C319.81,253.39 326.31,253.58 329.42,253.20 C332.05,252.91 336.67,254.87 339.23,256.76 C341.27,258.39 344.27,260.77 347.24,262.88 C349.47,264.50 351.67,267.33 352.92,270.29 C353.97,272.87 357.07,284.35 357.66,288.56 C357.66,288.56 351.54,282.70 351.54,282.70 C353.09,284.03 355.38,287.61 356.45,289.93 C357.56,292.38 359.60,297.98 359.72,299.38 C359.88,306.53 360.44,318.64 361.66,323.85 C361.78,324.36 362.07,325.52 362.54,327.31" fill="none" stroke="rgb(0, 255, 0)" stroke-width="3.01" stroke-opacity="1.00" stroke-linejoin="round"/>
<path d="M348.35,296.73 C348.35,296.73 348.35,296.28 348.35,296.28 C348.35,299.29 348.39,305.66 348.59,307.17 C348.89,309.37 350.89,316.76 351.41,318.09 C352.08,319.77 355.69,325.65 357.07,327.10 C358.06,328.11 363.76,332.55 364.88,334.04 C365.07,334.30 365.33,334.72 365.64,335.29" fill="none" stroke="rgb(0, 255, 0)" stroke-width="3.01" stroke-opacity="1.00" stroke-linejoin="round"/>
<path d="M362.98,322.88 C362.98,322.88 362.09,324.21 362.09,324.21 C363.34,324.56 365.84,328.09 367.37,331.10 C368.66,333.81 369.84,337.77 370.19,340.83 C370.45,343.35 370.19,347.14 369.71,350.96 C369.71,350.96 369.18,350.36 369.18,350.36" fill="none" stroke="rgb(0, 255, 0)" stroke-width="3.01" stroke-opacity="1.00" stroke-linejoin="round"/>
<path d="M366.97,342.38 C366.97,342.38 366.97,343.71 366.97,343.71" fill="none" stroke="rgb(0, 255, 0)" stroke-width="3.01" stroke-opacity="1.00" stroke-linejoin="round"/>
<path d="M332.39,311.80 C332.39,311.80 330.35,311.39 330.35,311.39 C330.17,312.26 329.69,320.07 329.64,321.02 C329.51,325.52 329.95,329.76 331.48,332.82 C331.94,333.72 333.91,337.48 334.39,337.96 C334.62,338.19 334.99,338.34 335.50,338.39" fill="none" stroke="rgb(0, 255, 0)" stroke-width="3.01" stroke-opacity="1.00" stroke-linejoin="round"/>
<path d="M347.46,323.32 C347.46,323.32 346.58,324.21 346.58,324.21 C346.80,325.09 343.38,330.05 341.98,332.15 C340.29,334.56 337.56,337.54 334.64,340.57 C334.64,340.57 334.61,340.17 334.61,340.17" fill="none" stroke="rgb(0, 255, 0)" stroke-width="3.01" stroke-opacity="1.00" stroke-linejoin="round"/>
<path d="M323.53,316.23 C323.53,316.23 323.53,315.79 323.53,315.79 C322.38,323.14 320.59,331.54 320.37,332.26 C320.25,332.65 320.00,333.32 319.62,334.27" fill="none" stroke="rgb(0, 255, 0)" stroke-width="3.01" stroke-opacity="1.00" stroke-linejoin="round"/>
<path d="M318.65,318.45 C318.65,318.45 318.21,319.02 318.21,319.02 C318.27,319.21 317.60,321.59 317.47,322.42 C317.27,324.78 317.44,333.47 318.08,335.68 C318.40,336.70 319.49,338.42 320.02,338.71 C320.24,338.83 320.74,338.99 321.52,339.22" fill="none" stroke="rgb(0, 255, 0)" stroke-width="3.01" stroke-opacity="1.00" stroke-linejoin="round"/>
<path d="M314.66,319.33 C313.78,320.18 313.27,320.72 313.11,320.97 C312.81,321.48 314.48,331.39 315.16,333.36 C315.68,334.82 317.09,337.40 317.96,338.52 C318.87,339.67 320.48,340.93 322.88,342.52 C322.88,342.52 323.46,342.42 323.46,342.42" fill="none" stroke="rgb(0, 255, 0)" stroke-width="3.01" stroke-opacity="1.00" stroke-linejoin="round"/>
<path d="M323.53,332.63 C323.53,332.63 323.31,332.63 323.31,332.63 C323.31,332.63 322.64,333.21 322.64,333.21 C322.64,333.21 328.38,332.63 328.38,332.63 C327.79,332.78 326.47,333.91 325.96,335.14 C324.93,337.61 325.29,343.19 325.52,345.28 C325.90,349.47 323.00,358.55 323.08,359.20 C322.45,359.27 323.53,343.56 323.59,342.40 C323.66,341.26 323.63,339.44 323.59,338.39" fill="none" stroke="rgb(0, 255, 0)" stroke-width="3.01" stroke-opacity="1.00" stroke-linejoin="round"/>
<path d="M320.87,341.94 C320.30,342.29 319.93,342.51 319.76,342.60 C319.59,342.70 319.36,342.78 319.10,342.86 C319.08,344.06 317.32,350.18 315.55,353.74 C314.20,356.41 311.16,361.31 308.57,363.42 C307.90,363.95 306.15,364.92 306.11,364.94 C308.00,363.91 311.30,360.35 313.47,356.72 C315.28,353.60 317.59,349.61 318.09,348.75" fill="none" stroke="rgb(0, 255, 0)" stroke-width="3.01" stroke-opacity="1.00" stroke-linejoin="round"/>
<path d="M337.71,342.38 C337.71,342.38 335.19,343.27 335.19,343.27 C335.19,343.27 335.29,343.06 335.29,343.06 C335.62,344.46 335.12,347.55 332.97,350.79 C331.16,353.45 318.48,367.99 317.65,368.09 C317.65,368.09 317.36,367.71 317.36,367.71" fill="none" stroke="rgb(0, 255, 0)" stroke-width="3.01" stroke-opacity="1.00" stroke-linejoin="round"/>
<path d="M320.87,364.99 C320.87,364.99 320.87,365.21 320.87,365.21 C320.70,365.40 320.57,365.55 320.47,365.65 C320.02,366.12 319.66,366.42 319.56,366.42 C319.56,366.78 317.38,370.02 316.99,371.73 C316.54,373.79 317.29,378.21 318.85,382.72 C320.47,387.42 321.01,389.51 321.52,393.27 C321.87,395.81 322.84,401.31 323.08,402.67" fill="none" stroke="rgb(0, 255, 0)" stroke-width="3.01" stroke-opacity="1.00" stroke-linejoin="round"/>
<path d="M337.27,376.07 C337.30,376.70 336.54,378.99 334.93,382.16 C334.47,383.07 324.47,400.17 323.75,403.82 C323.35,405.99 324.18,419.35 323.54,424.95 C323.22,427.70 322.50,431.13 322.20,432.37" fill="none" stroke="rgb(0, 255, 0)" stroke-width="3.01" stroke-opacity="1.00" stroke-linejoin="round"/>
<path d="M347.02,368.98 C347.02,368.98 346.80,368.98 346.80,368.98 C346.80,368.98 346.58,369.20 346.58,369.20 C346.58,369.20 346.58,369.42 346.58,369.42 C349.72,366.35 352.49,362.07 354.13,359.03 C355.87,355.78 357.99,350.44 358.53,348.23 C358.47,354.10 355.18,363.79 351.08,374.53 C347.03,385.13 346.41,386.99 346.19,387.74 C346.19,387.74 345.25,388.04 345.25,388.04" fill="none" stroke="rgb(0, 255, 0)" stroke-width="3.01" stroke-opacity="1.00" stroke-linejoin="round"/>
<path d="M342.15,383.16 C342.15,383.16 341.92,383.16 341.92,383.16 C341.42,382.60 341.04,378.89 340.82,376.37 C340.72,375.46 344.87,369.65 344.53,368.64 C344.09,367.44 342.77,364.34 342.44,362.08 C342.16,359.92 342.23,358.10 342.75,356.63 C342.79,356.51 344.43,352.58 344.65,351.75 C345.18,349.65 345.87,340.84 346.27,339.86 C347.18,337.77 351.99,334.16 355.26,332.95 C358.22,331.91 362.45,332.37 363.74,333.66 C364.75,334.74 366.20,339.12 366.64,342.78 C367.04,346.24 367.96,353.59 367.41,357.40 C367.29,358.22 366.35,364.60 366.16,367.24 C365.98,369.90 367.39,376.94 367.23,377.73 C366.89,379.34 362.92,384.92 362.54,387.83 C362.47,388.44 362.54,397.28 361.48,399.03 C360.80,400.13 358.12,402.90 357.54,403.67 C356.88,404.56 357.02,405.55 357.81,407.40 C358.48,408.93 358.98,411.59 358.84,413.39 C358.60,416.09 355.55,422.62 355.20,423.01 C355.12,423.10 354.90,423.27 354.56,423.50" fill="none" stroke="rgb(0, 255, 0)" stroke-width="3.01" stroke-opacity="1.00" stroke-linejoin="round"/>
<path d="M358.55,372.97 C358.44,373.48 357.70,374.25 357.53,374.65 C357.06,375.77 353.84,384.02 352.07,387.31 C348.12,394.60 346.61,399.25 346.10,400.79 C346.10,400.79 346.27,400.88 346.27,400.88 C346.27,400.88 346.58,400.45 346.58,400.45" fill="none" stroke="rgb(0, 255, 0)" stroke-width="3.01" stroke-opacity="1.00" stroke-linejoin="round"/>
<path d="M351.01,401.34 C351.01,401.34 350.12,402.27 350.12,402.27 C349.62,403.57 348.24,407.17 348.09,407.75 C347.99,408.13 347.93,408.65 347.91,409.30" fill="none" stroke="rgb(0, 255, 0)" stroke-width="3.01" stroke-opacity="1.00" stroke-linejoin="round"/>
<path d="M351.45,409.76 C351.45,409.76 350.12,413.75 350.12,413.75 C350.12,413.75 349.75,413.38 349.75,413.38" fill="none" stroke="rgb(0, 255, 0)" stroke-width="3.01" stroke-opacity="1.00" stroke-linejoin="round"/>
<path d="M340.82,392.92 C340.82,392.92 340.82,391.28 340.82,391.28 C340.82,391.26 340.11,397.28 339.57,398.95 C338.46,402.22 334.94,407.08 334.71,409.04 C334.61,409.94 334.94,414.55 334.73,416.33 C334.01,417.21 333.53,417.55 331.99,418.33 C331.18,418.76 330.62,419.67 330.38,420.97 C330.12,422.47 329.51,425.75 329.11,426.57 C329.00,426.79 322.90,433.67 321.92,437.02 C321.70,437.83 320.94,443.18 320.77,443.98 C320.49,445.28 321.72,447.91 322.35,448.13 C327.06,449.79 329.19,450.90 330.37,452.77 C330.49,452.97 330.51,453.08 330.44,453.12 C330.21,452.10 330.32,446.89 331.46,444.08 C332.25,442.17 333.28,440.30 333.72,439.81 C333.64,441.34 333.47,442.54 333.02,444.38 C332.57,446.22 331.99,447.87 330.93,450.49 C333.43,448.10 337.42,444.04 339.13,442.00 C342.30,438.15 346.50,429.36 346.70,428.92 C347.10,428.00 347.51,427.08 347.91,426.16" fill="none" stroke="rgb(0, 255, 0)" stroke-width="3.01" stroke-opacity="1.00" stroke-linejoin="round"/>
<path d="M342.59,415.08 C342.46,415.54 342.21,416.09 341.92,416.54 C341.73,416.85 340.42,420.49 338.48,423.55 C337.50,425.07 331.57,432.52 331.14,433.11 C330.89,433.47 330.42,434.11 329.73,435.03" fill="none" stroke="rgb(0, 255, 0)" stroke-width="3.01" stroke-opacity="1.00" stroke-linejoin="round"/>
<path d="M320.87,449.65 C320.58,450.26 320.39,450.63 320.30,450.76 C320.21,450.89 320.11,450.97 319.98,450.98 C319.98,450.98 320.84,449.44 320.84,449.44 C317.95,454.63 309.12,463.80 308.13,466.31 C307.26,468.63 306.90,475.75 307.39,476.41 C307.57,476.65 308.22,477.33 309.34,478.47" fill="none" stroke="rgb(0, 255, 0)" stroke-width="3.01" stroke-opacity="1.00" stroke-linejoin="round"/>
<path d="M313.33,470.49 C313.33,470.49 312.67,470.71 312.67,470.71 C312.49,470.94 312.41,471.77 312.42,474.04 C312.42,476.32 312.65,477.83 313.21,479.73 C313.21,479.73 314.50,480.64 314.50,480.64" fill="none" stroke="rgb(0, 255, 0)" stroke-width="3.01" stroke-opacity="1.00" stroke-linejoin="round"/>
<path d="M317.32,470.93 C317.32,470.93 315.99,471.04 315.99,471.04 C315.99,475.71 317.69,481.03 318.27,481.99 C318.50,482.36 318.86,482.65 319.37,482.88" fill="none" stroke="rgb(0, 255, 0)" stroke-width="3.01" stroke-opacity="1.00" stroke-linejoin="round"/>
<path d="M319.98,474.48 C319.60,474.97 319.53,475.15 319.54,476.03 C319.59,479.04 320.38,482.31 321.43,483.22 C323.13,482.41 324.00,472.51 324.05,472.24 C324.24,471.39 329.64,465.03 330.63,461.61 C330.87,460.74 331.38,456.77 331.59,455.14 C331.71,454.19 331.83,453.25 331.95,452.31" fill="none" stroke="rgb(0, 255, 0)" stroke-width="3.01" stroke-opacity="1.00" stroke-linejoin="round"/>
<path d="M340.82,308.70 C340.82,308.70 340.37,308.70 340.37,308.70 C338.71,310.99 337.33,316.67 336.03,320.18 C335.10,322.75 334.52,327.81 334.61,332.59 C334.69,335.95 335.05,339.79 335.30,340.64 C335.43,341.06 335.81,342.10 336.42,343.76" fill="none" stroke="rgb(0, 255, 0)" stroke-width="3.01" stroke-opacity="1.00" stroke-linejoin="round"/>
<path d="M340.37,312.24 C340.37,312.24 339.10,312.18 339.10,312.18 C338.93,310.95 340.70,307.57 341.10,306.84 C341.25,306.57 341.40,306.28 341.54,305.98" fill="none" stroke="rgb(0, 255, 0)" stroke-width="3.01" stroke-opacity="1.00" stroke-linejoin="round"/>
<path d="M303.58,265.70 C303.58,265.70 304.33,264.59 304.33,264.59 C305.40,264.71 308.09,268.04 312.05,273.44 C314.50,276.83 319.42,284.25 320.21,285.98 C320.93,287.58 321.67,289.99 321.95,291.36" fill="none" stroke="rgb(0, 255, 0)" stroke-width="3.01" stroke-opacity="1.00" stroke-linejoin="round"/>
<path d="M306.68,262.15 C306.68,262.15 305.80,262.15 305.80,262.15 C310.28,264.26 313.33,266.21 315.16,268.45 C316.96,270.73 319.27,274.87 320.24,277.54 C321.79,281.88 324.12,295.54 323.82,297.23 C323.73,297.74 323.41,299.00 322.88,301.01" fill="none" stroke="rgb(0, 255, 0)" stroke-width="3.01" stroke-opacity="1.00" stroke-linejoin="round"/>
<path d="M315.11,263.93 C315.00,263.87 323.89,278.46 325.77,283.85 C326.92,287.20 327.94,291.91 328.34,295.13 C328.85,299.84 328.62,301.30 327.85,304.06 C327.85,304.06 326.06,303.71 326.06,303.71" fill="none" stroke="rgb(0, 255, 0)" stroke-width="3.01" stroke-opacity="1.00" stroke-linejoin="round"/>
<path d="M321.31,266.58 C321.27,266.52 321.30,266.73 321.31,266.81 C321.55,268.25 322.08,269.43 323.21,270.85 C326.04,274.40 328.51,277.65 329.82,279.95 C331.31,282.62 333.05,288.36 333.39,290.90 C334.24,297.88 332.42,300.22 331.89,300.50 C330.47,299.08 329.96,295.26 329.83,291.82 C329.47,282.69 328.55,274.37 328.48,273.32 C329.63,274.31 331.46,279.66 332.10,282.20 C333.73,288.75 334.80,300.80 334.70,301.32 C334.61,301.73 334.28,302.42 333.72,303.40" fill="none" stroke="rgb(0, 255, 0)" stroke-width="3.01" stroke-opacity="1.00" stroke-linejoin="round"/>
<path d="M339.49,297.17 C338.89,300.94 338.42,304.68 338.23,308.12 C337.77,317.91 337.20,322.64 336.55,327.16 C336.55,327.16 336.83,325.54 336.83,325.54" fill="none" stroke="rgb(0, 255, 0)" stroke-width="3.01" stroke-opacity="1.00" stroke-linejoin="round"/>
<path d="M338.16,308.25 C338.16,308.25 337.05,308.92 337.05,308.92 C336.93,309.22 336.53,316.98 335.74,321.01 C335.42,322.61 334.37,326.63 333.97,328.12 C333.95,328.18 333.93,328.36 333.95,328.30" fill="none" stroke="rgb(0, 255, 0)" stroke-width="3.01" stroke-opacity="1.00" stroke-linejoin="round"/>
<path d="M336.38,311.35 C335.18,313.34 334.69,314.52 334.66,315.83 C334.62,318.56 334.57,323.38 334.72,324.14 C334.81,324.60 335.10,325.49 335.57,326.79" fill="none" stroke="rgb(0, 255, 0)" stroke-width="3.01" stroke-opacity="1.00" stroke-linejoin="round"/>
<path d="M343.48,307.81 C343.48,307.73 343.48,307.66 343.48,307.59 C343.48,307.14 343.48,306.70 343.48,306.26 C343.48,305.91 343.48,305.57 343.48,305.23 C343.26,307.02 340.80,325.78 339.97,329.57 C339.72,330.70 339.53,331.42 339.40,331.73 C339.33,331.90 339.21,332.01 339.05,332.06" fill="none" stroke="rgb(0, 255, 0)" stroke-width="3.01" stroke-opacity="1.00" stroke-linejoin="round"/>
<path d="M345.69,300.72 C345.23,301.03 344.78,303.56 344.79,308.01 C344.80,311.96 344.50,315.97 343.85,318.57 C342.88,322.38 338.69,332.73 337.67,335.00 C337.66,333.94 337.78,332.98 338.16,331.37 C338.31,330.75 338.45,330.14 338.60,329.53" fill="none" stroke="rgb(0, 255, 0)" stroke-width="3.01" stroke-opacity="1.00" stroke-linejoin="round"/>
<path d="M345.69,311.80 C345.62,312.44 345.54,313.08 345.47,313.72 C344.91,318.19 343.96,323.35 343.04,326.20 C341.97,329.42 339.80,334.53 339.18,334.69 C339.18,333.69 339.50,332.23 340.31,329.98 C341.19,327.56 342.49,324.71 343.63,322.72 C344.64,320.96 345.46,319.91 346.14,319.35 C346.14,319.35 346.44,319.90 346.44,319.90 C345.68,322.78 343.73,328.19 342.38,330.13 C341.77,331.01 340.42,332.30 339.53,333.04" fill="none" stroke="rgb(0, 255, 0)" stroke-width="3.01" stroke-opacity="1.00" stroke-linejoin="round"/>
<path d="M340.37,310.91 C339.10,313.81 338.90,320.85 338.66,322.86 C338.57,323.62 338.14,326.10 337.89,327.52 C337.89,327.52 337.71,327.52 337.71,327.52" fill="none" stroke="rgb(0, 255, 0)" stroke-width="3.01" stroke-opacity="1.00" stroke-linejoin="round"/>
<path d="M315.99,256.39 C315.99,256.39 315.73,260.95 315.73,260.95 C317.22,261.79 322.94,260.70 323.24,260.73 C325.45,261.00 328.55,264.35 332.08,268.81 C334.65,272.12 337.65,276.97 338.46,280.63 C339.49,285.48 339.49,297.46 339.49,299.08 C339.49,299.15 339.48,299.35 339.49,299.28 C339.49,299.25 340.90,283.66 340.49,279.42 C340.21,276.76 339.33,272.75 338.67,271.27 C337.23,268.14 333.67,264.35 331.25,262.45 C329.48,261.09 324.34,258.32 322.33,257.58 C319.99,256.75 315.74,256.14 314.82,256.40 C314.35,256.54 313.66,257.02 312.77,257.84" fill="none" stroke="rgb(0, 255, 0)" stroke-width="3.01" stroke-opacity="1.00" stroke-linejoin="round"/>
<path d="M315.55,258.16 C315.55,258.16 314.00,258.83 314.00,258.83 C314.00,258.83 314.07,259.05 314.07,259.05 C315.08,258.81 322.58,256.78 325.29,256.70 C327.83,256.67 333.25,257.90 335.70,259.50 C338.10,261.14 341.17,265.69 341.98,267.97 C343.55,272.51 346.17,290.03 346.25,290.62 C346.30,290.96 346.41,291.67 346.58,292.74" fill="none" stroke="rgb(0, 255, 0)" stroke-width="3.01" stroke-opacity="1.00" stroke-linejoin="round"/>
<path d="M323.97,257.72 C323.97,257.72 324.13,255.88 324.13,255.88 C325.12,255.40 329.58,255.82 331.95,256.56 C334.36,257.34 339.87,260.12 342.03,261.70 C344.58,263.61 347.38,267.46 348.48,270.54 C349.39,273.20 352.16,296.03 352.07,296.27 C351.95,296.58 351.51,297.27 350.75,298.33" fill="none" stroke="rgb(0, 255, 0)" stroke-width="3.01" stroke-opacity="1.00" stroke-linejoin="round"/>
<path d="M344.36,266.58 C343.74,268.28 344.50,271.10 346.38,274.02 C348.45,277.23 350.77,281.63 351.77,284.71 C353.57,290.36 354.50,309.91 354.59,310.41 C354.59,310.41 355.68,308.45 355.68,308.45" fill="none" stroke="rgb(0, 255, 0)" stroke-width="3.01" stroke-opacity="1.00" stroke-linejoin="round"/>
<path d="M349.24,279.44 C349.24,279.44 347.46,277.67 347.46,277.67 C347.50,281.91 349.61,297.93 350.94,303.25 C352.54,309.62 355.93,319.68 357.71,323.89 C357.71,323.89 358.99,324.21 358.99,324.21" fill="none" stroke="rgb(0, 255, 0)" stroke-width="3.01" stroke-opacity="1.00" stroke-linejoin="round"/>
<path d="M346.13,291.85 C346.13,291.85 345.03,292.07 345.03,292.07 C345.04,293.80 345.24,294.82 346.08,297.00 C351.83,312.35 358.38,329.80 359.36,330.59 C359.36,330.59 360.24,327.80 360.24,327.80" fill="none" stroke="rgb(0, 255, 0)" stroke-width="3.01" stroke-opacity="1.00" stroke-linejoin="round"/>
<path d="M355.00,290.52 C354.28,290.82 353.87,292.29 354.67,295.42 C357.40,304.73 359.49,323.06 359.68,323.67 C359.80,324.08 360.15,324.85 360.70,325.98" fill="none" stroke="rgb(0, 255, 0)" stroke-width="3.01" stroke-opacity="1.00" stroke-linejoin="round"/>
<path d="M356.33,291.41 C355.79,292.07 355.50,292.90 355.44,294.31 C355.30,298.07 357.99,314.10 359.30,320.67 C361.31,329.90 363.22,333.71 364.90,336.11 C364.90,336.11 366.34,335.51 366.34,335.51" fill="none" stroke="rgb(0, 255, 0)" stroke-width="3.01" stroke-opacity="1.00" stroke-linejoin="round"/>
<path d="M360.32,319.78 C360.32,319.78 359.65,319.78 359.65,319.78 C359.33,320.32 361.84,325.00 363.34,327.74 C366.01,332.89 367.78,339.13 368.85,343.71 C369.11,344.75 369.37,345.78 369.63,346.82" fill="none" stroke="rgb(0, 255, 0)" stroke-width="3.01" stroke-opacity="1.00" stroke-linejoin="round"/>
<path d="M345.25,303.82 C345.25,303.82 343.70,305.00 343.70,305.00 C343.42,306.31 345.60,310.51 348.34,314.48 C350.09,316.97 351.98,319.02 353.95,321.06" fill="none" stroke="rgb(0, 255, 0)" stroke-width="3.01" stroke-opacity="1.00" stroke-linejoin="round"/>
<path d="M339.49,272.79 C339.83,273.09 340.03,273.91 340.24,276.12 C341.59,291.40 341.67,313.09 341.00,316.38 C340.97,316.53 340.91,316.67 340.82,316.78" fill="none" stroke="rgb(0, 255, 0)" stroke-width="3.01" stroke-opacity="1.00" stroke-linejoin="round"/>
<path d="M342.15,280.33 C342.05,283.26 344.19,296.23 344.52,300.58 C344.70,303.32 344.56,310.27 344.33,310.96 C344.21,311.32 343.85,311.77 343.26,312.28" fill="none" stroke="rgb(0, 255, 0)" stroke-width="3.01" stroke-opacity="1.00" stroke-linejoin="round"/>
<path d="M319.54,261.27 C319.65,263.85 319.96,265.50 320.87,266.40 C322.50,268.01 329.48,272.48 330.94,273.76 C334.35,276.78 337.96,281.94 339.11,285.21 C340.33,288.81 340.54,293.68 340.48,298.55" fill="none" stroke="rgb(0, 255, 0)" stroke-width="3.01" stroke-opacity="1.00" stroke-linejoin="round"/>
<path d="M312.00,262.15 C312.00,262.15 311.56,263.22 311.56,263.22 C313.67,268.54 321.20,280.30 325.33,284.89 C326.51,286.21 328.57,288.50 329.45,289.48" fill="none" stroke="rgb(0, 255, 0)" stroke-width="3.01" stroke-opacity="1.00" stroke-linejoin="round"/>
<path d="M310.23,263.93 C310.78,264.45 311.66,265.40 313.06,267.05 C315.62,270.06 319.34,274.84 320.55,276.75 C321.84,278.81 324.66,284.47 326.30,288.49 C326.88,289.89 328.09,293.06 328.57,294.34" fill="none" stroke="rgb(0, 255, 0)" stroke-width="3.01" stroke-opacity="1.00" stroke-linejoin="round"/>
<path d="M328.40,257.72 C328.40,257.72 327.19,257.83 327.19,257.83 C328.48,258.56 332.78,262.05 334.40,264.24 C337.63,268.67 341.37,278.87 342.27,283.64 C342.72,286.04 343.33,292.66 343.36,294.88 C343.39,296.83 343.18,299.50 342.85,302.08" fill="none" stroke="rgb(0, 255, 0)" stroke-width="3.01" stroke-opacity="1.00" stroke-linejoin="round"/>
<path d="M337.71,279.88 C337.71,279.88 337.71,278.77 337.71,278.77 C337.71,280.31 337.73,283.30 337.74,284.74 C337.90,292.68 338.13,303.48 337.97,305.84 C337.97,305.84 338.16,305.15 338.16,305.15" fill="none" stroke="rgb(0, 255, 0)" stroke-width="3.01" stroke-opacity="1.00" stroke-linejoin="round"/>
<path d="M340.37,288.75 C339.72,290.88 338.55,296.27 338.60,299.13 C338.61,299.82 338.72,301.09 338.90,302.94" fill="none" stroke="rgb(0, 255, 0)" stroke-width="3.01" stroke-opacity="1.00" stroke-linejoin="round"/>
<path d="M329.29,298.94 C329.14,299.49 328.85,300.02 328.85,300.05 C328.70,303.44 327.05,307.66 324.61,310.28 C324.19,310.73 321.29,313.32 320.78,313.88 C320.78,313.88 329.19,304.10 329.19,304.10" fill="none" stroke="rgb(0, 255, 0)" stroke-width="3.01" stroke-opacity="1.00" stroke-linejoin="round"/>
<path d="M319.54,295.84 C319.60,296.49 318.78,298.28 318.15,299.62 C317.63,301.03 317.37,303.91 317.32,306.73 C317.32,306.73 317.61,306.99 317.61,306.99" fill="none" stroke="rgb(0, 255, 0)" stroke-width="3.01" stroke-opacity="1.00" stroke-linejoin="round"/>
<path d="M359.88,430.59 C359.88,430.59 359.65,430.59 359.65,430.59 C359.65,430.59 358.62,431.41 358.62,431.41 C359.15,431.56 360.35,431.44 366.34,430.54 C367.16,430.43 367.98,430.31 368.80,430.20" fill="none" stroke="rgb(0, 255, 0)" stroke-width="3.01" stroke-opacity="1.00" stroke-linejoin="round"/>
<path d="M369.18,399.12 C369.18,399.12 368.52,400.12 368.52,400.12 C368.52,400.12 367.85,400.28 367.85,400.28 C367.85,400.28 367.85,397.87 367.85,397.87 C369.85,403.90 371.51,411.69 372.18,415.40 C372.82,418.99 373.76,424.15 374.06,425.72" fill="none" stroke="rgb(0, 255, 0)" stroke-width="3.01" stroke-opacity="1.00" stroke-linejoin="round"/>
<path d="M358.10,446.11 C354.28,446.10 350.53,446.58 346.42,447.74 C342.54,448.87 338.89,450.04 337.60,451.12 C337.60,451.12 337.58,452.49 337.58,452.49" fill="none" stroke="rgb(0, 255, 0)" stroke-width="3.01" stroke-opacity="1.00" stroke-linejoin="round"/>
<path d="M343.48,448.77 C343.48,448.77 342.21,448.32 342.21,448.32 C342.04,451.68 344.35,465.66 345.43,472.27 C347.01,482.85 350.18,498.91 355.42,520.63 C356.37,524.64 358.04,531.69 358.76,534.74" fill="none" stroke="rgb(0, 255, 0)" stroke-width="3.01" stroke-opacity="1.00" stroke-linejoin="round"/>
<path d="M364.31,457.19 C364.35,458.86 364.43,459.64 364.75,461.21 C369.51,484.23 374.08,523.16 374.21,523.71 C374.30,524.09 374.53,524.66 374.90,525.40" fill="none" stroke="rgb(0, 255, 0)" stroke-width="3.01" stroke-opacity="1.00" stroke-linejoin="round"/>
<path d="M384.26,479.80 C384.26,479.80 384.04,478.01 384.04,478.01 C382.40,477.09 378.46,477.38 372.28,478.50 C363.30,480.07 359.32,481.07 357.94,481.60 C357.94,481.60 358.10,482.46 358.10,482.46" fill="none" stroke="rgb(0, 255, 0)" stroke-width="3.01" stroke-opacity="1.00" stroke-linejoin="round"/>
<path d="M362.54,506.83 C362.54,506.83 359.60,509.05 359.60,509.05 C362.51,508.86 375.90,506.62 380.07,506.19 C382.44,505.95 384.38,506.17 387.29,506.85 C387.29,506.85 387.36,509.49 387.36,509.49" fill="none" stroke="rgb(0, 255, 0)" stroke-width="3.01" stroke-opacity="1.00" stroke-linejoin="round"/>
<path d="M388.69,470.49 C388.69,470.49 387.58,470.84 387.58,470.84 C387.37,471.52 387.33,473.48 387.55,475.88 C388.59,484.85 388.69,496.64 388.69,502.65 C388.53,514.51 388.11,519.64 387.99,520.97 C387.95,521.47 387.89,522.52 387.80,524.12" fill="none" stroke="rgb(0, 255, 0)" stroke-width="3.01" stroke-opacity="1.00" stroke-linejoin="round"/>
<path d="M390.46,509.94 C389.53,511.33 388.96,512.59 389.24,513.59 C391.97,520.88 393.45,529.25 394.03,536.50 C394.20,537.94 394.42,540.11 394.40,541.76 C393.93,541.81 392.23,542.35 391.58,543.02 C390.59,544.07 389.42,547.01 389.40,548.27 C389.40,548.87 389.76,554.97 389.00,555.96 C388.57,556.49 386.86,557.23 385.19,557.71 C384.18,557.98 380.35,555.28 378.79,554.46 C376.93,553.51 371.09,551.81 368.80,552.45 C367.78,552.75 361.24,555.54 358.52,556.05 C356.10,556.49 336.18,558.10 335.67,557.94 C335.41,557.63 333.16,532.90 329.72,483.86 C329.59,482.38 329.14,479.82 328.88,478.47 C328.75,477.78 328.27,474.47 328.09,473.26" fill="none" stroke="rgb(0, 255, 0)" stroke-width="3.01" stroke-opacity="1.00" stroke-linejoin="round"/>
<path d="M358.10,480.68 C358.03,480.64 357.96,480.64 357.88,480.68 C357.60,480.83 357.27,481.14 357.02,481.13 C355.46,481.04 350.58,481.64 347.67,481.63 C344.62,481.61 337.69,480.78 336.69,480.84 C335.55,480.92 332.83,481.47 332.86,481.33 C332.86,481.33 332.03,479.59 332.03,479.59" fill="none" stroke="rgb(0, 255, 0)" stroke-width="3.01" stroke-opacity="1.00" stroke-linejoin="round"/>
<path d="M331.95,475.36 C331.95,475.36 328.40,474.85 328.40,474.85 C329.80,472.75 330.97,471.57 332.73,470.77 C338.22,468.27 347.14,468.05 354.75,468.27 C354.75,468.27 354.11,468.27 354.11,468.27" fill="none" stroke="rgb(0, 255, 0)" stroke-width="3.01" stroke-opacity="1.00" stroke-linejoin="round"/>
<path d="M328.85,471.37 C328.85,471.37 327.30,471.37 327.30,471.37 C327.27,471.54 327.31,471.75 327.43,472.01 C327.54,472.27 327.89,472.94 328.46,474.01" fill="none" stroke="rgb(0, 255, 0)" stroke-width="3.01" stroke-opacity="1.00" stroke-linejoin="round"/>
<path d="M354.56,443.89 C354.56,443.52 354.56,443.15 354.56,442.78 C354.56,442.56 354.56,442.34 354.56,442.12 C354.72,450.62 360.00,470.14 360.74,472.83 C360.74,472.83 360.76,471.73 360.76,471.73" fill="none" stroke="rgb(0, 255, 0)" stroke-width="3.01" stroke-opacity="1.00" stroke-linejoin="round"/>
<path d="M347.91,434.58 C347.91,434.58 345.25,436.36 345.25,436.36 C346.98,436.37 351.76,436.41 352.55,436.36 C353.07,436.32 353.80,436.21 354.74,436.02" fill="none" stroke="rgb(0, 255, 0)" stroke-width="3.01" stroke-opacity="1.00" stroke-linejoin="round"/>
<path d="M337.71,510.82 C337.27,510.82 336.83,510.82 336.38,510.82 C335.96,510.82 335.54,510.82 335.11,510.82 C342.25,510.74 353.43,511.59 353.57,511.60 C353.99,511.63 354.76,511.66 355.89,511.71" fill="none" stroke="rgb(0, 255, 0)" stroke-width="3.01" stroke-opacity="1.00" stroke-linejoin="round"/>
<path d="M335.94,536.98 C335.94,536.98 332.39,538.31 332.39,538.31 C338.71,538.78 348.51,539.47 351.72,539.56 C354.98,539.60 359.50,539.64 360.76,539.64" fill="none" stroke="rgb(0, 255, 0)" stroke-width="3.01" stroke-opacity="1.00" stroke-linejoin="round"/>
<path d="M361.21,533.87 C361.21,533.87 358.99,533.87 358.99,533.87 C360.23,532.61 361.18,531.90 362.80,531.18 C365.68,529.93 369.98,529.14 373.31,529.55 C376.72,530.04 382.51,533.42 385.54,535.33 C388.21,536.76 392.33,537.44 394.94,537.42 C395.11,537.42 395.24,537.42 395.34,537.42" fill="none" stroke="rgb(0, 255, 0)" stroke-width="3.01" stroke-opacity="1.00" stroke-linejoin="round"/>
<path d="M378.49,534.76 C378.49,534.76 378.71,534.76 378.71,534.76 C378.71,534.76 378.94,534.98 378.94,534.98 C378.93,535.22 378.93,535.53 378.94,535.93 C378.99,539.52 379.39,547.93 379.66,550.66 C379.66,550.66 380.21,550.56 380.21,550.56" fill="none" stroke="rgb(0, 255, 0)" stroke-width="3.01" stroke-opacity="1.00" stroke-linejoin="round"/>
<path d="M362.54,540.08 C362.54,540.08 361.65,540.08 361.65,540.08 C361.66,541.49 362.50,550.12 362.57,550.66 C362.62,550.99 362.74,551.57 362.94,552.37" fill="none" stroke="rgb(0, 255, 0)" stroke-width="3.01" stroke-opacity="1.00" stroke-linejoin="round"/>
<path d="M369.18,552.49 C369.18,552.49 366.52,553.01 366.52,553.01 C366.52,553.01 367.83,556.14 367.84,558.85 C367.82,560.01 366.56,566.91 366.30,570.43 C366.08,573.71 366.83,577.55 367.92,579.59 C368.88,581.35 371.75,585.97 372.76,588.46 C373.91,591.39 374.43,594.91 374.46,598.60 C374.49,606.17 374.51,620.94 374.50,628.12 C374.29,641.27 375.33,651.64 375.38,652.82 C375.41,653.76 375.40,656.18 375.39,657.10" fill="none" stroke="rgb(0, 255, 0)" stroke-width="3.01" stroke-opacity="1.00" stroke-linejoin="round"/>
<path d="M343.48,556.92 C342.94,558.49 342.99,562.58 343.38,566.71 C344.39,577.07 347.22,587.63 348.91,593.65 C355.06,617.53 359.03,658.97 359.88,659.47 C359.99,659.52 360.14,659.62 360.32,659.76" fill="none" stroke="rgb(0, 255, 0)" stroke-width="3.01" stroke-opacity="1.00" stroke-linejoin="round"/>
<path d="M376.28,557.81 C376.28,557.81 375.61,557.81 375.61,557.81 C375.61,557.81 375.42,556.71 375.42,556.71 C376.43,557.92 376.85,558.98 376.99,561.17 C377.41,566.99 378.04,572.56 378.57,574.26 C381.55,582.61 385.26,596.70 385.49,601.64 C385.61,604.36 386.00,644.19 386.07,645.38 C386.07,645.38 386.29,645.38 386.29,645.38 C386.29,645.38 386.47,645.13 386.47,645.13" fill="none" stroke="rgb(0, 255, 0)" stroke-width="3.01" stroke-opacity="1.00" stroke-linejoin="round"/>
<path d="M384.70,632.72 C384.70,632.72 383.33,633.61 383.33,633.61 C383.33,633.61 376.71,634.89 376.71,634.89" fill="none" stroke="rgb(0, 255, 0)" stroke-width="3.01" stroke-opacity="1.00" stroke-linejoin="round"/>
<path d="M389.13,650.45 C388.65,650.46 388.21,650.45 388.10,650.55 C385.77,652.73 378.64,656.54 377.43,657.18 C377.43,657.18 377.61,657.10 377.61,657.10" fill="none" stroke="rgb(0, 255, 0)" stroke-width="3.01" stroke-opacity="1.00" stroke-linejoin="round"/>
<path d="M390.02,650.90 C390.02,650.90 389.13,651.78 389.13,651.78 C390.62,653.48 391.24,654.65 391.25,656.22 C391.27,661.50 390.51,669.46 390.06,670.52 C389.68,671.19 385.49,670.96 381.65,670.15 C380.75,669.94 379.84,669.72 378.94,669.51" fill="none" stroke="rgb(0, 255, 0)" stroke-width="3.01" stroke-opacity="1.00" stroke-linejoin="round"/>
<path d="M378.05,658.43 C378.05,658.43 378.05,658.65 378.05,658.65 C377.78,659.12 376.94,659.39 376.66,659.59 C376.36,659.81 370.48,666.04 368.54,666.96 C364.31,668.86 355.38,666.23 355.43,666.01 C355.43,666.01 360.31,658.80 360.31,658.80 C357.48,661.29 352.64,664.81 349.51,667.05 C348.37,667.93 344.06,672.49 342.49,673.78 C340.00,675.81 329.31,678.87 324.28,680.29 C322.95,680.73 321.84,682.16 320.71,684.80 C319.78,687.17 318.04,691.58 318.27,692.29 C318.86,693.71 323.60,696.16 326.38,696.70 C328.78,697.13 332.54,697.10 335.05,696.58 C337.99,695.93 349.41,690.43 351.99,689.58 C352.55,689.39 353.11,689.20 353.67,689.02" fill="none" stroke="rgb(0, 255, 0)" stroke-width="3.01" stroke-opacity="1.00" stroke-linejoin="round"/>
<path d="M355.44,687.69 C355.44,687.69 353.67,688.61 353.67,688.61 C353.82,689.03 368.11,688.98 371.46,689.27 C373.61,689.45 375.08,689.15 376.46,688.33 C377.48,687.65 379.21,682.11 379.16,678.81 C379.12,677.23 379.02,674.11 378.89,672.13 C378.72,669.51 378.17,663.66 378.05,662.42" fill="none" stroke="rgb(0, 255, 0)" stroke-width="3.01" stroke-opacity="1.00" stroke-linejoin="round"/>
<path d="M332.39,681.48 C332.39,681.48 332.39,680.59 332.39,680.59 C331.48,680.72 329.83,681.46 328.80,682.39 C328.05,683.08 325.98,686.10 325.45,687.07 C325.31,687.33 325.26,687.52 325.28,687.65" fill="none" stroke="rgb(0, 255, 0)" stroke-width="3.01" stroke-opacity="1.00" stroke-linejoin="round"/>
<path d="M335.50,679.26 C334.10,681.06 332.86,682.81 332.43,683.86 C332.25,684.29 331.95,685.22 331.51,686.65 C331.51,686.65 331.81,686.18 331.81,686.18" fill="none" stroke="rgb(0, 255, 0)" stroke-width="3.01" stroke-opacity="1.00" stroke-linejoin="round"/>
<path d="M336.83,680.59 C336.24,681.56 335.50,682.55 335.43,682.74 C335.03,683.80 334.48,686.27 334.33,687.39 C334.33,687.39 335.58,685.94 335.58,685.94" fill="none" stroke="rgb(0, 255, 0)" stroke-width="3.01" stroke-opacity="1.00" stroke-linejoin="round"/>
<path d="M340.82,677.05 C340.27,677.68 340.02,678.22 339.85,679.37 C339.45,681.99 338.69,686.85 338.73,686.99 C338.73,686.99 339.93,683.70 339.93,683.70" fill="none" stroke="rgb(0, 255, 0)" stroke-width="3.01" stroke-opacity="1.00" stroke-linejoin="round"/>
<path d="M343.92,675.72 C343.92,675.72 345.36,673.72 345.36,673.72 C345.36,673.72 345.58,673.78 345.58,673.78 C344.65,676.20 343.25,681.41 342.81,683.04 C342.72,683.41 342.61,683.82 342.50,684.29" fill="none" stroke="rgb(0, 255, 0)" stroke-width="3.01" stroke-opacity="1.00" stroke-linejoin="round"/>
<path d="M351.45,670.40 C351.36,670.57 351.21,670.79 351.01,671.06 C349.96,672.54 349.39,673.36 349.30,673.51 C348.33,675.07 347.02,679.42 346.30,682.89 C346.30,682.89 347.67,681.86 347.67,681.86" fill="none" stroke="rgb(0, 255, 0)" stroke-width="3.01" stroke-opacity="1.00" stroke-linejoin="round"/>
<path d="M354.11,669.51 C354.11,669.51 351.75,682.35 351.75,682.35 C351.75,682.35 352.53,681.14 352.53,681.14" fill="none" stroke="rgb(0, 255, 0)" stroke-width="3.01" stroke-opacity="1.00" stroke-linejoin="round"/>
<path d="M357.66,668.63 C357.66,668.63 357.66,667.74 357.66,667.74 C357.56,669.97 356.84,674.18 356.84,674.69 C356.84,675.02 356.92,675.52 357.09,676.20" fill="none" stroke="rgb(0, 255, 0)" stroke-width="3.01" stroke-opacity="1.00" stroke-linejoin="round"/>
<path d="M360.32,668.63 C360.19,668.65 359.61,671.34 359.55,674.20 C359.53,674.79 359.52,675.37 359.51,675.96 C360.18,674.94 360.63,674.23 360.85,673.84 C360.99,673.58 362.41,670.63 362.73,670.08 C362.84,669.90 362.99,669.67 363.20,669.39 C363.20,669.39 363.37,669.64 363.37,669.64 C363.41,669.91 363.39,670.23 363.28,670.60 C363.18,670.97 362.85,671.91 362.31,673.41" fill="none" stroke="rgb(0, 255, 0)" stroke-width="3.01" stroke-opacity="1.00" stroke-linejoin="round"/>
<path d="M357.66,652.67 C356.96,653.12 356.48,653.93 356.33,654.22 C356.15,654.55 353.27,655.82 351.38,656.76 C348.72,657.96 346.06,657.89 340.65,657.26 C338.53,658.28 335.04,663.51 334.74,665.26 C334.60,666.39 335.27,668.21 336.17,668.94 C337.00,669.60 339.27,670.48 340.86,670.88 C341.38,671.00 343.91,671.54 344.80,671.73" fill="none" stroke="rgb(0, 255, 0)" stroke-width="3.01" stroke-opacity="1.00" stroke-linejoin="round"/>
<path d="M346.13,656.66 C345.54,657.11 343.80,658.68 342.30,662.53 C342.12,663.00 341.83,663.80 341.42,664.94 C341.42,664.94 343.03,663.31 343.03,663.31" fill="none" stroke="rgb(0, 255, 0)" stroke-width="3.01" stroke-opacity="1.00" stroke-linejoin="round"/>
<path d="M349.68,655.77 C349.10,657.28 348.36,658.47 348.17,658.91 C347.35,660.74 346.71,663.06 346.74,663.86 C346.74,663.86 347.66,662.75 347.66,662.75" fill="none" stroke="rgb(0, 255, 0)" stroke-width="3.01" stroke-opacity="1.00" stroke-linejoin="round"/>
<path d="M352.78,655.77 C351.92,657.14 351.15,658.81 351.01,659.91 C350.97,660.28 350.97,660.93 351.01,661.88 C351.01,661.88 351.60,661.85 351.60,661.85" fill="none" stroke="rgb(0, 255, 0)" stroke-width="3.01" stroke-opacity="1.00" stroke-linejoin="round"/>
<path d="M356.77,653.56 C356.24,654.85 355.94,656.20 355.89,657.78 C355.88,658.06 355.88,658.42 355.89,658.87" fill="none" stroke="rgb(0, 255, 0)" stroke-width="3.01" stroke-opacity="1.00" stroke-linejoin="round"/>
<path d="M360.76,644.69 C360.76,644.69 359.54,644.69 359.54,644.69 C359.54,644.69 358.99,645.13 358.99,645.13 C358.98,645.14 359.04,645.16 359.17,645.21 C359.56,645.33 359.94,645.45 360.32,645.58" fill="none" stroke="rgb(0, 255, 0)" stroke-width="3.01" stroke-opacity="1.00" stroke-linejoin="round"/>
<path d="M361.65,645.13 C361.74,645.10 361.89,645.10 362.09,645.13 C362.69,645.24 363.36,645.40 364.09,645.61 C369.84,647.25 374.25,646.61 374.37,646.46 C374.37,646.46 375.83,646.91 375.83,646.91" fill="none" stroke="rgb(0, 255, 0)" stroke-width="3.01" stroke-opacity="1.00" stroke-linejoin="round"/>
<path d="M390.90,615.88 C390.60,615.81 389.45,616.10 388.61,616.32 C388.39,616.36 388.18,616.36 387.96,616.32 C387.96,616.32 397.95,615.46 397.95,615.46 C397.47,616.54 396.11,619.62 395.82,620.34 C394.88,622.81 394.71,624.49 395.55,625.31 C397.49,627.14 398.14,627.91 398.93,629.37 C398.03,631.81 397.57,634.52 398.13,637.08 C398.38,638.16 400.55,642.58 400.57,642.91 C400.57,642.91 399.33,643.80 399.33,643.80 C399.33,643.80 398.88,644.25 398.88,644.25" fill="none" stroke="rgb(0, 255, 255)" stroke-width="3.01" stroke-opacity="1.00" stroke-linejoin="round"/>
<path d="M390.02,642.47 C390.02,642.47 390.02,642.03 390.02,642.03 C390.02,642.03 389.57,642.03 389.57,642.03 C389.57,642.03 401.63,646.17 401.63,646.17 C402.00,646.80 404.25,648.15 405.07,648.73 C405.44,648.99 405.21,652.43 406.01,654.09 C407.29,654.74 409.25,655.29 409.97,655.51 C411.63,656.01 412.59,656.88 413.05,658.07 C412.85,659.13 409.70,663.64 410.22,664.80 C410.34,665.04 410.68,665.63 411.25,666.58 C410.56,667.12 395.29,667.78 394.56,667.89 C394.31,667.93 393.83,668.03 393.12,668.18" fill="none" stroke="rgb(0, 255, 255)" stroke-width="3.01" stroke-opacity="1.00" stroke-linejoin="round"/>
<path d="M391.79,649.57 C391.79,649.57 389.21,648.68 389.21,648.68 C390.40,648.75 394.56,649.15 395.27,649.24 C396.18,649.35 397.09,649.46 398.00,649.57" fill="none" stroke="rgb(0, 255, 255)" stroke-width="3.01" stroke-opacity="1.00" stroke-linejoin="round"/>
<path d="M396.22,654.00 C396.24,654.34 396.19,654.63 396.06,654.81 C396.02,654.86 395.93,654.97 395.78,655.11 C396.86,655.17 399.85,655.32 400.52,655.33 C400.95,655.34 401.74,655.34 402.87,655.33" fill="none" stroke="rgb(0, 255, 255)" stroke-width="3.01" stroke-opacity="1.00" stroke-linejoin="round"/>
<path d="M396.67,659.76 C396.67,659.76 396.45,660.65 396.45,660.65 C396.45,660.65 396.22,660.65 396.22,660.65 C402.04,660.62 404.15,660.40 405.55,659.99 C405.79,659.92 405.93,659.84 405.98,659.76" fill="none" stroke="rgb(0, 255, 255)" stroke-width="3.01" stroke-opacity="1.00" stroke-linejoin="round"/>
<path d="M397.55,663.31 C397.55,663.31 397.55,664.37 397.55,664.37 C397.53,664.89 403.27,663.99 404.84,663.44 C405.35,663.26 406.02,662.92 406.86,662.42" fill="none" stroke="rgb(0, 255, 255)" stroke-width="3.01" stroke-opacity="1.00" stroke-linejoin="round"/>
<path d="M401.10,632.28 C401.10,632.28 401.22,631.39 401.22,631.39 C401.22,631.39 421.75,629.62 421.75,629.62 C421.75,629.62 420.63,630.05 420.63,630.05" fill="none" stroke="rgb(0, 255, 255)" stroke-width="3.01" stroke-opacity="1.00" stroke-linejoin="round"/>
<path d="M398.44,638.93 C398.44,638.93 396.22,639.81 396.22,639.81 C403.46,637.83 412.92,636.74 417.10,636.71 C417.68,636.71 418.25,636.71 418.83,636.71" fill="none" stroke="rgb(0, 255, 255)" stroke-width="3.01" stroke-opacity="1.00" stroke-linejoin="round"/>
<path d="M421.49,627.85 C420.54,628.29 419.55,629.10 419.33,629.90 C418.83,631.93 419.63,636.34 420.33,638.27 C420.33,638.27 421.90,639.30 421.90,639.30 C424.95,639.06 432.12,637.51 432.82,637.35 C437.18,636.37 443.27,636.76 445.90,637.87 C448.02,638.84 448.41,642.67 448.27,644.29 C446.20,646.02 440.74,647.85 439.06,648.45 C437.61,648.97 437.02,649.41 436.67,650.10 C436.97,651.22 440.90,654.94 442.66,654.95 C444.24,654.90 449.97,652.72 452.49,651.02 C455.18,649.16 458.33,645.35 458.56,643.45 C458.71,641.95 457.44,636.68 456.43,634.31 C455.32,631.81 452.87,628.73 450.62,627.85 C441.71,624.59 421.69,628.35 421.32,628.50 C420.96,628.64 420.28,629.02 419.27,629.62" fill="none" stroke="rgb(0, 255, 255)" stroke-width="3.01" stroke-opacity="1.00" stroke-linejoin="round"/>
<path d="M421.05,633.61 C421.05,633.61 420.60,633.61 420.60,633.61 C423.55,633.61 430.57,633.60 434.64,633.59 C439.11,633.53 443.72,632.89 446.77,631.57 C445.91,631.39 430.85,632.44 426.38,633.28 C425.14,633.52 423.92,633.86 422.13,634.43 C424.35,635.36 431.13,635.00 434.85,634.75 C441.33,634.26 450.29,632.83 451.58,632.40 C451.58,632.40 450.30,632.28 450.30,632.28" fill="none" stroke="rgb(0, 255, 255)" stroke-width="3.01" stroke-opacity="1.00" stroke-linejoin="round"/>
<path d="M448.53,629.62 C448.53,629.62 447.20,629.62 447.20,629.62 C447.20,629.62 452.90,632.40 452.90,632.40 C452.90,632.40 447.62,632.49 447.62,632.49 C447.34,631.93 448.03,631.46 449.19,631.80 C450.07,632.06 452.65,634.21 453.35,634.81 C453.74,635.14 455.99,636.38 457.39,637.15" fill="none" stroke="rgb(0, 255, 255)" stroke-width="3.01" stroke-opacity="1.00" stroke-linejoin="round"/>
<path d="M451.19,636.27 C451.19,636.27 443.21,635.82 443.21,635.82" fill="none" stroke="rgb(0, 255, 255)" stroke-width="3.01" stroke-opacity="1.00" stroke-linejoin="round"/>
<path d="M443.21,635.82 C443.21,635.82 449.42,634.94 449.42,634.94" fill="none" stroke="rgb(0, 255, 255)" stroke-width="3.01" stroke-opacity="1.00" stroke-linejoin="round"/>
<path d="M447.20,634.94 C447.20,634.94 443.32,634.94 443.32,634.94" fill="none" stroke="rgb(0, 255, 255)" stroke-width="3.01" stroke-opacity="1.00" stroke-linejoin="round"/>
<path d="M448.97,634.05 C449.83,634.36 454.15,641.30 456.01,642.92 C456.34,643.20 457.10,643.79 458.28,644.69" fill="none" stroke="rgb(0, 255, 255)" stroke-width="3.01" stroke-opacity="1.00" stroke-linejoin="round"/>
<path d="M452.52,638.93 C452.52,638.93 451.63,640.21 451.63,640.21 C452.00,644.91 452.04,646.31 451.74,647.31 C451.60,647.77 451.20,648.84 450.52,650.53" fill="none" stroke="rgb(0, 255, 255)" stroke-width="3.01" stroke-opacity="1.00" stroke-linejoin="round"/>
<path d="M452.08,638.48 C452.08,638.48 451.63,638.93 451.63,638.93 C451.61,638.77 451.55,646.62 451.18,647.97 C451.07,648.33 450.80,648.98 450.35,649.93" fill="none" stroke="rgb(0, 255, 255)" stroke-width="3.01" stroke-opacity="1.00" stroke-linejoin="round"/>
<path d="M454.73,636.71 C454.73,636.71 457.17,636.93 457.17,636.93 C457.40,637.31 457.35,639.00 456.93,641.09 C456.50,643.15 455.53,645.13 454.29,646.61 C453.96,647.00 451.66,649.48 451.38,649.69 C451.15,649.86 450.73,650.08 450.13,650.34" fill="none" stroke="rgb(0, 255, 255)" stroke-width="3.01" stroke-opacity="1.00" stroke-linejoin="round"/>
<path d="M453.40,644.25 C453.41,644.55 453.41,644.77 453.40,644.91 C453.35,645.36 453.06,646.42 452.52,646.83 C449.85,648.80 444.58,650.54 440.67,651.59 C441.44,651.18 442.20,650.77 442.97,650.36 C444.24,649.66 446.57,648.38 447.64,647.79" fill="none" stroke="rgb(0, 255, 255)" stroke-width="3.01" stroke-opacity="1.00" stroke-linejoin="round"/>
<path d="M450.30,646.46 C450.30,646.46 452.30,646.02 452.30,646.02 C452.22,646.10 452.13,646.17 452.02,646.24 C448.32,648.55 443.13,650.38 439.12,651.59 C439.12,651.59 449.33,648.85 449.33,648.85 C448.75,648.10 443.18,648.79 441.68,650.41 C442.34,651.51 444.09,652.42 445.76,652.00 C446.30,651.86 447.30,651.39 448.76,650.57" fill="none" stroke="rgb(0, 255, 255)" stroke-width="3.01" stroke-opacity="1.00" stroke-linejoin="round"/>
<path d="M445.87,650.45 C445.87,650.45 444.98,650.45 444.98,650.45" fill="none" stroke="rgb(0, 255, 255)" stroke-width="3.01" stroke-opacity="1.00" stroke-linejoin="round"/>
<path d="M439.66,653.11 C439.66,653.11 437.45,654.44 437.45,654.44 C438.96,654.51 441.34,654.50 442.43,654.31 C443.51,654.12 445.69,653.32 447.05,652.74" fill="none" stroke="rgb(0, 255, 255)" stroke-width="3.01" stroke-opacity="1.00" stroke-linejoin="round"/>
<path d="M436.56,651.78 C436.53,651.48 436.62,651.03 436.78,650.77 C436.82,650.70 436.90,650.63 437.00,650.55 C437.00,650.55 437.00,650.01 437.00,650.01 C437.00,650.01 436.56,651.77 436.56,651.77 C437.56,652.93 438.65,653.49 440.30,653.41 C443.55,653.23 448.51,651.28 450.15,649.48 C451.50,647.93 452.23,644.20 452.20,643.09 C452.20,643.09 451.63,642.49 451.63,642.49 C451.41,642.46 451.11,642.47 451.02,642.23 C450.85,641.76 450.48,640.21 450.46,640.01 C450.46,640.01 450.93,639.99 450.93,639.99" fill="none" stroke="rgb(0, 255, 255)" stroke-width="3.01" stroke-opacity="1.00" stroke-linejoin="round"/>
<path d="M449.86,635.82 C449.86,635.82 448.75,636.71 448.75,636.71 C448.75,636.71 448.31,635.80 448.31,635.80 C446.11,635.38 438.78,634.75 437.59,634.67 C434.40,634.47 429.82,635.27 428.87,635.47 C427.72,635.73 424.52,635.81 423.76,635.82 C422.69,635.81 422.10,635.48 421.05,634.50" fill="none" stroke="rgb(0, 255, 255)" stroke-width="3.01" stroke-opacity="1.00" stroke-linejoin="round"/>
<path d="M423.26,629.62 C423.15,629.62 422.84,629.62 422.64,629.62 C422.57,629.62 422.49,629.62 422.42,629.62 C422.37,631.16 423.83,633.32 425.27,633.96 C426.42,634.44 431.34,634.29 434.60,633.20 C435.07,633.04 435.76,632.78 436.66,632.41" fill="none" stroke="rgb(0, 255, 255)" stroke-width="3.01" stroke-opacity="1.00" stroke-linejoin="round"/>
<path d="M431.24,633.17 C431.24,633.17 431.24,635.82 431.24,635.82 C431.32,635.88 431.51,635.91 431.81,635.90 C439.18,635.38 453.98,634.48 454.45,634.51 C454.77,634.47 455.15,636.75 455.11,638.96 C455.09,639.44 454.00,643.51 453.66,644.81" fill="none" stroke="rgb(0, 255, 255)" stroke-width="3.01" stroke-opacity="1.00" stroke-linejoin="round"/>
<path d="M450.30,638.04 C450.30,638.44 450.31,641.58 450.36,642.54 C450.40,643.44 450.84,647.76 450.75,648.53 C450.68,649.00 450.44,649.89 450.01,651.19" fill="none" stroke="rgb(0, 255, 255)" stroke-width="3.01" stroke-opacity="1.00" stroke-linejoin="round"/>
<path d="M452.96,635.38 C452.45,636.29 452.08,636.79 452.08,636.93 C452.04,637.49 451.93,644.49 450.76,647.04 C450.36,647.90 449.07,649.27 446.96,651.34" fill="none" stroke="rgb(0, 255, 255)" stroke-width="3.01" stroke-opacity="1.00" stroke-linejoin="round"/>
<path d="M353.67,618.09 C353.72,618.40 353.72,618.62 353.67,618.76 C353.66,618.78 352.66,620.19 352.45,620.44 C351.86,621.09 344.00,624.08 341.43,624.79 C337.80,625.78 332.82,628.29 329.96,629.00 C324.45,630.37 313.03,634.91 304.52,636.70 C304.38,636.73 242.18,653.15 241.49,653.53 C241.27,654.70 241.18,655.94 241.25,657.52 C241.40,660.34 242.08,663.05 242.40,664.16" fill="none" stroke="rgb(0, 255, 255)" stroke-width="3.01" stroke-opacity="1.00" stroke-linejoin="round"/>
<path d="M240.19,656.66 C239.98,656.61 239.76,656.61 239.53,656.66 C239.34,656.69 237.57,657.17 237.53,657.10 C237.16,656.65 233.37,656.68 230.33,657.57 C227.53,658.40 221.21,660.29 219.03,660.77 C216.66,661.28 211.10,662.02 208.13,663.33 C208.38,664.66 208.88,665.33 210.16,665.59 C212.96,666.13 217.57,665.61 222.67,664.32 C226.74,663.29 237.93,661.87 239.43,661.45 C239.43,661.45 239.31,661.09 239.31,661.09" fill="none" stroke="rgb(0, 255, 255)" stroke-width="3.01" stroke-opacity="1.00" stroke-linejoin="round"/>
<path d="M239.31,660.20 C239.31,660.20 239.20,662.64 239.20,662.64 C238.49,662.39 231.00,662.39 227.64,662.36 C225.48,662.37 213.45,664.10 210.90,664.19 C219.33,664.58 236.29,658.67 237.43,658.20 C237.43,658.20 228.04,659.05 228.04,659.05 C228.53,659.40 230.20,659.46 232.85,659.13 C233.59,659.04 241.12,657.76 242.41,657.54" fill="none" stroke="rgb(0, 255, 255)" stroke-width="3.01" stroke-opacity="1.00" stroke-linejoin="round"/>
<path d="M241.97,664.64 C241.97,664.64 241.97,663.85 241.97,663.85 C242.38,663.76 242.78,663.75 245.02,663.76 C248.13,663.78 251.94,663.28 254.71,662.68 C258.46,661.86 261.14,661.79 264.83,662.39 C265.47,662.51 268.04,662.99 269.01,663.28 C269.97,663.56 273.15,664.66 274.33,665.08" fill="none" stroke="rgb(0, 255, 255)" stroke-width="3.01" stroke-opacity="1.00" stroke-linejoin="round"/>
<path d="M332.39,668.18 C326.17,668.18 310.52,668.10 310.25,668.13 C302.10,669.08 297.52,669.03 284.12,668.15 C281.12,667.94 274.08,665.93 271.76,665.64 C271.43,665.60 271.11,665.56 270.78,665.52" fill="none" stroke="rgb(0, 255, 255)" stroke-width="3.01" stroke-opacity="1.00" stroke-linejoin="round"/>
<path d="M304.91,667.30 C304.50,667.29 304.21,667.29 304.04,667.30 C302.98,667.33 298.96,665.90 295.36,665.32 C282.62,663.30 261.47,664.61 257.99,664.49 C255.16,664.38 250.91,664.24 249.50,664.19" fill="none" stroke="rgb(0, 255, 255)" stroke-width="3.01" stroke-opacity="1.00" stroke-linejoin="round"/>
<path d="M354.56,641.14 C354.56,641.14 354.11,642.36 354.11,642.36 C353.13,641.50 349.13,641.75 346.09,642.21 C339.05,643.32 317.57,647.93 317.44,647.95 C307.95,648.88 290.89,651.54 279.19,652.59 C275.25,652.96 270.16,653.44 269.01,653.56" fill="none" stroke="rgb(0, 255, 255)" stroke-width="3.01" stroke-opacity="1.00" stroke-linejoin="round"/>
<path d="M272.11,660.65 C272.11,660.65 269.89,660.65 269.89,660.65 C277.33,659.91 288.82,659.53 295.35,657.59 C300.24,656.16 310.59,655.91 320.30,654.84 C323.45,654.46 343.49,650.56 349.19,650.02 C350.30,649.91 354.62,649.66 355.92,649.58 C355.92,649.58 356.31,648.81 356.31,648.81" fill="none" stroke="rgb(0, 255, 255)" stroke-width="3.01" stroke-opacity="1.00" stroke-linejoin="round"/>
<path d="M356.33,650.45 C355.80,650.61 353.79,651.13 352.03,651.62 C351.69,651.71 341.74,654.00 338.59,654.94 C337.06,655.40 331.41,656.95 326.56,656.91 C324.77,656.90 321.67,657.26 321.00,657.64 C320.76,657.79 320.44,658.13 320.05,658.68" fill="none" stroke="rgb(0, 255, 255)" stroke-width="3.01" stroke-opacity="1.00" stroke-linejoin="round"/>
<path d="M350.12,627.85 C349.22,628.10 348.64,628.27 348.37,628.35 C344.82,629.48 332.81,634.19 327.71,634.93 C324.18,635.44 317.11,637.58 306.27,639.92 C305.39,640.11 303.51,640.63 302.32,640.99" fill="none" stroke="rgb(0, 255, 255)" stroke-width="3.01" stroke-opacity="1.00" stroke-linejoin="round"/>
<path d="M349.68,628.29 C349.68,628.29 348.42,628.95 348.42,628.95 C348.39,629.07 350.61,628.11 352.33,624.82 C352.47,624.54 352.58,624.31 352.67,624.12" fill="none" stroke="rgb(0, 255, 255)" stroke-width="3.01" stroke-opacity="1.00" stroke-linejoin="round"/>
<path d="M65.55,625.63 C65.55,625.63 65.55,625.41 65.55,625.41 C65.07,625.11 64.57,624.77 64.22,624.74 C62.23,624.62 55.67,627.07 54.17,627.41 C49.04,628.26 39.71,630.02 31.90,632.91 C29.36,633.89 27.39,635.44 26.75,636.97 C26.53,637.58 27.27,640.06 27.61,640.55 C28.34,641.46 30.32,642.28 32.44,642.50 C38.73,643.09 74.18,641.87 85.77,641.70 C89.67,641.47 98.48,640.52 101.01,640.08 C106.07,639.17 110.60,637.60 111.04,636.58 C111.11,636.40 111.17,636.01 111.23,635.40 C110.34,633.95 105.36,632.02 101.01,631.25 C96.99,630.56 91.42,630.72 88.51,630.83" fill="none" stroke="rgb(229, 0, 16)" stroke-width="3.01" stroke-opacity="1.00" stroke-linejoin="round"/>
<path d="M67.76,626.96 C67.76,626.96 67.76,626.07 67.76,626.07 C67.76,626.07 64.83,634.32 64.83,634.32 C64.83,634.32 64.96,634.89 64.96,634.89" fill="none" stroke="rgb(229, 0, 16)" stroke-width="3.01" stroke-opacity="1.00" stroke-linejoin="round"/>
<path d="M62.44,636.27 C62.44,636.27 60.67,635.38 60.67,635.38 C61.26,635.72 61.64,635.94 61.78,636.05 C61.93,636.16 62.07,636.30 62.18,636.47" fill="none" stroke="rgb(229, 0, 16)" stroke-width="3.01" stroke-opacity="1.00" stroke-linejoin="round"/>
<path d="M70.42,635.82 C70.42,635.82 70.20,635.82 70.20,635.82 C70.20,635.82 69.54,634.94 69.54,634.94 C69.66,634.95 71.49,634.39 72.78,633.93 C72.99,633.85 73.39,633.74 73.97,633.61" fill="none" stroke="rgb(229, 0, 16)" stroke-width="3.01" stroke-opacity="1.00" stroke-linejoin="round"/>
<path d="M218.92,658.87 C218.47,658.87 216.15,658.88 215.39,658.94 C195.63,660.51 174.10,663.49 159.25,665.65 C152.23,666.70 135.22,669.30 131.74,669.73 C124.13,670.61 106.27,674.61 105.88,674.65 C105.38,674.69 97.82,674.71 95.15,674.88 C91.90,675.11 87.53,675.78 83.42,676.68 C80.03,677.45 74.81,679.77 72.48,682.04 C71.35,683.16 70.69,684.40 70.28,685.87 C70.76,687.06 71.68,688.20 73.23,689.11 C78.07,691.91 90.21,694.19 95.77,694.61 C98.45,694.81 118.40,695.76 126.56,696.11 C137.12,696.45 142.79,696.42 152.64,695.71 C168.08,694.51 193.65,692.71 197.19,693.02 C193.75,697.15 193.03,699.32 193.22,700.16 C194.37,701.39 200.18,702.41 200.55,702.49 C202.14,702.86 203.28,703.79 204.16,705.38 C204.96,706.83 206.39,708.57 207.65,709.29 C211.65,711.51 225.35,712.13 235.96,712.14 C243.87,712.08 259.71,711.94 267.64,711.85 C278.27,711.65 289.22,710.93 292.66,709.43 C294.11,708.77 295.37,707.39 295.40,706.47 C295.36,704.92 293.31,700.64 290.76,696.79 C288.54,693.44 285.79,688.73 285.51,687.46 C288.95,686.36 297.95,686.35 300.64,686.28 C302.08,686.24 302.97,686.20 303.32,686.16 C303.57,686.14 303.82,686.06 304.07,685.95" fill="none" stroke="rgb(229, 0, 16)" stroke-width="3.01" stroke-opacity="1.00" stroke-linejoin="round"/>
<path d="M318.21,670.40 C318.21,670.40 318.08,669.73 318.08,669.73 C318.08,669.73 310.07,677.61 310.07,677.61 C310.07,677.61 310.14,677.90 310.14,677.90" fill="none" stroke="rgb(229, 0, 16)" stroke-width="3.01" stroke-opacity="1.00" stroke-linejoin="round"/>
<path d="M310.67,670.84 C310.67,670.84 310.23,670.40 310.23,670.40 C309.92,670.41 309.64,670.57 309.38,670.87 C308.03,672.45 305.76,676.72 305.35,677.49" fill="none" stroke="rgb(229, 0, 16)" stroke-width="3.01" stroke-opacity="1.00" stroke-linejoin="round"/>
<path d="M307.13,673.50 C305.88,673.49 304.72,674.14 303.69,675.01 C303.36,675.30 302.60,675.98 301.42,677.05" fill="none" stroke="rgb(229, 0, 16)" stroke-width="3.01" stroke-opacity="1.00" stroke-linejoin="round"/>
<path d="M121.84,681.48 C121.45,681.55 117.36,680.22 115.11,681.30 C113.91,681.89 113.00,682.97 112.59,684.01 C114.15,685.73 115.23,686.37 117.08,686.35 C124.74,686.36 140.13,684.14 141.74,683.85 C142.30,683.75 143.56,683.50 145.54,683.12" fill="none" stroke="rgb(229, 0, 16)" stroke-width="3.01" stroke-opacity="1.00" stroke-linejoin="round"/>
<path d="M129.82,677.94 C129.95,677.61 130.11,677.40 130.49,677.05 C130.55,676.99 130.63,676.91 130.71,676.83 C130.71,676.83 128.91,675.02 128.91,675.02 C128.91,675.02 126.95,676.75 126.95,676.75 C128.66,678.11 130.14,678.37 132.01,677.62 C132.01,677.62 131.28,678.68 131.28,678.68 C131.32,679.13 136.00,677.64 139.47,676.23 C142.45,674.97 142.89,674.89 142.84,674.94 C142.84,674.94 139.09,677.89 139.09,677.89 C139.09,677.89 142.68,677.49 142.68,677.49" fill="none" stroke="rgb(229, 0, 16)" stroke-width="3.01" stroke-opacity="1.00" stroke-linejoin="round"/>
<path d="M152.43,671.73 C148.99,673.88 145.28,676.47 143.65,678.11 C143.35,678.41 143.04,678.81 142.72,679.30 C142.72,679.30 145.49,678.70 145.49,678.70" fill="none" stroke="rgb(229, 0, 16)" stroke-width="3.01" stroke-opacity="1.00" stroke-linejoin="round"/>
<path d="M159.52,669.51 C159.57,669.46 159.37,669.49 159.30,669.51 C157.72,670.06 156.10,670.93 154.66,672.10 C152.21,674.11 147.39,678.70 145.84,680.50 C145.84,680.50 150.63,678.45 150.63,678.45" fill="none" stroke="rgb(229, 0, 16)" stroke-width="3.01" stroke-opacity="1.00" stroke-linejoin="round"/>
<path d="M164.40,671.29 C164.40,671.29 166.17,669.96 166.17,669.96 C163.42,671.65 157.37,675.40 154.63,677.42 C153.59,678.19 152.28,679.31 151.00,680.45 C153.82,679.58 155.37,679.01 157.16,678.14 C158.67,677.41 161.18,676.20 162.18,675.72" fill="none" stroke="rgb(229, 0, 16)" stroke-width="3.01" stroke-opacity="1.00" stroke-linejoin="round"/>
<path d="M171.93,670.40 C171.93,670.40 178.14,667.96 178.14,667.96 C178.14,667.96 157.60,681.89 157.60,681.89 C159.68,681.41 162.54,680.15 166.47,678.05 C168.51,676.95 171.91,675.12 173.26,674.39" fill="none" stroke="rgb(229, 0, 16)" stroke-width="3.01" stroke-opacity="1.00" stroke-linejoin="round"/>
<path d="M184.34,670.40 C184.34,670.40 186.12,669.96 186.12,669.96 C181.77,671.75 177.87,674.09 175.06,676.16 C170.92,679.28 167.29,682.21 164.80,684.40 C166.78,683.24 173.75,679.25 175.24,678.44 C182.99,674.24 187.35,672.88 188.18,672.75 C188.18,672.75 180.38,680.64 180.38,680.64 C182.84,679.69 184.37,679.00 186.62,677.82 C190.01,676.03 194.07,674.14 195.12,673.65 C195.12,673.65 187.82,680.16 187.82,680.16 C187.82,680.16 204.73,671.73 204.73,671.73" fill="none" stroke="rgb(229, 0, 16)" stroke-width="3.01" stroke-opacity="1.00" stroke-linejoin="round"/>
<path d="M210.94,667.74 C210.42,668.60 205.37,671.32 203.76,672.62 C197.88,677.42 194.01,681.26 193.39,681.98 C193.39,681.98 196.75,681.04 196.75,681.04" fill="none" stroke="rgb(229, 0, 16)" stroke-width="3.01" stroke-opacity="1.00" stroke-linejoin="round"/>
<path d="M208.72,671.29 C208.72,671.29 193.58,685.67 193.58,685.67 C193.58,685.67 196.88,684.52 196.88,684.52" fill="none" stroke="rgb(229, 0, 16)" stroke-width="3.01" stroke-opacity="1.00" stroke-linejoin="round"/>
<path d="M216.26,669.96 C216.26,669.96 216.70,668.85 216.70,668.85 C216.70,668.85 216.48,668.70 216.48,668.70 C216.48,668.70 198.82,686.18 198.82,686.18 C198.82,686.18 201.57,684.64 201.57,684.64" fill="none" stroke="rgb(229, 0, 16)" stroke-width="3.01" stroke-opacity="1.00" stroke-linejoin="round"/>
<path d="M226.90,667.74 C221.72,671.56 210.42,679.97 206.43,682.50 C203.35,684.42 198.16,687.65 194.68,690.02 C194.68,690.02 196.25,689.78 196.25,689.78" fill="none" stroke="rgb(229, 0, 16)" stroke-width="3.01" stroke-opacity="1.00" stroke-linejoin="round"/>
<path d="M231.33,668.63 C229.24,669.85 224.05,673.79 221.00,676.09 C218.91,677.63 205.25,687.28 201.46,690.21 C199.92,691.41 198.65,692.67 196.81,694.73 C196.81,694.73 199.86,693.45 199.86,693.45" fill="none" stroke="rgb(229, 0, 16)" stroke-width="3.01" stroke-opacity="1.00" stroke-linejoin="round"/>
<path d="M238.42,668.63 C238.42,668.63 238.75,667.52 238.75,667.52 C236.89,667.05 228.33,673.16 220.03,680.08 C211.99,686.86 208.77,689.84 206.10,692.44 C206.10,692.44 208.72,691.23 208.72,691.23" fill="none" stroke="rgb(229, 0, 16)" stroke-width="3.01" stroke-opacity="1.00" stroke-linejoin="round"/>
<path d="M246.84,665.97 C243.77,667.21 241.62,668.33 238.68,670.70 C227.63,680.07 212.99,692.42 208.18,696.85 C208.18,696.85 208.54,697.28 208.54,697.28 C208.54,697.28 213.60,693.45 213.60,693.45" fill="none" stroke="rgb(229, 0, 16)" stroke-width="3.01" stroke-opacity="1.00" stroke-linejoin="round"/>
<path d="M248.17,667.74 C246.78,668.45 245.89,668.93 245.48,669.20 C245.06,669.47 228.38,684.07 222.44,689.31 C218.43,692.91 215.42,695.78 212.88,698.86 C212.88,698.86 213.61,699.36 213.61,699.36" fill="none" stroke="rgb(229, 0, 16)" stroke-width="3.01" stroke-opacity="1.00" stroke-linejoin="round"/>
<path d="M248.62,671.29 C246.84,671.26 245.08,672.10 242.34,675.46 C237.39,681.62 229.78,689.30 226.42,693.34 C227.87,693.40 228.83,693.17 230.28,692.09 C236.21,687.57 248.52,678.11 254.91,673.18 C256.67,671.86 258.62,670.38 258.60,670.31 C253.35,673.87 243.07,682.79 237.36,688.03 C227.24,697.58 226.12,698.91 224.92,700.59 C224.92,700.59 226.26,700.08 226.26,700.08" fill="none" stroke="rgb(229, 0, 16)" stroke-width="3.01" stroke-opacity="1.00" stroke-linejoin="round"/>
<path d="M265.02,667.30 C262.85,668.63 259.31,672.11 256.30,675.24 C250.85,680.99 238.06,694.59 236.46,696.88 C236.35,697.04 236.21,697.27 236.04,697.57" fill="none" stroke="rgb(229, 0, 16)" stroke-width="3.01" stroke-opacity="1.00" stroke-linejoin="round"/>
<path d="M269.89,668.63 C269.82,668.63 269.15,668.68 268.61,669.03 C266.59,670.32 256.73,680.19 248.56,687.72 C245.68,690.38 242.06,694.12 239.57,697.52 C239.57,697.52 240.32,697.82 240.32,697.82" fill="none" stroke="rgb(229, 0, 16)" stroke-width="3.01" stroke-opacity="1.00" stroke-linejoin="round"/>
<path d="M275.21,667.30 C273.04,667.83 270.53,669.93 267.63,672.88 C259.80,680.94 245.87,693.82 244.44,696.04 C244.44,696.04 244.86,696.22 244.86,696.22" fill="none" stroke="rgb(229, 0, 16)" stroke-width="3.01" stroke-opacity="1.00" stroke-linejoin="round"/>
<path d="M276.54,669.51 C266.62,680.18 253.19,694.37 252.93,694.70 C252.64,695.07 252.14,695.86 251.43,697.06" fill="none" stroke="rgb(229, 0, 16)" stroke-width="3.01" stroke-opacity="1.00" stroke-linejoin="round"/>
<path d="M280.09,673.50 C280.09,673.50 280.86,672.17 280.86,672.17 C271.20,680.47 257.47,696.63 257.17,697.59 C257.11,697.82 257.14,698.23 257.26,698.83" fill="none" stroke="rgb(229, 0, 16)" stroke-width="3.01" stroke-opacity="1.00" stroke-linejoin="round"/>
<path d="M283.63,673.95 C282.91,674.05 282.42,674.17 282.18,674.29 C281.76,674.52 267.45,692.77 265.63,695.26 C264.90,696.26 264.26,697.44 263.29,699.38" fill="none" stroke="rgb(229, 0, 16)" stroke-width="3.01" stroke-opacity="1.00" stroke-linejoin="round"/>
<path d="M291.61,672.17 C291.61,672.17 292.50,671.06 292.50,671.06 C292.50,671.06 265.80,699.46 265.80,699.46 C265.80,699.46 266.40,699.45 266.40,699.45" fill="none" stroke="rgb(229, 0, 16)" stroke-width="3.01" stroke-opacity="1.00" stroke-linejoin="round"/>
<path d="M295.60,672.17 C295.60,672.17 295.93,671.62 295.93,671.62 C294.32,673.12 280.83,688.50 279.48,690.86 C279.30,691.18 279.28,691.46 279.40,691.71" fill="none" stroke="rgb(229, 0, 16)" stroke-width="3.01" stroke-opacity="1.00" stroke-linejoin="round"/>
<path d="M299.59,672.62 C297.67,673.58 296.71,674.19 296.16,675.02 C296.02,675.22 291.24,682.25 290.61,683.25 C290.31,683.72 289.88,684.56 289.29,685.75" fill="none" stroke="rgb(229, 0, 16)" stroke-width="3.01" stroke-opacity="1.00" stroke-linejoin="round"/>
<path d="M303.14,672.17 C303.14,672.17 303.58,672.17 303.58,672.17 C302.32,673.46 299.76,677.09 299.37,677.72 C299.13,678.12 298.68,678.91 298.03,680.09" fill="none" stroke="rgb(229, 0, 16)" stroke-width="3.01" stroke-opacity="1.00" stroke-linejoin="round"/>
<path d="M257.04,669.51 C256.98,669.45 256.91,669.38 256.82,669.29 C256.72,669.20 256.48,668.98 256.09,668.63 C254.14,670.21 249.35,675.50 245.99,678.88 C242.81,682.06 238.63,686.23 237.63,687.24" fill="none" stroke="rgb(229, 0, 16)" stroke-width="3.01" stroke-opacity="1.00" stroke-linejoin="round"/>
<path d="M394.01,672.17 C394.01,672.17 394.01,672.62 394.01,672.62 C394.01,672.62 384.49,682.46 384.49,682.46 C384.49,682.46 384.61,682.46 384.61,682.46" fill="none" stroke="rgb(229, 0, 16)" stroke-width="3.01" stroke-opacity="1.00" stroke-linejoin="round"/>
<path d="M377.61,690.79 C377.61,690.79 376.94,690.79 376.94,690.79 C376.83,690.57 382.36,693.30 383.69,693.54 C385.38,693.82 422.33,694.64 425.14,694.28 C433.16,693.20 437.36,690.06 438.11,689.11 C438.27,688.38 437.45,686.56 435.93,684.91 C435.48,684.41 434.58,683.58 433.24,682.42" fill="none" stroke="rgb(229, 0, 16)" stroke-width="3.01" stroke-opacity="1.00" stroke-linejoin="round"/>
<path d="M420.16,689.02 C420.16,689.02 419.94,689.02 419.94,689.02 C419.94,689.02 419.72,688.80 419.72,688.80 C419.72,688.57 427.74,687.83 429.82,686.84 C430.68,686.41 431.59,685.33 431.64,685.05 C431.64,685.05 431.38,684.62 431.38,684.62" fill="none" stroke="rgb(229, 0, 16)" stroke-width="3.01" stroke-opacity="1.00" stroke-linejoin="round"/>
</g>
</svg>
