<?xml version="1.0" encoding="UTF-8" standalone="no"?>
<!DOCTYPE svg PUBLIC "-//W3C//DTD SVG 1.1//EN" "http://www.w3.org/Graphics/SVG/1.1/DTD/svg11.dtd">
<svg width="64.20" height="90.84" viewBox="0.00 0.00 535.00 757.00" xmlns="http://www.w3.org/2000/svg" xmlns:xlink="http://www.w3.org/1999/xlink">
<g stroke-linecap="round" id="12">
<path d="M304.93,293.81 C304.93,293.81 304.83,293.60 304.83,293.60 C304.83,293.60 304.49,293.47 304.49,293.47 C304.49,293.47 302.21,310.33 302.21,310.33 C302.66,310.19 307.94,307.93 310.31,307.51 C311.80,307.25 321.17,306.68 321.38,306.59 C321.50,306.53 321.94,306.31 322.71,305.93" fill="none" stroke="rgb(255, 73, 0)" stroke-width="2.98" stroke-opacity="1.00" stroke-linejoin="round"/>
<path d="M306.14,292.80 C306.14,292.80 306.04,292.80 306.04,292.80 C306.04,292.80 305.94,292.59 305.94,292.59 C307.13,292.58 311.03,291.71 314.31,290.97 C324.61,288.76 327.45,288.34 338.59,288.03 C346.10,287.80 353.94,289.05 359.99,288.63 C361.39,288.56 363.17,289.14 363.61,289.66 C364.86,291.22 365.35,348.42 365.78,355.77 C365.78,355.77 365.13,354.61 365.13,354.61" fill="none" stroke="rgb(255, 73, 0)" stroke-width="2.98" stroke-opacity="1.00" stroke-linejoin="round"/>
<path d="M338.66,309.76 C338.66,309.76 338.66,309.66 338.66,309.66 C338.89,309.34 339.55,308.69 340.13,308.34 C341.53,307.50 344.53,307.87 347.50,309.84 C348.67,310.63 349.17,312.23 348.55,313.27 C347.91,314.27 343.65,317.67 343.52,317.85 C342.91,318.73 342.48,323.55 341.95,324.84 C341.11,326.79 337.74,329.29 334.80,330.95 C331.99,332.50 325.94,335.32 322.73,336.39 C319.13,337.55 315.83,337.57 314.92,336.72 C313.41,335.15 311.47,330.82 310.62,327.13 C309.07,320.28 308.90,312.91 308.90,310.41 C308.89,310.04 308.84,309.42 308.77,308.55" fill="none" stroke="rgb(255, 73, 0)" stroke-width="2.98" stroke-opacity="1.00" stroke-linejoin="round"/>
<path d="M308.77,317.24 C307.77,316.84 307.10,316.61 306.75,316.53 C306.40,316.46 305.90,316.44 305.23,316.48 C305.23,316.48 304.90,316.93 304.90,316.93" fill="none" stroke="rgb(255, 73, 0)" stroke-width="2.98" stroke-opacity="1.00" stroke-linejoin="round"/>
<path d="M319.88,317.04 C319.88,317.04 319.68,316.96 319.68,316.96 C319.94,316.76 324.54,315.86 326.89,315.62 C328.21,315.49 330.33,315.45 332.97,315.45 C332.97,315.45 332.30,316.49 332.30,316.49" fill="none" stroke="rgb(255, 73, 0)" stroke-width="2.98" stroke-opacity="1.00" stroke-linejoin="round"/>
<path d="M318.06,331.99 C318.06,331.99 317.66,331.99 317.66,331.99 C319.24,331.96 322.11,331.41 325.94,330.32 C326.24,330.23 326.43,330.19 326.49,330.20 C326.72,330.24 326.97,330.29 327.23,330.33" fill="none" stroke="rgb(255, 73, 0)" stroke-width="2.98" stroke-opacity="1.00" stroke-linejoin="round"/>
<path d="M319.07,345.32 C319.07,345.32 318.56,345.54 318.56,345.54 C318.56,345.54 319.07,357.54 319.07,357.54 C319.07,357.54 319.27,357.44 319.27,357.44" fill="none" stroke="rgb(255, 73, 0)" stroke-width="2.98" stroke-opacity="1.00" stroke-linejoin="round"/>
<path d="M284.05,372.91 C283.39,371.36 282.84,370.46 281.82,369.40 C280.82,368.37 278.13,365.19 277.63,365.06 C277.63,365.06 275.92,369.42 275.92,369.42 C275.87,369.46 271.51,370.11 270.47,370.84 C270.34,370.94 270.16,371.12 269.93,371.39 C269.93,371.39 272.32,373.52 272.32,373.52 C268.15,373.34 267.72,374.60 267.66,375.00 C268.70,377.45 273.11,377.32 275.30,377.18 C272.98,377.64 268.25,378.60 267.41,379.16 C267.02,379.45 267.39,381.05 268.29,381.80 C269.49,382.75 273.15,383.27 276.62,382.95 C278.17,382.78 282.23,382.37 282.38,382.33 C282.72,382.25 283.20,382.02 283.82,381.65" fill="none" stroke="rgb(255, 73, 0)" stroke-width="2.98" stroke-opacity="1.00" stroke-linejoin="round"/>
<path d="M286.39,368.86 C285.91,369.58 285.58,370.19 285.48,370.73 C285.31,371.76 284.88,385.23 284.90,386.84 C284.90,386.84 285.31,386.97 285.31,386.97" fill="none" stroke="rgb(255, 73, 0)" stroke-width="2.98" stroke-opacity="1.00" stroke-linejoin="round"/>
<path d="M285.54,386.75 C285.63,386.72 285.70,386.69 285.75,386.65 C285.80,386.60 285.91,386.50 286.07,386.33 C286.10,386.33 286.21,386.33 286.18,386.33 C286.17,386.33 286.19,386.33 286.20,386.33 C290.37,386.37 298.03,387.86 307.29,387.57 C309.76,387.48 330.54,384.15 333.87,383.15 C337.27,382.11 343.39,379.75 345.30,378.82 C347.02,377.96 349.46,375.16 350.04,373.95 C351.61,370.59 353.39,361.41 353.49,360.78 C353.63,359.93 353.77,359.07 353.90,358.21" fill="none" stroke="rgb(255, 73, 0)" stroke-width="2.98" stroke-opacity="1.00" stroke-linejoin="round"/>
<path d="M354.54,344.37 C354.48,345.00 356.04,347.85 356.35,348.71 C357.30,351.40 358.04,366.58 358.45,374.44 C358.70,383.40 358.64,419.86 358.97,425.61 C359.62,438.33 358.15,449.40 358.05,449.63 C357.95,449.86 357.63,450.41 357.10,451.28" fill="none" stroke="rgb(255, 73, 0)" stroke-width="2.98" stroke-opacity="1.00" stroke-linejoin="round"/>
<path d="M318.55,387.39 C318.56,387.45 318.53,387.71 318.73,388.00 C321.71,392.44 323.15,399.39 324.29,408.62 C325.76,420.73 326.14,424.58 326.05,434.31 C325.83,445.43 324.86,456.90 325.22,458.13 C325.43,458.74 327.09,459.21 329.00,458.93 C329.67,458.82 345.01,456.20 348.42,454.65 C351.77,453.10 358.57,447.91 358.62,447.80 C358.68,447.65 358.81,447.18 359.01,446.39" fill="none" stroke="rgb(255, 73, 0)" stroke-width="2.98" stroke-opacity="1.00" stroke-linejoin="round"/>
<path d="M285.75,368.44 C285.75,368.44 285.00,369.18 285.00,369.18 C285.00,369.18 285.06,369.29 285.06,369.29 C288.30,369.29 298.89,372.44 311.63,368.04 C323.19,363.97 329.35,359.68 332.92,356.62 C332.92,356.62 333.03,356.09 333.03,356.09" fill="none" stroke="rgb(255, 73, 0)" stroke-width="2.98" stroke-opacity="1.00" stroke-linejoin="round"/>
<path d="M333.77,459.50 C333.77,459.50 333.62,459.50 333.62,459.50 C333.61,459.49 333.65,459.52 333.66,459.53 C335.12,460.96 336.11,462.32 337.13,464.76 C338.27,467.57 337.60,487.56 335.96,504.99 C335.96,504.99 335.94,504.62 335.94,504.62" fill="none" stroke="rgb(255, 73, 0)" stroke-width="2.98" stroke-opacity="1.00" stroke-linejoin="round"/>
<path d="M348.52,454.88 C348.52,454.88 348.30,454.88 348.30,454.88 C348.11,455.20 348.10,456.83 348.22,460.70 C349.37,491.63 348.43,504.28 348.43,504.23 C348.43,504.23 348.23,503.32 348.23,503.32" fill="none" stroke="rgb(255, 73, 0)" stroke-width="2.98" stroke-opacity="1.00" stroke-linejoin="round"/>
<path d="M329.27,458.70 C329.27,458.70 328.93,458.70 328.93,458.70 C328.93,458.68 329.48,462.24 329.61,466.43 C329.72,472.00 328.03,497.35 326.47,506.01 C326.47,506.01 326.32,506.10 326.32,506.10 C326.32,506.10 326.21,505.91 326.21,505.91" fill="none" stroke="rgb(255, 73, 0)" stroke-width="2.98" stroke-opacity="1.00" stroke-linejoin="round"/>
<path d="M329.06,499.18 C329.06,499.18 328.87,499.18 328.87,499.18 C328.83,499.36 330.51,501.13 332.42,501.76 C333.24,502.03 334.63,502.26 336.54,502.49 C336.54,502.49 336.12,503.07 336.12,503.07" fill="none" stroke="rgb(255, 73, 0)" stroke-width="2.98" stroke-opacity="1.00" stroke-linejoin="round"/>
<path d="M329.06,501.82 C328.57,501.88 328.25,501.98 327.97,502.20 C327.65,502.48 324.71,507.65 322.37,511.52 C320.90,514.04 318.63,521.48 318.60,522.25 C319.28,522.72 322.38,522.15 323.55,521.70 C324.18,521.46 326.02,520.31 326.60,519.95" fill="none" stroke="rgb(255, 73, 0)" stroke-width="2.98" stroke-opacity="1.00" stroke-linejoin="round"/>
<path d="M336.42,502.01 C335.50,502.71 334.80,503.38 334.39,504.05 C333.99,504.72 328.66,514.67 327.77,520.61 C327.63,521.71 327.75,522.98 328.09,523.49 C328.85,524.51 332.39,525.11 334.41,524.62 C336.30,524.12 339.10,522.01 341.24,519.71 C343.73,517.02 345.83,515.11 346.62,515.28 C347.33,515.50 349.62,517.97 350.05,517.94 C350.81,517.62 351.78,515.82 351.88,514.13 C352.02,511.08 350.45,501.41 349.44,499.93 C349.23,500.00 339.12,503.15 338.83,503.09 C338.64,503.05 337.96,502.88 336.80,502.58" fill="none" stroke="rgb(255, 73, 0)" stroke-width="2.98" stroke-opacity="1.00" stroke-linejoin="round"/>
<path d="M243.52,170.45 C243.30,168.01 242.35,163.45 241.85,161.53 C241.54,160.28 239.75,154.81 240.21,154.24 C242.11,152.39 243.72,151.65 245.87,151.87 C246.73,151.98 247.21,152.19 247.73,152.60 C248.45,154.71 250.83,168.31 250.86,168.38 C250.93,168.54 251.12,168.82 251.44,169.22" fill="none" stroke="rgb(57, 77, 239)" stroke-width="2.98" stroke-opacity="1.00" stroke-linejoin="round"/>
<path d="M249.39,170.45 C248.43,170.73 248.18,170.80 248.15,170.76 C246.66,169.96 236.73,175.68 230.09,180.92 C224.03,185.81 208.78,195.70 207.88,196.46 C207.07,197.14 192.38,210.88 188.10,215.75 C182.10,222.40 174.71,230.04 171.58,234.81 C169.65,237.82 165.42,244.36 164.29,245.70 C162.91,247.31 158.66,251.41 157.39,253.06 C154.88,256.36 147.86,268.34 146.56,271.21 C144.16,276.53 140.97,287.63 138.83,292.57 C138.77,292.74 138.72,293.06 138.67,293.51 C138.87,293.34 143.50,297.60 138.35,301.13 C136.01,300.83 135.73,293.87 136.15,291.99 C136.15,291.99 138.55,290.96 138.55,290.96" fill="none" stroke="rgb(57, 77, 239)" stroke-width="2.98" stroke-opacity="1.00" stroke-linejoin="round"/>
<path d="M142.63,296.33 C142.71,293.82 142.89,292.23 143.31,291.38 C144.02,290.02 145.77,289.03 149.19,287.35 C154.20,284.91 165.91,281.55 168.68,280.35 C178.78,275.89 187.49,273.01 192.16,272.63 C198.62,272.25 212.41,271.52 219.69,272.25 C222.86,272.58 226.41,273.21 230.08,274.36 C233.32,275.39 236.88,277.76 237.02,277.79 C237.19,277.82 237.91,277.94 239.18,278.13" fill="none" stroke="rgb(57, 77, 239)" stroke-width="2.98" stroke-opacity="1.00" stroke-linejoin="round"/>
<path d="M248.46,171.07 C247.21,172.70 246.74,175.93 246.24,180.43 C245.69,184.88 238.57,222.32 237.64,230.47 C235.62,248.31 234.34,269.73 234.98,280.22 C235.05,281.09 235.14,282.36 235.18,282.78 C235.04,282.90 233.39,282.76 232.69,283.75 C231.89,284.97 231.74,287.74 232.68,289.35 C234.53,289.21 235.45,288.76 235.92,287.53 C236.33,286.42 236.64,285.07 236.67,284.24 C236.68,282.71 235.39,281.24 233.59,279.28" fill="none" stroke="rgb(57, 77, 239)" stroke-width="2.98" stroke-opacity="1.00" stroke-linejoin="round"/>
<path d="M237.97,277.82 C237.97,277.82 237.66,278.13 237.66,278.13 C237.67,278.07 237.66,277.53 237.70,277.32 C238.02,275.98 241.13,272.54 244.05,270.47 C250.09,266.25 261.62,261.34 265.76,259.96 C271.88,257.95 283.68,257.35 289.89,257.05 C294.78,256.78 309.29,258.19 311.88,258.47 C319.05,259.05 332.86,260.26 337.93,261.52 C337.93,261.52 337.93,262.09 337.93,262.09" fill="none" stroke="rgb(57, 77, 239)" stroke-width="2.98" stroke-opacity="1.00" stroke-linejoin="round"/>
<path d="M337.93,261.47 C337.93,262.62 337.92,265.83 337.93,266.41 C338.03,268.86 339.96,273.60 340.28,273.77 C341.11,274.09 342.30,273.84 343.10,273.02 C343.97,272.08 345.20,269.60 345.37,268.45 C345.48,267.43 344.43,266.06 343.56,265.31 C343.23,265.03 342.58,264.45 341.59,263.56" fill="none" stroke="rgb(57, 77, 239)" stroke-width="2.98" stroke-opacity="1.00" stroke-linejoin="round"/>
<path d="M258.64,170.76 C258.96,170.68 261.46,171.75 263.56,173.36 C265.88,175.15 283.88,191.24 285.99,193.49 C287.76,195.41 299.65,210.97 303.57,216.41 C305.04,218.42 317.29,233.08 321.39,238.86 C323.21,241.42 332.26,254.96 332.47,255.46 C332.63,255.84 332.95,256.76 333.44,258.23" fill="none" stroke="rgb(57, 77, 239)" stroke-width="2.98" stroke-opacity="1.00" stroke-linejoin="round"/>
<path d="M254.94,165.83 C255.54,165.83 260.70,165.92 270.76,167.54 C289.68,170.82 310.12,173.23 321.28,177.92 C324.35,179.22 337.54,185.61 341.12,187.74 C345.75,190.52 377.85,215.39 382.39,218.54 C392.03,225.03 394.39,226.75 402.44,233.27 C412.07,241.19 419.79,251.42 420.12,251.90 C420.12,251.90 418.65,251.95 418.65,251.95" fill="none" stroke="rgb(57, 77, 239)" stroke-width="2.98" stroke-opacity="1.00" stroke-linejoin="round"/>
<path d="M423.71,254.07 C423.47,253.60 423.09,252.83 423.09,252.68 C423.09,252.60 423.11,252.39 423.15,252.05 C423.15,252.05 424.57,250.79 424.57,250.79 C425.31,251.43 425.33,255.76 424.27,257.08 C423.28,258.23 420.36,259.90 419.11,259.88 C418.17,259.14 418.18,256.27 418.85,254.76 C419.05,254.31 419.76,253.62 420.98,252.54" fill="none" stroke="rgb(57, 77, 239)" stroke-width="2.98" stroke-opacity="1.00" stroke-linejoin="round"/>
<path d="M423.09,254.37 C422.16,254.36 421.43,254.38 421.30,254.30 C419.38,253.17 415.69,252.01 413.26,251.75 C412.42,251.66 405.81,251.25 402.29,250.66 C400.78,250.40 379.60,246.94 376.63,247.23 C371.77,247.75 361.66,251.06 354.48,254.52 C351.32,256.11 346.90,258.35 345.65,259.00" fill="none" stroke="rgb(57, 77, 239)" stroke-width="2.98" stroke-opacity="1.00" stroke-linejoin="round"/>
<path d="M260.80,259.93 C259.63,261.32 259.20,262.09 259.26,262.97 C259.40,265.34 258.32,285.60 258.31,290.36 C258.27,305.18 262.46,333.08 264.56,347.43 C265.27,351.82 266.46,359.13 266.94,362.05 C266.94,362.05 265.92,362.05 265.92,362.05 C265.92,362.05 272.67,360.76 272.67,360.76 C268.40,362.35 265.42,363.77 264.98,365.24 C264.63,366.52 264.94,368.10 265.11,368.75 C265.11,368.75 266.38,368.64 266.38,368.64" fill="none" stroke="rgb(57, 77, 239)" stroke-width="2.98" stroke-opacity="1.00" stroke-linejoin="round"/>
<path d="M269.13,259.00 C269.03,265.71 268.72,276.30 268.04,283.00 C267.30,291.43 267.36,296.70 268.02,306.46 C268.38,318.25 271.62,352.62 274.75,363.18 C274.83,363.44 275.02,363.89 275.30,364.52" fill="none" stroke="rgb(57, 77, 239)" stroke-width="2.98" stroke-opacity="1.00" stroke-linejoin="round"/>
</g>
</svg>
