<?xml version="1.0" encoding="UTF-8" standalone="no"?>
<!DOCTYPE svg PUBLIC "-//W3C//DTD SVG 1.1//EN" "http://www.w3.org/Graphics/SVG/1.1/DTD/svg11.dtd">
<svg width="128.40" height="181.68" viewBox="0.00 0.00 535.00 757.00" xmlns="http://www.w3.org/2000/svg" xmlns:xlink="http://www.w3.org/1999/xlink">
<g stroke-linecap="round" id="127">
<path d="M164.13,316.19 C164.13,316.19 162.58,316.19 162.58,316.19 C164.20,316.68 170.12,321.60 171.06,322.32 C172.83,323.65 176.78,325.20 179.10,325.25 C181.69,325.27 186.40,324.60 187.73,323.49 C189.39,322.03 192.01,316.47 192.01,314.42 C191.99,313.57 190.45,311.21 190.61,309.91 C190.72,309.02 191.51,301.17 190.60,298.28 C189.72,295.60 185.57,291.25 183.48,290.50 C181.15,289.74 174.22,290.55 170.63,291.93 C168.74,292.70 166.10,294.34 165.03,295.49 C163.17,297.58 161.10,303.25 160.40,305.32 C159.47,304.91 156.88,299.05 156.09,297.48 C155.44,296.19 152.49,291.25 150.81,289.73 C149.33,288.42 143.71,287.64 141.73,287.91 C138.60,288.42 133.17,292.43 131.62,294.32 C130.24,296.07 126.77,301.55 125.94,303.16 C124.30,306.38 121.88,313.41 121.55,313.59 C121.19,312.88 118.99,307.35 117.06,304.80 C114.75,301.80 109.46,297.75 107.47,296.99 C105.72,296.37 101.83,297.38 99.11,299.63 C96.19,302.08 87.34,312.81 84.97,316.75 C84.52,317.51 82.06,322.79 81.66,325.82 C81.47,327.31 83.09,330.53 84.25,331.11 C87.01,332.42 92.23,332.16 94.25,331.32 C94.87,334.96 96.51,339.47 97.49,341.13 C98.23,342.36 99.75,344.09 100.76,344.89 C102.31,346.02 108.43,346.90 113.32,346.46 C117.88,345.98 123.18,343.47 125.52,341.18 C127.25,339.42 129.29,334.60 129.85,331.81 C130.18,330.04 128.94,327.11 127.61,327.13 C126.15,327.22 123.69,329.60 122.20,331.24" fill="none" stroke="rgb(229, 0, 16)" stroke-width="2.43" stroke-opacity="1.00" stroke-linejoin="round"/>
<path d="M123.74,328.93 C123.75,329.03 122.88,329.28 122.53,329.39 C121.81,329.68 122.00,337.30 122.77,338.56 C122.92,338.80 123.28,339.18 123.83,339.69" fill="none" stroke="rgb(229, 0, 16)" stroke-width="2.43" stroke-opacity="1.00" stroke-linejoin="round"/>
<path d="M130.58,330.17 C130.58,330.17 129.18,330.63 129.18,330.63 C129.18,330.63 129.49,331.54 129.49,331.54 C132.16,333.33 135.88,335.67 138.70,337.89 C141.78,340.28 145.03,341.44 146.79,341.35 C148.72,341.20 153.57,338.83 155.86,336.85 C157.72,335.21 160.52,331.10 161.35,329.03 C163.52,323.41 163.38,319.06 163.16,317.53 C163.16,317.53 162.10,316.88 162.10,316.88" fill="none" stroke="rgb(229, 0, 16)" stroke-width="2.43" stroke-opacity="1.00" stroke-linejoin="round"/>
<path d="M102.31,302.83 C102.31,302.83 102.25,301.74 102.25,301.74 C100.66,303.41 88.70,322.19 88.51,322.65 C88.38,322.95 88.25,323.55 88.12,324.43" fill="none" stroke="rgb(229, 0, 16)" stroke-width="2.43" stroke-opacity="1.00" stroke-linejoin="round"/>
<path d="M103.86,305.62 C103.60,305.82 103.40,305.97 103.24,306.09 C102.65,306.52 101.21,307.59 100.88,307.93 C99.84,309.04 96.79,316.07 96.32,317.16 C95.56,318.95 94.44,321.14 94.04,321.76 C94.04,321.76 96.40,317.43 96.40,317.43" fill="none" stroke="rgb(229, 0, 16)" stroke-width="2.43" stroke-opacity="1.00" stroke-linejoin="round"/>
<path d="M104.17,307.18 C104.17,307.18 105.26,306.56 105.26,306.56 C105.62,307.01 105.66,307.43 105.24,308.37 C102.25,314.84 95.25,329.66 93.49,332.09 C93.49,332.09 93.96,330.80 93.96,330.80" fill="none" stroke="rgb(229, 0, 16)" stroke-width="2.43" stroke-opacity="1.00" stroke-linejoin="round"/>
<path d="M112.25,305.31 C112.20,305.60 106.97,317.82 104.49,324.95 C103.35,328.19 100.03,336.47 99.93,336.75 C99.83,337.01 99.75,337.29 99.68,337.59" fill="none" stroke="rgb(229, 0, 16)" stroke-width="2.43" stroke-opacity="1.00" stroke-linejoin="round"/>
<path d="M115.66,314.63 C115.66,314.63 114.28,314.24 114.28,314.24 C111.09,320.23 105.77,339.77 105.65,341.54 C105.65,341.54 106.38,341.06 106.38,341.06" fill="none" stroke="rgb(229, 0, 16)" stroke-width="2.43" stroke-opacity="1.00" stroke-linejoin="round"/>
<path d="M119.70,318.05 C119.19,318.56 118.85,318.96 118.68,319.23 C118.18,320.03 112.50,336.46 112.21,337.35 C111.47,339.69 110.77,342.12 110.55,343.09" fill="none" stroke="rgb(229, 0, 16)" stroke-width="2.43" stroke-opacity="1.00" stroke-linejoin="round"/>
<path d="M123.12,326.13 C123.12,326.13 122.81,326.35 122.81,326.35 C122.81,326.35 138.41,297.68 138.41,297.68 C138.41,297.68 138.52,297.83 138.52,297.83" fill="none" stroke="rgb(229, 0, 16)" stroke-width="2.43" stroke-opacity="1.00" stroke-linejoin="round"/>
<path d="M143.63,297.86 C142.83,299.35 131.20,331.36 131.04,331.83 C130.95,332.12 130.76,332.76 130.48,333.77" fill="none" stroke="rgb(229, 0, 16)" stroke-width="2.43" stroke-opacity="1.00" stroke-linejoin="round"/>
<path d="M149.53,305.93 C148.22,307.89 146.80,311.13 144.89,315.81 C143.71,318.67 140.66,325.17 140.57,325.59 C140.50,325.90 140.57,326.27 140.78,326.68" fill="none" stroke="rgb(229, 0, 16)" stroke-width="2.43" stroke-opacity="1.00" stroke-linejoin="round"/>
<path d="M152.64,308.42 C152.08,308.49 151.74,308.54 151.62,308.58 C150.40,308.95 145.31,323.43 142.80,330.57 C142.09,332.60 141.85,333.36 141.64,334.28 C142.65,333.49 144.47,329.59 145.77,326.78 C146.62,324.90 148.04,321.78 148.60,320.54" fill="none" stroke="rgb(229, 0, 16)" stroke-width="2.43" stroke-opacity="1.00" stroke-linejoin="round"/>
<path d="M159.47,307.49 C157.86,309.57 157.04,310.82 156.24,312.52 C153.44,318.33 147.79,329.57 146.54,333.46 C146.15,334.71 145.74,336.49 145.60,337.44" fill="none" stroke="rgb(229, 0, 16)" stroke-width="2.43" stroke-opacity="1.00" stroke-linejoin="round"/>
<path d="M173.14,294.75 C173.14,294.75 172.13,294.98 172.13,294.98 C170.77,296.75 160.69,317.24 160.37,318.67 C160.27,319.15 160.26,319.88 160.33,320.86" fill="none" stroke="rgb(229, 0, 16)" stroke-width="2.43" stroke-opacity="1.00" stroke-linejoin="round"/>
<path d="M175.94,299.72 C174.14,303.00 167.89,316.59 167.77,316.95 C167.68,317.21 167.58,317.63 167.47,318.21" fill="none" stroke="rgb(229, 0, 16)" stroke-width="2.43" stroke-opacity="1.00" stroke-linejoin="round"/>
<path d="M180.29,301.27 C178.11,303.69 176.84,306.40 175.33,309.93 C172.22,317.34 171.06,320.80 170.75,321.74 C170.75,321.74 171.04,321.77 171.04,321.77" fill="none" stroke="rgb(229, 0, 16)" stroke-width="2.43" stroke-opacity="1.00" stroke-linejoin="round"/>
<path d="M183.39,304.07 C183.42,304.02 183.41,304.18 183.39,304.23 C182.79,306.70 179.75,313.14 179.39,313.93 C179.18,314.41 178.86,315.12 178.46,316.06" fill="none" stroke="rgb(229, 0, 16)" stroke-width="2.43" stroke-opacity="1.00" stroke-linejoin="round"/>
<path d="M185.57,308.42 C185.57,308.42 186.35,308.50 186.35,308.50 C186.64,309.09 185.75,311.61 185.18,312.81 C184.98,313.23 184.54,314.08 183.87,315.36" fill="none" stroke="rgb(229, 0, 16)" stroke-width="2.43" stroke-opacity="1.00" stroke-linejoin="round"/>
<path d="M251.75,332.34 C251.75,332.34 251.98,329.09 251.98,329.09 C251.44,328.52 249.54,326.67 248.24,323.51 C247.23,321.10 244.70,318.63 241.74,316.29 C239.75,314.78 235.50,312.56 233.25,311.74 C230.29,310.70 224.43,310.31 221.79,310.96 C218.88,311.72 213.25,315.03 210.41,317.37 C205.85,321.21 202.43,324.45 201.32,326.65 C200.30,328.76 199.85,335.16 200.62,337.56 C201.46,339.97 205.52,343.28 207.78,344.13 C208.68,344.46 210.90,345.17 210.94,345.26 C210.86,345.78 207.07,351.69 206.61,352.46 C204.52,356.01 203.51,360.59 203.84,362.09 C204.21,363.43 207.19,366.82 209.79,367.82 C212.25,368.75 217.73,369.40 219.30,369.43 C221.40,369.44 225.67,368.83 227.70,368.21 C229.80,367.55 233.50,365.64 235.28,364.20 C236.70,363.04 240.19,359.18 241.48,356.34 C243.89,350.89 243.47,345.45 243.37,345.35 C243.16,348.14 244.43,353.51 246.50,356.13 C248.43,358.50 253.89,361.43 256.22,362.28 C259.09,363.29 264.91,363.05 267.23,362.60 C269.38,362.15 277.24,359.95 277.92,359.72 C281.93,358.35 287.47,354.38 289.43,352.01 C290.86,350.23 291.82,346.95 291.81,346.76 C291.99,348.13 293.80,352.64 295.80,355.02 C298.07,357.64 304.13,360.48 306.86,360.65 C309.25,360.74 315.62,358.88 317.94,357.54 C320.19,356.22 324.46,352.52 326.56,349.96 C328.51,347.53 330.03,343.45 329.93,341.59 C329.78,339.74 329.13,338.89 328.70,338.66 C328.70,338.66 326.90,338.93 326.90,338.93 C326.79,338.77 325.51,331.13 324.51,328.84 C323.49,326.58 319.73,322.13 317.50,320.58 C314.83,318.78 308.97,317.15 306.10,317.67 C304.66,317.97 302.28,319.20 301.05,320.27 C295.97,324.86 293.82,332.69 293.38,334.70 C292.95,331.21 291.65,326.49 290.36,324.32 C289.19,322.41 285.98,318.90 283.52,317.55 C281.15,316.29 274.75,315.04 271.09,314.96 C268.70,314.95 266.73,315.16 265.51,315.70 C263.38,316.67 256.10,323.09 254.77,324.66 C254.19,325.38 253.20,326.60 251.79,328.25" fill="none" stroke="rgb(229, 0, 16)" stroke-width="2.43" stroke-opacity="1.00" stroke-linejoin="round"/>
<path d="M234.97,321.47 C234.97,321.47 234.23,320.23 234.23,320.23 C233.15,320.47 223.70,334.56 222.13,336.56 C221.59,337.24 212.59,347.15 211.64,348.24 C211.64,348.24 212.46,348.07 212.46,348.07" fill="none" stroke="rgb(229, 0, 16)" stroke-width="2.43" stroke-opacity="1.00" stroke-linejoin="round"/>
<path d="M227.82,337.94 C227.47,337.90 227.14,338.03 226.81,338.32 C226.15,338.93 216.65,349.71 216.34,350.07 C216.04,350.40 215.61,350.95 215.03,351.71" fill="none" stroke="rgb(229, 0, 16)" stroke-width="2.43" stroke-opacity="1.00" stroke-linejoin="round"/>
<path d="M239.94,342.91 C238.54,343.33 237.73,343.75 236.91,344.62 C230.75,351.05 216.49,364.65 215.06,366.27 C215.06,366.27 216.33,365.28 216.33,365.28" fill="none" stroke="rgb(229, 0, 16)" stroke-width="2.43" stroke-opacity="1.00" stroke-linejoin="round"/>
<path d="M226.58,361.55 C226.67,360.75 227.40,358.70 234.54,351.99 C242.42,344.35 251.43,335.59 253.72,332.81 C253.72,332.81 253.06,333.30 253.06,333.30" fill="none" stroke="rgb(229, 0, 16)" stroke-width="2.43" stroke-opacity="1.00" stroke-linejoin="round"/>
<path d="M263.86,327.99 C263.86,327.99 244.96,347.74 244.96,347.74 C244.96,347.74 245.21,348.46 245.21,348.46" fill="none" stroke="rgb(229, 0, 16)" stroke-width="2.43" stroke-opacity="1.00" stroke-linejoin="round"/>
<path d="M252.99,346.01 C252.99,346.01 252.21,346.63 252.21,346.63 C252.13,346.61 260.98,334.48 271.83,327.99 C272.04,327.86 272.44,327.67 273.02,327.41" fill="none" stroke="rgb(229, 0, 16)" stroke-width="2.43" stroke-opacity="1.00" stroke-linejoin="round"/>
<path d="M276.60,329.24 C275.49,329.34 273.13,331.44 270.52,334.58 C266.75,339.21 257.61,350.89 255.37,353.68 C255.15,353.96 254.62,354.65 253.78,355.75" fill="none" stroke="rgb(229, 0, 16)" stroke-width="2.43" stroke-opacity="1.00" stroke-linejoin="round"/>
<path d="M287.79,325.82 C285.88,326.72 274.94,340.38 272.40,342.98 C271.42,343.99 265.08,349.56 263.01,351.35 C263.01,351.35 263.24,351.61 263.24,351.61" fill="none" stroke="rgb(229, 0, 16)" stroke-width="2.43" stroke-opacity="1.00" stroke-linejoin="round"/>
<path d="M276.91,346.63 C276.37,346.62 275.16,346.74 274.58,347.02 C273.81,347.41 271.79,349.49 270.48,351.11 C270.00,351.71 268.23,354.15 267.59,355.02" fill="none" stroke="rgb(229, 0, 16)" stroke-width="2.43" stroke-opacity="1.00" stroke-linejoin="round"/>
<path d="M286.85,341.04 C285.88,341.85 276.48,356.14 274.34,358.30 C273.73,358.89 273.12,359.49 272.51,360.09" fill="none" stroke="rgb(229, 0, 16)" stroke-width="2.43" stroke-opacity="1.00" stroke-linejoin="round"/>
<path d="M304.56,336.07 C304.56,336.07 304.44,335.76 304.44,335.76 C304.30,335.81 295.94,346.39 292.74,350.40 C292.38,350.85 292.02,351.30 291.66,351.75" fill="none" stroke="rgb(229, 0, 16)" stroke-width="2.43" stroke-opacity="1.00" stroke-linejoin="round"/>
<path d="M300.83,332.03 C299.64,332.88 298.19,334.80 294.87,340.02 C293.73,341.80 291.67,345.04 290.75,346.49 C289.92,347.80 288.73,349.69 288.37,350.26" fill="none" stroke="rgb(229, 0, 16)" stroke-width="2.43" stroke-opacity="1.00" stroke-linejoin="round"/>
<path d="M309.84,336.38 C309.84,336.38 308.60,336.54 308.60,336.54 C308.60,336.54 297.83,353.77 297.83,353.77 C297.83,353.77 298.68,353.11 298.68,353.11" fill="none" stroke="rgb(229, 0, 16)" stroke-width="2.43" stroke-opacity="1.00" stroke-linejoin="round"/>
<path d="M320.41,335.14 C319.86,335.46 313.15,344.43 305.33,353.75 C305.11,354.02 304.82,354.37 304.48,354.81 C304.48,354.81 304.68,355.02 304.68,355.02" fill="none" stroke="rgb(229, 0, 16)" stroke-width="2.43" stroke-opacity="1.00" stroke-linejoin="round"/>
<path d="M316.06,348.50 C315.52,348.87 315.08,349.21 314.74,349.51 C313.76,350.36 311.73,352.38 310.83,353.35 C310.83,353.35 314.50,350.67 314.50,350.67" fill="none" stroke="rgb(229, 0, 16)" stroke-width="2.43" stroke-opacity="1.00" stroke-linejoin="round"/>
<path d="M319.48,345.39 C319.67,346.69 317.66,350.19 315.75,353.09 C314.96,354.29 314.38,355.12 314.01,355.59 C313.69,355.99 313.06,356.72 312.09,357.79" fill="none" stroke="rgb(229, 0, 16)" stroke-width="2.43" stroke-opacity="1.00" stroke-linejoin="round"/>
<path d="M412.06,321.47 C412.06,321.47 412.06,321.16 412.06,321.16 C411.91,320.99 409.78,316.60 408.82,315.44 C407.72,314.15 404.24,312.56 401.64,312.06 C398.27,311.43 395.50,311.16 392.69,311.54 C390.07,311.92 385.69,314.04 384.19,315.36 C381.10,318.16 379.59,320.86 379.16,323.24 C378.72,325.85 379.22,328.44 379.42,328.61 C379.04,328.50 375.48,330.63 374.61,332.41 C374.32,333.07 375.18,334.82 377.28,335.78 C379.75,336.89 387.00,338.45 390.72,338.85 C397.22,339.52 401.37,337.84 402.64,337.13 C402.64,337.13 401.99,337.25 401.99,337.25" fill="none" stroke="rgb(229, 0, 16)" stroke-width="2.43" stroke-opacity="1.00" stroke-linejoin="round"/>
<path d="M401.19,336.07 C401.19,336.07 401.03,336.07 401.03,336.07 C401.03,336.07 400.88,335.92 400.88,335.92 C400.88,335.92 400.88,335.76 400.88,335.76 C400.86,337.41 401.17,339.06 401.92,340.14 C403.42,342.21 408.18,345.04 412.42,346.21 C416.82,347.37 420.86,347.68 423.22,347.16 C424.86,346.77 431.01,343.85 433.36,342.48 C437.54,340.02 440.83,336.15 441.08,336.00 C441.38,336.20 442.86,342.64 443.13,343.52 C443.78,345.57 445.23,348.45 446.18,349.44 C447.70,350.95 452.81,352.15 455.06,351.32 C456.21,350.86 458.97,349.02 459.98,348.06 C461.96,346.10 463.22,341.83 463.79,336.75 C464.38,331.30 464.55,325.40 463.80,322.11 C463.01,318.84 459.32,313.48 457.17,311.69 C455.24,310.13 450.55,308.50 448.17,308.78 C446.82,308.97 443.76,310.09 442.67,310.86 C439.33,313.33 437.07,321.13 436.92,321.83 C436.65,320.37 434.90,316.13 433.01,313.87 C431.01,311.52 426.65,309.44 424.41,308.75 C422.71,308.28 419.14,309.63 415.34,312.35 C413.65,313.59 411.02,316.98 409.17,319.48 C408.69,320.14 408.20,320.81 407.71,321.47" fill="none" stroke="rgb(229, 0, 16)" stroke-width="2.43" stroke-opacity="1.00" stroke-linejoin="round"/>
<path d="M388.14,317.74 C388.14,317.74 386.62,318.03 386.62,318.03 C383.91,322.42 381.69,325.52 380.98,326.52 C380.77,326.81 380.64,327.00 380.61,327.10" fill="none" stroke="rgb(229, 0, 16)" stroke-width="2.43" stroke-opacity="1.00" stroke-linejoin="round"/>
<path d="M397.15,316.81 C396.66,317.11 396.32,317.35 396.13,317.52 C395.77,317.84 391.10,323.11 389.40,324.59 C387.70,326.06 382.12,330.28 381.90,330.62 C381.90,330.62 383.31,330.31 383.31,330.31" fill="none" stroke="rgb(229, 0, 16)" stroke-width="2.43" stroke-opacity="1.00" stroke-linejoin="round"/>
<path d="M399.32,319.29 C399.32,319.29 400.10,319.37 400.10,319.37 C400.15,319.63 398.90,322.10 393.34,326.28 C392.46,326.94 390.30,328.57 389.95,328.91 C389.95,328.91 390.40,328.97 390.40,328.97" fill="none" stroke="rgb(229, 0, 16)" stroke-width="2.43" stroke-opacity="1.00" stroke-linejoin="round"/>
<path d="M399.63,323.33 C399.63,323.33 400.88,323.18 400.88,323.18 C400.69,323.91 396.45,328.62 394.82,329.92 C394.57,330.12 394.08,330.47 393.34,330.99" fill="none" stroke="rgb(229, 0, 16)" stroke-width="2.43" stroke-opacity="1.00" stroke-linejoin="round"/>
<path d="M422.93,315.57 C422.37,315.43 418.04,318.26 415.87,320.36 C414.85,321.35 408.87,327.53 407.78,328.85 C407.78,328.85 408.69,328.86 408.69,328.86" fill="none" stroke="rgb(229, 0, 16)" stroke-width="2.43" stroke-opacity="1.00" stroke-linejoin="round"/>
<path d="M422.93,321.16 C422.94,321.15 422.88,321.15 422.78,321.16 C421.92,321.28 420.72,322.02 418.66,323.73 C416.53,325.54 412.65,328.83 410.49,331.03 C410.49,331.03 410.65,331.40 410.65,331.40" fill="none" stroke="rgb(229, 0, 16)" stroke-width="2.43" stroke-opacity="1.00" stroke-linejoin="round"/>
<path d="M426.04,321.16 C426.04,321.16 426.66,320.85 426.66,320.85 C426.72,321.31 423.92,324.24 421.15,326.57 C419.04,328.33 414.64,331.65 413.43,332.56 C413.43,332.56 414.94,331.24 414.94,331.24" fill="none" stroke="rgb(229, 0, 16)" stroke-width="2.43" stroke-opacity="1.00" stroke-linejoin="round"/>
<path d="M429.77,321.47 C429.77,321.47 430.39,321.16 430.39,321.16 C429.97,321.66 428.79,322.97 427.89,323.96 C423.22,329.09 416.80,335.86 416.74,336.20 C416.74,336.20 419.52,334.83 419.52,334.83" fill="none" stroke="rgb(229, 0, 16)" stroke-width="2.43" stroke-opacity="1.00" stroke-linejoin="round"/>
<path d="M452.76,316.81 C452.76,316.81 452.61,316.81 452.61,316.81 C452.61,316.81 452.29,316.50 452.29,316.50 C452.29,316.50 440.30,329.97 440.30,329.97 C440.30,329.97 441.21,329.46 441.21,329.46" fill="none" stroke="rgb(229, 0, 16)" stroke-width="2.43" stroke-opacity="1.00" stroke-linejoin="round"/>
<path d="M454.31,324.27 C454.01,324.51 453.82,324.65 453.74,324.68 C453.34,324.89 448.56,329.73 446.27,331.59 C445.00,332.60 442.96,334.11 441.72,334.94 C441.29,335.23 440.60,335.66 439.66,336.23" fill="none" stroke="rgb(229, 0, 16)" stroke-width="2.43" stroke-opacity="1.00" stroke-linejoin="round"/>
<path d="M454.00,327.37 C453.97,328.08 453.76,328.71 453.17,329.47 C451.57,331.49 448.30,334.30 447.60,334.71 C447.35,334.85 446.92,335.03 446.33,335.23" fill="none" stroke="rgb(229, 0, 16)" stroke-width="2.43" stroke-opacity="1.00" stroke-linejoin="round"/>
<path d="M460.84,328.30 C460.84,328.30 463.17,328.30 463.17,328.30 C463.17,328.30 463.64,328.77 463.64,328.77 C462.92,330.32 456.58,335.24 454.49,336.37 C453.93,336.67 452.81,337.17 451.14,337.87" fill="none" stroke="rgb(229, 0, 16)" stroke-width="2.43" stroke-opacity="1.00" stroke-linejoin="round"/>
<path d="M459.60,333.59 C459.60,333.59 460.45,334.00 460.45,334.00 C460.52,334.60 458.83,336.35 457.86,336.91 C457.37,337.18 456.20,337.76 454.34,338.64" fill="none" stroke="rgb(229, 0, 16)" stroke-width="2.43" stroke-opacity="1.00" stroke-linejoin="round"/>
<path d="M252.06,364.65 C252.06,364.65 252.06,363.72 252.06,363.72 C252.06,363.72 228.37,389.73 228.37,389.73 C228.37,389.73 251.74,392.62 251.74,392.62 C251.74,392.62 244.47,407.36 244.47,407.36 C246.12,406.16 262.64,390.80 262.75,390.67 C262.89,390.51 263.16,390.15 263.55,389.60 C262.97,388.88 259.71,388.02 255.91,387.31 C252.76,386.78 246.49,385.69 245.16,385.33 C245.16,385.33 252.28,364.87 252.28,364.87 C252.28,364.87 235.01,386.97 235.01,386.97 C235.01,386.97 250.22,370.38 250.22,370.38 C250.22,370.38 232.31,386.59 232.31,386.59 C232.31,386.59 242.70,376.80 242.70,376.80 C242.70,376.80 232.40,390.13 232.40,390.13 C232.40,390.13 245.87,377.48 245.87,377.48 C245.87,377.48 241.02,385.64 241.02,385.64 C241.02,385.64 246.25,379.09 246.25,379.09 C246.25,379.09 241.83,387.08 241.83,387.08 C241.83,387.08 243.30,383.00 243.30,383.00 C243.30,383.00 241.36,388.65 241.36,388.65 C241.36,388.65 237.02,386.51 237.02,386.51 C237.02,386.51 255.05,391.40 255.05,391.40 C255.05,391.40 241.64,388.85 241.64,388.85 C241.64,388.85 259.59,392.09 259.59,392.09 C259.59,392.09 238.78,387.46 238.78,387.46 C238.78,387.46 257.02,390.65 257.02,390.65 C257.02,390.65 246.85,386.94 246.85,386.94 C250.63,387.52 257.60,389.27 257.92,389.44 C258.30,389.64 259.15,390.18 260.45,391.06" fill="none" stroke="rgb(0, 255, 0)" stroke-width="2.43" stroke-opacity="1.00" stroke-linejoin="round"/>
<path d="M257.96,392.31 C256.66,392.59 255.79,392.54 255.54,392.62 C254.41,392.97 251.24,396.97 250.53,398.17 C250.53,398.17 258.32,390.47 258.32,390.47 C258.32,390.47 249.39,401.40 249.39,401.40 C249.39,401.40 255.54,394.10 255.54,394.10 C255.44,395.04 252.72,399.41 251.60,400.54 C251.22,400.91 250.34,401.69 248.95,402.87" fill="none" stroke="rgb(0, 255, 0)" stroke-width="2.43" stroke-opacity="1.00" stroke-linejoin="round"/>
<path d="M299.84,360.65 C299.28,360.65 298.13,360.64 298.02,360.61 C295.22,359.94 283.39,361.42 279.24,363.41 C277.26,364.38 267.95,369.53 266.65,370.35 C263.85,372.14 259.96,376.13 258.16,378.26 C256.14,380.69 253.84,385.13 253.22,387.57 C252.81,389.24 252.33,393.87 252.34,395.85 C252.39,398.55 253.60,402.56 255.52,404.71 C257.40,406.78 262.01,410.27 264.16,411.38 C267.08,412.83 282.31,414.82 286.91,414.97 C287.27,414.98 316.01,413.75 319.84,412.88 C323.51,412.02 329.90,410.14 332.70,408.99 C336.72,407.30 342.50,404.01 345.64,401.26 C348.65,398.58 351.52,394.07 352.25,391.51 C352.83,389.34 353.60,384.52 353.16,382.08 C352.55,379.02 348.78,373.50 345.87,371.39 C345.01,370.78 336.94,366.03 333.80,364.72 C329.28,362.85 318.60,361.32 313.06,361.25 C310.15,361.23 306.29,361.54 301.17,362.12 C300.44,362.20 299.71,362.29 298.97,362.37" fill="none" stroke="rgb(255, 255, 0)" stroke-width="2.43" stroke-opacity="1.00" stroke-linejoin="round"/>
<path d="M286.02,365.54 C285.44,364.91 281.16,365.04 278.27,366.15 C274.77,367.52 270.55,370.62 269.31,371.76 C267.66,373.32 264.22,377.84 263.40,379.41 C262.06,382.05 262.26,383.30 262.99,384.79 C264.59,385.17 268.72,384.27 272.52,382.59 C275.98,381.03 285.88,374.96 288.87,371.41 C289.79,370.30 290.93,368.26 291.43,366.94 C291.86,365.79 291.70,364.75 291.03,363.14 C288.40,362.29 283.14,362.85 279.46,364.13 C274.88,365.77 265.87,371.22 262.09,374.47 C256.58,379.27 255.77,382.49 256.00,383.44 C257.26,384.66 261.97,385.59 265.21,385.36 C270.18,384.97 280.30,381.37 284.80,378.76 C286.66,377.66 291.06,374.44 292.97,372.37 C294.87,370.28 295.57,367.93 295.71,366.86 C294.91,365.20 294.34,364.48 293.44,364.25 C291.56,363.79 287.89,364.48 285.38,366.07 C282.64,367.84 278.29,372.61 277.40,374.23 C276.45,376.02 275.64,378.08 275.50,379.08 C275.43,380.10 275.78,381.97 276.34,382.77 C276.97,383.60 279.60,384.65 281.28,384.84 C284.29,385.12 289.95,383.77 292.45,382.74 C296.43,381.07 305.70,374.90 308.54,371.14 C310.24,368.85 310.64,366.81 310.64,365.83 C309.48,364.48 308.69,363.95 307.58,363.96 C305.14,364.04 300.79,365.87 297.86,368.26 C292.02,373.11 291.28,376.71 291.16,378.50 C291.91,379.82 292.95,380.82 294.42,381.39 C297.00,382.36 303.26,382.30 306.37,381.19 C309.54,380.02 315.12,376.05 317.12,373.70 C318.94,371.51 319.70,369.40 319.92,368.32 C319.92,368.32 319.03,366.38 319.03,366.38 C316.92,365.66 315.61,365.40 314.47,365.61 C311.96,366.11 307.44,368.94 304.83,371.81 C303.73,373.06 301.56,377.20 302.04,378.68 C302.61,380.24 307.48,381.94 310.35,381.83 C313.13,381.68 318.68,379.46 321.29,377.66 C326.71,373.82 327.22,370.51 327.13,369.02 C325.83,368.50 324.91,368.38 323.76,368.75 C321.13,369.61 317.03,372.35 314.89,374.31 C312.96,376.12 310.39,379.39 309.46,381.04 C308.40,383.02 307.86,386.79 309.14,388.23 C310.32,389.48 314.95,390.53 317.11,390.12 C319.69,389.58 324.42,386.56 326.78,384.01 C328.86,381.72 331.43,377.12 331.52,375.44 C331.53,374.60 330.94,373.19 330.38,372.67 C329.12,371.63 324.75,371.79 321.40,373.48 C318.13,375.18 308.58,383.74 305.01,388.16 C300.97,393.19 300.08,395.84 299.77,397.33 C299.77,397.33 301.28,398.87 301.28,398.87 C303.02,399.05 305.99,398.31 307.64,397.14 C309.34,395.89 311.45,392.62 311.70,390.80 C311.92,388.88 310.41,384.87 308.63,383.12 C306.72,381.30 301.91,379.82 299.88,380.03 C297.95,380.27 293.45,382.16 291.45,383.58 C287.03,386.77 279.98,395.87 279.17,398.57 C278.71,400.16 278.86,401.50 279.48,402.50 C281.18,403.51 285.58,403.37 287.76,402.40 C289.76,401.48 293.45,398.16 294.32,397.07 C296.33,394.46 297.63,389.98 296.93,387.74 C296.19,385.53 292.38,382.11 290.14,381.71 C287.82,381.35 282.94,383.75 280.98,385.39 C271.39,393.62 269.92,400.97 269.80,402.66 C270.33,403.65 271.11,404.34 272.22,404.56 C274.15,404.90 278.95,403.91 281.36,402.47 C283.63,401.07 286.99,397.45 287.63,396.27 C289.07,393.51 289.43,388.72 288.52,386.55 C288.06,385.54 286.72,383.94 285.86,383.39 C284.95,382.84 282.79,382.38 281.58,382.50 C279.19,382.78 274.67,385.62 272.65,387.45 C269.05,390.77 262.98,399.48 262.34,402.06 C261.92,403.75 262.12,405.01 262.82,405.87 C264.67,406.74 268.81,406.83 271.14,406.04 C273.61,405.16 277.40,401.48 278.44,399.06 C279.42,396.62 279.32,391.33 278.22,388.70 C277.08,386.09 273.82,382.48 271.84,382.14 C270.76,382.01 268.54,382.59 267.35,383.32 C264.98,384.87 261.25,390.60 260.10,394.19 C259.60,395.88 259.62,399.66 260.75,400.76 C261.78,401.71 265.82,401.99 267.59,401.42 C269.64,400.71 272.86,397.74 273.74,395.61 C274.56,393.48 274.46,388.88 273.68,386.73 C272.92,384.75 270.47,382.16 269.03,382.15 C268.19,382.18 266.37,383.13 265.48,384.05 C263.43,386.27 260.58,392.57 259.96,395.13 C259.75,396.18 259.64,398.29 259.84,399.30 C260.08,400.48 261.18,401.86 262.61,403.15" fill="none" stroke="rgb(255, 255, 0)" stroke-width="2.43" stroke-opacity="1.00" stroke-linejoin="round"/>
<path d="M262.41,399.52 C262.41,399.52 256.86,399.56 256.86,399.56 C256.93,402.25 257.26,403.53 258.33,404.45 C260.65,406.38 264.70,408.40 267.29,408.92 C269.82,409.39 274.35,408.88 276.62,407.87 C278.57,406.96 282.56,404.19 283.79,402.03 C283.15,401.16 281.91,400.31 280.63,400.17 C279.35,400.05 277.26,400.50 276.53,401.04 C274.87,402.37 273.40,405.86 273.92,408.04 C274.27,409.28 275.72,411.65 276.74,412.46 C277.84,413.29 280.98,414.29 282.57,414.33 C285.67,414.31 291.85,411.25 295.13,408.50 C300.90,403.57 301.98,400.03 302.09,399.20 C302.09,399.20 301.08,398.01 301.08,398.01 C299.51,397.97 295.36,399.80 292.69,402.04 C289.97,404.35 286.90,409.21 286.71,410.45 C286.56,411.94 287.12,414.05 288.07,414.99 C289.77,416.56 296.56,418.22 299.41,417.85 C302.18,417.44 308.37,414.09 311.13,411.71 C313.82,409.33 317.13,404.55 317.45,402.57 C317.69,400.74 315.80,397.74 314.05,397.02 C312.08,396.26 307.25,397.35 304.60,399.32 C302.16,401.18 299.03,405.55 298.59,406.83 C298.15,408.26 298.15,410.00 298.71,410.75 C299.24,411.39 301.15,412.17 302.41,412.26 C305.06,412.38 311.29,410.08 315.07,407.60 C320.42,404.04 325.46,398.08 326.78,395.31 C327.37,394.05 327.30,392.95 326.71,391.17 C325.26,390.50 321.57,390.85 318.17,392.41 C314.91,393.96 307.37,400.68 305.28,403.91 C304.06,405.89 304.06,407.02 304.35,408.49 C305.37,409.42 306.65,410.12 308.14,410.36 C310.88,410.77 316.95,409.44 320.35,407.63 C323.59,405.87 329.57,401.23 331.56,398.89 C333.46,396.59 334.50,393.01 333.72,391.91 C332.89,390.86 328.96,389.88 326.62,390.45 C323.73,391.21 318.63,395.60 316.98,398.03 C315.82,399.83 314.10,403.51 314.31,405.66 C314.45,406.82 315.87,408.50 317.04,409.04 C319.26,409.97 325.24,409.65 328.34,408.30 C331.27,406.98 337.10,402.64 339.07,400.43 C340.95,398.25 342.34,394.24 341.92,392.77 C341.45,391.35 338.25,389.76 335.90,389.97 C334.54,390.12 331.81,391.13 330.31,392.05 C327.53,393.82 324.25,398.45 323.89,399.79 C323.52,401.31 323.59,403.59 324.14,404.62 C324.65,405.51 326.41,406.78 327.55,407.14 C329.84,407.79 334.98,406.67 337.42,404.97 C339.77,403.27 343.24,398.79 344.23,396.93 C345.15,395.03 345.95,390.62 345.11,388.10 C344.25,385.66 340.51,381.74 338.04,381.07 C335.27,380.39 330.16,382.17 328.54,383.53 C326.86,385.08 325.06,388.96 325.93,391.18 C326.80,393.19 331.44,395.94 334.26,396.16 C337.09,396.32 342.19,394.13 344.48,391.93 C346.60,389.84 348.30,385.73 347.92,383.56 C347.49,381.45 344.34,377.63 341.99,376.67 C339.21,375.63 332.89,376.31 329.04,378.09 C327.51,378.84 323.65,382.06 323.16,383.75 C322.93,384.66 323.34,386.35 323.95,387.14 C325.23,388.66 330.01,390.44 333.26,390.49 C334.86,390.49 339.26,389.29 341.28,387.75 C343.37,386.12 345.80,381.75 345.79,379.70 C345.73,377.68 343.30,373.53 341.23,371.88 C340.06,370.99 337.52,369.76 336.10,369.47 C333.11,368.91 327.73,370.37 325.32,371.66 C323.02,372.94 319.08,376.28 317.80,377.97 C317.18,378.86 316.39,380.57 316.27,381.47 C316.18,382.46 317.19,384.24 318.19,385.02 C319.94,386.33 324.67,387.55 326.06,387.55 C329.24,387.47 334.22,385.32 336.06,383.36 C337.77,381.45 338.82,376.95 338.13,374.60 C337.35,372.18 333.56,367.82 330.84,366.58 C327.98,365.33 322.31,365.32 319.71,365.90 C317.46,366.44 313.31,368.17 311.04,369.50 C305.95,372.56 301.81,377.81 301.59,379.10 C301.49,379.84 302.32,381.13 303.13,381.62 C304.78,382.53 310.56,383.26 313.27,382.67 C316.10,382.01 320.64,378.73 321.74,376.60 C322.27,375.52 322.59,373.41 322.39,372.33 C321.93,370.22 318.22,366.69 315.51,365.66 C312.79,364.68 307.06,364.77 304.69,365.29 C300.41,366.31 291.64,371.04 288.84,373.81 C287.51,375.17 285.90,378.66 286.62,380.35 C287.42,382.10 292.09,385.16 295.18,385.82 C298.04,386.38 302.98,385.73 304.21,385.20 C306.95,383.95 309.57,380.72 309.47,378.92 C309.30,377.21 305.96,373.32 303.65,372.29 C301.23,371.24 297.53,371.27 295.90,371.76 C294.03,372.34 290.22,374.51 288.38,376.06 C286.52,377.66 283.27,381.38 282.14,383.23 C280.99,385.15 279.90,388.61 279.98,390.21 C280.19,393.27 283.66,397.16 285.03,398.57" fill="none" stroke="rgb(255, 255, 0)" stroke-width="2.43" stroke-opacity="1.00" stroke-linejoin="round"/>
<path d="M291.20,395.77 C290.05,396.05 286.85,396.81 286.31,397.00 C284.98,397.46 284.12,398.40 283.61,399.64 C284.20,401.32 284.76,402.30 285.69,402.92 C287.63,404.19 292.30,405.48 295.14,405.53 C297.87,405.53 301.70,404.53 303.53,403.42 C304.36,402.90 304.71,402.09 305.02,400.40 C304.37,398.97 301.39,396.61 298.90,395.51 C296.13,394.32 290.41,393.77 288.31,394.15 C286.38,394.54 282.51,396.38 280.96,397.59 C279.49,398.77 277.08,402.01 276.76,403.01 C276.39,404.34 276.53,406.17 277.17,406.98 C278.28,408.29 283.28,409.47 285.79,409.26 C286.92,409.15 289.16,408.58 290.25,408.16 C292.28,407.34 294.22,405.83 295.52,404.70" fill="none" stroke="rgb(255, 255, 0)" stroke-width="2.43" stroke-opacity="1.00" stroke-linejoin="round"/>
<path d="M281.41,415.64 C281.41,415.64 281.49,420.82 281.49,420.82 C281.42,420.22 279.01,419.00 276.23,418.66 C272.77,418.23 270.72,417.82 267.98,415.84 C267.28,415.32 265.54,414.03 265.16,413.85 C264.67,414.99 265.76,419.22 267.40,421.28 C269.08,423.34 280.35,431.05 280.67,431.43 C280.98,431.83 282.20,486.33 281.98,486.66 C281.23,487.75 276.43,494.89 275.44,496.95 C270.85,506.49 267.98,510.98 261.41,520.33 C255.33,528.84 250.02,537.02 247.30,540.57 C245.19,543.29 240.59,549.14 238.58,551.15 C238.36,551.36 226.79,560.00 225.61,560.31 C225.43,560.36 225.12,560.41 224.69,560.47" fill="none" stroke="rgb(255, 255, 0)" stroke-width="2.43" stroke-opacity="1.00" stroke-linejoin="round"/>
<path d="M301.57,426.01 C301.57,426.01 299.65,424.09 299.65,424.09 C299.67,424.00 301.98,423.74 304.98,422.28 C307.97,420.78 311.53,418.09 313.59,415.83 C315.52,413.62 317.87,410.95 318.41,410.48 C318.41,410.48 317.40,411.03 317.40,411.03" fill="none" stroke="rgb(255, 255, 0)" stroke-width="2.43" stroke-opacity="1.00" stroke-linejoin="round"/>
<path d="M301.85,426.01 C301.85,426.01 300.61,426.01 300.61,426.01 C300.61,426.01 300.41,425.72 300.41,425.72 C300.66,426.06 301.69,429.13 303.47,435.32 C305.54,442.49 309.05,480.92 309.39,481.52 C309.56,481.82 317.18,494.14 320.61,499.25 C324.87,505.63 331.63,516.36 335.82,522.75 C337.85,525.81 340.41,528.30 340.85,529.24 C344.48,537.32 347.01,545.98 347.97,552.80 C348.05,553.41 348.07,554.16 348.03,555.05 C348.02,555.20 347.98,555.66 347.92,556.44" fill="none" stroke="rgb(255, 255, 0)" stroke-width="2.43" stroke-opacity="1.00" stroke-linejoin="round"/>
<path d="M289.47,441.27 C289.47,441.27 288.32,442.06 288.32,442.06 C288.26,441.09 289.88,438.46 290.75,437.96 C291.62,437.50 294.12,437.24 295.49,437.46 C296.81,437.70 298.77,439.19 299.07,441.42 C299.28,443.28 297.75,447.25 296.61,447.85 C295.28,448.46 290.96,447.82 289.31,446.93 C287.71,446.02 286.20,443.18 286.19,441.23 C286.23,439.22 287.78,434.27 289.14,432.55 C289.93,431.60 291.68,430.52 292.72,430.41 C293.79,430.33 296.25,431.08 297.37,431.81 C299.59,433.36 301.80,438.34 301.99,441.33 C302.10,443.69 301.82,449.36 301.09,450.88 C300.80,451.46 299.58,453.12 299.32,453.30 C299.03,453.50 298.08,453.68 296.38,453.94" fill="none" stroke="rgb(255, 255, 0)" stroke-width="2.43" stroke-opacity="1.00" stroke-linejoin="round"/>
<path d="M209.43,439.25 C209.43,439.25 209.43,439.39 209.43,439.39 C209.43,439.39 209.14,439.63 209.14,439.63 C207.20,442.10 200.83,449.67 199.98,450.55 C199.70,450.83 193.75,452.13 192.27,452.12 C190.32,452.06 187.00,449.82 185.29,447.77 C184.41,446.67 182.82,443.94 182.46,442.75 C181.78,440.38 182.98,435.26 183.98,432.23 C184.78,429.96 187.13,424.70 188.92,422.27 C191.03,419.45 197.02,414.04 199.97,412.47 C203.82,410.47 215.45,408.00 220.57,407.55 C224.61,407.21 229.62,407.70 234.30,408.99 C241.08,410.95 255.54,415.30 258.55,417.15 C261.08,418.75 264.77,423.51 266.28,426.61 C267.66,429.53 268.82,434.31 268.97,436.71 C269.08,438.99 268.61,443.31 268.00,445.30 C267.16,447.93 264.82,451.77 262.93,452.76 C261.95,453.25 259.36,453.84 258.16,453.83 C255.49,453.73 249.96,450.16 247.07,447.01 C245.94,445.75 244.83,444.30 243.69,442.71" fill="none" stroke="rgb(0, 255, 255)" stroke-width="2.43" stroke-opacity="1.00" stroke-linejoin="round"/>
<path d="M246.00,417.37 C246.00,417.37 245.90,416.98 245.90,416.98 C245.34,416.80 244.72,416.79 243.99,417.14 C241.30,418.49 228.33,428.44 226.35,430.78 C225.22,432.12 224.80,433.04 224.97,433.63 C227.38,434.15 243.40,426.76 249.17,422.57 C251.78,420.66 255.13,417.49 255.14,417.13 C254.90,416.90 250.11,418.84 247.91,420.25 C241.37,424.59 240.07,429.74 240.09,430.79 C242.31,431.13 243.65,430.87 245.50,429.54 C246.23,429.02 248.77,427.31 250.33,426.27" fill="none" stroke="rgb(0, 255, 255)" stroke-width="2.43" stroke-opacity="1.00" stroke-linejoin="round"/>
<path d="M255.21,421.11 C255.21,421.11 255.21,420.97 255.21,420.97 C255.21,420.97 255.06,420.82 255.06,420.82 C254.79,420.89 246.51,430.08 240.72,434.95 C239.99,435.56 239.27,436.17 238.55,436.79 C245.19,435.75 257.76,425.37 257.91,425.05 C254.69,426.59 251.17,429.57 249.21,432.04 C247.19,434.62 246.69,436.18 246.67,436.99 C246.67,436.99 251.18,434.93 251.18,434.93" fill="none" stroke="rgb(0, 255, 255)" stroke-width="2.43" stroke-opacity="1.00" stroke-linejoin="round"/>
<path d="M252.91,433.49 C252.68,433.75 251.54,434.62 251.11,435.00 C250.76,435.31 244.79,441.12 244.63,441.85 C251.79,441.51 262.92,430.54 263.13,429.50 C262.11,429.18 257.15,431.96 255.06,433.84 C253.41,435.36 250.99,438.37 250.05,440.08 C249.48,441.14 249.32,442.23 249.35,444.14 C250.48,444.77 252.09,444.49 254.23,443.12 C257.75,440.86 264.72,432.91 264.47,431.98 C263.29,432.59 259.52,436.66 257.87,438.88 C256.21,441.18 254.18,445.18 254.82,446.66 C256.80,446.82 262.11,442.85 264.28,440.39 C265.07,439.48 265.50,438.71 265.61,438.24 C262.90,439.07 259.62,448.50 259.72,450.37 C260.91,450.69 261.69,450.54 262.37,449.40 C263.24,447.98 264.34,445.81 264.64,445.04 C264.64,445.04 263.20,450.03 263.20,450.03 C263.80,449.02 264.95,444.39 265.46,441.75 C265.62,440.85 265.74,440.12 265.82,439.58 C266.11,437.47 266.03,436.27 265.64,435.69 C263.44,434.71 261.65,427.21 261.58,426.56 C261.58,426.56 262.23,427.60 262.23,427.60 C262.41,426.92 261.44,424.26 260.03,422.60 C258.52,420.86 256.73,419.98 255.62,419.64 C255.62,419.64 253.19,421.40 253.19,421.40" fill="none" stroke="rgb(0, 255, 255)" stroke-width="2.43" stroke-opacity="1.00" stroke-linejoin="round"/>
<path d="M249.16,415.35 C247.66,415.32 246.68,415.32 246.21,415.35 C245.75,415.38 245.15,415.48 244.41,415.64 C244.27,415.27 242.08,414.26 236.34,419.01 C234.20,420.79 233.40,421.52 232.65,422.31 C237.90,420.49 238.75,415.12 238.55,414.09 C237.37,413.55 236.51,413.40 235.60,413.75 C231.59,415.35 223.38,424.36 221.83,427.27 C222.91,427.49 223.61,427.27 224.55,426.24 C226.23,424.37 228.11,421.07 228.53,419.13 C228.92,417.10 228.20,413.33 226.31,411.59 C224.34,411.40 223.14,411.55 222.01,412.33 C217.35,415.62 211.53,424.29 210.79,426.84 C213.17,425.62 214.36,424.80 214.97,423.76 C215.95,422.11 217.67,417.97 218.08,415.97 C218.31,414.82 218.21,413.63 217.82,411.54 C217.82,411.54 216.33,410.64 216.33,410.64 C214.84,411.11 211.66,414.02 208.93,417.69 C206.46,421.05 201.09,430.47 201.04,432.20 C204.04,429.05 206.18,424.73 206.86,423.14 C207.58,421.42 208.86,416.96 209.19,414.44 C209.38,412.99 209.15,411.71 208.47,409.74 C207.10,409.63 205.75,410.42 204.44,412.43 C197.39,423.30 194.92,435.06 194.70,436.71 C194.70,436.71 195.75,438.22 195.75,438.22 C197.36,437.92 199.08,437.07 199.83,435.80 C201.77,432.45 201.59,423.90 201.19,421.91 C200.94,420.74 200.34,419.81 199.06,418.44 C197.48,418.85 196.08,420.06 194.90,422.36 C192.83,426.44 190.60,437.14 190.69,441.10 C190.74,442.70 190.98,443.71 191.51,444.80 C191.51,444.80 193.28,445.49 193.28,445.49 C194.66,444.51 195.34,443.84 195.67,442.96 C196.32,441.19 196.73,437.23 196.49,434.85 C196.23,432.52 194.97,428.49 193.83,426.21 C193.28,425.13 192.52,424.58 190.98,423.96 C189.62,424.66 187.03,428.24 185.61,431.64 C184.21,435.06 183.06,441.31 183.18,442.68 C183.35,444.30 184.10,446.46 184.83,447.24 C186.00,448.42 189.41,448.30 190.65,447.22 C191.92,446.06 193.97,441.69 194.51,439.10 C195.65,433.32 194.07,429.78 193.51,428.93 C193.51,428.93 191.69,428.20 191.69,428.20 C189.73,429.65 188.76,430.58 188.07,431.76 C186.61,434.31 184.77,439.34 184.54,443.07 C184.48,444.74 186.44,448.29 188.36,449.20 C189.98,449.89 194.03,449.75 195.78,448.81 C197.45,447.88 199.66,444.81 199.84,443.51 C200.22,440.33 198.83,437.34 198.04,436.18 C197.14,437.70 196.81,439.95 197.40,441.94 C197.87,443.50 200.12,445.35 200.79,445.87" fill="none" stroke="rgb(0, 255, 255)" stroke-width="2.43" stroke-opacity="1.00" stroke-linejoin="round"/>
<path d="M216.05,427.16 C216.05,427.16 213.21,425.25 213.21,425.25 C210.58,425.49 206.80,430.90 206.35,431.88 C208.25,432.52 209.71,432.58 211.76,431.92 C218.10,429.85 221.93,426.83 222.27,426.37 C217.96,425.87 216.19,430.17 216.10,431.25 C216.10,431.25 217.16,432.24 217.16,432.24 C218.96,432.24 221.22,431.69 223.23,430.56 C226.25,428.85 228.14,426.66 228.71,425.81 C228.57,425.92 228.16,426.08 228.05,426.46 C227.97,426.74 227.81,427.55 227.57,428.89" fill="none" stroke="rgb(0, 255, 255)" stroke-width="2.43" stroke-opacity="1.00" stroke-linejoin="round"/>
<path d="M216.05,439.25 C216.05,439.25 214.04,440.96 214.04,440.96 C217.36,441.03 218.18,437.48 218.06,437.06 C218.06,437.06 214.88,439.43 214.88,439.43 C214.88,439.43 216.34,440.69 216.34,440.69" fill="none" stroke="rgb(0, 255, 255)" stroke-width="2.43" stroke-opacity="1.00" stroke-linejoin="round"/>
<path d="M235.34,441.27 C235.34,441.27 234.17,440.29 234.17,440.29 C234.17,440.29 233.86,440.29 233.86,440.29 C233.86,440.29 233.45,441.97 233.45,441.97 C235.21,442.56 235.67,439.85 235.59,439.36 C235.59,439.36 232.50,442.20 232.50,442.20 C232.50,442.20 233.74,441.06 233.74,441.06 C233.74,441.06 232.17,442.71 232.17,442.71" fill="none" stroke="rgb(0, 255, 255)" stroke-width="2.43" stroke-opacity="1.00" stroke-linejoin="round"/>
<path d="M227.28,448.18 C227.28,448.18 226.70,448.13 226.70,448.13 C226.25,447.48 221.37,447.70 220.59,448.47 C220.46,448.60 220.32,448.86 220.16,449.26 C220.16,449.26 221.10,450.43 221.10,450.43 C221.10,450.43 228.37,447.35 228.37,447.35 C228.37,447.35 224.37,448.43 224.37,448.43 C224.37,448.43 224.11,449.04 224.11,449.04" fill="none" stroke="rgb(0, 255, 255)" stroke-width="2.43" stroke-opacity="1.00" stroke-linejoin="round"/>
<path d="M225.55,450.19 C225.55,450.19 224.47,450.19 224.47,450.19 C224.47,450.19 224.11,450.48 224.11,450.48 C224.11,450.48 225.49,448.41 225.49,448.41 C225.49,448.41 222.93,448.89 222.93,448.89 C222.93,448.89 223.54,449.90 223.54,449.90" fill="none" stroke="rgb(0, 255, 255)" stroke-width="2.43" stroke-opacity="1.00" stroke-linejoin="round"/>
<path d="M215.19,451.92 C215.19,451.92 215.19,452.50 215.19,452.50 C215.19,452.50 213.89,447.43 213.89,447.43 C212.49,447.07 210.30,448.51 209.82,449.06 C209.63,449.29 209.31,449.76 208.85,450.48" fill="none" stroke="rgb(0, 255, 255)" stroke-width="2.43" stroke-opacity="1.00" stroke-linejoin="round"/>
<path d="M209.43,440.11 C209.43,440.11 208.13,440.22 208.13,440.22 C208.13,440.22 208.17,451.35 208.17,451.35 C209.57,452.11 211.85,452.39 216.57,452.82 C218.83,453.02 221.80,452.16 223.03,451.72 C223.11,452.38 222.91,454.24 222.86,454.99 C222.69,457.17 222.67,461.63 222.67,462.57" fill="none" stroke="rgb(0, 255, 255)" stroke-width="2.43" stroke-opacity="1.00" stroke-linejoin="round"/>
<path d="M233.90,453.65 C233.90,453.65 233.47,453.36 233.47,453.36 C233.47,453.36 232.97,453.40 232.97,453.40 C232.97,453.40 232.81,461.38 232.81,461.38 C232.81,461.38 233.33,460.56 233.33,460.56" fill="none" stroke="rgb(0, 255, 255)" stroke-width="2.43" stroke-opacity="1.00" stroke-linejoin="round"/>
<path d="M233.61,453.65 C233.61,453.65 232.22,454.51 232.22,454.51 C233.51,454.38 239.28,453.19 240.83,451.97 C241.56,451.37 242.86,448.07 243.00,444.78 C243.10,442.27 242.66,440.59 242.50,440.34 C242.50,440.34 241.96,440.98 241.96,440.98" fill="none" stroke="rgb(0, 255, 255)" stroke-width="2.43" stroke-opacity="1.00" stroke-linejoin="round"/>
<path d="M240.52,447.31 C240.52,447.31 240.52,447.60 240.52,447.60 C240.52,447.60 240.21,447.89 240.21,447.89 C238.27,447.87 235.18,448.55 234.28,449.71 C233.85,450.29 233.10,452.44 233.15,452.95 C233.18,453.16 233.33,453.49 233.61,453.94" fill="none" stroke="rgb(0, 255, 255)" stroke-width="2.43" stroke-opacity="1.00" stroke-linejoin="round"/>
<path d="M233.61,462.00 C232.90,462.07 231.82,461.62 231.41,461.48 C229.01,460.74 223.58,459.90 222.68,460.71 C217.63,465.36 207.12,473.96 207.08,474.24 C207.15,474.80 209.43,476.78 210.93,477.23 C212.58,477.66 215.61,475.54 218.77,472.50 C220.25,471.06 221.31,470.13 222.37,469.32 C222.37,469.32 220.53,483.11 220.53,483.11 C220.53,483.11 232.66,484.11 232.66,484.11 C232.66,484.11 231.89,472.70 231.89,472.70 C231.73,473.04 237.15,476.70 239.24,477.74 C240.63,478.39 241.79,477.81 243.43,475.82 C244.48,474.49 245.19,473.28 245.30,472.64 C245.42,471.61 239.90,466.61 239.26,466.02 C237.90,464.75 236.93,463.67 236.13,462.59 C236.13,462.59 236.21,461.13 236.21,461.13" fill="none" stroke="rgb(0, 255, 255)" stroke-width="2.43" stroke-opacity="1.00" stroke-linejoin="round"/>
<path d="M207.99,474.95 C207.84,474.35 206.48,473.30 205.38,473.26 C203.84,473.26 200.42,476.34 200.16,477.97 C200.03,478.86 200.57,479.82 201.40,480.57 C201.40,480.57 206.18,479.62 206.18,479.62 C206.18,479.62 203.85,486.70 203.85,486.70 C203.85,486.70 204.97,487.22 204.97,487.22 C204.97,487.22 209.29,484.25 209.29,484.25 C209.29,484.25 209.08,487.20 209.08,487.20 C210.02,487.36 210.53,487.31 210.92,486.78 C212.02,485.30 212.57,483.73 212.74,483.15 C213.34,482.47 213.75,481.36 213.76,480.16 C213.77,479.82 213.35,478.63 212.88,477.26" fill="none" stroke="rgb(0, 255, 255)" stroke-width="2.43" stroke-opacity="1.00" stroke-linejoin="round"/>
<path d="M243.40,477.83 C243.40,477.83 242.68,478.27 242.68,478.27 C242.30,479.03 242.14,480.35 242.52,481.28 C242.99,482.42 245.66,485.21 246.40,485.13 C248.88,484.66 250.64,480.12 250.38,478.93 C251.08,479.82 252.78,480.90 253.97,481.09 C255.05,481.25 256.72,480.69 256.94,480.03 C257.38,478.37 256.77,475.59 255.38,475.53 C255.38,475.53 257.69,473.12 257.69,473.12 C257.69,473.12 254.83,470.61 254.83,470.61 C254.83,470.61 255.42,468.13 255.42,468.13 C254.99,467.60 253.61,467.23 252.11,467.53 C250.67,467.84 248.53,468.91 247.43,469.84 C246.66,470.49 245.90,471.14 245.13,471.79" fill="none" stroke="rgb(0, 255, 255)" stroke-width="2.43" stroke-opacity="1.00" stroke-linejoin="round"/>
<path d="M223.25,485.03 C223.25,485.03 222.60,485.14 222.60,485.14 C222.42,485.42 220.60,490.11 218.59,492.94 C217.86,493.96 215.80,498.08 214.06,501.09 C211.44,505.54 208.04,509.61 207.69,510.05 C207.42,510.35 206.11,511.18 205.71,511.27 C202.22,512.04 199.97,513.61 199.77,514.30 C199.62,515.00 201.27,516.82 203.52,517.35 C206.39,517.98 214.08,517.58 218.12,516.92 C221.38,516.37 223.15,515.19 223.83,514.48 C223.83,514.48 223.73,513.26 223.73,513.26 C222.44,511.76 218.47,510.16 214.90,510.30 C214.20,510.33 210.89,510.75 210.12,510.87 C209.75,510.93 209.04,511.05 207.99,511.23" fill="none" stroke="rgb(0, 255, 255)" stroke-width="2.43" stroke-opacity="1.00" stroke-linejoin="round"/>
<path d="M224.69,509.51 C224.69,509.51 224.11,510.20 224.11,510.20 C223.71,510.22 223.98,506.49 224.62,501.02 C225.09,496.93 227.09,487.49 227.28,484.60 C229.00,489.50 232.26,505.30 233.20,508.22 C233.55,509.32 234.01,510.48 234.12,510.69 C234.12,510.69 242.99,511.40 242.99,511.40 C242.62,510.21 232.88,485.00 232.77,484.73 C232.67,484.46 232.47,483.98 232.17,483.30" fill="none" stroke="rgb(0, 255, 255)" stroke-width="2.43" stroke-opacity="1.00" stroke-linejoin="round"/>
<path d="M236.21,510.95 C236.20,510.85 235.48,510.65 235.20,510.55 C235.08,510.51 234.94,510.45 234.79,510.37 C234.85,512.71 235.77,515.06 236.66,515.84 C237.69,516.65 242.42,517.50 245.72,517.05 C249.59,516.49 251.61,514.72 252.23,513.73 C252.23,513.73 252.18,512.41 252.18,512.41 C251.45,511.44 250.60,510.73 249.36,510.21 C248.89,510.02 246.12,509.00 245.13,508.64" fill="none" stroke="rgb(0, 255, 255)" stroke-width="2.43" stroke-opacity="1.00" stroke-linejoin="round"/>
<path d="M214.61,506.91 C214.61,506.91 212.34,506.63 212.34,506.63 C213.48,506.70 217.72,508.57 218.48,508.95 C218.72,509.06 219.25,509.24 220.08,509.51" fill="none" stroke="rgb(0, 255, 255)" stroke-width="2.43" stroke-opacity="1.00" stroke-linejoin="round"/>
<path d="M216.34,505.19 C216.34,505.19 215.55,507.13 215.55,507.13 C215.93,507.50 216.58,507.87 217.24,507.97 C217.48,508.00 218.00,508.04 218.80,508.07" fill="none" stroke="rgb(0, 255, 255)" stroke-width="2.43" stroke-opacity="1.00" stroke-linejoin="round"/>
<path d="M218.07,502.60 C217.79,503.95 217.76,504.88 218.07,505.47 C218.33,505.96 219.22,506.88 219.61,506.96 C219.81,506.99 220.25,506.97 220.95,506.91" fill="none" stroke="rgb(0, 255, 255)" stroke-width="2.43" stroke-opacity="1.00" stroke-linejoin="round"/>
<path d="M220.95,502.88 C220.95,502.88 219.65,505.26 219.65,505.26 C219.65,505.26 219.84,506.11 219.84,506.11 C220.12,506.19 220.35,506.19 220.51,506.13 C220.68,506.07 221.01,505.85 221.52,505.47" fill="none" stroke="rgb(0, 255, 255)" stroke-width="2.43" stroke-opacity="1.00" stroke-linejoin="round"/>
<path d="M220.66,497.99 C220.66,497.99 218.76,500.44 218.76,500.44 C219.57,500.15 220.09,499.95 220.33,499.82 C220.58,499.70 220.88,499.47 221.23,499.14" fill="none" stroke="rgb(0, 255, 255)" stroke-width="2.43" stroke-opacity="1.00" stroke-linejoin="round"/>
<path d="M220.95,494.53 C220.95,494.53 219.22,496.69 219.22,496.69 C219.22,496.69 219.36,497.41 219.36,497.41 C219.88,497.77 220.66,498.15 221.25,497.96 C221.58,497.86 222.34,497.48 223.54,496.84" fill="none" stroke="rgb(0, 255, 255)" stroke-width="2.43" stroke-opacity="1.00" stroke-linejoin="round"/>
<path d="M222.96,493.09 C222.96,493.09 221.57,495.11 221.57,495.11 C222.47,495.01 223.16,494.77 223.71,494.33 C223.81,494.25 223.94,494.13 224.11,493.96" fill="none" stroke="rgb(0, 255, 255)" stroke-width="2.43" stroke-opacity="1.00" stroke-linejoin="round"/>
<path d="M224.69,488.77 C224.69,488.77 223.03,489.64 223.03,489.64 C224.57,490.06 225.41,489.86 225.98,488.74 C226.30,488.12 226.52,487.66 226.63,487.36 C226.87,486.69 226.87,486.16 226.73,485.83 C226.73,485.83 226.37,485.77 226.37,485.77 C226.37,485.77 226.06,486.06 226.06,486.06" fill="none" stroke="rgb(0, 255, 255)" stroke-width="2.43" stroke-opacity="1.00" stroke-linejoin="round"/>
<path d="M231.31,489.64 C231.26,489.64 231.21,489.64 231.17,489.64 C231.02,489.64 230.88,489.64 230.73,489.64 C230.94,489.92 231.41,490.32 231.94,490.55 C232.15,490.65 232.61,490.82 233.33,491.08" fill="none" stroke="rgb(0, 255, 255)" stroke-width="2.43" stroke-opacity="1.00" stroke-linejoin="round"/>
<path d="M233.90,491.08 C233.90,491.08 231.98,494.20 231.98,494.20 C232.31,494.44 232.91,494.60 233.40,494.48 C233.57,494.43 233.88,494.30 234.35,494.07" fill="none" stroke="rgb(0, 255, 255)" stroke-width="2.43" stroke-opacity="1.00" stroke-linejoin="round"/>
<path d="M233.61,495.97 C233.61,495.97 232.80,497.89 232.80,497.89 C233.15,498.17 233.67,498.43 234.26,498.49 C234.50,498.52 235.05,498.54 235.92,498.56" fill="none" stroke="rgb(0, 255, 255)" stroke-width="2.43" stroke-opacity="1.00" stroke-linejoin="round"/>
<path d="M233.90,500.00 C233.90,500.00 232.75,501.30 232.75,501.30 C232.86,501.52 234.13,501.79 235.24,501.73 C235.58,501.71 236.09,501.62 236.78,501.44" fill="none" stroke="rgb(0, 255, 255)" stroke-width="2.43" stroke-opacity="1.00" stroke-linejoin="round"/>
<path d="M235.05,502.60 C234.78,502.98 234.58,503.27 234.48,503.46 C234.37,503.65 234.20,504.01 233.97,504.54 C234.16,504.78 235.71,505.15 236.90,505.16 C237.24,505.16 237.63,505.09 238.09,504.94" fill="none" stroke="rgb(0, 255, 255)" stroke-width="2.43" stroke-opacity="1.00" stroke-linejoin="round"/>
<path d="M236.78,506.34 C236.78,506.34 236.49,507.78 236.49,507.78 C236.76,508.13 237.17,508.33 237.86,508.35 C238.03,508.36 238.40,508.36 238.96,508.35" fill="none" stroke="rgb(0, 255, 255)" stroke-width="2.43" stroke-opacity="1.00" stroke-linejoin="round"/>
<path d="M239.08,508.07 C238.89,508.58 238.74,508.96 238.65,509.22 C238.24,510.37 237.98,511.27 237.93,511.66 C237.93,511.66 239.08,510.66 239.08,510.66" fill="none" stroke="rgb(0, 255, 255)" stroke-width="2.43" stroke-opacity="1.00" stroke-linejoin="round"/>
<path d="M225.26,466.03 C224.61,466.03 224.17,466.03 223.95,466.03 C223.72,466.02 223.40,466.01 222.97,465.99 C222.97,465.99 224.50,465.97 224.50,465.97" fill="none" stroke="rgb(0, 255, 255)" stroke-width="2.43" stroke-opacity="1.00" stroke-linejoin="round"/>
<path d="M230.16,464.88 C230.16,464.88 229.73,465.60 229.73,465.60 C229.73,465.60 229.76,465.85 229.76,465.85 C229.76,465.85 231.16,466.27 231.16,466.27" fill="none" stroke="rgb(0, 255, 255)" stroke-width="2.43" stroke-opacity="1.00" stroke-linejoin="round"/>
<path d="M229.30,469.77 C229.12,469.76 228.98,469.76 228.86,469.77 C228.75,469.78 228.51,469.81 228.14,469.87 C228.35,470.26 228.52,470.54 228.65,470.72 C228.79,470.90 229.06,471.22 229.48,471.68" fill="none" stroke="rgb(0, 255, 255)" stroke-width="2.43" stroke-opacity="1.00" stroke-linejoin="round"/>
<path d="M225.55,475.82 C225.55,475.82 224.98,476.19 224.98,476.19 C224.98,476.19 225.17,476.51 225.17,476.51 C225.17,476.51 225.71,476.68 225.71,476.68" fill="none" stroke="rgb(0, 255, 255)" stroke-width="2.43" stroke-opacity="1.00" stroke-linejoin="round"/>
<path d="M236.49,468.62 C236.49,468.62 234.91,469.41 234.91,469.41 C234.91,469.41 236.08,470.06 236.08,470.06" fill="none" stroke="rgb(0, 255, 255)" stroke-width="2.43" stroke-opacity="1.00" stroke-linejoin="round"/>
<path d="M241.10,472.94 C240.91,473.06 240.77,473.16 240.67,473.23 C240.57,473.30 240.38,473.44 240.09,473.66 C240.09,473.66 240.03,474.05 240.03,474.05 C240.15,474.07 240.25,474.09 240.32,474.09 C240.39,474.09 240.54,474.09 240.77,474.09" fill="none" stroke="rgb(0, 255, 255)" stroke-width="2.43" stroke-opacity="1.00" stroke-linejoin="round"/>
<path d="M217.49,470.92 C217.49,470.92 216.63,470.92 216.63,470.92" fill="none" stroke="rgb(0, 255, 255)" stroke-width="2.43" stroke-opacity="1.00" stroke-linejoin="round"/>
<path d="M212.88,474.09 C212.88,474.09 211.55,474.09 211.55,474.09 C211.55,474.09 212.14,474.09 212.14,474.09" fill="none" stroke="rgb(0, 255, 255)" stroke-width="2.43" stroke-opacity="1.00" stroke-linejoin="round"/>
<path d="M197.91,416.50 C197.91,416.50 196.22,414.92 196.22,414.92 C196.22,414.92 197.60,426.75 197.60,426.75 C198.80,425.76 201.59,423.14 204.47,422.66 C204.86,422.60 205.53,422.53 206.47,422.46 C206.22,424.40 202.36,428.83 200.70,431.09 C199.73,432.41 199.39,432.94 199.14,433.50 C199.14,433.50 211.24,422.20 211.24,422.20 C211.24,422.20 200.22,420.65 200.22,420.65 C200.22,420.65 197.20,415.35 197.20,415.35 C197.20,415.35 199.74,422.15 199.74,422.15 C199.74,422.15 199.57,421.05 199.57,421.05 C200.79,422.35 205.21,422.65 206.52,422.33 C206.52,422.33 203.47,423.25 203.47,423.25 C203.47,423.25 209.30,423.21 209.30,423.21 C209.30,423.21 205.17,429.68 205.17,429.68 C205.17,429.68 206.77,428.21 206.77,428.21 C206.77,428.21 204.25,430.90 204.25,430.90" fill="none" stroke="rgb(0, 255, 0)" stroke-width="2.43" stroke-opacity="1.00" stroke-linejoin="round"/>
<path d="M217.49,411.32 C217.49,411.32 217.49,410.53 217.49,410.53 C217.49,410.53 217.20,410.21 217.20,410.21 C217.20,410.21 223.45,422.31 223.45,422.31 C223.64,421.09 225.01,419.42 228.14,417.76 C228.90,417.36 230.89,416.33 231.85,415.89 C231.85,415.89 228.63,425.71 228.63,425.71 C230.75,423.11 236.27,411.48 235.81,409.72 C235.81,409.72 224.42,415.70 224.42,415.70 C224.42,415.70 217.58,411.48 217.58,411.48 C217.58,411.48 223.64,418.02 223.64,418.02 C223.64,418.02 222.86,416.71 222.86,416.71 C227.77,416.73 230.78,414.78 231.16,414.45 C231.16,414.45 227.40,416.35 227.40,416.35 C227.40,416.35 233.27,412.94 233.27,412.94 C233.27,412.94 232.72,414.31 232.72,414.31 C233.03,414.48 233.17,414.75 233.15,415.14 C233.12,415.52 232.89,416.55 232.46,418.23" fill="none" stroke="rgb(0, 255, 0)" stroke-width="2.43" stroke-opacity="1.00" stroke-linejoin="round"/>
<path d="M254.92,425.72 C254.92,425.72 254.78,424.94 254.78,424.94 C254.78,424.94 247.80,437.54 247.80,437.54 C247.80,437.54 254.23,441.73 254.23,441.73 C254.23,441.73 248.41,446.37 248.41,446.37 C248.95,447.27 252.90,446.33 257.82,444.96 C259.65,444.45 260.69,444.11 262.15,443.55 C262.15,443.55 251.51,435.84 251.51,435.84 C251.51,435.84 254.89,424.40 254.89,424.40 C254.89,424.40 250.18,437.08 250.18,437.08 C250.18,437.08 257.42,441.92 257.42,441.92 C257.42,441.92 254.00,440.44 254.00,440.44 C254.00,440.44 256.40,444.64 256.40,444.64 C256.37,444.85 254.48,444.99 253.02,445.08 C252.50,445.14 251.69,445.31 250.60,445.59" fill="none" stroke="rgb(0, 255, 0)" stroke-width="2.43" stroke-opacity="1.00" stroke-linejoin="round"/>
<path d="M205.40,454.51 C205.40,454.51 204.27,454.55 204.27,454.55 C204.27,454.55 202.60,464.46 202.60,464.46 C201.54,462.71 209.33,463.63 210.47,464.42 C210.47,464.42 208.47,470.63 208.47,470.63 C208.47,470.63 212.79,463.49 212.79,463.49 C212.79,463.49 204.40,461.99 204.40,461.99 C204.40,462.13 205.02,457.18 205.07,456.80 C205.10,456.59 205.21,456.02 205.40,455.09" fill="none" stroke="rgb(0, 255, 0)" stroke-width="2.43" stroke-opacity="1.00" stroke-linejoin="round"/>
<path d="M238.22,453.36 C238.22,453.36 237.36,465.10 237.36,465.10 C237.75,463.23 243.78,460.14 245.69,459.60 C245.69,459.60 242.86,467.46 242.86,467.46 C242.86,467.46 246.31,459.12 246.31,459.12 C246.31,459.12 238.08,460.96 238.08,460.96 C238.08,460.96 238.79,453.45 238.79,453.45 C238.79,453.45 238.80,454.22 238.80,454.22" fill="none" stroke="rgb(0, 255, 0)" stroke-width="2.43" stroke-opacity="1.00" stroke-linejoin="round"/>
<path d="M204.82,488.49 C204.45,488.30 204.21,488.17 204.10,488.12 C203.99,488.06 203.84,487.99 203.67,487.91 C203.67,487.91 201.16,502.52 201.16,502.52 C201.16,502.52 206.17,491.32 206.17,491.32 C206.17,491.32 205.40,507.18 205.40,507.18 C205.40,507.18 206.84,495.11 206.84,495.11" fill="none" stroke="rgb(0, 255, 0)" stroke-width="2.43" stroke-opacity="1.00" stroke-linejoin="round"/>
<path d="M242.54,479.85 C241.91,480.24 241.53,480.48 241.39,480.57 C241.25,480.65 241.15,480.70 241.10,480.71 C241.10,480.71 241.10,493.20 241.10,493.20 C241.28,492.24 242.57,490.14 245.28,488.67 C246.82,487.84 249.92,486.53 250.33,486.39 C250.33,486.39 247.48,501.20 247.48,501.20 C247.48,501.20 249.09,487.87 249.09,487.87 C247.92,488.43 242.39,488.55 241.93,487.77 C241.88,487.65 241.79,487.51 241.68,487.33" fill="none" stroke="rgb(0, 255, 0)" stroke-width="2.43" stroke-opacity="1.00" stroke-linejoin="round"/>
<path d="M343.03,289.82 C343.03,289.82 343.03,289.24 343.03,289.24 C338.49,297.79 325.97,313.08 322.37,316.39 C321.18,317.47 317.89,320.04 315.96,321.49" fill="none" stroke="rgb(28, 31, 136)" stroke-width="2.43" stroke-opacity="1.00" stroke-linejoin="round"/>
<path d="M323.74,292.41 C323.74,292.41 323.74,291.69 323.74,291.69 C323.71,291.61 323.37,291.88 322.19,292.94 C318.39,296.38 309.44,304.81 304.80,309.22 C299.81,313.77 294.09,318.77 292.26,320.26" fill="none" stroke="rgb(28, 31, 136)" stroke-width="2.43" stroke-opacity="1.00" stroke-linejoin="round"/>
<path d="M319.99,282.91 C319.99,282.91 320.57,282.91 320.57,282.91 C319.36,283.65 317.38,285.07 315.72,286.42 C315.02,286.99 312.65,289.09 311.66,289.97 C309.07,292.25 306.08,294.64 305.24,295.31" fill="none" stroke="rgb(28, 31, 136)" stroke-width="2.43" stroke-opacity="1.00" stroke-linejoin="round"/>
<path d="M311.93,281.18 C310.51,281.76 309.28,282.54 306.56,285.46 C304.89,287.33 302.80,289.65 301.52,291.01" fill="none" stroke="rgb(28, 31, 136)" stroke-width="2.43" stroke-opacity="1.00" stroke-linejoin="round"/>
<path d="M286.31,279.45 C286.31,279.45 286.31,279.16 286.31,279.16 C285.84,279.89 285.12,280.91 283.74,282.78 C281.36,285.96 276.98,291.77 274.97,294.40 C274.24,295.33 273.52,296.26 272.79,297.19" fill="none" stroke="rgb(28, 31, 136)" stroke-width="2.43" stroke-opacity="1.00" stroke-linejoin="round"/>
<path d="M298.40,284.63 C297.39,285.17 295.32,286.28 294.78,286.64 C292.69,288.00 278.27,300.00 272.64,304.77 C267.49,309.35 261.47,314.75 260.60,315.56" fill="none" stroke="rgb(28, 31, 136)" stroke-width="2.43" stroke-opacity="1.00" stroke-linejoin="round"/>
<path d="M263.85,282.04 C263.00,282.03 261.56,282.13 260.82,282.62 C259.34,283.61 248.54,296.37 242.14,302.98 C236.37,308.97 230.97,314.18 229.77,315.32" fill="none" stroke="rgb(28, 31, 136)" stroke-width="2.43" stroke-opacity="1.00" stroke-linejoin="round"/>
<path d="M256.36,274.56 C254.79,275.92 253.77,276.99 252.29,278.89 C249.43,282.54 245.80,287.00 244.76,288.19 C241.81,291.57 238.64,294.73 236.78,296.35" fill="none" stroke="rgb(28, 31, 136)" stroke-width="2.43" stroke-opacity="1.00" stroke-linejoin="round"/>
<path d="M236.49,284.63 C235.14,285.37 233.93,286.29 232.77,287.63 C231.40,289.23 215.22,309.16 214.39,309.99 C214.06,310.33 213.49,310.88 212.67,311.64" fill="none" stroke="rgb(28, 31, 136)" stroke-width="2.43" stroke-opacity="1.00" stroke-linejoin="round"/>
<path d="M231.02,297.01 C229.60,298.20 228.83,299.01 228.10,300.22 C227.36,301.44 226.42,302.93 225.43,304.45 C225.07,305.00 224.71,305.55 224.35,306.10" fill="none" stroke="rgb(28, 31, 136)" stroke-width="2.43" stroke-opacity="1.00" stroke-linejoin="round"/>
<path d="M251.75,262.17 C251.75,262.17 253.15,261.02 253.15,261.02 C249.93,262.57 242.13,270.01 234.23,278.04 C229.45,283.02 220.39,292.30 216.12,296.58 C214.84,297.90 213.42,299.42 212.76,300.16" fill="none" stroke="rgb(28, 31, 136)" stroke-width="2.43" stroke-opacity="1.00" stroke-linejoin="round"/>
<path d="M215.47,281.75 C213.07,284.27 210.32,288.19 208.61,290.63 C206.44,293.67 202.74,298.30 201.76,299.52" fill="none" stroke="rgb(28, 31, 136)" stroke-width="2.43" stroke-opacity="1.00" stroke-linejoin="round"/>
<path d="M316.25,235.68 C315.00,236.75 314.02,237.71 312.24,239.70 C309.75,242.46 305.57,247.07 303.87,248.93" fill="none" stroke="rgb(28, 31, 136)" stroke-width="2.43" stroke-opacity="1.00" stroke-linejoin="round"/>
<path d="M165.95,267.36 C165.95,267.36 165.95,267.50 165.95,267.50 C165.77,267.63 163.43,268.24 161.56,269.79 C158.53,272.35 151.25,281.14 150.31,282.30" fill="none" stroke="rgb(28, 31, 136)" stroke-width="2.43" stroke-opacity="1.00" stroke-linejoin="round"/>
<path d="M121.03,205.16 C121.11,205.71 120.84,207.36 120.29,209.22 C119.39,212.22 116.04,218.93 114.07,222.10 C113.04,223.75 111.72,225.68 110.06,228.04" fill="none" stroke="rgb(28, 31, 136)" stroke-width="2.43" stroke-opacity="1.00" stroke-linejoin="round"/>
<path d="M105.77,221.58 C105.36,222.69 105.05,223.50 104.84,224.02 C104.29,225.39 103.14,228.07 102.54,229.41 C101.93,230.77 101.44,231.73 100.64,233.17" fill="none" stroke="rgb(28, 31, 136)" stroke-width="2.43" stroke-opacity="1.00" stroke-linejoin="round"/>
<path d="M79.86,216.97 C79.83,217.24 79.73,218.03 79.33,218.66 C78.49,220.00 77.77,221.08 77.19,221.88 C76.35,223.03 74.35,225.43 73.41,226.50" fill="none" stroke="rgb(28, 31, 136)" stroke-width="2.43" stroke-opacity="1.00" stroke-linejoin="round"/>
<path d="M75.83,207.18 C75.38,207.22 75.06,207.29 74.88,207.41 C73.99,208.00 71.47,212.29 68.73,217.36 C66.93,220.68 63.22,227.57 61.83,229.70 C61.45,230.28 58.55,234.32 57.53,235.76" fill="none" stroke="rgb(28, 31, 136)" stroke-width="2.43" stroke-opacity="1.00" stroke-linejoin="round"/>
<path d="M46.17,228.49 C46.17,228.49 43.96,231.19 43.96,231.19" fill="none" stroke="rgb(28, 31, 136)" stroke-width="2.43" stroke-opacity="1.00" stroke-linejoin="round"/>
<path d="M448.65,211.27 C448.65,211.27 441.25,212.32 441.25,212.32 C442.09,212.79 457.21,205.60 463.05,202.79 C472.26,198.60 478.17,196.25 479.98,195.66" fill="none" stroke="rgb(28, 31, 136)" stroke-width="2.43" stroke-opacity="1.00" stroke-linejoin="round"/>
<path d="M455.52,220.81 C455.08,220.97 453.90,221.80 453.04,222.62 C452.73,222.92 441.82,234.36 441.79,234.39 C441.46,234.71 440.81,235.35 439.86,236.31" fill="none" stroke="rgb(28, 31, 136)" stroke-width="2.43" stroke-opacity="1.00" stroke-linejoin="round"/>
<path d="M454.38,233.40 C454.38,233.40 449.88,235.31 449.88,235.31 C451.15,235.09 455.16,232.64 457.97,230.83 C458.48,230.50 458.99,230.16 459.51,229.82" fill="none" stroke="rgb(28, 31, 136)" stroke-width="2.43" stroke-opacity="1.00" stroke-linejoin="round"/>
<path d="M479.95,215.08 C478.48,215.49 477.56,215.78 477.18,215.94 C475.85,216.54 471.74,222.01 470.07,225.04 C468.83,227.29 468.41,228.84 468.64,229.82 C468.64,229.82 477.72,227.89 477.72,227.89" fill="none" stroke="rgb(28, 31, 136)" stroke-width="2.43" stroke-opacity="1.00" stroke-linejoin="round"/>
<path d="M484.15,218.52 C483.96,218.52 483.77,218.52 483.58,218.52 C483.45,218.52 483.32,218.52 483.20,218.52 C483.11,218.16 496.27,207.90 502.48,203.05 C506.04,200.18 511.75,195.54 513.89,193.77" fill="none" stroke="rgb(28, 31, 136)" stroke-width="2.43" stroke-opacity="1.00" stroke-linejoin="round"/>
<path d="M506.29,211.65 C504.31,211.91 503.12,212.34 499.72,215.22 C496.32,218.09 494.75,219.36 493.80,220.12" fill="none" stroke="rgb(28, 31, 136)" stroke-width="2.43" stroke-opacity="1.00" stroke-linejoin="round"/>
<path d="M484.53,230.73 C484.53,230.73 484.91,230.03 484.91,230.03 C484.91,230.03 484.59,229.64 484.59,229.64 C482.89,230.68 476.72,235.40 474.09,237.54 C470.99,240.13 465.53,244.74 463.16,246.76" fill="none" stroke="rgb(28, 31, 136)" stroke-width="2.43" stroke-opacity="1.00" stroke-linejoin="round"/>
<path d="M481.86,242.56 C480.22,242.60 479.25,242.77 478.39,243.49 C477.14,244.54 474.95,246.62 473.75,247.89 C471.62,250.18 468.68,253.35 467.86,254.24" fill="none" stroke="rgb(28, 31, 136)" stroke-width="2.43" stroke-opacity="1.00" stroke-linejoin="round"/>
<path d="M483.39,254.40 C483.39,254.40 483.20,254.40 483.20,254.40 C483.20,254.40 483.00,253.91 483.00,253.91 C483.85,252.62 484.50,251.84 485.50,251.06 C487.69,249.37 498.43,241.70 500.72,240.06" fill="none" stroke="rgb(28, 31, 136)" stroke-width="2.43" stroke-opacity="1.00" stroke-linejoin="round"/>
<path d="M486.82,283.79 C486.82,283.79 485.29,283.69 485.29,283.69 C487.93,280.90 492.05,278.04 495.13,276.14 C496.67,275.21 499.21,273.67 500.22,273.06" fill="none" stroke="rgb(28, 31, 136)" stroke-width="2.43" stroke-opacity="1.00" stroke-linejoin="round"/>
<path d="M518.12,366.23 C517.99,366.26 517.56,366.10 517.14,366.23 C514.98,366.92 501.19,374.92 493.68,379.73 C487.95,383.58 478.74,390.36 475.79,392.76 C474.08,394.16 467.46,399.87 464.79,402.20" fill="none" stroke="rgb(28, 31, 136)" stroke-width="2.43" stroke-opacity="1.00" stroke-linejoin="round"/>
<path d="M514.68,388.37 C514.40,388.46 513.63,388.73 513.06,389.03 C508.30,391.62 499.46,398.41 494.03,403.32 C486.55,410.20 466.02,434.71 458.24,445.25 C453.47,452.05 447.10,461.18 445.49,463.51" fill="none" stroke="rgb(28, 31, 136)" stroke-width="2.43" stroke-opacity="1.00" stroke-linejoin="round"/>
<path d="M416.59,433.02 C416.36,432.62 417.70,430.22 420.71,425.91 C421.97,424.14 425.66,420.36 428.41,417.83 C433.21,413.43 440.95,408.19 442.90,407.04" fill="none" stroke="rgb(28, 31, 136)" stroke-width="2.43" stroke-opacity="1.00" stroke-linejoin="round"/>
<path d="M433.39,429.21 C433.39,429.21 432.62,429.21 432.62,429.21 C432.58,428.93 433.66,427.63 435.16,426.24 C435.69,425.76 442.54,420.26 445.76,417.45 C448.63,414.92 452.40,411.59 453.29,410.80" fill="none" stroke="rgb(28, 31, 136)" stroke-width="2.43" stroke-opacity="1.00" stroke-linejoin="round"/>
<path d="M410.10,345.62 C409.37,345.67 408.79,345.81 408.36,346.03 C406.53,346.97 400.84,352.35 398.30,354.73 C395.76,357.12 393.52,359.04 392.90,359.52" fill="none" stroke="rgb(28, 31, 136)" stroke-width="2.43" stroke-opacity="1.00" stroke-linejoin="round"/>
<path d="M417.74,346.38 C415.66,347.65 413.63,349.05 411.95,350.42 C410.72,351.42 406.55,355.46 404.72,357.40 C398.95,363.69 389.66,373.86 386.14,377.74" fill="none" stroke="rgb(28, 31, 136)" stroke-width="2.43" stroke-opacity="1.00" stroke-linejoin="round"/>
<path d="M451.32,352.49 C450.23,353.07 449.26,353.68 447.67,354.81 C445.65,356.27 440.93,359.77 438.23,361.80 C437.30,362.51 436.37,363.22 435.44,363.92" fill="none" stroke="rgb(28, 31, 136)" stroke-width="2.43" stroke-opacity="1.00" stroke-linejoin="round"/>
<path d="M323.84,436.08 C322.76,437.06 322.06,437.76 321.73,438.18 C320.30,440.00 315.48,453.16 313.24,461.32 C311.77,466.87 310.68,474.84 310.48,477.69" fill="none" stroke="rgb(28, 31, 136)" stroke-width="2.43" stroke-opacity="1.00" stroke-linejoin="round"/>
<path d="M324.61,452.11 C324.24,450.75 327.19,446.08 330.28,441.99 C332.29,439.47 334.99,436.09 335.68,435.23" fill="none" stroke="rgb(28, 31, 136)" stroke-width="2.43" stroke-opacity="1.00" stroke-linejoin="round"/>
<path d="M344.84,431.12 C344.00,432.45 342.71,436.52 340.35,447.21 C340.03,448.77 339.59,450.90 339.44,451.70" fill="none" stroke="rgb(28, 31, 136)" stroke-width="2.43" stroke-opacity="1.00" stroke-linejoin="round"/>
<path d="M436.44,517.76 C435.50,518.14 434.58,518.72 433.93,519.47 C433.62,519.83 431.41,522.79 430.31,524.23 C428.14,527.07 424.44,531.18 422.99,532.71" fill="none" stroke="rgb(28, 31, 136)" stroke-width="2.43" stroke-opacity="1.00" stroke-linejoin="round"/>
<path d="M445.98,533.02 C445.98,533.02 443.69,532.83 443.69,532.83 C443.85,531.61 452.93,522.74 455.12,520.86 C457.91,518.48 462.83,514.81 463.86,514.04" fill="none" stroke="rgb(28, 31, 136)" stroke-width="2.43" stroke-opacity="1.00" stroke-linejoin="round"/>
<path d="M471.17,521.57 C470.41,521.95 465.02,530.11 456.90,541.82 C455.92,543.27 454.59,545.25 454.08,546.05" fill="none" stroke="rgb(28, 31, 136)" stroke-width="2.43" stroke-opacity="1.00" stroke-linejoin="round"/>
<path d="M478.42,550.20 C478.42,550.20 472.89,550.10 472.89,550.10 C471.76,548.62 471.71,543.09 472.41,539.08 C473.46,533.33 478.49,518.08 480.63,512.16 C482.72,506.70 487.49,495.11 489.64,491.41 C491.40,488.40 494.08,484.32 495.60,482.26" fill="none" stroke="rgb(28, 31, 136)" stroke-width="2.43" stroke-opacity="1.00" stroke-linejoin="round"/>
<path d="M505.91,492.57 C505.91,492.57 505.33,490.85 505.33,490.85 C504.48,491.97 502.68,496.65 501.71,499.15 C500.39,502.47 494.65,515.10 493.28,518.07" fill="none" stroke="rgb(28, 31, 136)" stroke-width="2.43" stroke-opacity="1.00" stroke-linejoin="round"/>
<path d="M518.12,515.09 C516.47,518.71 513.08,524.93 511.94,526.85 C508.08,533.19 500.17,546.50 496.14,553.47 C494.44,556.27 492.23,559.91 491.72,560.75" fill="none" stroke="rgb(28, 31, 136)" stroke-width="2.43" stroke-opacity="1.00" stroke-linejoin="round"/>
<path d="M168.50,436.84 C168.54,439.04 167.92,442.26 166.74,444.69 C165.38,447.44 162.30,452.75 160.63,455.59 C157.15,461.25 153.33,467.24 152.80,468.05" fill="none" stroke="rgb(28, 31, 136)" stroke-width="2.43" stroke-opacity="1.00" stroke-linejoin="round"/>
<path d="M192.93,449.44 C192.12,449.74 185.86,463.51 182.41,469.35 C178.53,475.76 170.30,488.62 167.13,493.09 C162.59,499.19 157.35,506.25 156.63,507.20" fill="none" stroke="rgb(28, 31, 136)" stroke-width="2.43" stroke-opacity="1.00" stroke-linejoin="round"/>
<path d="M272.70,447.91 C271.41,448.95 261.03,465.84 259.77,467.97 C259.04,469.23 258.45,470.42 257.78,471.92" fill="none" stroke="rgb(28, 31, 136)" stroke-width="2.43" stroke-opacity="1.00" stroke-linejoin="round"/>
<path d="M277.66,455.92 C276.98,456.56 276.28,457.30 275.96,457.92 C275.51,458.83 274.60,461.55 273.85,464.02 C273.57,464.94 273.30,465.87 273.02,466.79" fill="none" stroke="rgb(28, 31, 136)" stroke-width="2.43" stroke-opacity="1.00" stroke-linejoin="round"/>
<path d="M280.71,463.56 C280.71,463.56 279.76,463.18 279.76,463.18 C279.38,463.39 278.55,464.65 277.74,466.39 C277.47,466.97 274.71,473.88 274.24,475.06" fill="none" stroke="rgb(28, 31, 136)" stroke-width="2.43" stroke-opacity="1.00" stroke-linejoin="round"/>
<path d="M321.17,566.23 C321.21,564.98 321.23,562.60 321.32,562.09 C321.61,560.50 324.59,553.89 325.37,552.50 C327.04,549.57 331.75,542.94 333.86,539.99" fill="none" stroke="rgb(28, 31, 136)" stroke-width="2.43" stroke-opacity="1.00" stroke-linejoin="round"/>
<path d="M336.06,559.74 C336.02,559.80 336.04,559.61 336.06,559.55 C337.11,556.42 340.21,551.74 341.20,550.23 C341.84,549.25 342.47,548.26 343.11,547.28" fill="none" stroke="rgb(28, 31, 136)" stroke-width="2.43" stroke-opacity="1.00" stroke-linejoin="round"/>
<path d="M264.30,548.29 C262.25,548.37 260.99,548.65 260.12,549.41 C259.13,550.30 257.82,552.18 256.82,554.13 C255.36,557.10 253.46,560.94 253.02,561.82" fill="none" stroke="rgb(28, 31, 136)" stroke-width="2.43" stroke-opacity="1.00" stroke-linejoin="round"/>
<path d="M246.36,550.96 C245.23,551.29 244.50,551.54 244.17,551.73 C243.53,552.10 242.50,553.49 241.99,554.40 C240.70,556.77 238.10,561.58 236.80,564.01" fill="none" stroke="rgb(28, 31, 136)" stroke-width="2.43" stroke-opacity="1.00" stroke-linejoin="round"/>
<path d="M66.97,370.81 C67.12,368.53 68.28,364.84 70.65,359.05 C75.78,347.08 80.26,338.22 83.14,334.22 C83.71,333.42 89.45,325.85 91.39,323.41" fill="none" stroke="rgb(28, 31, 136)" stroke-width="2.43" stroke-opacity="1.00" stroke-linejoin="round"/>
<path d="M89.11,336.08 C89.11,336.08 88.43,335.50 88.43,335.50 C87.60,336.47 86.08,340.42 85.19,342.73 C84.18,345.40 83.02,349.74 82.72,350.88" fill="none" stroke="rgb(28, 31, 136)" stroke-width="2.43" stroke-opacity="1.00" stroke-linejoin="round"/>
<path d="M91.40,347.91 C91.21,348.05 89.75,349.14 89.49,349.63 C89.32,349.95 89.07,350.71 88.73,351.92 C88.73,351.92 89.20,352.84 89.20,352.84" fill="none" stroke="rgb(28, 31, 136)" stroke-width="2.43" stroke-opacity="1.00" stroke-linejoin="round"/>
<path d="M65.06,338.75 C64.11,339.79 63.26,340.95 62.65,342.21 C62.32,342.87 61.89,343.85 61.36,345.15 C60.89,346.29 60.43,347.44 59.97,348.58" fill="none" stroke="rgb(28, 31, 136)" stroke-width="2.43" stroke-opacity="1.00" stroke-linejoin="round"/>
<path d="M55.52,341.42 C55.52,341.42 54.47,341.04 54.47,341.04 C53.97,341.22 53.59,341.60 52.77,342.95 C52.23,343.82 51.69,344.69 51.15,345.56" fill="none" stroke="rgb(28, 31, 136)" stroke-width="2.43" stroke-opacity="1.00" stroke-linejoin="round"/>
<path d="M121.93,435.31 C121.93,435.31 120.79,435.12 120.79,435.12 C123.17,430.94 130.81,423.21 134.27,420.30" fill="none" stroke="rgb(28, 31, 136)" stroke-width="2.43" stroke-opacity="1.00" stroke-linejoin="round"/>
<path d="M136.06,447.15 C136.06,447.15 134.62,447.34 134.62,447.34 C136.18,445.47 139.84,441.12 141.95,438.65 C144.44,435.78 149.29,430.26 151.66,427.61" fill="none" stroke="rgb(28, 31, 136)" stroke-width="2.43" stroke-opacity="1.00" stroke-linejoin="round"/>
<path d="M70.03,467.37 C70.03,467.37 68.69,467.37 68.69,467.37 C68.69,467.37 77.57,456.41 77.57,456.41" fill="none" stroke="rgb(28, 31, 136)" stroke-width="2.43" stroke-opacity="1.00" stroke-linejoin="round"/>
</g>
</svg>
