<?xml version="1.0" encoding="UTF-8" standalone="no"?>
<!DOCTYPE svg PUBLIC "-//W3C//DTD SVG 1.1//EN" "http://www.w3.org/Graphics/SVG/1.1/DTD/svg11.dtd">
<svg width="64.20" height="90.84" viewBox="0.00 0.00 535.00 757.00" xmlns="http://www.w3.org/2000/svg" xmlns:xlink="http://www.w3.org/1999/xlink">
<g stroke-linecap="round" id="13">
<path d="M240.48,420.16 C240.48,420.16 239.97,420.22 239.97,420.22 C239.62,421.06 240.86,427.16 240.95,427.68 C241.10,428.66 241.30,429.91 241.40,430.13 C241.40,430.13 241.85,429.81 241.85,429.81" fill="none" stroke="rgb(255, 129, 0)" stroke-width="3.28" stroke-opacity="1.00" stroke-linejoin="round"/>
<path d="M243.69,425.37 C243.63,425.71 243.17,428.25 243.13,429.10 C243.01,431.69 243.84,432.89 243.93,432.98 C243.93,432.98 244.62,429.94 244.62,429.94" fill="none" stroke="rgb(255, 129, 0)" stroke-width="3.28" stroke-opacity="1.00" stroke-linejoin="round"/>
<path d="M243.62,422.56 C243.62,422.56 243.43,422.52 243.43,422.52 C244.71,422.88 249.60,426.07 251.53,426.67 C255.62,427.91 266.02,426.34 275.74,426.19 C277.71,426.15 283.77,424.18 284.85,423.43 C285.92,422.61 285.90,418.64 285.79,417.88 C285.16,417.23 282.55,417.49 279.96,418.34 C277.46,419.18 273.65,421.19 271.87,422.18 C269.99,423.12 266.57,423.64 263.90,423.57 C259.75,423.43 248.79,419.26 242.73,418.59 C242.17,418.53 241.91,418.65 241.78,418.70 C241.78,418.70 257.26,423.57 257.26,423.57 C257.26,423.57 249.59,423.45 249.59,423.45 C249.59,423.45 263.41,426.50 263.41,426.50 C263.60,425.78 271.44,423.01 272.39,422.70 C275.94,421.53 279.23,420.83 279.54,420.83 C279.54,420.83 271.39,424.17 271.39,424.17 C271.39,424.17 282.35,421.21 282.35,421.21 C282.35,421.21 277.37,425.54 277.37,425.54 C277.37,425.54 281.08,425.26 281.08,425.26" fill="none" stroke="rgb(255, 129, 0)" stroke-width="3.28" stroke-opacity="1.00" stroke-linejoin="round"/>
<path d="M241.49,432.74 C241.05,432.68 240.70,432.44 239.66,430.74 C239.32,430.18 237.84,429.57 237.28,429.86 C236.63,430.24 235.88,432.87 236.05,434.55 C236.26,436.28 237.66,438.88 238.72,439.62 C239.71,440.27 241.66,440.60 242.77,440.52 C243.10,441.94 244.37,445.46 245.62,447.23 C247.05,449.20 251.05,451.96 253.68,452.89 C254.70,453.24 262.35,455.50 263.22,455.69 C265.85,456.26 270.31,456.11 272.74,455.40 C274.55,454.84 280.30,451.73 281.51,450.79 C282.60,449.91 283.92,447.97 284.50,446.44 C284.72,445.82 286.21,440.53 286.77,439.61 C287.88,439.26 289.82,438.35 290.83,437.26 C291.81,436.18 292.04,433.33 291.17,432.17 C290.08,430.79 287.38,429.95 287.22,429.80 C287.22,429.80 286.15,423.80 286.15,423.80 C285.99,424.00 285.88,424.20 285.83,424.41 C285.77,424.61 285.67,425.12 285.54,425.92" fill="none" stroke="rgb(255, 129, 0)" stroke-width="3.28" stroke-opacity="1.00" stroke-linejoin="round"/>
<path d="M254.29,434.77 C254.29,434.77 253.98,434.81 253.98,434.81 C253.98,434.81 253.83,435.09 253.83,435.09 C253.83,435.09 255.90,436.25 255.90,436.25 C257.07,435.22 255.88,434.25 255.64,434.15 C255.64,434.15 255.06,436.00 255.06,436.00 C255.06,436.00 256.02,436.15 256.02,436.15" fill="none" stroke="rgb(255, 129, 0)" stroke-width="3.28" stroke-opacity="1.00" stroke-linejoin="round"/>
<path d="M270.60,434.07 C270.60,434.07 270.32,434.12 270.32,434.12 C270.32,434.12 270.28,436.09 270.28,436.09 C270.28,436.09 271.33,436.38 271.33,436.38 C271.33,436.38 270.09,435.27 270.09,435.27 C270.09,435.27 269.46,436.80 269.46,436.80" fill="none" stroke="rgb(255, 129, 0)" stroke-width="3.28" stroke-opacity="1.00" stroke-linejoin="round"/>
<path d="M257.22,446.72 C257.18,446.97 257.32,447.50 258.85,448.38 C260.48,449.30 265.61,450.28 268.08,449.83 C269.79,449.49 273.70,447.83 273.87,447.76 C273.89,447.75 273.93,447.73 274.01,447.71" fill="none" stroke="rgb(255, 129, 0)" stroke-width="3.28" stroke-opacity="1.00" stroke-linejoin="round"/>
<path d="M253.13,457.73 C253.13,457.73 252.93,456.69 252.93,456.69 C252.93,456.69 252.18,471.05 252.18,471.05 C252.14,471.13 248.83,470.51 246.19,470.81 C243.63,471.11 239.34,472.26 236.73,473.24 C233.97,474.30 229.94,476.95 227.78,479.22 C225.71,481.46 222.58,486.56 221.04,489.99 C215.31,502.93 215.34,513.53 215.44,514.26 C215.44,514.26 222.54,512.80 222.54,512.80" fill="none" stroke="rgb(255, 129, 0)" stroke-width="3.28" stroke-opacity="1.00" stroke-linejoin="round"/>
<path d="M269.92,458.72 C269.92,458.72 269.78,457.34 269.78,457.34 C269.36,461.63 269.60,465.41 270.09,467.27 C270.40,468.36 271.07,469.29 272.38,469.57 C273.65,469.83 280.69,470.84 282.86,471.37 C284.77,471.85 289.51,473.75 292.25,475.81 C294.35,477.41 299.10,482.95 300.87,486.19 C302.42,489.07 304.53,494.67 304.93,496.35 C306.24,502.17 304.84,521.20 304.67,521.31 C304.01,521.60 300.21,523.36 297.28,524.11 C295.83,524.47 291.16,524.32 287.60,523.50 C286.32,523.19 285.00,522.63 284.59,522.24 C284.37,522.02 283.93,521.60 283.27,520.98" fill="none" stroke="rgb(255, 129, 0)" stroke-width="3.28" stroke-opacity="1.00" stroke-linejoin="round"/>
<path d="M303.49,521.83 C303.49,521.83 303.51,521.73 303.51,521.73 C303.51,521.73 303.43,521.61 303.43,521.61 C303.43,521.61 303.33,521.60 303.33,521.60 C302.45,527.29 301.46,538.21 301.77,543.34 C302.32,551.29 302.99,567.30 303.69,574.29 C303.84,574.36 304.83,574.47 305.34,574.98 C305.98,575.64 306.84,578.04 306.93,579.64 C307.00,581.54 306.17,584.40 305.31,585.51 C304.50,586.50 301.31,588.43 299.16,588.77 C298.03,588.93 295.78,587.80 295.00,586.71 C294.37,585.80 293.49,583.28 293.47,582.30 C293.49,579.68 297.82,576.82 298.80,576.37 C299.47,576.07 301.68,575.50 302.32,575.34" fill="none" stroke="rgb(255, 129, 0)" stroke-width="3.28" stroke-opacity="1.00" stroke-linejoin="round"/>
<path d="M289.35,524.74 C289.35,524.74 288.77,524.63 288.77,524.63 C288.78,525.25 288.79,527.12 288.81,528.38 C288.98,536.40 289.50,554.43 289.99,558.49 C290.77,564.87 292.28,578.13 291.85,579.90 C291.85,579.90 291.72,579.81 291.72,579.81" fill="none" stroke="rgb(255, 129, 0)" stroke-width="3.28" stroke-opacity="1.00" stroke-linejoin="round"/>
<path d="M220.06,516.18 C219.70,516.58 218.23,517.25 217.69,517.57 C215.63,518.83 212.85,521.47 212.30,523.29 C211.90,524.80 211.62,527.71 211.78,528.70 C212.25,531.31 214.23,534.01 215.61,534.42 C217.00,534.78 220.52,534.23 224.08,532.54 C230.51,529.43 245.00,518.30 249.00,515.16 C249.00,515.16 248.60,514.82 248.60,514.82" fill="none" stroke="rgb(255, 129, 0)" stroke-width="3.28" stroke-opacity="1.00" stroke-linejoin="round"/>
<path d="M222.17,515.58 C222.17,515.58 221.94,515.73 221.94,515.73 C221.97,515.68 222.01,515.62 222.04,515.55 C222.31,515.11 227.62,511.49 228.61,510.84 C239.70,503.48 250.82,498.66 251.58,498.99 C252.89,496.95 254.31,495.27 255.26,494.81 C256.28,494.36 258.54,494.34 260.28,494.98 C264.34,496.52 266.44,499.75 266.46,500.05 C266.46,500.05 260.93,501.52 260.93,501.52 C260.93,501.52 260.91,500.85 260.91,500.85" fill="none" stroke="rgb(255, 129, 0)" stroke-width="3.28" stroke-opacity="1.00" stroke-linejoin="round"/>
<path d="M265.41,504.61 C265.41,504.61 257.92,506.18 257.92,506.18 C257.92,506.18 259.34,506.05 259.34,506.05" fill="none" stroke="rgb(255, 129, 0)" stroke-width="3.28" stroke-opacity="1.00" stroke-linejoin="round"/>
<path d="M267.29,500.97 C266.99,501.26 266.55,501.69 266.53,501.86 C266.48,502.19 265.95,508.72 265.20,511.71 C264.92,512.78 263.27,514.92 262.31,515.62 C261.01,516.49 253.92,517.30 253.13,517.20 C252.98,517.18 252.37,517.08 251.28,516.91" fill="none" stroke="rgb(255, 129, 0)" stroke-width="3.28" stroke-opacity="1.00" stroke-linejoin="round"/>
<path d="M241.97,509.15 C241.97,509.15 241.32,509.42 241.32,509.42 C241.35,509.96 243.91,513.00 246.08,514.46 C246.86,515.00 249.04,516.06 249.07,516.09 C249.14,516.15 249.25,516.30 249.40,516.55" fill="none" stroke="rgb(255, 129, 0)" stroke-width="3.28" stroke-opacity="1.00" stroke-linejoin="round"/>
<path d="M226.93,532.83 C225.97,532.94 225.56,533.03 225.42,533.37 C224.85,534.93 224.81,539.40 225.20,544.99 C225.66,550.36 227.96,557.59 228.26,558.45 C230.25,559.54 243.11,560.39 250.16,560.80 C254.55,561.00 266.21,560.33 271.93,559.23 C278.06,558.03 290.15,557.14 290.76,556.98 C290.76,556.98 290.64,557.47 290.64,557.47" fill="none" stroke="rgb(255, 129, 0)" stroke-width="3.28" stroke-opacity="1.00" stroke-linejoin="round"/>
<path d="M227.83,559.12 C228.21,560.45 228.44,563.79 228.44,566.82 C228.17,595.78 227.70,642.97 227.50,661.20 C227.05,685.09 227.16,686.35 227.22,686.60 C229.12,685.62 234.67,682.94 236.70,682.54 C240.08,681.94 251.70,685.32 251.75,685.33 C252.08,685.42 253.30,685.29 254.88,685.16" fill="none" stroke="rgb(255, 129, 0)" stroke-width="3.28" stroke-opacity="1.00" stroke-linejoin="round"/>
<path d="M261.13,592.85 C261.13,592.84 261.09,592.83 261.01,592.83 C260.93,592.83 260.70,592.83 260.32,592.84 C259.48,595.40 258.34,608.00 257.75,615.10 C257.25,622.26 258.70,639.36 258.46,645.00 C258.23,649.54 255.59,682.13 255.66,684.02 C255.66,684.02 256.38,682.63 256.38,682.63" fill="none" stroke="rgb(255, 129, 0)" stroke-width="3.28" stroke-opacity="1.00" stroke-linejoin="round"/>
<path d="M262.08,604.05 C262.08,604.05 261.71,603.98 261.71,603.98 C261.71,603.98 261.55,604.13 261.55,604.13 C261.73,604.60 263.57,609.47 264.30,614.24 C266.15,626.00 273.43,660.93 273.73,664.05 C274.38,670.76 277.49,681.24 278.13,681.62 C278.55,681.77 298.25,679.41 299.16,679.40 C300.18,679.39 301.20,679.50 302.22,679.47 C302.72,679.46 303.53,679.38 304.67,679.24" fill="none" stroke="rgb(255, 129, 0)" stroke-width="3.28" stroke-opacity="1.00" stroke-linejoin="round"/>
<path d="M295.17,586.25 C295.17,586.25 295.22,586.00 295.22,586.00 C295.22,586.70 295.65,589.23 295.97,591.10 C296.14,592.17 296.48,608.36 297.33,616.91 C302.26,651.07 305.26,675.54 305.98,679.88 C305.98,679.88 306.15,679.52 306.15,679.52" fill="none" stroke="rgb(255, 129, 0)" stroke-width="3.28" stroke-opacity="1.00" stroke-linejoin="round"/>
<path d="M287.86,681.43 C287.86,681.43 287.74,680.73 287.74,680.73 C287.74,680.73 288.78,697.61 288.78,697.61 C288.78,697.61 290.02,695.67 290.02,695.67" fill="none" stroke="rgb(255, 129, 0)" stroke-width="3.28" stroke-opacity="1.00" stroke-linejoin="round"/>
<path d="M295.42,682.10 C295.42,682.10 295.47,681.85 295.47,681.85 C295.47,681.85 296.57,698.96 296.57,698.96 C296.51,698.91 294.27,696.88 292.30,696.71 C290.79,696.60 285.66,697.99 284.62,698.57 C280.58,700.92 281.86,703.82 282.62,704.70 C282.62,704.70 286.29,705.30 286.29,705.30" fill="none" stroke="rgb(255, 129, 0)" stroke-width="3.28" stroke-opacity="1.00" stroke-linejoin="round"/>
<path d="M295.86,697.29 C295.86,697.29 295.61,697.63 295.61,697.63 C296.23,697.36 298.66,697.43 299.69,698.02 C301.79,699.23 304.11,700.99 304.18,702.35 C304.23,704.50 303.03,706.67 302.12,707.06 C301.72,707.23 298.65,707.49 296.79,707.64" fill="none" stroke="rgb(255, 129, 0)" stroke-width="3.28" stroke-opacity="1.00" stroke-linejoin="round"/>
<path d="M238.41,681.52 C238.41,681.52 238.16,681.47 238.16,681.47 C237.52,685.97 237.65,688.26 238.02,693.03 C238.02,693.08 238.03,693.21 238.03,693.17 C238.03,693.17 238.62,692.57 238.62,692.57" fill="none" stroke="rgb(255, 129, 0)" stroke-width="3.28" stroke-opacity="1.00" stroke-linejoin="round"/>
<path d="M247.84,681.77 C247.75,681.97 247.68,682.08 247.64,682.12 C247.32,682.53 246.88,688.17 246.92,691.74 C246.99,694.89 247.08,699.31 247.09,700.57 C245.83,699.27 242.75,698.03 240.82,698.26 C238.84,698.53 235.20,700.78 234.31,702.18 C233.90,702.88 233.78,704.16 234.09,704.83 C234.44,705.45 236.10,706.59 236.99,706.54 C237.63,706.50 240.87,705.47 241.82,705.16" fill="none" stroke="rgb(255, 129, 0)" stroke-width="3.28" stroke-opacity="1.00" stroke-linejoin="round"/>
<path d="M247.71,698.65 C247.71,698.65 247.34,698.58 247.34,698.58 C247.33,698.58 253.51,699.87 254.14,701.17 C254.68,702.50 253.60,705.86 251.61,706.85 C251.32,706.99 250.04,706.96 248.53,706.95" fill="none" stroke="rgb(255, 129, 0)" stroke-width="3.28" stroke-opacity="1.00" stroke-linejoin="round"/>
<path d="M247.14,363.47 C247.14,363.47 247.38,363.51 247.38,363.51 C247.05,360.62 247.26,357.13 247.55,355.13 C248.01,352.09 249.29,350.51 249.95,350.05 C251.48,351.22 252.30,352.65 252.72,355.26 C252.86,356.14 253.72,362.08 253.78,362.51 C253.78,362.51 254.84,362.20 254.84,362.20" fill="none" stroke="rgb(255, 14, 0)" stroke-width="3.28" stroke-opacity="1.00" stroke-linejoin="round"/>
<path d="M253.21,362.88 C253.21,362.88 252.93,363.08 252.93,363.08 C249.73,362.45 244.82,363.08 240.21,364.38 C236.54,365.46 233.56,366.69 227.47,369.43 C223.31,371.33 209.44,381.55 205.89,385.23 C203.70,387.51 194.27,396.52 189.70,401.08 C184.39,406.38 175.40,418.64 172.12,424.57 C169.76,429.09 167.32,433.75 167.29,433.81 C169.08,431.74 174.02,428.16 176.47,427.11 C181.10,425.17 194.15,422.55 200.41,422.37 C204.33,422.28 211.80,423.16 213.99,423.86 C216.24,424.60 219.14,426.56 219.19,426.58 C219.32,426.63 219.51,426.62 219.77,426.56" fill="none" stroke="rgb(255, 14, 0)" stroke-width="3.28" stroke-opacity="1.00" stroke-linejoin="round"/>
<path d="M246.24,364.29 C246.27,364.30 245.20,366.12 244.36,367.54 C242.75,370.30 232.34,389.09 231.99,389.70 C229.32,394.46 222.90,410.32 222.11,412.64 C220.61,417.10 217.90,429.80 217.57,430.61 C217.50,430.47 220.26,426.49 222.48,424.71 C224.98,422.75 229.41,421.69 232.64,421.12 C245.02,419.17 257.84,422.68 258.55,422.90 C258.83,422.99 259.20,423.09 259.64,423.20" fill="none" stroke="rgb(255, 14, 0)" stroke-width="3.28" stroke-opacity="1.00" stroke-linejoin="round"/>
<path d="M251.41,364.53 C251.41,364.53 251.46,364.29 251.46,364.29 C251.42,364.24 252.94,365.21 253.62,365.86 C257.24,369.33 259.10,376.08 261.88,388.13 C263.02,393.12 265.05,406.28 265.19,412.14 C265.25,415.49 265.11,421.11 264.92,422.02 C264.81,422.52 264.51,423.52 264.02,425.03" fill="none" stroke="rgb(255, 14, 0)" stroke-width="3.28" stroke-opacity="1.00" stroke-linejoin="round"/>
<path d="M256.63,364.52 C256.63,364.52 256.34,364.72 256.34,364.72 C256.34,364.72 256.40,364.64 256.40,364.64 C257.69,364.46 266.67,370.65 271.82,374.06 C277.27,377.97 285.73,387.20 290.04,391.90 C294.70,396.93 300.01,404.48 303.35,411.08 C304.90,414.16 305.74,417.52 306.50,420.91 C305.96,420.07 303.52,418.04 301.63,417.13 C296.54,414.74 286.03,413.85 281.87,413.90 C279.74,413.93 276.45,413.99 275.30,414.01" fill="none" stroke="rgb(255, 14, 0)" stroke-width="3.28" stroke-opacity="1.00" stroke-linejoin="round"/>
<path d="M257.60,360.73 C257.60,360.73 257.12,360.64 257.12,360.64 C258.37,359.90 263.33,358.98 267.12,359.07 C274.58,359.31 296.99,366.33 300.98,368.47 C303.55,369.86 308.79,373.47 312.35,375.69 C314.99,377.33 318.22,380.16 321.34,383.70 C321.90,384.35 327.15,389.94 328.75,392.24 C330.71,395.10 333.76,401.50 334.75,404.16 C335.78,407.01 339.41,417.80 339.74,418.22 C339.73,418.27 336.46,416.31 333.35,415.14 C330.72,414.17 325.28,413.38 322.31,413.62 C319.96,413.84 314.36,415.81 312.13,417.05 C310.67,417.88 304.46,421.85 304.26,421.90 C304.08,421.94 303.60,421.96 302.84,421.97" fill="none" stroke="rgb(255, 14, 0)" stroke-width="3.28" stroke-opacity="1.00" stroke-linejoin="round"/>
<path d="M262.01,421.65 C261.55,422.04 261.10,422.51 260.95,422.88 C260.65,423.67 258.59,453.48 258.40,467.12 C258.32,469.18 256.76,499.82 256.80,500.20 C256.80,500.20 256.51,500.41 256.51,500.41" fill="none" stroke="rgb(255, 14, 0)" stroke-width="3.28" stroke-opacity="1.00" stroke-linejoin="round"/>
<path d="M86.31,72.59 C86.31,72.59 86.17,72.59 86.17,72.59 C85.72,72.82 85.45,73.38 85.19,74.83 C84.34,79.51 82.07,93.38 80.94,100.44 C78.67,113.29 78.02,118.03 77.98,125.97 C78.01,134.51 77.26,146.50 76.80,152.84 C76.44,157.23 72.07,190.49 70.91,207.29 C70.58,212.62 68.54,229.80 68.63,231.67 C68.65,232.03 68.80,232.36 69.07,232.66" fill="none" stroke="rgb(57, 77, 239)" stroke-width="3.28" stroke-opacity="1.00" stroke-linejoin="round"/>
<path d="M103.26,93.00 C103.26,94.31 103.27,96.69 103.28,97.74 C103.32,101.77 102.41,121.35 102.41,125.77 C102.42,133.38 102.47,152.38 102.75,155.49 C103.80,166.37 104.09,171.23 104.12,181.39 C104.13,188.56 104.00,220.40 103.58,223.16 C102.97,227.17 103.08,229.36 103.24,230.74" fill="none" stroke="rgb(57, 77, 239)" stroke-width="3.28" stroke-opacity="1.00" stroke-linejoin="round"/>
<path d="M126.25,53.34 C125.41,55.83 125.39,61.58 125.39,65.41 C125.49,79.20 122.95,104.99 121.56,120.67 C120.59,133.97 120.22,163.34 120.13,176.00 C119.79,189.17 120.99,211.98 121.10,217.73 C121.10,217.73 121.33,214.80 121.33,214.80" fill="none" stroke="rgb(57, 77, 239)" stroke-width="3.28" stroke-opacity="1.00" stroke-linejoin="round"/>
<path d="M137.75,123.74 C137.75,123.74 137.75,122.59 137.75,122.59 C137.63,133.82 134.77,156.09 134.18,167.61 C133.02,192.53 131.84,249.58 132.32,256.09 C133.05,265.81 133.24,282.06 132.75,286.24 C132.68,286.85 130.99,299.68 130.83,300.28 C130.73,300.63 130.47,301.24 130.06,302.11" fill="none" stroke="rgb(57, 77, 239)" stroke-width="3.28" stroke-opacity="1.00" stroke-linejoin="round"/>
<path d="M98.38,222.02 C97.00,224.82 96.94,227.72 96.94,234.56 C96.91,254.05 97.71,277.93 97.79,291.75 C97.89,296.41 99.21,320.86 99.00,323.53 C99.00,323.53 98.78,323.42 98.78,323.42 C98.78,323.42 98.67,322.89 98.67,322.89" fill="none" stroke="rgb(57, 77, 239)" stroke-width="3.28" stroke-opacity="1.00" stroke-linejoin="round"/>
<path d="M161.89,57.65 C161.62,57.79 161.30,58.75 160.83,60.97 C157.39,78.78 154.17,100.91 153.65,113.75 C153.16,134.63 154.59,150.53 154.84,152.09 C154.84,152.09 156.15,150.92 156.15,150.92" fill="none" stroke="rgb(57, 77, 239)" stroke-width="3.28" stroke-opacity="1.00" stroke-linejoin="round"/>
<path d="M190.34,47.02 C190.34,47.02 190.34,46.73 190.34,46.73 C190.34,46.71 190.29,46.76 190.29,46.78 C188.36,53.86 184.68,67.62 183.76,73.21 C182.66,79.94 181.44,93.98 180.81,101.95 C179.69,117.58 180.58,132.41 180.56,134.94 C180.56,135.25 180.56,135.54 180.56,135.81" fill="none" stroke="rgb(57, 77, 239)" stroke-width="3.28" stroke-opacity="1.00" stroke-linejoin="round"/>
<path d="M98.38,344.21 C98.38,344.63 98.38,345.04 98.38,345.46 C98.38,377.41 100.74,417.61 100.65,425.30 C100.29,446.20 100.76,495.88 101.08,514.85 C101.08,514.85 101.08,513.76 101.08,513.76" fill="none" stroke="rgb(57, 77, 239)" stroke-width="3.28" stroke-opacity="1.00" stroke-linejoin="round"/>
<path d="M123.66,351.29 C123.66,352.64 123.66,355.00 123.63,355.84 C123.54,358.37 122.10,380.66 121.83,383.45 C121.24,389.00 118.73,406.64 118.55,408.10 C118.04,412.17 115.03,459.73 114.99,462.34 C114.95,469.77 114.89,480.43 114.43,489.40 C114.41,489.78 114.45,490.03 114.56,490.16" fill="none" stroke="rgb(57, 77, 239)" stroke-width="3.28" stroke-opacity="1.00" stroke-linejoin="round"/>
<path d="M128.38,462.52 C128.57,462.13 129.34,466.72 129.72,471.79 C130.04,476.73 130.05,492.64 130.04,500.04 C130.04,501.34 131.77,530.31 131.75,535.42 C131.75,535.42 132.09,533.64 132.09,533.64" fill="none" stroke="rgb(57, 77, 239)" stroke-width="3.28" stroke-opacity="1.00" stroke-linejoin="round"/>
<path d="M110.18,528.59 C109.76,529.04 109.52,529.47 109.51,530.11 C109.47,531.88 110.19,535.54 111.19,540.05 C111.19,540.05 111.48,539.76 111.48,539.76" fill="none" stroke="rgb(57, 77, 239)" stroke-width="3.28" stroke-opacity="1.00" stroke-linejoin="round"/>
<path d="M110.85,566.00 C110.65,566.05 110.48,566.10 110.35,566.17 C110.22,566.24 109.93,566.40 109.51,566.68 C109.12,601.30 112.95,647.92 113.07,648.34 C113.29,649.08 113.85,649.94 114.22,650.27" fill="none" stroke="rgb(57, 77, 239)" stroke-width="3.28" stroke-opacity="1.00" stroke-linejoin="round"/>
<path d="M130.32,542.94 C130.32,542.94 129.37,543.14 129.37,543.14 C128.89,544.73 128.64,546.51 128.80,547.63 C128.83,547.85 128.91,548.02 129.04,548.14" fill="none" stroke="rgb(57, 77, 239)" stroke-width="3.28" stroke-opacity="1.00" stroke-linejoin="round"/>
<path d="M129.94,569.64 C129.82,569.70 129.69,569.76 129.56,569.83 C129.43,569.89 129.31,569.95 129.18,570.02 C129.17,571.86 129.19,573.03 129.26,575.46 C129.54,583.81 130.48,627.67 130.73,628.23 C130.81,628.41 131.06,628.70 131.47,629.12" fill="none" stroke="rgb(57, 77, 239)" stroke-width="3.28" stroke-opacity="1.00" stroke-linejoin="round"/>
<path d="M129.94,648.95 C128.78,651.02 128.81,653.01 129.21,657.81 C129.76,663.83 130.72,676.52 131.12,683.20 C131.44,690.31 130.71,706.12 130.70,706.13 C130.70,706.40 130.70,706.77 130.70,707.24" fill="none" stroke="rgb(57, 77, 239)" stroke-width="3.28" stroke-opacity="1.00" stroke-linejoin="round"/>
<path d="M142.14,534.17 C142.14,534.17 141.45,534.49 141.45,534.49 C140.99,535.92 141.04,543.91 141.09,544.75 C141.21,547.09 142.96,564.73 142.92,571.19 C142.91,572.01 142.75,574.13 142.64,575.45 C142.64,575.45 143.29,575.36 143.29,575.36" fill="none" stroke="rgb(57, 77, 239)" stroke-width="3.28" stroke-opacity="1.00" stroke-linejoin="round"/>
<path d="M176.08,573.07 C176.08,573.07 175.38,573.26 175.38,573.26 C174.94,573.68 174.57,577.63 174.50,581.07 C173.92,615.67 175.24,639.52 175.32,640.58 C175.32,640.58 175.91,640.04 175.91,640.04" fill="none" stroke="rgb(57, 77, 239)" stroke-width="3.28" stroke-opacity="1.00" stroke-linejoin="round"/>
<path d="M141.00,292.65 C141.00,292.65 139.89,292.92 139.89,292.92 C139.15,293.78 138.76,297.72 138.46,302.86 C138.07,310.27 138.04,326.29 138.05,326.35 C138.08,326.57 138.19,326.87 138.36,327.26" fill="none" stroke="rgb(57, 77, 239)" stroke-width="3.28" stroke-opacity="1.00" stroke-linejoin="round"/>
<path d="M138.41,328.86 C138.04,329.54 137.84,330.22 137.67,331.53 C137.53,332.62 137.42,333.10 137.30,333.29 C137.30,333.29 137.53,333.06 137.53,333.06" fill="none" stroke="rgb(57, 77, 239)" stroke-width="3.28" stroke-opacity="1.00" stroke-linejoin="round"/>
<path d="M159.47,304.10 C159.18,304.48 159.00,304.83 158.92,305.16 C157.72,310.15 159.70,348.64 159.17,359.19 C158.26,374.91 158.81,430.90 158.26,438.85 C156.41,460.94 156.13,476.86 155.78,480.36 C155.78,480.36 156.15,477.78 156.15,477.78" fill="none" stroke="rgb(57, 77, 239)" stroke-width="3.28" stroke-opacity="1.00" stroke-linejoin="round"/>
<path d="M186.45,301.88 C186.46,302.22 186.44,302.53 186.31,303.96 C185.78,310.76 182.23,346.37 182.48,355.88 C183.01,371.33 183.12,396.76 183.12,396.86 C183.16,397.31 183.28,397.93 183.49,398.70" fill="none" stroke="rgb(57, 77, 239)" stroke-width="3.28" stroke-opacity="1.00" stroke-linejoin="round"/>
<path d="M176.10,457.09 C175.88,457.43 175.42,458.69 174.99,460.18 C174.62,461.54 174.37,466.13 174.29,472.04 C174.27,476.05 174.25,483.00 174.25,485.95 C174.25,485.95 174.25,483.24 174.25,483.24" fill="none" stroke="rgb(57, 77, 239)" stroke-width="3.28" stroke-opacity="1.00" stroke-linejoin="round"/>
<path d="M218.23,301.14 C218.25,303.29 217.99,307.57 217.59,312.05 C217.02,318.64 216.59,332.18 216.43,338.98 C216.34,350.76 219.54,394.10 219.58,395.19 C219.72,398.64 219.11,419.97 218.79,421.76 C218.79,421.76 218.23,421.98 218.23,421.98" fill="none" stroke="rgb(57, 77, 239)" stroke-width="3.28" stroke-opacity="1.00" stroke-linejoin="round"/>
<path d="M317.51,236.12 C317.51,236.12 316.90,236.12 316.90,236.12 C316.57,236.42 317.11,246.40 317.10,257.19 C317.14,264.78 317.41,279.41 317.26,284.70 C316.50,298.77 314.99,319.45 315.02,320.09 C315.05,320.61 315.20,321.92 315.49,324.01" fill="none" stroke="rgb(57, 77, 239)" stroke-width="3.28" stroke-opacity="1.00" stroke-linejoin="round"/>
<path d="M311.84,328.47 C311.99,329.77 312.09,330.99 312.25,333.45 C312.39,335.81 312.62,337.63 312.65,338.26 C312.67,339.56 312.73,341.78 313.00,344.84" fill="none" stroke="rgb(57, 77, 239)" stroke-width="3.28" stroke-opacity="1.00" stroke-linejoin="round"/>
<path d="M311.84,369.78 C311.84,369.78 310.73,368.97 310.73,368.97 C310.23,369.37 310.24,374.62 310.26,377.48 C310.02,393.70 309.82,414.59 309.85,419.26 C309.85,419.26 310.63,416.77 310.63,416.77" fill="none" stroke="rgb(57, 77, 239)" stroke-width="3.28" stroke-opacity="1.00" stroke-linejoin="round"/>
<path d="M364.90,226.40 C364.90,227.91 364.90,230.60 364.93,231.03 C365.07,232.97 367.04,247.16 367.62,258.52 C367.97,265.98 369.53,279.99 369.14,285.54 C369.11,285.92 369.05,286.60 368.96,287.60 C368.96,287.60 368.55,287.96 368.55,287.96" fill="none" stroke="rgb(57, 77, 239)" stroke-width="3.28" stroke-opacity="1.00" stroke-linejoin="round"/>
<path d="M380.70,216.67 C380.70,217.34 380.70,218.01 380.70,218.67 C380.63,229.32 381.63,251.81 380.73,272.63 C380.71,275.15 381.05,294.55 381.09,302.23 C381.02,309.61 380.73,325.11 380.14,330.06 C379.87,332.16 378.98,337.90 378.35,338.84 C378.26,338.95 378.10,339.14 377.86,339.40" fill="none" stroke="rgb(57, 77, 239)" stroke-width="3.28" stroke-opacity="1.00" stroke-linejoin="round"/>
<path d="M361.66,343.05 C361.66,343.05 361.66,342.64 361.66,342.64 C361.51,346.08 362.94,362.61 362.89,368.65 C362.87,370.56 362.78,371.71 362.53,373.56 C362.53,373.56 362.87,373.83 362.87,373.83" fill="none" stroke="rgb(57, 77, 239)" stroke-width="3.28" stroke-opacity="1.00" stroke-linejoin="round"/>
<path d="M361.66,421.22 C361.66,421.22 361.46,421.22 361.46,421.22 C361.04,424.13 361.32,431.59 362.60,444.62 C363.16,450.33 363.30,467.16 363.31,474.75 C363.16,492.52 361.01,504.40 360.62,505.37 C360.62,505.37 360.04,502.63 360.04,502.63" fill="none" stroke="rgb(57, 77, 239)" stroke-width="3.28" stroke-opacity="1.00" stroke-linejoin="round"/>
<path d="M428.49,70.86 C428.49,70.86 428.49,70.45 428.49,70.45 C428.51,71.98 428.80,85.16 428.03,96.52 C427.50,104.19 426.84,114.20 425.48,122.20 C424.08,130.26 421.44,145.43 420.21,152.54 C418.07,165.70 415.68,198.47 414.59,208.25 C413.26,219.32 412.95,224.32 412.98,235.60 C412.95,248.49 411.03,283.39 411.16,293.94 C411.51,309.42 411.71,337.27 411.57,349.63 C411.67,357.14 412.51,366.74 412.72,368.41 C412.72,368.41 413.10,366.54 413.10,366.54" fill="none" stroke="rgb(57, 77, 239)" stroke-width="3.28" stroke-opacity="1.00" stroke-linejoin="round"/>
<path d="M400.95,217.48 C400.96,217.42 400.94,218.94 400.95,219.40 C401.05,224.56 398.62,242.89 398.31,245.99 C397.88,250.51 396.80,292.95 397.15,300.96 C397.42,307.21 397.58,318.18 396.98,326.29 C395.63,343.15 396.13,367.84 396.09,372.98 C396.09,372.98 397.30,368.97 397.30,368.97" fill="none" stroke="rgb(57, 77, 239)" stroke-width="3.28" stroke-opacity="1.00" stroke-linejoin="round"/>
<path d="M445.10,47.77 C444.81,47.75 444.61,47.75 444.49,47.77 C444.37,47.79 444.17,47.86 443.88,47.97 C443.90,48.10 443.74,48.65 443.68,48.89 C442.41,53.92 440.57,63.82 438.86,76.08 C437.46,85.89 434.50,99.02 433.97,101.83 C433.36,105.13 431.48,120.04 430.99,125.72 C430.66,130.26 430.52,143.84 430.52,150.50 C430.51,159.64 432.30,178.91 433.43,206.43 C434.15,220.51 436.80,254.84 437.28,266.18 C437.43,271.26 436.91,289.56 436.56,297.38 C436.15,307.58 436.33,313.21 437.22,323.00 C437.88,330.39 439.07,346.02 438.96,351.16 C438.77,358.60 436.88,382.13 436.79,382.36 C436.73,382.50 436.53,382.90 436.19,383.55" fill="none" stroke="rgb(57, 77, 239)" stroke-width="3.28" stroke-opacity="1.00" stroke-linejoin="round"/>
<path d="M431.33,168.07 C431.33,168.07 430.92,168.07 430.92,168.07 C430.92,168.02 430.92,168.18 430.92,168.23 C431.07,171.12 431.36,177.58 431.06,180.01 C430.10,184.97 428.76,193.01 428.39,203.70 C428.33,205.66 428.14,207.82 427.87,209.28 C427.78,209.74 427.60,210.50 427.34,211.55" fill="none" stroke="rgb(57, 77, 239)" stroke-width="3.28" stroke-opacity="1.00" stroke-linejoin="round"/>
<path d="M429.71,238.55 C428.77,240.35 428.21,241.48 428.03,241.94 C427.69,242.80 427.64,262.26 426.99,268.71 C426.46,273.84 424.77,281.55 424.73,282.17 C424.71,282.54 424.72,283.29 424.77,284.42" fill="none" stroke="rgb(57, 77, 239)" stroke-width="3.28" stroke-opacity="1.00" stroke-linejoin="round"/>
<path d="M425.66,315.10 C425.66,315.10 424.65,315.62 424.65,315.62 C424.38,316.55 424.79,322.96 425.02,326.33 C425.44,332.61 424.70,339.81 423.49,347.26 C423.49,347.26 424.40,344.79 424.40,344.79" fill="none" stroke="rgb(57, 77, 239)" stroke-width="3.28" stroke-opacity="1.00" stroke-linejoin="round"/>
<path d="M457.25,61.14 C457.23,61.60 457.60,66.65 457.81,69.54 C458.32,78.31 454.91,119.22 454.35,128.05 C453.91,138.66 454.01,170.89 454.74,185.06 C455.44,200.78 457.00,238.34 456.87,244.62 C456.86,250.74 456.79,261.95 456.18,269.98 C452.95,307.05 449.06,330.06 448.79,330.51 C448.59,330.85 448.03,331.51 447.12,332.52" fill="none" stroke="rgb(57, 77, 239)" stroke-width="3.28" stroke-opacity="1.00" stroke-linejoin="round"/>
<path d="M490.06,50.61 C489.31,51.36 489.22,53.38 488.94,55.52 C487.05,69.49 482.06,100.58 481.31,108.75 C480.23,123.89 478.01,153.83 476.89,168.64 C476.00,186.39 475.87,213.66 475.85,228.83 C476.26,280.09 475.76,337.57 475.12,351.16 C474.27,367.45 474.25,386.70 474.25,390.08 C474.25,390.08 473.65,389.95 473.65,389.95 C473.65,389.95 473.05,389.22 473.05,389.22" fill="none" stroke="rgb(57, 77, 239)" stroke-width="3.28" stroke-opacity="1.00" stroke-linejoin="round"/>
<path d="M480.34,77.34 C480.20,79.85 480.09,81.08 479.84,83.05 C476.84,107.48 476.46,122.72 474.54,140.36 C472.98,155.62 471.82,183.27 471.06,195.51 C469.48,225.93 466.69,284.48 465.47,312.60 C464.60,327.37 463.39,352.48 463.31,373.54 C463.24,417.77 462.56,438.21 461.82,444.09 C461.36,447.52 459.47,452.19 459.24,453.06 C458.98,454.03 458.16,459.44 457.66,461.68 C457.66,461.68 457.66,461.08 457.66,461.08" fill="none" stroke="rgb(57, 77, 239)" stroke-width="3.28" stroke-opacity="1.00" stroke-linejoin="round"/>
<path d="M417.62,426.82 C417.55,426.98 417.50,427.09 417.45,427.14 C417.36,427.31 417.30,427.56 417.29,427.90 C417.25,441.28 417.12,468.74 417.54,480.96 C418.08,498.43 420.50,531.07 420.04,538.19 C419.73,542.93 417.44,558.57 417.12,564.41 C416.98,567.25 417.08,585.55 417.43,590.09 C419.03,604.66 421.52,632.19 421.42,634.59 C421.40,635.06 421.31,636.04 421.17,637.52" fill="none" stroke="rgb(57, 77, 239)" stroke-width="3.28" stroke-opacity="1.00" stroke-linejoin="round"/>
<path d="M372.05,575.15 C372.05,578.02 372.04,585.32 372.04,589.74 C372.06,601.27 372.54,613.19 372.88,616.59 C375.05,635.26 376.37,655.38 377.37,666.85 C377.49,668.43 378.75,684.72 378.85,687.62 C378.85,687.62 379.16,686.96 379.16,686.96" fill="none" stroke="rgb(57, 77, 239)" stroke-width="3.28" stroke-opacity="1.00" stroke-linejoin="round"/>
<path d="M472.88,421.65 C472.87,421.60 472.91,426.58 471.79,438.25 C470.54,451.37 470.91,481.53 470.92,496.42 C470.87,507.00 469.21,519.48 468.97,521.72 C467.80,532.77 466.89,561.70 465.13,581.02 C464.48,589.28 463.30,605.16 462.75,612.79 C462.06,621.05 460.64,630.80 459.43,641.25 C457.68,657.58 457.62,676.00 456.62,679.09 C456.62,679.09 456.72,678.88 456.72,678.88" fill="none" stroke="rgb(57, 77, 239)" stroke-width="3.28" stroke-opacity="1.00" stroke-linejoin="round"/>
<path d="M39.64,715.56 C39.64,715.56 39.37,715.37 39.37,715.37 C51.39,714.06 78.72,710.23 92.06,709.50 C105.92,708.40 133.76,706.51 150.37,705.84 C160.71,705.52 192.59,705.86 201.01,705.83 C223.50,706.02 252.69,707.43 254.21,707.49 C270.44,708.16 296.86,708.30 306.10,709.25 C311.14,709.83 333.04,710.19 335.10,710.13 C341.75,709.91 356.96,710.52 361.89,710.57 C367.41,710.67 381.83,712.08 388.73,711.90 C394.51,711.76 427.65,712.52 442.43,714.02 C455.61,715.35 482.62,718.69 487.42,720.22 C487.42,720.22 487.94,721.60 487.94,721.60" fill="none" stroke="rgb(255, 0, 238)" stroke-width="3.28" stroke-opacity="1.00" stroke-linejoin="round"/>
<path d="M68.91,92.38 C67.47,96.73 62.78,109.42 60.77,115.01 C60.00,117.11 57.13,133.01 55.89,140.27 C54.94,146.55 53.59,161.63 52.94,168.48 C52.27,175.27 51.61,216.97 51.80,219.73 C51.80,219.73 53.91,219.41 53.91,219.41" fill="none" stroke="rgb(0, 255, 10)" stroke-width="3.28" stroke-opacity="1.00" stroke-linejoin="round"/>
<path d="M60.15,242.36 C60.15,242.36 59.47,242.84 59.47,242.84 C64.76,243.65 68.52,243.96 74.19,243.48 C81.27,242.86 95.15,241.63 101.14,240.05 C109.07,237.92 128.58,232.72 132.39,231.84 C135.64,231.09 170.43,225.87 184.91,223.35 C195.09,221.42 204.98,219.23 210.82,217.96 C225.24,215.48 241.09,212.73 241.59,212.44 C241.85,212.28 242.39,211.83 243.20,211.10" fill="none" stroke="rgb(0, 255, 10)" stroke-width="3.28" stroke-opacity="1.00" stroke-linejoin="round"/>
<path d="M239.37,213.21 C239.37,213.21 239.13,213.17 239.13,213.17 C239.39,212.08 242.36,208.52 244.68,205.78 C247.69,202.16 260.60,189.65 263.31,185.90 C266.88,180.73 271.32,176.15 277.87,170.39 C286.93,162.47 289.70,160.28 290.44,159.74 C290.11,160.60 282.63,174.03 279.20,180.11 C275.75,185.99 266.02,198.33 265.15,199.52 C273.83,196.45 303.63,181.57 315.37,176.88 C321.42,174.43 324.24,173.42 327.96,172.35 C328.27,172.26 328.78,172.09 329.49,171.85" fill="none" stroke="rgb(0, 255, 10)" stroke-width="3.28" stroke-opacity="1.00" stroke-linejoin="round"/>
<path d="M329.06,176.68 C328.19,176.41 325.82,178.21 322.19,181.52 C317.76,185.53 302.49,194.42 300.91,195.39 C290.09,202.04 278.76,209.00 277.32,209.79 C280.85,210.68 299.42,212.91 305.04,214.03 C308.83,214.78 312.81,215.90 314.10,216.60 C313.88,216.69 299.19,219.61 294.43,221.08 C293.42,221.39 285.24,224.11 282.51,224.86 C276.46,226.49 269.63,226.95 269.55,227.00 C269.49,227.03 269.12,227.26 268.41,227.71" fill="none" stroke="rgb(0, 255, 10)" stroke-width="3.28" stroke-opacity="1.00" stroke-linejoin="round"/>
<path d="M271.87,227.57 C271.87,227.57 271.07,227.08 271.07,227.08 C269.83,227.14 266.00,229.73 264.38,230.63 C260.18,232.96 247.47,236.96 244.49,238.30 C243.54,238.74 237.86,241.63 235.32,242.93 C229.54,245.78 215.22,249.69 209.87,251.23 C203.68,253.13 191.74,258.30 184.83,262.11 C173.30,268.60 147.29,280.11 134.16,286.09 C110.39,296.64 79.43,313.09 78.74,313.50 C78.43,313.69 78.22,313.86 78.12,314.01" fill="none" stroke="rgb(0, 255, 10)" stroke-width="3.28" stroke-opacity="1.00" stroke-linejoin="round"/>
<path d="M57.93,372.16 C57.49,372.56 57.27,373.10 56.99,374.59 C56.39,377.86 54.26,412.88 53.71,422.03 C52.79,436.72 52.73,451.12 52.73,452.59 C52.73,452.59 53.62,452.49 53.62,452.49" fill="none" stroke="rgb(0, 255, 10)" stroke-width="3.28" stroke-opacity="1.00" stroke-linejoin="round"/>
<path d="M54.14,453.83 C54.40,452.69 54.63,451.59 55.02,451.19 C59.23,446.95 82.07,429.09 83.68,427.40 C84.41,426.63 93.48,417.22 94.44,416.70 C94.94,416.43 96.12,415.91 97.98,415.16" fill="none" stroke="rgb(0, 255, 10)" stroke-width="3.28" stroke-opacity="1.00" stroke-linejoin="round"/>
<path d="M104.17,431.54 C104.17,431.54 103.49,431.39 103.49,431.39 C103.45,431.42 93.15,445.11 88.78,449.78 C86.77,451.88 82.51,456.30 80.96,458.47 C80.11,459.68 70.33,473.65 64.36,482.27 C61.83,485.90 56.65,490.89 56.58,491.05 C56.52,491.19 56.38,491.65 56.16,492.43" fill="none" stroke="rgb(0, 255, 10)" stroke-width="3.28" stroke-opacity="1.00" stroke-linejoin="round"/>
<path d="M52.77,504.08 C52.77,504.08 52.86,499.34 52.86,499.34 C51.67,503.45 49.91,509.08 49.76,510.25 C49.36,513.57 49.72,539.20 49.84,541.85 C49.98,544.96 49.55,560.01 49.45,567.56 C49.50,572.04 50.93,613.26 51.36,629.11 C51.65,645.79 51.20,687.29 51.56,690.72 C51.80,693.03 52.71,698.77 52.92,699.21 C53.18,699.74 54.81,700.60 57.72,701.95" fill="none" stroke="rgb(0, 255, 10)" stroke-width="3.28" stroke-opacity="1.00" stroke-linejoin="round"/>
<path d="M72.16,295.35 C72.16,295.35 70.56,295.70 70.56,295.70 C70.56,295.70 70.17,295.16 70.17,295.16 C73.87,295.08 79.09,294.28 81.62,294.03 C86.55,293.58 104.47,295.24 106.20,295.91 C109.53,297.25 112.35,301.03 114.03,303.78 C115.25,305.90 117.90,311.70 118.17,314.07 C118.46,316.81 117.04,320.18 115.84,321.37 C114.41,322.73 109.50,325.11 105.85,326.05 C102.44,326.90 92.56,328.16 92.59,328.17 C95.32,328.67 100.85,331.52 102.07,333.32 C103.17,335.04 103.04,338.83 102.29,340.74 C101.51,342.62 97.59,347.66 95.57,349.35 C93.63,350.96 89.27,353.66 87.12,354.32 C84.81,354.99 81.78,355.06 77.70,354.64 C71.84,354.02 67.62,353.46 63.79,352.86 C66.61,352.88 70.00,353.80 72.62,354.95 C75.30,356.16 77.92,359.14 78.19,361.35 C78.36,363.16 77.31,367.22 76.04,369.35 C74.77,371.44 71.76,374.93 69.45,376.82 C64.97,380.43 55.30,385.04 50.33,386.42 C45.48,387.75 34.46,389.12 29.95,388.25 C27.83,387.80 22.43,383.73 22.35,383.67 C21.84,383.29 21.52,382.95 21.36,382.64 C21.18,382.27 20.75,381.16 20.05,379.32" fill="none" stroke="rgb(0, 255, 10)" stroke-width="3.28" stroke-opacity="1.00" stroke-linejoin="round"/>
<path d="M29.74,328.06 C29.74,328.06 29.27,328.36 29.27,328.36 C30.44,328.02 31.57,327.82 33.89,327.62 C44.38,326.66 51.60,325.60 51.71,325.63 C51.71,325.63 57.22,315.11 58.22,314.12 C58.93,313.52 62.37,315.67 62.86,317.19 C62.86,317.19 56.49,331.54 56.49,331.54 C56.49,331.54 34.47,338.32 34.47,338.32 C34.47,338.32 34.17,339.15 34.17,339.15" fill="none" stroke="rgb(0, 255, 10)" stroke-width="3.28" stroke-opacity="1.00" stroke-linejoin="round"/>
<path d="M142.78,213.18 C142.78,213.18 140.30,213.18 140.30,213.18 C139.16,212.42 134.16,198.50 133.55,192.60 C133.18,188.81 134.61,176.24 136.12,170.90 C137.59,165.81 142.24,157.13 145.05,153.43 C146.49,151.55 149.91,147.76 152.04,145.95 C154.47,143.92 156.74,142.64 159.97,141.48 C164.65,139.85 169.73,138.37 172.80,137.87 C176.87,137.23 181.68,136.97 184.02,137.42 C188.10,138.25 195.79,142.25 203.54,147.66 C205.24,148.84 206.12,149.59 206.46,149.80 C206.73,149.97 207.47,150.40 208.67,151.08" fill="none" stroke="rgb(0, 255, 10)" stroke-width="3.28" stroke-opacity="1.00" stroke-linejoin="round"/>
<path d="M214.00,151.76 C214.00,151.76 213.45,151.62 213.45,151.62 C212.90,150.56 217.54,136.51 220.66,131.58 C222.60,128.57 227.83,122.26 230.28,120.27 C232.65,118.39 239.68,114.97 243.33,113.66 C247.01,112.36 254.22,110.79 258.25,110.50 C260.21,110.36 266.50,110.39 268.68,110.68 C271.49,111.08 275.78,112.56 277.55,114.08 C280.76,116.90 287.03,127.97 287.33,128.45 C287.62,128.93 288.29,129.99 289.35,131.66" fill="none" stroke="rgb(0, 255, 10)" stroke-width="3.28" stroke-opacity="1.00" stroke-linejoin="round"/>
<path d="M290.40,131.58 C290.30,131.21 289.38,129.14 290.18,127.60 C291.66,124.83 301.48,115.43 307.04,111.32 C313.41,106.70 321.36,102.13 326.07,100.21 C331.44,98.03 339.28,96.20 343.47,95.93 C344.65,95.86 352.02,95.60 356.09,95.77 C359.72,95.94 364.56,97.02 366.78,98.17 C373.13,101.56 381.09,113.35 381.21,113.55 C381.21,113.55 382.45,113.38 382.45,113.38" fill="none" stroke="rgb(0, 255, 10)" stroke-width="3.28" stroke-opacity="1.00" stroke-linejoin="round"/>
<path d="M382.79,112.09 C382.30,111.23 382.29,109.63 382.86,107.95 C383.40,106.46 387.17,103.96 390.96,102.62 C395.33,101.12 405.51,100.12 412.29,100.65 C416.09,100.97 421.42,102.33 423.82,103.72 C425.95,104.98 429.39,108.16 430.94,110.11 C432.27,111.83 434.74,116.61 435.34,118.72 C436.05,121.34 436.52,126.67 436.08,129.58 C435.51,132.99 432.59,139.00 429.71,142.17 C427.68,144.37 420.57,149.00 412.39,153.11 C405.31,156.59 396.40,159.28 396.40,159.28 C398.53,159.83 402.68,161.99 405.19,163.85 C407.47,165.57 410.07,168.82 411.60,171.63 C412.91,174.12 414.40,178.67 414.91,182.13 C415.44,185.98 415.55,191.52 415.22,194.62 C414.87,197.74 413.35,203.60 412.15,206.25 C410.95,208.83 408.38,212.48 406.21,214.65 C404.25,216.57 400.02,219.51 397.57,220.89 C393.88,222.93 387.24,225.43 383.37,226.21 C379.99,226.86 371.99,227.03 363.78,226.11 C356.96,225.35 347.74,222.24 346.39,220.83 C346.39,220.83 347.32,220.21 347.32,220.21" fill="none" stroke="rgb(0, 255, 10)" stroke-width="3.28" stroke-opacity="1.00" stroke-linejoin="round"/>
<path d="M346.55,225.86 C346.55,225.86 346.98,225.53 346.98,225.53 C346.98,225.53 347.92,223.53 347.92,223.53 C348.96,223.27 350.21,224.29 351.58,226.61 C353.06,229.19 354.59,233.84 354.90,237.03 C355.10,239.29 355.03,244.45 354.65,246.64 C354.21,249.07 352.62,253.18 351.34,254.82 C348.74,258.08 339.08,264.07 331.98,267.38 C325.19,270.49 314.00,274.15 307.74,275.54 C300.88,277.04 285.53,278.89 283.13,278.95 C278.21,279.03 267.70,276.26 259.14,273.62 C253.09,271.67 243.71,267.40 239.66,264.65 C239.66,264.65 241.26,264.72 241.26,264.72" fill="none" stroke="rgb(0, 255, 10)" stroke-width="3.28" stroke-opacity="1.00" stroke-linejoin="round"/>
<path d="M147.52,270.80 C147.30,270.75 147.09,270.69 146.87,270.64 C146.78,270.61 146.69,270.59 146.59,270.56 C147.11,271.53 151.58,276.79 154.22,278.85 C164.89,286.86 170.64,290.52 179.87,293.78 C187.17,296.32 202.10,299.29 205.66,299.42 C208.62,299.52 214.52,299.15 218.23,298.37 C223.15,297.31 228.70,295.82 230.81,294.90 C232.37,294.21 237.10,291.35 238.51,289.48 C240.12,287.27 241.90,280.71 241.94,277.56 C241.93,274.09 240.83,269.35 240.62,268.44 C240.53,268.07 240.44,267.56 240.35,266.90" fill="none" stroke="rgb(0, 255, 10)" stroke-width="3.28" stroke-opacity="1.00" stroke-linejoin="round"/>
<path d="M101.07,414.06 C100.79,413.97 100.37,413.79 100.17,413.55 C99.85,413.17 98.57,411.23 97.80,410.39 C97.28,409.81 91.60,404.25 90.23,402.03 C89.60,400.98 88.38,398.24 87.86,396.70 C86.91,393.81 87.57,388.76 88.30,385.99 C88.91,383.81 90.87,378.39 92.19,375.91 C94.15,372.26 97.95,368.37 100.80,366.81 C104.50,364.83 110.30,363.25 112.95,363.35 C115.56,363.50 123.42,367.15 123.72,367.32 C123.92,367.43 124.12,367.57 124.33,367.76" fill="none" stroke="rgb(0, 255, 10)" stroke-width="3.28" stroke-opacity="1.00" stroke-linejoin="round"/>
<path d="M125.90,366.42 C125.18,366.85 124.73,367.11 124.56,367.20 C124.38,367.29 124.23,367.32 124.11,367.31 C124.29,365.63 125.69,361.15 126.92,358.86 C128.21,356.51 132.42,350.74 134.23,348.75 C136.12,346.72 140.13,343.96 142.35,342.86 C144.14,342.00 148.73,340.47 151.47,340.23 C156.58,339.81 163.57,341.39 168.80,342.92 C169.04,340.34 170.03,334.48 170.83,332.46 C171.85,330.01 175.73,325.67 178.54,323.62 C180.69,322.09 184.92,320.25 186.32,320.05 C189.73,319.63 195.33,320.86 197.60,321.98 C200.23,323.32 204.15,326.42 204.85,327.41 C205.23,325.00 207.48,319.03 208.71,317.20 C209.92,315.46 212.58,313.94 214.31,313.61 C215.96,313.33 220.39,313.42 222.31,313.89 C224.09,314.35 227.23,316.23 228.22,317.38 C229.24,318.60 230.53,321.83 230.81,323.61 C231.05,325.25 230.88,328.13 230.39,329.67 C229.91,331.09 228.67,332.66 227.02,334.36 C227.31,334.61 231.27,336.99 232.63,338.33 C233.97,339.68 235.59,342.51 235.99,344.32 C236.40,346.40 236.07,352.84 234.87,356.42 C234.41,357.56 233.73,359.26 233.54,359.38 C233.37,359.47 232.68,359.81 231.48,360.38" fill="none" stroke="rgb(0, 255, 10)" stroke-width="3.28" stroke-opacity="1.00" stroke-linejoin="round"/>
<path d="M101.96,432.85 C101.96,432.85 101.52,433.17 101.52,433.17 C101.67,434.28 104.73,440.00 105.50,441.39 C107.18,444.26 111.92,449.03 114.45,449.84 C116.56,450.48 122.88,450.66 125.74,450.57 C128.31,450.47 133.99,448.87 136.85,447.39 C139.07,446.22 144.73,442.66 147.01,440.70 C148.99,438.97 151.48,434.89 152.47,432.45 C154.24,427.94 156.53,417.42 156.49,417.57 C156.49,417.57 156.99,417.64 156.99,417.64" fill="none" stroke="rgb(0, 255, 10)" stroke-width="3.28" stroke-opacity="1.00" stroke-linejoin="round"/>
<path d="M138.20,450.30 C138.06,450.30 137.93,450.30 137.79,450.30 C137.71,450.30 137.63,450.30 137.55,450.30 C139.94,452.32 144.45,454.25 147.47,454.71 C150.07,455.08 159.42,452.01 159.77,451.94 C159.91,451.91 160.16,451.89 160.51,451.86" fill="none" stroke="rgb(0, 255, 10)" stroke-width="3.28" stroke-opacity="1.00" stroke-linejoin="round"/>
<path d="M158.78,446.05 C158.51,446.63 159.04,448.36 160.33,449.32 C161.77,450.35 166.12,450.61 168.81,450.38 C169.91,450.29 178.45,449.19 180.20,448.88 C183.97,448.20 189.16,446.27 191.91,444.71 C194.68,443.12 199.46,440.03 200.72,438.83 C203.60,436.04 207.44,429.43 208.70,426.70 C208.70,426.70 209.09,426.52 209.09,426.52 C209.09,426.52 209.34,426.59 209.34,426.59" fill="none" stroke="rgb(0, 255, 10)" stroke-width="3.28" stroke-opacity="1.00" stroke-linejoin="round"/>
<path d="M134.85,396.84 C134.85,396.84 135.24,396.30 135.24,396.30 C135.24,396.30 133.55,395.54 133.55,395.54 C133.53,395.44 133.53,394.84 153.60,381.49 C159.96,377.11 183.21,360.93 183.30,360.79 C183.73,360.08 185.54,354.30 186.41,352.49 C188.14,348.96 190.30,346.55 190.54,346.57 C190.54,346.57 190.23,356.93 190.23,356.93 C190.23,356.93 218.40,339.34 218.40,339.34 C218.40,339.34 218.71,340.23 218.71,340.23" fill="none" stroke="rgb(0, 255, 10)" stroke-width="3.28" stroke-opacity="1.00" stroke-linejoin="round"/>
<path d="M223.65,342.03 C223.65,342.03 222.70,341.36 222.70,341.36 C222.13,341.86 221.71,342.22 221.44,342.43 C219.60,343.93 215.40,346.41 212.39,349.05 C209.35,351.71 201.60,356.86 195.04,360.50 C186.01,365.62 179.87,370.11 174.51,374.61 C173.24,375.69 160.28,387.88 156.17,391.07 C138.71,404.32 135.50,406.16 135.37,406.28 C135.22,406.42 134.99,406.74 134.68,407.25" fill="none" stroke="rgb(0, 255, 10)" stroke-width="3.28" stroke-opacity="1.00" stroke-linejoin="round"/>
</g>
</svg>
