<?xml version="1.0" encoding="UTF-8" standalone="no"?>
<!DOCTYPE svg PUBLIC "-//W3C//DTD SVG 1.1//EN" "http://www.w3.org/Graphics/SVG/1.1/DTD/svg11.dtd">
<svg width="128.40" height="181.68" viewBox="0.00 0.00 535.00 757.00" xmlns="http://www.w3.org/2000/svg" xmlns:xlink="http://www.w3.org/1999/xlink">
<g stroke-linecap="round" id="130">
<path d="M93.16,201.52 C93.16,201.52 90.03,200.74 90.03,200.74 C90.49,201.47 91.48,202.87 91.86,203.40 C93.42,205.55 96.89,208.11 99.59,208.81 C102.59,209.54 108.09,208.85 110.63,207.48 C111.94,206.75 117.11,201.93 120.49,199.63 C123.66,197.51 129.82,194.73 134.20,193.63 C139.33,192.38 145.93,192.63 153.26,194.19 C159.46,195.52 170.23,199.61 173.42,202.17 C176.07,204.44 183.55,209.31 184.67,210.61 C184.76,212.04 183.14,214.95 181.19,216.21 C179.96,216.99 172.12,220.68 170.51,221.70 C168.07,223.28 165.72,225.53 162.28,229.75 C159.85,232.66 154.01,235.32 151.00,235.87 C148.49,236.29 123.81,236.25 118.78,235.50 C114.62,234.85 101.97,230.01 100.87,228.94 C100.14,228.18 99.36,225.66 99.24,224.02 C99.16,222.34 99.60,219.05 100.15,217.33 C101.19,214.21 104.79,209.95 106.81,208.17 C108.66,206.58 112.41,204.06 114.84,202.87 C117.78,201.46 123.50,199.56 126.72,198.98 C129.89,198.44 135.54,198.15 138.00,198.38 C140.87,198.68 146.23,200.38 147.05,202.14 C147.17,202.42 147.28,202.97 147.37,203.79 C146.78,204.78 145.66,205.87 144.36,206.44 C142.54,207.21 137.25,207.87 135.99,208.02" fill="none" stroke="rgb(228, 0, 126)" stroke-width="2.33" stroke-opacity="1.00" stroke-linejoin="round"/>
<path d="M409.17,217.13 C409.17,217.13 407.87,216.78 407.87,216.78 C409.19,215.72 423.37,214.06 431.10,213.50 C437.76,213.15 452.16,212.84 460.62,212.86 C467.70,212.99 480.28,214.59 486.86,215.75 C492.31,216.73 502.19,220.82 510.56,225.42 C514.11,227.40 516.45,229.06 518.35,230.87 C521.61,234.04 526.55,242.32 527.39,245.27 C527.87,247.03 527.32,250.92 526.62,252.03 C524.71,254.96 520.55,258.03 518.92,258.96 C515.26,261.01 503.30,264.57 497.62,265.46 C491.64,266.39 479.07,267.15 473.42,267.05 C467.74,266.93 453.40,265.40 446.13,264.52 C430.75,263.14 392.34,262.24 386.48,261.80 C379.45,261.26 369.01,259.11 362.18,256.94 C351.74,253.54 344.33,251.59 338.05,250.41 C334.48,249.75 313.42,246.89 309.31,246.65 C302.71,246.29 291.20,247.52 283.09,249.17 C277.29,250.36 262.53,253.09 255.72,253.39 C252.35,253.53 245.67,253.41 242.82,252.98 C240.20,252.57 234.13,250.73 232.25,249.74 C230.99,249.05 229.06,247.44 228.28,246.39 C227.47,245.25 226.56,242.75 226.49,241.36 C226.41,238.32 229.31,232.47 231.09,230.38 C233.98,227.13 241.54,222.05 246.20,220.11 C248.88,219.01 265.80,213.34 273.02,211.18 C277.42,209.94 294.00,206.11 300.99,204.71 C311.49,202.73 319.53,201.53 328.41,200.79 C338.97,199.95 350.15,198.61 356.89,198.47 C364.40,198.38 379.43,198.54 386.35,199.24 C393.01,199.94 404.39,202.53 412.49,205.17 C417.96,206.88 430.23,210.61 437.15,212.78 C447.99,216.16 454.34,217.75 464.40,219.47 C467.95,220.03 473.90,220.58 477.68,220.59 C480.78,220.59 484.06,220.99 485.54,221.19" fill="none" stroke="rgb(228, 0, 126)" stroke-width="2.33" stroke-opacity="1.00" stroke-linejoin="round"/>
<path d="M486.42,220.25 C486.42,220.25 486.42,219.43 486.42,219.43 C486.42,219.43 499.89,219.66 499.89,219.66 C499.89,219.66 500.30,220.32 500.30,220.32" fill="none" stroke="rgb(228, 0, 126)" stroke-width="2.33" stroke-opacity="1.00" stroke-linejoin="round"/>
<path d="M310.86,208.15 C309.95,207.65 309.40,207.40 309.00,207.37 C307.82,207.33 304.56,209.71 304.02,210.38 C304.02,210.38 310.70,213.20 310.70,213.20" fill="none" stroke="rgb(228, 0, 126)" stroke-width="2.33" stroke-opacity="1.00" stroke-linejoin="round"/>
<path d="M266.38,443.41 C266.44,443.88 265.95,445.39 265.76,446.00 C265.75,446.03 264.28,450.98 263.90,451.81 C263.34,452.99 255.55,457.30 255.00,457.50 C252.99,458.25 246.89,458.70 245.27,457.96 C244.15,457.42 240.61,453.16 239.28,450.89 C238.04,448.69 237.71,445.15 238.55,443.36 C239.34,441.81 242.72,439.23 245.31,438.02 C248.57,436.55 254.55,435.79 257.99,436.36 C260.83,436.86 267.33,439.50 268.01,441.24 C268.31,442.07 268.29,443.87 268.14,445.17 C268.14,445.17 267.82,445.43 267.82,445.43 C267.82,445.43 267.16,443.80 267.16,443.80" fill="none" stroke="rgb(0, 160, 232)" stroke-width="2.33" stroke-opacity="1.00" stroke-linejoin="round"/>
<path d="M267.16,443.02 C267.16,443.02 267.16,443.22 267.16,443.22 C267.16,443.22 266.50,443.80 266.50,443.80 C265.44,443.85 258.88,443.27 256.03,443.01 C250.10,442.47 243.23,443.77 241.83,444.04 C241.83,444.04 241.02,443.41 241.02,443.41" fill="none" stroke="rgb(0, 160, 232)" stroke-width="2.33" stroke-opacity="1.00" stroke-linejoin="round"/>
<path d="M246.09,438.73 C246.09,438.73 243.13,440.74 243.13,440.74 C245.99,441.08 252.12,440.25 255.52,440.06 C256.72,439.99 259.68,439.88 260.97,439.83 C259.42,439.29 254.82,438.67 251.98,438.61 C248.86,438.56 243.60,439.32 242.69,440.11 C243.14,441.19 249.30,441.88 253.24,441.41 C256.37,441.01 258.19,440.37 258.55,440.03 C257.17,439.05 242.68,440.80 240.75,441.92 C240.59,442.01 240.39,442.19 240.15,442.45 C240.34,442.72 241.24,442.93 242.88,442.99 C243.28,443.00 244.06,443.01 245.21,443.02" fill="none" stroke="rgb(0, 160, 232)" stroke-width="2.33" stroke-opacity="1.00" stroke-linejoin="round"/>
<path d="M255.46,440.29 C255.46,440.29 252.01,440.29 252.01,440.29 C252.01,440.29 264.88,442.98 264.88,442.98 C264.88,442.98 258.50,439.21 258.50,439.21 C258.50,439.21 264.84,441.90 264.84,441.90 C264.84,441.90 262.37,439.36 262.37,439.36 C262.37,439.36 266.77,443.80 266.77,443.80" fill="none" stroke="rgb(0, 160, 232)" stroke-width="2.33" stroke-opacity="1.00" stroke-linejoin="round"/>
<path d="M242.97,450.43 C242.92,450.06 243.13,449.23 243.61,448.57 C245.20,446.41 247.22,445.39 247.59,445.51 C248.00,445.90 248.26,446.28 248.48,447.04 C248.66,447.72 248.85,448.40 249.04,449.08" fill="none" stroke="rgb(0, 160, 232)" stroke-width="2.33" stroke-opacity="1.00" stroke-linejoin="round"/>
<path d="M255.46,446.92 C255.46,446.92 254.40,446.92 254.40,446.92 C254.40,446.92 256.90,445.09 256.90,445.09 C257.39,445.26 257.73,445.44 257.92,445.63 C258.11,445.82 258.40,446.30 258.80,447.06" fill="none" stroke="rgb(0, 160, 232)" stroke-width="2.33" stroke-opacity="1.00" stroke-linejoin="round"/>
<path d="M251.16,450.04 C251.16,450.04 250.38,449.65 250.38,449.65 C250.41,450.53 250.44,451.06 250.47,451.24 C250.51,451.43 250.59,451.54 250.72,451.57" fill="none" stroke="rgb(0, 160, 232)" stroke-width="2.33" stroke-opacity="1.00" stroke-linejoin="round"/>
<path d="M256.24,453.16 C255.75,453.30 254.98,453.72 253.30,453.55 C252.34,453.45 247.15,451.34 245.57,451.25 C245.57,451.25 248.24,457.17 248.24,457.17 C251.59,456.78 256.09,452.46 256.30,452.10 C256.40,451.91 256.50,451.56 256.60,451.04" fill="none" stroke="rgb(0, 160, 232)" stroke-width="2.33" stroke-opacity="1.00" stroke-linejoin="round"/>
<path d="M257.80,449.26 C257.60,449.33 256.94,449.56 256.82,449.85 C256.62,450.35 256.50,450.88 256.34,451.40 C256.26,451.65 256.16,451.95 256.02,452.32" fill="none" stroke="rgb(0, 160, 232)" stroke-width="2.33" stroke-opacity="1.00" stroke-linejoin="round"/>
<path d="M246.48,460.97 C246.48,460.97 246.09,460.97 246.09,460.97 C246.40,461.65 246.61,462.10 246.71,462.31 C246.81,462.52 246.95,462.77 247.12,463.07" fill="none" stroke="rgb(0, 160, 232)" stroke-width="2.33" stroke-opacity="1.00" stroke-linejoin="round"/>
<path d="M255.07,459.02 C255.07,459.02 253.98,459.71 253.98,459.71 C253.53,460.82 253.62,462.34 254.32,463.48 C254.46,463.71 254.68,463.91 254.99,464.08" fill="none" stroke="rgb(0, 160, 232)" stroke-width="2.33" stroke-opacity="1.00" stroke-linejoin="round"/>
<path d="M255.46,463.70 C255.46,463.70 253.05,464.48 253.05,464.48 C253.05,464.48 245.70,463.31 245.70,463.31 C245.70,463.31 245.31,462.53 245.31,462.53" fill="none" stroke="rgb(0, 160, 232)" stroke-width="2.33" stroke-opacity="1.00" stroke-linejoin="round"/>
<path d="M247.65,458.24 C247.52,458.24 247.39,458.24 247.26,458.24 C247.17,458.24 247.07,458.24 246.98,458.24 C246.92,458.53 246.88,458.74 246.87,458.87 C246.86,459.01 246.86,459.24 246.87,459.57" fill="none" stroke="rgb(0, 160, 232)" stroke-width="2.33" stroke-opacity="1.00" stroke-linejoin="round"/>
<path d="M246.09,463.31 C246.09,463.31 245.70,463.31 245.70,463.31 C245.70,462.77 245.71,462.42 245.74,462.28 C245.76,462.14 245.85,462.00 245.99,461.86" fill="none" stroke="rgb(0, 160, 232)" stroke-width="2.33" stroke-opacity="1.00" stroke-linejoin="round"/>
<path d="M246.87,459.02 C246.87,459.02 244.92,459.02 244.92,459.02 C245.09,459.91 245.23,460.56 245.33,460.95 C245.44,461.35 245.66,462.04 245.99,463.03" fill="none" stroke="rgb(0, 160, 232)" stroke-width="2.33" stroke-opacity="1.00" stroke-linejoin="round"/>
<path d="M246.87,461.36 C246.11,461.84 245.55,462.10 245.00,462.14 C244.18,462.18 235.42,459.72 234.14,459.08 C233.46,458.74 228.46,455.40 226.06,455.06 C224.03,454.80 221.45,454.72 220.73,454.97 C219.71,455.37 218.41,456.44 217.92,457.42 C217.34,458.66 217.42,461.00 218.02,462.46 C218.57,463.71 221.48,465.16 222.91,465.01 C224.26,464.82 225.99,464.00 226.75,463.10 C227.26,462.46 228.14,459.79 228.43,458.35 C228.59,457.51 228.39,456.90 228.06,456.37 C226.97,456.72 226.48,457.30 226.42,458.64 C226.30,461.73 226.41,464.21 226.57,466.06 C227.28,465.43 235.19,465.34 235.97,465.35 C240.15,465.45 241.24,465.95 243.91,467.53 C243.98,467.58 244.19,467.66 244.14,467.60" fill="none" stroke="rgb(0, 160, 232)" stroke-width="2.33" stroke-opacity="1.00" stroke-linejoin="round"/>
<path d="M244.53,467.99 C244.53,467.99 242.58,467.99 242.58,467.99 C242.58,467.99 241.80,468.75 241.80,468.75 C241.80,468.75 242.45,481.20 242.45,481.20 C244.81,480.57 248.75,479.67 253.02,480.13 C255.15,480.47 257.60,480.85 258.24,480.87 C258.24,480.87 258.65,469.52 258.65,469.52 C258.65,469.52 270.37,475.56 270.37,475.56 C270.37,475.56 272.65,470.23 272.65,470.23 C271.66,469.64 267.34,468.00 263.85,466.40 C260.02,464.68 257.83,464.39 255.51,464.24 C254.45,464.19 253.39,464.14 252.33,464.09" fill="none" stroke="rgb(0, 160, 232)" stroke-width="2.33" stroke-opacity="1.00" stroke-linejoin="round"/>
<path d="M274.57,471.50 C274.19,471.48 273.59,471.55 273.11,471.70 C272.99,471.73 272.83,471.80 272.62,471.89 C275.60,471.02 277.63,470.57 278.55,470.80 C280.66,471.34 281.98,473.58 281.83,474.80 C281.59,476.26 278.56,479.75 276.63,479.89 C274.76,479.97 268.24,477.69 267.41,477.01 C267.15,476.79 266.68,476.26 265.99,475.40" fill="none" stroke="rgb(0, 160, 232)" stroke-width="2.33" stroke-opacity="1.00" stroke-linejoin="round"/>
<path d="M242.58,483.99 C242.58,483.99 242.58,483.79 242.58,483.79 C242.58,483.79 241.96,483.67 241.96,483.67 C241.96,483.67 232.53,497.16 232.53,497.16 C232.53,497.16 233.56,497.25 233.56,497.25" fill="none" stroke="rgb(0, 160, 232)" stroke-width="2.33" stroke-opacity="1.00" stroke-linejoin="round"/>
<path d="M247.26,492.96 C246.76,493.31 246.54,493.42 246.42,493.54 C243.90,496.06 239.57,500.04 237.15,502.27 C236.93,501.77 224.83,493.66 220.35,492.24 C218.19,491.57 216.27,491.07 215.89,491.14 C214.23,491.59 211.75,498.02 210.88,500.55 C211.60,501.96 223.43,511.34 226.26,512.50 C227.82,513.09 229.91,512.46 232.44,510.13 C233.09,509.51 233.63,509.29 233.79,508.95 C235.69,504.80 237.48,501.30 237.71,500.96 C237.85,500.75 238.04,500.56 238.29,500.37" fill="none" stroke="rgb(0, 160, 232)" stroke-width="2.33" stroke-opacity="1.00" stroke-linejoin="round"/>
<path d="M247.65,494.13 C247.65,494.13 246.91,494.13 246.91,494.13 C247.45,494.00 250.10,497.00 251.60,499.18 C253.10,501.39 255.74,506.84 256.13,507.00 C256.13,507.00 257.04,505.95 257.04,505.95 C257.04,505.95 262.94,512.89 262.94,512.89 C263.92,512.85 266.82,511.04 271.66,508.28 C275.33,506.22 276.47,505.29 276.82,503.40 C277.23,500.77 275.45,496.84 274.18,496.31 C272.93,495.91 269.73,497.16 267.23,499.29 C266.64,499.79 260.55,505.76 259.78,506.28 C259.78,506.28 259.75,506.22 259.75,506.22" fill="none" stroke="rgb(0, 160, 232)" stroke-width="2.33" stroke-opacity="1.00" stroke-linejoin="round"/>
<path d="M265.99,499.98 C265.99,499.98 265.40,500.96 265.40,500.96 C265.40,500.96 264.82,501.15 264.82,501.15 C264.54,500.11 258.97,489.76 257.63,485.23 C257.17,483.72 256.83,482.71 256.60,482.22 C256.44,481.88 256.19,481.55 255.85,481.25" fill="none" stroke="rgb(0, 160, 232)" stroke-width="2.33" stroke-opacity="1.00" stroke-linejoin="round"/>
<path d="M290.18,442.24 C290.18,442.24 289.59,442.24 289.59,442.24 C289.59,442.24 289.40,441.85 289.40,441.85 C289.40,441.85 289.28,441.85 289.28,441.85 C285.95,446.82 280.98,467.95 279.99,470.25 C279.82,470.64 279.58,471.04 279.28,471.47" fill="none" stroke="rgb(0, 0, 255)" stroke-width="2.33" stroke-opacity="1.00" stroke-linejoin="round"/>
<path d="M281.99,470.72 C281.99,470.72 281.99,471.50 281.99,471.50 C281.99,471.50 293.60,441.09 293.60,441.09 C293.60,441.09 293.69,441.07 293.69,441.07 C293.69,441.07 293.69,441.07 293.69,441.07 C293.69,441.07 293.69,441.24 293.69,441.24 C293.69,441.24 293.29,441.59 293.29,441.59 C287.98,441.81 268.74,435.75 268.67,435.24 C269.16,434.49 273.44,429.35 275.14,426.71 C277.66,422.64 280.50,417.66 281.70,416.45 C283.82,414.37 290.73,410.38 293.57,409.67 C296.04,409.10 303.38,409.70 306.72,410.74 C310.02,411.80 314.83,414.36 316.44,416.36 C316.85,416.88 322.63,425.92 323.52,428.33 C324.33,430.60 326.39,442.30 326.28,444.42 C325.57,444.35 310.97,441.67 305.72,441.70 C302.04,441.80 294.68,441.70 294.52,441.65 C294.33,441.59 293.79,441.40 292.91,441.07" fill="none" stroke="rgb(0, 0, 255)" stroke-width="2.33" stroke-opacity="1.00" stroke-linejoin="round"/>
<path d="M297.59,443.02 C297.53,443.01 296.73,443.03 296.62,443.02 C295.80,442.87 295.00,439.42 294.72,435.74 C294.14,428.35 291.44,413.42 291.36,410.63 C291.35,410.45 291.35,410.07 291.35,409.50" fill="none" stroke="rgb(0, 0, 255)" stroke-width="2.33" stroke-opacity="1.00" stroke-linejoin="round"/>
<path d="M302.66,443.41 C302.47,443.41 301.57,443.37 301.30,443.14 C300.48,442.41 291.80,422.99 291.17,421.75 C289.72,418.93 287.12,416.15 284.25,413.51 C284.25,413.51 284.72,415.32 284.72,415.32" fill="none" stroke="rgb(0, 0, 255)" stroke-width="2.33" stroke-opacity="1.00" stroke-linejoin="round"/>
<path d="M275.74,420.00 C275.74,420.00 274.96,418.83 274.96,418.83 C279.14,425.99 285.34,443.34 285.54,443.74 C285.65,443.96 285.89,444.37 286.28,444.97" fill="none" stroke="rgb(0, 0, 255)" stroke-width="2.33" stroke-opacity="1.00" stroke-linejoin="round"/>
<path d="M298.76,408.30 C298.76,408.30 297.01,408.25 297.01,408.25 C296.74,406.76 298.49,403.30 299.96,400.46 C300.15,400.05 300.40,399.41 300.71,398.56 C300.85,399.86 301.16,402.94 301.35,404.72 C301.51,406.36 301.77,409.12 301.88,410.23" fill="none" stroke="rgb(0, 0, 255)" stroke-width="2.33" stroke-opacity="1.00" stroke-linejoin="round"/>
<path d="M301.10,407.52 C301.10,407.52 299.54,407.52 299.54,407.52 C300.71,410.02 301.29,411.65 301.61,413.59 C302.13,416.91 303.23,423.56 304.07,425.59 C304.50,426.59 308.03,431.89 308.99,435.37 C310.18,439.70 311.02,443.17 311.42,445.29 C311.42,445.29 311.25,444.97 311.25,444.97" fill="none" stroke="rgb(0, 0, 255)" stroke-width="2.33" stroke-opacity="1.00" stroke-linejoin="round"/>
<path d="M306.95,428.19 C306.95,428.19 306.06,428.19 306.06,428.19 C306.06,428.19 305.87,428.39 305.87,428.39 C305.77,428.49 310.67,433.24 312.68,435.99 C316.04,440.71 318.26,448.76 318.24,448.72 C318.24,448.72 317.88,447.70 317.88,447.70" fill="none" stroke="rgb(0, 0, 255)" stroke-width="2.33" stroke-opacity="1.00" stroke-linejoin="round"/>
<path d="M318.66,446.53 C318.66,446.53 318.07,447.51 318.07,447.51 C318.07,447.51 317.88,447.47 317.88,447.47 C317.80,434.84 315.26,418.19 315.12,417.85 C315.03,417.67 314.78,417.21 314.37,416.49" fill="none" stroke="rgb(0, 0, 255)" stroke-width="2.33" stroke-opacity="1.00" stroke-linejoin="round"/>
<path d="M391.62,466.04 C391.62,466.04 390.06,467.21 390.06,467.21 C390.94,463.14 390.73,445.32 389.51,444.44 C388.12,443.52 381.73,443.41 379.00,443.42 C358.36,443.54 349.11,442.24 346.05,441.73 C345.21,444.53 345.68,450.47 345.95,454.01 C346.40,461.45 346.71,469.30 346.75,470.33 C346.75,470.33 346.58,468.68 346.58,468.68 C345.49,468.22 332.38,472.56 327.37,474.32 C325.16,475.11 324.30,475.59 324.22,476.53 C324.06,479.49 325.16,496.86 325.43,502.29 C325.72,502.36 337.12,501.52 348.31,501.67 C350.81,501.71 351.75,501.71 352.17,501.72 C352.17,501.72 351.82,502.71 351.82,502.71" fill="none" stroke="rgb(0, 255, 0)" stroke-width="2.33" stroke-opacity="1.00" stroke-linejoin="round"/>
<path d="M355.72,499.59 C355.72,499.59 352.96,500.42 352.96,500.42 C352.54,501.13 350.98,507.04 350.85,508.00 C350.62,509.89 351.20,512.51 352.20,513.85 C353.01,514.88 355.70,516.84 356.91,517.28 C359.45,518.13 366.49,517.42 370.03,516.07 C371.95,515.31 375.11,513.61 376.43,512.56 C377.89,511.36 379.45,509.02 379.70,507.65 C380.05,505.28 377.86,498.89 376.06,496.50 C375.22,495.40 374.20,494.58 373.39,494.18 C374.01,494.81 377.96,494.80 381.92,494.40 C385.07,494.04 394.53,491.97 394.94,492.13 C394.64,492.70 392.92,498.62 392.88,501.18 C392.88,503.04 393.74,505.84 394.65,506.74 C395.50,507.52 398.17,508.28 399.81,508.30 C402.87,508.28 409.21,506.42 411.69,504.67 C412.92,503.76 414.51,501.87 415.02,500.66 C415.50,499.45 415.71,496.98 415.47,495.65 C415.17,494.28 414.09,492.25 413.26,491.59 C411.67,490.40 408.84,490.26 406.90,490.33 C406.84,490.91 407.21,491.23 408.52,491.33 C414.04,491.74 426.99,490.19 428.93,489.30 C428.93,489.30 427.10,462.74 427.10,462.74 C426.24,462.34 413.89,464.99 403.85,466.33 C397.91,467.19 390.13,468.74 389.33,468.36 C389.33,467.65 389.33,466.46 389.43,466.19 C389.49,466.04 389.70,465.59 390.06,464.87" fill="none" stroke="rgb(0, 255, 0)" stroke-width="2.33" stroke-opacity="1.00" stroke-linejoin="round"/>
<path d="M431.02,480.08 C431.02,480.08 429.57,480.08 429.57,480.08 C429.57,480.08 438.12,481.02 438.12,481.02 C438.27,481.64 436.59,487.85 436.45,488.18 C435.92,489.27 431.63,489.40 428.03,489.20 C427.67,489.18 426.72,489.10 425.18,488.97 C424.01,488.87 422.83,488.77 421.66,488.67" fill="none" stroke="rgb(0, 255, 0)" stroke-width="2.33" stroke-opacity="1.00" stroke-linejoin="round"/>
<path d="M383.42,451.21 C383.42,451.21 383.03,450.82 383.03,450.82 C381.54,450.85 374.28,450.37 372.29,450.65 C365.15,451.72 358.81,455.45 357.51,456.35 C357.51,456.35 357.28,457.46 357.28,457.46" fill="none" stroke="rgb(0, 255, 0)" stroke-width="2.33" stroke-opacity="1.00" stroke-linejoin="round"/>
<path d="M362.36,455.50 C362.36,455.50 361.38,455.62 361.38,455.62 C360.93,455.83 360.78,456.62 360.79,459.02 C360.82,462.55 360.40,473.33 360.40,476.49 C360.29,476.63 366.09,475.50 371.06,476.06 C376.07,476.63 376.68,476.60 377.22,476.42 C377.71,475.42 381.31,457.35 381.37,455.69 C381.41,454.57 381.46,451.15 381.47,449.73 C381.47,449.44 381.47,449.16 381.47,448.87" fill="none" stroke="rgb(0, 255, 0)" stroke-width="2.33" stroke-opacity="1.00" stroke-linejoin="round"/>
<path d="M372.11,451.99 C372.11,451.99 371.72,451.99 371.72,451.99 C371.72,451.99 371.52,451.99 371.52,451.99 C371.52,451.99 369.77,478.93 369.77,478.93 C369.77,478.93 370.55,475.79 370.55,475.79" fill="none" stroke="rgb(0, 255, 0)" stroke-width="2.33" stroke-opacity="1.00" stroke-linejoin="round"/>
<path d="M379.91,464.09 C379.91,464.09 379.33,464.09 379.33,464.09 C378.25,465.50 366.46,467.86 361.48,467.95 C360.92,467.96 360.37,467.96 359.81,467.96 C359.81,467.96 361.18,467.21 361.18,467.21" fill="none" stroke="rgb(0, 255, 0)" stroke-width="2.33" stroke-opacity="1.00" stroke-linejoin="round"/>
<path d="M403.32,378.65 C403.62,379.04 405.47,379.76 406.19,380.06 C407.45,380.62 408.43,382.90 408.32,386.00 C408.15,389.42 406.56,395.97 405.52,398.15 C403.88,401.53 397.56,411.50 394.12,418.98 C390.31,427.24 385.20,436.13 380.20,444.18 C373.82,454.06 364.99,470.01 364.36,471.16" fill="none" stroke="rgb(255, 0, 0)" stroke-width="2.33" stroke-opacity="1.00" stroke-linejoin="round"/>
<path d="M385.37,439.51 C383.54,441.07 382.46,443.71 380.81,448.14 C377.34,457.63 372.52,466.34 367.89,472.12 C364.43,476.33 354.06,491.16 352.01,494.34 C345.69,504.15 333.27,530.33 327.17,543.13 C325.71,546.35 323.42,551.62 322.88,552.89" fill="none" stroke="rgb(255, 0, 0)" stroke-width="2.33" stroke-opacity="1.00" stroke-linejoin="round"/>
<path d="M341.29,522.61 C340.88,522.67 340.53,522.58 340.23,522.34 C339.83,522.00 333.23,514.83 330.98,513.87 C329.65,513.34 327.11,513.40 325.63,514.00 C323.26,515.03 317.91,519.17 316.26,520.83 C313.31,523.85 306.51,536.08 304.22,540.27" fill="none" stroke="rgb(255, 0, 0)" stroke-width="2.33" stroke-opacity="1.00" stroke-linejoin="round"/>
<path d="M449.75,453.94 C449.75,453.94 449.75,451.99 449.75,451.99 C450.66,452.13 454.72,455.28 456.19,457.43 C457.89,460.07 459.21,465.57 459.24,468.69 C459.24,474.31 456.95,487.89 454.70,495.46 C450.65,508.95 449.06,514.76 447.86,522.71 C447.64,523.92 447.42,525.13 447.20,526.34" fill="none" stroke="rgb(255, 0, 0)" stroke-width="2.33" stroke-opacity="1.00" stroke-linejoin="round"/>
<path d="M441.16,531.19 C441.16,531.19 440.58,531.00 440.58,531.00 C439.71,529.73 440.25,526.77 441.45,523.35 C444.57,514.80 450.73,481.73 453.91,472.80 C458.62,459.43 464.99,441.48 471.78,418.16 C473.02,413.90 475.07,406.83 475.89,404.01" fill="none" stroke="rgb(255, 0, 0)" stroke-width="2.33" stroke-opacity="1.00" stroke-linejoin="round"/>
<path d="M474.72,387.23 C474.72,387.23 473.74,386.55 473.74,386.55 C473.74,386.55 476.26,383.31 476.26,383.31 C477.88,385.66 478.56,387.16 478.62,389.02 C478.82,396.61 478.17,406.75 477.08,416.33 C475.54,428.10 471.64,446.38 471.33,447.74" fill="none" stroke="rgb(255, 0, 0)" stroke-width="2.33" stroke-opacity="1.00" stroke-linejoin="round"/>
<path d="M487.59,380.60 C487.57,380.92 487.62,381.19 487.59,381.27 C487.31,382.00 479.41,397.72 476.87,403.83 C473.92,411.22 470.51,419.79 470.04,420.97" fill="none" stroke="rgb(255, 0, 0)" stroke-width="2.33" stroke-opacity="1.00" stroke-linejoin="round"/>
<path d="M486.81,391.91 C486.81,391.91 486.81,391.52 486.81,391.52 C486.23,391.93 479.72,423.69 475.33,441.77 C473.07,451.61 471.28,477.98 468.70,496.65 C468.15,500.69 467.77,504.73 467.49,508.97" fill="none" stroke="rgb(255, 0, 0)" stroke-width="2.33" stroke-opacity="1.00" stroke-linejoin="round"/>
<path d="M469.65,434.83 C469.38,437.21 468.78,442.98 468.44,446.38 C466.70,460.14 463.07,489.51 461.18,505.11 C460.31,511.78 459.02,521.42 458.47,526.62" fill="none" stroke="rgb(255, 0, 0)" stroke-width="2.33" stroke-opacity="1.00" stroke-linejoin="round"/>
<path d="M459.89,521.05 C458.79,521.80 456.02,525.08 454.01,528.49 C453.22,529.84 447.78,539.50 446.12,542.12 C444.31,544.97 439.67,550.71 436.56,553.94 C434.92,555.64 433.42,557.02 431.40,558.77" fill="none" stroke="rgb(255, 0, 0)" stroke-width="2.33" stroke-opacity="1.00" stroke-linejoin="round"/>
<path d="M461.06,542.12 C461.04,541.99 461.06,542.38 461.06,542.51 C461.06,546.12 460.87,549.62 460.55,552.60 C460.03,557.14 459.40,561.38 458.60,565.90" fill="none" stroke="rgb(255, 0, 0)" stroke-width="2.33" stroke-opacity="1.00" stroke-linejoin="round"/>
<path d="M509.44,459.41 C509.44,459.41 509.05,460.38 509.05,460.38 C509.22,460.81 511.85,466.07 512.83,469.46 C514.06,473.89 515.37,487.72 515.06,494.73 C514.90,498.18 514.17,504.75 513.68,507.31 C512.80,511.80 510.54,515.63 509.66,516.95" fill="none" stroke="rgb(255, 0, 0)" stroke-width="2.33" stroke-opacity="1.00" stroke-linejoin="round"/>
<path d="M519.97,465.26 C519.97,465.26 519.58,465.06 519.58,465.06 C519.52,465.02 519.65,465.58 520.23,467.72 C521.26,471.55 523.59,480.50 524.09,482.71 C525.05,487.19 526.38,492.38 527.01,494.04 C527.13,494.34 527.36,494.84 527.69,495.55" fill="none" stroke="rgb(255, 0, 0)" stroke-width="2.33" stroke-opacity="1.00" stroke-linejoin="round"/>
<path d="M510.61,365.38 C510.61,365.38 510.61,364.99 510.61,364.99 C511.00,368.57 510.58,383.67 510.35,389.79 C510.25,392.97 510.04,401.80 510.04,403.50 C510.06,409.04 512.18,413.99 513.11,415.81" fill="none" stroke="rgb(255, 0, 0)" stroke-width="2.33" stroke-opacity="1.00" stroke-linejoin="round"/>
<path d="M521.92,309.20 C521.92,309.20 520.07,306.83 520.07,306.83 C520.06,306.75 511.04,345.88 507.75,360.87 C500.52,395.47 499.42,417.61 499.52,419.29 C499.56,419.88 499.69,421.16 499.91,423.14" fill="none" stroke="rgb(255, 0, 0)" stroke-width="2.33" stroke-opacity="1.00" stroke-linejoin="round"/>
<path d="M486.81,254.19 C485.63,260.21 483.46,271.70 481.66,283.53 C480.55,291.29 478.30,307.20 477.15,315.35 C474.91,330.81 471.96,345.07 471.28,348.18" fill="none" stroke="rgb(255, 0, 0)" stroke-width="2.33" stroke-opacity="1.00" stroke-linejoin="round"/>
<path d="M466.13,351.73 C466.13,351.73 465.16,352.70 465.16,352.70 C465.16,352.70 465.22,352.83 465.22,352.83 C466.87,351.67 472.38,347.85 473.15,347.38 C476.25,345.47 482.17,343.39 484.71,343.83 C487.44,344.38 490.63,348.53 491.67,351.30 C493.31,355.89 493.54,366.99 492.73,371.56 C492.25,374.09 490.76,378.24 488.70,383.23" fill="none" stroke="rgb(255, 0, 0)" stroke-width="2.33" stroke-opacity="1.00" stroke-linejoin="round"/>
<path d="M495.00,333.39 C493.77,336.04 493.16,337.56 492.74,339.19 C491.91,342.35 490.09,349.12 489.05,352.39 C488.48,354.15 488.04,355.36 487.62,356.36" fill="none" stroke="rgb(255, 0, 0)" stroke-width="2.33" stroke-opacity="1.00" stroke-linejoin="round"/>
<path d="M463.40,284.23 C463.40,284.23 463.01,283.26 463.01,283.26 C463.61,282.62 464.42,282.27 465.74,282.28 C467.50,282.34 469.87,283.76 470.80,285.48 C472.21,288.20 470.63,299.10 468.48,308.08 C466.85,314.45 462.59,327.90 460.37,334.77 C459.02,338.65 449.15,365.84 448.26,368.40" fill="none" stroke="rgb(255, 0, 0)" stroke-width="2.33" stroke-opacity="1.00" stroke-linejoin="round"/>
<path d="M465.35,304.52 C465.35,304.52 465.35,303.93 465.35,303.93 C465.35,303.93 465.02,303.74 465.02,303.74 C464.12,304.41 455.81,319.26 452.88,324.78 C449.92,330.67 443.49,344.57 440.26,351.72 C436.68,359.98 433.39,368.41 431.01,375.23" fill="none" stroke="rgb(255, 0, 0)" stroke-width="2.33" stroke-opacity="1.00" stroke-linejoin="round"/>
<path d="M450.53,315.83 C450.53,315.83 450.53,313.97 450.53,313.97 C448.60,319.97 443.77,331.81 441.08,338.29 C437.77,346.12 429.78,365.36 428.22,369.58 C427.88,370.52 426.07,375.68 425.79,376.47" fill="none" stroke="rgb(255, 0, 0)" stroke-width="2.33" stroke-opacity="1.00" stroke-linejoin="round"/>
<path d="M462.62,336.51 C462.62,336.51 462.08,336.32 462.08,336.32 C461.59,334.79 460.49,331.62 459.16,330.42 C457.35,328.85 451.62,326.56 449.24,326.24 C446.95,325.97 442.37,326.33 439.47,327.22 C434.78,328.69 422.47,335.52 416.39,338.97 C410.02,342.54 398.32,348.95 392.97,351.79 C384.57,356.46 380.02,359.81 377.89,361.41" fill="none" stroke="rgb(255, 0, 0)" stroke-width="2.33" stroke-opacity="1.00" stroke-linejoin="round"/>
<path d="M397.47,338.85 C397.49,337.58 397.72,336.48 398.35,335.50 C399.28,334.10 401.48,332.01 403.06,331.19 C404.92,330.22 406.97,330.11 408.85,330.61 C410.22,332.98 410.78,334.33 410.98,336.16 C411.58,341.66 411.74,356.77 411.37,365.20 C410.83,373.20 409.73,388.21 409.17,395.23 C408.71,401.25 408.45,413.79 408.37,418.89" fill="none" stroke="rgb(255, 0, 0)" stroke-width="2.33" stroke-opacity="1.00" stroke-linejoin="round"/>
<path d="M397.08,338.46 C397.08,338.46 396.88,338.66 396.88,338.66 C397.00,339.43 400.69,344.64 402.00,347.33 C404.23,352.03 406.64,363.86 407.06,371.53 C407.59,381.79 405.57,400.91 402.31,424.27 C402.09,425.75 401.71,428.42 401.55,429.60 C401.36,430.90 401.08,432.93 400.98,433.66" fill="none" stroke="rgb(255, 0, 0)" stroke-width="2.33" stroke-opacity="1.00" stroke-linejoin="round"/>
<path d="M402.93,362.65 C402.84,362.78 400.89,365.52 400.15,368.61 C398.62,374.88 395.81,390.42 394.43,398.43 C391.79,414.18 389.84,432.64 389.51,435.86 C389.43,436.69 389.36,437.51 389.28,438.34" fill="none" stroke="rgb(255, 0, 0)" stroke-width="2.33" stroke-opacity="1.00" stroke-linejoin="round"/>
<path d="M402.15,374.74 C402.15,374.74 401.76,374.06 401.76,374.06 C402.53,373.17 408.58,369.51 410.78,368.36 C413.43,366.98 421.78,363.79 424.58,363.41 C426.26,363.21 429.36,363.47 430.54,363.99 C432.95,365.11 435.71,371.04 436.31,374.08 C437.39,379.82 437.37,395.01 436.80,402.66 C436.29,409.40 431.42,440.40 428.22,456.13 C426.22,466.31 425.55,477.99 426.07,485.20" fill="none" stroke="rgb(255, 0, 0)" stroke-width="2.33" stroke-opacity="1.00" stroke-linejoin="round"/>
<path d="M446.63,360.31 C446.63,360.31 445.46,360.31 445.46,360.31 C446.50,366.39 446.77,398.48 445.88,412.48 C445.05,422.97 441.05,456.75 439.28,466.77 C437.35,476.69 436.50,480.01 435.06,484.59 C434.60,486.03 433.95,488.07 433.75,488.67" fill="none" stroke="rgb(255, 0, 0)" stroke-width="2.33" stroke-opacity="1.00" stroke-linejoin="round"/>
<path d="M430.24,299.06 C430.24,299.06 429.85,298.86 429.85,298.86 C429.83,298.11 430.04,297.41 430.61,296.66 C433.12,293.47 450.70,265.54 452.96,263.34 C453.66,265.65 453.52,269.10 452.35,273.95 C450.62,281.18 443.75,318.74 440.72,333.75 C439.07,341.02 435.60,355.52 433.85,361.99 C432.00,368.45 429.45,377.23 428.76,379.54" fill="none" stroke="rgb(255, 0, 0)" stroke-width="2.33" stroke-opacity="1.00" stroke-linejoin="round"/>
<path d="M419.32,277.60 C418.92,277.98 414.61,278.14 412.70,279.19 C409.83,280.79 401.76,290.39 397.66,296.15 C393.73,301.71 387.55,311.98 383.43,319.57 C378.86,328.31 370.80,347.69 369.77,350.17" fill="none" stroke="rgb(255, 0, 0)" stroke-width="2.33" stroke-opacity="1.00" stroke-linejoin="round"/>
<path d="M373.28,286.18 C373.28,286.18 372.58,286.18 372.58,286.18 C371.96,285.72 371.73,284.93 371.72,282.70 C371.61,276.50 371.38,275.29 370.88,274.55 C369.41,275.10 367.42,278.67 366.32,281.14 C364.56,285.16 353.16,313.66 352.08,316.36" fill="none" stroke="rgb(255, 0, 0)" stroke-width="2.33" stroke-opacity="1.00" stroke-linejoin="round"/>
<path d="M381.47,289.69 C380.48,289.86 379.24,290.88 378.21,292.59 C376.24,295.90 372.12,309.27 370.61,315.95 C368.92,323.65 367.30,334.90 367.06,340.78 C366.82,347.03 367.00,354.42 367.03,355.36" fill="none" stroke="rgb(255, 0, 0)" stroke-width="2.33" stroke-opacity="1.00" stroke-linejoin="round"/>
<path d="M379.52,299.45 C379.52,299.45 378.74,297.62 378.74,297.62 C379.37,297.53 380.47,297.57 380.92,298.19 C382.43,300.32 382.87,305.37 382.95,307.22 C383.25,315.02 380.57,351.04 379.31,367.15 C378.48,380.74 378.38,389.95 378.35,393.86" fill="none" stroke="rgb(255, 0, 0)" stroke-width="2.33" stroke-opacity="1.00" stroke-linejoin="round"/>
<path d="M354.55,318.17 C354.55,318.17 352.80,317.10 352.80,317.10 C352.80,317.10 352.80,316.71 352.80,316.71 C354.25,316.49 359.18,317.37 361.03,318.30 C363.98,319.86 367.09,323.03 368.57,326.07 C370.62,330.46 372.67,341.83 373.09,348.94 C373.45,355.41 372.89,368.15 372.20,376.38 C370.94,387.47 368.02,403.68 367.82,404.79" fill="none" stroke="rgb(255, 0, 0)" stroke-width="2.33" stroke-opacity="1.00" stroke-linejoin="round"/>
<path d="M365.09,336.90 C365.09,336.90 364.50,336.90 364.50,336.90 C364.28,337.22 363.93,350.49 363.14,359.39 C359.41,390.70 354.79,429.20 353.90,436.39 C353.02,444.24 352.66,450.95 352.61,451.79" fill="none" stroke="rgb(255, 0, 0)" stroke-width="2.33" stroke-opacity="1.00" stroke-linejoin="round"/>
<path d="M349.87,412.20 C349.87,412.20 349.87,412.39 349.87,412.39 C349.64,412.54 348.24,413.10 348.16,413.16 C346.10,414.68 339.23,429.11 337.30,433.63 C335.36,438.30 330.06,453.87 327.87,460.87 C323.49,476.68 317.35,499.07 315.59,505.65" fill="none" stroke="rgb(255, 0, 0)" stroke-width="2.33" stroke-opacity="1.00" stroke-linejoin="round"/>
<path d="M337.00,438.73 C337.00,438.73 334.71,439.51 334.71,439.51 C338.02,439.51 342.26,438.29 345.54,436.07 C348.35,434.11 355.33,425.35 357.81,420.90 C361.15,414.85 367.36,400.99 370.04,395.94 C373.45,389.56 382.16,376.79 386.84,371.06 C391.41,365.51 398.39,355.96 399.80,353.64" fill="none" stroke="rgb(255, 0, 0)" stroke-width="2.33" stroke-opacity="1.00" stroke-linejoin="round"/>
<path d="M409.95,356.80 C409.76,356.99 409.56,357.19 409.37,357.38 C409.30,357.45 409.24,357.51 409.17,357.58 C408.53,356.18 404.79,353.35 403.61,353.63 C401.57,354.24 394.81,362.36 392.01,365.77" fill="none" stroke="rgb(255, 0, 0)" stroke-width="2.33" stroke-opacity="1.00" stroke-linejoin="round"/>
<path d="M424.00,364.21 C424.00,364.21 422.68,366.55 422.68,366.55 C422.42,364.97 421.83,360.29 420.82,356.86 C419.74,353.28 417.11,347.93 415.07,345.82 C413.45,344.22 408.23,343.44 404.90,343.68 C401.71,343.96 397.11,345.54 394.15,347.10 C389.25,349.74 377.62,360.68 371.66,366.38 C370.41,367.58 368.29,369.62 367.43,370.45" fill="none" stroke="rgb(255, 0, 0)" stroke-width="2.33" stroke-opacity="1.00" stroke-linejoin="round"/>
<path d="M423.61,364.21 C423.04,364.37 422.39,365.06 422.44,367.21 C422.71,374.69 423.46,395.78 423.48,398.18 C423.54,403.58 421.93,416.18 420.71,421.88 C420.10,424.63 418.35,430.74 417.89,432.33" fill="none" stroke="rgb(255, 0, 0)" stroke-width="2.33" stroke-opacity="1.00" stroke-linejoin="round"/>
<path d="M424.00,425.46 C424.00,425.46 422.83,426.37 422.83,426.37 C423.60,428.61 426.45,434.97 427.22,435.55 C427.46,435.72 427.93,435.84 428.64,435.91 C430.19,434.49 432.27,428.47 432.85,425.30 C433.11,423.88 434.11,416.51 434.30,415.16" fill="none" stroke="rgb(255, 0, 0)" stroke-width="2.33" stroke-opacity="1.00" stroke-linejoin="round"/>
<path d="M418.93,445.36 C418.41,445.39 418.02,445.44 417.76,445.53 C417.22,445.71 411.19,448.31 408.46,448.50 C405.75,448.65 401.74,448.17 399.03,447.18 C396.64,446.26 392.52,443.18 390.89,440.72 C388.01,436.28 386.48,428.25 385.70,422.92" fill="none" stroke="rgb(255, 0, 0)" stroke-width="2.33" stroke-opacity="1.00" stroke-linejoin="round"/>
<path d="M393.96,421.95 C393.17,422.79 393.18,425.65 393.61,430.51 C395.14,446.79 396.16,464.92 396.04,487.53 C395.99,491.20 395.92,495.68 395.91,496.50" fill="none" stroke="rgb(255, 0, 0)" stroke-width="2.33" stroke-opacity="1.00" stroke-linejoin="round"/>
<path d="M405.27,441.07 C404.40,444.38 405.10,462.84 405.14,464.77 C405.19,466.87 405.12,474.51 404.99,476.25 C404.91,477.19 404.06,483.11 403.86,484.47" fill="none" stroke="rgb(255, 0, 0)" stroke-width="2.33" stroke-opacity="1.00" stroke-linejoin="round"/>
<path d="M416.20,430.93 C416.20,430.93 416.00,431.12 416.00,431.12 C415.77,432.66 416.04,438.84 416.19,442.50 C416.56,452.87 416.44,465.09 416.12,471.32 C415.95,474.43 414.98,483.57 414.95,483.83 C414.90,484.25 414.79,484.96 414.63,485.94" fill="none" stroke="rgb(255, 0, 0)" stroke-width="2.33" stroke-opacity="1.00" stroke-linejoin="round"/>
<path d="M418.54,458.24 C418.49,459.15 418.52,461.08 418.63,462.54 C418.70,463.47 420.06,473.56 420.44,475.79 C421.00,479.06 422.46,486.14 422.75,487.52" fill="none" stroke="rgb(255, 0, 0)" stroke-width="2.33" stroke-opacity="1.00" stroke-linejoin="round"/>
<path d="M301.88,531.97 C302.21,530.51 307.89,514.06 310.60,506.38 C318.33,485.71 322.63,476.32 323.72,473.97" fill="none" stroke="rgb(255, 0, 0)" stroke-width="2.33" stroke-opacity="1.00" stroke-linejoin="round"/>
<path d="M344.41,450.43 C343.91,450.25 339.83,452.56 338.01,454.26 C334.50,457.64 325.76,470.35 324.29,472.65" fill="none" stroke="rgb(255, 0, 0)" stroke-width="2.33" stroke-opacity="1.00" stroke-linejoin="round"/>
<path d="M257.80,310.37 C257.80,310.37 256.77,309.40 256.77,309.40 C257.43,309.13 261.63,308.20 264.07,306.97 C265.16,306.42 273.60,301.66 276.29,300.37 C280.11,298.64 284.79,296.99 288.33,296.56 C291.90,296.14 299.39,296.57 303.78,297.16 C308.31,297.80 313.56,299.18 315.31,300.65 C317.15,302.29 319.34,307.59 320.20,311.31 C322.10,319.89 326.10,338.38 326.45,341.73 C328.42,359.75 329.20,381.96 330.09,390.71 C330.68,398.27 331.77,412.74 333.04,417.82 C333.42,419.25 333.96,421.03 334.38,421.83 C335.44,423.69 337.35,425.46 339.09,425.90 C341.13,426.38 348.72,426.28 351.82,426.24" fill="none" stroke="rgb(255, 0, 0)" stroke-width="2.33" stroke-opacity="1.00" stroke-linejoin="round"/>
<path d="M376.01,345.09 C374.99,345.09 372.31,345.11 371.67,345.19 C370.22,345.39 359.63,348.61 345.89,351.89 C335.04,354.60 323.21,359.28 319.06,361.58 C314.87,363.94 305.18,371.95 299.97,377.50 C297.30,380.36 291.85,386.60 290.97,387.57 C288.69,390.04 285.99,392.47 284.84,393.50" fill="none" stroke="rgb(255, 0, 0)" stroke-width="2.33" stroke-opacity="1.00" stroke-linejoin="round"/>
<path d="M337.39,329.88 C337.49,328.56 336.37,323.22 335.70,320.92 C333.34,313.00 328.81,304.37 326.49,301.87 C325.27,300.56 321.22,297.68 318.19,296.83 C314.55,295.84 301.56,297.27 297.44,298.54 C295.88,299.04 290.35,301.92 287.10,303.64" fill="none" stroke="rgb(255, 0, 0)" stroke-width="2.33" stroke-opacity="1.00" stroke-linejoin="round"/>
<path d="M363.92,318.17 C363.92,318.17 363.53,318.56 363.53,318.56 C363.53,318.56 363.08,318.51 363.08,318.51 C362.94,318.31 361.73,313.49 359.95,310.49 C358.18,307.58 355.95,304.98 353.41,302.89 C348.20,298.67 339.71,290.43 336.24,287.84 C333.17,285.60 328.56,283.51 323.50,282.04 C312.10,278.90 301.94,276.85 294.97,276.48 C288.49,276.16 278.29,277.55 268.54,279.90 C259.83,282.09 248.95,286.17 245.53,288.55 C245.28,288.73 231.66,299.55 227.94,302.59" fill="none" stroke="rgb(255, 0, 0)" stroke-width="2.33" stroke-opacity="1.00" stroke-linejoin="round"/>
<path d="M303.05,292.81 C303.13,291.93 302.54,290.09 302.29,289.36 C301.31,286.32 299.22,280.15 297.99,278.37 C296.32,276.05 291.59,272.90 287.58,271.20 C283.71,269.61 279.17,269.03 276.56,270.15 C272.30,272.07 261.01,283.28 255.55,289.30 C249.13,296.54 242.08,305.23 238.04,310.46 C233.88,316.04 221.00,336.65 219.17,339.63" fill="none" stroke="rgb(255, 0, 0)" stroke-width="2.33" stroke-opacity="1.00" stroke-linejoin="round"/>
<path d="M278.86,276.04 C278.88,272.76 278.89,265.75 278.61,262.64 C278.36,260.13 276.33,255.42 274.71,254.73 C273.88,254.44 271.80,254.41 270.82,254.79 C268.66,255.69 264.43,259.97 263.88,260.74 C263.17,261.75 254.44,275.41 252.74,278.06" fill="none" stroke="rgb(255, 0, 0)" stroke-width="2.33" stroke-opacity="1.00" stroke-linejoin="round"/>
<path d="M246.87,287.35 C247.01,285.95 247.42,279.40 247.07,278.14 C246.94,277.69 244.64,271.64 243.53,267.92 C242.21,263.55 239.89,259.35 237.92,258.06 C237.03,257.51 235.08,256.93 234.11,256.95 C231.90,257.06 227.58,261.11 225.91,263.52 C223.35,267.29 212.14,295.64 209.48,302.50" fill="none" stroke="rgb(255, 0, 0)" stroke-width="2.33" stroke-opacity="1.00" stroke-linejoin="round"/>
<path d="M192.64,270.97 C191.67,269.70 190.96,269.01 190.20,268.82 C189.35,268.63 187.71,268.78 186.81,269.22 C184.54,270.40 173.08,284.20 170.97,287.64 C168.18,292.26 162.50,306.02 160.48,312.09 C158.64,317.68 156.13,329.36 154.49,338.89 C153.14,347.55 151.83,360.26 151.79,364.21 C151.77,366.25 152.15,375.46 152.41,377.33 C152.57,378.44 154.56,386.64 156.09,390.44" fill="none" stroke="rgb(255, 0, 0)" stroke-width="2.33" stroke-opacity="1.00" stroke-linejoin="round"/>
<path d="M138.02,285.79 C138.02,285.79 137.63,286.05 137.63,286.05 C138.11,284.43 145.60,269.74 148.48,264.36 C151.98,258.11 158.67,247.68 162.22,242.23 C163.25,240.68 164.49,239.42 166.57,237.67 C166.57,237.67 168.75,237.87 168.75,237.87 C170.04,239.79 170.64,241.01 170.85,242.41 C171.54,247.16 170.84,256.70 169.46,265.56 C166.70,281.37 159.95,319.31 159.51,323.87 C158.98,329.54 158.58,343.24 159.04,350.33 C160.17,366.21 160.38,385.64 161.08,389.16 C161.85,392.86 163.59,397.93 165.29,401.35 C166.32,403.36 168.84,406.11 172.00,409.26" fill="none" stroke="rgb(255, 0, 0)" stroke-width="2.33" stroke-opacity="1.00" stroke-linejoin="round"/>
<path d="M177.43,398.15 C177.43,398.15 176.26,397.11 176.26,397.11 C176.39,396.58 181.20,390.84 182.15,389.84 C183.99,387.91 185.55,387.33 187.15,387.68 C188.20,389.32 188.62,392.25 188.93,397.85 C189.23,404.23 187.93,420.66 187.42,424.73 C186.30,432.71 184.10,446.55 183.28,451.60" fill="none" stroke="rgb(255, 0, 0)" stroke-width="2.33" stroke-opacity="1.00" stroke-linejoin="round"/>
<path d="M230.49,340.80 C230.49,340.80 228.44,340.41 228.44,340.41 C228.18,339.57 227.09,334.39 225.54,332.80 C224.28,331.54 218.96,329.34 216.76,328.68 C214.29,327.98 210.16,327.97 207.31,328.89 C205.23,329.60 200.81,332.14 199.09,333.89 C198.16,334.85 182.85,353.83 181.63,355.57 C177.47,361.71 168.31,375.40 165.43,381.10 C152.05,408.06 134.27,432.29 120.35,452.75 C113.82,462.34 108.82,468.98 104.96,472.97 C100.96,477.06 90.85,484.96 86.55,487.26 C82.17,489.57 78.87,491.22 75.26,492.93" fill="none" stroke="rgb(255, 0, 0)" stroke-width="2.33" stroke-opacity="1.00" stroke-linejoin="round"/>
<path d="M204.35,319.34 C204.35,319.34 201.42,320.12 201.42,320.12 C201.20,316.79 218.94,302.56 221.54,301.11 C223.17,300.21 224.45,300.08 225.54,300.46 C226.64,302.56 227.27,307.47 227.50,311.08 C227.98,320.56 227.94,331.22 227.27,338.78 C226.34,348.93 218.85,385.13 217.68,393.86 C216.90,400.56 215.79,412.68 215.52,415.95" fill="none" stroke="rgb(255, 0, 0)" stroke-width="2.33" stroke-opacity="1.00" stroke-linejoin="round"/>
<path d="M215.27,414.54 C214.41,418.24 215.22,426.02 214.04,434.13 C213.42,438.09 212.96,440.30 211.86,444.40 C211.42,446.03 210.67,448.74 210.38,449.82" fill="none" stroke="rgb(255, 0, 0)" stroke-width="2.33" stroke-opacity="1.00" stroke-linejoin="round"/>
<path d="M264.43,418.05 C264.43,418.05 263.65,418.25 263.65,418.25 C263.58,416.23 264.15,395.88 263.01,391.63 C262.50,389.80 259.16,383.02 258.00,381.48 C256.09,379.02 251.57,376.87 248.54,376.84 C245.67,376.85 240.33,377.88 238.02,378.73 C232.83,380.65 225.05,385.72 217.00,392.00 C210.77,396.92 203.46,402.68 202.39,403.51" fill="none" stroke="rgb(255, 0, 0)" stroke-width="2.33" stroke-opacity="1.00" stroke-linejoin="round"/>
<path d="M274.96,304.13 C274.96,304.13 273.84,304.13 273.84,304.13 C275.30,304.39 276.56,304.91 277.03,305.87 C278.16,308.29 278.05,315.20 277.75,317.73 C276.52,327.69 266.72,362.20 265.97,369.15 C265.66,372.16 265.85,376.28 266.32,380.66" fill="none" stroke="rgb(255, 0, 0)" stroke-width="2.33" stroke-opacity="1.00" stroke-linejoin="round"/>
<path d="M295.64,302.18 C295.64,302.18 294.67,301.01 294.67,301.01 C294.67,301.01 294.67,300.42 294.67,300.42 C295.53,300.10 298.81,300.83 300.20,303.24 C301.00,304.69 301.61,309.95 301.38,313.06 C300.99,317.75 297.83,330.14 295.57,336.65 C294.20,340.58 287.35,356.28 284.46,362.70 C282.00,368.30 278.39,379.39 277.13,386.82 C276.47,390.77 276.06,396.60 275.74,402.81" fill="none" stroke="rgb(255, 0, 0)" stroke-width="2.33" stroke-opacity="1.00" stroke-linejoin="round"/>
<path d="M290.96,301.01 C288.74,300.96 287.39,301.26 285.73,302.31 C279.60,306.15 267.19,312.93 263.02,315.59 C257.59,319.08 248.11,326.68 241.72,332.99 C227.77,347.03 219.31,354.99 218.52,355.73" fill="none" stroke="rgb(255, 0, 0)" stroke-width="2.33" stroke-opacity="1.00" stroke-linejoin="round"/>
<path d="M220.34,355.24 C218.63,355.64 217.56,356.16 216.36,357.30 C215.17,358.42 213.48,360.13 212.36,361.27" fill="none" stroke="rgb(255, 0, 0)" stroke-width="2.33" stroke-opacity="1.00" stroke-linejoin="round"/>
<path d="M108.76,346.65 C108.76,346.65 106.81,347.82 106.81,347.82 C109.72,344.17 129.71,311.29 130.49,308.00 C130.53,307.51 123.43,315.67 113.98,325.09 C105.07,334.05 79.55,360.28 74.28,366.94 C71.40,370.60 49.55,400.87 41.66,411.64 C40.59,413.01 34.38,420.57 31.71,423.80 C29.30,426.77 25.53,431.46 24.18,433.18" fill="none" stroke="rgb(255, 0, 0)" stroke-width="2.33" stroke-opacity="1.00" stroke-linejoin="round"/>
<path d="M93.94,304.13 C93.75,304.09 93.49,304.09 93.16,304.13 C92.82,304.17 91.93,304.30 90.49,304.52 C92.84,303.23 103.86,287.98 106.29,285.69 C107.07,284.95 108.20,284.41 109.35,283.98 C109.96,285.77 110.05,287.15 109.58,289.26 C107.92,296.64 104.06,307.82 102.91,310.36 C101.51,313.43 98.82,319.34 97.52,322.17" fill="none" stroke="rgb(255, 0, 0)" stroke-width="2.33" stroke-opacity="1.00" stroke-linejoin="round"/>
<path d="M93.55,329.88 C92.84,330.92 91.55,333.10 90.72,334.76 C87.85,340.44 83.41,352.96 82.49,358.65 C81.96,362.02 80.96,375.74 80.79,384.70 C80.65,408.49 81.33,422.52 82.38,427.09 C82.71,428.51 83.43,430.38 84.57,433.06" fill="none" stroke="rgb(255, 0, 0)" stroke-width="2.33" stroke-opacity="1.00" stroke-linejoin="round"/>
<path d="M127.49,222.20 C127.49,222.20 127.49,221.81 127.49,221.81 C127.49,221.81 126.68,222.56 126.68,222.56 C126.68,222.56 122.75,215.96 122.75,215.96 C121.60,216.85 120.75,221.39 119.39,227.78 C117.49,237.06 108.32,302.71 108.11,309.44 C108.00,313.53 108.51,331.95 108.78,339.74 C108.92,346.24 107.99,360.28 107.43,367.72 C106.57,377.91 105.68,383.60 103.82,392.95 C103.23,395.80 99.59,406.91 99.13,408.30" fill="none" stroke="rgb(255, 0, 0)" stroke-width="2.33" stroke-opacity="1.00" stroke-linejoin="round"/>
<path d="M127.10,386.84 C127.10,386.84 126.71,387.23 126.71,387.23 C126.62,387.18 125.12,373.22 123.87,368.07 C122.71,363.42 119.35,355.99 118.18,354.89 C116.68,353.53 113.57,351.68 111.84,351.14 C110.21,350.68 105.66,352.79 103.03,355.52 C97.85,360.98 87.82,382.16 84.63,389.40 C81.30,397.16 77.75,406.97 76.36,411.12" fill="none" stroke="rgb(255, 0, 0)" stroke-width="2.33" stroke-opacity="1.00" stroke-linejoin="round"/>
<path d="M145.05,400.10 C145.05,400.10 144.85,401.08 144.85,401.08 C144.77,400.50 144.75,400.08 144.78,399.83 C144.80,399.71 144.96,399.21 145.25,398.33 C145.35,398.02 145.41,397.73 145.44,397.46 C145.44,397.43 145.44,397.13 145.44,396.58 C145.42,395.60 145.49,386.22 145.07,384.15 C144.98,383.74 144.42,383.72 143.91,383.60 C141.79,384.84 137.15,393.28 131.65,404.64 C129.68,408.78 126.32,415.85 124.93,418.78" fill="none" stroke="rgb(255, 0, 0)" stroke-width="2.33" stroke-opacity="1.00" stroke-linejoin="round"/>
<path d="M143.87,409.86 C143.87,409.86 142.90,409.86 142.90,409.86 C142.65,410.13 142.62,398.93 141.84,388.12 C141.49,383.29 137.41,363.60 137.08,362.36 C136.76,361.17 134.05,354.82 132.90,353.59 C131.70,352.35 128.87,351.37 127.62,351.70 C126.09,352.18 124.06,355.48 123.28,358.11 C122.54,360.68 121.16,365.86 120.76,367.36" fill="none" stroke="rgb(255, 0, 0)" stroke-width="2.33" stroke-opacity="1.00" stroke-linejoin="round"/>
<path d="M123.98,403.23 C126.16,407.63 127.85,410.59 129.39,412.65 C130.13,413.56 132.59,415.18 134.10,415.47 C137.11,416.00 140.95,414.35 143.89,412.97" fill="none" stroke="rgb(255, 0, 0)" stroke-width="2.33" stroke-opacity="1.00" stroke-linejoin="round"/>
<path d="M121.64,362.26 C121.16,362.73 119.84,364.04 119.72,364.78 C118.84,370.03 118.23,385.14 119.19,389.68 C119.64,391.71 122.19,399.65 123.29,402.16 C124.03,403.83 127.55,409.17 129.26,411.74" fill="none" stroke="rgb(255, 0, 0)" stroke-width="2.33" stroke-opacity="1.00" stroke-linejoin="round"/>
<path d="M142.31,404.79 C141.67,406.18 140.68,411.54 141.08,414.99 C141.30,416.80 143.91,432.32 144.09,437.00 C144.22,440.49 144.32,466.10 144.38,467.74 C144.53,471.53 145.67,478.21 145.92,480.77 C146.30,484.80 146.16,491.12 144.82,494.89 C144.53,495.69 142.73,500.40 142.10,502.06" fill="none" stroke="rgb(255, 0, 0)" stroke-width="2.33" stroke-opacity="1.00" stroke-linejoin="round"/>
<path d="M147.39,462.14 C146.66,463.29 144.65,467.36 142.13,471.35 C139.92,474.75 137.31,478.62 136.27,480.57 C135.31,482.39 126.87,500.47 124.60,503.12 C121.56,506.62 118.98,509.22 115.65,510.99 C113.72,511.98 108.39,513.08 105.88,512.87 C103.67,512.66 90.36,507.94 84.57,505.83" fill="none" stroke="rgb(255, 0, 0)" stroke-width="2.33" stroke-opacity="1.00" stroke-linejoin="round"/>
<path d="M126.71,473.84 C125.96,473.62 125.51,473.49 125.34,473.45 C125.18,473.41 125.08,473.41 125.05,473.45 C128.63,473.45 131.06,473.75 132.24,474.95 C133.58,476.37 134.85,480.45 136.04,485.45 C137.99,493.90 147.32,524.12 151.27,539.43 C152.94,546.27 156.11,559.20 157.62,565.29" fill="none" stroke="rgb(255, 0, 0)" stroke-width="2.33" stroke-opacity="1.00" stroke-linejoin="round"/>
<path d="M134.90,489.45 C134.89,492.84 135.44,496.84 135.85,499.64 C136.48,505.45 136.07,516.60 135.19,521.51 C134.65,524.48 133.18,529.94 132.10,532.98 C130.95,536.16 129.09,539.95 127.01,543.66" fill="none" stroke="rgb(255, 0, 0)" stroke-width="2.33" stroke-opacity="1.00" stroke-linejoin="round"/>
<path d="M164.16,399.71 C164.33,400.40 164.86,410.98 165.77,415.30 C166.94,420.78 170.74,430.92 173.87,435.95 C175.29,438.21 178.55,442.39 180.29,444.07 C182.44,446.14 185.14,448.27 187.07,449.71" fill="none" stroke="rgb(255, 0, 0)" stroke-width="2.33" stroke-opacity="1.00" stroke-linejoin="round"/>
<path d="M170.01,435.22 C170.00,437.26 170.00,438.55 170.01,439.09 C170.04,440.02 171.69,452.47 171.82,459.21 C171.89,462.33 168.63,482.20 168.38,484.98 C167.93,490.10 169.41,503.10 171.21,508.35 C172.11,510.88 174.38,515.19 176.42,516.15 C178.02,515.65 179.31,514.42 180.79,511.82 C181.15,511.19 184.30,505.28 184.84,504.27" fill="none" stroke="rgb(255, 0, 0)" stroke-width="2.33" stroke-opacity="1.00" stroke-linejoin="round"/>
<path d="M210.20,340.80 C208.80,341.53 204.77,344.42 203.22,346.00 C200.32,348.96 192.21,360.57 188.38,366.35 C176.45,384.87 171.18,392.44 169.11,395.40" fill="none" stroke="rgb(255, 0, 0)" stroke-width="2.33" stroke-opacity="1.00" stroke-linejoin="round"/>
<path d="M83.01,309.98 C83.01,309.98 81.65,309.98 81.65,309.98 C81.65,309.98 80.96,302.49 80.96,302.49 C79.48,303.68 78.81,304.47 78.63,305.57 C77.78,310.69 76.81,327.46 77.01,332.71 C77.12,335.20 79.26,352.29 79.85,356.71" fill="none" stroke="rgb(255, 0, 0)" stroke-width="2.33" stroke-opacity="1.00" stroke-linejoin="round"/>
<path d="M83.40,363.04 C83.40,363.04 81.45,362.65 81.45,362.65 C80.88,362.13 77.58,346.04 75.24,340.45 C73.92,337.36 70.51,332.36 68.88,330.94 C68.10,330.30 65.60,329.09 64.30,328.79 C61.57,328.23 56.72,331.27 54.63,333.43 C51.56,336.70 46.52,346.75 44.34,351.99 C41.12,360.04 35.09,375.27 32.28,382.45" fill="none" stroke="rgb(255, 0, 0)" stroke-width="2.33" stroke-opacity="1.00" stroke-linejoin="round"/>
<path d="M53.75,246.78 C53.75,246.78 53.05,246.78 53.05,246.78 C52.39,247.41 50.75,254.91 50.36,257.13 C49.22,263.73 47.79,272.09 45.64,286.40 C44.12,297.10 43.93,308.39 43.80,315.70 C43.53,336.85 44.34,355.87 45.79,375.67 C45.84,376.40 45.89,377.13 45.95,377.87" fill="none" stroke="rgb(255, 0, 0)" stroke-width="2.33" stroke-opacity="1.00" stroke-linejoin="round"/>
<path d="M54.53,387.23 C53.79,385.74 53.73,383.79 53.75,377.91 C53.77,369.35 53.00,357.67 51.65,353.18 C49.28,352.60 46.78,352.65 46.05,353.78 C45.77,354.22 41.07,372.66 39.26,379.59 C38.30,383.25 37.03,388.05 36.74,389.18" fill="none" stroke="rgb(255, 0, 0)" stroke-width="2.33" stroke-opacity="1.00" stroke-linejoin="round"/>
<path d="M47.90,320.12 C47.90,320.12 47.51,322.08 47.51,322.08 C47.08,318.06 46.03,313.19 44.95,310.08 C43.80,306.83 41.17,301.67 38.70,299.53 C38.70,299.53 37.32,299.62 37.32,299.62 C34.83,301.91 30.19,315.21 28.82,322.13 C27.84,327.19 26.06,342.61 26.00,349.52 C25.97,355.59 27.25,378.17 27.70,380.34 C28.18,382.61 32.94,398.18 34.42,402.89" fill="none" stroke="rgb(255, 0, 0)" stroke-width="2.33" stroke-opacity="1.00" stroke-linejoin="round"/>
<path d="M45.17,368.89 C45.17,369.09 45.17,369.61 45.17,369.93 C45.20,375.21 45.71,385.37 45.28,391.77 C44.60,399.68 43.23,415.51 42.55,423.42 C41.88,432.48 39.61,441.77 39.21,443.49" fill="none" stroke="rgb(255, 0, 0)" stroke-width="2.33" stroke-opacity="1.00" stroke-linejoin="round"/>
<path d="M52.97,380.21 C52.95,382.95 53.32,389.61 53.61,391.64 C53.87,393.39 54.50,396.63 55.55,400.98 C56.59,405.37 56.91,409.16 56.75,413.02 C56.35,421.93 56.65,430.92 57.58,438.48 C58.20,443.16 60.84,452.66 62.98,455.96 C64.00,457.50 68.28,462.59 69.59,464.14" fill="none" stroke="rgb(255, 0, 0)" stroke-width="2.33" stroke-opacity="1.00" stroke-linejoin="round"/>
<path d="M77.94,409.47 C76.49,411.37 75.99,412.15 76.05,412.67 C76.39,415.51 76.41,427.05 75.91,435.83 C75.25,446.92 75.22,452.59 75.89,462.56 C76.16,466.18 76.75,474.49 76.80,475.99 C76.87,478.50 76.14,489.96 76.05,491.59" fill="none" stroke="rgb(255, 0, 0)" stroke-width="2.33" stroke-opacity="1.00" stroke-linejoin="round"/>
<path d="M76.38,464.87 C76.03,466.10 75.90,468.25 76.20,469.72 C76.32,470.31 78.74,475.81 79.51,479.10 C80.44,483.11 83.02,501.73 83.27,505.37 C83.46,508.43 83.44,513.60 83.25,518.65" fill="none" stroke="rgb(255, 0, 0)" stroke-width="2.33" stroke-opacity="1.00" stroke-linejoin="round"/>
<path d="M79.89,423.90 C79.89,423.90 77.94,423.51 77.94,423.51 C76.98,425.52 77.64,430.72 78.16,432.79 C79.23,436.96 83.60,445.53 86.24,448.85 C87.93,450.92 92.22,454.00 95.44,454.02 C97.03,454.01 100.99,453.17 102.69,452.57 C103.52,452.26 108.29,449.86 109.43,449.25" fill="none" stroke="rgb(255, 0, 0)" stroke-width="2.33" stroke-opacity="1.00" stroke-linejoin="round"/>
<path d="M130.61,400.49 C130.61,400.49 130.61,399.52 130.61,399.52 C130.15,399.23 129.61,398.85 129.20,398.97 C128.11,399.30 113.21,405.52 107.44,409.90 C104.67,412.03 101.77,415.30 100.24,418.19 C98.83,420.93 95.23,437.39 93.42,445.12 C91.69,451.78 87.15,468.42 85.88,472.22 C83.80,478.31 80.43,483.21 75.65,489.71" fill="none" stroke="rgb(255, 0, 0)" stroke-width="2.33" stroke-opacity="1.00" stroke-linejoin="round"/>
<path d="M87.69,387.62 C87.69,387.62 87.69,387.23 87.69,387.23 C88.50,390.90 89.44,396.03 90.17,400.78 C92.35,416.28 94.03,442.30 95.63,451.69 C96.75,457.74 99.20,469.59 101.36,473.62 C102.12,474.99 103.28,476.67 103.94,477.20 C104.53,477.67 106.41,477.93 109.57,478.17" fill="none" stroke="rgb(255, 0, 0)" stroke-width="2.33" stroke-opacity="1.00" stroke-linejoin="round"/>
<path d="M77.16,491.40 C77.16,491.40 76.18,491.40 76.18,491.40 C76.18,491.40 75.60,491.93 75.60,491.93 C75.71,493.64 74.27,498.06 72.06,501.12 C71.20,502.28 65.27,509.16 62.95,511.65 C59.91,514.87 55.27,518.63 53.38,519.39 C51.68,520.04 46.50,520.72 44.67,520.99" fill="none" stroke="rgb(255, 0, 0)" stroke-width="2.33" stroke-opacity="1.00" stroke-linejoin="round"/>
<path d="M58.82,523.00 C58.82,523.00 58.24,523.00 58.24,523.00 C58.24,523.00 58.10,523.39 58.10,523.39 C58.55,523.50 63.36,524.44 66.26,525.76 C71.05,527.97 82.73,536.83 88.68,541.19 C93.88,544.86 103.32,551.11 109.61,554.95 C113.06,557.02 117.60,559.73 118.68,560.38" fill="none" stroke="rgb(255, 0, 0)" stroke-width="2.33" stroke-opacity="1.00" stroke-linejoin="round"/>
<path d="M360.01,306.86 C360.01,306.86 358.36,306.08 358.36,306.08 C357.27,306.87 355.00,314.21 354.33,317.62 C352.30,328.19 351.50,350.05 351.41,352.83" fill="none" stroke="rgb(255, 0, 0)" stroke-width="2.33" stroke-opacity="1.00" stroke-linejoin="round"/>
<path d="M460.28,385.28 C460.28,385.28 459.89,384.89 459.89,384.89 C460.40,384.96 461.82,389.15 462.12,392.45 C462.58,398.12 461.15,411.33 459.67,418.83 C458.91,422.55 453.88,440.59 451.76,447.99 C449.87,454.38 447.24,463.43 446.50,466.10" fill="none" stroke="rgb(255, 0, 0)" stroke-width="2.33" stroke-opacity="1.00" stroke-linejoin="round"/>
<path d="M383.03,388.79 C383.03,388.79 382.84,388.79 382.84,388.79 C382.05,391.73 385.00,417.95 385.96,425.56 C387.21,433.68 389.07,444.09 389.54,446.66" fill="none" stroke="rgb(255, 0, 0)" stroke-width="2.33" stroke-opacity="1.00" stroke-linejoin="round"/>
<path d="M368.99,400.88 C367.67,401.76 366.26,404.77 366.38,407.77 C366.46,409.35 368.37,413.79 369.92,415.92 C371.57,418.15 375.79,421.55 377.19,421.64 C379.19,421.71 383.58,419.45 384.94,418.76" fill="none" stroke="rgb(255, 0, 0)" stroke-width="2.33" stroke-opacity="1.00" stroke-linejoin="round"/>
<path d="M401.37,377.09 C400.44,377.29 398.62,377.99 397.27,378.76 C393.79,380.76 383.43,389.59 380.13,393.74 C373.00,402.74 364.43,419.18 363.80,420.42" fill="none" stroke="rgb(255, 0, 0)" stroke-width="2.33" stroke-opacity="1.00" stroke-linejoin="round"/>
</g>
</svg>
