<?xml version="1.0" encoding="UTF-8" standalone="no"?>
<!DOCTYPE svg PUBLIC "-//W3C//DTD SVG 1.1//EN" "http://www.w3.org/Graphics/SVG/1.1/DTD/svg11.dtd">
<svg width="64.20" height="90.84" viewBox="0.00 0.00 535.00 757.00" xmlns="http://www.w3.org/2000/svg" xmlns:xlink="http://www.w3.org/1999/xlink">
<g stroke-linecap="round" id="14">
<path d="M265.94,361.56 C265.70,360.76 265.36,359.96 265.03,359.59 C264.59,359.11 260.73,357.96 256.55,358.01 C254.70,358.06 248.57,359.26 245.60,360.71 C242.25,362.38 234.19,370.06 230.77,375.06 C225.60,382.74 219.90,396.40 219.64,397.04 C219.64,397.04 220.56,397.97 220.56,397.97" fill="none" stroke="rgb(255, 90, 0)" stroke-width="2.59" stroke-opacity="1.00" stroke-linejoin="round"/>
<path d="M263.38,348.99 C263.38,348.99 263.38,348.65 263.38,348.65 C263.13,348.48 262.94,348.38 262.79,348.33 C261.27,347.95 256.01,348.79 251.53,350.68 C247.70,352.34 238.94,358.35 235.80,361.11 C231.85,364.61 222.70,376.08 220.10,379.83 C213.58,389.32 208.46,404.68 208.62,405.17 C208.75,405.32 211.55,403.37 216.48,400.03 C216.98,399.70 217.48,399.37 217.98,399.04 C217.23,398.84 213.45,401.04 212.19,402.69 C210.86,404.49 210.93,408.05 212.22,409.22 C213.21,410.05 216.06,410.22 219.35,409.81 C219.80,409.75 222.37,408.58 222.76,408.59 C222.15,409.75 221.53,410.69 220.55,411.89 C219.50,413.18 218.60,414.39 218.29,415.02 C217.64,416.37 218.47,417.97 218.83,418.31 C218.83,418.31 221.61,418.30 221.61,418.30" fill="none" stroke="rgb(255, 90, 0)" stroke-width="2.59" stroke-opacity="1.00" stroke-linejoin="round"/>
<path d="M210.30,413.36 C210.30,413.36 209.08,413.36 209.08,413.36 C208.57,413.74 208.08,417.74 208.59,419.81 C208.86,420.83 209.77,422.54 210.28,423.07 C210.57,423.35 212.01,423.90 212.85,424.20" fill="none" stroke="rgb(255, 90, 0)" stroke-width="2.59" stroke-opacity="1.00" stroke-linejoin="round"/>
<path d="M219.79,418.49 C219.79,418.49 219.27,418.49 219.27,418.49 C219.54,420.67 226.50,427.23 228.69,428.14 C230.02,428.66 235.30,428.95 237.73,428.59 C242.99,427.57 251.66,426.00 257.46,423.88 C258.13,425.32 259.07,427.34 259.16,427.39 C259.17,427.40 259.36,427.50 259.73,427.69" fill="none" stroke="rgb(255, 90, 0)" stroke-width="2.59" stroke-opacity="1.00" stroke-linejoin="round"/>
<path d="M266.71,353.10 C267.07,353.03 272.52,351.38 277.12,351.11 C281.82,350.86 291.85,351.80 296.34,353.40 C301.37,355.21 307.41,358.05 307.72,358.28 C307.72,358.28 307.13,359.38 307.13,359.38" fill="none" stroke="rgb(255, 90, 0)" stroke-width="2.59" stroke-opacity="1.00" stroke-linejoin="round"/>
<path d="M272.36,356.43 C274.53,355.49 279.55,354.22 281.95,354.02 C287.51,353.64 290.36,355.66 290.63,355.94 C290.63,355.94 289.21,357.03 289.21,357.03" fill="none" stroke="rgb(255, 90, 0)" stroke-width="2.59" stroke-opacity="1.00" stroke-linejoin="round"/>
<path d="M271.33,361.81 C273.44,361.26 274.96,360.96 277.66,360.61 C287.98,359.30 299.83,359.33 302.34,359.54 C307.58,360.00 312.30,361.60 314.50,363.00 C314.50,363.00 313.92,363.10 313.92,363.10" fill="none" stroke="rgb(255, 90, 0)" stroke-width="2.59" stroke-opacity="1.00" stroke-linejoin="round"/>
<path d="M303.90,353.61 C303.90,353.61 304.22,352.71 304.22,352.71 C305.39,352.51 307.95,353.96 309.94,356.19 C314.41,361.31 317.47,369.77 317.68,371.42 C317.68,371.42 310.32,367.63 310.32,367.63 C310.37,369.40 310.78,370.52 311.75,370.98 C312.96,371.55 316.13,371.15 316.51,371.39 C316.51,371.39 313.18,376.81 313.18,376.81 C313.62,377.13 315.62,378.28 316.20,379.85 C316.76,381.41 316.96,384.06 317.00,384.58 C317.02,384.85 317.08,385.33 317.17,386.02" fill="none" stroke="rgb(255, 90, 0)" stroke-width="2.59" stroke-opacity="1.00" stroke-linejoin="round"/>
<path d="M310.05,375.66 C310.04,375.73 310.10,376.65 310.15,377.38 C310.44,385.06 309.12,392.23 307.20,398.38 C306.65,400.09 304.78,403.46 301.22,409.35 C297.17,416.03 292.89,419.51 289.71,421.70 C287.85,422.91 285.93,423.03 283.13,423.10" fill="none" stroke="rgb(255, 90, 0)" stroke-width="2.59" stroke-opacity="1.00" stroke-linejoin="round"/>
<path d="M239.02,393.87 C239.02,393.87 238.89,393.87 238.89,393.87 C238.75,393.00 243.65,390.05 247.27,388.76 C251.19,387.38 257.29,385.76 258.24,385.65 C258.24,385.65 258.05,385.05 258.05,385.05" fill="none" stroke="rgb(255, 90, 0)" stroke-width="2.59" stroke-opacity="1.00" stroke-linejoin="round"/>
<path d="M257.23,359.25 C255.73,359.68 250.83,363.99 248.81,366.33 C244.82,371.06 240.62,379.19 240.12,380.18 C240.12,380.18 240.74,379.41 240.74,379.41" fill="none" stroke="rgb(255, 90, 0)" stroke-width="2.59" stroke-opacity="1.00" stroke-linejoin="round"/>
<path d="M280.95,379.51 C280.95,379.51 279.54,379.77 279.54,379.77" fill="none" stroke="rgb(255, 90, 0)" stroke-width="2.59" stroke-opacity="1.00" stroke-linejoin="round"/>
<path d="M271.59,379.77 C271.59,379.77 270.82,379.77 270.82,379.77 C270.92,379.31 273.88,377.37 277.54,376.29 C281.18,375.25 284.45,374.98 286.92,374.89 C286.92,374.89 286.24,375.26 286.24,375.26" fill="none" stroke="rgb(255, 90, 0)" stroke-width="2.59" stroke-opacity="1.00" stroke-linejoin="round"/>
<path d="M265.69,392.59 C263.72,392.55 262.50,392.66 261.88,393.10 C260.36,394.23 258.52,397.38 258.22,399.25 C257.97,401.13 258.96,402.81 260.86,403.13 C262.98,403.44 267.43,402.76 269.19,401.57 C270.77,400.46 272.97,397.12 272.97,396.00 C272.93,394.95 270.19,393.06 267.57,392.89 C266.98,392.85 265.82,392.91 264.09,393.06" fill="none" stroke="rgb(255, 90, 0)" stroke-width="2.59" stroke-opacity="1.00" stroke-linejoin="round"/>
<path d="M266.46,394.90 C266.71,395.65 268.35,398.23 268.47,398.93 C268.58,399.78 267.72,400.54 267.33,400.65 C267.18,400.68 266.84,400.73 266.31,400.79" fill="none" stroke="rgb(255, 90, 0)" stroke-width="2.59" stroke-opacity="1.00" stroke-linejoin="round"/>
<path d="M256.97,415.67 C257.23,415.88 255.20,416.17 254.53,415.51 C253.97,415.00 252.65,414.89 251.21,414.81 C251.21,414.81 251.25,414.41 251.25,414.41 C251.25,414.41 290.24,397.98 290.24,397.98 C290.24,397.98 289.32,398.75 289.32,398.75" fill="none" stroke="rgb(255, 90, 0)" stroke-width="2.59" stroke-opacity="1.00" stroke-linejoin="round"/>
<path d="M262.10,413.36 C261.98,412.95 262.45,412.51 264.43,411.37 C269.05,408.71 272.32,407.14 276.06,405.90 C285.33,402.89 288.00,402.13 289.24,401.82 C289.24,401.82 288.71,402.01 288.71,402.01" fill="none" stroke="rgb(255, 90, 0)" stroke-width="2.59" stroke-opacity="1.00" stroke-linejoin="round"/>
<path d="M261.59,427.98 C261.59,427.98 261.59,427.85 261.59,427.85 C262.00,427.88 262.27,427.95 262.42,428.06 C262.43,428.07 264.96,437.01 266.16,437.83 C267.61,438.77 271.44,438.80 272.79,437.65 C275.08,435.61 277.61,429.34 277.55,428.49 C277.55,428.49 275.92,428.99 275.92,428.99" fill="none" stroke="rgb(255, 90, 0)" stroke-width="2.59" stroke-opacity="1.00" stroke-linejoin="round"/>
<path d="M259.79,428.49 C259.83,428.44 259.70,428.57 259.66,428.62 C258.37,429.98 254.38,435.12 252.12,438.03 C245.42,447.42 227.47,472.48 225.60,475.01 C225.06,475.74 222.00,479.99 220.99,483.01 C219.89,486.39 219.95,489.49 220.16,489.73 C220.82,490.16 223.31,489.38 225.92,487.26 C227.15,486.26 231.18,481.81 232.43,480.60 C232.68,481.00 229.56,487.81 229.10,488.88 C227.68,492.22 227.58,493.65 227.73,494.48 C229.03,495.89 236.00,488.82 236.11,488.81 C237.75,489.78 238.64,492.78 238.98,494.26 C240.43,494.70 241.00,494.77 241.63,494.36 C244.31,492.53 247.03,488.94 249.13,484.47 C252.73,476.82 259.76,464.85 260.72,462.41 C261.97,459.17 265.09,450.59 265.37,450.33 C265.37,450.33 265.18,450.54 265.18,450.54" fill="none" stroke="rgb(255, 90, 0)" stroke-width="2.59" stroke-opacity="1.00" stroke-linejoin="round"/>
<path d="M266.97,455.41 C266.97,455.41 266.84,455.41 266.84,455.41 C266.64,455.62 266.48,456.02 266.46,456.71 C266.31,461.29 268.86,474.36 269.51,489.79 C269.66,492.65 271.70,502.23 272.60,504.38 C272.60,504.38 272.10,504.91 272.10,504.91" fill="none" stroke="rgb(255, 90, 0)" stroke-width="2.59" stroke-opacity="1.00" stroke-linejoin="round"/>
<path d="M268.25,506.70 C270.86,504.80 277.18,501.73 280.46,499.40 C286.43,495.16 294.41,491.60 297.95,489.70 C297.95,489.70 298.04,489.35 298.04,489.35" fill="none" stroke="rgb(255, 90, 0)" stroke-width="2.59" stroke-opacity="1.00" stroke-linejoin="round"/>
<path d="M282.10,441.05 C282.10,441.05 282.36,441.05 282.36,441.05 C283.86,441.24 287.08,443.60 289.43,445.34 C289.99,445.75 304.65,458.99 305.86,460.44 C307.90,462.94 310.44,468.82 310.59,469.27 C310.59,469.27 309.93,469.32 309.93,469.32" fill="none" stroke="rgb(255, 90, 0)" stroke-width="2.59" stroke-opacity="1.00" stroke-linejoin="round"/>
<path d="M289.54,454.13 C289.54,454.13 289.41,454.13 289.41,454.13 C289.01,453.87 289.60,457.35 291.13,463.29 C292.26,467.82 295.75,485.93 295.92,487.08 C295.92,487.08 296.37,487.23 296.37,487.23" fill="none" stroke="rgb(255, 90, 0)" stroke-width="2.59" stroke-opacity="1.00" stroke-linejoin="round"/>
<path d="M300.05,419.51 C302.34,425.01 309.60,441.06 310.09,442.02 C310.94,443.66 318.35,455.06 320.93,458.09 C320.93,458.09 321.29,458.00 321.29,458.00" fill="none" stroke="rgb(255, 90, 0)" stroke-width="2.59" stroke-opacity="1.00" stroke-linejoin="round"/>
<path d="M273.12,506.96 C273.42,506.13 273.59,505.62 273.64,505.42 C273.68,505.22 273.65,505.05 273.56,504.91 C273.09,504.95 268.46,521.38 267.58,526.13 C267.08,528.87 265.17,546.57 264.21,550.58 C263.54,553.38 262.81,558.68 262.91,561.57 C262.91,561.57 263.80,559.95 263.80,559.95" fill="none" stroke="rgb(255, 90, 0)" stroke-width="2.59" stroke-opacity="1.00" stroke-linejoin="round"/>
<path d="M282.10,521.58 C282.10,521.58 281.12,521.64 281.12,521.64 C279.23,524.10 277.73,549.39 277.75,560.76 C277.75,560.76 279.33,559.23 279.33,559.23" fill="none" stroke="rgb(255, 90, 0)" stroke-width="2.59" stroke-opacity="1.00" stroke-linejoin="round"/>
<path d="M283.38,555.43 C283.49,555.30 284.13,554.47 284.61,554.15 C287.97,551.89 299.42,548.24 299.30,548.43 C299.30,548.43 295.69,550.55 295.69,550.55" fill="none" stroke="rgb(255, 90, 0)" stroke-width="2.59" stroke-opacity="1.00" stroke-linejoin="round"/>
<path d="M272.36,564.91 C272.48,564.95 272.60,564.95 272.70,564.91 C274.42,564.29 281.04,563.15 281.64,563.02 C284.04,562.46 288.62,560.27 291.12,558.45 C295.22,555.25 300.19,551.42 300.24,551.37 C300.35,551.26 300.55,551.01 300.83,550.63" fill="none" stroke="rgb(255, 90, 0)" stroke-width="2.59" stroke-opacity="1.00" stroke-linejoin="round"/>
<path d="M282.61,522.60 C282.61,522.60 282.36,522.60 282.36,522.60 C282.36,522.60 282.36,522.72 282.36,522.72 C284.93,524.22 288.21,526.82 290.35,529.92 C294.95,536.67 298.72,546.38 299.26,547.58 C299.26,547.58 299.28,546.20 299.28,546.20" fill="none" stroke="rgb(255, 90, 0)" stroke-width="2.59" stroke-opacity="1.00" stroke-linejoin="round"/>
<path d="M297.49,487.98 C297.36,489.09 297.96,493.35 299.32,499.45 C299.79,501.43 304.60,514.03 305.42,519.11 C305.66,520.59 306.49,528.07 307.11,530.77 C309.05,539.01 310.16,541.12 310.29,541.29 C310.29,541.29 309.03,540.81 309.03,540.81" fill="none" stroke="rgb(255, 90, 0)" stroke-width="2.59" stroke-opacity="1.00" stroke-linejoin="round"/>
<path d="M302.87,542.86 C302.87,542.86 302.36,542.73 302.36,542.73 C302.46,542.50 302.92,542.16 303.65,541.88 C305.38,541.22 307.15,541.08 308.26,541.06 C308.26,541.06 308.00,543.89 308.00,543.89" fill="none" stroke="rgb(255, 90, 0)" stroke-width="2.59" stroke-opacity="1.00" stroke-linejoin="round"/>
<path d="M302.87,546.96 C302.87,546.96 302.10,547.22 302.10,547.22 C302.51,546.65 303.12,546.06 303.95,545.67 C305.15,545.11 307.19,544.41 308.26,544.14" fill="none" stroke="rgb(255, 90, 0)" stroke-width="2.59" stroke-opacity="1.00" stroke-linejoin="round"/>
<path d="M309.80,549.01 C309.43,549.01 309.07,549.01 308.71,549.01 C308.47,549.01 308.24,549.01 308.00,549.01 C308.00,549.01 316.42,546.48 316.42,546.48 C316.42,546.48 316.25,546.03 316.25,546.03" fill="none" stroke="rgb(255, 90, 0)" stroke-width="2.59" stroke-opacity="1.00" stroke-linejoin="round"/>
<path d="M29.96,305.12 C29.96,305.12 29.09,303.84 29.09,303.84 C29.09,303.84 29.94,335.76 29.94,335.76 C29.94,335.76 30.58,334.64 30.58,334.64" fill="none" stroke="rgb(57, 77, 239)" stroke-width="2.59" stroke-opacity="1.00" stroke-linejoin="round"/>
<path d="M54.22,302.96 C54.22,303.61 54.22,305.88 54.22,307.51 C54.20,316.59 54.66,322.24 55.57,326.61 C55.57,326.61 56.38,325.64 56.38,325.64" fill="none" stroke="rgb(57, 77, 239)" stroke-width="2.59" stroke-opacity="1.00" stroke-linejoin="round"/>
<path d="M77.17,306.42 C76.98,309.21 75.62,316.52 75.45,317.27 C75.34,317.76 75.07,318.86 74.65,320.57 C74.65,320.57 74.84,319.31 74.84,319.31" fill="none" stroke="rgb(57, 77, 239)" stroke-width="2.59" stroke-opacity="1.00" stroke-linejoin="round"/>
<path d="M89.30,241.45 C89.30,241.45 88.44,239.29 88.44,239.29 C88.44,239.29 84.97,272.35 84.97,272.35 C84.97,272.35 86.27,264.41 86.27,264.41" fill="none" stroke="rgb(57, 77, 239)" stroke-width="2.59" stroke-opacity="1.00" stroke-linejoin="round"/>
<path d="M91.47,243.18 C91.47,243.11 91.47,243.04 91.47,242.97 C91.47,242.94 91.47,242.91 91.47,242.87 C90.85,246.17 89.59,262.58 89.03,270.54 C88.79,275.22 88.84,282.00 88.89,282.26 C88.95,282.51 89.14,282.78 89.46,283.06" fill="none" stroke="rgb(57, 77, 239)" stroke-width="2.59" stroke-opacity="1.00" stroke-linejoin="round"/>
<path d="M134.35,239.72 C134.35,239.72 133.70,239.29 133.70,239.29 C133.31,240.46 131.11,255.94 130.06,263.50 C129.07,270.74 126.91,284.91 126.88,285.25 C126.86,285.57 126.87,286.22 126.90,287.21" fill="none" stroke="rgb(57, 77, 239)" stroke-width="2.59" stroke-opacity="1.00" stroke-linejoin="round"/>
<path d="M117.02,298.19 C116.77,298.31 115.96,302.71 115.80,306.86 C115.73,308.69 115.66,318.70 116.00,321.97 C116.05,322.45 116.14,323.10 116.27,323.95 C116.27,323.95 116.59,322.02 116.59,322.02" fill="none" stroke="rgb(57, 77, 239)" stroke-width="2.59" stroke-opacity="1.00" stroke-linejoin="round"/>
<path d="M124.39,295.16 C124.31,297.58 124.20,298.97 123.83,301.76 C122.91,308.70 122.24,326.16 122.27,328.83 C122.33,332.54 123.18,337.47 123.84,338.81 C123.84,338.81 124.04,338.77 124.04,338.77" fill="none" stroke="rgb(57, 77, 239)" stroke-width="2.59" stroke-opacity="1.00" stroke-linejoin="round"/>
<path d="M99.26,323.32 C98.56,326.82 95.00,342.31 93.49,349.53 C92.67,353.63 92.29,357.53 92.33,360.24 C92.34,360.44 92.34,360.69 92.33,361.00" fill="none" stroke="rgb(57, 77, 239)" stroke-width="2.59" stroke-opacity="1.00" stroke-linejoin="round"/>
<path d="M105.33,331.55 C104.25,333.82 102.72,337.43 101.65,342.18 C101.19,344.25 96.93,366.61 97.54,367.49 C97.54,367.49 98.73,366.76 98.73,366.76" fill="none" stroke="rgb(57, 77, 239)" stroke-width="2.59" stroke-opacity="1.00" stroke-linejoin="round"/>
<path d="M134.78,304.69 C133.91,305.78 133.42,307.05 133.27,309.06 C133.22,309.76 133.01,315.04 133.05,315.56 C133.08,315.97 133.22,316.51 133.44,317.20" fill="none" stroke="rgb(57, 77, 239)" stroke-width="2.59" stroke-opacity="1.00" stroke-linejoin="round"/>
<path d="M164.24,260.08 C164.24,260.40 164.24,262.50 164.24,264.26 C164.17,272.90 165.45,289.51 165.30,290.39 C165.30,290.39 165.10,290.40 165.10,290.40" fill="none" stroke="rgb(57, 77, 239)" stroke-width="2.59" stroke-opacity="1.00" stroke-linejoin="round"/>
<path d="M167.70,273.50 C167.70,274.61 167.70,275.71 167.70,276.81 C167.67,287.90 168.20,291.33 168.49,292.11 C168.55,292.29 168.77,292.81 169.12,293.68" fill="none" stroke="rgb(57, 77, 239)" stroke-width="2.59" stroke-opacity="1.00" stroke-linejoin="round"/>
<path d="M181.13,298.19 C179.22,299.43 178.65,312.15 178.53,324.41 C178.53,328.53 178.26,331.44 177.66,336.27 C177.66,336.27 178.10,335.45 178.10,335.45" fill="none" stroke="rgb(57, 77, 239)" stroke-width="2.59" stroke-opacity="1.00" stroke-linejoin="round"/>
<path d="M182.43,349.74 C182.43,349.74 181.35,349.74 181.35,349.74 C181.35,349.74 181.77,348.81 181.77,348.81" fill="none" stroke="rgb(57, 77, 239)" stroke-width="2.59" stroke-opacity="1.00" stroke-linejoin="round"/>
<path d="M211.45,251.85 C210.29,258.27 209.06,269.54 208.75,277.56 C208.62,281.78 208.41,289.02 208.42,291.60 C208.42,291.64 208.42,291.73 208.42,291.70" fill="none" stroke="rgb(57, 77, 239)" stroke-width="2.59" stroke-opacity="1.00" stroke-linejoin="round"/>
<path d="M219.25,302.96 C219.25,302.96 219.03,302.63 219.03,302.63 C219.03,302.63 215.81,327.48 215.81,327.48 C215.81,327.48 216.10,327.08 216.10,327.08" fill="none" stroke="rgb(57, 77, 239)" stroke-width="2.59" stroke-opacity="1.00" stroke-linejoin="round"/>
<path d="M236.14,298.19 C236.14,298.19 235.92,298.19 235.92,298.19 C235.28,299.04 234.76,300.03 234.53,301.15 C233.66,305.57 232.49,314.67 232.24,317.91 C232.24,317.91 232.24,313.35 232.24,313.35" fill="none" stroke="rgb(57, 77, 239)" stroke-width="2.59" stroke-opacity="1.00" stroke-linejoin="round"/>
<path d="M232.68,246.65 C232.66,249.59 232.62,258.58 232.68,261.51 C232.79,267.14 234.16,286.40 234.41,290.61 C234.41,290.61 234.41,287.80 234.41,287.80" fill="none" stroke="rgb(57, 77, 239)" stroke-width="2.59" stroke-opacity="1.00" stroke-linejoin="round"/>
<path d="M249.13,246.65 C248.33,247.61 247.52,250.91 247.30,253.98 C246.81,261.68 245.65,280.91 245.72,283.39 C245.88,287.27 246.45,288.94 247.40,290.82" fill="none" stroke="rgb(57, 77, 239)" stroke-width="2.59" stroke-opacity="1.00" stroke-linejoin="round"/>
<path d="M304.58,222.39 C303.77,224.02 302.49,228.28 301.06,234.14 C299.70,240.03 298.70,246.30 298.68,246.42 C298.56,246.90 298.22,248.13 297.65,250.11" fill="none" stroke="rgb(57, 77, 239)" stroke-width="2.59" stroke-opacity="1.00" stroke-linejoin="round"/>
<path d="M293.32,276.97 C292.65,279.52 292.01,282.29 291.80,283.88 C291.57,285.70 291.60,287.71 291.86,289.21 C292.01,290.08 292.17,290.95 292.32,291.83 C292.32,291.83 291.15,293.43 291.15,293.43" fill="none" stroke="rgb(57, 77, 239)" stroke-width="2.59" stroke-opacity="1.00" stroke-linejoin="round"/>
<path d="M271.23,300.36 C270.88,300.89 270.66,301.30 270.58,301.57 C270.19,302.83 269.85,310.05 269.93,313.60 C269.97,315.21 270.11,315.97 270.34,316.22 C270.55,315.91 270.71,315.63 270.82,315.39 C270.93,315.14 273.47,308.43 274.26,306.42" fill="none" stroke="rgb(57, 77, 239)" stroke-width="2.59" stroke-opacity="1.00" stroke-linejoin="round"/>
<path d="M281.19,295.60 C282.03,298.95 281.41,304.59 280.81,307.84 C280.20,311.15 279.58,316.31 279.60,317.92 C279.60,317.92 280.41,317.71 280.41,317.71" fill="none" stroke="rgb(57, 77, 239)" stroke-width="2.59" stroke-opacity="1.00" stroke-linejoin="round"/>
<path d="M303.71,297.76 C303.37,301.06 302.89,304.07 301.71,307.34 C300.31,311.09 297.73,317.96 297.33,319.64 C297.33,319.64 297.91,320.28 297.91,320.28" fill="none" stroke="rgb(57, 77, 239)" stroke-width="2.59" stroke-opacity="1.00" stroke-linejoin="round"/>
<path d="M323.64,283.47 C323.59,284.08 323.41,286.10 323.28,287.51 C322.91,290.97 322.08,299.98 322.00,300.45 C321.88,301.06 321.57,302.34 321.04,304.26" fill="none" stroke="rgb(57, 77, 239)" stroke-width="2.59" stroke-opacity="1.00" stroke-linejoin="round"/>
<path d="M319.31,312.49 C319.31,312.49 319.09,312.27 319.09,312.27 C319.09,312.27 318.66,312.30 318.66,312.30 C318.18,314.17 317.90,319.68 318.19,321.96 C318.36,323.27 320.35,327.16 321.04,328.51" fill="none" stroke="rgb(57, 77, 239)" stroke-width="2.59" stroke-opacity="1.00" stroke-linejoin="round"/>
<path d="M331.87,310.76 C331.87,310.76 332.73,309.46 332.73,309.46 C332.01,313.27 330.82,318.17 329.78,321.80 C326.81,332.15 326.28,335.60 326.24,336.51 C326.24,336.51 326.24,336.12 326.24,336.12" fill="none" stroke="rgb(57, 77, 239)" stroke-width="2.59" stroke-opacity="1.00" stroke-linejoin="round"/>
<path d="M344.86,221.09 C343.48,223.24 342.47,226.40 342.01,231.53 C341.50,238.65 341.02,252.28 340.98,260.74 C340.96,265.41 340.84,268.78 340.61,268.89 C340.61,268.89 340.53,264.27 340.53,264.27" fill="none" stroke="rgb(57, 77, 239)" stroke-width="2.59" stroke-opacity="1.00" stroke-linejoin="round"/>
<path d="M350.93,231.92 C350.93,231.92 351.57,230.30 351.57,230.30 C351.68,232.78 350.25,251.80 350.55,256.92 C350.68,258.89 351.29,260.51 352.47,262.33" fill="none" stroke="rgb(57, 77, 239)" stroke-width="2.59" stroke-opacity="1.00" stroke-linejoin="round"/>
<path d="M369.55,274.37 C369.55,274.37 369.77,274.15 369.77,274.15 C370.02,275.69 369.98,284.54 369.92,286.00 C369.86,287.72 369.70,289.69 369.59,290.57 C369.59,290.57 370.16,289.92 370.16,289.92" fill="none" stroke="rgb(57, 77, 239)" stroke-width="2.59" stroke-opacity="1.00" stroke-linejoin="round"/>
<path d="M399.00,210.26 C399.00,210.26 398.36,209.83 398.36,209.83 C398.08,211.01 397.50,213.62 397.20,215.05 C396.98,216.03 394.01,227.33 393.94,227.79 C393.90,228.06 393.86,228.57 393.81,229.32" fill="none" stroke="rgb(57, 77, 239)" stroke-width="2.59" stroke-opacity="1.00" stroke-linejoin="round"/>
<path d="M405.94,227.59 C405.93,227.67 405.93,227.85 405.94,228.13 C405.97,231.39 406.19,237.40 406.32,241.07 C406.41,243.02 406.61,246.42 406.76,248.11 C406.87,249.40 407.15,250.94 407.59,253.04 C407.59,253.04 406.80,253.58 406.80,253.58" fill="none" stroke="rgb(57, 77, 239)" stroke-width="2.59" stroke-opacity="1.00" stroke-linejoin="round"/>
<path d="M397.27,263.54 C395.68,265.76 393.77,274.31 393.59,275.67 C393.35,277.52 393.40,279.00 393.69,280.19 C393.69,280.19 394.67,280.00 394.67,280.00" fill="none" stroke="rgb(57, 77, 239)" stroke-width="2.59" stroke-opacity="1.00" stroke-linejoin="round"/>
<path d="M405.94,263.98 C405.22,264.52 402.81,268.24 401.81,270.82 C400.14,275.23 399.51,277.74 399.48,278.50 C399.48,278.50 400.79,278.47 400.79,278.47" fill="none" stroke="rgb(57, 77, 239)" stroke-width="2.59" stroke-opacity="1.00" stroke-linejoin="round"/>
<path d="M434.96,198.14 C434.96,198.14 434.78,197.88 434.78,197.88 C434.49,199.66 432.99,206.32 432.20,209.69 C430.80,215.49 428.74,222.88 428.62,223.51 C428.41,224.56 428.15,226.85 428.03,228.32" fill="none" stroke="rgb(57, 77, 239)" stroke-width="2.59" stroke-opacity="1.00" stroke-linejoin="round"/>
<path d="M443.62,263.11 C443.07,263.11 441.96,263.92 441.35,264.95 C441.03,265.49 436.05,293.40 435.47,295.14 C435.47,295.14 435.01,294.01 435.01,294.01" fill="none" stroke="rgb(57, 77, 239)" stroke-width="2.59" stroke-opacity="1.00" stroke-linejoin="round"/>
<path d="M144.75,127.97 C144.75,127.97 144.75,127.10 144.75,127.10 C143.96,127.34 141.02,128.65 140.90,128.68 C140.60,128.76 122.02,130.20 117.23,130.90 C109.54,131.89 95.98,133.58 88.91,133.16 C84.51,132.89 78.58,132.36 76.76,131.96 C72.96,131.11 66.12,126.22 64.35,126.17 C61.99,126.16 57.50,128.18 52.43,130.95 C45.26,135.04 34.22,140.06 26.96,143.33 C23.34,144.98 19.15,147.60 17.61,149.49 C16.50,150.90 14.12,154.71 14.37,156.08 C14.69,157.53 16.93,159.07 19.98,161.20" fill="none" stroke="rgb(20, 255, 0)" stroke-width="2.59" stroke-opacity="1.00" stroke-linejoin="round"/>
<path d="M20.43,163.48 C20.43,163.48 20.00,163.48 20.00,163.48 C21.84,164.42 35.96,164.59 40.60,164.83 C43.25,164.79 48.69,164.04 51.24,163.23 C52.35,162.88 56.29,161.38 57.13,161.20 C57.41,161.14 76.41,160.84 85.41,159.82 C90.23,159.32 109.66,158.58 111.87,158.31 C115.45,157.86 133.81,153.08 137.00,152.02 C143.62,149.81 157.54,143.29 160.37,141.42 C163.92,139.04 168.83,132.01 170.66,128.49 C169.82,127.23 169.00,126.61 167.67,126.48 C165.78,126.30 157.58,127.59 156.83,127.55 C156.83,127.55 155.53,125.91 155.53,125.91" fill="none" stroke="rgb(20, 255, 0)" stroke-width="2.59" stroke-opacity="1.00" stroke-linejoin="round"/>
<path d="M193.26,132.30 C193.26,132.30 192.39,128.71 192.39,128.71 C192.10,128.36 197.03,125.65 200.52,124.76 C206.12,123.38 219.50,122.20 223.56,123.28 C225.38,123.78 226.32,124.67 228.29,127.53 C229.06,128.63 233.88,130.11 236.91,129.96 C239.69,129.79 246.06,128.20 249.47,126.84 C251.13,126.17 259.13,122.48 261.61,121.75 C267.28,120.13 278.72,119.73 281.85,120.05 C281.85,120.05 282.57,123.14 282.57,123.14" fill="none" stroke="rgb(20, 255, 0)" stroke-width="2.59" stroke-opacity="1.00" stroke-linejoin="round"/>
<path d="M211.88,138.79 C207.70,137.22 206.53,136.96 203.21,137.12 C200.98,137.26 193.57,140.50 192.72,140.86 C192.72,140.86 192.77,142.33 192.77,142.33" fill="none" stroke="rgb(20, 255, 0)" stroke-width="2.59" stroke-opacity="1.00" stroke-linejoin="round"/>
<path d="M199.76,153.09 C199.76,153.09 198.89,153.09 198.89,153.09 C199.20,153.29 202.99,153.72 203.22,153.67 C204.58,153.33 219.17,148.80 226.31,147.41 C229.55,146.78 237.62,145.91 241.51,145.07 C243.06,144.73 251.04,142.24 253.36,141.14 C256.83,139.45 257.87,137.76 258.22,136.46 C258.12,136.20 237.27,136.95 234.97,137.31 C231.07,137.94 226.32,139.69 224.07,140.76 C224.07,140.76 223.15,143.56 223.15,143.56" fill="none" stroke="rgb(20, 255, 0)" stroke-width="2.59" stroke-opacity="1.00" stroke-linejoin="round"/>
<path d="M335.33,126.67 C335.33,126.67 334.90,126.67 334.90,126.67 C337.14,126.46 340.61,125.17 344.92,122.87 C347.85,121.32 354.06,118.65 356.75,117.82 C359.45,117.01 364.91,116.17 368.28,116.57 C369.17,116.67 371.76,116.95 372.92,116.63 C375.24,115.96 382.22,112.15 384.87,110.24 C387.98,108.01 392.59,106.50 397.26,105.82 C401.51,105.23 406.50,105.37 408.84,105.93 C411.01,106.48 415.84,108.76 418.38,109.34 C419.74,109.64 436.49,111.68 440.79,113.38 C443.01,114.27 444.61,115.05 444.68,115.23 C444.75,116.24 443.24,118.20 440.67,119.87 C438.96,120.96 433.88,123.23 431.47,124.27 C430.13,124.88 427.16,127.33 423.90,130.40 C421.89,132.26 417.92,134.77 414.87,135.33 C412.62,135.73 384.62,137.16 361.50,138.39 C342.97,139.44 337.46,138.63 335.81,138.35 C335.42,138.30 334.99,138.29 334.52,138.33" fill="none" stroke="rgb(20, 255, 0)" stroke-width="2.59" stroke-opacity="1.00" stroke-linejoin="round"/>
<path d="M14.80,209.83 C14.80,209.83 13.93,209.83 13.93,209.83" fill="none" stroke="rgb(20, 255, 0)" stroke-width="2.59" stroke-opacity="1.00" stroke-linejoin="round"/>
<path d="M15.23,208.53 C15.23,208.53 15.23,208.10 15.23,208.10 C16.74,207.03 20.08,205.33 22.45,204.26 C26.62,202.39 60.68,190.92 63.55,190.80 C64.62,190.76 86.51,192.40 89.14,193.76 C91.37,194.96 95.31,198.64 96.71,200.81 C97.46,202.04 98.03,204.06 97.86,205.30 C97.71,206.30 96.46,209.45 95.86,210.47 C95.03,211.80 93.29,213.24 91.89,213.74 C89.64,214.51 77.25,215.84 69.40,218.27 C53.93,223.31 34.08,228.38 29.48,229.18 C27.01,229.60 19.81,229.73 17.81,228.97 C16.91,228.62 15.95,228.00 14.93,227.10 C14.68,226.87 14.51,226.63 14.42,226.38" fill="none" stroke="rgb(20, 255, 0)" stroke-width="2.59" stroke-opacity="1.00" stroke-linejoin="round"/>
<path d="M91.47,174.31 C91.47,174.31 92.33,173.23 92.33,173.23 C90.62,174.03 88.69,175.73 87.59,177.70 C87.26,178.30 85.95,182.51 85.90,182.99 C85.69,185.47 88.30,189.63 92.07,194.55 C94.45,197.49 96.40,199.25 98.93,199.51 C102.44,199.86 108.43,199.78 111.26,198.91 C113.24,198.28 120.45,194.03 123.13,193.09 C127.77,191.52 141.30,191.72 152.87,192.43 C157.66,192.75 161.00,193.02 161.91,192.43 C162.66,191.90 164.16,186.63 164.84,183.73 C165.30,182.39 170.16,179.62 172.64,178.98 C176.59,177.95 180.94,174.71 182.60,173.43 C183.23,172.93 183.84,172.30 183.87,171.57 C183.91,169.27 183.55,166.50 182.91,165.53 C182.19,164.48 180.27,163.30 178.78,162.96 C176.52,162.51 170.66,163.36 168.69,164.29 C167.86,164.68 162.48,167.66 161.64,168.03 C160.92,168.34 146.58,169.33 136.29,170.43 C131.46,171.02 118.08,173.02 110.20,173.37 C107.43,173.48 103.66,172.95 100.45,171.14 C99.91,170.84 99.12,170.29 98.05,169.50" fill="none" stroke="rgb(20, 255, 0)" stroke-width="2.59" stroke-opacity="1.00" stroke-linejoin="round"/>
<path d="M189.36,192.07 C189.36,192.07 189.79,191.64 189.79,191.64" fill="none" stroke="rgb(20, 255, 0)" stroke-width="2.59" stroke-opacity="1.00" stroke-linejoin="round"/>
<path d="M190.23,191.64 C189.66,191.63 189.27,191.63 189.06,191.64 C188.27,191.67 187.85,191.57 186.88,191.16 C186.88,191.16 186.33,189.57 186.33,189.57 C188.76,187.69 205.27,181.23 209.91,180.51 C212.97,180.07 227.15,183.59 231.37,183.28 C234.26,183.05 241.90,181.25 245.67,180.76 C249.06,180.36 254.87,181.30 257.55,182.67 C259.88,183.91 264.93,188.51 265.97,190.43 C267.01,192.41 266.98,196.27 266.67,197.91 C266.01,198.65 260.24,198.71 257.02,198.73 C250.61,198.78 247.76,199.01 243.76,200.35 C237.10,202.51 223.99,205.28 218.12,206.37 C199.26,209.30 183.54,210.05 181.40,209.61 C179.48,209.18 176.31,205.22 175.38,203.66 C174.43,202.05 173.48,199.74 173.30,199.22 C173.30,199.22 173.95,197.56 173.95,197.56" fill="none" stroke="rgb(20, 255, 0)" stroke-width="2.59" stroke-opacity="1.00" stroke-linejoin="round"/>
<path d="M256.50,181.68 C256.55,173.73 256.04,168.83 256.07,168.26 C256.07,168.26 256.07,168.25 256.07,168.25" fill="none" stroke="rgb(20, 255, 0)" stroke-width="2.59" stroke-opacity="1.00" stroke-linejoin="round"/>
<path d="M259.53,160.89 C259.53,160.89 258.95,160.67 258.95,160.67 C258.95,160.67 258.73,160.03 258.73,160.03 C263.09,154.20 279.65,150.32 282.37,150.13 C284.61,150.03 286.32,150.32 286.91,151.11 C287.40,151.79 289.20,155.33 289.35,155.60 C290.24,157.23 291.59,158.67 292.79,159.02 C294.64,159.51 312.85,159.57 320.47,159.55 C331.13,159.49 339.02,159.13 345.15,157.68 C353.28,155.74 360.57,154.52 365.75,154.65 C368.03,154.72 373.25,155.19 375.11,155.67 C378.47,156.56 382.69,158.16 383.89,159.56 C384.17,161.20 381.54,166.25 379.43,168.52 C376.90,171.14 371.49,173.26 368.91,173.55 C366.23,173.82 349.09,174.75 344.19,175.81 C337.70,177.32 298.44,182.18 291.55,183.65 C288.87,184.23 280.20,186.79 277.74,187.37 C274.90,188.03 269.40,188.67 266.95,187.72 C265.87,187.29 263.67,185.88 263.31,185.53 C263.11,185.31 262.91,185.10 262.71,184.89" fill="none" stroke="rgb(20, 255, 0)" stroke-width="2.59" stroke-opacity="1.00" stroke-linejoin="round"/>
<path d="M390.34,157.42 C390.34,157.42 390.78,157.42 390.78,157.42 C390.89,158.40 393.59,162.26 395.04,162.94 C397.81,164.14 413.56,164.39 418.53,163.90 C428.10,162.91 433.99,161.90 444.53,158.26 C448.14,156.99 453.12,155.24 454.48,154.76" fill="none" stroke="rgb(20, 255, 0)" stroke-width="2.59" stroke-opacity="1.00" stroke-linejoin="round"/>
<path d="M395.97,145.73 C395.97,145.73 395.54,145.73 395.54,145.73 C395.54,145.73 395.54,145.29 395.54,145.29 C399.14,144.12 404.95,142.24 407.76,141.80 C415.54,140.76 432.32,138.59 437.18,139.13 C441.56,139.66 453.51,144.53 453.69,144.58 C454.02,144.65 454.52,144.62 455.21,144.48" fill="none" stroke="rgb(20, 255, 0)" stroke-width="2.59" stroke-opacity="1.00" stroke-linejoin="round"/>
<path d="M59.89,552.84 C59.78,552.46 59.55,552.13 59.55,552.08 C59.55,551.54 59.76,549.96 60.23,549.38 C62.22,546.90 66.99,541.73 69.53,540.17 C73.06,538.04 105.00,523.15 116.39,519.31 C121.26,517.60 133.22,512.00 140.37,509.02 C147.74,506.14 163.28,501.45 166.07,500.43 C168.60,499.51 186.78,490.95 189.30,489.95 C194.82,487.77 205.17,485.21 205.51,485.00 C205.62,484.93 205.82,484.82 206.11,484.66" fill="none" stroke="rgb(255, 0, 41)" stroke-width="2.59" stroke-opacity="1.00" stroke-linejoin="round"/>
<path d="M71.78,561.33 C72.68,561.26 73.17,560.35 75.36,559.60 C78.00,558.77 87.63,557.38 91.55,555.45 C104.46,549.07 132.09,536.52 137.93,534.24 C174.75,520.67 221.62,502.00 223.45,501.87 C223.79,501.84 224.79,501.84 226.44,501.87" fill="none" stroke="rgb(255, 0, 41)" stroke-width="2.59" stroke-opacity="1.00" stroke-linejoin="round"/>
<path d="M71.44,542.31 C71.44,542.31 70.93,542.79 70.93,542.79 C70.57,544.37 71.49,547.48 73.35,550.85 C74.72,553.29 77.24,558.14 77.73,558.43 C77.73,558.43 78.91,556.92 78.91,556.92" fill="none" stroke="rgb(255, 0, 41)" stroke-width="2.59" stroke-opacity="1.00" stroke-linejoin="round"/>
<path d="M83.66,537.22 C83.66,537.22 83.49,537.22 83.49,537.22 C83.33,537.44 83.33,538.31 83.72,539.53 C85.62,545.45 89.95,552.68 91.17,553.78 C91.64,554.20 92.11,554.61 92.58,555.03" fill="none" stroke="rgb(255, 0, 41)" stroke-width="2.59" stroke-opacity="1.00" stroke-linejoin="round"/>
<path d="M180.80,497.48 C180.89,498.32 181.07,499.19 181.49,500.57 C182.85,505.04 188.22,513.42 189.23,514.41 C189.23,514.41 189.29,512.09 189.29,512.09" fill="none" stroke="rgb(255, 0, 41)" stroke-width="2.59" stroke-opacity="1.00" stroke-linejoin="round"/>
<path d="M191.67,499.86 C191.67,501.64 191.69,505.33 191.84,505.97 C191.99,506.63 192.25,507.20 192.64,507.67 C192.81,507.86 193.16,508.15 193.71,508.54" fill="none" stroke="rgb(255, 0, 41)" stroke-width="2.59" stroke-opacity="1.00" stroke-linejoin="round"/>
<path d="M140.04,540.28 C140.04,540.28 139.19,540.28 139.19,540.28 C139.19,540.28 141.68,568.40 141.68,568.40 C141.68,568.40 141.74,560.99 141.74,560.99" fill="none" stroke="rgb(255, 0, 41)" stroke-width="2.59" stroke-opacity="1.00" stroke-linejoin="round"/>
<path d="M141.74,541.98 C141.74,541.98 141.57,541.98 141.57,541.98 C141.57,541.98 141.23,542.45 141.23,542.45 C141.03,543.97 143.68,549.33 145.54,551.89 C148.35,555.66 154.61,560.47 154.53,560.55 C154.53,560.55 153.85,560.06 153.85,560.06" fill="none" stroke="rgb(255, 0, 41)" stroke-width="2.59" stroke-opacity="1.00" stroke-linejoin="round"/>
<path d="M144.46,555.22 C144.46,555.22 143.78,555.22 143.78,555.22 C144.08,555.40 145.33,555.89 146.25,556.10 C148.68,556.64 152.45,556.23 153.42,556.13" fill="none" stroke="rgb(255, 0, 41)" stroke-width="2.59" stroke-opacity="1.00" stroke-linejoin="round"/>
<path d="M321.89,456.99 C321.89,456.99 321.57,456.94 321.57,456.94 C321.57,456.89 316.68,469.20 315.45,473.38 C313.72,479.32 312.20,487.01 309.73,498.54 C308.23,505.95 305.04,516.19 304.33,521.39 C303.39,527.86 301.30,543.91 301.11,547.59 C300.79,554.00 301.91,583.41 302.19,584.52 C302.19,584.52 303.10,584.73 303.10,584.73" fill="none" stroke="rgb(230, 57, 239)" stroke-width="2.59" stroke-opacity="1.00" stroke-linejoin="round"/>
<path d="M321.89,456.83 C321.89,456.83 321.57,456.43 321.57,456.43 C321.57,456.43 321.57,456.35 321.57,456.35 C321.58,466.02 319.13,494.54 320.02,501.94 C320.19,503.34 322.30,515.40 322.62,520.78 C322.97,526.82 325.50,545.25 325.57,545.74 C326.84,554.84 332.52,573.09 333.27,574.80 C333.27,574.80 333.76,575.08 333.76,575.08" fill="none" stroke="rgb(230, 57, 239)" stroke-width="2.59" stroke-opacity="1.00" stroke-linejoin="round"/>
<path d="M319.46,455.38 C321.72,455.19 326.22,455.24 327.08,455.43 C330.28,456.19 333.34,456.51 335.23,456.30 C340.44,455.70 367.65,449.98 384.47,444.93 C389.46,443.53 396.67,442.24 401.69,441.66 C401.69,441.66 401.56,441.49 401.56,441.49" fill="none" stroke="rgb(230, 57, 239)" stroke-width="2.59" stroke-opacity="1.00" stroke-linejoin="round"/>
<path d="M368.32,445.35 C368.33,445.36 368.47,445.33 368.72,445.27 C369.98,444.92 371.75,444.45 372.81,444.21 C378.73,442.93 393.70,439.90 396.84,439.46 C419.42,436.81 433.01,436.13 437.51,436.31 C437.51,436.31 437.31,436.78 437.31,436.78" fill="none" stroke="rgb(230, 57, 239)" stroke-width="2.59" stroke-opacity="1.00" stroke-linejoin="round"/>
<path d="M434.32,440.33 C433.75,440.57 432.58,442.22 432.01,444.58 C431.10,449.34 427.11,465.78 426.74,467.81 C426.71,467.99 424.86,482.62 423.80,486.94 C420.26,501.25 415.38,523.19 414.55,532.22 C414.17,536.46 414.42,549.21 414.45,549.80 C414.45,549.80 414.92,550.18 414.92,550.18" fill="none" stroke="rgb(230, 57, 239)" stroke-width="2.59" stroke-opacity="1.00" stroke-linejoin="round"/>
<path d="M437.07,448.58 C437.07,448.58 436.50,448.58 436.50,448.58 C436.28,448.98 439.02,466.53 439.19,467.39 C439.47,468.77 443.20,482.87 443.93,488.08 C444.52,492.43 444.85,502.57 444.82,512.34 C444.83,515.86 445.69,524.09 445.77,527.39 C445.93,534.97 445.09,539.85 444.55,540.74 C444.55,540.74 442.79,540.84 442.79,540.84" fill="none" stroke="rgb(230, 57, 239)" stroke-width="2.59" stroke-opacity="1.00" stroke-linejoin="round"/>
<path d="M398.24,448.91 C398.27,449.11 397.62,450.93 397.37,451.68 C396.15,455.22 395.09,463.31 394.67,471.70 C392.04,512.08 393.41,524.87 393.36,525.09 C392.58,525.33 390.30,527.04 389.49,528.35 C388.87,529.37 387.63,533.03 387.42,535.30 C387.25,537.35 388.12,539.16 388.85,539.34 C389.55,539.45 398.66,535.53 401.00,534.87 C402.94,534.42 405.31,533.86 406.49,533.46" fill="none" stroke="rgb(230, 57, 239)" stroke-width="2.59" stroke-opacity="1.00" stroke-linejoin="round"/>
<path d="M407.79,458.94 C407.78,464.87 407.71,474.76 407.22,484.71 C407.00,490.49 406.44,509.13 406.31,511.31 C406.15,513.64 404.46,528.93 404.07,534.48 C404.06,534.58 404.04,534.90 404.07,534.79" fill="none" stroke="rgb(230, 57, 239)" stroke-width="2.59" stroke-opacity="1.00" stroke-linejoin="round"/>
<path d="M351.66,452.95 C351.66,452.95 351.66,452.79 351.66,452.79 C351.69,452.85 351.78,454.65 351.80,455.99 C351.81,457.68 350.30,472.54 350.21,477.75 C350.10,485.06 348.85,498.06 349.48,502.98 C350.66,511.78 352.74,523.70 352.84,524.16 C353.54,527.37 356.06,536.32 356.00,536.64 C355.64,536.85 351.38,538.73 350.13,539.89 C349.65,540.34 348.55,542.22 348.37,543.63 C348.26,544.59 348.96,548.36 349.90,550.01 C350.69,551.36 352.16,552.25 352.80,552.26 C353.70,552.24 367.41,546.03 368.73,545.49 C370.45,544.80 375.18,544.72 376.48,544.66 C377.72,544.61 379.36,543.97 379.96,542.96 C380.52,541.93 380.82,537.08 380.27,534.44 C379.90,532.76 378.02,528.93 376.47,527.52 C374.32,525.70 371.74,523.16 370.58,522.02" fill="none" stroke="rgb(230, 57, 239)" stroke-width="2.59" stroke-opacity="1.00" stroke-linejoin="round"/>
<path d="M370.91,458.77 C371.10,461.36 371.51,467.14 371.55,469.99 C371.56,470.80 372.50,509.88 371.86,517.00 C371.42,522.04 371.56,526.96 371.56,527.49 C371.56,527.49 371.87,527.68 371.87,527.68" fill="none" stroke="rgb(230, 57, 239)" stroke-width="2.59" stroke-opacity="1.00" stroke-linejoin="round"/>
<path d="M381.91,550.01 C381.91,550.01 380.03,549.90 380.03,549.90 C379.06,550.60 377.23,554.69 376.86,556.29 C376.56,557.80 377.03,559.96 378.33,560.55 C379.37,560.99 383.83,560.95 385.45,560.30 C389.01,558.79 389.08,556.10 388.86,555.14 C388.86,555.14 385.09,553.05 385.09,553.05" fill="none" stroke="rgb(230, 57, 239)" stroke-width="2.59" stroke-opacity="1.00" stroke-linejoin="round"/>
<path d="M333.05,572.17 C333.24,571.28 335.26,569.21 336.36,568.65 C337.21,568.24 339.56,567.70 340.57,568.21 C341.57,568.75 342.51,572.01 342.17,573.31 C341.34,576.12 338.15,576.71 337.44,576.70 C337.44,576.70 336.35,574.30 336.35,574.30" fill="none" stroke="rgb(230, 57, 239)" stroke-width="2.59" stroke-opacity="1.00" stroke-linejoin="round"/>
<path d="M357.80,583.33 C357.80,583.33 356.02,586.98 356.02,586.98 C356.02,586.98 358.13,585.92 358.13,585.92" fill="none" stroke="rgb(230, 57, 239)" stroke-width="2.59" stroke-opacity="1.00" stroke-linejoin="round"/>
<path d="M377.21,584.79 C377.21,584.79 376.73,584.95 376.73,584.95 C376.63,584.82 381.97,586.34 383.12,586.54 C386.67,587.14 398.63,586.37 404.40,584.87 C408.25,583.85 411.77,582.76 412.55,582.52 C412.55,582.52 412.02,582.21 412.02,582.21" fill="none" stroke="rgb(230, 57, 239)" stroke-width="2.59" stroke-opacity="1.00" stroke-linejoin="round"/>
<path d="M27.48,548.32 C27.48,548.32 27.13,548.41 27.13,548.41 C25.78,550.31 25.88,557.08 26.77,558.33 C26.77,558.33 28.05,558.80 28.05,558.80 C29.41,557.55 30.15,554.74 30.26,553.23 C30.38,551.40 29.69,549.38 29.35,548.97 C29.35,548.97 29.05,550.27 29.05,550.27" fill="none" stroke="rgb(51, 153, 67)" stroke-width="2.59" stroke-opacity="1.00" stroke-linejoin="round"/>
<path d="M32.33,567.91 C30.37,568.51 30.38,571.25 30.55,572.51 C31.21,573.20 32.08,573.63 32.87,573.47 C33.61,573.31 34.24,572.58 34.60,571.69 C34.60,571.69 32.57,570.82 32.57,570.82" fill="none" stroke="rgb(51, 153, 67)" stroke-width="2.59" stroke-opacity="1.00" stroke-linejoin="round"/>
<path d="M32.33,593.05 C32.33,593.05 31.73,592.96 31.73,592.96 C30.44,593.65 29.51,596.53 29.31,598.15 C29.07,600.08 29.25,603.47 29.44,604.25 C29.90,605.94 31.50,607.33 32.78,607.31 C34.18,607.23 36.91,604.94 37.91,602.77 C38.77,600.85 39.24,597.49 39.14,596.64 C38.86,594.81 37.34,592.85 36.14,592.41 C35.10,592.06 34.03,592.40 33.40,592.71" fill="none" stroke="rgb(51, 153, 67)" stroke-width="2.59" stroke-opacity="1.00" stroke-linejoin="round"/>
<path d="M64.93,589.41 C64.53,589.35 63.06,589.82 62.24,590.85 C61.39,591.96 59.91,595.20 59.66,596.72 C59.42,598.35 60.03,601.43 60.97,602.78 C62.02,604.23 64.96,605.33 66.70,604.78 C68.50,604.17 72.60,600.46 74.27,598.14 C76.65,594.80 77.45,591.20 76.91,590.22 C76.43,589.41 74.98,588.85 74.02,588.56" fill="none" stroke="rgb(51, 153, 67)" stroke-width="2.59" stroke-opacity="1.00" stroke-linejoin="round"/>
<path d="M124.22,581.44 C122.73,582.40 121.28,584.01 120.38,585.86 C119.57,587.54 118.90,590.31 118.90,591.14 C118.94,592.98 120.50,594.99 121.88,595.21 C123.36,595.38 126.84,593.52 128.06,591.72 C129.18,590.01 129.87,586.63 129.56,585.09 C129.24,583.63 128.01,581.78 127.44,581.12 C127.30,580.96 127.15,580.83 126.98,580.72" fill="none" stroke="rgb(51, 153, 67)" stroke-width="2.59" stroke-opacity="1.00" stroke-linejoin="round"/>
<path d="M156.12,601.55 C156.12,601.55 156.03,601.46 156.03,601.46 C155.04,602.83 154.39,607.69 154.70,608.89 C154.86,609.48 155.28,609.96 155.81,610.31 C157.10,610.33 157.78,610.19 158.18,609.70 C159.67,607.83 160.24,601.13 159.69,600.65 C159.69,600.65 159.60,601.62 159.60,601.62" fill="none" stroke="rgb(51, 153, 67)" stroke-width="2.59" stroke-opacity="1.00" stroke-linejoin="round"/>
<path d="M161.32,635.01 C160.75,635.55 160.26,636.80 160.37,639.80 C160.45,641.49 161.07,642.55 161.87,643.56 C163.44,643.35 164.08,642.93 164.16,641.89 C164.20,641.24 164.21,640.83 164.18,640.65 C164.14,640.45 164.00,640.06 163.76,639.49" fill="none" stroke="rgb(51, 153, 67)" stroke-width="2.59" stroke-opacity="1.00" stroke-linejoin="round"/>
<path d="M192.75,545.26 C192.18,544.99 191.03,544.20 190.22,543.63 C189.36,543.06 187.15,543.05 186.88,543.12 C186.55,544.09 186.57,545.10 187.09,546.13 C188.14,548.13 191.17,549.65 192.64,549.28 C192.88,547.88 192.75,547.07 192.09,546.43 C191.65,546.02 190.43,545.14 189.62,544.56" fill="none" stroke="rgb(51, 153, 67)" stroke-width="2.59" stroke-opacity="1.00" stroke-linejoin="round"/>
<path d="M198.00,595.33 C195.78,595.32 194.60,595.36 194.06,595.58 C192.53,596.21 191.05,598.83 191.59,600.05 C195.15,601.09 197.23,596.07 197.33,595.28 C197.33,595.28 196.48,594.74 196.48,594.74" fill="none" stroke="rgb(51, 153, 67)" stroke-width="2.59" stroke-opacity="1.00" stroke-linejoin="round"/>
<path d="M252.22,582.88 C252.22,582.88 251.95,582.88 251.95,582.88 C250.65,583.41 249.43,593.52 249.72,594.50 C250.15,595.80 251.62,597.32 252.74,597.44 C254.60,597.60 257.04,595.22 257.82,593.83 C258.55,592.50 259.89,588.48 259.67,586.46 C259.54,585.46 258.39,584.26 256.85,583.26 C256.57,583.09 256.04,582.78 255.27,582.33" fill="none" stroke="rgb(51, 153, 67)" stroke-width="2.59" stroke-opacity="1.00" stroke-linejoin="round"/>
</g>
</svg>
