<?xml version="1.0" encoding="UTF-8" standalone="no"?>
<!DOCTYPE svg PUBLIC "-//W3C//DTD SVG 1.1//EN" "http://www.w3.org/Graphics/SVG/1.1/DTD/svg11.dtd">
<svg width="128.40" height="181.68" viewBox="0.00 0.00 535.00 757.00" xmlns="http://www.w3.org/2000/svg" xmlns:xlink="http://www.w3.org/1999/xlink">
<g stroke-linecap="round" id="142">
<path d="M39.52,220.92 C39.52,220.92 38.06,222.02 38.06,222.02 C38.92,220.60 39.19,218.84 39.15,215.05 C39.14,211.94 40.17,205.83 40.11,204.98 C40.01,203.92 38.01,202.19 36.50,202.26 C34.73,202.36 28.70,204.11 25.58,205.58 C21.66,207.47 17.49,210.30 15.33,212.49 C13.52,214.39 11.93,217.21 11.62,219.27 C11.08,223.21 12.65,235.10 14.13,237.61 C15.35,239.58 19.51,242.38 22.10,243.34 C24.56,244.22 28.00,244.85 29.56,244.31 C31.07,243.76 33.98,240.42 34.92,238.81 C37.17,234.94 37.83,232.48 37.75,232.12 C37.31,233.47 38.63,238.29 41.45,241.46 C42.80,242.93 46.79,245.47 51.08,247.44 C51.34,247.57 58.40,251.10 61.00,251.37 C64.17,251.65 68.73,251.47 71.14,250.91 C73.69,250.28 78.32,247.98 79.75,245.64 C80.09,245.06 83.30,238.81 83.92,238.03 C84.49,240.18 86.99,244.55 89.25,246.63 C90.41,247.68 93.61,249.79 94.96,250.38 C96.57,251.03 99.66,251.50 101.60,251.38 C105.05,251.12 111.60,248.28 115.02,245.80 C116.24,244.90 124.68,237.17 125.54,236.44 C125.54,236.44 125.17,236.23 125.17,236.23" fill="none" stroke="rgb(255, 255, 0)" stroke-width="2.40" stroke-opacity="1.00" stroke-linejoin="round"/>
<path d="M178.03,218.37 C178.03,218.37 177.66,218.37 177.66,218.37 C177.66,218.37 177.88,217.58 177.88,217.58 C180.49,215.65 182.99,212.62 183.07,210.03 C183.07,208.37 179.39,203.00 177.38,202.20 C174.50,201.11 159.28,199.71 152.91,200.55 C145.84,201.52 130.11,206.10 122.14,208.42 C116.82,210.05 111.26,212.06 108.97,213.42 C108.12,213.93 94.74,223.22 94.23,223.28 C94.55,222.18 95.41,219.79 95.42,219.78 C95.98,217.24 94.03,212.11 91.84,208.90 C90.52,207.05 88.71,204.88 87.69,204.04 C86.60,203.17 79.98,202.29 77.48,202.43 C73.21,202.70 63.11,205.18 57.85,207.48 C53.78,209.27 47.87,212.51 45.37,214.53 C44.54,215.21 40.88,218.79 40.71,219.22 C40.58,219.59 40.30,220.65 39.88,222.38" fill="none" stroke="rgb(255, 255, 0)" stroke-width="2.40" stroke-opacity="1.00" stroke-linejoin="round"/>
<path d="M187.14,216.92 C187.14,216.92 184.73,217.47 184.73,217.47 C184.73,217.47 184.67,215.14 184.67,215.14 C185.95,215.65 188.08,219.55 188.83,222.25 C189.51,224.83 189.78,226.73 189.51,227.62 C188.75,229.77 184.96,233.63 182.07,234.56 C181.16,234.84 179.21,234.84 179.02,234.92 C180.36,236.38 181.53,238.15 181.83,239.67 C182.15,241.32 182.06,244.19 181.70,245.14 C181.37,245.92 180.48,247.41 179.94,247.85 C177.70,249.57 172.89,249.96 169.11,249.58 C166.00,249.26 159.40,248.53 157.14,248.08 C156.77,248.00 135.56,240.96 132.87,239.66 C131.32,238.90 129.83,237.79 127.73,235.96 C127.73,235.96 127.73,237.33 127.73,237.33" fill="none" stroke="rgb(255, 255, 0)" stroke-width="2.40" stroke-opacity="1.00" stroke-linejoin="round"/>
<path d="M171.83,216.92 C171.83,216.92 171.83,216.19 171.83,216.19 C171.83,216.19 171.74,217.17 171.74,217.17 C171.97,216.56 174.23,211.27 174.13,209.87 C174.02,208.79 172.05,206.25 169.15,205.06 C167.78,204.52 164.46,203.97 163.11,204.07 C159.93,204.37 152.89,207.46 149.83,210.02 C147.15,212.31 144.08,217.44 143.78,218.68 C143.62,217.20 142.71,214.82 139.80,213.91 C137.16,213.13 131.47,214.47 130.46,215.52 C129.36,216.75 128.06,219.32 127.55,221.40 C127.10,223.41 127.00,226.78 127.42,228.41 C128.15,231.11 132.43,235.71 134.50,237.42 C136.63,239.14 141.72,242.29 144.33,243.31 C147.05,244.34 154.26,245.29 154.76,245.35 C156.23,245.54 161.17,246.50 162.72,246.80" fill="none" stroke="rgb(255, 255, 0)" stroke-width="2.40" stroke-opacity="1.00" stroke-linejoin="round"/>
<path d="M175.84,217.64 C175.84,217.64 174.38,217.64 174.38,217.64 C174.84,217.34 180.97,215.07 183.79,214.84 C189.98,214.41 198.34,214.90 200.96,215.58 C200.90,215.31 199.23,210.33 199.59,208.63 C200.07,206.67 203.17,203.03 205.81,201.77 C208.02,200.78 214.13,199.76 217.26,199.95 C220.80,200.20 224.63,201.11 227.56,202.32 C230.13,203.43 232.18,205.56 232.20,207.17 C232.04,210.94 225.82,216.03 225.25,216.36 C226.35,215.52 230.76,213.67 233.23,213.17 C236.78,212.50 243.78,213.11 246.18,214.33 C248.28,215.45 250.18,218.51 250.18,220.18 C250.12,221.84 247.02,225.45 244.98,226.86 C240.83,229.66 233.04,232.74 227.36,233.78 C224.67,234.27 219.31,235.26 219.01,235.51 C221.82,238.78 223.49,241.88 223.18,244.37 C222.80,246.74 220.06,250.38 217.94,251.94 C216.13,253.22 211.46,255.04 209.24,255.33 C206.91,255.60 203.20,254.59 201.28,253.18 C198.09,250.76 192.63,241.52 191.56,239.93 C191.14,240.43 186.87,244.44 184.39,245.97 C181.11,247.95 173.44,250.24 169.76,250.69 C168.25,250.85 164.84,250.84 164.02,250.56 C163.63,250.42 162.83,250.02 161.62,249.36" fill="none" stroke="rgb(255, 255, 0)" stroke-width="2.40" stroke-opacity="1.00" stroke-linejoin="round"/>
<path d="M164.17,251.54 C164.17,251.54 161.26,251.54 161.26,251.54 C160.30,250.48 156.04,247.83 155.48,247.50 C155.13,247.29 154.55,246.96 153.74,246.51" fill="none" stroke="rgb(255, 255, 0)" stroke-width="2.40" stroke-opacity="1.00" stroke-linejoin="round"/>
<path d="M270.24,224.93 C270.24,224.93 266.84,225.65 266.84,225.65 C268.20,224.69 272.45,222.10 275.01,219.82 C278.88,216.28 281.48,213.62 282.85,211.82 C284.29,209.85 284.76,207.25 283.99,205.13 C283.64,204.26 281.59,203.57 280.29,203.49 C278.19,203.43 268.23,205.05 266.99,205.36 C263.54,206.27 256.09,211.17 252.20,215.02 C249.39,217.82 247.64,220.82 247.28,222.29 C246.82,222.08 245.02,222.71 243.31,224.85 C241.50,227.19 239.60,231.52 237.63,236.81 C236.61,239.73 236.65,242.13 237.80,242.94 C240.71,244.78 248.08,242.03 249.19,241.23 C248.10,240.94 242.65,244.05 240.48,246.06 C238.22,248.22 235.77,252.78 236.13,254.82 C236.56,256.79 240.38,260.72 243.14,262.24 C245.96,263.75 251.65,264.53 254.52,264.22 C257.39,263.87 262.23,262.56 263.94,261.43 C265.38,260.44 267.32,256.73 267.43,253.55 C267.47,251.85 266.69,248.18 266.11,247.16 C265.75,246.55 264.68,246.06 263.04,245.44 C266.31,245.61 277.06,241.61 280.86,238.76 C282.70,237.35 285.30,234.88 285.99,233.70 C286.72,232.38 286.99,229.56 286.52,228.15 C285.56,225.51 282.71,222.94 281.36,222.46 C279.79,221.93 274.57,222.15 272.34,222.81 C270.65,223.32 264.46,226.23 262.59,227.12" fill="none" stroke="rgb(255, 255, 0)" stroke-width="2.40" stroke-opacity="1.00" stroke-linejoin="round"/>
<path d="M303.05,216.19 C303.05,216.19 300.57,214.61 300.57,214.61 C300.21,213.24 300.65,211.03 300.78,210.22 C300.95,208.88 296.54,205.52 292.28,203.71 C290.52,202.98 288.29,201.50 287.15,200.71 C284.86,199.35 278.77,199.27 275.56,200.49 C275.47,200.52 271.27,202.47 270.69,202.85 C268.22,204.49 264.61,210.38 264.41,211.19 C264.31,211.66 264.47,211.98 264.77,212.18 C268.36,215.89 279.70,223.90 281.76,224.42 C282.79,224.68 285.41,225.21 285.57,225.30 C284.38,225.79 283.22,226.53 282.46,227.51 C281.55,228.73 280.13,231.82 279.74,233.57 C279.37,235.37 279.53,238.65 280.08,240.12 C280.81,241.95 285.52,247.97 286.65,248.93 C289.87,251.59 299.85,254.77 303.78,255.25 C305.62,255.46 313.49,255.55 316.54,255.53 C319.48,255.48 323.23,254.28 324.10,253.82 C324.79,254.98 327.76,257.67 330.52,259.15 C333.46,260.70 340.58,262.79 343.54,263.25 C348.19,263.91 353.02,264.37 356.34,263.83 C358.55,263.45 361.28,262.20 362.54,261.08 C363.56,260.11 363.97,257.37 363.44,255.49 C362.71,253.29 358.63,249.81 355.89,248.63 C353.79,247.77 346.11,245.38 345.62,245.24 C342.50,244.38 338.03,243.89 337.06,243.39 C342.44,241.53 358.04,235.89 362.37,233.96 C370.48,230.23 376.56,226.02 378.13,223.78 C379.07,222.37 379.89,219.51 379.67,218.08 C379.18,215.34 376.09,211.52 374.47,210.17 C373.52,209.40 370.84,207.81 369.52,207.33 C368.00,206.80 365.28,207.11 363.89,207.91 C362.59,208.71 360.69,210.95 359.86,212.59 C359.06,214.22 358.59,216.71 358.45,219.35 C358.43,219.72 358.43,220.00 358.45,220.20" fill="none" stroke="rgb(255, 255, 0)" stroke-width="2.40" stroke-opacity="1.00" stroke-linejoin="round"/>
<path d="M356.63,226.03 C356.63,226.03 355.72,225.85 355.72,225.85 C355.72,225.85 355.64,224.94 355.64,224.94 C358.06,221.92 359.62,219.58 360.27,216.44 C360.83,213.57 359.94,209.06 358.36,207.74 C356.76,206.49 350.95,204.19 348.14,203.86 C345.23,203.57 339.48,205.29 336.17,207.38 C333.30,209.22 328.29,213.53 327.11,214.89 C324.68,217.73 320.85,224.79 320.55,225.21 C320.53,223.99 320.41,223.15 320.08,222.74 C319.18,221.67 314.69,220.50 311.50,220.33 C301.34,219.80 298.93,219.82 297.58,219.83 C297.58,219.83 297.94,220.20 297.94,220.20" fill="none" stroke="rgb(255, 255, 0)" stroke-width="2.40" stroke-opacity="1.00" stroke-linejoin="round"/>
<path d="M301.22,216.55 C301.22,216.55 300.49,216.19 300.49,216.19 C300.49,216.19 300.49,216.40 300.49,216.40" fill="none" stroke="rgb(255, 255, 0)" stroke-width="2.40" stroke-opacity="1.00" stroke-linejoin="round"/>
<path d="M235.97,292.09 C235.97,292.09 234.38,291.77 234.38,291.77 C237.66,293.85 249.80,304.90 252.34,307.47 C256.27,311.43 262.91,318.16 267.60,325.40 C269.63,328.54 271.59,331.16 273.69,333.71 C274.85,335.12 275.19,336.24 275.05,337.68 C270.63,339.21 267.21,340.92 263.48,343.54 C261.17,345.16 255.21,347.44 254.83,347.92 C255.13,348.38 264.25,357.80 269.51,364.10 C273.26,368.76 282.12,381.91 284.01,385.10 C282.61,382.30 278.50,374.09 277.80,372.84 C275.29,368.37 270.00,361.55 269.23,360.39 C267.80,358.22 264.00,349.26 263.60,348.29 C264.20,348.45 270.43,346.21 273.57,344.02 C274.20,343.58 279.03,339.87 279.78,339.76 C281.03,339.62 281.35,339.53 281.58,339.26 C281.52,338.70 271.21,327.86 267.27,322.64 C262.10,315.75 254.69,307.98 249.73,302.83 C247.32,300.31 237.95,293.03 235.96,291.50" fill="none" stroke="rgb(0, 0, 255)" stroke-width="2.40" stroke-opacity="1.00" stroke-linejoin="round"/>
<path d="M16.50,262.99 C16.50,262.99 16.36,261.67 16.36,261.67 C16.20,263.48 15.89,282.08 15.74,290.96 C15.50,299.50 15.12,311.97 14.97,315.90" fill="none" stroke="rgb(255, 0, 255)" stroke-width="2.40" stroke-opacity="1.00" stroke-linejoin="round"/>
<path d="M28.46,272.44 C28.46,272.44 27.20,271.49 27.20,271.49 C26.31,273.38 25.45,312.49 25.31,327.75 C25.35,335.65 25.50,350.65 25.62,357.75 C25.92,366.60 29.07,392.84 30.35,402.19" fill="none" stroke="rgb(255, 0, 255)" stroke-width="2.40" stroke-opacity="1.00" stroke-linejoin="round"/>
<path d="M35.39,264.88 C34.35,268.06 32.60,283.03 31.89,289.47 C30.25,306.96 29.29,331.29 29.14,345.78 C29.18,357.54 29.44,363.54 29.72,365.97" fill="none" stroke="rgb(255, 0, 255)" stroke-width="2.40" stroke-opacity="1.00" stroke-linejoin="round"/>
<path d="M42.01,264.56 C42.01,264.56 40.90,262.36 40.90,262.36 C40.56,264.03 39.81,281.69 39.65,290.99 C39.58,306.38 39.59,338.36 40.03,348.58 C40.42,355.92 41.62,370.45 42.29,377.55 C42.62,380.54 43.37,386.75 43.78,389.97" fill="none" stroke="rgb(255, 0, 255)" stroke-width="2.40" stroke-opacity="1.00" stroke-linejoin="round"/>
<path d="M45.15,327.55 C44.83,331.13 45.08,348.36 45.53,353.11 C46.82,365.36 50.59,385.21 51.52,390.07" fill="none" stroke="rgb(255, 0, 255)" stroke-width="2.40" stroke-opacity="1.00" stroke-linejoin="round"/>
<path d="M53.03,329.44 C51.65,331.99 51.53,335.97 51.54,341.26 C51.65,350.89 54.22,381.27 54.74,385.08 C55.28,389.00 55.75,391.16 56.34,393.53" fill="none" stroke="rgb(255, 0, 255)" stroke-width="2.40" stroke-opacity="1.00" stroke-linejoin="round"/>
<path d="M57.44,333.22 C57.44,333.22 56.96,332.75 56.96,332.75 C56.72,333.05 57.78,349.79 58.28,357.00 C59.81,373.74 62.15,388.00 62.79,390.53" fill="none" stroke="rgb(255, 0, 255)" stroke-width="2.40" stroke-opacity="1.00" stroke-linejoin="round"/>
<path d="M65.63,333.85 C64.67,336.94 64.78,344.38 64.86,346.85 C65.28,356.54 67.34,385.75 67.65,388.44 C67.65,388.44 68.35,389.15 68.35,389.15" fill="none" stroke="rgb(255, 0, 255)" stroke-width="2.40" stroke-opacity="1.00" stroke-linejoin="round"/>
<path d="M70.35,329.12 C69.78,339.61 69.82,344.52 70.45,355.86 C70.94,363.00 72.25,376.13 73.02,382.98 C73.56,387.40 74.47,394.86 74.85,397.91" fill="none" stroke="rgb(255, 0, 255)" stroke-width="2.40" stroke-opacity="1.00" stroke-linejoin="round"/>
<path d="M62.48,262.04 C62.11,264.35 60.65,281.88 59.96,290.31 C59.38,298.24 58.44,313.66 58.64,316.21 C58.67,316.59 58.74,317.15 58.83,317.89" fill="none" stroke="rgb(255, 0, 255)" stroke-width="2.40" stroke-opacity="1.00" stroke-linejoin="round"/>
<path d="M53.97,267.08 C53.31,269.21 53.04,270.60 53.10,272.05 C53.20,274.50 53.81,278.36 53.97,279.37" fill="none" stroke="rgb(255, 0, 255)" stroke-width="2.40" stroke-opacity="1.00" stroke-linejoin="round"/>
<path d="M50.19,299.52 C50.19,299.52 49.88,298.02 49.88,298.02 C49.88,298.02 52.08,325.66 52.08,325.66" fill="none" stroke="rgb(255, 0, 255)" stroke-width="2.40" stroke-opacity="1.00" stroke-linejoin="round"/>
<path d="M45.78,294.17 C45.70,294.76 45.65,295.18 45.63,295.43 C45.53,296.58 45.45,301.08 45.46,304.75 C45.47,311.97 45.47,320.38 45.47,321.57" fill="none" stroke="rgb(255, 0, 255)" stroke-width="2.40" stroke-opacity="1.00" stroke-linejoin="round"/>
<path d="M46.10,271.49 C45.87,275.26 45.73,280.96 45.86,283.60 C45.89,284.14 45.97,285.25 46.10,286.92" fill="none" stroke="rgb(255, 0, 255)" stroke-width="2.40" stroke-opacity="1.00" stroke-linejoin="round"/>
<path d="M68.46,265.82 C68.46,265.82 67.99,265.67 67.99,265.67 C67.19,267.51 67.36,283.41 67.51,291.20 C68.02,305.16 69.63,322.18 69.89,324.84" fill="none" stroke="rgb(255, 0, 255)" stroke-width="2.40" stroke-opacity="1.00" stroke-linejoin="round"/>
<path d="M76.02,280.94 C76.02,280.94 75.07,281.26 75.07,281.26 C74.01,283.40 73.68,284.30 73.68,285.41 C73.57,289.95 73.53,305.50 73.52,314.30 C73.55,327.35 73.84,336.92 74.65,343.56 C74.89,345.53 75.01,346.32 75.22,347.44" fill="none" stroke="rgb(255, 0, 255)" stroke-width="2.40" stroke-opacity="1.00" stroke-linejoin="round"/>
<path d="M82.95,286.92 C82.95,286.92 82.16,287.40 82.16,287.40 C81.98,288.58 82.52,305.08 82.75,312.39 C82.95,327.93 83.18,346.55 83.21,349.62" fill="none" stroke="rgb(255, 0, 255)" stroke-width="2.40" stroke-opacity="1.00" stroke-linejoin="round"/>
<path d="M81.69,352.11 C81.38,359.62 82.27,375.24 82.74,378.91 C84.20,390.01 84.78,392.80 86.24,396.98" fill="none" stroke="rgb(255, 0, 255)" stroke-width="2.40" stroke-opacity="1.00" stroke-linejoin="round"/>
<path d="M89.56,328.18 C88.41,329.73 87.65,332.12 87.47,334.65 C87.27,337.81 87.04,354.93 87.14,362.36 C87.42,372.77 88.06,382.92 89.00,389.28 C90.09,396.45 91.70,402.88 92.31,405.03" fill="none" stroke="rgb(255, 0, 255)" stroke-width="2.40" stroke-opacity="1.00" stroke-linejoin="round"/>
<path d="M95.86,339.52 C94.77,343.91 94.61,352.45 94.97,362.68 C96.21,385.40 97.27,393.18 97.39,394.04" fill="none" stroke="rgb(255, 0, 255)" stroke-width="2.40" stroke-opacity="1.00" stroke-linejoin="round"/>
<path d="M103.73,345.19 C103.73,345.19 103.26,345.19 103.26,345.19 C102.31,346.47 102.11,352.18 102.21,355.57 C102.47,362.23 103.61,377.69 103.92,380.22 C104.38,383.83 104.88,385.51 105.33,386.69" fill="none" stroke="rgb(255, 0, 255)" stroke-width="2.40" stroke-opacity="1.00" stroke-linejoin="round"/>
<path d="M107.83,340.15 C107.75,343.92 108.89,360.34 109.51,369.18 C110.08,376.92 110.93,388.61 111.27,389.80 C111.40,390.22 111.70,390.99 112.19,392.11" fill="none" stroke="rgb(255, 0, 255)" stroke-width="2.40" stroke-opacity="1.00" stroke-linejoin="round"/>
<path d="M115.07,339.20 C115.07,339.20 114.28,339.36 114.28,339.36 C113.13,341.43 113.59,346.77 113.81,349.15 C114.14,352.47 117.05,371.20 118.27,379.02 C118.75,382.22 119.37,386.20 119.64,387.37" fill="none" stroke="rgb(255, 0, 255)" stroke-width="2.40" stroke-opacity="1.00" stroke-linejoin="round"/>
<path d="M124.52,309.91 C123.95,313.51 122.51,350.98 121.95,366.67 C121.84,372.92 121.96,378.50 122.00,379.33 C122.17,382.36 122.53,384.36 123.11,387.15" fill="none" stroke="rgb(255, 0, 255)" stroke-width="2.40" stroke-opacity="1.00" stroke-linejoin="round"/>
<path d="M109.71,273.70 C108.74,278.96 108.28,311.74 108.44,315.54 C108.72,321.61 110.18,328.23 110.44,329.31" fill="none" stroke="rgb(255, 0, 255)" stroke-width="2.40" stroke-opacity="1.00" stroke-linejoin="round"/>
<path d="M98.06,282.83 C98.07,289.86 98.09,306.28 98.10,315.67 C98.11,318.78 98.19,325.43 98.41,326.84 C98.62,328.08 98.82,329.32 99.03,330.57" fill="none" stroke="rgb(255, 0, 255)" stroke-width="2.40" stroke-opacity="1.00" stroke-linejoin="round"/>
<path d="M88.30,283.77 C88.30,283.77 87.98,283.77 87.98,283.77 C87.71,285.36 88.98,303.43 89.44,310.85 C89.94,318.24 91.53,335.53 91.72,336.85" fill="none" stroke="rgb(255, 0, 255)" stroke-width="2.40" stroke-opacity="1.00" stroke-linejoin="round"/>
<path d="M122.00,267.40 C120.91,267.99 119.85,270.06 119.40,274.26 C119.03,277.82 118.99,299.46 119.11,302.85 C119.38,309.95 120.67,318.89 120.86,320.17" fill="none" stroke="rgb(255, 0, 255)" stroke-width="2.40" stroke-opacity="1.00" stroke-linejoin="round"/>
<path d="M131.44,262.67 C130.04,265.13 129.41,268.94 129.33,272.92 C129.27,277.47 129.65,293.64 129.87,300.75 C129.99,303.29 131.47,319.54 131.69,321.53" fill="none" stroke="rgb(255, 0, 255)" stroke-width="2.40" stroke-opacity="1.00" stroke-linejoin="round"/>
<path d="M139.95,261.10 C140.00,262.47 140.40,266.65 140.51,269.11 C140.67,273.50 138.67,321.40 138.78,330.84 C139.02,338.21 139.29,346.71 139.33,347.83" fill="none" stroke="rgb(255, 0, 255)" stroke-width="2.40" stroke-opacity="1.00" stroke-linejoin="round"/>
<path d="M145.30,303.93 C144.97,306.79 144.17,324.10 143.69,331.62 C142.24,353.52 141.89,370.45 142.94,381.74 C144.05,392.37 145.25,400.55 146.82,408.98" fill="none" stroke="rgb(255, 0, 255)" stroke-width="2.40" stroke-opacity="1.00" stroke-linejoin="round"/>
<path d="M137.43,342.98 C136.90,346.98 138.27,363.99 139.17,371.99 C139.63,375.34 140.60,382.00 141.11,385.32 C141.73,389.15 143.06,395.67 143.68,398.65" fill="none" stroke="rgb(255, 0, 255)" stroke-width="2.40" stroke-opacity="1.00" stroke-linejoin="round"/>
<path d="M127.67,329.44 C126.63,332.61 126.92,347.79 127.12,356.01 C127.34,364.12 127.95,383.18 128.28,386.15 C128.51,388.19 129.41,391.91 130.17,394.51" fill="none" stroke="rgb(255, 0, 255)" stroke-width="2.40" stroke-opacity="1.00" stroke-linejoin="round"/>
<path d="M135.22,363.77 C135.22,363.77 135.54,363.14 135.54,363.14" fill="none" stroke="rgb(255, 0, 255)" stroke-width="2.40" stroke-opacity="1.00" stroke-linejoin="round"/>
<path d="M136.17,362.51 C135.31,362.95 133.93,366.41 132.65,370.65 C129.61,380.48 128.12,386.23 126.23,396.16 C125.16,402.72 122.96,419.03 121.92,427.11 C121.43,431.70 121.08,447.28 121.18,454.73 C121.30,459.34 122.45,475.45 123.51,484.50 C126.57,508.11 127.93,515.26 128.61,518.71" fill="none" stroke="rgb(255, 0, 255)" stroke-width="2.40" stroke-opacity="1.00" stroke-linejoin="round"/>
<path d="M127.04,404.08 C126.10,404.89 124.21,408.64 123.87,411.24 C123.57,413.71 123.74,430.31 123.91,436.87 C124.54,449.85 127.32,474.14 130.43,492.01 C131.84,499.32 134.83,514.20 136.55,521.84 C138.63,530.52 142.32,541.15 145.39,546.19 C146.10,547.35 147.34,549.21 148.07,550.28" fill="none" stroke="rgb(255, 0, 255)" stroke-width="2.40" stroke-opacity="1.00" stroke-linejoin="round"/>
<path d="M128.93,512.73 C128.94,516.29 129.25,519.95 130.16,523.17 C130.97,525.95 139.60,545.93 140.94,548.69 C141.23,549.28 142.09,551.05 143.06,553.27" fill="none" stroke="rgb(255, 0, 255)" stroke-width="2.40" stroke-opacity="1.00" stroke-linejoin="round"/>
<path d="M110.34,404.08 C110.34,404.08 109.09,404.17 109.09,404.17 C107.99,406.64 108.02,441.40 108.91,453.88 C110.14,467.43 114.05,490.82 118.04,507.64 C121.67,521.90 127.42,543.87 130.45,551.43" fill="none" stroke="rgb(255, 0, 255)" stroke-width="2.40" stroke-opacity="1.00" stroke-linejoin="round"/>
<path d="M96.80,402.82 C96.80,402.82 95.86,401.45 95.86,401.45 C96.10,413.03 97.77,444.84 98.85,455.11 C101.13,473.95 105.71,500.15 108.36,514.55 C114.82,547.31 115.00,548.11 115.37,549.41" fill="none" stroke="rgb(255, 0, 255)" stroke-width="2.40" stroke-opacity="1.00" stroke-linejoin="round"/>
<path d="M91.45,400.61 C91.45,400.61 90.98,399.12 90.98,399.12 C90.77,399.06 89.08,404.02 89.25,424.92 C89.76,447.79 94.82,489.87 95.79,498.04 C96.57,505.37 97.46,513.75 97.57,514.81" fill="none" stroke="rgb(255, 0, 255)" stroke-width="2.40" stroke-opacity="1.00" stroke-linejoin="round"/>
<path d="M86.10,391.16 C85.86,394.06 85.67,399.24 85.58,404.11 C85.48,417.72 87.06,443.37 89.06,461.11 C91.08,475.94 95.81,505.20 98.53,519.96 C99.19,523.22 101.17,530.77 101.63,531.73 C101.74,531.95 101.90,532.06 102.11,532.03" fill="none" stroke="rgb(255, 0, 255)" stroke-width="2.40" stroke-opacity="1.00" stroke-linejoin="round"/>
<path d="M81.37,393.37 C81.37,393.37 81.27,390.51 81.27,390.51 C80.30,396.22 80.38,430.12 81.26,444.04 C81.81,451.36 83.33,466.29 84.33,473.92 C85.54,481.63 87.74,495.24 88.61,499.81" fill="none" stroke="rgb(255, 0, 255)" stroke-width="2.40" stroke-opacity="1.00" stroke-linejoin="round"/>
<path d="M78.54,398.41 C78.54,398.41 78.85,395.10 78.85,395.10 C77.61,399.14 76.48,412.71 76.09,419.47 C75.73,429.70 75.93,463.00 76.47,473.26 C77.01,480.91 78.24,495.41 78.93,502.27 C79.97,510.85 81.44,520.15 81.91,522.98" fill="none" stroke="rgb(255, 0, 255)" stroke-width="2.40" stroke-opacity="1.00" stroke-linejoin="round"/>
<path d="M74.44,392.74 C73.50,393.43 72.18,396.62 71.56,400.60 C70.98,404.56 70.06,419.28 69.70,425.89 C69.36,439.07 70.63,468.44 72.00,481.72 C73.84,496.67 80.22,521.53 83.71,534.89 C84.89,539.09 87.10,545.27 88.85,548.97 C89.84,551.03 92.17,555.26 92.63,556.10" fill="none" stroke="rgb(255, 0, 255)" stroke-width="2.40" stroke-opacity="1.00" stroke-linejoin="round"/>
<path d="M90.50,555.87 C88.46,554.55 85.13,547.74 82.06,539.14 C79.42,531.75 75.64,521.20 73.21,513.47 C70.86,505.24 67.78,492.40 66.20,484.69 C65.09,478.78 62.38,459.87 61.85,454.31 C60.70,440.21 61.11,426.29 61.29,422.67" fill="none" stroke="rgb(255, 0, 255)" stroke-width="2.40" stroke-opacity="1.00" stroke-linejoin="round"/>
<path d="M64.37,410.38 C63.39,413.03 63.06,422.00 63.22,432.52 C63.65,450.67 65.20,470.98 67.63,491.70 C69.64,507.45 71.77,524.37 71.89,525.53" fill="none" stroke="rgb(255, 0, 255)" stroke-width="2.40" stroke-opacity="1.00" stroke-linejoin="round"/>
<path d="M62.16,459.50 C61.16,463.17 61.29,473.83 62.19,485.34 C63.22,495.64 68.05,530.25 70.20,545.22 C71.41,552.86 73.60,566.18 74.44,569.41" fill="none" stroke="rgb(255, 0, 255)" stroke-width="2.40" stroke-opacity="1.00" stroke-linejoin="round"/>
<path d="M54.92,439.35 C54.29,441.71 53.96,443.56 53.76,446.25 C53.29,453.26 53.23,466.29 53.38,473.39 C53.97,486.23 57.26,516.21 59.07,531.03 C62.37,553.87 64.18,558.52 65.00,560.28" fill="none" stroke="rgb(255, 0, 255)" stroke-width="2.40" stroke-opacity="1.00" stroke-linejoin="round"/>
<path d="M48.30,419.19 C47.65,428.95 46.80,436.60 46.43,444.31 C45.85,460.02 46.23,482.49 47.78,495.34 C48.23,498.93 51.44,517.26 52.75,524.60 C53.28,527.35 56.28,546.33 56.81,550.52" fill="none" stroke="rgb(255, 0, 255)" stroke-width="2.40" stroke-opacity="1.00" stroke-linejoin="round"/>
<path d="M41.38,464.23 C40.32,473.31 40.67,497.27 42.26,520.99 C42.77,528.26 43.83,542.36 44.37,549.19 C45.05,555.43 46.08,563.44 46.22,564.51" fill="none" stroke="rgb(255, 0, 255)" stroke-width="2.40" stroke-opacity="1.00" stroke-linejoin="round"/>
<path d="M152.23,304.56 C152.23,304.56 151.76,303.93 151.76,303.93 C151.02,306.39 149.95,319.69 149.55,331.13 C149.16,347.05 150.61,372.46 152.81,385.61 C154.03,392.52 156.37,398.71 157.80,401.43" fill="none" stroke="rgb(255, 0, 255)" stroke-width="2.40" stroke-opacity="1.00" stroke-linejoin="round"/>
<path d="M172.07,267.40 C170.00,269.34 169.03,270.12 168.27,270.44 C167.12,270.97 165.44,274.54 164.28,278.01 C163.25,281.25 160.58,294.15 159.61,300.68 C158.79,306.88 157.58,318.94 157.03,328.24 C156.68,337.99 156.78,351.77 157.08,359.37 C158.05,375.35 160.68,389.21 161.29,391.95" fill="none" stroke="rgb(255, 0, 255)" stroke-width="2.40" stroke-opacity="1.00" stroke-linejoin="round"/>
<path d="M153.80,262.36 C153.80,262.36 153.49,258.50 153.49,258.50 C153.11,273.27 152.68,295.37 152.97,301.40 C153.17,304.27 153.52,306.38 154.01,309.06" fill="none" stroke="rgb(255, 0, 255)" stroke-width="2.40" stroke-opacity="1.00" stroke-linejoin="round"/>
<path d="M164.51,263.30 C163.20,264.60 162.65,265.52 162.62,266.66 C162.46,274.52 164.37,301.78 164.72,304.37 C164.86,305.36 165.68,309.80 165.86,310.80" fill="none" stroke="rgb(255, 0, 255)" stroke-width="2.40" stroke-opacity="1.00" stroke-linejoin="round"/>
<path d="M167.35,304.87 C167.35,304.87 166.40,305.19 166.40,305.19 C168.66,299.46 171.06,290.86 172.20,284.87 C172.86,281.33 176.95,256.05 177.19,254.73" fill="none" stroke="rgb(255, 0, 255)" stroke-width="2.40" stroke-opacity="1.00" stroke-linejoin="round"/>
<path d="M174.90,257.64 C175.16,264.99 175.69,280.22 175.96,288.10 C176.04,291.44 176.44,300.45 176.65,302.06 C177.23,306.35 178.19,308.69 178.84,309.84" fill="none" stroke="rgb(255, 0, 255)" stroke-width="2.40" stroke-opacity="1.00" stroke-linejoin="round"/>
<path d="M189.71,271.18 C189.71,271.18 190.02,268.55 190.02,268.55 C189.84,272.08 189.50,279.05 189.33,282.50 C189.19,285.78 189.56,290.69 190.24,295.46" fill="none" stroke="rgb(255, 0, 255)" stroke-width="2.40" stroke-opacity="1.00" stroke-linejoin="round"/>
<path d="M197.26,270.55 C197.26,270.55 195.37,269.92 195.37,269.92 C194.79,270.66 194.83,290.17 196.24,300.65 C196.24,300.65 195.95,300.75 195.95,300.75 C195.57,299.72 195.18,297.77 195.19,296.11 C195.25,292.11 200.51,274.39 202.62,267.40" fill="none" stroke="rgb(255, 0, 255)" stroke-width="2.40" stroke-opacity="1.00" stroke-linejoin="round"/>
<path d="M206.40,268.97 C206.36,270.99 203.99,300.97 203.73,308.92 C203.66,312.65 203.58,319.03 203.56,321.69" fill="none" stroke="rgb(255, 0, 255)" stroke-width="2.40" stroke-opacity="1.00" stroke-linejoin="round"/>
<path d="M191.60,288.81 C190.51,289.08 190.32,297.30 190.39,309.32 C190.54,316.58 191.14,329.27 191.78,336.81 C192.56,344.19 195.13,360.39 196.73,367.02 C198.17,372.96 201.12,379.79 201.64,381.00" fill="none" stroke="rgb(255, 0, 255)" stroke-width="2.40" stroke-opacity="1.00" stroke-linejoin="round"/>
<path d="M199.47,308.65 C199.47,308.65 197.50,308.97 197.50,308.97 C196.50,310.28 195.92,311.71 195.58,314.23 C194.75,320.43 194.46,335.08 194.90,341.78 C195.72,353.96 200.38,377.80 201.69,382.22 C202.13,383.70 203.84,387.96 204.26,389.01" fill="none" stroke="rgb(255, 0, 255)" stroke-width="2.40" stroke-opacity="1.00" stroke-linejoin="round"/>
<path d="M203.56,317.47 C202.58,318.20 202.73,331.14 203.34,339.94 C204.19,350.72 206.07,363.67 207.46,369.79 C208.77,375.49 211.88,384.79 213.60,388.55 C214.44,390.39 215.39,392.11 216.30,393.59" fill="none" stroke="rgb(255, 0, 255)" stroke-width="2.40" stroke-opacity="1.00" stroke-linejoin="round"/>
<path d="M207.97,321.57 C207.94,330.02 208.56,337.96 209.85,345.51 C211.22,353.03 213.83,367.51 215.06,374.47 C215.98,380.02 216.89,384.62 217.70,387.86" fill="none" stroke="rgb(255, 0, 255)" stroke-width="2.40" stroke-opacity="1.00" stroke-linejoin="round"/>
<path d="M184.04,292.28 C183.16,292.45 182.08,294.89 181.92,298.26 C181.85,300.10 181.61,320.32 181.76,325.11 C182.23,334.44 183.42,347.75 184.53,355.11 C186.12,364.81 190.81,386.00 191.33,387.81 C191.72,389.10 192.43,391.48 192.75,392.56" fill="none" stroke="rgb(255, 0, 255)" stroke-width="2.40" stroke-opacity="1.00" stroke-linejoin="round"/>
<path d="M182.15,301.10 C182.15,301.10 181.12,299.68 181.12,299.68 C179.45,301.30 178.82,304.51 178.33,307.75 C177.30,315.05 176.30,328.55 176.11,333.27 C175.95,340.00 176.17,355.54 176.62,361.46 C177.14,368.21 179.40,383.26 180.63,388.28 C181.59,392.12 183.32,396.45 185.39,400.77" fill="none" stroke="rgb(255, 0, 255)" stroke-width="2.40" stroke-opacity="1.00" stroke-linejoin="round"/>
<path d="M163.88,311.80 C163.88,311.80 163.57,311.17 163.57,311.17 C163.29,313.43 164.37,329.52 164.95,337.70 C165.22,340.76 167.31,358.31 168.42,363.99 C169.80,370.94 173.65,383.57 176.16,390.35" fill="none" stroke="rgb(255, 0, 255)" stroke-width="2.40" stroke-opacity="1.00" stroke-linejoin="round"/>
<path d="M216.79,289.44 C216.79,289.44 216.16,289.29 216.16,289.29 C215.27,291.83 215.31,297.26 215.31,298.84 C215.41,304.10 216.04,317.65 216.46,325.06 C216.93,331.20 218.47,344.75 220.04,354.75 C221.94,366.14 228.23,388.59 228.94,389.75 C229.13,390.05 229.66,390.81 230.53,392.02" fill="none" stroke="rgb(255, 0, 255)" stroke-width="2.40" stroke-opacity="1.00" stroke-linejoin="round"/>
<path d="M223.72,341.41 C223.98,345.91 224.69,349.32 225.65,353.27 C228.49,364.51 233.06,379.34 233.94,381.50 C234.42,382.66 236.31,386.08 236.74,386.87" fill="none" stroke="rgb(255, 0, 255)" stroke-width="2.40" stroke-opacity="1.00" stroke-linejoin="round"/>
<path d="M230.33,295.43 C230.33,295.43 229.75,291.57 229.75,291.57 C228.73,292.93 228.33,311.08 228.41,314.57 C228.75,322.95 229.96,336.78 230.91,344.36 C231.86,351.16 234.96,365.17 236.39,369.46 C238.91,376.68 240.62,379.07 241.47,380.06" fill="none" stroke="rgb(255, 0, 255)" stroke-width="2.40" stroke-opacity="1.00" stroke-linejoin="round"/>
<path d="M221.83,266.45 C221.12,267.04 220.57,270.02 220.56,274.56 C220.60,296.61 221.45,303.42 221.70,304.46 C221.80,304.91 222.11,306.14 222.62,308.14" fill="none" stroke="rgb(255, 0, 255)" stroke-width="2.40" stroke-opacity="1.00" stroke-linejoin="round"/>
<path d="M213.01,268.03 C212.61,271.78 212.55,275.01 212.78,278.37 C213.48,287.00 214.59,296.29 215.72,301.27" fill="none" stroke="rgb(255, 0, 255)" stroke-width="2.40" stroke-opacity="1.00" stroke-linejoin="round"/>
<path d="M230.33,268.97 C230.17,271.55 229.83,277.50 229.79,281.37 C229.75,286.18 230.07,291.45 230.55,293.79 C230.72,294.60 230.89,295.41 231.07,296.22" fill="none" stroke="rgb(255, 0, 255)" stroke-width="2.40" stroke-opacity="1.00" stroke-linejoin="round"/>
<path d="M234.43,270.23 C234.29,270.49 234.18,270.75 234.11,271.02 C233.78,272.34 233.54,274.75 233.51,277.35 C233.46,282.32 233.87,288.89 234.57,292.84 C234.73,293.70 234.90,294.56 235.06,295.42" fill="none" stroke="rgb(255, 0, 255)" stroke-width="2.40" stroke-opacity="1.00" stroke-linejoin="round"/>
<path d="M238.21,273.07 C238.21,273.07 237.89,270.55 237.89,270.55 C238.93,273.82 240.36,278.73 241.26,281.80 C242.30,285.22 244.11,291.13 245.16,294.12" fill="none" stroke="rgb(255, 0, 255)" stroke-width="2.40" stroke-opacity="1.00" stroke-linejoin="round"/>
<path d="M246.08,272.12 C246.08,272.12 244.82,272.67 244.82,272.67 C245.16,273.70 245.73,275.38 245.99,275.98 C246.60,277.38 249.88,284.28 251.31,287.27" fill="none" stroke="rgb(255, 0, 255)" stroke-width="2.40" stroke-opacity="1.00" stroke-linejoin="round"/>
<path d="M260.56,269.92 C259.79,269.61 260.61,280.18 261.59,285.93 C262.09,288.78 263.49,295.08 263.79,296.14 C264.89,299.98 266.73,304.09 267.31,305.24" fill="none" stroke="rgb(255, 0, 255)" stroke-width="2.40" stroke-opacity="1.00" stroke-linejoin="round"/>
<path d="M270.96,271.18 C270.96,271.18 270.49,269.76 270.49,269.76 C270.34,271.45 271.76,287.90 272.59,292.78 C273.25,296.54 274.47,300.77 275.62,303.58" fill="none" stroke="rgb(255, 0, 255)" stroke-width="2.40" stroke-opacity="1.00" stroke-linejoin="round"/>
<path d="M282.61,270.86 C281.45,274.30 281.48,286.53 282.10,291.98 C282.48,295.23 283.94,302.67 284.62,306.03" fill="none" stroke="rgb(255, 0, 255)" stroke-width="2.40" stroke-opacity="1.00" stroke-linejoin="round"/>
<path d="M291.74,273.70 C291.74,273.70 291.11,271.96 291.11,271.96 C291.11,274.59 291.12,280.59 291.14,283.95 C291.29,292.41 292.03,299.77 292.58,303.35" fill="none" stroke="rgb(255, 0, 255)" stroke-width="2.40" stroke-opacity="1.00" stroke-linejoin="round"/>
<path d="M298.36,274.33 C298.30,289.67 300.05,304.01 300.77,305.24 C301.47,304.75 301.73,301.02 301.81,294.38 C301.88,287.48 303.12,276.11 304.43,272.33 C305.46,273.14 305.62,278.48 305.70,280.49 C306.09,289.55 306.89,298.13 307.10,299.65 C307.33,301.38 307.76,304.10 308.04,305.68" fill="none" stroke="rgb(255, 0, 255)" stroke-width="2.40" stroke-opacity="1.00" stroke-linejoin="round"/>
<path d="M315.05,268.66 C315.00,270.93 315.22,274.99 315.68,281.12 C316.04,285.67 316.67,293.74 316.94,297.27 C317.11,299.77 317.50,305.51 317.78,307.93" fill="none" stroke="rgb(255, 0, 255)" stroke-width="2.40" stroke-opacity="1.00" stroke-linejoin="round"/>
<path d="M324.18,272.12 C323.13,274.37 323.00,278.37 322.97,283.63 C322.95,287.51 322.93,294.86 322.92,298.33 C322.92,302.29 322.92,308.53 322.92,310.81" fill="none" stroke="rgb(255, 0, 255)" stroke-width="2.40" stroke-opacity="1.00" stroke-linejoin="round"/>
<path d="M302.77,294.80 C302.77,294.80 302.77,294.64 302.77,294.64 C302.41,295.67 302.50,312.05 302.55,319.25 C303.03,337.82 308.11,382.32 308.85,388.89 C309.57,394.50 311.76,403.50 311.98,404.36" fill="none" stroke="rgb(255, 0, 255)" stroke-width="2.40" stroke-opacity="1.00" stroke-linejoin="round"/>
<path d="M307.49,347.07 C307.09,354.08 307.42,360.10 308.72,369.67 C311.95,393.72 312.60,400.90 312.68,402.19" fill="none" stroke="rgb(255, 0, 255)" stroke-width="2.40" stroke-opacity="1.00" stroke-linejoin="round"/>
<path d="M294.58,331.96 C294.58,331.96 293.95,331.41 293.95,331.41 C294.35,349.47 303.72,391.39 305.44,396.98 C306.84,401.51 307.84,403.57 308.62,404.85" fill="none" stroke="rgb(255, 0, 255)" stroke-width="2.40" stroke-opacity="1.00" stroke-linejoin="round"/>
<path d="M296.47,363.14 C296.47,366.51 296.51,373.92 296.53,377.96 C296.74,387.05 296.46,396.98 296.05,398.83 C295.94,399.29 295.67,400.17 295.24,401.46" fill="none" stroke="rgb(255, 0, 255)" stroke-width="2.40" stroke-opacity="1.00" stroke-linejoin="round"/>
<path d="M284.50,363.45 C286.47,376.01 288.17,384.67 289.91,389.79 C290.40,391.21 292.42,395.34 292.95,396.41" fill="none" stroke="rgb(255, 0, 255)" stroke-width="2.40" stroke-opacity="1.00" stroke-linejoin="round"/>
<path d="M312.21,293.22 C311.43,294.66 311.24,298.25 311.15,303.53 C311.09,311.24 311.14,326.44 311.25,333.92 C311.80,349.17 313.98,364.21 314.15,365.45" fill="none" stroke="rgb(255, 0, 255)" stroke-width="2.40" stroke-opacity="1.00" stroke-linejoin="round"/>
<path d="M322.61,306.13 C322.61,306.13 322.13,305.03 322.13,305.03 C321.45,306.35 321.38,316.44 321.58,324.36 C321.84,331.73 322.91,347.67 323.52,355.54 C324.87,369.68 328.73,386.54 330.85,392.06 C331.86,394.66 333.78,398.73 335.85,402.91" fill="none" stroke="rgb(255, 0, 255)" stroke-width="2.40" stroke-opacity="1.00" stroke-linejoin="round"/>
<path d="M335.20,265.51 C334.86,268.83 334.86,288.48 334.72,296.44 C334.56,303.82 334.82,308.94 334.98,311.24" fill="none" stroke="rgb(255, 0, 255)" stroke-width="2.40" stroke-opacity="1.00" stroke-linejoin="round"/>
<path d="M345.28,271.81 C344.32,272.17 343.54,275.14 343.23,280.68 C343.06,284.00 342.67,290.77 342.44,294.22 C341.98,300.07 340.72,307.99 340.56,308.97" fill="none" stroke="rgb(255, 0, 255)" stroke-width="2.40" stroke-opacity="1.00" stroke-linejoin="round"/>
<path d="M352.21,272.12 C351.93,272.05 344.10,316.16 342.80,325.52 C341.81,332.98 341.29,344.51 341.68,348.86 C342.24,354.74 344.17,362.54 344.76,364.74" fill="none" stroke="rgb(255, 0, 255)" stroke-width="2.40" stroke-opacity="1.00" stroke-linejoin="round"/>
<path d="M352.21,279.68 C351.42,282.18 350.34,322.19 350.31,336.04 C350.32,337.13 350.37,339.60 350.40,340.97 C350.45,342.38 350.58,343.22 350.85,344.19" fill="none" stroke="rgb(255, 0, 255)" stroke-width="2.40" stroke-opacity="1.00" stroke-linejoin="round"/>
<path d="M358.82,258.27 C357.82,262.28 357.54,267.44 357.35,270.53 C356.88,282.52 356.55,310.17 356.47,316.80 C356.40,320.36 356.14,325.48 356.03,327.82 C356.02,328.40 356.00,328.98 355.99,329.56" fill="none" stroke="rgb(255, 0, 255)" stroke-width="2.40" stroke-opacity="1.00" stroke-linejoin="round"/>
<path d="M364.81,249.13 C362.98,253.51 361.27,266.13 360.97,271.81 C360.75,276.01 360.96,293.32 361.25,300.60 C361.42,304.25 361.75,311.58 361.90,315.28 C361.93,315.99 361.95,316.70 361.97,317.42" fill="none" stroke="rgb(255, 0, 255)" stroke-width="2.40" stroke-opacity="1.00" stroke-linejoin="round"/>
<path d="M368.27,241.57 C368.25,244.06 366.46,279.36 366.38,296.91 C366.38,300.19 366.38,304.48 366.38,305.49" fill="none" stroke="rgb(255, 0, 255)" stroke-width="2.40" stroke-opacity="1.00" stroke-linejoin="round"/>
<path d="M343.08,359.04 C343.06,364.30 344.11,371.70 345.00,381.83 C346.04,394.20 346.85,399.16 347.19,400.12 C347.29,400.41 347.57,401.14 348.04,402.30" fill="none" stroke="rgb(255, 0, 255)" stroke-width="2.40" stroke-opacity="1.00" stroke-linejoin="round"/>
<path d="M335.52,321.57 C334.87,321.94 334.58,323.15 334.57,326.03 C334.59,334.53 335.00,346.29 335.77,352.56 C337.00,362.42 339.70,376.04 341.14,380.86 C341.69,382.69 344.09,388.99 345.03,391.46" fill="none" stroke="rgb(255, 0, 255)" stroke-width="2.40" stroke-opacity="1.00" stroke-linejoin="round"/>
<path d="M320.72,413.84 C319.68,414.86 319.19,416.07 319.14,417.99 C319.16,423.95 318.13,463.66 318.70,473.98 C319.03,479.60 321.04,489.88 323.17,498.05 C325.75,507.56 333.88,531.40 335.42,535.51" fill="none" stroke="rgb(255, 0, 255)" stroke-width="2.40" stroke-opacity="1.00" stroke-linejoin="round"/>
<path d="M310.64,404.08 C310.64,404.08 310.64,403.45 310.64,403.45 C310.63,408.76 310.64,421.88 310.66,429.69 C310.80,437.79 311.33,450.34 311.67,454.51 C313.27,469.99 316.51,485.55 322.54,508.34 C323.68,512.58 327.68,525.48 330.16,531.14 C331.74,534.69 334.24,540.30 334.49,540.83 C334.71,541.28 335.18,542.20 335.90,543.61" fill="none" stroke="rgb(255, 0, 255)" stroke-width="2.40" stroke-opacity="1.00" stroke-linejoin="round"/>
<path d="M331.74,407.86 C331.74,407.86 331.27,407.86 331.27,407.86 C331.27,407.86 330.48,408.60 330.48,408.60 C329.78,412.61 329.63,428.43 329.63,436.25 C329.89,448.35 331.50,467.04 332.44,473.75 C333.22,478.98 334.20,483.62 335.22,487.10" fill="none" stroke="rgb(255, 0, 255)" stroke-width="2.40" stroke-opacity="1.00" stroke-linejoin="round"/>
<path d="M337.41,423.92 C337.41,423.92 336.46,422.50 336.46,422.50 C336.17,430.19 336.34,467.95 336.46,482.14 C336.64,488.94 337.17,506.00 337.36,508.42 C337.54,510.67 338.38,513.60 338.76,514.69" fill="none" stroke="rgb(255, 0, 255)" stroke-width="2.40" stroke-opacity="1.00" stroke-linejoin="round"/>
<path d="M340.24,433.99 C340.24,433.99 339.66,434.26 339.66,434.26 C339.28,435.39 339.31,438.77 339.44,442.31 C339.73,449.42 340.65,466.56 340.80,469.86 C340.83,471.03 340.88,472.49 340.87,472.52 C340.87,471.87 340.87,471.23 340.87,470.58 C340.87,468.30 340.95,462.65 341.03,459.28 C341.16,455.69 341.40,448.32 341.40,444.49 C341.40,440.63 341.09,432.08 341.05,429.74 C340.96,423.51 341.57,412.92 341.64,411.74" fill="none" stroke="rgb(255, 0, 255)" stroke-width="2.40" stroke-opacity="1.00" stroke-linejoin="round"/>
<path d="M208.29,433.36 C208.04,433.55 207.71,436.31 207.73,439.68 C207.85,450.42 209.80,478.24 212.11,496.25 C213.15,503.70 215.13,518.77 215.35,524.67 C215.41,526.83 215.50,530.38 215.53,531.78" fill="none" stroke="rgb(255, 0, 255)" stroke-width="2.40" stroke-opacity="1.00" stroke-linejoin="round"/>
<path d="M203.56,451.95 C203.56,451.95 203.25,452.10 203.25,452.10 C202.14,454.01 206.38,486.13 209.28,500.01 C210.05,503.44 211.54,509.67 212.34,513.05 C213.18,516.68 214.29,521.45 214.55,522.59" fill="none" stroke="rgb(255, 0, 255)" stroke-width="2.40" stroke-opacity="1.00" stroke-linejoin="round"/>
<path d="M208.60,524.69 C208.60,524.69 208.60,526.43 208.60,526.43 C208.52,526.43 200.19,503.81 193.60,478.65 C191.27,468.96 189.63,460.58 188.14,450.90 C186.92,442.66 185.21,420.98 184.98,417.62" fill="none" stroke="rgb(255, 0, 255)" stroke-width="2.40" stroke-opacity="1.00" stroke-linejoin="round"/>
<path d="M180.89,399.35 C179.57,401.29 179.32,415.07 179.62,422.38 C179.86,426.69 181.02,438.21 182.48,447.91 C183.67,454.87 192.47,495.46 194.86,504.82 C196.84,512.25 199.05,518.04 200.73,522.17" fill="none" stroke="rgb(255, 0, 255)" stroke-width="2.40" stroke-opacity="1.00" stroke-linejoin="round"/>
<path d="M195.37,508.32 C194.56,508.78 194.05,509.19 193.96,509.85 C193.60,512.49 196.13,533.70 197.23,538.37 C198.40,543.23 201.12,550.85 201.46,551.80" fill="none" stroke="rgb(255, 0, 255)" stroke-width="2.40" stroke-opacity="1.00" stroke-linejoin="round"/>
<path d="M196.00,543.59 C194.01,541.97 191.95,538.65 190.86,534.69 C188.86,527.25 186.70,519.97 183.05,509.57 C178.85,497.65 175.48,480.05 175.11,477.99" fill="none" stroke="rgb(255, 0, 255)" stroke-width="2.40" stroke-opacity="1.00" stroke-linejoin="round"/>
<path d="M170.50,410.38 C170.50,410.38 169.55,407.23 169.55,407.23 C169.24,407.44 167.41,413.73 167.84,429.38 C168.18,437.57 169.44,450.65 169.98,454.11 C170.59,457.91 174.56,477.51 176.41,485.19 C177.25,488.43 178.34,492.65 178.60,493.64" fill="none" stroke="rgb(255, 0, 255)" stroke-width="2.40" stroke-opacity="1.00" stroke-linejoin="round"/>
<path d="M174.59,425.49 C173.27,429.69 173.63,441.75 174.84,450.55 C175.72,456.34 178.02,469.40 179.60,475.68 C180.50,479.23 182.29,485.30 183.09,487.96" fill="none" stroke="rgb(255, 0, 255)" stroke-width="2.40" stroke-opacity="1.00" stroke-linejoin="round"/>
<path d="M159.16,396.83 C159.16,396.83 157.94,395.67 157.94,395.67 C158.34,398.86 157.31,412.34 156.94,421.54 C156.60,432.91 156.69,438.86 157.33,448.34 C157.63,452.40 159.64,467.82 160.71,474.26 C163.62,489.67 168.26,504.43 170.19,509.21 C172.11,513.95 176.23,522.01 177.05,523.54" fill="none" stroke="rgb(255, 0, 255)" stroke-width="2.40" stroke-opacity="1.00" stroke-linejoin="round"/>
<path d="M151.92,402.19 C150.59,406.80 150.89,422.41 151.12,427.92 C151.46,433.69 152.59,446.59 153.25,453.06 C153.70,456.81 156.62,473.61 157.98,481.08 C159.55,488.46 163.23,505.12 164.12,508.35 C165.62,513.80 169.71,525.66 172.71,531.67 C175.52,537.25 178.89,542.56 179.68,543.73" fill="none" stroke="rgb(255, 0, 255)" stroke-width="2.40" stroke-opacity="1.00" stroke-linejoin="round"/>
<path d="M148.14,403.45 C147.98,410.04 147.90,424.01 147.98,431.38 C148.33,444.12 151.40,472.85 153.17,481.64 C154.47,487.84 157.39,498.73 159.55,505.76 C161.17,510.71 164.74,520.12 165.98,523.35" fill="none" stroke="rgb(255, 0, 255)" stroke-width="2.40" stroke-opacity="1.00" stroke-linejoin="round"/>
<path d="M144.67,409.12 C142.96,411.94 142.05,417.30 141.90,420.16 C141.59,426.74 141.76,435.71 142.25,443.67 C142.93,452.94 148.56,485.70 151.92,499.97 C156.08,516.07 160.40,526.24 162.51,530.90" fill="none" stroke="rgb(255, 0, 255)" stroke-width="2.40" stroke-opacity="1.00" stroke-linejoin="round"/>
<path d="M140.89,399.35 C140.30,399.80 139.90,400.12 139.70,400.30 C138.56,401.35 137.94,405.23 137.74,407.14 C137.14,413.08 136.42,426.07 136.43,432.57 C136.49,438.82 137.31,452.31 138.35,459.95 C138.99,464.66 141.49,478.31 143.50,486.88 C144.56,491.15 146.36,498.43 147.12,501.45" fill="none" stroke="rgb(255, 0, 255)" stroke-width="2.40" stroke-opacity="1.00" stroke-linejoin="round"/>
<path d="M137.74,469.90 C137.74,469.90 137.59,468.40 137.59,468.40 C136.57,468.59 140.34,495.62 144.86,518.92 C147.92,535.09 150.63,551.30 150.97,553.67" fill="none" stroke="rgb(255, 0, 255)" stroke-width="2.40" stroke-opacity="1.00" stroke-linejoin="round"/>
<path d="M8.84,556.03 C8.84,556.03 6.52,556.55 6.52,556.55 C7.53,556.81 11.69,556.66 14.62,556.47 C22.18,556.04 45.91,557.97 49.53,557.71 C49.75,557.70 56.10,559.77 58.77,560.80 C62.28,562.13 66.45,562.93 69.70,563.15 C75.90,563.52 91.53,560.56 93.04,560.40 C112.72,558.46 139.18,557.59 155.60,557.05 C162.03,556.70 175.48,556.55 183.60,556.48 C190.77,556.13 204.03,555.61 209.97,556.78 C210.96,556.99 217.37,560.43 220.43,561.33 C225.91,562.88 242.00,564.99 246.48,564.88 C251.96,564.70 257.38,563.60 271.72,559.71 C277.25,558.22 287.29,556.80 294.14,556.55 C308.69,556.37 344.29,555.51 346.57,555.66 C347.06,555.70 347.59,555.82 348.15,556.03" fill="none" stroke="rgb(228, 0, 126)" stroke-width="2.40" stroke-opacity="1.00" stroke-linejoin="round"/>
<path d="M253.17,421.54 C253.20,421.05 253.20,420.72 253.17,420.55 C253.15,420.38 253.05,420.13 252.89,419.81 C252.40,419.33 245.80,419.37 243.01,418.76 C242.14,418.57 239.24,417.75 238.67,417.68 C236.65,417.46 231.85,418.98 229.26,420.57 C226.73,422.16 221.57,425.54 218.65,427.27 C214.83,429.48 210.83,430.74 210.01,430.21 C209.28,429.57 208.88,426.74 209.71,424.18 C211.09,420.03 217.22,411.14 221.40,406.50 C224.00,403.64 228.71,400.28 231.33,399.39 C234.48,398.37 239.94,398.02 242.35,398.94 C244.42,399.79 248.31,403.85 249.66,406.06 C251.58,409.30 253.84,419.85 253.96,420.24 C254.09,420.65 254.31,421.08 254.62,421.54" fill="none" stroke="rgb(229, 0, 16)" stroke-width="2.40" stroke-opacity="1.00" stroke-linejoin="round"/>
<path d="M249.18,419.36" fill="none" stroke="rgb(229, 0, 16)" stroke-width="2.40" stroke-opacity="1.00" stroke-linejoin="round"/>
<path d="M247.37,418.64 C247.37,418.64 246.27,418.58 246.27,418.58 C245.95,418.01 245.39,415.81 243.78,411.75 C241.20,405.62 235.50,401.31 233.79,400.22 C233.70,400.16 233.63,400.13 233.60,400.15" fill="none" stroke="rgb(229, 0, 16)" stroke-width="2.40" stroke-opacity="1.00" stroke-linejoin="round"/>
<path d="M233.60,400.15 C233.60,400.15 233.42,400.15 233.42,400.15 C233.42,400.15 233.23,400.33 233.23,400.33 C233.22,400.33 233.30,402.08 233.37,402.71 C234.32,408.74 234.95,416.52 235.05,417.81 C235.05,417.81 235.05,416.80 235.05,416.80" fill="none" stroke="rgb(229, 0, 16)" stroke-width="2.40" stroke-opacity="1.00" stroke-linejoin="round"/>
<path d="M231.42,401.96 C231.42,401.96 230.91,401.96 230.91,401.96 C230.91,401.96 230.32,401.63 230.32,401.63 C228.39,405.48 226.80,419.15 227.11,421.16 C227.16,421.47 227.35,421.84 227.68,422.26" fill="none" stroke="rgb(229, 0, 16)" stroke-width="2.40" stroke-opacity="1.00" stroke-linejoin="round"/>
<path d="M228.88,402.32 C228.88,402.32 227.25,402.41 227.25,402.41 C226.63,402.93 223.09,407.70 222.15,410.07 C220.21,415.09 218.82,424.05 218.83,424.69 C218.83,425.03 218.88,425.75 218.98,426.86" fill="none" stroke="rgb(229, 0, 16)" stroke-width="2.40" stroke-opacity="1.00" stroke-linejoin="round"/>
<path d="M228.16,422.26 C227.28,423.16 226.76,423.74 226.59,424.01 C226.22,424.63 227.95,456.19 227.16,459.70 C226.60,461.98 225.69,462.54 224.52,463.05 C223.63,463.31 220.48,458.53 219.27,455.20 C218.79,453.84 217.87,450.24 217.39,449.97 C216.12,451.25 214.89,455.86 215.28,458.05 C215.72,460.18 217.97,463.18 219.47,463.90 C220.80,464.50 224.01,464.35 225.27,463.70 C226.58,462.99 228.83,460.39 229.68,458.40 C230.96,455.29 231.05,440.80 231.06,433.36 C231.06,430.36 231.04,421.84 231.06,421.73 C231.09,421.60 231.19,421.33 231.36,420.93" fill="none" stroke="rgb(229, 0, 16)" stroke-width="2.40" stroke-opacity="1.00" stroke-linejoin="round"/>
<path d="M272.02,423.35 C272.02,423.35 271.12,422.99 271.12,422.99 C271.12,422.99 270.57,423.26 270.57,423.26 C270.63,423.89 270.77,425.64 270.86,426.76 C270.96,427.88 271.07,429.00 271.17,430.12" fill="none" stroke="rgb(0, 255, 255)" stroke-width="2.40" stroke-opacity="1.00" stroke-linejoin="round"/>
<path d="M277.10,423.35 C277.10,423.35 276.19,423.63 276.19,423.63 C276.06,424.13 276.00,424.56 276.01,424.92 C276.03,425.65 276.13,426.52 276.33,427.52 C276.39,427.84 276.50,428.17 276.64,428.50" fill="none" stroke="rgb(0, 255, 255)" stroke-width="2.40" stroke-opacity="1.00" stroke-linejoin="round"/>
<path d="M276.01,428.06 C275.75,428.28 274.47,428.92 273.80,429.09 C273.36,429.20 255.41,431.38 253.55,431.50 C250.03,431.66 247.13,431.48 244.47,430.99 C244.47,430.99 244.53,442.28 244.53,442.28 C247.83,441.27 262.52,441.28 263.13,441.22 C263.54,441.18 264.40,441.04 265.74,440.79" fill="none" stroke="rgb(0, 255, 255)" stroke-width="2.40" stroke-opacity="1.00" stroke-linejoin="round"/>
<path d="M245.20,433.14 C245.20,433.14 243.75,433.50 243.75,433.50 C242.14,432.19 236.65,433.77 236.65,433.84 C238.08,432.60 235.68,429.29 235.12,429.16 C232.39,430.38 232.44,436.09 232.89,437.29 C231.47,436.49 229.19,436.70 228.25,438.12 C227.91,438.66 228.67,440.47 230.30,441.22 C230.53,441.32 232.27,441.88 233.01,442.15 C233.01,442.15 231.31,444.82 231.31,444.82 C231.90,445.44 232.83,445.57 234.07,445.01 C234.30,444.90 236.41,443.70 237.37,443.19 C237.37,443.19 237.95,445.66 237.95,445.66 C239.18,445.18 240.72,441.49 241.05,437.78 C241.13,437.71 241.31,437.67 241.56,437.68 C241.82,437.68 242.52,437.72 243.66,437.80" fill="none" stroke="rgb(0, 255, 255)" stroke-width="2.40" stroke-opacity="1.00" stroke-linejoin="round"/>
<path d="M244.47,450.90 C243.79,451.15 242.66,451.68 242.31,451.56 C239.05,450.48 237.37,450.64 235.84,450.89 C235.84,450.89 234.99,447.39 234.99,447.39 C233.83,448.13 233.19,448.89 232.89,450.12 C232.39,452.24 232.76,453.70 233.21,454.87 C233.21,454.87 230.80,457.05 230.80,457.05 C231.09,459.09 234.94,458.25 236.17,457.80 C236.17,457.80 236.01,459.27 236.01,459.27 C237.04,461.15 239.64,458.66 240.27,457.82 C240.43,457.68 241.01,457.21 242.01,456.41" fill="none" stroke="rgb(0, 255, 255)" stroke-width="2.40" stroke-opacity="1.00" stroke-linejoin="round"/>
<path d="M255.71,442.56 C255.71,442.56 255.65,441.20 255.65,441.20 C255.02,441.20 254.52,441.49 252.90,442.86 C251.66,443.90 246.78,446.18 245.09,447.38 C242.49,449.47 246.09,457.06 246.99,458.32 C250.57,458.85 265.81,448.65 266.97,448.02 C267.39,447.80 267.97,447.56 268.69,447.30" fill="none" stroke="rgb(0, 255, 255)" stroke-width="2.40" stroke-opacity="1.00" stroke-linejoin="round"/>
<path d="M274.56,430.96 C274.47,431.13 272.92,432.36 271.34,433.46 C270.73,433.88 260.87,440.19 260.79,440.26 C260.45,440.53 259.71,441.19 258.58,442.23" fill="none" stroke="rgb(0, 255, 255)" stroke-width="2.40" stroke-opacity="1.00" stroke-linejoin="round"/>
<path d="M270.21,438.57 C270.21,438.57 269.30,439.30 269.30,439.30 C269.10,440.34 269.15,448.20 269.03,450.73 C268.96,452.22 268.03,458.15 268.02,462.42 C268.02,473.19 268.63,475.38 268.91,476.48 C269.32,476.47 274.71,475.24 277.01,475.08 C278.94,474.97 287.58,475.34 289.60,475.38 C291.67,475.41 294.84,474.47 295.70,474.12 C295.89,472.13 294.35,450.42 294.28,447.23 C294.20,441.39 294.96,436.85 295.13,435.90 C294.60,436.55 290.66,440.14 288.78,441.37 C284.76,443.95 273.05,448.05 271.96,448.24 C270.40,448.50 266.05,448.98 265.14,449.09" fill="none" stroke="rgb(0, 255, 255)" stroke-width="2.40" stroke-opacity="1.00" stroke-linejoin="round"/>
<path d="M296.31,406.67 C296.31,406.67 296.13,406.13 296.13,406.13 C296.13,406.13 295.59,405.95 295.59,405.95 C295.59,407.51 295.18,411.69 293.20,414.75 C292.28,416.13 286.99,419.63 283.50,421.42 C280.94,422.70 275.33,424.23 272.30,424.26 C272.28,424.26 262.93,423.90 261.84,423.27 C260.75,422.58 258.99,417.65 258.30,415.09 C257.47,411.99 256.77,407.33 257.24,405.18 C257.75,403.02 260.31,398.99 261.93,397.52 C263.90,395.81 268.01,393.83 270.82,393.25 C276.48,392.15 291.33,392.19 295.31,393.39 C296.44,393.76 297.75,394.63 298.18,395.37 C298.98,396.88 298.84,400.69 298.27,405.20 C297.79,408.44 297.13,409.76 296.06,411.23 C295.66,411.76 295.26,412.30 294.86,412.83" fill="none" stroke="rgb(0, 255, 255)" stroke-width="2.40" stroke-opacity="1.00" stroke-linejoin="round"/>
<path d="M299.21,400.15 C299.21,400.15 298.67,400.15 298.67,400.15 C298.67,400.15 297.48,399.16 297.48,399.16 C297.48,399.16 293.75,404.54 293.75,404.54 C293.75,404.54 293.33,399.94 293.33,399.94 C293.33,399.94 290.52,403.58 290.52,403.58 C290.52,403.58 286.41,400.68 286.41,400.68 C286.41,400.68 283.71,404.10 283.71,404.10 C283.71,404.10 282.65,399.15 282.65,399.15 C282.65,399.15 278.62,403.90 278.62,403.90 C278.62,403.90 276.75,399.22 276.75,399.22 C276.75,399.22 273.81,402.74 273.81,402.74 C273.81,402.74 270.82,399.30 270.82,399.30 C270.82,399.30 268.15,401.94 268.15,401.94 C268.15,401.94 266.57,398.55 266.57,398.55 C266.57,398.55 263.49,401.79 263.49,401.79 C263.49,401.79 261.88,399.86 261.88,399.86" fill="none" stroke="rgb(0, 255, 255)" stroke-width="2.40" stroke-opacity="1.00" stroke-linejoin="round"/>
<path d="M261.15,403.05 C261.15,403.05 260.06,403.05 260.06,403.05 C263.17,403.10 264.64,403.20 265.23,403.51 C266.52,404.22 268.52,407.39 268.66,409.80 C268.70,410.88 267.81,412.43 267.03,412.83 C262.92,414.75 259.00,412.78 258.86,412.49 C258.79,412.31 258.49,411.58 257.99,410.31" fill="none" stroke="rgb(0, 255, 255)" stroke-width="2.40" stroke-opacity="1.00" stroke-linejoin="round"/>
<path d="M260.06,405.22 C260.06,405.22 258.97,405.22 258.97,405.22 C258.97,405.22 259.70,412.50 259.70,412.50 C259.70,412.50 259.71,407.45 259.71,407.45 C259.71,407.45 259.92,408.17 259.92,408.17" fill="none" stroke="rgb(0, 255, 255)" stroke-width="2.40" stroke-opacity="1.00" stroke-linejoin="round"/>
<path d="M273.11,414.65 C273.11,414.65 272.75,414.28 272.75,414.28 C272.75,414.28 260.50,419.55 260.50,419.55 C260.50,419.55 261.51,419.36 261.51,419.36" fill="none" stroke="rgb(0, 255, 255)" stroke-width="2.40" stroke-opacity="1.00" stroke-linejoin="round"/>
<path d="M269.12,475.19 C268.24,476.07 268.04,476.30 268.04,476.89 C267.99,483.49 267.83,496.35 267.28,500.73 C267.06,502.38 266.14,507.66 266.03,509.04 C265.92,510.30 265.82,519.15 265.37,522.56 C263.49,536.72 263.33,539.15 263.32,542.48 C260.99,542.35 259.41,542.39 258.55,542.72 C257.54,543.13 255.92,544.51 255.43,545.49 C254.90,546.65 254.67,549.49 255.00,550.94 C255.36,552.31 256.85,554.59 257.87,555.30 C259.74,556.51 265.31,556.41 268.04,555.45 C270.20,554.66 271.47,553.21 271.42,552.39 C271.40,552.06 270.52,543.86 270.48,542.12 C270.40,538.64 273.47,492.85 273.47,487.09 C273.45,483.33 273.76,481.52 274.52,480.75 C275.39,480.67 277.57,485.64 278.56,488.87 C285.92,513.43 287.27,543.37 287.25,543.55 C287.00,543.30 285.37,543.62 283.64,544.35 C282.56,544.80 281.90,545.66 281.39,546.82 C281.70,548.61 284.48,551.57 286.80,552.45 C289.17,553.31 293.51,553.44 296.49,553.14 C298.16,552.95 299.20,551.95 299.44,549.67 C300.10,542.68 300.43,531.05 299.86,521.76 C299.23,512.77 298.39,505.03 296.46,498.72 C294.95,493.80 294.33,486.52 294.14,474.77 C294.14,473.97 294.14,473.17 294.14,472.37 C294.14,472.37 294.14,474.10 294.14,474.10" fill="none" stroke="rgb(0, 255, 255)" stroke-width="2.40" stroke-opacity="1.00" stroke-linejoin="round"/>
<path d="M441.32,225.78 C441.32,225.48 441.32,225.17 441.32,224.87 C441.32,224.59 441.32,224.30 441.32,224.02 C439.90,225.47 436.90,229.15 435.59,231.18 C434.15,233.44 430.01,242.03 429.83,242.37 C429.64,242.73 419.14,258.55 415.49,264.86 C414.34,266.81 403.16,282.54 400.92,285.89 C396.79,292.07 388.23,302.74 384.99,307.50 C380.68,313.97 374.53,322.35 369.15,330.99 C367.58,333.48 358.10,345.50 353.13,353.04 C353.13,353.04 353.21,352.71 353.21,352.71" fill="none" stroke="rgb(0, 153, 67)" stroke-width="2.40" stroke-opacity="1.00" stroke-linejoin="round"/>
<path d="M356.85,350.85 C356.85,350.85 353.00,352.74 353.00,352.74 C353.00,352.74 359.38,352.48 359.38,352.48 C360.42,351.19 385.45,311.24 387.43,308.45 C389.72,305.25 399.12,293.32 404.04,285.88 C407.83,280.32 417.09,266.89 419.17,263.64 C420.89,260.94 432.90,240.65 433.26,240.08 C435.06,237.19 440.38,232.38 440.64,232.39 C444.35,236.69 452.18,247.68 456.69,250.89 C461.02,253.95 464.82,257.36 466.40,259.41 C470.11,264.29 474.90,270.05 477.60,275.01 C480.29,279.80 502.12,306.74 508.01,312.42 C508.75,313.14 519.48,323.40 525.46,330.81 C528.86,335.13 529.55,336.06 530.49,337.43 C530.26,335.26 529.29,328.77 528.78,327.95 C528.51,327.53 518.51,315.09 513.59,310.96 C511.25,308.99 499.27,296.27 497.72,294.17 C494.98,290.10 490.83,284.07 485.27,277.42 C482.94,274.62 477.50,262.99 474.24,258.31 C472.91,256.46 467.32,249.21 464.57,245.64 C461.70,241.98 459.67,239.87 456.63,237.50 C454.96,236.24 450.05,232.78 448.44,231.31 C446.73,229.73 442.58,224.71 442.52,224.65 C442.52,224.65 442.40,225.05 442.40,225.05" fill="none" stroke="rgb(0, 153, 67)" stroke-width="2.40" stroke-opacity="1.00" stroke-linejoin="round"/>
<path d="M355.76,355.56 C355.76,355.56 354.96,353.91 354.96,353.91 C354.44,354.73 354.36,370.63 354.32,379.24 C354.24,389.59 353.79,397.09 352.72,406.38 C350.70,422.13 345.82,456.86 344.70,465.96 C343.89,473.43 342.10,490.77 341.89,494.32 C341.42,504.60 341.29,513.20 341.87,523.79 C342.96,540.38 344.89,557.56 345.63,561.80 C346.14,564.53 347.22,570.34 347.79,573.43" fill="none" stroke="rgb(0, 153, 67)" stroke-width="2.40" stroke-opacity="1.00" stroke-linejoin="round"/>
<path d="M378.60,453.07 C378.60,453.07 378.06,453.26 378.06,453.26 C378.06,453.26 377.36,454.16 377.36,454.16 C377.36,454.16 360.04,455.55 360.04,455.55 C358.57,457.99 355.49,474.01 355.13,477.80 C354.04,493.44 352.57,518.36 352.50,535.21 C352.56,546.57 353.13,561.81 353.18,562.29 C353.23,562.83 353.36,563.89 353.59,565.45" fill="none" stroke="rgb(0, 153, 67)" stroke-width="2.40" stroke-opacity="1.00" stroke-linejoin="round"/>
<path d="M359.39,509.99 C359.20,510.04 358.43,509.73 358.12,509.63 C358.00,509.59 357.73,509.65 357.47,509.68 C356.49,510.59 355.26,515.76 355.56,517.10 C355.85,518.16 357.47,519.29 360.07,519.30 C361.04,519.29 363.26,517.63 363.52,515.29 C363.76,512.65 362.03,510.33 360.95,509.42 C360.95,509.42 357.47,510.36 357.47,510.36" fill="none" stroke="rgb(0, 153, 67)" stroke-width="2.40" stroke-opacity="1.00" stroke-linejoin="round"/>
<path d="M359.03,514.34 C359.03,514.34 357.76,515.79 357.76,515.79 C357.76,515.79 357.72,516.46 357.72,516.46 C358.06,516.49 358.48,516.35 358.79,516.07 C358.86,516.01 358.94,515.92 359.03,515.79" fill="none" stroke="rgb(0, 153, 67)" stroke-width="2.40" stroke-opacity="1.00" stroke-linejoin="round"/>
<path d="M372.80,472.29 C372.80,472.29 372.70,471.77 372.70,471.77 C365.87,468.68 360.36,470.16 359.59,470.43 C359.59,470.43 359.38,487.34 359.38,487.34 C359.38,487.34 371.05,486.10 371.05,486.10 C371.87,485.01 371.53,479.23 371.37,475.92 C371.28,474.62 371.18,473.33 371.09,472.03" fill="none" stroke="rgb(0, 153, 67)" stroke-width="2.40" stroke-opacity="1.00" stroke-linejoin="round"/>
<path d="M364.46,471.56 C364.46,471.56 364.10,471.74 364.10,471.74 C364.10,471.74 363.39,478.32 363.39,478.32 C362.55,478.46 361.91,478.38 358.95,477.76 C358.62,477.69 358.41,477.66 358.32,477.69" fill="none" stroke="rgb(0, 153, 67)" stroke-width="2.40" stroke-opacity="1.00" stroke-linejoin="round"/>
<path d="M367.36,471.20 C367.36,471.20 366.90,471.20 366.90,471.20 C366.90,471.20 366.64,470.98 366.64,470.98 C366.59,475.52 366.92,477.99 367.75,477.99 C368.76,477.94 369.35,477.86 370.01,477.68 C370.18,477.63 370.54,477.55 371.09,477.42" fill="none" stroke="rgb(0, 153, 67)" stroke-width="2.40" stroke-opacity="1.00" stroke-linejoin="round"/>
<path d="M360.11,480.62 C360.11,480.62 360.20,480.99 360.20,480.99 C360.20,480.99 363.99,481.83 363.99,481.83 C364.41,482.56 364.61,483.02 364.67,483.54 C364.68,483.66 364.72,484.10 364.80,484.88" fill="none" stroke="rgb(0, 153, 67)" stroke-width="2.40" stroke-opacity="1.00" stroke-linejoin="round"/>
<path d="M370.63,480.26 C370.63,480.26 370.26,480.99 370.26,480.99 C370.26,480.99 367.99,480.28 367.99,480.28 C367.70,480.63 367.77,485.06 367.87,485.99 C367.92,486.51 368.07,487.11 368.30,487.80" fill="none" stroke="rgb(0, 153, 67)" stroke-width="2.40" stroke-opacity="1.00" stroke-linejoin="round"/>
<path d="M364.10,483.89 C364.10,483.89 363.74,484.07 363.74,484.07 C363.75,485.31 363.72,486.85 363.74,487.00 C363.76,487.22 363.84,487.65 363.97,488.31" fill="none" stroke="rgb(0, 153, 67)" stroke-width="2.40" stroke-opacity="1.00" stroke-linejoin="round"/>
<path d="M458.72,333.44 C458.72,333.44 457.81,333.44 457.81,333.44 C457.68,333.11 457.47,332.81 457.17,332.69 C456.13,332.29 449.74,331.25 447.85,331.37 C445.60,331.54 438.78,333.24 437.39,333.87 C437.39,333.87 437.89,356.95 437.89,356.95 C437.89,356.95 459.63,352.69 459.63,352.69 C459.05,348.97 458.71,334.61 458.69,334.31 C458.60,333.34 458.23,332.11 457.99,331.63" fill="none" stroke="rgb(0, 153, 67)" stroke-width="2.40" stroke-opacity="1.00" stroke-linejoin="round"/>
<path d="M447.12,331.99 C447.12,331.99 446.21,332.18 446.21,332.18 C446.21,332.18 445.44,340.30 445.44,340.30 C444.42,339.96 439.99,339.69 439.68,339.64 C439.49,339.61 438.88,339.50 437.85,339.30" fill="none" stroke="rgb(0, 153, 67)" stroke-width="2.40" stroke-opacity="1.00" stroke-linejoin="round"/>
<path d="M451.10,333.44 C451.10,333.44 450.12,333.61 450.12,333.61 C450.12,333.61 450.74,340.85 450.74,340.85 C451.90,341.10 455.94,340.76 456.42,340.73 C456.73,340.72 457.21,340.70 457.84,340.69" fill="none" stroke="rgb(0, 153, 67)" stroke-width="2.40" stroke-opacity="1.00" stroke-linejoin="round"/>
<path d="M457.63,345.04 C457.63,345.04 457.27,345.04 457.27,345.04 C457.27,345.04 450.93,345.99 450.93,345.99 C450.40,346.63 450.83,352.30 450.94,352.81 C451.01,353.11 451.17,353.53 451.42,354.07" fill="none" stroke="rgb(0, 153, 67)" stroke-width="2.40" stroke-opacity="1.00" stroke-linejoin="round"/>
<path d="M438.05,345.41 C438.05,345.41 437.33,345.41 437.33,345.41 C437.33,345.41 446.96,344.33 446.96,344.33 C446.96,344.33 446.39,355.48 446.39,355.48 C446.39,355.48 446.03,355.20 446.03,355.20" fill="none" stroke="rgb(0, 153, 67)" stroke-width="2.40" stroke-opacity="1.00" stroke-linejoin="round"/>
<path d="M530.49,368.97 C530.49,368.97 530.86,368.97 530.86,368.97 C530.86,368.97 530.86,368.62 530.86,368.62 C529.96,368.60 529.18,368.85 528.71,369.52 C527.65,371.14 527.16,377.72 527.39,381.30 C527.80,386.59 528.27,390.61 528.58,393.07 C528.68,393.96 528.96,397.30 529.04,398.33" fill="none" stroke="rgb(0, 255, 0)" stroke-width="2.40" stroke-opacity="1.00" stroke-linejoin="round"/>
<path d="M527.23,370.78 C527.23,370.78 527.23,370.60 527.23,370.60 C527.17,370.50 526.52,370.10 526.27,369.90 C525.90,369.61 525.38,368.77 524.68,367.50 C523.41,367.63 522.69,368.06 522.22,369.23 C521.34,371.47 521.08,375.86 521.61,378.92 C522.41,383.51 524.76,415.04 524.77,415.11 C524.95,418.06 526.72,431.86 527.05,435.22 C527.39,438.39 528.14,442.64 528.32,443.65" fill="none" stroke="rgb(0, 255, 0)" stroke-width="2.40" stroke-opacity="1.00" stroke-linejoin="round"/>
<path d="M522.88,379.48 C522.88,379.48 521.05,379.18 521.05,379.18 C520.35,377.20 519.51,369.52 518.93,368.08 C518.23,366.45 514.85,364.90 512.96,364.94 C511.91,365.61 511.07,366.51 510.72,367.65 C509.90,370.33 510.82,386.97 511.33,391.01 C512.29,397.61 516.52,429.67 518.61,445.84 C519.10,449.45 524.78,476.87 526.41,483.67 C526.67,484.77 526.93,485.87 527.19,486.97" fill="none" stroke="rgb(0, 255, 0)" stroke-width="2.40" stroke-opacity="1.00" stroke-linejoin="round"/>
<path d="M530.49,506.00 C530.49,506.00 531.31,508.83 531.31,508.83 C531.22,506.32 527.32,490.93 525.22,486.45 C523.30,482.35 520.41,474.89 515.35,463.04 C511.44,453.70 507.77,442.58 507.00,438.69 C505.98,433.45 505.70,420.98 505.59,414.26 C505.44,406.82 504.36,395.19 502.04,388.99 C500.85,385.81 499.34,379.01 499.76,375.68 C499.96,374.30 501.90,367.03 503.35,364.72 C504.14,363.51 505.30,362.47 505.87,362.40 C506.50,362.42 507.83,363.47 508.69,364.65 C508.98,365.06 511.17,369.92 511.77,371.24" fill="none" stroke="rgb(0, 255, 0)" stroke-width="2.40" stroke-opacity="1.00" stroke-linejoin="round"/>
<path d="M498.96,372.96 C498.96,372.96 498.96,373.32 498.96,373.32 C498.96,373.32 498.48,373.17 498.48,373.17 C498.48,373.17 495.22,368.01 495.22,368.01 C494.45,368.23 493.30,370.65 492.99,374.73 C492.86,376.65 494.26,391.71 494.85,399.24 C495.31,405.04 497.59,416.47 498.85,423.08 C500.21,430.99 508.00,463.01 511.07,475.93 C512.27,482.44 514.75,497.22 515.12,502.28 C515.73,511.46 517.85,521.93 519.67,528.44 C523.24,541.78 527.82,558.66 528.84,562.19 C529.65,565.06 530.66,568.69 530.86,569.44" fill="none" stroke="rgb(0, 255, 0)" stroke-width="2.40" stroke-opacity="1.00" stroke-linejoin="round"/>
<path d="M516.72,566.90 C516.72,566.90 515.32,566.77 515.32,566.77 C514.91,566.16 514.82,561.61 514.51,559.26 C514.06,556.01 509.37,541.34 508.10,538.21 C505.17,530.98 502.54,516.51 501.08,508.46 C499.92,501.65 497.74,483.02 497.02,478.83 C496.34,474.96 492.80,458.58 491.61,450.59 C491.09,446.96 489.22,428.81 488.11,422.43 C487.61,419.58 483.15,397.64 482.53,393.94 C481.40,387.14 480.85,373.51 481.90,371.59 C482.59,370.49 487.34,370.02 488.31,370.32 C488.86,370.52 490.31,371.38 490.70,371.98 C492.01,374.03 492.34,379.51 492.43,380.93" fill="none" stroke="rgb(0, 255, 0)" stroke-width="2.40" stroke-opacity="1.00" stroke-linejoin="round"/>
<path d="M479.74,376.95 C479.75,376.58 479.72,376.34 479.56,376.13 C479.38,375.89 475.42,371.17 474.35,370.95 C473.65,371.24 472.48,374.74 472.21,377.68 C471.97,380.56 472.09,386.36 472.26,387.83 C472.49,389.76 475.32,403.22 475.97,412.59 C476.81,426.96 479.92,468.38 480.25,470.95 C481.14,477.75 487.22,506.57 489.75,515.48 C490.66,518.71 494.81,536.50 496.43,543.65 C497.71,549.46 501.85,563.04 501.82,563.45 C501.80,563.73 501.61,564.25 501.26,565.02" fill="none" stroke="rgb(0, 255, 0)" stroke-width="2.40" stroke-opacity="1.00" stroke-linejoin="round"/>
<path d="M493.88,561.10 C493.92,561.42 493.92,561.65 493.88,561.79 C493.85,561.93 493.72,562.18 493.52,562.53 C492.19,554.43 490.09,546.68 486.49,535.28 C484.68,529.34 478.79,491.95 476.23,475.24 C473.09,454.80 468.39,434.98 465.70,418.71 C463.46,405.84 462.20,397.21 462.03,389.86 C462.01,386.29 461.99,379.77 462.21,375.77 C462.48,371.50 463.80,368.03 464.78,367.96 C465.80,368.06 468.27,371.59 469.22,374.33 C470.07,376.85 470.59,379.60 471.24,383.64" fill="none" stroke="rgb(0, 255, 0)" stroke-width="2.40" stroke-opacity="1.00" stroke-linejoin="round"/>
<path d="M460.53,381.30 C460.54,380.79 460.50,380.39 460.43,380.11 C460.36,379.85 458.00,374.27 456.74,372.24 C455.32,370.03 451.76,367.99 449.81,368.08 C448.57,369.06 448.19,372.98 448.77,377.73 C451.15,396.58 456.85,422.05 459.13,434.29 C460.93,444.53 466.46,483.50 467.05,486.46 C468.16,491.99 473.45,505.74 475.98,509.55 C479.21,514.42 481.41,522.69 483.23,531.87 C484.55,538.32 486.93,548.89 487.51,555.59 C487.62,557.05 487.80,560.18 487.69,560.78 C487.64,561.10 487.45,561.71 487.13,562.62" fill="none" stroke="rgb(0, 255, 0)" stroke-width="2.40" stroke-opacity="1.00" stroke-linejoin="round"/>
<path d="M483.01,563.28 C483.01,563.28 483.01,563.46 483.01,563.46 C483.01,563.46 482.82,563.64 482.82,563.64 C482.82,563.64 482.28,563.59 482.28,563.59 C481.54,556.40 480.39,543.21 479.97,537.22 C479.33,531.26 474.63,515.99 473.57,512.95 C472.32,509.35 465.97,494.04 464.80,489.41 C464.32,487.53 460.50,470.44 459.07,464.17 C457.49,458.02 454.00,445.63 453.43,442.59 C452.51,437.44 451.42,426.56 450.00,418.11 C448.35,409.24 445.12,396.93 444.73,395.46 C442.96,388.76 442.26,372.81 442.91,369.85 C443.47,367.45 444.71,366.71 445.52,366.57 C446.29,367.14 446.97,368.03 447.43,369.33 C447.85,370.55 448.32,372.69 448.69,374.85" fill="none" stroke="rgb(0, 255, 0)" stroke-width="2.40" stroke-opacity="1.00" stroke-linejoin="round"/>
<path d="M442.40,377.31 C442.17,377.03 441.62,376.72 441.43,376.57 C440.83,376.06 439.64,370.37 438.60,368.93 C437.63,367.61 435.45,367.10 434.02,367.75 C432.37,368.56 431.10,370.79 431.08,374.18 C431.10,378.03 434.59,395.72 436.05,402.96 C437.59,410.12 442.55,424.19 443.45,427.05 C444.85,431.55 452.99,461.55 456.45,473.06 C459.43,482.70 461.63,489.47 463.82,498.89 C464.96,503.96 466.77,520.03 468.09,526.10 C471.46,540.77 477.85,566.28 477.90,566.61 C477.94,566.83 477.95,567.16 477.95,567.59" fill="none" stroke="rgb(0, 255, 0)" stroke-width="2.40" stroke-opacity="1.00" stroke-linejoin="round"/>
<path d="M458.35,564.37 C458.35,564.37 458.35,564.73 458.35,564.73 C458.35,564.73 458.77,564.53 458.77,564.53 C459.24,561.91 458.90,556.44 457.93,553.56 C455.19,545.34 452.53,535.59 451.04,526.62 C449.81,518.90 447.35,503.69 446.11,496.20 C444.95,490.03 440.40,471.78 440.06,470.67 C439.28,468.05 432.18,446.39 431.67,443.71 C429.64,432.70 427.47,423.29 425.86,418.94 C422.45,409.76 419.52,399.31 418.74,391.74 C418.49,389.23 417.92,379.95 418.22,377.42 C419.04,371.39 423.26,369.87 424.65,369.76 C425.77,370.42 426.48,371.34 427.35,373.49 C428.80,377.09 429.54,380.62 430.00,383.35" fill="none" stroke="rgb(0, 255, 0)" stroke-width="2.40" stroke-opacity="1.00" stroke-linejoin="round"/>
<path d="M418.48,376.58 C418.48,376.58 418.30,377.13 418.30,377.13 C418.30,377.13 417.75,377.26 417.75,377.26 C417.43,371.43 414.63,369.47 413.46,369.07 C413.46,369.07 412.25,369.46 412.25,369.46 C410.89,371.39 409.05,377.45 408.72,379.79 C407.99,385.26 408.87,395.30 410.62,407.95 C413.00,424.21 417.82,442.84 420.57,459.86 C421.62,465.90 426.40,484.41 426.98,486.93 C430.12,501.55 434.16,528.32 437.96,547.01 C439.62,554.94 440.71,561.55 440.69,562.01 C440.67,562.37 440.52,562.91 440.23,563.64" fill="none" stroke="rgb(0, 255, 0)" stroke-width="2.40" stroke-opacity="1.00" stroke-linejoin="round"/>
<path d="M430.80,564.73 C430.80,564.73 430.80,564.55 430.80,564.55 C430.80,564.55 430.44,564.37 430.44,564.37 C429.02,561.07 426.72,548.28 425.78,542.62 C422.73,525.04 416.79,505.59 413.77,489.34 C412.50,483.11 409.27,468.48 408.54,464.22 C407.16,456.11 404.90,427.71 402.76,412.08 C402.34,408.75 401.37,378.45 402.05,376.23 C402.32,375.44 404.13,373.95 405.16,373.84 C405.87,374.51 406.43,375.58 406.71,377.15 C406.97,378.62 407.14,381.22 407.20,383.93" fill="none" stroke="rgb(0, 255, 0)" stroke-width="2.40" stroke-opacity="1.00" stroke-linejoin="round"/>
<path d="M399.27,383.47 C398.97,383.14 398.73,381.96 398.60,381.49 C397.83,378.85 395.62,373.98 394.68,373.72 C392.08,374.93 390.96,376.17 390.27,378.44 C389.34,381.75 389.84,398.33 390.10,406.40 C390.50,417.73 390.81,420.58 392.97,431.56 C393.77,435.73 396.67,480.89 396.82,482.57 C399.56,512.88 408.50,563.68 408.50,563.71 C408.50,563.85 408.46,563.98 408.37,564.09" fill="none" stroke="rgb(0, 255, 0)" stroke-width="2.40" stroke-opacity="1.00" stroke-linejoin="round"/>
<path d="M387.66,561.83 C387.66,561.83 387.66,561.47 387.66,561.47 C387.60,558.61 384.19,543.39 383.70,537.38 C382.89,526.17 380.86,510.84 380.69,508.34 C379.60,492.75 380.23,457.49 379.89,449.36 C379.54,440.78 379.26,426.85 379.02,423.67 C377.78,410.37 376.64,386.88 376.87,381.79 C377.04,378.44 378.39,373.83 379.61,372.96 C380.68,372.25 384.63,371.32 385.86,371.73 C387.13,372.21 388.80,376.13 388.81,378.88 C388.79,381.55 388.76,385.11 388.75,386.01" fill="none" stroke="rgb(0, 255, 0)" stroke-width="2.40" stroke-opacity="1.00" stroke-linejoin="round"/>
</g>
</svg>
