<?xml version="1.0" encoding="UTF-8" standalone="no"?>
<!DOCTYPE svg PUBLIC "-//W3C//DTD SVG 1.1//EN" "http://www.w3.org/Graphics/SVG/1.1/DTD/svg11.dtd">
<svg width="128.40" height="181.68" viewBox="0.00 0.00 535.00 757.00" xmlns="http://www.w3.org/2000/svg" xmlns:xlink="http://www.w3.org/1999/xlink">
<g stroke-linecap="round" id="148">
<path d="M217.33,159.72 C217.33,159.72 216.49,160.23 216.49,160.23 C216.49,160.23 216.37,160.66 216.37,160.66 C216.78,161.51 217.93,163.84 218.20,164.55 C218.53,165.43 219.88,169.60 220.31,170.94 C220.54,171.67 220.77,172.39 221.01,173.11" fill="none" stroke="rgb(0, 0, 255)" stroke-width="1.77" stroke-opacity="1.00" stroke-linejoin="round"/>
<path d="M230.79,135.17 C230.18,135.98 230.03,138.11 230.79,141.44 C230.96,142.20 231.19,143.02 231.46,143.91 C231.56,144.24 231.76,144.84 232.06,145.69" fill="none" stroke="rgb(0, 0, 255)" stroke-width="1.77" stroke-opacity="1.00" stroke-linejoin="round"/>
<path d="M195.47,143.57 C195.47,143.57 195.80,142.40 195.80,142.40 C195.86,142.40 195.92,142.47 195.97,142.61 C196.31,143.52 197.66,149.51 198.06,151.27 C198.31,152.38 198.56,153.49 198.81,154.60" fill="none" stroke="rgb(0, 0, 255)" stroke-width="1.77" stroke-opacity="1.00" stroke-linejoin="round"/>
<path d="M175.96,123.39 C176.00,126.58 176.66,134.24 177.04,138.67 C177.13,139.72 177.22,140.78 177.32,141.84 C177.41,142.72 177.51,143.60 177.60,144.48" fill="none" stroke="rgb(0, 0, 255)" stroke-width="1.77" stroke-opacity="1.00" stroke-linejoin="round"/>
<path d="M186.39,174.19 C185.43,175.43 184.96,177.11 185.17,181.54 C185.27,183.42 185.33,184.55 185.37,184.94 C185.42,185.46 185.53,186.35 185.70,187.61" fill="none" stroke="rgb(0, 0, 255)" stroke-width="1.77" stroke-opacity="1.00" stroke-linejoin="round"/>
<path d="M162.84,151.65 C162.54,154.62 162.46,156.24 162.57,157.86 C162.74,160.43 162.83,164.24 162.84,165.14 C162.84,165.88 162.84,166.62 162.84,167.36" fill="none" stroke="rgb(0, 0, 255)" stroke-width="1.77" stroke-opacity="1.00" stroke-linejoin="round"/>
<path d="M148.38,179.57 C147.92,179.94 147.34,182.31 147.33,186.32 C147.33,190.32 147.33,196.65 147.37,197.37 C147.40,197.95 147.50,199.25 147.66,201.27" fill="none" stroke="rgb(0, 0, 255)" stroke-width="1.77" stroke-opacity="1.00" stroke-linejoin="round"/>
<path d="M150.73,213.54 C150.01,215.81 149.79,217.21 149.44,221.30 C149.24,224.21 148.88,229.41 148.71,231.71" fill="none" stroke="rgb(0, 0, 255)" stroke-width="1.77" stroke-opacity="1.00" stroke-linejoin="round"/>
<path d="M248.95,147.27 C248.95,147.27 247.44,146.94 247.44,146.94 C247.28,147.08 247.27,147.61 247.45,149.11 C247.58,150.11 247.74,150.89 247.93,151.45 C248.13,152.00 248.65,153.22 249.50,155.12" fill="none" stroke="rgb(0, 0, 255)" stroke-width="1.77" stroke-opacity="1.00" stroke-linejoin="round"/>
<path d="M261.73,165.44 C261.67,165.63 261.61,165.79 261.57,165.94 C261.29,166.90 261.14,167.58 261.12,167.99 C261.09,168.52 261.71,171.71 261.88,172.72 C262.22,174.87 262.81,178.42 263.06,179.84" fill="none" stroke="rgb(0, 0, 255)" stroke-width="1.77" stroke-opacity="1.00" stroke-linejoin="round"/>
<path d="M275.19,161.07 C275.19,161.07 275.02,161.07 275.02,161.07 C274.78,161.33 274.87,163.00 275.33,169.33 C275.45,170.88 275.51,171.81 275.53,172.14 C275.54,172.46 275.54,172.92 275.53,173.50" fill="none" stroke="rgb(0, 0, 255)" stroke-width="1.77" stroke-opacity="1.00" stroke-linejoin="round"/>
<path d="M265.77,137.52 C265.80,137.93 265.51,141.64 266.11,144.46 C266.38,145.71 266.59,146.58 266.73,147.06 C266.88,147.57 267.23,148.65 267.79,150.30" fill="none" stroke="rgb(0, 0, 255)" stroke-width="1.77" stroke-opacity="1.00" stroke-linejoin="round"/>
<path d="M296.72,136.51 C296.72,136.51 296.05,137.11 296.05,137.11 C296.05,137.71 296.24,138.71 296.62,139.82 C296.86,140.50 297.93,143.14 298.34,144.16 C298.57,144.72 298.80,145.28 299.03,145.84" fill="none" stroke="rgb(0, 0, 255)" stroke-width="1.77" stroke-opacity="1.00" stroke-linejoin="round"/>
<path d="M311.85,163.08 C311.66,163.51 311.09,164.58 311.01,164.85 C310.85,165.45 310.84,166.00 310.97,166.48 C311.05,166.76 311.32,167.27 311.77,168.00" fill="none" stroke="rgb(0, 0, 255)" stroke-width="1.77" stroke-opacity="1.00" stroke-linejoin="round"/>
<path d="M324.64,117.00 C324.64,117.00 323.80,117.60 323.80,117.60 C323.70,118.76 323.69,119.60 323.76,120.14 C323.84,120.68 324.09,121.66 324.54,123.08" fill="none" stroke="rgb(0, 0, 255)" stroke-width="1.77" stroke-opacity="1.00" stroke-linejoin="round"/>
<path d="M336.41,135.17 C336.41,135.17 335.91,135.78 335.91,135.78 C335.88,136.70 337.28,141.38 337.92,144.81 C338.25,146.59 338.83,149.85 339.09,151.33 C339.33,152.79 339.67,154.97 339.77,155.68" fill="none" stroke="rgb(0, 0, 255)" stroke-width="1.77" stroke-opacity="1.00" stroke-linejoin="round"/>
<path d="M350.20,163.42 C350.20,163.42 350.03,163.42 350.03,163.42 C350.03,163.42 349.87,163.67 349.87,163.67 C349.90,164.37 350.08,165.37 350.53,167.20 C350.99,169.08 351.58,171.27 352.03,172.79 C352.20,173.37 352.38,173.94 352.56,174.52" fill="none" stroke="rgb(0, 0, 255)" stroke-width="1.77" stroke-opacity="1.00" stroke-linejoin="round"/>
<path d="M367.69,181.92 C367.69,181.92 367.69,181.75 367.69,181.75 C367.69,181.75 367.53,181.59 367.53,181.59 C367.53,181.59 367.36,181.65 367.36,181.65 C368.70,188.74 369.61,198.68 369.72,199.72 C369.90,201.32 370.20,203.41 370.38,204.46" fill="none" stroke="rgb(0, 0, 255)" stroke-width="1.77" stroke-opacity="1.00" stroke-linejoin="round"/>
<path d="M373.08,212.20 C374.91,222.35 375.99,231.51 375.56,236.25 C375.54,236.56 375.49,236.84 375.43,237.09" fill="none" stroke="rgb(0, 0, 255)" stroke-width="1.77" stroke-opacity="1.00" stroke-linejoin="round"/>
<path d="M381.49,151.65 C381.16,152.93 381.14,153.90 381.78,156.73 C382.90,161.68 383.63,173.65 382.73,176.13 C382.65,176.36 382.46,176.83 382.16,177.55" fill="none" stroke="rgb(0, 0, 255)" stroke-width="1.77" stroke-opacity="1.00" stroke-linejoin="round"/>
<path d="M291.67,200.76 C291.69,200.14 291.67,199.99 291.35,199.34 C289.96,196.59 286.02,192.27 282.20,189.50 C281.51,189.00 271.95,182.04 270.21,181.01 C267.10,179.20 261.57,177.58 257.33,176.88 C251.25,175.90 237.65,175.05 232.70,175.40 C227.07,175.83 215.82,179.30 208.64,182.78 C199.54,187.36 191.77,192.01 189.33,194.36 C186.48,197.15 180.86,204.25 178.67,208.62 C177.43,211.13 174.23,226.37 174.41,232.24 C174.49,234.30 175.77,240.93 176.64,243.70 C177.51,246.39 180.25,250.89 182.64,253.48 C185.98,257.04 203.06,267.36 204.09,267.92 C206.88,269.42 211.69,270.78 216.24,271.50 C224.51,272.73 236.93,273.83 243.16,274.05 C250.17,274.29 255.82,272.75 267.72,268.58 C271.82,267.11 274.55,265.57 278.88,262.13 C281.81,259.76 287.70,254.92 289.32,253.21 C290.41,252.03 296.03,245.30 296.63,244.21 C298.40,240.89 299.90,230.93 299.59,224.79 C299.38,221.51 294.64,212.24 292.22,207.82 C290.94,205.49 289.93,203.55 289.31,202.22 C289.17,201.93 288.95,201.45 288.64,200.76" fill="none" stroke="rgb(255, 0, 255)" stroke-width="1.77" stroke-opacity="1.00" stroke-linejoin="round"/>
<path d="M291.00,195.38 C291.02,195.31 290.90,195.31 290.66,195.38 C290.42,195.44 289.71,195.67 288.54,196.05 C288.83,194.12 291.85,189.30 293.77,187.55 C296.08,185.52 300.87,182.31 304.08,180.61 C306.99,179.10 313.91,177.20 316.89,176.97 C319.97,176.76 326.60,177.91 329.78,179.29 C332.63,180.56 337.57,184.54 339.25,186.32 C341.14,188.36 344.13,192.80 345.22,195.27 C346.74,198.76 347.30,205.92 346.82,215.28 C346.48,222.92 347.12,236.72 347.50,243.81 C348.16,253.25 349.90,261.52 351.26,264.92 C352.06,266.89 355.89,275.15 355.91,275.83 C354.86,276.94 343.89,274.33 338.64,272.03 C330.77,268.55 307.79,254.46 302.00,250.82 C300.98,250.19 297.53,246.14 296.72,245.16" fill="none" stroke="rgb(255, 0, 255)" stroke-width="1.77" stroke-opacity="1.00" stroke-linejoin="round"/>
<path d="M294.03,234.06 C294.13,233.94 294.40,233.76 294.69,233.72 C295.22,233.66 295.75,233.79 295.95,234.00 C296.03,234.04 290.53,234.04 287.56,233.55 C286.55,233.38 276.82,231.13 275.94,231.21 C275.21,231.28 267.53,233.27 264.16,233.32 C262.77,233.33 254.54,232.60 250.03,233.25 C245.15,233.93 242.51,234.00 238.38,233.37 C235.01,232.85 231.70,232.70 227.38,232.62 C225.59,232.60 219.91,232.07 217.48,233.33 C216.16,234.04 210.65,237.97 209.25,237.66 C208.53,237.47 203.54,234.16 201.27,233.77 C199.72,233.53 183.06,234.04 181.75,234.49 C180.52,234.91 178.03,236.18 177.57,236.48 C177.57,236.48 176.63,236.08 176.63,236.08" fill="none" stroke="rgb(255, 0, 255)" stroke-width="1.77" stroke-opacity="1.00" stroke-linejoin="round"/>
<path d="M206.23,252.56 C206.23,252.56 204.89,252.90 204.89,252.90 C204.89,252.90 212.70,254.24 212.70,254.24 C212.70,254.24 205.40,252.41 205.40,252.41 C205.38,253.70 205.69,254.52 206.63,255.21 C208.33,256.44 209.77,256.60 210.62,256.49 C210.93,256.16 210.78,251.28 207.92,252.42 C207.92,252.42 211.28,254.24 211.28,254.24" fill="none" stroke="rgb(255, 0, 255)" stroke-width="1.77" stroke-opacity="1.00" stroke-linejoin="round"/>
<path d="M268.13,254.24 C267.26,254.50 266.70,254.67 266.44,254.75 C266.19,254.83 265.87,254.94 265.49,255.08 C265.49,255.08 266.09,256.13 266.09,256.13 C265.36,253.58 263.04,254.78 262.68,255.09 C263.58,255.58 264.17,255.82 264.44,255.80 C264.71,255.78 265.04,255.49 265.43,254.92" fill="none" stroke="rgb(255, 0, 255)" stroke-width="1.77" stroke-opacity="1.00" stroke-linejoin="round"/>
<path d="M243.23,262.99 C242.37,262.98 241.29,263.00 241.22,262.99 C241.00,262.95 237.87,261.59 236.28,262.07 C236.28,262.07 236.17,262.65 236.17,262.65" fill="none" stroke="rgb(255, 0, 255)" stroke-width="1.77" stroke-opacity="1.00" stroke-linejoin="round"/>
<path d="M226.08,275.10 C226.08,275.10 223.47,274.76 223.47,274.76 C223.25,274.92 227.05,280.06 229.71,282.09 C230.87,282.95 234.13,283.40 235.45,282.94 C236.47,282.58 245.27,278.85 246.20,278.06 C246.79,277.54 247.65,276.09 247.88,275.39 C247.95,275.16 248.15,273.02 248.28,271.73" fill="none" stroke="rgb(255, 0, 255)" stroke-width="1.77" stroke-opacity="1.00" stroke-linejoin="round"/>
<path d="M259.04,273.75 C258.76,273.82 258.56,273.87 258.43,273.92 C258.30,273.97 258.07,274.08 257.73,274.26 C257.70,274.41 261.62,276.66 263.59,278.74 C265.08,280.33 269.25,286.16 269.57,286.83 C270.71,289.25 271.65,293.90 272.64,297.64 C274.59,305.83 274.51,324.92 274.45,326.90 C273.45,327.04 265.24,326.92 264.80,326.28 C264.23,325.29 261.62,307.17 260.50,301.90 C260.09,300.13 259.23,296.43 258.94,295.37 C258.80,294.86 258.50,293.82 258.03,292.25" fill="none" stroke="rgb(255, 0, 255)" stroke-width="1.77" stroke-opacity="1.00" stroke-linejoin="round"/>
<path d="M222.38,273.08 C222.38,273.08 222.38,272.91 222.38,272.91 C222.19,272.74 219.40,272.51 219.15,272.59 C218.03,272.97 214.53,275.52 211.87,277.76 C207.31,281.65 204.91,284.29 203.93,287.37 C202.98,290.57 201.02,297.19 200.02,300.62 C198.88,304.68 198.24,310.10 198.18,313.54 C198.06,321.84 199.52,328.59 200.61,329.58 C201.66,329.63 209.07,328.40 210.12,328.18 C211.70,327.85 213.08,327.17 213.25,326.63 C213.49,325.56 210.97,313.74 210.53,308.31 C210.37,306.34 210.05,296.82 210.19,295.33 C210.24,294.86 210.38,294.40 210.61,293.94" fill="none" stroke="rgb(255, 0, 255)" stroke-width="1.77" stroke-opacity="1.00" stroke-linejoin="round"/>
<path d="M265.77,326.90 C265.70,326.95 265.65,327.01 265.60,327.07 C265.40,327.32 265.22,327.49 265.06,327.57 C263.68,328.29 260.20,329.26 257.45,329.26 C249.04,329.22 237.63,329.81 233.78,329.29 C232.15,329.06 216.81,326.85 215.92,326.59 C215.70,326.52 215.50,326.40 215.31,326.23" fill="none" stroke="rgb(255, 0, 255)" stroke-width="1.77" stroke-opacity="1.00" stroke-linejoin="round"/>
<path d="M203.88,330.94 C203.88,330.94 203.88,331.27 203.88,331.27 C203.88,331.27 203.71,333.70 203.71,333.70 C203.71,333.70 204.53,334.36 204.53,334.36 C204.53,334.36 207.92,332.06 207.92,332.06 C207.92,332.06 210.12,334.16 210.12,334.16 C210.12,334.16 215.05,331.99 215.05,331.99 C215.56,331.23 216.02,329.31 215.83,328.21 C215.79,327.93 215.61,327.72 215.31,327.57" fill="none" stroke="rgb(255, 0, 255)" stroke-width="1.77" stroke-opacity="1.00" stroke-linejoin="round"/>
<path d="M215.65,328.58 C215.65,328.58 214.81,329.09 214.81,329.09 C214.68,329.91 215.24,332.79 215.45,333.90 C215.76,335.55 215.32,341.20 214.59,343.94 C212.62,350.45 207.60,367.73 207.55,368.05 C207.54,368.12 207.11,371.55 206.91,373.15 C207.03,373.15 222.97,375.76 229.35,377.46 C234.81,378.83 241.37,378.64 254.55,377.70 C269.20,376.88 281.52,378.26 282.05,378.37 C281.80,378.30 268.44,348.96 267.80,345.96 C267.07,342.41 265.77,329.45 265.80,328.76 C265.83,328.38 265.93,327.65 266.11,326.56" fill="none" stroke="rgb(255, 0, 255)" stroke-width="1.77" stroke-opacity="1.00" stroke-linejoin="round"/>
<path d="M269.13,329.93 C268.71,330.07 268.29,330.21 267.87,330.35 C267.62,330.43 267.37,330.52 267.12,330.60 C266.61,334.84 269.52,337.29 270.12,337.47 C271.98,336.89 273.23,332.50 273.36,332.51 C273.36,332.51 275.93,335.74 275.93,335.74 C275.93,335.74 277.58,333.91 277.58,333.91 C277.58,333.91 279.32,334.67 279.32,334.67 C279.80,334.37 275.27,327.50 274.89,327.09 C274.70,326.89 274.35,326.60 273.84,326.23" fill="none" stroke="rgb(255, 0, 255)" stroke-width="1.77" stroke-opacity="1.00" stroke-linejoin="round"/>
<path d="M224.06,377.36 C223.72,377.56 223.31,377.90 222.88,378.37 C222.73,378.55 222.71,378.95 222.71,380.05 C222.80,387.36 221.81,397.40 219.71,404.74 C219.60,405.14 219.41,405.57 219.14,406.02 C218.23,405.84 217.74,405.37 217.46,404.11 C216.79,400.89 217.45,377.13 217.47,376.43 C217.47,376.43 218.34,376.35 218.34,376.35" fill="none" stroke="rgb(255, 0, 255)" stroke-width="1.77" stroke-opacity="1.00" stroke-linejoin="round"/>
<path d="M218.68,399.56 C218.68,399.56 218.34,399.22 218.34,399.22 C218.34,399.22 219.93,398.93 219.93,398.93 C219.92,399.00 218.60,401.91 218.95,402.23 C219.10,402.36 219.68,402.82 220.70,403.59" fill="none" stroke="rgb(255, 0, 255)" stroke-width="1.77" stroke-opacity="1.00" stroke-linejoin="round"/>
<path d="M262.07,379.38 C261.99,379.11 261.94,378.94 261.90,378.87 C261.87,378.81 261.81,378.75 261.73,378.70 C261.73,381.96 261.24,399.75 261.68,402.19 C261.87,403.22 262.46,404.25 262.94,404.79 C263.94,404.02 264.52,403.18 264.92,401.72 C265.92,397.95 265.13,380.98 265.12,380.53 C265.11,380.10 265.10,379.26 265.10,378.03" fill="none" stroke="rgb(255, 0, 255)" stroke-width="1.77" stroke-opacity="1.00" stroke-linejoin="round"/>
<path d="M262.41,401.91 C262.41,401.91 262.07,401.58 262.07,401.58 C262.07,401.58 261.76,401.58 261.76,401.58 C261.76,401.58 263.92,401.10 263.92,401.10 C263.92,401.10 262.26,402.00 262.26,402.00 C262.26,402.00 263.40,402.83 263.40,402.83 C263.40,402.49 263.36,402.28 263.30,402.19 C263.23,402.10 263.05,402.01 262.74,401.91" fill="none" stroke="rgb(255, 0, 255)" stroke-width="1.77" stroke-opacity="1.00" stroke-linejoin="round"/>
</g>
</svg>
