<?xml version="1.0" encoding="UTF-8" standalone="no"?>
<!DOCTYPE svg PUBLIC "-//W3C//DTD SVG 1.1//EN" "http://www.w3.org/Graphics/SVG/1.1/DTD/svg11.dtd">
<svg width="128.40" height="181.68" viewBox="0.00 0.00 535.00 757.00" xmlns="http://www.w3.org/2000/svg" xmlns:xlink="http://www.w3.org/1999/xlink">
<g stroke-linecap="round" id="151">
<path d="M298.77,135.00 C298.77,135.00 296.42,133.14 296.42,133.14 C296.21,133.78 296.83,172.60 297.96,186.82 C299.58,201.68 303.40,241.12 304.85,247.58 C305.63,251.02 310.01,267.63 310.68,269.21 C311.44,270.95 312.94,273.61 313.91,275.10" fill="none" stroke="rgb(0, 255, 0)" stroke-width="3.31" stroke-opacity="1.00" stroke-linejoin="round"/>
<path d="M329.06,131.84 C329.06,131.84 327.48,132.03 327.48,132.03 C327.33,134.73 327.35,136.24 327.64,138.01 C328.80,145.46 329.03,151.84 329.05,162.11 C328.95,169.31 328.45,184.05 328.45,189.33 C328.58,197.99 329.96,212.69 330.90,220.64 C332.37,231.92 334.14,242.57 336.12,247.18 C336.78,248.69 339.37,252.90 340.58,254.50 C341.63,255.89 345.39,260.02 347.61,261.04 C349.09,261.70 351.63,261.36 353.70,260.50 C355.53,259.69 364.78,252.42 366.71,252.06 C367.85,251.89 370.52,253.06 371.64,254.15 C373.90,256.45 375.82,261.46 376.25,263.63 C377.20,268.69 376.52,280.84 375.00,285.86 C374.14,288.60 372.18,292.01 370.04,293.55 C368.98,294.28 367.20,295.22 366.28,295.46 C365.83,295.57 358.70,296.39 356.83,296.56" fill="none" stroke="rgb(0, 255, 0)" stroke-width="3.31" stroke-opacity="1.00" stroke-linejoin="round"/>
<path d="M358.09,257.43 C356.38,258.04 354.71,261.75 354.69,261.76 C354.09,262.23 347.89,266.03 346.27,265.98 C345.04,265.87 341.70,262.17 338.63,258.00 C336.56,255.14 331.38,247.17 330.71,245.94 C328.47,241.75 326.31,229.73 325.98,222.37 C325.24,200.49 325.55,151.75 325.69,144.69" fill="none" stroke="rgb(0, 255, 0)" stroke-width="3.31" stroke-opacity="1.00" stroke-linejoin="round"/>
<path d="M299.40,200.00 C299.33,199.98 297.45,200.12 297.24,200.12 C295.72,200.09 293.89,199.37 292.49,198.22 C291.77,197.62 286.63,193.32 284.28,191.95 C281.77,190.51 276.08,188.36 273.79,187.79 C272.07,187.38 252.90,183.82 247.37,184.00 C244.84,184.09 223.10,186.50 221.85,186.54 C219.51,186.61 199.27,186.56 190.41,186.53 C180.99,186.60 156.04,188.29 130.42,191.52 C122.80,192.60 110.82,194.35 101.84,196.22 C94.40,197.94 79.11,201.48 71.26,203.31 C60.98,205.64 51.84,208.87 44.83,211.09 C40.04,212.67 28.96,217.44 25.50,218.94" fill="none" stroke="rgb(0, 255, 0)" stroke-width="3.31" stroke-opacity="1.00" stroke-linejoin="round"/>
<path d="M296.87,217.67 C296.87,217.67 297.51,215.15 297.51,215.15 C297.51,215.15 296.74,213.89 296.74,213.89 C296.14,213.94 279.56,207.77 278.62,207.30 C275.08,205.43 270.87,203.81 267.40,203.05 C265.94,202.74 245.79,201.20 238.69,200.56 C230.84,199.95 214.39,199.56 208.14,199.81 C203.54,199.99 187.75,201.31 181.47,201.69 C178.44,201.95 156.91,205.52 152.75,206.44 C149.32,207.20 132.10,212.06 124.62,214.19 C110.08,217.96 75.98,223.28 65.91,225.70 C59.33,227.36 43.07,231.71 40.46,232.07 C35.27,232.74 32.17,233.79 29.27,236.01 C28.33,236.74 26.77,237.99 26.13,238.50" fill="none" stroke="rgb(0, 255, 0)" stroke-width="3.31" stroke-opacity="1.00" stroke-linejoin="round"/>
<path d="M55.16,227.77 C55.16,227.77 50.43,226.09 50.43,226.09 C50.43,226.09 50.67,225.30 50.67,225.30 C53.18,224.34 56.80,223.35 61.70,222.25 C68.84,220.69 85.88,215.39 94.12,212.63 C100.47,210.49 113.08,206.33 118.94,205.58 C125.89,204.72 144.22,201.73 147.33,201.37 C154.10,200.61 170.31,200.65 177.98,200.69 C186.28,200.85 197.77,201.75 203.63,202.58 C207.88,203.18 226.22,207.12 233.88,208.84 C244.27,211.15 254.12,212.38 261.43,213.27 C269.50,214.17 283.76,215.43 284.88,215.50 C287.51,215.65 292.57,215.74 294.35,215.78" fill="none" stroke="rgb(0, 255, 0)" stroke-width="3.31" stroke-opacity="1.00" stroke-linejoin="round"/>
<path d="M23.61,244.18 C23.61,244.18 22.19,243.23 22.19,243.23 C21.79,241.80 21.71,238.45 21.56,237.21 C21.46,236.47 18.67,228.83 18.64,225.38 C18.65,221.87 19.57,216.11 21.20,212.69 C23.02,208.95 30.02,203.77 40.04,197.21 C53.63,188.56 82.03,170.58 91.23,165.54 C104.71,158.38 130.89,144.09 141.28,139.25 C148.76,135.87 162.46,129.88 168.66,127.27 C173.90,125.15 184.44,121.62 191.50,119.77 C212.77,114.28 228.81,109.14 232.51,108.23 C232.51,108.23 226.68,111.90 226.68,111.90" fill="none" stroke="rgb(0, 255, 0)" stroke-width="3.31" stroke-opacity="1.00" stroke-linejoin="round"/>
<path d="M219.88,114.81 C217.71,114.74 212.19,114.26 210.98,114.46 C207.63,115.05 166.90,123.66 158.87,126.20 C153.71,127.85 139.64,133.75 134.76,136.07 C130.04,138.21 114.58,142.90 108.31,144.76 C101.97,146.81 90.21,151.44 82.35,155.15 C75.43,158.52 58.35,167.39 55.01,169.33 C49.46,172.56 39.56,180.11 33.88,186.13 C30.40,189.84 19.90,203.00 16.38,208.21 C14.55,210.96 10.81,218.25 10.07,221.27 C9.62,223.24 9.53,226.33 9.88,227.68 C10.18,228.70 11.53,230.74 12.28,231.38 C12.95,231.91 15.72,233.26 16.71,233.33 C18.35,233.43 26.81,232.06 29.92,231.56" fill="none" stroke="rgb(0, 255, 0)" stroke-width="3.31" stroke-opacity="1.00" stroke-linejoin="round"/>
<path d="M341.68,208.84 C341.68,208.84 338.53,209.47 338.53,209.47 C338.53,209.47 336.00,203.50 336.00,203.50 C337.10,202.76 337.88,202.62 339.66,203.13 C343.26,204.16 364.36,209.23 367.77,209.89 C371.42,210.59 392.50,213.31 396.52,214.38 C401.80,215.83 436.52,232.64 445.91,237.76 C453.05,241.72 465.36,246.98 471.88,249.69 C478.52,252.63 488.56,259.14 499.17,266.55 C508.90,273.48 512.51,276.70 516.21,281.43 C516.21,281.43 515.87,280.15 515.87,280.15" fill="none" stroke="rgb(0, 255, 0)" stroke-width="3.31" stroke-opacity="1.00" stroke-linejoin="round"/>
<path d="M512.08,282.05 C509.26,281.95 504.53,279.25 500.88,276.44 C498.93,274.96 477.34,261.33 475.90,260.48 C470.10,257.03 454.25,250.05 453.39,249.74 C450.98,248.87 412.31,236.54 396.13,232.41 C391.65,231.33 383.20,229.33 379.24,228.41 C371.18,226.59 365.88,225.98 365.03,225.88" fill="none" stroke="rgb(0, 255, 0)" stroke-width="3.31" stroke-opacity="1.00" stroke-linejoin="round"/>
<path d="M344.84,214.52 C344.84,214.52 340.58,210.10 340.58,210.10 C342.75,211.60 347.91,215.14 350.91,217.20 C358.05,221.98 367.65,226.42 377.59,230.68 C385.60,234.03 397.04,237.55 406.39,239.84 C414.63,241.82 425.31,246.00 431.86,249.92 C437.53,253.32 477.96,270.80 485.70,274.84 C489.43,276.80 503.63,285.17 508.26,287.31 C509.83,288.01 512.62,288.72 513.76,288.53 C514.98,288.28 516.48,285.86 516.99,283.86 C518.19,278.65 518.43,264.77 518.16,256.88 C517.98,252.48 517.06,247.21 515.53,243.49 C513.43,238.48 505.30,225.94 500.35,220.77 C494.95,215.35 481.22,201.75 478.88,199.65 C477.12,198.07 421.75,154.97 411.32,148.39 C405.78,144.92 366.53,125.01 360.94,122.77 C355.15,120.48 341.50,116.91 334.87,115.36 C318.45,111.90 285.41,106.86 278.43,106.43 C271.60,106.03 252.19,106.43 250.71,106.52 C248.37,106.66 243.55,108.11 238.81,109.76" fill="none" stroke="rgb(0, 255, 0)" stroke-width="3.31" stroke-opacity="1.00" stroke-linejoin="round"/>
<path d="M296.24,112.91 C296.03,112.97 295.82,112.97 295.61,112.91 C295.40,112.85 294.91,112.64 294.12,112.28 C293.96,112.32 293.65,113.31 294.33,161.21 C294.34,162.36 294.34,163.51 294.35,164.66" fill="none" stroke="rgb(0, 255, 0)" stroke-width="3.31" stroke-opacity="1.00" stroke-linejoin="round"/>
<path d="M294.35,121.75 C293.02,122.55 292.37,122.91 291.93,123.01 C291.46,123.10 287.16,120.68 284.09,119.71 C276.58,117.40 265.34,115.81 259.86,116.60 C259.86,116.60 264.69,115.44 264.69,115.44" fill="none" stroke="rgb(0, 255, 0)" stroke-width="3.31" stroke-opacity="1.00" stroke-linejoin="round"/>
<path d="M277.94,116.70 C277.94,116.70 276.68,116.70 276.68,116.70 C277.88,117.75 292.16,125.38 294.25,127.49 C295.02,128.28 296.90,130.62 298.15,132.25 C298.15,132.25 297.04,134.25 297.04,134.25" fill="none" stroke="rgb(0, 255, 0)" stroke-width="3.31" stroke-opacity="1.00" stroke-linejoin="round"/>
<path d="M173.18,111.02 C171.34,110.89 167.92,112.34 166.55,114.41 C167.82,116.00 169.44,116.51 171.82,115.82 C172.01,115.76 197.03,106.73 197.16,106.66 C203.32,103.78 208.39,101.57 211.55,100.64 C217.38,98.97 250.29,96.02 262.64,95.34 C270.46,95.12 286.53,94.78 294.77,94.65 C302.54,94.54 318.60,96.38 324.16,97.47 C330.57,98.83 347.89,102.24 350.08,102.71 C357.23,104.23 368.98,108.24 377.98,112.21 C382.37,114.08 396.19,118.71 402.31,121.38 C405.09,122.60 451.37,148.73 452.67,149.64 C454.70,151.06 469.05,162.48 474.32,167.68 C479.63,172.93 487.78,182.64 491.88,188.17 C498.59,197.04 502.78,204.04 506.76,211.94 C508.31,215.03 511.84,222.80 512.28,223.84 C513.08,225.75 514.11,228.34 514.60,229.67" fill="none" stroke="rgb(0, 255, 0)" stroke-width="3.31" stroke-opacity="1.00" stroke-linejoin="round"/>
<path d="M484.94,196.22 C483.78,195.86 483.04,195.65 482.73,195.59 C482.42,195.52 482.11,195.52 481.79,195.59 C485.10,196.17 492.03,200.05 493.82,201.36 C498.12,204.57 505.45,212.54 509.18,218.51 C511.55,222.34 515.81,232.34 518.13,240.42 C520.17,247.95 521.02,254.48 521.47,254.74 C521.61,253.49 519.11,236.60 517.69,228.04 C515.49,216.17 513.94,211.39 512.19,208.87 C515.98,218.41 519.28,228.00 520.47,233.44 C521.73,239.26 523.15,249.17 523.62,256.64 C524.10,265.79 524.05,277.06 522.86,281.10 C520.70,288.21 517.46,290.79 517.16,290.74 C517.16,290.74 516.85,287.18 516.85,287.18 C516.85,287.18 511.45,282.05 511.45,282.05" fill="none" stroke="rgb(0, 255, 0)" stroke-width="3.31" stroke-opacity="1.00" stroke-linejoin="round"/>
<path d="M180.12,60.53 C180.12,60.53 178.36,60.53 178.36,60.53 C177.39,61.23 176.54,65.23 176.07,68.19 C173.64,84.32 170.10,109.72 169.77,113.91 C169.57,116.48 170.22,119.34 170.59,120.44" fill="none" stroke="rgb(0, 255, 255)" stroke-width="3.31" stroke-opacity="1.00" stroke-linejoin="round"/>
<path d="M209.78,71.89 C209.78,71.89 206.63,73.31 206.63,73.31 C205.57,76.93 205.08,86.02 204.97,87.40 C204.43,94.25 201.37,108.34 199.04,117.35 C197.07,124.79 194.17,135.97 193.66,138.18" fill="none" stroke="rgb(0, 255, 255)" stroke-width="3.31" stroke-opacity="1.00" stroke-linejoin="round"/>
<path d="M136.58,28.34 C136.58,28.34 132.06,25.19 132.06,25.19 C129.32,25.59 115.28,45.75 101.16,67.97 C95.00,77.85 90.89,85.03 87.98,91.83 C85.54,97.61 80.55,112.97 78.35,119.87 C72.43,137.56 62.12,159.98 61.15,162.46 C60.36,164.68 58.88,168.66 58.18,170.43" fill="none" stroke="rgb(0, 255, 255)" stroke-width="3.31" stroke-opacity="1.00" stroke-linejoin="round"/>
<path d="M58.95,74.41 C54.64,80.24 51.83,86.49 47.73,97.23 C40.27,117.05 34.41,133.96 32.18,142.32 C31.19,146.08 30.26,150.23 29.23,155.21" fill="none" stroke="rgb(0, 255, 255)" stroke-width="3.31" stroke-opacity="1.00" stroke-linejoin="round"/>
<path d="M84.19,184.86 C84.19,184.86 82.93,183.28 82.93,183.28 C83.33,183.47 83.76,183.94 84.03,184.81 C84.40,186.09 84.93,189.06 85.20,191.43 C85.43,193.64 85.82,197.32 85.97,198.78" fill="none" stroke="rgb(0, 255, 255)" stroke-width="3.31" stroke-opacity="1.00" stroke-linejoin="round"/>
<path d="M125.22,153.30 C125.22,153.30 124.58,153.62 124.58,153.62 C124.19,155.31 124.08,156.52 124.26,158.56 C124.91,166.91 124.94,176.90 124.46,184.22 C123.87,192.06 122.30,204.02 121.65,208.64" fill="none" stroke="rgb(0, 255, 255)" stroke-width="3.31" stroke-opacity="1.00" stroke-linejoin="round"/>
<path d="M162.45,152.67 C161.99,154.80 161.77,158.53 161.76,163.68 C161.77,167.51 161.74,175.43 161.58,179.43 C161.21,188.07 160.31,195.40 159.73,199.41" fill="none" stroke="rgb(0, 255, 255)" stroke-width="3.31" stroke-opacity="1.00" stroke-linejoin="round"/>
<path d="M209.15,135.63 C208.55,135.53 207.05,136.02 206.47,136.89 C206.31,137.13 195.83,179.32 191.90,195.04 C191.55,196.46 190.99,198.73 190.78,199.58" fill="none" stroke="rgb(0, 255, 255)" stroke-width="3.31" stroke-opacity="1.00" stroke-linejoin="round"/>
<path d="M238.18,142.57 C238.18,142.57 236.60,143.07 236.60,143.07 C236.24,147.27 236.27,153.20 236.29,156.54 C236.38,161.80 237.76,172.43 237.93,173.70" fill="none" stroke="rgb(0, 255, 255)" stroke-width="3.31" stroke-opacity="1.00" stroke-linejoin="round"/>
<path d="M265.95,128.06 C263.87,132.78 262.01,137.34 260.43,145.63 C258.76,153.45 255.24,165.46 251.64,175.59 C250.37,179.00 248.72,183.37 248.35,184.34" fill="none" stroke="rgb(0, 255, 255)" stroke-width="3.31" stroke-opacity="1.00" stroke-linejoin="round"/>
<path d="M275.42,13.83 C274.11,14.80 272.66,29.51 271.93,37.28 C271.33,45.68 270.30,61.86 269.87,69.63 C269.57,77.81 269.43,91.46 269.88,95.63 C270.05,97.20 270.94,103.33 271.10,104.45" fill="none" stroke="rgb(0, 255, 255)" stroke-width="3.31" stroke-opacity="1.00" stroke-linejoin="round"/>
<path d="M307.60,23.30 C307.60,23.30 304.90,24.29 304.90,24.29 C303.56,27.83 301.20,42.95 300.05,50.57 C296.41,73.92 295.30,83.78 294.60,99.92 C294.52,102.31 294.39,105.97 294.35,107.23" fill="none" stroke="rgb(0, 255, 255)" stroke-width="3.31" stroke-opacity="1.00" stroke-linejoin="round"/>
<path d="M349.89,36.55 C349.89,39.74 349.89,45.72 349.89,48.51 C349.90,66.02 349.95,110.57 350.05,113.20 C350.16,115.87 350.83,122.54 351.10,125.27" fill="none" stroke="rgb(0, 255, 255)" stroke-width="3.31" stroke-opacity="1.00" stroke-linejoin="round"/>
<path d="M383.33,28.98 C383.33,28.98 382.70,29.50 382.70,29.50 C382.70,35.19 382.67,48.96 382.65,57.05 C382.59,65.91 382.34,83.34 382.15,91.90 C381.67,103.00 380.25,122.51 380.18,123.64" fill="none" stroke="rgb(0, 255, 255)" stroke-width="3.31" stroke-opacity="1.00" stroke-linejoin="round"/>
<path d="M427.51,42.23 C427.51,41.64 427.51,41.06 427.51,40.47 C427.51,40.24 427.51,40.02 427.51,39.79 C427.40,56.14 427.12,85.49 425.92,99.55 C425.36,105.56 423.18,121.68 421.26,128.61 C419.26,135.69 414.95,147.29 413.80,149.82" fill="none" stroke="rgb(0, 255, 255)" stroke-width="3.31" stroke-opacity="1.00" stroke-linejoin="round"/>
<path d="M456.54,73.15 C456.54,73.15 454.96,73.96 454.96,73.96 C454.89,74.69 458.63,82.04 459.67,85.08 C461.53,90.64 463.85,107.35 463.70,111.42 C463.44,117.41 461.23,128.59 460.96,129.95" fill="none" stroke="rgb(0, 255, 255)" stroke-width="3.31" stroke-opacity="1.00" stroke-linejoin="round"/>
<path d="M477.37,33.39 C477.37,33.39 474.84,35.13 474.84,35.13 C474.50,36.60 474.56,37.63 475.27,39.46 C477.42,45.03 479.99,55.52 480.95,63.68 C481.56,69.23 481.94,82.81 481.43,89.46 C481.19,92.54 479.22,110.39 477.32,120.56 C475.68,128.63 472.06,144.45 470.36,151.69 C469.08,156.83 467.12,164.52 466.44,167.08" fill="none" stroke="rgb(0, 255, 255)" stroke-width="3.31" stroke-opacity="1.00" stroke-linejoin="round"/>
<path d="M523.44,61.79 C523.44,61.79 523.44,61.48 523.44,61.48 C523.44,61.48 523.12,61.16 523.12,61.16 C523.12,61.16 522.67,61.41 522.67,61.41 C521.56,67.57 512.41,143.85 511.63,155.09 C511.11,164.30 511.05,174.50 511.82,179.95 C511.90,180.53 511.99,181.12 512.08,181.70" fill="none" stroke="rgb(0, 255, 255)" stroke-width="3.31" stroke-opacity="1.00" stroke-linejoin="round"/>
<path d="M445.81,22.66 C443.66,24.11 442.61,24.96 442.66,25.77 C442.82,27.91 445.10,34.02 446.40,37.23 C447.17,39.12 448.46,42.25 448.97,43.49" fill="none" stroke="rgb(0, 255, 255)" stroke-width="3.31" stroke-opacity="1.00" stroke-linejoin="round"/>
<path d="M454.65,192.43 C452.56,194.40 451.70,195.51 451.44,196.87 C451.05,198.84 446.52,218.74 444.60,227.14 C442.08,238.52 441.07,244.25 440.76,246.07" fill="none" stroke="rgb(0, 255, 255)" stroke-width="3.31" stroke-opacity="1.00" stroke-linejoin="round"/>
<path d="M466.01,211.99 C466.01,211.99 465.06,211.99 465.06,211.99 C464.40,213.53 463.81,220.20 463.46,224.05 C461.74,240.06 457.69,270.35 455.51,285.69 C454.33,293.35 452.64,304.47 452.12,307.92" fill="none" stroke="rgb(0, 255, 255)" stroke-width="3.31" stroke-opacity="1.00" stroke-linejoin="round"/>
<path d="M430.04,180.44 C430.04,180.44 429.09,178.86 429.09,178.86 C429.09,178.86 428.56,179.07 428.56,179.07 C425.85,191.47 419.70,217.96 416.27,232.06 C403.96,279.03 400.06,296.01 399.80,299.10 C399.73,299.97 399.75,303.00 399.74,304.13" fill="none" stroke="rgb(0, 255, 255)" stroke-width="3.31" stroke-opacity="1.00" stroke-linejoin="round"/>
<path d="M396.59,170.34 C394.59,171.15 392.62,173.74 391.28,177.91 C389.22,184.61 376.69,248.83 373.80,263.42 C370.90,276.82 367.47,292.76 366.93,295.30" fill="none" stroke="rgb(0, 255, 255)" stroke-width="3.31" stroke-opacity="1.00" stroke-linejoin="round"/>
<path d="M358.09,155.20 C358.09,155.20 355.88,154.88 355.88,154.88 C355.88,154.88 355.57,154.36 355.57,154.36 C356.14,159.05 356.03,175.78 355.74,183.49 C355.07,195.33 353.15,217.69 353.04,218.94" fill="none" stroke="rgb(0, 255, 255)" stroke-width="3.31" stroke-opacity="1.00" stroke-linejoin="round"/>
<path d="M118.27,226.51 C118.27,226.51 117.07,225.88 117.07,225.88 C115.81,227.59 114.53,233.80 113.75,237.69 C112.30,245.44 109.83,258.76 109.73,259.41 C109.29,262.26 108.90,265.38 108.81,266.71" fill="none" stroke="rgb(0, 255, 255)" stroke-width="3.31" stroke-opacity="1.00" stroke-linejoin="round"/>
<path d="M87.98,242.29 C87.98,242.29 87.98,238.76 87.98,238.76 C86.96,245.98 84.82,260.17 83.58,266.82 C82.93,269.95 81.62,276.34 80.94,279.62 C80.11,283.91 78.69,291.33 78.10,294.47" fill="none" stroke="rgb(0, 255, 255)" stroke-width="3.31" stroke-opacity="1.00" stroke-linejoin="round"/>
<path d="M103.76,306.03 C102.19,307.52 100.12,311.18 99.34,313.50 C98.45,316.26 93.73,335.53 91.91,343.07 C91.42,345.03 90.87,347.09 90.56,348.17" fill="none" stroke="rgb(0, 255, 255)" stroke-width="3.31" stroke-opacity="1.00" stroke-linejoin="round"/>
<path d="M76.62,307.29 C76.09,309.93 75.94,310.93 75.84,312.69 C75.66,315.80 73.16,333.56 71.43,341.68 C69.85,348.41 68.03,356.15 67.79,357.15" fill="none" stroke="rgb(0, 255, 255)" stroke-width="3.31" stroke-opacity="1.00" stroke-linejoin="round"/>
<path d="M62.11,230.30 C62.11,230.78 62.11,231.26 62.11,231.74 C61.87,251.48 60.29,265.36 58.62,274.35 C56.95,282.99 55.12,288.70 53.95,292.05" fill="none" stroke="rgb(0, 255, 255)" stroke-width="3.31" stroke-opacity="1.00" stroke-linejoin="round"/>
<path d="M34.97,252.38 C32.77,254.99 31.30,258.65 30.92,262.38 C29.79,274.80 26.22,301.39 25.35,309.15 C24.93,313.26 24.37,318.64 24.24,319.91" fill="none" stroke="rgb(0, 255, 255)" stroke-width="3.31" stroke-opacity="1.00" stroke-linejoin="round"/>
<path d="M507.66,293.41 C507.66,293.41 507.03,293.41 507.03,293.41 C505.49,294.46 502.82,297.70 500.77,299.21 C496.89,302.02 485.12,306.28 479.09,308.54 C477.42,309.20 475.27,310.21 472.83,311.47 C470.96,312.48 469.37,313.94 468.81,315.32 C467.79,318.06 468.32,323.64 469.10,326.44 C470.59,331.65 478.11,344.13 481.98,350.49 C487.22,358.70 496.12,370.03 499.14,372.68 C500.47,373.84 510.80,380.31 511.95,380.90 C513.23,381.54 515.03,382.19 515.87,382.39" fill="none" stroke="rgb(0, 0, 255)" stroke-width="3.31" stroke-opacity="1.00" stroke-linejoin="round"/>
<path d="M498.83,316.13 C498.83,316.28 505.47,320.87 508.51,322.95 C515.53,327.81 520.12,333.13 521.46,334.91 C521.46,334.91 520.28,334.43 520.28,334.43" fill="none" stroke="rgb(0, 0, 255)" stroke-width="3.31" stroke-opacity="1.00" stroke-linejoin="round"/>
<path d="M503.87,332.53 C503.56,332.53 503.24,332.53 502.93,332.53 C500.69,332.52 500.20,332.60 500.26,332.62 C508.65,339.55 517.31,349.98 518.08,350.95 C518.08,350.95 517.13,350.84 517.13,350.84" fill="none" stroke="rgb(0, 0, 255)" stroke-width="3.31" stroke-opacity="1.00" stroke-linejoin="round"/>
<path d="M501.35,348.31 C500.40,348.31 499.46,348.31 498.51,348.31 C498.41,348.31 498.09,348.31 498.19,348.31 C500.19,348.88 504.39,350.76 507.84,352.72 C510.64,354.34 514.05,357.48 514.39,358.08 C514.50,358.28 514.57,358.60 514.60,359.04" fill="none" stroke="rgb(0, 0, 255)" stroke-width="3.31" stroke-opacity="1.00" stroke-linejoin="round"/>
<path d="M21.72,343.89 C21.72,343.89 20.52,343.89 20.52,343.89 C20.52,343.89 19.82,344.65 19.82,344.65 C20.49,346.08 26.18,350.34 28.54,352.08 C31.11,353.92 34.70,355.11 36.84,355.17 C38.90,355.21 55.56,353.09 66.60,353.27 C72.63,353.42 77.04,353.72 78.92,354.39 C81.25,355.25 86.92,358.49 89.12,361.07 C90.23,362.41 94.53,369.99 95.39,372.23 C96.02,373.93 97.26,380.01 97.23,382.32 C97.16,384.72 95.87,389.75 94.66,392.73 C92.71,397.44 83.79,410.35 82.91,412.98 C81.98,415.89 81.08,421.02 81.31,425.17 C81.93,431.88 83.01,445.90 82.74,450.69 C82.54,453.89 80.85,459.80 79.94,461.69 C78.70,464.22 74.48,469.04 71.88,470.98 C69.65,472.60 64.44,475.39 61.25,476.64 C57.83,477.95 52.25,479.60 48.81,479.83 C45.31,480.03 39.60,479.58 36.67,478.76 C33.04,477.71 25.59,474.90 24.38,474.51 C22.47,473.91 16.10,472.45 14.14,472.01" fill="none" stroke="rgb(0, 0, 255)" stroke-width="3.31" stroke-opacity="1.00" stroke-linejoin="round"/>
<path d="M22.98,450.55 C22.98,450.55 21.08,451.71 21.08,451.71 C22.80,453.04 35.05,454.44 38.30,454.70 C40.44,454.85 43.71,454.69 45.32,454.34 C45.79,454.23 46.34,454.02 46.96,453.71" fill="none" stroke="rgb(0, 0, 255)" stroke-width="3.31" stroke-opacity="1.00" stroke-linejoin="round"/>
<path d="M10.99,442.35 C10.99,442.35 6.73,442.35 6.73,442.35 C10.67,442.35 26.68,441.98 33.15,441.82 C41.36,441.71 52.49,442.51 56.80,443.97 C56.80,443.97 56.43,446.13 56.43,446.13" fill="none" stroke="rgb(0, 0, 255)" stroke-width="3.31" stroke-opacity="1.00" stroke-linejoin="round"/>
<path d="M25.50,425.94 C25.50,425.94 23.09,427.20 23.09,427.20 C29.34,426.27 40.45,424.69 46.98,424.71 C50.33,424.78 56.23,424.93 59.09,425.58 C59.09,425.58 58.95,426.57 58.95,426.57" fill="none" stroke="rgb(0, 0, 255)" stroke-width="3.31" stroke-opacity="1.00" stroke-linejoin="round"/>
<path d="M24.87,400.69 C24.87,400.69 22.43,400.69 22.43,400.69 C23.27,400.76 26.54,399.80 32.24,398.03 C35.80,396.97 42.09,396.12 45.75,396.03 C49.10,395.98 54.02,396.26 58.34,397.11 C59.51,397.34 70.86,399.85 72.59,400.06 C68.09,399.88 63.92,399.26 59.28,397.74 C50.00,394.62 39.16,391.43 32.91,390.20 C29.88,389.62 26.89,389.77 25.87,390.01 C25.11,390.21 24.36,390.40 23.61,390.60" fill="none" stroke="rgb(0, 0, 255)" stroke-width="3.31" stroke-opacity="1.00" stroke-linejoin="round"/>
<path d="M27.39,379.87 C27.39,379.87 26.76,379.87 26.76,379.87 C29.18,379.85 30.40,379.88 32.42,379.99 C39.87,380.40 54.05,381.23 61.37,382.32 C70.01,383.64 74.35,385.68 78.00,387.62 C78.00,387.62 77.88,391.86 77.88,391.86" fill="none" stroke="rgb(0, 0, 255)" stroke-width="3.31" stroke-opacity="1.00" stroke-linejoin="round"/>
<path d="M21.08,369.14 C21.08,369.14 17.09,369.14 17.09,369.14 C23.93,368.95 42.13,368.62 46.07,368.78 C52.34,369.05 64.51,371.43 68.99,373.30 C71.09,374.20 75.36,376.50 76.73,378.25 C77.42,379.14 77.82,379.71 77.95,379.96 C78.09,380.26 78.28,380.86 78.51,381.76" fill="none" stroke="rgb(0, 0, 255)" stroke-width="3.31" stroke-opacity="1.00" stroke-linejoin="round"/>
<path d="M6.57,570.46 C6.57,570.46 4.36,573.24 4.36,573.24 C4.36,573.24 4.82,573.32 4.82,573.32 C8.35,571.56 12.17,569.92 14.59,569.30 C17.40,568.60 23.12,568.19 26.32,568.64 C28.56,568.98 35.64,570.76 39.38,571.56 C46.37,573.04 51.64,574.40 53.23,576.38 C54.52,578.05 56.94,587.04 57.50,588.10 C57.62,588.32 69.59,590.79 70.32,591.13 C70.54,591.24 70.96,591.50 71.57,591.92" fill="none" stroke="rgb(0, 0, 255)" stroke-width="3.31" stroke-opacity="1.00" stroke-linejoin="round"/>
<path d="M70.94,599.49 C70.94,599.49 67.99,599.49 67.99,599.49 C67.82,602.12 73.27,616.42 75.87,622.86 C77.03,626.20 78.23,633.05 78.27,636.04 C78.28,638.66 77.10,643.93 76.34,645.88 C73.87,652.07 67.98,659.90 60.79,668.14 C58.35,670.98 54.11,676.47 52.80,678.72 C50.40,682.90 42.58,703.50 41.67,705.20 C41.67,705.20 39.39,703.62 39.39,703.62" fill="none" stroke="rgb(0, 0, 255)" stroke-width="3.31" stroke-opacity="1.00" stroke-linejoin="round"/>
<path d="M9.72,660.07 C8.77,661.01 6.13,663.60 5.62,664.02 C5.29,664.29 4.77,664.66 4.04,665.12 C7.55,665.16 30.26,666.39 31.39,666.39 C31.53,666.39 31.67,666.39 31.81,666.39" fill="none" stroke="rgb(0, 0, 255)" stroke-width="3.31" stroke-opacity="1.00" stroke-linejoin="round"/>
<path d="M9.09,634.20 C9.09,634.20 7.99,636.72 7.99,636.72 C9.88,638.00 15.21,639.14 18.21,639.80 C30.97,642.27 48.50,645.92 49.51,646.75 C49.72,646.93 50.13,647.37 50.75,648.08" fill="none" stroke="rgb(0, 0, 255)" stroke-width="3.31" stroke-opacity="1.00" stroke-linejoin="round"/>
<path d="M27.39,617.79 C27.39,617.79 24.87,617.16 24.87,617.16 C33.01,617.66 56.59,625.60 57.56,626.39 C57.89,626.67 58.56,627.38 59.58,628.52" fill="none" stroke="rgb(0, 0, 255)" stroke-width="3.31" stroke-opacity="1.00" stroke-linejoin="round"/>
<path d="M176.97,227.14 C176.97,227.14 178.39,227.46 178.39,227.46 C178.39,227.46 178.86,228.64 178.86,228.64 C177.63,229.54 172.42,230.14 169.64,231.17 C166.99,232.17 157.54,236.54 156.09,237.53 C154.71,238.50 152.73,240.46 152.09,241.47 C151.37,242.67 151.17,243.66 151.07,245.92 C151.02,246.88 147.91,249.91 146.65,251.15" fill="none" stroke="rgb(255, 0, 255)" stroke-width="3.31" stroke-opacity="1.00" stroke-linejoin="round"/>
<path d="M165.61,241.02 C165.61,241.02 165.29,241.91 165.29,241.91 C164.39,242.42 161.35,244.17 160.57,244.67 C156.85,247.09 151.89,252.18 150.03,254.39 C148.52,256.21 145.55,261.51 144.02,264.25 C143.64,264.91 143.27,265.58 142.90,266.24" fill="none" stroke="rgb(255, 0, 255)" stroke-width="3.31" stroke-opacity="1.00" stroke-linejoin="round"/>
<path d="M158.03,227.77 C158.03,227.77 159.61,227.14 159.61,227.14 C159.61,227.14 159.84,227.39 159.84,227.39 C159.14,228.48 154.79,234.91 153.48,237.09 C151.08,241.15 145.63,254.25 145.10,258.23 C144.77,260.97 145.22,267.49 145.35,269.22" fill="none" stroke="rgb(255, 0, 255)" stroke-width="3.31" stroke-opacity="1.00" stroke-linejoin="round"/>
<path d="M142.89,235.34 C142.89,235.34 142.89,235.03 142.89,235.03 C142.89,235.03 143.52,234.12 143.52,234.12 C141.74,234.05 136.29,235.72 133.49,237.55 C131.87,238.63 128.19,242.55 126.66,245.04 C125.14,247.58 123.42,252.31 122.87,255.21 C122.39,257.99 123.82,274.43 123.76,277.01 C123.62,281.80 121.08,293.79 118.95,300.50 C116.38,308.22 110.76,318.55 110.80,319.20 C114.91,313.55 121.38,302.10 124.32,295.87 C126.31,291.65 132.59,276.71 132.66,276.45 C132.76,276.04 132.90,275.17 133.06,273.84" fill="none" stroke="rgb(255, 0, 255)" stroke-width="3.31" stroke-opacity="1.00" stroke-linejoin="round"/>
<path d="M125.22,315.49 C125.28,316.67 125.33,317.41 125.37,317.70 C125.85,321.13 136.72,345.11 137.73,346.46 C138.21,347.10 140.73,349.23 141.93,350.28" fill="none" stroke="rgb(255, 0, 255)" stroke-width="3.31" stroke-opacity="1.00" stroke-linejoin="round"/>
<path d="M134.05,317.39 C134.05,317.39 132.79,316.76 132.79,316.76 C133.32,321.95 137.63,336.63 139.75,342.25 C142.38,349.15 148.66,360.12 151.67,362.54 C152.79,363.43 153.87,363.88 154.64,363.88 C154.56,364.03 150.99,355.83 146.45,338.96 C145.12,333.82 144.39,330.69 143.60,326.96 C144.98,331.83 148.23,339.70 153.41,350.16 C157.84,358.65 163.89,366.92 166.87,371.03" fill="none" stroke="rgb(255, 0, 255)" stroke-width="3.31" stroke-opacity="1.00" stroke-linejoin="round"/>
<path d="M155.51,277.00 C155.51,277.00 154.25,273.32 154.25,273.32 C153.87,284.77 153.28,292.58 152.01,300.70 C150.76,308.20 149.36,316.86 149.20,318.02" fill="none" stroke="rgb(255, 0, 255)" stroke-width="3.31" stroke-opacity="1.00" stroke-linejoin="round"/>
<path d="M161.19,275.74 C161.19,275.74 158.98,275.26 158.98,275.26 C158.98,275.26 158.66,274.21 158.66,274.21 C159.01,272.90 165.43,267.45 166.69,266.25 C169.62,263.44 175.80,253.24 177.97,247.44 C179.28,243.87 181.74,231.88 181.77,231.36 C181.79,231.00 181.73,230.44 181.59,229.68" fill="none" stroke="rgb(255, 0, 255)" stroke-width="3.31" stroke-opacity="1.00" stroke-linejoin="round"/>
<path d="M185.17,229.03 C185.17,229.03 182.80,229.03 182.80,229.03 C186.01,228.02 192.19,225.32 193.94,224.64 C197.81,223.17 203.16,221.91 207.09,221.64 C208.76,221.53 233.39,219.59 235.69,219.47 C238.99,219.32 242.40,219.61 245.25,220.65 C246.50,221.11 253.84,224.12 256.76,225.56 C261.10,227.76 264.95,230.33 266.72,233.40 C267.04,233.96 270.53,240.95 272.69,244.51 C274.67,247.72 286.51,262.45 287.60,264.72 C291.50,273.17 296.15,285.37 296.54,289.55 C296.76,292.18 295.81,300.17 295.19,301.74 C294.88,302.49 292.13,305.54 291.19,306.66" fill="none" stroke="rgb(255, 0, 255)" stroke-width="3.31" stroke-opacity="1.00" stroke-linejoin="round"/>
<path d="M291.19,279.52 C291.19,279.52 288.76,279.52 288.76,279.52 C288.71,282.67 288.57,289.89 288.26,292.18 C288.00,294.07 286.27,299.43 285.13,301.54 C283.86,303.85 282.18,305.42 281.58,305.64 C281.11,301.67 282.30,294.96 282.98,291.01 C283.68,286.91 284.56,281.56 284.75,280.30 C283.92,281.53 276.83,297.45 274.22,300.69 C273.71,301.33 271.09,304.01 269.74,305.40" fill="none" stroke="rgb(255, 0, 255)" stroke-width="3.31" stroke-opacity="1.00" stroke-linejoin="round"/>
<path d="M264.69,274.47 C264.69,274.47 264.69,271.95 264.69,271.95 C264.19,275.26 258.66,285.34 253.86,291.09 C247.06,299.08 242.77,304.52 239.06,309.82 C240.12,307.97 242.54,305.71 246.33,303.03 C251.95,299.09 267.05,285.20 269.12,282.37 C268.92,284.30 268.83,285.54 268.85,286.08 C268.88,286.92 269.71,289.16 270.01,289.97" fill="none" stroke="rgb(255, 0, 255)" stroke-width="3.31" stroke-opacity="1.00" stroke-linejoin="round"/>
<path d="M262.16,249.86 C260.76,249.80 258.65,249.96 257.76,250.45 C255.36,251.81 247.16,267.01 244.93,272.56 C240.59,283.53 238.73,288.55 238.05,290.62 C238.05,290.62 240.25,287.76 240.25,287.76" fill="none" stroke="rgb(255, 0, 255)" stroke-width="3.31" stroke-opacity="1.00" stroke-linejoin="round"/>
<path d="M243.23,282.68 C243.23,282.68 243.39,284.99 243.39,284.99 C244.60,285.32 248.36,282.83 251.36,278.80 C251.36,278.80 247.62,281.63 247.62,281.63" fill="none" stroke="rgb(255, 0, 255)" stroke-width="3.31" stroke-opacity="1.00" stroke-linejoin="round"/>
<path d="M235.03,250.49 C235.03,250.49 235.34,249.86 235.34,249.86 C235.34,249.86 236.20,249.86 236.20,249.86 C236.22,251.37 228.09,261.87 221.42,271.59 C219.66,274.17 216.80,278.33 215.70,279.92 C215.48,278.76 219.81,266.02 222.75,259.93 C226.13,253.20 230.68,244.22 231.52,242.14 C230.82,242.38 226.47,246.31 223.89,248.63 C223.19,249.25 222.48,249.87 221.77,250.49" fill="none" stroke="rgb(255, 0, 255)" stroke-width="3.31" stroke-opacity="1.00" stroke-linejoin="round"/>
<path d="M209.78,256.17 C209.78,256.17 208.52,257.75 208.52,257.75 C208.52,257.75 208.52,258.06 208.52,258.06 C207.84,259.41 195.84,272.50 192.60,276.60 C189.99,279.92 180.20,293.42 177.43,297.21 C177.43,297.21 177.24,295.58 177.24,295.58" fill="none" stroke="rgb(255, 0, 255)" stroke-width="3.31" stroke-opacity="1.00" stroke-linejoin="round"/>
<path d="M183.91,274.47 C181.19,275.77 178.33,276.85 178.09,277.20 C177.94,277.43 173.22,284.50 171.55,287.04 C170.21,289.09 168.15,291.91 167.59,292.67" fill="none" stroke="rgb(255, 0, 255)" stroke-width="3.31" stroke-opacity="1.00" stroke-linejoin="round"/>
<path d="M207.89,241.66 C205.73,242.11 202.36,244.36 199.85,247.30 C197.76,249.73 192.06,256.40 191.02,257.66 C188.24,261.08 187.08,263.08 185.80,265.64" fill="none" stroke="rgb(255, 0, 255)" stroke-width="3.31" stroke-opacity="1.00" stroke-linejoin="round"/>
<path d="M214.83,279.52 C214.83,279.52 214.83,278.89 214.83,278.89 C213.43,278.73 212.50,278.96 211.25,280.18 C197.95,293.18 191.14,302.75 189.86,305.07 C190.57,303.64 191.06,302.40 191.53,300.66 C192.02,298.83 192.54,296.54 192.96,294.38 C193.60,290.95 193.27,289.73 192.90,289.38 C190.52,292.32 188.31,297.94 187.68,299.68 C186.41,303.35 184.29,309.47 183.44,311.93" fill="none" stroke="rgb(255, 0, 255)" stroke-width="3.31" stroke-opacity="1.00" stroke-linejoin="round"/>
<path d="M183.91,304.77 C183.91,304.77 181.54,307.29 181.54,307.29 C181.78,308.99 194.06,341.33 196.91,348.50 C198.06,351.37 199.97,356.14 201.36,357.49 C198.73,354.58 189.75,340.98 185.00,333.74 C180.87,327.46 172.45,314.79 169.00,309.97 C169.00,309.97 169.89,310.86 169.89,310.86 C169.89,310.86 169.86,311.06 169.86,311.06 C169.86,311.06 169.47,311.08 169.47,311.08 C170.23,314.00 173.61,319.82 175.61,323.27 C181.12,332.57 189.46,345.13 191.43,347.36 C193.13,349.27 197.54,353.21 198.42,353.99" fill="none" stroke="rgb(255, 0, 255)" stroke-width="3.31" stroke-opacity="1.00" stroke-linejoin="round"/>
<path d="M158.66,314.86 C158.66,314.86 156.93,314.86 156.93,314.86 C156.93,314.86 156.30,315.81 156.30,315.81 C156.71,317.99 157.10,319.37 157.79,320.28 C159.43,322.43 176.32,338.60 177.21,339.54 C177.77,340.15 184.83,349.17 186.18,351.11 C187.56,353.08 192.86,361.98 193.33,362.76" fill="none" stroke="rgb(255, 0, 255)" stroke-width="3.31" stroke-opacity="1.00" stroke-linejoin="round"/>
<path d="M166.87,330.64 C166.86,330.52 161.62,328.76 160.67,328.75 C159.76,328.76 157.76,331.17 157.40,333.29 C156.95,336.10 157.81,341.30 158.69,343.42 C159.77,345.96 163.15,350.26 165.29,351.69 C167.19,352.91 172.69,354.23 175.96,353.45 C177.13,353.15 181.35,350.41 182.65,349.57" fill="none" stroke="rgb(255, 0, 255)" stroke-width="3.31" stroke-opacity="1.00" stroke-linejoin="round"/>
<path d="M164.97,337.58 C164.68,337.85 164.47,338.06 164.34,338.21 C164.22,338.37 164.01,338.68 163.71,339.16 C164.80,339.42 165.78,339.53 167.78,339.54 C169.52,339.56 173.19,339.61 174.47,339.67 C176.37,339.75 179.18,339.96 180.75,340.11" fill="none" stroke="rgb(255, 0, 255)" stroke-width="3.31" stroke-opacity="1.00" stroke-linejoin="round"/>
<path d="M196.53,302.24 C196.53,302.24 191.48,305.40 191.48,305.40 C193.83,305.49 207.00,302.85 214.77,300.33 C220.47,298.46 228.81,293.54 232.15,290.85 C232.15,290.85 231.24,290.88 231.24,290.88" fill="none" stroke="rgb(255, 0, 255)" stroke-width="3.31" stroke-opacity="1.00" stroke-linejoin="round"/>
<path d="M230.61,285.20 C228.84,286.81 227.66,288.86 227.53,291.04 C227.43,292.95 228.33,297.64 228.79,299.46 C228.79,299.46 229.35,286.76 229.35,286.76 C229.35,286.76 229.98,293.41 229.98,293.41" fill="none" stroke="rgb(255, 0, 255)" stroke-width="3.31" stroke-opacity="1.00" stroke-linejoin="round"/>
<path d="M237.55,289.62 C237.55,289.62 235.03,290.59 235.03,290.59 C235.03,290.59 237.55,299.14 237.55,299.14 C237.55,299.14 238.59,298.29 238.59,298.29" fill="none" stroke="rgb(255, 0, 255)" stroke-width="3.31" stroke-opacity="1.00" stroke-linejoin="round"/>
<path d="M226.19,294.04 C224.66,294.14 223.70,294.24 223.31,294.32 C222.74,294.45 203.24,306.28 202.81,306.49 C202.32,306.74 201.49,307.00 200.32,307.29" fill="none" stroke="rgb(255, 0, 255)" stroke-width="3.31" stroke-opacity="1.00" stroke-linejoin="round"/>
<path d="M228.08,307.92 C226.45,309.04 225.48,309.16 225.15,309.18 C219.33,309.63 208.31,310.09 202.67,312.21 C200.47,313.06 196.07,315.69 195.00,316.75 C194.65,317.10 193.89,317.94 192.74,319.28" fill="none" stroke="rgb(255, 0, 255)" stroke-width="3.31" stroke-opacity="1.00" stroke-linejoin="round"/>
<path d="M243.86,307.29 C243.86,307.29 243.86,306.03 243.86,306.03 C243.80,306.46 244.08,308.80 244.44,310.38 C244.65,311.27 253.80,327.56 255.07,330.05 C253.27,331.09 248.56,331.79 241.46,333.11 C239.33,333.50 235.80,334.17 234.40,334.43" fill="none" stroke="rgb(255, 0, 255)" stroke-width="3.31" stroke-opacity="1.00" stroke-linejoin="round"/>
<path d="M255.22,303.50 C254.49,303.50 253.75,303.50 253.01,303.50 C252.73,303.50 252.44,303.50 252.15,303.50 C255.28,303.54 262.15,302.88 264.63,303.00 C267.41,303.15 271.18,304.80 271.92,305.90 C269.60,305.73 260.80,304.22 259.36,304.03 C257.52,303.78 255.14,303.56 253.96,303.50" fill="none" stroke="rgb(255, 0, 255)" stroke-width="3.31" stroke-opacity="1.00" stroke-linejoin="round"/>
<path d="M275.42,302.87 C274.80,303.33 273.56,304.00 272.89,304.13 C272.65,304.18 272.28,304.18 271.79,304.13 C273.36,304.66 275.09,307.62 277.65,312.61 C279.27,315.73 282.08,319.87 282.78,321.94 C283.72,324.81 283.43,332.40 282.35,334.71 C281.32,336.77 275.91,342.23 273.19,344.27 C269.64,346.92 265.37,349.61 262.57,350.90 C259.28,352.39 256.47,353.42 252.70,354.62" fill="none" stroke="rgb(255, 0, 255)" stroke-width="3.31" stroke-opacity="1.00" stroke-linejoin="round"/>
<path d="M263.43,300.35 C263.43,300.35 260.27,302.82 260.27,302.82 C260.60,301.86 265.74,297.95 266.36,297.67 C267.92,297.00 270.01,297.63 272.23,299.28 C272.54,299.52 272.97,299.87 273.52,300.35" fill="none" stroke="rgb(255, 0, 255)" stroke-width="3.31" stroke-opacity="1.00" stroke-linejoin="round"/>
<path d="M245.12,335.69 C245.12,335.69 244.81,336.57 244.81,336.57 C244.81,336.57 243.62,336.89 243.62,336.89 C243.62,336.89 225.70,333.17 225.70,333.17 C224.31,335.83 223.76,337.28 223.78,338.53 C223.83,340.72 224.13,346.31 224.64,348.87 C225.24,351.79 226.89,355.68 228.62,357.28 C230.14,358.62 235.42,358.65 238.38,358.04 C240.80,357.51 244.59,355.81 246.22,354.34 C247.96,352.70 250.89,347.77 251.74,344.95 C252.58,342.07 253.09,335.21 252.84,334.82 C252.58,334.39 251.69,333.42 250.17,331.90" fill="none" stroke="rgb(255, 0, 255)" stroke-width="3.31" stroke-opacity="1.00" stroke-linejoin="round"/>
<path d="M251.44,340.11 C251.44,340.11 250.49,341.37 250.49,341.37 C249.43,341.42 243.40,340.58 239.85,341.23 C235.78,341.98 226.93,341.70 226.47,341.46 C226.20,341.31 225.68,340.86 224.93,340.11" fill="none" stroke="rgb(255, 0, 255)" stroke-width="3.31" stroke-opacity="1.00" stroke-linejoin="round"/>
<path d="M197.79,327.49 C197.79,327.49 195.90,327.49 195.90,327.49 C199.07,325.75 203.63,323.66 207.11,322.55 C208.74,322.04 209.61,321.76 209.71,321.72 C209.97,321.61 210.18,321.46 210.35,321.27" fill="none" stroke="rgb(255, 0, 255)" stroke-width="3.31" stroke-opacity="1.00" stroke-linejoin="round"/>
<path d="M202.84,330.01 C202.84,330.01 200.95,331.27 200.95,331.27 C200.92,331.29 205.56,329.72 206.42,329.41 C206.97,329.21 208.06,328.79 209.68,328.16" fill="none" stroke="rgb(255, 0, 255)" stroke-width="3.31" stroke-opacity="1.00" stroke-linejoin="round"/>
<path d="M226.19,359.67 C224.74,359.62 223.81,359.62 223.41,359.67 C222.78,359.75 220.90,360.29 218.46,360.30 C216.65,360.30 212.81,360.30 210.77,360.30 C209.11,360.30 206.41,360.30 205.36,360.30" fill="none" stroke="rgb(255, 0, 255)" stroke-width="3.31" stroke-opacity="1.00" stroke-linejoin="round"/>
<path d="M262.79,353.36 C262.79,353.36 261.65,354.62 261.65,354.62 C264.32,354.63 269.72,355.13 273.44,356.26 C276.69,357.28 294.02,368.49 295.60,369.69 C298.22,371.69 302.05,375.93 304.24,377.98 C306.29,379.88 309.97,382.36 310.74,382.04 C311.89,380.23 312.00,374.50 312.07,371.96 C312.35,364.27 313.44,347.35 314.05,338.85 C314.85,326.04 314.11,309.24 314.66,308.27 C316.80,307.59 332.25,309.23 338.79,311.33 C345.16,313.38 354.86,315.04 358.28,314.55 C358.66,314.49 359.23,314.39 359.98,314.23" fill="none" stroke="rgb(255, 0, 255)" stroke-width="3.31" stroke-opacity="1.00" stroke-linejoin="round"/>
<path d="M314.54,306.03 C314.54,306.03 312.19,305.40 312.19,305.40 C313.91,305.39 315.19,305.30 317.67,305.00 C326.05,303.96 340.38,300.88 344.15,301.04 C347.15,301.21 354.85,303.60 356.73,304.91 C358.02,305.86 358.64,307.84 358.71,310.32 C358.72,312.08 360.11,333.51 360.26,336.76 C360.77,353.49 360.35,370.15 360.01,373.19 C360.01,373.19 359.98,372.00 359.98,372.00" fill="none" stroke="rgb(255, 0, 255)" stroke-width="3.31" stroke-opacity="1.00" stroke-linejoin="round"/>
<path d="M357.46,413.31 C357.47,414.05 357.47,414.54 357.46,414.79 C357.40,416.61 352.80,430.16 350.61,434.98 C349.79,436.76 342.85,451.47 340.77,456.40 C340.77,456.40 339.16,454.97 339.16,454.97" fill="none" stroke="rgb(255, 0, 255)" stroke-width="3.31" stroke-opacity="1.00" stroke-linejoin="round"/>
<path d="M345.47,416.47 C344.24,418.26 343.20,420.48 342.94,422.26 C342.84,422.98 342.80,433.56 342.22,436.71 C341.78,439.01 339.43,446.95 338.49,449.41 C337.58,451.69 336.82,452.95 335.94,453.43 C333.11,454.81 329.21,454.94 325.85,454.00 C321.43,452.70 305.25,445.05 301.29,442.44 C298.92,440.86 296.87,438.72 296.24,437.93" fill="none" stroke="rgb(255, 0, 255)" stroke-width="3.31" stroke-opacity="1.00" stroke-linejoin="round"/>
<path d="M319.59,269.42 C319.59,269.42 318.96,269.42 318.96,269.42 C318.96,269.42 318.33,268.79 318.33,268.79 C316.64,268.69 314.54,269.16 313.32,270.12 C312.00,271.19 310.66,276.64 310.61,279.30 C310.57,284.07 312.65,296.28 313.05,298.10 C313.88,301.72 316.12,303.74 317.07,304.13" fill="none" stroke="rgb(255, 0, 255)" stroke-width="3.31" stroke-opacity="1.00" stroke-linejoin="round"/>
<path d="M317.70,270.06 C317.70,270.06 315.96,270.13 315.96,270.13 C321.58,272.49 325.65,274.71 327.51,276.94 C328.95,278.71 332.54,284.33 333.67,287.02 C334.19,288.30 336.84,296.10 336.93,297.58 C336.20,298.13 334.70,298.57 333.28,298.51 C331.74,298.43 328.23,295.93 325.95,293.41 C323.64,290.84 315.41,279.58 314.98,278.50 C314.69,277.73 314.20,275.81 313.91,274.47" fill="none" stroke="rgb(255, 0, 255)" stroke-width="3.31" stroke-opacity="1.00" stroke-linejoin="round"/>
<path d="M322.75,269.42 C320.99,269.80 319.94,270.01 319.59,270.06 C319.25,270.10 319.11,270.05 319.20,269.90 C321.29,268.75 324.76,267.23 327.62,267.01 C329.04,266.93 331.55,267.17 332.71,267.57 C334.28,268.15 336.34,270.20 337.36,272.06 C338.13,273.52 339.06,279.05 339.18,282.54 C339.28,286.03 338.85,292.02 338.94,293.16 C339.02,294.19 339.45,296.75 339.79,298.45" fill="none" stroke="rgb(255, 0, 255)" stroke-width="3.31" stroke-opacity="1.00" stroke-linejoin="round"/>
<path d="M339.79,265.64 C339.30,265.79 338.88,265.89 338.53,265.95 C338.17,266.02 337.38,266.12 336.16,266.27 C337.58,266.29 339.35,266.46 340.37,266.81 C342.87,267.68 346.34,272.05 347.27,274.46 C349.08,279.33 348.88,286.80 348.41,290.06 C347.97,292.86 346.23,295.66 345.47,296.56" fill="none" stroke="rgb(255, 0, 255)" stroke-width="3.31" stroke-opacity="1.00" stroke-linejoin="round"/>
<path d="M349.89,266.27 C349.89,266.27 347.99,266.27 347.99,266.27 C349.13,267.82 354.95,269.71 356.25,270.96 C358.14,272.84 358.44,278.53 358.04,282.29 C357.63,285.39 353.05,298.69 350.58,304.37 C350.58,304.37 350.52,302.87 350.52,302.87" fill="none" stroke="rgb(255, 0, 255)" stroke-width="3.31" stroke-opacity="1.00" stroke-linejoin="round"/>
<path d="M243.23,359.04 C243.19,360.23 243.19,361.04 243.23,361.46 C243.37,362.86 244.86,367.75 245.28,368.77 C245.44,369.15 245.76,369.82 246.24,370.78" fill="none" stroke="rgb(255, 0, 255)" stroke-width="3.31" stroke-opacity="1.00" stroke-linejoin="round"/>
<path d="M236.29,377.34 C236.29,377.34 231.98,379.08 231.98,379.08 C234.48,379.23 251.95,372.73 254.41,372.32 C261.16,371.23 263.00,371.15 264.86,371.35 C264.40,372.45 262.85,376.15 262.65,376.84 C262.40,377.71 262.18,381.05 262.07,381.55 C261.69,383.28 258.18,383.96 252.67,384.44 C247.43,384.89 244.45,385.22 238.75,385.95 C237.46,386.10 230.57,386.70 229.35,386.81" fill="none" stroke="rgb(255, 0, 255)" stroke-width="3.31" stroke-opacity="1.00" stroke-linejoin="round"/>
<path d="M237.55,383.02 C237.35,382.96 237.14,382.96 236.92,383.02 C236.19,383.22 233.26,383.83 231.66,383.54 C230.40,383.29 226.29,378.88 223.95,375.72 C220.09,370.49 216.14,366.09 213.69,364.79 C211.66,363.76 206.24,362.33 205.67,361.94 C205.75,361.54 208.07,364.27 211.44,369.05 C213.85,372.44 214.44,375.35 214.11,375.94 C212.96,376.41 207.65,375.04 204.90,374.49 C201.39,373.81 195.41,373.23 191.65,373.20 C188.13,373.19 186.89,373.88 186.47,374.53 C187.29,376.41 201.64,385.84 209.26,390.82 C211.05,392.00 215.54,394.95 215.83,395.13 C218.94,397.13 223.60,402.33 224.93,403.85" fill="none" stroke="rgb(255, 0, 255)" stroke-width="3.31" stroke-opacity="1.00" stroke-linejoin="round"/>
<path d="M231.87,396.91 C231.87,396.91 227.61,397.54 227.61,397.54 C228.37,396.32 234.13,391.64 235.17,391.16 C235.62,390.95 236.61,390.60 238.15,390.09" fill="none" stroke="rgb(255, 0, 255)" stroke-width="3.31" stroke-opacity="1.00" stroke-linejoin="round"/>
<path d="M231.87,400.69 C231.75,400.72 231.65,400.72 231.56,400.69 C231.46,400.67 231.25,400.57 230.92,400.41 C231.04,399.21 231.61,398.42 233.20,397.49 C234.80,396.56 235.53,396.38 236.06,396.67 C237.52,400.03 235.95,408.61 235.10,412.71 C235.10,412.71 225.80,408.66 225.80,408.66 C225.80,408.66 229.35,408.90 229.35,408.90" fill="none" stroke="rgb(255, 0, 255)" stroke-width="3.31" stroke-opacity="1.00" stroke-linejoin="round"/>
<path d="M230.61,403.85 C229.35,403.85 226.87,403.85 225.67,403.85 C223.45,403.84 221.32,403.92 220.60,404.12 C219.96,404.33 218.42,406.18 217.95,407.11 C217.29,408.50 216.67,411.45 216.55,413.78 C216.38,418.18 218.20,420.73 219.37,421.83 C220.17,422.57 220.97,423.31 221.77,424.04" fill="none" stroke="rgb(255, 0, 255)" stroke-width="3.31" stroke-opacity="1.00" stroke-linejoin="round"/>
<path d="M194.01,362.83 C194.01,362.83 194.64,365.04 194.64,365.04 C194.64,365.04 194.55,365.22 194.55,365.22 C193.32,364.48 188.24,363.14 184.23,362.89 C181.72,362.76 166.51,366.23 162.04,367.61 C154.82,369.80 137.38,375.20 134.25,376.88 C129.18,379.62 116.70,388.02 113.37,390.98 C109.64,394.35 102.56,404.82 98.56,411.79 C97.67,413.37 96.16,416.02 95.55,417.10" fill="none" stroke="rgb(255, 0, 255)" stroke-width="3.31" stroke-opacity="1.00" stroke-linejoin="round"/>
<path d="M122.69,399.43 C121.17,400.00 118.87,400.77 117.80,401.01 C116.53,401.29 114.20,401.32 113.63,401.39 C111.90,401.64 102.77,415.26 98.50,421.42 C96.52,424.48 92.91,431.53 91.56,434.71 C90.00,438.42 87.82,445.59 87.03,450.05 C86.23,454.70 85.58,461.16 85.80,464.09 C86.12,467.85 86.94,472.77 87.81,475.24 C88.89,478.17 92.01,482.58 94.63,484.71 C96.66,486.32 103.08,490.05 105.98,491.41 C111.44,493.95 125.40,496.86 131.34,498.08 C132.03,498.23 132.73,498.37 133.42,498.51" fill="none" stroke="rgb(255, 0, 255)" stroke-width="3.31" stroke-opacity="1.00" stroke-linejoin="round"/>
<path d="M262.16,404.48 C259.76,405.10 258.43,405.13 257.96,404.45 C257.78,404.21 257.36,403.52 256.86,403.28 C254.77,404.03 253.55,404.71 252.33,405.97 C249.15,409.31 246.03,413.00 244.73,415.86 C244.00,417.50 243.98,418.57 244.45,419.59 C246.03,420.27 249.55,418.52 254.92,415.74" fill="none" stroke="rgb(255, 0, 255)" stroke-width="3.31" stroke-opacity="1.00" stroke-linejoin="round"/>
<path d="M271.63,400.69 C271.66,400.58 271.66,400.47 271.63,400.38 C271.60,400.28 271.49,400.07 271.31,399.75 C271.31,399.75 270.34,399.43 270.34,399.43 C268.10,400.73 264.17,406.14 262.52,408.88 C260.95,411.57 257.34,417.89 256.21,420.77 C255.65,422.21 253.39,429.48 253.12,432.20 C254.34,433.22 255.31,433.55 256.54,433.08 C258.82,432.18 264.42,427.38 266.21,425.16 C267.98,422.91 271.31,418.06 272.74,415.66 C274.06,413.40 275.54,409.70 276.05,408.27" fill="none" stroke="rgb(255, 0, 255)" stroke-width="3.31" stroke-opacity="1.00" stroke-linejoin="round"/>
<path d="M267.84,403.85 C267.33,403.86 267.01,403.86 266.90,403.85 C266.78,403.84 266.70,403.81 266.67,403.76 C267.86,402.16 269.70,400.21 270.87,399.72 C272.06,399.25 275.69,399.97 277.03,400.89 C278.33,401.84 279.56,403.62 280.79,405.96 C282.19,408.66 285.37,411.53 286.78,412.68" fill="none" stroke="rgb(255, 0, 255)" stroke-width="3.31" stroke-opacity="1.00" stroke-linejoin="round"/>
<path d="M284.88,412.68 C283.67,412.68 282.46,412.68 281.25,412.68 C278.86,412.69 276.34,413.92 274.79,416.26 C268.84,425.45 265.44,437.04 264.99,439.08 C266.39,439.34 267.37,439.25 268.57,438.58 C270.90,437.27 275.36,433.82 278.03,431.01 C282.69,426.05 285.45,421.07 285.85,420.31" fill="none" stroke="rgb(255, 0, 255)" stroke-width="3.31" stroke-opacity="1.00" stroke-linejoin="round"/>
<path d="M287.41,425.94 C286.74,425.47 285.79,424.92 285.24,424.74 C284.50,424.51 281.86,426.34 279.91,429.05 C277.56,432.37 273.88,440.78 273.64,441.60 C272.90,444.08 272.92,446.15 273.55,447.61 C274.83,448.24 276.26,448.20 278.52,447.41 C280.11,446.84 284.45,443.92 286.92,441.83 C289.46,439.65 291.92,436.54 294.26,433.25" fill="none" stroke="rgb(255, 0, 255)" stroke-width="3.31" stroke-opacity="1.00" stroke-linejoin="round"/>
<path d="M289.30,420.26 C289.30,420.26 286.91,420.26 286.91,420.26 C287.64,422.81 295.36,435.32 295.99,437.06 C296.70,439.06 296.96,441.97 296.70,444.33 C295.88,451.06 295.58,455.03 295.84,458.59 C296.14,462.93 295.83,465.72 294.93,467.25 C294.75,467.53 294.39,468.21 293.82,469.26" fill="none" stroke="rgb(255, 0, 255)" stroke-width="3.31" stroke-opacity="1.00" stroke-linejoin="round"/>
<path d="M295.61,462.54 C293.73,464.49 291.99,468.14 290.38,470.73 C289.45,472.15 287.97,473.78 286.94,474.33 C284.08,475.73 272.01,474.50 267.92,473.96 C267.39,475.58 267.31,476.76 267.76,478.90 C268.82,483.94 270.38,490.01 271.48,492.36 C273.18,495.89 276.19,499.75 278.36,500.41 C280.33,500.89 285.84,497.63 288.08,495.18 C289.87,493.14 292.11,489.50 293.00,486.92 C294.58,482.21 295.16,470.14 295.43,463.65 C295.63,458.46 296.13,449.77 296.24,448.03" fill="none" stroke="rgb(255, 0, 255)" stroke-width="3.31" stroke-opacity="1.00" stroke-linejoin="round"/>
<path d="M247.02,408.27 C247.02,408.27 248.28,407.00 248.28,407.00 C247.93,407.98 246.71,409.21 244.65,410.53 C244.00,410.95 238.37,414.83 236.54,417.09 C236.22,417.48 232.17,422.33 230.39,423.17 C228.17,424.15 221.73,424.13 217.33,423.08 C213.65,422.17 207.18,420.59 204.61,420.36 C202.17,420.18 196.34,421.57 193.51,423.50 C190.76,425.42 186.95,431.30 185.85,434.59 C184.98,437.31 184.04,444.10 184.16,446.36 C184.36,449.61 185.57,456.38 186.67,459.73 C187.79,463.07 191.22,469.68 193.11,472.16 C194.99,474.59 200.07,479.00 200.43,479.11 C200.91,479.24 202.13,479.40 204.10,479.58" fill="none" stroke="rgb(255, 0, 255)" stroke-width="3.31" stroke-opacity="1.00" stroke-linejoin="round"/>
<path d="M215.46,426.57 C215.46,426.36 215.46,426.15 215.46,425.94 C215.46,425.73 215.46,425.52 215.46,425.31 C213.81,426.12 211.29,430.07 209.13,434.86 C208.30,436.72 206.38,442.43 205.20,446.27 C203.03,453.74 201.35,461.83 200.97,463.71" fill="none" stroke="rgb(255, 0, 255)" stroke-width="3.31" stroke-opacity="1.00" stroke-linejoin="round"/>
<path d="M201.58,425.94 C201.58,425.94 198.42,425.57 198.42,425.57 C198.42,426.87 198.42,431.06 198.43,432.13 C198.48,434.33 198.88,437.74 199.32,439.74 C199.50,440.54 200.67,444.29 201.19,445.96" fill="none" stroke="rgb(255, 0, 255)" stroke-width="3.31" stroke-opacity="1.00" stroke-linejoin="round"/>
<path d="M220.51,441.71 C220.51,441.71 217.20,441.87 217.20,441.87 C216.39,442.87 216.09,443.69 216.23,444.96 C216.50,447.34 217.95,454.01 219.15,458.44 C220.84,464.51 223.22,469.92 223.73,471.05" fill="none" stroke="rgb(255, 0, 255)" stroke-width="3.31" stroke-opacity="1.00" stroke-linejoin="round"/>
<path d="M241.34,427.83 C241.34,427.83 239.13,428.04 239.13,428.04 C239.00,428.40 241.59,432.96 242.12,436.28 C242.79,440.45 243.22,444.42 243.47,448.54 C243.64,451.31 244.14,454.28 244.36,455.28" fill="none" stroke="rgb(255, 0, 255)" stroke-width="3.31" stroke-opacity="1.00" stroke-linejoin="round"/>
<path d="M237.55,443.61 C237.54,443.50 237.58,445.74 237.62,446.80 C237.79,450.95 238.88,459.27 239.01,460.05 C239.08,460.45 239.22,461.23 239.44,462.40" fill="none" stroke="rgb(255, 0, 255)" stroke-width="3.31" stroke-opacity="1.00" stroke-linejoin="round"/>
<path d="M267.21,441.08 C267.21,441.08 265.63,441.08 265.63,441.08 C265.63,441.08 265.32,441.51 265.32,441.51 C266.23,443.11 271.85,449.86 272.73,451.04 C274.78,453.80 277.73,459.61 278.49,461.70 C279.44,464.40 279.64,467.18 279.49,468.20 C279.45,468.45 279.36,468.67 279.20,468.85" fill="none" stroke="rgb(255, 0, 255)" stroke-width="3.31" stroke-opacity="1.00" stroke-linejoin="round"/>
<path d="M285.51,449.29 C284.88,449.29 284.25,449.29 283.62,449.29 C282.36,449.29 280.78,449.29 280.47,449.29 C281.99,449.29 285.46,450.45 287.34,453.77 C288.17,455.28 290.05,460.26 290.39,461.35 C290.45,461.54 290.50,461.72 290.56,461.91" fill="none" stroke="rgb(255, 0, 255)" stroke-width="3.31" stroke-opacity="1.00" stroke-linejoin="round"/>
<path d="M281.73,471.38 C281.73,471.38 279.00,473.27 279.00,473.27 C278.00,473.40 270.55,475.80 267.04,475.86 C259.99,475.94 253.40,473.94 251.97,474.28 C249.72,474.88 241.40,481.25 240.99,481.53 C239.03,482.82 232.09,484.41 229.77,484.77 C226.22,485.30 219.98,485.45 217.67,485.21 C214.48,484.83 209.58,483.09 206.71,480.91 C205.75,480.18 200.97,476.41 199.45,475.78 C199.16,475.66 198.60,475.46 197.79,475.16" fill="none" stroke="rgb(255, 0, 255)" stroke-width="3.31" stroke-opacity="1.00" stroke-linejoin="round"/>
<path d="M206.00,483.37 C206.03,482.95 205.90,482.20 205.68,481.79 C205.60,481.63 205.33,481.26 205.36,480.84 C200.51,486.54 190.57,498.08 187.20,500.13 C183.13,502.53 177.87,504.03 174.07,504.26 C171.92,504.36 168.35,503.33 166.87,502.93" fill="none" stroke="rgb(255, 0, 255)" stroke-width="3.31" stroke-opacity="1.00" stroke-linejoin="round"/>
<path d="M214.20,485.26 C214.20,485.26 213.57,485.26 213.57,485.26 C212.36,486.30 206.53,492.33 203.77,494.79 C202.08,496.27 199.54,498.32 198.67,498.78 C197.36,499.47 195.58,499.83 194.64,499.78" fill="none" stroke="rgb(255, 0, 255)" stroke-width="3.31" stroke-opacity="1.00" stroke-linejoin="round"/>
<path d="M164.97,468.85 C164.97,468.85 164.97,469.48 164.97,469.48 C162.12,470.77 146.35,478.56 139.67,480.43 C135.48,481.59 130.11,482.60 128.04,482.70 C128.04,482.70 130.26,482.10 130.26,482.10" fill="none" stroke="rgb(255, 0, 255)" stroke-width="3.31" stroke-opacity="1.00" stroke-linejoin="round"/>
<path d="M139.73,456.86 C139.73,456.86 135.99,454.34 135.99,454.34 C140.07,454.33 145.27,453.78 149.30,452.84 C152.54,452.07 167.35,447.99 168.02,448.16 C168.02,448.16 165.61,449.92 165.61,449.92" fill="none" stroke="rgb(255, 0, 255)" stroke-width="3.31" stroke-opacity="1.00" stroke-linejoin="round"/>
<path d="M146.67,440.45 C146.67,440.45 143.52,441.71 143.52,441.71 C147.86,441.67 151.63,441.17 153.93,440.49 C159.46,438.81 164.91,434.70 166.06,433.81 C166.06,433.81 164.95,432.82 164.95,432.82" fill="none" stroke="rgb(255, 0, 255)" stroke-width="3.31" stroke-opacity="1.00" stroke-linejoin="round"/>
<path d="M140.36,439.82 C140.36,439.82 136.71,437.61 136.71,437.61 C137.21,437.16 137.64,436.90 137.99,436.81 C138.47,436.70 151.82,436.29 163.07,434.72 C166.30,434.29 171.07,434.56 172.66,435.69 C173.12,436.02 175.47,438.11 176.69,439.19 C176.69,439.19 175.84,439.72 175.84,439.72" fill="none" stroke="rgb(255, 0, 255)" stroke-width="3.31" stroke-opacity="1.00" stroke-linejoin="round"/>
<path d="M170.02,439.19 C170.02,439.19 168.62,439.19 168.62,439.19 C168.62,439.19 168.20,439.97 168.20,439.97 C168.20,439.97 184.16,441.11 184.16,441.11 C184.16,441.11 183.99,441.60 183.99,441.60" fill="none" stroke="rgb(255, 0, 255)" stroke-width="3.31" stroke-opacity="1.00" stroke-linejoin="round"/>
<path d="M183.91,449.92 C182.44,451.28 181.78,451.79 181.07,451.81 C179.96,451.85 179.09,451.81 178.45,451.69 C177.89,451.59 176.75,451.28 175.01,450.76" fill="none" stroke="rgb(255, 0, 255)" stroke-width="3.31" stroke-opacity="1.00" stroke-linejoin="round"/>
<path d="M180.75,431.62 C179.04,431.63 177.91,431.61 177.38,431.56 C169.45,430.26 160.88,429.74 153.05,427.93 C148.06,426.79 142.05,425.90 138.49,425.92 C131.87,426.07 111.21,426.48 110.63,426.49 C109.39,426.52 108.15,426.54 106.91,426.57" fill="none" stroke="rgb(255, 0, 255)" stroke-width="3.31" stroke-opacity="1.00" stroke-linejoin="round"/>
<path d="M151.09,390.60 C151.09,390.60 147.30,390.60 147.30,390.60 C152.84,390.67 157.88,390.94 160.96,391.80 C166.50,393.41 179.43,400.63 183.50,403.75 C186.16,405.81 191.14,411.18 192.21,412.80 C193.15,414.26 195.03,417.90 195.21,418.88 C195.29,419.33 195.31,420.21 195.27,421.52" fill="none" stroke="rgb(255, 0, 255)" stroke-width="3.31" stroke-opacity="1.00" stroke-linejoin="round"/>
<path d="M162.45,422.15 C162.45,422.15 159.93,420.89 159.93,420.89 C161.58,418.48 172.77,409.02 178.12,404.55 C185.77,398.30 189.82,395.48 193.14,393.43 C195.32,392.09 196.43,391.81 197.40,392.17 C197.40,392.17 195.46,395.34 195.46,395.34" fill="none" stroke="rgb(255, 0, 255)" stroke-width="3.31" stroke-opacity="1.00" stroke-linejoin="round"/>
<path d="M193.37,403.22 C193.37,403.22 190.85,400.69 190.85,400.69 C191.00,401.33 195.06,403.02 198.62,403.64 C202.06,404.19 207.35,405.02 208.03,405.14 C208.49,405.23 209.50,405.43 211.04,405.74" fill="none" stroke="rgb(255, 0, 255)" stroke-width="3.31" stroke-opacity="1.00" stroke-linejoin="round"/>
<path d="M292.46,376.71 C290.72,375.80 289.67,375.22 289.30,374.98 C288.93,374.73 288.72,374.47 288.67,374.19 C290.82,376.80 293.87,378.72 298.18,380.76 C302.58,382.81 313.27,386.60 314.36,386.55 C314.73,386.52 317.46,385.87 318.96,385.55" fill="none" stroke="rgb(255, 0, 255)" stroke-width="3.31" stroke-opacity="1.00" stroke-linejoin="round"/>
<path d="M296.24,388.07 C296.24,388.07 294.98,384.92 294.98,384.92 C303.42,388.33 315.63,394.71 316.63,394.75 C317.66,394.78 320.59,394.57 322.75,394.38" fill="none" stroke="rgb(255, 0, 255)" stroke-width="3.31" stroke-opacity="1.00" stroke-linejoin="round"/>
<path d="M348.62,316.76 C348.62,316.76 347.68,316.13 347.68,316.13 C347.46,317.34 348.20,331.62 348.40,342.49 C348.33,356.78 345.69,388.61 345.57,391.44 C345.57,391.44 346.59,392.49 346.59,392.49" fill="none" stroke="rgb(255, 0, 255)" stroke-width="3.31" stroke-opacity="1.00" stroke-linejoin="round"/>
<path d="M299.40,486.52 C299.39,486.72 288.98,497.93 286.18,499.02 C280.38,501.24 272.05,506.40 267.41,507.30 C263.85,507.95 219.94,507.60 211.51,508.13 C191.82,509.76 174.89,509.91 170.69,509.14 C168.71,508.76 162.52,506.97 157.88,506.25 C152.47,505.41 138.89,498.99 138.16,498.83 C136.29,498.44 134.15,498.34 131.02,498.46 C130.19,498.50 126.55,498.51 125.22,498.51" fill="none" stroke="rgb(255, 0, 255)" stroke-width="3.31" stroke-opacity="1.00" stroke-linejoin="round"/>
<path d="M297.51,478.95 C297.42,479.22 297.31,479.43 297.19,479.58 C297.07,479.73 296.75,480.05 296.24,480.53 C296.16,482.27 298.99,492.93 299.68,501.97 C300.55,513.62 302.29,527.45 302.45,531.67 C302.54,534.30 302.57,552.23 302.59,558.75 C302.66,562.75 303.38,573.14 303.12,576.44 C303.05,577.25 302.67,580.76 302.55,581.82" fill="none" stroke="rgb(255, 0, 255)" stroke-width="3.31" stroke-opacity="1.00" stroke-linejoin="round"/>
<path d="M302.55,579.92 C302.58,580.15 302.35,580.91 302.30,581.25 C302.03,583.11 301.87,586.18 301.89,588.70 C298.64,588.08 286.69,586.76 277.21,585.32 C265.74,583.53 258.52,582.75 248.80,582.95 C240.53,583.10 221.52,583.38 219.56,583.22 C203.53,581.91 175.00,577.31 165.14,573.92 C162.32,572.92 145.86,565.25 141.38,564.37 C139.38,564.00 136.09,564.08 134.68,564.15" fill="none" stroke="rgb(255, 0, 255)" stroke-width="3.31" stroke-opacity="1.00" stroke-linejoin="round"/>
<path d="M148.57,504.19 C148.57,504.19 148.57,503.56 148.57,503.56 C147.70,505.02 146.59,509.45 145.65,513.67 C139.81,540.34 136.76,551.77 135.14,556.57 C135.04,556.87 134.84,557.42 134.55,558.21" fill="none" stroke="rgb(255, 0, 255)" stroke-width="3.31" stroke-opacity="1.00" stroke-linejoin="round"/>
<path d="M296.24,543.95 C295.05,543.33 294.48,542.86 293.40,541.63 C292.68,540.85 288.51,540.79 281.39,540.38 C277.17,540.17 269.53,540.06 269.31,539.96 C268.40,539.54 261.65,535.92 259.15,535.15 C254.92,533.87 241.44,533.22 235.45,532.61 C228.42,532.05 209.44,530.41 205.68,529.75 C202.76,529.24 149.91,517.00 149.84,516.98 C145.65,516.14 133.46,515.37 123.07,514.26 C119.10,513.82 111.89,513.68 110.07,513.66" fill="none" stroke="rgb(255, 0, 255)" stroke-width="3.31" stroke-opacity="1.00" stroke-linejoin="round"/>
<path d="M126.48,499.78 C125.64,499.78 124.79,499.78 123.95,499.78 C123.53,499.78 123.11,499.78 122.69,499.78 C122.77,500.64 121.54,506.58 120.43,509.58 C118.60,514.46 107.16,533.90 104.69,537.52 C95.21,550.92 90.46,562.97 89.43,566.43 C91.66,568.90 115.92,574.20 117.27,574.52 C119.81,575.11 126.33,576.85 128.37,577.40" fill="none" stroke="rgb(255, 0, 255)" stroke-width="3.31" stroke-opacity="1.00" stroke-linejoin="round"/>
<path d="M132.79,571.09 C131.61,571.18 129.70,570.64 128.99,570.46 C126.84,569.88 123.77,568.16 122.04,566.24 C121.84,566.01 105.75,547.49 102.75,544.55 C100.27,541.81 98.88,538.92 98.66,535.33 C98.65,535.15 98.26,526.44 98.66,524.59 C99.29,521.89 101.13,517.98 103.00,515.73 C104.71,513.71 108.25,510.40 112.40,506.70 C114.88,504.46 117.52,501.62 120.17,498.51" fill="none" stroke="rgb(255, 0, 255)" stroke-width="3.31" stroke-opacity="1.00" stroke-linejoin="round"/>
<path d="M108.81,538.90 C108.81,538.90 105.74,537.89 105.74,537.89 C105.50,542.00 106.81,561.80 106.78,565.86 C106.77,567.57 106.54,568.98 106.18,570.32 C106.18,570.32 105.13,568.84 105.13,568.84" fill="none" stroke="rgb(255, 0, 255)" stroke-width="3.31" stroke-opacity="1.00" stroke-linejoin="round"/>
<path d="M226.19,511.14 C225.21,511.37 223.48,511.90 223.04,512.40 C222.38,513.15 222.14,515.32 222.42,516.78 C223.75,522.11 226.56,534.12 226.97,541.07 C227.37,548.45 225.80,560.40 223.73,567.93 C223.34,569.25 222.19,572.99 221.68,573.66 C221.37,574.07 220.56,574.90 219.25,576.14" fill="none" stroke="rgb(255, 0, 255)" stroke-width="3.31" stroke-opacity="1.00" stroke-linejoin="round"/>
<path d="M240.08,511.14 C240.08,511.14 237.55,512.08 237.55,512.08 C236.94,512.83 236.90,514.18 237.55,516.92 C239.31,524.32 241.30,538.41 241.71,544.87 C241.97,549.20 242.46,570.34 242.12,575.81 C241.97,578.21 241.17,584.64 239.78,587.18 C239.78,587.18 237.99,587.07 237.99,587.07" fill="none" stroke="rgb(255, 0, 255)" stroke-width="3.31" stroke-opacity="1.00" stroke-linejoin="round"/>
<path d="M238.81,533.22 C238.81,533.22 238.50,533.22 238.50,533.22 C238.50,533.22 237.87,532.59 237.87,532.59 C237.59,532.74 233.44,541.32 232.79,542.61 C232.13,543.90 231.15,546.31 230.61,547.74" fill="none" stroke="rgb(255, 0, 255)" stroke-width="3.31" stroke-opacity="1.00" stroke-linejoin="round"/>
<path d="M235.66,555.94 C234.38,556.57 232.42,557.68 231.59,558.40 C230.75,559.13 229.21,561.06 228.28,562.35 C228.28,562.35 241.76,554.75 241.76,554.75 C241.76,554.75 229.99,568.95 229.99,568.95 C231.76,569.34 233.00,569.20 234.61,568.27 C235.70,567.65 236.42,567.27 236.80,567.12 C237.17,566.97 237.84,566.77 238.81,566.54 C238.81,566.54 236.05,569.58 236.05,569.58" fill="none" stroke="rgb(255, 0, 255)" stroke-width="3.31" stroke-opacity="1.00" stroke-linejoin="round"/>
<path d="M289.30,591.28 C288.09,591.78 285.90,593.95 284.95,594.66 C283.69,595.59 280.91,596.73 279.80,596.81 C276.21,597.00 260.97,596.82 253.38,595.69 C246.62,594.75 227.17,594.49 223.89,594.31 C219.56,594.05 213.67,592.99 209.16,591.60 C205.11,590.33 184.07,584.48 182.56,584.09 C174.67,581.93 158.13,578.83 154.43,577.91 C150.30,576.87 143.01,574.30 141.28,573.47 C139.31,572.52 136.19,570.53 135.41,570.16 C135.13,570.04 134.68,569.92 134.05,569.83" fill="none" stroke="rgb(255, 0, 255)" stroke-width="3.31" stroke-opacity="1.00" stroke-linejoin="round"/>
<path d="M122.06,572.98 C121.96,572.50 121.85,572.08 121.74,571.72 C121.64,571.36 121.37,570.58 120.96,569.35" fill="none" stroke="rgb(255, 0, 255)" stroke-width="3.31" stroke-opacity="1.00" stroke-linejoin="round"/>
<path d="M125.85,562.25 C124.14,562.80 122.77,563.22 122.53,563.60 C121.68,564.96 118.03,572.07 116.84,574.61 C116.05,576.31 113.01,583.20 111.96,585.60" fill="none" stroke="rgb(255, 0, 255)" stroke-width="3.31" stroke-opacity="1.00" stroke-linejoin="round"/>
<path d="M131.53,574.88 C130.68,574.88 129.84,574.88 129.00,574.88 C128.61,574.88 128.22,574.88 127.82,574.88 C128.57,574.96 143.98,581.71 150.70,583.93 C156.68,585.91 169.08,591.01 175.48,591.19 C182.20,591.28 194.60,593.24 197.69,593.74 C205.00,594.82 220.66,597.11 229.00,598.32 C239.44,599.81 249.88,600.47 256.76,600.87 C265.59,601.48 275.98,604.05 281.18,605.42 C288.91,607.21 303.71,610.86 303.82,610.85 C300.90,605.35 299.47,585.33 299.40,584.21 C299.40,584.21 299.40,594.68 299.40,594.68" fill="none" stroke="rgb(255, 0, 255)" stroke-width="3.31" stroke-opacity="1.00" stroke-linejoin="round"/>
<path d="M221.14,631.04 C221.14,631.04 218.62,633.19 218.62,633.19 C218.79,634.72 221.66,649.44 222.40,658.03 C222.80,662.86 223.31,680.27 223.29,687.70 C222.98,702.16 220.47,729.53 219.46,739.75 C219.46,739.75 219.25,735.81 219.25,735.81" fill="none" stroke="rgb(255, 0, 255)" stroke-width="3.31" stroke-opacity="1.00" stroke-linejoin="round"/>
<path d="M214.83,645.56 C214.83,645.56 213.88,646.31 213.88,646.31 C213.58,646.98 215.33,663.75 215.34,668.27 C215.34,675.03 214.13,689.99 212.51,697.46 C209.68,710.34 203.05,727.26 201.26,730.13 C201.26,730.13 202.68,726.13 202.68,726.13" fill="none" stroke="rgb(255, 0, 255)" stroke-width="3.31" stroke-opacity="1.00" stroke-linejoin="round"/>
<path d="M218.62,663.23 C217.89,663.88 217.06,665.02 216.91,665.98 C216.76,667.05 218.09,685.51 217.75,692.86 C217.44,698.94 215.72,707.31 215.50,708.38 C214.37,704.45 213.44,699.51 213.27,696.51 C213.06,692.40 212.95,650.23 212.94,637.44 C211.09,642.71 193.26,681.90 189.10,689.02 C184.30,697.09 179.83,703.22 173.27,711.32 C167.79,717.82 163.72,721.37 163.08,721.92" fill="none" stroke="rgb(255, 0, 255)" stroke-width="3.31" stroke-opacity="1.00" stroke-linejoin="round"/>
<path d="M115.12,573.61 C115.12,573.61 115.12,573.93 115.12,573.93 C115.02,574.05 114.92,574.16 114.80,574.25 C114.68,574.33 114.39,574.52 113.92,574.81 C113.61,579.04 111.58,588.03 108.72,595.85 C96.44,628.68 69.38,681.57 67.79,684.57 C68.62,683.15 69.19,682.19 69.50,681.71 C69.81,681.23 70.29,680.54 70.94,679.64" fill="none" stroke="rgb(255, 0, 255)" stroke-width="3.31" stroke-opacity="1.00" stroke-linejoin="round"/>
<path d="M276.68,639.88 C275.75,639.78 274.85,640.81 272.63,645.01 C267.22,655.48 262.56,663.29 257.63,669.04 C256.05,670.88 249.62,677.83 247.01,680.63 C248.34,679.75 251.06,677.24 255.10,673.10 C257.78,670.33 261.31,666.65 262.16,665.75" fill="none" stroke="rgb(255, 0, 255)" stroke-width="3.31" stroke-opacity="1.00" stroke-linejoin="round"/>
<path d="M267.21,659.44 C268.29,658.00 271.26,654.02 271.63,653.45 C271.87,653.08 272.08,652.66 272.26,652.19 C272.26,652.19 272.18,651.87 272.18,651.87 C272.18,651.87 271.42,651.92 271.42,651.92 C269.72,653.28 266.23,662.73 262.97,672.83 C260.82,679.32 256.50,692.12 253.93,697.78 C253.04,699.74 248.86,708.45 248.57,709.25 C247.84,711.22 246.77,716.15 245.06,720.40 C243.58,724.04 241.57,728.99 241.03,730.30 C241.96,725.90 245.80,716.72 249.99,707.81 C253.17,701.37 259.50,688.61 262.85,681.61 C267.01,672.65 269.66,661.39 272.50,653.20 C273.75,649.66 275.61,644.49 276.59,642.11 C276.65,641.97 276.71,641.78 276.79,641.55" fill="none" stroke="rgb(255, 0, 255)" stroke-width="3.31" stroke-opacity="1.00" stroke-linejoin="round"/>
<path d="M286.78,610.22 C283.05,608.65 280.27,606.96 279.83,605.17 C279.79,604.97 279.79,604.68 279.83,604.29 C279.69,628.18 280.64,636.77 281.34,638.85 C282.44,638.98 288.12,622.96 288.42,622.13 C288.42,622.13 290.69,629.80 290.69,629.80" fill="none" stroke="rgb(255, 0, 255)" stroke-width="3.31" stroke-opacity="1.00" stroke-linejoin="round"/>
<path d="M397.85,364.09 C397.06,364.09 395.12,364.08 395.01,364.09 C394.71,364.10 391.77,362.55 388.33,362.27 C384.94,361.98 377.52,361.51 374.85,361.85 C372.91,362.12 367.24,364.74 365.11,366.51 C361.21,369.82 353.31,380.48 349.98,387.36 C348.67,390.11 347.24,397.33 347.04,399.98 C346.75,404.21 348.01,408.86 349.91,412.42 C349.91,412.42 358.09,412.05 358.09,412.05" fill="none" stroke="rgb(255, 0, 255)" stroke-width="3.31" stroke-opacity="1.00" stroke-linejoin="round"/>
<path d="M402.27,368.51 C400.81,369.38 399.81,369.91 399.27,370.08 C398.73,370.26 397.91,370.34 396.80,370.32 C396.52,369.18 398.48,365.48 400.40,363.63 C401.86,362.28 406.17,360.82 409.42,360.31 C417.01,359.17 428.76,359.22 434.85,360.13 C436.62,360.39 445.93,362.03 447.54,362.38 C452.86,363.55 457.53,365.72 459.39,367.85 C460.03,368.61 460.86,369.91 461.69,371.28 C462.96,373.39 464.26,374.66 465.82,375.24 C466.03,375.31 472.04,377.41 474.22,378.86 C476.24,380.23 479.30,383.98 480.67,386.42 C482.31,389.42 490.34,407.90 491.61,411.92 C493.69,418.55 495.67,430.47 495.40,438.90 C495.30,441.69 493.74,444.89 493.15,446.13" fill="none" stroke="rgb(255, 0, 255)" stroke-width="3.31" stroke-opacity="1.00" stroke-linejoin="round"/>
<path d="M488.10,432.25 C488.10,432.25 488.73,431.62 488.73,431.62 C488.75,431.32 488.75,431.11 488.73,430.99 C488.64,430.53 479.70,412.37 478.86,411.11 C477.67,409.32 476.24,407.95 475.70,407.87 C474.64,408.47 472.73,413.45 472.34,414.47 C470.49,419.22 461.45,436.39 461.46,437.24 C461.53,438.74 462.69,440.96 463.83,441.90 C465.85,443.56 471.89,447.80 474.33,448.56 C476.06,449.05 479.53,449.03 480.78,448.37 C482.08,447.64 483.86,445.49 484.44,444.21 C485.52,441.61 486.47,437.39 486.34,435.81 C486.22,434.60 484.87,426.63 484.31,423.41" fill="none" stroke="rgb(255, 0, 255)" stroke-width="3.31" stroke-opacity="1.00" stroke-linejoin="round"/>
<path d="M440.76,407.00 C440.76,407.00 440.76,406.69 440.76,406.69 C440.76,406.69 440.25,406.26 440.25,406.26 C441.90,405.94 446.76,407.05 448.92,408.57 C451.39,410.35 455.78,415.19 456.47,416.13 C459.59,420.45 464.69,430.75 465.04,432.31 C465.12,432.70 465.23,433.52 465.38,434.77" fill="none" stroke="rgb(255, 0, 255)" stroke-width="3.31" stroke-opacity="1.00" stroke-linejoin="round"/>
<path d="M417.41,391.23 C417.41,391.23 417.41,391.54 417.41,391.54 C417.76,391.76 422.92,393.00 425.70,394.46 C430.21,396.89 437.38,403.84 437.79,404.81 C437.97,405.26 438.33,406.41 438.87,408.27" fill="none" stroke="rgb(255, 0, 255)" stroke-width="3.31" stroke-opacity="1.00" stroke-linejoin="round"/>
<path d="M426.88,385.55 C426.88,385.55 424.67,385.55 424.67,385.55 C424.67,385.55 424.57,385.65 424.57,385.65 C433.10,389.45 440.89,398.14 441.26,398.84 C441.47,399.25 441.93,400.29 442.66,401.96" fill="none" stroke="rgb(255, 0, 255)" stroke-width="3.31" stroke-opacity="1.00" stroke-linejoin="round"/>
<path d="M407.32,374.82 C407.09,373.87 406.63,372.16 406.37,371.66 C406.22,371.38 405.91,370.96 405.42,370.40 C409.55,370.74 423.56,374.40 427.61,375.81 C432.75,377.62 441.45,381.87 443.05,382.86 C444.42,383.73 446.54,385.25 447.71,386.18" fill="none" stroke="rgb(255, 0, 255)" stroke-width="3.31" stroke-opacity="1.00" stroke-linejoin="round"/>
<path d="M450.23,381.13 C450.23,381.13 448.81,381.13 448.81,381.13 C448.76,381.83 449.02,382.54 450.02,384.13 C453.17,389.16 458.00,398.94 459.30,401.61 C460.08,403.22 461.22,405.60 461.59,406.37" fill="none" stroke="rgb(255, 0, 255)" stroke-width="3.31" stroke-opacity="1.00" stroke-linejoin="round"/>
<path d="M433.19,366.61 C433.19,366.61 430.67,364.72 430.67,364.72 C432.65,364.71 440.19,366.04 442.40,366.83 C444.51,367.60 450.65,370.94 452.71,372.52 C454.97,374.29 458.34,378.66 459.05,379.79 C459.36,380.28 459.99,381.36 460.96,383.02" fill="none" stroke="rgb(255, 0, 255)" stroke-width="3.31" stroke-opacity="1.00" stroke-linejoin="round"/>
<path d="M406.05,401.96 C404.30,401.97 403.94,401.95 399.43,400.42 C398.74,400.19 388.06,398.20 385.42,398.21 C383.37,398.25 370.76,401.34 368.62,402.59 C366.48,403.87 364.91,404.96 363.96,405.84 C363.49,406.28 358.66,411.86 357.46,413.31" fill="none" stroke="rgb(255, 0, 255)" stroke-width="3.31" stroke-opacity="1.00" stroke-linejoin="round"/>
<path d="M365.03,409.53 C365.03,409.53 362.01,412.58 362.01,412.58 C362.11,414.79 365.59,418.29 367.90,419.66 C373.88,423.02 377.23,421.46 377.94,420.72 C378.09,419.79 375.93,408.98 375.41,406.36 C375.35,406.09 375.26,405.67 375.13,405.11" fill="none" stroke="rgb(255, 0, 255)" stroke-width="3.31" stroke-opacity="1.00" stroke-linejoin="round"/>
<path d="M388.38,403.85 C388.38,403.85 382.70,404.48 382.70,404.48 C385.70,404.87 392.40,405.75 394.43,406.33 C395.86,406.75 401.19,409.59 402.24,410.55 C403.94,412.12 409.94,420.51 410.64,421.46 C412.49,423.88 416.93,427.25 418.78,427.52 C419.23,427.58 420.28,427.64 421.92,427.69 C422.80,426.44 423.15,425.55 423.05,424.23 C422.90,422.30 421.90,413.92 421.67,412.71 C421.39,411.25 420.88,409.26 420.57,408.27" fill="none" stroke="rgb(255, 0, 255)" stroke-width="3.31" stroke-opacity="1.00" stroke-linejoin="round"/>
<path d="M425.62,413.95 C425.62,413.95 423.25,415.42 423.25,415.42 C423.43,415.91 427.70,418.47 429.57,421.08 C432.09,424.66 438.83,442.32 440.35,445.24 C441.83,448.11 442.79,450.71 443.27,452.10 C443.30,447.96 442.74,442.36 442.17,439.69 C441.34,435.92 436.73,424.95 436.35,424.04" fill="none" stroke="rgb(255, 0, 255)" stroke-width="3.31" stroke-opacity="1.00" stroke-linejoin="round"/>
<path d="M411.10,402.59 C411.10,402.59 408.86,402.68 408.86,402.68 C410.28,403.35 425.02,408.56 429.02,411.05 C430.95,412.27 434.45,415.21 435.81,416.86 C438.22,419.86 444.97,433.79 448.17,439.63 C450.24,443.62 453.32,456.74 454.08,462.47 C454.92,469.03 454.21,477.99 454.11,479.27 C454.09,479.60 454.06,480.12 454.02,480.84" fill="none" stroke="rgb(255, 0, 255)" stroke-width="3.31" stroke-opacity="1.00" stroke-linejoin="round"/>
<path d="M440.76,447.39 C440.76,447.39 440.76,446.13 440.76,446.13 C440.76,446.13 441.40,446.40 441.40,446.40 C441.44,449.88 440.48,455.19 439.93,456.36 C439.00,458.27 432.36,467.30 431.57,468.66 C429.92,471.88 427.36,476.68 424.36,480.38 C418.81,487.14 414.34,490.21 412.39,490.76 C416.56,489.89 427.47,485.26 431.26,482.11 C434.55,479.34 438.55,475.14 441.85,471.02 C444.99,467.03 447.58,461.65 448.40,457.77 C448.51,457.22 448.70,456.09 448.97,454.38" fill="none" stroke="rgb(255, 0, 255)" stroke-width="3.31" stroke-opacity="1.00" stroke-linejoin="round"/>
<path d="M401.01,444.24 C401.06,444.19 400.96,444.19 400.69,444.24 C400.42,444.29 399.62,444.47 398.27,444.76 C398.27,444.76 398.06,445.50 398.06,445.50 C399.36,445.43 407.24,444.07 409.62,444.50 C412.89,445.12 416.93,447.92 419.57,450.66 C420.78,451.91 421.51,452.84 421.77,453.44 C422.00,453.98 422.23,455.12 422.46,456.86" fill="none" stroke="rgb(255, 0, 255)" stroke-width="3.31" stroke-opacity="1.00" stroke-linejoin="round"/>
<path d="M413.00,432.88 C413.00,432.88 411.73,432.88 411.73,432.88 C413.71,432.91 425.84,440.53 427.21,441.90 C428.79,443.55 430.52,446.02 430.70,447.32 C430.80,448.12 430.74,449.20 430.52,450.54 C430.44,450.95 430.28,451.58 430.04,452.44" fill="none" stroke="rgb(255, 0, 255)" stroke-width="3.31" stroke-opacity="1.00" stroke-linejoin="round"/>
<path d="M385.23,419.63 C385.63,419.52 391.07,421.18 393.12,421.94 C395.60,422.89 400.05,425.53 400.81,426.81 C400.81,426.81 400.52,427.64 400.52,427.64" fill="none" stroke="rgb(255, 0, 255)" stroke-width="3.31" stroke-opacity="1.00" stroke-linejoin="round"/>
<path d="M384.60,425.94 C385.59,426.46 388.10,427.77 389.61,428.57 C390.92,429.25 393.57,430.64 394.92,431.34 C395.38,431.58 395.84,431.82 396.30,432.06" fill="none" stroke="rgb(255, 0, 255)" stroke-width="3.31" stroke-opacity="1.00" stroke-linejoin="round"/>
<path d="M379.55,427.83 C378.95,428.28 377.55,429.07 377.38,429.39 C377.08,429.98 376.38,435.25 376.22,435.93 C375.75,437.91 374.01,440.94 372.72,442.06 C372.00,442.67 369.84,444.02 368.82,445.02 C368.81,446.38 369.80,447.73 371.95,448.94 C373.07,449.56 376.78,450.86 377.86,451.00 C379.02,451.13 381.29,450.84 382.70,450.55" fill="none" stroke="rgb(255, 0, 255)" stroke-width="3.31" stroke-opacity="1.00" stroke-linejoin="round"/>
<path d="M356.20,431.62 C356.86,431.55 364.22,432.86 365.28,433.28 C365.76,433.47 366.68,433.93 368.04,434.66" fill="none" stroke="rgb(255, 0, 255)" stroke-width="3.31" stroke-opacity="1.00" stroke-linejoin="round"/>
<path d="M358.09,422.78 C358.09,422.78 356.89,422.78 356.89,422.78 C357.95,423.07 360.63,423.81 362.25,424.26 C364.06,424.79 366.88,425.88 368.59,426.69 C369.04,426.91 369.71,427.26 370.57,427.74" fill="none" stroke="rgb(255, 0, 255)" stroke-width="3.31" stroke-opacity="1.00" stroke-linejoin="round"/>
<path d="M351.15,437.93 C351.15,437.93 349.36,440.14 349.36,440.14 C349.57,441.02 352.67,442.25 353.83,442.91 C354.44,443.26 355.32,443.99 356.48,445.10" fill="none" stroke="rgb(255, 0, 255)" stroke-width="3.31" stroke-opacity="1.00" stroke-linejoin="round"/>
<path d="M347.99,447.39 C349.25,448.27 350.22,448.78 352.37,449.62 C353.53,450.08 354.69,450.55 355.85,451.01" fill="none" stroke="rgb(255, 0, 255)" stroke-width="3.31" stroke-opacity="1.00" stroke-linejoin="round"/>
<path d="M347.99,444.24 C347.99,444.24 345.47,446.13 345.47,446.13 C345.48,446.55 351.80,464.11 352.35,465.31 C353.86,468.57 357.58,473.38 359.41,474.53 C361.49,475.80 366.77,478.09 370.51,479.35 C373.62,480.37 377.82,481.75 378.92,482.10" fill="none" stroke="rgb(255, 0, 255)" stroke-width="3.31" stroke-opacity="1.00" stroke-linejoin="round"/>
<path d="M395.96,458.75 C395.96,458.75 395.64,458.75 395.64,458.75 C395.64,458.75 395.01,458.12 395.01,458.12 C394.27,457.67 393.75,457.49 392.68,457.49 C387.63,457.46 383.28,457.19 381.68,456.69 C378.68,455.71 369.48,451.36 369.27,451.32 C368.37,453.33 369.31,459.56 370.32,463.39 C371.45,467.55 374.35,475.02 376.14,478.08 C377.95,481.08 381.96,485.05 384.04,485.90 C386.17,486.71 390.71,485.95 392.44,484.84 C393.42,484.18 395.30,481.94 395.95,480.58 C397.23,477.79 397.86,468.96 397.22,465.96 C396.77,463.93 394.34,459.43 392.66,456.28" fill="none" stroke="rgb(255, 0, 255)" stroke-width="3.31" stroke-opacity="1.00" stroke-linejoin="round"/>
<path d="M373.24,457.49 C373.24,457.49 372.92,457.49 372.92,457.49 C372.91,458.61 373.31,459.44 374.39,459.96 C376.92,461.14 383.02,462.65 386.13,461.88 C388.55,461.24 392.76,458.09 393.05,457.77 C393.28,457.52 393.61,457.02 394.04,456.28" fill="none" stroke="rgb(255, 0, 255)" stroke-width="3.31" stroke-opacity="1.00" stroke-linejoin="round"/>
<path d="M410.47,463.80 C411.10,463.63 413.77,465.60 418.89,469.70 C419.97,470.57 422.40,472.62 422.80,472.97 C422.92,473.08 423.02,473.18 423.09,473.27" fill="none" stroke="rgb(255, 0, 255)" stroke-width="3.31" stroke-opacity="1.00" stroke-linejoin="round"/>
<path d="M419.31,463.80 C419.31,463.80 418.99,463.80 418.99,463.80 C418.99,463.80 418.68,464.12 418.68,464.12 C418.68,464.12 418.77,464.61 418.77,464.61 C420.45,466.00 421.40,466.92 422.41,468.17 C423.10,469.03 424.39,470.63 424.99,471.38" fill="none" stroke="rgb(255, 0, 255)" stroke-width="3.31" stroke-opacity="1.00" stroke-linejoin="round"/>
<path d="M399.11,479.58 C399.11,479.58 397.41,479.58 397.41,479.58 C397.34,479.99 400.45,485.69 406.39,486.78 C411.57,487.64 416.10,486.87 416.13,486.69 C416.13,486.69 416.15,486.52 416.15,486.52" fill="none" stroke="rgb(255, 0, 255)" stroke-width="3.31" stroke-opacity="1.00" stroke-linejoin="round"/>
<path d="M380.18,484.63 C380.18,484.63 379.23,484.00 379.23,484.00 C379.23,484.00 378.60,484.31 378.60,484.31 C378.32,485.16 378.25,486.69 378.66,487.78 C379.57,490.08 385.00,492.71 387.88,493.54 C393.74,495.17 401.29,494.85 402.33,494.25 C404.12,493.17 407.22,488.62 408.32,487.06" fill="none" stroke="rgb(255, 0, 255)" stroke-width="3.31" stroke-opacity="1.00" stroke-linejoin="round"/>
<path d="M371.34,479.58 C370.82,479.57 370.51,479.57 370.40,479.58 C369.57,479.72 368.69,483.53 368.91,486.74 C369.14,489.77 370.28,493.18 371.28,495.19 C372.67,497.92 377.96,502.77 378.53,503.49 C378.53,504.64 377.01,510.00 376.61,513.30 C375.87,521.07 374.57,533.34 372.89,543.52 C372.21,547.41 369.14,562.38 367.87,569.25 C363.94,591.73 362.70,597.02 360.62,605.17" fill="none" stroke="rgb(255, 0, 255)" stroke-width="3.31" stroke-opacity="1.00" stroke-linejoin="round"/>
<path d="M374.50,600.75 C374.50,600.75 374.18,602.01 374.18,602.01 C374.18,602.01 373.87,601.91 373.87,601.91 C376.26,590.64 380.31,561.97 382.98,546.45 C385.08,534.77 387.03,513.85 388.34,506.38 C388.46,506.28 392.65,505.89 395.54,504.78 C399.03,503.41 403.77,501.13 406.83,499.43 C412.90,496.02 418.17,490.48 421.20,487.15" fill="none" stroke="rgb(255, 0, 255)" stroke-width="3.31" stroke-opacity="1.00" stroke-linejoin="round"/>
<path d="M364.40,479.58 C364.40,479.58 364.40,478.95 364.40,478.95 C363.97,477.80 358.42,476.79 354.12,477.36 C352.30,477.62 346.11,479.82 343.29,481.69 C340.66,483.48 337.26,487.82 334.89,491.44 C332.25,495.51 330.52,499.09 329.64,502.41 C325.61,516.60 316.09,547.95 314.03,555.76 C311.95,563.53 305.31,580.57 305.18,581.00 C304.51,583.53 303.73,588.95 303.18,594.73 C302.79,598.76 301.89,604.07 301.29,607.69" fill="none" stroke="rgb(255, 0, 255)" stroke-width="3.31" stroke-opacity="1.00" stroke-linejoin="round"/>
<path d="M303.82,607.06 C303.87,607.27 303.87,607.49 303.82,607.69 C303.77,607.90 303.59,608.40 303.30,609.19 C321.25,616.92 346.19,626.17 354.26,627.13 C354.58,627.17 355.17,627.19 356.04,627.20 C356.12,625.16 355.85,623.82 354.73,621.30 C353.05,617.49 351.47,611.60 351.13,608.98 C350.34,602.53 351.20,592.38 352.70,580.04 C353.17,576.16 354.31,567.31 354.51,566.01 C355.18,561.84 356.02,558.56 356.20,557.84" fill="none" stroke="rgb(255, 0, 255)" stroke-width="3.31" stroke-opacity="1.00" stroke-linejoin="round"/>
<path d="M370.71,526.91 C368.72,530.23 368.34,532.27 367.97,536.23 C367.29,543.65 364.76,552.30 360.85,561.71 C359.57,564.72 356.85,571.00 356.39,572.14 C355.76,573.66 354.73,576.31 354.30,577.40" fill="none" stroke="rgb(255, 0, 255)" stroke-width="3.31" stroke-opacity="1.00" stroke-linejoin="round"/>
<path d="M349.26,552.79 C348.60,553.56 348.15,553.83 347.11,554.05 C346.93,554.09 346.69,554.16 346.39,554.27 C345.03,557.12 342.92,563.56 341.99,567.15 C341.44,569.34 341.46,570.43 341.93,571.33 C342.87,571.49 344.02,571.24 345.04,570.46 C346.79,569.08 349.64,562.95 349.83,560.73 C350.00,558.36 348.65,554.18 348.02,552.45" fill="none" stroke="rgb(255, 0, 255)" stroke-width="3.31" stroke-opacity="1.00" stroke-linejoin="round"/>
<path d="M318.96,564.78 C318.96,564.78 316.79,564.15 316.79,564.15 C316.14,564.64 314.71,570.62 314.41,573.65 C314.03,578.35 314.17,579.40 314.65,580.92 C316.93,578.90 317.93,577.85 318.18,576.90 C318.59,575.30 320.32,566.33 320.39,564.36 C320.45,562.32 320.21,559.06 319.93,557.18" fill="none" stroke="rgb(255, 0, 255)" stroke-width="3.31" stroke-opacity="1.00" stroke-linejoin="round"/>
<path d="M332.85,506.09 C331.76,507.04 331.35,509.88 331.95,513.21 C332.85,517.95 334.61,520.09 335.73,520.77 C337.47,520.13 338.95,515.45 339.32,512.67 C339.65,509.93 339.47,508.01 339.13,505.77 C339.13,505.77 337.48,504.79 337.48,504.79" fill="none" stroke="rgb(255, 0, 255)" stroke-width="3.31" stroke-opacity="1.00" stroke-linejoin="round"/>
<path d="M309.50,598.86 C309.50,598.86 307.60,600.75 307.60,600.75 C309.73,600.73 310.92,600.77 312.73,600.95 C318.56,601.53 332.00,605.80 337.41,606.90 C340.74,607.55 346.39,607.63 349.89,607.25 C351.41,607.08 354.08,606.68 355.57,606.43" fill="none" stroke="rgb(255, 0, 255)" stroke-width="3.31" stroke-opacity="1.00" stroke-linejoin="round"/>
<path d="M454.02,528.81 C454.02,528.81 453.70,527.86 453.70,527.86 C453.70,527.86 452.76,527.54 452.76,527.54 C451.80,529.53 450.22,537.44 450.17,537.83 C449.83,540.45 450.13,542.35 450.99,543.82 C452.45,544.37 454.24,544.20 455.61,542.91 C457.56,541.05 460.10,535.59 460.47,533.29 C460.54,532.82 460.77,530.22 460.91,528.85" fill="none" stroke="rgb(255, 0, 255)" stroke-width="3.31" stroke-opacity="1.00" stroke-linejoin="round"/>
<path d="M437.61,489.68 C436.75,489.76 436.16,489.87 435.85,489.99 C435.54,490.12 435.08,490.43 434.45,490.94 C435.49,492.11 436.50,492.65 439.15,493.30 C443.03,494.26 446.63,496.22 448.11,497.10" fill="none" stroke="rgb(255, 0, 255)" stroke-width="3.31" stroke-opacity="1.00" stroke-linejoin="round"/>
<path d="M491.88,461.91 C491.88,461.91 489.36,463.17 489.36,463.17 C489.50,463.22 489.62,463.22 489.74,463.17 C489.85,463.12 490.12,462.96 490.53,462.68 C490.53,462.68 490.44,461.20 490.44,461.20 C488.35,459.74 482.41,457.11 480.06,457.51 C478.09,457.90 474.70,460.31 472.12,462.93 C466.17,469.04 461.63,477.16 461.04,480.07 C460.74,481.65 460.93,482.67 461.53,483.63 C462.91,484.43 466.86,483.61 469.13,482.28 C471.55,480.82 476.40,476.23 477.63,474.34 C478.91,472.32 480.31,467.26 480.88,465.00" fill="none" stroke="rgb(255, 0, 255)" stroke-width="3.31" stroke-opacity="1.00" stroke-linejoin="round"/>
<path d="M489.99,446.13 C489.03,447.19 488.05,447.58 487.82,447.83 C487.04,448.69 485.09,454.87 484.97,455.34 C484.84,455.80 484.64,456.62 484.37,457.81" fill="none" stroke="rgb(255, 0, 255)" stroke-width="3.31" stroke-opacity="1.00" stroke-linejoin="round"/>
<path d="M495.04,440.45 C495.04,440.45 495.04,441.08 495.04,441.08 C494.26,441.99 492.89,447.29 492.06,450.54 C490.77,455.58 489.42,458.03 488.96,458.10 C488.96,458.10 488.77,457.65 488.77,457.65" fill="none" stroke="rgb(255, 0, 255)" stroke-width="3.31" stroke-opacity="1.00" stroke-linejoin="round"/>
<path d="M484.94,462.54 C484.94,462.54 482.58,461.28 482.58,461.28 C482.54,461.27 482.64,461.27 482.67,461.28 C486.37,461.80 491.13,463.80 493.19,465.75 C495.28,467.79 498.88,474.69 499.24,476.15 C499.71,478.16 500.52,486.58 500.89,490.56 C501.23,494.75 500.97,497.68 499.97,502.15 C499.21,505.31 497.38,509.36 495.92,511.21 C495.17,512.09 492.79,513.87 491.44,514.31 C488.54,515.21 482.50,513.63 480.70,512.89 C478.24,511.86 474.91,509.74 473.34,507.91 C472.08,506.36 472.09,501.58 473.14,497.75 C476.51,486.50 477.08,482.73 477.03,481.98 C477.01,481.73 476.92,481.37 476.76,480.88" fill="none" stroke="rgb(255, 0, 255)" stroke-width="3.31" stroke-opacity="1.00" stroke-linejoin="round"/>
<path d="M469.80,484.63 C469.80,484.63 467.50,485.05 467.50,485.05 C466.87,488.74 466.19,495.08 466.60,497.92 C466.84,499.43 468.78,504.11 469.86,505.59 C471.29,507.50 473.53,509.56 475.20,510.37 C476.80,511.11 478.77,510.70 480.32,509.46 C480.64,509.19 481.13,508.70 481.79,507.98" fill="none" stroke="rgb(255, 0, 255)" stroke-width="3.31" stroke-opacity="1.00" stroke-linejoin="round"/>
<path d="M462.85,485.89 C462.85,485.89 463.48,485.89 463.48,485.89 C463.48,485.89 463.48,486.71 463.48,486.71 C463.48,486.71 462.41,487.78 462.41,487.78 C462.17,487.81 453.98,492.49 450.59,494.20 C450.06,494.50 449.10,495.09 447.71,495.99" fill="none" stroke="rgb(255, 0, 255)" stroke-width="3.31" stroke-opacity="1.00" stroke-linejoin="round"/>
<path d="M463.48,497.88 C463.48,497.88 465.06,496.62 465.06,496.62 C462.48,497.04 455.70,499.41 454.23,499.80 C450.50,500.79 448.93,501.88 447.97,502.95 C447.76,504.54 448.00,506.28 448.86,507.62 C449.79,509.03 452.31,510.50 454.08,510.75 C455.01,510.85 461.75,508.79 462.41,508.12 C462.72,507.80 463.29,506.97 464.11,505.64" fill="none" stroke="rgb(255, 0, 255)" stroke-width="3.31" stroke-opacity="1.00" stroke-linejoin="round"/>
<path d="M452.76,502.93 C452.76,502.93 451.94,502.30 451.94,502.30 C451.94,502.30 451.63,502.30 451.63,502.30 C452.86,502.52 453.80,503.09 454.85,504.48 C455.93,505.91 457.05,507.82 457.71,509.34 C457.85,509.67 458.09,510.27 458.44,511.14" fill="none" stroke="rgb(255, 0, 255)" stroke-width="3.31" stroke-opacity="1.00" stroke-linejoin="round"/>
<path d="M500.72,471.38 C500.72,471.38 498.96,469.17 498.96,469.17 C498.96,469.17 499.01,468.85 499.01,468.85 C499.01,468.85 509.55,464.13 509.55,464.13 C509.70,462.28 512.47,457.43 514.09,456.43 C515.29,455.76 517.51,455.91 518.50,456.94 C519.75,458.29 522.28,464.82 521.97,467.18 C521.72,468.78 520.01,470.22 518.30,470.54 C515.73,470.94 511.03,471.18 510.77,471.58 C507.92,476.32 502.58,481.09 501.62,481.90 C501.33,482.17 500.82,482.65 500.09,483.37" fill="none" stroke="rgb(255, 0, 255)" stroke-width="3.31" stroke-opacity="1.00" stroke-linejoin="round"/>
<path d="M481.79,488.42 C481.73,487.49 481.67,486.91 481.61,486.66 C481.54,486.41 481.39,486.15 481.16,485.89 C481.16,485.89 482.19,486.28 482.19,486.28 C483.15,488.64 483.90,493.37 483.68,497.68 C483.60,499.17 483.29,501.85 483.05,503.56" fill="none" stroke="rgb(255, 0, 255)" stroke-width="3.31" stroke-opacity="1.00" stroke-linejoin="round"/>
<path d="M478.63,475.79 C478.63,475.79 478.32,475.79 478.32,475.79 C478.05,476.24 477.87,477.48 478.00,478.96 C478.04,479.46 478.18,480.50 478.41,482.08" fill="none" stroke="rgb(255, 0, 255)" stroke-width="3.31" stroke-opacity="1.00" stroke-linejoin="round"/>
<path d="M458.44,513.66 C458.44,513.66 457.17,511.14 457.17,511.14 C457.59,514.02 465.67,528.83 467.80,533.63 C469.03,536.40 477.54,558.15 478.10,559.88 C479.64,564.64 481.70,574.49 483.25,586.13 C485.03,601.57 487.92,627.43 488.91,648.34 C489.13,652.63 489.89,658.44 489.22,659.42 C486.66,660.24 466.17,663.54 465.10,663.72 C459.98,664.60 445.57,665.39 440.52,664.64 C438.78,664.35 435.91,663.35 435.33,662.73 C434.43,661.63 434.98,644.84 435.19,638.54 C435.42,630.41 435.40,614.27 435.13,606.28 C434.16,591.25 432.40,567.47 431.80,564.03 C430.42,556.77 430.10,552.00 430.04,550.89" fill="none" stroke="rgb(255, 0, 255)" stroke-width="3.31" stroke-opacity="1.00" stroke-linejoin="round"/>
<path d="M475.48,566.04 C475.48,566.04 473.04,565.41 473.04,565.41 C467.54,581.17 467.93,590.55 468.45,593.14 C470.17,592.91 471.19,592.45 472.15,591.29 C475.93,586.68 479.67,576.97 480.98,573.49" fill="none" stroke="rgb(255, 0, 255)" stroke-width="3.31" stroke-opacity="1.00" stroke-linejoin="round"/>
<path d="M488.73,637.36 C488.73,637.36 488.73,637.04 488.73,637.04 C488.74,636.99 488.40,638.91 488.04,639.70 C487.45,640.97 485.72,642.86 484.63,643.51 C482.19,644.87 475.59,646.71 472.34,647.23 C468.83,647.76 461.01,648.39 459.14,648.64 C455.15,649.17 443.25,652.56 441.23,653.01 C441.23,653.01 438.87,651.24 438.87,651.24" fill="none" stroke="rgb(255, 0, 255)" stroke-width="3.31" stroke-opacity="1.00" stroke-linejoin="round"/>
<path d="M434.45,571.72 C434.45,571.72 433.82,571.09 433.82,571.09 C433.54,571.09 432.81,571.10 432.61,571.26 C432.48,571.36 432.22,571.66 431.83,572.16 C430.11,572.57 426.11,571.48 422.76,569.70 C419.10,567.71 409.00,559.60 406.07,558.31 C403.89,557.39 399.82,557.82 396.30,558.83 C392.19,560.17 386.98,563.42 383.97,565.41" fill="none" stroke="rgb(255, 0, 255)" stroke-width="3.31" stroke-opacity="1.00" stroke-linejoin="round"/>
<path d="M389.65,585.60 C389.65,585.60 389.01,583.08 389.01,583.08 C390.16,585.63 393.39,592.91 394.13,594.71 C399.06,606.59 399.51,607.46 400.17,608.64" fill="none" stroke="rgb(255, 0, 255)" stroke-width="3.31" stroke-opacity="1.00" stroke-linejoin="round"/>
<path d="M395.96,571.09 C395.96,571.09 393.75,572.04 393.75,572.04 C393.31,572.69 396.18,579.06 397.39,582.20 C398.22,584.36 400.48,591.24 401.27,594.03 C402.93,599.81 404.87,606.53 405.15,607.47" fill="none" stroke="rgb(255, 0, 255)" stroke-width="3.31" stroke-opacity="1.00" stroke-linejoin="round"/>
<path d="M404.79,570.46 C404.79,570.46 403.53,571.25 403.53,571.25 C404.41,575.96 409.71,594.59 410.03,595.62 C410.79,598.03 412.43,602.47 412.76,603.36" fill="none" stroke="rgb(255, 0, 255)" stroke-width="3.31" stroke-opacity="1.00" stroke-linejoin="round"/>
<path d="M413.63,571.09 C412.83,573.54 412.29,575.52 412.37,576.61 C412.58,579.53 414.80,585.36 415.96,587.96 C417.21,590.71 419.32,595.44 420.19,597.41" fill="none" stroke="rgb(255, 0, 255)" stroke-width="3.31" stroke-opacity="1.00" stroke-linejoin="round"/>
<path d="M423.09,581.19 C422.80,581.16 422.59,581.16 422.46,581.19 C422.34,581.22 422.13,581.32 421.83,581.50 C422.13,582.65 422.48,583.56 423.33,585.30 C425.52,589.82 427.50,594.45 427.60,594.66 C427.79,595.06 428.30,596.08 429.12,597.71" fill="none" stroke="rgb(255, 0, 255)" stroke-width="3.31" stroke-opacity="1.00" stroke-linejoin="round"/>
<path d="M433.19,618.42 C433.19,618.42 432.24,618.42 432.24,618.42 C429.99,619.97 417.64,618.14 403.95,615.55 C399.79,614.74 391.99,613.22 389.07,612.43 C386.10,611.59 380.52,607.90 379.96,607.83 C370.38,606.96 362.29,607.11 361.17,607.11 C359.32,607.13 356.14,607.08 354.94,607.06" fill="none" stroke="rgb(255, 0, 255)" stroke-width="3.31" stroke-opacity="1.00" stroke-linejoin="round"/>
<path d="M368.82,610.22 C368.82,610.22 364.98,610.64 364.98,610.64 C364.98,610.64 364.59,611.51 364.59,611.51 C365.13,612.41 374.77,615.51 374.96,615.59 C377.06,616.43 394.42,626.23 398.54,627.56 C402.54,628.81 408.35,629.95 412.64,630.28 C423.39,630.93 427.36,631.55 428.60,631.82 C429.29,631.98 429.98,632.14 430.67,632.31" fill="none" stroke="rgb(255, 0, 255)" stroke-width="3.31" stroke-opacity="1.00" stroke-linejoin="round"/>
<path d="M434.45,629.78 C434.60,629.70 434.49,629.59 434.14,629.47 C433.23,629.15 428.68,627.93 427.91,627.89 C426.95,627.84 419.26,627.35 414.14,625.98 C408.84,624.47 405.03,623.53 403.82,622.67 C403.05,622.12 396.96,617.07 394.34,616.02 C393.37,615.65 390.07,614.77 388.88,614.60 C386.99,614.33 383.61,614.08 381.44,614.00" fill="none" stroke="rgb(255, 0, 255)" stroke-width="3.31" stroke-opacity="1.00" stroke-linejoin="round"/>
<path d="M361.88,610.85 C361.88,610.85 355.63,618.27 355.63,618.27 C358.10,617.69 362.02,618.81 366.23,621.18 C371.69,624.21 375.65,626.08 378.51,626.80 C383.29,627.95 397.76,629.54 398.97,630.12 C399.51,630.38 401.25,632.48 402.27,633.57" fill="none" stroke="rgb(255, 0, 255)" stroke-width="3.31" stroke-opacity="1.00" stroke-linejoin="round"/>
<path d="M365.66,620.32 C365.66,620.32 363.89,622.32 363.89,622.32 C374.21,626.50 411.67,638.71 414.72,639.45 C418.11,640.24 424.28,640.65 427.77,640.37 C431.34,640.01 435.51,639.91 436.98,639.88" fill="none" stroke="rgb(255, 0, 255)" stroke-width="3.31" stroke-opacity="1.00" stroke-linejoin="round"/>
<path d="M449.60,668.28 C449.60,668.28 448.85,667.02 448.85,667.02 C448.60,666.98 446.81,666.65 445.47,668.19 C437.46,677.40 433.52,689.88 433.13,691.30 C434.32,691.65 435.41,691.31 437.28,689.72 C440.32,687.14 445.78,681.97 447.03,680.52 C448.83,678.42 452.68,673.00 453.91,671.28" fill="none" stroke="rgb(255, 0, 255)" stroke-width="3.31" stroke-opacity="1.00" stroke-linejoin="round"/>
<path d="M454.02,668.28 C452.64,669.68 450.99,671.86 450.35,673.32 C450.33,673.36 448.62,678.99 446.00,684.43 C444.33,688.03 442.22,694.90 441.92,697.30 C441.39,701.89 442.05,703.64 442.71,704.16 C444.20,703.79 447.97,699.00 449.68,695.90 C452.59,690.57 459.10,675.63 459.70,674.67 C459.85,674.94 459.93,675.17 459.96,675.35 C460.09,676.25 458.93,684.65 458.96,687.44 C459.10,694.46 461.27,700.11 461.85,701.50 C461.85,701.50 463.98,701.76 463.98,701.76 C466.06,698.19 467.38,693.34 467.94,690.17 C469.22,682.70 468.91,675.53 469.14,674.13 C469.14,674.13 482.09,690.54 482.09,690.54 C483.23,689.27 482.43,684.08 481.77,681.91 C481.02,679.58 478.31,674.57 478.11,673.74 C480.04,674.30 484.23,675.82 486.77,676.38 C488.33,676.72 489.44,676.71 490.78,676.43 C491.15,673.78 490.92,672.40 489.62,670.82 C489.26,670.38 484.33,663.85 483.43,662.65 C483.09,662.21 482.75,661.77 482.42,661.34" fill="none" stroke="rgb(255, 0, 255)" stroke-width="3.31" stroke-opacity="1.00" stroke-linejoin="round"/>
<path d="M494.41,634.83 C494.41,634.83 489.67,637.99 489.67,637.99 C491.88,637.57 497.58,636.69 499.84,637.21 C502.34,637.85 507.27,640.58 510.49,643.21 C515.15,647.06 527.79,660.34 528.44,661.28 C528.74,661.72 529.39,662.80 530.38,664.49" fill="none" stroke="rgb(255, 0, 255)" stroke-width="3.31" stroke-opacity="1.00" stroke-linejoin="round"/>
<path d="M305.08,619.05 C305.08,619.05 305.08,609.08 305.08,609.08 C304.86,612.26 304.37,617.07 303.67,622.66 C303.19,626.58 302.91,630.82 302.95,633.75 C302.97,635.23 303.32,636.56 304.14,638.65 C304.14,638.65 305.72,639.34 305.72,639.34 C307.70,638.40 310.56,633.67 311.32,631.32 C312.55,627.41 313.41,622.03 313.55,618.55 C312.95,620.00 314.23,635.23 315.49,640.57 C316.07,643.03 316.85,644.95 317.72,646.29 C319.36,646.27 320.46,645.32 321.00,643.13 C321.92,639.29 322.60,625.87 322.75,622.49 C322.66,625.88 323.38,648.77 324.11,652.24 C324.95,656.12 325.68,657.52 326.35,658.25 C327.79,657.60 328.47,656.88 328.77,655.39 C329.92,649.29 331.00,628.14 331.35,627.79 C331.58,628.24 334.07,648.01 335.89,652.95 C337.12,656.21 338.43,657.63 339.28,658.12 C340.60,656.92 341.16,655.89 341.21,654.10 C341.39,647.04 339.97,630.83 339.45,629.38 C339.64,631.47 341.75,639.52 342.27,640.93 C343.73,644.77 345.03,645.71 346.10,646.03 C347.73,644.73 348.80,640.15 348.96,636.30 C349.06,633.41 347.95,627.28 347.89,626.50 C347.82,625.61 347.90,623.56 347.99,622.21" fill="none" stroke="rgb(255, 0, 255)" stroke-width="3.31" stroke-opacity="1.00" stroke-linejoin="round"/>
<path d="M346.73,656.92 C346.43,656.89 346.22,656.89 346.10,656.92 C345.98,656.95 345.77,657.06 345.47,657.23 C345.63,657.73 346.01,658.38 347.07,659.87 C351.46,666.07 354.55,673.58 358.52,684.38 C361.42,692.43 368.36,711.86 369.61,715.80 C371.14,720.63 374.58,735.88 374.76,736.38 C374.89,736.74 375.23,737.39 375.76,738.33" fill="none" stroke="rgb(255, 0, 255)" stroke-width="3.31" stroke-opacity="1.00" stroke-linejoin="round"/>
<path d="M325.27,649.35 C325.27,649.35 324.33,649.66 324.33,649.66 C324.33,649.66 324.01,650.42 324.01,650.42 C324.96,654.27 333.61,670.22 335.53,674.13 C338.46,680.13 343.44,692.40 345.78,699.70 C350.71,716.01 354.67,731.28 358.25,739.01 C358.25,739.01 359.34,735.52 359.34,735.52" fill="none" stroke="rgb(255, 0, 255)" stroke-width="3.31" stroke-opacity="1.00" stroke-linejoin="round"/>
<path d="M302.55,632.31 C302.55,633.31 302.55,634.30 302.55,635.30 C302.55,635.57 302.55,635.83 302.55,636.09 C301.15,634.23 300.46,633.54 299.45,633.14 C297.16,632.27 293.32,631.83 290.34,632.70 C289.02,633.10 280.42,636.32 278.33,637.35 C276.18,638.47 273.20,641.76 271.92,644.92 C271.67,645.58 263.41,665.66 262.40,669.20 C260.70,675.24 259.17,689.77 259.11,695.49 C259.03,705.06 260.19,715.94 261.89,722.02 C263.60,728.07 267.01,735.24 268.76,738.36 C270.30,741.04 272.64,742.57 275.42,744.01" fill="none" stroke="rgb(255, 0, 255)" stroke-width="3.31" stroke-opacity="1.00" stroke-linejoin="round"/>
<path d="M413.00,663.23 C413.00,663.23 406.45,666.70 406.45,666.70 C406.91,667.25 419.77,665.60 423.60,666.06 C426.04,666.36 440.47,669.61 441.07,669.73 C441.47,669.82 442.22,669.97 443.29,670.17" fill="none" stroke="rgb(255, 0, 255)" stroke-width="3.31" stroke-opacity="1.00" stroke-linejoin="round"/>
<path d="M414.26,706.14 C414.26,706.14 411.10,706.78 411.10,706.78 C416.63,705.20 429.65,703.76 436.56,703.96 C440.13,704.08 446.04,705.22 448.28,705.95 C450.81,706.79 452.52,708.45 452.80,709.26 C452.80,709.26 450.86,710.56 450.86,710.56" fill="none" stroke="rgb(255, 0, 255)" stroke-width="3.31" stroke-opacity="1.00" stroke-linejoin="round"/>
</g>
</svg>
