<?xml version="1.0" encoding="UTF-8" standalone="no"?>
<!DOCTYPE svg PUBLIC "-//W3C//DTD SVG 1.1//EN" "http://www.w3.org/Graphics/SVG/1.1/DTD/svg11.dtd">
<svg width="128.40" height="181.68" viewBox="0.00 0.00 535.00 757.00" xmlns="http://www.w3.org/2000/svg" xmlns:xlink="http://www.w3.org/1999/xlink">
<g stroke-linecap="round" id="152">
<path d="M112.05,135.85 C112.05,135.85 110.01,138.35 110.01,138.35 C110.01,138.28 111.07,107.88 111.09,103.99 C111.12,100.53 111.55,97.65 111.79,96.57" fill="none" stroke="rgb(255, 0, 255)" stroke-width="2.53" stroke-opacity="1.00" stroke-linejoin="round"/>
<path d="M278.37,51.50 C278.27,54.41 278.02,60.09 277.88,62.85 C277.41,70.01 276.56,82.84 276.59,83.33 C276.63,83.81 276.78,84.85 277.05,86.45" fill="none" stroke="rgb(255, 0, 255)" stroke-width="2.53" stroke-opacity="1.00" stroke-linejoin="round"/>
<path d="M459.87,76.61 C459.87,76.61 457.74,77.91 457.74,77.91 C457.51,78.42 458.67,83.79 459.01,88.34 C459.34,92.93 459.28,126.08 459.28,133.83 C459.38,139.33 460.68,150.10 461.02,152.76" fill="none" stroke="rgb(255, 0, 255)" stroke-width="2.53" stroke-opacity="1.00" stroke-linejoin="round"/>
<path d="M509.15,318.76 C509.30,320.25 511.14,324.16 511.57,326.37 C511.95,328.43 512.67,335.65 512.81,338.92 C512.90,341.05 512.94,346.29 512.94,347.41" fill="none" stroke="rgb(255, 0, 255)" stroke-width="2.53" stroke-opacity="1.00" stroke-linejoin="round"/>
<path d="M359.88,309.28 C358.53,310.75 357.25,313.84 357.04,317.62 C356.95,320.42 356.79,326.62 356.71,330.00 C356.65,336.31 356.57,348.03 356.56,353.45" fill="none" stroke="rgb(255, 0, 255)" stroke-width="2.53" stroke-opacity="1.00" stroke-linejoin="round"/>
<path d="M401.11,456.18 C401.11,456.18 401.11,454.53 401.11,454.53 C401.08,455.02 401.15,455.78 401.41,457.48 C402.02,461.27 403.61,471.09 403.92,473.33 C404.80,479.69 405.32,490.14 405.37,491.25" fill="none" stroke="rgb(255, 0, 255)" stroke-width="2.53" stroke-opacity="1.00" stroke-linejoin="round"/>
<path d="M300.17,485.56 C299.11,486.17 298.52,486.99 298.38,488.30 C298.24,489.67 298.75,505.76 298.43,511.07 C298.30,513.17 297.65,516.14 297.04,517.53 C296.88,517.87 296.66,518.12 296.38,518.26" fill="none" stroke="rgb(255, 0, 255)" stroke-width="2.53" stroke-opacity="1.00" stroke-linejoin="round"/>
<path d="M110.15,468.51 C110.15,468.51 106.08,468.11 106.08,468.11 C104.97,468.83 104.99,472.09 105.48,478.15 C105.83,482.34 106.58,491.91 106.69,494.19 C106.88,498.20 106.45,507.80 106.40,508.91" fill="none" stroke="rgb(255, 0, 255)" stroke-width="2.53" stroke-opacity="1.00" stroke-linejoin="round"/>
<path d="M161.33,337.24 C161.33,337.24 160.43,337.82 160.43,337.82 C159.70,341.85 157.73,358.26 156.77,365.66 C156.33,369.44 155.77,374.42 155.64,375.63" fill="none" stroke="rgb(255, 0, 255)" stroke-width="2.53" stroke-opacity="1.00" stroke-linejoin="round"/>
<path d="M59.92,337.24 C59.30,339.13 60.00,343.70 60.69,346.83 C63.46,359.41 65.76,375.52 66.20,378.89 C66.67,382.57 67.32,387.57 67.50,388.89" fill="none" stroke="rgb(255, 0, 255)" stroke-width="2.53" stroke-opacity="1.00" stroke-linejoin="round"/>
<path d="M277.90,193.18 C277.90,193.18 276.12,193.78 276.12,193.78 C275.73,194.36 275.49,195.71 275.59,197.41 C275.63,198.09 276.08,201.34 276.24,202.51" fill="none" stroke="rgb(255, 0, 255)" stroke-width="2.53" stroke-opacity="1.00" stroke-linejoin="round"/>
<path d="M194.97,180.86 C194.97,180.86 193.13,180.28 193.13,180.28 C193.13,180.06 193.51,176.72 193.52,176.60 C193.58,175.82 193.88,173.67 194.63,173.39 C196.93,172.70 204.28,174.70 205.31,176.17 C205.79,176.92 205.66,180.38 205.59,181.34 C205.54,181.91 205.48,182.90 205.41,184.31" fill="none" stroke="rgb(0, 255, 255)" stroke-width="2.53" stroke-opacity="1.00" stroke-linejoin="round"/>
<path d="M204.92,183.23 C203.98,183.23 202.17,183.22 201.96,183.11 C201.69,182.98 197.22,181.17 194.85,181.00 C191.11,180.78 175.25,182.71 173.01,183.48 C163.09,186.96 154.78,191.25 145.30,196.87 C139.09,200.66 131.74,206.35 127.76,210.53 C124.29,214.29 121.20,217.96 120.23,219.56 C110.20,236.24 109.38,242.31 109.55,242.93 C110.32,243.31 110.98,243.09 112.57,241.84 C113.87,240.83 118.57,238.11 121.18,236.98 C124.70,235.47 128.78,234.35 131.09,234.54 C133.45,234.82 137.37,237.67 140.58,241.48 C142.31,243.56 142.81,244.23 143.45,245.23 C143.45,245.23 142.86,244.85 142.86,244.85" fill="none" stroke="rgb(0, 255, 255)" stroke-width="2.53" stroke-opacity="1.00" stroke-linejoin="round"/>
<path d="M199.71,186.55 C197.92,186.51 196.89,186.62 196.14,187.17 C194.13,188.69 191.63,193.04 190.44,195.25 C186.38,202.82 182.23,213.34 180.73,222.16 C180.02,226.54 179.47,231.05 179.31,234.85 C179.06,240.87 179.71,247.69 179.81,248.63" fill="none" stroke="rgb(0, 255, 255)" stroke-width="2.53" stroke-opacity="1.00" stroke-linejoin="round"/>
<path d="M195.92,184.65 C195.92,184.65 194.91,184.65 194.91,184.65 C194.00,183.27 192.27,181.69 189.85,182.02 C186.74,182.53 177.61,188.58 170.26,194.91 C165.84,198.77 164.09,200.41 162.04,202.66 C159.81,205.16 150.17,222.20 149.45,224.03 C147.14,229.86 144.43,239.49 144.29,240.17 C144.20,240.65 144.04,241.65 143.82,243.16" fill="none" stroke="rgb(0, 255, 255)" stroke-width="2.53" stroke-opacity="1.00" stroke-linejoin="round"/>
<path d="M144.74,245.31 C144.74,245.31 143.32,246.14 143.32,246.14 C144.66,245.34 150.11,241.74 152.77,240.95 C155.53,240.17 160.83,240.25 165.08,240.74 C168.70,241.19 172.12,242.56 173.34,244.46 C174.12,245.72 175.77,249.75 176.06,250.82 C176.18,251.23 176.32,251.92 176.49,252.89" fill="none" stroke="rgb(0, 255, 255)" stroke-width="2.53" stroke-opacity="1.00" stroke-linejoin="round"/>
<path d="M181.70,247.68 C180.45,248.01 179.62,248.25 179.22,248.39 C178.81,248.53 178.27,248.77 177.60,249.10 C178.33,248.96 194.34,242.91 196.62,242.94 C198.32,243.01 199.94,245.29 200.16,246.53 C198.76,238.93 197.22,189.04 197.22,188.82 C197.22,188.29 197.25,187.06 197.31,185.11" fill="none" stroke="rgb(0, 255, 255)" stroke-width="2.53" stroke-opacity="1.00" stroke-linejoin="round"/>
<path d="M201.13,184.65 C201.13,184.65 199.47,184.65 199.47,184.65 C199.47,184.65 199.43,185.14 199.43,185.14 C200.28,186.47 206.56,193.25 207.42,194.19 C209.94,196.95 212.16,200.49 213.12,202.61 C221.15,221.48 224.13,230.72 225.60,235.87 C226.64,239.58 227.47,243.58 227.66,244.79" fill="none" stroke="rgb(0, 255, 255)" stroke-width="2.53" stroke-opacity="1.00" stroke-linejoin="round"/>
<path d="M263.21,240.57 C263.21,240.57 263.21,241.99 263.21,241.99 C262.48,236.38 261.47,231.71 259.92,227.88 C258.29,223.99 256.06,220.15 253.00,215.80 C249.75,211.23 234.74,197.06 233.77,196.37 C229.10,193.14 215.97,186.89 209.99,185.65 C209.11,185.47 206.32,184.86 205.40,184.65" fill="none" stroke="rgb(0, 255, 255)" stroke-width="2.53" stroke-opacity="1.00" stroke-linejoin="round"/>
<path d="M210.61,183.23 C210.13,183.21 209.36,183.30 208.95,183.47 C208.85,183.52 208.75,183.59 208.66,183.71 C212.45,183.61 221.23,182.79 222.71,182.78 C225.67,182.79 231.29,184.24 234.01,184.96 C237.66,185.94 242.82,188.32 243.98,188.65 C247.47,189.35 253.46,190.75 256.95,192.71 C260.36,194.71 266.86,198.33 267.55,198.76 C270.85,200.80 276.17,205.10 278.28,207.57 C280.38,210.10 283.86,215.85 284.06,217.35 C284.08,217.50 294.22,230.13 295.93,233.72 C297.71,237.60 298.85,247.20 299.43,249.23 C297.37,247.31 293.26,244.00 290.83,242.50 C287.60,240.53 282.01,238.16 279.45,237.67 C277.11,237.26 273.97,238.59 271.59,240.81 C269.40,242.89 265.62,246.51 264.62,247.15 C263.68,246.07 260.50,243.51 258.12,242.05 C255.18,240.26 250.00,238.05 246.36,237.23 C243.03,236.52 237.23,236.58 235.20,237.48 C232.36,238.80 226.75,246.20 225.84,247.41 C225.87,246.56 223.17,242.87 220.36,241.30 C218.05,240.05 213.40,238.77 210.58,238.72 C208.12,238.72 203.58,239.97 201.57,241.40 C200.71,242.02 198.94,243.70 197.82,244.84" fill="none" stroke="rgb(0, 255, 255)" stroke-width="2.53" stroke-opacity="1.00" stroke-linejoin="round"/>
<path d="M195.92,243.89 C195.92,243.89 193.55,246.02 193.55,246.02 C193.55,246.02 195.68,246.69 195.68,246.69 C196.71,249.84 195.91,286.03 195.52,299.69 C195.18,306.92 194.12,324.93 193.86,327.95 C192.97,338.09 192.57,345.86 190.81,350.88 C189.83,353.54 188.38,355.71 186.70,356.89 C185.96,357.39 183.81,357.42 182.95,357.20 C181.02,356.66 178.86,353.42 178.92,353.35 C179.80,357.16 180.78,360.09 182.50,360.53 C184.05,360.86 188.64,357.18 190.01,354.87 C192.26,350.96 195.25,336.77 195.69,332.03 C196.00,328.67 200.78,246.87 200.18,243.57 C200.13,243.32 199.98,243.12 199.71,242.94" fill="none" stroke="rgb(0, 255, 255)" stroke-width="2.53" stroke-opacity="1.00" stroke-linejoin="round"/>
<path d="M221.51,298.86 C219.84,299.69 219.39,300.29 218.93,303.33 C218.86,303.73 213.16,325.10 213.05,325.78 C211.45,335.37 209.98,338.91 209.75,339.16 C210.03,333.35 210.51,320.23 209.66,314.61 C209.18,311.48 208.19,304.69 208.22,301.55 C208.29,298.21 209.23,293.63 210.64,290.69 C211.99,287.96 215.43,283.48 217.78,281.92 C220.26,280.33 226.63,278.13 230.70,277.49 C237.31,276.50 254.74,277.81 258.78,278.74 C261.21,279.32 267.55,282.38 269.90,283.80 C271.56,284.83 273.72,286.76 274.47,288.05 C275.80,290.39 276.83,295.24 277.06,297.57 C279.10,321.39 279.68,344.63 279.19,345.92 C278.37,343.17 274.49,325.65 272.65,319.72 C271.03,314.70 267.05,304.03 266.55,303.37 C266.11,303.56 263.10,307.12 261.14,309.10 C258.36,311.90 254.61,314.95 252.00,316.34 C247.35,318.78 243.01,319.97 242.12,320.12 C245.98,315.09 246.59,308.03 246.56,306.83 C244.63,306.86 239.99,309.19 237.42,310.33 C235.04,311.36 231.23,311.88 230.54,311.57 C230.51,311.56 229.55,311.11 227.67,310.23" fill="none" stroke="rgb(0, 255, 0)" stroke-width="2.53" stroke-opacity="1.00" stroke-linejoin="round"/>
<path d="M235.25,302.65 C235.25,302.65 232.95,303.12 232.95,303.12 C232.95,304.41 229.76,307.62 228.11,308.87 C227.12,309.60 219.24,314.40 218.53,314.87 C218.12,315.14 217.37,315.65 216.30,316.39" fill="none" stroke="rgb(0, 255, 0)" stroke-width="2.53" stroke-opacity="1.00" stroke-linejoin="round"/>
<path d="M214.40,332.98 C213.69,333.53 212.98,334.08 212.27,334.64 C212.19,334.70 211.96,334.88 212.03,334.81 C212.93,334.10 213.55,333.75 213.89,333.78 C214.79,333.86 216.85,335.85 218.72,336.55 C223.47,338.36 228.14,339.45 232.25,339.30 C238.28,339.05 254.19,336.08 257.67,334.75 C261.18,333.44 268.29,330.80 270.64,329.17 C270.96,328.94 271.33,328.63 271.74,328.24" fill="none" stroke="rgb(0, 255, 0)" stroke-width="2.53" stroke-opacity="1.00" stroke-linejoin="round"/>
<path d="M258.00,321.13 C257.76,321.49 257.52,321.85 257.29,322.21 C257.19,322.35 257.12,322.47 257.05,322.55 C256.47,321.35 252.74,320.53 250.14,320.79 C249.86,320.83 249.54,320.89 249.20,320.99 C249.20,320.99 248.99,322.08 248.99,322.08" fill="none" stroke="rgb(0, 255, 0)" stroke-width="2.53" stroke-opacity="1.00" stroke-linejoin="round"/>
<path d="M256.58,320.66 C256.51,320.74 256.43,320.82 256.34,320.89 C256.25,320.96 256.03,321.12 255.68,321.37 C255.71,321.73 263.78,323.78 264.09,323.92 C264.32,324.03 264.66,324.20 265.11,324.45" fill="none" stroke="rgb(0, 255, 0)" stroke-width="2.53" stroke-opacity="1.00" stroke-linejoin="round"/>
<path d="M255.16,323.50 C255.16,323.50 254.92,323.50 254.92,323.50 C254.92,323.50 254.68,323.26 254.68,323.26 C254.68,323.26 254.68,323.03 254.68,323.03 C254.68,323.03 256.00,331.92 256.00,331.92 C256.00,331.92 255.42,323.66 255.42,323.66 C253.24,325.19 254.63,330.81 255.07,331.66 C256.37,331.52 257.12,330.89 257.31,329.44 C257.61,327.10 257.33,323.73 256.51,323.06 C254.17,325.02 255.74,329.60 256.11,330.18 C257.64,329.24 257.19,325.68 256.95,325.18 C256.95,325.18 255.16,326.82 255.16,326.82" fill="none" stroke="rgb(0, 255, 0)" stroke-width="2.53" stroke-opacity="1.00" stroke-linejoin="round"/>
<path d="M234.78,319.71 C234.78,319.71 234.78,321.13 234.78,321.13 C234.78,321.13 235.22,319.04 235.22,319.04 C232.93,318.41 231.60,318.24 230.38,318.55 C226.17,319.63 218.96,322.87 218.66,323.06 C218.50,323.16 218.34,323.30 218.19,323.50" fill="none" stroke="rgb(0, 255, 0)" stroke-width="2.53" stroke-opacity="1.00" stroke-linejoin="round"/>
<path d="M230.04,320.66 C229.43,320.63 229.03,320.63 228.86,320.66 C228.68,320.68 228.46,320.76 228.21,320.89 C228.21,320.89 227.96,331.13 227.96,331.13 C228.96,330.92 229.54,330.26 229.86,328.64 C230.45,325.61 230.23,321.59 229.33,320.75 C228.20,321.18 226.72,325.57 226.99,328.03 C227.13,329.21 227.64,330.24 228.27,330.96 C229.94,329.78 230.69,328.65 230.68,326.93 C230.66,323.97 229.93,322.56 229.37,322.09 C228.25,322.78 227.76,327.59 228.58,329.81 C230.08,328.70 230.83,327.25 230.75,325.13 C230.69,323.49 230.17,322.41 229.42,321.82 C228.90,322.28 228.31,323.58 227.53,326.15 C227.31,326.87 226.53,329.63 226.25,330.61" fill="none" stroke="rgb(0, 255, 0)" stroke-width="2.53" stroke-opacity="1.00" stroke-linejoin="round"/>
<path d="M240.94,332.50 C240.01,333.15 239.46,333.55 239.28,333.69 C239.10,333.83 239.04,333.91 239.10,333.93 C240.82,334.01 245.58,332.81 247.19,331.70 C247.48,331.49 247.76,331.29 248.05,331.08" fill="none" stroke="rgb(0, 255, 0)" stroke-width="2.53" stroke-opacity="1.00" stroke-linejoin="round"/>
<path d="M229.09,322.55 C229.09,322.55 227.91,322.32 227.91,322.32 C227.91,322.32 227.67,320.22 227.67,320.22 C227.67,320.22 228.40,329.97 228.40,329.97 C228.40,329.97 228.58,323.59 228.58,323.59 C227.47,323.91 226.87,324.75 226.68,326.58 C226.41,329.45 227.00,330.94 227.42,331.36 C229.96,330.41 228.27,323.90 227.99,323.57 C227.84,324.02 227.75,324.36 227.72,324.59 C227.69,324.81 227.67,325.24 227.67,325.87" fill="none" stroke="rgb(0, 255, 0)" stroke-width="2.53" stroke-opacity="1.00" stroke-linejoin="round"/>
<path d="M237.62,341.98 C237.62,341.98 236.67,340.61 236.67,340.61 C236.67,341.94 236.67,344.74 236.67,346.20 C236.67,346.69 236.67,347.18 236.67,347.67" fill="none" stroke="rgb(0, 255, 0)" stroke-width="2.53" stroke-opacity="1.00" stroke-linejoin="round"/>
<path d="M245.20,338.19 C244.95,338.45 244.71,338.69 244.49,338.90 C244.27,339.11 243.76,339.58 242.95,340.32 C242.87,341.41 243.74,345.32 243.71,345.46 C243.69,345.58 243.58,345.84 243.38,346.23" fill="none" stroke="rgb(0, 255, 0)" stroke-width="2.53" stroke-opacity="1.00" stroke-linejoin="round"/>
<path d="M243.31,346.25 C242.39,346.78 241.84,347.10 241.65,347.19 C241.46,347.29 241.38,347.29 241.41,347.19 C238.44,347.18 235.99,347.23 234.89,347.56 C234.44,347.69 230.40,349.10 227.67,349.69 C221.48,351.02 207.96,350.99 206.01,350.83 C203.33,350.60 200.34,349.43 197.24,347.04 C196.28,346.29 195.28,345.93 194.54,345.90 C193.71,346.86 192.78,348.89 192.34,350.95 C192.15,351.83 192.52,353.57 192.87,354.20 C193.82,355.67 198.91,357.71 203.24,358.44 C222.34,361.54 232.49,358.48 232.84,358.22 C232.84,358.22 232.88,358.09 232.88,358.09" fill="none" stroke="rgb(0, 255, 0)" stroke-width="2.53" stroke-opacity="1.00" stroke-linejoin="round"/>
<path d="M232.88,361.41 C232.55,361.02 232.31,360.78 232.17,360.70 C232.03,360.62 231.80,360.58 231.46,360.59 C233.84,371.97 233.29,385.87 232.88,389.88 C232.88,389.88 253.76,390.85 253.76,390.85 C254.49,390.93 254.51,382.39 254.44,379.91 C253.97,364.18 253.90,363.08 253.73,361.65 C259.00,374.17 261.37,387.70 261.47,388.21 C268.36,388.85 271.33,387.39 271.71,386.60 C270.74,384.27 263.74,370.67 261.11,366.84 C254.36,357.11 249.74,351.39 245.26,347.81 C244.76,347.42 244.25,347.04 243.77,346.63 C243.57,346.47 243.26,346.18 242.83,345.77" fill="none" stroke="rgb(0, 255, 0)" stroke-width="2.53" stroke-opacity="1.00" stroke-linejoin="round"/>
<path d="M263.68,390.79 C263.68,390.79 262.26,390.32 262.26,390.32 C261.69,391.50 262.07,395.99 263.49,398.97 C264.82,401.61 266.09,402.38 267.17,402.63 C268.97,402.13 271.48,399.10 272.08,397.08 C272.30,396.22 272.43,394.04 272.21,393.03 C271.71,390.93 270.78,388.71 269.90,387.46 C269.60,387.05 269.26,386.57 268.90,386.05" fill="none" stroke="rgb(0, 255, 0)" stroke-width="2.53" stroke-opacity="1.00" stroke-linejoin="round"/>
<path d="M235.73,394.11 C235.73,394.11 234.64,393.97 234.64,393.97 C234.64,393.97 234.76,389.20 234.76,389.20 C233.45,396.04 230.45,412.98 230.85,416.69 C231.18,419.35 231.93,420.69 232.52,421.10 C235.35,420.92 241.34,419.59 241.85,419.06 C242.99,417.84 243.29,412.51 243.32,409.13 C243.37,402.55 243.48,397.91 243.62,396.07 C243.62,396.07 248.63,420.11 248.63,420.11 C248.63,420.11 258.97,417.46 258.97,417.46 C258.97,417.46 252.63,387.38 252.63,387.38 C252.61,388.02 252.61,388.53 252.62,388.92 C252.64,389.30 252.69,390.08 252.79,391.26" fill="none" stroke="rgb(0, 255, 0)" stroke-width="2.53" stroke-opacity="1.00" stroke-linejoin="round"/>
<path d="M250.42,421.59 C250.18,421.59 249.94,421.59 249.71,421.59 C249.63,421.59 249.55,421.59 249.47,421.59 C249.47,421.59 253.26,450.80 253.26,450.80 C253.26,450.80 253.26,449.55 253.26,449.55" fill="none" stroke="rgb(0, 255, 0)" stroke-width="2.53" stroke-opacity="1.00" stroke-linejoin="round"/>
<path d="M255.63,419.22 C255.63,419.22 254.68,419.22 254.68,419.22 C254.68,419.22 257.95,452.84 257.95,452.84 C257.95,452.84 257.52,450.50 257.52,450.50" fill="none" stroke="rgb(0, 255, 0)" stroke-width="2.53" stroke-opacity="1.00" stroke-linejoin="round"/>
<path d="M257.52,456.66 C257.05,456.17 256.76,455.80 256.66,455.53 C256.55,455.27 256.49,454.75 256.46,453.98 C255.87,453.60 254.80,453.32 253.98,453.60 C251.12,454.64 249.55,457.81 249.33,459.31 C249.33,459.31 250.67,460.63 250.67,460.63 C252.62,460.65 254.91,460.08 256.36,458.95 C258.56,457.22 258.94,454.87 258.98,454.50 C258.08,453.59 257.43,452.99 257.06,452.69 C256.68,452.39 256.05,451.98 255.16,451.45" fill="none" stroke="rgb(0, 255, 0)" stroke-width="2.53" stroke-opacity="1.00" stroke-linejoin="round"/>
<path d="M236.67,418.27 C236.67,418.27 235.96,418.27 235.96,418.27 C235.96,418.27 235.81,448.91 235.81,448.91 C235.81,448.91 237.00,444.42 237.00,444.42" fill="none" stroke="rgb(0, 255, 0)" stroke-width="2.53" stroke-opacity="1.00" stroke-linejoin="round"/>
<path d="M239.04,418.27 C239.04,418.27 238.33,418.27 238.33,418.27 C238.00,418.20 238.11,421.63 238.39,426.92 C238.97,437.88 239.06,443.42 239.03,450.91 C237.93,450.32 235.02,451.61 233.24,453.44 C232.16,454.56 231.33,455.85 230.03,458.26 C231.35,459.15 232.35,459.47 233.84,459.31 C237.07,458.92 241.21,457.24 241.77,455.75 C242.21,454.32 240.35,450.84 239.13,448.95 C238.85,448.52 238.35,447.78 237.62,446.71" fill="none" stroke="rgb(0, 255, 0)" stroke-width="2.53" stroke-opacity="1.00" stroke-linejoin="round"/>
</g>
</svg>
