<?xml version="1.0" encoding="UTF-8" standalone="no"?>
<!DOCTYPE svg PUBLIC "-//W3C//DTD SVG 1.1//EN" "http://www.w3.org/Graphics/SVG/1.1/DTD/svg11.dtd">
<svg width="128.40" height="181.68" viewBox="0.00 0.00 535.00 757.00" xmlns="http://www.w3.org/2000/svg" xmlns:xlink="http://www.w3.org/1999/xlink">
<g stroke-linecap="round" id="162">
<path d="M187.67,195.22 C187.67,195.22 185.17,195.00 185.17,195.00 C185.17,195.00 184.70,194.21 184.70,194.21 C185.72,192.31 208.69,170.47 210.70,168.06 C211.08,167.60 211.89,166.58 213.14,165.00" fill="none" stroke="rgb(28, 31, 136)" stroke-width="2.10" stroke-opacity="1.00" stroke-linejoin="round"/>
<path d="M218.20,219.11 C217.99,218.18 219.48,214.94 222.25,211.59 C233.20,199.02 249.93,181.66 258.77,170.11 C261.42,166.64 268.04,156.55 269.33,154.16 C269.33,154.16 268.31,155.53 268.31,155.53" fill="none" stroke="rgb(28, 31, 136)" stroke-width="2.10" stroke-opacity="1.00" stroke-linejoin="round"/>
<path d="M300.04,211.59 C300.04,211.59 297.16,212.40 297.16,212.40 C297.78,210.80 305.56,201.89 311.08,196.37 C316.61,190.97 325.04,182.72 327.19,180.12 C327.95,179.21 328.82,177.76 329.78,176.10" fill="none" stroke="rgb(28, 31, 136)" stroke-width="2.10" stroke-opacity="1.00" stroke-linejoin="round"/>
<path d="M344.27,214.69 C344.27,214.69 341.29,216.90 341.29,216.90 C341.04,216.50 342.17,212.75 343.79,210.01 C345.90,206.49 358.98,187.24 361.17,184.41 C361.76,183.65 363.36,181.80 364.11,180.95" fill="none" stroke="rgb(28, 31, 136)" stroke-width="2.10" stroke-opacity="1.00" stroke-linejoin="round"/>
<path d="M380.99,207.17 C380.99,207.17 380.55,207.61 380.55,207.61 C380.82,207.43 381.29,207.06 382.20,206.26 C392.92,196.89 407.40,184.34 410.16,182.38 C410.72,181.98 411.27,181.59 411.82,181.19" fill="none" stroke="rgb(28, 31, 136)" stroke-width="2.10" stroke-opacity="1.00" stroke-linejoin="round"/>
<path d="M423.46,208.94 C423.46,208.94 421.47,208.94 421.47,208.94 C421.47,208.94 421.31,208.65 421.31,208.65 C421.69,208.20 425.74,204.58 427.98,202.12 C432.92,196.65 440.54,184.39 441.10,181.63 C441.16,181.31 441.20,180.71 441.23,179.83" fill="none" stroke="rgb(28, 31, 136)" stroke-width="2.10" stroke-opacity="1.00" stroke-linejoin="round"/>
<path d="M425.67,232.82 C425.67,232.82 424.57,232.82 424.57,232.82 C424.57,232.82 424.40,232.03 424.40,232.03 C425.01,231.08 429.86,225.32 432.00,222.25 C436.35,215.76 451.16,193.70 452.92,191.61 C452.92,191.61 452.54,191.74 452.54,191.74" fill="none" stroke="rgb(28, 31, 136)" stroke-width="2.10" stroke-opacity="1.00" stroke-linejoin="round"/>
<path d="M415.06,300.95 C414.40,300.96 412.21,301.01 411.82,301.46 C409.19,304.53 396.59,318.54 391.54,324.19 C386.19,330.07 374.87,345.28 372.43,348.03 C371.18,349.45 365.89,354.90 364.01,356.81" fill="none" stroke="rgb(28, 31, 136)" stroke-width="2.10" stroke-opacity="1.00" stroke-linejoin="round"/>
<path d="M381.88,373.06 C380.54,373.94 379.53,374.99 378.71,376.49 C376.46,380.52 365.06,394.85 363.28,397.28 C359.14,403.06 350.58,415.58 346.30,421.94 C345.10,423.81 336.74,437.60 336.44,437.84 C336.13,438.08 335.51,438.26 334.57,438.38" fill="none" stroke="rgb(28, 31, 136)" stroke-width="2.10" stroke-opacity="1.00" stroke-linejoin="round"/>
<path d="M334.10,372.62 C332.42,373.40 331.27,374.34 330.19,375.88 C324.62,383.95 309.67,400.28 298.98,413.01 C298.98,413.01 299.95,411.65 299.95,411.65" fill="none" stroke="rgb(28, 31, 136)" stroke-width="2.10" stroke-opacity="1.00" stroke-linejoin="round"/>
<path d="M305.79,372.62 C305.02,373.47 304.52,374.01 304.29,374.22 C303.62,374.82 298.21,377.35 295.69,379.14 C293.27,380.89 276.56,394.57 275.84,395.18 C272.56,398.00 265.43,409.03 261.72,414.85 C260.15,417.30 256.87,421.03 254.63,423.35 C253.91,424.09 252.02,425.96 251.38,426.59" fill="none" stroke="rgb(28, 31, 136)" stroke-width="2.10" stroke-opacity="1.00" stroke-linejoin="round"/>
<path d="M264.65,363.77 C264.28,363.73 262.71,363.94 262.09,364.24 C259.42,365.57 229.97,396.01 229.82,396.20 C229.82,396.20 231.03,395.62 231.03,395.62" fill="none" stroke="rgb(28, 31, 136)" stroke-width="2.10" stroke-opacity="1.00" stroke-linejoin="round"/>
<path d="M200.06,417.30 C199.56,417.28 199.02,417.32 198.95,417.30 C198.86,417.25 198.63,417.11 198.27,416.85 C197.31,417.09 196.73,417.35 196.11,417.88 C195.77,418.18 195.43,418.47 195.09,418.77" fill="none" stroke="rgb(28, 31, 136)" stroke-width="2.10" stroke-opacity="1.00" stroke-linejoin="round"/>
<path d="M247.39,355.36 C247.02,355.28 246.54,355.79 245.46,357.47 C237.35,369.98 224.71,383.76 223.00,385.21 C222.68,385.47 221.98,386.04 220.88,386.90" fill="none" stroke="rgb(28, 31, 136)" stroke-width="2.10" stroke-opacity="1.00" stroke-linejoin="round"/>
<path d="M227.93,339.88 C227.93,339.88 227.93,337.89 227.93,337.89 C227.28,337.89 226.73,338.26 225.22,339.81 C207.39,357.79 197.16,369.21 186.99,382.48 C179.08,392.96 174.63,399.46 173.74,400.65 C173.74,400.65 173.12,400.32 173.12,400.32" fill="none" stroke="rgb(28, 31, 136)" stroke-width="2.10" stroke-opacity="1.00" stroke-linejoin="round"/>
<path d="M181.48,325.72 C179.52,328.20 177.77,330.86 176.12,333.71 C171.74,341.30 165.89,349.13 158.88,357.63 C150.82,367.06 145.12,373.25 139.53,378.37 C139.53,378.37 139.58,378.27 139.58,378.27" fill="none" stroke="rgb(28, 31, 136)" stroke-width="2.10" stroke-opacity="1.00" stroke-linejoin="round"/>
<path d="M197.41,304.49 C197.41,304.49 197.41,304.93 197.41,304.93 C197.66,304.30 200.16,302.17 204.12,299.08 C212.91,292.18 234.61,269.51 236.79,267.65 C236.79,267.65 237.33,267.91 237.33,267.91" fill="none" stroke="rgb(28, 31, 136)" stroke-width="2.10" stroke-opacity="1.00" stroke-linejoin="round"/>
<path d="M148.74,283.26 C148.74,283.26 148.08,283.03 148.08,283.03 C147.88,281.35 148.24,280.14 149.70,278.38 C158.27,268.19 179.11,247.76 179.58,247.31 C179.87,247.05 180.40,246.57 181.18,245.87" fill="none" stroke="rgb(28, 31, 136)" stroke-width="2.10" stroke-opacity="1.00" stroke-linejoin="round"/>
<path d="M239.87,324.84 C239.87,324.81 246.82,317.79 256.19,307.86 C263.68,299.79 269.50,291.52 273.47,284.90 C276.03,280.59 281.10,270.17 281.53,269.43 C281.83,268.93 282.53,267.81 283.64,266.07" fill="none" stroke="rgb(28, 31, 136)" stroke-width="2.10" stroke-opacity="1.00" stroke-linejoin="round"/>
<path d="M349.14,291.22 C348.34,292.04 346.15,294.29 345.55,294.98 C341.29,300.20 330.49,312.03 327.65,315.90 C324.02,321.02 316.74,331.64 313.15,336.85 C311.05,339.81 307.04,345.42 305.12,348.07" fill="none" stroke="rgb(28, 31, 136)" stroke-width="2.10" stroke-opacity="1.00" stroke-linejoin="round"/>
<path d="M181.04,426.14 C180.32,426.41 179.60,426.67 178.89,426.93 C176.81,427.70 175.76,428.38 174.74,429.58 C171.23,433.89 165.97,444.65 162.71,451.77 C158.61,461.07 155.64,469.65 154.73,472.31" fill="none" stroke="rgb(28, 31, 136)" stroke-width="2.10" stroke-opacity="1.00" stroke-linejoin="round"/>
<path d="M196.08,453.13 C194.64,453.10 193.82,453.18 193.35,453.50 C192.12,454.40 191.07,457.15 189.12,463.69 C185.95,474.21 182.71,482.21 179.35,489.39" fill="none" stroke="rgb(28, 31, 136)" stroke-width="2.10" stroke-opacity="1.00" stroke-linejoin="round"/>
<path d="M142.99,415.53 C142.99,415.53 143.44,414.70 143.44,414.70 C142.83,417.87 140.88,422.68 139.80,424.60 C137.24,429.06 127.26,440.64 122.33,446.26 C119.19,449.96 108.23,464.65 106.97,465.82 C106.97,465.82 105.60,465.38 105.60,465.38" fill="none" stroke="rgb(28, 31, 136)" stroke-width="2.10" stroke-opacity="1.00" stroke-linejoin="round"/>
<path d="M223.95,463.75 C223.56,466.62 222.69,472.76 221.99,476.21 C220.84,481.82 218.58,489.16 218.15,490.13 C217.92,490.65 217.37,491.77 216.49,493.51" fill="none" stroke="rgb(28, 31, 136)" stroke-width="2.10" stroke-opacity="1.00" stroke-linejoin="round"/>
<path d="M265.09,458.44 C264.16,458.92 262.94,459.73 262.60,460.32 C261.69,461.91 261.39,481.92 261.19,485.57 C260.67,493.22 259.92,503.88 259.69,506.90 C259.59,508.23 259.43,510.28 259.38,511.01" fill="none" stroke="rgb(28, 31, 136)" stroke-width="2.10" stroke-opacity="1.00" stroke-linejoin="round"/>
<path d="M319.94,472.15 C318.71,473.39 318.06,476.97 317.44,479.74 C316.87,482.26 315.34,486.96 313.90,489.82 C313.28,491.03 310.19,496.44 309.63,497.43" fill="none" stroke="rgb(28, 31, 136)" stroke-width="2.10" stroke-opacity="1.00" stroke-linejoin="round"/>
<path d="M382.32,470.82 C382.32,470.82 382.32,470.60 382.32,470.60 C382.32,470.60 381.42,469.94 381.42,469.94 C380.06,470.07 378.64,472.37 376.04,477.06 C372.66,483.11 364.98,495.99 361.12,502.30 C357.85,507.44 350.99,516.91 345.09,524.17 C345.09,524.17 345.38,523.77 345.38,523.77" fill="none" stroke="rgb(28, 31, 136)" stroke-width="2.10" stroke-opacity="1.00" stroke-linejoin="round"/>
<path d="M360.20,449.15 C360.20,449.15 359.98,450.25 359.98,450.25 C359.98,450.25 358.86,450.25 358.86,450.25 C355.12,446.39 353.78,444.82 353.40,443.93 C353.29,443.66 352.96,442.79 352.41,441.31" fill="none" stroke="rgb(28, 31, 136)" stroke-width="2.10" stroke-opacity="1.00" stroke-linejoin="round"/>
<path d="M292.20,329.08 C292.20,329.08 291.10,329.63 291.10,329.63 C291.10,329.62 291.50,332.14 290.56,333.85 C290.27,334.38 287.12,337.34 286.92,338.94 C287.56,340.33 288.94,340.91 289.64,340.68 C291.60,339.99 294.70,336.78 295.10,336.76 C295.75,336.74 300.50,336.62 301.23,335.56 C301.55,335.02 301.78,333.62 301.67,332.88 C301.61,332.53 300.26,329.82 299.45,328.18" fill="none" stroke="rgb(255, 0, 255)" stroke-width="2.10" stroke-opacity="1.00" stroke-linejoin="round"/>
<path d="M285.06,332.10 C285.06,332.10 285.06,332.24 285.06,332.24 C285.06,332.24 284.92,332.37 284.92,332.37 C284.92,332.37 284.78,332.29 284.78,332.29 C285.40,330.62 287.10,324.82 286.52,322.35 C286.28,321.47 285.10,319.86 284.40,319.45 C284.01,319.23 280.21,317.66 279.54,317.53 C277.37,317.15 272.86,318.80 272.70,319.01 C272.56,319.21 272.19,319.83 271.59,320.86" fill="none" stroke="rgb(255, 0, 255)" stroke-width="2.10" stroke-opacity="1.00" stroke-linejoin="round"/>
<path d="M277.37,312.88 C276.98,312.88 276.60,312.88 276.21,312.88 C275.40,312.92 274.24,314.46 272.56,317.19 C271.43,319.08 269.84,324.81 270.01,328.07 C270.10,329.51 271.64,331.61 273.21,332.37 C274.96,333.17 279.21,333.74 282.06,332.99 C283.35,332.62 284.62,331.66 286.06,330.52" fill="none" stroke="rgb(255, 0, 255)" stroke-width="2.10" stroke-opacity="1.00" stroke-linejoin="round"/>
<path d="M279.29,325.51 C279.29,325.51 277.98,329.08 277.98,329.08 C278.85,329.42 279.31,329.40 279.71,328.91 C281.31,326.88 280.71,325.16 280.44,325.02 C280.31,324.96 279.98,324.86 279.45,324.72" fill="none" stroke="rgb(255, 0, 255)" stroke-width="2.10" stroke-opacity="1.00" stroke-linejoin="round"/>
<path d="M307.57,323.04 C307.57,323.04 306.79,323.22 306.79,323.22 C309.55,320.83 311.98,319.06 314.10,318.87 C316.09,318.74 320.55,320.58 321.59,321.47 C322.51,322.29 322.87,325.08 321.78,327.54 C320.90,329.47 317.01,332.70 315.31,332.99 C313.51,333.26 309.94,331.67 308.73,330.78 C308.73,330.78 308.14,329.02 308.14,329.02" fill="none" stroke="rgb(255, 0, 255)" stroke-width="2.10" stroke-opacity="1.00" stroke-linejoin="round"/>
<path d="M313.88,325.51 C313.88,325.51 312.65,325.92 312.65,325.92 C312.65,325.92 313.53,330.34 313.53,330.34 C313.53,330.34 313.40,326.28 313.40,326.28 C313.40,326.28 312.87,326.44 312.87,326.44" fill="none" stroke="rgb(255, 0, 255)" stroke-width="2.10" stroke-opacity="1.00" stroke-linejoin="round"/>
<path d="M307.29,316.45 C307.29,316.45 307.84,314.53 307.84,314.53 C307.84,314.99 307.52,316.61 307.09,318.29 C307.01,318.63 306.92,318.93 306.82,319.20" fill="none" stroke="rgb(255, 0, 255)" stroke-width="2.10" stroke-opacity="1.00" stroke-linejoin="round"/>
<path d="M304.00,343.35 C304.00,343.35 303.31,343.68 303.31,343.68 C303.31,343.68 303.18,343.90 303.18,343.90 C303.20,343.91 298.52,342.30 296.32,342.27 C294.38,342.26 287.97,343.28 284.68,343.75 C281.14,344.45 280.01,348.14 280.36,348.59 C280.76,348.76 287.89,346.97 288.58,346.82 C292.30,346.01 299.50,346.41 300.30,346.39 C300.74,346.38 301.59,346.30 302.84,346.16 C302.84,346.16 302.26,344.55 302.26,344.55 C302.52,345.49 302.43,347.41 300.67,348.72 C298.57,350.23 292.72,351.24 290.15,350.83 C287.85,350.45 286.68,350.25 286.63,350.25 C286.13,350.22 285.42,350.27 284.51,350.43" fill="none" stroke="rgb(255, 0, 255)" stroke-width="2.10" stroke-opacity="1.00" stroke-linejoin="round"/>
<path d="M263.37,312.06 C263.06,312.01 262.83,312.01 262.68,312.06 C261.45,312.51 257.65,317.62 256.69,319.66 C255.69,321.86 255.42,324.81 256.39,328.13 C256.88,329.82 257.70,333.42 257.72,334.63 C257.74,335.48 257.25,343.27 257.52,344.33 C257.81,345.33 261.69,349.66 263.35,351.06 C266.21,353.42 270.92,356.02 274.91,357.00 C278.53,357.85 293.74,358.63 299.00,357.69 C300.47,357.42 307.45,355.46 309.30,354.40 C312.27,352.66 326.88,338.71 328.58,336.78 C331.71,333.16 334.60,328.32 335.03,325.52 C335.23,324.05 334.29,315.56 333.33,313.64 C333.05,313.09 331.05,309.92 329.38,309.22 C329.38,309.22 324.97,310.92 324.97,310.92 C324.97,310.92 320.83,306.84 320.83,306.84 C320.83,306.84 317.05,309.90 317.05,309.90 C317.05,309.90 313.89,306.71 313.89,306.71 C312.94,306.78 309.72,309.58 308.90,309.98 C308.11,310.35 305.53,308.49 305.00,308.41 C303.68,308.24 299.80,310.80 299.20,311.14 C299.02,311.24 298.83,311.27 298.64,311.22 C298.44,311.04 296.82,308.92 295.38,309.13 C294.16,309.37 289.10,313.41 288.86,313.31 C288.71,313.09 288.01,311.06 287.17,310.98 C286.60,310.96 282.81,313.53 282.49,313.54 C282.49,313.54 282.79,308.32 282.79,308.32 C282.13,307.58 280.63,307.66 278.53,309.53 C277.99,310.01 273.45,314.24 273.13,314.40 C273.13,314.40 272.83,312.64 272.83,312.64 C272.83,312.64 268.10,315.85 268.10,315.85 C267.79,315.65 266.86,312.52 266.44,312.20 C265.67,311.72 262.73,313.74 262.22,314.06 C262.22,314.06 260.01,313.71 260.01,313.71" fill="none" stroke="rgb(255, 0, 255)" stroke-width="2.10" stroke-opacity="1.00" stroke-linejoin="round"/>
<path d="M292.20,290.10 C292.20,290.10 293.43,288.73 293.43,288.73 C293.45,289.17 290.61,291.93 288.34,293.23 C285.02,295.14 282.09,297.82 281.56,298.56 C281.43,298.75 281.39,298.93 281.43,299.11" fill="none" stroke="rgb(255, 0, 255)" stroke-width="2.10" stroke-opacity="1.00" stroke-linejoin="round"/>
<path d="M289.73,291.20 C289.73,291.20 288.64,291.47 288.64,291.47 C288.51,291.38 287.33,289.06 286.27,288.49 C285.09,287.89 282.43,287.68 280.61,288.30 C279.29,288.78 275.43,291.55 270.88,294.98 C266.47,298.29 261.58,305.95 260.89,307.41 C260.35,308.55 258.29,314.48 257.82,315.82" fill="none" stroke="rgb(255, 0, 255)" stroke-width="2.10" stroke-opacity="1.00" stroke-linejoin="round"/>
<path d="M293.57,288.18 C293.57,288.18 292.12,288.32 292.12,288.32 C292.47,289.18 295.41,289.26 297.61,288.67 C301.24,287.72 306.03,287.71 310.42,289.06 C312.15,289.61 318.62,293.22 321.69,294.27 C324.83,295.36 327.29,297.86 329.56,301.53 C330.41,302.94 333.21,307.38 333.32,307.58 C334.01,308.76 334.53,309.93 334.72,310.82 C334.82,311.27 335.01,312.14 335.29,313.43" fill="none" stroke="rgb(255, 0, 255)" stroke-width="2.10" stroke-opacity="1.00" stroke-linejoin="round"/>
<path d="M274.90,359.55 C274.90,361.18 274.90,364.81 274.90,366.80 C274.90,369.09 274.90,372.45 274.90,373.52" fill="none" stroke="rgb(255, 0, 255)" stroke-width="2.10" stroke-opacity="1.00" stroke-linejoin="round"/>
<path d="M308.39,354.61 C308.39,354.61 306.47,354.09 306.47,354.09 C306.39,363.74 305.79,374.10 305.73,374.46 C305.69,374.73 305.58,375.23 305.40,375.96" fill="none" stroke="rgb(255, 0, 255)" stroke-width="2.10" stroke-opacity="1.00" stroke-linejoin="round"/>
<path d="M307.29,373.00 C307.09,372.98 306.86,373.03 306.74,373.14 C306.70,373.18 306.55,373.30 306.26,373.33 C305.90,373.74 304.35,378.34 303.86,380.53 C303.40,382.71 303.62,388.86 304.27,391.55 C304.43,392.18 310.03,413.76 311.97,421.30 C313.50,428.08 313.69,446.56 313.94,448.55 C314.10,449.76 314.48,451.54 314.71,451.93 C315.34,452.88 319.27,452.60 321.06,451.17 C321.85,450.53 322.56,449.07 323.23,447.16 C324.09,448.69 325.62,450.64 326.90,451.09 C327.61,451.30 328.95,451.01 329.55,450.43 C331.92,448.04 331.93,440.84 331.24,440.26 C330.90,441.12 330.92,441.70 331.47,442.23 C332.49,443.19 333.78,443.32 334.32,442.83 C334.82,442.33 334.96,440.49 334.94,439.60 C334.94,439.60 340.08,438.83 340.08,438.83 C340.08,438.83 340.84,437.80 340.84,437.80 C340.84,437.80 339.98,436.02 339.98,436.02 C340.18,435.96 342.91,435.26 343.90,433.80 C344.84,432.35 344.20,429.73 343.34,427.99 C342.95,427.26 340.62,426.67 338.51,427.55 C338.17,427.69 335.70,428.93 335.53,428.86 C335.37,428.37 333.97,423.05 333.18,421.43 C332.16,419.37 324.20,407.57 322.49,402.91 C319.31,394.00 312.42,382.04 310.34,377.83 C308.92,374.94 307.63,373.02 307.08,372.74 C306.80,372.60 306.05,372.32 304.82,371.90" fill="none" stroke="rgb(255, 0, 255)" stroke-width="2.10" stroke-opacity="1.00" stroke-linejoin="round"/>
<path d="M306.74,376.29 C306.74,376.29 305.10,376.06 305.10,376.06 C305.10,376.06 305.65,376.16 305.65,376.16 C306.97,377.48 307.60,387.19 307.83,392.07 C308.42,404.80 309.21,435.52 309.02,440.38 C309.02,440.38 308.94,440.25 308.94,440.25" fill="none" stroke="rgb(255, 0, 255)" stroke-width="2.10" stroke-opacity="1.00" stroke-linejoin="round"/>
<path d="M306.20,439.98 C306.20,439.98 305.87,440.25 305.87,440.25 C305.30,440.22 304.07,440.45 303.29,440.91 C302.56,441.33 296.04,444.92 295.01,445.32 C294.34,445.58 284.91,447.13 284.24,447.21 C280.29,447.68 278.31,446.68 277.83,446.43 C277.72,446.26 278.81,441.01 279.07,438.10 C279.60,432.15 278.44,418.52 278.21,413.13 C278.04,408.97 275.12,375.45 275.12,372.98 C275.12,372.28 275.33,371.87 275.69,371.30 C276.71,371.08 279.37,375.55 280.26,378.00 C281.51,381.52 282.82,387.13 283.39,391.08 C283.89,394.80 283.00,397.71 280.82,401.12 C278.96,404.01 274.83,411.52 273.63,413.18 C271.12,416.62 257.96,427.20 253.66,430.97 C246.78,437.22 238.63,443.70 235.06,444.42 C234.80,444.47 234.57,444.44 234.35,444.32 C234.35,444.32 232.99,440.58 232.99,440.58 C232.99,440.58 229.78,442.68 229.78,442.68 C229.78,442.68 229.18,439.43 229.18,439.43 C226.99,440.49 223.58,441.06 222.64,439.98 C222.24,438.51 224.03,435.90 226.24,434.17 C226.24,434.17 221.57,435.56 221.57,435.56 C221.57,435.56 220.55,434.42 220.55,434.42 C220.55,434.42 221.10,430.50 221.10,430.50 C220.28,430.60 218.80,429.72 218.74,428.15 C218.75,427.18 219.49,425.36 220.28,424.61 C221.47,423.53 227.38,421.51 228.47,420.48 C229.07,419.90 232.96,414.46 236.71,410.58 C246.99,400.42 272.71,374.70 273.26,374.06 C273.62,373.65 274.45,372.65 275.73,371.08" fill="none" stroke="rgb(255, 0, 255)" stroke-width="2.10" stroke-opacity="1.00" stroke-linejoin="round"/>
<path d="M290.27,437.23 C290.27,437.23 290.00,437.86 290.00,437.86 C290.10,438.14 291.96,439.11 293.37,439.83 C295.32,441.01 298.44,446.33 299.43,450.46 C299.67,451.48 301.00,458.75 301.04,459.44 C301.06,459.75 301.05,460.31 301.01,461.11" fill="none" stroke="rgb(255, 0, 255)" stroke-width="2.10" stroke-opacity="1.00" stroke-linejoin="round"/>
<path d="M301.53,440.25 C301.30,440.83 301.13,442.10 301.31,443.09 C301.48,444.03 303.04,451.27 303.11,453.79 C303.20,458.15 303.54,459.33 305.16,462.63 C306.68,465.73 312.26,485.23 313.32,488.33 C314.07,490.52 319.03,502.39 319.37,502.51 C319.37,502.51 335.58,502.06 335.58,502.06 C336.06,499.81 334.94,493.39 334.09,489.10 C332.15,479.82 329.63,471.70 325.00,462.24 C320.81,453.48 316.73,446.65 311.11,441.02 C310.15,440.06 309.40,439.42 308.88,439.10 C308.26,438.73 305.61,437.78 304.82,437.51" fill="none" stroke="rgb(255, 0, 255)" stroke-width="2.10" stroke-opacity="1.00" stroke-linejoin="round"/>
<path d="M300.71,455.90 C300.66,456.61 300.66,457.17 300.71,457.58 C301.15,461.89 303.85,472.23 304.11,478.29 C304.24,479.43 307.11,493.72 307.12,494.07 C307.15,495.34 305.33,500.50 305.27,501.00 C305.89,501.04 307.28,499.35 309.60,498.22 C312.38,496.89 316.20,496.69 317.19,497.50 C317.75,498.01 318.73,500.73 318.35,502.99 C317.86,505.65 313.80,512.66 311.45,515.27 C309.15,517.73 303.88,520.18 299.86,521.26 C296.69,522.08 290.81,522.41 288.59,521.68 C287.63,521.36 279.43,518.30 278.99,517.79 C277.82,516.28 281.87,510.53 282.11,509.69 C282.33,508.87 279.23,493.81 278.59,483.29 C277.91,471.15 278.42,459.90 278.49,455.50 C278.51,451.86 278.44,448.52 278.90,446.30 C278.97,445.95 279.11,445.48 279.29,444.92" fill="none" stroke="rgb(255, 0, 255)" stroke-width="2.10" stroke-opacity="1.00" stroke-linejoin="round"/>
<path d="M303.73,496.25 C303.73,496.25 303.18,498.17 303.18,498.17 C302.98,498.25 299.63,501.97 297.66,503.24 C296.61,503.91 293.85,505.50 292.79,506.32 C291.84,507.09 290.00,509.34 289.19,510.83 C288.82,511.53 287.88,514.26 287.53,515.19" fill="none" stroke="rgb(255, 0, 255)" stroke-width="2.10" stroke-opacity="1.00" stroke-linejoin="round"/>
<path d="M323.76,500.92 C323.75,501.41 321.74,504.23 321.39,505.44 C320.43,508.80 320.59,513.85 321.46,514.52 C322.16,514.99 338.09,518.24 343.06,518.45 C345.25,518.50 346.53,517.20 348.38,513.69 C350.39,509.80 353.25,503.66 353.85,500.55 C354.40,497.55 353.47,494.88 352.66,494.40 C351.01,493.55 346.19,494.10 343.95,495.68 C343.31,496.13 340.23,498.97 339.05,500.04 C337.88,501.10 336.66,500.96 335.02,500.64" fill="none" stroke="rgb(255, 0, 255)" stroke-width="2.10" stroke-opacity="1.00" stroke-linejoin="round"/>
</g>
</svg>
