<?xml version="1.0" encoding="UTF-8" standalone="no"?>
<!DOCTYPE svg PUBLIC "-//W3C//DTD SVG 1.1//EN" "http://www.w3.org/Graphics/SVG/1.1/DTD/svg11.dtd">
<svg width="128.40" height="181.68" viewBox="0.00 0.00 535.00 757.00" xmlns="http://www.w3.org/2000/svg" xmlns:xlink="http://www.w3.org/1999/xlink">
<g stroke-linecap="round" id="163">
<path d="M224.57,57.05 C222.92,57.01 221.69,58.02 221.27,60.21 C219.77,67.98 220.94,72.03 221.45,72.56 C222.71,72.16 225.08,68.02 225.78,64.94 C226.48,61.57 225.58,58.10 224.78,57.09 C224.50,56.75 223.94,56.33 223.08,55.83" fill="none" stroke="rgb(255, 0, 255)" stroke-width="2.63" stroke-opacity="1.00" stroke-linejoin="round"/>
<path d="M130.28,35.10 C130.28,35.10 130.28,34.60 130.28,34.60 C130.28,34.60 128.15,51.14 128.15,51.14 C129.91,50.98 131.08,50.30 131.97,48.56 C133.56,45.35 134.38,38.59 133.50,36.54 C132.94,35.30 132.35,34.32 131.73,33.62 C131.44,33.31 130.99,33.04 130.38,32.83" fill="none" stroke="rgb(255, 0, 255)" stroke-width="2.63" stroke-opacity="1.00" stroke-linejoin="round"/>
<path d="M42.48,53.06 C42.48,53.06 42.23,51.94 42.23,51.94 C42.23,51.94 41.48,51.11 41.48,51.11 C41.48,51.11 41.67,65.09 41.67,65.09 C42.97,65.33 43.90,65.20 44.60,64.52 C45.92,63.18 46.83,59.10 46.25,56.67 C46.12,56.16 45.05,53.32 44.66,52.93 C44.39,52.66 43.74,52.23 42.69,51.64" fill="none" stroke="rgb(255, 0, 255)" stroke-width="2.63" stroke-opacity="1.00" stroke-linejoin="round"/>
<path d="M77.40,93.47 C77.40,93.47 76.90,93.97 76.90,93.97 C76.90,94.03 76.90,94.10 76.90,94.17 C76.90,94.82 76.86,95.40 76.79,95.91 C76.06,100.51 75.95,104.50 76.82,105.78 C76.82,105.78 78.13,106.16 78.13,106.16 C79.23,105.76 80.21,105.00 80.74,103.88 C81.82,101.51 81.47,97.15 80.83,95.78 C80.57,95.26 79.98,94.51 79.04,93.54" fill="none" stroke="rgb(255, 0, 255)" stroke-width="2.63" stroke-opacity="1.00" stroke-linejoin="round"/>
<path d="M114.82,107.44 C113.67,107.62 112.26,110.91 111.83,114.41 C111.49,117.27 111.30,121.89 111.70,123.10 C113.09,123.21 113.97,122.96 114.73,122.05 C116.07,120.37 117.13,116.63 116.87,114.02 C116.81,113.45 116.16,109.94 115.94,109.16 C115.78,108.62 115.37,107.40 114.73,105.51" fill="none" stroke="rgb(255, 0, 255)" stroke-width="2.63" stroke-opacity="1.00" stroke-linejoin="round"/>
<path d="M80.90,149.34 C80.90,149.34 80.90,149.59 80.90,149.59 C80.20,150.15 79.92,150.44 79.90,151.16 C79.74,158.09 81.99,161.02 82.68,161.54 C84.04,161.67 85.96,159.42 86.38,157.26 C87.07,153.31 83.39,146.93 83.07,146.49 C82.82,146.16 82.29,145.49 81.46,144.51" fill="none" stroke="rgb(255, 0, 255)" stroke-width="2.63" stroke-opacity="1.00" stroke-linejoin="round"/>
<path d="M46.47,126.39 C44.95,127.73 43.24,131.71 43.03,133.96 C42.29,143.32 44.92,146.22 45.80,146.73 C47.60,145.39 48.47,144.25 48.75,142.46 C49.53,137.13 46.98,127.26 46.57,126.31 C46.44,125.99 46.16,125.47 45.76,124.75" fill="none" stroke="rgb(255, 0, 255)" stroke-width="2.63" stroke-opacity="1.00" stroke-linejoin="round"/>
<path d="M54.46,188.75 C54.46,188.75 51.06,186.39 51.06,186.39 C50.72,196.53 51.45,199.23 52.01,200.25 C53.73,200.08 54.63,199.55 55.03,198.15 C55.66,195.85 55.34,190.00 53.84,187.42 C53.59,186.99 53.13,186.55 52.48,186.08" fill="none" stroke="rgb(255, 0, 255)" stroke-width="2.63" stroke-opacity="1.00" stroke-linejoin="round"/>
<path d="M93.37,210.20 C93.37,210.20 94.37,210.20 94.37,210.20 C94.37,210.24 94.35,211.67 94.33,212.82 C94.27,218.26 94.53,219.54 95.25,221.61 C96.90,221.55 97.76,221.22 98.20,220.28 C98.89,218.74 98.74,215.46 96.88,211.31 C96.26,209.96 95.13,207.53 94.63,206.47" fill="none" stroke="rgb(255, 0, 255)" stroke-width="2.63" stroke-opacity="1.00" stroke-linejoin="round"/>
<path d="M67.92,239.14 C67.40,239.68 67.09,240.10 67.00,240.40 C66.85,240.89 67.18,247.91 67.77,249.16 C68.19,250.01 68.95,250.55 69.81,250.80 C71.35,250.33 72.94,247.15 72.82,244.53 C72.73,243.27 71.46,240.07 70.57,238.96 C70.26,238.58 69.74,238.23 69.02,237.91" fill="none" stroke="rgb(255, 0, 255)" stroke-width="2.63" stroke-opacity="1.00" stroke-linejoin="round"/>
<path d="M137.77,226.17 C137.77,226.17 136.66,226.67 136.66,226.67 C136.23,226.94 136.30,234.95 136.33,235.49 C136.41,237.18 136.81,238.43 137.42,239.37 C139.35,238.80 140.41,237.96 140.97,236.18 C142.00,232.82 141.52,226.80 140.31,225.42 C139.95,225.02 138.99,224.27 137.43,223.15" fill="none" stroke="rgb(255, 0, 255)" stroke-width="2.63" stroke-opacity="1.00" stroke-linejoin="round"/>
<path d="M124.80,170.30 C124.80,170.30 123.60,170.64 123.60,170.64 C122.36,179.00 123.51,182.44 124.49,183.71 C126.06,182.84 127.95,178.79 128.29,176.13 C128.38,175.20 128.13,172.85 127.81,172.18 C127.65,171.87 127.21,171.18 126.51,170.11" fill="none" stroke="rgb(255, 0, 255)" stroke-width="2.63" stroke-opacity="1.00" stroke-linejoin="round"/>
<path d="M162.71,140.86 C161.64,140.69 160.22,141.29 159.65,142.44 C158.41,145.01 159.33,152.36 159.57,153.08 C160.92,153.42 161.80,153.29 162.59,152.44 C164.08,150.80 165.45,146.73 165.23,144.36 C165.11,143.28 164.05,140.69 163.34,139.72 C163.10,139.40 162.70,139.05 162.14,138.68" fill="none" stroke="rgb(255, 0, 255)" stroke-width="2.63" stroke-opacity="1.00" stroke-linejoin="round"/>
<path d="M167.70,86.48 C165.73,86.46 164.77,86.53 164.41,86.82 C163.64,87.51 163.10,92.54 163.42,94.59 C163.92,97.53 165.24,99.01 165.97,99.42 C167.37,98.19 168.06,97.09 168.25,95.38 C168.65,91.62 168.41,87.46 167.68,84.51 C167.68,84.51 166.68,84.13 166.68,84.13" fill="none" stroke="rgb(255, 0, 255)" stroke-width="2.63" stroke-opacity="1.00" stroke-linejoin="round"/>
<path d="M208.61,111.93 C208.61,111.93 207.66,112.43 207.66,112.43 C206.43,113.63 206.66,122.74 207.41,123.86 C209.18,123.83 210.15,123.47 210.70,122.42 C211.73,120.35 211.59,116.76 210.65,114.35 C210.28,113.41 209.98,112.75 209.78,112.38 C209.55,111.96 208.99,111.05 208.10,109.64" fill="none" stroke="rgb(255, 0, 255)" stroke-width="2.63" stroke-opacity="1.00" stroke-linejoin="round"/>
<path d="M205.11,166.80 C205.11,166.80 204.12,165.87 204.12,165.87 C203.67,171.56 203.54,176.62 203.90,178.12 C204.18,179.17 204.83,179.92 205.65,180.31 C206.50,180.11 207.25,179.52 207.74,178.44 C208.67,176.27 208.69,171.09 207.75,168.20 C207.36,167.03 206.99,166.23 206.66,165.80 C206.32,165.37 205.46,164.54 204.06,163.29" fill="none" stroke="rgb(255, 0, 255)" stroke-width="2.63" stroke-opacity="1.00" stroke-linejoin="round"/>
<path d="M169.20,198.73 C169.20,198.73 167.98,198.73 167.98,198.73 C167.64,198.74 166.86,206.47 167.32,207.83 C167.48,208.29 168.00,209.07 168.86,210.16 C168.86,210.16 170.18,210.07 170.18,210.07 C171.83,208.78 173.08,204.18 172.83,201.03 C172.70,199.56 172.06,198.13 170.92,196.31 C170.92,196.31 169.89,196.60 169.89,196.60" fill="none" stroke="rgb(255, 0, 255)" stroke-width="2.63" stroke-opacity="1.00" stroke-linejoin="round"/>
<path d="M217.09,226.67 C216.50,227.17 215.09,227.94 214.93,228.23 C212.48,232.86 214.85,239.38 215.34,240.15 C216.63,240.15 217.34,239.80 217.77,238.68 C219.52,233.89 217.92,227.75 217.55,227.11 C217.38,226.82 216.95,226.23 216.26,225.33" fill="none" stroke="rgb(255, 0, 255)" stroke-width="2.63" stroke-opacity="1.00" stroke-linejoin="round"/>
<path d="M262.98,176.78 C261.25,177.69 260.89,179.21 261.12,182.86 C261.52,187.67 261.88,190.15 263.04,190.90 C264.56,190.76 266.49,187.81 266.65,185.49 C266.77,183.37 265.26,179.05 264.26,177.31 C264.03,176.92 263.50,176.08 262.67,174.79" fill="none" stroke="rgb(255, 0, 255)" stroke-width="2.63" stroke-opacity="1.00" stroke-linejoin="round"/>
<path d="M246.52,95.96 C246.52,95.96 244.53,95.46 244.53,95.46 C244.53,95.46 247.76,108.02 247.76,108.02 C248.15,107.93 249.17,106.62 250.04,104.87 C250.98,102.94 251.39,99.91 251.05,97.84 C250.70,96.02 248.11,92.62 247.01,91.65 C246.67,91.36 246.23,91.11 245.69,90.90" fill="none" stroke="rgb(255, 0, 255)" stroke-width="2.63" stroke-opacity="1.00" stroke-linejoin="round"/>
<path d="M285.43,46.58 C283.78,47.01 282.57,47.85 282.11,49.11 C281.81,49.95 281.42,61.81 281.77,62.86 C282.15,63.15 284.14,62.36 285.33,61.07 C286.53,59.73 287.56,56.93 287.56,55.44 C287.46,52.74 286.55,48.86 285.16,44.94" fill="none" stroke="rgb(255, 0, 255)" stroke-width="2.63" stroke-opacity="1.00" stroke-linejoin="round"/>
<path d="M328.34,75.51 C328.34,75.51 327.34,75.58 327.34,75.58 C327.32,79.42 327.27,88.28 327.82,90.43 C327.94,90.86 328.47,90.86 329.08,90.89 C329.55,90.82 330.75,89.58 331.20,88.48 C331.67,87.21 331.78,83.67 331.42,82.02 C331.11,80.71 330.11,78.17 329.23,76.21 C328.91,75.49 328.59,74.77 328.26,74.05" fill="none" stroke="rgb(255, 0, 255)" stroke-width="2.63" stroke-opacity="1.00" stroke-linejoin="round"/>
<path d="M290.92,128.89 C290.92,128.89 289.67,129.14 289.67,129.14 C289.03,129.88 288.85,130.86 288.92,133.68 C288.96,134.80 288.91,138.19 288.92,138.69 C289.02,141.50 289.59,142.97 290.69,143.61 C291.96,143.17 293.25,141.95 293.78,140.37 C294.43,138.33 292.26,130.96 291.47,128.32 C291.32,127.78 291.17,127.25 291.01,126.71" fill="none" stroke="rgb(255, 0, 255)" stroke-width="2.63" stroke-opacity="1.00" stroke-linejoin="round"/>
<path d="M319.85,181.77 C319.85,181.77 317.86,182.12 317.86,182.12 C317.86,182.12 317.25,199.54 317.25,199.54 C318.41,199.31 319.90,198.01 320.98,195.96 C321.95,194.04 322.17,191.08 321.60,188.78 C321.40,188.00 320.10,184.34 319.62,182.86 C319.47,182.42 319.24,181.69 318.93,180.68" fill="none" stroke="rgb(255, 0, 255)" stroke-width="2.63" stroke-opacity="1.00" stroke-linejoin="round"/>
<path d="M286.93,226.67 C286.93,226.67 285.68,227.42 285.68,227.42 C285.05,228.64 284.79,230.16 284.93,232.53 C285.21,236.05 285.76,243.46 286.97,245.03 C287.98,244.75 288.90,243.50 289.59,241.25 C291.23,235.66 287.77,229.30 286.96,228.28 C286.74,228.02 286.34,227.59 285.74,226.97" fill="none" stroke="rgb(255, 0, 255)" stroke-width="2.63" stroke-opacity="1.00" stroke-linejoin="round"/>
<path d="M360.76,124.40 C360.76,124.40 357.77,124.40 357.77,124.40 C357.77,124.40 357.77,124.40 357.77,124.40 C357.90,124.71 357.27,131.27 356.93,134.05 C356.82,135.47 357.08,136.61 357.58,137.50 C358.82,138.30 361.48,137.67 362.07,136.81 C363.43,134.59 362.61,130.80 360.25,124.44 C360.07,123.97 359.83,123.14 359.52,121.96" fill="none" stroke="rgb(255, 0, 255)" stroke-width="2.63" stroke-opacity="1.00" stroke-linejoin="round"/>
<path d="M385.71,62.04 C385.33,62.41 384.23,63.55 384.01,63.99 C380.78,70.72 383.33,76.51 384.32,77.28 C385.33,76.88 386.29,75.71 386.67,73.97 C387.20,71.44 385.44,63.36 385.28,62.84 C385.13,62.36 384.85,61.71 384.45,60.89" fill="none" stroke="rgb(255, 0, 255)" stroke-width="2.63" stroke-opacity="1.00" stroke-linejoin="round"/>
<path d="M443.08,48.57 C443.08,48.57 441.83,47.57 441.83,47.57 C441.11,48.19 439.54,51.84 439.02,54.44 C438.52,57.09 438.96,60.40 440.25,61.08 C441.51,61.68 444.06,60.82 445.25,59.57 C445.78,58.93 446.29,56.68 446.04,55.25 C445.55,52.74 442.46,48.60 442.23,48.15 C442.13,47.94 442.05,47.64 442.02,47.23" fill="none" stroke="rgb(255, 0, 255)" stroke-width="2.63" stroke-opacity="1.00" stroke-linejoin="round"/>
<path d="M426.61,107.44 C426.61,107.44 425.86,107.69 425.86,107.69 C425.39,108.15 425.17,108.90 424.82,111.48 C424.27,115.60 424.09,119.97 424.39,121.20 C424.63,122.17 425.31,122.87 426.18,123.28 C427.61,123.18 430.13,120.97 430.34,118.28 C430.48,116.01 428.37,108.94 428.18,108.45 C428.00,108.01 427.62,107.23 427.05,106.12" fill="none" stroke="rgb(255, 0, 255)" stroke-width="2.63" stroke-opacity="1.00" stroke-linejoin="round"/>
<path d="M479.49,104.94 C479.49,104.94 477.83,104.94 477.83,104.94 C476.75,105.85 476.38,109.71 476.53,112.57 C476.78,116.86 477.82,121.76 479.12,123.44 C480.83,123.39 482.37,122.41 483.33,120.43 C484.02,118.94 483.88,116.63 483.06,114.85 C482.61,113.90 478.32,105.99 478.20,105.31 C478.14,104.92 478.20,104.24 478.38,103.24" fill="none" stroke="rgb(255, 0, 255)" stroke-width="2.63" stroke-opacity="1.00" stroke-linejoin="round"/>
<path d="M455.05,169.80 C454.94,169.75 454.22,170.03 453.87,170.48 C452.36,172.45 451.46,182.58 451.91,186.18 C453.28,187.15 454.13,187.53 454.87,187.38 C456.06,187.11 458.38,184.74 458.18,182.36 C458.08,181.28 454.76,171.85 454.61,171.32 C454.50,170.92 454.30,170.11 454.02,168.89" fill="none" stroke="rgb(255, 0, 255)" stroke-width="2.63" stroke-opacity="1.00" stroke-linejoin="round"/>
<path d="M492.96,195.24 C492.96,195.24 492.71,195.24 492.71,195.24 C492.71,195.24 492.21,194.74 492.21,194.74 C491.58,194.58 491.19,195.86 491.02,198.97 C491.01,199.06 490.96,203.67 491.06,204.40 C491.43,206.79 492.60,209.06 493.75,209.42 C494.04,209.50 494.63,209.54 495.52,209.53 C496.42,208.81 496.79,207.35 496.40,205.21 C496.29,204.58 493.33,194.47 492.73,193.04 C492.58,192.68 492.37,192.31 492.09,191.91" fill="none" stroke="rgb(255, 0, 255)" stroke-width="2.63" stroke-opacity="1.00" stroke-linejoin="round"/>
<path d="M476.00,244.13 C475.03,245.72 474.18,247.79 474.01,249.54 C473.93,250.28 474.02,255.52 474.01,257.02 C473.99,260.09 474.22,261.10 475.01,261.86 C476.58,261.87 478.50,261.67 479.27,261.23 C480.28,260.64 480.72,258.36 480.51,255.89 C480.29,253.99 477.61,246.71 476.37,244.56 C476.07,244.06 475.44,243.11 474.48,241.73" fill="none" stroke="rgb(255, 0, 255)" stroke-width="2.63" stroke-opacity="1.00" stroke-linejoin="round"/>
<path d="M425.12,241.63 C425.12,241.63 422.62,243.69 422.62,243.69 C422.62,243.69 426.90,256.39 426.90,256.39 C428.02,256.40 428.80,255.63 429.00,253.90 C429.05,253.45 429.01,248.82 428.95,248.35 C428.54,245.88 424.14,241.51 423.97,241.27 C423.58,240.72 423.06,239.64 422.41,238.02" fill="none" stroke="rgb(255, 0, 255)" stroke-width="2.63" stroke-opacity="1.00" stroke-linejoin="round"/>
<path d="M385.71,190.75 C385.71,190.75 384.96,191.12 384.96,191.12 C383.36,197.56 383.99,204.18 384.61,204.62 C386.10,204.39 388.31,201.75 388.37,199.30 C388.39,197.04 385.13,190.67 384.90,190.09 C384.77,189.78 384.58,189.16 384.32,188.22" fill="none" stroke="rgb(255, 0, 255)" stroke-width="2.63" stroke-opacity="1.00" stroke-linejoin="round"/>
<path d="M389.20,275.06 C389.20,275.06 388.95,275.72 388.95,275.72 C388.95,275.72 387.68,276.17 387.68,276.17 C386.55,281.00 387.25,289.80 387.53,291.26 C388.34,291.37 389.42,291.10 390.18,290.41 C390.95,289.65 391.88,287.40 391.90,286.00 C391.89,283.91 389.16,273.86 389.07,273.43 C388.96,272.85 388.44,268.98 388.25,267.58" fill="none" stroke="rgb(255, 0, 255)" stroke-width="2.63" stroke-opacity="1.00" stroke-linejoin="round"/>
<path d="M299.90,268.57 C299.12,268.55 298.10,268.62 298.00,268.57 C297.59,268.40 296.22,267.38 295.14,267.17 C289.59,266.12 282.37,267.54 271.00,270.19 C266.86,271.12 263.51,272.03 261.63,272.88 C259.37,273.92 255.75,276.86 253.99,279.05 C252.56,280.87 249.22,286.36 248.15,288.66 C247.03,291.10 245.30,296.93 245.05,299.29 C244.79,302.00 245.39,307.87 246.25,311.47 C247.18,315.29 249.50,321.81 251.00,324.66 C252.45,327.38 256.14,332.14 258.02,333.63 C259.93,335.10 264.61,337.03 267.56,337.75 C270.62,338.47 274.32,338.77 277.88,338.66 C281.09,338.52 295.79,335.30 298.88,333.90 C301.07,332.89 304.89,329.95 306.72,328.05 C308.57,326.10 311.84,321.55 313.05,319.06 C314.27,316.50 315.66,311.19 315.97,308.22 C316.24,305.43 315.99,299.94 315.55,297.24 C315.00,294.08 313.96,290.79 312.34,287.56 C308.25,279.59 304.14,274.05 302.14,271.94 C301.14,270.88 298.86,268.83 297.41,267.58" fill="none" stroke="rgb(0, 0, 255)" stroke-width="2.63" stroke-opacity="1.00" stroke-linejoin="round"/>
<path d="M302.39,268.57 C301.31,268.65 300.60,268.73 300.27,268.82 C299.95,268.91 299.55,269.13 299.07,269.49 C299.99,268.77 303.92,265.43 305.75,264.54 C307.90,263.51 312.60,263.20 316.16,263.48 C317.77,263.64 321.11,264.37 322.25,264.99 C323.96,265.94 327.56,271.93 328.34,274.32 C329.67,278.55 331.98,290.88 332.32,297.66 C332.51,301.74 332.63,320.19 333.61,323.53 C334.59,326.81 336.39,331.14 337.91,332.99 C339.84,335.31 342.93,338.25 343.56,338.76 C339.88,337.27 331.23,331.49 327.45,326.52 C326.04,324.64 322.73,318.30 322.44,316.53 C322.29,315.53 322.29,313.10 322.35,311.48" fill="none" stroke="rgb(0, 0, 255)" stroke-width="2.63" stroke-opacity="1.00" stroke-linejoin="round"/>
<path d="M305.89,267.58 C305.89,267.58 303.89,268.47 303.89,268.47 C303.46,269.20 303.23,270.21 303.59,270.99 C304.18,272.24 308.33,276.62 310.11,279.00 C318.04,289.69 320.02,300.62 320.15,301.79 C318.73,300.74 313.31,288.48 310.53,280.74 C308.35,274.19 307.09,268.11 306.70,266.06 C307.85,266.35 310.59,271.01 311.83,273.22 C314.44,277.96 319.74,291.20 320.93,296.43 C321.78,300.18 322.12,303.47 322.24,304.81 C321.53,303.93 315.63,283.63 314.87,280.68 C312.12,269.84 312.61,267.48 313.29,266.64 C316.39,271.37 321.40,284.73 322.95,291.07 C324.64,298.08 325.90,308.27 325.40,311.10 C324.12,310.03 322.86,305.40 322.30,301.93 C320.92,292.94 318.90,268.87 319.23,264.11 C320.96,267.15 322.47,272.38 323.39,276.14 C325.28,284.30 327.79,297.14 328.81,303.79 C330.00,312.42 329.70,313.78 329.36,314.44 C327.68,311.86 325.91,297.24 325.44,288.71 C324.91,275.26 324.87,271.18 324.94,268.16 C324.94,268.16 331.61,315.76 331.61,315.76 C331.61,315.76 330.38,316.94 330.38,316.94" fill="none" stroke="rgb(0, 0, 255)" stroke-width="2.63" stroke-opacity="1.00" stroke-linejoin="round"/>
<path d="M323.85,297.51 C323.35,298.45 322.10,301.28 322.55,305.04 C324.13,317.30 329.92,325.58 331.10,327.00 C331.10,327.00 332.33,325.94 332.33,325.94" fill="none" stroke="rgb(0, 0, 255)" stroke-width="2.63" stroke-opacity="1.00" stroke-linejoin="round"/>
<path d="M321.35,302.99 C320.33,303.92 319.66,306.06 319.92,308.50 C320.30,311.97 325.76,322.79 326.78,324.47 C327.93,326.33 329.95,328.52 330.83,329.44" fill="none" stroke="rgb(0, 0, 255)" stroke-width="2.63" stroke-opacity="1.00" stroke-linejoin="round"/>
<path d="M321.35,302.00 C321.35,302.00 320.10,302.39 320.10,302.39 C319.76,303.79 320.36,309.02 321.21,311.73 C323.05,317.44 328.41,327.74 330.14,329.64 C330.14,329.64 331.24,329.11 331.24,329.11" fill="none" stroke="rgb(0, 0, 255)" stroke-width="2.63" stroke-opacity="1.00" stroke-linejoin="round"/>
<path d="M322.35,301.50 C322.15,303.33 321.93,306.01 321.98,307.11 C322.15,310.65 330.49,327.50 332.81,329.52 C333.07,329.74 333.65,330.14 334.55,330.73 C334.55,330.73 335.32,329.44 335.32,329.44" fill="none" stroke="rgb(0, 0, 255)" stroke-width="2.63" stroke-opacity="1.00" stroke-linejoin="round"/>
<path d="M327.84,310.98 C327.51,313.07 327.61,316.91 328.28,319.35 C328.99,321.85 331.19,327.18 332.54,329.40 C332.99,330.14 333.36,330.69 333.64,331.06 C333.83,331.30 334.22,331.76 334.82,332.43" fill="none" stroke="rgb(0, 0, 255)" stroke-width="2.63" stroke-opacity="1.00" stroke-linejoin="round"/>
<path d="M254.50,292.52 C254.50,292.52 250.55,292.39 250.55,292.39 C254.55,291.91 259.69,293.22 263.08,294.60 C270.53,297.68 272.75,297.88 272.91,297.75 C272.91,297.75 264.49,288.90 264.49,288.90 C264.49,288.90 286.16,297.35 286.16,297.35 C286.16,297.35 281.54,291.67 281.54,291.67 C281.88,291.42 293.98,296.44 298.91,297.95 C301.63,298.78 307.26,300.01 309.02,300.15 C309.02,300.15 307.38,300.50 307.38,300.50" fill="none" stroke="rgb(0, 0, 255)" stroke-width="2.63" stroke-opacity="1.00" stroke-linejoin="round"/>
<path d="M302.39,298.51 C303.58,298.49 305.56,298.52 306.69,298.61 C308.78,298.78 314.75,299.65 316.53,299.92 C316.53,299.92 316.86,299.54 316.86,299.54" fill="none" stroke="rgb(0, 0, 255)" stroke-width="2.63" stroke-opacity="1.00" stroke-linejoin="round"/>
<path d="M254.50,287.53 C254.50,287.53 251.14,287.95 251.14,287.95 C251.14,287.95 251.32,289.07 251.32,289.07 C252.33,290.09 253.89,290.96 255.68,291.27 C258.62,291.77 261.43,290.97 262.40,290.51 C261.98,289.62 261.26,289.10 259.50,288.61 C256.60,287.83 251.13,286.46 250.65,286.75 C252.44,288.25 255.07,289.71 258.07,291.02 C262.99,293.14 266.15,294.31 266.94,293.78 C266.94,293.78 256.24,281.72 256.24,281.72 C256.24,281.72 269.29,289.86 269.29,289.86 C269.29,289.86 259.68,278.99 259.68,278.99 C259.86,278.69 265.60,282.82 266.99,283.66 C271.58,286.36 273.29,286.80 273.97,286.53 C273.97,286.53 265.34,274.66 265.34,274.66 C274.77,288.91 279.89,290.82 280.51,290.51 C280.15,287.49 273.33,276.05 271.20,273.17 C274.77,280.13 281.89,289.62 284.66,291.35 C285.19,289.45 285.16,288.29 284.29,286.68 C278.85,276.31 277.90,274.12 277.56,273.14 C278.14,273.57 282.98,280.25 284.54,282.14 C290.72,289.59 293.78,291.27 294.18,291.08 C294.18,291.08 281.10,271.14 281.10,271.14 C283.39,273.91 290.93,284.40 294.78,288.58 C297.87,291.89 299.74,293.27 301.74,294.52 C302.01,292.01 301.80,290.75 300.56,288.70 C296.28,281.39 290.48,271.52 289.14,269.94 C290.27,274.29 298.90,288.62 301.65,291.02 C303.17,292.34 304.62,292.93 305.37,292.71 C305.30,290.85 302.69,286.02 300.56,282.51 C298.56,279.23 295.12,273.62 293.60,271.51 C294.19,273.88 300.88,285.51 304.66,290.09 C307.47,293.41 310.58,294.74 311.55,294.52 C311.28,292.50 308.28,288.17 306.60,285.75 C303.62,281.50 298.84,272.81 298.22,271.67 C309.08,290.88 314.83,294.74 315.43,294.62 C315.43,294.62 305.97,280.66 305.97,280.66 C305.97,280.66 316.00,294.63 316.00,294.63 C316.00,294.63 315.86,294.51 315.86,294.51" fill="none" stroke="rgb(0, 0, 255)" stroke-width="2.63" stroke-opacity="1.00" stroke-linejoin="round"/>
<path d="M277.95,286.53 C277.95,286.53 274.96,286.62 274.96,286.62 C276.83,287.94 278.33,288.85 279.84,289.42 C283.22,290.70 308.27,298.29 310.27,298.79 C300.77,292.75 286.24,286.94 285.29,286.57 C292.28,289.24 306.66,294.79 310.92,295.65 C313.35,296.13 315.22,296.06 316.29,295.55 C315.18,293.84 310.93,291.87 308.07,290.79 C300.93,288.16 296.23,286.82 295.10,286.51 C296.36,287.54 301.21,289.73 302.63,290.07 C304.31,290.45 310.67,291.21 313.37,291.52" fill="none" stroke="rgb(0, 0, 255)" stroke-width="2.63" stroke-opacity="1.00" stroke-linejoin="round"/>
<path d="M303.39,274.06 C303.06,274.53 302.81,274.86 302.64,275.06 C302.47,275.25 302.14,275.59 301.65,276.06 C301.22,275.99 300.74,275.66 300.38,275.02 C298.70,272.10 297.08,270.26 293.73,269.13 C292.37,268.71 288.44,268.37 283.15,268.18 C280.04,268.08 275.25,268.45 272.43,269.79 C268.67,271.66 267.90,274.69 268.21,276.02 C269.70,276.93 271.79,277.39 274.06,277.05 C278.07,276.44 281.74,274.71 283.73,273.37 C280.66,270.00 264.33,275.39 262.27,276.31 C261.09,276.84 260.25,277.68 259.12,279.32 C260.25,280.55 261.16,281.08 262.50,281.03 C264.90,280.93 269.48,279.57 271.61,278.46 C272.70,277.88 273.61,276.91 274.94,275.07 C274.94,275.07 274.24,273.21 274.24,273.21 C271.45,272.93 269.71,272.99 268.07,273.56 C265.13,274.61 260.49,277.40 258.41,279.23 C257.36,280.16 256.31,281.56 254.64,284.10 C254.64,284.10 258.49,287.53 258.49,287.53" fill="none" stroke="rgb(0, 0, 255)" stroke-width="2.63" stroke-opacity="1.00" stroke-linejoin="round"/>
<path d="M257.50,305.99 C258.56,308.51 271.30,309.54 271.73,308.80 C271.73,308.80 271.53,308.09 271.53,308.09" fill="none" stroke="rgb(0, 0, 255)" stroke-width="2.63" stroke-opacity="1.00" stroke-linejoin="round"/>
<path d="M261.49,310.98 C261.49,310.98 261.20,315.92 261.20,315.92 C261.76,315.44 262.24,314.37 262.43,313.01 C262.47,312.72 262.49,312.33 262.48,311.82" fill="none" stroke="rgb(0, 0, 255)" stroke-width="2.63" stroke-opacity="1.00" stroke-linejoin="round"/>
<path d="M259.99,322.45 C259.99,322.45 259.99,321.95 259.99,321.95 C259.99,321.95 262.15,324.31 262.15,324.31 C262.15,324.31 263.25,322.26 263.25,322.26" fill="none" stroke="rgb(0, 0, 255)" stroke-width="2.63" stroke-opacity="1.00" stroke-linejoin="round"/>
<path d="M287.43,309.48 C287.43,309.48 285.54,309.73 285.54,309.73 C285.54,309.73 285.13,310.54 285.13,310.54 C288.62,311.45 300.34,311.55 301.30,311.00 C301.60,310.83 302.13,310.32 302.89,309.48" fill="none" stroke="rgb(0, 0, 255)" stroke-width="2.63" stroke-opacity="1.00" stroke-linejoin="round"/>
<path d="M295.41,319.46 C295.09,319.07 294.88,318.78 294.79,318.58 C294.69,318.39 294.56,318.03 294.41,317.50 C294.41,317.50 295.42,319.64 295.42,319.64 C296.01,318.05 296.31,317.04 296.34,316.61 C296.36,316.18 296.15,315.73 295.70,315.25" fill="none" stroke="rgb(0, 0, 255)" stroke-width="2.63" stroke-opacity="1.00" stroke-linejoin="round"/>
<path d="M293.91,329.93 C293.91,329.93 292.42,328.09 292.42,328.09 C292.42,328.09 294.04,328.74 294.04,328.74 C294.04,328.74 295.41,324.76 295.41,324.76 C295.41,324.76 294.42,324.73 294.42,324.73" fill="none" stroke="rgb(0, 0, 255)" stroke-width="2.63" stroke-opacity="1.00" stroke-linejoin="round"/>
<path d="M284.93,330.43 C284.16,330.32 280.35,327.28 278.73,326.74 C277.56,326.37 275.33,326.23 274.20,326.46 C272.96,326.74 271.56,327.85 270.69,329.14 C270.52,329.40 270.28,329.83 269.97,330.43" fill="none" stroke="rgb(0, 0, 255)" stroke-width="2.63" stroke-opacity="1.00" stroke-linejoin="round"/>
<path d="M272.46,338.41 C272.38,338.41 272.30,338.41 272.21,338.41 C272.13,338.41 272.05,338.41 271.96,338.41 C271.94,338.69 271.94,338.97 271.96,339.27 C272.07,340.48 272.23,341.45 272.46,342.18 C272.63,342.72 273.05,343.66 273.71,345.01" fill="none" stroke="rgb(0, 0, 255)" stroke-width="2.63" stroke-opacity="1.00" stroke-linejoin="round"/>
<path d="M285.93,337.92 C285.93,337.92 284.68,338.83 284.68,338.83 C285.11,340.88 285.47,343.22 285.43,344.44 C285.37,345.88 284.30,348.67 283.31,350.05 C282.41,351.24 280.84,351.88 279.72,351.56 C277.47,350.80 273.00,347.33 272.69,345.74 C272.63,345.36 272.55,344.42 272.46,342.90" fill="none" stroke="rgb(0, 0, 255)" stroke-width="2.63" stroke-opacity="1.00" stroke-linejoin="round"/>
<path d="M274.96,346.40 C274.96,346.40 273.46,347.73 273.46,347.73 C273.46,347.73 272.82,344.38 272.82,344.38 C272.13,343.83 271.23,343.38 270.09,343.17 C267.24,342.68 262.11,344.72 260.05,346.23 C258.28,347.58 255.71,350.03 254.88,351.36 C253.40,353.79 252.34,360.66 252.13,365.68 C252.03,368.27 252.04,388.18 252.12,395.80 C252.30,401.92 254.70,429.18 255.46,430.73 C260.30,431.62 267.33,430.36 267.47,429.92 C267.80,428.83 265.74,410.91 265.48,406.95 C265.09,400.87 265.76,381.60 265.69,378.03 C265.67,377.17 265.52,374.23 265.48,373.34" fill="none" stroke="rgb(0, 0, 255)" stroke-width="2.63" stroke-opacity="1.00" stroke-linejoin="round"/>
<path d="M287.93,344.40 C287.93,344.40 286.68,344.15 286.68,344.15 C286.68,344.15 286.56,343.20 286.56,343.20 C288.85,342.21 297.47,344.08 299.97,345.61 C301.42,346.54 303.61,348.92 304.46,350.56 C305.60,352.83 311.48,375.38 312.29,379.16 C313.17,383.30 314.87,395.91 315.15,403.94 C315.37,412.21 315.79,427.76 315.60,427.87 C313.28,426.36 304.40,425.13 303.40,423.98 C302.13,422.36 301.61,405.97 301.43,399.03 C301.24,393.90 300.04,378.18 300.01,377.74 C299.99,377.32 299.95,376.52 299.90,375.33" fill="none" stroke="rgb(0, 0, 255)" stroke-width="2.63" stroke-opacity="1.00" stroke-linejoin="round"/>
<path d="M256.50,431.20 C256.33,431.80 256.01,432.27 256.00,432.37 C255.93,433.37 256.60,454.55 256.36,457.72 C256.15,460.84 255.54,470.07 255.51,471.98 C255.44,477.44 256.72,484.83 256.21,486.03 C256.05,486.42 253.16,489.90 252.58,490.96 C252.26,491.52 252.26,492.11 252.38,492.73 C253.87,493.96 257.83,491.54 258.56,491.15 C258.56,491.15 259.72,494.94 259.72,494.94 C259.72,494.94 261.77,492.15 261.77,492.15 C262.93,489.93 263.34,488.65 263.22,487.03 C262.47,476.75 263.82,442.17 264.82,434.79 C265.00,433.48 265.51,430.16 265.72,428.86 C265.80,428.31 265.89,427.76 265.98,427.21" fill="none" stroke="rgb(0, 0, 255)" stroke-width="2.63" stroke-opacity="1.00" stroke-linejoin="round"/>
<path d="M310.38,426.71 C310.38,438.16 310.68,446.10 311.94,452.56 C312.64,456.08 317.46,476.68 317.36,480.09 C316.78,480.24 315.68,483.02 316.03,483.74 C316.08,483.84 316.23,484.04 316.48,484.35 C316.48,484.35 320.53,481.05 320.53,481.05 C320.53,481.05 322.24,484.03 322.24,484.03 C323.02,483.45 323.61,482.42 324.16,480.50 C324.65,478.64 322.70,472.49 321.09,468.65 C319.70,465.32 318.51,450.05 317.18,439.01 C316.81,435.63 316.09,428.23 316.04,427.39 C315.98,426.17 315.92,424.94 315.86,423.72" fill="none" stroke="rgb(0, 0, 255)" stroke-width="2.63" stroke-opacity="1.00" stroke-linejoin="round"/>
<path d="M310.38,475.60 C310.38,475.60 310.71,474.61 310.71,474.61 C311.04,474.44 311.06,473.60 288.11,475.68 C284.83,476.00 277.45,478.08 273.76,478.70 C270.10,479.29 268.16,479.02 267.57,478.60 C267.55,478.58 267.35,478.42 266.97,478.10" fill="none" stroke="rgb(0, 0, 255)" stroke-width="2.63" stroke-opacity="1.00" stroke-linejoin="round"/>
<path d="M285.17,480.15 C285.17,480.15 285.17,479.89 285.17,479.89 C285.17,479.89 284.20,479.20 284.20,479.20 C284.03,480.31 287.01,512.05 289.83,532.45 C292.59,551.60 293.70,561.92 293.81,562.82 C293.81,562.82 294.42,562.88 294.42,562.88" fill="none" stroke="rgb(0, 0, 255)" stroke-width="2.63" stroke-opacity="1.00" stroke-linejoin="round"/>
<path d="M304.19,560.31 C304.19,560.31 304.19,560.57 304.19,560.57 C303.37,559.35 302.75,553.00 302.37,549.35 C300.90,534.24 297.57,494.22 297.17,491.82 C296.92,490.38 296.33,487.66 296.03,486.30 C295.48,483.67 295.40,479.55 295.45,477.94" fill="none" stroke="rgb(0, 0, 255)" stroke-width="2.63" stroke-opacity="1.00" stroke-linejoin="round"/>
<path d="M304.70,475.01 C304.70,475.40 304.70,475.78 304.70,476.17 C304.65,489.44 308.73,549.91 309.84,567.11 C310.12,565.15 303.13,563.52 302.54,563.62 C301.83,564.18 301.71,569.50 302.11,571.56 C302.46,573.13 303.59,574.51 304.68,574.58 C305.45,574.61 314.19,572.09 314.52,571.86 C314.70,571.74 314.91,571.46 315.13,571.03 C314.70,570.15 313.89,568.80 312.98,567.61 C312.49,566.97 309.41,563.21 308.30,561.85" fill="none" stroke="rgb(0, 0, 255)" stroke-width="2.63" stroke-opacity="1.00" stroke-linejoin="round"/>
<path d="M302.64,564.42 C302.64,564.42 302.64,565.45 302.64,565.45 C302.60,565.57 295.63,563.96 294.24,564.13 C293.21,564.29 291.66,565.32 291.01,566.18 C290.51,566.90 289.87,569.37 289.84,570.48 C289.84,571.34 293.17,572.40 295.75,572.35 C297.50,572.30 299.36,571.91 300.67,571.33 C300.95,571.20 301.43,570.95 302.13,570.59" fill="none" stroke="rgb(0, 0, 255)" stroke-width="2.63" stroke-opacity="1.00" stroke-linejoin="round"/>
</g>
</svg>
