<?xml version="1.0" encoding="UTF-8" standalone="no"?>
<!DOCTYPE svg PUBLIC "-//W3C//DTD SVG 1.1//EN" "http://www.w3.org/Graphics/SVG/1.1/DTD/svg11.dtd">
<svg width="64.20" height="90.84" viewBox="0.00 0.00 535.00 757.00" xmlns="http://www.w3.org/2000/svg" xmlns:xlink="http://www.w3.org/1999/xlink">
<g stroke-linecap="round" id="17">
<path d="M204.75,306.27 C204.32,306.31 204.24,306.25 204.19,306.30 C200.72,310.34 190.90,321.35 188.07,325.07 C186.27,327.45 183.52,331.76 180.20,337.24 C178.04,340.82 176.69,343.64 176.56,345.38 C176.42,347.69 177.96,353.02 179.01,355.38 C180.53,358.64 182.84,363.71 184.81,368.78 C186.30,372.67 186.86,375.88 186.09,378.01 C185.79,378.80 184.59,381.61 184.41,382.21 C183.77,384.46 185.08,388.57 187.50,392.63 C189.54,396.09 190.36,400.57 189.65,404.37 C189.47,405.26 189.09,406.11 188.75,406.59 C188.66,406.70 188.52,406.85 188.32,407.04" fill="none" stroke="rgb(33, 228, 63)" stroke-width="3.33" stroke-opacity="1.00" stroke-linejoin="round"/>
<path d="M211.22,305.77 C211.22,305.77 210.76,306.02 210.76,306.02 C211.73,305.99 230.58,307.55 235.57,308.84 C238.73,309.68 241.67,312.21 243.04,314.59 C243.95,316.24 246.10,322.48 246.39,324.28 C246.76,326.88 245.59,331.05 244.92,333.17 C244.39,335.35 246.38,342.77 246.57,343.43 C247.67,347.45 247.37,353.49 246.24,357.55 C245.02,361.86 244.37,366.71 245.10,369.53 C245.92,372.50 249.11,378.19 251.33,381.43 C253.36,384.42 254.55,388.36 254.73,392.33 C254.75,392.99 254.91,401.79 254.89,402.89 C254.89,402.89 253.27,404.06 253.27,404.06" fill="none" stroke="rgb(33, 228, 63)" stroke-width="3.33" stroke-opacity="1.00" stroke-linejoin="round"/>
<path d="M200.76,321.69 C199.77,323.13 196.76,331.76 196.41,332.67 C196.05,333.62 195.05,336.01 194.93,336.28 C194.93,336.28 195.18,336.03 195.18,336.03" fill="none" stroke="rgb(33, 228, 63)" stroke-width="3.33" stroke-opacity="1.00" stroke-linejoin="round"/>
<path d="M213.21,316.47 C213.21,316.47 213.08,316.47 213.08,316.47 C212.92,316.50 210.23,322.95 209.51,324.55 C207.56,328.87 203.38,337.10 203.22,337.73 C203.14,338.02 203.16,338.40 203.25,338.86" fill="none" stroke="rgb(33, 228, 63)" stroke-width="3.33" stroke-opacity="1.00" stroke-linejoin="round"/>
<path d="M217.44,321.20 C217.41,322.25 215.73,326.86 213.95,330.92 C212.77,333.54 210.17,338.40 209.68,339.24 C209.55,339.45 209.43,339.62 209.32,339.75" fill="none" stroke="rgb(33, 228, 63)" stroke-width="3.33" stroke-opacity="1.00" stroke-linejoin="round"/>
<path d="M224.90,316.97 C224.92,316.93 224.37,318.73 223.85,320.14 C222.49,323.77 218.33,332.08 215.95,337.71 C215.90,337.84 215.82,338.00 215.71,338.18" fill="none" stroke="rgb(33, 228, 63)" stroke-width="3.33" stroke-opacity="1.00" stroke-linejoin="round"/>
<path d="M226.89,325.43 C226.86,325.71 227.05,327.13 227.36,327.97 C227.69,328.84 232.38,339.40 232.93,340.54 C234.97,344.83 235.49,354.20 235.60,362.05 C235.60,362.60 235.60,363.16 235.60,363.71" fill="none" stroke="rgb(33, 228, 63)" stroke-width="3.33" stroke-opacity="1.00" stroke-linejoin="round"/>
<path d="M192.55,332.39 C191.57,332.92 191.19,334.23 192.04,338.75 C193.03,343.95 196.13,353.95 197.31,360.27 C197.64,362.06 198.55,366.63 198.86,367.51 C199.12,368.24 203.96,373.10 205.28,374.16 C207.00,375.50 210.59,377.36 212.89,378.22 C217.05,379.76 220.31,380.41 221.28,380.05 C224.15,378.82 233.18,371.26 234.96,369.47 C235.41,369.01 236.97,367.21 237.43,366.68" fill="none" stroke="rgb(33, 228, 63)" stroke-width="3.33" stroke-opacity="1.00" stroke-linejoin="round"/>
<path d="M198.28,350.56 C199.22,349.38 199.64,348.90 200.16,348.71 C202.61,347.85 205.17,347.89 206.31,348.37 C208.57,349.34 211.43,351.66 212.19,352.28 C211.23,353.04 207.35,354.55 205.59,354.80 C203.46,355.06 201.02,353.68 200.69,352.66 C200.62,352.45 200.50,351.90 200.30,351.02" fill="none" stroke="rgb(33, 228, 63)" stroke-width="3.33" stroke-opacity="1.00" stroke-linejoin="round"/>
<path d="M206.24,349.56 C206.04,349.77 205.92,349.92 205.87,350.01 C205.72,350.27 205.52,351.23 205.49,351.86 C205.46,352.88 205.62,353.72 205.92,354.32" fill="none" stroke="rgb(33, 228, 63)" stroke-width="3.33" stroke-opacity="1.00" stroke-linejoin="round"/>
<path d="M219.18,347.82 C219.18,347.82 219.18,348.32 219.18,348.32 C219.51,347.72 221.51,346.19 224.13,345.41 C225.48,345.02 227.02,344.86 227.61,345.04 C231.52,346.44 232.60,349.16 232.60,349.38 C231.98,350.01 228.76,351.57 226.46,351.98 C224.27,352.34 221.02,351.20 220.84,350.96 C220.84,350.96 221.34,348.77 221.34,348.77" fill="none" stroke="rgb(33, 228, 63)" stroke-width="3.33" stroke-opacity="1.00" stroke-linejoin="round"/>
<path d="M227.64,346.33 C227.59,346.56 227.55,346.75 227.51,346.91 C227.33,347.75 227.25,348.27 227.17,349.19 C227.12,349.75 227.16,349.95 227.31,350.10" fill="none" stroke="rgb(33, 228, 63)" stroke-width="3.33" stroke-opacity="1.00" stroke-linejoin="round"/>
<path d="M219.92,336.38 C219.24,336.22 218.83,336.11 218.68,336.06 C218.53,336.02 218.45,335.95 218.43,335.88 C222.69,335.91 227.94,338.57 228.84,339.09 C228.84,339.09 228.63,339.36 228.63,339.36" fill="none" stroke="rgb(33, 228, 63)" stroke-width="3.33" stroke-opacity="1.00" stroke-linejoin="round"/>
<path d="M209.72,334.14 C209.37,334.06 208.84,333.90 208.51,333.89 C205.87,333.78 202.92,334.42 201.42,335.23 C199.99,336.05 198.07,338.35 197.95,338.72 C197.95,338.72 199.02,340.36 199.02,340.36" fill="none" stroke="rgb(33, 228, 63)" stroke-width="3.33" stroke-opacity="1.00" stroke-linejoin="round"/>
<path d="M216.44,349.56 C216.44,349.56 216.44,349.31 216.44,349.31 C216.52,353.08 214.30,358.89 214.09,359.72 C213.94,360.34 213.97,360.87 214.08,361.14 C214.73,361.72 218.48,363.47 218.71,363.61 C218.76,363.63 218.87,363.72 219.05,363.87" fill="none" stroke="rgb(33, 228, 63)" stroke-width="3.33" stroke-opacity="1.00" stroke-linejoin="round"/>
<path d="M215.45,368.48 C217.83,367.80 219.18,367.48 219.85,367.48 C219.96,367.48 220.19,367.49 220.56,367.51 C221.68,368.21 221.61,370.84 220.74,371.84 C219.85,372.79 216.39,373.78 215.88,373.44 C215.67,373.06 215.42,371.94 215.45,371.07 C215.46,370.78 215.53,370.33 215.66,369.69" fill="none" stroke="rgb(33, 228, 63)" stroke-width="3.33" stroke-opacity="1.00" stroke-linejoin="round"/>
<path d="M230.87,376.69 C230.87,376.69 230.87,376.56 230.87,376.56 C230.87,376.56 230.75,376.44 230.75,376.44 C230.75,376.44 230.62,376.44 230.62,376.44 C230.63,376.43 229.14,382.84 228.89,386.03 C228.46,392.03 229.17,401.00 229.37,403.41 C229.39,403.71 229.39,403.98 229.38,404.24" fill="none" stroke="rgb(33, 228, 63)" stroke-width="3.33" stroke-opacity="1.00" stroke-linejoin="round"/>
<path d="M208.98,378.43 C209.00,379.54 210.11,386.52 210.50,390.41 C210.91,394.61 208.88,402.36 208.48,403.81 C205.96,403.76 193.96,405.80 193.80,405.81 C193.71,405.82 193.54,405.81 193.30,405.80" fill="none" stroke="rgb(33, 228, 63)" stroke-width="3.33" stroke-opacity="1.00" stroke-linejoin="round"/>
<path d="M184.34,405.80 C183.75,405.72 182.05,405.29 178.33,405.30 C174.75,405.33 170.57,406.12 168.97,406.59 C168.14,406.85 161.63,410.40 160.39,411.41 C158.28,413.16 154.80,418.48 153.38,422.00 C152.32,424.73 151.82,428.60 152.33,429.75 C152.60,430.33 153.57,431.65 153.70,432.18 C153.42,432.88 145.78,442.54 143.00,447.31 C139.84,452.77 135.71,464.01 134.04,471.41 C132.68,477.46 131.18,491.71 131.59,497.22 C131.82,500.08 132.91,504.82 133.65,506.95 C134.85,510.33 136.76,513.31 139.04,516.22 C141.10,518.76 144.31,521.57 146.30,522.69 C153.90,526.64 154.82,526.97 156.62,527.47" fill="none" stroke="rgb(33, 228, 63)" stroke-width="3.33" stroke-opacity="1.00" stroke-linejoin="round"/>
<path d="M184.19,490.13 C184.20,490.01 184.18,489.91 184.19,489.84 C184.48,488.15 180.90,451.69 179.79,444.31 C178.18,434.57 177.50,429.53 177.30,428.63 C176.41,428.52 169.46,437.63 166.20,444.16 C163.43,449.76 159.35,461.04 156.87,469.73 C155.60,474.20 152.97,489.14 153.12,495.23 C153.24,498.48 153.94,501.81 154.99,503.90 C156.99,507.77 162.08,512.71 162.33,512.87 C162.60,513.05 163.43,513.53 164.81,514.33" fill="none" stroke="rgb(33, 228, 63)" stroke-width="3.33" stroke-opacity="1.00" stroke-linejoin="round"/>
<path d="M161.61,529.01 C162.71,529.41 165.76,530.54 166.08,530.64 C167.38,531.03 173.80,531.86 174.64,531.85 C177.40,531.77 190.63,528.10 193.44,527.51 C202.79,525.59 215.30,521.38 215.77,521.35 C219.67,521.10 224.70,519.25 225.29,519.00 C227.23,518.18 232.25,516.59 233.37,516.14 C232.81,512.69 231.63,505.44 231.38,502.96 C231.21,501.36 230.15,500.73 228.98,501.16 C227.72,501.66 221.58,505.78 219.59,506.77 C213.94,509.54 198.19,513.18 191.46,513.85 C183.21,514.64 167.37,514.33 164.25,513.08 C164.02,512.98 163.71,512.77 163.32,512.43" fill="none" stroke="rgb(33, 228, 63)" stroke-width="3.33" stroke-opacity="1.00" stroke-linejoin="round"/>
<path d="M234.23,508.42 C234.64,508.35 241.69,510.61 243.15,510.78 C244.37,510.91 246.97,511.02 247.54,511.00 C247.54,511.00 246.29,510.76 246.29,510.76" fill="none" stroke="rgb(33, 228, 63)" stroke-width="3.33" stroke-opacity="1.00" stroke-linejoin="round"/>
<path d="M234.51,515.00 C234.51,515.00 234.63,515.36 234.63,515.36 C236.73,516.37 241.53,518.00 245.64,518.15 C248.73,518.24 252.34,518.12 253.86,518.98 C256.03,520.23 259.02,521.01 259.91,520.61 C260.69,520.18 262.40,515.77 262.74,512.38 C263.05,508.93 261.95,503.36 260.54,501.30 C259.22,499.45 254.75,497.11 252.46,497.47 C250.51,497.82 247.67,500.16 246.89,502.16 C245.56,505.74 248.43,511.49 248.70,512.00 C248.70,512.00 248.59,511.93 248.59,511.93" fill="none" stroke="rgb(33, 228, 63)" stroke-width="3.33" stroke-opacity="1.00" stroke-linejoin="round"/>
<path d="M240.80,501.85 C240.31,503.62 244.53,509.84 244.72,510.06 C244.79,510.16 244.92,510.38 245.09,510.71" fill="none" stroke="rgb(33, 228, 63)" stroke-width="3.33" stroke-opacity="1.00" stroke-linejoin="round"/>
<path d="M229.94,401.21 C229.94,401.21 229.65,401.50 229.65,401.50 C232.14,402.17 237.50,403.52 240.30,403.67 C248.28,404.01 256.90,401.75 258.52,402.05 C261.07,402.60 264.66,405.98 265.92,408.76 C266.24,409.47 270.32,419.59 270.90,420.85 C271.87,422.92 274.67,427.02 275.06,428.01 C276.03,430.78 276.95,432.71 277.36,433.49 C277.36,433.49 277.20,433.56 277.20,433.56" fill="none" stroke="rgb(33, 228, 63)" stroke-width="3.33" stroke-opacity="1.00" stroke-linejoin="round"/>
<path d="M285.12,441.81 C285.23,442.05 288.19,444.31 290.66,447.73 C293.12,451.14 298.37,457.57 299.05,458.53 C299.95,459.81 307.57,474.05 309.70,478.73 C312.36,484.62 314.53,490.81 318.01,503.06 C319.91,509.75 325.49,525.21 327.28,529.10 C330.37,535.60 336.73,548.99 337.37,552.28 C337.41,552.52 337.45,552.89 337.47,553.41" fill="none" stroke="rgb(33, 228, 63)" stroke-width="3.33" stroke-opacity="1.00" stroke-linejoin="round"/>
<path d="M248.23,435.23 C248.25,435.78 251.21,437.96 252.87,439.84 C256.32,443.82 261.37,452.93 263.30,455.15 C264.56,456.60 268.45,460.48 269.67,462.01 C270.41,462.93 271.67,465.21 272.18,465.99 C272.37,466.29 272.64,466.60 272.97,466.92" fill="none" stroke="rgb(33, 228, 63)" stroke-width="3.33" stroke-opacity="1.00" stroke-linejoin="round"/>
<path d="M281.40,480.41 C281.40,480.41 281.11,480.41 281.11,480.41 C283.16,482.20 287.77,491.14 292.41,499.30 C295.96,505.26 300.82,513.20 303.33,520.03 C304.88,524.14 312.41,539.45 313.61,542.23 C315.18,545.87 320.89,561.68 321.91,563.26 C321.91,563.26 322.28,562.46 322.28,562.46" fill="none" stroke="rgb(33, 228, 63)" stroke-width="3.33" stroke-opacity="1.00" stroke-linejoin="round"/>
<path d="M321.71,562.17 C321.66,562.22 321.62,562.27 321.57,562.32 C321.52,562.36 321.47,562.41 321.43,562.46 C322.46,562.45 339.17,556.96 341.24,556.49 C341.59,556.42 341.89,556.40 342.14,556.46" fill="none" stroke="rgb(33, 228, 63)" stroke-width="3.33" stroke-opacity="1.00" stroke-linejoin="round"/>
<path d="M329.72,563.32 C329.06,564.62 328.68,565.45 328.64,565.84 C328.58,567.09 330.77,570.63 332.23,572.15 C334.93,574.89 339.22,576.67 341.66,576.43 C342.66,576.29 343.94,575.60 344.36,574.96 C345.15,573.60 344.66,570.32 343.60,568.03 C342.94,566.62 342.40,565.63 341.97,565.04 C341.65,564.60 341.03,563.96 340.12,563.13" fill="none" stroke="rgb(33, 228, 63)" stroke-width="3.33" stroke-opacity="1.00" stroke-linejoin="round"/>
<path d="M255.95,444.38 C255.95,443.99 255.95,443.75 255.95,443.67 C255.96,443.58 255.97,443.54 255.99,443.53 C256.75,444.65 255.64,463.40 255.68,467.10 C255.71,470.11 256.19,476.73 256.82,480.05 C257.23,482.16 259.26,490.07 259.44,491.25 C259.52,491.77 259.60,492.61 259.67,493.78" fill="none" stroke="rgb(33, 228, 63)" stroke-width="3.33" stroke-opacity="1.00" stroke-linejoin="round"/>
<path d="M264.25,524.72 C264.25,524.72 263.96,524.72 263.96,524.72 C265.57,532.62 267.38,539.30 270.01,547.80 C270.98,550.89 273.15,555.66 275.14,558.67 C275.14,558.67 275.40,558.46 275.40,558.46" fill="none" stroke="rgb(33, 228, 63)" stroke-width="3.33" stroke-opacity="1.00" stroke-linejoin="round"/>
<path d="M188.20,531.58 C188.11,531.93 187.83,532.22 187.77,532.35 C187.57,532.84 188.48,557.53 188.48,567.32 C188.48,567.32 187.96,566.27 187.96,566.27" fill="none" stroke="rgb(33, 228, 63)" stroke-width="3.33" stroke-opacity="1.00" stroke-linejoin="round"/>
<path d="M185.62,560.17 C185.62,560.17 184.48,560.74 184.48,560.74 C185.89,560.80 191.82,562.26 193.03,562.36 C193.86,562.43 208.97,563.69 214.82,563.45 C220.86,563.14 232.34,562.63 240.19,563.09 C250.84,563.80 256.11,564.21 262.69,563.05 C265.62,562.52 275.13,560.84 276.82,560.46 C276.82,560.46 276.82,560.17 276.82,560.17" fill="none" stroke="rgb(33, 228, 63)" stroke-width="3.33" stroke-opacity="1.00" stroke-linejoin="round"/>
<path d="M201.94,567.59 C201.83,568.03 201.42,568.77 201.38,568.95 C201.06,570.33 200.46,587.69 200.40,593.60 C200.47,603.66 201.15,615.44 202.36,623.08 C203.88,633.56 206.18,657.34 209.10,678.86 C210.35,688.95 211.54,696.55 213.32,698.99 C214.21,700.19 216.50,705.45 216.98,707.84 C218.05,713.38 221.78,746.15 222.16,749.75 C222.36,751.58 222.53,752.59 222.66,752.93" fill="none" stroke="rgb(33, 228, 63)" stroke-width="3.33" stroke-opacity="1.00" stroke-linejoin="round"/>
<path d="M238.10,583.41 C238.10,583.41 236.97,583.41 236.97,583.41 C236.97,590.16 236.97,604.12 236.96,611.32 C237.08,623.56 237.61,628.76 239.98,639.71 C240.38,641.53 245.69,667.90 245.83,668.81 C246.88,675.34 247.31,689.95 247.34,697.39 C247.20,708.70 247.46,714.37 249.04,722.74 C250.34,729.87 250.81,739.11 250.90,739.44 C250.98,739.73 251.24,740.21 251.67,740.88" fill="none" stroke="rgb(33, 228, 63)" stroke-width="3.33" stroke-opacity="1.00" stroke-linejoin="round"/>
<path d="M269.37,561.94 C269.39,562.33 269.50,562.73 269.70,563.15 C270.12,564.03 274.06,571.00 275.06,573.87 C277.19,580.13 278.25,588.85 278.38,597.11 C278.35,630.18 278.16,675.71 278.00,688.16 C277.75,699.44 277.87,702.16 278.69,703.39 C279.08,703.94 281.52,705.44 282.36,706.06 C283.72,707.08 285.13,711.27 285.51,714.96 C285.64,716.23 285.81,718.00 285.88,718.98 C286.82,719.33 288.21,719.73 288.24,719.75 C288.97,720.17 289.77,721.46 289.84,722.47 C289.92,724.15 288.10,730.42 288.06,730.56 C287.87,731.39 288.99,738.87 288.96,741.49 C288.96,741.49 288.96,740.64 288.96,740.64" fill="none" stroke="rgb(33, 228, 63)" stroke-width="3.33" stroke-opacity="1.00" stroke-linejoin="round"/>
<path d="M238.33,148.06 C238.17,148.06 237.94,148.05 237.76,147.99 C237.42,147.77 235.01,142.56 234.51,140.00 C233.99,137.22 233.87,131.62 234.13,130.88 C234.43,130.16 235.75,129.76 236.66,130.30 C237.78,131.00 239.65,134.19 240.43,136.98 C241.22,139.95 241.65,146.32 241.72,146.58 C241.80,146.87 242.12,147.37 242.35,147.64" fill="none" stroke="rgb(255, 242, 0)" stroke-width="3.33" stroke-opacity="1.00" stroke-linejoin="round"/>
<path d="M243.39,151.35 C240.75,150.87 234.71,149.82 231.68,149.84 C229.09,149.87 214.33,154.27 207.09,156.41 C200.11,158.48 192.80,162.38 182.03,168.82 C174.03,173.72 166.04,179.32 160.34,184.05 C155.46,188.11 146.65,196.99 140.90,204.30 C136.93,209.42 130.68,219.16 127.69,225.11 C124.45,231.75 120.73,240.85 119.21,245.08 C116.69,252.25 114.94,260.56 114.21,265.72 C114.21,265.72 114.85,264.33 114.85,264.33" fill="none" stroke="rgb(255, 242, 0)" stroke-width="3.33" stroke-opacity="1.00" stroke-linejoin="round"/>
<path d="M116.29,252.22 C115.66,252.95 115.10,253.82 114.43,255.17 C112.77,258.57 110.73,267.74 110.83,273.26 C110.95,278.24 112.07,284.57 112.22,285.33 C112.22,285.33 112.78,285.64 112.78,285.64" fill="none" stroke="rgb(255, 242, 0)" stroke-width="3.33" stroke-opacity="1.00" stroke-linejoin="round"/>
<path d="M117.73,289.40 C117.73,289.40 117.45,289.17 117.45,289.17 C117.57,288.18 119.44,286.19 122.26,283.97 C123.91,282.68 129.14,279.29 131.16,278.85 C132.78,278.50 143.24,277.43 145.54,277.73 C151.52,278.58 163.10,284.84 170.40,289.12 C176.52,292.77 185.41,299.80 185.47,299.81 C185.61,299.85 186.09,299.94 186.90,300.06" fill="none" stroke="rgb(255, 242, 0)" stroke-width="3.33" stroke-opacity="1.00" stroke-linejoin="round"/>
<path d="M224.66,167.49 C224.15,167.24 223.24,167.14 222.40,167.32 C221.30,167.58 217.99,170.90 215.53,174.31 C209.61,182.55 206.09,189.10 203.02,196.36 C196.96,211.07 193.72,225.04 189.52,246.89 C188.86,250.60 187.43,282.45 187.51,298.73 C187.51,298.73 188.34,299.49 188.34,299.49" fill="none" stroke="rgb(255, 242, 0)" stroke-width="3.33" stroke-opacity="1.00" stroke-linejoin="round"/>
<path d="M189.21,301.51 C189.21,301.51 189.06,301.51 189.06,301.51 C188.87,301.29 189.01,299.39 190.99,295.76 C192.32,293.37 194.78,290.51 196.61,289.20 C200.31,286.63 209.15,283.75 218.69,281.54 C223.39,280.47 229.48,279.93 233.78,280.52 C244.07,282.01 260.62,289.16 265.33,291.56 C269.63,293.71 271.48,294.26 273.93,293.64 C274.52,293.47 276.21,292.63 276.53,292.23 C276.70,292.01 277.11,291.39 277.73,290.38" fill="none" stroke="rgb(255, 242, 0)" stroke-width="3.33" stroke-opacity="1.00" stroke-linejoin="round"/>
<path d="M249.44,172.96 C249.44,172.96 249.30,173.25 249.30,173.25 C249.30,173.25 249.16,173.25 249.16,173.25 C251.79,174.28 253.68,176.18 255.57,179.11 C258.82,184.21 264.24,198.09 266.45,205.14 C268.22,210.93 272.77,234.65 272.79,234.76 C273.19,237.08 274.81,252.82 275.31,262.91 C275.55,270.27 275.92,285.66 275.97,286.10 C276.03,286.56 276.22,287.28 276.54,288.25" fill="none" stroke="rgb(255, 242, 0)" stroke-width="3.33" stroke-opacity="1.00" stroke-linejoin="round"/>
<path d="M248.87,148.47 C248.82,148.48 255.24,147.65 257.68,147.60 C265.83,147.45 290.95,150.09 298.76,151.98 C301.45,152.65 338.54,169.53 346.89,175.06 C352.21,178.64 365.89,192.10 368.38,194.42 C372.59,198.35 381.32,207.76 385.36,213.41 C392.90,224.12 403.24,238.84 412.34,250.82 C414.23,253.43 426.04,274.97 429.52,280.78 C429.52,280.78 429.00,281.33 429.00,281.33" fill="none" stroke="rgb(255, 242, 0)" stroke-width="3.33" stroke-opacity="1.00" stroke-linejoin="round"/>
<path d="M275.67,292.57 C275.67,292.57 275.38,292.57 275.38,292.57 C275.32,292.61 278.59,289.29 281.26,287.56 C286.90,284.03 295.38,277.57 298.50,276.16 C301.62,274.78 306.30,272.94 307.05,272.74 C309.97,272.01 315.68,272.39 317.15,272.92 C318.94,273.62 322.33,278.98 323.42,280.55 C326.44,284.86 328.84,287.69 330.94,289.36 C334.00,291.83 337.10,294.05 340.11,295.78 C342.53,297.13 345.65,297.77 347.79,297.71 C349.49,297.60 352.47,294.28 354.30,292.15 C357.63,288.54 368.49,280.97 374.20,278.26 C377.99,276.50 383.72,275.29 387.45,276.08 C390.29,276.71 396.12,279.12 398.85,280.74 C402.04,282.73 407.96,286.29 410.51,287.28 C412.73,288.12 418.30,289.35 419.66,289.30 C421.86,289.20 424.35,288.65 425.15,288.02 C426.17,287.15 430.62,280.41 431.67,279.91 C432.68,279.50 434.03,279.46 435.20,279.85 C437.72,280.76 441.90,284.84 442.82,286.12 C442.94,286.28 443.04,286.51 443.12,286.81" fill="none" stroke="rgb(255, 242, 0)" stroke-width="3.33" stroke-opacity="1.00" stroke-linejoin="round"/>
<path d="M273.94,172.10 C273.94,172.10 273.65,171.38 273.65,171.38 C273.65,171.38 273.86,170.70 273.86,170.70 C277.02,170.67 280.69,171.26 284.11,173.01 C291.33,176.72 306.58,186.19 307.15,186.56 C308.28,187.29 319.82,195.91 323.35,198.49 C327.74,201.78 335.33,209.24 338.45,213.22 C341.53,217.18 349.49,229.84 351.02,233.16 C352.80,237.06 360.30,265.51 360.36,266.32 C360.36,266.32 357.52,266.34 357.52,266.34" fill="none" stroke="rgb(255, 242, 0)" stroke-width="3.33" stroke-opacity="1.00" stroke-linejoin="round"/>
<path d="M261.45,293.51 C261.45,293.51 260.53,290.87 260.53,290.87 C260.55,297.55 262.94,305.78 264.47,313.73 C267.22,327.61 272.38,354.41 274.79,367.33 C277.00,379.26 278.16,394.19 278.40,397.40 C278.85,403.29 278.96,415.42 278.67,424.29 C278.03,436.41 277.21,446.38 276.01,454.11 C274.78,461.27 271.97,477.37 271.39,479.28 C269.76,484.50 264.95,495.46 261.79,500.93 C260.21,503.62 245.39,521.55 244.00,523.07 C240.37,526.98 236.46,528.79 236.29,528.82 C236.29,528.82 235.44,526.79 235.44,526.79" fill="none" stroke="rgb(255, 242, 0)" stroke-width="3.33" stroke-opacity="1.00" stroke-linejoin="round"/>
<path d="M269.11,295.65 C269.11,295.65 269.11,295.50 269.11,295.50 C269.13,296.06 269.46,298.16 269.87,300.20 C273.06,316.33 275.00,332.45 278.14,350.13 C280.13,361.12 281.17,371.90 281.86,379.52 C282.87,388.75 283.14,395.23 283.24,406.35 C283.24,414.53 283.15,434.18 282.95,437.79 C282.54,442.82 281.44,459.75 281.13,462.69 C280.35,469.72 276.61,485.85 274.21,490.80 C273.75,491.73 270.83,496.98 270.02,498.92 C267.40,505.70 264.50,510.65 260.84,514.83 C258.35,517.64 255.15,518.84 254.48,518.98 C254.48,518.98 253.80,514.23 253.80,514.23" fill="none" stroke="rgb(255, 242, 0)" stroke-width="3.33" stroke-opacity="1.00" stroke-linejoin="round"/>
<path d="M14.74,12.90 C14.17,23.61 10.65,52.47 10.42,68.86 C10.42,75.65 10.43,92.73 11.38,92.17 C12.53,81.36 19.85,61.29 21.24,58.70 C21.30,60.16 15.98,97.16 13.74,112.99 C12.20,125.89 10.77,150.65 10.53,169.90 C10.50,186.37 10.64,216.57 10.81,230.31 C10.90,237.01 11.86,253.97 12.58,259.95 C15.27,279.91 16.12,283.06 16.65,284.87 C16.06,270.28 15.21,239.96 15.25,224.52 C15.68,208.96 16.70,179.38 17.86,167.65 C18.74,159.22 20.50,142.54 21.37,134.29 C22.55,123.57 30.08,83.55 30.55,78.75 C31.43,69.86 32.90,61.39 33.73,54.21 C34.49,46.99 36.24,23.16 36.40,23.27 C37.22,26.79 38.78,42.19 39.18,51.96 C39.33,59.69 38.82,70.32 37.65,78.82 C36.48,86.30 33.63,104.16 33.45,105.57 C33.02,108.91 28.82,157.12 28.68,164.18 C28.46,179.86 28.20,210.67 28.15,225.80 C28.11,238.78 24.82,273.15 24.79,287.31 C24.79,288.03 24.79,288.74 24.79,289.45 C24.79,289.45 32.17,240.11 32.17,240.11 C32.17,240.11 34.36,274.48 34.36,274.48 C34.38,260.34 34.56,230.30 34.73,214.38 C35.29,199.85 37.45,168.09 38.97,152.91 C40.96,135.21 45.02,110.76 48.13,98.86 C50.56,90.35 57.02,73.67 58.67,69.11 C59.85,65.98 68.69,46.84 70.52,42.16 C71.37,39.96 73.26,34.69 73.62,33.68 C73.65,33.64 71.35,70.09 71.54,83.76 C71.83,100.82 72.42,141.78 72.69,145.05 C72.69,145.05 73.08,144.28 73.08,144.28" fill="none" stroke="rgb(0, 165, 255)" stroke-width="3.33" stroke-opacity="1.00" stroke-linejoin="round"/>
<path d="M57.84,91.91 C56.14,96.64 55.02,100.63 54.57,104.24 C53.53,112.87 53.50,145.67 53.49,161.79 C53.30,177.17 52.40,191.85 49.17,217.47 C47.75,230.55 45.65,257.97 44.91,266.71 C45.57,261.48 47.98,247.70 49.36,240.00 C52.56,223.30 57.40,209.31 59.19,206.57 C60.17,209.07 60.59,210.73 60.58,212.86 C60.48,223.13 58.45,258.91 58.34,271.23 C58.33,274.90 58.32,279.70 58.32,280.84 C58.87,278.17 61.44,260.47 62.63,252.46 C64.10,243.52 65.99,235.30 67.50,231.99 C67.50,231.99 69.89,232.39 69.89,232.39 C69.89,232.39 73.16,252.22 73.16,252.22 C72.73,229.72 73.33,210.88 74.24,194.77 C75.39,179.93 78.45,149.95 80.23,135.71 C82.12,122.29 87.98,88.07 88.91,82.19 C92.38,57.81 96.39,36.73 98.45,33.71 C98.26,43.68 94.58,75.06 92.73,89.92 C90.68,105.63 86.81,136.71 84.99,152.07 C83.53,166.27 81.35,196.78 80.79,212.00 C80.27,242.85 79.57,280.99 79.39,288.26 C79.43,276.32 81.64,244.62 83.10,234.55 C84.33,226.92 87.03,210.94 88.50,202.58 C89.90,195.49 92.04,185.04 94.19,180.11 C95.08,180.93 95.49,181.76 95.62,183.53 C97.54,210.97 96.80,244.07 96.63,247.08 C97.20,240.94 100.09,222.83 101.02,218.50 C102.60,211.18 106.00,204.47 106.37,203.37 C106.78,202.09 105.62,157.55 105.55,143.62 C105.77,128.14 108.19,101.92 110.74,89.48 C112.98,79.07 115.46,69.50 117.01,63.16 C119.24,53.11 120.01,47.99 120.63,38.25 C120.96,32.64 121.01,30.23 121.05,28.33 C120.62,37.09 116.35,71.31 114.11,88.29 C111.47,108.98 108.79,137.98 108.89,144.51 C108.99,150.84 111.16,186.56 111.95,198.11 C111.97,191.50 112.08,177.48 112.27,170.73 C112.73,160.79 116.72,131.19 119.92,113.33 C123.74,94.41 129.05,72.21 130.35,68.17 C131.22,73.00 125.65,175.62 125.92,184.42 C126.16,190.90 126.65,192.99 127.36,194.60 C128.37,193.59 129.42,186.70 129.68,185.05 C132.08,168.58 135.91,140.65 137.42,123.45 C138.56,107.44 141.43,67.02 142.28,61.81 C144.09,51.47 146.25,42.38 149.77,32.14 C150.78,29.24 152.79,23.55 153.14,23.47 C153.41,27.24 153.30,40.76 152.90,45.81 C151.34,61.26 147.67,91.55 146.13,106.40 C144.79,123.43 144.13,150.47 144.68,161.47 C144.90,164.88 145.36,171.82 145.61,175.35 C145.89,178.82 146.34,184.65 147.67,188.37 C147.93,186.64 150.35,145.02 152.14,129.70 C156.26,99.70 161.77,59.17 162.12,55.02 C163.19,41.78 163.27,41.63 163.27,41.67 C163.80,50.65 161.69,84.13 160.56,101.37 C159.10,126.33 158.92,139.42 158.89,142.89" fill="none" stroke="rgb(0, 165, 255)" stroke-width="3.33" stroke-opacity="1.00" stroke-linejoin="round"/>
<path d="M159.84,153.69 C159.84,153.69 160.80,155.37 160.80,155.37 C161.91,149.14 164.63,132.73 165.12,128.07 C166.38,113.48 169.15,84.45 171.81,68.55 C174.43,54.20 177.25,38.63 177.44,37.40 C177.47,39.16 173.60,75.63 172.50,88.23 C171.49,105.10 171.29,132.65 172.39,140.55 C173.31,146.91 175.80,154.92 176.13,155.99" fill="none" stroke="rgb(0, 165, 255)" stroke-width="3.33" stroke-opacity="1.00" stroke-linejoin="round"/>
<path d="M177.56,157.52 C177.42,149.24 178.93,136.00 179.78,128.76 C184.24,96.41 190.50,52.74 192.73,40.99 C193.20,45.26 192.40,92.05 192.35,101.90 C192.45,115.74 196.15,130.76 196.97,133.97" fill="none" stroke="rgb(0, 165, 255)" stroke-width="3.33" stroke-opacity="1.00" stroke-linejoin="round"/>
<path d="M199.59,136.93 C199.63,133.41 198.65,118.32 198.32,111.04 C197.93,99.97 197.93,93.42 198.38,84.00 C199.05,72.43 204.42,43.58 206.50,38.24 C207.27,43.80 207.21,55.72 206.66,65.60 C205.52,81.24 202.82,115.35 203.18,124.62 C203.54,132.59 205.86,136.58 206.69,137.61 C207.92,135.12 208.67,129.20 208.55,123.43 C208.27,113.50 209.09,98.94 209.57,94.51 C210.46,86.31 214.09,69.44 215.28,65.12 C220.41,46.58 224.82,38.88 225.41,37.92 C226.02,38.35 225.68,53.05 223.70,75.65 C222.04,94.51 220.87,118.49 221.71,126.38 C222.52,133.65 226.01,140.09 228.17,143.08 C228.45,140.85 228.73,94.50 229.62,83.32 C230.48,73.93 232.07,64.09 234.05,55.05 C235.40,49.18 239.27,37.73 241.06,34.49 C242.75,31.46 243.64,30.43 244.17,30.14 C244.94,36.69 244.44,52.86 244.00,61.11 C242.75,77.85 239.78,110.97 239.96,121.59 C240.05,125.23 240.76,129.38 241.99,132.19 C242.52,133.36 243.49,134.27 244.85,135.13 C245.47,133.10 246.56,116.99 247.18,109.78 C247.88,103.34 249.79,89.61 251.09,82.42 C254.27,66.96 261.41,43.25 262.17,41.91 C262.20,46.30 257.92,86.00 256.13,101.87 C255.79,105.23 254.89,125.45 255.66,127.55 C255.80,127.92 256.21,128.87 256.90,130.38 C257.30,123.34 258.10,110.20 259.09,102.56 C259.95,96.73 262.19,83.92 263.58,77.23 C265.20,70.40 268.84,56.76 270.82,50.13 C276.06,34.23 284.87,11.78 286.75,8.67 C287.80,15.86 288.04,26.83 287.35,35.19 C285.82,50.55 282.96,80.54 282.61,92.72 C282.48,135.96 284.60,154.76 285.31,157.56 C285.58,156.68 288.40,115.70 289.77,100.45 C290.40,92.35 291.48,77.56 291.54,74.27 C291.75,74.75 296.12,106.97 297.46,111.28 C298.96,116.00 300.18,118.30 301.80,120.81 C301.90,119.72 297.77,100.90 297.21,97.73 C296.31,92.59 295.11,80.09 295.21,71.90 C295.34,65.78 297.10,52.43 298.92,45.60 C302.91,31.14 309.70,15.77 312.53,11.26 C313.13,12.45 313.28,25.16 312.54,35.91 C311.21,53.05 308.46,92.28 308.48,100.97 C308.58,109.51 309.28,120.81 310.66,126.35 C310.79,125.96 311.35,107.65 311.61,100.29 C311.78,97.04 313.82,80.19 314.85,72.80 C317.47,56.67 324.64,29.19 326.18,25.23 C326.70,27.08 326.34,41.48 325.47,52.36 C323.81,68.10 320.62,98.55 319.09,113.25 C317.58,129.95 318.51,146.62 319.20,149.22 C319.32,147.43 319.50,129.79 319.76,123.68 C320.58,109.44 324.23,83.04 326.67,70.98 C329.12,60.22 332.17,49.07 334.61,43.01 C335.57,40.64 338.34,35.66 339.63,34.05 C340.52,35.53 340.79,36.41 340.64,37.99 C338.93,58.17 331.70,112.17 330.78,123.42 C330.28,130.69 330.42,146.88 330.57,149.95 C331.41,166.88 335.25,174.11 336.96,176.44 C337.43,172.89 337.71,157.83 338.41,147.44 C339.05,140.33 340.66,124.65 341.45,119.67 C342.68,112.55 344.99,99.85 347.10,90.58 C348.45,85.07 352.46,70.92 355.01,63.15 C356.46,58.92 362.72,43.73 365.16,39.55 C367.59,35.53 368.38,34.44 369.80,32.65 C370.58,35.49 370.43,39.43 369.47,45.19 C366.43,60.79 360.60,91.72 358.96,102.95 C358.02,110.43 356.42,124.16 356.04,131.95 C355.76,139.63 355.28,157.93 355.46,162.29 C355.97,171.70 356.72,175.91 357.19,178.00 C357.46,177.12 357.33,160.53 357.31,152.74 C357.52,145.58 358.28,133.03 358.90,126.39 C359.67,119.63 361.72,105.95 363.02,99.05 C364.42,92.28 367.50,79.27 369.59,72.13 C375.15,53.62 379.72,46.85 381.01,45.46 C381.65,49.28 377.75,84.41 375.90,100.61 C375.18,107.76 374.15,120.89 373.88,129.75 C373.71,142.37 375.56,163.25 376.26,164.31 C376.05,151.87 376.56,125.39 377.67,112.84 C379.06,99.58 383.85,71.62 386.96,58.96 C390.89,44.14 397.78,27.14 400.96,21.66 C402.27,19.40 403.62,17.79 405.44,16.21 C406.30,19.93 405.67,26.11 405.26,29.77 C403.70,41.48 398.21,73.01 395.57,87.86 C393.28,102.80 389.56,132.79 388.03,148.52 C386.89,163.00 384.96,193.82 384.55,209.00 C384.52,216.56 385.62,233.76 386.30,238.37 C387.69,247.66 389.63,254.68 390.71,257.73 C391.10,257.27 391.47,240.92 392.05,233.54 C393.59,217.88 397.51,188.82 399.96,173.68 C407.96,127.89 411.62,113.86 412.10,112.59 C411.67,120.73 408.41,156.24 407.47,170.63 C407.17,176.24 407.13,195.12 407.48,199.52 C407.81,203.35 408.66,205.99 409.51,207.85 C410.10,204.60 410.10,191.28 410.64,181.76 C411.26,173.23 413.13,159.51 414.50,154.40 C414.90,152.94 415.38,152.18 416.25,151.42 C417.43,154.30 419.35,170.60 420.23,178.08 C423.05,198.82 427.34,205.52 428.90,207.77 C429.48,207.14 428.11,184.53 427.25,169.59 C426.71,155.24 425.97,126.02 425.75,111.15 C425.88,95.35 427.07,65.51 428.81,48.67 C429.21,45.05 429.88,38.93 430.42,35.40 C430.33,41.03 428.15,76.86 427.20,91.08 C426.42,104.08 425.33,138.63 425.34,149.36 C425.45,157.11 426.72,172.98 428.50,176.72 C428.98,173.09 429.87,156.08 430.41,149.05 C431.81,134.78 434.69,111.49 437.87,93.59 C441.46,74.73 448.43,46.01 450.53,39.31 C451.44,42.49 447.89,78.19 446.25,93.13 C444.14,111.24 440.31,143.98 438.61,158.62 C436.55,176.90 433.74,210.53 433.93,214.79 C434.20,214.83 434.59,202.49 435.25,192.86 C436.61,176.70 440.36,145.52 442.62,130.38 C445.06,115.81 451.47,82.92 454.00,72.32 C456.08,64.41 459.65,52.20 460.91,48.53 C461.61,49.63 461.75,50.37 461.49,52.14 C457.25,83.77 450.21,136.97 446.89,171.96 C446.31,179.49 445.55,194.07 445.21,201.89 C444.99,213.57 445.29,224.80 446.26,228.28 C446.85,230.34 447.60,231.75 448.42,232.51 C450.41,230.01 451.13,228.77 451.44,227.01 C452.98,218.37 457.49,184.87 459.86,169.15 C462.30,155.17 468.39,125.16 471.97,110.18 C475.90,95.37 482.54,72.71 488.98,54.26 C494.65,38.72 503.24,19.17 505.89,15.21 C505.87,20.10 497.90,55.06 494.32,70.49 C487.21,101.47 474.01,163.16 466.73,197.26 C465.02,205.18 462.07,218.96 460.82,224.83 C458.87,233.83 459.41,237.11 460.03,237.94 C462.40,236.10 463.34,235.12 463.81,233.74 C465.61,228.76 473.60,194.39 477.09,179.66 C480.88,165.52 489.88,135.49 494.51,123.32 C501.79,105.09 507.84,93.59 510.20,90.12 C510.59,92.57 510.35,96.01 509.48,99.68 C501.82,129.12 486.74,187.62 479.32,216.68 C477.45,223.45 473.41,237.77 471.24,245.33 C468.05,256.99 468.23,260.69 468.65,262.72 C468.65,262.72 470.85,264.56 470.85,264.56 C472.61,262.25 473.21,261.07 473.48,259.12 C475.62,245.38 480.90,214.23 483.30,203.74 C484.91,197.14 488.54,183.70 490.69,176.50 C493.17,168.86 498.86,153.17 500.58,149.12 C504.29,140.66 506.74,135.88 508.80,132.66 C509.41,133.44 508.74,137.89 508.21,140.66 C501.98,171.97 489.53,231.46 483.32,259.62 C482.04,266.04 479.61,281.49 479.79,285.97 C479.97,289.93 480.99,295.48 482.00,298.35 C482.95,300.93 485.43,305.43 487.25,307.46 C487.25,307.46 489.40,307.14 489.40,307.14 C490.01,304.74 494.23,261.50 496.10,247.54 C498.31,233.60 504.17,203.15 507.02,189.03" fill="none" stroke="rgb(0, 165, 255)" stroke-width="3.33" stroke-opacity="1.00" stroke-linejoin="round"/>
<path d="M511.83,177.16 C511.83,177.16 526.08,131.42 526.08,131.42 C526.36,133.98 509.18,215.64 502.40,247.66 C500.07,259.94 494.31,295.53 494.24,303.76 C494.26,309.12 494.47,313.14 495.07,314.96 C496.41,318.82 497.43,320.40 498.46,321.46 C498.46,321.46 498.42,316.52 498.42,316.52" fill="none" stroke="rgb(0, 165, 255)" stroke-width="3.33" stroke-opacity="1.00" stroke-linejoin="round"/>
<path d="M11.01,289.12 C10.17,289.76 9.34,293.73 10.33,298.41 C11.98,305.03 12.96,314.34 13.37,324.77 C14.08,370.04 13.03,387.43 12.72,445.39 C12.19,459.97 11.91,487.79 12.09,502.50 C12.75,523.71 16.00,588.30 17.88,621.31 C18.94,638.02 22.17,666.41 24.09,682.67 C24.97,689.98 26.77,696.65 27.10,697.85 C24.89,681.75 22.06,653.50 20.64,637.83 C18.41,605.84 16.44,562.12 15.94,546.76 C15.83,536.19 16.14,523.08 17.25,517.27 C17.74,514.75 18.44,513.06 18.91,512.10 C20.94,514.75 23.11,521.10 23.87,524.08 C28.23,541.52 36.86,613.77 39.84,628.96 C39.89,628.99 31.30,558.23 29.59,542.41 C28.74,529.63 27.71,499.67 27.35,484.92 C26.87,470.12 24.71,435.48 24.25,425.88 C23.78,411.19 24.71,382.29 25.40,367.37 C25.74,360.32 26.55,345.65 27.27,339.56 C27.89,334.53 33.74,306.36 34.23,303.55 C35.60,305.48 37.99,321.42 38.30,325.14 C38.72,330.33 40.00,373.01 40.35,390.19 C40.40,414.78 39.88,428.43 37.39,444.61 C36.39,451.47 35.07,462.37 34.52,471.22 C34.15,478.30 34.79,484.99 35.65,486.23 C36.95,476.42 38.29,468.31 40.28,458.76 C42.21,449.99 44.81,443.54 46.83,439.83 C47.84,440.74 49.27,446.47 49.87,450.09 C51.50,460.11 52.41,496.15 52.66,512.58 C52.78,527.28 53.24,553.76 54.38,570.05 C55.61,583.45 59.43,616.21 61.29,627.88 C64.08,642.72 67.94,663.15 71.34,685.97 C72.32,693.33 72.59,701.02 72.62,701.90 C70.09,686.52 64.64,651.58 63.57,641.10 C62.61,630.15 61.36,602.54 61.24,582.99 C61.12,567.17 60.22,538.17 59.30,523.90 C58.00,507.09 54.99,481.92 53.16,467.35 C52.05,457.44 51.90,428.84 52.87,422.21 C54.17,427.45 57.49,453.39 59.42,474.89 C64.19,534.17 64.39,535.61 64.52,536.55 C61.19,516.37 58.11,493.27 56.63,474.54 C54.81,443.02 51.15,360.36 51.19,351.78 C51.38,344.24 51.92,331.51 52.55,326.09 C54.04,314.49 55.56,304.82 57.25,299.15 C59.54,301.09 60.52,302.22 60.78,303.45 C62.18,309.99 63.46,319.68 63.84,327.16 C64.75,357.37 66.32,403.46 69.15,448.41 C71.31,482.96 74.03,528.84 74.04,533.11 C72.15,520.65 67.97,486.00 67.08,475.73 C66.34,463.17 65.43,432.58 65.51,418.43 C65.86,404.70 67.29,379.46 69.19,360.90 C71.00,346.26 76.10,314.26 78.39,303.87 C82.45,286.75 86.70,276.20 88.18,273.88 C89.89,276.98 90.72,279.00 91.11,282.12 C92.43,294.52 93.12,324.15 93.35,339.72 C93.29,355.46 92.80,387.08 92.39,402.96 C91.68,418.97 90.45,450.23 90.27,461.29 C90.17,470.19 92.09,507.55 92.92,523.53 C93.54,538.69 95.93,564.82 97.40,580.24 C97.50,581.47 98.13,598.81 98.42,606.27 C99.04,617.05 100.52,629.89 100.58,631.49 C95.50,616.74 87.02,591.28 82.77,575.22 C79.25,560.60 75.09,541.19 74.51,538.44 C74.85,542.53 80.30,583.24 81.68,597.66 C84.31,631.79 89.14,695.60 89.20,699.06 C88.56,683.37 87.62,654.43 87.92,639.03 C88.15,632.65 90.15,616.53 91.31,611.57 C93.14,603.83 97.44,593.85 98.64,593.49 C100.35,606.00 103.47,634.96 104.59,649.18 C105.41,665.06 107.05,695.09 108.56,709.07 C109.80,719.11 113.14,737.57 113.37,738.83 C113.37,738.83 114.08,738.19 114.08,738.19" fill="none" stroke="rgb(0, 165, 255)" stroke-width="3.33" stroke-opacity="1.00" stroke-linejoin="round"/>
<path d="M420.47,216.14 C420.47,216.14 420.00,209.84 420.00,209.84 C420.80,224.25 419.83,256.66 419.28,273.55 C419.01,291.31 419.03,308.40 418.61,311.79 C418.54,307.47 419.52,292.50 420.55,284.68 C422.78,268.80 428.17,248.87 431.03,241.27 C432.22,238.20 435.22,232.90 437.14,230.63 C438.62,228.93 443.00,225.51 444.63,225.06 C446.02,224.71 448.64,224.79 449.14,225.38 C450.45,227.03 451.62,232.61 451.94,235.23 C452.58,240.73 453.37,279.64 453.63,294.49 C453.62,309.56 452.61,347.68 453.25,347.57 C453.25,347.57 467.15,283.20 467.15,283.20 C467.54,285.96 467.80,301.41 467.40,308.09 C467.13,312.25 466.28,317.96 465.04,322.00 C463.64,326.42 461.59,330.36 459.34,333.58 C452.89,342.67 448.73,349.02 447.86,352.92 C446.52,359.32 449.24,394.02 450.41,408.56 C452.69,443.24 455.34,507.46 456.45,537.44 C457.14,552.52 458.91,589.87 459.22,593.64 C461.84,622.04 468.61,702.05 470.40,713.38 C470.49,713.94 470.58,714.51 470.67,715.07 C468.35,695.47 466.94,672.86 466.54,658.23 C466.46,650.96 466.23,635.49 465.77,630.44 C465.22,624.46 463.37,611.89 461.46,601.97 C456.56,578.05 451.81,558.80 450.72,549.35 C449.70,539.53 447.50,501.68 446.49,490.62 C445.17,476.65 442.75,447.15 441.63,431.62 C440.11,406.69 439.80,388.94 441.05,374.06 C445.66,327.73 447.73,311.88 448.46,305.75 C449.44,298.89 451.94,295.41 452.36,294.95 C453.94,295.01 454.74,295.52 455.17,296.95 C456.46,301.34 457.87,312.22 458.74,323.19 C460.23,345.28 461.71,413.18 462.49,446.79 C463.07,461.12 464.45,494.35 464.66,505.50 C465.21,560.61 466.30,571.71 466.44,571.95 C466.45,558.38 467.55,531.58 468.22,517.89 C470.43,483.63 477.32,402.48 477.90,390.60 C478.11,384.17 478.44,369.99 478.47,362.56 C478.43,356.01 477.35,336.57 478.05,333.28 C478.27,332.24 478.99,329.83 479.27,328.93 C480.60,330.88 481.30,333.70 481.40,338.08 C481.77,370.26 482.57,447.47 482.32,464.62 C482.21,470.96 481.57,480.65 481.25,485.48 C480.34,471.78 479.58,446.57 479.89,428.13 C480.38,414.12 482.15,388.28 483.48,374.37 C485.73,354.38 491.55,313.55 491.56,313.53 C491.81,346.16 492.16,408.21 492.26,437.64 C492.09,446.54 491.74,462.38 491.56,469.33 C491.60,450.07 492.42,426.09 493.77,407.77 C494.76,396.33 498.89,364.73 500.94,351.43 C506.11,321.87 513.42,278.57 515.57,264.83 C516.84,267.71 516.76,283.73 516.69,290.55 C516.52,296.19 513.23,333.12 511.73,348.86 C508.29,378.74 500.94,440.40 499.32,463.62 C497.18,496.12 492.70,559.61 492.06,592.31 C491.84,599.61 491.44,611.06 490.63,619.00 C489.66,626.67 487.06,641.63 485.64,649.43 C483.66,660.93 483.43,664.67 483.50,668.01 C483.39,663.55 480.75,621.42 480.19,604.74 C480.08,590.08 480.04,563.66 480.75,548.54 C482.04,525.88 484.72,503.93 486.85,488.95 C487.96,481.57 489.70,473.24 490.17,471.03 C490.59,472.87 489.01,490.85 488.21,500.17 C487.30,515.31 485.76,546.06 485.14,561.68 C484.89,576.12 484.71,605.88 484.78,621.20 C485.19,636.13 486.79,679.93 487.05,684.21 C489.02,679.20 491.06,666.60 491.62,660.98 C492.79,646.37 495.35,616.11 496.73,600.45 C501.38,558.63 505.71,541.78 505.93,540.93 C506.92,542.12 507.20,542.94 507.17,544.92 C507.16,545.25 508.47,651.68 509.71,669.91 C510.47,678.40 511.76,692.57 512.01,696.53 C512.57,688.05 513.26,655.97 513.63,640.92 C514.04,631.12 514.57,624.05 515.69,615.93 C516.39,617.75 519.31,657.36 519.61,668.66 C519.62,676.06 519.13,693.04 518.79,701.63 C518.15,713.46 516.95,722.70 514.38,728.72 C513.22,731.38 510.37,735.23 508.86,735.80 C508.86,735.80 506.34,733.76 506.34,733.76" fill="none" stroke="rgb(0, 165, 255)" stroke-width="3.33" stroke-opacity="1.00" stroke-linejoin="round"/>
</g>
</svg>
