<?xml version="1.0" encoding="UTF-8" standalone="no"?>
<!DOCTYPE svg PUBLIC "-//W3C//DTD SVG 1.1//EN" "http://www.w3.org/Graphics/SVG/1.1/DTD/svg11.dtd">
<svg width="128.40" height="181.68" viewBox="0.00 0.00 535.00 757.00" xmlns="http://www.w3.org/2000/svg" xmlns:xlink="http://www.w3.org/1999/xlink">
<g stroke-linecap="round" id="172">
<path d="M199.86,28.73 C199.56,28.79 199.26,28.79 198.94,28.73 C197.92,28.53 195.96,27.86 195.58,27.63 C195.72,26.10 193.00,20.50 190.73,19.13 C188.82,18.04 181.57,16.92 179.05,16.67 C174.98,16.30 170.07,16.63 167.12,17.53 C164.04,18.51 150.66,26.15 144.81,29.45 C140.63,31.85 136.22,35.17 135.75,35.36 C134.13,35.98 131.28,36.24 130.33,35.68 C128.39,34.45 123.36,28.11 122.07,26.79 C119.96,24.69 115.15,22.76 113.27,22.55 C111.86,22.42 107.01,23.02 104.78,24.19 C102.39,25.48 95.81,30.21 93.03,32.77 C87.59,37.84 83.10,44.75 79.64,50.78 C79.64,50.78 80.15,51.53 80.15,51.53" fill="none" stroke="rgb(255, 0, 255)" stroke-width="3.35" stroke-opacity="1.00" stroke-linejoin="round"/>
<path d="M78.72,52.96 C77.09,53.15 75.33,53.73 74.87,54.57 C74.63,55.02 73.63,60.04 72.01,63.86 C70.26,67.99 66.59,76.76 65.86,80.07 C65.35,82.51 65.94,89.89 67.55,92.83 C69.18,95.71 74.09,100.09 76.59,101.18 C78.97,102.16 83.76,102.03 87.08,101.23 C94.28,99.44 108.58,92.89 113.42,89.29 C117.26,86.39 123.44,78.96 124.32,77.90" fill="none" stroke="rgb(255, 0, 255)" stroke-width="3.35" stroke-opacity="1.00" stroke-linejoin="round"/>
<path d="M130.02,78.61 C128.28,79.70 127.34,80.51 127.17,81.23 C126.91,82.62 129.36,85.45 132.81,88.04 C135.79,90.22 140.31,92.52 143.21,92.64 C146.38,92.73 150.67,91.70 153.22,90.65 C157.26,88.94 161.44,86.91 163.53,85.64 C164.24,85.20 164.94,84.75 165.65,84.31" fill="none" stroke="rgb(255, 0, 255)" stroke-width="3.35" stroke-opacity="1.00" stroke-linejoin="round"/>
<path d="M167.08,90.01 C167.08,90.01 166.55,90.01 166.55,90.01 C172.25,91.13 175.52,91.36 177.74,90.81 C182.38,89.55 196.21,82.80 199.75,79.19 C200.58,78.33 203.05,75.48 203.39,75.05 C203.40,75.03 205.63,76.46 208.24,77.31 C209.64,77.76 221.70,80.30 222.98,80.42 C224.89,80.56 231.06,79.02 232.63,78.61" fill="none" stroke="rgb(255, 0, 255)" stroke-width="3.35" stroke-opacity="1.00" stroke-linejoin="round"/>
<path d="M235.48,81.46 C235.48,81.46 234.06,81.46 234.06,81.46 C239.89,78.76 249.08,72.87 249.19,72.91 C251.86,74.28 256.65,78.37 258.04,79.31 C260.82,81.17 265.67,82.10 269.19,82.17 C270.03,82.18 280.54,82.35 281.34,82.79 C281.79,83.54 283.46,88.95 285.41,91.31 C287.62,93.89 293.71,96.57 298.02,97.72 C301.70,98.66 304.89,97.97 307.38,96.45 C309.56,95.09 314.69,91.05 316.00,90.01" fill="none" stroke="rgb(255, 0, 255)" stroke-width="3.35" stroke-opacity="1.00" stroke-linejoin="round"/>
<path d="M318.85,93.57 C318.43,93.55 318.11,93.55 317.90,93.57 C317.69,93.60 317.30,93.68 316.71,93.83 C317.52,96.84 320.05,100.83 321.52,102.28 C323.21,103.91 326.87,104.96 329.39,104.87 C334.20,104.64 347.17,99.91 350.62,97.50 C352.21,96.43 352.72,96.43 354.23,97.55 C358.84,101.07 367.82,105.38 371.26,105.83 C373.09,106.05 378.38,105.61 380.51,104.84 C382.18,104.23 388.79,100.98 390.82,99.99" fill="none" stroke="rgb(255, 0, 255)" stroke-width="3.35" stroke-opacity="1.00" stroke-linejoin="round"/>
<path d="M392.96,102.12 C392.96,102.12 390.18,102.12 390.18,102.12 C390.84,101.66 405.69,95.00 414.22,91.73 C415.93,91.10 416.79,90.99 417.35,91.23 C418.30,93.24 418.96,101.42 419.19,101.99 C419.76,103.30 422.04,104.34 424.31,104.42 C425.94,104.44 432.57,102.68 435.39,101.41 C438.20,100.12 443.73,96.55 446.00,94.64 C448.44,92.55 451.02,89.28 452.44,86.58 C453.54,84.41 454.92,77.80 454.87,74.60 C454.78,71.69 453.54,70.00 452.57,69.13 C451.47,68.73 449.67,69.35 448.15,70.82 C448.05,70.91 447.29,72.09 447.11,72.11 C447.34,68.46 447.83,60.17 447.59,57.92 C447.37,56.08 445.19,51.50 443.31,50.58 C441.45,49.74 437.40,48.97 433.76,48.84 C423.09,48.61 413.48,49.13 408.71,50.77 C407.91,51.05 405.93,51.76 405.50,51.57 C406.29,49.11 408.55,42.04 408.73,40.27 C408.81,39.15 408.26,37.56 407.51,37.03 C405.33,35.58 398.87,33.58 396.46,33.48 C393.43,33.43 387.60,35.87 383.91,38.62 C382.80,39.46 379.36,42.51 378.47,43.08 C378.14,42.34 378.43,36.52 378.42,33.59 C378.39,32.46 377.66,29.15 376.94,28.12 C376.20,27.09 373.46,25.60 372.43,25.39 C369.45,24.92 360.92,24.39 358.11,24.49 C354.47,24.64 347.79,26.09 344.43,27.45 C341.48,28.67 331.26,33.71 330.42,33.75 C330.28,32.69 328.80,24.95 327.22,22.54 C325.22,19.57 320.55,17.76 317.26,17.22 C313.85,16.78 301.09,20.36 292.90,23.74 C287.14,26.08 270.06,31.12 267.57,32.21 C264.29,33.64 259.80,34.89 257.76,34.20 C253.84,32.83 240.64,22.00 238.44,20.83 C235.97,19.56 232.19,18.46 229.72,18.37 C227.46,18.32 222.07,18.98 218.79,19.89 C215.95,20.70 208.93,23.21 206.26,25.13 C205.45,25.72 201.38,29.47 200.85,29.77 C200.51,29.97 199.70,30.33 198.43,30.87" fill="none" stroke="rgb(255, 0, 255)" stroke-width="3.35" stroke-opacity="1.00" stroke-linejoin="round"/>
<path d="M316.71,94.29 C316.71,94.29 316.36,94.29 316.36,94.29 C316.36,94.29 315.47,93.57 315.47,93.57 C315.47,93.57 315.49,92.33 315.49,92.33 C315.49,92.33 317.28,90.95 317.28,90.95 C318.23,92.17 319.42,98.89 319.92,101.23 C320.04,101.77 320.16,102.30 320.28,102.84" fill="none" stroke="rgb(255, 0, 255)" stroke-width="3.35" stroke-opacity="1.00" stroke-linejoin="round"/>
<path d="M240.47,78.61 C238.49,78.66 237.27,78.66 236.81,78.61 C236.35,78.56 235.99,78.40 235.75,78.12" fill="none" stroke="rgb(255, 0, 255)" stroke-width="3.35" stroke-opacity="1.00" stroke-linejoin="round"/>
<path d="M278.95,92.15 C278.95,92.15 274.78,92.50 274.78,92.50 C274.78,92.50 273.96,93.41 273.96,93.41 C273.96,97.29 273.16,100.78 271.46,104.43 C265.75,116.36 262.67,123.89 260.42,132.26 C259.99,133.87 258.86,138.23 258.83,138.33 C258.41,139.94 258.66,141.31 259.69,142.43 C260.39,143.17 267.62,150.02 268.19,150.62 C270.00,152.58 271.58,154.97 271.59,156.15 C271.59,156.41 254.44,196.39 251.92,203.53 C250.94,206.34 239.57,249.59 240.36,252.29 C240.36,252.29 259.14,243.26 259.14,243.26 C259.23,245.47 255.93,253.73 255.36,255.26 C253.47,260.82 248.11,273.74 244.84,281.51 C239.99,293.03 236.89,301.54 235.21,308.87 C230.26,329.97 225.69,344.28 223.12,350.17 C225.60,345.86 235.55,332.87 240.59,327.17 C261.20,304.98 289.95,273.86 291.09,271.82 C291.88,270.31 290.52,266.68 288.31,261.85 C283.14,250.82 281.61,247.26 277.31,236.13 C274.03,227.28 271.09,212.12 271.28,209.99 C271.76,205.18 274.68,197.01 279.78,184.06 C285.06,170.09 293.03,149.02 295.73,141.91 C297.50,137.01 298.88,131.63 298.67,129.90 C298.39,127.82 294.56,121.65 293.64,120.15 C283.97,104.48 280.23,92.21 279.77,91.57 C279.63,91.38 279.36,91.10 278.95,90.72" fill="none" stroke="rgb(254, 240, 0)" stroke-width="3.35" stroke-opacity="1.00" stroke-linejoin="round"/>
<path d="M172.07,104.97 C172.48,105.89 172.71,106.52 172.78,106.87 C172.87,107.37 169.25,149.75 168.36,166.70 C168.16,174.47 167.80,189.80 167.79,193.57 C167.79,194.67 167.79,195.77 167.79,196.86" fill="none" stroke="rgb(229, 0, 16)" stroke-width="3.35" stroke-opacity="1.00" stroke-linejoin="round"/>
<path d="M187.74,102.84 C187.56,106.12 187.06,110.93 186.48,115.13 C185.93,118.66 184.73,125.85 184.10,129.51 C183.44,133.14 182.58,137.90 182.38,139.02" fill="none" stroke="rgb(229, 0, 16)" stroke-width="3.35" stroke-opacity="1.00" stroke-linejoin="round"/>
<path d="M181.33,163.40 C181.33,164.51 181.33,165.62 181.33,166.73 C181.34,169.54 181.36,176.03 181.37,179.72 C181.35,181.37 181.27,185.90 181.20,187.83 C181.15,188.90 180.93,192.92 180.87,194.13" fill="none" stroke="rgb(229, 0, 16)" stroke-width="3.35" stroke-opacity="1.00" stroke-linejoin="round"/>
<path d="M212.68,109.25 C212.68,109.25 210.90,109.25 210.90,109.25 C210.26,111.06 206.87,154.86 206.31,166.17 C205.75,182.30 204.89,209.09 204.94,213.34 C204.98,216.22 205.33,219.65 205.49,220.93" fill="none" stroke="rgb(229, 0, 16)" stroke-width="3.35" stroke-opacity="1.00" stroke-linejoin="round"/>
<path d="M221.94,78.61 C221.85,81.87 222.31,86.28 223.27,90.27 C227.27,105.80 231.08,126.30 232.28,134.42 C233.27,141.93 234.46,152.56 234.73,155.16" fill="none" stroke="rgb(229, 0, 16)" stroke-width="3.35" stroke-opacity="1.00" stroke-linejoin="round"/>
<path d="M263.27,89.30 C263.27,89.30 262.56,89.58 262.56,89.58 C262.11,91.49 261.85,95.24 261.84,100.72 C261.65,108.60 261.32,121.39 261.17,126.29" fill="none" stroke="rgb(229, 0, 16)" stroke-width="3.35" stroke-opacity="1.00" stroke-linejoin="round"/>
<path d="M137.15,102.84 C136.55,104.10 134.61,108.50 134.48,109.78 C134.42,110.38 134.62,113.22 134.71,114.69" fill="none" stroke="rgb(229, 0, 16)" stroke-width="3.35" stroke-opacity="1.00" stroke-linejoin="round"/>
<path d="M139.29,134.90 C138.29,136.43 137.70,137.38 137.51,137.75 C137.09,138.60 137.24,141.28 137.65,142.70 C137.82,143.28 138.27,144.49 138.98,146.32" fill="none" stroke="rgb(229, 0, 16)" stroke-width="3.35" stroke-opacity="1.00" stroke-linejoin="round"/>
<path d="M139.29,164.12 C139.03,164.78 138.65,166.42 138.58,167.68 C138.57,167.76 138.58,176.12 138.58,177.65" fill="none" stroke="rgb(229, 0, 16)" stroke-width="3.35" stroke-opacity="1.00" stroke-linejoin="round"/>
<path d="M141.43,194.76 C141.43,194.76 141.43,195.11 141.43,195.11 C141.43,195.11 140.71,195.98 140.71,195.98 C140.71,202.09 140.71,216.53 140.71,224.85 C140.71,229.05 140.71,235.18 140.71,237.11" fill="none" stroke="rgb(229, 0, 16)" stroke-width="3.35" stroke-opacity="1.00" stroke-linejoin="round"/>
<path d="M138.58,252.47 C138.58,252.47 136.79,252.83 136.79,252.83 C136.47,254.89 136.40,256.15 136.58,257.98 C136.73,259.58 137.08,262.99 137.25,264.16 C137.51,265.98 137.99,268.74 138.30,270.34" fill="none" stroke="rgb(229, 0, 16)" stroke-width="3.35" stroke-opacity="1.00" stroke-linejoin="round"/>
<path d="M137.15,291.66 C136.29,292.48 135.63,294.50 135.82,296.73 C135.91,297.72 137.05,302.56 137.46,304.31" fill="none" stroke="rgb(229, 0, 16)" stroke-width="3.35" stroke-opacity="1.00" stroke-linejoin="round"/>
<path d="M137.15,323.73 C136.23,326.62 135.47,329.31 136.01,332.36 C136.31,333.90 138.37,339.85 138.76,340.97" fill="none" stroke="rgb(229, 0, 16)" stroke-width="3.35" stroke-opacity="1.00" stroke-linejoin="round"/>
<path d="M131.45,350.09 C130.33,351.20 130.15,355.00 130.36,358.09 C131.13,368.43 131.46,380.65 131.45,388.06 C131.53,397.69 132.16,403.96 133.24,409.98" fill="none" stroke="rgb(229, 0, 16)" stroke-width="3.35" stroke-opacity="1.00" stroke-linejoin="round"/>
<path d="M130.74,442.01 C130.74,442.01 129.53,442.01 129.53,442.01 C128.63,448.20 128.79,480.16 128.99,495.13 C129.31,514.25 129.81,547.81 129.99,562.24 C130.01,572.67 129.43,599.22 129.42,606.12 C129.48,610.97 130.45,622.02 130.56,623.22" fill="none" stroke="rgb(229, 0, 16)" stroke-width="3.35" stroke-opacity="1.00" stroke-linejoin="round"/>
<path d="M139.29,529.66 C139.28,530.82 139.28,534.24 139.29,536.50 C139.36,553.13 138.06,577.85 137.92,593.07 C137.93,600.37 138.04,613.98 138.81,620.79 C139.15,623.76 140.00,627.17 140.36,628.38" fill="none" stroke="rgb(229, 0, 16)" stroke-width="3.35" stroke-opacity="1.00" stroke-linejoin="round"/>
<path d="M147.13,570.27 C146.25,571.71 146.34,576.10 146.52,579.91 C147.34,596.12 145.92,640.63 145.82,642.97 C145.78,644.98 145.72,648.36 145.70,649.73" fill="none" stroke="rgb(229, 0, 16)" stroke-width="3.35" stroke-opacity="1.00" stroke-linejoin="round"/>
<path d="M140.71,454.84 C142.60,468.49 145.68,491.89 147.64,512.66 C149.07,528.69 151.68,557.43 153.75,572.49 C154.32,576.36 155.54,584.51 155.73,585.41 C156.10,587.08 157.95,590.15 158.44,590.96" fill="none" stroke="rgb(229, 0, 16)" stroke-width="3.35" stroke-opacity="1.00" stroke-linejoin="round"/>
<path d="M166.36,466.95 C165.47,467.59 166.18,471.29 167.07,476.67 C168.56,485.88 169.67,498.57 169.70,505.66 C169.71,514.96 168.60,524.06 167.88,527.18" fill="none" stroke="rgb(229, 0, 16)" stroke-width="3.35" stroke-opacity="1.00" stroke-linejoin="round"/>
<path d="M167.08,352.23 C167.08,352.23 166.72,352.59 166.72,352.59 C166.33,355.36 166.67,372.01 166.82,379.89 C166.90,392.31 166.69,401.58 166.42,402.75 C166.35,403.04 166.17,403.53 165.88,404.22" fill="none" stroke="rgb(229, 0, 16)" stroke-width="3.35" stroke-opacity="1.00" stroke-linejoin="round"/>
<path d="M151.40,367.91 C151.37,369.62 151.37,370.73 151.40,371.23 C151.51,373.11 157.03,399.41 157.51,402.33 C158.11,405.63 158.90,409.93 159.09,410.91" fill="none" stroke="rgb(229, 0, 16)" stroke-width="3.35" stroke-opacity="1.00" stroke-linejoin="round"/>
<path d="M164.94,328.72 C164.94,328.72 162.95,328.92 162.95,328.92 C162.43,329.98 162.11,330.71 161.98,331.12 C161.82,331.67 160.93,339.02 160.78,340.28" fill="none" stroke="rgb(229, 0, 16)" stroke-width="3.35" stroke-opacity="1.00" stroke-linejoin="round"/>
<path d="M179.90,333.70 C179.34,334.85 178.65,337.27 178.48,339.05 C178.37,340.20 179.68,360.05 180.19,367.25 C180.51,372.55 180.59,375.36 180.62,376.14" fill="none" stroke="rgb(229, 0, 16)" stroke-width="3.35" stroke-opacity="1.00" stroke-linejoin="round"/>
<path d="M189.88,347.96 C188.88,350.43 188.64,353.31 189.23,356.93 C189.92,361.04 191.29,367.35 192.20,370.67 C192.93,373.31 194.20,377.10 194.52,378.04" fill="none" stroke="rgb(229, 0, 16)" stroke-width="3.35" stroke-opacity="1.00" stroke-linejoin="round"/>
<path d="M201.99,312.33 C201.51,313.12 201.21,318.38 201.50,321.11 C201.84,324.26 204.10,340.09 204.67,343.96 C205.19,347.39 205.87,350.53 206.12,351.55" fill="none" stroke="rgb(229, 0, 16)" stroke-width="3.35" stroke-opacity="1.00" stroke-linejoin="round"/>
<path d="M182.75,269.57 C181.88,277.75 182.49,286.34 184.34,297.41 C184.65,299.15 185.22,302.35 185.49,303.81 C185.95,306.17 186.59,309.43 186.85,310.62" fill="none" stroke="rgb(229, 0, 16)" stroke-width="3.35" stroke-opacity="1.00" stroke-linejoin="round"/>
<path d="M167.79,279.55 C167.55,281.76 167.26,285.05 167.26,286.50 C167.25,287.98 167.64,290.56 168.21,293.50 C168.96,297.34 169.99,302.53 170.26,303.88" fill="none" stroke="rgb(229, 0, 16)" stroke-width="3.35" stroke-opacity="1.00" stroke-linejoin="round"/>
<path d="M170.64,201.88 C171.29,204.99 171.08,221.11 170.94,229.91 C170.87,233.47 170.77,239.83 170.73,242.62 C170.73,243.84 170.89,245.37 171.23,248.03" fill="none" stroke="rgb(229, 0, 16)" stroke-width="3.35" stroke-opacity="1.00" stroke-linejoin="round"/>
<path d="M185.60,203.31 C185.61,204.48 185.63,207.44 185.64,209.22 C185.67,211.04 185.82,213.98 185.96,215.08 C186.14,216.38 187.57,221.71 187.91,222.95" fill="none" stroke="rgb(229, 0, 16)" stroke-width="3.35" stroke-opacity="1.00" stroke-linejoin="round"/>
<path d="M202.71,245.35 C202.83,252.30 203.13,268.36 203.32,277.48 C203.45,282.12 203.75,290.63 203.92,294.50 C204.43,302.57 205.13,309.88 205.24,311.11" fill="none" stroke="rgb(229, 0, 16)" stroke-width="3.35" stroke-opacity="1.00" stroke-linejoin="round"/>
<path d="M239.05,191.91 C238.13,195.62 239.20,210.91 239.80,218.09 C240.60,225.86 242.20,238.56 243.69,247.33" fill="none" stroke="rgb(229, 0, 16)" stroke-width="3.35" stroke-opacity="1.00" stroke-linejoin="round"/>
<path d="M242.61,265.30 C240.91,271.74 240.50,281.25 240.48,291.63 C240.47,299.65 240.47,312.12 240.47,316.56" fill="none" stroke="rgb(229, 0, 16)" stroke-width="3.35" stroke-opacity="1.00" stroke-linejoin="round"/>
<path d="M266.84,250.34 C266.84,250.34 265.41,249.62 265.41,249.62 C265.39,251.78 265.63,255.48 266.15,260.44 C266.91,267.73 268.16,279.70 268.65,284.37" fill="none" stroke="rgb(229, 0, 16)" stroke-width="3.35" stroke-opacity="1.00" stroke-linejoin="round"/>
<path d="M263.27,166.97 C263.27,173.35 263.27,188.58 263.27,197.43 C263.27,206.23 263.27,220.88 263.27,226.73" fill="none" stroke="rgb(229, 0, 16)" stroke-width="3.35" stroke-opacity="1.00" stroke-linejoin="round"/>
<path d="M289.64,99.99 C289.71,100.19 288.42,103.09 287.83,106.66 C287.74,107.25 285.68,126.65 284.82,135.03 C282.90,156.02 281.71,175.99 281.39,181.97" fill="none" stroke="rgb(229, 0, 16)" stroke-width="3.35" stroke-opacity="1.00" stroke-linejoin="round"/>
<path d="M294.63,170.53 C294.62,176.85 294.69,189.76 294.78,196.36 C294.97,204.05 295.25,215.07 295.34,218.39" fill="none" stroke="rgb(229, 0, 16)" stroke-width="3.35" stroke-opacity="1.00" stroke-linejoin="round"/>
<path d="M310.30,94.29 C308.64,98.13 307.20,107.18 306.84,118.30 C306.62,126.70 306.35,137.81 306.28,140.51" fill="none" stroke="rgb(229, 0, 16)" stroke-width="3.35" stroke-opacity="1.00" stroke-linejoin="round"/>
<path d="M286.07,206.87 C286.63,213.36 287.90,228.25 288.62,236.65 C289.20,243.84 289.97,254.66 290.74,263.82 C290.96,266.34 291.14,267.76 291.47,269.71" fill="none" stroke="rgb(229, 0, 16)" stroke-width="3.35" stroke-opacity="1.00" stroke-linejoin="round"/>
<path d="M300.33,241.78 C298.89,243.66 298.08,246.65 298.16,250.23 C298.28,254.66 298.92,260.68 299.80,265.93 C300.37,269.60 301.38,276.64 301.83,280.02 C302.32,283.52 302.98,288.18 303.15,289.35" fill="none" stroke="rgb(229, 0, 16)" stroke-width="3.35" stroke-opacity="1.00" stroke-linejoin="round"/>
<path d="M263.27,314.47 C263.22,317.67 263.52,321.89 264.14,327.65 C265.15,336.45 267.21,354.11 268.26,362.97 C268.72,366.69 269.30,371.39 269.43,372.37" fill="none" stroke="rgb(229, 0, 16)" stroke-width="3.35" stroke-opacity="1.00" stroke-linejoin="round"/>
<path d="M241.90,336.55 C240.40,339.24 239.75,342.11 240.59,347.48 C241.85,354.77 244.27,370.03 245.42,378.00 C248.79,404.40 249.51,407.91 250.45,411.37" fill="none" stroke="rgb(229, 0, 16)" stroke-width="3.35" stroke-opacity="1.00" stroke-linejoin="round"/>
<path d="M112.21,123.50 C111.05,126.53 109.86,131.14 109.14,135.13 C107.08,146.64 104.07,176.64 103.91,181.27 C103.74,186.40 104.05,197.03 104.08,198.04" fill="none" stroke="rgb(229, 0, 16)" stroke-width="3.35" stroke-opacity="1.00" stroke-linejoin="round"/>
<path d="M80.86,128.49 C80.26,130.83 77.59,137.97 76.06,142.08 C74.77,145.74 72.74,151.54 71.68,154.35" fill="none" stroke="rgb(229, 0, 16)" stroke-width="3.35" stroke-opacity="1.00" stroke-linejoin="round"/>
<path d="M125.04,167.68 C123.28,174.39 119.74,182.75 118.18,186.38 C117.36,188.36 116.04,191.73 115.56,192.97" fill="none" stroke="rgb(229, 0, 16)" stroke-width="3.35" stroke-opacity="1.00" stroke-linejoin="round"/>
<path d="M121.47,197.61 C120.74,198.49 119.36,200.76 118.98,202.06 C118.95,202.15 118.83,203.10 118.62,204.91 C118.57,205.43 118.42,206.31 118.19,207.56" fill="none" stroke="rgb(229, 0, 16)" stroke-width="3.35" stroke-opacity="1.00" stroke-linejoin="round"/>
<path d="M131.45,206.87 C131.37,207.03 131.26,207.27 131.09,207.58 C130.33,209.05 129.89,209.93 129.77,210.21 C129.60,210.58 129.45,211.03 129.31,211.55" fill="none" stroke="rgb(229, 0, 16)" stroke-width="3.35" stroke-opacity="1.00" stroke-linejoin="round"/>
<path d="M104.37,226.82 C103.38,227.48 102.60,228.06 102.45,228.55 C102.25,229.20 101.83,272.49 101.72,288.59 C101.76,291.86 103.02,305.99 103.54,311.31" fill="none" stroke="rgb(229, 0, 16)" stroke-width="3.35" stroke-opacity="1.00" stroke-linejoin="round"/>
<path d="M99.38,231.81 C99.38,238.46 99.55,256.18 99.83,261.25 C100.30,268.53 101.34,280.31 101.69,283.78" fill="none" stroke="rgb(229, 0, 16)" stroke-width="3.35" stroke-opacity="1.00" stroke-linejoin="round"/>
<path d="M110.07,270.29 C109.72,271.53 109.01,274.10 108.88,275.04 C108.68,276.64 108.64,279.43 108.79,281.23 C108.87,282.12 109.24,285.60 109.36,286.68" fill="none" stroke="rgb(229, 0, 16)" stroke-width="3.35" stroke-opacity="1.00" stroke-linejoin="round"/>
<path d="M117.20,246.06 C117.20,246.06 117.55,246.06 117.55,246.06 C117.97,248.37 117.86,251.88 117.91,256.61 C118.07,264.44 118.29,275.15 118.36,278.03" fill="none" stroke="rgb(229, 0, 16)" stroke-width="3.35" stroke-opacity="1.00" stroke-linejoin="round"/>
<path d="M117.20,295.94 C115.54,297.59 114.30,299.41 113.73,301.32 C112.79,304.57 112.16,325.55 112.40,330.34 C112.66,335.15 115.01,354.04 115.63,357.97" fill="none" stroke="rgb(229, 0, 16)" stroke-width="3.35" stroke-opacity="1.00" stroke-linejoin="round"/>
<path d="M108.65,357.22 C107.21,358.86 106.44,360.39 106.15,362.39 C105.62,366.27 104.71,383.00 104.50,391.00 C104.47,398.29 104.68,412.27 104.92,419.22 C105.30,426.24 106.83,440.02 108.22,445.41 C108.74,447.39 110.74,453.30 112.56,457.13" fill="none" stroke="rgb(229, 0, 16)" stroke-width="3.35" stroke-opacity="1.00" stroke-linejoin="round"/>
<path d="M110.79,388.57 C109.50,391.08 108.12,395.20 108.00,397.43 C107.84,401.62 111.32,418.69 112.10,424.66 C112.78,430.01 113.61,447.39 113.63,451.19 C113.65,455.94 112.63,474.16 112.14,481.66 C111.89,485.17 111.57,489.83 111.50,490.98" fill="none" stroke="rgb(229, 0, 16)" stroke-width="3.35" stroke-opacity="1.00" stroke-linejoin="round"/>
<path d="M105.08,459.11 C104.26,462.98 104.46,469.46 104.77,473.79 C106.06,488.67 108.70,519.88 110.04,536.21 C110.45,542.52 110.69,549.72 110.72,550.45" fill="none" stroke="rgb(229, 0, 16)" stroke-width="3.35" stroke-opacity="1.00" stroke-linejoin="round"/>
<path d="M110.07,545.33 C109.13,548.13 110.00,556.57 110.22,558.44 C110.75,562.98 112.67,593.56 113.42,600.83 C114.02,606.97 114.58,617.74 114.76,620.94" fill="none" stroke="rgb(229, 0, 16)" stroke-width="3.35" stroke-opacity="1.00" stroke-linejoin="round"/>
<path d="M315.29,494.03 C315.29,494.03 312.44,495.81 312.44,495.81 C312.44,495.81 313.05,496.17 313.05,496.17 C313.69,497.93 314.16,504.36 314.43,508.20 C315.28,522.56 316.44,547.90 317.36,552.47 C317.60,553.59 320.41,562.33 321.62,565.93" fill="none" stroke="rgb(229, 0, 16)" stroke-width="3.35" stroke-opacity="1.00" stroke-linejoin="round"/>
<path d="M318.14,457.69 C318.14,457.69 317.43,457.69 317.43,457.69 C316.96,459.28 317.07,465.34 317.46,469.01 C318.53,478.30 319.75,482.78 321.04,487.09" fill="none" stroke="rgb(229, 0, 16)" stroke-width="3.35" stroke-opacity="1.00" stroke-linejoin="round"/>
<path d="M325.98,390.00 C325.98,390.00 325.27,390.00 325.27,390.00 C324.24,390.83 323.75,391.75 323.57,393.83 C323.15,398.92 322.11,415.76 321.63,423.68 C321.11,431.63 320.44,441.85 320.28,444.12" fill="none" stroke="rgb(229, 0, 16)" stroke-width="3.35" stroke-opacity="1.00" stroke-linejoin="round"/>
<path d="M300.33,334.42 C299.69,338.38 299.57,355.08 299.68,363.07 C299.90,370.42 300.68,384.41 301.78,393.62 C302.46,398.81 303.38,404.41 304.46,407.38 C305.55,410.22 307.02,414.06 307.41,415.07" fill="none" stroke="rgb(229, 0, 16)" stroke-width="3.35" stroke-opacity="1.00" stroke-linejoin="round"/>
<path d="M294.63,326.58 C293.30,333.97 292.53,342.83 292.52,351.68 C292.56,356.80 292.70,361.30 292.93,365.66" fill="none" stroke="rgb(229, 0, 16)" stroke-width="3.35" stroke-opacity="1.00" stroke-linejoin="round"/>
<path d="M321.70,341.54 C320.88,343.12 320.15,344.78 319.71,346.27 C318.76,349.55 318.24,355.12 318.14,359.12 C318.10,360.96 318.12,368.69 318.14,371.40" fill="none" stroke="rgb(229, 0, 16)" stroke-width="3.35" stroke-opacity="1.00" stroke-linejoin="round"/>
<path d="M306.03,298.08 C304.26,302.26 303.88,316.26 303.86,320.09 C303.86,324.28 304.18,329.06 304.34,330.33" fill="none" stroke="rgb(229, 0, 16)" stroke-width="3.35" stroke-opacity="1.00" stroke-linejoin="round"/>
<path d="M318.14,273.14 C317.01,274.78 316.14,276.28 315.74,277.56 C314.81,280.61 314.59,286.25 314.58,291.07 C314.63,296.24 315.91,307.36 316.06,308.64" fill="none" stroke="rgb(229, 0, 16)" stroke-width="3.35" stroke-opacity="1.00" stroke-linejoin="round"/>
<path d="M335.24,302.35 C334.37,311.77 334.61,318.04 335.95,329.07 C336.18,330.82 336.59,334.01 336.78,335.46 C337.10,337.68 337.56,340.89 337.71,341.88" fill="none" stroke="rgb(229, 0, 16)" stroke-width="3.35" stroke-opacity="1.00" stroke-linejoin="round"/>
<path d="M316.71,204.73 C315.83,205.55 315.43,206.37 315.37,207.98 C315.26,210.92 315.40,218.12 315.49,221.80 C315.72,226.54 316.13,232.08 316.69,234.90 C316.77,235.30 316.91,235.89 317.10,236.65" fill="none" stroke="rgb(229, 0, 16)" stroke-width="3.35" stroke-opacity="1.00" stroke-linejoin="round"/>
<path d="M330.25,129.20 C328.51,131.66 327.67,133.36 327.32,135.54 C326.36,141.55 326.10,156.13 326.04,162.94 C326.23,177.66 326.99,207.74 327.57,223.09 C327.76,233.64 327.47,242.53 326.40,252.57" fill="none" stroke="rgb(229, 0, 16)" stroke-width="3.35" stroke-opacity="1.00" stroke-linejoin="round"/>
<path d="M346.64,81.46 C344.26,85.56 342.70,89.00 341.82,92.97 C340.50,99.10 338.91,113.49 338.52,121.00 C338.31,126.65 338.41,142.22 338.51,147.58" fill="none" stroke="rgb(229, 0, 16)" stroke-width="3.35" stroke-opacity="1.00" stroke-linejoin="round"/>
<path d="M361.61,118.51 C361.61,118.51 359.98,118.00 359.98,118.00 C359.61,121.19 359.47,136.32 359.39,144.62 C359.24,152.62 359.04,163.19 358.99,165.74" fill="none" stroke="rgb(229, 0, 16)" stroke-width="3.35" stroke-opacity="1.00" stroke-linejoin="round"/>
<path d="M353.05,179.79 C352.26,180.46 351.08,181.84 350.56,182.88 C349.97,184.10 347.50,200.26 347.19,206.13 C346.96,213.61 346.67,228.32 346.62,235.53 C346.78,243.25 347.27,261.34 347.51,264.82 C347.55,265.36 347.60,266.06 347.68,266.94" fill="none" stroke="rgb(229, 0, 16)" stroke-width="3.35" stroke-opacity="1.00" stroke-linejoin="round"/>
<path d="M386.55,198.32 C386.09,198.36 385.42,198.25 384.56,197.96 C384.37,197.90 384.05,197.78 383.59,197.61 C382.99,200.28 381.91,217.36 381.40,225.80 C380.93,233.27 379.89,249.14 379.31,257.54 C378.80,264.63 378.21,272.93 378.12,274.13" fill="none" stroke="rgb(229, 0, 16)" stroke-width="3.35" stroke-opacity="1.00" stroke-linejoin="round"/>
<path d="M389.40,93.57 C388.11,93.52 386.71,105.87 385.79,117.28 C384.88,131.71 384.12,153.45 383.91,161.33 C383.83,164.35 383.73,170.38 383.69,173.40" fill="none" stroke="rgb(229, 0, 16)" stroke-width="3.35" stroke-opacity="1.00" stroke-linejoin="round"/>
<path d="M400.08,108.54 C398.33,110.87 397.44,112.50 397.14,114.51 C396.52,118.68 395.64,135.81 395.50,143.33 C395.54,161.70 396.94,189.19 398.07,203.70 C398.82,211.53 400.50,225.56 401.23,231.27" fill="none" stroke="rgb(229, 0, 16)" stroke-width="3.35" stroke-opacity="1.00" stroke-linejoin="round"/>
<path d="M408.63,137.75 C408.63,137.75 407.57,138.29 407.57,138.29 C407.18,140.81 407.01,180.17 406.02,200.93 C405.41,209.09 404.27,224.44 403.74,231.64 C403.18,242.07 403.17,252.49 403.93,261.01 C404.36,265.41 406.89,282.43 407.98,289.35 C408.85,294.83 409.58,299.98 409.75,301.18" fill="none" stroke="rgb(229, 0, 16)" stroke-width="3.35" stroke-opacity="1.00" stroke-linejoin="round"/>
<path d="M425.74,179.79 C423.51,180.36 422.03,180.86 421.70,181.48 C420.81,183.19 415.03,220.43 412.86,235.59 C411.93,243.33 410.42,258.35 409.84,265.88 C409.51,271.28 410.24,280.15 410.34,281.23" fill="none" stroke="rgb(229, 0, 16)" stroke-width="3.35" stroke-opacity="1.00" stroke-linejoin="round"/>
<path d="M430.01,252.47 C428.15,259.46 426.55,269.97 425.65,280.24 C425.12,287.24 424.05,302.75 423.50,311.26 C422.46,332.21 422.22,347.68 422.19,350.11" fill="none" stroke="rgb(229, 0, 16)" stroke-width="3.35" stroke-opacity="1.00" stroke-linejoin="round"/>
<path d="M412.20,294.51 C409.92,299.04 408.81,301.87 408.46,305.56 C408.05,310.27 405.89,352.04 405.46,368.67 C405.22,393.07 405.98,400.19 406.90,406.57" fill="none" stroke="rgb(229, 0, 16)" stroke-width="3.35" stroke-opacity="1.00" stroke-linejoin="round"/>
<path d="M390.82,278.13 C389.20,280.32 388.49,281.72 388.37,283.47 C388.14,286.70 386.63,329.04 386.12,344.91 C385.95,350.65 385.55,361.34 385.32,366.30" fill="none" stroke="rgb(229, 0, 16)" stroke-width="3.35" stroke-opacity="1.00" stroke-linejoin="round"/>
<path d="M381.56,303.06 C381.56,303.06 381.56,302.35 381.56,302.35 C381.56,302.35 380.76,302.35 380.76,302.35 C379.84,302.80 378.00,314.86 376.83,325.12 C373.42,357.48 368.63,404.08 367.54,417.47 C366.85,424.30 365.55,434.87 365.21,437.55" fill="none" stroke="rgb(229, 0, 16)" stroke-width="3.35" stroke-opacity="1.00" stroke-linejoin="round"/>
<path d="M373.72,274.56 C372.66,275.24 372.27,277.91 372.27,284.47 C372.27,289.08 371.38,305.79 371.17,308.43" fill="none" stroke="rgb(229, 0, 16)" stroke-width="3.35" stroke-opacity="1.00" stroke-linejoin="round"/>
<path d="M363.03,278.84 C362.72,279.94 360.96,286.30 360.54,290.73 C360.27,293.62 360.17,299.56 360.21,305.95 C360.19,309.94 360.10,318.38 360.02,322.84 C359.91,326.48 359.76,331.23 359.73,332.35" fill="none" stroke="rgb(229, 0, 16)" stroke-width="3.35" stroke-opacity="1.00" stroke-linejoin="round"/>
<path d="M359.47,347.96 C358.35,350.20 357.98,352.54 357.90,357.59 C357.98,373.58 358.06,396.05 358.04,402.53 C358.04,405.06 358.04,408.92 358.04,410.26" fill="none" stroke="rgb(229, 0, 16)" stroke-width="3.35" stroke-opacity="1.00" stroke-linejoin="round"/>
<path d="M337.38,360.07 C336.99,360.92 335.87,363.21 335.65,364.03 C334.49,368.33 334.55,388.78 334.83,393.33 C334.97,395.44 335.53,401.32 335.63,402.33" fill="none" stroke="rgb(229, 0, 16)" stroke-width="3.35" stroke-opacity="1.00" stroke-linejoin="round"/>
<path d="M369.44,418.50 C365.85,420.02 361.88,422.68 361.19,424.26 C360.11,426.87 360.39,443.12 360.60,450.46 C361.71,471.32 364.78,484.71 365.94,487.52" fill="none" stroke="rgb(229, 0, 16)" stroke-width="3.35" stroke-opacity="1.00" stroke-linejoin="round"/>
<path d="M372.29,432.75 C372.29,432.75 370.51,432.04 370.51,432.04 C369.30,434.31 368.44,448.63 368.16,456.45 C368.08,463.46 368.34,478.29 368.74,485.90 C369.90,501.72 373.71,523.50 375.50,528.83 C376.15,530.75 379.02,538.39 379.55,539.79" fill="none" stroke="rgb(229, 0, 16)" stroke-width="3.35" stroke-opacity="1.00" stroke-linejoin="round"/>
<path d="M383.69,381.45 C383.69,381.45 383.69,379.31 383.69,379.31 C383.63,384.05 383.05,398.42 382.71,404.64 C381.66,422.83 379.67,456.32 378.72,471.62 C377.83,483.24 376.94,492.08 376.73,494.08" fill="none" stroke="rgb(229, 0, 16)" stroke-width="3.35" stroke-opacity="1.00" stroke-linejoin="round"/>
<path d="M414.33,372.90 C413.82,373.47 413.35,374.64 412.81,376.87 C412.32,378.91 412.08,381.88 411.90,382.87 C411.79,383.46 408.07,395.24 406.31,403.10 C404.78,410.25 399.47,449.48 397.45,465.52 C395.87,479.50 392.27,507.50 390.25,521.51" fill="none" stroke="rgb(229, 0, 16)" stroke-width="3.35" stroke-opacity="1.00" stroke-linejoin="round"/>
<path d="M415.76,377.17 C415.76,377.17 413.74,378.68 413.74,378.68 C413.77,379.62 417.95,394.52 419.31,401.54 C420.97,410.18 423.97,436.40 424.28,441.56" fill="none" stroke="rgb(229, 0, 16)" stroke-width="3.35" stroke-opacity="1.00" stroke-linejoin="round"/>
<path d="M420.75,329.43 C420.73,332.01 420.69,338.42 420.67,342.24 C420.50,356.28 419.45,384.02 418.96,395.15" fill="none" stroke="rgb(229, 0, 16)" stroke-width="3.35" stroke-opacity="1.00" stroke-linejoin="round"/>
<path d="M408.63,484.05 C406.02,488.57 404.77,491.07 404.06,494.03 C402.60,500.52 402.14,515.92 402.48,521.51 C402.96,528.98 405.35,543.17 406.17,547.96" fill="none" stroke="rgb(229, 0, 16)" stroke-width="3.35" stroke-opacity="1.00" stroke-linejoin="round"/>
<path d="M398.66,513.98 C398.45,515.10 397.47,518.51 396.96,523.23 C396.54,528.01 395.29,545.88 394.68,554.69 C392.91,581.93 392.93,590.11 392.96,592.39" fill="none" stroke="rgb(229, 0, 16)" stroke-width="3.35" stroke-opacity="1.00" stroke-linejoin="round"/>
<path d="M385.12,489.04 C384.50,489.57 384.32,490.32 384.49,492.51 C385.73,508.43 385.62,569.31 385.40,584.39 C385.27,591.06 385.13,598.62 385.12,599.52" fill="none" stroke="rgb(229, 0, 16)" stroke-width="3.35" stroke-opacity="1.00" stroke-linejoin="round"/>
<path d="M337.38,475.50 C336.09,478.47 335.92,483.58 336.01,486.98 C336.48,502.96 337.10,526.11 337.25,533.29 C337.36,544.13 336.98,551.94 336.94,552.79" fill="none" stroke="rgb(229, 0, 16)" stroke-width="3.35" stroke-opacity="1.00" stroke-linejoin="round"/>
<path d="M335.95,436.31 C335.39,437.49 333.40,442.34 332.80,446.38 C331.49,454.74 328.97,471.12 327.76,479.15 C326.33,490.01 325.89,512.06 326.63,532.71 C328.40,562.66 330.21,593.55 330.25,594.50" fill="none" stroke="rgb(229, 0, 16)" stroke-width="3.35" stroke-opacity="1.00" stroke-linejoin="round"/>
<path d="M340.23,563.15 C338.83,564.45 338.99,570.08 339.67,574.04 C340.22,577.17 341.98,584.96 342.83,588.64 C344.85,596.78 348.47,606.18 349.47,608.70" fill="none" stroke="rgb(229, 0, 16)" stroke-width="3.35" stroke-opacity="1.00" stroke-linejoin="round"/>
<path d="M311.01,432.04 C311.01,432.04 309.59,432.75 309.59,432.75 C308.63,432.12 303.74,422.49 298.54,414.36 C296.53,411.27 292.10,404.67 291.60,404.14 C289.31,401.73 282.97,397.22 281.07,396.22 C276.98,394.09 264.27,391.54 256.89,391.19 C249.35,390.95 236.35,390.66 230.69,390.71 C230.70,387.62 229.57,383.01 228.01,381.32 C227.66,380.94 226.80,380.17 225.41,379.00 C224.46,379.14 223.49,379.66 223.06,380.60 C222.26,382.36 221.62,388.21 221.73,390.38 C221.89,392.89 223.06,398.53 223.37,399.97" fill="none" stroke="rgb(0, 153, 67)" stroke-width="3.35" stroke-opacity="1.00" stroke-linejoin="round"/>
<path d="M224.08,396.41 C223.27,397.04 222.94,397.23 222.50,397.12 C220.17,396.57 216.27,396.41 213.18,396.76 C205.51,397.69 194.41,400.96 183.95,404.52 C179.79,405.94 174.03,408.11 171.95,409.12 C168.46,410.86 155.73,420.94 149.51,425.89 C147.77,427.28 145.70,429.31 144.96,430.62 C143.62,433.13 144.16,438.15 144.89,440.16 C145.93,442.92 148.11,445.26 150.38,446.31 C153.29,447.56 158.90,448.22 163.39,448.16 C177.30,447.88 198.23,446.02 205.14,444.86 C203.80,447.29 203.39,463.98 203.21,471.83 C203.31,485.95 203.38,502.14 203.56,502.74 C203.69,503.17 204.12,504.07 204.84,505.43" fill="none" stroke="rgb(0, 153, 67)" stroke-width="3.35" stroke-opacity="1.00" stroke-linejoin="round"/>
<path d="M209.83,501.16 C209.83,501.16 209.12,501.87 209.12,501.87 C208.32,501.27 208.10,497.60 207.75,493.25 C206.77,481.62 206.21,470.33 206.46,463.15 C206.73,455.75 209.16,444.24 209.83,439.94 C209.87,439.65 209.99,439.43 210.16,439.27 C216.32,438.65 235.68,436.34 236.99,436.21 C244.70,435.44 274.08,435.57 275.54,435.62 C279.51,435.78 287.53,437.26 289.63,437.50 C292.60,437.82 300.69,437.86 304.23,437.35 C306.84,436.95 311.75,435.92 312.66,434.84 C312.78,433.87 312.94,432.86 312.63,432.47 C312.33,432.10 309.27,428.91 308.16,427.76" fill="none" stroke="rgb(0, 153, 67)" stroke-width="3.35" stroke-opacity="1.00" stroke-linejoin="round"/>
<path d="M202.71,505.43 C202.89,503.83 203.41,501.58 204.03,499.99 C204.31,499.28 204.82,498.16 204.81,497.63 C202.09,497.41 200.90,497.53 200.58,498.25 C199.35,501.13 201.08,507.14 202.00,509.95 C201.22,511.18 199.90,512.03 197.86,512.41 C197.31,512.52 189.68,513.28 188.22,513.62 C187.95,515.53 188.32,516.91 189.76,518.09 C191.27,519.30 193.89,520.38 195.77,520.54 C200.69,520.85 205.99,517.05 206.10,516.52 C206.14,516.31 206.20,515.70 206.27,514.69" fill="none" stroke="rgb(0, 153, 67)" stroke-width="3.35" stroke-opacity="1.00" stroke-linejoin="round"/>
<path d="M241.90,439.88 C241.90,439.88 241.90,437.74 241.90,437.74 C240.20,439.02 235.17,441.96 230.29,445.32 C226.91,447.72 223.92,451.12 221.66,454.81 C219.07,459.15 216.32,464.65 215.64,467.60 C214.90,471.04 215.62,479.33 216.55,482.69 C217.05,484.36 218.66,487.36 219.69,488.44 C221.30,490.06 229.28,493.09 231.21,493.39 C234.01,493.81 242.08,493.99 245.81,494.04 C249.26,494.06 256.33,493.56 258.97,492.50 C261.75,491.34 266.08,487.76 267.59,486.06 C269.41,483.99 272.38,479.42 273.52,476.78 C274.65,474.12 276.25,468.14 276.58,465.31 C276.88,462.57 276.69,457.31 276.11,455.00 C275.49,452.66 273.59,449.54 271.01,447.08 C268.11,444.35 261.88,440.26 260.29,439.52 C257.55,438.27 252.09,437.80 249.10,438.14 C247.98,438.27 244.03,438.92 242.61,439.16" fill="none" stroke="rgb(0, 255, 0)" stroke-width="3.35" stroke-opacity="1.00" stroke-linejoin="round"/>
<path d="M221.94,456.98 C221.94,456.98 217.86,457.69 217.86,457.69 C217.86,457.69 235.76,455.93 235.76,455.93 C236.63,456.97 238.40,459.18 238.91,459.47 C240.06,460.10 243.30,458.92 244.23,458.54 C245.79,457.89 247.45,457.86 248.25,458.25 C249.39,459.72 250.44,461.83 251.02,462.37 C251.29,462.62 251.87,462.91 252.78,463.24 C254.85,462.45 260.19,460.42 261.31,460.74 C262.96,461.30 264.24,465.37 265.55,471.66 C265.62,472.00 266.56,477.53 266.65,478.39 C266.84,480.51 266.50,482.50 265.64,484.64 C265.32,485.39 265.01,486.15 264.70,486.90" fill="none" stroke="rgb(0, 255, 0)" stroke-width="3.35" stroke-opacity="1.00" stroke-linejoin="round"/>
<path d="M219.09,467.67 C218.55,467.67 218.01,467.67 217.47,467.67 C217.33,467.67 217.19,467.67 217.05,467.67 C218.52,467.51 223.61,467.14 226.81,468.20 C228.90,468.93 231.39,470.15 232.10,470.97 C232.36,471.28 232.54,471.85 232.63,472.65" fill="none" stroke="rgb(0, 255, 0)" stroke-width="3.35" stroke-opacity="1.00" stroke-linejoin="round"/>
<path d="M225.51,485.48 C225.41,485.43 225.29,485.43 225.15,485.48 C225.01,485.53 224.65,485.69 224.08,485.97 C224.54,486.29 230.60,484.94 233.25,483.33 C233.74,483.03 239.24,479.52 240.45,479.28 C241.88,480.75 242.48,481.90 242.33,483.37 C242.06,485.62 239.21,489.00 237.22,490.01 C236.52,490.36 235.80,490.65 235.06,490.87 C234.55,491.02 233.27,491.36 231.21,491.89" fill="none" stroke="rgb(0, 255, 0)" stroke-width="3.35" stroke-opacity="1.00" stroke-linejoin="round"/>
<path d="M230.50,496.88 C230.50,496.88 228.36,496.88 228.36,496.88 C228.36,496.88 228.90,496.33 228.90,496.33 C229.15,497.18 230.03,547.26 230.29,550.49 C230.36,551.38 230.43,552.28 230.50,553.17" fill="none" stroke="rgb(0, 255, 0)" stroke-width="3.35" stroke-opacity="1.00" stroke-linejoin="round"/>
<path d="M234.06,506.14 C234.06,506.14 234.06,505.43 234.06,505.43 C233.09,505.33 226.54,507.84 224.94,508.15 C223.22,508.47 214.80,508.01 214.40,507.86 C212.87,507.24 211.70,505.40 210.77,502.43 C209.82,499.31 207.97,496.49 205.85,494.57 C203.92,494.48 202.82,494.75 202.21,495.71 C201.59,496.75 200.93,499.37 201.13,500.75 C201.56,503.57 204.75,508.48 205.65,509.47 C206.95,510.86 212.53,514.92 214.00,515.56 C217.15,516.86 229.42,516.34 229.97,516.18 C230.29,516.08 230.70,515.83 231.21,515.41" fill="none" stroke="rgb(0, 255, 0)" stroke-width="3.35" stroke-opacity="1.00" stroke-linejoin="round"/>
<path d="M204.84,505.43 C204.66,505.69 204.01,506.06 203.42,506.14 C203.16,506.18 202.19,506.13 202.15,506.14 C202.15,506.14 209.53,501.56 209.53,501.56 C209.53,501.56 210.54,501.87 210.54,501.87" fill="none" stroke="rgb(0, 255, 0)" stroke-width="3.35" stroke-opacity="1.00" stroke-linejoin="round"/>
<path d="M248.31,495.46 C248.31,495.46 246.32,495.81 246.32,495.81 C245.53,496.64 245.35,498.05 246.03,500.01 C246.27,500.70 250.67,510.72 251.70,514.08 C254.65,523.84 257.44,549.43 257.04,549.53 C249.14,551.20 232.08,552.94 231.53,553.05 C229.91,553.42 228.91,554.21 228.59,555.33 C228.44,555.99 226.59,564.11 226.31,569.34 C225.06,595.59 226.35,600.38 227.39,603.42 C228.42,603.70 229.54,603.46 231.89,602.35 C234.18,601.27 238.43,599.37 238.64,599.25 C240.43,598.25 241.76,596.72 241.87,595.60 C241.96,594.01 240.10,574.85 240.26,569.26 C240.32,567.15 240.98,560.17 241.38,559.12 C243.01,561.27 244.74,567.02 245.40,569.44 C246.63,573.96 250.17,589.68 250.61,593.08 C250.61,593.08 263.60,591.10 263.60,591.10 C263.60,591.10 254.99,552.93 254.99,552.93 C254.99,552.93 254.72,553.88 254.72,553.88" fill="none" stroke="rgb(0, 255, 0)" stroke-width="3.35" stroke-opacity="1.00" stroke-linejoin="round"/>
<path d="M255.43,589.51 C255.02,589.01 254.72,588.65 254.52,588.44 C254.32,588.23 253.96,587.88 253.42,587.38 C254.33,587.25 256.83,586.90 257.55,586.73 C258.01,586.63 258.97,586.37 260.42,585.95" fill="none" stroke="rgb(0, 255, 0)" stroke-width="3.35" stroke-opacity="1.00" stroke-linejoin="round"/>
<path d="M256.86,595.93 C256.76,595.86 256.64,595.86 256.50,595.93 C256.36,596.00 256.01,596.23 255.43,596.64 C254.63,597.67 251.93,599.84 250.93,600.69 C250.00,601.48 249.63,602.54 249.42,603.98 C250.14,605.30 251.69,606.55 253.37,606.58 C254.94,606.60 258.05,605.63 259.09,604.93 C261.10,603.47 263.10,600.47 263.68,597.76 C263.94,596.31 263.67,595.14 262.75,593.77 C262.22,593.01 260.68,590.92 259.71,589.51" fill="none" stroke="rgb(0, 255, 0)" stroke-width="3.35" stroke-opacity="1.00" stroke-linejoin="round"/>
<path d="M227.64,603.76 C227.16,603.16 225.31,602.84 223.35,603.15 C222.45,603.31 221.23,604.48 220.93,605.24 C220.62,606.25 221.27,607.99 222.44,608.96 C223.72,609.95 227.15,611.14 229.03,611.18 C230.82,611.18 234.34,610.22 236.26,609.31 C237.91,608.48 239.78,606.97 240.56,605.83 C241.41,604.49 241.27,602.89 240.23,600.91 C239.84,600.20 239.44,599.49 239.05,598.78" fill="none" stroke="rgb(0, 255, 0)" stroke-width="3.35" stroke-opacity="1.00" stroke-linejoin="round"/>
<path d="M417.90,640.10 C418.02,640.10 418.14,640.10 418.25,640.10 C418.37,640.10 418.49,640.10 418.61,640.10 C418.61,640.10 419.32,640.10 419.32,640.10 C415.62,639.02 394.46,628.81 393.61,628.41 C389.45,626.50 383.91,624.89 380.51,624.83 C375.87,624.82 357.17,628.59 353.58,630.10 C350.63,631.38 346.34,633.80 344.37,635.39 C342.59,636.85 338.55,641.19 336.92,643.31 C335.10,645.70 332.87,650.08 332.47,652.19 C332.14,654.10 332.61,658.33 333.91,660.34 C335.34,662.46 339.70,666.56 342.99,668.80 C345.64,670.58 353.36,675.32 354.03,675.71 C358.81,678.41 371.98,682.22 377.73,682.83 C381.33,683.20 385.83,683.27 388.11,682.83 C391.24,682.21 394.91,681.09 399.25,679.50 C402.20,678.38 407.05,675.34 410.35,672.62 C413.36,670.10 417.70,664.67 419.28,662.03 C421.55,658.13 422.78,653.82 422.89,650.61 C422.93,647.27 421.70,643.30 419.70,640.67 C419.08,639.87 417.24,638.04 416.41,637.23 C415.99,636.81 415.06,635.87 413.62,634.40" fill="none" stroke="rgb(0, 160, 232)" stroke-width="3.35" stroke-opacity="1.00" stroke-linejoin="round"/>
<path d="M516.94,636.54 C516.94,636.54 518.01,636.54 518.01,636.54 C518.01,636.54 518.37,636.19 518.37,636.19 C518.37,636.19 518.37,634.82 518.37,634.82 C518.17,634.47 510.56,631.08 509.66,631.08 C508.20,631.12 506.51,633.37 506.00,635.62 C505.89,636.21 506.07,639.25 506.20,639.73 C506.81,641.86 508.45,644.08 509.82,644.29 C510.94,644.43 513.35,643.12 514.36,642.01 C514.98,641.27 516.50,638.40 516.74,637.47 C516.99,636.46 517.03,634.19 516.96,632.72" fill="none" stroke="rgb(127, 46, 0)" stroke-width="3.35" stroke-opacity="1.00" stroke-linejoin="round"/>
<path d="M508.39,633.69 C508.40,631.80 508.40,630.62 508.39,630.17 C508.38,629.71 508.34,629.33 508.27,629.03 C506.52,628.54 502.52,628.76 499.76,630.68 C499.71,630.72 490.80,637.40 487.90,639.56 C482.31,643.64 480.61,645.25 480.90,646.53 C480.96,646.75 481.19,647.22 481.59,647.92 C483.22,648.66 484.45,648.88 485.98,648.52 C488.72,647.85 494.89,644.52 497.53,642.70 C500.47,640.65 502.44,637.37 503.17,635.95" fill="none" stroke="rgb(127, 46, 0)" stroke-width="3.35" stroke-opacity="1.00" stroke-linejoin="round"/>
<path d="M494.85,628.70 C494.85,628.70 496.99,627.28 496.99,627.28 C495.55,627.34 493.27,627.36 492.14,627.24 C491.13,627.13 482.69,625.59 481.31,625.85 C479.78,626.18 478.31,627.20 477.48,628.49 C475.74,631.32 468.63,641.76 468.13,643.51 C468.52,644.73 469.21,645.99 470.09,646.68 C471.14,647.48 472.88,648.13 473.79,648.08 C474.17,648.03 476.30,647.59 476.77,647.21 C477.21,646.85 480.13,643.70 481.18,642.56" fill="none" stroke="rgb(127, 46, 0)" stroke-width="3.35" stroke-opacity="1.00" stroke-linejoin="round"/>
<path d="M474.90,628.70 C474.90,628.70 474.90,627.99 474.90,627.99 C470.77,627.90 467.63,628.43 464.14,629.95 C461.49,631.16 459.85,632.08 458.93,632.99 C458.12,633.84 457.32,635.84 457.24,637.09 C457.20,638.36 457.75,640.33 458.41,641.12 C459.22,642.00 462.11,642.46 464.06,642.08 C464.83,641.91 466.96,640.66 467.90,640.12" fill="none" stroke="rgb(127, 46, 0)" stroke-width="3.35" stroke-opacity="1.00" stroke-linejoin="round"/>
<path d="M455.66,628.70 C455.66,628.70 458.29,626.57 458.29,626.57 C449.48,625.89 441.18,625.81 439.95,626.40 C439.26,626.76 438.93,627.89 438.73,629.77 C438.62,631.76 438.79,635.02 439.44,636.03 C440.40,637.46 449.73,640.09 450.32,640.21 C450.75,640.30 451.66,640.44 453.06,640.65" fill="none" stroke="rgb(127, 46, 0)" stroke-width="3.35" stroke-opacity="1.00" stroke-linejoin="round"/>
<path d="M439.27,625.85 C439.27,625.85 439.27,625.14 439.27,625.14 C436.64,622.69 433.31,620.76 429.99,620.93 C428.19,621.07 425.08,622.39 423.76,623.59 C422.59,624.73 420.89,627.80 420.59,629.37 C420.31,631.29 421.43,634.30 422.93,635.37 C424.13,636.16 428.80,637.34 430.15,637.18 C430.76,637.09 431.93,636.75 433.68,636.14" fill="none" stroke="rgb(127, 46, 0)" stroke-width="3.35" stroke-opacity="1.00" stroke-linejoin="round"/>
<path d="M422.89,620.87 C422.21,619.53 420.91,618.09 419.44,617.45 C418.94,617.24 413.53,615.98 412.87,616.02 C411.39,616.15 409.43,618.19 408.92,619.84 C408.50,621.38 408.77,627.66 409.23,629.73 C409.56,631.05 410.51,633.06 411.22,633.61 C411.90,634.10 414.59,634.90 415.85,635.00 C416.37,635.04 417.57,635.07 419.45,635.11" fill="none" stroke="rgb(127, 46, 0)" stroke-width="3.35" stroke-opacity="1.00" stroke-linejoin="round"/>
<path d="M410.06,618.73 C410.06,618.73 408.12,618.73 408.12,618.73 C407.91,618.02 407.97,614.65 407.81,614.26 C407.59,613.72 406.86,612.83 405.62,611.60 C404.55,611.57 403.36,612.21 402.34,613.70 C401.36,615.15 400.13,618.48 399.86,620.46 C399.43,624.14 401.45,626.80 402.44,627.00 C402.85,627.08 403.92,627.15 405.65,627.23" fill="none" stroke="rgb(127, 46, 0)" stroke-width="3.35" stroke-opacity="1.00" stroke-linejoin="round"/>
<path d="M402.22,613.03 C401.53,613.12 401.06,613.12 400.80,613.03 C398.75,611.92 395.09,610.24 392.09,609.80 C388.92,609.37 384.12,609.99 382.23,611.22 C381.66,611.62 379.91,613.42 379.53,614.14 C378.68,615.87 378.18,618.72 378.64,620.10 C379.27,621.90 384.25,626.74 385.58,627.25 C386.39,627.56 388.45,627.84 389.83,627.94" fill="none" stroke="rgb(127, 46, 0)" stroke-width="3.35" stroke-opacity="1.00" stroke-linejoin="round"/>
<path d="M378.71,613.74 C378.21,613.80 377.86,613.80 377.67,613.74 C377.18,613.60 375.43,612.55 374.46,612.41 C372.91,612.23 370.50,613.32 369.15,614.91 C368.07,616.23 366.80,619.27 366.74,620.52 C366.73,621.66 367.60,623.40 368.40,623.72 C369.73,624.19 374.82,622.92 376.07,622.61" fill="none" stroke="rgb(127, 46, 0)" stroke-width="3.35" stroke-opacity="1.00" stroke-linejoin="round"/>
<path d="M370.16,617.30 C370.15,617.52 369.51,617.13 367.43,615.59 C366.84,615.17 364.39,613.51 363.69,613.33 C362.65,613.09 359.27,613.02 358.52,613.46 C356.76,614.57 354.94,616.27 354.32,617.46 C353.21,619.67 351.47,624.35 350.70,627.79 C350.70,627.79 352.09,629.76 352.09,629.76" fill="none" stroke="rgb(127, 46, 0)" stroke-width="3.35" stroke-opacity="1.00" stroke-linejoin="round"/>
<path d="M349.49,620.87 C349.49,620.87 348.78,620.87 348.78,620.87 C348.47,620.25 345.48,620.19 344.27,620.15 C343.18,620.13 339.57,619.47 339.14,619.47 C338.09,619.50 336.71,620.89 335.33,623.06 C335.08,623.46 332.78,627.43 331.98,628.79 C330.88,630.67 330.42,632.30 330.01,635.28 C330.88,636.09 332.34,636.80 333.87,636.84 C336.79,636.88 344.50,634.14 347.18,632.29 C347.54,632.04 348.16,631.58 349.05,630.90" fill="none" stroke="rgb(127, 46, 0)" stroke-width="3.35" stroke-opacity="1.00" stroke-linejoin="round"/>
<path d="M330.97,622.29 C330.97,622.29 329.18,620.90 329.18,620.90 C329.18,620.90 319.53,619.63 319.53,619.63 C318.37,620.53 314.99,629.04 315.00,631.21 C315.04,632.26 316.02,633.98 316.71,634.45 C317.50,634.92 319.57,635.32 320.65,635.12 C323.08,634.63 327.01,630.67 328.92,628.75" fill="none" stroke="rgb(127, 46, 0)" stroke-width="3.35" stroke-opacity="1.00" stroke-linejoin="round"/>
<path d="M316.00,620.87 C316.00,620.87 317.43,618.73 317.43,618.73 C315.00,618.80 309.02,617.95 306.24,618.11 C302.65,618.36 297.01,620.30 295.79,621.89 C295.80,623.27 299.14,627.86 300.88,628.51 C303.41,629.42 308.38,629.20 311.54,628.48 C312.35,628.28 313.16,628.09 313.97,627.90" fill="none" stroke="rgb(127, 46, 0)" stroke-width="3.35" stroke-opacity="1.00" stroke-linejoin="round"/>
<path d="M294.63,623.72 C294.59,623.05 294.54,622.61 294.48,622.41 C294.07,621.13 289.25,618.89 287.35,618.75 C286.21,618.70 284.82,619.92 283.80,621.66 C283.51,622.18 275.73,635.87 275.47,637.08 C276.05,638.09 277.40,638.64 279.75,638.67 C281.42,638.68 287.29,637.77 288.47,637.40 C290.56,636.70 293.62,634.04 295.31,630.29 C295.53,629.80 295.94,628.84 296.54,627.40" fill="none" stroke="rgb(127, 46, 0)" stroke-width="3.35" stroke-opacity="1.00" stroke-linejoin="round"/>
<path d="M286.07,621.58 C286.07,621.58 285.72,621.58 285.72,621.58 C285.37,621.27 285.13,621.08 285.01,621.02 C284.69,620.86 277.18,620.23 276.96,620.25 C275.78,620.40 273.47,621.41 272.05,622.17 C269.70,631.11 270.68,635.81 271.72,637.91 C271.72,637.91 275.73,637.85 275.73,637.85" fill="none" stroke="rgb(127, 46, 0)" stroke-width="3.35" stroke-opacity="1.00" stroke-linejoin="round"/>
<path d="M268.26,625.14 C268.26,625.14 268.11,622.80 268.11,622.80 C266.80,622.18 259.89,620.71 256.83,620.93 C255.30,621.06 252.39,622.07 251.37,622.81 C250.86,623.21 250.22,626.32 250.15,627.18 C250.06,629.08 250.68,632.29 251.43,633.94 C251.64,634.36 253.48,636.66 254.07,636.95 C256.67,638.19 264.18,638.48 265.41,638.25 C265.88,638.16 266.50,637.92 267.25,637.51" fill="none" stroke="rgb(127, 46, 0)" stroke-width="3.35" stroke-opacity="1.00" stroke-linejoin="round"/>
<path d="M246.17,625.14 C243.87,621.98 240.12,619.29 237.47,617.93 C234.87,616.64 230.79,615.88 228.37,616.44 C226.27,616.98 216.81,621.86 215.86,623.53 C215.22,624.72 214.49,628.14 214.44,630.13 C214.43,632.15 215.24,635.36 216.13,636.30 C217.63,637.80 222.41,638.97 225.83,639.42 C231.74,640.18 235.78,640.44 237.12,640.03 C239.29,639.33 241.02,638.38 242.11,637.22 C242.47,636.82 244.30,634.31 244.56,633.77 C244.75,633.36 245.13,632.42 245.69,630.95" fill="none" stroke="rgb(127, 46, 0)" stroke-width="3.35" stroke-opacity="1.00" stroke-linejoin="round"/>
<path d="M214.11,621.58 C214.11,621.58 214.11,623.00 214.11,623.00 C214.01,621.09 209.95,614.50 206.96,612.95 C204.47,611.71 198.49,611.73 197.21,611.89 C193.77,612.36 182.57,616.73 181.19,618.17 C180.13,619.32 178.96,621.80 178.67,623.45 C178.65,623.56 178.01,629.86 178.00,629.97 C178.00,631.02 179.06,632.27 180.39,632.79 C183.17,633.81 190.52,634.65 193.36,634.68 C196.54,634.70 202.68,633.90 205.61,633.03 C207.71,632.36 210.98,628.45 211.97,627.28" fill="none" stroke="rgb(127, 46, 0)" stroke-width="3.35" stroke-opacity="1.00" stroke-linejoin="round"/>
<path d="M180.62,615.88 C180.62,615.88 180.62,616.59 180.62,616.59 C179.94,616.61 177.81,616.49 176.96,616.27 C176.47,616.14 169.81,613.22 166.69,612.78 C162.98,612.30 144.15,615.79 143.02,616.53 C141.79,617.37 140.88,619.89 141.05,621.57 C141.34,623.73 142.26,625.63 143.67,627.00 C144.79,628.04 150.21,628.82 155.42,629.10 C159.12,629.23 166.70,629.48 170.87,629.46 C171.54,629.46 172.34,629.45 173.28,629.42" fill="none" stroke="rgb(127, 46, 0)" stroke-width="3.35" stroke-opacity="1.00" stroke-linejoin="round"/>
<path d="M144.99,615.16 C143.99,615.16 143.00,615.16 142.01,615.16 C139.14,615.18 120.33,613.31 117.12,613.62 C109.06,614.42 106.95,615.43 106.07,616.13 C106.02,618.63 106.32,620.63 107.25,622.23 C108.34,624.09 109.96,625.94 111.03,626.54 C113.15,627.65 119.81,629.20 121.95,629.46 C125.36,629.84 138.81,630.11 140.08,630.13" fill="none" stroke="rgb(127, 46, 0)" stroke-width="3.35" stroke-opacity="1.00" stroke-linejoin="round"/>
<path d="M112.21,623.72 C112.21,623.72 111.85,624.78 111.85,624.78 C111.85,624.78 110.79,624.90 110.79,624.90 C110.79,621.83 110.74,615.26 109.76,612.26 C109.20,610.72 107.43,609.22 105.48,608.64 C103.17,607.99 83.66,608.17 81.41,608.61 C81.41,608.61 81.57,608.75 81.57,608.75" fill="none" stroke="rgb(127, 46, 0)" stroke-width="3.35" stroke-opacity="1.00" stroke-linejoin="round"/>
<path d="M78.72,628.70 C78.72,628.70 76.58,628.70 76.58,628.70 C86.51,628.79 98.00,628.58 103.47,627.17 C105.85,626.55 107.86,625.56 109.57,624.25 C109.57,624.25 107.79,624.33 107.79,624.33" fill="none" stroke="rgb(127, 46, 0)" stroke-width="3.35" stroke-opacity="1.00" stroke-linejoin="round"/>
<path d="M73.73,610.18 C73.73,610.18 73.02,610.18 73.02,610.18 C73.02,610.18 80.43,611.40 80.43,611.40 C80.84,614.53 80.74,619.56 80.02,621.75 C79.29,623.90 76.99,626.10 76.37,626.78 C76.09,627.07 75.73,627.68 75.29,628.59 C75.87,625.43 77.04,619.00 77.22,616.18 C77.25,615.26 76.46,611.75 75.78,610.83 C74.85,609.62 72.14,608.70 70.00,608.54 C69.76,608.53 60.66,608.00 59.47,608.22 C57.73,608.61 56.41,609.16 55.97,610.10 C55.44,611.29 53.33,614.96 53.02,615.72 C52.91,615.99 52.91,616.45 53.00,617.10" fill="none" stroke="rgb(127, 46, 0)" stroke-width="3.35" stroke-opacity="1.00" stroke-linejoin="round"/>
<path d="M55.92,625.85 C55.92,625.85 53.90,625.85 53.90,625.85 C53.90,625.85 76.74,627.28 76.74,627.28 C76.74,627.28 76.24,627.28 76.24,627.28" fill="none" stroke="rgb(127, 46, 0)" stroke-width="3.35" stroke-opacity="1.00" stroke-linejoin="round"/>
<path d="M50.22,617.30 C50.22,617.30 50.22,619.44 50.22,619.44 C50.21,617.61 50.23,614.08 50.14,613.39 C49.92,611.66 48.43,610.09 46.51,609.26 C44.85,608.62 26.20,611.28 24.85,611.84 C25.18,614.29 25.35,616.63 25.57,621.08 C25.67,623.12 25.82,626.51 25.88,627.86" fill="none" stroke="rgb(127, 46, 0)" stroke-width="3.35" stroke-opacity="1.00" stroke-linejoin="round"/>
<path d="M52.36,613.03 C52.46,614.15 51.50,615.63 51.64,618.49 C51.95,622.16 52.36,627.81 52.31,630.82 C52.31,630.82 51.36,630.56 51.36,630.56" fill="none" stroke="rgb(127, 46, 0)" stroke-width="3.35" stroke-opacity="1.00" stroke-linejoin="round"/>
<path d="M21.72,611.60 C21.72,611.60 4.81,613.78 4.81,613.78 C4.81,613.78 5.57,614.29 5.57,614.29" fill="none" stroke="rgb(127, 46, 0)" stroke-width="3.35" stroke-opacity="1.00" stroke-linejoin="round"/>
<path d="M11.03,636.54 C11.03,636.54 6.10,637.91 6.10,637.91 C7.85,637.76 13.54,635.85 16.86,634.54 C20.59,633.05 22.89,632.19 23.63,631.92" fill="none" stroke="rgb(127, 46, 0)" stroke-width="3.35" stroke-opacity="1.00" stroke-linejoin="round"/>
<path d="M25.99,627.99 C25.99,627.99 24.99,628.28 24.99,628.28 C24.57,629.64 24.58,631.25 25.15,632.86 C28.15,641.29 33.14,660.85 33.44,662.49 C33.73,664.14 35.07,693.12 34.81,716.28 C34.83,719.51 35.50,729.40 35.58,730.47" fill="none" stroke="rgb(127, 46, 0)" stroke-width="3.35" stroke-opacity="1.00" stroke-linejoin="round"/>
<path d="M30.98,631.55 C30.98,631.55 28.13,634.40 28.13,634.40 C29.28,634.44 35.48,633.81 38.96,633.55 C41.71,633.34 44.34,632.99 46.19,632.55 C46.78,632.41 49.15,631.65 50.45,631.25" fill="none" stroke="rgb(127, 46, 0)" stroke-width="3.35" stroke-opacity="1.00" stroke-linejoin="round"/>
<path d="M55.21,632.98 C53.83,634.18 52.67,635.90 52.36,637.56 C52.04,639.33 56.48,661.22 57.42,667.89 C58.43,675.17 59.26,688.12 59.50,698.13 C59.74,708.03 60.79,714.14 63.86,727.21 C64.69,730.88 65.67,736.62 66.18,739.79 C66.67,743.02 67.14,747.32 67.24,748.29" fill="none" stroke="rgb(127, 46, 0)" stroke-width="3.35" stroke-opacity="1.00" stroke-linejoin="round"/>
<path d="M77.30,627.99 C77.30,627.99 75.51,627.99 75.51,627.99 C74.57,628.78 77.76,642.56 79.29,650.36 C81.88,665.02 86.47,696.53 88.59,712.46 C89.76,720.06 92.08,732.59 93.27,738.45 C93.34,738.88 93.47,739.69 93.64,740.87" fill="none" stroke="rgb(127, 46, 0)" stroke-width="3.35" stroke-opacity="1.00" stroke-linejoin="round"/>
<path d="M97.25,627.28 C96.69,629.73 96.40,633.87 96.68,637.21 C97.02,640.82 100.72,655.62 102.15,661.59 C103.78,669.20 105.03,678.64 106.03,689.59 C106.55,696.85 107.35,710.40 108.00,717.65 C108.38,721.13 109.27,728.71 109.87,731.26 C110.14,732.36 112.43,737.97 112.92,739.15" fill="none" stroke="rgb(127, 46, 0)" stroke-width="3.35" stroke-opacity="1.00" stroke-linejoin="round"/>
<path d="M134.30,632.27 C134.30,632.44 134.28,633.50 134.30,633.81 C134.55,638.69 136.05,648.29 136.78,658.05 C137.73,674.00 140.10,711.93 140.02,715.24 C139.93,718.68 139.32,727.00 139.03,730.80 C138.73,734.53 138.11,742.54 137.96,746.18 C137.93,746.83 137.92,747.60 137.92,748.49" fill="none" stroke="rgb(127, 46, 0)" stroke-width="3.35" stroke-opacity="1.00" stroke-linejoin="round"/>
<path d="M175.63,630.13 C175.63,630.13 175.27,630.13 175.27,630.13 C174.43,631.22 174.19,634.71 174.17,638.29 C174.04,655.01 173.63,682.64 173.58,698.40 C173.68,725.91 174.15,736.59 175.03,739.57 C175.17,740.02 175.55,741.03 176.16,742.59" fill="none" stroke="rgb(127, 46, 0)" stroke-width="3.35" stroke-opacity="1.00" stroke-linejoin="round"/>
<path d="M206.27,630.84 C204.84,632.88 204.21,635.67 204.51,638.70 C204.66,640.06 208.21,664.53 208.45,668.22 C210.75,719.52 212.46,733.25 213.60,739.57 C213.60,739.57 213.56,738.91 213.56,738.91" fill="none" stroke="rgb(127, 46, 0)" stroke-width="3.35" stroke-opacity="1.00" stroke-linejoin="round"/>
<path d="M206.98,671.46 C206.98,673.43 206.98,679.57 206.98,683.74 C206.96,699.38 207.11,741.24 207.54,742.99 C207.62,743.31 207.86,743.97 208.26,744.97" fill="none" stroke="rgb(127, 46, 0)" stroke-width="3.35" stroke-opacity="1.00" stroke-linejoin="round"/>
<path d="M234.77,633.69 C234.81,636.67 234.93,643.93 235.15,647.72 C236.30,662.42 238.44,693.86 239.04,710.77 C239.16,720.32 239.08,743.77 239.22,746.51 C239.22,746.51 239.65,746.50 239.65,746.50" fill="none" stroke="rgb(127, 46, 0)" stroke-width="3.35" stroke-opacity="1.00" stroke-linejoin="round"/>
<path d="M261.13,636.54 C261.13,636.54 260.78,635.47 260.78,635.47 C260.78,635.47 260.42,635.76 260.42,635.76 C260.39,639.36 261.41,678.16 261.82,695.92 C261.98,704.64 262.29,720.45 262.44,727.55 C262.56,732.50 262.81,736.77 263.27,740.57" fill="none" stroke="rgb(127, 46, 0)" stroke-width="3.35" stroke-opacity="1.00" stroke-linejoin="round"/>
<path d="M269.69,639.39 C268.37,643.64 268.20,647.41 268.41,650.90 C269.63,666.86 271.47,693.25 271.79,710.58 C271.84,735.23 272.05,739.52 272.30,741.46" fill="none" stroke="rgb(127, 46, 0)" stroke-width="3.35" stroke-opacity="1.00" stroke-linejoin="round"/>
<path d="M289.64,634.40 C289.64,634.40 289.64,634.05 289.64,634.05 C289.64,634.05 289.28,633.69 289.28,633.69 C288.98,633.96 288.86,634.49 288.88,635.91 C289.51,664.53 290.68,743.40 290.94,745.33 C291.04,746.01 291.28,747.21 291.66,748.92" fill="none" stroke="rgb(127, 46, 0)" stroke-width="3.35" stroke-opacity="1.00" stroke-linejoin="round"/>
<path d="M308.16,634.40 C308.16,634.40 307.09,633.69 307.09,633.69 C306.59,633.57 306.98,638.10 307.59,643.96 C309.14,660.35 310.69,689.22 310.98,703.74 C311.00,710.58 311.23,730.81 311.49,731.49 C311.62,731.83 312.03,732.41 312.72,733.22" fill="none" stroke="rgb(127, 46, 0)" stroke-width="3.35" stroke-opacity="1.00" stroke-linejoin="round"/>
<path d="M323.13,629.42 C323.13,631.60 323.13,637.37 323.12,640.95 C323.22,656.76 323.72,687.54 324.41,702.40 C325.38,717.62 327.11,737.56 328.32,741.69 C328.32,741.69 329.20,741.75 329.20,741.75" fill="none" stroke="rgb(127, 46, 0)" stroke-width="3.35" stroke-opacity="1.00" stroke-linejoin="round"/>
<path d="M349.49,675.02 C349.49,676.35 349.51,679.90 349.52,682.13 C349.81,696.67 350.42,740.95 350.42,740.96 C350.59,742.45 351.12,744.77 351.52,746.03" fill="none" stroke="rgb(127, 46, 0)" stroke-width="3.35" stroke-opacity="1.00" stroke-linejoin="round"/>
<path d="M371.58,678.58 C371.18,678.18 370.94,677.83 370.87,677.51 C370.81,677.27 370.81,676.51 370.87,675.24 C370.88,674.95 370.88,674.70 370.87,674.50 C370.91,677.87 370.38,693.41 370.09,701.94 C369.89,709.70 369.54,726.26 369.70,729.25 C369.82,732.15 370.05,738.17 370.16,741.29" fill="none" stroke="rgb(127, 46, 0)" stroke-width="3.35" stroke-opacity="1.00" stroke-linejoin="round"/>
<path d="M385.12,684.28 C385.12,684.28 385.12,683.93 385.12,683.93 C385.12,683.90 385.12,683.97 385.12,684.00 C385.08,699.83 384.84,726.89 384.58,731.68 C384.21,738.81 383.77,747.29 383.71,748.64" fill="none" stroke="rgb(127, 46, 0)" stroke-width="3.35" stroke-opacity="1.00" stroke-linejoin="round"/>
<path d="M406.50,675.02 C404.63,676.75 403.29,680.32 403.13,684.87 C402.71,698.51 401.48,721.90 401.07,729.69 C400.84,736.10 400.81,741.62 400.80,744.22" fill="none" stroke="rgb(127, 46, 0)" stroke-width="3.35" stroke-opacity="1.00" stroke-linejoin="round"/>
<path d="M416.47,665.76 C415.62,666.91 415.05,668.17 414.82,669.90 C414.37,673.35 415.04,719.09 414.57,732.64 C414.53,734.21 414.43,737.74 414.45,738.39 C414.51,740.34 414.79,743.19 415.02,744.77" fill="none" stroke="rgb(127, 46, 0)" stroke-width="3.35" stroke-opacity="1.00" stroke-linejoin="round"/>
<path d="M454.24,640.82 C454.24,640.82 452.81,640.82 452.81,640.82 C452.81,640.82 451.82,641.60 451.82,641.60 C451.44,643.74 451.26,662.78 451.17,671.36 C450.87,681.66 447.69,714.40 446.02,730.15 C445.67,733.08 445.15,737.63 444.97,739.24" fill="none" stroke="rgb(127, 46, 0)" stroke-width="3.35" stroke-opacity="1.00" stroke-linejoin="round"/>
<path d="M471.34,642.24 C471.34,642.24 469.35,641.53 469.35,641.53 C468.09,642.88 467.73,643.78 467.83,645.87 C467.85,646.19 468.45,689.04 467.78,706.61 C467.39,713.67 465.83,732.07 466.05,736.06 C466.05,736.06 467.18,735.63 467.18,735.63" fill="none" stroke="rgb(127, 46, 0)" stroke-width="3.35" stroke-opacity="1.00" stroke-linejoin="round"/>
<path d="M482.74,647.23 C482.74,647.23 483.45,647.23 483.45,647.23 C483.45,647.78 483.44,649.70 483.44,651.06 C483.29,661.68 480.09,697.59 478.56,715.11 C477.96,724.32 477.31,741.44 477.90,744.66 C478.00,745.20 478.19,745.98 478.47,746.99" fill="none" stroke="rgb(127, 46, 0)" stroke-width="3.35" stroke-opacity="1.00" stroke-linejoin="round"/>
<path d="M508.39,639.39 C506.79,641.02 505.71,645.47 505.67,648.07 C505.54,661.97 501.37,733.12 501.39,733.33 C501.42,733.86 501.59,735.08 501.89,736.98" fill="none" stroke="rgb(127, 46, 0)" stroke-width="3.35" stroke-opacity="1.00" stroke-linejoin="round"/>
<path d="M509.82,678.58 C509.82,678.58 506.82,683.42 506.82,683.42 C504.30,680.63 501.74,678.70 498.03,677.26 C494.85,676.07 482.16,674.37 476.83,674.61 C473.61,674.77 455.33,677.14 451.55,678.45 C448.03,679.72 444.14,682.50 440.91,686.01 C440.07,686.94 438.66,688.43 437.85,689.27" fill="none" stroke="rgb(127, 46, 0)" stroke-width="3.35" stroke-opacity="1.00" stroke-linejoin="round"/>
<path d="M511.96,712.79 C511.96,712.79 511.72,711.54 511.72,711.54 C506.83,711.23 489.32,709.02 485.83,708.10 C483.93,707.60 478.12,705.52 472.60,705.09 C467.81,704.74 427.70,705.19 414.07,705.45 C393.90,705.66 372.94,706.59 352.98,708.84 C338.04,710.17 304.32,713.42 292.83,715.18 C278.62,717.33 262.10,719.85 259.78,720.22" fill="none" stroke="rgb(127, 46, 0)" stroke-width="3.35" stroke-opacity="1.00" stroke-linejoin="round"/>
<path d="M494.14,722.05 C494.14,722.05 495.45,721.34 495.45,721.34 C492.56,721.50 488.23,722.71 486.00,722.76 C481.30,722.83 466.05,719.87 458.55,718.40 C448.03,716.46 439.07,715.48 432.45,715.18 C428.67,715.05 410.66,714.32 402.12,712.74 C395.83,711.47 381.31,708.71 374.55,707.88 C359.44,706.22 340.77,705.17 317.32,705.27 C303.33,705.25 267.02,705.79 259.27,705.63 C252.43,705.35 236.68,704.63 230.42,704.82 C227.61,704.92 204.33,706.49 201.21,706.58 C195.33,706.74 179.23,706.26 172.02,706.19 C161.53,706.31 122.33,707.87 113.99,706.66 C104.76,705.24 97.34,704.58 86.85,704.31 C80.28,704.24 57.13,705.63 56.39,705.49 C55.91,705.39 54.91,705.05 53.40,704.48" fill="none" stroke="rgb(127, 46, 0)" stroke-width="3.35" stroke-opacity="1.00" stroke-linejoin="round"/>
<path d="M315.29,740.57 C312.55,740.59 309.09,740.32 304.47,739.27 C293.00,736.54 285.70,735.00 278.19,734.33 C275.90,734.13 237.00,731.65 220.23,729.71 C205.73,728.34 177.13,725.44 160.53,723.39 C151.57,722.20 146.85,720.86 134.77,717.79 C130.25,716.66 120.18,714.18 119.22,713.96 C115.11,713.05 97.69,712.51 89.64,710.83 C83.56,709.55 69.67,705.92 63.64,704.84 C57.89,703.83 41.48,702.79 34.63,702.41 C24.13,701.70 12.34,701.85 8.82,702.42 C8.82,702.42 8.52,703.33 8.52,703.33" fill="none" stroke="rgb(127, 46, 0)" stroke-width="3.35" stroke-opacity="1.00" stroke-linejoin="round"/>
<path d="M224.08,731.31 C224.08,731.31 220.73,731.25 220.73,731.25 C220.37,730.41 214.82,730.00 212.22,729.93 C195.41,729.54 164.50,728.50 146.98,726.79 C139.09,725.87 120.26,723.60 116.64,723.29 C108.17,722.57 71.50,725.19 65.13,724.53 C61.34,724.12 42.71,721.06 35.56,719.98 C28.84,719.08 19.03,718.12 18.00,718.02" fill="none" stroke="rgb(127, 46, 0)" stroke-width="3.35" stroke-opacity="1.00" stroke-linejoin="round"/>
<path d="M72.31,699.25 C72.31,699.25 66.82,699.25 66.82,699.25 C73.21,699.11 110.51,695.51 126.17,693.89 C138.66,692.72 169.06,691.88 182.78,691.69 C193.01,691.38 236.78,688.84 244.75,688.98 C248.54,689.06 334.60,692.83 361.20,694.67 C394.41,696.56 436.48,699.51 437.46,699.63 C438.59,699.78 440.41,700.17 441.42,700.45" fill="none" stroke="rgb(127, 46, 0)" stroke-width="3.35" stroke-opacity="1.00" stroke-linejoin="round"/>
<path d="M342.37,672.17 C342.37,671.81 338.98,671.33 329.54,670.48 C301.21,667.82 276.35,666.81 269.71,666.42 C257.89,665.44 224.81,663.99 206.89,663.29 C182.84,662.45 163.15,662.95 152.05,664.04 C139.80,665.37 129.28,666.23 120.00,666.35 C111.48,666.35 104.99,666.09 94.49,666.68 C73.55,668.20 49.35,670.70 36.98,670.18 C22.08,669.70 6.89,671.29 5.96,671.22 C5.96,671.22 4.87,669.83 4.87,669.83" fill="none" stroke="rgb(127, 46, 0)" stroke-width="3.35" stroke-opacity="1.00" stroke-linejoin="round"/>
<path d="M12.45,647.94 C12.45,647.94 11.74,645.09 11.74,645.09 C13.54,646.30 16.78,647.56 22.67,649.32 C26.73,650.48 35.27,652.88 37.38,653.39 C40.09,654.03 74.38,654.95 94.67,656.83 C116.23,658.54 128.67,658.64 148.56,657.45 C163.44,656.33 194.98,653.59 211.63,651.96 C222.38,650.98 234.31,651.07 239.32,651.21 C249.28,651.36 258.93,650.96 269.22,649.95 C275.81,649.14 287.48,647.76 297.48,647.45 C305.31,647.35 319.00,647.24 324.87,647.23 C328.45,647.18 334.17,647.76 335.95,647.94" fill="none" stroke="rgb(127, 46, 0)" stroke-width="3.35" stroke-opacity="1.00" stroke-linejoin="round"/>
<path d="M311.01,737.01 C311.73,737.12 313.85,736.30 320.05,736.30 C331.25,736.83 359.14,736.86 377.62,735.97 C386.63,735.67 397.38,736.36 403.70,736.79 C411.16,737.11 429.30,737.73 433.32,737.44 C433.67,737.42 434.18,737.37 434.86,737.29" fill="none" stroke="rgb(127, 46, 0)" stroke-width="3.35" stroke-opacity="1.00" stroke-linejoin="round"/>
</g>
</svg>
