<?xml version="1.0" encoding="UTF-8" standalone="no"?>
<!DOCTYPE svg PUBLIC "-//W3C//DTD SVG 1.1//EN" "http://www.w3.org/Graphics/SVG/1.1/DTD/svg11.dtd">
<svg width="128.40" height="181.68" viewBox="0.00 0.00 535.00 757.00" xmlns="http://www.w3.org/2000/svg" xmlns:xlink="http://www.w3.org/1999/xlink">
<g stroke-linecap="round" id="179">
<path d="M314.71,84.12 C314.71,84.12 311.09,83.23 311.09,83.23 C310.73,81.00 310.80,74.46 309.93,72.78 C309.45,71.88 298.63,56.35 295.21,54.25 C292.47,52.63 287.19,51.51 283.19,51.16 C279.74,50.88 272.94,50.37 269.77,50.26 C266.40,50.18 261.66,50.94 257.28,52.24 C253.52,53.38 248.93,55.10 245.71,56.86 C238.89,60.64 232.08,66.10 223.11,75.03 C220.18,77.89 215.06,82.46 212.00,84.95 C209.27,87.14 203.89,90.38 202.78,89.97 C201.00,86.22 199.54,83.46 197.51,81.11 C195.66,79.01 190.61,73.73 187.14,70.33 C183.69,67.01 178.85,63.12 175.84,61.94 C173.52,61.05 170.05,60.44 168.70,60.31 C168.20,58.81 167.27,55.86 166.94,55.28 C166.10,53.86 163.51,52.62 161.09,52.28 C159.21,52.06 153.56,53.17 150.65,54.45 C145.30,56.85 134.34,64.85 130.10,69.50 C123.90,76.50 117.03,85.55 112.77,91.29 C110.27,94.49 106.34,98.44 103.67,99.47 C102.88,99.78 99.80,101.35 98.42,103.01 C95.86,106.14 91.99,119.18 90.50,127.96 C89.44,134.31 89.36,149.74 90.77,156.15 C91.76,160.55 92.94,164.93 94.73,168.56 C95.71,170.52 100.05,177.87 102.03,180.40 C105.01,184.16 114.57,192.30 121.18,197.27 C122.92,198.64 128.15,205.04 129.84,206.85 C132.93,210.13 135.99,212.53 138.14,212.90 C141.21,213.36 145.96,213.21 150.02,212.50 C153.88,211.81 165.60,207.90 166.92,207.46" fill="none" stroke="rgb(0, 255, 255)" stroke-width="3.34" stroke-opacity="1.00" stroke-linejoin="round"/>
<path d="M167.10,207.13 C167.10,207.13 164.71,207.13 164.71,207.13 C167.74,207.65 169.24,207.80 170.44,207.54 C176.92,206.07 186.08,203.96 187.02,203.17 C193.15,214.34 197.42,221.73 200.71,225.30 C203.30,228.08 205.98,230.29 209.75,231.84 C210.54,232.16 218.83,235.70 221.62,236.90" fill="none" stroke="rgb(0, 255, 255)" stroke-width="3.34" stroke-opacity="1.00" stroke-linejoin="round"/>
<path d="M279.00,211.89 C277.82,212.35 275.42,214.09 273.57,216.17 C270.36,219.84 268.34,222.28 266.00,223.54 C264.66,224.25 255.74,227.83 253.13,228.88 C251.73,229.41 233.43,234.11 227.80,234.14 C224.58,234.12 220.03,234.11 218.68,234.12" fill="none" stroke="rgb(0, 255, 255)" stroke-width="3.34" stroke-opacity="1.00" stroke-linejoin="round"/>
<path d="M282.18,210.31 C282.18,210.31 278.38,210.31 278.38,210.31 C278.42,211.06 278.67,211.61 279.68,212.80 C284.86,218.85 297.28,233.05 299.82,234.48 C304.67,237.09 329.55,245.39 333.23,246.20 C337.10,247.03 345.13,247.65 348.70,247.45 C352.92,247.17 358.13,245.71 362.74,243.70 C373.18,239.04 388.76,225.15 390.80,223.07 C393.05,220.76 397.19,216.04 398.05,215.07" fill="none" stroke="rgb(0, 255, 255)" stroke-width="3.34" stroke-opacity="1.00" stroke-linejoin="round"/>
<path d="M399.64,219.83 C399.11,219.79 398.10,219.95 397.65,220.23 C397.51,220.31 397.38,220.48 397.25,220.73 C398.15,223.43 401.39,227.66 403.34,230.20 C410.41,239.12 415.51,244.58 418.88,246.17 C422.38,247.79 436.68,250.16 443.38,249.69 C447.15,249.39 467.31,242.49 470.52,240.62 C471.84,239.83 477.01,235.88 479.46,233.60 C482.61,230.64 486.41,226.01 488.64,222.66 C491.27,218.67 494.61,213.18 496.15,209.86 C497.58,206.75 499.68,200.35 500.35,197.19 C500.92,194.46 502.12,185.66 502.18,185.45 C502.54,184.18 515.45,168.83 517.51,165.96 C521.82,159.87 528.10,146.71 529.21,141.44 C529.81,138.53 530.26,131.51 529.98,129.32 C529.87,128.64 528.64,125.19 528.10,124.29 C526.38,121.52 523.06,120.55 520.80,120.31 C522.10,119.14 526.77,112.68 527.58,110.99 C528.26,109.52 529.33,105.27 529.29,103.28 C529.22,101.31 528.23,96.72 527.35,94.51 C526.37,92.12 523.60,87.95 521.63,86.15 C519.68,84.41 513.31,80.92 511.68,80.33 C508.60,79.24 490.43,75.94 483.86,75.95 C479.80,75.98 472.73,76.73 469.35,77.68 C465.43,78.82 460.38,81.61 457.04,83.99 C448.95,89.80 442.29,93.17 441.02,93.42 C439.28,93.72 437.04,92.94 435.78,91.58 C435.54,91.32 425.75,76.77 421.25,71.60 C418.69,68.68 415.33,65.42 412.59,63.21 C410.15,61.28 404.40,57.70 401.24,56.42 C396.54,54.55 383.23,52.26 376.98,52.05 C372.44,51.93 366.93,52.46 362.99,53.41 C355.29,55.31 342.67,60.18 337.54,63.74 C335.27,65.35 330.00,70.77 328.21,72.27 C324.92,75.03 321.28,77.60 318.23,79.28 C317.44,79.71 314.85,81.20 313.92,81.74" fill="none" stroke="rgb(0, 255, 255)" stroke-width="3.34" stroke-opacity="1.00" stroke-linejoin="round"/>
<path d="M348.05,79.35 C348.05,79.35 347.65,78.96 347.65,78.96 C347.65,78.96 346.86,78.96 346.86,78.96 C345.15,83.89 341.45,119.96 339.95,135.84 C338.81,150.57 337.50,175.59 337.38,176.18 C337.26,176.76 336.92,177.69 336.36,178.96" fill="none" stroke="rgb(255, 0, 255)" stroke-width="3.34" stroke-opacity="1.00" stroke-linejoin="round"/>
<path d="M327.41,192.85 C325.75,195.03 325.12,196.31 325.11,198.01 C325.05,201.03 325.03,207.83 325.02,211.39 C325.07,218.54 325.19,230.82 325.65,235.85" fill="none" stroke="rgb(255, 0, 255)" stroke-width="3.34" stroke-opacity="1.00" stroke-linejoin="round"/>
<path d="M363.92,165.07 C362.00,169.40 359.91,174.88 357.22,184.82 C355.29,191.98 350.86,207.13 347.82,214.11 C346.87,216.28 343.72,223.05 343.16,224.25" fill="none" stroke="rgb(255, 0, 255)" stroke-width="3.34" stroke-opacity="1.00" stroke-linejoin="round"/>
<path d="M391.70,57.93 C390.21,60.44 389.45,62.91 388.36,68.39 C386.79,76.90 383.72,93.66 382.22,101.91 C380.00,113.72 377.63,124.72 376.22,131.32 C375.85,133.06 375.24,135.95 374.99,137.10" fill="none" stroke="rgb(255, 0, 255)" stroke-width="3.34" stroke-opacity="1.00" stroke-linejoin="round"/>
<path d="M406.78,84.12 C405.66,85.36 405.10,89.11 405.15,94.26 C405.33,101.75 405.73,113.85 405.96,118.47" fill="none" stroke="rgb(255, 0, 255)" stroke-width="3.34" stroke-opacity="1.00" stroke-linejoin="round"/>
<path d="M419.48,131.74 C419.50,135.22 419.43,138.17 419.15,143.28 C418.87,147.30 418.22,155.62 417.84,159.93 C416.91,168.51 415.85,177.07 415.71,178.20" fill="none" stroke="rgb(255, 0, 255)" stroke-width="3.34" stroke-opacity="1.00" stroke-linejoin="round"/>
<path d="M420.27,11.10 C419.23,11.71 417.72,15.91 417.41,19.43 C417.17,22.43 416.27,41.90 415.90,50.33 C415.52,57.76 415.08,66.11 415.02,67.03" fill="none" stroke="rgb(255, 0, 255)" stroke-width="3.34" stroke-opacity="1.00" stroke-linejoin="round"/>
<path d="M447.25,65.86 C447.25,65.86 446.06,65.66 446.06,65.66 C445.65,68.93 445.64,82.64 445.81,89.98 C446.07,96.49 447.23,110.69 448.37,116.82" fill="none" stroke="rgb(255, 0, 255)" stroke-width="3.34" stroke-opacity="1.00" stroke-linejoin="round"/>
<path d="M484.56,55.55 C483.10,62.99 483.47,67.39 485.15,77.91 C486.12,84.29 487.53,98.69 487.64,101.61" fill="none" stroke="rgb(255, 0, 255)" stroke-width="3.34" stroke-opacity="1.00" stroke-linejoin="round"/>
<path d="M449.64,138.08 C449.26,140.52 450.45,146.54 452.25,152.37 C453.58,156.38 456.45,165.11 457.07,167.24 C459.51,175.66 462.58,197.24 462.77,198.60" fill="none" stroke="rgb(255, 0, 255)" stroke-width="3.34" stroke-opacity="1.00" stroke-linejoin="round"/>
<path d="M432.18,189.67 C431.51,191.03 430.77,193.79 430.59,196.02 C430.43,197.98 432.78,217.12 433.71,224.91 C434.57,232.52 436.33,248.12 437.24,256.13 C437.76,260.21 438.46,263.66 439.32,267.00" fill="none" stroke="rgb(255, 0, 255)" stroke-width="3.34" stroke-opacity="1.00" stroke-linejoin="round"/>
<path d="M491.70,117.45 C491.70,117.45 490.91,116.92 490.91,116.92 C491.91,123.56 494.08,138.61 495.05,146.91 C495.35,149.76 496.01,158.35 496.25,161.78 C496.49,165.68 496.88,172.44 497.02,175.30" fill="none" stroke="rgb(255, 0, 255)" stroke-width="3.34" stroke-opacity="1.00" stroke-linejoin="round"/>
<path d="M502.02,223.01 C502.02,236.07 502.16,240.59 503.42,251.24 C503.80,254.41 504.27,261.56 504.47,264.03 C504.83,268.22 505.44,275.48 505.71,278.55" fill="none" stroke="rgb(255, 0, 255)" stroke-width="3.34" stroke-opacity="1.00" stroke-linejoin="round"/>
<path d="M471.86,238.88 C471.23,240.62 470.83,241.76 470.67,242.28 C469.04,247.58 467.48,260.40 467.17,268.17 C467.07,270.95 467.09,274.98 467.10,275.95" fill="none" stroke="rgb(255, 0, 255)" stroke-width="3.34" stroke-opacity="1.00" stroke-linejoin="round"/>
<path d="M479.00,249.20 C477.37,255.99 477.43,279.16 477.43,281.78 C477.45,283.57 477.99,289.94 478.14,291.72" fill="none" stroke="rgb(255, 0, 255)" stroke-width="3.34" stroke-opacity="1.00" stroke-linejoin="round"/>
<path d="M449.64,272.21 C449.63,272.95 449.63,275.13 449.64,276.58 C449.59,282.78 449.24,296.00 448.94,303.02 C448.87,306.71 448.51,321.16 448.21,324.54" fill="none" stroke="rgb(255, 0, 255)" stroke-width="3.34" stroke-opacity="1.00" stroke-linejoin="round"/>
<path d="M483.76,305.55 C483.75,309.51 483.73,318.78 483.92,321.14 C484.04,322.48 485.80,336.67 485.95,337.86" fill="none" stroke="rgb(255, 0, 255)" stroke-width="3.34" stroke-opacity="1.00" stroke-linejoin="round"/>
<path d="M502.02,313.48 C502.16,317.45 500.93,335.81 500.53,343.42 C500.33,348.41 500.40,364.63 500.38,371.86 C500.20,381.33 499.82,386.64 499.75,387.60" fill="none" stroke="rgb(255, 0, 255)" stroke-width="3.34" stroke-opacity="1.00" stroke-linejoin="round"/>
<path d="M518.68,301.58 C517.86,302.97 517.94,306.50 519.16,310.13 C520.00,312.54 521.77,318.70 522.22,320.28" fill="none" stroke="rgb(255, 0, 255)" stroke-width="3.34" stroke-opacity="1.00" stroke-linejoin="round"/>
<path d="M418.68,322.21 C418.69,329.54 418.82,348.34 419.08,353.01 C419.34,357.56 419.50,362.70 419.48,366.16" fill="none" stroke="rgb(255, 0, 255)" stroke-width="3.34" stroke-opacity="1.00" stroke-linejoin="round"/>
<path d="M403.60,302.37 C403.60,303.40 403.60,306.12 403.60,307.81 C403.60,310.74 403.60,317.37 403.60,321.06 C403.60,322.06 403.60,323.05 403.60,324.04" fill="none" stroke="rgb(255, 0, 255)" stroke-width="3.34" stroke-opacity="1.00" stroke-linejoin="round"/>
<path d="M396.46,245.23 C394.35,253.73 393.37,263.77 393.40,271.90 C393.42,273.87 393.48,277.65 393.52,279.46 C393.56,281.61 393.63,283.05 393.84,286.01" fill="none" stroke="rgb(255, 0, 255)" stroke-width="3.34" stroke-opacity="1.00" stroke-linejoin="round"/>
<path d="M432.97,375.39 C431.78,377.99 431.29,381.15 431.19,386.74 C431.17,391.04 431.43,399.63 431.73,403.59 C432.23,409.92 434.08,421.95 434.26,423.13" fill="none" stroke="rgb(255, 0, 255)" stroke-width="3.34" stroke-opacity="1.00" stroke-linejoin="round"/>
<path d="M507.57,416.66 C508.31,426.37 508.41,440.22 508.44,441.14 C508.83,448.76 509.49,461.11 509.77,465.84" fill="none" stroke="rgb(255, 0, 255)" stroke-width="3.34" stroke-opacity="1.00" stroke-linejoin="round"/>
<path d="M347.25,255.55 C345.03,258.92 342.48,266.02 342.23,268.05 C342.17,268.63 341.50,274.66 341.20,277.50 C340.79,281.46 340.09,288.34 339.79,291.26" fill="none" stroke="rgb(255, 0, 255)" stroke-width="3.34" stroke-opacity="1.00" stroke-linejoin="round"/>
<path d="M366.30,242.05 C366.30,242.05 364.09,242.05 364.09,242.05 C363.16,243.67 363.13,249.54 363.12,253.45 C363.13,257.55 363.13,264.61 363.13,267.58" fill="none" stroke="rgb(255, 0, 255)" stroke-width="3.34" stroke-opacity="1.00" stroke-linejoin="round"/>
<path d="M303.60,231.74 C302.87,231.60 301.16,232.14 300.20,232.98 C299.41,233.69 293.29,255.16 292.15,258.21 C290.41,262.80 288.08,266.54 287.48,267.52" fill="none" stroke="rgb(255, 0, 255)" stroke-width="3.34" stroke-opacity="1.00" stroke-linejoin="round"/>
<path d="M276.62,246.02 C276.75,252.07 276.98,265.75 277.07,273.39 C277.01,294.26 275.89,304.89 274.25,316.70" fill="none" stroke="rgb(255, 0, 255)" stroke-width="3.34" stroke-opacity="1.00" stroke-linejoin="round"/>
<path d="M324.24,165.86 C324.24,165.86 321.66,166.66 321.66,166.66 C319.75,170.05 314.11,184.73 311.47,191.73 C305.81,207.17 299.72,223.81 299.29,225.02" fill="none" stroke="rgb(255, 0, 255)" stroke-width="3.34" stroke-opacity="1.00" stroke-linejoin="round"/>
<path d="M290.11,191.26 C288.81,193.82 287.88,195.86 287.59,197.24 C286.84,200.93 286.85,209.01 286.95,212.91 C287.07,216.84 287.32,220.46 287.42,221.43" fill="none" stroke="rgb(255, 0, 255)" stroke-width="3.34" stroke-opacity="1.00" stroke-linejoin="round"/>
<path d="M282.18,97.61 C282.18,97.61 281.38,97.21 281.38,97.21 C281.38,97.21 279.79,98.01 279.79,98.01 C278.94,102.11 279.18,118.15 279.51,126.12 C280.05,134.24 280.77,144.94 280.96,147.52" fill="none" stroke="rgb(255, 0, 255)" stroke-width="3.34" stroke-opacity="1.00" stroke-linejoin="round"/>
<path d="M246.46,88.88 C246.46,88.88 245.67,84.91 245.67,84.91 C245.73,85.66 245.42,89.53 244.97,94.01 C243.79,105.09 238.84,142.81 236.69,159.03 C235.57,168.31 234.05,181.33 233.66,185.07" fill="none" stroke="rgb(255, 0, 255)" stroke-width="3.34" stroke-opacity="1.00" stroke-linejoin="round"/>
<path d="M225.83,87.29 C225.83,87.29 225.83,86.89 225.83,86.89 C225.83,86.89 225.20,86.95 225.20,86.95 C223.94,90.23 220.42,107.13 218.69,114.70 C214.85,130.13 209.35,143.73 208.42,146.00" fill="none" stroke="rgb(255, 0, 255)" stroke-width="3.34" stroke-opacity="1.00" stroke-linejoin="round"/>
<path d="M213.13,176.18 C213.05,178.91 213.15,183.63 213.37,188.20 C213.68,193.74 215.38,207.53 215.98,212.12" fill="none" stroke="rgb(255, 0, 255)" stroke-width="3.34" stroke-opacity="1.00" stroke-linejoin="round"/>
<path d="M191.70,149.99 C191.70,149.99 189.32,151.18 189.32,151.18 C189.22,154.28 192.44,165.38 194.80,174.60 C196.79,182.68 199.83,195.13 200.89,199.51" fill="none" stroke="rgb(255, 0, 255)" stroke-width="3.34" stroke-opacity="1.00" stroke-linejoin="round"/>
<path d="M234.56,207.93 C233.85,211.55 233.76,215.71 234.08,221.11 C234.69,229.27 235.90,245.62 236.51,253.81 C237.37,267.44 237.72,283.38 237.73,284.23" fill="none" stroke="rgb(255, 0, 255)" stroke-width="3.34" stroke-opacity="1.00" stroke-linejoin="round"/>
<path d="M233.76,32.53 C233.76,32.53 231.78,32.53 231.78,32.53 C231.28,32.98 232.50,48.64 233.09,56.62 C233.51,64.44 233.17,82.57 232.74,87.00" fill="none" stroke="rgb(255, 0, 255)" stroke-width="3.34" stroke-opacity="1.00" stroke-linejoin="round"/>
<path d="M271.06,16.66 C270.09,17.95 269.44,22.06 269.47,25.16 C269.51,28.70 269.64,36.52 269.74,40.80 C269.98,48.29 270.68,60.67 270.96,64.55" fill="none" stroke="rgb(255, 0, 255)" stroke-width="3.34" stroke-opacity="1.00" stroke-linejoin="round"/>
<path d="M213.92,26.18 C213.15,28.45 212.53,31.56 212.21,35.36 C211.43,43.57 210.14,56.82 209.63,61.88" fill="none" stroke="rgb(255, 0, 255)" stroke-width="3.34" stroke-opacity="1.00" stroke-linejoin="round"/>
<path d="M176.62,23.01 C175.32,24.23 174.52,25.04 174.24,25.44 C173.53,26.45 172.95,33.00 172.83,36.77 C172.66,44.56 172.32,59.72 172.16,67.09" fill="none" stroke="rgb(255, 0, 255)" stroke-width="3.34" stroke-opacity="1.00" stroke-linejoin="round"/>
<path d="M193.29,69.04 C191.41,74.84 188.82,87.87 187.49,94.75 C185.85,102.90 182.74,117.95 181.27,124.87" fill="none" stroke="rgb(255, 0, 255)" stroke-width="3.34" stroke-opacity="1.00" stroke-linejoin="round"/>
<path d="M153.60,19.83 C153.60,19.83 151.00,19.83 151.00,19.83 C149.67,21.47 149.16,22.58 149.11,24.42 C149.00,27.59 148.93,34.74 149.04,35.97 C149.37,39.82 152.37,61.35 153.49,69.12" fill="none" stroke="rgb(255, 0, 255)" stroke-width="3.34" stroke-opacity="1.00" stroke-linejoin="round"/>
<path d="M123.44,22.21 C123.44,22.21 119.48,22.81 119.48,22.81 C117.97,25.35 113.83,41.81 111.90,49.01 C111.09,51.89 109.41,57.87 108.52,60.98" fill="none" stroke="rgb(255, 0, 255)" stroke-width="3.34" stroke-opacity="1.00" stroke-linejoin="round"/>
<path d="M112.33,79.35 C112.33,79.35 111.14,77.37 111.14,77.37 C109.81,78.35 108.76,83.71 108.40,87.78 C107.77,95.68 106.73,109.67 106.32,115.77" fill="none" stroke="rgb(255, 0, 255)" stroke-width="3.34" stroke-opacity="1.00" stroke-linejoin="round"/>
<path d="M146.46,112.69 C146.46,112.69 145.67,113.32 145.67,113.32 C146.03,119.32 146.91,132.97 147.41,140.62 C147.96,148.50 148.58,157.46 148.66,158.55" fill="none" stroke="rgb(255, 0, 255)" stroke-width="3.34" stroke-opacity="1.00" stroke-linejoin="round"/>
<path d="M113.92,123.80 C113.69,126.03 113.43,129.49 113.38,131.39 C113.32,133.99 114.12,139.88 115.09,145.44 C116.61,153.60 119.13,167.04 120.13,172.31" fill="none" stroke="rgb(255, 0, 255)" stroke-width="3.34" stroke-opacity="1.00" stroke-linejoin="round"/>
<path d="M144.08,173.80 C144.03,176.71 145.23,182.34 146.18,186.02 C148.09,193.39 151.99,208.81 153.97,216.87 C155.83,224.36 158.77,235.81 159.87,239.77" fill="none" stroke="rgb(255, 0, 255)" stroke-width="3.34" stroke-opacity="1.00" stroke-linejoin="round"/>
<path d="M125.83,226.97 C124.31,229.93 122.80,234.54 122.35,237.15 C121.71,240.99 120.66,245.79 119.47,250.29 C118.51,253.87 117.57,256.86 117.26,257.78" fill="none" stroke="rgb(255, 0, 255)" stroke-width="3.34" stroke-opacity="1.00" stroke-linejoin="round"/>
<path d="M94.87,230.15 C94.71,230.94 94.29,233.06 94.02,234.39 C92.54,242.00 88.85,259.96 87.72,264.26 C86.09,270.42 80.79,284.78 78.17,291.68" fill="none" stroke="rgb(255, 0, 255)" stroke-width="3.34" stroke-opacity="1.00" stroke-linejoin="round"/>
<path d="M84.56,197.61 C83.07,201.44 81.88,206.43 81.64,210.44 C81.44,214.06 81.30,228.30 80.69,237.83 C80.37,241.93 80.07,244.20 79.15,248.59 C78.97,249.45 78.79,250.31 78.61,251.17" fill="none" stroke="rgb(255, 0, 255)" stroke-width="3.34" stroke-opacity="1.00" stroke-linejoin="round"/>
<path d="M56.78,176.97 C55.79,178.45 55.36,179.81 55.29,182.25 C55.22,185.73 55.11,192.71 54.78,196.90 C54.48,200.57 52.50,217.08 51.83,220.26" fill="none" stroke="rgb(255, 0, 255)" stroke-width="3.34" stroke-opacity="1.00" stroke-linejoin="round"/>
<path d="M30.59,161.89 C30.28,162.80 29.94,163.94 29.79,164.82 C29.35,167.41 29.12,174.96 29.00,179.09 C28.87,183.14 28.63,190.33 28.52,193.48" fill="none" stroke="rgb(255, 0, 255)" stroke-width="3.34" stroke-opacity="1.00" stroke-linejoin="round"/>
<path d="M65.51,68.24 C63.67,71.10 62.66,73.22 62.36,76.09 C61.85,82.53 60.38,99.24 59.77,103.87 C58.69,111.89 53.39,140.04 52.19,145.13" fill="none" stroke="rgb(255, 0, 255)" stroke-width="3.34" stroke-opacity="1.00" stroke-linejoin="round"/>
<path d="M40.11,91.26 C39.49,92.12 38.98,93.13 38.60,94.71 C37.75,98.37 36.34,106.79 35.69,110.75 C35.08,114.58 33.95,121.43 33.44,124.46" fill="none" stroke="rgb(255, 0, 255)" stroke-width="3.34" stroke-opacity="1.00" stroke-linejoin="round"/>
<path d="M96.46,76.97 C96.46,76.97 95.01,77.24 95.01,77.24 C93.91,80.58 92.10,94.05 91.16,101.38 C88.98,118.44 86.46,138.13 86.13,140.76" fill="none" stroke="rgb(255, 0, 255)" stroke-width="3.34" stroke-opacity="1.00" stroke-linejoin="round"/>
<path d="M86.14,151.58 C85.17,153.36 84.50,157.92 84.47,160.47 C84.44,163.38 84.92,179.13 85.03,182.62" fill="none" stroke="rgb(255, 0, 255)" stroke-width="3.34" stroke-opacity="1.00" stroke-linejoin="round"/>
<path d="M39.32,264.28 C39.32,264.28 34.56,262.69 34.56,262.69 C34.37,269.28 33.88,284.63 33.01,293.05 C32.49,298.06 30.57,310.94 30.21,313.28" fill="none" stroke="rgb(255, 0, 255)" stroke-width="3.34" stroke-opacity="1.00" stroke-linejoin="round"/>
<path d="M26.62,336.50 C26.62,336.50 23.44,336.89 23.44,336.89 C22.09,340.33 21.61,345.23 20.87,349.99 C18.27,366.39 13.71,384.04 12.58,388.27" fill="none" stroke="rgb(255, 0, 255)" stroke-width="3.34" stroke-opacity="1.00" stroke-linejoin="round"/>
<path d="M89.32,302.37 C86.86,304.41 85.78,305.55 85.45,306.76 C83.96,312.50 79.86,329.29 78.90,332.87 C78.48,334.35 77.81,336.76 77.54,337.70" fill="none" stroke="rgb(255, 0, 255)" stroke-width="3.34" stroke-opacity="1.00" stroke-linejoin="round"/>
<path d="M59.16,334.12 C58.56,335.70 57.34,339.02 57.16,339.90 C56.81,341.67 56.77,344.63 57.05,346.50 C57.20,347.40 57.87,350.96 58.08,352.06" fill="none" stroke="rgb(255, 0, 255)" stroke-width="3.34" stroke-opacity="1.00" stroke-linejoin="round"/>
<path d="M104.40,312.69 C102.36,316.76 100.53,320.80 99.67,324.11 C99.59,324.41 97.45,332.67 96.46,334.91" fill="none" stroke="rgb(255, 0, 255)" stroke-width="3.34" stroke-opacity="1.00" stroke-linejoin="round"/>
<path d="M136.94,316.66 C134.86,318.54 132.44,322.95 131.06,327.27 C129.03,333.91 124.83,347.36 122.03,354.90 C118.85,363.16 116.23,368.53 115.84,369.33" fill="none" stroke="rgb(255, 0, 255)" stroke-width="3.34" stroke-opacity="1.00" stroke-linejoin="round"/>
<path d="M152.02,336.50 C151.82,337.09 151.28,338.74 150.94,339.80 C150.46,341.31 149.43,344.52 148.89,346.22 C147.72,349.76 145.60,356.09 144.65,358.88" fill="none" stroke="rgb(255, 0, 255)" stroke-width="3.34" stroke-opacity="1.00" stroke-linejoin="round"/>
<path d="M165.51,285.70 C165.06,288.14 164.75,293.40 164.61,295.90 C164.49,297.70 163.66,302.70 163.43,304.06" fill="none" stroke="rgb(255, 0, 255)" stroke-width="3.34" stroke-opacity="1.00" stroke-linejoin="round"/>
<path d="M169.48,237.29 C169.49,237.62 167.17,239.95 166.43,241.06 C165.85,241.96 164.52,246.24 164.00,247.95 C163.71,248.92 163.41,249.89 163.12,250.86" fill="none" stroke="rgb(255, 0, 255)" stroke-width="3.34" stroke-opacity="1.00" stroke-linejoin="round"/>
<path d="M185.35,279.35 C183.51,283.11 182.92,285.66 182.89,289.55 C182.90,293.48 182.94,300.29 182.97,303.16" fill="none" stroke="rgb(255, 0, 255)" stroke-width="3.34" stroke-opacity="1.00" stroke-linejoin="round"/>
<path d="M192.49,245.23" fill="none" stroke="rgb(255, 0, 255)" stroke-width="3.34" stroke-opacity="1.00" stroke-linejoin="round"/>
<path d="M190.91,245.23 C190.87,246.35 190.87,247.10 190.91,247.49 C190.96,248.17 191.13,248.92 191.39,249.73 C191.51,250.08 191.77,250.75 192.18,251.75" fill="none" stroke="rgb(255, 0, 255)" stroke-width="3.34" stroke-opacity="1.00" stroke-linejoin="round"/>
<path d="M221.06,265.86 C220.23,266.10 218.43,266.95 217.89,267.85 C217.00,269.33 215.97,276.08 214.98,281.81 C214.25,285.79 212.43,290.56 211.67,292.05" fill="none" stroke="rgb(255, 0, 255)" stroke-width="3.34" stroke-opacity="1.00" stroke-linejoin="round"/>
<path d="M228.21,299.99 C226.68,303.59 223.01,321.75 221.44,329.75 C220.62,333.77 219.57,338.81 219.26,340.14" fill="none" stroke="rgb(255, 0, 255)" stroke-width="3.34" stroke-opacity="1.00" stroke-linejoin="round"/>
<path d="M193.29,332.53 C193.01,335.46 192.77,337.08 191.38,342.69 C190.53,345.98 188.92,351.03 186.94,355.29 C185.52,358.31 178.80,371.53 178.18,372.75" fill="none" stroke="rgb(255, 0, 255)" stroke-width="3.34" stroke-opacity="1.00" stroke-linejoin="round"/>
<path d="M196.46,400.78 C196.46,400.78 196.06,400.78 196.06,400.78 C195.14,401.65 194.42,407.54 194.14,410.14 C193.63,413.85 190.00,431.87 188.16,439.64 C187.51,442.26 185.39,450.00 184.70,452.53" fill="none" stroke="rgb(255, 0, 255)" stroke-width="3.34" stroke-opacity="1.00" stroke-linejoin="round"/>
<path d="M174.24,396.02 C171.50,398.46 168.86,402.89 167.37,408.03 C166.39,411.61 164.58,418.49 163.74,421.78 C162.73,425.51 161.20,430.31 159.32,435.85" fill="none" stroke="rgb(255, 0, 255)" stroke-width="3.34" stroke-opacity="1.00" stroke-linejoin="round"/>
<path d="M245.67,314.28 C244.06,316.90 243.24,320.31 243.22,323.53 C243.26,330.73 243.22,346.99 242.96,352.10 C242.55,358.87 240.93,367.05 240.61,368.66" fill="none" stroke="rgb(255, 0, 255)" stroke-width="3.34" stroke-opacity="1.00" stroke-linejoin="round"/>
<path d="M240.91,391.26 C239.32,397.24 239.20,407.07 239.45,410.57 C239.58,412.36 240.40,420.20 240.70,422.97" fill="none" stroke="rgb(255, 0, 255)" stroke-width="3.34" stroke-opacity="1.00" stroke-linejoin="round"/>
<path d="M262.33,270.62 C260.50,274.73 258.98,278.48 258.49,281.12 C258.31,282.18 257.59,289.89 257.34,292.82 C256.84,299.96 256.24,311.43 256.09,314.60" fill="none" stroke="rgb(255, 0, 255)" stroke-width="3.34" stroke-opacity="1.00" stroke-linejoin="round"/>
<path d="M113.92,383.32 C112.30,385.98 111.18,389.54 110.80,392.87 C110.02,400.38 108.04,417.90 107.39,421.95 C106.10,429.48 103.88,438.93 103.21,441.76" fill="none" stroke="rgb(255, 0, 255)" stroke-width="3.34" stroke-opacity="1.00" stroke-linejoin="round"/>
<path d="M125.83,408.72 C124.80,409.65 123.24,411.49 122.45,412.89 C121.08,415.34 117.21,430.91 115.49,437.26 C112.70,446.61 111.40,450.24 111.04,451.14" fill="none" stroke="rgb(255, 0, 255)" stroke-width="3.34" stroke-opacity="1.00" stroke-linejoin="round"/>
<path d="M92.49,399.99 C92.72,399.98 89.74,404.16 88.37,406.93 C86.60,410.56 80.57,425.83 77.64,433.29 C67.81,457.76 63.43,465.71 62.48,467.42" fill="none" stroke="rgb(255, 0, 255)" stroke-width="3.34" stroke-opacity="1.00" stroke-linejoin="round"/>
<path d="M58.37,415.07 C58.37,415.07 58.37,414.28 58.37,414.28 C57.19,417.38 51.12,426.51 44.75,435.60 C38.53,444.54 32.63,453.70 29.84,459.66 C28.98,461.51 27.55,464.77 27.01,466.01" fill="none" stroke="rgb(255, 0, 255)" stroke-width="3.34" stroke-opacity="1.00" stroke-linejoin="round"/>
<path d="M41.70,449.99 C41.55,451.18 41.41,452.05 41.30,452.60 C40.40,456.44 39.59,463.39 39.37,464.96 C38.61,470.22 36.31,479.99 36.07,481.03" fill="none" stroke="rgb(255, 0, 255)" stroke-width="3.34" stroke-opacity="1.00" stroke-linejoin="round"/>
<path d="M48.05,378.56 C46.91,383.53 44.11,400.25 43.49,403.43 C42.16,410.18 39.03,421.42 38.31,423.96" fill="none" stroke="rgb(255, 0, 255)" stroke-width="3.34" stroke-opacity="1.00" stroke-linejoin="round"/>
<path d="M13.13,408.72 C12.14,410.66 11.45,412.18 11.25,413.40 C10.68,416.94 10.42,436.42 9.36,442.31 C8.74,445.65 7.80,449.33 7.10,451.27" fill="none" stroke="rgb(255, 0, 255)" stroke-width="3.34" stroke-opacity="1.00" stroke-linejoin="round"/>
<path d="M25.83,498.40 C25.83,498.40 25.83,497.61 25.83,497.61 C25.34,498.03 24.99,502.70 25.01,504.95 C25.05,511.57 22.12,539.50 21.64,543.89" fill="none" stroke="rgb(255, 0, 255)" stroke-width="3.34" stroke-opacity="1.00" stroke-linejoin="round"/>
<path d="M47.25,508.72 C45.98,510.46 44.92,513.51 44.19,517.82 C43.32,522.91 39.61,536.76 37.36,543.37 C35.53,548.67 30.52,559.95 28.81,563.75" fill="none" stroke="rgb(255, 0, 255)" stroke-width="3.34" stroke-opacity="1.00" stroke-linejoin="round"/>
<path d="M6.78,571.42 C5.78,574.20 5.09,580.37 5.23,583.64 C5.44,587.83 7.85,605.56 8.91,612.92 C10.13,620.98 11.52,630.17 11.70,631.31" fill="none" stroke="rgb(255, 0, 255)" stroke-width="3.34" stroke-opacity="1.00" stroke-linejoin="round"/>
<path d="M29.00,582.53 C28.45,583.50 26.97,586.14 26.62,586.89 C25.56,589.21 24.52,609.03 24.06,613.78 C23.46,619.85 20.90,634.18 19.46,641.04 C17.36,649.77 14.69,658.91 13.32,663.52" fill="none" stroke="rgb(255, 0, 255)" stroke-width="3.34" stroke-opacity="1.00" stroke-linejoin="round"/>
<path d="M59.95,615.07 C59.95,615.07 58.76,613.08 58.76,613.08 C58.76,613.08 58.10,613.08 58.10,613.08 C57.39,616.03 55.18,631.11 53.34,639.56 C50.51,651.63 44.67,666.52 44.21,667.70" fill="none" stroke="rgb(255, 0, 255)" stroke-width="3.34" stroke-opacity="1.00" stroke-linejoin="round"/>
<path d="M64.71,549.20 C64.71,549.20 63.52,549.99 63.52,549.99 C63.26,552.08 61.67,568.74 60.90,572.45 C60.37,574.93 58.53,581.76 58.05,583.34 C56.69,587.72 54.90,592.48 53.34,596.22" fill="none" stroke="rgb(255, 0, 255)" stroke-width="3.34" stroke-opacity="1.00" stroke-linejoin="round"/>
<path d="M89.32,511.10 C89.32,511.10 88.13,510.31 88.13,510.31 C87.66,510.69 87.72,518.23 87.74,522.20 C87.73,525.74 87.65,532.84 87.59,536.40 C87.50,539.68 87.21,542.53 87.08,543.39" fill="none" stroke="rgb(255, 0, 255)" stroke-width="3.34" stroke-opacity="1.00" stroke-linejoin="round"/>
<path d="M100.43,544.43 C100.15,545.45 99.23,548.86 99.05,549.69 C98.37,552.92 98.09,558.19 98.06,562.74 C98.00,573.63 97.80,577.70 97.55,579.73" fill="none" stroke="rgb(255, 0, 255)" stroke-width="3.34" stroke-opacity="1.00" stroke-linejoin="round"/>
<path d="M144.87,446.81 C144.38,452.99 144.04,458.27 143.99,461.94 C143.95,470.68 142.81,484.31 141.88,490.37 C141.17,494.91 137.44,511.81 135.71,518.74 C134.16,524.82 132.39,531.71 132.18,532.53" fill="none" stroke="rgb(255, 0, 255)" stroke-width="3.34" stroke-opacity="1.00" stroke-linejoin="round"/>
<path d="M163.13,533.32 C160.47,535.11 159.12,536.15 158.76,536.96 C158.22,538.20 154.75,558.10 153.23,563.84 C152.46,566.68 148.29,578.09 147.25,580.94" fill="none" stroke="rgb(255, 0, 255)" stroke-width="3.34" stroke-opacity="1.00" stroke-linejoin="round"/>
<path d="M134.56,577.77 C132.87,578.73 132.11,579.33 132.18,580.15 C132.24,580.96 133.80,590.66 134.07,593.82 C134.53,599.47 133.21,611.84 131.46,619.95 C129.96,626.73 123.12,641.00 119.73,647.95" fill="none" stroke="rgb(255, 0, 255)" stroke-width="3.34" stroke-opacity="1.00" stroke-linejoin="round"/>
<path d="M98.84,603.96 C98.73,604.88 97.51,609.26 96.50,616.10 C95.15,625.31 92.19,637.93 90.47,645.06 C86.14,662.48 82.40,675.02 81.02,679.60" fill="none" stroke="rgb(255, 0, 255)" stroke-width="3.34" stroke-opacity="1.00" stroke-linejoin="round"/>
<path d="M62.33,668.24 C61.27,673.45 60.60,678.07 60.73,681.61 C60.80,683.29 61.51,691.15 61.57,694.04 C61.57,694.23 61.54,704.71 61.54,708.28 C61.54,712.13 61.54,717.17 61.54,718.36" fill="none" stroke="rgb(255, 0, 255)" stroke-width="3.34" stroke-opacity="1.00" stroke-linejoin="round"/>
<path d="M90.91,674.59 C90.41,675.41 89.68,680.18 89.53,683.32 C89.42,686.60 89.31,693.01 89.30,696.14 C89.35,702.69 89.62,717.08 89.93,724.10" fill="none" stroke="rgb(255, 0, 255)" stroke-width="3.34" stroke-opacity="1.00" stroke-linejoin="round"/>
<path d="M116.30,693.64 C114.09,697.02 112.37,701.30 112.31,704.24 C112.30,706.92 112.98,712.28 113.77,717.15 C114.39,720.83 115.51,727.45 116.02,730.41" fill="none" stroke="rgb(255, 0, 255)" stroke-width="3.34" stroke-opacity="1.00" stroke-linejoin="round"/>
<path d="M127.41,704.75 C126.69,707.95 126.58,712.93 127.24,717.94 C127.75,721.61 128.43,724.88 129.75,730.39 C130.76,734.53 132.61,742.18 133.46,745.70" fill="none" stroke="rgb(255, 0, 255)" stroke-width="3.34" stroke-opacity="1.00" stroke-linejoin="round"/>
<path d="M163.13,618.24 C162.50,621.91 161.85,629.92 161.82,630.25 C161.53,633.82 158.28,655.52 157.29,659.61 C155.30,667.74 152.30,672.64 149.97,675.66" fill="none" stroke="rgb(255, 0, 255)" stroke-width="3.34" stroke-opacity="1.00" stroke-linejoin="round"/>
<path d="M200.43,599.99 C200.21,601.13 197.95,607.06 197.19,610.97 C195.37,620.26 192.15,631.88 189.45,639.39 C187.98,643.38 184.95,647.33 183.76,648.40" fill="none" stroke="rgb(255, 0, 255)" stroke-width="3.34" stroke-opacity="1.00" stroke-linejoin="round"/>
<path d="M221.06,554.75 C220.42,555.11 220.15,555.89 219.88,558.66 C219.07,566.94 216.86,576.11 215.89,579.07" fill="none" stroke="rgb(255, 0, 255)" stroke-width="3.34" stroke-opacity="1.00" stroke-linejoin="round"/>
<path d="M180.59,543.64 C180.59,543.64 181.38,543.24 181.38,543.24 C181.38,549.39 178.71,563.29 177.27,570.63 C176.95,572.14 175.98,576.64 175.59,578.28 C175.38,579.19 174.62,582.02 174.40,582.87" fill="none" stroke="rgb(255, 0, 255)" stroke-width="3.34" stroke-opacity="1.00" stroke-linejoin="round"/>
<path d="M189.32,466.66 C189.32,466.66 187.33,468.07 187.33,468.07 C187.01,471.32 187.73,477.31 188.15,480.87 C188.88,487.57 190.20,500.33 190.79,506.39" fill="none" stroke="rgb(255, 0, 255)" stroke-width="3.34" stroke-opacity="1.00" stroke-linejoin="round"/>
<path d="M202.81,471.42 C201.25,473.67 200.42,476.30 200.43,482.65 C200.45,489.37 200.38,503.70 200.13,512.53 C199.97,516.27 199.75,521.15 199.70,522.29" fill="none" stroke="rgb(255, 0, 255)" stroke-width="3.34" stroke-opacity="1.00" stroke-linejoin="round"/>
<path d="M206.78,503.16 C206.11,504.83 204.92,508.50 203.05,514.68 C200.79,521.88 198.28,529.48 197.53,531.76" fill="none" stroke="rgb(255, 0, 255)" stroke-width="3.34" stroke-opacity="1.00" stroke-linejoin="round"/>
<path d="M229.79,457.93 C229.79,457.93 229.79,457.53 229.79,457.53 C229.79,457.53 229.40,457.76 229.40,457.76 C229.00,460.63 228.98,476.78 228.99,485.69 C228.93,493.62 228.66,510.76 228.06,516.51 C227.65,520.12 226.99,524.59 226.62,526.97" fill="none" stroke="rgb(255, 0, 255)" stroke-width="3.34" stroke-opacity="1.00" stroke-linejoin="round"/>
<path d="M179.79,665.86 C177.24,667.83 174.34,672.13 173.49,675.12 C172.27,679.61 169.84,695.56 169.06,702.42 C168.37,709.29 168.45,716.50 168.46,717.49" fill="none" stroke="rgb(255, 0, 255)" stroke-width="3.34" stroke-opacity="1.00" stroke-linejoin="round"/>
<path d="M263.13,684.12 C260.54,690.83 259.68,700.50 258.41,710.28 C257.31,717.92 255.50,730.13 254.61,734.39" fill="none" stroke="rgb(255, 0, 255)" stroke-width="3.34" stroke-opacity="1.00" stroke-linejoin="round"/>
<path d="M274.24,636.50 C272.92,637.07 272.04,637.55 271.59,637.95 C269.86,639.53 267.31,647.36 266.65,650.08 C266.18,652.10 264.25,661.82 263.59,665.25" fill="none" stroke="rgb(255, 0, 255)" stroke-width="3.34" stroke-opacity="1.00" stroke-linejoin="round"/>
<path d="M355.19,528.56 C355.19,528.56 351.62,530.35 351.62,530.35 C351.63,532.25 352.41,535.32 354.02,539.36 C356.85,546.75 360.68,556.84 361.69,559.52" fill="none" stroke="rgb(255, 0, 255)" stroke-width="3.34" stroke-opacity="1.00" stroke-linejoin="round"/>
<path d="M392.49,485.70 C392.49,485.70 390.91,485.70 390.91,485.70 C390.96,486.75 391.26,489.56 391.62,492.42 C391.87,494.42 394.52,512.41 394.98,515.57" fill="none" stroke="rgb(255, 0, 255)" stroke-width="3.34" stroke-opacity="1.00" stroke-linejoin="round"/>
<path d="M411.54,525.39 C411.54,525.39 411.14,524.91 411.14,524.91 C410.41,527.74 409.60,542.39 409.19,550.30 C408.44,561.85 407.54,568.80 407.22,571.15" fill="none" stroke="rgb(255, 0, 255)" stroke-width="3.34" stroke-opacity="1.00" stroke-linejoin="round"/>
<path d="M429.79,542.05 C429.79,542.05 429.40,542.05 429.40,542.05 C428.94,544.67 429.21,551.14 429.36,554.95 C429.87,567.40 429.86,572.80 429.79,574.07" fill="none" stroke="rgb(255, 0, 255)" stroke-width="3.34" stroke-opacity="1.00" stroke-linejoin="round"/>
<path d="M423.44,463.48 C423.39,467.19 424.40,471.27 425.18,475.19 C425.78,478.40 427.32,486.96 427.72,489.74 C428.49,495.05 430.01,510.49 430.42,514.94" fill="none" stroke="rgb(255, 0, 255)" stroke-width="3.34" stroke-opacity="1.00" stroke-linejoin="round"/>
<path d="M473.44,480.15 C471.98,482.05 470.47,485.57 470.34,488.45 C470.25,491.00 470.21,512.10 470.13,520.23 C469.81,532.12 469.53,536.52 469.21,539.11" fill="none" stroke="rgb(255, 0, 255)" stroke-width="3.34" stroke-opacity="1.00" stroke-linejoin="round"/>
<path d="M501.22,496.02 C500.30,498.24 500.42,504.99 500.49,508.99 C501.23,533.34 501.62,540.47 501.83,542.56" fill="none" stroke="rgb(255, 0, 255)" stroke-width="3.34" stroke-opacity="1.00" stroke-linejoin="round"/>
<path d="M470.27,552.37 C469.62,554.72 469.20,556.60 468.96,559.86 C468.78,562.52 468.42,581.94 468.27,590.71 C467.76,606.12 467.21,622.53 467.18,623.54" fill="none" stroke="rgb(255, 0, 255)" stroke-width="3.34" stroke-opacity="1.00" stroke-linejoin="round"/>
<path d="M489.32,564.28 C487.86,565.65 487.12,568.27 487.05,572.82 C486.99,576.72 486.82,585.03 486.67,588.89 C486.43,593.82 485.46,598.79 483.86,602.89 C482.62,605.97 480.26,610.72 477.81,614.71 C476.59,616.66 474.58,619.89 473.79,621.17" fill="none" stroke="rgb(255, 0, 255)" stroke-width="3.34" stroke-opacity="1.00" stroke-linejoin="round"/>
<path d="M516.30,620.62 C515.34,622.20 514.75,623.88 514.71,625.54 C514.70,626.13 515.32,634.78 515.33,639.77 C515.22,647.89 514.97,660.72 514.81,663.15" fill="none" stroke="rgb(255, 0, 255)" stroke-width="3.34" stroke-opacity="1.00" stroke-linejoin="round"/>
<path d="M511.54,676.97 C511.58,678.98 511.29,681.11 511.20,681.88 C510.80,685.15 511.06,706.34 511.36,710.39 C511.89,717.53 515.29,735.34 515.51,736.50" fill="none" stroke="rgb(255, 0, 255)" stroke-width="3.34" stroke-opacity="1.00" stroke-linejoin="round"/>
<path d="M454.40,647.61 C454.40,647.61 452.41,648.40 452.41,648.40 C451.99,649.37 454.49,653.49 455.96,655.93 C459.78,662.29 465.45,674.53 467.85,681.34 C472.79,695.44 476.65,717.73 477.07,724.88 C477.20,727.10 477.38,733.75 477.41,734.91" fill="none" stroke="rgb(255, 0, 255)" stroke-width="3.34" stroke-opacity="1.00" stroke-linejoin="round"/>
<path d="M441.70,649.99 C441.68,652.09 441.68,658.38 441.70,662.55 C441.80,670.26 442.11,685.63 442.31,693.29 C442.39,694.95 443.10,704.71 443.15,705.59" fill="none" stroke="rgb(255, 0, 255)" stroke-width="3.34" stroke-opacity="1.00" stroke-linejoin="round"/>
<path d="M417.89,650.78 C416.41,653.57 415.40,658.93 415.41,661.88 C415.44,665.39 416.59,681.99 417.44,687.76 C417.91,690.94 418.75,694.57 419.08,695.82" fill="none" stroke="rgb(255, 0, 255)" stroke-width="3.34" stroke-opacity="1.00" stroke-linejoin="round"/>
<path d="M410.75,594.43 C410.68,596.41 410.82,601.40 411.08,605.00 C411.38,609.08 413.24,622.79 413.69,626.32" fill="none" stroke="rgb(255, 0, 255)" stroke-width="3.34" stroke-opacity="1.00" stroke-linejoin="round"/>
<path d="M389.32,586.50 C389.32,586.50 388.52,587.16 388.52,587.16 C389.19,591.69 389.91,595.72 390.33,599.60 C390.64,602.62 391.59,615.04 391.67,616.18" fill="none" stroke="rgb(255, 0, 255)" stroke-width="3.34" stroke-opacity="1.00" stroke-linejoin="round"/>
<path d="M355.19,583.32 C355.04,589.04 357.12,600.37 358.54,607.75 C360.12,615.33 362.38,625.01 362.93,627.26" fill="none" stroke="rgb(255, 0, 255)" stroke-width="3.34" stroke-opacity="1.00" stroke-linejoin="round"/>
<path d="M368.68,649.99 C366.76,650.89 365.69,652.51 365.51,655.11 C365.32,658.07 368.87,674.46 370.51,681.76 C372.25,688.89 374.32,695.87 374.57,696.71" fill="none" stroke="rgb(255, 0, 255)" stroke-width="3.34" stroke-opacity="1.00" stroke-linejoin="round"/>
<path d="M518.68,544.43 C516.66,546.01 515.08,549.67 514.52,554.75 C514.14,558.56 512.93,577.21 512.30,584.81 C511.94,588.89 511.34,595.65 511.10,598.33" fill="none" stroke="rgb(255, 0, 255)" stroke-width="3.34" stroke-opacity="1.00" stroke-linejoin="round"/>
<path d="M515.51,492.05 C515.51,492.05 515.51,490.07 515.51,490.07 C515.58,490.07 515.85,490.72 516.06,491.75 C516.65,494.67 518.51,510.81 519.04,515.55" fill="none" stroke="rgb(255, 0, 255)" stroke-width="3.34" stroke-opacity="1.00" stroke-linejoin="round"/>
<path d="M352.02,263.48 C351.22,263.48 348.66,263.49 348.30,263.48 C344.21,263.36 335.49,264.86 334.12,265.11 C330.07,265.83 321.19,265.31 320.04,265.30 C316.98,265.27 310.18,266.71 307.87,267.57 C302.81,269.47 291.21,277.33 285.25,283.16 C279.79,288.55 269.85,303.29 268.26,306.74 C267.63,308.12 264.42,315.79 263.56,319.33 C261.98,326.03 260.48,338.89 260.56,345.06 C260.63,348.63 261.78,354.18 262.69,356.79 C263.78,359.83 266.68,365.42 268.89,368.89 C270.53,371.42 273.67,374.72 277.17,377.92 C280.18,380.59 284.99,384.10 288.27,385.84 C291.26,387.40 296.90,389.23 299.58,389.72 C303.37,390.39 323.01,391.20 327.74,390.77 C332.93,390.27 349.10,386.07 355.27,383.42 C358.17,382.13 362.06,379.09 364.29,376.72 C367.41,373.38 376.02,360.74 379.05,355.15 C382.38,348.97 387.09,336.44 388.72,330.05 C390.07,324.66 391.77,310.28 391.18,304.18 C390.83,300.77 389.45,294.89 388.35,292.20 C387.49,290.13 384.34,284.41 382.35,282.17 C380.52,280.16 374.25,274.56 371.42,272.78 C368.34,270.88 363.97,269.14 358.41,267.57 C352.13,265.74 349.50,265.11 344.70,264.34 C343.14,264.09 340.45,263.66 339.32,263.48" fill="none" stroke="rgb(0, 0, 255)" stroke-width="3.34" stroke-opacity="1.00" stroke-linejoin="round"/>
<path d="M389.32,303.16 C388.96,303.19 374.62,308.92 369.11,311.61 C366.45,312.91 363.65,315.09 363.71,315.07 C364.61,314.20 364.68,312.81 363.85,309.97 C362.66,305.97 357.36,295.64 356.26,294.38 C355.06,295.07 350.92,298.59 348.79,300.04 C346.79,301.39 340.14,305.16 337.74,305.79 C336.91,305.00 334.43,299.34 332.18,296.29 C331.19,294.97 329.25,292.71 328.47,291.96 C327.77,291.31 326.38,290.75 323.61,289.84 C322.17,290.91 308.50,304.89 306.18,305.83 C305.91,305.93 305.55,305.94 305.08,305.86 C305.08,305.86 293.26,289.09 293.26,289.09 C292.05,288.96 284.29,291.78 281.96,292.83 C279.49,293.96 273.53,297.10 271.06,298.40" fill="none" stroke="rgb(0, 0, 255)" stroke-width="3.34" stroke-opacity="1.00" stroke-linejoin="round"/>
<path d="M306.78,317.45 C306.78,317.45 304.40,319.83 304.40,319.83 C304.55,318.89 302.08,313.82 299.80,312.09 C297.78,310.60 289.82,309.40 288.00,309.50 C285.85,309.65 282.68,311.19 281.38,311.89" fill="none" stroke="rgb(0, 0, 255)" stroke-width="3.34" stroke-opacity="1.00" stroke-linejoin="round"/>
<path d="M299.64,322.21 C298.70,322.22 298.04,322.22 297.65,322.21 C294.20,322.16 286.44,320.64 285.16,320.62 C284.13,320.64 282.64,321.56 282.09,322.54 C281.59,323.52 280.75,327.07 280.86,328.18 C281.05,329.72 282.81,331.87 284.52,332.94 C285.76,333.67 290.32,334.79 292.57,334.92 C295.15,335.04 301.22,334.26 302.98,332.82 C304.05,331.87 304.49,329.78 303.87,328.32 C302.94,326.25 298.00,321.80 295.67,321.15 C294.91,320.94 292.00,321.25 290.63,321.36" fill="none" stroke="rgb(0, 0, 255)" stroke-width="3.34" stroke-opacity="1.00" stroke-linejoin="round"/>
<path d="M294.87,323.01 C294.87,323.01 291.30,323.80 291.30,323.80 C291.30,323.80 290.11,324.91 290.11,324.91 C290.11,324.91 291.33,334.56 291.33,334.56 C292.34,334.64 293.16,334.31 294.03,333.29 C294.90,332.24 295.73,330.62 296.10,329.26 C296.44,327.92 296.13,326.63 295.22,324.79 C293.69,325.16 292.74,325.72 292.66,326.87 C292.52,328.83 293.02,330.70 293.69,331.23 C295.50,330.33 296.41,329.43 296.24,328.11 C296.03,326.42 295.39,324.72 295.01,324.50 C295.01,324.50 294.87,326.18 294.87,326.18" fill="none" stroke="rgb(0, 0, 255)" stroke-width="3.34" stroke-opacity="1.00" stroke-linejoin="round"/>
<path d="M356.78,332.53 C356.31,333.00 355.83,333.47 355.36,333.95 C355.04,334.27 354.72,334.59 354.40,334.91 C353.98,334.88 350.56,332.65 346.41,332.04 C344.32,331.76 342.09,331.81 340.62,332.17 C339.08,332.59 336.81,333.73 335.47,334.82 C334.48,335.65 332.95,338.09 332.71,339.03 C332.51,340.08 333.14,341.77 334.07,342.56 C336.08,344.17 340.99,344.99 346.50,345.26 C349.84,345.38 358.34,344.66 359.31,344.10 C360.50,343.30 360.35,338.22 359.12,335.24 C358.97,334.91 357.66,332.92 357.25,332.73 C356.81,332.53 353.53,332.02 352.34,331.83" fill="none" stroke="rgb(0, 0, 255)" stroke-width="3.34" stroke-opacity="1.00" stroke-linejoin="round"/>
<path d="M350.43,335.70 C349.37,335.66 348.63,335.66 348.22,335.70 C347.80,335.74 347.14,335.88 346.21,336.12 C346.21,336.12 345.10,342.35 345.10,342.35 C347.04,342.81 348.36,342.56 349.32,341.32 C351.22,338.76 351.42,336.71 351.07,334.62 C351.07,334.62 349.47,335.34 349.47,335.34 C349.47,335.34 349.21,339.54 349.21,339.54 C349.21,339.54 350.46,337.75 350.46,337.75 C350.46,337.75 350.43,338.88 350.43,338.88" fill="none" stroke="rgb(0, 0, 255)" stroke-width="3.34" stroke-opacity="1.00" stroke-linejoin="round"/>
<path d="M346.46,322.21 C346.46,322.21 344.19,324.59 344.19,324.59 C346.30,323.27 350.41,319.73 352.10,318.99 C353.25,318.51 354.88,318.35 356.73,318.48 C358.28,318.63 360.11,319.32 361.26,320.22 C361.91,320.75 364.31,323.74 364.75,324.55 C365.27,325.53 365.95,327.85 366.30,329.35" fill="none" stroke="rgb(0, 0, 255)" stroke-width="3.34" stroke-opacity="1.00" stroke-linejoin="round"/>
<path d="M325.83,319.83 C324.74,321.16 323.21,323.21 322.69,324.18 C322.59,324.37 316.55,344.71 314.49,349.47 C313.71,351.28 312.30,354.24 311.41,356.01 C311.41,356.01 310.10,356.43 310.10,356.43" fill="none" stroke="rgb(0, 0, 255)" stroke-width="3.34" stroke-opacity="1.00" stroke-linejoin="round"/>
<path d="M334.56,373.01 C334.41,372.40 333.61,372.14 330.17,371.64 C322.72,370.47 307.62,368.98 302.94,368.97 C300.24,368.92 288.66,365.36 287.46,364.46 C287.19,364.26 287.02,363.93 286.94,363.48" fill="none" stroke="rgb(0, 0, 255)" stroke-width="3.34" stroke-opacity="1.00" stroke-linejoin="round"/>
<path d="M304.40,394.43 C304.40,394.43 301.95,391.54 301.95,391.54 C301.80,392.57 301.39,395.52 301.22,397.02 C300.99,399.19 300.60,403.05 300.43,404.75" fill="none" stroke="rgb(0, 0, 255)" stroke-width="3.34" stroke-opacity="1.00" stroke-linejoin="round"/>
<path d="M343.29,388.88 C343.04,389.95 341.86,392.91 341.70,397.41 C341.67,398.11 341.65,400.67 341.49,401.58 C341.32,402.59 340.65,405.23 340.16,407.03" fill="none" stroke="rgb(0, 0, 255)" stroke-width="3.34" stroke-opacity="1.00" stroke-linejoin="round"/>
<path d="M304.40,402.37 C303.53,402.27 302.32,402.98 301.82,403.12 C301.13,403.31 298.80,403.50 295.92,404.50 C281.89,409.45 258.01,417.55 245.91,421.83 C241.47,423.47 223.54,431.06 216.06,434.29 C205.68,438.95 198.86,442.66 190.46,447.88 C184.02,452.02 176.57,457.50 174.69,459.64 C173.03,461.58 171.89,466.11 170.88,471.41 C170.57,473.09 169.95,476.61 169.83,477.50 C169.58,479.49 169.45,481.63 169.48,482.53" fill="none" stroke="rgb(0, 0, 255)" stroke-width="3.34" stroke-opacity="1.00" stroke-linejoin="round"/>
<path d="M169.48,465.07 C169.48,465.07 167.89,465.07 167.89,465.07 C167.84,464.67 167.41,464.21 165.77,462.94 C163.02,460.86 159.36,461.35 158.69,461.91 C158.55,463.96 159.59,465.47 162.13,466.77 C162.49,466.96 162.82,467.10 163.13,467.20 C157.87,467.77 156.51,468.68 155.73,469.74 C155.73,469.74 160.09,472.79 160.09,472.79 C160.09,472.79 152.15,473.08 152.15,473.08 C152.37,475.46 154.85,477.83 155.60,478.54 C155.60,478.54 151.10,482.97 151.10,482.97 C151.10,482.97 160.86,484.26 160.86,484.26 C160.86,484.26 157.86,492.06 157.86,492.06 C159.15,492.58 160.07,492.50 161.97,491.49 C162.63,491.13 163.68,490.59 165.13,489.85" fill="none" stroke="rgb(0, 0, 255)" stroke-width="3.34" stroke-opacity="1.00" stroke-linejoin="round"/>
<path d="M249.64,451.58 C248.90,452.12 247.78,453.15 247.75,453.16 C247.64,453.21 230.84,455.28 223.29,456.91 C215.67,458.62 205.18,461.90 196.55,465.83 C193.00,467.44 186.95,470.15 183.02,471.78 C179.60,473.26 174.63,476.49 171.84,479.06 C168.26,482.51 167.45,483.59 166.50,485.33 C166.31,485.69 165.98,486.34 165.51,487.29" fill="none" stroke="rgb(0, 0, 255)" stroke-width="3.34" stroke-opacity="1.00" stroke-linejoin="round"/>
<path d="M249.64,455.55 C249.64,455.55 249.64,453.16 249.64,453.16 C249.74,453.53 251.50,457.64 251.98,460.91 C252.52,464.88 251.69,471.68 250.56,474.77 C248.64,479.86 243.26,496.79 240.88,504.50 C238.72,511.81 234.26,527.29 233.84,532.03 C233.35,538.15 235.89,542.97 236.40,543.79 C237.50,544.47 254.89,543.62 262.89,543.24 C272.34,542.95 286.88,543.98 291.08,543.96 C294.69,543.93 334.13,542.52 335.89,542.98 C337.99,543.91 340.55,544.97 341.68,544.85 C342.13,542.00 342.49,523.41 343.27,515.77 C344.04,508.41 346.37,496.98 349.07,485.62 C351.41,475.44 353.46,464.92 353.07,461.54 C352.99,460.86 352.90,460.19 352.81,459.51" fill="none" stroke="rgb(0, 0, 255)" stroke-width="3.34" stroke-opacity="1.00" stroke-linejoin="round"/>
<path d="M345.67,403.16 C345.01,403.16 344.34,403.16 343.68,403.16 C343.55,403.16 343.42,403.16 343.29,403.16 C345.03,402.91 361.78,408.75 365.46,409.21 C367.07,409.40 372.94,409.49 376.08,409.92 C380.27,410.52 385.91,412.03 389.99,413.64 C400.62,417.99 407.66,420.51 414.19,421.58 C424.01,423.05 428.42,424.10 438.63,428.02 C445.59,430.68 457.14,433.62 462.94,434.20 C466.70,434.66 468.13,436.01 468.46,436.56 C460.43,442.33 444.54,452.33 444.14,452.64 C441.89,454.43 441.31,454.67 439.53,454.46 C437.70,454.23 406.52,455.30 398.77,454.74 C393.53,454.37 391.10,454.45 387.29,455.14 C377.76,457.00 368.57,459.51 360.03,459.99 C358.07,460.08 353.71,460.30 353.17,460.31 C352.63,460.32 351.45,460.32 349.64,460.31" fill="none" stroke="rgb(0, 0, 255)" stroke-width="3.34" stroke-opacity="1.00" stroke-linejoin="round"/>
<path d="M450.43,454.75 C450.28,453.27 449.48,451.65 448.35,451.18 C448.02,451.04 447.40,450.98 446.50,450.98 C445.60,451.79 445.00,453.37 444.87,455.69 C444.50,463.58 447.22,467.20 448.22,467.75 C449.98,467.29 452.16,464.06 453.57,460.85 C453.99,459.88 454.73,457.87 455.17,456.59 C455.43,458.10 456.12,460.27 456.87,461.69 C457.28,462.47 457.95,462.82 458.81,463.03 C458.81,463.03 462.13,458.28 462.13,458.28 C462.13,458.28 465.66,462.04 465.66,462.04 C465.66,462.04 467.81,461.12 467.81,461.12 C467.81,461.12 469.06,455.47 469.06,455.47 C469.69,455.97 471.85,458.21 472.21,458.43 C472.64,458.70 473.51,459.01 474.79,459.35 C475.68,457.54 475.81,456.08 475.07,453.90 C474.79,453.07 474.52,452.25 474.24,451.42 C474.24,451.42 477.24,452.52 477.24,452.52 C476.23,450.26 468.37,440.38 467.92,439.74 C467.61,439.32 467.08,438.50 466.30,437.29" fill="none" stroke="rgb(0, 0, 255)" stroke-width="3.34" stroke-opacity="1.00" stroke-linejoin="round"/>
<path d="M342.49,541.26 C341.75,543.75 339.97,548.79 340.01,552.85 C340.25,563.95 339.19,573.11 336.81,583.43 C334.81,592.88 331.91,629.39 331.59,637.22 C330.66,661.71 326.86,703.60 326.62,705.87 C323.51,704.56 312.05,704.62 300.71,705.53 C288.42,706.70 281.61,706.68 279.74,705.79 C278.40,703.61 278.83,690.33 279.62,679.70 C282.02,652.26 282.48,641.75 281.77,618.69 C281.59,611.13 282.23,600.04 281.37,591.27 C280.00,592.15 275.65,595.53 274.50,597.11 C272.98,599.29 265.51,620.62 264.80,622.51 C262.34,629.11 256.18,642.77 252.03,651.04 C246.11,662.31 225.54,697.96 223.41,700.64 C219.97,700.54 198.17,697.43 195.06,697.97 C193.75,698.20 190.79,698.77 189.94,699.01 C189.47,699.15 188.47,699.47 186.94,699.99" fill="none" stroke="rgb(0, 0, 255)" stroke-width="3.34" stroke-opacity="1.00" stroke-linejoin="round"/>
<path d="M236.94,546.81 C236.02,547.89 233.68,556.74 229.37,570.58 C228.32,573.81 220.58,589.04 219.05,594.53 C217.56,600.29 205.19,635.40 200.26,648.96 C197.06,658.49 194.66,668.26 192.58,679.24 C190.60,690.37 188.05,701.26 184.77,710.01 C182.85,715.19 180.57,721.77 180.24,721.86 C177.06,721.12 166.20,723.97 165.32,724.84 C164.93,725.28 164.66,726.74 164.78,727.48 C165.02,728.60 166.39,730.30 167.75,731.12 C170.73,732.81 189.39,733.94 197.70,734.37 C204.17,734.79 212.06,735.76 212.68,735.62 C214.70,735.12 216.36,733.70 216.63,732.10 C216.70,731.59 221.36,710.37 223.06,702.63 C223.50,700.44 224.48,695.55 225.03,692.85" fill="none" stroke="rgb(0, 0, 255)" stroke-width="3.34" stroke-opacity="1.00" stroke-linejoin="round"/>
<path d="M286.94,703.96 C286.52,705.03 286.26,705.69 286.14,705.94 C286.11,706.03 286.11,706.16 286.14,706.34 C286.62,709.38 290.80,726.68 290.74,731.12 C290.69,733.49 290.23,737.44 289.86,738.59 C289.77,738.88 289.58,739.24 289.32,739.67" fill="none" stroke="rgb(0, 0, 255)" stroke-width="3.34" stroke-opacity="1.00" stroke-linejoin="round"/>
<path d="M326.62,703.96 C326.62,703.96 325.83,704.06 325.83,704.06 C325.84,705.45 326.23,707.80 326.92,710.03 C327.72,712.52 329.35,714.99 330.73,715.68 C337.84,718.98 359.18,719.07 361.92,719.67 C362.56,720.66 362.78,721.82 362.31,723.21 C361.80,724.65 360.01,727.33 358.76,728.36 C356.49,730.19 351.91,731.55 346.50,732.77 C341.38,733.93 335.45,735.50 333.42,735.82 C325.92,737.00 295.96,737.29 293.84,737.74 C293.29,737.84 291.42,738.21 290.98,737.55 C290.74,737.18 290.19,736.04 289.32,734.12" fill="none" stroke="rgb(0, 0, 255)" stroke-width="3.34" stroke-opacity="1.00" stroke-linejoin="round"/>
</g>
</svg>
