<?xml version="1.0" encoding="UTF-8" standalone="no"?>
<!DOCTYPE svg PUBLIC "-//W3C//DTD SVG 1.1//EN" "http://www.w3.org/Graphics/SVG/1.1/DTD/svg11.dtd">
<svg width="64.20" height="90.84" viewBox="0.00 0.00 535.00 757.00" xmlns="http://www.w3.org/2000/svg" xmlns:xlink="http://www.w3.org/1999/xlink">
<g stroke-linecap="round" id="182">
<path d="M194.16,523.75 C193.83,523.72 193.45,523.49 193.29,523.47 C191.30,523.36 186.65,526.56 184.67,529.19 C183.20,531.22 181.37,534.66 180.60,536.62 C179.82,538.68 178.41,545.33 178.28,547.98 C178.16,551.25 179.34,557.30 180.56,560.47 C181.64,563.21 184.68,567.60 186.41,568.68 C188.21,569.76 193.47,570.62 196.11,570.26 C198.98,569.82 204.76,567.04 207.78,564.86 C210.59,562.80 213.95,558.57 214.98,555.87 C215.88,553.40 216.71,547.84 216.61,545.11 C216.47,542.08 215.14,536.93 213.93,534.34 C212.79,531.98 209.79,528.40 207.36,526.96 C204.70,525.43 197.85,523.86 193.55,524.27 C192.54,524.38 191.54,524.48 190.54,524.58" fill="none" stroke="rgb(33, 228, 63)" stroke-width="3.40" stroke-opacity="1.00" stroke-linejoin="round"/>
<path d="M181.90,544.37 C181.90,544.37 181.06,544.37 181.06,544.37 C181.06,544.37 185.20,541.89 185.20,541.89 C185.20,541.89 188.83,547.56 188.83,547.56 C188.83,547.56 193.67,544.60 193.67,544.60 C194.20,544.71 197.08,545.77 200.28,545.21 C202.85,544.79 210.49,546.90 211.12,546.86 C211.41,546.83 212.04,546.70 212.98,546.44" fill="none" stroke="rgb(33, 228, 63)" stroke-width="3.40" stroke-opacity="1.00" stroke-linejoin="round"/>
<path d="M190.54,526.53 C190.55,526.12 190.49,525.65 190.34,525.36 C189.93,524.65 187.67,523.62 186.47,523.60 C185.01,523.65 180.55,526.64 178.90,529.19 C177.08,532.10 175.31,537.98 174.87,540.67 C174.08,545.88 171.54,575.39 171.36,577.35 C175.28,567.79 177.39,563.42 177.90,562.57 C178.10,562.24 178.57,561.51 179.31,560.36" fill="none" stroke="rgb(33, 228, 63)" stroke-width="3.40" stroke-opacity="1.00" stroke-linejoin="round"/>
<path d="M181.90,531.27 C181.67,531.11 181.53,531.02 181.48,530.99 C181.42,530.97 181.38,530.97 181.34,530.99 C180.47,531.18 176.14,544.72 175.39,551.55 C174.95,555.73 174.94,560.46 175.22,563.81 C175.45,563.04 177.98,543.63 179.00,539.27 C179.78,535.95 182.33,528.99 183.01,527.44 C183.01,527.44 178.89,542.42 178.89,542.42 C179.57,542.57 181.85,538.24 184.48,533.02 C185.96,530.04 186.44,529.15 186.89,528.55 C186.89,528.55 184.66,543.84 184.66,543.84 C184.66,543.84 189.37,528.82 189.37,528.82 C189.37,528.82 188.61,545.48 188.61,545.48 C188.61,545.48 192.28,528.29 192.28,528.29 C192.48,528.73 192.31,532.79 192.19,535.68 C191.90,543.37 192.19,545.81 192.28,545.63 C192.28,545.63 195.17,532.48 195.17,532.48 C195.17,532.48 196.77,543.35 196.77,543.35 C196.77,543.35 199.26,530.48 199.26,530.48 C199.26,530.48 200.13,543.63 200.13,543.63 C200.13,543.63 201.63,530.78 201.63,530.78 C201.63,530.78 203.37,543.64 203.37,543.64 C204.30,542.95 204.65,538.26 204.88,535.05 C205.00,533.30 205.16,530.91 205.27,529.94 C205.43,530.13 206.28,539.92 206.48,541.01 C206.83,542.96 207.55,545.16 207.78,545.33 C207.78,545.33 209.25,531.60 209.25,531.60 C209.25,531.60 211.31,545.37 211.31,545.37 C211.31,545.37 213.04,536.03 213.04,536.03 C213.05,537.82 213.09,542.75 213.12,543.65 C213.15,544.82 213.33,547.48 213.39,548.27" fill="none" stroke="rgb(33, 228, 63)" stroke-width="3.40" stroke-opacity="1.00" stroke-linejoin="round"/>
<path d="M186.36,552.17 C186.36,552.17 186.03,552.27 186.03,552.27 C185.68,553.56 185.47,555.67 185.98,556.42 C186.53,557.15 188.33,557.01 188.90,555.86 C190.43,552.59 189.02,550.59 188.63,550.33 C187.84,550.47 186.70,552.45 186.64,553.75 C186.60,555.25 187.40,555.98 187.96,556.21 C189.24,555.90 189.89,554.15 189.79,553.35 C189.76,553.09 189.58,552.74 189.26,552.28" fill="none" stroke="rgb(33, 228, 63)" stroke-width="3.40" stroke-opacity="1.00" stroke-linejoin="round"/>
<path d="M205.31,551.34 C203.43,551.42 202.40,551.56 202.08,551.89 C201.46,552.55 201.39,555.62 202.10,556.28 C204.26,558.11 206.36,553.44 205.99,552.43 C204.18,551.06 201.71,554.16 201.96,555.08 C201.96,555.08 204.15,555.07 204.15,555.07 C204.15,555.07 200.74,554.15 200.74,554.15" fill="none" stroke="rgb(33, 228, 63)" stroke-width="3.40" stroke-opacity="1.00" stroke-linejoin="round"/>
<path d="M197.78,563.60 C197.21,563.30 193.83,561.10 192.77,561.83 C191.68,562.65 191.00,565.03 191.56,565.73 C192.20,566.48 194.55,566.35 195.08,565.41 C195.28,565.01 195.48,563.70 195.35,563.10 C195.27,562.80 195.05,562.04 194.67,560.81" fill="none" stroke="rgb(33, 228, 63)" stroke-width="3.40" stroke-opacity="1.00" stroke-linejoin="round"/>
<path d="M184.68,574.74 C184.68,574.74 184.27,574.74 184.27,574.74 C183.90,575.03 183.79,577.36 184.11,578.40 C184.48,579.53 186.03,581.01 187.27,581.11 C190.30,581.26 196.17,577.12 199.41,574.49 C199.41,574.49 199.29,574.63 199.29,574.63" fill="none" stroke="rgb(33, 228, 63)" stroke-width="3.40" stroke-opacity="1.00" stroke-linejoin="round"/>
<path d="M181.90,576.14 C181.90,576.14 181.76,575.72 181.76,575.72 C181.31,575.48 180.46,575.09 180.10,575.04 C179.30,574.94 177.31,576.66 176.81,578.02 C176.35,579.34 176.65,582.23 177.34,583.62 C177.93,584.77 179.89,586.54 182.29,587.30 C184.64,588.00 188.80,587.97 190.86,587.03 C191.39,586.78 198.12,582.67 198.38,582.51 C203.01,579.72 204.06,576.91 204.09,576.59 C204.09,576.59 196.72,577.52 196.72,577.52" fill="none" stroke="rgb(33, 228, 63)" stroke-width="3.40" stroke-opacity="1.00" stroke-linejoin="round"/>
<path d="M184.13,593.97 C184.13,593.97 184.04,589.10 184.04,589.10 C184.04,589.10 183.27,588.88 183.27,588.88 C182.32,589.31 180.38,591.54 179.55,593.29 C178.71,595.14 178.75,597.78 179.67,598.35 C180.54,598.82 183.06,597.87 184.01,596.89 C185.58,595.27 186.68,592.39 186.63,592.40 C186.67,594.94 188.01,598.95 188.99,600.14 C190.14,601.45 193.06,601.39 194.17,600.27 C195.12,599.24 195.96,596.18 195.68,594.65 C195.38,593.17 193.44,590.86 191.56,590.37 C190.73,590.16 189.27,590.36 188.67,590.68 C188.22,590.97 187.73,591.92 187.52,592.95 C187.10,595.41 186.14,600.64 185.60,602.36 C184.88,604.56 182.47,607.99 181.61,608.81 C181.61,608.81 182.45,607.63 182.45,607.63" fill="none" stroke="rgb(33, 228, 63)" stroke-width="3.40" stroke-opacity="1.00" stroke-linejoin="round"/>
<path d="M187.47,601.50 C187.39,603.16 187.17,607.74 187.27,608.54 C187.43,609.96 188.30,611.48 188.94,612.02 C188.94,612.02 189.42,611.25 189.42,611.25" fill="none" stroke="rgb(33, 228, 63)" stroke-width="3.40" stroke-opacity="1.00" stroke-linejoin="round"/>
<path d="M179.11,581.43 C178.85,581.38 178.67,581.33 178.55,581.29 C177.38,580.91 176.19,580.83 175.18,581.15 C174.16,581.50 171.43,584.68 170.61,586.79 C169.49,589.91 171.33,603.03 171.90,611.79 C171.96,612.88 172.06,614.46 172.17,615.80 C172.38,615.91 186.72,615.79 189.48,615.49 C195.69,614.78 201.73,612.80 201.85,612.70 C201.95,612.34 200.61,597.04 200.72,590.18 C200.75,588.71 200.81,585.59 200.74,585.05 C200.69,584.72 200.54,584.07 200.29,583.11" fill="none" stroke="rgb(33, 228, 63)" stroke-width="3.40" stroke-opacity="1.00" stroke-linejoin="round"/>
<path d="M172.70,612.64 C172.35,612.90 171.94,614.10 171.36,616.64 C170.68,619.59 169.44,622.60 167.70,624.83 C167.33,625.31 163.02,630.42 161.84,631.86 C161.65,632.86 198.40,630.08 203.68,630.42 C204.00,630.45 204.31,630.45 204.61,630.44 C204.68,629.01 200.01,618.66 199.42,617.82 C199.20,617.51 198.75,616.99 198.06,616.27" fill="none" stroke="rgb(33, 228, 63)" stroke-width="3.40" stroke-opacity="1.00" stroke-linejoin="round"/>
<path d="M182.73,623.51 C182.73,623.51 181.76,623.86 181.76,623.86 C181.53,624.65 181.37,625.65 181.34,626.89 C181.30,628.66 181.36,631.00 181.43,631.73 C181.43,631.73 181.72,631.97 181.72,631.97 C181.72,631.97 183.01,631.32 183.01,631.32" fill="none" stroke="rgb(33, 228, 63)" stroke-width="3.40" stroke-opacity="1.00" stroke-linejoin="round"/>
<path d="M192.21,622.96 C190.88,625.42 190.05,627.06 189.82,628.04 C189.48,629.46 189.14,631.85 189.14,632.38 C189.14,632.38 189.38,631.56 189.38,631.56" fill="none" stroke="rgb(33, 228, 63)" stroke-width="3.40" stroke-opacity="1.00" stroke-linejoin="round"/>
<path d="M174.37,580.04 C173.94,580.02 173.67,580.02 173.55,580.04 C172.94,580.16 170.12,584.21 169.50,585.11 C167.06,588.78 165.37,594.09 164.60,598.38 C163.47,605.02 164.57,621.18 164.62,621.48 C164.62,621.48 170.92,618.80 170.92,618.80 C170.96,618.81 169.40,618.50 168.89,618.49 C165.55,618.47 165.09,624.31 165.51,625.19 C165.51,625.19 168.69,624.56 168.69,624.56" fill="none" stroke="rgb(33, 228, 63)" stroke-width="3.40" stroke-opacity="1.00" stroke-linejoin="round"/>
<path d="M202.80,579.20 C202.57,579.20 202.33,579.20 202.10,579.20 C202.05,579.20 202.01,579.20 201.96,579.20 C202.84,579.71 204.08,581.90 204.64,586.20 C204.73,586.85 204.97,588.59 205.42,589.90 C205.42,589.90 210.44,577.98 210.44,577.98 C210.44,577.98 217.18,581.16 217.18,581.16 C217.37,581.44 214.56,592.40 211.92,599.74 C210.85,602.69 208.76,606.24 206.59,607.92 C205.50,608.73 203.89,609.58 202.06,610.37 C201.38,610.66 200.70,610.96 200.01,611.25" fill="none" stroke="rgb(33, 228, 63)" stroke-width="3.40" stroke-opacity="1.00" stroke-linejoin="round"/>
<path d="M172.70,634.66 C172.70,634.66 172.70,634.52 172.70,634.52 C172.70,634.52 172.56,634.38 172.56,634.38 C172.56,634.38 172.42,634.38 172.42,634.38 C172.42,640.21 172.43,653.00 172.43,659.97 C172.45,662.54 172.73,670.39 172.72,673.62 C172.72,675.51 173.59,678.34 173.92,678.97 C174.78,680.57 177.88,682.43 179.94,682.40 C180.83,682.37 182.64,681.21 183.10,680.34 C184.36,677.77 184.46,671.59 184.09,668.24 C181.71,646.54 181.34,637.18 181.34,635.01 C181.34,634.80 181.34,634.60 181.34,634.39" fill="none" stroke="rgb(33, 228, 63)" stroke-width="3.40" stroke-opacity="1.00" stroke-linejoin="round"/>
<path d="M194.44,633.82 C194.44,633.82 194.02,633.90 194.02,633.90 C193.86,634.63 193.75,648.32 193.60,654.66 C193.64,661.19 192.82,675.07 192.19,678.68 C191.84,680.61 190.74,682.33 189.64,682.62 C188.38,682.89 186.93,681.86 185.59,680.93" fill="none" stroke="rgb(33, 228, 63)" stroke-width="3.40" stroke-opacity="1.00" stroke-linejoin="round"/>
<path d="M174.09,667.82 C174.09,667.82 173.58,668.38 173.58,668.38 C173.58,668.38 184.95,668.66 184.95,668.66 C182.44,668.99 177.46,669.09 177.05,669.39 C176.03,670.23 175.37,673.12 175.75,676.84 C175.90,678.17 176.11,679.17 176.22,679.31 C176.22,679.31 177.79,671.98 177.79,671.98 C177.79,671.98 179.85,677.63 179.85,677.63 C179.85,677.63 181.02,672.34 181.02,672.34 C181.02,672.34 181.70,677.90 181.70,677.90 C181.70,677.90 183.29,673.12 183.29,673.12" fill="none" stroke="rgb(33, 228, 63)" stroke-width="3.40" stroke-opacity="1.00" stroke-linejoin="round"/>
<path d="M187.47,668.94 C187.47,668.94 186.77,669.49 186.77,669.49 C186.77,669.49 186.67,669.49 186.67,669.49 C186.67,669.49 194.53,668.12 194.53,668.12 C192.41,668.39 189.76,669.13 189.07,670.06 C188.44,671.04 187.59,676.87 187.48,680.30 C187.48,680.30 189.39,672.16 189.39,672.16 C189.39,672.16 189.77,678.69 189.77,678.69 C189.77,678.69 191.28,674.86 191.28,674.86 C191.28,674.86 191.61,676.57 191.61,676.57" fill="none" stroke="rgb(33, 228, 63)" stroke-width="3.40" stroke-opacity="1.00" stroke-linejoin="round"/>
<path d="M247.11,465.78 C247.11,465.78 247.14,462.21 247.14,462.21 C247.14,462.21 249.03,461.42 249.03,461.42 C249.03,461.42 249.21,466.28 249.21,466.28 C247.48,464.78 243.94,463.10 240.81,462.83 C234.80,462.37 227.74,463.34 221.07,464.92 C216.41,466.08 211.68,467.41 209.43,468.44 C205.56,470.25 190.92,482.31 190.34,482.93 C190.21,483.07 181.56,493.81 176.36,499.27 C175.43,500.22 174.60,500.96 173.27,502.07 C173.27,502.07 174.33,502.29 174.33,502.29" fill="none" stroke="rgb(255, 242, 0)" stroke-width="3.40" stroke-opacity="1.00" stroke-linejoin="round"/>
<path d="M249.34,467.45 C249.34,467.45 249.48,467.04 249.48,467.04 C250.89,466.39 255.77,466.22 257.39,466.85 C261.07,468.33 267.28,472.30 274.41,478.36 C278.27,481.70 283.20,488.70 285.69,493.32 C293.97,508.77 295.04,510.02 295.20,510.21 C295.20,510.21 295.04,508.98 295.04,508.98" fill="none" stroke="rgb(255, 242, 0)" stroke-width="3.40" stroke-opacity="1.00" stroke-linejoin="round"/>
<path d="M171.87,503.96 C171.79,504.11 174.41,502.34 178.72,501.26 C179.31,501.12 181.93,500.72 183.00,500.56 C186.13,500.16 187.80,500.30 189.05,501.29 C191.72,503.49 195.59,508.53 196.60,512.09 C196.77,512.71 198.16,517.92 198.36,518.09 C198.90,517.97 215.51,512.15 217.32,511.68 C222.20,510.46 233.52,509.86 238.55,510.65 C240.57,510.98 246.02,512.46 247.76,513.22 C250.25,514.34 253.44,516.59 255.02,518.55 C256.24,520.09 259.08,525.72 259.31,525.97 C261.26,521.55 262.73,518.50 263.91,517.21 C265.36,515.68 270.68,512.80 272.64,512.09 C276.14,510.89 284.37,511.10 286.93,511.74 C287.94,512.00 289.70,512.87 290.80,513.49 C291.08,513.45 291.26,513.41 291.35,513.38 C291.44,513.35 291.55,513.27 291.70,513.16" fill="none" stroke="rgb(255, 242, 0)" stroke-width="3.40" stroke-opacity="1.00" stroke-linejoin="round"/>
<path d="M247.11,466.90 C246.28,466.80 242.58,469.62 241.40,470.91 C240.75,471.63 235.66,478.08 231.70,482.04 C219.08,494.16 203.57,510.88 200.86,515.42 C200.86,515.42 202.52,515.39 202.52,515.39" fill="none" stroke="rgb(255, 242, 0)" stroke-width="3.40" stroke-opacity="1.00" stroke-linejoin="round"/>
<path d="M253.80,471.36 C253.80,471.36 253.80,471.08 253.80,471.08 C253.80,482.47 256.79,508.45 256.92,518.34 C256.96,519.61 257.03,521.78 257.07,522.66 C257.07,522.66 257.14,522.35 257.14,522.35" fill="none" stroke="rgb(255, 242, 0)" stroke-width="3.40" stroke-opacity="1.00" stroke-linejoin="round"/>
<path d="M242.65,479.44 C242.65,479.44 242.93,478.88 242.93,478.88" fill="none" stroke="rgb(255, 242, 0)" stroke-width="3.40" stroke-opacity="1.00" stroke-linejoin="round"/>
<path d="M249.34,479.16 C249.34,479.16 249.06,479.16 249.06,479.16 C249.06,479.16 249.28,478.69 249.28,478.69" fill="none" stroke="rgb(255, 242, 0)" stroke-width="3.40" stroke-opacity="1.00" stroke-linejoin="round"/>
<path d="M240.98,487.80 C240.98,487.80 240.42,487.80 240.42,487.80 C240.75,487.80 242.54,487.80 244.00,487.80 C244.91,487.79 245.15,487.89 245.49,488.20 C245.49,488.20 245.50,489.28 245.50,489.28" fill="none" stroke="rgb(255, 242, 0)" stroke-width="3.40" stroke-opacity="1.00" stroke-linejoin="round"/>
<path d="M225.65,514.55 C225.65,514.55 225.23,514.41 225.23,514.41 C225.11,514.27 225.08,514.05 225.09,513.48 C225.09,513.38 225.09,513.27 225.09,513.17 C225.09,513.16 225.09,513.17 225.09,513.17 C224.92,515.96 224.86,517.45 224.86,519.27 C224.85,525.70 225.50,537.65 225.84,543.22 C226.29,551.20 224.76,567.84 223.37,570.74 C222.92,571.61 221.69,572.82 220.99,573.04 C219.50,573.45 211.98,569.75 210.64,569.78 C209.49,570.79 209.31,574.97 210.38,577.09 C210.93,578.11 212.68,579.69 213.71,580.13 C215.64,580.89 220.76,579.80 223.27,578.63 C225.32,577.64 228.43,575.21 229.60,573.66 C230.73,572.11 232.00,568.92 232.29,566.58 C232.65,563.37 233.32,517.31 233.05,512.20 C232.94,510.13 232.53,509.36 232.44,509.30 C232.44,509.30 231.50,509.81 231.50,509.81" fill="none" stroke="rgb(255, 242, 0)" stroke-width="3.40" stroke-opacity="1.00" stroke-linejoin="round"/>
<path d="M229.83,513.44 C229.83,513.44 229.55,513.44 229.55,513.44 C229.56,513.37 229.27,562.42 229.12,565.12 C229.00,567.24 228.13,572.07 227.37,574.38 C226.61,576.62 224.84,578.98 223.02,579.59 C220.93,580.25 216.19,580.11 214.82,579.12 C211.49,576.53 213.69,574.94 214.71,573.56 C214.78,573.59 216.18,576.41 217.73,577.30 C219.21,578.08 224.43,573.47 225.09,572.82 C225.09,572.82 225.37,573.07 225.37,573.07" fill="none" stroke="rgb(255, 242, 0)" stroke-width="3.40" stroke-opacity="1.00" stroke-linejoin="round"/>
<path d="M41.82,40.87 C41.36,44.77 39.64,51.52 39.25,54.00 C38.87,56.68 39.29,58.75 39.80,59.90 C41.44,58.74 42.49,57.13 42.81,54.81 C43.30,51.18 43.10,46.62 42.80,44.41 C42.80,44.41 42.13,43.72 42.13,43.72" fill="none" stroke="rgb(0, 165, 255)" stroke-width="3.40" stroke-opacity="1.00" stroke-linejoin="round"/>
<path d="M70.81,108.52 C70.51,111.32 69.91,119.27 69.34,123.62 C68.84,127.41 68.81,130.53 68.83,131.88 C68.83,131.88 70.15,133.14 70.15,133.14 C70.78,133.29 72.21,131.70 73.04,129.59 C75.00,124.50 73.26,112.03 72.35,109.81 C72.24,109.53 72.03,109.20 71.73,108.82" fill="none" stroke="rgb(0, 165, 255)" stroke-width="3.40" stroke-opacity="1.00" stroke-linejoin="round"/>
<path d="M205.44,40.17 C205.13,44.43 202.45,52.41 202.23,53.64 C202.03,54.81 202.03,57.10 202.12,58.53 C204.20,58.35 205.27,57.90 205.85,56.72 C207.92,52.38 208.08,44.64 207.40,42.04 C207.30,41.69 207.15,41.20 206.93,40.57" fill="none" stroke="rgb(0, 165, 255)" stroke-width="3.40" stroke-opacity="1.00" stroke-linejoin="round"/>
<path d="M170.23,107.83 C170.22,107.89 170.25,109.30 170.28,110.42 C170.31,113.78 169.65,119.80 168.79,125.56 C168.21,129.48 168.22,134.50 168.92,135.49 C169.28,135.95 170.30,136.47 171.14,136.67 C171.87,136.80 173.36,135.51 174.32,133.95 C175.07,132.66 175.63,127.15 175.36,124.05 C175.09,121.26 174.09,117.11 173.00,113.47 C173.00,113.47 172.43,113.17 172.43,113.17" fill="none" stroke="rgb(0, 165, 255)" stroke-width="3.40" stroke-opacity="1.00" stroke-linejoin="round"/>
<path d="M159.18,216.91 C158.88,218.95 156.38,228.06 156.25,228.65 C155.77,230.78 155.71,233.01 155.96,235.56 C155.96,235.56 160.31,236.59 160.31,236.59 C162.11,234.22 162.99,232.66 163.30,231.01 C163.84,227.95 163.52,223.73 162.29,219.73 C162.00,218.83 161.70,217.93 161.41,217.03 C161.41,217.03 161.26,217.38 161.26,217.38" fill="none" stroke="rgb(0, 165, 255)" stroke-width="3.40" stroke-opacity="1.00" stroke-linejoin="round"/>
<path d="M86.00,415.05 C86.00,415.05 86.00,413.67 86.00,413.67 C84.87,413.73 83.71,414.08 82.85,414.84 C81.21,416.30 77.24,423.06 76.15,426.00 C74.83,429.70 75.19,432.80 75.82,433.49 C77.77,433.23 81.04,429.25 82.44,425.99 C83.58,423.20 85.08,413.93 85.18,413.50 C85.27,413.12 85.48,412.57 85.79,411.85" fill="none" stroke="rgb(0, 165, 255)" stroke-width="3.40" stroke-opacity="1.00" stroke-linejoin="round"/>
<path d="M210.27,301.14 C210.27,301.14 209.58,301.14 209.58,301.14 C209.60,301.14 209.60,301.19 209.58,301.29 C209.48,301.82 207.90,310.24 207.20,314.11 C205.16,325.84 205.57,328.07 206.16,330.43 C206.16,330.43 207.64,331.29 207.64,331.29 C208.82,330.17 209.42,329.42 209.59,328.52 C210.40,324.08 210.19,309.39 209.83,306.47 C209.83,306.47 209.06,306.55 209.06,306.55" fill="none" stroke="rgb(0, 165, 255)" stroke-width="3.40" stroke-opacity="1.00" stroke-linejoin="round"/>
<path d="M252.38,413.67 C252.90,413.94 253.30,418.11 252.97,421.84 C252.86,423.04 251.60,432.52 251.69,435.09 C251.79,437.68 252.35,439.27 253.35,440.20 C254.93,439.95 255.92,439.62 256.31,439.23 C257.55,437.98 257.67,428.77 257.49,427.22 C257.17,424.48 255.07,415.79 254.79,415.18 C254.59,414.74 254.08,413.82 253.27,412.43" fill="none" stroke="rgb(0, 165, 255)" stroke-width="3.40" stroke-opacity="1.00" stroke-linejoin="round"/>
<path d="M238.57,170.66 C237.84,170.92 237.87,181.79 237.88,182.23 C237.99,184.95 238.75,186.80 240.18,187.32 C240.52,187.44 241.22,187.57 242.27,187.71 C243.60,186.77 244.60,185.18 245.05,182.82 C245.43,180.68 245.20,177.23 244.53,175.32 C243.82,173.38 240.96,170.40 240.10,169.44 C239.79,169.09 239.51,168.63 239.29,168.05" fill="none" stroke="rgb(0, 165, 255)" stroke-width="3.40" stroke-opacity="1.00" stroke-linejoin="round"/>
<path d="M295.19,97.48 C295.32,100.70 294.53,112.55 294.50,113.49 C294.36,117.10 291.60,121.47 291.98,122.40 C292.97,123.32 294.64,123.99 295.82,123.56 C297.08,123.09 298.36,120.79 298.89,118.50 C299.24,116.76 298.07,109.94 297.07,107.67 C296.83,107.13 296.28,106.13 295.41,104.69" fill="none" stroke="rgb(0, 165, 255)" stroke-width="3.40" stroke-opacity="1.00" stroke-linejoin="round"/>
<path d="M478.83,49.84 C478.83,49.84 478.83,49.50 478.83,49.50 C478.83,49.50 478.48,49.15 478.48,49.15 C477.86,52.56 476.34,58.26 475.46,61.62 C474.66,64.91 474.87,67.76 475.14,68.53 C477.47,68.51 479.20,67.99 480.14,66.74 C481.47,64.91 481.51,60.18 481.16,54.91 C481.03,52.94 480.90,51.58 480.63,49.25 C480.63,49.25 479.17,49.42 479.17,49.42" fill="none" stroke="rgb(0, 165, 255)" stroke-width="3.40" stroke-opacity="1.00" stroke-linejoin="round"/>
<path d="M434.64,184.46 C434.64,184.46 434.64,183.77 434.64,183.77 C434.54,186.63 430.78,203.71 431.25,207.24 C431.57,209.48 432.28,210.71 433.24,211.00 C435.19,209.40 437.18,204.49 437.62,201.62 C438.22,196.96 434.63,187.10 434.02,186.38 C433.80,186.13 433.43,185.97 432.89,185.91" fill="none" stroke="rgb(0, 165, 255)" stroke-width="3.40" stroke-opacity="1.00" stroke-linejoin="round"/>
<path d="M319.35,276.97 C319.35,276.97 319.35,273.56 319.35,273.56 C319.38,273.48 319.29,273.72 319.26,273.80 C318.02,277.10 315.49,283.92 314.80,286.50 C314.18,289.09 315.80,291.96 317.24,292.98 C317.24,292.98 319.03,292.57 319.03,292.57 C320.47,289.31 320.88,285.01 320.71,282.91 C320.52,280.78 319.38,276.24 319.08,275.77 C318.91,275.50 318.51,275.12 317.87,274.60" fill="none" stroke="rgb(0, 165, 255)" stroke-width="3.40" stroke-opacity="1.00" stroke-linejoin="round"/>
<path d="M432.57,267.31 C432.55,267.43 432.64,269.00 432.62,269.62 C432.47,273.00 431.07,280.99 430.38,284.95 C429.71,289.03 429.97,293.42 430.26,294.66 C432.89,294.23 434.45,292.93 435.20,290.28 C435.74,288.34 435.80,283.69 435.30,281.17 C434.87,279.18 432.84,274.61 431.69,272.14 C431.56,271.84 431.41,271.42 431.22,270.87" fill="none" stroke="rgb(0, 165, 255)" stroke-width="3.40" stroke-opacity="1.00" stroke-linejoin="round"/>
<path d="M424.29,351.54 C424.35,353.11 422.55,359.33 422.27,360.63 C421.75,363.13 421.38,370.36 421.61,371.32 C421.97,372.77 422.85,373.80 423.91,374.22 C425.55,373.93 427.36,372.96 428.48,371.47 C429.43,370.16 430.28,366.88 430.20,364.94 C429.98,361.22 428.54,356.59 427.50,354.17 C427.50,354.17 426.15,353.69 426.15,353.69" fill="none" stroke="rgb(0, 165, 255)" stroke-width="3.40" stroke-opacity="1.00" stroke-linejoin="round"/>
<path d="M378.16,681.45 C378.16,681.45 378.07,680.74 378.07,680.74 C375.28,679.37 366.96,679.32 358.84,680.47 C354.71,681.06 345.24,682.44 343.82,682.78 C338.73,684.03 323.65,691.74 318.00,695.68 C314.26,698.31 309.69,702.48 308.28,704.74 C306.41,707.84 305.54,712.72 304.81,718.87 C304.39,722.75 303.85,729.66 304.73,731.06 C305.77,732.61 311.86,734.16 314.64,734.38 C321.14,734.85 329.64,734.42 338.05,733.33 C344.72,732.44 360.73,732.05 368.93,732.03 C379.10,731.97 387.97,730.80 394.65,729.89 C402.81,728.67 419.82,724.05 421.73,723.74 C424.05,723.38 428.94,723.23 431.71,723.47 C433.80,723.66 441.05,724.74 441.66,724.73 C444.73,724.62 447.53,722.90 447.84,721.56 C448.25,719.40 446.93,714.00 445.51,710.78 C442.87,704.94 436.38,695.77 432.58,692.52 C428.36,688.94 418.18,683.00 412.73,680.99 C406.79,678.82 396.81,677.14 395.66,677.24 C394.29,677.38 387.46,679.85 385.91,680.41" fill="none" stroke="rgb(76, 175, 229)" stroke-width="3.40" stroke-opacity="1.00" stroke-linejoin="round"/>
<path d="M364.21,709.35 C364.80,708.50 365.58,707.18 365.76,706.98 C366.85,705.82 369.27,704.03 370.11,704.18 C371.11,704.36 374.14,705.64 375.06,705.50 C375.53,705.44 379.74,703.87 381.11,703.68 C381.11,703.68 382.46,704.43 382.46,704.43" fill="none" stroke="rgb(76, 175, 229)" stroke-width="3.40" stroke-opacity="1.00" stroke-linejoin="round"/>
<path d="M319.26,723.81 C319.21,723.48 319.42,722.74 319.92,722.12 C322.22,719.33 324.41,718.40 326.52,718.13 C328.12,718.86 329.20,719.76 329.62,719.95 C331.93,721.00 335.53,719.76 336.14,719.51 C336.14,719.51 338.44,720.83 338.44,720.83" fill="none" stroke="rgb(76, 175, 229)" stroke-width="3.40" stroke-opacity="1.00" stroke-linejoin="round"/>
<path d="M408.64,722.78 C408.73,722.69 408.82,722.61 408.90,722.52 C408.99,722.44 409.08,722.35 409.16,722.26 C409.16,722.26 413.93,717.36 413.93,717.36 C415.04,717.74 416.45,718.98 417.06,719.31 C418.79,720.23 424.91,718.14 426.83,717.69 C427.50,717.53 428.17,717.37 428.84,717.21" fill="none" stroke="rgb(76, 175, 229)" stroke-width="3.40" stroke-opacity="1.00" stroke-linejoin="round"/>
<path d="M164.60,48.89 C164.19,48.91 163.91,48.89 163.77,48.83 C161.34,47.75 152.28,38.42 149.71,36.74 C146.38,34.59 138.10,32.40 133.30,32.27 C127.90,32.14 117.24,33.68 110.52,36.22 C103.56,38.90 89.72,45.48 87.19,46.99 C83.13,49.47 79.70,53.37 79.26,55.46 C79.17,55.90 79.01,57.03 78.79,58.84 C78.79,58.84 79.58,58.05 79.58,58.05" fill="none" stroke="rgb(0, 0, 255)" stroke-width="3.40" stroke-opacity="1.00" stroke-linejoin="round"/>
<path d="M71.02,61.02 C71.02,61.02 71.17,61.02 71.17,61.02 C70.91,61.05 70.71,61.12 70.57,61.22 C69.26,62.32 66.18,68.74 65.79,71.17 C65.43,73.68 66.00,77.66 67.01,78.92 C67.99,80.06 73.00,82.00 76.81,82.75 C78.14,83.01 81.36,82.61 83.77,80.93 C84.75,80.24 88.15,77.54 89.60,76.69 C91.12,75.82 94.23,74.73 95.69,74.54 C98.08,74.28 100.55,75.40 102.11,76.25" fill="none" stroke="rgb(0, 0, 255)" stroke-width="3.40" stroke-opacity="1.00" stroke-linejoin="round"/>
<path d="M114.55,69.10 C113.82,69.05 111.57,69.79 110.59,71.07 C109.62,72.41 108.60,76.24 108.88,77.68 C109.08,78.57 110.10,79.82 111.05,80.37 C111.85,80.81 121.23,82.76 121.64,82.82 C124.89,83.23 143.92,81.54 147.35,81.33 C156.80,80.83 169.22,81.47 169.21,81.26 C169.21,81.26 168.29,81.71 168.29,81.71" fill="none" stroke="rgb(0, 0, 255)" stroke-width="3.40" stroke-opacity="1.00" stroke-linejoin="round"/>
<path d="M184.82,66.92 C184.38,66.86 184.09,66.81 183.93,66.77 C183.60,66.68 183.28,66.52 182.94,66.46 C180.94,66.12 178.59,67.06 177.29,68.33 C175.91,69.74 174.87,73.15 175.18,75.12 C175.55,77.16 178.27,79.48 180.83,80.19 C182.97,80.75 188.49,81.55 191.02,81.53 C195.26,81.46 203.82,79.28 211.20,76.23 C220.79,72.11 228.44,69.76 235.10,69.27 C238.13,69.05 244.14,68.29 245.62,67.88 C245.62,67.88 246.62,66.06 246.62,66.06" fill="none" stroke="rgb(0, 0, 255)" stroke-width="3.40" stroke-opacity="1.00" stroke-linejoin="round"/>
<path d="M253.53,66.61 C253.53,66.61 253.53,66.77 253.53,66.77 C253.53,66.77 252.60,67.24 252.60,67.24 C253.95,67.04 259.72,63.18 261.17,61.56 C261.85,60.77 263.21,55.09 264.01,52.42 C264.77,49.85 264.93,47.42 264.31,46.09 C263.32,44.09 257.05,40.22 248.53,36.35 C244.33,34.51 231.13,29.79 224.67,28.50 C219.77,27.53 203.51,26.66 200.98,26.68 C197.32,26.71 184.64,28.57 180.37,30.91 C179.12,31.63 177.21,33.47 176.76,34.38 C176.12,35.78 176.65,39.17 176.66,39.91 C176.62,40.30 175.43,41.00 174.14,41.30 C173.39,41.47 166.10,42.18 163.29,43.01 C162.32,43.30 161.67,43.57 161.34,43.79 C161.01,44.02 160.38,44.62 159.46,45.57" fill="none" stroke="rgb(0, 0, 255)" stroke-width="3.40" stroke-opacity="1.00" stroke-linejoin="round"/>
<path d="M448.32,38.42 C448.09,38.40 446.26,35.08 442.66,31.96 C441.32,30.81 437.44,29.13 434.72,28.44 C429.01,27.02 418.77,26.32 412.21,25.97 C408.19,25.58 406.82,24.43 405.38,23.30" fill="none" stroke="rgb(0, 0, 255)" stroke-width="3.40" stroke-opacity="1.00" stroke-linejoin="round"/>
<path d="M421.40,34.49 C418.33,34.99 415.84,35.04 414.82,34.32 C414.52,34.10 406.06,27.32 405.10,26.59 C402.86,24.89 399.07,22.84 397.26,22.14 C393.30,20.65 382.46,19.45 378.59,19.57 C374.55,19.71 370.43,20.20 366.05,21.01 C365.56,21.08 363.62,20.96 362.44,20.88" fill="none" stroke="rgb(0, 0, 255)" stroke-width="3.40" stroke-opacity="1.00" stroke-linejoin="round"/>
<path d="M375.74,20.28 C374.82,20.29 372.57,20.23 371.53,20.13 C369.23,19.80 361.34,19.38 359.90,19.37 C356.64,19.36 341.07,22.16 339.15,22.67 C336.40,23.42 330.82,26.09 328.90,28.61 C327.24,30.85 326.21,33.91 325.99,34.89 C325.99,34.89 326.75,35.70 326.75,35.70" fill="none" stroke="rgb(0, 0, 255)" stroke-width="3.40" stroke-opacity="1.00" stroke-linejoin="round"/>
<path d="M328.26,32.07 C327.70,31.51 325.10,31.34 322.00,31.50 C319.71,31.65 316.11,33.24 315.17,34.59 C314.10,36.22 313.35,42.75 313.78,45.47 C314.23,48.09 316.88,51.89 319.02,53.47 C320.56,54.58 324.89,56.74 326.99,57.57 C329.57,58.53 335.50,58.71 339.81,57.77 C341.00,57.50 342.18,57.22 343.36,56.95" fill="none" stroke="rgb(0, 0, 255)" stroke-width="3.40" stroke-opacity="1.00" stroke-linejoin="round"/>
<path d="M348.52,46.89 C347.26,47.70 345.84,48.59 345.63,49.08 C344.59,51.54 344.63,57.86 344.84,59.05 C345.26,61.18 347.41,63.73 349.67,65.13 C353.91,67.64 369.55,70.75 372.24,70.81 C374.83,70.84 391.52,68.65 391.73,68.60 C392.14,68.52 393.05,68.24 394.49,67.76" fill="none" stroke="rgb(0, 0, 255)" stroke-width="3.40" stroke-opacity="1.00" stroke-linejoin="round"/>
<path d="M394.79,54.45 C392.66,56.57 391.33,58.35 391.07,59.91 C390.77,61.83 391.08,66.64 391.63,68.35 C392.18,70.00 394.35,73.04 395.96,74.41 C397.79,75.92 401.14,77.36 403.90,78.02 C405.56,78.41 420.27,79.00 427.63,77.95 C433.77,77.06 443.90,74.62 445.30,74.24 C445.41,74.21 445.72,74.12 445.61,74.11" fill="none" stroke="rgb(0, 0, 255)" stroke-width="3.40" stroke-opacity="1.00" stroke-linejoin="round"/>
<path d="M449.22,55.66 C448.51,55.91 446.93,56.55 444.73,59.33 C444.09,60.15 440.57,64.68 440.80,65.67 C440.96,66.29 441.59,67.52 441.97,68.06 C441.97,68.06 442.27,68.06 442.27,68.06" fill="none" stroke="rgb(0, 0, 255)" stroke-width="3.40" stroke-opacity="1.00" stroke-linejoin="round"/>
<path d="M441.36,63.83 C441.39,65.10 441.46,65.74 441.84,66.44 C443.75,69.83 448.02,74.66 450.57,76.61 C452.85,78.32 456.61,79.44 459.64,79.49 C462.90,79.52 470.57,78.80 472.26,78.75 C475.94,78.66 489.63,80.88 492.36,80.24 C495.20,79.50 499.23,75.87 501.31,72.89 C503.33,69.94 505.28,66.27 506.65,62.96 C508.09,59.43 508.79,55.49 508.63,52.97 C508.50,51.36 506.95,46.04 505.91,43.78 C504.51,40.85 501.11,37.41 498.29,36.40 C496.41,35.75 489.14,34.56 485.65,34.44 C481.60,34.29 476.32,32.68 474.11,32.00 C470.18,30.81 464.70,30.06 461.03,30.06 C455.01,30.09 447.84,31.66 446.26,32.03 C445.69,32.15 444.56,32.34 442.88,32.60" fill="none" stroke="rgb(0, 0, 255)" stroke-width="3.40" stroke-opacity="1.00" stroke-linejoin="round"/>
<path d="M8.68,265.53 C8.68,265.53 7.89,265.53 7.89,265.53 C6.72,274.54 6.69,287.22 6.69,291.25 C6.76,305.92 5.73,336.11 5.49,351.38 C5.44,356.38 6.89,386.71 7.33,409.07 C7.90,426.52 7.63,449.27 6.63,464.58 C6.44,469.31 5.99,512.95 5.85,529.66 C5.87,543.50 5.19,579.52 5.27,583.77 C6.04,604.03 6.35,636.18 6.03,642.71 C5.64,649.27 5.11,658.52 5.59,667.48 C7.53,698.48 7.88,737.25 7.89,737.47 C7.94,738.52 11.00,741.08 13.17,741.69 C15.37,742.26 21.49,740.81 23.76,739.64 C25.71,738.63 27.35,737.43 27.52,735.80 C28.30,727.26 26.92,693.20 26.27,678.27 C26.04,668.88 26.15,653.38 26.02,650.76 C25.33,637.22 25.59,630.80 26.64,621.20 C28.01,609.77 28.66,601.87 28.42,593.88 C28.19,587.16 26.70,573.28 26.03,565.99 C25.27,560.06 23.53,510.52 23.48,508.18 C23.41,493.61 23.31,463.71 24.01,454.46 C25.18,436.63 27.60,397.60 27.23,390.92 C26.70,383.81 22.89,356.38 21.74,339.96 C21.34,332.31 20.71,317.14 20.62,308.85 C20.71,301.56 21.04,284.88 21.30,283.03 C21.95,278.80 23.42,274.74 25.99,271.49 C28.36,268.57 31.35,266.36 33.25,266.32 C37.46,266.30 43.51,266.62 46.23,267.32 C48.90,268.04 61.98,276.06 67.25,277.85 C71.11,279.12 75.93,279.80 79.11,279.17 C82.11,278.52 87.74,276.06 89.52,274.54 C90.55,273.61 91.75,271.72 92.18,270.28 C92.60,268.74 92.85,265.20 92.63,263.39 C92.36,261.49 91.07,257.96 90.13,256.64 C89.18,255.36 86.78,253.74 85.15,253.20 C82.34,252.33 74.97,252.11 73.22,252.38 C70.76,252.79 54.19,256.85 51.58,256.99 C48.11,257.15 39.63,255.14 38.46,254.87 C34.42,253.94 29.14,253.99 26.34,254.60 C21.32,255.74 12.80,260.19 9.25,263.53 C8.20,264.52 7.46,265.32 7.01,265.92 C6.53,266.57 4.64,269.86 3.96,271.01" fill="none" stroke="rgb(70, 75, 85)" stroke-width="3.40" stroke-opacity="1.00" stroke-linejoin="round"/>
<path d="M57.80,282.17 C57.80,282.17 57.80,281.77 57.80,281.77 C58.27,284.14 53.03,295.26 53.05,295.23 C53.05,295.22 53.05,295.24 53.05,295.24" fill="none" stroke="rgb(70, 75, 85)" stroke-width="3.40" stroke-opacity="1.00" stroke-linejoin="round"/>
<path d="M68.10,284.94 C68.10,284.94 67.71,284.94 67.71,284.94 C67.60,285.89 66.92,293.05 66.92,295.30 C66.92,295.79 66.92,296.03 66.92,296.04 C66.90,296.10 66.80,296.31 66.63,296.66" fill="none" stroke="rgb(70, 75, 85)" stroke-width="3.40" stroke-opacity="1.00" stroke-linejoin="round"/>
<path d="M77.22,286.92 C77.24,288.59 77.52,290.81 78.06,292.70 C78.59,294.57 79.26,295.98 79.50,296.04 C79.50,296.04 79.99,295.24 79.99,295.24" fill="none" stroke="rgb(70, 75, 85)" stroke-width="3.40" stroke-opacity="1.00" stroke-linejoin="round"/>
<path d="M90.69,287.72 C90.69,287.72 93.46,294.85 93.46,294.85" fill="none" stroke="rgb(70, 75, 85)" stroke-width="3.40" stroke-opacity="1.00" stroke-linejoin="round"/>
<path d="M89.10,260.78 C89.10,260.78 88.90,260.78 88.90,260.78 C88.90,260.78 80.78,278.14 80.78,278.14 C80.78,278.14 82.29,262.02 82.29,262.02 C79.25,263.24 74.13,268.08 71.32,270.73 C68.16,273.82 67.95,273.98 67.52,274.20 C67.52,274.20 72.88,259.94 72.88,259.94 C72.88,259.94 53.76,271.18 53.76,271.18 C53.76,271.18 55.60,261.91 55.60,261.91 C55.60,261.91 40.14,266.01 40.14,266.01 C40.14,266.01 39.28,262.49 39.28,262.49 C37.65,262.40 34.27,263.56 28.57,265.75 C24.78,267.26 16.13,271.43 15.66,271.53 C15.66,271.53 24.25,260.60 24.25,260.60 C24.25,260.60 9.82,281.60 9.82,281.60 C9.82,281.60 19.61,273.86 19.61,273.86 C19.46,276.46 14.27,289.62 11.50,296.58 C9.45,301.81 9.14,302.78 8.85,304.05 C8.85,304.05 16.37,294.36 16.37,294.36 C17.02,295.01 16.10,299.64 14.79,305.52 C13.09,313.20 9.99,327.69 10.00,329.80 C10.00,329.80 14.76,318.88 14.76,318.88 C15.55,319.94 13.85,330.50 11.57,342.71 C10.22,350.45 8.01,363.55 7.89,365.09 C7.89,365.09 14.92,351.30 14.92,351.30 C15.57,352.14 13.27,366.98 12.18,374.98 C11.70,378.71 11.48,382.25 11.56,385.31 C11.56,385.31 17.21,368.24 17.21,368.24 C17.68,371.34 16.89,378.57 16.31,382.64 C12.19,409.00 11.67,414.62 11.51,417.99 C13.66,411.01 17.48,398.69 19.98,393.28 C20.84,391.42 21.63,390.10 22.91,388.31 C23.62,389.00 21.68,403.58 19.59,414.65 C17.77,424.99 15.42,452.77 15.41,453.14 C15.41,453.14 21.53,435.36 21.53,435.36 C21.64,439.12 20.34,445.72 19.59,449.63 C17.93,457.87 14.96,472.67 13.83,478.84 C11.43,494.03 11.10,508.26 11.08,509.47 C11.08,509.47 16.42,490.18 16.42,490.18 C17.05,493.22 8.80,539.14 9.63,540.57 C9.63,540.57 17.60,518.85 17.60,518.85 C18.28,519.41 7.49,565.87 6.37,571.37 C5.95,573.44 5.76,575.14 5.54,578.24 C7.36,575.78 8.48,572.45 9.76,568.14 C16.67,544.63 18.47,541.67 18.79,541.36 C19.38,541.83 18.52,558.15 17.34,564.64 C16.16,571.02 6.78,610.16 6.10,618.16 C6.08,618.47 6.05,618.89 6.04,619.42 C6.88,617.00 12.22,597.23 13.36,593.48 C15.88,585.44 19.59,576.94 21.32,574.55 C22.43,577.11 22.02,589.44 20.65,598.50 C19.69,604.78 10.49,641.61 9.87,644.58 C11.42,637.33 14.71,622.55 17.15,614.80 C19.68,606.96 22.74,603.32 23.17,603.14 C23.38,604.46 22.68,616.72 21.10,625.65 C16.40,652.01 13.26,673.83 11.60,679.45 C10.99,681.51 10.63,682.54 10.29,683.25 C10.67,681.35 11.52,677.60 12.11,675.01 C17.17,654.10 19.81,649.48 20.21,649.41 C20.18,654.19 17.89,670.64 16.66,677.32 C15.01,685.61 11.51,703.25 11.05,706.38 C11.80,705.01 12.79,701.04 13.88,695.82 C14.92,690.91 16.09,686.13 17.00,683.77 C18.47,680.09 20.53,676.04 21.77,675.09 C22.71,677.33 21.17,690.83 19.65,698.87 C15.42,719.20 14.41,727.17 14.22,728.67 C15.53,723.29 16.54,718.31 17.15,715.22 C17.92,711.66 19.63,707.02 20.89,705.82 C21.67,707.56 21.95,708.76 21.84,710.39 C21.34,717.50 19.40,729.33 18.09,736.39 C17.83,737.74 17.29,740.61 17.00,742.14" fill="none" stroke="rgb(70, 75, 85)" stroke-width="3.40" stroke-opacity="1.00" stroke-linejoin="round"/>
<path d="M322.52,457.34 C322.52,457.34 322.52,456.66 322.52,456.66 C322.47,459.80 321.76,472.75 322.42,482.02 C323.58,505.21 325.84,530.37 326.56,541.01 C327.02,550.38 326.95,585.77 326.95,600.54 C327.32,615.60 327.84,637.24 328.93,648.99 C328.93,648.99 328.99,648.06 328.99,648.06" fill="none" stroke="rgb(255, 0, 255)" stroke-width="3.40" stroke-opacity="1.00" stroke-linejoin="round"/>
<path d="M322.86,455.30 C322.86,455.30 322.86,454.96 322.86,454.96 C325.73,454.61 331.80,452.81 333.73,452.58 C335.75,452.35 349.73,451.73 359.12,450.40 C377.95,447.57 396.06,446.35 418.18,443.51 C430.68,442.11 456.09,442.92 474.16,442.16 C481.51,441.98 513.32,443.18 524.82,443.38 C524.97,445.13 525.50,460.17 525.75,465.68 C525.76,466.11 525.16,484.59 525.50,493.16 C526.08,503.39 528.75,539.08 529.73,554.22 C530.30,567.86 530.50,599.53 530.47,616.18 C530.44,617.33 528.61,649.50 528.31,654.71 C528.31,654.71 526.86,655.89 526.86,655.89" fill="none" stroke="rgb(255, 0, 255)" stroke-width="3.40" stroke-opacity="1.00" stroke-linejoin="round"/>
<path d="M512.90,446.44 C512.90,446.44 512.90,446.10 512.90,446.10 C512.89,455.17 512.90,473.32 512.08,496.47 C511.71,512.13 510.86,543.92 511.15,551.44 C511.97,574.00 511.53,630.45 511.52,648.90 C511.52,648.90 510.17,646.02 510.17,646.02" fill="none" stroke="rgb(255, 0, 255)" stroke-width="3.40" stroke-opacity="1.00" stroke-linejoin="round"/>
<path d="M338.53,457.34 C338.53,457.34 338.36,457.34 338.36,457.34 C338.36,457.34 337.84,456.43 337.84,456.43 C337.84,456.43 337.50,455.98 337.50,455.98" fill="none" stroke="rgb(255, 0, 255)" stroke-width="3.40" stroke-opacity="1.00" stroke-linejoin="round"/>
<path d="M337.16,454.62 C337.16,454.53 337.16,454.28 337.16,454.11 C337.16,454.05 337.16,453.99 337.16,453.94 C336.84,455.77 336.82,469.26 336.83,476.02 C336.90,480.30 341.44,572.04 341.99,591.48 C342.16,605.49 342.95,641.29 342.95,641.29 C342.95,641.29 341.93,638.86 341.93,638.86" fill="none" stroke="rgb(255, 0, 255)" stroke-width="3.40" stroke-opacity="1.00" stroke-linejoin="round"/>
<path d="M324.56,469.94 C324.56,469.94 324.56,469.60 324.56,469.60 C324.65,469.37 325.08,469.25 326.79,469.03 C334.00,468.07 348.85,466.19 356.09,465.96 C381.97,465.61 396.24,464.67 415.06,463.04 C429.62,462.18 469.25,460.46 472.81,460.18 C481.88,459.36 509.59,457.81 511.72,456.92 C512.00,456.79 512.85,456.37 514.26,455.64" fill="none" stroke="rgb(255, 0, 255)" stroke-width="3.40" stroke-opacity="1.00" stroke-linejoin="round"/>
<path d="M364.75,478.46 C364.75,478.46 364.41,478.80 364.41,478.80 C364.41,493.63 363.62,529.60 363.99,535.46 C364.18,538.38 364.56,541.18 364.71,542.08 C366.22,542.04 380.85,539.20 387.49,538.41 C401.29,536.89 431.69,536.15 445.55,535.38 C454.81,534.59 466.05,532.03 469.65,530.57 C470.27,530.31 471.58,529.28 473.73,527.50" fill="none" stroke="rgb(255, 0, 255)" stroke-width="3.40" stroke-opacity="1.00" stroke-linejoin="round"/>
<path d="M366.11,477.78 C366.02,477.95 369.87,475.69 372.91,475.30 C375.58,474.99 394.46,473.90 402.37,473.44 C408.44,473.02 421.90,471.18 427.61,470.63 C429.72,470.44 472.75,471.41 478.50,472.72 C479.20,472.89 480.63,473.23 481.36,473.40 C481.36,473.40 474.66,528.02 474.66,528.02 C474.66,528.02 473.05,529.54 473.05,529.54" fill="none" stroke="rgb(255, 0, 255)" stroke-width="3.40" stroke-opacity="1.00" stroke-linejoin="round"/>
<path d="M378.03,478.80 C378.03,480.31 378.03,483.07 378.03,484.32 C378.03,510.22 377.46,526.47 378.55,533.71 C378.59,533.99 378.64,534.25 378.69,534.50" fill="none" stroke="rgb(255, 0, 255)" stroke-width="3.40" stroke-opacity="1.00" stroke-linejoin="round"/>
<path d="M390.63,478.80 C390.63,478.80 389.95,479.23 389.95,479.23 C389.91,481.88 389.78,487.13 389.70,489.74 C389.07,503.41 388.26,525.61 388.25,536.82 C388.25,536.82 388.50,536.34 388.50,536.34" fill="none" stroke="rgb(255, 0, 255)" stroke-width="3.40" stroke-opacity="1.00" stroke-linejoin="round"/>
<path d="M402.21,479.48 C402.21,479.48 401.43,479.14 401.43,479.14 C401.23,479.76 400.98,485.06 400.84,488.28 C400.52,502.03 400.89,531.05 400.85,535.43 C400.85,535.43 401.53,532.61 401.53,532.61" fill="none" stroke="rgb(255, 0, 255)" stroke-width="3.40" stroke-opacity="1.00" stroke-linejoin="round"/>
<path d="M413.79,477.43 C413.79,477.43 413.79,477.09 413.79,477.09 C413.72,479.81 413.58,485.43 413.51,488.34 C413.46,495.75 413.48,511.78 413.55,520.40 C413.84,527.81 414.17,536.30 414.21,537.38 C414.21,537.38 414.81,532.95 414.81,532.95" fill="none" stroke="rgb(255, 0, 255)" stroke-width="3.40" stroke-opacity="1.00" stroke-linejoin="round"/>
<path d="M427.41,476.41 C426.84,477.92 427.54,490.34 429.02,502.67 C430.52,515.34 430.48,532.82 430.48,534.54 C430.48,534.54 430.48,534.27 430.48,534.27" fill="none" stroke="rgb(255, 0, 255)" stroke-width="3.40" stroke-opacity="1.00" stroke-linejoin="round"/>
<path d="M442.06,475.39 C442.06,478.03 442.04,483.29 442.03,485.91 C442.41,507.42 443.08,518.90 443.08,530.11 C443.37,529.07 443.66,528.04 443.95,527.00 C444.08,526.51 444.25,525.88 444.44,525.11" fill="none" stroke="rgb(255, 0, 255)" stroke-width="3.40" stroke-opacity="1.00" stroke-linejoin="round"/>
<path d="M455.00,475.05 C454.55,475.07 453.78,487.99 453.41,494.96 C453.03,505.46 452.96,529.44 452.98,534.14 C452.98,534.14 453.17,534.01 453.17,534.01 C453.17,534.01 453.98,531.58 453.98,531.58" fill="none" stroke="rgb(255, 0, 255)" stroke-width="3.40" stroke-opacity="1.00" stroke-linejoin="round"/>
<path d="M468.28,474.03 C468.14,482.17 467.87,497.38 467.73,504.44 C467.48,512.00 467.07,523.85 466.89,528.15 C466.89,528.15 466.67,527.25 466.67,527.25" fill="none" stroke="rgb(255, 0, 255)" stroke-width="3.40" stroke-opacity="1.00" stroke-linejoin="round"/>
<path d="M364.07,483.56 C366.51,483.53 380.03,481.50 386.87,480.52 C398.32,479.03 430.86,476.32 445.06,475.33 C447.77,475.08 471.32,472.23 472.20,472.58 C472.20,472.58 471.49,473.82 471.49,473.82" fill="none" stroke="rgb(255, 0, 255)" stroke-width="3.40" stroke-opacity="1.00" stroke-linejoin="round"/>
<path d="M370.88,489.01 C371.54,489.06 380.98,488.02 392.34,487.96 C403.68,487.92 447.48,484.94 451.78,484.90 C455.73,484.88 467.26,485.88 470.01,485.97 C470.01,485.97 469.81,486.19 469.81,486.19" fill="none" stroke="rgb(255, 0, 255)" stroke-width="3.40" stroke-opacity="1.00" stroke-linejoin="round"/>
<path d="M365.77,499.23 C365.77,499.23 364.75,499.23 364.75,499.23 C366.54,499.17 383.45,497.43 391.88,496.56 C431.25,492.95 460.66,491.56 465.53,491.40 C465.53,491.40 465.14,491.84 465.14,491.84" fill="none" stroke="rgb(255, 0, 255)" stroke-width="3.40" stroke-opacity="1.00" stroke-linejoin="round"/>
<path d="M358.96,508.77 C358.96,508.77 358.79,508.60 358.79,508.60 C358.79,508.60 358.96,508.34 358.96,508.34 C362.61,507.89 398.58,505.96 414.73,504.96 C429.89,504.06 468.35,501.82 473.11,501.96 C473.11,501.96 473.14,503.03 473.14,503.03 C473.14,503.03 471.15,504.82 471.15,504.82" fill="none" stroke="rgb(255, 0, 255)" stroke-width="3.40" stroke-opacity="1.00" stroke-linejoin="round"/>
<path d="M368.50,519.32 C371.20,519.32 377.89,519.28 381.87,519.26 C393.75,519.09 426.22,516.02 441.38,514.52 C452.06,513.78 475.47,513.12 475.95,513.56 C475.95,513.56 473.92,514.80 473.92,514.80" fill="none" stroke="rgb(255, 0, 255)" stroke-width="3.40" stroke-opacity="1.00" stroke-linejoin="round"/>
<path d="M374.29,531.24 C379.37,530.39 384.96,529.57 389.05,529.23 C392.95,528.93 428.19,527.49 441.01,526.58 C450.34,526.01 451.36,526.34 451.91,526.85 C451.91,526.85 451.00,527.84 451.00,527.84" fill="none" stroke="rgb(255, 0, 255)" stroke-width="3.40" stroke-opacity="1.00" stroke-linejoin="round"/>
<path d="M358.96,582.33 C358.96,582.33 358.62,582.33 358.62,582.33 C358.62,582.33 357.26,600.72 357.26,600.72 C357.26,600.72 357.26,600.38 357.26,600.38" fill="none" stroke="rgb(255, 0, 255)" stroke-width="3.40" stroke-opacity="1.00" stroke-linejoin="round"/>
<path d="M359.98,581.65 C363.21,581.65 371.56,581.64 373.35,581.59 C377.45,581.46 390.77,580.00 402.26,579.95 C416.43,579.77 440.71,579.53 461.72,581.04 C486.01,582.19 496.59,583.43 497.07,583.35 C497.07,583.35 496.69,594.18 496.69,594.18 C496.69,594.18 496.07,593.99 496.07,593.99" fill="none" stroke="rgb(255, 0, 255)" stroke-width="3.40" stroke-opacity="1.00" stroke-linejoin="round"/>
<path d="M362.02,592.55 C365.67,591.75 373.64,591.11 381.49,589.04 C385.11,588.11 401.96,588.54 403.76,588.56 C431.29,588.55 465.73,588.67 472.64,588.81 C476.91,588.82 486.79,588.07 487.49,588.05 C487.92,588.04 488.74,588.06 489.96,588.11" fill="none" stroke="rgb(255, 0, 255)" stroke-width="3.40" stroke-opacity="1.00" stroke-linejoin="round"/>
<path d="M359.64,600.04 C359.64,600.04 359.30,600.04 359.30,600.04 C359.26,600.13 363.53,599.12 366.88,598.71 C374.15,597.84 380.48,597.66 392.91,597.65 C420.25,597.66 434.37,596.70 445.86,595.83 C451.86,595.53 482.53,595.75 487.86,595.84 C488.83,595.88 489.79,595.91 490.76,595.95" fill="none" stroke="rgb(255, 0, 255)" stroke-width="3.40" stroke-opacity="1.00" stroke-linejoin="round"/>
<path d="M359.64,599.36 C359.64,599.36 358.53,599.61 358.53,599.61 C356.26,602.18 353.60,611.74 353.19,613.26 C354.02,613.38 386.67,611.42 398.40,610.59 C412.55,610.19 436.01,607.97 457.20,607.84 C478.12,607.54 493.28,607.89 493.38,607.87 C493.74,607.81 494.46,607.58 495.53,607.19" fill="none" stroke="rgb(255, 0, 255)" stroke-width="3.40" stroke-opacity="1.00" stroke-linejoin="round"/>
<path d="M496.21,597.66 C496.21,597.66 495.10,598.25 495.10,598.25 C494.42,600.74 493.54,603.23 491.91,607.25 C491.13,609.27 490.72,610.60 490.76,610.88 C490.76,610.88 491.29,609.87 491.29,609.87" fill="none" stroke="rgb(255, 0, 255)" stroke-width="3.40" stroke-opacity="1.00" stroke-linejoin="round"/>
<path d="M498.59,592.55 C498.60,592.43 498.59,594.36 498.59,595.83 C498.58,598.54 498.83,600.55 498.92,601.25 C499.00,602.06 498.48,603.00 497.29,604.38 C493.67,608.51 491.45,611.64 491.44,611.54 C491.44,611.54 490.02,611.17 490.02,611.17 C488.22,612.68 487.76,622.08 487.46,635.23 C487.40,638.49 487.33,642.55 487.32,643.37 C487.32,643.37 489.06,637.16 489.06,637.16" fill="none" stroke="rgb(255, 0, 255)" stroke-width="3.40" stroke-opacity="1.00" stroke-linejoin="round"/>
<path d="M494.85,612.98 C493.56,613.80 492.87,616.29 492.37,622.07 C491.71,629.82 490.83,640.16 490.19,643.08 C490.19,643.08 490.08,640.69 490.08,640.69" fill="none" stroke="rgb(255, 0, 255)" stroke-width="3.40" stroke-opacity="1.00" stroke-linejoin="round"/>
<path d="M356.58,617.07 C356.58,617.07 352.83,618.43 352.83,618.43" fill="none" stroke="rgb(255, 0, 255)" stroke-width="3.40" stroke-opacity="1.00" stroke-linejoin="round"/>
<path d="M351.81,617.07 C351.81,617.07 351.47,616.09 351.47,616.09 C351.87,619.37 353.28,636.60 353.83,644.10 C353.98,645.94 354.17,648.31 354.19,648.32 C354.19,648.32 354.87,639.89 354.87,639.89" fill="none" stroke="rgb(255, 0, 255)" stroke-width="3.40" stroke-opacity="1.00" stroke-linejoin="round"/>
<path d="M363.39,612.64 C362.71,612.94 362.18,615.20 362.09,618.36 C362.01,622.49 361.82,645.05 361.44,647.54 C361.44,647.54 361.90,647.20 361.90,647.20" fill="none" stroke="rgb(255, 0, 255)" stroke-width="3.40" stroke-opacity="1.00" stroke-linejoin="round"/>
<path d="M313.66,650.78 C313.76,650.55 315.03,649.26 315.53,648.74 C316.28,648.00 322.05,646.96 325.03,646.88 C326.94,646.85 344.38,647.66 346.07,647.64 C360.93,647.51 388.39,647.18 400.16,648.16 C411.54,649.12 446.55,650.72 453.23,651.94 C453.66,652.02 454.41,652.18 455.48,652.43" fill="none" stroke="rgb(255, 0, 255)" stroke-width="3.40" stroke-opacity="1.00" stroke-linejoin="round"/>
<path d="M327.63,654.53 C329.37,653.66 330.55,653.17 332.04,652.73 C333.63,652.28 337.64,652.09 343.87,652.16 C349.00,652.26 359.04,653.42 369.88,653.88 C388.41,654.55 407.97,654.62 424.17,655.48 C431.17,655.72 445.54,656.28 447.79,656.43 C448.50,656.47 449.21,656.51 449.92,656.55" fill="none" stroke="rgb(255, 0, 255)" stroke-width="3.40" stroke-opacity="1.00" stroke-linejoin="round"/>
<path d="M498.59,657.25 C498.59,657.25 498.59,656.57 498.59,656.57 C499.12,656.38 500.32,656.14 501.73,655.99 C507.64,655.34 517.99,655.18 527.32,655.55 C527.91,655.57 529.30,655.57 529.22,655.64 C529.22,655.64 527.88,656.91 527.88,656.91" fill="none" stroke="rgb(255, 0, 255)" stroke-width="3.40" stroke-opacity="1.00" stroke-linejoin="round"/>
<path d="M505.74,662.02 C505.74,662.02 505.74,661.85 505.74,661.85 C506.09,661.71 507.65,661.64 508.28,661.61 C511.80,661.40 516.02,661.31 522.55,661.33 C524.22,661.34 527.41,661.34 528.94,661.34 C528.94,661.34 529.01,661.56 529.01,661.56" fill="none" stroke="rgb(255, 0, 255)" stroke-width="3.40" stroke-opacity="1.00" stroke-linejoin="round"/>
<path d="M456.13,703.52 C455.96,703.64 455.63,703.83 455.45,703.86 C455.36,703.88 455.19,703.88 454.93,703.88 C454.63,703.49 449.17,686.73 448.22,681.84 C447.34,677.19 448.30,667.59 449.63,663.32 C451.03,658.89 454.59,651.31 457.54,647.26 C459.37,644.79 462.94,641.53 465.75,640.41 C468.44,639.38 477.57,639.98 481.63,641.52 C484.73,642.72 489.27,645.70 490.90,648.02 C491.56,648.98 496.53,661.08 496.42,660.99 C496.42,660.99 488.27,661.57 488.27,661.57 C488.27,661.57 492.08,667.37 492.08,667.37 C491.41,668.04 477.87,666.41 475.87,666.37 C472.96,666.34 468.43,667.45 465.99,668.88 C464.47,669.79 459.98,673.18 459.38,673.82 C457.62,675.71 455.73,679.21 455.11,681.00 C453.72,685.14 452.84,701.98 453.13,702.97 C453.19,703.16 453.42,703.76 453.83,704.76" fill="none" stroke="rgb(153, 255, 169)" stroke-width="3.40" stroke-opacity="1.00" stroke-linejoin="round"/>
<path d="M466.58,681.22 C466.58,681.22 466.40,681.22 466.40,681.22 C466.24,681.24 465.92,680.36 465.67,678.98 C465.44,677.71 465.33,676.42 465.40,676.25 C465.72,675.92 467.79,675.72 468.92,675.99 C471.15,676.56 472.25,678.87 472.29,678.98 C473.32,678.07 476.36,676.53 478.28,676.24 C481.49,675.78 487.11,677.17 487.37,677.20 C487.37,677.20 487.50,675.89 487.50,675.89 C488.09,675.45 489.56,675.79 490.41,676.65 C491.19,677.48 492.12,679.92 491.92,680.96 C491.73,681.83 490.52,682.72 489.96,682.85 C490.08,683.07 491.78,685.45 492.57,687.75 C492.89,688.71 492.94,690.57 492.70,691.52 C492.41,692.50 490.83,693.89 489.43,694.18 C489.18,694.23 488.52,694.33 487.47,694.49" fill="none" stroke="rgb(153, 255, 169)" stroke-width="3.40" stroke-opacity="1.00" stroke-linejoin="round"/>
<path d="M465.34,684.40 C465.35,684.47 464.88,685.96 464.72,686.57 C464.31,688.19 464.35,691.55 465.03,692.48 C465.66,693.28 466.85,693.77 467.92,694.13 C466.36,694.01 465.47,693.92 464.34,693.80 C463.50,693.74 462.66,693.99 462.17,694.55 C461.32,695.58 459.08,700.97 458.48,703.32 C457.34,707.93 458.48,713.72 459.61,714.94 C460.10,715.45 461.09,715.55 461.61,714.97 C462.22,714.20 462.84,711.73 463.40,708.95 C463.40,708.95 462.96,722.32 462.96,722.32 C462.78,722.40 460.56,722.18 459.61,722.67 C458.54,723.26 457.83,725.67 458.37,726.99 C458.87,728.11 461.04,729.15 462.45,729.21 C465.69,729.32 467.99,728.82 468.11,728.57 C468.14,728.48 467.22,716.45 467.64,713.89 C467.74,713.40 468.68,712.88 471.50,712.96 C474.40,713.06 479.97,713.73 480.61,713.96 C480.87,714.34 481.59,726.01 482.36,728.38 C482.88,729.95 484.36,730.66 485.14,730.61 C486.31,730.52 488.71,729.30 489.64,728.08 C490.60,726.76 490.55,724.41 489.87,723.73 C487.98,721.99 487.31,720.50 487.17,719.51 C486.80,716.89 486.81,712.98 487.27,712.33 C487.29,712.30 489.21,710.85 489.18,710.10 C489.15,709.45 489.00,706.44 489.08,706.32 C489.19,706.59 489.50,711.02 489.78,711.92 C490.01,712.61 490.34,713.01 490.81,713.26 C491.70,713.16 493.00,711.96 493.54,710.90 C494.18,709.55 494.53,706.24 494.28,704.10 C493.81,700.20 492.56,695.12 492.40,694.93 C492.29,694.79 491.86,694.32 491.11,693.52" fill="none" stroke="rgb(153, 255, 169)" stroke-width="3.40" stroke-opacity="1.00" stroke-linejoin="round"/>
<path d="M475.43,695.91 C474.76,695.90 473.25,696.49 472.43,697.98 C471.53,699.69 470.97,703.59 471.08,705.16 C471.23,706.74 472.46,709.13 473.82,709.47 C475.06,709.71 477.33,708.18 478.33,706.53 C480.31,703.16 479.78,699.48 478.90,698.39 C478.34,697.75 474.94,696.02 474.20,695.65" fill="none" stroke="rgb(153, 255, 169)" stroke-width="3.40" stroke-opacity="1.00" stroke-linejoin="round"/>
<path d="M474.54,684.05 C474.54,684.05 473.31,684.05 473.31,684.05 C473.31,684.05 474.90,683.69 474.90,683.69" fill="none" stroke="rgb(153, 255, 169)" stroke-width="3.40" stroke-opacity="1.00" stroke-linejoin="round"/>
<path d="M483.22,683.52 C482.97,683.52 482.72,683.52 482.47,683.52 C482.42,683.52 482.38,683.52 482.34,683.52 C482.34,683.52 482.34,683.66 482.34,683.66" fill="none" stroke="rgb(153, 255, 169)" stroke-width="3.40" stroke-opacity="1.00" stroke-linejoin="round"/>
<path d="M476.14,687.77 C476.14,687.77 475.25,688.12 475.25,688.12 C475.52,688.25 481.33,689.15 483.89,689.54 C484.37,689.61 484.64,689.66 484.69,689.68 C484.74,689.70 484.83,689.75 484.94,689.85" fill="none" stroke="rgb(153, 255, 169)" stroke-width="3.40" stroke-opacity="1.00" stroke-linejoin="round"/>
</g>
</svg>
