<?xml version="1.0" encoding="UTF-8" standalone="no"?>
<!DOCTYPE svg PUBLIC "-//W3C//DTD SVG 1.1//EN" "http://www.w3.org/Graphics/SVG/1.1/DTD/svg11.dtd">
<svg width="64.20" height="90.84" viewBox="0.00 0.00 535.00 757.00" xmlns="http://www.w3.org/2000/svg" xmlns:xlink="http://www.w3.org/1999/xlink">
<g stroke-linecap="round" transform="translate(44.00, 155.00)" id="187">
<path d="M143.96,210.51 C143.96,210.43 143.97,210.11 143.96,210.06 C143.96,210.02 143.94,209.97 143.92,209.92 C142.72,209.47 140.24,209.83 135.82,211.18 C132.99,212.03 127.07,213.82 125.98,214.22 C123.90,214.99 120.15,217.50 117.98,219.64 C115.98,221.64 112.21,226.20 110.05,229.10 C108.24,231.56 106.20,235.79 105.50,238.98 C104.80,242.40 104.87,248.11 105.76,251.06 C106.67,253.93 109.89,259.78 111.61,261.78 C113.22,263.61 116.63,265.59 119.30,266.33 C121.95,267.05 127.02,268.00 130.08,267.95 C130.94,267.93 133.41,267.22 134.78,266.81" fill="none" stroke="rgb(33, 228, 63)" stroke-width="3.13" stroke-opacity="1.00" stroke-linejoin="round"/>
<path d="M142.78,211.69 C142.81,211.75 142.86,211.75 142.93,211.69 C144.19,210.73 146.42,210.52 150.47,210.51 C152.36,210.56 160.15,212.18 161.22,212.57 C163.18,213.30 167.47,215.55 169.23,217.00 C171.02,218.50 173.64,221.77 174.73,224.06 C175.67,226.09 177.09,231.12 177.43,234.01 C177.76,236.99 177.58,241.85 176.86,244.88 C176.07,248.09 173.41,254.76 172.22,256.83 C170.71,259.39 166.66,263.13 164.32,264.33 C162.24,265.36 157.31,266.58 155.34,266.84 C154.95,266.90 154.12,266.99 152.85,267.11" fill="none" stroke="rgb(33, 228, 63)" stroke-width="3.13" stroke-opacity="1.00" stroke-linejoin="round"/>
<path d="M135.07,271.56 C132.63,271.56 128.98,272.67 126.76,273.75 C124.80,274.71 119.63,279.15 118.73,280.25 C117.01,282.42 115.04,288.03 114.25,292.06 C113.20,298.26 111.32,308.76 110.20,312.09 C110.24,312.14 114.15,311.41 116.58,311.42 C119.74,311.45 123.10,312.86 124.32,313.87 C124.41,313.63 128.38,296.65 128.77,295.73 C128.92,295.37 129.15,295.12 129.44,294.97" fill="none" stroke="rgb(33, 228, 63)" stroke-width="3.13" stroke-opacity="1.00" stroke-linejoin="round"/>
<path d="M109.59,313.34 C109.18,313.39 108.78,313.55 108.42,313.91 C107.44,314.95 106.52,318.41 106.67,320.14 C106.81,321.40 108.24,322.88 109.23,322.99 C110.06,323.06 112.33,321.03 112.54,320.95 C112.81,321.02 115.67,323.54 117.14,323.16 C118.49,322.78 120.23,321.84 120.66,321.20 C120.99,320.64 121.96,318.42 121.96,317.80 C121.97,317.43 121.83,316.68 121.57,315.54" fill="none" stroke="rgb(33, 228, 63)" stroke-width="3.13" stroke-opacity="1.00" stroke-linejoin="round"/>
<path d="M114.03,325.19 C114.03,325.25 114.03,325.65 113.97,326.14 C113.11,333.76 112.82,345.40 112.85,351.85 C114.52,352.63 123.63,353.56 135.19,354.09 C144.20,354.57 161.03,356.33 161.93,356.31 C161.93,356.31 157.89,289.34 157.89,289.34 C157.89,289.34 157.59,289.04 157.59,289.04" fill="none" stroke="rgb(33, 228, 63)" stroke-width="3.13" stroke-opacity="1.00" stroke-linejoin="round"/>
<path d="M159.37,270.07 C163.85,273.33 171.27,281.38 176.09,283.92 C178.56,285.19 184.03,286.13 186.04,286.08 C186.04,286.08 188.23,286.11 189.82,288.50 C190.79,290.00 190.41,292.31 189.60,292.87 C189.03,293.22 186.31,293.45 184.30,292.52 C182.70,291.77 181.79,290.03 181.66,289.60 C181.66,289.60 181.86,294.98 181.86,294.98 C181.11,295.26 178.13,295.03 175.33,294.17 C167.30,291.66 160.82,288.46 160.06,288.00 C159.83,287.86 159.60,287.71 159.37,287.56" fill="none" stroke="rgb(33, 228, 63)" stroke-width="3.13" stroke-opacity="1.00" stroke-linejoin="round"/>
<path d="M146.33,276.59 C146.33,276.59 145.74,276.59 145.74,276.59 C145.79,276.61 144.18,279.91 143.39,283.43 C143.09,284.82 138.65,303.16 137.96,307.01 C135.97,318.60 135.00,337.05 134.83,340.17 C134.83,340.17 135.07,340.01 135.07,340.01" fill="none" stroke="rgb(33, 228, 63)" stroke-width="3.13" stroke-opacity="1.00" stroke-linejoin="round"/>
<path d="M144.85,290.52 C144.67,290.55 144.54,290.55 144.46,290.52 C144.38,290.49 144.24,290.39 144.05,290.23 C144.05,290.23 143.41,292.56 143.41,292.56 C143.41,292.56 144.56,292.55 144.56,292.55 C144.56,292.55 143.37,291.25 143.37,291.25 C143.37,291.25 142.78,292.89 142.78,292.89" fill="none" stroke="rgb(33, 228, 63)" stroke-width="3.13" stroke-opacity="1.00" stroke-linejoin="round"/>
<path d="M140.11,318.67 C140.11,318.67 139.29,318.67 139.29,318.67 C139.29,318.67 138.60,321.37 138.60,321.37 C138.60,321.37 139.07,319.96 139.07,319.96 C139.07,319.96 138.33,321.64 138.33,321.64" fill="none" stroke="rgb(33, 228, 63)" stroke-width="3.13" stroke-opacity="1.00" stroke-linejoin="round"/>
<path d="M139.22,338.53 C139.22,338.53 138.48,338.97 138.48,338.97 C138.48,338.97 138.33,339.42 138.33,339.42 C138.62,339.02 138.79,338.40 138.28,338.07 C138.19,338.01 138.01,337.87 137.74,337.64" fill="none" stroke="rgb(33, 228, 63)" stroke-width="3.13" stroke-opacity="1.00" stroke-linejoin="round"/>
<path d="M119.07,355.42 C119.07,355.42 118.77,355.42 118.77,355.42 C118.56,356.81 113.56,374.23 113.45,377.01 C113.42,377.85 113.61,378.89 113.73,379.34 C113.72,379.47 117.47,379.97 122.24,380.47 C122.60,380.51 123.12,380.55 123.81,380.61" fill="none" stroke="rgb(33, 228, 63)" stroke-width="3.13" stroke-opacity="1.00" stroke-linejoin="round"/>
<path d="M130.33,356.90 C130.33,357.09 130.33,357.28 130.33,357.47 C130.33,363.52 129.44,379.64 130.12,382.50 C130.20,382.84 130.36,383.07 130.61,383.21 C130.61,383.21 142.75,381.91 142.75,381.91 C143.88,380.75 142.97,362.16 142.78,361.88 C142.68,361.72 142.28,361.25 141.59,360.46" fill="none" stroke="rgb(33, 228, 63)" stroke-width="3.13" stroke-opacity="1.00" stroke-linejoin="round"/>
<path d="M111.37,384.46 C111.37,384.46 111.27,383.28 111.27,383.28 C110.14,383.52 109.23,385.08 109.14,386.01 C109.09,386.91 110.37,389.01 112.91,389.69 C114.45,390.09 121.94,389.93 123.13,389.67 C124.09,389.44 125.39,388.64 125.75,388.04 C126.10,387.37 126.05,385.88 125.60,385.05 C125.15,384.25 124.20,383.21 123.46,382.73 C123.09,382.49 122.37,382.02 121.30,381.30" fill="none" stroke="rgb(33, 228, 63)" stroke-width="3.13" stroke-opacity="1.00" stroke-linejoin="round"/>
<path d="M133.29,385.35 C133.29,385.35 131.07,385.47 131.07,385.47 C129.85,386.46 129.26,389.64 129.78,390.47 C130.35,391.28 133.01,392.45 135.70,392.40 C138.24,392.33 142.87,390.03 143.47,388.53 C143.74,387.78 143.40,386.00 142.87,385.13 C142.38,384.36 141.02,383.04 139.41,381.63" fill="none" stroke="rgb(33, 228, 63)" stroke-width="3.13" stroke-opacity="1.00" stroke-linejoin="round"/>
<path d="M125.00,220.88 C124.80,221.12 124.50,221.47 124.36,222.09 C123.15,227.65 122.12,241.42 122.87,245.12 C123.07,246.12 123.91,247.66 124.52,248.55 C124.62,248.68 124.68,248.74 124.69,248.73" fill="none" stroke="rgb(33, 228, 63)" stroke-width="3.13" stroke-opacity="1.00" stroke-linejoin="round"/>
<path d="M118.77,244.89 C119.02,244.91 117.44,243.07 116.56,242.92 C115.43,242.78 113.60,245.11 113.21,247.01 C112.86,248.92 113.88,251.75 115.15,252.72 C116.43,253.63 118.97,253.72 120.36,253.51 C120.36,253.51 120.54,253.68 120.54,253.68" fill="none" stroke="rgb(33, 228, 63)" stroke-width="3.13" stroke-opacity="1.00" stroke-linejoin="round"/>
<path d="M134.48,221.77 C133.78,221.75 132.47,222.61 131.56,224.66 C130.43,227.31 129.37,233.12 129.48,235.88 C129.65,238.62 130.40,239.97 131.46,241.36 C131.46,241.36 133.59,241.33 133.59,241.33" fill="none" stroke="rgb(33, 228, 63)" stroke-width="3.13" stroke-opacity="1.00" stroke-linejoin="round"/>
<path d="M142.48,223.84 C142.40,223.82 142.30,223.82 142.19,223.84 C142.07,223.87 141.77,223.94 141.28,224.06 C140.00,225.84 138.12,231.39 137.80,235.02 C137.71,236.43 138.15,240.24 138.68,241.27 C138.94,241.75 139.55,242.34 140.52,243.03" fill="none" stroke="rgb(33, 228, 63)" stroke-width="3.13" stroke-opacity="1.00" stroke-linejoin="round"/>
<path d="M146.63,224.14 C146.34,224.80 146.32,227.27 146.67,232.66 C146.98,237.04 147.69,240.60 148.11,242.16 C148.11,242.16 148.86,241.79 148.86,241.79" fill="none" stroke="rgb(33, 228, 63)" stroke-width="3.13" stroke-opacity="1.00" stroke-linejoin="round"/>
<path d="M152.26,224.44 C152.32,224.88 152.40,225.34 152.51,225.82 C153.49,230.42 154.04,237.45 154.08,237.78 C154.20,238.95 154.32,240.12 154.45,241.29 C154.45,241.29 155.08,241.69 155.08,241.69" fill="none" stroke="rgb(33, 228, 63)" stroke-width="3.13" stroke-opacity="1.00" stroke-linejoin="round"/>
<path d="M156.41,221.77 C156.41,221.77 156.93,221.55 156.93,221.55 C157.36,221.88 159.14,224.10 160.08,225.64 C162.59,229.77 163.30,237.90 162.70,240.81 C162.70,240.81 162.04,239.25 162.04,239.25" fill="none" stroke="rgb(33, 228, 63)" stroke-width="3.13" stroke-opacity="1.00" stroke-linejoin="round"/>
<path d="M162.93,220.88 C163.04,220.90 164.30,220.45 165.96,221.49 C167.13,222.30 169.46,228.37 169.85,233.06 C170.05,235.85 170.00,240.45 169.77,241.43 C169.65,241.91 169.35,242.47 168.86,243.11" fill="none" stroke="rgb(33, 228, 63)" stroke-width="3.13" stroke-opacity="1.00" stroke-linejoin="round"/>
<path d="M138.04,250.81 C138.04,250.81 137.89,250.81 137.89,250.81 C137.89,250.81 137.74,250.59 137.74,250.59 C137.73,249.46 139.23,247.31 140.77,247.10 C144.34,246.72 147.71,250.77 147.80,251.06 C147.80,251.06 148.11,250.22 148.11,250.22" fill="none" stroke="rgb(33, 228, 63)" stroke-width="3.13" stroke-opacity="1.00" stroke-linejoin="round"/>
<path d="M153.15,247.55 C153.15,247.55 153.00,247.40 153.00,247.40 C152.89,246.85 153.10,245.84 153.65,245.23 C154.24,244.61 156.21,243.82 157.06,243.89 C160.10,244.25 161.68,250.18 161.72,250.69 C161.72,250.69 160.85,251.11 160.85,251.11" fill="none" stroke="rgb(33, 228, 63)" stroke-width="3.13" stroke-opacity="1.00" stroke-linejoin="round"/>
<path d="M139.22,257.63 C138.96,257.85 138.89,259.73 140.12,260.76 C143.01,263.07 149.94,261.05 150.38,260.78 C150.38,260.78 150.48,259.11 150.48,259.11" fill="none" stroke="rgb(33, 228, 63)" stroke-width="3.13" stroke-opacity="1.00" stroke-linejoin="round"/>
<path d="M135.96,246.07 C135.89,246.07 135.79,246.07 135.67,246.07 C135.29,246.08 135.03,246.09 134.90,246.12 C134.15,246.31 131.80,249.31 131.38,251.44 C131.16,252.68 131.36,255.44 131.77,256.46 C132.63,258.45 136.15,261.09 138.68,262.09 C140.97,262.96 145.13,263.87 148.67,263.80 C150.50,263.75 155.25,262.44 157.03,261.47 C159.18,260.26 161.59,258.26 162.65,256.66 C163.68,255.08 164.75,252.13 165.14,250.12 C165.26,249.39 164.98,246.76 164.73,246.17 C164.57,245.82 164.17,245.29 163.52,244.59" fill="none" stroke="rgb(33, 228, 63)" stroke-width="3.13" stroke-opacity="1.00" stroke-linejoin="round"/>
<path d="M227.83,219.99 C227.83,219.99 227.53,219.99 227.53,219.99 C227.50,220.60 226.33,227.46 226.30,231.75 C226.30,236.36 227.40,242.10 229.11,245.30 C231.63,249.90 236.15,254.92 237.02,255.85 C236.99,257.05 235.75,261.37 234.43,264.12 C233.11,266.81 228.60,273.00 226.97,274.49 C225.27,276.04 217.46,281.77 217.18,281.95 C214.70,283.48 208.44,286.11 205.66,287.30 C205.66,287.30 207.32,296.77 207.32,296.77 C209.36,297.07 219.68,293.03 225.02,289.90 C230.58,286.58 237.75,278.68 239.64,276.92 C239.64,276.92 239.09,277.19 239.09,277.19" fill="none" stroke="rgb(33, 228, 63)" stroke-width="3.13" stroke-opacity="1.00" stroke-linejoin="round"/>
<path d="M281.76,224.44 C282.77,225.68 284.21,229.28 284.48,231.62 C284.93,235.99 283.64,243.96 281.64,249.88 C280.30,253.78 277.86,258.41 274.75,261.66 C273.67,262.81 272.52,267.48 272.17,270.83 C271.60,276.79 272.27,291.12 272.57,293.77 C273.56,301.18 275.73,317.47 275.18,318.19 C273.66,318.90 265.72,319.90 264.89,319.98 C264.54,320.01 263.84,320.07 262.80,320.16" fill="none" stroke="rgb(33, 228, 63)" stroke-width="3.13" stroke-opacity="1.00" stroke-linejoin="round"/>
<path d="M230.50,286.67 C230.50,287.00 230.50,287.33 230.50,287.66 C230.50,294.00 229.17,304.03 227.22,308.98 C225.41,313.47 219.95,324.97 218.24,330.05 C212.97,346.03 211.89,357.23 211.83,359.70 C211.83,359.70 257.59,360.05 257.59,360.05 C258.01,359.30 258.28,358.77 258.42,358.46 C258.55,358.15 258.72,357.63 258.94,356.90" fill="none" stroke="rgb(33, 228, 63)" stroke-width="3.13" stroke-opacity="1.00" stroke-linejoin="round"/>
<path d="M263.39,297.04 C263.39,297.68 263.39,298.32 263.39,298.96 C263.38,305.80 264.39,347.65 264.05,351.87 C263.97,352.56 262.47,354.08 261.84,354.43 C261.32,354.70 258.70,355.44 257.76,355.72" fill="none" stroke="rgb(33, 228, 63)" stroke-width="3.13" stroke-opacity="1.00" stroke-linejoin="round"/>
<path d="M225.16,363.42 C225.10,363.38 224.97,363.66 224.34,365.38 C221.69,372.27 213.16,394.25 212.73,395.34 C212.73,395.34 228.59,396.38 228.59,396.38 C229.60,395.72 234.93,379.71 241.07,365.49 C241.22,365.14 241.40,364.69 241.61,364.14 C241.66,364.01 241.70,363.87 241.76,363.72" fill="none" stroke="rgb(33, 228, 63)" stroke-width="3.13" stroke-opacity="1.00" stroke-linejoin="round"/>
<path d="M256.57,361.64 C256.46,363.56 255.49,369.10 254.96,372.19 C254.09,377.37 251.72,389.46 251.54,395.06 C250.86,395.13 227.83,395.41 227.77,395.41 C227.47,395.39 226.80,395.30 225.75,395.13" fill="none" stroke="rgb(33, 228, 63)" stroke-width="3.13" stroke-opacity="1.00" stroke-linejoin="round"/>
<path d="M216.86,395.43 C215.33,395.39 213.87,395.69 213.22,396.46 C211.91,398.05 211.92,402.32 212.60,403.46 C213.18,404.34 215.88,406.23 218.49,406.55 C219.85,406.70 222.69,406.21 223.89,405.65 C227.72,403.75 229.19,398.12 229.14,397.84 C229.11,397.68 228.96,397.37 228.72,396.91" fill="none" stroke="rgb(33, 228, 63)" stroke-width="3.13" stroke-opacity="1.00" stroke-linejoin="round"/>
<path d="M231.68,397.80 C231.63,397.78 231.58,397.78 231.53,397.80 C231.49,397.82 231.39,397.88 231.24,397.98 C230.91,398.88 231.24,402.81 232.16,403.73 C233.16,404.64 234.79,405.64 235.90,405.88 C238.46,406.39 244.55,405.51 245.84,404.53 C247.05,403.54 248.36,401.19 248.67,399.69 C248.90,398.37 247.52,394.26 246.79,392.17" fill="none" stroke="rgb(33, 228, 63)" stroke-width="3.13" stroke-opacity="1.00" stroke-linejoin="round"/>
<path d="M256.87,260.00 C254.39,265.50 250.44,278.19 246.14,298.39 C244.78,305.18 243.40,315.94 243.18,323.25 C243.06,329.88 242.94,339.92 242.94,343.34 C242.94,343.34 242.94,341.49 242.94,341.49" fill="none" stroke="rgb(33, 228, 63)" stroke-width="3.13" stroke-opacity="1.00" stroke-linejoin="round"/>
<path d="M246.20,283.71 C246.10,283.69 244.79,281.50 243.79,281.84 C242.75,282.25 240.94,284.69 240.74,286.34 C240.56,288.19 242.00,290.50 243.48,290.80 C244.92,291.03 247.29,289.59 247.96,288.16 C248.59,286.72 248.37,285.29 248.11,284.55 C248.11,284.55 244.84,283.99 244.84,283.99" fill="none" stroke="rgb(33, 228, 63)" stroke-width="3.13" stroke-opacity="1.00" stroke-linejoin="round"/>
<path d="M241.76,309.19 C240.87,309.13 239.48,309.37 238.68,309.96 C237.01,311.21 235.06,314.98 234.93,316.41 C234.81,318.18 237.01,320.05 238.66,319.90 C240.15,319.72 242.05,317.54 242.15,316.06 C242.18,315.42 241.90,314.13 241.64,313.49 C241.12,312.39 239.91,312.01 238.28,311.57" fill="none" stroke="rgb(33, 228, 63)" stroke-width="3.13" stroke-opacity="1.00" stroke-linejoin="round"/>
<path d="M238.20,336.75 C238.20,336.75 235.17,335.86 235.17,335.86 C234.29,336.19 233.37,339.19 233.52,340.78 C233.69,342.27 235.85,343.38 237.12,342.59 C238.35,341.78 239.58,338.29 239.23,337.16 C239.12,336.83 238.77,335.98 238.17,334.62" fill="none" stroke="rgb(33, 228, 63)" stroke-width="3.13" stroke-opacity="1.00" stroke-linejoin="round"/>
<path d="M241.16,222.36 C241.16,222.36 241.16,222.07 241.16,222.07 C241.16,222.07 240.79,221.62 240.79,221.62 C239.49,221.33 237.11,222.78 235.44,225.58 C233.84,228.35 232.70,232.84 233.47,234.13 C234.30,235.39 236.01,235.20 237.65,234.93" fill="none" stroke="rgb(33, 228, 63)" stroke-width="3.13" stroke-opacity="1.00" stroke-linejoin="round"/>
<path d="M245.91,221.47 C245.68,221.47 245.03,221.56 244.70,221.79 C243.31,222.79 240.86,228.88 240.87,231.55 C240.89,232.78 241.21,233.87 241.69,234.82 C241.69,234.82 243.79,235.70 243.79,235.70" fill="none" stroke="rgb(33, 228, 63)" stroke-width="3.13" stroke-opacity="1.00" stroke-linejoin="round"/>
<path d="M249.17,225.92 C249.17,225.92 249.17,225.77 249.17,225.77 C249.17,225.77 248.94,225.70 248.94,225.70 C248.15,226.79 247.40,231.58 247.48,233.28 C247.68,236.47 248.90,237.55 249.61,237.81 C249.61,237.81 250.94,236.88 250.94,236.88" fill="none" stroke="rgb(33, 228, 63)" stroke-width="3.13" stroke-opacity="1.00" stroke-linejoin="round"/>
<path d="M253.91,227.10 C253.89,227.39 253.92,227.86 254.08,229.65 C254.38,232.69 255.15,236.01 255.60,236.53 C255.68,236.61 255.87,236.73 256.15,236.87" fill="none" stroke="rgb(33, 228, 63)" stroke-width="3.13" stroke-opacity="1.00" stroke-linejoin="round"/>
<path d="M260.13,227.40 C260.13,227.40 260.43,227.40 260.43,227.40 C261.02,227.81 261.73,228.71 262.19,229.81 C263.00,231.76 264.06,237.86 264.12,238.00 C264.12,238.00 264.49,237.86 264.49,237.86" fill="none" stroke="rgb(33, 228, 63)" stroke-width="3.13" stroke-opacity="1.00" stroke-linejoin="round"/>
<path d="M266.95,227.99 C266.95,227.99 267.24,227.85 267.24,227.85 C267.24,227.85 267.92,228.08 267.92,228.08 C268.55,229.03 269.10,230.05 269.38,231.05 C269.71,232.24 269.94,233.30 270.07,234.24 C270.14,234.76 270.18,235.60 270.21,236.77" fill="none" stroke="rgb(33, 228, 63)" stroke-width="3.13" stroke-opacity="1.00" stroke-linejoin="round"/>
<path d="M236.13,234.81 C236.13,234.81 235.68,234.81 235.68,234.81 C235.26,234.76 234.19,240.81 234.46,243.03 C234.72,244.88 236.33,249.08 238.13,250.96 C239.72,252.58 246.05,255.74 248.24,256.39 C250.20,256.96 254.64,257.70 256.68,257.81 C259.01,257.90 263.25,256.80 264.91,255.50 C266.73,254.00 269.19,249.38 269.92,246.20 C270.59,243.18 270.59,237.46 270.33,236.77 C270.21,236.46 269.60,235.76 268.43,234.51" fill="none" stroke="rgb(33, 228, 63)" stroke-width="3.13" stroke-opacity="1.00" stroke-linejoin="round"/>
<path d="M239.98,245.48 C239.97,245.46 240.04,244.61 240.14,244.34 C240.52,243.43 243.33,241.97 245.14,241.92 C246.91,241.91 249.53,242.79 250.86,244.12 C251.08,244.34 251.27,244.61 251.44,244.93 C251.47,244.99 251.50,245.08 251.54,245.18" fill="none" stroke="rgb(33, 228, 63)" stroke-width="3.13" stroke-opacity="1.00" stroke-linejoin="round"/>
<path d="M255.98,243.11 C256.01,242.38 256.18,241.65 256.52,241.08 C257.38,239.75 260.26,239.53 261.56,240.59 C262.75,241.57 263.75,243.04 264.20,244.26 C264.20,244.26 263.72,245.41 263.72,245.41" fill="none" stroke="rgb(33, 228, 63)" stroke-width="3.13" stroke-opacity="1.00" stroke-linejoin="round"/>
<path d="M247.39,248.14 C247.34,248.31 247.55,248.87 247.93,249.28 C249.04,250.45 252.86,251.59 254.49,251.24 C256.18,250.83 259.16,247.55 259.19,247.12 C259.19,247.04 259.21,246.89 259.24,246.67" fill="none" stroke="rgb(33, 228, 63)" stroke-width="3.13" stroke-opacity="1.00" stroke-linejoin="round"/>
<path d="M213.90,146.50 C213.90,146.50 213.31,146.50 213.31,146.50 C213.35,136.54 214.85,124.72 215.71,124.04 C217.01,124.07 222.55,124.84 223.96,125.18 C224.81,125.43 225.78,126.30 226.05,127.33 C226.80,130.40 226.13,146.32 225.66,151.13 C225.62,151.52 225.55,151.86 225.46,152.13" fill="none" stroke="rgb(228, 229, 76)" stroke-width="3.13" stroke-opacity="1.00" stroke-linejoin="round"/>
<path d="M225.46,152.13 C225.16,152.08 224.56,151.67 224.30,151.53 C221.52,150.03 206.63,149.80 201.11,150.49 C197.50,150.98 184.60,155.40 179.94,157.81 C177.41,159.13 162.61,167.92 157.89,170.88 C153.61,173.63 140.38,184.06 138.02,186.13 C126.62,196.13 122.09,202.74 122.17,202.80 C124.88,202.83 139.57,201.71 142.16,201.92 C145.30,202.19 151.35,204.08 153.71,205.46 C155.31,206.41 161.16,211.18 161.85,211.61 C163.06,212.32 177.33,212.16 184.27,212.07 C188.82,212.07 192.23,212.24 196.49,212.87 C203.86,214.00 210.13,217.59 213.93,220.17 C216.25,221.75 217.18,222.21 217.84,221.96 C218.89,221.50 225.69,219.06 228.75,218.66 C232.15,218.24 238.92,218.36 242.40,218.89 C253.75,220.67 265.15,227.26 265.65,227.08 C266.32,226.83 273.60,223.69 276.42,222.84 C280.03,221.77 284.97,221.27 287.88,221.43 C289.00,221.51 298.56,222.56 298.81,222.58 C298.81,222.58 299.54,222.07 299.54,222.07" fill="none" stroke="rgb(228, 229, 76)" stroke-width="3.13" stroke-opacity="1.00" stroke-linejoin="round"/>
<path d="M224.27,152.72 C224.27,152.72 224.57,152.43 224.57,152.43 C227.26,152.18 229.58,152.05 231.11,152.15 C235.32,152.42 245.25,155.32 248.50,157.07 C250.28,158.05 263.64,166.74 266.63,169.22 C270.96,172.84 279.12,182.07 282.13,186.83 C286.01,193.01 292.19,205.96 294.28,212.66 C294.93,214.82 294.88,215.76 294.47,216.92 C294.38,217.18 294.19,217.61 293.91,218.21" fill="none" stroke="rgb(228, 229, 76)" stroke-width="3.13" stroke-opacity="1.00" stroke-linejoin="round"/>
<path d="M199.68,155.69 C199.60,155.64 199.50,155.64 199.38,155.69 C197.19,156.59 178.36,188.79 175.02,197.13 C174.17,199.28 172.94,203.54 172.94,203.85 C172.94,203.85 175.08,203.10 175.08,203.10" fill="none" stroke="rgb(228, 229, 76)" stroke-width="3.13" stroke-opacity="1.00" stroke-linejoin="round"/>
<path d="M215.38,162.21 C215.38,162.21 215.38,161.91 215.38,161.91 C215.05,163.63 216.79,205.88 216.85,218.37 C216.79,225.09 211.92,264.81 210.19,272.56 C209.47,275.75 207.71,283.75 207.65,284.01 C206.67,288.01 205.36,290.22 205.38,290.18 C205.38,290.18 206.79,288.45 206.79,288.45" fill="none" stroke="rgb(228, 229, 76)" stroke-width="3.13" stroke-opacity="1.00" stroke-linejoin="round"/>
<path d="M203.53,290.23 C203.45,290.23 201.28,292.83 199.42,294.55 C197.11,296.69 194.51,297.95 193.45,298.34 C193.45,298.34 189.84,294.42 189.84,294.42 C187.18,294.98 186.10,295.39 185.74,296.15 C184.74,298.30 184.78,301.94 186.11,304.01 C187.40,305.90 192.19,308.11 194.86,308.33 C197.29,308.48 202.16,307.01 203.94,305.65 C205.76,304.19 207.70,300.11 208.28,297.45 C208.40,296.90 208.95,294.01 209.11,293.17" fill="none" stroke="rgb(228, 229, 76)" stroke-width="3.13" stroke-opacity="1.00" stroke-linejoin="round"/>
<path d="M233.16,160.13 C233.16,160.13 232.27,159.83 232.27,159.83 C232.78,159.35 240.72,168.49 246.88,177.47 C252.38,185.43 257.26,193.57 259.91,198.30 C261.07,200.46 264.53,208.04 265.37,210.81 C267.17,216.92 266.51,222.39 266.31,223.15 C266.24,223.41 266.06,224.04 265.76,225.03" fill="none" stroke="rgb(228, 229, 76)" stroke-width="3.13" stroke-opacity="1.00" stroke-linejoin="round"/>
<path d="M404.73,428.49 C404.73,428.49 405.28,427.37 405.28,427.37 C405.28,427.37 405.94,427.74 405.94,427.74 C405.94,427.74 407.89,439.94 407.89,439.94 C407.89,439.94 408.06,439.18 408.06,439.18" fill="none" stroke="rgb(0, 165, 255)" stroke-width="3.13" stroke-opacity="1.00" stroke-linejoin="round"/>
<path d="M444.32,412.87 C444.32,414.69 444.32,418.16 444.32,419.82 C444.32,421.91 444.32,425.39 444.32,426.77 C444.32,426.79 444.32,426.83 444.32,426.81" fill="none" stroke="rgb(0, 165, 255)" stroke-width="3.13" stroke-opacity="1.00" stroke-linejoin="round"/>
<path d="M404.17,-55.55 C404.10,-51.04 404.34,-46.25 404.88,-41.94 C405.23,-39.11 405.25,-29.94 405.28,-29.39 C405.32,-28.81 405.75,-28.32 405.84,-28.22" fill="none" stroke="rgb(0, 165, 255)" stroke-width="3.13" stroke-opacity="1.00" stroke-linejoin="round"/>
<path d="M332.79,-104.62 C332.76,-97.59 336.38,-83.57 336.59,-83.15 C336.61,-83.10 336.65,-82.99 336.69,-82.82" fill="none" stroke="rgb(0, 165, 255)" stroke-width="3.13" stroke-opacity="1.00" stroke-linejoin="round"/>
<path d="M251.93,-58.89 C251.93,-58.89 255.28,-41.05 255.28,-41.05 C255.28,-41.05 255.70,-41.05 255.70,-41.05" fill="none" stroke="rgb(0, 165, 255)" stroke-width="3.13" stroke-opacity="1.00" stroke-linejoin="round"/>
<path d="M123.67,-91.79 C123.79,-86.64 122.96,-71.72 123.12,-70.90 C123.16,-70.66 123.31,-70.24 123.57,-69.65" fill="none" stroke="rgb(0, 165, 255)" stroke-width="3.13" stroke-opacity="1.00" stroke-linejoin="round"/>
<path d="M50.62,15.27 C50.80,19.46 53.72,41.25 54.26,41.93 C54.43,42.14 54.95,42.65 55.83,43.47" fill="none" stroke="rgb(0, 165, 255)" stroke-width="3.13" stroke-opacity="1.00" stroke-linejoin="round"/>
<path d="M101.37,71.04 C101.37,73.29 101.36,78.77 101.36,81.99 C101.36,87.68 101.45,90.99 102.21,91.50 C102.21,91.50 103.67,90.42 103.67,90.42" fill="none" stroke="rgb(0, 165, 255)" stroke-width="3.13" stroke-opacity="1.00" stroke-linejoin="round"/>
<path d="M197.84,26.43 C197.84,26.43 197.28,26.43 197.28,26.43 C197.28,26.43 199.54,48.14 199.54,48.14 C199.54,48.14 200.63,47.06 200.63,47.06" fill="none" stroke="rgb(0, 165, 255)" stroke-width="3.13" stroke-opacity="1.00" stroke-linejoin="round"/>
<path d="M297.66,100.59 C297.46,101.11 297.15,103.46 297.10,105.33 C296.95,111.60 299.23,124.20 299.92,129.91 C299.92,129.91 300.68,128.58 300.68,128.58" fill="none" stroke="rgb(0, 165, 255)" stroke-width="3.13" stroke-opacity="1.00" stroke-linejoin="round"/>
<path d="M363.46,15.27 C363.46,18.34 363.45,24.78 363.45,28.16 C363.44,30.19 363.52,32.96 363.58,34.91 C363.58,34.91 365.20,34.48 365.20,34.48" fill="none" stroke="rgb(0, 165, 255)" stroke-width="3.13" stroke-opacity="1.00" stroke-linejoin="round"/>
<path d="M445.43,122.34 C445.43,129.67 445.43,139.94 445.43,142.90 C445.43,142.93 445.43,143.19 445.43,143.42" fill="none" stroke="rgb(0, 165, 255)" stroke-width="3.13" stroke-opacity="1.00" stroke-linejoin="round"/>
<path d="M366.81,211.56 C366.50,216.15 366.08,220.83 365.47,226.35 C364.55,235.19 364.52,241.05 364.53,242.17 C364.53,242.17 364.08,241.75 364.08,241.75" fill="none" stroke="rgb(0, 165, 255)" stroke-width="3.13" stroke-opacity="1.00" stroke-linejoin="round"/>
<path d="M452.21,491.61 C452.22,491.25 452.00,491.00 448.93,489.33 C448.07,488.89 428.25,482.94 427.56,482.81 C423.09,481.97 409.78,481.64 402.95,482.22 C397.68,482.71 394.22,483.16 391.93,484.29 C390.79,484.87 388.34,487.41 387.51,488.96 C386.79,490.37 386.34,495.61 386.23,496.03 C385.90,497.08 384.12,498.46 382.62,498.86 C379.86,499.57 370.51,500.99 367.40,501.87 C364.68,502.66 356.25,505.71 355.09,506.25 C352.13,507.66 348.79,510.47 347.75,512.39 C346.82,514.19 347.03,517.23 347.60,518.27 C348.14,519.20 349.93,520.83 351.37,521.56 C352.86,522.29 357.68,523.17 360.91,523.25 C362.05,523.27 369.76,523.12 372.41,523.63 C375.19,524.21 379.19,527.10 381.30,529.45 C381.98,530.22 387.22,536.09 389.54,537.15 C390.92,537.74 393.60,538.10 395.19,537.90 C395.39,537.87 429.63,525.90 432.14,525.35 C437.30,524.25 453.14,525.36 454.76,525.33 C457.34,525.26 461.77,524.50 464.56,523.51 C467.58,522.40 469.96,519.93 470.04,518.75 C470.04,517.56 468.87,514.29 467.16,512.28 C465.01,509.80 460.04,506.24 456.59,504.92 C453.83,503.98 449.12,502.28 448.56,501.69 C447.68,500.61 449.47,494.99 449.58,494.53 C449.62,494.32 449.73,493.76 449.91,492.84" fill="none" stroke="rgb(0, 0, 255)" stroke-width="3.13" stroke-opacity="1.00" stroke-linejoin="round"/>
<path d="M412.66,489.54 C412.32,489.29 407.35,487.52 406.12,486.85 C404.57,485.96 401.89,482.70 400.55,480.15 C399.50,478.08 399.36,473.43 400.31,471.48 C400.74,470.61 402.38,468.27 403.81,467.03 C405.19,465.85 409.76,463.24 412.07,462.58 C416.83,461.27 427.62,460.78 431.13,461.39 C435.65,462.20 440.10,462.80 442.66,463.62 C443.28,463.83 449.04,467.06 449.87,467.71 C451.18,468.75 452.88,470.94 453.50,472.41 C454.10,473.90 454.63,477.15 454.51,478.86 C454.36,480.53 453.51,483.16 452.81,484.23 C451.40,486.32 446.02,489.27 441.99,489.72 C438.49,490.06 428.03,487.41 423.51,487.63 C421.67,487.75 413.44,489.46 413.32,489.44 C413.13,489.41 412.55,489.28 411.56,489.04" fill="none" stroke="rgb(13, 89, 72)" stroke-width="3.13" stroke-opacity="1.00" stroke-linejoin="round"/>
<path d="M416.02,466.53 C416.02,466.53 416.02,466.44 416.02,466.44 C416.02,466.44 417.63,479.68 417.63,479.68" fill="none" stroke="rgb(13, 89, 72)" stroke-width="3.13" stroke-opacity="1.00" stroke-linejoin="round"/>
<path d="M416.64,473.62 C415.84,473.68 414.93,474.07 414.08,474.57 C412.36,475.60 410.87,476.84 409.66,478.39 C408.90,479.38 408.22,480.35 408.23,480.41 C408.23,480.41 409.06,480.71 409.06,480.71" fill="none" stroke="rgb(13, 89, 72)" stroke-width="3.13" stroke-opacity="1.00" stroke-linejoin="round"/>
<path d="M419.88,472.87 C420.13,472.78 420.58,472.66 421.15,472.56 C423.38,472.18 427.13,471.49 429.49,471.55 C432.02,471.64 435.81,472.79 438.02,474.51 C438.93,475.24 439.70,475.93 439.84,476.11 C439.84,476.11 439.66,476.50 439.66,476.50" fill="none" stroke="rgb(13, 89, 72)" stroke-width="3.13" stroke-opacity="1.00" stroke-linejoin="round"/>
<path d="M431.94,473.37 C431.94,473.37 432.00,473.43 432.00,473.43 C432.05,473.69 432.07,475.92 432.12,476.82 C432.17,477.91 432.51,480.92 432.51,481.10 C432.51,481.33 432.44,481.69 432.32,482.20" fill="none" stroke="rgb(13, 89, 72)" stroke-width="3.13" stroke-opacity="1.00" stroke-linejoin="round"/>
<path d="M413.16,491.15 C413.16,491.15 412.90,491.15 412.90,491.15 C412.64,491.54 411.81,495.10 411.82,496.02 C411.89,497.63 414.88,499.92 416.95,500.33 C418.02,500.53 422.47,500.51 424.51,500.21 C426.77,499.84 429.81,498.54 430.46,497.80 C431.64,496.36 430.96,492.23 430.14,491.39 C429.98,491.23 429.65,491.04 429.13,490.83" fill="none" stroke="rgb(13, 89, 72)" stroke-width="3.13" stroke-opacity="1.00" stroke-linejoin="round"/>
<path d="M431.25,498.99 C431.31,499.03 433.84,503.00 434.68,505.29 C435.91,508.68 435.79,511.85 435.78,511.85 C435.48,511.04 434.67,509.49 433.41,508.74 C432.00,507.93 424.97,507.51 423.16,508.63 C422.22,509.30 419.20,514.01 418.85,514.59 C418.41,515.29 416.48,516.09 414.97,515.95 C414.17,515.85 412.73,514.92 412.29,514.04 C411.41,512.15 412.31,506.44 412.90,504.41 C412.98,504.14 412.92,503.73 412.79,502.72" fill="none" stroke="rgb(13, 89, 72)" stroke-width="3.13" stroke-opacity="1.00" stroke-linejoin="round"/>
<path d="M408.31,488.66 C408.31,488.66 407.97,488.70 407.97,488.70 C407.70,489.07 407.30,491.21 407.16,494.59 C406.97,499.55 407.13,501.89 407.99,503.44 C408.86,504.90 411.57,506.01 412.15,506.25 C412.35,506.33 412.54,506.45 412.70,506.60" fill="none" stroke="rgb(13, 89, 72)" stroke-width="3.13" stroke-opacity="1.00" stroke-linejoin="round"/>
<path d="M413.16,517.27 C412.90,517.26 412.72,517.26 412.64,517.27 C412.31,517.28 411.79,517.39 411.53,517.52 C410.99,517.80 410.56,518.65 410.56,519.30 C410.59,520.09 411.41,521.16 412.37,521.50 C413.29,521.80 415.12,521.61 416.19,521.17 C418.94,519.96 421.49,514.73 422.78,514.23 C423.81,513.85 425.46,514.38 425.94,514.87 C426.30,515.27 427.31,517.80 427.31,517.81 C427.83,518.60 430.94,518.52 432.59,517.72 C433.52,517.26 434.71,516.07 434.89,515.42 C435.08,514.69 435.01,513.10 434.73,512.14 C434.65,511.89 434.50,511.55 434.28,511.13" fill="none" stroke="rgb(13, 89, 72)" stroke-width="3.13" stroke-opacity="1.00" stroke-linejoin="round"/>
<path d="M419.25,495.01 C419.14,494.99 418.55,495.09 418.32,495.13 C418.30,495.13 418.24,495.14 418.26,495.13 C419.73,493.56 424.26,494.68 425.59,495.49 C425.59,495.49 425.20,495.21 425.20,495.21" fill="none" stroke="rgb(13, 89, 72)" stroke-width="3.13" stroke-opacity="1.00" stroke-linejoin="round"/>
<path d="M423.23,491.65 C422.96,491.55 422.78,491.49 422.70,491.46 C422.62,491.44 422.51,491.42 422.38,491.40 C422.38,491.40 422.61,491.52 422.61,491.52" fill="none" stroke="rgb(13, 89, 72)" stroke-width="3.13" stroke-opacity="1.00" stroke-linejoin="round"/>
<path d="M395.38,567.26 C395.38,567.26 394.01,568.50 394.01,568.50" fill="none" stroke="rgb(13, 89, 72)" stroke-width="3.13" stroke-opacity="1.00" stroke-linejoin="round"/>
<path d="M391.27,571.36 C391.27,571.36 387.67,576.21 387.67,576.21" fill="none" stroke="rgb(13, 89, 72)" stroke-width="3.13" stroke-opacity="1.00" stroke-linejoin="round"/>
<path d="M84.97,396.49 C85.02,396.35 85.33,395.95 85.60,395.75 C85.72,395.66 86.02,395.52 86.48,395.33 C88.98,394.33 93.94,394.13 95.92,393.97 C103.18,393.37 118.25,392.13 119.95,391.62 C119.95,391.62 119.05,391.81 119.05,391.81" fill="none" stroke="rgb(45, 6, 20)" stroke-width="3.13" stroke-opacity="1.00" stroke-linejoin="round"/>
<path d="M81.77,402.67 C82.17,402.67 82.57,402.67 82.98,402.67 C83.67,402.67 84.10,402.67 84.25,402.67 C85.22,402.64 93.01,402.18 97.09,401.76 C146.81,396.10 153.68,396.29 153.98,396.37 C153.98,396.37 151.09,397.86 151.09,397.86" fill="none" stroke="rgb(45, 6, 20)" stroke-width="3.13" stroke-opacity="1.00" stroke-linejoin="round"/>
<path d="M64.15,418.45 C64.15,418.45 64.15,418.34 64.15,418.34 C64.17,418.31 65.81,417.60 68.09,416.94 C74.87,414.98 85.22,413.33 96.20,412.04 C116.09,410.13 130.96,407.93 147.62,406.25 C164.17,404.87 192.82,404.43 197.07,404.04 C200.28,403.70 203.90,403.30 204.32,403.24 C204.32,403.24 201.82,404.48 201.82,404.48" fill="none" stroke="rgb(45, 6, 20)" stroke-width="3.13" stroke-opacity="1.00" stroke-linejoin="round"/>
<path d="M87.03,426.00 C90.54,424.55 97.38,423.29 99.86,422.71 C106.03,421.29 142.23,417.25 155.24,416.17 C170.12,415.08 204.31,414.75 207.69,414.65 C237.59,414.55 266.86,413.70 269.49,413.65 C269.49,413.65 267.53,413.42 267.53,413.42" fill="none" stroke="rgb(45, 6, 20)" stroke-width="3.13" stroke-opacity="1.00" stroke-linejoin="round"/>
<path d="M91.83,434.92 C91.83,434.92 91.83,434.47 91.83,434.47 C95.73,434.24 114.41,430.82 118.38,430.34 C121.23,430.00 160.89,426.00 164.85,426.23 C165.07,426.25 165.59,426.30 166.42,426.39" fill="none" stroke="rgb(45, 6, 20)" stroke-width="3.13" stroke-opacity="1.00" stroke-linejoin="round"/>
<path d="M154.98,425.54 C154.98,425.54 155.09,425.20 155.09,425.20 C156.07,424.69 159.07,424.52 160.30,424.42 C166.87,423.85 170.99,423.57 175.71,423.50 C202.70,423.17 249.46,422.43 249.39,422.45 C249.39,422.45 246.76,423.53 246.76,423.53" fill="none" stroke="rgb(45, 6, 20)" stroke-width="3.13" stroke-opacity="1.00" stroke-linejoin="round"/>
<path d="M113.11,444.99 C113.11,444.99 113.11,444.30 113.11,444.30 C120.10,442.61 130.00,441.30 140.70,440.41 C156.17,439.26 183.69,437.41 190.07,437.08 C199.82,436.76 229.60,436.74 232.01,436.63 C232.01,436.63 230.60,436.37 230.60,436.37" fill="none" stroke="rgb(45, 6, 20)" stroke-width="3.13" stroke-opacity="1.00" stroke-linejoin="round"/>
<path d="M173.28,433.32 C173.28,433.32 173.28,433.21 173.28,433.21 C173.43,433.08 192.05,433.07 198.03,432.82 C205.22,432.43 219.06,431.68 225.61,431.23 C231.76,430.73 249.45,431.25 252.31,431.25 C264.20,431.38 288.40,431.78 303.43,433.37 C308.43,433.90 310.54,434.00 313.05,434.04 C313.05,434.04 310.84,434.39 310.84,434.39" fill="none" stroke="rgb(45, 6, 20)" stroke-width="3.13" stroke-opacity="1.00" stroke-linejoin="round"/>
<path d="M185.86,451.40 C186.85,451.34 187.74,451.24 190.07,450.87 C207.40,448.19 253.55,448.08 262.45,447.96 C261.48,447.96 260.51,447.96 259.54,447.96 C259.07,447.96 258.61,447.96 258.15,447.96" fill="none" stroke="rgb(45, 6, 20)" stroke-width="3.13" stroke-opacity="1.00" stroke-linejoin="round"/>
<path d="M191.35,447.74 C192.40,447.25 202.81,447.28 211.17,446.71 C220.25,446.17 263.97,446.13 267.48,445.94 C270.84,445.76 284.50,444.53 293.26,444.56 C294.05,444.57 294.83,444.67 296.12,444.90 C296.12,444.90 295.36,446.17 295.36,446.17" fill="none" stroke="rgb(45, 6, 20)" stroke-width="3.13" stroke-opacity="1.00" stroke-linejoin="round"/>
<path d="M299.56,452.08 C299.96,451.04 300.47,450.45 301.92,449.74 C305.96,447.76 309.83,446.62 314.71,445.44 C321.24,443.95 330.54,442.69 340.56,441.98 C360.80,440.53 388.65,439.70 388.97,439.84 C388.97,439.84 388.04,440.82 388.04,440.82" fill="none" stroke="rgb(45, 6, 20)" stroke-width="3.13" stroke-opacity="1.00" stroke-linejoin="round"/>
<path d="M315.58,453.91 C315.94,453.75 316.82,453.47 317.58,453.34 C318.36,453.20 319.16,453.12 319.94,453.00 C320.10,452.97 338.64,450.37 345.45,450.19 C353.51,450.12 368.53,449.98 371.27,449.80 C371.27,449.80 370.43,449.64 370.43,449.64" fill="none" stroke="rgb(45, 6, 20)" stroke-width="3.13" stroke-opacity="1.00" stroke-linejoin="round"/>
<path d="M277.76,384.93 C277.76,384.93 278.24,384.26 278.24,384.26 C279.91,384.09 296.36,384.48 303.31,384.56 C314.64,384.72 366.69,383.82 370.22,383.06 C370.22,383.06 370.11,383.27 370.11,383.27" fill="none" stroke="rgb(45, 6, 20)" stroke-width="3.13" stroke-opacity="1.00" stroke-linejoin="round"/>
<path d="M318.84,388.13 C317.36,387.90 316.54,387.82 315.51,387.86 C310.54,388.07 304.44,389.79 293.16,393.27 C283.64,396.12 271.32,400.38 268.40,401.87 C266.69,402.76 265.35,403.81 265.17,404.42 C264.80,406.00 265.20,407.43 266.40,407.86 C270.14,409.08 294.92,404.60 312.51,402.51 C325.26,401.55 352.81,398.83 362.36,398.80 C364.69,398.77 406.75,395.09 416.25,394.69 C418.10,394.64 421.15,394.56 422.36,394.53 C422.36,394.53 419.91,394.74 419.91,394.74" fill="none" stroke="rgb(45, 6, 20)" stroke-width="3.13" stroke-opacity="1.00" stroke-linejoin="round"/>
<path d="M318.31,406.27 C318.14,405.82 316.46,405.20 313.09,405.54 C310.02,405.87 297.72,410.73 293.72,413.04 C290.28,415.06 289.91,415.92 289.75,416.53 C290.06,417.46 292.07,418.68 294.35,418.93 C295.40,419.03 331.04,415.91 346.83,415.16 C352.90,414.72 418.64,413.10 419.34,413.43 C419.34,413.43 419.41,414.95 419.41,414.95" fill="none" stroke="rgb(45, 6, 20)" stroke-width="3.13" stroke-opacity="1.00" stroke-linejoin="round"/>
<path d="M-20.33,370.73 C-20.33,370.73 -20.18,369.44 -20.18,369.44 C-20.18,369.46 -20.07,369.46 -19.85,369.44 C-17.89,369.29 -5.98,367.41 5.06,366.09 C13.00,365.27 28.46,363.75 35.99,363.05 C40.07,362.66 74.54,361.57 87.89,360.86 C92.43,360.59 99.22,359.54 100.12,359.41 C100.53,359.35 101.25,359.27 102.29,359.17" fill="none" stroke="rgb(89, 39, 13)" stroke-width="3.13" stroke-opacity="1.00" stroke-linejoin="round"/>
<path d="M150.19,372.33 C150.82,371.22 154.87,370.02 158.23,369.67 C167.59,368.89 178.20,369.05 182.59,368.80 C190.95,368.21 204.61,366.98 211.07,367.09 C216.66,367.19 227.91,367.17 228.69,367.28 C228.69,367.28 229.98,368.89 229.98,368.89" fill="none" stroke="rgb(89, 39, 13)" stroke-width="3.13" stroke-opacity="1.00" stroke-linejoin="round"/>
<path d="M262.59,373.62 C264.01,373.04 268.00,371.94 270.40,371.95 C279.39,372.12 286.45,371.57 297.15,369.75 C304.81,368.26 323.00,364.72 326.79,364.25 C341.09,362.89 371.26,359.86 387.12,358.19 C414.16,356.21 459.50,353.45 459.66,353.47 C459.66,353.47 460.72,355.63 460.72,355.63" fill="none" stroke="rgb(89, 39, 13)" stroke-width="3.13" stroke-opacity="1.00" stroke-linejoin="round"/>
<path d="M-17.48,-74.68 C-17.48,-74.68 -17.82,-75.07 -17.82,-75.07 C-19.39,-75.24 -22.03,-75.45 -22.91,-75.37 C-24.83,-75.15 -30.29,-70.74 -32.68,-67.63 C-33.69,-66.28 -35.79,-61.61 -35.42,-59.77 C-34.91,-57.50 -31.61,-54.98 -29.74,-54.39 C-27.43,-53.69 -21.77,-53.74 -18.90,-54.57 C-15.82,-55.50 -10.80,-58.83 -9.04,-61.05 C-7.80,-62.66 -6.14,-66.86 -6.34,-68.70 C-6.56,-70.26 -10.12,-74.71 -12.36,-75.53 C-14.78,-76.37 -19.71,-75.80 -21.62,-75.28 C-23.75,-74.66 -29.24,-72.21 -31.85,-70.51 C-33.84,-69.19 -37.35,-65.92 -38.27,-63.92 C-39.18,-61.83 -38.60,-57.50 -37.10,-55.58 C-35.52,-53.66 -30.28,-51.05 -27.26,-50.58 C-24.29,-50.16 -18.54,-51.10 -15.74,-52.43 C-12.99,-53.77 -8.33,-57.76 -6.62,-60.17 C-5.10,-62.37 -3.39,-66.72 -3.23,-68.55 C-3.10,-70.33 -4.21,-73.31 -5.47,-74.64 C-6.69,-75.90 -9.77,-77.74 -11.53,-78.19 C-13.43,-78.65 -17.41,-78.39 -19.66,-77.55 C-22.10,-76.60 -27.09,-73.16 -29.23,-71.31 C-31.39,-69.41 -33.73,-65.44 -33.88,-63.10 C-33.98,-60.70 -32.04,-56.44 -30.09,-54.90 C-28.13,-53.43 -23.19,-52.17 -20.48,-52.38 C-17.64,-52.64 -12.42,-55.14 -10.38,-57.29 C-8.55,-59.27 -6.41,-63.76 -6.18,-65.55 C-6.00,-67.26 -7.33,-70.13 -8.96,-71.80 C-10.75,-73.59 -15.49,-76.74 -17.98,-77.42 C-20.74,-78.12 -25.81,-76.73 -28.34,-74.75 C-30.68,-72.86 -34.49,-67.92 -35.56,-65.24 C-36.53,-62.75 -36.92,-58.02 -36.69,-56.72 C-36.09,-53.71 -33.15,-49.61 -30.67,-48.21 C-28.05,-46.81 -22.23,-46.58 -19.00,-47.81 C-15.86,-49.07 -10.17,-53.66 -7.98,-56.56 C-6.11,-59.09 -3.63,-64.64 -3.44,-66.50 C-3.30,-68.26 -5.07,-70.71 -7.01,-71.72 C-9.23,-72.80 -14.32,-73.34 -17.12,-72.52 C-19.94,-71.64 -25.58,-67.58 -27.77,-64.95 C-29.83,-62.44 -32.46,-56.92 -32.55,-54.86 C-32.58,-52.77 -30.03,-49.46 -27.71,-48.37 C-25.31,-47.31 -20.12,-47.40 -17.44,-48.61 C-14.96,-49.77 -10.93,-53.33 -9.15,-55.71 C-8.31,-56.84 -8.06,-57.99 -8.04,-60.07 C-9.12,-61.22 -13.24,-62.24 -16.37,-62.20 C-19.87,-62.10 -26.75,-59.82 -29.92,-57.67 C-33.06,-55.47 -37.40,-50.12 -38.75,-46.83 C-39.28,-45.46 -39.97,-41.40 -39.42,-39.84 C-38.76,-38.11 -35.13,-36.02 -32.12,-35.57 C-28.80,-35.12 -21.52,-35.93 -17.91,-37.33 C-14.18,-38.82 -8.33,-43.33 -6.35,-46.04 C-4.75,-48.30 -3.85,-52.13 -4.68,-53.29 C-5.64,-54.51 -10.47,-56.10 -13.54,-56.13 C-17.30,-56.10 -23.35,-54.04 -25.81,-52.51 C-27.83,-51.20 -30.61,-48.92 -32.38,-47.16 C-34.50,-44.99 -37.40,-40.52 -38.19,-38.27 C-38.80,-36.20 -38.41,-31.81 -36.59,-29.80 C-34.78,-27.91 -29.19,-26.37 -26.03,-26.82 C-22.91,-27.33 -17.49,-30.42 -15.39,-32.78 C-13.60,-34.86 -11.78,-39.35 -12.09,-40.84 C-12.46,-42.33 -15.87,-44.45 -18.33,-44.74 C-21.14,-45.02 -26.50,-43.20 -28.89,-41.02 C-31.27,-38.76 -33.62,-33.22 -33.64,-29.70 C-33.62,-28.20 -32.08,-24.05 -30.11,-22.50 C-27.96,-20.86 -21.87,-19.38 -18.78,-19.81 C-15.69,-20.29 -10.55,-23.56 -8.84,-25.90 C-7.32,-28.07 -6.72,-31.62 -7.78,-32.72 C-8.91,-33.79 -14.36,-35.20 -17.53,-35.20 C-21.05,-35.14 -27.81,-32.72 -30.87,-30.47 C-33.82,-28.25 -37.60,-23.14 -38.63,-19.97 C-39.06,-18.54 -39.20,-14.11 -38.28,-12.23 C-37.23,-10.21 -32.70,-7.85 -29.69,-7.70 C-26.57,-7.60 -20.00,-9.74 -16.93,-11.88 C-10.97,-16.12 -8.69,-21.57 -8.37,-22.69 C-8.37,-22.69 -9.34,-24.74 -9.34,-24.74 C-11.09,-25.63 -15.52,-26.50 -18.24,-26.39 C-21.38,-26.22 -27.27,-23.84 -29.92,-21.55 C-32.53,-19.23 -35.92,-13.45 -36.46,-10.60 C-36.92,-7.85 -35.74,-3.49 -33.96,-2.10 C-32.08,-0.74 -26.48,-0.13 -23.19,-0.92 C-20.05,-1.73 -14.14,-4.92 -11.94,-6.85 C-9.97,-8.60 -7.73,-12.25 -7.83,-13.24 C-8.00,-14.53 -8.86,-16.11 -9.68,-16.57 C-11.56,-17.54 -15.70,-18.08 -17.89,-17.53 C-19.91,-16.98 -23.53,-14.40 -25.33,-12.49 C-28.87,-8.63 -31.30,-2.47 -30.99,-0.78 C-30.63,0.85 -27.39,2.92 -25.15,3.11 C-22.88,3.26 -18.42,1.52 -16.35,-0.31 C-10.44,-5.72 -10.14,-10.35 -10.49,-11.47 C-12.47,-12.42 -15.62,-12.01 -17.02,-11.41 C-17.74,-11.09 -18.97,-10.27 -19.64,-9.69 C-20.92,-8.50 -21.08,-6.88 -20.99,-5.29" fill="none" stroke="rgb(67, 224, 232)" stroke-width="3.13" stroke-opacity="1.00" stroke-linejoin="round"/>
<path d="M22.74,-86.01 C22.74,-86.01 23.02,-86.51 23.02,-86.51 C22.43,-87.38 19.96,-88.93 18.44,-89.07 C16.56,-89.21 12.77,-88.48 10.33,-87.54 C5.70,-85.71 -6.86,-77.89 -9.59,-74.71 C-10.31,-73.84 -11.05,-72.18 -11.07,-71.36 C-11.02,-69.75 -7.34,-65.24 -4.51,-63.36 C-1.79,-61.59 2.96,-59.84 4.67,-59.50 C6.67,-59.13 10.83,-59.06 12.97,-59.38 C17.20,-60.05 25.59,-63.84 29.69,-66.62 C31.26,-67.69 35.40,-70.96 37.49,-73.15 C39.70,-75.48 42.02,-79.75 42.05,-81.22 C42.01,-82.62 39.72,-85.58 37.75,-87.12 C35.48,-88.86 30.11,-90.96 26.94,-90.88 C23.86,-90.75 18.37,-88.53 15.93,-87.19 C11.67,-84.82 4.12,-78.90 1.63,-75.98 C-0.63,-73.31 -2.82,-69.58 -3.15,-67.82 C-3.35,-66.64 -2.78,-64.18 -2.05,-62.95 C-1.26,-61.71 0.99,-59.62 2.49,-58.75 C5.71,-56.96 12.47,-56.24 15.16,-56.68 C17.53,-57.12 21.17,-58.36 23.14,-59.43 C26.91,-61.51 33.43,-67.50 36.10,-71.10 C39.19,-75.31 40.93,-81.20 40.44,-82.69 C39.82,-84.38 35.10,-87.09 31.94,-87.43 C28.88,-87.73 23.83,-86.77 22.04,-86.16 C17.73,-84.64 9.23,-78.51 6.04,-74.62 C4.75,-73.02 1.80,-68.14 1.01,-65.28 C0.33,-62.75 0.77,-58.22 1.97,-56.60 C2.71,-55.64 5.19,-54.21 6.76,-53.79 C9.90,-53.04 17.14,-53.89 21.20,-55.64 C22.77,-56.33 26.70,-58.87 28.10,-60.07 C31.31,-62.89 35.42,-68.26 36.36,-70.36 C36.80,-71.41 36.99,-73.14 36.73,-73.88 C36.13,-75.36 31.53,-77.69 28.24,-78.06 C24.97,-78.39 19.06,-77.15 16.77,-76.26 C14.80,-75.47 10.92,-73.28 9.23,-72.01 C7.28,-70.50 3.22,-66.01 2.27,-63.21 C1.50,-60.85 1.76,-56.50 2.76,-54.86 C3.40,-53.86 5.71,-52.26 7.16,-51.76 C9.87,-50.90 15.75,-51.24 18.18,-51.81 C22.45,-52.86 30.70,-57.39 34.07,-60.62 C35.80,-62.31 39.56,-66.93 40.72,-69.29 C41.38,-70.65 41.53,-71.89 41.35,-73.11 C40.58,-74.12 39.44,-74.96 38.02,-75.26 C35.47,-75.78 30.36,-75.43 28.31,-75.00 C23.24,-73.90 12.36,-68.48 7.27,-64.54 C2.14,-60.53 -6.06,-51.33 -7.54,-48.33 C-8.17,-47.02 -9.23,-44.37 -9.27,-43.68 C-9.32,-42.02 -8.86,-40.31 -7.95,-39.44 C-5.99,-37.71 0.73,-36.54 3.65,-36.74 C8.42,-37.14 17.13,-40.37 21.62,-43.49 C25.33,-46.10 33.14,-53.76 34.70,-56.77 C35.35,-58.08 35.77,-59.79 35.53,-60.57 C35.26,-61.31 33.83,-62.44 32.65,-62.83 C30.14,-63.61 24.57,-63.22 22.01,-62.55 C17.51,-61.31 8.03,-55.69 3.83,-51.95 C1.83,-50.15 -1.53,-46.52 -2.92,-44.64 C-4.52,-42.42 -6.47,-38.18 -6.70,-36.42 C-6.77,-35.43 -6.48,-33.44 -6.01,-32.41 C-5.44,-31.25 -3.07,-29.25 -1.53,-28.63 C1.23,-27.59 6.68,-27.40 8.63,-27.62 C13.26,-28.17 23.72,-32.40 28.70,-35.65 C33.15,-38.57 41.20,-45.85 43.71,-49.62 C44.55,-50.88 44.91,-52.09 44.91,-53.13 C44.03,-54.43 39.89,-55.45 35.91,-55.44 C31.59,-55.40 21.64,-52.71 16.48,-49.82 C11.13,-46.78 1.22,-38.14 -1.93,-34.20 C-3.78,-31.86 -5.96,-28.32 -7.14,-24.83 C-7.38,-24.07 -7.23,-21.57 -6.95,-20.74 C-6.51,-19.58 -4.27,-17.31 -2.84,-16.56 C-0.29,-15.27 4.86,-14.46 6.65,-14.47 C10.89,-14.52 19.23,-17.12 23.47,-19.41 C25.09,-20.29 29.81,-23.36 31.92,-25.31 C33.93,-27.18 36.50,-31.04 37.12,-32.91 C37.49,-34.06 37.46,-36.15 37.05,-36.96 C36.59,-37.78 34.77,-39.05 33.44,-39.48 C30.71,-40.31 24.83,-39.96 22.24,-39.30 C18.01,-38.16 9.58,-33.01 5.16,-28.94 C3.74,-27.62 0.22,-23.60 -1.11,-21.81 C-2.86,-19.44 -5.45,-14.29 -5.77,-12.61 C-6.12,-10.49 -5.37,-6.65 -3.32,-5.13 C-2.12,-4.29 1.20,-3.24 2.89,-3.22 C5.82,-3.23 11.30,-5.01 13.09,-5.84 C17.21,-7.80 25.77,-14.01 29.06,-17.61 C31.28,-20.07 33.04,-24.06 32.58,-25.61 C32.04,-27.19 27.94,-30.05 25.15,-30.47 C22.34,-30.87 17.42,-29.99 15.64,-29.41 C11.38,-27.99 2.98,-22.68 -0.80,-19.10 C-2.62,-17.35 -5.84,-13.06 -6.47,-11.62 C-7.05,-10.14 -7.37,-8.11 -7.05,-7.07 C-6.70,-6.06 -5.12,-4.33 -3.96,-3.71 C-1.20,-2.35 5.06,-2.61 7.86,-3.51 C11.99,-4.92 19.36,-9.44 23.01,-12.59 C25.09,-14.43 29.31,-19.28 30.36,-21.46 C30.80,-22.41 31.07,-24.00 30.88,-24.60 C30.43,-25.79 26.44,-27.37 23.47,-27.38 C19.93,-27.34 13.54,-24.90 11.23,-23.32 C7.67,-20.81 1.42,-13.88 -0.13,-10.44 C-0.71,-9.09 -1.14,-7.31 -0.98,-6.56 C-0.80,-5.86 0.36,-4.88 1.33,-4.61 C3.54,-4.07 9.35,-5.34 11.88,-6.44 C16.01,-8.31 23.93,-13.47 27.90,-16.85 C31.46,-19.90 38.99,-27.85 40.56,-31.09 C41.24,-32.56 41.81,-34.63 41.72,-35.57 C41.59,-36.49 40.54,-37.91 39.57,-38.50 C37.56,-39.62 31.16,-40.49 26.96,-39.89 C23.04,-39.29 14.46,-34.80 10.98,-31.56 C9.14,-29.81 5.50,-25.32 4.24,-22.40 C3.65,-20.95 3.35,-16.62 4.52,-14.85 C5.22,-13.85 7.32,-12.53 8.76,-12.21 C11.44,-11.66 16.92,-13.07 19.10,-14.12 C22.65,-15.88 30.54,-22.29 33.48,-25.77 C34.97,-27.54 37.62,-31.42 38.68,-33.35 C39.88,-35.56 41.79,-40.56 42.00,-43.67 C42.08,-45.25 40.75,-49.56 38.82,-51.25 C36.65,-53.08 29.84,-54.80 26.37,-54.44 C24.69,-54.24 21.47,-53.24 20.02,-52.47 C17.37,-51.01 14.77,-47.77 12.78,-44.69" fill="none" stroke="rgb(67, 224, 232)" stroke-width="3.13" stroke-opacity="1.00" stroke-linejoin="round"/>
<path d="M65.22,-81.76 C62.66,-82.22 60.39,-82.76 58.95,-83.11 C56.18,-83.73 50.76,-84.16 49.13,-83.95 C46.68,-83.61 41.58,-81.24 39.63,-79.39 C37.96,-77.78 35.56,-74.04 35.08,-72.02 C34.79,-70.73 35.03,-68.03 35.53,-66.68 C36.62,-63.98 41.80,-58.85 45.18,-57.36 C48.49,-55.96 56.11,-55.20 60.15,-55.66 C64.02,-56.14 71.21,-58.63 74.19,-60.38 C76.92,-62.01 80.55,-65.57 81.32,-67.23 C82.02,-68.83 81.52,-71.71 80.19,-73.24 C78.79,-74.80 74.17,-77.89 71.46,-78.96 C68.45,-80.09 62.63,-80.68 59.75,-79.88 C56.71,-78.97 51.02,-74.48 49.27,-71.69 C47.99,-69.60 46.65,-65.29 46.70,-63.29 C46.76,-61.99 47.71,-59.42 48.54,-58.36 C50.36,-56.16 56.80,-53.35 60.98,-52.81 C64.91,-52.34 72.48,-53.11 75.58,-54.26 C78.43,-55.36 82.23,-58.59 82.90,-60.34 C83.49,-62.05 82.17,-65.47 80.19,-67.12 C77.80,-69.04 71.50,-71.53 68.75,-72.03 C66.25,-72.46 61.88,-72.61 59.53,-72.33 C57.10,-72.02 52.32,-70.54 50.03,-69.42 C47.77,-68.29 43.69,-65.36 41.92,-63.65 C38.76,-60.55 35.36,-54.07 34.89,-51.10 C34.65,-49.36 35.12,-45.71 35.79,-43.98 C36.51,-42.23 38.63,-39.38 40.11,-38.15 C41.54,-37.00 44.75,-35.39 46.48,-34.94 C49.83,-34.13 56.93,-35.20 60.29,-36.82 C63.45,-38.41 68.22,-42.82 69.52,-45.30 C70.72,-47.69 70.76,-51.81 69.57,-53.56 C68.29,-55.32 63.44,-58.22 60.29,-58.80 C58.51,-59.09 55.11,-58.99 53.28,-58.56 C49.46,-57.59 44.19,-53.55 42.35,-51.18 C40.53,-48.63 38.14,-42.52 38.39,-38.86 C38.55,-37.18 39.64,-34.11 40.52,-32.88 C41.43,-31.68 43.98,-29.80 45.44,-29.22 C48.38,-28.16 55.39,-28.88 58.64,-30.48 C61.64,-32.02 66.26,-36.64 67.48,-39.08 C68.56,-41.33 68.39,-45.46 67.09,-47.07 C66.36,-47.92 64.27,-49.22 62.99,-49.57 C61.59,-49.92 58.31,-49.89 56.75,-49.46 C53.56,-48.52 47.24,-43.36 45.14,-40.13 C43.00,-36.70 42.14,-31.15 42.58,-28.85 C43.10,-26.79 46.09,-23.12 49.06,-22.14 C51.75,-21.32 57.71,-22.01 60.34,-23.37 C62.85,-24.72 66.57,-28.89 67.47,-31.23 C67.88,-32.39 68.12,-34.57 67.91,-35.53 C67.66,-36.52 66.47,-38.19 65.46,-38.92 C63.32,-40.40 56.81,-41.83 52.60,-41.38 C50.84,-41.17 46.69,-39.84 44.67,-38.81 C42.42,-37.63 37.76,-34.10 35.73,-31.55 C34.76,-30.31 33.60,-28.13 33.39,-27.16 C33.24,-26.20 33.72,-24.59 34.39,-23.89 C35.92,-22.42 42.18,-20.64 45.77,-20.80 C49.45,-21.01 57.11,-23.64 60.28,-25.69 C62.97,-27.47 66.96,-31.79 67.52,-33.33 C67.76,-34.10 67.55,-35.32 67.06,-35.84 C65.91,-36.96 60.50,-38.17 56.49,-38.00 C52.58,-37.80 43.75,-34.67 40.62,-32.37 C37.87,-30.33 34.76,-26.96 33.83,-25.19 C33.30,-24.13 32.78,-21.73 32.84,-20.68 C32.94,-19.59 33.80,-17.65 34.56,-16.83 C35.40,-16.00 37.61,-14.89 39.02,-14.61 C41.95,-14.12 48.73,-15.91 52.17,-18.06 C55.37,-20.11 60.57,-25.17 61.90,-27.52 C62.49,-28.63 63.12,-30.72 63.12,-31.58 C63.09,-32.46 62.39,-33.86 61.71,-34.42 C60.26,-35.51 55.03,-36.12 52.45,-35.29 C49.86,-34.40 45.87,-30.51 44.74,-28.19 C44.14,-26.93 43.70,-25.06 43.37,-22.91" fill="none" stroke="rgb(67, 224, 232)" stroke-width="3.13" stroke-opacity="1.00" stroke-linejoin="round"/>
<path d="M94.68,-61.37 C94.68,-61.37 94.68,-61.65 94.68,-61.65 C93.92,-62.80 90.68,-64.47 88.00,-64.29 C86.58,-64.16 82.47,-61.98 80.70,-60.23 C78.89,-58.38 76.37,-54.01 75.92,-51.75 C75.71,-50.51 75.82,-47.96 76.18,-46.74 C76.61,-45.37 78.06,-43.34 79.24,-42.48 C81.52,-40.91 87.93,-40.05 91.16,-40.74 C94.28,-41.46 99.83,-44.86 101.97,-47.19 C103.90,-49.32 105.94,-53.51 105.99,-55.23 C105.98,-56.95 104.00,-60.40 102.07,-61.99 C99.96,-63.66 94.16,-65.81 91.07,-66.05 C87.80,-66.24 81.87,-64.37 79.72,-62.39 C78.12,-60.87 75.91,-57.13 75.46,-55.16 C75.20,-53.91 75.34,-51.18 75.73,-49.95 C76.17,-48.71 77.75,-46.44 78.81,-45.56 C80.98,-43.84 87.15,-42.27 90.85,-42.28 C94.36,-42.33 99.92,-43.77 102.09,-45.18 C103.96,-46.44 105.93,-49.74 105.82,-51.34 C105.63,-53.04 102.91,-56.45 100.45,-57.93 C97.68,-59.55 90.77,-61.30 87.17,-61.09 C83.40,-60.82 76.59,-57.95 74.13,-55.65 C72.94,-54.48 71.31,-51.95 70.88,-50.55 C70.48,-49.08 70.49,-45.74 70.91,-44.17 C71.36,-42.61 73.13,-39.58 74.26,-38.39 C75.39,-37.26 78.20,-35.56 79.72,-35.06 C82.77,-34.14 88.97,-35.01 91.65,-36.62 C94.11,-38.16 97.34,-42.58 98.19,-45.28 C98.95,-47.88 98.36,-51.95 96.95,-53.62 C95.47,-55.29 91.30,-56.86 89.27,-56.41 C87.15,-55.87 84.10,-52.31 83.35,-49.49 C82.63,-46.58 83.39,-41.55 84.92,-40.15 C86.45,-38.83 91.43,-38.38 93.92,-39.26 C96.40,-40.19 100.44,-43.78 101.69,-46.05 C102.78,-48.14 102.86,-51.77 101.79,-53.05 C100.63,-54.33 95.75,-56.10 93.06,-55.98 C90.09,-55.81 85.25,-53.42 83.21,-51.79 C79.98,-49.13 74.08,-40.66 72.68,-36.50 C71.97,-34.21 71.86,-30.02 73.18,-28.42 C74.44,-27.00 78.60,-26.13 80.66,-26.86 C82.69,-27.64 85.70,-31.21 86.49,-33.43 C86.64,-33.88 87.17,-36.28 87.10,-36.84 C86.86,-38.35 85.45,-40.01 83.57,-40.99 C81.85,-41.84 76.77,-42.03 74.11,-40.81 C71.31,-39.46 66.79,-34.36 65.48,-31.42 C64.36,-28.78 63.98,-24.62 64.82,-23.30 C65.72,-22.01 69.62,-20.56 71.90,-20.75 C74.19,-20.99 78.34,-23.27 80.09,-25.01 C83.65,-28.62 83.97,-31.54 83.92,-33.43 C82.76,-34.96 81.97,-35.70 80.88,-36.03 C78.30,-36.78 72.59,-36.59 68.71,-35.16 C67.24,-34.60 63.05,-31.99 61.47,-30.63 C59.75,-29.11 56.05,-24.53 55.00,-22.05 C54.50,-20.81 54.09,-18.53 54.20,-17.63 C54.36,-16.73 55.32,-15.45 56.16,-15.06 C57.92,-14.32 63.32,-15.35 66.43,-17.23 C69.04,-18.85 74.63,-23.36 77.07,-25.90 C79.02,-27.95 80.49,-29.98 82.22,-32.48" fill="none" stroke="rgb(67, 224, 232)" stroke-width="3.13" stroke-opacity="1.00" stroke-linejoin="round"/>
<path d="M151.35,-123.66 C148.20,-123.94 146.30,-124.04 145.54,-123.83 C144.57,-123.57 143.83,-122.85 143.26,-121.84 C143.26,-121.84 143.48,-120.12 143.48,-120.12 C145.05,-118.50 146.12,-117.64 147.36,-117.18 C149.59,-116.36 154.74,-115.46 158.12,-115.40 C160.04,-115.37 167.86,-115.92 171.10,-116.45 C172.91,-116.76 177.08,-117.88 178.60,-119.07 C178.71,-120.55 175.92,-123.25 173.55,-124.52 C171.05,-125.83 166.29,-127.31 163.44,-127.78 C158.91,-128.50 151.69,-128.68 148.31,-128.20 C145.75,-127.81 141.60,-126.39 139.63,-124.83 C138.66,-124.04 138.13,-122.76 137.59,-120.34 C138.90,-118.00 139.78,-116.89 140.97,-116.26 C145.06,-114.11 154.70,-112.70 159.22,-112.74 C162.77,-112.79 167.89,-113.55 169.65,-114.24 C170.67,-114.65 171.23,-115.50 171.82,-117.17 C170.77,-119.08 169.98,-120.10 168.80,-120.82 C163.87,-123.77 155.55,-124.49 152.80,-124.16 C151.52,-124.00 150.47,-123.47 148.82,-122.31 C148.82,-122.31 148.90,-120.36 148.90,-120.36 C150.06,-118.95 153.92,-116.93 157.23,-116.32 C160.56,-115.73 167.58,-115.93 170.22,-116.45 C172.97,-117.02 174.09,-117.64 175.23,-118.51 C172.28,-120.98 170.37,-121.83 166.43,-121.63 C159.48,-121.18 156.15,-118.11 154.70,-116.34 C155.11,-114.43 155.67,-113.36 156.83,-112.75 C159.25,-111.51 165.46,-110.34 169.94,-110.24 C179.28,-110.11 184.38,-112.05 185.12,-112.65 C185.12,-112.65 179.63,-115.68 179.63,-115.68 C180.19,-115.99 197.75,-120.41 201.66,-122.22 C202.01,-122.38 202.70,-122.75 203.73,-123.32 C203.73,-123.32 204.54,-125.16 204.54,-125.16 C202.02,-126.81 190.98,-127.50 185.80,-126.62 C182.68,-126.05 177.21,-123.81 175.58,-122.52 C174.07,-121.24 172.62,-119.62 172.07,-118.44 C171.57,-117.32 171.24,-114.85 171.40,-113.58 C171.60,-112.29 172.66,-109.90 173.51,-108.94 C175.30,-107.00 181.19,-104.86 185.79,-104.32 C187.55,-104.13 192.39,-104.02 193.97,-104.15 C198.23,-104.54 203.85,-106.16 206.50,-107.60 C207.68,-108.26 208.28,-109.28 208.95,-111.36 C208.34,-113.18 205.28,-115.74 201.62,-116.93 C198.27,-117.97 188.61,-118.39 183.87,-117.85 C181.35,-117.55 177.38,-116.58 175.65,-115.92 C173.62,-115.12 169.79,-112.50 168.89,-110.58 C168.43,-109.54 168.36,-107.41 168.74,-106.44 C169.18,-105.47 170.92,-103.70 172.13,-103.00 C174.76,-101.57 181.51,-100.59 184.42,-100.66 C189.51,-100.86 197.35,-102.90 200.77,-104.44 C202.27,-105.13 203.15,-106.11 204.28,-108.08 C203.15,-110.12 202.22,-111.18 200.78,-111.75 C197.58,-112.97 191.92,-113.24 188.71,-112.81 C185.87,-112.36 179.71,-110.26 177.08,-108.59 C174.59,-106.93 174.16,-105.71 173.99,-104.00 C175.64,-102.14 176.87,-101.13 178.36,-100.65 C181.43,-99.69 187.67,-99.65 191.55,-100.50 C194.54,-101.18 199.37,-103.17 201.19,-104.33 C202.03,-104.88 202.41,-105.64 202.74,-107.17 C201.28,-108.70 200.15,-109.50 198.77,-109.76 C195.78,-110.28 191.03,-109.62 188.69,-108.43 C187.70,-107.90 187.13,-107.10 186.51,-105.63 C187.50,-104.47 188.29,-103.93 189.51,-103.80 C192.43,-103.53 198.36,-104.46 201.68,-105.74 C204.36,-106.81 206.06,-108.32 206.82,-109.19 C206.82,-109.19 207.05,-111.54 207.05,-111.54 C205.91,-113.03 201.52,-114.94 197.56,-115.38 C191.14,-116.07 184.32,-115.23 182.49,-114.92 C182.49,-114.92 193.26,-114.56 193.26,-114.56" fill="none" stroke="rgb(67, 224, 232)" stroke-width="3.13" stroke-opacity="1.00" stroke-linejoin="round"/>
<path d="M229.85,-122.03 C225.53,-123.19 220.08,-123.97 216.91,-123.55 C214.30,-123.18 206.89,-120.78 204.38,-119.59 C201.96,-118.41 199.28,-115.77 198.93,-113.88 C198.77,-112.82 199.09,-110.51 199.56,-109.48 C200.09,-108.41 201.94,-106.45 203.13,-105.69 C205.66,-104.16 212.05,-103.04 215.69,-102.99 C220.35,-102.93 223.85,-103.01 225.56,-103.27 C230.39,-104.07 236.10,-106.34 238.22,-108.26 C239.16,-109.16 240.39,-111.10 240.66,-112.10 C240.89,-113.09 240.64,-115.03 240.15,-115.95 C239.07,-117.84 234.13,-120.81 230.10,-121.81 C226.26,-122.71 216.69,-122.24 211.51,-120.90 C206.26,-119.50 198.38,-115.31 196.70,-113.18 C195.68,-111.83 194.69,-109.64 194.64,-108.36 C194.63,-107.20 195.45,-104.98 196.24,-103.97 C197.91,-101.97 203.69,-99.37 207.26,-99.06 C210.84,-98.80 218.80,-100.22 222.23,-101.65 C224.87,-102.78 228.83,-105.40 230.28,-107.13 C231.13,-108.17 232.23,-110.60 232.42,-111.80 C232.58,-113.01 232.16,-115.34 231.58,-116.44 C230.95,-117.55 229.05,-119.41 227.76,-120.16 C226.41,-120.89 223.30,-121.81 221.57,-121.97 C218.35,-122.24 212.69,-120.58 211.25,-119.74 C208.23,-117.89 205.15,-113.79 205.03,-111.84 C205.00,-110.94 205.66,-109.39 206.34,-108.74 C209.31,-106.11 219.10,-105.56 221.94,-106.02 C223.31,-106.26 224.50,-107.07 226.32,-108.80 C226.92,-110.75 226.78,-112.77 225.77,-114.35 C224.92,-115.64 220.10,-117.09 217.60,-116.67 C214.94,-116.16 213.17,-114.99 211.67,-113.59 C211.67,-113.59 211.76,-111.96 211.76,-111.96 C213.96,-110.84 215.54,-110.28 217.19,-110.21 C220.62,-110.08 226.10,-111.05 228.73,-112.17 C229.89,-112.68 230.63,-113.43 231.55,-114.83 C230.70,-116.08 229.92,-116.72 228.77,-116.87 C226.29,-117.17 221.55,-116.25 219.07,-115.01 C217.14,-113.95 216.52,-111.34 216.15,-108.51" fill="none" stroke="rgb(67, 224, 232)" stroke-width="3.13" stroke-opacity="1.00" stroke-linejoin="round"/>
<path d="M312.25,-49.73 C312.25,-49.73 311.26,-52.03 311.26,-52.03 C309.26,-52.87 304.28,-53.29 301.76,-53.11 C296.71,-52.70 286.62,-49.01 282.63,-46.98 C280.69,-45.98 275.42,-42.62 273.60,-40.74 C273.60,-40.74 273.43,-37.78 273.43,-37.78 C275.06,-36.08 279.74,-33.98 284.05,-33.06 C287.88,-32.27 298.65,-31.87 304.24,-32.30 C309.80,-32.74 321.50,-35.32 324.51,-37.42 C325.50,-38.14 326.64,-39.72 326.85,-40.67 C327.04,-41.68 326.65,-43.90 326.06,-45.02 C324.79,-47.32 320.37,-50.32 317.92,-51.27 C313.68,-52.85 301.55,-54.16 295.61,-54.01 C294.02,-53.97 283.24,-53.37 280.15,-52.98 C277.96,-52.69 272.05,-51.17 270.75,-49.97 C270.06,-49.29 269.16,-47.23 269.01,-46.06 C268.89,-44.83 269.35,-42.26 269.93,-41.12 C271.16,-38.84 276.02,-36.13 278.58,-35.31 C282.94,-33.95 295.03,-32.58 300.87,-32.74 C306.96,-32.92 316.68,-34.96 319.40,-36.40 C320.97,-37.26 322.78,-38.70 323.37,-39.68 C323.89,-40.62 324.06,-42.63 323.69,-43.72 C322.86,-45.94 318.70,-49.13 316.29,-50.19 C311.84,-52.07 300.13,-53.58 293.90,-53.52 C288.39,-53.46 277.79,-52.13 273.43,-50.74 C272.39,-50.38 270.20,-49.19 269.36,-48.41 C268.45,-47.53 267.35,-44.90 267.24,-43.46 C267.08,-40.67 268.40,-37.15 269.40,-35.92 C270.61,-34.47 274.03,-32.29 276.41,-31.39 C280.77,-29.78 294.05,-28.23 300.68,-28.65 C305.92,-29.01 318.45,-31.91 323.11,-34.21 C325.33,-35.35 328.35,-38.13 328.37,-40.09 C328.33,-41.19 327.06,-43.55 325.92,-44.51 C323.69,-46.35 318.27,-48.16 316.11,-48.55 C310.92,-49.43 298.48,-48.45 292.29,-46.80 C285.43,-44.93 281.79,-42.58 280.73,-41.56 C280.73,-41.56 280.98,-38.65 280.98,-38.65 C283.15,-36.79 288.71,-35.18 291.86,-34.93 C297.19,-34.55 308.15,-35.66 312.73,-37.49 C314.27,-38.12 316.73,-39.72 317.43,-40.52 C318.06,-41.31 318.47,-43.02 318.22,-43.84 C317.52,-45.70 312.50,-47.79 309.75,-48.02 C307.23,-48.20 302.98,-47.99 300.54,-47.53 C298.55,-47.15 293.01,-45.48 290.64,-44.08 C289.25,-43.26 288.30,-42.05 287.85,-40.90 C288.07,-39.82 288.70,-38.81 289.85,-38.14 C296.05,-34.58 312.54,-36.87 315.40,-37.77 C316.89,-38.24 317.91,-38.99 319.19,-40.36 C317.98,-41.42 316.88,-41.92 315.27,-41.92 C310.96,-41.89 301.25,-39.68 300.31,-38.79 C300.31,-38.79 310.31,-37.47 310.31,-37.47 C310.19,-38.91 308.88,-39.90 306.06,-40.42 C303.86,-40.81 298.83,-40.87 297.04,-40.50 C294.89,-40.05 293.37,-39.26 292.44,-38.21 C292.44,-38.21 292.54,-36.38 292.54,-36.38 C292.54,-36.38 299.87,-31.16 299.87,-31.16" fill="none" stroke="rgb(67, 224, 232)" stroke-width="3.13" stroke-opacity="1.00" stroke-linejoin="round"/>
<path d="M286.19,-26.60 C283.82,-28.01 281.27,-29.34 279.92,-29.70 C277.49,-30.32 271.54,-29.26 268.93,-28.39 C266.57,-27.59 260.42,-25.20 257.74,-23.91 C253.85,-21.94 250.14,-19.64 248.91,-17.97 C248.28,-17.05 247.84,-15.00 248.06,-13.93 C248.66,-11.51 253.52,-7.94 256.15,-7.01 C260.50,-5.56 270.43,-4.63 276.47,-5.07 C282.77,-5.56 294.55,-8.36 300.23,-10.50 C306.29,-12.79 313.59,-16.93 314.77,-18.49 C315.32,-19.28 315.50,-20.95 315.10,-21.82 C314.23,-23.54 309.57,-26.36 307.14,-27.16 C302.77,-28.55 291.39,-29.01 284.25,-28.00 C279.63,-27.33 267.00,-23.62 262.49,-21.64 C260.75,-20.87 256.94,-18.77 255.63,-17.34 C254.89,-16.50 254.16,-14.44 254.14,-13.29 C254.17,-12.09 254.93,-9.65 255.67,-8.51 C257.21,-6.21 261.84,-3.72 264.31,-3.10 C268.63,-2.07 280.55,-2.36 286.98,-3.75 C293.48,-5.18 303.29,-9.61 305.16,-11.54 C306.26,-12.71 307.27,-14.54 307.25,-15.56 C307.20,-16.51 305.98,-18.46 304.92,-19.22 C302.85,-20.65 297.56,-22.14 295.46,-22.43 C290.50,-23.07 277.78,-21.53 271.95,-19.78 C267.00,-18.26 261.17,-14.91 259.78,-13.11 C259.08,-12.15 258.62,-9.89 258.91,-8.93 C259.30,-7.90 261.26,-6.22 262.85,-5.65 C265.70,-4.67 272.03,-4.30 274.30,-4.41 C279.72,-4.68 290.55,-7.52 294.75,-9.69 C296.42,-10.58 299.58,-12.86 300.60,-14.48 C301.12,-15.34 301.13,-17.06 300.65,-17.86 C299.39,-19.72 293.84,-21.41 290.75,-21.53 C286.15,-21.65 276.84,-19.85 272.29,-17.71 C270.70,-16.95 269.88,-15.87 269.06,-13.85 C270.00,-12.37 274.08,-10.73 278.43,-10.45 C282.37,-10.24 292.42,-12.08 296.53,-13.55 C300.72,-15.07 304.56,-17.15 305.54,-18.54 C305.54,-18.54 304.51,-20.77 304.51,-20.77 C302.07,-22.08 296.63,-22.76 293.97,-22.52 C291.88,-22.30 287.23,-21.42 284.07,-20.28 C280.86,-19.09 277.01,-16.57 276.19,-15.20 C276.19,-15.20 276.98,-13.22 276.98,-13.22 C278.81,-12.20 283.80,-11.88 287.66,-12.73 C292.12,-13.76 302.40,-17.95 308.24,-21.20 C313.80,-24.31 319.52,-29.98 319.52,-29.78 C320.65,-28.93 325.42,-27.56 328.89,-27.16 C333.20,-26.70 344.21,-27.32 347.68,-28.26 C351.48,-29.32 355.05,-31.40 355.73,-32.73 C356.43,-34.24 355.48,-38.79 353.84,-41.07 C351.91,-43.69 347.03,-46.79 344.52,-47.66 C342.31,-48.39 337.41,-49.13 334.69,-49.13 C329.22,-49.09 317.60,-45.82 312.06,-43.02 C309.45,-41.69 305.06,-38.89 303.48,-37.65 C301.55,-36.10 298.41,-32.01 298.46,-29.68 C298.54,-28.33 299.88,-25.58 301.03,-24.52 C303.08,-22.69 308.30,-20.63 310.26,-20.16 C315.05,-19.04 326.90,-18.92 332.62,-20.03 C338.52,-21.20 347.77,-25.15 351.22,-27.70 C353.09,-29.12 355.64,-32.77 355.11,-34.60 C354.43,-36.55 349.87,-39.17 347.25,-39.83 C342.95,-40.85 333.27,-40.72 328.26,-39.57 C326.29,-39.10 321.22,-37.41 318.64,-36.05 C315.62,-34.43 314.78,-32.64 314.66,-31.51 C315.13,-30.44 315.98,-29.44 317.19,-28.83 C319.36,-27.74 325.30,-27.22 327.90,-27.36 C332.14,-27.63 343.22,-30.15 348.56,-32.30 C351.70,-33.59 353.20,-34.72 354.31,-35.80 C354.31,-35.80 354.18,-38.65 354.18,-38.65 C352.13,-40.43 346.50,-41.70 343.41,-41.68 C338.15,-41.56 327.99,-39.42 324.00,-37.46 C322.56,-36.75 321.38,-35.71 320.58,-34.69 C320.58,-34.69 320.85,-31.84 320.85,-31.84 C322.45,-30.06 327.25,-28.14 331.00,-27.93 C334.72,-27.76 342.14,-29.15 345.17,-30.40 C348.32,-31.77 349.33,-32.88 350.19,-34.31 C349.40,-35.95 348.64,-36.90 347.37,-37.51 C344.64,-38.79 339.60,-39.38 336.98,-39.14 C332.57,-38.68 324.16,-35.08 322.12,-33.28 C320.89,-32.14 319.65,-30.40 319.44,-29.34 C319.28,-28.37 319.84,-26.30 320.52,-25.33 C322.15,-23.16 328.05,-20.55 330.91,-20.05 C335.62,-19.28 345.53,-19.66 349.81,-21.04 C351.34,-21.54 352.85,-22.43 353.96,-23.32 C353.96,-23.32 354.59,-25.90 354.59,-25.90 C353.45,-27.68 349.67,-29.37 347.03,-29.73 C342.22,-30.30 331.78,-29.49 325.78,-28.37 C320.73,-27.42 314.64,-25.23 313.09,-24.03 C312.26,-23.35 311.49,-21.68 311.54,-20.73 C311.64,-19.75 312.67,-17.69 313.60,-16.68 C315.58,-14.62 320.89,-12.17 323.59,-11.48 C331.92,-9.47 351.32,-10.96 355.29,-12.00 C359.70,-13.19 363.91,-15.77 364.36,-17.35 C364.53,-18.11 364.08,-19.85 363.49,-20.71 C361.99,-22.76 356.72,-25.29 353.95,-25.78 C349.06,-26.57 338.75,-25.77 333.08,-24.43 C328.20,-23.25 321.62,-20.51 319.99,-19.23 C319.13,-18.51 318.46,-16.94 318.63,-16.12 C318.87,-15.26 320.32,-13.52 321.47,-12.78 C323.82,-11.32 329.66,-10.12 332.47,-9.99 C337.02,-9.83 347.30,-11.31 351.38,-12.65 C355.67,-14.09 359.81,-16.39 361.02,-17.92 C361.02,-17.92 360.85,-20.30 360.85,-20.30 C359.22,-21.82 354.42,-22.83 351.41,-22.67 C346.16,-22.34 333.60,-19.64 328.39,-17.38 C326.97,-16.75 325.93,-16.03 324.68,-14.90 C324.68,-14.90 324.51,-11.95 324.51,-11.95 C326.07,-10.19 330.78,-8.61 334.47,-8.72 C341.71,-9.01 350.53,-13.45 351.95,-14.86 C351.95,-14.86 352.15,-16.89 352.15,-16.89 C350.75,-18.13 346.02,-19.11 343.15,-19.07 C338.17,-18.95 327.07,-17.24 322.01,-15.91 C316.20,-14.36 311.26,-11.82 310.21,-10.37 C310.21,-10.37 310.35,-8.34 310.35,-8.34 C312.22,-6.43 315.49,-5.76 315.50,-5.66 C315.66,-3.35 318.67,0.40 320.99,1.71 C323.33,2.99 329.10,4.16 331.58,4.30 C342.55,4.83 353.47,0.68 354.55,-0.35 C354.55,-0.35 354.41,-2.18 354.41,-2.18 C353.23,-3.52 349.75,-5.37 346.36,-6.15 C341.26,-7.29 329.46,-7.09 325.62,-6.57 C321.15,-5.94 318.69,-5.08 317.57,-4.54 C317.57,-4.54 316.56,-2.69 316.56,-2.69 C317.66,-0.62 318.52,0.54 319.79,1.40 C322.61,3.28 327.81,5.12 330.75,5.64 C333.52,6.11 336.14,6.38 340.81,6.46 C344.69,6.52 350.15,6.11 352.66,4.96 C352.34,3.52 351.89,2.63 350.87,1.85 C348.72,0.24 343.20,-2.19 339.35,-3.13 C332.85,-4.69 324.88,-4.65 322.81,-3.81 C323.49,-1.66 324.18,-0.61 325.63,0.07 C328.56,1.42 335.27,2.54 338.68,2.49 C342.34,2.39 343.85,1.89 345.45,1.06 C345.26,-0.40 344.83,-1.34 343.68,-2.17 C340.01,-4.83 330.14,-8.30 324.08,-9.25 C318.04,-10.17 306.26,-10.58 301.53,-10.24 C294.41,-9.68 283.36,-6.38 278.28,-3.41 C276.91,-2.59 275.76,-1.75 274.89,-0.91 C274.26,-0.24 273.62,2.01 273.95,3.20 C274.32,4.43 276.33,6.82 277.40,7.55 C279.89,9.13 285.76,10.97 289.25,11.10 C292.34,11.20 297.93,10.35 299.02,10.09 C301.15,9.55 308.80,6.80 311.85,5.28 C314.70,3.83 316.02,2.57 316.70,1.68 C316.70,1.68 316.48,-0.74 316.48,-0.74 C314.93,-2.28 310.46,-4.04 306.36,-4.29 C302.62,-4.49 292.95,-2.53 287.55,-0.63 C283.19,0.93 276.92,4.35 274.85,6.13 C274.85,6.13 274.38,8.65 274.38,8.65 C275.80,10.07 280.49,11.53 284.94,11.69 C288.96,11.80 299.17,9.72 303.07,8.22 C307.18,6.62 310.63,4.29 311.24,2.68 C310.20,0.71 309.21,-0.26 307.50,-0.87 C303.54,-2.27 292.45,-2.37 287.65,-1.43 C285.59,-1.02 280.41,0.48 278.86,1.23 C275.83,2.74 274.53,4.04 273.73,5.26 C273.73,5.26 274.68,8.11 274.68,8.11 C277.18,9.58 282.90,10.16 285.81,9.78 C295.72,8.34 306.05,3.32 307.47,2.09 C305.99,0.54 304.81,0.00 302.64,0.19 C296.67,0.71 288.83,2.99 284.96,4.40 C283.31,5.00 282.71,5.49 282.30,6.38 C284.16,7.29 285.77,7.79 287.53,7.81 C297.06,7.87 311.50,2.52 312.72,1.72 C311.75,0.14 310.85,-0.52 309.16,-0.67 C305.36,-0.97 301.30,-0.88 299.76,-0.27 C299.39,-0.12 298.56,0.27 297.27,0.91" fill="none" stroke="rgb(67, 224, 232)" stroke-width="3.13" stroke-opacity="1.00" stroke-linejoin="round"/>
<path d="M-31.20,97.91 C-31.20,97.91 -31.45,97.42 -31.45,97.42 C-31.67,109.26 -32.10,143.46 -31.79,146.93 C-30.38,162.66 -33.30,216.63 -33.43,218.07 C-33.47,218.48 -33.54,219.12 -33.65,219.98" fill="none" stroke="rgb(232, 159, 67)" stroke-width="3.13" stroke-opacity="1.00" stroke-linejoin="round"/>
<path d="M-30.47,216.31 C-30.47,216.31 -31.39,216.87 -31.39,216.87 C-31.72,217.65 -31.64,223.97 -31.13,226.94 C-30.50,230.55 -28.35,247.39 -28.41,253.49 C-28.69,267.69 -28.11,288.58 -29.48,304.83 C-30.39,316.92 -35.31,352.19 -35.38,352.85 C-35.79,358.13 -36.58,366.68 -37.52,368.32 C-37.52,368.32 -37.81,367.74 -37.81,367.74" fill="none" stroke="rgb(232, 159, 67)" stroke-width="3.13" stroke-opacity="1.00" stroke-linejoin="round"/>
<path d="M12.83,205.30 C12.83,205.30 12.47,205.30 12.47,205.30 C12.14,204.93 11.85,209.96 11.82,215.79 C11.85,228.67 14.38,271.93 13.47,295.34 C13.31,298.91 12.82,311.14 13.56,319.76 C14.16,326.72 14.61,340.08 15.08,343.81 C15.48,346.87 18.08,360.84 18.45,364.69 C18.45,364.69 18.21,363.34 18.21,363.34" fill="none" stroke="rgb(232, 159, 67)" stroke-width="3.13" stroke-opacity="1.00" stroke-linejoin="round"/>
<path d="M11.61,207.02 C11.68,204.85 15.04,199.12 17.42,196.48 C20.25,193.41 23.34,191.04 26.09,189.73 C32.58,186.68 42.90,184.18 49.66,183.67 C58.23,183.17 61.76,181.87 63.80,180.96 C63.80,180.96 64.20,181.09 64.20,181.09" fill="none" stroke="rgb(232, 159, 67)" stroke-width="3.13" stroke-opacity="1.00" stroke-linejoin="round"/>
<path d="M55.40,184.27 C55.40,184.27 54.54,184.69 54.54,184.69 C54.42,185.98 56.38,189.76 58.29,190.91 C61.50,192.78 65.94,194.08 66.75,193.63 C68.65,192.36 67.15,186.39 66.50,184.77 C66.17,183.96 64.76,181.45 64.34,180.68" fill="none" stroke="rgb(232, 159, 67)" stroke-width="3.13" stroke-opacity="1.00" stroke-linejoin="round"/>
<path d="M29.22,178.40 C29.22,178.40 29.22,178.52 29.22,178.52 C29.43,178.60 29.67,178.60 29.94,178.52 C30.42,178.38 38.20,175.20 41.20,174.47 C47.15,173.05 65.05,170.91 68.67,170.02 C71.09,169.40 76.12,166.70 76.32,166.66 C76.32,166.66 76.20,166.65 76.20,166.65" fill="none" stroke="rgb(232, 159, 67)" stroke-width="3.13" stroke-opacity="1.00" stroke-linejoin="round"/>
<path d="M66.16,179.86 C66.16,179.86 66.16,179.99 66.16,179.99 C66.22,180.05 67.57,179.74 72.99,174.28 C73.82,173.44 74.30,172.91 74.43,172.71 C74.59,172.45 74.74,172.02 74.88,171.40" fill="none" stroke="rgb(232, 159, 67)" stroke-width="3.13" stroke-opacity="1.00" stroke-linejoin="round"/>
<path d="M34.85,178.88 C34.91,176.86 36.76,173.57 38.93,171.37 C45.76,164.52 53.81,157.65 55.92,155.61 C56.77,154.79 66.69,145.01 72.31,137.60 C73.09,136.57 75.35,133.70 75.39,133.63 C75.57,133.39 75.89,132.96 76.33,132.33" fill="none" stroke="rgb(232, 159, 67)" stroke-width="3.13" stroke-opacity="1.00" stroke-linejoin="round"/>
<path d="M68.85,126.04 C67.64,126.92 60.20,138.33 54.57,144.55 C49.94,149.88 41.28,159.41 37.25,163.61 C33.10,168.26 28.10,172.38 22.28,176.34 C19.24,178.37 14.39,181.50 12.58,182.61 C12.41,182.72 12.27,182.84 12.15,182.98" fill="none" stroke="rgb(232, 159, 67)" stroke-width="3.13" stroke-opacity="1.00" stroke-linejoin="round"/>
<path d="M26.29,93.02 C26.29,93.02 26.29,92.78 26.29,92.78 C27.25,94.57 27.60,108.37 26.78,114.90 C25.93,121.05 24.17,131.40 21.58,140.87 C18.57,151.71 16.15,158.33 11.96,168.42 C2.93,191.36 2.23,193.48 2.23,193.59 C2.23,193.59 8.31,187.06 8.31,187.06" fill="none" stroke="rgb(232, 159, 67)" stroke-width="3.13" stroke-opacity="1.00" stroke-linejoin="round"/>
<path d="M22.62,91.80 C22.62,91.80 22.62,91.55 22.62,91.55 C22.67,91.96 17.61,105.04 15.39,111.36 C13.74,116.51 11.73,125.82 11.06,132.83 C10.73,136.65 10.55,147.44 10.48,148.98 C10.31,152.27 8.91,160.54 8.65,161.87 C7.92,165.53 5.71,171.86 3.77,174.77 C2.08,177.26 -2.05,181.21 -4.05,182.56 C-4.54,182.88 -5.03,183.21 -5.51,183.53" fill="none" stroke="rgb(232, 159, 67)" stroke-width="3.13" stroke-opacity="1.00" stroke-linejoin="round"/>
<path d="M-19.70,94.00 C-19.70,94.00 -19.95,94.00 -19.95,94.00 C-19.29,94.30 -18.44,96.07 -17.92,99.49 C-17.46,102.46 -11.26,128.22 -7.89,145.93 C-7.09,150.20 -6.66,160.27 -7.01,168.88 C-7.51,178.25 -7.91,181.70 -8.05,181.90 C-8.15,182.06 -8.53,182.52 -9.18,183.29" fill="none" stroke="rgb(232, 159, 67)" stroke-width="3.13" stroke-opacity="1.00" stroke-linejoin="round"/>
<path d="M11.12,121.15 C11.16,120.83 10.75,119.95 9.92,117.55 C9.47,116.26 7.81,114.08 6.31,113.06 C2.69,110.71 -3.42,110.45 -4.30,110.59 C-5.50,111.67 -5.83,116.80 -5.17,119.73 C-4.57,122.24 -2.96,126.14 -1.05,128.89 C0.78,131.46 4.39,134.10 5.60,134.68 C5.98,134.86 6.51,135.02 7.19,135.16" fill="none" stroke="rgb(232, 159, 67)" stroke-width="3.13" stroke-opacity="1.00" stroke-linejoin="round"/>
<path d="M29.96,107.21 C29.10,106.48 29.38,103.72 30.63,102.23 C31.77,100.93 34.53,99.22 37.20,98.86 C37.99,98.76 46.65,98.28 47.99,98.90 C48.48,99.14 49.43,99.98 49.63,100.18 C49.66,100.58 40.26,115.48 39.33,116.76 C37.32,119.51 33.83,121.46 32.48,121.84 C31.89,122.00 29.47,122.44 28.63,122.60" fill="none" stroke="rgb(232, 159, 67)" stroke-width="3.13" stroke-opacity="1.00" stroke-linejoin="round"/>
<path d="M48.79,148.80 C48.79,148.80 46.56,148.64 46.56,148.64 C45.48,146.32 44.50,142.74 44.40,139.92 C44.35,136.45 45.20,131.36 46.50,129.49 C46.90,128.95 48.20,127.97 48.80,127.67 C49.37,127.43 52.48,129.67 54.60,131.83 C55.34,132.60 57.44,135.03 58.27,135.99 C58.72,136.53 59.18,137.06 59.63,137.60" fill="none" stroke="rgb(232, 159, 67)" stroke-width="3.13" stroke-opacity="1.00" stroke-linejoin="round"/>
<path d="M70.81,142.92 C70.81,142.92 70.57,143.05 70.57,143.05 C70.55,143.75 72.24,145.55 74.06,146.25 C75.66,146.85 79.84,147.11 81.16,146.82 C84.19,146.11 90.28,142.87 91.66,141.41 C93.19,139.71 95.31,133.22 95.40,131.99 C95.40,131.37 92.68,129.91 89.65,129.54 C87.72,129.33 85.27,129.44 82.88,129.80 C82.04,129.93 81.19,130.07 80.35,130.20" fill="none" stroke="rgb(232, 159, 67)" stroke-width="3.13" stroke-opacity="1.00" stroke-linejoin="round"/>
<path d="M8.40,8.48 C8.28,8.50 8.17,8.51 8.07,8.52 C7.87,8.55 -0.21,19.96 -1.85,22.00 C-8.25,29.74 -14.40,36.23 -14.94,38.07 C-15.34,39.64 -14.70,43.34 -13.02,47.64 C-11.19,52.28 -6.51,61.02 -3.10,65.76 C2.21,72.98 6.96,80.30 6.94,80.64 C6.81,81.74 -2.06,93.81 -2.70,95.73 C-1.93,96.05 2.20,93.93 8.05,88.87 C14.40,83.46 21.26,77.41 21.22,76.53 C21.02,74.87 7.22,58.85 6.24,57.66 C3.57,54.15 -5.32,43.70 -5.42,43.52 C-5.42,43.52 1.18,31.28 2.85,26.41 C6.01,17.16 6.89,13.49 7.30,11.68 C7.32,11.58 7.39,11.36 7.51,10.99" fill="none" stroke="rgb(135, 133, 188)" stroke-width="3.13" stroke-opacity="1.00" stroke-linejoin="round"/>
<path d="M50.16,-4.96 C50.16,-4.96 50.34,-4.96 50.34,-4.96 C50.33,-4.96 52.08,-4.10 53.90,-1.39 C56.14,1.97 59.22,5.93 59.53,6.37 C60.02,7.14 58.33,12.52 57.97,14.18 C57.46,16.53 56.79,21.43 56.81,21.37 C56.81,21.37 72.33,25.09 72.33,25.09 C72.33,25.09 64.19,16.30 64.19,16.30 C64.19,16.30 68.79,2.04 68.79,2.04 C67.05,-0.95 51.75,-4.83 51.72,-4.84 C51.64,-4.87 51.42,-4.97 51.06,-5.14" fill="none" stroke="rgb(135, 133, 188)" stroke-width="3.13" stroke-opacity="1.00" stroke-linejoin="round"/>
</g>
</svg>
