<?xml version="1.0" encoding="UTF-8" standalone="no"?>
<!DOCTYPE svg PUBLIC "-//W3C//DTD SVG 1.1//EN" "http://www.w3.org/Graphics/SVG/1.1/DTD/svg11.dtd">
<svg width="64.20" height="90.84" viewBox="0.00 0.00 535.00 757.00" xmlns="http://www.w3.org/2000/svg" xmlns:xlink="http://www.w3.org/1999/xlink">
<g stroke-linecap="round" id="190">
<path d="M145.24,626.15 C145.21,625.99 145.18,625.88 145.13,625.81 C144.74,625.26 141.11,623.19 140.26,622.13 C139.79,621.55 138.34,619.36 137.74,618.77 C137.33,618.36 134.97,616.46 134.53,615.93 C132.93,613.99 131.75,609.61 131.54,607.69 C131.20,604.26 132.78,593.36 134.11,590.17 C135.69,586.42 138.33,582.18 139.56,580.65 C141.01,578.91 144.06,577.03 146.22,576.22 C148.51,575.39 152.31,574.51 154.67,574.32 C157.09,574.15 164.41,574.91 167.39,575.85 C170.34,576.81 174.19,579.20 175.88,580.60 C177.46,581.92 181.84,587.06 183.55,589.26 C185.22,591.44 187.16,595.14 187.53,596.70 C187.91,598.47 187.59,602.18 186.82,604.32 C186.01,606.48 183.37,610.41 181.44,612.33 C179.58,614.13 174.51,618.25 171.97,619.43 C169.59,620.52 167.22,621.03 165.92,621.20 C165.92,621.20 165.46,620.53 165.46,620.53" fill="none" stroke="rgb(0, 255, 0)" stroke-width="3.26" stroke-opacity="1.00" stroke-linejoin="round"/>
<path d="M164.12,620.08 C164.42,619.80 169.89,617.04 170.50,616.67 C170.73,616.53 175.71,612.52 176.56,611.02 C178.08,608.28 180.75,601.43 180.85,599.07 C180.98,595.24 179.92,591.18 179.19,590.06 C178.44,588.96 175.69,586.74 174.02,586.00 C170.68,584.55 161.27,583.94 157.31,584.73 C154.41,585.33 140.61,591.49 139.26,593.01 C138.17,594.30 136.70,598.01 136.35,600.26 C136.03,602.48 136.29,606.75 136.80,608.56 C137.40,610.63 139.62,614.05 141.40,615.57 C143.17,617.03 147.48,619.08 150.15,619.49 C155.72,620.28 161.64,618.81 164.32,617.81 C165.11,617.49 165.81,616.64 166.81,615.36" fill="none" stroke="rgb(0, 255, 0)" stroke-width="3.26" stroke-opacity="1.00" stroke-linejoin="round"/>
<path d="M140.30,596.94 C140.30,596.94 140.19,596.94 140.19,596.94 C140.89,594.85 143.27,594.14 143.75,594.15 C143.75,594.15 147.21,597.53 147.21,597.53 C147.21,597.53 150.33,593.86 150.33,593.86 C152.10,594.70 152.93,595.04 153.22,594.94 C155.19,594.25 159.93,592.69 160.72,592.78 C161.07,592.83 162.54,593.77 163.05,593.50 C165.35,592.26 166.50,591.93 167.72,592.45 C168.58,592.83 170.47,592.24 171.18,592.76 C171.39,592.92 172.00,593.38 172.64,593.59 C174.65,592.90 177.00,593.14 177.41,593.12 C177.52,593.11 177.61,593.08 177.68,593.03 C177.68,593.03 176.17,588.96 176.17,588.96 C176.17,588.96 175.34,590.74 175.34,590.74 C175.15,590.67 173.73,589.43 173.04,589.45 C172.31,589.52 171.80,590.29 171.24,591.67 C171.24,591.67 169.95,589.13 169.95,589.13 C169.95,589.13 169.40,591.70 169.40,591.70 C169.40,591.70 167.41,589.22 167.41,589.22 C167.41,589.22 165.29,592.16 165.29,592.16 C165.29,592.16 164.55,588.59 164.55,588.59 C164.55,588.59 161.95,590.63 161.95,590.63 C161.95,590.63 161.96,589.01 161.96,589.01 C161.96,589.01 157.45,591.79 157.45,591.79 C157.45,591.79 158.20,588.90 158.20,588.90 C158.20,588.90 150.58,593.21 150.58,593.21 C150.58,593.21 153.30,589.26 153.30,589.26 C153.30,589.26 146.79,592.90 146.79,592.90 C146.79,592.90 154.69,587.40 154.69,587.40 C154.69,587.40 149.23,592.57 149.23,592.57 C149.23,592.57 157.47,587.83 157.47,587.83 C157.47,587.83 157.07,589.61 157.07,589.61 C157.07,589.61 160.99,585.71 160.99,585.71 C160.99,585.71 163.14,588.56 163.14,588.56 C163.14,588.56 164.19,586.96 164.19,586.96 C164.19,586.96 168.70,590.72 168.70,590.72 C168.70,590.72 170.07,588.23 170.07,588.23 C170.07,588.23 172.22,592.29 172.22,592.29 C172.22,592.29 173.07,588.72 173.07,588.72 C173.07,588.72 174.03,591.53 174.03,591.53 C174.32,590.48 173.29,588.87 172.17,588.40 C169.22,587.27 156.91,590.20 149.30,592.64 C148.41,592.92 144.09,594.38 143.50,594.62 C143.34,594.69 143.25,594.71 143.23,594.69" fill="none" stroke="rgb(0, 255, 0)" stroke-width="3.26" stroke-opacity="1.00" stroke-linejoin="round"/>
<path d="M146.81,602.11 C146.81,602.03 146.81,601.99 146.81,601.99 C146.90,601.22 148.43,599.15 149.87,598.51 C152.73,597.29 156.87,599.85 156.89,599.86 C156.91,599.86 157.00,599.86 157.15,599.86" fill="none" stroke="rgb(0, 255, 0)" stroke-width="3.26" stroke-opacity="1.00" stroke-linejoin="round"/>
<path d="M169.51,601.43 C169.32,601.43 169.13,601.43 168.95,601.43 C168.91,601.43 168.87,601.43 168.83,601.43 C168.94,600.27 169.81,598.65 170.64,598.34 C172.72,597.64 175.22,600.81 175.29,601.06 C175.30,601.11 175.32,601.23 175.35,601.43" fill="none" stroke="rgb(0, 255, 0)" stroke-width="3.26" stroke-opacity="1.00" stroke-linejoin="round"/>
<path d="M154.68,610.42 C154.68,610.42 154.91,612.40 154.91,612.40 C155.60,612.95 157.58,613.21 158.37,612.95 C159.44,612.55 161.64,609.85 162.46,608.12 C162.49,608.07 162.55,607.92 162.53,607.97" fill="none" stroke="rgb(0, 255, 0)" stroke-width="3.26" stroke-opacity="1.00" stroke-linejoin="round"/>
<path d="M145.92,627.27 C145.92,627.27 145.69,627.27 145.69,627.27 C145.69,627.27 145.78,627.05 145.78,627.05 C146.77,627.49 148.93,629.38 151.49,632.95 C152.60,634.49 153.96,634.72 154.79,633.84 C156.40,631.97 158.90,629.11 161.00,627.02 C160.81,627.03 157.81,627.56 156.55,626.59 C156.19,626.30 155.47,624.76 155.44,624.38 C155.43,624.18 155.46,623.77 155.55,623.16" fill="none" stroke="rgb(0, 255, 0)" stroke-width="3.26" stroke-opacity="1.00" stroke-linejoin="round"/>
<path d="M145.69,622.10 C145.69,622.10 145.47,622.16 145.47,622.16 C145.47,625.65 145.30,625.85 145.27,625.92 C145.25,625.95 145.24,626.00 145.24,626.09" fill="none" stroke="rgb(0, 255, 0)" stroke-width="3.26" stroke-opacity="1.00" stroke-linejoin="round"/>
<path d="M143.22,625.92 C143.25,625.86 140.64,626.87 139.55,627.20 C138.00,627.65 132.56,627.09 131.38,626.04 C126.62,621.62 116.29,603.07 113.51,596.34 C112.28,593.45 109.71,589.48 108.54,588.86 C108.25,588.73 102.36,591.38 101.92,591.71 C101.37,592.84 102.09,597.52 103.35,601.27 C105.17,606.59 111.38,620.11 115.31,625.35 C116.59,627.03 129.72,640.51 130.17,640.76 C128.63,654.75 124.02,678.75 121.99,690.53 C121.78,691.60 120.66,696.78 120.94,697.25 C121.52,698.12 123.30,698.84 127.42,699.31 C128.65,699.45 141.62,703.68 147.45,704.65 C151.83,705.36 161.89,704.81 165.70,703.99 C174.47,702.06 176.45,700.10 176.43,700.12 C176.43,700.12 175.80,699.17 175.80,699.17" fill="none" stroke="rgb(0, 255, 0)" stroke-width="3.26" stroke-opacity="1.00" stroke-linejoin="round"/>
<path d="M161.42,622.33 C161.42,622.33 160.97,622.55 160.97,622.55 C160.99,623.07 163.82,624.56 166.09,624.81 C168.13,625.01 172.63,625.02 174.96,624.84 C177.32,624.63 181.46,623.39 183.78,622.20 C187.62,620.20 195.11,614.06 198.87,609.66 C201.33,606.68 203.63,603.68 204.83,601.25 C205.82,599.19 210.96,585.34 212.12,584.19 C212.12,584.19 222.81,584.32 222.81,584.32 C223.40,585.74 221.06,594.42 218.62,599.03 C216.06,603.78 206.82,614.81 201.81,620.05 C194.48,627.62 188.86,632.77 184.54,636.04 C182.62,637.41 179.40,639.76 178.75,641.42 C178.06,643.32 177.51,691.39 177.43,693.04 C177.21,697.48 176.73,700.68 176.75,700.95 C176.76,701.09 176.82,701.40 176.92,701.87" fill="none" stroke="rgb(0, 255, 0)" stroke-width="3.26" stroke-opacity="1.00" stroke-linejoin="round"/>
<path d="M101.20,591.77 C101.23,591.80 97.06,589.59 95.46,588.73 C94.81,588.33 94.15,586.40 94.48,585.88 C94.89,585.27 96.59,584.46 97.19,584.52 C98.61,584.70 99.46,586.19 99.33,586.38 C98.02,582.99 99.42,580.90 99.76,580.82 C99.76,580.82 102.04,582.76 102.04,582.76 C102.45,580.99 103.73,580.01 104.50,580.39 C105.11,580.75 106.54,583.26 106.91,584.17 C107.03,584.46 107.26,585.10 107.61,586.08" fill="none" stroke="rgb(0, 255, 0)" stroke-width="3.26" stroke-opacity="1.00" stroke-linejoin="round"/>
<path d="M214.67,583.91 C214.41,583.86 213.66,583.48 213.35,583.01 C212.36,581.50 212.13,576.96 213.07,575.73 C213.98,574.66 216.63,578.11 216.72,578.16 C216.72,578.16 219.39,572.94 219.39,572.94 C219.39,572.94 221.22,575.28 221.22,575.28 C223.32,574.38 224.90,574.82 225.38,574.64 C227.64,573.83 228.33,573.75 228.66,574.35 C229.45,576.09 226.40,581.56 225.03,582.67 C224.66,582.96 222.94,583.83 221.86,584.36" fill="none" stroke="rgb(0, 255, 0)" stroke-width="3.26" stroke-opacity="1.00" stroke-linejoin="round"/>
<path d="M153.11,637.16 C153.11,637.16 152.88,637.16 152.88,637.16 C152.87,637.06 152.69,639.11 152.66,639.87 C152.61,641.36 153.98,642.84 155.00,642.88 C155.92,642.88 157.53,641.00 157.92,639.81 C158.20,638.92 157.43,637.31 156.04,637.12 C155.63,637.07 154.08,637.47 153.55,637.61" fill="none" stroke="rgb(0, 255, 0)" stroke-width="3.26" stroke-opacity="1.00" stroke-linejoin="round"/>
<path d="M153.11,649.07 C152.33,649.23 151.11,650.07 150.93,651.23 C150.76,652.68 152.01,654.46 153.23,654.34 C154.43,654.18 156.21,651.91 156.38,650.69 C156.44,650.13 156.05,649.59 155.18,648.82 C155.18,648.82 153.68,648.77 153.68,648.77" fill="none" stroke="rgb(0, 255, 0)" stroke-width="3.26" stroke-opacity="1.00" stroke-linejoin="round"/>
<path d="M150.63,670.64 C150.63,670.64 149.07,670.00 149.07,670.00 C149.07,670.00 148.89,673.25 148.89,673.25 C149.89,673.83 151.93,673.25 152.53,672.27 C153.10,671.22 152.51,670.35 151.65,669.49 C151.65,669.49 150.31,669.48 150.31,669.48" fill="none" stroke="rgb(0, 255, 0)" stroke-width="3.26" stroke-opacity="1.00" stroke-linejoin="round"/>
<path d="M148.84,683.89 C148.08,684.18 146.55,684.81 146.29,686.22 C145.99,688.07 147.07,689.82 148.27,689.85 C149.14,689.38 149.76,687.48 149.08,685.77 C149.08,685.77 148.01,685.64 148.01,685.64" fill="none" stroke="rgb(0, 255, 0)" stroke-width="3.26" stroke-opacity="1.00" stroke-linejoin="round"/>
<path d="M125.92,702.77 C125.91,703.65 125.93,704.50 126.03,705.05 C126.56,708.01 126.92,712.61 126.68,713.62 C126.19,715.54 122.76,720.06 122.47,720.85 C122.11,721.89 122.87,724.04 124.24,724.50 C125.47,724.84 132.18,722.97 134.11,722.58 C137.05,721.98 138.61,720.80 138.88,719.55 C139.15,718.24 140.74,705.97 140.74,705.68 C140.74,705.68 140.53,705.47 140.53,705.47" fill="none" stroke="rgb(0, 255, 0)" stroke-width="3.26" stroke-opacity="1.00" stroke-linejoin="round"/>
<path d="M127.04,719.17 C127.04,719.17 126.85,719.17 126.85,719.17 C131.32,718.18 137.66,718.03 137.84,718.05 C138.00,718.06 138.31,718.12 138.79,718.22" fill="none" stroke="rgb(0, 255, 0)" stroke-width="3.26" stroke-opacity="1.00" stroke-linejoin="round"/>
<path d="M152.88,707.26 C152.88,707.26 152.32,707.26 152.32,707.26 C152.32,707.26 152.21,707.37 152.21,707.37 C152.27,707.87 154.99,713.60 155.18,714.07 C155.59,715.08 156.94,721.51 157.57,722.03 C158.68,722.82 173.28,723.90 175.33,723.19 C176.95,722.58 177.65,720.34 177.08,719.17 C175.94,717.05 172.17,716.55 169.99,716.60 C169.66,716.10 169.65,710.44 169.64,709.66 C169.58,706.83 169.40,705.55 169.11,705.50 C169.11,705.50 168.83,705.46 168.83,705.46" fill="none" stroke="rgb(0, 255, 0)" stroke-width="3.26" stroke-opacity="1.00" stroke-linejoin="round"/>
<path d="M169.51,718.27 C169.29,718.28 168.85,718.24 168.59,718.18 C166.81,717.78 159.25,719.19 157.18,719.51 C157.18,719.51 157.37,719.62 157.37,719.62" fill="none" stroke="rgb(0, 255, 0)" stroke-width="3.26" stroke-opacity="1.00" stroke-linejoin="round"/>
<path d="M60.28,161.01 C60.28,161.01 59.69,160.41 59.69,160.41 C59.64,161.50 59.64,162.31 59.69,162.85 C59.73,163.40 59.87,164.43 60.11,165.96" fill="none" stroke="rgb(33, 40, 228)" stroke-width="3.26" stroke-opacity="1.00" stroke-linejoin="round"/>
<path d="M45.42,205.59 C45.51,208.88 45.37,213.50 44.99,219.02 C44.46,226.56 43.03,234.43 43.08,235.03 C43.10,235.37 43.23,236.11 43.47,237.27" fill="none" stroke="rgb(33, 40, 228)" stroke-width="3.26" stroke-opacity="1.00" stroke-linejoin="round"/>
<path d="M34.72,283.47 C34.78,293.85 34.58,302.85 33.68,310.08 C33.45,311.89 32.83,316.72 32.93,317.51 C33.00,318.00 33.29,318.63 33.82,319.40" fill="none" stroke="rgb(33, 40, 228)" stroke-width="3.26" stroke-opacity="1.00" stroke-linejoin="round"/>
<path d="M32.93,377.99 C31.91,381.11 31.81,387.67 31.74,391.33 C31.50,398.10 31.24,406.01 31.26,418.15 C31.14,427.29 30.13,437.23 30.11,438.07 C30.08,439.33 30.20,441.09 30.34,442.09" fill="none" stroke="rgb(33, 40, 228)" stroke-width="3.26" stroke-opacity="1.00" stroke-linejoin="round"/>
<path d="M34.72,478.46 C34.72,478.46 34.12,478.46 34.12,478.46 C34.50,486.50 35.27,501.84 36.33,507.03 C36.99,510.10 38.85,518.42 38.99,518.86 C39.13,519.32 39.49,520.31 40.07,521.85" fill="none" stroke="rgb(33, 40, 228)" stroke-width="3.26" stroke-opacity="1.00" stroke-linejoin="round"/>
<path d="M49.58,564.66 C49.58,564.66 48.98,564.66 48.98,564.66 C48.49,565.83 48.27,566.90 48.31,568.85 C49.04,588.91 48.93,602.09 48.98,602.74 C49.03,603.23 49.18,604.31 49.44,605.99" fill="none" stroke="rgb(33, 40, 228)" stroke-width="3.26" stroke-opacity="1.00" stroke-linejoin="round"/>
<path d="M54.93,656.80 C54.93,656.80 54.34,657.10 54.34,657.10 C54.34,657.10 56.12,676.53 56.12,676.53 C56.12,676.53 56.71,675.82 56.71,675.82" fill="none" stroke="rgb(33, 40, 228)" stroke-width="3.26" stroke-opacity="1.00" stroke-linejoin="round"/>
<path d="M121.51,168.14 C121.17,168.91 120.98,169.45 120.92,169.78 C120.82,170.28 120.79,174.54 120.32,175.87" fill="none" stroke="rgb(33, 40, 228)" stroke-width="3.26" stroke-opacity="1.00" stroke-linejoin="round"/>
<path d="M119.13,209.16 C119.13,209.61 119.13,210.07 119.13,210.52 C119.10,214.85 119.21,220.42 119.45,224.20 C119.74,228.62 119.68,229.00 119.34,229.69" fill="none" stroke="rgb(33, 40, 228)" stroke-width="3.26" stroke-opacity="1.00" stroke-linejoin="round"/>
<path d="M118.54,249.58 C118.53,249.87 118.56,253.36 118.54,254.20 C118.48,256.59 118.08,258.94 118.01,259.42 C117.98,259.63 117.96,260.12 117.94,260.88" fill="none" stroke="rgb(33, 40, 228)" stroke-width="3.26" stroke-opacity="1.00" stroke-linejoin="round"/>
<path d="M115.57,298.93 C115.57,299.92 115.56,301.93 115.54,302.63 C115.46,304.89 114.32,333.27 114.38,333.68 C114.44,334.12 114.64,335.21 114.97,336.97" fill="none" stroke="rgb(33, 40, 228)" stroke-width="3.26" stroke-opacity="1.00" stroke-linejoin="round"/>
<path d="M110.22,370.86 C110.22,379.30 108.12,398.24 108.08,398.72 C108.00,399.66 107.98,400.60 107.84,401.53 C107.78,401.90 107.64,402.44 107.41,403.15" fill="none" stroke="rgb(33, 40, 228)" stroke-width="3.26" stroke-opacity="1.00" stroke-linejoin="round"/>
<path d="M100.11,466.57 C98.68,468.16 97.70,471.91 96.95,477.92 C96.00,485.74 95.09,499.85 95.35,501.71 C95.40,502.00 95.53,502.51 95.76,503.24" fill="none" stroke="rgb(33, 40, 228)" stroke-width="3.26" stroke-opacity="1.00" stroke-linejoin="round"/>
<path d="M121.51,545.63 C121.28,548.36 120.58,556.40 120.43,557.79 C119.87,562.88 119.13,567.22 118.85,568.78 C118.85,568.78 119.38,568.96 119.38,568.96" fill="none" stroke="rgb(33, 40, 228)" stroke-width="3.26" stroke-opacity="1.00" stroke-linejoin="round"/>
<path d="M141.13,520.67 C141.13,520.67 140.83,520.67 140.83,520.67 C140.18,521.01 139.82,525.42 139.86,527.68 C139.95,531.20 141.67,543.98 141.84,545.22 C141.84,545.22 142.91,544.44 142.91,544.44" fill="none" stroke="rgb(33, 40, 228)" stroke-width="3.26" stroke-opacity="1.00" stroke-linejoin="round"/>
<path d="M156.59,536.72 C156.59,536.87 156.59,538.60 156.59,539.89 C156.60,542.09 161.33,557.12 161.94,559.29 C161.94,559.29 161.94,558.41 161.94,558.41" fill="none" stroke="rgb(33, 40, 228)" stroke-width="3.26" stroke-opacity="1.00" stroke-linejoin="round"/>
<path d="M201.17,156.85 C200.67,158.48 200.48,159.72 200.53,161.53 C200.57,163.38 200.58,166.18 200.58,168.13 C200.58,168.73 200.58,169.33 200.58,169.92" fill="none" stroke="rgb(33, 40, 228)" stroke-width="3.26" stroke-opacity="1.00" stroke-linejoin="round"/>
<path d="M199.39,201.43 C199.29,201.33 199.19,201.23 199.09,201.13 C198.99,201.03 198.89,200.94 198.79,200.84 C198.70,200.84 196.96,200.87 196.49,201.39 C194.67,203.46 192.13,210.20 191.08,213.54 C188.21,222.88 183.54,246.41 182.37,249.79 C182.02,250.74 181.68,251.70 181.34,252.66" fill="none" stroke="rgb(33, 40, 228)" stroke-width="3.26" stroke-opacity="1.00" stroke-linejoin="round"/>
<path d="M177.39,301.90 C177.42,302.16 176.73,306.62 176.73,308.51 C176.95,334.83 177.78,342.28 178.03,366.28 C178.03,366.28 179.43,365.71 179.43,365.71" fill="none" stroke="rgb(33, 40, 228)" stroke-width="3.26" stroke-opacity="1.00" stroke-linejoin="round"/>
<path d="M179.77,439.82 C179.77,439.82 178.88,440.31 178.88,440.31 C178.50,442.42 178.60,450.59 178.83,452.48 C179.75,458.96 182.23,476.61 183.24,480.06 C183.24,480.06 183.34,479.85 183.34,479.85" fill="none" stroke="rgb(33, 40, 228)" stroke-width="3.26" stroke-opacity="1.00" stroke-linejoin="round"/>
<path d="M259.43,188.95 C259.43,188.95 259.43,188.35 259.43,188.35 C259.43,188.35 259.76,188.35 259.76,188.35" fill="none" stroke="rgb(33, 40, 228)" stroke-width="3.26" stroke-opacity="1.00" stroke-linejoin="round"/>
<path d="M286.78,181.81 C286.78,181.81 285.59,181.81 285.59,181.81 C285.59,181.81 285.59,182.71 285.59,182.71" fill="none" stroke="rgb(33, 40, 228)" stroke-width="3.26" stroke-opacity="1.00" stroke-linejoin="round"/>
<path d="M274.89,246.02 C274.85,248.92 277.53,286.94 277.73,288.36 C277.77,288.66 277.81,289.05 277.85,289.53" fill="none" stroke="rgb(33, 40, 228)" stroke-width="3.26" stroke-opacity="1.00" stroke-linejoin="round"/>
<path d="M266.56,285.85 C265.33,285.73 263.96,286.77 262.43,289.26 C261.14,291.36 245.56,320.94 240.57,332.77 C239.49,335.35 228.56,372.01 228.37,372.72 C227.80,374.90 228.23,378.24 228.39,379.87" fill="none" stroke="rgb(33, 40, 228)" stroke-width="3.26" stroke-opacity="1.00" stroke-linejoin="round"/>
<path d="M251.70,496.89 C251.54,500.22 253.07,533.67 253.35,546.58 C253.41,548.52 253.47,556.33 253.48,558.44 C253.48,558.44 253.08,557.65 253.08,557.65" fill="none" stroke="rgb(33, 40, 228)" stroke-width="3.26" stroke-opacity="1.00" stroke-linejoin="round"/>
<path d="M209.49,537.90 C209.56,539.78 209.93,541.68 210.64,543.22 C210.84,543.64 212.21,545.98 212.94,547.23 C213.64,548.43 214.32,548.89 215.55,549.16" fill="none" stroke="rgb(33, 40, 228)" stroke-width="3.26" stroke-opacity="1.00" stroke-linejoin="round"/>
<path d="M268.94,583.68 C268.94,583.68 268.35,583.09 268.35,583.09 C267.84,585.96 267.69,587.44 267.71,589.73 C267.72,593.92 267.74,601.74 267.75,605.37 C267.73,611.09 267.03,615.22 266.04,619.65 C266.04,619.65 265.60,619.94 265.60,619.94" fill="none" stroke="rgb(33, 40, 228)" stroke-width="3.26" stroke-opacity="1.00" stroke-linejoin="round"/>
<path d="M306.39,140.79 C306.39,140.79 307.58,144.06 307.58,144.06 C307.58,144.06 308.18,144.36 308.18,144.36" fill="none" stroke="rgb(33, 40, 228)" stroke-width="3.26" stroke-opacity="1.00" stroke-linejoin="round"/>
<path d="M321.85,177.65 C321.85,177.16 321.85,176.66 321.85,176.17 C321.85,176.07 321.85,175.97 321.85,175.87 C321.03,180.10 320.59,201.47 320.89,204.23 C321.63,210.75 324.63,216.75 325.19,217.20 C325.49,217.43 326.08,217.55 326.95,217.57" fill="none" stroke="rgb(33, 40, 228)" stroke-width="3.26" stroke-opacity="1.00" stroke-linejoin="round"/>
<path d="M348.60,153.87 C348.60,153.87 348.01,153.87 348.01,153.87 C348.01,153.87 348.01,174.16 348.01,174.16 C348.01,174.16 348.60,174.09 348.60,174.09" fill="none" stroke="rgb(33, 40, 228)" stroke-width="3.26" stroke-opacity="1.00" stroke-linejoin="round"/>
<path d="M366.44,175.87 C366.44,175.87 364.65,175.27 364.65,175.27 C364.65,175.27 361.70,203.61 361.70,203.61 C361.70,203.61 361.68,202.45 361.68,202.45" fill="none" stroke="rgb(33, 40, 228)" stroke-width="3.26" stroke-opacity="1.00" stroke-linejoin="round"/>
<path d="M388.43,200.84 C388.99,202.06 391.78,207.41 392.24,210.34 C392.71,213.48 393.85,228.98 393.78,233.95 C393.78,234.01 393.78,234.17 393.78,234.12" fill="none" stroke="rgb(33, 40, 228)" stroke-width="3.26" stroke-opacity="1.00" stroke-linejoin="round"/>
<path d="M378.92,320.33 C378.92,320.33 378.92,319.73 378.92,319.73 C378.92,319.70 374.41,346.02 374.07,346.42 C373.90,346.61 373.45,346.96 372.72,347.48" fill="none" stroke="rgb(33, 40, 228)" stroke-width="3.26" stroke-opacity="1.00" stroke-linejoin="round"/>
<path d="M335.52,286.44 C335.52,286.44 335.52,285.85 335.52,285.85 C335.05,286.65 334.77,287.95 334.61,290.58 C334.13,304.46 332.67,330.91 331.92,344.52 C331.15,360.96 329.80,393.13 327.55,397.05 C327.45,397.22 327.14,397.60 326.61,398.20" fill="none" stroke="rgb(33, 40, 228)" stroke-width="3.26" stroke-opacity="1.00" stroke-linejoin="round"/>
<path d="M335.52,398.80 C333.37,398.80 328.44,398.83 327.40,399.49 C325.87,400.54 324.61,404.06 322.68,410.61 C321.33,415.10 319.83,418.42 318.28,420.79" fill="none" stroke="rgb(33, 40, 228)" stroke-width="3.26" stroke-opacity="1.00" stroke-linejoin="round"/>
<path d="M295.69,367.88 C294.87,368.66 294.37,369.19 294.21,369.48 C293.91,370.03 293.91,387.14 294.50,395.17 C294.82,399.06 298.75,437.14 298.70,440.66 C298.70,440.66 298.67,440.41 298.67,440.41" fill="none" stroke="rgb(33, 40, 228)" stroke-width="3.26" stroke-opacity="1.00" stroke-linejoin="round"/>
<path d="M269.54,442.19 C269.53,442.24 269.59,443.79 269.69,444.57 C269.91,446.25 276.58,463.15 279.39,470.49 C281.90,476.69 293.05,497.01 293.54,497.82 C297.41,504.18 305.26,512.67 311.25,518.00 C314.48,520.84 328.28,531.78 334.74,535.71 C341.34,539.62 350.18,544.86 351.46,545.53 C351.46,545.53 354.03,544.89 354.03,544.89" fill="none" stroke="rgb(33, 40, 228)" stroke-width="3.26" stroke-opacity="1.00" stroke-linejoin="round"/>
<path d="M313.53,505.80 C313.07,507.97 313.09,509.55 313.74,512.09 C314.71,515.95 315.24,519.60 315.31,520.37 C315.32,520.52 315.32,520.62 315.31,520.67" fill="none" stroke="rgb(33, 40, 228)" stroke-width="3.26" stroke-opacity="1.00" stroke-linejoin="round"/>
<path d="M336.12,558.71 C336.72,561.34 337.17,562.83 338.01,564.76 C340.14,569.68 342.40,576.07 343.32,580.10 C343.90,582.74 346.80,599.32 347.43,601.24 C347.52,601.50 347.67,601.90 347.89,602.42" fill="none" stroke="rgb(33, 40, 228)" stroke-width="3.26" stroke-opacity="1.00" stroke-linejoin="round"/>
<path d="M359.90,608.65 C359.08,609.12 358.58,609.59 358.41,610.03 C357.22,613.22 360.10,630.07 361.38,636.56 C362.06,640.80 362.25,644.20 362.30,646.23 C362.30,646.23 362.67,645.07 362.67,645.07" fill="none" stroke="rgb(33, 40, 228)" stroke-width="3.26" stroke-opacity="1.00" stroke-linejoin="round"/>
<path d="M387.84,474.30 C387.84,474.30 386.94,474.30 386.94,474.30 C385.40,475.75 379.58,487.05 378.51,490.66 C378.27,491.45 378.39,491.86 378.71,492.61" fill="none" stroke="rgb(33, 40, 228)" stroke-width="3.26" stroke-opacity="1.00" stroke-linejoin="round"/>
<path d="M405.08,470.73 C404.64,470.71 403.75,470.85 403.32,471.37 C398.59,477.11 395.33,500.08 395.18,500.74 C395.09,501.16 394.87,501.91 394.52,503.00" fill="none" stroke="rgb(33, 40, 228)" stroke-width="3.26" stroke-opacity="1.00" stroke-linejoin="round"/>
<path d="M384.27,526.02 C383.28,526.31 381.80,529.75 381.30,535.77 C381.14,537.89 381.37,557.79 381.44,564.42 C381.59,569.87 382.89,583.15 383.05,583.62 C383.05,583.62 382.23,582.83 382.23,582.83" fill="none" stroke="rgb(33, 40, 228)" stroke-width="3.26" stroke-opacity="1.00" stroke-linejoin="round"/>
<path d="M378.33,558.12 C379.07,560.20 382.86,566.69 383.43,567.64 C385.56,571.18 390.10,584.54 391.54,590.42 C394.40,602.53 395.42,610.10 395.55,610.72 C395.62,611.12 395.83,612.01 396.16,613.40" fill="none" stroke="rgb(33, 40, 228)" stroke-width="3.26" stroke-opacity="1.00" stroke-linejoin="round"/>
<path d="M403.89,623.51 C402.74,623.93 401.74,625.38 401.51,627.52 C401.32,629.32 401.98,637.96 401.97,639.44 C401.90,645.48 400.72,654.81 400.33,665.02 C400.08,673.75 399.71,690.54 399.73,695.04 C399.73,695.04 399.73,693.99 399.73,693.99" fill="none" stroke="rgb(33, 40, 228)" stroke-width="3.26" stroke-opacity="1.00" stroke-linejoin="round"/>
<path d="M418.15,506.40 C418.15,508.08 418.18,511.31 418.20,512.85 C418.37,524.13 416.91,533.79 414.95,540.50 C414.51,541.99 414.25,544.50 413.99,545.49 C413.91,545.82 413.75,546.03 413.50,546.13" fill="none" stroke="rgb(33, 40, 228)" stroke-width="3.26" stroke-opacity="1.00" stroke-linejoin="round"/>
<path d="M379.51,697.22 C379.51,697.22 377.82,697.48 377.82,697.48 C377.82,697.48 376.02,700.20 376.02,700.20 C376.02,700.20 375.57,700.20 375.57,700.20" fill="none" stroke="rgb(33, 40, 228)" stroke-width="3.26" stroke-opacity="1.00" stroke-linejoin="round"/>
<path d="M237.43,670.47 C236.29,670.40 235.23,670.64 234.68,671.35 C233.12,673.39 228.30,686.34 226.80,690.52 C226.80,690.52 226.37,690.33 226.37,690.33" fill="none" stroke="rgb(33, 40, 228)" stroke-width="3.26" stroke-opacity="1.00" stroke-linejoin="round"/>
<path d="M89.41,633.02 C89.41,633.02 87.21,633.26 87.21,633.26 C86.51,634.49 86.45,638.92 86.43,641.31 C86.43,642.15 86.44,643.26 86.44,643.53" fill="none" stroke="rgb(33, 40, 228)" stroke-width="3.26" stroke-opacity="1.00" stroke-linejoin="round"/>
<path d="M271.27,656.45 C271.27,656.45 271.08,656.45 271.08,656.45 C271.01,656.56 270.96,656.64 270.93,656.71 C270.36,658.13 271.60,669.48 272.59,674.17 C273.74,679.45 285.95,708.90 288.00,712.89 C289.93,716.66 293.53,721.83 293.66,722.01 C293.66,722.01 293.86,721.82 293.86,721.82 C293.86,721.82 293.93,721.43 293.93,721.43" fill="none" stroke="rgb(255, 255, 0)" stroke-width="3.26" stroke-opacity="1.00" stroke-linejoin="round"/>
<path d="M271.27,656.84 C271.27,656.84 271.16,656.97 271.16,656.97 C271.93,656.96 277.34,656.07 279.88,656.08 C284.24,656.10 297.41,657.13 302.64,658.69 C308.99,660.63 317.94,666.34 321.86,669.36 C325.40,672.12 328.47,677.49 328.63,677.73 C328.89,677.37 329.78,676.25 330.74,675.96 C331.74,675.67 333.53,676.35 334.09,676.91 C334.63,677.50 335.03,679.85 334.71,680.61 C334.34,681.36 332.97,682.28 331.95,682.50 C331.71,682.55 331.14,682.63 330.26,682.76" fill="none" stroke="rgb(255, 255, 0)" stroke-width="3.26" stroke-opacity="1.00" stroke-linejoin="round"/>
<path d="M327.92,676.38 C327.92,676.38 327.92,676.25 327.92,676.25 C327.96,676.48 328.07,676.89 328.26,677.37 C328.48,677.94 330.67,683.60 330.90,685.55 C331.07,687.07 331.00,692.77 330.77,694.99 C330.40,698.27 329.20,702.61 327.92,705.11 C324.43,711.70 313.94,723.44 313.50,723.92 C311.98,725.60 311.37,726.04 311.23,726.17 C311.23,726.17 310.34,725.99 310.34,725.99" fill="none" stroke="rgb(255, 255, 0)" stroke-width="3.26" stroke-opacity="1.00" stroke-linejoin="round"/>
<path d="M275.31,672.73 C275.31,672.73 274.56,672.60 274.56,672.60 C275.00,672.47 285.46,672.16 291.63,672.87 C293.24,673.05 322.61,674.77 324.05,675.16 C324.85,675.39 325.63,675.67 326.42,675.92 C326.65,675.99 326.76,676.02 326.76,676.00" fill="none" stroke="rgb(255, 255, 0)" stroke-width="3.26" stroke-opacity="1.00" stroke-linejoin="round"/>
<path d="M279.74,691.22 C279.81,691.23 281.12,690.75 281.67,690.58 C296.36,686.24 326.95,682.51 328.82,682.40 C329.08,682.38 329.27,682.37 329.38,682.37" fill="none" stroke="rgb(255, 255, 0)" stroke-width="3.26" stroke-opacity="1.00" stroke-linejoin="round"/>
<path d="M330.26,690.18 C327.76,691.39 325.30,693.08 323.31,694.65 C321.61,695.94 313.51,700.31 312.41,700.86 C310.28,701.91 295.50,706.65 292.18,708.68 C292.08,708.74 291.63,709.03 290.83,709.55 C290.62,709.69 290.29,709.90 289.85,710.18" fill="none" stroke="rgb(255, 255, 0)" stroke-width="3.26" stroke-opacity="1.00" stroke-linejoin="round"/>
<path d="M278.31,695.39 C278.31,695.39 278.31,695.26 278.31,695.26 C277.68,695.27 277.31,695.36 275.95,695.91 C262.40,701.32 248.32,705.67 239.51,710.36 C235.27,712.62 227.45,714.74 226.84,714.54 C226.84,714.54 227.79,707.23 227.79,707.23 C227.29,707.02 225.17,707.29 224.34,707.80 C223.38,708.41 222.03,710.99 221.88,712.27 C221.76,713.51 222.42,716.51 223.04,717.75 C223.71,719.04 225.65,720.99 226.76,721.59 C227.92,722.18 228.96,722.16 230.56,721.43 C231.58,720.95 231.75,720.16 231.54,719.33 C231.31,718.48 231.06,717.64 230.77,716.81 C230.66,716.48 230.51,716.13 230.33,715.75" fill="none" stroke="rgb(255, 255, 0)" stroke-width="3.26" stroke-opacity="1.00" stroke-linejoin="round"/>
<path d="M228.95,721.30 C228.95,721.30 228.82,721.26 228.82,721.26 C228.85,721.18 228.88,721.04 229.13,720.86 C230.68,719.78 236.06,717.77 237.51,717.19 C250.15,712.20 279.17,703.84 280.62,703.20 C280.75,703.15 280.84,703.11 280.88,703.08" fill="none" stroke="rgb(255, 255, 0)" stroke-width="3.26" stroke-opacity="1.00" stroke-linejoin="round"/>
<path d="M526.12,264.99 C526.12,264.99 525.83,264.99 525.83,264.99 C525.36,264.50 524.97,264.26 524.87,264.15 C522.88,262.27 519.61,261.06 516.06,260.94 C513.08,260.89 509.12,261.15 506.88,261.73 C503.41,262.65 489.65,270.27 487.43,272.32 C487.30,272.44 482.79,277.88 481.89,278.15 C481.23,278.32 474.60,277.92 472.92,278.73 C469.76,280.35 465.71,291.65 465.48,291.84 C463.55,293.31 443.20,298.04 441.26,299.10 C437.51,301.21 426.67,313.91 423.88,318.31 C422.27,320.88 419.45,327.06 418.62,329.82 C414.81,342.91 417.36,354.25 417.60,354.86 C414.02,357.19 410.74,359.53 409.41,361.40 C408.32,362.97 406.94,368.08 406.67,370.41 C406.39,373.39 408.41,379.89 410.60,381.69 C411.62,382.49 414.39,382.83 414.55,382.90 C412.84,383.79 411.34,386.14 411.41,388.27 C411.54,390.63 414.06,394.37 416.26,395.45 C418.61,396.54 421.87,396.90 426.17,396.80 C429.13,396.75 430.84,396.97 431.69,397.64 C431.71,397.65 436.86,403.90 438.48,404.97 C440.96,406.54 447.36,407.29 450.93,407.01 C455.24,406.64 460.85,405.61 464.18,404.29 C467.31,403.02 476.41,397.99 477.78,397.55 C480.14,399.90 483.34,403.38 484.99,404.08 C487.38,405.02 493.21,404.21 496.47,402.64 C499.05,401.03 501.95,399.26 502.26,399.45 C504.94,402.94 508.76,405.12 511.30,405.50 C513.28,405.75 517.74,405.31 520.91,404.70 C522.50,404.38 525.35,403.82 526.61,403.57" fill="none" stroke="rgb(181, 143, 123)" stroke-width="3.26" stroke-opacity="1.00" stroke-linejoin="round"/>
<path d="M474.79,406.72 C474.89,410.60 474.08,419.71 474.42,430.47 C474.87,442.65 474.53,469.58 472.94,483.91 C469.14,515.68 460.28,578.26 456.85,609.03 C455.24,624.91 453.38,638.50 451.56,660.33 C450.67,675.83 449.54,706.73 447.03,716.34 C446.25,719.30 445.42,721.31 445.18,721.88 C445.18,721.88 446.12,723.93 446.12,723.93" fill="none" stroke="rgb(181, 143, 123)" stroke-width="3.26" stroke-opacity="1.00" stroke-linejoin="round"/>
<path d="M524.77,431.67 C524.77,431.67 524.55,431.45 524.55,431.45 C523.00,434.44 518.06,447.71 516.45,453.74 C514.11,461.91 513.08,467.57 513.45,474.17 C513.87,480.37 516.56,485.86 518.38,489.08 C518.80,489.80 519.21,490.51 519.62,491.23" fill="none" stroke="rgb(181, 143, 123)" stroke-width="3.26" stroke-opacity="1.00" stroke-linejoin="round"/>
<path d="M468.80,515.86 C468.80,515.86 468.35,515.86 468.35,515.86 C468.62,515.68 471.29,515.53 473.49,516.19 C476.96,517.27 481.51,520.29 484.01,522.94 C486.14,525.29 488.39,530.95 488.68,534.63 C489.03,539.58 486.87,554.19 485.33,561.21 C483.62,568.87 479.20,579.91 476.97,584.13 C473.29,590.98 468.68,595.66 467.37,596.63 C466.94,596.58 466.66,596.53 466.53,596.47 C466.41,596.41 466.27,596.26 466.11,596.01" fill="none" stroke="rgb(181, 143, 123)" stroke-width="3.26" stroke-opacity="1.00" stroke-linejoin="round"/>
<path d="M467.23,540.93 C467.23,540.93 467.23,540.71 467.23,540.71 C468.14,540.75 468.92,540.93 469.45,541.33 C470.60,542.23 472.63,545.89 473.31,548.13 C473.92,550.28 474.42,555.26 474.40,559.79 C474.34,564.51 473.66,570.69 472.61,572.88 C471.49,575.10 466.72,578.94 465.57,579.52 C465.57,579.52 463.42,579.00 463.42,579.00" fill="none" stroke="rgb(181, 143, 123)" stroke-width="3.26" stroke-opacity="1.00" stroke-linejoin="round"/>
<path d="M468.35,546.31 C468.35,546.31 468.13,546.08 468.13,546.08 C469.58,548.67 470.86,553.70 471.11,556.30 C471.35,559.17 470.56,564.08 469.47,566.18 C468.62,567.72 465.73,570.50 464.60,571.32 C464.60,571.32 464.32,569.82 464.32,569.82" fill="none" stroke="rgb(181, 143, 123)" stroke-width="3.26" stroke-opacity="1.00" stroke-linejoin="round"/>
<path d="M467.90,549.44 C467.90,549.44 467.45,549.44 467.45,549.44 C467.41,549.57 468.34,555.25 468.22,557.65 C467.83,564.52 464.47,568.85 463.33,569.64 C463.33,569.64 463.42,569.37 463.42,569.37" fill="none" stroke="rgb(181, 143, 123)" stroke-width="3.26" stroke-opacity="1.00" stroke-linejoin="round"/>
<path d="M172.95,160.32 C172.95,160.32 173.49,160.32 173.49,160.32 C173.49,160.32 172.95,160.32 172.95,160.32" fill="none" stroke="rgb(131, 143, 221)" stroke-width="3.26" stroke-opacity="1.00" stroke-linejoin="round"/>
<path d="M76.97,80.10 C76.63,79.95 76.76,75.58 77.34,74.36 C77.93,73.24 81.37,69.97 83.49,68.53 C85.56,67.18 90.41,64.94 93.74,64.14 C99.05,62.88 108.96,63.29 113.27,64.82 C117.13,66.22 122.02,70.24 123.80,71.79 C128.71,67.14 136.17,63.16 141.62,61.41 C145.67,60.11 152.95,58.65 162.69,57.19 C166.32,56.69 170.49,56.57 172.42,56.87 C176.95,57.81 186.64,59.52 192.56,59.77 C199.63,60.04 205.38,59.19 216.18,56.01 C223.11,54.12 240.21,49.62 243.59,49.19 C245.38,48.98 250.05,48.68 252.00,48.66 C256.55,48.66 262.09,49.97 263.95,50.97 C267.78,53.12 274.36,59.94 275.01,60.53 C276.82,62.13 282.44,63.41 286.31,63.71 C290.10,64.01 295.81,66.39 297.29,67.98 C298.41,69.24 298.70,72.07 298.45,73.61 C298.10,75.64 296.33,80.39 294.90,82.66 C293.65,84.62 290.45,88.54 288.95,89.98 C287.39,91.42 281.38,93.75 280.39,94.28 C280.11,94.43 264.64,103.99 262.92,104.94 C262.73,105.05 248.20,112.54 240.65,115.44 C234.55,117.80 225.23,124.08 221.20,125.93 C215.89,128.34 208.06,130.16 200.20,131.19 C193.28,132.09 184.69,131.19 179.49,129.98 C173.74,128.62 164.01,127.81 159.78,128.97 C158.03,129.46 147.45,134.71 141.91,136.93 C138.58,138.22 133.65,139.85 131.84,140.22 C128.10,140.97 122.38,140.99 119.92,140.58 C116.46,139.98 102.83,134.26 100.38,132.55 C98.86,131.48 91.71,124.62 91.03,123.99 C90.10,123.12 84.39,116.69 82.02,114.79 C79.47,112.76 77.34,110.53 75.67,107.73 C73.96,104.89 70.09,98.48 69.40,97.00 C68.45,94.92 68.24,91.76 68.20,87.64 C68.24,84.59 74.30,74.92 77.29,71.88 C77.29,71.88 77.81,71.99 77.81,71.99" fill="none" stroke="rgb(131, 143, 221)" stroke-width="3.26" stroke-opacity="1.00" stroke-linejoin="round"/>
<path d="M338.36,84.90 C338.36,84.90 336.55,84.03 336.55,84.03 C335.90,82.59 335.47,78.34 335.54,76.16 C335.68,73.78 337.94,70.94 341.00,68.79 C344.97,66.04 361.09,58.03 365.56,57.38 C367.88,57.08 371.51,57.45 373.40,58.35 C376.31,59.77 386.33,68.23 389.22,69.59 C390.98,70.41 395.20,71.20 397.05,71.06 C400.39,70.76 410.05,65.86 418.39,62.94 C423.94,60.96 427.92,59.77 430.55,59.54 C435.71,59.12 440.42,58.96 443.08,59.53 C445.51,60.07 449.36,62.45 451.14,64.04 C452.31,65.11 457.17,70.95 457.74,71.70 C459.76,74.39 461.90,79.18 462.70,82.87 C463.47,86.58 464.15,94.27 463.99,97.27 C463.76,100.86 461.98,106.40 460.23,108.83 C458.58,111.05 453.08,115.77 449.99,117.78 C444.76,121.13 427.26,128.16 425.00,128.97 C419.80,130.80 405.62,132.86 402.96,132.36 C401.63,132.09 395.73,129.45 393.84,128.83 C388.57,127.17 378.84,127.12 366.38,127.87 C361.58,128.16 343.18,128.52 342.04,128.46 C339.40,128.31 335.03,126.99 333.40,126.00 C331.62,124.88 328.08,121.33 326.69,119.12 C326.29,118.49 317.89,103.63 317.22,100.87 C316.69,98.60 316.45,93.89 317.05,92.50 C318.26,89.86 325.39,84.03 330.40,79.16 C330.90,78.67 331.31,78.39 331.62,78.31 C331.87,78.26 332.46,78.25 333.39,78.29" fill="none" stroke="rgb(131, 143, 221)" stroke-width="3.26" stroke-opacity="1.00" stroke-linejoin="round"/>
<path d="M5.67,730.47 C5.67,730.36 5.67,730.25 5.67,730.15 C5.67,730.04 5.67,729.93 5.67,729.82 C5.66,729.83 25.44,725.31 27.84,725.25 C37.42,725.37 84.20,722.97 111.25,723.47 C133.38,724.16 179.20,723.38 198.16,724.04 C206.48,724.38 217.30,726.04 222.45,726.30 C226.69,726.51 246.87,726.90 255.06,727.25 C262.60,727.75 279.55,728.83 282.76,728.88 C289.88,728.97 307.25,726.73 308.90,726.67 C323.74,726.40 352.90,726.04 366.08,726.84 C379.92,728.07 407.98,730.28 425.08,730.43 C431.85,730.32 447.81,729.87 451.74,729.40 C454.26,729.08 468.95,726.79 478.41,726.56 C499.04,726.07 511.22,726.56 516.37,727.02 C514.50,728.97 513.30,730.06 511.48,731.35 C509.96,732.44 507.42,734.25 506.40,734.97" fill="none" stroke="rgb(153, 93, 61)" stroke-width="3.26" stroke-opacity="1.00" stroke-linejoin="round"/>
</g>
</svg>
