<?xml version="1.0" encoding="UTF-8" standalone="no"?>
<!DOCTYPE svg PUBLIC "-//W3C//DTD SVG 1.1//EN" "http://www.w3.org/Graphics/SVG/1.1/DTD/svg11.dtd">
<svg width="64.20" height="90.84" viewBox="0.00 0.00 535.00 757.00" xmlns="http://www.w3.org/2000/svg" xmlns:xlink="http://www.w3.org/1999/xlink">
<g stroke-linecap="round" id="191">
<path d="M269.43,285.04 C269.74,284.32 269.99,283.80 270.32,283.41 C270.78,282.88 275.20,278.07 275.71,277.23 C280.43,268.55 284.08,260.10 286.09,255.60 C287.49,252.40 288.54,247.21 288.41,245.48 C288.26,243.91 287.35,240.81 285.76,238.14 C284.38,235.83 282.22,233.57 281.08,232.86 C278.17,231.09 270.05,229.25 262.46,228.76 C258.35,228.51 248.47,228.77 243.01,230.09 C240.94,230.60 235.23,232.84 232.50,234.37 C229.65,235.98 228.02,237.96 227.84,239.05 C227.66,240.34 228.75,242.28 229.99,242.76 C230.49,242.94 233.18,243.26 233.45,243.32 C233.47,243.59 231.36,248.71 230.95,250.35 C230.58,251.83 229.81,257.59 229.42,260.63 C228.95,264.71 228.70,265.44 227.46,266.12 C225.98,266.90 224.84,268.07 224.85,268.65 C224.95,269.91 226.73,271.42 228.38,271.48 C228.58,271.48 231.25,271.45 231.41,271.47 C231.61,271.48 233.19,275.19 233.87,276.25 C234.91,277.82 239.85,281.19 241.28,282.27 C243.99,284.30 245.83,285.16 245.99,285.47 C246.00,285.49 244.53,297.57 244.66,303.48 C244.66,303.64 244.67,303.77 244.69,303.87 C244.69,303.87 245.48,303.58 245.48,303.58" fill="none" stroke="rgb(33, 228, 63)" stroke-width="3.18" stroke-opacity="1.00" stroke-linejoin="round"/>
<path d="M269.76,286.18 C269.76,286.18 269.35,286.35 269.35,286.35 C269.26,286.57 269.28,291.32 269.15,293.12 C268.80,298.35 269.65,308.54 269.65,308.51 C269.65,308.51 269.45,307.10 269.45,307.10" fill="none" stroke="rgb(33, 228, 63)" stroke-width="3.18" stroke-opacity="1.00" stroke-linejoin="round"/>
<path d="M232.51,238.43 C232.51,238.43 232.23,237.94 232.23,237.94 C231.39,238.18 231.10,241.13 231.48,241.42 C231.90,241.66 233.26,241.51 235.77,240.42 C242.85,237.21 250.22,234.69 255.52,234.48 C258.32,234.41 264.97,235.18 266.41,235.87 C267.12,236.25 267.74,237.78 267.86,240.41 C268.36,253.60 265.34,268.62 265.23,269.26 C265.74,268.54 273.50,254.75 273.65,254.35 C273.72,254.13 274.60,244.69 275.03,242.39 C275.72,238.80 278.20,236.57 279.12,235.90 C279.85,236.25 281.07,238.34 281.31,239.74 C281.85,243.13 281.94,249.09 281.39,252.68 C280.93,255.53 279.60,258.40 278.90,259.18 C278.37,259.68 276.19,259.58 275.50,259.33 C275.30,259.26 274.86,259.07 274.19,258.78" fill="none" stroke="rgb(33, 228, 63)" stroke-width="3.18" stroke-opacity="1.00" stroke-linejoin="round"/>
<path d="M283.71,243.85 C283.71,243.85 283.60,243.22 283.60,243.22 C283.99,243.95 284.28,247.64 283.94,250.24 C283.60,252.74 283.53,255.26 283.55,256.09 C283.55,256.09 285.71,245.04 285.71,245.04 C285.71,245.04 284.37,255.84 284.37,255.84 C284.61,252.24 285.54,245.80 285.54,244.73 C285.53,243.48 284.38,241.02 283.37,240.05 C281.94,238.73 277.49,236.72 275.10,236.03 C272.59,235.32 270.62,235.74 270.16,236.20 C269.73,236.64 269.25,237.37 268.78,238.24 C268.78,238.24 270.72,235.45 270.72,235.45 C271.34,236.03 271.50,236.76 271.21,238.39 C270.41,242.93 269.84,245.66 269.45,247.50 C269.45,247.50 272.60,238.22 272.60,238.22 C272.60,238.22 268.29,260.05 268.29,260.05 C268.29,260.05 273.37,238.42 273.37,238.42 C273.37,238.42 271.14,252.53 271.14,252.53 C270.99,252.74 272.83,238.45 271.98,236.96 C271.91,236.85 268.72,235.34 267.86,234.81 C267.86,234.81 272.56,232.88 272.56,232.88 C272.56,232.88 259.45,232.44 259.45,232.44 C259.45,232.44 275.95,233.81 275.95,233.81 C275.95,233.81 273.06,232.79 273.06,232.79 C273.06,232.79 274.92,233.58 274.92,233.58 C274.72,233.66 258.11,233.05 254.22,233.34 C249.94,233.71 239.21,237.97 238.44,237.61 C238.56,236.54 247.67,231.81 253.65,230.08 C247.54,230.07 232.88,237.45 229.79,239.36 C229.79,239.36 243.21,233.36 243.21,233.36 C243.21,233.36 243.67,234.00 243.67,234.00" fill="none" stroke="rgb(33, 228, 63)" stroke-width="3.18" stroke-opacity="1.00" stroke-linejoin="round"/>
<path d="M240.55,245.00 C240.55,245.00 240.64,244.53 240.64,244.53 C241.27,244.12 245.41,243.45 247.99,243.38 C250.39,243.34 256.72,244.86 257.11,245.69 C256.98,246.78 255.10,247.92 252.74,248.19 C247.02,248.80 242.18,246.72 241.62,246.21 C241.62,246.21 241.79,245.46 241.79,245.46" fill="none" stroke="rgb(33, 228, 63)" stroke-width="3.18" stroke-opacity="1.00" stroke-linejoin="round"/>
<path d="M248.59,245.16 C248.59,245.16 248.59,247.62 248.59,247.62 C248.59,247.62 248.76,244.72 248.76,244.72 C248.66,245.34 248.58,245.75 248.52,245.94 C248.46,246.14 248.35,246.39 248.17,246.70" fill="none" stroke="rgb(33, 228, 63)" stroke-width="3.18" stroke-opacity="1.00" stroke-linejoin="round"/>
<path d="M239.73,245.00 C239.70,245.05 239.73,245.05 239.81,245.00 C240.19,244.74 241.20,244.03 242.62,243.24 C244.85,242.01 251.72,237.99 253.67,237.28 C253.67,237.28 253.00,237.73 253.00,237.73" fill="none" stroke="rgb(33, 228, 63)" stroke-width="3.18" stroke-opacity="1.00" stroke-linejoin="round"/>
<path d="M230.05,271.91 C230.28,271.91 231.53,271.92 231.98,271.98 C234.97,272.38 238.46,272.55 240.42,272.89 C242.12,273.20 244.32,274.22 244.72,274.73 C245.17,275.34 244.66,277.08 243.70,277.51 C242.60,277.95 238.76,277.37 238.58,277.38 C238.42,277.39 237.86,277.45 236.90,277.57" fill="none" stroke="rgb(33, 228, 63)" stroke-width="3.18" stroke-opacity="1.00" stroke-linejoin="round"/>
<path d="M241.91,301.60 C241.55,301.66 235.05,300.74 231.00,300.46 C229.36,300.36 208.93,301.25 208.40,301.56 C207.33,302.30 206.69,306.19 207.24,309.68 C207.72,312.59 211.42,325.07 211.57,325.89 C211.57,325.89 213.57,326.05 213.57,326.05" fill="none" stroke="rgb(33, 228, 63)" stroke-width="3.18" stroke-opacity="1.00" stroke-linejoin="round"/>
<path d="M242.30,303.15 C242.30,303.15 242.88,302.18 242.88,302.18 C242.88,302.18 243.47,301.98 243.47,301.98 C243.46,302.15 242.26,304.31 242.48,305.35 C242.76,306.50 245.45,308.31 247.83,309.24 C249.45,309.86 255.37,311.43 257.82,311.96 C261.00,312.63 265.31,312.75 268.34,312.20 C270.75,311.74 276.30,310.03 277.79,309.36 C281.64,307.60 283.34,305.68 283.87,304.71 C291.48,303.66 301.94,303.50 308.50,304.35 C316.82,305.42 323.05,305.44 325.28,305.13 C325.39,308.32 325.34,329.08 325.72,335.47 C326.82,352.03 326.97,379.27 326.98,395.82 C326.86,412.04 324.71,446.16 324.62,449.88 C324.59,451.09 324.51,461.62 324.44,462.79 C324.24,466.11 322.94,472.88 322.84,473.12 C322.59,473.71 321.70,474.87 321.11,475.53" fill="none" stroke="rgb(33, 228, 63)" stroke-width="3.18" stroke-opacity="1.00" stroke-linejoin="round"/>
<path d="M213.96,353.23 C213.96,353.23 213.77,352.26 213.77,352.26 C213.77,352.26 213.18,352.07 213.18,352.07 C213.18,352.04 214.01,391.22 214.03,406.09 C214.33,415.41 215.88,442.24 215.91,465.95 C215.91,473.50 215.90,483.29 215.90,483.29 C216.00,483.12 229.84,482.07 236.88,482.27 C245.95,482.62 257.82,481.85 265.61,481.75 C272.96,481.74 288.00,483.30 295.59,483.54 C305.34,483.78 319.71,482.49 324.52,482.52 C324.52,482.52 324.22,481.74 324.22,481.74" fill="none" stroke="rgb(33, 228, 63)" stroke-width="3.18" stroke-opacity="1.00" stroke-linejoin="round"/>
<path d="M314.62,307.90 C314.55,309.42 312.84,313.47 311.40,315.07 C311.36,315.12 302.40,323.19 295.84,327.74 C286.59,334.12 279.09,338.58 273.58,339.73 C271.17,340.21 256.36,339.99 250.35,340.08 C246.81,340.15 240.34,339.69 237.29,338.91 C234.81,338.26 231.22,336.76 229.15,335.20 C220.16,328.35 212.77,326.87 212.67,327.02 C211.72,328.48 211.13,338.24 211.73,346.88 C211.90,349.39 212.54,351.45 213.26,351.94 C215.67,353.43 253.10,358.32 262.17,358.85 C273.50,359.33 279.06,359.31 287.01,358.21 C289.42,357.86 292.59,356.98 296.97,355.50 C301.54,353.90 310.65,347.72 314.17,344.94 C317.92,341.95 323.84,335.06 324.04,334.69 C324.23,334.32 324.65,333.38 325.29,331.85" fill="none" stroke="rgb(33, 228, 63)" stroke-width="3.18" stroke-opacity="1.00" stroke-linejoin="round"/>
<path d="M208.93,329.51 C209.58,329.46 210.06,329.40 210.19,329.31 C210.24,329.27 210.35,329.15 210.49,328.94 C210.01,328.43 205.11,325.36 203.01,324.52 C200.73,323.63 199.44,324.03 199.13,324.78 C198.85,325.53 199.01,328.05 200.16,329.45 C200.92,330.37 202.44,330.97 202.69,331.00 C202.69,331.00 196.90,330.72 196.90,330.72 C196.54,332.16 199.51,334.91 199.95,335.33 C199.95,335.33 199.05,338.65 199.05,338.65 C199.05,338.65 201.18,340.55 201.18,340.55 C200.90,341.99 201.75,343.42 202.84,344.16 C203.36,344.48 205.74,345.34 206.65,345.43 C207.31,345.49 209.96,345.10 210.70,344.99" fill="none" stroke="rgb(33, 228, 63)" stroke-width="3.18" stroke-opacity="1.00" stroke-linejoin="round"/>
<path d="M259.43,314.41 C259.43,314.41 259.43,314.15 259.43,314.15 C259.44,320.64 259.54,333.23 260.44,338.83 C260.56,339.54 260.68,340.26 260.80,340.98 C260.80,340.98 261.43,340.06 261.43,340.06" fill="none" stroke="rgb(33, 228, 63)" stroke-width="3.18" stroke-opacity="1.00" stroke-linejoin="round"/>
<path d="M268.80,313.11 C268.84,313.12 268.56,314.14 268.54,314.29 C268.50,314.65 268.34,335.82 268.50,338.11 C268.61,339.39 268.74,341.89 268.80,342.50 C268.82,342.72 268.89,343.04 269.00,343.46" fill="none" stroke="rgb(33, 228, 63)" stroke-width="3.18" stroke-opacity="1.00" stroke-linejoin="round"/>
<path d="M260.73,358.92 C260.73,358.92 260.73,358.66 260.73,358.66 C261.03,364.30 261.47,375.63 261.50,381.28 C261.99,409.23 263.56,470.44 264.27,477.84 C264.27,477.84 264.90,477.89 264.90,477.89" fill="none" stroke="rgb(33, 228, 63)" stroke-width="3.18" stroke-opacity="1.00" stroke-linejoin="round"/>
<path d="M272.18,360.23 C272.14,364.72 270.21,379.93 270.44,422.56 C270.99,448.52 272.17,478.52 272.71,480.62 C272.71,480.62 273.31,480.75 273.31,480.75" fill="none" stroke="rgb(33, 228, 63)" stroke-width="3.18" stroke-opacity="1.00" stroke-linejoin="round"/>
<path d="M261.51,317.53 C261.47,317.53 261.42,317.53 261.38,317.53 C261.34,317.53 261.29,317.53 261.25,317.53 C261.27,317.53 263.10,317.55 263.66,317.59 C264.21,317.63 265.64,317.83 266.29,317.82 C266.29,317.82 266.20,318.57 266.20,318.57" fill="none" stroke="rgb(33, 228, 63)" stroke-width="3.18" stroke-opacity="1.00" stroke-linejoin="round"/>
<path d="M260.99,323.78 C260.95,323.78 260.90,323.78 260.86,323.78 C260.82,323.78 260.77,323.78 260.73,323.78 C261.13,323.90 261.49,323.97 261.82,324.00 C262.31,324.04 265.86,324.07 267.14,324.08 C267.14,324.08 266.98,325.34 266.98,325.34" fill="none" stroke="rgb(33, 228, 63)" stroke-width="3.18" stroke-opacity="1.00" stroke-linejoin="round"/>
<path d="M261.77,329.51 C261.77,329.51 260.99,329.51 260.99,329.51 C260.98,329.51 261.02,329.51 261.03,329.51 C262.58,329.45 266.20,328.96 267.19,329.01 C267.19,329.01 267.69,329.63 267.69,329.63" fill="none" stroke="rgb(33, 228, 63)" stroke-width="3.18" stroke-opacity="1.00" stroke-linejoin="round"/>
<path d="M262.55,334.97 C262.55,334.97 261.82,334.97 261.82,334.97 C261.82,334.97 267.60,334.74 267.60,334.74 C267.60,334.74 267.73,335.05 267.73,335.05" fill="none" stroke="rgb(33, 228, 63)" stroke-width="3.18" stroke-opacity="1.00" stroke-linejoin="round"/>
<path d="M261.25,366.47 C261.21,366.47 261.34,366.47 261.38,366.47 C262.61,366.48 265.32,366.45 266.54,366.38 C267.59,366.30 268.98,366.19 269.52,366.23 C269.52,366.23 269.58,366.47 269.58,366.47" fill="none" stroke="rgb(33, 228, 63)" stroke-width="3.18" stroke-opacity="1.00" stroke-linejoin="round"/>
<path d="M262.29,371.16 C262.29,371.16 261.90,371.29 261.90,371.29 C261.90,371.29 261.96,371.42 261.96,371.42 C261.96,371.42 269.39,372.13 269.39,372.13 C269.39,372.13 269.32,372.20 269.32,372.20" fill="none" stroke="rgb(33, 228, 63)" stroke-width="3.18" stroke-opacity="1.00" stroke-linejoin="round"/>
<path d="M263.07,379.75 C263.07,379.75 262.42,380.14 262.42,380.14 C262.49,380.36 263.11,380.62 264.18,380.80 C265.41,381.01 269.36,381.06 269.40,381.13 C269.40,381.13 269.22,381.83 269.22,381.83" fill="none" stroke="rgb(33, 228, 63)" stroke-width="3.18" stroke-opacity="1.00" stroke-linejoin="round"/>
<path d="M262.81,386.00 C262.81,386.00 262.42,385.74 262.42,385.74 C262.45,385.82 263.08,386.02 263.80,386.13 C264.70,386.26 266.39,386.21 268.83,386.03 C268.83,386.03 268.85,386.35 268.85,386.35" fill="none" stroke="rgb(33, 228, 63)" stroke-width="3.18" stroke-opacity="1.00" stroke-linejoin="round"/>
<path d="M264.38,391.46 C264.38,391.46 263.38,391.46 263.38,391.46 C265.17,391.45 266.53,391.36 267.47,391.17 C267.70,391.13 268.14,391.03 268.78,390.87 C268.78,390.87 269.60,391.40 269.60,391.40" fill="none" stroke="rgb(33, 228, 63)" stroke-width="3.18" stroke-opacity="1.00" stroke-linejoin="round"/>
<path d="M263.59,395.89 C263.59,395.89 262.94,395.89 262.94,395.89 C262.94,395.89 262.95,395.89 262.96,395.89 C264.43,395.89 269.74,395.90 269.90,395.99 C269.90,395.99 269.77,396.76 269.77,396.76" fill="none" stroke="rgb(33, 228, 63)" stroke-width="3.18" stroke-opacity="1.00" stroke-linejoin="round"/>
<path d="M263.07,401.36 C263.07,401.36 261.90,401.75 261.90,401.75 C261.90,401.75 261.90,401.92 261.90,401.92 C261.90,401.92 269.31,402.23 269.31,402.23 C269.31,402.23 268.54,403.44 268.54,403.44" fill="none" stroke="rgb(33, 228, 63)" stroke-width="3.18" stroke-opacity="1.00" stroke-linejoin="round"/>
<path d="M263.33,408.12 C263.33,408.12 262.81,408.12 262.81,408.12 C264.20,408.44 265.59,408.69 266.56,408.64 C266.98,408.63 267.96,408.54 269.51,408.38 C269.51,408.38 269.06,408.91 269.06,408.91" fill="none" stroke="rgb(33, 228, 63)" stroke-width="3.18" stroke-opacity="1.00" stroke-linejoin="round"/>
<path d="M264.64,412.81 C264.64,412.81 264.51,413.20 264.51,413.20 C264.69,413.43 265.43,413.67 266.48,413.77 C267.51,413.86 268.94,413.71 270.71,413.37 C270.71,413.37 270.10,414.63 270.10,414.63" fill="none" stroke="rgb(33, 228, 63)" stroke-width="3.18" stroke-opacity="1.00" stroke-linejoin="round"/>
<path d="M264.90,420.36 C264.90,420.36 264.51,420.75 264.51,420.75 C264.51,420.75 270.80,421.59 270.80,421.59 C270.80,421.59 270.88,423.48 270.88,423.48" fill="none" stroke="rgb(33, 228, 63)" stroke-width="3.18" stroke-opacity="1.00" stroke-linejoin="round"/>
<path d="M264.90,429.21 C264.90,429.21 263.98,429.47 263.98,429.47 C263.98,429.47 270.99,429.17 270.99,429.17 C270.99,429.17 269.84,430.77 269.84,430.77" fill="none" stroke="rgb(33, 228, 63)" stroke-width="3.18" stroke-opacity="1.00" stroke-linejoin="round"/>
<path d="M265.16,435.98 C265.16,435.98 263.20,437.00 263.20,437.00 C263.20,437.00 269.99,437.20 269.99,437.20 C269.99,437.20 270.62,438.06 270.62,438.06" fill="none" stroke="rgb(33, 228, 63)" stroke-width="3.18" stroke-opacity="1.00" stroke-linejoin="round"/>
<path d="M265.16,445.09 C265.16,445.09 264.64,445.41 264.64,445.41 C265.18,445.64 268.06,445.33 269.19,445.19 C269.61,445.14 269.98,445.12 270.31,445.13 C270.31,445.13 271.04,445.83 271.04,445.83" fill="none" stroke="rgb(33, 228, 63)" stroke-width="3.18" stroke-opacity="1.00" stroke-linejoin="round"/>
<path d="M265.42,454.46 C265.42,454.46 263.40,456.30 263.40,456.30 C263.82,457.41 269.50,457.60 270.45,457.67 C270.45,457.67 271.55,458.91 271.55,458.91" fill="none" stroke="rgb(33, 228, 63)" stroke-width="3.18" stroke-opacity="1.00" stroke-linejoin="round"/>
<path d="M265.68,464.61 C265.68,464.61 264.11,465.85 264.11,465.85 C264.11,465.85 264.18,466.24 264.18,466.24 C266.19,466.41 267.94,466.48 269.31,466.44 C269.84,466.42 270.04,466.53 270.62,466.96" fill="none" stroke="rgb(33, 228, 63)" stroke-width="3.18" stroke-opacity="1.00" stroke-linejoin="round"/>
<path d="M265.68,473.46 C265.68,473.46 264.64,474.77 264.64,474.77 C267.32,474.72 269.46,474.18 270.93,473.70 C271.19,473.61 271.37,473.53 271.46,473.47" fill="none" stroke="rgb(33, 228, 63)" stroke-width="3.18" stroke-opacity="1.00" stroke-linejoin="round"/>
<path d="M238.08,426.87 C237.02,429.87 235.05,436.12 233.95,437.57 C230.59,441.82 226.96,448.25 221.22,454.90 C221.00,455.16 220.76,455.36 220.50,455.50 C220.50,455.50 224.98,457.54 224.98,457.54 C225.33,457.33 232.07,449.13 237.05,442.26 C239.36,439.03 242.19,433.21 243.24,431.00 C243.13,430.76 239.65,427.73 238.80,427.01 C238.63,426.86 238.48,426.73 238.34,426.61" fill="none" stroke="rgb(33, 228, 63)" stroke-width="3.18" stroke-opacity="1.00" stroke-linejoin="round"/>
<path d="M224.81,450.56 C225.24,450.99 226.33,452.06 226.74,452.31 C227.18,452.57 227.71,452.82 228.34,453.07 C228.51,453.13 228.63,453.15 228.69,453.12 C228.69,453.12 228.45,452.64 228.45,452.64" fill="none" stroke="rgb(33, 228, 63)" stroke-width="3.18" stroke-opacity="1.00" stroke-linejoin="round"/>
<path d="M228.45,447.69 C228.45,447.69 228.71,447.69 228.71,447.69 C228.69,447.70 229.74,448.72 230.19,449.06 C230.58,449.34 231.71,449.99 232.36,450.56" fill="none" stroke="rgb(33, 228, 63)" stroke-width="3.18" stroke-opacity="1.00" stroke-linejoin="round"/>
<path d="M232.10,441.71 C232.10,441.71 231.84,441.44 231.84,441.44 C232.27,442.42 233.18,443.66 234.08,444.40 C234.28,444.56 234.51,444.69 234.77,444.78 C234.77,444.78 235.22,444.05 235.22,444.05" fill="none" stroke="rgb(33, 228, 63)" stroke-width="3.18" stroke-opacity="1.00" stroke-linejoin="round"/>
<path d="M235.48,438.58 C236.54,439.62 237.55,440.22 238.57,440.40 C238.73,440.43 238.85,440.43 238.94,440.40 C238.94,440.40 239.12,439.62 239.12,439.62" fill="none" stroke="rgb(33, 228, 63)" stroke-width="3.18" stroke-opacity="1.00" stroke-linejoin="round"/>
<path d="M238.60,432.59 C238.67,432.92 238.89,433.40 239.28,433.88 C239.62,434.27 239.95,434.66 240.28,435.06 C240.52,435.35 241.01,435.97 241.74,436.93" fill="none" stroke="rgb(33, 228, 63)" stroke-width="3.18" stroke-opacity="1.00" stroke-linejoin="round"/>
<path d="M299.52,432.85 C298.73,432.86 298.57,432.51 298.33,431.88 C298.29,431.78 298.25,431.67 298.22,431.56 C298.22,431.56 298.22,431.57 298.22,431.57 C298.92,433.13 312.67,454.83 312.76,454.99 C312.92,455.26 313.09,455.50 313.26,455.71" fill="none" stroke="rgb(33, 228, 63)" stroke-width="3.18" stroke-opacity="1.00" stroke-linejoin="round"/>
<path d="M299.26,430.77 C299.26,430.77 305.60,429.73 305.60,429.73 C305.60,429.73 318.14,450.83 318.14,450.83 C317.92,451.08 317.53,451.35 316.93,451.61 C316.16,451.94 314.86,452.34 313.10,452.82" fill="none" stroke="rgb(33, 228, 63)" stroke-width="3.18" stroke-opacity="1.00" stroke-linejoin="round"/>
<path d="M307.85,435.72 C307.85,435.72 307.46,435.46 307.46,435.46 C306.89,435.52 306.00,435.78 305.37,435.97 C305.31,435.99 303.67,436.30 303.09,436.43 C303.09,436.43 303.31,436.90 303.31,436.90" fill="none" stroke="rgb(33, 228, 63)" stroke-width="3.18" stroke-opacity="1.00" stroke-linejoin="round"/>
<path d="M314.10,445.61 C313.32,446.10 312.71,446.47 312.62,446.61 C311.47,448.37 310.90,448.82 310.20,449.23 C310.20,449.23 309.63,448.74 309.63,448.74" fill="none" stroke="rgb(33, 228, 63)" stroke-width="3.18" stroke-opacity="1.00" stroke-linejoin="round"/>
<path d="M207.63,302.96 C207.02,303.02 206.57,303.19 206.12,303.64 C205.18,304.57 200.04,309.06 198.65,310.10 C196.43,311.72 190.67,314.63 188.11,315.57 C186.49,316.15 179.59,318.24 176.26,319.62 C165.97,323.96 158.69,326.71 155.30,327.17 C153.65,327.37 149.41,325.68 147.73,325.00 C144.95,323.90 139.36,321.67 136.90,320.13 C136.52,319.89 122.28,307.29 119.78,305.85 C117.15,304.37 103.04,300.47 99.01,298.76 C96.99,297.90 95.28,297.30 94.90,297.37 C92.51,298.10 84.94,304.76 84.91,304.93 C84.97,306.66 89.09,314.58 95.54,323.87 C99.11,328.92 102.99,334.05 104.79,336.00 C107.67,339.08 112.41,342.31 115.90,343.88 C121.69,346.47 133.63,350.92 143.55,353.33 C149.77,354.75 154.53,355.73 156.99,355.93 C164.41,356.45 180.22,355.27 182.59,354.88 C188.61,353.87 200.97,348.59 202.12,347.80 C202.29,347.69 202.65,347.40 203.20,346.95" fill="none" stroke="rgb(33, 228, 63)" stroke-width="3.18" stroke-opacity="1.00" stroke-linejoin="round"/>
<path d="M93.09,295.67 C93.79,293.37 93.44,287.32 92.62,282.46 C92.35,280.95 91.55,279.68 90.94,279.45 C90.32,279.25 89.04,279.69 88.22,280.57 C87.03,281.98 85.79,287.43 86.06,288.60 C85.82,288.62 79.78,285.29 78.49,285.22 C77.34,285.22 75.73,286.17 75.29,287.06 C74.92,287.90 75.63,290.01 76.31,290.30 C75.87,289.69 73.12,288.78 72.21,289.03 C71.32,289.31 70.75,290.90 71.57,292.54 C71.79,292.98 72.52,294.07 72.86,294.73 C71.95,295.93 71.41,297.36 71.93,298.70 C73.18,301.53 80.36,304.59 80.44,304.63 C80.63,304.69 80.83,304.74 81.05,304.77" fill="none" stroke="rgb(33, 228, 63)" stroke-width="3.18" stroke-opacity="1.00" stroke-linejoin="round"/>
<path d="M218.10,481.58 C218.10,481.58 217.76,481.58 217.76,481.58 C217.88,488.18 216.59,521.88 216.44,535.20 C216.41,567.90 216.10,621.64 216.40,627.49 C217.66,650.66 218.20,703.94 217.89,711.48 C217.81,713.37 217.54,719.28 216.64,719.77 C215.20,720.48 205.32,722.86 203.81,723.13 C199.47,723.83 195.27,725.25 191.85,727.48 C191.85,727.48 193.20,726.81 193.20,726.81" fill="none" stroke="rgb(33, 228, 63)" stroke-width="3.18" stroke-opacity="1.00" stroke-linejoin="round"/>
<path d="M265.84,726.12 C265.84,726.12 265.14,726.12 265.14,726.12 C264.17,726.16 259.65,724.06 255.78,723.03 C252.63,722.04 246.96,720.37 244.64,720.52 C243.01,720.65 240.18,721.07 239.44,721.25 C239.44,721.25 240.24,721.28 240.24,721.28" fill="none" stroke="rgb(33, 228, 63)" stroke-width="3.18" stroke-opacity="1.00" stroke-linejoin="round"/>
<path d="M242.66,722.66 C242.66,722.66 242.00,722.97 242.00,722.97 C241.60,723.78 241.62,727.38 241.62,728.46 C241.62,728.46 241.62,728.48 241.62,728.48 C241.62,728.48 241.62,727.16 241.62,727.16" fill="none" stroke="rgb(33, 228, 63)" stroke-width="3.18" stroke-opacity="1.00" stroke-linejoin="round"/>
<path d="M241.28,719.89 C241.34,719.80 240.20,711.62 240.25,701.05 C240.21,689.62 239.82,680.91 240.29,674.72 C240.78,668.49 244.38,653.67 246.67,648.42 C250.94,638.81 252.33,633.81 254.22,623.18 C256.55,609.30 256.15,589.04 255.87,582.46 C255.84,576.03 257.56,569.99 262.12,555.90 C264.99,546.63 269.03,519.94 270.96,507.12 C272.86,495.25 273.02,493.86 273.13,493.38 C273.65,492.72 282.11,508.08 283.50,511.73 C286.07,518.49 287.23,526.72 288.39,539.90 C288.81,545.21 289.06,564.64 289.12,566.49 C289.28,571.05 290.36,577.72 290.80,579.61 C291.58,582.83 293.08,586.75 294.49,587.84 C295.86,588.85 300.72,590.45 303.23,590.85 C306.69,591.37 317.88,591.05 325.20,589.61 C326.05,589.46 326.90,589.30 327.75,589.15" fill="none" stroke="rgb(33, 228, 63)" stroke-width="3.18" stroke-opacity="1.00" stroke-linejoin="round"/>
<path d="M323.25,485.04 C323.25,485.04 323.25,484.69 323.25,484.69 C324.24,486.76 326.34,502.11 327.46,508.66 C328.30,514.99 329.13,531.65 329.39,540.15 C329.44,547.59 329.50,565.02 329.60,565.30 C330.23,566.49 345.77,562.49 351.60,561.11 C354.34,560.43 371.68,556.11 375.79,554.78 C387.61,550.87 411.49,538.06 412.25,537.69 C415.33,536.23 421.20,534.62 422.85,535.03 C424.31,535.42 426.43,538.44 427.16,540.58 C428.06,543.29 428.65,547.67 428.64,551.42 C428.59,554.88 427.37,561.05 426.28,564.10 C423.51,571.78 415.84,584.98 413.66,587.44 C412.91,588.26 411.46,589.02 410.98,588.94 C409.79,588.61 408.42,585.76 408.07,582.74 C407.66,579.08 407.31,575.16 407.00,574.39 C406.51,573.30 404.21,573.00 401.18,573.63 C389.54,576.37 357.22,583.70 349.98,584.73 C343.88,585.59 332.81,586.46 332.60,586.44 C332.29,586.41 331.37,586.27 329.82,586.03" fill="none" stroke="rgb(33, 228, 63)" stroke-width="3.18" stroke-opacity="1.00" stroke-linejoin="round"/>
<path d="M231.94,498.18 C231.94,498.18 231.94,497.83 231.94,497.83 C231.35,499.12 228.66,503.74 227.12,506.36 C224.14,511.42 221.15,515.53 221.02,516.51 C221.74,517.58 225.36,519.36 226.29,519.11 C230.29,517.82 240.18,499.92 240.15,499.81 C239.24,499.52 237.47,499.19 234.80,498.84 C233.97,498.73 233.13,498.63 232.30,498.53" fill="none" stroke="rgb(33, 228, 63)" stroke-width="3.18" stroke-opacity="1.00" stroke-linejoin="round"/>
<path d="M299.39,494.72 C299.39,494.72 299.04,494.72 299.04,494.72 C299.13,494.96 304.32,499.36 305.92,501.25 C306.38,501.80 312.90,510.65 313.71,511.68 C315.93,514.51 316.77,514.68 317.02,514.63 C317.02,514.63 319.33,505.37 319.33,505.37 C317.80,503.61 304.13,493.22 303.76,493.06 C303.27,492.87 301.98,492.98 300.98,493.28 C300.53,493.42 297.65,494.38 296.62,494.72" fill="none" stroke="rgb(33, 228, 63)" stroke-width="3.18" stroke-opacity="1.00" stroke-linejoin="round"/>
<path d="M89.79,84.61 C89.76,87.19 90.45,103.25 90.45,110.42 C90.52,112.32 90.51,113.44 90.42,113.77 C90.31,114.22 89.90,114.82 89.21,115.59" fill="none" stroke="rgb(0, 0, 255)" stroke-width="3.18" stroke-opacity="1.00" stroke-linejoin="round"/>
<path d="M19.08,125.58 C19.08,125.58 18.75,125.58 18.75,125.58 C18.14,126.07 20.69,134.16 21.21,135.73 C22.31,139.07 22.95,146.86 23.05,147.91 C23.09,148.39 23.25,149.16 23.53,150.22" fill="none" stroke="rgb(0, 0, 255)" stroke-width="3.18" stroke-opacity="1.00" stroke-linejoin="round"/>
<path d="M49.48,179.77 C49.48,179.77 49.51,185.26 50.25,188.14 C50.60,189.47 55.14,204.32 56.50,213.39 C57.31,219.24 57.40,220.50 57.41,222.81 C57.41,223.36 57.41,223.90 57.41,224.45" fill="none" stroke="rgb(0, 0, 255)" stroke-width="3.18" stroke-opacity="1.00" stroke-linejoin="round"/>
<path d="M135.39,91.22 C135.49,93.30 136.69,104.99 136.70,116.86 C136.72,130.09 136.37,136.76 134.99,142.05 C134.88,142.46 134.62,143.28 134.21,144.52" fill="none" stroke="rgb(0, 0, 255)" stroke-width="3.18" stroke-opacity="1.00" stroke-linejoin="round"/>
<path d="M111.60,171.18 C111.81,174.27 113.86,183.61 115.77,195.25 C117.24,205.22 117.55,215.47 117.57,215.62 C117.62,215.87 117.77,216.18 118.03,216.55" fill="none" stroke="rgb(0, 0, 255)" stroke-width="3.18" stroke-opacity="1.00" stroke-linejoin="round"/>
<path d="M124.16,231.98 C124.16,238.04 124.22,250.19 123.73,256.52 C121.85,276.48 120.42,286.13 119.62,289.61 C119.62,289.61 119.53,289.51 119.53,289.51" fill="none" stroke="rgb(0, 0, 255)" stroke-width="3.18" stroke-opacity="1.00" stroke-linejoin="round"/>
<path d="M23.71,326.48 C23.71,326.48 23.05,326.48 23.05,326.48 C23.13,329.59 24.16,334.54 25.83,339.30 C27.00,342.57 30.16,349.00 30.29,349.15 C30.49,349.40 30.94,349.70 31.63,350.05" fill="none" stroke="rgb(0, 0, 255)" stroke-width="3.18" stroke-opacity="1.00" stroke-linejoin="round"/>
<path d="M74.59,364.15 C74.68,366.63 75.54,370.81 77.13,376.17 C79.60,384.45 80.52,393.38 80.54,393.50 C80.62,393.88 80.92,394.83 81.44,396.34" fill="none" stroke="rgb(0, 0, 255)" stroke-width="3.18" stroke-opacity="1.00" stroke-linejoin="round"/>
<path d="M56.75,405.78 C56.75,407.04 56.75,409.82 56.74,411.35 C56.75,421.94 58.68,436.38 58.80,436.83 C58.91,437.18 59.22,437.90 59.74,438.97" fill="none" stroke="rgb(0, 0, 255)" stroke-width="3.18" stroke-opacity="1.00" stroke-linejoin="round"/>
<path d="M19.74,429.57 C19.74,429.57 19.41,429.90 19.41,429.90 C18.68,434.47 19.97,445.94 21.91,457.63 C22.26,459.76 22.92,463.10 22.97,463.73 C23.03,464.37 23.06,465.62 23.05,467.47" fill="none" stroke="rgb(0, 0, 255)" stroke-width="3.18" stroke-opacity="1.00" stroke-linejoin="round"/>
<path d="M42.87,481.12 C42.79,485.63 43.02,490.44 43.64,493.68 C44.80,499.27 45.70,513.01 45.32,519.07 C45.12,522.08 44.31,526.08 44.30,526.10 C44.27,526.43 44.23,527.16 44.19,528.30" fill="none" stroke="rgb(0, 0, 255)" stroke-width="3.18" stroke-opacity="1.00" stroke-linejoin="round"/>
<path d="M19.08,532.00 C19.08,532.00 19.08,531.34 19.08,531.34 C20.00,539.58 24.69,557.58 25.48,561.12 C26.41,565.40 27.85,574.93 27.88,575.22 C28.02,576.65 28.35,577.83 29.39,580.88" fill="none" stroke="rgb(0, 0, 255)" stroke-width="3.18" stroke-opacity="1.00" stroke-linejoin="round"/>
<path d="M21.06,597.43 C21.06,597.43 20.40,596.77 20.40,596.77 C20.34,609.98 22.89,625.63 23.09,626.76 C23.09,626.76 24.77,627.76 24.77,627.76" fill="none" stroke="rgb(0, 0, 255)" stroke-width="3.18" stroke-opacity="1.00" stroke-linejoin="round"/>
<path d="M13.79,715.06 C13.79,715.06 12.47,715.25 12.47,715.25 C12.55,717.68 12.11,721.33 11.94,722.64 C11.87,723.13 11.83,723.67 11.81,724.26" fill="none" stroke="rgb(0, 0, 255)" stroke-width="3.18" stroke-opacity="1.00" stroke-linejoin="round"/>
<path d="M42.21,715.06 C42.09,715.54 41.98,715.87 41.88,716.05 C41.00,717.76 40.87,722.28 40.94,723.57 C40.94,723.57 41.90,723.65 41.90,723.65" fill="none" stroke="rgb(0, 0, 255)" stroke-width="3.18" stroke-opacity="1.00" stroke-linejoin="round"/>
<path d="M66.66,671.44 C66.53,673.98 67.44,678.29 69.35,683.71 C70.56,687.11 71.18,689.81 71.29,690.56 C71.29,690.56 71.29,689.07 71.29,689.07" fill="none" stroke="rgb(0, 0, 255)" stroke-width="3.18" stroke-opacity="1.00" stroke-linejoin="round"/>
<path d="M68.64,557.78 C67.81,558.55 67.32,559.25 67.32,560.22 C67.34,561.46 70.57,581.38 70.68,586.14 C70.69,586.58 70.69,587.25 70.68,588.16 C70.68,588.16 71.63,587.20 71.63,587.20" fill="none" stroke="rgb(0, 0, 255)" stroke-width="3.18" stroke-opacity="1.00" stroke-linejoin="round"/>
<path d="M89.13,481.78 C89.13,481.78 88.47,481.78 88.47,481.78 C88.71,483.20 94.33,497.86 95.71,503.75 C97.86,513.03 98.92,521.39 99.22,521.88 C99.44,522.24 100.11,522.91 101.21,523.89" fill="none" stroke="rgb(0, 0, 255)" stroke-width="3.18" stroke-opacity="1.00" stroke-linejoin="round"/>
<path d="M124.82,506.23 C124.82,506.23 124.16,506.23 124.16,506.23 C124.07,508.87 126.79,527.15 127.13,530.70 C127.21,531.51 128.23,548.04 128.85,551.86 C128.85,551.86 129.81,552.41 129.81,552.41" fill="none" stroke="rgb(0, 0, 255)" stroke-width="3.18" stroke-opacity="1.00" stroke-linejoin="round"/>
<path d="M140.02,590.82 C140.02,590.82 139.36,590.49 139.36,590.49 C139.36,590.49 139.36,590.16 139.36,590.16 C139.11,600.16 143.04,620.40 143.98,624.49 C143.98,624.49 143.98,623.61 143.98,623.61" fill="none" stroke="rgb(0, 0, 255)" stroke-width="3.18" stroke-opacity="1.00" stroke-linejoin="round"/>
<path d="M114.24,661.53 C114.49,668.28 114.87,680.91 114.90,687.48 C114.89,695.26 114.89,709.22 115.26,712.76 C115.26,712.76 117.64,713.66 117.64,713.66" fill="none" stroke="rgb(0, 0, 255)" stroke-width="3.18" stroke-opacity="1.00" stroke-linejoin="round"/>
<path d="M158.52,651.62 C158.52,651.63 158.50,653.83 158.51,654.50 C158.70,665.70 163.39,684.08 163.79,685.23 C163.79,685.23 163.81,678.05 163.81,678.05" fill="none" stroke="rgb(0, 0, 255)" stroke-width="3.18" stroke-opacity="1.00" stroke-linejoin="round"/>
<path d="M171.08,569.67 C171.08,569.67 170.41,569.67 170.41,569.67 C170.58,569.93 172.57,575.34 173.65,578.99 C175.30,584.77 176.02,588.90 176.27,593.65 C176.60,601.37 176.98,609.91 177.02,610.73 C177.02,610.74 177.02,610.77 177.02,610.76" fill="none" stroke="rgb(0, 0, 255)" stroke-width="3.18" stroke-opacity="1.00" stroke-linejoin="round"/>
<path d="M136.71,411.07 C136.68,413.26 137.38,417.65 138.62,423.39 C141.15,434.74 142.02,443.52 142.00,448.28 C142.00,448.45 142.00,448.58 142.00,448.65" fill="none" stroke="rgb(0, 0, 255)" stroke-width="3.18" stroke-opacity="1.00" stroke-linejoin="round"/>
<path d="M170.41,454.02 C170.36,455.01 171.34,459.05 171.92,461.34 C175.29,476.78 175.11,491.04 175.10,491.92 C175.10,491.92 175.56,491.31 175.56,491.31" fill="none" stroke="rgb(0, 0, 255)" stroke-width="3.18" stroke-opacity="1.00" stroke-linejoin="round"/>
<path d="M185.61,386.62 C185.55,386.53 186.65,391.20 186.85,396.11 C187.07,405.44 186.25,416.52 186.28,417.68 C186.28,417.68 186.28,416.05 186.28,416.05" fill="none" stroke="rgb(0, 0, 255)" stroke-width="3.18" stroke-opacity="1.00" stroke-linejoin="round"/>
<path d="M192.88,105.76 C192.88,105.76 192.22,105.76 192.22,105.76 C192.27,125.43 193.22,149.06 193.52,163.86 C193.53,166.78 193.55,170.60 193.54,171.51" fill="none" stroke="rgb(0, 0, 255)" stroke-width="3.18" stroke-opacity="1.00" stroke-linejoin="round"/>
<path d="M182.31,197.62 C181.71,199.77 181.82,203.59 182.73,208.59 C184.08,215.85 184.32,229.92 184.37,239.03 C184.37,239.03 184.78,239.31 184.78,239.31" fill="none" stroke="rgb(0, 0, 255)" stroke-width="3.18" stroke-opacity="1.00" stroke-linejoin="round"/>
<path d="M249.72,60.16 C249.71,60.15 249.77,64.35 249.06,75.46 C248.52,85.08 246.04,114.69 245.23,116.33 C245.14,116.49 244.97,116.68 244.70,116.87" fill="none" stroke="rgb(0, 0, 255)" stroke-width="3.18" stroke-opacity="1.00" stroke-linejoin="round"/>
<path d="M247.73,169.20 C247.73,169.20 247.73,168.54 247.73,168.54 C247.91,176.07 249.70,205.05 249.72,205.92 C249.72,206.22 249.72,206.75 249.72,207.53" fill="none" stroke="rgb(0, 0, 255)" stroke-width="3.18" stroke-opacity="1.00" stroke-linejoin="round"/>
<path d="M280.78,93.86 C280.78,93.86 281.44,125.88 281.44,125.88 C281.44,125.88 282.42,125.27 282.42,125.27" fill="none" stroke="rgb(0, 0, 255)" stroke-width="3.18" stroke-opacity="1.00" stroke-linejoin="round"/>
<path d="M346.86,64.13 C346.86,71.87 346.87,88.56 346.88,97.51 C346.91,103.03 345.60,125.86 345.54,126.11 C345.48,126.33 345.30,126.60 345.00,126.90" fill="none" stroke="rgb(0, 0, 255)" stroke-width="3.18" stroke-opacity="1.00" stroke-linejoin="round"/>
<path d="M315.80,165.90 C315.80,165.90 315.47,165.90 315.47,165.90 C315.28,165.69 314.76,167.73 314.48,170.02 C314.42,170.53 314.55,192.59 314.01,199.35 C313.84,201.45 313.82,202.94 313.88,205.21 C313.88,205.21 315.55,204.39 315.55,204.39" fill="none" stroke="rgb(0, 0, 255)" stroke-width="3.18" stroke-opacity="1.00" stroke-linejoin="round"/>
<path d="M362.06,171.18 C362.06,171.18 362.72,210.77 362.72,210.77 C362.72,210.77 362.72,209.85 362.72,209.85" fill="none" stroke="rgb(0, 0, 255)" stroke-width="3.18" stroke-opacity="1.00" stroke-linejoin="round"/>
<path d="M395.10,117.65 C395.10,117.65 394.44,117.65 394.44,117.65 C394.44,117.65 394.44,148.56 394.44,148.56 C394.44,148.56 396.06,146.03 396.06,146.03" fill="none" stroke="rgb(0, 0, 255)" stroke-width="3.18" stroke-opacity="1.00" stroke-linejoin="round"/>
<path d="M434.09,95.85 C434.09,95.85 433.21,95.85 433.21,95.85 C432.26,97.33 431.45,100.87 430.96,104.41 C429.27,116.97 427.81,134.46 427.77,135.12 C427.77,135.12 429.65,135.01 429.65,135.01" fill="none" stroke="rgb(0, 0, 255)" stroke-width="3.18" stroke-opacity="1.00" stroke-linejoin="round"/>
<path d="M486.96,116.33 C486.96,116.33 485.64,152.32 485.64,152.32 C485.64,152.32 486.20,152.66 486.20,152.66" fill="none" stroke="rgb(0, 0, 255)" stroke-width="3.18" stroke-opacity="1.00" stroke-linejoin="round"/>
<path d="M458.54,167.22 C458.54,167.22 457.22,167.22 457.22,167.22 C456.45,169.43 455.84,172.75 455.05,178.86 C454.03,187.49 452.16,203.49 452.17,205.27 C452.18,205.48 452.29,205.75 452.52,206.09" fill="none" stroke="rgb(0, 0, 255)" stroke-width="3.18" stroke-opacity="1.00" stroke-linejoin="round"/>
<path d="M497.53,224.05 C497.53,224.05 497.53,223.39 497.53,223.39 C497.60,234.30 497.10,243.16 495.89,252.95 C495.45,256.60 494.96,262.23 494.87,264.17 C494.87,264.17 494.23,264.36 494.23,264.36" fill="none" stroke="rgb(0, 0, 255)" stroke-width="3.18" stroke-opacity="1.00" stroke-linejoin="round"/>
<path d="M461.85,233.30 C461.85,233.30 461.52,233.63 461.52,233.63 C461.38,234.73 461.15,251.24 460.32,262.57 C460.18,264.19 459.96,266.94 459.86,268.06 C459.86,268.06 459.20,265.68 459.20,265.68" fill="none" stroke="rgb(0, 0, 255)" stroke-width="3.18" stroke-opacity="1.00" stroke-linejoin="round"/>
<path d="M415.59,233.30 C415.59,233.30 414.93,233.30 414.93,233.30 C414.36,236.32 414.28,251.87 414.29,259.41 C414.26,270.11 413.83,273.41 413.61,274.53 C413.61,274.53 413.08,274.40 413.08,274.40" fill="none" stroke="rgb(0, 0, 255)" stroke-width="3.18" stroke-opacity="1.00" stroke-linejoin="round"/>
<path d="M373.95,244.54 C373.95,244.54 373.95,243.22 373.95,243.22 C373.95,243.22 374.67,294.24 374.67,294.24 C374.67,294.24 376.60,292.12 376.60,292.12" fill="none" stroke="rgb(0, 0, 255)" stroke-width="3.18" stroke-opacity="1.00" stroke-linejoin="round"/>
<path d="M369.99,366.79 C369.99,372.65 370.30,386.53 371.97,392.57 C371.97,392.57 373.95,386.62 373.95,386.62" fill="none" stroke="rgb(0, 0, 255)" stroke-width="3.18" stroke-opacity="1.00" stroke-linejoin="round"/>
<path d="M410.30,365.47 C410.30,367.89 410.30,373.98 410.30,377.65 C410.36,391.92 410.24,393.49 409.92,396.09 C409.92,396.09 411.62,393.23 411.62,393.23" fill="none" stroke="rgb(0, 0, 255)" stroke-width="3.18" stroke-opacity="1.00" stroke-linejoin="round"/>
<path d="M448.63,313.93 C448.63,313.93 447.97,313.93 447.97,313.93 C447.97,315.75 447.97,318.13 448.02,320.00 C448.30,329.43 449.26,349.13 449.44,352.25 C449.44,352.25 451.47,352.38 451.47,352.38" fill="none" stroke="rgb(0, 0, 255)" stroke-width="3.18" stroke-opacity="1.00" stroke-linejoin="round"/>
<path d="M502.82,348.29 C502.82,348.29 502.16,362.75 502.16,362.75 C502.16,362.75 502.65,361.84 502.65,361.84" fill="none" stroke="rgb(0, 0, 255)" stroke-width="3.18" stroke-opacity="1.00" stroke-linejoin="round"/>
<path d="M456.56,414.37 C456.56,414.37 457.22,416.36 457.22,416.36 C457.31,416.36 457.40,416.36 457.49,416.36 C457.62,416.36 457.75,416.36 457.88,416.36 C457.88,416.33 457.83,422.64 457.78,426.85 C457.23,447.41 457.09,458.41 456.65,459.26 C456.45,459.64 455.86,460.43 454.89,461.60" fill="none" stroke="rgb(0, 0, 255)" stroke-width="3.18" stroke-opacity="1.00" stroke-linejoin="round"/>
<path d="M438.72,486.41 C438.72,486.41 437.40,485.08 437.40,485.08 C436.91,486.78 436.69,490.61 436.67,496.92 C436.69,501.14 436.74,508.14 436.74,508.10 C436.74,508.10 436.74,504.91 436.74,504.91" fill="none" stroke="rgb(0, 0, 255)" stroke-width="3.18" stroke-opacity="1.00" stroke-linejoin="round"/>
<path d="M396.42,468.56 C396.42,468.56 395.76,468.56 395.76,468.56 C395.77,468.52 395.54,470.82 395.52,470.99 C395.18,474.95 395.10,491.00 395.10,496.08 C395.10,496.08 395.76,493.01 395.76,493.01" fill="none" stroke="rgb(0, 0, 255)" stroke-width="3.18" stroke-opacity="1.00" stroke-linejoin="round"/>
<path d="M351.49,469.88 C350.91,472.67 350.75,474.34 350.93,476.68 C351.60,485.44 353.54,494.22 353.51,494.66 C353.51,494.66 354.47,495.11 354.47,495.11" fill="none" stroke="rgb(0, 0, 255)" stroke-width="3.18" stroke-opacity="1.00" stroke-linejoin="round"/>
<path d="M272.18,555.79 C272.18,556.69 272.21,558.26 272.23,559.40 C272.44,566.63 274.18,580.08 274.33,580.37 C274.33,580.37 275.87,581.41 275.87,581.41" fill="none" stroke="rgb(0, 0, 255)" stroke-width="3.18" stroke-opacity="1.00" stroke-linejoin="round"/>
<path d="M267.56,632.45 C267.56,632.45 266.90,631.79 266.90,631.79 C266.94,634.10 267.04,635.56 267.36,638.17 C268.91,651.27 268.94,654.08 268.88,654.92 C268.88,654.92 269.54,653.60 269.54,653.60" fill="none" stroke="rgb(0, 0, 255)" stroke-width="3.18" stroke-opacity="1.00" stroke-linejoin="round"/>
<path d="M280.12,666.82 C280.04,673.65 282.41,686.64 282.72,689.11 C282.80,689.74 283.04,691.52 283.42,693.22 C283.42,693.22 283.42,692.19 283.42,692.19" fill="none" stroke="rgb(0, 0, 255)" stroke-width="3.18" stroke-opacity="1.00" stroke-linejoin="round"/>
<path d="M302.58,603.38 C302.58,603.38 301.92,603.64 301.92,603.64 C301.92,603.64 303.28,623.14 303.28,623.14 C303.28,623.14 304.21,622.73 304.21,622.73" fill="none" stroke="rgb(0, 0, 255)" stroke-width="3.18" stroke-opacity="1.00" stroke-linejoin="round"/>
<path d="M337.61,646.99 C337.61,646.99 336.95,646.00 336.95,646.00 C336.95,646.00 336.29,646.20 336.29,646.20 C336.29,646.20 335.69,680.98 335.69,680.98 C335.69,680.98 336.95,680.69 336.95,680.69" fill="none" stroke="rgb(0, 0, 255)" stroke-width="3.18" stroke-opacity="1.00" stroke-linejoin="round"/>
<path d="M352.81,713.74 C352.81,713.74 351.82,713.74 351.82,713.74 C351.82,713.74 350.19,730.49 350.19,730.49 C350.19,730.49 351.15,729.95 351.15,729.95" fill="none" stroke="rgb(0, 0, 255)" stroke-width="3.18" stroke-opacity="1.00" stroke-linejoin="round"/>
<path d="M388.49,645.67 C387.68,646.38 387.20,647.16 387.17,648.18 C387.16,648.58 387.98,670.13 386.98,676.97 C386.47,680.31 385.28,684.66 384.79,686.26 C384.79,686.26 386.77,684.97 386.77,684.97" fill="none" stroke="rgb(0, 0, 255)" stroke-width="3.18" stroke-opacity="1.00" stroke-linejoin="round"/>
<path d="M409.64,697.88 C409.64,697.88 408.98,697.88 408.98,697.88 C408.98,704.61 408.93,717.86 408.11,722.26 C407.71,724.32 405.18,731.30 405.01,731.74 C404.96,731.86 404.95,732.04 404.96,732.26" fill="none" stroke="rgb(0, 0, 255)" stroke-width="3.18" stroke-opacity="1.00" stroke-linejoin="round"/>
<path d="M444.00,603.38 C444.00,603.38 443.67,603.38 443.67,603.38 C443.30,603.88 443.35,610.68 443.36,613.73 C443.38,627.53 443.15,632.67 442.21,633.07 C442.62,631.14 442.95,629.75 443.44,627.92 C443.63,627.23 443.82,626.54 444.00,625.84" fill="none" stroke="rgb(0, 0, 255)" stroke-width="3.18" stroke-opacity="1.00" stroke-linejoin="round"/>
<path d="M484.98,518.79 C484.98,518.79 483.66,562.98 483.66,562.98 C483.66,562.98 481.67,559.10 481.67,559.10" fill="none" stroke="rgb(0, 0, 255)" stroke-width="3.18" stroke-opacity="1.00" stroke-linejoin="round"/>
<path d="M501.50,584.87 C500.03,586.54 499.21,588.40 498.88,591.19 C498.83,591.60 496.94,612.14 496.27,615.71 C496.01,617.05 495.19,618.78 493.66,621.73 C493.66,621.73 493.10,620.90 493.10,620.90" fill="none" stroke="rgb(0, 0, 255)" stroke-width="3.18" stroke-opacity="1.00" stroke-linejoin="round"/>
<path d="M493.57,655.58 C493.57,655.58 492.25,655.58 492.25,655.58 C491.79,656.21 491.56,659.92 491.51,665.85 C491.45,672.15 491.14,675.24 489.66,678.86 C489.03,680.42 487.39,684.30 486.83,685.22 C486.59,685.61 486.19,686.08 485.64,686.64" fill="none" stroke="rgb(0, 0, 255)" stroke-width="3.18" stroke-opacity="1.00" stroke-linejoin="round"/>
<path d="M466.47,697.22 C466.50,697.20 466.50,697.31 466.47,697.55 C466.44,697.86 464.78,714.11 464.03,715.78 C463.86,716.15 463.51,716.69 463.00,717.38 C463.00,717.38 461.19,714.40 461.19,714.40" fill="none" stroke="rgb(0, 0, 255)" stroke-width="3.18" stroke-opacity="1.00" stroke-linejoin="round"/>
<path d="M439.38,674.75 C439.38,674.75 437.56,673.42 437.56,673.42 C436.52,674.57 436.08,675.63 435.90,677.89 C434.89,689.76 434.11,691.53 433.16,692.93 C433.16,692.93 431.06,690.56 431.06,690.56" fill="none" stroke="rgb(0, 0, 255)" stroke-width="3.18" stroke-opacity="1.00" stroke-linejoin="round"/>
<path d="M429.71,42.59 C429.67,42.50 430.27,40.84 429.68,38.67 C429.20,37.02 426.36,31.96 425.26,30.95 C422.86,28.78 417.33,26.49 415.13,25.90 C412.68,25.25 407.22,24.66 405.14,24.81 C402.31,25.04 398.17,26.57 396.01,28.24 C394.03,29.86 390.13,33.02 387.51,34.41 C377.00,39.91 359.20,45.05 349.94,47.00 C345.64,47.92 341.15,50.59 339.94,52.98 C338.98,55.07 338.36,59.02 338.70,60.56 C339.08,62.04 342.23,64.92 344.68,65.69 C347.39,66.53 359.97,68.22 369.66,68.21 C373.00,68.19 383.36,68.09 389.47,69.29 C395.00,70.41 407.67,70.75 414.23,71.11 C415.49,71.16 425.28,71.24 428.40,71.12 C431.00,70.99 436.81,69.93 440.35,68.70 C441.41,68.33 450.12,64.71 450.60,64.52 C454.95,62.76 459.31,59.97 462.25,56.86 C465.04,53.86 468.37,49.50 468.68,47.23 C468.78,46.19 467.27,44.35 465.54,43.61 C461.84,42.09 451.09,41.52 446.60,42.05 C439.73,42.88 433.29,44.37 433.14,44.48 C432.94,44.64 432.59,44.90 432.11,45.27" fill="none" stroke="rgb(131, 143, 221)" stroke-width="3.18" stroke-opacity="1.00" stroke-linejoin="round"/>
<path d="M258.17,31.55 C254.27,31.66 238.97,35.45 232.86,37.12 C228.79,38.09 214.38,39.17 206.07,40.38 C199.52,41.35 173.80,50.62 171.41,52.20 C168.46,54.23 165.17,57.17 164.70,58.42 C164.10,60.19 164.12,63.84 165.05,65.84 C165.99,67.78 169.42,70.95 171.51,71.91 C173.59,72.83 180.14,73.87 183.03,73.61 C185.68,73.35 197.24,71.00 206.50,70.12 C211.88,69.61 225.36,66.40 232.28,64.67 C239.69,62.67 255.17,58.43 259.27,57.85 C265.90,56.93 272.35,57.24 277.45,58.35 C281.01,59.14 288.03,61.43 291.75,62.50 C295.85,63.67 299.62,64.17 302.59,64.21 C305.49,64.24 310.07,63.64 312.98,62.75 C314.94,62.14 322.18,59.38 323.24,58.21 C324.00,57.35 328.07,47.93 328.44,45.17 C328.89,41.54 327.81,36.83 326.52,35.28 C325.31,33.91 322.14,31.85 320.20,31.24 C316.48,30.12 308.91,30.51 298.47,31.61 C296.31,31.84 287.60,33.03 285.99,33.05 C281.04,33.08 262.51,31.35 260.34,31.43 C259.26,31.48 258.18,31.52 257.09,31.56" fill="none" stroke="rgb(131, 143, 221)" stroke-width="3.18" stroke-opacity="1.00" stroke-linejoin="round"/>
<path d="M106.35,39.77 C106.04,39.52 105.93,38.86 106.00,37.40 C106.05,35.71 105.16,33.80 103.40,31.87 C102.77,31.20 97.27,26.90 95.12,26.31 C93.50,25.89 87.10,25.74 84.12,25.90 C80.74,26.10 76.81,27.09 73.98,28.49 C71.14,29.93 67.70,32.20 66.07,33.67 C62.26,37.18 58.82,43.90 58.37,45.96 C58.41,45.21 51.93,41.84 48.15,41.88 C44.92,41.96 38.94,43.27 37.01,44.01 C35.72,44.52 30.24,48.04 26.59,49.64 C23.16,51.13 19.23,53.29 18.38,54.79 C17.40,56.61 17.44,63.73 17.87,65.96 C18.46,68.64 21.25,72.68 23.43,74.23 C25.40,75.54 33.76,77.59 36.49,78.41 C40.37,79.58 47.11,80.64 50.48,81.15 C54.47,81.67 63.28,81.81 65.39,81.97 C67.49,82.14 75.14,83.24 78.17,83.11 C78.44,83.10 96.68,81.75 101.61,80.66 C105.91,79.70 113.04,79.41 119.48,79.51 C122.14,79.55 129.68,77.72 130.39,77.57 C135.10,76.55 139.33,74.86 140.61,73.84 C142.00,72.67 144.04,68.46 144.47,65.38 C145.37,58.58 144.82,46.83 143.79,43.54 C143.27,41.98 141.60,40.53 139.56,39.77 C138.91,39.53 135.70,38.55 134.02,38.02" fill="none" stroke="rgb(131, 143, 221)" stroke-width="3.18" stroke-opacity="1.00" stroke-linejoin="round"/>
<path d="M134.02,38.02 C133.14,37.85 132.53,37.73 132.18,37.67 C128.00,36.97 114.51,36.96 111.52,37.65 C108.79,38.32 107.62,38.68 107.05,39.22 C106.71,39.54 106.13,40.07 105.30,40.82" fill="none" stroke="rgb(131, 143, 221)" stroke-width="3.18" stroke-opacity="1.00" stroke-linejoin="round"/>
<path d="M199.24,703.69 C199.24,703.69 198.98,702.47 198.98,702.47 C197.14,700.97 188.89,698.36 185.88,699.06 C184.36,699.46 183.55,701.47 184.06,702.24 C185.24,703.81 191.60,704.91 197.37,705.00 C198.22,705.00 199.07,705.00 199.92,705.00" fill="none" stroke="rgb(54, 54, 145)" stroke-width="3.18" stroke-opacity="1.00" stroke-linejoin="round"/>
<path d="M187.66,711.99 C187.00,711.64 186.51,711.34 186.19,711.11 C185.44,710.58 183.05,708.63 182.32,708.26 C180.64,707.43 176.89,707.44 176.10,707.85 C175.38,708.26 174.16,710.38 173.94,711.43 C173.73,712.55 174.65,713.77 176.02,714.15 C177.51,714.50 182.74,714.22 185.81,713.66 C186.14,713.60 186.69,713.48 187.44,713.30" fill="none" stroke="rgb(54, 54, 145)" stroke-width="3.18" stroke-opacity="1.00" stroke-linejoin="round"/>
<path d="M180.89,721.81 C179.96,720.91 176.53,720.63 173.77,722.01 C171.85,722.99 171.14,724.47 171.29,725.07 C171.58,726.01 173.64,727.22 175.23,727.10 C176.77,726.95 180.55,725.22 181.59,724.31 C182.11,723.86 184.03,721.95 184.18,721.81 C184.67,721.36 185.15,720.92 185.64,720.47" fill="none" stroke="rgb(54, 54, 145)" stroke-width="3.18" stroke-opacity="1.00" stroke-linejoin="round"/>
<path d="M247.50,713.95 C247.58,713.70 248.42,712.79 254.02,705.15 C254.54,704.45 260.18,697.47 261.10,696.67 C262.34,695.62 265.05,694.64 265.90,695.00 C266.77,695.42 267.19,697.98 266.57,699.63 C265.91,701.31 263.10,705.05 260.89,707.08 C258.74,709.01 251.73,713.08 250.82,713.57 C250.48,713.75 250.12,713.99 249.73,714.30" fill="none" stroke="rgb(54, 54, 145)" stroke-width="3.18" stroke-opacity="1.00" stroke-linejoin="round"/>
<path d="M272.40,709.80 C272.14,709.49 271.92,709.18 271.86,708.94 C271.68,708.28 271.89,705.82 272.54,704.28 C273.41,702.27 274.44,701.00 275.43,699.99 C276.35,700.62 276.65,700.99 276.75,701.68 C277.19,705.84 272.56,711.64 271.95,712.38 C271.70,712.68 271.40,713.09 271.03,713.62" fill="none" stroke="rgb(54, 54, 145)" stroke-width="3.18" stroke-opacity="1.00" stroke-linejoin="round"/>
<path d="M278.30,723.78 C278.30,723.70 278.30,723.63 278.30,723.56 C278.29,723.27 278.29,723.09 278.30,723.02 C278.36,722.59 278.79,721.78 279.32,721.18 C280.49,719.88 283.31,718.35 284.72,718.22 C286.08,718.13 287.82,719.36 288.35,720.39 C288.79,721.28 288.87,722.78 288.45,723.66 C287.19,725.80 278.75,725.42 278.00,725.25 C277.70,725.17 277.22,724.99 276.55,724.70" fill="none" stroke="rgb(54, 54, 145)" stroke-width="3.18" stroke-opacity="1.00" stroke-linejoin="round"/>
</g>
</svg>
