<?xml version="1.0" encoding="UTF-8" standalone="no"?>
<!DOCTYPE svg PUBLIC "-//W3C//DTD SVG 1.1//EN" "http://www.w3.org/Graphics/SVG/1.1/DTD/svg11.dtd">
<svg width="64.20" height="90.84" viewBox="0.00 0.00 535.00 757.00" xmlns="http://www.w3.org/2000/svg" xmlns:xlink="http://www.w3.org/1999/xlink">
<g stroke-linecap="round" id="192">
<path d="M317.10,439.55 C316.81,439.46 316.08,439.25 315.90,439.22 C315.12,439.11 312.08,442.49 313.40,444.54 C314.20,445.71 316.06,446.33 316.23,446.43 C316.37,447.05 316.37,447.71 316.41,447.76 C316.45,447.84 316.59,448.03 316.85,448.35" fill="none" stroke="rgb(33, 228, 63)" stroke-width="2.39" stroke-opacity="1.00" stroke-linejoin="round"/>
<path d="M316.62,440.51 C316.63,440.51 316.63,440.49 316.62,440.45 C316.61,440.40 316.58,440.27 316.53,440.05 C316.97,439.17 322.41,437.71 324.81,439.28 C325.65,439.86 326.16,441.62 326.03,442.60 C325.83,443.77 322.81,445.90 322.46,446.87 C322.39,447.06 322.23,447.55 321.99,448.33" fill="none" stroke="rgb(33, 228, 63)" stroke-width="2.39" stroke-opacity="1.00" stroke-linejoin="round"/>
<path d="M315.55,441.82 C315.55,441.82 315.49,441.87 315.49,441.87 C315.49,441.87 315.49,442.02 315.49,442.02 C315.77,442.28 319.41,442.00 321.23,441.57 C321.53,441.49 321.78,441.47 321.98,441.52 C322.10,441.54 322.33,441.63 322.69,441.79" fill="none" stroke="rgb(33, 228, 63)" stroke-width="2.39" stroke-opacity="1.00" stroke-linejoin="round"/>
<path d="M317.22,449.43 C317.31,449.44 317.04,449.43 316.95,449.43 C314.79,449.44 312.76,450.20 312.46,450.68 C312.28,450.98 311.93,452.63 311.77,453.16 C311.56,453.84 308.12,454.03 307.21,453.80 C306.21,453.51 304.74,452.10 304.24,450.95 C303.78,449.84 303.48,447.19 303.37,447.14 C303.37,447.14 299.10,446.94 299.10,446.94 C298.39,447.51 299.83,454.51 301.59,456.89 C302.53,458.12 305.04,459.25 306.93,459.33 C310.62,459.44 314.24,457.72 314.96,457.23 C314.96,457.23 315.89,473.00 315.89,473.00 C315.89,473.00 324.56,472.91 324.56,472.91 C325.11,471.93 326.00,456.49 325.80,452.34 C325.68,450.19 325.20,449.08 324.73,449.00 C324.49,448.98 320.29,449.67 319.41,449.60 C318.85,449.54 317.72,449.30 317.42,449.13 C317.28,449.05 317.10,448.87 316.86,448.60" fill="none" stroke="rgb(33, 228, 63)" stroke-width="2.39" stroke-opacity="1.00" stroke-linejoin="round"/>
<path d="M320.67,450.98 C320.67,451.51 320.67,452.05 320.67,452.58 C320.67,460.12 320.67,469.20 320.67,470.74 C320.67,470.74 320.79,469.91 320.79,469.91" fill="none" stroke="rgb(33, 228, 63)" stroke-width="2.39" stroke-opacity="1.00" stroke-linejoin="round"/>
<path d="M318.29,453.72 C318.29,454.27 318.29,454.83 318.29,455.38 C318.29,455.38 318.29,455.39 318.29,455.38" fill="none" stroke="rgb(33, 228, 63)" stroke-width="2.39" stroke-opacity="1.00" stroke-linejoin="round"/>
<path d="M318.77,458.72 C318.74,458.69 318.72,458.67 318.71,458.66 C318.69,458.65 318.67,458.63 318.65,458.62 C318.65,459.44 318.78,460.48 318.77,460.61 C318.76,460.62 318.76,460.66 318.77,460.71" fill="none" stroke="rgb(33, 228, 63)" stroke-width="2.39" stroke-opacity="1.00" stroke-linejoin="round"/>
<path d="M318.88,463.60 C318.74,464.11 318.68,464.59 318.65,465.44 C318.64,465.61 318.64,465.71 318.65,465.73 C318.65,465.74 318.68,465.79 318.73,465.86" fill="none" stroke="rgb(33, 228, 63)" stroke-width="2.39" stroke-opacity="1.00" stroke-linejoin="round"/>
<path d="M302.58,447.05 C302.58,447.05 302.34,447.05 302.34,447.05 C303.46,446.47 304.31,442.84 303.48,441.89 C302.65,440.98 299.24,440.63 298.54,442.13 C297.66,444.10 298.73,446.29 298.93,446.37 C299.11,446.44 299.66,446.58 300.57,446.81" fill="none" stroke="rgb(33, 228, 63)" stroke-width="2.39" stroke-opacity="1.00" stroke-linejoin="round"/>
<path d="M326.50,454.07 C326.50,454.11 326.54,454.26 326.61,454.36 C326.87,454.72 329.08,455.08 329.70,454.81 C330.79,454.29 332.01,452.88 332.07,452.26 C332.10,451.84 332.22,444.14 332.16,442.73 C332.11,441.17 332.78,440.72 333.48,440.66 C334.42,440.60 335.74,441.28 336.13,442.33 C336.51,443.41 336.66,446.29 336.34,446.45 C336.14,446.49 334.89,446.59 333.82,446.64 C333.46,446.65 332.84,446.67 331.98,446.70" fill="none" stroke="rgb(33, 228, 63)" stroke-width="2.39" stroke-opacity="1.00" stroke-linejoin="round"/>
<path d="M336.50,446.34 C336.50,446.21 336.50,446.60 336.50,446.73 C336.48,451.29 335.41,454.98 334.55,456.26 C333.37,457.87 329.49,459.23 327.55,458.72 C327.30,458.64 326.79,458.34 326.50,458.12" fill="none" stroke="rgb(33, 228, 63)" stroke-width="2.39" stroke-opacity="1.00" stroke-linejoin="round"/>
<path d="M319.72,446.46 C319.72,446.46 319.24,446.46 319.24,446.46 C319.24,446.46 320.79,446.34 320.79,446.34 C320.79,446.34 320.88,446.43 320.88,446.43" fill="none" stroke="rgb(33, 228, 63)" stroke-width="2.39" stroke-opacity="1.00" stroke-linejoin="round"/>
<path d="M314.96,473.36 C314.48,476.81 313.74,477.79 312.42,478.73 C308.63,481.41 308.77,488.14 308.77,488.20 C308.77,488.20 309.48,487.64 309.48,487.64" fill="none" stroke="rgb(33, 228, 63)" stroke-width="2.39" stroke-opacity="1.00" stroke-linejoin="round"/>
<path d="M319.72,477.88 C319.40,477.88 318.87,477.88 318.69,477.89 C317.23,478.04 314.50,481.75 314.35,483.55 C314.22,485.20 314.27,489.61 314.47,493.30 C314.48,493.62 313.77,494.16 312.33,494.33 C309.56,494.64 306.45,494.14 305.73,493.63 C304.94,493.05 304.35,491.71 304.38,491.21 C304.45,490.52 305.48,489.19 306.31,488.73 C308.56,487.52 314.70,486.77 315.19,486.66 C315.49,486.59 315.80,486.53 316.11,486.46" fill="none" stroke="rgb(33, 228, 63)" stroke-width="2.39" stroke-opacity="1.00" stroke-linejoin="round"/>
<path d="M320.23,478.95 C320.74,478.92 324.41,478.85 324.70,479.65 C325.46,481.99 324.30,489.58 324.69,491.62 C324.94,491.76 325.18,491.84 325.43,491.81 C325.51,491.79 325.71,491.75 326.03,491.69" fill="none" stroke="rgb(33, 228, 63)" stroke-width="2.39" stroke-opacity="1.00" stroke-linejoin="round"/>
<path d="M325.91,472.17 C325.91,472.17 325.55,471.93 325.55,471.93 C325.98,472.28 326.50,473.73 326.74,476.05 C326.84,477.01 327.42,488.08 327.57,489.37 C327.57,489.37 327.67,489.33 327.67,489.33" fill="none" stroke="rgb(33, 228, 63)" stroke-width="2.39" stroke-opacity="1.00" stroke-linejoin="round"/>
<path d="M326.38,489.54 C326.38,489.54 326.26,489.43 326.26,489.43 C326.31,489.32 327.83,488.56 328.59,488.40 C330.22,488.07 332.64,488.16 333.11,488.36 C334.24,488.92 334.68,491.43 334.70,491.86 C334.41,492.01 326.34,492.49 326.26,492.49 C326.10,492.49 325.82,492.46 325.43,492.40" fill="none" stroke="rgb(33, 228, 63)" stroke-width="2.39" stroke-opacity="1.00" stroke-linejoin="round"/>
<path d="M417.50,443.81 C417.51,443.31 417.39,442.96 417.03,442.86 C416.16,442.68 413.59,444.80 412.64,447.51 C411.52,450.77 411.97,455.39 413.07,456.39 C413.96,457.17 418.31,457.92 421.36,457.02 C424.32,456.09 427.99,451.98 428.38,449.95 C428.71,447.99 426.31,444.44 424.01,443.22 C421.86,442.10 419.05,442.24 417.91,442.87 C417.61,443.04 416.22,444.05 415.81,444.34" fill="none" stroke="rgb(33, 228, 63)" stroke-width="2.39" stroke-opacity="1.00" stroke-linejoin="round"/>
<path d="M412.60,451.51 C412.60,451.40 412.64,451.11 412.73,450.91 C413.04,450.23 414.18,449.45 414.67,449.46 C414.90,449.47 416.82,450.46 417.61,450.48 C418.04,450.49 419.45,450.11 420.20,450.39 C421.74,450.97 425.73,451.17 426.05,451.13 C426.20,451.10 426.45,451.02 426.82,450.89" fill="none" stroke="rgb(33, 228, 63)" stroke-width="2.39" stroke-opacity="1.00" stroke-linejoin="round"/>
<path d="M417.28,445.05 C417.15,445.14 416.95,445.33 416.79,445.67 C416.54,446.18 415.34,448.52 415.40,448.50 C415.46,448.47 416.04,447.64 416.49,446.99 C417.88,445.01 418.69,444.33 418.77,444.35 C418.77,444.35 417.68,448.94 417.68,448.94 C417.68,448.94 419.86,444.88 419.86,444.88 C420.11,445.25 420.15,447.23 420.17,448.00 C420.19,448.74 420.34,449.39 420.42,449.48 C420.67,449.31 420.85,448.85 421.11,447.66 C421.50,445.88 421.62,445.68 421.77,445.54 C421.77,445.54 423.01,449.85 423.01,449.85 C423.01,449.85 423.88,445.77 423.88,445.77 C423.88,445.77 424.95,449.03 424.95,449.03 C424.95,449.03 425.94,447.08 425.94,447.08 C426.02,447.22 426.07,447.47 426.09,447.97 C426.10,448.40 426.13,449.84 426.14,450.26" fill="none" stroke="rgb(33, 228, 63)" stroke-width="2.39" stroke-opacity="1.00" stroke-linejoin="round"/>
<path d="M413.32,454.23 C413.49,454.17 413.66,454.14 413.83,454.14 C414.31,454.11 416.77,453.97 416.93,453.96 C416.99,453.96 417.12,453.96 417.31,453.96" fill="none" stroke="rgb(33, 228, 63)" stroke-width="2.39" stroke-opacity="1.00" stroke-linejoin="round"/>
<path d="M412.91,459.12 C412.91,459.12 412.72,459.03 412.72,459.03 C412.45,459.22 412.04,460.19 411.28,462.50 C410.66,464.26 409.73,465.45 408.49,465.81 C407.38,466.10 402.70,465.92 401.05,466.14 C399.82,466.31 398.13,466.91 397.82,467.46 C397.17,468.68 398.71,470.08 400.05,469.84 C401.50,469.57 402.95,468.11 403.32,466.46 C403.47,467.67 403.80,468.77 404.11,469.17 C405.69,470.88 414.78,468.44 414.84,468.41 C414.85,468.42 414.66,470.05 414.65,471.80 C414.66,472.30 414.75,472.69 414.90,472.99 C414.94,473.06 415.00,473.15 415.10,473.28" fill="none" stroke="rgb(33, 228, 63)" stroke-width="2.39" stroke-opacity="1.00" stroke-linejoin="round"/>
<path d="M424.36,457.34 C424.36,457.34 424.27,457.34 424.27,457.34 C424.44,457.32 425.90,457.31 426.85,457.76 C427.80,458.23 430.55,460.73 430.97,460.96 C431.41,461.20 435.77,463.65 436.05,464.55 C435.80,464.78 433.36,464.77 431.40,464.77 C428.92,464.77 427.16,464.19 426.42,463.50 C425.87,462.98 424.98,461.65 424.82,461.34 C424.72,461.17 424.82,469.52 425.17,471.98 C425.21,472.27 425.26,472.59 425.34,472.93" fill="none" stroke="rgb(33, 228, 63)" stroke-width="2.39" stroke-opacity="1.00" stroke-linejoin="round"/>
<path d="M413.67,474.08 C413.79,474.10 414.61,474.04 415.61,473.92 C423.81,472.93 425.86,472.92 426.67,473.25 C426.67,473.25 426.32,473.01 426.32,473.01" fill="none" stroke="rgb(33, 228, 63)" stroke-width="2.39" stroke-opacity="1.00" stroke-linejoin="round"/>
<path d="M415.36,473.19 C415.30,473.19 414.91,473.23 414.73,473.30 C414.23,473.52 411.23,477.24 410.82,477.88 C409.95,479.28 409.51,481.45 409.61,482.49 C409.83,484.38 411.97,486.57 414.80,487.69 C415.46,487.96 418.26,489.87 419.37,489.70 C420.45,489.52 421.80,488.00 421.70,486.86 C421.56,485.49 417.32,483.10 417.21,482.90 C416.89,482.27 416.81,480.13 416.99,479.34 C417.18,478.59 418.38,477.80 419.35,477.67 C420.37,477.55 422.25,478.29 422.88,478.89 C424.81,480.76 425.85,484.86 426.60,485.50 C427.16,485.94 429.06,486.15 430.04,485.96 C431.04,485.75 432.33,484.76 432.63,484.03 C432.89,483.37 432.83,482.16 432.50,481.54 C432.10,480.83 426.57,474.25 426.14,473.65 C426.12,473.61 426.07,473.52 426.01,473.38" fill="none" stroke="rgb(33, 228, 63)" stroke-width="2.39" stroke-opacity="1.00" stroke-linejoin="round"/>
<path d="M385.28,477.78 C385.00,477.71 383.96,477.36 383.40,477.42 C380.98,477.79 377.73,477.09 376.77,476.04 C376.37,475.61 375.94,474.96 375.69,474.49 C375.69,474.49 378.49,479.99 378.49,479.99 C378.37,480.22 376.38,480.65 375.38,481.17 C374.45,481.66 372.87,483.56 372.25,484.65 C371.64,485.77 371.55,487.40 372.15,488.31 C372.34,488.59 373.48,489.30 374.71,489.61 C376.42,490.02 383.13,489.88 383.16,489.88 C383.90,489.92 385.03,494.62 384.77,495.19 C384.74,495.26 380.73,497.06 380.62,497.91 C380.55,498.74 382.20,499.84 383.72,499.84 C385.39,499.83 387.80,498.74 388.56,497.78 C388.94,497.25 389.25,495.66 389.20,492.24 C389.20,491.45 389.56,491.01 390.22,490.94 C393.02,490.65 395.65,490.77 395.99,490.98 C396.26,491.28 396.71,493.53 396.90,495.18 C396.98,495.97 394.71,496.70 394.52,497.39 C394.87,498.36 398.31,499.09 401.13,497.95 C402.20,497.50 403.11,496.73 403.29,495.89 C403.46,494.94 402.93,490.22 402.98,489.93 C403.06,489.52 404.43,487.45 404.85,486.08 C405.86,482.63 405.29,477.41 404.84,477.25 C404.49,477.35 403.52,478.61 403.03,479.86 C402.54,481.16 401.97,485.90 401.84,486.05 C401.31,486.09 396.43,482.58 393.20,481.81 C393.18,481.80 388.97,481.13 388.42,480.60 C388.04,480.21 387.42,479.69 386.92,479.40 C385.92,478.83 383.96,478.96 383.53,479.00" fill="none" stroke="rgb(228, 103, 33)" stroke-width="2.39" stroke-opacity="1.00" stroke-linejoin="round"/>
<path d="M372.47,489.63 C372.54,488.84 374.96,487.89 375.53,488.50 C376.27,489.35 375.44,490.08 375.31,490.15 C375.28,490.17 375.24,490.18 375.19,490.20" fill="none" stroke="rgb(228, 103, 33)" stroke-width="2.39" stroke-opacity="1.00" stroke-linejoin="round"/>
<path d="M34.63,318.44 C34.63,318.44 34.63,317.98 34.63,317.98 C33.63,321.12 26.70,340.14 26.12,344.75 C26.06,345.30 25.98,346.46 25.91,348.24" fill="none" stroke="rgb(33, 98, 228)" stroke-width="2.39" stroke-opacity="1.00" stroke-linejoin="round"/>
<path d="M73.68,328.09 C73.04,328.05 72.48,328.17 71.87,328.64 C69.36,330.58 54.13,344.61 52.78,345.69 C51.67,346.57 42.90,351.82 42.46,352.84 C42.35,353.12 42.32,353.67 42.37,354.50" fill="none" stroke="rgb(33, 98, 228)" stroke-width="2.39" stroke-opacity="1.00" stroke-linejoin="round"/>
<path d="M82.87,351.51 C82.41,351.52 81.31,351.54 81.00,351.62 C80.08,351.86 58.16,367.37 55.48,368.92 C55.48,368.92 55.33,369.61 55.33,369.61" fill="none" stroke="rgb(33, 98, 228)" stroke-width="2.39" stroke-opacity="1.00" stroke-linejoin="round"/>
<path d="M60.36,397.45 C59.81,397.37 55.68,395.68 53.33,396.20 C51.21,396.70 45.57,399.47 43.10,401.69 C42.65,402.09 40.08,404.79 39.08,405.79 C39.08,405.79 38.80,405.83 38.80,405.83" fill="none" stroke="rgb(33, 98, 228)" stroke-width="2.39" stroke-opacity="1.00" stroke-linejoin="round"/>
<path d="M31.42,525.15 C30.88,525.16 29.46,525.13 29.29,525.15 C28.28,525.27 24.16,528.60 23.65,529.12 C23.52,529.26 23.46,529.41 23.49,529.57" fill="none" stroke="rgb(33, 98, 228)" stroke-width="2.39" stroke-opacity="1.00" stroke-linejoin="round"/>
<path d="M115.48,525.61 C115.26,525.39 115.03,525.24 114.79,525.15 C113.64,524.75 112.08,524.76 110.79,525.24 C105.59,527.21 94.95,534.88 93.12,535.95 C91.18,537.08 88.69,537.89 88.50,537.83 C88.50,537.83 90.21,533.48 90.21,533.48" fill="none" stroke="rgb(33, 98, 228)" stroke-width="2.39" stroke-opacity="1.00" stroke-linejoin="round"/>
<path d="M102.16,236.68 C102.16,236.68 103.54,235.76 103.54,235.76 C101.98,236.24 101.02,236.64 99.56,237.47 C94.33,240.43 86.65,245.86 86.39,246.19 C86.17,246.46 85.84,247.10 85.39,248.11" fill="none" stroke="rgb(33, 98, 228)" stroke-width="2.39" stroke-opacity="1.00" stroke-linejoin="round"/>
<path d="M74.14,257.81 C72.47,258.55 71.43,259.16 70.08,260.25 C68.76,261.33 66.58,263.34 65.92,264.15 C65.45,264.73 64.35,266.54 63.11,267.91" fill="none" stroke="rgb(33, 98, 228)" stroke-width="2.39" stroke-opacity="1.00" stroke-linejoin="round"/>
<path d="M45.66,252.29 C45.72,253.10 44.17,268.27 43.94,269.79 C43.90,270.02 43.85,270.65 44.15,271.75" fill="none" stroke="rgb(33, 98, 228)" stroke-width="2.39" stroke-opacity="1.00" stroke-linejoin="round"/>
<path d="M105.83,333.60 C105.83,333.60 106.75,332.68 106.75,332.68 C106.75,332.68 98.16,348.60 98.16,348.60 C98.16,348.60 98.30,349.29 98.30,349.29" fill="none" stroke="rgb(33, 98, 228)" stroke-width="2.39" stroke-opacity="1.00" stroke-linejoin="round"/>
<path d="M128.80,326.71 C126.74,329.84 118.99,346.01 118.95,346.09 C118.80,346.44 118.78,346.75 118.90,347.02 C118.90,347.02 120.53,344.62 120.53,344.62" fill="none" stroke="rgb(33, 98, 228)" stroke-width="2.39" stroke-opacity="1.00" stroke-linejoin="round"/>
<path d="M136.61,326.71 C134.14,329.20 131.75,332.75 130.33,335.46 C128.35,339.29 124.85,346.89 124.43,348.03 C124.43,348.03 125.13,348.76 125.13,348.76" fill="none" stroke="rgb(33, 98, 228)" stroke-width="2.39" stroke-opacity="1.00" stroke-linejoin="round"/>
<path d="M153.61,328.09 C152.75,328.32 150.24,330.98 148.66,333.20 C148.11,333.98 143.29,341.11 141.48,343.79 C139.12,347.20 138.08,348.18 136.91,349.10 C136.73,349.24 136.52,349.40 136.29,349.57" fill="none" stroke="rgb(33, 98, 228)" stroke-width="2.39" stroke-opacity="1.00" stroke-linejoin="round"/>
<path d="M127.88,358.86 C127.79,358.85 127.71,358.85 127.65,358.86 C127.21,358.98 125.93,359.85 125.16,360.76 C124.11,361.99 119.61,368.95 118.01,371.45 C117.33,372.53 116.79,373.01 115.86,373.46" fill="none" stroke="rgb(33, 98, 228)" stroke-width="2.39" stroke-opacity="1.00" stroke-linejoin="round"/>
<path d="M90.68,371.27 C89.70,373.42 88.22,377.94 88.42,379.11 C88.45,379.26 88.52,379.36 88.64,379.42" fill="none" stroke="rgb(33, 98, 228)" stroke-width="2.39" stroke-opacity="1.00" stroke-linejoin="round"/>
<path d="M190.35,362.08 C189.49,362.19 186.01,366.16 183.99,368.49 C181.59,371.09 176.19,376.91 175.84,377.40 C175.65,377.66 175.44,378.07 175.20,378.62" fill="none" stroke="rgb(33, 98, 228)" stroke-width="2.39" stroke-opacity="1.00" stroke-linejoin="round"/>
<path d="M171.98,360.24 C171.64,360.59 170.36,361.87 169.42,362.80 C167.86,364.40 160.16,375.51 157.41,380.48 C157.25,380.77 157.10,381.01 156.96,381.20" fill="none" stroke="rgb(33, 98, 228)" stroke-width="2.39" stroke-opacity="1.00" stroke-linejoin="round"/>
<path d="M147.63,390.10 C145.46,392.01 140.54,396.34 139.03,398.57 C138.84,398.85 138.81,399.02 138.94,399.08 C138.94,399.08 139.83,399.29 139.83,399.29" fill="none" stroke="rgb(33, 98, 228)" stroke-width="2.39" stroke-opacity="1.00" stroke-linejoin="round"/>
<path d="M168.31,396.07 C165.78,396.07 164.10,396.36 162.79,397.26 C160.76,398.67 156.70,402.46 156.40,402.88 C156.20,403.17 155.92,403.72 155.58,404.53" fill="none" stroke="rgb(33, 98, 228)" stroke-width="2.39" stroke-opacity="1.00" stroke-linejoin="round"/>
<path d="M98.02,402.04 C96.11,402.88 92.86,405.50 91.24,407.49 C89.86,409.20 88.14,412.38 87.69,413.29 C87.69,413.29 87.92,413.99 87.92,413.99" fill="none" stroke="rgb(33, 98, 228)" stroke-width="2.39" stroke-opacity="1.00" stroke-linejoin="round"/>
<path d="M130.64,412.15 C130.64,412.15 124.36,416.61 124.36,416.61 C124.36,416.61 124.90,416.74 124.90,416.74" fill="none" stroke="rgb(33, 98, 228)" stroke-width="2.39" stroke-opacity="1.00" stroke-linejoin="round"/>
<path d="M188.06,393.77 C186.37,394.92 185.29,395.69 184.84,396.07 C184.24,396.58 178.96,403.27 178.97,403.26 C178.97,403.26 180.25,401.58 180.25,401.58" fill="none" stroke="rgb(33, 98, 228)" stroke-width="2.39" stroke-opacity="1.00" stroke-linejoin="round"/>
<path d="M208.73,392.40 C208.50,392.26 208.27,392.26 208.04,392.40 C205.97,393.70 193.73,412.68 192.91,413.85 C186.30,423.41 183.46,428.33 181.74,430.12 C181.74,430.12 182.20,428.25 182.20,428.25" fill="none" stroke="rgb(33, 98, 228)" stroke-width="2.39" stroke-opacity="1.00" stroke-linejoin="round"/>
<path d="M224.35,361.62 C224.35,361.62 224.35,361.16 224.35,361.16 C223.60,363.77 222.98,365.54 222.01,367.61 C220.47,370.91 218.57,374.63 218.09,375.57 C218.09,375.57 218.37,374.48 218.37,374.48" fill="none" stroke="rgb(33, 98, 228)" stroke-width="2.39" stroke-opacity="1.00" stroke-linejoin="round"/>
<path d="M251.45,336.81 C251.22,336.88 249.38,338.19 245.75,343.94 C244.39,346.11 238.83,354.97 238.61,356.26 C238.57,356.55 238.44,357.15 238.25,358.06" fill="none" stroke="rgb(33, 98, 228)" stroke-width="2.39" stroke-opacity="1.00" stroke-linejoin="round"/>
<path d="M176.11,442.01 C175.33,441.74 167.76,453.50 162.74,458.82 C158.27,463.50 153.24,465.68 152.39,465.89 C152.39,465.89 152.69,465.89 152.69,465.89" fill="none" stroke="rgb(33, 98, 228)" stroke-width="2.39" stroke-opacity="1.00" stroke-linejoin="round"/>
<path d="M147.63,436.95 C147.47,437.10 147.32,437.26 147.17,437.41 C145.53,439.27 143.00,443.04 140.92,446.80 C139.53,449.31 136.76,454.33 135.17,456.00 C134.90,456.29 134.47,456.67 133.88,457.15" fill="none" stroke="rgb(33, 98, 228)" stroke-width="2.39" stroke-opacity="1.00" stroke-linejoin="round"/>
<path d="M102.16,441.55 C101.20,441.62 99.78,443.89 97.41,449.69 C93.79,458.48 91.38,463.54 89.71,466.42 C88.92,467.79 88.38,468.52 87.46,469.57" fill="none" stroke="rgb(33, 98, 228)" stroke-width="2.39" stroke-opacity="1.00" stroke-linejoin="round"/>
<path d="M63.57,470.94 C63.57,470.94 61.85,470.49 61.85,470.49 C61.85,470.49 56.00,489.50 56.00,489.50 C56.00,489.50 56.14,489.41 56.14,489.41" fill="none" stroke="rgb(33, 98, 228)" stroke-width="2.39" stroke-opacity="1.00" stroke-linejoin="round"/>
<path d="M79.65,470.49 C78.83,470.67 77.65,472.54 75.96,476.19 C72.83,482.92 67.38,489.70 66.72,490.36 C66.65,490.42 66.53,490.53 66.35,490.69" fill="none" stroke="rgb(33, 98, 228)" stroke-width="2.39" stroke-opacity="1.00" stroke-linejoin="round"/>
<path d="M49.33,440.63 C49.33,440.63 48.41,440.17 48.41,440.17 C47.26,440.58 44.54,446.51 43.88,448.02 C43.26,449.41 41.86,452.40 41.62,452.90 C41.62,452.90 42.22,453.37 42.22,453.37" fill="none" stroke="rgb(33, 98, 228)" stroke-width="2.39" stroke-opacity="1.00" stroke-linejoin="round"/>
<path d="M181.17,487.02 C180.11,486.44 179.52,486.15 179.06,486.10 C177.22,485.98 173.58,487.97 169.87,491.30 C166.62,494.26 164.24,496.88 163.25,498.01 C163.25,498.01 163.25,497.74 163.25,497.74" fill="none" stroke="rgb(33, 98, 228)" stroke-width="2.39" stroke-opacity="1.00" stroke-linejoin="round"/>
<path d="M206.89,441.09 C204.99,441.16 203.73,441.49 202.56,442.46 C199.23,445.26 191.72,454.64 190.84,455.75 C190.84,455.75 192.19,454.87 192.19,454.87" fill="none" stroke="rgb(33, 98, 228)" stroke-width="2.39" stroke-opacity="1.00" stroke-linejoin="round"/>
<path d="M209.65,452.11 C207.47,452.98 205.96,453.84 204.27,455.33 C201.63,457.64 193.11,466.31 189.66,469.34 C189.66,469.34 190.10,469.56 190.10,469.56" fill="none" stroke="rgb(33, 98, 228)" stroke-width="2.39" stroke-opacity="1.00" stroke-linejoin="round"/>
<path d="M217.46,410.31 C217.53,410.33 217.33,410.92 216.74,412.32 C215.57,415.06 211.16,425.28 211.04,426.22 C211.04,426.22 211.25,426.50 211.25,426.50 C211.25,426.50 212.86,424.55 212.86,424.55" fill="none" stroke="rgb(33, 98, 228)" stroke-width="2.39" stroke-opacity="1.00" stroke-linejoin="round"/>
<path d="M239.96,401.58 C239.63,404.00 239.40,405.35 238.96,407.40 C238.19,411.01 236.80,417.56 236.19,420.51 C235.97,421.58 235.92,422.30 235.91,423.34 C235.91,423.34 236.75,422.71 236.75,422.71" fill="none" stroke="rgb(33, 98, 228)" stroke-width="2.39" stroke-opacity="1.00" stroke-linejoin="round"/>
<path d="M266.15,408.47 C263.87,409.61 259.85,414.18 258.11,416.15 C247.28,428.46 233.76,441.26 230.85,443.62 C230.85,443.62 232.16,442.77 232.16,442.77" fill="none" stroke="rgb(33, 98, 228)" stroke-width="2.39" stroke-opacity="1.00" stroke-linejoin="round"/>
<path d="M269.82,369.89 C269.82,369.89 269.59,369.89 269.59,369.89 C267.33,371.69 262.04,383.31 260.57,387.13 C260.50,387.30 260.44,387.49 260.37,387.70 C260.37,387.70 262.47,383.67 262.47,383.67" fill="none" stroke="rgb(33, 98, 228)" stroke-width="2.39" stroke-opacity="1.00" stroke-linejoin="round"/>
<path d="M291.87,336.36 C291.47,336.46 291.19,336.59 291.03,336.74 C290.79,336.96 285.49,344.75 283.61,346.79 C281.56,348.98 266.82,362.53 266.73,362.69 C266.62,362.92 266.45,363.50 266.23,364.42" fill="none" stroke="rgb(33, 98, 228)" stroke-width="2.39" stroke-opacity="1.00" stroke-linejoin="round"/>
<path d="M277.63,444.30 C277.63,444.30 277.40,443.15 277.40,443.15 C277.40,443.15 276.86,443.00 276.86,443.00 C276.04,444.01 273.38,451.61 272.82,454.21 C272.20,457.41 271.59,460.15 271.38,461.08" fill="none" stroke="rgb(33, 98, 228)" stroke-width="2.39" stroke-opacity="1.00" stroke-linejoin="round"/>
<path d="M263.85,475.08 C263.68,475.20 263.53,475.35 263.39,475.54 C262.18,477.18 258.13,488.69 256.89,493.13 C256.44,494.68 255.88,495.71 255.12,496.67" fill="none" stroke="rgb(33, 98, 228)" stroke-width="2.39" stroke-opacity="1.00" stroke-linejoin="round"/>
<path d="M249.15,505.40 C249.15,505.40 238.19,522.36 238.19,522.36 C238.19,522.36 238.13,521.86 238.13,521.86" fill="none" stroke="rgb(33, 98, 228)" stroke-width="2.39" stroke-opacity="1.00" stroke-linejoin="round"/>
<path d="M241.34,477.38 C240.19,477.78 239.46,478.06 239.14,478.20 C237.29,479.05 233.12,483.64 230.70,487.29 C229.34,489.37 228.68,490.89 228.07,493.15 C228.07,493.15 229.40,491.62 229.40,491.62" fill="none" stroke="rgb(33, 98, 228)" stroke-width="2.39" stroke-opacity="1.00" stroke-linejoin="round"/>
<path d="M152.69,226.11 C152.69,226.11 152.69,225.65 152.69,225.65 C153.36,224.82 156.40,222.69 158.53,222.11 C160.80,221.52 163.81,221.47 166.76,221.63 C169.35,221.77 177.50,225.87 178.18,226.26 C178.49,226.44 178.96,226.81 179.61,227.36" fill="none" stroke="rgb(33, 98, 228)" stroke-width="2.39" stroke-opacity="1.00" stroke-linejoin="round"/>
<path d="M174.74,279.86 C174.09,280.97 172.01,283.88 171.98,284.12 C171.98,284.12 171.98,284.23 171.98,284.45" fill="none" stroke="rgb(33, 98, 228)" stroke-width="2.39" stroke-opacity="1.00" stroke-linejoin="round"/>
<path d="M243.64,214.17 C243.57,215.42 243.66,215.95 244.15,217.16 C244.23,217.35 244.32,217.64 244.42,218.02" fill="none" stroke="rgb(33, 98, 228)" stroke-width="2.39" stroke-opacity="1.00" stroke-linejoin="round"/>
<path d="M336.09,325.57 C336.09,325.57 335.77,325.57 335.77,325.57 C333.73,328.36 323.40,347.34 322.99,348.54 C322.81,349.07 322.65,349.88 322.53,350.99" fill="none" stroke="rgb(33, 98, 228)" stroke-width="2.39" stroke-opacity="1.00" stroke-linejoin="round"/>
<path d="M339.24,341.33 C337.66,343.68 335.16,348.42 334.16,350.81 C333.68,351.98 331.24,358.38 330.85,359.23 C330.61,359.77 330.20,360.54 329.63,361.53" fill="none" stroke="rgb(33, 98, 228)" stroke-width="2.39" stroke-opacity="1.00" stroke-linejoin="round"/>
<path d="M329.15,370.02 C327.72,370.47 323.26,374.40 321.49,376.38 C306.11,393.78 300.50,399.46 299.49,401.59 C299.36,401.89 299.34,402.22 299.46,402.57" fill="none" stroke="rgb(33, 98, 228)" stroke-width="2.39" stroke-opacity="1.00" stroke-linejoin="round"/>
<path d="M313.39,413.21 C311.80,414.34 309.38,417.40 306.97,420.20 C305.71,421.67 302.95,424.85 302.44,425.47 C300.72,427.55 299.49,429.26 298.82,430.44" fill="none" stroke="rgb(33, 98, 228)" stroke-width="2.39" stroke-opacity="1.00" stroke-linejoin="round"/>
<path d="M294.48,458.60 C292.17,461.90 288.90,467.49 288.46,468.16 C288.14,468.65 283.52,474.67 283.20,475.11 C282.99,475.39 282.66,475.86 282.20,476.53" fill="none" stroke="rgb(33, 98, 228)" stroke-width="2.39" stroke-opacity="1.00" stroke-linejoin="round"/>
<path d="M362.57,329.04 C362.24,328.78 361.89,328.66 361.36,328.72 C359.96,328.95 348.68,342.89 347.67,344.42 C347.67,344.42 348.38,345.12 348.38,345.12" fill="none" stroke="rgb(33, 98, 228)" stroke-width="2.39" stroke-opacity="1.00" stroke-linejoin="round"/>
<path d="M366.98,338.81 C366.98,338.81 366.09,338.81 366.09,338.81 C365.04,339.45 363.18,342.39 360.68,346.96 C359.13,349.77 356.27,354.58 356.07,354.94 C355.84,355.37 355.37,356.30 354.66,357.72" fill="none" stroke="rgb(33, 98, 228)" stroke-width="2.39" stroke-opacity="1.00" stroke-linejoin="round"/>
<path d="M349.96,381.68 C348.14,382.67 345.39,385.94 343.71,387.93 C341.85,390.14 337.92,394.85 335.85,397.36 C335.85,397.36 337.67,395.55 337.67,395.55" fill="none" stroke="rgb(33, 98, 228)" stroke-width="2.39" stroke-opacity="1.00" stroke-linejoin="round"/>
<path d="M397.25,329.67 C396.73,329.71 395.85,330.04 395.04,330.71 C392.41,332.88 384.11,343.71 382.42,347.28 C381.72,348.78 380.46,351.48 379.91,352.68" fill="none" stroke="rgb(33, 98, 228)" stroke-width="2.39" stroke-opacity="1.00" stroke-linejoin="round"/>
<path d="M386.21,365.29 C384.43,365.27 383.30,365.35 382.67,365.82 C381.51,366.67 369.64,378.69 369.22,379.62 C369.07,379.94 368.68,380.91 368.04,382.53" fill="none" stroke="rgb(33, 98, 228)" stroke-width="2.39" stroke-opacity="1.00" stroke-linejoin="round"/>
<path d="M371.08,398.08 C370.24,398.01 368.68,399.12 367.36,400.91 C363.30,406.40 355.60,416.79 355.41,417.01 C354.08,418.63 353.52,419.81 352.80,422.35" fill="none" stroke="rgb(33, 98, 228)" stroke-width="2.39" stroke-opacity="1.00" stroke-linejoin="round"/>
<path d="M345.86,428.65 C345.70,428.67 343.70,428.85 341.55,430.87 C339.34,432.96 333.63,437.31 333.35,437.57 C333.17,437.73 332.93,438.02 332.62,438.43" fill="none" stroke="rgb(33, 98, 228)" stroke-width="2.39" stroke-opacity="1.00" stroke-linejoin="round"/>
<path d="M352.17,448.51 C352.17,448.51 352.48,448.20 352.48,448.20 C352.40,449.29 350.76,453.30 348.50,456.36 C346.29,459.34 343.82,462.08 342.81,462.98 C342.81,462.98 343.66,462.38 343.66,462.38" fill="none" stroke="rgb(33, 98, 228)" stroke-width="2.39" stroke-opacity="1.00" stroke-linejoin="round"/>
<path d="M340.50,461.12 C338.32,462.39 336.98,463.35 335.55,464.77 C334.12,466.19 333.07,467.35 331.54,469.15 C331.54,469.15 332.60,469.61 332.60,469.61" fill="none" stroke="rgb(33, 98, 228)" stroke-width="2.39" stroke-opacity="1.00" stroke-linejoin="round"/>
<path d="M365.72,456.39 C364.17,457.17 361.04,461.34 359.30,463.16 C357.40,465.13 354.47,467.37 353.26,468.25 C353.26,468.25 354.08,467.18 354.08,467.18" fill="none" stroke="rgb(33, 98, 228)" stroke-width="2.39" stroke-opacity="1.00" stroke-linejoin="round"/>
<path d="M381.80,420.77 C381.80,420.77 381.80,420.46 381.80,420.46 C381.60,420.61 379.83,426.71 378.72,430.55 C377.20,435.55 376.56,437.04 375.54,439.11 C375.54,439.11 376.44,439.06 376.44,439.06" fill="none" stroke="rgb(33, 98, 228)" stroke-width="2.39" stroke-opacity="1.00" stroke-linejoin="round"/>
<path d="M390.31,438.43 C389.51,438.74 389.01,438.95 388.81,439.06 C387.74,439.62 385.71,442.93 384.26,446.05 C380.58,454.41 377.59,460.18 377.24,460.83 C377.14,461.03 377.08,461.19 377.08,461.32" fill="none" stroke="rgb(33, 98, 228)" stroke-width="2.39" stroke-opacity="1.00" stroke-linejoin="round"/>
<path d="M377.39,490.76 C376.12,492.11 373.60,498.07 372.98,499.27 C372.32,500.53 366.85,509.62 366.23,511.01 C366.23,511.01 366.67,511.25 366.67,511.25" fill="none" stroke="rgb(33, 98, 228)" stroke-width="2.39" stroke-opacity="1.00" stroke-linejoin="round"/>
<path d="M303.62,516.92 C302.77,518.74 298.72,523.94 297.89,525.14 C296.53,527.10 290.59,536.26 290.11,536.72 C290.11,536.72 291.64,533.31 291.64,533.31" fill="none" stroke="rgb(33, 98, 228)" stroke-width="2.39" stroke-opacity="1.00" stroke-linejoin="round"/>
<path d="M405.13,347.95 C404.63,348.11 403.95,348.86 403.07,350.36 C402.77,350.88 399.06,357.72 397.86,360.52 C397.86,360.52 398.19,361.82 398.19,361.82" fill="none" stroke="rgb(33, 98, 228)" stroke-width="2.39" stroke-opacity="1.00" stroke-linejoin="round"/>
<path d="M438.54,339.44 C438.54,339.44 438.54,338.97 438.54,338.97 C438.15,338.67 435.97,339.22 433.05,341.40 C429.51,344.06 421.68,350.45 415.54,355.12 C415.54,355.12 415.59,355.58 415.59,355.58" fill="none" stroke="rgb(33, 98, 228)" stroke-width="2.39" stroke-opacity="1.00" stroke-linejoin="round"/>
<path d="M436.97,354.89 C436.21,354.95 435.71,355.03 435.47,355.13 C434.58,355.49 429.81,361.12 428.54,362.99 C427.90,363.94 426.67,366.05 425.91,367.41" fill="none" stroke="rgb(33, 98, 228)" stroke-width="2.39" stroke-opacity="1.00" stroke-linejoin="round"/>
<path d="M405.13,386.10 C404.92,385.87 403.71,385.62 402.24,386.28 C401.62,386.56 393.02,392.77 384.57,398.45 C384.57,398.45 385.23,399.22 385.23,399.22" fill="none" stroke="rgb(33, 98, 228)" stroke-width="2.39" stroke-opacity="1.00" stroke-linejoin="round"/>
<path d="M433.81,384.52 C433.48,384.25 433.02,384.17 432.01,384.25 C430.28,384.42 419.13,393.18 417.05,396.36 C416.87,396.63 416.54,397.21 416.04,398.10 C416.04,398.10 416.47,397.76 416.47,397.76" fill="none" stroke="rgb(33, 98, 228)" stroke-width="2.39" stroke-opacity="1.00" stroke-linejoin="round"/>
<path d="M465.02,339.44 C464.53,340.21 463.46,341.98 463.04,342.64 C459.24,348.47 453.32,354.35 448.45,358.12 C448.45,358.12 449.00,358.58 449.00,358.58" fill="none" stroke="rgb(33, 98, 228)" stroke-width="2.39" stroke-opacity="1.00" stroke-linejoin="round"/>
<path d="M470.06,365.29 C469.15,365.49 466.75,369.36 465.86,372.82 C465.75,373.25 465.70,373.72 465.72,374.22 C465.72,374.22 466.13,374.89 466.13,374.89" fill="none" stroke="rgb(33, 98, 228)" stroke-width="2.39" stroke-opacity="1.00" stroke-linejoin="round"/>
<path d="M502.53,348.58 C501.97,348.46 497.75,352.80 496.29,354.40 C495.18,355.53 483.99,366.17 483.70,366.34 C483.70,366.34 484.10,366.81 484.10,366.81" fill="none" stroke="rgb(33, 98, 228)" stroke-width="2.39" stroke-opacity="1.00" stroke-linejoin="round"/>
<path d="M515.77,361.51 C515.77,361.51 515.46,361.61 515.46,361.61 C513.80,364.50 508.80,372.16 501.90,379.53 C499.07,382.53 496.55,384.89 496.52,384.92 C496.31,385.14 495.79,385.70 494.97,386.61" fill="none" stroke="rgb(33, 98, 228)" stroke-width="2.39" stroke-opacity="1.00" stroke-linejoin="round"/>
<path d="M456.51,411.63 C456.51,411.63 455.72,411.63 455.72,411.63 C455.72,411.63 455.62,411.42 455.62,411.42 C457.34,407.49 458.08,405.39 457.68,404.52 C457.26,403.77 454.42,402.81 452.23,403.01 C448.63,403.39 429.98,409.60 425.81,412.16 C420.11,415.91 410.93,421.65 410.53,421.94 C410.42,422.02 410.30,422.15 410.17,422.35" fill="none" stroke="rgb(33, 98, 228)" stroke-width="2.39" stroke-opacity="1.00" stroke-linejoin="round"/>
<path d="M435.07,406.27 C433.16,408.40 428.85,413.64 428.14,414.60 C427.86,414.98 427.58,415.48 427.29,416.12" fill="none" stroke="rgb(33, 98, 228)" stroke-width="2.39" stroke-opacity="1.00" stroke-linejoin="round"/>
<path d="M437.60,425.82 C437.15,425.80 436.18,425.92 435.70,426.21 C434.56,426.93 427.02,437.50 425.53,438.81 C425.53,438.81 426.07,438.80 426.07,438.80" fill="none" stroke="rgb(33, 98, 228)" stroke-width="2.39" stroke-opacity="1.00" stroke-linejoin="round"/>
<path d="M482.67,399.34 C482.67,399.34 481.64,399.02 481.64,399.02 C480.31,399.47 478.51,401.08 474.93,404.63 C472.65,406.87 466.64,412.24 464.61,414.16 C464.61,414.16 464.92,414.19 464.92,414.19" fill="none" stroke="rgb(33, 98, 228)" stroke-width="2.39" stroke-opacity="1.00" stroke-linejoin="round"/>
<path d="M504.74,407.22 C504.74,407.22 503.80,407.22 503.80,407.22 C503.16,409.02 501.54,414.85 500.30,417.55 C498.90,420.56 496.83,422.92 496.26,423.22 C496.26,423.22 496.48,423.29 496.48,423.29" fill="none" stroke="rgb(33, 98, 228)" stroke-width="2.39" stroke-opacity="1.00" stroke-linejoin="round"/>
<path d="M521.13,424.87 C521.13,424.87 520.66,424.15 520.66,424.15 C520.66,424.15 520.33,424.18 520.33,424.18 C519.58,425.62 510.87,443.39 509.69,445.37 C508.56,447.25 506.66,450.09 506.07,450.76 C505.90,450.95 505.63,451.19 505.26,451.49" fill="none" stroke="rgb(33, 98, 228)" stroke-width="2.39" stroke-opacity="1.00" stroke-linejoin="round"/>
<path d="M471.64,439.69 C469.87,440.44 467.65,443.22 465.81,445.96 C464.50,448.04 462.82,450.69 461.58,452.50 C461.58,452.50 461.87,451.67 461.87,451.67" fill="none" stroke="rgb(33, 98, 228)" stroke-width="2.39" stroke-opacity="1.00" stroke-linejoin="round"/>
<path d="M477.32,447.57 C476.54,448.05 476.01,448.42 475.74,448.67 C475.15,449.22 470.68,455.53 468.65,458.40 C466.86,460.96 464.43,464.45 464.27,464.69 C464.26,464.70 464.26,464.73 464.27,464.72" fill="none" stroke="rgb(33, 98, 228)" stroke-width="2.39" stroke-opacity="1.00" stroke-linejoin="round"/>
<path d="M485.20,459.23 C484.93,459.23 484.11,459.25 483.90,459.45 C483.14,460.20 480.06,466.27 479.28,467.53 C476.27,472.38 471.21,477.24 470.11,478.19 C469.92,478.35 469.81,478.43 469.78,478.44" fill="none" stroke="rgb(33, 98, 228)" stroke-width="2.39" stroke-opacity="1.00" stroke-linejoin="round"/>
<path d="M455.88,510.62 C455.60,510.67 455.41,510.75 455.30,510.88 C455.08,511.13 451.58,517.66 448.70,521.14 C444.94,525.65 443.15,527.55 442.24,527.76 C442.24,527.76 441.78,526.72 441.78,526.72" fill="none" stroke="rgb(33, 98, 228)" stroke-width="2.39" stroke-opacity="1.00" stroke-linejoin="round"/>
<path d="M412.06,507.15 C411.34,507.09 409.32,508.06 407.89,509.89 C407.46,510.44 403.17,516.57 401.55,518.27 C400.55,519.30 399.39,520.09 397.18,521.32 C397.18,521.32 396.84,521.19 396.84,521.19" fill="none" stroke="rgb(33, 98, 228)" stroke-width="2.39" stroke-opacity="1.00" stroke-linejoin="round"/>
<path d="M498.44,481.93 C498.44,481.93 496.60,481.79 496.60,481.79 C495.70,482.97 493.27,487.43 491.69,489.43 C488.03,493.98 482.35,496.46 480.10,497.28 C480.10,497.28 480.05,496.62 480.05,496.62" fill="none" stroke="rgb(33, 98, 228)" stroke-width="2.39" stroke-opacity="1.00" stroke-linejoin="round"/>
<path d="M513.57,505.26 C512.98,505.24 511.81,505.94 510.00,507.90 C504.93,513.42 499.57,517.99 495.76,519.96 C495.40,520.14 495.17,520.19 495.07,520.11" fill="none" stroke="rgb(33, 98, 228)" stroke-width="2.39" stroke-opacity="1.00" stroke-linejoin="round"/>
<path d="M510.98,298.99 C511.03,298.99 512.63,299.02 513.07,299.11 C513.66,299.23 516.69,299.79 518.54,299.48 C520.01,299.22 522.61,298.12 525.23,296.80 C527.55,295.58 529.00,294.49 529.75,293.30 C530.93,291.32 532.01,283.55 530.94,282.03 C529.25,279.82 523.69,279.40 521.20,280.01 C521.16,279.89 522.24,276.78 521.43,275.53 C520.48,274.20 515.23,271.87 512.26,271.48 C502.37,270.28 488.11,275.93 486.13,276.47 C491.93,275.97 494.67,272.88 494.52,272.26 C493.79,270.58 489.39,268.12 486.75,267.35 C484.16,266.63 475.65,265.10 474.19,264.94 C470.48,264.55 465.71,265.22 463.31,266.12 C458.09,268.14 452.02,273.07 452.27,273.98 C453.18,275.52 457.52,274.88 459.34,273.81 C459.45,271.80 459.35,270.49 458.81,269.68 C457.35,267.55 453.76,265.50 448.15,263.00 C445.19,261.70 428.03,259.56 421.57,258.89 C415.50,258.37 403.14,258.05 396.42,258.30 C392.95,258.47 387.40,260.40 387.30,261.33 C387.30,261.33 390.26,261.68 390.26,261.68 C390.48,259.91 390.10,258.85 388.61,257.98 C384.39,255.55 375.01,254.27 363.81,253.53 C361.79,253.41 358.89,253.34 356.42,253.36 C354.60,253.40 353.20,254.19 352.45,255.48 C352.27,255.81 351.98,256.48 351.60,257.51 C352.43,257.70 352.93,257.59 353.09,257.19 C353.26,256.78 353.33,255.50 353.31,253.35 C342.19,251.15 335.09,250.26 328.47,249.09 C322.98,248.15 309.42,248.04 299.41,247.22 C294.84,246.83 291.38,246.89 290.26,248.14 C289.98,248.47 289.27,249.39 288.13,250.91 C288.53,250.75 289.46,249.59 289.55,248.65 C289.64,247.39 288.24,244.39 287.26,243.89 C285.96,243.28 273.75,243.32 264.86,243.02 C256.07,242.60 243.57,241.58 241.28,242.74 C240.93,242.93 238.48,244.72 237.13,245.65 C237.13,245.91 242.01,242.89 242.59,242.25 C243.60,241.11 244.33,238.97 244.09,238.23 C243.33,236.45 240.26,234.93 236.87,234.55 C234.58,234.32 216.00,235.58 213.57,236.21 C212.20,236.59 206.52,240.07 203.59,241.91 C200.26,244.06 192.23,251.64 191.03,252.72 C193.60,250.68 194.82,249.61 194.88,249.03 C194.94,248.18 194.47,246.23 194.00,245.91 C192.90,245.22 185.24,244.48 182.19,244.49 C177.78,244.54 174.06,244.99 169.09,246.06 C164.49,247.10 150.45,254.24 149.79,254.84 C149.12,255.44 148.13,257.36 147.57,258.69 C147.57,258.69 148.42,254.40 148.42,254.40 C147.45,253.61 143.41,252.67 140.20,253.11 C135.49,253.80 115.35,260.56 112.48,261.91 C111.43,262.41 105.53,266.03 102.58,268.76 C102.58,268.76 102.44,263.25 102.44,263.25 C101.88,262.49 96.96,262.51 94.50,262.89 C91.80,263.31 87.17,265.05 83.35,266.86 C79.90,268.48 68.60,278.68 65.83,281.21 C65.83,281.21 69.36,274.13 69.36,274.13 C68.42,273.16 67.36,272.47 66.12,272.23 C63.30,271.75 57.34,273.79 55.11,275.72 C53.78,276.91 52.07,279.21 51.31,280.40 C50.86,279.35 49.23,275.63 48.75,274.81 C47.76,273.17 45.75,272.52 43.57,272.81 C42.17,273.06 25.22,280.40 23.16,281.87 C22.40,282.03 21.22,281.63 19.35,280.44 C17.23,279.13 15.30,279.06 13.79,280.22 C12.81,281.04 12.09,285.51 11.83,290.70 C8.37,290.25 7.54,290.17 7.08,290.56 C5.69,291.74 4.58,293.14 4.03,294.27 C4.03,294.27 4.61,295.72 4.61,295.72" fill="none" stroke="rgb(124, 154, 213)" stroke-width="2.39" stroke-opacity="1.00" stroke-linejoin="round"/>
<path d="M509.52,296.91 C510.16,297.18 518.25,300.29 520.76,301.95 C523.00,303.49 525.42,306.84 525.64,308.76 C525.83,310.94 525.41,314.47 524.50,315.71 C523.59,316.91 520.73,318.73 519.37,319.14 C514.40,320.49 505.93,319.01 503.10,318.14 C504.12,318.53 510.69,321.84 512.94,323.35 C515.61,325.18 517.59,328.08 517.45,329.28 C517.24,330.69 516.64,332.58 516.15,333.13 C514.93,334.39 510.10,335.07 506.49,334.55 C503.13,334.03 496.83,331.82 493.90,330.05 C491.87,328.80 488.35,326.21 488.22,326.25 C485.11,327.24 479.11,328.41 475.35,328.54 C471.90,328.63 464.84,327.88 463.07,327.29 C460.94,326.53 457.59,323.31 457.01,321.53 C456.43,319.71 456.22,317.65 456.44,317.00 C452.69,317.57 438.96,321.89 435.07,322.70 C430.66,323.59 418.41,323.80 414.47,322.79 C412.10,322.15 407.77,319.91 405.83,318.19 C403.84,316.39 400.59,311.80 399.18,308.96 C397.85,306.25 396.88,303.07 397.17,302.84 C396.20,304.33 393.83,307.37 391.39,309.10 C387.74,311.65 373.18,316.02 367.66,316.64 C364.71,316.95 358.51,317.06 355.88,316.84 C352.05,316.48 343.59,313.13 340.54,311.91 C334.68,315.04 320.63,322.43 318.04,323.21 C314.52,324.22 310.28,324.96 307.19,324.98 C304.32,324.97 297.82,324.07 296.64,323.57 C293.66,322.24 290.20,317.38 290.19,317.65 C288.47,320.15 286.42,322.24 284.19,323.25 C279.90,325.12 270.76,326.72 263.17,326.91 C259.65,326.97 254.93,325.55 252.22,323.82 C247.80,320.91 243.48,315.41 242.91,313.19 C242.91,313.19 241.62,312.70 241.62,312.70 C238.29,315.60 223.71,320.85 218.30,322.62 C215.07,323.60 208.76,324.41 205.63,324.14 C202.37,323.82 198.25,322.71 194.24,321.10 C191.04,319.78 187.26,316.14 185.46,312.67 C185.22,312.19 184.88,311.55 184.46,310.74 C182.46,313.17 179.40,315.95 176.26,317.71 C174.81,318.52 170.05,320.23 167.84,320.65 C165.66,321.05 160.80,321.08 158.67,320.71 C156.69,320.35 151.97,318.70 150.17,317.76 C145.06,314.99 143.34,311.81 143.40,311.74 C140.55,313.61 136.05,316.64 135.94,316.70 C132.94,318.19 126.89,319.72 123.43,320.15 C119.75,320.60 112.09,321.08 109.30,320.99 C106.30,320.87 100.31,319.67 97.59,318.71 C95.45,317.94 90.91,315.54 89.25,313.08 C88.60,312.10 87.91,310.15 87.57,308.84 C87.58,308.84 83.28,309.92 81.08,309.99 C78.50,310.06 72.07,308.89 69.50,307.98 C66.88,307.00 65.09,305.52 62.95,303.51 C62.54,307.75 62.13,310.73 61.37,311.60 C60.13,312.94 57.50,314.20 55.00,314.58 C50.59,315.18 42.52,312.76 42.22,312.88 C40.30,315.05 36.83,317.89 34.94,318.63 C33.86,319.03 30.53,319.56 29.40,319.48 C27.54,319.30 22.37,316.95 19.19,315.36 C17.59,316.85 12.64,321.08 9.26,321.33 C7.76,321.43 4.95,320.92 3.82,320.55 C3.82,320.55 3.72,319.08 3.72,319.08" fill="none" stroke="rgb(124, 154, 213)" stroke-width="2.39" stroke-opacity="1.00" stroke-linejoin="round"/>
<path d="M310.03,481.20 C310.03,481.20 310.38,480.72 310.38,480.72 C310.38,480.72 310.29,480.45 310.29,480.45 C309.63,480.07 306.85,480.06 304.30,480.58 C301.36,481.23 294.93,485.19 294.48,485.42 C293.27,486.01 287.67,486.70 286.84,487.13 C285.49,487.85 282.80,490.08 281.36,491.84 C279.70,493.91 278.48,496.81 278.56,497.81 C278.68,498.75 279.56,500.47 280.35,501.18 C281.16,501.89 283.58,502.76 285.99,502.90 C286.87,502.95 291.26,502.59 291.77,503.27 C291.92,503.52 293.67,508.12 294.45,509.05 C295.13,509.81 296.68,510.72 297.75,510.93 C298.95,511.15 302.17,511.01 303.88,510.37 C304.81,510.02 309.67,507.09 311.44,506.83 C313.16,506.62 316.64,507.31 318.70,507.76 C319.95,507.96 322.29,507.53 324.53,506.90 C326.53,506.37 332.11,506.24 333.07,506.12 C335.12,505.85 340.64,503.59 341.23,503.37 C342.81,502.80 347.70,501.88 348.76,501.40 C350.22,500.69 351.88,498.05 351.95,496.76 C351.98,495.70 349.24,491.76 348.61,490.94 C346.80,488.60 345.67,485.75 345.23,485.20 C344.01,483.74 333.91,481.29 330.50,480.46 C329.30,480.19 325.66,480.58 323.80,480.80" fill="none" stroke="rgb(50, 63, 91)" stroke-width="2.39" stroke-opacity="1.00" stroke-linejoin="round"/>
<path d="M288.34,490.74 C288.34,490.74 287.40,490.61 287.40,490.61 C286.81,490.97 286.27,492.96 286.48,493.90 C286.75,494.92 288.91,495.59 290.26,495.34 C290.92,495.21 292.75,494.29 292.84,494.31 C292.96,494.38 293.78,496.57 294.56,497.00 C295.42,497.41 297.90,496.68 299.00,495.54 C301.06,493.31 300.41,490.57 300.07,489.97 C299.94,489.74 299.65,489.35 299.20,488.79" fill="none" stroke="rgb(50, 63, 91)" stroke-width="2.39" stroke-opacity="1.00" stroke-linejoin="round"/>
<path d="M340.16,487.76 C340.21,486.85 339.88,486.18 339.28,486.14 C338.51,486.11 335.98,487.32 335.58,487.86 C334.92,488.84 336.71,490.56 338.93,490.95 C339.53,492.69 340.52,493.20 341.42,493.25 C342.15,493.28 343.30,492.99 343.84,492.85" fill="none" stroke="rgb(50, 63, 91)" stroke-width="2.39" stroke-opacity="1.00" stroke-linejoin="round"/>
<path d="M495.06,208.38 C494.93,208.40 492.29,208.91 489.84,209.23 C489.24,209.31 481.47,210.76 479.90,211.44 C478.17,212.22 473.45,215.53 471.73,217.03 C470.03,218.53 467.67,221.41 466.86,223.34 C465.51,226.62 465.08,236.14 466.10,239.59 C466.72,241.59 468.78,244.93 470.45,246.71 C472.09,248.43 475.66,251.50 477.87,252.76 C481.91,255.02 487.35,256.11 496.67,256.74 C500.19,257.02 502.48,256.91 507.43,256.48 C511.18,256.09 513.66,255.30 515.19,254.38 C518.04,252.57 524.13,242.76 525.31,239.02 C526.70,234.56 527.75,226.22 526.99,222.39 C526.55,220.24 524.64,215.03 522.64,212.13 C521.60,210.66 518.21,207.98 516.10,206.91 C510.15,204.03 501.71,204.11 499.82,204.36 C499.39,204.42 497.41,204.82 496.83,204.94" fill="none" stroke="rgb(255, 140, 83)" stroke-width="2.39" stroke-opacity="1.00" stroke-linejoin="round"/>
<path d="M457.55,203.82 C457.15,203.99 456.91,204.09 456.83,204.12 C456.81,204.14 456.73,204.16 456.75,204.14 C456.72,204.15 465.66,211.45 468.14,213.38 C468.16,213.40 468.21,213.45 468.19,213.43" fill="none" stroke="rgb(255, 140, 83)" stroke-width="2.39" stroke-opacity="1.00" stroke-linejoin="round"/>
<path d="M445.98,223.27 C445.98,223.27 445.84,223.47 445.84,223.47 C445.89,223.47 446.03,223.47 446.25,223.46 C449.03,223.33 456.98,223.71 456.99,223.71 C460.92,223.73 465.87,223.03 466.68,222.97 C466.68,222.97 466.88,223.26 466.88,223.26" fill="none" stroke="rgb(255, 140, 83)" stroke-width="2.39" stroke-opacity="1.00" stroke-linejoin="round"/>
<path d="M448.92,251.93 C448.92,251.93 448.48,252.36 448.48,252.36 C451.03,250.86 462.72,243.60 464.18,242.51 C465.91,241.21 467.17,240.02 467.17,239.98 C467.18,239.92 467.19,239.84 467.21,239.71" fill="none" stroke="rgb(255, 140, 83)" stroke-width="2.39" stroke-opacity="1.00" stroke-linejoin="round"/>
<path d="M473.08,260.03 C473.07,260.05 477.10,257.03 478.20,256.00 C478.79,255.44 482.16,251.80 482.46,251.57 C482.58,251.47 482.83,251.32 483.22,251.10" fill="none" stroke="rgb(255, 140, 83)" stroke-width="2.39" stroke-opacity="1.00" stroke-linejoin="round"/>
<path d="M499.69,259.03 C499.69,259.03 499.11,259.14 499.11,259.14 C499.11,259.14 499.01,259.41 499.01,259.41 C499.01,259.41 508.63,270.19 508.63,270.19 C508.63,270.19 508.65,269.89 508.65,269.89" fill="none" stroke="rgb(255, 140, 83)" stroke-width="2.39" stroke-opacity="1.00" stroke-linejoin="round"/>
<path d="M518.19,253.49 C518.19,253.49 517.86,253.56 517.86,253.56 C519.57,254.53 521.06,255.43 521.76,256.02 C522.41,256.55 523.93,257.97 524.10,258.07 C524.10,258.07 524.69,257.62 524.69,257.62" fill="none" stroke="rgb(255, 140, 83)" stroke-width="2.39" stroke-opacity="1.00" stroke-linejoin="round"/>
<path d="M522.28,211.59 C522.28,211.59 522.09,211.53 522.09,211.53 C521.10,210.21 523.89,206.08 524.42,205.41 C524.42,205.41 524.87,206.27 524.87,206.27" fill="none" stroke="rgb(255, 140, 83)" stroke-width="2.39" stroke-opacity="1.00" stroke-linejoin="round"/>
<path d="M527.49,242.25 C527.49,242.25 527.16,242.31 527.16,242.31 C528.53,242.16 529.37,242.06 529.66,242.01 C529.96,241.96 530.13,241.89 530.18,241.80" fill="none" stroke="rgb(255, 140, 83)" stroke-width="2.39" stroke-opacity="1.00" stroke-linejoin="round"/>
<path d="M481.72,219.35 C481.77,218.29 482.39,217.07 483.68,216.00 C485.32,214.69 488.69,213.32 489.78,213.22 C490.92,213.14 493.13,213.88 494.34,214.63 C495.51,215.38 497.02,217.38 497.19,218.17 C497.23,218.40 497.15,219.15 497.12,219.41" fill="none" stroke="rgb(255, 140, 83)" stroke-width="2.39" stroke-opacity="1.00" stroke-linejoin="round"/>
<path d="M481.99,218.95 C481.37,219.02 480.80,219.90 480.84,221.43 C480.90,222.99 482.45,226.32 483.31,227.27 C484.09,228.08 486.15,228.40 487.34,228.17 C489.65,227.67 492.91,224.34 493.11,222.22 C493.25,220.19 490.45,218.80 489.79,218.70 C489.55,218.67 489.16,218.69 488.63,218.77" fill="none" stroke="rgb(255, 140, 83)" stroke-width="2.39" stroke-opacity="1.00" stroke-linejoin="round"/>
<path d="M482.47,223.36 C482.47,223.36 482.14,223.42 482.14,223.42 C483.34,223.21 484.27,223.46 484.91,223.99 C486.80,225.67 484.92,226.84 484.75,226.87 C484.67,226.59 484.32,224.54 483.95,223.99 C483.90,223.93 483.81,223.82 483.67,223.68 C483.73,223.75 483.78,223.83 483.80,223.90 C483.82,223.97 483.86,224.14 483.91,224.42" fill="none" stroke="rgb(255, 140, 83)" stroke-width="2.39" stroke-opacity="1.00" stroke-linejoin="round"/>
<path d="M505.77,220.38 C505.77,220.38 505.78,220.16 505.78,220.16 C506.44,219.66 507.87,218.64 510.92,217.53 C512.47,216.98 515.56,217.20 517.20,217.97 C518.58,218.63 520.34,220.08 520.66,220.47 C520.66,220.47 520.04,220.82 520.04,220.82" fill="none" stroke="rgb(255, 140, 83)" stroke-width="2.39" stroke-opacity="1.00" stroke-linejoin="round"/>
<path d="M506.72,221.76 C506.72,221.76 506.30,221.84 506.30,221.84 C506.18,221.98 504.10,224.51 504.01,225.76 C503.95,227.22 505.33,229.80 506.86,230.83 C508.24,231.72 511.07,232.25 512.38,231.96 C513.47,231.69 515.94,230.00 516.87,228.87 C518.58,226.72 518.13,223.01 517.26,221.88 C516.91,221.46 515.63,221.05 515.01,220.87" fill="none" stroke="rgb(255, 140, 83)" stroke-width="2.39" stroke-opacity="1.00" stroke-linejoin="round"/>
<path d="M506.26,226.68 C506.26,226.68 506.09,226.72 506.09,226.72 C507.02,226.53 508.41,226.59 509.02,227.01 C510.67,228.25 509.71,230.06 509.55,230.18 C509.55,230.18 507.29,227.69 507.29,227.69 C507.29,227.69 508.09,229.39 508.09,229.39 C508.09,229.39 507.84,229.08 507.84,229.08" fill="none" stroke="rgb(255, 140, 83)" stroke-width="2.39" stroke-opacity="1.00" stroke-linejoin="round"/>
<path d="M494.68,238.71 C492.82,239.04 491.92,239.24 491.03,239.55 C489.39,240.14 487.84,241.45 487.72,242.57 C487.68,243.47 488.90,246.55 489.74,247.32 C490.64,248.09 493.21,248.57 494.70,248.23 C495.93,247.93 497.98,246.76 498.71,245.99 C499.39,245.25 499.73,243.58 498.96,242.74 C498.11,241.85 495.95,240.87 495.21,240.65 C494.96,240.58 494.29,240.39 493.22,240.10" fill="none" stroke="rgb(255, 140, 83)" stroke-width="2.39" stroke-opacity="1.00" stroke-linejoin="round"/>
<path d="M110.60,371.06 C110.27,371.07 110.12,371.06 110.07,371.06 C109.14,371.18 101.14,379.04 95.40,383.42 C94.22,384.32 71.65,403.36 53.34,418.17 C49.17,421.56 40.28,430.27 37.13,432.94 C37.13,432.94 37.16,433.45 37.16,433.45" fill="none" stroke="rgb(83, 255, 174)" stroke-width="2.39" stroke-opacity="1.00" stroke-linejoin="round"/>
<path d="M110.07,372.11 C110.13,372.27 120.99,380.52 133.83,394.24 C138.37,399.43 145.50,407.46 152.11,413.49 C153.04,414.32 165.18,425.18 166.39,427.02 C166.39,427.02 166.15,427.13 166.15,427.13" fill="none" stroke="rgb(83, 255, 174)" stroke-width="2.39" stroke-opacity="1.00" stroke-linejoin="round"/>
<path d="M36.63,434.77 C36.63,434.77 36.37,434.77 36.37,434.77 C37.49,434.35 49.67,432.45 56.41,432.01 C67.67,431.39 90.56,430.88 103.82,431.90 C109.14,432.26 122.18,430.36 126.58,430.06 C128.47,429.93 137.52,429.74 138.03,429.71 C140.20,429.58 153.79,427.36 158.58,427.18 C163.02,427.12 168.34,427.01 169.21,426.97 C169.21,426.97 167.46,426.87 167.46,426.87" fill="none" stroke="rgb(83, 255, 174)" stroke-width="2.39" stroke-opacity="1.00" stroke-linejoin="round"/>
<path d="M37.68,433.45 C37.68,433.45 37.29,433.45 37.29,433.45 C37.23,433.41 37.19,433.46 37.16,433.60 C36.89,434.82 36.93,450.09 37.60,454.69 C39.24,467.02 41.54,484.35 41.63,491.67 C41.66,492.07 41.75,492.41 41.89,492.68" fill="none" stroke="rgb(83, 255, 174)" stroke-width="2.39" stroke-opacity="1.00" stroke-linejoin="round"/>
<path d="M38.21,500.31 C38.21,500.31 37.95,500.31 37.95,500.31 C39.75,500.34 53.70,499.85 59.24,499.64 C69.05,499.46 83.78,499.89 88.42,499.72 C96.88,499.42 109.29,500.83 114.00,500.84 C117.55,500.84 134.85,499.26 142.95,498.47 C149.23,497.70 161.14,497.68 165.48,497.26 C165.85,497.23 166.16,497.19 166.41,497.15" fill="none" stroke="rgb(83, 255, 174)" stroke-width="2.39" stroke-opacity="1.00" stroke-linejoin="round"/>
<path d="M169.30,428.18 C169.30,428.18 166.06,497.51 166.06,497.51 C166.06,497.51 165.62,497.42 165.62,497.42" fill="none" stroke="rgb(83, 255, 174)" stroke-width="2.39" stroke-opacity="1.00" stroke-linejoin="round"/>
<path d="M54.00,442.14 C54.00,442.14 54.00,442.00 54.00,442.00 C54.00,442.00 53.87,441.87 53.87,441.87 C53.87,441.87 53.74,441.87 53.74,441.87 C53.74,441.87 55.85,462.83 55.85,462.83 C55.85,462.83 56.37,463.20 56.37,463.20" fill="none" stroke="rgb(83, 255, 174)" stroke-width="2.39" stroke-opacity="1.00" stroke-linejoin="round"/>
<path d="M53.21,441.35 C54.62,441.39 59.33,440.77 60.85,440.80 C65.05,440.85 78.76,439.62 86.29,440.01 C87.14,440.02 97.15,439.68 96.93,439.95 C97.19,443.54 95.97,458.58 95.33,459.71 C95.15,459.99 94.98,460.28 94.81,460.56" fill="none" stroke="rgb(83, 255, 174)" stroke-width="2.39" stroke-opacity="1.00" stroke-linejoin="round"/>
<path d="M56.64,462.14 C56.64,462.14 56.37,462.14 56.37,462.14 C56.43,462.11 59.72,462.45 63.98,462.19 C69.28,462.08 91.66,460.58 95.51,460.39 C95.51,460.39 95.86,460.07 95.86,460.07 C95.86,460.07 95.86,459.77 95.86,459.77" fill="none" stroke="rgb(83, 255, 174)" stroke-width="2.39" stroke-opacity="1.00" stroke-linejoin="round"/>
<path d="M58.22,452.93 C58.22,452.93 58.22,453.19 58.22,453.19 C58.50,453.07 58.79,452.98 59.08,452.93 C60.52,452.67 79.25,450.77 83.98,449.41 C86.38,448.74 94.86,447.25 95.99,447.02 C95.99,447.02 95.86,447.14 95.86,447.14" fill="none" stroke="rgb(83, 255, 174)" stroke-width="2.39" stroke-opacity="1.00" stroke-linejoin="round"/>
<path d="M77.70,441.61 C77.70,442.36 77.70,444.88 77.70,446.66 C77.68,458.46 78.51,462.20 78.66,462.36 C78.68,462.37 78.71,462.46 78.75,462.64" fill="none" stroke="rgb(83, 255, 174)" stroke-width="2.39" stroke-opacity="1.00" stroke-linejoin="round"/>
<path d="M116.92,437.92 C116.92,437.92 117.18,454.25 117.18,454.25 C117.18,454.25 116.93,453.22 116.93,453.22" fill="none" stroke="rgb(83, 255, 174)" stroke-width="2.39" stroke-opacity="1.00" stroke-linejoin="round"/>
<path d="M118.76,436.87 C118.76,436.87 118.50,436.87 118.50,436.87 C118.49,436.87 139.45,436.65 141.19,436.77 C148.62,437.29 158.24,437.42 158.46,437.52 C158.46,437.52 155.61,455.82 155.61,455.82 C155.61,455.82 155.09,456.35 155.09,456.35" fill="none" stroke="rgb(83, 255, 174)" stroke-width="2.39" stroke-opacity="1.00" stroke-linejoin="round"/>
<path d="M119.29,455.03 C119.29,455.03 118.76,455.03 118.76,455.03 C119.81,455.49 135.87,454.22 142.42,453.53 C148.36,452.91 154.11,452.93 154.39,452.93 C154.39,452.93 154.83,453.46 154.83,453.46" fill="none" stroke="rgb(83, 255, 174)" stroke-width="2.39" stroke-opacity="1.00" stroke-linejoin="round"/>
<path d="M119.03,449.51 C119.18,449.53 125.25,447.96 129.17,447.47 C132.19,447.11 157.90,445.05 160.09,444.62 C160.09,444.62 158.78,445.29 158.78,445.29" fill="none" stroke="rgb(83, 255, 174)" stroke-width="2.39" stroke-opacity="1.00" stroke-linejoin="round"/>
<path d="M138.51,438.98 C138.51,440.19 138.52,443.62 138.51,444.25 C138.46,446.08 138.30,448.14 138.08,449.78 C137.86,451.39 137.58,455.40 137.46,455.98 C137.42,456.13 137.36,456.38 137.25,456.75" fill="none" stroke="rgb(83, 255, 174)" stroke-width="2.39" stroke-opacity="1.00" stroke-linejoin="round"/>
<path d="M81.64,470.57 C81.64,471.42 81.63,474.37 81.64,474.73 C81.78,477.17 81.95,480.95 81.91,484.59 C81.86,488.93 84.12,499.65 84.80,503.08 C84.80,503.08 86.12,500.84 86.12,500.84" fill="none" stroke="rgb(83, 255, 174)" stroke-width="2.39" stroke-opacity="1.00" stroke-linejoin="round"/>
<path d="M80.59,472.41 C81.15,471.77 84.24,470.80 86.30,470.63 C87.15,470.57 99.13,470.59 101.30,470.45 C102.19,470.40 136.20,466.65 139.37,466.62 C139.51,466.78 138.51,478.39 138.70,485.57 C138.76,487.77 138.72,496.36 138.41,497.36 C138.30,497.73 137.98,498.45 137.45,499.52" fill="none" stroke="rgb(83, 255, 174)" stroke-width="2.39" stroke-opacity="1.00" stroke-linejoin="round"/>
<path d="M113.50,471.36 C113.50,471.36 113.37,471.36 113.37,471.36 C113.21,472.23 113.37,489.88 113.50,496.64 C113.51,499.02 113.43,500.77 113.24,502.94 C113.24,502.94 113.68,501.39 113.68,501.39" fill="none" stroke="rgb(83, 255, 174)" stroke-width="2.39" stroke-opacity="1.00" stroke-linejoin="round"/>
<path d="M115.60,476.09 C115.60,476.09 118.11,475.83 118.11,475.83 C118.11,475.83 118.07,471.82 118.07,471.82 C118.07,471.82 117.76,471.64 117.76,471.64" fill="none" stroke="rgb(83, 255, 174)" stroke-width="2.39" stroke-opacity="1.00" stroke-linejoin="round"/>
<path d="M114.29,495.05 C114.29,495.05 118.38,494.33 118.38,494.33 C118.69,494.56 118.73,496.96 118.76,497.23 C118.78,497.41 118.85,497.86 118.98,498.59" fill="none" stroke="rgb(83, 255, 174)" stroke-width="2.39" stroke-opacity="1.00" stroke-linejoin="round"/>
<path d="M141.66,403.44 C141.66,395.72 141.67,384.52 140.73,374.44 C140.59,372.97 140.33,365.47 140.38,365.02 C140.48,364.28 142.84,363.19 145.02,362.82 C146.43,362.60 153.92,362.95 154.47,363.27 C155.48,363.99 156.23,368.19 156.32,371.54 C156.79,396.06 156.15,413.53 155.44,414.21 C155.32,414.30 155.21,414.40 155.09,414.50" fill="none" stroke="rgb(83, 255, 174)" stroke-width="2.39" stroke-opacity="1.00" stroke-linejoin="round"/>
<path d="M146.93,350.00 C146.73,349.95 146.60,349.91 146.53,349.87 C145.86,349.50 144.56,349.38 143.86,349.69 C142.84,350.17 141.62,352.74 141.87,353.66 C142.15,354.51 144.83,355.10 146.57,354.33 C146.77,355.69 148.40,358.11 149.73,358.66 C152.31,359.59 154.49,357.68 155.08,357.13 C155.61,357.16 158.77,357.29 159.98,356.05 C160.88,355.10 161.25,353.46 160.88,352.81 C160.05,351.45 156.79,349.96 155.61,350.24 C155.81,349.31 155.73,348.88 155.00,348.68 C153.98,348.42 153.25,348.31 152.80,348.35 C152.17,348.41 149.55,349.43 148.77,349.74" fill="none" stroke="rgb(83, 255, 174)" stroke-width="2.39" stroke-opacity="1.00" stroke-linejoin="round"/>
<path d="M171.94,335.26 C171.58,335.18 169.91,334.64 168.84,335.49 C167.41,336.67 165.71,340.45 166.25,340.91 C166.25,340.91 168.53,341.09 168.53,341.09 C168.11,341.37 167.22,342.92 167.24,343.92 C167.28,345.01 168.56,346.22 169.54,346.23 C171.15,346.21 175.12,345.02 176.74,343.33 C177.73,342.27 178.94,339.67 179.93,339.02 C180.89,338.20 181.44,336.49 181.13,335.91 C180.77,335.31 179.69,335.36 179.15,335.58 C179.15,335.58 175.17,334.95 175.17,334.95 C175.17,334.95 172.20,338.42 172.20,338.42" fill="none" stroke="rgb(83, 255, 174)" stroke-width="2.39" stroke-opacity="1.00" stroke-linejoin="round"/>
<path d="M200.37,332.63 C199.89,332.67 199.47,332.48 198.54,331.79 C197.71,331.20 195.19,330.64 193.89,331.05 C192.48,331.53 190.96,333.88 190.98,335.02 C191.04,336.01 192.48,336.61 192.67,336.88 C192.56,338.96 193.51,341.95 194.53,342.48 C195.60,342.95 199.22,341.70 199.85,341.61 C200.18,341.57 204.42,343.82 207.31,343.04 C208.68,342.65 213.01,340.13 213.34,339.97 C214.72,339.32 215.60,337.48 215.30,336.55 C214.95,335.62 213.39,335.29 212.80,335.38 C212.69,334.81 211.62,333.19 209.53,332.48 C209.06,332.32 205.71,332.34 203.98,332.34 C203.48,332.35 202.98,332.36 202.47,332.36" fill="none" stroke="rgb(83, 255, 174)" stroke-width="2.39" stroke-opacity="1.00" stroke-linejoin="round"/>
<path d="M169.04,427.39 C169.04,427.39 168.25,427.66 168.25,427.66 C168.84,427.67 182.31,426.40 186.46,426.28 C188.54,426.14 196.98,424.70 198.43,424.56 C200.50,424.37 218.20,423.92 224.51,423.29 C230.09,422.71 241.17,422.08 242.06,422.43 C243.15,423.81 244.57,465.56 244.42,470.07 C244.17,477.86 244.08,489.58 244.07,494.25 C244.07,494.25 244.07,494.26 244.07,494.26" fill="none" stroke="rgb(83, 255, 174)" stroke-width="2.39" stroke-opacity="1.00" stroke-linejoin="round"/>
<path d="M166.41,501.37 C166.41,501.37 166.41,501.23 166.41,501.23 C166.41,501.23 166.28,501.10 166.28,501.10 C166.28,501.10 166.15,501.10 166.15,501.10 C166.20,499.62 177.95,499.88 183.53,500.69 C187.87,501.26 199.02,501.36 203.89,500.96 C229.04,498.61 237.91,497.40 244.80,496.84 C244.80,496.84 246.44,494.52 246.44,494.52" fill="none" stroke="rgb(83, 255, 174)" stroke-width="2.39" stroke-opacity="1.00" stroke-linejoin="round"/>
<path d="M183.52,500.84 C183.52,500.66 183.52,500.49 183.52,500.31 C183.52,492.23 183.02,479.10 183.02,478.76 C182.99,467.38 182.80,462.48 181.32,453.76 C180.78,450.56 178.72,436.07 178.94,435.66 C179.09,435.31 198.97,433.14 201.02,433.01 C204.63,432.77 222.90,427.68 223.34,427.80 C224.16,428.14 226.07,431.19 227.07,433.77 C229.08,439.11 230.22,451.20 229.94,460.61 C229.59,470.09 229.72,490.94 230.09,497.02 C230.09,497.02 230.11,496.36 230.11,496.36" fill="none" stroke="rgb(83, 255, 174)" stroke-width="2.39" stroke-opacity="1.00" stroke-linejoin="round"/>
<path d="M204.05,453.98 C204.05,453.98 204.05,453.72 204.05,453.72 C204.04,453.72 206.93,453.34 211.71,454.07 C217.80,454.98 225.46,456.87 230.10,457.58 C230.10,457.58 228.33,456.75 228.33,456.75" fill="none" stroke="rgb(83, 255, 174)" stroke-width="2.39" stroke-opacity="1.00" stroke-linejoin="round"/>
<path d="M204.32,453.46 C204.32,453.46 204.32,453.19 204.32,453.19 C203.84,453.31 201.78,455.69 200.41,459.16 C199.35,461.86 198.82,465.55 198.80,465.54 C198.80,465.54 229.56,464.02 229.56,464.02 C229.56,464.02 227.75,465.04 227.75,465.04" fill="none" stroke="rgb(83, 255, 174)" stroke-width="2.39" stroke-opacity="1.00" stroke-linejoin="round"/>
<path d="M223.27,465.56 C223.27,465.56 222.88,465.56 222.88,465.56 C222.88,465.56 222.74,465.67 222.74,465.67 C222.74,465.67 222.74,478.73 222.74,478.73 C222.73,478.78 220.57,481.29 219.22,484.01 C215.62,491.44 213.99,494.45 213.92,494.50 C213.91,494.50 213.54,494.68 212.83,495.04" fill="none" stroke="rgb(83, 255, 174)" stroke-width="2.39" stroke-opacity="1.00" stroke-linejoin="round"/>
<path d="M196.68,467.14 C196.62,467.44 196.46,467.79 196.45,468.26 C196.42,469.01 196.15,480.36 196.18,480.92 C196.49,481.04 200.53,479.53 203.78,479.14 C205.86,478.91 210.48,478.71 211.32,478.72 C211.32,478.72 210.78,478.28 210.78,478.28" fill="none" stroke="rgb(83, 255, 174)" stroke-width="2.39" stroke-opacity="1.00" stroke-linejoin="round"/>
<path d="M196.16,477.41 C195.99,477.53 195.87,477.66 195.79,477.81 C195.44,478.54 194.61,480.13 193.82,481.19 C193.65,481.43 192.56,482.72 192.27,483.09 C192.27,483.09 193.62,487.45 193.62,487.45 C193.62,487.45 192.46,487.73 192.46,487.73 C191.73,488.46 191.05,492.57 190.78,492.76 C189.32,493.82 188.55,496.19 188.66,496.45 C188.77,496.69 189.14,497.33 189.79,498.36" fill="none" stroke="rgb(83, 255, 174)" stroke-width="2.39" stroke-opacity="1.00" stroke-linejoin="round"/>
<path d="M222.74,479.78 C222.74,479.78 222.22,479.78 222.22,479.78 C222.22,479.78 229.01,479.78 229.01,479.78 C229.01,479.78 228.67,479.78 228.67,479.78" fill="none" stroke="rgb(83, 255, 174)" stroke-width="2.39" stroke-opacity="1.00" stroke-linejoin="round"/>
<path d="M220.90,483.99 C220.90,483.99 220.64,484.26 220.64,484.26 C220.97,484.27 222.22,484.09 225.02,483.61 C227.03,483.27 227.64,483.20 227.85,483.26 C227.85,483.26 226.96,483.99 226.96,483.99" fill="none" stroke="rgb(83, 255, 174)" stroke-width="2.39" stroke-opacity="1.00" stroke-linejoin="round"/>
<path d="M219.32,488.73 C219.32,488.73 218.86,488.60 218.86,488.60 C218.90,488.50 225.65,487.64 227.14,487.34 C227.43,487.28 227.95,487.16 228.70,486.97 C228.70,486.97 227.56,488.15 227.56,488.15" fill="none" stroke="rgb(83, 255, 174)" stroke-width="2.39" stroke-opacity="1.00" stroke-linejoin="round"/>
<path d="M217.48,494.00 C217.48,494.00 217.22,494.26 217.22,494.26 C217.21,494.32 224.42,493.26 226.76,493.21 C226.93,493.19 227.14,493.13 227.39,493.02" fill="none" stroke="rgb(83, 255, 174)" stroke-width="2.39" stroke-opacity="1.00" stroke-linejoin="round"/>
</g>
</svg>
