<?xml version="1.0" encoding="UTF-8" standalone="no"?>
<!DOCTYPE svg PUBLIC "-//W3C//DTD SVG 1.1//EN" "http://www.w3.org/Graphics/SVG/1.1/DTD/svg11.dtd">
<svg width="64.20" height="90.84" viewBox="0.00 0.00 535.00 757.00" xmlns="http://www.w3.org/2000/svg" xmlns:xlink="http://www.w3.org/1999/xlink">
<g stroke-linecap="round" id="193">
<path d="M136.61,517.25 C135.66,516.40 131.75,508.31 129.97,501.78 C128.78,497.34 127.32,491.12 126.86,487.83 C126.53,485.42 123.55,454.46 124.22,450.24 C124.78,447.01 127.93,442.54 130.99,440.30 C133.92,438.19 140.22,435.23 143.50,434.72 C144.83,434.53 152.24,433.94 156.53,433.76 C159.67,433.64 165.46,434.21 168.71,435.29 C174.99,437.45 184.83,443.22 188.74,446.66 C190.60,448.34 192.24,451.54 192.49,453.97 C192.89,458.56 190.61,473.89 188.68,479.39 C186.70,484.96 173.81,512.13 172.94,513.35 C171.64,515.12 167.78,518.60 165.75,519.91 C164.18,520.91 159.59,522.58 157.70,523.08 C154.00,524.02 148.74,523.46 146.36,522.41 C144.12,521.38 139.66,517.47 138.83,516.52 C138.61,516.27 137.72,514.12 137.17,512.81" fill="none" stroke="rgb(33, 228, 63)" stroke-width="3.12" stroke-opacity="1.00" stroke-linejoin="round"/>
<path d="M148.82,463.41 C148.48,463.45 147.06,463.18 146.49,463.13 C143.83,462.92 136.42,469.03 136.21,470.17 C136.67,471.02 139.58,471.80 143.81,471.31 C147.81,470.82 151.94,469.57 153.10,468.48 C152.71,466.65 152.06,465.69 150.57,465.17 C147.88,464.25 144.76,464.69 144.14,465.52 C143.64,466.24 143.51,467.34 143.68,468.81 C143.68,468.81 144.91,469.41 144.91,469.41" fill="none" stroke="rgb(33, 228, 63)" stroke-width="3.12" stroke-opacity="1.00" stroke-linejoin="round"/>
<path d="M173.24,462.02 C172.49,461.78 171.01,461.67 169.99,461.85 C166.19,462.62 164.39,467.71 164.46,468.01 C164.72,468.82 169.35,469.75 172.70,469.42 C174.07,469.27 176.23,468.49 177.01,467.88 C177.75,467.27 178.32,466.00 178.41,465.04 C178.43,464.09 175.23,462.39 173.49,462.50 C171.95,462.64 169.66,463.76 169.00,464.63 C168.43,465.44 168.07,467.45 168.45,468.15 C168.86,468.81 170.52,469.20 171.49,469.23 C171.94,469.25 173.02,469.24 174.72,469.22" fill="none" stroke="rgb(33, 228, 63)" stroke-width="3.12" stroke-opacity="1.00" stroke-linejoin="round"/>
<path d="M153.54,478.40 C153.22,481.79 153.24,487.98 153.48,489.56 C153.86,491.91 155.11,493.37 155.63,493.50 C157.16,493.23 159.61,490.24 160.70,487.69 C161.26,486.37 162.29,483.57 162.24,483.62 C162.24,483.62 161.50,483.60 161.50,483.60" fill="none" stroke="rgb(33, 228, 63)" stroke-width="3.12" stroke-opacity="1.00" stroke-linejoin="round"/>
<path d="M145.49,501.43 C145.48,503.15 146.48,506.81 147.42,509.10 C148.39,511.37 150.82,513.25 152.72,513.35 C154.75,513.40 157.84,512.63 160.54,511.38 C163.09,510.17 166.33,507.59 167.59,505.90 C168.20,505.08 168.78,503.83 169.28,502.47" fill="none" stroke="rgb(33, 228, 63)" stroke-width="3.12" stroke-opacity="1.00" stroke-linejoin="round"/>
<path d="M124.12,454.25 C124.12,454.25 123.85,454.17 123.85,454.17 C123.79,453.74 124.92,451.87 126.20,450.75 C127.18,449.93 131.85,448.66 132.78,448.88 C133.63,449.18 133.79,452.20 133.07,454.45 C131.81,458.22 113.32,496.22 110.64,500.61 C107.96,505.00 106.47,506.99 105.04,507.20 C104.37,507.26 103.04,506.24 102.62,505.11 C102.18,503.86 101.99,499.73 102.49,497.12 C103.53,491.89 110.12,479.80 115.68,471.49 C119.71,465.46 126.17,451.58 126.63,450.46 C126.74,450.18 126.92,449.68 127.18,448.98" fill="none" stroke="rgb(33, 228, 63)" stroke-width="3.12" stroke-opacity="1.00" stroke-linejoin="round"/>
<path d="M124.12,435.66 C123.02,436.41 121.25,437.96 120.17,439.31 C115.77,444.83 103.35,472.26 102.42,475.27 C101.26,479.13 101.54,482.54 101.99,482.90 C102.51,483.13 104.21,482.65 106.90,479.79 C109.07,477.44 113.98,467.73 119.25,456.50 C122.83,448.72 124.91,442.40 125.51,440.25 C125.51,440.25 125.27,441.31 125.27,441.31" fill="none" stroke="rgb(33, 228, 63)" stroke-width="3.12" stroke-opacity="1.00" stroke-linejoin="round"/>
<path d="M125.79,449.53 C125.79,449.53 125.09,450.09 125.09,450.09 C124.21,450.16 123.07,449.79 122.12,449.03 C121.25,448.32 120.07,445.13 119.78,442.34 C119.30,437.55 120.52,428.80 122.49,424.58 C123.22,423.06 126.08,418.68 128.16,416.66 C130.09,414.81 135.67,411.59 137.47,411.11 C138.32,410.91 139.95,411.52 140.80,413.33 C141.78,415.53 142.48,422.94 142.39,427.09 C142.30,430.47 141.04,438.32 140.94,438.93 C140.90,439.18 140.84,439.57 140.77,440.10" fill="none" stroke="rgb(33, 228, 63)" stroke-width="3.12" stroke-opacity="1.00" stroke-linejoin="round"/>
<path d="M128.29,438.16 C128.37,434.74 130.21,431.40 131.04,430.39 C133.04,428.04 136.81,426.21 138.69,426.35 C140.32,426.52 142.33,428.30 143.54,430.66 C143.40,430.25 144.58,425.51 145.56,423.46 C147.21,420.10 150.72,416.21 152.18,415.31 C153.90,414.29 156.73,413.36 158.06,413.34 C159.18,413.36 160.37,415.40 160.20,416.95 C158.48,431.28 150.82,442.91 149.45,444.01 C149.45,444.01 146.88,443.98 146.88,443.98" fill="none" stroke="rgb(33, 228, 63)" stroke-width="3.12" stroke-opacity="1.00" stroke-linejoin="round"/>
<path d="M153.26,435.94 C153.05,435.80 152.87,433.75 153.62,432.09 C154.31,430.59 157.90,425.60 159.19,424.05 C160.92,422.03 164.97,418.73 166.60,418.30 C168.03,417.99 169.83,418.07 170.54,418.62 C171.82,419.69 173.17,425.40 172.96,429.62 C172.89,430.92 170.82,448.43 170.15,450.44 C170.15,450.44 166.58,450.92 166.58,450.92" fill="none" stroke="rgb(33, 228, 63)" stroke-width="3.12" stroke-opacity="1.00" stroke-linejoin="round"/>
<path d="M172.69,442.60 C172.66,442.32 172.79,441.78 173.10,441.28 C175.25,437.90 182.44,429.12 186.86,425.40 C190.05,422.75 195.15,420.48 196.45,420.61 C197.93,420.83 200.67,424.81 201.48,427.89 C202.30,431.23 202.20,437.31 201.69,440.17 C201.21,442.63 199.86,446.66 199.23,448.19 C198.90,449.01 198.56,449.83 198.22,450.64" fill="none" stroke="rgb(33, 228, 63)" stroke-width="3.12" stroke-opacity="1.00" stroke-linejoin="round"/>
<path d="M193.78,458.97 C193.49,458.64 193.60,455.78 194.82,453.76 C196.45,451.09 199.29,447.09 201.02,445.38 C204.66,441.84 209.21,440.19 210.05,440.38 C211.75,441.15 209.05,452.97 206.69,460.30 C204.04,468.53 198.53,486.15 198.08,488.20 C196.57,495.59 194.59,504.15 193.88,503.68 C192.34,502.98 192.41,494.08 193.19,485.11 C193.70,479.36 194.16,471.23 194.22,470.64 C194.30,469.77 194.75,466.81 194.89,465.91" fill="none" stroke="rgb(33, 228, 63)" stroke-width="3.12" stroke-opacity="1.00" stroke-linejoin="round"/>
<path d="M208.76,453.97 C208.79,453.32 208.91,452.87 209.25,452.54 C210.23,451.63 212.71,450.74 213.58,451.24 C214.41,451.78 215.42,454.90 215.29,457.37 C215.05,461.39 209.89,478.13 207.37,486.06 C204.46,495.06 200.76,509.34 200.57,509.99 C199.54,513.40 197.46,515.92 196.50,516.21 C195.57,516.45 193.81,515.70 193.06,514.53 C191.29,511.49 192.84,502.80 193.08,501.48 C193.28,500.45 193.47,499.41 193.67,498.38" fill="none" stroke="rgb(33, 228, 63)" stroke-width="3.12" stroke-opacity="1.00" stroke-linejoin="round"/>
<path d="M141.80,521.99 C141.79,521.99 141.64,524.24 140.05,528.27 C138.40,532.37 136.14,535.82 133.47,538.42 C130.15,541.58 125.37,545.27 122.16,546.83 C115.05,550.21 106.07,553.21 98.69,554.39 C93.42,555.20 88.33,555.28 87.70,555.28 C83.10,554.25 69.88,553.41 66.57,553.48 C64.20,553.55 60.18,554.26 58.53,554.89 C55.02,556.27 52.77,558.34 51.90,559.77 C50.95,561.34 49.87,564.95 49.92,566.36 C50.01,567.83 51.58,570.50 52.99,571.47 C54.46,572.43 58.82,573.78 61.97,574.04 C67.41,574.45 82.88,572.78 87.99,572.64 C96.26,572.41 116.19,568.28 120.68,568.28 C120.68,568.28 119.53,568.31 119.53,568.31 C118.23,569.13 116.14,583.92 115.10,591.48 C113.68,602.40 112.72,614.79 112.73,620.49 C112.77,628.06 114.67,639.55 117.14,649.99 C117.92,653.28 118.41,658.21 118.15,661.22 C117.84,664.33 116.52,668.88 115.23,671.23 C113.69,673.79 110.69,678.94 108.86,683.15 C106.78,688.02 106.35,698.79 106.44,710.04 C106.52,713.56 107.36,718.86 108.37,721.67 C108.49,721.99 108.62,722.27 108.77,722.52" fill="none" stroke="rgb(33, 228, 63)" stroke-width="3.12" stroke-opacity="1.00" stroke-linejoin="round"/>
<path d="M124.37,725.64 C124.37,725.64 123.85,725.64 123.85,725.64 C125.20,723.65 130.57,712.75 133.44,704.05 C135.06,699.10 138.05,680.75 139.59,678.26 C139.85,677.85 140.36,677.20 141.12,676.32 C141.97,676.71 142.40,677.40 142.65,679.16 C143.14,682.65 143.58,698.58 144.13,703.44 C144.55,707.16 147.88,725.24 147.89,725.35 C147.90,725.49 147.86,725.59 147.78,725.64" fill="none" stroke="rgb(33, 228, 63)" stroke-width="3.12" stroke-opacity="1.00" stroke-linejoin="round"/>
<path d="M163.39,517.57 C163.39,517.57 163.13,517.57 163.13,517.57 C163.13,518.19 163.15,518.77 163.29,519.30 C165.78,528.60 168.17,540.74 169.68,544.10 C170.67,546.16 173.63,548.96 175.63,549.75 C178.06,550.67 185.71,553.32 186.26,553.53 C189.40,554.77 194.21,559.29 196.87,561.82 C200.58,565.21 203.88,567.90 206.45,568.81 C208.58,569.55 219.16,571.31 219.56,571.41 C222.11,572.03 228.22,574.85 228.98,575.41 C230.18,576.30 235.49,582.44 236.04,583.42 C237.38,585.91 238.39,591.30 238.47,591.72 C238.68,593.13 237.85,597.38 236.17,601.18 C235.32,603.05 232.96,606.07 231.25,607.55 C229.37,609.09 224.99,610.27 222.43,610.07 C220.36,609.85 216.06,608.31 213.43,606.70 C210.58,604.93 206.11,600.77 203.63,597.70 C199.32,592.33 195.31,585.34 191.94,577.50 C190.46,574.06 188.26,570.11 186.20,567.94 C184.24,565.92 179.97,562.62 178.07,561.65 C176.08,560.67 172.29,560.55 171.05,561.94 C169.75,563.51 169.15,567.75 168.66,573.93 C168.31,578.20 164.57,595.10 164.52,602.57 C164.51,606.27 165.30,612.01 166.18,615.07 C167.66,620.15 168.08,622.45 167.81,625.50 C167.68,626.86 165.09,643.42 164.15,649.01 C162.91,656.89 162.57,667.56 163.70,671.71 C165.59,678.58 166.41,685.44 166.64,695.27 C166.89,707.46 167.22,715.46 166.60,718.32 C166.50,718.88 166.40,719.23 166.28,719.39 C166.11,719.62 165.58,720.14 164.69,720.96" fill="none" stroke="rgb(33, 228, 63)" stroke-width="3.12" stroke-opacity="1.00" stroke-linejoin="round"/>
<path d="M153.24,526.67 C151.64,537.86 148.96,556.83 147.58,571.45 C146.77,582.81 146.60,611.79 146.48,625.48 C146.50,631.47 145.27,647.94 145.19,651.89 C145.18,652.27 145.18,666.25 145.18,667.29 C145.18,667.29 145.44,666.34 145.44,666.34" fill="none" stroke="rgb(33, 228, 63)" stroke-width="3.12" stroke-opacity="1.00" stroke-linejoin="round"/>
<path d="M98.53,230.04 C98.28,231.32 96.25,235.47 95.14,237.68 C94.45,239.20 90.45,254.42 89.09,259.30 C87.27,266.59 85.52,277.81 85.24,284.25 C85.14,286.73 85.27,293.09 85.73,296.58 C86.24,300.43 88.13,306.30 89.61,308.23 C90.38,309.19 92.67,310.50 94.56,311.14 C95.43,311.42 97.16,311.11 97.94,310.75 C99.63,309.90 102.23,305.69 103.57,301.48 C104.86,297.35 107.88,282.12 108.18,273.95 C108.51,264.64 107.50,257.71 104.95,245.36 C103.70,239.75 100.11,230.88 99.79,229.71 C99.69,229.32 98.83,228.37 98.02,227.47" fill="none" stroke="rgb(83, 102, 255)" stroke-width="3.12" stroke-opacity="1.00" stroke-linejoin="round"/>
<path d="M158.81,227.98 C159.17,228.95 144.72,265.44 142.86,271.48 C141.14,277.36 137.72,290.72 137.32,297.11 C137.20,299.32 137.40,302.96 137.81,304.83 C138.27,306.86 139.74,309.94 140.85,311.17 C142.84,313.27 148.40,314.98 150.93,314.64 C153.69,314.18 158.59,310.47 161.53,306.95 C164.52,303.34 168.14,298.34 169.44,296.14 C171.08,293.29 172.95,287.06 173.30,283.99 C173.90,278.14 172.72,266.95 171.07,260.47 C170.21,257.14 167.90,249.60 166.24,246.12 C165.74,245.07 160.69,235.78 160.48,235.35 C159.66,233.68 157.39,230.96 156.23,229.53" fill="none" stroke="rgb(83, 102, 255)" stroke-width="3.12" stroke-opacity="1.00" stroke-linejoin="round"/>
<path d="M260.30,213.56 C259.52,214.43 249.41,232.36 246.91,237.47 C243.91,243.75 241.20,251.20 238.67,260.42 C237.19,266.01 236.04,271.34 235.89,274.33 C235.72,278.61 236.45,283.33 237.60,285.10 C238.90,286.99 241.20,288.88 242.92,289.25 C244.91,289.63 247.29,289.39 248.62,288.70 C251.20,287.27 254.32,284.28 257.23,280.83 C262.31,274.73 271.18,260.03 271.44,259.54 C272.53,257.50 274.60,252.39 275.11,250.20 C275.77,247.22 275.69,235.26 274.57,231.62 C273.41,227.95 265.14,211.48 264.71,210.91 C264.44,210.57 264.00,210.25 263.40,209.95" fill="none" stroke="rgb(83, 102, 255)" stroke-width="3.12" stroke-opacity="1.00" stroke-linejoin="round"/>
<path d="M313.89,216.65 C314.01,219.09 312.05,226.68 311.64,228.11 C310.36,232.38 301.80,243.97 299.00,250.04 C297.78,252.72 295.23,259.44 294.07,262.66 C292.14,268.16 291.70,278.07 291.92,280.78 C292.07,282.12 292.84,283.93 293.80,284.96 C295.49,286.71 300.77,287.35 302.74,286.66 C304.62,285.94 307.54,282.66 309.75,278.74 C312.84,273.17 318.83,258.44 320.13,252.53 C320.35,251.52 320.97,246.53 321.07,243.66 C321.15,239.96 320.78,237.74 318.83,232.43 C317.68,229.33 315.80,222.36 315.46,220.52 C315.37,220.03 315.19,218.91 314.92,217.16" fill="none" stroke="rgb(83, 102, 255)" stroke-width="3.12" stroke-opacity="1.00" stroke-linejoin="round"/>
<path d="M371.59,223.86 C371.77,224.55 364.76,235.97 361.74,241.30 C357.87,247.76 354.22,256.37 349.31,268.88 C347.04,274.80 345.63,279.06 345.24,281.42 C344.76,284.56 345.57,287.70 347.15,288.72 C348.70,289.65 353.56,290.33 355.73,289.67 C358.07,288.90 361.97,285.41 364.46,282.29 C368.31,277.39 376.09,261.90 377.38,256.03 C377.81,254.00 378.35,248.30 377.72,245.72 C377.44,244.61 372.78,227.94 372.69,226.49 C372.66,225.97 372.63,224.75 372.62,222.83" fill="none" stroke="rgb(83, 102, 255)" stroke-width="3.12" stroke-opacity="1.00" stroke-linejoin="round"/>
<path d="M423.62,221.28 C422.86,221.02 422.32,220.85 422.00,220.77 C421.68,220.69 421.13,220.57 420.36,220.43 C418.05,222.45 415.04,228.78 414.31,230.41 C412.12,235.32 406.08,245.74 402.20,253.70 C400.60,257.05 396.77,265.17 395.98,267.51 C394.33,272.43 393.21,278.14 393.77,280.64 C394.36,282.98 397.51,286.19 399.96,286.97 C402.35,287.68 407.44,287.66 409.68,286.88 C411.84,286.08 417.09,281.97 419.01,279.78 C421.07,277.40 425.09,271.37 426.43,268.26 C427.80,265.02 429.45,258.36 429.73,256.38 C430.34,251.78 429.84,245.44 428.57,243.03 C428.14,242.24 423.26,235.08 422.15,231.79 C421.68,230.34 420.94,227.04 420.47,224.53 C420.18,222.94 419.70,220.29 419.50,219.22" fill="none" stroke="rgb(83, 102, 255)" stroke-width="3.12" stroke-opacity="1.00" stroke-linejoin="round"/>
<path d="M446.81,352.15 C446.81,352.15 446.55,352.15 446.55,352.15 C446.43,352.16 443.45,356.05 440.11,359.98 C438.01,362.49 426.92,377.00 425.63,379.69 C424.88,381.36 424.04,384.20 424.34,385.08 C424.82,386.34 426.55,388.32 427.74,389.05 C430.01,390.38 434.00,391.37 437.07,391.66 C439.84,391.89 443.95,391.33 445.91,390.00 C448.04,388.49 450.38,384.29 450.90,381.71 C451.42,378.93 451.47,374.91 451.08,372.43 C450.70,370.09 448.80,363.86 448.44,361.33 C448.27,360.15 448.23,358.95 448.10,357.75 C448.05,357.32 447.96,356.83 447.84,356.27" fill="none" stroke="rgb(83, 102, 255)" stroke-width="3.12" stroke-opacity="1.00" stroke-linejoin="round"/>
<path d="M408.68,608.20 C408.68,608.20 408.68,607.69 408.68,607.69 C408.69,607.68 400.38,622.80 399.08,625.33 C397.36,628.69 395.16,635.45 395.03,637.10 C394.94,638.78 395.45,640.24 396.37,640.70 C398.60,641.71 401.93,642.06 407.12,642.21 C410.24,642.26 415.07,641.98 416.34,641.64 C418.21,641.10 420.58,639.86 421.07,638.96 C421.96,637.20 420.86,631.52 419.45,629.15 C418.35,627.36 416.15,624.80 414.57,623.04 C413.98,622.39 413.39,621.74 412.81,621.08" fill="none" stroke="rgb(83, 102, 255)" stroke-width="3.12" stroke-opacity="1.00" stroke-linejoin="round"/>
<path d="M327.28,616.96 C327.28,616.96 326.77,616.96 326.77,616.96 C322.85,623.69 317.86,632.33 313.78,640.48 C312.83,642.36 309.78,647.90 309.07,651.21 C308.28,655.10 308.57,656.93 309.08,658.01 C310.84,659.20 315.27,660.03 319.57,660.19 C325.49,660.26 336.41,662.82 337.93,662.71 C338.89,662.62 340.36,659.74 340.53,656.84 C340.66,654.07 339.64,646.80 338.85,645.08 C335.81,638.57 332.72,629.84 332.62,629.40 C332.56,629.10 332.49,628.56 332.43,627.78" fill="none" stroke="rgb(83, 102, 255)" stroke-width="3.12" stroke-opacity="1.00" stroke-linejoin="round"/>
<path d="M337.59,543.80 C335.25,544.98 332.64,548.04 331.16,550.39 C326.31,557.99 324.20,561.99 320.42,570.95 C319.48,573.26 317.07,580.65 317.05,583.04 C317.06,585.84 319.32,589.34 321.00,590.49 C323.24,591.97 326.13,592.64 329.58,592.71 C331.21,592.73 334.84,592.76 335.40,592.73 C337.68,592.57 340.13,591.64 341.52,590.21 C342.85,588.76 344.46,585.42 344.62,583.66 C344.87,580.08 340.28,569.25 338.89,562.99 C337.90,558.43 337.63,551.00 337.59,550.74 C337.54,550.49 337.39,550.10 337.12,549.56" fill="none" stroke="rgb(83, 102, 255)" stroke-width="3.12" stroke-opacity="1.00" stroke-linejoin="round"/>
<path d="M355.10,467.55 C351.86,472.59 345.30,483.47 343.39,488.63 C342.21,491.87 340.89,497.88 340.72,499.77 C340.60,501.81 341.28,503.52 342.71,503.84 C343.40,503.97 359.29,503.44 361.26,502.90 C362.37,502.57 363.67,499.35 364.01,495.70 C364.37,491.76 364.38,483.16 364.37,483.02 C364.18,480.75 359.88,468.47 359.77,467.84 C359.77,467.84 358.71,467.04 358.71,467.04" fill="none" stroke="rgb(83, 102, 255)" stroke-width="3.12" stroke-opacity="1.00" stroke-linejoin="round"/>
<path d="M392.20,331.02 C392.20,331.15 392.17,331.93 392.09,332.36 C391.27,336.54 375.50,360.25 371.23,367.71 C369.32,371.10 367.78,375.03 366.76,379.48 C365.94,383.15 365.51,391.01 366.36,393.30 C366.88,394.59 368.31,396.24 369.33,396.71 C370.44,397.16 372.63,397.06 373.89,396.45 C376.25,395.26 379.31,391.48 381.13,388.51 C384.91,382.28 394.39,366.49 395.35,364.07 C395.65,363.29 397.34,355.24 397.59,352.16 C397.77,349.72 397.72,344.79 396.64,341.81 C396.22,340.65 395.75,339.66 395.22,338.83 C394.92,338.36 394.26,337.48 393.23,336.18" fill="none" stroke="rgb(83, 102, 255)" stroke-width="3.12" stroke-opacity="1.00" stroke-linejoin="round"/>
<path d="M68.13,399.55 C68.18,402.34 65.30,413.78 62.60,422.12 C60.34,428.90 57.52,435.71 52.56,448.56 C50.41,454.34 49.57,458.54 50.71,460.32 C52.20,462.49 55.22,464.29 57.32,464.65 C59.04,464.91 63.49,464.18 65.86,462.42 C67.13,461.45 80.45,448.36 82.18,444.85 C83.14,442.84 83.66,438.05 83.35,436.53 C82.90,434.45 76.91,419.48 74.31,409.93 C73.30,405.95 72.22,400.41 72.19,396.89 C72.22,395.54 72.25,392.19 72.25,392.18 C72.30,391.95 72.47,391.66 72.77,391.30" fill="none" stroke="rgb(83, 102, 255)" stroke-width="3.12" stroke-opacity="1.00" stroke-linejoin="round"/>
<path d="M71.22,520.62 C71.22,520.62 71.22,520.10 71.22,520.10 C70.74,523.07 64.83,544.84 64.13,547.88 C63.69,549.79 63.01,555.72 63.16,556.50 C63.48,557.91 67.63,559.93 70.06,559.89 C71.54,559.84 74.04,558.88 75.29,557.86 C77.64,555.85 79.84,550.47 80.22,546.87 C80.56,543.18 80.29,538.46 79.57,535.81 C77.89,530.71 74.79,520.16 74.66,519.55 C74.58,519.17 74.47,518.50 74.31,517.53" fill="none" stroke="rgb(83, 102, 255)" stroke-width="3.12" stroke-opacity="1.00" stroke-linejoin="round"/>
<path d="M225.27,543.29 C225.27,543.29 224.75,543.80 224.75,543.80 C224.81,543.76 224.71,544.20 224.20,546.09 C222.34,552.92 217.67,562.22 216.51,567.98 C215.91,571.06 216.18,576.01 217.11,576.79 C217.57,577.13 219.33,577.65 220.05,577.63 C220.98,577.58 222.65,576.68 223.41,575.75 C224.91,573.81 226.05,568.76 226.70,564.12 C227.44,558.43 227.24,550.22 226.82,545.64 C226.82,545.64 225.79,545.35 225.79,545.35" fill="none" stroke="rgb(83, 102, 255)" stroke-width="3.12" stroke-opacity="1.00" stroke-linejoin="round"/>
<path d="M149.02,368.12 C149.02,368.12 148.50,368.12 148.50,368.12 C148.50,368.12 162.43,361.42 162.43,361.42 C165.01,368.78 168.18,408.81 168.02,410.76 C167.74,413.66 166.26,417.19 164.36,418.67 C162.45,420.11 157.85,421.95 155.67,421.93 C153.67,421.87 149.44,420.32 148.34,418.97 C146.97,417.18 145.91,410.32 146.51,406.39 C146.82,404.51 158.11,371.95 158.86,370.96 C159.08,370.67 159.72,369.93 160.77,368.72" fill="none" stroke="rgb(83, 102, 255)" stroke-width="3.12" stroke-opacity="1.00" stroke-linejoin="round"/>
<path d="M218.06,352.15 C213.53,362.96 209.48,373.35 208.23,378.14 C207.51,380.92 199.86,415.64 199.46,418.92 C199.01,423.15 199.02,428.29 200.18,429.92 C200.38,430.20 200.85,430.64 201.57,431.25 C203.71,431.56 205.21,431.56 206.33,431.05 C208.86,429.85 212.43,426.14 214.45,422.53 C216.29,419.07 219.59,412.74 220.12,411.15 C221.86,405.77 222.77,397.45 222.68,388.38 C222.46,377.69 219.93,360.85 219.21,357.69 C219.21,357.69 220.12,356.78 220.12,356.78" fill="none" stroke="rgb(83, 102, 255)" stroke-width="3.12" stroke-opacity="1.00" stroke-linejoin="round"/>
<path d="M278.85,366.06 C278.98,366.35 275.85,369.73 274.57,371.47 C271.15,376.14 264.07,390.88 260.67,398.16 C256.01,408.40 254.17,423.37 254.34,426.59 C255.64,427.88 256.70,428.48 258.00,428.41 C260.78,428.18 266.54,424.73 269.63,421.55 C270.47,420.67 276.76,413.28 278.31,411.15 C280.14,408.60 282.43,403.90 283.27,400.71 C284.86,394.55 285.18,377.07 284.46,374.17 C284.32,373.64 282.11,368.45 281.71,367.84 C281.45,367.45 280.84,366.68 279.88,365.54" fill="none" stroke="rgb(83, 102, 255)" stroke-width="3.12" stroke-opacity="1.00" stroke-linejoin="round"/>
<path d="M5.31,177.18 C5.31,177.18 4.57,174.09 4.57,174.09 C5.41,173.05 10.33,170.60 13.57,170.24 C24.13,169.45 30.38,169.35 36.56,170.12 C41.89,170.82 54.27,176.27 59.41,177.49 C63.88,178.53 76.09,180.11 84.67,180.89 C92.11,181.52 105.03,180.62 112.21,179.29 C122.04,177.49 133.03,176.30 140.76,176.90 C144.35,177.19 164.95,179.58 171.30,179.86 C179.01,180.10 193.85,180.27 198.10,179.92 C204.39,179.37 212.57,177.25 221.80,174.26 C229.30,171.93 244.98,167.65 252.89,165.58 C263.35,163.04 274.10,160.85 281.56,160.14 C284.93,159.82 305.33,158.45 309.81,157.90 C319.28,156.67 326.75,155.15 331.04,153.56 C332.98,152.82 335.91,151.07 341.44,147.54 C345.37,145.08 350.29,142.92 353.97,142.17 C359.54,141.08 374.19,140.73 382.29,141.33 C397.23,142.93 421.18,145.17 424.59,145.06 C427.83,144.93 432.56,142.99 435.59,141.01 C437.19,139.97 438.89,139.00 439.80,138.72 C441.77,138.15 446.30,139.39 449.75,140.71 C452.73,141.91 470.44,151.99 472.66,152.50 C474.29,152.85 480.29,153.06 483.59,152.00 C486.30,151.13 488.32,150.88 490.52,151.55 C492.80,152.26 497.43,155.78 498.34,156.39 C500.61,157.88 505.82,159.94 507.48,160.04 C510.58,160.19 515.43,158.81 515.57,158.69 C515.57,158.69 515.66,157.90 515.66,157.90" fill="none" stroke="rgb(83, 255, 174)" stroke-width="3.12" stroke-opacity="1.00" stroke-linejoin="round"/>
<path d="M154.25,182.00 C154.28,184.60 155.32,188.72 156.24,190.13 C157.38,191.80 160.41,193.33 163.06,193.38 C165.78,193.39 170.52,191.93 172.11,190.73 C175.32,188.20 176.92,183.20 176.93,182.67 C176.93,182.47 176.86,182.18 176.73,181.78" fill="none" stroke="rgb(255, 162, 83)" stroke-width="3.12" stroke-opacity="1.00" stroke-linejoin="round"/>
<path d="M152.50,191.20 C152.50,191.20 152.88,190.38 152.88,190.38 C152.32,191.47 150.77,194.50 150.52,195.23 C149.90,197.00 149.89,198.62 150.31,199.08" fill="none" stroke="rgb(255, 162, 83)" stroke-width="3.12" stroke-opacity="1.00" stroke-linejoin="round"/>
<path d="M162.14,196.89 C162.14,196.82 162.14,196.75 162.14,196.67 C162.14,196.45 162.14,196.24 162.14,196.02 C162.14,196.02 161.26,201.68 161.26,201.68 C161.26,201.68 161.70,202.15 161.70,202.15" fill="none" stroke="rgb(255, 162, 83)" stroke-width="3.12" stroke-opacity="1.00" stroke-linejoin="round"/>
<path d="M170.46,196.45 C170.46,196.45 170.02,195.14 170.02,195.14 C170.46,195.50 172.27,196.98 172.58,197.31 C172.92,197.69 173.67,198.76 174.41,199.08" fill="none" stroke="rgb(255, 162, 83)" stroke-width="3.12" stroke-opacity="1.00" stroke-linejoin="round"/>
<path d="M179.66,185.94 C179.77,185.94 180.09,186.08 180.28,186.33 C180.48,186.61 182.41,189.57 182.77,190.21 C182.99,190.63 183.42,191.47 184.04,192.74 C184.04,192.74 183.75,193.85 183.75,193.85" fill="none" stroke="rgb(255, 162, 83)" stroke-width="3.12" stroke-opacity="1.00" stroke-linejoin="round"/>
</g>
</svg>
