<?xml version="1.0" encoding="UTF-8" standalone="no"?>
<!DOCTYPE svg PUBLIC "-//W3C//DTD SVG 1.1//EN" "http://www.w3.org/Graphics/SVG/1.1/DTD/svg11.dtd">
<svg width="64.20" height="90.84" viewBox="0.00 0.00 535.00 757.00" xmlns="http://www.w3.org/2000/svg" xmlns:xlink="http://www.w3.org/1999/xlink">
<g stroke-linecap="round" id="195">
<path d="M245.90,435.73 C245.90,435.73 245.90,435.31 245.90,435.31 C246.01,435.21 255.19,436.54 263.50,439.53 C272.31,442.71 280.91,444.91 288.68,448.12 C296.77,451.46 304.78,456.04 311.71,460.71 C317.76,464.71 351.59,484.73 359.29,490.74 C362.23,493.03 373.10,502.81 376.31,506.60 C391.32,525.29 394.61,530.25 397.18,535.74 C398.84,539.33 400.59,546.06 400.55,548.81 C400.47,551.40 397.78,556.58 396.16,558.45 C392.16,562.99 384.24,568.87 379.71,571.60 C374.36,574.79 364.34,578.60 355.82,580.95 C348.71,583.00 336.21,586.58 329.66,587.80 C320.76,589.47 310.62,590.81 303.40,591.60 C297.04,592.26 288.97,591.95 281.10,590.74 C272.73,589.39 266.72,587.35 255.98,583.20 C249.91,580.90 244.10,578.27 241.79,576.78 C240.06,575.65 223.18,562.19 219.98,558.85 C215.37,553.99 208.75,544.96 206.08,539.66 C204.71,536.88 203.44,532.52 203.18,528.62 C203.15,527.95 203.15,525.00 203.28,524.40 C203.38,524.00 203.65,523.15 204.11,521.86" fill="none" stroke="rgb(0, 165, 255)" stroke-width="3.23" stroke-opacity="1.00" stroke-linejoin="round"/>
<path d="M257.00,441.83 C256.15,442.28 254.28,443.94 251.60,446.60 C250.64,447.58 249.90,448.36 249.37,448.93 C249.02,449.32 248.41,450.00 247.57,450.99" fill="none" stroke="rgb(0, 165, 255)" stroke-width="3.23" stroke-opacity="1.00" stroke-linejoin="round"/>
<path d="M261.72,444.33 C261.75,444.33 261.66,444.42 261.44,444.61 C258.63,446.98 253.77,451.75 253.41,452.12 C252.07,453.49 250.34,455.35 249.25,456.62 C248.17,457.87 247.61,458.86 247.01,460.42" fill="none" stroke="rgb(0, 165, 255)" stroke-width="3.23" stroke-opacity="1.00" stroke-linejoin="round"/>
<path d="M269.76,447.93 C269.29,447.51 260.72,456.50 253.78,463.31 C252.16,464.90 251.22,465.84 250.97,466.12 C250.73,466.39 250.70,466.53 250.90,466.52" fill="none" stroke="rgb(0, 165, 255)" stroke-width="3.23" stroke-opacity="1.00" stroke-linejoin="round"/>
<path d="M275.87,451.26 C272.77,453.17 268.71,456.28 266.25,458.17 C261.54,461.90 250.03,471.05 248.12,473.22 C247.86,473.51 247.49,473.96 247.01,474.57" fill="none" stroke="rgb(0, 165, 255)" stroke-width="3.23" stroke-opacity="1.00" stroke-linejoin="round"/>
<path d="M288.63,453.76 C286.82,454.31 280.42,459.54 278.87,460.89 C273.26,465.71 261.88,475.82 256.12,481.10 C254.89,482.25 254.00,483.35 252.56,485.39" fill="none" stroke="rgb(0, 165, 255)" stroke-width="3.23" stroke-opacity="1.00" stroke-linejoin="round"/>
<path d="M294.45,461.53 C288.49,466.43 276.91,475.64 271.30,479.96 C267.61,482.81 263.06,486.52 260.98,488.36 C258.43,490.63 257.19,492.02 256.18,493.23" fill="none" stroke="rgb(0, 165, 255)" stroke-width="3.23" stroke-opacity="1.00" stroke-linejoin="round"/>
<path d="M298.06,470.13 C291.21,474.32 264.45,493.93 258.02,499.29 C251.79,504.60 248.54,508.43 247.84,509.27" fill="none" stroke="rgb(0, 165, 255)" stroke-width="3.23" stroke-opacity="1.00" stroke-linejoin="round"/>
<path d="M301.67,474.84 C294.03,479.39 282.76,489.01 280.73,490.77 C274.76,495.78 240.96,525.28 240.96,525.29 C240.84,525.40 240.76,525.55 240.70,525.73 C240.70,525.73 246.46,521.73 246.46,521.73" fill="none" stroke="rgb(0, 165, 255)" stroke-width="3.23" stroke-opacity="1.00" stroke-linejoin="round"/>
<path d="M318.86,476.23 C318.80,476.37 309.27,482.91 301.58,488.97 C287.93,499.84 270.59,515.31 258.90,525.73 C246.04,536.83 227.66,550.46 225.08,552.13 C223.86,552.91 222.97,553.27 222.27,553.35" fill="none" stroke="rgb(0, 165, 255)" stroke-width="3.23" stroke-opacity="1.00" stroke-linejoin="round"/>
<path d="M300.28,506.47 C299.18,506.13 295.72,507.23 291.22,509.49 C276.39,516.99 269.29,523.05 268.61,523.76 C268.61,523.76 270.32,525.33 270.32,525.33" fill="none" stroke="rgb(0, 165, 255)" stroke-width="3.23" stroke-opacity="1.00" stroke-linejoin="round"/>
<path d="M346.33,497.59 C342.11,497.63 338.89,498.13 335.94,499.33 C328.30,502.50 303.91,515.89 292.63,522.85 C286.82,526.59 274.00,535.52 269.84,538.68 C264.49,542.87 254.11,551.63 251.07,554.59 C245.70,559.84 241.48,565.49 241.21,566.92 C241.21,566.92 244.52,567.78 244.52,567.78" fill="none" stroke="rgb(0, 165, 255)" stroke-width="3.23" stroke-opacity="1.00" stroke-linejoin="round"/>
<path d="M349.66,508.41 C345.14,508.70 340.94,509.54 338.42,510.42 C334.94,511.68 302.09,528.70 288.56,536.22 C282.22,539.90 270.28,547.00 264.68,550.42 C263.25,551.30 262.63,552.03 262.27,553.07" fill="none" stroke="rgb(0, 165, 255)" stroke-width="3.23" stroke-opacity="1.00" stroke-linejoin="round"/>
<path d="M345.50,525.06 C337.02,526.81 332.89,528.09 323.88,531.70 C316.64,534.53 302.14,540.30 294.87,543.24 C287.95,546.17 270.71,553.42 266.98,555.26 C265.24,556.12 264.02,556.96 262.83,558.01" fill="none" stroke="rgb(0, 165, 255)" stroke-width="3.23" stroke-opacity="1.00" stroke-linejoin="round"/>
<path d="M348.83,533.93 C343.48,535.12 327.35,542.23 320.69,545.24 C307.76,550.90 279.65,563.50 264.47,570.42 C261.94,571.62 256.24,574.52 254.12,575.91 C254.12,575.91 255.76,575.45 255.76,575.45" fill="none" stroke="rgb(0, 165, 255)" stroke-width="3.23" stroke-opacity="1.00" stroke-linejoin="round"/>
<path d="M362.42,550.86 C352.51,552.63 345.54,554.85 335.53,558.41 C329.50,560.71 297.62,571.43 284.49,575.87 C272.24,580.12 271.39,580.57 270.66,581.21 C270.66,581.21 276.70,580.26 276.70,580.26" fill="none" stroke="rgb(0, 165, 255)" stroke-width="3.23" stroke-opacity="1.00" stroke-linejoin="round"/>
<path d="M351.04,560.56 C346.84,560.66 333.56,564.30 326.21,566.66 C311.05,571.68 293.44,577.52 292.74,578.43 C292.74,578.43 302.77,577.49 302.77,577.49" fill="none" stroke="rgb(0, 165, 255)" stroke-width="3.23" stroke-opacity="1.00" stroke-linejoin="round"/>
<path d="M323.03,572.77 C323.03,572.77 328.16,572.22 328.16,572.22 C327.97,572.46 326.62,573.02 321.24,575.39 C319.83,576.00 316.96,577.23 315.62,577.77 C314.11,578.39 313.22,578.79 311.15,579.78" fill="none" stroke="rgb(0, 165, 255)" stroke-width="3.23" stroke-opacity="1.00" stroke-linejoin="round"/>
<path d="M212.98,214.49 C212.98,214.49 212.98,214.19 212.98,214.19 C210.94,214.23 207.28,215.46 204.75,216.81 C195.61,221.84 185.39,228.74 175.68,236.56 C171.27,240.15 165.74,246.55 158.86,255.27 C155.82,259.15 150.47,269.18 148.65,275.31 C148.17,276.99 148.06,283.14 148.36,285.51 C148.77,288.48 150.86,294.91 152.21,297.73 C153.61,300.61 161.14,313.63 162.66,315.62 C163.97,317.30 169.16,322.12 171.75,324.31 C174.95,326.98 179.40,329.76 182.49,330.73 C185.64,331.66 191.69,331.90 195.70,331.29 C205.50,329.54 212.24,329.03 219.20,329.45 C224.36,329.72 235.86,328.01 239.75,326.40 C242.96,325.03 249.27,321.21 251.19,319.66 C253.69,317.57 256.94,312.71 258.82,308.60 C263.11,299.06 266.97,288.83 268.56,282.00 C270.25,274.60 270.92,262.93 270.57,258.45 C270.17,253.76 265.86,240.21 263.64,236.43 C261.21,232.35 253.44,223.61 249.09,220.61 C246.65,218.96 241.71,216.44 238.40,215.46 C233.35,213.98 217.86,211.73 215.30,211.93 C213.89,212.06 207.25,213.62 206.10,213.89" fill="none" stroke="rgb(28, 255, 0)" stroke-width="3.23" stroke-opacity="1.00" stroke-linejoin="round"/>
<path d="M224.95,249.50 C224.95,249.50 224.59,248.90 224.59,248.90 C224.04,248.90 205.79,258.78 203.48,259.45 C203.00,259.58 189.36,263.23 177.74,267.02 C170.02,269.46 161.27,271.43 153.65,272.12 C153.65,272.12 153.73,272.54 153.73,272.54" fill="none" stroke="rgb(28, 255, 0)" stroke-width="3.23" stroke-opacity="1.00" stroke-linejoin="round"/>
<path d="M226.44,251.60 C227.77,252.58 231.34,254.51 234.10,257.09 C237.98,260.97 244.92,267.74 249.71,270.18 C252.29,271.47 256.13,272.68 258.14,272.88 C260.58,273.11 266.00,272.18 266.27,271.95 C266.45,271.78 267.04,271.18 268.04,270.15" fill="none" stroke="rgb(28, 255, 0)" stroke-width="3.23" stroke-opacity="1.00" stroke-linejoin="round"/>
<path d="M184.85,273.14 C184.85,273.14 184.25,273.14 184.25,273.14 C184.25,273.14 198.17,272.84 198.17,272.84 C198.17,272.84 196.91,305.68 196.91,305.68 C196.91,305.68 196.22,306.36 196.22,306.36" fill="none" stroke="rgb(28, 255, 0)" stroke-width="3.23" stroke-opacity="1.00" stroke-linejoin="round"/>
<path d="M209.69,274.64 C209.69,274.64 209.09,274.94 209.09,274.94 C209.09,274.94 219.68,274.88 219.68,274.88 C219.68,274.88 219.61,275.69 219.61,275.69" fill="none" stroke="rgb(28, 255, 0)" stroke-width="3.23" stroke-opacity="1.00" stroke-linejoin="round"/>
<path d="M189.04,318.03 C189.42,317.99 195.44,318.31 196.73,318.32 C199.92,318.32 205.52,316.61 206.19,316.24 C206.31,316.18 206.58,315.97 206.99,315.64" fill="none" stroke="rgb(28, 255, 0)" stroke-width="3.23" stroke-opacity="1.00" stroke-linejoin="round"/>
<path d="M186.60,332.57 C186.60,332.57 186.60,332.24 186.60,332.24 C186.60,332.21 182.54,349.95 180.81,354.55 C177.79,362.42 173.77,371.25 172.58,378.11 C171.13,386.64 170.10,399.04 170.43,405.88 C171.91,431.40 169.74,465.32 169.44,487.40 C169.28,493.65 168.14,498.49 164.95,509.13 C164.34,511.26 162.88,516.23 162.06,518.17 C166.26,516.09 170.88,514.84 183.32,513.06 C190.10,512.10 203.73,512.50 210.26,512.76 C221.87,513.05 243.87,515.80 244.73,515.81 C244.73,515.81 246.37,514.20 246.37,514.20" fill="none" stroke="rgb(28, 255, 0)" stroke-width="3.23" stroke-opacity="1.00" stroke-linejoin="round"/>
<path d="M236.40,327.26 C235.99,330.48 236.11,337.15 236.46,338.58 C237.27,341.64 240.58,355.69 241.88,360.95 C243.13,366.43 243.32,377.10 242.48,385.62 C241.64,393.34 240.14,408.03 240.07,416.28 C240.25,446.62 243.17,483.46 244.52,498.90 C245.20,507.30 245.10,514.10 245.12,514.49 C245.14,514.88 245.23,515.55 245.37,516.52" fill="none" stroke="rgb(28, 255, 0)" stroke-width="3.23" stroke-opacity="1.00" stroke-linejoin="round"/>
<path d="M207.52,350.17 C206.11,351.14 196.60,360.03 190.90,366.84 C185.07,373.86 174.93,383.91 174.84,384.08 C174.69,384.34 174.43,385.08 174.04,386.29" fill="none" stroke="rgb(28, 255, 0)" stroke-width="3.23" stroke-opacity="1.00" stroke-linejoin="round"/>
<path d="M185.93,452.77 C184.25,453.48 181.41,456.46 179.52,458.32 C178.23,459.59 176.35,461.74 175.55,462.51 C175.00,463.04 173.56,464.59 172.98,466.38" fill="none" stroke="rgb(28, 255, 0)" stroke-width="3.23" stroke-opacity="1.00" stroke-linejoin="round"/>
<path d="M178.96,474.68 C178.58,475.75 176.76,477.88 176.06,478.71 C175.08,479.85 173.69,481.97 173.41,482.17 C173.34,482.22 173.14,482.29 172.81,482.39" fill="none" stroke="rgb(28, 255, 0)" stroke-width="3.23" stroke-opacity="1.00" stroke-linejoin="round"/>
<path d="M174.64,361.79 C174.25,361.32 159.84,366.85 156.23,367.49 C154.43,367.81 150.64,369.39 145.87,371.80 C142.69,373.38 139.55,376.29 137.56,379.02 C136.49,380.53 129.51,392.74 129.87,394.47 C130.35,396.34 133.49,400.19 134.95,399.93 C136.41,399.63 138.86,398.61 139.15,398.12 C140.14,396.52 142.30,391.96 143.62,390.25 C145.23,388.20 149.18,385.20 150.97,384.60 C156.81,382.77 168.92,382.69 171.44,382.41" fill="none" stroke="rgb(28, 255, 0)" stroke-width="3.23" stroke-opacity="1.00" stroke-linejoin="round"/>
<path d="M130.15,395.66 C130.15,395.66 129.65,395.77 129.65,395.77 C129.08,397.00 127.43,404.88 128.11,406.47 C128.47,407.25 130.72,408.59 131.28,408.72 C132.91,408.96 135.15,406.91 136.28,404.49 C136.74,403.47 137.03,402.83 137.13,402.57 C137.26,402.21 137.52,401.46 137.89,400.34" fill="none" stroke="rgb(28, 255, 0)" stroke-width="3.23" stroke-opacity="1.00" stroke-linejoin="round"/>
<path d="M241.72,364.11 C241.72,364.03 244.60,361.43 265.12,361.93 C268.93,362.06 273.52,363.77 276.74,365.80 C280.01,367.98 283.44,371.18 284.87,373.62 C286.10,375.80 287.82,379.84 288.46,381.93 C289.83,386.49 289.80,396.84 289.38,397.73 C289.20,397.91 283.85,398.60 281.11,399.39 C279.97,399.72 276.20,401.06 274.61,401.57 C274.04,400.41 273.08,395.62 272.33,393.99 C271.33,391.89 268.53,389.02 265.82,387.24 C261.65,384.57 257.24,381.96 255.34,381.21 C252.72,380.21 247.67,379.20 244.63,379.05 C244.63,379.05 246.37,379.39 246.37,379.39" fill="none" stroke="rgb(28, 255, 0)" stroke-width="3.23" stroke-opacity="1.00" stroke-linejoin="round"/>
<path d="M275.59,403.63 C275.59,403.63 275.59,403.29 275.59,403.29 C275.59,405.47 275.79,406.71 276.41,407.68 C277.11,408.74 278.42,410.21 279.11,410.58 C280.77,411.39 285.41,411.04 287.18,409.72 C288.98,408.30 290.85,404.52 290.96,402.02 C290.99,401.26 290.79,398.55 290.70,397.37 C290.64,396.69 290.58,396.00 290.53,395.32" fill="none" stroke="rgb(28, 255, 0)" stroke-width="3.23" stroke-opacity="1.00" stroke-linejoin="round"/>
<path d="M184.27,514.86 C184.27,514.86 183.94,514.58 183.94,514.58 C184.11,516.17 184.35,523.24 184.61,524.96 C184.72,526.08 184.44,526.88 183.45,527.17 C181.96,527.55 179.48,528.21 179.12,528.55 C178.73,528.93 178.21,530.09 178.35,530.53 C179.10,532.56 182.77,535.34 184.96,535.27 C186.84,535.16 188.84,534.05 190.45,532.97 C190.45,532.97 190.58,517.15 190.58,517.15 C190.58,517.15 190.32,517.15 190.32,517.15" fill="none" stroke="rgb(28, 255, 0)" stroke-width="3.23" stroke-opacity="1.00" stroke-linejoin="round"/>
<path d="M210.17,516.19 C209.89,516.18 209.77,517.28 209.84,519.65 C209.87,520.54 210.61,528.99 210.76,529.90 C211.12,531.94 211.98,533.43 213.19,533.86 C215.32,534.54 220.25,534.00 221.23,533.36 C222.46,532.49 223.34,529.69 222.67,528.71 C221.91,527.70 216.77,525.98 215.49,525.34 C214.85,522.61 214.99,519.76 215.03,518.72 C215.07,517.73 215.10,516.75 215.13,515.77" fill="none" stroke="rgb(28, 255, 0)" stroke-width="3.23" stroke-opacity="1.00" stroke-linejoin="round"/>
<path d="M138.45,412.59 C138.45,412.59 138.05,412.52 138.05,412.52 C137.72,411.90 134.60,410.07 131.78,409.94 C129.66,409.87 127.25,410.67 125.60,412.62 C122.89,415.89 117.85,428.50 116.11,432.93 C116.11,432.93 117.23,433.30 117.23,433.30" fill="none" stroke="rgb(255, 255, 0)" stroke-width="3.23" stroke-opacity="1.00" stroke-linejoin="round"/>
<path d="M138.12,414.25 C137.54,414.20 137.09,414.20 136.79,414.25 C135.27,414.52 134.05,415.45 132.36,417.64 C129.34,421.62 128.08,424.00 126.04,428.61 C123.00,435.97 122.13,437.69 121.33,439.19 C121.25,439.35 121.20,439.44 121.21,439.44" fill="none" stroke="rgb(255, 255, 0)" stroke-width="3.23" stroke-opacity="1.00" stroke-linejoin="round"/>
<path d="M117.20,437.16 C114.43,437.16 109.61,436.64 106.39,435.92 C102.87,434.96 96.86,433.41 93.00,433.15 C92.11,433.10 73.68,433.62 66.99,432.97 C66.60,432.93 66.30,432.92 66.09,432.94 C65.79,437.47 70.77,472.26 71.78,486.68 C72.47,501.14 74.37,543.55 74.51,544.02 C74.51,544.02 78.68,545.08 78.68,545.08" fill="none" stroke="rgb(255, 255, 0)" stroke-width="3.23" stroke-opacity="1.00" stroke-linejoin="round"/>
<path d="M123.18,439.49 C123.15,439.42 127.75,441.63 131.71,442.84 C137.98,444.72 150.22,447.55 155.44,449.54 C160.27,451.26 165.52,453.13 166.01,453.49 C158.85,464.54 119.39,499.75 106.18,512.04 C103.24,514.71 89.39,526.32 87.62,528.25 C86.83,529.11 82.49,534.56 81.36,535.63 C80.33,536.61 78.58,538.10 78.63,537.98 C78.63,537.98 78.35,534.78 78.35,534.78" fill="none" stroke="rgb(255, 255, 0)" stroke-width="3.23" stroke-opacity="1.00" stroke-linejoin="round"/>
<path d="M82.34,437.83 C82.34,437.83 81.67,435.83 81.67,435.83 C78.46,446.44 73.90,475.36 73.47,477.30 C73.17,478.55 72.88,479.81 72.59,481.07" fill="none" stroke="rgb(255, 255, 0)" stroke-width="3.23" stroke-opacity="1.00" stroke-linejoin="round"/>
<path d="M91.97,436.50 C91.85,437.56 89.11,451.36 87.71,456.83 C85.10,467.47 78.31,517.88 76.39,525.88 C76.39,525.88 78.02,526.15 78.02,526.15" fill="none" stroke="rgb(255, 255, 0)" stroke-width="3.23" stroke-opacity="1.00" stroke-linejoin="round"/>
<path d="M107.90,440.15 C107.96,444.66 106.44,455.15 104.22,467.06 C102.89,474.46 100.33,488.16 98.48,494.05 C92.61,512.24 90.87,521.35 90.85,521.61 C90.85,521.61 91.49,521.30 91.49,521.30" fill="none" stroke="rgb(255, 255, 0)" stroke-width="3.23" stroke-opacity="1.00" stroke-linejoin="round"/>
<path d="M128.82,443.47 C128.82,443.47 128.11,443.62 128.11,443.62 C127.16,446.25 119.12,476.89 113.72,493.82 C113.19,495.46 112.27,498.29 111.88,499.49 C111.07,501.97 110.33,505.40 110.10,506.46" fill="none" stroke="rgb(255, 255, 0)" stroke-width="3.23" stroke-opacity="1.00" stroke-linejoin="round"/>
<path d="M141.11,448.45 C140.12,450.75 139.62,452.10 139.17,453.92 C137.66,459.96 132.39,481.39 131.20,487.03 C131.20,487.03 131.15,486.30 131.15,486.30" fill="none" stroke="rgb(255, 255, 0)" stroke-width="3.23" stroke-opacity="1.00" stroke-linejoin="round"/>
<path d="M151.07,454.76 C149.16,457.56 143.86,472.97 141.93,476.67 C141.77,476.96 141.66,477.06 141.58,476.96" fill="none" stroke="rgb(255, 255, 0)" stroke-width="3.23" stroke-opacity="1.00" stroke-linejoin="round"/>
</g>
</svg>
