<?xml version="1.0" encoding="UTF-8" standalone="no"?>
<!DOCTYPE svg PUBLIC "-//W3C//DTD SVG 1.1//EN" "http://www.w3.org/Graphics/SVG/1.1/DTD/svg11.dtd">
<svg width="128.40" height="181.68" viewBox="0.00 0.00 535.00 757.00" xmlns="http://www.w3.org/2000/svg" xmlns:xlink="http://www.w3.org/1999/xlink">
<g stroke-linecap="round" id="199">
<path d="M120.85,272.40 C120.85,272.40 120.82,271.98 120.82,271.98 C120.69,271.99 116.06,289.79 112.58,304.36 C110.20,315.60 104.83,348.18 103.20,364.07 C102.19,376.75 101.76,405.13 102.04,418.24 C102.87,433.74 103.87,451.38 104.03,453.52" fill="none" stroke="rgb(0, 0, 255)" stroke-width="3.30" stroke-opacity="1.00" stroke-linejoin="round"/>
<path d="M146.97,265.85 C146.97,265.85 148.01,264.73 148.01,264.73 C147.13,265.17 143.56,268.56 142.49,270.40 C138.93,276.67 130.54,305.17 126.64,320.82 C123.39,335.11 117.02,368.13 115.68,381.23 C114.20,398.33 114.40,413.38 114.49,418.06" fill="none" stroke="rgb(0, 0, 255)" stroke-width="3.30" stroke-opacity="1.00" stroke-linejoin="round"/>
<path d="M167.59,253.23 C167.59,253.23 167.79,252.50 167.79,252.50 C165.60,254.49 161.16,263.80 158.00,272.64 C153.36,286.03 143.62,317.12 141.03,327.88 C140.04,332.23 137.71,345.42 136.71,353.11 C135.81,361.10 135.20,371.73 134.83,379.02 C134.59,386.88 134.33,400.78 134.30,406.82" fill="none" stroke="rgb(0, 0, 255)" stroke-width="3.30" stroke-opacity="1.00" stroke-linejoin="round"/>
<path d="M180.17,292.43 C180.17,292.43 181.91,290.88 181.91,290.88 C181.91,290.88 181.88,290.88 181.88,290.88 C179.80,294.61 171.82,309.30 168.78,315.23 C162.39,328.35 146.61,364.29 144.45,370.35 C142.36,376.57 137.51,391.36 135.93,397.15 C133.85,404.85 131.29,418.92 130.13,426.07 C129.38,431.24 128.93,436.10 128.76,440.30" fill="none" stroke="rgb(0, 0, 255)" stroke-width="3.30" stroke-opacity="1.00" stroke-linejoin="round"/>
<path d="M175.99,261.45 C176.36,260.39 176.56,259.70 176.60,259.36 C176.63,259.02 176.55,258.58 176.36,258.01 C176.21,257.93 175.53,258.09 168.40,281.99 C166.43,288.85 162.96,301.25 161.61,308.91 C159.41,322.19 155.11,354.44 153.11,370.21 C151.17,384.24 147.73,411.16 146.87,426.79 C146.74,430.38 146.55,437.39 146.49,440.83 C146.48,444.59 146.47,449.80 146.48,451.26" fill="none" stroke="rgb(0, 0, 255)" stroke-width="3.30" stroke-opacity="1.00" stroke-linejoin="round"/>
<path d="M206.92,267.72 C206.92,267.72 209.14,266.99 209.14,266.99 C208.14,268.49 199.15,280.26 192.36,290.11 C187.77,296.68 181.02,307.54 178.23,313.06 C176.24,317.04 170.68,329.76 168.13,336.06 C166.18,340.99 160.07,359.63 157.59,367.61 C154.34,378.76 152.65,385.52 151.26,392.17" fill="none" stroke="rgb(0, 0, 255)" stroke-width="3.30" stroke-opacity="1.00" stroke-linejoin="round"/>
<path d="M195.30,297.69 C195.30,297.69 196.28,295.91 196.28,295.91 C195.92,296.69 193.02,302.25 189.00,311.15 C184.09,322.44 173.62,350.27 168.53,366.53 C164.98,378.64 158.87,405.23 157.07,417.57 C155.71,428.48 155.33,435.16 155.29,439.68" fill="none" stroke="rgb(0, 0, 255)" stroke-width="3.30" stroke-opacity="1.00" stroke-linejoin="round"/>
<path d="M195.57,292.33 C195.57,292.33 196.02,292.42 196.02,292.42 C196.93,292.58 196.35,297.01 194.88,302.18 C190.36,317.15 181.94,345.67 178.35,359.12 C175.03,372.65 167.98,405.78 166.19,416.76 C163.40,437.20 162.83,448.51 162.78,449.60" fill="none" stroke="rgb(0, 0, 255)" stroke-width="3.30" stroke-opacity="1.00" stroke-linejoin="round"/>
<path d="M185.12,337.44 C185.12,337.44 185.00,337.32 185.00,337.32 C183.66,338.61 178.67,373.28 176.98,390.94 C176.45,398.50 175.58,413.73 175.24,421.39 C175.03,428.11 174.90,440.45 174.90,443.34" fill="none" stroke="rgb(0, 0, 255)" stroke-width="3.30" stroke-opacity="1.00" stroke-linejoin="round"/>
<path d="M238.72,299.42 C238.72,299.42 239.70,297.27 239.70,297.27" fill="none" stroke="rgb(0, 0, 255)" stroke-width="3.30" stroke-opacity="1.00" stroke-linejoin="round"/>
<path d="M240.22,295.33 C240.22,295.33 239.84,294.18 239.84,294.18 C238.24,296.36 235.73,301.05 234.33,303.93 C229.40,314.53 216.32,344.81 209.92,359.94 C204.13,374.27 193.89,403.07 190.66,413.56 C188.70,420.37 185.03,434.88 183.26,442.22 C181.40,450.42 179.19,462.77 178.96,464.78" fill="none" stroke="rgb(0, 0, 255)" stroke-width="3.30" stroke-opacity="1.00" stroke-linejoin="round"/>
<path d="M224.36,295.10 C224.36,295.10 225.93,295.57 225.93,295.57 C226.52,299.42 225.29,308.80 223.59,318.23 C220.69,332.28 213.85,365.15 209.91,383.98 C206.84,398.93 202.42,420.83 199.47,443.26 C197.49,459.17 196.91,473.46 196.93,475.37" fill="none" stroke="rgb(0, 0, 255)" stroke-width="3.30" stroke-opacity="1.00" stroke-linejoin="round"/>
<path d="M211.87,377.95 C211.87,377.95 212.37,378.09 212.37,378.09 C212.42,378.84 211.58,383.41 211.21,386.18 C208.84,404.77 206.59,432.39 206.24,448.05 C206.19,455.71 206.60,466.01 206.71,468.48" fill="none" stroke="rgb(0, 0, 255)" stroke-width="3.30" stroke-opacity="1.00" stroke-linejoin="round"/>
<path d="M220.23,385.40 C220.23,385.40 219.87,385.43 219.87,385.43 C218.86,386.37 216.93,390.96 215.68,394.87 C212.74,404.16 207.32,429.29 204.77,446.73 C202.59,464.81 202.04,479.02 202.12,481.80" fill="none" stroke="rgb(0, 0, 255)" stroke-width="3.30" stroke-opacity="1.00" stroke-linejoin="round"/>
<path d="M253.52,298.42 C253.52,298.42 254.45,297.82 254.45,297.82 C253.66,298.90 251.97,304.00 251.09,307.04 C246.78,322.32 238.45,352.67 234.85,367.26 C233.42,373.51 230.78,385.52 229.24,393.53 C228.70,396.53 228.03,400.22 227.91,400.92" fill="none" stroke="rgb(0, 0, 255)" stroke-width="3.30" stroke-opacity="1.00" stroke-linejoin="round"/>
<path d="M271.19,295.38 C271.19,295.38 271.39,295.39 271.39,295.39 C271.42,295.59 269.30,299.29 267.98,302.13 C265.27,307.95 250.52,345.05 245.92,357.96 C243.54,365.07 238.94,379.22 236.73,386.26 C234.86,392.49 231.45,404.99 230.07,410.23" fill="none" stroke="rgb(0, 0, 255)" stroke-width="3.30" stroke-opacity="1.00" stroke-linejoin="round"/>
<path d="M265.97,352.97 C265.97,352.97 266.15,352.92 266.15,352.92 C266.15,353.17 265.80,353.90 264.80,355.70 C260.46,363.49 248.22,391.82 242.82,406.77 C236.62,425.02 231.05,445.00 226.82,463.98 C225.72,469.47 225.00,473.65 224.54,476.40 C224.49,476.69 224.39,477.17 224.24,477.85" fill="none" stroke="rgb(0, 0, 255)" stroke-width="3.30" stroke-opacity="1.00" stroke-linejoin="round"/>
<path d="M196.72,493.82 C196.72,493.82 197.02,493.33 197.02,493.33 C198.78,493.53 200.65,493.70 202.14,493.76 C205.62,493.89 210.76,493.10 215.05,491.98 C219.08,490.90 223.74,488.93 225.62,487.06 C228.74,483.82 233.01,472.60 233.81,469.08 C234.61,465.43 235.48,453.29 234.64,447.76 C233.94,443.32 230.81,435.12 227.91,431.56 C225.09,428.14 217.20,423.06 212.06,421.14 C207.63,419.52 196.55,417.52 190.16,417.58 C178.14,417.73 170.35,418.00 165.82,418.90 C161.65,419.74 151.69,423.52 144.93,426.94 C136.50,431.37 129.91,435.44 122.78,440.66 C116.80,445.14 111.40,449.54 106.67,454.37 C104.41,456.72 102.11,459.81 100.68,462.63 C99.39,465.22 97.90,469.87 97.47,472.31 C97.08,474.67 97.19,479.95 97.58,481.51 C98.00,483.10 99.78,485.78 100.76,486.44 C102.87,487.78 108.48,488.80 112.74,489.02 C117.59,489.24 145.27,485.06 162.16,481.55 C169.56,480.12 180.81,479.53 185.18,480.41 C186.94,480.79 189.66,484.56 190.02,485.06 C190.87,486.26 191.78,487.72 191.75,487.69 C191.75,487.69 191.39,487.45 191.39,487.45" fill="none" stroke="rgb(255, 165, 0)" stroke-width="3.30" stroke-opacity="1.00" stroke-linejoin="round"/>
<path d="M149.28,432.20 C149.28,432.20 149.67,431.13 149.67,431.13 C148.72,430.93 142.67,440.92 138.85,448.52 C136.20,453.88 132.11,466.79 131.18,472.43 C129.97,480.36 130.21,484.27 130.34,484.88" fill="none" stroke="rgb(255, 165, 0)" stroke-width="3.30" stroke-opacity="1.00" stroke-linejoin="round"/>
<path d="M158.09,423.32 C158.09,423.32 158.12,423.12 158.12,423.12 C156.05,426.68 153.25,432.43 152.61,433.84 C149.67,440.43 144.87,454.18 143.10,461.50 C142.31,464.78 141.36,471.28 141.08,474.82 C140.84,478.12 140.97,480.08 141.15,481.40" fill="none" stroke="rgb(255, 165, 0)" stroke-width="3.30" stroke-opacity="1.00" stroke-linejoin="round"/>
<path d="M176.34,423.42 C176.31,423.51 176.26,423.60 176.18,423.72 C173.80,427.44 169.98,439.27 168.08,446.89 C167.21,450.48 164.60,464.11 163.69,471.71 C163.37,474.52 163.10,478.32 163.03,479.25" fill="none" stroke="rgb(255, 165, 0)" stroke-width="3.30" stroke-opacity="1.00" stroke-linejoin="round"/>
<path d="M195.69,425.08 C195.69,425.08 195.62,424.74 195.62,424.74 C195.54,424.71 192.80,428.12 187.28,447.01 C185.24,454.22 183.01,465.19 182.55,468.29 C182.30,469.99 182.21,471.38 182.18,473.35" fill="none" stroke="rgb(255, 165, 0)" stroke-width="3.30" stroke-opacity="1.00" stroke-linejoin="round"/>
<path d="M201.95,442.97 C201.95,442.97 201.73,442.28 201.73,442.28 C200.77,446.62 197.90,465.96 198.08,468.97 C198.17,470.36 198.44,471.55 198.58,471.52 C198.58,471.52 199.43,470.57 199.43,470.57" fill="none" stroke="rgb(255, 165, 0)" stroke-width="3.30" stroke-opacity="1.00" stroke-linejoin="round"/>
<path d="M219.77,429.58 C219.77,429.58 219.72,429.37 219.72,429.37 C219.25,429.71 214.39,445.10 212.29,451.88 C208.66,464.37 207.23,473.86 206.90,476.54" fill="none" stroke="rgb(255, 165, 0)" stroke-width="3.30" stroke-opacity="1.00" stroke-linejoin="round"/>
<path d="M193.60,485.27 C193.73,485.09 193.86,484.90 193.98,484.72 C194.12,484.53 194.25,484.33 194.39,484.14 C194.39,484.14 194.33,483.36 194.33,483.36 C194.33,483.36 193.83,482.85 193.83,482.85 C193.17,482.86 192.40,483.17 191.87,483.85 C190.67,485.45 190.00,491.30 190.15,494.33 C190.42,499.08 192.29,510.91 194.14,515.96 C196.07,521.31 200.41,537.74 200.85,541.41 C201.72,550.83 204.99,562.13 205.10,567.60 C205.79,579.34 206.49,598.67 206.51,600.86 C206.58,603.82 208.36,607.12 209.38,606.96 C210.85,606.53 213.05,602.83 213.81,599.36 C214.27,597.11 213.84,585.20 212.99,577.20 C212.15,570.13 206.60,539.91 204.50,527.83 C202.56,514.24 197.88,485.10 197.71,484.71 C197.20,483.56 195.88,483.07 194.39,483.29 C191.74,483.70 190.53,484.38 190.02,485.79 C189.95,485.98 189.91,486.23 189.89,486.56" fill="none" stroke="rgb(255, 165, 0)" stroke-width="3.30" stroke-opacity="1.00" stroke-linejoin="round"/>
<path d="M199.33,536.88 C199.33,536.88 198.72,536.97 198.72,536.97 C199.08,536.60 201.40,536.46 204.45,536.36 C204.86,536.34 205.18,536.33 205.42,536.31" fill="none" stroke="rgb(255, 165, 0)" stroke-width="3.30" stroke-opacity="1.00" stroke-linejoin="round"/>
<path d="M139.94,480.33 C139.76,480.20 139.64,480.10 139.58,480.03 C139.55,479.99 139.46,479.84 139.32,479.58 C139.29,479.52 139.25,479.46 139.21,479.40 C138.30,480.05 134.83,483.82 133.35,487.04 C131.83,490.40 129.60,502.82 129.20,510.00 C128.92,515.57 130.04,523.72 132.20,531.63 C133.18,535.04 135.36,539.45 137.65,542.16 C139.57,544.39 143.41,547.38 145.40,547.77 C147.11,548.07 151.99,547.19 153.93,546.50 C155.59,545.89 160.54,543.00 162.11,541.66 C163.76,540.23 168.15,535.31 169.52,532.94 C172.36,527.94 176.14,514.99 176.56,509.73 C176.94,504.62 176.11,491.91 174.88,487.99 C174.16,485.82 171.85,482.27 170.05,480.63 C168.24,479.03 164.14,476.88 161.41,476.18 C158.79,475.53 154.10,475.53 152.35,475.86 C146.61,477.00 139.41,480.56 138.07,482.02 C136.23,484.06 135.25,485.36 134.96,486.11 C134.96,486.11 135.01,486.26 135.01,486.26" fill="none" stroke="rgb(0, 255, 0)" stroke-width="3.30" stroke-opacity="1.00" stroke-linejoin="round"/>
<path d="M144.04,549.90 C143.76,549.74 143.47,549.60 143.28,549.58 C143.17,549.57 142.90,549.58 142.49,549.60 C141.94,550.53 141.58,554.89 141.89,557.10 C142.30,559.67 144.17,563.32 146.12,564.45 C147.76,565.34 152.55,565.57 155.35,564.89 C158.17,564.17 164.03,561.37 166.37,559.76 C168.61,558.19 171.89,554.46 172.84,552.51 C173.74,550.59 174.52,545.21 174.24,542.61 C173.91,539.74 172.38,536.05 170.83,535.21 C170.35,534.96 169.76,535.05 169.40,535.24" fill="none" stroke="rgb(0, 255, 0)" stroke-width="3.30" stroke-opacity="1.00" stroke-linejoin="round"/>
<path d="M138.71,551.19 C138.71,551.19 137.96,550.88 137.96,550.88 C137.19,551.34 136.06,553.86 134.84,557.48 C132.16,565.42 130.22,574.25 130.00,578.74 C129.86,581.80 130.19,588.61 130.70,591.48 C131.31,594.81 133.05,599.76 134.25,601.54 C135.52,603.35 138.79,605.44 140.69,605.85 C144.05,606.52 156.26,604.20 162.95,602.88 C168.83,601.64 177.98,599.69 180.10,598.54 C182.37,597.27 184.55,592.24 184.99,589.78 C185.83,584.85 184.72,568.80 184.13,561.41 C183.77,557.32 182.87,550.85 181.98,547.58 C181.40,545.51 178.72,539.21 177.41,537.29 C176.37,535.79 174.21,534.91 174.15,534.99 C174.15,534.99 173.99,535.41 173.99,535.41" fill="none" stroke="rgb(0, 255, 0)" stroke-width="3.30" stroke-opacity="1.00" stroke-linejoin="round"/>
<path d="M127.91,572.36 C127.92,572.08 127.94,571.73 127.97,571.41 C127.97,571.36 127.98,571.32 127.98,571.31 C128.05,571.97 126.67,576.69 126.18,578.80 C124.36,586.65 121.87,611.13 121.92,617.41 C121.97,621.20 122.42,624.83 123.46,625.95 C124.98,626.30 128.32,624.85 131.10,622.79 C133.88,620.69 138.19,615.98 139.27,613.25 C140.37,610.31 140.03,603.43 138.92,601.68 C137.91,600.17 135.78,600.00 134.96,600.56" fill="none" stroke="rgb(0, 255, 0)" stroke-width="3.30" stroke-opacity="1.00" stroke-linejoin="round"/>
<path d="M118.21,623.50 C118.21,623.50 117.59,622.42 117.59,622.42 C117.22,623.34 117.51,628.99 118.36,632.34 C119.24,635.72 122.16,641.99 123.74,644.03 C124.66,645.17 126.17,646.29 126.93,646.38 C128.02,646.46 129.71,644.56 130.07,643.55 C131.21,640.23 131.12,633.94 130.35,630.34 C129.88,628.26 129.69,627.57 128.95,625.34 C128.83,624.98 128.69,624.53 128.52,623.97" fill="none" stroke="rgb(0, 255, 0)" stroke-width="3.30" stroke-opacity="1.00" stroke-linejoin="round"/>
<path d="M145.50,604.09 C145.50,604.09 144.61,602.95 144.61,602.95 C144.29,602.97 140.08,606.04 137.92,622.84 C136.95,630.74 137.41,639.29 138.31,640.92 C139.22,642.43 142.24,642.98 144.49,642.48 C146.54,642.00 150.93,640.45 152.33,639.41 C153.68,638.38 155.59,635.11 156.19,633.26 C156.79,631.30 157.22,626.78 156.99,624.01 C156.78,621.61 155.38,615.73 154.43,613.24 C153.37,610.49 150.85,606.04 149.33,604.78 C147.94,603.66 144.74,602.95 143.47,603.91 C143.00,604.27 142.70,604.97 142.59,605.55" fill="none" stroke="rgb(0, 255, 0)" stroke-width="3.30" stroke-opacity="1.00" stroke-linejoin="round"/>
<path d="M138.58,640.63 C138.58,640.63 138.02,640.85 138.02,640.85 C137.47,641.69 136.85,646.32 136.76,648.65 C136.72,649.77 136.82,658.64 136.91,660.11 C137.06,662.30 138.54,666.58 139.85,668.44 C141.36,670.55 144.81,673.76 145.62,673.85 C146.58,673.89 148.37,671.50 149.78,668.19 C151.13,664.96 153.99,656.83 154.43,654.27 C154.96,650.90 153.86,643.89 152.43,641.87 C150.60,639.41 147.83,640.25 147.63,640.46" fill="none" stroke="rgb(0, 255, 0)" stroke-width="3.30" stroke-opacity="1.00" stroke-linejoin="round"/>
<path d="M144.14,670.84 C144.14,670.84 143.91,671.00 143.91,671.00 C143.91,671.00 143.79,671.34 143.79,671.34 C143.20,671.10 130.91,658.93 127.14,656.91 C125.25,655.91 122.86,654.97 122.13,654.96 C121.34,655.00 120.22,655.48 119.75,656.03 C118.66,657.46 118.09,663.72 119.10,667.42 C119.70,669.46 121.56,672.80 122.88,674.15 C125.30,676.53 131.79,678.63 136.24,679.19 C139.27,679.55 143.15,679.54 144.37,678.84 C145.61,678.09 147.17,675.06 147.11,673.46 C147.05,672.27 145.67,667.67 144.34,663.91 C143.86,662.52 143.57,661.40 143.55,661.06" fill="none" stroke="rgb(0, 255, 0)" stroke-width="3.30" stroke-opacity="1.00" stroke-linejoin="round"/>
<path d="M161.54,601.14 C161.61,600.58 161.65,600.23 161.66,600.11 C161.67,599.98 161.67,599.91 161.65,599.89 C161.44,599.92 161.07,600.10 160.89,600.40 C159.75,602.41 159.87,618.08 160.76,623.82 C161.34,627.34 163.42,633.09 165.05,634.56 C165.86,635.22 167.55,635.82 168.58,635.67 C171.03,635.25 175.72,632.60 177.51,631.46 C181.51,628.85 184.03,626.90 184.74,625.18 C185.95,621.94 184.76,607.34 183.25,602.01 C182.82,600.61 181.41,599.08 180.18,598.63 C178.12,597.95 171.01,598.09 168.95,598.56 C166.87,599.08 164.07,601.10 162.94,603.07 C162.02,604.73 160.26,610.61 160.11,613.06 C160.07,613.83 160.29,614.46 160.49,614.76 C160.49,614.76 160.65,614.82 160.65,614.82" fill="none" stroke="rgb(0, 255, 0)" stroke-width="3.30" stroke-opacity="1.00" stroke-linejoin="round"/>
<path d="M162.40,637.38 C162.40,637.38 162.15,636.59 162.15,636.59 C162.23,636.69 162.47,638.69 162.66,640.22 C163.19,643.91 168.48,656.76 171.15,660.11 C171.92,661.05 173.63,662.46 174.39,662.74 C176.03,663.29 179.36,661.67 181.00,659.77 C182.66,657.79 185.36,652.98 186.50,649.41 C187.09,647.47 187.78,643.22 187.76,641.48 C187.68,637.74 186.20,632.10 184.58,628.69 C183.66,626.78 183.07,625.79 182.08,624.43 C182.08,624.43 182.04,625.80 182.04,625.80" fill="none" stroke="rgb(0, 255, 0)" stroke-width="3.30" stroke-opacity="1.00" stroke-linejoin="round"/>
<path d="M176.48,664.64 C176.48,664.64 176.48,664.65 176.48,664.65 C176.48,664.93 176.49,665.14 176.50,665.28 C176.62,666.98 177.61,669.80 178.77,670.71 C179.88,671.52 182.85,672.08 185.13,671.91 C187.54,671.71 191.92,670.49 194.56,669.49 C196.71,668.65 201.60,666.13 202.83,664.71 C204.23,663.01 205.51,657.22 205.17,653.40 C204.78,649.53 202.21,642.90 200.56,640.84 C199.21,639.21 196.09,638.18 194.33,638.65 C191.10,639.59 186.55,643.49 185.51,644.51 C185.27,644.76 184.83,645.20 184.21,645.84" fill="none" stroke="rgb(0, 255, 0)" stroke-width="3.30" stroke-opacity="1.00" stroke-linejoin="round"/>
<path d="M183.10,597.76 C183.10,597.76 182.93,597.78 182.93,597.78 C182.80,597.85 182.79,598.80 183.00,600.18 C183.47,603.12 185.64,608.55 186.84,610.88 C188.13,613.35 190.84,617.21 192.47,617.69 C194.23,618.16 198.47,616.21 200.82,614.04 C201.88,613.04 202.57,611.80 202.61,611.24" fill="none" stroke="rgb(0, 255, 0)" stroke-width="3.30" stroke-opacity="1.00" stroke-linejoin="round"/>
<path d="M183.03,545.49 C183.03,545.49 183.64,544.17 183.64,544.17 C184.01,544.20 188.21,552.36 193.05,561.21 C195.91,566.29 201.08,575.55 202.73,581.42 C203.20,583.12 204.55,588.90 204.62,589.33 C204.68,589.65 204.76,590.23 204.86,591.08" fill="none" stroke="rgb(0, 255, 0)" stroke-width="3.30" stroke-opacity="1.00" stroke-linejoin="round"/>
<path d="M206.09,610.95 C205.86,609.34 205.44,608.45 204.69,608.29 C203.91,608.14 202.15,609.14 201.64,610.40 C201.16,611.74 201.84,615.41 202.92,617.32 C204.09,619.33 207.29,622.27 208.64,622.40 C209.33,622.44 210.61,621.62 210.92,620.88 C211.55,619.19 210.06,613.95 208.62,611.44 C206.10,607.14 203.46,606.47 202.62,606.42 C202.46,606.41 202.28,606.42 202.09,606.44" fill="none" stroke="rgb(0, 255, 0)" stroke-width="3.30" stroke-opacity="1.00" stroke-linejoin="round"/>
<path d="M138.51,502.43 C138.35,502.39 138.23,502.37 138.14,502.36 C137.86,502.32 137.62,502.30 137.42,502.30 C137.28,502.30 137.02,502.32 136.63,502.36 C136.38,502.96 136.47,505.27 137.14,506.94 C137.92,508.79 140.43,511.03 141.94,510.98 C142.75,510.91 144.16,510.19 144.72,509.48 C146.07,507.67 147.06,501.51 146.89,500.89 C146.89,500.89 146.93,501.46 146.93,501.46" fill="none" stroke="rgb(0, 255, 0)" stroke-width="3.30" stroke-opacity="1.00" stroke-linejoin="round"/>
<path d="M146.46,541.78 C146.46,541.78 146.06,541.14 146.06,541.14 C146.06,541.14 145.79,541.29 145.79,541.29 C145.63,541.17 147.64,537.49 150.00,536.48 C151.22,535.99 155.03,536.67 156.51,537.98 C157.29,538.67 158.18,539.76 158.99,540.89 C158.99,540.89 158.95,540.66 158.95,540.66" fill="none" stroke="rgb(0, 255, 0)" stroke-width="3.30" stroke-opacity="1.00" stroke-linejoin="round"/>
<path d="M160.28,503.52 C160.28,503.52 160.14,503.47 160.14,503.47 C160.11,503.54 160.20,503.71 160.65,504.27 C162.36,506.38 164.36,507.41 165.43,506.84 C166.71,506.09 168.84,502.18 169.78,499.44 C170.11,498.48 170.62,496.95 170.80,496.37 C170.80,496.37 170.81,496.56 170.81,496.56" fill="none" stroke="rgb(0, 255, 0)" stroke-width="3.30" stroke-opacity="1.00" stroke-linejoin="round"/>
<path d="M170.81,511.54 C170.82,511.40 170.83,511.29 170.85,511.20 C170.86,511.12 170.89,510.93 170.95,510.65 C171.00,511.53 170.61,515.66 171.02,516.08 C171.06,516.12 171.16,516.19 171.34,516.30 C172.45,515.41 172.01,510.63 171.43,509.92 C171.39,509.88 171.29,509.80 171.12,509.67 C171.12,509.67 171.07,512.39 171.07,512.39" fill="none" stroke="rgb(0, 255, 0)" stroke-width="3.30" stroke-opacity="1.00" stroke-linejoin="round"/>
<path d="M173.56,522.97 C173.56,522.97 172.97,523.15 172.97,523.15 C172.97,523.15 173.16,527.77 173.16,527.77 C173.16,527.77 172.94,522.17 172.94,522.17 C172.94,522.17 172.29,525.58 172.29,525.58" fill="none" stroke="rgb(0, 255, 0)" stroke-width="3.30" stroke-opacity="1.00" stroke-linejoin="round"/>
</g>
</svg>
