<?xml version="1.0" encoding="UTF-8" standalone="no"?>
<!DOCTYPE svg PUBLIC "-//W3C//DTD SVG 1.1//EN" "http://www.w3.org/Graphics/SVG/1.1/DTD/svg11.dtd">
<svg width="128.40" height="181.68" viewBox="0.00 0.00 535.00 757.00" xmlns="http://www.w3.org/2000/svg" xmlns:xlink="http://www.w3.org/1999/xlink">
<g stroke-linecap="round" id="200">
<path d="M38.12,237.67 C38.03,237.67 37.97,237.66 37.94,237.66 C37.91,237.65 37.86,237.63 37.81,237.61 C37.71,240.10 34.00,256.73 32.25,264.56 C29.96,275.63 28.04,288.09 27.41,294.89 C26.91,300.70 26.90,301.49 27.02,302.56" fill="none" stroke="rgb(0, 255, 0)" stroke-width="4.07" stroke-opacity="1.00" stroke-linejoin="round"/>
<path d="M54.22,291.90 C53.80,291.59 53.51,291.40 53.36,291.30 C53.20,291.20 52.97,291.07 52.65,290.91 C51.73,294.01 52.28,305.80 53.44,313.62 C56.27,331.00 62.87,371.23 63.28,376.54 C63.39,377.92 63.35,378.72 63.23,378.92 C63.23,378.92 63.17,378.86 63.17,378.86" fill="none" stroke="rgb(0, 255, 0)" stroke-width="4.07" stroke-opacity="1.00" stroke-linejoin="round"/>
<path d="M88.51,307.31 C88.51,307.31 89.47,307.11 89.47,307.11 C91.55,313.74 95.65,348.03 97.44,364.11 C98.95,378.85 102.25,410.10 104.03,426.61 C104.35,429.45 105.47,439.11 105.57,439.85 C105.57,439.86 105.61,439.86 105.61,439.85 C105.61,439.73 105.60,439.60 105.58,439.45 C105.34,437.61 105.09,432.44 104.96,429.57" fill="none" stroke="rgb(0, 255, 0)" stroke-width="4.07" stroke-opacity="1.00" stroke-linejoin="round"/>
<path d="M69.79,120.93 C69.98,120.88 70.13,120.84 70.22,120.82 C70.39,120.77 70.57,120.73 70.75,120.69 C70.19,122.91 69.88,124.30 69.75,125.45 C68.98,131.99 69.14,173.45 69.84,183.75 C70.53,192.43 71.67,199.12 71.85,200.16" fill="none" stroke="rgb(0, 255, 0)" stroke-width="4.07" stroke-opacity="1.00" stroke-linejoin="round"/>
<path d="M101.32,207.60 C101.32,207.60 100.32,207.86 100.32,207.86 C100.15,209.19 100.92,227.67 101.22,235.66 C101.39,246.88 100.88,269.91 100.81,272.46" fill="none" stroke="rgb(0, 255, 0)" stroke-width="4.07" stroke-opacity="1.00" stroke-linejoin="round"/>
<path d="M154.93,77.21 C154.93,77.21 157.73,73.46 157.73,73.46 C156.05,79.40 152.43,114.55 151.31,131.27 C150.90,140.20 150.11,158.50 150.00,159.97" fill="none" stroke="rgb(0, 255, 0)" stroke-width="4.07" stroke-opacity="1.00" stroke-linejoin="round"/>
<path d="M130.54,206.22 C129.27,208.43 129.05,210.65 129.52,216.22 C130.45,224.61 132.35,243.17 132.58,247.08 C133.04,262.47 133.94,294.44 134.66,312.17 C135.36,323.93 135.89,328.72 136.51,332.19" fill="none" stroke="rgb(0, 255, 0)" stroke-width="4.07" stroke-opacity="1.00" stroke-linejoin="round"/>
<path d="M169.12,198.55 C169.45,197.22 169.68,196.30 169.81,195.79 C170.28,194.03 170.66,192.88 170.70,193.01 C170.71,197.50 168.23,213.95 167.08,221.45 C164.37,241.51 163.39,252.77 163.08,259.59" fill="none" stroke="rgb(0, 255, 0)" stroke-width="4.07" stroke-opacity="1.00" stroke-linejoin="round"/>
<path d="M169.81,271.88 C169.81,271.88 169.64,271.31 169.64,271.31 C170.38,272.81 170.75,273.80 171.08,275.44 C172.20,280.99 174.21,294.63 174.98,301.33 C175.95,311.85 176.88,343.67 177.11,354.95 C177.15,356.07 177.19,357.20 177.23,358.32 C177.23,358.32 177.17,357.51 177.17,357.51" fill="none" stroke="rgb(0, 255, 0)" stroke-width="4.07" stroke-opacity="1.00" stroke-linejoin="round"/>
<path d="M191.44,296.19 C191.44,296.19 191.30,295.60 191.30,295.60 C192.19,296.00 192.70,299.72 193.24,305.32 C193.62,309.47 194.42,317.95 194.83,322.28 C196.02,333.83 197.12,339.02 197.31,339.93" fill="none" stroke="rgb(0, 255, 0)" stroke-width="4.07" stroke-opacity="1.00" stroke-linejoin="round"/>
<path d="M201.27,94.51 C201.27,94.51 198.93,95.09 198.93,95.09 C198.93,95.09 198.77,95.94 198.77,95.94 C203.06,96.65 206.78,98.15 208.33,99.55 C210.11,101.22 212.85,106.28 213.95,110.10 C215.38,115.26 216.46,129.52 216.61,139.62 C216.61,147.08 216.59,162.97 216.57,171.40 C216.71,184.06 217.37,190.78 217.62,193.08" fill="none" stroke="rgb(0, 255, 0)" stroke-width="4.07" stroke-opacity="1.00" stroke-linejoin="round"/>
<path d="M200.89,206.95 C200.89,206.95 200.46,203.87 200.46,203.87 C202.62,220.92 208.59,280.01 210.08,295.79 C210.33,298.37 210.99,304.83 211.40,308.73 C211.41,308.55 211.27,307.68 211.21,307.30 C210.78,304.55 210.04,286.00 210.70,277.89 C211.36,270.00 212.53,261.21 212.77,259.71" fill="none" stroke="rgb(0, 255, 0)" stroke-width="4.07" stroke-opacity="1.00" stroke-linejoin="round"/>
<path d="M246.22,88.91 C246.05,89.35 245.91,89.63 245.79,89.75 C245.68,89.87 245.44,89.99 245.07,90.12 C245.12,87.92 247.58,83.89 249.35,83.08 C250.56,84.06 251.17,85.00 251.44,86.65 C252.20,91.29 251.72,105.45 250.75,114.79 C249.60,124.60 247.85,135.76 246.12,144.46 C244.46,151.83 242.52,160.36 242.26,161.51 C242.19,161.79 242.08,162.21 241.93,162.76" fill="none" stroke="rgb(0, 255, 0)" stroke-width="4.07" stroke-opacity="1.00" stroke-linejoin="round"/>
<path d="M249.06,270.92 C249.06,270.92 248.53,270.80 248.53,270.80 C246.87,273.80 244.80,290.73 245.19,298.31 C245.38,301.83 245.87,306.38 246.08,308.04 C246.06,308.02 246.07,307.98 246.10,307.92 C246.14,307.86 246.25,307.70 246.45,307.43" fill="none" stroke="rgb(0, 255, 0)" stroke-width="4.07" stroke-opacity="1.00" stroke-linejoin="round"/>
<path d="M261.33,257.35 C261.33,257.35 261.40,256.74 261.40,256.74 C261.46,259.02 261.62,264.91 261.72,268.52 C262.04,280.90 262.03,283.78 262.02,284.46" fill="none" stroke="rgb(0, 255, 0)" stroke-width="4.07" stroke-opacity="1.00" stroke-linejoin="round"/>
<path d="M271.69,191.31 C271.99,189.82 272.48,187.97 272.64,187.33 C272.69,187.14 272.72,187.01 272.71,186.92 C273.38,189.78 275.08,232.57 275.47,248.52 C275.96,264.25 277.47,302.18 278.33,309.55 C278.95,314.41 279.09,315.09 279.27,315.50 C279.33,315.44 279.36,315.30 279.37,315.08 C279.39,314.30 279.33,312.23 279.37,309.87 C279.52,301.57 281.26,291.22 282.72,283.94" fill="none" stroke="rgb(0, 255, 0)" stroke-width="4.07" stroke-opacity="1.00" stroke-linejoin="round"/>
<path d="M296.54,95.43 C296.55,95.23 296.57,95.09 296.58,95.01 C296.59,94.92 296.63,94.78 296.67,94.58 C296.67,94.58 296.75,94.58 296.75,94.58 C298.56,97.91 300.02,102.65 300.41,104.84 C301.07,108.66 302.34,126.36 302.52,132.10 C302.63,139.70 301.30,170.41 300.90,178.67 C300.77,181.42 300.54,186.89 300.51,188.55" fill="none" stroke="rgb(0, 255, 0)" stroke-width="4.07" stroke-opacity="1.00" stroke-linejoin="round"/>
<path d="M332.90,170.44 C332.90,170.44 331.91,170.25 331.91,170.25 C333.29,172.91 334.03,174.71 334.47,176.76 C336.03,184.06 339.73,222.46 341.19,238.94 C341.85,247.65 342.70,258.89 342.89,261.43" fill="none" stroke="rgb(0, 255, 0)" stroke-width="4.07" stroke-opacity="1.00" stroke-linejoin="round"/>
<path d="M353.22,99.65 C353.08,99.09 352.92,98.72 352.76,98.54 C352.60,98.36 352.20,98.12 351.57,97.82 C351.00,98.35 350.94,99.26 351.45,101.27 C353.43,109.18 354.63,121.92 354.77,129.37 C354.88,136.40 352.15,173.09 350.82,189.00 C350.17,196.38 350.10,198.73 350.09,199.10" fill="none" stroke="rgb(0, 255, 0)" stroke-width="4.07" stroke-opacity="1.00" stroke-linejoin="round"/>
<path d="M382.37,143.52 C382.37,143.52 382.55,143.54 382.55,143.54 C383.13,146.20 383.41,147.71 383.66,149.92 C384.41,156.58 384.71,174.29 384.62,179.60 C384.51,183.88 383.00,205.28 382.40,210.37 C381.81,215.35 379.41,230.66 378.50,234.63" fill="none" stroke="rgb(0, 255, 0)" stroke-width="4.07" stroke-opacity="1.00" stroke-linejoin="round"/>
<path d="M391.88,234.26 C391.88,234.26 391.42,234.21 391.42,234.21 C391.42,234.21 390.85,233.63 390.85,233.63 C390.85,233.63 391.57,232.35 391.57,232.35 C391.57,232.35 392.39,232.73 392.39,232.73 C392.85,234.31 390.96,247.94 390.65,258.10 C390.38,272.65 390.77,313.79 391.51,316.22 C391.59,316.45 391.78,316.72 392.09,317.04" fill="none" stroke="rgb(0, 255, 0)" stroke-width="4.07" stroke-opacity="1.00" stroke-linejoin="round"/>
<path d="M431.77,112.46 C431.77,112.46 431.96,111.37 431.96,111.37 C433.38,114.74 434.27,122.13 434.42,124.21 C434.82,129.71 433.85,144.61 433.31,149.90 C432.89,153.45 429.57,171.52 428.09,179.31 C426.57,187.13 423.19,204.89 423.11,208.21 C423.10,208.47 423.11,208.83 423.15,209.31" fill="none" stroke="rgb(0, 255, 0)" stroke-width="4.07" stroke-opacity="1.00" stroke-linejoin="round"/>
<path d="M451.86,172.75 C451.86,172.75 454.35,164.68 454.35,164.68 C456.04,179.35 459.31,209.94 460.42,224.37 C461.23,239.84 462.03,271.38 461.04,283.39 C460.02,293.93 458.28,306.52 456.49,311.02 C456.49,311.02 456.01,310.59 456.01,310.59 C456.01,310.59 455.84,309.51 455.84,309.51" fill="none" stroke="rgb(0, 255, 0)" stroke-width="4.07" stroke-opacity="1.00" stroke-linejoin="round"/>
<path d="M426.24,247.99 C426.24,247.99 425.62,248.16 425.62,248.16 C426.52,251.32 428.17,265.15 428.81,271.90 C429.58,280.75 429.92,294.96 429.61,302.86 C429.18,313.43 424.83,345.93 424.21,347.97 C424.21,347.97 423.97,347.94 423.97,347.94 C423.97,347.94 423.87,345.67 423.87,345.67" fill="none" stroke="rgb(0, 255, 0)" stroke-width="4.07" stroke-opacity="1.00" stroke-linejoin="round"/>
<path d="M473.41,109.31 C473.41,109.31 475.77,108.05 475.77,108.05 C477.33,116.44 478.24,128.68 478.46,136.64 C478.64,151.53 477.44,176.60 475.75,193.87 C474.28,205.61 472.50,216.54 471.67,218.04 C471.67,218.04 471.50,216.86 471.50,216.86" fill="none" stroke="rgb(0, 255, 0)" stroke-width="4.07" stroke-opacity="1.00" stroke-linejoin="round"/>
<path d="M514.14,90.14 C514.14,90.14 511.43,82.42 511.43,82.42 C511.07,84.76 508.18,127.43 506.49,142.92 C506.31,144.39 505.92,147.72 505.84,148.33 C505.59,150.05 504.95,153.86 504.72,155.16" fill="none" stroke="rgb(0, 255, 0)" stroke-width="4.07" stroke-opacity="1.00" stroke-linejoin="round"/>
<path d="M492.74,194.30 C492.64,194.31 492.57,194.33 492.52,194.34 C492.33,194.42 492.14,194.70 492.07,194.79 C491.80,195.17 488.74,199.51 485.68,205.68 C481.96,213.36 481.27,219.01 481.38,219.96 C481.38,219.96 481.83,220.09 481.83,220.09 C482.21,219.70 482.54,219.33 482.83,219.00 C485.13,216.28 495.76,198.74 498.86,193.35" fill="none" stroke="rgb(0, 255, 0)" stroke-width="4.07" stroke-opacity="1.00" stroke-linejoin="round"/>
<path d="M508.70,174.05 C508.70,174.05 510.63,170.36 510.63,170.36 C508.89,186.12 505.86,217.28 504.56,232.67 C504.12,239.47 503.43,256.21 503.25,262.90" fill="none" stroke="rgb(0, 255, 0)" stroke-width="4.07" stroke-opacity="1.00" stroke-linejoin="round"/>
<path d="M481.24,258.57 C481.24,258.57 481.76,255.71 481.76,255.71 C481.83,259.52 480.96,274.53 480.58,282.37 C479.97,298.61 478.71,335.91 478.24,344.67 C477.02,360.81 473.57,398.08 473.11,405.62 C473.04,407.10 472.94,409.50 472.90,410.41 C472.89,410.23 472.88,410.06 472.87,409.89 C472.84,409.50 472.82,409.10 472.80,408.70" fill="none" stroke="rgb(0, 255, 0)" stroke-width="4.07" stroke-opacity="1.00" stroke-linejoin="round"/>
<path d="M498.57,316.79 C500.12,317.00 501.30,317.41 501.71,318.13 C502.52,319.63 502.48,335.01 502.28,340.43 C501.87,348.21 500.97,364.37 500.47,372.76 C499.47,389.10 498.32,407.72 498.18,410.00" fill="none" stroke="rgb(0, 255, 0)" stroke-width="4.07" stroke-opacity="1.00" stroke-linejoin="round"/>
<path d="M472.88,430.46 C472.59,431.88 472.41,432.82 472.33,433.29 C472.23,433.93 469.47,456.46 468.49,464.41 C467.58,472.02 467.64,473.92 467.78,475.78" fill="none" stroke="rgb(0, 255, 0)" stroke-width="4.07" stroke-opacity="1.00" stroke-linejoin="round"/>
<path d="M515.37,430.00 C514.55,432.78 514.21,439.81 514.20,442.14 C514.22,447.36 516.10,464.78 516.95,472.20 C517.10,473.38 517.25,474.55 517.39,475.72" fill="none" stroke="rgb(0, 255, 0)" stroke-width="4.07" stroke-opacity="1.00" stroke-linejoin="round"/>
<path d="M409.75,397.63 C409.67,397.71 409.73,397.87 409.92,398.13 C410.62,399.06 417.00,407.66 418.35,410.21 C421.19,415.63 425.62,430.26 426.56,435.94 C426.72,436.95 427.33,441.31 427.51,442.62" fill="none" stroke="rgb(0, 255, 0)" stroke-width="4.07" stroke-opacity="1.00" stroke-linejoin="round"/>
<path d="M410.98,315.64 C411.07,314.92 411.14,314.43 411.19,314.17 C411.24,313.91 411.34,313.51 411.48,312.98 C411.47,314.39 411.47,315.06 411.51,317.19 C411.63,322.43 415.83,363.08 417.04,378.96 C417.37,385.70 417.92,403.04 417.72,408.47 C417.38,416.55 416.63,423.08 416.52,424.05" fill="none" stroke="rgb(0, 255, 0)" stroke-width="4.07" stroke-opacity="1.00" stroke-linejoin="round"/>
<path d="M409.91,454.47 C409.91,454.47 409.38,454.70 409.38,454.70 C408.73,455.76 409.14,460.64 409.40,463.77 C409.72,467.52 410.35,475.61 410.33,478.09 C410.30,481.96 409.26,486.90 408.56,488.28 C408.06,488.14 407.74,488.03 407.59,487.95 C407.45,487.87 407.29,487.69 407.10,487.43" fill="none" stroke="rgb(0, 255, 0)" stroke-width="4.07" stroke-opacity="1.00" stroke-linejoin="round"/>
<path d="M355.29,404.15 C355.29,404.15 355.82,403.41 355.82,403.41 C355.82,403.41 356.31,403.39 356.31,403.39 C357.01,405.24 357.87,411.91 358.37,416.43 C358.73,420.33 359.42,428.17 359.75,432.12 C360.09,436.52 360.54,442.23 360.64,443.53" fill="none" stroke="rgb(0, 255, 0)" stroke-width="4.07" stroke-opacity="1.00" stroke-linejoin="round"/>
<path d="M311.88,315.41 C312.53,313.97 312.93,313.08 313.08,312.73 C313.23,312.37 313.33,312.07 313.40,311.80 C312.81,314.32 312.13,321.30 311.83,325.95 C311.10,340.36 310.12,373.08 309.00,382.94 C308.68,385.66 308.23,387.56 307.74,388.48" fill="none" stroke="rgb(0, 255, 0)" stroke-width="4.07" stroke-opacity="1.00" stroke-linejoin="round"/>
<path d="M330.67,326.38 C330.67,326.38 330.27,325.72 330.27,325.72 C329.50,328.44 328.53,366.38 328.42,380.59 C328.46,384.44 328.56,391.31 328.62,394.34 C328.70,396.85 328.81,400.21 328.85,401.06 C328.85,401.00 328.87,400.91 328.90,400.79 C328.92,400.68 329.00,400.38 329.13,399.90" fill="none" stroke="rgb(0, 255, 0)" stroke-width="4.07" stroke-opacity="1.00" stroke-linejoin="round"/>
<path d="M357.36,290.40 C356.96,291.86 356.71,292.78 356.62,293.18 C355.93,296.27 355.67,311.56 355.55,318.79 C355.48,327.19 355.43,344.58 355.45,353.59 C355.54,356.83 355.66,361.04 355.69,362.01" fill="none" stroke="rgb(0, 255, 0)" stroke-width="4.07" stroke-opacity="1.00" stroke-linejoin="round"/>
<path d="M376.00,311.27 C376.00,311.27 376.37,309.97 376.37,309.97 C376.82,312.26 376.69,325.47 376.40,335.29 C375.74,351.63 374.83,374.01 374.90,378.75" fill="none" stroke="rgb(0, 255, 0)" stroke-width="4.07" stroke-opacity="1.00" stroke-linejoin="round"/>
<path d="M238.94,343.25 C238.94,343.25 239.00,342.79 239.00,342.79 C239.00,342.79 241.33,341.77 241.33,341.77 C241.65,344.56 241.13,350.93 240.82,355.01 C239.82,370.17 237.91,402.46 236.99,419.59 C236.67,426.07 236.18,435.01 236.01,437.45" fill="none" stroke="rgb(0, 255, 0)" stroke-width="4.07" stroke-opacity="1.00" stroke-linejoin="round"/>
<path d="M145.36,401.08 C145.36,401.08 145.50,400.58 145.50,400.58 C143.80,409.97 142.36,421.30 142.42,426.68 C142.55,434.51 144.07,438.78 144.34,439.23" fill="none" stroke="rgb(0, 255, 0)" stroke-width="4.07" stroke-opacity="1.00" stroke-linejoin="round"/>
<path d="M160.70,432.76 C160.70,432.76 160.70,431.60 160.70,431.60 C160.74,432.73 160.85,434.22 161.08,435.49 C161.72,438.97 163.79,446.54 164.81,450.21 C165.40,452.32 165.75,453.39 166.39,455.08" fill="none" stroke="rgb(0, 255, 0)" stroke-width="4.07" stroke-opacity="1.00" stroke-linejoin="round"/>
<path d="M182.18,434.83 C182.75,437.64 184.37,445.67 184.59,446.93 C185.58,452.87 185.24,460.81 185.07,462.65" fill="none" stroke="rgb(0, 255, 0)" stroke-width="4.07" stroke-opacity="1.00" stroke-linejoin="round"/>
<path d="M95.04,456.84 C94.91,455.70 94.44,453.79 93.96,452.92 C93.56,452.20 92.13,451.33 91.49,451.31 C90.89,451.33 89.74,452.11 89.44,452.84 C88.29,455.80 87.67,472.61 88.07,479.14 C88.26,482.17 89.05,488.08 89.72,489.94" fill="none" stroke="rgb(0, 255, 0)" stroke-width="4.07" stroke-opacity="1.00" stroke-linejoin="round"/>
<path d="M118.59,464.82 C118.59,464.82 118.33,463.21 118.33,463.21 C116.91,463.65 112.54,468.31 110.12,471.47 C109.05,472.87 103.96,480.28 101.79,483.53 C99.57,486.95 95.27,493.67 93.19,496.98 C92.49,498.07 91.19,500.11 90.57,501.05" fill="none" stroke="rgb(0, 255, 0)" stroke-width="4.07" stroke-opacity="1.00" stroke-linejoin="round"/>
<path d="M57.76,503.63 C55.78,506.04 54.77,507.39 52.06,511.92 C49.05,517.11 44.77,530.91 44.09,535.57 C42.99,543.37 43.14,549.68 43.23,550.98" fill="none" stroke="rgb(0, 255, 0)" stroke-width="4.07" stroke-opacity="1.00" stroke-linejoin="round"/>
<path d="M20.79,26.94 C20.79,26.94 20.94,26.77 20.94,26.77 C20.94,26.77 20.95,26.45 20.95,26.45 C20.95,26.45 20.64,26.29 20.64,26.29 C18.52,27.27 13.59,30.63 11.37,33.53 C10.17,35.13 8.24,39.44 7.41,42.56 C6.55,45.97 6.72,47.76 7.25,50.13 C8.91,50.56 10.85,50.05 12.66,48.42 C13.72,47.45 15.06,45.61 15.50,44.80 C14.00,45.90 11.88,49.60 11.06,52.29 C9.30,58.29 8.24,67.07 8.39,70.19 C8.51,71.67 9.79,73.88 11.30,75.06 C12.02,75.61 16.68,77.33 17.35,77.50 C19.79,78.06 24.51,76.22 25.84,74.88 C27.32,73.30 28.16,68.23 28.03,66.02 C26.50,66.02 25.13,66.79 23.74,68.60 C21.45,71.59 18.07,82.88 18.21,86.10 C18.33,88.06 19.09,90.31 19.97,90.96 C21.45,91.96 25.80,91.28 30.12,90.06 C33.90,88.95 38.44,86.40 40.57,84.35 C42.96,81.97 45.38,76.75 45.31,74.10 C45.17,71.43 43.69,70.57 42.82,70.46 C46.72,69.31 51.01,66.95 52.36,65.45 C54.30,63.25 56.08,59.27 57.01,56.29 C58.46,51.46 59.32,47.56 59.10,46.09 C58.69,43.67 57.71,40.80 56.71,39.61 C55.70,38.45 53.54,37.41 51.90,37.16 C48.74,36.78 43.94,37.61 43.11,38.41 C44.93,38.02 49.27,34.58 51.16,30.96 C51.90,29.50 53.39,22.34 52.47,21.02 C51.77,20.08 48.60,19.16 46.46,19.11 C44.34,19.11 39.89,21.16 38.18,23.04 C36.77,24.67 34.28,30.19 33.94,32.12 C33.52,34.66 33.72,36.61 34.30,36.94 C34.95,37.16 36.65,36.47 37.85,35.23 C38.84,34.17 39.88,31.53 39.75,30.29 C39.55,28.79 38.57,26.28 37.79,25.39 C35.95,23.42 30.38,22.86 28.05,23.45 C26.72,23.83 24.79,25.20 23.98,26.44 C23.19,27.67 22.42,29.92 22.02,31.72 C24.14,31.96 25.73,31.09 26.48,28.87 C27.02,27.26 26.96,25.62 26.58,25.14 C25.60,24.41 18.71,26.93 16.06,28.85 C15.69,29.11 15.31,29.55 14.91,30.15 C14.91,30.15 15.18,30.54 15.18,30.54" fill="none" stroke="rgb(0, 0, 255)" stroke-width="4.07" stroke-opacity="1.00" stroke-linejoin="round"/>
<path d="M46.26,38.29 C46.98,37.56 47.48,37.05 47.76,36.74 C48.55,35.85 49.10,35.16 49.41,34.66 C49.59,34.35 49.76,33.90 49.93,33.30 C49.00,32.60 44.52,34.72 40.23,37.48 C38.28,38.75 34.75,42.56 33.75,44.15 C32.81,45.68 31.00,50.58 30.65,53.55 C29.76,61.58 30.41,73.27 32.14,77.97 C33.17,80.70 36.17,85.27 38.06,86.62 C39.88,87.86 44.61,89.28 47.52,89.64 C49.27,89.85 55.39,90.04 57.72,89.67 C58.97,89.45 62.62,88.06 63.72,87.31 C63.82,87.25 70.14,80.94 72.18,79.74 C72.93,80.44 76.12,83.56 80.31,84.92 C81.72,85.36 88.17,86.48 89.94,86.40 C92.43,86.26 96.36,84.19 98.49,82.04 C99.99,80.48 104.45,73.67 105.00,73.57 C109.03,76.93 111.59,78.29 115.06,78.89 C118.05,79.34 124.03,79.14 126.47,78.32 C129.24,77.33 134.26,72.67 136.26,69.36 C137.66,67.00 139.64,62.65 140.38,59.66 C140.51,59.54 146.12,58.70 148.27,57.68 C150.88,56.37 154.44,52.63 156.03,48.66 C157.38,45.20 158.21,40.75 158.42,37.83 C158.56,35.76 158.26,30.21 157.05,27.80 C156.32,26.40 153.85,24.64 152.23,24.16 C149.96,23.56 141.54,22.95 136.30,23.01 C131.82,23.11 126.21,24.74 122.68,27.00 C121.23,27.94 117.65,30.75 117.42,30.65 C117.44,29.81 118.24,26.73 118.47,25.53 C118.83,23.54 116.82,19.39 114.80,18.07 C112.93,16.89 106.08,15.48 103.57,15.66 C100.64,15.92 95.56,18.81 93.77,20.80 C92.42,22.35 88.82,28.14 88.18,28.15 C87.74,27.57 86.62,25.98 86.38,25.73 C85.68,25.04 83.54,24.21 82.12,24.19 C79.24,24.18 72.84,26.33 71.43,27.07 C69.43,28.14 61.27,33.50 59.10,35.36 C57.06,37.13 52.83,42.24 51.09,44.33 C50.19,45.40 49.26,46.09 47.66,46.99 C47.92,46.24 48.15,43.70 48.00,41.90 C47.84,40.39 46.36,37.53 45.26,36.90 C42.35,35.33 38.33,36.93 37.84,37.49 C37.84,37.49 38.88,37.65 38.88,37.65" fill="none" stroke="rgb(0, 0, 255)" stroke-width="4.07" stroke-opacity="1.00" stroke-linejoin="round"/>
<path d="M166.91,35.61 C166.91,35.61 166.92,35.68 166.92,35.68 C167.29,35.39 168.39,33.93 168.93,32.89 C169.72,31.31 170.06,25.84 169.52,24.05 C169.10,22.80 167.66,21.45 166.59,21.45 C164.68,21.54 159.43,25.76 157.30,28.92 C156.28,30.49 154.68,35.13 154.59,36.94 C154.51,39.62 155.55,42.10 157.23,43.21 C157.74,43.52 159.89,43.69 160.35,43.48 C161.72,42.75 162.90,40.39 162.73,38.37 C162.55,36.66 160.99,33.46 159.96,32.61 C158.90,31.81 156.80,32.23 155.46,33.27 C154.34,34.20 151.92,38.12 150.98,40.57 C150.09,42.95 148.77,48.69 148.49,51.80 C148.17,55.63 148.69,62.04 149.46,63.29 C150.54,64.94 152.35,66.60 153.66,67.15 C156.99,68.46 163.48,70.17 165.60,69.04 C168.11,67.58 170.87,60.89 170.36,60.06 C170.31,59.99 170.11,59.75 169.74,59.35 C168.37,59.26 166.77,59.58 165.87,60.41 C164.84,61.40 164.27,63.55 164.80,64.72 C165.33,65.78 167.54,67.54 168.97,67.97 C171.69,68.74 177.03,68.40 179.07,68.01 C182.04,67.38 188.03,64.69 190.96,61.99 C192.62,60.42 194.31,57.59 194.84,55.64 C195.05,54.77 194.54,53.35 194.10,52.85 C193.59,52.40 190.54,52.14 188.83,52.49 C186.91,52.92 184.18,54.94 183.95,56.05 C183.89,56.40 183.97,57.08 184.20,58.07 C184.61,58.58 186.58,58.73 188.36,58.22 C189.77,57.80 194.21,52.71 195.62,49.62 C198.72,42.67 199.42,33.93 199.01,31.25 C198.76,29.94 197.40,28.07 196.05,27.36 C194.92,26.82 191.16,26.80 189.66,27.25 C186.51,28.29 181.78,33.71 181.71,34.91 C182.63,35.65 183.39,35.78 184.22,35.11 C185.91,33.71 188.09,30.15 188.93,27.05 C189.07,26.51 189.68,23.38 189.72,22.66 C189.77,20.79 188.93,18.76 187.69,18.30 C185.63,17.64 178.26,20.60 176.11,22.32 C173.77,24.28 171.54,26.66 169.64,29.32 C166.76,33.46 166.37,34.27 166.09,35.30 C166.09,35.30 166.30,35.37 166.30,35.37" fill="none" stroke="rgb(0, 0, 255)" stroke-width="4.07" stroke-opacity="1.00" stroke-linejoin="round"/>
<path d="M215.27,25.22 C215.67,24.27 215.96,23.65 216.11,23.35 C216.36,22.88 216.68,22.47 216.94,22.01 C217.25,21.44 217.40,20.59 217.43,19.65 C216.68,18.39 209.97,15.98 207.13,16.33 C205.65,16.56 203.98,17.54 202.68,18.87 C200.31,21.32 195.64,26.21 193.33,28.65 C190.90,31.26 189.48,33.41 187.64,37.43 C185.45,42.46 183.25,55.39 183.63,60.62 C183.77,62.05 185.05,64.48 186.34,65.73 C187.21,66.54 192.75,67.67 194.85,67.55 C197.44,67.32 201.86,65.27 204.30,62.36 C204.72,61.85 205.30,61.17 206.04,60.32 C206.62,63.26 207.57,65.51 209.11,67.16 C210.94,69.08 216.69,72.40 220.43,73.49 C223.68,74.40 228.75,74.49 230.33,73.87 C233.37,72.58 236.14,68.47 236.75,68.25 C239.44,69.68 253.57,72.62 256.70,72.76 C259.40,72.84 263.23,71.23 264.68,69.62 C265.95,68.17 268.71,62.77 269.43,62.44 C273.29,63.23 280.39,64.10 282.35,63.78 C284.13,63.44 288.50,61.20 290.04,59.61 C293.35,56.09 295.32,47.85 294.90,46.53 C297.26,45.40 301.32,42.86 302.91,40.66 C304.87,37.84 307.04,30.72 306.52,27.29 C306.24,25.70 304.80,23.07 303.77,22.27 C301.50,20.63 296.36,19.58 291.29,18.93 C284.09,18.07 270.61,18.06 266.30,20.15 C264.72,20.92 259.43,24.28 258.95,24.56 C258.74,24.27 258.43,19.13 256.83,17.69 C255.15,16.27 249.25,14.65 245.53,14.97 C239.39,15.54 224.31,19.96 218.92,22.13 C215.00,23.75 214.22,25.15 213.51,27.12 C213.51,27.12 214.22,28.43 214.22,28.43" fill="none" stroke="rgb(0, 0, 255)" stroke-width="4.07" stroke-opacity="1.00" stroke-linejoin="round"/>
<path d="M321.78,27.59 C322.13,26.78 322.34,26.27 322.40,26.05 C322.82,24.57 321.35,23.60 318.83,22.40 C315.64,20.98 305.94,25.16 304.23,26.37 C302.78,27.43 301.69,29.29 300.94,31.81 C300.33,33.96 299.47,38.85 299.65,39.85 C300.02,41.54 301.99,42.86 303.96,42.46 C307.74,41.60 309.70,37.86 310.03,36.00 C310.03,36.00 309.05,34.42 309.05,34.42 C307.37,34.21 305.66,34.44 304.11,35.30 C301.60,36.71 297.65,41.18 296.48,43.40 C295.45,45.42 293.58,51.13 293.37,52.75 C293.15,54.85 293.55,57.41 294.44,58.41 C296.07,60.14 301.66,60.84 305.21,60.76 C312.36,60.54 320.92,57.69 322.20,56.43 C323.87,54.75 324.75,53.32 325.17,51.75 C324.42,50.65 323.12,50.04 321.31,50.30 C319.52,50.59 316.71,52.22 316.16,53.42 C315.98,53.83 315.89,54.61 315.88,55.78 C317.11,57.19 319.05,58.15 321.53,58.43 C323.08,58.60 327.49,57.70 329.38,56.82 C331.52,55.78 334.95,52.90 336.40,50.74 C338.05,48.21 339.78,42.88 339.65,40.90 C339.43,38.49 338.13,36.41 336.42,36.01 C334.52,35.60 330.74,35.98 330.28,36.20 C330.19,36.48 332.69,35.80 334.10,34.94 C335.12,34.30 336.88,31.61 337.25,30.41 C337.65,28.87 337.16,26.88 336.12,26.09 C334.42,24.88 328.29,22.81 325.82,23.49 C324.54,23.88 322.11,25.44 321.15,26.47 C320.12,27.61 319.71,29.09 319.73,30.75 C319.73,30.75 320.86,31.68 320.86,31.68 C322.29,31.04 323.46,29.70 324.00,27.87 C324.23,27.08 323.99,25.57 323.68,24.87 C322.94,23.44 319.01,23.11 317.65,23.33 C317.65,23.33 317.72,23.52 317.72,23.52" fill="none" stroke="rgb(0, 0, 255)" stroke-width="4.07" stroke-opacity="1.00" stroke-linejoin="round"/>
<path d="M-445.05,475.11 C-445.05,475.11 -447.54,473.88 -447.54,473.88 C-447.78,470.73 -444.67,457.79 -443.05,451.19 C-438.83,434.24 -432.40,404.48 -430.24,392.29 C-427.43,373.79 -418.55,294.29 -415.14,262.37 C-411.54,228.05 -404.13,159.69 -400.31,125.65 C-398.57,112.20 -394.89,85.16 -392.96,71.57 C-390.50,55.73 -385.34,23.94 -382.64,7.99 C-379.89,-6.90 -372.95,-39.54 -369.44,-55.21 C-366.41,-68.04 -358.47,-98.05 -353.94,-111.21 C-351.33,-118.44 -344.98,-135.44 -343.66,-138.53 C-340.65,-145.51 -333.18,-159.24 -330.53,-163.09 C-329.72,-164.26 -328.97,-164.95 -327.50,-166.01" fill="none" stroke="rgb(0, 255, 255)" stroke-width="4.07" stroke-opacity="1.00" stroke-linejoin="round"/>
<path d="M361.53,27.49 C361.67,27.04 361.77,26.73 361.84,26.57 C361.98,26.26 362.20,25.99 362.27,25.66 C362.31,25.45 362.32,24.99 362.32,24.26 C360.59,22.33 356.88,20.79 354.70,20.58 C352.24,20.39 347.35,21.92 344.80,23.39 C342.41,24.80 338.30,28.53 336.63,30.70 C332.80,35.79 332.94,40.19 333.27,41.11 C332.83,40.37 332.00,39.77 330.88,39.64 C329.52,39.51 327.57,40.89 326.48,42.76 C325.97,43.68 325.62,46.66 325.75,47.76 C325.97,49.13 327.26,51.77 328.22,52.74 C329.21,53.68 331.77,55.01 333.24,55.35 C337.77,56.32 345.91,54.92 346.62,54.76 C345.19,56.30 344.15,57.85 344.23,58.95 C344.43,61.30 347.54,65.43 349.20,66.45 C351.14,67.59 355.51,68.29 358.41,67.96 C361.67,67.52 367.05,64.76 368.84,62.20 C369.70,60.91 370.97,59.77 373.13,58.24 C374.07,59.13 376.91,59.94 379.67,60.08 C382.29,60.20 387.11,59.68 389.52,59.02 C391.41,58.49 396.66,55.73 398.19,53.58 C398.64,52.92 400.20,49.36 401.01,47.58 C401.15,47.41 406.02,48.64 409.24,48.51 C412.43,48.35 419.39,47.25 422.57,46.34 C426.13,45.28 431.52,42.09 433.31,39.83 C435.01,37.62 436.88,32.10 437.13,29.17 C437.19,27.78 436.56,24.92 435.75,23.81 C434.84,22.64 431.18,21.09 429.16,20.84 C426.65,20.57 419.87,21.44 419.50,21.27 C419.83,20.41 420.07,18.84 419.89,17.92 C419.64,16.78 414.40,13.46 411.91,12.30 C408.76,10.88 402.68,9.17 399.71,9.05 C396.85,8.98 390.67,10.12 387.67,11.10 C384.57,12.16 381.21,14.26 379.03,17.50 C375.04,15.52 372.38,14.64 369.64,14.63 C366.97,14.68 362.80,15.91 361.01,17.31 C359.50,18.54 356.82,26.54 356.45,26.72 C356.45,26.72 356.84,26.64 356.84,26.64" fill="none" stroke="rgb(0, 0, 255)" stroke-width="4.07" stroke-opacity="1.00" stroke-linejoin="round"/>
<path d="M445.22,31.63 C445.22,31.63 445.19,30.71 445.19,30.71 C445.19,30.71 445.68,30.61 445.68,30.61 C446.02,29.88 446.38,28.42 446.38,27.18 C446.33,25.39 445.10,21.96 443.88,20.84 C442.73,19.81 439.99,18.95 438.85,19.08 C436.53,19.45 432.41,22.04 430.53,24.34 C428.87,26.41 426.34,31.23 425.38,33.88 C424.44,36.53 423.68,40.36 423.85,42.60 C423.97,43.82 425.00,46.40 425.92,47.79 C426.87,49.15 430.41,49.65 432.75,48.84 C435.23,47.95 437.42,45.85 437.48,45.54 C436.41,45.60 434.35,49.69 433.99,52.58 C433.71,55.13 433.91,59.99 434.53,62.12 C435.16,64.17 438.58,69.53 440.36,70.86 C442.55,72.42 446.80,72.88 449.57,72.28 C453.27,71.43 458.62,69.40 460.81,67.27 C462.87,65.20 465.54,61.22 465.52,59.87 C463.61,60.05 462.10,61.35 461.75,63.71 C461.49,65.71 462.50,68.92 463.85,70.55 C466.48,73.55 472.51,77.03 475.27,77.54 C477.78,77.94 482.56,77.92 485.10,77.43 C487.80,76.89 492.55,74.87 494.96,73.10 C497.17,71.44 501.14,67.46 502.73,65.46 C506.70,60.39 506.88,57.27 506.65,56.71 C506.22,56.51 504.79,57.25 503.92,58.50 C502.81,60.16 502.43,63.57 503.27,65.18 C503.96,66.41 506.28,68.30 507.76,69.02 C510.63,70.31 517.77,71.08 520.81,70.67 C523.92,70.21 528.43,66.78 530.24,64.48 C531.79,62.45 534.57,57.33 535.51,54.71 C536.58,51.64 537.69,45.35 537.42,42.69 C537.08,39.69 534.48,34.46 532.36,32.25 C531.86,31.75 529.32,29.73 528.53,29.43 C526.47,28.71 523.33,28.67 521.24,29.38 C518.65,30.30 514.82,32.24 514.20,32.67 C514.51,31.72 514.76,29.62 514.84,28.81 C515.02,26.82 514.63,24.57 513.80,23.00 C513.07,21.69 508.94,19.07 505.95,18.09 C502.90,17.13 497.39,16.69 494.57,17.27 C492.27,17.78 486.76,20.46 484.15,22.75 C483.06,23.72 475.21,31.88 474.86,32.18 C474.73,31.79 474.63,24.57 473.49,23.05 C472.19,21.44 468.42,19.41 465.25,18.90 C462.44,18.49 457.64,18.82 455.48,20.29 C453.58,21.64 449.65,26.36 447.46,29.84 C445.82,32.53 442.80,37.50 441.93,38.46 C441.93,38.46 442.07,37.45 442.07,37.45" fill="none" stroke="rgb(0, 0, 255)" stroke-width="4.07" stroke-opacity="1.00" stroke-linejoin="round"/>
<path d="M189.58,344.40 C189.58,344.40 189.08,344.19 189.08,344.19 C189.08,344.19 188.89,343.57 188.89,343.57 C188.44,343.61 186.09,347.41 185.24,349.61 C184.39,351.86 181.47,360.74 181.55,360.84 C184.26,359.08 191.63,357.38 204.21,355.25 C210.07,354.15 223.56,351.68 227.70,351.42 C230.81,351.22 251.63,351.40 257.22,351.13 C302.44,348.46 314.95,349.17 315.08,349.09 C315.04,348.92 306.33,340.27 302.20,335.37 C295.51,327.28 290.85,321.36 286.62,314.61 C283.88,310.27 278.12,303.70 274.17,301.61 C271.96,300.46 266.19,298.62 263.09,298.08 C257.00,297.05 242.97,297.70 236.28,298.88 C232.47,299.57 224.80,301.92 221.38,303.43 C215.02,306.30 204.00,314.62 198.36,319.50 C196.05,321.52 191.99,326.23 190.96,327.71 C189.50,329.82 187.12,335.01 186.30,337.80 C185.55,340.43 184.55,347.38 184.36,347.87 C184.36,347.87 183.06,347.13 183.06,347.13" fill="none" stroke="rgb(255, 0, 0)" stroke-width="4.07" stroke-opacity="1.00" stroke-linejoin="round"/>
<path d="M204.00,357.11 C203.81,357.11 203.62,357.11 203.43,357.11 C203.14,357.11 202.84,357.11 202.54,357.12 C201.68,357.85 196.95,373.46 196.31,378.86 C195.65,384.79 195.66,399.43 196.29,407.19 C197.03,415.48 199.53,424.38 201.46,428.88 C204.01,434.75 213.62,453.21 213.78,453.44 C215.32,455.60 219.23,458.90 221.96,460.09 C225.93,461.77 246.06,467.03 249.03,467.54 C252.96,468.19 262.48,468.63 266.48,468.09 C271.10,467.44 278.96,463.69 283.25,460.82 C286.54,458.60 293.61,451.27 296.17,446.38 C298.66,441.52 301.20,429.30 301.77,423.20 C302.05,420.14 302.66,401.71 302.59,396.47 C302.54,389.62 303.49,376.42 303.11,371.46 C302.88,368.74 301.67,363.38 300.99,361.40 C298.57,354.46 294.25,348.16 293.40,347.00 C293.39,346.99 293.37,346.96 293.36,346.89" fill="none" stroke="rgb(255, 0, 0)" stroke-width="4.07" stroke-opacity="1.00" stroke-linejoin="round"/>
<path d="M276.14,382.21 C276.14,382.21 275.71,382.07 275.71,382.07 C276.14,381.17 284.42,378.16 287.23,377.59 C287.74,377.49 288.54,377.37 289.63,377.21" fill="none" stroke="rgb(255, 0, 0)" stroke-width="4.07" stroke-opacity="1.00" stroke-linejoin="round"/>
<path d="M278.20,396.37 C278.20,396.37 277.72,396.53 277.72,396.53 C277.67,395.96 281.64,392.65 283.89,391.51 C286.13,390.42 290.16,390.23 291.30,390.86 C291.86,391.19 292.55,391.89 292.47,391.93" fill="none" stroke="rgb(255, 0, 0)" stroke-width="4.07" stroke-opacity="1.00" stroke-linejoin="round"/>
<path d="M256.70,401.02 C256.62,401.06 256.54,401.08 256.48,401.07 C256.42,401.07 256.28,401.03 256.07,400.97 C255.59,401.28 254.19,403.47 253.36,405.99 C252.38,409.07 252.31,413.29 253.37,415.03 C254.08,416.11 256.05,417.15 256.68,417.35" fill="none" stroke="rgb(255, 0, 0)" stroke-width="4.07" stroke-opacity="1.00" stroke-linejoin="round"/>
<path d="M210.97,389.34 C210.97,389.34 211.18,388.69 211.18,388.69 C212.31,387.92 216.60,387.08 220.24,387.87 C220.72,387.98 221.34,388.18 222.08,388.48" fill="none" stroke="rgb(255, 0, 0)" stroke-width="4.07" stroke-opacity="1.00" stroke-linejoin="round"/>
<path d="M211.51,405.73 C211.58,405.35 211.71,404.88 212.16,404.31 C214.28,401.63 218.18,398.40 220.34,397.32 C222.31,396.37 225.68,396.11 227.90,396.95 C228.59,397.22 229.30,397.73 229.59,398.02" fill="none" stroke="rgb(255, 0, 0)" stroke-width="4.07" stroke-opacity="1.00" stroke-linejoin="round"/>
<path d="M248.97,446.33 C249.35,445.76 249.66,445.54 250.62,445.34 C254.16,444.57 259.00,442.44 260.79,440.90 C262.94,438.77 265.38,436.41 265.97,436.11 C266.61,436.69 266.52,441.55 266.09,444.09 C265.70,446.30 264.23,450.51 263.28,451.63 C262.73,452.21 261.38,452.73 260.56,452.61 C259.19,452.36 254.27,449.17 252.05,447.53 C250.31,446.24 249.58,445.48 249.65,445.13 C249.65,445.13 249.83,444.94 249.83,444.94" fill="none" stroke="rgb(255, 0, 0)" stroke-width="4.07" stroke-opacity="1.00" stroke-linejoin="round"/>
<path d="M241.24,469.61 C241.27,469.32 241.30,469.12 241.31,469.02 C241.33,468.92 241.37,468.78 241.42,468.60 C241.50,470.27 241.58,472.70 241.55,474.26 C241.46,478.62 240.56,481.43 240.02,482.53 C240.02,482.53 240.64,482.05 240.64,482.05" fill="none" stroke="rgb(255, 0, 0)" stroke-width="4.07" stroke-opacity="1.00" stroke-linejoin="round"/>
<path d="M266.56,467.69 C266.56,467.69 266.36,467.59 266.36,467.59 C265.84,468.77 266.42,475.66 267.30,478.97 C267.67,480.30 268.33,481.82 268.61,482.21 C268.61,482.21 268.74,482.09 268.74,482.09 C268.73,481.92 268.72,481.77 268.72,481.65 C268.68,480.78 268.54,474.12 268.51,472.28" fill="none" stroke="rgb(255, 0, 0)" stroke-width="4.07" stroke-opacity="1.00" stroke-linejoin="round"/>
<path d="M243.54,483.87 C243.54,483.87 243.44,482.28 243.44,482.28 C243.08,482.37 238.53,483.89 236.18,484.32 C234.30,484.65 221.48,486.76 211.95,489.40 C202.34,492.19 194.16,494.98 188.28,497.86 C186.43,498.76 179.88,502.20 175.88,503.92 C175.88,503.92 175.91,504.00 175.91,504.00" fill="none" stroke="rgb(255, 0, 0)" stroke-width="4.07" stroke-opacity="1.00" stroke-linejoin="round"/>
<path d="M273.55,478.24 C273.53,477.84 273.50,477.58 273.46,477.47 C273.42,477.35 273.33,477.22 273.17,477.08 C273.17,477.08 271.16,477.87 271.16,477.87 C278.62,476.22 291.34,473.69 297.88,472.93 C304.91,472.13 314.67,472.27 323.85,472.91 C326.21,473.09 333.87,473.92 336.12,474.47 C337.00,474.68 337.80,475.07 337.94,475.22" fill="none" stroke="rgb(255, 0, 0)" stroke-width="4.07" stroke-opacity="1.00" stroke-linejoin="round"/>
<path d="M187.56,500.90 C187.56,500.90 187.51,500.59 187.51,500.59 C187.51,500.59 187.40,500.55 187.40,500.55 C186.08,501.28 178.02,512.38 174.27,519.06 C172.36,522.47 161.69,543.63 160.50,546.33 C157.25,553.71 150.45,584.58 149.99,588.74 C148.78,600.03 150.32,612.75 150.37,613.44 C150.37,613.44 150.40,612.88 150.40,612.88" fill="none" stroke="rgb(255, 0, 0)" stroke-width="4.07" stroke-opacity="1.00" stroke-linejoin="round"/>
<path d="M201.52,568.17 C201.83,567.77 202.54,566.86 202.65,566.43 C202.85,565.70 203.19,563.61 203.48,562.52 C201.53,566.53 197.58,577.72 196.29,583.22 C193.41,595.94 192.02,613.58 191.82,615.21 C191.82,615.21 191.67,615.12 191.67,615.12 C191.67,615.12 191.50,613.82 191.50,613.82" fill="none" stroke="rgb(255, 0, 0)" stroke-width="4.07" stroke-opacity="1.00" stroke-linejoin="round"/>
<path d="M327.92,548.69 C327.92,548.69 327.77,547.55 327.77,547.55 C327.66,548.54 332.54,565.04 333.48,569.45 C334.65,575.38 340.56,608.36 340.84,610.66 C340.84,610.66 340.69,610.81 340.69,610.81 C340.56,610.44 340.47,610.17 340.44,610.08 C340.40,609.93 340.35,609.78 340.31,609.63 C340.11,608.88 339.89,605.06 339.83,603.93" fill="none" stroke="rgb(255, 0, 0)" stroke-width="4.07" stroke-opacity="1.00" stroke-linejoin="round"/>
<path d="M333.40,473.02 C333.40,472.74 333.39,472.54 333.36,472.41 C333.34,472.27 333.26,472.02 333.14,471.64 C333.14,471.64 332.57,471.92 332.57,471.92 C332.74,472.41 343.12,478.60 348.83,483.15 C351.48,485.28 364.84,501.21 365.56,502.38 C366.77,504.35 367.52,505.90 367.58,506.46 C367.58,506.46 367.51,506.56 367.51,506.56" fill="none" stroke="rgb(255, 0, 0)" stroke-width="4.07" stroke-opacity="1.00" stroke-linejoin="round"/>
<path d="M347.62,487.52 C347.62,487.52 347.38,485.50 347.38,485.50 C348.25,486.62 356.69,498.98 358.94,502.62 C361.90,507.45 367.26,518.11 369.22,523.74 C371.23,529.62 373.61,544.55 373.71,545.07 C373.88,545.97 374.34,548.13 374.36,548.31 C374.31,548.25 374.27,548.18 374.22,548.12 C374.20,548.09 374.19,548.07 374.18,548.05" fill="none" stroke="rgb(255, 0, 0)" stroke-width="4.07" stroke-opacity="1.00" stroke-linejoin="round"/>
<path d="M361.90,526.04 C361.90,526.04 361.12,524.35 361.12,524.35 C361.95,525.37 366.18,539.98 367.23,544.51 C368.52,550.11 370.40,562.08 371.07,568.68 C371.83,577.28 372.09,603.83 371.52,611.58 C371.17,616.15 370.88,617.96 370.86,617.90 C370.86,617.90 370.78,617.59 370.78,617.59" fill="none" stroke="rgb(255, 0, 0)" stroke-width="4.07" stroke-opacity="1.00" stroke-linejoin="round"/>
<path d="M151.75,584.32 C151.75,584.32 151.84,583.20 151.84,583.20 C152.96,583.33 167.18,584.59 171.66,585.63 C176.47,586.76 188.64,591.79 192.26,594.08 C192.55,594.27 193.08,594.63 193.86,595.16 C193.79,595.19 193.75,595.20 193.71,595.21 C193.68,595.21 193.62,595.21 193.53,595.19" fill="none" stroke="rgb(255, 0, 0)" stroke-width="4.07" stroke-opacity="1.00" stroke-linejoin="round"/>
<path d="M146.56,604.09 C146.56,604.09 146.41,604.11 146.41,604.11 C147.62,604.06 184.43,606.03 192.39,606.70 C194.94,606.94 196.86,607.20 196.86,607.20 C196.86,607.20 196.50,607.07 196.50,607.07" fill="none" stroke="rgb(255, 0, 0)" stroke-width="4.07" stroke-opacity="1.00" stroke-linejoin="round"/>
<path d="M334.64,578.91 C334.55,578.92 334.50,578.92 334.47,578.93 C334.44,578.93 334.41,578.94 334.38,578.95 C334.67,578.92 334.91,578.74 335.45,578.07 C336.61,576.64 340.68,574.42 344.37,573.32 C346.17,572.80 364.94,568.02 365.66,567.79 C367.73,567.13 369.45,566.31 369.38,566.13 C369.38,566.13 369.26,566.07 369.26,566.07" fill="none" stroke="rgb(255, 0, 0)" stroke-width="4.07" stroke-opacity="1.00" stroke-linejoin="round"/>
<path d="M341.00,589.91 C341.00,589.91 338.67,591.86 338.67,591.86 C341.12,590.61 346.51,587.89 349.19,586.68 C351.86,585.49 356.96,583.64 362.22,581.92 C365.87,580.74 366.22,580.56 366.27,580.41" fill="none" stroke="rgb(255, 0, 0)" stroke-width="4.07" stroke-opacity="1.00" stroke-linejoin="round"/>
<path d="M218.29,545.07 C218.29,545.07 218.78,543.85 218.78,543.85 C218.78,543.85 218.48,543.82 218.48,543.82 C218.46,544.15 216.16,545.17 215.89,546.26 C215.66,547.41 216.60,550.26 218.10,552.44 C220.42,555.75 231.65,567.14 235.41,570.50 C239.86,574.46 251.37,581.99 253.27,582.73 C254.98,583.38 256.71,583.68 257.35,583.36 C258.75,582.60 261.43,579.75 262.99,577.52 C263.53,576.74 274.97,559.84 278.96,554.33 C285.54,545.70 288.89,540.96 295.07,531.50 C297.23,528.29 306.49,516.02 307.86,512.08 C308.62,509.84 309.13,506.08 308.68,505.10 C308.34,504.45 305.62,504.30 302.79,505.76 C298.61,507.94 290.33,516.02 286.85,520.26 C282.50,525.59 278.71,532.08 272.98,543.05 C267.33,553.81 265.24,557.19 259.10,565.50 C258.15,566.77 256.72,568.05 255.97,568.23 C254.66,568.47 248.89,564.01 247.87,563.29 C246.77,562.51 234.41,554.96 226.30,549.23 C222.49,546.53 219.67,545.03 217.48,545.41 C217.29,545.44 217.21,545.50 217.25,545.58 C217.25,545.58 219.53,550.20 219.53,550.20 C219.53,550.20 218.98,545.92 218.98,545.92 C218.98,545.92 219.91,550.48 219.91,550.48 C219.91,550.48 219.79,548.67 219.79,548.67 C219.79,548.67 220.47,552.19 220.47,552.19 C221.66,552.25 222.19,549.75 222.22,549.52 C222.22,549.52 223.74,554.53 223.74,554.53 C223.74,554.53 224.22,551.48 224.22,551.48 C224.22,551.48 227.26,558.66 227.26,558.66 C227.26,558.66 225.93,552.23 225.93,552.23 C225.93,552.23 229.65,560.16 229.65,560.16 C230.53,559.76 230.74,558.33 230.17,556.05 C230.08,555.68 229.96,555.39 229.83,555.18 C229.08,555.98 232.78,563.77 233.88,564.53 C233.88,564.53 232.30,557.96 232.30,557.96 C232.30,557.96 236.76,567.91 236.76,567.91 C236.76,567.91 234.92,560.17 234.92,560.17 C234.46,564.60 238.37,569.63 239.15,570.21 C239.87,568.60 240.04,567.39 239.62,565.66 C239.21,563.94 238.83,562.86 238.21,561.53 C238.21,561.53 242.32,572.76 242.32,572.76 C242.32,572.76 241.82,564.54 241.82,564.54 C241.82,564.54 245.68,575.63 245.68,575.63 C247.16,573.44 245.27,568.44 245.00,568.30 C244.55,572.94 247.13,577.24 247.40,577.39 C249.41,576.40 248.16,567.26 247.90,566.09 C246.83,568.84 249.05,578.23 249.95,579.03 C251.69,577.84 250.39,569.82 249.94,568.29 C249.67,569.25 250.45,575.16 251.34,577.73 C252.09,579.86 252.80,580.22 253.11,580.29 C254.44,579.62 254.43,572.65 254.30,571.17 C254.22,577.44 255.59,578.88 255.95,579.15 C257.14,578.50 258.61,572.67 259.17,569.02 C259.22,568.65 259.26,568.20 259.28,567.67 C258.05,573.78 258.92,577.66 259.30,577.94 C259.30,577.94 262.88,565.00 262.88,565.00 C262.88,565.00 261.66,576.71 261.66,576.71 C261.66,576.71 267.48,558.54 267.48,558.54 C267.48,558.54 266.23,573.57 266.23,573.57 C266.23,573.57 272.26,553.19 272.26,553.19 C272.26,553.19 269.16,560.90 269.16,560.90 C269.16,560.90 276.04,541.55 276.04,541.55 C276.04,541.55 271.20,559.45 271.20,559.45 C271.20,559.45 280.17,539.80 280.17,539.80 C280.17,539.80 277.06,554.13 277.06,554.13 C277.06,554.13 287.09,527.18 287.09,527.18 C287.09,527.18 281.11,547.02 281.11,547.02 C281.11,547.02 291.32,520.16 291.32,520.16 C291.32,520.16 285.18,536.09 285.18,536.09 C285.18,536.09 291.68,521.66 291.68,521.66 C291.68,521.66 280.65,536.81 280.65,536.81 C280.65,536.81 287.54,522.35 287.54,522.35 C287.54,522.35 280.10,537.17 280.10,537.17 C280.10,537.17 289.48,519.18 289.48,519.18 C289.48,519.18 278.67,535.36 278.67,535.36 C278.67,535.36 289.68,519.19 289.68,519.19 C289.68,519.19 284.10,533.39 284.10,533.39 C286.45,531.56 296.79,513.19 297.31,512.25 C297.31,512.25 286.54,537.17 286.54,537.17 C289.61,535.75 300.21,514.99 300.59,514.21 C290.66,531.54 288.76,537.22 288.38,538.63 C288.38,538.63 304.31,511.77 304.31,511.77 C304.31,511.77 296.60,523.66 296.60,523.66 C297.58,522.81 304.33,511.44 304.69,509.27 C304.72,509.03 304.72,508.67 304.68,508.18 C303.53,508.18 302.31,508.86 300.40,510.68 C298.00,513.02 295.15,516.31 294.81,517.44 C298.99,514.85 299.04,510.54 298.92,510.13 C297.00,509.63 291.92,513.81 291.35,514.33" fill="none" stroke="rgb(255, 0, 0)" stroke-width="4.07" stroke-opacity="1.00" stroke-linejoin="round"/>
<path d="M162.46,585.31 C162.31,585.56 162.21,585.83 162.18,586.14 C161.98,587.90 163.57,608.56 164.06,609.79 C164.53,608.79 164.82,608.15 164.92,607.88 C165.01,607.60 165.05,607.31 165.03,607.00" fill="none" stroke="rgb(255, 0, 0)" stroke-width="4.07" stroke-opacity="1.00" stroke-linejoin="round"/>
<path d="M174.41,588.81 C174.41,588.81 174.34,587.81 174.34,587.81 C174.34,587.81 174.65,605.60 174.65,605.60 C174.65,605.60 175.27,604.51 175.27,604.51" fill="none" stroke="rgb(255, 0, 0)" stroke-width="4.07" stroke-opacity="1.00" stroke-linejoin="round"/>
<path d="M180.07,590.27 C180.07,590.27 180.45,589.63 180.45,589.63 C180.63,589.78 181.93,594.33 182.19,597.95 C182.25,598.70 182.40,603.40 182.46,604.42 C182.48,604.77 182.52,605.20 182.58,605.70" fill="none" stroke="rgb(255, 0, 0)" stroke-width="4.07" stroke-opacity="1.00" stroke-linejoin="round"/>
<path d="M344.47,573.69 C344.47,573.69 344.39,573.64 344.39,573.64 C344.39,573.64 343.99,573.12 343.99,573.12 C343.99,573.12 343.52,573.19 343.52,573.19 C342.34,574.53 343.32,582.53 344.35,589.25 C344.35,589.25 344.45,587.12 344.45,587.12" fill="none" stroke="rgb(255, 0, 0)" stroke-width="4.07" stroke-opacity="1.00" stroke-linejoin="round"/>
<path d="M346.48,573.58 C346.48,573.58 346.48,572.92 346.48,572.92 C346.59,572.86 346.66,573.46 346.73,575.26 C346.78,576.49 346.90,579.35 346.97,580.98 C347.04,582.90 347.24,584.10 347.71,585.90 C347.71,585.90 347.91,585.86 347.91,585.86 C347.95,585.80 348.02,585.63 348.12,585.36 C348.21,585.08 348.44,584.32 348.83,583.07" fill="none" stroke="rgb(255, 0, 0)" stroke-width="4.07" stroke-opacity="1.00" stroke-linejoin="round"/>
<path d="M352.26,570.03 C352.38,569.77 352.47,569.59 352.54,569.50 C352.60,569.41 352.73,569.29 352.91,569.12 C353.02,571.04 353.12,572.34 353.35,574.46 C353.96,580.13 354.22,582.06 354.39,583.32 C354.39,583.32 354.45,582.58 354.45,582.58" fill="none" stroke="rgb(255, 0, 0)" stroke-width="4.07" stroke-opacity="1.00" stroke-linejoin="round"/>
<path d="M357.63,569.81 C357.63,569.81 358.40,568.87 358.40,568.87 C358.40,568.87 358.73,569.11 358.73,569.11 C358.77,569.38 358.66,571.24 358.65,572.00 C358.64,572.57 358.86,580.68 358.90,582.07 C358.90,582.07 358.68,581.19 358.68,581.19" fill="none" stroke="rgb(255, 0, 0)" stroke-width="4.07" stroke-opacity="1.00" stroke-linejoin="round"/>
<path d="M365.05,566.89 C365.06,566.97 364.98,567.60 364.84,568.12 C363.69,572.55 364.47,577.24 364.84,578.88 C364.84,578.88 364.94,578.65 364.94,578.65" fill="none" stroke="rgb(255, 0, 0)" stroke-width="4.07" stroke-opacity="1.00" stroke-linejoin="round"/>
<path d="M153.98,589.40 C153.92,589.42 153.86,589.35 153.80,589.19 C153.75,589.03 153.61,588.56 153.39,587.76 C153.39,587.76 152.91,587.68 152.91,587.68 C151.76,589.94 151.94,602.07 152.59,603.00 C152.59,603.00 154.24,588.30 154.24,588.30 C154.24,588.30 156.14,603.51 156.14,603.51 C156.14,603.51 157.07,587.96 157.07,587.96 C157.07,587.96 158.38,601.04 158.38,601.04 C158.38,601.04 159.10,589.50 159.10,589.50 C159.10,589.50 158.98,601.00 158.98,601.00 C158.98,601.00 158.70,593.35 158.70,593.35" fill="none" stroke="rgb(255, 0, 0)" stroke-width="4.07" stroke-opacity="1.00" stroke-linejoin="round"/>
<path d="M166.26,589.69 C166.26,589.69 165.84,588.25 165.84,588.25 C165.84,588.25 166.39,603.88 166.39,603.88 C166.39,603.88 166.93,588.94 166.93,588.94 C166.93,588.94 168.26,602.63 168.26,602.63 C168.26,602.63 169.82,591.22 169.82,591.22 C169.78,591.33 169.35,596.24 169.23,598.72 C169.06,602.44 169.04,602.90 169.07,603.03 C169.07,603.03 169.14,602.82 169.14,602.82 C169.14,602.82 169.43,602.77 169.43,602.77" fill="none" stroke="rgb(255, 0, 0)" stroke-width="4.07" stroke-opacity="1.00" stroke-linejoin="round"/>
<path d="M177.04,592.61 C177.04,592.61 175.10,592.27 175.10,592.27 C175.10,592.27 177.03,605.40 177.03,605.40 C177.03,605.40 177.01,590.92 177.01,590.92 C177.03,594.02 177.23,601.03 177.31,602.23 C177.40,603.71 177.57,604.91 177.58,604.85" fill="none" stroke="rgb(255, 0, 0)" stroke-width="4.07" stroke-opacity="1.00" stroke-linejoin="round"/>
<path d="M185.41,595.17 C185.41,595.17 184.47,593.62 184.47,593.62 C184.47,593.62 185.19,605.01 185.19,605.01 C185.19,605.01 186.44,592.91 186.44,592.91 C186.44,592.91 188.73,601.38 188.73,601.38" fill="none" stroke="rgb(255, 0, 0)" stroke-width="4.07" stroke-opacity="1.00" stroke-linejoin="round"/>
<path d="M337.93,576.72 C337.93,576.72 337.75,576.18 337.75,576.18 C337.75,576.18 339.18,590.22 339.18,590.22 C339.18,590.22 338.99,578.47 338.99,578.47 C338.81,580.91 339.24,586.95 339.60,588.86 C339.73,589.54 339.99,590.08 340.04,590.09" fill="none" stroke="rgb(255, 0, 0)" stroke-width="4.07" stroke-opacity="1.00" stroke-linejoin="round"/>
<path d="M348.64,574.49 C348.64,574.49 348.58,573.91 348.58,573.91 C348.58,573.91 348.73,585.33 348.73,585.33 C348.73,585.33 349.10,573.12 349.10,573.12 C349.22,574.62 349.55,578.76 349.69,579.79 C349.92,581.48 350.42,583.87 350.41,583.82" fill="none" stroke="rgb(255, 0, 0)" stroke-width="4.07" stroke-opacity="1.00" stroke-linejoin="round"/>
<path d="M364.75,570.58 C364.76,570.52 364.76,570.47 364.77,570.45 C364.77,570.42 364.79,570.38 364.82,570.31 C364.85,570.51 364.86,570.79 364.90,572.40 C364.98,575.83 365.24,578.86 365.32,579.74 C365.32,579.74 365.82,572.16 365.82,572.16 C365.87,572.21 365.98,576.37 366.14,577.06 C366.17,577.16 366.22,577.26 366.30,577.35 C366.30,577.35 366.37,577.18 366.37,577.18" fill="none" stroke="rgb(255, 0, 0)" stroke-width="4.07" stroke-opacity="1.00" stroke-linejoin="round"/>
</g>
</svg>
