<?xml version="1.0" encoding="UTF-8" standalone="no"?>
<!DOCTYPE svg PUBLIC "-//W3C//DTD SVG 1.1//EN" "http://www.w3.org/Graphics/SVG/1.1/DTD/svg11.dtd">
<svg width="128.40" height="181.68" viewBox="0.00 0.00 535.00 757.00" xmlns="http://www.w3.org/2000/svg" xmlns:xlink="http://www.w3.org/1999/xlink">
<g stroke-linecap="round" id="202">
<path d="M16.73,149.09 C16.27,149.15 15.95,149.19 15.77,149.20 C15.60,149.22 15.31,149.24 14.91,149.27 C14.91,149.27 15.02,148.30 15.02,148.30 C20.79,144.47 28.27,140.67 38.60,135.86 C54.46,128.51 90.13,111.47 97.81,108.22 C104.71,105.40 113.25,102.55 124.47,99.48 C132.45,97.36 147.91,93.34 155.41,91.43 C166.55,88.77 175.60,87.17 181.83,86.55 C209.37,84.44 284.13,81.22 304.07,79.90 C313.92,79.41 326.08,79.34 332.61,79.86 C337.43,80.26 376.38,88.00 390.72,90.50 C404.38,92.59 434.34,97.31 450.65,99.96 C457.32,101.06 471.71,103.43 476.70,105.47 C480.21,106.93 495.99,116.07 499.08,118.82 C501.39,120.91 504.36,124.80 505.42,126.88 C506.25,128.54 507.83,133.42 508.14,136.83 C508.18,137.31 508.00,143.41 507.34,145.97 C506.48,149.22 503.61,156.10 501.48,159.49 C500.39,161.20 488.50,179.78 485.01,182.51 C482.01,184.81 470.35,188.51 463.80,189.68 C454.78,191.26 423.00,191.82 407.20,193.81 C397.59,195.27 365.47,201.03 350.68,202.56 C302.99,206.40 270.92,209.63 227.02,212.85 C216.70,213.73 207.13,215.02 201.40,215.78 C196.00,216.41 176.14,216.48 169.54,216.70 C158.44,217.31 118.55,221.60 108.29,222.51 C99.17,223.20 86.57,223.22 78.61,222.44 C71.82,221.69 55.75,219.71 52.93,219.21 C43.69,217.53 31.68,213.08 25.63,209.74 C22.92,208.23 16.98,204.14 15.01,202.35 C12.89,200.37 9.79,194.97 9.14,192.33 C8.10,187.82 10.81,180.54 11.59,177.83 C11.59,177.83 11.44,178.26 11.44,178.26" fill="none" stroke="rgb(255, 0, 0)" stroke-width="4.16" stroke-opacity="1.00" stroke-linejoin="round"/>
<path d="M41.30,241.41 C41.30,241.41 40.94,241.41 40.94,241.41 C40.94,241.41 40.86,241.21 40.86,241.21 C41.10,241.14 43.29,244.86 43.27,247.36 C43.24,250.74 41.40,303.06 41.71,306.90 C41.71,306.90 41.89,305.09 41.89,305.09" fill="none" stroke="rgb(85, 111, 181)" stroke-width="4.16" stroke-opacity="1.00" stroke-linejoin="round"/>
<path d="M15.33,317.26 C15.33,317.26 14.41,317.31 14.41,317.31 C14.41,317.31 13.74,318.00 13.74,318.00 C13.74,318.00 15.99,370.04 15.99,370.04 C15.99,370.04 15.60,370.23 15.60,370.23 C15.60,370.23 15.32,368.65 15.32,368.65" fill="none" stroke="rgb(85, 111, 181)" stroke-width="4.16" stroke-opacity="1.00" stroke-linejoin="round"/>
<path d="M52.55,321.98 C52.55,321.98 51.30,321.82 51.30,321.82 C51.30,321.82 50.93,322.15 50.93,322.15 C51.15,327.24 52.12,342.56 52.62,349.93 C52.83,353.72 53.09,358.46 53.12,359.72" fill="none" stroke="rgb(85, 111, 181)" stroke-width="4.16" stroke-opacity="1.00" stroke-linejoin="round"/>
<path d="M26.41,398.08 C26.00,398.69 25.77,399.10 25.69,399.32 C25.53,399.84 26.44,416.35 27.20,424.88 C27.60,428.73 28.48,432.55 29.39,433.45 C29.78,432.79 29.92,432.40 30.20,431.25 C30.80,428.78 32.28,425.06 34.01,421.56" fill="none" stroke="rgb(85, 111, 181)" stroke-width="4.16" stroke-opacity="1.00" stroke-linejoin="round"/>
<path d="M54.87,386.17 C54.87,386.17 55.01,384.90 55.01,384.90 C54.90,386.86 54.89,390.58 54.96,396.51 C55.03,400.67 55.14,408.92 55.19,413.01 C55.19,413.71 55.19,414.41 55.19,415.11 C55.17,415.17 55.13,414.93 55.12,414.43 C55.11,414.25 55.11,413.82 55.10,413.15" fill="none" stroke="rgb(85, 111, 181)" stroke-width="4.16" stroke-opacity="1.00" stroke-linejoin="round"/>
<path d="M77.62,245.54 C77.62,245.54 77.66,244.08 77.66,244.08 C77.50,247.05 77.13,254.59 77.09,258.21 C77.06,261.82 77.30,268.68 77.40,271.36" fill="none" stroke="rgb(85, 111, 181)" stroke-width="4.16" stroke-opacity="1.00" stroke-linejoin="round"/>
<path d="M82.83,285.91 C82.83,285.91 82.68,285.56 82.68,285.56 C82.04,288.13 80.83,328.55 80.34,344.56 C79.55,359.37 76.63,402.21 76.23,404.31 C76.15,404.68 75.96,405.38 75.65,406.42 C75.65,406.42 75.64,404.92 75.64,404.92" fill="none" stroke="rgb(85, 111, 181)" stroke-width="4.16" stroke-opacity="1.00" stroke-linejoin="round"/>
<path d="M109.80,279.79 C109.80,279.79 110.69,279.44 110.69,279.44 C110.90,283.03 110.74,289.77 110.65,293.80 C110.51,302.72 111.40,314.28 111.71,317.82 C111.88,319.74 112.07,321.11 112.54,323.99" fill="none" stroke="rgb(85, 111, 181)" stroke-width="4.16" stroke-opacity="1.00" stroke-linejoin="round"/>
<path d="M129.81,257.95 C129.81,257.95 131.63,253.57 131.63,253.57 C132.84,254.90 133.26,260.34 133.62,263.74 C135.17,279.83 137.88,313.37 138.67,328.36 C138.85,332.06 139.18,338.42 139.32,341.10" fill="none" stroke="rgb(85, 111, 181)" stroke-width="4.16" stroke-opacity="1.00" stroke-linejoin="round"/>
<path d="M111.62,395.60 C110.89,396.26 110.67,399.20 110.95,404.03 C111.51,412.67 109.37,452.42 108.45,468.37 C108.11,481.61 107.84,508.84 107.18,509.71 C106.84,508.58 106.63,507.89 106.57,507.63 C106.50,507.36 106.48,507.17 106.50,507.05" fill="none" stroke="rgb(85, 111, 181)" stroke-width="4.16" stroke-opacity="1.00" stroke-linejoin="round"/>
<path d="M118.73,392.79 C118.73,392.79 118.70,392.96 118.70,392.96 C118.70,392.96 119.19,389.73 119.19,389.73 C119.54,389.82 122.65,409.41 123.94,415.27 C124.67,418.49 125.28,419.69 125.83,420.52 C125.83,420.52 126.02,420.45 126.02,420.45 C126.02,420.45 126.18,420.06 126.18,420.06" fill="none" stroke="rgb(85, 111, 181)" stroke-width="4.16" stroke-opacity="1.00" stroke-linejoin="round"/>
<path d="M148.51,400.31 C148.48,399.70 148.46,399.09 148.43,398.48 C148.42,398.29 148.41,398.11 148.40,397.92 C149.09,404.93 150.38,417.79 150.42,418.08 C150.73,420.31 151.14,422.16 151.30,422.25 C151.40,421.42 151.47,420.77 151.51,420.29 C151.58,419.56 151.89,415.11 152.00,413.50" fill="none" stroke="rgb(85, 111, 181)" stroke-width="4.16" stroke-opacity="1.00" stroke-linejoin="round"/>
<path d="M182.59,267.05 C182.62,266.83 182.63,266.68 182.64,266.59 C182.66,266.35 182.67,266.19 182.66,266.13 C182.66,266.09 182.65,266.08 182.62,266.10 C182.67,268.17 182.74,273.27 182.76,276.30 C182.81,285.35 182.97,303.30 183.08,312.19 C183.13,314.38 183.45,322.15 183.46,326.46 C183.46,327.43 183.45,328.40 183.45,329.37" fill="none" stroke="rgb(85, 111, 181)" stroke-width="4.16" stroke-opacity="1.00" stroke-linejoin="round"/>
<path d="M180.85,363.92 C180.04,367.58 179.98,370.37 180.71,374.73 C180.87,375.76 179.83,435.94 179.56,439.92 C179.56,439.92 178.90,434.49 178.90,434.49" fill="none" stroke="rgb(85, 111, 181)" stroke-width="4.16" stroke-opacity="1.00" stroke-linejoin="round"/>
<path d="M207.74,242.56 C207.74,242.56 209.04,239.77 209.04,239.77 C209.04,239.77 209.01,239.77 209.01,239.78 C207.50,245.68 206.30,255.96 206.11,263.09 C206.01,269.97 206.20,288.16 206.33,296.67 C206.57,310.66 206.54,311.74 206.43,313.50" fill="none" stroke="rgb(85, 111, 181)" stroke-width="4.16" stroke-opacity="1.00" stroke-linejoin="round"/>
<path d="M224.70,361.52 C224.70,361.52 222.90,360.83 222.90,360.83 C222.39,361.01 222.38,413.89 222.48,417.07 C222.61,421.64 223.28,427.32 223.71,428.40 C223.93,428.30 224.16,427.67 224.31,426.35 C224.39,425.68 224.81,421.06 224.96,419.40" fill="none" stroke="rgb(85, 111, 181)" stroke-width="4.16" stroke-opacity="1.00" stroke-linejoin="round"/>
<path d="M252.41,275.57 C252.41,275.57 253.94,271.73 253.94,271.73 C252.95,272.46 251.17,273.46 250.59,273.90 C249.69,274.60 249.25,287.27 249.26,295.51 C249.46,305.89 251.01,330.85 251.38,336.04 C251.46,336.88 251.53,337.73 251.60,338.57" fill="none" stroke="rgb(85, 111, 181)" stroke-width="4.16" stroke-opacity="1.00" stroke-linejoin="round"/>
<path d="M274.00,360.28 C273.19,361.13 272.01,362.79 271.72,363.83 C271.55,364.42 270.25,386.77 269.77,396.15 C269.12,408.75 268.85,412.49 268.47,416.45 C268.47,416.45 268.33,415.58 268.33,415.58" fill="none" stroke="rgb(85, 111, 181)" stroke-width="4.16" stroke-opacity="1.00" stroke-linejoin="round"/>
<path d="M269.04,234.04 C269.04,234.04 274.55,229.93 274.55,229.93 C275.99,235.91 279.86,297.66 280.41,306.08 C280.71,310.01 281.10,313.52 281.56,316.12" fill="none" stroke="rgb(85, 111, 181)" stroke-width="4.16" stroke-opacity="1.00" stroke-linejoin="round"/>
<path d="M296.17,316.93 C296.17,316.93 295.62,317.10 295.62,317.10 C294.89,317.93 294.51,319.57 294.48,322.38 C294.43,328.50 296.77,367.93 297.66,385.93 C297.99,393.65 298.65,407.39 298.80,409.43 C298.80,409.43 298.74,406.11 298.74,406.11" fill="none" stroke="rgb(85, 111, 181)" stroke-width="4.16" stroke-opacity="1.00" stroke-linejoin="round"/>
<path d="M314.29,221.06 C314.44,219.25 314.53,217.40 314.35,216.81 C314.26,216.53 314.00,216.05 313.57,215.36 C313.42,215.25 314.51,231.18 314.96,237.69 C316.32,258.49 316.93,279.85 317.03,287.49 C317.04,288.67 317.08,291.39 317.10,292.94" fill="none" stroke="rgb(85, 111, 181)" stroke-width="4.16" stroke-opacity="1.00" stroke-linejoin="round"/>
<path d="M316.69,345.06 C316.69,345.06 315.65,345.29 315.65,345.29 C314.96,346.57 314.64,351.73 314.62,354.65 C314.59,358.34 315.51,381.93 315.75,384.72 C315.94,386.97 316.24,389.61 316.43,390.82 C316.71,390.37 316.88,390.05 316.95,389.86 C316.96,389.85 319.80,376.52 320.08,375.24" fill="none" stroke="rgb(85, 111, 181)" stroke-width="4.16" stroke-opacity="1.00" stroke-linejoin="round"/>
<path d="M332.24,306.76 C332.30,306.85 332.37,307.17 332.63,308.76 C334.06,317.45 335.49,353.70 336.06,370.30 C336.56,379.41 337.51,395.66 337.97,402.79 C338.08,404.70 338.18,405.75 338.44,407.76 C338.44,407.76 338.40,406.49 338.40,406.49" fill="none" stroke="rgb(85, 111, 181)" stroke-width="4.16" stroke-opacity="1.00" stroke-linejoin="round"/>
<path d="M357.06,226.68 C357.06,226.68 357.21,224.87 357.21,224.87 C357.29,225.35 357.33,226.30 357.30,228.03 C357.18,234.83 356.91,250.74 356.78,259.85 C356.77,274.77 357.63,285.97 358.03,287.92" fill="none" stroke="rgb(85, 111, 181)" stroke-width="4.16" stroke-opacity="1.00" stroke-linejoin="round"/>
<path d="M352.09,325.53 C352.09,325.53 351.34,326.01 351.34,326.01 C350.62,330.17 350.99,347.96 351.68,353.51 C351.94,355.54 352.38,357.82 352.66,358.82 C352.66,358.82 352.92,358.66 352.92,358.66 C353.11,357.62 353.23,356.91 353.29,356.52 C353.38,355.90 355.13,341.42 355.27,340.22" fill="none" stroke="rgb(85, 111, 181)" stroke-width="4.16" stroke-opacity="1.00" stroke-linejoin="round"/>
<path d="M370.79,217.91 C370.79,217.91 372.01,214.12 372.01,214.12 C371.75,225.45 373.32,265.53 374.17,275.79 C374.56,279.47 375.52,288.04 375.64,288.85 C376.31,293.25 376.87,294.57 377.48,295.50 C377.48,295.50 377.80,295.60 377.80,295.60" fill="none" stroke="rgb(85, 111, 181)" stroke-width="4.16" stroke-opacity="1.00" stroke-linejoin="round"/>
<path d="M382.87,325.78 C381.49,326.47 381.13,328.77 381.10,333.10 C381.00,349.47 380.69,382.87 380.49,399.89 C380.39,406.17 380.26,413.69 380.24,414.93 C380.17,414.08 380.13,413.49 380.10,413.17 C379.88,411.04 379.54,407.22 379.41,405.53" fill="none" stroke="rgb(85, 111, 181)" stroke-width="4.16" stroke-opacity="1.00" stroke-linejoin="round"/>
<path d="M399.74,228.58 C399.74,228.58 400.87,225.03 400.87,225.03 C399.92,225.84 399.50,226.57 399.24,228.18 C398.44,233.18 397.48,249.75 397.08,258.29 C396.04,286.05 395.74,289.59 395.60,290.90" fill="none" stroke="rgb(85, 111, 181)" stroke-width="4.16" stroke-opacity="1.00" stroke-linejoin="round"/>
<path d="M401.07,296.33 C401.07,296.33 401.08,296.56 401.08,296.56 C402.05,297.35 402.66,298.42 402.82,299.92 C402.85,300.23 404.86,346.57 405.65,365.00 C406.37,380.95 407.12,397.73 407.16,398.57 C407.16,398.57 407.03,396.46 407.03,396.46" fill="none" stroke="rgb(85, 111, 181)" stroke-width="4.16" stroke-opacity="1.00" stroke-linejoin="round"/>
<path d="M412.07,200.62 C412.20,200.40 412.29,200.26 412.33,200.21 C412.38,200.16 412.44,200.11 412.53,200.08 C412.88,202.36 413.85,242.00 414.11,257.57 C414.37,272.38 416.20,311.58 416.84,318.42 C418.89,337.32 420.50,345.71 420.96,347.67 C420.96,347.67 420.75,345.61 420.75,345.61" fill="none" stroke="rgb(85, 111, 181)" stroke-width="4.16" stroke-opacity="1.00" stroke-linejoin="round"/>
<path d="M430.51,248.69 C430.51,248.69 430.72,248.51 430.72,248.51 C431.56,248.64 432.00,252.35 432.41,257.86 C433.69,275.74 436.67,316.64 437.50,322.80 C438.60,330.67 441.80,353.39 441.85,354.06 C441.99,356.05 441.92,358.01 441.77,357.89" fill="none" stroke="rgb(85, 111, 181)" stroke-width="4.16" stroke-opacity="1.00" stroke-linejoin="round"/>
<path d="M427.45,371.69 C427.30,374.16 427.26,375.51 427.29,377.94 C427.38,386.65 427.55,404.65 427.82,405.58 C427.89,405.81 428.03,405.98 428.23,406.07 C428.23,406.07 428.88,404.96 428.88,404.96" fill="none" stroke="rgb(85, 111, 181)" stroke-width="4.16" stroke-opacity="1.00" stroke-linejoin="round"/>
<path d="M454.50,367.97 C454.50,367.97 454.63,367.79 454.63,367.79 C454.63,367.79 454.81,367.92 454.81,367.92 C454.05,380.58 453.40,387.33 452.86,390.23 C452.60,391.55 452.27,392.24 451.52,393.18 C451.41,392.38 451.34,391.85 451.31,391.59 C451.28,391.33 451.24,390.96 451.20,390.49" fill="none" stroke="rgb(85, 111, 181)" stroke-width="4.16" stroke-opacity="1.00" stroke-linejoin="round"/>
<path d="M438.29,210.88 C439.35,209.58 440.31,208.49 440.58,208.13 C440.65,208.03 440.69,207.94 440.69,207.84 C441.37,210.72 441.87,214.09 442.28,218.58 C443.02,229.20 444.31,266.64 444.76,283.35 C444.84,299.12 444.79,321.23 444.67,327.58 C444.67,327.58 444.73,325.89 444.73,325.89" fill="none" stroke="rgb(85, 111, 181)" stroke-width="4.16" stroke-opacity="1.00" stroke-linejoin="round"/>
<path d="M451.28,237.19 C451.28,237.19 453.45,231.73 453.45,231.73 C454.47,233.62 454.80,234.69 454.94,236.83 C455.60,245.03 456.97,261.71 457.87,270.80 C458.69,278.24 459.80,284.82 460.17,286.84" fill="none" stroke="rgb(85, 111, 181)" stroke-width="4.16" stroke-opacity="1.00" stroke-linejoin="round"/>
<path d="M456.66,325.70 C455.54,327.95 455.16,329.60 455.10,333.80 C455.08,337.39 457.92,374.83 458.08,378.96 C458.16,381.15 458.03,386.26 457.64,389.96 C457.64,389.96 457.50,387.81 457.50,387.81" fill="none" stroke="rgb(85, 111, 181)" stroke-width="4.16" stroke-opacity="1.00" stroke-linejoin="round"/>
<path d="M462.86,201.04 C464.15,201.53 464.93,203.99 465.24,208.26 C466.36,224.75 468.24,256.49 469.00,271.74 C469.87,287.08 471.42,308.28 471.46,309.31" fill="none" stroke="rgb(85, 111, 181)" stroke-width="4.16" stroke-opacity="1.00" stroke-linejoin="round"/>
<path d="M470.72,351.09 C469.77,354.08 469.36,357.37 469.44,363.30 C469.49,368.75 469.45,372.52 469.24,378.38 C469.02,382.75 468.65,390.25 468.66,390.34 C468.74,389.94 468.82,389.53 468.90,389.12 C469.28,387.31 469.99,383.98 470.32,382.44 C471.19,378.37 472.35,372.99 472.64,371.68" fill="none" stroke="rgb(85, 111, 181)" stroke-width="4.16" stroke-opacity="1.00" stroke-linejoin="round"/>
<path d="M477.75,306.01 C477.84,307.38 478.05,309.63 478.29,311.73 C479.20,318.90 481.06,333.89 482.00,341.73 C482.75,349.32 482.57,364.51 482.41,371.33 C482.14,377.05 482.15,377.58 482.27,377.97 C482.27,377.97 482.71,376.30 482.71,376.30" fill="none" stroke="rgb(85, 111, 181)" stroke-width="4.16" stroke-opacity="1.00" stroke-linejoin="round"/>
<path d="M487.84,244.72 C487.84,244.72 487.55,244.96 487.55,244.96 C487.58,248.19 487.67,256.08 487.74,260.75 C487.95,268.05 488.21,276.40 488.24,277.45" fill="none" stroke="rgb(85, 111, 181)" stroke-width="4.16" stroke-opacity="1.00" stroke-linejoin="round"/>
<path d="M491.98,326.69 C492.09,327.11 492.17,327.42 492.21,327.62 C492.81,330.59 493.26,335.81 493.29,340.81 C493.27,349.13 493.14,370.65 493.15,370.98 C493.17,371.34 493.24,372.00 493.35,372.93 C493.35,372.93 493.52,371.00 493.52,371.00" fill="none" stroke="rgb(85, 111, 181)" stroke-width="4.16" stroke-opacity="1.00" stroke-linejoin="round"/>
<path d="M497.36,220.40 C497.36,220.40 499.05,219.71 499.05,219.71 C499.98,228.34 500.07,235.71 499.94,245.50 C499.31,261.04 497.68,296.04 497.63,307.89 C497.75,315.17 498.18,330.41 498.61,338.34 C499.27,349.20 499.44,353.75 499.38,356.36 C499.38,356.36 499.10,354.75 499.10,354.75" fill="none" stroke="rgb(85, 111, 181)" stroke-width="4.16" stroke-opacity="1.00" stroke-linejoin="round"/>
<path d="M510.59,217.58 C511.71,218.50 512.45,222.68 512.73,225.78 C513.77,239.91 514.81,266.80 514.86,283.05 C514.73,299.77 514.56,324.08 514.53,331.66 C514.54,333.58 514.52,334.13 514.46,334.11 C514.46,334.11 514.34,333.81 514.34,333.81" fill="none" stroke="rgb(85, 111, 181)" stroke-width="4.16" stroke-opacity="1.00" stroke-linejoin="round"/>
<path d="M239.51,457.84 C239.47,457.84 239.41,457.84 239.34,457.83 C239.16,457.81 238.97,457.80 238.79,457.78 C236.49,459.99 233.35,463.81 231.59,466.65 C230.08,469.12 227.68,474.57 226.83,477.19 C225.31,481.90 224.90,494.35 225.45,497.55 C226.05,500.83 227.99,504.72 229.80,506.15 C231.53,507.42 237.54,509.12 240.63,509.16 C243.88,509.12 247.91,507.99 249.85,505.74 C250.80,504.60 255.05,497.22 255.63,495.65 C256.65,492.86 257.47,488.46 257.67,485.90 C257.94,482.08 257.86,475.70 257.23,472.57 C256.43,468.79 254.04,463.53 251.75,461.44 C249.78,459.69 243.64,456.48 241.73,456.78 C240.41,457.02 237.90,458.44 235.79,459.94 C235.37,460.24 234.87,460.59 234.28,461.00" fill="none" stroke="rgb(255, 153, 190)" stroke-width="4.16" stroke-opacity="1.00" stroke-linejoin="round"/>
<path d="M238.53,510.61 C238.41,510.49 238.33,510.40 238.30,510.34 C238.27,510.28 238.24,510.17 238.22,510.00 C238.22,510.00 238.24,519.30 238.24,519.30 C238.01,518.63 237.43,518.00 236.49,517.82 C233.45,517.26 209.68,520.25 208.62,520.54 C207.48,520.86 197.56,524.35 196.42,524.81 C191.58,526.86 188.30,531.44 188.16,531.84 C188.16,531.84 188.23,532.09 188.23,532.09 C188.23,532.09 188.34,532.14 188.34,532.14 C188.34,532.14 188.59,532.06 188.59,532.06" fill="none" stroke="rgb(255, 153, 190)" stroke-width="4.16" stroke-opacity="1.00" stroke-linejoin="round"/>
<path d="M245.66,510.46 C245.66,510.46 245.75,509.40 245.75,509.40 C245.75,509.40 249.05,519.50 249.05,519.50 C248.93,519.72 268.32,516.80 276.83,515.78 C282.20,515.22 289.09,514.70 291.74,514.94 C293.34,515.10 296.23,516.01 297.69,516.74 C299.69,517.78 303.23,521.58 303.79,522.41 C303.79,522.41 302.18,521.57 302.18,521.57" fill="none" stroke="rgb(255, 153, 190)" stroke-width="4.16" stroke-opacity="1.00" stroke-linejoin="round"/>
<path d="M228.20,519.46 C228.20,519.46 227.69,519.06 227.69,519.06 C227.69,519.06 227.32,519.26 227.32,519.26 C227.59,519.72 231.94,524.97 233.96,527.73 C234.73,528.79 242.66,542.71 243.23,543.03 C243.58,542.56 249.97,527.90 252.94,521.08 C253.78,519.19 254.17,518.14 254.81,516.24 C254.81,516.24 254.69,516.06 254.69,516.06" fill="none" stroke="rgb(255, 153, 190)" stroke-width="4.16" stroke-opacity="1.00" stroke-linejoin="round"/>
<path d="M191.43,530.38 C191.43,530.38 192.26,529.36 192.26,529.36 C192.26,529.36 192.20,528.83 192.20,528.83 C191.30,529.27 188.65,531.85 186.89,535.72 C185.43,539.00 183.88,549.94 183.77,556.85 C183.64,575.56 184.22,587.16 186.78,609.95 C187.44,614.75 188.64,625.87 188.71,632.68 C188.71,640.18 188.86,655.45 189.00,663.23 C189.13,668.69 188.71,681.00 188.76,681.34 C188.76,681.34 189.00,680.88 189.00,680.88" fill="none" stroke="rgb(255, 153, 190)" stroke-width="4.16" stroke-opacity="1.00" stroke-linejoin="round"/>
<path d="M210.89,570.98 C210.89,570.98 211.75,569.80 211.75,569.80 C211.99,569.71 211.54,575.59 211.47,580.44 C211.49,606.16 212.70,629.06 214.21,638.92 C214.84,642.98 218.59,661.13 220.78,667.78 C222.34,672.47 228.03,682.92 228.63,682.84 C228.63,682.84 228.61,682.29 228.61,682.29" fill="none" stroke="rgb(255, 153, 190)" stroke-width="4.16" stroke-opacity="1.00" stroke-linejoin="round"/>
<path d="M214.38,566.99 C214.38,566.99 213.71,566.77 213.71,566.77 C213.71,566.77 213.19,567.12 213.19,567.12 C213.15,568.26 217.73,586.09 218.63,590.10 C220.18,597.28 222.27,610.29 222.91,615.74 C227.53,660.70 227.41,679.53 227.02,680.37 C226.56,679.64 226.29,679.17 226.20,678.98 C226.11,678.78 226.06,678.57 226.07,678.36" fill="none" stroke="rgb(255, 153, 190)" stroke-width="4.16" stroke-opacity="1.00" stroke-linejoin="round"/>
<path d="M277.72,557.71 C278.06,557.23 278.27,556.93 278.37,556.80 C278.47,556.66 278.59,556.52 278.73,556.36 C278.32,557.58 278.05,558.44 277.74,559.57 C275.97,566.30 272.96,580.88 272.03,587.40 C270.99,594.80 270.22,606.44 269.92,615.25 C269.83,622.39 270.12,637.09 270.43,642.05 C271.07,650.93 273.21,661.27 276.42,668.78 C279.14,675.07 282.08,679.79 282.57,680.55 C282.57,680.55 282.14,679.82 282.14,679.82" fill="none" stroke="rgb(255, 153, 190)" stroke-width="4.16" stroke-opacity="1.00" stroke-linejoin="round"/>
<path d="M279.76,564.52 C279.75,564.38 279.75,564.28 279.76,564.23 C279.76,564.17 279.78,564.08 279.80,563.96 C280.28,564.73 280.63,565.59 281.10,567.35 C282.65,573.38 286.21,589.69 286.91,594.07 C288.15,602.58 288.94,611.06 289.42,620.13 C289.63,626.39 289.78,641.55 289.18,647.48 C288.37,655.05 282.59,679.98 282.31,680.34 C282.31,680.34 282.21,679.09 282.21,679.09" fill="none" stroke="rgb(255, 153, 190)" stroke-width="4.16" stroke-opacity="1.00" stroke-linejoin="round"/>
<path d="M300.63,524.00 C300.63,524.00 301.13,523.18 301.13,523.18 C301.13,523.18 301.25,523.23 301.25,523.23 C301.69,524.14 302.25,528.92 302.47,534.61 C302.81,549.18 303.67,578.46 304.56,594.29 C305.79,610.72 309.29,643.72 311.30,652.06 C317.60,676.50 319.61,681.78 321.56,685.66 C321.56,685.66 321.41,684.29 321.41,684.29" fill="none" stroke="rgb(255, 153, 190)" stroke-width="4.16" stroke-opacity="1.00" stroke-linejoin="round"/>
<path d="M188.77,598.74 C188.77,598.74 188.00,598.73 188.00,598.73 C188.00,598.73 187.12,596.80 187.12,596.80 C188.84,595.69 195.39,594.71 197.67,594.61 C200.20,594.51 207.40,595.01 208.25,595.26 C208.38,595.30 208.47,595.38 208.52,595.51 C208.52,595.51 208.50,595.60 208.50,595.60" fill="none" stroke="rgb(255, 153, 190)" stroke-width="4.16" stroke-opacity="1.00" stroke-linejoin="round"/>
<path d="M188.65,607.67 C188.65,607.67 188.18,607.45 188.18,607.45 C188.18,607.45 187.97,607.58 187.97,607.58 C188.48,607.70 195.46,606.09 196.72,605.85 C200.03,605.21 205.32,604.81 206.12,605.09 C206.12,605.09 206.19,605.19 206.19,605.19" fill="none" stroke="rgb(255, 153, 190)" stroke-width="4.16" stroke-opacity="1.00" stroke-linejoin="round"/>
<path d="M287.67,585.98 C287.67,585.98 285.91,585.22 285.91,585.22 C285.91,585.22 301.44,585.08 301.44,585.08 C301.44,585.08 301.59,585.55 301.59,585.55 C301.40,585.79 301.28,585.94 301.24,585.99 C301.19,586.04 301.15,586.08 301.11,586.09" fill="none" stroke="rgb(255, 153, 190)" stroke-width="4.16" stroke-opacity="1.00" stroke-linejoin="round"/>
<path d="M286.53,596.90 C286.53,596.90 286.22,597.08 286.22,597.08 C286.56,597.22 297.70,594.58 301.20,594.36 C301.60,594.34 302.43,594.31 303.68,594.27" fill="none" stroke="rgb(255, 153, 190)" stroke-width="4.16" stroke-opacity="1.00" stroke-linejoin="round"/>
<path d="M230.90,485.87 C230.90,485.87 231.08,484.58 231.08,484.58 C231.08,484.58 230.88,489.17 230.88,489.17 C230.88,489.17 232.30,487.33 232.30,487.33 C231.48,487.01 230.93,487.18 230.59,488.00 C230.32,488.66 230.32,489.28 230.49,489.83 C230.49,489.83 232.48,486.20 232.48,486.20 C232.48,486.20 231.57,488.28 231.57,488.28 C231.57,488.28 231.94,488.69 231.94,488.69 C231.94,488.69 232.37,488.62 232.37,488.62" fill="none" stroke="rgb(255, 153, 190)" stroke-width="4.16" stroke-opacity="1.00" stroke-linejoin="round"/>
<path d="M247.62,484.23 C247.62,484.23 246.95,483.80 246.95,483.80 C245.54,485.72 247.61,487.54 248.20,487.81 C249.77,486.96 249.59,485.83 249.38,485.19 C248.36,485.39 247.85,485.71 247.68,486.43 C247.50,487.21 247.56,487.79 247.81,488.30 C249.31,487.49 249.68,484.94 249.12,484.10 C247.41,485.78 246.63,486.87 245.91,488.65 C245.55,489.50 245.17,490.13 244.99,490.28" fill="none" stroke="rgb(255, 153, 190)" stroke-width="4.16" stroke-opacity="1.00" stroke-linejoin="round"/>
<path d="M236.38,499.57 C235.92,499.89 235.29,501.61 236.51,503.72 C237.16,504.82 238.47,505.93 239.03,505.93 C240.08,505.85 241.88,503.36 242.39,500.08 C242.48,499.49 242.58,498.38 242.68,496.76" fill="none" stroke="rgb(255, 153, 190)" stroke-width="4.16" stroke-opacity="1.00" stroke-linejoin="round"/>
<path d="M255.45,473.26 C255.45,473.26 255.34,472.56 255.34,472.56 C254.76,472.44 253.95,472.61 252.32,473.25 C249.89,474.20 243.84,476.51 241.33,477.04 C236.96,477.94 223.09,477.23 219.14,475.84 C217.01,475.07 213.36,472.86 211.78,471.17 C210.40,469.66 207.74,465.00 207.03,463.02 C206.31,461.00 205.09,456.22 204.86,453.82 C204.66,451.57 204.95,446.13 205.46,444.36 C206.05,442.48 208.39,440.47 210.23,440.23 C211.99,440.03 216.89,440.83 218.68,441.73 C220.89,442.89 224.39,446.49 226.36,449.32 C228.29,452.14 232.33,458.11 234.20,460.08 C234.82,460.74 235.91,461.52 236.05,461.59" fill="none" stroke="rgb(255, 153, 190)" stroke-width="4.16" stroke-opacity="1.00" stroke-linejoin="round"/>
</g>
</svg>
