<?xml version="1.0" encoding="UTF-8" standalone="no"?>
<!DOCTYPE svg PUBLIC "-//W3C//DTD SVG 1.1//EN" "http://www.w3.org/Graphics/SVG/1.1/DTD/svg11.dtd">
<svg width="128.40" height="181.68" viewBox="0.00 0.00 535.00 757.00" xmlns="http://www.w3.org/2000/svg" xmlns:xlink="http://www.w3.org/1999/xlink">
<g stroke-linecap="round" id="204">
<path d="M208.25,529.94 C208.25,529.94 208.43,530.16 208.43,530.16 C208.41,529.78 208.40,529.39 208.39,528.99 C208.32,525.44 207.99,524.69 207.63,524.63 C206.84,524.54 204.21,526.90 203.61,528.68 C203.17,530.07 203.01,534.13 203.45,536.20 C203.97,538.52 206.22,544.46 207.11,545.68 C207.85,546.62 209.21,547.58 209.99,547.81 C211.00,548.08 215.03,547.90 216.15,547.61 C218.98,546.84 224.59,541.13 227.66,537.93 C229.72,535.94 232.14,532.50 232.62,530.97 C233.60,527.80 232.69,525.18 232.07,524.79 C232.07,524.79 226.23,528.49 226.23,528.49 C226.23,528.49 223.18,523.59 223.18,523.59 C223.18,523.59 219.34,529.93 219.34,529.93 C219.34,529.93 216.62,524.10 216.62,524.10 C216.62,524.10 214.38,530.27 214.38,530.27 C214.31,530.17 213.26,527.00 212.52,525.59 C212.00,524.61 211.21,524.29 210.77,524.42 C210.27,524.64 209.12,526.54 208.26,528.98 C208.00,529.75 207.91,530.09 207.94,530.13 C207.94,530.13 208.01,530.12 208.01,530.12" fill="none" stroke="rgb(0, 0, 255)" stroke-width="1.43" stroke-opacity="1.00" stroke-linejoin="round"/>
<path d="M203.89,542.22 C203.67,542.46 203.15,543.44 201.88,545.42 C201.08,546.66 192.14,560.37 191.24,564.17 C190.69,566.56 190.54,569.36 190.74,569.85 C191.01,570.40 192.25,570.97 193.27,570.97 C195.24,570.93 202.91,566.22 208.87,561.67 C209.06,561.52 209.26,561.37 209.45,561.21 C209.45,561.41 208.62,564.60 208.46,567.48 C208.32,570.48 208.85,575.18 209.26,576.54 C209.59,577.57 210.64,579.10 211.37,579.62 C212.20,580.17 213.75,580.20 214.49,579.72 C215.39,579.10 216.83,576.78 217.31,575.35 C219.29,569.33 219.99,562.57 220.00,562.42 C220.23,562.94 221.98,568.59 223.49,571.20 C224.14,572.30 225.86,574.14 226.84,574.67 C227.71,575.14 229.83,575.51 230.87,575.33 C231.94,575.12 233.78,573.86 234.40,572.80 C236.94,568.27 234.52,556.86 234.45,556.46 C234.73,556.94 237.75,561.80 239.50,563.26 C241.05,564.52 243.08,565.09 243.82,565.09 C244.78,565.06 247.11,564.09 247.69,563.20 C248.29,562.21 248.05,558.68 246.94,556.57 C244.51,552.11 234.61,542.89 229.82,539.56 C229.47,539.31 229.17,539.08 228.91,538.86" fill="none" stroke="rgb(0, 0, 255)" stroke-width="1.43" stroke-opacity="1.00" stroke-linejoin="round"/>
<path d="M211.81,534.16 C211.79,534.12 211.76,534.07 211.73,534.04 C211.70,534.00 211.63,533.92 211.52,533.80 C211.52,533.80 211.32,533.77 211.32,533.77 C210.15,534.82 210.89,536.42 211.93,535.79 C212.75,535.26 211.29,534.25 210.48,535.17 C210.48,535.17 210.56,535.74 210.56,535.74 C210.56,535.74 210.82,535.80 210.82,535.80" fill="none" stroke="rgb(0, 0, 255)" stroke-width="1.43" stroke-opacity="1.00" stroke-linejoin="round"/>
<path d="M222.83,534.25 C222.63,534.20 222.32,534.18 222.14,534.25 C221.31,534.55 222.73,535.76 223.62,534.86 C223.76,534.72 223.78,534.52 223.74,534.30 C223.74,534.30 221.03,534.49 221.03,534.49 C221.03,534.49 222.81,534.58 222.81,534.58 C222.81,534.58 220.72,534.98 220.72,534.98" fill="none" stroke="rgb(0, 0, 255)" stroke-width="1.43" stroke-opacity="1.00" stroke-linejoin="round"/>
<path d="M219.03,536.50 C219.01,536.45 218.99,536.42 218.97,536.40 C218.96,536.38 218.93,536.36 218.88,536.34 C218.91,536.37 218.70,538.31 218.53,539.76 C218.49,540.11 218.47,540.33 218.46,540.44 C218.46,540.49 218.46,540.53 218.46,540.57" fill="none" stroke="rgb(0, 0, 255)" stroke-width="1.43" stroke-opacity="1.00" stroke-linejoin="round"/>
<path d="M213.08,542.33 C213.08,542.33 211.80,542.78 211.80,542.78 C211.80,542.78 221.53,542.34 221.53,542.34 C221.53,542.34 221.19,542.93 221.19,542.93" fill="none" stroke="rgb(0, 0, 255)" stroke-width="1.43" stroke-opacity="1.00" stroke-linejoin="round"/>
<path d="M196.06,490.63 C196.06,490.63 196.06,490.63 196.05,490.63 C195.96,490.71 195.85,490.84 195.72,491.03 C193.14,494.87 186.24,503.63 183.57,508.82 C180.46,514.94 178.00,521.38 177.90,521.82 C177.90,521.82 178.46,521.05 178.46,521.05" fill="none" stroke="rgb(255, 153, 190)" stroke-width="1.43" stroke-opacity="1.00" stroke-linejoin="round"/>
<path d="M197.93,494.79 C197.63,494.78 197.20,494.95 196.66,495.49 C192.71,499.47 185.44,510.85 182.52,516.98 C181.77,518.57 179.00,524.87 178.38,526.55 C176.86,530.83 176.48,532.08 176.27,532.98 C176.39,532.72 176.47,532.56 176.50,532.49 C176.54,532.41 176.57,532.33 176.60,532.24" fill="none" stroke="rgb(255, 153, 190)" stroke-width="1.43" stroke-opacity="1.00" stroke-linejoin="round"/>
<path d="M196.40,501.58 C196.35,501.60 195.81,502.52 195.37,503.27 C190.70,510.89 184.95,521.90 182.77,527.60 C181.95,529.76 181.38,531.52 181.40,531.73 C181.56,531.42 181.67,531.20 181.72,531.08 C181.78,530.95 181.85,530.76 181.94,530.49" fill="none" stroke="rgb(255, 153, 190)" stroke-width="1.43" stroke-opacity="1.00" stroke-linejoin="round"/>
<path d="M205.11,493.01 C205.11,493.01 205.23,492.67 205.23,492.67 C204.85,492.82 202.33,495.58 200.24,498.81 C197.99,502.30 188.53,520.72 188.32,521.10 C187.55,522.50 186.84,523.57 186.68,523.65 C186.68,523.65 186.66,523.35 186.66,523.35" fill="none" stroke="rgb(255, 153, 190)" stroke-width="1.43" stroke-opacity="1.00" stroke-linejoin="round"/>
<path d="M203.81,502.70 C203.81,502.70 203.71,502.64 203.71,502.64 C203.03,502.93 200.22,505.98 197.87,509.39 C190.24,520.57 185.30,533.82 184.59,536.62 C184.24,537.97 184.00,539.54 183.99,540.01" fill="none" stroke="rgb(255, 153, 190)" stroke-width="1.43" stroke-opacity="1.00" stroke-linejoin="round"/>
<path d="M170.44,560.96 C170.01,561.03 169.17,561.45 168.63,562.28 C168.24,562.91 167.37,565.21 166.76,567.27 C165.75,570.65 165.48,572.56 165.48,572.79 C165.48,572.79 165.84,572.14 165.84,572.14" fill="none" stroke="rgb(255, 153, 190)" stroke-width="1.43" stroke-opacity="1.00" stroke-linejoin="round"/>
<path d="M174.80,557.19 C174.70,557.16 174.23,557.46 173.83,557.92 C172.52,559.51 169.76,565.31 169.11,568.38 C168.63,570.76 168.94,572.30 169.11,572.69 C169.11,572.69 169.37,572.69 169.37,572.69 C169.37,572.69 169.62,572.34 169.62,572.34" fill="none" stroke="rgb(255, 153, 190)" stroke-width="1.43" stroke-opacity="1.00" stroke-linejoin="round"/>
<path d="M179.04,558.25 C178.93,558.23 178.69,558.32 178.47,558.54 C177.71,559.38 175.24,564.66 174.18,567.76 C173.19,570.65 171.76,576.24 171.61,577.50" fill="none" stroke="rgb(255, 153, 190)" stroke-width="1.43" stroke-opacity="1.00" stroke-linejoin="round"/>
<path d="M183.28,557.61 C182.84,557.65 181.95,558.44 181.12,560.28 C180.53,561.61 179.52,564.52 179.05,566.23 C178.25,569.20 177.67,573.32 177.68,573.58" fill="none" stroke="rgb(255, 153, 190)" stroke-width="1.43" stroke-opacity="1.00" stroke-linejoin="round"/>
<path d="M192.26,531.60 C192.26,531.60 192.39,531.41 192.39,531.41 C191.24,533.10 189.99,535.10 189.14,536.66 C187.57,539.57 184.69,546.26 183.53,549.68 C182.40,553.04 182.05,554.87 182.04,555.12" fill="none" stroke="rgb(255, 153, 190)" stroke-width="1.43" stroke-opacity="1.00" stroke-linejoin="round"/>
<path d="M196.49,533.97 C195.92,534.85 195.16,536.33 194.52,537.90 C194.09,538.96 191.36,546.49 190.08,550.38 C189.05,553.64 186.26,562.65 186.12,563.04 C186.04,563.30 185.94,563.52 185.84,563.71" fill="none" stroke="rgb(255, 153, 190)" stroke-width="1.43" stroke-opacity="1.00" stroke-linejoin="round"/>
<path d="M200.03,535.01 C200.00,535.30 199.90,535.57 199.30,536.80 C197.65,540.17 195.67,545.79 194.92,548.62 C193.48,554.13 193.02,559.29 193.06,559.76" fill="none" stroke="rgb(255, 153, 190)" stroke-width="1.43" stroke-opacity="1.00" stroke-linejoin="round"/>
<path d="M214.86,494.09 C214.86,494.09 215.05,493.82 215.05,493.82 C214.93,493.98 214.47,494.60 214.01,495.31 C208.74,503.40 199.90,521.42 198.53,524.36 C197.94,525.69 196.87,528.12 196.39,529.22" fill="none" stroke="rgb(255, 153, 190)" stroke-width="1.43" stroke-opacity="1.00" stroke-linejoin="round"/>
<path d="M223.62,491.68 C223.10,492.00 218.33,497.90 216.80,500.06 C212.60,506.04 205.84,517.91 203.22,524.08 C201.95,527.10 200.92,530.45 200.75,531.16" fill="none" stroke="rgb(255, 153, 190)" stroke-width="1.43" stroke-opacity="1.00" stroke-linejoin="round"/>
<path d="M222.77,494.13 C222.42,494.16 221.55,494.66 220.42,496.34 C218.30,499.55 211.75,512.72 207.85,521.48 C207.37,522.59 206.90,523.79 206.87,523.91" fill="none" stroke="rgb(255, 153, 190)" stroke-width="1.43" stroke-opacity="1.00" stroke-linejoin="round"/>
<path d="M225.52,497.58 C225.52,497.58 225.75,497.09 225.75,497.09 C224.94,497.85 222.27,501.71 220.41,504.86 C218.99,507.29 216.30,512.40 214.91,515.30 C213.16,519.00 211.83,522.38 211.15,524.33" fill="none" stroke="rgb(255, 153, 190)" stroke-width="1.43" stroke-opacity="1.00" stroke-linejoin="round"/>
<path d="M230.01,496.88 C230.01,496.88 229.78,496.74 229.78,496.74 C227.86,498.13 221.46,508.25 218.33,514.56 C216.79,517.67 215.52,520.71 215.30,521.37" fill="none" stroke="rgb(255, 153, 190)" stroke-width="1.43" stroke-opacity="1.00" stroke-linejoin="round"/>
<path d="M235.63,493.96 C235.44,493.97 234.94,494.19 234.38,494.76 C230.86,498.37 223.03,511.53 220.17,517.35 C218.51,520.75 217.08,524.06 217.08,524.10" fill="none" stroke="rgb(255, 153, 190)" stroke-width="1.43" stroke-opacity="1.00" stroke-linejoin="round"/>
<path d="M237.23,498.16 C236.50,498.56 234.81,499.91 232.92,502.35 C232.14,503.36 228.90,508.34 227.23,511.10 C223.48,517.33 221.36,522.08 220.95,523.15" fill="none" stroke="rgb(255, 153, 190)" stroke-width="1.43" stroke-opacity="1.00" stroke-linejoin="round"/>
<path d="M237.47,501.09 C237.47,501.09 237.47,500.86 237.47,500.86 C237.13,501.01 236.19,502.03 234.68,503.96 C232.52,506.74 228.75,512.50 227.35,514.92 C224.63,519.67 223.41,522.70 223.44,522.76" fill="none" stroke="rgb(255, 153, 190)" stroke-width="1.43" stroke-opacity="1.00" stroke-linejoin="round"/>
<path d="M238.58,502.15 C238.58,502.15 238.33,502.03 238.33,502.03 C237.00,503.09 229.81,514.58 227.86,518.37 C227.08,519.89 226.21,521.79 226.25,521.80 C226.22,521.91 226.39,521.61 226.45,521.51 C228.88,517.41 234.35,509.56 235.05,508.55" fill="none" stroke="rgb(255, 153, 190)" stroke-width="1.43" stroke-opacity="1.00" stroke-linejoin="round"/>
<path d="M241.87,499.38 C241.87,499.38 242.06,498.93 242.06,498.93 C240.97,500.32 236.93,506.33 235.32,509.13 C234.54,510.52 233.18,512.97 232.59,514.03 C231.57,515.90 230.15,518.96 229.63,519.94 C229.46,520.27 229.25,520.57 229.00,520.84" fill="none" stroke="rgb(255, 153, 190)" stroke-width="1.43" stroke-opacity="1.00" stroke-linejoin="round"/>
<path d="M256.47,491.53 C255.42,492.63 254.65,493.40 252.50,495.47 C247.51,500.30 238.85,510.22 235.55,514.94 C234.37,516.65 231.18,521.75 230.00,524.31 C229.77,524.80 229.35,525.77 228.74,527.23" fill="none" stroke="rgb(255, 153, 190)" stroke-width="1.43" stroke-opacity="1.00" stroke-linejoin="round"/>
<path d="M247.91,507.81 C247.86,507.83 247.73,507.83 247.41,508.05 C245.23,509.54 241.38,513.38 239.06,515.93 C237.10,518.08 235.32,520.19 235.04,520.56" fill="none" stroke="rgb(255, 153, 190)" stroke-width="1.43" stroke-opacity="1.00" stroke-linejoin="round"/>
<path d="M260.88,505.43 C260.88,505.43 260.81,505.27 260.81,505.27 C260.51,505.21 258.74,506.00 257.39,507.13 C253.43,510.50 244.39,520.95 240.36,526.62 C238.27,529.59 236.49,532.68 235.81,534.01" fill="none" stroke="rgb(255, 153, 190)" stroke-width="1.43" stroke-opacity="1.00" stroke-linejoin="round"/>
<path d="M263.37,506.00 C263.05,506.32 262.20,507.27 260.54,509.19 C256.51,513.92 246.44,526.81 243.93,530.42 C240.40,535.51 236.59,542.52 236.17,544.16 C236.17,544.16 236.26,544.26 236.26,544.26 C236.26,544.26 236.44,544.03 236.44,544.03" fill="none" stroke="rgb(255, 153, 190)" stroke-width="1.43" stroke-opacity="1.00" stroke-linejoin="round"/>
<path d="M255.44,522.99 C254.56,522.99 254.12,523.01 253.85,523.15 C252.67,523.76 249.72,526.68 247.90,528.90 C246.16,531.07 242.40,536.64 240.95,539.54 C240.23,541.01 239.64,542.60 239.64,542.85" fill="none" stroke="rgb(255, 153, 190)" stroke-width="1.43" stroke-opacity="1.00" stroke-linejoin="round"/>
<path d="M269.22,507.07 C269.22,507.07 269.50,506.78 269.50,506.78 C269.51,506.77 263.95,512.50 262.48,514.10 C258.92,517.98 249.84,529.79 246.53,534.72 C244.57,537.68 241.53,542.45 241.15,543.11 C240.94,543.49 240.57,544.17 240.06,545.17" fill="none" stroke="rgb(255, 153, 190)" stroke-width="1.43" stroke-opacity="1.00" stroke-linejoin="round"/>
<path d="M278.58,514.92 C278.58,514.92 278.43,514.74 278.43,514.74 C278.20,514.70 277.15,515.24 276.04,516.19 C272.13,519.61 264.23,529.28 259.86,535.42 C257.61,538.62 255.87,541.57 255.59,542.14" fill="none" stroke="rgb(255, 153, 190)" stroke-width="1.43" stroke-opacity="1.00" stroke-linejoin="round"/>
<path d="M278.94,517.69 C278.94,517.69 279.14,517.24 279.14,517.24 C278.53,517.54 275.57,520.29 273.64,522.27 C269.10,526.99 261.53,536.02 258.04,541.23 C257.18,542.51 256.20,544.20 255.46,545.56" fill="none" stroke="rgb(255, 153, 190)" stroke-width="1.43" stroke-opacity="1.00" stroke-linejoin="round"/>
<path d="M265.33,543.48 C264.81,543.75 262.46,547.22 259.93,551.92 C256.63,558.11 253.56,565.94 252.93,568.12 C252.31,570.26 252.23,571.21 252.25,571.19" fill="none" stroke="rgb(255, 153, 190)" stroke-width="1.43" stroke-opacity="1.00" stroke-linejoin="round"/>
<path d="M270.24,540.41 C270.24,540.41 270.45,540.14 270.45,540.14 C265.16,546.33 257.63,563.33 256.09,567.29 C255.49,568.86 254.40,571.71 253.91,572.99" fill="none" stroke="rgb(255, 153, 190)" stroke-width="1.43" stroke-opacity="1.00" stroke-linejoin="round"/>
<path d="M253.01,537.64 C253.01,537.64 252.86,537.49 252.86,537.49 C252.30,537.50 249.92,540.25 247.67,543.19 C245.73,545.75 243.66,548.94 243.52,549.25" fill="none" stroke="rgb(255, 153, 190)" stroke-width="1.43" stroke-opacity="1.00" stroke-linejoin="round"/>
</g>
</svg>
