<?xml version="1.0" encoding="UTF-8" standalone="no"?>
<!DOCTYPE svg PUBLIC "-//W3C//DTD SVG 1.1//EN" "http://www.w3.org/Graphics/SVG/1.1/DTD/svg11.dtd">
<svg width="128.40" height="181.68" viewBox="0.00 0.00 535.00 757.00" xmlns="http://www.w3.org/2000/svg" xmlns:xlink="http://www.w3.org/1999/xlink">
<g stroke-linecap="round" id="207">
<path d="M218.34,366.46 C218.34,366.46 218.15,365.92 218.15,365.92 C217.36,365.64 215.28,366.43 211.11,368.36 C207.38,370.17 200.97,374.77 199.27,377.00 C197.37,379.59 195.77,386.69 195.83,390.39 C195.89,392.36 196.49,395.27 197.18,396.72 C198.80,399.95 204.21,403.82 206.92,404.60 C210.22,405.47 225.74,406.60 228.26,406.81 C233.16,407.20 244.73,406.04 249.72,404.81 C251.60,404.33 257.36,402.18 259.57,400.56 C262.08,398.69 264.16,394.35 264.37,392.36 C264.60,389.66 263.10,383.92 261.54,381.25 C260.23,379.08 255.34,373.85 253.44,372.29 C251.36,370.62 246.75,367.85 244.53,366.99 C242.36,366.17 237.79,365.26 235.28,365.16 C225.69,364.85 208.65,370.75 207.62,371.83 C206.38,373.18 205.59,374.25 205.48,374.67" fill="none" stroke="rgb(0, 0, 255)" stroke-width="3.86" stroke-opacity="1.00" stroke-linejoin="round"/>
<path d="M197.73,396.01 C197.73,396.01 197.65,396.16 197.65,396.16 C197.65,396.16 197.65,396.09 197.65,396.09 C197.64,396.09 197.64,396.10 197.65,396.10 C197.69,396.23 197.74,396.35 197.79,396.48 C197.79,396.48 198.23,396.74 198.23,396.74 C198.23,396.74 204.34,385.25 204.34,385.25 C204.34,385.25 205.71,389.39 205.71,389.39 C205.71,389.39 210.07,383.38 210.07,383.38 C210.07,383.38 212.57,386.07 212.57,386.07 C212.57,386.07 216.03,382.31 216.03,382.31 C216.03,382.31 217.53,386.03 217.53,386.03 C217.53,386.03 221.16,380.65 221.16,380.65 C221.16,380.65 223.68,383.53 223.68,383.53 C223.68,383.53 225.50,380.62 225.50,380.62 C225.50,380.62 227.97,383.57 227.97,383.57 C229.14,383.41 229.75,382.87 230.40,381.31 C230.84,380.25 231.19,379.77 231.43,379.75 C231.43,379.75 233.63,382.12 233.63,382.12 C233.63,382.12 235.58,380.28 235.58,380.28 C235.58,380.28 238.81,382.93 238.81,382.93 C238.81,382.93 242.11,380.69 242.11,380.69 C242.11,380.69 244.73,382.98 244.73,382.98 C244.73,382.98 247.10,380.36 247.10,380.36 C247.10,380.36 249.57,382.51 249.57,382.51 C249.57,382.51 251.47,381.19 251.47,381.19 C251.47,381.19 255.66,381.25 255.66,381.25 C256.02,381.41 256.07,390.25 256.37,391.63 C256.67,392.90 257.58,394.22 258.06,394.25 C258.46,394.24 261.99,394.37 263.39,394.41 C263.39,394.41 263.40,394.54 263.40,394.54 C263.40,394.54 262.62,394.65 262.62,394.65" fill="none" stroke="rgb(0, 0, 255)" stroke-width="3.86" stroke-opacity="1.00" stroke-linejoin="round"/>
<path d="M209.57,391.60 C209.57,391.60 209.45,391.60 209.45,391.60 C209.70,391.69 210.53,391.85 211.23,391.82 C213.34,391.71 219.37,389.99 220.26,389.75 C220.69,389.64 221.34,389.48 222.23,389.28" fill="none" stroke="rgb(0, 0, 255)" stroke-width="3.86" stroke-opacity="1.00" stroke-linejoin="round"/>
<path d="M238.40,390.00 C238.40,390.00 238.95,388.91 238.95,388.91 C239.24,388.74 240.32,388.94 240.78,388.97 C241.41,389.01 247.06,388.93 247.85,388.95 C249.59,388.99 250.97,389.15 250.80,389.23 C250.80,389.23 250.64,389.40 250.64,389.40" fill="none" stroke="rgb(0, 0, 255)" stroke-width="3.86" stroke-opacity="1.00" stroke-linejoin="round"/>
<path d="M232.26,396.90 C232.23,396.81 232.20,396.74 232.16,396.69 C232.11,396.64 232.01,396.54 231.83,396.38 C231.11,396.47 230.46,396.65 228.94,397.23 C226.66,398.11 224.58,400.26 224.40,401.38 C224.37,401.78 224.80,402.39 225.47,402.93 C225.87,403.23 231.73,402.12 235.00,401.85 C235.21,401.83 235.67,401.81 235.68,401.77 C235.68,401.77 235.48,401.39 235.48,401.39" fill="none" stroke="rgb(0, 0, 255)" stroke-width="3.86" stroke-opacity="1.00" stroke-linejoin="round"/>
<path d="M231.33,398.32 C231.33,398.32 231.77,396.56 231.77,396.56 C231.77,396.56 238.43,398.65 238.43,398.65 C238.29,399.79 235.99,401.14 233.22,401.98 C231.60,402.46 230.83,402.64 229.82,402.80" fill="none" stroke="rgb(0, 0, 255)" stroke-width="3.86" stroke-opacity="1.00" stroke-linejoin="round"/>
<path d="M210.73,407.00 C210.73,407.00 210.67,406.80 210.67,406.80 C211.94,406.38 215.82,407.73 218.48,409.69 C219.57,410.49 227.41,417.03 229.57,418.31 C230.75,419.00 232.03,419.29 232.76,419.25 C234.70,416.48 237.16,413.41 239.17,411.55 C241.26,409.73 245.25,406.12 245.31,405.33 C245.31,405.33 244.41,405.06 244.41,405.06" fill="none" stroke="rgb(0, 0, 255)" stroke-width="3.86" stroke-opacity="1.00" stroke-linejoin="round"/>
<path d="M205.70,406.73 C205.70,406.73 205.64,406.67 205.64,406.67 C204.53,406.96 202.62,409.62 200.70,412.62 C194.61,422.63 190.32,430.40 187.86,437.03 C185.94,442.35 176.35,471.63 176.36,474.93 C176.36,474.93 187.49,476.70 187.49,476.70 C187.17,472.66 188.78,464.87 192.42,453.34 C198.64,434.60 201.68,428.58 202.73,426.66 C202.29,431.16 202.45,449.51 202.77,457.34 C204.32,480.55 205.98,485.98 206.33,486.50 C206.89,486.43 210.57,485.41 214.41,485.24 C224.78,484.75 261.95,481.16 270.26,480.94 C274.33,480.83 275.11,480.64 275.40,480.22 C275.76,476.64 274.23,467.06 271.57,454.94 C270.12,447.90 268.68,436.32 269.04,430.63 C269.39,425.39 269.37,424.32 269.22,422.61 C269.10,422.59 269.02,422.58 268.99,422.57 C268.96,422.56 268.93,422.54 268.90,422.51" fill="none" stroke="rgb(0, 0, 255)" stroke-width="3.86" stroke-opacity="1.00" stroke-linejoin="round"/>
<path d="M251.18,405.44 C251.18,405.44 249.57,406.72 249.57,406.72 C249.74,406.83 254.86,406.06 256.86,406.35 C258.84,406.66 264.51,408.17 266.85,409.59 C267.84,410.20 268.80,411.61 269.02,412.28 C269.04,412.37 269.06,412.48 269.06,412.59" fill="none" stroke="rgb(0, 0, 255)" stroke-width="3.86" stroke-opacity="1.00" stroke-linejoin="round"/>
<path d="M272.67,417.41 C272.67,417.41 272.30,416.45 272.30,416.45 C272.30,416.45 272.66,416.31 272.66,416.31 C273.08,416.93 275.39,423.30 276.24,425.09 C279.80,432.52 298.42,457.15 298.69,457.72 C298.69,457.72 289.60,463.87 289.60,463.87 C289.33,463.61 286.64,458.01 284.42,454.55 C275.11,440.22 266.23,421.94 265.31,421.04 C265.31,421.04 265.46,422.02 265.46,422.02" fill="none" stroke="rgb(0, 0, 255)" stroke-width="3.86" stroke-opacity="1.00" stroke-linejoin="round"/>
<path d="M290.42,465.95 C290.42,465.95 290.25,466.12 290.25,466.12 C290.71,466.38 291.94,466.86 292.96,467.07 C294.53,467.37 298.02,467.53 299.33,467.36 C300.01,467.25 300.96,466.47 301.27,465.99 C301.62,465.33 301.71,462.98 301.47,461.00 C301.32,459.82 300.80,458.14 300.33,456.87" fill="none" stroke="rgb(0, 0, 255)" stroke-width="3.86" stroke-opacity="1.00" stroke-linejoin="round"/>
<path d="M175.84,476.77 C175.84,476.77 176.25,473.90 176.25,473.90 C175.66,473.80 174.19,475.08 173.43,476.65 C171.35,481.17 173.71,483.74 174.67,484.37 C175.89,484.42 177.01,484.21 177.81,483.60 C179.53,482.26 181.39,477.99 181.15,475.67 C181.12,475.44 181.06,475.29 180.95,475.20" fill="none" stroke="rgb(0, 0, 255)" stroke-width="3.86" stroke-opacity="1.00" stroke-linejoin="round"/>
<path d="M207.39,483.44 C207.37,483.43 207.33,483.42 207.27,483.42 C207.21,483.43 207.04,483.44 206.76,483.45 C205.83,485.81 203.72,495.52 201.90,506.46 C199.37,521.76 194.74,547.89 190.30,567.40 C188.99,572.80 184.28,583.12 183.62,586.13 C182.54,591.25 182.47,593.58 182.73,594.18 C183.27,594.33 202.99,596.05 206.53,596.14 C207.66,596.17 214.23,595.97 216.17,595.50 C216.34,595.57 222.39,556.99 225.05,541.87 C226.40,533.93 229.58,515.60 230.06,513.63 C230.82,510.58 235.90,494.11 235.92,494.10 C237.09,495.56 244.14,508.28 248.03,514.45 C251.89,520.55 274.45,566.23 275.51,568.48 C277.07,571.80 284.15,589.09 284.71,589.23 C286.13,588.58 291.61,586.37 293.73,585.74 C294.13,585.62 313.27,580.95 313.98,580.36 C314.22,579.14 312.52,575.05 309.53,569.21 C304.09,558.68 290.72,527.43 287.95,519.74 C283.47,506.44 275.35,482.81 273.71,480.49 C273.16,479.72 272.22,479.43 271.68,479.42 C271.68,479.42 271.28,479.76 271.28,479.76" fill="none" stroke="rgb(0, 0, 255)" stroke-width="3.86" stroke-opacity="1.00" stroke-linejoin="round"/>
<path d="M179.80,596.59 C179.80,596.59 180.72,595.18 180.72,595.18 C180.46,594.21 174.77,592.15 172.76,592.18 C171.03,592.25 169.56,593.98 169.91,595.41 C170.31,596.80 173.49,599.89 175.81,601.32 C178.33,602.85 184.85,606.18 188.04,607.28 C191.64,608.49 198.71,609.40 202.35,609.29 C205.44,609.17 208.67,608.22 209.51,606.86 C211.59,603.23 209.73,596.15 209.03,594.91 C208.82,594.54 208.48,594.24 208.03,594.01" fill="none" stroke="rgb(0, 0, 255)" stroke-width="3.86" stroke-opacity="1.00" stroke-linejoin="round"/>
<path d="M285.13,591.92 C285.13,591.92 285.96,591.09 285.96,591.09 C286.30,591.86 288.14,596.59 289.46,598.98 C290.92,601.56 293.02,604.07 294.50,604.52 C296.51,605.05 301.80,603.54 305.37,601.55 C307.84,600.16 313.61,596.38 316.23,594.42 C318.33,592.82 323.19,588.11 324.29,585.15 C324.47,584.63 323.80,583.32 323.79,583.31 C323.09,582.51 318.09,582.01 314.36,582.45 C311.74,582.79 306.13,584.19 299.66,586.01 C294.41,587.50 292.02,588.40 291.86,588.88 C291.86,588.88 291.97,589.01 291.97,589.01 C291.97,589.01 292.05,589.03 292.05,589.03" fill="none" stroke="rgb(0, 0, 255)" stroke-width="3.86" stroke-opacity="1.00" stroke-linejoin="round"/>
<path d="M30.35,106.03 C29.36,105.87 28.73,105.78 28.45,105.75 C28.16,105.71 27.84,105.70 27.47,105.71 C27.47,105.71 27.09,106.31 27.09,106.31 C27.95,107.82 33.66,110.42 36.45,111.05 C38.88,111.58 45.33,111.90 47.44,111.60 C49.95,111.20 53.16,109.63 54.23,107.88 C55.23,106.15 54.66,102.89 54.35,102.71 C53.24,104.29 52.61,106.38 53.15,107.84 C53.99,110.04 58.22,111.17 63.08,112.28 C65.28,112.77 70.25,113.69 73.70,113.53 C75.69,113.41 80.61,111.51 82.41,109.90 C83.47,108.98 84.76,108.39 85.96,108.46 C86.94,108.52 89.88,108.97 91.02,108.86 C92.73,108.65 94.83,107.45 95.34,106.06 C95.81,104.70 95.70,101.80 95.26,100.91 C94.29,99.19 91.58,98.14 89.34,97.97 C82.87,97.57 73.78,98.59 65.08,100.79 C62.95,101.34 62.23,101.47 61.75,101.45 C61.55,99.59 59.89,98.45 56.76,96.56 C53.93,94.88 50.06,93.03 46.93,92.57 C43.88,92.18 38.26,93.74 35.61,95.96 C33.82,97.52 30.00,103.10 29.33,105.38 C29.18,105.92 29.26,106.39 29.31,106.49" fill="none" stroke="rgb(0, 255, 0)" stroke-width="3.86" stroke-opacity="1.00" stroke-linejoin="round"/>
<path d="M126.85,94.31 C126.85,94.31 126.20,93.42 126.20,93.42 C126.20,93.42 125.53,93.26 125.53,93.26 C126.87,95.83 128.01,97.66 128.84,98.30 C133.03,101.39 140.09,99.83 140.96,99.35 C139.88,99.68 139.13,100.69 139.30,102.15 C139.47,103.41 141.02,105.81 142.39,106.84 C144.95,108.72 149.71,110.46 152.39,111.12 C156.81,112.18 162.99,113.37 166.21,113.61 C171.52,113.95 176.54,113.57 180.26,112.15 C182.74,111.14 184.17,110.34 184.81,109.45 C185.55,108.39 185.75,106.69 185.53,105.42 C185.53,105.42 183.92,105.97 183.92,105.97 C183.92,105.97 184.09,107.44 184.09,107.44 C185.61,108.86 189.97,109.49 196.29,110.06 C200.77,110.44 205.71,110.50 209.96,109.99 C213.73,109.50 218.97,107.25 221.05,105.02 C222.97,102.88 225.00,97.65 224.20,96.21 C223.27,94.75 217.69,93.94 213.33,94.18 C208.82,94.47 203.34,95.37 200.86,96.26 C198.73,97.05 197.45,98.25 197.28,98.61 C199.53,98.26 200.84,97.84 202.31,96.90 C203.74,95.98 205.17,94.72 205.89,93.71 C206.52,92.77 206.98,90.58 206.71,89.62 C206.36,88.61 204.46,86.69 203.13,86.08 C200.22,84.82 195.09,84.16 191.96,83.99 C184.51,83.61 171.66,84.93 167.18,86.29 C160.44,88.42 159.34,91.27 159.27,91.92 C160.35,91.92 161.18,90.44 161.52,87.53 C161.65,86.29 161.25,83.46 160.86,82.51 C160.34,81.34 158.73,79.64 157.61,79.11 C155.11,78.02 148.10,78.46 144.58,79.77 C140.87,81.22 135.64,85.68 133.98,88.69 C133.33,89.93 132.68,92.18 132.62,93.25 C132.60,94.13 133.30,95.85 133.93,96.55 C134.17,96.81 134.70,97.27 135.52,97.92" fill="none" stroke="rgb(0, 255, 0)" stroke-width="3.86" stroke-opacity="1.00" stroke-linejoin="round"/>
<path d="M266.34,92.55 C266.24,92.38 266.17,92.07 266.25,91.85 C266.34,91.61 266.63,90.87 266.73,89.97 C265.93,88.04 262.02,86.06 259.98,86.16 C258.35,86.29 255.20,88.05 254.38,89.52 C254.07,90.14 253.75,91.89 253.91,92.70 C254.56,95.68 258.30,100.19 260.90,101.94 C264.08,104.01 268.96,105.65 273.68,106.50 C280.07,107.58 283.65,107.97 285.46,107.63 C288.81,106.96 293.96,105.35 296.18,103.79 C297.53,102.83 298.72,101.23 299.37,99.85 C297.01,100.53 295.95,101.13 295.53,102.23 C295.09,103.42 294.97,104.64 295.24,105.42 C295.77,106.73 300.03,109.70 302.95,110.96 C308.52,113.31 319.14,116.00 323.97,116.01 C326.07,115.99 329.93,115.53 331.52,115.00 C334.51,113.97 338.14,110.22 339.48,107.84 C340.24,106.46 340.53,105.12 340.65,102.77 C339.60,101.36 337.83,100.39 335.33,100.21 C333.12,100.04 330.63,100.41 329.19,100.94 C329.28,101.69 329.67,102.14 330.62,102.33 C332.65,102.72 337.57,102.55 341.42,101.77 C344.78,101.06 352.32,98.46 354.37,97.42 C355.98,96.58 358.88,94.46 360.05,93.25 C361.23,91.98 362.48,89.62 362.56,88.49 C362.57,87.47 361.39,85.63 360.21,84.95 C356.40,82.83 342.19,81.14 335.56,81.26 C325.87,81.53 314.47,82.81 312.65,84.18 C312.42,84.36 312.01,84.81 311.42,85.52 C313.68,84.40 314.62,83.63 314.78,82.47 C315.07,80.10 313.95,75.82 312.32,73.62 C310.59,71.37 305.13,68.02 301.86,67.27 C298.15,66.48 292.54,66.90 287.74,67.91 C284.78,68.56 279.52,70.82 273.73,73.69 C269.61,75.79 266.18,78.44 264.29,81.07 C262.76,83.28 260.87,89.30 261.26,91.98 C261.42,93.04 262.28,94.04 262.66,94.18 C262.66,94.18 262.46,93.41 262.46,93.41" fill="none" stroke="rgb(0, 255, 0)" stroke-width="3.86" stroke-opacity="1.00" stroke-linejoin="round"/>
<path d="M390.67,90.30 C390.67,90.30 391.01,88.99 391.01,88.99 C390.75,88.35 390.56,87.92 390.44,87.72 C389.63,86.40 384.77,84.89 382.55,85.30 C381.23,85.57 379.17,86.72 378.65,87.41 C377.67,88.85 377.61,92.26 378.73,94.06 C379.70,95.58 383.78,99.56 386.08,101.01 C390.64,103.80 398.25,104.81 399.72,104.57 C401.87,104.20 403.27,103.28 403.79,102.05 C403.79,102.05 403.22,100.71 403.22,100.71 C403.22,100.71 401.78,100.40 401.78,100.40 C400.61,101.16 399.78,102.30 399.74,103.60 C399.71,105.80 403.47,110.05 405.83,111.54 C407.71,112.69 411.48,114.03 414.69,114.80 C417.30,115.41 421.53,115.76 427.00,115.93 C430.24,116.00 435.74,115.58 437.88,114.79 C439.39,114.20 441.40,111.96 441.86,110.52 C442.60,107.94 440.81,106.64 440.01,106.38 C440.95,107.70 446.36,108.42 449.73,108.28 C453.05,108.11 459.57,106.69 461.96,105.48 C462.79,105.04 465.41,103.16 465.93,102.59 C466.84,101.54 467.54,99.49 467.39,98.22 C467.11,96.36 463.68,92.68 461.51,91.18 C457.69,88.60 446.62,85.02 441.78,84.76 C438.39,84.60 431.82,85.10 428.20,85.98 C426.34,86.44 419.58,88.41 416.43,89.00 C418.14,88.63 423.12,84.91 424.06,82.67 C424.54,81.38 424.52,79.03 423.99,77.78 C423.00,75.67 418.48,73.23 415.81,72.64 C412.02,71.87 401.46,72.46 396.92,73.85 C394.61,74.58 390.63,76.75 389.47,77.88 C387.98,79.37 386.11,82.07 385.48,83.78 C384.56,86.35 384.85,90.83 386.03,92.09 C386.16,92.22 386.32,92.31 386.51,92.36 C386.51,92.36 386.62,92.33 386.62,92.33 C386.62,92.33 387.51,87.17 387.51,87.17" fill="none" stroke="rgb(0, 255, 0)" stroke-width="3.86" stroke-opacity="1.00" stroke-linejoin="round"/>
<path d="M441.60,116.98 C441.60,116.98 441.75,114.97 441.75,114.97 C441.21,114.46 440.08,113.76 439.08,113.52 C437.52,113.17 434.42,113.51 432.61,114.21 C430.84,114.94 427.64,118.87 426.86,121.49 C426.14,124.06 426.97,129.72 428.40,131.86 C429.99,134.13 434.45,136.41 436.76,136.56 C438.99,136.65 441.90,136.04 443.12,135.10 C445.33,133.33 445.41,130.65 445.14,130.21 C442.99,129.93 442.00,130.01 441.50,130.70 C440.48,132.19 440.75,135.21 442.34,136.70 C443.74,137.95 450.55,140.97 453.54,141.90 C456.91,142.94 464.16,144.27 466.78,144.52 C469.40,144.74 475.82,144.39 478.13,143.28 C479.81,142.41 482.61,138.38 483.24,136.06 C483.55,134.78 483.56,132.85 483.20,131.90 C482.40,129.99 476.89,127.04 472.98,126.34 C469.16,125.70 462.42,126.07 460.48,126.80 C459.45,127.20 458.76,127.89 458.52,128.53 C459.11,129.63 463.54,130.47 466.92,129.89 C468.64,129.57 472.70,128.10 474.19,127.23 C475.70,126.31 478.15,124.01 478.89,122.80 C479.79,121.22 480.39,118.35 479.95,116.94 C479.49,115.57 477.87,113.45 476.87,112.75 C474.79,111.38 470.34,109.74 467.34,109.30 C455.72,107.68 437.19,113.07 435.30,114.08 C432.72,115.50 431.44,117.88 431.49,117.96" fill="none" stroke="rgb(0, 255, 0)" stroke-width="3.86" stroke-opacity="1.00" stroke-linejoin="round"/>
<path d="M45.28,129.51 C44.84,129.38 44.53,129.28 44.35,129.22 C44.17,129.16 43.87,129.05 43.44,128.89 C43.58,129.64 43.38,133.26 42.95,136.67 C42.52,140.01 42.31,145.16 42.26,146.58" fill="none" stroke="rgb(255, 0, 255)" stroke-width="3.86" stroke-opacity="1.00" stroke-linejoin="round"/>
<path d="M66.59,122.35 C66.59,122.35 65.43,121.24 65.43,121.24 C64.23,122.39 63.05,126.55 62.09,130.69 C60.34,138.41 58.26,147.47 57.94,148.82" fill="none" stroke="rgb(255, 0, 255)" stroke-width="3.86" stroke-opacity="1.00" stroke-linejoin="round"/>
<path d="M92.57,132.45 C92.57,132.45 92.10,131.82 92.10,131.82 C90.86,132.62 85.30,138.55 84.46,139.50 C82.06,142.22 78.70,147.61 77.94,149.51" fill="none" stroke="rgb(255, 0, 255)" stroke-width="3.86" stroke-opacity="1.00" stroke-linejoin="round"/>
<path d="M92.46,147.35 C92.30,147.31 91.60,147.73 90.92,148.49 C89.24,150.37 85.94,155.67 84.29,158.36 C82.26,161.75 79.57,166.27 78.90,167.40" fill="none" stroke="rgb(255, 0, 255)" stroke-width="3.86" stroke-opacity="1.00" stroke-linejoin="round"/>
<path d="M47.47,195.05 C47.47,195.05 47.33,194.83 47.33,194.83 C46.32,195.54 41.69,210.04 40.19,216.98 C38.73,224.28 36.86,234.65 36.39,237.31" fill="none" stroke="rgb(255, 0, 255)" stroke-width="3.86" stroke-opacity="1.00" stroke-linejoin="round"/>
<path d="M49.15,233.22 C48.78,233.43 48.35,233.97 47.85,235.04 C45.64,239.73 41.43,254.21 40.13,261.97 C39.84,263.85 39.35,266.94 39.16,268.16" fill="none" stroke="rgb(255, 0, 255)" stroke-width="3.86" stroke-opacity="1.00" stroke-linejoin="round"/>
<path d="M49.49,268.21 C48.03,269.32 44.56,273.88 43.03,276.77 C38.37,285.72 33.12,305.58 31.96,312.37 C31.13,317.51 30.67,321.84 30.57,324.98" fill="none" stroke="rgb(255, 0, 255)" stroke-width="3.86" stroke-opacity="1.00" stroke-linejoin="round"/>
<path d="M106.61,180.73 C106.61,180.73 106.60,180.54 106.60,180.54 C106.60,180.54 106.24,180.21 106.24,180.21 C106.24,180.21 105.55,180.15 105.55,180.15 C104.08,180.99 100.59,186.09 99.23,188.81 C96.28,194.83 94.67,200.47 94.36,201.66" fill="none" stroke="rgb(255, 0, 255)" stroke-width="3.86" stroke-opacity="1.00" stroke-linejoin="round"/>
<path d="M137.27,172.99 C137.27,172.99 136.17,172.09 136.17,172.09 C134.72,171.85 131.19,173.49 128.48,175.18 C123.79,178.15 114.09,186.52 109.82,190.95 C104.41,196.76 100.17,201.92 93.62,210.82 C91.32,214.01 89.14,217.65 88.57,218.74" fill="none" stroke="rgb(255, 0, 255)" stroke-width="3.86" stroke-opacity="1.00" stroke-linejoin="round"/>
<path d="M133.06,192.34 C132.44,192.52 132.01,192.68 131.75,192.82 C131.15,193.15 115.74,204.95 109.57,209.70 C103.41,214.57 91.97,223.76 86.70,228.07 C80.87,233.02 71.39,242.05 67.40,246.27 C61.71,252.30 57.49,258.28 57.47,258.88" fill="none" stroke="rgb(255, 0, 255)" stroke-width="3.86" stroke-opacity="1.00" stroke-linejoin="round"/>
<path d="M112.32,227.10 C109.79,227.13 99.04,234.81 93.25,240.41 C88.21,245.31 80.68,254.30 75.13,262.31 C70.28,269.39 67.27,275.08 66.50,276.98" fill="none" stroke="rgb(255, 0, 255)" stroke-width="3.86" stroke-opacity="1.00" stroke-linejoin="round"/>
<path d="M103.43,262.96 C101.44,263.24 97.09,265.98 94.54,268.35 C89.37,273.17 75.61,286.62 72.34,290.15 C67.14,295.79 62.65,301.66 58.36,308.62 C52.55,318.29 45.79,337.87 44.55,343.29 C44.16,344.99 43.91,346.57 43.94,346.50" fill="none" stroke="rgb(255, 0, 255)" stroke-width="3.86" stroke-opacity="1.00" stroke-linejoin="round"/>
<path d="M83.74,303.96 C82.92,303.45 79.74,303.93 76.82,306.80 C76.16,307.46 72.41,312.33 70.73,315.10 C69.99,316.32 65.85,323.76 64.35,327.00 C64.16,327.39 64.03,327.71 63.93,327.97" fill="none" stroke="rgb(255, 0, 255)" stroke-width="3.86" stroke-opacity="1.00" stroke-linejoin="round"/>
<path d="M94.02,283.00 C94.02,283.00 94.43,282.07 94.43,282.07 C93.82,283.91 92.86,287.63 91.89,291.85 C90.25,298.97 85.08,316.15 83.65,319.17" fill="none" stroke="rgb(255, 0, 255)" stroke-width="3.86" stroke-opacity="1.00" stroke-linejoin="round"/>
<path d="M52.73,349.23 C51.58,349.97 47.17,352.45 45.73,353.64 C43.09,355.85 39.86,360.38 38.65,362.76 C37.08,365.97 35.32,373.93 35.09,375.21" fill="none" stroke="rgb(255, 0, 255)" stroke-width="3.86" stroke-opacity="1.00" stroke-linejoin="round"/>
<path d="M49.55,387.87 C47.41,387.57 45.80,387.81 44.08,388.78 C40.26,390.96 35.08,396.31 33.71,398.45 C32.85,399.81 32.45,400.74 32.03,402.24" fill="none" stroke="rgb(255, 0, 255)" stroke-width="3.86" stroke-opacity="1.00" stroke-linejoin="round"/>
<path d="M73.23,362.92 C73.23,362.92 72.82,362.19 72.82,362.19 C72.42,362.12 67.19,364.34 63.47,371.01 C61.64,374.34 60.50,376.96 60.03,378.12" fill="none" stroke="rgb(255, 0, 255)" stroke-width="3.86" stroke-opacity="1.00" stroke-linejoin="round"/>
<path d="M93.50,374.01 C89.27,376.49 76.71,385.40 70.28,389.80 C57.43,398.95 43.53,412.11 38.48,418.09 C36.35,420.63 34.15,423.87 34.04,424.10 C34.04,424.10 34.06,423.98 34.06,423.98 C34.06,423.98 34.33,423.87 34.33,423.87" fill="none" stroke="rgb(255, 0, 255)" stroke-width="3.86" stroke-opacity="1.00" stroke-linejoin="round"/>
<path d="M69.42,417.66 C67.30,419.76 65.13,422.10 63.92,423.77 C62.58,425.65 59.92,430.07 59.00,432.21 C57.14,436.66 56.45,439.33 56.09,441.50" fill="none" stroke="rgb(255, 0, 255)" stroke-width="3.86" stroke-opacity="1.00" stroke-linejoin="round"/>
<path d="M89.51,390.69 C88.12,392.00 85.45,395.63 83.27,399.40 C80.46,404.29 73.40,419.48 71.48,425.11 C71.02,426.48 70.12,429.36 69.80,430.39" fill="none" stroke="rgb(255, 0, 255)" stroke-width="3.86" stroke-opacity="1.00" stroke-linejoin="round"/>
<path d="M122.31,381.63 C122.01,381.02 120.54,380.48 118.08,381.77 C112.94,384.56 98.01,402.00 93.27,408.30 C91.24,411.05 89.03,414.67 88.28,415.98" fill="none" stroke="rgb(255, 0, 255)" stroke-width="3.86" stroke-opacity="1.00" stroke-linejoin="round"/>
<path d="M152.52,327.35 C153.00,326.88 153.30,326.57 153.43,326.42 C153.57,326.27 153.71,326.07 153.86,325.83 C153.46,325.87 152.62,326.31 151.94,327.13 C149.45,330.15 142.98,342.30 139.51,350.40 C135.56,359.96 134.45,363.79 134.24,364.83" fill="none" stroke="rgb(255, 0, 255)" stroke-width="3.86" stroke-opacity="1.00" stroke-linejoin="round"/>
<path d="M152.29,342.25 C151.22,343.46 149.56,345.38 149.19,345.94 C148.10,347.58 143.84,355.02 143.00,356.23 C141.96,357.75 140.30,359.81 139.31,360.91" fill="none" stroke="rgb(255, 0, 255)" stroke-width="3.86" stroke-opacity="1.00" stroke-linejoin="round"/>
<path d="M140.33,275.89 C140.23,275.85 139.47,277.06 138.23,279.34 C137.05,281.50 134.84,286.64 132.38,292.83 C130.87,296.62 129.65,299.10 129.25,299.81" fill="none" stroke="rgb(255, 0, 255)" stroke-width="3.86" stroke-opacity="1.00" stroke-linejoin="round"/>
<path d="M158.87,209.26 C158.87,209.26 160.17,207.87 160.17,207.87 C159.25,208.18 157.20,210.76 154.17,215.30 C152.15,218.39 148.46,224.70 146.73,227.69 C144.58,231.31 143.94,232.25 143.21,233.23" fill="none" stroke="rgb(255, 0, 255)" stroke-width="3.86" stroke-opacity="1.00" stroke-linejoin="round"/>
<path d="M154.83,183.50 C154.83,183.50 153.15,180.19 153.15,180.19 C150.97,183.26 145.57,195.68 142.63,202.96 C141.26,206.52 138.98,212.48 138.06,214.89" fill="none" stroke="rgb(255, 0, 255)" stroke-width="3.86" stroke-opacity="1.00" stroke-linejoin="round"/>
<path d="M133.63,129.33 C131.89,129.42 128.47,133.15 126.82,136.08 C124.48,140.39 123.29,147.22 123.23,150.45" fill="none" stroke="rgb(255, 0, 255)" stroke-width="3.86" stroke-opacity="1.00" stroke-linejoin="round"/>
<path d="M149.22,149.43 C148.36,149.56 145.47,152.41 144.00,154.84 C140.52,160.73 139.91,167.52 139.93,168.11" fill="none" stroke="rgb(255, 0, 255)" stroke-width="3.86" stroke-opacity="1.00" stroke-linejoin="round"/>
<path d="M170.30,134.13 C170.30,134.13 170.30,133.20 170.30,133.20 C168.30,136.32 165.46,143.92 164.45,147.53 C164.00,149.15 163.75,150.37 163.40,152.61" fill="none" stroke="rgb(255, 0, 255)" stroke-width="3.86" stroke-opacity="1.00" stroke-linejoin="round"/>
<path d="M190.46,113.68 C190.40,113.70 189.38,115.34 188.60,116.60 C187.20,118.81 185.49,122.09 183.27,126.69 C180.51,132.53 176.95,140.06 176.34,141.21" fill="none" stroke="rgb(255, 0, 255)" stroke-width="3.86" stroke-opacity="1.00" stroke-linejoin="round"/>
<path d="M222.45,122.92 C222.04,122.68 221.02,122.32 220.41,122.65 C218.82,123.55 213.83,130.53 212.99,131.93 C209.73,137.44 205.67,146.38 204.88,148.25" fill="none" stroke="rgb(255, 0, 255)" stroke-width="3.86" stroke-opacity="1.00" stroke-linejoin="round"/>
<path d="M218.70,155.03 C218.70,155.03 216.18,154.42 216.18,154.42 C214.17,156.31 206.63,170.90 203.53,179.20 C202.65,181.57 200.58,187.61 200.19,188.76" fill="none" stroke="rgb(255, 0, 255)" stroke-width="3.86" stroke-opacity="1.00" stroke-linejoin="round"/>
<path d="M172.67,229.58 C171.75,229.63 169.94,230.39 168.96,231.32 C167.09,233.15 163.73,247.49 162.89,255.06 C162.84,255.57 162.77,256.34 162.68,257.34" fill="none" stroke="rgb(255, 0, 255)" stroke-width="3.86" stroke-opacity="1.00" stroke-linejoin="round"/>
<path d="M223.72,171.84 C223.72,171.84 224.84,171.66 224.84,171.66 C224.28,172.01 222.67,173.12 221.59,173.99 C216.74,177.94 205.46,190.30 200.64,196.46 C198.42,199.35 194.44,204.90 192.61,207.46" fill="none" stroke="rgb(255, 0, 255)" stroke-width="3.86" stroke-opacity="1.00" stroke-linejoin="round"/>
<path d="M238.21,156.42 C237.81,157.09 237.40,157.77 236.99,158.45 C232.49,166.13 228.08,175.90 224.76,185.01 C223.36,189.03 221.01,195.84 220.06,198.62" fill="none" stroke="rgb(255, 0, 255)" stroke-width="3.86" stroke-opacity="1.00" stroke-linejoin="round"/>
<path d="M217.83,209.66 C217.35,209.27 216.43,208.77 215.89,208.87 C214.68,209.13 210.71,213.26 208.12,216.48 C205.66,219.65 195.43,239.12 195.13,239.70 C194.94,240.07 194.52,240.83 193.87,241.98" fill="none" stroke="rgb(255, 0, 255)" stroke-width="3.86" stroke-opacity="1.00" stroke-linejoin="round"/>
<path d="M196.92,268.85 C197.10,268.63 197.22,268.49 197.29,268.41 C197.36,268.32 197.48,268.20 197.64,268.02 C196.00,269.07 194.27,270.54 192.96,272.14 C190.07,275.70 184.07,288.59 181.48,297.20 C178.16,308.33 174.90,326.53 174.69,327.69" fill="none" stroke="rgb(255, 0, 255)" stroke-width="3.86" stroke-opacity="1.00" stroke-linejoin="round"/>
<path d="M122.37,351.31 C120.75,352.40 117.79,354.41 116.71,355.23 C114.01,357.28 108.86,361.97 106.58,364.65 C104.94,366.60 99.35,374.46 99.20,374.68 C99.05,374.92 98.82,375.30 98.53,375.81" fill="none" stroke="rgb(255, 0, 255)" stroke-width="3.86" stroke-opacity="1.00" stroke-linejoin="round"/>
<path d="M116.31,330.06 C116.31,330.06 116.28,328.88 116.28,328.88 C115.27,329.35 109.91,334.41 108.82,335.72 C105.23,340.12 101.11,347.50 100.64,348.37" fill="none" stroke="rgb(255, 0, 255)" stroke-width="3.86" stroke-opacity="1.00" stroke-linejoin="round"/>
<path d="M104.82,317.76 C104.82,317.76 103.41,317.33 103.41,317.33 C102.69,317.45 100.78,322.37 99.65,327.27 C99.34,328.64 98.79,331.63 98.60,332.72" fill="none" stroke="rgb(255, 0, 255)" stroke-width="3.86" stroke-opacity="1.00" stroke-linejoin="round"/>
<path d="M124.74,416.68 C123.66,417.31 121.62,420.11 120.28,422.87 C117.80,428.07 114.48,440.32 114.51,444.23 C114.58,447.65 114.96,449.10 115.43,449.97" fill="none" stroke="rgb(255, 0, 255)" stroke-width="3.86" stroke-opacity="1.00" stroke-linejoin="round"/>
<path d="M153.04,414.66 C151.98,416.29 149.82,420.56 148.51,423.77 C147.24,426.91 145.32,433.71 144.74,436.59 C144.38,438.38 143.92,441.26 143.69,442.93" fill="none" stroke="rgb(255, 0, 255)" stroke-width="3.86" stroke-opacity="1.00" stroke-linejoin="round"/>
<path d="M172.04,360.49 C172.04,360.49 172.00,358.67 172.00,358.67 C171.06,358.71 168.27,363.65 166.63,368.31 C164.57,374.27 160.88,388.77 159.47,396.90 C157.94,405.84 157.28,411.92 157.14,413.67" fill="none" stroke="rgb(255, 0, 255)" stroke-width="3.86" stroke-opacity="1.00" stroke-linejoin="round"/>
<path d="M213.90,287.39 C213.90,287.39 214.02,287.29 214.02,287.29 C212.69,290.32 209.58,297.50 209.30,298.16 C207.39,302.84 203.02,316.81 200.78,324.75 C199.52,329.37 198.59,333.17 198.29,334.49" fill="none" stroke="rgb(255, 0, 255)" stroke-width="3.86" stroke-opacity="1.00" stroke-linejoin="round"/>
<path d="M239.60,232.24 C239.60,232.24 239.58,231.97 239.58,231.97 C239.58,231.97 239.16,231.93 239.16,231.93 C236.94,233.85 227.61,253.05 225.88,257.07 C223.84,261.82 218.77,275.59 216.84,281.37 C214.69,288.09 213.14,294.81 212.91,295.81" fill="none" stroke="rgb(255, 0, 255)" stroke-width="3.86" stroke-opacity="1.00" stroke-linejoin="round"/>
<path d="M258.89,189.56 C258.89,189.56 258.79,188.02 258.79,188.02 C258.64,187.94 255.69,190.10 252.64,195.56 C244.63,210.17 239.89,223.48 239.07,226.18" fill="none" stroke="rgb(255, 0, 255)" stroke-width="3.86" stroke-opacity="1.00" stroke-linejoin="round"/>
<path d="M289.15,128.12 C289.15,128.12 288.79,125.27 288.79,125.27 C287.35,124.95 283.85,127.07 281.05,129.61 C278.83,131.66 274.62,136.20 271.98,139.49 C267.82,144.72 264.64,149.87 263.96,151.05" fill="none" stroke="rgb(255, 0, 255)" stroke-width="3.86" stroke-opacity="1.00" stroke-linejoin="round"/>
<path d="M308.55,122.35 C306.91,123.28 305.87,123.97 304.85,124.85 C302.50,126.90 299.67,130.04 297.39,133.07 C291.76,140.70 289.41,144.26 287.97,147.11 C287.59,147.87 287.42,148.82 287.18,150.46" fill="none" stroke="rgb(255, 0, 255)" stroke-width="3.86" stroke-opacity="1.00" stroke-linejoin="round"/>
<path d="M319.75,150.47 C318.99,149.52 315.21,150.34 311.77,152.06 C306.55,154.71 298.91,160.18 291.44,166.50 C286.32,170.95 275.67,181.99 271.64,186.92 C260.48,200.66 256.66,210.84 256.40,211.86" fill="none" stroke="rgb(255, 0, 255)" stroke-width="3.86" stroke-opacity="1.00" stroke-linejoin="round"/>
<path d="M310.57,175.07 C310.57,175.07 310.27,174.72 310.27,174.72 C309.32,174.42 305.24,177.25 302.63,179.73 C297.74,184.41 291.56,192.38 284.76,202.28 C279.01,210.92 273.63,219.63 268.51,228.58 C267.79,229.90 266.63,232.01 266.19,232.81" fill="none" stroke="rgb(255, 0, 255)" stroke-width="3.86" stroke-opacity="1.00" stroke-linejoin="round"/>
<path d="M332.05,158.03 C332.05,158.03 331.64,156.46 331.64,156.46 C330.04,157.83 326.53,162.34 324.22,165.70 C317.55,175.44 316.46,177.16 315.17,179.27" fill="none" stroke="rgb(255, 0, 255)" stroke-width="3.86" stroke-opacity="1.00" stroke-linejoin="round"/>
<path d="M326.80,179.23 C326.80,179.23 326.62,179.10 326.62,179.10 C325.15,180.43 323.21,182.21 321.41,183.95 C312.75,192.41 307.37,198.23 301.14,205.68 C295.14,213.07 288.00,223.30 283.46,230.44 C281.25,234.06 279.73,236.75 278.71,238.79" fill="none" stroke="rgb(255, 0, 255)" stroke-width="3.86" stroke-opacity="1.00" stroke-linejoin="round"/>
<path d="M350.36,129.74 C350.36,129.74 350.92,127.25 350.92,127.25 C349.13,128.09 344.29,131.33 342.50,132.72 C339.41,135.12 325.74,147.12 323.19,150.53 C322.75,151.11 321.29,153.64 320.76,154.55" fill="none" stroke="rgb(255, 0, 255)" stroke-width="3.86" stroke-opacity="1.00" stroke-linejoin="round"/>
<path d="M260.97,270.06 C260.97,270.06 260.69,269.79 260.69,269.79 C260.22,269.91 257.37,275.37 256.13,278.43 C254.41,282.71 247.94,302.69 245.65,309.87 C245.45,310.47 245.25,311.08 245.05,311.69" fill="none" stroke="rgb(255, 0, 255)" stroke-width="3.86" stroke-opacity="1.00" stroke-linejoin="round"/>
<path d="M233.59,323.30 C233.59,322.96 233.59,322.61 233.59,322.27 C233.59,321.85 233.58,321.44 233.58,321.03 C233.58,321.03 233.29,320.84 233.29,320.84 C231.97,321.99 228.24,328.71 227.02,331.99 C225.07,337.29 221.95,348.77 221.59,350.13" fill="none" stroke="rgb(255, 0, 255)" stroke-width="3.86" stroke-opacity="1.00" stroke-linejoin="round"/>
<path d="M207.90,351.14 C206.46,351.79 205.07,353.82 203.72,357.58 C201.82,362.88 200.58,366.80 200.05,368.21 C199.59,369.41 196.82,376.15 196.31,377.40" fill="none" stroke="rgb(255, 0, 255)" stroke-width="3.86" stroke-opacity="1.00" stroke-linejoin="round"/>
<path d="M186.59,344.38 C186.59,344.38 186.28,343.12 186.28,343.12 C185.01,343.66 183.25,346.78 182.36,349.38 C181.68,351.43 180.59,356.62 179.71,361.58 C179.09,365.26 177.83,375.40 177.73,376.00 C176.85,380.51 176.22,385.29 175.85,388.10" fill="none" stroke="rgb(255, 0, 255)" stroke-width="3.86" stroke-opacity="1.00" stroke-linejoin="round"/>
<path d="M177.58,398.89 C176.43,402.52 175.54,406.14 175.16,409.39 C174.83,412.29 174.38,419.53 174.56,422.93 C174.65,424.49 175.51,432.76 175.95,434.74" fill="none" stroke="rgb(255, 0, 255)" stroke-width="3.86" stroke-opacity="1.00" stroke-linejoin="round"/>
<path d="M264.55,315.91 C264.55,315.91 264.22,314.73 264.22,314.73 C262.75,316.83 256.61,332.65 254.51,341.43 C252.26,350.97 251.73,355.86 251.65,356.69" fill="none" stroke="rgb(255, 0, 255)" stroke-width="3.86" stroke-opacity="1.00" stroke-linejoin="round"/>
<path d="M287.82,334.33 C287.82,334.33 287.47,333.44 287.47,333.44 C287.47,333.44 286.34,333.59 286.34,333.59 C283.74,337.18 282.40,339.96 281.05,343.63 C279.77,347.19 277.82,352.65 277.15,354.56" fill="none" stroke="rgb(255, 0, 255)" stroke-width="3.86" stroke-opacity="1.00" stroke-linejoin="round"/>
<path d="M330.73,235.18 C330.73,235.18 330.96,233.33 330.96,233.33 C330.73,233.07 327.03,235.07 319.95,253.40 C317.63,259.74 312.74,273.54 310.41,280.74 C308.04,288.64 303.91,304.07 303.70,305.30" fill="none" stroke="rgb(255, 0, 255)" stroke-width="3.86" stroke-opacity="1.00" stroke-linejoin="round"/>
<path d="M365.61,182.40 C365.61,182.40 365.95,179.55 365.95,179.55 C360.88,187.52 355.05,197.49 351.18,204.44 C341.81,221.87 336.72,232.18 336.31,233.01" fill="none" stroke="rgb(255, 0, 255)" stroke-width="3.86" stroke-opacity="1.00" stroke-linejoin="round"/>
<path d="M366.42,166.23 C364.80,166.27 362.36,168.20 359.10,171.76 C355.01,176.24 347.02,186.60 343.98,191.82 C342.27,194.77 336.02,207.44 335.19,210.48" fill="none" stroke="rgb(255, 0, 255)" stroke-width="3.86" stroke-opacity="1.00" stroke-linejoin="round"/>
<path d="M420.18,164.67 C420.18,164.67 421.36,162.67 421.36,162.67 C421.36,162.67 420.90,162.22 420.90,162.22 C417.89,163.26 405.45,172.66 402.36,175.28 C393.84,182.51 370.78,205.68 361.90,215.98 C355.55,223.52 352.17,228.52 351.29,229.84" fill="none" stroke="rgb(255, 0, 255)" stroke-width="3.86" stroke-opacity="1.00" stroke-linejoin="round"/>
<path d="M382.58,210.93 C382.30,210.75 379.09,212.53 376.50,214.45 C369.55,219.67 359.42,230.47 354.46,236.71 C353.15,238.37 351.18,241.12 350.28,242.56 C347.32,247.33 342.31,259.68 340.91,263.19" fill="none" stroke="rgb(255, 0, 255)" stroke-width="3.86" stroke-opacity="1.00" stroke-linejoin="round"/>
<path d="M348.28,238.30 C347.41,240.04 346.90,241.17 346.14,243.11 C344.43,247.53 342.81,252.14 341.35,256.62 C339.09,263.99 334.24,280.90 333.95,282.49 C333.89,282.79 332.40,292.79 331.89,296.17" fill="none" stroke="rgb(255, 0, 255)" stroke-width="3.86" stroke-opacity="1.00" stroke-linejoin="round"/>
<path d="M331.48,308.06 C329.77,310.26 328.85,311.74 328.15,313.65 C326.99,316.93 324.56,324.07 323.29,327.93 C322.02,331.98 319.73,339.25 318.72,342.47" fill="none" stroke="rgb(255, 0, 255)" stroke-width="3.86" stroke-opacity="1.00" stroke-linejoin="round"/>
<path d="M302.37,366.56 C300.87,367.81 298.35,371.67 297.34,374.54 C295.87,378.77 294.67,383.89 294.33,387.67 C294.22,388.95 294.11,391.25 294.08,392.10" fill="none" stroke="rgb(255, 0, 255)" stroke-width="3.86" stroke-opacity="1.00" stroke-linejoin="round"/>
<path d="M333.85,356.45 C332.18,357.18 331.41,357.78 330.87,359.07 C328.20,365.44 325.34,376.65 324.76,379.99 C324.51,381.46 324.31,383.56 324.08,386.47" fill="none" stroke="rgb(255, 0, 255)" stroke-width="3.86" stroke-opacity="1.00" stroke-linejoin="round"/>
<path d="M392.11,277.40 C392.11,277.40 392.29,276.09 392.29,276.09 C390.98,276.81 388.07,279.88 386.45,281.80 C383.33,285.52 375.52,296.76 371.73,303.27 C368.29,309.21 361.19,323.77 358.62,329.49 C356.59,334.17 352.37,345.77 351.33,348.65" fill="none" stroke="rgb(255, 0, 255)" stroke-width="3.86" stroke-opacity="1.00" stroke-linejoin="round"/>
<path d="M446.05,177.09 C446.05,177.09 445.79,173.56 445.79,173.56 C445.15,173.08 434.08,183.74 428.26,189.98 C420.79,198.35 402.79,219.88 394.84,229.49 C393.48,231.10 392.83,231.58 392.18,231.69 C392.12,231.57 392.11,231.38 392.15,231.13 C393.06,226.50 399.78,216.38 404.10,210.62" fill="none" stroke="rgb(255, 0, 255)" stroke-width="3.86" stroke-opacity="1.00" stroke-linejoin="round"/>
<path d="M478.39,165.83 C477.61,165.63 475.66,166.92 473.16,169.34 C470.15,172.27 465.67,177.13 463.89,179.88 C462.25,182.45 460.18,186.86 459.57,188.82" fill="none" stroke="rgb(255, 0, 255)" stroke-width="3.86" stroke-opacity="1.00" stroke-linejoin="round"/>
<path d="M471.29,194.88 C468.66,195.60 467.27,196.01 465.64,196.56 C458.35,199.03 447.38,204.44 441.22,207.93 C435.20,211.35 422.55,219.71 416.29,224.40 C409.43,229.55 398.69,239.21 394.25,244.08 C391.10,247.57 387.59,252.79 387.51,253.66" fill="none" stroke="rgb(255, 0, 255)" stroke-width="3.86" stroke-opacity="1.00" stroke-linejoin="round"/>
<path d="M432.88,265.85 C432.88,265.85 431.62,265.34 431.62,265.34 C429.39,268.07 420.49,282.79 417.62,289.85 C414.77,296.91 413.36,303.25 413.41,304.46" fill="none" stroke="rgb(255, 0, 255)" stroke-width="3.86" stroke-opacity="1.00" stroke-linejoin="round"/>
<path d="M478.04,216.13 C478.04,216.13 478.87,211.33 478.87,211.33 C477.74,210.97 474.37,212.51 471.90,214.31 C467.71,217.43 458.89,228.66 456.32,233.08 C455.68,234.19 455.19,235.21 454.61,236.57" fill="none" stroke="rgb(255, 0, 255)" stroke-width="3.86" stroke-opacity="1.00" stroke-linejoin="round"/>
<path d="M471.81,241.42 C469.45,242.86 465.23,246.47 463.18,248.08 C459.05,251.34 445.82,263.93 443.85,266.39 C439.84,271.46 434.47,280.45 433.45,283.63" fill="none" stroke="rgb(255, 0, 255)" stroke-width="3.86" stroke-opacity="1.00" stroke-linejoin="round"/>
<path d="M439.64,295.99 C438.16,295.53 437.23,295.45 436.22,295.99 C431.81,298.38 423.26,305.30 417.90,310.60 C409.09,319.58 398.24,333.55 397.42,334.82 C397.25,335.08 397.08,335.34 396.91,335.60" fill="none" stroke="rgb(255, 0, 255)" stroke-width="3.86" stroke-opacity="1.00" stroke-linejoin="round"/>
<path d="M398.12,341.84 C398.12,341.84 397.78,341.76 397.78,341.76 C395.62,344.10 384.37,360.42 381.70,364.83 C378.68,369.83 371.13,384.20 368.96,390.39 C367.77,393.85 367.67,395.47 367.74,396.78" fill="none" stroke="rgb(255, 0, 255)" stroke-width="3.86" stroke-opacity="1.00" stroke-linejoin="round"/>
<path d="M423.93,350.68 C421.40,350.27 419.93,350.65 415.93,352.27 C413.21,353.40 408.02,356.09 405.04,358.31 C399.85,362.21 391.34,372.04 386.52,378.66 C373.56,397.00 371.13,403.33 370.59,405.07 C370.59,405.07 370.68,405.31 370.68,405.31 C370.91,405.15 371.06,405.02 371.15,404.95 C371.23,404.87 371.36,404.73 371.54,404.53" fill="none" stroke="rgb(255, 0, 255)" stroke-width="3.86" stroke-opacity="1.00" stroke-linejoin="round"/>
<path d="M447.61,345.88 C446.81,345.93 446.28,345.97 446.02,346.01 C444.10,346.31 438.80,349.39 435.62,351.90 C431.17,355.46 419.27,367.25 415.22,371.83 C404.49,383.98 395.97,396.65 394.96,398.44" fill="none" stroke="rgb(255, 0, 255)" stroke-width="3.86" stroke-opacity="1.00" stroke-linejoin="round"/>
<path d="M476.48,291.49 C476.48,291.49 476.80,290.74 476.80,290.74 C475.68,292.92 462.16,312.85 461.18,314.41 C459.47,317.14 457.88,319.91 457.32,321.10" fill="none" stroke="rgb(255, 0, 255)" stroke-width="3.86" stroke-opacity="1.00" stroke-linejoin="round"/>
<path d="M501.26,254.59 C501.26,254.59 500.70,254.04 500.70,254.04 C499.29,254.93 495.23,259.93 493.12,263.27 C491.93,265.16 484.32,278.22 483.85,280.16 C483.52,281.56 483.80,283.15 484.43,284.71" fill="none" stroke="rgb(255, 0, 255)" stroke-width="3.86" stroke-opacity="1.00" stroke-linejoin="round"/>
<path d="M509.51,293.16 C509.51,293.16 509.61,292.43 509.61,292.43 C508.54,292.93 495.15,302.76 491.13,306.60 C477.13,320.04 471.05,329.94 469.52,332.68" fill="none" stroke="rgb(255, 0, 255)" stroke-width="3.86" stroke-opacity="1.00" stroke-linejoin="round"/>
<path d="M491.09,345.02 C490.46,345.41 486.91,348.67 483.88,350.73 C474.25,357.18 466.30,362.97 461.36,366.77 C454.27,372.47 447.56,378.48 441.13,385.47 C435.04,392.28 430.24,398.85 429.01,401.58" fill="none" stroke="rgb(255, 0, 255)" stroke-width="3.86" stroke-opacity="1.00" stroke-linejoin="round"/>
<path d="M493.23,359.80 C493.23,359.80 493.45,359.98 493.45,359.98 C493.14,360.42 478.98,373.21 476.42,375.84 C472.17,380.24 462.30,392.05 459.83,397.03 C459.70,397.29 459.66,397.51 459.69,397.70 C460.09,397.33 461.45,396.40 462.48,395.69 C463.00,395.31 470.56,389.34 471.86,388.31" fill="none" stroke="rgb(255, 0, 255)" stroke-width="3.86" stroke-opacity="1.00" stroke-linejoin="round"/>
<path d="M478.73,382.32 C478.73,382.32 480.91,379.76 480.91,379.76 C474.82,386.75 465.63,398.47 463.13,402.12 C461.33,404.81 458.26,409.37 456.99,411.23 C457.01,411.06 457.02,410.88 457.04,410.70 C457.05,410.59 457.06,410.47 457.07,410.35" fill="none" stroke="rgb(255, 0, 255)" stroke-width="3.86" stroke-opacity="1.00" stroke-linejoin="round"/>
</g>
</svg>
