<?xml version="1.0" encoding="UTF-8" standalone="no"?>
<!DOCTYPE svg PUBLIC "-//W3C//DTD SVG 1.1//EN" "http://www.w3.org/Graphics/SVG/1.1/DTD/svg11.dtd">
<svg width="128.40" height="181.68" viewBox="0.00 0.00 535.00 757.00" xmlns="http://www.w3.org/2000/svg" xmlns:xlink="http://www.w3.org/1999/xlink">
<g stroke-linecap="round" id="208">
<path d="M266.01,225.95 C265.80,225.32 265.63,224.89 265.51,224.76 C265.33,224.57 264.98,224.45 264.63,224.40 C263.92,224.38 263.08,228.39 263.30,232.07 C263.48,234.62 264.34,239.81 265.51,245.94 C266.37,250.34 267.17,252.98 268.74,255.97 C270.38,258.98 273.17,262.39 275.96,264.53 C278.16,266.18 289.60,272.88 292.16,273.54 C294.74,274.18 305.29,273.11 307.19,272.64 C308.92,272.20 314.95,268.99 317.54,267.42 C321.24,265.13 325.14,261.98 327.77,258.84 C329.44,256.82 332.83,252.07 334.14,249.55 C336.61,244.75 339.93,230.74 340.18,225.85 C340.27,224.06 340.27,218.95 340.17,217.87 C340.05,216.68 339.69,215.74 339.47,215.63" fill="none" stroke="rgb(255, 0, 255)" stroke-width="4.00" stroke-opacity="1.00" stroke-linejoin="round"/>
<path d="M261.31,230.85 C261.31,230.85 261.16,228.73 261.16,228.73 C260.21,228.10 258.76,227.53 257.61,227.51 C256.35,227.52 254.33,228.54 254.04,229.52 C253.78,230.57 254.25,233.19 254.81,234.23 C256.04,236.35 258.26,238.16 261.37,240.20 C263.24,241.42 264.12,242.09 264.57,242.62" fill="none" stroke="rgb(255, 0, 255)" stroke-width="4.00" stroke-opacity="1.00" stroke-linejoin="round"/>
<path d="M338.94,224.56 C338.94,224.56 338.62,223.72 338.62,223.72 C339.72,223.21 341.97,222.65 343.30,222.67 C344.02,222.69 345.19,223.64 345.43,224.18 C346.02,225.74 344.05,229.94 341.96,231.91 C340.23,233.48 338.01,234.84 335.36,236.31" fill="none" stroke="rgb(255, 0, 255)" stroke-width="4.00" stroke-opacity="1.00" stroke-linejoin="round"/>
<path d="M288.24,273.55 C288.24,273.55 287.21,273.09 287.21,273.09 C287.29,274.42 287.44,276.53 287.56,277.53 C287.78,279.32 288.40,282.27 288.47,282.58 C288.47,282.58 288.55,282.61 288.55,282.61 C288.55,282.61 288.92,282.45 288.92,282.45" fill="none" stroke="rgb(255, 0, 255)" stroke-width="4.00" stroke-opacity="1.00" stroke-linejoin="round"/>
<path d="M309.07,270.51 C309.07,270.51 309.81,269.02 309.81,269.02 C309.87,269.76 309.69,271.75 309.29,273.51 C309.01,274.74 308.65,276.01 308.21,277.33 C308.05,277.83 307.77,278.55 307.39,279.48" fill="none" stroke="rgb(255, 0, 255)" stroke-width="4.00" stroke-opacity="1.00" stroke-linejoin="round"/>
<path d="M283.85,274.07 C283.86,274.06 283.36,274.62 283.26,274.75 C283.20,274.83 283.17,274.91 283.17,274.99 C283.17,274.99 283.23,275.14 283.23,275.14" fill="none" stroke="rgb(255, 0, 255)" stroke-width="4.00" stroke-opacity="1.00" stroke-linejoin="round"/>
<path d="M285.09,273.40 C284.87,273.43 284.73,273.45 284.68,273.45 C284.60,273.45 284.38,273.40 284.07,273.43 C283.28,274.37 282.72,279.20 284.23,280.62 C284.97,281.28 294.49,285.11 294.90,285.11 C294.90,285.11 294.43,284.50 294.43,284.50" fill="none" stroke="rgb(255, 0, 255)" stroke-width="4.00" stroke-opacity="1.00" stroke-linejoin="round"/>
<path d="M284.16,272.68 C284.13,272.34 284.10,272.10 284.05,271.95 C284.01,271.81 283.89,271.56 283.70,271.20 C283.06,270.94 282.03,270.87 281.24,271.19 C280.29,271.60 278.77,273.32 278.25,274.65 C277.75,276.01 277.67,278.69 278.11,279.96 C278.83,281.89 289.06,292.99 289.33,293.13 C289.83,292.76 293.23,288.67 293.81,288.05 C294.53,287.28 296.19,285.64 296.14,285.67" fill="none" stroke="rgb(255, 0, 255)" stroke-width="4.00" stroke-opacity="1.00" stroke-linejoin="round"/>
<path d="M296.23,285.52 C296.23,285.52 296.04,284.71 296.04,284.71 C296.04,284.71 295.67,284.69 295.67,284.69 C295.62,284.70 295.64,284.76 295.73,284.85 C297.30,286.25 305.49,289.99 306.05,290.30 C306.56,290.58 307.48,291.19 308.81,292.13 C308.81,292.13 309.15,291.90 309.15,291.90 C309.15,291.90 309.33,291.04 309.33,291.04" fill="none" stroke="rgb(255, 0, 255)" stroke-width="4.00" stroke-opacity="1.00" stroke-linejoin="round"/>
<path d="M312.89,272.21 C312.85,272.16 312.82,272.13 312.81,272.11 C312.79,272.09 312.77,272.06 312.74,272.02 C312.74,272.02 312.71,272.26 312.71,272.26 C312.71,272.26 318.25,280.46 318.25,280.46 C318.11,281.62 317.10,282.57 314.15,284.93 C310.89,287.52 306.84,290.17 305.91,289.76 C305.66,289.64 305.36,289.41 305.02,289.07 C304.95,288.99 304.92,288.94 304.95,288.91" fill="none" stroke="rgb(255, 0, 255)" stroke-width="4.00" stroke-opacity="1.00" stroke-linejoin="round"/>
<path d="M311.91,269.53 C311.91,269.53 312.41,269.33 312.41,269.33 C311.96,270.75 307.42,276.49 305.39,278.48 C304.71,279.14 301.22,282.15 300.41,282.76 C298.94,283.83 295.86,285.01 294.36,285.10 C293.97,285.11 293.62,284.98 293.32,284.69" fill="none" stroke="rgb(255, 0, 255)" stroke-width="4.00" stroke-opacity="1.00" stroke-linejoin="round"/>
<path d="M273.23,273.45 C271.59,273.53 270.71,273.71 268.45,274.52 C265.16,275.68 257.33,277.53 256.46,277.78 C253.80,278.58 249.87,281.35 248.68,283.13 C246.39,286.66 241.63,302.02 240.38,306.52 C238.88,312.07 236.83,327.32 235.86,335.07 C234.66,348.52 231.99,376.34 231.83,376.21 C231.83,376.21 228.03,374.58 228.03,374.58 C226.69,375.33 226.40,378.02 227.51,379.57 C227.51,379.57 230.26,380.07 230.26,380.07 C230.26,380.07 229.25,385.40 229.25,385.40 C230.27,385.85 231.63,385.90 232.86,385.34 C233.76,384.93 235.74,383.35 235.95,383.37 C235.95,383.37 238.76,386.11 238.76,386.11 C238.76,386.11 240.06,381.85 240.06,381.85 C240.06,381.85 243.81,385.13 243.81,385.13 C243.81,385.13 244.14,381.88 244.14,381.88 C244.14,381.88 246.98,382.76 246.98,382.76 C247.41,380.49 247.17,378.92 245.96,377.42 C244.88,376.09 243.94,375.34 243.17,375.04 C243.43,372.40 246.04,355.13 247.18,351.61 C247.64,350.16 247.68,349.02 247.26,348.03 C247.16,347.80 246.94,347.40 246.60,346.83" fill="none" stroke="rgb(255, 0, 255)" stroke-width="4.00" stroke-opacity="1.00" stroke-linejoin="round"/>
<path d="M342.29,282.42 C342.21,282.30 342.16,282.21 342.13,282.17 C342.10,282.12 342.06,282.06 341.99,281.97 C342.17,281.94 342.97,282.26 343.62,282.83 C345.11,284.16 349.08,288.92 350.29,290.85 C352.74,294.83 354.87,304.29 356.42,314.37 C357.45,321.76 359.73,338.97 359.78,343.21 C359.88,354.44 359.56,362.27 357.36,371.07 C356.29,375.28 356.27,376.02 356.42,376.20 C360.07,377.31 358.99,380.94 358.43,381.73 C358.43,381.73 354.84,381.13 354.84,381.13 C354.84,381.13 354.91,386.94 354.91,386.94 C354.91,386.94 351.69,384.47 351.69,384.47 C351.34,385.29 349.76,388.43 348.55,388.39 C347.12,388.26 345.86,385.75 346.28,384.32 C346.28,384.32 344.87,388.51 344.87,388.51 C341.92,387.14 340.86,383.81 340.75,382.10 C340.75,382.10 341.60,380.93 341.60,380.93 C341.60,380.93 342.85,381.89 342.85,381.89 C342.85,381.89 341.35,382.68 341.35,382.68 C341.05,382.45 340.41,381.91 340.40,381.25 C340.36,378.07 342.34,372.40 343.36,369.59 C343.67,368.69 343.56,368.19 343.54,368.07 C343.53,368.02 343.54,367.89 343.59,367.68" fill="none" stroke="rgb(255, 0, 255)" stroke-width="4.00" stroke-opacity="1.00" stroke-linejoin="round"/>
<path d="M261.52,321.31 C261.37,321.09 261.24,320.82 261.22,320.56 C261.21,320.44 261.21,320.13 261.21,319.64 C261.21,319.64 261.10,319.59 261.10,319.59 C258.56,323.55 255.40,332.09 252.72,341.40 C249.92,351.77 248.37,360.78 248.50,364.76 C248.52,365.18 248.59,366.06 248.72,367.40 C248.72,367.40 248.77,367.41 248.77,367.41 C248.76,367.46 248.78,367.30 248.79,367.24 C248.93,366.37 249.08,365.51 249.22,364.64" fill="none" stroke="rgb(255, 0, 255)" stroke-width="4.00" stroke-opacity="1.00" stroke-linejoin="round"/>
<path d="M335.58,344.42 C335.50,343.78 335.46,343.37 335.44,343.17 C335.42,342.97 335.41,342.71 335.40,342.39 C335.86,342.64 336.40,343.21 336.58,343.90 C337.64,348.63 340.48,360.04 341.67,366.41 C341.94,367.86 342.27,369.87 342.43,371.07 C342.67,372.89 342.74,373.54 342.72,373.62 C342.71,373.66 342.68,373.57 342.64,373.36 C342.39,371.96 342.03,368.85 341.84,367.02 C341.48,364.24 340.61,361.17 339.81,358.73" fill="none" stroke="rgb(255, 0, 255)" stroke-width="4.00" stroke-opacity="1.00" stroke-linejoin="round"/>
<path d="M262.35,279.74 C262.56,279.12 263.02,277.99 263.19,277.58 C263.26,277.43 263.32,277.28 263.37,277.13 C262.75,289.91 261.52,319.46 260.92,336.24 C260.83,345.28 261.06,358.59 261.70,363.31 C261.89,364.54 262.37,368.77 262.62,369.33 C263.05,370.22 280.22,372.68 288.34,373.44 C295.83,374.04 315.32,374.51 316.33,374.55 C319.66,374.69 324.48,375.88 325.27,376.03 C325.52,376.08 325.83,376.09 326.20,376.06 C326.20,376.06 326.27,375.99 326.27,375.99" fill="none" stroke="rgb(255, 0, 255)" stroke-width="4.00" stroke-opacity="1.00" stroke-linejoin="round"/>
<path d="M340.69,283.56 C340.69,283.56 340.91,282.00 340.91,282.00 C340.81,282.66 340.57,284.17 340.43,285.02 C338.07,299.89 332.33,355.98 330.47,370.28 C330.10,373.09 329.66,376.38 329.70,376.26" fill="none" stroke="rgb(255, 0, 255)" stroke-width="4.00" stroke-opacity="1.00" stroke-linejoin="round"/>
<path d="M259.65,370.18 C259.58,370.05 259.39,369.72 259.27,369.66 C259.02,369.54 258.48,369.49 258.26,369.53 C256.25,372.01 257.58,380.18 257.79,381.49 C258.55,393.25 259.38,406.63 259.72,433.62 C259.94,440.42 260.87,450.03 262.31,460.01 C263.22,465.74 264.48,470.65 265.95,473.98 C267.03,476.37 269.30,480.32 270.56,482.06 C271.70,483.60 274.25,486.15 276.70,488.43 C276.70,488.43 276.72,488.60 276.72,488.60" fill="none" stroke="rgb(255, 0, 255)" stroke-width="4.00" stroke-opacity="1.00" stroke-linejoin="round"/>
<path d="M259.44,469.87 C259.44,469.63 259.44,469.46 259.44,469.36 C259.45,469.27 259.47,469.12 259.51,468.91 C259.82,469.41 260.14,470.73 260.44,472.84 C261.45,480.91 264.10,491.93 267.24,496.65 C267.92,497.66 270.33,500.93 271.50,502.50 C272.36,503.66 274.35,506.34 274.42,506.43 C274.45,506.46 274.54,506.54 274.53,506.50 C274.49,506.42 274.46,506.37 274.44,506.35 C274.43,506.33 274.40,506.29 274.38,506.25" fill="none" stroke="rgb(255, 0, 255)" stroke-width="4.00" stroke-opacity="1.00" stroke-linejoin="round"/>
<path d="M266.66,499.63 C266.66,499.63 266.50,499.57 266.50,499.57 C266.50,499.57 266.26,499.81 266.26,499.81 C265.96,504.42 266.89,511.06 267.71,513.89 C268.19,515.37 269.88,518.05 271.17,519.06 C272.91,520.37 281.22,521.19 282.16,521.28 C285.08,521.46 291.08,522.58 292.03,521.59 C292.24,521.37 292.41,520.83 292.56,519.96" fill="none" stroke="rgb(255, 0, 255)" stroke-width="4.00" stroke-opacity="1.00" stroke-linejoin="round"/>
<path d="M296.22,378.43 C296.22,378.43 297.22,376.56 297.22,376.56 C297.22,376.56 296.40,376.43 296.40,376.43 C296.20,377.13 296.05,378.08 295.99,379.47 C295.88,382.27 295.99,401.82 295.33,406.40 C294.85,409.61 289.97,429.74 289.47,431.61 C288.66,434.57 287.13,439.39 286.51,441.37 C286.51,441.37 286.70,440.99 286.70,440.99" fill="none" stroke="rgb(255, 0, 255)" stroke-width="4.00" stroke-opacity="1.00" stroke-linejoin="round"/>
<path d="M295.28,416.96 C295.28,416.96 295.18,416.96 295.18,416.96 C295.15,417.03 295.12,417.97 295.13,419.23 C295.31,425.03 296.47,443.95 296.54,446.68 C296.66,452.68 294.52,463.65 292.53,470.19 C291.55,473.35 285.05,490.55 283.86,493.11 C284.07,492.41 284.21,491.96 284.29,491.74 C284.36,491.52 284.48,491.25 284.64,490.91" fill="none" stroke="rgb(255, 0, 255)" stroke-width="4.00" stroke-opacity="1.00" stroke-linejoin="round"/>
<path d="M298.54,460.95 C298.55,460.80 298.56,460.69 298.57,460.62 C298.58,460.55 298.60,460.43 298.64,460.25 C298.69,460.57 298.74,462.24 298.69,463.27 C298.60,464.94 297.53,471.58 296.49,475.24 C294.62,481.72 286.37,496.75 284.83,500.01 C285.04,499.75 285.17,499.58 285.24,499.48 C285.30,499.39 285.38,499.24 285.49,499.05" fill="none" stroke="rgb(255, 0, 255)" stroke-width="4.00" stroke-opacity="1.00" stroke-linejoin="round"/>
<path d="M299.11,479.26 C299.11,479.26 299.28,479.39 299.28,479.39 C299.18,480.56 298.91,482.25 298.47,484.14 C297.56,488.00 295.35,494.34 294.47,496.22 C293.66,497.95 289.65,505.60 288.65,508.24 C287.84,510.40 287.20,512.34 287.29,512.24 C287.29,512.24 287.52,512.12 287.52,512.12" fill="none" stroke="rgb(255, 0, 255)" stroke-width="4.00" stroke-opacity="1.00" stroke-linejoin="round"/>
<path d="M290.75,512.11 C290.56,512.97 289.98,514.89 289.37,516.55 C288.87,517.89 285.96,524.80 285.43,526.06 C285.43,526.06 286.00,522.74 286.00,522.74" fill="none" stroke="rgb(255, 0, 255)" stroke-width="4.00" stroke-opacity="1.00" stroke-linejoin="round"/>
<path d="M333.97,377.56 C333.97,377.56 333.89,377.56 333.89,377.56 C333.87,377.56 333.88,377.57 333.91,377.60 C334.44,378.16 334.72,382.88 334.73,388.60 C334.67,396.24 333.50,409.48 332.37,414.94 C331.77,417.73 330.10,422.00 328.62,424.23 C323.77,431.37 322.87,434.59 323.13,435.29 C323.13,435.29 323.64,435.60 323.64,435.60 C323.95,435.49 324.13,435.42 324.20,435.39 C324.27,435.36 324.31,435.33 324.33,435.30" fill="none" stroke="rgb(255, 0, 255)" stroke-width="4.00" stroke-opacity="1.00" stroke-linejoin="round"/>
<path d="M335.98,404.58 C335.98,404.58 336.17,404.81 336.17,404.81 C335.94,407.43 333.26,426.02 332.01,434.61 C330.13,447.43 328.65,453.34 324.88,464.45 C323.58,468.15 319.41,479.85 314.09,490.42 C313.62,491.37 313.15,492.32 312.68,493.28 C312.68,493.28 312.67,493.29 312.68,493.29 C312.68,493.29 312.72,493.11 312.72,493.11" fill="none" stroke="rgb(255, 0, 255)" stroke-width="4.00" stroke-opacity="1.00" stroke-linejoin="round"/>
<path d="M323.50,475.29 C323.29,476.73 321.90,481.64 320.46,487.72 C317.98,497.94 314.89,507.81 313.18,511.93 C312.42,513.76 308.63,522.29 308.64,522.27 C308.64,522.27 308.49,521.80 308.49,521.80" fill="none" stroke="rgb(255, 0, 255)" stroke-width="4.00" stroke-opacity="1.00" stroke-linejoin="round"/>
<path d="M297.40,467.24 C297.40,467.17 297.40,467.10 297.40,467.03 C297.40,467.00 297.40,466.97 297.40,466.95 C297.25,467.80 297.10,468.82 297.01,469.85 C296.88,471.33 294.92,515.27 295.05,516.27 C295.19,516.95 296.77,518.05 298.25,518.44 C299.99,518.87 311.94,519.06 313.19,518.76 C313.65,518.64 314.42,518.34 315.50,517.85" fill="none" stroke="rgb(255, 0, 255)" stroke-width="4.00" stroke-opacity="1.00" stroke-linejoin="round"/>
<path d="M296.96,298.42 C297.09,298.22 297.38,297.89 297.40,297.84 C297.42,297.77 297.43,297.62 297.42,297.38 C297.17,297.35 295.35,298.95 295.74,300.42 C297.39,300.83 298.52,300.76 299.39,300.03 C301.00,298.63 301.10,297.06 300.89,296.14 C299.54,295.78 298.39,296.14 297.63,297.39 C297.15,298.17 296.88,299.35 296.87,300.12" fill="none" stroke="rgb(255, 0, 255)" stroke-width="4.00" stroke-opacity="1.00" stroke-linejoin="round"/>
<path d="M300.47,303.42 C300.47,303.42 299.92,303.40 299.92,303.40 C298.49,306.27 299.03,309.04 299.61,309.55 C301.25,309.04 302.09,308.30 302.04,307.11 C301.97,306.11 300.30,304.28 298.59,303.30 C297.43,302.65 295.23,302.02 293.95,301.78" fill="none" stroke="rgb(255, 0, 255)" stroke-width="4.00" stroke-opacity="1.00" stroke-linejoin="round"/>
<path d="M261.63,292.74 C261.44,293.34 261.37,297.76 261.73,303.15 C261.85,304.87 265.06,342.96 265.64,350.68 C265.82,353.33 266.22,359.96 266.21,361.16 C266.20,361.31 266.19,361.38 266.15,361.36 C266.15,361.36 266.07,360.99 266.07,360.99" fill="none" stroke="rgb(255, 0, 255)" stroke-width="4.00" stroke-opacity="1.00" stroke-linejoin="round"/>
<path d="M263.75,309.51 C263.64,309.24 263.50,309.03 263.50,309.02 C263.49,308.94 263.49,308.69 263.49,308.27" fill="none" stroke="rgb(255, 0, 255)" stroke-width="4.00" stroke-opacity="1.00" stroke-linejoin="round"/>
<path d="M263.39,298.52 C263.39,298.36 263.39,298.21 263.39,298.05 C263.39,297.86 263.39,297.67 263.39,297.48 C263.38,297.56 263.42,298.67 263.47,299.41 C263.65,302.08 265.79,319.03 266.78,326.45 C267.95,334.72 269.55,345.82 269.97,348.66 C269.90,348.06 269.83,347.45 269.75,346.85 C269.69,346.28 269.64,345.86 269.61,345.59 C268.15,328.07 267.76,314.70 267.73,313.51" fill="none" stroke="rgb(255, 0, 255)" stroke-width="4.00" stroke-opacity="1.00" stroke-linejoin="round"/>
<path d="M267.67,289.34 C267.67,289.34 267.74,289.32 267.74,289.32 C267.72,291.33 267.69,295.41 267.69,297.50 C267.73,302.84 269.43,333.10 269.64,335.81 C269.64,335.84 269.27,331.84 269.07,329.67 C268.29,321.75 266.76,306.42 266.03,299.01" fill="none" stroke="rgb(255, 0, 255)" stroke-width="4.00" stroke-opacity="1.00" stroke-linejoin="round"/>
<path d="M264.68,285.01 C264.68,285.01 264.07,280.17 264.07,280.17 C264.07,280.17 263.88,279.99 263.88,279.99 C263.79,284.60 265.80,301.61 266.80,309.41 C268.38,320.33 269.77,327.20 270.20,328.34 C270.20,328.34 268.75,318.53 268.75,318.53" fill="none" stroke="rgb(255, 0, 255)" stroke-width="4.00" stroke-opacity="1.00" stroke-linejoin="round"/>
<path d="M265.86,297.18 C265.86,297.18 265.94,296.31 265.94,296.31 C265.94,296.31 266.22,296.43 266.22,296.43 C267.08,298.64 271.05,313.12 272.62,319.56 C273.50,323.50 274.95,330.15 275.63,332.37 C275.57,330.77 275.52,329.72 275.48,329.23 C275.42,328.53 273.05,311.27 272.65,308.35" fill="none" stroke="rgb(255, 0, 255)" stroke-width="4.00" stroke-opacity="1.00" stroke-linejoin="round"/>
<path d="M271.59,300.58 C271.59,300.58 271.63,300.30 271.63,300.30 C272.33,302.33 274.04,308.00 274.96,311.13 C275.99,314.89 279.00,325.82 279.61,327.25 C279.85,325.99 279.01,319.01 278.54,315.18 C277.84,310.01 277.77,309.23 277.60,306.93 C278.85,308.88 280.80,314.95 281.92,318.44 C282.16,319.20 282.41,319.95 282.65,320.71 C282.20,319.73 279.52,313.28 278.27,310.22 C276.97,307.01 274.20,300.32 272.74,296.84 C270.72,292.25 268.77,288.27 268.55,288.46 C268.55,288.46 274.55,307.84 274.55,307.84 C274.15,306.53 273.03,302.96 272.31,300.69 C268.97,290.18 267.51,284.75 267.04,282.21 C267.40,282.01 269.79,284.21 281.03,303.36 C285.24,310.48 290.71,319.72 291.98,321.84 C291.76,321.19 291.61,320.77 291.53,320.58 C291.45,320.38 291.34,320.15 291.19,319.86" fill="none" stroke="rgb(255, 0, 255)" stroke-width="4.00" stroke-opacity="1.00" stroke-linejoin="round"/>
<path d="M272.77,278.77 C272.77,278.77 270.61,275.65 270.61,275.65 C273.15,281.12 297.52,324.90 300.90,330.11 C301.46,330.98 303.34,333.65 303.91,334.46 C303.33,333.66 301.69,331.40 300.63,329.94 C299.06,327.74 295.56,322.84 293.63,320.13 C291.47,317.05 287.38,311.23 285.45,308.47 C282.20,303.76 280.46,300.97 278.51,297.63 C280.51,299.59 304.38,331.35 314.02,344.29 C315.95,346.88 318.05,349.43 318.92,350.44 C317.00,347.91 313.28,342.91 311.48,340.44 C309.66,337.93 306.20,333.08 304.55,330.76 C298.99,322.68 297.26,319.33 296.64,318.08 C301.15,323.39 310.92,335.75 315.86,341.90 C319.46,346.18 321.23,347.82 323.49,349.72 C323.87,348.96 323.80,348.18 323.02,346.64 C321.86,344.37 317.52,336.60 315.42,332.91 C313.30,329.39 309.19,322.63 307.23,319.77 C306.95,319.36 306.53,318.76 305.97,317.98 C309.12,324.14 314.04,332.63 318.00,339.15 C325.37,351.11 326.26,352.40 327.49,354.04 C326.57,351.56 323.32,345.40 321.42,341.78 C319.72,338.54 316.63,332.60 315.24,329.90 C309.92,319.67 308.21,315.90 308.30,315.52 C308.30,315.52 327.44,345.55 327.44,345.55 C326.90,343.61 319.62,329.82 316.08,323.19 C312.58,316.76 308.67,309.58 308.25,308.83 C308.25,308.83 325.66,340.19 325.66,340.19 C325.04,338.70 316.00,320.79 312.01,312.86 C310.54,309.88 308.15,305.03 307.39,303.16 C309.41,305.70 318.23,321.04 322.11,327.81 C323.95,330.96 325.99,333.89 326.66,334.73 C326.93,333.92 325.29,329.11 324.95,328.24 C324.73,327.69 324.27,326.58 323.56,324.90" fill="none" stroke="rgb(255, 0, 255)" stroke-width="4.00" stroke-opacity="1.00" stroke-linejoin="round"/>
<path d="M313.78,300.48 C312.73,299.21 311.78,297.94 311.39,297.21 C311.30,297.06 311.26,296.93 311.26,296.82 C311.26,296.82 329.91,328.90 329.91,328.90 C329.51,326.25 326.60,319.99 324.89,316.30 C321.80,309.86 314.87,295.51 314.46,294.01 C314.46,294.01 326.22,312.45 326.22,312.45 C326.22,312.45 318.75,287.73 318.75,287.73 C318.75,287.73 324.71,299.62 324.71,299.62 C324.71,299.62 320.60,281.65 320.60,281.65 C320.60,281.65 327.68,296.73 327.68,296.73 C327.68,296.73 323.10,279.00 323.10,279.00 C323.54,278.59 324.12,278.93 325.30,280.46 C328.05,284.00 328.70,284.45 329.37,284.38 C329.37,284.38 329.37,279.13 329.37,279.13 C333.01,287.08 334.79,290.39 335.12,290.91 C335.19,291.02 335.27,291.13 335.37,291.24 C335.37,291.24 335.22,291.03 335.22,291.03" fill="none" stroke="rgb(255, 0, 255)" stroke-width="4.00" stroke-opacity="1.00" stroke-linejoin="round"/>
<path d="M298.92,287.17 C298.47,287.07 298.06,287.15 297.89,287.14 C296.98,287.10 294.71,286.99 294.60,287.23 C293.94,288.78 301.21,296.08 303.85,298.39 C305.30,299.65 305.59,299.92 305.96,300.33 C305.68,300.25 305.49,300.19 305.36,300.14 C305.24,300.10 305.03,300.00 304.72,299.85" fill="none" stroke="rgb(255, 0, 255)" stroke-width="4.00" stroke-opacity="1.00" stroke-linejoin="round"/>
<path d="M288.05,291.25 C288.08,291.10 288.59,292.34 288.94,293.65 C289.86,297.10 289.65,298.32 289.39,299.09 C288.03,299.23 287.17,298.95 286.16,297.88 C283.76,295.31 281.99,292.76 280.97,290.10 C280.26,288.18 277.99,283.88 277.27,283.35 C277.94,287.08 294.23,312.50 294.42,312.81 C294.65,313.18 295.12,313.97 295.83,315.18" fill="none" stroke="rgb(255, 0, 255)" stroke-width="4.00" stroke-opacity="1.00" stroke-linejoin="round"/>
<path d="M295.21,312.76 C295.69,314.02 296.27,315.00 297.64,316.74 C300.56,320.50 304.28,325.52 306.17,328.11 C306.67,328.81 306.97,329.25 307.06,329.42 C307.12,329.56 307.16,329.76 307.17,330.01 C307.22,330.07 307.05,329.96 306.99,329.93 C305.00,328.82 296.90,324.22 292.40,322.24" fill="none" stroke="rgb(255, 0, 255)" stroke-width="4.00" stroke-opacity="1.00" stroke-linejoin="round"/>
<path d="M281.49,319.51 C281.49,319.51 281.00,319.72 281.00,319.72 C281.00,319.72 281.36,319.62 281.36,319.62" fill="none" stroke="rgb(255, 0, 255)" stroke-width="4.00" stroke-opacity="1.00" stroke-linejoin="round"/>
<path d="M269.01,351.33 C270.24,353.08 271.35,354.53 272.98,356.41 C276.55,360.48 283.02,367.54 284.57,369.26 C284.66,369.23 280.76,363.90 278.87,361.31 C276.75,358.39 273.98,354.29 273.30,353.27 C275.06,354.91 279.32,358.82 281.82,361.09 C285.99,364.77 286.96,365.34 288.53,365.93 C288.39,364.11 285.76,360.00 284.13,357.69 C282.48,355.38 279.09,351.06 276.96,349.07 C276.96,349.07 290.91,366.36 290.91,366.36 C290.11,363.97 278.51,347.50 276.12,344.39 C275.93,344.15 275.69,343.85 275.40,343.51 C284.76,356.92 294.85,367.35 298.19,369.84 C297.64,366.51 296.71,363.69 293.82,359.34 C286.29,348.03 283.54,344.25 282.22,342.81 C284.34,346.44 294.77,359.80 296.98,362.36 C302.35,368.57 304.73,370.23 306.52,371.20 C306.04,368.81 303.89,365.33 301.56,361.79 C296.93,355.01 289.10,344.08 288.56,342.86 C288.56,342.86 313.93,369.67 313.93,369.67 C313.93,369.67 290.96,339.39 290.96,339.39 C292.42,340.32 308.02,356.71 309.82,358.43 C311.27,359.79 314.84,362.83 316.15,363.49 C316.50,362.49 314.60,359.34 312.47,356.06 C297.63,333.44 296.29,330.38 295.81,329.18 C297.18,329.61 300.34,333.43 302.30,335.83 C307.47,342.27 318.90,356.48 320.82,358.38 C319.72,356.57 308.44,341.00 304.44,335.28 C300.54,329.45 299.90,328.09 299.40,326.47 C299.40,326.47 324.67,358.08 324.67,358.08 C323.80,353.99 321.17,349.05 319.61,346.09 C316.24,339.66 310.44,328.47 309.19,325.07 C311.39,328.10 319.80,343.04 323.66,349.94 C329.74,360.87 330.34,361.80 331.33,363.18" fill="none" stroke="rgb(255, 0, 255)" stroke-width="4.00" stroke-opacity="1.00" stroke-linejoin="round"/>
<path d="M275.20,521.68 C275.20,521.68 274.74,521.76 274.74,521.76 C274.60,521.78 274.81,525.87 275.98,527.13 C276.73,527.83 281.41,526.34 282.83,524.99 C282.70,524.75 282.21,524.62 281.24,524.57 C281.18,524.57 281.01,524.55 281.07,524.57" fill="none" stroke="rgb(255, 0, 255)" stroke-width="4.00" stroke-opacity="1.00" stroke-linejoin="round"/>
<path d="M271.95,521.58 C271.95,521.58 271.88,521.51 271.88,521.51 C271.82,521.47 271.70,521.49 271.52,521.58 C270.80,521.93 267.34,524.06 267.31,524.07 C266.59,524.45 262.64,526.14 262.08,526.46 C260.23,527.54 258.70,530.57 259.01,531.96 C259.38,533.26 260.92,533.55 264.57,533.08 C266.21,532.87 274.40,532.54 277.52,531.73 C280.32,530.98 285.05,527.73 285.87,526.63 C288.05,523.64 287.89,522.85 287.84,522.51 C287.84,522.51 286.50,522.18 286.50,522.18" fill="none" stroke="rgb(255, 0, 255)" stroke-width="4.00" stroke-opacity="1.00" stroke-linejoin="round"/>
<path d="M256.82,532.23 C256.82,532.23 257.20,532.38 257.20,532.38 C258.14,534.38 260.75,537.95 263.45,539.34 C266.15,540.66 272.87,541.05 275.68,539.88 C278.63,538.59 285.32,533.24 286.18,530.77 C287.26,527.44 286.19,524.10 285.47,523.20 C285.47,523.20 284.66,523.48 284.66,523.48" fill="none" stroke="rgb(255, 0, 255)" stroke-width="4.00" stroke-opacity="1.00" stroke-linejoin="round"/>
<path d="M267.72,528.85 C267.72,528.85 267.15,529.05 267.15,529.05 C267.15,529.05 267.77,531.91 267.77,531.91 C267.77,531.91 269.27,531.23 269.27,531.23" fill="none" stroke="rgb(255, 0, 255)" stroke-width="4.00" stroke-opacity="1.00" stroke-linejoin="round"/>
<path d="M297.89,522.20 C297.86,522.17 297.84,522.14 297.82,522.12 C297.81,522.10 297.78,522.06 297.75,522.00 C297.76,522.32 297.83,524.29 297.81,525.08 C297.77,527.04 297.41,528.43 296.88,529.19 C296.88,529.19 295.22,528.81 295.22,528.81 C295.30,528.84 295.39,528.83 295.48,528.77 C295.57,528.72 295.79,528.54 296.14,528.25" fill="none" stroke="rgb(255, 0, 255)" stroke-width="4.00" stroke-opacity="1.00" stroke-linejoin="round"/>
<path d="M306.35,520.86 C306.35,520.86 306.34,520.03 306.34,520.03 C306.20,521.83 306.17,523.02 306.22,525.50 C306.21,527.24 305.67,528.58 304.64,528.94 C303.29,529.38 298.15,529.09 296.96,529.06 C297.04,529.53 297.27,529.86 298.04,529.98 C301.26,530.45 305.44,528.91 305.77,528.16 C305.12,527.82 304.76,527.71 304.43,527.80 C304.37,527.81 304.31,527.82 304.26,527.83" fill="none" stroke="rgb(255, 0, 255)" stroke-width="4.00" stroke-opacity="1.00" stroke-linejoin="round"/>
<path d="M294.95,530.25 C294.83,530.09 294.71,529.94 294.59,529.79 C294.50,529.67 294.41,529.56 294.32,529.44 C293.04,530.07 290.86,534.21 291.68,536.13 C291.80,536.36 293.02,537.40 293.51,537.48 C296.42,537.88 301.59,536.03 303.33,535.15 C305.28,534.13 312.31,529.45 312.83,527.89 C312.96,527.44 312.39,526.30 312.04,525.97 C310.98,525.12 305.77,526.42 303.97,528.03" fill="none" stroke="rgb(255, 0, 255)" stroke-width="4.00" stroke-opacity="1.00" stroke-linejoin="round"/>
<path d="M296.19,536.85 C296.19,536.85 295.17,536.16 295.17,536.16 C295.17,536.16 295.11,537.06 295.11,537.06 C295.79,538.33 297.41,539.53 299.35,539.97 C301.12,540.34 306.11,538.61 308.50,536.80 C311.14,534.73 317.86,526.24 318.28,524.51 C318.56,523.21 318.09,521.59 317.34,520.95 C316.90,520.61 315.98,520.34 314.95,520.12" fill="none" stroke="rgb(255, 0, 255)" stroke-width="4.00" stroke-opacity="1.00" stroke-linejoin="round"/>
<path d="M269.19,205.77 C269.18,204.52 269.16,203.71 269.11,203.34 C269.07,202.96 268.94,202.50 268.74,201.95 C268.74,201.95 268.12,201.51 268.12,201.51 C266.64,201.49 263.10,203.92 261.63,206.17 C260.24,208.37 259.13,213.49 259.55,215.84 C259.80,217.11 260.65,218.86 261.32,219.46 C262.52,220.47 265.25,219.22 265.95,217.60 C266.34,216.66 266.34,215.63 266.06,214.73 C264.65,214.20 263.75,214.27 262.96,215.17 C261.63,216.74 260.76,220.49 261.46,221.69 C262.25,222.90 265.80,222.54 267.36,221.38 C269.13,220.01 269.41,218.27 269.20,217.62 C267.71,218.25 266.76,219.14 266.67,220.31 C266.64,220.62 266.67,221.26 266.76,222.22 C266.76,222.22 267.92,223.56 267.92,223.56 C269.35,223.89 270.74,223.86 271.78,223.30 C273.62,222.29 275.09,219.34 274.61,218.07 C273.46,218.13 272.83,218.55 272.64,219.58 C272.51,220.38 272.83,221.91 273.30,222.54 C273.84,223.21 275.39,223.84 276.27,223.76 C278.22,223.51 279.88,221.38 279.45,220.17 C278.14,220.44 277.35,221.03 277.31,222.06 C277.30,222.93 277.95,224.57 278.56,225.09 C279.33,225.68 281.01,225.83 281.98,225.37 C283.66,224.52 284.80,221.19 284.26,219.94 C283.12,220.43 282.57,220.99 282.61,221.93 C282.65,223.01 283.08,223.79 283.83,224.37 C285.90,223.37 286.95,222.37 286.92,221.14 C286.91,220.89 286.84,220.38 286.69,219.61 C285.39,219.69 284.59,220.28 284.50,221.54 C284.43,222.70 285.04,224.26 285.82,225.08 C286.83,226.04 290.60,224.77 291.73,222.84 C292.22,221.97 292.30,221.03 292.09,220.46 C291.23,221.05 290.85,221.80 291.11,222.83 C291.33,223.64 292.35,224.99 293.05,225.30 C293.80,225.61 295.45,225.35 296.23,224.84 C297.52,223.97 298.35,221.15 298.34,221.17 C298.68,222.72 299.15,223.91 299.79,224.40 C300.45,224.90 301.83,225.08 302.64,224.77 C303.46,224.43 304.47,223.21 305.91,221.05 C305.91,221.05 307.85,223.74 307.85,223.74 C310.41,224.19 312.65,220.52 312.79,220.41 C313.39,221.80 314.12,222.94 314.85,223.29 C315.63,223.64 317.27,223.53 317.99,223.07 C319.44,222.08 320.56,219.24 320.32,218.92 C320.32,218.92 321.20,223.64 321.20,223.64 C322.81,223.44 323.68,223.02 323.96,222.00 C324.02,221.78 324.17,221.16 324.39,220.13 C324.39,220.13 325.72,223.15 325.72,223.15 C329.43,223.59 330.00,218.89 329.94,218.11 C329.46,218.81 329.29,219.77 329.62,220.89 C329.99,222.15 330.86,223.06 332.08,223.71 C333.42,223.42 334.70,222.40 335.25,220.78 C336.36,217.38 335.00,213.66 334.03,212.26 C334.03,212.26 332.54,212.25 332.54,212.25 C331.66,213.55 331.12,215.28 331.37,216.75 C331.80,219.18 333.67,219.95 334.47,219.49 C339.07,216.41 334.64,211.68 333.34,210.99 C331.89,211.30 330.69,211.97 330.12,213.07 C329.49,214.27 329.47,215.85 329.88,217.30 C329.88,217.30 331.03,218.11 331.03,218.11 C332.30,217.85 333.60,216.86 334.35,215.29 C335.77,212.23 334.83,208.72 333.97,207.35 C333.97,207.35 332.60,206.93 332.60,206.93 C331.49,207.60 330.71,208.74 330.69,210.12 C330.66,211.35 331.40,212.53 332.52,213.47 C333.99,213.42 335.34,212.90 336.15,211.76 C337.05,210.45 337.69,207.63 337.46,205.97 C337.24,204.48 336.28,203.30 335.01,202.50 C333.64,202.78 332.45,203.48 332.04,204.57 C331.52,205.95 331.93,207.54 332.90,208.82 C334.30,209.21 335.70,208.86 336.82,207.70 C337.65,206.81 337.92,203.53 337.18,202.02 C336.39,200.54 333.54,198.38 331.90,198.10 C330.24,197.85 327.63,199.05 327.11,200.20 C326.69,201.21 327.33,203.39 328.05,203.88 C328.97,204.45 330.71,204.17 331.56,203.22 C332.27,202.38 332.50,199.38 332.04,197.96 C331.56,196.55 329.32,193.69 328.02,193.04 C326.36,192.27 323.84,192.44 322.65,193.39 C321.75,194.14 321.13,196.71 321.39,197.78 C321.68,198.84 323.30,200.34 324.22,200.28 C325.34,200.16 326.93,198.58 327.18,197.40 C327.41,196.09 326.97,193.50 326.21,192.45 C325.45,191.48 323.26,190.81 322.24,191.26 C320.99,191.89 319.56,194.15 319.27,195.93 C319.04,197.49 319.48,199.21 320.26,200.72 C320.26,200.72 321.72,201.11 321.72,201.11 C322.66,200.43 323.45,198.89 323.33,197.22 C323.18,195.58 321.54,192.22 320.40,191.33 C319.34,190.55 317.15,190.10 316.39,190.36 C314.89,190.99 313.20,193.52 313.11,195.18 C313.06,196.82 314.38,199.31 315.42,199.62 C316.46,199.88 318.42,198.28 318.76,196.77 C319.08,195.18 318.09,191.68 316.95,190.35 C315.80,189.06 313.02,188.20 311.67,188.78 C310.71,189.23 308.91,192.28 309.13,194.54 C309.29,196.10 310.33,197.41 311.58,198.09 C312.79,197.97 314.11,197.18 314.52,195.92 C314.90,194.73 314.48,191.71 313.76,190.46 C312.82,188.91 310.84,187.75 309.19,187.62 C308.07,187.58 305.81,189.65 305.37,190.96 C304.99,192.17 305.24,195.21 305.84,196.12 C306.58,197.18 308.08,197.56 308.90,196.90 C309.63,196.24 309.89,192.17 308.18,189.78 C307.31,188.62 304.80,187.15 303.61,187.15 C302.44,187.21 300.32,188.80 299.80,189.94 C298.61,192.87 300.47,195.19 301.76,195.98 C301.76,195.98 303.47,195.51 303.47,195.51 C304.19,194.24 304.34,192.52 303.57,191.11 C302.48,189.16 299.40,188.31 298.28,188.86 C297.08,189.50 295.83,192.25 295.92,193.88 C296.03,195.49 297.18,197.29 298.08,197.61 C298.86,197.49 300.43,195.69 299.87,192.56 C299.53,190.79 297.82,188.27 296.37,187.08 C295.30,186.27 292.53,186.79 291.68,187.93 C290.87,189.09 290.05,193.08 290.33,194.92 C290.70,197.10 292.11,199.57 293.22,200.12 C294.11,200.52 295.80,199.20 296.07,198.09 C296.34,196.64 294.72,191.34 292.20,189.52 C291.08,188.73 288.44,187.92 287.75,188.01 C286.25,188.30 283.96,190.30 283.34,191.95 C282.66,193.88 282.63,196.90 283.19,198.47 C283.63,199.66 285.11,200.46 285.88,200.12 C286.23,199.91 287.05,198.22 287.11,197.24 C287.14,196.02 286.02,193.02 285.14,191.98 C284.02,190.73 281.82,189.99 280.63,190.50 C279.66,190.98 278.36,193.40 278.21,194.91 C278.10,196.39 279.02,199.56 279.72,200.23 C280.31,200.78 281.43,200.62 281.69,200.30 C282.09,199.05 282.05,197.19 281.34,195.72 C280.05,193.11 277.41,191.99 276.31,192.33 C275.71,192.57 274.62,194.32 274.40,195.64 C273.87,199.14 275.86,201.45 276.89,201.88 C278.09,199.89 278.35,198.20 277.40,196.48 C275.85,193.73 272.96,192.27 271.86,192.57 C270.71,192.96 268.96,195.57 268.36,198.14 C267.65,201.53 268.75,206.37 269.93,206.81 C271.45,205.78 272.22,204.44 272.07,202.52 C271.94,201.07 270.83,198.29 269.97,197.32 C269.07,196.35 266.92,195.67 266.07,196.10 C265.10,196.65 264.27,198.79 264.41,200.33 C264.57,201.66 265.97,204.16 266.96,204.84 C268.03,205.56 269.68,205.43 270.95,204.84 C271.77,203.80 272.11,202.23 271.55,200.81 C271.11,199.76 268.96,198.16 267.78,198.09 C266.61,198.06 264.36,199.01 263.68,199.69 C262.35,201.14 261.38,204.33 261.54,205.80 C261.75,207.25 263.51,209.28 264.86,209.41 C266.13,209.48 268.33,208.08 268.67,206.94 C268.97,205.80 267.88,203.59 266.76,203.00 C265.57,202.43 263.11,202.92 262.39,203.76 C261.75,204.56 261.52,207.20 262.09,208.35 C262.76,209.60 265.46,211.74 267.83,211.67 C269.11,211.62 270.64,210.57 271.45,209.56 C271.45,209.56 271.59,208.07 271.59,208.07 C269.82,207.90 268.60,208.43 268.27,209.89 C268.01,211.09 268.55,213.35 269.31,214.12 C270.25,214.99 272.35,215.16 273.58,214.47 C275.99,213.00 276.03,210.05 275.50,208.83 C273.20,209.12 271.96,209.99 271.84,211.81 C271.77,213.20 272.78,215.72 273.76,216.35 C274.71,216.92 277.05,217.01 277.88,216.67 C279.53,215.90 281.23,213.60 281.37,212.33 C281.47,211.11 280.32,209.29 279.27,209.41 C278.24,209.57 276.49,211.77 276.36,213.24 C276.26,214.79 277.80,217.56 279.15,218.07 C280.52,218.52 283.69,217.43 284.90,216.19 C286.14,214.85 286.93,211.25 286.38,209.22 C285.76,207.16 282.91,204.12 281.57,203.79 C279.63,203.41 276.59,205.48 275.86,207.58 C275.31,209.34 275.71,213.86 276.70,215.43 C277.94,217.32 280.63,218.53 282.37,218.07 C283.77,217.65 285.82,214.66 285.99,212.97 C286.11,211.28 284.82,207.16 283.68,205.86 C282.25,204.29 279.70,203.56 278.23,204.38 C277.06,205.11 275.98,208.86 276.20,210.73 C276.45,212.64 278.56,216.45 280.05,217.20 C281.92,218.08 285.14,217.47 286.85,215.92 C288.25,214.58 289.47,210.04 289.17,207.89 C288.83,205.80 286.27,201.64 284.58,200.76 C282.42,199.70 278.97,200.22 277.30,201.84 C276.01,203.16 275.17,207.59 275.64,209.48 C276.16,211.37 278.86,214.49 280.54,214.97 C282.57,215.47 285.88,214.16 286.76,212.49 C287.59,210.76 287.10,206.20 285.97,204.13 C284.86,202.16 282.26,200.16 280.91,200.37 C280.22,200.50 279.16,201.61 278.85,202.50 C278.26,204.43 279.22,209.70 280.36,211.91 C281.63,214.24 285.53,217.61 287.87,217.97 C289.89,218.23 293.42,216.45 294.30,215.03 C295.30,213.32 295.48,210.41 294.80,208.92 C294.24,207.79 292.13,207.23 291.30,207.78 C290.46,208.37 289.62,211.03 289.95,212.42 C290.39,214.14 292.03,216.15 293.46,216.68 C294.61,217.06 297.23,215.73 297.77,214.31 C298.18,213.09 297.59,210.33 296.91,209.62 C296.21,208.95 294.11,209.11 293.44,210.00 C292.63,211.17 292.51,213.73 293.25,215.34 C293.90,216.69 296.52,218.03 297.83,217.83 C299.13,217.59 301.55,215.47 302.03,214.03 C302.56,212.32 302.21,209.89 301.38,209.16 C300.69,208.61 298.68,209.49 298.11,210.48 C297.53,211.52 297.39,214.68 298.00,215.80 C298.81,217.19 300.89,217.90 302.39,217.34 C303.62,216.84 305.67,213.85 305.87,211.82 C306.05,209.48 304.20,205.00 302.68,203.36 C301.09,201.72 296.82,200.06 294.81,200.72 C292.90,201.42 290.96,205.10 291.26,207.19 C291.63,209.30 294.51,212.36 296.48,212.73 C298.45,213.03 301.70,211.11 302.41,209.58 C303.02,208.15 302.62,204.26 301.60,202.69 C300.35,200.85 297.74,199.15 296.13,199.17 C294.82,199.23 293.25,201.73 293.29,203.28 C293.37,204.79 295.14,208.44 296.51,209.51 C298.27,210.83 301.26,211.31 302.97,210.58 C304.30,209.97 305.92,207.15 305.90,205.83 C305.85,204.51 304.11,201.78 302.72,201.04 C301.02,200.19 298.24,200.07 296.95,200.81 C295.96,201.41 295.63,203.88 296.17,204.60 C298.29,207.21 301.12,207.23 302.92,206.74 C303.91,205.25 304.32,203.65 303.80,202.08 C303.19,200.31 301.34,198.30 299.80,197.59 C296.49,196.21 292.53,200.71 290.98,202.96 C290.66,198.39 289.60,196.50 288.43,195.24 C287.28,194.89 285.59,196.14 285.17,197.78 C284.76,199.56 285.60,203.46 286.89,205.05 C287.30,205.51 288.75,206.60 289.49,206.76 C291.56,207.14 294.23,206.54 295.83,205.22 C298.10,203.27 298.64,200.48 298.44,199.95 C297.88,200.78 299.47,205.68 301.89,207.41 C303.38,208.42 306.19,208.81 307.69,208.23 C308.96,207.72 310.01,206.35 310.68,204.81 C310.68,204.81 310.35,203.38 310.35,203.38 C308.33,204.38 307.19,205.80 306.96,208.04 C306.80,209.83 307.48,213.22 308.29,214.40 C309.10,215.50 311.45,216.39 312.53,216.10 C313.77,215.72 314.79,214.31 314.86,213.14 C314.86,212.33 312.86,211.02 311.40,211.07 C309.76,211.17 306.77,212.92 306.00,214.06 C305.26,215.21 305.43,217.89 306.58,218.83 C307.75,219.75 311.30,219.95 313.15,219.23 C314.93,218.51 317.35,216.06 317.73,214.60 C318.06,213.21 317.03,211.38 316.03,211.32 C315.03,211.30 313.34,212.93 313.16,214.24 C313.02,215.64 314.72,218.43 316.18,219.03 C317.52,219.50 321.42,218.39 322.40,216.11 C322.84,215.06 322.72,213.63 322.31,212.46 C320.96,212.91 320.31,213.75 320.72,214.99 C321.08,216.01 322.49,217.35 323.39,217.42 C324.53,217.46 326.43,216.13 327.23,214.69 C327.88,213.44 328.34,210.19 328.06,208.84 C327.74,207.40 326.63,206.40 325.53,206.13 C324.30,206.70 323.38,207.79 323.20,209.23 C323.04,210.46 323.60,211.79 324.50,212.90 C324.50,212.90 326.08,212.99 326.08,212.99 C327.10,212.28 328.05,210.67 327.99,209.08 C327.90,207.53 326.26,204.18 325.20,203.42 C324.25,202.77 322.26,202.57 321.67,202.90 C320.55,203.66 319.97,206.23 320.54,207.75 C321.16,209.26 323.52,210.88 324.85,210.72 C326.18,210.51 327.81,208.28 327.69,206.63 C327.50,204.84 324.96,201.12 322.87,199.74 C320.63,198.32 315.58,197.48 313.19,198.18 C311.32,198.79 309.05,201.84 308.91,203.43 C308.82,204.95 310.33,208.08 311.61,208.82 C313.15,209.66 315.57,209.49 316.68,208.46 C317.55,207.60 317.85,204.45 317.31,202.99 C316.76,201.57 314.33,198.91 313.04,198.48 C311.44,197.99 309.32,198.73 308.60,200.01 C308.06,201.05 308.53,203.95 309.26,204.97 C309.99,205.95 312.30,207.02 313.27,206.73 C314.41,206.33 315.36,204.67 315.26,203.35 C315.14,202.28 313.62,200.53 312.79,200.35 C311.94,200.19 310.38,201.45 310.30,202.64 C310.23,204.14 311.37,206.72 312.68,208.01 C313.73,209.00 316.60,209.80 317.62,209.31 C318.68,208.76 319.02,206.20 318.46,205.29 C317.54,203.93 315.17,202.07 313.26,201.44 C310.82,200.66 302.77,200.50 301.57,199.30 C301.05,198.76 297.39,192.92 296.31,192.93 C295.31,193.37 294.43,195.93 294.46,198.23 C294.53,200.84 296.07,205.74 297.34,207.87 C298.42,209.62 302.65,213.91 305.54,214.63 C307.80,215.16 308.65,214.07 308.82,213.64 C308.34,212.53 305.19,210.45 302.94,209.99 C300.93,209.62 295.21,210.22 292.68,212.04 C291.10,213.21 289.63,216.14 289.59,217.82 C289.59,219.08 290.22,220.15 290.98,220.73 C291.06,219.37 290.31,218.11 288.46,216.77 C286.84,215.63 282.05,213.37 279.48,212.62 C278.10,212.25 275.53,212.01 274.23,212.22 C273.02,212.44 271.45,214.07 271.25,215.14 C270.92,217.48 272.85,219.51 274.12,220.37 C274.12,220.37 275.53,220.24 275.53,220.24 C275.26,217.58 274.52,215.84 272.70,214.42 C270.80,212.95 268.37,211.95 266.73,211.88 C265.57,211.87 264.18,213.81 264.42,214.90 C264.79,216.33 266.11,218.30 267.33,218.99 C269.55,220.18 271.95,219.00 273.23,218.07 C274.11,219.39 275.03,220.49 275.95,221.05 C277.30,221.85 279.94,222.50 281.67,222.44 C283.02,222.35 285.88,221.44 286.97,220.72 C287.89,220.10 290.00,218.49 290.46,218.84 C291.52,219.71 295.91,222.49 298.59,222.39 C300.93,222.26 306.31,219.02 307.03,218.88 C308.20,218.69 313.55,221.52 315.11,221.92 C317.92,222.60 321.82,221.33 325.10,219.39 C326.00,218.88 327.46,218.45 328.23,218.75 C329.29,219.17 332.46,220.49 333.51,220.14 C334.62,219.74 336.48,217.91 336.91,216.82 C337.63,214.85 336.29,213.32 335.58,212.90 C335.58,212.90 334.07,213.11 334.07,213.11" fill="none" stroke="rgb(255, 0, 255)" stroke-width="4.00" stroke-opacity="1.00" stroke-linejoin="round"/>
<path d="M320.56,232.75 C320.56,232.75 320.29,232.79 320.29,232.79 C320.29,232.79 320.34,232.73 320.34,232.73 C319.66,233.03 318.83,233.21 317.29,233.33 C315.74,233.45 313.16,233.61 312.79,233.66 C311.69,233.84 310.29,234.71 309.79,235.50 C309.43,236.13 309.14,238.01 309.34,238.71 C309.64,239.61 311.11,240.78 312.40,241.05 C315.24,241.61 321.68,240.90 325.74,239.99 C328.86,239.26 331.49,238.14 332.24,236.77 C332.23,235.84 331.92,234.88 331.26,234.36 C327.57,231.57 319.31,233.27 317.98,233.75 C318.11,234.11 318.21,234.32 318.26,234.38 C318.31,234.44 318.40,234.45 318.52,234.40" fill="none" stroke="rgb(255, 0, 255)" stroke-width="4.00" stroke-opacity="1.00" stroke-linejoin="round"/>
<path d="M323.45,234.09 C323.17,234.38 322.93,234.71 322.74,235.10 C321.77,237.07 321.20,239.64 321.16,241.84 C321.16,241.84 321.12,235.00 321.12,235.00 C321.12,235.00 320.50,239.72 320.50,239.72 C320.50,239.72 320.70,236.75 320.70,236.75 C320.70,236.75 320.13,238.75 320.13,238.75 C320.13,238.75 320.69,236.17 320.69,236.17 C320.69,236.17 319.67,237.17 319.67,237.17 C319.67,237.17 320.41,235.90 320.41,235.90" fill="none" stroke="rgb(255, 0, 255)" stroke-width="4.00" stroke-opacity="1.00" stroke-linejoin="round"/>
<path d="M284.92,235.01 C284.79,234.87 284.71,234.79 284.67,234.76 C284.36,234.57 281.81,234.23 280.28,234.23 C279.46,234.24 271.76,235.11 271.06,235.48 C270.91,236.14 271.20,237.26 272.00,238.11 C272.98,239.11 275.64,240.41 277.15,240.54 C283.69,241.02 287.79,237.65 288.48,236.73 C286.84,234.42 285.73,233.38 284.34,233.13 C278.28,232.06 275.80,233.27 275.65,233.65 C275.69,233.92 275.71,234.08 275.73,234.12 C275.74,234.17 275.77,234.18 275.80,234.14" fill="none" stroke="rgb(255, 0, 255)" stroke-width="4.00" stroke-opacity="1.00" stroke-linejoin="round"/>
<path d="M277.81,233.98 C277.81,233.98 277.97,233.78 277.97,233.78 C277.97,233.78 278.10,242.52 278.10,242.52 C278.10,242.52 278.16,235.38 278.16,235.38 C278.16,235.38 278.56,241.66 278.56,241.66" fill="none" stroke="rgb(255, 0, 255)" stroke-width="4.00" stroke-opacity="1.00" stroke-linejoin="round"/>
<path d="M299.21,238.26 C299.21,238.26 299.21,238.10 299.21,238.10 C299.21,238.26 298.59,239.31 297.64,240.71 C295.42,244.01 293.29,247.93 293.87,248.78 C294.97,249.52 297.58,248.96 299.51,248.36 C299.98,248.21 300.63,247.98 301.47,247.66" fill="none" stroke="rgb(255, 0, 255)" stroke-width="4.00" stroke-opacity="1.00" stroke-linejoin="round"/>
<path d="M304.88,244.09 C304.88,244.09 304.26,242.91 304.26,242.91 C304.26,242.91 304.42,242.70 304.42,242.70 C305.19,242.89 306.60,243.53 306.94,244.12 C307.81,245.69 306.00,248.41 304.86,249.87" fill="none" stroke="rgb(255, 0, 255)" stroke-width="4.00" stroke-opacity="1.00" stroke-linejoin="round"/>
<path d="M291.01,260.90 C291.01,260.90 291.25,260.25 291.25,260.25 C291.39,260.17 291.52,260.14 291.65,260.17 C294.23,260.56 298.65,259.97 301.58,258.92 C305.77,257.36 312.40,253.08 313.34,252.59 C314.13,254.24 313.67,258.66 312.54,260.56 C311.70,261.91 308.84,264.95 307.48,265.89 C306.11,266.78 303.02,267.57 300.96,267.63 C298.77,267.63 295.90,266.67 294.74,265.44 C293.05,263.58 292.30,260.00 292.28,259.54 C292.28,259.54 294.27,259.15 294.27,259.15" fill="none" stroke="rgb(255, 0, 255)" stroke-width="4.00" stroke-opacity="1.00" stroke-linejoin="round"/>
<path d="M299.88,259.41 C299.88,259.41 300.37,258.54 300.37,258.54 C300.37,258.54 300.80,258.35 300.80,258.35 C300.80,258.35 301.85,264.08 301.85,264.08 C301.85,264.08 303.27,264.07 303.27,264.07" fill="none" stroke="rgb(255, 0, 255)" stroke-width="4.00" stroke-opacity="1.00" stroke-linejoin="round"/>
<path d="M305.14,259.77 C305.44,259.26 305.64,258.91 305.75,258.74 C305.91,258.49 306.35,257.88 306.40,257.77 C306.10,260.03 306.02,262.05 306.26,263.40 C306.33,263.76 306.48,264.37 306.73,265.25 C306.88,264.30 306.91,263.83 306.84,263.41 C306.82,263.31 306.81,263.17 306.79,262.98" fill="none" stroke="rgb(255, 0, 255)" stroke-width="4.00" stroke-opacity="1.00" stroke-linejoin="round"/>
<path d="M308.80,257.09 C308.80,257.09 309.06,256.82 309.06,256.82 C309.06,256.82 309.32,256.84 309.32,256.84 C309.48,257.72 310.18,261.46 310.37,262.43 C310.46,262.85 310.52,263.10 310.57,263.20" fill="none" stroke="rgb(255, 0, 255)" stroke-width="4.00" stroke-opacity="1.00" stroke-linejoin="round"/>
<path d="M130.55,174.84 C130.33,174.48 130.18,174.22 130.09,174.06 C129.92,173.76 129.77,173.44 129.58,173.14 C129.49,172.99 129.32,172.74 129.06,172.37 C128.46,175.72 127.20,182.95 126.99,185.07 C126.36,191.93 128.11,203.10 128.90,205.77" fill="none" stroke="rgb(0, 0, 255)" stroke-width="4.00" stroke-opacity="1.00" stroke-linejoin="round"/>
<path d="M169.91,140.94 C170.26,140.59 170.51,140.36 170.65,140.24 C170.98,139.94 171.27,139.70 171.54,139.52 C171.68,139.42 171.93,139.28 172.28,139.08 C173.91,139.92 176.38,143.26 178.15,146.04 C183.17,154.04 186.67,160.47 189.98,168.14 C192.81,174.88 195.86,185.10 198.50,195.04 C199.34,198.25 200.08,201.82 200.26,202.85" fill="none" stroke="rgb(0, 0, 255)" stroke-width="4.00" stroke-opacity="1.00" stroke-linejoin="round"/>
<path d="M199.64,219.44 C198.82,220.69 198.50,221.68 198.62,223.24 C199.07,228.79 202.06,242.62 204.84,250.57 C210.03,264.27 216.80,282.15 217.98,285.52" fill="none" stroke="rgb(0, 0, 255)" stroke-width="4.00" stroke-opacity="1.00" stroke-linejoin="round"/>
<path d="M177.78,253.74 C175.71,254.66 174.65,255.60 174.32,257.02 C173.49,260.61 174.04,271.66 175.17,279.24 C176.62,288.08 181.32,310.67 182.05,314.01 C182.32,315.25 182.88,318.40 183.07,319.81 C183.46,322.79 183.31,327.33 183.26,328.45" fill="none" stroke="rgb(0, 0, 255)" stroke-width="4.00" stroke-opacity="1.00" stroke-linejoin="round"/>
<path d="M156.99,302.38 C156.99,302.38 157.03,302.20 157.03,302.20 C157.48,303.67 159.36,308.76 160.40,311.52 C163.04,318.56 165.66,328.39 167.77,337.71 C169.97,348.12 170.52,353.37 170.22,357.41 C169.89,361.34 168.44,367.34 165.31,372.89" fill="none" stroke="rgb(0, 0, 255)" stroke-width="4.00" stroke-opacity="1.00" stroke-linejoin="round"/>
<path d="M125.37,356.73 C125.37,356.73 125.75,356.38 125.75,356.38 C128.24,361.06 133.42,374.01 135.26,381.64 C136.19,385.54 140.04,406.90 140.02,408.45 C140.00,409.59 139.99,410.73 139.97,411.86 C139.78,419.86 139.56,429.20 139.53,430.55" fill="none" stroke="rgb(0, 0, 255)" stroke-width="4.00" stroke-opacity="1.00" stroke-linejoin="round"/>
<path d="M140.11,426.02 C139.34,425.99 137.70,426.19 136.97,426.64 C135.19,427.80 132.72,432.97 132.11,435.94 C130.58,443.59 130.60,451.15 131.62,462.87 C132.37,470.70 134.26,479.33 135.75,482.78" fill="none" stroke="rgb(0, 0, 255)" stroke-width="4.00" stroke-opacity="1.00" stroke-linejoin="round"/>
<path d="M205.89,389.15 C204.99,388.96 203.21,388.90 202.35,389.42 C200.41,390.60 197.07,396.25 196.05,398.81 C194.05,403.91 192.12,414.53 190.62,424.61 C190.12,428.10 190.02,433.46 190.03,434.84" fill="none" stroke="rgb(0, 0, 255)" stroke-width="4.00" stroke-opacity="1.00" stroke-linejoin="round"/>
<path d="M199.17,509.09 C198.35,509.68 197.71,512.55 197.70,516.70 C197.70,517.83 198.21,527.51 198.77,532.13 C199.31,536.54 201.53,549.25 201.74,550.44" fill="none" stroke="rgb(0, 0, 255)" stroke-width="4.00" stroke-opacity="1.00" stroke-linejoin="round"/>
<path d="M231.12,430.05 C231.75,431.64 232.13,432.68 232.28,433.16 C232.42,433.64 233.79,442.69 234.28,446.04 C234.84,449.55 235.88,456.47 235.98,459.18 C236.03,460.83 235.84,464.31 235.59,466.60 C235.40,468.26 234.27,475.42 234.07,476.71" fill="none" stroke="rgb(0, 0, 255)" stroke-width="4.00" stroke-opacity="1.00" stroke-linejoin="round"/>
<path d="M229.84,572.52 C229.86,571.97 230.18,569.94 230.17,569.78 C230.15,569.52 230.01,569.15 229.74,568.68 C228.88,568.17 227.53,568.19 226.05,568.88 C224.48,569.64 220.06,574.42 217.85,578.22 C215.45,582.40 211.64,595.58 210.42,603.88 C207.85,621.63 208.42,635.86 209.14,640.13" fill="none" stroke="rgb(0, 0, 255)" stroke-width="4.00" stroke-opacity="1.00" stroke-linejoin="round"/>
<path d="M339.56,597.88 C337.90,599.31 336.99,600.29 335.92,601.94 C331.28,609.05 325.90,621.07 324.39,626.15 C321.31,636.63 318.95,654.64 319.00,659.36" fill="none" stroke="rgb(0, 0, 255)" stroke-width="4.00" stroke-opacity="1.00" stroke-linejoin="round"/>
<path d="M374.67,560.95 C373.30,560.94 371.05,563.76 369.79,566.91 C367.59,572.56 364.79,583.82 363.69,591.41 C363.14,595.25 361.76,612.54 361.38,620.74 C361.10,629.57 361.78,634.08 362.29,636.68" fill="none" stroke="rgb(0, 0, 255)" stroke-width="4.00" stroke-opacity="1.00" stroke-linejoin="round"/>
<path d="M374.47,471.69 C374.47,471.69 374.48,471.31 374.48,471.31 C374.09,472.70 372.01,489.79 371.04,497.86 C370.13,505.39 368.40,519.39 367.57,525.87 C366.99,530.64 366.69,535.14 366.78,537.83" fill="none" stroke="rgb(0, 0, 255)" stroke-width="4.00" stroke-opacity="1.00" stroke-linejoin="round"/>
<path d="M429.83,489.52 C428.44,494.20 425.85,506.34 424.20,516.62 C423.23,523.59 421.27,538.19 420.29,545.82 C419.28,554.32 417.58,568.84 416.89,574.84" fill="none" stroke="rgb(0, 0, 255)" stroke-width="4.00" stroke-opacity="1.00" stroke-linejoin="round"/>
<path d="M428.62,386.87 C428.62,386.87 429.46,386.21 429.46,386.21 C429.46,386.21 430.56,386.37 430.56,386.37 C432.06,391.97 432.47,406.08 431.72,414.18 C430.92,421.77 429.03,436.17 427.88,443.41 C427.33,446.61 425.78,453.31 424.27,456.58" fill="none" stroke="rgb(0, 0, 255)" stroke-width="4.00" stroke-opacity="1.00" stroke-linejoin="round"/>
<path d="M366.67,398.77 C366.67,398.77 364.82,398.76 364.82,398.76 C363.55,400.89 363.39,404.49 363.32,408.23 C363.18,416.40 362.79,436.52 362.61,439.60 C362.42,441.75 362.20,444.34 362.13,445.70" fill="none" stroke="rgb(0, 0, 255)" stroke-width="4.00" stroke-opacity="1.00" stroke-linejoin="round"/>
<path d="M411.07,333.66 C411.07,333.66 410.61,333.87 410.61,333.87 C410.39,336.08 411.31,352.60 411.09,358.65 C410.95,362.20 409.62,379.84 408.11,384.49 C407.49,386.40 406.53,388.08 405.05,390.16" fill="none" stroke="rgb(0, 0, 255)" stroke-width="4.00" stroke-opacity="1.00" stroke-linejoin="round"/>
<path d="M384.97,277.36 C385.29,276.53 385.50,275.90 385.58,275.48 C385.67,275.05 385.75,274.23 385.84,273.01 C385.24,279.37 384.01,293.92 383.37,302.12 C382.94,309.78 382.46,318.63 382.41,319.82" fill="none" stroke="rgb(0, 0, 255)" stroke-width="4.00" stroke-opacity="1.00" stroke-linejoin="round"/>
<path d="M395.06,178.61 C395.06,178.61 394.85,177.61 394.85,177.61 C393.72,178.16 392.63,182.26 392.21,187.60 C391.75,195.11 390.62,210.91 389.96,219.20 C389.41,224.97 388.81,228.95 387.79,231.81 C385.82,237.13 384.47,239.77 380.89,242.59" fill="none" stroke="rgb(0, 0, 255)" stroke-width="4.00" stroke-opacity="1.00" stroke-linejoin="round"/>
<path d="M296.17,107.17 C296.17,107.17 294.48,106.16 294.48,106.16 C294.48,106.16 293.90,106.47 293.90,106.47 C294.02,109.97 297.39,125.93 299.16,133.95 C305.19,160.69 306.93,171.46 306.91,173.73" fill="none" stroke="rgb(0, 0, 255)" stroke-width="4.00" stroke-opacity="1.00" stroke-linejoin="round"/>
<path d="M220.96,108.11 C221.34,107.60 221.96,106.92 222.28,106.74 C222.39,106.68 222.53,106.66 222.70,106.67 C223.47,108.44 225.15,121.61 226.02,128.57 C228.67,147.19 233.89,177.94 236.54,192.85 C238.04,200.50 239.76,207.98 239.94,208.76" fill="none" stroke="rgb(0, 0, 255)" stroke-width="4.00" stroke-opacity="1.00" stroke-linejoin="round"/>
</g>
</svg>
