<?xml version="1.0" encoding="UTF-8" standalone="no"?>
<!DOCTYPE svg PUBLIC "-//W3C//DTD SVG 1.1//EN" "http://www.w3.org/Graphics/SVG/1.1/DTD/svg11.dtd">
<svg width="128.40" height="181.68" viewBox="0.00 0.00 535.00 757.00" xmlns="http://www.w3.org/2000/svg" xmlns:xlink="http://www.w3.org/1999/xlink">
<g stroke-linecap="round" id="216">
<path d="M278.23,226.13 C278.22,225.75 278.24,225.20 278.21,225.10 C278.18,225.02 278.10,224.87 277.96,224.65 C277.33,224.37 272.14,226.04 268.98,227.05 C258.94,230.26 249.92,234.50 245.09,237.53 C236.59,242.94 228.75,248.33 221.52,254.11 C215.34,259.15 205.60,267.92 203.05,271.42 C198.31,278.02 189.52,300.23 189.33,300.70 C189.33,300.71 191.37,299.68 194.40,299.29 C198.71,298.74 248.18,293.96 252.89,293.16 C267.32,290.58 295.83,285.69 311.22,284.43 C313.60,284.25 350.12,282.04 362.59,282.09 C373.13,282.11 403.45,280.00 404.19,279.80 C404.39,278.59 403.97,277.55 402.54,276.43 C397.93,273.01 394.76,269.82 392.86,266.54 C390.37,262.10 387.31,257.50 385.57,255.77 C382.14,252.45 369.63,244.16 364.03,241.01 C358.14,237.86 345.73,231.37 340.86,229.34 C334.05,226.51 323.85,223.57 319.48,223.08 C316.99,222.81 298.74,222.34 294.41,222.89 C285.49,224.11 280.01,225.13 279.23,225.05 C278.91,223.30 280.26,220.20 282.42,215.68 C283.65,213.14 285.93,209.28 287.94,207.18 C288.94,206.16 291.29,204.55 292.30,204.12 C293.38,203.72 295.07,203.67 295.86,204.05 C297.28,204.81 299.02,209.69 299.27,213.27 C299.46,216.28 298.96,219.84 297.92,220.91 C297.28,221.52 286.12,224.24 285.98,224.18 C285.98,224.18 285.90,223.94 285.90,223.94" fill="none" stroke="rgb(229, 129, 76)" stroke-width="3.41" stroke-opacity="1.00" stroke-linejoin="round"/>
<path d="M292.01,210.37 C292.01,210.37 291.56,208.47 291.56,208.47 C289.04,209.28 282.92,217.27 281.79,220.23 C282.64,220.04 283.44,219.34 284.41,217.68 C286.31,214.39 288.05,209.53 287.56,208.39 C285.06,209.17 282.35,218.13 282.67,218.50 C285.93,217.03 289.40,209.09 289.78,207.91 C288.38,208.28 284.08,219.82 284.12,221.73 C287.68,221.50 290.12,211.49 290.13,210.14 C289.49,210.14 288.60,211.00 287.58,212.85 C285.44,216.81 284.73,220.48 284.75,221.85 C285.58,222.00 285.92,222.00 286.32,221.46 C289.80,216.83 292.66,208.60 292.42,207.56 C290.01,209.52 288.04,218.92 288.38,219.60 C289.40,219.63 292.30,215.17 293.47,212.25 C293.96,211.00 294.14,210.00 294.05,209.64 C291.50,214.95 291.75,219.74 292.03,220.40 C295.03,217.35 294.93,211.20 294.78,210.56 C292.79,214.37 294.72,219.66 295.27,220.23 C298.23,217.32 295.39,209.73 294.76,208.88 C293.78,211.25 293.49,213.06 293.88,215.20 C294.19,216.92 294.66,218.12 295.35,219.29 C296.13,219.20 296.44,219.10 296.53,218.58 C297.52,212.04 294.22,207.24 293.82,206.99 C292.78,207.13 291.98,207.80 291.46,209.28 C290.49,212.17 290.53,217.80 291.39,219.63 C292.42,219.19 292.86,218.50 292.42,217.62 C292.01,216.87 290.64,216.04 289.67,216.07 C287.49,216.19 283.26,219.33 282.14,221.40 C282.14,221.40 282.42,222.55 282.42,222.55 C284.58,223.58 293.68,221.69 296.49,221.03 C296.49,221.03 283.95,221.94 283.95,221.94 C283.95,221.94 294.54,221.37 294.54,221.37 C292.58,219.98 285.51,221.04 284.77,221.28 C285.18,221.48 289.95,219.58 292.02,217.55 C293.41,216.14 294.86,213.48 295.18,211.79 C295.58,209.31 293.75,205.76 292.67,205.50 C290.99,205.17 289.96,205.60 287.50,208.26 C281.25,215.33 280.25,218.04 280.29,218.42 C281.10,218.96 283.49,217.66 288.18,215.00 C289.84,214.06 290.79,213.62 292.11,213.14" fill="none" stroke="rgb(229, 129, 76)" stroke-width="3.41" stroke-opacity="1.00" stroke-linejoin="round"/>
<path d="M294.42,288.60 C294.19,288.44 294.02,288.30 293.90,288.16 C293.79,288.03 293.57,287.74 293.25,287.27 C293.25,287.27 292.95,287.52 292.95,287.52 C292.46,292.21 293.94,328.11 294.61,341.96 C295.31,352.40 294.61,363.26 294.14,369.47 C294.07,370.71 293.74,377.12 293.42,377.88 C292.35,378.06 284.84,373.21 284.75,373.16 C283.30,372.47 280.74,372.12 279.50,372.42 C277.46,372.99 274.23,376.49 274.03,378.22 C273.96,379.28 274.89,381.26 275.96,382.27 C277.78,383.92 283.38,385.69 286.72,385.92 C291.09,386.19 302.82,385.11 303.53,384.56 C303.53,384.56 303.70,379.10 303.70,379.10" fill="none" stroke="rgb(229, 129, 76)" stroke-width="3.41" stroke-opacity="1.00" stroke-linejoin="round"/>
<path d="M307.65,292.67 C307.61,290.79 307.08,289.72 305.80,289.59 C304.69,289.49 304.07,289.42 303.95,289.39 C303.88,289.37 302.61,288.69 302.50,288.74 C302.30,288.92 302.30,306.76 302.29,313.98 C302.69,327.44 303.37,380.62 303.62,388.06 C303.62,388.06 300.41,385.29 300.41,385.29" fill="none" stroke="rgb(229, 129, 76)" stroke-width="3.41" stroke-opacity="1.00" stroke-linejoin="round"/>
<path d="M283.24,374.61 C282.07,374.51 279.93,374.16 279.71,374.19 C277.76,374.40 275.66,377.07 275.61,378.35 C275.58,380.16 276.91,381.11 277.87,381.44 C278.89,381.21 279.75,380.76 280.07,380.09 C280.40,379.36 280.19,377.86 279.66,377.17 C279.19,376.60 277.65,376.06 276.88,376.19 C276.08,376.37 274.98,377.46 274.88,378.20 C274.81,379.10 275.63,380.59 276.52,381.18 C278.34,382.29 280.48,381.42 281.42,380.59 C281.42,380.59 281.30,377.87 281.30,377.87 C281.30,377.87 280.17,377.13 280.17,377.13 C280.17,377.13 279.00,377.20 279.00,377.20 C279.00,377.20 278.10,378.13 278.10,378.13 C278.09,379.23 278.59,380.58 279.53,381.31 C281.29,382.65 284.96,381.77 285.62,380.82 C286.01,380.18 285.56,378.49 284.83,377.94 C284.05,377.37 281.97,377.36 281.24,378.00 C280.49,378.71 280.47,380.95 281.23,382.03 C282.03,383.11 284.53,384.25 286.05,384.22 C287.27,384.15 289.33,382.54 289.45,381.44 C289.50,380.50 288.16,378.74 287.21,378.28 C286.30,377.86 283.99,377.84 283.35,378.33 C282.59,378.95 282.66,380.15 283.52,381.20 C283.90,381.63 285.54,382.45 286.64,382.71 C287.87,382.99 289.39,382.65 290.75,382.00 C290.75,382.00 291.19,380.66 291.19,380.66 C290.70,379.74 289.68,378.86 288.68,378.79 C286.94,378.67 285.55,380.25 285.60,381.13 C285.68,381.96 287.55,383.59 288.76,383.99 C289.98,384.35 292.94,384.18 293.87,383.58 C294.97,382.82 295.33,381.20 294.67,380.18 C294.13,379.41 291.84,378.43 290.87,378.44 C289.87,378.48 288.39,379.54 288.49,380.26 C288.67,381.17 290.69,382.53 292.09,382.67 C293.49,382.78 295.73,381.99 296.45,381.10 C297.13,380.20 296.62,378.25 295.66,377.61 C294.74,377.04 292.53,377.12 291.81,377.81 C291.09,378.55 291.35,380.54 292.26,381.46 C293.16,382.34 295.58,383.09 296.69,382.81 C297.77,382.50 298.93,380.80 298.76,380.00 C298.56,379.08 297.94,378.38 297.16,378.05 C297.16,378.05 296.31,379.30 296.31,379.30 C296.31,379.30 299.73,381.26 299.73,381.26 C299.73,381.26 300.73,380.37 300.73,380.37 C300.73,380.37 300.81,379.07 300.81,379.07 C300.81,379.07 299.84,377.67 299.84,377.67 C298.44,377.18 297.08,377.08 295.95,377.59 C293.74,378.63 292.22,381.70 292.45,382.72 C292.40,381.38 283.23,376.86 280.92,377.11 C281.34,378.12 282.18,378.76 283.84,379.11 C288.54,380.07 297.55,378.00 298.00,377.29 C298.72,375.91 299.77,370.87 299.59,367.39 C299.46,365.18 298.90,363.25 298.14,361.87 C297.22,361.86 296.32,362.72 296.03,364.38 C295.73,366.11 295.99,368.38 296.47,369.58 C297.88,368.44 298.59,366.89 298.57,364.31 C298.51,360.20 297.18,356.36 296.41,355.76 C295.64,356.45 295.13,357.76 295.09,359.77 C295.03,363.48 296.50,368.17 297.30,368.95 C298.23,368.95 298.90,367.79 299.20,365.39 C299.37,363.94 298.93,358.25 298.43,356.14 C297.90,353.93 296.66,351.16 295.87,350.79 C294.89,351.64 294.46,352.32 294.38,353.44 C294.00,358.88 295.66,364.96 296.53,365.39 C297.97,364.63 298.95,360.87 299.23,358.47 C299.92,352.35 298.71,342.66 297.90,342.02 C297.24,342.62 296.74,345.35 296.58,348.52 C296.28,355.42 297.59,361.74 298.35,362.36 C300.87,360.97 300.94,336.14 300.33,330.35 C300.02,327.55 299.39,324.79 298.63,324.31 C297.31,325.24 296.04,339.85 296.78,346.64 C297.12,349.58 297.80,351.27 298.26,351.92 C299.44,351.77 300.01,351.30 300.30,349.96 C301.43,344.68 301.35,333.80 300.48,323.42 C300.15,319.87 299.39,315.92 298.75,314.51 C297.79,315.87 297.54,319.80 297.50,322.12 C297.31,337.20 299.63,340.61 300.00,340.76 C301.21,339.38 301.45,326.79 300.65,319.73 C299.49,310.45 298.16,307.90 297.65,307.26 C296.27,309.34 295.89,314.28 295.88,316.39 C295.86,324.89 297.13,331.67 297.70,332.46 C298.78,331.93 299.35,319.93 298.98,312.69 C298.46,303.94 297.37,298.18 296.56,297.35 C295.14,298.34 294.07,312.46 294.31,317.60 C294.75,325.50 295.76,327.55 296.15,327.87 C296.85,327.32 297.72,323.75 297.89,320.94 C298.88,303.25 295.76,296.38 295.31,295.71 C294.44,296.27 293.91,297.74 293.75,300.31 C293.48,304.84 295.11,310.42 295.85,310.93 C296.92,310.08 297.45,309.26 297.67,307.79 C298.04,305.20 298.10,300.83 297.84,297.65 C297.55,294.44 296.13,291.83 295.79,291.85 C293.48,293.24 293.62,300.86 293.90,302.24 C294.57,302.07 295.05,296.85 294.90,294.60 C294.53,290.00 293.15,287.52 292.32,286.85 C292.32,286.85 291.07,287.05 291.07,287.05" fill="none" stroke="rgb(229, 129, 76)" stroke-width="3.41" stroke-opacity="1.00" stroke-linejoin="round"/>
<path d="M274.75,228.38 C274.75,228.38 274.75,228.31 274.75,228.31 C273.99,229.42 273.13,230.41 271.63,231.74 C268.83,234.24 263.81,238.24 261.47,240.10 C259.74,241.43 252.61,243.35 251.71,243.65 C249.60,244.36 244.60,246.85 242.80,247.94 C242.77,247.96 229.41,259.32 223.13,264.01 C220.28,266.13 207.52,272.04 204.87,273.50 C202.55,274.80 197.87,278.26 196.37,279.64 C195.98,280.00 195.71,280.45 195.52,280.84 C195.52,280.84 195.60,280.99 195.60,280.99 C195.65,281.00 195.70,280.98 195.74,280.91 C196.02,280.50 196.26,280.07 196.57,279.69 C199.89,275.55 207.06,269.76 209.12,268.11" fill="none" stroke="rgb(229, 129, 76)" stroke-width="3.41" stroke-opacity="1.00" stroke-linejoin="round"/>
<path d="M283.40,225.14 C283.46,224.88 283.50,224.71 283.52,224.64 C283.54,224.56 283.56,224.46 283.60,224.34 C281.48,226.45 280.23,227.61 278.53,228.94 C270.59,235.13 237.17,257.89 235.36,259.27 C229.99,263.39 204.03,283.58 194.27,291.46 C194.27,291.46 198.08,287.56 198.08,287.56" fill="none" stroke="rgb(229, 129, 76)" stroke-width="3.41" stroke-opacity="1.00" stroke-linejoin="round"/>
<path d="M287.59,224.15 C287.65,223.92 287.70,223.75 287.74,223.65 C287.85,223.33 288.00,222.90 288.04,222.71 C286.63,224.65 284.93,226.99 281.35,231.64 C272.03,243.53 251.92,265.10 240.86,276.79 C236.33,281.52 221.36,297.01 220.61,297.87 C220.61,297.87 223.09,294.40 223.09,294.40" fill="none" stroke="rgb(229, 129, 76)" stroke-width="3.41" stroke-opacity="1.00" stroke-linejoin="round"/>
<path d="M288.22,228.10 C288.38,227.72 288.56,227.37 288.77,227.06 C289.00,226.72 290.90,224.22 291.32,223.65 C289.38,226.59 268.86,263.66 263.23,272.66 C258.89,279.38 253.62,288.61 251.09,293.09 C251.09,293.09 251.71,291.52 251.71,291.52" fill="none" stroke="rgb(229, 129, 76)" stroke-width="3.41" stroke-opacity="1.00" stroke-linejoin="round"/>
<path d="M289.29,237.11 C289.38,236.45 289.62,235.52 289.69,235.18 C289.72,235.02 289.74,234.77 289.76,234.42 C289.34,234.48 276.45,274.46 272.61,284.54 C270.32,290.55 268.41,295.99 267.74,298.41 C267.74,298.41 267.96,297.21 267.96,297.21" fill="none" stroke="rgb(229, 129, 76)" stroke-width="3.41" stroke-opacity="1.00" stroke-linejoin="round"/>
<path d="M288.65,224.00 C289.41,223.16 289.90,222.64 290.13,222.43 C290.36,222.21 290.71,221.99 291.16,221.75 C291.42,221.61 291.68,221.47 291.94,221.34 C292.08,221.38 293.71,222.26 289.84,246.10 C288.58,253.75 285.45,272.72 285.14,274.92 C284.62,278.74 284.07,291.73 284.03,292.22 C283.87,294.28 283.65,295.65 283.54,295.53 C283.54,295.53 283.52,295.41 283.52,295.41" fill="none" stroke="rgb(229, 129, 76)" stroke-width="3.41" stroke-opacity="1.00" stroke-linejoin="round"/>
<path d="M292.01,223.96 C291.99,223.86 291.96,223.79 291.93,223.73 C291.91,223.67 291.84,223.54 291.73,223.36 C291.73,223.36 291.01,223.35 291.01,223.35 C290.97,223.33 292.36,226.12 293.27,228.46 C297.27,238.83 311.52,286.83 312.90,289.99 C312.72,289.22 312.61,288.74 312.56,288.57 C312.51,288.39 312.47,288.27 312.43,288.20" fill="none" stroke="rgb(229, 129, 76)" stroke-width="3.41" stroke-opacity="1.00" stroke-linejoin="round"/>
<path d="M296.24,228.58 C296.24,228.58 296.55,226.60 296.55,226.60 C296.73,226.43 303.54,242.72 307.31,250.99 C315.86,268.90 321.59,282.52 325.85,290.84 C325.66,290.47 325.56,290.26 325.53,290.21 C325.49,290.11 325.41,289.90 325.30,289.58 C324.65,287.74 322.97,281.40 322.10,278.10" fill="none" stroke="rgb(229, 129, 76)" stroke-width="3.41" stroke-opacity="1.00" stroke-linejoin="round"/>
<path d="M296.87,223.48 C296.74,223.13 296.65,222.90 296.60,222.79 C296.49,222.58 296.36,222.41 296.20,222.29 C296.14,222.23 296.00,222.16 295.80,222.06 C300.29,227.84 318.78,258.14 323.63,264.02 C324.39,264.94 345.07,287.23 348.29,290.52 C348.29,290.52 347.51,289.52 347.51,289.52" fill="none" stroke="rgb(229, 129, 76)" stroke-width="3.41" stroke-opacity="1.00" stroke-linejoin="round"/>
<path d="M302.32,215.74 C302.28,215.60 302.25,215.50 302.23,215.44 C302.20,215.38 302.13,215.27 302.03,215.12 C302.01,215.06 302.11,215.22 302.13,215.27 C304.46,219.97 311.47,228.10 318.85,235.43 C324.64,240.97 335.77,251.53 341.11,256.55 C345.76,260.88 365.46,277.00 368.06,279.92 C368.06,279.92 367.17,278.41 367.17,278.41" fill="none" stroke="rgb(229, 129, 76)" stroke-width="3.41" stroke-opacity="1.00" stroke-linejoin="round"/>
<path d="M309.94,216.93 C309.94,216.93 309.83,215.70 309.83,215.70 C309.82,215.79 312.22,219.53 331.51,233.76 C347.23,244.99 367.38,261.69 375.01,266.26 C378.67,268.38 385.86,272.50 388.01,274.20 C388.27,274.41 394.62,280.14 395.49,281.16 C395.49,281.16 395.28,281.24 395.28,281.24 C395.28,281.24 394.76,280.97 394.76,280.97" fill="none" stroke="rgb(229, 129, 76)" stroke-width="3.41" stroke-opacity="1.00" stroke-linejoin="round"/>
<path d="M322.34,328.57 C322.34,328.57 321.87,328.19 321.87,328.19 C321.14,328.28 319.46,330.00 318.57,331.83 C317.74,333.59 317.13,336.22 317.34,337.69 C317.53,338.89 319.26,342.24 320.37,343.09 C321.62,344.00 326.09,345.28 328.22,345.47 C330.11,345.62 334.66,345.59 336.56,345.17 C338.86,344.64 342.63,342.46 344.01,340.58 C345.33,338.73 346.19,335.11 346.02,333.73 C345.85,332.66 344.82,330.47 344.11,329.60 C343.32,328.65 341.40,327.43 340.00,326.94 C338.54,326.47 332.04,326.01 328.29,326.45 C325.62,326.78 319.36,328.56 318.48,328.99 C318.36,329.05 318.29,329.11 318.25,329.17" fill="none" stroke="rgb(255, 0, 255)" stroke-width="3.41" stroke-opacity="1.00" stroke-linejoin="round"/>
<path d="M322.43,332.13 C322.39,332.13 322.36,332.12 322.33,332.11 C322.31,332.10 322.26,332.07 322.18,332.02 C322.18,332.02 322.09,331.71 322.09,331.71 C322.52,331.00 324.98,329.92 325.68,330.23 C325.76,330.27 325.94,330.38 326.22,330.57" fill="none" stroke="rgb(255, 0, 255)" stroke-width="3.41" stroke-opacity="1.00" stroke-linejoin="round"/>
<path d="M325.98,334.14 C325.98,334.14 325.89,333.58 325.89,333.58 C325.89,333.58 325.38,334.95 325.38,334.95 C325.38,334.95 326.10,334.15 326.10,334.15 C326.10,334.15 325.05,334.45 325.05,334.45 C325.05,334.45 325.04,334.64 325.04,334.64 C325.04,334.64 325.15,334.67 325.15,334.67" fill="none" stroke="rgb(255, 0, 255)" stroke-width="3.41" stroke-opacity="1.00" stroke-linejoin="round"/>
<path d="M330.88,331.84 C330.88,331.84 330.73,331.73 330.73,331.73 C330.79,331.69 330.87,332.60 330.91,332.98 C331.04,334.33 331.39,334.86 331.54,335.01" fill="none" stroke="rgb(255, 0, 255)" stroke-width="3.41" stroke-opacity="1.00" stroke-linejoin="round"/>
<path d="M335.05,329.94 C335.05,329.94 334.31,330.59 334.31,330.59 C334.65,330.12 337.19,329.45 338.44,330.15 C338.74,330.32 338.97,330.53 339.13,330.77 C339.27,330.99 339.38,331.43 339.35,331.40" fill="none" stroke="rgb(255, 0, 255)" stroke-width="3.41" stroke-opacity="1.00" stroke-linejoin="round"/>
<path d="M338.16,333.11 C338.16,333.11 337.99,332.90 337.99,332.90 C337.99,332.90 337.66,334.40 337.66,334.40 C338.05,333.23 336.27,333.75 335.87,334.02" fill="none" stroke="rgb(255, 0, 255)" stroke-width="3.41" stroke-opacity="1.00" stroke-linejoin="round"/>
<path d="M324.17,339.83 C324.17,339.83 324.48,339.37 324.48,339.37 C324.86,339.56 327.82,341.86 329.16,341.92 C331.61,341.94 333.68,338.92 333.60,338.11 C333.56,337.79 333.36,337.56 333.01,337.31" fill="none" stroke="rgb(255, 0, 255)" stroke-width="3.41" stroke-opacity="1.00" stroke-linejoin="round"/>
<path d="M317.13,334.61 C317.02,334.53 316.91,334.48 316.82,334.45 C315.99,334.22 313.15,334.39 312.56,334.89 C311.93,335.48 312.22,337.50 313.17,338.18 C314.28,338.94 315.87,339.24 317.01,339.36" fill="none" stroke="rgb(255, 0, 255)" stroke-width="3.41" stroke-opacity="1.00" stroke-linejoin="round"/>
<path d="M347.25,331.95 C347.25,331.95 347.11,331.93 347.11,331.93 C347.11,331.93 347.13,331.84 347.13,331.84 C347.64,331.66 348.89,331.82 349.48,332.45 C350.19,333.24 350.46,335.97 349.63,337.20 C348.80,338.36 345.88,339.28 344.84,339.21 C344.70,339.20 344.43,339.16 344.04,339.09" fill="none" stroke="rgb(255, 0, 255)" stroke-width="3.41" stroke-opacity="1.00" stroke-linejoin="round"/>
<path d="M323.73,323.84 C323.73,323.84 324.12,323.46 324.12,323.46 C324.12,323.46 320.34,326.57 320.34,326.57 C320.34,326.57 325.86,322.67 325.86,322.67 C323.90,322.68 322.05,324.74 321.82,325.19 C321.82,325.19 327.55,323.39 327.55,323.39 C327.55,323.39 325.07,324.93 325.07,324.93 C326.91,325.66 330.65,323.46 331.26,323.01 C331.26,323.01 326.64,324.09 326.64,324.09 C326.64,324.09 334.09,322.96 334.09,322.96 C334.09,322.96 329.65,323.54 329.65,323.54 C329.65,323.54 338.56,323.52 338.56,323.52 C338.56,323.52 333.68,323.63 333.68,323.63 C333.68,323.63 339.29,324.53 339.29,324.53 C339.29,324.53 334.61,324.57 334.61,324.57 C335.57,325.98 340.72,325.61 340.81,325.54 C340.81,325.54 331.93,325.27 331.93,325.27 C331.93,325.27 337.74,325.72 337.74,325.72 C337.74,325.72 333.68,326.41 333.68,326.41" fill="none" stroke="rgb(255, 0, 255)" stroke-width="3.41" stroke-opacity="1.00" stroke-linejoin="round"/>
<path d="M325.29,347.30 C325.29,347.30 325.17,346.96 325.17,346.96 C325.17,346.96 327.42,356.60 327.42,356.60 C325.59,355.89 323.40,356.58 322.69,357.24 C322.07,357.85 320.99,360.22 320.86,363.50 C320.70,367.93 321.38,374.88 321.53,375.43 C322.07,375.60 335.06,374.30 341.11,374.04 C342.73,374.00 345.23,374.13 345.69,374.10 C346.44,373.54 346.23,358.88 344.67,355.34 C343.98,353.85 342.73,352.97 341.60,353.14 C339.32,353.49 338.31,353.33 337.79,352.58 C337.17,351.58 335.82,345.91 335.47,345.70 C335.47,345.70 335.01,345.93 335.01,345.93" fill="none" stroke="rgb(255, 0, 255)" stroke-width="3.41" stroke-opacity="1.00" stroke-linejoin="round"/>
<path d="M318.21,363.07 C318.05,362.48 317.73,361.86 317.27,361.69 C316.15,361.29 313.70,361.71 312.71,362.19 C311.73,362.68 310.23,364.37 309.82,365.43 C309.00,367.68 309.99,369.62 310.54,369.90 C311.16,369.77 313.46,366.76 313.54,366.68 C316.56,364.00 320.25,365.79 320.44,365.97 C320.44,365.97 320.44,366.27 320.44,366.27" fill="none" stroke="rgb(255, 0, 255)" stroke-width="3.41" stroke-opacity="1.00" stroke-linejoin="round"/>
<path d="M344.82,360.25 C344.82,360.25 344.84,360.02 344.84,360.02 C344.90,359.82 348.17,359.32 349.91,359.46 C352.02,359.65 354.37,361.31 354.82,362.24 C356.24,365.39 355.88,371.35 355.74,371.93 C354.77,372.00 351.39,368.60 350.87,368.11 C348.12,365.53 345.01,365.17 344.82,365.08 C345.01,364.95 345.10,364.89 345.11,364.89 C345.16,364.86 345.26,364.83 345.38,364.80 C345.75,364.72 346.64,364.75 348.45,364.89" fill="none" stroke="rgb(255, 0, 255)" stroke-width="3.41" stroke-opacity="1.00" stroke-linejoin="round"/>
<path d="M355.41,364.70 C355.41,364.70 355.35,364.21 355.35,364.21 C355.35,364.21 354.92,363.96 354.92,363.96 C354.36,364.13 353.53,364.56 352.74,365.19 C351.29,366.34 350.14,368.36 350.13,368.42" fill="none" stroke="rgb(255, 0, 255)" stroke-width="3.41" stroke-opacity="1.00" stroke-linejoin="round"/>
<path d="M323.06,374.91 C322.50,375.15 322.17,375.32 322.05,375.41 C321.60,375.80 321.67,380.89 322.18,383.40 C322.61,385.44 323.57,386.60 324.14,386.78 C324.75,386.91 331.17,384.86 331.45,383.85 C331.59,383.28 332.06,380.26 332.25,380.04 C332.69,380.32 334.29,382.39 335.35,382.91 C337.43,383.93 340.17,384.55 341.39,384.36 C343.17,384.05 344.09,383.70 344.56,383.41 C345.92,378.98 343.20,373.73 342.51,373.26 C342.22,373.30 342.05,373.32 341.99,373.34 C341.94,373.35 341.91,373.36 341.93,373.38" fill="none" stroke="rgb(255, 0, 255)" stroke-width="3.41" stroke-opacity="1.00" stroke-linejoin="round"/>
<path d="M323.44,387.74 C323.44,387.74 323.66,387.76 323.66,387.76 C323.86,388.08 324.02,388.61 324.07,389.69 C324.19,392.07 324.18,394.13 324.06,394.33 C323.60,394.32 321.88,394.19 321.08,394.63 C320.12,395.17 319.20,397.18 319.58,398.02 C319.96,398.77 322.34,399.29 324.92,398.51 C325.75,398.25 328.01,397.12 328.41,396.76 C329.18,396.00 329.00,392.33 328.39,388.30 C328.34,387.96 328.37,387.86 328.37,387.73" fill="none" stroke="rgb(255, 0, 255)" stroke-width="3.41" stroke-opacity="1.00" stroke-linejoin="round"/>
<path d="M338.38,384.90 C338.31,384.84 338.25,384.80 338.21,384.78 C338.17,384.75 338.09,384.72 337.97,384.67 C337.97,384.67 337.86,384.69 337.86,384.69 C337.83,384.74 337.97,387.90 337.99,389.19 C337.96,392.48 338.38,394.79 339.07,395.46 C339.71,396.02 342.73,396.30 344.61,396.02 C346.89,395.64 348.51,394.06 348.53,393.08 C348.50,392.28 347.64,391.38 346.91,391.31 C346.36,391.25 344.63,391.18 344.28,391.07 C342.33,390.38 342.07,386.44 341.99,384.20 C341.98,383.89 341.97,383.57 341.95,383.25" fill="none" stroke="rgb(255, 0, 255)" stroke-width="3.41" stroke-opacity="1.00" stroke-linejoin="round"/>
<path d="M34.03,25.50 C34.03,25.50 35.80,22.68 35.80,22.68 C35.80,22.68 29.67,22.63 29.67,22.63 C30.55,23.03 45.51,24.65 51.34,26.62 C54.64,27.75 60.59,30.83 63.12,32.98 C65.67,35.20 68.76,39.96 68.92,42.04 C69.01,44.12 66.31,48.03 63.64,50.06 C58.70,53.74 42.80,61.68 38.07,62.73 C35.59,63.25 31.33,62.86 29.62,62.02 C28.00,61.18 25.09,57.86 24.62,55.95 C24.04,53.36 25.02,48.82 26.94,46.00 C28.43,43.87 33.45,40.06 36.26,38.65 C40.30,36.66 50.81,34.38 55.02,34.34 C57.19,34.33 62.16,34.79 64.57,35.23 C66.77,35.66 71.72,37.76 73.53,38.97 C75.03,40.02 76.87,41.83 77.57,43.10 C78.28,44.46 79.01,47.11 78.97,48.30 C78.80,50.71 75.72,56.10 73.31,58.49 C70.71,61.02 65.95,64.60 63.03,66.28 C60.64,67.64 53.68,70.74 50.93,71.37 C48.98,71.78 45.51,72.06 44.30,71.85 C43.05,71.59 40.98,70.16 40.21,69.05 C39.06,67.27 39.82,62.27 40.73,59.74 C42.12,55.96 49.10,46.74 53.09,43.28 C55.17,41.50 60.79,37.73 63.56,36.32 C66.53,34.83 72.79,32.87 75.78,32.49 C78.76,32.13 84.29,32.57 86.69,33.36 C89.05,34.17 92.92,36.86 94.37,38.67 C95.75,40.44 97.49,44.70 97.83,47.02 C98.13,49.31 97.66,53.92 96.91,56.12 C96.13,58.30 93.65,62.20 91.93,63.96 C90.15,65.75 86.22,68.16 84.23,68.89 C82.10,69.63 77.93,69.85 75.74,69.43 C73.79,69.03 69.88,66.89 68.35,65.45 C66.78,63.94 64.38,60.00 63.76,57.85 C63.19,55.73 62.93,50.86 63.25,48.83 C63.61,46.73 65.48,41.97 66.86,39.53 C68.04,37.47 71.10,33.87 72.99,32.31 C75.23,30.48 79.80,27.66 82.07,26.75 C84.28,25.88 89.64,24.68 92.54,24.35 C94.97,24.09 99.58,24.27 101.82,24.70 C104.40,25.21 109.36,26.85 110.67,27.60 C113.55,29.30 118.11,33.61 119.17,35.55 C120.23,37.51 121.11,43.84 120.73,46.28 C120.35,48.59 117.62,55.21 116.24,57.30 C114.95,59.23 110.52,63.79 108.85,64.97 C107.76,65.72 105.34,66.62 104.21,66.74 C103.23,66.80 101.86,66.09 101.43,65.29 C100.45,63.26 101.27,58.71 102.66,55.70 C105.07,50.58 112.94,41.04 116.14,38.19 C118.01,36.55 122.30,33.54 124.61,32.23 C126.91,30.95 132.37,29.13 135.87,29.27 C137.46,29.37 139.98,30.37 141.08,31.34 C142.33,32.50 144.27,35.33 144.76,36.82 C145.57,39.33 145.99,45.59 145.92,47.31 C145.72,51.37 142.90,61.41 140.94,64.88 C140.09,66.38 136.35,71.41 134.24,73.10 C132.98,74.08 129.77,75.33 128.12,75.55 C126.69,75.69 124.18,74.95 122.92,74.04 C119.86,71.69 117.06,66.30 116.39,63.33 C115.84,60.72 115.70,56.33 116.06,53.89 C116.44,51.46 118.05,46.68 119.25,44.49 C120.50,42.26 123.73,38.42 125.75,36.78 C127.72,35.20 132.31,32.59 134.77,31.62 C137.22,30.67 142.27,29.50 144.81,29.30 C147.36,29.11 152.41,29.52 154.78,30.08 C156.84,30.60 162.33,32.97 164.52,34.71 C165.78,35.73 168.10,38.83 169.01,40.61 C169.74,42.11 170.46,45.19 170.49,46.84 C170.48,48.75 169.90,52.19 169.33,53.57 C168.16,56.24 163.20,60.96 160.27,61.98 C156.73,63.14 151.40,62.92 148.37,61.52 C147.12,60.90 145.21,59.14 144.63,57.92 C143.84,56.13 143.57,53.72 143.93,52.27 C144.63,49.86 147.25,46.11 149.56,44.06 C153.24,40.87 163.60,35.70 169.40,34.16 C172.11,33.45 177.93,32.49 180.37,32.42 C184.60,32.34 189.75,33.02 192.11,33.89 C193.09,34.28 195.74,36.06 196.56,37.00 C197.48,38.11 198.46,41.75 198.50,43.80 C198.49,46.96 195.41,52.75 193.52,55.21 C190.87,58.58 181.86,64.98 178.86,65.93 C176.93,66.49 173.80,66.75 172.05,66.39 C170.69,66.08 168.74,64.61 168.11,63.45 C167.44,62.08 166.89,58.99 167.14,57.58 C167.63,55.15 170.64,49.67 171.68,48.23 C174.27,44.70 183.26,37.33 187.64,35.25 C190.03,34.14 195.94,32.14 198.58,31.66 C201.05,31.23 206.92,31.15 209.02,31.53 C210.80,31.88 215.98,34.37 217.20,36.13 C218.48,38.02 218.84,43.19 218.31,45.28 C217.73,47.49 215.77,51.40 214.26,53.32 C210.60,57.92 200.15,66.02 194.42,68.63 C191.65,69.87 187.62,70.96 185.01,71.17 C183.47,71.24 180.96,70.79 179.81,70.07 C178.56,69.26 177.85,66.64 178.05,64.63 C178.25,63.15 180.51,58.46 182.21,56.08 C185.79,51.14 196.80,41.46 203.45,37.62 C206.92,35.64 213.24,32.89 216.96,31.67 C222.35,29.94 230.35,29.76 232.43,30.21 C234.86,30.77 237.27,32.03 238.61,33.48 C240.06,35.12 241.66,40.03 241.42,42.39 C241.11,44.94 239.76,50.13 238.82,52.43 C237.01,56.78 229.91,66.77 226.43,69.87 C224.65,71.42 220.05,74.53 217.51,75.25 C216.13,75.61 213.19,75.10 211.90,74.36 C209.95,73.14 208.54,67.55 208.54,65.44 C208.59,61.74 210.48,55.74 211.56,53.28 C212.96,50.16 216.35,45.26 218.22,43.12 C219.98,41.15 223.86,37.97 226.60,36.33 C229.37,34.69 233.77,32.98 236.04,32.57 C238.24,32.19 243.39,32.10 245.88,32.38 C248.20,32.69 252.97,35.18 254.50,36.82 C255.85,38.33 256.98,40.84 257.24,42.92 C257.49,45.27 256.24,50.88 254.91,52.90 C253.41,55.08 249.68,59.11 247.75,60.67 C245.85,62.17 241.49,64.69 238.57,65.90 C235.50,67.15 231.44,68.16 228.88,68.21 C226.66,68.22 221.23,67.02 219.17,65.19 C217.24,63.44 215.87,57.82 215.94,56.19 C216.07,54.28 217.68,49.83 219.22,47.09 C220.91,44.17 225.28,38.90 227.99,36.50 C230.79,34.05 236.83,30.30 240.29,28.97 C243.62,27.71 248.70,26.66 251.78,26.69 C254.73,26.76 259.90,27.90 262.27,29.22 C264.54,30.54 267.81,34.32 268.71,36.67 C269.57,39.04 269.77,44.45 269.11,47.32 C268.51,49.85 265.54,56.05 263.89,58.33 C262.14,60.72 258.15,64.79 255.53,66.76 C253.62,68.17 248.49,70.79 245.82,70.71 C244.24,70.62 242.26,68.72 241.88,67.08 C241.41,64.76 242.89,59.69 243.93,57.32 C246.25,52.06 253.74,41.64 258.68,36.68 C260.84,34.53 265.32,30.94 268.25,29.11 C271.38,27.17 275.11,25.52 277.85,25.13 C280.73,24.78 285.44,25.71 287.32,27.44 C288.99,29.06 290.72,33.57 290.78,35.96 C290.80,37.95 290.23,42.54 289.53,44.72 C288.56,47.67 286.43,52.21 284.80,54.77 C282.30,58.64 273.87,65.70 270.37,66.87 C267.93,67.66 262.68,68.72 259.54,67.69 C258.21,67.21 256.35,65.44 255.83,64.18 C255.28,62.68 255.03,59.40 255.43,57.94 C256.17,55.44 259.74,50.17 260.95,48.82 C263.91,45.56 274.02,39.20 278.63,37.89 C281.09,37.20 287.57,36.33 289.87,36.34 C291.94,36.37 296.90,37.37 299.13,38.20 C300.27,38.66 303.50,40.56 304.44,41.50 C305.49,42.57 306.60,44.84 307.06,46.42 C307.75,49.22 307.01,53.40 305.69,56.01 C304.65,58.00 300.65,62.74 299.38,63.81 C297.87,65.07 292.73,68.24 289.91,69.44 C285.22,71.39 277.19,72.07 275.25,71.75 C272.79,71.30 269.93,70.12 268.61,68.81 C267.25,67.38 265.48,64.05 265.33,62.47 C265.12,59.61 266.89,54.08 268.18,51.88 C269.48,49.71 274.13,44.43 276.44,42.49 C278.92,40.44 285.28,36.50 288.12,35.11 C290.81,33.83 296.53,31.94 299.90,31.22 C303.57,30.46 309.39,30.12 312.81,30.49 C315.72,30.84 319.39,32.17 321.46,33.66 C322.67,34.58 324.04,36.64 324.73,38.61 C325.21,40.03 324.48,44.98 323.39,47.35 C322.28,49.71 318.80,54.29 316.51,56.43 C314.37,58.41 309.00,62.17 306.50,63.42 C300.68,66.28 293.91,66.75 292.47,66.31 C290.62,65.69 288.20,63.61 287.61,61.87 C286.66,58.90 288.12,52.91 289.36,50.45 C290.64,47.98 293.72,43.34 295.43,41.39 C297.25,39.35 301.48,35.75 304.43,33.68 C307.03,31.90 311.78,29.96 314.78,29.25 C318.69,28.38 325.39,28.62 327.85,29.44 C328.72,29.76 330.97,30.93 331.80,31.57 C333.60,33.00 335.23,35.25 335.93,37.30 C336.50,39.03 336.74,43.84 336.27,45.93 C335.76,48.05 333.47,52.67 331.70,55.29 C330.21,57.45 326.35,61.32 323.67,63.34 C320.15,65.94 315.74,68.52 312.76,69.64 C310.11,70.58 304.74,71.22 302.52,69.54 C301.30,68.57 300.62,65.67 300.85,63.47 C301.07,61.80 303.33,57.08 305.11,54.44 C308.04,50.17 317.79,41.11 322.45,38.18 C324.89,36.66 330.29,34.23 333.33,33.24 C337.77,31.83 344.71,32.17 346.38,32.75 C348.25,33.46 350.29,34.95 351.09,36.42 C352.69,39.48 352.52,45.04 351.77,47.50 C350.96,50.04 348.65,54.87 347.18,57.01 C344.38,61.00 335.26,69.56 330.69,72.30 C327.96,73.90 321.62,76.28 319.44,75.69 C317.98,75.24 315.99,73.42 315.76,72.16 C315.42,69.96 317.22,63.81 318.05,62.02 C319.99,57.88 328.83,46.36 334.40,41.55 C337.33,39.04 342.65,35.49 345.96,34.01 C348.13,33.06 353.62,31.58 356.71,31.91 C358.88,32.18 362.21,33.80 363.15,35.15 C363.96,36.38 364.64,39.11 364.59,40.34 C364.41,42.82 363.08,47.16 361.74,49.73 C359.05,54.79 350.17,64.45 344.80,68.36 C342.27,70.18 338.55,72.25 336.04,73.23 C334.58,73.76 332.08,74.17 330.97,73.89 C329.91,73.57 328.53,71.43 328.54,70.17 C328.61,67.86 331.02,61.35 331.96,59.47 C334.21,55.02 343.35,43.12 347.90,39.00 C353.16,34.26 359.34,30.52 361.99,29.72 C364.62,28.98 367.28,29.14 369.58,30.19 C371.75,31.24 373.99,34.71 374.38,36.63 C375.01,39.89 374.17,44.99 373.43,47.42 C372.51,50.38 370.36,55.01 368.91,57.22 C365.54,62.30 357.70,69.64 352.83,72.42 C351.35,73.23 348.44,74.50 347.01,74.86 C345.47,75.22 342.50,74.74 341.30,74.01 C340.22,73.29 339.41,71.06 339.33,69.17 C339.30,67.50 340.31,62.53 341.21,60.21 C343.09,55.49 350.76,43.87 355.24,39.55 C357.87,37.04 363.58,32.49 365.79,31.27 C368.19,29.96 373.60,27.98 376.51,27.54 C379.59,27.13 384.42,27.95 386.67,29.41 C387.66,30.13 389.82,32.45 390.37,33.69 C391.49,36.32 391.12,42.66 390.50,45.19 C389.75,48.14 387.61,52.80 385.49,56.25 C383.44,59.56 379.59,64.51 377.40,66.77 C375.17,69.05 369.67,73.78 366.99,75.67 C364.87,77.13 361.35,78.83 358.91,79.48 C357.35,79.86 355.12,79.95 354.14,79.51 C352.37,78.65 352.40,72.62 353.23,70.10 C354.03,67.82 356.71,62.82 359.24,58.72 C361.84,54.56 372.81,42.11 377.05,38.52 C384.20,32.50 391.07,29.24 393.82,28.43 C394.98,28.14 397.97,28.30 399.08,28.88 C400.37,29.60 401.21,32.52 401.09,34.82 C400.79,38.54 394.42,50.55 389.83,56.55 C387.68,59.34 383.29,64.25 381.14,66.28 C378.76,68.49 374.30,71.66 372.38,71.63 C371.51,70.31 373.43,65.78 375.12,63.12 C377.76,59.04 387.26,48.21 391.13,44.75 C394.44,41.83 399.34,38.42 401.99,37.09 C404.25,36.00 410.77,34.44 413.55,34.76 C416.39,35.15 420.47,38.03 421.44,40.32 C422.37,42.65 421.84,48.45 420.35,51.62 C419.01,54.37 415.64,58.77 412.92,61.25 C410.66,63.26 407.04,65.70 404.23,67.10 C400.44,68.92 395.41,70.14 392.83,69.16 C391.98,67.94 391.60,65.97 392.15,63.97 C392.93,61.21 397.61,55.07 399.75,52.72 C402.47,49.76 407.96,45.10 410.44,43.30 C415.37,39.75 422.29,37.24 425.27,36.68 C426.77,36.45 429.16,36.65 430.49,37.30 C431.94,38.07 433.92,40.73 434.06,42.20 C434.24,44.63 432.09,50.84 431.23,52.50 C429.22,56.30 421.27,65.25 417.89,67.67 C416.32,68.78 412.71,70.67 410.04,71.07 C410.04,71.07 408.69,70.08 408.69,70.08 C408.09,67.33 409.74,62.83 411.29,60.13 C414.66,54.37 423.57,43.60 428.45,39.50 C431.32,37.11 436.53,33.88 438.90,33.12 C439.09,33.07 442.48,32.41 443.12,32.49 C444.84,32.76 447.46,34.31 447.99,35.57 C448.82,37.64 448.22,43.26 447.51,45.38 C446.67,47.82 443.95,52.88 442.22,55.22 C440.53,57.48 436.99,61.06 434.81,62.80 C431.94,65.01 429.41,65.71 428.26,65.48 C427.70,63.87 430.88,59.10 433.36,56.45 C437.24,52.36 446.89,44.99 452.32,41.78 C456.23,39.49 461.83,37.07 464.96,36.15 C468.61,35.11 475.42,34.66 476.65,35.05 C478.57,35.70 480.73,37.02 481.74,38.15 C483.37,40.10 484.22,44.62 483.58,47.36 C483.00,49.63 480.70,54.93 479.33,56.71 C474.96,62.28 468.56,66.18 466.53,66.88 C464.57,67.54 463.00,67.22 461.57,66.07 C460.91,63.19 460.83,61.54 461.48,59.94 C463.36,55.33 470.96,46.15 476.20,41.80 C479.00,39.49 482.77,36.97 484.91,35.94 C487.85,34.60 490.97,34.68 492.18,35.29 C493.14,37.25 491.60,41.88 489.90,44.65 C487.02,49.18 478.22,58.52 474.92,61.04 C471.18,63.84 468.56,64.64 467.54,64.62 C466.77,63.51 468.31,59.54 470.21,56.50 C476.32,46.86 487.02,38.40 488.75,37.59 C490.05,37.02 492.43,37.04 493.38,37.65 C494.76,38.61 494.55,44.00 494.04,46.10 C493.16,49.57 490.01,56.18 488.28,59.03 C486.43,61.99 482.92,65.52 481.49,65.74 C480.75,64.72 481.94,59.84 483.40,56.88 C485.05,53.59 490.00,45.84 491.42,43.99 C494.10,40.54 498.77,36.18 500.04,35.48 C501.87,34.53 504.14,34.08 505.11,34.69 C506.79,35.82 506.67,41.61 505.91,44.45 C504.51,49.42 498.19,60.23 494.09,65.00 C492.20,67.17 488.15,70.97 486.85,71.83 C484.99,73.04 483.61,73.37 482.72,72.93 C482.30,71.41 485.03,66.19 487.56,63.14 C489.50,60.85 494.87,55.89 496.93,54.51 C500.31,52.31 502.84,52.33 503.75,52.83 C504.05,55.44 502.06,60.01 500.16,62.64 C497.34,66.42 488.08,73.67 484.49,75.01 C482.03,75.90 475.55,76.95 474.02,76.44 C472.04,75.74 469.32,73.67 468.56,72.27 C467.93,71.03 467.56,65.23 468.49,62.31 C469.51,59.24 473.33,53.89 475.60,51.80 C477.35,50.23 483.80,46.88 486.61,46.74 C488.36,46.69 491.59,47.32 492.34,47.96 C493.28,48.84 493.68,51.70 493.22,53.37 C492.91,54.39 489.34,58.21 487.66,59.42 C483.89,62.07 470.57,67.48 463.67,68.97 C457.62,70.25 446.19,71.21 440.38,69.78 C437.87,69.15 432.96,66.76 431.67,65.56 C430.56,64.49 427.38,59.67 426.62,56.64 C426.10,54.51 425.73,43.03 425.35,41.74 C424.01,41.54 423.06,41.88 421.94,43.15 C418.20,47.40 410.65,59.36 411.55,60.43 C411.55,60.43 412.08,60.16 412.08,60.16" fill="none" stroke="rgb(0, 0, 255)" stroke-width="3.41" stroke-opacity="1.00" stroke-linejoin="round"/>
<path d="M27.95,51.35 C27.95,51.35 26.86,51.50 26.86,51.50 C26.65,52.30 24.77,90.63 23.97,105.05 C23.60,115.37 23.39,144.32 23.37,151.65 C23.44,156.45 23.56,163.63 23.33,165.37" fill="none" stroke="rgb(255, 0, 0)" stroke-width="3.41" stroke-opacity="1.00" stroke-linejoin="round"/>
<path d="M20.29,84.01 C20.29,84.01 21.11,69.95 21.11,69.95 C20.68,78.38 21.12,107.89 22.35,125.67 C23.64,140.70 26.45,154.97 27.09,156.79 C28.01,159.39 28.80,160.55 29.66,160.69 C30.79,158.59 31.39,154.05 31.55,151.06 C31.96,143.02 30.45,111.16 28.72,92.03 C27.91,84.16 25.54,68.96 24.38,65.84 C23.28,68.57 22.85,70.20 22.85,72.13 C22.88,82.90 25.26,117.88 27.14,132.59 C28.29,140.63 30.53,151.24 31.69,153.39 C32.89,151.43 33.29,150.44 33.34,148.92 C33.83,139.46 34.44,65.80 34.62,62.52 C34.91,78.21 35.79,109.23 36.39,124.56 C37.92,149.37 38.99,154.33 39.42,155.60 C40.65,151.93 40.99,138.17 41.11,130.19 C41.49,80.64 40.98,67.04 40.38,63.37 C39.96,67.18 40.26,83.45 40.50,91.09 C41.55,110.84 44.65,142.50 46.49,153.48 C47.98,162.34 49.63,168.32 51.12,172.44 C52.30,169.89 52.79,168.38 52.80,166.65 C52.77,149.98 51.50,84.98 51.31,62.02 C51.40,76.16 52.39,105.27 53.07,120.48 C53.61,129.69 54.71,141.15 55.33,147.17 C56.57,157.30 57.95,161.48 58.49,162.41 C59.49,160.46 59.94,158.99 60.06,156.68 C60.98,125.17 62.25,79.45 62.61,65.24 C62.62,65.22 63.68,108.39 64.50,123.23 C67.76,167.16 71.09,172.95 71.66,173.17 C72.92,170.67 70.35,134.43 69.16,119.02 C67.73,98.40 66.79,64.43 67.47,62.63 C68.07,66.46 71.16,106.59 72.65,121.17 C75.31,143.23 78.79,160.74 80.07,162.63 C80.31,162.97 80.71,163.17 81.28,163.23 C82.59,161.37 83.07,149.23 83.00,140.80 C81.76,108.35 79.80,52.92 80.12,53.49 C82.23,81.54 85.88,125.45 87.58,140.64 C90.10,160.29 93.08,166.42 93.74,166.96 C95.28,165.82 95.25,152.28 94.72,143.78 C93.47,128.00 90.44,99.61 88.47,85.47 C87.51,79.14 84.96,64.52 83.87,61.09 C82.98,64.19 83.21,68.32 83.41,70.87 C84.62,86.08 87.55,114.29 89.36,128.43 C92.76,150.88 95.97,163.48 97.48,166.37 C99.00,165.46 99.75,164.24 99.99,161.98 C100.47,157.38 100.40,146.96 99.95,137.22 C97.65,106.63 94.23,72.68 93.66,69.41 C93.39,73.88 96.66,112.06 98.03,126.29 C99.29,137.19 101.22,150.11 102.58,156.23 C103.10,158.52 104.65,163.16 106.04,164.27 C107.34,162.86 108.32,158.58 108.61,156.40 C109.67,148.35 109.91,120.75 109.29,100.57 C108.42,77.57 107.67,68.62 107.40,67.71 C107.18,69.20 108.51,112.09 109.04,127.40 C109.98,145.89 111.12,156.31 111.76,158.82 C112.52,156.79 113.45,139.77 113.89,131.27 C116.95,79.10 118.55,65.54 119.15,63.08 C119.97,66.37 119.84,81.18 119.74,89.14 C119.02,143.82 119.84,147.72 120.05,147.75 C120.05,147.75 124.92,70.23 124.92,70.23 C124.34,84.40 123.95,114.49 123.91,129.91 C124.08,141.29 124.88,151.04 125.55,153.31 C126.76,153.32 128.39,137.17 129.23,115.36 C129.57,100.64 129.51,66.00 128.96,64.47 C128.06,70.19 126.31,104.36 126.07,124.39 C126.10,132.62 126.90,141.27 128.33,146.20 C128.33,146.20 129.40,146.62 129.40,146.62 C130.93,145.02 132.77,139.26 133.35,137.05 C134.79,131.47 145.37,66.64 145.81,65.50 C146.24,66.84 142.84,107.11 141.64,121.48 C141.28,128.08 140.89,143.49 140.77,151.50 C140.77,161.11 141.64,164.83 142.11,166.18 C143.32,165.86 144.00,164.80 144.40,162.38 C146.38,149.30 151.06,75.29 151.59,70.77 C151.82,74.00 151.15,116.34 150.91,132.89 C151.01,152.54 151.73,164.90 152.57,167.74 C154.03,165.36 154.92,159.24 155.46,154.89 C158.23,124.06 162.29,78.65 162.84,74.34 C162.99,74.22 160.96,117.08 160.23,134.12 C160.08,140.80 159.88,157.24 160.04,162.25 C160.48,172.49 161.44,182.06 162.82,184.25 C164.16,182.91 164.73,182.06 165.04,180.71 C166.15,175.78 168.78,136.87 169.65,122.65 C170.83,108.34 174.30,70.43 175.24,68.20 C175.87,70.04 173.89,108.14 173.22,123.09 C172.74,146.18 173.08,161.12 173.90,162.30 C175.20,160.29 176.94,146.53 177.68,140.52 C181.53,108.75 186.05,72.38 186.71,67.78 C186.93,68.05 182.99,104.78 181.25,121.19 C177.13,166.30 178.17,181.04 178.82,181.91 C179.68,180.85 183.83,145.21 185.33,130.12 C186.71,115.02 189.65,84.99 190.09,85.01 C190.10,93.18 186.64,153.98 186.17,161.52 C186.04,163.85 185.86,168.50 185.83,169.59" fill="none" stroke="rgb(255, 0, 0)" stroke-width="3.41" stroke-opacity="1.00" stroke-linejoin="round"/>
<path d="M194.75,76.74 C194.71,74.53 194.64,73.12 194.47,71.37 C194.29,69.62 193.87,68.17 192.95,65.97 C192.10,69.75 192.41,88.08 192.61,95.23 C193.38,110.83 196.03,141.75 197.75,156.34 C198.18,159.45 199.40,166.04 199.58,166.38" fill="none" stroke="rgb(255, 0, 0)" stroke-width="3.41" stroke-opacity="1.00" stroke-linejoin="round"/>
<path d="M199.48,83.96 C199.48,83.96 198.93,68.16 198.93,68.16 C198.01,68.69 197.53,69.37 197.25,70.96 C195.78,79.15 194.15,107.31 194.09,126.26 C194.27,133.69 194.74,147.75 195.03,154.39 C195.55,162.71 196.90,173.96 197.09,174.98" fill="none" stroke="rgb(255, 0, 0)" stroke-width="3.41" stroke-opacity="1.00" stroke-linejoin="round"/>
<path d="M209.32,52.47 C209.32,52.47 210.38,48.89 210.38,48.89 C210.34,54.39 209.80,89.17 209.77,104.67 C210.06,121.67 210.80,152.92 211.25,167.19 C211.47,171.02 211.75,175.92 211.81,177.00" fill="none" stroke="rgb(255, 0, 0)" stroke-width="3.41" stroke-opacity="1.00" stroke-linejoin="round"/>
<path d="M217.51,46.77 C217.51,46.77 217.83,43.63 217.83,43.63 C216.94,50.73 215.18,81.14 215.02,100.20 C215.20,115.09 216.32,143.50 217.44,160.11 C218.21,169.75 219.14,178.45 219.47,181.46" fill="none" stroke="rgb(255, 0, 0)" stroke-width="3.41" stroke-opacity="1.00" stroke-linejoin="round"/>
<path d="M221.02,89.07 C221.20,87.91 221.50,85.30 221.71,82.88 C221.82,81.60 222.40,72.13 222.61,68.52 C222.72,66.29 222.85,62.97 222.89,61.88 C222.99,64.04 222.14,105.22 222.21,120.52 C222.47,135.48 223.92,170.74 224.90,180.16 C225.18,182.83 225.60,186.11 225.83,187.63 C225.86,187.68 225.88,187.65 225.88,187.56 C225.88,187.48 225.73,145.40 225.71,131.33" fill="none" stroke="rgb(255, 0, 0)" stroke-width="3.41" stroke-opacity="1.00" stroke-linejoin="round"/>
<path d="M225.80,99.75 C225.82,97.28 225.90,91.69 225.97,88.55 C226.11,83.87 226.35,80.53 226.82,76.39 C227.07,78.92 226.40,121.86 226.23,138.16 C226.38,150.95 227.14,172.47 227.65,175.64 C228.03,172.75 227.46,156.28 227.13,147.86 C226.99,144.34 226.71,136.55 226.73,134.98 C226.77,119.01 226.81,101.80 226.82,100.56" fill="none" stroke="rgb(255, 0, 0)" stroke-width="3.41" stroke-opacity="1.00" stroke-linejoin="round"/>
<path d="M226.87,94.24 C226.87,94.24 230.64,68.54 230.64,68.54 C231.67,70.38 231.85,76.04 231.88,79.92 C231.95,96.23 232.17,129.28 232.53,144.00 C232.88,151.85 233.77,169.88 234.46,170.85 C235.13,168.40 237.25,126.16 238.04,109.70 C238.47,102.26 239.34,89.44 239.53,87.36 C239.70,87.92 240.00,127.53 240.17,145.37 C240.62,164.73 241.75,176.85 242.16,177.14 C242.36,174.94 242.08,157.37 241.91,147.91 C241.61,130.77 240.98,92.35 241.12,91.14 C241.24,105.05 241.65,134.31 241.92,149.65 C242.09,153.58 242.44,160.79 242.62,164.07 C242.77,166.96 243.09,168.77 243.19,168.94 C243.19,168.94 245.97,133.11 245.97,133.11" fill="none" stroke="rgb(255, 0, 0)" stroke-width="3.41" stroke-opacity="1.00" stroke-linejoin="round"/>
<path d="M247.00,115.15 C247.00,115.15 252.36,81.95 252.36,81.95 C252.36,81.95 251.76,164.13 251.76,164.13 C251.76,164.13 257.51,101.06 257.51,101.06 C257.51,101.06 259.72,173.54 259.72,173.54 C259.57,166.56 259.19,151.96 258.96,144.34 C258.84,127.50 259.29,94.44 261.33,86.88 C262.90,87.96 263.63,88.84 263.86,90.41 C264.37,93.90 265.60,111.71 265.87,118.71 C266.17,130.63 266.09,154.60 266.07,157.45 C266.07,158.40 266.07,159.35 266.07,160.30" fill="none" stroke="rgb(255, 0, 0)" stroke-width="3.41" stroke-opacity="1.00" stroke-linejoin="round"/>
<path d="M270.79,128.02 C271.12,124.24 271.82,116.42 272.17,112.38 C274.11,92.18 276.17,83.90 277.09,82.18 C278.13,84.46 278.39,90.05 278.40,93.93 C278.09,109.52 277.01,153.23 277.09,157.83 C277.17,161.83 277.45,163.37 277.76,164.28 C278.26,164.12 279.33,159.34 279.98,155.00 C280.15,153.90 281.04,146.05 281.39,142.86 C281.68,139.84 282.31,132.54 282.64,128.27 C283.69,113.06 284.82,96.80 284.90,95.76 C284.98,102.34 283.99,139.66 283.52,157.36 C283.45,160.50 283.35,165.74 283.58,166.84 C284.24,164.99 285.33,150.39 285.84,143.33 C286.86,126.13 289.24,86.30 290.02,84.83 C291.24,87.51 292.59,124.93 293.08,140.56 C293.36,147.71 293.89,160.19 294.54,164.13 C295.19,159.38 295.11,123.42 295.10,108.67 C295.29,100.79 295.89,82.32 296.25,79.87 C297.21,84.33 297.48,122.03 297.54,139.70 C297.57,147.58 297.66,165.39 297.74,167.87 C297.80,169.36 297.90,171.79 297.95,172.74" fill="none" stroke="rgb(255, 0, 0)" stroke-width="3.41" stroke-opacity="1.00" stroke-linejoin="round"/>
<path d="M306.52,108.33 C306.35,109.85 306.34,110.72 306.49,112.60 C306.77,116.18 307.55,158.58 307.84,175.14 C307.98,178.65 308.41,183.01 308.76,185.31 C309.30,183.60 309.39,176.51 309.43,172.11 C309.44,168.94 309.46,161.96 309.47,158.14 C309.67,149.84 310.21,133.33 310.55,125.12 C311.87,102.74 313.68,88.93 314.71,86.12 C315.75,89.94 315.60,103.77 315.48,110.55 C314.09,171.46 314.30,182.27 314.81,188.44 C315.94,184.09 316.03,166.85 315.99,158.56 C315.65,129.96 316.16,86.45 316.64,81.73 C317.46,81.84 316.83,120.86 316.53,137.87 C316.42,154.26 316.32,171.59 316.32,172.51" fill="none" stroke="rgb(255, 0, 0)" stroke-width="3.41" stroke-opacity="1.00" stroke-linejoin="round"/>
<path d="M320.70,100.77 C319.77,97.53 319.31,94.61 319.13,93.54 C318.73,91.12 318.40,89.74 318.03,88.93 C317.94,91.96 321.98,129.62 323.86,146.14 C326.56,168.43 327.79,172.56 328.35,173.80 C328.46,173.42 328.52,172.63 328.48,171.79 C327.64,159.76 326.40,136.30 326.06,129.59" fill="none" stroke="rgb(255, 0, 0)" stroke-width="3.41" stroke-opacity="1.00" stroke-linejoin="round"/>
<path d="M324.65,98.34 C324.59,95.19 324.51,88.03 324.63,83.64 C324.76,79.66 325.00,72.93 324.80,70.04 C323.51,76.04 323.77,108.18 324.62,125.02 C325.74,142.86 327.91,155.30 328.71,156.77 C329.39,156.56 329.71,153.09 329.93,147.34 C330.01,144.56 330.03,135.85 330.01,131.98 C329.96,128.14 329.88,120.82 329.83,117.32 C329.26,90.63 328.93,86.27 328.75,84.92 C328.20,87.30 328.53,123.43 329.48,142.25 C330.16,152.41 331.82,165.28 333.40,168.87 C334.75,167.73 335.37,166.74 335.58,165.09 C335.79,163.46 335.96,161.33 336.06,159.92" fill="none" stroke="rgb(255, 0, 0)" stroke-width="3.41" stroke-opacity="1.00" stroke-linejoin="round"/>
<path d="M343.51,85.66 C342.51,86.24 341.51,87.58 340.62,89.66 C339.58,92.14 337.80,105.24 337.12,116.41 C336.81,123.71 336.94,137.17 337.08,144.77 C337.84,164.57 339.44,169.40 339.94,170.51 C340.92,168.29 341.20,162.59 341.27,159.20 C341.33,126.66 341.32,85.01 341.24,75.89 C340.97,77.87 341.40,116.01 341.72,130.05 C342.68,151.01 344.85,171.55 345.68,171.92 C346.35,170.24 349.96,130.73 351.54,113.75 C352.71,103.30 356.29,77.85 357.58,70.53 C356.38,85.35 353.60,121.59 353.18,131.58 C352.68,150.85 353.41,169.99 354.87,175.93 C356.21,173.38 356.57,167.61 356.70,164.86 C356.94,159.37 356.83,106.32 356.51,99.87 C355.36,81.53 354.14,77.94 353.60,76.84 C352.38,79.01 351.41,90.83 350.97,101.79 C350.69,117.28 351.89,139.52 352.75,147.50 C353.07,150.31 354.10,154.96 355.00,155.41 C355.76,154.32 356.21,153.40 356.48,152.12 C357.02,149.54 357.79,143.35 358.17,140.16 C358.81,133.64 360.13,118.59 360.80,110.06 C361.92,94.81 363.11,78.57 363.18,77.58 C363.21,77.67 361.25,117.61 360.92,133.48 C360.90,140.78 360.93,154.75 361.33,160.30 C361.79,165.98 362.49,169.96 363.45,170.36 C364.77,168.58 366.94,154.24 368.20,142.86 C370.38,121.30 373.26,81.17 373.05,80.86 C371.93,88.05 369.57,123.81 369.04,139.31 C368.51,163.17 370.25,167.54 370.75,167.72 C372.11,164.82 373.29,153.42 374.00,142.22 C376.01,102.00 375.31,81.41 375.21,80.38 C374.95,85.86 375.06,125.98 375.19,143.49 C375.39,150.07 375.87,163.99 376.66,167.90 C377.63,166.75 378.26,161.61 378.65,158.40 C379.04,154.71 379.75,147.73 380.06,144.44 C380.61,138.16 381.25,121.75 381.51,114.28 C381.74,106.10 382.04,95.38 382.11,92.84" fill="none" stroke="rgb(255, 0, 0)" stroke-width="3.41" stroke-opacity="1.00" stroke-linejoin="round"/>
<path d="M382.51,82.69 C382.51,82.69 385.74,66.03 385.74,66.03 C384.45,73.31 382.76,108.86 382.47,122.69 C382.48,130.05 382.66,145.24 382.85,153.07 C383.10,160.83 384.32,166.52 384.58,167.68 C385.89,167.14 386.52,166.38 386.82,164.51 C388.44,154.33 390.25,122.92 391.04,107.29 C391.31,100.54 391.80,89.40 392.02,85.00 C392.37,90.33 391.43,130.15 390.99,145.63 C390.73,157.61 391.00,166.52 391.46,167.15 C392.23,165.97 394.82,151.83 396.14,142.57 C397.98,126.64 401.72,92.28 402.15,85.71 C402.16,85.66 400.90,133.15 401.08,139.33 C401.52,149.44 402.51,161.55 404.31,163.22 C404.47,163.37 404.80,163.53 405.31,163.70 C405.31,163.70 409.14,157.21 409.14,157.21" fill="none" stroke="rgb(255, 0, 0)" stroke-width="3.41" stroke-opacity="1.00" stroke-linejoin="round"/>
<path d="M414.00,73.28 C414.00,73.28 414.11,72.59 414.11,72.59 C414.23,73.05 410.86,112.37 409.93,127.88 C409.04,146.76 408.89,165.84 409.33,167.04 C410.52,165.12 412.71,129.12 413.23,112.08 C413.47,99.26 413.41,92.53 412.78,89.32 C411.87,92.79 411.41,107.53 411.27,114.39 C411.28,122.09 411.48,137.76 411.67,145.74 C412.30,161.56 414.67,170.81 415.36,171.02 C416.47,169.40 417.80,155.85 418.11,147.85 C418.21,118.09 418.29,87.44 418.26,86.54 C418.18,86.45 419.48,126.08 420.08,141.08 C420.52,147.67 421.77,163.62 423.19,168.71 C424.02,166.79 424.35,165.68 424.58,163.83 C425.42,157.00 426.70,143.91 427.30,137.28 C428.72,119.86 431.51,85.66 431.79,85.90 C431.91,88.58 432.17,135.39 432.50,146.77 C432.84,153.81 433.62,163.17 434.48,163.53 C435.73,160.94 437.23,121.80 437.53,104.92 C437.57,94.95 437.02,86.64 436.45,85.81 C435.10,87.79 433.14,119.96 432.93,137.86 C432.95,156.86 433.96,167.53 434.41,168.14 C435.08,165.61 440.28,123.88 442.43,106.91 C445.92,83.74 447.28,79.46 447.59,79.24 C448.13,83.44 445.65,121.80 444.48,136.86 C444.02,144.09 443.14,159.37 443.73,162.69 C445.01,160.88 446.83,150.67 448.35,138.14 C450.21,121.26 452.87,97.18 453.28,94.20 C453.53,94.08 451.37,145.71 451.46,151.48 C451.52,154.97 451.76,156.64 452.06,157.90 C452.99,157.61 453.46,157.05 453.76,155.54 C455.31,147.55 460.27,90.37 460.45,88.74 C460.78,88.28 460.13,140.85 460.19,144.03 C460.62,164.23 462.66,170.09 463.04,170.10 C463.04,170.10 463.38,169.19 463.38,169.19" fill="none" stroke="rgb(255, 0, 0)" stroke-width="3.41" stroke-opacity="1.00" stroke-linejoin="round"/>
<path d="M468.15,71.97 C466.58,75.77 465.05,86.48 464.12,96.65 C462.97,111.44 461.15,147.37 461.22,153.63 C461.31,160.74 462.15,162.15 462.64,162.44 C464.03,161.12 466.30,149.37 467.51,139.97 C469.48,123.60 473.49,90.24 473.86,88.27 C474.29,90.61 473.43,133.43 474.15,143.43 C474.61,148.66 475.31,153.31 476.13,155.28 C477.42,154.84 478.08,154.09 478.49,152.35 C479.53,147.83 481.45,130.59 481.61,127.73 C482.30,111.40 483.66,77.96 483.82,76.72 C483.82,76.72 488.03,148.46 488.03,148.46 C489.50,146.88 490.70,142.05 491.58,137.84 C494.88,121.37 502.13,85.49 503.28,85.24 C503.78,88.48 498.88,139.75 498.62,144.21 C498.44,147.47 498.56,152.44 499.16,153.12 C500.44,151.66 502.52,140.35 504.19,129.50 C506.64,113.71 509.48,95.51 510.11,93.27 C510.87,94.47 510.84,99.54 510.78,103.17 C510.61,110.97 508.18,150.75 508.02,154.95 C508.67,136.38 511.21,106.91 513.06,96.51 C514.65,87.76 516.72,83.88 517.33,83.30 C518.13,83.70 518.70,88.15 518.66,92.53 C518.57,99.64 514.46,141.15 513.22,148.17 C513.06,147.16 513.04,146.70 513.11,145.28 C513.16,144.25 513.21,143.07 513.26,141.73 C513.65,125.45 514.18,102.78 514.33,96.39" fill="none" stroke="rgb(255, 0, 0)" stroke-width="3.41" stroke-opacity="1.00" stroke-linejoin="round"/>
</g>
</svg>
