<?xml version="1.0" encoding="UTF-8" standalone="no"?>
<!DOCTYPE svg PUBLIC "-//W3C//DTD SVG 1.1//EN" "http://www.w3.org/Graphics/SVG/1.1/DTD/svg11.dtd">
<svg width="128.40" height="181.68" viewBox="0.00 0.00 535.00 757.00" xmlns="http://www.w3.org/2000/svg" xmlns:xlink="http://www.w3.org/1999/xlink">
<g stroke-linecap="round" id="218">
<path d="M239.32,320.11 C239.32,320.11 239.32,320.02 239.32,320.02 C239.20,320.05 238.67,320.39 238.12,320.83 C236.39,322.24 232.28,326.15 230.50,328.24 C228.43,330.69 225.37,335.21 224.07,338.73 C222.23,343.80 220.33,357.37 219.76,360.59 C218.38,368.33 218.76,372.34 219.01,373.45 C220.33,373.73 221.47,373.21 222.84,371.53 C226.04,367.61 228.72,360.37 232.07,349.26 C235.21,338.62 238.99,324.29 239.54,323.15 C239.76,322.70 240.56,321.16 240.66,320.44 C240.72,319.96 240.62,319.17 240.54,318.93 C239.90,323.88 239.73,340.28 239.99,345.58 C240.17,349.00 241.18,354.25 241.77,356.05 C242.92,359.49 247.82,366.65 249.65,368.15 C250.87,369.14 252.17,369.56 253.47,369.56 C254.65,369.02 255.69,367.69 256.27,365.79 C257.23,362.51 256.44,340.44 256.22,337.46 C255.87,332.96 254.30,325.69 253.57,323.66 C252.45,320.58 249.19,315.08 247.18,313.47 C245.45,312.13 242.86,311.21 242.24,311.34" fill="none" stroke="rgb(0, 255, 0)" stroke-width="3.95" stroke-opacity="1.00" stroke-linejoin="round"/>
<path d="M220.78,377.05 C220.68,377.05 220.61,377.07 220.55,377.10 C220.49,377.13 220.36,377.20 220.18,377.33 C220.15,377.36 220.11,377.39 220.07,377.42 C219.53,375.97 218.76,373.91 218.05,372.17 C216.13,367.52 214.46,363.97 212.76,362.78 C211.06,363.84 210.25,365.01 210.29,367.02 C210.38,370.25 211.65,376.57 212.59,379.99 C213.56,383.44 215.55,387.00 216.71,387.46 C217.90,387.85 220.24,386.02 220.66,384.35 C221.02,382.84 221.36,379.88 221.44,377.94 C221.49,376.48 221.56,374.93 221.64,373.82" fill="none" stroke="rgb(0, 255, 0)" stroke-width="3.95" stroke-opacity="1.00" stroke-linejoin="round"/>
<path d="M253.16,373.25 C253.16,373.25 252.89,372.71 252.89,372.71 C253.35,371.28 253.72,370.32 254.46,368.69 C258.64,359.41 261.91,352.58 264.16,349.75 C264.18,350.69 257.95,379.59 257.14,381.52 C256.41,383.22 254.61,383.39 254.28,383.21" fill="none" stroke="rgb(0, 255, 0)" stroke-width="3.95" stroke-opacity="1.00" stroke-linejoin="round"/>
<path d="M222.72,383.20 C222.68,383.14 222.64,383.10 222.60,383.09 C222.56,383.07 222.48,383.07 222.34,383.06 C221.95,383.38 221.71,384.43 221.74,386.11 C221.83,390.81 224.70,401.56 226.08,403.84 C226.97,405.23 228.95,406.88 230.12,407.14 C231.34,407.38 233.18,406.76 235.09,405.72" fill="none" stroke="rgb(0, 255, 0)" stroke-width="3.95" stroke-opacity="1.00" stroke-linejoin="round"/>
<path d="M246.25,373.18 C246.25,373.18 245.60,367.21 245.60,367.21" fill="none" stroke="rgb(0, 255, 0)" stroke-width="3.95" stroke-opacity="1.00" stroke-linejoin="round"/>
<path d="M234.75,408.93 C234.76,408.70 234.76,408.51 234.75,408.34 C234.73,407.94 234.65,406.88 234.64,406.63 C234.64,406.63 232.64,426.90 232.64,426.90 C232.10,425.31 231.05,424.10 227.62,423.51 C226.99,423.41 220.83,422.20 219.35,421.47 C218.32,420.96 214.21,418.81 213.91,418.85 C212.94,421.36 212.96,424.45 213.12,428.32 C214.17,451.50 213.78,474.71 213.61,489.78 C213.58,506.42 215.43,512.76 215.64,513.22 C215.64,513.22 220.65,511.33 220.65,511.33 C220.65,509.43 219.88,498.85 220.10,487.90 C220.58,472.44 221.87,448.83 222.04,446.63 C222.15,445.33 222.13,445.01 222.02,444.66 C222.02,444.66 221.94,444.65 221.94,444.65" fill="none" stroke="rgb(0, 255, 0)" stroke-width="3.95" stroke-opacity="1.00" stroke-linejoin="round"/>
<path d="M237.62,407.66 C237.62,407.66 239.92,422.76 239.92,422.76 C242.49,419.92 244.88,417.61 247.04,416.11 C249.37,414.52 254.27,411.60 255.51,411.43 C257.47,413.71 258.35,447.19 258.74,459.70 C258.75,467.65 258.79,483.39 260.19,488.69 C262.07,494.55 264.87,503.60 265.97,505.54 C266.57,506.60 269.21,509.96 269.35,510.18 C270.30,511.70 270.57,513.14 270.19,513.70 C268.33,513.39 267.09,512.58 265.63,510.41 C263.43,507.15 261.16,503.27 261.10,503.32 C261.52,504.63 264.61,510.73 266.37,513.73 C269.19,518.58 271.69,528.48 271.53,528.95 C270.56,528.53 269.11,525.58 268.26,521.96 C268.05,521.02 265.61,518.24 265.69,518.19 C265.69,518.19 265.44,532.70 265.44,532.70 C265.44,532.70 262.31,518.09 262.31,518.09 C262.31,518.09 261.27,531.87 261.27,531.87 C261.27,531.87 257.20,518.15 257.20,518.15 C257.20,518.15 256.64,528.37 256.64,528.37 C256.03,526.90 251.32,470.33 250.36,451.94 C249.93,446.38 249.29,441.29 248.33,439.98 C248.20,439.82 248.00,439.68 247.72,439.59" fill="none" stroke="rgb(0, 255, 0)" stroke-width="3.95" stroke-opacity="1.00" stroke-linejoin="round"/>
<path d="M214.13,509.00 C214.24,508.52 214.31,508.23 214.34,508.12 C214.37,508.01 214.41,507.92 214.45,507.85 C214.44,508.12 213.99,509.19 213.17,510.82 C213.07,511.02 208.83,519.12 208.04,521.36 C207.22,523.85 208.06,526.85 208.96,527.85 C210.13,527.68 211.13,526.73 212.03,524.59 C212.66,522.99 213.57,520.69 214.19,519.49 C215.08,520.26 214.16,523.14 212.26,528.82 C210.00,535.66 210.33,537.83 210.61,538.15 C211.32,537.91 212.92,535.68 213.91,533.18 C214.33,532.10 217.83,522.41 218.27,522.20 C218.27,523.15 217.31,530.24 216.83,533.85 C216.28,538.40 216.16,541.42 217.03,542.09 C219.53,540.69 220.20,520.10 220.24,518.83 C220.24,518.83 222.95,539.23 222.95,539.23 C222.95,539.23 224.08,527.36 224.08,527.36 C224.08,527.36 225.88,531.75 225.88,531.75 C226.66,531.22 225.76,524.13 223.98,513.54 C223.49,510.63 221.67,496.29 220.75,494.87 C220.47,494.83 220.31,494.80 220.26,494.79 C220.25,494.79 220.23,494.79 220.24,494.79" fill="none" stroke="rgb(0, 255, 0)" stroke-width="3.95" stroke-opacity="1.00" stroke-linejoin="round"/>
<path d="M224.62,496.38 C224.55,496.22 224.49,496.09 224.44,495.99 C224.25,495.58 224.21,495.41 224.27,495.26 C224.90,495.58 228.39,500.52 229.26,501.53 C230.36,502.77 232.41,504.07 233.66,504.23 C235.48,504.40 245.33,501.86 247.63,500.78 C249.88,499.69 250.35,498.17 250.52,496.88 C250.54,496.70 250.56,496.57 250.58,496.50" fill="none" stroke="rgb(0, 255, 0)" stroke-width="3.95" stroke-opacity="1.00" stroke-linejoin="round"/>
<path d="M227.74,508.41 C228.10,507.62 228.34,507.07 228.45,506.78 C228.62,506.34 228.98,505.27 229.01,505.32 C228.88,511.02 229.32,525.46 229.59,533.09 C230.05,554.19 231.36,575.45 231.39,576.67 C231.44,579.84 229.46,597.08 230.40,597.30 C230.40,597.30 230.37,596.11 230.37,596.11" fill="none" stroke="rgb(0, 255, 0)" stroke-width="3.95" stroke-opacity="1.00" stroke-linejoin="round"/>
<path d="M240.95,527.76 C241.02,528.04 241.34,528.71 241.35,528.74 C241.47,529.36 241.39,534.49 240.82,543.17 C240.44,551.44 239.76,568.15 239.47,576.59 C239.21,587.74 239.82,595.46 239.83,596.02 C239.84,596.34 239.83,596.97 239.79,597.92 C239.79,597.92 239.55,597.77 239.55,597.77 C239.55,597.77 239.67,597.14 239.67,597.14" fill="none" stroke="rgb(0, 255, 0)" stroke-width="3.95" stroke-opacity="1.00" stroke-linejoin="round"/>
<path d="M242.53,531.79 C242.53,531.81 242.53,531.74 242.53,531.72 C242.41,529.61 242.49,528.48 242.55,528.51 C244.59,529.16 247.13,540.02 249.35,551.57 C253.22,572.35 255.98,598.38 257.41,599.91 C258.88,599.83 262.11,596.58 262.51,594.53 C263.17,590.85 262.28,575.79 261.79,568.58 C261.19,560.00 259.69,539.17 259.46,537.17 C258.95,532.88 257.60,529.66 256.81,529.41 C256.81,529.41 256.26,529.94 256.26,529.94" fill="none" stroke="rgb(0, 255, 0)" stroke-width="3.95" stroke-opacity="1.00" stroke-linejoin="round"/>
<path d="M226.12,599.30 C226.12,599.30 225.94,597.47 225.94,597.47 C225.94,597.47 222.12,603.11 222.12,603.11 C222.12,603.11 222.78,604.34 222.78,604.34 C224.28,604.88 229.10,604.34 231.81,603.54 C234.38,602.76 239.43,600.10 240.32,598.61 C240.97,597.47 240.97,595.16 240.48,593.39 C240.39,593.09 240.28,592.89 240.14,592.80" fill="none" stroke="rgb(0, 255, 0)" stroke-width="3.95" stroke-opacity="1.00" stroke-linejoin="round"/>
<path d="M229.69,596.45 C229.69,596.45 228.12,596.88 228.12,596.88 C230.38,598.69 238.44,592.50 239.59,591.32 C239.82,591.06 240.14,590.68 240.54,590.17" fill="none" stroke="rgb(0, 255, 0)" stroke-width="3.95" stroke-opacity="1.00" stroke-linejoin="round"/>
<path d="M256.78,595.10 C256.41,595.18 256.05,595.26 255.69,595.35 C255.13,595.47 254.99,595.54 254.87,595.69 C254.85,595.93 254.83,596.10 254.82,596.18 C254.78,596.46 254.40,599.16 254.42,599.80 C254.45,600.61 255.10,601.69 255.47,601.82 C256.71,602.13 259.94,601.01 262.35,599.49 C268.38,595.65 270.11,592.60 270.25,591.82 C269.73,590.89 267.20,590.22 264.09,589.93 C263.18,589.84 260.12,589.68 259.82,589.64 C259.55,589.61 259.10,589.52 258.47,589.39 C258.47,589.39 258.40,589.27 258.40,589.27" fill="none" stroke="rgb(0, 255, 0)" stroke-width="3.95" stroke-opacity="1.00" stroke-linejoin="round"/>
<path d="M227.17,372.97 C227.18,372.88 227.18,372.81 227.19,372.76 C227.19,372.71 227.19,372.61 227.19,372.47 C227.19,372.47 226.96,372.50 226.96,372.50 C226.07,373.33 225.02,375.77 225.41,376.43 C225.82,377.02 227.53,376.92 228.62,376.37 C229.73,375.77 231.13,374.01 231.16,373.14 C231.17,372.21 229.93,371.22 229.04,371.43 C226.65,372.09 226.36,375.69 227.00,376.21 C229.02,376.40 229.71,374.04 229.69,373.53 C227.52,372.35 227.48,375.43 227.64,375.86 C227.64,375.86 229.61,373.72 229.61,373.72 C229.61,373.72 228.26,375.36 228.26,375.36 C229.05,375.73 229.58,375.65 229.97,374.94 C230.33,374.28 230.40,373.61 230.28,372.93 C229.10,372.58 228.46,372.62 227.98,373.16 C227.29,373.95 227.18,374.41 227.22,374.60 C227.22,374.60 227.32,374.69 227.32,374.69" fill="none" stroke="rgb(0, 255, 0)" stroke-width="3.95" stroke-opacity="1.00" stroke-linejoin="round"/>
<path d="M239.94,369.67 C239.94,369.67 239.56,369.33 239.56,369.33 C239.22,369.64 238.44,372.97 238.55,373.60 C238.57,373.69 238.63,373.90 238.74,374.23 C239.92,374.54 241.76,373.04 242.55,371.82 C243.49,370.35 243.57,369.25 243.44,368.72 C242.28,368.69 241.52,368.93 240.88,369.64 C239.83,370.84 239.41,372.83 240.16,373.64 C241.27,373.97 243.72,372.46 244.46,371.01 C245.13,369.63 244.53,368.01 244.00,367.85 C242.94,367.60 240.51,369.97 240.14,371.53 C239.99,372.19 240.31,373.26 240.64,373.45 C240.89,373.59 242.10,373.37 242.90,372.45 C243.85,371.31 243.55,369.39 242.90,369.06 C240.60,368.31 239.26,371.74 239.26,372.37 C240.59,372.79 241.72,369.42 240.71,369.51 C240.00,369.60 238.57,370.57 238.56,370.61" fill="none" stroke="rgb(0, 255, 0)" stroke-width="3.95" stroke-opacity="1.00" stroke-linejoin="round"/>
<path d="M234.30,383.96 C234.30,383.96 233.68,383.76 233.68,383.76 C233.68,383.76 233.83,389.22 233.83,389.22 C233.83,389.22 233.74,383.49 233.74,383.49 C233.64,385.14 233.61,386.51 233.73,386.92 C233.83,387.27 234.15,387.57 234.19,387.52" fill="none" stroke="rgb(0, 255, 0)" stroke-width="3.95" stroke-opacity="1.00" stroke-linejoin="round"/>
<path d="M233.61,393.67 C233.47,393.01 233.38,392.61 233.35,392.48 C233.32,392.34 233.29,392.29 233.28,392.33 C233.28,392.33 234.82,393.39 234.82,393.39" fill="none" stroke="rgb(0, 255, 0)" stroke-width="3.95" stroke-opacity="1.00" stroke-linejoin="round"/>
<path d="M236.82,389.36 C236.82,389.36 231.70,393.03 231.70,393.03 C231.70,393.03 232.62,393.63 232.62,393.63" fill="none" stroke="rgb(0, 255, 0)" stroke-width="3.95" stroke-opacity="1.00" stroke-linejoin="round"/>
<path d="M231.39,393.38 C231.39,393.38 231.03,392.69 231.03,392.69 C230.94,393.99 232.92,394.99 235.25,395.50" fill="none" stroke="rgb(0, 255, 0)" stroke-width="3.95" stroke-opacity="1.00" stroke-linejoin="round"/>
<path d="M235.00,328.66 C235.00,328.44 234.99,328.29 234.97,328.21 C234.94,328.13 234.87,328.01 234.74,327.84 C234.28,328.20 233.67,329.13 232.33,331.59 C228.18,339.25 224.13,347.53 222.78,352.20 C221.64,356.25 221.78,357.89 222.07,358.43 C222.07,358.43 225.53,352.60 225.53,352.60" fill="none" stroke="rgb(0, 255, 0)" stroke-width="3.95" stroke-opacity="1.00" stroke-linejoin="round"/>
<path d="M232.05,333.61 C232.20,332.92 232.31,332.47 232.38,332.26 C232.45,332.04 232.58,331.76 232.76,331.41 C233.00,331.64 232.18,334.44 230.62,338.38 C226.26,349.35 224.01,355.98 223.44,359.58 C223.40,359.85 223.34,360.34 223.26,361.05 C223.36,360.87 223.42,360.76 223.45,360.70 C223.48,360.64 223.51,360.55 223.56,360.44" fill="none" stroke="rgb(0, 255, 0)" stroke-width="3.95" stroke-opacity="1.00" stroke-linejoin="round"/>
<path d="M245.19,318.87 C244.62,319.26 244.56,322.51 244.34,324.74 C242.95,339.38 244.55,356.31 244.97,356.55 C244.97,356.55 245.14,353.75 245.14,353.75" fill="none" stroke="rgb(0, 255, 0)" stroke-width="3.95" stroke-opacity="1.00" stroke-linejoin="round"/>
<path d="M243.44,320.43 C243.44,320.43 243.12,320.04 243.12,320.04 C243.12,320.04 242.59,320.55 242.59,320.55 C242.01,323.66 244.12,337.46 246.50,349.60 C247.70,355.50 248.64,359.43 248.94,359.59 C249.67,357.56 249.60,353.87 249.39,349.60 C249.29,347.58 249.06,343.46 248.93,341.37 C248.80,339.30 248.51,335.54 248.35,333.94 C247.98,330.37 247.63,328.63 247.23,327.07 C246.64,333.24 251.20,355.64 252.68,359.46 C253.21,356.64 252.36,350.90 251.63,346.53 C250.40,339.75 247.57,324.85 247.18,323.15 C247.18,323.15 254.72,348.31 254.72,348.31 C254.69,346.15 254.62,344.72 254.47,343.46 C254.41,343.01 254.36,342.56 254.30,342.12" fill="none" stroke="rgb(0, 255, 0)" stroke-width="3.95" stroke-opacity="1.00" stroke-linejoin="round"/>
<path d="M251.01,326.40 C251.01,326.40 250.48,323.91 250.48,323.91 C251.24,327.23 252.55,332.00 254.12,337.02 C255.20,340.39 256.70,344.25 257.26,345.58" fill="none" stroke="rgb(0, 255, 0)" stroke-width="3.95" stroke-opacity="1.00" stroke-linejoin="round"/>
<path d="M249.56,366.94 C249.56,366.94 249.03,367.00 249.03,367.00 C248.96,367.05 248.68,368.62 248.46,369.84 C248.34,370.48 247.71,373.13 247.48,374.09" fill="none" stroke="rgb(0, 255, 0)" stroke-width="3.95" stroke-opacity="1.00" stroke-linejoin="round"/>
<path d="M229.90,370.98 C228.48,371.03 227.78,371.09 226.97,371.26 C225.78,371.55 224.16,372.25 223.58,372.94 C222.90,373.77 222.30,375.67 222.44,376.31 C222.86,377.72 225.35,378.55 227.61,378.05 C229.47,377.61 232.47,375.81 232.77,374.92 C233.02,374.06 231.43,372.19 229.78,371.54 C228.18,370.94 225.10,371.09 224.32,371.99 C223.97,372.44 223.85,373.78 224.10,374.39 C224.47,375.17 225.61,376.00 226.57,376.15 C228.28,376.37 230.98,374.61 231.18,373.15 C229.70,371.94 228.77,371.52 227.82,371.85 C225.76,372.59 225.22,374.01 225.23,374.87 C227.10,375.93 228.22,376.20 229.22,375.60 C230.40,374.91 231.02,374.14 231.42,373.06 C230.44,371.48 229.64,370.87 228.63,371.22 C227.56,371.60 226.85,372.29 226.37,373.23 C227.59,374.58 228.59,374.96 229.71,374.22 C231.50,373.01 231.70,370.65 230.95,370.21 C227.98,368.83 226.27,372.80 226.21,373.86 C227.79,374.70 228.84,374.78 229.92,373.95 C230.86,373.23 231.39,372.48 231.84,371.41 C231.06,369.89 230.47,369.23 229.60,369.30 C229.43,369.31 228.81,369.38 227.71,369.52 C227.71,369.52 233.08,370.13 233.08,370.13 C232.33,371.62 228.41,372.22 226.58,372.18 C226.18,371.19 228.76,370.37 229.75,370.15 C229.75,370.15 226.29,372.17 226.29,372.17 C226.29,372.17 229.94,372.30 229.94,372.30" fill="none" stroke="rgb(0, 255, 0)" stroke-width="3.95" stroke-opacity="1.00" stroke-linejoin="round"/>
<path d="M247.74,367.82 C247.75,367.53 247.75,367.31 247.72,367.17 C247.69,367.03 247.60,366.76 247.45,366.37 C246.40,365.86 245.68,365.67 245.04,365.83 C243.71,366.20 241.04,368.21 239.94,369.74 C238.75,371.43 238.65,372.54 238.87,373.10 C239.83,373.41 242.96,371.58 244.79,369.67 C246.70,367.64 247.10,366.02 247.00,365.69 C245.93,365.11 241.89,367.51 240.60,369.34 C240.01,370.20 239.78,371.34 239.94,371.62 C240.57,371.99 243.51,370.88 244.80,368.99 C245.41,368.08 245.81,366.43 245.63,366.03 C245.11,365.18 242.00,365.48 239.99,367.34 C238.24,368.99 237.94,370.80 238.08,371.21 C238.08,371.21 238.58,371.29 238.58,371.29" fill="none" stroke="rgb(0, 255, 0)" stroke-width="3.95" stroke-opacity="1.00" stroke-linejoin="round"/>
<path d="M234.38,406.22 C234.38,406.22 234.34,406.39 234.34,406.39 C234.34,406.39 234.50,406.21 234.50,406.21 C234.50,406.21 234.95,407.23 234.95,407.23 C236.24,407.02 237.01,406.62 237.88,405.54 C242.85,399.40 254.06,383.65 255.21,381.22 C256.14,379.26 257.22,374.07 258.35,372.06 C258.35,372.06 257.78,371.56 257.78,371.56" fill="none" stroke="rgb(0, 255, 0)" stroke-width="3.95" stroke-opacity="1.00" stroke-linejoin="round"/>
<path d="M247.56,377.24 C247.06,376.74 244.28,377.11 243.27,378.08 C242.06,379.28 242.06,382.82 242.84,383.39 C243.68,383.92 246.66,383.68 248.20,382.96 C249.74,382.21 251.59,379.92 251.67,378.75 C251.69,377.69 250.03,376.33 248.69,376.33 C247.19,376.37 245.20,377.46 244.77,377.97 C244.61,378.17 244.43,378.55 244.25,379.12 C244.25,379.12 244.33,379.21 244.33,379.21" fill="none" stroke="rgb(0, 255, 0)" stroke-width="3.95" stroke-opacity="1.00" stroke-linejoin="round"/>
<path d="M245.63,377.54 C245.63,377.54 244.88,377.39 244.88,377.39 C244.88,377.39 244.65,384.81 244.65,384.81 C244.65,384.81 246.73,377.50 246.73,377.50 C246.73,377.50 247.67,381.68 247.67,381.68 C247.67,381.68 247.86,381.56 247.86,381.56 C247.86,381.56 247.78,381.58 247.78,381.58" fill="none" stroke="rgb(0, 255, 0)" stroke-width="3.95" stroke-opacity="1.00" stroke-linejoin="round"/>
<path d="M228.16,383.72 C228.16,383.72 228.23,381.45 228.23,381.45 C227.37,381.08 224.38,382.01 223.36,382.89 C222.69,383.48 222.41,384.29 222.48,384.99 C223.40,386.19 227.41,386.42 230.06,385.47 C232.60,384.51 234.11,383.03 234.68,382.21 C234.04,380.97 233.39,380.38 232.21,380.21 C230.02,379.90 227.02,380.30 226.41,380.77 C226.41,380.77 226.43,381.05 226.43,381.05 C226.43,381.05 226.96,381.10 226.96,381.10" fill="none" stroke="rgb(0, 255, 0)" stroke-width="3.95" stroke-opacity="1.00" stroke-linejoin="round"/>
<path d="M227.65,380.96 C227.46,380.76 226.40,380.99 226.04,381.89 C224.99,384.57 225.45,387.05 225.71,387.28 C226.59,387.08 227.30,386.08 228.09,383.73 C228.22,383.35 228.47,382.56 228.84,381.35 C229.00,382.06 229.15,384.30 229.24,385.92 C229.30,386.68 229.40,387.33 229.53,387.87 C229.57,388.02 229.61,388.09 229.65,388.07 C229.65,388.07 229.63,387.89 229.63,387.89" fill="none" stroke="rgb(0, 255, 0)" stroke-width="3.95" stroke-opacity="1.00" stroke-linejoin="round"/>
<path d="M231.65,381.68 C231.65,381.68 231.29,381.04 231.29,381.04 C231.22,381.10 231.13,381.38 231.10,382.04 C230.99,385.92 230.75,387.12 230.54,387.74" fill="none" stroke="rgb(0, 255, 0)" stroke-width="3.95" stroke-opacity="1.00" stroke-linejoin="round"/>
<path d="M151.83,223.40 C151.83,223.40 150.86,222.45 150.86,222.45 C150.84,222.24 150.83,222.11 150.81,222.05 C150.80,221.99 150.77,221.93 150.72,221.87 C150.22,224.46 149.77,227.67 149.13,233.31 C148.02,244.42 146.38,274.25 146.24,291.73 C146.33,306.58 146.68,338.28 146.95,355.13 C148.03,387.60 149.70,450.28 150.29,480.50 C150.60,492.80 151.01,556.56 150.35,571.08 C149.37,584.94 147.53,610.49 147.52,623.93 C147.63,632.59 148.36,641.94 149.61,651.45 C150.16,654.97 151.48,663.13 151.52,663.42 C151.55,663.66 151.58,664.02 151.61,664.50 C151.61,664.50 151.18,662.91 151.18,662.91" fill="none" stroke="rgb(255, 0, 255)" stroke-width="3.95" stroke-opacity="1.00" stroke-linejoin="round"/>
<path d="M153.48,230.76 C153.48,230.76 154.94,228.98 154.94,228.98 C154.94,231.48 154.97,232.95 155.06,234.86 C155.47,244.37 155.20,250.79 154.30,261.21 C153.77,267.81 152.77,282.64 152.87,286.13 C153.03,291.16 155.74,330.37 156.01,349.61 C156.09,370.15 154.85,394.11 153.95,410.26 C153.23,427.41 153.74,458.07 154.12,472.41 C154.27,487.62 152.39,547.63 151.76,563.10 C151.47,572.66 153.89,611.77 153.80,620.20 C153.32,636.97 152.56,664.82 152.85,668.55 C153.00,670.50 153.50,672.11 154.23,673.68 C154.23,673.68 154.51,673.57 154.51,673.57" fill="none" stroke="rgb(255, 0, 255)" stroke-width="3.95" stroke-opacity="1.00" stroke-linejoin="round"/>
<path d="M384.93,232.16 C384.93,232.16 384.33,231.22 384.33,231.22 C384.33,231.19 384.37,231.26 384.38,231.29 C385.45,235.02 385.91,246.65 385.52,255.56 C384.76,269.32 383.12,300.48 382.24,317.88 C381.31,350.35 380.89,408.96 380.75,438.99 C380.30,469.94 379.97,540.02 379.32,564.36 C378.82,579.19 378.21,606.11 378.39,622.99 C378.64,631.13 379.24,647.42 379.59,655.57 C379.86,660.89 380.20,664.29 380.85,667.82 C380.85,667.82 381.09,667.97 381.09,667.97 C381.09,667.97 381.12,667.79 381.12,667.79" fill="none" stroke="rgb(255, 0, 255)" stroke-width="3.95" stroke-opacity="1.00" stroke-linejoin="round"/>
<path d="M388.23,237.74 C389.26,236.51 392.12,233.11 392.48,232.52 C392.71,232.14 392.92,231.59 393.11,230.86 C393.11,230.86 392.84,230.48 392.84,230.48 C392.28,233.33 387.98,275.17 386.46,290.87 C385.07,306.59 382.70,336.87 381.73,351.43 C380.37,381.64 378.89,451.98 379.56,467.23 C380.22,477.44 383.13,512.49 383.68,524.27 C384.17,536.71 384.82,568.75 384.84,584.68 C384.60,596.78 382.08,641.99 381.94,646.52 C381.74,653.58 383.64,674.70 383.81,676.69 C383.81,676.69 381.88,673.91 381.88,673.91" fill="none" stroke="rgb(255, 0, 255)" stroke-width="3.95" stroke-opacity="1.00" stroke-linejoin="round"/>
<path d="M148.65,231.65 C148.65,231.65 147.35,230.74 147.35,230.74 C147.35,230.74 147.79,229.59 147.79,229.59 C149.75,229.35 154.01,228.84 156.96,228.83 C165.88,228.80 175.61,228.35 181.30,227.51 C197.84,225.05 219.07,223.17 240.16,222.57 C247.55,222.46 281.48,223.16 296.87,223.51 C305.52,223.90 320.55,224.90 327.56,225.37 C338.03,225.82 350.63,225.68 358.56,225.37 C366.79,224.95 381.96,224.18 387.83,225.12 C389.81,225.45 394.67,226.80 395.73,226.79 C396.42,225.68 395.84,220.42 394.91,216.71 C393.41,210.87 390.27,203.63 389.42,202.73 C389.23,202.55 383.14,203.36 379.76,202.79 C374.52,201.88 365.45,199.19 356.38,195.98 C348.82,193.17 331.73,186.47 328.11,184.75 C323.07,182.34 309.77,174.46 303.41,170.72 C293.95,165.27 277.06,152.98 274.40,151.54 C272.73,150.68 271.13,150.91 269.53,152.08 C263.06,157.39 257.88,160.48 247.10,165.82 C232.66,172.81 215.21,181.25 192.37,193.68 C177.11,201.97 157.34,212.68 151.60,215.03 C147.54,216.73 145.53,218.03 145.49,219.99 C145.40,226.80 145.23,237.65 144.85,240.55 C144.83,240.64 144.83,240.72 144.85,240.77" fill="none" stroke="rgb(255, 0, 255)" stroke-width="3.95" stroke-opacity="1.00" stroke-linejoin="round"/>
<path d="M21.83,97.93 C21.72,97.70 21.55,97.39 21.52,97.24 C21.48,97.10 21.42,96.71 21.32,96.07 C22.69,107.02 23.33,114.18 23.81,124.84 C24.57,136.86 25.99,150.01 27.86,152.64 C28.51,153.49 30.06,154.20 30.85,153.92 C32.73,153.15 35.34,147.74 35.90,145.06 C36.76,140.62 36.36,131.74 34.92,127.36 C33.64,123.54 31.54,119.09 29.52,116.17 C27.34,113.10 26.02,112.05 24.31,111.03 C24.31,111.03 24.18,111.52 24.18,111.52" fill="none" stroke="rgb(255, 0, 0)" stroke-width="3.95" stroke-opacity="1.00" stroke-linejoin="round"/>
<path d="M32.30,175.80 C32.31,175.39 32.32,175.06 32.34,174.82 C32.37,174.31 32.40,173.80 32.43,173.29 C31.66,179.77 29.85,196.12 29.69,201.59 C29.55,209.84 30.97,220.11 32.44,222.28 C33.55,223.83 35.75,225.10 36.97,224.56 C38.22,223.98 40.02,222.01 40.65,220.68 C41.84,218.03 42.90,213.14 42.93,209.67 C42.94,206.06 41.51,198.68 40.41,195.52 C39.35,192.57 36.36,187.09 34.67,184.94 C32.91,182.77 29.38,180.60 28.37,180.98 C28.37,180.98 28.17,181.43 28.17,181.43" fill="none" stroke="rgb(255, 0, 0)" stroke-width="3.95" stroke-opacity="1.00" stroke-linejoin="round"/>
<path d="M14.66,240.85 C14.66,240.85 13.22,238.77 13.22,238.77 C12.70,239.76 11.52,259.03 11.39,264.78 C11.30,273.47 12.33,285.22 13.45,288.30 C14.30,290.58 15.42,292.21 16.63,293.07 C18.04,293.04 19.38,292.24 20.18,290.51 C21.34,287.97 21.85,281.97 21.52,279.20 C21.14,276.22 18.98,269.11 18.08,267.10 C16.50,263.60 4.58,245.10 4.13,244.32 C4.00,244.09 3.89,243.77 3.81,243.35" fill="none" stroke="rgb(255, 0, 0)" stroke-width="3.95" stroke-opacity="1.00" stroke-linejoin="round"/>
<path d="M45.44,291.30 C45.44,290.22 45.46,289.43 45.47,288.96 C45.53,287.38 45.56,286.56 45.56,286.50 C45.53,286.17 45.42,285.72 45.23,285.14 C44.18,286.03 43.00,291.01 42.58,294.07 C42.08,297.89 41.97,303.69 42.30,308.50 C42.55,311.97 43.49,316.94 45.00,319.56 C45.69,320.71 47.73,321.93 48.72,321.85 C49.65,321.72 51.79,320.23 52.74,319.11 C55.09,316.18 56.54,309.95 56.23,306.87 C55.87,304.03 54.34,298.89 53.20,296.36 C52.12,294.02 48.73,288.35 47.56,286.79 C46.35,285.19 43.00,282.24 41.20,281.82 C41.20,281.82 40.73,282.33 40.73,282.33" fill="none" stroke="rgb(255, 0, 0)" stroke-width="3.95" stroke-opacity="1.00" stroke-linejoin="round"/>
<path d="M18.59,347.34 C18.48,347.23 18.38,347.16 18.31,347.13 C18.24,347.11 18.09,347.10 17.87,347.10 C17.37,348.90 17.14,350.00 16.88,352.20 C15.97,359.97 14.60,372.58 14.29,380.45 C14.13,391.96 14.40,398.51 15.05,401.53 C15.43,403.32 16.37,404.53 17.65,405.44 C20.16,405.29 25.44,402.42 28.13,400.00 C29.42,398.81 31.20,396.75 31.67,395.79 C32.54,393.94 31.54,389.36 30.47,386.89 C27.56,380.35 20.15,368.10 16.36,362.62 C14.80,360.42 12.07,356.60 10.90,354.99 C10.90,354.99 11.13,355.12 11.13,355.12" fill="none" stroke="rgb(255, 0, 0)" stroke-width="3.95" stroke-opacity="1.00" stroke-linejoin="round"/>
<path d="M34.52,397.35 C34.52,397.35 33.98,397.44 33.98,397.44 C34.10,401.16 32.93,418.04 32.34,426.32 C31.70,438.01 31.77,450.47 32.47,457.22 C32.94,461.62 34.07,466.85 34.92,467.95 C36.23,469.57 37.83,470.72 38.99,470.77 C40.21,470.78 42.15,470.35 43.20,469.80 C44.30,469.18 46.50,467.10 47.09,465.95 C48.55,462.98 48.75,457.23 48.51,455.07 C47.94,450.13 44.41,438.82 41.94,432.67 C39.12,425.91 34.35,416.13 31.23,410.91 C29.15,407.47 26.81,405.65 25.91,405.47 C25.91,405.47 25.25,405.93 25.25,405.93 C25.25,405.93 25.00,407.03 25.00,407.03" fill="none" stroke="rgb(255, 0, 0)" stroke-width="3.95" stroke-opacity="1.00" stroke-linejoin="round"/>
<path d="M20.56,470.84 C20.45,470.97 20.37,471.05 20.33,471.09 C20.28,471.13 20.22,471.18 20.14,471.21 C20.12,471.22 20.10,471.23 20.07,471.24 C20.14,471.60 20.84,472.77 22.25,474.83 C28.69,484.01 32.74,490.37 35.21,497.28 C37.24,503.06 39.83,519.99 39.33,523.79 C38.96,526.34 37.24,529.71 35.70,530.46 C33.65,531.42 31.05,531.90 29.75,531.49 C28.53,531.06 26.46,529.69 25.63,528.71 C24.24,526.98 21.47,520.44 20.26,516.11 C18.35,509.17 15.81,494.61 15.07,487.12 C14.61,482.33 14.33,470.71 14.28,467.86 C14.28,467.51 14.28,466.86 14.29,465.92" fill="none" stroke="rgb(255, 0, 0)" stroke-width="3.95" stroke-opacity="1.00" stroke-linejoin="round"/>
<path d="M20.75,545.47 C21.10,545.83 21.45,546.15 21.82,546.42 C25.85,549.20 29.51,552.67 31.08,554.93 C34.25,559.60 38.40,570.92 40.37,578.47 C40.81,580.18 42.42,587.35 42.51,589.97 C42.56,592.90 40.41,598.05 38.07,600.24 C32.37,605.45 27.32,605.62 26.13,605.17 C24.89,602.94 23.69,594.24 23.44,591.96 C22.92,587.19 22.85,571.93 23.03,568.75 C23.40,562.49 25.53,547.61 27.60,540.04 C27.62,540.00 27.69,539.87 27.69,539.92 C27.69,539.92 27.54,540.82 27.54,540.82" fill="none" stroke="rgb(255, 0, 0)" stroke-width="3.95" stroke-opacity="1.00" stroke-linejoin="round"/>
<path d="M9.90,609.49 C9.90,609.49 9.72,609.25 9.72,609.25 C9.88,609.41 10.04,609.57 10.18,609.71 C11.81,611.28 18.21,616.46 19.18,617.36 C22.86,620.82 28.96,632.71 31.39,640.14 C32.35,643.10 33.83,649.19 33.88,650.61 C33.94,652.68 33.63,655.25 33.19,655.97 C32.31,657.30 29.03,658.49 26.90,658.24 C24.30,657.89 19.84,655.46 18.26,652.98 C15.92,649.19 12.21,637.09 10.75,629.76 C9.23,621.53 6.17,604.04 5.57,599.49 C5.36,597.94 5.13,595.48 4.96,593.58" fill="none" stroke="rgb(255, 0, 0)" stroke-width="3.95" stroke-opacity="1.00" stroke-linejoin="round"/>
<path d="M50.72,573.56 C50.75,573.49 51.63,573.10 52.35,573.13 C54.86,573.26 59.59,575.65 62.47,577.63 C65.64,579.87 68.59,584.14 69.39,586.80 C70.54,590.94 71.05,601.44 70.53,607.42 C70.26,610.39 69.50,615.15 68.82,617.72 C68.01,620.60 65.50,625.34 63.01,627.91 C61.53,629.38 60.34,630.22 59.46,630.33 C58.08,630.44 55.92,626.16 55.26,622.81 C53.22,611.98 52.95,589.18 53.07,581.36 C53.12,579.43 53.35,570.94 54.58,569.17 C54.75,568.94 54.97,568.90 55.24,569.07" fill="none" stroke="rgb(255, 0, 0)" stroke-width="3.95" stroke-opacity="1.00" stroke-linejoin="round"/>
<path d="M81.11,622.18 C81.11,621.96 81.11,621.74 81.11,621.52 C81.11,621.26 81.11,621.00 81.11,620.75 C81.37,620.99 85.54,625.30 86.47,627.83 C87.45,630.58 93.72,651.12 94.11,653.09 C94.34,654.26 94.16,660.21 92.56,662.38 C91.56,663.68 88.67,664.28 86.89,663.84 C85.31,663.37 82.92,659.39 81.37,655.62 C79.99,652.21 78.54,645.80 78.75,641.86 C78.93,638.93 83.31,618.96 83.63,615.02 C83.66,614.63 83.66,614.07 83.64,613.34" fill="none" stroke="rgb(255, 0, 0)" stroke-width="3.95" stroke-opacity="1.00" stroke-linejoin="round"/>
<path d="M109.79,608.47 C109.79,608.47 109.79,609.09 109.79,609.09 C110.18,609.64 113.20,611.37 116.04,613.86 C120.16,617.50 126.87,625.69 128.57,629.39 C130.18,632.99 131.78,638.14 132.55,642.54 C133.27,646.79 133.49,651.73 133.05,653.13 C132.47,654.83 130.92,656.55 129.27,657.31 C127.76,657.96 122.40,657.50 119.57,656.25 C118.24,655.63 115.64,653.92 114.81,653.06 C113.05,651.18 111.52,645.52 111.16,640.37 C111.08,638.95 110.64,610.74 110.68,609.43 C110.84,604.78 112.09,600.12 111.89,599.33 C111.81,599.02 111.55,598.48 111.11,597.70" fill="none" stroke="rgb(255, 0, 0)" stroke-width="3.95" stroke-opacity="1.00" stroke-linejoin="round"/>
<path d="M111.70,538.54 C111.70,538.54 111.42,539.85 111.42,539.85 C112.39,540.07 116.09,544.14 118.45,548.37 C122.56,555.89 130.99,582.70 132.17,587.87 C132.83,590.88 133.09,598.28 132.11,601.22 C131.05,604.23 127.02,609.67 124.58,611.47 C123.46,612.27 120.69,613.47 119.48,613.62 C117.91,613.77 115.64,612.61 114.55,611.22 C112.50,608.42 110.88,596.81 109.94,585.81 C109.42,579.32 109.41,559.49 109.62,555.20 C109.78,552.00 111.05,536.72 110.92,535.57 C110.76,534.29 110.28,532.78 110.07,532.65" fill="none" stroke="rgb(255, 0, 0)" stroke-width="3.95" stroke-opacity="1.00" stroke-linejoin="round"/>
<path d="M79.46,519.56 C79.46,519.56 79.84,519.69 79.84,519.69 C79.84,519.69 80.71,519.38 80.71,519.38 C80.71,519.38 82.17,517.27 82.17,517.27 C84.10,518.63 91.17,531.37 93.44,537.15 C94.58,540.06 96.43,546.27 96.89,549.18 C97.25,551.54 97.24,557.39 95.96,559.93 C95.24,561.28 92.70,563.02 91.30,563.20 C89.62,563.36 86.64,562.47 84.94,561.41 C83.35,560.37 80.89,556.42 80.17,553.66 C79.13,549.53 79.77,533.89 80.15,526.28 C80.35,516.92 78.82,511.69 78.40,511.21 C78.23,511.03 77.82,510.72 77.18,510.30" fill="none" stroke="rgb(255, 0, 0)" stroke-width="3.95" stroke-opacity="1.00" stroke-linejoin="round"/>
<path d="M51.98,503.13 C51.98,503.13 51.77,501.83 51.77,501.83 C53.84,502.00 57.61,504.17 59.89,506.10 C65.02,510.53 71.14,518.78 72.81,522.86 C73.66,525.00 74.62,529.67 74.69,532.05 C74.77,536.48 72.05,546.92 69.78,550.81 C67.18,555.14 64.90,556.45 63.36,556.70 C61.80,555.52 61.01,554.63 60.63,553.41 C59.46,549.54 57.56,534.46 56.61,526.35 C54.18,502.14 54.17,494.87 54.20,494.45 C54.23,494.02 54.32,492.94 54.48,491.22" fill="none" stroke="rgb(255, 0, 0)" stroke-width="3.95" stroke-opacity="1.00" stroke-linejoin="round"/>
<path d="M96.78,429.64 C96.43,428.75 96.20,428.18 96.10,427.92 C95.93,427.46 95.80,427.10 95.74,426.86 C95.71,426.77 95.70,426.69 95.70,426.61 C96.78,426.77 104.05,440.46 106.58,447.70 C108.62,453.61 111.87,466.56 113.04,473.15 C114.45,481.14 114.28,491.01 113.30,493.65 C112.38,495.97 108.34,499.11 105.39,499.99 C103.57,500.48 100.53,500.56 99.22,500.00 C96.94,498.95 93.95,494.07 93.06,491.26 C91.46,486.10 89.79,471.55 89.62,465.93 C89.43,458.72 91.71,443.57 93.94,437.07 C95.89,431.51 97.88,426.61 98.96,424.65 C99.56,423.57 99.98,423.07 100.21,423.04 C100.21,423.04 100.16,423.04 100.13,423.04 C99.75,423.02 98.46,422.54 95.77,421.44" fill="none" stroke="rgb(255, 0, 0)" stroke-width="3.95" stroke-opacity="1.00" stroke-linejoin="round"/>
<path d="M66.13,416.88 C65.96,415.71 65.80,414.89 65.64,414.41 C65.32,413.48 64.79,412.65 64.42,411.74 C64.27,411.39 64.15,410.92 64.06,410.33 C64.56,410.37 65.78,411.06 66.68,412.28 C69.09,415.60 72.24,423.77 73.76,428.09 C77.54,438.96 79.73,446.86 80.22,452.63 C80.38,454.52 80.28,461.77 79.42,464.56 C78.57,467.17 75.08,470.81 72.64,471.85 C70.28,472.80 65.78,473.21 64.64,472.56 C63.39,471.76 61.84,465.83 61.52,462.73 C60.98,457.14 60.60,441.82 61.25,434.42 C61.97,427.03 64.19,413.50 64.18,408.35 C64.17,407.90 64.15,407.46 64.10,407.03" fill="none" stroke="rgb(255, 0, 0)" stroke-width="3.95" stroke-opacity="1.00" stroke-linejoin="round"/>
<path d="M62.57,346.95 C62.84,346.12 63.03,345.56 63.13,345.26 C63.28,344.85 63.48,344.44 63.58,344.01 C63.61,343.89 63.59,343.79 63.52,343.70 C67.51,352.33 70.69,360.59 74.32,371.81 C75.61,376.08 77.86,383.76 78.83,387.17 C79.70,390.23 79.76,395.77 78.43,398.58 C77.07,401.32 72.47,406.15 69.97,407.32 C68.79,407.85 65.93,408.32 64.59,408.19 C63.09,407.99 60.31,406.67 59.38,405.56 C57.38,403.05 56.06,396.06 55.97,394.79 C55.77,391.91 55.92,373.30 56.41,364.33 C56.92,356.87 58.36,352.38 58.65,351.50" fill="none" stroke="rgb(255, 0, 0)" stroke-width="3.95" stroke-opacity="1.00" stroke-linejoin="round"/>
<path d="M50.20,230.62 C50.19,230.52 50.19,230.43 50.20,230.35 C50.21,230.27 50.24,230.09 50.30,229.81 C50.30,229.81 50.70,229.58 50.70,229.58 C51.99,230.25 58.94,241.95 61.10,247.48 C63.73,254.31 65.76,269.48 65.23,274.60 C65.15,275.20 64.34,278.17 63.99,278.96 C63.35,280.35 61.55,282.00 60.24,282.47 C59.15,282.81 56.47,282.68 55.32,282.20 C52.82,281.08 50.35,276.69 49.55,273.96 C48.80,271.23 48.34,259.65 48.48,248.79 C48.77,235.49 49.24,231.64 50.00,230.33 C50.59,229.33 51.68,228.42 52.88,227.78" fill="none" stroke="rgb(255, 0, 0)" stroke-width="3.95" stroke-opacity="1.00" stroke-linejoin="round"/>
<path d="M78.76,268.44 C78.76,268.44 78.08,267.87 78.08,267.87 C78.08,267.87 77.89,267.99 77.89,267.99 C78.14,268.72 88.11,284.97 90.48,291.14 C91.97,295.12 93.29,302.31 93.41,306.40 C93.45,308.53 92.33,314.69 91.21,317.39 C89.80,320.71 86.24,322.51 85.50,322.16 C84.09,320.92 82.98,317.01 82.20,312.34 C80.41,300.68 81.42,277.79 82.35,269.90 C82.35,269.90 82.76,269.61 82.76,269.61 C82.76,269.61 83.02,270.27 83.02,270.27" fill="none" stroke="rgb(255, 0, 0)" stroke-width="3.95" stroke-opacity="1.00" stroke-linejoin="round"/>
<path d="M86.50,328.42 C86.50,327.23 86.49,326.45 86.48,326.07 C86.47,325.69 86.45,325.17 86.41,324.52 C86.41,324.52 86.46,324.54 86.46,324.54 C87.20,326.50 89.64,331.19 92.60,336.39 C95.60,341.61 98.52,346.97 99.71,349.82 C101.55,354.33 103.42,361.01 103.57,363.33 C103.62,364.57 103.21,366.90 102.77,367.76 C102.21,368.74 100.64,370.06 99.45,370.44 C98.08,370.82 94.90,370.78 93.56,370.24 C92.07,369.60 89.89,367.84 89.06,366.70 C87.47,364.39 85.34,358.92 84.34,355.06 C80.49,339.98 81.20,325.17 81.62,322.97 C81.68,322.66 81.79,322.37 81.79,322.35" fill="none" stroke="rgb(255, 0, 0)" stroke-width="3.95" stroke-opacity="1.00" stroke-linejoin="round"/>
<path d="M91.90,381.98 C91.82,382.12 91.77,382.21 91.75,382.24 C91.72,382.27 91.70,382.29 91.66,382.30 C91.66,382.30 92.04,381.57 92.04,381.57 C92.73,382.26 93.19,382.81 94.71,384.72 C100.89,392.57 109.96,407.24 112.41,412.26 C114.34,416.28 115.41,421.14 114.79,422.96 C114.47,423.80 113.20,425.24 112.43,425.66 C111.61,426.05 109.51,426.27 108.67,425.97 C106.80,425.23 103.63,419.79 102.56,417.21 C101.15,413.77 94.39,391.95 94.57,389.66 C94.90,386.26 96.17,384.64 97.03,383.79" fill="none" stroke="rgb(255, 0, 0)" stroke-width="3.95" stroke-opacity="1.00" stroke-linejoin="round"/>
<path d="M122.29,383.95 C122.22,384.01 122.11,384.04 121.95,384.02 C121.79,384.00 121.37,383.92 120.68,383.78 C120.53,386.14 122.02,404.22 122.52,412.58 C122.89,419.89 123.42,429.37 124.35,430.69 C125.15,431.72 127.60,432.88 128.91,432.53 C130.25,432.15 133.06,430.09 133.86,429.06 C135.38,426.96 137.13,421.93 137.35,418.36 C137.65,413.17 135.66,403.54 133.32,398.59 C125.56,382.36 118.13,378.41 117.10,378.18 C117.10,378.18 116.61,378.53 116.61,378.53 C116.61,378.53 116.52,379.15 116.52,379.15" fill="none" stroke="rgb(255, 0, 0)" stroke-width="3.95" stroke-opacity="1.00" stroke-linejoin="round"/>
<path d="M127.12,468.48 C127.12,468.48 127.23,468.32 127.23,468.32 C127.28,471.17 121.50,489.81 120.76,492.92 C119.43,498.62 118.07,510.91 118.22,517.51 C118.33,521.55 119.37,527.57 120.59,530.26 C121.26,531.68 123.37,533.76 125.06,534.71 C125.79,535.09 128.22,534.85 128.86,534.58 C130.95,533.57 134.49,527.89 135.44,525.21 C136.97,520.70 137.81,510.34 137.38,504.60 C137.12,501.47 136.01,495.19 134.93,491.73 C133.67,487.74 131.09,482.23 128.89,478.66 C123.52,470.17 118.79,464.83 116.70,462.72" fill="none" stroke="rgb(255, 0, 0)" stroke-width="3.95" stroke-opacity="1.00" stroke-linejoin="round"/>
<path d="M78.38,109.03 C78.38,109.03 77.64,108.71 77.64,108.71 C76.55,109.33 76.06,117.12 75.71,131.07 C75.53,142.41 75.93,153.70 76.57,155.02 C76.74,155.36 77.22,156.17 78.02,157.44 C79.62,157.93 81.28,157.80 82.66,156.68 C84.94,154.83 87.84,150.14 88.75,148.19 C89.88,145.71 91.54,140.17 91.95,137.72 C92.35,135.11 92.27,129.69 91.60,127.17 C90.92,124.74 88.97,121.18 87.23,119.14 C86.30,118.09 83.88,116.19 82.44,115.45 C81.01,114.74 78.79,115.00 77.52,115.82 C76.16,116.77 75.00,120.95 75.07,120.89" fill="none" stroke="rgb(255, 0, 0)" stroke-width="3.95" stroke-opacity="1.00" stroke-linejoin="round"/>
<path d="M75.27,190.96 C74.73,191.39 74.52,191.95 74.35,193.65 C73.86,198.67 73.55,220.87 74.08,224.59 C74.26,225.77 75.35,228.21 75.92,228.79 C76.62,229.43 78.70,229.78 79.92,229.52 C82.57,228.88 88.44,224.91 89.79,222.64 C90.52,221.32 90.92,218.36 90.51,216.83 C89.58,213.61 86.85,209.46 84.84,206.85 C82.53,203.86 77.94,197.91 75.66,194.96 C74.38,193.31 73.77,192.30 72.79,190.30" fill="none" stroke="rgb(255, 0, 0)" stroke-width="3.95" stroke-opacity="1.00" stroke-linejoin="round"/>
<path d="M123.31,232.91 C123.31,232.91 123.13,231.55 123.13,231.55 C122.49,240.22 122.47,252.55 122.93,258.80 C123.43,265.28 126.07,273.79 127.48,275.30 C128.13,275.95 129.84,276.56 130.70,276.52 C131.76,276.42 133.74,275.60 134.82,274.79 C135.82,273.98 137.78,271.32 138.18,269.97 C139.03,266.98 137.93,261.67 137.02,259.53 C134.87,254.62 126.02,244.40 121.93,241.13 C120.66,240.11 119.55,239.67 118.88,239.78 C118.88,239.78 118.30,241.45 118.30,241.45" fill="none" stroke="rgb(255, 0, 0)" stroke-width="3.95" stroke-opacity="1.00" stroke-linejoin="round"/>
<path d="M126.61,297.57 C126.60,297.21 126.59,296.95 126.57,296.78 C126.55,296.61 126.50,296.29 126.41,295.83 C126.10,296.18 125.88,296.72 125.59,297.99 C124.11,304.88 122.20,318.78 122.30,321.40 C122.44,324.32 123.48,329.41 125.09,331.55 C125.91,332.61 127.44,333.75 128.98,334.54 C130.53,335.30 132.81,335.82 134.69,335.86 C135.48,335.85 136.63,334.94 136.90,334.32 C137.60,332.55 137.54,327.42 137.13,324.82 C136.30,319.82 132.37,308.39 128.61,300.47 C122.61,288.18 118.02,279.39 117.16,277.37" fill="none" stroke="rgb(255, 0, 0)" stroke-width="3.95" stroke-opacity="1.00" stroke-linejoin="round"/>
<path d="M117.41,150.85 C116.86,151.64 116.50,152.55 116.41,153.65 C116.20,156.26 111.70,179.09 111.20,183.46 C110.86,186.62 110.89,194.97 111.88,196.35 C112.89,197.64 116.99,198.22 119.41,197.49 C120.55,197.12 122.61,195.89 123.34,195.06 C124.90,193.21 125.87,187.84 125.73,184.99 C125.42,179.86 121.40,167.40 117.01,157.82 C116.12,155.88 114.90,153.04 114.44,151.82 C114.07,150.86 113.93,149.98 113.85,148.84" fill="none" stroke="rgb(255, 0, 0)" stroke-width="3.95" stroke-opacity="1.00" stroke-linejoin="round"/>
<path d="M106.17,94.56 C106.08,93.62 105.82,91.05 105.87,90.43 C105.90,90.02 106.03,89.26 106.26,88.13 C106.52,90.90 106.11,97.94 105.88,102.08 C105.65,106.52 105.17,116.28 105.19,119.93 C105.22,123.50 106.21,129.90 107.45,131.16 C108.21,131.88 110.10,132.48 111.43,132.47 C112.88,132.41 115.34,131.73 116.44,131.01 C117.74,130.11 118.84,127.91 119.01,126.06 C119.17,123.66 115.30,112.90 110.67,103.73 C104.62,91.84 104.22,90.87 103.77,89.44 C103.77,89.44 104.11,89.32 104.11,89.32 C104.11,89.32 104.35,89.41 104.35,89.41" fill="none" stroke="rgb(255, 0, 0)" stroke-width="3.95" stroke-opacity="1.00" stroke-linejoin="round"/>
<path d="M136.57,96.59 C136.57,96.59 135.42,96.02 135.42,96.02 C134.70,97.05 135.00,112.71 135.88,118.65 C136.65,123.22 137.54,126.57 138.94,127.91 C140.97,127.39 142.09,126.78 142.82,125.59 C143.98,123.68 146.08,117.14 145.64,114.75 C145.08,111.92 142.70,108.14 140.80,105.92 C137.52,102.16 131.54,95.75 131.46,95.63 C131.15,95.18 130.63,94.22 129.89,92.75 C129.89,92.75 130.37,92.10 130.37,92.10 C130.37,92.10 130.77,92.26 130.77,92.26" fill="none" stroke="rgb(255, 0, 0)" stroke-width="3.95" stroke-opacity="1.00" stroke-linejoin="round"/>
<path d="M148.31,143.11 C148.31,143.11 147.50,143.49 147.50,143.49 C146.00,158.39 146.93,180.06 147.99,186.20 C148.53,189.21 150.76,195.86 151.93,197.22 C152.55,197.90 154.12,198.73 154.90,198.77 C155.94,198.77 158.12,198.01 159.10,197.22 C160.15,196.34 161.79,193.62 162.11,192.09 C162.63,189.28 161.29,183.61 160.20,181.08 C158.35,176.89 146.76,160.35 144.50,156.78 C143.40,155.02 142.93,153.85 142.73,152.69" fill="none" stroke="rgb(255, 0, 0)" stroke-width="3.95" stroke-opacity="1.00" stroke-linejoin="round"/>
<path d="M175.41,148.18 C175.41,148.18 174.07,146.66 174.07,146.66 C173.63,146.67 171.01,150.41 169.50,170.07 C168.99,178.01 169.89,187.44 171.03,189.45 C171.61,190.40 173.40,191.68 174.39,191.94 C176.38,192.37 181.39,191.01 183.03,189.75 C183.88,189.05 184.84,187.21 185.02,185.98 C185.29,183.42 175.19,159.48 174.55,157.59 C174.31,156.89 173.44,153.14 172.99,151.18 C172.34,148.27 172.18,146.60 172.31,144.88" fill="none" stroke="rgb(255, 0, 0)" stroke-width="3.95" stroke-opacity="1.00" stroke-linejoin="round"/>
<path d="M188.49,97.79 C188.45,97.20 188.40,96.79 188.34,96.55 C188.28,96.32 188.12,95.93 187.86,95.38 C186.90,95.16 185.64,95.59 184.77,96.64 C183.84,97.81 182.53,103.51 182.21,107.45 C181.96,110.89 182.07,119.12 182.25,121.90 C182.80,129.57 184.85,131.31 185.81,131.68 C188.94,130.63 193.04,127.38 193.83,126.43 C194.75,125.27 195.63,122.95 195.62,121.37 C195.58,118.97 192.98,112.27 191.38,109.51 C187.32,103.45 181.83,94.85 181.67,93.35 C181.62,92.77 181.85,92.28 182.27,91.80" fill="none" stroke="rgb(255, 0, 0)" stroke-width="3.95" stroke-opacity="1.00" stroke-linejoin="round"/>
<path d="M214.76,130.29 C214.16,129.87 213.30,128.86 212.48,127.46 C212.24,127.05 211.80,126.25 211.15,125.04 C210.43,125.65 210.09,126.58 210.06,128.74 C209.99,133.36 211.07,154.55 211.46,157.39 C211.79,159.75 213.30,166.18 214.49,167.84 C215.64,169.37 219.14,169.52 220.88,168.41 C221.82,167.77 223.17,166.26 223.61,165.25 C224.50,163.05 223.26,158.15 221.94,155.03 C220.65,152.10 209.52,132.74 208.41,129.37 C206.21,122.38 207.12,120.06 207.36,119.73" fill="none" stroke="rgb(255, 0, 0)" stroke-width="3.95" stroke-opacity="1.00" stroke-linejoin="round"/>
<path d="M232.40,98.05 C232.61,97.42 232.77,96.95 232.89,96.64 C233.26,95.65 233.47,95.06 233.51,94.85 C233.57,94.52 233.60,93.90 233.60,92.99 C232.17,93.65 228.76,110.38 228.78,117.10 C228.82,121.19 229.63,126.28 230.86,127.55 C231.57,128.25 233.07,128.48 234.09,128.10 C235.90,127.35 238.83,123.18 239.13,120.43 C239.41,117.36 237.56,111.88 236.05,108.97 C235.09,107.15 232.70,103.85 229.77,100.04 C227.64,97.28 225.96,93.44 226.46,91.89 C226.80,90.92 227.55,89.81 227.75,89.80" fill="none" stroke="rgb(255, 0, 0)" stroke-width="3.95" stroke-opacity="1.00" stroke-linejoin="round"/>
<path d="M247.32,124.13 C247.32,124.13 247.08,124.17 247.08,124.17 C246.69,125.83 246.45,127.00 246.39,128.09 C246.22,130.98 246.18,139.13 246.18,143.15 C246.19,146.80 246.51,151.50 247.67,153.72 C248.15,154.59 250.99,154.58 252.05,153.64 C253.29,152.50 254.78,150.41 254.89,149.50 C255.07,147.52 253.53,143.96 251.45,141.01 C249.16,137.78 244.63,131.36 243.06,128.17 C242.55,127.07 242.10,124.68 242.24,123.68 C242.47,122.29 243.31,120.12 243.63,119.73" fill="none" stroke="rgb(255, 0, 0)" stroke-width="3.95" stroke-opacity="1.00" stroke-linejoin="round"/>
<path d="M257.92,95.64 C257.92,95.64 258.10,93.64 258.10,93.64 C258.10,93.64 258.45,93.48 258.45,93.48 C258.54,102.53 259.19,114.22 261.17,119.70 C261.74,121.24 263.13,123.40 263.89,123.99 C264.52,124.43 265.95,124.38 266.68,123.94 C268.15,122.98 270.63,118.61 270.93,115.95 C271.18,113.47 269.95,108.32 268.92,105.86 C267.43,102.42 261.55,93.89 257.46,90.65 C256.11,89.58 254.65,88.87 253.76,88.72" fill="none" stroke="rgb(255, 0, 0)" stroke-width="3.95" stroke-opacity="1.00" stroke-linejoin="round"/>
<path d="M293.39,130.03 C291.97,129.39 291.22,127.17 291.09,126.01 C291.05,125.60 291.03,125.19 291.00,124.78 C290.98,124.54 290.94,124.08 290.87,123.39 C290.87,123.39 290.58,123.38 290.58,123.38 C289.44,126.08 289.23,141.34 290.49,148.84 C291.04,152.02 292.48,156.35 294.51,158.32 C295.38,159.12 297.87,159.70 299.04,159.49 C300.09,159.26 302.22,158.01 302.93,157.26 C303.70,156.39 304.23,154.86 304.13,153.81 C303.81,151.46 293.08,137.44 290.39,133.39 C287.62,129.18 285.47,124.21 285.55,122.53 C285.57,122.16 285.70,121.34 285.93,120.06" fill="none" stroke="rgb(255, 0, 0)" stroke-width="3.95" stroke-opacity="1.00" stroke-linejoin="round"/>
<path d="M298.34,97.54 C298.34,97.54 298.89,89.55 298.89,89.55 C297.98,90.15 297.32,94.83 297.27,97.83 C297.22,101.48 297.56,106.95 298.03,110.08 C298.46,112.73 300.51,118.38 301.81,119.24 C302.27,119.50 304.04,119.85 304.74,119.66 C306.53,119.13 309.39,117.61 310.83,116.44 C311.34,116.00 311.84,114.61 311.81,114.11 C311.57,112.25 297.37,92.95 296.48,90.85 C296.09,89.90 296.12,89.20 296.39,88.80 C296.39,88.80 297.41,88.54 297.41,88.54" fill="none" stroke="rgb(255, 0, 0)" stroke-width="3.95" stroke-opacity="1.00" stroke-linejoin="round"/>
<path d="M318.78,116.96 C318.78,116.96 317.78,114.19 317.78,114.19 C318.74,117.62 321.01,136.73 322.05,145.54 C322.53,149.43 324.17,155.05 325.52,156.23 C326.20,156.77 327.83,156.77 328.67,156.29 C329.56,155.72 331.13,154.01 331.76,152.85 C332.53,151.36 333.25,148.24 333.17,146.48 C333.01,143.98 330.28,136.76 329.66,135.53 C328.40,133.07 322.69,124.27 321.30,122.50 C319.24,119.88 314.99,115.78 314.58,115.32 C314.43,115.15 314.40,115.07 314.50,115.06 C314.50,115.06 314.66,115.09 314.66,115.09" fill="none" stroke="rgb(255, 0, 0)" stroke-width="3.95" stroke-opacity="1.00" stroke-linejoin="round"/>
<path d="M349.49,146.41 C349.49,146.41 348.11,143.95 348.11,143.95 C347.14,147.55 346.08,161.89 346.60,167.80 C346.94,171.31 348.78,178.24 350.48,180.94 C351.33,182.23 352.72,183.72 353.85,184.58 C355.68,185.90 361.22,186.65 363.02,185.73 C363.80,185.28 364.75,183.88 364.87,182.94 C365.05,181.10 363.21,177.22 360.30,172.26 C350.07,155.15 344.58,144.13 343.02,140.45 C342.21,138.51 341.70,136.84 341.31,135.07" fill="none" stroke="rgb(255, 0, 0)" stroke-width="3.95" stroke-opacity="1.00" stroke-linejoin="round"/>
<path d="M345.43,97.60 C345.43,97.60 344.55,93.35 344.55,93.35 C343.39,95.66 342.34,103.72 342.32,106.26 C342.31,111.81 344.22,123.06 346.07,126.18 C346.64,127.12 347.54,127.64 348.49,127.87 C350.02,127.23 351.96,124.03 352.54,121.00 C352.97,118.64 352.34,112.72 351.53,110.41 C350.81,108.44 347.73,101.64 345.53,98.40 C344.45,96.83 342.53,94.87 341.15,93.81 C340.88,93.60 340.62,93.45 340.37,93.36" fill="none" stroke="rgb(255, 0, 0)" stroke-width="3.95" stroke-opacity="1.00" stroke-linejoin="round"/>
<path d="M379.89,98.81 C379.89,98.81 378.86,98.10 378.86,98.10 C378.37,100.27 376.45,123.62 376.99,125.23 C377.08,125.49 377.35,126.05 377.80,126.91 C379.08,127.45 383.90,126.11 387.40,124.81 C389.34,124.07 391.63,122.94 392.68,122.15 C393.70,121.32 394.68,119.17 394.65,117.73 C394.53,115.37 391.86,108.58 390.68,106.31 C389.44,103.97 385.92,98.87 383.90,97.11 C381.86,95.39 380.12,95.55 379.06,95.98 C379.06,95.98 378.88,96.55 378.88,96.55" fill="none" stroke="rgb(255, 0, 0)" stroke-width="3.95" stroke-opacity="1.00" stroke-linejoin="round"/>
<path d="M388.08,138.85 C388.08,138.85 387.65,137.06 387.65,137.06 C387.65,137.06 386.80,137.10 386.80,137.10 C384.42,140.69 380.96,152.77 380.08,160.78 C379.68,164.58 379.22,171.61 379.23,173.60 C379.27,178.08 379.99,182.47 381.32,183.72 C381.94,184.26 383.69,184.73 384.69,184.61 C386.83,184.29 392.40,180.55 394.55,177.77 C395.53,176.47 397.19,173.19 397.65,171.66 C398.10,170.01 398.25,166.66 397.91,165.11 C396.23,158.00 383.28,140.40 382.51,139.36 C382.51,139.36 385.19,141.75 385.19,141.75" fill="none" stroke="rgb(255, 0, 0)" stroke-width="3.95" stroke-opacity="1.00" stroke-linejoin="round"/>
<path d="M418.92,156.62 C418.43,156.96 418.04,157.30 417.75,157.64 C415.21,160.68 409.37,176.08 408.13,181.36 C406.25,189.48 405.98,198.20 406.80,200.87 C407.24,202.18 409.11,203.66 410.38,203.74 C412.34,203.80 418.90,201.10 420.24,200.27 C422.04,199.11 424.69,196.89 425.59,195.64 C427.40,193.05 427.44,187.43 426.91,184.93 C426.50,183.12 424.53,176.51 423.10,173.60 C421.96,171.30 417.33,163.34 415.75,160.97 C413.62,157.75 411.99,153.41 412.21,151.05 C412.27,150.54 412.47,149.39 412.81,147.59" fill="none" stroke="rgb(255, 0, 0)" stroke-width="3.95" stroke-opacity="1.00" stroke-linejoin="round"/>
<path d="M420.89,103.51 C421.10,102.73 421.58,101.27 421.59,101.11 C421.64,100.58 421.36,99.81 421.16,99.60 C420.99,101.50 421.35,107.07 421.68,110.20 C422.05,113.68 422.94,118.97 424.52,121.70 C426.73,122.01 428.17,122.00 429.46,121.55 C431.63,120.77 435.60,117.66 436.23,115.64 C436.51,114.66 436.43,111.94 436.09,110.71 C435.33,108.20 431.40,103.58 427.99,100.21 C422.85,95.22 417.67,93.45 416.48,93.01 C416.48,93.01 416.47,92.72 416.47,92.72 C416.47,92.72 416.71,92.60 416.71,92.60" fill="none" stroke="rgb(255, 0, 0)" stroke-width="3.95" stroke-opacity="1.00" stroke-linejoin="round"/>
<path d="M441.58,113.41 C441.58,113.41 439.97,113.08 439.97,113.08 C439.83,113.22 439.36,117.30 436.28,142.56 C435.20,152.40 434.33,163.92 435.06,168.10 C435.34,169.52 436.22,171.08 437.19,171.83 C437.64,172.17 439.04,172.25 439.87,172.17 C441.51,171.93 445.42,168.50 446.62,166.15 C447.68,163.96 448.36,159.29 447.99,156.32 C447.24,150.86 442.30,139.06 437.25,129.89 C434.80,125.33 432.33,119.71 432.55,118.56 C432.61,118.29 432.85,117.79 433.27,117.04" fill="none" stroke="rgb(255, 0, 0)" stroke-width="3.95" stroke-opacity="1.00" stroke-linejoin="round"/>
<path d="M464.11,140.06 C464.11,140.06 463.71,138.07 463.71,138.07 C463.71,138.07 462.44,137.25 462.44,137.25 C461.41,137.61 459.65,141.35 458.64,145.13 C456.79,152.28 454.72,169.23 454.99,172.68 C455.07,173.58 455.51,177.12 455.72,177.90 C456.35,180.04 458.09,182.77 459.55,183.65 C460.76,184.33 464.55,184.89 466.55,184.77 C470.35,184.49 474.91,182.26 475.84,180.89 C476.78,179.37 476.50,175.20 475.15,172.02 C472.97,167.00 466.90,157.66 462.24,151.58 C455.63,143.07 453.44,139.89 453.18,139.35 C453.09,139.16 452.93,138.76 452.70,138.15" fill="none" stroke="rgb(255, 0, 0)" stroke-width="3.95" stroke-opacity="1.00" stroke-linejoin="round"/>
<path d="M484.29,95.83 C484.43,95.57 484.67,95.16 484.77,95.05 C484.81,95.01 484.86,94.98 484.91,94.96 C485.18,95.54 483.48,110.40 483.02,117.79 C482.65,124.81 483.61,134.76 484.38,136.76 C484.72,137.57 486.08,138.95 486.93,139.14 C488.91,139.49 492.27,138.68 493.88,137.42 C495.23,136.31 495.74,130.33 495.45,128.07 C494.62,122.41 490.47,112.33 484.77,100.43 C482.70,96.12 482.45,95.25 482.50,94.52 C482.50,94.52 484.39,94.12 484.39,94.12" fill="none" stroke="rgb(255, 0, 0)" stroke-width="3.95" stroke-opacity="1.00" stroke-linejoin="round"/>
<path d="M507.96,100.21 C507.98,99.94 507.98,99.75 507.96,99.64 C507.95,99.52 507.91,99.33 507.83,99.05 C508.88,103.76 510.96,120.68 511.32,122.90 C511.90,126.42 513.57,133.84 514.40,136.07 C515.39,138.53 519.76,142.65 521.13,141.82 C522.19,140.73 522.87,136.25 523.02,131.45 C523.12,127.19 520.65,117.08 517.83,112.16 C514.56,106.54 510.13,102.70 509.63,102.31 C509.45,102.18 509.22,102.03 508.93,101.86" fill="none" stroke="rgb(255, 0, 0)" stroke-width="3.95" stroke-opacity="1.00" stroke-linejoin="round"/>
<path d="M499.97,151.99 C499.63,152.00 499.37,152.03 499.19,152.08 C499.01,152.14 498.66,152.29 498.14,152.54 C497.05,156.70 495.91,172.31 496.38,179.26 C496.64,182.75 498.72,190.88 500.12,192.61 C500.91,193.53 502.61,194.06 503.64,193.76 C504.63,193.42 506.27,191.92 506.99,190.71 C508.22,188.50 507.75,183.38 506.48,179.85 C505.30,176.71 497.58,164.56 493.42,158.71 C493.05,158.09 492.58,157.34 492.51,157.40" fill="none" stroke="rgb(255, 0, 0)" stroke-width="3.95" stroke-opacity="1.00" stroke-linejoin="round"/>
<path d="M490.26,205.17 C490.26,203.41 490.22,202.23 490.07,201.93 C490.02,201.83 489.90,201.68 489.70,201.48 C488.62,201.87 487.21,216.12 487.33,223.94 C487.41,227.75 488.00,236.63 488.32,238.19 C488.66,239.68 489.75,241.40 490.59,241.80 C491.96,242.36 496.50,240.09 498.06,238.22 C498.88,237.18 500.02,234.82 500.14,233.64 C500.38,230.95 499.09,226.90 497.56,223.88 C494.21,217.36 485.72,205.46 482.87,200.63 C481.37,198.06 480.87,194.74 481.10,194.64" fill="none" stroke="rgb(255, 0, 0)" stroke-width="3.95" stroke-opacity="1.00" stroke-linejoin="round"/>
<path d="M512.34,230.87 C512.34,230.87 511.59,229.18 511.59,229.18 C511.91,231.66 512.31,255.72 512.50,259.55 C512.65,262.37 513.82,269.66 514.34,271.01 C514.71,271.91 516.24,273.34 517.26,273.81 C518.33,274.27 521.01,274.64 522.35,274.48 C523.87,274.25 526.90,272.90 528.09,271.83 C529.30,270.70 531.19,267.47 531.58,265.82 C532.24,262.81 530.50,256.49 528.88,253.60 C527.75,251.63 515.79,233.90 514.52,231.98 C510.51,225.65 506.35,219.06 506.40,219.11" fill="none" stroke="rgb(255, 0, 0)" stroke-width="3.95" stroke-opacity="1.00" stroke-linejoin="round"/>
<path d="M456.88,188.04 C456.88,188.04 456.17,186.37 456.17,186.37 C455.97,186.26 452.92,189.30 452.05,207.75 C451.73,214.97 452.53,222.84 453.74,225.71 C454.34,227.07 456.23,228.88 457.32,229.37 C458.16,229.70 460.46,229.75 461.51,229.47 C462.73,229.12 465.29,227.59 466.23,226.58 C468.38,224.18 469.80,219.53 469.85,217.74 C469.87,215.70 468.36,209.69 467.52,207.80 C466.36,205.23 455.61,186.92 454.03,183.98 C452.90,181.88 448.74,174.37 447.79,174.05 C447.79,174.05 447.52,174.24 447.52,174.24 C447.52,174.24 447.47,174.47 447.47,174.47" fill="none" stroke="rgb(255, 0, 0)" stroke-width="3.95" stroke-opacity="1.00" stroke-linejoin="round"/>
<path d="M412.07,228.53 C412.07,228.53 410.55,227.98 410.55,227.98 C407.79,229.86 400.68,241.09 399.48,245.33 C397.63,252.05 398.01,259.57 398.62,261.37 C399.31,263.24 401.17,265.81 402.58,266.60 C403.79,267.23 406.74,267.41 408.06,266.97 C409.65,266.37 411.98,264.35 412.83,262.76 C413.97,260.54 414.81,254.23 414.81,253.13 C414.72,245.66 409.08,225.10 408.91,223.30 C408.91,223.30 409.19,223.16 409.19,223.16 C409.19,223.16 409.43,223.80 409.43,223.80" fill="none" stroke="rgb(255, 0, 0)" stroke-width="3.95" stroke-opacity="1.00" stroke-linejoin="round"/>
<path d="M405.53,284.75 C405.53,284.75 405.03,283.31 405.03,283.31 C404.90,286.12 403.54,303.32 404.14,309.78 C404.85,315.96 405.87,320.82 407.18,322.48 C407.74,323.14 409.13,323.44 410.14,323.24 C411.04,323.02 412.72,321.92 413.51,321.04 C415.07,319.18 416.19,314.02 416.01,311.29 C415.84,309.19 414.61,304.80 413.46,302.02 C412.51,299.78 409.96,295.77 406.87,291.39 C404.76,288.44 401.23,283.95 400.34,282.83 C400.35,282.93 400.36,283.01 400.38,283.06 C400.42,283.18 400.57,283.52 400.63,283.85" fill="none" stroke="rgb(255, 0, 0)" stroke-width="3.95" stroke-opacity="1.00" stroke-linejoin="round"/>
<path d="M405.79,348.66 C405.67,348.67 405.57,348.67 405.50,348.66 C405.42,348.65 405.25,348.63 405.00,348.58 C404.81,348.69 400.84,357.20 402.48,375.71 C402.82,379.26 403.78,384.48 404.45,386.14 C405.34,388.29 407.08,390.98 408.35,392.09 C409.32,392.91 411.35,393.72 412.44,393.81 C413.44,393.83 415.54,393.10 416.34,392.36 C418.06,390.70 419.73,384.65 419.78,382.08 C419.80,379.58 418.67,373.53 417.64,370.64 C416.46,367.43 413.54,361.64 410.77,357.46 C404.26,347.92 401.18,342.40 400.71,340.18 C400.17,337.56 400.35,335.58 401.12,334.14" fill="none" stroke="rgb(255, 0, 0)" stroke-width="3.95" stroke-opacity="1.00" stroke-linejoin="round"/>
<path d="M428.63,292.75 C428.63,292.75 429.21,292.76 429.21,292.76 C429.21,292.76 429.42,291.68 429.42,291.68 C428.96,293.46 428.21,297.47 427.88,300.58 C427.14,308.04 426.83,325.08 427.04,327.96 C427.14,329.23 428.53,335.33 429.84,336.91 C430.94,338.16 433.84,339.38 435.86,339.44 C437.66,339.46 440.89,338.48 442.46,337.49 C443.80,336.59 446.14,333.79 446.74,332.29 C447.86,329.32 446.87,324.12 445.77,320.86 C444.90,318.49 433.30,300.12 431.64,297.14 C426.68,288.20 425.98,282.40 426.12,280.87" fill="none" stroke="rgb(255, 0, 0)" stroke-width="3.95" stroke-opacity="1.00" stroke-linejoin="round"/>
<path d="M438.98,239.00 C439.76,237.04 440.45,235.08 440.52,234.01 C440.64,232.04 440.21,230.33 439.72,230.19 C438.28,230.61 436.30,234.84 435.62,238.31 C434.40,244.94 434.60,259.24 436.08,264.93 C436.51,266.45 437.89,269.20 438.91,270.40 C439.82,271.44 442.03,272.21 443.26,272.10 C444.31,271.96 446.30,270.78 447.00,269.85 C448.39,267.90 449.21,262.27 449.17,259.62 C449.06,255.31 446.51,244.98 442.27,234.24 C441.39,231.99 439.57,227.46 440.02,227.08 C440.02,227.08 441.90,226.88 441.90,226.88" fill="none" stroke="rgb(255, 0, 0)" stroke-width="3.95" stroke-opacity="1.00" stroke-linejoin="round"/>
<path d="M473.44,254.93 C473.12,253.80 472.39,252.05 471.61,251.24 C471.25,250.87 470.41,250.19 469.08,249.20 C467.54,250.18 466.59,251.44 465.61,254.09 C463.28,260.48 461.19,272.72 461.73,277.92 C462.00,280.31 463.69,284.69 464.74,285.54 C465.89,286.41 468.72,286.12 470.51,284.58 C472.58,282.74 474.59,279.14 475.35,276.38 C476.05,273.75 476.25,268.82 475.79,265.75 C474.91,260.20 470.09,250.20 469.55,248.76 C469.55,248.76 469.92,248.73 469.92,248.73 C469.92,248.73 470.73,249.32 470.73,249.32" fill="none" stroke="rgb(255, 0, 0)" stroke-width="3.95" stroke-opacity="1.00" stroke-linejoin="round"/>
<path d="M502.82,292.50 C502.38,291.32 501.52,289.21 501.14,288.50 C500.33,287.01 498.87,286.35 498.29,286.25 C497.46,286.58 496.25,289.36 495.38,293.15 C493.99,299.39 494.04,314.71 495.27,318.62 C496.42,321.92 498.66,325.80 501.05,326.39 C502.05,326.58 504.18,325.60 504.95,324.53 C506.44,322.37 507.37,316.54 507.39,314.25 C507.40,311.50 506.72,306.44 505.95,303.90 C505.17,301.41 503.15,297.52 501.65,295.51 C499.01,292.06 492.56,287.57 491.29,286.95 C491.29,286.95 493.31,287.73 493.31,287.73" fill="none" stroke="rgb(255, 0, 0)" stroke-width="3.95" stroke-opacity="1.00" stroke-linejoin="round"/>
<path d="M458.53,336.98 C458.16,336.33 457.90,335.88 457.73,335.65 C457.57,335.42 457.27,335.07 456.85,334.61 C456.85,334.61 456.12,334.77 456.12,334.77 C454.81,336.44 452.53,347.34 451.43,355.02 C450.55,361.63 450.34,373.56 451.07,376.16 C451.57,377.83 453.20,380.03 454.33,380.69 C455.26,381.19 457.24,381.35 458.25,381.07 C460.14,380.48 462.36,377.17 463.19,374.36 C463.83,372.01 464.21,366.51 463.92,363.25 C463.38,357.49 458.78,345.61 454.63,337.93 C453.72,336.27 452.71,334.49 451.95,333.20 C451.24,332.02 450.95,331.21 450.63,329.80" fill="none" stroke="rgb(255, 0, 0)" stroke-width="3.95" stroke-opacity="1.00" stroke-linejoin="round"/>
<path d="M477.69,333.87 C477.71,333.86 477.71,333.88 477.69,333.94 C477.51,334.53 477.38,334.98 477.31,335.27 C476.13,340.63 474.59,362.11 474.48,366.32 C474.31,373.82 475.78,382.11 477.17,383.95 C477.87,384.83 479.89,386.07 481.00,386.31 C482.28,386.53 485.20,386.05 486.57,385.30 C489.27,383.79 492.40,379.49 493.05,377.91 C493.81,375.95 494.05,371.23 493.55,368.92 C492.31,363.64 486.71,355.45 479.29,346.35 C472.05,337.33 468.40,332.12 467.47,330.10 C467.10,329.30 466.21,327.04 465.88,326.21" fill="none" stroke="rgb(255, 0, 0)" stroke-width="3.95" stroke-opacity="1.00" stroke-linejoin="round"/>
<path d="M440.37,390.93 C441.14,389.38 441.63,388.38 441.85,387.92 C442.52,386.53 442.85,385.63 442.84,385.42 C441.66,386.51 438.96,391.50 437.85,394.36 C435.65,400.11 433.23,413.39 433.33,417.77 C433.38,419.13 433.74,421.46 434.15,422.65 C434.66,424.06 436.26,425.91 437.46,426.53 C438.47,427.00 441.00,427.20 442.20,426.90 C443.38,426.56 445.86,425.00 446.84,423.96 C448.04,422.63 449.71,419.58 450.21,417.70 C450.98,414.70 450.58,407.41 450.25,405.94 C449.66,403.40 446.21,395.06 445.11,393.11 C442.78,389.03 440.41,386.35 439.34,385.34 C439.34,385.34 439.81,386.91 439.81,386.91" fill="none" stroke="rgb(255, 0, 0)" stroke-width="3.95" stroke-opacity="1.00" stroke-linejoin="round"/>
<path d="M405.09,462.51 C405.12,460.64 405.32,458.51 405.74,457.86 C405.92,457.59 406.37,457.21 407.09,456.72 C407.68,457.07 407.71,470.17 407.29,480.93 C405.72,507.65 405.57,516.43 406.09,519.09 C406.59,521.47 407.45,523.89 408.25,524.76 C409.22,525.74 411.32,526.02 412.64,525.27 C414.62,524.09 418.13,519.33 419.26,516.95 C420.52,514.22 422.09,508.86 422.51,505.38 C422.94,501.67 422.55,494.67 421.73,491.03 C420.27,484.68 413.85,471.41 410.46,466.81 C405.69,460.41 402.79,458.44 401.58,457.76 C401.58,457.76 401.30,458.01 401.30,458.01 C401.30,458.01 401.28,458.16 401.28,458.16" fill="none" stroke="rgb(255, 0, 0)" stroke-width="3.95" stroke-opacity="1.00" stroke-linejoin="round"/>
<path d="M407.56,532.38 C407.55,531.44 407.53,530.78 407.51,530.42 C407.44,529.33 407.31,528.47 407.12,527.85 C407.00,527.43 406.70,526.70 406.21,525.67 C406.21,525.67 405.18,526.01 405.18,526.01 C402.88,530.21 400.82,542.46 400.52,549.81 C400.21,557.61 401.18,573.11 403.26,579.81 C404.42,583.43 407.62,588.31 409.06,588.93 C409.80,589.19 411.57,588.57 412.42,587.67 C414.07,585.85 416.11,580.82 416.62,578.80 C417.19,576.50 417.40,571.52 417.08,569.63 C416.18,564.43 411.38,554.77 405.07,543.50 C399.44,533.36 395.94,526.45 395.81,526.12 C395.69,525.80 395.45,525.10 395.11,524.01" fill="none" stroke="rgb(255, 0, 0)" stroke-width="3.95" stroke-opacity="1.00" stroke-linejoin="round"/>
<path d="M406.55,590.51 C406.43,590.51 406.29,590.51 406.14,590.51 C404.60,590.59 403.22,591.16 401.87,592.36 C400.31,593.78 397.20,597.58 395.82,601.03 C394.29,604.97 393.03,618.10 393.62,626.31 C393.89,630.00 394.90,637.06 395.57,640.09 C396.34,643.48 398.63,649.47 400.28,650.54 C401.11,651.03 402.95,650.76 404.09,650.08 C406.17,648.75 410.49,642.95 412.06,640.03 C413.65,636.96 414.03,631.30 413.53,628.23 C412.61,623.06 408.68,611.94 406.02,605.75 C398.48,588.81 396.41,581.34 396.58,579.81" fill="none" stroke="rgb(255, 0, 0)" stroke-width="3.95" stroke-opacity="1.00" stroke-linejoin="round"/>
<path d="M438.09,476.60 C437.67,476.45 437.04,475.64 436.57,474.51 C436.42,474.18 436.34,473.82 436.22,473.48 C436.20,473.40 436.16,473.35 436.12,473.33 C435.68,477.20 435.67,483.00 435.90,488.78 C436.33,497.10 437.50,517.41 438.14,521.50 C438.41,523.15 439.25,525.24 439.92,526.09 C441.31,527.70 447.07,529.03 449.66,528.73 C450.74,528.57 452.52,527.78 453.07,527.15 C454.15,525.81 454.36,519.19 453.89,515.64 C452.53,506.28 449.50,494.21 447.35,488.90 C445.95,485.46 443.44,480.74 441.64,478.11 C440.07,475.87 434.08,469.77 434.02,469.70 C432.53,468.18 431.98,467.12 432.18,466.35 C432.24,466.17 432.43,465.74 432.39,465.70 C432.39,465.70 432.50,466.75 432.50,466.75" fill="none" stroke="rgb(255, 0, 0)" stroke-width="3.95" stroke-opacity="1.00" stroke-linejoin="round"/>
<path d="M437.96,547.17 C437.96,547.17 444.26,544.71 444.26,544.71 C444.50,544.21 443.78,542.28 442.63,540.97 C441.90,540.15 439.21,538.81 438.28,538.70 C437.15,538.63 435.12,539.59 434.47,540.67 C433.06,543.15 432.38,548.27 432.31,551.76 C432.04,566.15 434.30,586.95 435.24,589.26 C435.73,590.41 437.29,591.95 438.11,592.13 C439.25,592.30 441.65,591.55 442.94,590.50 C445.17,588.65 448.36,583.82 449.16,582.17 C450.11,580.16 451.22,576.10 451.35,573.98 C451.46,571.88 450.43,567.26 449.70,565.57 C447.79,561.28 442.08,552.84 435.20,543.30 C429.99,536.04 429.21,534.26 429.08,533.74 C429.08,533.74 429.19,533.54 429.19,533.54" fill="none" stroke="rgb(255, 0, 0)" stroke-width="3.95" stroke-opacity="1.00" stroke-linejoin="round"/>
<path d="M452.37,598.38 C452.37,598.38 452.29,598.04 452.29,598.04 C451.94,598.87 451.69,599.63 451.32,601.14 C447.59,616.66 445.36,633.44 444.95,639.24 C444.72,642.75 445.11,648.30 446.31,650.21 C447.49,652.00 453.36,654.74 456.16,655.20 C457.60,655.41 460.61,655.38 461.90,655.13 C463.28,654.82 465.17,653.58 465.62,652.55 C466.31,650.82 465.65,644.85 465.08,642.59 C463.49,636.50 457.74,624.00 453.32,616.83 C450.94,613.07 446.38,605.91 444.19,602.51 C442.94,600.59 442.47,599.70 441.91,598.31" fill="none" stroke="rgb(255, 0, 0)" stroke-width="3.95" stroke-opacity="1.00" stroke-linejoin="round"/>
<path d="M504.03,603.02 C504.03,603.02 503.57,602.92 503.57,602.92 C503.23,603.00 502.62,605.51 502.38,606.53 C500.23,613.66 499.17,623.10 499.35,629.43 C499.56,636.38 501.45,647.50 503.33,652.14 C504.11,654.00 505.59,656.33 506.85,657.67 C508.49,659.34 512.93,660.30 515.05,659.48 C516.35,658.92 518.28,657.36 519.07,656.08 C520.41,653.89 521.51,648.72 521.46,646.43 C521.38,643.96 520.30,639.02 519.16,635.93 C517.83,632.44 515.26,627.81 512.65,623.99 C504.20,611.79 503.78,611.05 503.39,610.10" fill="none" stroke="rgb(255, 0, 0)" stroke-width="3.95" stroke-opacity="1.00" stroke-linejoin="round"/>
<path d="M484.67,548.44 C484.43,549.59 484.31,550.59 484.45,551.53 C487.15,568.27 488.78,589.27 489.63,591.87 C490.03,593.01 491.25,594.28 492.36,594.74 C494.38,595.48 499.49,594.17 500.69,592.72 C501.51,591.67 502.10,589.37 501.86,587.81 C501.23,584.09 495.37,573.99 489.58,566.07 C487.29,563.00 483.22,557.54 481.45,555.16 C477.97,550.42 477.42,549.50 477.04,548.74" fill="none" stroke="rgb(255, 0, 0)" stroke-width="3.95" stroke-opacity="1.00" stroke-linejoin="round"/>
<path d="M468.87,505.16 C468.87,505.16 467.69,505.59 467.69,505.59 C467.69,505.59 466.91,505.08 466.91,505.08 C464.57,505.61 462.87,533.97 463.40,540.63 C463.64,543.29 465.22,548.46 466.66,549.72 C468.02,550.85 472.45,551.27 474.31,550.58 C475.22,550.21 476.85,548.84 477.46,547.89 C478.84,545.59 479.62,538.96 479.40,536.56 C479.17,534.42 478.20,528.71 476.97,525.66 C476.05,523.40 470.79,513.60 470.75,513.50 C470.03,511.79 469.13,508.52 469.16,507.23 C469.21,505.33 469.74,503.41 470.18,502.97" fill="none" stroke="rgb(255, 0, 0)" stroke-width="3.95" stroke-opacity="1.00" stroke-linejoin="round"/>
<path d="M493.18,493.23 C492.48,493.96 492.06,494.46 491.92,494.73 C491.01,496.48 492.00,508.12 493.72,520.96 C495.62,534.45 497.56,545.68 499.39,548.11 C499.99,548.87 501.66,548.99 502.65,548.46 C504.52,547.38 509.20,541.41 509.89,538.76 C510.46,536.45 508.82,530.90 507.32,528.27 C502.78,520.88 494.95,506.30 493.43,503.06 C490.43,496.61 488.26,488.54 488.23,487.39" fill="none" stroke="rgb(255, 0, 0)" stroke-width="3.95" stroke-opacity="1.00" stroke-linejoin="round"/>
<path d="M500.03,429.38 C500.20,429.76 500.28,430.04 500.27,430.21 C500.25,430.71 498.02,448.54 497.23,456.15 C496.92,459.73 496.73,465.62 496.96,469.01 C497.30,473.68 498.50,479.45 500.05,481.15 C500.69,481.80 502.25,482.16 503.09,481.93 C504.70,481.40 507.68,478.17 508.53,475.78 C509.39,473.21 509.01,468.13 507.41,463.70 C506.77,461.98 502.95,454.35 501.38,451.23 C499.55,447.56 497.48,442.00 495.94,436.57 C495.14,433.71 494.31,429.92 494.24,429.67" fill="none" stroke="rgb(255, 0, 0)" stroke-width="3.95" stroke-opacity="1.00" stroke-linejoin="round"/>
<path d="M482.07,396.95 C482.07,396.95 481.60,395.85 481.60,395.85 C481.60,395.85 481.06,396.03 481.06,396.03 C479.21,399.57 477.96,410.12 478.25,418.15 C478.35,420.98 479.08,427.56 479.78,430.65 C480.12,431.99 481.47,433.94 482.62,434.42 C484.10,434.99 487.84,434.25 489.35,433.25 C490.75,432.24 490.80,427.41 489.97,424.27 C488.88,420.24 487.25,415.46 485.63,411.48 C484.28,408.23 480.55,400.63 478.84,398.17 C478.64,397.88 478.49,397.75 478.40,397.79" fill="none" stroke="rgb(255, 0, 0)" stroke-width="3.95" stroke-opacity="1.00" stroke-linejoin="round"/>
<path d="M449.70,441.25 C449.70,441.25 449.70,441.17 449.70,441.17 C449.70,441.20 449.69,441.29 449.69,441.44 C449.66,446.81 450.41,454.97 452.13,467.57 C453.02,473.65 453.86,477.71 454.52,478.72 C455.55,480.17 459.42,480.79 461.75,480.06 C462.74,479.73 464.59,478.54 465.12,477.88 C466.16,476.47 465.03,472.25 463.74,469.75 C461.87,466.17 450.76,447.03 449.46,443.45 C447.63,438.25 449.25,434.07 449.84,432.93" fill="none" stroke="rgb(255, 0, 0)" stroke-width="3.95" stroke-opacity="1.00" stroke-linejoin="round"/>
<path d="M508.22,371.00 C508.28,370.67 508.32,370.45 508.34,370.34 C508.37,370.23 508.40,370.08 508.46,369.88 C507.79,369.96 507.16,370.26 506.61,371.00 C504.31,374.11 499.78,386.20 498.75,392.65 C497.77,398.97 498.69,408.01 499.81,410.14 C500.58,411.54 502.56,412.72 503.97,412.75 C506.10,412.70 511.98,409.80 513.99,407.73 C515.13,406.48 516.44,403.84 516.52,402.27 C516.61,399.64 514.17,392.62 513.59,391.40 C511.37,386.77 503.74,375.41 503.58,375.06 C503.44,374.77 503.26,374.19 503.04,373.33 C503.04,373.33 503.26,373.00 503.26,373.00" fill="none" stroke="rgb(255, 0, 0)" stroke-width="3.95" stroke-opacity="1.00" stroke-linejoin="round"/>
</g>
</svg>
