<?xml version="1.0" encoding="UTF-8" standalone="no"?>
<!DOCTYPE svg PUBLIC "-//W3C//DTD SVG 1.1//EN" "http://www.w3.org/Graphics/SVG/1.1/DTD/svg11.dtd">
<svg width="128.40" height="181.68" viewBox="0.00 0.00 535.00 757.00" xmlns="http://www.w3.org/2000/svg" xmlns:xlink="http://www.w3.org/1999/xlink">
<g stroke-linecap="round" id="219">
<path d="M464.91,485.80 C465.17,485.42 465.68,484.71 465.72,484.64 C465.76,484.55 465.79,484.42 465.82,484.25 C465.82,484.25 465.62,484.06 465.62,484.06 C464.88,484.23 463.55,485.73 461.00,489.97 C459.83,491.91 454.82,497.24 455.16,498.24 C455.29,498.53 455.39,498.76 455.45,498.92 C455.45,498.92 458.93,498.92 458.93,498.92 C458.93,498.92 458.23,504.41 458.23,504.41 C458.82,505.52 462.87,503.88 463.08,503.54 C462.98,503.39 462.77,503.23 462.57,503.16 C462.52,503.15 462.47,503.14 462.41,503.15" fill="none" stroke="rgb(255, 0, 0)" stroke-width="4.02" stroke-opacity="1.00" stroke-linejoin="round"/>
<path d="M459.77,505.38 C459.77,505.38 459.09,505.26 459.09,505.26 C459.31,507.12 460.71,509.11 462.25,509.65 C463.89,510.17 466.91,509.75 468.07,508.19 C469.21,506.57 470.28,501.82 470.22,498.75 C470.14,495.61 469.07,490.35 468.48,488.90 C467.83,487.37 464.83,485.50 464.06,485.37 C463.96,485.35 463.84,485.37 463.70,485.43 C463.70,485.43 463.63,485.60 463.63,485.60" fill="none" stroke="rgb(255, 0, 0)" stroke-width="4.02" stroke-opacity="1.00" stroke-linejoin="round"/>
<path d="M463.82,492.31 C463.82,492.31 462.94,492.20 462.94,492.20 C462.66,492.38 462.15,495.88 462.43,496.52 C462.47,496.61 462.57,496.71 462.73,496.82 C462.73,496.82 463.45,493.26 463.45,493.26 C463.45,493.26 463.27,496.23 463.27,496.23 C464.61,494.84 463.76,492.97 463.54,492.74 C463.54,492.74 462.59,494.62 462.59,494.62" fill="none" stroke="rgb(255, 0, 0)" stroke-width="4.02" stroke-opacity="1.00" stroke-linejoin="round"/>
<path d="M461.07,510.27 C461.04,510.27 461.01,510.27 460.98,510.28 C460.96,510.29 460.91,510.31 460.84,510.35 C460.81,510.95 460.63,512.64 460.52,516.54 C460.42,519.38 459.71,522.49 458.24,525.51 C457.55,526.88 455.76,528.51 452.46,530.30 C449.78,531.84 447.74,534.36 447.25,535.38 C446.94,536.05 447.06,537.54 447.12,537.83 C446.51,538.12 446.58,540.70 447.29,541.21 C448.04,541.70 450.42,541.93 451.72,541.75 C453.30,541.50 456.49,538.67 457.40,538.06 C457.77,537.80 457.99,537.65 458.06,537.59 C458.12,537.55 458.15,537.51 458.18,537.46" fill="none" stroke="rgb(255, 0, 0)" stroke-width="4.02" stroke-opacity="1.00" stroke-linejoin="round"/>
<path d="M447.91,537.58 C447.88,537.60 447.87,537.62 447.86,537.64 C447.86,537.66 447.86,537.70 447.87,537.78 C449.90,537.69 453.95,536.66 456.61,535.30 C457.17,535.01 459.31,533.74 459.51,533.64 C459.59,533.60 459.69,533.57 459.79,533.55" fill="none" stroke="rgb(255, 0, 0)" stroke-width="4.02" stroke-opacity="1.00" stroke-linejoin="round"/>
<path d="M459.65,537.02 C459.65,537.02 459.59,536.69 459.59,536.69 C459.23,538.34 458.41,542.07 458.10,543.21 C457.14,546.65 454.53,552.09 452.99,553.62 C451.14,555.38 445.99,558.83 442.87,560.12 C442.53,560.26 435.75,562.76 434.25,563.49 C432.30,564.45 428.77,566.89 428.03,568.09 C427.27,569.40 426.97,573.18 427.29,574.31 C427.60,575.27 429.09,576.93 431.12,577.70 C433.08,578.41 437.56,578.69 443.46,578.80 C447.47,578.82 451.14,578.12 457.28,576.65 C462.28,575.46 467.69,573.67 468.89,572.59 C470.12,571.39 471.04,566.87 471.21,562.62 C471.54,552.68 471.02,525.90 469.92,513.54 C469.46,508.59 468.17,503.37 467.95,502.77 C467.95,502.77 467.17,503.62 467.17,503.62" fill="none" stroke="rgb(255, 0, 0)" stroke-width="4.02" stroke-opacity="1.00" stroke-linejoin="round"/>
<path d="M427.55,569.85 C427.55,569.85 426.29,570.36 426.29,570.36 C426.40,570.38 438.32,572.44 442.58,572.11 C444.25,571.98 446.99,571.56 448.04,571.38 C448.26,571.34 448.51,571.32 448.79,571.32" fill="none" stroke="rgb(255, 0, 0)" stroke-width="4.02" stroke-opacity="1.00" stroke-linejoin="round"/>
<path d="M384.74,402.26 C385.00,400.87 385.17,400.01 385.23,399.68 C385.30,399.35 385.37,399.07 385.44,398.87 C385.12,401.16 385.04,402.57 385.18,404.60 C385.73,411.82 387.18,428.97 387.13,432.04 C387.08,434.92 385.22,475.39 385.15,490.25 C385.63,520.93 386.35,592.11 385.58,611.17 C385.11,619.23 383.43,634.37 382.89,641.34 C382.05,654.64 384.34,674.89 384.40,677.29 C384.40,677.29 382.25,671.16 382.25,671.16" fill="none" stroke="rgb(255, 0, 255)" stroke-width="4.02" stroke-opacity="1.00" stroke-linejoin="round"/>
<path d="M375.86,407.00 C377.17,406.09 378.62,405.02 379.00,404.64 C379.12,404.51 379.21,404.37 379.26,404.20 C379.26,404.20 379.24,404.19 379.24,404.20 C378.75,407.14 378.34,412.55 378.15,417.54 C377.75,432.53 379.09,464.70 379.89,480.00 C380.35,488.60 378.46,551.75 376.76,599.10 C376.29,617.23 375.33,654.50 375.34,657.23 C375.38,660.84 377.08,675.85 377.84,681.88 C377.84,681.88 376.79,679.75 376.79,679.75" fill="none" stroke="rgb(255, 0, 255)" stroke-width="4.02" stroke-opacity="1.00" stroke-linejoin="round"/>
<path d="M524.53,295.86 C524.53,295.86 526.50,293.77 526.50,293.77 C525.46,294.20 520.82,297.14 512.40,301.20 C497.94,307.74 470.53,319.99 460.68,325.40 C453.63,329.35 439.68,337.21 432.78,341.12 C424.96,345.64 419.50,349.49 411.37,355.68 C407.75,358.51 394.62,369.98 389.07,375.22 C381.61,382.57 373.48,391.34 369.24,396.50 C365.37,401.35 359.82,408.79 354.90,416.22 C352.15,420.49 345.42,433.13 343.00,438.70 C341.24,442.75 333.74,461.86 332.46,464.48 C333.27,463.49 333.08,461.81 333.92,460.28 C335.59,457.25 344.99,446.36 349.77,441.68 C353.38,438.16 364.40,428.94 369.99,424.92 C374.72,421.54 387.24,414.42 394.23,411.66 C400.15,409.36 411.04,406.47 422.63,404.08 C437.35,401.39 467.07,396.96 479.72,396.23 C488.25,395.87 518.74,398.38 519.59,398.34 C519.71,398.33 519.91,398.32 520.18,398.28" fill="none" stroke="rgb(255, 0, 255)" stroke-width="4.02" stroke-opacity="1.00" stroke-linejoin="round"/>
<path d="M505.97,310.00 C505.97,310.00 506.03,309.78 506.03,309.78 C504.84,310.18 501.06,312.75 497.73,314.71 C484.33,322.38 451.02,342.27 447.45,344.85 C438.62,351.29 436.19,353.66 435.17,354.95" fill="none" stroke="rgb(255, 0, 255)" stroke-width="4.02" stroke-opacity="1.00" stroke-linejoin="round"/>
<path d="M501.79,321.95 C501.79,321.95 502.04,320.29 502.04,320.29 C501.72,320.31 466.15,337.28 453.17,344.04 C439.89,351.30 411.12,368.08 404.14,372.56 C398.00,376.73 384.00,386.41 378.73,390.64 C371.06,396.90 363.17,404.43 359.45,409.10 C357.62,411.41 353.72,417.47 353.07,418.72 C352.40,420.00 351.74,421.59 351.76,421.73 C351.76,421.73 352.02,421.49 352.02,421.49" fill="none" stroke="rgb(255, 0, 255)" stroke-width="4.02" stroke-opacity="1.00" stroke-linejoin="round"/>
<path d="M477.70,338.92 C477.70,338.92 478.03,338.23 478.03,338.23 C474.76,339.27 461.51,347.38 454.96,351.39 C439.59,360.95 422.40,371.69 402.63,385.49 C390.99,393.77 363.72,415.61 357.08,422.08 C353.39,425.72 352.03,427.83 350.71,430.15 C350.71,430.15 354.14,429.39 354.14,429.39" fill="none" stroke="rgb(255, 0, 255)" stroke-width="4.02" stroke-opacity="1.00" stroke-linejoin="round"/>
<path d="M502.34,335.49 C502.34,335.49 504.44,332.52 504.44,332.52 C503.24,332.11 500.01,333.29 495.39,335.46 C484.02,340.98 454.15,357.29 441.08,364.97 C428.08,373.15 394.04,395.03 388.23,399.29 C385.96,400.98 380.20,405.29 380.10,405.71 C380.50,405.64 380.77,405.58 380.92,405.54 C381.06,405.49 381.28,405.40 381.56,405.26" fill="none" stroke="rgb(255, 0, 255)" stroke-width="4.02" stroke-opacity="1.00" stroke-linejoin="round"/>
<path d="M502.21,356.02 C502.21,356.02 505.72,352.36 505.72,352.36 C500.28,353.86 470.61,367.62 456.68,374.26 C442.53,381.22 412.75,395.78 397.12,403.37 C375.68,413.73 373.39,415.71 373.05,416.22 C373.05,416.22 375.13,416.30 375.13,416.30" fill="none" stroke="rgb(255, 0, 255)" stroke-width="4.02" stroke-opacity="1.00" stroke-linejoin="round"/>
<path d="M504.56,374.99 C504.56,374.99 505.00,373.88 505.00,373.88 C505.00,373.88 504.80,373.43 504.80,373.43 C502.91,373.40 485.19,376.43 476.52,378.11 C460.96,381.42 434.01,388.76 417.61,394.01 C408.86,397.01 405.77,398.82 403.10,400.56 C403.10,400.56 403.35,401.19 403.35,401.19 C403.35,401.19 405.13,400.98 405.13,400.98" fill="none" stroke="rgb(255, 0, 255)" stroke-width="4.02" stroke-opacity="1.00" stroke-linejoin="round"/>
<path d="M499.77,381.03 C504.49,378.97 507.60,378.89 507.82,379.33 C505.39,380.86 496.33,382.41 484.90,383.70 C460.07,386.68 454.42,387.83 452.58,388.66 C452.95,389.42 453.44,389.77 454.75,389.76 C455.80,389.75 457.08,389.72 458.57,389.67 C474.97,388.74 492.66,387.74 493.96,387.67" fill="none" stroke="rgb(255, 0, 255)" stroke-width="4.02" stroke-opacity="1.00" stroke-linejoin="round"/>
<path d="M515.04,386.38 C524.32,383.92 527.44,384.41 527.85,385.06 C526.18,386.99 512.20,393.03 505.10,396.09 C497.49,399.42 482.87,405.89 475.87,409.03 C466.26,413.45 455.00,419.20 454.29,419.47 C453.43,419.80 440.21,424.03 437.67,424.89" fill="none" stroke="rgb(255, 0, 255)" stroke-width="4.02" stroke-opacity="1.00" stroke-linejoin="round"/>
<path d="M388.16,588.82 C388.16,588.82 387.84,589.29 387.84,589.29 C387.84,589.29 387.78,589.20 387.78,589.20 C387.70,589.31 390.16,588.74 391.18,588.51 C392.08,588.31 410.85,584.73 416.11,584.71 C429.92,584.78 458.99,584.72 474.25,584.60 C490.19,584.47 522.98,584.46 525.43,585.72 C526.75,586.42 527.79,587.58 527.84,588.20" fill="none" stroke="rgb(107, 87, 69)" stroke-width="4.02" stroke-opacity="1.00" stroke-linejoin="round"/>
<path d="M396.02,608.41 C396.02,608.41 393.77,608.61 393.77,608.61 C395.65,607.59 400.80,606.44 404.55,605.85 C410.04,605.01 447.18,601.16 461.58,599.89 C476.50,598.86 494.04,598.78 501.24,598.90 C505.10,599.00 510.04,599.52 512.88,600.50 C512.88,600.50 512.69,601.04 512.69,601.04" fill="none" stroke="rgb(107, 87, 69)" stroke-width="4.02" stroke-opacity="1.00" stroke-linejoin="round"/>
<path d="M401.68,617.33 C401.68,617.33 391.86,617.53 391.86,617.53 C406.90,616.73 437.97,615.29 453.99,614.65 C468.94,614.35 506.97,613.79 511.87,613.93 C516.12,614.05 518.12,614.25 518.07,614.26" fill="none" stroke="rgb(107, 87, 69)" stroke-width="4.02" stroke-opacity="1.00" stroke-linejoin="round"/>
<path d="M396.62,592.84 C396.62,592.84 395.29,592.37 395.29,592.37 C395.88,592.21 406.44,594.52 414.17,595.16 C422.42,595.80 460.16,595.57 475.94,595.39 C491.23,595.14 521.04,596.08 524.23,596.02 C524.23,596.02 524.29,595.75 524.29,595.75 C524.29,595.75 523.59,595.56 523.59,595.56" fill="none" stroke="rgb(107, 87, 69)" stroke-width="4.02" stroke-opacity="1.00" stroke-linejoin="round"/>
<path d="M393.66,634.86 C393.66,634.86 391.82,634.50 391.82,634.50 C391.82,634.50 391.39,633.40 391.39,633.40 C391.39,633.40 413.40,628.43 413.40,628.43 C420.12,627.33 499.00,623.69 499.54,623.64 C501.34,623.47 502.85,623.10 503.29,622.79 C503.29,622.79 502.50,621.98 502.50,621.98" fill="none" stroke="rgb(107, 87, 69)" stroke-width="4.02" stroke-opacity="1.00" stroke-linejoin="round"/>
<path d="M399.66,638.77 C399.66,638.77 395.99,640.57 395.99,640.57 C403.14,638.66 416.10,637.16 423.75,636.43 C439.40,635.16 470.23,633.51 486.08,632.81 C509.40,632.17 514.71,632.38 515.72,632.48 C515.72,632.48 514.04,632.68 514.04,632.68" fill="none" stroke="rgb(107, 87, 69)" stroke-width="4.02" stroke-opacity="1.00" stroke-linejoin="round"/>
<path d="M411.84,648.48 C411.84,648.48 405.17,650.44 405.17,650.44 C406.29,650.76 444.82,647.29 460.12,646.08 C476.28,645.17 509.29,644.07 513.99,644.73 C513.99,644.73 512.70,644.91 512.70,644.91" fill="none" stroke="rgb(107, 87, 69)" stroke-width="4.02" stroke-opacity="1.00" stroke-linejoin="round"/>
<path d="M415.33,654.13 C415.33,654.13 402.63,656.76 402.63,656.76 C405.48,657.71 411.99,657.66 413.49,657.66 C430.37,657.58 464.43,657.61 481.63,657.73 C487.54,658.05 501.13,659.03 508.80,659.69 C490.98,659.39 469.96,659.96 453.73,661.15 C445.79,661.90 431.32,663.91 428.34,664.49 C425.75,665.00 418.01,667.39 416.35,668.60 C417.30,670.21 418.41,670.99 420.51,671.25 C425.55,671.85 440.34,671.76 446.04,671.56 C453.76,671.17 495.63,666.82 501.93,665.57 C495.59,665.46 450.82,670.17 445.20,671.04 C440.26,671.82 432.10,673.71 430.88,674.57 C432.13,675.70 444.15,675.88 455.18,675.58 C471.28,675.00 498.75,673.88 501.30,673.11 C501.30,673.11 501.24,672.75 501.24,672.75 C501.24,672.75 500.47,672.26 500.47,672.26" fill="none" stroke="rgb(107, 87, 69)" stroke-width="4.02" stroke-opacity="1.00" stroke-linejoin="round"/>
<path d="M20.87,205.85 C20.87,205.85 18.99,205.85 18.99,205.85 C17.37,204.64 15.32,187.05 15.25,180.31 C15.20,173.84 16.36,160.84 17.57,154.31 C19.49,144.01 26.99,122.53 29.75,117.20 C32.14,112.64 34.51,108.79 35.68,107.46" fill="none" stroke="rgb(0, 0, 255)" stroke-width="4.02" stroke-opacity="1.00" stroke-linejoin="round"/>
<path d="M44.36,185.15 C44.36,185.15 43.86,184.86 43.86,184.86 C43.02,181.73 44.50,167.36 45.92,159.28 C47.35,151.69 50.75,138.65 52.07,134.48 C53.86,128.86 59.02,116.13 62.38,109.79 C65.84,103.47 72.64,91.31 76.13,86.56 C78.99,82.77 80.03,81.72 82.13,79.84" fill="none" stroke="rgb(0, 0, 255)" stroke-width="4.02" stroke-opacity="1.00" stroke-linejoin="round"/>
<path d="M19.51,293.47 C19.48,293.49 19.43,293.56 19.34,293.68 C19.26,293.79 19.03,294.12 18.65,294.65 C18.65,294.65 17.73,294.48 17.73,294.48 C16.44,290.99 15.99,283.84 16.06,280.37 C16.22,274.23 17.81,259.92 19.62,252.02 C21.44,244.48 25.54,229.20 28.05,220.76 C30.74,212.15 34.60,204.04 35.50,202.85 C35.69,202.59 36.12,202.14 36.77,201.50" fill="none" stroke="rgb(0, 0, 255)" stroke-width="4.02" stroke-opacity="1.00" stroke-linejoin="round"/>
<path d="M41.26,246.29 C40.31,245.16 39.78,244.07 39.67,242.56 C39.37,237.92 42.64,224.18 45.58,216.42 C50.57,203.46 62.96,177.05 70.36,163.51 C92.91,123.41 101.40,112.99 103.95,110.16" fill="none" stroke="rgb(0, 0, 255)" stroke-width="4.02" stroke-opacity="1.00" stroke-linejoin="round"/>
<path d="M16.62,405.25 C16.62,405.25 16.35,406.39 16.35,406.39 C17.39,401.51 20.39,357.99 21.48,348.60 C22.39,342.05 24.93,327.05 26.41,319.59 C27.93,312.40 31.91,298.90 34.04,292.17 C36.23,285.67 41.31,271.21 43.68,265.91 C46.01,260.81 48.67,255.70 50.40,253.18 C52.26,250.55 53.96,249.10 55.98,247.60" fill="none" stroke="rgb(0, 0, 255)" stroke-width="4.02" stroke-opacity="1.00" stroke-linejoin="round"/>
<path d="M26.27,459.44 C25.12,457.78 24.38,453.11 24.41,448.25 C24.46,444.73 27.11,430.84 29.75,422.01 C32.96,411.91 36.50,402.33 39.92,394.06 C42.62,387.96 48.77,374.87 52.09,368.25 C57.22,358.37 61.24,351.50 64.10,348.80" fill="none" stroke="rgb(0, 0, 255)" stroke-width="4.02" stroke-opacity="1.00" stroke-linejoin="round"/>
<path d="M53.37,441.48 C53.37,441.48 53.49,441.96 53.49,441.96 C53.37,440.74 53.25,439.19 53.26,438.00 C53.28,434.24 54.83,416.95 55.48,410.24 C56.15,404.35 62.58,374.40 64.47,365.97 C66.50,357.63 68.86,353.39 69.33,352.52" fill="none" stroke="rgb(0, 0, 255)" stroke-width="4.02" stroke-opacity="1.00" stroke-linejoin="round"/>
<path d="M60.70,489.24 C60.70,489.24 59.06,489.25 59.06,489.25 C57.31,487.00 56.59,485.67 56.35,483.88 C55.97,481.12 55.26,475.71 55.36,473.16 C55.74,464.55 57.66,453.57 59.40,447.01 C61.22,440.30 64.92,430.02 69.39,418.63 C72.65,410.77 77.85,399.23 80.95,392.88 C100.25,355.92 106.83,345.92 109.19,342.52" fill="none" stroke="rgb(0, 0, 255)" stroke-width="4.02" stroke-opacity="1.00" stroke-linejoin="round"/>
<path d="M89.31,502.15 C89.38,501.95 88.26,501.28 87.88,500.90 C86.93,499.87 86.39,493.25 86.82,487.95 C87.31,482.43 89.96,468.05 91.86,460.55 C93.04,455.92 99.18,436.76 100.80,432.44 C103.59,425.19 111.58,407.74 113.66,403.69 C117.61,396.03 122.16,389.16 126.82,382.38" fill="none" stroke="rgb(0, 0, 255)" stroke-width="4.02" stroke-opacity="1.00" stroke-linejoin="round"/>
<path d="M109.20,509.25 C108.46,505.51 108.02,501.79 108.24,498.05 C108.62,492.19 111.40,476.80 113.75,467.28 C115.72,459.86 120.07,444.04 122.43,435.64 C125.78,424.55 129.81,415.27 131.93,412.08 C132.85,410.71 136.85,406.91 139.05,405.48 C143.47,402.65 152.29,399.30 153.19,398.97" fill="none" stroke="rgb(0, 0, 255)" stroke-width="4.02" stroke-opacity="1.00" stroke-linejoin="round"/>
<path d="M126.98,523.31 C126.98,523.31 126.34,523.15 126.34,523.15 C125.50,521.66 126.02,515.19 126.89,510.89 C127.51,507.88 132.21,491.17 134.51,483.66 C136.86,476.70 142.97,460.57 144.94,455.84 C147.37,450.14 156.02,433.34 157.94,429.90 C162.40,422.10 169.93,410.88 173.65,405.43" fill="none" stroke="rgb(0, 0, 255)" stroke-width="4.02" stroke-opacity="1.00" stroke-linejoin="round"/>
<path d="M161.41,460.49 C161.19,458.49 161.24,457.39 161.73,456.01 C163.37,451.33 179.94,414.17 186.48,399.72 C192.98,386.60 206.09,360.87 213.57,348.30 C218.96,339.50 224.47,331.39 231.24,322.18 C237.78,313.62 243.62,306.66 249.89,299.89 C255.50,294.00 265.22,284.71 271.65,279.57 C274.53,277.32 279.37,273.52 282.12,271.76" fill="none" stroke="rgb(0, 0, 255)" stroke-width="4.02" stroke-opacity="1.00" stroke-linejoin="round"/>
<path d="M145.83,531.08 C145.83,531.08 145.42,530.84 145.42,530.84 C145.56,529.49 159.02,490.54 164.32,476.97 C170.26,462.75 185.17,429.99 189.44,421.36 C192.94,414.59 210.31,384.93 219.95,369.70 C252.05,321.49 254.52,317.26 256.72,313.27" fill="none" stroke="rgb(0, 0, 255)" stroke-width="4.02" stroke-opacity="1.00" stroke-linejoin="round"/>
<path d="M147.07,554.43 C147.07,554.43 146.28,556.94 146.28,556.94 C148.45,549.94 152.99,535.72 155.51,528.76 C160.06,516.68 170.49,490.80 178.43,473.50 C184.18,461.34 198.08,433.74 205.35,420.25 C211.94,408.54 226.63,384.02 234.18,372.16 C243.71,357.99 258.69,337.47 266.64,327.08 C271.78,320.80 282.59,307.77 288.27,301.02 C302.73,284.04 306.66,280.77 307.17,280.50" fill="none" stroke="rgb(0, 0, 255)" stroke-width="4.02" stroke-opacity="1.00" stroke-linejoin="round"/>
<path d="M183.62,549.54 C183.62,549.54 182.70,550.65 182.70,550.65 C182.70,550.65 182.60,550.60 182.60,550.60 C183.07,547.33 187.93,533.06 190.49,526.13 C193.09,519.43 206.15,490.27 213.88,475.01 C220.55,462.57 235.52,436.61 243.31,423.90 C252.35,409.81 262.85,393.47 263.62,392.10" fill="none" stroke="rgb(0, 0, 255)" stroke-width="4.02" stroke-opacity="1.00" stroke-linejoin="round"/>
<path d="M256.07,452.92 C256.07,452.92 254.14,452.02 254.14,452.02 C253.71,451.39 255.68,446.36 257.28,443.53 C264.36,431.37 279.24,407.50 286.94,396.05 C295.44,384.16 312.60,361.31 321.25,350.35 C332.80,336.05 342.99,324.34 345.03,321.56" fill="none" stroke="rgb(0, 0, 255)" stroke-width="4.02" stroke-opacity="1.00" stroke-linejoin="round"/>
<path d="M229.45,446.38 C229.45,446.38 228.66,445.33 228.66,445.33 C228.80,442.86 230.17,438.55 232.43,434.01 C234.53,429.84 243.50,414.39 247.33,408.26 C255.55,395.56 273.43,372.26 284.17,359.50 C288.78,354.21 298.77,343.23 303.89,337.69 C307.80,333.62 319.91,322.01 325.50,317.24 C342.13,303.44 349.55,298.78 351.98,297.55 C353.36,296.85 354.26,296.56 355.20,296.41 C355.17,296.48 355.11,296.57 355.04,296.67 C351.13,301.84 335.84,327.91 331.40,335.55" fill="none" stroke="rgb(0, 0, 255)" stroke-width="4.02" stroke-opacity="1.00" stroke-linejoin="round"/>
<path d="M270.34,444.95 C269.73,445.79 269.29,446.46 269.02,446.96 C268.42,448.10 267.97,449.31 267.43,450.48 C267.19,451.00 266.84,451.68 266.37,452.53 C266.89,449.77 268.04,446.66 270.33,441.79 C275.28,431.78 280.98,421.32 285.43,414.53 C288.51,409.92 298.11,396.67 302.44,390.81 C310.97,379.88 330.55,357.70 341.90,345.42 C353.55,333.39 376.06,310.91 379.26,306.19 C378.99,305.99 376.36,307.30 375.87,307.63 C375.55,307.85 375.39,307.99 375.40,308.05" fill="none" stroke="rgb(0, 0, 255)" stroke-width="4.02" stroke-opacity="1.00" stroke-linejoin="round"/>
<path d="M285.81,465.68 C285.33,465.59 284.98,465.53 284.75,465.50 C284.53,465.47 284.10,465.44 283.48,465.39 C282.86,465.04 288.45,449.68 292.50,440.95 C296.02,433.75 302.80,420.70 306.11,414.84 C309.68,408.85 320.34,392.97 323.17,389.16 C326.02,385.33 337.32,371.71 342.66,365.96 C350.32,358.00 358.03,350.72 365.37,344.66 C379.45,333.13 389.22,328.72 392.05,327.96 C392.05,327.96 392.97,328.57 392.97,328.57 C392.97,328.57 392.47,329.75 392.47,329.75" fill="none" stroke="rgb(0, 0, 255)" stroke-width="4.02" stroke-opacity="1.00" stroke-linejoin="round"/>
<path d="M326.24,456.43 C326.67,453.63 328.88,448.22 331.45,443.28 C335.39,436.17 342.47,424.27 346.16,418.54 C353.96,407.02 367.67,389.00 381.38,373.32 C388.76,365.32 414.39,339.71 415.11,338.67" fill="none" stroke="rgb(0, 0, 255)" stroke-width="4.02" stroke-opacity="1.00" stroke-linejoin="round"/>
<path d="M54.67,274.66 C54.67,274.66 53.90,277.31 53.90,277.31 C53.97,276.74 55.22,274.04 57.48,269.37 C64.31,255.37 76.27,231.20 86.14,214.05 C90.31,207.15 101.21,190.35 103.65,187.07 C105.63,184.44 107.67,182.09 109.45,180.12" fill="none" stroke="rgb(0, 0, 255)" stroke-width="4.02" stroke-opacity="1.00" stroke-linejoin="round"/>
<path d="M101.64,152.64 C102.56,149.99 112.01,136.11 115.65,130.94 C120.32,124.61 129.84,111.87 134.69,105.46 C147.36,89.37 153.03,84.90 154.91,83.59" fill="none" stroke="rgb(0, 0, 255)" stroke-width="4.02" stroke-opacity="1.00" stroke-linejoin="round"/>
<path d="M65.80,316.51 C65.80,316.51 62.85,316.13 62.85,316.13 C62.36,312.61 65.77,293.53 66.64,289.42 C68.07,282.73 71.51,270.81 74.21,262.44 C77.58,252.57 81.02,243.69 85.28,233.92 C89.66,224.44 94.20,215.70 99.47,206.48 C104.94,197.18 123.51,171.50 132.80,158.79 C135.82,154.61 137.43,152.20 138.74,149.76" fill="none" stroke="rgb(0, 0, 255)" stroke-width="4.02" stroke-opacity="1.00" stroke-linejoin="round"/>
<path d="M77.55,365.27 C76.21,364.53 75.78,361.13 76.51,357.95 C77.15,355.27 88.01,321.27 94.94,302.09 C100.87,286.30 112.52,256.52 118.41,242.97 C124.47,229.70 138.32,201.92 145.94,187.84 C154.96,171.72 169.66,148.30 175.92,139.15 C183.45,128.46 186.55,124.48 188.38,122.51 C188.38,122.51 188.85,122.74 188.85,122.74 C188.85,122.74 188.04,124.75 188.04,124.75" fill="none" stroke="rgb(0, 0, 255)" stroke-width="4.02" stroke-opacity="1.00" stroke-linejoin="round"/>
<path d="M134.67,259.26 C134.67,259.26 132.76,260.51 132.76,260.51 C133.17,257.46 137.10,249.55 142.86,238.82 C159.55,208.45 178.88,180.12 184.45,172.74 C186.46,170.12 190.56,165.58 191.59,164.66 C191.70,164.57 191.77,164.55 191.81,164.59" fill="none" stroke="rgb(0, 0, 255)" stroke-width="4.02" stroke-opacity="1.00" stroke-linejoin="round"/>
<path d="M176.28,235.41 C176.62,230.13 181.12,219.87 186.09,211.09 C194.27,197.09 209.79,172.62 217.26,161.64 C225.58,149.96 262.57,103.48 263.63,102.22 C266.03,99.44 266.81,99.06 267.59,99.05 C267.28,100.85 267.05,102.00 266.92,102.50 C266.79,103.00 266.57,103.56 266.25,104.16" fill="none" stroke="rgb(0, 0, 255)" stroke-width="4.02" stroke-opacity="1.00" stroke-linejoin="round"/>
<path d="M191.63,299.66 C189.96,298.92 189.43,296.40 189.80,293.03 C190.54,286.84 193.43,275.12 196.46,264.64 C200.75,250.46 211.54,222.28 217.86,208.57 C222.52,198.85 228.99,186.63 232.52,181.15 C233.34,179.88 234.02,178.99 234.37,178.63" fill="none" stroke="rgb(0, 0, 255)" stroke-width="4.02" stroke-opacity="1.00" stroke-linejoin="round"/>
<path d="M187.20,332.42 C188.37,323.59 190.74,315.52 194.05,306.67 C197.01,299.14 214.83,264.32 222.77,249.96 C226.78,243.13 234.93,229.40 237.06,226.57 C237.06,226.57 237.30,227.04 237.30,227.04 C237.25,227.29 236.80,228.49 236.15,230.04 C234.86,232.99 232.38,238.70 231.17,241.45" fill="none" stroke="rgb(0, 0, 255)" stroke-width="4.02" stroke-opacity="1.00" stroke-linejoin="round"/>
<path d="M188.11,357.75 C188.02,353.71 188.32,350.65 189.70,347.05 C193.70,336.82 208.42,308.72 214.92,296.55 C223.14,281.66 239.31,252.56 247.27,238.36 C250.09,233.26 254.01,226.11 255.09,224.05" fill="none" stroke="rgb(0, 0, 255)" stroke-width="4.02" stroke-opacity="1.00" stroke-linejoin="round"/>
<path d="M238.92,227.62 C238.76,227.44 238.90,225.60 239.30,224.02 C240.40,219.71 245.56,209.61 251.06,199.77 C255.06,192.77 263.19,179.48 267.41,173.17 C277.15,159.45 291.97,142.02 301.77,132.80 C307.19,127.73 314.34,122.38 316.39,120.87" fill="none" stroke="rgb(0, 0, 255)" stroke-width="4.02" stroke-opacity="1.00" stroke-linejoin="round"/>
<path d="M261.63,145.05 C261.27,143.97 263.16,138.65 264.61,136.29 C266.36,133.50 277.30,119.25 281.81,113.68 C286.18,108.55 296.80,96.88 299.53,94.18 C313.15,80.73 322.52,74.74 323.22,74.29" fill="none" stroke="rgb(0, 0, 255)" stroke-width="4.02" stroke-opacity="1.00" stroke-linejoin="round"/>
<path d="M289.82,173.54 C288.25,172.71 285.29,168.18 285.56,167.12 C286.11,165.21 297.63,149.73 301.88,144.16 C308.95,135.35 338.25,101.20 343.07,96.20 C356.97,82.24 363.70,76.24 368.00,72.84" fill="none" stroke="rgb(0, 0, 255)" stroke-width="4.02" stroke-opacity="1.00" stroke-linejoin="round"/>
<path d="M297.49,196.60 C297.49,196.60 291.60,195.94 291.60,195.94 C291.96,193.62 293.47,189.79 295.55,186.48 C300.75,178.28 321.53,151.39 333.06,137.67 C341.32,128.14 355.27,115.65 359.93,112.63" fill="none" stroke="rgb(0, 0, 255)" stroke-width="4.02" stroke-opacity="1.00" stroke-linejoin="round"/>
<path d="M324.25,195.77 C322.97,194.80 322.08,193.20 322.22,191.70 C322.47,189.40 329.96,179.49 337.37,170.47 C347.95,157.85 364.11,138.57 376.82,124.39 C382.19,118.59 393.03,106.99 396.00,104.59" fill="none" stroke="rgb(0, 0, 255)" stroke-width="4.02" stroke-opacity="1.00" stroke-linejoin="round"/>
<path d="M362.69,181.17 C362.04,180.84 360.77,179.78 360.65,178.89 C360.39,176.72 363.65,170.05 365.26,167.30 C369.52,160.03 391.70,128.72 398.55,120.13 C402.88,114.88 414.02,102.32 416.47,99.82 C422.63,93.54 429.04,88.42 431.62,86.84" fill="none" stroke="rgb(0, 0, 255)" stroke-width="4.02" stroke-opacity="1.00" stroke-linejoin="round"/>
<path d="M345.55,222.24 C345.99,219.79 355.10,208.05 359.38,202.54 C381.25,175.11 408.84,142.18 420.81,129.16 C426.97,122.62 431.57,118.34 432.28,117.68" fill="none" stroke="rgb(0, 0, 255)" stroke-width="4.02" stroke-opacity="1.00" stroke-linejoin="round"/>
<path d="M362.86,249.15 C364.03,245.92 383.73,213.29 391.65,200.22 C394.98,194.96 402.59,183.14 406.91,176.76 C411.13,170.88 420.65,158.51 425.20,153.34 C432.67,145.03 436.56,141.10 443.65,135.05 C449.05,130.57 459.10,123.93 463.13,122.05" fill="none" stroke="rgb(0, 0, 255)" stroke-width="4.02" stroke-opacity="1.00" stroke-linejoin="round"/>
<path d="M432.23,199.46 C431.29,198.82 432.09,195.92 434.43,192.35 C437.08,188.37 461.48,159.16 472.43,146.10 C483.50,133.33 503.95,110.29 513.32,100.02 C521.09,91.84 529.57,83.71 532.27,81.60" fill="none" stroke="rgb(0, 0, 255)" stroke-width="4.02" stroke-opacity="1.00" stroke-linejoin="round"/>
<path d="M462.39,206.76 C462.39,206.76 461.42,205.50 461.42,205.50 C461.37,203.11 462.65,199.90 465.86,194.34 C472.80,183.01 477.19,176.70 483.26,169.77 C488.77,163.59 498.50,155.63 503.83,152.45 C506.31,150.98 512.21,148.42 513.98,147.83 C516.06,147.16 523.00,146.13 524.29,146.45" fill="none" stroke="rgb(0, 0, 255)" stroke-width="4.02" stroke-opacity="1.00" stroke-linejoin="round"/>
<path d="M430.69,327.45 C430.38,327.21 430.02,326.67 430.05,326.06 C430.15,324.52 432.21,319.05 433.38,316.62 C436.24,310.71 442.15,300.32 448.04,291.03 C452.42,284.37 462.56,270.12 465.89,265.85 C470.16,260.51 479.53,249.48 484.27,244.17 C494.68,232.82 505.84,222.65 506.61,221.95" fill="none" stroke="rgb(0, 0, 255)" stroke-width="4.02" stroke-opacity="1.00" stroke-linejoin="round"/>
<path d="M464.23,315.68 C464.23,315.68 463.08,314.79 463.08,314.79 C462.83,312.76 462.93,311.42 463.61,309.97 C465.52,305.88 471.78,296.56 476.89,290.64 C489.18,276.82 505.48,260.88 512.19,254.51" fill="none" stroke="rgb(0, 0, 255)" stroke-width="4.02" stroke-opacity="1.00" stroke-linejoin="round"/>
<path d="M497.22,303.65 C496.55,305.02 496.10,305.90 495.87,306.28 C495.65,306.65 495.33,307.05 494.93,307.48 C495.94,302.88 501.21,291.04 504.49,284.75 C512.01,271.02 520.90,254.85 522.27,252.41" fill="none" stroke="rgb(0, 0, 255)" stroke-width="4.02" stroke-opacity="1.00" stroke-linejoin="round"/>
<path d="M391.82,323.44 C392.45,319.42 394.35,315.33 396.34,312.26 C400.73,305.65 409.35,292.84 413.06,287.60 C416.15,283.37 425.80,271.96 429.94,267.87 C434.65,263.22 443.39,256.00 447.18,254.07" fill="none" stroke="rgb(0, 0, 255)" stroke-width="4.02" stroke-opacity="1.00" stroke-linejoin="round"/>
<path d="M386.08,310.56 C385.42,308.71 385.07,307.21 385.34,306.07 C386.40,301.83 395.11,287.04 398.93,280.63 C407.03,267.61 422.60,243.81 433.57,228.80 C436.45,224.95 438.05,222.96 440.13,220.65" fill="none" stroke="rgb(0, 0, 255)" stroke-width="4.02" stroke-opacity="1.00" stroke-linejoin="round"/>
<path d="M366.47,284.20 C366.47,284.20 366.17,283.81 366.17,283.81 C366.36,282.19 366.69,281.23 367.74,279.49 C371.88,272.52 380.84,260.19 385.24,254.25 C395.60,240.77 414.69,218.82 422.72,210.39 C425.49,207.54 428.60,204.68 432.06,201.65" fill="none" stroke="rgb(0, 0, 255)" stroke-width="4.02" stroke-opacity="1.00" stroke-linejoin="round"/>
<path d="M314.30,308.56 C313.63,307.06 313.58,305.76 314.27,304.20 C315.60,301.25 325.49,283.49 327.67,279.96 C331.61,273.62 341.47,260.33 346.26,254.81 C358.52,240.76 367.75,234.50 369.31,233.48" fill="none" stroke="rgb(0, 0, 255)" stroke-width="4.02" stroke-opacity="1.00" stroke-linejoin="round"/>
<path d="M309.19,288.99 C309.78,287.00 312.66,281.22 315.07,277.39 C316.77,274.72 327.68,259.74 332.65,253.38 C338.52,246.30 347.76,236.07 353.27,230.29 C368.58,214.94 373.44,211.47 376.03,209.71" fill="none" stroke="rgb(0, 0, 255)" stroke-width="4.02" stroke-opacity="1.00" stroke-linejoin="round"/>
<path d="M276.23,278.15 C277.01,277.67 277.89,276.78 278.28,275.81 C278.46,275.36 280.38,268.36 281.55,265.95 C284.19,260.60 290.55,251.12 296.37,243.30 C300.54,237.81 310.29,227.83 315.17,223.43 C331.46,208.78 340.61,204.00 342.04,203.50" fill="none" stroke="rgb(0, 0, 255)" stroke-width="4.02" stroke-opacity="1.00" stroke-linejoin="round"/>
<path d="M257.32,277.84 C256.17,276.77 255.43,274.81 255.44,272.40 C255.48,270.18 257.66,264.29 259.78,260.52 C262.75,255.31 269.50,246.96 276.19,239.57 C283.50,231.78 311.95,205.82 320.72,198.64 C323.74,196.20 330.68,190.53 331.12,190.13 C332.34,188.98 335.09,185.55 337.25,183.10" fill="none" stroke="rgb(0, 0, 255)" stroke-width="4.02" stroke-opacity="1.00" stroke-linejoin="round"/>
<path d="M119.05,389.46 C118.48,388.43 119.75,384.38 122.23,379.93 C123.41,377.82 145.90,341.90 154.83,328.34 C168.05,308.84 181.37,290.97 184.74,288.27" fill="none" stroke="rgb(0, 0, 255)" stroke-width="4.02" stroke-opacity="1.00" stroke-linejoin="round"/>
<path d="M80.80,425.10 C80.31,423.70 80.58,422.75 82.43,419.45 C83.65,417.22 85.58,404.43 88.12,397.17 C91.20,388.50 96.07,377.90 100.72,369.83 C105.08,362.46 111.09,353.74 115.96,347.44 C125.57,335.28 140.18,320.42 143.93,316.68" fill="none" stroke="rgb(0, 0, 255)" stroke-width="4.02" stroke-opacity="1.00" stroke-linejoin="round"/>
<path d="M74.48,404.64 C74.87,397.63 77.13,387.83 80.46,378.76 C84.69,367.72 98.10,337.26 103.84,325.24 C105.91,321.02 113.76,307.66 117.87,300.77 C128.56,283.62 135.85,275.37 138.77,272.51" fill="none" stroke="rgb(0, 0, 255)" stroke-width="4.02" stroke-opacity="1.00" stroke-linejoin="round"/>
<path d="M234.61,554.75 C234.43,554.63 234.33,554.56 234.28,554.53 C234.24,554.50 234.21,554.47 234.19,554.44 C234.19,554.44 234.87,554.46 234.87,554.46 C236.22,552.30 250.89,514.69 258.96,496.66 C267.19,479.22 278.72,456.88 280.85,454.06" fill="none" stroke="rgb(0, 0, 255)" stroke-width="4.02" stroke-opacity="1.00" stroke-linejoin="round"/>
<path d="M202.37,554.75 C202.49,553.87 205.19,549.28 206.55,545.81 C209.11,539.19 215.09,525.28 218.06,518.91 C221.84,511.19 227.27,500.97 231.96,493.46 C236.68,486.05 243.49,477.20 248.39,471.55 C252.75,466.52 262.25,456.70 266.23,453.41 C268.56,451.50 275.43,447.34 275.96,447.16 C276.34,447.04 277.15,446.86 278.40,446.63" fill="none" stroke="rgb(0, 0, 255)" stroke-width="4.02" stroke-opacity="1.00" stroke-linejoin="round"/>
<path d="M252.59,563.57 C252.59,563.57 250.56,562.19 250.56,562.19 C250.12,559.76 251.27,555.48 252.56,552.34 C258.65,537.91 271.44,512.78 278.60,500.31 C288.38,484.30 299.40,467.90 310.27,453.05 C312.66,449.88 316.15,445.64 318.94,442.51 C320.62,440.63 322.62,438.75 323.38,438.05" fill="none" stroke="rgb(0, 0, 255)" stroke-width="4.02" stroke-opacity="1.00" stroke-linejoin="round"/>
<path d="M283.38,556.01 C282.38,555.36 281.87,553.44 282.16,550.78 C282.39,548.76 289.77,533.36 293.07,526.58 C296.65,519.52 302.80,509.22 306.45,503.55 C310.60,497.28 318.53,487.36 323.99,481.05 C329.17,475.21 333.77,471.63 334.58,471.09" fill="none" stroke="rgb(0, 0, 255)" stroke-width="4.02" stroke-opacity="1.00" stroke-linejoin="round"/>
<path d="M323.78,542.42 C321.99,541.79 320.73,540.92 320.44,539.70 C319.98,537.68 321.01,532.25 321.57,530.52 C323.40,524.94 329.97,511.47 334.28,503.88 C336.80,499.45 347.38,482.99 350.58,478.49 C355.57,471.77 362.87,462.74 369.39,455.66 C375.68,448.92 378.07,447.19 380.53,445.53" fill="none" stroke="rgb(0, 0, 255)" stroke-width="4.02" stroke-opacity="1.00" stroke-linejoin="round"/>
<path d="M346.43,547.78 C346.43,547.78 345.51,547.97 345.51,547.97 C345.72,545.31 346.94,541.52 349.32,536.15 C352.95,528.42 360.20,513.88 363.66,508.13 C370.57,496.66 386.01,474.65 389.43,471.07 C390.31,470.16 392.60,468.18 394.01,467.08 C394.98,466.32 401.86,461.35 404.18,459.68" fill="none" stroke="rgb(0, 0, 255)" stroke-width="4.02" stroke-opacity="1.00" stroke-linejoin="round"/>
<path d="M47.91,530.20 C47.95,529.98 47.99,529.81 48.03,529.70 C48.14,529.36 48.30,529.04 48.43,528.71 C48.53,528.45 48.72,527.90 49.02,527.06 C48.09,526.45 47.11,526.38 45.35,526.98 C42.36,528.04 39.16,530.38 36.95,533.17 C33.69,537.34 27.38,549.72 24.70,556.36 C20.52,566.75 12.73,591.05 8.26,607.83 C7.36,611.47 5.61,618.93 4.90,622.29 C4.20,625.74 3.74,630.11 3.66,631.55" fill="none" stroke="rgb(0, 0, 255)" stroke-width="4.02" stroke-opacity="1.00" stroke-linejoin="round"/>
<path d="M84.75,509.97 C84.75,509.97 84.78,508.21 84.78,508.21 C84.78,508.21 84.24,508.03 84.24,508.03 C81.38,509.53 76.77,514.31 74.79,516.58 C70.09,522.04 62.15,533.21 59.09,538.11 C55.90,543.25 48.82,556.38 44.85,565.03 C41.77,572.01 36.86,584.96 34.59,591.48 C28.50,610.21 26.56,620.54 26.34,621.73" fill="none" stroke="rgb(0, 0, 255)" stroke-width="4.02" stroke-opacity="1.00" stroke-linejoin="round"/>
<path d="M86.38,544.60 C86.38,544.60 85.86,541.54 85.86,541.54 C86.37,540.84 86.89,540.15 87.40,539.46 C87.61,539.16 87.84,538.84 88.08,538.49 C86.99,538.36 83.20,540.85 80.95,543.26 C77.46,547.06 70.77,556.58 67.51,561.97 C63.49,568.64 45.54,604.12 38.34,619.22 C34.80,626.96 28.62,640.61 25.98,646.51 C24.90,648.93 24.04,651.62 23.73,652.70" fill="none" stroke="rgb(0, 0, 255)" stroke-width="4.02" stroke-opacity="1.00" stroke-linejoin="round"/>
<path d="M134.93,518.44 C134.93,518.44 137.56,515.23 137.56,515.23 C137.56,515.23 137.27,513.77 137.27,513.77 C136.29,513.04 133.21,514.54 130.47,517.14 C127.00,520.51 116.11,536.30 113.30,540.79 C108.07,549.21 88.95,585.82 86.28,591.53 C67.24,634.33 60.75,652.61 60.44,653.49" fill="none" stroke="rgb(0, 0, 255)" stroke-width="4.02" stroke-opacity="1.00" stroke-linejoin="round"/>
<path d="M191.08,517.89 C191.08,517.89 191.56,516.21 191.56,516.21 C187.76,518.60 185.32,520.49 182.47,523.96 C177.37,530.27 156.42,561.54 146.57,576.35 C142.64,582.31 136.67,591.37 135.04,593.99 C134.20,595.37 132.82,597.63 132.28,598.50" fill="none" stroke="rgb(0, 0, 255)" stroke-width="4.02" stroke-opacity="1.00" stroke-linejoin="round"/>
<path d="M210.37,522.51 C210.37,522.51 211.20,520.02 211.20,520.02 C210.17,519.59 206.25,522.18 203.42,524.93 C200.49,527.82 192.40,538.06 188.29,543.99 C177.96,559.48 164.60,582.07 157.35,596.05 C150.79,609.26 140.33,631.91 133.49,648.84 C129.63,659.06 127.64,665.27 126.90,667.66" fill="none" stroke="rgb(0, 0, 255)" stroke-width="4.02" stroke-opacity="1.00" stroke-linejoin="round"/>
<path d="M237.00,525.98 C237.00,525.98 237.44,525.29 237.44,525.29 C235.91,526.51 212.89,558.36 205.61,568.92 C201.34,575.38 192.91,588.47 188.85,595.20 C181.47,607.99 168.06,636.14 163.88,647.63 C162.72,650.82 160.93,656.94 160.15,659.64" fill="none" stroke="rgb(0, 0, 255)" stroke-width="4.02" stroke-opacity="1.00" stroke-linejoin="round"/>
<path d="M264.74,550.57 C264.49,550.08 264.30,549.74 264.16,549.57 C263.70,549.02 262.51,548.42 261.90,548.59 C259.60,549.31 251.36,557.18 245.68,563.83 C239.67,571.04 231.63,582.21 227.59,588.88 C224.15,594.60 216.80,608.84 214.08,615.28 C206.91,632.75 202.64,647.85 201.93,653.82" fill="none" stroke="rgb(0, 0, 255)" stroke-width="4.02" stroke-opacity="1.00" stroke-linejoin="round"/>
<path d="M292.09,553.83 C292.09,553.83 292.21,551.73 292.21,551.73 C290.89,550.83 286.79,552.05 284.08,553.84 C279.32,557.05 271.54,565.72 265.19,574.10 C259.21,582.34 254.32,589.72 248.70,598.93 C240.35,613.36 228.50,637.29 222.88,650.86 C219.44,659.51 216.25,669.14 215.59,672.41" fill="none" stroke="rgb(0, 0, 255)" stroke-width="4.02" stroke-opacity="1.00" stroke-linejoin="round"/>
<path d="M299.28,586.76 C299.28,586.76 301.24,581.89 301.24,581.89 C301.24,581.89 299.99,580.99 299.99,580.99 C296.16,581.65 291.19,584.50 288.40,586.73 C282.63,591.40 273.03,602.74 269.44,607.99 C265.14,614.29 258.94,625.15 255.68,632.10 C252.83,638.20 248.99,648.94 247.03,656.35 C246.13,659.88 245.05,666.17 244.91,669.15 C244.80,672.17 245.60,674.25 246.19,674.80" fill="none" stroke="rgb(0, 0, 255)" stroke-width="4.02" stroke-opacity="1.00" stroke-linejoin="round"/>
<path d="M343.61,541.35 C344.37,540.60 344.89,540.13 345.16,539.92 C345.43,539.72 345.84,539.50 346.38,539.26 C343.44,542.22 331.90,559.50 329.28,563.91 C323.38,573.88 310.22,601.80 305.12,614.68 C297.06,636.69 292.61,652.62 291.86,656.65" fill="none" stroke="rgb(0, 0, 255)" stroke-width="4.02" stroke-opacity="1.00" stroke-linejoin="round"/>
<path d="M366.57,568.02 C365.87,567.23 364.30,566.45 363.07,566.51 C360.54,566.68 352.74,576.47 347.46,584.36 C343.46,590.65 336.06,603.13 332.34,609.83 C328.72,616.70 321.99,630.26 318.62,637.46 C315.69,643.93 309.82,657.74 308.39,663.15" fill="none" stroke="rgb(0, 0, 255)" stroke-width="4.02" stroke-opacity="1.00" stroke-linejoin="round"/>
<path d="M378.75,611.24 C378.30,610.66 374.17,610.49 371.35,611.92 C369.64,612.82 364.09,617.16 361.96,619.49 C357.54,624.36 349.99,635.16 346.13,642.28 C342.79,648.44 336.85,662.90 334.90,669.46 C332.48,677.72 331.92,683.20 331.88,684.31" fill="none" stroke="rgb(0, 0, 255)" stroke-width="4.02" stroke-opacity="1.00" stroke-linejoin="round"/>
</g>
</svg>
