<?xml version="1.0" encoding="UTF-8" standalone="no"?>
<!DOCTYPE svg PUBLIC "-//W3C//DTD SVG 1.1//EN" "http://www.w3.org/Graphics/SVG/1.1/DTD/svg11.dtd">
<svg width="64.20" height="90.84" viewBox="0.00 0.00 535.00 757.00" xmlns="http://www.w3.org/2000/svg" xmlns:xlink="http://www.w3.org/1999/xlink">
<g stroke-linecap="round" id="22">
<path d="M217.22,424.23 C217.63,423.35 217.50,422.52 216.58,422.22 C214.78,421.69 204.55,414.37 202.47,413.60 C201.45,413.23 197.93,413.38 196.33,413.91 C192.42,415.24 184.46,420.36 181.73,423.47 C177.76,428.07 172.79,436.38 172.79,436.82 C172.81,437.21 172.82,437.67 172.84,438.21" fill="none" stroke="rgb(33, 228, 63)" stroke-width="3.09" stroke-opacity="1.00" stroke-linejoin="round"/>
<path d="M215.23,427.83 C214.73,427.77 213.34,426.72 211.99,426.54 C208.19,426.16 202.60,425.39 200.21,425.90 C197.39,426.55 184.50,431.53 182.02,434.19 C181.58,434.67 177.05,440.34 176.16,440.86 C175.92,441.00 175.33,441.28 174.40,441.69 C173.85,441.49 173.49,441.32 173.32,441.18 C173.15,441.03 172.92,440.72 172.65,440.23" fill="none" stroke="rgb(33, 228, 63)" stroke-width="3.09" stroke-opacity="1.00" stroke-linejoin="round"/>
<path d="M181.04,439.63 C180.74,439.63 180.37,439.62 180.36,439.63 C178.65,439.93 174.35,447.95 173.37,452.47 C172.43,456.91 171.85,461.96 172.09,461.67 C172.09,461.67 172.96,461.82 172.96,461.82" fill="none" stroke="rgb(33, 228, 63)" stroke-width="3.09" stroke-opacity="1.00" stroke-linejoin="round"/>
<path d="M192.44,430.63 C192.44,430.63 192.24,430.63 192.24,430.63 C192.17,430.54 190.75,438.45 190.14,439.88 C189.86,440.51 178.45,456.74 177.57,458.00 C176.12,460.10 173.83,464.77 173.72,465.65 C173.68,465.97 173.95,466.89 174.05,467.21" fill="none" stroke="rgb(33, 228, 63)" stroke-width="3.09" stroke-opacity="1.00" stroke-linejoin="round"/>
<path d="M197.03,429.63 C196.97,429.91 196.91,430.19 196.85,430.47 C195.45,436.87 191.81,447.17 189.95,449.53 C189.29,450.35 188.12,451.33 187.10,452.03 C187.10,452.03 187.44,451.22 187.44,451.22" fill="none" stroke="rgb(33, 228, 63)" stroke-width="3.09" stroke-opacity="1.00" stroke-linejoin="round"/>
<path d="M215.23,426.03 C215.23,426.03 215.23,425.93 215.23,425.93 C215.23,425.93 215.13,425.83 215.13,425.83 C215.13,425.83 215.05,425.88 215.05,425.88 C218.01,428.95 220.61,432.46 221.32,434.26 C221.73,435.30 223.92,441.90 226.03,444.86 C228.40,448.13 235.51,451.96 235.67,452.28 C235.81,453.13 235.09,455.06 233.56,456.23 C232.57,456.96 228.62,458.40 226.79,459.33 C226.54,459.46 226.08,459.69 225.42,460.02" fill="none" stroke="rgb(33, 228, 63)" stroke-width="3.09" stroke-opacity="1.00" stroke-linejoin="round"/>
<path d="M176.05,461.81 C176.05,461.81 175.65,462.01 175.65,462.01 C175.65,463.88 175.97,468.47 176.09,469.07 C176.52,471.04 179.91,475.63 182.26,477.60 C183.06,478.27 188.95,482.94 190.97,485.28 C192.88,487.52 195.81,491.43 196.52,492.75 C197.71,495.05 198.48,500.57 197.96,502.03 C197.87,502.26 197.63,502.58 197.23,502.99" fill="none" stroke="rgb(33, 228, 63)" stroke-width="3.09" stroke-opacity="1.00" stroke-linejoin="round"/>
<path d="M226.42,460.22 C226.42,460.22 225.92,460.22 225.92,460.22 C225.65,460.85 224.81,464.65 224.45,464.84 C224.23,464.94 221.69,466.03 220.04,466.01 C220.04,466.01 226.01,469.39 226.01,469.39 C225.23,471.31 221.19,476.95 220.39,477.67 C216.68,480.78 215.17,483.20 214.78,485.67 C214.41,488.25 214.25,492.07 214.23,494.74 C214.23,495.08 214.23,495.42 214.23,495.76" fill="none" stroke="rgb(33, 228, 63)" stroke-width="3.09" stroke-opacity="1.00" stroke-linejoin="round"/>
<path d="M194.24,449.62 C194.24,449.62 193.98,449.12 193.98,449.12 C193.69,448.56 193.54,448.20 193.53,448.04 C193.51,447.88 193.62,447.69 193.84,447.48 C194.11,449.63 193.54,452.21 192.22,454.14 C189.30,458.36 187.89,458.82 187.70,458.85 C187.70,458.85 187.64,457.22 187.64,457.22" fill="none" stroke="rgb(33, 228, 63)" stroke-width="3.09" stroke-opacity="1.00" stroke-linejoin="round"/>
<path d="M194.64,460.22 C193.97,460.17 193.51,460.03 193.19,459.72 C192.91,459.45 191.94,458.31 191.57,458.15 C190.79,458.29 189.19,460.66 189.04,461.98 C188.83,464.61 193.78,467.91 195.07,468.09 C195.27,468.12 195.56,468.10 195.94,468.05" fill="none" stroke="rgb(33, 228, 63)" stroke-width="3.09" stroke-opacity="1.00" stroke-linejoin="round"/>
<path d="M209.83,444.02 C209.83,444.02 209.93,444.02 209.93,444.02 C209.93,444.02 215.43,439.43 215.43,439.43 C215.43,439.43 214.94,439.74 214.94,439.74" fill="none" stroke="rgb(33, 228, 63)" stroke-width="3.09" stroke-opacity="1.00" stroke-linejoin="round"/>
<path d="M214.03,444.82 C214.00,444.86 213.94,444.89 213.83,444.92 C213.72,444.96 213.41,445.03 212.90,445.16 C212.90,445.16 212.09,449.38 212.09,449.38 C214.54,449.13 217.89,445.56 217.91,445.07 C216.24,444.34 214.03,446.88 213.92,447.17 C213.92,447.17 216.37,446.26 216.37,446.26 C215.94,446.20 215.59,446.23 215.33,446.34 C215.07,446.44 214.54,446.78 213.74,447.35" fill="none" stroke="rgb(33, 228, 63)" stroke-width="3.09" stroke-opacity="1.00" stroke-linejoin="round"/>
<path d="M196.85,501.19 C196.85,501.19 197.04,501.19 197.04,501.19 C196.97,502.42 196.40,504.36 194.79,507.01 C193.54,509.05 190.39,512.73 188.09,514.75 C185.43,517.06 180.06,520.62 177.12,522.21 C174.41,523.67 172.14,525.56 170.79,527.82 C168.58,531.58 166.34,540.93 165.34,548.45 C164.38,556.41 163.09,572.38 162.93,573.91 C162.16,581.42 162.92,597.40 162.97,598.57 C163.04,600.11 163.05,602.42 163.07,602.94 C163.07,603.12 163.10,603.40 163.15,603.79" fill="none" stroke="rgb(33, 228, 63)" stroke-width="3.09" stroke-opacity="1.00" stroke-linejoin="round"/>
<path d="M185.99,550.80 C185.99,550.80 185.43,550.62 185.43,550.62 C185.00,550.75 184.60,551.41 183.85,554.63 C178.30,578.58 176.16,604.29 175.13,606.56 C175.13,606.56 174.95,605.66 174.95,605.66" fill="none" stroke="rgb(33, 228, 63)" stroke-width="3.09" stroke-opacity="1.00" stroke-linejoin="round"/>
<path d="M164.09,599.11 C164.09,599.12 164.09,599.75 164.09,600.29 C164.04,604.51 161.37,618.22 162.27,621.82 C162.46,622.55 163.70,623.49 164.76,623.63 C165.83,623.75 168.39,623.37 169.31,622.85 C171.45,621.59 174.45,618.50 174.84,617.38 C175.27,616.04 175.16,609.88 175.11,609.99 C175.11,609.99 174.20,610.34 174.20,610.34" fill="none" stroke="rgb(33, 228, 63)" stroke-width="3.09" stroke-opacity="1.00" stroke-linejoin="round"/>
<path d="M166.34,611.28 C166.34,611.28 166.34,611.18 166.34,611.18 C167.26,610.27 173.37,613.54 174.57,615.01 C174.57,615.01 174.10,612.95 174.10,612.95" fill="none" stroke="rgb(33, 228, 63)" stroke-width="3.09" stroke-opacity="1.00" stroke-linejoin="round"/>
<path d="M165.03,607.72 C165.03,607.72 164.74,607.77 164.74,607.77 C164.74,607.77 158.29,620.82 158.29,620.82 C158.29,620.82 158.63,619.11 158.63,619.11" fill="none" stroke="rgb(33, 228, 63)" stroke-width="3.09" stroke-opacity="1.00" stroke-linejoin="round"/>
<path d="M166.34,605.47 C166.61,605.38 168.68,606.88 169.97,608.79 C171.06,610.43 171.74,612.96 172.14,614.64 C172.14,614.64 172.14,612.40 172.14,612.40" fill="none" stroke="rgb(33, 228, 63)" stroke-width="3.09" stroke-opacity="1.00" stroke-linejoin="round"/>
<path d="M175.51,602.48 C175.51,602.48 175.56,601.49 175.56,601.49 C175.98,600.98 178.51,600.14 179.19,600.41 C180.07,600.82 181.81,605.95 181.96,606.11 C182.02,606.17 182.18,606.27 182.44,606.41" fill="none" stroke="rgb(33, 228, 63)" stroke-width="3.09" stroke-opacity="1.00" stroke-linejoin="round"/>
<path d="M184.50,551.18 C184.50,551.18 184.03,551.37 184.03,551.37 C186.71,550.81 189.47,551.04 192.56,552.38 C193.76,552.91 195.21,554.73 196.77,557.78 C198.39,560.95 203.66,572.30 207.85,579.38 C211.62,585.75 216.91,593.31 218.15,594.57 C218.15,594.57 217.63,592.74 217.63,592.74" fill="none" stroke="rgb(33, 228, 63)" stroke-width="3.09" stroke-opacity="1.00" stroke-linejoin="round"/>
<path d="M217.82,499.88 C217.82,499.88 217.82,499.69 217.82,499.69 C218.98,499.46 226.89,494.57 236.69,489.76 C239.16,488.51 246.10,483.94 254.42,479.12 C263.60,473.77 281.42,464.52 281.48,464.44 C281.55,464.34 281.60,464.23 281.66,464.12" fill="none" stroke="rgb(33, 228, 63)" stroke-width="3.09" stroke-opacity="1.00" stroke-linejoin="round"/>
<path d="M291.21,458.51 C290.74,458.56 289.65,458.90 288.87,459.29 C286.48,460.51 283.68,465.27 284.04,466.30 C284.26,466.84 285.49,467.23 286.70,467.00 C290.65,466.09 295.24,460.47 295.20,460.23 C294.79,459.67 292.29,459.62 291.54,459.68 C291.17,459.71 290.34,459.80 289.05,459.94" fill="none" stroke="rgb(33, 228, 63)" stroke-width="3.09" stroke-opacity="1.00" stroke-linejoin="round"/>
<path d="M296.83,460.38 C296.83,460.38 296.74,460.38 296.74,460.38 C296.79,460.46 298.32,461.45 298.50,462.14 C298.71,463.19 296.71,466.99 294.88,468.77 C292.93,470.64 289.71,471.83 288.60,471.66 C287.49,471.43 287.74,469.63 288.24,468.89 C289.29,467.40 291.85,466.69 292.34,466.56" fill="none" stroke="rgb(33, 228, 63)" stroke-width="3.09" stroke-opacity="1.00" stroke-linejoin="round"/>
<path d="M298.14,464.68 C298.08,464.65 299.82,467.42 299.52,469.13 C299.19,470.75 297.02,473.22 295.43,474.23 C294.09,475.06 291.68,475.83 290.88,475.79 C290.23,475.73 289.25,474.78 289.14,474.58 C289.14,474.58 290.50,472.51 290.50,472.51" fill="none" stroke="rgb(33, 228, 63)" stroke-width="3.09" stroke-opacity="1.00" stroke-linejoin="round"/>
<path d="M286.34,475.73 C286.12,475.72 285.51,475.79 285.25,475.88 C285.04,475.96 254.20,500.06 249.98,502.58 C243.93,506.18 233.99,514.65 233.74,514.74 C233.74,514.74 233.65,514.65 233.65,514.65 C233.71,514.47 233.76,514.35 233.79,514.28 C233.83,514.22 233.90,514.11 234.01,513.96 C234.31,514.22 234.76,518.60 234.97,520.71 C235.63,526.51 238.49,534.56 241.02,539.14 C246.09,548.33 250.04,559.04 252.54,566.31 C252.70,566.75 252.85,567.19 253.01,567.64" fill="none" stroke="rgb(33, 228, 63)" stroke-width="3.09" stroke-opacity="1.00" stroke-linejoin="round"/>
<path d="M198.91,505.50 C198.91,505.50 198.94,504.75 198.94,504.75 C199.18,504.90 201.46,506.58 203.95,507.19 C207.78,508.13 212.46,511.08 212.81,511.38 C212.81,511.38 212.04,511.33 212.04,511.33" fill="none" stroke="rgb(33, 228, 63)" stroke-width="3.09" stroke-opacity="1.00" stroke-linejoin="round"/>
<path d="M199.10,504.56 C199.10,504.56 197.93,504.75 197.93,504.75 C197.17,506.07 196.88,508.23 196.91,509.41 C196.95,510.18 200.36,514.45 201.75,515.38 C203.84,516.74 212.18,519.38 212.39,519.53 C212.39,519.53 212.05,519.37 212.05,519.37" fill="none" stroke="rgb(33, 228, 63)" stroke-width="3.09" stroke-opacity="1.00" stroke-linejoin="round"/>
<path d="M211.46,509.99 C211.46,509.99 210.80,510.33 210.80,510.33 C210.70,510.63 210.98,513.82 211.10,515.10 C211.23,516.63 211.29,518.33 211.29,519.71 C211.29,519.71 211.46,518.42 211.46,518.42" fill="none" stroke="rgb(33, 228, 63)" stroke-width="3.09" stroke-opacity="1.00" stroke-linejoin="round"/>
<path d="M210.71,509.80 C210.63,509.73 210.54,509.59 210.52,509.42 C210.47,508.60 212.69,504.28 214.19,502.59 C215.22,501.45 216.48,500.92 216.87,500.82 C216.87,500.82 216.89,500.69 216.89,500.69" fill="none" stroke="rgb(33, 228, 63)" stroke-width="3.09" stroke-opacity="1.00" stroke-linejoin="round"/>
<path d="M217.26,500.82 C217.26,500.82 217.26,500.63 217.26,500.63 C217.67,501.79 218.09,503.25 218.37,504.24 C218.76,505.50 219.27,507.16 219.26,507.36 C219.26,507.36 211.95,520.13 211.95,520.13 C211.95,520.13 212.00,519.18 212.00,519.18" fill="none" stroke="rgb(33, 228, 63)" stroke-width="3.09" stroke-opacity="1.00" stroke-linejoin="round"/>
<path d="M201.35,520.29 C201.35,520.29 201.49,520.29 201.49,520.29 C201.50,520.15 198.40,524.16 196.31,526.40 C196.02,526.70 195.67,527.06 195.24,527.48 C195.24,527.48 195.95,526.33 195.95,526.33" fill="none" stroke="rgb(33, 228, 63)" stroke-width="3.09" stroke-opacity="1.00" stroke-linejoin="round"/>
<path d="M213.14,518.98 C213.03,519.42 212.97,519.70 212.95,519.82 C212.89,520.46 215.01,524.68 215.74,526.38 C216.88,529.03 227.19,550.20 229.94,557.30 C231.87,562.30 236.69,579.09 236.76,579.33 C236.76,579.33 236.91,578.92 236.91,578.92" fill="none" stroke="rgb(33, 228, 63)" stroke-width="3.09" stroke-opacity="1.00" stroke-linejoin="round"/>
<path d="M221.38,587.13 C221.02,587.02 220.80,586.96 220.72,586.94 C220.65,586.92 220.61,586.91 220.61,586.92 C219.30,583.53 217.59,578.08 217.55,576.33 C217.52,575.00 217.87,572.82 218.12,572.01 C218.66,571.90 220.41,574.86 221.32,577.75 C222.20,580.68 222.59,584.86 222.52,586.33 C222.49,586.92 222.08,588.52 221.94,589.19" fill="none" stroke="rgb(33, 228, 63)" stroke-width="3.09" stroke-opacity="1.00" stroke-linejoin="round"/>
<path d="M219.88,529.46 C219.88,529.46 219.69,528.78 219.69,528.78" fill="none" stroke="rgb(33, 228, 63)" stroke-width="3.09" stroke-opacity="1.00" stroke-linejoin="round"/>
<path d="M232.05,514.67 C232.05,514.67 232.05,514.76 232.05,514.76 C231.92,514.92 229.62,517.37 229.28,517.73 C222.94,524.55 220.59,527.85 219.00,530.47 C219.00,530.47 220.63,527.59 220.63,527.59" fill="none" stroke="rgb(33, 228, 63)" stroke-width="3.09" stroke-opacity="1.00" stroke-linejoin="round"/>
<path d="M224.00,525.16 C223.86,525.28 223.67,525.56 223.63,525.82 C223.49,526.84 224.80,531.16 226.12,533.23 C226.73,534.17 227.86,535.37 228.36,535.76 C229.82,534.00 231.64,530.03 231.64,528.85 C231.61,528.15 231.11,526.56 230.61,525.56 C230.13,524.63 228.92,522.83 228.24,521.99 C228.05,521.76 227.63,521.26 226.99,520.51" fill="none" stroke="rgb(33, 228, 63)" stroke-width="3.09" stroke-opacity="1.00" stroke-linejoin="round"/>
<path d="M239.54,557.17 C239.54,557.17 238.79,557.47 238.79,557.47 C238.79,557.42 240.78,557.77 244.02,557.21 C245.08,557.03 246.32,557.72 246.96,558.78 C248.69,561.84 249.19,567.93 249.20,568.73 C248.72,569.32 247.89,569.47 247.60,569.16 C247.42,568.96 246.85,567.60 245.90,565.22" fill="none" stroke="rgb(33, 228, 63)" stroke-width="3.09" stroke-opacity="1.00" stroke-linejoin="round"/>
<path d="M244.03,557.92 C244.03,557.92 244.03,557.83 244.03,557.83 C244.03,557.83 243.85,557.88 243.85,557.88 C243.38,558.76 243.28,561.28 243.28,566.03 C243.30,568.34 243.12,569.90 243.10,569.90 C243.10,569.90 243.23,569.51 243.23,569.51" fill="none" stroke="rgb(33, 228, 63)" stroke-width="3.09" stroke-opacity="1.00" stroke-linejoin="round"/>
<path d="M221.29,593.02 C221.29,593.02 221.22,592.63 221.22,592.63 C221.22,592.63 253.87,569.29 253.87,569.29 C253.87,569.29 254.27,569.33 254.27,569.33" fill="none" stroke="rgb(33, 228, 63)" stroke-width="3.09" stroke-opacity="1.00" stroke-linejoin="round"/>
<path d="M217.54,595.56 C217.54,595.56 218.16,593.60 218.16,593.60 C218.57,596.15 219.29,597.90 221.09,600.41 C221.93,601.66 222.26,604.58 221.70,607.46 C220.54,613.16 217.46,620.68 214.13,627.31 C212.07,631.49 209.19,639.10 207.19,646.51 C205.53,652.29 201.78,665.00 201.34,668.66 C200.66,674.53 201.15,686.54 201.08,689.15 C201.08,689.15 201.24,688.07 201.24,688.07" fill="none" stroke="rgb(33, 228, 63)" stroke-width="3.09" stroke-opacity="1.00" stroke-linejoin="round"/>
<path d="M233.53,597.96 C233.39,598.02 233.30,598.07 233.27,598.10 C233.23,598.12 233.21,598.16 233.19,598.20 C233.12,598.18 234.01,596.94 234.78,596.09 C235.07,595.76 248.00,583.03 253.02,577.44 C254.17,576.16 256.44,573.67 257.57,572.44 C257.57,572.44 256.99,572.85 256.99,572.85" fill="none" stroke="rgb(33, 228, 63)" stroke-width="3.09" stroke-opacity="1.00" stroke-linejoin="round"/>
<path d="M254.61,569.09 C254.61,569.09 254.39,568.93 254.39,568.93 C254.47,568.93 254.54,568.93 254.58,568.93 C254.98,569.00 256.60,570.30 257.32,572.03 C257.52,572.51 260.11,590.08 261.50,595.55 C263.51,603.24 266.72,610.56 269.45,619.25 C270.90,623.80 276.06,635.18 276.68,636.93 C277.19,638.38 281.27,652.94 281.78,653.60 C281.81,653.62 281.89,653.71 282.03,653.86" fill="none" stroke="rgb(33, 228, 63)" stroke-width="3.09" stroke-opacity="1.00" stroke-linejoin="round"/>
<path d="M235.62,582.40 C235.62,582.40 236.28,581.91 236.28,581.91 C236.77,582.70 237.85,585.99 238.73,587.04 C240.21,588.79 240.36,589.16 240.65,589.90 C240.65,589.90 241.17,589.99 241.17,589.99" fill="none" stroke="rgb(33, 228, 63)" stroke-width="3.09" stroke-opacity="1.00" stroke-linejoin="round"/>
<path d="M243.16,582.06 C243.14,585.79 243.67,590.19 243.72,592.09 C243.73,592.43 243.43,592.82 242.93,593.61 C242.07,593.59 241.40,593.33 240.91,592.77 C240.83,592.69 240.79,592.61 240.77,592.54" fill="none" stroke="rgb(33, 228, 63)" stroke-width="3.09" stroke-opacity="1.00" stroke-linejoin="round"/>
<path d="M242.44,594.53 C242.44,594.53 242.35,594.55 242.35,594.55 C242.31,594.72 242.32,610.99 242.21,611.63 C239.84,622.33 239.37,633.29 238.25,650.51 C237.94,653.77 237.40,660.20 237.44,663.24 C237.51,666.50 238.20,675.43 238.22,675.78 C238.24,676.19 238.22,676.59 238.16,677.00" fill="none" stroke="rgb(33, 228, 63)" stroke-width="3.09" stroke-opacity="1.00" stroke-linejoin="round"/>
<path d="M242.40,593.21 C242.40,593.21 242.22,593.24 242.22,593.24 C242.27,593.23 242.33,593.22 242.42,593.21 C243.18,593.09 244.59,593.67 246.63,595.67 C247.83,596.87 249.21,600.01 249.44,602.59 C249.94,608.80 251.29,614.99 252.11,622.65 C253.56,637.71 255.95,649.73 256.38,653.38 C257.51,662.92 257.38,665.16 257.33,666.06" fill="none" stroke="rgb(33, 228, 63)" stroke-width="3.09" stroke-opacity="1.00" stroke-linejoin="round"/>
<path d="M237.98,675.07 C237.98,675.07 237.84,674.81 237.84,674.81 C237.40,674.60 236.56,674.40 235.96,674.50 C234.96,674.68 229.96,678.45 228.03,679.60 C225.85,680.88 220.09,682.83 218.93,683.34 C217.25,684.10 212.52,687.02 210.55,688.53 C208.47,690.15 206.95,692.81 207.21,693.59 C207.51,694.30 208.90,695.15 209.73,695.13 C212.76,695.03 227.98,689.31 229.41,688.64 C245.69,680.88 248.02,676.86 248.23,676.19 C247.94,675.04 245.95,673.52 244.04,673.52 C242.51,673.55 238.50,674.72 237.56,674.95 C237.08,675.07 236.05,675.31 234.48,675.67" fill="none" stroke="rgb(33, 228, 63)" stroke-width="3.09" stroke-opacity="1.00" stroke-linejoin="round"/>
<path d="M259.98,665.99 C259.98,665.99 259.80,666.02 259.80,666.02 C261.71,665.34 268.91,662.68 269.74,662.29 C271.61,661.41 285.10,652.28 290.45,648.77 C293.18,647.10 294.76,647.00 295.63,647.78 C296.75,648.87 297.75,651.84 297.60,653.39 C297.44,654.74 295.96,657.39 294.84,658.43 C292.20,660.83 284.42,663.76 278.55,665.20 C268.94,667.48 265.52,667.76 265.57,667.52 C265.62,667.42 265.18,667.50 263.71,667.82" fill="none" stroke="rgb(33, 228, 63)" stroke-width="3.09" stroke-opacity="1.00" stroke-linejoin="round"/>
<path d="M218.62,307.74 C218.18,307.75 217.97,307.72 217.84,307.74 C215.04,308.05 208.66,311.74 205.86,313.71 C197.90,319.43 194.75,322.43 185.66,331.57 C179.59,337.71 175.55,342.52 171.50,348.41 C167.14,354.80 162.03,364.98 159.03,371.02 C155.61,377.95 149.49,390.60 147.02,397.29 C139.57,419.22 135.68,432.90 134.75,438.93 C134.62,439.79 134.11,443.64 133.95,444.78" fill="none" stroke="rgb(255, 242, 0)" stroke-width="3.09" stroke-opacity="1.00" stroke-linejoin="round"/>
<path d="M133.56,447.54 C133.56,448.16 133.56,448.79 133.56,449.41 C133.56,449.86 133.56,450.31 133.56,450.76 C133.55,453.95 133.48,454.22 133.18,454.58 C133.18,454.58 134.12,452.71 134.12,452.71" fill="none" stroke="rgb(255, 242, 0)" stroke-width="3.09" stroke-opacity="1.00" stroke-linejoin="round"/>
<path d="M217.84,307.74 C217.84,307.74 217.05,307.34 217.05,307.34 C216.43,306.87 216.99,306.12 219.46,304.52 C224.00,301.60 237.18,295.20 243.66,292.08 C248.53,289.80 274.22,279.33 279.26,277.61 C283.56,276.17 298.51,275.04 304.94,274.91 C308.34,274.88 314.72,275.64 318.13,276.53 C321.37,277.40 326.36,279.96 328.62,281.90 C331.62,284.51 334.60,286.83 339.28,290.26 C343.56,293.41 346.36,295.99 349.19,299.49 C356.25,308.42 358.85,312.50 363.90,322.18 C363.90,322.18 363.94,321.13 363.94,321.13" fill="none" stroke="rgb(255, 242, 0)" stroke-width="3.09" stroke-opacity="1.00" stroke-linejoin="round"/>
<path d="M131.59,454.23 C131.59,454.23 131.59,454.63 131.59,454.63 C132.11,454.64 140.26,452.00 141.83,451.25 C146.25,449.12 171.34,428.70 181.96,420.35 C187.36,415.69 200.82,405.96 208.11,400.76 C214.83,396.01 222.31,392.03 229.13,388.28 C240.11,382.14 247.82,378.10 253.62,376.27 C255.46,375.69 265.49,372.83 268.30,371.64 C272.25,369.94 287.99,359.37 291.72,357.14 C297.30,353.83 306.73,349.47 315.99,344.74 C325.02,340.30 329.74,338.42 339.89,334.72 C349.27,331.40 353.51,330.31 364.16,328.46 C366.97,327.98 370.60,327.38 371.41,327.24 C371.41,327.24 370.64,327.82 370.64,327.82" fill="none" stroke="rgb(255, 242, 0)" stroke-width="3.09" stroke-opacity="1.00" stroke-linejoin="round"/>
<path d="M217.84,308.92 C217.84,308.92 217.84,307.83 217.84,307.83 C217.84,307.83 217.44,307.34 217.44,307.34 C216.07,308.07 209.49,317.70 206.73,324.27 C203.17,332.83 199.47,340.29 195.91,349.64 C193.33,356.62 190.71,367.48 188.96,376.83 C187.81,383.56 185.34,399.40 185.42,405.53 C185.47,408.48 185.93,412.92 185.93,412.77 C185.93,412.77 186.28,412.91 186.28,412.91" fill="none" stroke="rgb(255, 242, 0)" stroke-width="3.09" stroke-opacity="1.00" stroke-linejoin="round"/>
<path d="M223.74,303.40 C223.64,305.95 223.45,307.37 222.94,308.77 C221.12,313.78 218.64,325.96 218.10,330.96 C217.04,344.97 214.79,358.20 214.11,367.90 C213.88,372.21 214.35,377.81 215.17,381.03 C215.58,382.61 217.69,388.85 218.49,390.06 C218.49,390.06 218.98,390.06 218.98,390.06" fill="none" stroke="rgb(255, 242, 0)" stroke-width="3.09" stroke-opacity="1.00" stroke-linejoin="round"/>
<path d="M226.89,303.01 C226.89,303.01 226.50,303.01 226.50,303.01 C226.59,304.19 231.27,320.63 232.01,324.77 C233.43,332.71 245.22,369.51 249.43,378.88 C249.60,379.24 250.04,380.15 250.77,381.61" fill="none" stroke="rgb(255, 242, 0)" stroke-width="3.09" stroke-opacity="1.00" stroke-linejoin="round"/>
<path d="M229.65,303.40 C229.65,303.40 229.65,303.01 229.65,303.01 C230.24,303.93 243.62,318.43 245.92,322.07 C251.61,331.37 256.48,337.67 260.36,342.65 C264.17,347.35 272.03,355.33 275.23,358.58 C275.65,359.00 276.40,359.71 277.50,360.73" fill="none" stroke="rgb(255, 242, 0)" stroke-width="3.09" stroke-opacity="1.00" stroke-linejoin="round"/>
<path d="M231.62,303.01 C240.95,305.17 256.93,313.64 271.64,318.58 C274.64,319.58 281.75,321.42 282.97,321.77 C287.08,322.98 292.61,325.43 296.65,327.74 C300.52,329.98 308.35,335.25 308.95,335.51 C309.35,335.68 310.09,335.87 311.17,336.09" fill="none" stroke="rgb(255, 242, 0)" stroke-width="3.09" stroke-opacity="1.00" stroke-linejoin="round"/>
<path d="M233.20,298.28 C233.20,298.28 231.62,299.47 231.62,299.47 C233.31,300.16 239.33,304.05 242.24,304.71 C245.88,305.49 262.88,305.01 270.30,304.75 C281.38,304.22 288.78,304.51 297.79,306.11 C302.23,306.93 329.25,315.61 332.16,317.45 C336.75,320.41 343.94,326.79 346.14,328.83 C346.38,329.04 346.80,329.36 347.40,329.79" fill="none" stroke="rgb(255, 242, 0)" stroke-width="3.09" stroke-opacity="1.00" stroke-linejoin="round"/>
<path d="M248.95,377.44 C248.95,377.44 248.55,377.44 248.55,377.44 C248.40,380.41 250.72,392.44 253.32,399.96 C255.60,406.50 261.35,416.66 265.33,425.01 C270.62,436.42 274.37,446.26 276.54,450.41 C278.70,454.49 285.15,467.75 286.24,471.25 C288.48,478.59 292.10,493.66 293.59,497.03 C293.82,497.55 294.34,498.58 295.15,500.12 C297.32,497.87 298.79,494.42 299.23,491.54 C299.63,488.53 298.94,484.30 297.69,482.03 C296.99,480.79 292.52,473.95 292.04,473.36 C291.74,472.98 291.22,472.43 290.46,471.69" fill="none" stroke="rgb(255, 242, 0)" stroke-width="3.09" stroke-opacity="1.00" stroke-linejoin="round"/>
<path d="M250.16,533.99" fill="none" stroke="rgb(0, 165, 255)" stroke-width="3.09" stroke-opacity="1.00" stroke-linejoin="round"/>
<path d="M44.16,87.34 C43.12,88.39 41.26,90.31 41.03,90.90 C38.90,96.72 36.98,117.60 37.02,118.70 C37.02,118.70 37.02,117.15 37.02,117.15" fill="none" stroke="rgb(0, 165, 255)" stroke-width="3.09" stroke-opacity="1.00" stroke-linejoin="round"/>
<path d="M74.24,103.14 C74.24,103.14 73.98,103.14 73.98,103.14 C72.79,104.85 71.76,107.87 70.94,111.10 C69.73,116.06 69.06,121.77 68.98,122.39 C68.92,122.86 68.67,124.25 68.63,125.91" fill="none" stroke="rgb(0, 165, 255)" stroke-width="3.09" stroke-opacity="1.00" stroke-linejoin="round"/>
<path d="M36.00,197.46 C36.00,197.46 34.73,198.37 34.73,198.37 C34.73,198.37 35.49,220.74 35.49,220.74 C35.49,220.74 35.49,219.91 35.49,219.91" fill="none" stroke="rgb(0, 165, 255)" stroke-width="3.09" stroke-opacity="1.00" stroke-linejoin="round"/>
<path d="M58.94,172.48 C58.94,172.48 59.45,173.25 59.45,173.25 C59.11,176.42 58.22,182.53 58.03,186.41 C57.95,188.14 57.91,189.84 57.92,190.33 C57.92,190.33 58.56,189.39 58.56,189.39" fill="none" stroke="rgb(0, 165, 255)" stroke-width="3.09" stroke-opacity="1.00" stroke-linejoin="round"/>
<path d="M97.69,149.03 C97.71,151.41 97.23,158.06 97.18,159.31 C97.08,162.34 97.24,165.80 97.29,166.89 C97.29,166.89 97.93,166.93 97.93,166.93" fill="none" stroke="rgb(0, 165, 255)" stroke-width="3.09" stroke-opacity="1.00" stroke-linejoin="round"/>
<path d="M133.89,132.71 C133.55,134.72 132.74,139.95 132.92,144.77 C133.00,146.89 134.48,165.69 134.40,168.29 C134.40,168.29 134.74,168.07 134.74,168.07" fill="none" stroke="rgb(0, 165, 255)" stroke-width="3.09" stroke-opacity="1.00" stroke-linejoin="round"/>
<path d="M169.58,108.75 C168.89,109.47 168.46,110.04 168.30,110.46 C167.28,113.25 168.04,129.37 168.43,136.47 C168.89,144.69 169.58,161.29 169.64,162.04 C169.64,162.04 170.30,161.97 170.30,161.97" fill="none" stroke="rgb(0, 165, 255)" stroke-width="3.09" stroke-opacity="1.00" stroke-linejoin="round"/>
<path d="M212.92,61.85 C212.34,62.37 210.69,67.46 209.84,72.72 C208.40,81.82 207.75,91.82 207.88,99.18 C207.88,99.18 208.58,96.83 208.58,96.83" fill="none" stroke="rgb(0, 165, 255)" stroke-width="3.09" stroke-opacity="1.00" stroke-linejoin="round"/>
<path d="M261.35,41.45 C261.42,42.04 260.68,44.15 258.69,50.33 C255.73,59.78 252.90,72.72 251.67,79.18 C250.54,85.74 249.00,97.44 249.00,97.50 C249.02,97.85 249.15,98.81 249.40,100.39" fill="none" stroke="rgb(0, 165, 255)" stroke-width="3.09" stroke-opacity="1.00" stroke-linejoin="round"/>
<path d="M323.55,54.71 C323.55,54.71 322.79,54.71 322.79,54.71 C321.48,55.60 320.72,56.44 320.07,57.96 C317.24,64.64 314.77,74.98 313.81,84.52 C313.78,84.86 313.76,85.52 313.75,86.52" fill="none" stroke="rgb(0, 165, 255)" stroke-width="3.09" stroke-opacity="1.00" stroke-linejoin="round"/>
<path d="M351.08,60.83 C351.10,61.01 351.10,61.18 351.08,61.34 C349.20,78.80 335.86,128.91 335.79,129.71 C335.77,129.92 335.77,130.28 335.79,130.80" fill="none" stroke="rgb(0, 165, 255)" stroke-width="3.09" stroke-opacity="1.00" stroke-linejoin="round"/>
<path d="M376.57,66.43 C375.64,69.29 373.86,74.64 373.01,78.15 C372.43,80.53 367.95,100.61 365.79,108.88 C364.09,114.86 359.49,129.53 358.73,132.49 C358.73,132.49 358.73,131.58 358.73,131.58" fill="none" stroke="rgb(0, 165, 255)" stroke-width="3.09" stroke-opacity="1.00" stroke-linejoin="round"/>
<path d="M420.93,75.61 C419.04,81.51 413.74,91.80 410.60,97.77 C408.49,102.03 406.36,108.46 406.01,110.27 C405.97,110.54 405.95,110.85 405.98,111.18" fill="none" stroke="rgb(0, 165, 255)" stroke-width="3.09" stroke-opacity="1.00" stroke-linejoin="round"/>
<path d="M472.42,64.91 C471.81,65.34 471.40,65.67 471.20,65.87 C469.65,67.52 461.61,85.62 458.69,91.21 C447.69,112.67 445.84,117.64 444.95,120.46 C444.95,120.46 445.91,118.95 445.91,118.95" fill="none" stroke="rgb(0, 165, 255)" stroke-width="3.09" stroke-opacity="1.00" stroke-linejoin="round"/>
<path d="M417.87,132.20 C417.87,132.20 416.94,132.12 416.94,132.12 C416.09,134.98 415.22,143.73 415.10,145.69 C414.96,147.98 414.84,151.48 414.81,153.50 C414.81,153.50 415.14,151.92 415.14,151.92" fill="none" stroke="rgb(0, 165, 255)" stroke-width="3.09" stroke-opacity="1.00" stroke-linejoin="round"/>
<path d="M382.18,126.60 C381.89,126.89 381.08,128.63 380.53,130.29 C379.44,133.57 377.80,146.99 377.60,157.54 C377.48,161.73 376.55,166.17 376.12,167.64 C376.12,167.64 375.68,165.13 375.68,165.13" fill="none" stroke="rgb(0, 165, 255)" stroke-width="3.09" stroke-opacity="1.00" stroke-linejoin="round"/>
<path d="M356.69,134.75 C355.45,134.89 354.40,135.96 353.41,138.31 C351.66,142.57 351.59,151.70 351.67,152.44 C351.67,152.44 353.63,151.58 353.63,151.58" fill="none" stroke="rgb(0, 165, 255)" stroke-width="3.09" stroke-opacity="1.00" stroke-linejoin="round"/>
<path d="M310.29,152.09 C310.29,152.09 308.13,152.47 308.13,152.47 C306.75,154.30 304.02,161.97 303.36,164.84 C301.19,174.60 300.68,194.83 300.61,198.27 C300.61,198.27 300.61,194.88 300.61,194.88" fill="none" stroke="rgb(0, 165, 255)" stroke-width="3.09" stroke-opacity="1.00" stroke-linejoin="round"/>
<path d="M257.27,158.72 C257.28,158.75 257.30,164.22 260.03,190.76 C260.32,193.77 260.82,198.88 260.91,199.37 C260.91,199.37 261.21,198.17 261.21,198.17" fill="none" stroke="rgb(0, 165, 255)" stroke-width="3.09" stroke-opacity="1.00" stroke-linejoin="round"/>
<path d="M218.52,221.94 C218.52,221.94 217.25,222.96 217.25,222.96 C216.32,230.14 217.36,235.49 218.13,237.90 C218.13,237.90 219.54,238.25 219.54,238.25" fill="none" stroke="rgb(0, 165, 255)" stroke-width="3.09" stroke-opacity="1.00" stroke-linejoin="round"/>
<path d="M182.32,222.96 C182.32,222.96 181.30,223.21 181.30,223.21 C180.39,224.83 180.28,228.38 180.29,232.80 C180.34,239.25 180.47,241.37 180.77,242.24 C180.90,242.61 181.25,243.32 181.81,244.37" fill="none" stroke="rgb(0, 165, 255)" stroke-width="3.09" stroke-opacity="1.00" stroke-linejoin="round"/>
<path d="M157.34,257.63 C157.34,257.63 156.83,257.63 156.83,257.63 C156.28,259.72 156.32,266.92 156.40,268.26 C156.74,273.61 157.64,275.98 158.85,277.93 C158.85,277.93 158.60,278.46 158.60,278.46" fill="none" stroke="rgb(0, 165, 255)" stroke-width="3.09" stroke-opacity="1.00" stroke-linejoin="round"/>
<path d="M121.14,269.86 C121.14,269.86 119.87,269.48 119.87,269.48 C119.18,271.21 118.73,275.16 118.64,277.93 C118.59,280.70 118.60,284.38 118.85,284.99 C119.00,285.36 119.47,286.17 120.25,287.42" fill="none" stroke="rgb(0, 165, 255)" stroke-width="3.09" stroke-opacity="1.00" stroke-linejoin="round"/>
<path d="M68.63,228.56 C68.20,228.88 68.05,229.52 68.07,231.46 C68.27,243.11 70.20,261.24 70.49,262.18 C70.67,262.73 71.11,263.78 71.83,265.33" fill="none" stroke="rgb(0, 165, 255)" stroke-width="3.09" stroke-opacity="1.00" stroke-linejoin="round"/>
<path d="M83.93,299.94 C82.88,300.82 83.11,305.28 84.00,310.45 C84.98,316.01 89.20,331.91 89.22,331.94 C89.39,332.24 89.75,332.52 90.29,332.76" fill="none" stroke="rgb(0, 165, 255)" stroke-width="3.09" stroke-opacity="1.00" stroke-linejoin="round"/>
<path d="M60.47,321.36 C60.47,321.36 59.45,321.36 59.45,321.36 C58.80,322.48 59.68,332.93 61.41,342.69 C62.55,348.78 63.68,354.25 64.36,356.87 C64.36,356.87 65.57,356.53 65.57,356.53" fill="none" stroke="rgb(0, 165, 255)" stroke-width="3.09" stroke-opacity="1.00" stroke-linejoin="round"/>
<path d="M42.63,346.34 C42.63,346.34 41.35,345.83 41.35,345.83 C40.74,348.53 41.95,360.27 44.02,370.64 C45.66,378.60 49.83,398.67 50.31,399.87 C50.31,399.87 51.03,399.30 51.03,399.30" fill="none" stroke="rgb(0, 165, 255)" stroke-width="3.09" stroke-opacity="1.00" stroke-linejoin="round"/>
<path d="M80.36,409.05 C80.36,409.05 79.59,408.03 79.59,408.03 C79.25,409.14 79.99,413.78 80.85,417.39 C82.67,424.91 85.88,432.36 86.91,433.08 C87.19,433.27 87.74,433.42 88.56,433.54" fill="none" stroke="rgb(0, 165, 255)" stroke-width="3.09" stroke-opacity="1.00" stroke-linejoin="round"/>
<path d="M70.16,455.44 C70.16,455.44 68.38,456.46 68.38,456.46 C68.04,461.10 68.27,465.95 68.69,470.13 C69.46,477.23 70.91,490.12 72.87,497.11 C72.87,497.11 75.10,498.32 75.10,498.32" fill="none" stroke="rgb(0, 165, 255)" stroke-width="3.09" stroke-opacity="1.00" stroke-linejoin="round"/>
<path d="M101.26,516.62 C101.18,521.46 101.38,525.69 102.19,529.07 C102.55,530.53 106.79,547.00 108.10,556.97 C109.04,565.05 110.64,579.40 110.93,583.66 C110.93,583.66 109.79,583.31 109.79,583.31" fill="none" stroke="rgb(0, 165, 255)" stroke-width="3.09" stroke-opacity="1.00" stroke-linejoin="round"/>
<path d="M87.49,525.29 C87.49,525.29 86.98,523.76 86.98,523.76 C86.98,523.76 86.47,524.46 86.47,524.46 C86.47,524.46 89.95,543.91 89.95,543.91 C89.95,543.91 91.27,543.74 91.27,543.74" fill="none" stroke="rgb(0, 165, 255)" stroke-width="3.09" stroke-opacity="1.00" stroke-linejoin="round"/>
<path d="M102.28,575.77 C102.28,575.77 102.02,575.77 102.02,575.77 C101.63,576.53 102.02,583.46 103.43,587.27 C105.27,592.00 107.27,598.40 107.64,599.17 C107.77,599.43 108.03,599.89 108.43,600.55" fill="none" stroke="rgb(0, 165, 255)" stroke-width="3.09" stroke-opacity="1.00" stroke-linejoin="round"/>
<path d="M130.32,592.08 C130.32,592.08 129.30,591.57 129.30,591.57 C129.17,593.34 135.32,606.86 139.15,612.70 C142.00,616.98 142.57,617.77 143.17,618.52 C143.17,618.52 143.51,617.68 143.51,617.68" fill="none" stroke="rgb(0, 165, 255)" stroke-width="3.09" stroke-opacity="1.00" stroke-linejoin="round"/>
<path d="M136.95,490.11 C136.95,490.76 136.97,492.25 136.99,493.36 C137.08,498.08 137.25,502.20 137.46,504.90 C137.46,504.90 137.87,504.18 137.87,504.18" fill="none" stroke="rgb(0, 165, 255)" stroke-width="3.09" stroke-opacity="1.00" stroke-linejoin="round"/>
<path d="M144.09,522.23 C143.89,523.35 143.73,524.53 143.65,525.68 C143.49,528.41 144.08,532.21 145.52,535.48 C145.98,536.51 147.10,538.85 147.15,539.02 C147.17,539.13 147.17,539.31 147.15,539.57" fill="none" stroke="rgb(0, 165, 255)" stroke-width="3.09" stroke-opacity="1.00" stroke-linejoin="round"/>
<path d="M155.30,550.27 C155.62,552.82 156.22,557.62 157.28,560.17 C157.36,560.37 157.39,560.47 157.34,560.47" fill="none" stroke="rgb(0, 165, 255)" stroke-width="3.09" stroke-opacity="1.00" stroke-linejoin="round"/>
<path d="M143.58,348.38 C142.20,349.05 141.37,352.91 141.61,357.04 C142.04,363.07 143.25,366.54 143.60,366.99 C143.68,367.09 143.81,367.27 143.98,367.53" fill="none" stroke="rgb(0, 165, 255)" stroke-width="3.09" stroke-opacity="1.00" stroke-linejoin="round"/>
<path d="M171.11,292.80 C170.05,294.29 169.42,297.83 169.80,300.48 C170.42,304.51 172.52,311.59 173.00,313.08 C173.00,313.08 174.01,312.90 174.01,312.90" fill="none" stroke="rgb(0, 165, 255)" stroke-width="3.09" stroke-opacity="1.00" stroke-linejoin="round"/>
<path d="M198.13,278.53 C198.13,278.78 198.13,279.04 198.13,279.29 C198.15,281.74 198.55,286.52 199.12,289.97 C199.70,293.27 200.68,295.11 202.27,297.60 C202.27,297.60 203.80,296.89 203.80,296.89" fill="none" stroke="rgb(0, 165, 255)" stroke-width="3.09" stroke-opacity="1.00" stroke-linejoin="round"/>
<path d="M236.37,269.35 C236.41,269.74 235.92,274.73 236.04,276.65 C236.21,278.92 237.42,283.21 238.53,284.23 C238.53,284.23 239.68,283.56 239.68,283.56" fill="none" stroke="rgb(0, 165, 255)" stroke-width="3.09" stroke-opacity="1.00" stroke-linejoin="round"/>
<path d="M268.49,231.62 C268.56,231.71 267.83,236.13 268.23,239.61 C268.97,245.59 273.06,260.25 275.90,265.78 C276.92,267.75 277.66,269.03 278.03,269.55 C278.03,269.55 279.01,269.06 279.01,269.06" fill="none" stroke="rgb(0, 165, 255)" stroke-width="3.09" stroke-opacity="1.00" stroke-linejoin="round"/>
<path d="M308.77,248.96 C307.58,252.10 306.78,255.22 306.73,258.01 C306.65,263.94 307.80,272.38 308.73,278.15 C309.12,280.62 309.77,282.22 311.22,284.72 C311.22,284.72 313.01,282.49 313.01,282.49" fill="none" stroke="rgb(0, 165, 255)" stroke-width="3.09" stroke-opacity="1.00" stroke-linejoin="round"/>
<path d="M334.77,256.61 C333.27,261.59 334.33,272.02 335.24,273.91 C335.24,273.91 335.79,269.86 335.79,269.86" fill="none" stroke="rgb(0, 165, 255)" stroke-width="3.09" stroke-opacity="1.00" stroke-linejoin="round"/>
<path d="M350.06,239.27 C350.06,239.27 350.06,237.74 350.06,237.74 C350.05,240.99 348.82,256.29 348.26,263.79 C347.54,275.47 347.59,278.64 349.04,288.19 C349.04,288.19 349.04,284.14 349.04,284.14" fill="none" stroke="rgb(0, 165, 255)" stroke-width="3.09" stroke-opacity="1.00" stroke-linejoin="round"/>
<path d="M339.36,282.10 C339.38,284.72 339.45,290.97 339.66,293.07 C339.85,294.96 341.34,301.44 341.74,302.25 C341.74,302.25 341.40,301.98 341.40,301.98" fill="none" stroke="rgb(0, 165, 255)" stroke-width="3.09" stroke-opacity="1.00" stroke-linejoin="round"/>
<path d="M340.89,353.99 C338.85,355.83 340.39,368.64 342.48,380.11 C343.55,386.08 343.89,393.64 343.94,394.91 C343.94,394.91 343.94,393.82 343.94,393.82" fill="none" stroke="rgb(0, 165, 255)" stroke-width="3.09" stroke-opacity="1.00" stroke-linejoin="round"/>
<path d="M386.77,212.25 C386.77,212.25 386.26,211.74 386.26,211.74 C386.26,211.77 386.20,235.07 386.54,240.02 C386.71,242.34 387.62,249.66 387.93,251.81 C387.93,251.81 388.81,252.02 388.81,252.02" fill="none" stroke="rgb(0, 165, 255)" stroke-width="3.09" stroke-opacity="1.00" stroke-linejoin="round"/>
<path d="M393.40,277.00 C393.07,278.14 392.81,282.66 393.06,286.58 C393.32,290.41 395.42,306.04 395.44,307.52 C395.44,307.61 395.44,307.70 395.44,307.80" fill="none" stroke="rgb(0, 165, 255)" stroke-width="3.09" stroke-opacity="1.00" stroke-linejoin="round"/>
<path d="M419.40,221.43 C419.38,224.05 419.31,231.80 419.35,234.29 C419.46,240.51 420.74,249.89 421.06,252.22 C421.21,253.33 421.85,254.30 423.39,256.07" fill="none" stroke="rgb(0, 165, 255)" stroke-width="3.09" stroke-opacity="1.00" stroke-linejoin="round"/>
<path d="M428.58,295.86 C428.58,297.90 428.56,303.25 428.55,306.57 C428.58,312.19 428.96,316.60 429.80,319.14 C430.33,320.79 431.03,322.97 431.13,323.09 C431.13,323.09 432.21,322.73 432.21,322.73" fill="none" stroke="rgb(0, 165, 255)" stroke-width="3.09" stroke-opacity="1.00" stroke-linejoin="round"/>
<path d="M454.58,296.88 C454.58,296.88 454.33,296.88 454.33,296.88 C453.91,297.83 453.67,298.70 453.62,299.89 C453.52,302.54 454.15,321.25 454.51,326.65 C454.67,329.46 453.83,334.69 453.84,335.00 C453.86,335.45 453.99,336.39 454.26,337.80" fill="none" stroke="rgb(0, 165, 255)" stroke-width="3.09" stroke-opacity="1.00" stroke-linejoin="round"/>
<path d="M432.15,381.52 C432.15,381.52 431.89,381.52 431.89,381.52 C431.41,384.40 431.90,395.98 433.29,406.73 C434.25,414.82 434.10,422.27 433.68,430.07 C433.68,430.07 433.68,425.36 433.68,425.36" fill="none" stroke="rgb(0, 165, 255)" stroke-width="3.09" stroke-opacity="1.00" stroke-linejoin="round"/>
<path d="M412.77,381.01 C412.45,383.29 412.23,387.58 412.26,390.22 C412.41,397.81 414.48,417.83 414.60,418.40 C414.68,418.80 414.86,419.34 415.16,420.03" fill="none" stroke="rgb(0, 165, 255)" stroke-width="3.09" stroke-opacity="1.00" stroke-linejoin="round"/>
<path d="M454.58,418.23 C454.24,419.45 454.05,423.50 454.07,427.19 C454.31,440.69 454.59,458.24 454.58,458.27 C454.54,458.47 454.42,458.71 454.20,459.00" fill="none" stroke="rgb(0, 165, 255)" stroke-width="3.09" stroke-opacity="1.00" stroke-linejoin="round"/>
<path d="M380.65,415.68 C379.45,417.10 377.81,420.87 377.37,423.58 C376.24,430.85 377.34,464.61 377.59,478.30 C377.64,484.47 377.43,485.97 376.97,488.33 C376.97,488.33 376.60,488.22 376.60,488.22" fill="none" stroke="rgb(0, 165, 255)" stroke-width="3.09" stroke-opacity="1.00" stroke-linejoin="round"/>
<path d="M354.65,453.91 C354.65,453.91 354.40,453.91 354.40,453.91 C353.77,454.31 353.58,458.18 354.16,461.72 C354.34,462.81 356.95,477.01 357.00,477.14 C357.11,477.43 357.42,477.94 357.93,478.67" fill="none" stroke="rgb(0, 165, 255)" stroke-width="3.09" stroke-opacity="1.00" stroke-linejoin="round"/>
<path d="M412.77,479.92 C412.77,479.92 412.26,479.92 412.26,479.92 C412.28,479.97 412.22,484.71 412.75,488.68 C414.31,500.14 414.38,503.08 414.33,503.92 C414.33,503.92 414.81,502.35 414.81,502.35" fill="none" stroke="rgb(0, 165, 255)" stroke-width="3.09" stroke-opacity="1.00" stroke-linejoin="round"/>
<path d="M438.27,491.64 C438.27,491.64 437.76,491.64 437.76,491.64 C437.76,491.64 437.10,492.30 437.10,492.30 C436.81,495.11 436.57,502.50 436.52,503.17 C436.22,506.90 436.24,507.72 436.59,508.23" fill="none" stroke="rgb(0, 165, 255)" stroke-width="3.09" stroke-opacity="1.00" stroke-linejoin="round"/>
<path d="M704.91,542.12" fill="none" stroke="rgb(0, 165, 255)" stroke-width="3.09" stroke-opacity="1.00" stroke-linejoin="round"/>
<path d="M370.46,528.35 C370.46,528.35 370.20,528.35 370.20,528.35 C369.29,529.64 368.86,534.67 369.16,537.36 C370.09,544.37 369.98,550.82 370.33,551.55 C370.56,552.03 371.28,552.97 372.50,554.35" fill="none" stroke="rgb(0, 165, 255)" stroke-width="3.09" stroke-opacity="1.00" stroke-linejoin="round"/>
<path d="M381.16,577.30 C380.42,577.88 379.57,580.99 380.17,585.73 C380.75,590.09 384.91,606.72 386.60,609.87 C386.60,609.87 387.60,609.93 387.60,609.93" fill="none" stroke="rgb(0, 165, 255)" stroke-width="3.09" stroke-opacity="1.00" stroke-linejoin="round"/>
<path d="M401.05,569.14 C401.05,569.14 400.11,569.24 400.11,569.24 C400.11,569.24 401.77,586.69 401.77,586.69 C401.77,586.69 403.09,583.41 403.09,583.41" fill="none" stroke="rgb(0, 165, 255)" stroke-width="3.09" stroke-opacity="1.00" stroke-linejoin="round"/>
<path d="M416.85,560.98 C416.85,560.98 416.34,561.24 416.34,561.24 C416.34,564.38 416.54,570.60 417.04,573.68 C418.02,579.61 418.42,589.71 418.82,593.70 C418.82,593.70 418.55,593.07 418.55,593.07" fill="none" stroke="rgb(0, 165, 255)" stroke-width="3.09" stroke-opacity="1.00" stroke-linejoin="round"/>
<path d="M441.83,555.88 C441.83,555.88 441.58,555.88 441.58,555.88 C441.37,556.06 441.22,556.94 441.32,558.19 C441.49,560.23 442.59,565.06 442.85,566.23 C442.86,566.24 442.89,566.27 442.89,566.26 C442.89,566.26 443.36,564.04 443.36,564.04" fill="none" stroke="rgb(0, 165, 255)" stroke-width="3.09" stroke-opacity="1.00" stroke-linejoin="round"/>
<path d="M461.21,535.49 C461.06,535.51 460.65,536.45 460.44,537.43 C460.20,538.59 460.18,555.83 460.18,563.20 C460.16,568.06 459.56,572.57 458.64,575.27 C458.48,575.71 458.33,576.15 458.17,576.59" fill="none" stroke="rgb(0, 165, 255)" stroke-width="3.09" stroke-opacity="1.00" stroke-linejoin="round"/>
<path d="M458.66,616.04 C458.36,617.28 458.19,618.17 458.15,618.72 C458.09,619.64 458.66,628.46 458.22,632.12 C458.08,633.20 457.87,637.06 457.38,638.80 C456.49,642.09 456.58,649.65 455.71,655.10 C455.67,655.33 455.63,655.57 455.60,655.81" fill="none" stroke="rgb(0, 165, 255)" stroke-width="3.09" stroke-opacity="1.00" stroke-linejoin="round"/>
<path d="M400.54,616.55 C400.67,618.44 401.44,621.74 402.93,627.00 C406.51,639.33 407.26,642.34 407.67,645.06 C407.74,645.51 407.91,646.54 408.18,648.16" fill="none" stroke="rgb(0, 165, 255)" stroke-width="3.09" stroke-opacity="1.00" stroke-linejoin="round"/>
<path d="M411.24,654.79 C410.18,657.31 409.75,658.94 409.71,663.78 C409.69,667.32 408.96,671.04 409.02,671.69 C409.02,671.69 410.52,673.30 410.52,673.30" fill="none" stroke="rgb(0, 165, 255)" stroke-width="3.09" stroke-opacity="1.00" stroke-linejoin="round"/>
<path d="M157.73,270.03" fill="none" stroke="rgb(255, 165, 0)" stroke-width="3.09" stroke-opacity="1.00" stroke-linejoin="round"/>
<path d="M57.12,275.97 C57.12,275.97 57.27,276.14 57.27,276.14 C57.05,276.26 56.91,280.18 56.81,282.57 C56.83,285.68 59.32,290.23 62.13,293.73 C64.02,296.04 73.91,306.23 74.79,307.37 C74.90,307.51 75.09,307.76 75.35,308.12" fill="none" stroke="rgb(255, 165, 0)" stroke-width="3.09" stroke-opacity="1.00" stroke-linejoin="round"/>
<path d="M56.11,276.85 C57.25,274.10 60.03,269.35 85.22,234.96 C92.14,225.70 107.18,212.41 108.69,210.34 C111.00,207.13 113.74,203.83 116.05,201.88 C118.44,199.88 124.73,195.51 127.19,194.26 C130.17,192.80 134.70,192.69 136.60,193.52 C142.88,196.47 149.98,206.52 149.98,206.59 C149.98,206.59 148.51,207.32 148.51,207.32" fill="none" stroke="rgb(255, 165, 0)" stroke-width="3.09" stroke-opacity="1.00" stroke-linejoin="round"/>
<path d="M62.53,291.71 C62.53,291.71 62.03,292.15 62.03,292.15 C62.09,292.07 66.58,286.30 67.74,284.61 C69.93,281.44 79.20,269.73 81.48,267.08 C87.61,259.97 94.59,249.94 96.46,247.46 C100.94,241.48 109.77,229.94 114.13,224.40 C120.89,216.08 135.99,202.15 139.01,199.15 C139.01,199.15 138.96,198.75 138.96,198.75" fill="none" stroke="rgb(255, 165, 0)" stroke-width="3.09" stroke-opacity="1.00" stroke-linejoin="round"/>
<path d="M70.11,259.91 C70.11,259.91 69.63,260.04 69.63,260.04 C71.34,262.27 72.67,263.88 73.60,264.76 C75.31,266.37 79.74,269.04 80.53,269.40 C80.53,269.40 81.22,269.19 81.22,269.19" fill="none" stroke="rgb(255, 165, 0)" stroke-width="3.09" stroke-opacity="1.00" stroke-linejoin="round"/>
<path d="M84.58,240.79 C84.58,240.79 84.41,240.93 84.41,240.93 C84.65,241.21 84.89,241.49 85.13,241.77 C86.55,243.38 89.29,245.40 89.57,247.12 C90.12,250.72 89.72,255.13 89.04,259.24 C89.04,259.24 89.15,259.10 89.15,259.10" fill="none" stroke="rgb(255, 165, 0)" stroke-width="3.09" stroke-opacity="1.00" stroke-linejoin="round"/>
<path d="M105.11,218.75 C105.11,218.75 103.82,218.98 103.82,218.98 C104.76,220.11 106.19,223.16 106.70,226.31 C106.92,227.75 106.65,229.88 106.23,231.03 C106.14,231.25 106.01,231.49 105.84,231.75" fill="none" stroke="rgb(255, 165, 0)" stroke-width="3.09" stroke-opacity="1.00" stroke-linejoin="round"/>
<path d="M117.63,204.88 C117.63,204.88 117.01,205.20 117.01,205.20 C117.58,206.22 118.36,211.09 118.24,213.99 C118.14,216.11 117.37,227.40 117.51,228.81 C117.55,229.19 117.62,229.69 117.73,230.32" fill="none" stroke="rgb(255, 165, 0)" stroke-width="3.09" stroke-opacity="1.00" stroke-linejoin="round"/>
<path d="M79.09,309.01 C79.09,309.01 78.67,309.38 78.67,309.38 C78.63,309.33 78.75,308.80 79.07,307.91 C80.07,305.12 83.31,299.47 84.73,297.83 C85.20,297.33 85.67,296.84 86.15,296.34 C86.29,296.18 86.39,296.02 86.45,295.85" fill="none" stroke="rgb(255, 165, 0)" stroke-width="3.09" stroke-opacity="1.00" stroke-linejoin="round"/>
<path d="M95.80,273.41 C93.87,275.15 90.86,280.65 89.89,283.36 C89.03,285.84 87.70,292.30 87.58,295.43 C87.54,297.02 88.22,300.19 89.03,300.68 C89.89,300.59 92.11,298.72 93.69,296.43 C94.99,294.51 98.03,289.27 99.02,287.21 C101.09,282.79 102.23,278.05 102.70,273.21 C102.96,270.42 102.91,269.05 102.63,268.87 C101.94,268.90 98.11,272.03 95.83,274.42 C92.74,277.66 91.92,278.41 90.96,279.19" fill="none" stroke="rgb(255, 165, 0)" stroke-width="3.09" stroke-opacity="1.00" stroke-linejoin="round"/>
<path d="M101.95,269.23 C102.29,268.55 103.36,266.49 103.84,265.72 C105.91,262.37 115.39,250.15 116.40,248.56 C116.62,248.22 116.82,247.82 117.01,247.35" fill="none" stroke="rgb(255, 165, 0)" stroke-width="3.09" stroke-opacity="1.00" stroke-linejoin="round"/>
<path d="M126.62,235.29 C123.76,237.90 121.10,242.43 120.00,245.63 C116.88,254.89 117.05,258.48 117.26,258.75 C117.78,259.00 119.67,258.29 122.08,256.25 C125.28,253.49 131.56,245.40 137.94,236.71 C140.03,233.81 143.02,228.58 144.12,225.77 C146.08,220.56 144.09,216.42 143.57,216.21 C138.79,216.55 125.46,233.91 124.46,235.52 C124.29,235.79 124.24,235.95 124.31,236.01" fill="none" stroke="rgb(255, 165, 0)" stroke-width="3.09" stroke-opacity="1.00" stroke-linejoin="round"/>
<path d="M144.57,214.02 C144.53,214.06 145.01,212.91 145.61,211.87 C146.30,210.68 147.65,208.65 148.21,207.90 C148.21,207.90 148.09,207.99 148.09,207.99" fill="none" stroke="rgb(255, 165, 0)" stroke-width="3.09" stroke-opacity="1.00" stroke-linejoin="round"/>
<path d="M157.73,270.03" fill="none" stroke="rgb(255, 165, 0)" stroke-width="3.09" stroke-opacity="1.00" stroke-linejoin="round"/>
<path d="M65.44,387.61 C65.44,387.61 64.73,386.45 64.73,386.45" fill="none" stroke="rgb(255, 165, 0)" stroke-width="3.09" stroke-opacity="1.00" stroke-linejoin="round"/>
<path d="M65.95,382.41 C65.95,382.41 65.66,382.08 65.66,382.08 C65.66,382.08 79.25,397.01 79.25,397.01 C79.25,397.01 77.64,395.66 77.64,395.66" fill="none" stroke="rgb(255, 165, 0)" stroke-width="3.09" stroke-opacity="1.00" stroke-linejoin="round"/>
<path d="M65.84,386.37 C65.84,386.37 65.28,386.41 65.28,386.41 C65.17,385.91 66.22,381.63 67.34,378.97 C68.44,376.39 76.88,363.14 76.87,363.17 C76.87,363.17 85.59,374.33 85.59,374.33 C85.59,374.33 79.25,394.35 79.25,394.35 C79.25,394.35 78.46,394.31 78.46,394.31" fill="none" stroke="rgb(255, 165, 0)" stroke-width="3.09" stroke-opacity="1.00" stroke-linejoin="round"/>
<path d="M72.37,369.70 C72.16,371.27 73.28,374.15 75.45,376.67 C77.37,378.85 81.93,383.14 82.23,383.40 C82.31,383.47 82.43,383.52 82.59,383.56" fill="none" stroke="rgb(255, 165, 0)" stroke-width="3.09" stroke-opacity="1.00" stroke-linejoin="round"/>
<path d="M83.30,353.66 C83.30,353.66 84.62,357.26 84.62,357.26 C84.62,357.26 84.64,357.24 84.64,357.24 C84.17,356.20 83.72,351.18 83.80,348.37 C83.90,345.46 86.01,340.13 87.03,338.37 C89.51,334.15 110.18,310.92 110.91,310.72 C111.16,310.86 114.96,316.44 114.89,316.52 C112.50,319.54 105.27,326.48 104.20,327.55 C101.08,330.71 97.53,335.22 95.99,338.04 C95.77,338.44 86.19,361.12 85.75,364.07 C85.47,366.12 86.45,368.93 87.09,369.36 C87.83,369.79 89.61,369.22 91.28,366.68 C93.29,363.59 97.17,355.32 99.04,350.35 C99.04,350.35 98.83,350.05 98.83,350.05" fill="none" stroke="rgb(255, 165, 0)" stroke-width="3.09" stroke-opacity="1.00" stroke-linejoin="round"/>
<path d="M100.29,334.71 C100.20,334.82 98.03,348.99 97.65,351.89 C97.44,353.49 97.18,354.76 96.75,356.46 C96.75,356.46 97.26,355.73 97.26,355.73" fill="none" stroke="rgb(255, 165, 0)" stroke-width="3.09" stroke-opacity="1.00" stroke-linejoin="round"/>
<path d="M98.84,353.47 C98.84,353.47 98.48,354.07 98.48,354.07 C99.85,355.60 101.35,356.33 102.20,355.94 C103.07,355.51 104.80,351.62 105.12,350.77 C106.68,347.00 108.03,342.30 108.50,338.60 C108.57,338.04 109.56,329.02 109.58,327.88 C109.58,327.79 110.13,327.24 111.18,326.11" fill="none" stroke="rgb(255, 165, 0)" stroke-width="3.09" stroke-opacity="1.00" stroke-linejoin="round"/>
<path d="M112.96,318.63 C112.94,318.66 113.02,318.59 113.05,318.56 C114.46,316.94 115.79,316.59 116.62,317.31 C119.54,319.89 120.64,321.48 120.85,322.33 C119.39,325.30 113.84,333.06 112.15,335.44 C111.26,336.75 109.33,341.18 108.89,342.19" fill="none" stroke="rgb(255, 165, 0)" stroke-width="3.09" stroke-opacity="1.00" stroke-linejoin="round"/>
<path d="M80.76,390.56 C80.76,390.56 80.85,390.49 80.85,390.49 C80.95,390.41 82.19,392.00 83.13,393.23 C83.54,393.72 89.10,397.97 91.48,400.49 C91.48,400.49 91.27,400.24 91.27,400.24" fill="none" stroke="rgb(255, 165, 0)" stroke-width="3.09" stroke-opacity="1.00" stroke-linejoin="round"/>
<path d="M123.38,323.79 C123.38,323.79 122.90,323.91 122.90,323.91 C125.31,325.71 128.80,328.78 131.83,331.58 C132.86,332.55 134.70,334.29 135.50,335.05 C135.31,337.60 124.73,349.92 121.64,355.59 C121.10,356.62 120.56,357.65 120.02,358.67 C119.60,359.48 118.60,361.26 118.28,361.82" fill="none" stroke="rgb(255, 165, 0)" stroke-width="3.09" stroke-opacity="1.00" stroke-linejoin="round"/>
<path d="M93.98,391.79 C93.25,392.41 92.85,392.82 92.71,393.19 C92.33,394.29 91.87,398.87 92.22,400.37 C92.59,401.85 94.24,403.95 95.22,403.88 C96.28,403.76 99.18,401.72 100.09,400.22 C100.99,398.67 101.61,394.79 101.46,392.91 C101.30,391.27 100.28,388.59 99.58,387.92 C98.86,387.28 96.65,387.36 95.95,387.93 C95.49,388.31 94.13,389.74 93.52,390.42" fill="none" stroke="rgb(255, 165, 0)" stroke-width="3.09" stroke-opacity="1.00" stroke-linejoin="round"/>
<path d="M100.89,388.14 C100.89,388.14 100.72,388.29 100.72,388.29 C101.29,387.76 104.88,381.86 106.77,378.74 C109.85,373.64 111.36,370.98 112.30,369.32 C112.30,369.32 112.45,369.77 112.45,369.77" fill="none" stroke="rgb(255, 165, 0)" stroke-width="3.09" stroke-opacity="1.00" stroke-linejoin="round"/>
<path d="M115.99,357.50 C114.97,358.61 112.66,362.80 112.12,364.54 C111.65,366.15 112.29,371.36 112.68,374.31 C113.27,378.72 114.87,381.07 115.57,381.32 C116.39,381.53 119.15,378.77 120.09,376.00 C121.12,372.86 121.02,367.21 120.46,364.93 C119.96,363.00 118.45,360.08 117.51,359.54 C116.98,359.27 115.76,359.20 115.21,359.54 C114.74,359.83 112.95,361.34 112.44,361.78" fill="none" stroke="rgb(255, 165, 0)" stroke-width="3.09" stroke-opacity="1.00" stroke-linejoin="round"/>
<path d="M157.73,270.03" fill="none" stroke="rgb(255, 165, 0)" stroke-width="3.09" stroke-opacity="1.00" stroke-linejoin="round"/>
<path d="M224.72,120.36 C224.60,119.98 224.64,119.74 224.64,119.65 C224.54,118.45 220.46,108.19 220.45,106.77 C220.52,105.31 222.84,102.72 225.44,100.51 C242.87,86.26 244.13,85.60 244.34,85.57 C245.34,86.13 248.01,94.74 248.10,95.21 C248.17,95.54 248.25,96.18 248.35,97.14" fill="none" stroke="rgb(255, 165, 0)" stroke-width="3.09" stroke-opacity="1.00" stroke-linejoin="round"/>
<path d="M231.48,98.86 C231.88,99.76 232.17,100.44 232.32,100.89 C232.68,101.92 233.50,104.84 234.08,106.61 C234.08,106.61 234.68,106.84 234.68,106.84" fill="none" stroke="rgb(255, 165, 0)" stroke-width="3.09" stroke-opacity="1.00" stroke-linejoin="round"/>
<path d="M225.05,112.46 C225.16,112.21 225.70,111.46 226.32,110.81 C229.21,107.83 245.33,94.97 246.10,94.30 C246.10,94.30 245.65,94.54 245.65,94.54" fill="none" stroke="rgb(255, 165, 0)" stroke-width="3.09" stroke-opacity="1.00" stroke-linejoin="round"/>
<path d="M205.47,162.87 C205.01,163.01 204.03,163.31 203.64,163.77 C202.89,164.64 200.95,166.95 199.50,167.58 C197.32,168.54 196.43,168.87 196.26,168.82 C195.93,168.67 193.32,158.08 193.37,157.82 C194.21,154.90 201.56,145.89 205.70,141.51 C210.26,136.73 217.35,129.35 223.24,124.47 C227.21,121.14 234.85,113.06 241.80,106.24 C249.12,99.04 255.24,93.43 260.00,89.90 C265.32,86.01 278.69,75.95 281.06,74.28 C286.45,70.54 287.91,70.71 288.66,70.87 C289.39,71.87 290.74,76.35 290.98,78.70 C291.18,80.79 291.14,88.10 290.77,88.61 C289.50,90.15 279.27,97.87 278.18,98.77 C277.22,99.58 276.26,100.38 275.30,101.19" fill="none" stroke="rgb(255, 165, 0)" stroke-width="3.09" stroke-opacity="1.00" stroke-linejoin="round"/>
<path d="M228.09,134.94 C228.09,134.94 227.42,135.14 227.42,135.14 C228.39,132.30 244.27,121.23 245.07,120.52 C245.07,120.52 243.97,120.15 243.97,120.15" fill="none" stroke="rgb(255, 165, 0)" stroke-width="3.09" stroke-opacity="1.00" stroke-linejoin="round"/>
<path d="M224.71,136.68 C224.39,136.52 224.16,136.43 224.02,136.40 C222.95,136.26 219.10,139.76 217.41,141.28 C212.90,145.36 210.02,148.31 208.55,150.38 C206.07,153.94 203.81,158.75 203.25,161.24 C203.08,162.06 203.77,162.99 204.74,162.94 C206.10,162.83 210.45,160.96 213.26,159.01 C215.90,157.16 219.07,154.14 223.04,150.13 C225.79,147.34 228.56,143.14 228.40,141.32 C228.22,139.78 226.39,138.33 225.61,138.09 C225.31,138.00 223.42,137.69 222.27,137.50" fill="none" stroke="rgb(255, 165, 0)" stroke-width="3.09" stroke-opacity="1.00" stroke-linejoin="round"/>
<path d="M275.12,103.52 C275.12,103.52 274.38,103.68 274.38,103.68 C273.99,103.47 271.46,102.38 269.93,102.82 C266.26,103.93 263.33,106.37 261.88,107.97 C259.42,110.71 253.52,120.30 252.26,123.84 C251.51,125.96 251.22,128.77 251.75,129.38 C252.37,130.02 255.30,129.80 257.01,128.79 C258.59,127.85 269.30,119.89 271.42,118.23 C275.67,114.82 278.40,112.24 279.01,110.54 C279.47,109.19 279.02,105.18 278.38,104.43 C278.27,104.31 278.05,104.13 277.71,103.89" fill="none" stroke="rgb(255, 165, 0)" stroke-width="3.09" stroke-opacity="1.00" stroke-linejoin="round"/>
<path d="M157.73,270.03" fill="none" stroke="rgb(255, 165, 0)" stroke-width="3.09" stroke-opacity="1.00" stroke-linejoin="round"/>
<path d="M253.24,239.60 C253.06,239.62 250.64,238.98 249.27,238.00 C246.65,236.20 241.63,232.64 239.78,230.41 C237.83,227.99 232.03,211.96 231.73,209.14 C231.70,208.79 231.74,208.48 231.88,208.21" fill="none" stroke="rgb(255, 165, 0)" stroke-width="3.09" stroke-opacity="1.00" stroke-linejoin="round"/>
<path d="M227.28,218.48 C227.44,218.05 239.22,209.47 241.84,208.20 C246.12,206.25 266.04,191.92 266.82,191.38 C273.51,186.78 285.61,180.08 303.85,170.36 C323.16,160.46 346.41,150.35 349.29,149.39 C355.59,147.26 373.29,140.04 376.94,139.22 C376.94,139.22 376.64,139.54 376.64,139.54" fill="none" stroke="rgb(255, 165, 0)" stroke-width="3.09" stroke-opacity="1.00" stroke-linejoin="round"/>
<path d="M231.16,211.70 C231.16,211.70 230.04,211.66 230.04,211.66 C229.55,209.56 231.18,204.41 232.13,202.18 C233.07,200.03 236.26,194.53 237.39,193.43 C240.48,190.45 250.25,183.54 254.97,180.26 C272.13,168.17 313.01,145.89 318.51,143.13 C324.08,140.34 350.48,131.65 358.58,129.85 C359.96,129.55 367.33,128.26 369.20,128.26 C371.50,128.28 374.44,129.18 374.86,130.40 C375.09,131.12 375.29,132.91 375.30,133.96 C375.28,134.88 373.66,137.53 372.81,138.89" fill="none" stroke="rgb(255, 165, 0)" stroke-width="3.09" stroke-opacity="1.00" stroke-linejoin="round"/>
<path d="M233.87,207.83 C233.65,206.92 237.97,204.00 244.02,198.77 C248.75,194.61 261.09,185.52 261.93,184.91 C265.03,182.65 276.60,172.91 278.42,171.66 C280.56,170.21 303.07,158.67 321.86,150.42 C329.22,147.20 357.79,136.85 359.91,136.75 C359.91,136.75 359.21,137.51 359.21,137.51" fill="none" stroke="rgb(255, 165, 0)" stroke-width="3.09" stroke-opacity="1.00" stroke-linejoin="round"/>
<path d="M373.75,141.38 C373.75,141.38 372.87,140.51 372.87,140.51 C373.01,140.69 373.12,140.83 373.18,140.93 C373.89,142.13 374.22,145.73 373.94,149.04 C372.51,164.91 368.69,174.67 367.36,176.82 C367.36,176.82 367.00,176.83 367.00,176.83" fill="none" stroke="rgb(255, 165, 0)" stroke-width="3.09" stroke-opacity="1.00" stroke-linejoin="round"/>
<path d="M336.55,176.06 C336.27,176.05 335.75,176.11 335.44,176.20 C334.70,176.48 332.04,181.20 330.66,185.25 C329.65,188.30 329.48,191.54 330.14,192.52 C330.76,193.39 333.47,194.57 335.06,194.57 C337.08,194.53 341.79,192.70 344.01,191.18 C347.19,188.98 352.17,183.97 352.40,183.66 C352.40,183.66 352.33,181.94 352.33,181.94" fill="none" stroke="rgb(255, 165, 0)" stroke-width="3.09" stroke-opacity="1.00" stroke-linejoin="round"/>
<path d="M349.92,175.86 C349.53,175.91 348.34,176.10 347.93,176.44 C347.75,176.60 342.62,182.33 340.67,183.98 C338.13,186.09 333.23,189.48 332.84,189.83 C332.83,189.84 332.76,189.87 332.63,189.93" fill="none" stroke="rgb(255, 165, 0)" stroke-width="3.09" stroke-opacity="1.00" stroke-linejoin="round"/>
<path d="M293.54,206.67 C295.11,204.52 299.10,201.57 302.15,200.42 C312.36,196.65 329.78,189.37 331.21,189.23 C331.21,189.23 329.84,190.14 329.84,190.14" fill="none" stroke="rgb(255, 165, 0)" stroke-width="3.09" stroke-opacity="1.00" stroke-linejoin="round"/>
<path d="M290.25,204.92 C286.78,206.48 278.93,214.76 276.62,217.86 C274.54,220.69 274.11,223.24 274.23,224.77 C274.42,226.77 275.40,228.29 276.64,228.18 C279.64,227.81 286.14,223.21 290.01,219.33 C292.37,216.90 295.13,213.45 295.57,212.28 C296.53,209.59 296.81,206.62 296.39,205.86 C295.92,205.08 293.76,204.53 292.40,204.94 C289.68,205.84 284.07,211.81 278.52,218.33 C278.26,218.65 278.01,218.96 277.75,219.28" fill="none" stroke="rgb(255, 165, 0)" stroke-width="3.09" stroke-opacity="1.00" stroke-linejoin="round"/>
<path d="M251.50,238.44 C254.61,236.55 263.72,227.96 268.20,225.08 C272.41,222.37 273.85,221.32 276.19,219.49 C276.19,219.49 275.30,220.42 275.30,220.42" fill="none" stroke="rgb(255, 165, 0)" stroke-width="3.09" stroke-opacity="1.00" stroke-linejoin="round"/>
</g>
</svg>
