<?xml version="1.0" encoding="UTF-8" standalone="no"?>
<!DOCTYPE svg PUBLIC "-//W3C//DTD SVG 1.1//EN" "http://www.w3.org/Graphics/SVG/1.1/DTD/svg11.dtd">
<svg width="128.40" height="181.68" viewBox="0.00 0.00 535.00 757.00" xmlns="http://www.w3.org/2000/svg" xmlns:xlink="http://www.w3.org/1999/xlink">
<g stroke-linecap="round" id="221">
<path d="M400.23,449.41 C400.23,449.41 400.13,449.20 400.13,449.20 C400.13,449.20 399.77,449.01 399.77,449.01 C397.46,449.87 395.04,450.70 393.87,450.95 C392.95,451.15 383.77,452.71 380.27,454.65 C379.65,455.00 372.76,459.55 370.90,461.01 C369.11,462.45 364.95,467.63 363.85,470.55 C363.44,471.74 363.54,473.44 364.06,474.13 C365.26,475.58 382.96,483.39 386.03,484.44 C387.73,485.01 395.62,487.05 398.35,487.49 C403.77,488.33 425.74,486.14 426.99,485.97 C430.90,485.41 437.68,483.44 440.94,481.33 C442.72,480.13 446.70,475.93 447.91,473.88 C449.05,471.88 450.69,468.18 451.45,464.53 C451.60,463.67 450.93,461.23 450.35,460.35 C448.30,457.40 437.51,451.75 432.54,450.37 C429.69,449.60 423.83,448.86 419.05,448.42 C415.03,448.08 413.27,448.12 409.38,448.66 C402.80,449.63 394.30,451.10 393.84,451.22 C393.53,451.30 392.99,451.48 392.23,451.77" fill="none" stroke="rgb(255, 0, 0)" stroke-width="4.12" stroke-opacity="1.00" stroke-linejoin="round"/>
<path d="M362.29,469.80 C362.29,469.80 361.69,471.10 361.69,471.10 C362.13,471.00 375.64,466.60 385.54,463.88 C407.85,458.14 433.77,449.94 435.77,449.62 C437.18,449.40 438.18,449.28 438.62,449.26" fill="none" stroke="rgb(255, 0, 0)" stroke-width="4.12" stroke-opacity="1.00" stroke-linejoin="round"/>
<path d="M438.33,472.36 C438.33,472.36 438.24,472.29 438.24,472.29 C438.09,472.29 437.92,472.36 437.74,472.50 C437.68,472.55 433.29,476.66 430.62,478.70 C430.62,478.70 429.93,478.53 429.93,478.53 C429.89,477.97 429.91,477.70 429.99,477.44 C430.01,477.36 430.05,477.24 430.09,477.09" fill="none" stroke="rgb(255, 0, 0)" stroke-width="4.12" stroke-opacity="1.00" stroke-linejoin="round"/>
<path d="M432.08,472.46 C432.09,472.20 432.10,472.04 432.12,471.96 C432.14,471.88 432.20,471.78 432.29,471.66 C432.29,471.66 432.58,471.71 432.58,471.71 C433.15,472.46 434.72,474.53 435.33,475.02 C436.39,475.89 438.65,477.15 438.71,477.06" fill="none" stroke="rgb(255, 0, 0)" stroke-width="4.12" stroke-opacity="1.00" stroke-linejoin="round"/>
<path d="M446.39,470.49 C446.36,470.43 446.33,470.37 446.32,470.32 C446.31,470.28 446.28,470.17 446.25,470.01 C445.37,470.53 442.92,471.99 442.21,472.39 C439.73,473.80 438.24,474.46 437.48,474.53 C437.48,474.53 437.42,474.36 437.42,474.36 C437.42,474.36 437.62,474.06 437.62,474.06" fill="none" stroke="rgb(255, 0, 0)" stroke-width="4.12" stroke-opacity="1.00" stroke-linejoin="round"/>
<path d="M439.95,470.39 C439.94,470.38 439.97,470.43 439.98,470.45 C440.42,471.08 441.12,471.75 442.67,472.95 C444.24,474.17 444.94,474.69 445.45,475.04" fill="none" stroke="rgb(255, 0, 0)" stroke-width="4.12" stroke-opacity="1.00" stroke-linejoin="round"/>
<path d="M392.17,479.59 C392.17,479.59 391.00,480.77 391.00,480.77 C390.95,481.05 397.82,478.85 402.07,477.91 C404.06,477.47 417.70,475.01 418.14,474.92 C418.52,474.83 419.25,474.65 420.33,474.37" fill="none" stroke="rgb(255, 0, 0)" stroke-width="4.12" stroke-opacity="1.00" stroke-linejoin="round"/>
<path d="M403.23,467.69 C403.23,467.69 403.49,467.03 403.49,467.03 C403.49,467.03 397.84,473.32 397.84,473.32 C397.84,473.32 403.83,471.72 403.83,471.72" fill="none" stroke="rgb(255, 0, 0)" stroke-width="4.12" stroke-opacity="1.00" stroke-linejoin="round"/>
<path d="M431.32,461.90 C431.32,461.90 430.92,461.46 430.92,461.46 C430.51,461.44 424.48,463.00 423.89,463.19 C418.05,465.11 417.08,468.22 417.11,468.91 C417.88,469.78 422.61,469.62 425.99,468.83 C429.20,468.05 433.84,466.29 434.42,465.06 C434.51,464.86 434.60,464.45 434.69,463.84 C434.43,463.14 432.73,462.23 431.47,462.08 C429.57,461.89 426.55,462.11 424.94,462.56 C424.57,462.67 424.13,462.86 423.61,463.12" fill="none" stroke="rgb(255, 0, 0)" stroke-width="4.12" stroke-opacity="1.00" stroke-linejoin="round"/>
<path d="M424.70,462.50 C424.70,462.71 424.69,464.05 424.69,464.26 C424.71,466.57 424.97,467.12 425.17,467.42 C425.17,467.42 425.55,463.99 425.55,463.99 C425.55,463.99 425.00,466.89 425.00,466.89 C425.00,466.89 425.64,464.56 425.64,464.56 C425.64,464.56 424.13,465.50 424.13,465.50" fill="none" stroke="rgb(255, 0, 0)" stroke-width="4.12" stroke-opacity="1.00" stroke-linejoin="round"/>
<path d="M382.53,468.34 C382.14,468.09 381.13,468.58 378.43,469.40 C372.93,471.09 371.89,473.19 371.96,473.42 C372.28,473.91 374.07,474.31 377.18,473.78 C380.54,473.19 386.13,471.38 387.30,470.31 C387.81,469.81 388.22,469.12 388.25,468.86 C387.41,468.26 386.52,468.01 384.95,468.06 C381.90,468.16 380.14,468.64 379.96,468.78" fill="none" stroke="rgb(255, 0, 0)" stroke-width="4.12" stroke-opacity="1.00" stroke-linejoin="round"/>
<path d="M378.90,469.40 C378.85,469.42 378.80,469.44 378.77,469.46 C378.74,469.48 378.68,469.53 378.58,469.61 C378.58,469.61 378.69,473.02 378.69,473.02 C378.69,473.02 378.96,471.09 378.96,471.09 C378.63,471.33 378.41,472.40 378.53,473.68 C378.55,473.99 378.64,474.43 378.77,475.00" fill="none" stroke="rgb(255, 0, 0)" stroke-width="4.12" stroke-opacity="1.00" stroke-linejoin="round"/>
<path d="M398.99,489.03 C398.99,489.03 398.06,488.61 398.06,488.61 C398.06,488.61 397.59,488.82 397.59,488.82 C397.59,488.82 396.84,498.13 396.84,498.13 C396.84,498.13 395.89,491.57 395.89,491.57 C395.89,491.57 396.54,499.07 396.54,499.07" fill="none" stroke="rgb(255, 0, 0)" stroke-width="4.12" stroke-opacity="1.00" stroke-linejoin="round"/>
<path d="M416.38,487.17 C416.38,487.17 416.64,486.79 416.64,486.79 C416.64,486.79 416.88,486.82 416.88,486.82 C416.88,486.82 416.45,497.02 416.45,497.02 C416.45,497.02 418.14,489.75 418.14,489.75 C418.14,489.75 416.86,495.74 416.86,495.74" fill="none" stroke="rgb(255, 0, 0)" stroke-width="4.12" stroke-opacity="1.00" stroke-linejoin="round"/>
<path d="M395.15,496.85 C395.15,496.85 395.04,497.00 395.04,497.00 C395.04,497.00 395.03,496.82 395.03,496.82 C395.03,496.82 387.83,498.07 387.83,498.07 C388.23,500.35 399.11,510.75 402.42,512.64 C402.83,512.47 412.57,504.05 415.41,500.93 C416.20,500.06 417.19,498.78 418.85,496.55 C416.41,499.84 413.53,503.57 411.57,505.90 C409.34,508.52 406.76,511.03 406.11,511.09 C406.11,511.09 405.92,510.97 405.92,510.97" fill="none" stroke="rgb(255, 0, 0)" stroke-width="4.12" stroke-opacity="1.00" stroke-linejoin="round"/>
<path d="M388.64,500.85 C388.15,501.07 387.81,501.21 387.62,501.26 C387.42,501.30 387.10,501.32 386.65,501.31 C386.65,501.31 386.14,501.75 386.14,501.75 C386.21,504.00 393.13,512.43 395.26,514.42 C395.26,514.42 386.08,501.95 386.08,501.95 C386.08,501.95 401.59,517.94 401.59,517.94 C401.59,517.94 390.81,504.02 390.81,504.02 C390.52,505.14 390.58,505.86 391.25,506.91 C392.82,509.36 396.53,513.21 399.21,515.46 C401.33,517.22 403.82,518.67 404.66,518.35 C405.22,517.68 407.71,513.19 409.28,510.79 C413.74,504.07 418.38,501.02 418.46,501.19 C418.46,501.19 405.32,515.40 405.32,515.40 C406.46,514.59 410.34,510.34 411.52,508.44 C412.16,507.41 412.37,506.71 412.32,506.10" fill="none" stroke="rgb(255, 0, 0)" stroke-width="4.12" stroke-opacity="1.00" stroke-linejoin="round"/>
<path d="M386.39,502.40 C386.39,502.40 387.26,501.12 387.26,501.12 C387.17,501.02 384.19,501.01 378.82,503.54 C376.34,504.73 362.47,514.27 358.46,517.45 C353.61,521.09 347.84,526.36 344.75,530.47 C342.86,533.02 337.29,544.93 335.53,551.17 C334.77,553.87 334.00,558.86 334.29,560.28 C334.55,561.30 339.19,562.14 344.95,562.97 C348.40,563.44 353.14,563.42 355.31,562.68 C357.87,561.74 361.08,558.41 363.37,554.37 C366.99,547.90 370.13,539.75 371.72,532.88 C372.25,530.61 373.16,525.24 373.62,524.78 C373.62,524.78 373.51,525.72 373.51,525.72 C373.51,525.72 373.41,525.62 373.41,525.62" fill="none" stroke="rgb(255, 0, 0)" stroke-width="4.12" stroke-opacity="1.00" stroke-linejoin="round"/>
<path d="M373.76,525.88 C373.76,525.88 374.08,525.05 374.08,525.05 C374.17,527.14 374.20,528.51 374.19,530.35 C374.17,538.35 376.33,568.21 376.46,568.67 C377.98,568.91 394.78,568.76 398.75,568.27 C400.13,568.11 402.58,567.82 403.66,567.69" fill="none" stroke="rgb(255, 0, 0)" stroke-width="4.12" stroke-opacity="1.00" stroke-linejoin="round"/>
<path d="M420.76,494.03 C420.76,494.03 420.27,494.14 420.27,494.14 C420.27,494.14 420.19,494.34 420.19,494.34 C423.76,496.71 427.56,499.82 430.46,503.00 C433.34,506.15 436.00,507.79 441.68,510.93 C445.48,513.03 459.40,526.61 460.05,527.21 C462.68,529.63 469.35,535.11 471.05,536.87 C473.15,539.09 476.84,545.13 477.68,547.12 C480.60,554.12 482.21,561.03 481.60,562.46 C480.76,564.23 477.78,566.78 475.70,567.46 C475.32,567.58 463.81,570.42 463.39,570.51 C460.59,571.08 454.45,571.02 452.01,570.68 C448.77,570.19 446.42,568.98 444.62,566.87 C443.82,565.85 440.24,558.94 439.44,556.56 C439.14,555.67 436.48,546.39 434.68,543.52 C432.65,540.35 422.66,528.59 422.44,528.42 C422.36,528.36 422.29,528.11 422.39,527.95" fill="none" stroke="rgb(255, 0, 0)" stroke-width="4.12" stroke-opacity="1.00" stroke-linejoin="round"/>
<path d="M422.62,526.88 C422.62,526.88 422.43,526.81 422.43,526.81 C422.25,529.48 422.11,534.20 422.19,537.35 C422.39,544.88 424.92,568.17 424.67,568.63 C424.14,569.25 422.10,569.33 418.39,569.36 C413.59,569.35 403.81,568.16 400.75,568.58 C400.75,568.58 400.96,568.45 400.96,568.45" fill="none" stroke="rgb(255, 0, 0)" stroke-width="4.12" stroke-opacity="1.00" stroke-linejoin="round"/>
<path d="M381.32,567.34 C381.32,567.34 381.24,567.26 381.24,567.26 C380.26,568.84 379.61,569.79 378.47,571.22 C374.83,575.79 359.02,593.76 341.30,613.57 C335.49,620.09 334.42,622.46 334.26,623.20 C336.24,624.24 342.73,624.24 346.22,624.25 C348.91,624.28 354.75,624.30 355.33,623.86 C356.07,623.28 363.13,611.63 367.29,607.00 C372.47,601.24 380.31,589.09 381.54,587.66 C383.29,585.62 385.45,581.23 386.49,578.13 C387.10,576.30 387.67,572.57 387.70,572.58 C387.96,572.85 390.18,580.29 390.59,582.15 C390.70,582.65 390.85,583.51 391.03,584.73" fill="none" stroke="rgb(255, 0, 0)" stroke-width="4.12" stroke-opacity="1.00" stroke-linejoin="round"/>
<path d="M388.46,577.68 C388.29,577.27 388.46,577.46 388.52,577.59 C390.14,581.93 397.35,595.38 399.36,599.66 C402.25,605.83 407.14,620.38 407.67,621.29 C408.26,622.26 409.30,623.40 409.86,623.54 C414.67,624.53 446.96,618.20 447.19,618.04 C447.55,617.34 447.05,614.24 445.52,610.97 C444.43,608.71 434.36,596.64 431.26,591.75 C429.38,588.81 418.73,573.88 415.27,570.96 C415.09,570.82 414.89,570.66 414.64,570.48" fill="none" stroke="rgb(255, 0, 0)" stroke-width="4.12" stroke-opacity="1.00" stroke-linejoin="round"/>
<path d="M335.14,621.08 C335.14,621.08 335.12,620.44 335.12,620.44 C335.24,620.40 332.43,620.53 331.09,620.70 C326.89,621.27 314.73,626.25 312.87,628.56 C312.46,629.12 312.72,630.55 313.48,631.51 C314.20,632.35 318.58,634.01 322.49,634.73 C334.79,636.75 342.48,637.64 348.75,637.80 C351.47,637.86 355.99,637.46 358.32,636.94 C360.75,636.38 364.89,634.74 367.23,633.44 C369.37,632.23 372.21,629.46 372.86,627.60 C373.50,625.65 372.67,622.43 371.42,621.21 C370.37,620.23 363.01,617.27 362.31,617.00 C362.06,616.90 361.72,616.76 361.30,616.58" fill="none" stroke="rgb(255, 0, 0)" stroke-width="4.12" stroke-opacity="1.00" stroke-linejoin="round"/>
<path d="M407.57,623.29 C407.57,623.29 406.91,622.35 406.91,622.35 C405.49,622.31 400.06,624.17 397.40,626.24 C396.05,627.32 394.55,629.51 394.18,630.73 C393.90,631.86 395.82,634.75 397.83,635.93 C400.47,637.44 406.58,639.27 411.22,639.73 C414.80,640.06 423.47,639.63 432.92,638.37 C437.84,637.67 448.49,634.35 452.09,631.69 C453.19,630.86 454.95,628.71 455.57,627.41 C455.87,626.75 455.42,624.98 455.05,624.39 C454.03,622.93 449.07,619.49 447.21,618.55 C446.16,618.03 442.32,616.23 440.86,615.55" fill="none" stroke="rgb(255, 0, 0)" stroke-width="4.12" stroke-opacity="1.00" stroke-linejoin="round"/>
<path d="M338.94,566.17 C338.94,566.17 339.19,564.49 339.19,564.49 C335.60,565.54 333.20,567.57 333.32,568.33 C333.61,569.32 337.01,571.22 339.27,571.70 C341.27,572.10 346.06,572.51 349.48,571.45 C350.91,570.99 353.78,568.25 353.95,566.92 C354.07,565.55 351.74,562.56 349.00,560.88 C348.72,560.71 348.48,560.60 348.28,560.54" fill="none" stroke="rgb(255, 0, 0)" stroke-width="4.12" stroke-opacity="1.00" stroke-linejoin="round"/>
<path d="M447.05,572.06 C447.05,572.06 446.82,571.23 446.82,571.23 C446.82,571.23 446.57,571.09 446.57,571.09 C446.27,571.25 445.75,571.40 444.99,571.49 C442.54,571.82 440.48,573.37 440.46,574.64 C440.51,575.80 442.97,577.93 445.19,578.54 C449.37,579.66 461.47,579.54 466.01,578.95 C468.75,578.58 473.57,577.28 475.19,576.46 C478.39,574.82 483.52,570.32 484.88,568.21 C485.53,567.15 485.36,565.42 483.54,564.39 C482.76,563.96 481.62,563.57 480.72,563.35" fill="none" stroke="rgb(255, 0, 0)" stroke-width="4.12" stroke-opacity="1.00" stroke-linejoin="round"/>
<path d="M346.11,559.39 C346.11,559.39 346.54,558.46 346.54,558.46 C347.30,558.70 347.95,559.02 348.17,559.10 C348.23,559.12 348.31,559.13 348.41,559.12 C348.45,556.99 348.38,555.32 348.11,554.57 C347.80,553.73 346.65,552.79 345.70,552.57 C344.73,552.39 342.93,552.80 342.10,553.34 C341.27,553.93 340.90,556.82 341.69,558.29 C342.08,558.97 343.46,560.42 344.20,560.86 C345.21,561.46 346.67,562.01 346.92,561.97" fill="none" stroke="rgb(255, 0, 0)" stroke-width="4.12" stroke-opacity="1.00" stroke-linejoin="round"/>
<path d="M463.02,557.61 C463.02,557.61 462.12,556.89 462.12,556.89 C460.41,557.30 458.37,559.97 458.70,561.19 C459.09,562.32 462.08,562.82 464.03,561.85 C465.99,560.81 467.88,557.42 467.14,556.12 C466.73,555.50 465.37,554.69 464.42,554.59 C462.38,554.40 459.76,555.17 459.77,555.17" fill="none" stroke="rgb(255, 0, 0)" stroke-width="4.12" stroke-opacity="1.00" stroke-linejoin="round"/>
<path d="M18.89,121.53 C18.89,121.53 17.37,120.24 17.37,120.24 C16.99,120.39 15.05,127.17 17.23,147.94 C17.55,150.94 18.20,157.59 18.54,161.23 C19.26,169.40 19.98,172.13 20.20,172.26" fill="none" stroke="rgb(0, 0, 255)" stroke-width="4.12" stroke-opacity="1.00" stroke-linejoin="round"/>
<path d="M30.52,225.43 C30.36,225.34 30.24,225.18 30.16,224.96 C30.07,224.74 29.91,224.15 29.68,223.18 C29.68,223.18 28.97,222.81 28.97,222.81 C27.88,224.06 26.35,228.37 25.59,231.72 C24.29,237.74 24.17,249.33 24.33,250.33" fill="none" stroke="rgb(0, 0, 255)" stroke-width="4.12" stroke-opacity="1.00" stroke-linejoin="round"/>
<path d="M91.33,153.05 C91.33,153.05 90.23,153.77 90.23,153.77 C91.20,159.91 91.76,174.79 92.02,182.79 C92.21,187.68 92.57,192.03 93.07,196.10" fill="none" stroke="rgb(0, 0, 255)" stroke-width="4.12" stroke-opacity="1.00" stroke-linejoin="round"/>
<path d="M112.94,118.16 C112.94,118.16 112.26,117.83 112.26,117.83 C112.26,117.83 112.11,117.87 112.11,117.87 C111.47,123.15 110.93,137.43 110.64,145.79 C110.53,154.18 110.63,164.25 110.67,166.65" fill="none" stroke="rgb(0, 0, 255)" stroke-width="4.12" stroke-opacity="1.00" stroke-linejoin="round"/>
<path d="M52.13,259.50 C52.13,259.50 51.50,259.40 51.50,259.40 C51.50,259.40 51.36,259.50 51.36,259.50 C51.01,262.50 51.49,268.77 52.21,272.07 C53.96,279.85 56.71,286.29 58.25,289.57" fill="none" stroke="rgb(0, 0, 255)" stroke-width="4.12" stroke-opacity="1.00" stroke-linejoin="round"/>
<path d="M76.45,238.54 C76.45,238.54 76.28,238.07 76.28,238.07 C76.42,241.95 76.66,245.65 77.19,251.53 C77.59,255.64 78.45,264.30 78.90,268.85 C79.58,275.94 80.32,283.83 80.39,284.62" fill="none" stroke="rgb(0, 0, 255)" stroke-width="4.12" stroke-opacity="1.00" stroke-linejoin="round"/>
<path d="M56.50,279.16 C56.46,278.46 56.44,276.89 56.44,276.89 C56.42,276.70 56.37,276.42 56.30,276.05 C55.21,276.76 52.69,280.06 51.47,282.89 C49.96,286.44 47.44,296.54 47.08,298.35 C46.40,301.77 46.15,306.56 46.06,311.08 C46.02,314.18 46.37,319.47 47.14,322.51" fill="none" stroke="rgb(0, 0, 255)" stroke-width="4.12" stroke-opacity="1.00" stroke-linejoin="round"/>
<path d="M40.91,320.42 C40.80,320.33 40.16,320.70 39.30,321.46 C34.96,325.32 29.29,333.99 27.03,339.14 C24.50,344.97 21.58,357.50 21.59,363.83 C21.60,364.85 21.73,365.96 21.95,367.42" fill="none" stroke="rgb(0, 0, 255)" stroke-width="4.12" stroke-opacity="1.00" stroke-linejoin="round"/>
<path d="M63.46,389.14 C63.46,389.14 63.36,384.46 63.36,384.46 C62.59,384.32 57.95,387.83 56.51,389.39 C52.55,393.77 46.56,405.44 44.12,412.40 C42.45,417.18 39.36,430.58 38.61,435.97 C38.48,436.92 37.99,440.94 37.85,442.15" fill="none" stroke="rgb(0, 0, 255)" stroke-width="4.12" stroke-opacity="1.00" stroke-linejoin="round"/>
<path d="M49.71,391.03 C49.71,391.03 48.81,390.49 48.81,390.49 C48.21,392.12 47.78,398.70 47.86,402.62 C47.98,407.34 48.54,413.36 49.17,416.50 C49.72,419.23 51.21,424.04 51.84,425.96" fill="none" stroke="rgb(0, 0, 255)" stroke-width="4.12" stroke-opacity="1.00" stroke-linejoin="round"/>
<path d="M40.32,450.36 C40.32,450.36 40.15,449.87 40.15,449.87 C40.15,449.87 39.79,449.74 39.79,449.74 C37.32,454.60 34.02,466.50 32.65,474.16 C30.39,486.85 29.26,510.39 29.69,516.11 C29.82,517.84 30.42,523.33 30.53,524.34" fill="none" stroke="rgb(0, 0, 255)" stroke-width="4.12" stroke-opacity="1.00" stroke-linejoin="round"/>
<path d="M53.78,502.91 C52.46,502.88 51.49,503.23 50.60,504.24 C49.27,505.76 47.18,510.88 46.40,514.23 C45.02,520.35 45.33,532.24 46.73,540.26 C47.92,546.60 50.23,554.57 53.89,565.89 C55.06,569.29 56.88,574.54 57.69,576.62" fill="none" stroke="rgb(0, 0, 255)" stroke-width="4.12" stroke-opacity="1.00" stroke-linejoin="round"/>
<path d="M62.93,514.06 C63.07,514.51 60.80,519.88 60.02,522.40 C58.37,527.87 56.68,540.78 56.82,547.04 C56.95,552.45 58.66,564.77 60.23,570.46" fill="none" stroke="rgb(0, 0, 255)" stroke-width="4.12" stroke-opacity="1.00" stroke-linejoin="round"/>
<path d="M21.90,569.44 C21.90,569.44 20.92,569.41 20.92,569.41 C19.58,570.27 16.52,574.42 14.95,577.34 C12.80,581.43 9.16,593.03 7.60,603.41 C7.22,605.90 7.09,607.34 7.01,609.44" fill="none" stroke="rgb(0, 0, 255)" stroke-width="4.12" stroke-opacity="1.00" stroke-linejoin="round"/>
<path d="M84.24,480.59 C84.24,480.59 84.14,481.39 84.14,481.39 C84.14,481.39 83.71,479.82 83.71,479.82 C82.26,479.67 81.23,479.87 80.41,480.78 C78.41,483.07 76.31,488.31 75.70,491.10 C74.43,497.00 74.50,508.35 75.67,515.33 C76.19,518.37 77.42,523.18 78.98,526.59" fill="none" stroke="rgb(0, 0, 255)" stroke-width="4.12" stroke-opacity="1.00" stroke-linejoin="round"/>
<path d="M92.92,529.94 C92.92,529.94 91.85,530.01 91.85,530.01 C89.97,532.52 87.83,545.39 87.85,552.35 C87.89,560.22 89.79,573.18 91.39,580.09 C92.26,583.80 94.16,590.04 95.01,592.76" fill="none" stroke="rgb(0, 0, 255)" stroke-width="4.12" stroke-opacity="1.00" stroke-linejoin="round"/>
<path d="M96.52,459.28 C96.52,459.28 96.56,459.35 96.56,459.35 C96.56,459.35 96.60,458.15 96.60,458.15 C96.60,458.15 96.17,458.25 96.17,458.25 C94.79,459.99 92.69,464.90 91.85,468.31 C90.59,473.54 90.05,484.81 90.43,491.85 C91.26,505.07 96.92,525.58 99.39,531.05" fill="none" stroke="rgb(0, 0, 255)" stroke-width="4.12" stroke-opacity="1.00" stroke-linejoin="round"/>
<path d="M141.51,525.69 C141.51,525.69 140.80,524.29 140.80,524.29 C140.41,524.02 138.97,524.61 137.95,525.67 C135.63,528.15 133.13,543.63 132.83,549.79 C132.55,555.87 133.15,570.53 134.47,579.36 C135.78,588.03 138.07,594.98 139.25,597.60" fill="none" stroke="rgb(0, 0, 255)" stroke-width="4.12" stroke-opacity="1.00" stroke-linejoin="round"/>
<path d="M133.89,460.34 C133.89,460.34 134.72,457.62 134.72,457.62 C134.57,457.51 132.15,461.52 130.16,481.07 C129.44,488.19 129.00,499.76 128.96,511.39 C129.05,521.67 129.50,525.66 129.98,527.79" fill="none" stroke="rgb(0, 0, 255)" stroke-width="4.12" stroke-opacity="1.00" stroke-linejoin="round"/>
<path d="M157.27,469.84 C157.27,469.84 157.30,469.45 157.30,469.45 C157.45,469.78 157.50,470.30 157.43,471.68 C156.72,487.61 157.97,506.27 159.04,514.07 C159.90,519.98 161.25,528.27 161.42,529.29" fill="none" stroke="rgb(0, 0, 255)" stroke-width="4.12" stroke-opacity="1.00" stroke-linejoin="round"/>
<path d="M170.56,482.60 C170.56,482.60 168.91,481.92 168.91,481.92 C166.76,483.91 165.18,486.93 163.59,490.31 C158.81,500.79 153.84,513.77 152.33,519.03 C150.16,526.70 148.89,536.46 148.81,539.90" fill="none" stroke="rgb(0, 0, 255)" stroke-width="4.12" stroke-opacity="1.00" stroke-linejoin="round"/>
<path d="M148.59,564.60 C148.59,564.60 146.15,563.16 146.15,563.16 C144.19,563.72 141.30,567.07 140.14,569.47 C138.14,573.76 137.26,581.93 137.42,584.00" fill="none" stroke="rgb(0, 0, 255)" stroke-width="4.12" stroke-opacity="1.00" stroke-linejoin="round"/>
<path d="M205.15,481.83 C205.15,481.83 206.25,480.50 206.25,480.50 C205.93,480.28 204.36,481.23 203.17,482.52 C200.71,485.22 195.75,497.87 194.34,503.87 C192.91,510.01 190.90,521.94 190.34,529.01 C189.76,537.23 189.94,544.90 190.91,554.00 C191.29,557.39 192.17,560.38 192.54,561.21" fill="none" stroke="rgb(0, 0, 255)" stroke-width="4.12" stroke-opacity="1.00" stroke-linejoin="round"/>
<path d="M173.80,566.90 C173.80,566.90 172.93,566.79 172.93,566.79 C172.26,567.08 171.74,571.65 171.55,577.78 C171.47,581.68 171.78,588.49 172.08,591.18 C172.29,593.05 172.75,596.27 173.06,598.23" fill="none" stroke="rgb(0, 0, 255)" stroke-width="4.12" stroke-opacity="1.00" stroke-linejoin="round"/>
<path d="M217.79,455.62 C217.79,455.62 217.62,454.41 217.62,454.41 C216.49,458.29 215.11,468.85 214.68,478.17 C214.30,489.38 214.48,497.87 215.21,503.59 C216.24,511.42 217.73,515.16 218.93,517.80" fill="none" stroke="rgb(0, 0, 255)" stroke-width="4.12" stroke-opacity="1.00" stroke-linejoin="round"/>
<path d="M226.64,461.17 C226.64,461.17 226.54,460.18 226.54,460.18 C218.39,473.99 206.40,498.41 203.38,508.82 C201.54,515.24 199.90,526.15 200.00,531.93 C200.14,538.19 201.76,546.54 203.19,550.70" fill="none" stroke="rgb(0, 0, 255)" stroke-width="4.12" stroke-opacity="1.00" stroke-linejoin="round"/>
<path d="M234.32,501.90 C234.32,501.90 231.38,501.51 231.38,501.51 C230.12,502.91 228.00,507.71 227.06,511.09 C225.78,515.76 224.15,530.66 223.96,538.38 C223.93,547.47 224.46,560.05 225.30,567.52 C226.62,577.94 227.54,582.68 227.83,583.98" fill="none" stroke="rgb(0, 0, 255)" stroke-width="4.12" stroke-opacity="1.00" stroke-linejoin="round"/>
<path d="M267.32,498.54 C267.32,498.54 266.60,496.78 266.60,496.78 C265.22,496.66 263.23,498.77 262.05,501.34 C259.48,507.13 255.93,521.33 254.75,530.17 C254.28,533.80 253.23,549.39 253.34,555.20 C253.52,563.71 254.20,571.91 254.52,574.02" fill="none" stroke="rgb(0, 0, 255)" stroke-width="4.12" stroke-opacity="1.00" stroke-linejoin="round"/>
<path d="M288.75,442.57 C288.75,442.57 289.90,440.37 289.90,440.37 C289.90,440.37 289.50,439.99 289.50,439.99 C288.28,440.16 284.88,443.02 282.29,446.37 C275.95,454.90 270.83,463.20 267.41,469.65 C264.55,475.09 258.59,490.24 256.60,497.51 C254.53,505.17 252.53,517.72 252.13,523.41 C251.71,529.69 252.28,544.27 252.60,551.14" fill="none" stroke="rgb(0, 0, 255)" stroke-width="4.12" stroke-opacity="1.00" stroke-linejoin="round"/>
<path d="M245.54,565.07 C245.54,565.07 244.90,564.51 244.90,564.51 C244.18,567.47 244.04,574.24 243.94,578.24 C243.70,597.74 245.11,608.84 245.32,610.30" fill="none" stroke="rgb(0, 0, 255)" stroke-width="4.12" stroke-opacity="1.00" stroke-linejoin="round"/>
<path d="M323.35,448.95 C323.35,448.95 322.87,448.37 322.87,448.37 C321.65,448.44 318.56,450.26 316.16,452.23 C310.09,457.31 303.07,464.99 298.55,470.94 C294.23,476.75 287.26,487.60 283.95,493.47 C277.60,504.78 271.32,521.34 266.37,537.02 C265.91,538.46 265.77,538.99 265.69,539.43" fill="none" stroke="rgb(0, 0, 255)" stroke-width="4.12" stroke-opacity="1.00" stroke-linejoin="round"/>
<path d="M285.21,515.72 C285.21,515.72 285.00,515.76 285.00,515.76 C284.66,516.24 284.19,521.10 283.77,524.37 C282.70,532.87 281.71,544.84 281.35,551.27 C281.06,558.42 281.35,573.34 281.59,581.09" fill="none" stroke="rgb(0, 0, 255)" stroke-width="4.12" stroke-opacity="1.00" stroke-linejoin="round"/>
<path d="M332.44,428.05 C332.44,428.05 332.20,427.39 332.20,427.39 C332.20,427.39 331.52,427.04 331.52,427.04 C330.46,427.53 328.39,431.61 326.21,436.99 C323.52,444.12 319.51,457.55 317.30,465.17 C315.06,473.36 311.72,486.05 310.62,490.56" fill="none" stroke="rgb(0, 0, 255)" stroke-width="4.12" stroke-opacity="1.00" stroke-linejoin="round"/>
<path d="M295.01,436.25 C295.01,436.25 294.15,435.96 294.15,435.96 C293.79,436.72 291.95,486.20 292.45,493.68 C292.94,500.97 294.72,511.85 295.53,514.60" fill="none" stroke="rgb(0, 0, 255)" stroke-width="4.12" stroke-opacity="1.00" stroke-linejoin="round"/>
<path d="M335.33,455.09 C335.06,455.07 334.29,455.33 333.78,455.99 C331.39,459.20 325.72,474.59 324.19,479.83 C322.40,486.03 320.35,500.09 321.22,502.55" fill="none" stroke="rgb(0, 0, 255)" stroke-width="4.12" stroke-opacity="1.00" stroke-linejoin="round"/>
<path d="M348.91,354.25 C348.91,354.25 349.03,353.09 349.03,353.09 C346.10,356.47 341.28,364.60 338.00,373.36 C334.64,382.80 332.52,393.07 331.40,402.26 C330.97,405.96 330.82,412.16 331.06,415.37 C331.84,424.79 334.98,429.40 335.14,429.32" fill="none" stroke="rgb(0, 0, 255)" stroke-width="4.12" stroke-opacity="1.00" stroke-linejoin="round"/>
<path d="M344.13,309.80 C344.13,309.80 344.07,309.42 344.07,309.42 C344.07,309.42 343.56,308.99 343.56,308.99 C342.61,309.34 340.88,313.10 339.25,317.31 C336.80,323.73 333.79,336.71 332.79,344.03 C330.78,359.89 331.25,372.40 331.29,373.26" fill="none" stroke="rgb(0, 0, 255)" stroke-width="4.12" stroke-opacity="1.00" stroke-linejoin="round"/>
<path d="M304.51,359.68 C304.51,359.68 301.99,358.57 301.99,358.57 C300.25,359.69 297.57,364.67 296.05,368.54 C294.16,373.46 290.68,387.85 289.64,396.39 C287.84,411.38 289.82,423.93 290.14,425.58" fill="none" stroke="rgb(0, 0, 255)" stroke-width="4.12" stroke-opacity="1.00" stroke-linejoin="round"/>
<path d="M260.71,367.59 C259.35,367.64 257.87,369.14 256.66,371.86 C254.44,377.03 251.86,387.47 250.56,396.10 C249.42,404.17 248.92,415.73 248.90,418.77 C248.90,420.15 248.95,421.28 249.04,422.32" fill="none" stroke="rgb(0, 0, 255)" stroke-width="4.12" stroke-opacity="1.00" stroke-linejoin="round"/>
<path d="M251.68,322.73 C251.68,322.73 252.40,319.60 252.40,319.60 C252.09,319.36 248.77,321.15 245.92,326.99 C242.65,333.90 238.59,346.99 237.56,353.86 C236.09,363.99 236.04,370.99 236.13,372.54" fill="none" stroke="rgb(0, 0, 255)" stroke-width="4.12" stroke-opacity="1.00" stroke-linejoin="round"/>
<path d="M215.72,378.87 C215.72,378.87 214.34,377.93 214.34,377.93 C213.04,378.22 211.35,381.94 210.67,385.32 C209.32,392.24 208.74,406.59 209.27,412.31 C209.66,416.31 211.00,423.18 211.68,425.34 C212.32,427.34 213.25,429.52 214.04,430.98" fill="none" stroke="rgb(0, 0, 255)" stroke-width="4.12" stroke-opacity="1.00" stroke-linejoin="round"/>
<path d="M211.35,368.60 C211.35,368.60 211.75,365.13 211.75,365.13 C210.07,365.54 205.32,379.36 203.54,387.38 C202.06,394.53 200.30,407.26 199.95,413.45 C199.08,429.81 201.30,439.64 202.10,442.71" fill="none" stroke="rgb(0, 0, 255)" stroke-width="4.12" stroke-opacity="1.00" stroke-linejoin="round"/>
<path d="M154.56,415.29 C153.79,414.20 152.30,413.47 150.53,413.59 C148.68,413.72 143.77,416.95 142.19,418.80 C140.47,420.91 138.22,425.34 137.44,428.22 C136.72,430.97 136.22,436.23 136.59,438.10" fill="none" stroke="rgb(0, 0, 255)" stroke-width="4.12" stroke-opacity="1.00" stroke-linejoin="round"/>
<path d="M161.29,338.02 C160.81,337.52 159.65,337.02 158.79,337.23 C156.92,337.72 154.24,342.36 152.22,347.03 C150.50,351.24 146.42,368.43 145.80,371.80 C145.10,375.68 144.62,380.26 144.51,381.24" fill="none" stroke="rgb(0, 0, 255)" stroke-width="4.12" stroke-opacity="1.00" stroke-linejoin="round"/>
<path d="M91.56,343.21 C91.56,343.21 90.94,342.73 90.94,342.73 C90.57,344.02 90.36,344.86 89.89,346.95 C88.58,352.85 86.59,369.67 86.73,375.32 C86.95,383.69 88.38,389.88 88.88,391.47" fill="none" stroke="rgb(0, 0, 255)" stroke-width="4.12" stroke-opacity="1.00" stroke-linejoin="round"/>
<path d="M96.94,288.13 C96.94,288.13 95.42,285.93 95.42,285.93 C93.83,287.44 92.97,289.07 92.58,291.56 C91.80,296.73 93.25,309.30 94.92,315.92 C98.12,328.47 104.95,342.12 105.79,343.63" fill="none" stroke="rgb(0, 0, 255)" stroke-width="4.12" stroke-opacity="1.00" stroke-linejoin="round"/>
<path d="M99.48,240.84 C99.48,240.84 97.90,240.52 97.90,240.52 C97.17,241.19 96.53,246.40 96.61,249.41 C96.84,256.58 99.83,270.10 102.07,275.87 C105.09,283.59 107.64,287.47 108.27,288.33" fill="none" stroke="rgb(0, 0, 255)" stroke-width="4.12" stroke-opacity="1.00" stroke-linejoin="round"/>
<path d="M162.35,261.56 C158.58,261.34 155.24,262.01 153.97,263.67 C152.57,265.61 151.59,270.53 151.61,273.34 C151.68,278.43 154.16,291.70 156.28,298.16 C159.71,308.27 161.93,312.50 162.82,314.03" fill="none" stroke="rgb(0, 0, 255)" stroke-width="4.12" stroke-opacity="1.00" stroke-linejoin="round"/>
<path d="M153.67,207.37 C153.67,207.37 153.35,207.18 153.35,207.18 C152.40,206.91 149.45,212.35 148.23,216.09 C147.03,219.88 145.58,232.73 145.85,239.79 C145.98,242.79 146.66,246.69 146.96,248.10" fill="none" stroke="rgb(0, 0, 255)" stroke-width="4.12" stroke-opacity="1.00" stroke-linejoin="round"/>
<path d="M162.23,155.00 C162.23,155.00 161.30,155.22 161.30,155.22 C160.76,157.64 160.52,164.23 160.37,168.14 C159.91,179.11 159.39,185.39 159.30,186.51" fill="none" stroke="rgb(0, 0, 255)" stroke-width="4.12" stroke-opacity="1.00" stroke-linejoin="round"/>
<path d="M199.19,119.29 C199.19,119.29 199.25,118.95 199.25,118.95 C199.25,118.95 198.72,118.87 198.72,118.87 C197.12,119.86 195.01,125.11 194.17,128.36 C192.79,133.78 191.04,149.15 190.98,153.12 C190.95,155.20 191.11,161.87 191.14,163.14" fill="none" stroke="rgb(0, 0, 255)" stroke-width="4.12" stroke-opacity="1.00" stroke-linejoin="round"/>
<path d="M214.60,130.56 C214.60,130.56 211.39,128.36 211.39,128.36 C209.82,128.84 207.80,132.46 207.13,135.64 C206.04,141.19 205.82,153.38 206.54,160.67 C207.03,165.20 207.72,169.60 208.70,174.71" fill="none" stroke="rgb(0, 0, 255)" stroke-width="4.12" stroke-opacity="1.00" stroke-linejoin="round"/>
<path d="M230.84,169.82 C230.84,169.82 230.28,168.21 230.28,168.21 C228.66,168.99 223.89,182.95 223.24,188.42 C222.49,195.17 223.85,202.13 224.18,203.65" fill="none" stroke="rgb(0, 0, 255)" stroke-width="4.12" stroke-opacity="1.00" stroke-linejoin="round"/>
<path d="M238.98,200.05 C238.98,200.05 236.92,198.60 236.92,198.60 C235.23,198.76 232.58,202.03 231.13,204.73 C228.70,209.37 225.32,223.07 224.96,230.07 C224.72,235.34 226.06,246.74 226.59,248.90" fill="none" stroke="rgb(0, 0, 255)" stroke-width="4.12" stroke-opacity="1.00" stroke-linejoin="round"/>
<path d="M209.29,251.88 C209.29,251.88 208.89,251.95 208.89,251.95 C208.49,252.79 207.78,259.00 207.37,262.62 C206.58,270.74 206.89,282.59 207.22,285.54 C207.38,286.84 207.78,288.50 208.45,290.91" fill="none" stroke="rgb(0, 0, 255)" stroke-width="4.12" stroke-opacity="1.00" stroke-linejoin="round"/>
<path d="M202.08,293.44 C202.08,293.44 200.40,293.02 200.40,293.02 C199.17,293.46 196.82,297.71 195.86,300.68 C194.91,303.72 193.85,310.26 193.67,313.78 C193.43,319.60 195.10,323.95 195.99,325.48" fill="none" stroke="rgb(0, 0, 255)" stroke-width="4.12" stroke-opacity="1.00" stroke-linejoin="round"/>
<path d="M238.69,136.41 C238.69,136.41 238.78,133.52 238.78,133.52 C238.78,133.52 237.55,132.49 237.55,132.49 C236.51,132.42 235.18,133.00 234.41,134.30 C232.97,136.76 231.82,142.55 231.74,145.23 C231.63,150.21 233.29,157.88 234.48,161.30" fill="none" stroke="rgb(0, 0, 255)" stroke-width="4.12" stroke-opacity="1.00" stroke-linejoin="round"/>
<path d="M271.93,210.79 C271.93,210.79 271.26,209.95 271.26,209.95 C269.64,210.36 268.35,211.44 267.26,213.51 C265.13,217.60 261.97,229.93 261.34,235.51 C260.63,242.11 260.83,254.76 261.68,260.49 C263.26,270.34 264.20,274.45 264.48,275.49" fill="none" stroke="rgb(0, 0, 255)" stroke-width="4.12" stroke-opacity="1.00" stroke-linejoin="round"/>
<path d="M254.86,250.76 C253.11,249.94 251.01,250.14 250.02,251.40 C248.85,252.96 246.89,258.09 246.33,261.64 C245.84,264.96 245.74,271.45 246.03,275.14 C246.28,278.12 246.80,280.73 247.39,283.38" fill="none" stroke="rgb(0, 0, 255)" stroke-width="4.12" stroke-opacity="1.00" stroke-linejoin="round"/>
<path d="M272.16,123.89 C272.12,123.74 272.08,123.63 272.05,123.55 C272.01,123.47 271.92,123.30 271.78,123.06 C270.65,123.33 269.57,123.87 268.92,124.88 C266.38,128.85 262.58,143.80 262.19,150.68 C261.86,157.14 262.71,164.57 263.34,167.45" fill="none" stroke="rgb(0, 0, 255)" stroke-width="4.12" stroke-opacity="1.00" stroke-linejoin="round"/>
<path d="M292.59,140.36 C292.59,140.36 292.41,139.54 292.41,139.54 C292.41,139.54 291.50,138.88 291.50,138.88 C290.53,138.85 289.54,139.07 288.95,139.72 C287.72,141.11 285.52,146.24 284.82,148.91 C283.12,155.51 282.68,168.51 283.28,176.46 C283.31,176.88 283.38,177.69 283.50,178.89" fill="none" stroke="rgb(0, 0, 255)" stroke-width="4.12" stroke-opacity="1.00" stroke-linejoin="round"/>
<path d="M286.69,181.39 C286.22,181.42 285.31,182.00 284.79,182.76 C284.17,183.68 283.25,188.48 283.02,191.84 C282.59,198.60 284.69,208.51 287.93,219.71 C288.91,223.13 290.10,227.32 290.37,228.42" fill="none" stroke="rgb(0, 0, 255)" stroke-width="4.12" stroke-opacity="1.00" stroke-linejoin="round"/>
<path d="M299.26,238.13 C299.26,238.13 295.55,235.49 295.55,235.49 C294.33,236.86 293.15,242.34 292.96,245.28 C292.64,250.98 294.08,262.19 296.31,268.19 C296.69,269.22 297.49,270.99 297.99,272.04" fill="none" stroke="rgb(0, 0, 255)" stroke-width="4.12" stroke-opacity="1.00" stroke-linejoin="round"/>
<path d="M302.80,276.62 C301.64,276.53 299.89,277.69 298.65,279.75 C297.32,282.00 295.89,288.73 295.76,290.68 C295.61,293.25 296.19,297.90 297.16,300.65 C298.04,303.10 299.91,304.97 300.06,304.92" fill="none" stroke="rgb(0, 0, 255)" stroke-width="4.12" stroke-opacity="1.00" stroke-linejoin="round"/>
<path d="M316.74,136.82 C316.74,136.82 316.56,136.26 316.56,136.26 C315.45,136.34 314.41,136.52 313.82,136.97 C312.25,138.18 309.52,143.53 308.66,146.37 C307.15,151.46 306.24,166.96 306.77,174.26 C307.23,180.05 307.90,185.28 308.67,189.43" fill="none" stroke="rgb(0, 0, 255)" stroke-width="4.12" stroke-opacity="1.00" stroke-linejoin="round"/>
<path d="M348.73,130.09 C348.73,130.09 345.25,128.91 345.25,128.91 C343.90,130.48 342.54,135.32 341.70,139.59 C339.51,151.04 340.14,176.34 341.26,183.00 C342.17,188.20 344.17,194.15 345.13,195.26" fill="none" stroke="rgb(0, 0, 255)" stroke-width="4.12" stroke-opacity="1.00" stroke-linejoin="round"/>
<path d="M328.01,140.95 C328.01,140.95 328.01,140.34 328.01,140.34 C328.01,148.61 329.02,158.84 330.51,165.61 C331.50,170.03 332.95,174.72 333.89,177.51" fill="none" stroke="rgb(0, 0, 255)" stroke-width="4.12" stroke-opacity="1.00" stroke-linejoin="round"/>
<path d="M343.78,203.94 C343.78,203.94 340.39,198.40 340.39,198.40 C338.89,199.70 338.19,200.63 337.91,201.95 C336.62,208.03 335.91,220.32 336.86,227.14 C337.37,230.71 338.58,235.14 340.12,238.63 C341.02,240.63 341.62,241.65 342.21,242.26" fill="none" stroke="rgb(0, 0, 255)" stroke-width="4.12" stroke-opacity="1.00" stroke-linejoin="round"/>
<path d="M330.96,233.58 C329.89,235.03 329.26,236.24 328.94,237.84 C327.70,244.20 327.47,259.29 328.85,265.52 C330.44,272.58 333.21,277.42 334.86,279.72" fill="none" stroke="rgb(0, 0, 255)" stroke-width="4.12" stroke-opacity="1.00" stroke-linejoin="round"/>
<path d="M373.65,199.87 C373.65,199.87 371.03,198.50 371.03,198.50 C369.52,199.77 368.78,200.67 368.44,201.90 C367.69,204.69 366.83,211.31 366.90,214.60 C366.99,217.97 367.46,224.20 368.26,227.48 C370.19,235.28 373.57,242.11 374.83,243.89" fill="none" stroke="rgb(0, 0, 255)" stroke-width="4.12" stroke-opacity="1.00" stroke-linejoin="round"/>
<path d="M380.56,258.67 C380.56,258.67 380.42,257.87 380.42,257.87 C380.42,257.87 380.16,257.86 380.16,257.86 C379.14,260.47 378.06,264.63 377.75,268.16 C377.02,277.45 377.67,289.30 379.69,296.58 C380.87,300.77 382.93,304.15 383.20,304.28" fill="none" stroke="rgb(0, 0, 255)" stroke-width="4.12" stroke-opacity="1.00" stroke-linejoin="round"/>
<path d="M399.45,227.38 C399.45,227.38 399.33,226.30 399.33,226.30 C398.52,227.49 397.82,243.23 398.11,249.12 C398.83,263.18 403.50,276.16 404.74,277.74" fill="none" stroke="rgb(0, 0, 255)" stroke-width="4.12" stroke-opacity="1.00" stroke-linejoin="round"/>
<path d="M405.41,121.59 C405.41,121.59 405.43,120.63 405.43,120.63 C404.76,123.57 403.27,129.97 402.46,133.44 C399.79,145.05 397.41,157.74 396.69,164.86 C395.12,181.03 397.88,191.66 398.33,192.92" fill="none" stroke="rgb(0, 0, 255)" stroke-width="4.12" stroke-opacity="1.00" stroke-linejoin="round"/>
<path d="M421.29,138.12 C421.29,138.12 420.72,135.02 420.72,135.02 C419.69,135.85 419.04,137.10 418.53,139.50 C416.93,147.12 415.47,162.43 415.37,168.29 C415.16,181.35 417.38,198.30 417.89,201.20" fill="none" stroke="rgb(0, 0, 255)" stroke-width="4.12" stroke-opacity="1.00" stroke-linejoin="round"/>
<path d="M447.45,205.36 C447.19,205.31 446.73,205.12 446.49,204.87 C446.23,204.60 445.55,203.87 445.01,203.85 C443.86,204.47 442.44,208.71 442.13,211.80 C441.03,224.02 444.81,236.79 445.39,238.58" fill="none" stroke="rgb(0, 0, 255)" stroke-width="4.12" stroke-opacity="1.00" stroke-linejoin="round"/>
<path d="M459.73,165.27 C458.57,165.33 456.80,166.70 455.49,170.36 C452.81,178.07 453.01,199.03 453.85,208.73 C454.19,212.18 454.99,216.74 455.87,219.64" fill="none" stroke="rgb(0, 0, 255)" stroke-width="4.12" stroke-opacity="1.00" stroke-linejoin="round"/>
<path d="M472.24,148.98 C472.24,148.98 471.32,149.06 471.32,149.06 C471.01,152.63 468.70,170.19 468.81,174.46 C469.07,182.82 470.44,187.11 470.76,187.41" fill="none" stroke="rgb(0, 0, 255)" stroke-width="4.12" stroke-opacity="1.00" stroke-linejoin="round"/>
<path d="M491.02,116.57 C490.36,115.17 489.04,114.21 488.23,114.47 C487.22,114.90 485.10,119.95 484.10,124.12 C483.06,128.62 481.77,142.27 481.66,152.30 C481.66,156.36 481.62,167.85 481.50,170.01 C481.07,176.42 480.42,186.65 480.40,187.65" fill="none" stroke="rgb(0, 0, 255)" stroke-width="4.12" stroke-opacity="1.00" stroke-linejoin="round"/>
<path d="M476.14,265.11 C476.14,265.11 473.50,266.19 473.50,266.19 C472.18,268.97 472.05,284.26 473.25,294.61 C473.74,298.66 474.58,303.53 474.89,305.10" fill="none" stroke="rgb(0, 0, 255)" stroke-width="4.12" stroke-opacity="1.00" stroke-linejoin="round"/>
<path d="M424.66,322.25 C424.66,322.25 424.31,319.84 424.31,319.84 C423.45,319.59 422.05,319.50 421.16,319.94 C419.13,320.98 415.08,326.06 413.79,328.38 C410.81,333.83 407.27,347.10 406.72,353.56 C406.23,359.50 406.77,370.72 408.32,377.23 C409.91,383.75 412.37,388.03 412.89,388.62" fill="none" stroke="rgb(0, 0, 255)" stroke-width="4.12" stroke-opacity="1.00" stroke-linejoin="round"/>
<path d="M391.24,357.97 C390.35,357.98 389.48,358.10 389.15,358.71 C388.45,360.03 383.70,382.06 382.87,387.86 C381.85,395.09 381.51,410.91 382.68,417.26 C383.31,420.65 384.15,423.09 384.46,423.82" fill="none" stroke="rgb(0, 0, 255)" stroke-width="4.12" stroke-opacity="1.00" stroke-linejoin="round"/>
<path d="M453.53,347.46 C454.24,345.55 454.77,344.35 455.65,342.62 C455.77,342.38 455.87,342.19 455.94,342.03 C455.94,342.03 455.50,341.95 455.50,341.95 C452.73,343.75 444.86,355.39 441.26,362.60 C438.58,368.01 433.36,381.84 431.98,387.57 C430.30,394.66 429.74,405.15 430.64,407.98" fill="none" stroke="rgb(0, 0, 255)" stroke-width="4.12" stroke-opacity="1.00" stroke-linejoin="round"/>
<path d="M464.86,350.47 C464.86,350.47 464.62,349.51 464.62,349.51 C464.23,349.32 459.17,354.54 455.48,370.95 C453.78,378.76 453.15,383.61 452.90,386.45" fill="none" stroke="rgb(0, 0, 255)" stroke-width="4.12" stroke-opacity="1.00" stroke-linejoin="round"/>
<path d="M525.49,288.25 C525.49,288.25 524.98,286.98 524.98,286.98 C524.98,286.98 523.58,286.53 523.58,286.53 C522.13,287.34 518.30,292.53 517.09,294.80 C512.32,303.97 508.08,323.42 507.84,324.51" fill="none" stroke="rgb(0, 0, 255)" stroke-width="4.12" stroke-opacity="1.00" stroke-linejoin="round"/>
<path d="M527.74,326.92 C527.74,326.92 527.37,326.72 527.37,326.72 C526.06,326.77 522.71,330.64 521.33,332.67 C517.44,338.47 511.77,348.70 507.56,357.63 C501.50,370.89 499.59,379.49 499.09,382.11" fill="none" stroke="rgb(0, 0, 255)" stroke-width="4.12" stroke-opacity="1.00" stroke-linejoin="round"/>
<path d="M524.90,128.08 C524.90,127.52 524.90,126.96 524.90,126.39 C524.91,123.03 524.52,122.16 524.02,121.72 C522.86,122.44 521.12,127.55 519.78,132.92 C518.57,138.14 516.60,155.59 516.42,160.01 C516.28,163.81 516.48,169.50 516.80,172.93" fill="none" stroke="rgb(0, 0, 255)" stroke-width="4.12" stroke-opacity="1.00" stroke-linejoin="round"/>
<path d="M531.75,160.14 C531.75,160.14 531.24,159.28 531.24,159.28 C530.21,159.53 529.33,160.62 528.24,163.11 C527.03,165.92 523.49,180.80 522.52,188.73 C521.89,194.20 521.43,198.98 521.29,201.35" fill="none" stroke="rgb(0, 0, 255)" stroke-width="4.12" stroke-opacity="1.00" stroke-linejoin="round"/>
<path d="M519.77,218.23 C518.93,219.19 518.39,219.84 518.17,220.17 C516.70,222.32 511.39,240.01 510.54,247.33 C510.13,250.98 510.13,257.61 510.28,259.85 C510.43,261.99 511.24,265.55 511.45,266.47" fill="none" stroke="rgb(0, 0, 255)" stroke-width="4.12" stroke-opacity="1.00" stroke-linejoin="round"/>
<path d="M492.49,405.26 C492.49,405.26 492.68,402.15 492.68,402.15 C492.07,405.38 490.97,411.40 490.49,415.73 C489.80,423.30 488.56,437.87 488.41,444.62 C488.28,455.84 488.45,462.18 488.69,464.34" fill="none" stroke="rgb(0, 0, 255)" stroke-width="4.12" stroke-opacity="1.00" stroke-linejoin="round"/>
<path d="M524.37,463.82 C524.37,463.82 522.62,462.26 522.62,462.26 C520.89,463.47 518.49,470.07 517.56,472.71 C515.60,478.38 510.80,497.44 509.87,502.02 C508.51,509.22 506.72,519.94 506.30,526.99 C506.14,530.01 506.26,533.94 506.82,535.36" fill="none" stroke="rgb(0, 0, 255)" stroke-width="4.12" stroke-opacity="1.00" stroke-linejoin="round"/>
<path d="M516.05,449.30 C515.88,449.37 515.81,449.61 515.84,450.00 C515.94,451.33 516.49,454.59 516.61,456.82 C516.84,460.89 517.26,468.62 517.45,472.28 C517.73,478.04 517.79,480.65 517.78,482.40 C517.76,484.70 517.55,492.30 517.51,493.76" fill="none" stroke="rgb(0, 0, 255)" stroke-width="4.12" stroke-opacity="1.00" stroke-linejoin="round"/>
<path d="M496.74,606.40 C496.74,606.40 496.86,605.14 496.86,605.14" fill="none" stroke="rgb(0, 0, 255)" stroke-width="4.12" stroke-opacity="1.00" stroke-linejoin="round"/>
<path d="M499.10,599.78 C499.10,599.78 498.58,597.81 498.58,597.81 C498.58,597.81 497.95,597.43 497.95,597.43 C496.77,598.76 494.12,612.77 493.63,620.31 C493.41,624.08 493.57,626.35 493.79,628.52" fill="none" stroke="rgb(0, 0, 255)" stroke-width="4.12" stroke-opacity="1.00" stroke-linejoin="round"/>
</g>
</svg>
