<?xml version="1.0" encoding="UTF-8" standalone="no"?>
<!DOCTYPE svg PUBLIC "-//W3C//DTD SVG 1.1//EN" "http://www.w3.org/Graphics/SVG/1.1/DTD/svg11.dtd">
<svg width="64.20" height="90.84" viewBox="0.00 0.00 535.00 757.00" xmlns="http://www.w3.org/2000/svg" xmlns:xlink="http://www.w3.org/1999/xlink">
<g stroke-linecap="round" id="28">
<path d="M247.12,546.58 C247.12,546.58 247.02,546.48 247.02,546.48 C246.25,548.77 246.51,550.22 247.08,550.52 C248.09,551.05 249.01,552.14 249.31,553.37 C249.44,553.92 249.70,556.11 250.16,556.72 C250.76,557.46 257.89,555.95 262.09,553.68 C263.80,552.74 265.63,550.48 266.09,549.39 C266.92,547.37 266.29,543.70 265.27,542.82 C264.26,541.99 260.81,541.74 258.98,542.73 C256.97,543.88 255.22,548.53 255.63,549.78 C255.63,549.78 255.34,550.16 255.34,550.16" fill="none" stroke="rgb(33, 228, 63)" stroke-width="3.52" stroke-opacity="1.00" stroke-linejoin="round"/>
<path d="M254.49,559.54 C254.49,559.54 254.49,559.43 254.49,559.43 C254.51,559.75 254.21,563.61 254.38,565.77 C254.41,566.16 254.48,566.65 254.60,567.23 C254.60,567.23 254.85,567.07 254.85,567.07" fill="none" stroke="rgb(33, 228, 63)" stroke-width="3.52" stroke-opacity="1.00" stroke-linejoin="round"/>
<path d="M262.50,556.96 C262.45,557.22 262.08,559.14 261.79,560.59 C261.42,562.45 261.33,563.42 261.18,566.55 C261.18,566.68 261.17,567.08 261.14,566.95" fill="none" stroke="rgb(33, 228, 63)" stroke-width="3.52" stroke-opacity="1.00" stroke-linejoin="round"/>
<path d="M252.18,566.39 C252.18,566.39 252.12,566.28 252.12,566.28 C251.91,566.07 249.20,566.68 247.86,567.22 C246.44,567.82 243.53,569.69 242.19,570.75 C240.86,571.84 238.35,575.05 237.48,576.48 C237.40,576.61 233.60,578.09 232.59,580.04 C231.95,581.31 231.12,584.92 231.28,585.44 C231.63,586.22 234.72,585.72 237.65,583.76 C239.64,582.41 247.62,576.08 247.63,576.12" fill="none" stroke="rgb(33, 228, 63)" stroke-width="3.52" stroke-opacity="1.00" stroke-linejoin="round"/>
<path d="M234.69,579.87 C234.70,579.89 234.72,579.92 234.74,579.97 C235.24,581.06 236.39,583.13 237.23,583.87 C237.33,583.96 237.44,584.00 237.55,583.99" fill="none" stroke="rgb(33, 228, 63)" stroke-width="3.52" stroke-opacity="1.00" stroke-linejoin="round"/>
<path d="M248.49,576.92 C248.49,578.21 248.49,579.50 248.49,580.80 C248.50,585.09 248.84,587.35 249.11,587.53 C250.83,588.43 270.56,584.52 270.63,584.49 C270.73,584.44 270.93,584.28 271.25,584.00" fill="none" stroke="rgb(33, 228, 63)" stroke-width="3.52" stroke-opacity="1.00" stroke-linejoin="round"/>
<path d="M269.19,569.49 C268.97,570.40 268.42,576.44 268.52,579.09 C268.56,580.05 268.73,581.82 268.82,582.44 C268.82,582.44 268.55,581.16 268.55,581.16" fill="none" stroke="rgb(33, 228, 63)" stroke-width="3.52" stroke-opacity="1.00" stroke-linejoin="round"/>
<path d="M261.76,562.49 C261.76,562.49 261.52,562.49 261.52,562.49 C263.51,562.36 265.98,562.62 267.60,562.82 C269.33,562.94 272.29,561.86 274.64,560.19 C275.73,559.40 278.35,557.53 279.88,556.45 C279.88,556.45 279.81,556.24 279.81,556.24" fill="none" stroke="rgb(33, 228, 63)" stroke-width="3.52" stroke-opacity="1.00" stroke-linejoin="round"/>
<path d="M283.67,559.22 C283.06,559.63 281.41,561.79 280.05,563.59 C278.09,566.08 271.30,570.55 270.37,570.45 C270.37,570.45 269.78,569.66 269.78,569.66" fill="none" stroke="rgb(33, 228, 63)" stroke-width="3.52" stroke-opacity="1.00" stroke-linejoin="round"/>
<path d="M287.78,556.59 C287.71,557.04 287.07,558.15 286.30,558.31 C285.59,558.44 282.56,557.61 281.55,557.11 C280.43,556.52 279.66,554.84 279.80,553.71 C279.99,552.54 281.88,550.54 283.50,549.95 C285.00,549.44 287.45,550.00 288.31,551.10 C289.44,552.61 289.17,555.58 288.38,556.74 C287.58,557.82 286.58,558.57 285.40,559.30 C285.15,559.45 284.75,559.71 284.20,560.07" fill="none" stroke="rgb(33, 228, 63)" stroke-width="3.52" stroke-opacity="1.00" stroke-linejoin="round"/>
<path d="M250.70,587.66 C250.20,588.77 249.50,593.35 249.60,596.39 C249.84,602.49 251.46,611.14 251.26,611.63 C251.22,611.73 251.18,611.84 251.13,611.96 C251.13,611.96 252.28,610.62 252.28,610.62" fill="none" stroke="rgb(33, 228, 63)" stroke-width="3.52" stroke-opacity="1.00" stroke-linejoin="round"/>
<path d="M261.66,597.25 C261.48,597.43 261.13,598.00 260.95,598.49 C260.65,599.29 259.94,605.29 259.84,607.02 C259.69,609.98 259.80,610.71 259.89,610.97 C259.89,610.97 260.17,609.91 260.17,609.91" fill="none" stroke="rgb(33, 228, 63)" stroke-width="3.52" stroke-opacity="1.00" stroke-linejoin="round"/>
<path d="M269.87,586.29 C270.00,587.04 269.76,589.64 269.14,592.99 C268.29,597.70 267.96,609.15 267.66,610.83 C267.66,610.83 267.29,610.18 267.29,610.18" fill="none" stroke="rgb(33, 228, 63)" stroke-width="3.52" stroke-opacity="1.00" stroke-linejoin="round"/>
<path d="M259.34,611.26 C258.83,611.25 258.31,611.32 257.64,611.52 C255.47,612.17 251.19,613.09 250.54,613.29 C250.45,613.36 250.31,615.70 249.90,616.41 C249.43,617.17 245.92,620.41 245.82,620.51 C245.16,621.18 247.19,622.22 248.97,621.81 C250.17,621.51 252.89,620.13 254.03,619.21 C255.23,618.21 257.09,615.60 258.50,613.10 C258.61,612.89 258.74,612.64 258.89,612.36" fill="none" stroke="rgb(33, 228, 63)" stroke-width="3.52" stroke-opacity="1.00" stroke-linejoin="round"/>
<path d="M262.18,612.63 C262.06,612.82 262.10,616.64 262.37,617.37 C262.68,618.16 264.62,620.21 265.49,620.71 C267.13,621.62 273.36,619.79 274.85,618.62 C275.41,618.17 275.51,617.21 275.34,616.84 C275.05,616.27 273.88,615.89 272.57,616.00 C269.58,616.31 268.08,616.27 267.59,615.70 C267.19,615.16 266.89,612.64 266.79,611.31 C265.63,611.18 264.32,611.31 263.45,611.42 C262.96,611.45 260.99,611.24 260.42,611.17" fill="none" stroke="rgb(33, 228, 63)" stroke-width="3.52" stroke-opacity="1.00" stroke-linejoin="round"/>
<path d="M211.17,537.53 C211.00,534.40 209.86,529.57 209.95,527.65 C210.11,524.34 209.54,512.44 209.99,510.21 C210.31,508.61 212.17,503.26 213.56,500.11 C214.87,497.17 217.64,493.18 220.05,490.62 C227.17,483.12 231.22,477.49 235.70,473.81 C236.89,472.84 243.95,467.62 247.45,465.63 C250.44,463.96 255.98,461.99 259.24,461.38 C262.33,460.83 268.65,460.01 271.23,459.90 C274.10,459.79 280.01,460.73 282.60,461.76 C286.13,463.19 297.87,469.18 303.24,473.14 C305.64,474.94 310.50,479.14 311.96,480.78 C313.84,482.94 316.49,487.51 317.37,489.78 C322.07,502.17 322.64,517.96 322.04,518.74 C321.90,518.91 321.76,519.08 321.61,519.25" fill="none" stroke="rgb(255, 242, 0)" stroke-width="3.52" stroke-opacity="1.00" stroke-linejoin="round"/>
<path d="M211.93,537.02 C210.90,537.24 209.86,537.45 208.82,537.66 C208.45,537.73 208.22,537.78 208.12,537.79 C211.48,536.32 218.28,536.14 220.13,535.94 C225.83,535.27 238.55,531.85 244.03,531.28 C250.71,530.66 263.05,528.61 273.15,528.13 C289.75,527.36 321.80,519.85 323.34,519.67 C323.47,519.65 323.66,519.59 323.90,519.51" fill="none" stroke="rgb(255, 242, 0)" stroke-width="3.52" stroke-opacity="1.00" stroke-linejoin="round"/>
<path d="M280.48,532.20 C280.48,532.20 280.10,532.33 280.10,532.33 C279.64,532.87 279.47,533.60 279.47,535.68 C279.46,540.45 279.95,545.48 279.98,548.17 C279.98,548.17 279.72,547.18 279.72,547.18" fill="none" stroke="rgb(255, 242, 0)" stroke-width="3.52" stroke-opacity="1.00" stroke-linejoin="round"/>
<path d="M285.31,530.93 C285.31,530.93 285.18,530.93 285.18,530.93 C284.78,530.81 284.50,534.07 284.51,539.62 C284.54,544.53 284.97,547.27 285.80,548.68 C285.80,548.68 285.23,549.10 285.23,549.10" fill="none" stroke="rgb(255, 242, 0)" stroke-width="3.52" stroke-opacity="1.00" stroke-linejoin="round"/>
<path d="M319.00,62.43 C319.00,62.43 319.00,61.86 319.00,61.86 C319.00,63.41 319.02,66.51 319.04,68.06 C319.13,74.51 319.26,76.13 319.57,78.87 C319.57,78.87 319.22,78.64 319.22,78.64" fill="none" stroke="rgb(0, 165, 255)" stroke-width="3.52" stroke-opacity="1.00" stroke-linejoin="round"/>
<path d="M284.15,217.81 C283.57,219.71 283.59,224.14 284.30,229.63 C284.49,231.14 285.03,235.33 285.06,236.18 C285.08,236.72 285.05,237.57 284.96,238.76" fill="none" stroke="rgb(0, 165, 255)" stroke-width="3.52" stroke-opacity="1.00" stroke-linejoin="round"/>
<path d="M196.75,190.39 C196.77,193.94 196.86,203.52 196.97,204.99 C197.19,207.57 199.18,216.34 199.26,216.83 C199.33,217.26 199.45,218.18 199.61,219.57" fill="none" stroke="rgb(0, 165, 255)" stroke-width="3.52" stroke-opacity="1.00" stroke-linejoin="round"/>
<path d="M250.45,372.62 C250.22,375.12 250.07,377.31 249.99,379.40 C249.72,387.38 250.58,401.25 251.61,402.96 C251.85,403.34 252.40,403.71 253.26,404.05" fill="none" stroke="rgb(0, 165, 255)" stroke-width="3.52" stroke-opacity="1.00" stroke-linejoin="round"/>
<path d="M320.71,314.92 C318.52,321.87 318.39,326.39 318.43,329.77 C318.43,330.27 318.43,330.78 318.43,331.28" fill="none" stroke="rgb(0, 165, 255)" stroke-width="3.52" stroke-opacity="1.00" stroke-linejoin="round"/>
<path d="M124.20,551.42 C124.32,554.60 125.17,560.87 125.66,564.59 C127.25,575.97 128.97,581.29 130.41,584.72 C130.41,584.72 129.69,583.93 129.69,583.93" fill="none" stroke="rgb(0, 165, 255)" stroke-width="3.52" stroke-opacity="1.00" stroke-linejoin="round"/>
<path d="M78.51,574.84 C78.81,578.74 82.76,592.88 84.67,602.12 C84.77,602.58 84.95,603.28 85.20,604.22 C85.20,604.22 84.94,604.27 84.94,604.27" fill="none" stroke="rgb(0, 165, 255)" stroke-width="3.52" stroke-opacity="1.00" stroke-linejoin="round"/>
<path d="M80.79,261.22 C80.78,262.12 80.99,268.80 81.46,272.16 C81.80,274.53 83.82,283.82 83.90,284.71 C84.02,286.12 83.86,287.85 83.63,288.69 C83.63,288.69 82.19,289.73 82.19,289.73" fill="none" stroke="rgb(0, 165, 255)" stroke-width="3.52" stroke-opacity="1.00" stroke-linejoin="round"/>
<path d="M165.91,281.79 C165.91,281.79 165.05,282.55 165.05,282.55 C164.70,284.84 165.22,294.30 165.40,295.75 C165.63,297.47 166.06,299.28 166.36,300.00 C166.36,300.00 164.43,300.23 164.43,300.23" fill="none" stroke="rgb(0, 165, 255)" stroke-width="3.52" stroke-opacity="1.00" stroke-linejoin="round"/>
<path d="M69.37,120.13 C69.37,122.95 69.33,131.61 69.35,132.09 C69.48,135.16 71.82,149.73 71.42,152.46 C71.34,152.99 71.12,153.76 70.76,154.77" fill="none" stroke="rgb(0, 165, 255)" stroke-width="3.52" stroke-opacity="1.00" stroke-linejoin="round"/>
<path d="M478.38,434.31 C477.69,436.75 476.93,440.54 476.79,444.88 C476.74,446.23 476.48,460.20 476.06,461.27 C476.00,461.40 475.87,461.65 475.67,462.02" fill="none" stroke="rgb(0, 165, 255)" stroke-width="3.52" stroke-opacity="1.00" stroke-linejoin="round"/>
<path d="M449.82,531.99 C448.59,533.84 447.95,537.57 447.38,546.91 C447.25,548.61 447.04,551.44 446.96,552.56 C446.96,552.56 446.41,552.01 446.41,552.01" fill="none" stroke="rgb(0, 165, 255)" stroke-width="3.52" stroke-opacity="1.00" stroke-linejoin="round"/>
<path d="M98.35,491.22 C101.01,492.09 103.51,492.00 105.58,490.90 C108.07,489.53 113.18,484.98 115.76,482.20 C117.91,479.84 126.11,466.73 126.86,464.82 C128.22,461.27 128.49,455.88 127.59,453.04 C126.71,450.45 123.16,444.29 120.58,440.87 C118.11,437.66 112.86,433.94 109.01,432.62 C105.87,431.58 97.92,429.61 95.51,429.29 C93.64,429.07 90.72,429.33 89.22,429.91 C87.86,430.48 85.23,432.46 84.23,433.61 C82.45,435.77 81.70,439.61 82.25,440.41 C82.79,441.09 85.55,440.75 87.24,438.70 C89.02,436.50 89.55,432.52 89.09,431.26 C87.88,428.05 84.97,425.03 80.78,421.35 C77.63,418.66 72.81,415.86 68.78,415.21 C65.01,414.66 58.04,415.67 55.16,416.70 C52.16,417.84 47.10,420.50 43.69,423.51 C42.01,425.01 35.49,432.25 33.88,433.30 C32.92,433.92 26.93,436.56 25.13,438.35 C23.57,439.96 20.82,444.45 19.60,447.30 C17.15,453.09 15.39,465.55 15.22,475.62 C15.17,478.95 15.49,484.04 15.82,485.56 C16.36,487.87 18.11,491.81 19.54,493.22 C20.76,494.38 25.55,496.62 27.50,497.11 C29.58,497.61 33.03,497.71 36.64,497.54 C39.14,497.40 42.24,496.18 44.00,495.48" fill="none" stroke="rgb(16, 90, 27)" stroke-width="3.52" stroke-opacity="1.00" stroke-linejoin="round"/>
<path d="M50.83,454.30 C50.83,454.30 49.77,454.94 49.77,454.94 C48.76,459.66 49.90,485.09 49.99,509.98 C50.16,517.50 51.01,528.35 52.19,536.20 C53.54,544.36 55.85,558.24 56.80,563.97 C56.80,563.97 57.62,564.62 57.62,564.62" fill="none" stroke="rgb(16, 90, 27)" stroke-width="3.52" stroke-opacity="1.00" stroke-linejoin="round"/>
<path d="M90.71,472.97 C90.71,472.97 90.29,472.97 90.29,472.97 C90.35,482.45 90.74,491.26 90.16,496.89 C89.02,507.95 88.64,514.61 88.58,524.68 C88.62,529.04 89.29,551.91 89.04,555.24 C89.04,555.24 89.01,553.59 89.01,553.59" fill="none" stroke="rgb(16, 90, 27)" stroke-width="3.52" stroke-opacity="1.00" stroke-linejoin="round"/>
<path d="M54.72,335.16 C54.72,335.16 54.06,335.16 54.06,335.16 C53.50,335.65 53.30,336.22 53.34,337.55 C53.60,346.31 54.12,352.73 55.60,362.93 C57.05,371.95 61.26,393.38 62.16,396.55 C62.16,396.55 63.68,396.92 63.68,396.92" fill="none" stroke="rgb(16, 90, 27)" stroke-width="3.52" stroke-opacity="1.00" stroke-linejoin="round"/>
<path d="M100.72,320.70 C100.72,320.70 100.07,321.36 100.07,321.36 C100.07,322.93 100.07,325.39 100.12,326.97 C100.30,333.03 97.50,375.94 98.49,385.24 C98.56,385.88 99.71,393.86 99.95,396.23 C99.98,396.52 100.02,396.98 100.07,397.60" fill="none" stroke="rgb(16, 90, 27)" stroke-width="3.52" stroke-opacity="1.00" stroke-linejoin="round"/>
<path d="M55.37,366.05 C54.21,365.97 53.32,366.12 51.41,366.78 C48.80,367.68 41.07,369.42 39.92,369.14 C39.81,369.11 34.05,366.58 32.09,365.51 C29.79,364.23 26.99,361.78 25.49,359.30 C23.36,355.69 20.20,349.27 19.66,345.98 C19.13,342.40 19.71,336.53 20.49,333.17 C21.84,327.57 26.06,317.51 28.22,314.69 C30.58,311.69 33.56,309.89 37.70,308.23 C39.07,307.76 41.36,307.93 42.01,308.94 C42.80,310.19 42.70,313.04 42.19,313.82 C41.38,313.95 40.60,313.16 40.16,311.31 C39.50,308.49 39.94,303.51 40.56,301.45 C41.11,299.68 43.58,294.64 45.28,293.03 C47.65,290.85 53.44,290.09 57.34,290.33 C60.31,290.55 63.08,291.79 67.24,294.40 C70.48,296.51 78.93,302.08 79.88,302.79 C84.94,306.65 86.55,310.80 86.89,312.35 C85.69,312.71 83.14,313.52 82.54,313.51 C81.23,313.47 79.14,311.99 78.75,310.76 C78.41,309.51 78.94,305.96 79.74,304.31 C81.11,301.57 85.40,297.78 87.08,296.73 C90.86,294.39 100.15,291.11 105.50,290.39 C109.76,289.84 114.68,289.90 118.37,290.53 C121.39,291.08 124.39,292.23 126.36,293.69 C128.10,295.01 131.34,298.21 132.55,299.89 C133.80,301.65 135.70,305.83 136.32,307.82 C137.40,311.41 136.89,321.13 135.32,326.16 C134.45,328.89 132.25,333.98 130.64,336.93 C128.71,340.42 126.23,343.82 123.39,346.77 C112.26,358.21 101.93,363.00 99.25,364.13 C99.25,364.13 96.78,363.42 96.78,363.42" fill="none" stroke="rgb(16, 90, 27)" stroke-width="3.52" stroke-opacity="1.00" stroke-linejoin="round"/>
<path d="M31.05,185.96 C31.05,185.96 31.38,186.95 31.38,186.95 C31.38,186.95 33.52,183.33 33.52,183.33 C33.52,183.33 33.68,183.33 33.68,183.33 C33.68,183.33 33.68,183.33 33.68,183.33 C33.68,183.33 33.77,197.77 35.34,209.66 C37.65,225.62 42.29,251.80 45.15,263.83 C45.75,266.27 47.68,269.63 48.62,271.17" fill="none" stroke="rgb(16, 90, 27)" stroke-width="3.52" stroke-opacity="1.00" stroke-linejoin="round"/>
<path d="M92.84,169.53 C92.84,169.53 92.84,168.87 92.84,168.87 C93.53,178.73 93.49,218.35 93.75,224.09 C94.19,233.47 94.75,236.93 94.73,237.10 C94.69,237.38 94.51,238.25 94.19,239.73" fill="none" stroke="rgb(16, 90, 27)" stroke-width="3.52" stroke-opacity="1.00" stroke-linejoin="round"/>
<path d="M29.08,207.65 C29.08,207.65 29.08,207.32 29.08,207.32 C28.74,206.71 24.33,205.09 22.49,203.66 C21.83,203.15 16.49,198.49 15.06,196.59 C13.44,194.40 11.00,188.39 10.03,184.97 C8.48,179.29 7.85,167.32 8.83,161.78 C9.87,156.15 16.04,144.32 19.35,140.18 C31.13,125.61 40.11,121.90 40.46,122.14 C41.22,123.12 41.67,124.30 41.63,125.72 C41.58,127.23 41.08,128.66 40.31,129.85 C37.81,128.72 36.62,127.19 36.20,124.27 C35.75,121.04 35.90,116.76 36.78,113.90 C37.63,111.28 40.37,106.55 42.33,104.24 C44.34,101.90 48.79,98.07 51.55,96.33 C54.35,94.59 59.67,92.25 62.82,91.32 C65.72,90.48 71.03,89.61 73.09,89.74 C75.21,89.90 79.17,91.35 81.46,92.61 C84.48,94.32 94.47,104.22 96.50,108.34 C97.38,110.24 98.07,113.47 97.86,115.27 C97.63,116.96 96.15,119.28 94.63,120.42 C91.39,122.72 88.37,122.65 86.75,122.11 C86.20,120.62 85.89,118.89 86.07,117.39 C86.31,115.70 87.80,113.06 89.25,111.98 C91.27,110.53 100.06,108.60 101.76,108.46 C105.87,108.16 118.74,110.90 123.61,112.50 C126.09,113.34 132.83,117.43 134.76,119.72 C136.97,122.44 139.11,128.95 139.27,133.17 C139.38,136.87 138.49,141.73 137.61,144.69 C135.34,152.18 130.34,162.78 126.31,168.35 C122.44,173.66 114.28,181.35 108.48,185.44 C104.01,188.57 96.16,193.04 93.53,193.89 C92.86,194.10 92.19,194.30 91.52,194.51" fill="none" stroke="rgb(16, 90, 27)" stroke-width="3.52" stroke-opacity="1.00" stroke-linejoin="round"/>
<path d="M374.80,167.56 C374.04,167.79 373.50,168.01 373.23,168.22 C372.67,168.54 367.67,165.99 365.36,163.70 C363.80,162.13 359.41,155.78 358.56,154.03 C357.47,151.72 356.65,146.46 356.65,142.31 C356.66,138.11 357.43,130.94 358.24,127.39 C358.96,124.33 360.82,119.65 361.97,118.11 C363.23,116.46 366.42,114.05 368.69,112.96 C373.27,110.81 384.88,108.34 390.42,108.27 C393.47,108.27 398.23,109.21 400.80,110.63 C402.08,111.34 403.12,112.34 403.87,113.37 C403.12,114.15 401.15,116.23 400.59,116.42 C399.65,116.73 397.45,116.16 397.03,115.63 C396.37,114.66 396.11,110.12 396.51,107.34 C397.00,104.06 398.45,99.20 400.01,96.77 C400.87,95.53 403.19,93.86 404.63,93.67 C405.76,93.55 410.09,95.22 411.27,96.07 C413.35,97.64 417.37,104.84 418.47,105.39 C420.10,106.15 428.21,104.84 431.76,103.78 C434.99,102.81 441.39,102.09 443.36,102.83 C444.17,103.16 447.13,105.20 447.84,105.97 C449.49,107.84 451.66,113.98 452.72,118.28 C454.01,123.69 454.61,132.48 454.16,136.62 C453.89,138.86 452.09,145.48 451.20,147.56 C450.11,150.03 446.72,154.87 444.44,157.28 C441.68,160.16 434.40,166.08 434.25,166.21 C433.11,167.21 431.45,167.45 428.99,167.01 C428.41,166.90 427.44,166.64 426.07,166.24" fill="none" stroke="rgb(16, 90, 27)" stroke-width="3.52" stroke-opacity="1.00" stroke-linejoin="round"/>
<path d="M385.98,134.04 C385.98,134.04 385.98,133.38 385.98,133.38 C385.98,133.38 384.78,148.66 384.78,148.66 C384.78,148.66 380.19,148.01 380.19,148.01 C380.19,148.01 385.28,201.50 385.28,201.50 C385.28,201.50 387.55,198.47 387.55,198.47" fill="none" stroke="rgb(16, 90, 27)" stroke-width="3.52" stroke-opacity="1.00" stroke-linejoin="round"/>
<path d="M417.52,134.70 C417.52,134.70 416.54,134.70 416.54,134.70 C416.54,134.70 416.21,134.96 416.21,134.96 C415.56,151.27 415.56,180.28 416.50,188.68 C416.87,192.22 416.91,199.33 416.87,199.43 C416.81,199.56 416.59,199.89 416.21,200.42" fill="none" stroke="rgb(16, 90, 27)" stroke-width="3.52" stroke-opacity="1.00" stroke-linejoin="round"/>
<path d="M362.31,307.56 C361.58,307.64 360.72,307.07 360.38,306.90 C358.59,305.93 356.19,303.49 352.51,298.97 C350.07,295.93 348.52,293.26 347.68,290.27 C346.96,287.62 346.23,282.67 346.29,280.38 C346.37,277.95 347.31,273.15 348.33,270.56 C349.33,268.07 352.29,262.84 353.46,261.31 C354.80,259.62 358.29,257.62 360.51,257.35 C364.87,256.89 372.96,259.85 375.15,261.32 C377.06,262.67 378.46,266.41 379.38,270.66 C380.74,266.49 382.37,262.38 383.55,260.33 C385.23,257.54 389.13,254.41 391.56,253.61 C394.20,252.80 398.63,253.14 400.96,254.11 C403.23,255.11 405.87,257.74 408.56,261.75 C410.13,264.09 410.77,265.25 412.08,267.94 C412.40,268.54 413.09,268.54 415.19,268.33 C417.93,268.00 421.57,267.85 424.28,268.08 C425.63,268.23 428.37,269.11 429.83,269.99 C432.83,271.87 436.76,277.93 437.92,280.75 C438.83,283.07 439.73,286.92 439.79,289.44 C439.82,292.20 438.72,297.50 437.51,300.05 C436.26,302.64 432.59,307.26 430.57,308.79 C429.13,309.86 423.48,312.58 421.36,312.74 C420.71,312.77 415.84,310.84 414.24,310.18" fill="none" stroke="rgb(16, 90, 27)" stroke-width="3.52" stroke-opacity="1.00" stroke-linejoin="round"/>
<path d="M375.46,276.66 C375.13,276.66 374.80,276.66 374.47,276.66 C374.15,276.66 373.82,276.66 373.49,276.66 C373.50,276.84 372.31,320.23 372.66,324.72 C373.50,334.63 375.25,342.26 376.06,344.28 C376.06,344.28 377.97,343.82 377.97,343.82" fill="none" stroke="rgb(16, 90, 27)" stroke-width="3.52" stroke-opacity="1.00" stroke-linejoin="round"/>
<path d="M406.35,277.32 C406.35,276.92 406.35,276.52 406.35,276.12 C406.35,276.08 406.35,275.97 406.35,276.01 C407.77,284.94 408.69,293.03 409.00,303.92 C409.20,323.40 408.71,338.64 408.36,342.68 C408.36,342.68 407.67,343.05 407.67,343.05" fill="none" stroke="rgb(16, 90, 27)" stroke-width="3.52" stroke-opacity="1.00" stroke-linejoin="round"/>
<path d="M375.46,410.09 C375.46,410.09 375.46,409.43 375.46,409.43 C375.51,411.93 374.84,442.84 373.70,465.57 C372.81,483.90 373.32,502.56 373.50,508.54 C373.50,508.54 374.80,502.76 374.80,502.76" fill="none" stroke="rgb(16, 90, 27)" stroke-width="3.52" stroke-opacity="1.00" stroke-linejoin="round"/>
<path d="M419.50,423.89 C419.50,423.89 416.87,425.29 416.87,425.29 C416.79,427.93 416.55,434.80 416.27,437.29 C415.89,440.51 413.51,452.10 412.67,461.98 C411.83,476.03 410.51,495.04 410.03,500.01 C410.03,500.01 409.64,493.56 409.64,493.56" fill="none" stroke="rgb(16, 90, 27)" stroke-width="3.52" stroke-opacity="1.00" stroke-linejoin="round"/>
<path d="M368.23,443.61 C366.16,445.35 363.24,446.25 359.99,446.27 C356.80,446.24 354.46,445.35 352.56,443.44 C350.52,441.30 349.43,438.66 349.25,435.48 C349.08,431.58 349.67,426.33 350.67,423.23 C352.11,418.92 359.23,408.48 361.21,406.84 C363.88,404.66 370.13,402.09 371.97,402.07 C374.66,402.08 377.83,403.77 379.00,404.07 C380.30,402.45 383.26,396.19 384.68,394.40 C386.57,392.11 390.47,389.52 392.70,389.13 C394.76,388.82 399.03,389.50 400.78,390.40 C402.12,391.15 406.52,397.71 407.61,400.04 C408.56,402.10 409.04,404.47 408.98,405.99 C411.64,403.67 418.06,399.70 419.23,399.08 C421.98,397.66 428.30,396.12 430.69,396.69 C432.71,397.22 437.61,401.69 439.94,404.53 C443.12,408.47 446.19,413.49 447.18,416.44 C448.09,419.22 449.18,425.83 449.38,428.17 C449.57,430.77 448.67,436.57 447.28,439.23 C445.63,442.29 440.75,447.39 437.36,449.00 C436.29,449.49 432.72,450.34 430.94,450.62 C429.35,450.86 422.12,451.40 420.81,451.50" fill="none" stroke="rgb(16, 90, 27)" stroke-width="3.52" stroke-opacity="1.00" stroke-linejoin="round"/>
<path d="M150.02,580.32 C150.02,580.32 146.80,587.60 146.80,587.60 C149.30,590.72 151.38,595.88 151.89,597.22 C152.82,599.67 155.81,605.45 157.79,608.78 C159.72,611.98 162.99,615.82 165.83,617.93 C167.57,619.20 175.77,624.34 176.64,624.95 C178.86,626.52 190.22,639.30 192.68,644.00 C193.19,644.98 196.37,651.68 197.00,653.90 C199.21,661.78 200.60,672.58 201.06,679.84 C201.31,684.33 201.34,722.88 202.01,725.75 C202.65,728.28 205.48,734.32 207.20,737.08 C208.02,738.38 211.81,743.72 212.46,744.64" fill="none" stroke="rgb(90, 16, 82)" stroke-width="3.52" stroke-opacity="1.00" stroke-linejoin="round"/>
<path d="M355.74,550.74 C355.74,550.74 354.54,550.74 354.54,550.74 C353.49,551.66 352.69,556.45 351.86,559.60 C351.28,561.80 348.58,571.04 348.49,571.44 C347.90,574.20 347.79,580.32 347.99,584.50 C348.19,588.03 349.34,591.69 351.36,595.78 C357.23,607.86 361.13,614.85 365.69,619.80 C368.94,623.31 384.73,638.08 387.19,640.56 C392.20,645.61 401.00,655.72 402.66,658.45 C404.77,661.98 409.56,677.84 410.89,685.05 C412.34,693.04 412.03,708.37 410.89,714.08 C410.58,715.59 407.85,723.43 407.34,724.64 C406.75,726.03 405.66,728.30 405.04,729.52" fill="none" stroke="rgb(90, 16, 82)" stroke-width="3.52" stroke-opacity="1.00" stroke-linejoin="round"/>
<path d="M152.61,93.48 C152.61,93.48 151.42,92.84 151.42,92.84 C150.81,93.39 152.17,125.51 152.43,136.56 C152.86,147.18 152.82,150.08 152.06,162.19 C151.10,176.55 150.74,208.18 150.60,211.31 C150.60,211.31 150.95,211.58 150.95,211.58 C150.95,211.58 151.34,210.93 151.34,210.93" fill="none" stroke="rgb(90, 42, 16)" stroke-width="3.52" stroke-opacity="1.00" stroke-linejoin="round"/>
<path d="M149.43,97.62 C149.48,96.31 149.68,95.47 150.24,94.96 C151.32,94.00 159.42,90.48 170.78,84.11 C175.47,81.50 190.58,74.75 192.22,74.71 C193.46,74.72 195.26,75.08 195.85,75.62 C197.08,76.81 198.09,84.62 198.03,87.78 C197.96,89.34 197.66,90.66 197.12,90.98 C196.79,91.16 157.74,102.93 153.52,103.51 C153.52,103.51 155.16,100.48 155.16,100.48" fill="none" stroke="rgb(90, 42, 16)" stroke-width="3.52" stroke-opacity="1.00" stroke-linejoin="round"/>
<path d="M172.66,101.44 C172.67,101.42 172.61,101.42 172.51,101.44 C172.40,101.46 172.08,101.53 171.55,101.65 C171.55,101.65 171.65,108.40 171.65,108.40 C171.65,108.40 172.16,107.75 172.16,107.75" fill="none" stroke="rgb(90, 42, 16)" stroke-width="3.52" stroke-opacity="1.00" stroke-linejoin="round"/>
<path d="M183.49,98.26 C183.28,98.25 183.12,98.25 183.01,98.26 C182.90,98.26 182.69,98.29 182.37,98.33 C182.18,99.25 182.34,104.75 183.04,106.56 C183.13,106.79 183.25,106.89 183.39,106.85" fill="none" stroke="rgb(90, 42, 16)" stroke-width="3.52" stroke-opacity="1.00" stroke-linejoin="round"/>
<path d="M199.72,91.89 C199.72,91.89 198.92,92.07 198.92,92.07 C198.12,98.82 201.15,103.73 202.41,105.11 C202.41,105.11 204.03,105.00 204.03,105.00" fill="none" stroke="rgb(90, 42, 16)" stroke-width="3.52" stroke-opacity="1.00" stroke-linejoin="round"/>
<path d="M332.44,95.07 C332.44,95.07 332.44,94.44 332.44,94.44 C332.12,96.67 331.87,98.06 331.38,99.99 C329.64,107.01 328.34,114.94 328.31,115.61 C328.34,115.63 346.50,116.40 350.35,116.40 C351.06,116.40 351.78,116.40 352.50,116.40" fill="none" stroke="rgb(90, 42, 16)" stroke-width="3.52" stroke-opacity="1.00" stroke-linejoin="round"/>
<path d="M332.76,95.07 C333.27,95.03 338.38,95.87 341.49,96.38 C345.32,96.99 357.10,97.75 357.58,98.12 C358.56,100.66 357.01,110.52 354.73,122.49 C352.65,133.71 351.70,141.54 351.06,151.88 C350.75,159.67 349.38,176.93 349.24,181.08 C349.18,182.87 349.15,198.58 348.96,199.47 C348.88,199.85 348.68,200.17 348.36,200.42" fill="none" stroke="rgb(90, 42, 16)" stroke-width="3.52" stroke-opacity="1.00" stroke-linejoin="round"/>
<path d="M333.40,115.12 C333.40,115.12 332.76,115.12 332.76,115.12 C332.71,114.95 332.49,115.67 331.89,118.17 C331.48,119.87 330.64,123.23 330.22,124.88 C330.22,124.88 331.49,122.09 331.49,122.09" fill="none" stroke="rgb(90, 42, 16)" stroke-width="3.52" stroke-opacity="1.00" stroke-linejoin="round"/>
<path d="M342.31,113.21 C341.20,114.49 339.30,118.95 338.66,122.78 C338.40,124.42 338.12,127.17 338.17,127.14 C338.17,127.14 337.91,127.22 337.91,127.22" fill="none" stroke="rgb(90, 42, 16)" stroke-width="3.52" stroke-opacity="1.00" stroke-linejoin="round"/>
<path d="M150.46,313.44 C149.06,315.57 149.13,318.88 149.77,325.49 C150.17,329.40 151.62,350.72 151.68,353.14 C151.85,359.97 149.98,388.52 149.93,389.06 C149.93,389.06 150.91,387.31 150.91,387.31" fill="none" stroke="rgb(90, 42, 16)" stroke-width="3.52" stroke-opacity="1.00" stroke-linejoin="round"/>
<path d="M148.24,313.44 C151.25,312.04 156.90,309.41 159.54,308.19 C161.28,307.41 170.19,305.79 170.65,305.62 C173.22,304.70 186.99,296.34 194.64,293.49 C197.27,292.51 201.28,290.67 203.71,289.90 C217.05,285.86 221.27,284.80 222.50,285.17 C223.67,287.54 222.67,298.19 222.16,300.88 C220.41,301.35 203.49,302.52 197.60,303.70 C194.99,304.25 191.64,305.62 186.78,307.92 C185.36,308.58 184.39,308.74 183.35,308.61 C182.02,307.56 181.25,302.77 181.40,302.21 C181.70,301.11 183.23,297.98 184.28,296.09" fill="none" stroke="rgb(90, 42, 16)" stroke-width="3.52" stroke-opacity="1.00" stroke-linejoin="round"/>
<path d="M204.31,306.77 C202.97,306.93 199.58,309.99 197.41,313.11 C196.82,313.97 196.44,314.67 196.30,315.22 C196.22,315.50 196.22,315.95 196.30,316.56" fill="none" stroke="rgb(90, 42, 16)" stroke-width="3.52" stroke-opacity="1.00" stroke-linejoin="round"/>
<path d="M208.31,305.43 C208.31,305.52 208.31,305.74 208.31,306.10 C208.30,308.80 208.34,310.35 208.57,310.83 C209.46,312.68 209.73,314.07 210.09,315.22" fill="none" stroke="rgb(90, 42, 16)" stroke-width="3.52" stroke-opacity="1.00" stroke-linejoin="round"/>
<path d="M222.99,297.42 C223.38,297.65 223.45,299.74 223.51,300.59 C223.52,300.77 223.65,301.60 223.89,303.07 C223.97,303.59 224.11,304.52 224.30,305.86" fill="none" stroke="rgb(90, 42, 16)" stroke-width="3.52" stroke-opacity="1.00" stroke-linejoin="round"/>
<path d="M152.24,476.76 C152.24,476.90 152.24,477.35 152.24,477.20 C152.24,477.20 152.24,477.23 152.24,477.27 C152.85,497.24 151.59,509.62 150.11,533.02 C148.74,552.83 147.44,563.18 147.35,563.90 C147.35,563.90 150.02,563.53 150.02,563.53" fill="none" stroke="rgb(90, 42, 16)" stroke-width="3.52" stroke-opacity="1.00" stroke-linejoin="round"/>
<path d="M150.46,478.53 C150.46,478.53 150.46,478.98 150.46,478.98 C150.97,478.70 153.57,476.44 156.51,473.56 C160.49,469.68 174.12,462.23 176.52,460.90 C178.00,460.09 179.52,459.42 180.25,459.40 C182.18,459.38 193.72,463.24 195.86,464.50 C197.88,465.74 200.01,469.53 201.02,473.24 C201.32,474.54 201.62,475.83 201.92,477.13 C197.13,478.08 186.25,480.66 178.82,481.48 C172.03,482.13 163.20,482.97 161.17,483.16 C161.17,483.16 159.36,480.76 159.36,480.76" fill="none" stroke="rgb(90, 42, 16)" stroke-width="3.52" stroke-opacity="1.00" stroke-linejoin="round"/>
<path d="M173.60,482.98 C173.60,482.98 172.75,483.16 172.75,483.16 C172.21,483.73 171.85,484.54 171.82,485.79 C171.65,491.54 171.40,492.67 170.58,495.43 C170.58,495.43 172.27,491.88 172.27,491.88" fill="none" stroke="rgb(90, 42, 16)" stroke-width="3.52" stroke-opacity="1.00" stroke-linejoin="round"/>
<path d="M182.50,482.54 C181.99,482.76 181.26,483.10 181.26,483.37 C181.26,483.46 181.55,488.52 181.61,489.66 C181.61,489.66 182.95,488.32 182.95,488.32" fill="none" stroke="rgb(90, 42, 16)" stroke-width="3.52" stroke-opacity="1.00" stroke-linejoin="round"/>
<path d="M196.30,478.53 C195.53,479.12 194.28,482.82 193.86,486.70 C193.64,488.79 193.72,489.93 193.63,490.31 C193.58,490.49 193.39,490.89 193.05,491.52" fill="none" stroke="rgb(90, 42, 16)" stroke-width="3.52" stroke-opacity="1.00" stroke-linejoin="round"/>
<path d="M313.77,364.17 C313.69,363.34 313.62,362.83 313.58,362.66 C313.53,362.48 313.45,362.39 313.33,362.39 C313.33,362.39 313.32,383.73 313.32,383.73 C313.32,383.73 313.69,381.93 313.69,381.93" fill="none" stroke="rgb(90, 42, 16)" stroke-width="3.52" stroke-opacity="1.00" stroke-linejoin="round"/>
<path d="M312.44,361.50 C312.44,361.50 312.44,361.06 312.44,361.06 C312.47,361.06 328.54,359.93 335.20,359.36 C344.68,358.92 347.45,359.30 347.54,359.44 C348.44,366.69 351.03,410.22 350.93,413.67 C350.18,434.17 349.99,449.80 350.42,469.64 C350.69,484.08 351.61,516.17 352.47,524.67 C352.47,524.67 352.49,523.69 352.49,523.69" fill="none" stroke="rgb(90, 42, 16)" stroke-width="3.52" stroke-opacity="1.00" stroke-linejoin="round"/>
<path d="M310.21,384.20 C310.21,384.20 310.29,385.53 310.29,385.53 C311.08,385.60 319.61,382.19 328.82,380.02 C339.48,377.61 344.18,377.08 349.96,377.08 C349.96,377.08 349.82,377.52 349.82,377.52" fill="none" stroke="rgb(90, 42, 16)" stroke-width="3.52" stroke-opacity="1.00" stroke-linejoin="round"/>
<path d="M313.33,390.87 C313.32,392.77 313.32,393.91 313.33,394.30 C313.34,394.68 313.38,394.85 313.45,394.81 C313.45,394.81 314.22,394.43 314.22,394.43" fill="none" stroke="rgb(90, 42, 16)" stroke-width="3.52" stroke-opacity="1.00" stroke-linejoin="round"/>
<path d="M325.79,389.09 C325.79,389.09 325.34,395.32 325.34,395.32 C325.34,395.32 325.93,394.74 325.93,394.74" fill="none" stroke="rgb(90, 42, 16)" stroke-width="3.52" stroke-opacity="1.00" stroke-linejoin="round"/>
<path d="M340.47,387.31 C340.63,388.44 340.89,389.50 340.92,389.86 C340.93,390.02 340.93,390.47 340.92,391.21 C340.91,391.37 340.91,391.51 340.92,391.62" fill="none" stroke="rgb(90, 42, 16)" stroke-width="3.52" stroke-opacity="1.00" stroke-linejoin="round"/>
<path d="M322.67,368.18 C322.67,368.18 321.78,367.73 321.78,367.73 C321.78,367.73 316.50,379.01 316.50,379.01 C317.54,379.25 321.38,375.48 323.57,373.31 C326.82,370.27 328.53,369.26 329.95,368.71 C331.43,370.94 333.35,374.48 334.37,374.78 C336.45,375.28 340.03,374.15 342.57,373.20" fill="none" stroke="rgb(90, 42, 16)" stroke-width="3.52" stroke-opacity="1.00" stroke-linejoin="round"/>
</g>
</svg>
