<?xml version="1.0" encoding="UTF-8" standalone="no"?>
<!DOCTYPE svg PUBLIC "-//W3C//DTD SVG 1.1//EN" "http://www.w3.org/Graphics/SVG/1.1/DTD/svg11.dtd">
<svg width="64.20" height="90.84" viewBox="0.00 0.00 535.00 757.00" xmlns="http://www.w3.org/2000/svg" xmlns:xlink="http://www.w3.org/1999/xlink">
<g stroke-linecap="round" id="30">
<path d="M190.58,205.42 C190.58,205.42 190.75,205.39 190.75,205.39 C190.76,205.39 185.42,205.21 181.93,206.10 C180.38,206.51 177.59,209.18 176.70,211.86 C176.10,213.72 175.61,218.45 175.59,220.55 C175.58,226.21 177.40,230.55 178.30,231.55 C178.30,231.55 180.35,230.72 180.35,230.72" fill="none" stroke="rgb(126, 255, 0)" stroke-width="2.96" stroke-opacity="1.00" stroke-linejoin="round"/>
<path d="M190.36,211.11 C189.85,211.05 189.37,211.13 188.93,211.45 C187.77,212.31 184.82,215.84 182.52,219.30 C179.92,223.26 178.15,226.73 178.15,228.36 C178.17,229.13 178.61,229.80 179.23,230.28 C179.23,230.28 181.33,230.12 181.33,230.12" fill="none" stroke="rgb(126, 255, 0)" stroke-width="2.96" stroke-opacity="1.00" stroke-linejoin="round"/>
<path d="M190.05,217.17 C190.05,217.17 189.16,216.83 189.16,216.83 C188.47,216.89 180.82,228.86 179.84,231.72 C179.59,232.47 179.63,233.14 179.91,234.23 C179.91,234.23 181.39,234.41 181.39,234.41" fill="none" stroke="rgb(126, 255, 0)" stroke-width="2.96" stroke-opacity="1.00" stroke-linejoin="round"/>
<path d="M195.68,217.93 C195.68,217.93 195.66,217.84 195.66,217.84 C195.66,217.84 195.56,217.77 195.56,217.77 C195.56,217.77 195.37,217.81 195.37,217.81 C195.21,217.93 187.65,227.83 184.35,234.19 C182.71,237.38 183.02,240.82 183.08,241.03 C182.43,239.60 180.81,232.86 180.82,232.70 C180.83,232.57 180.90,232.29 181.04,231.88" fill="none" stroke="rgb(126, 255, 0)" stroke-width="2.96" stroke-opacity="1.00" stroke-linejoin="round"/>
<path d="M193.98,204.00 C193.86,203.52 194.07,201.35 194.64,199.09 C195.42,196.08 197.74,191.44 199.62,189.36 C201.62,187.22 205.18,184.61 207.17,183.87 C207.55,183.73 216.63,180.80 217.16,180.67 C219.54,180.10 224.19,180.83 226.07,181.53 C228.58,182.49 232.57,185.60 234.19,187.63 C235.55,189.38 238.00,193.63 240.51,198.46 C240.51,198.46 239.97,197.14 239.97,197.14" fill="none" stroke="rgb(126, 255, 0)" stroke-width="2.96" stroke-opacity="1.00" stroke-linejoin="round"/>
<path d="M201.34,198.75 C201.04,198.09 200.93,197.69 201.08,197.36 C202.08,195.31 211.68,191.17 216.14,189.66 C218.76,188.79 223.47,187.68 225.52,187.53 C229.31,187.33 241.26,191.55 241.25,191.58 C241.25,191.58 241.00,191.64 241.00,191.64" fill="none" stroke="rgb(126, 255, 0)" stroke-width="2.96" stroke-opacity="1.00" stroke-linejoin="round"/>
<path d="M210.76,193.24 C210.16,193.63 207.94,201.36 207.59,202.24 C207.53,202.40 207.37,202.75 207.13,203.26 C207.21,202.66 209.41,199.77 211.62,197.98 C213.04,196.84 216.96,194.55 218.99,193.74 C223.18,192.12 231.39,192.12 238.97,193.30 C238.97,193.30 238.67,193.09 238.67,193.09" fill="none" stroke="rgb(126, 255, 0)" stroke-width="2.96" stroke-opacity="1.00" stroke-linejoin="round"/>
<path d="M210.60,204.21 C210.60,204.21 210.06,204.14 210.06,204.14 C210.52,203.68 212.92,202.32 215.63,201.35 C218.64,200.30 221.37,199.47 223.95,198.83 C227.27,198.06 232.65,197.81 236.85,198.84 C240.64,199.83 244.17,201.10 246.30,202.66 C246.66,202.93 247.49,203.55 247.47,203.58 C247.47,203.58 247.26,203.23 247.26,203.23" fill="none" stroke="rgb(126, 255, 0)" stroke-width="2.96" stroke-opacity="1.00" stroke-linejoin="round"/>
<path d="M239.95,191.15 C239.95,191.15 239.35,190.84 239.35,190.84 C239.35,190.84 239.33,190.75 239.33,190.75 C240.78,191.99 242.61,194.42 243.70,197.00 C245.77,201.98 247.99,211.18 248.30,212.03 C248.30,212.03 248.20,211.11 248.20,211.11" fill="none" stroke="rgb(126, 255, 0)" stroke-width="2.96" stroke-opacity="1.00" stroke-linejoin="round"/>
<path d="M193.03,240.53 C192.68,241.70 192.53,242.48 192.65,242.91 C192.81,243.46 193.62,244.68 194.22,245.25 C194.49,245.50 202.65,252.20 207.90,257.28 C211.82,261.06 214.27,263.32 217.21,265.68 C220.34,268.16 223.84,270.02 226.28,270.43 C228.70,270.80 233.04,269.80 235.56,268.72 C238.13,267.56 241.99,264.48 243.99,262.02 C249.56,255.16 251.98,251.64 253.34,246.35 C254.22,242.81 254.69,238.38 254.63,234.23 C254.52,229.46 246.64,215.81 246.57,215.53 C246.38,214.46 247.71,212.59 248.61,212.22 C249.62,211.85 251.69,213.01 252.83,214.72 C254.07,216.67 255.40,221.63 254.94,223.46 C254.77,224.00 253.48,225.18 252.46,225.92 C252.13,226.14 251.39,226.65 250.23,227.43" fill="none" stroke="rgb(126, 255, 0)" stroke-width="2.96" stroke-opacity="1.00" stroke-linejoin="round"/>
<path d="M220.45,218.36 C222.17,216.51 225.41,214.10 228.65,212.35 C230.78,211.22 232.97,210.42 233.22,210.38 C233.22,210.38 232.96,210.43 232.96,210.43" fill="none" stroke="rgb(126, 255, 0)" stroke-width="2.96" stroke-opacity="1.00" stroke-linejoin="round"/>
<path d="M195.56,229.94 C195.56,229.94 194.80,230.10 194.80,230.10 C194.80,230.10 207.12,222.46 207.12,222.46 C207.12,222.46 206.86,222.71 206.86,222.71" fill="none" stroke="rgb(126, 255, 0)" stroke-width="2.96" stroke-opacity="1.00" stroke-linejoin="round"/>
<path d="M210.62,230.30 C210.62,230.30 210.15,230.40 210.15,230.40 C210.12,230.39 209.54,230.06 209.25,229.98 C207.74,229.58 205.86,230.10 204.92,231.02 C203.77,232.18 202.13,234.92 201.53,237.41 C201.04,239.58 201.35,241.38 202.08,242.00 C202.65,242.44 204.46,242.52 205.29,242.15 C207.81,240.96 213.24,233.19 213.06,232.57 C212.72,231.71 210.54,230.37 210.27,230.38 C210.08,230.39 209.47,230.45 208.43,230.58" fill="none" stroke="rgb(126, 255, 0)" stroke-width="2.96" stroke-opacity="1.00" stroke-linejoin="round"/>
<path d="M206.12,233.19 C206.12,233.19 205.42,233.21 205.42,233.21 C205.16,233.81 205.63,236.98 206.13,237.63 C206.33,237.88 206.71,238.06 206.95,238.10 C206.95,238.10 206.73,233.32 206.73,233.32 C206.64,233.22 206.34,235.91 206.42,236.21 C206.47,236.42 206.67,236.97 207.01,237.87" fill="none" stroke="rgb(126, 255, 0)" stroke-width="2.96" stroke-opacity="1.00" stroke-linejoin="round"/>
<path d="M232.83,216.81 C232.83,216.81 232.81,216.73 232.81,216.73 C232.42,216.62 231.26,217.41 228.94,219.80 C227.96,220.84 226.56,223.35 226.20,224.92 C225.91,226.27 226.34,227.87 227.04,228.35 C227.81,228.84 229.91,228.60 231.15,227.77 C234.05,225.74 236.16,221.01 235.89,219.73 C235.37,219.24 234.75,218.93 234.21,219.02 C233.90,219.08 232.11,220.20 231.04,220.89" fill="none" stroke="rgb(126, 255, 0)" stroke-width="2.96" stroke-opacity="1.00" stroke-linejoin="round"/>
<path d="M230.09,220.56 C230.10,222.30 230.08,223.28 229.99,223.92 C229.93,224.26 229.88,224.59 229.83,224.93" fill="none" stroke="rgb(126, 255, 0)" stroke-width="2.96" stroke-opacity="1.00" stroke-linejoin="round"/>
<path d="M215.55,228.56 C215.55,228.56 215.63,228.54 215.63,228.54 C215.69,228.55 217.52,232.50 218.57,235.62 C219.65,238.92 219.83,241.42 219.57,242.47 C219.01,244.24 218.08,247.56 218.44,248.94 C218.80,250.17 222.99,250.38 226.07,249.11 C226.28,249.03 226.66,248.89 227.19,248.72" fill="none" stroke="rgb(126, 255, 0)" stroke-width="2.96" stroke-opacity="1.00" stroke-linejoin="round"/>
<path d="M222.98,261.38 C222.98,261.38 222.81,261.41 222.81,261.41 C222.81,261.41 236.51,251.25 236.51,251.25 C236.51,251.25 236.29,251.30 236.29,251.30" fill="none" stroke="rgb(126, 255, 0)" stroke-width="2.96" stroke-opacity="1.00" stroke-linejoin="round"/>
<path d="M223.24,260.09 C223.24,260.09 222.90,260.13 222.90,260.13 C223.05,259.25 224.08,256.65 224.81,255.73 C225.08,255.41 229.64,252.86 231.33,252.39 C233.49,251.98 236.08,251.43 237.02,251.02 C236.81,251.35 236.69,251.68 236.61,252.21 C236.36,253.76 235.08,257.15 234.21,258.16 C233.30,259.12 229.59,261.46 227.07,261.52 C226.66,261.53 226.00,261.45 225.08,261.29" fill="none" stroke="rgb(126, 255, 0)" stroke-width="2.96" stroke-opacity="1.00" stroke-linejoin="round"/>
<path d="M237.17,268.45 C237.17,268.45 237.15,268.36 237.15,268.36 C236.96,268.38 237.96,272.61 238.99,274.91 C239.38,275.79 241.53,279.45 242.04,280.77 C242.04,280.77 239.32,277.87 239.32,277.87" fill="none" stroke="rgb(126, 255, 0)" stroke-width="2.96" stroke-opacity="1.00" stroke-linejoin="round"/>
<path d="M239.32,277.87 C239.07,277.80 238.92,277.76 238.86,277.74 C238.80,277.72 238.74,277.69 238.70,277.65 C238.45,277.90 235.79,280.78 234.61,282.10 C231.00,285.97 219.22,291.97 215.80,294.33 C213.45,295.97 210.47,298.66 209.28,300.30 C206.84,303.77 205.07,310.01 205.06,310.24 C205.06,310.47 205.11,311.03 205.22,311.89" fill="none" stroke="rgb(126, 255, 0)" stroke-width="2.96" stroke-opacity="1.00" stroke-linejoin="round"/>
<path d="M202.89,310.04 C202.93,308.89 197.59,296.22 195.75,291.43 C193.38,286.46 191.72,280.10 187.82,270.83 C186.28,267.21 183.32,262.54 181.38,260.40 C179.27,258.12 173.93,253.80 171.85,252.60 C169.81,251.45 165.91,250.19 163.96,250.08 C162.02,249.99 157.33,250.92 154.97,252.05 C152.45,253.29 149.19,255.97 147.20,258.31 C145.24,260.65 143.06,264.23 142.79,266.26 C142.67,267.34 143.73,268.74 144.79,268.45 C146.75,267.85 152.59,260.64 153.76,259.65 C153.63,259.97 150.90,263.73 149.58,265.57 C145.84,271.01 146.51,272.23 146.91,272.69 C146.91,272.69 152.49,271.83 152.49,271.83 C152.67,272.39 150.71,277.52 150.68,279.12 C150.67,279.40 150.74,279.75 150.89,280.15 C152.23,280.40 153.01,280.30 153.87,279.64 C157.12,277.10 160.45,271.61 164.29,264.33 C164.29,264.33 163.43,265.80 163.43,265.80" fill="none" stroke="rgb(126, 255, 0)" stroke-width="2.96" stroke-opacity="1.00" stroke-linejoin="round"/>
<path d="M164.05,267.08 C164.64,271.97 165.45,274.59 166.52,277.36 C167.28,279.39 171.78,292.91 173.83,297.21 C177.03,303.69 181.19,312.91 182.13,314.59 C194.05,333.74 199.18,341.01 201.99,345.16 C202.88,346.36 213.65,358.32 215.62,360.46 C216.60,361.51 219.46,363.16 219.47,363.14 C219.76,361.95 219.81,345.00 219.81,344.97 C219.85,339.79 218.42,326.41 219.06,323.70 C220.02,319.88 222.08,319.53 222.36,319.84 C222.49,319.99 222.88,320.47 223.54,321.27" fill="none" stroke="rgb(126, 255, 0)" stroke-width="2.96" stroke-opacity="1.00" stroke-linejoin="round"/>
<path d="M255.20,243.03 C255.20,243.03 255.17,242.88 255.17,242.88 C255.17,242.88 262.47,257.91 262.47,257.91 C262.47,257.91 263.11,257.53 263.11,257.53" fill="none" stroke="rgb(126, 255, 0)" stroke-width="2.96" stroke-opacity="1.00" stroke-linejoin="round"/>
<path d="M269.29,252.05 C269.26,252.13 267.55,254.51 267.16,255.54 C264.93,261.51 261.51,267.00 259.22,270.61 C256.00,275.58 248.64,284.48 244.80,287.80 C243.15,289.21 239.42,291.06 237.92,291.22 C236.22,291.35 234.03,289.86 233.22,288.04 C232.47,286.28 232.76,283.35 233.51,282.74 C233.66,282.62 234.16,282.24 235.00,281.62" fill="none" stroke="rgb(126, 255, 0)" stroke-width="2.96" stroke-opacity="1.00" stroke-linejoin="round"/>
<path d="M264.95,254.58 C264.95,254.58 264.67,255.05 264.67,255.05 C265.41,254.86 269.22,250.66 271.15,248.83 C276.80,243.50 285.26,236.08 286.15,235.66 C290.44,233.76 295.08,232.92 297.76,233.30 C298.43,233.42 300.15,233.94 300.63,234.40 C301.42,235.17 306.08,239.92 307.83,241.48 C310.16,243.65 312.66,246.91 315.28,251.10 C317.32,254.40 320.75,260.52 321.62,262.84 C322.60,265.51 324.06,270.82 324.17,273.11 C324.38,279.36 303.94,332.74 303.81,333.11 C302.75,336.05 297.45,341.91 296.39,342.97 C295.87,343.48 278.29,360.78 277.82,361.23 C277.82,361.23 277.34,359.83 277.34,359.83" fill="none" stroke="rgb(126, 255, 0)" stroke-width="2.96" stroke-opacity="1.00" stroke-linejoin="round"/>
<path d="M292.53,272.75 C292.53,272.75 292.30,272.59 292.30,272.59 C292.54,272.98 292.83,273.58 292.97,274.15 C293.48,276.33 293.86,293.90 293.73,295.88 C293.45,299.79 291.49,313.72 290.75,316.67 C289.86,320.29 289.53,327.56 289.21,329.15 C289.14,329.47 288.56,331.65 288.51,331.85 C288.41,332.12 277.58,339.04 272.95,342.76 C271.01,344.37 266.79,347.85 266.08,348.22 C265.71,348.40 259.60,344.08 257.52,344.87 C256.81,345.17 255.81,346.44 255.66,347.23 C255.50,348.18 255.83,350.51 256.44,351.32 C257.07,352.11 258.48,352.97 259.92,352.93 C258.58,353.29 254.76,354.83 253.70,355.82 C252.50,357.00 251.93,359.16 252.29,360.25 C252.71,361.40 254.29,362.89 255.40,362.97 C256.46,363.03 257.74,362.86 259.15,362.52 C259.23,362.93 258.30,365.58 258.37,366.84 C258.42,367.62 258.76,368.30 259.28,368.89 C260.63,369.36 263.86,368.52 265.47,367.44 C268.19,365.56 269.88,363.95 269.90,363.94 C270.12,363.83 278.47,359.77 279.15,359.43 C279.38,359.32 279.68,359.19 280.06,359.07" fill="none" stroke="rgb(126, 255, 0)" stroke-width="2.96" stroke-opacity="1.00" stroke-linejoin="round"/>
<path d="M224.91,321.10 C224.91,321.10 225.18,320.43 225.18,320.43 C225.18,320.38 227.09,326.54 227.47,328.79 C228.60,338.39 231.11,358.59 231.79,361.21 C233.31,366.93 235.60,375.14 237.66,380.34 C237.78,380.67 238.00,381.17 238.31,381.86" fill="none" stroke="rgb(126, 255, 0)" stroke-width="2.96" stroke-opacity="1.00" stroke-linejoin="round"/>
<path d="M235.41,306.30 C235.41,306.30 234.48,306.70 234.48,306.70 C236.24,304.28 239.88,300.60 243.00,298.24 C247.26,295.04 258.83,288.23 262.56,286.98 C263.91,286.54 270.86,285.40 271.55,285.04 C271.55,285.04 271.73,285.09 271.73,285.09" fill="none" stroke="rgb(126, 255, 0)" stroke-width="2.96" stroke-opacity="1.00" stroke-linejoin="round"/>
<path d="M239.77,313.50 C240.43,311.85 247.88,306.07 253.18,303.43 C255.40,302.33 271.30,294.91 276.65,292.34 C276.65,292.34 276.18,292.81 276.18,292.81" fill="none" stroke="rgb(126, 255, 0)" stroke-width="2.96" stroke-opacity="1.00" stroke-linejoin="round"/>
<path d="M239.63,323.49 C239.39,322.50 239.79,321.01 241.72,319.58 C242.64,318.91 258.27,309.62 261.42,307.87 C266.93,304.74 277.82,298.54 278.54,298.49 C278.54,298.49 278.32,299.14 278.32,299.14" fill="none" stroke="rgb(126, 255, 0)" stroke-width="2.96" stroke-opacity="1.00" stroke-linejoin="round"/>
<path d="M238.83,340.92 C238.83,340.92 237.58,340.27 237.58,340.27 C237.53,340.06 249.17,332.20 255.64,329.22 C259.87,327.29 270.86,323.40 270.76,323.32 C270.76,323.32 268.85,324.93 268.85,324.93" fill="none" stroke="rgb(126, 255, 0)" stroke-width="2.96" stroke-opacity="1.00" stroke-linejoin="round"/>
<path d="M244.70,346.59 C244.70,346.59 244.58,346.51 244.58,346.51 C244.98,344.92 254.12,337.91 259.75,334.92 C264.88,332.21 272.57,328.78 276.27,327.29 C276.27,327.29 276.18,327.03 276.18,327.03" fill="none" stroke="rgb(126, 255, 0)" stroke-width="2.96" stroke-opacity="1.00" stroke-linejoin="round"/>
<path d="M272.46,276.77 C272.46,276.77 272.16,276.99 272.16,276.99 C273.27,278.56 275.08,285.44 275.38,285.91 C276.10,286.98 277.05,287.70 277.96,287.82 C280.92,288.05 292.01,281.92 293.09,280.80 C293.85,279.93 292.41,274.53 291.15,272.38 C290.74,271.71 289.53,270.99 288.86,270.97 C286.38,271.02 275.49,278.22 273.29,279.41 C273.29,279.41 273.97,278.77 273.97,278.77" fill="none" stroke="rgb(126, 255, 0)" stroke-width="2.96" stroke-opacity="1.00" stroke-linejoin="round"/>
<path d="M287.19,276.31 C287.19,276.31 284.97,277.16 284.97,277.16 C284.97,277.16 286.25,278.70 286.25,278.70 C286.25,278.70 284.66,278.81 284.66,278.81 C284.66,278.81 285.85,278.37 285.85,278.37" fill="none" stroke="rgb(126, 255, 0)" stroke-width="2.96" stroke-opacity="1.00" stroke-linejoin="round"/>
<path d="M225.40,396.65 C225.40,396.65 225.12,396.70 225.12,396.70 C225.12,396.70 226.07,395.92 226.07,395.92 C224.54,396.25 219.39,395.86 217.02,396.06 C213.38,396.38 204.93,398.69 203.32,399.37 C200.06,400.76 187.39,408.90 176.35,415.41 C172.20,417.89 167.37,421.00 164.82,423.99 C164.18,424.81 164.69,431.10 165.23,433.56 C167.44,443.42 169.04,451.85 169.16,457.38 C169.22,460.10 168.99,479.35 169.13,482.11 C169.21,483.63 169.87,496.94 169.67,507.75 C169.57,512.49 169.20,514.25 166.72,518.31 C164.13,522.56 163.79,523.22 163.78,523.45 C164.21,523.29 168.60,521.44 171.74,520.41 C181.28,517.32 204.51,516.31 207.28,515.93 C209.33,515.63 210.47,514.65 210.87,513.85 C211.89,511.67 212.11,506.17 211.93,502.15 C211.80,499.64 211.22,491.51 211.64,479.39 C211.78,474.48 211.52,464.67 212.68,456.90 C212.98,454.92 214.35,445.39 214.52,444.53 C215.04,442.02 217.96,439.23 220.68,437.80 C221.77,437.23 222.86,436.66 223.94,436.08" fill="none" stroke="rgb(126, 255, 0)" stroke-width="2.96" stroke-opacity="1.00" stroke-linejoin="round"/>
<path d="M226.18,420.61 C226.18,420.61 225.90,420.66 225.90,420.66 C225.90,420.66 226.39,420.69 226.39,420.69 C226.39,420.69 241.62,448.68 241.62,448.68 C241.62,448.68 241.27,449.24 241.27,449.24" fill="none" stroke="rgb(126, 255, 0)" stroke-width="2.96" stroke-opacity="1.00" stroke-linejoin="round"/>
<path d="M246.15,437.57 C247.20,448.78 249.42,461.58 249.54,462.62 C249.88,465.62 251.15,482.11 251.05,488.05 C250.94,494.82 252.37,504.24 253.21,514.50 C253.50,518.36 260.00,549.86 261.02,552.49 C261.52,553.75 263.76,557.07 263.79,557.16 C264.26,558.23 264.10,561.67 264.09,561.73 C266.61,561.16 281.54,554.91 283.91,554.61 C293.64,553.55 300.98,553.87 304.88,554.36 C304.88,554.36 305.85,553.39 305.85,553.39" fill="none" stroke="rgb(126, 255, 0)" stroke-width="2.96" stroke-opacity="1.00" stroke-linejoin="round"/>
<path d="M298.42,417.00 C298.42,417.00 297.73,416.54 297.73,416.54 C297.92,417.51 298.46,420.24 298.55,420.90 C299.20,425.36 299.27,446.31 299.37,449.51 C299.57,455.82 301.74,472.68 301.61,479.19 C301.14,496.90 301.84,521.64 302.83,526.90 C303.66,531.31 306.24,550.10 306.56,552.45 C306.56,552.45 306.03,551.28 306.03,551.28" fill="none" stroke="rgb(126, 255, 0)" stroke-width="2.96" stroke-opacity="1.00" stroke-linejoin="round"/>
<path d="M278.12,490.31 C277.86,490.89 277.79,491.53 277.98,492.67 C278.77,497.22 281.15,507.22 281.03,507.50 C281.03,507.50 280.58,506.95 280.58,506.95" fill="none" stroke="rgb(126, 255, 0)" stroke-width="2.96" stroke-opacity="1.00" stroke-linejoin="round"/>
<path d="M279.88,451.86 C280.50,455.13 281.28,458.82 281.97,461.08 C282.18,461.74 288.26,482.20 288.27,484.13 C288.27,485.77 287.90,487.19 287.56,487.25 C287.56,487.25 285.23,486.86 285.23,486.86" fill="none" stroke="rgb(126, 255, 0)" stroke-width="2.96" stroke-opacity="1.00" stroke-linejoin="round"/>
<path d="M185.39,449.67 C186.61,455.25 188.99,467.14 189.47,471.70 C189.68,473.94 189.70,477.39 189.41,479.04 C189.31,479.59 189.06,480.52 188.67,481.82" fill="none" stroke="rgb(126, 255, 0)" stroke-width="2.96" stroke-opacity="1.00" stroke-linejoin="round"/>
<path d="M180.05,521.85 C179.90,522.59 179.77,523.32 179.42,523.55 C178.27,524.28 173.64,527.39 171.57,528.05 C169.91,528.56 152.81,532.30 150.41,533.79 C147.96,535.36 143.41,540.96 142.78,542.71 C141.97,545.06 142.30,548.40 142.96,549.42 C143.81,550.66 146.21,551.83 147.45,551.54 C149.47,551.04 153.69,549.38 157.05,548.41 C161.40,547.17 166.28,546.37 169.85,546.31 C180.13,546.19 190.91,547.01 192.69,546.73 C196.81,546.05 208.16,540.23 212.04,536.81 C212.69,536.19 211.44,533.49 209.18,530.84 C207.95,529.40 203.72,523.87 202.59,521.94 C202.53,521.85 200.26,516.77 200.22,516.83 C200.22,516.83 199.61,518.35 199.61,518.35" fill="none" stroke="rgb(126, 255, 0)" stroke-width="2.96" stroke-opacity="1.00" stroke-linejoin="round"/>
<path d="M200.24,518.53 C200.33,518.92 200.36,519.33 200.22,520.02 C199.62,522.95 197.27,526.60 195.35,528.59 C191.75,532.24 183.89,537.17 181.73,537.56 C179.55,537.89 174.87,534.85 172.34,532.61 C171.17,531.56 170.78,531.06 170.65,530.51 C171.20,529.29 175.94,527.17 178.06,526.59 C178.70,526.41 179.67,526.37 181.23,526.39" fill="none" stroke="rgb(126, 255, 0)" stroke-width="2.96" stroke-opacity="1.00" stroke-linejoin="round"/>
<path d="M184.52,521.88 C184.52,521.88 184.23,521.93 184.23,521.93 C185.54,521.68 188.73,521.06 190.63,520.69 C197.30,519.40 200.23,518.80 200.82,518.59 C201.07,518.49 201.23,518.35 201.29,518.16" fill="none" stroke="rgb(126, 255, 0)" stroke-width="2.96" stroke-opacity="1.00" stroke-linejoin="round"/>
<path d="M272.86,559.80 C272.86,559.80 272.51,559.57 272.51,559.57 C272.51,559.57 272.24,559.71 272.24,559.71 C273.40,564.38 274.48,569.48 274.88,570.68 C275.62,572.92 277.66,576.46 279.75,578.93 C280.94,579.15 281.92,578.84 284.01,577.49 C290.15,573.62 294.78,569.87 294.86,569.21 C294.95,568.08 293.11,557.03 293.05,556.35 C293.03,556.03 293.01,555.51 292.99,554.78" fill="none" stroke="rgb(126, 255, 0)" stroke-width="2.96" stroke-opacity="1.00" stroke-linejoin="round"/>
<path d="M275.60,570.88 C275.34,570.87 275.15,570.86 275.05,570.84 C274.80,570.80 273.55,570.63 272.94,570.84 C271.50,571.37 265.62,577.21 262.27,579.93 C260.54,581.33 246.29,591.98 245.74,592.55 C243.37,595.03 240.26,598.54 238.02,600.19 C236.09,601.34 233.85,602.71 233.47,603.18 C233.62,603.83 235.17,604.62 237.92,605.47 C239.82,606.02 244.34,605.29 248.91,604.25 C255.81,602.56 266.21,600.07 274.80,598.45 C283.38,596.86 294.38,596.06 295.74,595.06 C297.24,593.86 299.12,587.75 299.31,583.79 C299.52,578.07 297.71,567.43 297.10,565.95 C296.97,565.66 296.79,565.45 296.55,565.32" fill="none" stroke="rgb(126, 255, 0)" stroke-width="2.96" stroke-opacity="1.00" stroke-linejoin="round"/>
<path d="M297.97,587.97 C297.29,587.75 296.71,587.70 295.15,587.77 C290.47,588.01 285.60,588.65 283.91,589.87 C282.84,590.67 279.20,596.51 279.15,596.65 C279.03,597.00 278.96,598.07 278.65,598.86" fill="none" stroke="rgb(126, 255, 0)" stroke-width="2.96" stroke-opacity="1.00" stroke-linejoin="round"/>
<path d="M129.42,118.33 C129.42,118.33 129.24,118.63 129.24,118.63 C129.05,117.74 128.73,116.89 128.20,116.19 C126.14,113.42 124.27,109.68 124.19,108.31 C124.18,107.63 125.52,105.95 126.53,105.56 C127.63,105.16 130.72,106.35 131.94,108.42 C132.28,109.00 133.09,111.75 133.36,112.63" fill="none" stroke="rgb(255, 242, 0)" stroke-width="2.96" stroke-opacity="1.00" stroke-linejoin="round"/>
<path d="M126.40,118.15 C126.40,118.15 125.32,118.37 125.32,118.37 C124.97,118.68 119.94,130.74 116.02,139.21 C112.34,147.08 106.82,155.23 103.38,159.46 C92.34,172.54 73.44,196.57 67.99,202.55 C63.82,207.29 57.67,214.24 55.07,216.59 C55.07,216.59 55.37,215.39 55.37,215.39" fill="none" stroke="rgb(255, 242, 0)" stroke-width="2.96" stroke-opacity="1.00" stroke-linejoin="round"/>
<path d="M56.65,216.12 C56.16,217.68 57.28,230.49 57.67,237.74 C57.94,241.64 60.62,256.97 60.61,262.93 C60.59,266.61 60.55,273.52 60.54,276.74 C60.54,276.74 60.15,274.00 60.15,274.00" fill="none" stroke="rgb(255, 242, 0)" stroke-width="2.96" stroke-opacity="1.00" stroke-linejoin="round"/>
<path d="M136.12,106.33 C136.12,106.33 136.33,106.02 136.33,106.02 C136.26,106.04 138.82,106.24 142.97,105.45 C144.78,105.10 151.47,104.45 153.66,104.11 C163.21,102.59 193.57,90.70 206.54,85.50 C214.22,82.39 228.84,76.47 231.01,76.18 C233.27,75.91 241.10,80.80 248.00,84.77 C250.72,86.33 266.78,93.64 271.53,96.24 C279.77,100.73 293.78,110.14 308.63,118.42 C308.63,118.42 308.98,117.99 308.98,117.99" fill="none" stroke="rgb(255, 242, 0)" stroke-width="2.96" stroke-opacity="1.00" stroke-linejoin="round"/>
<path d="M63.46,281.99 C64.18,281.90 65.21,281.26 66.02,280.11 C66.40,279.58 71.38,270.98 73.19,268.75 C73.59,268.26 81.72,258.39 86.46,251.09 C90.26,245.30 96.50,237.03 103.54,228.49 C111.16,219.40 113.34,217.11 122.74,208.42 C126.10,205.33 138.71,196.11 145.87,190.87 C154.31,184.71 164.43,179.19 166.43,178.09 C171.38,175.38 185.80,166.17 189.23,164.12 C197.99,158.92 226.32,143.79 239.97,136.15 C244.17,133.94 258.38,128.60 263.96,126.94 C275.68,123.58 293.57,120.36 298.60,119.19 C300.45,118.76 304.40,118.88 305.65,118.96" fill="none" stroke="rgb(255, 242, 0)" stroke-width="2.96" stroke-opacity="1.00" stroke-linejoin="round"/>
<path d="M119.83,133.37 C119.83,133.37 119.78,133.11 119.78,133.11 C119.44,133.85 114.70,145.65 110.29,154.42 C104.88,165.06 100.07,176.15 98.44,179.58 C93.00,191.07 91.72,192.79 91.48,193.29 C90.98,194.42 93.80,212.64 93.24,217.07 C93.18,217.54 93.07,217.93 92.93,218.24 C92.89,218.34 92.63,218.85 92.15,219.78" fill="none" stroke="rgb(255, 242, 0)" stroke-width="2.96" stroke-opacity="1.00" stroke-linejoin="round"/>
<path d="M131.40,118.72 C131.40,118.72 131.05,117.71 131.05,117.71 C131.05,117.71 130.92,117.74 130.92,117.74 C131.26,121.33 131.69,138.69 131.86,146.26 C131.90,152.39 132.07,164.15 131.49,167.77 C131.47,167.94 140.67,179.38 143.23,184.00 C143.45,184.36 143.70,184.69 143.98,184.99" fill="none" stroke="rgb(255, 242, 0)" stroke-width="2.96" stroke-opacity="1.00" stroke-linejoin="round"/>
<path d="M138.55,135.94 C138.72,136.86 140.70,140.67 141.01,141.49 C141.79,143.53 146.74,159.48 146.69,160.40 C146.66,160.79 146.45,161.31 146.03,161.95" fill="none" stroke="rgb(255, 242, 0)" stroke-width="2.96" stroke-opacity="1.00" stroke-linejoin="round"/>
<path d="M133.63,112.56 C133.49,113.77 134.73,116.94 135.82,118.33 C138.01,121.04 143.23,123.39 152.32,126.71 C154.99,127.72 158.68,129.51 160.79,130.54 C164.62,132.33 171.88,134.59 173.16,135.11 C173.92,135.44 180.23,150.14 182.51,153.50 C182.51,153.50 182.71,153.57 182.71,153.57" fill="none" stroke="rgb(255, 242, 0)" stroke-width="2.96" stroke-opacity="1.00" stroke-linejoin="round"/>
<path d="M142.45,109.34 C142.45,109.34 142.63,108.49 142.63,108.49 C142.96,108.65 146.27,111.13 148.75,111.36 C149.01,111.39 167.86,112.72 173.27,112.04 C176.91,111.57 203.41,105.76 210.71,103.94 C215.88,102.62 219.15,102.01 223.26,102.40 C226.26,102.55 232.37,103.14 232.77,103.11 C234.30,105.14 244.72,122.12 246.53,124.70 C247.72,126.40 249.88,129.19 250.41,130.00 C250.56,130.22 250.61,130.41 250.57,130.55" fill="none" stroke="rgb(255, 242, 0)" stroke-width="2.96" stroke-opacity="1.00" stroke-linejoin="round"/>
<path d="M138.34,198.12 C138.34,198.12 138.21,198.15 138.21,198.15 C138.21,198.15 138.11,198.32 138.11,198.32 C138.32,199.70 141.69,217.90 142.11,219.81 C142.59,222.02 149.53,248.51 150.51,254.68 C150.51,254.68 149.60,251.65 149.60,251.65" fill="none" stroke="rgb(255, 242, 0)" stroke-width="2.96" stroke-opacity="1.00" stroke-linejoin="round"/>
<path d="M145.90,194.09 C145.90,194.09 145.27,194.63 145.27,194.63 C146.30,205.08 147.43,211.85 149.64,219.33 C151.55,225.81 154.74,242.80 156.19,247.87 C156.75,249.82 157.32,252.08 157.42,252.71 C157.42,252.71 157.00,251.99 157.00,251.99" fill="none" stroke="rgb(255, 242, 0)" stroke-width="2.96" stroke-opacity="1.00" stroke-linejoin="round"/>
<path d="M156.70,278.92 C156.72,282.03 156.85,283.80 157.22,285.42 C157.46,286.47 158.36,290.28 159.04,291.09 C159.81,291.96 160.52,292.09 160.95,292.03 C161.63,291.48 162.09,289.17 162.00,286.68 C161.65,281.85 161.28,274.20 161.23,274.01 C161.22,273.98 161.16,273.86 161.05,273.67" fill="none" stroke="rgb(255, 242, 0)" stroke-width="2.96" stroke-opacity="1.00" stroke-linejoin="round"/>
<path d="M445.67,61.51 C445.21,63.27 444.94,64.36 444.86,64.76 C444.76,65.29 443.95,86.57 443.79,88.91 C443.57,92.33 443.20,105.98 443.26,110.94 C443.26,110.94 442.78,108.80 442.78,108.80" fill="none" stroke="rgb(0, 165, 255)" stroke-width="2.96" stroke-opacity="1.00" stroke-linejoin="round"/>
<path d="M485.82,97.65 C484.58,99.25 483.36,101.38 483.01,103.03 C482.74,104.34 482.54,122.94 481.59,131.08 C481.44,132.38 481.16,134.19 481.00,135.08 C481.00,135.08 480.48,135.39 480.48,135.39" fill="none" stroke="rgb(0, 165, 255)" stroke-width="2.96" stroke-opacity="1.00" stroke-linejoin="round"/>
<path d="M487.43,209.28 C487.43,209.28 485.82,207.67 485.82,207.67 C487.64,226.07 489.05,246.68 489.00,246.93 C488.89,247.43 488.53,248.54 487.90,250.28" fill="none" stroke="rgb(0, 165, 255)" stroke-width="2.96" stroke-opacity="1.00" stroke-linejoin="round"/>
<path d="M393.47,209.28 C393.47,209.28 393.07,209.28 393.07,209.28 C392.55,210.28 393.26,215.44 393.80,217.72 C394.58,220.95 399.34,237.15 400.51,246.39 C401.00,250.46 401.90,257.98 402.30,261.43 C402.30,261.43 401.22,258.76 401.22,258.76" fill="none" stroke="rgb(0, 165, 255)" stroke-width="2.96" stroke-opacity="1.00" stroke-linejoin="round"/>
<path d="M387.85,51.07 C387.85,51.07 385.84,52.04 385.84,52.04 C385.48,52.57 385.28,70.19 384.51,76.03 C383.87,80.98 383.33,120.12 382.50,136.98 C382.13,144.89 382.24,150.25 382.24,151.16 C382.24,151.16 383.83,151.46 383.83,151.46" fill="none" stroke="rgb(0, 165, 255)" stroke-width="2.96" stroke-opacity="1.00" stroke-linejoin="round"/>
<path d="M349.30,141.02 C349.30,141.02 347.69,141.02 347.69,141.02 C347.69,141.02 346.11,190.40 346.11,190.40 C346.11,190.40 346.09,187.36 346.09,187.36" fill="none" stroke="rgb(0, 165, 255)" stroke-width="2.96" stroke-opacity="1.00" stroke-linejoin="round"/>
<path d="M340.47,38.22 C340.47,38.22 338.46,38.22 338.46,38.22 C338.46,38.22 334.04,80.09 334.04,80.09 C334.04,80.09 334.84,78.38 334.84,78.38" fill="none" stroke="rgb(0, 165, 255)" stroke-width="2.96" stroke-opacity="1.00" stroke-linejoin="round"/>
<path d="M285.05,24.57 C284.37,25.36 284.07,26.51 284.38,28.21 C285.31,32.99 294.13,49.00 297.87,55.62 C301.34,62.09 305.07,72.33 305.70,76.42 C305.70,76.42 303.26,73.51 303.26,73.51" fill="none" stroke="rgb(0, 165, 255)" stroke-width="2.96" stroke-opacity="1.00" stroke-linejoin="round"/>
<path d="M243.29,23.77 C243.30,23.82 243.30,23.96 243.29,24.17 C243.27,25.89 243.35,27.35 243.63,29.18 C244.16,32.52 245.57,37.98 246.83,40.90 C247.68,42.86 255.81,59.37 256.82,64.17 C256.82,64.17 254.64,59.43 254.64,59.43" fill="none" stroke="rgb(0, 165, 255)" stroke-width="2.96" stroke-opacity="1.00" stroke-linejoin="round"/>
<path d="M218.40,31.00 C217.96,31.16 216.80,34.71 216.79,37.84 C216.80,39.21 217.28,47.49 217.60,50.16 C217.60,50.16 217.13,48.80 217.13,48.80" fill="none" stroke="rgb(0, 165, 255)" stroke-width="2.96" stroke-opacity="1.00" stroke-linejoin="round"/>
<path d="M183.87,40.63 C181.98,40.56 180.63,40.78 179.99,41.44 C179.35,42.12 177.68,47.31 175.99,53.47 C174.21,59.95 172.85,63.80 171.35,64.65 C171.35,64.65 168.25,57.27 168.25,57.27" fill="none" stroke="rgb(0, 165, 255)" stroke-width="2.96" stroke-opacity="1.00" stroke-linejoin="round"/>
<path d="M162.18,31.00 C161.27,32.45 160.60,33.72 159.94,35.33 C159.31,36.86 157.67,42.09 156.40,44.48 C153.53,49.91 149.72,62.16 148.04,64.51 C148.04,64.51 147.23,62.63 147.23,62.63" fill="none" stroke="rgb(0, 165, 255)" stroke-width="2.96" stroke-opacity="1.00" stroke-linejoin="round"/>
<path d="M129.26,37.42 C129.26,37.42 129.26,36.62 129.26,36.62 C129.26,36.62 131.12,64.80 131.12,64.80 C131.12,64.80 131.67,61.51 131.67,61.51" fill="none" stroke="rgb(0, 165, 255)" stroke-width="2.96" stroke-opacity="1.00" stroke-linejoin="round"/>
<path d="M97.14,62.31 C96.78,61.95 96.21,61.51 95.70,61.51 C94.26,61.60 93.04,62.84 92.36,65.21 C88.63,78.76 86.06,94.14 85.89,95.16 C85.89,95.16 84.76,94.68 84.76,94.68" fill="none" stroke="rgb(0, 165, 255)" stroke-width="2.96" stroke-opacity="1.00" stroke-linejoin="round"/>
<path d="M54.57,31.00 C54.22,31.26 53.96,31.53 53.77,31.80 C53.12,32.77 52.31,34.71 52.24,35.68 C51.72,44.75 56.81,74.39 56.18,78.56 C56.13,78.86 55.99,79.27 55.75,79.77" fill="none" stroke="rgb(0, 165, 255)" stroke-width="2.96" stroke-opacity="1.00" stroke-linejoin="round"/>
<path d="M73.04,159.49 C73.04,159.49 72.24,159.49 72.24,159.49 C73.94,161.81 73.45,169.99 73.04,174.48 C73.04,174.48 73.04,171.53 73.04,171.53" fill="none" stroke="rgb(0, 165, 255)" stroke-width="2.96" stroke-opacity="1.00" stroke-linejoin="round"/>
<path d="M111.59,107.29 C111.59,107.29 111.59,106.48 111.59,106.48 C111.62,108.32 111.12,114.54 110.83,117.98 C110.67,119.69 110.44,121.82 110.31,122.85" fill="none" stroke="rgb(0, 165, 255)" stroke-width="2.96" stroke-opacity="1.00" stroke-linejoin="round"/>
<path d="M73.04,320.10 C73.04,320.10 73.85,320.70 73.85,320.70 C73.85,324.18 73.75,333.00 73.67,334.46 C73.49,337.86 71.60,351.73 71.48,360.28 C71.48,367.78 71.50,380.19 70.89,383.71 C70.89,383.71 70.68,377.05 70.68,377.05" fill="none" stroke="rgb(0, 165, 255)" stroke-width="2.96" stroke-opacity="1.00" stroke-linejoin="round"/>
<path d="M100.35,353.03 C100.03,354.75 99.69,357.33 99.75,358.45 C99.80,359.36 101.53,367.12 101.82,371.33 C102.12,375.87 102.81,398.62 103.56,402.59 C103.62,403.02 103.61,403.40 103.53,403.73 C103.53,403.73 102.94,403.08 102.94,403.08" fill="none" stroke="rgb(0, 165, 255)" stroke-width="2.96" stroke-opacity="1.00" stroke-linejoin="round"/>
<path d="M257.91,366.26 C256.90,366.25 256.12,366.27 255.48,366.36 C252.59,366.78 249.05,367.74 246.54,368.96 C245.99,369.24 241.15,372.18 240.57,373.33 C240.10,374.32 239.85,380.06 239.89,380.37 C239.92,380.50 239.99,380.68 240.12,380.90" fill="none" stroke="rgb(71, 160, 85)" stroke-width="2.96" stroke-opacity="1.00" stroke-linejoin="round"/>
<path d="M281.57,360.85 C281.57,360.85 281.00,360.85 281.00,360.85 C281.00,360.85 280.89,360.77 280.89,360.77 C281.87,359.39 289.17,356.71 300.42,353.31 C308.22,350.93 316.56,349.67 319.37,350.28 C320.98,350.67 324.39,354.17 324.94,356.01 C325.08,356.51 325.23,358.06 325.27,358.60" fill="none" stroke="rgb(71, 160, 85)" stroke-width="2.96" stroke-opacity="1.00" stroke-linejoin="round"/>
<path d="M236.74,384.06 C238.37,383.04 239.02,382.66 239.71,382.47 C246.41,380.55 258.36,377.24 266.21,374.99 C273.81,372.77 289.57,367.18 292.50,366.26 C304.41,362.79 319.21,358.39 322.12,357.47 C322.12,357.47 321.66,357.47 321.66,357.47" fill="none" stroke="rgb(71, 160, 85)" stroke-width="2.96" stroke-opacity="1.00" stroke-linejoin="round"/>
<path d="M237.42,386.76 C237.42,386.76 237.75,385.86 237.75,385.86 C239.02,385.83 241.26,386.62 242.53,387.74 C255.00,398.85 261.07,407.91 261.92,408.90 C262.51,408.84 266.87,407.04 269.46,406.28 C281.59,403.03 300.34,397.82 308.02,396.19 C308.43,395.44 309.40,390.32 310.24,388.17 C312.59,382.16 322.90,362.82 322.70,362.38 C322.65,362.30 322.61,362.17 322.57,361.98" fill="none" stroke="rgb(71, 160, 85)" stroke-width="2.96" stroke-opacity="1.00" stroke-linejoin="round"/>
<path d="M277.74,395.99 C277.74,395.99 277.51,395.77 277.51,395.77 C277.92,397.29 279.42,403.53 279.72,404.06 C280.37,405.18 282.11,406.41 283.08,406.71 C284.19,407.01 286.24,406.43 287.54,405.50 C288.79,404.56 290.16,402.48 290.08,400.21 C289.96,397.70 289.52,395.41 289.24,394.68 C289.19,394.54 289.11,394.38 289.00,394.19" fill="none" stroke="rgb(71, 160, 85)" stroke-width="2.96" stroke-opacity="1.00" stroke-linejoin="round"/>
<path d="M235.84,385.63 C235.84,385.63 235.84,385.46 235.84,385.46 C236.21,387.78 236.54,394.87 236.67,396.07 C236.81,397.41 238.30,404.34 238.31,407.23 C237.89,417.55 237.48,428.99 237.94,429.95 C238.62,430.34 244.58,428.20 245.87,427.77 C250.72,426.17 264.42,423.76 267.96,423.01 C271.96,422.15 318.86,409.00 320.67,408.74 C322.87,408.44 328.73,407.91 329.09,407.70 C329.74,407.24 330.01,397.77 330.81,389.58 C331.19,385.26 331.00,370.22 329.05,364.75 C328.61,363.56 327.65,361.45 326.94,359.99 C326.94,359.99 325.94,360.18 325.94,360.18" fill="none" stroke="rgb(71, 160, 85)" stroke-width="2.96" stroke-opacity="1.00" stroke-linejoin="round"/>
<path d="M63.57,515.43 C63.57,515.43 62.61,513.05 62.61,513.05 C67.95,511.20 78.49,509.96 85.06,509.80 C106.98,509.76 122.28,508.66 125.43,508.36 C125.58,508.44 123.61,524.81 124.17,529.65 C124.32,530.82 129.11,558.39 129.74,558.47 C131.04,558.38 149.90,555.06 158.10,553.67 C170.43,551.81 195.53,551.42 202.57,551.44 C202.60,554.21 201.83,572.82 201.79,575.01 C201.69,579.86 203.05,591.26 203.45,598.03 C203.93,607.75 204.37,611.06 205.28,611.69 C207.91,611.48 227.56,608.25 232.51,608.04 C242.43,607.63 279.78,604.59 285.22,603.41 C286.53,603.13 296.28,600.82 297.45,600.64 C299.84,600.28 310.22,601.48 311.29,601.60 C311.29,601.60 310.34,630.58 310.34,630.58 C310.34,630.58 306.26,631.55 306.26,631.55" fill="none" stroke="rgb(7, 41, 12)" stroke-width="2.96" stroke-opacity="1.00" stroke-linejoin="round"/>
</g>
</svg>
