<?xml version="1.0" encoding="UTF-8" standalone="no"?>
<!DOCTYPE svg PUBLIC "-//W3C//DTD SVG 1.1//EN" "http://www.w3.org/Graphics/SVG/1.1/DTD/svg11.dtd">
<svg width="64.20" height="90.84" viewBox="0.00 0.00 535.00 757.00" xmlns="http://www.w3.org/2000/svg" xmlns:xlink="http://www.w3.org/1999/xlink">
<g stroke-linecap="round" id="33">
<path d="M135.01,354.87 C135.01,354.87 134.61,355.47 134.61,355.47 C135.12,358.29 136.15,362.48 137.82,366.95 C139.40,371.28 140.94,373.51 142.46,374.47 C144.11,375.45 147.63,376.49 149.83,376.47 C151.92,376.42 156.92,374.97 159.43,373.54 C161.57,372.28 164.92,367.85 165.74,365.70 C166.50,363.60 166.78,350.00 166.77,349.97 C166.74,349.87 166.61,349.65 166.38,349.31" fill="none" stroke="rgb(33, 228, 63)" stroke-width="3.45" stroke-opacity="1.00" stroke-linejoin="round"/>
<path d="M138.58,347.52 C138.61,348.77 138.48,350.49 138.38,351.66 C138.36,352.05 138.37,352.73 138.40,353.68 C138.40,353.68 138.78,353.08 138.78,353.08" fill="none" stroke="rgb(33, 228, 63)" stroke-width="3.45" stroke-opacity="1.00" stroke-linejoin="round"/>
<path d="M141.76,343.15 C141.76,343.34 141.76,343.57 141.76,343.85 C141.75,345.14 141.73,348.58 141.76,349.24 C141.78,349.67 141.85,350.36 141.96,351.33 C141.96,351.33 142.35,350.70 142.35,350.70" fill="none" stroke="rgb(33, 228, 63)" stroke-width="3.45" stroke-opacity="1.00" stroke-linejoin="round"/>
<path d="M145.13,342.75 C145.09,343.30 144.91,345.40 144.77,346.96 C144.56,349.53 144.55,350.84 144.68,352.00 C144.68,352.00 144.86,352.07 144.86,352.07 C144.86,352.07 145.33,351.09 145.33,351.09" fill="none" stroke="rgb(33, 228, 63)" stroke-width="3.45" stroke-opacity="1.00" stroke-linejoin="round"/>
<path d="M148.51,341.56 C148.45,342.93 148.38,343.82 148.01,347.47 C147.93,348.40 147.91,349.58 147.92,351.18 C147.92,351.18 148.31,351.49 148.31,351.49" fill="none" stroke="rgb(33, 228, 63)" stroke-width="3.45" stroke-opacity="1.00" stroke-linejoin="round"/>
<path d="M152.28,341.17 C152.28,341.17 152.38,341.07 152.38,341.07 C152.48,341.03 152.48,342.45 152.33,344.11 C152.19,345.30 151.94,347.66 151.89,348.86 C151.86,349.40 151.93,349.71 152.04,349.98 C152.04,349.98 152.88,349.11 152.88,349.11" fill="none" stroke="rgb(33, 228, 63)" stroke-width="3.45" stroke-opacity="1.00" stroke-linejoin="round"/>
<path d="M156.26,341.17 C156.26,341.51 156.26,341.85 156.26,342.19 C156.26,344.36 156.15,346.73 156.07,348.31 C156.06,348.71 156.07,349.20 156.10,349.80 C156.10,349.80 156.21,349.78 156.21,349.78 C156.21,349.78 156.65,348.12 156.65,348.12" fill="none" stroke="rgb(33, 228, 63)" stroke-width="3.45" stroke-opacity="1.00" stroke-linejoin="round"/>
<path d="M159.43,340.57 C159.47,341.29 158.93,345.80 159.08,348.74 C159.09,349.10 159.13,349.36 159.19,349.54 C159.19,349.54 159.55,349.61 159.55,349.61" fill="none" stroke="rgb(33, 228, 63)" stroke-width="3.45" stroke-opacity="1.00" stroke-linejoin="round"/>
<path d="M163.21,340.37 C162.71,341.78 162.22,344.41 162.21,348.20 C162.22,348.65 162.22,348.88 162.21,348.89 C162.20,348.94 162.15,349.18 162.06,349.60" fill="none" stroke="rgb(33, 228, 63)" stroke-width="3.45" stroke-opacity="1.00" stroke-linejoin="round"/>
<path d="M145.93,356.85 C145.93,356.85 145.83,356.85 145.83,356.85 C145.83,356.85 146.03,357.92 146.03,357.92 C146.03,357.92 146.13,357.13 146.13,357.13" fill="none" stroke="rgb(33, 228, 63)" stroke-width="3.45" stroke-opacity="1.00" stroke-linejoin="round"/>
<path d="M157.84,354.07 C157.32,354.33 156.91,354.64 156.82,355.11 C156.78,355.30 156.73,355.83 156.65,356.67 C156.93,356.67 157.05,356.44 157.04,355.89 C157.04,355.73 156.92,355.62 156.55,355.33" fill="none" stroke="rgb(33, 228, 63)" stroke-width="3.45" stroke-opacity="1.00" stroke-linejoin="round"/>
<path d="M151.89,362.41 C151.89,362.41 151.69,362.41 151.69,362.41 C151.69,362.41 151.69,362.69 151.69,362.69" fill="none" stroke="rgb(33, 228, 63)" stroke-width="3.45" stroke-opacity="1.00" stroke-linejoin="round"/>
<path d="M152.68,368.97 C152.68,368.97 152.48,369.02 152.48,369.02 C152.48,369.02 153.11,370.74 153.11,370.74 C153.11,370.74 153.28,369.32 153.28,369.32 C153.28,369.32 152.53,370.41 152.53,370.41 C152.53,370.41 152.94,370.24 152.94,370.24" fill="none" stroke="rgb(33, 228, 63)" stroke-width="3.45" stroke-opacity="1.00" stroke-linejoin="round"/>
<path d="M150.50,379.89 C150.50,379.89 150.50,388.41 150.50,388.41 C150.50,388.41 150.62,388.04 150.62,388.04" fill="none" stroke="rgb(33, 228, 63)" stroke-width="3.45" stroke-opacity="1.00" stroke-linejoin="round"/>
<path d="M150.89,386.64 C149.52,386.64 147.22,386.65 146.56,386.79 C144.43,387.25 135.18,390.03 133.55,390.77 C131.12,391.89 129.16,393.73 128.48,394.87 C126.43,398.51 126.73,408.19 127.35,409.52 C127.55,409.68 134.23,409.93 136.63,410.02 C137.66,410.04 137.93,409.87 138.64,408.01 C140.06,404.40 142.67,399.64 143.52,398.97 C143.52,398.97 146.30,423.68 146.30,423.68 C146.64,423.73 156.65,422.82 170.33,422.74 C174.01,422.73 177.02,422.53 177.20,422.51 C177.20,422.51 177.51,421.79 177.51,421.79" fill="none" stroke="rgb(33, 228, 63)" stroke-width="3.45" stroke-opacity="1.00" stroke-linejoin="round"/>
<path d="M156.26,379.89 C156.26,379.89 155.46,378.70 155.46,378.70 C155.46,378.70 156.38,385.39 156.38,385.39 C156.44,385.42 158.45,383.69 159.61,384.00 C160.17,384.17 165.64,388.66 166.20,388.51 C166.63,388.34 172.60,385.16 174.72,384.54 C176.69,383.98 180.12,384.03 180.75,384.25 C181.60,384.70 183.03,396.79 183.60,401.22 C183.60,401.22 171.48,402.14 171.48,402.14 C171.32,402.06 172.63,412.79 172.74,418.31 C172.74,418.34 172.74,418.46 172.74,418.42" fill="none" stroke="rgb(33, 228, 63)" stroke-width="3.45" stroke-opacity="1.00" stroke-linejoin="round"/>
<path d="M145.53,388.63 C145.53,388.63 145.23,388.63 145.23,388.63 C145.23,388.63 145.13,388.74 145.13,388.74 C145.30,389.65 146.36,391.69 148.56,393.18 C150.84,394.69 153.55,395.87 154.73,396.01 C156.16,396.12 159.33,394.65 161.91,392.63 C163.88,391.05 165.87,387.98 166.20,387.24 C166.25,387.11 166.31,386.98 166.38,386.84" fill="none" stroke="rgb(33, 228, 63)" stroke-width="3.45" stroke-opacity="1.00" stroke-linejoin="round"/>
<path d="M127.26,409.68 C127.26,409.68 127.06,409.68 127.06,409.68 C127.06,409.66 127.06,409.71 127.06,409.72 C127.05,411.84 126.30,423.37 125.87,427.75 C124.90,427.63 122.64,428.02 121.89,428.46 C120.14,429.54 118.67,433.39 119.31,434.53 C119.31,434.53 122.09,434.66 122.09,434.66 C122.09,434.66 122.65,439.13 122.65,439.13 C122.65,439.13 127.08,437.20 127.08,437.20 C127.29,437.27 129.25,438.53 130.14,438.12 C131.04,437.65 131.85,435.40 131.71,434.28 C131.54,433.22 130.96,432.30 128.65,430.38 C127.68,429.52 132.06,412.89 132.17,412.42 C132.19,412.34 132.21,412.29 132.23,412.26" fill="none" stroke="rgb(33, 228, 63)" stroke-width="3.45" stroke-opacity="1.00" stroke-linejoin="round"/>
<path d="M183.07,395.18 C183.07,395.18 183.07,395.38 183.07,395.38 C183.03,395.36 184.65,395.63 185.18,395.65 C187.88,395.72 193.10,393.54 195.63,392.49 C196.62,392.08 198.39,391.27 198.81,391.12 C199.20,390.94 198.76,380.79 199.22,380.33 C199.42,380.19 203.23,379.57 204.07,378.29 C204.60,377.37 204.67,374.17 204.26,373.24 C203.79,372.32 202.28,372.16 201.45,372.87 C199.97,374.20 198.63,376.72 198.56,376.75 C197.81,376.50 190.90,376.65 190.29,376.68 C186.07,376.85 185.16,378.11 184.99,378.71 C185.30,379.91 187.55,382.22 189.15,382.77 C189.89,383.02 191.73,383.52 191.72,383.59 C191.90,384.48 191.80,386.62 191.49,387.21 C190.88,388.14 184.73,388.06 182.87,387.87 C182.87,387.87 182.67,387.44 182.67,387.44" fill="none" stroke="rgb(33, 228, 63)" stroke-width="3.45" stroke-opacity="1.00" stroke-linejoin="round"/>
<path d="M146.13,424.77 C145.77,425.34 145.53,425.67 145.53,426.05 C146.07,439.16 147.91,456.42 148.47,458.31 C150.03,459.02 158.45,459.07 163.92,457.43 C163.92,457.43 164.11,448.60 164.11,448.60 C164.43,449.47 166.50,457.87 166.93,458.96 C167.19,459.61 168.20,460.69 169.70,460.72 C172.60,460.76 184.86,459.42 185.47,458.93 C186.88,443.61 187.41,431.90 186.18,428.19 C185.35,425.74 183.43,423.56 183.24,423.32 C183.19,423.25 183.13,423.14 183.07,422.99" fill="none" stroke="rgb(33, 228, 63)" stroke-width="3.45" stroke-opacity="1.00" stroke-linejoin="round"/>
<path d="M150.28,461.10 C150.28,461.10 150.10,460.75 150.10,460.75 C150.13,461.80 149.81,467.36 149.72,468.78 C149.30,477.07 148.37,485.90 148.34,486.42 C147.61,486.42 141.41,487.33 139.09,488.02 C137.02,488.65 135.37,490.16 135.10,490.90 C134.56,492.53 134.99,495.28 135.54,496.23 C136.10,497.13 137.78,498.13 139.03,498.39 C146.74,499.84 156.99,494.73 157.62,494.33 C157.84,493.78 157.19,477.37 157.20,474.91 C157.26,468.42 156.47,461.96 156.47,461.96 C156.42,462.02 156.38,462.06 156.36,462.10 C156.34,462.13 156.30,462.21 156.26,462.33" fill="none" stroke="rgb(33, 228, 63)" stroke-width="3.45" stroke-opacity="1.00" stroke-linejoin="round"/>
<path d="M142.37,488.35 C142.37,488.35 142.19,488.40 142.19,488.40 C142.72,489.04 147.37,491.10 148.01,491.08 C149.27,491.00 156.14,487.60 156.82,487.36 C157.01,487.30 157.23,487.22 157.49,487.12" fill="none" stroke="rgb(33, 228, 63)" stroke-width="3.45" stroke-opacity="1.00" stroke-linejoin="round"/>
<path d="M174.54,462.16 C174.57,462.22 174.39,462.49 174.37,462.84 C174.36,462.95 174.40,479.76 175.55,484.88 C176.50,489.01 178.05,491.04 178.75,491.63 C180.79,493.33 182.67,495.02 183.40,495.09 C184.07,495.13 196.84,493.86 199.34,492.43 C200.08,491.97 201.40,490.25 201.68,489.55 C202.01,488.66 201.56,486.57 200.76,485.81 C199.87,485.00 196.58,484.00 194.14,483.65 C191.42,483.28 186.62,482.86 185.37,482.51 C183.77,482.05 183.07,480.83 183.01,479.64 C183.00,479.33 182.77,463.84 182.63,459.09 C182.63,459.06 182.63,458.96 182.63,458.99" fill="none" stroke="rgb(33, 228, 63)" stroke-width="3.45" stroke-opacity="1.00" stroke-linejoin="round"/>
<path d="M184.74,483.43 C184.39,483.44 184.02,483.65 183.53,484.21 C182.23,485.65 180.19,485.98 177.15,485.88 C176.92,485.87 176.80,485.84 176.78,485.80 C176.78,485.80 176.83,485.37 176.83,485.37" fill="none" stroke="rgb(33, 228, 63)" stroke-width="3.45" stroke-opacity="1.00" stroke-linejoin="round"/>
<path d="M251.70,530.85 C251.70,530.85 251.48,530.78 251.48,530.78 C251.48,530.78 251.90,523.26 251.90,523.26 C251.90,523.26 257.01,526.16 257.01,526.16 C257.01,526.16 258.13,522.02 258.13,522.02 C258.69,522.00 262.10,523.62 262.97,523.39 C263.88,523.09 266.78,519.76 267.29,519.55 C267.85,519.59 270.01,522.09 270.45,522.24 C271.02,522.42 272.62,520.79 273.17,520.67 C273.42,520.73 274.93,522.49 275.47,522.70 C275.99,522.85 279.25,521.69 279.48,521.61 C279.94,521.47 281.03,522.00 281.24,522.41 C281.87,523.74 282.25,528.95 282.17,532.60 C282.09,535.77 281.19,540.22 280.09,542.32 C279.13,544.09 276.18,546.88 274.39,547.66 C272.74,548.35 268.98,548.89 266.88,548.39 C264.88,547.88 261.52,545.64 260.38,544.23 C257.74,540.88 256.18,534.84 255.34,529.95 C255.34,529.95 255.34,529.93 255.34,529.94" fill="none" stroke="rgb(33, 228, 63)" stroke-width="3.45" stroke-opacity="1.00" stroke-linejoin="round"/>
<path d="M264.60,549.06 C264.60,549.06 264.52,548.63 264.52,548.63 C264.52,548.63 264.02,557.53 264.02,557.53 C261.46,558.02 256.65,558.45 254.44,558.97 C252.44,559.45 236.13,564.29 235.88,564.41 C234.75,565.06 234.55,574.23 234.88,578.35 C235.01,579.87 236.00,588.61 236.31,590.06 C236.31,590.06 257.64,584.07 257.64,584.07 C257.82,584.56 258.09,592.34 258.58,595.67 C259.01,598.50 259.84,600.36 260.31,600.45 C265.45,601.08 290.73,598.23 292.90,597.20 C293.31,595.59 291.65,582.21 292.05,578.38 C292.23,576.87 292.51,574.49 292.60,574.30 C292.85,574.10 304.22,577.39 305.97,577.60 C307.04,577.72 308.13,577.48 308.17,577.41 C308.17,577.41 308.61,559.35 308.61,559.35 C308.57,559.26 293.39,555.05 287.58,553.86 C282.40,552.83 272.89,552.85 271.17,552.85 C271.13,552.86 270.92,551.88 270.90,551.85 C270.85,551.73 270.72,551.61 270.52,551.49" fill="none" stroke="rgb(33, 228, 63)" stroke-width="3.45" stroke-opacity="1.00" stroke-linejoin="round"/>
<path d="M258.68,559.53 C258.77,559.85 259.00,560.30 259.33,560.74 C260.13,561.76 265.88,565.56 267.80,565.43 C268.77,565.34 272.30,564.15 274.92,562.35 C276.66,561.12 277.57,556.40 277.54,556.33 C277.54,556.33 276.89,556.34 276.89,556.34" fill="none" stroke="rgb(33, 228, 63)" stroke-width="3.45" stroke-opacity="1.00" stroke-linejoin="round"/>
<path d="M273.71,568.94 C273.71,573.28 275.49,597.28 275.37,597.57 C275.37,597.58 275.32,597.65 275.22,597.77" fill="none" stroke="rgb(33, 228, 63)" stroke-width="3.45" stroke-opacity="1.00" stroke-linejoin="round"/>
<path d="M267.18,575.47 C267.18,575.47 267.08,574.61 267.08,574.61 C267.08,574.61 266.87,574.57 266.87,574.57 C266.87,574.57 266.82,577.30 266.82,577.30 C267.51,577.71 268.76,577.15 269.07,576.51 C269.59,575.33 268.25,575.01 267.95,575.00 C267.95,575.00 267.03,575.92 267.03,575.92" fill="none" stroke="rgb(33, 228, 63)" stroke-width="3.45" stroke-opacity="1.00" stroke-linejoin="round"/>
<path d="M268.39,585.18 C267.69,585.37 267.23,585.58 267.09,585.90 C266.68,586.88 267.08,587.83 267.42,588.18 C269.35,588.01 268.37,586.15 267.44,585.93 C267.44,585.93 266.76,586.92 266.76,586.92" fill="none" stroke="rgb(33, 228, 63)" stroke-width="3.45" stroke-opacity="1.00" stroke-linejoin="round"/>
<path d="M268.85,593.07 C268.85,593.07 268.89,594.33 268.89,594.33 C268.89,594.33 269.96,594.03 269.96,594.03 C269.73,593.62 269.61,593.51 269.17,593.42 C269.04,593.40 268.78,593.33 268.39,593.22" fill="none" stroke="rgb(33, 228, 63)" stroke-width="3.45" stroke-opacity="1.00" stroke-linejoin="round"/>
<path d="M260.81,602.48 C260.81,602.48 260.65,602.33 260.65,602.33 C260.60,602.38 260.50,602.72 260.50,603.26 C260.57,608.00 262.34,618.64 263.50,620.20 C263.50,620.20 282.45,618.55 282.45,618.55 C282.45,618.55 282.12,614.54 282.12,614.54 C282.51,614.94 284.26,618.03 284.89,618.68 C285.78,619.54 296.64,619.08 296.88,618.86 C297.13,618.56 297.23,615.22 297.21,609.54 C297.16,606.75 296.66,603.50 295.61,601.94 C294.25,599.95 293.44,598.57 293.43,598.53 C293.43,598.52 293.43,598.47 293.43,598.38" fill="none" stroke="rgb(33, 228, 63)" stroke-width="3.45" stroke-opacity="1.00" stroke-linejoin="round"/>
<path d="M265.23,621.93 C265.26,622.61 265.39,624.52 265.49,625.92 C265.67,628.28 265.81,631.86 265.94,632.06 C265.94,632.06 266.36,631.43 266.36,631.43" fill="none" stroke="rgb(33, 228, 63)" stroke-width="3.45" stroke-opacity="1.00" stroke-linejoin="round"/>
<path d="M273.58,621.21 C273.58,621.44 273.58,621.67 273.58,621.91 C273.58,623.60 273.45,625.72 273.47,626.48 C273.49,627.02 273.76,628.54 273.81,628.65 C273.83,628.69 273.89,628.75 273.99,628.82" fill="none" stroke="rgb(33, 228, 63)" stroke-width="3.45" stroke-opacity="1.00" stroke-linejoin="round"/>
<path d="M275.01,650.90 C275.01,650.90 274.84,650.84 274.84,650.84 C274.78,650.68 274.75,650.09 274.77,648.90 C274.90,642.67 274.10,632.20 274.40,630.75 C274.40,630.75 260.55,630.20 260.55,630.20 C260.55,630.20 260.33,643.57 260.33,643.57 C259.71,641.51 256.96,639.32 255.46,639.13 C254.03,638.96 251.39,640.21 250.72,641.62 C250.02,643.17 249.78,649.36 251.20,656.15 C251.57,657.84 251.76,658.46 251.87,658.46 C251.87,658.46 276.20,656.73 276.20,656.73 C276.20,656.73 276.32,656.39 276.32,656.39" fill="none" stroke="rgb(33, 228, 63)" stroke-width="3.45" stroke-opacity="1.00" stroke-linejoin="round"/>
<path d="M287.29,621.09 C287.25,621.11 287.16,622.20 287.10,623.44 C286.98,626.28 287.32,632.04 287.35,632.10 C287.35,632.10 287.88,631.70 287.88,631.70" fill="none" stroke="rgb(33, 228, 63)" stroke-width="3.45" stroke-opacity="1.00" stroke-linejoin="round"/>
<path d="M291.94,620.85 C291.63,621.49 291.10,624.85 291.48,628.38 C291.55,629.02 291.74,630.04 292.05,631.44 C292.05,631.44 292.15,631.46 292.15,631.46" fill="none" stroke="rgb(33, 228, 63)" stroke-width="3.45" stroke-opacity="1.00" stroke-linejoin="round"/>
<path d="M285.50,634.21 C285.50,634.21 285.02,634.43 285.02,634.43 C285.02,634.43 300.64,634.11 300.64,634.11 C300.64,634.11 301.30,643.15 301.30,643.15 C301.59,643.08 305.23,641.67 306.53,641.51 C307.83,641.36 309.54,641.62 310.23,641.95 C310.88,642.29 312.52,643.92 312.93,645.02 C313.49,646.62 313.21,650.24 312.35,653.75 C312.00,655.13 311.56,655.29 310.78,655.61 C309.48,656.14 302.27,659.76 300.23,660.14 C298.05,660.50 295.30,660.43 294.24,660.21 C293.49,660.03 293.07,659.17 292.21,656.09 C291.40,653.17 290.52,651.10 290.07,650.69 C288.55,649.42 287.58,648.05 287.34,647.10 C286.02,641.70 285.43,635.37 285.38,635.01 C285.37,634.94 285.33,634.87 285.26,634.80" fill="none" stroke="rgb(33, 228, 63)" stroke-width="3.45" stroke-opacity="1.00" stroke-linejoin="round"/>
<path d="M233.56,571.47 C233.33,571.49 233.18,571.35 233.17,571.34 C232.87,571.32 223.59,572.75 222.71,572.81 C222.64,572.74 222.34,569.85 222.03,568.85 C221.65,567.60 220.53,566.65 219.98,566.63 C216.13,566.69 216.18,573.84 216.30,574.77 C216.08,574.94 213.32,575.21 212.39,575.59 C211.38,576.03 210.44,577.23 210.38,578.01 C210.36,578.75 211.43,580.44 211.57,580.64 C211.74,580.89 211.61,582.20 211.66,582.53 C211.80,583.38 212.98,584.48 214.45,584.71 C215.29,584.82 222.62,584.62 223.06,583.90 C223.31,583.48 224.76,580.79 226.13,580.29 C227.80,579.71 235.05,578.37 235.12,578.32" fill="none" stroke="rgb(33, 228, 63)" stroke-width="3.45" stroke-opacity="1.00" stroke-linejoin="round"/>
<path d="M310.05,567.07 C309.95,567.07 309.86,567.07 309.76,567.07 C309.72,567.07 309.69,567.07 309.66,567.07 C309.66,567.07 320.88,567.30 320.88,567.30 C319.29,564.52 319.70,562.38 320.27,561.99 C320.95,562.07 322.04,563.45 322.68,565.26 C323.17,566.60 325.60,568.09 326.95,570.15 C328.40,572.41 328.51,576.12 328.16,577.86 C327.75,577.98 313.92,576.61 308.86,575.70 C307.85,575.52 307.13,575.38 306.68,575.28 C306.47,575.24 306.28,575.19 306.12,575.13" fill="none" stroke="rgb(33, 228, 63)" stroke-width="3.45" stroke-opacity="1.00" stroke-linejoin="round"/>
<path d="M305.38,299.84 C305.36,299.80 305.48,301.40 305.58,302.67 C305.68,304.08 305.88,306.67 305.97,307.87 C305.97,307.87 306.42,305.07 306.42,305.07" fill="none" stroke="rgb(33, 228, 63)" stroke-width="3.45" stroke-opacity="1.00" stroke-linejoin="round"/>
<path d="M308.72,298.86 C308.72,298.86 308.72,298.57 308.72,298.57 C308.86,300.00 308.89,302.52 309.01,303.42 C309.14,304.41 309.64,305.73 309.77,305.81 C309.77,305.81 311.07,303.76 311.07,303.76" fill="none" stroke="rgb(33, 228, 63)" stroke-width="3.45" stroke-opacity="1.00" stroke-linejoin="round"/>
<path d="M313.42,299.06 C313.42,300.18 313.42,303.26 313.52,303.93 C313.70,305.23 314.28,306.65 314.53,306.78 C314.53,306.78 314.99,305.92 314.99,305.92" fill="none" stroke="rgb(33, 228, 63)" stroke-width="3.45" stroke-opacity="1.00" stroke-linejoin="round"/>
<path d="M317.34,297.88 C317.45,298.07 317.52,298.37 317.54,298.80 C317.55,300.66 317.60,303.35 317.79,304.02 C317.98,304.64 318.29,305.12 318.73,305.62 C318.73,305.62 319.30,304.94 319.30,304.94" fill="none" stroke="rgb(33, 228, 63)" stroke-width="3.45" stroke-opacity="1.00" stroke-linejoin="round"/>
<path d="M321.66,298.86 C321.66,301.08 321.68,304.73 321.91,305.42 C322.20,306.28 322.68,306.91 323.14,307.17 C323.14,307.17 324.40,304.94 324.40,304.94" fill="none" stroke="rgb(33, 228, 63)" stroke-width="3.45" stroke-opacity="1.00" stroke-linejoin="round"/>
<path d="M326.36,297.49 C326.51,297.67 326.58,301.83 326.61,304.26 C326.64,305.20 327.04,307.21 327.10,307.85 C327.12,308.05 327.08,308.22 326.99,308.37" fill="none" stroke="rgb(33, 228, 63)" stroke-width="3.45" stroke-opacity="1.00" stroke-linejoin="round"/>
<path d="M307.34,306.12 C307.30,306.49 307.27,306.79 307.24,307.03 C306.96,310.73 306.93,314.06 307.74,317.19 C308.53,320.11 310.79,323.14 312.39,324.30 C313.76,325.24 316.71,325.96 318.21,325.61 C319.69,325.23 322.76,323.24 323.80,321.56 C325.93,317.98 326.44,308.47 326.32,308.29 C326.25,308.20 325.88,307.74 325.18,306.90" fill="none" stroke="rgb(33, 228, 63)" stroke-width="3.45" stroke-opacity="1.00" stroke-linejoin="round"/>
<path d="M313.03,312.78 C313.03,312.78 314.02,312.49 314.02,312.49" fill="none" stroke="rgb(33, 228, 63)" stroke-width="3.45" stroke-opacity="1.00" stroke-linejoin="round"/>
<path d="M319.89,312.78" fill="none" stroke="rgb(33, 228, 63)" stroke-width="3.45" stroke-opacity="1.00" stroke-linejoin="round"/>
<path d="M315.97,318.08 C315.97,318.84 315.97,320.96 315.97,321.10 C315.97,321.27 315.99,321.45 316.02,321.64 C316.02,321.64 316.47,321.98 316.47,321.98" fill="none" stroke="rgb(33, 228, 63)" stroke-width="3.45" stroke-opacity="1.00" stroke-linejoin="round"/>
<path d="M314.40,327.10 C314.40,327.10 314.11,327.10 314.11,327.10 C314.05,327.14 314.01,327.19 314.01,327.24 C313.97,327.55 313.62,333.00 313.62,334.35 C307.22,334.35 304.29,334.27 302.36,333.94 C299.97,333.49 297.28,331.10 296.35,328.51 C294.79,323.99 294.82,312.49 295.90,304.95 C296.93,298.06 298.00,293.72 297.96,293.79 C297.80,293.73 292.47,292.91 290.05,292.40 C287.71,291.92 286.25,292.39 285.94,293.08 C285.58,293.96 279.16,312.74 278.57,314.95 C277.73,318.15 277.02,322.74 276.81,326.33 C276.62,329.89 277.10,334.37 278.29,336.65 C279.22,338.38 283.32,343.03 285.36,344.67 C287.51,346.39 291.59,348.78 293.70,349.65 C295.95,350.55 301.43,351.33 301.72,351.49 C301.81,351.63 303.23,385.40 303.67,398.55 C303.93,406.91 304.85,410.23 305.97,410.96 C312.20,414.82 328.27,422.26 329.84,422.78 C329.97,422.82 330.09,422.87 330.20,422.93" fill="none" stroke="rgb(33, 228, 63)" stroke-width="3.45" stroke-opacity="1.00" stroke-linejoin="round"/>
<path d="M318.91,386.11 C317.92,387.09 317.76,388.88 317.69,392.89 C317.48,401.20 317.67,402.16 317.78,402.48 C317.78,402.48 341.03,412.79 341.03,412.79 C339.51,413.45 336.95,415.33 335.15,417.64 C333.42,419.90 330.67,425.23 330.03,427.56 C329.31,430.27 329.38,434.16 330.44,435.09 C331.27,435.76 334.02,436.18 335.01,435.83 C336.00,435.41 339.11,432.05 340.26,429.50 C341.86,425.84 341.89,414.81 341.75,414.05 C341.72,413.89 341.69,413.72 341.65,413.56" fill="none" stroke="rgb(33, 228, 63)" stroke-width="3.45" stroke-opacity="1.00" stroke-linejoin="round"/>
<path d="M319.89,385.72 C319.89,385.72 319.40,385.33 319.40,385.33 C319.40,385.33 319.30,385.33 319.30,385.33 C319.62,385.56 323.08,391.50 324.85,393.65 C326.78,395.96 329.75,398.56 330.28,398.66 C336.26,395.70 351.65,390.62 359.33,387.23 C359.58,387.12 359.83,387.01 360.08,386.90" fill="none" stroke="rgb(33, 228, 63)" stroke-width="3.45" stroke-opacity="1.00" stroke-linejoin="round"/>
<path d="M305.19,374.74 C305.19,374.74 304.40,374.94 304.40,374.94 C304.36,375.03 312.27,370.81 317.86,368.75 C324.20,366.44 330.54,365.91 330.86,365.92 C330.86,365.92 335.73,377.26 335.73,377.26 C336.09,377.30 346.97,374.90 353.53,374.19 C355.20,374.00 362.15,372.78 362.24,372.78 C362.24,372.78 362.42,373.14 362.42,373.14" fill="none" stroke="rgb(33, 228, 63)" stroke-width="3.45" stroke-opacity="1.00" stroke-linejoin="round"/>
<path d="M363.42,372.39 C363.35,372.39 363.29,372.39 363.22,372.39 C363.12,372.39 363.03,372.39 362.93,372.39 C362.67,372.41 363.78,388.99 364.86,392.31 C365.17,393.20 366.72,394.15 367.88,394.13 C368.86,394.08 370.69,392.16 371.31,389.60 C372.38,385.00 372.24,370.99 371.82,370.15 C371.40,369.94 363.89,371.11 363.32,371.16 C362.98,371.19 362.29,371.20 361.26,371.21" fill="none" stroke="rgb(33, 228, 63)" stroke-width="3.45" stroke-opacity="1.00" stroke-linejoin="round"/>
<path d="M321.46,327.10 C321.46,327.10 321.01,327.10 321.01,327.10 C320.85,327.43 320.58,333.66 321.07,334.51 C321.45,335.05 322.40,335.34 324.43,334.63 C326.54,333.88 333.42,331.01 333.95,330.63 C335.05,329.79 336.96,327.36 337.61,325.75 C338.35,323.84 338.90,317.15 338.66,313.15 C338.17,305.61 336.18,299.51 335.65,298.56 C335.65,298.56 347.54,294.78 347.54,294.78 C348.12,294.65 353.40,312.61 353.83,316.05 C354.21,319.14 354.42,332.37 353.58,335.14 C352.95,337.12 350.37,339.87 347.67,341.74 C345.64,343.14 340.50,346.96 338.80,348.10 C336.35,349.75 334.38,351.62 333.52,353.69 C332.51,356.23 331.13,363.95 330.94,364.75 C330.94,364.75 330.87,363.76 330.87,363.76" fill="none" stroke="rgb(33, 228, 63)" stroke-width="3.45" stroke-opacity="1.00" stroke-linejoin="round"/>
<path d="M304.99,336.31 C304.99,336.31 304.60,336.51 304.60,336.51 C304.60,336.50 304.60,336.53 304.60,336.54 C304.66,338.45 305.24,340.24 306.02,341.33 C306.83,342.38 309.38,343.51 312.39,343.70 C315.34,343.84 318.14,343.30 319.39,342.21 C320.29,341.38 322.14,337.61 323.14,334.14 C323.26,333.73 323.42,333.14 323.62,332.39" fill="none" stroke="rgb(33, 228, 63)" stroke-width="3.45" stroke-opacity="1.00" stroke-linejoin="round"/>
<path d="M288.91,291.41 C288.91,291.41 288.72,291.41 288.72,291.41 C288.42,291.16 288.28,290.39 288.34,289.09 C288.42,287.66 289.18,285.99 289.83,285.85 C289.83,285.85 292.41,288.78 292.41,288.78 C293.50,287.93 293.97,287.67 294.56,288.02 C295.08,288.39 295.68,290.71 295.77,291.59 C295.79,291.80 295.79,292.06 295.77,292.39" fill="none" stroke="rgb(33, 228, 63)" stroke-width="3.45" stroke-opacity="1.00" stroke-linejoin="round"/>
<path d="M335.58,297.29 C335.58,297.29 335.09,297.24 335.09,297.24 C334.68,296.77 334.00,295.86 333.50,295.02 C332.25,292.91 332.06,291.41 332.18,291.06 C334.23,290.25 336.18,292.23 336.97,293.37 C338.63,292.16 341.52,291.35 342.43,291.77 C343.35,292.25 344.59,294.52 344.86,295.92 C344.90,296.11 344.94,296.44 344.99,296.90" fill="none" stroke="rgb(33, 228, 63)" stroke-width="3.45" stroke-opacity="1.00" stroke-linejoin="round"/>
<path d="M216.67,509.79 C216.67,509.79 216.67,509.55 216.67,509.55 C216.39,507.10 216.17,502.06 216.69,500.77 C217.76,498.36 220.84,491.20 220.86,491.15 C221.79,489.20 225.06,485.22 227.15,483.32 C230.06,480.71 238.49,474.41 239.83,473.53 C241.52,472.41 259.21,464.42 260.94,463.74 C263.36,462.79 268.41,461.64 271.21,461.26 C274.08,460.89 277.89,461.12 280.52,461.98 C283.24,462.90 288.80,465.54 290.55,466.59 C292.78,467.95 296.57,471.38 298.52,473.42 C300.26,475.25 303.77,480.34 305.21,483.39 C306.63,486.43 308.13,491.65 308.52,494.96 C309.17,500.65 309.29,512.71 308.82,519.26 C308.70,519.23 304.75,517.61 301.98,517.07 C298.69,516.46 284.99,515.86 276.95,514.76 C270.37,513.90 257.11,512.28 250.04,512.28 C241.02,512.29 221.46,511.50 221.07,511.52 C220.86,511.54 220.42,511.59 219.75,511.68" fill="none" stroke="rgb(255, 242, 0)" stroke-width="3.45" stroke-opacity="1.00" stroke-linejoin="round"/>
<path d="M270.92,458.62 C270.92,458.62 271.16,458.62 271.16,458.62 C271.16,458.62 271.15,457.72 271.16,457.36 C271.28,454.45 272.30,450.92 273.74,447.90 C274.38,446.62 275.92,446.50 277.30,447.15 C278.06,447.55 278.79,448.56 278.90,449.49 C279.01,450.74 277.92,458.78 278.11,462.57 C278.14,462.96 278.17,463.23 278.21,463.39 C278.21,463.39 276.52,465.41 276.52,465.41" fill="none" stroke="rgb(255, 242, 0)" stroke-width="3.45" stroke-opacity="1.00" stroke-linejoin="round"/>
<path d="M271.16,463.59 C271.10,463.61 271.06,463.61 271.04,463.59 C270.58,463.45 267.78,466.35 264.63,470.81 C259.45,478.26 254.84,487.94 251.66,494.58 C247.59,503.16 246.23,509.39 246.03,510.72 C245.99,510.88 246.04,510.99 246.46,511.81" fill="none" stroke="rgb(255, 242, 0)" stroke-width="3.45" stroke-opacity="1.00" stroke-linejoin="round"/>
<path d="M279.21,464.07 C279.21,464.96 279.21,467.17 279.21,468.49 C279.20,472.71 279.67,477.51 280.55,480.50 C284.50,492.25 291.58,513.38 292.09,516.33 C292.12,516.50 292.09,516.61 292.00,516.66" fill="none" stroke="rgb(255, 242, 0)" stroke-width="3.45" stroke-opacity="1.00" stroke-linejoin="round"/>
<path d="M233.97,512.87 C233.97,512.87 233.85,512.39 233.85,512.39 C233.74,512.40 233.53,512.89 232.33,515.90 C229.60,522.63 223.82,536.93 222.75,540.87 C219.81,551.78 215.15,564.58 214.66,567.01 C213.91,570.94 213.69,576.26 214.59,578.24 C216.45,578.14 217.51,577.84 218.49,577.00 C219.60,576.00 220.73,574.50 221.19,573.25 C221.48,572.41 237.79,518.02 238.69,512.65 C238.73,512.37 238.82,511.65 238.94,510.50" fill="none" stroke="rgb(255, 242, 0)" stroke-width="3.45" stroke-opacity="1.00" stroke-linejoin="round"/>
<path d="M117.41,332.12 C117.41,332.12 115.99,330.46 115.99,330.46 C120.60,329.95 123.81,329.68 126.30,329.85 C128.36,330.01 142.39,331.65 145.26,332.24 C151.10,333.54 182.62,336.83 198.05,337.45 C219.19,338.38 227.15,339.42 233.20,340.67 C237.52,341.58 239.17,342.78 239.18,342.77 C239.27,336.07 238.60,325.72 237.01,319.22 C236.29,316.32 235.09,312.54 233.99,310.30 C232.91,308.18 230.04,303.89 228.18,301.74 C226.40,299.72 221.55,295.67 218.75,293.96 C212.31,290.08 202.28,286.23 194.88,284.44 C189.33,283.15 183.82,282.23 179.79,282.17 C178.17,282.15 170.74,282.34 168.27,282.63 C164.76,283.05 158.41,284.83 154.59,286.42 C151.56,287.71 145.41,291.10 143.00,293.01 C137.60,297.35 128.32,307.22 124.53,312.52 C122.13,315.89 119.15,321.27 118.57,322.77 C117.49,325.62 116.21,330.74 116.25,330.92 C116.31,331.20 116.59,331.94 117.09,333.16" fill="none" stroke="rgb(255, 242, 0)" stroke-width="3.45" stroke-opacity="1.00" stroke-linejoin="round"/>
<path d="M186.35,283.79 C186.11,283.58 186.11,278.73 186.26,277.35 C186.53,275.00 188.43,270.97 189.76,270.28 C191.16,269.61 193.30,270.88 193.96,272.06 C195.26,274.71 194.19,284.67 194.15,284.73 C194.01,284.93 193.47,285.56 192.54,286.62" fill="none" stroke="rgb(255, 242, 0)" stroke-width="3.45" stroke-opacity="1.00" stroke-linejoin="round"/>
<path d="M183.98,286.87 C183.98,286.87 183.98,286.75 183.98,286.75 C183.98,286.75 183.78,286.71 183.78,286.71 C182.85,287.32 179.00,291.20 176.79,294.55 C173.20,300.13 166.49,311.17 164.64,315.67 C162.47,321.10 162.14,329.18 162.33,330.59 C162.33,330.59 162.82,330.77 162.82,330.77" fill="none" stroke="rgb(255, 242, 0)" stroke-width="3.45" stroke-opacity="1.00" stroke-linejoin="round"/>
<path d="M190.38,286.63 C190.38,286.63 190.14,286.19 190.14,286.19 C190.93,290.27 196.09,304.76 197.06,309.72 C197.10,309.94 200.11,328.86 201.30,332.78 C201.57,333.68 201.78,334.29 201.93,334.61 C202.02,334.80 202.20,335.08 202.46,335.43" fill="none" stroke="rgb(255, 242, 0)" stroke-width="3.45" stroke-opacity="1.00" stroke-linejoin="round"/>
<path d="M193.22,285.45 C193.22,285.45 193.22,285.28 193.22,285.28 C193.65,286.03 198.77,288.98 199.43,289.47 C200.74,290.46 204.58,294.72 207.39,297.64 C211.05,301.47 216.19,311.08 218.22,316.68 C218.91,318.64 220.38,323.90 221.19,327.85 C221.43,329.03 221.75,330.84 221.88,331.60" fill="none" stroke="rgb(255, 242, 0)" stroke-width="3.45" stroke-opacity="1.00" stroke-linejoin="round"/>
<path d="M194.64,342.30 C194.64,342.30 194.40,341.12 194.40,341.12 C194.14,341.89 194.18,354.63 193.24,361.73 C191.07,378.22 193.83,383.29 194.12,383.36 C195.04,383.29 196.76,381.41 197.43,379.27 C198.73,375.00 199.80,362.00 199.20,355.85 C198.56,349.40 198.69,337.76 198.61,337.58 C198.55,337.43 198.25,336.80 197.72,335.67" fill="none" stroke="rgb(255, 242, 0)" stroke-width="3.45" stroke-opacity="1.00" stroke-linejoin="round"/>
<path d="M55.91,107.64 C55.91,107.64 53.66,107.73 53.66,107.73 C54.17,109.56 55.15,112.89 55.03,118.50 C54.37,144.77 54.47,227.75 54.99,240.98 C55.93,256.42 58.01,287.63 59.15,303.39 C60.33,323.10 60.40,379.99 60.40,393.48 C60.40,393.48 62.65,394.40 62.65,394.40" fill="none" stroke="rgb(0, 165, 255)" stroke-width="3.45" stroke-opacity="1.00" stroke-linejoin="round"/>
<path d="M43.93,410.12 C44.06,412.75 44.93,421.56 45.31,425.13 C46.22,433.15 47.68,445.57 49.03,451.93 C50.15,456.91 50.34,457.54 50.58,457.96 C50.58,457.96 51.76,451.34 51.76,451.34" fill="none" stroke="rgb(0, 165, 255)" stroke-width="3.45" stroke-opacity="1.00" stroke-linejoin="round"/>
<path d="M68.64,403.39 C68.01,403.94 67.64,404.36 67.51,404.63 C67.18,405.39 67.12,425.48 67.14,433.77 C67.72,455.79 69.29,465.31 70.17,469.21 C70.17,469.21 71.33,469.27 71.33,469.27" fill="none" stroke="rgb(0, 165, 255)" stroke-width="3.45" stroke-opacity="1.00" stroke-linejoin="round"/>
<path d="M106.07,518.69 C106.04,520.50 107.65,534.84 108.03,544.76 C108.22,553.05 108.30,566.30 108.32,570.72 C108.32,570.72 108.87,564.40 108.87,564.40" fill="none" stroke="rgb(0, 165, 255)" stroke-width="3.45" stroke-opacity="1.00" stroke-linejoin="round"/>
<path d="M171.21,544.15 C171.21,544.15 168.97,544.28 168.97,544.28 C168.97,544.28 170.46,578.12 170.46,578.12 C170.46,578.12 171.66,575.07 171.66,575.07" fill="none" stroke="rgb(0, 165, 255)" stroke-width="3.45" stroke-opacity="1.00" stroke-linejoin="round"/>
<path d="M245.34,398.14 C244.48,400.30 244.48,405.24 244.70,409.23 C245.21,416.37 246.32,431.52 246.93,439.52 C247.86,449.91 248.40,452.13 249.21,454.92 C249.21,454.92 250.58,452.05 250.58,452.05" fill="none" stroke="rgb(0, 165, 255)" stroke-width="3.45" stroke-opacity="1.00" stroke-linejoin="round"/>
<path d="M308.98,459.54 C308.79,458.80 308.05,457.27 307.48,456.73 C307.27,456.54 306.90,456.35 306.36,456.17 C305.96,458.94 305.48,468.47 303.44,480.61 C303.29,481.49 303.14,482.36 302.99,483.23 C302.99,483.23 302.49,480.35 302.49,480.35" fill="none" stroke="rgb(0, 165, 255)" stroke-width="3.45" stroke-opacity="1.00" stroke-linejoin="round"/>
<path d="M216.14,518.69 C215.64,518.46 215.36,523.14 215.34,528.93 C215.36,534.40 215.47,538.94 215.64,540.59 C215.64,540.59 217.23,536.61 217.23,536.61" fill="none" stroke="rgb(0, 165, 255)" stroke-width="3.45" stroke-opacity="1.00" stroke-linejoin="round"/>
<path d="M341.17,498.47 C341.17,498.47 339.74,517.12 339.74,517.12 C339.74,517.12 341.17,513.45 341.17,513.45" fill="none" stroke="rgb(0, 165, 255)" stroke-width="3.45" stroke-opacity="1.00" stroke-linejoin="round"/>
<path d="M377.11,501.47 C377.11,501.47 376.74,501.47 376.74,501.47 C376.74,501.47 379.43,552.98 379.43,552.98 C379.43,552.98 381.61,549.39 381.61,549.39" fill="none" stroke="rgb(0, 165, 255)" stroke-width="3.45" stroke-opacity="1.00" stroke-linejoin="round"/>
<path d="M421.29,574.10 C421.29,574.10 419.42,574.69 419.42,574.69 C418.88,576.72 418.45,578.52 417.82,581.50 C417.19,584.48 416.76,586.04 416.19,587.53 C416.19,587.53 417.55,586.08 417.55,586.08" fill="none" stroke="rgb(0, 165, 255)" stroke-width="3.45" stroke-opacity="1.00" stroke-linejoin="round"/>
<path d="M443.00,497.73 C442.53,502.74 442.23,507.47 442.20,512.01 C442.24,524.39 442.08,532.02 441.50,540.19 C441.50,540.19 441.01,537.86 441.01,537.86" fill="none" stroke="rgb(0, 165, 255)" stroke-width="3.45" stroke-opacity="1.00" stroke-linejoin="round"/>
<path d="M425.78,446.81 C425.78,446.81 424.28,446.81 424.28,446.81 C424.28,446.81 422.08,470.62 422.08,470.62 C422.08,470.62 423.54,464.78 423.54,464.78" fill="none" stroke="rgb(0, 165, 255)" stroke-width="3.45" stroke-opacity="1.00" stroke-linejoin="round"/>
<path d="M441.50,386.91 C441.50,386.91 441.50,386.54 441.50,386.54 C441.50,386.54 440.76,414.50 440.76,414.50 C440.76,414.50 441.50,413.12 441.50,413.12" fill="none" stroke="rgb(0, 165, 255)" stroke-width="3.45" stroke-opacity="1.00" stroke-linejoin="round"/>
<path d="M380.11,221.44 C380.11,221.44 378.99,222.44 378.99,222.44 C378.46,224.72 378.89,242.65 379.13,250.16 C379.50,258.11 380.87,276.78 381.55,279.73 C381.55,279.73 382.35,277.60 382.35,277.60" fill="none" stroke="rgb(0, 165, 255)" stroke-width="3.45" stroke-opacity="1.00" stroke-linejoin="round"/>
<path d="M437.76,219.95 C437.50,219.80 437.15,221.50 437.01,224.01 C436.82,227.51 438.47,282.25 438.48,283.25 C438.48,283.25 437.90,282.36 437.90,282.36" fill="none" stroke="rgb(0, 165, 255)" stroke-width="3.45" stroke-opacity="1.00" stroke-linejoin="round"/>
<path d="M373.37,84.42 C373.37,84.42 373.00,84.42 373.00,84.42 C372.06,85.46 371.25,91.33 371.24,94.67 C371.09,126.71 370.92,160.67 370.42,163.65 C370.42,163.65 369.81,163.79 369.81,163.79" fill="none" stroke="rgb(0, 165, 255)" stroke-width="3.45" stroke-opacity="1.00" stroke-linejoin="round"/>
<path d="M340.43,186.25 C340.43,186.25 340.05,186.25 340.05,186.25 C339.20,188.23 339.01,195.18 338.90,199.22 C338.55,209.86 337.15,215.15 336.58,216.82 C336.58,216.82 335.05,213.75 335.05,213.75" fill="none" stroke="rgb(0, 165, 255)" stroke-width="3.45" stroke-opacity="1.00" stroke-linejoin="round"/>
<path d="M299.25,112.88 C299.25,112.88 299.25,110.26 299.25,110.26 C299.17,110.24 299.11,110.34 299.06,110.54 C298.86,111.37 295.51,131.80 294.39,141.38 C293.06,155.41 292.57,184.31 292.47,201.15 C292.44,208.88 292.32,223.53 291.78,230.17 C291.78,230.17 291.76,226.76 291.76,226.76" fill="none" stroke="rgb(0, 165, 255)" stroke-width="3.45" stroke-opacity="1.00" stroke-linejoin="round"/>
<path d="M302.24,240.16 C302.24,240.16 301.49,238.66 301.49,238.66 C300.89,240.45 300.70,245.18 300.99,250.66 C301.70,261.05 302.47,265.21 303.09,265.88 C303.09,265.88 305.98,264.12 305.98,264.12" fill="none" stroke="rgb(0, 165, 255)" stroke-width="3.45" stroke-opacity="1.00" stroke-linejoin="round"/>
<path d="M317.96,255.14 C317.96,255.61 317.96,256.08 317.96,256.56 C318.02,260.69 318.84,267.89 319.58,270.12 C319.70,270.46 319.94,270.93 320.30,271.53 C320.30,271.53 321.71,271.61 321.71,271.61" fill="none" stroke="rgb(0, 165, 255)" stroke-width="3.45" stroke-opacity="1.00" stroke-linejoin="round"/>
<path d="M335.93,240.91 C335.18,241.46 332.92,245.52 332.56,248.17 C332.42,249.35 332.14,258.38 332.25,259.26 C332.31,259.68 332.48,260.41 332.76,261.47" fill="none" stroke="rgb(0, 165, 255)" stroke-width="3.45" stroke-opacity="1.00" stroke-linejoin="round"/>
<path d="M255.82,247.65 C255.84,269.48 256.53,278.56 256.56,305.86 C256.57,318.62 256.70,319.69 256.96,320.50 C256.96,320.50 257.78,319.41 257.78,319.41" fill="none" stroke="rgb(0, 165, 255)" stroke-width="3.45" stroke-opacity="1.00" stroke-linejoin="round"/>
<path d="M198.17,243.16 C198.17,243.16 196.79,243.41 196.79,243.41 C195.96,247.00 196.01,252.99 196.01,256.54 C196.22,268.00 196.78,274.98 197.31,277.07 C197.63,278.33 198.25,280.04 198.67,280.94" fill="none" stroke="rgb(0, 165, 255)" stroke-width="3.45" stroke-opacity="1.00" stroke-linejoin="round"/>
<path d="M144.26,244.65 C144.28,244.96 144.28,245.21 144.26,245.40 C143.69,249.58 143.55,266.72 143.51,274.93 C143.50,280.71 143.52,281.38 143.59,282.20 C143.59,282.20 145.01,282.09 145.01,282.09" fill="none" stroke="rgb(0, 165, 255)" stroke-width="3.45" stroke-opacity="1.00" stroke-linejoin="round"/>
<path d="M120.30,93.41 C118.74,94.11 117.56,96.46 117.28,100.44 C117.23,101.22 115.54,141.67 114.85,156.28 C114.27,175.62 114.75,203.77 116.21,215.70 C116.42,217.53 116.64,218.74 117.21,221.26 C117.21,221.26 119.67,222.69 119.67,222.69" fill="none" stroke="rgb(0, 165, 255)" stroke-width="3.45" stroke-opacity="1.00" stroke-linejoin="round"/>
<path d="M207.90,71.70 C207.90,71.70 207.90,70.95 207.90,70.95 C207.87,71.05 208.17,71.74 209.09,73.64 C211.23,78.13 212.79,82.54 213.25,85.55 C214.23,92.37 214.88,102.12 214.22,109.33 C212.47,128.29 211.31,154.32 210.94,169.62 C210.91,177.45 210.88,189.22 210.89,193.15 C210.89,193.15 211.64,192.99 211.64,192.99" fill="none" stroke="rgb(0, 165, 255)" stroke-width="3.45" stroke-opacity="1.00" stroke-linejoin="round"/>
<path d="M221.38,166.04 C221.38,166.04 220.41,166.04 220.41,166.04 C219.99,167.65 219.30,183.34 219.22,192.90 C219.21,197.47 219.20,203.46 219.19,204.88 C219.19,204.88 219.73,204.39 219.73,204.39" fill="none" stroke="rgb(0, 165, 255)" stroke-width="3.45" stroke-opacity="1.00" stroke-linejoin="round"/>
<path d="M283.97,284.36 C283.97,284.36 283.47,283.99 283.47,283.99 C283.48,283.78 284.86,280.71 285.25,279.95 C286.28,277.93 286.90,273.14 287.08,273.07 C290.12,272.18 316.62,270.49 334.53,270.61 C337.41,270.65 346.70,270.78 346.74,270.78 C347.83,270.83 349.07,272.26 348.92,274.12 C348.77,275.70 346.33,290.69 346.12,290.88 C344.37,291.84 332.58,290.93 327.42,290.48 C317.82,289.76 310.88,288.24 303.14,285.45 C298.11,283.63 289.03,281.50 287.11,280.71 C286.85,280.60 286.36,280.37 285.64,280.02" fill="none" stroke="rgb(86, 73, 61)" stroke-width="3.45" stroke-opacity="1.00" stroke-linejoin="round"/>
<path d="M284.21,285.11 C284.21,285.11 284.52,284.86 284.52,284.86 C284.57,284.85 284.67,284.88 284.81,284.94 C286.75,285.84 289.49,288.08 294.06,292.21 C296.21,294.16 298.15,297.01 298.53,297.11 C299.05,297.24 305.81,296.40 307.70,296.31 C309.58,296.23 317.06,296.74 320.01,296.80 C323.33,296.86 332.33,296.19 333.98,296.13 C338.82,295.95 344.05,297.21 344.15,297.20 C344.15,297.20 344.63,293.62 344.63,293.62 C344.94,294.05 346.26,296.03 346.41,296.22 C347.11,297.06 349.63,297.20 351.09,296.36 C353.99,294.63 355.56,289.24 355.30,288.51 C353.12,284.20 349.97,277.46 349.83,276.90 C349.83,276.90 348.28,276.92 348.28,276.92" fill="none" stroke="rgb(86, 73, 61)" stroke-width="3.45" stroke-opacity="1.00" stroke-linejoin="round"/>
<path d="M322.74,280.41 C322.10,279.44 313.74,275.26 311.62,275.56 C310.52,275.74 309.30,276.81 309.12,277.64 C308.93,278.68 309.03,280.35 309.45,281.13 C310.28,282.61 314.76,284.65 317.06,285.03 C318.79,285.30 322.23,285.10 323.35,284.72 C324.42,284.35 325.99,282.97 326.20,282.19 C326.40,281.20 322.76,278.09 319.93,277.08 C319.44,276.91 318.72,276.79 317.78,276.74" fill="none" stroke="rgb(86, 73, 61)" stroke-width="3.45" stroke-opacity="1.00" stroke-linejoin="round"/>
<path d="M243.62,657.69 C243.46,657.49 242.48,656.82 242.08,656.54 C239.49,654.76 236.73,654.08 234.97,654.59 C233.42,655.05 227.88,658.03 226.95,658.99 C225.84,660.18 224.93,663.18 225.26,664.87 C225.49,665.88 226.19,667.04 226.92,667.54 C227.54,667.96 229.86,668.38 231.26,668.61 C232.12,668.81 232.84,672.30 233.25,674.53 C233.56,675.95 234.67,678.11 235.57,678.76 C236.60,679.47 239.65,680.32 241.15,680.40 C242.11,680.43 247.99,679.75 249.50,679.88 C251.90,680.10 257.47,681.66 260.32,682.32 C261.47,682.58 281.51,685.76 282.82,685.67 C284.58,685.53 287.75,683.23 288.50,682.07 C288.95,681.37 290.11,679.31 290.43,678.99 C291.52,677.96 294.68,676.92 296.65,677.16 C297.55,677.28 302.34,679.29 303.76,679.25 C304.61,679.18 306.03,678.57 306.85,677.90 C307.82,677.08 310.43,672.29 311.32,672.08 C314.92,671.49 320.04,670.56 321.53,669.42 C322.81,668.38 325.39,664.98 326.09,663.35 C326.73,661.81 326.99,659.49 326.56,658.68 C326.23,658.11 323.62,656.28 322.15,655.35 C322.15,655.35 320.64,655.76 320.64,655.76" fill="none" stroke="rgb(0, 0, 255)" stroke-width="3.45" stroke-opacity="1.00" stroke-linejoin="round"/>
<path d="M318.92,643.96 C319.90,642.98 321.31,641.56 321.62,641.43 C321.76,641.37 322.36,641.14 323.43,640.74 C323.43,640.74 323.43,641.17 323.43,641.17" fill="none" stroke="rgb(0, 0, 255)" stroke-width="3.45" stroke-opacity="1.00" stroke-linejoin="round"/>
<path d="M321.71,648.89 C321.71,648.89 321.71,648.68 321.71,648.68 C321.71,648.68 327.26,647.24 327.26,647.24 C327.26,647.24 327.14,647.18 327.14,647.18" fill="none" stroke="rgb(0, 0, 255)" stroke-width="3.45" stroke-opacity="1.00" stroke-linejoin="round"/>
<path d="M239.76,636.88 C239.76,636.88 240.40,636.13 240.40,636.13 C240.38,636.08 240.33,636.02 240.26,635.95 C239.77,635.45 238.74,634.61 237.80,633.98 C235.53,632.55 232.94,630.90 232.73,630.72 C232.73,630.72 233.40,631.55 233.40,631.55" fill="none" stroke="rgb(0, 0, 255)" stroke-width="3.45" stroke-opacity="1.00" stroke-linejoin="round"/>
<path d="M232.68,642.46 C232.55,641.98 232.45,641.64 232.35,641.44 C231.94,640.51 227.62,633.91 227.35,633.20 C227.35,633.20 227.65,633.70 227.65,633.70" fill="none" stroke="rgb(0, 0, 255)" stroke-width="3.45" stroke-opacity="1.00" stroke-linejoin="round"/>
<path d="M51.13,468.55 C51.13,468.55 50.98,467.96 50.98,467.96 C50.08,468.07 49.75,468.14 49.23,468.65 C40.28,477.22 39.44,477.86 38.81,478.28 C38.56,478.28 35.80,475.25 34.79,474.89 C33.72,474.56 31.89,475.38 31.34,476.49 C30.84,477.54 30.78,479.70 31.16,481.02 C31.67,482.46 35.22,485.01 38.36,485.51 C40.80,485.86 45.98,485.88 48.24,485.11 C50.59,484.26 53.77,481.25 54.25,479.05 C55.03,475.04 53.32,471.49 53.12,471.26 C53.12,471.26 51.38,472.24 51.38,472.24" fill="none" stroke="rgb(0, 0, 255)" stroke-width="3.45" stroke-opacity="1.00" stroke-linejoin="round"/>
<path d="M100.86,567.48 C100.86,567.48 100.56,568.07 100.56,568.07 C100.14,568.23 99.81,568.33 99.56,568.37 C96.28,568.73 92.21,569.94 90.45,571.08 C88.53,572.38 86.46,574.45 86.05,575.65 C85.51,577.33 86.63,579.33 87.54,579.84 C88.75,580.45 94.35,580.67 97.88,579.77 C100.76,579.01 105.96,576.34 108.24,574.99 C111.08,573.28 113.65,571.08 114.49,569.29 C115.28,567.50 114.83,564.00 113.25,562.50 C112.35,561.69 109.82,560.41 108.46,560.16 C106.93,559.90 103.91,560.27 102.15,560.86 C99.55,561.81 98.93,563.38 98.31,564.84" fill="none" stroke="rgb(0, 0, 255)" stroke-width="3.45" stroke-opacity="1.00" stroke-linejoin="round"/>
<path d="M431.26,533.64 C430.31,532.79 428.61,532.10 427.13,532.49 C425.30,533.04 421.87,535.98 420.66,538.25 C419.62,540.26 419.12,544.19 419.61,545.73 C420.15,547.27 422.29,548.95 424.04,549.29 C425.42,549.54 438.35,549.64 444.31,549.73 C449.51,549.71 461.88,546.77 466.47,546.56 C471.40,546.45 474.81,545.96 475.94,545.12 C476.75,544.47 476.76,542.87 475.42,541.18 C472.96,538.16 468.29,533.93 466.73,533.28 C464.87,532.57 461.61,532.22 458.85,532.37 C455.73,532.57 447.24,533.16 446.80,533.18 C446.46,533.19 445.87,533.20 445.02,533.20" fill="none" stroke="rgb(0, 0, 255)" stroke-width="3.45" stroke-opacity="1.00" stroke-linejoin="round"/>
<path d="M13.87,70.09 C12.68,69.66 11.94,69.38 11.66,69.25 C10.96,68.89 10.64,68.26 10.27,66.94 C9.18,63.12 7.79,62.05 6.33,61.86 C6.14,61.84 5.78,61.82 5.27,61.80 C5.12,60.37 5.37,59.47 6.33,58.54 C7.93,57.02 11.33,54.55 14.56,53.57 C15.98,54.22 17.19,55.62 18.04,57.85 C18.28,58.48 21.03,68.50 21.42,69.77 C21.80,71.01 24.20,76.73 26.23,77.88 C28.14,78.90 33.52,77.84 36.79,76.53 C41.88,74.47 48.64,71.46 52.15,69.54 C52.71,69.23 61.36,64.59 64.37,64.15 C69.39,63.48 84.76,64.21 90.38,63.37 C94.40,62.74 111.17,57.58 114.17,56.00 C117.05,54.39 123.29,50.97 125.78,51.18 C127.57,51.37 135.68,54.38 138.79,55.21 C146.59,57.25 160.10,57.32 163.37,56.58 C164.17,56.40 182.16,50.92 186.10,50.36 C189.27,49.93 209.70,50.34 212.22,50.07 C214.42,49.80 222.32,46.08 223.72,45.47 C226.77,44.16 232.24,44.06 235.97,44.85 C239.38,45.62 253.37,51.06 258.37,51.90 C262.24,52.52 310.74,53.21 317.26,54.24 C319.03,54.52 340.23,58.26 347.11,59.04 C361.22,60.54 390.42,64.11 393.36,63.99 C393.95,63.96 411.35,60.79 418.72,59.58 C428.52,58.02 439.27,55.82 443.31,53.93 C445.39,52.98 446.71,53.18 450.67,55.00 C459.53,59.18 467.86,62.01 473.96,62.41 C475.14,62.47 483.52,62.17 485.40,61.42 C485.40,61.42 487.42,62.59 487.42,62.59" fill="none" stroke="rgb(0, 0, 255)" stroke-width="3.45" stroke-opacity="1.00" stroke-linejoin="round"/>
</g>
</svg>
