<?xml version="1.0" encoding="UTF-8" standalone="no"?>
<!DOCTYPE svg PUBLIC "-//W3C//DTD SVG 1.1//EN" "http://www.w3.org/Graphics/SVG/1.1/DTD/svg11.dtd">
<svg width="64.20" height="90.84" viewBox="0.00 0.00 535.00 757.00" xmlns="http://www.w3.org/2000/svg" xmlns:xlink="http://www.w3.org/1999/xlink">
<g stroke-linecap="round" id="35">
<path d="M293.13,322.30 C293.10,322.29 290.94,313.39 289.93,309.75 C289.32,307.60 286.72,302.62 285.21,300.37 C283.52,297.91 280.23,294.94 276.87,293.51 C274.12,292.36 270.00,291.25 266.66,291.00 C262.96,290.75 256.75,291.65 254.37,292.54 C252.00,293.46 248.48,295.16 247.39,296.03 C245.04,297.94 241.58,302.40 240.60,304.17 C239.17,306.83 236.30,316.82 236.34,319.26 C232.65,319.49 229.26,319.82 227.16,320.04 C224.57,320.28 218.80,320.47 215.81,321.67 C214.38,322.26 213.09,323.49 212.91,324.45 C212.63,326.18 214.51,329.58 216.55,330.72 C217.99,331.45 221.07,331.73 226.46,331.79 C239.75,331.88 259.90,332.39 266.76,332.81 C269.67,332.82 287.01,331.27 292.30,331.23 C299.54,331.20 303.87,331.05 307.82,330.35 C310.24,329.91 314.14,328.71 314.35,328.37 C314.72,327.62 314.59,325.35 313.99,323.99 C313.35,322.63 310.68,320.73 308.58,320.10 C306.48,319.50 301.96,318.86 299.90,319.00 C297.85,319.17 295.21,320.06 294.69,320.16 C294.40,320.22 293.82,320.28 292.95,320.33" fill="none" stroke="rgb(33, 228, 63)" stroke-width="3.10" stroke-opacity="1.00" stroke-linejoin="round"/>
<path d="M237.59,333.91 C237.59,333.91 237.02,333.91 237.02,333.91 C236.65,334.16 236.25,335.91 236.41,337.04 C236.59,338.09 237.83,339.36 238.74,339.49 C241.26,339.79 244.55,338.71 245.95,337.51 C245.96,337.51 246.89,336.63 246.88,336.64 C247.41,337.92 249.57,339.69 251.17,340.13 C252.83,340.55 255.58,340.08 256.92,339.15 C257.84,338.50 258.97,337.16 259.02,337.12 C259.58,337.85 261.72,339.21 263.32,339.64 C266.51,340.46 269.07,338.28 270.09,337.32 C270.38,337.54 274.42,338.96 276.42,339.12 C280.65,339.39 284.04,336.62 284.10,336.60 C284.68,336.70 288.01,336.85 289.00,336.61 C290.42,336.25 292.07,333.81 292.15,333.00 C292.17,332.78 291.95,332.16 291.88,331.94" fill="none" stroke="rgb(33, 228, 63)" stroke-width="3.10" stroke-opacity="1.00" stroke-linejoin="round"/>
<path d="M238.67,339.08 C238.67,339.08 238.23,339.11 238.23,339.11 C238.11,339.30 237.69,342.42 238.22,344.19 C239.44,348.10 240.09,349.91 242.30,353.81 C244.55,357.71 247.75,361.10 250.16,362.50 C252.15,363.62 256.67,365.25 258.51,365.53 C260.43,365.81 264.34,365.29 266.60,364.51 C269.31,363.55 275.06,360.18 277.65,357.92 C278.87,356.83 280.55,354.45 282.07,351.10 C284.26,346.18 285.18,339.14 285.16,339.04 C285.16,339.04 283.84,337.65 283.84,337.65" fill="none" stroke="rgb(33, 228, 63)" stroke-width="3.10" stroke-opacity="1.00" stroke-linejoin="round"/>
<path d="M248.31,347.83 C248.19,347.84 247.98,347.81 247.86,347.74 C247.83,347.73 247.80,347.70 247.77,347.65 C247.87,346.96 248.82,345.94 249.95,345.55 C252.38,344.76 255.76,345.93 255.99,346.08 C256.09,346.14 256.33,346.31 256.70,346.58" fill="none" stroke="rgb(33, 228, 63)" stroke-width="3.10" stroke-opacity="1.00" stroke-linejoin="round"/>
<path d="M262.41,347.65 C262.41,347.65 262.15,347.65 262.15,347.65 C262.08,347.61 261.64,349.10 261.46,349.72 C260.73,352.14 260.66,352.59 260.70,352.78 C261.03,352.97 261.39,353.12 261.65,353.16 C261.73,353.17 261.86,353.18 262.05,353.19" fill="none" stroke="rgb(33, 228, 63)" stroke-width="3.10" stroke-opacity="1.00" stroke-linejoin="round"/>
<path d="M267.59,345.51 C267.72,345.14 267.86,344.87 268.13,344.67 C269.24,343.87 272.94,342.65 274.00,342.59 C274.81,342.57 277.80,343.73 278.46,344.51 C278.54,344.62 278.61,344.77 278.66,344.98" fill="none" stroke="rgb(33, 228, 63)" stroke-width="3.10" stroke-opacity="1.00" stroke-linejoin="round"/>
<path d="M258.13,358.37 C263.73,358.93 266.80,357.57 267.41,357.30 C267.41,357.30 267.41,356.94 267.41,356.94" fill="none" stroke="rgb(33, 228, 63)" stroke-width="3.10" stroke-opacity="1.00" stroke-linejoin="round"/>
<path d="M259.38,365.33 C259.35,365.51 259.56,369.93 258.71,372.87 C257.61,376.54 256.68,378.14 255.35,379.29 C253.94,380.43 250.88,380.52 250.09,380.51" fill="none" stroke="rgb(33, 228, 63)" stroke-width="3.10" stroke-opacity="1.00" stroke-linejoin="round"/>
<path d="M274.73,361.58 C274.34,363.50 274.20,366.80 274.05,369.45 C273.95,371.64 275.22,374.29 276.49,375.69 C277.17,376.41 281.24,379.41 282.69,380.47 C282.69,380.47 282.77,379.97 282.77,379.97" fill="none" stroke="rgb(33, 228, 63)" stroke-width="3.10" stroke-opacity="1.00" stroke-linejoin="round"/>
<path d="M252.24,380.15 C252.24,380.15 252.06,380.15 252.06,380.15 C252.17,380.65 253.09,382.46 254.13,383.25 C256.48,385.00 261.50,386.63 263.13,386.89 C265.08,387.18 268.85,386.90 273.31,385.65 C276.37,384.76 279.66,383.01 281.34,381.09 C281.34,381.09 281.34,380.51 281.34,380.51" fill="none" stroke="rgb(33, 228, 63)" stroke-width="3.10" stroke-opacity="1.00" stroke-linejoin="round"/>
<path d="M251.52,381.22 C251.35,381.24 251.23,381.24 251.15,381.22 C250.99,381.18 248.05,380.09 245.53,380.18 C239.91,380.43 227.57,384.97 223.81,384.63 C221.85,384.39 219.83,383.24 217.31,380.43 C215.06,377.87 210.57,371.57 208.43,368.64 C206.57,366.00 204.85,361.05 204.26,358.34 C203.94,356.78 200.82,342.20 199.38,339.98 C199.38,339.97 199.41,339.98 199.38,339.80 C198.79,340.00 192.95,342.40 191.26,342.87 C188.81,343.51 183.59,343.47 180.63,342.84 C180.56,345.29 182.54,359.70 183.64,363.93 C184.36,366.55 189.65,381.76 191.20,384.16 C194.56,389.30 200.53,395.23 207.92,401.56 C211.13,404.39 215.66,408.07 217.91,409.88 C220.74,412.16 224.67,414.18 228.15,415.05 C229.40,415.36 231.15,415.57 234.27,415.87 C234.27,415.87 233.84,416.04 233.84,416.04" fill="none" stroke="rgb(33, 228, 63)" stroke-width="3.10" stroke-opacity="1.00" stroke-linejoin="round"/>
<path d="M234.47,415.97 C234.47,415.97 234.36,415.97 234.36,415.97 C234.32,415.98 230.54,430.62 229.39,434.33 C226.15,444.69 221.79,456.01 221.60,456.55 C219.60,462.19 214.96,479.30 214.30,481.48 C213.38,484.47 201.31,515.45 200.84,517.15 C199.91,520.59 199.04,529.24 199.30,533.59 C199.30,533.59 206.25,533.37 206.25,533.37 C206.21,534.12 210.63,535.40 213.59,535.92 C218.32,536.74 234.76,537.75 237.96,537.92 C242.11,538.20 244.30,538.55 246.77,539.83 C249.84,541.25 256.11,542.12 258.92,542.29 C264.48,542.57 280.69,543.00 289.51,543.19 C301.02,543.40 310.12,542.87 316.93,542.47 C324.87,541.87 334.58,540.54 334.84,540.53 C334.81,536.19 335.24,530.65 335.47,527.94 C335.57,526.22 334.31,519.53 334.19,518.76 C333.64,515.18 333.47,504.54 333.43,503.73 C333.36,502.61 330.45,482.89 329.81,480.44 C328.87,476.89 323.21,465.95 321.48,460.50 C320.75,458.17 320.75,457.66 320.71,457.56 C320.68,457.48 320.57,457.28 320.39,456.94" fill="none" stroke="rgb(33, 228, 63)" stroke-width="3.10" stroke-opacity="1.00" stroke-linejoin="round"/>
<path d="M297.20,410.37 C299.14,412.62 309.55,430.83 311.66,434.19 C313.36,436.92 317.19,445.39 318.31,447.28 C318.37,447.37 318.43,447.47 318.49,447.56" fill="none" stroke="rgb(33, 228, 63)" stroke-width="3.10" stroke-opacity="1.00" stroke-linejoin="round"/>
<path d="M315.35,449.80 C315.35,449.80 314.90,449.64 314.90,449.64 C319.03,452.66 323.60,455.72 324.52,456.63 C325.47,457.58 331.94,466.39 332.36,466.80 C332.30,466.92 337.80,463.52 340.38,462.08 C343.29,460.48 350.46,459.43 350.67,459.35 C351.32,457.69 349.43,448.41 348.30,443.08 C347.44,438.62 343.21,425.20 342.34,423.15 C340.70,419.29 336.71,412.00 331.27,405.93 C328.16,402.51 325.71,400.03 322.72,397.79 C319.31,395.22 314.05,389.46 312.93,388.56 C309.68,385.98 301.07,381.88 294.82,380.04 C293.40,379.64 286.36,377.22 284.03,377.02 C283.92,377.01 283.76,377.00 283.54,376.99" fill="none" stroke="rgb(33, 228, 63)" stroke-width="3.10" stroke-opacity="1.00" stroke-linejoin="round"/>
<path d="M265.17,388.87 C265.17,388.87 264.94,388.87 264.94,388.87 C265.11,390.22 265.76,408.58 265.69,409.95 C265.66,410.62 264.41,425.55 264.13,435.64 C263.82,451.09 263.84,471.13 264.84,491.98 C265.16,501.24 265.14,512.68 264.49,517.06 C263.33,524.77 263.13,530.20 264.05,536.78 C264.05,536.78 264.27,536.05 264.27,536.05" fill="none" stroke="rgb(33, 228, 63)" stroke-width="3.10" stroke-opacity="1.00" stroke-linejoin="round"/>
<path d="M270.09,424.93 C270.09,424.93 269.65,424.71 269.65,424.71 C269.22,425.27 268.65,429.57 269.00,430.75 C269.35,431.78 270.99,432.38 272.00,432.03 C273.00,431.65 274.27,430.19 274.36,429.33 C274.41,428.58 273.59,426.88 272.43,425.96 C272.22,425.79 271.80,425.49 271.19,425.07" fill="none" stroke="rgb(33, 228, 63)" stroke-width="3.10" stroke-opacity="1.00" stroke-linejoin="round"/>
<path d="M272.56,444.43 C272.56,444.43 271.33,444.54 271.33,444.54 C270.97,445.17 270.45,448.78 270.68,449.46 C271.07,450.46 273.07,451.29 274.19,450.54 C275.24,449.79 276.32,447.12 276.14,446.22 C275.92,445.34 275.14,444.88 274.22,444.48 C274.22,444.48 272.83,444.97 272.83,444.97" fill="none" stroke="rgb(33, 228, 63)" stroke-width="3.10" stroke-opacity="1.00" stroke-linejoin="round"/>
<path d="M275.25,466.83 C274.23,466.82 272.94,467.46 272.37,468.07 C271.49,469.06 271.16,472.86 271.76,473.75 C272.47,474.68 274.81,474.29 275.93,473.00 C276.40,472.43 277.05,471.22 277.37,470.35 C277.65,469.54 277.53,468.68 277.03,467.24 C277.03,467.24 275.05,466.25 275.05,466.25" fill="none" stroke="rgb(33, 228, 63)" stroke-width="3.10" stroke-opacity="1.00" stroke-linejoin="round"/>
<path d="M182.72,342.49 C182.72,342.49 182.50,342.49 182.50,342.49 C182.55,342.07 183.30,339.49 183.50,335.80 C183.64,333.01 183.61,332.50 182.90,332.08 C181.56,331.28 179.07,328.62 177.86,326.29 C176.76,324.13 176.71,323.09 176.82,322.85 C176.82,322.85 182.74,325.72 182.74,325.72 C181.00,319.36 181.65,317.21 182.24,316.96 C184.00,317.18 186.19,321.39 187.38,323.87 C187.38,323.87 188.13,315.15 188.13,315.15 C189.57,315.37 191.61,321.07 192.26,323.97 C192.33,323.87 192.49,319.43 192.56,318.81 C192.86,316.05 194.33,313.71 195.05,313.39 C195.72,313.16 196.92,314.21 197.81,315.88 C198.77,317.74 199.62,322.41 199.70,324.60 C199.86,330.40 198.35,340.23 198.24,340.95 C198.20,341.17 198.18,341.44 198.18,341.75" fill="none" stroke="rgb(33, 228, 63)" stroke-width="3.10" stroke-opacity="1.00" stroke-linejoin="round"/>
<path d="M335.96,465.93 C335.81,465.95 335.54,465.90 335.40,465.82 C335.36,465.80 335.32,465.76 335.29,465.71 C335.29,465.70 335.29,465.73 335.29,465.74 C335.29,473.33 335.73,479.70 337.28,480.71 C337.38,480.77 337.57,480.82 337.85,480.87 C337.85,480.87 339.27,470.93 339.27,470.93 C339.48,471.10 341.50,477.08 342.75,478.99 C343.05,479.44 343.41,479.58 343.89,479.65 C343.89,479.65 345.97,472.43 345.97,472.43 C345.97,472.43 348.60,477.66 348.60,477.66 C349.70,477.36 350.18,474.79 350.35,472.08 C350.37,471.84 350.41,471.53 350.48,471.13 C350.48,471.13 354.61,479.25 354.61,479.25 C355.37,479.05 355.84,475.01 355.61,472.69 C355.08,467.86 350.34,461.10 349.45,460.08 C349.23,459.83 348.99,459.62 348.73,459.44" fill="none" stroke="rgb(33, 228, 63)" stroke-width="3.10" stroke-opacity="1.00" stroke-linejoin="round"/>
<path d="M248.93,542.30 C248.93,542.30 248.66,542.11 248.66,542.11 C248.56,542.14 248.53,543.00 248.58,545.00 C248.75,550.41 250.67,557.91 252.47,566.71 C253.31,570.77 254.46,574.91 254.77,575.53 C254.83,575.65 254.93,575.73 255.06,575.76" fill="none" stroke="rgb(33, 228, 63)" stroke-width="3.10" stroke-opacity="1.00" stroke-linejoin="round"/>
<path d="M266.04,544.03 C265.98,544.12 265.86,544.60 265.85,544.99 C265.84,545.41 267.74,561.52 267.98,564.37 C267.98,564.37 268.29,564.57 268.29,564.57" fill="none" stroke="rgb(33, 228, 63)" stroke-width="3.10" stroke-opacity="1.00" stroke-linejoin="round"/>
<path d="M280.08,544.61 C280.08,544.61 279.80,544.61 279.80,544.61 C279.71,544.68 279.70,545.38 279.70,545.69 C279.67,550.71 279.80,554.35 280.11,556.66 C280.36,558.45 282.15,567.41 282.20,568.76 C282.20,568.76 283.25,568.50 283.25,568.50" fill="none" stroke="rgb(33, 228, 63)" stroke-width="3.10" stroke-opacity="1.00" stroke-linejoin="round"/>
<path d="M298.16,545.19 C298.16,545.19 297.78,545.19 297.78,545.19 C297.78,545.19 297.44,572.05 297.44,572.05 C297.44,572.05 297.58,571.93 297.58,571.93" fill="none" stroke="rgb(33, 228, 63)" stroke-width="3.10" stroke-opacity="1.00" stroke-linejoin="round"/>
<path d="M251.81,568.07 C251.39,568.07 251.12,568.07 251.01,568.07 C250.89,568.08 250.76,568.08 250.62,568.10 C250.21,568.40 250.00,570.06 250.27,570.71 C250.59,571.43 252.26,572.43 253.59,572.58 C256.31,572.86 270.52,569.77 272.31,568.47 C272.98,567.92 272.81,566.01 271.78,565.33 C271.56,565.19 271.06,565.03 270.28,564.85" fill="none" stroke="rgb(33, 228, 63)" stroke-width="3.10" stroke-opacity="1.00" stroke-linejoin="round"/>
<path d="M249.89,569.61 C249.89,569.61 249.70,569.61 249.70,569.61 C249.70,569.61 251.96,602.28 251.96,602.28 C247.83,600.12 245.26,599.15 243.69,598.99 C241.90,598.84 237.33,599.13 234.73,599.71 C231.51,600.47 225.58,602.98 223.86,604.60 C222.02,606.37 219.96,609.79 219.63,611.03 C219.21,612.75 219.21,615.40 219.94,616.58 C220.47,617.40 224.33,620.44 226.68,621.31 C229.90,622.46 242.06,622.99 246.62,623.35 C249.97,623.60 267.65,625.95 267.77,625.93 C268.51,625.39 273.42,615.56 274.48,610.39 C275.23,606.62 274.95,594.05 274.26,590.35 C272.91,583.77 271.91,569.17 271.81,568.89" fill="none" stroke="rgb(33, 228, 63)" stroke-width="3.10" stroke-opacity="1.00" stroke-linejoin="round"/>
<path d="M282.01,568.07 C282.01,568.07 281.53,567.98 281.53,567.98 C281.53,567.98 280.58,566.83 280.58,566.83 C280.58,566.83 278.79,566.81 278.79,566.81 C278.25,567.52 277.71,571.01 278.29,572.48 C278.77,573.64 280.34,574.80 280.37,575.04 C280.42,575.43 279.69,588.33 279.77,594.59 C279.90,602.09 280.21,614.54 280.82,618.17 C281.09,619.68 282.07,622.59 282.60,622.89 C285.48,624.21 309.69,625.25 312.60,624.95 C315.46,624.60 321.52,623.90 324.17,623.19 C328.10,622.03 330.91,620.65 331.79,619.24 C332.54,617.95 333.20,615.31 333.11,611.83 C333.05,610.25 332.21,607.73 331.55,607.10 C330.00,605.69 326.18,604.00 324.06,603.70 C322.75,603.53 316.90,603.46 314.55,603.94 C314.03,604.05 311.09,605.19 311.04,605.15 C308.59,593.44 308.14,589.96 307.91,579.33 C307.78,575.23 307.78,570.24 307.78,570.23 C307.79,570.20 307.85,570.06 307.97,569.81" fill="none" stroke="rgb(33, 228, 63)" stroke-width="3.10" stroke-opacity="1.00" stroke-linejoin="round"/>
<path d="M281.05,569.03 C281.05,569.03 280.66,569.03 280.66,569.03 C282.53,570.28 295.15,571.99 299.95,571.92 C303.05,571.87 305.84,571.32 306.04,571.24 C306.28,570.82 305.64,569.19 304.71,568.27 C303.73,567.34 300.01,566.21 298.60,566.09 C298.01,566.03 297.74,565.92 297.38,565.60 C297.30,565.53 297.17,565.39 297.01,565.19" fill="none" stroke="rgb(33, 228, 63)" stroke-width="3.10" stroke-opacity="1.00" stroke-linejoin="round"/>
<path d="M203.71,266.17" fill="none" stroke="rgb(228, 229, 76)" stroke-width="3.10" stroke-opacity="1.00" stroke-linejoin="round"/>
<path d="M242.60,98.10 C242.60,95.98 242.59,90.51 242.59,87.15 C242.57,82.77 242.96,79.09 244.26,75.25 C244.26,75.25 255.70,75.28 255.70,75.28 C255.70,75.28 255.49,96.02 255.49,96.02 C255.49,96.02 255.10,96.02 255.10,96.02" fill="none" stroke="rgb(228, 229, 76)" stroke-width="3.10" stroke-opacity="1.00" stroke-linejoin="round"/>
<path d="M388.21,241.64 C388.15,240.30 388.84,234.44 389.05,231.71 C389.41,227.74 386.01,212.58 384.86,207.16 C384.26,204.73 379.06,185.65 378.21,182.85 C376.56,177.42 371.32,165.66 369.02,160.19 C367.12,156.08 360.22,144.78 354.07,137.01 C348.45,130.04 339.52,120.62 334.95,117.51 C329.14,113.59 313.92,106.65 308.24,104.63 C303.19,102.84 290.65,99.85 286.33,99.04 C279.15,97.71 266.62,96.86 259.84,96.93 C250.38,97.15 238.34,98.13 230.81,99.40 C226.01,100.22 210.09,105.20 204.53,107.12 C197.80,109.59 181.85,115.56 179.91,116.59 C179.24,116.95 161.86,127.45 157.09,130.67 C155.58,131.70 144.15,141.52 135.67,147.80 C133.70,149.27 121.30,159.53 117.93,163.17 C115.03,166.33 109.07,176.44 107.34,181.20 C104.19,189.94 101.82,208.75 101.99,213.02 C102.20,217.38 103.42,220.55 105.64,224.85 C108.36,229.87 110.20,232.26 112.20,232.49 C114.45,232.66 125.02,229.31 133.85,227.91 C136.82,227.45 152.31,225.57 156.40,224.69 C164.51,223.01 174.01,222.82 177.80,222.40 C180.83,222.06 194.97,219.81 204.27,219.17 C206.24,219.11 214.27,220.06 215.73,220.14 C218.73,220.30 237.54,219.57 243.49,219.21 C252.59,218.65 258.45,218.91 267.75,218.47 C278.65,217.92 285.47,217.93 291.26,218.92 C300.26,220.41 315.08,222.28 316.47,222.51 C325.90,224.06 337.56,224.89 340.04,225.31 C342.10,225.68 358.41,229.63 361.23,230.43 C371.04,233.21 386.74,238.18 387.30,238.34 C388.31,238.63 390.84,239.29 391.13,239.56 C391.13,239.56 390.71,239.56 390.71,239.56" fill="none" stroke="rgb(228, 229, 76)" stroke-width="3.10" stroke-opacity="1.00" stroke-linejoin="round"/>
<path d="M254.25,99.77 C253.53,100.12 240.72,109.89 238.84,112.05 C232.62,119.22 227.55,124.27 223.48,128.84 C219.37,133.34 211.78,141.84 207.82,147.81 C202.69,155.58 195.80,168.49 194.20,171.23 C190.39,177.64 183.35,193.99 182.12,196.83 C181.25,198.83 176.77,208.44 176.26,209.72 C174.62,213.82 173.18,219.06 172.89,219.50 C172.89,219.50 174.36,218.76 174.36,218.76" fill="none" stroke="rgb(228, 229, 76)" stroke-width="3.10" stroke-opacity="1.00" stroke-linejoin="round"/>
<path d="M252.17,101.43 C252.16,101.60 252.16,101.74 252.17,101.85 C252.19,103.03 253.46,116.28 253.76,122.55 C255.55,145.36 255.68,157.62 254.73,178.14 C254.36,184.29 254.18,201.00 253.92,203.59 C253.44,208.12 250.98,217.68 250.28,219.60 C250.28,219.60 250.50,217.51 250.50,217.51" fill="none" stroke="rgb(228, 229, 76)" stroke-width="3.10" stroke-opacity="1.00" stroke-linejoin="round"/>
<path d="M255.49,103.51 C255.49,103.51 255.49,103.10 255.49,103.10 C258.99,103.10 260.60,103.51 263.08,105.53 C267.70,109.40 274.70,118.82 278.51,125.44 C285.69,138.54 300.20,165.13 307.13,177.27 C312.38,186.89 316.64,196.02 317.40,199.69 C318.15,203.53 317.32,213.91 316.02,220.23 C316.02,220.23 313.33,221.67 313.33,221.67" fill="none" stroke="rgb(228, 229, 76)" stroke-width="3.10" stroke-opacity="1.00" stroke-linejoin="round"/>
<path d="M239.27,219.17 C239.36,221.92 235.67,240.17 234.95,243.15 C233.55,248.79 232.03,259.97 229.17,268.72 C227.44,274.00 221.82,286.97 219.08,292.25 C217.66,294.94 214.65,299.35 211.79,301.70 C209.90,303.22 199.97,309.78 199.39,310.14 C197.16,311.49 193.12,313.05 191.13,313.51 C189.06,313.97 175.47,315.38 170.34,317.49 C169.84,317.70 168.74,318.19 167.05,318.97 C166.69,319.68 167.36,323.82 168.60,324.87 C169.93,325.92 172.49,327.04 174.22,327.23 C176.11,327.42 183.68,327.27 185.39,326.92 C188.80,326.17 197.16,322.33 201.90,318.86 C205.07,316.51 217.82,304.66 220.10,301.81 C222.00,299.41 233.14,282.89 234.38,280.08 C236.03,276.27 240.32,263.21 241.88,256.22 C242.67,252.63 246.37,221.73 246.74,218.66 C246.74,218.66 245.51,217.51 245.51,217.51" fill="none" stroke="rgb(228, 229, 76)" stroke-width="3.10" stroke-opacity="1.00" stroke-linejoin="round"/>
<path d="M530.27,267.40 C530.27,267.40 529.66,267.40 529.66,267.40 C528.24,266.60 527.34,265.92 526.03,264.56 C523.87,262.34 519.84,258.25 517.97,256.39 C517.65,263.30 516.82,277.39 516.31,284.56 C515.51,295.04 514.70,300.27 512.73,310.53 C509.83,325.45 503.28,360.88 502.16,365.04 C501.06,369.09 496.94,379.77 496.46,381.66 C496.68,374.70 497.15,359.79 497.39,351.85 C497.56,342.73 497.12,335.17 496.17,325.31 C495.31,318.07 484.58,273.74 482.92,268.86 C481.79,265.64 480.92,262.80 480.49,260.87 C477.89,303.86 477.95,337.23 476.62,350.90 C474.99,366.24 471.87,396.43 471.85,406.91 C470.90,395.77 469.06,385.79 466.93,380.11 C464.60,374.05 456.41,361.94 453.45,357.28 C451.49,354.15 446.89,346.86 446.06,345.68 C444.00,342.79 440.71,339.67 437.83,337.31 C435.06,335.25 431.90,332.88 431.87,332.59 C431.84,336.70 434.52,348.78 437.06,357.26 C439.14,364.23 441.47,377.36 442.50,384.12 C443.63,392.38 444.79,412.59 444.79,415.63 C444.48,421.55 444.16,435.14 444.15,442.80 C444.20,454.54 444.00,457.55 442.68,468.95 C441.27,481.09 440.72,487.03 438.89,497.25 C437.31,505.60 433.63,524.17 432.11,528.09 C430.32,532.79 427.11,546.29 423.88,553.78 C419.05,564.87 402.27,609.07 388.88,628.34 C388.37,629.07 386.47,631.53 385.90,632.27 C385.90,632.27 387.59,630.25 387.59,630.25" fill="none" stroke="rgb(86, 73, 61)" stroke-width="3.10" stroke-opacity="1.00" stroke-linejoin="round"/>
<path d="M513.67,151.79 C513.31,151.20 510.49,147.94 507.10,145.49 C502.99,142.56 499.12,140.74 495.90,140.21 C494.75,140.03 486.02,139.55 482.52,139.54 C479.09,139.58 471.68,139.72 467.89,140.84 C465.88,141.45 456.92,145.17 454.72,146.54 C451.83,148.36 446.92,153.75 445.05,156.10 C442.54,159.28 439.51,164.12 437.86,167.56 C436.40,170.65 435.62,174.09 434.79,179.06 C433.13,189.77 433.09,201.78 433.12,209.37 C433.09,216.00 433.25,219.47 434.20,223.86 C435.65,230.20 437.44,236.07 437.41,236.65 C436.49,236.61 431.37,235.95 427.63,235.91 C423.68,235.88 416.77,237.00 414.22,238.16 C411.39,239.48 406.43,243.39 404.83,245.10 C402.98,247.09 389.97,263.76 389.19,264.88 C387.04,268.03 385.58,272.59 385.41,273.95 C384.80,279.03 385.48,295.82 386.45,301.92 C387.33,307.21 389.64,312.90 391.28,314.76 C388.77,314.18 383.59,313.02 379.84,312.88 C377.18,312.81 372.21,315.06 369.53,316.41 C367.47,317.46 359.04,322.31 358.69,322.75 C356.23,325.96 354.40,330.56 352.56,336.95 C350.48,344.51 349.32,357.75 349.46,362.92 C349.57,365.77 353.27,383.60 354.59,386.72 C354.77,387.16 358.55,397.47 359.96,399.90 C366.24,410.57 377.71,424.04 382.40,427.94 C384.76,429.88 391.91,434.16 394.82,436.25 C397.08,437.89 405.88,445.09 406.95,445.84 C410.29,448.16 415.95,450.59 418.18,450.65 C420.46,450.68 424.81,448.15 427.32,446.37 C428.39,445.60 431.84,443.02 433.10,442.06 C433.10,442.06 433.10,440.22 433.10,440.22" fill="none" stroke="rgb(86, 73, 61)" stroke-width="3.10" stroke-opacity="1.00" stroke-linejoin="round"/>
<path d="M50.59,549.04 C50.59,549.04 49.47,548.95 49.47,548.95 C48.91,549.46 48.05,551.67 47.81,553.32 C47.61,554.81 48.03,556.30 48.80,556.66 C49.56,556.99 51.53,556.96 52.24,556.48 C52.94,555.98 53.76,554.10 53.77,553.10 C53.74,551.97 52.56,550.03 50.78,549.53 C50.40,549.43 49.99,549.32 49.55,549.19" fill="none" stroke="rgb(255, 153, 190)" stroke-width="3.10" stroke-opacity="1.00" stroke-linejoin="round"/>
<path d="M48.21,548.00 C48.18,547.87 48.16,547.78 48.14,547.72 C48.07,547.49 48.00,544.52 47.46,543.63 C46.85,542.67 44.78,541.48 43.42,541.16 C42.16,540.87 40.33,541.07 39.65,541.69 C38.88,542.45 37.70,545.80 37.56,547.52 C37.43,549.38 38.08,552.08 38.67,552.97 C39.15,553.64 40.82,554.90 42.41,555.36 C43.66,555.70 47.87,555.44 47.87,555.44 C47.74,555.48 47.45,555.61 47.00,555.82" fill="none" stroke="rgb(255, 153, 190)" stroke-width="3.10" stroke-opacity="1.00" stroke-linejoin="round"/>
<path d="M46.73,555.80 C46.56,555.59 45.41,555.54 44.92,555.74 C44.09,556.12 42.39,558.27 41.56,560.16 C40.26,563.20 40.53,570.09 41.61,571.59 C42.32,572.54 44.43,573.44 45.57,573.28 C46.80,573.07 49.32,571.39 50.38,569.90 C52.23,567.23 53.02,561.20 52.96,560.44 C52.98,561.69 53.80,564.14 54.61,564.54 C55.31,564.85 56.94,564.40 57.58,563.83 C58.41,563.06 58.83,561.10 58.54,560.06 C57.81,557.71 55.72,556.68 55.21,556.47 C56.74,557.42 59.64,558.01 61.02,557.68 C62.32,557.33 64.32,555.63 64.89,554.59 C65.34,553.71 65.37,551.96 64.98,551.21 C64.54,550.38 62.88,549.35 61.58,549.13 C58.16,548.61 52.98,549.85 52.81,549.95 C53.32,550.01 56.43,548.57 57.22,547.68 C58.03,546.71 57.68,544.83 56.85,544.01 C55.24,542.46 50.76,541.95 49.52,543.05 C49.32,543.23 48.86,544.03 48.06,545.48" fill="none" stroke="rgb(255, 153, 190)" stroke-width="3.10" stroke-opacity="1.00" stroke-linejoin="round"/>
<path d="M50.07,569.38 C50.07,569.38 49.99,569.43 49.99,569.43 C49.99,570.00 50.02,570.73 50.19,571.52 C51.32,576.01 51.97,579.95 52.14,580.64 C52.14,580.64 52.65,580.23 52.65,580.23" fill="none" stroke="rgb(255, 153, 190)" stroke-width="3.10" stroke-opacity="1.00" stroke-linejoin="round"/>
<path d="M56.23,566.71 C56.13,566.96 56.07,567.18 56.04,567.38 C55.66,570.68 56.83,583.97 56.97,585.42 C56.97,585.42 55.63,584.67 55.63,584.67" fill="none" stroke="rgb(255, 153, 190)" stroke-width="3.10" stroke-opacity="1.00" stroke-linejoin="round"/>
<path d="M56.53,587.79 C56.53,587.79 56.20,587.74 56.20,587.74 C55.93,586.76 55.29,585.63 54.42,584.76 C53.17,583.57 48.67,581.03 46.22,580.45 C44.83,580.13 42.46,580.22 41.75,580.75 C41.02,581.34 40.33,584.15 40.71,585.65 C41.10,587.16 42.48,588.98 43.17,589.52 C44.05,590.17 47.01,591.32 48.89,591.41 C51.55,591.51 58.13,590.18 58.16,590.15 C58.79,588.83 66.91,583.69 68.21,581.41 C68.93,580.05 69.73,576.64 69.57,575.53 C69.40,574.64 68.64,573.45 67.97,573.07 C67.17,572.63 65.15,572.55 63.86,573.07 C62.45,573.66 59.98,575.79 58.54,577.65 C56.68,580.12 54.83,585.50 54.86,585.68 C54.90,585.87 55.06,586.38 55.34,587.20" fill="none" stroke="rgb(255, 153, 190)" stroke-width="3.10" stroke-opacity="1.00" stroke-linejoin="round"/>
<path d="M105.22,579.03 C104.64,578.47 103.82,578.02 103.45,578.31 C102.94,578.76 101.95,581.30 101.81,582.61 C101.69,583.89 102.60,585.25 103.69,585.73 C104.73,586.17 106.64,586.20 107.46,585.74 C108.24,585.28 109.26,583.54 109.44,582.46 C109.60,581.36 108.93,579.25 107.91,578.45 C107.08,577.84 104.10,577.37 103.19,577.31 C102.83,577.29 102.46,577.27 102.10,577.25" fill="none" stroke="rgb(255, 153, 190)" stroke-width="3.10" stroke-opacity="1.00" stroke-linejoin="round"/>
<path d="M105.15,578.29 C105.15,578.29 105.07,578.23 105.07,578.23 C105.09,577.53 105.21,575.89 105.22,575.28 C105.23,574.33 104.24,572.53 103.37,571.97 C102.55,571.48 99.19,570.79 96.05,571.12 C94.88,571.25 93.80,572.51 93.62,573.24 C93.20,575.02 94.35,579.62 96.05,581.32 C97.53,582.77 100.05,584.49 101.67,585.23 C100.14,585.40 97.77,585.90 96.62,586.62 C95.41,587.40 93.97,589.31 93.68,590.05 C93.10,591.58 93.17,593.76 93.68,594.60 C94.13,595.29 95.69,596.04 96.58,596.11 C97.65,596.18 99.97,595.50 100.95,594.84 C103.61,592.99 104.38,590.14 104.63,589.13 C104.71,590.91 105.57,593.09 106.09,593.72 C107.10,594.89 112.04,595.88 113.56,594.60 C114.29,593.94 114.89,591.91 114.62,590.80 C113.95,588.30 109.54,585.35 108.76,585.09 C108.75,585.26 109.89,586.05 111.00,586.50 C112.69,587.14 115.76,587.05 117.34,586.21 C118.40,585.63 119.87,583.96 120.07,583.26 C120.23,582.64 119.73,580.98 118.79,579.74 C117.43,578.01 113.44,576.21 110.88,576.09 C109.05,576.02 107.56,576.21 107.34,576.27 C107.38,576.62 111.59,575.48 113.45,574.48 C114.38,573.95 115.87,572.36 115.99,571.47 C116.14,570.04 113.62,566.90 111.80,566.24 C110.57,565.83 108.11,566.34 106.84,567.52 C103.83,570.42 102.93,574.87 102.87,575.66 C102.87,575.66 104.03,577.55 104.03,577.55" fill="none" stroke="rgb(255, 153, 190)" stroke-width="3.10" stroke-opacity="1.00" stroke-linejoin="round"/>
<path d="M100.32,596.11 C100.32,596.50 107.79,611.25 108.74,612.79 C111.30,616.97 111.95,619.67 112.33,622.03 C112.33,622.03 112.50,621.05 112.50,621.05" fill="none" stroke="rgb(255, 153, 190)" stroke-width="3.10" stroke-opacity="1.00" stroke-linejoin="round"/>
<path d="M110.71,594.47 C110.70,594.40 111.23,596.12 111.37,596.72 C112.41,601.08 113.44,610.15 113.02,615.58 C112.86,617.77 112.47,621.56 112.49,621.75 C111.32,617.83 109.76,614.93 108.80,613.93 C107.83,612.97 104.94,611.52 102.73,611.12 C101.65,610.94 99.17,611.35 98.06,611.90 C95.84,613.02 92.69,617.54 92.64,619.61 C92.64,620.89 94.00,623.09 95.39,623.96 C96.71,624.74 100.71,625.76 104.45,625.61 C109.81,625.36 113.84,622.75 113.97,622.71 C113.99,622.71 113.92,622.50 113.70,621.70" fill="none" stroke="rgb(255, 153, 190)" stroke-width="3.10" stroke-opacity="1.00" stroke-linejoin="round"/>
<path d="M114.13,610.36 C114.13,610.36 114.13,610.51 114.13,610.51 C114.51,609.47 116.75,605.78 117.80,604.68 C119.26,603.18 124.49,600.26 125.73,599.92 C128.38,599.24 130.30,599.55 130.99,600.54 C131.71,601.62 132.13,604.84 131.90,606.60 C131.65,608.28 130.33,611.54 129.14,613.02 C127.48,615.02 121.90,619.06 119.14,620.28 C117.18,621.12 114.71,621.36 114.23,621.27 C114.03,621.23 113.70,621.11 113.24,620.90" fill="none" stroke="rgb(255, 153, 190)" stroke-width="3.10" stroke-opacity="1.00" stroke-linejoin="round"/>
</g>
</svg>
