<?xml version="1.0" encoding="UTF-8" standalone="no"?>
<!DOCTYPE svg PUBLIC "-//W3C//DTD SVG 1.1//EN" "http://www.w3.org/Graphics/SVG/1.1/DTD/svg11.dtd">
<svg width="64.20" height="90.84" viewBox="0.00 0.00 535.00 757.00" xmlns="http://www.w3.org/2000/svg" xmlns:xlink="http://www.w3.org/1999/xlink">
<g stroke-linecap="round" id="37">
<path d="M213.70,253.78 C213.66,253.61 211.44,258.34 210.80,261.99 C210.01,266.61 209.54,281.32 209.44,287.40 C209.19,295.47 210.00,302.44 212.11,312.98 C214.74,325.45 220.51,338.79 223.18,342.70 C224.89,345.15 227.30,347.58 229.37,348.84 C233.04,351.01 243.26,353.92 250.68,355.11 C256.02,355.95 259.48,356.27 262.25,356.64 C265.49,356.97 269.46,356.69 273.86,355.92 C278.32,355.12 287.11,351.23 293.83,348.01 C295.77,347.01 299.70,342.83 301.61,339.75 C304.49,334.92 310.16,318.94 311.04,316.15 C313.04,309.62 317.44,294.74 317.71,289.66 C317.98,283.81 318.05,280.75 317.96,277.22 C317.78,271.70 314.62,262.88 313.87,260.85 C313.87,260.85 313.02,260.70 313.02,260.70" fill="none" stroke="rgb(33, 228, 63)" stroke-width="3.23" stroke-opacity="1.00" stroke-linejoin="round"/>
<path d="M252.71,231.92 C252.71,231.92 252.71,231.79 252.71,231.79 C252.71,231.79 252.99,231.65 252.99,231.65 C253.22,231.36 249.34,229.78 245.65,230.06 C242.57,230.32 235.66,232.03 232.99,233.18 C230.42,234.30 224.19,237.62 221.95,239.26 C218.98,241.48 214.69,245.57 213.04,247.76 C211.49,249.84 209.32,253.50 208.26,255.98 C205.74,261.93 203.71,274.97 203.99,278.88 C203.99,278.88 205.13,279.79 205.13,279.79" fill="none" stroke="rgb(33, 228, 63)" stroke-width="3.23" stroke-opacity="1.00" stroke-linejoin="round"/>
<path d="M246.62,233.58 C245.99,233.69 245.56,233.79 245.32,233.87 C243.00,234.78 233.20,241.74 229.32,245.84 C225.41,250.00 220.38,257.62 217.43,264.15 C214.42,270.85 212.93,276.78 213.41,277.21 C213.41,277.21 215.91,276.74 215.91,276.74" fill="none" stroke="rgb(33, 228, 63)" stroke-width="3.23" stroke-opacity="1.00" stroke-linejoin="round"/>
<path d="M246.62,235.80 C246.25,235.56 245.86,235.45 245.40,235.57 C243.82,236.04 239.35,240.55 236.83,243.79 C232.18,249.87 224.68,262.23 222.47,268.43 C220.43,274.21 219.79,279.10 219.79,279.76 C219.79,279.76 223.11,276.19 223.11,276.19" fill="none" stroke="rgb(33, 228, 63)" stroke-width="3.23" stroke-opacity="1.00" stroke-linejoin="round"/>
<path d="M248.01,233.86 C248.01,233.86 247.73,233.86 247.73,233.86 C247.21,234.75 245.80,237.20 244.90,238.76 C238.94,249.05 233.81,258.96 231.85,265.78 C230.48,270.64 228.56,283.64 229.11,284.74 C229.11,284.74 229.59,284.82 229.59,284.82" fill="none" stroke="rgb(33, 228, 63)" stroke-width="3.23" stroke-opacity="1.00" stroke-linejoin="round"/>
<path d="M252.99,235.24 C252.99,235.24 252.57,235.24 252.57,235.24 C250.96,236.14 245.46,247.70 242.87,254.32 C240.30,261.10 238.31,270.97 238.37,275.52 C238.46,278.34 238.81,279.00 239.98,280.34" fill="none" stroke="rgb(33, 228, 63)" stroke-width="3.23" stroke-opacity="1.00" stroke-linejoin="round"/>
<path d="M256.31,235.24 C256.31,235.24 256.31,234.97 256.31,234.97 C255.29,237.79 254.18,241.04 252.59,246.08 C250.91,251.80 247.03,265.50 246.42,269.46 C246.06,271.83 245.88,276.93 245.98,277.30 C246.07,277.63 246.38,278.46 246.90,279.79" fill="none" stroke="rgb(33, 228, 63)" stroke-width="3.23" stroke-opacity="1.00" stroke-linejoin="round"/>
<path d="M261.84,236.35 C261.84,236.35 261.48,236.35 261.48,236.35 C260.97,237.31 259.25,241.39 258.22,244.19 C253.18,257.83 250.29,274.96 250.63,277.07 C250.72,277.56 250.99,278.79 251.46,280.76" fill="none" stroke="rgb(33, 228, 63)" stroke-width="3.23" stroke-opacity="1.00" stroke-linejoin="round"/>
<path d="M264.05,240.50 C264.05,240.50 264.33,238.91 264.33,238.91 C264.22,240.38 261.47,259.47 261.64,265.45 C261.78,269.59 262.80,273.36 263.64,273.95 C263.83,274.08 264.26,274.29 264.95,274.58" fill="none" stroke="rgb(33, 228, 63)" stroke-width="3.23" stroke-opacity="1.00" stroke-linejoin="round"/>
<path d="M271.52,239.39 C271.24,239.67 271.10,240.55 271.04,242.76 C270.87,249.36 270.49,269.96 270.42,270.58 C270.39,270.84 270.32,271.19 270.20,271.63" fill="none" stroke="rgb(33, 228, 63)" stroke-width="3.23" stroke-opacity="1.00" stroke-linejoin="round"/>
<path d="M268.76,243.82 C268.76,243.82 268.76,243.54 268.76,243.54 C268.74,243.53 270.22,245.41 270.85,246.27 C274.81,251.72 281.29,264.51 282.74,269.35 C282.74,269.35 282.13,270.81 282.13,270.81" fill="none" stroke="rgb(33, 228, 63)" stroke-width="3.23" stroke-opacity="1.00" stroke-linejoin="round"/>
<path d="M273.73,237.18 C274.32,237.08 277.56,239.43 279.97,243.24 C281.64,245.95 283.99,251.76 284.84,255.15 C285.55,258.06 286.32,265.57 286.44,268.63 C286.45,269.00 286.46,269.57 286.46,270.33" fill="none" stroke="rgb(33, 228, 63)" stroke-width="3.23" stroke-opacity="1.00" stroke-linejoin="round"/>
<path d="M280.10,237.18 C280.10,237.18 280.58,236.63 280.58,236.63 C281.75,236.47 284.39,238.38 285.92,240.47 C289.39,245.35 295.15,259.78 296.40,266.18 C296.77,268.19 296.93,271.76 296.97,273.35 C297.00,273.95 297.07,275.01 297.19,276.55" fill="none" stroke="rgb(33, 228, 63)" stroke-width="3.23" stroke-opacity="1.00" stroke-linejoin="round"/>
<path d="M283.42,235.80 C283.42,235.80 283.14,235.80 283.14,235.80 C284.66,236.75 286.46,238.13 288.10,239.68 C291.22,242.64 298.33,252.15 300.66,255.95 C303.90,261.28 306.15,267.56 306.36,269.30 C306.36,269.30 305.83,269.28 305.83,269.28" fill="none" stroke="rgb(33, 228, 63)" stroke-width="3.23" stroke-opacity="1.00" stroke-linejoin="round"/>
<path d="M251.60,236.90 C251.38,236.03 251.39,235.55 251.74,234.86 C252.54,233.34 256.23,229.31 257.81,228.15 C260.94,225.89 265.69,224.55 268.08,224.10 C271.25,223.52 276.14,223.04 278.52,223.30 C281.36,223.65 296.21,230.75 301.75,234.24 C305.12,236.38 310.58,241.09 312.61,243.49 C315.09,246.49 317.60,251.88 318.36,254.84 C319.39,259.08 320.01,264.68 320.06,265.34 C320.06,265.34 319.11,266.78 319.11,266.78" fill="none" stroke="rgb(33, 228, 63)" stroke-width="3.23" stroke-opacity="1.00" stroke-linejoin="round"/>
<path d="M260.46,235.52 C261.29,235.21 264.38,234.87 265.57,234.75 C274.00,233.87 282.57,233.81 287.13,234.87 C290.28,235.63 300.70,242.12 303.91,244.93 C305.56,246.39 308.73,249.78 309.75,251.13 C312.32,254.55 314.99,259.95 315.87,263.53 C316.26,265.20 316.66,269.00 316.51,270.02 C316.44,270.42 316.20,270.91 315.79,271.49" fill="none" stroke="rgb(33, 228, 63)" stroke-width="3.23" stroke-opacity="1.00" stroke-linejoin="round"/>
<path d="M205.13,297.49 C205.77,297.73 206.21,297.92 206.45,298.04 C206.86,298.26 207.79,298.89 207.89,298.85 C207.89,298.85 207.73,296.22 207.73,296.22 C206.28,295.44 204.55,296.22 204.11,297.67 C203.69,299.22 203.79,303.28 204.43,305.39 C205.17,307.69 207.57,311.68 208.75,312.72 C208.75,312.72 212.47,312.47 212.47,312.47" fill="none" stroke="rgb(33, 228, 63)" stroke-width="3.23" stroke-opacity="1.00" stroke-linejoin="round"/>
<path d="M316.89,297.77 C316.89,297.77 316.62,297.69 316.62,297.69 C316.72,296.73 316.91,296.12 317.28,295.81 C317.82,295.38 319.90,295.95 321.07,297.73 C322.26,299.61 322.15,304.85 321.53,308.01 C321.27,309.17 320.61,310.38 319.94,310.75 C319.01,311.22 317.62,311.30 316.31,310.97 C315.70,310.81 313.16,310.18 312.19,309.94" fill="none" stroke="rgb(33, 228, 63)" stroke-width="3.23" stroke-opacity="1.00" stroke-linejoin="round"/>
<path d="M222.28,293.89 C222.28,293.41 224.22,291.84 226.10,291.12 C228.26,290.31 232.46,289.99 235.01,290.05 C237.04,290.13 239.68,291.20 241.07,293.04 C241.21,293.23 241.31,293.42 241.36,293.59" fill="none" stroke="rgb(33, 228, 63)" stroke-width="3.23" stroke-opacity="1.00" stroke-linejoin="round"/>
<path d="M230.58,300.26 C230.06,300.26 229.78,300.26 229.75,300.26 C229.22,300.28 228.18,301.73 227.97,303.17 C227.77,304.76 228.93,307.17 229.94,307.55 C231.09,307.96 232.50,307.98 233.71,307.68 C234.61,306.79 235.25,305.62 235.34,304.32 C235.48,301.86 233.24,299.14 232.13,299.13 C231.12,299.18 229.64,300.43 229.42,301.48 C229.19,302.75 230.71,305.11 232.03,305.44 C233.16,305.70 235.47,304.82 235.91,303.93 C236.32,303.02 235.34,301.01 234.29,300.31 C232.97,299.47 229.98,299.54 229.11,300.78 C228.25,302.12 229.61,305.51 231.22,306.17 C232.89,306.78 235.25,305.30 235.39,303.89 C235.47,302.64 234.11,300.14 232.97,299.66 C232.28,299.40 230.94,299.65 230.42,300.18 C229.29,301.40 230.15,305.22 231.58,305.99 C232.31,306.35 233.84,306.34 234.47,305.95 C235.53,305.24 235.40,302.25 234.63,301.30 C234.19,300.80 232.98,300.28 232.37,300.40 C230.90,300.74 229.96,303.53 230.58,305.23 C232.19,305.70 233.05,305.65 233.54,304.90 C234.25,303.82 234.31,302.94 234.24,302.52 C234.24,302.52 233.39,303.85 233.39,303.85 C233.39,303.85 233.36,302.57 233.36,302.57 C233.36,302.57 232.37,303.64 232.37,303.64" fill="none" stroke="rgb(33, 228, 63)" stroke-width="3.23" stroke-opacity="1.00" stroke-linejoin="round"/>
<path d="M280.10,288.92 C280.46,288.59 281.97,287.41 282.69,286.99 C284.17,286.14 290.14,285.07 292.40,285.04 C297.45,285.08 301.56,289.37 302.37,290.36 C302.50,290.52 302.64,290.69 302.78,290.85" fill="none" stroke="rgb(33, 228, 63)" stroke-width="3.23" stroke-opacity="1.00" stroke-linejoin="round"/>
<path d="M291.16,299.15 C290.89,299.14 290.71,299.14 290.61,299.15 C289.73,299.26 287.96,300.77 287.50,302.35 C287.11,303.81 287.94,306.54 289.33,307.04 C290.77,307.50 294.06,306.47 295.01,305.49 C295.74,304.68 296.11,302.49 295.74,301.33 C295.33,300.15 293.67,298.40 292.71,298.30 C291.72,298.24 290.25,299.89 290.06,301.23 C289.88,302.75 291.30,305.39 292.70,305.48 C293.99,305.52 296.06,303.48 296.29,302.36 C296.52,301.04 295.07,299.22 293.59,299.15 C292.22,299.12 289.74,300.88 289.62,302.11 C289.54,303.49 291.86,304.61 293.29,304.20 C294.50,303.82 295.80,301.83 295.33,300.81 C294.81,299.82 292.16,299.55 291.20,300.45 C290.21,301.45 290.50,302.97 290.89,303.70 C293.04,304.97 294.69,302.50 294.43,301.81 C292.57,301.37 291.48,304.28 291.76,305.16 C292.71,305.51 293.24,305.54 293.57,305.17 C294.15,304.48 294.12,303.69 293.95,303.15 C293.47,302.81 292.97,302.62 292.48,302.79 C291.57,303.13 290.78,303.74 290.53,304.48 C290.40,304.87 290.15,305.58 289.78,306.62" fill="none" stroke="rgb(33, 228, 63)" stroke-width="3.23" stroke-opacity="1.00" stroke-linejoin="round"/>
<path d="M262.39,298.87 C262.37,299.06 262.37,299.32 262.39,299.65 C262.68,303.67 262.57,310.14 262.05,311.83 C261.78,312.67 258.69,316.10 258.57,316.87 C259.05,318.00 263.15,322.52 263.79,322.97 C263.97,323.10 264.33,323.27 264.88,323.50" fill="none" stroke="rgb(33, 228, 63)" stroke-width="3.23" stroke-opacity="1.00" stroke-linejoin="round"/>
<path d="M241.09,332.35 C241.09,332.42 243.77,336.08 247.64,338.28 C251.66,340.54 266.45,343.00 269.14,342.80 C271.04,342.64 276.28,340.82 277.83,339.79 C281.59,337.22 287.90,331.14 288.08,329.70 C288.09,329.57 288.10,329.44 288.12,329.31" fill="none" stroke="rgb(33, 228, 63)" stroke-width="3.23" stroke-opacity="1.00" stroke-linejoin="round"/>
<path d="M229.19,353.93 C229.19,353.93 228.92,353.93 228.92,353.93 C224.68,353.94 221.94,354.17 219.56,355.40 C217.47,356.51 205.53,364.32 197.12,369.17 C194.49,370.71 191.33,373.44 189.58,375.54 C185.11,380.99 179.69,389.91 177.55,395.12 C176.41,397.93 171.74,413.19 170.59,420.38 C169.97,424.52 169.44,431.36 169.45,434.60 C169.50,437.88 170.46,441.93 171.77,443.30 C172.55,444.05 175.84,445.50 179.30,446.03 C182.56,446.50 188.85,445.95 190.39,445.45 C190.88,445.29 191.36,445.12 191.85,444.95" fill="none" stroke="rgb(33, 228, 63)" stroke-width="3.23" stroke-opacity="1.00" stroke-linejoin="round"/>
<path d="M225.60,380.49 C224.02,380.63 219.50,382.85 218.41,383.79 C211.67,389.93 208.22,393.54 205.55,398.03 C201.82,404.34 196.98,415.97 195.48,422.39 C194.20,427.99 193.09,441.76 193.09,441.94 C193.09,441.94 194.61,440.80 194.61,440.80" fill="none" stroke="rgb(33, 228, 63)" stroke-width="3.23" stroke-opacity="1.00" stroke-linejoin="round"/>
<path d="M168.05,443.84 C168.05,443.84 168.05,443.56 168.05,443.56 C166.32,443.64 163.60,445.31 161.20,447.70 C159.04,449.88 157.42,454.37 157.89,456.30 C158.15,457.23 159.42,459.07 160.19,459.58 C163.84,461.84 167.94,458.86 168.57,458.14 C168.57,458.12 168.60,462.24 169.56,463.11 C170.28,463.68 172.39,463.35 174.02,461.69 C175.18,460.48 175.98,458.19 176.07,457.83 C175.89,461.67 176.65,466.47 178.10,467.70 C178.83,468.28 180.77,467.71 181.39,466.83 C182.90,464.59 184.16,459.91 184.37,457.76 C184.21,461.33 184.84,464.70 185.47,465.13 C186.06,465.48 187.56,464.75 188.29,462.75 C189.00,460.78 189.32,456.84 189.37,455.89 C189.37,455.89 192.44,459.22 192.44,459.22 C193.56,459.11 194.57,458.67 195.27,457.84 C196.47,456.35 196.41,452.30 195.37,449.95 C195.03,449.21 193.63,446.69 193.25,446.27 C193.02,446.04 192.55,445.69 191.85,445.22" fill="none" stroke="rgb(33, 228, 63)" stroke-width="3.23" stroke-opacity="1.00" stroke-linejoin="round"/>
<path d="M219.23,385.19 C219.23,385.19 218.96,385.19 218.96,385.19 C219.05,388.39 217.81,398.80 217.12,409.39 C216.71,415.74 216.35,427.23 216.62,433.33 C217.08,440.75 218.27,457.89 218.71,460.89 C220.97,475.63 225.59,482.56 225.58,482.51 C225.58,482.51 224.77,478.15 224.77,478.15" fill="none" stroke="rgb(33, 228, 63)" stroke-width="3.23" stroke-opacity="1.00" stroke-linejoin="round"/>
<path d="M227.53,483.68 C227.53,483.68 227.53,483.82 227.53,483.82 C227.53,483.82 227.40,483.96 227.40,483.96 C227.40,483.96 227.26,483.96 227.26,483.96 C230.40,483.97 237.61,484.02 239.99,484.90 C240.88,485.23 243.86,486.69 245.18,486.95 C248.61,487.59 294.25,487.62 296.41,487.53 C300.67,487.34 310.20,485.72 310.54,485.64 C310.66,485.61 310.93,485.51 311.36,485.34" fill="none" stroke="rgb(33, 228, 63)" stroke-width="3.23" stroke-opacity="1.00" stroke-linejoin="round"/>
<path d="M316.06,387.68 C316.08,392.22 314.69,405.72 314.63,415.37 C314.75,431.57 315.40,451.91 315.20,473.99 C315.19,476.93 314.89,481.29 314.64,482.39 C314.64,482.39 314.13,481.74 314.13,481.74" fill="none" stroke="rgb(33, 228, 63)" stroke-width="3.23" stroke-opacity="1.00" stroke-linejoin="round"/>
<path d="M293.38,353.65 C293.38,353.65 292.82,353.73 292.82,353.73 C293.14,354.82 295.64,356.99 298.07,357.38 C300.79,357.76 306.20,357.75 309.29,356.98 C311.38,356.45 319.10,353.66 319.95,353.26 C320.39,353.03 330.26,342.11 334.44,337.40 C340.92,329.86 348.17,317.94 348.15,317.96 C348.15,317.96 348.15,318.24 348.15,318.24" fill="none" stroke="rgb(33, 228, 63)" stroke-width="3.23" stroke-opacity="1.00" stroke-linejoin="round"/>
<path d="M346.77,319.90 C346.68,319.15 345.59,314.13 346.49,311.12 C347.47,307.96 350.01,305.55 350.63,305.32 C352.51,306.10 354.89,309.05 355.33,312.06 C355.36,312.31 355.37,312.50 355.35,312.63 C356.88,307.64 359.41,306.15 360.33,305.72 C361.47,305.91 363.15,308.36 363.49,310.34 C363.64,311.23 363.60,312.48 363.49,313.33 C368.87,307.82 372.63,305.57 373.81,305.67 C374.57,306.25 374.78,308.56 373.34,311.91 C372.06,314.83 369.24,318.92 368.56,319.90 C370.41,318.54 373.95,317.16 375.18,317.43 C376.20,317.72 376.64,319.91 376.12,320.88 C375.18,322.56 373.51,324.05 372.94,324.46 C374.56,324.36 376.02,324.60 376.80,325.22 C377.57,325.84 376.99,328.39 375.95,329.63 C374.79,330.94 370.65,333.27 368.66,333.34 C368.21,333.35 367.18,333.30 365.58,333.18" fill="none" stroke="rgb(33, 228, 63)" stroke-width="3.23" stroke-opacity="1.00" stroke-linejoin="round"/>
<path d="M346.49,320.45 C348.32,320.47 355.20,322.25 355.94,322.53 C361.55,324.74 366.21,329.65 367.24,330.97 C367.22,331.95 361.88,341.51 357.15,347.85 C352.76,353.52 344.14,364.42 338.65,369.94 C335.55,373.03 330.54,377.21 327.83,378.89 C323.63,381.47 317.84,383.58 310.10,386.21 C310.10,386.44 310.11,386.60 310.13,386.69 C310.14,386.78 310.18,386.93 310.25,387.13" fill="none" stroke="rgb(33, 228, 63)" stroke-width="3.23" stroke-opacity="1.00" stroke-linejoin="round"/>
<path d="M247.73,359.46 C247.73,359.46 247.73,358.91 247.73,358.91 C248.05,359.34 253.31,370.25 255.45,374.05 C259.34,382.25 264.03,391.12 269.54,399.00 C271.42,401.61 274.06,405.26 275.85,406.76 C276.57,406.68 277.27,405.62 278.09,403.26 C279.25,399.76 283.64,390.56 286.95,381.84 C288.21,378.43 293.48,365.86 294.55,360.05 C294.75,358.92 295.22,356.14 295.24,355.72 C295.24,355.50 295.18,355.30 295.07,355.10" fill="none" stroke="rgb(33, 228, 63)" stroke-width="3.23" stroke-opacity="1.00" stroke-linejoin="round"/>
<path d="M255.20,358.08 C255.20,358.08 254.92,358.08 254.92,358.08 C256.18,360.69 263.57,376.92 264.98,379.50 C270.01,388.68 274.01,393.78 274.40,393.75 C275.66,392.98 282.49,377.88 283.99,372.94 C284.88,369.97 288.42,355.54 288.87,353.06 C288.87,353.06 288.52,352.39 288.52,352.39" fill="none" stroke="rgb(33, 228, 63)" stroke-width="3.23" stroke-opacity="1.00" stroke-linejoin="round"/>
<path d="M287.57,403.17 C287.57,403.17 287.43,403.17 287.43,403.17 C287.43,403.17 287.33,403.45 287.33,403.45 C288.78,403.30 295.28,401.80 299.70,401.00 C305.53,399.97 308.81,399.89 309.61,400.49 C310.54,402.20 304.85,422.22 304.64,422.72 C304.64,422.72 294.14,422.93 294.14,422.93 C293.67,421.80 290.43,408.43 288.96,403.02 C288.84,402.57 288.66,402.06 288.40,401.51" fill="none" stroke="rgb(33, 228, 63)" stroke-width="3.23" stroke-opacity="1.00" stroke-linejoin="round"/>
<path d="M274.01,412.03 C273.04,411.99 271.96,413.10 271.58,414.45 C271.10,416.30 271.92,419.19 273.37,419.89 C274.79,420.51 276.77,419.33 277.06,417.88 C277.60,414.74 275.74,413.68 275.27,413.59 C275.27,413.59 273.76,415.61 273.76,415.61" fill="none" stroke="rgb(33, 228, 63)" stroke-width="3.23" stroke-opacity="1.00" stroke-linejoin="round"/>
<path d="M276.50,426.69 C275.55,426.89 274.34,427.93 273.79,429.42 C273.59,430.00 273.55,430.61 273.62,431.21 C274.23,432.00 276.45,432.83 277.17,432.62 C278.94,432.00 277.23,428.13 276.50,427.39 C276.50,427.39 275.26,428.13 275.26,428.13" fill="none" stroke="rgb(33, 228, 63)" stroke-width="3.23" stroke-opacity="1.00" stroke-linejoin="round"/>
<path d="M277.33,438.31 C277.33,438.31 275.93,438.31 275.93,438.31 C275.93,438.31 275.12,443.41 275.12,443.41 C276.43,443.68 277.19,443.50 277.82,442.61 C278.85,441.13 279.33,439.43 278.97,438.81 C278.97,438.81 276.79,438.85 276.79,438.85" fill="none" stroke="rgb(33, 228, 63)" stroke-width="3.23" stroke-opacity="1.00" stroke-linejoin="round"/>
<path d="M228.50,482.65 C228.50,482.65 228.14,482.41 228.14,482.41 C228.01,482.52 227.92,482.68 227.87,482.89 C226.91,488.23 222.12,515.57 220.47,531.70 C219.64,540.79 219.55,552.54 219.53,559.46 C219.61,569.49 222.29,597.39 223.12,615.11 C224.66,638.95 225.30,642.84 225.45,644.41 C225.45,644.41 226.14,643.58 226.14,643.58" fill="none" stroke="rgb(33, 228, 63)" stroke-width="3.23" stroke-opacity="1.00" stroke-linejoin="round"/>
<path d="M274.82,541.02 C274.64,545.59 272.57,558.48 271.65,564.40 C268.54,581.82 265.76,602.14 265.35,613.16 C265.09,623.13 265.57,645.80 265.60,646.13 C265.62,646.34 265.70,646.60 265.84,646.89" fill="none" stroke="rgb(33, 228, 63)" stroke-width="3.23" stroke-opacity="1.00" stroke-linejoin="round"/>
<path d="M265.60,648.07 C265.60,648.07 265.30,646.65 265.30,646.65 C265.11,646.60 259.16,648.95 256.00,649.23 C243.72,650.03 226.67,649.12 226.35,649.14 C224.72,649.26 218.26,652.55 216.44,653.78 C214.34,655.25 211.56,659.25 211.58,660.64 C211.67,661.91 212.90,665.26 214.84,666.71 C216.38,667.81 224.40,669.15 227.94,669.76 C231.84,670.37 238.08,670.86 241.29,670.65 C243.91,670.47 251.51,669.04 254.61,668.38 C258.35,667.53 263.21,666.06 265.60,664.35 C266.94,663.36 268.70,661.14 269.24,659.81 C270.14,657.43 269.99,653.51 269.00,651.15 C268.66,650.36 267.91,648.73 267.85,648.71 C267.71,648.67 267.28,648.46 266.55,648.07" fill="none" stroke="rgb(33, 228, 63)" stroke-width="3.23" stroke-opacity="1.00" stroke-linejoin="round"/>
<path d="M274.34,540.54 C274.40,540.54 276.00,542.63 278.86,562.00 C281.38,581.50 282.57,594.31 286.15,620.50 C287.82,632.07 289.29,639.62 290.58,644.90 C290.58,644.90 291.12,645.00 291.12,645.00" fill="none" stroke="rgb(33, 228, 63)" stroke-width="3.23" stroke-opacity="1.00" stroke-linejoin="round"/>
<path d="M313.34,486.43 C313.34,486.43 313.34,486.19 313.34,486.19 C315.50,490.09 319.95,501.82 320.39,503.70 C323.15,515.66 324.99,547.18 326.27,559.72 C327.58,574.25 331.31,644.43 331.41,652.05 C331.41,652.21 331.45,652.38 331.53,652.56" fill="none" stroke="rgb(33, 228, 63)" stroke-width="3.23" stroke-opacity="1.00" stroke-linejoin="round"/>
<path d="M295.61,651.14 C295.61,651.14 295.61,650.43 295.61,650.43 C298.02,649.93 311.99,650.41 316.74,649.42 C324.82,647.56 330.06,647.25 330.66,647.09 C330.88,647.03 331.17,646.88 331.53,646.65" fill="none" stroke="rgb(33, 228, 63)" stroke-width="3.23" stroke-opacity="1.00" stroke-linejoin="round"/>
<path d="M296.32,651.85 C296.32,651.85 295.28,651.85 295.28,651.85 C294.84,652.27 293.21,656.27 292.91,658.50 C292.74,659.92 292.99,662.20 293.48,663.23 C294.41,665.08 298.73,667.84 301.96,668.86 C304.38,669.59 309.97,670.26 311.94,670.28 C315.47,670.27 325.59,670.23 327.03,670.15 C329.92,669.98 334.79,668.23 335.70,667.78 C339.11,666.09 341.13,664.17 341.80,662.75 C342.43,661.35 342.92,657.51 342.45,655.90 C342.15,655.00 341.18,653.20 340.46,652.42 C339.96,651.89 336.86,649.05 335.79,648.07" fill="none" stroke="rgb(33, 228, 63)" stroke-width="3.23" stroke-opacity="1.00" stroke-linejoin="round"/>
<path d="M270.80,494.46 C270.80,494.46 270.80,494.70 270.80,494.70 C270.75,494.70 271.99,494.70 273.03,494.70 C277.46,494.70 278.09,494.65 278.83,494.46 C278.83,494.46 278.36,529.61 278.36,529.61 C278.36,529.61 272.22,530.57 272.22,530.57 C271.92,529.90 270.33,503.22 270.33,494.85 C270.33,494.72 270.33,494.33 270.33,494.46" fill="none" stroke="rgb(33, 228, 63)" stroke-width="3.23" stroke-opacity="1.00" stroke-linejoin="round"/>
<path d="M308.67,118.34 C308.67,118.34 308.67,117.79 308.67,117.79 C307.97,116.76 301.97,114.66 300.04,114.69 C296.97,114.76 282.66,116.37 277.22,117.85 C272.30,119.24 254.74,127.37 251.85,129.00 C247.11,131.70 235.53,141.88 233.07,144.06 C225.35,150.76 217.81,159.34 216.12,161.25 C215.52,161.93 200.41,178.52 195.77,184.64 C192.61,188.90 182.20,205.13 179.89,209.14 C176.31,215.50 170.92,224.29 166.21,234.60 C161.08,245.82 157.62,254.96 155.94,260.85 C152.53,272.97 149.98,287.77 149.57,290.26 C149.57,290.26 151.25,291.84 151.25,291.84" fill="none" stroke="rgb(255, 242, 0)" stroke-width="3.23" stroke-opacity="1.00" stroke-linejoin="round"/>
<path d="M309.41,115.03 C309.41,115.03 309.46,115.40 309.46,115.40 C310.99,114.89 314.97,112.65 316.43,112.56 C318.72,112.45 325.57,112.48 327.43,112.42 C329.14,112.36 333.76,114.31 337.57,114.74 C337.95,114.78 357.53,117.16 361.03,118.09 C363.55,118.78 394.41,130.83 395.33,131.18 C401.65,133.47 404.88,134.99 411.51,139.03 C412.36,139.55 421.87,144.94 422.63,145.41 C425.62,147.29 428.41,150.07 430.70,152.87 C435.31,158.58 445.26,170.84 447.89,173.22 C450.37,175.50 452.93,177.61 458.31,181.89 C461.66,184.59 464.38,187.56 466.77,191.00 C468.82,193.99 472.03,199.92 473.18,202.92 C474.10,205.36 478.86,220.47 482.33,228.34 C487.75,240.47 489.16,250.90 489.19,254.74 C489.19,254.74 488.10,255.11 488.10,255.11" fill="none" stroke="rgb(255, 242, 0)" stroke-width="3.23" stroke-opacity="1.00" stroke-linejoin="round"/>
<path d="M148.74,290.78 C148.71,289.88 148.77,289.25 148.93,288.91 C149.41,287.91 154.73,283.50 156.55,282.54 C158.86,281.39 164.11,280.18 168.60,280.14 C176.73,280.05 184.33,281.41 186.14,281.51 C186.77,281.01 188.35,270.20 191.31,262.18 C192.89,257.99 195.92,251.36 197.98,248.03 C199.91,244.94 203.05,240.98 205.70,237.95 C207.86,235.51 212.06,232.14 214.27,231.20 C218.74,229.40 225.49,230.77 225.74,230.81 C226.09,230.39 228.44,225.27 229.91,223.35 C231.96,220.72 238.74,217.07 242.63,216.21 C245.72,215.57 252.54,215.24 255.08,215.77 C257.21,216.24 263.75,219.67 264.84,220.22 C266.10,220.84 268.15,220.23 272.46,218.20 C277.78,215.64 282.90,213.37 285.45,212.46 C288.79,211.31 293.38,211.10 296.67,211.83 C299.44,212.46 304.64,215.04 307.07,217.24 C316.02,225.48 323.45,239.85 324.11,241.14 C325.02,239.86 331.76,228.99 332.88,228.19 C333.65,227.68 336.66,227.17 338.26,227.31 C339.87,227.48 342.10,228.99 343.18,230.44 C343.90,231.47 344.72,233.18 345.07,234.16 C345.07,234.16 350.22,239.30 350.22,239.30 C350.22,239.30 347.67,238.94 347.67,238.94" fill="none" stroke="rgb(255, 242, 0)" stroke-width="3.23" stroke-opacity="1.00" stroke-linejoin="round"/>
<path d="M358.67,225.33 C358.65,224.03 359.33,223.08 361.71,221.87 C364.82,220.34 370.11,218.45 373.21,217.82 C375.56,217.36 381.19,216.53 383.58,216.81 C385.95,217.10 393.13,219.35 395.48,220.77 C397.53,222.05 401.79,226.62 403.46,229.22 C406.20,233.57 408.01,239.66 408.20,240.30 C411.26,234.42 415.59,229.52 417.99,228.49 C420.50,227.50 426.24,228.00 428.61,229.24 C432.26,231.23 435.03,237.36 435.47,238.72 C436.07,238.62 441.35,235.53 442.78,235.01 C445.15,234.19 449.63,235.09 450.93,236.34 C453.33,238.74 455.31,246.50 455.37,248.86 C458.34,246.85 461.75,245.31 464.23,245.01 C466.86,244.73 472.11,245.20 474.54,245.84 C476.34,246.34 481.33,248.91 483.10,250.66 C483.64,251.20 487.40,255.63 488.33,256.76 C488.33,256.76 487.77,256.95 487.77,256.95" fill="none" stroke="rgb(255, 242, 0)" stroke-width="3.23" stroke-opacity="1.00" stroke-linejoin="round"/>
<path d="M293.60,121.28 C293.15,120.85 291.68,120.28 289.17,120.18 C285.69,120.08 275.10,123.08 270.92,125.38 C265.20,128.55 255.22,135.12 248.79,140.33 C242.84,145.28 237.20,151.49 231.40,159.49 C228.09,163.80 220.39,174.09 216.84,180.81 C213.26,187.76 204.78,204.03 203.13,208.38 C200.99,214.09 193.11,243.49 189.98,259.18 C189.14,262.93 187.49,269.10 187.13,270.41 C187.13,270.41 187.69,269.49 187.69,269.49" fill="none" stroke="rgb(255, 242, 0)" stroke-width="3.23" stroke-opacity="1.00" stroke-linejoin="round"/>
<path d="M296.91,120.55 C296.91,120.29 296.91,120.11 296.91,120.00 C296.90,119.89 296.88,119.71 296.84,119.45 C295.35,119.51 294.15,120.19 290.78,122.54 C282.06,128.74 275.95,134.39 270.53,140.76 C266.26,145.51 258.61,154.19 254.57,159.99 C250.26,166.28 244.89,175.63 241.59,183.41 C236.62,195.20 229.48,218.12 228.15,222.50 C228.15,222.50 230.09,220.81 230.09,220.81" fill="none" stroke="rgb(255, 242, 0)" stroke-width="3.23" stroke-opacity="1.00" stroke-linejoin="round"/>
<path d="M296.54,120.92 C295.93,120.99 291.53,126.28 290.01,128.11 C288.33,130.14 280.92,143.14 277.16,149.66 C276.18,151.44 270.72,165.84 266.00,177.14 C263.33,183.83 259.95,194.61 258.77,200.55 C257.83,206.02 256.70,212.38 256.52,213.28 C256.52,213.28 256.83,212.83 256.83,212.83" fill="none" stroke="rgb(255, 242, 0)" stroke-width="3.23" stroke-opacity="1.00" stroke-linejoin="round"/>
<path d="M303.89,117.97 C303.89,117.97 303.89,117.79 303.89,117.79 C303.89,117.79 303.71,117.61 303.71,117.61 C303.71,117.61 303.52,117.61 303.52,117.61 C299.57,129.56 294.86,144.08 288.88,166.61 C286.62,175.19 284.50,186.38 283.91,194.30 C283.48,200.76 282.98,208.62 282.93,209.77 C282.93,210.02 282.93,210.18 282.93,210.26" fill="none" stroke="rgb(255, 242, 0)" stroke-width="3.23" stroke-opacity="1.00" stroke-linejoin="round"/>
<path d="M312.35,119.08 C312.80,118.99 315.86,118.57 318.37,120.69 C319.83,121.95 321.82,124.31 322.29,125.42 C323.65,128.85 321.49,158.08 320.51,179.88 C319.98,199.07 320.70,211.16 321.46,218.70 C322.08,223.94 322.16,224.84 322.80,225.54 C322.90,225.65 323.10,225.83 323.38,226.07" fill="none" stroke="rgb(255, 242, 0)" stroke-width="3.23" stroke-opacity="1.00" stroke-linejoin="round"/>
<path d="M317.13,120.92 C317.13,120.92 317.13,120.55 317.13,120.55 C320.40,120.37 332.88,122.43 339.37,124.12 C346.73,125.88 360.08,128.87 365.58,130.79 C369.54,132.24 382.52,139.74 388.63,143.28 C393.41,146.04 401.11,152.33 408.90,159.82 C414.08,164.95 425.19,176.54 428.34,180.72 C429.99,182.92 441.67,200.97 441.85,201.24 C444.20,204.75 449.65,211.88 450.22,212.68 C451.96,215.13 455.08,221.10 456.21,224.28 C456.85,226.08 459.22,234.34 459.14,235.50 C459.11,235.79 459.08,236.07 459.04,236.36" fill="none" stroke="rgb(255, 242, 0)" stroke-width="3.23" stroke-opacity="1.00" stroke-linejoin="round"/>
<path d="M323.38,125.33 C324.83,125.01 326.91,124.89 329.16,125.05 C329.81,125.10 344.88,132.29 350.37,134.90 C357.14,138.25 363.67,142.99 370.69,149.70 C376.16,155.02 383.61,163.28 388.07,169.61 C392.40,175.84 402.68,190.50 403.86,192.29 C407.83,198.27 414.80,208.73 416.28,213.60 C416.97,215.91 417.69,219.26 417.82,220.05 C417.82,220.05 417.13,219.82 417.13,219.82" fill="none" stroke="rgb(255, 242, 0)" stroke-width="3.23" stroke-opacity="1.00" stroke-linejoin="round"/>
<path d="M342.50,130.48 C342.50,130.48 342.13,130.48 342.13,130.48 C342.13,130.45 342.14,131.24 342.18,131.60 C342.61,135.10 346.07,142.87 350.69,154.76 C353.26,161.15 358.82,175.17 360.66,181.44 C362.98,189.48 364.93,216.97 365.09,217.68 C365.13,217.81 365.19,218.03 365.29,218.35" fill="none" stroke="rgb(255, 242, 0)" stroke-width="3.23" stroke-opacity="1.00" stroke-linejoin="round"/>
<path d="M302.79,117.61 C302.79,117.61 302.42,117.61 302.42,117.61 C301.70,114.95 299.84,98.88 299.87,98.75 C300.14,97.95 303.50,96.66 307.50,96.05 C308.14,97.16 308.88,112.48 308.90,112.69 C308.93,112.98 309.74,117.25 310.14,119.08" fill="none" stroke="rgb(255, 242, 0)" stroke-width="3.23" stroke-opacity="1.00" stroke-linejoin="round"/>
<path d="M350.58,215.04 C350.58,215.04 350.22,215.04 350.22,215.04 C350.21,214.96 350.25,221.91 350.18,224.15 C350.11,226.37 349.53,234.99 349.51,236.43 C349.48,238.82 350.96,250.72 351.66,262.55 C352.13,270.58 352.98,285.82 352.44,294.23 C351.94,301.06 350.57,316.69 350.08,319.97 C349.53,323.52 347.87,328.09 346.56,330.19 C345.15,332.38 341.36,335.22 338.68,335.58 C333.06,336.20 328.46,331.73 327.70,330.90 C326.70,332.06 326.29,333.24 326.51,335.15 C326.81,337.46 327.83,340.71 328.89,342.42 C330.86,345.47 336.21,348.68 339.75,349.71 C342.69,350.51 347.35,350.62 349.91,349.93 C351.33,349.52 353.56,348.31 354.67,347.30 C356.80,345.30 358.31,340.93 358.90,337.45 C359.29,334.62 360.56,271.97 360.47,221.24 C360.47,221.24 359.41,220.18 359.41,220.18" fill="none" stroke="rgb(255, 242, 0)" stroke-width="3.23" stroke-opacity="1.00" stroke-linejoin="round"/>
<path d="M90.73,56.27 C90.73,56.27 89.90,56.35 89.90,56.35 C89.90,56.35 87.58,76.40 87.58,76.40 C88.17,77.03 90.21,77.32 91.14,75.93 C92.42,73.89 92.85,56.95 92.79,56.42 C92.76,56.21 92.67,55.94 92.53,55.62" fill="none" stroke="rgb(0, 165, 255)" stroke-width="3.23" stroke-opacity="1.00" stroke-linejoin="round"/>
<path d="M87.43,114.33 C87.50,117.35 86.79,119.99 84.95,125.07 C82.88,130.79 83.72,132.15 84.31,132.66 C84.31,132.66 86.10,132.66 86.10,132.66 C87.71,130.99 89.13,127.16 89.93,123.55 C90.51,120.76 90.52,117.63 90.36,116.27 C90.31,115.90 90.21,115.49 90.07,115.03" fill="none" stroke="rgb(0, 165, 255)" stroke-width="3.23" stroke-opacity="1.00" stroke-linejoin="round"/>
<path d="M86.20,177.75 C86.20,181.03 86.06,185.28 85.56,187.35 C85.36,188.16 83.45,193.79 82.92,195.66 C84.46,196.36 85.10,196.46 85.69,195.97 C87.07,194.67 88.62,190.20 88.47,185.60 C88.44,184.73 87.94,179.49 87.84,178.88 C87.75,178.40 87.56,177.57 87.26,176.42" fill="none" stroke="rgb(0, 165, 255)" stroke-width="3.23" stroke-opacity="1.00" stroke-linejoin="round"/>
<path d="M154.14,52.56 C154.13,52.58 154.16,53.97 154.14,54.54 C153.97,59.01 148.79,74.05 148.86,80.68 C149.93,80.94 151.13,80.69 151.92,79.78 C154.11,77.14 154.82,63.89 154.64,59.95 C154.62,59.69 154.60,59.39 154.57,59.07" fill="none" stroke="rgb(0, 165, 255)" stroke-width="3.23" stroke-opacity="1.00" stroke-linejoin="round"/>
<path d="M152.91,120.10 C152.91,120.10 150.53,141.21 150.53,141.21 C152.34,140.72 153.57,139.71 154.08,137.82 C155.31,133.21 154.31,123.72 153.72,121.48 C153.65,121.25 153.55,120.98 153.40,120.69" fill="none" stroke="rgb(0, 165, 255)" stroke-width="3.23" stroke-opacity="1.00" stroke-linejoin="round"/>
<path d="M146.73,188.87 C146.77,191.62 143.37,208.47 143.44,212.60 C143.48,214.70 143.73,215.52 144.33,215.99 C144.33,215.99 147.75,216.26 147.75,216.26 C148.73,215.08 149.01,210.33 148.69,206.42 C148.01,199.34 147.36,191.55 147.27,191.21 C147.23,191.08 147.08,190.74 146.82,190.19" fill="none" stroke="rgb(0, 165, 255)" stroke-width="3.23" stroke-opacity="1.00" stroke-linejoin="round"/>
<path d="M201.09,64.50 C201.09,64.50 200.67,64.50 200.67,64.50 C200.54,71.30 198.03,82.97 198.60,83.57 C199.14,84.05 201.39,84.26 202.58,82.47 C203.83,80.51 204.17,73.86 203.89,71.22 C203.66,69.01 203.05,66.09 203.00,65.32 C202.98,64.97 203.01,64.27 203.09,63.23" fill="none" stroke="rgb(0, 165, 255)" stroke-width="3.23" stroke-opacity="1.00" stroke-linejoin="round"/>
<path d="M199.03,122.98 C198.98,129.77 198.80,132.79 197.78,136.17 C197.48,137.13 195.12,145.32 195.42,146.40 C196.47,146.96 197.99,146.00 198.72,144.74 C200.64,141.30 201.51,130.28 200.87,124.91 C200.84,124.67 200.79,124.36 200.71,123.97" fill="none" stroke="rgb(0, 165, 255)" stroke-width="3.23" stroke-opacity="1.00" stroke-linejoin="round"/>
<path d="M267.38,20.85 C267.38,20.85 267.38,20.44 267.38,20.44 C268.11,25.01 268.55,30.43 268.40,33.93 C268.26,36.65 267.13,42.71 267.18,45.12 C268.26,45.24 268.99,45.05 269.65,44.35 C270.90,42.97 272.57,38.56 272.91,35.85 C273.25,32.68 272.49,27.45 270.91,24.76 C270.75,24.50 270.55,24.08 270.30,23.52" fill="none" stroke="rgb(0, 165, 255)" stroke-width="3.23" stroke-opacity="1.00" stroke-linejoin="round"/>
<path d="M242.27,92.51 C242.27,92.51 240.82,92.61 240.82,92.61 C240.49,92.97 240.21,93.60 239.67,95.35 C238.22,100.01 236.37,105.19 236.56,106.67 C236.61,106.99 236.79,107.43 237.10,108.01 C239.19,106.28 240.40,104.42 241.07,101.67 C241.60,99.44 242.10,95.54 242.19,93.90 C242.22,93.33 242.24,92.36 242.26,90.98" fill="none" stroke="rgb(0, 165, 255)" stroke-width="3.23" stroke-opacity="1.00" stroke-linejoin="round"/>
<path d="M269.03,75.62 C269.03,75.62 267.80,74.80 267.80,74.80 C267.75,79.20 266.62,86.01 266.67,86.63 C266.79,88.11 267.82,89.68 269.08,90.71 C270.47,88.28 271.02,86.83 271.02,85.28 C271.01,82.78 271.17,79.25 271.03,78.47 C270.94,77.96 270.64,76.75 270.15,74.83" fill="none" stroke="rgb(0, 165, 255)" stroke-width="3.23" stroke-opacity="1.00" stroke-linejoin="round"/>
<path d="M352.21,39.80 C352.21,39.80 351.80,39.38 351.80,39.38 C351.80,39.38 351.39,39.57 351.39,39.57 C351.79,42.27 351.66,46.53 350.31,50.45 C348.79,54.85 348.41,56.23 348.62,57.10 C348.88,58.05 350.77,59.57 351.84,59.48 C353.07,59.33 354.83,56.57 355.27,54.06 C356.02,49.44 354.98,43.01 354.04,39.74 C353.98,39.52 353.91,39.16 353.86,38.68" fill="none" stroke="rgb(0, 165, 255)" stroke-width="3.23" stroke-opacity="1.00" stroke-linejoin="round"/>
<path d="M362.10,88.80 C362.10,88.80 362.10,87.62 362.10,87.62 C362.10,87.62 360.35,103.45 360.35,103.45 C361.64,103.03 362.65,100.23 363.15,97.56 C363.58,95.11 363.49,89.74 363.12,88.26 C363.05,88.00 362.89,87.58 362.64,87.00" fill="none" stroke="rgb(0, 165, 255)" stroke-width="3.23" stroke-opacity="1.00" stroke-linejoin="round"/>
<path d="M422.63,57.92 C422.63,57.92 422.22,57.92 422.22,57.92 C422.17,63.43 420.17,77.00 421.02,80.28 C422.11,80.65 422.71,80.73 423.19,80.09 C425.05,77.61 426.16,73.25 426.32,71.25 C426.66,66.23 424.35,60.02 423.82,59.32 C423.65,59.10 423.33,58.80 422.84,58.43" fill="none" stroke="rgb(0, 165, 255)" stroke-width="3.23" stroke-opacity="1.00" stroke-linejoin="round"/>
<path d="M423.04,108.15 C422.22,113.45 420.30,121.85 420.63,123.87 C420.99,125.87 422.95,126.27 423.64,126.18 C424.89,125.37 426.00,121.29 426.12,118.27 C426.19,115.59 425.04,110.04 424.16,108.35 C423.98,108.00 423.56,107.37 422.92,106.46" fill="none" stroke="rgb(0, 165, 255)" stroke-width="3.23" stroke-opacity="1.00" stroke-linejoin="round"/>
<path d="M479.87,59.15 C479.90,62.71 479.13,70.76 478.85,72.34 C478.46,74.57 476.48,81.87 476.30,83.13 C476.14,84.40 477.44,85.72 478.66,85.66 C479.96,85.56 481.94,83.50 482.38,81.67 C482.78,79.84 482.71,75.15 482.14,71.80 C481.65,68.99 480.13,64.23 479.34,62.68 C479.20,62.40 478.92,61.92 478.49,61.23" fill="none" stroke="rgb(0, 165, 255)" stroke-width="3.23" stroke-opacity="1.00" stroke-linejoin="round"/>
<path d="M469.57,129.98 C469.70,131.59 470.74,138.05 470.75,141.92 C470.71,145.36 468.15,151.97 466.68,155.53 C465.53,158.69 465.60,162.50 466.80,163.24 C467.52,163.22 468.57,162.69 469.19,161.66 C470.55,159.38 471.36,153.83 471.49,151.62 C471.75,146.51 470.71,137.62 470.06,134.75 C470.01,134.52 469.98,134.30 469.96,134.07" fill="none" stroke="rgb(0, 165, 255)" stroke-width="3.23" stroke-opacity="1.00" stroke-linejoin="round"/>
<path d="M494.69,186.39 C494.69,186.39 494.58,186.10 494.58,186.10 C494.58,186.10 490.79,201.55 490.79,201.55 C491.44,201.93 493.03,201.77 493.84,200.96 C494.79,199.88 495.32,195.82 495.25,189.88 C495.21,188.23 495.16,187.18 495.10,186.73 C495.06,186.43 494.96,186.24 494.82,186.15" fill="none" stroke="rgb(0, 165, 255)" stroke-width="3.23" stroke-opacity="1.00" stroke-linejoin="round"/>
</g>
</svg>
