<?xml version="1.0" encoding="UTF-8" standalone="no"?>
<!DOCTYPE svg PUBLIC "-//W3C//DTD SVG 1.1//EN" "http://www.w3.org/Graphics/SVG/1.1/DTD/svg11.dtd">
<svg width="128.40" height="181.68" viewBox="0.00 0.00 535.00 757.00" xmlns="http://www.w3.org/2000/svg" xmlns:xlink="http://www.w3.org/1999/xlink">
<g stroke-linecap="round" id="41">
<path d="M334.78,331.77 C334.73,331.42 334.69,331.17 334.66,331.02 C334.63,330.87 334.57,330.60 334.47,330.22 C334.08,329.80 330.81,329.80 328.80,330.94 C326.03,332.56 321.30,337.94 319.76,340.44 C318.33,342.83 316.56,346.96 316.10,349.25 C315.67,351.58 315.75,356.15 316.30,358.84 C317.01,362.05 319.80,367.56 322.45,369.69 C324.40,371.19 333.09,373.46 333.35,373.52 C335.37,373.97 341.32,374.48 344.37,373.68 C345.91,373.26 351.48,370.32 353.69,368.31 C356.03,366.14 360.51,360.34 361.33,357.54 C362.04,355.01 362.23,350.00 362.07,347.78 C361.78,344.82 359.19,339.98 356.93,338.12 C355.34,336.83 351.85,334.11 349.80,332.58 C347.57,330.93 344.02,329.29 341.96,328.95 C339.51,328.59 336.51,329.99 336.11,330.65" fill="none" stroke="rgb(255, 165, 0)" stroke-width="4.18" stroke-opacity="1.00" stroke-linejoin="round"/>
<path d="M322.02,355.29 C321.38,354.93 320.49,354.54 319.74,354.35 C319.46,354.29 318.86,354.17 317.95,354.00 C317.95,354.00 362.30,347.01 362.30,347.01 C362.30,347.01 361.50,346.73 361.50,346.73" fill="none" stroke="rgb(255, 165, 0)" stroke-width="4.18" stroke-opacity="1.00" stroke-linejoin="round"/>
<path d="M327.70,360.83 C327.70,360.83 327.08,360.18 327.08,360.18 C327.08,360.18 327.67,361.28 327.67,361.28 C327.67,361.28 327.48,361.00 327.48,361.00 C327.48,361.00 327.50,361.09 327.50,361.09" fill="none" stroke="rgb(255, 165, 0)" stroke-width="4.18" stroke-opacity="1.00" stroke-linejoin="round"/>
<path d="M329.28,360.44 C329.28,360.44 329.44,360.30 329.44,360.30 C329.44,360.30 329.49,360.07 329.49,360.07 C329.49,360.07 329.27,359.86 329.27,359.86 C329.27,359.86 327.98,361.05 327.98,361.05 C327.98,361.05 329.13,360.22 329.13,360.22 C329.13,360.22 327.46,360.47 327.46,360.47 C327.46,360.47 327.88,360.64 327.88,360.64 C327.46,360.60 327.21,360.57 327.12,360.57 C327.04,360.56 327.00,360.57 327.00,360.59" fill="none" stroke="rgb(255, 165, 0)" stroke-width="4.18" stroke-opacity="1.00" stroke-linejoin="round"/>
<path d="M348.55,357.78 C348.55,357.78 346.04,358.10 346.04,358.10 C346.04,358.10 346.18,359.13 346.18,359.13 C346.18,359.13 347.58,358.10 347.58,358.10 C346.66,357.14 345.91,357.83 345.60,358.24 C345.60,358.24 346.89,358.69 346.89,358.69 C346.89,358.69 345.08,358.95 345.08,358.95" fill="none" stroke="rgb(255, 165, 0)" stroke-width="4.18" stroke-opacity="1.00" stroke-linejoin="round"/>
<path d="M334.22,369.98 C334.22,369.98 332.85,369.17 332.85,369.17 C332.94,369.74 335.71,371.52 337.40,371.39 C339.24,371.19 342.72,368.81 343.77,367.19 C344.08,366.68 344.84,365.22 344.80,365.28 C344.80,365.28 344.12,366.50 344.12,366.50" fill="none" stroke="rgb(255, 165, 0)" stroke-width="4.18" stroke-opacity="1.00" stroke-linejoin="round"/>
<path d="M335.65,378.32 C335.65,378.32 335.56,377.59 335.56,377.59 C335.47,378.20 336.03,384.78 336.46,385.41 C336.57,385.56 336.85,385.79 337.28,386.08 C337.28,386.08 338.14,385.38 338.14,385.38" fill="none" stroke="rgb(255, 165, 0)" stroke-width="4.18" stroke-opacity="1.00" stroke-linejoin="round"/>
<path d="M347.96,374.64 C347.96,374.64 347.23,374.77 347.23,374.77 C347.17,376.18 347.03,379.40 346.96,381.21 C346.90,382.61 346.81,384.88 346.77,385.73 C346.77,385.73 346.78,385.29 346.78,385.29" fill="none" stroke="rgb(255, 165, 0)" stroke-width="4.18" stroke-opacity="1.00" stroke-linejoin="round"/>
<path d="M336.78,387.33 C336.78,387.33 336.64,385.96 336.64,385.96 C340.06,386.77 349.08,385.26 351.32,384.09 C351.32,384.09 351.24,383.80 351.24,383.80 C351.24,383.80 351.02,383.75 351.02,383.75" fill="none" stroke="rgb(255, 165, 0)" stroke-width="4.18" stroke-opacity="1.00" stroke-linejoin="round"/>
<path d="M334.93,387.04 C334.93,387.04 335.71,386.18 335.71,386.18 C335.74,386.25 332.35,388.55 329.73,391.12 C325.65,395.14 316.26,406.20 313.52,410.64 C311.79,413.47 309.32,418.46 308.39,421.12 C307.49,423.74 307.21,427.36 307.32,428.02 C307.32,428.02 307.64,427.55 307.64,427.55" fill="none" stroke="rgb(255, 165, 0)" stroke-width="4.18" stroke-opacity="1.00" stroke-linejoin="round"/>
<path d="M301.70,445.71 C301.81,445.21 302.00,444.29 302.02,444.01 C302.05,443.48 302.07,442.18 302.06,442.04 C302.04,442.02 302.00,448.40 303.66,451.50 C304.16,452.40 306.17,453.71 308.22,453.99 C310.36,454.25 314.99,453.28 317.02,452.26 C319.00,451.24 322.14,446.73 323.54,443.88 C324.00,442.94 327.11,436.08 328.68,433.61 C328.68,433.61 327.94,433.66 327.94,433.66" fill="none" stroke="rgb(255, 165, 0)" stroke-width="4.18" stroke-opacity="1.00" stroke-linejoin="round"/>
<path d="M351.74,385.10 C351.74,385.10 350.39,384.96 350.39,384.96 C350.36,384.89 354.63,386.84 359.07,387.66 C366.43,389.14 379.82,391.81 383.63,394.01 C385.47,395.10 388.16,397.72 390.96,400.61 C392.92,402.70 394.96,406.13 395.74,408.60 C399.09,419.69 410.32,439.08 410.48,439.45 C410.78,440.13 410.92,440.30 411.05,440.40 C411.05,440.40 410.80,439.66 410.80,439.66" fill="none" stroke="rgb(255, 165, 0)" stroke-width="4.18" stroke-opacity="1.00" stroke-linejoin="round"/>
<path d="M374.77,435.40 C374.77,435.40 374.61,433.25 374.61,433.25 C376.00,434.99 378.16,438.83 379.67,440.91 C382.58,444.91 391.35,452.65 394.63,455.63 C397.19,454.60 399.81,451.39 402.40,449.70 C403.49,449.00 412.09,443.93 414.03,442.29 C414.74,441.69 415.16,441.09 415.18,440.90 C415.18,440.90 413.25,440.28 413.25,440.28" fill="none" stroke="rgb(255, 165, 0)" stroke-width="4.18" stroke-opacity="1.00" stroke-linejoin="round"/>
<path d="M393.80,455.52 C393.80,455.52 393.45,455.45 393.45,455.45 C393.45,455.45 392.60,461.24 392.60,461.24 C392.60,461.24 395.29,456.55 395.29,456.55 C395.29,456.55 396.82,460.72 396.82,460.72 C396.82,460.72 399.76,456.54 399.76,456.54 C399.76,456.54 400.90,459.41 400.90,459.41 C400.90,459.41 403.15,455.36 403.15,455.36 C403.15,455.36 403.84,456.64 403.84,456.64 C403.84,456.64 407.23,453.06 407.23,453.06 C407.65,453.23 409.53,454.34 410.22,453.81 C410.90,453.27 411.65,449.58 411.66,449.31 C411.66,449.31 412.71,451.46 412.71,451.46 C413.12,450.92 412.76,448.06 411.78,444.73 C411.65,444.19 411.85,443.54 412.26,442.59" fill="none" stroke="rgb(255, 165, 0)" stroke-width="4.18" stroke-opacity="1.00" stroke-linejoin="round"/>
<path d="M378.45,437.57 C378.45,437.57 378.34,436.91 378.34,436.91 C378.34,436.91 379.59,493.26 379.59,493.26 C379.59,493.26 379.71,492.37 379.71,492.37" fill="none" stroke="rgb(255, 165, 0)" stroke-width="4.18" stroke-opacity="1.00" stroke-linejoin="round"/>
<path d="M325.16,451.13 C325.28,450.55 325.36,450.13 325.42,449.86 C325.57,449.18 325.65,448.79 325.65,448.68 C325.65,448.54 325.61,448.34 325.52,448.09 C324.94,451.57 324.44,455.97 324.28,460.59 C323.94,471.56 325.62,499.43 326.27,500.29 C326.27,500.29 326.58,499.43 326.58,499.43" fill="none" stroke="rgb(255, 165, 0)" stroke-width="4.18" stroke-opacity="1.00" stroke-linejoin="round"/>
<path d="M323.63,497.95 C323.63,497.95 323.78,497.10 323.78,497.10 C324.01,496.95 326.73,497.13 330.80,497.84 C335.24,498.51 346.16,498.02 359.45,497.07 C368.42,496.30 376.03,495.49 378.17,495.61 C378.32,495.62 378.46,495.61 378.59,495.59" fill="none" stroke="rgb(255, 165, 0)" stroke-width="4.18" stroke-opacity="1.00" stroke-linejoin="round"/>
<path d="M334.22,503.82 C334.55,502.37 334.75,501.45 334.84,501.08 C335.11,499.98 335.46,499.06 335.88,498.15 C335.88,498.15 335.73,523.83 335.73,523.83 C335.73,523.83 335.97,522.04 335.97,522.04 C332.95,523.79 329.50,526.36 327.60,528.38 C325.81,530.34 324.38,533.26 324.66,534.39 C325.99,535.09 328.85,535.04 333.80,534.77 C354.44,533.16 357.64,530.74 358.30,530.09 C358.30,530.09 357.86,530.08 357.86,530.08" fill="none" stroke="rgb(255, 165, 0)" stroke-width="4.18" stroke-opacity="1.00" stroke-linejoin="round"/>
<path d="M357.02,501.22 C357.02,501.22 356.85,499.54 356.85,499.54 C356.83,499.55 355.37,518.63 355.25,522.33 C355.16,527.96 355.34,529.52 355.83,532.22 C355.83,532.22 355.32,531.50 355.32,531.50" fill="none" stroke="rgb(255, 165, 0)" stroke-width="4.18" stroke-opacity="1.00" stroke-linejoin="round"/>
<path d="M374.66,497.56 C374.66,497.56 374.55,497.33 374.55,497.33 C374.55,497.33 374.39,497.43 374.39,497.43 C373.94,501.28 373.79,516.16 374.08,520.34 C374.15,521.29 374.14,521.68 374.07,521.68 C374.07,521.68 373.98,521.60 373.98,521.60" fill="none" stroke="rgb(255, 165, 0)" stroke-width="4.18" stroke-opacity="1.00" stroke-linejoin="round"/>
<path d="M375.02,522.44 C375.02,522.44 373.90,522.51 373.90,522.51 C376.74,523.36 383.27,525.32 384.38,525.88 C386.42,526.93 388.57,530.41 388.73,532.24 C388.84,533.85 388.54,535.47 387.96,536.62 C387.46,537.47 384.22,537.85 379.98,537.49 C375.67,537.10 371.26,536.92 366.33,536.92 C361.55,536.90 359.99,536.61 357.51,535.89 C357.51,535.89 357.38,535.13 357.38,535.13 C357.38,535.13 358.13,535.05 358.13,535.05" fill="none" stroke="rgb(255, 165, 0)" stroke-width="4.18" stroke-opacity="1.00" stroke-linejoin="round"/>
<path d="M346.31,409.78 C345.64,409.76 344.88,409.68 344.65,409.49 C344.53,409.39 344.32,409.11 344.04,408.66 C342.20,409.83 342.31,411.66 342.57,411.91 C342.57,411.91 344.50,410.64 344.50,410.64 C344.50,410.64 342.88,412.73 342.88,412.73 C345.73,413.77 344.75,410.01 344.55,409.69 C344.55,409.69 342.93,410.34 342.93,410.34" fill="none" stroke="rgb(255, 165, 0)" stroke-width="4.18" stroke-opacity="1.00" stroke-linejoin="round"/>
<path d="M348.00,429.86 C347.98,429.56 347.96,429.33 347.92,429.19 C347.89,429.05 347.80,428.79 347.65,428.41 C347.65,428.41 347.28,428.21 347.28,428.21 C347.28,428.21 345.64,433.17 345.64,433.17 C345.64,433.17 347.36,430.23 347.36,430.23 C346.33,429.34 345.50,431.88 345.58,432.38 C345.58,432.38 347.22,430.92 347.22,430.92 C347.22,430.92 344.90,431.73 344.90,431.73 C344.90,431.73 346.24,431.82 346.24,431.82" fill="none" stroke="rgb(255, 165, 0)" stroke-width="4.18" stroke-opacity="1.00" stroke-linejoin="round"/>
<path d="M346.51,456.88 C346.51,456.88 345.57,456.45 345.57,456.45 C345.57,456.45 345.22,458.07 345.22,458.07 C345.22,458.07 347.16,454.44 347.16,454.44 C347.16,454.44 345.68,456.45 345.68,456.45 C345.68,456.45 347.30,455.07 347.30,455.07 C346.86,454.75 346.36,454.97 345.60,455.88 C345.51,455.98 345.39,456.13 345.24,456.32 C345.24,456.32 345.30,456.26 345.30,456.26" fill="none" stroke="rgb(255, 165, 0)" stroke-width="4.18" stroke-opacity="1.00" stroke-linejoin="round"/>
<path d="M347.25,473.61 C347.25,473.61 345.62,473.91 345.62,473.91 C345.62,473.91 345.13,476.50 345.13,476.50 C346.56,476.17 347.33,473.69 347.24,473.16 C346.11,472.70 345.22,474.16 345.36,474.97 C345.36,474.97 347.41,473.66 347.41,473.66 C347.41,473.66 346.36,474.99 346.36,474.99 C346.36,474.99 347.01,474.79 347.01,474.79" fill="none" stroke="rgb(255, 165, 0)" stroke-width="4.18" stroke-opacity="1.00" stroke-linejoin="round"/>
<path d="M300.92,253.02 C301.73,252.89 302.27,252.77 302.55,252.66 C303.11,252.44 304.27,251.55 304.86,251.05 C304.86,251.05 304.85,250.65 304.85,250.65 C303.80,250.63 287.42,253.19 283.75,254.49 C280.63,255.63 263.79,265.34 262.54,266.12 C257.75,269.16 248.12,279.86 244.81,285.11 C241.68,290.09 235.41,301.62 232.47,309.18 C229.94,315.93 224.74,328.89 224.77,329.69 C224.79,330.05 224.81,331.07 225.04,331.86 C225.17,331.98 238.20,329.95 245.67,329.59 C250.31,329.36 270.65,330.64 273.78,330.62 C276.61,330.60 292.39,328.68 295.23,328.48 C297.17,328.35 329.17,327.76 351.14,326.30 C377.13,324.59 390.03,324.38 398.55,324.31 C400.00,324.27 400.21,324.27 400.31,324.31" fill="none" stroke="rgb(255, 0, 0)" stroke-width="4.18" stroke-opacity="1.00" stroke-linejoin="round"/>
<path d="M307.22,257.53 C307.22,257.53 305.74,256.04 305.74,256.04 C305.74,256.04 305.02,256.10 305.02,256.10 C306.93,255.66 312.01,255.47 313.51,255.69 C316.19,256.10 335.02,262.38 342.78,265.20 C352.48,269.00 361.34,272.89 366.05,276.06 C371.06,279.45 382.72,290.38 385.70,294.35 C388.51,298.16 392.61,309.34 393.78,316.25 C394.29,319.33 394.63,323.70 394.71,325.31 C394.71,325.31 394.71,324.42 394.71,324.42" fill="none" stroke="rgb(255, 0, 0)" stroke-width="4.18" stroke-opacity="1.00" stroke-linejoin="round"/>
<path d="M297.21,260.12 C297.47,258.92 297.67,258.11 297.82,257.69 C298.02,257.14 298.42,256.38 299.03,255.42 C299.21,255.12 299.61,254.51 300.24,253.58 C300.24,253.58 299.78,253.56 299.78,253.56 C297.79,256.40 291.50,270.57 288.99,276.80 C286.37,283.58 281.84,297.60 279.68,304.56 C276.97,313.79 274.33,325.46 272.78,332.50 C272.78,332.50 272.62,328.49 272.62,328.49" fill="none" stroke="rgb(255, 0, 0)" stroke-width="4.18" stroke-opacity="1.00" stroke-linejoin="round"/>
<path d="M305.01,256.58 C305.01,256.58 303.16,254.48 303.16,254.48 C303.16,254.48 306.81,336.03 306.81,336.03 C306.81,336.03 306.21,334.19 306.21,334.19" fill="none" stroke="rgb(255, 0, 0)" stroke-width="4.18" stroke-opacity="1.00" stroke-linejoin="round"/>
<path d="M308.32,259.26 C308.32,259.26 307.06,257.38 307.06,257.38 C311.45,262.08 341.08,299.45 341.84,300.51 C343.09,302.27 355.84,321.66 358.65,324.71 C360.69,326.88 362.27,327.63 363.09,327.90 C363.09,327.90 363.08,328.11 363.08,328.11 C363.08,328.11 362.90,328.33 362.90,328.33" fill="none" stroke="rgb(255, 0, 0)" stroke-width="4.18" stroke-opacity="1.00" stroke-linejoin="round"/>
<path d="M293.00,333.07 C293.07,332.52 293.14,331.98 293.20,331.43 C293.24,331.14 293.30,330.85 293.32,330.56 C293.33,330.44 293.34,330.17 293.35,329.78 C293.35,329.77 293.35,329.80 293.35,329.81 C292.11,338.90 292.06,346.20 292.82,355.36 C294.93,385.35 299.67,432.42 300.51,435.25 C300.83,436.23 301.91,437.69 302.76,438.16 C304.55,439.06 306.78,439.37 308.30,438.81 C309.30,438.42 311.94,436.62 312.44,436.05 C313.12,435.20 312.80,432.40 311.81,431.78 C311.04,431.29 308.95,429.89 308.55,428.92 C307.53,426.34 304.86,410.84 304.27,405.10 C302.81,392.44 302.67,380.19 302.22,375.85 C301.40,369.83 300.10,359.60 299.93,352.59 C299.51,329.17 299.55,328.84 299.65,328.77 C299.65,328.77 299.81,328.69 299.81,328.69" fill="none" stroke="rgb(255, 0, 0)" stroke-width="4.18" stroke-opacity="1.00" stroke-linejoin="round"/>
<path d="M81.39,67.29 C81.39,67.29 80.89,65.22 80.89,65.22 C79.99,66.41 79.60,67.20 79.53,68.39 C79.35,71.91 78.89,89.12 79.05,94.15 C79.31,101.68 80.85,117.89 82.47,122.10 C83.35,124.37 84.38,126.01 84.77,125.95" fill="none" stroke="rgb(0, 0, 255)" stroke-width="4.18" stroke-opacity="1.00" stroke-linejoin="round"/>
<path d="M74.57,120.48 C74.57,120.48 73.86,119.08 73.86,119.08 C73.82,120.81 76.05,157.39 77.15,172.50 C78.41,186.61 82.30,218.50 84.32,229.76 C88.01,247.96 94.86,273.97 99.03,289.36 C103.71,305.45 109.87,324.42 111.14,328.28 C111.14,328.28 109.97,324.42 109.97,324.42" fill="none" stroke="rgb(0, 0, 255)" stroke-width="4.18" stroke-opacity="1.00" stroke-linejoin="round"/>
<path d="M46.13,227.97 C46.13,227.97 46.56,228.21 46.56,228.21 C45.04,236.47 44.18,249.62 43.83,257.31 C42.97,287.56 42.75,318.15 42.75,319.15 C42.53,318.11 41.92,315.25 41.85,314.62 C41.80,314.21 41.77,313.47 41.75,312.41" fill="none" stroke="rgb(0, 0, 255)" stroke-width="4.18" stroke-opacity="1.00" stroke-linejoin="round"/>
<path d="M116.48,195.88 C116.48,195.88 116.40,193.58 116.40,193.58 C116.36,196.57 114.73,215.19 114.56,218.69 C114.37,222.88 114.39,240.13 115.62,244.54 C115.62,244.54 116.40,243.97 116.40,243.97" fill="none" stroke="rgb(0, 0, 255)" stroke-width="4.18" stroke-opacity="1.00" stroke-linejoin="round"/>
<path d="M156.33,137.17 C156.64,135.37 156.91,133.41 156.84,132.53 C156.81,132.12 156.68,131.32 156.45,130.12 C155.36,144.26 153.51,173.44 152.74,188.48 C152.33,203.94 152.36,233.99 152.72,248.40 C153.46,263.42 155.16,295.10 156.12,311.76 C156.46,318.14 156.97,328.27 157.05,334.36 C157.05,334.36 156.83,333.22 156.83,333.22" fill="none" stroke="rgb(0, 0, 255)" stroke-width="4.18" stroke-opacity="1.00" stroke-linejoin="round"/>
<path d="M170.49,47.66 C170.23,47.86 169.41,49.10 169.07,50.07 C168.99,50.31 166.18,85.88 165.56,93.06 C165.32,96.31 165.26,100.66 165.60,102.28" fill="none" stroke="rgb(0, 0, 255)" stroke-width="4.18" stroke-opacity="1.00" stroke-linejoin="round"/>
<path d="M201.11,171.55 C201.11,171.55 200.83,169.86 200.83,169.86 C200.78,169.85 200.78,171.12 200.78,172.18 C200.73,175.89 199.81,196.89 199.85,201.53 C200.05,211.42 200.63,220.89 201.91,229.83 C202.47,233.59 204.02,239.49 205.35,241.52 C205.35,241.52 205.33,240.29 205.33,240.29" fill="none" stroke="rgb(0, 0, 255)" stroke-width="4.18" stroke-opacity="1.00" stroke-linejoin="round"/>
<path d="M240.38,82.98 C240.38,82.98 240.32,80.60 240.32,80.60 C239.34,81.65 236.03,96.72 235.29,101.97 C234.33,108.91 234.50,124.67 235.33,130.26 C235.71,132.76 237.00,135.65 237.53,136.74" fill="none" stroke="rgb(0, 0, 255)" stroke-width="4.18" stroke-opacity="1.00" stroke-linejoin="round"/>
<path d="M282.05,131.23 C282.05,131.23 281.31,128.41 281.31,128.41 C281.31,128.41 280.04,128.45 280.04,128.45 C278.41,131.27 272.49,148.11 270.73,154.44 C268.51,162.69 266.17,175.26 264.88,182.42 C263.28,191.83 263.17,198.00 263.47,198.73" fill="none" stroke="rgb(0, 0, 255)" stroke-width="4.18" stroke-opacity="1.00" stroke-linejoin="round"/>
<path d="M294.21,216.34 C294.21,216.34 294.03,214.66 294.03,214.66 C293.81,217.44 293.30,223.38 293.01,226.54 C292.31,234.86 292.23,244.42 292.58,246.19" fill="none" stroke="rgb(0, 0, 255)" stroke-width="4.18" stroke-opacity="1.00" stroke-linejoin="round"/>
<path d="M344.76,96.97 C344.76,96.97 344.35,93.49 344.35,93.49 C343.00,93.03 342.27,93.13 341.69,94.07 C340.08,96.69 336.53,109.46 334.87,117.24 C333.58,123.74 331.11,138.14 329.94,145.45 C326.88,168.04 328.08,171.29 328.49,171.77 C328.49,171.77 328.85,171.31 328.85,171.31" fill="none" stroke="rgb(0, 0, 255)" stroke-width="4.18" stroke-opacity="1.00" stroke-linejoin="round"/>
<path d="M382.08,122.07 C382.08,122.07 382.16,118.08 382.16,118.08 C377.95,133.56 372.74,160.23 370.80,174.64 C369.94,181.97 368.70,196.43 368.30,203.63 C367.78,219.05 369.47,240.86 370.70,245.92 C371.22,247.98 373.15,252.39 374.35,252.79 C374.35,252.79 374.86,252.04 374.86,252.04" fill="none" stroke="rgb(0, 0, 255)" stroke-width="4.18" stroke-opacity="1.00" stroke-linejoin="round"/>
<path d="M420.22,107.72 C420.22,107.72 420.22,106.40 420.22,106.40 C418.92,109.41 412.97,125.63 410.09,133.56 C404.95,148.80 398.62,167.65 397.44,171.26 C396.98,172.68 396.32,174.66 396.13,175.24" fill="none" stroke="rgb(0, 0, 255)" stroke-width="4.18" stroke-opacity="1.00" stroke-linejoin="round"/>
<path d="M423.22,178.43 C423.22,178.43 424.62,172.92 424.62,172.92 C422.33,180.41 417.36,197.05 415.99,202.54 C411.20,222.72 412.01,226.23 412.26,226.37 C412.26,226.37 412.97,224.97 412.97,224.97" fill="none" stroke="rgb(0, 0, 255)" stroke-width="4.18" stroke-opacity="1.00" stroke-linejoin="round"/>
<path d="M467.77,93.50 C467.77,93.50 466.32,89.01 466.32,89.01 C465.97,111.43 466.68,126.60 467.12,134.90 C467.35,138.64 468.20,142.61 468.58,143.88" fill="none" stroke="rgb(0, 0, 255)" stroke-width="4.18" stroke-opacity="1.00" stroke-linejoin="round"/>
<path d="M525.84,156.92 C525.83,155.96 525.89,155.21 526.01,154.69 C526.35,153.17 527.30,151.08 527.40,151.32 C525.65,158.93 517.48,196.61 513.90,212.79 C512.16,220.32 511.24,222.14 510.65,223.04 C510.65,223.04 509.81,220.30 509.81,220.30" fill="none" stroke="rgb(0, 0, 255)" stroke-width="4.18" stroke-opacity="1.00" stroke-linejoin="round"/>
<path d="M468.83,215.69 C468.83,215.69 470.46,210.00 470.46,210.00 C470.92,213.09 466.21,266.07 465.93,271.43 C465.76,275.55 465.77,276.46 465.86,278.30 C465.86,278.30 465.85,278.18 465.85,278.18" fill="none" stroke="rgb(0, 0, 255)" stroke-width="4.18" stroke-opacity="1.00" stroke-linejoin="round"/>
<path d="M449.67,316.54 C449.89,315.81 450.12,315.08 450.34,314.35 C450.67,313.28 450.86,312.62 450.90,312.38 C450.95,312.09 450.96,311.59 450.94,310.88 C448.50,317.70 440.08,355.64 437.29,370.30 C435.93,377.94 433.71,390.37 433.26,391.85 C433.26,391.85 432.81,392.11 432.81,392.11 C432.81,392.11 432.43,391.53 432.43,391.53" fill="none" stroke="rgb(0, 0, 255)" stroke-width="4.18" stroke-opacity="1.00" stroke-linejoin="round"/>
<path d="M395.07,350.98 C395.07,350.98 393.28,349.38 393.28,349.38 C393.28,349.36 390.57,366.47 389.35,373.98 C388.62,379.11 388.54,380.45 388.46,383.48 C388.46,383.48 388.56,383.51 388.56,383.51 C388.56,383.51 388.60,382.79 388.60,382.79" fill="none" stroke="rgb(0, 0, 255)" stroke-width="4.18" stroke-opacity="1.00" stroke-linejoin="round"/>
<path d="M496.86,379.31 C496.93,378.45 497.01,377.74 497.13,377.18 C497.25,376.62 497.55,375.43 498.05,373.62 C496.68,376.91 492.27,394.47 491.37,398.83 C490.01,405.79 487.57,423.52 487.19,428.02 C485.94,444.27 486.65,461.57 488.14,471.30 C489.12,477.27 489.45,478.56 490.29,481.24" fill="none" stroke="rgb(0, 0, 255)" stroke-width="4.18" stroke-opacity="1.00" stroke-linejoin="round"/>
<path d="M234.62,352.51 C234.58,351.76 234.55,351.24 234.51,350.95 C234.48,350.66 234.41,350.20 234.29,349.56 C234.20,352.00 232.02,374.76 231.90,377.77 C231.87,378.66 232.12,386.22 232.90,389.07 C232.90,389.07 233.76,389.41 233.76,389.41 C233.76,389.41 234.26,388.83 234.26,388.83" fill="none" stroke="rgb(0, 0, 255)" stroke-width="4.18" stroke-opacity="1.00" stroke-linejoin="round"/>
<path d="M250.84,394.53 C250.84,394.53 249.99,394.08 249.99,394.08 C249.90,394.17 250.26,412.29 250.42,420.79 C250.64,429.31 251.06,442.38 251.96,446.81 C252.10,446.86 252.27,446.19 252.26,446.01 C252.25,445.88 252.22,445.76 252.16,445.64" fill="none" stroke="rgb(0, 0, 255)" stroke-width="4.18" stroke-opacity="1.00" stroke-linejoin="round"/>
<path d="M269.00,430.03 C269.00,430.03 268.40,430.04 268.40,430.04 C267.56,432.48 267.33,433.76 267.43,435.95 C267.55,439.87 267.86,447.82 268.04,451.85 C268.23,455.81 268.62,459.98 268.77,461.08" fill="none" stroke="rgb(0, 0, 255)" stroke-width="4.18" stroke-opacity="1.00" stroke-linejoin="round"/>
<path d="M245.49,489.51 C245.49,489.51 244.66,484.18 244.66,484.18 C246.36,486.80 247.73,492.57 248.51,496.84 C249.99,505.22 253.01,523.17 253.71,528.55 C254.16,531.95 254.77,536.58 254.94,537.82" fill="none" stroke="rgb(0, 0, 255)" stroke-width="4.18" stroke-opacity="1.00" stroke-linejoin="round"/>
<path d="M179.54,381.25 C179.54,381.25 178.35,377.84 178.35,377.84 C178.43,379.13 183.33,397.16 184.37,401.82 C188.62,421.10 196.19,482.19 197.12,487.06 C197.48,488.91 197.77,489.86 198.34,491.21" fill="none" stroke="rgb(0, 0, 255)" stroke-width="4.18" stroke-opacity="1.00" stroke-linejoin="round"/>
<path d="M103.43,378.66 C103.43,378.66 103.05,376.11 103.05,376.11 C102.40,376.53 100.85,389.55 100.25,400.57 C99.93,408.91 99.45,425.18 99.47,433.55 C99.85,448.02 103.40,485.50 104.76,492.50 C105.39,495.79 105.68,497.53 105.83,498.54 C105.85,498.54 105.80,498.49 105.70,498.37 C105.09,497.71 104.71,497.12 104.55,496.60 C104.39,496.07 104.20,494.84 104.00,492.91" fill="none" stroke="rgb(0, 0, 255)" stroke-width="4.18" stroke-opacity="1.00" stroke-linejoin="round"/>
<path d="M105.90,529.53 C105.90,529.53 104.03,527.76 104.03,527.76 C103.26,530.27 103.46,537.26 103.58,541.37 C104.48,560.99 106.13,571.02 106.47,572.55" fill="none" stroke="rgb(0, 0, 255)" stroke-width="4.18" stroke-opacity="1.00" stroke-linejoin="round"/>
<path d="M322.72,539.41 C322.70,538.64 322.78,537.87 322.96,537.35 C323.09,536.96 323.60,535.37 323.46,534.86 C323.40,534.66 323.18,534.32 322.82,533.84 C321.66,533.62 320.11,534.01 318.29,535.20 C314.26,537.86 311.52,540.54 310.69,541.78 C311.08,543.01 311.54,543.69 312.39,543.97 C316.80,545.36 331.29,545.63 340.04,545.63 C353.48,545.60 375.23,545.40 382.10,544.38 C385.43,543.87 393.10,541.62 394.77,540.03 C395.68,539.12 396.33,537.42 396.39,536.16 C396.38,535.64 394.93,533.99 394.08,533.81 C392.62,533.52 390.32,534.32 390.25,534.83" fill="none" stroke="rgb(181, 143, 123)" stroke-width="4.18" stroke-opacity="1.00" stroke-linejoin="round"/>
<path d="M38.08,553.51 C37.68,553.01 37.42,552.71 37.31,552.60 C37.20,552.48 37.08,552.40 36.96,552.35 C38.81,552.09 40.20,551.85 42.49,551.39 C51.18,549.67 63.08,548.55 68.69,548.25 C87.79,547.51 107.94,548.55 128.69,547.86 C146.76,547.37 175.72,547.74 185.81,547.57 C199.26,547.36 223.15,547.20 242.07,545.43 C249.84,544.93 274.87,544.19 284.69,542.87 C288.18,542.45 289.26,542.19 289.69,542.08 C289.76,542.06 289.82,542.07 289.88,542.11" fill="none" stroke="rgb(186, 239, 186)" stroke-width="4.18" stroke-opacity="1.00" stroke-linejoin="round"/>
<path d="M401.83,542.52 C401.83,542.52 401.77,541.88 401.77,541.88 C402.26,541.35 403.83,540.94 406.44,540.75 C408.82,540.59 453.91,544.46 462.13,545.34 C475.61,546.90 483.93,547.70 490.06,548.64 C497.71,549.80 511.41,550.38 513.54,551.27 C513.54,551.27 512.00,551.19 512.00,551.19" fill="none" stroke="rgb(186, 239, 186)" stroke-width="4.18" stroke-opacity="1.00" stroke-linejoin="round"/>
</g>
</svg>
