<?xml version="1.0" encoding="UTF-8" standalone="no"?>
<!DOCTYPE svg PUBLIC "-//W3C//DTD SVG 1.1//EN" "http://www.w3.org/Graphics/SVG/1.1/DTD/svg11.dtd">
<svg width="128.40" height="181.68" viewBox="0.00 0.00 535.00 757.00" xmlns="http://www.w3.org/2000/svg" xmlns:xlink="http://www.w3.org/1999/xlink">
<g stroke-linecap="round" id="42">
<path d="M199.75,340.92 C199.78,340.84 199.82,340.78 199.85,340.75 C199.87,340.72 199.94,340.68 200.04,340.63 C200.04,340.63 199.99,340.72 199.99,340.72 C198.68,341.17 197.23,341.20 196.14,340.68 C195.85,340.54 191.22,335.20 190.46,333.45 C189.60,331.38 190.26,323.04 191.60,320.11 C193.00,317.21 197.27,313.32 199.52,312.59 C202.19,311.81 209.27,310.68 212.37,311.55 C214.18,312.19 219.95,314.04 221.44,314.92 C223.11,315.96 225.20,321.16 225.41,323.85 C225.47,324.65 225.68,333.25 224.48,335.31 C223.19,337.42 218.76,340.61 215.06,342.56 C213.88,343.17 209.97,343.34 207.72,344.01 C207.72,344.01 208.86,343.83 208.86,343.83" fill="none" stroke="rgb(255, 165, 0)" stroke-width="2.79" stroke-opacity="1.00" stroke-linejoin="round"/>
<path d="M205.33,345.63 C205.44,345.13 205.52,344.82 205.58,344.70 C205.69,344.45 206.13,344.21 206.59,344.01 C206.59,344.01 206.60,348.15 206.60,348.15 C206.60,348.15 206.71,347.20 206.71,347.20" fill="none" stroke="rgb(255, 165, 0)" stroke-width="2.79" stroke-opacity="1.00" stroke-linejoin="round"/>
<path d="M198.23,343.55 C198.23,343.55 199.41,341.68 199.41,341.68 C199.41,341.68 199.78,347.12 199.78,347.12 C199.78,347.12 199.82,346.86 199.82,346.86" fill="none" stroke="rgb(255, 165, 0)" stroke-width="2.79" stroke-opacity="1.00" stroke-linejoin="round"/>
<path d="M198.55,347.98 C198.61,347.82 198.64,347.73 198.76,347.58 C198.92,347.36 199.09,347.15 199.25,346.94 C196.95,348.08 191.36,351.53 190.36,352.58 C190.22,352.72 184.95,359.15 184.24,360.12 C182.30,362.80 180.01,366.86 178.58,370.89 C176.74,376.13 175.67,380.27 175.16,383.98 C173.98,393.44 174.26,403.92 174.02,405.11 C173.76,406.25 171.55,407.81 170.49,409.32 C169.81,410.29 169.04,411.77 168.93,412.15 C168.93,412.15 173.66,410.78 173.66,410.78 C173.66,410.78 172.38,414.79 172.38,414.79 C172.38,414.79 173.06,415.58 173.06,415.58 C173.06,415.58 173.24,419.27 173.24,419.27 C173.47,419.47 175.39,419.44 176.79,420.40 C177.27,420.73 178.18,420.75 178.79,420.44 C179.37,420.14 183.08,417.32 183.29,416.37 C183.32,416.22 183.35,415.90 183.39,415.42 C183.11,414.83 181.14,413.99 180.90,412.34 C180.67,410.50 183.74,395.22 184.33,388.91 C185.85,372.88 190.60,365.05 190.74,364.81 C190.74,364.81 189.60,363.80 189.60,363.80" fill="none" stroke="rgb(255, 165, 0)" stroke-width="2.79" stroke-opacity="1.00" stroke-linejoin="round"/>
<path d="M207.68,350.41 C207.47,349.77 207.53,349.05 207.55,348.80 C207.56,348.70 207.46,348.50 207.42,348.40 C207.13,348.52 206.54,348.95 206.11,349.43 C205.69,349.93 206.00,350.62 207.22,352.08 C209.12,354.28 213.42,357.47 214.40,358.67 C215.92,360.61 216.43,363.36 216.73,368.09 C217.92,390.98 218.13,401.82 219.46,405.12 C219.68,405.23 221.64,405.67 221.91,406.83 C222.21,408.28 221.09,410.90 219.84,411.21 C217.44,411.79 213.14,411.12 213.26,411.15 C212.92,409.71 213.60,403.15 213.45,399.92 C212.11,371.77 211.93,366.72 211.75,362.46 C211.75,362.46 211.74,363.01 211.74,363.01" fill="none" stroke="rgb(255, 165, 0)" stroke-width="2.79" stroke-opacity="1.00" stroke-linejoin="round"/>
<path d="M212.14,408.81 C212.14,408.81 211.67,409.14 211.67,409.14 C211.69,408.93 211.71,408.77 211.73,408.66 C211.74,408.55 211.78,408.34 211.85,408.03 C211.85,408.03 211.81,407.96 211.81,407.96 C211.72,411.11 209.97,440.67 207.97,461.79 C207.40,467.59 207.00,471.14 207.18,471.28 C207.25,471.54 209.77,472.35 210.76,472.80 C213.36,474.01 218.22,479.58 218.06,479.80 C217.69,480.92 204.77,479.84 203.15,480.45 C203.15,480.45 203.16,480.03 203.16,480.03" fill="none" stroke="rgb(255, 165, 0)" stroke-width="2.79" stroke-opacity="1.00" stroke-linejoin="round"/>
<path d="M195.08,422.12 C195.08,422.12 195.46,421.38 195.46,421.38 C195.46,421.38 195.37,421.62 195.37,421.62 C195.37,421.62 195.18,421.70 195.18,421.70 C195.18,421.70 194.91,420.94 194.91,420.94 C195.43,420.52 196.06,420.39 196.38,421.01 C196.80,421.86 202.89,456.62 203.60,471.35 C203.78,475.40 202.84,479.15 202.74,479.91 C202.70,480.18 202.69,480.57 202.72,481.08 C202.72,481.08 202.46,479.99 202.46,479.99" fill="none" stroke="rgb(255, 165, 0)" stroke-width="2.79" stroke-opacity="1.00" stroke-linejoin="round"/>
<path d="M195.28,422.28 C195.28,422.28 195.12,422.10 195.12,422.10 C195.12,422.10 196.15,421.09 196.15,421.09 C196.17,421.15 195.98,421.30 195.42,421.68 C194.42,422.45 193.22,425.96 192.70,430.16 C190.80,445.03 184.68,470.83 185.04,478.63 C185.69,478.63 187.86,478.19 189.26,479.04 C190.91,480.05 193.06,481.76 194.02,482.73 C194.02,482.73 193.60,481.72 193.60,481.72" fill="none" stroke="rgb(255, 165, 0)" stroke-width="2.79" stroke-opacity="1.00" stroke-linejoin="round"/>
<path d="M178.86,423.16 C179.02,422.26 179.12,421.71 179.16,421.52 C179.21,421.33 179.25,421.24 179.29,421.23 C179.34,421.55 179.32,422.56 179.20,424.88 C178.83,431.09 179.39,481.54 179.48,481.87 C179.75,482.83 180.65,483.36 182.38,483.71 C185.10,484.18 188.06,484.13 190.20,483.80 C191.22,483.64 193.97,482.42 194.32,483.06 C194.32,483.06 193.68,483.43 193.68,483.43" fill="none" stroke="rgb(255, 165, 0)" stroke-width="2.79" stroke-opacity="1.00" stroke-linejoin="round"/>
<path d="M188.04,324.67 C188.04,324.67 187.96,324.59 187.96,324.59 C187.96,324.59 187.99,324.43 187.99,324.43 C187.99,324.43 188.17,324.38 188.17,324.38 C188.17,324.38 187.82,324.89 187.82,324.89 C187.58,324.82 185.96,323.55 184.98,324.04 C183.45,324.92 182.88,330.41 183.64,332.46 C184.29,334.06 187.05,337.17 188.64,336.98 C189.27,336.90 190.14,336.09 190.93,335.12 C190.93,335.12 190.50,335.51 190.50,335.51" fill="none" stroke="rgb(255, 165, 0)" stroke-width="2.79" stroke-opacity="1.00" stroke-linejoin="round"/>
<path d="M189.41,329.26 C189.41,329.26 189.13,329.05 189.13,329.05 C189.13,329.05 189.00,328.43 189.00,328.43 C189.00,328.43 187.68,328.38 187.68,328.38 C187.07,328.69 186.99,332.36 188.22,333.28 C188.34,333.37 188.52,333.43 188.76,333.48 C188.76,333.48 189.80,332.52 189.80,332.52 C189.80,332.52 189.50,332.10 189.50,332.10 C189.50,332.10 189.22,332.45 189.22,332.45" fill="none" stroke="rgb(255, 165, 0)" stroke-width="2.79" stroke-opacity="1.00" stroke-linejoin="round"/>
<path d="M226.19,331.86 C226.19,331.86 225.00,331.34 225.00,331.34 C225.00,331.34 228.57,330.88 228.57,330.88 C229.21,331.59 230.01,336.17 229.50,337.70 C228.92,339.31 226.41,341.06 223.88,341.53 C221.89,341.86 220.72,340.54 220.76,339.95 C220.76,339.95 220.85,339.91 220.85,339.91 C220.85,339.91 220.90,339.95 220.90,339.95" fill="none" stroke="rgb(255, 165, 0)" stroke-width="2.79" stroke-opacity="1.00" stroke-linejoin="round"/>
<path d="M226.48,334.02 C226.48,334.02 226.11,333.13 226.11,333.13 C227.19,333.19 227.78,334.91 227.47,335.60 C226.67,337.22 223.97,338.32 223.49,338.23 C223.49,338.23 223.46,338.18 223.46,338.18 C223.46,338.18 223.51,338.11 223.51,338.11" fill="none" stroke="rgb(255, 165, 0)" stroke-width="2.79" stroke-opacity="1.00" stroke-linejoin="round"/>
<path d="M202.71,326.06 C202.11,325.90 200.66,325.86 199.84,326.07 C198.96,326.32 198.15,327.89 198.56,328.93 C199.07,330.15 201.73,332.42 202.70,332.18 C203.47,331.93 204.60,330.15 204.57,329.28 C204.53,328.46 203.58,327.11 202.77,326.72 C201.70,326.22 200.04,326.28 199.41,326.83 C198.66,327.55 198.43,329.81 199.10,330.88 C199.75,331.84 201.81,332.64 202.79,332.33 C203.73,332.01 204.86,330.20 204.90,329.12 C204.91,328.14 204.08,326.41 203.35,326.15 C202.63,325.92 200.88,326.54 200.32,327.35 C199.67,328.33 200.01,330.54 200.95,331.31 C202.01,332.12 205.07,331.64 205.98,330.53 C206.83,329.41 206.45,326.70 205.52,325.82 C204.57,324.99 202.21,324.76 201.26,325.57 C200.30,326.44 199.81,329.32 200.53,330.32 C201.21,331.20 203.62,331.30 204.64,330.51 C205.51,329.80 206.29,327.55 205.96,326.63 C205.55,325.58 202.86,324.66 201.43,325.09 C199.93,325.59 198.69,328.21 199.27,329.68 C199.83,330.97 202.11,332.10 203.39,331.77 C204.59,331.41 206.40,329.62 206.54,328.71 C206.67,327.67 204.80,326.15 203.30,325.97 C201.71,325.82 199.50,327.62 199.19,329.04 C198.93,330.43 200.05,332.48 201.23,332.64 C202.32,332.75 204.28,331.52 204.60,330.57 C204.99,329.27 203.73,327.10 202.60,326.68 C201.49,326.31 200.03,327.16 199.98,327.70 C199.97,327.80 199.99,328.03 200.03,328.38" fill="none" stroke="rgb(255, 165, 0)" stroke-width="2.79" stroke-opacity="1.00" stroke-linejoin="round"/>
<path d="M217.67,327.27 C217.61,327.18 217.56,327.10 217.52,327.03 C217.24,326.51 217.15,326.36 216.87,326.05 C215.30,326.84 214.40,327.75 214.10,328.98 C213.87,329.98 214.63,331.54 215.66,331.86 C216.61,332.13 218.61,331.74 219.07,331.20 C219.48,330.67 219.23,329.16 218.71,328.58 C218.05,327.90 215.80,327.69 214.91,328.28 C213.89,329.01 213.24,331.55 213.94,332.52 C214.69,333.48 217.56,333.57 218.81,332.79 C219.87,332.09 220.62,330.07 220.06,329.14 C219.31,327.99 217.12,327.38 216.46,327.80 C215.40,328.54 214.54,331.24 215.00,332.64 C215.19,333.16 216.72,333.96 217.87,333.38 C218.88,332.85 220.37,330.46 220.40,329.37 C220.40,328.33 218.82,326.43 217.93,326.40 C215.95,326.42 215.67,330.78 216.37,331.86 C217.42,332.38 219.43,331.62 220.12,330.56 C220.74,329.54 220.34,327.53 219.41,327.18 C218.25,326.80 215.41,328.33 214.80,329.71 C214.30,330.95 215.58,332.56 216.85,332.38 C218.11,332.15 219.61,330.34 219.42,329.14 C219.26,328.29 218.10,327.35 217.62,327.14 C217.62,327.14 217.31,327.23 217.31,327.23" fill="none" stroke="rgb(255, 165, 0)" stroke-width="2.79" stroke-opacity="1.00" stroke-linejoin="round"/>
<path d="M204.61,337.30 C204.45,337.37 204.33,337.42 204.26,337.44 C204.19,337.47 204.06,337.51 203.88,337.57 C203.88,337.57 203.77,337.32 203.77,337.32 C203.97,337.08 205.76,337.92 206.75,338.44 C208.50,339.10 211.46,339.17 213.14,339.13 C213.14,339.13 213.03,339.14 213.03,339.14" fill="none" stroke="rgb(255, 165, 0)" stroke-width="2.79" stroke-opacity="1.00" stroke-linejoin="round"/>
<path d="M102.82,303.84 C102.82,303.84 102.76,303.80 102.76,303.80 C102.76,303.80 102.94,303.68 102.94,303.68 C102.94,303.68 103.08,303.72 103.08,303.72 C103.06,304.14 100.24,309.36 99.96,309.94 C98.79,312.35 98.70,313.73 98.80,314.11 C98.80,314.11 99.22,314.26 99.22,314.26" fill="none" stroke="rgb(0, 0, 255)" stroke-width="2.79" stroke-opacity="1.00" stroke-linejoin="round"/>
<path d="M108.34,313.41 C108.34,313.41 108.65,313.11 108.65,313.11 C108.42,313.26 107.62,314.36 106.25,316.39 C104.07,319.74 102.73,322.19 102.78,322.87 C102.78,322.87 103.21,322.50 103.21,322.50" fill="none" stroke="rgb(0, 0, 255)" stroke-width="2.79" stroke-opacity="1.00" stroke-linejoin="round"/>
<path d="M118.29,295.40 C118.29,295.40 118.41,295.11 118.41,295.11 C118.13,296.13 115.91,301.41 115.02,304.14 C114.51,305.72 114.30,306.74 114.25,307.69" fill="none" stroke="rgb(0, 0, 255)" stroke-width="2.79" stroke-opacity="1.00" stroke-linejoin="round"/>
<path d="M147.85,276.66 C147.85,276.66 147.83,276.47 147.83,276.47 C147.26,277.31 146.48,278.67 145.57,280.46 C143.78,283.99 141.21,290.02 140.66,291.59 C140.21,292.87 139.68,294.66 139.43,295.62" fill="none" stroke="rgb(0, 0, 255)" stroke-width="2.79" stroke-opacity="1.00" stroke-linejoin="round"/>
<path d="M129.52,305.00 C129.52,305.00 127.89,305.14 127.89,305.14 C127.43,305.79 127.00,306.60 126.17,308.47 C124.87,311.44 124.21,315.18 124.32,315.16" fill="none" stroke="rgb(0, 0, 255)" stroke-width="2.79" stroke-opacity="1.00" stroke-linejoin="round"/>
<path d="M137.87,302.69 C137.87,302.69 137.79,302.42 137.79,302.42 C137.32,303.72 136.31,306.47 135.78,307.92 C133.53,314.02 133.16,315.10 132.74,316.45" fill="none" stroke="rgb(0, 0, 255)" stroke-width="2.79" stroke-opacity="1.00" stroke-linejoin="round"/>
<path d="M94.76,321.60 C94.76,321.60 93.55,320.85 93.55,320.85 C92.87,321.16 91.19,324.02 90.19,326.26 C89.38,328.07 88.37,330.79 87.79,332.62" fill="none" stroke="rgb(0, 0, 255)" stroke-width="2.79" stroke-opacity="1.00" stroke-linejoin="round"/>
<path d="M115.56,328.79 C115.56,328.79 115.03,328.56 115.03,328.56 C114.72,328.79 113.62,330.24 112.50,332.00 C111.25,333.97 110.42,335.67 110.11,336.74 C110.11,336.74 110.17,336.92 110.17,336.92 C110.28,336.81 110.36,336.73 110.40,336.67 C110.44,336.61 110.51,336.49 110.61,336.31" fill="none" stroke="rgb(0, 0, 255)" stroke-width="2.79" stroke-opacity="1.00" stroke-linejoin="round"/>
<path d="M121.21,326.57 C121.21,326.57 120.61,326.14 120.61,326.14 C120.49,326.01 116.34,334.41 115.88,335.49 C114.97,337.65 114.27,339.88 114.17,340.68 C114.17,340.68 114.42,340.56 114.42,340.56 C114.42,340.56 114.49,340.40 114.49,340.40" fill="none" stroke="rgb(0, 0, 255)" stroke-width="2.79" stroke-opacity="1.00" stroke-linejoin="round"/>
<path d="M124.19,333.60 C124.19,333.60 124.51,333.13 124.51,333.13 C124.21,333.90 123.49,335.75 123.07,336.83 C122.09,339.47 121.17,342.67 120.94,343.49" fill="none" stroke="rgb(0, 0, 255)" stroke-width="2.79" stroke-opacity="1.00" stroke-linejoin="round"/>
<path d="M103.91,343.26 C103.91,343.26 102.27,342.95 102.27,342.95 C102.27,342.95 84.30,373.07 84.30,373.07 C84.30,373.07 85.57,371.73 85.57,371.73" fill="none" stroke="rgb(0, 0, 255)" stroke-width="2.79" stroke-opacity="1.00" stroke-linejoin="round"/>
<path d="M75.63,374.11 C75.72,373.90 75.84,373.67 75.96,373.42 C76.80,371.75 77.29,370.97 77.50,370.92 C77.50,370.92 67.54,387.72 67.54,387.72 C67.54,387.72 68.76,387.46 68.76,387.46" fill="none" stroke="rgb(0, 0, 255)" stroke-width="2.79" stroke-opacity="1.00" stroke-linejoin="round"/>
<path d="M93.70,371.83 C93.70,371.83 95.13,369.43 95.13,369.43 C94.88,370.32 91.78,376.21 91.45,376.91 C90.56,378.77 89.85,380.55 89.99,380.45 C89.99,380.45 90.52,379.71 90.52,379.71" fill="none" stroke="rgb(0, 0, 255)" stroke-width="2.79" stroke-opacity="1.00" stroke-linejoin="round"/>
<path d="M114.53,349.39 C114.53,349.39 114.30,349.24 114.30,349.24 C114.30,349.24 113.78,349.31 113.78,349.31 C112.95,350.33 111.13,353.50 110.78,354.26 C110.56,354.74 110.09,355.85 109.39,357.56" fill="none" stroke="rgb(0, 0, 255)" stroke-width="2.79" stroke-opacity="1.00" stroke-linejoin="round"/>
<path d="M113.06,364.13 C113.06,364.13 112.93,363.59 112.93,363.59 C112.62,363.74 109.25,371.15 109.08,371.50 C108.93,371.82 108.80,372.07 108.68,372.26" fill="none" stroke="rgb(0, 0, 255)" stroke-width="2.79" stroke-opacity="1.00" stroke-linejoin="round"/>
<path d="M135.40,323.52 C135.40,323.52 135.29,322.34 135.29,322.34 C135.29,322.34 124.32,351.96 124.32,351.96 C124.32,351.96 125.34,350.45 125.34,350.45" fill="none" stroke="rgb(0, 0, 255)" stroke-width="2.79" stroke-opacity="1.00" stroke-linejoin="round"/>
<path d="M149.75,306.51 C149.75,306.51 148.34,306.08 148.34,306.08 C147.35,306.93 144.38,312.52 143.84,314.13 C143.31,315.75 143.01,317.68 143.19,317.64 C143.46,317.57 143.64,317.46 143.87,317.22 C143.97,317.12 144.06,317.03 144.15,316.93" fill="none" stroke="rgb(0, 0, 255)" stroke-width="2.79" stroke-opacity="1.00" stroke-linejoin="round"/>
<path d="M157.74,307.41 C157.74,307.41 157.43,306.06 157.43,306.06 C157.43,306.06 149.35,323.22 149.35,323.22 C149.35,323.22 149.64,322.62 149.64,322.62" fill="none" stroke="rgb(0, 0, 255)" stroke-width="2.79" stroke-opacity="1.00" stroke-linejoin="round"/>
<path d="M173.95,272.64 C174.04,272.38 174.12,272.20 174.19,272.11 C174.25,272.03 174.39,271.91 174.60,271.76 C174.60,271.76 174.76,271.85 174.76,271.85 C174.64,272.25 173.28,275.00 170.28,281.40 C168.58,285.07 165.69,291.21 164.52,293.68 C164.52,293.68 165.67,291.98 165.67,291.98" fill="none" stroke="rgb(0, 0, 255)" stroke-width="2.79" stroke-opacity="1.00" stroke-linejoin="round"/>
<path d="M185.38,259.64 C184.04,259.79 182.88,260.70 181.33,263.17 C176.64,270.70 176.33,271.64 176.39,271.85 C176.39,271.85 177.26,271.21 177.26,271.21" fill="none" stroke="rgb(0, 0, 255)" stroke-width="2.79" stroke-opacity="1.00" stroke-linejoin="round"/>
<path d="M192.99,256.85 C192.99,256.85 192.95,256.06 192.95,256.06 C192.85,256.09 191.22,258.99 189.80,261.34 C186.26,267.14 184.34,270.66 184.41,271.11 C184.41,271.11 184.99,271.04 184.99,271.04" fill="none" stroke="rgb(0, 0, 255)" stroke-width="2.79" stroke-opacity="1.00" stroke-linejoin="round"/>
<path d="M201.11,255.66 C201.19,255.34 201.27,255.08 201.36,254.90 C201.45,254.72 201.67,254.35 202.01,253.79 C199.58,257.89 196.82,262.78 195.08,266.23 C193.46,269.46 192.99,270.69 192.90,271.18 C192.90,271.18 193.50,270.37 193.50,270.37" fill="none" stroke="rgb(0, 0, 255)" stroke-width="2.79" stroke-opacity="1.00" stroke-linejoin="round"/>
<path d="M213.43,244.56 C213.43,244.56 212.63,244.51 212.63,244.51 C212.63,244.51 200.35,265.51 200.35,265.51 C200.35,265.51 200.32,264.30 200.32,264.30" fill="none" stroke="rgb(0, 0, 255)" stroke-width="2.79" stroke-opacity="1.00" stroke-linejoin="round"/>
<path d="M184.48,287.18 C184.44,286.75 184.40,286.10 184.42,285.75 C184.44,285.32 184.52,284.26 184.42,284.22 C181.99,284.51 172.80,304.79 172.81,305.12 C172.81,305.12 173.50,303.74 173.50,303.74" fill="none" stroke="rgb(0, 0, 255)" stroke-width="2.79" stroke-opacity="1.00" stroke-linejoin="round"/>
<path d="M200.40,271.49 C200.40,271.49 200.45,271.43 200.45,271.43 C200.45,271.43 200.44,271.38 200.44,271.38 C199.98,272.06 197.97,276.17 196.55,278.84 C193.25,284.85 189.28,292.07 188.62,293.27 C188.62,293.27 190.05,292.68 190.05,292.68" fill="none" stroke="rgb(0, 0, 255)" stroke-width="2.79" stroke-opacity="1.00" stroke-linejoin="round"/>
<path d="M212.57,269.92 C212.57,269.92 211.76,269.07 211.76,269.07 C211.76,269.07 203.36,286.85 203.36,286.85 C203.36,286.85 203.78,285.87 203.78,285.87" fill="none" stroke="rgb(0, 0, 255)" stroke-width="2.79" stroke-opacity="1.00" stroke-linejoin="round"/>
<path d="M229.16,259.80 C229.16,259.80 227.52,259.38 227.52,259.38 C224.26,262.10 210.45,286.96 210.14,289.00 C210.14,289.00 211.40,287.50 211.40,287.50" fill="none" stroke="rgb(0, 0, 255)" stroke-width="2.79" stroke-opacity="1.00" stroke-linejoin="round"/>
<path d="M235.74,259.96 C235.74,259.96 235.18,259.71 235.18,259.71 C234.19,261.34 231.06,267.41 229.24,270.95 C227.52,274.37 224.97,279.53 224.05,281.92 C224.05,281.92 224.33,281.87 224.33,281.87 C224.33,281.87 224.61,281.45 224.61,281.45" fill="none" stroke="rgb(0, 0, 255)" stroke-width="2.79" stroke-opacity="1.00" stroke-linejoin="round"/>
<path d="M241.65,259.71 C241.65,259.71 240.49,259.92 240.49,259.92 C239.91,260.62 232.90,278.49 231.83,279.65 C231.74,279.73 231.61,279.81 231.44,279.89 C231.44,279.89 231.27,279.73 231.27,279.73 C231.35,279.42 231.41,279.21 231.44,279.11 C231.47,279.01 231.53,278.89 231.62,278.74" fill="none" stroke="rgb(0, 0, 255)" stroke-width="2.79" stroke-opacity="1.00" stroke-linejoin="round"/>
<path d="M255.23,254.73 C254.60,254.75 254.13,255.32 252.96,257.62 C240.95,280.73 230.96,306.30 230.86,307.11 C230.86,307.11 231.77,305.62 231.77,305.62" fill="none" stroke="rgb(0, 0, 255)" stroke-width="2.79" stroke-opacity="1.00" stroke-linejoin="round"/>
<path d="M228.07,290.56 C228.07,290.56 227.31,290.28 227.31,290.28 C226.90,290.64 224.73,294.75 223.31,297.44 C222.04,299.92 219.55,304.86 218.56,306.99 C218.08,308.03 217.91,308.50 217.97,308.48 C217.97,308.48 218.10,308.23 218.10,308.23" fill="none" stroke="rgb(0, 0, 255)" stroke-width="2.79" stroke-opacity="1.00" stroke-linejoin="round"/>
<path d="M212.18,298.90 C212.18,298.90 211.48,297.83 211.48,297.83 C210.82,298.41 208.15,303.77 206.80,306.48 C205.19,309.80 203.02,314.31 202.46,315.49 C202.46,315.49 202.78,315.01 202.78,315.01" fill="none" stroke="rgb(0, 0, 255)" stroke-width="2.79" stroke-opacity="1.00" stroke-linejoin="round"/>
<path d="M202.87,298.97 C202.87,298.97 202.21,298.31 202.21,298.31 C202.21,298.31 193.15,313.47 193.15,313.47 C193.15,313.47 193.24,312.93 193.24,312.93" fill="none" stroke="rgb(0, 0, 255)" stroke-width="2.79" stroke-opacity="1.00" stroke-linejoin="round"/>
<path d="M188.43,308.72 C188.43,308.72 188.39,308.35 188.39,308.35 C186.69,311.06 183.44,316.26 182.03,318.96 C180.69,321.53 180.47,322.39 180.56,322.43 C180.56,322.43 181.26,321.21 181.26,321.21" fill="none" stroke="rgb(0, 0, 255)" stroke-width="2.79" stroke-opacity="1.00" stroke-linejoin="round"/>
<path d="M167.98,308.63 C167.29,308.40 166.71,308.61 166.21,309.48 C166.08,309.72 161.22,319.37 160.93,320.02 C160.73,320.49 160.40,321.37 159.94,322.66 C159.94,322.66 160.40,322.39 160.40,322.39" fill="none" stroke="rgb(0, 0, 255)" stroke-width="2.79" stroke-opacity="1.00" stroke-linejoin="round"/>
<path d="M167.98,321.18 C167.98,321.18 167.01,320.80 167.01,320.80 C167.01,320.80 159.64,335.56 159.64,335.56 C159.64,335.56 160.12,335.29 160.12,335.29" fill="none" stroke="rgb(0, 0, 255)" stroke-width="2.79" stroke-opacity="1.00" stroke-linejoin="round"/>
<path d="M149.52,330.52 C149.52,330.52 149.13,330.07 149.13,330.07 C148.94,329.58 142.05,342.45 139.53,348.33 C137.65,352.85 137.27,354.07 136.75,356.10 C136.75,356.10 137.75,355.01 137.75,355.01" fill="none" stroke="rgb(0, 0, 255)" stroke-width="2.79" stroke-opacity="1.00" stroke-linejoin="round"/>
<path d="M167.02,335.98 C167.70,334.96 168.12,334.31 168.27,334.01 C168.53,333.49 168.54,332.81 168.49,332.79 C168.49,332.79 152.49,365.16 152.49,365.16 C152.49,365.16 152.77,364.69 152.77,364.69" fill="none" stroke="rgb(0, 0, 255)" stroke-width="2.79" stroke-opacity="1.00" stroke-linejoin="round"/>
<path d="M147.44,354.08 C147.44,354.08 147.56,354.04 147.56,354.04 C147.56,354.04 147.66,354.22 147.66,354.22 C146.44,356.97 144.48,360.81 142.99,363.70 C139.86,369.64 136.42,376.21 136.10,376.82 C136.10,376.82 136.14,376.94 136.14,376.94 C136.14,376.94 136.56,376.28 136.56,376.28" fill="none" stroke="rgb(0, 0, 255)" stroke-width="2.79" stroke-opacity="1.00" stroke-linejoin="round"/>
<path d="M132.54,364.61 C132.54,364.61 132.06,364.43 132.06,364.43 C132.00,364.53 130.39,369.09 128.14,374.26 C127.49,375.71 124.87,381.24 122.85,384.95 C122.85,384.95 122.79,384.91 122.79,384.91 C122.79,384.91 123.02,384.26 123.02,384.26" fill="none" stroke="rgb(0, 0, 255)" stroke-width="2.79" stroke-opacity="1.00" stroke-linejoin="round"/>
<path d="M126.86,357.16 C127.01,356.89 127.12,356.71 127.17,356.61 C127.21,356.52 127.28,356.39 127.35,356.22 C126.99,356.92 126.76,357.49 126.18,359.20 C125.29,361.82 122.55,368.90 121.31,372.11 C121.10,372.67 120.88,373.24 120.67,373.81" fill="none" stroke="rgb(0, 0, 255)" stroke-width="2.79" stroke-opacity="1.00" stroke-linejoin="round"/>
<path d="M109.49,390.22 C109.43,390.03 109.49,389.63 109.77,388.93 C110.07,388.20 110.83,386.38 110.78,386.19 C109.75,386.91 107.16,391.14 105.93,393.87 C105.64,394.53 104.68,396.78 104.38,397.49 C104.38,397.49 104.43,396.84 104.43,396.84" fill="none" stroke="rgb(0, 0, 255)" stroke-width="2.79" stroke-opacity="1.00" stroke-linejoin="round"/>
<path d="M98.45,396.90 C99.01,396.36 99.40,395.98 99.61,395.77 C100.12,395.27 100.52,394.85 100.82,394.52 C100.97,394.35 101.16,394.12 101.40,393.81 C100.69,394.25 96.87,398.32 95.22,400.41 C94.33,401.55 93.88,402.24 93.90,402.40 C93.90,402.40 94.15,402.19 94.15,402.19" fill="none" stroke="rgb(0, 0, 255)" stroke-width="2.79" stroke-opacity="1.00" stroke-linejoin="round"/>
<path d="M96.43,412.86 C96.40,412.66 96.40,412.51 96.44,412.41 C96.47,412.31 96.58,412.13 96.76,411.86 C96.87,412.24 95.29,415.26 93.13,418.57 C91.26,421.32 88.96,424.71 87.81,426.53 C87.81,426.53 87.92,426.49 87.92,426.49 C87.92,426.49 88.19,426.07 88.19,426.07" fill="none" stroke="rgb(0, 0, 255)" stroke-width="2.79" stroke-opacity="1.00" stroke-linejoin="round"/>
<path d="M74.15,433.01 C74.15,432.65 74.15,432.31 74.18,432.01 C74.20,431.71 74.26,431.03 74.36,429.97 C73.15,430.42 71.16,434.14 69.79,437.66 C68.88,440.03 68.09,442.19 67.59,443.72 C67.18,445.01 66.90,446.06 66.67,447.15 C66.67,447.15 66.76,447.08 66.76,447.08" fill="none" stroke="rgb(0, 0, 255)" stroke-width="2.79" stroke-opacity="1.00" stroke-linejoin="round"/>
<path d="M83.43,441.20 C83.43,441.20 84.80,438.74 84.80,438.74 C83.91,440.47 80.16,446.82 77.99,450.50 C75.69,454.34 74.03,456.92 73.83,457.12 C73.76,457.19 73.66,457.22 73.54,457.22 C73.54,457.22 73.52,457.14 73.52,457.14" fill="none" stroke="rgb(0, 0, 255)" stroke-width="2.79" stroke-opacity="1.00" stroke-linejoin="round"/>
<path d="M71.39,474.81 C71.38,474.76 71.35,474.72 71.30,474.69 C71.26,474.66 71.12,474.60 70.91,474.51 C70.91,474.43 68.38,479.78 67.81,481.03 C65.99,485.03 65.35,487.50 64.88,489.97 C64.88,489.97 65.09,490.26 65.09,490.26 C65.09,490.26 65.75,489.48 65.75,489.48" fill="none" stroke="rgb(0, 0, 255)" stroke-width="2.79" stroke-opacity="1.00" stroke-linejoin="round"/>
<path d="M118.93,413.34 C118.93,413.34 117.70,413.53 117.70,413.53 C117.70,413.53 110.49,434.61 110.49,434.61 C110.49,434.61 110.62,435.00 110.62,435.00" fill="none" stroke="rgb(0, 0, 255)" stroke-width="2.79" stroke-opacity="1.00" stroke-linejoin="round"/>
<path d="M105.26,445.08 C105.26,445.08 105.07,445.08 105.07,445.08 C105.39,444.92 103.76,448.53 100.72,454.33 C97.72,460.05 97.40,460.85 97.18,461.91 C97.18,461.91 98.73,460.30 98.73,460.30" fill="none" stroke="rgb(0, 0, 255)" stroke-width="2.79" stroke-opacity="1.00" stroke-linejoin="round"/>
<path d="M119.44,438.31 C119.44,438.31 118.97,438.28 118.97,438.28 C118.90,438.32 113.01,450.96 111.40,454.74 C110.56,456.70 109.77,458.78 108.83,461.41 C108.83,461.41 108.96,460.68 108.96,460.68" fill="none" stroke="rgb(0, 0, 255)" stroke-width="2.79" stroke-opacity="1.00" stroke-linejoin="round"/>
<path d="M141.72,376.97 C141.72,376.97 141.50,376.63 141.50,376.63 C141.38,376.66 141.15,376.90 140.80,377.45 C137.90,382.09 134.11,389.68 132.97,392.05 C132.97,392.05 133.52,391.28 133.52,391.28" fill="none" stroke="rgb(0, 0, 255)" stroke-width="2.79" stroke-opacity="1.00" stroke-linejoin="round"/>
<path d="M137.77,392.79 C137.78,392.61 137.78,392.44 137.79,392.29 C137.80,391.93 137.81,391.58 137.83,391.22 C137.49,391.46 133.38,398.36 132.21,400.58 C130.71,403.44 130.49,404.50 130.62,404.77 C130.62,404.77 131.42,403.86 131.42,403.86" fill="none" stroke="rgb(0, 0, 255)" stroke-width="2.79" stroke-opacity="1.00" stroke-linejoin="round"/>
<path d="M139.67,400.72 C139.67,400.72 139.22,400.28 139.22,400.28 C139.01,400.47 130.32,418.91 129.42,421.26 C128.74,423.19 128.44,423.65 128.37,423.60" fill="none" stroke="rgb(0, 0, 255)" stroke-width="2.79" stroke-opacity="1.00" stroke-linejoin="round"/>
<path d="M129.75,435.55 C129.75,435.55 129.68,434.34 129.68,434.34 C127.76,434.57 125.21,441.16 125.13,441.79 C125.13,441.79 126.12,441.79 126.12,441.79" fill="none" stroke="rgb(0, 0, 255)" stroke-width="2.79" stroke-opacity="1.00" stroke-linejoin="round"/>
<path d="M148.94,422.39 C148.94,422.39 147.40,422.64 147.40,422.64 C146.48,423.41 138.04,438.84 134.23,446.66 C129.59,456.50 126.19,465.53 125.90,467.06 C125.90,467.06 126.04,467.29 126.04,467.29 C126.04,467.29 126.14,467.28 126.14,467.28" fill="none" stroke="rgb(0, 0, 255)" stroke-width="2.79" stroke-opacity="1.00" stroke-linejoin="round"/>
<path d="M134.79,467.14 C134.81,466.81 134.83,466.58 134.84,466.46 C134.84,466.33 134.85,466.13 134.85,465.86 C133.99,467.10 131.28,471.63 129.58,474.72 C128.55,476.62 127.88,478.04 127.16,479.86 C127.44,479.52 127.61,479.30 127.67,479.22 C127.74,479.13 127.78,479.05 127.80,478.98" fill="none" stroke="rgb(0, 0, 255)" stroke-width="2.79" stroke-opacity="1.00" stroke-linejoin="round"/>
<path d="M156.26,423.32 C156.26,423.32 155.47,422.97 155.47,422.97 C155.47,422.97 146.92,446.98 146.92,446.98 C146.92,446.98 147.24,446.64 147.24,446.64" fill="none" stroke="rgb(0, 0, 255)" stroke-width="2.79" stroke-opacity="1.00" stroke-linejoin="round"/>
<path d="M156.20,444.57 C156.20,444.57 155.19,444.07 155.19,444.07 C155.19,444.07 148.52,461.25 148.52,461.25 C148.82,460.92 149.00,460.72 149.05,460.65 C149.11,460.58 149.13,460.54 149.10,460.54" fill="none" stroke="rgb(0, 0, 255)" stroke-width="2.79" stroke-opacity="1.00" stroke-linejoin="round"/>
<path d="M170.71,427.65 C170.71,427.65 170.75,427.09 170.75,427.09 C170.80,426.96 167.43,433.56 165.98,436.45 C161.65,445.27 157.09,455.52 157.03,457.07 C157.03,457.07 157.80,456.57 157.80,456.57" fill="none" stroke="rgb(0, 0, 255)" stroke-width="2.79" stroke-opacity="1.00" stroke-linejoin="round"/>
<path d="M175.49,443.74 C175.49,443.74 175.33,442.18 175.33,442.18 C173.92,443.10 170.12,449.40 167.90,453.07 C162.71,461.80 160.90,466.07 160.82,466.62 C160.82,466.62 161.77,465.79 161.77,465.79" fill="none" stroke="rgb(0, 0, 255)" stroke-width="2.79" stroke-opacity="1.00" stroke-linejoin="round"/>
<path d="M158.09,468.74 C158.09,468.74 156.90,468.17 156.90,468.17 C156.33,468.78 154.22,473.67 153.43,475.78 C152.54,478.15 152.02,480.02 152.06,480.12" fill="none" stroke="rgb(0, 0, 255)" stroke-width="2.79" stroke-opacity="1.00" stroke-linejoin="round"/>
<path d="M160.21,361.88 C160.14,361.60 159.98,361.07 160.00,360.92 C160.03,360.69 160.32,359.96 160.41,359.76 C159.99,359.52 158.33,361.85 156.79,364.63 C151.61,374.07 150.20,376.93 149.90,377.65 C150.31,377.36 150.57,377.19 150.65,377.13 C150.73,377.07 150.77,377.03 150.75,377.02" fill="none" stroke="rgb(0, 0, 255)" stroke-width="2.79" stroke-opacity="1.00" stroke-linejoin="round"/>
<path d="M163.61,372.99 C163.62,372.86 163.62,372.78 163.61,372.73 C163.61,372.68 163.59,372.59 163.57,372.48 C160.84,377.26 158.63,381.33 157.99,382.83 C157.90,383.04 157.74,383.45 157.50,384.06 C157.50,384.06 158.30,382.80 158.30,382.80" fill="none" stroke="rgb(0, 0, 255)" stroke-width="2.79" stroke-opacity="1.00" stroke-linejoin="round"/>
<path d="M181.17,344.58 C181.17,344.58 180.97,343.85 180.97,343.85 C180.79,343.87 177.55,349.20 174.00,358.52 C173.30,360.34 172.81,361.85 172.45,363.11 C172.45,363.11 172.67,362.35 172.67,362.35" fill="none" stroke="rgb(0, 0, 255)" stroke-width="2.79" stroke-opacity="1.00" stroke-linejoin="round"/>
<path d="M187.14,345.86 C187.14,345.86 186.91,344.77 186.91,344.77 C185.66,346.74 182.65,352.68 181.22,355.79 C180.42,357.54 179.88,358.87 179.35,360.34 C179.35,360.34 179.50,360.16 179.50,360.16" fill="none" stroke="rgb(0, 0, 255)" stroke-width="2.79" stroke-opacity="1.00" stroke-linejoin="round"/>
<path d="M163.77,393.24 C164.01,392.70 164.17,392.43 164.81,391.47 C165.56,390.36 165.88,390.01 166.27,389.83 C165.75,391.03 159.38,402.16 157.02,408.00 C155.83,410.99 155.27,413.81 155.41,413.93 C155.41,413.93 156.18,413.23 156.18,413.23" fill="none" stroke="rgb(0, 0, 255)" stroke-width="2.79" stroke-opacity="1.00" stroke-linejoin="round"/>
<path d="M173.02,391.51 C172.91,391.38 172.82,391.27 172.75,391.17 C172.69,391.07 172.54,390.85 172.32,390.50 C171.73,390.70 170.23,392.76 168.14,396.58 C166.93,398.81 158.97,415.82 158.44,417.19 C158.44,417.19 159.17,416.00 159.17,416.00" fill="none" stroke="rgb(0, 0, 255)" stroke-width="2.79" stroke-opacity="1.00" stroke-linejoin="round"/>
<path d="M268.71,256.63 C268.68,256.49 268.69,256.28 268.85,256.05 C269.23,255.55 269.78,255.05 269.94,255.02 C269.97,255.59 261.41,273.48 260.13,276.64 C258.90,279.71 256.67,285.30 255.81,288.55 C255.75,288.79 255.68,289.04 255.62,289.28" fill="none" stroke="rgb(0, 0, 255)" stroke-width="2.79" stroke-opacity="1.00" stroke-linejoin="round"/>
<path d="M251.83,299.29 C251.72,299.25 251.64,299.23 251.57,299.23 C251.51,299.22 251.36,299.23 251.15,299.23 C248.25,305.02 242.89,316.08 239.80,323.04 C236.35,330.93 230.27,344.88 230.16,345.62 C230.16,345.62 231.56,344.07 231.56,344.07" fill="none" stroke="rgb(0, 0, 255)" stroke-width="2.79" stroke-opacity="1.00" stroke-linejoin="round"/>
<path d="M261.36,308.43 C261.54,308.00 261.68,307.70 261.76,307.52 C261.93,307.21 262.11,306.90 262.28,306.58 C262.34,306.46 262.41,306.29 262.48,306.07 C258.95,309.41 250.11,325.97 249.93,326.77 C249.93,326.77 250.67,325.06 250.67,325.06" fill="none" stroke="rgb(0, 0, 255)" stroke-width="2.79" stroke-opacity="1.00" stroke-linejoin="round"/>
<path d="M278.86,287.54 C278.86,287.54 278.73,286.29 278.73,286.29 C278.73,286.29 257.79,325.26 257.79,325.26 C257.79,325.26 258.91,323.82 258.91,323.82" fill="none" stroke="rgb(0, 0, 255)" stroke-width="2.79" stroke-opacity="1.00" stroke-linejoin="round"/>
<path d="M312.56,266.26 C312.56,266.26 312.55,265.43 312.55,265.43 C310.40,267.70 306.41,272.55 305.35,273.92 C301.64,278.77 300.46,280.76 299.86,282.15 C299.86,282.15 300.34,281.84 300.34,281.84" fill="none" stroke="rgb(0, 0, 255)" stroke-width="2.79" stroke-opacity="1.00" stroke-linejoin="round"/>
<path d="M295.84,288.02 C295.84,288.02 295.77,285.65 295.77,285.65 C295.77,285.65 286.78,299.74 286.78,299.74 C286.78,299.74 287.52,298.92 287.52,298.92" fill="none" stroke="rgb(0, 0, 255)" stroke-width="2.79" stroke-opacity="1.00" stroke-linejoin="round"/>
<path d="M284.60,302.08 C283.32,301.90 281.79,302.44 279.77,306.21 C275.51,314.39 271.88,322.63 271.04,326.11 C270.85,326.88 270.91,327.52 271.01,327.65 C271.06,327.54 271.10,327.45 271.11,327.37 C271.13,327.30 271.14,327.13 271.16,326.87" fill="none" stroke="rgb(0, 0, 255)" stroke-width="2.79" stroke-opacity="1.00" stroke-linejoin="round"/>
<path d="M302.64,298.58 C302.64,298.58 301.87,298.43 301.87,298.43 C301.87,298.43 291.79,315.87 291.79,315.87 C291.79,315.87 292.59,314.71 292.59,314.71" fill="none" stroke="rgb(0, 0, 255)" stroke-width="2.79" stroke-opacity="1.00" stroke-linejoin="round"/>
<path d="M329.12,270.46 C329.12,270.46 329.26,267.66 329.26,267.66 C328.53,268.22 319.69,281.92 318.40,284.81 C318.27,285.11 318.04,285.71 317.72,286.61 C317.72,286.61 318.58,285.63 318.58,285.63" fill="none" stroke="rgb(0, 0, 255)" stroke-width="2.79" stroke-opacity="1.00" stroke-linejoin="round"/>
<path d="M341.03,274.25 C341.03,274.25 340.88,273.59 340.88,273.59 C339.45,273.70 337.75,276.49 334.65,281.96 C330.55,289.39 325.88,298.39 324.73,300.65 C324.73,300.65 325.18,298.82 325.18,298.82" fill="none" stroke="rgb(0, 0, 255)" stroke-width="2.79" stroke-opacity="1.00" stroke-linejoin="round"/>
<path d="M304.15,321.27 C304.15,321.27 303.83,319.58 303.83,319.58 C303.83,319.58 292.72,340.70 292.72,340.70 C292.72,340.70 292.85,339.43 292.85,339.43" fill="none" stroke="rgb(0, 0, 255)" stroke-width="2.79" stroke-opacity="1.00" stroke-linejoin="round"/>
<path d="M331.98,319.54 C331.98,319.54 331.92,318.90 331.92,318.90 C331.92,318.90 331.74,318.74 331.74,318.74 C328.37,319.37 319.85,335.70 318.99,337.50 C318.99,337.50 319.38,337.07 319.38,337.07" fill="none" stroke="rgb(0, 0, 255)" stroke-width="2.79" stroke-opacity="1.00" stroke-linejoin="round"/>
<path d="M369.76,307.99 C369.76,307.99 369.31,306.11 369.31,306.11 C367.05,307.65 356.90,324.79 355.66,327.97 C355.66,327.97 355.96,327.01 355.96,327.01" fill="none" stroke="rgb(0, 0, 255)" stroke-width="2.79" stroke-opacity="1.00" stroke-linejoin="round"/>
<path d="M333.20,337.42 C333.20,337.42 332.49,336.75 332.49,336.75 C331.82,336.86 329.84,339.68 327.88,342.95 C324.88,347.96 321.88,354.42 321.74,354.65 C321.74,354.65 321.81,354.30 321.81,354.30" fill="none" stroke="rgb(0, 0, 255)" stroke-width="2.79" stroke-opacity="1.00" stroke-linejoin="round"/>
<path d="M359.27,335.14 C359.27,335.14 359.24,333.64 359.24,333.64 C358.64,333.89 352.78,343.79 349.53,349.83 C347.05,354.99 344.43,360.41 344.16,360.75 C344.16,360.75 344.07,360.34 344.07,360.34" fill="none" stroke="rgb(0, 0, 255)" stroke-width="2.79" stroke-opacity="1.00" stroke-linejoin="round"/>
<path d="M364.37,345.80 C364.37,345.80 362.71,344.95 362.71,344.95 C362.71,344.95 347.06,375.26 347.06,375.26 C347.06,375.26 347.69,374.56 347.69,374.56" fill="none" stroke="rgb(0, 0, 255)" stroke-width="2.79" stroke-opacity="1.00" stroke-linejoin="round"/>
<path d="M393.68,337.65 C393.68,337.65 393.03,335.99 393.03,335.99 C391.64,337.37 383.17,351.37 382.37,353.62 C382.27,353.90 382.15,354.39 382.02,355.08 C382.07,355.04 382.11,355.00 382.14,354.97 C382.16,354.95 382.20,354.90 382.26,354.82" fill="none" stroke="rgb(0, 0, 255)" stroke-width="2.79" stroke-opacity="1.00" stroke-linejoin="round"/>
<path d="M404.27,340.53 C404.27,340.53 404.22,338.94 404.22,338.94 C404.09,338.89 399.65,342.43 388.40,359.43 C386.80,361.86 383.37,367.63 382.93,368.83 C382.93,368.83 383.07,368.40 383.07,368.40" fill="none" stroke="rgb(0, 0, 255)" stroke-width="2.79" stroke-opacity="1.00" stroke-linejoin="round"/>
<path d="M242.52,346.86 C242.57,346.22 242.62,345.79 242.65,345.57 C242.71,345.17 242.82,344.78 242.89,344.39 C243.01,343.81 243.00,343.39 242.92,343.29 C242.92,343.29 222.20,378.55 222.20,378.55 C222.20,378.55 223.26,376.71 223.26,376.71" fill="none" stroke="rgb(0, 0, 255)" stroke-width="2.79" stroke-opacity="1.00" stroke-linejoin="round"/>
<path d="M245.89,362.46 C245.89,362.46 245.20,362.39 245.20,362.39 C244.37,363.46 232.20,384.83 232.02,385.15 C231.85,385.46 231.54,386.03 231.11,386.85 C231.29,386.52 231.39,386.33 231.41,386.29 C231.50,386.11 231.59,385.90 231.68,385.66 C232.22,384.12 232.74,382.98 233.81,380.97" fill="none" stroke="rgb(0, 0, 255)" stroke-width="2.79" stroke-opacity="1.00" stroke-linejoin="round"/>
<path d="M261.91,349.01 C261.91,349.01 261.82,348.03 261.82,348.03 C261.82,348.03 242.50,385.01 242.50,385.01 C242.50,385.01 242.54,383.53 242.54,383.53" fill="none" stroke="rgb(0, 0, 255)" stroke-width="2.79" stroke-opacity="1.00" stroke-linejoin="round"/>
<path d="M284.28,336.43 C284.28,336.43 283.81,333.19 283.81,333.19 C283.16,333.61 270.43,363.33 269.53,365.92 C269.11,367.14 269.18,367.43 269.19,367.58 C269.19,367.58 269.57,367.39 269.57,367.39" fill="none" stroke="rgb(0, 0, 255)" stroke-width="2.79" stroke-opacity="1.00" stroke-linejoin="round"/>
<path d="M295.42,356.36 C295.42,356.36 295.26,355.03 295.26,355.03 C295.26,355.03 284.16,377.46 284.16,377.46 C284.16,377.46 284.96,376.31 284.96,376.31" fill="none" stroke="rgb(0, 0, 255)" stroke-width="2.79" stroke-opacity="1.00" stroke-linejoin="round"/>
<path d="M313.40,354.79 C313.40,354.79 313.08,354.22 313.08,354.22 C312.65,354.29 309.47,359.33 308.51,360.63 C307.76,361.65 306.11,363.65 305.04,364.89" fill="none" stroke="rgb(0, 0, 255)" stroke-width="2.79" stroke-opacity="1.00" stroke-linejoin="round"/>
<path d="M303.03,366.92 C303.03,366.92 302.33,365.92 302.33,365.92 C302.33,365.92 289.72,393.75 289.72,393.75 C289.72,393.75 289.82,393.83 289.82,393.83 C289.82,393.83 290.00,393.49 290.00,393.49" fill="none" stroke="rgb(0, 0, 255)" stroke-width="2.79" stroke-opacity="1.00" stroke-linejoin="round"/>
<path d="M333.52,361.82 C333.52,361.82 331.59,360.91 331.59,360.91 C328.33,362.04 319.77,383.89 319.84,384.29 C319.84,384.29 320.20,383.53 320.20,383.53" fill="none" stroke="rgb(0, 0, 255)" stroke-width="2.79" stroke-opacity="1.00" stroke-linejoin="round"/>
<path d="M313.01,386.15 C313.01,386.15 312.09,386.04 312.09,386.04 C309.29,387.84 301.53,405.72 301.67,407.53 C301.67,407.53 301.98,406.52 301.98,406.52" fill="none" stroke="rgb(0, 0, 255)" stroke-width="2.79" stroke-opacity="1.00" stroke-linejoin="round"/>
<path d="M335.10,388.97 C335.14,388.25 335.24,386.79 335.21,386.63 C335.19,386.53 335.11,386.38 334.99,386.19 C334.10,386.55 326.63,397.98 322.49,405.53 C321.16,408.02 318.84,413.02 318.16,413.76 C318.16,413.76 318.02,413.72 318.02,413.72 C318.02,413.72 317.99,413.47 317.99,413.47" fill="none" stroke="rgb(0, 0, 255)" stroke-width="2.79" stroke-opacity="1.00" stroke-linejoin="round"/>
<path d="M306.37,412.12 C306.37,412.12 306.25,411.93 306.25,411.93 C306.06,411.87 305.10,412.35 300.76,420.53 C299.38,423.22 297.33,428.32 297.08,429.89 C297.08,429.89 297.31,430.28 297.31,430.28 C297.31,430.28 297.95,429.49 297.95,429.49" fill="none" stroke="rgb(0, 0, 255)" stroke-width="2.79" stroke-opacity="1.00" stroke-linejoin="round"/>
<path d="M309.61,427.59 C309.61,427.59 309.20,426.86 309.20,426.86 C307.09,429.31 300.61,445.61 299.71,449.19 C299.65,449.42 299.61,449.68 299.57,449.99 C299.57,449.99 299.66,449.24 299.66,449.24" fill="none" stroke="rgb(0, 0, 255)" stroke-width="2.79" stroke-opacity="1.00" stroke-linejoin="round"/>
<path d="M248.78,389.06 C248.78,389.06 250.17,388.05 250.17,388.05 C250.17,388.05 240.98,403.46 240.98,403.46 C240.98,403.46 241.04,403.48 241.04,403.48 C241.04,403.46 241.04,403.46 241.04,403.45 C241.03,403.43 241.03,403.41 241.02,403.38 C240.83,402.55 241.30,400.60 241.72,399.66" fill="none" stroke="rgb(0, 0, 255)" stroke-width="2.79" stroke-opacity="1.00" stroke-linejoin="round"/>
<path d="M228.04,423.90 C228.04,423.90 227.65,423.81 227.65,423.81 C227.65,423.81 215.18,451.41 215.18,451.41 C215.18,451.41 217.21,447.51 217.21,447.51" fill="none" stroke="rgb(0, 0, 255)" stroke-width="2.79" stroke-opacity="1.00" stroke-linejoin="round"/>
<path d="M248.01,409.07 C248.01,409.07 247.11,408.43 247.11,408.43 C246.85,408.61 235.17,434.04 232.70,439.96 C232.45,440.49 231.90,440.86 231.03,441.29 C231.03,441.29 230.68,441.23 230.68,441.23 C230.68,441.23 230.59,440.99 230.59,440.99" fill="none" stroke="rgb(0, 0, 255)" stroke-width="2.79" stroke-opacity="1.00" stroke-linejoin="round"/>
<path d="M222.65,456.58 C222.65,456.58 222.89,455.71 222.89,455.71 C222.89,455.71 213.17,475.32 213.17,475.32 C213.17,475.32 213.98,474.21 213.98,474.21" fill="none" stroke="rgb(0, 0, 255)" stroke-width="2.79" stroke-opacity="1.00" stroke-linejoin="round"/>
<path d="M241.68,445.02 C241.68,445.02 241.43,444.84 241.43,444.84 C241.48,445.13 239.88,449.37 237.39,454.99 C235.74,458.66 232.95,464.89 231.65,467.91 C231.65,467.91 232.28,466.42 232.28,466.42" fill="none" stroke="rgb(0, 0, 255)" stroke-width="2.79" stroke-opacity="1.00" stroke-linejoin="round"/>
<path d="M268.65,385.19 C268.47,385.26 267.72,386.64 266.81,388.62 C266.08,390.21 256.70,412.90 256.51,413.25 C256.36,413.54 256.20,413.72 256.04,413.79 C256.04,413.79 255.84,413.38 255.84,413.38" fill="none" stroke="rgb(0, 0, 255)" stroke-width="2.79" stroke-opacity="1.00" stroke-linejoin="round"/>
<path d="M253.24,423.74 C253.24,423.74 252.68,423.61 252.68,423.61 C252.68,423.61 252.66,423.15 252.66,423.15 C252.03,424.48 250.02,429.94 249.27,432.44 C248.87,433.80 248.70,434.59 248.67,435.07" fill="none" stroke="rgb(0, 0, 255)" stroke-width="2.79" stroke-opacity="1.00" stroke-linejoin="round"/>
<path d="M271.86,407.62 C271.08,407.63 269.78,408.27 268.77,410.31 C268.55,410.76 258.74,433.05 258.14,434.31 C258.08,434.44 257.98,434.63 257.86,434.86 C257.86,434.86 258.23,433.97 258.23,433.97" fill="none" stroke="rgb(0, 0, 255)" stroke-width="2.79" stroke-opacity="1.00" stroke-linejoin="round"/>
<path d="M280.52,409.48 C280.52,409.48 280.37,409.26 280.37,409.26 C279.81,409.49 264.90,445.13 263.28,449.27 C263.23,449.41 263.18,449.53 263.14,449.63 C263.14,449.63 263.25,449.41 263.25,449.41" fill="none" stroke="rgb(0, 0, 255)" stroke-width="2.79" stroke-opacity="1.00" stroke-linejoin="round"/>
<path d="M259.92,448.39 C259.92,448.39 259.07,447.50 259.07,447.50 C258.86,447.61 256.91,451.96 255.70,454.66 C254.44,457.36 253.58,458.79 252.66,460.22" fill="none" stroke="rgb(0, 0, 255)" stroke-width="2.79" stroke-opacity="1.00" stroke-linejoin="round"/>
<path d="M268.55,460.65 C268.55,460.65 268.16,460.49 268.16,460.49 C267.70,461.55 264.55,467.58 262.95,471.04 C261.49,474.21 261.34,475.01 261.41,475.11 C261.41,475.11 261.82,474.49 261.82,474.49" fill="none" stroke="rgb(0, 0, 255)" stroke-width="2.79" stroke-opacity="1.00" stroke-linejoin="round"/>
<path d="M286.53,453.14 C285.84,453.16 284.86,453.90 283.83,455.65 C279.94,462.36 277.74,469.13 277.54,471.19 C277.54,471.19 277.95,471.02 277.95,471.02" fill="none" stroke="rgb(0, 0, 255)" stroke-width="2.79" stroke-opacity="1.00" stroke-linejoin="round"/>
<path d="M174.37,480.62 C174.56,480.21 174.69,479.94 174.78,479.81 C174.93,479.56 175.10,479.36 175.28,479.23 C175.35,479.18 175.45,479.14 175.57,479.11 C175.57,479.11 175.63,478.93 175.63,478.93 C174.86,478.31 174.29,478.13 173.25,478.38 C170.64,479.01 164.15,481.04 162.42,481.70 C159.96,482.66 157.48,484.36 157.34,485.42 C158.16,486.40 164.25,488.21 164.69,488.39 C164.95,488.49 165.19,488.63 165.42,488.83 C165.15,490.18 162.46,492.48 160.92,493.79 C159.08,495.35 158.41,495.94 158.25,496.16 C159.18,496.29 167.20,496.60 170.88,496.76 C172.61,496.81 195.65,495.57 197.83,495.35 C201.34,494.98 209.17,495.73 209.83,495.34 C209.83,495.34 210.20,494.23 210.20,494.23 C210.20,494.23 207.51,489.58 207.51,489.58 C207.89,488.83 219.64,487.96 229.16,487.77 C232.36,487.74 236.64,488.11 237.63,488.06 C239.24,487.96 240.21,487.41 240.55,487.05 C240.47,486.12 238.61,485.03 234.52,483.58 C233.20,483.09 232.70,482.38 232.58,481.94 C232.70,481.35 236.22,478.46 236.55,477.58 C236.61,477.44 236.59,477.28 236.51,477.10 C235.85,476.44 232.03,475.77 228.18,475.55 C226.94,475.47 224.87,475.34 224.05,475.28 C224.05,475.28 224.15,475.30 224.15,475.30 C224.15,475.30 223.92,475.27 223.92,475.27 C223.92,475.27 223.57,474.42 223.57,474.42" fill="none" stroke="rgb(0, 113, 48)" stroke-width="2.79" stroke-opacity="1.00" stroke-linejoin="round"/>
<path d="M191.38,474.81 C190.88,474.88 190.12,474.99 189.73,474.90 C189.53,474.85 188.81,474.68 187.55,474.37 C187.55,474.37 199.58,474.87 199.58,474.87 C199.58,474.87 199.00,474.78 199.00,474.78" fill="none" stroke="rgb(0, 113, 48)" stroke-width="2.79" stroke-opacity="1.00" stroke-linejoin="round"/>
<path d="M220.18,473.81 C220.18,473.81 220.00,472.81 220.00,472.81 C220.00,472.81 216.96,472.81 216.96,472.81 C217.45,473.36 221.04,474.57 223.94,475.10 C227.19,475.66 231.80,475.36 231.89,475.51 C231.89,475.51 231.89,476.02 231.89,476.02" fill="none" stroke="rgb(0, 113, 48)" stroke-width="2.79" stroke-opacity="1.00" stroke-linejoin="round"/>
<path d="M149.04,500.68 C149.05,500.63 149.05,500.56 149.06,500.46 C149.09,500.18 149.11,499.90 149.14,499.63 C147.97,498.43 143.92,500.44 143.44,501.53 C144.68,502.12 145.57,502.22 146.54,501.73 C147.56,501.21 148.03,500.72 148.16,500.15 C148.16,500.15 145.69,499.64 145.69,499.64" fill="none" stroke="rgb(0, 113, 48)" stroke-width="2.79" stroke-opacity="1.00" stroke-linejoin="round"/>
<path d="M153.50,486.59 C153.36,486.22 153.25,485.91 153.18,485.67 C153.11,485.44 152.98,484.94 152.79,484.18 C152.79,484.18 149.09,485.61 149.09,485.61 C149.49,486.32 150.01,486.54 151.02,486.28 C152.51,485.88 153.18,485.36 153.30,485.12 C153.30,485.12 152.57,484.99 152.57,484.99" fill="none" stroke="rgb(0, 113, 48)" stroke-width="2.79" stroke-opacity="1.00" stroke-linejoin="round"/>
<path d="M232.79,481.10 C232.84,480.86 232.90,480.63 232.96,480.42 C233.20,479.61 233.58,478.30 233.55,478.14 C233.53,478.08 233.46,477.94 233.34,477.74 C231.41,477.09 229.38,481.39 229.67,482.19 C229.67,482.19 231.75,481.53 231.75,481.53" fill="none" stroke="rgb(0, 113, 48)" stroke-width="2.79" stroke-opacity="1.00" stroke-linejoin="round"/>
</g>
</svg>
