<?xml version="1.0" encoding="UTF-8" standalone="no"?>
<!DOCTYPE svg PUBLIC "-//W3C//DTD SVG 1.1//EN" "http://www.w3.org/Graphics/SVG/1.1/DTD/svg11.dtd">
<svg width="128.40" height="181.68" viewBox="0.00 0.00 535.00 757.00" xmlns="http://www.w3.org/2000/svg" xmlns:xlink="http://www.w3.org/1999/xlink">
<g stroke-linecap="round" id="47">
<path d="M266.83,358.68 C266.83,358.68 265.44,358.81 265.44,358.81 C264.33,360.15 263.45,360.90 262.15,361.47 C260.87,362.05 257.40,363.41 257.39,363.42 C254.30,364.76 250.70,369.19 249.20,372.63 C247.05,377.69 242.45,392.05 241.19,398.36 C240.55,401.60 239.37,410.70 239.29,412.01 C238.85,419.73 241.43,426.88 242.31,427.45 C242.82,426.93 243.13,426.56 243.24,426.33 C243.35,426.10 243.41,425.69 243.41,425.10" fill="none" stroke="rgb(255, 165, 0)" stroke-width="4.99" stroke-opacity="1.00" stroke-linejoin="round"/>
<path d="M266.13,360.65 C265.97,360.66 265.84,360.66 265.74,360.65 C265.63,360.64 265.41,360.61 265.07,360.54 C265.07,360.54 265.24,360.72 265.24,360.72 C266.45,360.92 275.73,360.79 276.36,360.82 C278.58,360.98 280.58,361.80 281.81,363.13 C283.89,365.48 288.70,372.32 290.01,375.76 C291.67,380.28 292.57,394.63 293.12,401.79 C293.71,409.80 293.48,420.57 293.27,422.57 C293.27,422.57 293.49,420.76 293.49,420.76" fill="none" stroke="rgb(255, 165, 0)" stroke-width="4.99" stroke-opacity="1.00" stroke-linejoin="round"/>
<path d="M246.03,391.73 C245.91,391.70 245.80,391.68 245.69,391.68 C245.58,391.67 245.32,391.67 244.91,391.68 C245.77,392.45 251.74,403.17 252.54,404.14 C253.51,405.28 258.74,406.92 262.10,407.10 C263.58,407.16 272.59,407.29 274.60,407.06 C275.75,406.91 280.38,405.86 282.13,404.74 C284.09,403.45 287.17,399.70 288.05,397.52 C288.42,396.58 288.99,394.38 289.33,392.77 C289.64,391.25 289.53,390.51 289.12,390.05" fill="none" stroke="rgb(255, 165, 0)" stroke-width="4.99" stroke-opacity="1.00" stroke-linejoin="round"/>
<path d="M262.35,409.28 C262.35,409.28 261.67,408.68 261.67,408.68 C261.67,408.68 261.99,407.76 261.99,407.76 C261.99,407.76 262.49,407.95 262.49,407.95 C262.49,407.95 264.59,413.96 264.59,413.96 C264.59,413.96 264.99,413.73 264.99,413.73 C264.99,413.73 265.08,413.30 265.08,413.30" fill="none" stroke="rgb(255, 165, 0)" stroke-width="4.99" stroke-opacity="1.00" stroke-linejoin="round"/>
<path d="M274.03,408.06 C274.03,408.06 273.33,408.09 273.33,408.09 C273.33,408.09 273.85,407.86 273.85,407.86 C274.23,408.79 274.51,410.85 274.68,412.31 C274.76,412.73 274.92,413.28 275.18,413.96 C275.18,413.96 275.46,413.77 275.46,413.77 C275.46,413.77 275.46,413.39 275.46,413.39" fill="none" stroke="rgb(255, 165, 0)" stroke-width="4.99" stroke-opacity="1.00" stroke-linejoin="round"/>
<path d="M258.23,417.29 C258.26,416.02 258.31,415.20 258.37,414.81 C258.39,414.72 258.57,414.19 258.92,413.22 C258.99,413.03 259.06,412.75 259.12,412.41 C259.12,412.41 258.75,413.37 258.75,413.37 C259.07,414.32 262.18,415.31 265.44,415.21 C266.52,415.17 276.60,414.30 276.94,414.26 C278.72,414.04 280.81,413.24 282.93,412.09 C282.93,412.09 282.50,412.13 282.50,412.13" fill="none" stroke="rgb(255, 165, 0)" stroke-width="4.99" stroke-opacity="1.00" stroke-linejoin="round"/>
<path d="M257.47,412.99 C257.24,413.07 257.07,413.11 256.98,413.13 C256.89,413.15 256.74,413.16 256.54,413.18 C256.54,413.18 258.63,421.38 258.63,421.38 C261.99,421.84 267.09,422.25 270.20,422.05 C273.60,421.82 281.02,420.23 282.17,419.53 C284.77,417.87 286.27,414.45 285.94,414.03 C285.94,414.03 285.39,413.80 285.39,413.80 C285.39,413.80 285.14,413.99 285.14,413.99" fill="none" stroke="rgb(255, 165, 0)" stroke-width="4.99" stroke-opacity="1.00" stroke-linejoin="round"/>
<path d="M257.01,420.60 C256.99,420.38 257.27,419.82 257.75,419.28 C257.89,419.12 258.18,418.84 258.62,418.44 C255.87,419.32 252.62,421.31 250.54,422.61 C249.37,423.29 243.75,426.46 241.87,428.82 C240.13,431.05 236.53,435.73 235.62,437.85 C234.84,439.86 232.77,445.14 232.29,447.72 C231.63,451.48 231.91,459.28 232.07,462.91 C232.22,466.50 230.23,483.17 230.72,489.50 C230.88,491.45 231.97,498.39 232.25,502.02 C232.52,505.69 232.00,510.93 231.75,513.58 C231.46,517.00 231.95,521.04 232.70,521.82 C234.26,523.36 240.85,522.97 241.94,522.85 C241.94,522.85 242.15,520.25 242.15,520.25" fill="none" stroke="rgb(255, 165, 0)" stroke-width="4.99" stroke-opacity="1.00" stroke-linejoin="round"/>
<path d="M240.74,446.46 C240.74,446.46 240.73,446.25 240.73,446.25 C240.73,446.25 240.62,446.39 240.62,446.39 C240.99,458.92 241.07,500.95 241.24,505.15 C241.69,516.05 245.00,535.19 245.18,536.26 C245.18,536.26 245.33,534.56 245.33,534.56" fill="none" stroke="rgb(255, 165, 0)" stroke-width="4.99" stroke-opacity="1.00" stroke-linejoin="round"/>
<path d="M291.34,420.14 C291.34,420.14 290.73,420.01 290.73,420.01 C290.73,420.01 290.73,419.80 290.73,419.80 C292.41,419.74 298.47,420.99 300.96,422.35 C303.96,424.05 307.49,428.49 309.07,432.19 C312.14,439.69 313.98,445.77 315.72,454.77 C317.22,462.43 319.63,465.20 320.71,465.44 C322.54,463.42 323.73,452.42 325.31,445.07 C325.50,444.20 325.63,442.49 325.63,441.73 C325.63,441.73 332.45,444.87 332.45,444.87 C332.74,445.85 328.63,466.22 327.82,469.53 C326.84,473.48 322.13,489.58 320.71,494.93 C320.71,494.93 320.56,493.62 320.56,493.62" fill="none" stroke="rgb(255, 165, 0)" stroke-width="4.99" stroke-opacity="1.00" stroke-linejoin="round"/>
<path d="M305.11,440.41 C305.11,440.41 305.32,439.02 305.32,439.02 C305.32,439.02 305.98,439.01 305.98,439.01 C306.54,439.11 305.35,459.74 305.69,463.06 C306.29,468.55 310.68,481.28 312.93,487.43 C313.85,489.87 315.03,492.81 315.56,493.72 C316.34,495.06 318.69,497.52 319.06,498.35 C319.06,498.35 318.76,499.23 318.76,499.23 C318.76,499.23 318.45,499.42 318.45,499.42" fill="none" stroke="rgb(255, 165, 0)" stroke-width="4.99" stroke-opacity="1.00" stroke-linejoin="round"/>
<path d="M304.01,469.29 C304.03,468.50 304.14,468.01 304.43,467.57 C304.53,467.42 304.64,467.26 304.74,467.11 C304.74,467.11 304.95,467.27 304.95,467.27 C305.17,468.88 305.52,485.78 305.48,494.06 C305.27,503.82 303.37,523.23 303.40,524.03 C303.41,524.36 303.50,524.89 303.65,525.62 C303.65,525.62 303.84,524.99 303.84,524.99" fill="none" stroke="rgb(255, 165, 0)" stroke-width="4.99" stroke-opacity="1.00" stroke-linejoin="round"/>
<path d="M249.28,535.63 C249.28,535.63 248.16,535.32 248.16,535.32 C248.12,535.39 263.61,535.75 270.26,534.76 C273.95,534.19 296.18,528.11 302.60,527.83 C302.60,527.83 301.66,528.37 301.66,528.37" fill="none" stroke="rgb(255, 165, 0)" stroke-width="4.99" stroke-opacity="1.00" stroke-linejoin="round"/>
<path d="M245.97,535.22 C245.97,535.22 245.57,535.28 245.57,535.28 C246.68,537.34 247.61,546.79 247.80,555.80 C247.90,560.79 246.60,596.56 245.88,609.32 C245.02,622.44 242.26,686.17 243.47,689.65 C244.38,690.35 250.69,689.93 253.23,689.89 C256.25,689.87 259.05,690.24 261.97,690.71 C261.47,690.35 260.97,690.00 260.47,689.64 C260.30,689.52 260.20,689.44 260.17,689.42" fill="none" stroke="rgb(255, 165, 0)" stroke-width="4.99" stroke-opacity="1.00" stroke-linejoin="round"/>
<path d="M274.55,550.96 C274.55,550.96 274.82,548.72 274.82,548.72 C274.82,548.72 274.95,548.66 274.95,548.66 C275.10,549.04 269.21,593.21 268.27,604.75 C267.07,624.48 263.46,650.73 262.73,656.91 C262.55,658.63 260.70,685.67 261.05,691.36 C261.05,691.36 261.31,690.20 261.31,690.20" fill="none" stroke="rgb(255, 165, 0)" stroke-width="4.99" stroke-opacity="1.00" stroke-linejoin="round"/>
<path d="M276.64,553.40 C276.64,553.40 276.34,553.45 276.34,553.45 C276.34,553.45 276.03,551.64 276.03,551.64 C277.26,567.08 287.35,654.04 287.46,661.47 C287.48,665.43 287.46,673.67 287.43,677.95 C287.36,686.93 288.22,691.78 288.37,692.21 C288.37,692.21 286.80,689.08 286.80,689.08" fill="none" stroke="rgb(255, 165, 0)" stroke-width="4.99" stroke-opacity="1.00" stroke-linejoin="round"/>
<path d="M301.51,532.37 C301.51,532.37 302.55,529.98 302.55,529.98 C303.50,530.71 303.57,533.47 303.54,538.41 C303.34,551.81 303.68,578.37 304.74,594.20 C305.30,607.05 306.04,646.06 306.29,654.18 C307.37,675.51 309.27,688.31 310.03,692.03 C310.03,692.03 309.44,690.34 309.44,690.34" fill="none" stroke="rgb(255, 165, 0)" stroke-width="4.99" stroke-opacity="1.00" stroke-linejoin="round"/>
<path d="M289.48,690.21 C289.48,690.21 288.96,689.77 288.96,689.77 C289.71,690.17 305.40,691.01 310.08,692.52 C312.00,693.15 312.99,693.37 313.65,693.34 C313.65,693.34 313.14,693.63 313.14,693.63" fill="none" stroke="rgb(255, 165, 0)" stroke-width="4.99" stroke-opacity="1.00" stroke-linejoin="round"/>
<path d="M249.69,690.09 C249.50,690.21 249.16,690.45 249.03,690.53 C248.97,690.56 248.89,690.60 248.77,690.66 C248.77,690.66 249.87,699.03 249.87,699.03 C248.27,699.15 246.89,699.73 244.96,701.25 C242.14,703.53 235.37,709.02 234.02,710.58 C233.05,711.74 233.50,715.25 234.99,716.78 C236.59,718.33 240.87,719.02 244.45,718.30 C247.82,717.60 261.36,713.95 262.28,713.47 C263.16,712.98 263.46,711.37 263.39,708.87 C263.18,702.15 262.87,692.51 262.66,691.43 C262.66,691.43 263.35,691.66 263.35,691.66" fill="none" stroke="rgb(255, 165, 0)" stroke-width="4.99" stroke-opacity="1.00" stroke-linejoin="round"/>
<path d="M291.05,692.71 C291.05,692.71 289.57,692.48 289.57,692.48 C289.67,699.18 291.99,708.38 292.69,709.57 C293.47,710.81 294.26,711.28 296.12,711.66 C298.06,712.03 306.22,715.23 307.29,715.58 C313.93,717.66 318.07,715.76 318.92,715.00 C319.42,713.48 319.37,707.68 318.58,706.86 C318.54,706.82 312.58,702.41 310.23,699.80 C308.25,697.56 304.59,691.70 303.47,690.68 C303.47,690.68 303.36,690.67 303.36,690.67 C303.36,690.67 303.28,690.75 303.28,690.75" fill="none" stroke="rgb(255, 165, 0)" stroke-width="4.99" stroke-opacity="1.00" stroke-linejoin="round"/>
<path d="M247.19,381.22 C247.19,381.22 247.18,380.32 247.18,380.32 C247.18,380.32 246.96,380.22 246.96,380.22 C246.72,380.41 246.46,381.20 246.30,382.53 C245.90,386.04 246.47,388.19 246.79,388.67 C246.79,388.67 247.26,388.58 247.26,388.58 C247.26,388.58 247.40,388.27 247.40,388.27" fill="none" stroke="rgb(255, 165, 0)" stroke-width="4.99" stroke-opacity="1.00" stroke-linejoin="round"/>
<path d="M249.69,384.99 C249.66,384.84 249.69,384.61 249.79,384.31 C250.23,382.83 250.85,381.42 250.96,381.58 C250.96,381.58 251.15,387.04 251.15,387.04 C251.94,387.93 260.79,380.93 261.16,380.95 C261.16,380.95 261.83,384.53 261.83,384.53 C262.16,384.22 264.00,377.99 264.92,375.63 C266.24,372.32 268.94,367.83 269.37,367.80 C269.37,367.80 269.28,368.25 269.28,368.25" fill="none" stroke="rgb(255, 165, 0)" stroke-width="4.99" stroke-opacity="1.00" stroke-linejoin="round"/>
<path d="M267.76,374.54 C267.75,374.09 267.75,373.65 267.75,373.21 C267.74,372.64 267.71,372.08 267.70,372.02 C267.69,374.73 267.73,380.85 268.21,383.40 C268.27,383.73 268.40,384.30 268.58,385.12 C270.06,384.75 270.92,384.17 271.74,382.79 C272.57,381.40 273.49,380.00 275.08,377.73 C275.08,377.73 277.35,381.40 277.35,381.40 C277.35,381.40 281.43,380.12 281.43,380.12 C284.17,380.91 285.34,380.84 287.28,380.37 C287.60,380.29 287.95,380.19 288.32,380.07" fill="none" stroke="rgb(255, 165, 0)" stroke-width="4.99" stroke-opacity="1.00" stroke-linejoin="round"/>
<path d="M254.55,388.71 C254.53,388.52 254.49,388.37 254.45,388.28 C254.25,387.98 253.98,387.54 253.94,387.26 C253.94,387.26 252.71,388.62 252.71,388.62 C253.18,388.38 259.02,386.77 261.15,387.19 C261.58,387.28 262.95,387.96 263.15,387.95 C263.22,387.95 263.36,387.89 263.58,387.80" fill="none" stroke="rgb(255, 165, 0)" stroke-width="4.99" stroke-opacity="1.00" stroke-linejoin="round"/>
<path d="M272.93,387.35 C272.80,387.32 272.70,387.29 272.65,387.27 C272.54,387.23 272.43,387.20 272.33,387.16 C272.28,387.15 272.22,387.13 272.15,387.11 C272.66,386.59 276.37,385.45 279.07,385.45 C279.62,385.45 280.03,385.51 280.30,385.63 C280.40,385.68 280.53,385.79 280.68,385.97 C280.67,385.91 280.65,385.84 280.61,385.78 C280.57,385.72 280.47,385.58 280.30,385.35" fill="none" stroke="rgb(255, 165, 0)" stroke-width="4.99" stroke-opacity="1.00" stroke-linejoin="round"/>
<path d="M258.10,390.29 C257.97,390.23 257.87,390.18 257.80,390.16 C257.72,390.13 257.55,390.10 257.30,390.06 C257.30,390.06 258.37,393.09 258.37,393.09 C258.37,393.09 259.13,389.95 259.13,389.95 C259.13,389.95 258.85,390.12 258.85,390.12" fill="none" stroke="rgb(255, 165, 0)" stroke-width="4.99" stroke-opacity="1.00" stroke-linejoin="round"/>
<path d="M274.25,387.90 C274.25,387.90 274.31,387.19 274.31,387.19 C274.31,387.19 274.73,391.16 274.73,391.16 C274.89,391.06 274.98,390.82 275.38,389.43 C275.77,388.07 276.03,387.47 276.19,387.53" fill="none" stroke="rgb(255, 165, 0)" stroke-width="4.99" stroke-opacity="1.00" stroke-linejoin="round"/>
<path d="M263.68,404.92 C263.68,404.92 263.47,404.30 263.47,404.30 C263.88,404.34 265.33,404.24 267.58,404.01 C267.60,404.01 267.64,404.00 267.63,404.00" fill="none" stroke="rgb(255, 165, 0)" stroke-width="4.99" stroke-opacity="1.00" stroke-linejoin="round"/>
<path d="M267.17,390.72 C267.17,390.72 267.07,390.04 267.07,390.04 C267.33,390.98 267.38,392.31 267.47,392.76 C267.49,392.93 267.59,393.10 267.74,393.28 C267.74,393.28 268.03,392.97 268.03,392.97" fill="none" stroke="rgb(255, 165, 0)" stroke-width="4.99" stroke-opacity="1.00" stroke-linejoin="round"/>
<path d="M255.71,369.33 C255.71,369.33 256.27,367.38 256.27,367.38 C256.27,367.38 256.15,367.31 256.15,367.31 C255.81,367.57 255.16,369.34 254.56,372.11 C253.82,375.67 253.92,378.94 254.17,379.56 C254.37,379.63 254.49,379.68 254.53,379.69 C254.58,379.70 254.60,379.69 254.60,379.67" fill="none" stroke="rgb(255, 165, 0)" stroke-width="4.99" stroke-opacity="1.00" stroke-linejoin="round"/>
<path d="M265.87,366.36 C265.89,366.30 265.91,366.25 265.91,366.22 C265.91,366.20 265.91,366.15 265.90,366.08 C265.47,366.96 264.93,368.25 264.18,370.33 C263.39,372.50 262.55,375.02 262.07,376.68 C261.66,378.07 261.25,379.87 260.67,382.59" fill="none" stroke="rgb(255, 165, 0)" stroke-width="4.99" stroke-opacity="1.00" stroke-linejoin="round"/>
<path d="M275.90,365.27 C275.90,365.27 275.28,365.03 275.28,365.03 C274.77,365.12 273.96,366.17 272.92,368.23 C272.40,369.29 271.17,372.47 270.89,373.62 C270.01,377.28 270.38,379.37 270.54,379.49" fill="none" stroke="rgb(255, 165, 0)" stroke-width="4.99" stroke-opacity="1.00" stroke-linejoin="round"/>
<path d="M262.68,418.77 C262.64,418.43 262.62,418.27 262.51,417.84 C262.34,417.17 262.30,417.02 262.22,416.92 C262.22,416.92 258.24,419.21 258.24,419.21 C258.24,419.21 263.23,417.75 263.23,417.75 C263.23,417.75 261.50,419.67 261.50,419.67 C261.50,419.67 264.09,419.42 264.09,419.42 C264.09,419.42 263.19,420.36 263.19,420.36 C263.19,420.36 267.67,418.80 267.67,418.80 C267.67,418.80 265.96,420.23 265.96,420.23 C265.96,420.23 274.22,417.42 274.22,417.42 C274.22,417.42 268.89,419.77 268.89,419.77 C268.89,419.77 275.15,416.93 275.15,416.93 C275.15,416.93 269.35,419.53 269.35,419.53 C269.35,419.53 277.96,415.59 277.96,415.59 C277.96,415.59 274.46,418.10 274.46,418.10 C274.46,418.10 280.86,415.64 280.86,415.64 C280.86,415.64 278.83,418.45 278.83,418.45 C278.83,418.45 283.92,416.33 283.92,416.33 C283.92,416.33 281.94,418.54 281.94,418.54 C281.94,418.54 284.89,417.03 284.89,417.03 C284.89,417.03 280.17,419.03 280.17,419.03 C280.17,419.03 282.52,415.95 282.52,415.95 C282.52,415.95 277.36,417.41 277.36,417.41 C277.36,417.41 282.06,415.40 282.06,415.40 C282.06,415.40 274.05,419.70 274.05,419.70 C274.05,419.70 279.01,419.13 279.01,419.13 C279.01,419.13 274.06,419.52 274.06,419.52 C274.06,419.52 276.76,417.65 276.76,417.65 C276.76,417.65 264.95,419.02 264.95,419.02 C264.95,419.02 266.47,417.92 266.47,417.92 C266.47,417.92 259.86,417.83 259.86,417.83 C259.86,417.83 263.85,416.70 263.85,416.70 C263.85,416.70 261.92,417.33 261.92,417.33 C261.92,417.33 265.36,418.72 265.36,418.72" fill="none" stroke="rgb(255, 165, 0)" stroke-width="4.99" stroke-opacity="1.00" stroke-linejoin="round"/>
<path d="M260.95,426.18 C260.95,426.18 260.92,425.57 260.92,425.57 C258.43,425.72 239.55,441.46 237.21,443.97 C237.21,443.97 268.68,427.69 268.68,427.69 C256.11,432.02 243.76,442.09 243.35,442.52 C243.35,442.52 276.43,423.75 276.43,423.75 C276.43,423.75 245.20,442.07 245.20,442.07 C247.50,442.73 269.40,429.06 270.67,428.30 C270.67,428.30 249.32,450.79 249.32,450.79 C249.32,450.79 279.19,428.73 279.19,428.73 C279.19,428.73 252.73,449.54 252.73,449.54 C255.02,448.63 267.24,440.46 273.57,436.21 C279.72,432.31 286.54,428.36 288.84,427.71 C289.59,428.19 274.85,438.31 268.23,442.74 C259.13,448.78 249.33,456.68 248.68,458.88 C249.28,459.54 252.85,457.63 257.82,454.39 C263.78,450.38 289.65,433.28 291.91,432.08 C290.77,433.23 258.27,454.29 245.70,463.63 C242.12,466.31 237.68,469.84 238.00,469.91 C239.23,469.25 280.79,445.53 289.88,441.30 C293.20,439.77 294.96,439.27 295.61,439.22 C295.61,439.22 248.11,470.22 248.11,470.22 C248.11,470.22 297.81,445.66 297.81,445.66 C297.81,445.66 251.08,474.04 251.08,474.04 C251.08,474.04 295.21,454.35 295.21,454.35 C292.61,455.05 279.38,461.88 272.69,465.60 C257.54,474.47 247.22,481.78 246.29,483.02 C247.49,483.51 261.70,476.97 268.01,474.01 C288.06,464.73 296.20,461.77 297.12,461.73 C297.00,462.21 282.55,469.14 276.53,472.04 C257.46,481.93 252.73,486.02 252.33,486.61 C253.70,487.14 291.52,470.06 292.12,469.95 C292.12,469.95 245.75,498.06 245.75,498.06 C245.77,498.06 289.35,477.96 294.53,476.04 C295.10,475.83 296.15,475.47 297.69,474.97 C297.21,475.30 254.36,499.63 247.68,504.64 C246.45,505.57 245.62,506.37 245.11,507.02 C245.11,507.02 289.65,486.64 289.65,486.64 C289.65,486.64 257.05,509.08 257.05,509.08 C270.98,501.19 289.43,493.16 290.72,492.86 C285.05,496.09 274.04,502.40 267.99,506.43 C261.21,510.99 255.92,515.64 256.11,516.39 C256.11,516.39 287.65,502.89 287.65,502.89 C288.17,503.87 277.24,510.91 267.39,516.87 C258.28,522.25 253.95,525.41 254.08,525.69 C254.08,525.69 283.03,511.95 283.03,511.95 C283.03,511.95 258.36,530.39 258.36,530.39 C258.62,531.08 261.85,529.91 267.60,527.37 C271.35,525.63 278.29,522.41 281.49,520.92 C281.49,520.92 270.17,527.51 270.17,527.51 C272.12,527.52 280.90,524.45 283.56,523.77 C285.48,523.29 286.69,523.26 287.31,523.54 C287.31,523.54 282.26,528.72 282.26,528.72 C282.75,529.16 283.63,529.21 285.58,528.80 C290.44,527.75 295.54,526.85 296.88,526.84 C297.12,526.84 297.48,526.88 297.97,526.97" fill="none" stroke="rgb(255, 165, 0)" stroke-width="4.99" stroke-opacity="1.00" stroke-linejoin="round"/>
<path d="M309.13,439.54 C309.13,439.10 309.13,438.14 309.19,437.81 C309.33,437.00 309.69,435.91 309.85,435.67 C307.94,441.20 306.08,453.63 305.79,460.88 C305.70,464.04 305.77,468.55 306.29,469.67 C308.77,468.83 312.38,450.35 312.45,448.41 C312.45,448.41 312.49,474.91 312.49,474.91 C313.86,474.14 316.07,449.36 315.66,448.66 C314.00,450.44 312.59,480.20 312.69,483.08 C312.69,483.08 314.90,474.00 314.90,474.00 C314.90,474.00 316.58,494.03 316.58,494.03 C316.58,494.03 320.19,478.28 320.19,478.28 C320.19,478.28 320.80,490.02 320.80,490.02 C320.80,490.02 323.06,470.97 323.06,470.97 C323.06,470.97 324.63,475.83 324.63,475.83 C324.63,475.83 327.16,459.22 327.16,459.22 C327.16,459.22 327.44,465.55 327.44,465.55 C327.44,465.55 328.75,451.11 328.75,451.11 C328.75,451.11 328.39,456.73 328.39,456.73 C328.39,456.73 328.23,452.11 328.23,452.11 C328.23,452.11 322.90,469.88 322.90,469.88 C322.90,469.88 320.82,468.20 320.82,468.20 C318.98,468.88 317.28,476.23 317.55,477.39 C317.55,477.39 319.12,471.04 319.12,471.04 C319.12,471.04 319.18,476.45 319.18,476.45 C319.18,476.45 317.74,470.12 317.74,470.12 C315.98,471.08 314.28,479.64 314.19,481.34 C314.19,481.34 314.29,481.34 314.29,481.34 C314.29,481.34 314.37,480.89 314.37,480.89" fill="none" stroke="rgb(255, 165, 0)" stroke-width="4.99" stroke-opacity="1.00" stroke-linejoin="round"/>
<path d="M246.61,444.92 C246.67,444.71 246.75,444.54 246.84,444.40 C247.05,444.09 247.71,443.30 247.83,443.18 C247.83,443.18 243.50,449.05 243.50,449.05 C243.50,449.05 247.35,445.67 247.35,445.67 C247.35,445.67 243.16,453.31 243.16,453.31 C243.16,453.31 246.84,451.20 246.84,451.20 C246.84,451.20 243.68,458.88 243.68,458.88 C243.68,458.88 246.67,456.71 246.67,456.71 C246.67,456.71 243.55,464.73 243.55,464.73 C243.55,464.73 246.54,460.39 246.54,460.39 C246.54,460.39 245.68,460.98 245.68,460.98" fill="none" stroke="rgb(255, 165, 0)" stroke-width="4.99" stroke-opacity="1.00" stroke-linejoin="round"/>
<path d="M237.76,444.72 C237.76,444.72 238.57,441.98 238.57,441.98 C238.57,441.98 232.47,459.84 232.47,459.84 C232.47,459.84 238.74,449.51 238.74,449.51 C238.74,449.51 233.08,464.00 233.08,464.00 C233.08,464.00 237.23,459.16 237.23,459.16 C237.23,459.16 234.47,477.41 234.47,477.41 C236.19,476.43 238.07,471.56 238.20,470.70 C238.20,470.70 234.17,484.41 234.17,484.41 C234.17,484.41 236.19,475.28 236.19,475.28 C236.19,475.28 234.37,477.87 234.37,477.87" fill="none" stroke="rgb(255, 165, 0)" stroke-width="4.99" stroke-opacity="1.00" stroke-linejoin="round"/>
<path d="M238.54,490.34 C237.40,491.60 235.45,504.11 234.50,510.34 C233.67,516.76 233.65,518.07 233.86,518.99 C233.86,518.99 236.02,516.91 236.02,516.91 C236.61,517.81 236.79,518.64 236.98,521.38 C237.07,522.67 237.28,523.59 237.46,523.82 C237.46,523.82 237.59,523.66 237.59,523.66" fill="none" stroke="rgb(255, 165, 0)" stroke-width="4.99" stroke-opacity="1.00" stroke-linejoin="round"/>
<path d="M231.98,524.99 C231.98,524.99 231.28,523.74 231.28,523.74 C230.66,524.45 230.72,529.28 231.43,532.65 C232.16,535.95 234.59,540.29 236.01,541.18 C237.23,541.88 238.94,540.84 239.42,538.95 C239.79,537.40 240.55,528.46 240.20,526.39 C240.18,526.31 239.95,525.75 239.49,524.73 C239.42,524.57 239.39,524.37 239.40,524.11" fill="none" stroke="rgb(255, 165, 0)" stroke-width="4.99" stroke-opacity="1.00" stroke-linejoin="round"/>
<path d="M329.75,442.71 C329.75,442.71 329.38,441.84 329.38,441.84 C329.86,443.35 330.77,444.83 331.46,445.00 C332.39,445.19 334.03,443.18 334.52,441.10 C335.24,437.96 335.74,424.83 335.39,423.46 C334.16,423.54 333.34,423.93 332.53,424.99 C330.71,427.42 328.98,430.93 329.28,431.29 C329.28,431.29 330.49,430.50 330.49,430.50" fill="none" stroke="rgb(255, 165, 0)" stroke-width="4.99" stroke-opacity="1.00" stroke-linejoin="round"/>
<path d="M329.98,428.45 C329.98,428.45 328.61,427.60 328.61,427.60 C324.88,428.37 325.85,443.84 326.23,444.09 C326.23,444.09 327.09,443.63 327.09,443.63" fill="none" stroke="rgb(255, 165, 0)" stroke-width="4.99" stroke-opacity="1.00" stroke-linejoin="round"/>
<path d="M245.30,401.82 C245.85,400.12 246.21,398.98 246.38,398.43 C246.55,397.87 246.76,397.12 247.01,396.16 C246.79,397.63 244.40,413.53 244.51,421.01 C244.55,423.19 244.64,424.99 244.78,426.97 C244.78,426.97 244.10,425.00 244.10,425.00" fill="none" stroke="rgb(255, 165, 0)" stroke-width="4.99" stroke-opacity="1.00" stroke-linejoin="round"/>
<path d="M249.56,403.12 C249.56,403.12 249.39,402.92 249.39,402.92 C249.39,402.92 248.51,426.20 248.51,426.20 C248.51,426.20 249.10,424.41 249.10,424.41" fill="none" stroke="rgb(255, 165, 0)" stroke-width="4.99" stroke-opacity="1.00" stroke-linejoin="round"/>
<path d="M253.71,406.31 C253.50,406.56 253.37,406.87 253.31,407.24 C253.16,408.17 252.77,419.77 252.76,420.53 C252.75,420.89 252.76,421.05 252.80,420.99 C252.80,420.99 252.84,420.27 252.84,420.27" fill="none" stroke="rgb(255, 165, 0)" stroke-width="4.99" stroke-opacity="1.00" stroke-linejoin="round"/>
<path d="M285.02,403.35 C285.02,402.84 285.05,402.41 285.09,402.17 C285.10,402.12 285.11,402.09 285.13,402.06 C285.13,402.06 284.83,420.97 284.83,420.97 C284.83,420.97 284.55,419.91 284.55,419.91" fill="none" stroke="rgb(255, 165, 0)" stroke-width="4.99" stroke-opacity="1.00" stroke-linejoin="round"/>
<path d="M289.42,402.14 C289.42,402.14 288.98,402.00 288.98,402.00 C289.22,402.36 289.46,404.65 289.82,409.95 C290.11,414.78 290.10,415.81 289.99,416.73 C289.87,416.56 289.79,416.45 289.76,416.40 C289.73,416.35 289.69,416.30 289.66,416.23" fill="none" stroke="rgb(255, 165, 0)" stroke-width="4.99" stroke-opacity="1.00" stroke-linejoin="round"/>
<path d="M290.11,422.53 C289.26,421.85 287.88,422.01 286.87,422.71 C285.58,423.62 284.87,424.63 284.66,425.12 C284.66,425.12 293.21,423.18 293.21,423.18 C293.21,423.18 291.53,425.80 291.53,425.80 C291.53,425.80 295.91,425.53 295.91,425.53 C295.91,425.53 295.01,428.94 295.01,428.94 C296.15,428.47 300.51,426.27 301.12,426.10 C301.34,426.03 301.74,425.95 302.34,425.85" fill="none" stroke="rgb(255, 165, 0)" stroke-width="4.99" stroke-opacity="1.00" stroke-linejoin="round"/>
<path d="M294.32,424.20 C292.07,423.23 284.35,421.96 282.70,422.31 C280.53,422.82 278.96,423.67 278.44,424.09 C278.44,424.09 290.65,420.99 290.65,420.99 C290.65,420.99 287.19,425.82 287.19,425.82 C287.19,425.82 294.84,424.73 294.84,424.73 C294.84,424.73 293.08,429.05 293.08,429.05 C293.08,429.05 300.56,426.51 300.56,426.51 C300.56,426.51 300.47,429.29 300.47,429.29 C301.37,429.82 301.85,429.97 302.49,429.69 C303.89,429.10 304.84,428.65 305.59,428.26" fill="none" stroke="rgb(255, 165, 0)" stroke-width="4.99" stroke-opacity="1.00" stroke-linejoin="round"/>
<path d="M266.04,422.82 C266.04,422.82 266.09,422.64 266.09,422.64 C266.02,422.57 265.91,422.54 265.76,422.57 C264.13,422.86 260.96,424.67 257.41,427.75 C257.41,427.75 260.71,424.74 260.71,424.74 C260.71,424.74 260.19,426.88 260.19,426.88 C261.09,427.41 261.90,427.37 263.27,426.60 C266.66,424.68 267.29,424.38 267.72,424.28 C267.72,424.28 263.53,428.60 263.53,428.60 C263.53,428.60 267.50,425.87 267.50,425.87" fill="none" stroke="rgb(255, 165, 0)" stroke-width="4.99" stroke-opacity="1.00" stroke-linejoin="round"/>
<path d="M254.92,550.77 C255.11,549.34 255.24,548.46 255.30,548.14 C255.36,547.81 255.44,547.57 255.54,547.43 C255.56,547.83 255.46,548.54 255.10,550.28 C252.52,562.89 251.14,586.08 250.73,604.33 C250.70,610.92 250.68,624.59 250.68,631.68 C250.66,633.88 250.71,634.96 250.90,636.79 C250.90,636.79 251.22,636.09 251.22,636.09" fill="none" stroke="rgb(255, 165, 0)" stroke-width="4.99" stroke-opacity="1.00" stroke-linejoin="round"/>
<path d="M256.76,606.88 C256.76,606.88 256.07,607.06 256.07,607.06 C255.52,608.48 253.77,628.15 253.59,632.14 C253.27,639.60 253.74,648.58 254.39,654.18 C254.39,654.18 254.27,650.55 254.27,650.55" fill="none" stroke="rgb(255, 165, 0)" stroke-width="4.99" stroke-opacity="1.00" stroke-linejoin="round"/>
<path d="M264.40,602.56 C264.40,602.56 264.54,602.32 264.54,602.32 C264.54,602.32 264.73,602.24 264.73,602.24 C264.77,602.79 262.28,619.30 261.25,627.87 C260.14,638.66 260.21,642.04 260.27,642.81 C260.27,642.81 260.43,639.99 260.43,639.99" fill="none" stroke="rgb(255, 165, 0)" stroke-width="4.99" stroke-opacity="1.00" stroke-linejoin="round"/>
<path d="M285.22,553.51 C285.22,553.30 285.22,553.15 285.21,553.05 C285.20,552.95 285.19,552.75 285.16,552.47 C285.16,552.47 285.01,552.43 285.01,552.43 C284.75,553.15 281.76,572.55 281.38,577.32 C281.35,577.74 281.30,578.52 281.23,579.67 C281.23,579.67 281.31,579.60 281.31,579.60 C281.31,579.60 281.31,579.03 281.31,579.03" fill="none" stroke="rgb(255, 165, 0)" stroke-width="4.99" stroke-opacity="1.00" stroke-linejoin="round"/>
<path d="M290.20,555.99 C290.20,555.99 289.53,556.15 289.53,556.15 C288.27,557.34 286.06,570.92 285.16,579.35 C284.58,585.95 283.55,599.68 283.11,606.82 C282.95,610.03 282.72,615.28 282.36,616.68 C282.36,616.68 282.09,616.70 282.09,616.70 C282.09,616.70 281.83,616.14 281.83,616.14" fill="none" stroke="rgb(255, 165, 0)" stroke-width="4.99" stroke-opacity="1.00" stroke-linejoin="round"/>
<path d="M291.07,620.84 C291.07,620.84 291.01,619.78 291.01,619.78 C290.40,620.64 289.92,644.07 290.47,656.78 C290.69,660.22 291.21,667.21 291.51,670.76 C291.84,674.24 292.70,679.88 293.42,681.63 C293.42,681.63 293.85,680.46 293.85,680.46" fill="none" stroke="rgb(255, 165, 0)" stroke-width="4.99" stroke-opacity="1.00" stroke-linejoin="round"/>
<path d="M296.51,635.93 C296.51,635.93 296.60,632.72 296.60,632.72 C296.60,632.72 295.97,674.10 295.97,674.10 C296.20,673.55 296.49,671.65 296.73,668.93 C296.77,668.43 296.81,667.90 296.83,667.34" fill="none" stroke="rgb(255, 165, 0)" stroke-width="4.99" stroke-opacity="1.00" stroke-linejoin="round"/>
<path d="M302.15,610.99 C302.15,610.99 301.68,609.06 301.68,609.06 C302.01,611.91 301.48,652.69 301.54,665.05 C301.59,667.47 302.09,672.77 302.24,673.46 C302.24,673.46 302.33,673.49 302.33,673.49 C302.38,673.24 302.43,671.62 302.45,670.95 C302.68,663.02 302.96,653.71 303.01,652.33" fill="none" stroke="rgb(255, 165, 0)" stroke-width="4.99" stroke-opacity="1.00" stroke-linejoin="round"/>
<path d="M253.86,694.57 C253.86,694.57 253.91,693.61 253.91,693.61 C253.91,693.61 250.11,700.26 250.11,700.26 C250.11,700.26 252.69,699.61 252.69,699.61" fill="none" stroke="rgb(255, 165, 0)" stroke-width="4.99" stroke-opacity="1.00" stroke-linejoin="round"/>
<path d="M248.84,702.09 C248.84,702.09 247.99,700.77 247.99,700.77 C247.99,700.77 251.69,696.96 251.69,696.96 C251.69,696.96 236.07,711.27 236.07,711.27 C236.07,711.27 253.61,695.25 253.61,695.25 C253.61,695.25 241.60,709.72 241.60,709.72 C242.45,710.15 244.70,708.65 247.26,706.78 C249.41,705.15 257.41,698.22 258.28,697.46 C258.28,697.46 242.35,712.97 242.35,712.97 C242.35,712.97 258.00,700.23 258.00,700.23 C258.00,700.23 250.82,710.74 250.82,710.74 C250.82,710.74 260.61,705.65 260.61,705.65 C260.61,705.65 253.85,712.48 253.85,712.48 C253.85,712.48 259.54,707.69 259.54,707.69 C259.54,707.69 257.77,714.56 257.77,714.56 C260.61,712.58 264.33,707.77 264.85,707.13 C265.02,706.92 265.16,706.76 265.26,706.66 C265.26,706.66 265.24,706.74 265.24,706.74" fill="none" stroke="rgb(255, 165, 0)" stroke-width="4.99" stroke-opacity="1.00" stroke-linejoin="round"/>
<path d="M292.30,693.88 C292.30,693.88 292.16,693.82 292.16,693.82 C292.08,693.68 292.01,693.54 291.96,693.41 C291.91,693.28 291.79,692.96 291.60,692.46 C291.60,692.46 295.98,707.42 295.98,707.42 C295.98,707.42 293.18,696.02 293.18,696.02 C293.18,696.02 296.21,704.10 296.21,704.10 C296.21,704.10 294.79,695.32 294.79,695.32 C294.79,695.32 301.83,706.81 301.83,706.81 C301.83,706.81 301.02,700.65 301.02,700.65 C301.02,700.65 306.43,711.40 306.43,711.40 C306.43,711.40 303.76,700.43 303.76,700.43 C303.76,700.43 308.02,706.96 308.02,706.96 C308.02,706.96 307.38,701.43 307.38,701.43 C307.38,701.43 312.92,710.50 312.92,710.50 C312.92,710.50 311.60,705.08 311.60,705.08 C311.60,705.08 316.06,714.59 316.06,714.59 C316.06,714.59 314.21,710.30 314.21,710.30 C314.21,710.30 313.49,713.20 313.49,713.20 C311.82,713.15 310.60,712.73 309.04,711.47 C306.53,709.44 303.92,706.77 302.85,705.63 C302.73,705.90 301.85,706.61 296.33,706.19 C296.03,706.17 295.55,706.15 294.89,706.14" fill="none" stroke="rgb(255, 165, 0)" stroke-width="4.99" stroke-opacity="1.00" stroke-linejoin="round"/>
<path d="M417.05,233.07 C417.38,232.04 417.60,231.36 417.69,231.03 C418.04,229.73 418.06,228.59 417.73,227.65 C417.43,226.94 415.36,225.58 413.71,225.02 C411.69,224.37 406.65,226.38 404.59,228.10 C402.43,229.98 399.63,234.84 398.53,238.21 C397.69,240.89 398.02,248.06 398.51,249.80 C399.06,251.64 400.68,255.14 401.62,256.36 C402.64,257.62 405.48,259.62 407.21,260.33 C409.81,261.33 415.61,260.55 417.48,259.87 C419.24,259.19 421.74,257.73 422.98,256.54 C424.29,255.25 426.21,252.62 426.73,251.36 C427.20,250.13 427.53,247.27 427.40,245.85 C427.13,243.55 423.76,239.81 421.49,238.66 C418.85,237.38 413.44,236.69 410.53,237.06 C407.37,237.52 402.77,240.30 402.46,241.85" fill="none" stroke="rgb(255, 165, 0)" stroke-width="4.99" stroke-opacity="1.00" stroke-linejoin="round"/>
<path d="M418.54,273.23 C418.54,273.23 417.88,268.56 417.88,268.56 C418.89,283.52 422.07,322.57 422.21,325.47 C422.25,326.44 422.44,335.25 422.47,335.70 C422.56,336.82 422.82,337.47 423.17,337.70 C423.17,337.70 423.83,337.10 423.83,337.10" fill="none" stroke="rgb(255, 165, 0)" stroke-width="4.99" stroke-opacity="1.00" stroke-linejoin="round"/>
<path d="M421.44,333.06 C421.45,332.58 421.45,332.23 421.44,332.01 C421.43,331.56 421.40,331.11 421.36,330.66 C421.35,330.49 421.32,330.27 421.28,330.02 C416.65,348.97 415.93,363.14 416.17,365.61 C416.17,365.61 416.27,361.74 416.27,361.74" fill="none" stroke="rgb(255, 165, 0)" stroke-width="4.99" stroke-opacity="1.00" stroke-linejoin="round"/>
<path d="M425.43,329.99 C425.43,329.99 424.03,328.24 424.03,328.24 C425.79,328.06 432.55,339.20 436.26,346.26 C440.40,354.42 444.84,365.21 445.83,367.37 C445.83,367.37 446.00,365.58 446.00,365.58" fill="none" stroke="rgb(255, 165, 0)" stroke-width="4.99" stroke-opacity="1.00" stroke-linejoin="round"/>
<path d="M415.88,283.27 C416.02,282.97 416.11,282.76 416.16,282.65 C416.20,282.54 416.25,282.36 416.32,282.13 C415.91,282.82 414.93,284.47 414.55,285.20 C411.98,290.23 407.78,301.67 405.75,310.18 C405.27,312.11 405.17,313.37 405.21,315.76 C406.89,315.25 407.93,314.40 409.04,312.40 C410.15,310.40 410.71,309.21 411.21,307.85" fill="none" stroke="rgb(255, 165, 0)" stroke-width="4.99" stroke-opacity="1.00" stroke-linejoin="round"/>
<path d="M421.69,283.52 C421.69,283.52 422.06,281.14 422.06,281.14 C423.48,281.51 439.11,301.30 439.15,301.36 C440.44,302.90 442.63,305.33 443.54,306.33 C444.51,307.39 444.82,307.91 444.77,308.23 C444.77,308.23 444.55,308.56 444.55,308.56" fill="none" stroke="rgb(255, 165, 0)" stroke-width="4.99" stroke-opacity="1.00" stroke-linejoin="round"/>
<path d="M412.81,238.71 C412.81,238.71 409.68,234.88 409.68,234.88 C408.60,234.72 407.14,235.14 406.19,236.20 C404.66,237.91 403.33,242.60 403.45,244.86 C403.56,246.12 404.68,249.06 405.70,249.91 C406.17,250.30 407.22,250.76 408.85,251.29 C411.46,250.44 413.48,248.99 414.77,246.82 C415.05,246.34 416.02,243.34 416.02,242.73 C416.00,240.30 414.90,238.23 413.24,237.03 C410.72,237.12 409.45,237.43 408.37,238.36 C405.68,240.82 404.77,244.12 404.85,246.79 C404.85,246.79 407.02,248.76 407.02,248.76 C409.53,248.50 410.99,248.11 412.11,247.25 C413.19,246.41 414.50,245.07 415.27,244.03 C416.02,242.98 416.27,241.72 416.27,239.66 C415.57,239.01 414.76,238.58 414.07,238.72 C412.63,239.03 408.55,242.02 407.76,243.90 C407.42,244.72 407.07,246.61 406.91,247.88 C406.91,247.88 409.01,250.30 409.01,250.30 C411.91,250.41 413.71,250.22 415.03,249.46 C417.30,248.12 420.51,243.21 420.55,241.33 C420.54,240.37 419.61,238.22 418.88,237.45 C418.09,236.68 415.80,235.76 414.60,235.72 C413.32,235.73 411.16,236.58 410.06,237.47 C409.20,238.21 408.13,239.96 407.86,241.05 C407.58,242.41 407.82,244.76 408.41,245.91 C409.00,247.00 410.91,248.70 412.11,249.21 C413.34,249.69 415.85,249.75 417.03,249.28 C418.24,248.74 420.24,246.73 420.94,245.35 C421.59,243.95 422.04,240.88 421.80,239.42 C421.50,237.91 419.96,235.46 418.76,234.61 C417.47,233.76 414.62,233.25 412.83,233.49 C411.35,233.74 408.76,235.04 407.54,236.16 C406.17,237.48 404.06,240.48 403.52,241.93 C403.00,243.42 402.89,246.72 403.27,248.34 C403.65,249.73 405.28,251.76 406.58,252.49 C408.08,253.27 411.28,254.05 412.81,253.96 C414.32,253.84 417.72,252.65 419.38,251.69 C420.80,250.83 422.91,248.65 423.64,247.28 C424.43,245.72 425.17,242.70 425.04,241.46 C424.87,240.24 423.48,237.93 422.38,236.93 C421.41,236.10 418.95,235.15 417.48,235.01 C415.77,234.90 412.53,235.29 411.21,235.83 C409.86,236.40 407.36,238.44 406.33,239.76 C405.47,240.92 404.72,243.32 404.85,244.56 C405.04,245.99 406.21,248.32 407.17,249.07 C408.16,249.77 411.24,250.65 413.03,250.78 C414.62,250.86 417.66,250.24 419.17,249.53 C420.91,248.67 423.68,246.55 424.51,245.41 C425.29,244.25 426.10,241.31 426.11,239.74 C426.09,238.43 425.24,236.20 424.43,235.22 C423.51,234.18 421.45,232.73 420.49,232.48 C419.51,232.28 417.34,232.74 416.31,233.35 C415.43,233.91 414.23,235.63 413.89,236.81 C413.53,238.20 413.40,241.01 413.68,242.23 C414.00,243.46 415.43,245.96 416.43,247.10 C417.32,248.06 419.31,249.16 420.43,249.31 C421.74,249.44 424.18,248.96 425.16,248.34 C426.13,247.69 427.93,245.44 428.67,244.01 C429.28,242.74 429.78,240.10 429.62,238.76 C429.39,237.16 428.22,234.50 427.31,233.66 C426.38,232.87 423.06,231.73 421.46,231.71 C418.29,231.72 413.19,234.17 411.66,235.42 C409.86,236.91 407.17,240.65 406.01,242.97 C405.03,244.98 404.58,250.78 405.22,252.49 C405.98,254.33 408.05,256.61 409.75,257.27 C411.30,257.81 414.67,257.68 416.23,257.01 C417.81,256.27 420.38,253.71 421.26,252.00 C422.09,250.27 422.74,246.37 422.49,244.56 C422.22,242.89 420.75,239.75 419.84,238.79 C418.93,237.89 416.20,236.54 414.64,236.14 C413.29,235.84 410.76,236.00 409.55,236.49 C408.15,237.10 405.88,238.86 405.18,239.92 C404.50,241.01 403.83,243.83 403.86,245.31 C403.92,246.62 404.88,248.65 405.82,249.44 C406.90,250.28 409.43,251.28 410.69,251.33 C411.99,251.34 414.97,250.43 416.48,249.57 C417.82,248.77 419.85,246.59 420.60,245.13 C421.42,243.42 422.28,240.00 422.21,238.53 C422.10,237.05 420.82,234.08 419.77,232.75 C418.85,231.65 416.48,230.27 415.07,229.98 C413.45,229.69 410.39,229.91 409.15,230.43 C407.94,230.98 405.67,233.08 404.73,234.46 C403.96,235.68 403.25,238.28 403.33,239.67 C403.46,241.30 404.45,244.12 405.29,245.12 C406.14,246.08 408.80,247.54 410.35,247.95 C411.73,248.26 414.39,248.00 415.79,247.42 C417.37,246.71 419.98,244.85 420.86,243.77 C421.70,242.68 422.77,239.94 422.96,238.47 C423.09,237.16 422.42,234.93 421.59,233.99 C420.58,232.93 418.03,231.49 416.60,231.21 C415.15,230.98 411.54,231.37 409.62,231.96 C406.46,232.99 402.39,237.37 401.50,239.22 C400.72,241.01 400.26,243.91 400.66,245.68 C401.14,247.60 402.91,250.94 404.10,251.98 C405.92,253.52 412.27,255.66 414.47,255.42 C415.90,255.25 418.24,254.20 419.57,253.32 C420.87,252.37 422.57,250.62 423.36,249.28 C424.08,248.00 424.95,243.89 424.90,242.13 C424.80,240.23 423.47,236.97 422.32,235.82 C421.17,234.74 418.09,233.63 416.50,233.71 C414.84,233.86 411.81,235.46 410.53,236.87 C409.30,238.30 407.66,241.97 407.37,243.89 C407.13,245.84 407.81,249.33 408.71,250.62 C409.67,251.89 412.58,253.32 414.40,253.44 C416.15,253.51 419.85,252.52 421.55,251.54 C423.23,250.51 425.89,247.75 426.68,246.19 C427.42,244.63 427.70,241.49 427.25,240.11 C426.75,238.76 424.75,236.89 423.44,236.55 C422.26,236.29 419.40,236.70 418.29,237.25 C417.20,237.82 415.15,239.73 414.21,240.99 C413.40,242.14 412.82,244.25 412.93,245.69 C413.09,247.38 414.05,249.35 415.11,250.28 C415.97,250.96 417.63,251.49 418.63,251.37 C419.45,251.24 421.88,250.30 422.51,249.63 C424.00,247.95 425.24,244.90 424.85,243.53 C424.73,243.15 424.36,242.57 423.73,241.77 C423.73,241.77 422.31,241.54 422.31,241.54 C422.31,241.54 421.15,242.78 421.15,242.78" fill="none" stroke="rgb(255, 165, 0)" stroke-width="4.99" stroke-opacity="1.00" stroke-linejoin="round"/>
<path d="M401.94,261.28 C401.94,261.28 402.27,258.21 402.27,258.21 C402.27,258.21 404.27,285.05 404.27,285.05 C404.27,285.05 405.11,262.69 405.11,262.69 C405.11,262.69 405.25,277.47 405.25,277.47 C405.25,277.47 407.10,265.67 407.10,265.67 C408.57,268.06 409.24,269.54 409.64,271.62 C410.84,277.41 411.28,278.55 412.30,280.41 C412.30,280.41 412.34,264.70 412.34,264.70 C412.34,264.70 414.66,277.24 414.66,277.24 C414.66,277.24 417.50,264.15 417.50,264.15 C417.50,264.15 419.86,279.77 419.86,279.77 C420.75,277.83 421.12,276.34 421.28,273.58 C421.75,265.79 421.87,264.60 422.16,262.54 C422.16,262.54 424.31,273.48 424.31,273.48 C424.31,273.48 425.56,259.34 425.56,259.34 C425.56,259.34 428.60,275.87 428.60,275.87 C428.60,275.87 430.73,256.81 430.73,256.81 C430.73,256.81 432.36,275.90 432.36,275.90 C432.36,275.90 431.71,262.12 431.71,262.12 C431.71,262.12 433.71,276.79 433.71,276.79 C433.71,276.79 433.48,273.13 433.48,273.13" fill="none" stroke="rgb(255, 165, 0)" stroke-width="4.99" stroke-opacity="1.00" stroke-linejoin="round"/>
<path d="M403.85,260.53 C403.69,259.57 403.52,258.60 403.36,257.63 C402.98,255.48 402.70,254.19 402.57,253.86 C402.57,253.86 404.56,273.15 404.56,273.15 C404.56,273.15 408.12,255.05 408.12,255.05 C409.18,255.29 410.55,258.95 412.71,264.99 C413.46,267.10 414.06,268.36 415.12,270.16 C416.67,268.77 417.36,267.74 417.73,265.87 C418.84,260.59 419.10,259.71 419.72,258.07 C419.72,258.07 423.20,263.26 423.20,263.26 C424.05,262.82 424.60,261.89 425.21,259.55 C426.09,256.20 426.32,253.65 426.30,253.70 C426.30,253.70 427.61,263.33 427.61,263.33 C427.61,263.33 430.82,245.16 430.82,245.16 C430.82,245.16 432.78,262.51 432.78,262.51 C432.78,262.51 433.28,248.80 433.28,248.80 C433.28,248.80 433.60,258.27 433.60,258.27 C433.60,258.27 432.58,236.85 432.58,236.85 C432.58,236.85 431.77,244.70 431.77,244.70 C431.77,244.70 429.70,239.42 429.70,239.42" fill="none" stroke="rgb(255, 165, 0)" stroke-width="4.99" stroke-opacity="1.00" stroke-linejoin="round"/>
<path d="M180.72,262.86 C179.14,262.03 177.30,261.29 175.85,260.96 C175.17,260.82 173.40,261.26 172.70,261.80 C170.64,263.45 167.52,268.64 166.33,271.37 C164.85,274.80 163.12,280.88 162.90,283.22 C162.69,285.50 163.11,291.95 163.66,293.97 C163.84,294.58 165.51,297.79 166.16,298.64 C167.19,299.95 170.05,301.59 171.68,301.87 C173.24,302.08 176.66,301.51 178.28,300.78 C181.69,299.17 185.89,293.68 186.92,290.92 C187.76,288.52 188.50,284.96 188.64,282.55 C188.76,279.81 187.84,274.96 185.99,271.99 C184.54,269.75 179.84,267.09 177.98,267.36 C176.84,267.56 173.98,269.28 172.70,270.52 C167.33,275.92 167.94,281.85 168.37,283.33" fill="none" stroke="rgb(255, 165, 0)" stroke-width="4.99" stroke-opacity="1.00" stroke-linejoin="round"/>
<path d="M182.38,295.64 C182.38,295.64 181.51,292.73 181.51,292.73 C181.81,294.22 179.62,308.22 178.92,318.05 C178.25,329.15 178.69,331.47 179.13,333.18 C179.13,333.18 180.47,329.20 180.47,329.20" fill="none" stroke="rgb(255, 165, 0)" stroke-width="4.99" stroke-opacity="1.00" stroke-linejoin="round"/>
<path d="M179.47,331.15 C179.48,330.68 179.49,330.35 179.50,330.14 C179.52,329.94 179.55,329.57 179.60,329.06 C179.60,329.06 179.52,328.97 179.52,328.97 C177.52,336.02 173.77,350.12 172.23,356.75 C170.27,365.36 170.64,369.75 171.04,369.65 C171.04,369.65 173.81,362.56 173.81,362.56" fill="none" stroke="rgb(255, 165, 0)" stroke-width="4.99" stroke-opacity="1.00" stroke-linejoin="round"/>
<path d="M186.53,335.30 C186.53,335.30 186.81,334.47 186.81,334.47 C187.75,334.94 189.61,339.58 190.59,344.34 C191.92,351.34 194.73,365.85 195.75,369.19 C196.94,372.95 197.76,374.25 198.89,375.56 C198.89,375.56 199.72,375.25 199.72,375.25 C199.72,375.25 200.05,373.82 200.05,373.82" fill="none" stroke="rgb(255, 165, 0)" stroke-width="4.99" stroke-opacity="1.00" stroke-linejoin="round"/>
<path d="M179.47,306.67 C179.05,306.64 178.74,306.58 178.52,306.48 C178.31,306.38 177.91,306.10 177.32,305.64 C172.15,315.11 166.10,326.93 165.25,329.66 C164.86,330.95 164.57,332.73 164.54,333.66 C164.54,333.66 165.46,334.22 165.46,334.22 C165.46,334.22 166.86,333.18 166.86,333.18" fill="none" stroke="rgb(255, 165, 0)" stroke-width="4.99" stroke-opacity="1.00" stroke-linejoin="round"/>
<path d="M187.03,307.50 C187.03,307.50 184.31,307.34 184.31,307.34 C184.31,307.34 184.85,306.08 184.85,306.08 C186.46,308.59 187.83,314.99 188.43,317.01 C189.95,322.12 191.22,324.72 191.81,325.56 C191.81,325.56 191.89,324.38 191.89,324.38" fill="none" stroke="rgb(255, 165, 0)" stroke-width="4.99" stroke-opacity="1.00" stroke-linejoin="round"/>
<path d="M177.15,268.34 C176.73,267.85 176.38,267.44 176.08,267.12 C175.79,266.81 175.14,266.13 174.13,265.10 C172.80,267.26 170.33,276.62 169.95,278.40 C169.16,282.27 169.31,287.94 169.69,289.13 C170.02,290.12 170.83,291.03 171.59,291.48 C173.71,291.26 175.60,290.20 177.26,288.14 C180.97,283.47 180.66,278.95 180.20,276.95 C180.20,276.95 178.35,276.72 178.35,276.72 C176.55,278.72 174.69,281.65 173.81,284.55 C172.67,288.58 173.11,290.71 174.17,293.24 C175.99,293.40 177.22,293.01 178.26,291.73 C179.82,289.79 182.72,284.19 183.30,281.37 C183.92,278.14 183.22,276.50 182.50,275.88 C180.88,276.15 177.75,280.37 176.66,283.44 C175.51,286.81 175.26,293.55 176.54,295.25 C177.19,296.03 178.98,296.35 180.00,295.86 C181.05,295.31 183.09,293.06 183.96,291.47 C184.82,289.84 185.95,286.15 186.16,284.28 C186.33,282.42 185.92,279.10 185.35,277.84 C184.74,276.61 182.95,275.24 181.87,275.18 C180.75,275.18 178.40,276.50 177.31,277.75 C176.23,279.05 174.51,282.54 173.96,284.52 C173.46,286.47 173.18,290.29 173.42,291.94 C173.68,293.53 174.87,295.81 175.68,296.25 C176.43,296.60 178.37,296.20 179.13,295.55 C180.80,293.99 183.23,286.91 183.14,282.86 C183.04,280.62 181.47,274.98 179.48,273.64 C178.20,272.82 175.46,272.24 174.16,272.53 C172.88,272.87 170.18,274.72 168.93,276.07 C167.88,277.26 166.50,280.08 166.17,281.70 C165.84,283.55 165.92,286.89 166.36,288.12 C166.85,289.35 168.75,291.19 170.13,291.85 C171.44,292.42 174.02,292.12 175.93,291.32 C177.88,290.43 182.07,286.60 183.07,284.73 C183.98,282.94 185.10,279.60 185.19,278.18 C185.24,276.83 184.43,274.32 183.67,273.32 C182.96,272.48 180.98,271.84 179.69,272.06 C176.67,272.67 172.38,276.19 170.81,278.29 C169.25,280.42 166.87,284.79 166.19,286.83 C165.54,288.85 165.02,293.53 165.21,295.11 C165.48,296.92 166.49,299.01 167.61,299.61 C168.84,300.21 171.71,300.33 173.01,299.75 C175.29,298.70 179.40,294.44 180.33,293.05 C182.27,290.07 183.89,282.09 183.58,279.46 C183.39,278.03 182.00,275.18 181.06,274.09 C180.26,273.21 178.48,272.46 177.45,272.53 C176.20,272.67 174.24,273.74 173.41,274.80 C172.66,275.82 171.79,278.46 171.79,279.76 C171.81,280.95 172.57,283.33 173.14,284.05 C173.74,284.74 175.76,285.65 176.77,285.65 C177.89,285.60 180.39,284.33 181.56,283.22 C183.96,280.84 186.70,273.72 186.47,270.69 C186.33,269.14 185.53,267.86 184.47,267.01 C183.17,266.91 181.84,267.29 180.74,268.33 C179.73,269.32 178.00,272.08 177.40,273.69 C176.82,275.34 176.35,278.81 176.49,280.42 C176.67,282.02 177.78,284.58 178.64,285.34 C179.46,286.00 181.60,286.50 182.51,286.27 C184.41,285.70 188.39,281.30 189.09,278.72 C189.46,277.22 189.64,274.44 189.39,273.35 C189.12,272.26 187.80,270.34 186.86,269.59 C186.00,268.95 184.08,268.61 182.97,268.91 C181.68,269.31 179.23,270.83 178.28,271.85 C176.40,273.96 174.07,280.44 174.45,283.13 C174.70,284.65 175.69,287.05 176.38,287.75 C177.10,288.42 179.04,288.88 180.14,288.66 C181.10,288.44 182.83,287.09 183.65,285.95 C184.61,284.53 185.79,281.62 186.07,279.85 C186.56,276.35 184.74,270.61 183.29,269.54 C182.65,269.11 181.12,269.16 180.30,269.57 C179.57,269.97 178.88,270.92 178.14,272.43 C176.78,275.42 177.43,279.02 178.10,279.73 C179.95,279.84 181.06,279.58 181.98,278.65 C182.88,277.71 183.97,276.19 184.62,274.96 C185.26,273.72 185.43,272.30 185.35,270.04 C185.35,270.04 183.24,269.51 183.24,269.51 C180.46,271.53 177.51,274.58 177.70,276.29 C179.50,276.41 182.24,274.27 184.65,271.76" fill="none" stroke="rgb(255, 165, 0)" stroke-width="4.99" stroke-opacity="1.00" stroke-linejoin="round"/>
<path d="M157.32,48.27 C157.35,47.31 157.39,46.35 157.42,45.39 C157.43,45.03 157.45,44.74 157.48,44.54 C157.49,44.61 157.25,53.01 157.46,76.26 C157.55,85.71 157.67,102.34 157.69,109.52 C157.58,118.84 156.43,131.88 155.81,138.89 C154.87,150.60 155.18,181.93 155.13,197.91 C154.73,212.99 153.15,245.12 153.47,258.39 C153.48,258.99 160.19,336.11 161.14,351.34 C161.52,361.51 161.49,373.44 162.00,380.79 C162.81,390.22 166.37,422.13 167.55,441.84 C168.17,450.16 169.51,467.62 170.32,472.62 C172.66,486.43 177.27,515.82 178.74,530.82 C179.50,539.54 179.40,547.38 178.72,548.56 C178.72,548.56 177.04,542.85 177.04,542.85" fill="none" stroke="rgb(33, 228, 63)" stroke-width="4.99" stroke-opacity="1.00" stroke-linejoin="round"/>
<path d="M168.91,543.74 C170.03,542.34 172.85,540.25 173.32,539.82 C173.62,539.55 174.21,538.96 175.08,538.05 C174.47,539.50 171.08,546.11 169.86,549.09 C167.70,554.39 162.92,568.94 160.52,577.53 C158.60,585.03 155.55,598.88 154.27,605.60 C153.08,612.64 150.88,627.08 149.77,634.13 C148.31,642.37 145.13,655.35 143.25,661.01 C141.61,665.96 134.79,700.68 132.56,716.73 C130.46,732.02 127.17,746.87 125.29,753.13 C125.29,753.13 129.87,742.32 129.87,742.32" fill="none" stroke="rgb(33, 228, 63)" stroke-width="4.99" stroke-opacity="1.00" stroke-linejoin="round"/>
<path d="M43.16,52.57 C42.79,52.17 42.54,51.81 42.42,51.49 C42.23,51.00 41.16,45.64 40.96,45.32 C40.54,49.77 40.66,64.66 40.76,72.76 C41.15,84.35 42.42,95.13 44.29,98.75 C44.29,98.75 46.28,95.19 46.28,95.19" fill="none" stroke="rgb(33, 228, 63)" stroke-width="4.99" stroke-opacity="1.00" stroke-linejoin="round"/>
<path d="M39.18,51.90 C39.18,51.90 34.55,52.18 34.55,52.18 C39.19,49.25 53.97,42.13 60.53,39.18 C69.71,35.24 81.93,30.58 85.97,29.54 C92.47,27.94 94.34,28.40 95.36,29.24 C95.36,29.24 96.87,70.65 96.87,70.65 C96.87,70.65 96.45,69.75 96.45,69.75" fill="none" stroke="rgb(33, 228, 63)" stroke-width="4.99" stroke-opacity="1.00" stroke-linejoin="round"/>
<path d="M33.04,96.05 C33.04,96.05 30.66,95.95 30.66,95.95 C35.86,92.43 61.88,80.25 80.58,72.72 C84.70,71.13 95.13,67.16 95.27,67.10 C98.45,65.83 102.10,65.65 101.95,65.92 C101.95,65.92 101.98,66.07 101.98,66.07" fill="none" stroke="rgb(33, 228, 63)" stroke-width="4.99" stroke-opacity="1.00" stroke-linejoin="round"/>
<path d="M23.00,147.17 C23.00,147.17 22.90,145.85 22.90,145.85 C23.04,145.72 27.07,176.81 28.31,181.32 C29.64,185.91 30.59,187.56 32.04,189.47 C32.04,189.47 33.34,189.33 33.34,189.33 C33.34,189.33 34.10,187.42 34.10,187.42" fill="none" stroke="rgb(33, 228, 63)" stroke-width="4.99" stroke-opacity="1.00" stroke-linejoin="round"/>
<path d="M29.39,147.75 C29.39,147.75 24.58,147.53 24.58,147.53 C24.82,146.34 38.67,137.91 47.71,133.21 C58.71,127.70 68.29,123.78 74.89,122.28 C78.40,121.49 84.24,121.09 86.32,121.38 C88.02,121.64 90.58,122.47 91.14,123.07 C92.00,124.04 91.96,128.32 91.33,134.06 C90.27,142.67 87.96,161.17 87.31,161.49 C87.31,161.49 84.27,159.71 84.27,159.71" fill="none" stroke="rgb(33, 228, 63)" stroke-width="4.99" stroke-opacity="1.00" stroke-linejoin="round"/>
<path d="M18.35,189.32 C18.35,189.32 17.93,188.90 17.93,188.90 C18.70,187.12 22.55,185.12 26.83,183.40 C31.55,181.52 71.60,162.53 88.57,154.44 C99.32,149.33 101.66,148.35 102.42,148.76 C102.42,148.76 102.64,149.40 102.64,149.40" fill="none" stroke="rgb(33, 228, 63)" stroke-width="4.99" stroke-opacity="1.00" stroke-linejoin="round"/>
<path d="M23.24,239.77 C23.24,239.77 20.35,234.95 20.35,234.95 C20.74,238.92 24.88,256.10 27.50,265.13 C30.25,274.10 31.72,275.90 32.85,276.96 C32.85,276.96 33.41,273.14 33.41,273.14" fill="none" stroke="rgb(33, 228, 63)" stroke-width="4.99" stroke-opacity="1.00" stroke-linejoin="round"/>
<path d="M20.59,235.96 C20.59,235.96 18.06,235.79 18.06,235.79 C21.33,234.77 54.83,219.27 56.74,218.52 C60.69,217.00 66.02,216.24 67.25,217.12 C67.39,217.56 67.84,232.31 68.60,242.53 C70.85,269.18 70.95,272.38 70.97,273.63 C70.97,273.63 70.63,270.38 70.63,270.38" fill="none" stroke="rgb(33, 228, 63)" stroke-width="4.99" stroke-opacity="1.00" stroke-linejoin="round"/>
<path d="M15.61,292.30 C15.61,292.30 15.47,292.90 15.47,292.90 C19.39,292.47 30.66,288.64 37.99,285.00 C43.65,282.17 74.03,265.37 76.34,264.46 C76.73,264.34 77.12,264.21 77.50,264.08 C77.60,264.05 77.69,263.99 77.78,263.90" fill="none" stroke="rgb(33, 228, 63)" stroke-width="4.99" stroke-opacity="1.00" stroke-linejoin="round"/>
<path d="M101.83,210.23 C101.83,210.23 100.92,209.07 100.92,209.07 C101.16,212.76 104.02,231.66 105.41,239.12 C105.79,241.14 106.13,242.54 106.89,245.27 C106.79,244.59 106.72,244.12 106.67,243.86 C106.63,243.59 106.53,243.16 106.40,242.55" fill="none" stroke="rgb(33, 228, 63)" stroke-width="4.99" stroke-opacity="1.00" stroke-linejoin="round"/>
<path d="M98.93,208.57 C98.93,208.57 97.87,208.48 97.87,208.48 C98.26,206.74 98.85,205.82 100.46,204.85 C106.88,201.01 121.60,192.30 124.16,191.38 C125.34,191.01 128.15,190.16 128.90,190.21 C131.03,190.40 133.30,192.15 134.73,194.55 C136.03,196.85 140.10,212.65 141.46,220.38 C142.31,225.36 142.13,227.28 141.59,228.42 C140.14,227.48 139.28,226.90 138.99,226.68 C138.70,226.45 138.60,226.26 138.67,226.11" fill="none" stroke="rgb(33, 228, 63)" stroke-width="4.99" stroke-opacity="1.00" stroke-linejoin="round"/>
<path d="M100.75,256.21 C100.75,256.21 98.67,256.62 98.67,256.62 C101.96,252.74 107.75,248.88 117.71,242.95 C125.34,238.46 137.86,231.14 142.74,228.32 C142.74,228.32 142.74,230.16 142.74,230.16" fill="none" stroke="rgb(33, 228, 63)" stroke-width="4.99" stroke-opacity="1.00" stroke-linejoin="round"/>
<path d="M5.07,373.13 C4.84,372.88 4.67,372.62 4.54,372.35 C4.41,372.07 4.16,371.41 3.78,370.34 C4.61,372.86 9.62,392.82 10.59,396.00 C13.41,405.08 15.91,407.56 16.69,407.67 C16.69,407.67 18.59,404.16 18.59,404.16" fill="none" stroke="rgb(33, 228, 63)" stroke-width="4.99" stroke-opacity="1.00" stroke-linejoin="round"/>
<path d="M8.22,377.69 C8.22,377.69 3.88,379.66 3.88,379.66 C9.37,374.30 16.96,368.02 23.58,363.50 C33.77,356.57 47.89,350.41 49.40,350.27 C50.35,350.21 51.79,350.82 52.31,351.55 C53.80,353.82 56.32,371.19 57.48,379.21 C59.32,392.36 59.75,396.98 59.12,396.94 C59.12,396.94 58.59,395.79 58.59,395.79" fill="none" stroke="rgb(33, 228, 63)" stroke-width="4.99" stroke-opacity="1.00" stroke-linejoin="round"/>
<path d="M12.46,420.59 C12.46,420.59 9.60,419.29 9.60,419.29 C10.72,418.25 26.32,413.32 32.36,410.69 C45.34,404.96 64.97,392.55 66.00,392.68 C66.00,392.68 66.63,393.09 66.63,393.09" fill="none" stroke="rgb(33, 228, 63)" stroke-width="4.99" stroke-opacity="1.00" stroke-linejoin="round"/>
<path d="M94.28,322.18 C94.28,322.18 92.26,323.40 92.26,323.40 C91.76,330.10 95.88,346.93 99.05,357.23 C100.70,362.34 103.86,370.63 103.71,371.70 C103.71,371.70 102.65,371.64 102.65,371.64 C102.61,371.54 102.59,371.27 102.59,370.80 C102.59,370.34 102.61,369.06 102.64,366.94" fill="none" stroke="rgb(33, 228, 63)" stroke-width="4.99" stroke-opacity="1.00" stroke-linejoin="round"/>
<path d="M88.14,325.41 C88.14,325.41 88.03,325.12 88.03,325.12 C89.06,324.10 104.33,314.16 109.84,310.88 C113.32,308.85 130.44,299.64 133.74,298.98 C135.56,298.68 138.18,299.27 138.76,300.51 C139.54,302.29 139.80,322.53 139.90,330.96 C140.06,337.97 140.29,346.52 139.92,350.81 C139.92,350.81 138.59,349.24 138.59,349.24" fill="none" stroke="rgb(33, 228, 63)" stroke-width="4.99" stroke-opacity="1.00" stroke-linejoin="round"/>
<path d="M94.86,376.61 C94.86,376.61 93.63,376.73 93.63,376.73 C98.94,373.71 111.66,366.55 118.87,362.73 C126.89,358.72 144.92,350.42 145.73,350.32 C146.11,350.28 146.56,350.43 147.09,350.78 C147.09,350.78 147.25,352.00 147.25,352.00" fill="none" stroke="rgb(33, 228, 63)" stroke-width="4.99" stroke-opacity="1.00" stroke-linejoin="round"/>
<path d="M5.24,496.02 C5.24,496.02 4.28,495.77 4.28,495.77 C4.28,495.77 3.92,496.20 3.92,496.20 C4.16,498.31 8.12,516.38 9.89,524.35 C11.89,532.92 15.58,544.48 18.01,549.04 C18.83,550.55 19.85,551.50 21.50,552.56 C21.50,552.56 22.70,551.97 22.70,551.97 C22.70,551.97 23.00,551.34 23.00,551.34" fill="none" stroke="rgb(33, 228, 63)" stroke-width="4.99" stroke-opacity="1.00" stroke-linejoin="round"/>
<path d="M5.40,496.27 C5.40,496.27 3.93,496.15 3.93,496.15 C6.19,493.69 16.54,487.37 26.11,482.22 C29.89,480.26 37.23,476.63 40.76,475.11 C43.72,473.85 50.61,471.49 54.26,471.32 C55.57,471.28 57.91,471.78 58.57,472.25 C60.10,473.45 61.55,478.36 62.67,483.59 C67.70,508.58 69.32,514.50 69.36,517.40 C69.36,517.40 68.01,518.09 68.01,518.09" fill="none" stroke="rgb(33, 228, 63)" stroke-width="4.99" stroke-opacity="1.00" stroke-linejoin="round"/>
<path d="M16.69,553.78 C16.69,553.78 13.37,552.73 13.37,552.73 C14.72,549.95 44.65,531.21 56.86,523.38 C61.05,520.74 66.25,517.57 67.81,517.18 C67.81,517.18 68.07,517.72 68.07,517.72 C68.07,517.72 67.93,518.34 67.93,518.34" fill="none" stroke="rgb(33, 228, 63)" stroke-width="4.99" stroke-opacity="1.00" stroke-linejoin="round"/>
<path d="M118.86,426.30 C118.64,425.97 118.42,425.65 118.20,425.33 C118.06,425.11 117.92,424.89 117.77,424.68 C117.35,427.83 117.95,467.73 118.33,482.79 C118.93,498.53 120.33,530.39 121.14,546.51 C121.57,553.37 122.26,563.80 123.69,573.64 C125.04,582.24 128.45,603.63 128.51,604.15 C128.82,606.97 130.53,628.63 131.50,635.90 C131.89,638.79 133.39,647.92 134.01,651.54 C134.66,655.27 136.06,661.02 137.94,664.56 C137.94,664.56 138.19,660.20 138.19,660.20" fill="none" stroke="rgb(33, 228, 63)" stroke-width="4.99" stroke-opacity="1.00" stroke-linejoin="round"/>
<path d="M117.87,430.78 C117.87,430.78 117.04,430.27 117.04,430.27 C115.95,430.23 131.27,418.66 136.55,415.15 C155.62,402.52 159.47,401.45 159.91,401.63 C159.91,401.63 158.74,403.07 158.74,403.07 C158.74,403.07 157.86,402.82 157.86,402.82" fill="none" stroke="rgb(33, 228, 63)" stroke-width="4.99" stroke-opacity="1.00" stroke-linejoin="round"/>
<path d="M118.03,520.73 C117.86,520.20 117.74,519.82 117.66,519.62 C117.60,519.45 117.41,519.03 117.11,518.37 C116.96,518.01 116.80,517.66 116.64,517.30 C116.64,517.30 119.51,512.56 119.51,512.56 C118.03,516.12 114.65,520.66 114.06,523.15 C113.70,524.81 113.92,528.39 114.51,529.73 C115.33,531.42 117.74,533.10 119.40,533.03 C121.84,532.87 125.54,529.66 126.75,527.86 C127.42,526.77 128.39,524.02 128.43,522.61 C128.45,520.63 126.73,518.55 124.82,517.84 C123.58,517.43 117.36,518.20 115.72,518.87 C114.85,519.22 112.87,520.31 112.97,520.17 C112.97,520.17 113.30,519.59 113.30,519.59" fill="none" stroke="rgb(33, 228, 63)" stroke-width="4.99" stroke-opacity="1.00" stroke-linejoin="round"/>
<path d="M302.03,279.56 C302.03,279.56 300.54,279.33 300.54,279.33 C300.32,278.88 299.49,278.20 297.79,277.16 C296.45,276.37 294.39,275.61 293.23,275.56 C291.17,275.54 285.63,278.90 283.00,280.52 C279.83,282.48 275.18,285.21 273.19,286.24 C270.62,287.55 263.45,290.37 262.48,290.81 C259.90,292.02 255.45,295.32 253.79,296.86 C250.39,300.06 244.64,309.00 238.61,320.20 C232.79,331.08 227.92,338.70 226.05,342.18 C222.75,348.44 220.31,357.74 219.88,359.41 C219.88,359.41 223.36,358.06 223.36,358.06" fill="none" stroke="rgb(255, 0, 0)" stroke-width="4.99" stroke-opacity="1.00" stroke-linejoin="round"/>
<path d="M305.68,274.00 C304.82,274.19 304.17,274.34 303.72,274.46 C303.28,274.58 302.41,274.82 301.12,275.19 C301.30,274.94 302.46,274.18 303.12,274.03 C303.83,273.88 307.58,276.56 309.86,277.56 C314.55,279.63 331.74,288.32 339.61,292.34 C341.74,293.43 347.26,296.31 350.53,299.43 C356.53,305.24 363.82,312.17 370.34,320.51 C372.81,323.62 385.75,338.57 387.66,342.13 C389.63,345.89 390.89,353.20 391.11,353.50 C391.11,353.50 393.39,351.15 393.39,351.15" fill="none" stroke="rgb(255, 0, 0)" stroke-width="4.99" stroke-opacity="1.00" stroke-linejoin="round"/>
<path d="M220.04,363.29 C220.04,363.29 217.82,362.06 217.82,362.06 C217.82,362.06 217.75,361.03 217.75,361.03 C220.59,359.81 226.14,359.56 229.24,359.41 C233.43,359.16 253.86,352.98 258.67,352.59 C265.06,352.03 299.05,349.83 313.10,348.91 C324.49,348.05 355.64,350.62 369.48,350.56 C378.83,350.58 384.14,350.75 393.96,352.14 C394.52,352.22 395.82,352.50 397.86,352.99 C397.86,352.99 397.98,353.37 397.98,353.37" fill="none" stroke="rgb(255, 0, 0)" stroke-width="4.99" stroke-opacity="1.00" stroke-linejoin="round"/>
<path d="M324.43,357.89 C324.49,357.25 324.49,356.78 324.42,356.48 C324.36,356.18 324.15,355.65 323.79,354.87 C323.79,354.87 324.80,353.68 324.80,353.68 C325.74,355.25 326.08,356.40 326.02,358.47 C325.77,373.57 325.16,403.00 324.80,417.33 C324.80,421.71 325.52,439.81 324.96,445.38 C324.88,446.09 324.62,447.77 324.67,447.77 C325.60,446.66 330.85,442.81 330.87,442.79 C330.92,442.68 331.97,422.55 332.46,415.20 C333.04,405.25 332.37,388.77 332.23,384.91 C332.10,381.19 332.01,365.51 331.09,357.58 C330.90,355.59 330.53,349.69 330.46,348.55 C330.46,348.55 330.15,351.19 330.15,351.19" fill="none" stroke="rgb(255, 0, 0)" stroke-width="4.99" stroke-opacity="1.00" stroke-linejoin="round"/>
<path d="M252.73,310.51 C252.72,309.97 252.74,309.56 252.78,309.29 C252.82,309.03 252.96,308.45 253.20,307.55 C253.27,307.31 253.33,307.07 253.39,306.84 C253.39,306.84 227.14,344.12 227.14,344.12 C228.80,340.67 236.47,329.75 243.12,320.98 C247.89,314.86 256.56,303.79 256.02,303.15 C252.64,305.59 244.77,314.68 238.07,323.61 C226.62,339.53 225.05,346.00 225.04,346.90 C226.43,346.90 227.37,346.56 228.48,345.42 C232.21,341.59 264.92,298.19 268.43,293.83 C268.80,293.70 243.43,325.68 233.79,337.76 C230.52,342.00 227.20,346.81 225.83,349.36 C228.21,348.58 231.23,346.64 234.12,343.74 C268.11,307.79 279.70,294.03 282.02,291.22 C279.00,292.86 267.06,303.46 261.47,308.46 C255.98,313.53 243.88,325.58 241.74,327.90 C235.36,334.86 233.16,339.49 232.65,340.77 C234.19,340.96 235.49,340.55 237.51,338.94 C242.63,334.86 249.86,327.76 256.62,320.66 C264.73,311.83 278.79,295.09 280.98,291.63 C278.04,292.58 270.18,299.56 262.03,307.42 C250.92,318.45 235.12,337.91 232.50,342.36 C230.65,345.58 230.01,347.80 229.63,349.95 C232.14,350.82 233.39,351.00 234.32,350.35 C239.93,346.39 245.99,341.11 253.56,333.78 C257.68,329.64 269.76,316.42 274.77,310.56 C279.59,304.70 291.14,289.55 292.40,287.59 C295.46,282.73 295.68,281.09 295.48,280.21 C293.97,279.57 285.81,285.37 277.21,292.91 C270.26,299.30 261.05,308.63 256.24,313.74 C249.58,321.02 241.27,331.14 236.68,337.58 C231.84,344.45 230.98,348.71 230.86,350.29 C233.21,350.57 234.83,350.20 236.51,348.82 C241.62,344.58 250.45,335.34 256.10,329.10 C267.39,316.26 289.49,290.99 291.37,288.57 C285.56,293.89 255.32,328.62 249.82,335.87 C243.15,344.83 241.75,347.44 241.26,348.72 C245.36,346.54 252.77,339.59 261.23,330.85 C282.31,308.20 304.09,284.76 304.80,283.98 C304.80,283.98 247.63,350.90 247.63,350.90 C247.63,350.90 301.15,295.59 301.15,295.59 C293.52,302.19 286.86,308.44 279.63,315.73 C265.17,330.66 262.89,336.40 262.70,337.63 C265.88,336.68 269.78,334.41 272.97,331.86 C278.11,327.60 311.82,292.97 313.90,290.28 C310.98,292.04 295.90,303.72 290.13,308.51 C284.85,313.15 271.48,325.90 269.13,328.36 C264.73,332.95 256.94,343.18 256.74,345.70 C258.97,346.10 260.70,345.58 263.08,343.64 C267.97,339.64 278.73,328.98 280.62,326.90 C285.08,321.99 310.26,290.16 312.20,287.39 C312.20,287.39 262.87,344.29 262.87,344.29 C263.51,344.52 272.42,337.44 279.89,330.51 C291.30,319.66 310.89,299.98 318.58,292.01 C314.79,295.56 302.41,308.26 298.96,312.15 C283.57,329.58 283.04,334.10 283.34,334.67 C286.75,333.66 298.21,323.16 304.00,317.69 C319.32,302.73 325.04,295.98 326.78,293.81 C324.34,295.16 314.25,305.25 309.60,309.99 C304.08,315.89 294.38,326.86 289.61,332.36 C283.80,339.33 279.96,344.63 277.75,348.35 C276.37,350.67 276.07,351.78 276.44,352.37 C278.23,352.43 281.91,350.05 284.87,347.61 C288.04,344.98 302.24,330.93 307.93,324.80 C319.22,312.03 327.98,299.83 328.65,298.48 C323.94,302.54 315.64,312.81 310.70,319.24 C303.97,328.28 295.51,340.90 293.93,344.08 C293.93,344.08 329.90,298.65 329.90,298.65 C329.90,298.65 304.84,341.59 304.84,341.59 C307.65,339.48 318.18,326.54 323.95,319.41 C332.60,308.60 334.30,306.40 336.62,303.27 C336.19,303.27 324.57,316.56 318.99,322.99 C316.16,326.40 308.28,336.69 306.91,339.91 C310.13,337.90 313.76,334.22 315.93,332.04 C323.05,324.62 343.64,300.51 345.99,298.16 C345.99,298.16 318.30,341.97 318.30,341.97 C318.30,341.97 346.90,307.67 346.90,307.67 C346.95,308.37 338.83,321.68 335.04,327.91 C332.58,332.03 330.32,336.10 328.95,340.54 C332.23,338.22 337.21,332.06 344.48,322.47 C346.52,319.75 351.07,313.57 351.81,312.50 C350.27,314.72 342.64,326.38 338.39,332.94 C334.24,339.66 333.81,342.33 334.03,342.74 C337.67,341.08 353.00,322.83 356.20,318.61 C354.19,321.60 348.46,330.15 347.69,331.40 C345.11,335.68 345.20,336.88 345.63,338.02 C345.63,338.02 363.80,317.35 363.80,317.35 C363.80,317.35 343.97,348.08 343.97,348.08 C346.31,346.99 350.79,342.04 353.41,339.16 C357.09,335.02 363.25,327.52 364.17,326.40 C364.17,326.40 351.53,347.94 351.53,347.94 C353.47,347.27 355.86,345.07 358.32,342.47 C362.89,337.60 368.39,331.68 369.89,330.77 C369.89,330.77 360.54,348.32 360.54,348.32 C361.33,348.52 364.50,345.12 368.24,340.65 C370.69,337.64 376.08,329.90 376.25,329.83 C376.25,329.83 370.06,344.26 370.06,344.26 C371.68,343.88 372.75,343.27 374.23,341.77 C376.55,339.39 379.10,337.09 379.76,336.50 C379.76,336.50 376.45,347.13 376.45,347.13 C376.45,347.13 381.78,343.51 381.78,343.51 C381.78,343.51 376.98,351.46 376.98,351.46 C376.98,351.46 385.26,346.13 385.26,346.13 C385.26,346.13 383.63,347.00 383.63,347.00 C383.36,345.35 384.37,336.62 384.33,334.44 C384.31,333.59 383.59,332.37 383.18,332.13 C382.02,331.57 377.90,332.78 374.52,334.74 C367.58,338.95 353.61,347.56 351.74,348.01 C351.23,348.13 350.07,348.30 348.25,348.50 C347.34,346.83 347.11,345.81 347.46,344.21 C348.52,339.56 355.86,323.27 358.89,316.75 C355.96,321.03 346.73,332.85 341.66,339.32 C335.07,347.60 331.81,351.20 330.82,351.26 C330.82,351.26 347.45,318.49 347.45,318.49 C347.45,318.49 327.43,342.22 327.43,342.22 C327.62,341.44 335.69,329.92 339.23,324.33 C343.02,318.22 347.05,309.70 347.06,307.70 C344.95,307.80 341.75,309.56 338.34,312.74 C327.06,323.47 317.00,335.18 311.15,343.31 C315.97,338.42 321.30,330.87 328.14,319.90 C333.93,310.29 334.53,307.18 334.65,306.01 C332.63,306.32 331.27,306.91 329.50,308.47 C321.48,315.61 299.83,339.21 297.62,342.74 C301.58,339.30 307.78,331.69 315.62,321.47 C320.28,315.25 324.35,308.09 324.48,306.74 C322.47,307.24 317.59,311.87 315.02,314.65 C300.44,330.90 293.71,341.37 291.93,344.83 C297.21,338.49 302.47,331.13 308.37,322.02 C313.91,313.20 314.16,310.99 313.97,310.14 C312.69,309.90 309.69,311.98 305.38,315.54 C299.50,320.53 272.05,347.06 269.44,348.99 C270.58,346.90 285.26,329.44 286.35,328.10 C288.27,325.73 290.10,323.38 290.81,322.37 C285.32,326.07 271.90,342.18 270.90,344.30 C278.59,338.32 295.51,320.51 296.76,317.30 C295.44,317.32 294.34,317.64 292.93,318.68 C288.62,321.85 259.49,347.97 258.64,347.71 C258.64,347.71 280.15,319.49 280.15,319.49 C277.62,320.84 274.29,323.76 270.43,327.84 C259.61,340.05 245.38,356.13 244.33,356.57 C244.33,356.57 261.53,329.88 261.53,329.88 C260.23,329.82 258.32,329.89 257.43,330.16 C256.11,330.57 240.30,345.07 239.17,346.51 C239.10,346.59 239.05,346.68 239.02,346.76 C239.02,346.76 250.82,330.58 250.82,330.58 C248.34,332.80 236.35,348.49 235.11,351.50 C234.99,351.78 234.93,352.20 234.93,352.76 C237.85,350.54 245.36,339.92 246.99,336.64 C244.29,338.05 243.01,338.93 241.28,340.72 C238.10,343.95 227.39,354.76 225.93,355.94 C225.93,355.94 239.43,340.26 239.43,340.26 C238.47,340.20 226.40,352.10 224.61,354.33 C224.36,354.64 224.09,355.04 223.79,355.50 C225.12,354.82 239.35,341.75 241.51,340.05 C242.79,339.05 243.64,338.86 244.71,339.14 C243.76,343.43 237.32,354.47 236.08,356.25 C237.63,354.20 265.92,317.70 267.39,314.49 C267.59,314.03 268.09,312.85 268.87,310.95 C263.33,313.52 260.46,318.05 258.91,320.77 C262.52,318.47 276.07,305.26 278.14,302.97 C280.60,300.22 283.29,296.23 283.47,294.62 C281.61,293.74 280.25,293.55 278.42,294.16 C271.66,296.44 254.65,304.95 253.43,305.56 C253.43,305.56 282.75,283.92 282.75,283.92 C282.75,283.92 265.25,292.55 265.25,292.55 C268.13,291.61 286.86,281.96 290.45,278.85 C290.72,278.61 291.21,278.17 291.93,277.51 C276.42,282.93 267.74,289.78 268.04,289.82 C268.04,289.82 289.55,281.99 289.55,281.99 C289.46,283.52 285.72,287.67 283.52,290.11 C277.62,296.79 277.07,299.63 277.24,300.29 C278.49,300.75 282.29,299.80 285.40,298.27 C299.17,291.38 313.84,278.88 315.72,278.05 C315.75,279.59 312.82,283.48 310.72,285.72 C306.45,290.24 297.01,297.30 293.07,299.18 C294.86,297.35 298.68,293.11 300.37,290.98 C302.22,288.60 303.36,284.35 302.69,282.66 C301.58,281.97 297.52,284.32 295.83,285.65 C295.83,285.65 305.13,280.95 305.13,280.95 C305.13,280.95 298.47,284.17 298.47,284.17 C299.75,285.97 303.16,287.40 307.70,287.87 C309.52,288.05 310.74,288.39 312.55,289.12 C312.44,290.31 312.17,291.00 311.30,291.81 C305.94,296.87 294.65,307.67 291.30,312.16 C287.75,317.06 287.26,319.07 287.34,321.32 C290.45,320.84 292.01,320.43 293.48,319.55 C302.54,314.17 316.26,302.37 317.67,301.28 C316.25,303.62 305.44,316.90 300.54,323.11 C295.80,329.32 289.70,337.66 288.37,341.03 C289.88,340.79 290.92,340.32 292.21,339.09 C296.01,335.46 305.38,324.40 309.53,318.11 C316.62,307.11 317.45,305.34 318.57,302.47 C316.52,304.79 304.86,323.04 302.95,326.48 C301.65,328.84 299.72,333.40 298.82,336.00 C301.05,334.60 305.29,329.96 308.81,325.34 C313.46,318.88 319.50,310.42 320.90,308.42 C320.90,308.42 297.14,337.20 297.14,337.20 C297.14,337.20 297.90,338.89 297.90,338.89 C297.90,338.89 327.74,341.51 327.74,341.51 C327.23,342.46 326.46,343.08 324.33,344.09 C316.44,347.83 308.58,350.39 299.85,352.72 C281.54,357.15 269.46,357.59 267.44,357.17 C270.43,355.48 286.63,350.84 294.56,348.57 C302.67,346.05 320.13,340.02 324.47,337.90 C328.45,335.93 329.52,334.75 329.84,333.77 C327.94,333.11 322.15,334.02 317.78,335.06 C304.65,338.26 299.98,339.20 298.48,338.67 C298.12,337.85 299.35,335.28 301.67,332.74 C302.45,331.89 310.03,324.22 312.66,321.57 C310.70,323.34 305.66,328.68 302.73,331.79 C299.38,335.40 297.07,338.10 295.30,341.55 C297.68,340.69 302.52,336.84 305.38,334.50 C308.34,332.06 311.26,329.00 311.37,327.59 C308.05,329.45 303.18,333.27 300.33,335.51 C297.35,337.90 294.17,341.03 291.96,344.15 C295.41,342.42 300.46,338.17 302.88,335.92 C305.34,333.63 308.60,330.11 310.05,327.48 C308.26,328.08 301.10,334.43 299.81,335.71 C296.91,338.65 295.76,340.88 294.61,343.37 C296.88,343.83 302.13,341.88 306.97,338.87 C312.77,334.95 319.09,330.70 320.98,329.62 C320.59,331.07 315.33,338.38 314.59,339.58 C312.72,342.63 311.65,346.01 312.11,347.47 C314.05,347.75 315.38,347.64 316.95,346.88 C319.78,345.50 325.99,341.26 328.72,338.96 C331.09,336.94 336.35,331.62 338.09,328.60 C334.60,330.83 323.00,344.20 321.54,347.34 C321.32,347.82 320.96,348.82 320.46,350.35 C323.28,349.28 328.37,344.71 330.35,342.77 C340.97,332.29 349.48,319.11 351.32,315.85 C344.60,326.42 335.85,344.93 336.53,345.95 C338.91,344.17 343.28,338.62 345.88,335.33 C351.15,328.34 356.51,320.92 357.21,319.95 C357.21,319.95 348.50,339.84 348.50,339.84 C351.23,336.82 359.69,321.29 359.87,318.46 C359.89,318.02 359.85,316.98 359.76,315.36 C359.76,315.36 357.80,314.55 357.80,314.55 C355.15,315.68 351.63,318.02 348.87,320.81 C346.06,323.72 344.76,325.81 343.81,327.72 C345.48,326.48 349.21,321.52 350.89,318.91 C352.67,316.13 354.98,311.47 355.66,308.17 C353.80,308.21 352.59,308.75 351.16,310.40 C349.76,312.01 348.34,313.71 347.45,314.79 C347.45,314.79 352.44,303.92 352.44,303.92 C350.54,303.91 349.04,304.29 346.75,305.52 C344.47,306.76 343.14,307.82 341.66,309.45 C345.13,308.00 349.49,305.34 350.02,303.17 C350.10,302.83 350.04,302.25 349.83,301.43 C348.32,300.48 347.31,300.20 345.62,300.43 C339.43,301.34 331.03,304.65 329.53,304.55 C329.53,304.55 333.63,296.72 333.63,296.72 C333.63,296.72 322.90,302.54 322.90,302.54 C322.90,302.54 335.36,294.98 335.36,294.98 C335.36,294.98 324.96,297.23 324.96,297.23 C324.96,297.23 335.21,292.37 335.21,292.37 C333.37,291.01 332.19,290.48 330.42,290.37 C326.26,290.09 322.27,289.99 320.24,290.06 C320.24,290.06 326.86,290.13 326.86,290.13 C326.86,290.13 313.86,290.64 313.86,290.64 C313.86,290.64 321.59,288.59 321.59,288.59 C320.74,286.91 319.94,286.21 318.18,285.95 C313.83,285.29 309.60,285.10 306.82,285.36 C306.82,285.36 315.81,286.12 315.81,286.12 C315.54,286.94 310.13,290.52 307.85,292.62 C304.29,295.95 297.72,307.68 295.13,314.63 C293.62,318.74 290.95,326.52 290.83,328.97 C290.79,329.98 291.18,330.93 291.72,331.73 C293.13,332.23 296.13,331.35 298.64,329.88 C301.16,328.36 304.64,325.31 307.69,322.19 C307.69,322.19 286.77,352.60 286.77,352.60 C287.66,350.35 291.69,342.67 291.97,342.08 C293.23,339.46 293.68,337.69 293.51,336.39 C290.76,337.56 288.66,339.42 285.10,342.83 C279.67,348.08 278.61,349.01 277.08,350.21 C277.27,349.39 281.16,344.35 283.30,341.57 C285.87,338.15 286.41,336.88 287.06,334.88 C284.50,335.58 281.05,338.62 277.95,341.82 C274.98,344.90 269.94,350.15 267.14,352.82 C267.14,352.82 272.29,338.02 272.29,338.02 C270.29,338.26 267.62,340.59 265.02,343.27 C260.69,347.78 259.53,348.87 257.32,350.85 C257.32,350.85 263.09,345.04 263.09,345.04 C263.12,344.82 258.91,348.01 255.86,351.20 C253.97,353.20 253.28,354.37 253.22,355.40 C254.23,355.46 255.29,355.01 257.53,353.42 C261.74,350.41 263.17,348.44 263.38,347.45 C261.49,347.08 241.03,355.02 238.35,354.74 C238.35,354.74 237.97,353.90 237.97,353.90 C237.97,353.90 239.48,352.87 239.48,352.87" fill="none" stroke="rgb(255, 0, 0)" stroke-width="4.99" stroke-opacity="1.00" stroke-linejoin="round"/>
<path d="M154.48,22.40 C154.50,22.03 154.49,21.76 154.46,21.59 C154.42,21.42 154.31,21.13 154.12,20.70 C154.12,20.70 153.53,20.49 153.53,20.49 C152.56,20.62 151.14,24.75 149.54,30.95 C147.95,37.49 144.90,54.17 144.62,58.99 C144.12,68.64 145.78,72.09 147.03,73.77 C147.03,73.77 148.93,73.67 148.93,73.67" fill="none" stroke="rgb(0, 0, 255)" stroke-width="4.99" stroke-opacity="1.00" stroke-linejoin="round"/>
<path d="M491.25,37.86 C491.25,37.30 491.25,36.73 491.25,36.17 C491.25,34.87 491.25,33.17 491.24,33.09 C491.10,35.96 490.79,43.06 490.62,47.29 C490.47,52.91 490.44,58.32 490.54,63.72 C490.63,67.74 490.88,72.53 491.00,74.13" fill="none" stroke="rgb(0, 0, 255)" stroke-width="4.99" stroke-opacity="1.00" stroke-linejoin="round"/>
<path d="M469.55,65.95 C469.05,72.71 468.01,87.57 467.48,95.68 C466.82,108.62 468.45,134.82 469.67,137.87" fill="none" stroke="rgb(0, 0, 255)" stroke-width="4.99" stroke-opacity="1.00" stroke-linejoin="round"/>
<path d="M522.65,113.28 C522.65,113.28 521.72,112.56 521.72,112.56 C520.64,114.81 519.87,119.71 519.39,122.70 C517.93,130.77 515.92,141.77 515.37,144.71" fill="none" stroke="rgb(0, 0, 255)" stroke-width="4.99" stroke-opacity="1.00" stroke-linejoin="round"/>
<path d="M500.56,145.53 C500.56,145.53 500.63,144.87 500.63,144.87 C501.01,147.11 497.48,162.07 495.47,169.88 C494.54,173.29 493.34,177.72 493.06,178.74" fill="none" stroke="rgb(0, 0, 255)" stroke-width="4.99" stroke-opacity="1.00" stroke-linejoin="round"/>
<path d="M482.63,204.86 C482.63,204.86 482.04,204.95 482.04,204.95 C481.70,206.05 483.84,224.50 484.59,228.57 C486.36,237.98 489.23,245.40 490.46,247.38" fill="none" stroke="rgb(0, 0, 255)" stroke-width="4.99" stroke-opacity="1.00" stroke-linejoin="round"/>
<path d="M527.42,210.86 C526.81,212.81 525.26,217.81 524.33,220.85 C521.12,231.64 520.70,233.39 520.34,235.24" fill="none" stroke="rgb(0, 0, 255)" stroke-width="4.99" stroke-opacity="1.00" stroke-linejoin="round"/>
<path d="M496.64,255.11 C496.32,259.06 495.66,267.48 495.63,271.18 C495.64,272.53 495.63,274.77 495.53,276.14 C495.45,277.28 495.19,278.64 494.71,280.78" fill="none" stroke="rgb(0, 0, 255)" stroke-width="4.99" stroke-opacity="1.00" stroke-linejoin="round"/>
<path d="M490.56,290.36 C490.56,290.36 490.02,290.65 490.02,290.65 C489.74,291.20 482.04,334.24 479.04,351.21 C478.38,355.34 478.30,355.68 478.22,355.62 C478.14,355.42 478.09,355.29 478.08,355.23 C478.06,355.17 478.05,355.10 478.04,355.02" fill="none" stroke="rgb(0, 0, 255)" stroke-width="4.99" stroke-opacity="1.00" stroke-linejoin="round"/>
<path d="M500.95,330.30 C499.45,334.17 497.31,347.65 496.15,355.16 C494.39,366.51 493.41,368.90 492.69,369.61 C492.69,369.61 492.01,369.41 492.01,369.41 C492.01,369.41 491.52,367.99 491.52,367.99" fill="none" stroke="rgb(0, 0, 255)" stroke-width="4.99" stroke-opacity="1.00" stroke-linejoin="round"/>
<path d="M484.25,364.93 C484.25,364.93 484.31,364.08 484.31,364.08 C484.31,364.08 485.04,364.05 485.04,364.05 C485.90,368.09 484.70,382.94 484.05,390.82 C483.72,394.87 482.95,404.56 482.92,405.07 C482.74,408.25 482.63,411.55 482.64,413.03 C482.64,413.03 482.67,412.67 482.67,412.67" fill="none" stroke="rgb(0, 0, 255)" stroke-width="4.99" stroke-opacity="1.00" stroke-linejoin="round"/>
<path d="M507.80,496.76 C507.80,496.76 507.28,492.47 507.28,492.47 C506.39,493.94 502.53,510.74 501.09,517.42 C500.32,521.23 499.33,526.23 499.11,527.43" fill="none" stroke="rgb(0, 0, 255)" stroke-width="4.99" stroke-opacity="1.00" stroke-linejoin="round"/>
<path d="M481.94,536.24 C480.54,537.13 477.83,538.74 477.52,539.09 C476.71,540.03 476.95,547.26 477.13,548.60 C477.99,554.85 480.05,561.12 480.46,562.01" fill="none" stroke="rgb(0, 0, 255)" stroke-width="4.99" stroke-opacity="1.00" stroke-linejoin="round"/>
<path d="M221.89,35.55 C222.16,34.20 222.45,33.08 222.90,31.82 C223.71,29.54 225.32,26.11 225.75,25.21 C226.00,26.47 225.12,32.77 224.62,36.52 C224.13,40.46 223.51,47.70 223.18,52.99 C222.98,56.68 223.21,60.03 223.37,61.10" fill="none" stroke="rgb(0, 0, 255)" stroke-width="4.99" stroke-opacity="1.00" stroke-linejoin="round"/>
<path d="M201.42,85.11 C201.43,84.44 201.45,83.96 201.48,83.68 C201.50,83.39 201.57,82.89 201.68,82.17 C202.16,83.44 203.28,87.84 204.00,90.61 C208.99,109.22 213.01,117.40 213.52,118.36" fill="none" stroke="rgb(0, 0, 255)" stroke-width="4.99" stroke-opacity="1.00" stroke-linejoin="round"/>
<path d="M240.44,109.05 C240.44,109.05 240.20,109.17 240.20,109.17 C239.85,116.00 239.06,134.64 239.63,138.40 C239.98,140.60 241.11,142.70 241.61,143.10" fill="none" stroke="rgb(0, 0, 255)" stroke-width="4.99" stroke-opacity="1.00" stroke-linejoin="round"/>
<path d="M323.25,46.40 C323.25,46.40 323.09,46.46 323.09,46.46 C323.23,48.57 323.33,54.02 323.35,59.31 C323.35,66.74 323.36,76.63 323.37,79.08" fill="none" stroke="rgb(0, 0, 255)" stroke-width="4.99" stroke-opacity="1.00" stroke-linejoin="round"/>
<path d="M313.32,94.81 C313.32,94.81 313.86,93.22 313.86,93.22 C315.43,94.61 318.45,99.33 320.18,102.03 C321.31,103.75 323.18,106.60 323.92,107.72" fill="none" stroke="rgb(0, 0, 255)" stroke-width="4.99" stroke-opacity="1.00" stroke-linejoin="round"/>
<path d="M341.18,90.12 C341.18,90.12 340.80,90.11 340.80,90.11 C340.47,91.22 340.47,106.10 340.52,110.05 C340.55,112.23 340.66,113.79 340.93,116.38" fill="none" stroke="rgb(0, 0, 255)" stroke-width="4.99" stroke-opacity="1.00" stroke-linejoin="round"/>
<path d="M369.58,55.25 C369.58,55.25 367.59,55.06 367.59,55.06 C366.77,57.78 365.30,76.25 364.73,84.31 C364.32,92.33 366.54,110.52 367.08,112.85 C367.30,113.84 367.77,114.76 368.67,116.25" fill="none" stroke="rgb(0, 0, 255)" stroke-width="4.99" stroke-opacity="1.00" stroke-linejoin="round"/>
<path d="M405.36,48.79 C405.36,48.79 404.28,47.53 404.28,47.53 C403.29,50.01 401.11,79.85 400.54,87.79 C400.01,95.71 399.42,104.45 399.37,105.28" fill="none" stroke="rgb(0, 0, 255)" stroke-width="4.99" stroke-opacity="1.00" stroke-linejoin="round"/>
<path d="M358.88,145.30 C358.88,145.30 357.22,144.58 357.22,144.58 C355.57,147.64 352.02,164.77 351.55,167.99 C351.00,171.79 350.90,176.99 351.57,180.03 C351.57,180.03 352.37,178.95 352.37,178.95" fill="none" stroke="rgb(0, 0, 255)" stroke-width="4.99" stroke-opacity="1.00" stroke-linejoin="round"/>
<path d="M318.55,134.75 C318.55,134.75 316.00,132.93 316.00,132.93 C314.72,133.19 313.92,137.94 313.40,144.19 C312.74,153.89 313.24,163.97 313.89,168.26" fill="none" stroke="rgb(0, 0, 255)" stroke-width="4.99" stroke-opacity="1.00" stroke-linejoin="round"/>
<path d="M324.25,210.71 C324.25,210.71 325.87,202.70 325.87,202.70 C326.13,204.07 324.29,220.32 323.36,228.50 C322.96,232.06 322.25,238.23 322.16,241.17 C322.26,240.94 322.32,240.74 322.33,240.57 C322.34,240.07 322.11,239.06 321.92,238.58" fill="none" stroke="rgb(0, 0, 255)" stroke-width="4.99" stroke-opacity="1.00" stroke-linejoin="round"/>
<path d="M281.38,203.78 C281.38,203.78 279.85,203.33 279.85,203.33 C278.54,204.63 277.71,208.62 276.81,214.74 C275.10,227.04 274.37,236.97 275.30,243.92 C275.73,247.03 276.36,248.33 276.80,248.77 C276.80,248.77 278.55,245.56 278.55,245.56" fill="none" stroke="rgb(0, 0, 255)" stroke-width="4.99" stroke-opacity="1.00" stroke-linejoin="round"/>
<path d="M249.36,205.25 C249.36,205.25 248.84,204.41 248.84,204.41 C248.78,206.53 248.24,211.04 247.25,217.20 C245.99,224.54 245.02,229.61 244.91,230.09 C245.06,229.54 245.21,229.00 245.36,228.45 C245.44,228.18 245.55,227.79 245.70,227.29" fill="none" stroke="rgb(0, 0, 255)" stroke-width="4.99" stroke-opacity="1.00" stroke-linejoin="round"/>
<path d="M285.38,135.52 C285.38,135.52 284.54,134.53 284.54,134.53 C284.29,134.48 283.33,140.30 282.88,143.16 C282.42,146.45 282.23,151.41 282.22,153.28" fill="none" stroke="rgb(0, 0, 255)" stroke-width="4.99" stroke-opacity="1.00" stroke-linejoin="round"/>
<path d="M320.94,41.71 C320.94,41.71 320.55,40.96 320.55,40.96 C320.60,44.24 320.51,49.04 320.46,52.15 C320.52,59.52 320.79,69.94 320.86,72.61" fill="none" stroke="rgb(0, 0, 255)" stroke-width="4.99" stroke-opacity="1.00" stroke-linejoin="round"/>
<path d="M197.49,139.75 C197.06,139.93 196.63,140.10 196.20,140.27 C195.68,140.49 195.15,140.71 194.63,140.93 C194.63,140.93 194.18,139.81 194.18,139.81 C195.13,140.45 195.22,144.14 195.18,148.49 C194.84,170.69 196.69,178.85 197.53,180.67 C197.53,180.67 198.98,180.59 198.98,180.59" fill="none" stroke="rgb(0, 0, 255)" stroke-width="4.99" stroke-opacity="1.00" stroke-linejoin="round"/>
<path d="M176.71,198.63 C176.71,198.63 175.33,199.32 175.33,199.32 C174.89,201.87 176.05,208.77 176.34,211.84 C176.63,214.90 176.79,223.49 176.72,227.66 C176.70,228.62 176.67,229.58 176.65,230.55" fill="none" stroke="rgb(0, 0, 255)" stroke-width="4.99" stroke-opacity="1.00" stroke-linejoin="round"/>
<path d="M195.72,199.09 C195.72,199.09 194.97,197.38 194.97,197.38 C196.04,199.10 196.42,200.09 196.27,201.52 C195.66,208.47 194.35,224.82 194.36,229.66 C194.37,231.27 194.56,232.62 195.07,235.17 C195.07,235.17 195.43,235.28 195.43,235.28 C195.43,235.28 195.84,233.52 195.84,233.52" fill="none" stroke="rgb(0, 0, 255)" stroke-width="4.99" stroke-opacity="1.00" stroke-linejoin="round"/>
<path d="M175.79,238.34 C175.79,238.34 174.93,237.32 174.93,237.32 C174.40,239.42 174.33,244.72 174.30,248.06 C174.33,253.74 174.43,258.07 174.62,261.88" fill="none" stroke="rgb(0, 0, 255)" stroke-width="4.99" stroke-opacity="1.00" stroke-linejoin="round"/>
<path d="M126.07,107.43 C126.07,107.43 125.58,107.22 125.58,107.22 C125.25,108.82 124.16,116.31 123.53,120.66 C122.97,124.55 122.28,129.31 122.16,130.18" fill="none" stroke="rgb(0, 0, 255)" stroke-width="4.99" stroke-opacity="1.00" stroke-linejoin="round"/>
<path d="M107.60,120.44 C107.60,120.44 107.91,119.92 107.91,119.92 C107.91,119.91 107.57,121.68 107.67,132.16 C107.75,137.64 107.97,144.09 108.36,147.66 C108.84,151.88 109.28,153.75 109.56,154.37" fill="none" stroke="rgb(0, 0, 255)" stroke-width="4.99" stroke-opacity="1.00" stroke-linejoin="round"/>
<path d="M13.17,303.14 C13.17,303.14 12.97,302.84 12.97,302.84 C12.97,302.84 12.64,302.73 12.64,302.73 C12.39,304.56 11.95,307.89 11.89,308.90 C11.53,314.48 12.39,323.95 12.80,326.46" fill="none" stroke="rgb(0, 0, 255)" stroke-width="4.99" stroke-opacity="1.00" stroke-linejoin="round"/>
<path d="M17.71,448.67 C17.71,448.22 17.70,447.84 17.68,447.54 C17.46,444.72 17.05,442.33 16.89,441.88 C16.88,444.65 19.53,458.91 21.97,466.41 C22.68,468.60 23.14,469.71 23.94,471.25 C23.94,471.25 24.39,471.47 24.39,471.47 C24.39,471.47 24.41,470.74 24.41,470.74" fill="none" stroke="rgb(0, 0, 255)" stroke-width="4.99" stroke-opacity="1.00" stroke-linejoin="round"/>
<path d="M86.59,497.76 C86.59,497.76 85.84,497.50 85.84,497.50 C85.57,498.88 85.47,505.28 85.35,507.44 C84.88,516.04 83.86,521.80 83.75,521.86" fill="none" stroke="rgb(0, 0, 255)" stroke-width="4.99" stroke-opacity="1.00" stroke-linejoin="round"/>
<path d="M67.12,533.55 C68.53,538.09 70.92,560.70 71.22,562.98 C71.57,565.61 71.86,567.19 71.93,566.97 C71.93,566.97 71.76,565.66 71.76,565.66" fill="none" stroke="rgb(0, 0, 255)" stroke-width="4.99" stroke-opacity="1.00" stroke-linejoin="round"/>
<path d="M45.42,575.26 C44.47,575.94 43.22,577.20 42.91,578.25 C42.41,579.97 43.62,600.63 44.05,608.49 C44.43,615.68 44.86,624.26 44.93,625.64 C44.93,625.64 44.90,623.87 44.90,623.87" fill="none" stroke="rgb(0, 0, 255)" stroke-width="4.99" stroke-opacity="1.00" stroke-linejoin="round"/>
<path d="M15.40,627.29 C14.53,624.95 15.50,621.91 16.56,620.77 C17.85,621.26 18.60,621.86 19.24,623.12 C21.11,626.88 28.50,656.14 29.52,658.76 C29.52,658.76 29.99,659.00 29.99,659.00 C29.99,659.00 29.92,656.96 29.92,656.96" fill="none" stroke="rgb(0, 0, 255)" stroke-width="4.99" stroke-opacity="1.00" stroke-linejoin="round"/>
<path d="M65.58,652.91 C65.58,652.91 65.45,653.27 65.45,653.27 C65.45,653.27 65.20,653.31 65.20,653.31 C65.20,653.31 65.20,652.74 65.20,652.74 C66.06,653.01 67.36,656.74 68.75,662.94 C69.22,665.13 69.79,668.52 70.04,670.61 C70.24,672.29 70.27,673.69 70.20,674.53 C70.04,673.77 69.94,673.25 69.90,672.98 C69.86,672.70 69.81,672.29 69.77,671.73" fill="none" stroke="rgb(0, 0, 255)" stroke-width="4.99" stroke-opacity="1.00" stroke-linejoin="round"/>
<path d="M92.44,607.58 C91.11,607.94 90.32,608.45 89.92,609.38 C89.42,610.59 89.56,614.59 90.18,619.78 C90.89,625.10 91.72,630.03 91.74,630.42 C91.75,630.77 91.75,631.68 91.74,633.16 C91.67,632.94 91.63,632.77 91.60,632.65 C91.58,632.53 91.53,632.29 91.48,631.93" fill="none" stroke="rgb(0, 0, 255)" stroke-width="4.99" stroke-opacity="1.00" stroke-linejoin="round"/>
<path d="M447.15,628.06 C447.15,628.06 444.48,621.38 444.48,621.38 C444.26,629.16 450.00,653.75 452.25,660.41 C453.13,662.97 455.26,667.65 456.92,668.97 C456.92,668.97 457.71,668.00 457.71,668.00" fill="none" stroke="rgb(0, 0, 255)" stroke-width="4.99" stroke-opacity="1.00" stroke-linejoin="round"/>
<path d="M428.76,702.24 C428.76,702.24 428.28,698.64 428.28,698.64 C427.56,701.42 427.74,718.49 428.03,725.70 C428.29,730.61 428.63,734.70 428.97,736.86" fill="none" stroke="rgb(0, 0, 255)" stroke-width="4.99" stroke-opacity="1.00" stroke-linejoin="round"/>
<path d="M464.78,706.55 C464.78,706.55 464.80,703.66 464.80,703.66 C465.74,705.19 466.17,706.22 466.16,707.61 C466.06,719.96 463.92,736.57 463.81,737.50" fill="none" stroke="rgb(0, 0, 255)" stroke-width="4.99" stroke-opacity="1.00" stroke-linejoin="round"/>
<path d="M375.96,624.90 C375.96,624.90 374.34,624.16 374.34,624.16 C374.37,624.88 380.43,638.84 382.93,645.25 C385.63,652.68 391.33,668.56 392.10,670.63" fill="none" stroke="rgb(0, 0, 255)" stroke-width="4.99" stroke-opacity="1.00" stroke-linejoin="round"/>
<path d="M357.42,681.16 C357.42,681.16 355.12,675.76 355.12,675.76 C355.12,675.76 359.77,719.01 359.77,719.01" fill="none" stroke="rgb(0, 0, 255)" stroke-width="4.99" stroke-opacity="1.00" stroke-linejoin="round"/>
<path d="M328.02,618.28 C328.02,618.28 324.79,620.81 324.79,620.81 C324.33,624.55 327.11,639.85 329.81,649.26 C330.43,651.41 330.84,652.66 331.73,655.13" fill="none" stroke="rgb(0, 0, 255)" stroke-width="4.99" stroke-opacity="1.00" stroke-linejoin="round"/>
<path d="M391.43,574.11 C390.33,575.36 389.59,576.63 389.18,578.40 C388.38,581.93 387.79,590.77 387.81,593.19 C387.85,596.66 388.31,598.69 388.62,599.79" fill="none" stroke="rgb(0, 0, 255)" stroke-width="4.99" stroke-opacity="1.00" stroke-linejoin="round"/>
<path d="M345.64,521.24 C345.64,521.24 344.46,520.93 344.46,520.93 C344.07,524.29 345.54,540.75 347.42,546.03 C347.95,547.51 348.61,548.63 349.73,550.14 C349.73,550.14 350.90,550.02 350.90,550.02 C350.90,550.02 351.50,549.02 351.50,549.02" fill="none" stroke="rgb(0, 0, 255)" stroke-width="4.99" stroke-opacity="1.00" stroke-linejoin="round"/>
<path d="M383.81,501.38 C382.84,501.74 382.23,502.02 381.98,502.22 C380.19,503.77 379.03,520.66 378.99,527.19 C378.98,530.28 379.16,534.70 379.20,535.62" fill="none" stroke="rgb(0, 0, 255)" stroke-width="4.99" stroke-opacity="1.00" stroke-linejoin="round"/>
<path d="M391.74,503.69 C391.74,503.69 391.18,503.52 391.18,503.52 C390.96,503.13 392.12,502.85 392.27,504.22 C392.45,505.96 393.01,516.95 392.99,518.76 C392.93,523.29 392.41,526.12 392.06,527.54 C392.06,527.54 391.88,527.29 391.88,527.29 C391.88,527.29 391.94,525.94 391.94,525.94" fill="none" stroke="rgb(0, 0, 255)" stroke-width="4.99" stroke-opacity="1.00" stroke-linejoin="round"/>
<path d="M427.06,485.07 C427.06,485.07 425.91,484.56 425.91,484.56 C425.17,485.71 424.79,492.65 425.06,495.86 C425.38,499.61 426.45,505.49 427.07,507.88" fill="none" stroke="rgb(0, 0, 255)" stroke-width="4.99" stroke-opacity="1.00" stroke-linejoin="round"/>
<path d="M416.52,548.33 C416.52,545.03 416.92,540.39 417.06,539.59 C417.16,539.09 417.39,538.09 417.76,536.60 C417.56,543.03 417.03,557.56 416.33,561.91 C416.12,563.24 415.75,565.01 415.52,565.98 C415.52,565.98 415.06,565.72 415.06,565.72 C415.06,565.72 415.09,564.43 415.09,564.43" fill="none" stroke="rgb(0, 0, 255)" stroke-width="4.99" stroke-opacity="1.00" stroke-linejoin="round"/>
<path d="M430.37,391.02 C430.37,391.02 429.67,384.54 429.67,384.54 C430.55,386.47 431.54,403.55 431.93,411.72 C432.40,421.34 433.26,427.37 434.26,430.67 C434.26,430.67 434.64,430.48 434.64,430.48 C434.64,430.48 435.03,428.62 435.03,428.62" fill="none" stroke="rgb(0, 0, 255)" stroke-width="4.99" stroke-opacity="1.00" stroke-linejoin="round"/>
<path d="M367.42,401.49 C367.42,401.49 366.97,398.93 366.97,398.93 C366.61,399.89 366.46,400.69 366.35,402.55 C366.15,405.90 365.79,412.80 365.63,416.36 C365.56,419.53 365.47,425.60 365.46,428.49" fill="none" stroke="rgb(0, 0, 255)" stroke-width="4.99" stroke-opacity="1.00" stroke-linejoin="round"/>
<path d="M210.88,621.67 C210.88,621.67 210.27,618.60 210.27,618.60 C212.57,621.88 214.65,627.96 215.90,631.59 C219.39,641.44 223.78,651.73 225.67,655.46" fill="none" stroke="rgb(0, 0, 255)" stroke-width="4.99" stroke-opacity="1.00" stroke-linejoin="round"/>
<path d="M172.71,612.28 C171.28,613.49 171.11,615.02 172.17,619.04 C176.21,634.46 181.44,647.95 182.45,650.54" fill="none" stroke="rgb(0, 0, 255)" stroke-width="4.99" stroke-opacity="1.00" stroke-linejoin="round"/>
<path d="M212.58,406.49 C212.58,406.49 210.39,405.65 210.39,405.65 C209.87,408.28 209.90,425.77 210.15,434.09 C210.40,439.83 210.88,445.70 211.37,448.16" fill="none" stroke="rgb(0, 0, 255)" stroke-width="4.99" stroke-opacity="1.00" stroke-linejoin="round"/>
<path d="M141.54,697.16 C141.54,697.16 134.40,700.60 134.40,700.60 C134.84,700.80 140.63,700.19 142.39,700.18 C145.40,700.18 149.79,701.13 152.42,702.34 C155.01,703.57 166.68,710.60 172.23,712.33 C177.20,713.88 187.65,718.51 195.25,722.53 C198.65,724.30 200.70,724.99 205.39,725.81 C210.74,726.73 214.60,727.72 216.04,728.73 C219.90,731.56 221.31,733.87 221.67,734.94 C221.24,735.70 214.42,739.12 212.75,739.64 C208.55,740.91 194.73,741.43 187.17,740.46 C178.59,739.32 160.32,735.71 157.67,735.41 C151.07,734.69 137.70,736.70 131.66,737.76 C130.21,737.94 128.85,737.83 126.81,737.46 C126.81,737.46 126.38,736.26 126.38,736.26" fill="none" stroke="rgb(181, 143, 123)" stroke-width="4.99" stroke-opacity="1.00" stroke-linejoin="round"/>
<path d="M147.62,707.17 C147.10,707.20 146.74,707.20 146.56,707.15 C146.38,707.11 146.11,706.98 145.76,706.75 C145.77,705.36 145.65,704.44 145.24,704.01 C142.12,701.05 133.81,704.19 132.16,705.04 C132.79,706.19 133.82,706.53 136.23,706.13 C138.63,705.73 140.31,705.38 142.66,704.82 C142.66,704.82 133.52,710.05 133.52,710.05 C133.52,710.05 144.71,707.39 144.71,707.39 C144.71,707.39 138.25,712.21 138.25,712.21 C138.25,712.21 151.46,708.33 151.46,708.33 C151.46,708.33 136.58,715.14 136.58,715.14 C136.58,715.14 155.36,708.82 155.36,708.82 C155.36,708.82 134.78,721.40 134.78,721.40 C134.78,721.40 160.86,711.17 160.86,711.17 C160.86,711.17 136.46,727.24 136.46,727.24 C136.46,727.24 164.25,713.52 164.25,713.52 C154.64,717.91 140.26,727.79 135.32,731.89 C136.64,731.98 140.84,729.87 143.13,728.67 C149.61,725.18 162.67,718.01 169.25,714.32 C154.82,721.16 140.86,730.50 139.83,731.19 C139.83,731.19 170.00,716.24 170.00,716.24 C169.27,717.13 151.86,727.48 150.20,728.62 C147.99,730.14 145.94,731.75 145.17,732.51 C145.17,732.51 176.58,719.73 176.58,719.73 C176.58,719.73 151.85,733.99 151.85,733.99 C151.85,733.99 178.72,718.50 178.72,718.50 C178.72,718.50 161.24,729.03 161.24,729.03 C161.24,729.03 179.86,720.24 179.86,720.24 C177.38,723.39 172.38,727.05 169.47,729.20 C167.82,730.39 166.74,731.36 164.86,733.27 C167.35,733.09 171.40,731.39 175.63,729.46 C185.88,724.63 189.61,722.64 190.48,722.12 C190.48,722.12 176.48,732.33 176.48,732.33 C177.80,732.63 182.04,730.99 188.75,728.18 C195.36,725.39 196.26,724.98 197.45,724.38 C195.78,724.56 178.89,731.08 178.88,732.40 C178.88,732.40 200.73,725.61 200.73,725.61 C198.12,727.33 190.78,732.16 189.52,733.02 C185.40,735.87 184.73,736.86 184.11,738.21 C184.11,738.21 203.02,729.61 203.02,729.61 C203.04,729.62 197.06,733.73 196.04,734.62 C194.17,736.25 193.31,737.44 193.48,738.02 C193.48,738.02 210.15,730.87 210.15,730.87 C210.20,731.74 206.87,737.05 206.87,738.55 C206.88,738.89 207.05,739.39 207.38,740.05 C208.60,740.47 209.62,740.41 211.36,739.68 C214.23,738.46 215.04,737.12 215.10,736.44 C215.10,736.44 212.79,736.28 212.79,736.28 C212.79,736.28 212.84,736.13 212.84,736.13" fill="none" stroke="rgb(181, 143, 123)" stroke-width="4.99" stroke-opacity="1.00" stroke-linejoin="round"/>
</g>
</svg>
