<?xml version="1.0" encoding="UTF-8" standalone="no"?>
<!DOCTYPE svg PUBLIC "-//W3C//DTD SVG 1.1//EN" "http://www.w3.org/Graphics/SVG/1.1/DTD/svg11.dtd">
<svg width="128.40" height="181.68" viewBox="0.00 0.00 535.00 757.00" xmlns="http://www.w3.org/2000/svg" xmlns:xlink="http://www.w3.org/1999/xlink">
<g stroke-linecap="round" id="54">
<path d="M284.62,434.47 C284.62,434.47 284.10,434.70 284.10,434.70 C283.98,434.55 283.85,434.41 283.73,434.26 C283.57,434.06 283.40,433.87 283.24,433.67 C283.24,433.67 282.81,433.59 282.81,433.59 C282.30,434.36 281.02,435.57 279.95,436.14 C279.03,436.63 276.19,436.03 275.21,436.09 C274.43,436.13 258.82,439.08 256.27,440.58 C255.54,441.02 251.78,444.03 250.84,444.59 C248.79,445.81 240.75,446.73 238.75,447.07 C237.12,447.37 233.89,448.22 232.83,448.68 C232.04,449.03 215.02,457.56 210.72,460.74 C207.27,463.32 197.37,473.78 192.74,478.55 C189.38,482.21 182.98,495.12 182.29,499.22 C182.12,500.27 181.06,509.62 180.23,512.15 C179.82,513.34 177.99,517.53 176.59,521.03 C175.36,524.18 174.72,528.60 175.27,531.63 C175.70,533.84 178.37,541.10 179.00,541.94 C179.66,542.24 180.92,542.34 181.95,541.94 C184.34,540.99 189.44,536.09 192.97,531.47 C193.94,530.20 195.81,527.78 196.51,526.91 C197.15,526.14 202.12,525.98 202.97,526.48 C203.39,527.84 203.94,530.63 204.16,531.67 C204.78,534.43 208.79,539.32 211.44,541.19 C212.15,541.67 215.10,543.19 215.68,543.24 C217.39,543.31 221.49,539.13 223.47,537.01 C230.34,529.90 232.04,527.61 232.88,526.36 C232.27,527.08 232.80,528.92 234.47,530.97 C235.15,531.80 243.61,539.22 245.58,540.50 C248.76,542.53 254.80,544.38 256.76,543.62 C257.25,543.42 268.01,535.34 269.09,534.04 C269.67,533.34 272.45,528.79 274.71,527.35 C274.81,529.51 275.04,531.00 275.62,532.30 C277.69,536.79 280.19,539.01 281.97,539.88 C285.11,538.44 288.50,535.31 291.24,533.23 C293.99,531.17 299.40,527.12 302.05,525.14 C303.37,524.16 305.01,523.56 305.72,523.84 C305.90,523.92 313.77,534.32 318.99,540.61 C320.83,540.31 322.07,539.61 323.90,537.64 C326.61,534.72 332.62,529.33 335.58,528.53 C336.69,528.27 337.87,529.53 339.05,531.64 C343.92,540.74 346.21,542.24 347.20,542.36 C348.88,541.49 362.40,528.63 363.34,528.56 C364.74,528.50 366.52,529.39 367.41,530.65 C369.40,533.45 373.39,539.58 373.74,539.97 C374.81,541.10 376.61,541.91 377.40,541.49 C378.14,541.06 382.46,535.65 384.28,533.80 C389.50,528.50 392.28,527.35 393.00,527.35 C393.53,528.33 394.39,536.11 394.70,537.09 C394.95,537.83 396.28,540.16 396.86,540.75 C397.89,541.72 401.08,543.59 402.10,543.35 C402.60,543.22 414.62,535.40 415.21,534.99 C417.20,533.58 417.84,532.48 417.72,530.72 C417.64,529.84 418.36,511.46 417.77,507.10 C417.36,504.06 414.16,487.77 413.33,486.62 C412.59,485.63 408.33,482.10 406.74,479.50 C404.98,476.60 400.62,471.82 397.80,469.42 C391.72,464.29 385.56,460.11 376.64,454.94 C373.57,453.21 367.13,450.51 363.29,449.45 C354.20,447.03 339.05,445.71 334.67,444.67 C333.62,444.41 317.43,440.53 306.79,438.72 C292.90,436.46 274.91,439.79 266.64,440.28 C260.84,440.68 255.35,441.78 253.87,443.18 C252.93,444.09 251.83,445.45 251.86,445.42" fill="none" stroke="rgb(255, 255, 0)" stroke-width="4.71" stroke-opacity="1.00" stroke-linejoin="round"/>
<path d="M295.16,547.67 C294.99,546.65 294.60,544.35 294.38,543.08 C293.99,540.62 293.94,539.07 294.14,537.83 C294.51,538.28 294.04,544.62 293.77,548.09 C293.13,555.99 293.61,573.34 293.49,576.27 C293.29,580.86 288.65,595.86 288.40,601.32 C288.19,606.23 288.28,611.25 287.74,613.44 C287.36,614.96 282.96,625.77 282.63,625.98 C282.63,625.98 275.98,623.52 275.98,623.52 C274.94,624.36 275.02,629.76 275.35,631.48 C275.94,634.50 278.17,640.50 279.96,642.68 C281.00,643.90 283.97,645.78 285.56,646.35 C287.18,646.87 290.04,647.12 291.19,646.81 C292.44,646.42 293.69,645.32 294.36,644.12 C294.49,643.87 302.57,623.95 302.66,623.45 C303.28,620.25 304.15,612.57 303.77,609.34 C303.42,606.39 304.09,603.49 305.21,600.19 C306.30,596.91 309.26,576.78 309.79,574.50 C310.56,571.37 312.50,563.53 312.94,561.51 C313.74,557.78 314.61,548.85 314.71,548.12 C315.20,544.24 314.66,542.61 314.09,541.48 C314.09,541.48 314.30,541.73 314.30,541.73" fill="none" stroke="rgb(255, 255, 0)" stroke-width="4.71" stroke-opacity="1.00" stroke-linejoin="round"/>
<path d="M180.30,543.77 C180.06,543.22 179.92,542.88 179.88,542.73 C179.83,542.58 179.81,542.41 179.83,542.24 C179.59,542.12 179.20,542.06 178.85,542.18 C178.20,542.39 177.61,543.02 177.08,543.98 C177.38,545.40 177.77,546.33 178.41,546.79 C179.72,547.72 182.94,547.86 184.19,546.84 C185.39,545.80 186.04,542.63 185.31,541.41 C183.37,538.43 179.54,539.98 179.00,540.47 C179.00,540.47 180.04,542.61 180.04,542.61" fill="none" stroke="rgb(255, 255, 0)" stroke-width="4.71" stroke-opacity="1.00" stroke-linejoin="round"/>
<path d="M209.87,544.52 C209.87,544.52 207.99,542.48 207.99,542.48 C206.53,542.46 205.30,545.10 205.89,546.61 C207.06,547.56 210.39,546.92 211.98,545.40 C213.01,544.39 213.58,543.12 213.71,541.88 C211.99,540.37 210.70,539.84 209.19,540.24 C206.75,540.89 205.65,542.67 205.61,543.37 C205.61,543.37 206.17,543.84 206.17,543.84" fill="none" stroke="rgb(255, 255, 0)" stroke-width="4.71" stroke-opacity="1.00" stroke-linejoin="round"/>
<path d="M247.30,544.83 C247.24,544.76 247.20,544.71 247.17,544.66 C247.07,544.52 246.95,544.39 246.81,544.28 C245.87,543.50 245.03,543.07 244.64,543.14 C241.99,544.87 243.39,548.88 244.03,549.88 C246.45,549.49 247.96,548.73 248.81,547.18 C250.05,544.91 249.66,542.90 248.94,542.54 C246.23,541.39 244.37,544.63 244.33,545.08 C244.33,545.08 244.78,545.31 244.78,545.31 C244.78,545.31 245.21,545.22 245.21,545.22" fill="none" stroke="rgb(255, 255, 0)" stroke-width="4.71" stroke-opacity="1.00" stroke-linejoin="round"/>
<path d="M280.23,539.74 C279.12,539.67 275.99,540.98 275.68,541.93 C275.50,542.55 275.72,543.27 276.23,544.04 C277.11,544.49 278.14,544.65 279.03,544.27 C279.89,543.90 281.30,542.46 281.63,541.60 C281.92,540.76 281.68,539.25 281.21,538.78 C280.10,537.78 276.90,538.50 276.03,539.55 C276.03,539.55 278.10,539.92 278.10,539.92" fill="none" stroke="rgb(255, 255, 0)" stroke-width="4.71" stroke-opacity="1.00" stroke-linejoin="round"/>
<path d="M316.67,540.84 C316.67,540.84 315.08,539.50 315.08,539.50 C313.92,539.75 313.26,542.55 313.99,544.22 C316.11,544.21 317.39,543.69 318.03,542.32 C318.98,540.22 318.63,539.28 318.34,538.75 C318.34,538.75 315.06,539.85 315.06,539.85 C315.06,539.85 315.18,540.77 315.18,540.77 C315.18,540.77 316.05,541.00 316.05,541.00" fill="none" stroke="rgb(255, 255, 0)" stroke-width="4.71" stroke-opacity="1.00" stroke-linejoin="round"/>
<path d="M344.39,540.13 C344.39,540.13 343.07,539.76 343.07,539.76 C343.07,539.76 339.75,544.10 339.75,544.10 C339.75,544.10 340.95,545.61 340.95,545.61 C345.51,545.12 345.51,540.61 345.15,539.63 C345.15,539.63 341.37,538.96 341.37,538.96 C341.37,538.96 341.23,540.20 341.23,540.20 C341.23,540.20 342.22,540.32 342.22,540.32" fill="none" stroke="rgb(255, 255, 0)" stroke-width="4.71" stroke-opacity="1.00" stroke-linejoin="round"/>
<path d="M375.03,541.67 C374.93,541.19 374.83,540.82 374.75,540.58 C374.66,540.34 374.47,539.89 374.16,539.23 C373.35,538.72 372.44,538.41 371.60,538.40 C369.00,538.45 369.92,542.10 370.46,543.00 C372.59,542.89 373.80,542.37 374.37,541.04 C374.93,539.73 374.94,538.56 374.54,537.41 C372.56,536.90 371.64,536.94 371.36,537.71 C371.25,538.01 371.15,538.30 371.05,538.60 C371.05,538.60 371.77,539.53 371.77,539.53" fill="none" stroke="rgb(255, 255, 0)" stroke-width="4.71" stroke-opacity="1.00" stroke-linejoin="round"/>
<path d="M402.82,539.90 C402.27,539.42 401.51,538.93 400.96,538.92 C400.02,538.93 398.46,539.85 397.71,540.95 C395.93,543.65 395.97,544.95 396.18,545.62 C399.90,546.16 400.61,541.32 400.50,540.22 C399.46,539.06 396.91,538.97 395.71,539.67 C395.71,539.67 396.12,542.16 396.12,542.16" fill="none" stroke="rgb(255, 255, 0)" stroke-width="4.71" stroke-opacity="1.00" stroke-linejoin="round"/>
<path d="M420.43,542.42 C420.29,542.27 420.14,542.12 420.00,541.98 C419.47,541.48 418.77,541.39 417.91,541.84 C415.94,542.95 414.55,546.19 414.97,547.67 C415.17,548.31 415.73,548.75 416.49,549.05 C417.94,548.75 419.86,546.13 419.77,544.31 C419.44,540.10 415.76,539.73 415.00,539.90 C415.00,539.90 414.58,543.52 414.58,543.52" fill="none" stroke="rgb(255, 255, 0)" stroke-width="4.71" stroke-opacity="1.00" stroke-linejoin="round"/>
<path d="M218.01,582.54 C218.01,582.54 218.01,582.74 218.01,582.74 C218.01,582.74 218.59,581.21 218.59,581.21 C216.84,582.10 211.99,586.44 209.79,588.59 C207.73,590.63 206.32,593.80 205.88,596.51 C205.45,599.44 205.82,605.95 206.77,607.68 C208.51,610.69 217.85,620.02 219.60,620.75 C220.45,621.08 223.87,621.16 225.79,621.03 C228.20,620.84 230.74,620.02 232.75,618.86 C233.16,618.61 237.42,615.73 240.01,614.36 C241.04,613.77 245.17,608.00 246.23,605.47 C247.02,603.53 247.80,595.27 247.81,594.65 C247.87,591.00 246.87,586.09 246.20,584.86 C245.46,583.56 238.82,580.29 238.35,580.15 C237.04,579.80 230.25,581.27 227.72,581.26 C221.98,581.21 219.24,582.62 218.55,583.19 C218.55,583.19 219.98,582.93 219.98,582.93" fill="none" stroke="rgb(0, 255, 0)" stroke-width="4.71" stroke-opacity="1.00" stroke-linejoin="round"/>
<path d="M223.93,593.91 C223.93,593.91 223.65,591.82 223.65,591.82 C223.55,592.98 222.91,593.83 219.89,596.62 C216.32,599.83 208.76,607.17 207.34,608.45 C207.34,608.45 208.41,607.64 208.41,607.64" fill="none" stroke="rgb(0, 255, 0)" stroke-width="4.71" stroke-opacity="1.00" stroke-linejoin="round"/>
<path d="M225.90,600.11 C225.78,599.97 225.63,599.82 225.47,599.67 C224.41,598.68 224.03,598.16 223.87,597.52 C225.17,597.92 228.75,598.95 230.93,598.46 C232.30,598.16 238.33,598.22 241.80,597.37 C243.93,596.85 245.99,597.24 246.76,597.57 C246.76,597.57 246.76,597.60 246.76,597.60 C246.78,597.61 246.71,597.60 246.69,597.59 C245.99,597.38 245.44,597.24 245.05,597.19 C244.64,597.13 243.78,597.06 242.47,596.98" fill="none" stroke="rgb(0, 255, 0)" stroke-width="4.71" stroke-opacity="1.00" stroke-linejoin="round"/>
<path d="M219.31,607.80 C219.31,607.80 219.30,607.97 219.30,607.97 C219.30,607.97 219.47,607.09 219.47,607.09 C219.47,607.09 219.75,611.14 219.75,611.14 C219.75,611.14 219.71,610.41 219.71,610.41" fill="none" stroke="rgb(0, 255, 0)" stroke-width="4.71" stroke-opacity="1.00" stroke-linejoin="round"/>
<path d="M235.46,604.73 C235.46,604.73 234.96,604.58 234.96,604.58 C234.96,604.58 234.85,604.10 234.85,604.10 C234.85,604.10 234.38,608.47 234.38,608.47 C234.36,608.44 234.31,608.42 234.23,608.40 C233.97,608.32 233.27,608.13 233.02,607.96" fill="none" stroke="rgb(0, 255, 0)" stroke-width="4.71" stroke-opacity="1.00" stroke-linejoin="round"/>
<path d="M225.27,614.79 C225.27,614.73 225.24,614.68 225.17,614.62 C224.85,614.38 223.57,613.48 223.05,613.83 C223.49,614.30 226.97,614.90 229.78,613.81 C230.76,613.42 231.53,612.22 231.54,611.66 C231.53,611.43 231.51,611.21 231.49,610.99" fill="none" stroke="rgb(0, 255, 0)" stroke-width="4.71" stroke-opacity="1.00" stroke-linejoin="round"/>
<path d="M215.60,620.83 C215.55,619.65 215.57,619.05 215.67,618.60 C215.73,618.36 215.76,618.23 215.77,618.21 C215.79,618.18 215.83,618.14 215.88,618.09 C213.98,626.92 209.64,645.14 209.46,646.01 C206.94,658.52 206.44,680.22 206.87,684.96 C206.98,686.00 208.14,686.90 209.77,686.83 C210.44,686.81 214.16,686.39 214.89,686.41 C216.34,686.46 219.78,687.43 220.72,687.57 C222.46,687.81 229.33,685.74 230.81,685.21 C234.67,683.88 242.02,684.50 242.15,684.54 C242.42,683.58 242.72,673.20 242.61,666.60 C242.55,664.11 242.45,659.42 243.22,655.42 C243.82,652.32 244.75,644.71 244.89,644.08 C245.45,641.54 249.19,637.66 249.68,637.24 C250.63,636.41 252.25,635.42 253.22,635.07 C254.04,634.79 260.92,633.56 262.53,632.63 C263.49,632.07 270.43,627.95 271.82,626.10 C273.66,623.66 273.99,622.27 273.68,620.78 C273.68,620.78 273.56,621.51 273.56,621.51" fill="none" stroke="rgb(0, 255, 0)" stroke-width="4.71" stroke-opacity="1.00" stroke-linejoin="round"/>
<path d="M238.14,619.06 C237.93,618.94 237.75,618.87 237.64,618.84 C237.57,618.81 237.37,618.69 237.10,618.59 C237.10,618.59 236.85,618.70 236.85,618.70 C236.30,619.33 238.66,620.62 243.20,621.90 C246.02,622.64 251.96,623.02 254.57,622.75 C259.15,622.24 263.98,620.90 266.32,619.39 C267.97,618.29 271.19,615.40 272.43,615.16 C272.51,615.17 274.74,619.53 275.02,619.75 C275.02,619.75 275.05,619.55 275.05,619.55" fill="none" stroke="rgb(0, 255, 0)" stroke-width="4.71" stroke-opacity="1.00" stroke-linejoin="round"/>
<path d="M240.08,613.53 C239.94,613.63 239.67,613.81 239.64,613.85 C239.60,613.89 239.56,613.97 239.50,614.10 C239.43,614.48 242.36,616.97 243.34,616.89 C246.12,616.60 255.43,612.32 257.72,611.73 C259.58,611.26 261.43,611.20 261.94,611.62 C263.19,612.84 264.87,617.37 265.34,618.49 C265.34,618.49 265.10,616.43 265.10,616.43" fill="none" stroke="rgb(0, 255, 0)" stroke-width="4.71" stroke-opacity="1.00" stroke-linejoin="round"/>
<path d="M261.56,611.00 C261.56,611.00 261.12,610.89 261.12,610.89 C261.12,610.89 260.89,610.56 260.89,610.56 C262.11,609.81 263.17,609.25 263.66,609.25 C264.91,609.29 266.86,612.14 267.01,613.54 C267.15,615.33 266.40,616.67 265.78,617.26 C265.78,617.26 265.25,617.24 265.25,617.24 C265.25,617.24 265.25,616.84 265.25,616.84" fill="none" stroke="rgb(0, 255, 0)" stroke-width="4.71" stroke-opacity="1.00" stroke-linejoin="round"/>
<path d="M269.81,614.91 C269.69,615.01 269.60,615.09 269.55,615.13 C269.49,615.17 269.41,615.23 269.28,615.32 C269.28,615.32 269.23,614.97 269.23,614.97 C269.37,614.70 273.71,612.15 273.78,612.13 C274.61,611.95 277.29,613.87 278.08,616.82 C278.38,617.99 277.97,619.66 277.34,620.42 C276.05,621.84 275.19,621.91 274.89,621.85 C274.89,621.85 274.90,621.41 274.90,621.41" fill="none" stroke="rgb(0, 255, 0)" stroke-width="4.71" stroke-opacity="1.00" stroke-linejoin="round"/>
<path d="M207.98,685.39 C207.98,685.39 207.82,684.82 207.82,684.82 C208.26,686.09 208.54,687.55 208.51,688.89 C208.45,690.96 207.12,695.82 207.04,698.71 C206.92,718.47 207.94,725.67 208.24,726.04 C209.06,725.92 213.91,722.32 214.67,721.91 C215.44,721.50 220.36,721.01 221.41,720.54 C223.21,719.74 224.20,719.58 225.34,720.00 C227.18,720.69 227.63,720.63 228.02,720.53 C227.30,714.83 227.47,703.45 227.46,702.89 C227.38,699.61 227.91,695.28 227.46,691.00 C227.34,689.96 227.60,688.47 227.91,687.48 C227.91,687.48 227.88,688.26 227.88,688.26" fill="none" stroke="rgb(0, 255, 0)" stroke-width="4.71" stroke-opacity="1.00" stroke-linejoin="round"/>
<path d="M241.38,687.56 C241.38,687.56 241.17,687.56 241.17,687.56 C241.11,687.04 241.10,686.46 241.09,686.07 C241.09,685.95 240.99,685.07 240.99,684.95 C240.99,684.90 241.00,684.85 241.02,684.82 C241.02,684.82 248.89,718.81 248.89,718.81 C248.01,717.93 243.55,717.64 240.42,717.93 C239.83,717.98 232.09,718.25 229.83,719.27 C229.79,719.29 228.62,720.08 228.14,720.28 C228.14,720.28 227.63,719.24 227.63,719.24" fill="none" stroke="rgb(0, 255, 0)" stroke-width="4.71" stroke-opacity="1.00" stroke-linejoin="round"/>
<path d="M216.03,724.79 C215.95,724.13 215.89,723.71 215.86,723.51 C215.83,723.32 215.78,723.09 215.72,722.82 C215.70,723.40 215.28,726.62 214.70,726.85 C213.10,727.51 212.43,728.24 211.98,730.05 C211.64,731.52 211.61,733.02 211.95,733.45 C212.39,733.95 213.29,734.39 214.45,734.75 C216.66,734.14 228.48,724.83 228.79,724.43 C229.52,723.37 228.84,720.57 228.94,720.62 C228.94,720.62 229.30,721.46 229.30,721.46" fill="none" stroke="rgb(0, 255, 0)" stroke-width="4.71" stroke-opacity="1.00" stroke-linejoin="round"/>
<path d="M230.48,722.50 C230.50,722.16 230.50,721.87 230.47,721.63 C230.45,721.38 230.37,720.85 230.25,720.02 C230.08,721.56 229.24,726.16 229.59,727.77 C230.04,729.58 231.39,730.40 234.04,730.71 C241.66,731.54 248.41,730.94 249.12,730.84 C250.37,730.64 251.84,729.75 252.77,728.71 C253.47,727.84 253.89,726.46 253.56,725.62 C252.74,723.67 249.09,719.16 248.31,719.64 C248.26,719.69 248.23,719.71 248.21,719.72" fill="none" stroke="rgb(0, 255, 0)" stroke-width="4.71" stroke-opacity="1.00" stroke-linejoin="round"/>
<path d="M154.67,157.88 C154.67,157.88 156.12,151.11 156.12,151.11 C153.92,156.56 148.83,169.69 147.52,176.30 C146.98,179.12 146.29,186.73 146.46,188.45 C146.71,190.60 147.69,194.34 148.37,194.99 C148.65,195.24 149.30,195.57 150.32,195.97 C151.99,195.26 153.39,193.95 154.50,191.92 C155.09,190.82 155.63,186.65 156.18,180.47 C156.57,176.78 159.12,167.77 159.31,166.05 C159.95,159.75 155.85,155.43 155.54,155.46 C155.54,155.46 156.25,155.85 156.25,155.85" fill="none" stroke="rgb(255, 0, 0)" stroke-width="4.71" stroke-opacity="1.00" stroke-linejoin="round"/>
<path d="M281.59,216.56 C281.59,216.56 281.05,212.06 281.05,212.06 C280.18,214.56 279.13,221.60 279.15,225.51 C279.24,232.88 280.81,241.47 281.77,243.13 C283.75,240.99 284.67,239.66 284.97,238.24 C285.59,235.18 285.56,231.50 284.73,228.03 C283.48,222.94 282.81,219.04 282.79,216.84 C282.79,216.84 283.28,217.27 283.28,217.27" fill="none" stroke="rgb(255, 0, 0)" stroke-width="4.71" stroke-opacity="1.00" stroke-linejoin="round"/>
<path d="M418.27,135.90 C418.27,135.90 418.40,133.39 418.40,133.39 C417.67,136.41 416.06,143.20 415.94,145.47 C415.34,159.11 421.36,165.69 422.10,165.70 C423.42,164.81 425.00,160.46 424.77,157.25 C424.32,151.53 421.53,142.02 419.91,137.22 C419.91,137.22 420.03,137.91 420.03,137.91 C420.03,137.91 420.25,137.69 420.25,137.69 C420.25,137.69 420.03,137.14 420.03,137.14" fill="none" stroke="rgb(255, 0, 0)" stroke-width="4.71" stroke-opacity="1.00" stroke-linejoin="round"/>
<path d="M417.47,311.04 C417.14,309.87 416.93,309.09 416.86,308.69 C416.71,307.87 416.65,306.97 416.69,305.98 C416.71,305.45 416.81,304.27 416.99,302.43 C417.01,302.47 414.69,310.80 414.16,314.64 C413.89,316.82 413.88,319.68 414.20,321.11 C414.56,322.65 415.51,323.64 416.59,324.03 C417.66,323.68 418.64,323.19 418.88,322.49 C419.34,321.09 419.75,306.51 419.30,304.38 C419.30,304.38 418.04,305.86 418.04,305.86" fill="none" stroke="rgb(255, 0, 0)" stroke-width="4.71" stroke-opacity="1.00" stroke-linejoin="round"/>
<path d="M426.78,408.80 C426.64,407.75 426.55,407.05 426.53,406.71 C426.49,406.18 426.53,405.64 426.51,405.11 C426.47,404.36 426.18,403.79 425.78,403.43 C423.62,405.49 422.70,406.90 422.59,408.79 C422.37,412.72 422.54,419.29 423.38,421.87 C423.80,423.11 424.35,424.04 425.00,424.78 C426.70,423.91 429.95,422.42 430.21,422.21 C432.60,420.18 429.47,405.62 428.68,404.69 C427.90,405.27 425.70,406.42 425.24,406.14 C425.19,406.11 425.10,406.03 424.96,405.91" fill="none" stroke="rgb(255, 0, 0)" stroke-width="4.71" stroke-opacity="1.00" stroke-linejoin="round"/>
<path d="M176.87,362.54 C176.97,361.81 177.07,361.07 177.17,360.34 C177.22,360.01 177.32,359.28 177.26,359.30 C174.98,363.37 171.33,376.46 171.32,378.61 C171.35,380.81 172.56,383.14 173.95,383.49 C175.10,383.71 178.08,382.58 178.76,381.60 C179.81,379.96 179.88,371.21 179.85,370.04 C179.68,364.66 179.18,360.97 178.38,360.13 C178.38,360.13 177.04,362.45 177.04,362.45" fill="none" stroke="rgb(255, 0, 0)" stroke-width="4.71" stroke-opacity="1.00" stroke-linejoin="round"/>
</g>
</svg>
