<?xml version="1.0" encoding="UTF-8" standalone="no"?>
<!DOCTYPE svg PUBLIC "-//W3C//DTD SVG 1.1//EN" "http://www.w3.org/Graphics/SVG/1.1/DTD/svg11.dtd">
<svg width="128.40" height="181.68" viewBox="0.00 0.00 535.00 757.00" xmlns="http://www.w3.org/2000/svg" xmlns:xlink="http://www.w3.org/1999/xlink">
<g stroke-linecap="round" id="55">
<path d="M280.01,199.51 C280.01,199.51 280.20,197.67 280.20,197.67 C281.28,198.17 280.27,206.70 280.06,207.37 C278.99,207.61 272.75,209.93 271.45,210.91 C267.84,213.69 259.13,228.06 256.89,233.54 C252.97,243.21 252.62,245.79 252.77,246.67 C253.24,247.17 259.38,250.16 260.10,250.14 C261.06,250.06 263.56,245.81 264.81,243.11 C269.71,232.41 270.59,228.72 270.31,228.73 C270.31,228.73 269.29,228.32 269.29,228.32" fill="none" stroke="rgb(255, 165, 0)" stroke-width="2.36" stroke-opacity="1.00" stroke-linejoin="round"/>
<path d="M269.95,240.11 C269.95,240.11 272.41,235.28 272.41,235.28 C268.49,245.41 264.00,254.45 260.43,259.90 C254.65,269.02 248.68,285.72 248.88,285.96 C250.04,286.29 255.32,286.17 259.89,285.24 C261.25,284.96 271.99,282.33 274.71,281.90 C279.28,281.21 295.67,281.57 300.58,280.83 C301.64,280.67 304.91,280.23 305.92,280.51 C305.92,280.51 305.13,280.44 305.13,280.44" fill="none" stroke="rgb(255, 165, 0)" stroke-width="2.36" stroke-opacity="1.00" stroke-linejoin="round"/>
<path d="M300.62,237.30 C300.62,237.30 299.88,236.58 299.88,236.58 C302.12,247.63 305.52,277.81 307.40,281.35 C307.40,281.35 307.37,278.17 307.37,278.17" fill="none" stroke="rgb(255, 165, 0)" stroke-width="2.36" stroke-opacity="1.00" stroke-linejoin="round"/>
<path d="M285.82,200.14 C285.81,200.07 285.80,200.02 285.79,199.99 C285.77,199.93 285.72,199.86 285.64,199.77 C285.62,199.74 285.57,199.69 285.51,199.62 C285.51,199.62 285.80,199.64 285.80,199.64 C285.37,203.31 285.23,206.72 286.16,208.07 C288.09,210.78 291.51,212.84 293.40,213.72 C297.68,215.69 302.64,218.59 303.20,219.33 C303.65,219.96 305.24,224.33 307.36,227.64 C308.08,228.68 315.96,232.14 316.76,233.00 C319.00,235.51 321.37,243.09 321.59,244.14 C321.37,244.63 319.39,245.14 318.47,244.94 C318.36,244.92 318.28,244.86 318.23,244.76" fill="none" stroke="rgb(255, 165, 0)" stroke-width="2.36" stroke-opacity="1.00" stroke-linejoin="round"/>
<path d="M292.94,228.81 C292.94,228.49 292.91,228.24 292.85,228.05 C292.38,226.97 291.87,225.74 291.86,225.37 C292.29,225.29 296.58,229.16 299.40,231.73 C301.19,233.33 317.57,243.47 319.55,244.38 C319.58,244.39 319.65,244.44 319.62,244.43 C319.62,244.44 319.61,244.44 319.59,244.43 C319.57,244.41 319.51,244.36 319.41,244.28 C319.41,244.28 320.30,242.36 320.30,242.36" fill="none" stroke="rgb(255, 165, 0)" stroke-width="2.36" stroke-opacity="1.00" stroke-linejoin="round"/>
<path d="M324.99,242.83 C324.99,242.83 324.46,241.04 324.46,241.04 C323.42,240.79 322.51,241.24 322.00,242.44 C321.52,243.61 321.96,247.83 322.89,249.03 C323.52,249.79 324.90,250.22 325.61,249.84 C326.94,249.05 328.38,245.35 327.85,243.93 C327.61,243.38 326.56,242.66 325.92,242.68 C324.06,242.77 322.69,243.96 322.38,244.42" fill="none" stroke="rgb(255, 165, 0)" stroke-width="2.36" stroke-opacity="1.00" stroke-linejoin="round"/>
<path d="M253.43,252.53 C253.44,252.25 253.68,251.54 253.72,251.25 C253.74,251.08 253.75,250.75 253.74,250.26 C252.95,249.67 251.08,250.16 250.54,251.22 C249.91,252.58 250.98,255.87 252.51,256.94 C254.20,258.06 257.46,257.44 258.44,255.97 C259.24,254.64 258.31,251.20 256.59,249.89 C253.31,247.52 252.09,250.04 251.92,250.73" fill="none" stroke="rgb(255, 165, 0)" stroke-width="2.36" stroke-opacity="1.00" stroke-linejoin="round"/>
<path d="M262.42,288.41 C262.42,287.41 262.44,286.76 262.47,286.48 C262.50,286.19 262.58,285.87 262.72,285.50 C262.72,285.50 262.91,285.41 262.91,285.41 C262.91,285.41 264.45,319.66 264.45,319.66 C264.45,319.66 264.69,317.97 264.69,317.97" fill="none" stroke="rgb(255, 165, 0)" stroke-width="2.36" stroke-opacity="1.00" stroke-linejoin="round"/>
<path d="M271.95,288.28 C271.95,288.28 272.01,286.93 272.01,286.93 C271.49,287.29 271.10,290.60 270.57,296.48 C270.30,299.72 269.52,315.70 269.84,319.66 C269.84,319.66 269.95,317.99 269.95,317.99" fill="none" stroke="rgb(255, 165, 0)" stroke-width="2.36" stroke-opacity="1.00" stroke-linejoin="round"/>
<path d="M271.99,286.64 C271.99,286.64 271.77,286.45 271.77,286.45 C271.87,286.39 276.76,303.66 278.39,307.89 C279.35,310.34 281.45,314.65 282.13,315.18 C282.03,314.89 281.96,314.72 281.93,314.65 C281.88,314.52 281.84,314.40 281.82,314.29 C281.66,313.33 281.55,311.74 281.48,308.98 C281.45,307.93 281.42,306.89 281.40,305.84" fill="none" stroke="rgb(255, 165, 0)" stroke-width="2.36" stroke-opacity="1.00" stroke-linejoin="round"/>
<path d="M282.58,285.26 C282.58,285.26 282.95,283.53 282.95,283.53 C282.95,283.53 288.07,318.20 288.07,318.20 C288.07,318.20 287.25,316.61 287.25,316.61" fill="none" stroke="rgb(255, 165, 0)" stroke-width="2.36" stroke-opacity="1.00" stroke-linejoin="round"/>
<path d="M287.21,318.51 C286.73,317.59 285.77,316.90 285.17,317.18 C284.43,317.57 283.45,319.08 283.11,320.48 C282.95,321.21 283.65,323.20 284.28,323.87 C285.82,325.45 291.43,327.14 293.59,327.27 C295.81,327.36 301.85,326.30 304.19,324.83 C305.33,324.09 306.87,322.13 307.08,321.22 C307.21,320.39 306.35,318.74 305.44,318.04 C303.47,316.60 298.24,315.64 294.45,315.39 C292.29,315.28 288.99,315.56 283.84,316.14 C283.51,316.18 283.19,316.22 282.90,316.24 C282.90,316.24 283.41,316.11 283.41,316.11" fill="none" stroke="rgb(255, 165, 0)" stroke-width="2.36" stroke-opacity="1.00" stroke-linejoin="round"/>
<path d="M264.73,320.92 C264.73,320.92 264.50,319.40 264.50,319.40 C263.48,318.83 253.43,317.19 252.28,317.65 C250.45,318.47 248.69,321.46 249.59,322.45 C250.76,323.59 256.42,324.16 260.46,324.06 C264.13,323.93 269.29,322.67 270.46,321.30 C270.46,321.30 259.16,318.38 259.16,318.38 C259.16,318.38 259.34,318.43 259.34,318.43" fill="none" stroke="rgb(255, 165, 0)" stroke-width="2.36" stroke-opacity="1.00" stroke-linejoin="round"/>
<path d="M277.24,174.34 C277.22,174.13 277.30,173.98 277.47,173.88 C277.53,173.84 279.93,172.94 280.19,172.74 C280.28,172.68 280.36,172.57 280.43,172.41 C280.14,172.07 277.20,172.07 275.46,172.80 C273.16,173.80 269.09,178.09 267.03,181.03 C264.86,184.19 261.87,189.65 261.43,191.20 C261.21,192.05 261.33,193.26 261.67,193.91 C262.33,194.93 267.06,195.23 273.37,194.68 C277.20,194.33 280.42,193.90 281.37,193.76 C281.37,193.76 281.12,193.70 281.12,193.70" fill="none" stroke="rgb(255, 165, 0)" stroke-width="2.36" stroke-opacity="1.00" stroke-linejoin="round"/>
<path d="M285.30,188.05 C285.29,187.79 285.37,187.19 285.38,186.96 C285.39,186.86 285.39,186.70 285.38,186.49 C285.10,186.01 281.05,187.69 279.88,188.89 C278.61,190.28 277.43,194.09 278.23,196.09 C278.65,197.04 280.30,198.60 281.28,198.91 C282.33,199.20 284.86,198.83 285.95,198.23 C287.18,197.52 288.88,195.66 289.55,194.35 C290.07,193.26 290.34,191.13 290.08,190.19 C289.80,189.30 288.47,187.80 287.59,187.38 C282.51,185.18 278.93,188.09 278.88,188.30 C278.88,188.30 278.98,188.53 278.98,188.53" fill="none" stroke="rgb(255, 165, 0)" stroke-width="2.36" stroke-opacity="1.00" stroke-linejoin="round"/>
<path d="M277.51,174.25 C277.51,174.25 276.60,173.72 276.60,173.72 C276.73,174.04 282.04,172.39 284.36,171.92 C287.39,171.34 291.77,171.61 293.88,172.34 C295.94,173.10 298.93,175.89 299.73,177.78 C301.11,181.24 300.87,194.16 300.58,195.67 C300.58,195.67 300.38,194.71 300.38,194.71" fill="none" stroke="rgb(255, 165, 0)" stroke-width="2.36" stroke-opacity="1.00" stroke-linejoin="round"/>
<path d="M289.12,198.15 C289.12,198.15 288.72,198.15 288.72,198.15 C288.72,198.15 301.68,195.09 301.68,195.09 C301.68,195.09 301.19,195.27 301.19,195.27" fill="none" stroke="rgb(255, 165, 0)" stroke-width="2.36" stroke-opacity="1.00" stroke-linejoin="round"/>
<path d="M269.09,184.53 C269.26,184.09 269.39,183.77 269.48,183.57 C269.63,183.22 269.99,182.33 269.96,182.00 C269.02,182.49 267.58,186.31 267.33,188.83 C267.21,190.24 267.52,192.59 267.95,193.15 C269.07,194.50 270.72,193.26 271.12,192.72" fill="none" stroke="rgb(255, 165, 0)" stroke-width="2.36" stroke-opacity="1.00" stroke-linejoin="round"/>
<path d="M273.23,184.22 C273.23,184.22 273.31,182.97 273.31,182.97 C271.74,187.17 271.38,190.80 271.94,191.58 C272.46,192.26 273.27,192.28 274.16,191.80" fill="none" stroke="rgb(255, 165, 0)" stroke-width="2.36" stroke-opacity="1.00" stroke-linejoin="round"/>
<path d="M276.93,182.26 C276.93,182.26 277.46,181.44 277.46,181.44 C276.80,183.71 275.43,188.45 275.49,190.07 C275.50,190.31 275.56,190.61 275.67,190.97 C275.67,190.97 275.83,191.02 275.83,191.02" fill="none" stroke="rgb(255, 165, 0)" stroke-width="2.36" stroke-opacity="1.00" stroke-linejoin="round"/>
<path d="M276.62,176.79 C276.62,176.79 275.94,176.94 275.94,176.94 C276.06,177.21 277.56,178.28 280.73,182.55 C281.04,182.94 281.46,183.40 282.02,183.93 C282.02,183.93 281.95,183.77 281.95,183.77" fill="none" stroke="rgb(255, 165, 0)" stroke-width="2.36" stroke-opacity="1.00" stroke-linejoin="round"/>
<path d="M282.62,179.95 C282.62,179.95 282.15,178.85 282.15,178.85 C283.42,178.57 287.37,179.12 289.03,180.37 C290.51,181.50 292.33,183.68 292.89,184.75 C292.89,184.75 293.00,184.08 293.00,184.08" fill="none" stroke="rgb(255, 165, 0)" stroke-width="2.36" stroke-opacity="1.00" stroke-linejoin="round"/>
<path d="M280.49,175.99 C280.49,175.99 280.42,175.58 280.42,175.58 C281.67,175.24 285.19,175.23 287.72,176.11 C289.11,176.61 294.63,179.73 294.87,179.63 C294.87,179.63 294.76,179.49 294.76,179.49" fill="none" stroke="rgb(255, 165, 0)" stroke-width="2.36" stroke-opacity="1.00" stroke-linejoin="round"/>
<path d="M282.49,176.03 C282.49,176.03 282.55,175.75 282.55,175.75 C283.59,174.97 287.89,174.11 290.22,174.94 C295.34,176.87 296.26,181.56 296.09,181.78 C296.09,181.78 295.26,181.34 295.26,181.34" fill="none" stroke="rgb(255, 165, 0)" stroke-width="2.36" stroke-opacity="1.00" stroke-linejoin="round"/>
<path d="M281.69,190.01 C281.69,190.01 281.23,190.13 281.23,190.13 C282.11,190.28 288.05,188.96 288.63,188.80 C289.01,188.70 289.45,188.53 289.97,188.32" fill="none" stroke="rgb(255, 165, 0)" stroke-width="2.36" stroke-opacity="1.00" stroke-linejoin="round"/>
<path d="M278.17,195.66 C278.17,195.66 278.04,195.66 278.04,195.66 C279.33,195.48 284.43,194.25 287.01,193.13 C288.04,192.68 288.74,191.99 289.03,191.47" fill="none" stroke="rgb(255, 165, 0)" stroke-width="2.36" stroke-opacity="1.00" stroke-linejoin="round"/>
<path d="M279.73,196.15 C279.73,196.15 279.18,196.72 279.18,196.72 C279.25,197.03 282.47,197.47 287.83,195.10 C288.12,194.96 288.43,194.81 288.75,194.62 C288.75,194.62 288.72,194.58 288.72,194.58 C288.72,194.58 288.48,194.62 288.48,194.62" fill="none" stroke="rgb(255, 165, 0)" stroke-width="2.36" stroke-opacity="1.00" stroke-linejoin="round"/>
<path d="M281.91,190.67 C281.91,190.67 281.22,190.97 281.22,190.97 C281.22,190.97 289.60,189.63 289.60,189.63" fill="none" stroke="rgb(255, 165, 0)" stroke-width="2.36" stroke-opacity="1.00" stroke-linejoin="round"/>
<path d="M295.76,184.53 C295.76,184.53 295.64,184.35 295.64,184.35 C295.64,184.35 295.46,184.37 295.46,184.37 C294.99,186.62 294.09,190.13 293.31,192.32 C293.01,193.12 292.62,194.15 292.57,194.32 C292.57,194.32 292.78,193.86 292.78,193.86" fill="none" stroke="rgb(255, 165, 0)" stroke-width="2.36" stroke-opacity="1.00" stroke-linejoin="round"/>
<path d="M299.14,188.89 C298.60,189.54 298.32,190.60 298.17,191.01 C297.62,192.57 296.58,194.77 296.40,194.85 C296.40,194.85 296.19,194.76 296.19,194.76 C296.19,194.76 296.11,194.54 296.11,194.54" fill="none" stroke="rgb(255, 165, 0)" stroke-width="2.36" stroke-opacity="1.00" stroke-linejoin="round"/>
<path d="M181.59,131.98 C181.59,131.98 180.55,131.83 180.55,131.83 C180.55,131.83 179.86,132.94 179.86,132.94 C179.72,132.74 179.60,132.56 179.51,132.40 C178.62,130.92 178.26,130.74 177.87,130.66 C177.19,131.04 176.06,134.22 175.84,136.89 C175.57,140.57 176.48,142.74 177.10,143.36 C181.16,142.30 179.62,136.74 179.08,136.10 C179.08,136.10 176.57,136.98 176.57,136.98" fill="none" stroke="rgb(0, 0, 255)" stroke-width="2.36" stroke-opacity="1.00" stroke-linejoin="round"/>
<path d="M172.20,178.13 C172.20,178.13 171.89,178.05 171.89,178.05 C171.89,178.05 171.11,176.38 171.11,176.38 C171.11,176.38 170.37,181.92 170.37,181.92 C170.37,181.92 170.19,177.59 170.19,177.59 C170.19,177.59 169.40,178.80 169.40,178.80" fill="none" stroke="rgb(0, 0, 255)" stroke-width="2.36" stroke-opacity="1.00" stroke-linejoin="round"/>
<path d="M171.58,213.34 C171.58,213.34 170.24,212.38 170.24,212.38 C170.24,212.38 170.18,217.85 170.18,217.85 C172.02,215.82 171.32,210.86 171.07,210.15 C171.07,210.15 170.63,209.99 170.63,209.99 C170.63,209.99 170.08,210.53 170.08,210.53" fill="none" stroke="rgb(0, 0, 255)" stroke-width="2.36" stroke-opacity="1.00" stroke-linejoin="round"/>
<path d="M211.59,133.62 C211.59,133.62 211.59,133.06 211.59,133.06 C211.59,133.06 211.48,132.93 211.48,132.93 C211.11,133.44 210.14,135.68 209.63,137.40 C209.03,139.48 208.38,143.76 208.39,144.13" fill="none" stroke="rgb(0, 0, 255)" stroke-width="2.36" stroke-opacity="1.00" stroke-linejoin="round"/>
<path d="M216.36,149.91 C216.36,149.91 215.73,148.80 215.73,148.80 C215.29,149.00 214.78,149.57 214.37,150.47 C213.63,152.07 213.41,154.85 213.49,154.77" fill="none" stroke="rgb(0, 0, 255)" stroke-width="2.36" stroke-opacity="1.00" stroke-linejoin="round"/>
<path d="M222.85,166.56 C221.81,166.71 221.01,166.96 220.63,167.58 C220.05,168.53 218.61,172.42 218.27,173.82 C218.18,174.23 218.13,174.70 218.12,175.24" fill="none" stroke="rgb(0, 0, 255)" stroke-width="2.36" stroke-opacity="1.00" stroke-linejoin="round"/>
<path d="M218.63,187.48 C218.63,187.48 217.71,186.00 217.71,186.00 C217.71,186.00 217.14,191.43 217.14,191.43 C218.18,190.51 218.71,189.71 218.91,188.57 C219.10,187.43 218.86,186.56 218.19,185.51 C218.19,185.51 216.60,185.63 216.60,185.63" fill="none" stroke="rgb(0, 0, 255)" stroke-width="2.36" stroke-opacity="1.00" stroke-linejoin="round"/>
<path d="M218.18,223.31 C218.18,223.31 216.68,221.83 216.68,221.83 C216.68,221.83 215.75,223.38 215.75,223.38 C216.62,223.90 217.95,221.63 217.61,220.76 C217.54,220.60 217.34,220.34 216.99,219.98 C216.99,219.98 214.52,220.87 214.52,220.87 C214.52,220.87 214.55,220.96 214.55,220.96" fill="none" stroke="rgb(0, 0, 255)" stroke-width="2.36" stroke-opacity="1.00" stroke-linejoin="round"/>
<path d="M213.73,251.18 C213.73,251.18 212.83,249.28 212.83,249.28 C212.83,249.28 213.05,253.66 213.05,253.66 C214.06,253.37 214.61,252.87 214.74,251.96 C214.92,250.68 214.42,249.97 214.13,249.81 C214.13,249.81 213.62,250.14 213.62,250.14" fill="none" stroke="rgb(0, 0, 255)" stroke-width="2.36" stroke-opacity="1.00" stroke-linejoin="round"/>
<path d="M212.57,274.15 C212.57,274.15 212.14,272.74 212.14,272.74 C212.65,276.98 214.15,279.65 214.73,279.70 C217.94,277.32 216.14,273.03 215.76,272.72 C215.76,272.72 214.74,273.59 214.74,273.59" fill="none" stroke="rgb(0, 0, 255)" stroke-width="2.36" stroke-opacity="1.00" stroke-linejoin="round"/>
<path d="M223.83,309.94 C223.83,309.94 222.99,309.65 222.99,309.65 C222.87,309.74 222.80,312.02 222.85,314.22 C222.88,315.01 223.00,315.44 223.12,315.50 C223.12,315.50 223.25,314.39 223.25,314.39" fill="none" stroke="rgb(0, 0, 255)" stroke-width="2.36" stroke-opacity="1.00" stroke-linejoin="round"/>
<path d="M193.16,258.35 C192.84,258.35 192.12,257.73 191.84,257.48 C191.17,256.91 190.23,257.37 189.82,257.77 C190.68,259.19 192.91,258.59 194.31,257.94" fill="none" stroke="rgb(0, 0, 255)" stroke-width="2.36" stroke-opacity="1.00" stroke-linejoin="round"/>
<path d="M188.00,299.65 C188.00,299.65 187.64,294.51 187.64,294.51 C187.46,294.73 187.23,296.64 187.34,297.84 C187.43,298.69 187.99,299.72 188.39,300.21 C188.39,300.21 188.80,300.06 188.80,300.06" fill="none" stroke="rgb(0, 0, 255)" stroke-width="2.36" stroke-opacity="1.00" stroke-linejoin="round"/>
<path d="M191.21,313.94 C191.21,313.94 190.04,314.04 190.04,314.04 C190.04,314.04 189.81,315.32 189.81,315.32 C190.85,315.56 191.54,315.26 191.72,314.25 C192.02,312.43 191.05,310.77 190.25,309.83 C190.25,309.83 190.15,309.92 190.15,309.92 C190.15,309.92 190.29,309.73 190.29,309.73" fill="none" stroke="rgb(0, 0, 255)" stroke-width="2.36" stroke-opacity="1.00" stroke-linejoin="round"/>
<path d="M249.34,136.34 C249.30,136.06 249.25,135.81 249.19,135.58 C249.13,135.36 248.98,134.84 248.74,134.02 C248.74,134.02 247.32,140.71 247.32,140.71 C248.52,140.10 249.26,139.20 249.27,138.17 C249.26,135.88 246.22,136.44 245.26,137.17" fill="none" stroke="rgb(0, 0, 255)" stroke-width="2.36" stroke-opacity="1.00" stroke-linejoin="round"/>
<path d="M253.44,156.68 C253.44,156.68 252.51,156.24 252.51,156.24 C251.06,155.61 248.94,163.54 249.01,163.97 C251.01,163.55 251.12,159.75 251.03,159.62 C251.03,159.62 250.29,161.69 250.29,161.69" fill="none" stroke="rgb(0, 0, 255)" stroke-width="2.36" stroke-opacity="1.00" stroke-linejoin="round"/>
<path d="M248.23,182.23 C247.19,182.21 246.02,183.69 246.32,185.22 C246.36,185.40 246.48,185.69 246.69,186.08 C248.54,184.60 249.55,181.10 249.25,180.58 C249.25,180.58 248.04,181.82 248.04,181.82" fill="none" stroke="rgb(0, 0, 255)" stroke-width="2.36" stroke-opacity="1.00" stroke-linejoin="round"/>
<path d="M250.90,211.56 C250.90,211.56 249.42,210.40 249.42,210.40 C249.42,210.40 249.94,218.00 249.94,218.00 C249.94,218.00 251.02,213.74 251.02,213.74 C251.02,213.74 249.54,214.39 249.54,214.39 C249.54,214.39 249.51,214.12 249.51,214.12" fill="none" stroke="rgb(0, 0, 255)" stroke-width="2.36" stroke-opacity="1.00" stroke-linejoin="round"/>
<path d="M281.97,149.51 C281.39,148.86 279.96,147.39 278.94,147.43 C274.70,147.80 275.38,152.42 275.88,153.40 C276.81,153.69 277.66,153.62 278.52,153.00 C280.23,151.74 280.97,150.13 281.17,149.34" fill="none" stroke="rgb(0, 0, 255)" stroke-width="2.36" stroke-opacity="1.00" stroke-linejoin="round"/>
<path d="M304.00,131.04 C304.00,131.04 303.03,130.86 303.03,130.86 C302.97,131.97 303.31,132.69 304.25,133.16 C304.83,133.44 305.52,133.59 306.02,133.62" fill="none" stroke="rgb(0, 0, 255)" stroke-width="2.36" stroke-opacity="1.00" stroke-linejoin="round"/>
<path d="M307.96,147.29 C307.96,147.29 307.43,145.78 307.43,145.78 C307.43,145.78 306.05,154.40 306.05,154.40 C306.05,154.40 308.92,151.14 308.92,151.14 C308.92,151.14 306.52,151.84 306.52,151.84" fill="none" stroke="rgb(0, 0, 255)" stroke-width="2.36" stroke-opacity="1.00" stroke-linejoin="round"/>
<path d="M331.07,139.01 C331.07,139.01 330.29,137.78 330.29,137.78 C329.03,137.87 325.98,144.09 325.97,145.92 C325.99,147.31 326.62,148.40 327.32,148.65 C327.32,148.65 327.93,148.33 327.93,148.33" fill="none" stroke="rgb(0, 0, 255)" stroke-width="2.36" stroke-opacity="1.00" stroke-linejoin="round"/>
<path d="M325.46,175.55 C325.46,175.55 324.22,174.00 324.22,174.00 C324.22,174.00 323.25,178.33 323.25,178.33 C323.25,178.33 325.29,178.33 325.29,178.33 C325.29,178.33 325.43,178.42 325.43,178.42 C325.43,178.42 325.38,178.62 325.38,178.62" fill="none" stroke="rgb(0, 0, 255)" stroke-width="2.36" stroke-opacity="1.00" stroke-linejoin="round"/>
<path d="M322.16,204.08 C322.16,204.08 319.93,204.17 319.93,204.17 C319.93,204.17 320.30,208.25 320.30,208.25 C323.62,205.81 320.97,203.76 320.49,203.67 C320.49,203.67 319.61,204.68 319.61,204.68 C319.61,204.68 319.83,205.03 319.83,205.03" fill="none" stroke="rgb(0, 0, 255)" stroke-width="2.36" stroke-opacity="1.00" stroke-linejoin="round"/>
<path d="M324.88,273.03 C323.83,272.59 323.23,272.45 322.89,272.67 C322.17,273.24 321.98,278.00 322.98,279.19 C323.83,279.38 324.61,279.23 325.10,278.55 C327.94,274.52 324.24,273.16 323.57,273.06" fill="none" stroke="rgb(0, 0, 255)" stroke-width="2.36" stroke-opacity="1.00" stroke-linejoin="round"/>
<path d="M281.08,247.84 C281.08,247.84 280.70,247.82 280.70,247.82 C280.70,247.82 279.91,247.13 279.91,247.13 C279.91,247.13 280.06,252.28 280.06,252.28 C280.06,252.28 280.67,248.95 280.67,248.95 C280.67,248.95 280.14,249.99 280.14,249.99" fill="none" stroke="rgb(0, 0, 255)" stroke-width="2.36" stroke-opacity="1.00" stroke-linejoin="round"/>
<path d="M270.35,272.14 C270.35,272.14 268.52,271.31 268.52,271.31 C268.52,271.31 268.63,273.64 268.63,273.64 C268.63,273.64 269.89,272.97 269.89,272.97 C269.89,272.97 269.39,272.14 269.39,272.14 C269.39,272.14 268.76,272.53 268.76,272.53" fill="none" stroke="rgb(0, 0, 255)" stroke-width="2.36" stroke-opacity="1.00" stroke-linejoin="round"/>
<path d="M286.15,272.81 C286.15,272.81 285.25,271.99 285.25,271.99 C282.14,273.00 283.27,277.55 283.93,278.29 C283.93,278.29 287.15,277.83 287.15,277.83" fill="none" stroke="rgb(0, 0, 255)" stroke-width="2.36" stroke-opacity="1.00" stroke-linejoin="round"/>
<path d="M329.15,297.69 C328.78,297.64 328.52,297.53 328.37,297.37 C328.23,297.20 327.99,296.74 327.67,295.98 C326.99,299.61 326.77,303.09 327.85,304.31 C328.00,304.47 328.31,304.70 328.78,305.00 C328.78,305.00 330.53,303.92 330.53,303.92" fill="none" stroke="rgb(0, 0, 255)" stroke-width="2.36" stroke-opacity="1.00" stroke-linejoin="round"/>
<path d="M364.59,265.69 C364.59,265.69 362.30,263.51 362.30,263.51 C362.30,263.51 362.01,267.75 362.01,267.75 C362.84,267.00 363.19,266.48 363.02,265.95 C362.82,265.36 362.02,264.20 362.02,264.01 C362.02,264.01 362.14,263.86 362.14,263.86" fill="none" stroke="rgb(0, 0, 255)" stroke-width="2.36" stroke-opacity="1.00" stroke-linejoin="round"/>
<path d="M378.30,234.35 C378.30,234.35 375.93,234.34 375.93,234.34 C375.93,234.34 376.75,237.33 376.75,237.33 C377.24,236.90 377.37,234.24 376.53,233.59 C375.81,233.08 374.80,233.70 374.49,234.01" fill="none" stroke="rgb(0, 0, 255)" stroke-width="2.36" stroke-opacity="1.00" stroke-linejoin="round"/>
<path d="M359.15,200.08 C359.15,200.08 358.90,197.64 358.90,197.64 C357.79,197.92 357.92,199.95 358.81,200.92 C359.79,201.94 361.69,202.00 361.90,200.66 C362.03,199.48 359.53,198.06 358.11,199.04 C357.94,199.16 357.72,199.40 357.44,199.76" fill="none" stroke="rgb(0, 0, 255)" stroke-width="2.36" stroke-opacity="1.00" stroke-linejoin="round"/>
<path d="M381.06,172.57 C381.06,172.57 381.07,169.68 381.07,169.68 C380.44,172.74 381.21,176.09 382.13,176.58 C382.13,176.58 382.38,174.18 382.38,174.18 C382.38,174.18 381.13,174.74 381.13,174.74" fill="none" stroke="rgb(0, 0, 255)" stroke-width="2.36" stroke-opacity="1.00" stroke-linejoin="round"/>
<path d="M386.84,127.84 C386.84,127.84 385.01,127.58 385.01,127.58 C382.38,130.74 382.78,136.72 383.19,138.00 C383.92,138.15 384.73,137.57 385.23,136.24 C387.16,130.91 383.80,128.16 383.44,128.09 C383.44,128.09 383.28,128.49 383.28,128.49" fill="none" stroke="rgb(0, 0, 255)" stroke-width="2.36" stroke-opacity="1.00" stroke-linejoin="round"/>
<path d="M185.29,151.74 C184.35,151.51 183.47,148.77 183.25,145.42 C183.13,143.53 183.11,141.21 183.18,140.95 C183.31,141.01 184.69,146.59 183.99,162.97 C183.68,168.66 181.90,183.96 180.97,191.67 C180.50,195.48 180.53,196.72 180.67,196.85 C180.67,196.85 180.99,196.87 180.99,196.87" fill="none" stroke="rgb(0, 0, 255)" stroke-width="2.36" stroke-opacity="1.00" stroke-linejoin="round"/>
</g>
</svg>
