<?xml version="1.0" encoding="UTF-8" standalone="no"?>
<!DOCTYPE svg PUBLIC "-//W3C//DTD SVG 1.1//EN" "http://www.w3.org/Graphics/SVG/1.1/DTD/svg11.dtd">
<svg width="128.40" height="181.68" viewBox="0.00 0.00 535.00 757.00" xmlns="http://www.w3.org/2000/svg" xmlns:xlink="http://www.w3.org/1999/xlink">
<g stroke-linecap="round" id="58">
<path d="M250.07,372.25 C250.07,372.25 250.84,370.15 250.84,370.15 C250.94,370.28 248.62,383.39 250.08,394.83 C250.61,398.71 252.69,404.31 254.41,405.79 C255.46,406.67 260.96,409.77 261.88,410.11 C263.50,410.68 269.35,410.51 272.21,410.23 C275.04,409.93 279.39,407.56 281.60,404.87 C283.37,402.64 285.17,398.92 286.18,395.16 C287.73,389.22 289.29,378.77 289.77,375.35 C289.77,375.35 289.18,376.25 289.18,376.25" fill="none" stroke="rgb(255, 165, 0)" stroke-width="3.54" stroke-opacity="1.00" stroke-linejoin="round"/>
<path d="M251.71,374.05 C251.71,374.05 250.76,373.47 250.76,373.47 C256.91,375.55 265.75,377.52 268.99,376.94 C271.34,376.46 271.76,375.15 271.98,373.48 C271.98,373.48 271.49,374.67 271.49,374.67 C271.49,374.67 272.72,374.57 272.72,374.57" fill="none" stroke="rgb(255, 165, 0)" stroke-width="3.54" stroke-opacity="1.00" stroke-linejoin="round"/>
<path d="M269.91,377.25 C269.91,377.25 269.77,376.49 269.77,376.49 C270.00,376.19 270.06,376.14 270.63,376.18 C272.66,376.32 274.37,376.27 275.30,375.97 C276.17,375.67 278.01,371.77 278.64,370.48 C278.64,370.48 278.35,370.77 278.35,370.77" fill="none" stroke="rgb(255, 165, 0)" stroke-width="3.54" stroke-opacity="1.00" stroke-linejoin="round"/>
<path d="M278.37,375.69 C278.37,375.69 277.43,375.62 277.43,375.62 C278.89,376.29 287.68,376.62 289.40,376.09 C289.57,376.04 289.82,375.95 290.14,375.82" fill="none" stroke="rgb(255, 165, 0)" stroke-width="3.54" stroke-opacity="1.00" stroke-linejoin="round"/>
<path d="M252.34,386.41 C252.34,386.41 251.68,386.69 251.68,386.69 C251.66,386.61 251.73,386.26 251.91,385.79 C252.60,384.04 256.07,379.42 257.80,379.18 C259.51,379.01 262.08,382.50 263.13,384.11 C263.13,384.11 263.14,383.87 263.14,383.87" fill="none" stroke="rgb(255, 165, 0)" stroke-width="3.54" stroke-opacity="1.00" stroke-linejoin="round"/>
<path d="M273.36,387.84 C273.36,387.84 272.23,387.87 272.23,387.87 C276.40,383.92 279.07,381.83 280.33,381.68 C281.75,381.63 283.49,383.54 285.15,386.46 C285.28,386.66 285.46,386.86 285.70,387.05 C285.70,387.05 285.89,386.74 285.89,386.74" fill="none" stroke="rgb(255, 165, 0)" stroke-width="3.54" stroke-opacity="1.00" stroke-linejoin="round"/>
<path d="M267.98,391.21 C267.98,391.21 267.98,389.56 267.98,389.56 C267.98,389.56 268.44,392.89 268.44,392.89 C268.44,392.89 267.42,391.74 267.42,391.74" fill="none" stroke="rgb(255, 165, 0)" stroke-width="3.54" stroke-opacity="1.00" stroke-linejoin="round"/>
<path d="M258.27,396.59 C258.27,396.59 258.06,395.67 258.06,395.67 C258.06,395.67 258.04,395.79 258.04,395.79 C258.51,395.77 260.01,400.36 260.67,401.50 C261.26,402.48 263.35,404.28 264.81,405.10 C266.20,405.84 268.51,406.28 269.87,406.04 C271.42,405.72 273.69,404.37 274.46,403.27 C275.40,401.83 276.62,397.64 276.59,396.29 C276.59,396.29 275.64,395.72 275.64,395.72" fill="none" stroke="rgb(255, 165, 0)" stroke-width="3.54" stroke-opacity="1.00" stroke-linejoin="round"/>
<path d="M268.36,345.55 C268.43,345.30 268.48,345.14 268.53,345.06 C268.58,344.98 268.67,344.87 268.82,344.73 C268.82,344.73 269.28,344.84 269.28,344.84 C269.40,344.99 269.22,346.73 263.91,348.04 C261.33,348.67 257.48,350.98 255.54,353.09 C254.83,353.87 249.01,361.19 248.59,361.70 C247.10,363.57 245.65,367.99 245.19,371.50 C243.76,382.05 241.24,395.19 241.13,395.48 C240.64,396.71 239.23,399.69 239.31,399.98 C239.38,400.23 239.45,400.49 239.52,400.76 C239.52,400.76 252.13,401.82 252.13,401.82 C252.13,401.82 252.30,401.03 252.30,401.03" fill="none" stroke="rgb(255, 165, 0)" stroke-width="3.54" stroke-opacity="1.00" stroke-linejoin="round"/>
<path d="M270.88,347.06 C270.82,346.80 270.77,346.63 270.73,346.53 C270.62,346.30 270.49,346.13 270.33,346.00 C270.25,345.94 270.09,345.87 269.86,345.79 C270.50,345.83 278.77,345.36 280.62,345.84 C282.16,346.28 293.07,353.87 295.06,356.36 C296.21,357.84 299.57,363.90 300.07,364.86 C301.57,367.79 302.41,374.84 304.59,386.91 C305.49,391.95 305.89,398.16 305.92,398.45 C306.05,399.37 306.64,400.83 307.22,401.16 C308.38,401.71 309.95,402.48 310.14,402.82 C310.14,402.82 310.11,403.87 310.11,403.87" fill="none" stroke="rgb(255, 165, 0)" stroke-width="3.54" stroke-opacity="1.00" stroke-linejoin="round"/>
<path d="M282.23,407.90 C282.23,407.90 282.25,406.87 282.25,406.87 C282.25,406.87 281.93,407.33 281.93,407.33 C290.29,409.28 309.70,405.78 309.96,405.82 C309.96,405.82 309.82,406.30 309.82,406.30" fill="none" stroke="rgb(255, 165, 0)" stroke-width="3.54" stroke-opacity="1.00" stroke-linejoin="round"/>
<path d="M261.88,413.49 C261.88,413.16 261.89,412.93 261.89,412.80 C261.90,412.61 261.92,412.35 261.96,412.02 C261.99,411.78 262.02,411.55 262.05,411.31 C262.05,411.30 262.05,411.32 262.05,411.33 C262.14,413.13 262.37,418.10 262.44,418.89 C262.56,420.35 262.84,421.43 263.03,421.62 C263.03,421.62 263.15,421.02 263.15,421.02" fill="none" stroke="rgb(255, 165, 0)" stroke-width="3.54" stroke-opacity="1.00" stroke-linejoin="round"/>
<path d="M272.40,412.61 C272.40,412.61 272.12,412.09 272.12,412.09 C272.44,412.15 272.36,418.64 272.32,420.85 C272.32,421.38 272.31,421.90 272.31,422.43 C272.31,422.43 272.36,422.18 272.36,422.18" fill="none" stroke="rgb(255, 165, 0)" stroke-width="3.54" stroke-opacity="1.00" stroke-linejoin="round"/>
<path d="M260.13,419.63 C260.13,419.63 260.33,419.13 260.33,419.13 C259.45,419.08 253.94,419.78 251.21,420.10 C248.39,420.55 244.61,422.99 240.26,426.29 C239.02,427.25 238.11,428.27 236.94,429.87 C236.94,429.87 236.91,429.72 236.91,429.72" fill="none" stroke="rgb(255, 165, 0)" stroke-width="3.54" stroke-opacity="1.00" stroke-linejoin="round"/>
<path d="M234.51,420.68 C234.51,420.68 234.37,419.66 234.37,419.66 C234.80,419.90 237.15,429.32 237.30,429.84 C237.64,430.99 238.05,431.80 238.37,432.12 C238.37,432.12 238.63,431.42 238.63,431.42" fill="none" stroke="rgb(255, 165, 0)" stroke-width="3.54" stroke-opacity="1.00" stroke-linejoin="round"/>
<path d="M230.94,412.99 C231.06,412.60 231.33,411.97 231.44,411.74 C231.49,411.63 231.56,411.45 231.65,411.21 C231.65,411.21 231.45,410.62 231.45,410.62 C230.87,410.24 229.95,409.91 229.32,410.12 C228.35,410.46 226.40,412.52 225.75,413.85 C225.13,415.21 226.60,418.06 228.50,418.80 C230.35,419.47 233.78,418.93 234.60,417.75 C235.39,416.52 235.04,413.22 234.09,412.47 C231.71,410.69 228.13,410.90 227.57,411.16 C227.57,411.16 227.55,411.39 227.55,411.39" fill="none" stroke="rgb(255, 165, 0)" stroke-width="3.54" stroke-opacity="1.00" stroke-linejoin="round"/>
<path d="M224.42,422.78 C224.42,422.78 224.15,422.84 224.15,422.84 C224.10,422.29 224.13,422.12 224.37,421.64 C224.41,421.56 224.46,421.42 224.52,421.22 C224.52,421.22 224.41,421.04 224.41,421.04 C223.75,421.33 223.01,425.09 223.15,428.80 C223.24,430.84 224.07,436.44 224.73,438.51 C225.72,441.45 227.85,444.43 230.06,445.50 C232.07,446.40 236.40,446.49 238.41,445.75 C239.91,445.18 245.74,442.33 246.08,442.56 C246.08,442.56 245.91,443.04 245.91,443.04" fill="none" stroke="rgb(255, 165, 0)" stroke-width="3.54" stroke-opacity="1.00" stroke-linejoin="round"/>
<path d="M243.81,436.78 C243.81,436.78 243.82,435.22 243.82,435.22 C243.25,437.49 243.25,442.73 243.44,445.55 C244.05,453.49 246.16,465.86 246.92,466.46 C246.92,466.46 247.46,464.86 247.46,464.86" fill="none" stroke="rgb(255, 165, 0)" stroke-width="3.54" stroke-opacity="1.00" stroke-linejoin="round"/>
<path d="M281.44,446.20 C281.44,446.20 280.92,445.14 280.92,445.14 C280.92,445.14 282.29,456.70 282.29,456.70 C282.29,456.70 282.36,455.26 282.36,455.26" fill="none" stroke="rgb(255, 165, 0)" stroke-width="3.54" stroke-opacity="1.00" stroke-linejoin="round"/>
<path d="M285.51,425.77 C285.54,425.61 285.56,425.44 285.58,425.28 C285.61,425.11 285.64,424.93 285.67,424.76 C285.67,424.76 285.74,424.71 285.74,424.71 C287.15,425.18 289.72,429.05 290.73,432.22 C295.39,448.17 294.36,459.43 294.26,459.44 C294.26,459.44 293.52,457.84 293.52,457.84" fill="none" stroke="rgb(255, 165, 0)" stroke-width="3.54" stroke-opacity="1.00" stroke-linejoin="round"/>
<path d="M273.15,422.28 C273.15,422.28 271.79,422.28 271.79,422.28 C271.79,422.28 286.81,425.82 286.81,425.82 C286.83,426.01 286.82,426.14 286.79,426.21 C286.75,426.28 286.63,426.38 286.43,426.52" fill="none" stroke="rgb(255, 165, 0)" stroke-width="3.54" stroke-opacity="1.00" stroke-linejoin="round"/>
<path d="M288.54,462.09 C287.96,460.16 286.05,458.73 285.00,458.57 C284.40,458.51 283.18,459.01 282.62,459.66 C281.93,460.50 281.08,463.42 281.01,465.10 C280.97,466.83 283.46,470.94 285.71,471.74 C287.97,472.49 292.83,471.56 294.30,470.56 C295.41,469.75 296.19,466.89 295.81,465.02 C295.41,463.23 292.38,458.57 290.49,457.88 C289.95,457.69 288.74,457.47 286.88,457.24 C286.88,457.24 286.95,457.14 286.95,457.14" fill="none" stroke="rgb(255, 165, 0)" stroke-width="3.54" stroke-opacity="1.00" stroke-linejoin="round"/>
<path d="M247.17,466.46 C247.17,466.46 243.83,467.07 243.83,467.07 C245.87,468.91 259.72,469.40 266.09,469.08 C270.03,468.86 274.68,468.49 276.90,468.16 C278.21,467.97 283.19,467.30 284.16,468.19 C284.28,468.31 284.44,468.54 284.62,468.88 C284.62,468.88 284.51,469.22 284.51,469.22" fill="none" stroke="rgb(255, 165, 0)" stroke-width="3.54" stroke-opacity="1.00" stroke-linejoin="round"/>
<path d="M242.71,465.58 C242.71,465.58 242.25,465.58 242.25,465.58 C242.25,465.58 242.85,465.71 242.85,465.71 C242.85,465.71 232.51,509.07 232.51,509.07 C232.51,509.07 233.23,508.58 233.23,508.58" fill="none" stroke="rgb(255, 165, 0)" stroke-width="3.54" stroke-opacity="1.00" stroke-linejoin="round"/>
<path d="M238.26,507.54 C238.26,507.54 235.32,506.62 235.32,506.62 C244.78,506.91 274.95,504.54 287.47,503.80 C291.99,503.42 292.61,503.73 292.83,503.94 C292.83,503.94 291.88,504.57 291.88,504.57" fill="none" stroke="rgb(255, 165, 0)" stroke-width="3.54" stroke-opacity="1.00" stroke-linejoin="round"/>
<path d="M287.96,478.90 C287.96,478.90 288.89,475.92 288.89,475.92 C290.16,476.65 294.76,507.92 294.42,508.25 C294.42,508.25 293.91,508.30 293.91,508.30" fill="none" stroke="rgb(255, 165, 0)" stroke-width="3.54" stroke-opacity="1.00" stroke-linejoin="round"/>
<path d="M249.23,511.95 C249.23,511.95 248.70,512.17 248.70,512.17 C248.59,511.71 248.60,511.07 248.79,510.01 C249.10,508.21 249.15,507.74 249.08,507.31 C249.08,507.31 247.19,530.86 247.19,530.86 C247.19,530.86 246.22,528.99 246.22,528.99" fill="none" stroke="rgb(255, 165, 0)" stroke-width="3.54" stroke-opacity="1.00" stroke-linejoin="round"/>
<path d="M264.16,509.80 C264.16,509.80 264.69,507.69 264.69,507.69 C264.69,507.69 261.91,530.34 261.91,530.34 C261.91,530.34 261.96,528.24 261.96,528.24" fill="none" stroke="rgb(255, 165, 0)" stroke-width="3.54" stroke-opacity="1.00" stroke-linejoin="round"/>
<path d="M275.01,509.63 C275.01,509.63 274.69,508.67 274.69,508.67 C274.69,508.67 273.10,530.95 273.10,530.95 C273.10,530.95 273.69,529.19 273.69,529.19" fill="none" stroke="rgb(255, 165, 0)" stroke-width="3.54" stroke-opacity="1.00" stroke-linejoin="round"/>
<path d="M260.38,531.45 C260.38,531.45 261.41,529.29 261.41,529.29 C260.46,533.23 259.64,538.00 260.13,540.78 C260.39,542.09 262.52,543.80 264.17,543.83 C265.79,543.85 275.10,542.66 277.69,543.05 C281.36,543.74 285.07,543.45 287.42,542.00 C288.41,541.34 289.19,540.16 289.25,539.21 C289.26,538.23 288.58,536.30 287.86,535.76 C286.14,534.54 275.19,533.21 274.18,533.88 C274.18,533.88 274.12,534.24 274.12,534.24" fill="none" stroke="rgb(255, 165, 0)" stroke-width="3.54" stroke-opacity="1.00" stroke-linejoin="round"/>
<path d="M256.59,531.87 C256.59,531.87 256.51,531.63 256.51,531.63 C256.29,531.57 251.23,532.08 248.68,532.66 C244.51,533.60 241.25,533.84 236.82,533.31 C234.09,532.98 231.37,533.83 230.83,534.80 C230.17,536.10 230.82,539.38 231.94,540.53 C233.24,541.79 236.88,542.51 238.95,542.41 C242.07,542.25 258.44,540.83 258.72,540.51 C258.72,540.51 259.46,530.93 259.46,530.93 C259.46,530.93 259.45,531.40 259.45,531.40" fill="none" stroke="rgb(255, 165, 0)" stroke-width="3.54" stroke-opacity="1.00" stroke-linejoin="round"/>
<path d="M247.55,546.42 C247.55,546.42 247.14,545.57 247.14,545.57 C247.22,546.71 247.56,549.36 247.86,550.07 C248.12,550.67 249.26,551.18 249.85,551.11 C251.39,550.84 253.81,550.20 254.72,549.74 C255.61,549.26 256.40,548.17 256.60,546.97 C256.88,545.15 257.06,543.88 257.12,543.15 C257.16,542.72 257.13,542.40 257.05,542.22 C257.05,542.22 256.81,542.49 256.81,542.49" fill="none" stroke="rgb(255, 165, 0)" stroke-width="3.54" stroke-opacity="1.00" stroke-linejoin="round"/>
<path d="M256.59,550.54 C256.59,550.54 256.55,550.38 256.55,550.38 C258.45,549.87 264.35,550.74 265.04,550.83 C266.24,550.98 267.54,550.69 268.23,550.16 C268.70,549.76 269.39,547.43 269.62,546.64 C269.82,545.95 269.75,545.73 269.29,544.80 C269.22,544.68 269.17,544.58 269.15,544.52 C269.10,544.58 269.07,544.63 269.04,544.65 C269.01,544.67 268.95,544.70 268.86,544.74" fill="none" stroke="rgb(255, 165, 0)" stroke-width="3.54" stroke-opacity="1.00" stroke-linejoin="round"/>
<path d="M257.98,544.78 C257.98,544.78 258.67,542.30 258.67,542.30 C258.67,542.30 259.62,548.82 259.62,548.82 C259.62,548.82 260.09,548.82 260.09,548.82 C260.09,548.82 260.19,548.67 260.19,548.67" fill="none" stroke="rgb(255, 165, 0)" stroke-width="3.54" stroke-opacity="1.00" stroke-linejoin="round"/>
<path d="M208.28,340.37 C208.33,340.04 208.37,339.82 208.40,339.71 C208.46,339.56 208.57,339.44 208.65,339.30 C208.67,339.26 208.67,339.23 208.65,339.20 C208.11,339.09 207.32,339.26 205.72,339.95 C201.83,341.67 198.00,344.65 195.71,347.17 C193.20,349.98 191.12,353.84 190.58,357.50 C190.13,360.78 189.89,367.54 190.68,370.55 C190.88,371.29 193.58,379.13 195.48,381.53 C196.98,383.38 202.94,387.37 205.79,389.10 C207.62,390.19 210.07,391.09 211.84,391.20 C213.11,391.26 222.02,391.47 224.35,390.51 C226.58,389.61 230.22,388.07 231.56,386.23 C231.73,385.99 231.90,385.75 232.07,385.51 C232.07,385.51 231.98,385.48 231.98,385.48" fill="none" stroke="rgb(255, 165, 0)" stroke-width="3.54" stroke-opacity="1.00" stroke-linejoin="round"/>
<path d="M212.28,340.91 C212.28,340.91 212.10,339.91 212.10,339.91 C212.10,339.91 208.09,339.63 208.09,339.63 C208.64,340.53 221.16,339.43 222.38,339.50 C223.99,339.61 230.01,342.96 231.28,344.37 C233.78,347.24 236.02,352.78 236.15,352.90 C237.40,353.84 238.43,355.39 238.49,358.24 C238.64,370.05 235.38,384.30 233.67,389.16 C233.67,389.16 233.16,388.37 233.16,388.37" fill="none" stroke="rgb(255, 165, 0)" stroke-width="3.54" stroke-opacity="1.00" stroke-linejoin="round"/>
<path d="M191.13,372.07 C191.13,372.07 191.03,371.90 191.03,371.90 C190.62,371.84 190.23,371.74 190.03,371.59 C189.68,371.33 189.26,370.78 189.00,370.31 C189.00,370.31 196.94,366.29 196.94,366.29 C196.94,366.29 199.64,369.42 199.64,369.42 C199.64,369.42 203.18,365.65 203.18,365.65 C203.18,365.65 204.23,367.59 204.23,367.59 C204.71,367.58 205.56,366.83 205.89,366.54 C206.56,365.96 208.98,366.72 209.91,366.93 C210.67,367.11 213.47,365.89 214.46,365.91 C215.59,366.70 216.30,367.11 216.79,367.16 C217.61,367.21 220.75,364.80 221.38,364.55 C221.38,364.55 224.95,366.69 224.95,366.69 C226.15,365.79 226.89,364.99 227.17,364.81 C227.97,364.33 230.41,365.56 232.61,365.14 C232.78,365.10 232.97,365.12 233.19,365.20 C233.19,365.20 234.59,366.72 234.59,366.72 C234.59,366.72 235.92,365.51 235.92,365.51 C235.92,365.51 235.98,365.50 235.98,365.50 C235.98,365.50 235.80,365.55 235.80,365.55" fill="none" stroke="rgb(255, 165, 0)" stroke-width="3.54" stroke-opacity="1.00" stroke-linejoin="round"/>
<path d="M200.84,374.80 C200.73,374.85 200.61,374.90 200.50,374.95 C200.33,375.02 200.23,375.11 200.17,375.20 C200.04,375.44 199.75,376.17 199.35,376.70 C199.66,375.86 201.96,373.07 203.44,372.30 C204.88,371.63 207.71,372.60 208.11,373.25 C208.30,373.58 208.62,374.78 208.62,374.76" fill="none" stroke="rgb(255, 165, 0)" stroke-width="3.54" stroke-opacity="1.00" stroke-linejoin="round"/>
<path d="M221.23,375.89 C221.23,375.89 219.89,376.00 219.89,376.00 C219.84,374.88 223.31,371.53 224.13,371.45 C225.34,371.42 227.48,374.20 227.85,375.72 C227.85,375.72 227.42,375.19 227.42,375.19" fill="none" stroke="rgb(255, 165, 0)" stroke-width="3.54" stroke-opacity="1.00" stroke-linejoin="round"/>
<path d="M216.40,375.94 C216.16,375.86 215.99,375.78 215.88,375.69 C215.78,375.60 215.58,375.39 215.30,375.05 C215.30,375.05 216.28,379.85 216.28,379.85 C216.28,379.85 216.35,379.68 216.35,379.68" fill="none" stroke="rgb(255, 165, 0)" stroke-width="3.54" stroke-opacity="1.00" stroke-linejoin="round"/>
<path d="M208.66,384.51 C208.66,384.51 208.52,384.16 208.52,384.16 C208.52,384.16 207.74,383.62 207.74,383.62 C208.54,384.08 215.89,388.05 217.58,387.96 C219.52,387.76 222.53,385.35 223.93,383.23 C223.94,383.21 223.97,383.17 223.96,383.16 C223.93,383.15 223.85,383.13 223.73,383.08 C223.73,383.08 223.08,379.81 223.08,379.81" fill="none" stroke="rgb(255, 165, 0)" stroke-width="3.54" stroke-opacity="1.00" stroke-linejoin="round"/>
<path d="M210.09,396.28 C210.01,396.09 209.94,395.89 209.93,395.72 C209.92,395.63 209.92,395.40 209.92,395.04 C209.92,395.04 211.58,403.32 211.58,403.32 C211.58,403.32 211.97,402.61 211.97,402.61" fill="none" stroke="rgb(255, 165, 0)" stroke-width="3.54" stroke-opacity="1.00" stroke-linejoin="round"/>
<path d="M219.59,394.77 C219.59,394.77 218.86,394.77 218.86,394.77 C218.72,395.06 218.61,396.00 218.46,398.54 C218.31,401.08 218.24,402.08 218.17,402.49 C218.17,402.53 218.16,402.55 218.16,402.55" fill="none" stroke="rgb(255, 165, 0)" stroke-width="3.54" stroke-opacity="1.00" stroke-linejoin="round"/>
<path d="M217.83,405.24 C217.83,405.24 217.65,404.99 217.65,404.99" fill="none" stroke="rgb(255, 165, 0)" stroke-width="3.54" stroke-opacity="1.00" stroke-linejoin="round"/>
<path d="M212.49,402.30 C212.49,402.30 212.29,401.78 212.29,401.78 C212.29,401.78 210.73,400.91 210.73,400.91 C210.73,400.91 221.55,401.75 221.55,401.75 C221.55,401.75 221.67,402.56 221.67,402.56" fill="none" stroke="rgb(255, 165, 0)" stroke-width="3.54" stroke-opacity="1.00" stroke-linejoin="round"/>
<path d="M209.63,399.82 C209.63,399.82 209.33,399.38 209.33,399.38 C208.59,399.19 206.76,399.16 206.05,399.13 C202.34,399.00 200.19,399.29 197.33,400.78 C193.34,402.95 190.93,404.59 189.35,407.42 C187.63,410.61 185.86,418.84 185.98,421.87 C186.16,424.99 189.56,431.25 191.63,433.18 C193.02,434.44 207.52,443.65 208.37,443.81 C208.41,443.82 222.80,443.20 223.35,443.51 C223.35,443.51 223.84,442.84 223.84,442.84" fill="none" stroke="rgb(255, 165, 0)" stroke-width="3.54" stroke-opacity="1.00" stroke-linejoin="round"/>
<path d="M201.56,413.69 C201.56,413.69 201.27,412.05 201.27,412.05 C200.54,412.38 200.11,415.50 200.59,416.90 C201.23,418.63 205.02,422.48 208.17,424.20 C211.84,426.17 216.48,429.11 218.40,430.07 C219.49,430.61 223.53,431.37 223.62,431.68 C223.62,431.68 225.41,443.72 225.41,443.72 C225.41,443.72 226.04,443.24 226.04,443.24 C226.04,443.24 226.00,439.64 226.00,439.64" fill="none" stroke="rgb(255, 165, 0)" stroke-width="3.54" stroke-opacity="1.00" stroke-linejoin="round"/>
<path d="M222.79,434.25 C222.79,434.25 220.95,434.28 220.95,434.28 C221.56,434.03 226.09,434.18 227.96,435.00 C229.88,435.89 231.68,438.60 231.57,440.62 C231.43,442.38 229.92,445.38 227.53,447.51 C227.53,447.51 228.82,447.32 228.82,447.32" fill="none" stroke="rgb(255, 165, 0)" stroke-width="3.54" stroke-opacity="1.00" stroke-linejoin="round"/>
<path d="M220.85,402.13 C220.85,402.13 220.09,402.55 220.09,402.55 C220.09,402.55 220.11,402.20 220.11,402.20 C220.96,401.51 234.28,402.59 240.59,404.63 C244.43,405.91 247.21,407.51 249.59,409.71 C251.37,411.37 255.05,414.06 256.27,414.48 C257.46,414.89 261.79,415.27 261.79,415.43 C261.79,415.43 261.43,416.22 261.43,416.22" fill="none" stroke="rgb(255, 165, 0)" stroke-width="3.54" stroke-opacity="1.00" stroke-linejoin="round"/>
<path d="M234.94,417.39 C234.94,417.39 235.36,416.26 235.36,416.26 C235.50,416.33 235.70,416.38 235.96,416.40 C239.17,416.72 252.40,420.70 255.79,420.31 C257.14,420.14 260.12,419.25 262.53,418.43 C262.53,418.43 263.58,420.21 263.58,420.21" fill="none" stroke="rgb(255, 165, 0)" stroke-width="3.54" stroke-opacity="1.00" stroke-linejoin="round"/>
<path d="M271.73,416.51 C271.73,416.51 269.49,415.40 269.49,415.40 C270.38,414.77 277.86,413.63 280.09,414.10 C282.20,414.59 285.42,418.59 286.74,420.29 C288.22,422.29 288.30,422.94 288.33,423.61 C288.33,423.61 283.21,424.77 283.21,424.77 C283.21,424.77 283.02,423.61 283.02,423.61" fill="none" stroke="rgb(255, 165, 0)" stroke-width="3.54" stroke-opacity="1.00" stroke-linejoin="round"/>
<path d="M197.14,444.47 C196.75,444.44 196.24,444.24 195.95,443.88 C195.65,443.50 194.90,441.48 194.64,440.91 C194.64,440.91 194.40,459.55 194.40,459.55 C195.07,460.37 196.20,461.07 197.53,461.26 C203.58,462.17 215.64,463.95 222.64,463.66 C224.78,463.56 237.09,462.73 237.71,462.91 C237.71,462.91 237.84,463.09 237.84,463.09 C237.84,463.09 237.74,463.14 237.74,463.14" fill="none" stroke="rgb(255, 165, 0)" stroke-width="3.54" stroke-opacity="1.00" stroke-linejoin="round"/>
<path d="M235.11,447.24 C235.11,447.24 233.75,447.45 233.75,447.45 C233.67,448.60 234.58,454.36 235.08,457.68 C235.51,460.59 236.21,465.24 237.66,468.77 C238.33,470.39 238.76,471.29 239.35,472.40 C239.35,472.40 239.66,471.12 239.66,471.12" fill="none" stroke="rgb(255, 165, 0)" stroke-width="3.54" stroke-opacity="1.00" stroke-linejoin="round"/>
<path d="M198.15,463.93 C197.99,463.20 197.89,462.65 197.85,462.27 C197.81,461.89 197.78,461.14 197.74,460.04 C197.74,460.04 188.61,492.54 188.61,492.54 C188.61,492.54 210.67,495.83 210.67,495.83 C211.24,495.20 212.10,494.01 212.66,493.08 C212.68,493.04 212.71,492.91 212.67,492.94" fill="none" stroke="rgb(255, 165, 0)" stroke-width="3.54" stroke-opacity="1.00" stroke-linejoin="round"/>
<path d="M217.58,479.57 C217.58,479.57 217.34,477.20 217.34,477.20 C215.73,480.48 210.99,489.83 210.84,490.16 C209.75,492.45 209.25,493.91 209.49,493.90 C209.49,493.90 210.15,493.24 210.15,493.24" fill="none" stroke="rgb(255, 165, 0)" stroke-width="3.54" stroke-opacity="1.00" stroke-linejoin="round"/>
<path d="M219.68,476.12 C219.68,476.12 218.50,476.23 218.50,476.23 C218.18,477.08 218.84,482.80 219.28,486.54 C219.99,491.81 220.67,495.82 220.84,495.79 C220.84,495.79 220.85,495.47 220.85,495.47" fill="none" stroke="rgb(255, 165, 0)" stroke-width="3.54" stroke-opacity="1.00" stroke-linejoin="round"/>
<path d="M222.70,497.10 C222.70,497.10 221.20,497.24 221.20,497.24 C221.20,497.24 235.04,496.85 235.04,496.85 C235.04,496.85 235.07,498.98 235.07,498.98" fill="none" stroke="rgb(255, 165, 0)" stroke-width="3.54" stroke-opacity="1.00" stroke-linejoin="round"/>
<path d="M194.58,493.45 C194.58,493.45 193.73,493.42 193.73,493.42 C193.73,493.42 193.65,493.25 193.65,493.25 C192.18,504.47 193.23,520.17 193.67,520.88 C193.67,520.88 194.28,519.14 194.28,519.14" fill="none" stroke="rgb(255, 165, 0)" stroke-width="3.54" stroke-opacity="1.00" stroke-linejoin="round"/>
<path d="M205.05,496.31 C205.05,496.31 204.81,493.80 204.81,493.80 C204.81,493.80 199.51,525.60 199.51,525.60 C199.51,525.60 199.53,524.35 199.53,524.35" fill="none" stroke="rgb(255, 165, 0)" stroke-width="3.54" stroke-opacity="1.00" stroke-linejoin="round"/>
<path d="M195.67,527.00 C195.67,527.00 195.62,527.15 195.62,527.15 C195.62,527.15 195.55,525.35 195.55,525.35 C195.28,524.97 182.37,523.31 181.83,523.30 C180.37,523.28 178.63,524.05 177.88,525.02 C177.41,525.68 176.47,527.84 176.41,528.49 C176.37,529.47 177.16,531.23 178.04,531.96 C179.00,532.71 187.89,537.03 190.11,537.88 C193.21,539.05 197.97,539.58 200.68,538.84 C201.84,538.50 203.83,537.69 204.51,537.24 C205.34,536.67 206.04,535.39 206.14,534.30 C206.19,533.20 205.69,530.81 205.12,530.10 C203.91,528.68 198.87,527.85 193.57,527.23 C190.09,526.84 188.01,526.21 187.74,525.97 C187.74,525.97 188.58,526.17 188.58,526.17" fill="none" stroke="rgb(255, 165, 0)" stroke-width="3.54" stroke-opacity="1.00" stroke-linejoin="round"/>
<path d="M223.38,498.03 C223.38,498.03 222.92,497.93 222.92,497.93 C222.92,497.93 222.54,497.28 222.54,497.28 C222.54,497.28 221.91,528.05 221.91,528.05 C221.91,528.05 221.95,525.49 221.95,525.49" fill="none" stroke="rgb(255, 165, 0)" stroke-width="3.54" stroke-opacity="1.00" stroke-linejoin="round"/>
<path d="M231.11,500.72 C231.11,500.72 231.00,499.93 231.00,499.93 C231.00,499.93 231.49,526.25 231.49,526.25 C231.49,526.25 230.23,523.36 230.23,523.36" fill="none" stroke="rgb(255, 165, 0)" stroke-width="3.54" stroke-opacity="1.00" stroke-linejoin="round"/>
<path d="M221.91,533.72 C222.03,533.29 222.85,532.36 223.13,531.97 C223.27,531.78 223.46,531.46 223.68,531.01 C223.56,530.77 222.17,530.00 221.13,530.54 C219.45,531.42 217.52,536.22 217.76,538.34 C218.03,540.18 220.26,542.71 222.05,543.27 C223.66,543.73 226.82,542.81 228.05,541.95 C228.11,541.91 228.16,541.88 228.21,541.88" fill="none" stroke="rgb(255, 165, 0)" stroke-width="3.54" stroke-opacity="1.00" stroke-linejoin="round"/>
<path d="M222.79,529.60 C222.79,529.60 221.22,529.37 221.22,529.37 C222.19,529.65 226.38,528.97 230.35,528.13 C233.84,527.47 237.34,527.80 238.54,528.96 C239.79,530.30 239.79,534.29 239.94,534.60 C239.94,534.60 240.31,534.54 240.31,534.54 C240.31,534.54 240.38,534.33 240.38,534.33" fill="none" stroke="rgb(255, 165, 0)" stroke-width="3.54" stroke-opacity="1.00" stroke-linejoin="round"/>
<path d="M234.74,205.37 C234.95,204.76 235.14,204.31 235.32,204.02 C235.59,203.57 238.57,199.55 238.62,198.65 C237.87,197.35 234.08,196.59 231.16,196.73 C224.12,197.06 213.81,199.42 203.75,202.22 C195.22,204.66 184.34,208.65 178.01,212.00 C172.70,214.85 162.43,223.04 157.66,228.12 C153.92,232.13 146.70,242.51 143.40,248.47 C140.45,253.83 135.54,265.50 133.49,272.71 C130.95,281.76 129.28,304.37 129.02,305.92 C129.02,305.92 128.28,304.96 128.28,304.96" fill="none" stroke="rgb(237, 28, 36)" stroke-width="3.54" stroke-opacity="1.00" stroke-linejoin="round"/>
<path d="M238.29,202.28 C238.29,202.28 237.69,202.10 237.69,202.10 C237.69,202.10 237.26,201.43 237.26,201.43 C237.26,201.43 238.01,200.60 238.01,200.60 C234.02,205.43 224.84,216.78 221.03,222.93 C215.02,232.98 209.86,243.08 208.08,247.21 C206.63,250.61 198.80,271.89 196.93,278.30 C192.70,292.87 191.03,307.60 190.85,310.29 C190.85,310.29 190.94,308.63 190.94,308.63" fill="none" stroke="rgb(237, 28, 36)" stroke-width="3.54" stroke-opacity="1.00" stroke-linejoin="round"/>
<path d="M242.36,207.40 C242.27,206.16 242.03,202.72 242.06,202.02 C242.12,200.33 242.59,199.07 243.08,198.79 C244.33,204.31 248.07,217.05 249.15,224.60 C250.91,237.74 253.43,279.44 253.21,286.63 C252.98,293.96 250.27,310.23 249.92,312.74 C249.87,312.69 249.86,312.52 249.90,312.03 C249.91,311.86 249.92,311.69 249.93,311.52" fill="none" stroke="rgb(237, 28, 36)" stroke-width="3.54" stroke-opacity="1.00" stroke-linejoin="round"/>
<path d="M247.79,202.13 C246.68,200.13 244.68,199.32 243.21,199.21 C245.35,200.14 247.10,201.37 248.91,203.35 C249.40,203.90 263.37,218.95 266.75,223.52 C270.85,229.09 277.97,240.58 282.60,249.38 C284.25,252.61 287.84,259.67 288.67,261.95 C290.39,266.72 304.60,318.01 304.20,318.46 C304.20,318.46 303.05,317.98 303.05,317.98" fill="none" stroke="rgb(237, 28, 36)" stroke-width="3.54" stroke-opacity="1.00" stroke-linejoin="round"/>
<path d="M253.39,201.12 C253.39,201.12 252.86,201.03 252.86,201.03" fill="none" stroke="rgb(237, 28, 36)" stroke-width="3.54" stroke-opacity="1.00" stroke-linejoin="round"/>
<path d="M247.34,202.48 C246.85,202.43 246.37,202.29 246.18,202.06 C246.02,201.86 245.66,201.28 245.31,201.08 C249.37,202.03 253.18,202.41 258.19,202.30 C262.18,202.25 269.37,204.00 271.53,204.21 C279.40,204.79 284.76,205.90 294.01,208.32 C297.42,209.21 312.43,215.31 314.19,216.39 C323.72,222.39 341.06,242.16 347.73,249.06 C351.14,252.63 353.13,254.97 354.81,258.01 C359.55,266.85 363.29,275.76 364.19,281.62 C364.41,283.01 365.94,287.96 365.74,288.09 C365.74,288.09 364.67,286.73 364.67,286.73" fill="none" stroke="rgb(237, 28, 36)" stroke-width="3.54" stroke-opacity="1.00" stroke-linejoin="round"/>
<path d="M131.84,304.53 C131.80,304.44 131.77,304.35 131.73,304.26 C131.71,304.22 131.69,304.16 131.66,304.09 C131.93,303.82 132.08,303.65 132.11,303.57 C132.21,303.34 132.23,301.67 132.66,300.82 C133.87,298.48 138.61,294.76 140.80,293.70 C145.29,291.55 156.83,289.67 161.91,289.86 C164.55,289.99 168.64,290.89 174.86,292.62 C178.20,293.63 182.62,296.91 185.13,299.42 C188.47,302.85 194.01,312.39 194.54,312.56 C194.59,312.57 194.72,312.58 194.92,312.59" fill="none" stroke="rgb(237, 28, 36)" stroke-width="3.54" stroke-opacity="1.00" stroke-linejoin="round"/>
<path d="M191.72,315.36 C191.57,314.29 192.70,312.73 193.69,311.18 C194.40,310.07 197.56,303.73 199.03,301.87 C201.27,299.08 209.77,292.88 213.56,290.96 C216.65,289.42 223.26,287.61 226.10,287.68 C228.78,287.79 234.36,289.92 236.48,291.77 C241.95,296.64 248.02,304.78 250.84,308.74 C251.93,310.15 254.28,313.11 254.93,314.41 C254.93,314.41 254.63,313.76 254.63,313.76" fill="none" stroke="rgb(237, 28, 36)" stroke-width="3.54" stroke-opacity="1.00" stroke-linejoin="round"/>
<path d="M254.62,315.45 C254.01,313.95 253.70,313.00 253.82,312.72 C254.49,311.01 255.86,306.27 257.94,303.25 C260.18,300.06 267.35,294.27 272.11,292.20 C274.41,291.22 278.90,289.86 280.54,289.62 C284.39,289.12 291.11,290.14 294.26,291.48 C296.81,292.60 300.15,296.44 301.42,299.11 C301.74,299.80 305.54,308.28 307.11,310.52 C307.36,310.88 310.22,314.41 310.65,315.14 C310.65,315.14 309.55,311.97 309.55,311.97" fill="none" stroke="rgb(237, 28, 36)" stroke-width="3.54" stroke-opacity="1.00" stroke-linejoin="round"/>
<path d="M308.93,320.01 C308.45,320.10 308.13,320.17 307.96,320.23 C307.96,320.23 307.70,320.36 307.18,320.62 C307.11,320.66 307.06,320.67 307.02,320.66 C306.91,319.65 309.20,313.00 310.70,310.28 C312.75,306.61 321.53,299.62 325.80,297.12 C331.02,294.10 341.12,290.84 348.51,289.54 C353.74,288.64 361.61,288.34 369.38,289.61 C369.90,289.67 371.00,289.76 372.66,289.87 C372.66,289.87 370.15,289.80 370.15,289.80" fill="none" stroke="rgb(237, 28, 36)" stroke-width="3.54" stroke-opacity="1.00" stroke-linejoin="round"/>
<path d="M240.19,300.52 C240.19,300.52 239.57,300.01 239.57,300.01 C239.73,299.43 240.15,298.15 240.17,297.94 C240.22,297.41 239.92,296.73 239.58,296.34 C240.08,297.55 240.91,324.11 240.41,328.23 C240.09,330.72 238.22,337.62 237.77,340.90 C237.49,342.94 230.36,408.45 230.22,409.75 C230.22,409.75 230.64,407.85 230.64,407.85" fill="none" stroke="rgb(237, 28, 36)" stroke-width="3.54" stroke-opacity="1.00" stroke-linejoin="round"/>
<path d="M246.07,308.54 C246.12,308.43 246.11,308.30 246.05,308.14 C245.93,307.84 244.96,305.99 244.77,305.30 C244.77,305.30 245.46,304.92 245.46,304.92 C244.83,306.68 244.21,313.27 243.83,317.13 C242.31,335.00 241.88,362.80 240.40,372.32 C238.56,385.75 234.37,414.21 234.41,415.82 C234.41,415.82 234.57,413.59 234.57,413.59" fill="none" stroke="rgb(237, 28, 36)" stroke-width="3.54" stroke-opacity="1.00" stroke-linejoin="round"/>
<path d="M70.74,294.65 C70.88,293.99 71.27,293.04 71.34,292.69 C71.38,292.51 71.40,292.18 71.41,291.70 C71.41,291.70 70.69,291.56 70.69,291.56 C70.30,294.90 69.25,304.57 69.22,305.68 C69.18,308.80 70.60,312.01 71.56,312.17 C72.81,311.77 72.68,305.54 71.46,301.55 C70.70,299.14 68.66,295.64 67.96,295.48 C67.89,295.47 67.84,295.46 67.80,295.45" fill="none" stroke="rgb(0, 0, 255)" stroke-width="3.54" stroke-opacity="1.00" stroke-linejoin="round"/>
<path d="M113.37,203.89 C113.45,202.92 113.56,202.00 113.66,201.77 C113.70,201.69 113.79,201.59 113.93,201.50 C114.23,202.25 110.70,208.01 110.28,209.02 C109.55,210.78 108.33,217.18 109.09,219.20 C110.94,217.65 111.98,216.13 111.75,214.75 C111.69,214.38 109.34,208.70 108.80,206.62 C108.52,205.55 107.66,200.83 107.11,200.78 C107.11,200.78 106.45,201.55 106.45,201.55" fill="none" stroke="rgb(0, 0, 255)" stroke-width="3.54" stroke-opacity="1.00" stroke-linejoin="round"/>
<path d="M174.19,146.34 C174.22,145.89 174.39,144.78 174.43,144.35 C174.45,144.13 174.45,143.74 174.45,143.19 C174.32,143.31 174.22,143.80 174.07,145.19 C173.03,154.68 171.87,159.79 169.38,165.63 C171.03,165.41 173.69,164.64 174.77,163.80 C176.06,162.77 176.32,160.36 175.55,158.45 C175.14,157.53 173.93,155.18 173.57,154.27 C173.57,154.27 174.42,153.74 174.42,153.74" fill="none" stroke="rgb(0, 0, 255)" stroke-width="3.54" stroke-opacity="1.00" stroke-linejoin="round"/>
<path d="M302.83,123.40 C302.83,123.40 301.99,121.47 301.99,121.47 C300.93,126.58 300.36,129.54 299.42,132.30 C299.04,133.41 295.02,143.86 294.94,144.37 C294.86,144.87 294.81,146.01 294.78,147.77 C296.02,148.53 297.76,148.52 299.83,147.54 C301.45,146.73 302.57,144.70 302.80,142.45 C303.26,136.62 301.61,129.86 301.02,128.28 C300.95,128.09 300.89,128.01 300.85,128.05 C300.84,128.08 300.80,128.07 300.76,128.02" fill="none" stroke="rgb(0, 0, 255)" stroke-width="3.54" stroke-opacity="1.00" stroke-linejoin="round"/>
<path d="M406.02,178.20 C406.45,175.27 405.84,174.73 405.22,174.34 C402.18,185.09 400.46,188.86 398.19,192.24 C400.14,193.55 402.33,193.91 404.75,193.16 C405.71,192.85 406.83,191.55 407.02,190.77 C407.26,189.58 405.96,180.91 405.40,180.18 C405.12,179.80 404.42,179.52 403.33,179.31" fill="none" stroke="rgb(0, 0, 255)" stroke-width="3.54" stroke-opacity="1.00" stroke-linejoin="round"/>
<path d="M447.74,298.33 C447.77,297.93 447.77,297.65 447.74,297.48 C447.66,297.03 447.33,296.38 447.22,296.31 C446.07,298.65 444.19,302.96 442.97,306.69 C441.73,310.55 442.13,312.04 442.68,312.52 C443.19,312.58 444.67,311.93 447.12,310.48 C449.07,309.28 450.73,307.42 450.72,306.17 C450.68,305.18 449.40,302.65 448.08,300.42 C448.08,300.42 448.25,300.75 448.25,300.75" fill="none" stroke="rgb(0, 0, 255)" stroke-width="3.54" stroke-opacity="1.00" stroke-linejoin="round"/>
<path d="M419.49,417.73 C419.49,417.73 419.36,417.53 419.36,417.53 C419.36,417.53 420.80,414.89 420.80,414.89 C420.80,414.89 422.15,415.24 422.15,415.24 C422.85,416.82 423.00,418.14 422.43,419.58 C421.58,421.69 417.11,429.42 416.78,430.37 C417.84,431.54 418.79,432.04 420.11,431.91 C421.43,431.75 423.50,430.92 424.43,430.12 C425.34,429.28 426.30,427.36 426.43,426.20 C426.50,425.13 425.50,422.36 424.53,421.25 C423.94,420.60 421.71,419.00 421.76,419.05 C421.77,419.06 421.73,419.05 421.72,419.04 C421.70,419.01 421.70,418.93 421.72,418.79 C421.73,418.67 421.78,418.34 421.86,417.80" fill="none" stroke="rgb(0, 0, 255)" stroke-width="3.54" stroke-opacity="1.00" stroke-linejoin="round"/>
</g>
</svg>
