<?xml version="1.0" encoding="UTF-8" standalone="no"?>
<!DOCTYPE svg PUBLIC "-//W3C//DTD SVG 1.1//EN" "http://www.w3.org/Graphics/SVG/1.1/DTD/svg11.dtd">
<svg width="128.40" height="181.68" viewBox="0.00 0.00 535.00 757.00" xmlns="http://www.w3.org/2000/svg" xmlns:xlink="http://www.w3.org/1999/xlink">
<g stroke-linecap="round" id="60">
<path d="M358.11,408.54 C358.11,408.54 358.24,406.89 358.24,406.89 C358.24,406.89 357.98,406.56 357.98,406.56 C357.98,406.56 357.86,406.57 357.86,406.57 C359.32,415.93 361.78,424.11 361.77,424.15 C361.30,425.92 361.37,430.31 362.26,433.56 C363.06,436.32 364.95,439.41 366.33,440.59 C367.04,441.14 368.80,441.77 370.12,441.91 C372.04,442.08 378.11,439.14 379.11,438.18 C379.46,437.83 384.66,433.04 385.27,432.27 C385.39,432.12 385.48,431.95 385.55,431.77 C385.55,431.77 385.51,431.60 385.51,431.60" fill="none" stroke="rgb(255, 165, 0)" stroke-width="3.23" stroke-opacity="1.00" stroke-linejoin="round"/>
<path d="M355.57,403.36 C355.57,403.36 356.50,401.97 356.50,401.97 C356.50,401.97 357.54,402.19 357.54,402.19 C357.54,402.19 356.35,411.33 356.35,411.33 C356.82,411.83 357.28,412.14 357.93,412.09 C358.98,412.00 366.01,410.70 365.96,410.60 C366.17,407.66 368.01,404.10 369.30,403.14 C369.30,403.14 369.18,403.64 369.18,403.64" fill="none" stroke="rgb(255, 165, 0)" stroke-width="3.23" stroke-opacity="1.00" stroke-linejoin="round"/>
<path d="M367.76,404.95 C367.76,404.95 367.37,404.88 367.37,404.88 C367.30,409.59 367.49,411.32 368.57,411.95 C369.23,412.28 381.14,411.39 381.10,411.27 C381.10,411.27 384.15,406.55 384.15,406.55 C384.15,406.55 384.10,406.52 384.10,406.52" fill="none" stroke="rgb(255, 165, 0)" stroke-width="3.23" stroke-opacity="1.00" stroke-linejoin="round"/>
<path d="M381.95,406.95 C381.95,406.95 381.95,405.98 381.95,405.98 C382.37,406.34 383.17,412.71 383.18,412.73 C383.90,413.73 387.58,416.14 387.74,416.35 C388.76,417.78 388.14,424.29 388.17,424.67 C388.17,424.67 394.86,420.08 394.86,420.08 C394.86,420.08 394.82,420.68 394.82,420.68" fill="none" stroke="rgb(255, 165, 0)" stroke-width="3.23" stroke-opacity="1.00" stroke-linejoin="round"/>
<path d="M393.30,421.79 C393.30,421.79 392.78,422.43 392.78,422.43 C393.30,423.25 393.63,424.19 393.79,425.47 C394.05,428.78 386.63,431.67 385.85,431.83 C385.85,431.83 385.61,430.91 385.61,430.91" fill="none" stroke="rgb(255, 165, 0)" stroke-width="3.23" stroke-opacity="1.00" stroke-linejoin="round"/>
<path d="M360.40,422.33 C360.40,422.33 360.33,421.47 360.33,421.47 C360.33,421.47 364.26,420.39 364.26,420.39 C364.26,420.39 366.25,421.93 366.25,421.93 C366.25,421.93 366.35,421.72 366.35,421.72" fill="none" stroke="rgb(255, 165, 0)" stroke-width="3.23" stroke-opacity="1.00" stroke-linejoin="round"/>
<path d="M361.52,419.90 C361.45,419.90 361.41,419.90 361.38,419.89 C361.35,419.87 361.29,419.84 361.21,419.78 C361.22,419.69 364.88,418.58 365.92,418.84 C366.59,419.05 367.25,419.26 367.92,419.48 C368.18,419.55 368.47,419.57 368.81,419.54" fill="none" stroke="rgb(255, 165, 0)" stroke-width="3.23" stroke-opacity="1.00" stroke-linejoin="round"/>
<path d="M373.42,420.12 C373.42,420.12 372.56,420.76 372.56,420.76 C374.99,419.90 378.19,419.89 379.53,420.29 C379.89,420.36 380.54,420.31 380.73,420.22" fill="none" stroke="rgb(255, 165, 0)" stroke-width="3.23" stroke-opacity="1.00" stroke-linejoin="round"/>
<path d="M374.47,423.71 C374.47,423.71 374.32,423.87 374.32,423.87 C374.32,423.87 374.60,423.85 374.60,423.85 C374.60,423.85 375.07,426.35 375.07,426.35 C375.07,426.35 376.10,427.01 376.10,427.01 C378.04,426.60 379.19,424.11 379.07,422.68 C379.07,422.68 379.16,422.86 379.16,422.86" fill="none" stroke="rgb(255, 165, 0)" stroke-width="3.23" stroke-opacity="1.00" stroke-linejoin="round"/>
<path d="M364.39,424.98 C364.39,424.98 364.06,424.89 364.06,424.89 C364.06,424.89 363.73,424.45 363.73,424.45 C363.73,424.45 364.79,425.80 364.79,425.80 C364.79,425.80 362.92,426.22 362.92,426.22 C362.92,426.22 363.76,425.54 363.76,425.54 C363.76,425.54 362.61,425.87 362.61,425.87 C362.61,425.87 362.90,425.40 362.90,425.40" fill="none" stroke="rgb(255, 165, 0)" stroke-width="3.23" stroke-opacity="1.00" stroke-linejoin="round"/>
<path d="M376.18,425.16 C376.10,425.09 376.06,425.00 376.04,424.89 C376.03,424.78 376.03,424.51 376.03,424.07 C376.03,424.07 377.66,423.70 377.66,423.70 C377.66,423.70 376.17,424.95 376.17,424.95 C376.17,424.95 377.98,423.72 377.98,423.72 C377.98,423.72 376.03,424.71 376.03,424.71" fill="none" stroke="rgb(255, 165, 0)" stroke-width="3.23" stroke-opacity="1.00" stroke-linejoin="round"/>
<path d="M367.54,424.29 C367.54,424.29 367.86,423.66 367.86,423.66 C367.86,423.66 368.82,423.30 368.82,423.30 C368.82,423.30 366.36,427.24 366.36,427.24 C366.36,427.24 369.66,428.80 369.66,428.80 C369.66,428.80 369.75,428.58 369.75,428.58" fill="none" stroke="rgb(255, 165, 0)" stroke-width="3.23" stroke-opacity="1.00" stroke-linejoin="round"/>
<path d="M366.71,434.74 C366.71,434.74 366.24,433.98 366.24,433.98 C366.33,434.27 367.82,436.07 369.60,436.05 C371.56,436.00 372.39,434.43 372.48,433.81 C372.48,433.81 366.93,433.13 366.93,433.13 C366.93,433.13 367.01,432.58 367.01,432.58" fill="none" stroke="rgb(255, 165, 0)" stroke-width="3.23" stroke-opacity="1.00" stroke-linejoin="round"/>
<path d="M370.01,442.03 C370.01,442.03 369.72,441.69 369.72,441.69 C369.72,441.69 369.69,441.17 369.69,441.17 C369.69,441.17 369.84,441.15 369.84,441.15 C370.08,442.76 369.44,445.10 367.66,449.66 C366.10,453.43 362.80,457.32 360.16,458.92 C350.57,464.65 345.04,468.22 342.65,470.98 C336.14,478.39 332.21,481.62 330.65,481.90 C329.72,482.03 328.17,481.45 326.83,480.56 C324.68,479.09 323.37,478.65 323.41,478.73" fill="none" stroke="rgb(255, 165, 0)" stroke-width="3.23" stroke-opacity="1.00" stroke-linejoin="round"/>
<path d="M387.24,435.83 C387.24,435.43 387.25,435.14 387.26,434.96 C387.28,434.77 387.31,434.44 387.37,433.95 C387.45,434.00 386.13,439.39 385.45,443.45 C384.46,449.67 385.42,455.02 385.83,455.50 C385.83,455.50 384.85,454.23 384.85,454.23" fill="none" stroke="rgb(255, 165, 0)" stroke-width="3.23" stroke-opacity="1.00" stroke-linejoin="round"/>
<path d="M352.01,403.21 C352.01,403.21 351.86,403.19 351.86,403.19 C351.86,403.19 351.83,403.40 351.83,403.40 C352.15,402.22 354.87,395.65 355.26,394.93 C356.85,392.04 361.84,387.27 364.79,385.31 C367.12,383.80 372.94,380.98 374.29,380.52 C376.95,379.65 385.92,377.93 387.56,377.73 C390.72,377.37 394.43,378.02 396.54,379.26 C397.92,380.10 403.04,383.82 404.43,384.70 C407.25,386.50 410.55,389.41 412.43,391.98 C414.35,394.68 415.76,398.92 416.18,402.89 C416.50,406.17 415.96,412.16 415.29,414.70 C415.04,415.64 411.90,423.93 410.77,425.96 C408.29,430.38 399.56,440.09 398.50,441.57 C397.11,443.57 395.96,446.71 395.34,449.94 C394.46,454.73 394.31,455.90 394.15,457.59 C394.15,457.59 394.18,456.16 394.18,456.16" fill="none" stroke="rgb(255, 165, 0)" stroke-width="3.23" stroke-opacity="1.00" stroke-linejoin="round"/>
<path d="M355.33,401.70 C355.33,401.70 354.98,401.73 354.98,401.73" fill="none" stroke="rgb(255, 165, 0)" stroke-width="3.23" stroke-opacity="1.00" stroke-linejoin="round"/>
<path d="M354.54,402.60 C354.36,402.65 354.19,402.75 354.12,402.77 C353.92,402.82 353.62,402.77 353.30,402.64 C353.55,401.62 356.09,398.83 357.71,398.11 C361.87,396.34 369.90,395.05 370.95,395.28 C374.05,396.07 380.70,397.78 382.94,398.97 C385.78,400.54 390.42,404.63 390.64,404.82 C392.22,406.20 392.90,407.03 393.31,408.26 C393.54,409.01 395.10,414.01 395.54,417.31 C396.08,421.02 396.08,426.12 395.34,428.63 C395.28,428.84 395.22,428.90 395.16,428.82 C395.16,428.82 395.10,428.66 395.10,428.66" fill="none" stroke="rgb(255, 165, 0)" stroke-width="3.23" stroke-opacity="1.00" stroke-linejoin="round"/>
<path d="M365.18,458.18 C365.05,457.72 364.95,457.41 364.88,457.25 C364.72,456.90 364.47,456.59 364.27,456.26 C364.14,456.04 363.91,455.61 363.56,454.95 C363.56,454.95 371.47,461.82 371.47,461.82 C371.47,461.82 371.58,461.72 371.58,461.72 C371.58,461.72 371.47,461.48 371.47,461.48" fill="none" stroke="rgb(255, 165, 0)" stroke-width="3.23" stroke-opacity="1.00" stroke-linejoin="round"/>
<path d="M369.67,461.89 C369.67,461.89 369.92,460.83 369.92,460.83 C369.92,460.83 385.86,450.84 385.86,450.84 C385.86,450.84 386.07,451.14 386.07,451.14" fill="none" stroke="rgb(255, 165, 0)" stroke-width="3.23" stroke-opacity="1.00" stroke-linejoin="round"/>
<path d="M326.11,477.06 C326.13,476.87 326.13,476.73 326.11,476.64 C326.09,476.55 326.02,476.37 325.91,476.12 C325.91,476.12 325.73,476.05 325.73,476.05 C324.02,480.57 314.03,491.99 313.48,493.55 C313.84,494.00 318.90,496.16 320.99,497.95 C323.40,500.07 330.67,510.85 331.59,511.41 C332.73,512.07 334.80,512.18 336.63,511.81 C339.44,511.17 341.92,509.50 344.15,506.58 C346.98,502.87 347.27,502.56 347.47,502.47 C347.47,502.47 347.59,502.48 347.59,502.48 C347.59,502.48 347.55,502.64 347.55,502.64" fill="none" stroke="rgb(255, 165, 0)" stroke-width="3.23" stroke-opacity="1.00" stroke-linejoin="round"/>
<path d="M348.25,491.66 C348.25,491.66 347.33,489.94 347.33,489.94 C347.43,490.14 349.91,505.43 350.43,514.90 C350.70,521.56 351.16,539.01 351.07,543.29 C350.89,551.50 348.27,564.42 347.04,568.66 C347.04,568.66 347.16,565.87 347.16,565.87" fill="none" stroke="rgb(255, 165, 0)" stroke-width="3.23" stroke-opacity="1.00" stroke-linejoin="round"/>
<path d="M368.66,464.47 C368.66,464.47 368.47,464.42 368.47,464.42 C368.24,464.18 367.95,463.22 367.82,462.86 C367.76,462.71 367.65,462.52 367.51,462.29 C366.61,461.58 365.25,474.32 365.21,482.40 C365.23,493.18 365.95,507.33 366.00,510.11 C366.08,514.26 364.84,531.91 364.66,535.64 C364.49,538.81 362.29,556.70 362.24,561.88 C362.20,566.47 362.39,569.63 362.59,571.86 C362.59,571.86 362.82,569.78 362.82,569.78" fill="none" stroke="rgb(255, 165, 0)" stroke-width="3.23" stroke-opacity="1.00" stroke-linejoin="round"/>
<path d="M347.01,567.81 C347.01,567.81 346.88,567.24 346.88,567.24 C346.88,567.24 346.57,567.32 346.57,567.32 C349.98,570.19 368.73,570.26 380.35,569.53 C382.77,569.37 392.48,566.18 393.29,566.57 C393.29,566.57 393.24,567.25 393.24,567.25 C393.24,567.25 393.04,567.25 393.04,567.25" fill="none" stroke="rgb(255, 165, 0)" stroke-width="3.23" stroke-opacity="1.00" stroke-linejoin="round"/>
<path d="M397.99,489.72 C398.10,489.55 398.22,489.37 398.33,489.20 C398.53,488.92 398.66,488.74 398.72,488.69 C398.78,488.64 398.88,488.60 399.01,488.57 C399.14,488.79 397.26,500.54 396.51,511.09 C395.76,524.64 394.75,542.06 394.33,566.90 C394.33,566.90 394.74,565.02 394.74,565.02" fill="none" stroke="rgb(255, 165, 0)" stroke-width="3.23" stroke-opacity="1.00" stroke-linejoin="round"/>
<path d="M398.85,485.15 C398.85,485.15 397.98,485.26 397.98,485.26 C398.44,485.32 399.23,486.28 400.78,489.68 C400.98,490.14 403.90,496.11 405.01,498.98 C409.13,509.68 412.60,530.55 412.90,535.66 C414.17,533.58 417.56,531.19 420.27,529.95 C426.49,527.15 433.52,524.47 435.75,524.46 C435.75,524.46 436.22,524.85 436.22,524.85 C436.22,524.85 436.31,524.78 436.31,524.78" fill="none" stroke="rgb(255, 165, 0)" stroke-width="3.23" stroke-opacity="1.00" stroke-linejoin="round"/>
<path d="M395.52,458.18 C395.18,458.03 394.97,457.92 394.88,457.84 C394.69,457.66 394.47,456.98 394.31,456.33 C393.86,456.44 393.83,458.46 400.90,458.80 C402.65,458.90 406.86,461.27 408.53,462.84 C412.58,467.03 420.00,472.38 422.27,475.04 C423.87,476.95 425.40,479.63 427.22,483.42 C428.93,487.01 430.29,490.97 430.86,494.46 C433.78,512.75 433.73,523.59 433.77,524.33 C433.77,524.33 434.43,522.48 434.43,522.48" fill="none" stroke="rgb(255, 165, 0)" stroke-width="3.23" stroke-opacity="1.00" stroke-linejoin="round"/>
<path d="M312.97,491.25 C312.97,491.25 312.69,491.87 312.69,491.87 C312.69,491.87 312.81,491.97 312.81,491.97 C312.81,491.97 312.96,491.85 312.96,491.85 C312.53,491.13 309.11,490.07 308.43,489.14 C306.99,487.10 305.17,481.37 305.63,479.84 C306.17,478.24 308.55,477.24 310.38,477.19 C311.08,475.39 311.14,470.64 312.14,469.84 C313.16,469.13 316.33,469.25 318.07,470.32 C319.62,471.36 322.65,476.46 323.31,477.61 C323.51,477.97 323.68,478.21 323.82,478.33" fill="none" stroke="rgb(255, 165, 0)" stroke-width="3.23" stroke-opacity="1.00" stroke-linejoin="round"/>
<path d="M310.12,485.78 C310.12,485.78 309.12,484.85 309.12,484.85 C309.12,484.85 312.20,486.59 312.20,486.59 C313.10,485.01 312.50,483.88 311.53,482.11 C311.79,481.74 316.54,480.83 317.25,479.86 C317.44,479.57 317.51,479.17 317.48,478.86 C317.36,479.19 318.70,479.98 319.36,479.60 C320.35,478.94 319.93,475.91 318.53,474.28 C318.53,474.28 318.76,474.58 318.76,474.58" fill="none" stroke="rgb(255, 165, 0)" stroke-width="3.23" stroke-opacity="1.00" stroke-linejoin="round"/>
<path d="M420.72,530.17 C420.84,529.72 420.92,529.41 420.98,529.25 C421.06,529.03 421.19,528.72 421.40,528.30 C421.45,528.19 421.55,527.99 421.70,527.70 C421.60,531.32 421.13,534.99 419.46,538.38 C419.10,539.10 416.41,544.18 416.28,545.40 C417.15,545.86 418.55,545.89 420.04,545.12 C420.44,544.91 423.91,542.74 423.93,542.77 C423.93,542.77 425.90,547.15 425.90,547.15 C425.90,547.15 427.94,547.04 427.94,547.04 C427.94,547.04 429.65,549.41 429.65,549.41 C429.65,549.41 430.87,549.74 430.87,549.74 C430.87,549.74 434.31,546.23 434.31,546.23 C434.31,546.23 435.13,546.98 435.13,546.98 C435.97,546.94 437.46,545.50 437.38,544.44 C437.29,543.54 435.28,540.33 435.28,540.13 C435.28,540.13 439.30,540.74 439.30,540.74 C439.83,539.41 437.05,534.42 435.15,531.77 C434.58,530.99 432.08,527.68 431.27,526.34 C431.27,526.34 431.42,525.86 431.42,525.86 C431.42,525.86 431.62,525.84 431.62,525.84" fill="none" stroke="rgb(255, 165, 0)" stroke-width="3.23" stroke-opacity="1.00" stroke-linejoin="round"/>
<path d="M346.53,570.73 C346.56,570.43 346.60,570.13 346.64,569.83 C346.67,569.48 346.71,569.13 346.75,568.78 C346.75,568.78 346.90,568.62 346.90,568.62 C349.10,572.04 342.03,594.79 342.21,595.81 C342.41,596.54 345.57,596.90 348.93,596.41 C360.04,594.88 365.42,594.57 370.37,594.43 C370.37,594.43 370.17,594.10 370.17,594.10" fill="none" stroke="rgb(255, 165, 0)" stroke-width="3.23" stroke-opacity="1.00" stroke-linejoin="round"/>
<path d="M363.61,571.55 C363.61,571.55 363.49,569.71 363.49,569.71 C364.96,571.64 366.83,584.27 367.09,590.04 C367.29,595.12 366.16,601.57 366.15,602.06 C366.15,603.12 368.08,604.46 370.37,605.13 C373.81,606.09 378.09,606.61 382.12,606.64 C385.70,606.64 395.60,606.61 396.13,606.32 C396.13,606.32 395.94,605.83 395.94,605.83 C395.94,605.83 395.65,605.83 395.65,605.83" fill="none" stroke="rgb(255, 165, 0)" stroke-width="3.23" stroke-opacity="1.00" stroke-linejoin="round"/>
<path d="M395.89,565.97 C395.89,565.97 396.11,564.51 396.11,564.51 C397.18,565.77 396.92,576.90 396.12,586.09 C395.03,596.87 394.42,600.95 393.74,604.64 C393.21,607.48 393.11,608.49 393.33,608.38 C393.33,608.38 393.59,607.74 393.59,607.74" fill="none" stroke="rgb(255, 165, 0)" stroke-width="3.23" stroke-opacity="1.00" stroke-linejoin="round"/>
<path d="M355.48,596.99 C355.48,596.99 355.43,594.38 355.43,594.38 C355.64,598.08 356.01,614.78 356.14,622.71 C356.18,625.38 356.23,628.21 356.24,628.17 C356.24,628.17 356.45,627.78 356.45,627.78" fill="none" stroke="rgb(255, 165, 0)" stroke-width="3.23" stroke-opacity="1.00" stroke-linejoin="round"/>
<path d="M374.09,608.37 C374.09,608.37 373.95,606.89 373.95,606.89 C373.95,606.89 373.90,632.59 373.90,632.59 C373.90,632.59 374.26,630.47 374.26,630.47" fill="none" stroke="rgb(255, 165, 0)" stroke-width="3.23" stroke-opacity="1.00" stroke-linejoin="round"/>
<path d="M392.37,607.81 C392.37,607.81 392.12,606.63 392.12,606.63 C392.12,606.63 392.08,627.72 392.08,627.72 C392.08,627.72 392.23,626.83 392.23,626.83" fill="none" stroke="rgb(255, 165, 0)" stroke-width="3.23" stroke-opacity="1.00" stroke-linejoin="round"/>
<path d="M354.17,632.53 C354.17,632.53 353.89,632.65 353.89,632.65" fill="none" stroke="rgb(255, 165, 0)" stroke-width="3.23" stroke-opacity="1.00" stroke-linejoin="round"/>
<path d="M352.86,630.39 C352.86,630.39 350.42,630.25 350.42,630.25 C352.41,629.37 368.67,628.20 371.09,628.69 C371.41,628.75 371.71,628.94 372.00,629.23 C372.00,629.23 371.72,629.82 371.72,629.82" fill="none" stroke="rgb(255, 165, 0)" stroke-width="3.23" stroke-opacity="1.00" stroke-linejoin="round"/>
<path d="M350.53,632.08 C350.53,632.08 349.79,630.43 349.79,630.43 C350.73,630.59 351.17,630.94 351.35,631.94 C352.72,639.93 353.75,644.14 354.22,645.98 C354.22,645.98 354.13,645.28 354.13,645.28" fill="none" stroke="rgb(255, 165, 0)" stroke-width="3.23" stroke-opacity="1.00" stroke-linejoin="round"/>
<path d="M333.30,654.14 C333.30,654.14 332.14,655.05 332.14,655.05 C332.14,655.05 331.62,654.64 331.62,654.64 C333.41,652.93 338.53,651.15 341.32,650.03 C344.40,648.79 347.30,647.36 348.41,646.79 C348.41,646.79 348.05,647.10 348.05,647.10" fill="none" stroke="rgb(255, 165, 0)" stroke-width="3.23" stroke-opacity="1.00" stroke-linejoin="round"/>
<path d="M332.67,655.45 C332.67,655.45 331.60,655.31 331.60,655.31 C331.77,655.94 334.83,661.74 336.16,663.26 C338.34,665.69 342.73,668.16 345.39,668.97 C346.30,669.24 348.75,670.00 349.41,670.23 C349.47,670.25 349.61,670.32 349.56,670.32 C349.56,670.32 349.58,670.25 349.58,670.25" fill="none" stroke="rgb(255, 165, 0)" stroke-width="3.23" stroke-opacity="1.00" stroke-linejoin="round"/>
<path d="M367.99,635.38 C367.96,635.28 367.93,634.98 367.92,634.87 C367.91,634.81 367.90,634.73 367.89,634.61 C368.08,634.92 367.75,641.90 367.71,646.08 C367.68,649.43 367.88,656.13 367.69,656.66 C367.67,656.70 367.59,656.87 367.44,657.17 C367.44,657.17 367.21,657.25 367.21,657.25 C367.21,657.25 367.12,657.01 367.12,657.01" fill="none" stroke="rgb(255, 165, 0)" stroke-width="3.23" stroke-opacity="1.00" stroke-linejoin="round"/>
<path d="M372.03,633.39 C371.93,633.39 371.79,633.35 371.60,633.28 C370.66,632.91 369.05,632.08 368.73,631.74 C368.62,631.62 368.50,631.40 368.38,631.09 C368.55,630.98 373.41,631.60 376.09,631.54 C381.65,631.38 391.84,627.33 395.24,625.94 C395.24,625.94 393.83,625.89 393.83,625.89" fill="none" stroke="rgb(255, 165, 0)" stroke-width="3.23" stroke-opacity="1.00" stroke-linejoin="round"/>
<path d="M395.33,629.53 C395.33,629.53 395.08,628.64 395.08,628.64 C395.39,630.56 393.68,646.26 393.59,651.05 C393.49,657.53 394.60,668.52 395.43,672.18 C395.43,672.18 395.60,670.94 395.60,670.94" fill="none" stroke="rgb(255, 165, 0)" stroke-width="3.23" stroke-opacity="1.00" stroke-linejoin="round"/>
<path d="M367.84,653.20 C367.84,653.20 367.44,653.17 367.44,653.17 C367.53,653.10 365.61,654.87 364.65,655.70 C362.30,657.75 348.51,665.77 347.66,667.35 C347.58,667.50 347.45,667.84 347.25,668.38 C347.34,669.70 352.23,672.85 355.36,674.14 C361.28,676.51 375.18,677.65 380.51,677.29 C385.85,676.88 391.94,674.10 392.14,674.11 C392.14,674.11 392.24,674.33 392.24,674.33" fill="none" stroke="rgb(255, 165, 0)" stroke-width="3.23" stroke-opacity="1.00" stroke-linejoin="round"/>
<path d="M370.72,471.18 C370.71,470.72 370.72,470.60 370.72,470.60 C370.68,470.40 370.33,470.14 369.48,469.68 C368.48,469.92 367.76,471.59 368.43,473.21 C368.43,473.21 369.64,473.73 369.64,473.73 C370.70,473.45 371.77,472.89 372.33,472.15 C373.00,471.26 373.08,470.17 372.73,469.21 C372.73,469.21 367.49,469.28 367.49,469.28" fill="none" stroke="rgb(255, 165, 0)" stroke-width="3.23" stroke-opacity="1.00" stroke-linejoin="round"/>
<path d="M367.79,489.03 C367.79,489.03 367.51,488.32 367.51,488.32 C367.51,488.32 366.80,490.81 366.80,490.81 C368.15,491.46 369.07,491.43 370.03,490.48 C371.83,488.67 371.96,487.05 371.68,486.13 C371.68,486.13 370.67,485.56 370.67,485.56 C370.67,485.56 367.06,488.04 367.06,488.04" fill="none" stroke="rgb(255, 165, 0)" stroke-width="3.23" stroke-opacity="1.00" stroke-linejoin="round"/>
<path d="M368.59,505.58 C368.59,505.58 366.08,506.32 366.08,506.32 C365.42,508.41 366.12,510.08 367.26,510.52 C370.85,509.98 370.59,505.95 370.25,504.96 C368.39,504.57 367.97,505.27 367.50,506.14" fill="none" stroke="rgb(255, 165, 0)" stroke-width="3.23" stroke-opacity="1.00" stroke-linejoin="round"/>
<path d="M366.37,521.07 C366.37,521.07 366.16,520.81 366.16,520.81 C366.16,520.81 366.32,526.43 366.32,526.43 C368.04,525.95 368.94,525.45 369.52,524.49 C370.22,523.35 370.47,522.49 370.51,521.47 C369.26,520.86 368.54,520.80 367.90,521.39 C367.32,521.94 367.06,522.32 366.87,522.79" fill="none" stroke="rgb(255, 165, 0)" stroke-width="3.23" stroke-opacity="1.00" stroke-linejoin="round"/>
<path d="M365.88,540.95 C365.88,540.95 365.47,540.06 365.47,540.06 C364.12,541.50 363.59,542.51 363.97,543.30 C364.05,543.46 364.25,543.78 364.58,544.26 C364.58,544.26 365.80,544.54 365.80,544.54 C365.80,544.54 369.84,539.91 369.84,539.91 C367.64,539.53 366.45,540.63 365.95,541.14" fill="none" stroke="rgb(255, 165, 0)" stroke-width="3.23" stroke-opacity="1.00" stroke-linejoin="round"/>
<path d="M366.15,555.69 C366.11,555.36 366.08,555.12 366.06,554.99 C366.05,554.86 366.03,554.64 366.01,554.33 C366.01,554.33 365.90,554.24 365.90,554.24 C365.90,554.24 365.62,557.86 365.62,557.86 C366.87,557.55 367.63,557.04 368.23,555.94 C368.84,554.82 368.99,553.95 368.85,552.95 C368.85,552.95 367.90,552.13 367.90,552.13 C367.02,552.02 365.64,552.21 364.67,552.69 C363.89,553.08 363.33,553.79 363.24,554.25" fill="none" stroke="rgb(255, 165, 0)" stroke-width="3.23" stroke-opacity="1.00" stroke-linejoin="round"/>
<path d="M366.64,564.74 C366.64,564.74 365.97,563.52 365.97,563.52 C365.97,563.52 366.15,567.76 366.15,567.76 C367.60,567.46 368.41,566.91 368.79,565.74 C369.18,564.54 369.14,563.56 368.76,562.58 C367.63,561.50 364.89,562.37 364.28,562.88" fill="none" stroke="rgb(255, 165, 0)" stroke-width="3.23" stroke-opacity="1.00" stroke-linejoin="round"/>
<path d="M401.79,273.84 C401.90,273.34 402.17,272.67 402.45,272.35 C402.56,272.22 402.79,272.02 403.14,271.73 C402.16,270.77 401.13,270.15 400.01,270.25 C393.35,270.84 359.02,278.55 350.10,282.04 C346.42,283.49 332.10,290.55 326.07,293.57 C320.70,296.42 310.44,303.69 304.03,308.46 C294.19,316.03 290.16,319.88 284.92,326.95 C280.57,333.18 275.43,341.31 272.01,346.68 C263.88,360.33 258.71,382.50 258.61,383.03 C258.61,383.03 262.63,379.54 262.63,379.54" fill="none" stroke="rgb(237, 28, 36)" stroke-width="3.23" stroke-opacity="1.00" stroke-linejoin="round"/>
<path d="M394.79,279.50 C395.29,278.50 396.20,277.29 396.52,276.84 C396.73,276.56 397.11,276.00 397.68,275.15 C397.68,275.15 397.34,274.25 397.34,274.25 C395.50,273.66 391.34,275.00 387.34,276.95 C383.97,278.65 370.07,288.42 363.81,293.05 C354.97,299.86 348.48,305.26 343.39,310.51 C339.07,315.06 330.73,324.48 327.79,328.20 C324.64,332.22 316.68,345.68 312.50,352.80 C305.06,365.83 301.36,381.14 300.71,385.38 C300.71,385.38 301.85,384.33 301.85,384.33" fill="none" stroke="rgb(237, 28, 36)" stroke-width="3.23" stroke-opacity="1.00" stroke-linejoin="round"/>
<path d="M395.09,285.89 C395.23,284.33 395.45,282.74 395.77,281.92 C395.98,281.39 397.43,278.56 397.90,277.63 C396.21,277.55 395.22,277.86 394.26,278.96 C390.96,282.79 384.55,293.53 381.00,299.98 C376.51,308.42 370.76,320.93 368.51,327.41 C366.92,332.03 363.07,348.66 361.56,356.11 C360.30,363.29 357.84,379.27 358.14,380.60 C358.14,380.60 360.41,376.09 360.41,376.09" fill="none" stroke="rgb(237, 28, 36)" stroke-width="3.23" stroke-opacity="1.00" stroke-linejoin="round"/>
<path d="M403.07,280.84 C403.07,280.84 402.68,277.41 402.68,277.41" fill="none" stroke="rgb(237, 28, 36)" stroke-width="3.23" stroke-opacity="1.00" stroke-linejoin="round"/>
<path d="M402.15,274.36 C402.15,274.36 400.31,271.12 400.31,271.12 C401.44,270.94 407.43,282.36 408.70,285.46 C410.76,290.56 414.73,303.45 415.62,308.12 C416.00,310.16 419.22,332.73 419.77,335.90 C421.13,343.08 421.45,348.09 421.83,361.87 C422.36,373.24 422.54,383.22 421.80,386.41 C421.80,386.41 421.49,386.60 421.49,386.60 C421.49,386.60 421.48,386.17 421.48,386.17" fill="none" stroke="rgb(237, 28, 36)" stroke-width="3.23" stroke-opacity="1.00" stroke-linejoin="round"/>
<path d="M404.36,272.45 C404.07,272.46 403.00,272.53 402.71,272.45 C402.50,272.39 402.11,272.20 401.53,271.87 C403.86,271.99 411.66,272.59 415.01,274.06 C423.31,277.66 426.73,279.58 434.21,285.38 C437.12,287.65 440.67,293.02 441.41,294.15 C443.10,296.80 453.66,312.04 458.45,321.45 C460.77,325.98 465.93,339.95 468.13,345.56 C469.85,350.35 471.43,363.40 472.54,369.47 C473.17,373.07 473.46,384.91 473.29,386.83 C473.29,386.83 474.05,385.10 474.05,385.10" fill="none" stroke="rgb(237, 28, 36)" stroke-width="3.23" stroke-opacity="1.00" stroke-linejoin="round"/>
<path d="M259.65,384.57 C259.14,384.48 258.50,384.33 258.27,384.28 C258.02,384.22 257.77,384.17 257.52,384.11 C257.31,383.84 257.79,380.90 263.33,377.37 C265.85,375.78 271.18,373.57 274.37,373.01 C276.11,372.73 280.46,373.18 282.62,373.90 C284.23,374.45 288.30,376.54 290.11,377.95 C295.88,382.49 299.74,387.01 300.50,387.96 C300.50,387.96 300.39,388.06 300.39,388.06 C300.39,388.06 300.12,388.02 300.12,388.02" fill="none" stroke="rgb(237, 28, 36)" stroke-width="3.23" stroke-opacity="1.00" stroke-linejoin="round"/>
<path d="M297.95,387.81 C297.95,387.81 295.93,385.57 295.93,385.57 C296.73,383.86 300.73,380.34 303.44,378.48 C306.53,376.38 312.79,373.30 315.47,372.45 C318.28,371.60 323.34,372.59 325.59,374.38 C327.16,375.70 331.59,380.76 332.56,381.74 C332.63,381.81 332.59,381.80 332.65,381.91" fill="none" stroke="rgb(237, 28, 36)" stroke-width="3.23" stroke-opacity="1.00" stroke-linejoin="round"/>
<path d="M333.11,384.72 C333.11,384.72 331.50,383.81 331.50,383.81 C332.41,382.89 337.31,380.89 341.14,379.84 C344.99,378.82 350.18,378.58 352.42,379.76 C354.27,380.79 358.30,385.43 358.51,385.54 C358.51,385.54 358.66,385.43 358.66,385.43 C358.66,385.43 358.60,385.16 358.60,385.16" fill="none" stroke="rgb(237, 28, 36)" stroke-width="3.23" stroke-opacity="1.00" stroke-linejoin="round"/>
<path d="M354.32,387.40 C354.32,387.40 353.27,387.33 353.27,387.33 C353.27,387.33 353.04,387.08 353.04,387.08 C352.93,386.61 356.39,382.03 359.02,379.02 C361.12,376.63 366.63,372.16 369.95,370.36 C371.68,369.43 378.80,366.77 382.44,365.99 C385.74,365.31 393.37,364.82 396.35,365.04 C399.45,365.29 404.73,367.14 406.63,368.42 C407.90,369.30 415.02,374.97 415.49,375.41 C418.63,378.38 421.65,383.38 422.80,387.53 C423.05,388.43 423.30,389.33 423.55,390.22 C423.55,390.22 423.72,389.83 423.72,389.83" fill="none" stroke="rgb(237, 28, 36)" stroke-width="3.23" stroke-opacity="1.00" stroke-linejoin="round"/>
<path d="M421.25,390.23 C421.25,390.23 420.90,389.80 420.90,389.80 C420.93,389.44 423.35,384.78 423.94,384.10 C425.26,382.63 430.85,380.05 433.67,379.33 C435.01,379.00 444.45,377.04 447.75,376.76 C450.90,376.51 456.51,377.06 460.04,378.32 C463.48,379.61 465.43,381.46 468.70,386.01 C469.43,387.05 470.48,387.86 473.27,389.76 C473.65,390.02 473.72,390.87 473.90,391.46 C473.94,391.59 474.00,391.70 474.11,391.78" fill="none" stroke="rgb(237, 28, 36)" stroke-width="3.23" stroke-opacity="1.00" stroke-linejoin="round"/>
<path d="M334.35,390.75 C334.76,389.15 335.06,388.14 335.24,387.72 C335.40,387.36 335.82,386.78 336.51,385.99 C337.37,385.00 337.93,383.99 338.32,382.82 C336.29,387.21 323.62,431.30 321.94,438.09 C319.92,446.56 316.28,469.06 315.73,470.94 C315.73,470.94 315.66,470.77 315.66,470.77" fill="none" stroke="rgb(237, 28, 36)" stroke-width="3.23" stroke-opacity="1.00" stroke-linejoin="round"/>
<path d="M343.92,387.76 C343.93,386.63 343.91,385.22 343.98,384.79 C344.04,384.46 344.21,383.63 344.51,382.31 C341.90,387.89 338.16,401.48 336.13,408.98 C327.09,443.36 321.98,471.92 322.13,471.85 C322.13,471.85 322.24,471.88 322.24,471.88 C322.24,471.88 322.37,471.62 322.37,471.62" fill="none" stroke="rgb(237, 28, 36)" stroke-width="3.23" stroke-opacity="1.00" stroke-linejoin="round"/>
<path d="M300.91,477.68 C300.96,477.46 301.00,477.27 301.04,477.09 C301.25,476.17 301.34,475.90 301.42,475.93 C299.23,477.93 296.36,483.54 295.96,486.79 C295.74,488.87 296.68,491.90 297.88,492.96 C298.97,493.85 301.31,494.21 303.23,493.97 C306.73,493.43 311.31,490.80 311.29,490.84 C311.29,490.84 311.74,491.25 311.74,491.25 C311.74,491.25 311.78,492.09 311.78,492.09" fill="none" stroke="rgb(237, 28, 36)" stroke-width="3.23" stroke-opacity="1.00" stroke-linejoin="round"/>
<path d="M299.16,477.10 C299.16,477.10 298.46,475.06 298.46,475.06 C298.91,474.67 299.70,474.38 300.33,474.59 C301.11,474.87 302.12,476.15 302.37,477.18 C302.61,478.34 299.29,485.06 299.12,486.82 C299.04,488.04 299.77,489.64 300.63,490.11 C301.41,490.47 303.70,490.55 304.65,490.06 C304.78,489.99 308.42,487.62 308.82,487.44 C308.82,487.44 309.29,487.84 309.29,487.84 C309.29,487.84 309.30,488.60 309.30,488.60" fill="none" stroke="rgb(237, 28, 36)" stroke-width="3.23" stroke-opacity="1.00" stroke-linejoin="round"/>
<path d="M257.57,243.48 C257.57,243.48 256.59,243.48 256.59,243.48" fill="none" stroke="rgb(0, 0, 255)" stroke-width="3.23" stroke-opacity="1.00" stroke-linejoin="round"/>
<path d="M254.60,244.04 C254.94,243.29 255.41,242.46 256.42,240.90 C257.45,239.30 258.80,236.97 259.74,235.34 C260.02,234.84 260.44,234.14 260.98,233.23 C249.20,252.99 241.90,267.48 233.53,286.03 C227.31,299.26 215.27,324.63 208.26,339.75 C203.61,349.99 201.69,354.70 198.71,364.14 C194.94,375.93 187.74,394.51 187.84,394.56 C187.84,394.56 189.65,392.61 189.65,392.61" fill="none" stroke="rgb(0, 0, 255)" stroke-width="3.23" stroke-opacity="1.00" stroke-linejoin="round"/>
<path d="M326.76,227.22 C326.76,227.22 328.18,221.97 328.18,221.97 C325.52,224.30 318.94,234.21 313.97,242.45 C310.67,248.12 302.59,263.02 302.46,264.31 C302.46,264.31 303.45,263.94 303.45,263.94" fill="none" stroke="rgb(0, 0, 255)" stroke-width="3.23" stroke-opacity="1.00" stroke-linejoin="round"/>
<path d="M395.68,215.78 C395.68,215.78 394.04,213.13 394.04,213.13 C393.40,212.98 389.87,218.35 388.11,221.04 C385.94,224.43 381.99,230.66 381.72,232.50 C381.72,232.50 382.90,232.42 382.90,232.42" fill="none" stroke="rgb(0, 0, 255)" stroke-width="3.23" stroke-opacity="1.00" stroke-linejoin="round"/>
<path d="M484.62,227.28 C484.62,227.28 487.61,221.94 487.61,221.94 C486.68,221.65 485.58,222.21 483.95,223.92 C481.92,226.07 474.64,236.59 470.36,243.82 C465.05,253.13 460.21,262.22 460.62,263.61 C460.62,263.61 461.18,263.93 461.18,263.93" fill="none" stroke="rgb(0, 0, 255)" stroke-width="3.23" stroke-opacity="1.00" stroke-linejoin="round"/>
<path d="M499.98,344.58 C499.98,344.58 498.94,342.54 498.94,342.54 C492.82,348.34 479.61,368.05 478.95,370.49 C478.85,370.88 478.81,371.41 478.81,372.07" fill="none" stroke="rgb(0, 0, 255)" stroke-width="3.23" stroke-opacity="1.00" stroke-linejoin="round"/>
<path d="M264.58,411.31 C264.58,411.31 265.67,408.80 265.67,408.80 C265.67,408.80 265.46,408.39 265.46,408.39 C264.71,408.21 260.50,412.67 257.82,417.33 C255.00,422.32 239.97,460.52 234.23,475.47 C231.25,483.15 218.58,511.68 218.04,514.03 C218.04,514.03 221.31,513.25 221.31,513.25" fill="none" stroke="rgb(0, 0, 255)" stroke-width="3.23" stroke-opacity="1.00" stroke-linejoin="round"/>
<path d="M303.16,425.61 C303.37,424.66 303.81,423.59 304.91,421.38 C305.96,419.31 306.20,418.60 305.95,418.54 C304.41,419.05 297.28,432.03 294.45,438.37 C292.56,442.64 286.88,457.79 285.06,464.29 C284.10,467.75 284.19,470.48 284.50,470.81 C284.50,470.81 285.54,469.46 285.54,469.46" fill="none" stroke="rgb(0, 0, 255)" stroke-width="3.23" stroke-opacity="1.00" stroke-linejoin="round"/>
<path d="M303.49,540.16 C303.49,540.16 306.03,535.59 306.03,535.59 C305.14,537.06 293.70,552.34 291.93,554.98 C289.13,559.19 272.15,586.78 267.60,594.40 C265.71,597.67 262.48,603.23 262.12,605.45 C262.12,605.45 265.38,605.34 265.38,605.34" fill="none" stroke="rgb(0, 0, 255)" stroke-width="3.23" stroke-opacity="1.00" stroke-linejoin="round"/>
<path d="M443.85,435.53 C443.85,435.53 441.30,434.57 441.30,434.57 C439.83,435.72 437.41,438.99 435.49,442.59 C432.41,448.48 429.45,457.58 429.62,459.12 C429.62,459.12 429.94,459.25 429.94,459.25" fill="none" stroke="rgb(0, 0, 255)" stroke-width="3.23" stroke-opacity="1.00" stroke-linejoin="round"/>
<path d="M440.04,588.05 C440.04,588.05 440.56,583.63 440.56,583.63 C439.71,583.57 419.48,629.51 419.37,629.90 C419.29,630.21 419.23,630.83 419.19,631.76 C419.19,631.76 419.93,631.96 419.93,631.96" fill="none" stroke="rgb(0, 0, 255)" stroke-width="3.23" stroke-opacity="1.00" stroke-linejoin="round"/>
<path d="M413.74,644.24 C412.96,644.01 412.15,643.65 411.72,643.22 C411.40,642.90 410.70,642.01 410.52,641.98 C409.83,642.59 409.75,644.87 411.10,645.51 C412.06,645.24 413.07,644.42 413.75,643.13 C414.99,640.67 414.45,634.72 413.30,634.21 C411.36,633.46 409.62,635.71 409.14,636.65" fill="none" stroke="rgb(0, 0, 255)" stroke-width="3.23" stroke-opacity="1.00" stroke-linejoin="round"/>
<path d="M259.25,625.40 C258.65,625.40 257.79,625.34 257.45,625.19 C257.18,625.08 256.14,624.28 255.84,624.15 C255.14,623.90 253.86,624.52 252.96,625.71 C247.29,633.48 249.62,638.71 250.10,639.00 C251.05,639.11 253.65,636.77 253.95,633.47 C254.07,631.79 253.35,628.29 252.61,626.73 C252.35,626.19 250.52,623.21 250.56,622.96 C250.56,622.96 253.47,623.39 253.47,623.39" fill="none" stroke="rgb(0, 0, 255)" stroke-width="3.23" stroke-opacity="1.00" stroke-linejoin="round"/>
<path d="M210.35,532.48 C210.35,532.48 206.25,530.85 206.25,530.85 C205.01,531.05 202.37,536.16 202.73,537.88 C202.80,538.17 203.07,538.53 203.56,538.97 C205.31,538.39 208.47,533.65 208.43,531.89 C208.38,531.22 207.62,530.13 207.09,530.08 C206.00,529.99 204.99,530.54 204.65,531.28" fill="none" stroke="rgb(0, 0, 255)" stroke-width="3.23" stroke-opacity="1.00" stroke-linejoin="round"/>
<path d="M185.06,412.65 C185.06,412.65 182.82,412.48 182.82,412.48 C182.82,412.48 182.14,407.96 182.14,407.96 C180.58,408.60 178.33,419.37 178.65,421.45 C180.39,420.53 181.36,419.58 182.15,417.70 C183.72,413.96 184.72,408.07 183.99,407.00 C183.84,406.80 183.45,406.53 182.83,406.18 C182.83,406.18 180.84,407.30 180.84,407.30" fill="none" stroke="rgb(0, 0, 255)" stroke-width="3.23" stroke-opacity="1.00" stroke-linejoin="round"/>
<path d="M308.37,277.52 C306.93,277.35 306.34,277.15 306.09,276.52 C305.96,276.19 305.77,275.74 305.52,275.17 C304.75,274.91 302.97,275.66 301.34,277.14 C299.19,279.12 298.07,282.56 297.94,283.96 C297.94,283.96 298.74,285.00 298.74,285.00 C300.04,284.51 301.33,283.55 302.32,282.05 C303.40,280.38 304.45,277.37 304.49,275.80 C304.50,274.48 303.86,273.22 303.06,272.38 C303.06,272.38 301.91,272.31 301.91,272.31 C301.91,272.31 301.96,273.45 301.96,273.45" fill="none" stroke="rgb(0, 0, 255)" stroke-width="3.23" stroke-opacity="1.00" stroke-linejoin="round"/>
<path d="M361.19,252.28 C361.19,252.28 362.93,245.43 362.93,245.43 C362.93,245.43 361.78,251.03 361.78,251.03 C363.12,250.56 364.61,248.82 365.42,246.47 C365.91,245.06 365.89,243.45 365.64,242.95 C365.64,242.95 365.33,242.93 365.33,242.93 C365.33,242.93 365.30,243.36 365.30,243.36" fill="none" stroke="rgb(0, 0, 255)" stroke-width="3.23" stroke-opacity="1.00" stroke-linejoin="round"/>
<path d="M373.42,258.96 C373.42,258.96 373.32,256.08 373.32,256.08 C373.32,256.08 372.87,259.30 372.87,259.30 C374.11,259.59 374.95,259.28 375.68,258.05 C376.93,255.85 376.52,252.35 375.35,252.52 C373.55,252.84 372.49,254.68 372.47,255.03" fill="none" stroke="rgb(0, 0, 255)" stroke-width="3.23" stroke-opacity="1.00" stroke-linejoin="round"/>
<path d="M456.53,288.64 C456.53,288.64 452.81,284.94 452.81,284.94 C451.88,285.05 449.75,288.51 449.91,290.68 C449.95,291.03 450.77,292.02 451.15,292.09 C452.47,292.23 455.02,291.22 456.50,289.78 C457.81,288.48 459.34,285.76 459.52,284.51 C459.67,283.34 459.29,282.01 458.66,280.86 C458.66,280.86 459.63,280.74 459.63,280.74" fill="none" stroke="rgb(0, 0, 255)" stroke-width="3.23" stroke-opacity="1.00" stroke-linejoin="round"/>
<path d="M425.86,470.54 C425.86,470.54 423.64,469.73 423.64,469.73 C423.64,469.73 422.36,465.33 422.36,465.33 C421.24,466.04 420.33,467.06 419.99,468.26 C419.66,469.48 419.79,470.60 420.15,470.94 C421.34,471.42 424.41,470.17 426.23,468.42 C428.81,465.80 430.02,462.83 430.05,461.22 C430.05,461.22 428.95,460.32 428.95,460.32 C428.95,460.32 423.21,464.03 423.21,464.03" fill="none" stroke="rgb(0, 0, 255)" stroke-width="3.23" stroke-opacity="1.00" stroke-linejoin="round"/>
<path d="M3.08,55.57 C3.08,55.57 8.76,45.39 8.76,45.39 C8.76,45.39 9.87,45.48 9.87,45.48 C9.87,45.48 10.21,46.27 10.21,46.27" fill="none" stroke="rgb(0, 0, 255)" stroke-width="3.23" stroke-opacity="1.00" stroke-linejoin="round"/>
<path d="M32.94,369.98 C32.94,369.98 29.11,366.10 29.11,366.10 C29.11,366.10 32.11,366.48 32.11,366.48" fill="none" stroke="rgb(0, 0, 255)" stroke-width="3.23" stroke-opacity="1.00" stroke-linejoin="round"/>
</g>
</svg>
