<?xml version="1.0" encoding="UTF-8" standalone="no"?>
<!DOCTYPE svg PUBLIC "-//W3C//DTD SVG 1.1//EN" "http://www.w3.org/Graphics/SVG/1.1/DTD/svg11.dtd">
<svg width="128.40" height="181.68" viewBox="0.00 0.00 535.00 757.00" xmlns="http://www.w3.org/2000/svg" xmlns:xlink="http://www.w3.org/1999/xlink">
<g stroke-linecap="round" id="66">
<path d="M259.61,382.61 C259.61,381.88 259.58,380.87 259.44,380.53 C259.14,380.02 258.75,379.28 258.78,378.74 C258.81,378.71 261.23,385.58 262.36,387.81 C263.47,389.97 266.18,394.05 268.58,396.02 C269.73,396.93 272.67,398.21 274.11,398.49 C275.42,398.71 278.13,398.51 279.09,398.07 C281.54,396.83 284.57,391.37 285.40,388.77 C287.16,382.96 288.22,375.77 288.17,375.51 C288.17,375.51 287.91,375.78 287.91,375.78" fill="none" stroke="rgb(255, 165, 0)" stroke-width="3.57" stroke-opacity="1.00" stroke-linejoin="round"/>
<path d="M289.57,360.18 C289.57,359.85 289.57,359.63 289.57,359.52 C289.56,359.40 289.54,359.24 289.51,359.04 C289.51,359.04 289.24,358.98 289.24,358.98 C289.24,358.98 289.17,358.43 289.17,358.43 C287.92,358.50 281.04,357.38 280.06,357.22 C277.35,356.80 269.71,357.47 268.44,357.71 C265.52,358.28 260.62,360.43 259.10,361.84 C257.29,363.58 255.17,369.13 254.83,373.43 C254.71,375.20 255.09,379.78 255.48,381.61 C256.41,385.68 259.17,390.51 261.17,391.67 C262.61,392.45 264.07,392.17 264.51,391.97 C264.51,391.97 264.56,391.42 264.56,391.42" fill="none" stroke="rgb(255, 165, 0)" stroke-width="3.57" stroke-opacity="1.00" stroke-linejoin="round"/>
<path d="M290.31,364.04 C290.31,364.04 290.79,363.07 290.79,363.07 C292.59,363.05 294.75,363.73 295.87,365.00 C297.41,366.84 298.51,372.33 298.29,374.63 C297.65,380.13 293.15,391.50 292.31,392.98 C292.14,393.28 291.88,393.59 291.54,393.91 C291.54,393.91 291.54,393.93 291.55,393.93" fill="none" stroke="rgb(255, 165, 0)" stroke-width="3.57" stroke-opacity="1.00" stroke-linejoin="round"/>
<path d="M261.84,378.45 C261.84,378.45 261.70,378.21 261.70,378.21 C261.70,378.21 261.40,378.18 261.40,378.18 C261.40,378.18 261.03,378.87 261.03,378.87 C261.03,378.87 271.41,374.62 271.41,374.62 C271.41,374.62 270.46,376.02 270.46,376.02" fill="none" stroke="rgb(255, 165, 0)" stroke-width="3.57" stroke-opacity="1.00" stroke-linejoin="round"/>
<path d="M277.14,373.84 C277.14,373.84 275.17,374.14 275.17,374.14 C280.45,374.57 285.17,375.43 286.11,376.59 C286.41,376.98 286.35,377.82 286.23,377.89" fill="none" stroke="rgb(255, 165, 0)" stroke-width="3.57" stroke-opacity="1.00" stroke-linejoin="round"/>
<path d="M267.88,380.62 C267.88,380.62 267.93,378.87 267.93,378.87 C267.93,378.87 267.83,381.22 267.83,381.22 C267.83,381.22 267.71,379.58 267.71,379.58 C267.71,379.58 267.71,380.01 267.71,380.01 C267.71,380.01 268.33,379.83 268.33,379.83" fill="none" stroke="rgb(255, 165, 0)" stroke-width="3.57" stroke-opacity="1.00" stroke-linejoin="round"/>
<path d="M279.27,379.93 C279.27,379.93 278.27,380.23 278.27,380.23 C278.16,380.45 277.84,381.07 277.81,381.17 C277.79,381.26 277.78,381.39 277.79,381.56 C277.79,381.56 278.36,380.32 278.36,380.32 C278.36,380.32 276.25,380.83 276.25,380.83 C276.25,380.83 276.48,381.08 276.48,381.08" fill="none" stroke="rgb(255, 165, 0)" stroke-width="3.57" stroke-opacity="1.00" stroke-linejoin="round"/>
<path d="M270.90,381.71 C270.90,381.71 271.62,379.36 271.62,379.36 C271.91,379.43 272.35,381.22 273.20,385.01 C273.21,385.05 273.24,385.15 273.24,385.11 C273.24,385.11 273.18,384.86 273.18,384.86" fill="none" stroke="rgb(255, 165, 0)" stroke-width="3.57" stroke-opacity="1.00" stroke-linejoin="round"/>
<path d="M271.20,392.01 C271.20,392.01 271.20,391.46 271.20,391.46 C271.20,391.46 271.06,391.42 271.06,391.42 C271.06,391.42 276.58,391.78 276.58,391.78 C276.58,391.78 276.77,391.40 276.77,391.40 C276.65,391.19 276.58,391.07 276.54,391.02 C276.51,390.97 276.46,390.93 276.42,390.90" fill="none" stroke="rgb(255, 165, 0)" stroke-width="3.57" stroke-opacity="1.00" stroke-linejoin="round"/>
<path d="M273.43,403.75 C273.60,402.81 273.73,402.20 273.82,401.91 C274.00,401.51 274.18,401.10 274.36,400.70 C274.56,400.08 274.46,399.31 274.23,398.97 C273.95,401.10 273.82,406.82 274.06,409.27 C274.10,409.69 274.18,410.23 274.31,410.89 C274.31,410.89 274.58,411.00 274.58,411.00" fill="none" stroke="rgb(255, 165, 0)" stroke-width="3.57" stroke-opacity="1.00" stroke-linejoin="round"/>
<path d="M281.20,400.23 C281.20,400.23 280.98,399.37 280.98,399.37 C281.33,400.20 281.90,405.36 282.20,408.17 C282.24,408.52 282.30,408.84 282.37,409.15 C282.37,409.15 282.46,409.13 282.46,409.13 C282.46,409.13 282.42,408.74 282.42,408.74" fill="none" stroke="rgb(255, 165, 0)" stroke-width="3.57" stroke-opacity="1.00" stroke-linejoin="round"/>
<path d="M269.96,410.43 C270.24,410.03 270.47,409.74 270.65,409.55 C270.83,409.36 271.20,409.02 271.77,408.51 C271.77,408.51 272.07,408.48 272.07,408.48 C271.65,408.86 266.21,409.76 265.50,409.97 C263.19,410.64 250.14,415.72 247.91,417.53 C247.14,418.17 246.54,419.37 246.10,420.55" fill="none" stroke="rgb(255, 165, 0)" stroke-width="3.57" stroke-opacity="1.00" stroke-linejoin="round"/>
<path d="M249.06,425.88 C249.06,425.88 249.30,423.63 249.30,423.63 C249.30,423.63 248.89,453.60 248.89,453.60 C246.95,449.98 242.78,449.18 242.13,449.18 C242.13,449.18 241.77,449.45 241.77,449.45 C241.77,449.45 241.74,449.61 241.74,449.61" fill="none" stroke="rgb(255, 165, 0)" stroke-width="3.57" stroke-opacity="1.00" stroke-linejoin="round"/>
<path d="M237.72,459.01 C237.72,459.01 237.50,456.40 237.50,456.40 C237.65,456.45 240.37,458.92 243.30,460.11 C246.79,461.50 252.16,462.66 254.84,462.39 C256.06,462.25 257.82,461.78 260.40,460.98 C260.40,460.98 260.22,461.33 260.22,461.33" fill="none" stroke="rgb(255, 165, 0)" stroke-width="3.57" stroke-opacity="1.00" stroke-linejoin="round"/>
<path d="M256.99,440.69 C256.99,440.69 256.68,440.40 256.68,440.40 C256.68,440.40 257.16,461.65 257.16,461.65 C257.16,461.65 257.39,460.23 257.39,460.23" fill="none" stroke="rgb(255, 165, 0)" stroke-width="3.57" stroke-opacity="1.00" stroke-linejoin="round"/>
<path d="M260.45,444.75 C260.45,444.75 259.62,444.09 259.62,444.09 C259.70,443.35 262.22,440.29 263.66,439.07 C265.00,437.94 266.39,437.15 266.88,437.14 C266.88,437.14 267.16,437.32 267.16,437.32 C267.16,437.32 267.20,437.44 267.20,437.44" fill="none" stroke="rgb(255, 165, 0)" stroke-width="3.57" stroke-opacity="1.00" stroke-linejoin="round"/>
<path d="M265.45,439.45 C265.45,439.45 264.62,439.28 264.62,439.28 C264.62,439.28 264.54,439.05 264.54,439.05 C266.03,442.84 272.82,460.50 275.73,464.68 C276.28,465.47 276.89,465.82 277.28,465.87 C277.28,465.87 277.63,464.32 277.63,464.32" fill="none" stroke="rgb(255, 165, 0)" stroke-width="3.57" stroke-opacity="1.00" stroke-linejoin="round"/>
<path d="M309.13,436.82 C309.13,436.82 308.85,435.68 308.85,435.68 C309.03,435.68 309.76,436.15 307.87,445.62 C305.35,457.62 304.79,459.46 304.07,461.38 C304.07,461.38 304.03,460.16 304.03,460.16" fill="none" stroke="rgb(255, 165, 0)" stroke-width="3.57" stroke-opacity="1.00" stroke-linejoin="round"/>
<path d="M288.83,407.26 C288.30,407.08 287.92,406.73 287.76,406.66 C287.11,406.37 286.07,406.30 285.41,406.44 C294.75,406.75 302.82,407.79 308.26,409.61 C314.85,411.85 320.88,415.80 321.22,416.69 C321.43,417.28 321.47,417.70 321.38,417.86" fill="none" stroke="rgb(255, 165, 0)" stroke-width="3.57" stroke-opacity="1.00" stroke-linejoin="round"/>
<path d="M322.69,417.78 C322.67,417.59 322.64,417.44 322.61,417.32 C322.46,416.78 322.50,414.29 322.37,414.14 C321.49,415.69 321.18,416.61 321.28,417.82 C321.43,419.72 322.66,439.81 323.19,447.89 C323.39,450.33 323.64,453.48 323.70,454.21 C323.70,454.21 323.72,453.85 323.72,453.85" fill="none" stroke="rgb(255, 165, 0)" stroke-width="3.57" stroke-opacity="1.00" stroke-linejoin="round"/>
<path d="M311.75,442.19 C311.75,442.19 312.41,437.61 312.41,437.61 C312.41,437.61 316.36,461.20 316.36,461.20 C316.36,461.20 316.41,460.67 316.41,460.67" fill="none" stroke="rgb(255, 165, 0)" stroke-width="3.57" stroke-opacity="1.00" stroke-linejoin="round"/>
<path d="M316.45,460.46 C316.45,460.46 316.32,460.49 316.32,460.49 C315.74,461.24 315.08,463.85 315.12,465.87 C315.16,467.08 315.88,468.37 316.35,468.55 C317.67,468.86 321.95,467.58 324.67,465.27 C326.24,463.90 328.45,461.10 328.95,459.85 C329.41,458.68 329.10,457.56 328.40,456.74 C327.43,456.30 325.90,456.24 324.03,456.70 C322.75,457.01 321.41,457.64 320.47,458.25" fill="none" stroke="rgb(255, 165, 0)" stroke-width="3.57" stroke-opacity="1.00" stroke-linejoin="round"/>
<path d="M272.32,466.68 C273.00,465.34 273.41,464.53 273.54,464.26 C273.81,463.70 273.88,463.29 273.96,462.61 C273.83,462.61 272.28,467.15 274.67,486.33 C275.80,494.82 277.91,510.67 278.89,518.03 C279.98,526.04 282.11,533.57 281.96,533.98 C281.96,533.98 280.97,532.65 280.97,532.65" fill="none" stroke="rgb(255, 165, 0)" stroke-width="3.57" stroke-opacity="1.00" stroke-linejoin="round"/>
<path d="M291.63,491.49 C291.63,491.49 290.65,491.09 290.65,491.09 C290.24,500.82 290.31,508.14 291.02,520.78 C292.16,534.72 293.45,551.10 293.61,553.53 C293.61,553.53 293.31,552.38 293.31,552.38" fill="none" stroke="rgb(255, 165, 0)" stroke-width="3.57" stroke-opacity="1.00" stroke-linejoin="round"/>
<path d="M279.40,545.16 C279.79,544.37 280.42,543.18 280.44,543.03 C280.47,542.88 280.43,542.62 280.32,542.26 C279.67,541.79 278.33,541.62 276.93,542.13 C274.19,543.14 269.48,547.53 268.59,548.86 C267.88,549.92 267.67,550.94 267.82,551.84 C269.19,553.19 274.63,553.16 278.93,552.42 C284.02,551.52 294.82,548.78 295.43,548.86 C295.87,548.92 296.50,549.54 296.49,549.53" fill="none" stroke="rgb(255, 165, 0)" stroke-width="3.57" stroke-opacity="1.00" stroke-linejoin="round"/>
<path d="M296.59,498.97 C296.33,498.51 296.15,498.17 296.06,497.96 C295.21,496.00 295.22,494.58 295.45,493.18 C295.97,494.63 297.95,508.91 300.04,518.65 C302.33,528.66 304.43,533.66 305.52,535.86 C305.52,535.86 305.87,534.50 305.87,534.50" fill="none" stroke="rgb(255, 165, 0)" stroke-width="3.57" stroke-opacity="1.00" stroke-linejoin="round"/>
<path d="M304.01,464.80 C304.01,464.80 303.81,463.19 303.81,463.19 C304.73,463.31 306.48,465.16 307.21,467.41 C308.50,471.55 311.00,486.24 311.72,491.63 C312.77,500.87 313.68,515.10 313.72,515.32 C313.72,515.32 313.81,514.58 313.81,514.58" fill="none" stroke="rgb(255, 165, 0)" stroke-width="3.57" stroke-opacity="1.00" stroke-linejoin="round"/>
<path d="M310.90,509.96 C310.90,509.96 310.82,507.54 310.82,507.54 C311.61,507.25 315.56,527.04 316.01,530.19 C316.39,532.88 316.46,540.05 316.56,541.20 C316.56,541.20 316.99,541.21 316.99,541.21 C316.99,541.21 317.23,540.96 317.23,540.96" fill="none" stroke="rgb(255, 165, 0)" stroke-width="3.57" stroke-opacity="1.00" stroke-linejoin="round"/>
<path d="M319.86,540.81 C319.86,540.81 318.13,539.35 318.13,539.35 C319.16,538.03 323.16,536.92 327.32,536.51 C332.03,536.09 338.52,536.65 340.20,537.96 C341.05,538.69 341.64,540.31 341.46,541.33 C341.01,543.23 336.68,546.50 332.36,548.23 C331.60,548.53 327.67,549.80 327.35,549.85 C327.12,549.87 326.93,549.80 326.77,549.62 C326.77,549.62 327.30,549.22 327.30,549.22" fill="none" stroke="rgb(255, 165, 0)" stroke-width="3.57" stroke-opacity="1.00" stroke-linejoin="round"/>
<path d="M304.21,544.37 C304.21,544.37 303.60,542.18 303.60,542.18 C302.93,542.07 304.80,541.59 306.82,542.35 C308.65,543.04 313.46,545.54 317.26,546.49 C323.73,548.03 331.64,547.42 332.27,547.44 C332.27,547.44 332.81,547.81 332.81,547.81 C332.81,547.81 332.75,547.78 332.75,547.78" fill="none" stroke="rgb(255, 165, 0)" stroke-width="3.57" stroke-opacity="1.00" stroke-linejoin="round"/>
<path d="M236.57,444.75 C236.57,444.75 237.43,440.21 237.43,440.21 C235.92,441.42 233.72,445.23 233.43,447.46 C233.21,449.22 233.66,450.74 234.54,451.90 C235.67,452.23 237.04,452.06 238.06,451.19 C238.91,450.45 240.50,447.96 240.90,446.77 C241.36,445.32 241.28,443.36 240.77,442.20 C240.41,441.45 238.85,440.12 237.54,439.33 C236.29,438.59 235.21,438.28 234.52,438.34" fill="none" stroke="rgb(255, 165, 0)" stroke-width="3.57" stroke-opacity="1.00" stroke-linejoin="round"/>
<path d="M205.04,285.92 C205.04,285.92 203.48,283.86 203.48,283.86 C203.67,283.18 207.25,281.08 207.87,280.67 C211.23,278.43 212.91,276.98 212.95,276.77 C212.17,276.39 209.08,277.15 206.45,278.42 C201.26,280.98 191.25,288.13 185.88,292.71 C180.93,296.96 172.52,305.44 167.44,311.41 C164.74,314.63 155.91,326.46 152.91,331.71 C145.54,344.72 143.88,355.80 143.83,357.13 C143.83,357.13 146.86,358.94 146.86,358.94" fill="none" stroke="rgb(255, 0, 0)" stroke-width="3.57" stroke-opacity="1.00" stroke-linejoin="round"/>
<path d="M142.69,359.39 C141.78,358.80 140.90,358.32 140.36,358.04 C140.01,357.84 139.85,357.51 139.76,357.01 C140.28,355.93 143.36,354.33 145.40,354.87 C145.87,355.00 153.94,356.87 157.23,356.89 C166.72,356.89 179.67,358.40 182.39,358.55 C190.83,358.92 203.39,356.90 209.48,355.45 C212.65,354.68 219.89,352.63 223.26,352.18 C236.71,350.42 256.08,351.71 259.63,351.16 C265.16,350.15 277.09,348.21 281.82,348.37 C282.10,348.38 289.23,348.57 292.59,347.95 C304.38,345.75 308.54,345.51 319.16,344.16 C322.04,343.80 327.65,343.61 328.70,343.78 C333.80,344.63 334.84,344.54 335.97,343.65" fill="none" stroke="rgb(255, 0, 0)" stroke-width="3.57" stroke-opacity="1.00" stroke-linejoin="round"/>
<path d="M214.79,277.95 C214.65,277.65 214.48,277.41 214.28,277.21 C213.88,276.83 212.25,275.59 211.84,275.30 C212.77,276.49 214.32,277.18 217.10,277.52 C223.50,278.15 234.37,279.32 243.87,280.95 C253.40,282.84 260.87,284.74 265.51,287.29 C269.07,289.42 284.23,295.46 287.19,296.94 C290.74,298.73 297.65,302.89 299.13,304.03 C301.17,305.61 306.62,310.96 309.62,313.10 C315.02,317.01 319.03,320.37 320.96,322.91 C325.76,329.45 333.24,339.07 335.12,343.91 C335.12,343.91 335.28,344.42 335.28,344.42" fill="none" stroke="rgb(255, 0, 0)" stroke-width="3.57" stroke-opacity="1.00" stroke-linejoin="round"/>
<path d="M229.41,359.74 C229.35,359.14 229.31,358.70 229.29,358.43 C229.21,355.87 229.76,355.08 230.68,354.31 C231.43,354.31 231.83,355.34 231.92,357.74 C231.94,358.15 232.21,402.49 232.39,419.70 C232.81,443.93 233.52,453.59 233.81,457.54 C233.81,457.54 232.45,455.77 232.45,455.77" fill="none" stroke="rgb(255, 0, 0)" stroke-width="3.57" stroke-opacity="1.00" stroke-linejoin="round"/>
<path d="M214.38,268.71 C214.51,267.40 215.07,265.09 215.15,264.23 C215.19,263.91 215.13,263.52 215.00,263.07 C215.01,266.02 215.03,272.99 215.05,277.00 C215.05,279.20 215.12,280.72 215.32,283.80 C215.32,283.80 215.41,283.70 215.41,283.70" fill="none" stroke="rgb(255, 0, 0)" stroke-width="3.57" stroke-opacity="1.00" stroke-linejoin="round"/>
<path d="M78.73,165.07 C78.44,165.04 78.23,165.01 78.10,164.97 C77.80,164.87 77.53,164.70 77.24,164.59 C77.08,164.53 76.81,164.46 76.42,164.36 C76.21,165.42 76.29,171.95 76.75,175.71 C77.34,180.46 78.23,185.02 78.78,186.52" fill="none" stroke="rgb(0, 0, 255)" stroke-width="3.57" stroke-opacity="1.00" stroke-linejoin="round"/>
<path d="M80.91,200.28 C80.91,200.28 81.13,197.86 81.13,197.86 C81.17,199.72 81.21,203.33 81.22,205.07 C81.23,206.02 81.23,206.97 81.23,207.92" fill="none" stroke="rgb(0, 0, 255)" stroke-width="3.57" stroke-opacity="1.00" stroke-linejoin="round"/>
<path d="M86.88,212.50 C86.88,212.50 85.77,212.31 85.77,212.31 C85.77,212.31 86.11,221.89 86.11,221.89" fill="none" stroke="rgb(0, 0, 255)" stroke-width="3.57" stroke-opacity="1.00" stroke-linejoin="round"/>
<path d="M84.47,242.33 C84.47,242.33 84.50,238.01 84.50,238.01 C84.95,239.15 85.15,240.50 85.12,242.92 C85.08,246.86 84.65,250.61 84.44,252.13" fill="none" stroke="rgb(0, 0, 255)" stroke-width="3.57" stroke-opacity="1.00" stroke-linejoin="round"/>
<path d="M89.57,267.28 C89.57,267.28 89.59,267.20 89.59,267.20 C89.95,267.95 90.46,269.58 91.10,272.15 C91.33,273.13 91.56,274.10 91.80,275.08" fill="none" stroke="rgb(0, 0, 255)" stroke-width="3.57" stroke-opacity="1.00" stroke-linejoin="round"/>
<path d="M92.73,288.44 C93.24,291.91 94.12,297.87 94.20,298.54 C94.25,299.00 94.33,299.84 94.43,301.04" fill="none" stroke="rgb(0, 0, 255)" stroke-width="3.57" stroke-opacity="1.00" stroke-linejoin="round"/>
<path d="M95.54,323.72 C95.54,323.72 95.10,321.95 95.10,321.95 C95.79,325.61 96.26,330.45 96.38,335.62 C96.45,338.93 96.80,344.59 97.10,345.26" fill="none" stroke="rgb(0, 0, 255)" stroke-width="3.57" stroke-opacity="1.00" stroke-linejoin="round"/>
<path d="M99.90,361.11 C99.99,361.19 100.18,361.58 100.44,362.42 C100.66,363.14 105.86,387.43 106.63,389.95 C108.04,394.54 109.06,396.45 109.28,396.65" fill="none" stroke="rgb(0, 0, 255)" stroke-width="3.57" stroke-opacity="1.00" stroke-linejoin="round"/>
<path d="M98.52,398.45 C98.52,398.45 97.85,398.53 97.85,398.53 C97.72,398.52 98.24,402.74 98.42,407.15 C98.47,408.25 98.51,409.34 98.55,410.44" fill="none" stroke="rgb(0, 0, 255)" stroke-width="3.57" stroke-opacity="1.00" stroke-linejoin="round"/>
<path d="M104.89,403.50 C103.93,404.30 103.43,405.56 103.26,408.20 C103.19,409.51 103.13,410.83 103.06,412.15" fill="none" stroke="rgb(0, 0, 255)" stroke-width="3.57" stroke-opacity="1.00" stroke-linejoin="round"/>
<path d="M108.96,421.40 C108.96,421.40 109.11,422.19 109.11,422.19 C109.11,422.19 109.10,422.05 109.10,422.05 C108.70,423.15 107.59,426.19 107.30,426.80 C107.11,427.19 106.74,427.86 106.18,428.79" fill="none" stroke="rgb(0, 0, 255)" stroke-width="3.57" stroke-opacity="1.00" stroke-linejoin="round"/>
<path d="M102.08,433.78 C102.08,433.78 101.27,435.50 101.27,435.50 C101.27,435.50 102.10,434.88 102.10,434.88" fill="none" stroke="rgb(0, 0, 255)" stroke-width="3.57" stroke-opacity="1.00" stroke-linejoin="round"/>
<path d="M164.05,159.77 C164.05,159.77 163.99,157.94 163.99,157.94 C163.99,157.94 165.13,166.87 165.13,166.87" fill="none" stroke="rgb(0, 0, 255)" stroke-width="3.57" stroke-opacity="1.00" stroke-linejoin="round"/>
<path d="M170.53,176.01 C170.53,176.01 170.68,173.54 170.68,173.54 C170.68,173.54 171.20,180.74 171.20,180.74" fill="none" stroke="rgb(0, 0, 255)" stroke-width="3.57" stroke-opacity="1.00" stroke-linejoin="round"/>
<path d="M171.85,199.18 C171.98,198.06 172.19,196.77 172.26,196.33 C172.28,196.20 172.30,196.09 172.30,196.01 C172.16,197.98 171.97,200.77 171.90,202.72 C171.85,204.37 171.75,207.12 171.71,208.21" fill="none" stroke="rgb(0, 0, 255)" stroke-width="3.57" stroke-opacity="1.00" stroke-linejoin="round"/>
<path d="M172.60,223.90 C172.60,223.90 172.55,223.15 172.55,223.15 C172.69,223.21 171.54,232.39 171.44,234.64 C171.40,235.65 171.44,236.28 171.51,236.32" fill="none" stroke="rgb(0, 0, 255)" stroke-width="3.57" stroke-opacity="1.00" stroke-linejoin="round"/>
<path d="M174.20,243.23 C174.20,243.23 174.17,241.97 174.17,241.97 C174.00,245.26 173.70,250.90 173.64,251.60 C173.60,252.09 173.50,253.03 173.33,254.41" fill="none" stroke="rgb(0, 0, 255)" stroke-width="3.57" stroke-opacity="1.00" stroke-linejoin="round"/>
<path d="M178.45,261.18 C178.45,261.18 177.81,261.26 177.81,261.26 C177.29,262.07 177.05,263.33 177.44,264.74 C177.58,265.23 177.96,266.31 178.58,267.98" fill="none" stroke="rgb(0, 0, 255)" stroke-width="3.57" stroke-opacity="1.00" stroke-linejoin="round"/>
<path d="M264.43,142.85 C264.43,142.85 263.34,142.59 263.34,142.59 C263.34,142.59 263.22,141.58 263.22,141.58 C263.22,141.58 264.24,150.68 264.24,150.68" fill="none" stroke="rgb(0, 0, 255)" stroke-width="3.57" stroke-opacity="1.00" stroke-linejoin="round"/>
<path d="M265.52,164.53 C265.52,164.53 265.39,161.26 265.39,161.26 C265.39,161.26 267.52,166.08 267.52,166.08" fill="none" stroke="rgb(0, 0, 255)" stroke-width="3.57" stroke-opacity="1.00" stroke-linejoin="round"/>
<path d="M263.97,186.04 C263.97,186.04 263.58,186.16 263.58,186.16 C263.28,186.71 263.09,192.07 262.97,195.17 C262.88,196.73 262.75,199.30 262.69,200.32" fill="none" stroke="rgb(0, 0, 255)" stroke-width="3.57" stroke-opacity="1.00" stroke-linejoin="round"/>
<path d="M266.38,217.13 C266.38,217.13 263.90,215.85 263.90,215.85 C263.90,215.85 262.66,225.77 262.66,225.77" fill="none" stroke="rgb(0, 0, 255)" stroke-width="3.57" stroke-opacity="1.00" stroke-linejoin="round"/>
<path d="M268.27,231.93 C268.27,231.93 266.99,231.36 266.99,231.36 C266.99,231.36 267.00,236.70 267.00,236.70" fill="none" stroke="rgb(0, 0, 255)" stroke-width="3.57" stroke-opacity="1.00" stroke-linejoin="round"/>
<path d="M271.54,245.12 C271.54,245.12 271.54,244.60 271.54,244.60 C271.87,245.70 272.11,246.46 272.25,246.90 C272.39,247.34 272.63,248.07 272.97,249.08" fill="none" stroke="rgb(0, 0, 255)" stroke-width="3.57" stroke-opacity="1.00" stroke-linejoin="round"/>
<path d="M273.95,271.91 C273.95,271.91 273.84,270.74 273.84,270.74 C274.48,271.40 274.69,272.19 274.52,273.88 C274.35,275.56 274.07,277.11 273.54,279.64" fill="none" stroke="rgb(0, 0, 255)" stroke-width="3.57" stroke-opacity="1.00" stroke-linejoin="round"/>
<path d="M276.47,299.55 C276.47,299.55 276.36,297.71 276.36,297.71 C276.36,300.06 276.85,304.58 277.79,310.44 C277.93,311.31 278.07,312.18 278.21,313.04" fill="none" stroke="rgb(0, 0, 255)" stroke-width="3.57" stroke-opacity="1.00" stroke-linejoin="round"/>
<path d="M178.10,331.27 C178.10,331.27 177.68,330.93 177.68,330.93 C177.68,330.93 179.41,332.86 179.41,332.86" fill="none" stroke="rgb(0, 0, 255)" stroke-width="3.57" stroke-opacity="1.00" stroke-linejoin="round"/>
<path d="M194.39,335.34 C194.39,335.34 193.83,334.20 193.83,334.20 C194.01,335.16 194.11,335.93 194.13,336.49 C194.15,337.06 194.12,338.21 194.04,339.95" fill="none" stroke="rgb(0, 0, 255)" stroke-width="3.57" stroke-opacity="1.00" stroke-linejoin="round"/>
<path d="M364.52,152.66 C364.52,152.66 363.67,152.91 363.67,152.91 C364.06,153.92 365.24,154.79 365.59,155.23 C366.83,156.76 367.90,159.31 367.89,160.40" fill="none" stroke="rgb(0, 0, 255)" stroke-width="3.57" stroke-opacity="1.00" stroke-linejoin="round"/>
<path d="M375.76,185.58 C375.76,185.58 375.09,185.17 375.09,185.17 C375.09,185.17 375.65,192.91 375.65,192.91" fill="none" stroke="rgb(0, 0, 255)" stroke-width="3.57" stroke-opacity="1.00" stroke-linejoin="round"/>
<path d="M377.82,212.83 C377.82,212.83 376.57,212.83 376.57,212.83 C376.26,213.16 376.08,214.15 375.77,217.51 C375.65,218.80 375.52,220.09 375.40,221.38" fill="none" stroke="rgb(0, 0, 255)" stroke-width="3.57" stroke-opacity="1.00" stroke-linejoin="round"/>
<path d="M377.65,240.13 C377.65,240.13 376.85,240.09 376.85,240.09 C376.55,240.68 377.07,245.83 377.12,247.23 C377.16,248.33 377.13,250.56 377.09,251.96" fill="none" stroke="rgb(0, 0, 255)" stroke-width="3.57" stroke-opacity="1.00" stroke-linejoin="round"/>
<path d="M381.15,277.59 C381.15,277.59 380.80,276.23 380.80,276.23 C381.31,279.10 381.57,280.80 381.74,282.51 C381.87,283.78 382.13,286.75 382.27,288.44" fill="none" stroke="rgb(0, 0, 255)" stroke-width="3.57" stroke-opacity="1.00" stroke-linejoin="round"/>
<path d="M383.22,323.87 C383.22,323.87 382.65,323.54 382.65,323.54 C382.65,323.54 383.23,331.85 383.23,331.85" fill="none" stroke="rgb(0, 0, 255)" stroke-width="3.57" stroke-opacity="1.00" stroke-linejoin="round"/>
<path d="M379.43,374.00 C379.43,374.00 379.09,371.95 379.09,371.95 C379.83,372.23 380.31,373.32 380.50,375.43 C380.55,376.02 380.77,382.68 380.81,383.82" fill="none" stroke="rgb(0, 0, 255)" stroke-width="3.57" stroke-opacity="1.00" stroke-linejoin="round"/>
<path d="M470.80,158.68 C470.80,158.68 469.93,155.40 469.93,155.40 C469.93,155.40 472.34,163.06 472.34,163.06" fill="none" stroke="rgb(0, 0, 255)" stroke-width="3.57" stroke-opacity="1.00" stroke-linejoin="round"/>
<path d="M477.57,183.40 C477.57,183.40 478.35,181.61 478.35,181.61 C480.04,181.87 480.86,182.42 481.21,183.89 C481.82,186.48 482.10,192.76 482.02,194.82" fill="none" stroke="rgb(0, 0, 255)" stroke-width="3.57" stroke-opacity="1.00" stroke-linejoin="round"/>
<path d="M481.82,217.42 C481.82,217.42 481.53,217.49 481.53,217.49 C481.31,217.99 480.87,224.56 480.73,227.96 C480.61,230.26 479.68,236.04 479.51,236.51 C479.41,236.76 479.22,236.93 478.94,237.01" fill="none" stroke="rgb(0, 0, 255)" stroke-width="3.57" stroke-opacity="1.00" stroke-linejoin="round"/>
<path d="M480.09,267.32 C480.09,267.32 478.63,265.47 478.63,265.47 C478.16,267.44 476.96,273.34 476.16,276.72 C475.96,277.52 475.77,278.32 475.58,279.12" fill="none" stroke="rgb(0, 0, 255)" stroke-width="3.57" stroke-opacity="1.00" stroke-linejoin="round"/>
<path d="M473.96,299.95 C473.96,299.95 473.51,296.22 473.51,296.22 C473.84,299.38 474.63,306.86 474.88,308.77 C474.93,309.13 475.00,309.60 475.09,310.17" fill="none" stroke="rgb(0, 0, 255)" stroke-width="3.57" stroke-opacity="1.00" stroke-linejoin="round"/>
<path d="M479.29,336.89 C479.29,336.89 478.41,333.30 478.41,333.30 C478.42,333.27 478.98,338.43 478.95,341.35 C478.84,345.96 478.71,347.50 478.38,350.28" fill="none" stroke="rgb(0, 0, 255)" stroke-width="3.57" stroke-opacity="1.00" stroke-linejoin="round"/>
<path d="M480.09,366.60 C480.09,366.60 479.75,366.50 479.75,366.50 C481.40,370.40 482.67,377.74 482.77,381.74 C482.85,385.47 482.47,388.52 482.32,388.86" fill="none" stroke="rgb(0, 0, 255)" stroke-width="3.57" stroke-opacity="1.00" stroke-linejoin="round"/>
<path d="M485.72,409.74 C485.72,409.74 485.40,408.10 485.40,408.10 C486.47,409.80 487.34,416.38 487.34,419.20 C487.34,420.75 487.05,422.44 486.45,425.04" fill="none" stroke="rgb(0, 0, 255)" stroke-width="3.57" stroke-opacity="1.00" stroke-linejoin="round"/>
</g>
</svg>
