<?xml version="1.0" encoding="UTF-8" standalone="no"?>
<!DOCTYPE svg PUBLIC "-//W3C//DTD SVG 1.1//EN" "http://www.w3.org/Graphics/SVG/1.1/DTD/svg11.dtd">
<svg width="128.40" height="181.68" viewBox="0.00 0.00 535.00 757.00" xmlns="http://www.w3.org/2000/svg" xmlns:xlink="http://www.w3.org/1999/xlink">
<g stroke-linecap="round" id="68">
<path d="M235.71,370.32 C235.53,370.09 235.28,369.53 235.28,369.11 C235.28,368.79 235.47,367.75 235.54,367.46 C235.58,371.38 236.97,376.92 237.92,378.56 C238.97,380.29 242.00,382.96 243.39,383.44 C246.47,384.43 250.76,384.28 254.29,383.49 C257.39,382.77 259.88,381.58 261.19,380.35 C262.48,379.02 264.15,374.70 264.66,370.46 C264.76,369.56 265.00,367.25 265.03,366.37 C265.03,366.37 264.63,366.67 264.63,366.67" fill="none" stroke="rgb(255, 165, 0)" stroke-width="3.33" stroke-opacity="1.00" stroke-linejoin="round"/>
<path d="M244.52,351.04 C244.52,351.04 244.49,350.48 244.49,350.48 C244.49,350.48 245.58,349.52 245.58,349.52 C244.54,348.84 240.83,349.16 239.58,349.79 C237.96,350.65 234.93,353.47 233.66,355.41 C232.24,357.62 230.67,362.31 230.58,364.43 C230.53,366.38 231.54,368.57 232.30,368.86 C232.30,368.86 233.16,368.11 233.16,368.11" fill="none" stroke="rgb(255, 165, 0)" stroke-width="3.33" stroke-opacity="1.00" stroke-linejoin="round"/>
<path d="M234.18,365.96 C234.14,365.83 234.09,365.73 234.02,365.66 C233.96,365.59 233.80,365.47 233.55,365.28 C233.55,365.28 233.30,366.69 233.30,366.69 C234.31,367.43 237.85,367.84 241.42,367.42 C245.42,366.93 251.99,365.26 251.94,364.81 C251.94,364.81 251.61,364.92 251.61,364.92" fill="none" stroke="rgb(255, 165, 0)" stroke-width="3.33" stroke-opacity="1.00" stroke-linejoin="round"/>
<path d="M253.02,364.27 C253.02,364.27 252.45,364.27 252.45,364.27 C254.08,364.19 261.51,365.17 262.64,364.89 C263.15,364.75 263.70,364.28 263.73,364.17" fill="none" stroke="rgb(255, 165, 0)" stroke-width="3.33" stroke-opacity="1.00" stroke-linejoin="round"/>
<path d="M245.34,349.16 C245.34,349.16 244.20,349.22 244.20,349.22 C244.60,349.34 250.17,349.05 252.17,349.63 C254.50,350.34 258.70,352.83 260.71,354.53 C264.87,358.10 267.49,363.03 267.84,363.67 C267.84,363.67 268.19,363.40 268.19,363.40" fill="none" stroke="rgb(255, 165, 0)" stroke-width="3.33" stroke-opacity="1.00" stroke-linejoin="round"/>
<path d="M233.27,368.09 C233.16,368.09 233.09,368.08 233.06,368.07 C233.01,368.05 232.84,367.91 232.81,367.87 C232.68,367.67 231.62,366.30 230.95,366.33 C230.20,366.40 228.86,368.38 228.85,369.96 C228.89,371.85 230.73,374.11 232.19,373.99 C233.25,373.87 234.17,372.81 234.12,372.69 C234.12,372.69 233.94,372.87 233.94,372.87" fill="none" stroke="rgb(255, 165, 0)" stroke-width="3.33" stroke-opacity="1.00" stroke-linejoin="round"/>
<path d="M262.96,367.87 C262.96,367.87 262.10,367.00 262.10,367.00 C262.38,366.23 264.29,364.88 265.92,364.27 C267.93,363.55 269.24,363.79 269.89,364.11 C270.37,365.68 270.00,367.36 268.68,369.03 C268.13,369.73 267.47,370.12 267.14,370.18 C267.14,370.18 267.41,369.66 267.41,369.66" fill="none" stroke="rgb(255, 165, 0)" stroke-width="3.33" stroke-opacity="1.00" stroke-linejoin="round"/>
<path d="M269.67,374.36 C269.59,374.14 269.55,373.97 269.54,373.85 C269.54,373.74 269.58,373.52 269.66,373.19 C269.66,373.46 269.36,377.32 269.36,380.63 C269.37,385.88 269.27,389.82 269.09,392.10 C269.09,392.10 269.36,391.42 269.36,391.42" fill="none" stroke="rgb(255, 165, 0)" stroke-width="3.33" stroke-opacity="1.00" stroke-linejoin="round"/>
<path d="M233.45,375.96 C233.45,375.96 232.96,373.77 232.96,373.77 C233.88,373.72 234.23,377.13 234.45,382.71 C234.54,384.58 235.26,404.48 234.51,410.13 C234.45,410.60 233.57,413.46 233.95,414.13 C233.95,414.13 236.31,414.88 236.31,414.88 C236.31,414.88 236.22,415.21 236.22,415.21" fill="none" stroke="rgb(255, 165, 0)" stroke-width="3.33" stroke-opacity="1.00" stroke-linejoin="round"/>
<path d="M248.66,384.52 C248.66,384.52 247.60,385.22 247.60,385.22 C247.60,385.22 247.74,391.15 247.74,391.15 C246.29,390.65 243.74,391.17 242.06,392.50 C240.48,393.83 238.18,398.87 237.89,400.52 C237.37,403.59 235.28,421.03 236.18,424.93 C237.05,427.80 237.33,430.23 237.43,430.59 C237.43,430.59 237.53,429.82 237.53,429.82" fill="none" stroke="rgb(255, 165, 0)" stroke-width="3.33" stroke-opacity="1.00" stroke-linejoin="round"/>
<path d="M243.83,407.72 C243.83,407.44 243.83,407.23 243.83,407.10 C243.84,406.96 243.85,406.71 243.87,406.35 C244.07,406.34 243.70,411.95 243.51,414.70 C243.44,416.04 243.17,424.44 242.80,427.46 C242.78,427.62 242.85,427.60 242.84,427.63 C242.84,427.63 242.83,427.61 242.81,427.57" fill="none" stroke="rgb(255, 165, 0)" stroke-width="3.33" stroke-opacity="1.00" stroke-linejoin="round"/>
<path d="M236.15,430.01 C236.15,430.01 235.99,429.47 235.99,429.47 C236.93,429.02 242.27,429.23 242.45,429.22 C242.56,429.21 242.68,429.16 242.81,429.08 C242.81,429.08 242.93,428.83 242.93,428.83" fill="none" stroke="rgb(255, 165, 0)" stroke-width="3.33" stroke-opacity="1.00" stroke-linejoin="round"/>
<path d="M245.21,413.43 C245.21,413.43 245.01,413.05 245.01,413.05 C245.01,413.05 248.10,434.95 248.10,434.95 C248.38,434.77 249.05,434.04 249.14,434.00 C250.19,433.63 269.30,431.38 270.32,431.27 C270.32,431.27 269.69,431.27 269.69,431.27" fill="none" stroke="rgb(255, 165, 0)" stroke-width="3.33" stroke-opacity="1.00" stroke-linejoin="round"/>
<path d="M269.26,412.64 C269.26,412.64 269.01,412.48 269.01,412.48 C269.01,412.48 269.05,431.52 269.05,431.52 C269.05,431.52 269.17,430.71 269.17,430.71" fill="none" stroke="rgb(255, 165, 0)" stroke-width="3.33" stroke-opacity="1.00" stroke-linejoin="round"/>
<path d="M256.72,382.86 C256.72,382.86 257.12,382.14 257.12,382.14 C257.70,382.59 258.03,383.21 258.32,384.54 C258.59,385.77 258.61,386.18 258.48,386.24 C258.48,386.24 258.11,385.87 258.11,385.87" fill="none" stroke="rgb(255, 165, 0)" stroke-width="3.33" stroke-opacity="1.00" stroke-linejoin="round"/>
<path d="M258.13,389.38 C258.02,389.21 257.95,389.09 257.89,389.02 C257.82,388.93 257.69,388.80 257.52,388.64 C257.47,388.59 257.39,388.52 257.27,388.42 C257.34,388.44 258.58,388.30 262.28,389.43 C264.98,390.28 266.82,392.00 268.50,394.81 C271.70,400.33 276.26,415.49 277.84,417.52 C278.51,418.35 280.21,420.39 280.18,420.60 C280.18,420.60 279.87,420.52 279.87,420.52 C279.87,420.52 279.54,420.08 279.54,420.08" fill="none" stroke="rgb(255, 165, 0)" stroke-width="3.33" stroke-opacity="1.00" stroke-linejoin="round"/>
<path d="M266.31,411.01 C266.20,410.90 265.72,410.40 265.60,409.87 C265.45,409.24 265.02,406.63 265.03,406.47 C265.06,406.08 265.11,405.91 265.21,405.81 C265.44,406.16 268.03,412.57 269.88,416.21 C272.79,421.82 275.04,425.93 275.85,426.51 C275.85,426.51 280.76,422.13 280.76,422.13 C280.76,422.13 280.50,422.35 280.50,422.35" fill="none" stroke="rgb(255, 165, 0)" stroke-width="3.33" stroke-opacity="1.00" stroke-linejoin="round"/>
<path d="M277.69,425.25 C277.69,425.25 277.32,425.62 277.32,425.62 C277.32,425.62 279.81,428.95 279.81,428.95 C280.74,428.86 281.85,427.44 281.90,426.21 C281.93,424.80 281.04,423.50 280.53,423.06 C280.41,422.96 280.29,422.90 280.15,422.88 C280.15,422.88 280.14,422.80 280.14,422.80" fill="none" stroke="rgb(255, 165, 0)" stroke-width="3.33" stroke-opacity="1.00" stroke-linejoin="round"/>
<path d="M237.25,431.27 C237.25,431.27 237.01,429.72 237.01,429.72 C237.01,429.72 239.13,435.87 239.13,435.87 C240.24,435.25 240.76,434.77 240.88,433.83 C241.11,432.16 241.17,430.44 241.10,429.09 C241.10,429.09 241.20,429.49 241.20,429.49" fill="none" stroke="rgb(255, 165, 0)" stroke-width="3.33" stroke-opacity="1.00" stroke-linejoin="round"/>
<path d="M242.99,392.11 C242.95,391.89 242.92,391.72 242.92,391.58 C242.91,391.45 242.91,391.16 242.91,390.72 C244.59,390.95 246.26,397.96 246.50,398.96 C246.47,398.99 246.58,398.28 246.79,397.99 C247.61,396.90 253.50,395.56 255.80,395.47 C257.46,395.42 262.38,395.39 262.82,395.07 C262.82,395.07 262.56,390.28 262.56,390.28 C262.56,390.28 262.43,390.19 262.43,390.19 C262.43,390.19 262.36,390.23 262.36,390.23" fill="none" stroke="rgb(255, 165, 0)" stroke-width="3.33" stroke-opacity="1.00" stroke-linejoin="round"/>
<path d="M236.40,372.23 C236.40,372.23 236.16,371.96 236.16,371.96 C236.26,372.05 242.51,369.18 243.91,369.11 C244.23,369.10 244.72,369.18 245.36,369.35 C245.36,369.35 244.94,370.56 244.94,370.56" fill="none" stroke="rgb(255, 165, 0)" stroke-width="3.33" stroke-opacity="1.00" stroke-linejoin="round"/>
<path d="M250.26,369.75 C250.26,369.75 249.37,370.46 249.37,370.46 C249.37,370.46 258.37,368.75 258.37,368.75 C258.37,368.75 257.90,369.02 257.90,369.02" fill="none" stroke="rgb(255, 165, 0)" stroke-width="3.33" stroke-opacity="1.00" stroke-linejoin="round"/>
<path d="M241.83,372.64 C241.83,372.64 241.62,372.17 241.62,372.17 C241.62,372.17 241.88,372.11 241.88,372.11 C241.88,372.11 243.30,375.41 243.30,375.41 C243.30,375.41 243.38,372.57 243.38,372.57 C242.51,372.76 242.00,373.12 241.85,373.85 C241.57,375.27 242.23,376.17 242.70,376.42 C244.70,375.60 243.69,372.28 243.24,372.11 C243.24,372.11 242.74,373.28 242.74,373.28 C242.74,373.28 243.17,371.91 243.17,371.91 C243.17,371.91 242.86,372.11 242.86,372.11" fill="none" stroke="rgb(255, 165, 0)" stroke-width="3.33" stroke-opacity="1.00" stroke-linejoin="round"/>
<path d="M253.58,371.85 C253.58,371.85 253.19,371.39 253.19,371.39 C253.19,371.39 252.50,371.67 252.50,371.67 C252.50,371.67 252.15,373.52 252.15,373.52 C253.19,373.92 253.43,371.57 252.89,371.03 C252.89,371.03 252.64,374.94 252.64,374.94 C252.64,374.94 253.48,372.05 253.48,372.05 C253.48,372.05 253.82,373.73 253.82,373.73 C253.82,373.73 254.57,371.89 254.57,371.89 C254.57,371.89 254.20,373.13 254.20,373.13 C254.20,373.13 253.63,372.26 253.63,372.26" fill="none" stroke="rgb(255, 165, 0)" stroke-width="3.33" stroke-opacity="1.00" stroke-linejoin="round"/>
<path d="M245.78,380.10 C245.77,379.74 245.76,379.50 245.75,379.39 C245.72,379.13 245.65,378.93 245.56,378.78 C245.51,378.70 245.37,378.55 245.15,378.35 C245.49,378.87 248.65,380.41 250.57,380.38 C252.40,380.32 254.47,378.25 254.52,378.17 C254.53,378.16 254.51,378.10 254.45,377.97 C254.44,377.94 254.42,377.91 254.41,377.87" fill="none" stroke="rgb(255, 165, 0)" stroke-width="3.33" stroke-opacity="1.00" stroke-linejoin="round"/>
<path d="M238.75,352.73 C238.75,352.73 238.60,352.72 238.60,352.72 C238.60,352.72 238.49,352.56 238.49,352.56 C238.49,352.56 238.52,352.23 238.52,352.23 C238.40,352.22 232.85,356.85 231.95,364.42 C231.95,364.42 232.87,362.61 232.87,362.61" fill="none" stroke="rgb(255, 165, 0)" stroke-width="3.33" stroke-opacity="1.00" stroke-linejoin="round"/>
<path d="M242.55,353.11 C242.55,353.11 242.27,351.38 242.27,351.38 C242.27,351.38 235.66,362.40 235.66,362.40 C235.66,362.40 235.76,362.84 235.76,362.84 C235.76,362.84 236.26,362.39 236.26,362.39" fill="none" stroke="rgb(255, 165, 0)" stroke-width="3.33" stroke-opacity="1.00" stroke-linejoin="round"/>
<path d="M242.99,352.95 C242.99,352.95 242.83,352.72 242.83,352.72 C242.83,352.72 235.61,364.42 235.61,364.42 C235.61,364.42 236.84,362.95 236.84,362.95" fill="none" stroke="rgb(255, 165, 0)" stroke-width="3.33" stroke-opacity="1.00" stroke-linejoin="round"/>
<path d="M247.28,352.92 C247.28,352.92 247.04,352.27 247.04,352.27 C247.04,352.27 238.98,365.59 238.98,365.59 C238.98,365.59 240.49,363.68 240.49,363.68" fill="none" stroke="rgb(255, 165, 0)" stroke-width="3.33" stroke-opacity="1.00" stroke-linejoin="round"/>
<path d="M248.57,353.92 C248.57,353.92 248.51,353.60 248.51,353.60 C248.00,354.56 243.36,361.09 243.12,361.45 C242.57,362.31 242.26,363.11 242.20,363.63 C242.20,363.63 242.54,363.68 242.54,363.68 C242.54,363.68 243.58,362.82 243.58,362.82" fill="none" stroke="rgb(255, 165, 0)" stroke-width="3.33" stroke-opacity="1.00" stroke-linejoin="round"/>
<path d="M247.03,360.22 C247.03,360.22 247.04,359.99 247.04,359.99 C247.08,360.27 247.07,360.49 246.71,361.04 C245.80,362.45 244.26,364.57 243.63,365.31 C243.60,365.34 243.50,365.43 243.52,365.39 C243.63,365.14 243.69,364.97 243.72,364.89 C243.76,364.80 243.80,364.68 243.85,364.53" fill="none" stroke="rgb(255, 165, 0)" stroke-width="3.33" stroke-opacity="1.00" stroke-linejoin="round"/>
<path d="M248.22,351.85 C247.21,353.01 246.51,353.82 246.13,354.28 C244.20,356.58 240.07,362.17 239.10,363.91 C238.95,364.20 238.79,364.54 238.64,364.94 C238.64,364.94 238.68,365.04 238.68,365.04" fill="none" stroke="rgb(255, 165, 0)" stroke-width="3.33" stroke-opacity="1.00" stroke-linejoin="round"/>
<path d="M244.74,352.70 C244.74,352.70 243.92,352.74 243.92,352.74 C242.95,353.57 238.82,359.65 237.47,361.93 C237.17,362.45 236.51,363.60 235.51,365.39 C235.61,365.10 235.71,364.81 235.81,364.52 C235.89,364.27 236.00,363.93 236.12,363.61" fill="none" stroke="rgb(255, 165, 0)" stroke-width="3.33" stroke-opacity="1.00" stroke-linejoin="round"/>
<path d="M245.81,347.90 C245.56,348.40 245.31,348.89 245.06,349.39 C243.57,352.29 240.55,358.20 238.88,361.62 C238.13,363.18 237.66,364.34 237.23,365.61 C237.23,365.61 237.69,365.10 237.69,365.10" fill="none" stroke="rgb(255, 165, 0)" stroke-width="3.33" stroke-opacity="1.00" stroke-linejoin="round"/>
<path d="M248.07,352.51 C246.88,353.35 245.64,354.46 245.09,355.44 C244.56,356.39 242.53,361.47 242.20,362.31" fill="none" stroke="rgb(255, 165, 0)" stroke-width="3.33" stroke-opacity="1.00" stroke-linejoin="round"/>
<path d="M247.38,358.40 C247.38,358.40 246.08,357.59 246.08,357.59 C246.76,357.54 250.16,361.99 250.52,362.44 C251.75,363.97 252.30,364.13 252.60,364.16 C252.60,364.16 252.79,363.35 252.79,363.35" fill="none" stroke="rgb(255, 165, 0)" stroke-width="3.33" stroke-opacity="1.00" stroke-linejoin="round"/>
<path d="M249.01,356.12 C249.01,356.12 248.48,355.23 248.48,355.23 C248.48,355.23 254.83,363.16 254.83,363.16 C254.83,363.16 254.45,362.60 254.45,362.60" fill="none" stroke="rgb(255, 165, 0)" stroke-width="3.33" stroke-opacity="1.00" stroke-linejoin="round"/>
<path d="M249.51,353.26 C249.51,353.26 248.60,353.36 248.60,353.36 C249.04,353.48 252.26,357.55 254.58,361.35 C255.73,363.30 255.96,363.68 256.13,363.84 C256.14,363.70 256.14,363.61 256.14,363.55 C256.13,363.50 256.11,363.41 256.08,363.28" fill="none" stroke="rgb(255, 165, 0)" stroke-width="3.33" stroke-opacity="1.00" stroke-linejoin="round"/>
<path d="M251.01,352.07 C251.01,352.07 250.48,350.99 250.48,350.99 C251.13,351.72 251.75,352.51 252.45,353.54 C253.80,355.54 256.45,360.19 257.44,361.93 C257.37,361.86 257.02,361.12 256.53,360.00 C256.13,359.07 255.11,356.72 254.95,356.31 C254.84,356.05 254.68,355.61 254.45,355.01" fill="none" stroke="rgb(255, 165, 0)" stroke-width="3.33" stroke-opacity="1.00" stroke-linejoin="round"/>
<path d="M254.24,351.88 C254.28,351.84 254.39,351.90 254.55,352.08 C255.49,353.08 256.66,354.71 257.66,356.43 C258.36,357.67 259.89,360.39 260.71,361.88 C260.87,362.17 260.97,362.32 261.01,362.33" fill="none" stroke="rgb(255, 165, 0)" stroke-width="3.33" stroke-opacity="1.00" stroke-linejoin="round"/>
<path d="M257.22,353.64 C257.14,353.72 259.55,357.48 260.94,359.63 C261.61,360.68 262.75,362.44 263.21,363.15 C263.23,363.19 263.31,363.30 263.29,363.26" fill="none" stroke="rgb(255, 165, 0)" stroke-width="3.33" stroke-opacity="1.00" stroke-linejoin="round"/>
<path d="M259.29,355.99 C259.29,355.99 259.04,354.85 259.04,354.85 C259.94,355.63 260.49,356.27 260.93,357.35 C261.67,359.17 262.43,361.32 262.52,361.80 C262.52,361.80 262.42,361.57 262.42,361.57" fill="none" stroke="rgb(255, 165, 0)" stroke-width="3.33" stroke-opacity="1.00" stroke-linejoin="round"/>
<path d="M250.13,350.69 C250.13,350.69 249.93,350.68 249.93,350.68 C251.65,352.64 254.31,357.05 255.83,359.57 C256.78,361.15 258.33,363.72 258.94,364.72" fill="none" stroke="rgb(255, 165, 0)" stroke-width="3.33" stroke-opacity="1.00" stroke-linejoin="round"/>
<path d="M265.18,376.24 C265.18,376.24 265.41,375.51 265.41,375.51 C265.41,375.51 265.56,375.58 265.56,375.58 C265.82,376.26 266.44,381.85 266.80,385.28 C266.98,386.74 267.28,389.10 267.40,390.00 C267.40,390.00 267.30,389.62 267.30,389.62" fill="none" stroke="rgb(255, 165, 0)" stroke-width="3.33" stroke-opacity="1.00" stroke-linejoin="round"/>
<path d="M262.99,381.86 C262.99,381.86 263.02,381.34 263.02,381.34 C263.08,381.36 263.31,381.60 263.47,385.42 C263.51,386.44 263.55,387.46 263.59,388.47" fill="none" stroke="rgb(255, 165, 0)" stroke-width="3.33" stroke-opacity="1.00" stroke-linejoin="round"/>
<path d="M263.87,381.19 C263.87,381.19 264.08,381.00 264.08,381.00 C264.21,381.70 264.27,383.67 264.13,384.91 C264.08,385.36 263.94,386.07 263.71,387.05" fill="none" stroke="rgb(255, 165, 0)" stroke-width="3.33" stroke-opacity="1.00" stroke-linejoin="round"/>
<path d="M262.46,381.20 C262.46,381.20 262.43,381.10 262.43,381.10 C262.43,381.10 262.25,386.79 262.25,386.79" fill="none" stroke="rgb(255, 165, 0)" stroke-width="3.33" stroke-opacity="1.00" stroke-linejoin="round"/>
<path d="M260.96,382.61 C260.89,383.51 261.04,386.30 261.11,387.36 C261.13,387.75 261.14,388.10 261.14,388.41 C261.11,388.31 261.09,388.25 261.08,388.22 C261.07,388.19 261.06,388.16 261.06,388.12" fill="none" stroke="rgb(255, 165, 0)" stroke-width="3.33" stroke-opacity="1.00" stroke-linejoin="round"/>
<path d="M260.45,383.67 C260.45,383.67 260.14,383.41 260.14,383.41 C260.02,384.83 259.83,385.89 259.55,386.25 C259.48,386.34 259.32,386.46 259.09,386.60" fill="none" stroke="rgb(255, 165, 0)" stroke-width="3.33" stroke-opacity="1.00" stroke-linejoin="round"/>
<path d="M236.12,381.20 C236.20,380.79 236.26,380.52 236.30,380.40 C236.33,380.27 236.40,380.12 236.50,379.94 C236.49,380.03 236.50,380.23 236.53,380.52 C236.89,384.08 237.30,390.33 237.51,392.15 C237.62,393.13 237.72,393.50 237.81,393.56 C237.81,393.56 237.87,392.99 237.87,392.99" fill="none" stroke="rgb(255, 165, 0)" stroke-width="3.33" stroke-opacity="1.00" stroke-linejoin="round"/>
<path d="M238.19,381.76 C237.86,382.39 237.81,383.46 238.03,385.69 C238.16,386.97 238.10,389.48 237.90,390.85 C237.84,391.26 237.71,391.73 237.52,392.27" fill="none" stroke="rgb(255, 165, 0)" stroke-width="3.33" stroke-opacity="1.00" stroke-linejoin="round"/>
<path d="M238.72,385.02 C238.72,385.02 238.70,384.40 238.70,384.40 C238.85,384.81 239.07,386.80 239.22,389.41 C239.25,390.27 239.30,391.46 239.38,392.37 C239.38,392.37 239.49,391.02 239.49,391.02" fill="none" stroke="rgb(255, 165, 0)" stroke-width="3.33" stroke-opacity="1.00" stroke-linejoin="round"/>
<path d="M240.20,385.74 C240.20,385.74 240.67,385.35 240.67,385.35 C240.77,386.02 240.82,387.38 240.82,389.95 C240.82,390.53 240.82,391.10 240.82,391.67" fill="none" stroke="rgb(255, 165, 0)" stroke-width="3.33" stroke-opacity="1.00" stroke-linejoin="round"/>
<path d="M242.16,387.15 C242.16,387.15 242.64,390.67 242.64,390.67 C242.83,389.64 242.96,388.94 243.04,388.57 C243.11,388.20 243.23,387.66 243.41,386.93 C243.62,387.65 243.81,389.40 243.88,390.06 C243.91,390.29 243.94,390.50 243.99,390.68 C243.99,390.68 244.14,389.83 244.14,389.83" fill="none" stroke="rgb(255, 165, 0)" stroke-width="3.33" stroke-opacity="1.00" stroke-linejoin="round"/>
<path d="M244.90,387.19 C244.90,387.19 244.82,387.15 244.82,387.15 C245.05,387.58 245.42,388.85 245.43,389.62 C245.44,389.91 245.37,390.37 245.25,391.02" fill="none" stroke="rgb(255, 165, 0)" stroke-width="3.33" stroke-opacity="1.00" stroke-linejoin="round"/>
<path d="M270.26,374.90 C270.26,374.90 270.08,374.81 270.08,374.81 C269.98,375.03 270.86,379.52 271.47,384.26 C273.00,394.86 273.81,399.08 274.28,400.36 C274.28,400.36 274.13,399.82 274.13,399.82" fill="none" stroke="rgb(255, 165, 0)" stroke-width="3.33" stroke-opacity="1.00" stroke-linejoin="round"/>
<path d="M272.46,381.35 C272.46,381.34 272.44,381.37 272.44,381.38 C272.29,382.23 272.25,383.23 272.34,384.78 C272.42,386.39 272.65,389.34 272.79,391.04 C272.98,393.18 273.19,394.94 273.52,397.20 C273.52,397.20 273.56,397.15 273.56,397.15 C273.56,397.15 273.51,396.57 273.51,396.57" fill="none" stroke="rgb(255, 165, 0)" stroke-width="3.33" stroke-opacity="1.00" stroke-linejoin="round"/>
<path d="M267.72,375.40 C267.61,375.92 267.41,376.87 267.42,377.41 C267.44,378.17 268.01,385.19 267.90,385.47 C267.90,385.47 267.68,385.55 267.68,385.55 C267.68,385.55 267.30,384.59 267.30,384.59" fill="none" stroke="rgb(255, 165, 0)" stroke-width="3.33" stroke-opacity="1.00" stroke-linejoin="round"/>
<path d="M266.14,376.04 C266.20,376.32 266.23,376.87 266.28,378.95 C266.33,380.49 266.45,383.59 266.52,385.14 C266.61,387.20 266.63,388.05 266.59,389.00 C266.59,389.00 266.53,388.80 266.53,388.80" fill="none" stroke="rgb(255, 165, 0)" stroke-width="3.33" stroke-opacity="1.00" stroke-linejoin="round"/>
<path d="M246.53,441.43 C246.19,440.31 247.00,438.79 247.27,438.29 C247.42,438.01 247.57,437.64 247.70,437.18 C248.02,436.06 248.21,435.10 248.17,434.91 C248.17,434.91 245.96,461.39 245.96,461.39 C246.81,462.48 250.07,462.65 254.14,462.38 C262.13,461.71 270.46,459.62 271.21,459.47 C273.24,459.07 280.46,456.06 280.58,456.13 C280.58,456.13 279.73,456.16 279.73,456.16" fill="none" stroke="rgb(255, 165, 0)" stroke-width="3.33" stroke-opacity="1.00" stroke-linejoin="round"/>
<path d="M270.55,432.96 C270.55,432.96 269.62,431.98 269.62,431.98 C269.62,431.98 283.42,456.80 283.42,456.80 C283.42,456.80 283.05,456.33 283.05,456.33" fill="none" stroke="rgb(255, 165, 0)" stroke-width="3.33" stroke-opacity="1.00" stroke-linejoin="round"/>
<path d="M256.41,446.29 C256.41,446.29 256.55,445.33 256.55,445.33 C256.55,445.33 257.14,460.34 257.14,460.34 C257.14,460.34 256.92,459.36 256.92,459.36" fill="none" stroke="rgb(255, 165, 0)" stroke-width="3.33" stroke-opacity="1.00" stroke-linejoin="round"/>
<path d="M264.37,446.22 C264.37,446.22 264.31,445.09 264.31,445.09 C265.05,449.92 266.08,454.73 266.90,456.75 C267.04,457.09 267.37,457.81 267.89,458.91" fill="none" stroke="rgb(255, 165, 0)" stroke-width="3.33" stroke-opacity="1.00" stroke-linejoin="round"/>
<path d="M257.13,464.09 C257.13,464.09 257.09,463.55 257.09,463.55 C257.09,463.55 257.05,488.94 257.05,488.94 C257.44,489.10 259.07,489.94 261.44,489.34 C263.16,488.89 263.64,488.26 263.71,488.01 C263.71,488.01 263.28,461.94 263.28,461.94 C263.28,461.94 262.42,463.50 262.42,463.50" fill="none" stroke="rgb(255, 165, 0)" stroke-width="3.33" stroke-opacity="1.00" stroke-linejoin="round"/>
<path d="M271.24,459.99 C271.24,459.99 271.54,458.72 271.54,458.72 C271.54,458.72 271.01,490.58 271.01,490.58 C271.01,490.58 270.93,490.28 270.93,490.28" fill="none" stroke="rgb(255, 165, 0)" stroke-width="3.33" stroke-opacity="1.00" stroke-linejoin="round"/>
<path d="M263.93,490.43 C263.93,490.43 263.57,489.94 263.57,489.94 C267.04,490.43 268.94,490.51 269.92,490.35 C270.17,490.31 270.42,490.22 270.68,490.06 C270.68,490.06 270.59,490.06 270.59,490.06" fill="none" stroke="rgb(255, 165, 0)" stroke-width="3.33" stroke-opacity="1.00" stroke-linejoin="round"/>
<path d="M257.03,490.15 C257.03,490.15 257.02,489.80 257.02,489.80 C256.90,489.68 253.89,489.81 253.46,491.25 C253.67,492.10 255.85,493.29 257.49,493.32 C261.03,493.37 263.47,492.36 263.79,491.94 C264.09,491.48 263.82,490.12 263.15,489.58 C262.20,488.85 259.54,488.77 258.71,489.42 C258.71,489.42 258.68,489.78 258.68,489.78 C258.68,489.78 258.77,489.83 258.77,489.83" fill="none" stroke="rgb(255, 165, 0)" stroke-width="3.33" stroke-opacity="1.00" stroke-linejoin="round"/>
<path d="M268.38,490.84 C267.64,490.61 265.93,490.11 265.38,490.74 C264.77,491.51 264.54,493.88 265.33,494.94 C266.29,496.13 270.01,497.01 271.95,496.69 C273.63,496.39 276.47,494.75 276.72,493.91 C276.97,492.88 275.15,490.59 273.90,490.00 C273.30,489.74 272.02,489.61 271.40,489.77 C270.91,489.90 269.55,490.43 269.36,490.52 C269.39,490.42 269.43,490.28 269.47,490.08 C269.57,489.57 269.67,489.06 269.77,488.55" fill="none" stroke="rgb(255, 165, 0)" stroke-width="3.33" stroke-opacity="1.00" stroke-linejoin="round"/>
<path d="M251.28,297.31 C251.28,297.31 251.53,295.86 251.53,295.86" fill="none" stroke="rgb(255, 0, 0)" stroke-width="3.33" stroke-opacity="1.00" stroke-linejoin="round"/>
<path d="M252.76,294.08 C252.76,294.08 252.50,292.69 252.50,292.69 C252.71,292.43 252.86,292.25 252.94,292.18 C253.19,291.94 253.57,291.83 253.87,291.84 C252.44,293.25 246.26,298.34 244.80,300.08 C243.32,301.86 231.81,317.42 227.45,323.71 C219.62,335.90 210.57,350.06 209.10,351.95 C209.10,351.95 209.18,350.86 209.18,350.86" fill="none" stroke="rgb(255, 0, 0)" stroke-width="3.33" stroke-opacity="1.00" stroke-linejoin="round"/>
<path d="M254.28,296.89 C254.34,296.33 254.44,295.84 254.61,295.41 C255.02,294.38 255.58,293.41 256.04,292.40 C256.19,292.05 256.27,291.78 256.27,291.60 C254.47,292.38 250.35,300.23 245.72,310.96 C241.60,320.74 235.86,341.35 235.06,345.07 C234.62,346.95 233.98,348.89 233.68,349.46 C233.68,349.46 233.69,349.06 233.69,349.06" fill="none" stroke="rgb(255, 0, 0)" stroke-width="3.33" stroke-opacity="1.00" stroke-linejoin="round"/>
<path d="M258.53,300.13 C258.80,299.01 259.06,297.89 259.32,296.77 C259.58,295.70 259.71,295.15 259.72,295.11 C259.81,294.57 260.02,293.21 260.20,292.91 C260.37,294.23 258.83,313.87 258.40,322.04 C258.15,329.56 257.83,341.67 258.01,346.65 C258.01,346.65 256.37,344.79 256.37,344.79" fill="none" stroke="rgb(255, 0, 0)" stroke-width="3.33" stroke-opacity="1.00" stroke-linejoin="round"/>
<path d="M257.47,294.58 C257.47,294.58 257.50,292.64 257.50,292.64 C257.83,292.85 263.07,304.59 265.95,309.79 C273.69,323.36 288.79,349.93 287.81,350.00 C287.81,350.00 286.94,349.16 286.94,349.16" fill="none" stroke="rgb(255, 0, 0)" stroke-width="3.33" stroke-opacity="1.00" stroke-linejoin="round"/>
<path d="M259.64,293.47 C259.64,293.47 259.31,294.01 259.31,294.01 C259.31,294.01 259.46,293.57 259.46,293.57 C261.76,296.64 263.30,298.01 266.03,298.91 C268.93,299.85 278.98,306.52 285.07,311.77 C290.77,316.80 302.25,327.04 304.93,329.78 C309.13,334.10 316.29,344.82 316.07,345.01 C316.07,345.01 315.15,344.27 315.15,344.27" fill="none" stroke="rgb(255, 0, 0)" stroke-width="3.33" stroke-opacity="1.00" stroke-linejoin="round"/>
<path d="M219.09,353.19 C219.40,352.66 219.64,352.30 219.82,352.12 C220.00,351.94 220.37,351.67 220.92,351.31" fill="none" stroke="rgb(255, 0, 0)" stroke-width="3.33" stroke-opacity="1.00" stroke-linejoin="round"/>
<path d="M217.84,350.19 C217.52,350.22 216.86,350.09 216.47,349.89 C215.89,349.58 214.15,349.20 213.77,349.04 C216.28,347.81 221.27,347.54 224.40,347.39 C229.77,347.05 250.55,345.51 255.34,345.50 C261.00,345.49 297.65,346.25 313.11,346.22 C317.16,346.28 321.48,346.66 324.38,347.13 C324.38,347.13 324.49,347.46 324.49,347.46" fill="none" stroke="rgb(255, 0, 0)" stroke-width="3.33" stroke-opacity="1.00" stroke-linejoin="round"/>
<path d="M275.07,356.84 C274.78,356.05 274.93,354.38 275.16,353.17 C275.27,352.59 275.33,352.22 275.35,352.04 C275.48,350.26 275.68,349.87 275.91,349.66 C275.46,353.05 281.16,390.13 282.27,405.19 C282.99,415.83 283.15,421.32 283.28,423.31 C283.28,423.31 283.63,420.23 283.63,420.23" fill="none" stroke="rgb(255, 0, 0)" stroke-width="3.33" stroke-opacity="1.00" stroke-linejoin="round"/>
<path d="M283.43,422.89 C283.43,422.89 283.62,421.03 283.62,421.03 C283.62,421.03 283.90,427.07 283.90,427.07 C283.90,427.07 283.94,421.89 283.94,421.89 C282.23,422.19 281.58,425.23 281.77,425.44 C281.77,425.44 283.56,420.72 283.56,420.72 C283.56,420.72 283.25,420.53 283.25,420.53 C283.25,420.53 283.12,420.60 283.12,420.60" fill="none" stroke="rgb(255, 0, 0)" stroke-width="3.33" stroke-opacity="1.00" stroke-linejoin="round"/>
<path d="M256.36,286.50 C256.36,286.50 254.67,286.08 254.67,286.08 C253.89,287.76 253.64,288.94 253.95,290.05 C254.26,291.07 255.24,292.57 255.96,293.05 C256.76,293.53 258.62,293.32 259.33,292.65 C260.03,291.95 260.27,290.02 259.87,288.89 C259.48,287.93 257.99,286.26 256.98,285.55 C256.72,285.38 256.30,285.15 255.74,284.89 C255.74,284.89 255.83,284.83 255.83,284.83" fill="none" stroke="rgb(255, 0, 0)" stroke-width="3.33" stroke-opacity="1.00" stroke-linejoin="round"/>
<path d="M73.23,273.98 C73.23,273.98 68.58,275.21 68.58,275.21 C68.31,274.93 68.20,274.00 68.11,271.08 C68.08,270.12 68.00,263.86 68.39,263.62 C69.41,265.25 69.53,270.89 69.47,273.42 C69.31,280.09 65.47,323.25 65.66,328.75 C65.76,331.14 66.49,336.53 67.79,339.64 C68.13,340.45 69.05,342.05 69.02,342.00" fill="none" stroke="rgb(0, 0, 255)" stroke-width="3.33" stroke-opacity="1.00" stroke-linejoin="round"/>
<path d="M121.68,349.27 C121.68,349.27 119.73,344.97 119.73,344.97 C119.73,344.97 120.80,390.03 120.80,390.03 C120.80,390.03 121.13,388.55 121.13,388.55" fill="none" stroke="rgb(0, 0, 255)" stroke-width="3.33" stroke-opacity="1.00" stroke-linejoin="round"/>
<path d="M149.99,235.05 C150.12,234.51 150.24,234.06 150.35,233.68 C150.89,231.84 151.53,230.23 152.04,229.34 C152.11,235.71 152.32,250.29 152.45,258.50 C152.61,270.92 152.53,278.21 152.10,283.33 C152.10,283.33 152.86,280.02 152.86,280.02" fill="none" stroke="rgb(0, 0, 255)" stroke-width="3.33" stroke-opacity="1.00" stroke-linejoin="round"/>
<path d="M232.58,205.26 C232.58,205.26 231.38,203.62 231.38,203.62 C230.97,204.10 228.51,221.42 228.23,226.86 C227.78,236.32 228.61,241.55 229.13,243.52 C229.22,243.84 229.29,244.02 229.34,244.08 C229.34,244.01 229.34,243.96 229.34,243.94 C229.34,243.91 229.33,243.86 229.31,243.79" fill="none" stroke="rgb(0, 0, 255)" stroke-width="3.33" stroke-opacity="1.00" stroke-linejoin="round"/>
<path d="M341.76,195.75 C341.76,195.75 341.04,191.98 341.04,191.98 C341.30,196.32 338.31,211.71 336.87,219.09 C335.48,225.94 331.97,243.74 331.67,246.39 C331.22,250.55 332.06,254.82 333.01,254.99 C333.09,255.00 333.26,254.99 333.52,254.96" fill="none" stroke="rgb(0, 0, 255)" stroke-width="3.33" stroke-opacity="1.00" stroke-linejoin="round"/>
<path d="M448.04,237.36 C447.73,235.95 447.87,235.02 448.93,231.95 C449.23,231.08 450.24,227.71 450.47,226.97 C447.80,235.40 440.74,268.32 440.06,277.08 C439.90,279.13 439.58,279.90 438.77,280.67 C438.26,280.63 437.95,280.60 437.84,280.57 C437.72,280.55 437.63,280.51 437.57,280.45" fill="none" stroke="rgb(0, 0, 255)" stroke-width="3.33" stroke-opacity="1.00" stroke-linejoin="round"/>
<path d="M460.14,297.03 C460.41,296.42 460.68,295.80 460.95,295.19 C461.25,294.52 461.55,293.85 461.84,293.18 C462.14,293.55 458.96,306.35 458.84,306.91 C458.75,307.39 458.57,308.36 458.33,309.83 C458.33,309.83 458.45,309.39 458.45,309.39" fill="none" stroke="rgb(0, 0, 255)" stroke-width="3.33" stroke-opacity="1.00" stroke-linejoin="round"/>
<path d="M345.00,327.24 C345.00,327.24 346.42,322.19 346.42,322.19 C341.14,338.79 340.23,349.76 340.23,350.66 C340.23,350.66 340.33,349.84 340.33,349.84" fill="none" stroke="rgb(0, 0, 255)" stroke-width="3.33" stroke-opacity="1.00" stroke-linejoin="round"/>
<path d="M416.45,346.59 C416.45,346.59 416.82,343.65 416.82,343.65 C417.92,343.55 419.25,345.63 419.21,348.22 C419.07,354.27 416.07,365.19 412.47,376.08 C410.09,383.29 408.56,392.84 409.05,397.33 C409.09,397.71 409.16,397.98 409.24,398.15 C409.24,398.15 408.96,398.23 408.96,398.23" fill="none" stroke="rgb(0, 0, 255)" stroke-width="3.33" stroke-opacity="1.00" stroke-linejoin="round"/>
<path d="M150.46,502.14 C150.47,501.61 149.23,498.69 149.14,498.44 C149.11,498.37 149.11,498.25 149.13,498.08 C149.15,497.96 155.65,499.30 160.77,499.79 C168.77,500.53 261.66,500.08 273.38,500.36 C288.48,500.58 317.49,500.60 332.01,501.45 C366.62,503.80 412.70,505.58 416.45,505.35 C420.66,505.08 426.36,504.22 429.30,503.75 C432.34,503.37 438.14,504.61 440.33,504.66 C442.40,504.71 449.98,504.14 451.46,503.93 C451.81,503.88 452.85,503.70 454.58,503.38 C454.58,503.38 454.59,503.40 454.58,503.40" fill="none" stroke="rgb(0, 113, 48)" stroke-width="3.33" stroke-opacity="1.00" stroke-linejoin="round"/>
</g>
</svg>
