<?xml version="1.0" encoding="UTF-8" standalone="no"?>
<!DOCTYPE svg PUBLIC "-//W3C//DTD SVG 1.1//EN" "http://www.w3.org/Graphics/SVG/1.1/DTD/svg11.dtd">
<svg width="128.40" height="181.68" viewBox="0.00 0.00 535.00 757.00" xmlns="http://www.w3.org/2000/svg" xmlns:xlink="http://www.w3.org/1999/xlink">
<g stroke-linecap="round" id="69">
<path d="M240.40,447.67 C240.40,447.67 239.97,447.44 239.97,447.44 C239.97,447.44 239.89,447.54 239.89,447.54 C239.89,447.54 240.40,447.69 240.40,447.69 C240.40,447.69 240.51,448.39 240.51,448.39 C240.16,447.50 239.05,442.02 239.06,439.53 C239.08,437.37 239.81,429.25 240.33,426.28 C240.79,423.79 242.68,418.14 244.89,416.27 C245.75,415.57 248.28,414.72 250.87,413.96 C250.92,413.69 250.28,409.30 251.07,404.44 C251.46,402.16 253.44,396.15 254.28,394.54 C255.31,392.60 258.81,389.20 260.26,388.58 C262.29,387.77 265.49,387.51 266.88,388.30 C269.32,389.75 271.67,394.51 272.49,397.08 C274.23,402.63 276.38,414.76 276.39,415.71 C276.39,415.71 274.65,414.13 274.65,414.13" fill="none" stroke="rgb(255, 165, 0)" stroke-width="3.57" stroke-opacity="1.00" stroke-linejoin="round"/>
<path d="M276.21,412.16 C276.21,412.16 274.81,412.51 274.81,412.51 C274.97,412.52 277.68,412.89 278.89,415.11 C280.88,418.82 282.95,430.19 283.43,437.96 C283.72,443.02 283.49,444.85 283.15,446.03 C282.89,445.59 282.72,445.32 282.66,445.21 C282.60,445.11 282.56,445.02 282.53,444.96" fill="none" stroke="rgb(255, 165, 0)" stroke-width="3.57" stroke-opacity="1.00" stroke-linejoin="round"/>
<path d="M254.67,457.16 C254.73,455.41 254.78,454.72 254.97,453.55 C255.17,452.39 255.26,451.43 255.22,451.19 C257.46,463.14 258.98,472.74 258.12,476.02 C258.12,476.02 256.59,475.52 256.59,475.52 C256.59,475.52 254.96,479.66 254.96,479.66 C256.24,480.44 260.78,478.88 264.34,476.64 C267.41,474.68 268.99,473.27 269.88,472.22 C269.70,471.87 268.85,471.06 267.86,470.39 C267.57,470.20 267.09,469.91 266.40,469.52" fill="none" stroke="rgb(255, 165, 0)" stroke-width="3.57" stroke-opacity="1.00" stroke-linejoin="round"/>
<path d="M262.68,456.84 C262.65,456.27 262.63,455.73 262.62,455.23 C262.59,453.27 262.65,451.47 262.65,451.52 C262.65,451.52 265.64,470.76 265.64,470.76 C265.60,470.40 265.58,470.17 265.57,470.08 C265.56,469.99 265.56,469.90 265.56,469.83" fill="none" stroke="rgb(255, 165, 0)" stroke-width="3.57" stroke-opacity="1.00" stroke-linejoin="round"/>
<path d="M273.02,450.73 C273.17,450.20 273.59,448.85 273.64,448.53 C273.73,448.01 273.87,446.72 274.10,446.51 C274.54,447.38 274.65,458.94 275.54,464.63 C276.12,468.16 277.24,470.08 278.08,470.77 C278.08,470.77 281.87,471.03 281.87,471.03 C281.89,470.34 281.83,469.56 281.65,468.78 C281.43,467.88 277.79,465.97 277.47,465.92 C277.47,465.92 277.29,466.01 277.29,466.01 C277.29,466.01 277.29,466.18 277.29,466.18" fill="none" stroke="rgb(255, 165, 0)" stroke-width="3.57" stroke-opacity="1.00" stroke-linejoin="round"/>
<path d="M92.85,244.29 C92.85,244.29 92.92,244.24 92.92,244.24" fill="none" stroke="rgb(0, 0, 255)" stroke-width="3.57" stroke-opacity="1.00" stroke-linejoin="round"/>
<path d="M93.78,240.66 C93.78,240.66 93.26,239.07 93.26,239.07" fill="none" stroke="rgb(0, 0, 255)" stroke-width="3.57" stroke-opacity="1.00" stroke-linejoin="round"/>
<path d="M93.21,236.47 C93.08,235.36 93.00,234.65 92.97,234.36 C92.94,234.06 92.92,233.76 92.90,233.45 C92.63,234.79 92.06,239.36 91.76,242.69 C90.98,251.63 90.80,285.63 90.64,286.62 C90.61,286.78 90.57,286.85 90.51,286.84 C90.51,286.84 90.66,285.62 90.66,285.62" fill="none" stroke="rgb(0, 0, 255)" stroke-width="3.57" stroke-opacity="1.00" stroke-linejoin="round"/>
<path d="M127.87,193.77 C127.87,193.77 126.82,193.79 126.82,193.79 C126.50,194.54 125.31,212.13 124.72,220.89 C124.43,225.35 124.35,230.18 124.40,231.48 C124.40,231.48 124.76,231.72 124.76,231.72 C124.76,231.72 124.80,231.49 124.80,231.49" fill="none" stroke="rgb(0, 0, 255)" stroke-width="3.57" stroke-opacity="1.00" stroke-linejoin="round"/>
<path d="M81.81,281.54 C81.81,281.54 78.89,281.91 78.89,281.91 C77.83,283.81 77.28,287.06 76.82,290.68 C74.51,310.52 75.26,317.66 75.42,318.55 C75.42,318.55 76.04,318.76 76.04,318.76 C76.04,318.76 76.27,318.39 76.27,318.39" fill="none" stroke="rgb(0, 0, 255)" stroke-width="3.57" stroke-opacity="1.00" stroke-linejoin="round"/>
<path d="M98.60,284.70 C98.60,284.70 97.82,284.39 97.82,284.39 C97.65,285.47 97.44,291.77 97.32,295.48 C97.19,301.05 97.25,306.06 97.52,307.84" fill="none" stroke="rgb(0, 0, 255)" stroke-width="3.57" stroke-opacity="1.00" stroke-linejoin="round"/>
<path d="M128.23,275.48 C128.23,275.48 127.61,274.30 127.61,274.30 C127.26,275.90 127.20,289.88 127.19,293.68 C127.19,295.79 127.14,298.00 127.10,299.66" fill="none" stroke="rgb(0, 0, 255)" stroke-width="3.57" stroke-opacity="1.00" stroke-linejoin="round"/>
<path d="M136.06,296.82 C136.06,296.82 135.19,296.70 135.19,296.70 C135.01,296.88 130.50,313.95 128.96,320.42 C128.54,322.21 128.05,324.50 127.69,326.22 C127.71,326.10 127.72,325.64 127.72,325.01 C127.71,324.80 127.71,324.59 127.71,324.38" fill="none" stroke="rgb(0, 0, 255)" stroke-width="3.57" stroke-opacity="1.00" stroke-linejoin="round"/>
<path d="M152.95,251.80 C152.95,251.80 152.42,251.51 152.42,251.51 C151.64,255.90 148.27,295.37 147.53,310.38 C147.48,311.95 147.50,320.73 147.54,324.58 C147.54,324.58 147.80,320.88 147.80,320.88" fill="none" stroke="rgb(0, 0, 255)" stroke-width="3.57" stroke-opacity="1.00" stroke-linejoin="round"/>
<path d="M169.27,237.61 C168.37,237.51 167.68,238.00 167.21,239.32 C166.29,242.01 162.28,262.34 160.65,270.81 C160.39,272.22 159.85,275.19 159.59,276.74" fill="none" stroke="rgb(0, 0, 255)" stroke-width="3.57" stroke-opacity="1.00" stroke-linejoin="round"/>
<path d="M173.67,277.50 C173.67,277.50 172.95,275.98 172.95,275.98 C172.53,276.54 172.38,294.53 172.26,302.62 C172.19,312.28 172.30,314.89 172.37,315.72 C172.37,315.72 172.40,314.59 172.40,314.59" fill="none" stroke="rgb(0, 0, 255)" stroke-width="3.57" stroke-opacity="1.00" stroke-linejoin="round"/>
<path d="M193.21,208.33 C193.21,208.33 192.60,207.90 192.60,207.90 C192.60,207.90 193.76,204.93 193.76,204.93 C194.74,207.38 194.81,212.83 194.87,216.05 C195.16,233.73 197.11,255.76 199.53,273.91 C199.63,274.77 199.68,275.34 199.67,275.61 C199.66,275.80 199.60,276.06 199.49,276.40" fill="none" stroke="rgb(0, 0, 255)" stroke-width="3.57" stroke-opacity="1.00" stroke-linejoin="round"/>
<path d="M186.42,284.29 C186.42,284.29 185.61,283.22 185.61,283.22 C186.42,282.87 187.18,283.53 187.98,285.49 C189.39,288.96 191.41,299.81 192.78,309.82 C193.61,316.82 195.26,331.68 196.07,339.54 C196.96,349.53 197.18,354.02 196.84,354.32 C196.84,354.32 196.49,353.23 196.49,353.23" fill="none" stroke="rgb(0, 0, 255)" stroke-width="3.57" stroke-opacity="1.00" stroke-linejoin="round"/>
<path d="M213.62,201.49 C213.64,200.76 213.64,200.14 213.62,199.63 C213.54,197.67 213.34,195.59 213.27,195.67 C212.81,209.09 212.71,237.46 212.78,254.27 C212.98,270.98 213.29,297.76 212.94,298.69 C212.94,298.69 212.52,297.92 212.52,297.92" fill="none" stroke="rgb(0, 0, 255)" stroke-width="3.57" stroke-opacity="1.00" stroke-linejoin="round"/>
<path d="M231.49,287.55 C231.49,287.55 231.16,286.98 231.16,286.98 C231.63,291.41 231.63,308.78 231.58,315.79 C231.53,323.20 231.52,337.12 231.68,344.18 C231.76,346.45 231.90,347.85 232.12,349.09 C232.12,349.09 232.21,348.38 232.21,348.38" fill="none" stroke="rgb(0, 0, 255)" stroke-width="3.57" stroke-opacity="1.00" stroke-linejoin="round"/>
<path d="M220.41,330.91 C220.41,330.91 219.70,330.08 219.70,330.08 C219.13,331.98 218.68,338.53 218.42,342.37 C218.18,346.51 218.34,353.25 218.78,354.55 C218.78,354.55 219.23,354.27 219.23,354.27 C219.23,354.27 219.52,353.47 219.52,353.47" fill="none" stroke="rgb(0, 0, 255)" stroke-width="3.57" stroke-opacity="1.00" stroke-linejoin="round"/>
<path d="M248.13,196.52 C248.13,196.52 248.10,195.60 248.10,195.60" fill="none" stroke="rgb(0, 0, 255)" stroke-width="3.57" stroke-opacity="1.00" stroke-linejoin="round"/>
<path d="M250.82,189.37 C249.85,190.33 249.03,192.64 248.30,197.04 C246.18,211.55 242.71,237.78 242.15,243.89 C241.90,246.51 241.65,249.26 241.65,249.23" fill="none" stroke="rgb(0, 0, 255)" stroke-width="3.57" stroke-opacity="1.00" stroke-linejoin="round"/>
<path d="M244.81,248.95 C244.52,250.97 244.30,255.16 244.23,260.13 C244.24,267.56 244.85,285.62 245.49,287.41 C245.57,287.62 245.76,288.01 246.06,288.57 C246.06,288.57 246.28,286.91 246.28,286.91" fill="none" stroke="rgb(0, 0, 255)" stroke-width="3.57" stroke-opacity="1.00" stroke-linejoin="round"/>
<path d="M276.88,170.67 C276.88,170.67 276.01,170.78 276.01,170.78 C275.74,172.04 273.63,188.33 273.28,191.69 C272.24,202.39 272.10,208.06 272.11,209.84" fill="none" stroke="rgb(0, 0, 255)" stroke-width="3.57" stroke-opacity="1.00" stroke-linejoin="round"/>
<path d="M287.55,209.73 C287.55,209.73 287.28,209.68 287.28,209.68 C288.51,210.30 289.16,211.94 289.20,214.88 C289.22,216.77 287.13,245.02 287.12,244.98 C287.12,244.98 286.76,243.78 286.76,243.78" fill="none" stroke="rgb(0, 0, 255)" stroke-width="3.57" stroke-opacity="1.00" stroke-linejoin="round"/>
<path d="M307.92,164.97 C307.94,164.58 307.96,164.26 307.97,164.01 C307.98,163.48 308.00,162.95 308.02,162.41 C307.51,163.48 305.93,174.39 305.02,185.17 C304.51,192.62 303.67,206.85 303.85,215.49 C303.90,217.55 303.99,219.04 304.11,220.46 C304.12,220.54 304.14,220.79 304.13,220.70" fill="none" stroke="rgb(0, 0, 255)" stroke-width="3.57" stroke-opacity="1.00" stroke-linejoin="round"/>
<path d="M300.51,230.25 C300.51,230.25 299.06,228.68 299.06,228.68 C298.14,231.07 297.42,234.19 296.92,237.44 C296.17,242.73 296.16,244.08 296.35,246.32 C296.35,246.32 296.69,245.90 296.69,245.90" fill="none" stroke="rgb(0, 0, 255)" stroke-width="3.57" stroke-opacity="1.00" stroke-linejoin="round"/>
<path d="M262.53,263.15 C262.60,262.23 262.67,261.31 262.73,260.39 C262.76,260.03 262.77,259.73 262.78,259.49 C262.78,259.49 262.67,259.47 262.67,259.47 C262.38,264.29 261.59,276.23 261.09,283.36 C260.13,296.19 260.15,297.14 260.32,298.34 C260.32,298.34 260.83,296.94 260.83,296.94" fill="none" stroke="rgb(0, 0, 255)" stroke-width="3.57" stroke-opacity="1.00" stroke-linejoin="round"/>
<path d="M267.19,252.37 C267.19,252.37 266.97,251.42 266.97,251.42 C268.25,252.27 269.94,256.64 270.51,259.87 C271.55,266.11 271.87,279.03 271.55,291.38 C270.88,310.25 269.73,315.60 269.61,316.00 C269.79,315.88 269.91,315.78 269.96,315.71 C270.01,315.64 270.06,315.50 270.11,315.28" fill="none" stroke="rgb(0, 0, 255)" stroke-width="3.57" stroke-opacity="1.00" stroke-linejoin="round"/>
<path d="M287.66,291.90 C287.54,291.44 287.46,291.12 287.41,290.92 C287.16,290.02 286.96,289.50 286.80,289.31 C285.86,291.32 282.41,329.00 281.47,343.38 C281.12,351.24 281.43,360.74 282.09,363.99 C282.09,363.99 282.76,364.21 282.76,364.21 C282.76,364.21 282.85,363.51 282.85,363.51" fill="none" stroke="rgb(0, 0, 255)" stroke-width="3.57" stroke-opacity="1.00" stroke-linejoin="round"/>
<path d="M308.74,263.25 C308.74,263.25 308.80,262.46 308.80,262.46 C309.73,264.07 310.35,271.04 310.34,274.37 C310.28,280.82 309.17,295.81 308.45,303.28 C307.54,310.99 305.58,324.16 305.19,325.42 C305.19,325.42 305.33,323.50 305.33,323.50" fill="none" stroke="rgb(0, 0, 255)" stroke-width="3.57" stroke-opacity="1.00" stroke-linejoin="round"/>
<path d="M324.75,232.63 C323.72,233.05 323.01,234.91 322.21,239.15 C321.05,245.57 318.99,259.66 318.06,266.56 C317.11,274.87 316.43,286.24 316.93,288.98 C316.98,289.25 317.10,289.45 317.30,289.59 C317.30,289.59 317.36,289.26 317.36,289.26" fill="none" stroke="rgb(0, 0, 255)" stroke-width="3.57" stroke-opacity="1.00" stroke-linejoin="round"/>
<path d="M329.94,283.04 C329.94,283.04 329.98,281.12 329.98,281.12 C330.74,280.72 332.12,280.68 333.21,281.18 C334.37,281.75 336.10,286.37 336.60,289.80 C337.76,298.06 338.20,320.61 338.26,324.16 C338.28,325.34 338.31,327.00 338.36,328.02 C338.36,328.02 338.34,327.93 338.34,327.93" fill="none" stroke="rgb(0, 0, 255)" stroke-width="3.57" stroke-opacity="1.00" stroke-linejoin="round"/>
<path d="M347.97,250.40 C347.97,250.40 347.94,249.36 347.94,249.36 C348.79,252.11 349.26,261.02 349.30,263.01 C349.35,265.24 349.35,268.49 349.31,270.32" fill="none" stroke="rgb(0, 0, 255)" stroke-width="3.57" stroke-opacity="1.00" stroke-linejoin="round"/>
<path d="M363.04,282.11 C363.04,282.11 362.62,281.87 362.62,281.87 C362.62,281.87 361.90,281.97 361.90,281.97 C361.31,282.79 360.87,283.68 360.33,285.30 C359.39,288.05 358.00,290.69 357.56,291.37" fill="none" stroke="rgb(0, 0, 255)" stroke-width="3.57" stroke-opacity="1.00" stroke-linejoin="round"/>
<path d="M370.81,243.10 C370.81,243.10 370.37,242.02 370.37,242.02 C370.28,241.94 370.08,257.00 370.86,264.25 C371.97,273.48 373.45,277.95 373.65,278.18" fill="none" stroke="rgb(0, 0, 255)" stroke-width="3.57" stroke-opacity="1.00" stroke-linejoin="round"/>
<path d="M393.14,187.25 C392.82,186.98 392.59,186.74 392.43,186.52 C392.28,186.30 391.99,185.80 391.57,185.01 C391.57,185.01 391.22,185.12 391.22,185.12 C391.11,185.97 395.83,206.12 396.58,209.96 C398.52,219.95 400.07,247.07 399.92,251.09 C399.92,251.09 399.72,248.49 399.72,248.49" fill="none" stroke="rgb(0, 0, 255)" stroke-width="3.57" stroke-opacity="1.00" stroke-linejoin="round"/>
<path d="M419.31,207.50 C419.31,207.50 419.35,205.56 419.35,205.56 C419.41,208.23 417.25,227.43 414.65,245.83 C413.70,252.86 411.66,269.24 412.26,270.76 C412.26,270.76 412.95,269.31 412.95,269.31" fill="none" stroke="rgb(0, 0, 255)" stroke-width="3.57" stroke-opacity="1.00" stroke-linejoin="round"/>
<path d="M435.27,229.42 C435.27,229.42 434.01,229.79 434.01,229.79 C433.25,231.66 430.64,250.13 429.39,259.14 C428.46,266.33 427.10,277.28 427.13,279.48 C427.13,279.48 427.47,278.31 427.47,278.31" fill="none" stroke="rgb(0, 0, 255)" stroke-width="3.57" stroke-opacity="1.00" stroke-linejoin="round"/>
<path d="M453.71,213.00 C453.71,213.00 453.78,210.53 453.78,210.53 C455.44,214.30 456.82,224.93 457.02,234.48 C457.12,242.79 455.69,257.36 455.32,259.40 C455.32,259.40 455.43,258.12 455.43,258.12" fill="none" stroke="rgb(0, 0, 255)" stroke-width="3.57" stroke-opacity="1.00" stroke-linejoin="round"/>
<path d="M392.83,276.83 C392.84,276.16 392.85,275.71 392.86,275.47 C392.87,275.23 392.89,274.87 392.93,274.38 C392.66,275.77 392.51,276.72 392.31,278.41 C391.84,282.44 391.45,286.76 391.13,291.42 C390.90,294.96 390.96,298.64 391.21,298.85 C391.21,298.85 391.24,298.67 391.24,298.67 C391.24,298.67 391.12,298.50 391.12,298.50" fill="none" stroke="rgb(0, 0, 255)" stroke-width="3.57" stroke-opacity="1.00" stroke-linejoin="round"/>
<path d="M413.92,322.00 C413.92,322.00 413.14,318.09 413.14,318.09 C413.14,318.09 412.87,338.82 413.26,343.30 C413.68,347.61 414.00,348.86 414.55,350.35 C414.55,350.35 415.19,350.29 415.19,350.29 C415.19,350.29 415.55,349.47 415.55,349.47" fill="none" stroke="rgb(0, 0, 255)" stroke-width="3.57" stroke-opacity="1.00" stroke-linejoin="round"/>
<path d="M433.56,346.35 C433.56,346.35 432.76,344.43 432.76,344.43 C431.40,344.40 428.75,346.04 426.73,349.48 C420.55,360.32 422.21,371.87 422.60,373.53 C422.60,373.53 423.28,373.47 423.28,373.47 C423.28,373.47 423.68,372.43 423.68,372.43" fill="none" stroke="rgb(0, 0, 255)" stroke-width="3.57" stroke-opacity="1.00" stroke-linejoin="round"/>
<path d="M436.98,299.26 C436.98,299.26 436.91,296.94 436.91,296.94 C438.25,299.79 439.34,313.40 439.93,321.13 C440.44,328.79 441.14,345.11 440.93,347.28 C440.87,347.85 440.72,349.28 440.80,349.45 C440.80,349.45 441.08,348.93 441.08,348.93" fill="none" stroke="rgb(0, 0, 255)" stroke-width="3.57" stroke-opacity="1.00" stroke-linejoin="round"/>
<path d="M478.12,307.70 C478.12,307.70 477.60,306.13 477.60,306.13 C478.58,306.56 479.09,307.13 479.34,308.45 C480.69,315.55 481.09,346.69 480.74,350.11 C480.74,350.11 480.41,350.36 480.41,350.36 C480.41,350.36 479.98,349.78 479.98,349.78" fill="none" stroke="rgb(0, 0, 255)" stroke-width="3.57" stroke-opacity="1.00" stroke-linejoin="round"/>
<path d="M447.44,407.28 C447.44,407.28 447.62,402.46 447.62,402.46 C448.75,405.56 448.85,410.62 448.88,414.31 C448.89,428.74 449.11,451.59 449.31,460.02 C449.50,465.47 449.59,466.43 449.88,468.73 C449.88,468.73 449.92,467.81 449.92,467.81" fill="none" stroke="rgb(0, 0, 255)" stroke-width="3.57" stroke-opacity="1.00" stroke-linejoin="round"/>
<path d="M481.28,398.27 C481.28,398.27 481.29,397.17 481.29,397.17 C481.37,399.32 479.53,418.51 478.73,426.90 C477.79,439.56 477.73,462.13 478.55,466.36 C478.55,466.36 479.20,465.73 479.20,465.73" fill="none" stroke="rgb(0, 0, 255)" stroke-width="3.57" stroke-opacity="1.00" stroke-linejoin="round"/>
<path d="M466.98,470.02 C466.98,470.02 467.15,469.25 467.15,469.25 C468.01,471.69 468.58,492.83 467.90,495.97 C467.80,496.40 467.52,497.25 467.06,498.53 C467.06,498.53 465.94,496.92 465.94,496.92" fill="none" stroke="rgb(0, 0, 255)" stroke-width="3.57" stroke-opacity="1.00" stroke-linejoin="round"/>
<path d="M419.83,476.34 C419.83,475.74 419.83,475.14 419.83,474.54 C419.82,472.90 419.67,472.04 419.37,471.52 C419.37,471.52 418.29,471.39 418.29,471.39 C417.49,472.32 416.79,476.67 416.34,481.73 C416.10,484.60 416.26,489.66 416.68,496.30 C416.97,500.99 417.67,503.44 418.02,503.90 C418.02,503.90 418.12,503.60 418.12,503.60" fill="none" stroke="rgb(0, 0, 255)" stroke-width="3.57" stroke-opacity="1.00" stroke-linejoin="round"/>
<path d="M422.37,396.51 C422.37,396.51 421.52,392.85 421.52,392.85 C420.05,394.27 417.73,408.25 417.97,414.55 C418.18,419.71 420.37,432.93 421.91,435.88 C422.28,436.59 423.32,438.18 423.22,438.22" fill="none" stroke="rgb(0, 0, 255)" stroke-width="3.57" stroke-opacity="1.00" stroke-linejoin="round"/>
<path d="M368.53,326.25 C368.53,326.25 368.80,323.11 368.80,323.11 C368.50,328.81 367.23,345.28 366.57,352.70 C365.84,360.73 366.09,366.59 366.63,366.77 C366.63,366.77 367.13,366.29 367.13,366.29" fill="none" stroke="rgb(0, 0, 255)" stroke-width="3.57" stroke-opacity="1.00" stroke-linejoin="round"/>
<path d="M374.65,356.61 C374.65,356.61 374.35,355.71 374.35,355.71 C375.38,355.94 376.24,356.67 376.86,358.24 C377.90,360.91 379.93,370.75 380.25,372.44 C380.60,374.31 381.11,377.38 381.29,378.47 C381.29,378.47 381.28,377.86 381.28,377.86" fill="none" stroke="rgb(0, 0, 255)" stroke-width="3.57" stroke-opacity="1.00" stroke-linejoin="round"/>
<path d="M381.54,409.30 C381.54,409.30 381.33,405.35 381.33,405.35 C381.87,405.48 383.05,409.34 383.51,412.49 C383.88,415.22 384.30,418.35 384.36,419.05" fill="none" stroke="rgb(0, 0, 255)" stroke-width="3.57" stroke-opacity="1.00" stroke-linejoin="round"/>
<path d="M394.96,402.46 C394.96,402.46 393.69,402.64 393.69,402.64 C394.68,402.88 395.62,406.95 395.62,411.71 C395.58,417.12 393.84,423.97 393.55,423.88" fill="none" stroke="rgb(0, 0, 255)" stroke-width="3.57" stroke-opacity="1.00" stroke-linejoin="round"/>
<path d="M392.42,447.07 C392.42,447.07 392.43,446.89 392.43,446.89 C392.43,446.89 392.83,447.25 392.83,447.25 C393.00,448.20 393.64,469.00 394.45,474.96 C395.06,479.45 396.14,484.51 396.79,486.45 C396.79,486.45 397.02,484.90 397.02,484.90" fill="none" stroke="rgb(0, 0, 255)" stroke-width="3.57" stroke-opacity="1.00" stroke-linejoin="round"/>
<path d="M370.04,460.08 C370.19,459.84 370.28,459.66 370.33,459.53 C370.38,459.40 370.44,459.14 370.52,458.76 C370.52,458.76 370.03,458.90 370.03,458.90 C368.69,461.48 367.86,463.90 367.75,466.04 C367.59,469.68 368.21,473.03 368.71,474.29" fill="none" stroke="rgb(0, 0, 255)" stroke-width="3.57" stroke-opacity="1.00" stroke-linejoin="round"/>
<path d="M376.67,466.03 C376.67,466.03 375.05,466.26 375.05,466.26 C373.03,469.00 371.56,472.26 371.31,472.87 C371.16,473.23 370.86,474.01 370.39,475.22" fill="none" stroke="rgb(0, 0, 255)" stroke-width="3.57" stroke-opacity="1.00" stroke-linejoin="round"/>
<path d="M355.74,435.78 C355.42,435.22 355.02,434.26 354.94,433.65 C354.91,433.43 354.91,433.05 354.93,432.51 C355.12,432.31 357.13,434.08 358.08,458.44 C358.10,458.96 358.11,460.08 358.11,461.81 C358.11,461.81 357.46,460.61 357.46,460.61" fill="none" stroke="rgb(0, 0, 255)" stroke-width="3.57" stroke-opacity="1.00" stroke-linejoin="round"/>
<path d="M364.96,399.61 C364.96,399.61 364.10,398.63 364.10,398.63 C362.94,404.87 361.98,418.42 362.25,424.75 C362.31,426.16 362.50,427.26 362.88,428.81 C362.88,428.81 363.45,428.82 363.45,428.82" fill="none" stroke="rgb(0, 0, 255)" stroke-width="3.57" stroke-opacity="1.00" stroke-linejoin="round"/>
<path d="M311.44,342.05 C311.44,342.05 311.78,338.26 311.78,338.26 C313.12,340.94 313.75,345.16 314.13,347.67 C314.93,353.27 316.88,371.80 317.69,380.09 C318.52,389.59 318.06,392.52 317.80,393.51 C317.80,393.51 318.01,392.65 318.01,392.65" fill="none" stroke="rgb(0, 0, 255)" stroke-width="3.57" stroke-opacity="1.00" stroke-linejoin="round"/>
<path d="M335.48,382.31 C335.48,381.59 335.49,381.11 335.51,380.86 C335.52,380.61 335.57,380.24 335.64,379.75 C336.22,383.82 335.67,424.25 335.91,434.47 C336.21,443.31 336.42,446.47 336.41,446.53 C336.41,446.53 336.41,445.64 336.41,445.64" fill="none" stroke="rgb(0, 0, 255)" stroke-width="3.57" stroke-opacity="1.00" stroke-linejoin="round"/>
<path d="M316.26,428.94 C316.20,428.68 316.17,428.46 316.15,428.29 C316.13,428.11 316.10,427.74 316.06,427.17 C316.18,433.79 316.55,447.73 317.16,454.38 C317.52,457.84 318.13,463.38 318.63,466.77 C318.83,468.03 319.02,468.84 319.37,469.91 C319.26,469.80 319.19,469.72 319.15,469.68 C319.11,469.64 319.07,469.58 319.00,469.49" fill="none" stroke="rgb(0, 0, 255)" stroke-width="3.57" stroke-opacity="1.00" stroke-linejoin="round"/>
<path d="M326.52,458.42 C326.52,458.42 326.56,458.32 326.56,458.32 C327.52,463.07 322.58,486.79 322.09,488.73 C322.09,488.73 321.83,488.68 321.83,488.68 C321.69,488.35 321.64,487.99 321.69,487.47 C321.69,487.40 321.70,487.31 321.72,487.18" fill="none" stroke="rgb(0, 0, 255)" stroke-width="3.57" stroke-opacity="1.00" stroke-linejoin="round"/>
<path d="M290.82,446.45 C290.77,446.02 290.72,445.71 290.68,445.53 C290.63,445.35 290.52,445.05 290.34,444.63 C291.13,444.98 296.40,464.85 300.25,479.09 C302.34,486.67 305.04,496.35 305.07,496.24" fill="none" stroke="rgb(0, 0, 255)" stroke-width="3.57" stroke-opacity="1.00" stroke-linejoin="round"/>
<path d="M247.20,329.16 C247.20,329.16 246.78,326.81 246.78,326.81 C246.56,330.52 246.10,338.66 246.17,341.91 C246.20,343.32 246.37,344.29 246.58,344.89 C246.58,344.89 246.86,344.73 246.86,344.73 C246.86,344.73 247.06,343.90 247.06,343.90" fill="none" stroke="rgb(0, 0, 255)" stroke-width="3.57" stroke-opacity="1.00" stroke-linejoin="round"/>
<path d="M248.75,364.23 C248.75,364.23 248.90,362.91 248.90,362.91 C249.22,364.53 249.84,371.90 250.03,373.71 C250.18,375.04 250.44,376.32 250.93,378.36" fill="none" stroke="rgb(0, 0, 255)" stroke-width="3.57" stroke-opacity="1.00" stroke-linejoin="round"/>
<path d="M236.83,386.61 C236.83,386.61 236.55,386.41 236.55,386.41 C236.10,386.69 236.16,392.31 236.59,395.80 C236.88,398.12 237.24,399.90 237.95,402.64" fill="none" stroke="rgb(0, 0, 255)" stroke-width="3.57" stroke-opacity="1.00" stroke-linejoin="round"/>
<path d="M229.53,428.22 C229.53,428.22 229.62,425.31 229.62,425.31 C229.16,428.81 229.89,445.89 230.93,449.91 C231.03,450.26 231.18,450.71 231.39,451.26 C231.39,451.26 232.05,451.59 232.05,451.59 C232.05,451.59 232.42,450.81 232.42,450.81" fill="none" stroke="rgb(0, 0, 255)" stroke-width="3.57" stroke-opacity="1.00" stroke-linejoin="round"/>
<path d="M195.80,371.69 C195.80,371.69 195.43,370.39 195.43,370.39 C194.32,372.59 193.83,375.78 193.56,380.31 C193.11,390.73 194.71,428.46 195.48,434.10 C195.55,434.68 195.67,435.24 195.71,435.82 C195.72,435.97 195.70,436.11 195.65,436.24" fill="none" stroke="rgb(0, 0, 255)" stroke-width="3.57" stroke-opacity="1.00" stroke-linejoin="round"/>
<path d="M177.51,349.36 C177.51,349.36 177.20,348.10 177.20,348.10 C174.94,352.43 172.27,366.23 171.40,374.15 C170.63,381.30 170.61,399.11 171.29,400.36 C171.37,400.49 171.54,400.62 171.81,400.76" fill="none" stroke="rgb(0, 0, 255)" stroke-width="3.57" stroke-opacity="1.00" stroke-linejoin="round"/>
<path d="M127.62,343.15 C127.62,343.15 127.32,341.44 127.32,341.44 C126.44,342.02 125.33,345.58 124.79,349.81 C123.83,357.57 123.67,370.99 124.45,376.66 C124.81,379.21 125.34,380.79 125.83,381.12 C125.83,381.12 126.12,380.93 126.12,380.93" fill="none" stroke="rgb(0, 0, 255)" stroke-width="3.57" stroke-opacity="1.00" stroke-linejoin="round"/>
<path d="M94.04,365.79 C94.04,365.79 94.13,365.09 94.13,365.09 C94.13,365.09 96.37,364.44 96.37,364.44 C97.95,365.73 98.86,370.98 99.13,374.38 C99.62,381.14 98.75,393.80 97.74,397.82 C96.82,401.39 95.94,402.44 95.72,402.46 C95.70,402.13 95.68,401.91 95.68,401.80 C95.68,401.69 95.69,401.55 95.70,401.38" fill="none" stroke="rgb(0, 0, 255)" stroke-width="3.57" stroke-opacity="1.00" stroke-linejoin="round"/>
<path d="M79.90,367.19 C79.90,367.19 80.46,364.52 80.46,364.52 C80.43,364.42 80.21,365.18 79.84,366.74 C78.19,373.80 77.94,384.95 78.78,392.99 C79.23,397.13 80.00,399.08 80.25,399.38" fill="none" stroke="rgb(0, 0, 255)" stroke-width="3.57" stroke-opacity="1.00" stroke-linejoin="round"/>
<path d="M98.96,386.46 C98.89,386.31 98.84,386.20 98.80,386.16 C98.77,386.11 98.70,386.04 98.61,385.96 C98.61,385.96 98.72,386.10 98.72,386.10 C98.72,386.10 102.06,384.64 102.06,384.64 C103.18,385.45 103.98,390.34 104.50,396.05 C105.84,414.42 106.52,438.15 106.48,439.28 C106.42,440.72 106.16,441.60 105.85,441.78 C105.85,441.78 105.66,441.68 105.66,441.68" fill="none" stroke="rgb(0, 0, 255)" stroke-width="3.57" stroke-opacity="1.00" stroke-linejoin="round"/>
<path d="M117.41,413.25 C117.41,413.25 115.86,410.13 115.86,410.13 C115.01,412.82 115.38,419.00 115.59,422.45 C115.88,426.20 116.64,430.80 117.49,435.18 C118.09,438.14 119.33,442.82 120.36,444.16" fill="none" stroke="rgb(0, 0, 255)" stroke-width="3.57" stroke-opacity="1.00" stroke-linejoin="round"/>
<path d="M133.31,386.25 C133.31,386.25 132.70,385.79 132.70,385.79 C133.67,387.23 134.85,392.66 135.29,395.67 C135.56,397.55 137.25,412.22 137.86,416.06 C138.14,417.74 138.39,418.50 138.88,419.35" fill="none" stroke="rgb(0, 0, 255)" stroke-width="3.57" stroke-opacity="1.00" stroke-linejoin="round"/>
<path d="M153.99,389.62 C153.99,389.62 152.83,385.87 152.83,385.87 C153.84,402.00 156.27,423.02 159.75,444.09 C160.47,448.17 162.15,457.67 162.18,457.78 C162.25,458.12 162.41,458.66 162.64,459.41 C162.64,459.41 162.65,458.89 162.65,458.89" fill="none" stroke="rgb(0, 0, 255)" stroke-width="3.57" stroke-opacity="1.00" stroke-linejoin="round"/>
<path d="M169.48,428.32 C169.48,428.32 169.71,426.10 169.71,426.10 C170.57,426.48 171.35,429.85 171.66,432.46 C172.39,438.82 172.96,476.63 173.10,492.63 C173.10,492.63 172.60,490.45 172.60,490.45" fill="none" stroke="rgb(0, 0, 255)" stroke-width="3.57" stroke-opacity="1.00" stroke-linejoin="round"/>
<path d="M180.41,468.01 C180.41,468.01 179.62,467.35 179.62,467.35 C179.62,467.35 186.50,496.68 186.50,496.68 C186.50,496.68 186.72,495.23 186.72,495.23" fill="none" stroke="rgb(0, 0, 255)" stroke-width="3.57" stroke-opacity="1.00" stroke-linejoin="round"/>
<path d="M209.84,461.27 C209.84,461.27 209.43,460.04 209.43,460.04 C210.15,464.62 212.28,480.33 213.49,489.25 C213.81,491.62 213.97,493.05 214.25,495.95 C214.25,495.95 214.13,496.01 214.13,496.01 C214.13,496.01 213.84,495.69 213.84,495.69" fill="none" stroke="rgb(0, 0, 255)" stroke-width="3.57" stroke-opacity="1.00" stroke-linejoin="round"/>
<path d="M195.33,516.66 C195.33,516.66 195.20,513.73 195.20,513.73 C196.81,514.57 197.84,515.66 198.52,517.50 C198.68,517.95 200.17,522.82 200.28,523.44 C200.57,525.07 200.49,527.07 200.26,527.77" fill="none" stroke="rgb(0, 0, 255)" stroke-width="3.57" stroke-opacity="1.00" stroke-linejoin="round"/>
<path d="M142.02,468.58 C142.02,468.58 142.76,466.28 142.76,466.28 C142.82,468.67 142.96,475.51 143.11,477.13 C143.29,479.15 143.75,482.61 144.08,484.76" fill="none" stroke="rgb(0, 0, 255)" stroke-width="3.57" stroke-opacity="1.00" stroke-linejoin="round"/>
<path d="M118.91,470.13 C118.91,470.13 118.68,468.63 118.68,468.63 C119.22,472.20 119.80,490.39 120.03,493.70 C120.20,496.12 120.60,499.27 120.77,500.44" fill="none" stroke="rgb(0, 0, 255)" stroke-width="3.57" stroke-opacity="1.00" stroke-linejoin="round"/>
<path d="M116.11,482.57 C116.11,482.57 115.52,482.57 115.52,482.57 C115.74,482.58 116.92,482.57 117.30,482.65 C118.55,482.92 120.06,484.32 121.50,486.50 C122.94,488.74 128.19,506.40 129.93,512.92 C130.31,514.43 130.58,515.24 131.00,516.26" fill="none" stroke="rgb(0, 0, 255)" stroke-width="3.57" stroke-opacity="1.00" stroke-linejoin="round"/>
<path d="M75.29,457.91 C75.29,457.91 74.45,451.55 74.45,451.55 C73.59,451.52 72.97,452.45 72.66,454.57 C71.78,460.61 72.78,487.34 73.83,495.36 C74.14,497.76 75.19,504.20 76.53,506.87 C76.53,506.87 76.94,506.77 76.94,506.77" fill="none" stroke="rgb(0, 0, 255)" stroke-width="3.57" stroke-opacity="1.00" stroke-linejoin="round"/>
<path d="M80.88,524.48 C80.88,524.48 79.44,522.26 79.44,522.26 C80.79,523.22 81.42,523.92 81.71,525.07 C83.04,530.38 88.15,556.83 88.79,559.62 C89.07,560.85 89.37,561.76 89.67,562.49 C89.67,562.49 89.73,562.50 89.73,562.50 C89.70,562.47 89.66,562.34 89.63,562.12 C89.59,561.89 89.50,561.26 89.37,560.22" fill="none" stroke="rgb(0, 0, 255)" stroke-width="3.57" stroke-opacity="1.00" stroke-linejoin="round"/>
</g>
</svg>
