<?xml version="1.0" encoding="UTF-8" standalone="no"?>
<!DOCTYPE svg PUBLIC "-//W3C//DTD SVG 1.1//EN" "http://www.w3.org/Graphics/SVG/1.1/DTD/svg11.dtd">
<svg width="128.40" height="181.68" viewBox="0.00 0.00 535.00 757.00" xmlns="http://www.w3.org/2000/svg" xmlns:xlink="http://www.w3.org/1999/xlink">
<g stroke-linecap="round" id="72">
<path d="M295.79,119.37 C296.34,118.45 296.69,117.90 296.84,117.72 C296.97,117.57 297.18,117.48 297.46,117.45 C297.55,117.44 297.67,117.41 297.82,117.36 C295.23,116.98 292.87,117.72 288.14,119.52 C284.94,120.77 281.39,123.12 278.96,125.64 C275.44,129.36 267.88,140.60 265.62,145.60 C264.40,148.33 262.29,154.32 261.65,157.27 C260.92,160.79 260.43,168.17 260.62,171.28 C260.85,174.71 261.79,181.35 262.67,184.23 C263.73,187.60 266.95,194.29 269.10,196.97 C271.26,199.57 275.07,202.49 278.64,204.14 C282.20,205.74 285.08,206.63 288.99,207.36 C291.37,207.77 295.16,207.32 300.76,206.19 C305.08,205.29 308.55,204.45 310.78,203.57 C315.27,201.75 323.59,194.51 327.92,189.67 C330.53,186.72 335.62,174.94 337.45,168.40 C339.38,161.40 340.56,147.88 339.81,142.31 C339.09,137.40 337.03,132.97 334.11,129.05 C330.20,123.88 322.94,117.35 319.43,116.03 C316.95,115.13 309.96,114.13 305.84,113.98 C302.18,113.87 296.02,114.29 292.79,114.95 C292.49,115.02 292.36,115.06 292.38,115.07" fill="none" stroke="rgb(255, 165, 0)" stroke-width="4.67" stroke-opacity="1.00" stroke-linejoin="round"/>
<path d="M256.78,164.02 C256.78,164.02 256.29,160.47 256.29,160.47 C255.07,160.05 254.13,159.93 253.27,160.28 C251.31,161.11 247.88,165.22 247.78,167.63 C247.75,169.86 251.05,174.77 253.12,176.00 C254.66,176.89 256.08,177.26 256.82,177.07 C256.82,177.07 257.31,176.26 257.31,176.26" fill="none" stroke="rgb(255, 165, 0)" stroke-width="4.67" stroke-opacity="1.00" stroke-linejoin="round"/>
<path d="M337.85,164.02 C337.85,164.02 336.27,162.16 336.27,162.16 C337.78,161.22 339.05,160.67 340.13,160.61 C341.30,160.57 343.11,161.13 343.72,161.84 C344.50,162.83 344.83,165.22 344.39,166.83 C343.57,169.58 340.17,173.12 338.75,173.31 C338.75,173.31 339.00,171.96 339.00,171.96" fill="none" stroke="rgb(255, 165, 0)" stroke-width="4.67" stroke-opacity="1.00" stroke-linejoin="round"/>
<path d="M276.22,130.71 C276.22,130.71 276.22,130.34 276.22,130.34" fill="none" stroke="rgb(255, 165, 0)" stroke-width="4.67" stroke-opacity="1.00" stroke-linejoin="round"/>
<path d="M283.13,124.25 C282.83,124.37 282.63,124.45 282.52,124.51 C282.33,124.61 282.17,124.77 281.97,124.84 C281.92,124.86 281.86,124.85 281.81,124.88 C280.86,125.54 279.56,126.60 278.69,127.48 C273.89,132.44 267.95,140.96 266.89,144.96 C266.89,144.96 267.58,145.57 267.58,145.57 C267.58,145.57 267.95,145.49 267.95,145.49" fill="none" stroke="rgb(255, 165, 0)" stroke-width="4.67" stroke-opacity="1.00" stroke-linejoin="round"/>
<path d="M289.40,123.61 C289.40,123.61 288.68,122.03 288.68,122.03 C287.51,122.44 286.60,123.21 285.22,125.16 C279.74,133.02 275.94,139.24 274.90,141.19 C274.90,141.19 275.04,141.53 275.04,141.53 C275.04,141.53 276.56,139.88 276.56,139.88" fill="none" stroke="rgb(255, 165, 0)" stroke-width="4.67" stroke-opacity="1.00" stroke-linejoin="round"/>
<path d="M290.47,123.04 C290.47,123.04 289.99,120.85 289.99,120.85 C288.46,121.59 284.37,127.85 282.29,131.68 C281.08,133.93 280.42,135.56 279.90,137.40 C279.90,137.40 280.22,137.86 280.22,137.86 C280.22,137.86 281.54,135.83 281.54,135.83" fill="none" stroke="rgb(255, 165, 0)" stroke-width="4.67" stroke-opacity="1.00" stroke-linejoin="round"/>
<path d="M298.01,120.19 C298.01,120.19 297.66,118.82 297.66,118.82 C296.97,119.00 294.03,123.80 292.55,126.22 C290.87,128.95 287.98,133.24 287.39,133.73 C287.39,133.73 287.41,133.54 287.41,133.54 C287.41,133.54 288.14,132.80 288.14,132.80" fill="none" stroke="rgb(255, 165, 0)" stroke-width="4.67" stroke-opacity="1.00" stroke-linejoin="round"/>
<path d="M303.27,118.74 C303.27,118.74 303.35,118.54 303.35,118.54 C303.35,118.54 303.08,118.55 303.08,118.55 C302.01,119.72 298.38,125.15 297.59,126.52 C295.17,130.70 293.44,134.66 293.77,135.14 C293.77,135.14 294.62,134.60 294.62,134.60" fill="none" stroke="rgb(255, 165, 0)" stroke-width="4.67" stroke-opacity="1.00" stroke-linejoin="round"/>
<path d="M306.50,118.99 C306.50,118.99 306.70,117.76 306.70,117.76 C303.88,121.83 301.03,126.47 300.14,128.68 C299.96,129.14 299.58,130.19 299.00,131.83" fill="none" stroke="rgb(255, 165, 0)" stroke-width="4.67" stroke-opacity="1.00" stroke-linejoin="round"/>
<path d="M310.30,117.85 C308.90,118.36 308.20,118.92 307.62,120.23 C306.99,121.63 306.04,123.58 304.89,125.80 C303.69,128.13 302.99,129.67 301.97,132.13 C302.27,131.96 302.50,131.80 302.64,131.67 C302.77,131.53 303.03,131.21 303.39,130.73" fill="none" stroke="rgb(255, 165, 0)" stroke-width="4.67" stroke-opacity="1.00" stroke-linejoin="round"/>
<path d="M310.68,119.50 C310.68,119.50 310.60,119.33 310.60,119.33 C309.96,121.88 308.51,127.73 307.71,131.02 C307.45,132.14 307.20,133.26 306.94,134.37" fill="none" stroke="rgb(255, 165, 0)" stroke-width="4.67" stroke-opacity="1.00" stroke-linejoin="round"/>
<path d="M312.20,121.27 C312.20,121.27 311.63,120.23 311.63,120.23 C311.82,122.72 310.73,129.68 310.19,133.22 C310.09,133.90 310.00,134.59 309.90,135.28" fill="none" stroke="rgb(255, 165, 0)" stroke-width="4.67" stroke-opacity="1.00" stroke-linejoin="round"/>
<path d="M316.25,118.29 C316.25,118.29 316.13,118.30 316.13,118.30 C316.92,121.46 316.92,130.97 316.90,131.66 C316.88,132.00 316.84,132.50 316.78,133.15" fill="none" stroke="rgb(255, 165, 0)" stroke-width="4.67" stroke-opacity="1.00" stroke-linejoin="round"/>
<path d="M319.42,121.84 C319.42,121.84 319.30,120.91 319.30,120.91 C319.83,122.35 319.50,128.12 318.77,132.02 C318.51,133.37 317.85,135.91 317.41,137.47" fill="none" stroke="rgb(255, 165, 0)" stroke-width="4.67" stroke-opacity="1.00" stroke-linejoin="round"/>
<path d="M321.76,124.88 C321.76,124.88 321.39,124.89 321.39,124.89 C321.25,125.08 321.24,126.46 321.24,127.03 C321.24,129.41 320.34,134.84 320.34,134.77" fill="none" stroke="rgb(255, 165, 0)" stroke-width="4.67" stroke-opacity="1.00" stroke-linejoin="round"/>
<path d="M324.17,124.88 C324.17,124.88 323.30,123.53 323.30,123.53 C323.85,123.36 324.04,124.06 323.83,126.13 C323.77,126.75 323.24,131.24 323.00,133.28 C322.71,135.69 322.67,136.64 322.77,137.36 C322.97,137.13 323.10,136.96 323.16,136.84 C323.22,136.73 323.30,136.52 323.40,136.21" fill="none" stroke="rgb(255, 165, 0)" stroke-width="4.67" stroke-opacity="1.00" stroke-linejoin="round"/>
<path d="M325.69,129.63 C325.69,129.63 327.67,126.95 327.67,126.95 C328.02,128.43 327.26,134.45 327.15,137.43 C327.14,137.84 327.16,138.09 327.22,138.18" fill="none" stroke="rgb(255, 165, 0)" stroke-width="4.67" stroke-opacity="1.00" stroke-linejoin="round"/>
<path d="M330.82,126.21 C330.82,126.21 331.05,125.45 331.05,125.45 C331.05,125.45 331.53,125.11 331.53,125.11 C331.86,125.97 331.86,130.81 331.34,134.24 C330.95,136.76 330.31,139.32 330.32,139.30" fill="none" stroke="rgb(255, 165, 0)" stroke-width="4.67" stroke-opacity="1.00" stroke-linejoin="round"/>
<path d="M331.45,132.67 C331.45,132.67 331.03,131.21 331.03,131.21 C331.38,131.79 331.48,135.52 331.07,138.95 C330.67,141.99 330.20,145.53 330.01,146.68" fill="none" stroke="rgb(255, 165, 0)" stroke-width="4.67" stroke-opacity="1.00" stroke-linejoin="round"/>
<path d="M333.54,137.93 C333.54,137.93 335.04,136.02 335.04,136.02 C335.04,136.02 334.24,147.64 334.24,147.64 C334.50,147.04 334.72,146.52 334.89,146.06 C335.27,145.03 336.23,142.47 336.48,142.44 C336.48,142.44 336.74,150.38 336.74,150.38 C336.74,150.38 338.44,147.18 338.44,147.18 C338.74,147.38 339.05,149.14 338.99,150.95 C338.98,151.45 338.90,152.17 338.74,153.13 C338.74,153.13 338.54,153.32 338.54,153.32" fill="none" stroke="rgb(255, 165, 0)" stroke-width="4.67" stroke-opacity="1.00" stroke-linejoin="round"/>
<path d="M341.27,149.90 C341.27,149.90 340.67,150.65 340.67,150.65 C340.67,150.65 340.68,154.90 340.68,154.90" fill="none" stroke="rgb(255, 165, 0)" stroke-width="4.67" stroke-opacity="1.00" stroke-linejoin="round"/>
<path d="M267.04,160.98 C266.79,160.66 266.60,160.45 266.46,160.33 C266.00,159.94 265.25,159.66 264.75,159.61 C264.75,159.61 285.15,155.17 285.15,155.17 C285.15,155.17 284.75,155.25 284.75,155.25 C284.75,155.25 284.88,154.90 284.88,154.90" fill="none" stroke="rgb(255, 165, 0)" stroke-width="4.67" stroke-opacity="1.00" stroke-linejoin="round"/>
<path d="M311.63,154.58 C311.63,154.58 310.99,152.80 310.99,152.80 C313.30,152.52 320.13,152.54 324.09,152.55 C328.25,152.58 331.35,152.72 332.59,153.47 C332.59,153.47 332.00,154.18 332.00,154.18" fill="none" stroke="rgb(255, 165, 0)" stroke-width="4.67" stroke-opacity="1.00" stroke-linejoin="round"/>
<path d="M269.26,170.29 C268.70,170.54 268.27,170.77 267.99,170.99 C267.69,171.23 266.04,172.84 266.03,172.82 C268.92,170.40 275.12,167.99 278.19,166.88 C279.89,166.28 281.09,165.94 282.40,165.63 C282.40,165.63 282.54,166.18 282.54,166.18 C282.54,166.18 282.34,166.35 282.34,166.35" fill="none" stroke="rgb(255, 165, 0)" stroke-width="4.67" stroke-opacity="1.00" stroke-linejoin="round"/>
<path d="M313.91,163.77 C313.28,163.82 312.85,163.83 312.62,163.82 C312.22,163.79 310.64,163.64 310.09,163.91 C309.88,164.02 309.53,164.29 309.02,164.73 C309.25,165.01 326.25,164.99 329.20,166.75 C329.36,166.86 329.58,167.05 329.86,167.34 C329.86,167.34 327.72,168.71 327.72,168.71" fill="none" stroke="rgb(255, 165, 0)" stroke-width="4.67" stroke-opacity="1.00" stroke-linejoin="round"/>
<path d="M314.79,167.00 C314.79,167.00 314.73,166.79 314.73,166.79 C314.41,166.93 313.86,167.24 313.66,167.47 C313.49,167.68 313.35,167.97 313.23,168.36 C313.17,168.57 313.07,169.01 312.94,169.66 C312.89,169.95 312.83,170.24 312.78,170.53" fill="none" stroke="rgb(255, 165, 0)" stroke-width="4.67" stroke-opacity="1.00" stroke-linejoin="round"/>
<path d="M312.77,171.62 C312.61,171.50 312.50,171.41 312.43,171.34 C312.36,171.26 312.23,171.12 312.05,170.89 C313.88,170.87 315.25,170.80 317.15,170.63 C319.05,170.46 319.81,170.32 320.17,170.12 C320.17,170.12 320.27,169.89 320.27,169.89 C320.11,169.80 320.00,169.75 319.95,169.73 C319.90,169.72 319.82,169.71 319.72,169.71" fill="none" stroke="rgb(255, 165, 0)" stroke-width="4.67" stroke-opacity="1.00" stroke-linejoin="round"/>
<path d="M314.03,167.50 C314.03,167.50 313.92,167.40 313.92,167.40 C313.92,167.40 313.93,167.52 313.93,167.52 C313.93,167.52 314.26,167.84 314.26,167.84 C314.26,167.84 318.11,167.79 318.11,167.79 C318.11,167.79 315.74,168.54 315.74,168.54 C315.74,168.54 317.52,168.10 317.52,168.10 C317.52,168.10 314.56,168.86 314.56,168.86 C314.56,168.86 316.36,167.91 316.36,167.91" fill="none" stroke="rgb(255, 165, 0)" stroke-width="4.67" stroke-opacity="1.00" stroke-linejoin="round"/>
<path d="M274.77,173.33 C274.12,172.97 273.74,172.76 273.62,172.70 C273.58,172.68 273.53,172.70 273.51,172.68 C273.45,172.62 273.36,172.52 273.22,172.38 C273.22,172.38 272.54,172.63 272.54,172.63 C272.51,174.90 273.49,176.45 275.64,176.68 C277.00,176.82 280.38,176.22 281.19,175.81 C281.44,175.68 281.89,175.37 282.54,174.88" fill="none" stroke="rgb(255, 165, 0)" stroke-width="4.67" stroke-opacity="1.00" stroke-linejoin="round"/>
<path d="M276.98,171.62 C276.98,171.62 274.87,171.69 274.87,171.69 C275.25,172.98 277.99,173.34 278.99,172.86 C280.14,172.26 280.37,171.13 280.30,170.63 C280.30,170.63 277.38,171.41 277.38,171.41 C277.38,171.41 277.42,173.44 277.42,173.44 C277.42,173.44 279.34,172.67 279.34,172.67 C279.34,172.67 278.75,173.89 278.75,173.89" fill="none" stroke="rgb(255, 165, 0)" stroke-width="4.67" stroke-opacity="1.00" stroke-linejoin="round"/>
<path d="M293.13,177.89 C293.28,175.22 293.40,174.30 293.71,173.78 C293.85,173.56 293.90,173.29 294.03,173.05 C294.59,172.08 295.19,171.50 295.67,171.42 C295.39,174.18 293.61,180.50 293.68,181.46 C293.71,181.74 293.86,182.16 294.13,182.70 C294.13,182.70 301.51,181.54 301.51,181.54 C301.51,181.54 301.16,181.60 301.16,181.60" fill="none" stroke="rgb(255, 165, 0)" stroke-width="4.67" stroke-opacity="1.00" stroke-linejoin="round"/>
<path d="M290.73,199.36 C290.73,199.36 290.62,198.33 290.62,198.33 C291.00,197.63 295.28,196.80 300.14,195.45 C302.94,194.70 304.48,194.43 305.00,194.54 C305.00,194.54 305.08,194.86 305.08,194.86" fill="none" stroke="rgb(255, 165, 0)" stroke-width="4.67" stroke-opacity="1.00" stroke-linejoin="round"/>
<path d="M287.62,217.28 C287.62,217.28 285.83,217.46 285.83,217.46 C286.45,216.64 287.02,215.38 287.41,213.89 C287.53,213.42 287.59,212.97 287.58,212.54 C287.56,211.52 287.41,210.25 287.32,210.08 C287.32,210.08 285.61,227.88 285.61,227.88 C285.61,227.88 284.83,226.95 284.83,226.95 C281.42,228.27 271.63,235.49 262.49,242.63 C253.16,250.02 247.15,254.99 243.34,259.12 C238.57,264.36 232.03,273.09 230.23,277.73 C228.77,281.53 227.28,291.17 226.43,301.60 C225.87,309.69 224.81,326.65 224.36,331.80 C223.60,338.28 222.07,351.65 221.74,360.06 C221.55,367.66 221.22,386.13 221.07,389.64 C220.77,395.20 219.45,411.05 220.03,416.85 C220.25,419.07 220.03,436.80 220.64,441.27 C220.88,442.82 222.07,444.79 223.35,445.36 C223.91,445.58 235.23,445.96 236.59,445.74 C239.15,445.30 242.80,442.11 243.18,440.95 C243.18,440.95 242.91,440.59 242.91,440.59" fill="none" stroke="rgb(255, 165, 0)" stroke-width="4.67" stroke-opacity="1.00" stroke-linejoin="round"/>
<path d="M255.64,287.33 C255.64,287.33 256.59,285.01 256.59,285.01 C256.70,285.08 256.72,285.25 256.71,286.17 C256.63,296.67 243.96,399.04 243.35,405.77 C242.61,418.39 240.59,445.95 240.58,445.90 C240.58,445.90 240.50,444.56 240.50,444.56" fill="none" stroke="rgb(255, 165, 0)" stroke-width="4.67" stroke-opacity="1.00" stroke-linejoin="round"/>
<path d="M313.78,206.14 C313.58,205.75 313.42,204.63 313.32,203.81 C313.27,203.54 313.14,203.11 312.92,202.52 C313.65,203.56 314.25,208.97 314.10,212.27 C313.44,224.67 314.07,227.75 314.89,229.93 C316.04,230.07 322.04,229.34 324.30,230.07 C325.30,230.40 332.47,233.05 337.30,233.84 C338.45,234.05 343.42,235.39 345.46,236.65 C346.50,237.29 354.60,243.20 357.69,245.45 C361.28,248.06 364.54,250.94 366.96,253.68 C369.38,256.47 372.15,260.59 373.92,264.36 C376.61,270.23 377.47,272.76 378.05,276.86 C378.72,281.40 381.75,327.07 382.97,333.93 C384.05,339.99 389.51,376.92 390.26,385.01 C391.90,406.54 395.55,435.18 395.62,436.77 C395.62,436.77 393.83,434.49 393.83,434.49" fill="none" stroke="rgb(255, 165, 0)" stroke-width="4.67" stroke-opacity="1.00" stroke-linejoin="round"/>
<path d="M351.91,288.28 C351.78,287.96 351.65,287.63 351.52,287.31 C351.36,286.92 351.21,286.52 351.05,286.13 C351.05,286.13 351.24,286.35 351.24,286.35 C351.65,292.78 357.83,337.60 358.83,345.75 C359.68,353.91 361.41,373.21 361.99,377.41 C362.44,380.60 365.81,396.83 367.17,403.23 C367.70,405.98 370.85,426.53 371.50,429.23 C371.70,429.99 373.10,433.49 373.55,434.15 C374.33,435.23 379.70,436.28 382.45,436.38 C387.27,436.52 391.50,434.87 393.44,434.03 C393.44,434.03 393.51,433.22 393.51,433.22 C393.51,433.22 392.56,432.91 392.56,432.91" fill="none" stroke="rgb(255, 165, 0)" stroke-width="4.67" stroke-opacity="1.00" stroke-linejoin="round"/>
<path d="M247.34,375.74 C247.36,374.95 247.37,374.43 247.39,374.20 C247.40,373.97 247.45,373.54 247.53,372.93 C247.61,372.35 247.69,371.77 247.76,371.20 C249.47,379.86 253.32,412.09 253.93,413.38 C254.47,414.42 255.84,415.35 257.28,415.64 C260.51,416.22 282.03,415.83 288.61,415.38 C296.34,414.71 313.57,412.71 318.89,411.67 C323.10,410.84 340.99,406.17 343.61,405.64 C345.93,405.18 356.77,403.25 358.16,402.64 C358.46,402.50 362.17,400.24 362.32,399.83 C362.52,399.15 360.81,379.26 360.38,378.82 C360.16,378.61 359.57,378.39 358.60,378.17" fill="none" stroke="rgb(255, 165, 0)" stroke-width="4.67" stroke-opacity="1.00" stroke-linejoin="round"/>
<path d="M223.18,456.45 C223.51,455.50 223.75,454.77 223.90,454.27 C224.04,453.77 224.30,452.81 224.65,451.37 C224.65,451.37 223.23,449.92 223.23,449.92 C221.91,450.04 219.08,453.82 217.98,456.28 C216.97,458.65 215.68,465.24 215.95,467.28 C216.13,468.48 217.19,470.90 217.98,471.99 C218.69,472.91 220.45,474.12 221.54,474.44 C224.22,475.15 228.88,473.92 231.66,471.90 C233.87,470.24 236.56,465.11 236.63,462.95 C236.67,460.82 235.34,456.25 233.88,453.94 C230.82,449.28 227.29,448.15 226.12,448.05 C226.12,448.05 225.91,448.90 225.91,448.90" fill="none" stroke="rgb(255, 165, 0)" stroke-width="4.67" stroke-opacity="1.00" stroke-linejoin="round"/>
<path d="M379.04,442.07 C379.04,442.07 377.53,438.32 377.53,438.32 C377.25,441.23 376.58,448.64 376.52,450.32 C376.43,453.13 377.23,458.92 378.83,461.33 C380.30,463.42 384.55,465.31 386.95,465.13 C387.42,465.08 390.20,464.42 390.84,464.04 C392.74,462.83 394.64,460.50 395.59,458.22 C396.91,454.93 396.83,444.02 395.43,439.72 C392.79,431.99 389.77,430.13 389.19,430.00 C389.19,430.00 388.85,431.17 388.85,431.17" fill="none" stroke="rgb(255, 165, 0)" stroke-width="4.67" stroke-opacity="1.00" stroke-linejoin="round"/>
<path d="M257.25,416.99 C257.55,415.75 257.75,414.93 257.83,414.53 C258.12,413.24 258.21,412.35 258.15,412.06 C256.82,413.29 255.16,418.25 254.52,420.54 C251.75,430.45 249.26,441.69 248.17,449.65 C246.64,462.13 243.74,500.59 243.45,511.01 C243.38,520.13 244.61,562.67 244.49,568.07 C244.25,575.14 243.74,589.28 243.48,596.37 C243.27,605.20 243.80,612.89 244.96,622.92 C248.32,650.71 250.70,675.93 252.02,679.59 C252.33,680.40 253.76,682.98 254.17,683.20 C256.38,684.18 275.51,680.16 280.25,678.26 C283.46,676.96 287.50,674.81 292.65,671.76 C295.11,670.29 299.79,667.24 300.29,665.81 C301.06,663.48 301.47,645.29 301.60,637.20 C301.18,607.46 299.86,560.78 299.48,518.45 C299.33,510.41 298.97,492.04 299.03,489.68 C299.22,483.05 302.33,467.77 302.86,465.04 C302.94,464.63 303.05,464.02 303.19,463.21 C303.19,463.21 303.22,464.39 303.22,464.39" fill="none" stroke="rgb(255, 165, 0)" stroke-width="4.67" stroke-opacity="1.00" stroke-linejoin="round"/>
<path d="M301.84,476.40 C301.91,475.77 301.97,475.15 302.04,474.53 C302.43,470.88 302.76,469.90 302.90,469.58 C302.09,471.76 302.19,476.08 302.48,479.61 C303.18,487.84 304.88,507.86 304.92,508.13 C305.31,510.56 310.50,532.17 311.24,536.00 C314.13,551.88 317.38,585.50 317.66,592.93 C317.99,606.94 320.53,632.73 320.92,650.49 C321.03,655.06 321.75,663.33 321.81,664.27 C321.91,666.86 322.16,671.17 323.03,671.52 C324.07,671.88 345.08,673.20 348.08,672.63 C350.57,672.12 359.02,668.46 362.14,667.90 C363.58,667.64 367.34,665.35 367.91,665.15 C367.91,665.15 367.27,665.19 367.27,665.19" fill="none" stroke="rgb(255, 165, 0)" stroke-width="4.67" stroke-opacity="1.00" stroke-linejoin="round"/>
<path d="M355.29,403.06 C354.31,405.32 354.78,407.54 354.60,410.85 C354.44,413.96 355.42,429.45 356.95,436.62 C357.59,439.60 362.04,456.48 362.54,461.75 C363.82,475.90 367.20,511.63 367.90,519.34 C368.61,527.93 368.72,538.60 368.48,548.90 C367.71,570.08 368.06,595.36 368.48,612.29 C368.98,625.80 372.12,665.73 372.09,666.28 C372.06,666.63 371.94,667.17 371.71,667.89 C371.71,667.89 371.25,667.76 371.25,667.76 C371.25,667.76 371.06,666.90 371.06,666.90" fill="none" stroke="rgb(255, 165, 0)" stroke-width="4.67" stroke-opacity="1.00" stroke-linejoin="round"/>
<path d="M254.28,689.45 C254.28,689.45 255.91,685.63 255.91,685.63 C256.62,686.67 256.76,688.35 256.25,691.20 C255.67,694.35 253.73,700.01 251.69,704.30 C250.82,706.12 247.23,713.83 247.29,715.98 C247.37,717.30 248.63,719.38 249.86,720.03 C251.97,721.09 257.99,721.44 259.19,721.39 C261.15,721.28 269.22,719.53 271.05,718.41 C272.97,717.15 274.16,713.52 274.46,709.50 C274.69,705.84 272.59,689.40 272.78,686.67 C272.78,686.67 273.00,686.31 273.00,686.31" fill="none" stroke="rgb(255, 165, 0)" stroke-width="4.67" stroke-opacity="1.00" stroke-linejoin="round"/>
<path d="M328.25,679.76 C328.46,678.65 328.60,677.89 328.69,677.47 C328.83,676.78 329.02,676.00 329.24,675.11 C329.32,674.80 329.44,674.33 329.61,673.70 C329.61,673.70 330.34,673.94 330.34,673.94 C331.40,675.66 331.23,679.42 330.47,684.95 C329.95,688.66 329.15,697.25 329.18,700.21 C329.25,704.14 330.31,708.88 332.04,710.12 C333.57,711.15 341.08,712.47 344.29,712.30 C346.80,712.15 354.33,710.79 355.87,709.78 C356.78,709.15 357.65,706.26 357.72,704.45 C357.75,701.96 349.95,689.11 347.08,681.64 C345.50,677.43 344.79,672.13 345.91,671.28 C345.91,671.28 346.07,672.14 346.07,672.14" fill="none" stroke="rgb(255, 165, 0)" stroke-width="4.67" stroke-opacity="1.00" stroke-linejoin="round"/>
<path d="M286.48,247.51 C284.25,247.60 283.14,247.13 281.82,245.52 C281.58,245.23 281.27,245.04 280.88,244.94 C278.71,244.42 276.80,245.37 276.50,246.60 C276.28,247.78 278.78,249.85 282.00,250.96 C285.47,252.12 291.16,253.33 293.42,253.51 C296.09,253.70 302.17,253.25 304.74,252.67 C307.21,252.09 314.92,249.55 317.35,248.53 C321.38,246.82 326.14,243.23 328.19,240.70 C329.79,238.66 330.72,236.05 331.37,233.83 C331.37,233.83 331.11,233.30 331.11,233.30 C331.11,233.30 330.93,233.34 330.93,233.34" fill="none" stroke="rgb(255, 165, 0)" stroke-width="4.67" stroke-opacity="1.00" stroke-linejoin="round"/>
<path d="M78.79,70.33 C78.79,70.33 78.33,70.19 78.33,70.19 C78.33,70.19 78.04,69.21 78.04,69.21" fill="none" stroke="rgb(0, 0, 255)" stroke-width="4.67" stroke-opacity="1.00" stroke-linejoin="round"/>
<path d="M83.27,53.96 C83.27,53.96 83.51,53.10 83.51,53.10 C83.51,53.10 83.04,51.70 83.04,51.70 C81.99,51.93 79.95,55.30 78.64,58.25 C76.18,63.84 72.35,75.06 69.41,86.18 C67.45,94.25 63.75,109.93 62.00,117.53 C59.70,128.50 57.16,143.68 57.28,148.01 C57.37,150.73 58.10,152.19 58.51,152.62 C59.54,152.33 61.73,147.84 63.42,143.09 C64.95,138.71 65.35,136.23 65.38,134.88 C65.38,134.88 64.80,134.45 64.80,134.45" fill="none" stroke="rgb(0, 0, 255)" stroke-width="4.67" stroke-opacity="1.00" stroke-linejoin="round"/>
<path d="M61.99,144.52 C61.99,144.52 61.37,144.67 61.37,144.67 C62.14,142.31 62.11,135.15 61.49,131.36 C60.39,124.60 60.34,123.78 60.38,121.12 C60.38,121.12 60.22,121.66 60.22,121.66" fill="none" stroke="rgb(0, 0, 255)" stroke-width="4.67" stroke-opacity="1.00" stroke-linejoin="round"/>
<path d="M230.66,52.21 C230.42,50.73 230.23,49.81 230.09,49.46 C229.95,49.11 229.66,48.84 229.21,48.64 C228.99,49.44 217.75,137.92 213.91,168.86 C211.73,185.15 208.32,210.37 207.80,215.45 C207.80,215.45 208.93,213.04 208.93,213.04" fill="none" stroke="rgb(0, 0, 255)" stroke-width="4.67" stroke-opacity="1.00" stroke-linejoin="round"/>
<path d="M159.97,155.09 C159.97,155.09 156.53,155.62 156.53,155.62 C156.38,157.31 140.72,248.51 135.06,281.28 C134.66,283.50 133.98,287.34 133.42,289.19 C133.42,289.19 133.65,287.05 133.65,287.05" fill="none" stroke="rgb(0, 0, 255)" stroke-width="4.67" stroke-opacity="1.00" stroke-linejoin="round"/>
<path d="M185.45,248.87 C185.45,248.87 184.51,249.40 184.51,249.40 C183.88,253.58 183.12,265.21 181.72,276.51 C180.63,284.85 178.07,304.84 177.71,308.65 C177.09,316.84 176.11,320.50 175.79,320.64" fill="none" stroke="rgb(0, 0, 255)" stroke-width="4.67" stroke-opacity="1.00" stroke-linejoin="round"/>
<path d="M180.06,341.39 C179.89,340.37 179.41,337.55 179.36,336.93 C179.33,336.52 179.30,335.80 179.29,334.75 C179.00,340.01 176.44,354.94 175.12,362.27 C173.59,369.87 170.28,385.33 168.29,393.45 C165.32,404.82 163.28,411.46 161.10,414.69 C159.32,413.44 158.71,412.08 158.93,409.62 C159.24,406.21 163.80,390.79 164.91,389.57 C165.70,390.04 167.52,395.03 168.52,397.47 C169.14,398.97 169.48,399.56 169.77,399.73 C169.77,399.73 169.76,399.59 169.76,399.59" fill="none" stroke="rgb(0, 0, 255)" stroke-width="4.67" stroke-opacity="1.00" stroke-linejoin="round"/>
<path d="M169.91,456.38 C169.93,456.01 169.94,455.76 169.95,455.65 C169.96,455.53 169.99,455.37 170.04,455.18 C170.06,455.65 170.47,462.07 170.23,464.62 C169.93,467.55 166.54,490.58 166.22,493.53 C165.63,498.96 165.89,504.04 166.48,507.18 C167.07,510.13 168.09,511.07 168.63,511.24 C169.89,511.07 171.06,499.67 170.56,498.90 C168.11,499.88 167.54,502.45 167.64,502.41" fill="none" stroke="rgb(0, 0, 255)" stroke-width="4.67" stroke-opacity="1.00" stroke-linejoin="round"/>
<path d="M109.37,505.44 C109.37,505.44 108.56,503.85 108.56,503.85 C108.56,503.85 108.65,503.83 108.65,503.83 C109.73,505.03 109.86,509.28 109.61,512.33 C108.34,528.04 105.34,566.63 104.11,575.21 C103.05,582.53 99.98,597.97 100.23,600.88 C100.28,601.39 100.45,602.47 100.75,604.11 C101.61,603.75 102.27,602.45 103.02,599.47 C103.60,597.12 104.24,591.47 104.12,589.04 C103.36,574.35 98.51,555.94 98.36,555.19 C98.29,554.87 98.19,554.19 98.07,553.18 C98.07,553.18 98.32,553.17 98.32,553.17" fill="none" stroke="rgb(0, 0, 255)" stroke-width="4.67" stroke-opacity="1.00" stroke-linejoin="round"/>
<path d="M31.06,441.19 C30.86,441.22 30.70,441.21 30.59,441.15 C30.48,441.09 30.27,440.90 29.95,440.58 C30.73,442.43 31.71,446.97 31.82,450.23 C32.04,456.91 31.75,466.31 30.53,477.73 C29.53,486.16 27.33,505.46 27.12,509.04 C26.72,516.15 26.85,530.09 27.66,537.81 C28.37,544.13 30.90,551.85 31.53,552.01 C32.25,550.86 33.43,543.79 33.33,540.82 C33.09,535.38 29.04,526.19 29.18,523.84 C29.24,523.08 29.72,522.16 30.28,521.32" fill="none" stroke="rgb(0, 0, 255)" stroke-width="4.67" stroke-opacity="1.00" stroke-linejoin="round"/>
<path d="M113.29,309.83 C113.29,309.83 110.56,308.90 110.56,308.90 C110.56,308.90 109.15,352.85 109.15,352.85 C109.15,352.85 109.48,352.86 109.48,352.86 C109.48,352.86 109.71,350.61 109.71,350.61" fill="none" stroke="rgb(0, 0, 255)" stroke-width="4.67" stroke-opacity="1.00" stroke-linejoin="round"/>
<path d="M296.45,46.89 C296.45,46.89 296.62,45.39 296.62,45.39 C296.28,48.85 295.50,57.01 295.06,61.70 C294.69,65.85 294.75,68.46 294.85,69.15" fill="none" stroke="rgb(0, 0, 255)" stroke-width="4.67" stroke-opacity="1.00" stroke-linejoin="round"/>
<path d="M333.26,45.21 C333.26,45.21 333.28,44.88 333.28,44.88 C333.28,44.88 333.45,44.96 333.45,44.96 C333.63,47.66 330.80,82.90 330.24,90.41 C329.87,96.69 329.92,101.91 329.95,103.93 C329.95,103.93 330.06,103.97 330.06,103.97 C330.06,103.97 330.23,103.15 330.23,103.15" fill="none" stroke="rgb(0, 0, 255)" stroke-width="4.67" stroke-opacity="1.00" stroke-linejoin="round"/>
<path d="M381.42,112.40 C381.42,112.40 380.44,108.03 380.44,108.03 C381.58,110.29 381.86,115.78 381.87,118.84 C381.86,124.93 381.39,142.13 381.12,150.26 C380.83,158.10 380.33,172.48 380.11,179.03 C380.11,179.03 379.66,177.90 379.66,177.90" fill="none" stroke="rgb(0, 0, 255)" stroke-width="4.67" stroke-opacity="1.00" stroke-linejoin="round"/>
<path d="M356.08,237.67 C354.78,233.62 354.08,231.96 353.48,231.06 C353.32,230.82 353.04,230.49 352.65,230.07 C352.57,235.69 352.57,240.61 352.76,244.17 C352.88,246.26 353.46,253.17 353.89,257.43 C354.13,259.55 354.49,260.88 355.15,262.42 C355.15,262.42 355.47,262.10 355.47,262.10" fill="none" stroke="rgb(0, 0, 255)" stroke-width="4.67" stroke-opacity="1.00" stroke-linejoin="round"/>
<path d="M340.33,312.07 C340.19,311.47 340.08,310.95 340.00,310.52 C339.48,307.78 339.56,306.09 340.18,305.07 C341.68,306.15 340.92,332.99 340.75,337.01 C340.67,339.23 340.55,340.37 340.26,342.26 C340.26,342.26 339.91,341.66 339.91,341.66" fill="none" stroke="rgb(0, 0, 255)" stroke-width="4.67" stroke-opacity="1.00" stroke-linejoin="round"/>
<path d="M317.66,361.90 C317.66,361.90 318.52,357.18 318.52,357.18 C319.52,359.49 319.47,363.09 319.28,367.44 C318.59,381.49 318.57,382.30 318.58,383.56 C318.58,383.56 318.82,382.45 318.82,382.45" fill="none" stroke="rgb(0, 0, 255)" stroke-width="4.67" stroke-opacity="1.00" stroke-linejoin="round"/>
<path d="M411.93,335.86 C411.93,335.86 412.90,341.13 412.90,341.13 C412.90,341.13 414.00,339.60 414.00,339.60" fill="none" stroke="rgb(0, 0, 255)" stroke-width="4.67" stroke-opacity="1.00" stroke-linejoin="round"/>
<path d="M412.28,316.75 C412.28,316.75 411.89,317.09 411.89,317.09 C411.89,317.09 411.59,316.81 411.59,316.81 C411.07,320.25 412.47,335.37 413.12,340.66 C414.13,348.27 421.77,386.33 425.06,402.35 C426.09,407.27 428.55,415.31 429.79,417.35 C431.45,415.50 432.14,414.34 432.38,412.59 C433.00,408.41 433.44,403.54 433.41,400.86 C433.34,397.59 432.40,392.49 431.12,390.47 C431.02,390.33 428.75,387.48 428.25,387.15 C426.90,386.29 424.43,385.90 423.47,386.44 C423.20,386.60 422.67,387.02 421.88,387.70 C421.88,387.70 421.89,387.38 421.89,387.38" fill="none" stroke="rgb(0, 0, 255)" stroke-width="4.67" stroke-opacity="1.00" stroke-linejoin="round"/>
<path d="M475.06,295.97 C473.51,292.03 473.61,283.96 473.60,283.86 C473.57,281.99 473.41,279.96 473.34,280.04 C473.63,287.02 474.33,302.34 474.74,310.70 C475.77,325.48 484.26,378.94 484.99,381.38 C486.50,386.22 487.58,387.34 488.63,387.64 C490.17,387.34 492.34,384.34 492.88,382.02 C493.03,381.28 493.11,377.97 492.82,377.12 C492.04,375.03 489.81,372.96 488.04,372.72 C487.34,372.64 485.62,372.86 485.42,372.64 C485.42,372.64 485.63,372.17 485.63,372.17" fill="none" stroke="rgb(0, 0, 255)" stroke-width="4.67" stroke-opacity="1.00" stroke-linejoin="round"/>
<path d="M462.74,526.15 C462.59,525.73 462.42,525.36 462.25,525.05 C462.07,524.73 461.63,524.02 460.94,522.93 C460.94,522.93 461.23,522.30 461.23,522.30 C462.00,523.66 464.50,569.52 465.59,580.53 C466.62,589.73 470.22,603.82 469.84,604.79 C470.39,601.77 471.95,593.03 472.13,591.63 C473.17,582.84 470.92,579.78 470.00,579.21 C468.95,579.27 467.57,579.81 467.07,580.00 C465.81,580.45 463.00,578.37 462.25,576.25" fill="none" stroke="rgb(0, 0, 255)" stroke-width="4.67" stroke-opacity="1.00" stroke-linejoin="round"/>
<path d="M417.25,156.28 C417.25,156.28 417.14,152.83 417.14,152.83" fill="none" stroke="rgb(0, 0, 255)" stroke-width="4.67" stroke-opacity="1.00" stroke-linejoin="round"/>
<path d="M417.32,145.99 C417.32,145.99 417.77,144.35 417.77,144.35 C418.91,147.15 419.25,150.45 419.32,153.31 C419.73,167.59 422.73,207.30 424.07,215.09 C424.51,217.78 424.69,223.35 424.02,225.41 C424.04,224.21 424.06,223.00 424.09,221.80 C424.09,221.62 424.08,221.10 424.12,221.27" fill="none" stroke="rgb(0, 0, 255)" stroke-width="4.67" stroke-opacity="1.00" stroke-linejoin="round"/>
<path d="M465.54,172.58 C465.54,172.58 465.21,172.66 465.21,172.66 C465.21,172.66 465.09,172.85 465.09,172.85 C467.11,174.56 467.51,184.84 467.48,197.16 C467.44,206.32 467.38,222.56 467.38,229.66 C467.51,241.06 468.01,244.59 468.49,247.34 C468.49,247.34 468.65,247.46 468.65,247.46 C468.65,247.46 468.42,246.01 468.42,246.01" fill="none" stroke="rgb(0, 0, 255)" stroke-width="4.67" stroke-opacity="1.00" stroke-linejoin="round"/>
<path d="M467.50,45.21 C467.60,44.56 467.70,44.06 467.79,43.72 C468.10,42.61 468.67,41.30 468.79,41.27 C469.20,44.06 467.39,86.45 467.15,100.16 C467.14,107.86 467.31,125.44 468.10,128.08 C469.59,127.55 473.46,114.52 473.91,108.56 C474.18,104.67 473.63,100.17 472.68,98.38 C472.31,97.69 470.97,95.67 470.47,94.93 C470.47,94.93 470.16,95.97 470.16,95.97" fill="none" stroke="rgb(0, 0, 255)" stroke-width="4.67" stroke-opacity="1.00" stroke-linejoin="round"/>
<path d="M249.77,239.28 C249.77,239.28 249.28,240.80 249.28,240.80 C250.08,240.18 250.88,238.68 250.90,237.21 C250.92,236.15 250.44,234.39 250.29,234.33 C250.29,234.33 249.36,258.26 249.36,258.26 C250.57,255.59 250.65,249.48 250.22,244.80 C250.09,243.40 249.56,239.14 249.30,237.10 C249.00,234.77 248.95,233.11 249.05,230.42 C249.05,230.42 249.21,230.26 249.21,230.26" fill="none" stroke="rgb(0, 0, 255)" stroke-width="4.67" stroke-opacity="1.00" stroke-linejoin="round"/>
<path d="M355.17,234.52 C355.17,234.27 355.17,234.08 355.15,233.95 C355.08,233.45 354.86,233.01 354.64,232.83 C352.18,241.68 351.18,260.33 351.19,261.40 C351.19,261.40 350.83,258.13 350.83,258.13" fill="none" stroke="rgb(0, 0, 255)" stroke-width="4.67" stroke-opacity="1.00" stroke-linejoin="round"/>
</g>
</svg>
