<?xml version="1.0" encoding="UTF-8" standalone="no"?>
<!DOCTYPE svg PUBLIC "-//W3C//DTD SVG 1.1//EN" "http://www.w3.org/Graphics/SVG/1.1/DTD/svg11.dtd">
<svg width="128.40" height="181.68" viewBox="0.00 0.00 535.00 757.00" xmlns="http://www.w3.org/2000/svg" xmlns:xlink="http://www.w3.org/1999/xlink">
<g stroke-linecap="round" id="75">
<path d="M275.41,323.10 C275.41,323.10 275.46,323.14 275.46,323.14 C275.46,323.14 276.85,321.02 276.85,321.02 C276.65,320.84 271.03,318.17 269.59,317.88 C266.75,317.34 262.05,318.75 260.47,319.80 C258.83,320.95 256.40,324.03 255.35,326.39 C254.32,328.78 253.40,333.64 253.32,336.45 C253.25,340.73 256.63,352.09 258.30,355.12 C259.09,356.52 261.27,358.14 262.44,357.94 C262.92,357.84 264.05,356.97 264.24,356.63 C264.54,356.08 264.71,355.36 264.70,354.99 C264.70,354.98 264.69,354.97 264.68,354.98" fill="none" stroke="rgb(255, 165, 0)" stroke-width="2.80" stroke-opacity="1.00" stroke-linejoin="round"/>
<path d="M268.17,332.51 C268.11,332.18 268.12,331.43 268.25,330.76 C268.34,330.28 268.77,328.71 268.94,328.13 C267.67,331.33 266.80,334.03 266.47,336.40 C266.07,339.50 266.12,344.22 266.70,346.59 C267.37,349.10 269.99,353.02 272.28,354.32 C274.29,355.41 277.29,355.71 279.97,355.08 C283.43,354.23 287.25,352.62 289.39,350.06 C293.14,345.42 293.86,338.97 293.88,336.65 C293.88,336.65 293.66,337.13 293.66,337.13" fill="none" stroke="rgb(255, 165, 0)" stroke-width="2.80" stroke-opacity="1.00" stroke-linejoin="round"/>
<path d="M270.98,331.05 C270.98,331.05 270.62,331.16 270.62,331.16 C270.47,330.82 270.38,330.55 270.34,330.34 C270.26,329.84 270.02,328.47 269.51,327.61 C269.51,327.61 267.87,328.83 267.87,328.83 C269.03,330.43 278.54,332.30 278.88,331.80 C278.88,331.80 279.26,331.23 279.26,331.23" fill="none" stroke="rgb(255, 165, 0)" stroke-width="2.80" stroke-opacity="1.00" stroke-linejoin="round"/>
<path d="M281.97,328.80 C281.97,328.80 280.94,328.35 280.94,328.35 C284.97,328.40 287.99,328.83 290.65,330.53 C291.78,331.27 293.09,332.48 294.36,333.84 C294.42,333.92 294.62,334.14 294.55,334.07" fill="none" stroke="rgb(255, 165, 0)" stroke-width="2.80" stroke-opacity="1.00" stroke-linejoin="round"/>
<path d="M279.42,323.62 C279.42,323.62 278.69,322.83 278.69,322.83 C279.08,321.61 281.58,319.73 285.28,318.36 C288.78,317.10 295.05,316.08 296.73,316.53 C298.18,316.96 301.60,320.14 302.47,321.77 C303.24,323.30 304.27,329.51 304.39,330.63 C304.62,332.77 304.31,337.10 303.91,340.73 C303.56,343.73 302.41,348.19 301.23,350.00 C299.39,352.69 290.28,359.14 289.80,359.61 C289.80,359.61 290.12,358.22 290.12,358.22" fill="none" stroke="rgb(255, 165, 0)" stroke-width="2.80" stroke-opacity="1.00" stroke-linejoin="round"/>
<path d="M268.70,335.02 C268.57,335.32 268.50,335.50 268.46,335.56 C268.42,335.62 268.38,335.64 268.33,335.61 C268.33,335.61 268.41,335.26 268.41,335.26 C268.41,335.26 268.00,335.63 268.00,335.63 C268.00,335.63 269.52,335.29 269.52,335.29 C269.52,335.29 272.26,335.07 272.26,335.07 C272.26,335.07 271.12,335.10 271.12,335.10" fill="none" stroke="rgb(255, 165, 0)" stroke-width="2.80" stroke-opacity="1.00" stroke-linejoin="round"/>
<path d="M270.42,339.90 C270.46,339.81 270.50,339.71 270.53,339.62 C270.57,339.53 270.61,339.43 270.65,339.34 C270.65,339.34 270.73,339.31 270.73,339.31 C270.73,339.31 270.80,340.37 270.80,340.37 C270.80,340.37 268.97,340.83 268.97,340.83 C268.97,340.83 270.91,340.65 270.91,340.65 C270.91,340.65 268.14,340.06 268.14,340.06 C268.14,340.06 269.82,340.09 269.82,340.09" fill="none" stroke="rgb(255, 165, 0)" stroke-width="2.80" stroke-opacity="1.00" stroke-linejoin="round"/>
<path d="M280.47,334.20 C280.54,333.89 280.59,333.44 280.62,333.38 C280.67,333.28 280.81,333.04 281.05,332.66 C281.05,332.66 285.19,332.74 285.19,332.74 C285.19,332.74 285.35,332.83 285.35,332.83 C285.35,332.83 285.46,332.80 285.46,332.80" fill="none" stroke="rgb(255, 165, 0)" stroke-width="2.80" stroke-opacity="1.00" stroke-linejoin="round"/>
<path d="M283.29,339.53 C283.29,339.53 283.56,338.38 283.56,338.38 C283.22,338.36 282.87,338.56 282.70,338.93 C282.65,339.03 282.61,339.20 282.57,339.45 C282.57,339.45 283.19,337.55 283.19,337.55 C283.19,337.55 281.95,338.22 281.95,338.22 C281.95,338.22 282.66,339.03 282.66,339.03 C282.66,339.03 281.82,338.32 281.82,338.32" fill="none" stroke="rgb(255, 165, 0)" stroke-width="2.80" stroke-opacity="1.00" stroke-linejoin="round"/>
<path d="M276.95,334.42 C276.94,334.15 276.94,333.95 276.95,333.84 C276.96,333.73 276.99,333.55 277.04,333.30 C277.04,333.30 277.47,332.95 277.47,332.95 C277.93,337.92 275.32,342.52 273.99,344.32 C273.99,344.32 279.27,344.85 279.27,344.85 C279.27,344.85 279.60,344.54 279.60,344.54" fill="none" stroke="rgb(255, 165, 0)" stroke-width="2.80" stroke-opacity="1.00" stroke-linejoin="round"/>
<path d="M276.35,358.17 C276.35,358.17 276.20,358.21 276.20,358.21 C276.27,358.11 276.32,358.01 276.35,357.93 C276.44,357.64 276.49,357.11 276.48,356.87 C276.48,356.87 275.41,361.76 275.41,361.76 C274.93,361.96 271.30,363.93 269.38,365.74 C266.98,368.03 263.81,371.65 262.20,374.68 C260.69,377.60 259.44,383.21 259.52,385.91 C259.58,386.93 260.06,388.40 260.52,388.89 C261.54,389.85 271.24,392.49 271.09,392.53 C270.64,391.59 267.35,384.68 267.18,384.13 C266.17,380.55 269.71,378.35 270.50,378.04 C270.54,378.03 270.66,377.98 270.63,378.01 C270.64,378.05 270.66,377.94 270.66,377.90 C270.69,377.49 270.78,376.35 270.92,375.68" fill="none" stroke="rgb(255, 165, 0)" stroke-width="2.80" stroke-opacity="1.00" stroke-linejoin="round"/>
<path d="M285.01,356.55 C285.01,356.55 284.43,355.21 284.43,355.21 C284.43,355.21 284.52,361.78 284.52,361.78 C285.01,362.10 287.76,361.89 289.67,362.36 C290.75,362.64 295.77,365.00 297.03,365.92 C299.04,367.45 301.46,371.21 302.88,374.53 C303.94,377.07 304.98,381.85 305.15,384.64 C305.31,387.63 304.97,392.55 304.40,394.81 C303.80,397.11 302.27,400.81 301.45,400.92 C300.81,400.98 298.96,400.99 298.68,400.94 C297.87,400.72 296.66,393.31 296.22,391.49 C295.20,387.25 292.70,381.11 291.65,380.19 C290.49,379.27 289.53,379.12 288.50,379.08 C288.50,379.08 288.98,379.24 288.98,379.24" fill="none" stroke="rgb(255, 165, 0)" stroke-width="2.80" stroke-opacity="1.00" stroke-linejoin="round"/>
<path d="M274.06,376.25 C274.19,375.42 274.30,374.96 274.49,374.47 C274.60,374.20 274.69,373.98 274.75,373.80 C274.79,373.66 274.89,373.35 275.03,372.87 C273.10,384.14 271.83,393.41 272.50,396.87 C272.82,398.30 273.69,399.23 274.69,399.02 C281.43,397.10 289.93,396.04 292.70,394.98" fill="none" stroke="rgb(255, 165, 0)" stroke-width="2.80" stroke-opacity="1.00" stroke-linejoin="round"/>
<path d="M294.99,369.46 C294.99,369.46 295.05,368.40 295.05,368.40 C294.73,371.50 293.97,378.84 293.92,379.89 C293.92,379.96 293.93,380.14 293.96,380.09 C293.96,380.09 294.04,379.81 294.04,379.81" fill="none" stroke="rgb(255, 165, 0)" stroke-width="2.80" stroke-opacity="1.00" stroke-linejoin="round"/>
<path d="M300.32,400.40 C300.32,400.40 299.21,400.33 299.21,400.33 C298.32,401.68 297.39,404.91 297.98,406.06 C298.74,407.40 300.76,407.86 301.91,406.75 C302.91,405.72 303.82,402.28 303.46,401.14 C303.09,400.13 301.16,400.19 300.59,400.92 C300.53,401.00 300.48,401.13 300.42,401.32" fill="none" stroke="rgb(255, 165, 0)" stroke-width="2.80" stroke-opacity="1.00" stroke-linejoin="round"/>
<path d="M274.25,401.19 C274.29,400.88 274.38,400.56 274.48,400.45 C274.52,400.41 274.61,400.35 274.74,400.28 C274.74,400.28 274.82,400.30 274.82,400.30 C273.15,403.37 267.72,416.61 266.61,422.50 C265.19,430.23 264.41,447.24 265.28,449.33 C266.41,449.84 268.99,448.75 270.27,447.68 C272.22,445.98 273.17,443.02 274.12,439.40 C275.64,433.40 279.60,422.85 279.72,422.73 C280.53,423.26 280.92,426.15 281.58,432.37 C282.73,442.34 284.92,447.34 285.43,448.06 C285.43,448.06 293.86,445.85 293.86,445.85 C293.86,445.85 293.58,399.07 293.58,399.07 C293.58,399.07 293.86,400.69 293.86,400.69" fill="none" stroke="rgb(255, 165, 0)" stroke-width="2.80" stroke-opacity="1.00" stroke-linejoin="round"/>
<path d="M266.97,453.17 C266.97,453.11 266.98,453.05 267.01,453.00 C267.03,452.96 267.10,452.85 267.22,452.69 C266.95,452.83 264.25,453.27 263.76,454.04 C262.96,455.37 262.86,458.67 263.85,459.81 C264.82,460.85 268.05,459.49 269.04,457.91 C269.57,457.03 269.82,455.90 269.79,454.93 C269.79,454.93 266.41,453.36 266.41,453.36 C266.41,453.36 266.65,452.77 266.65,452.77" fill="none" stroke="rgb(255, 165, 0)" stroke-width="2.80" stroke-opacity="1.00" stroke-linejoin="round"/>
<path d="M290.60,449.54 C289.08,449.27 288.30,449.23 287.90,449.50 C287.03,450.12 285.79,453.86 286.11,455.62 C286.34,456.74 287.68,458.53 288.61,458.95 C289.73,459.40 291.71,459.04 292.78,458.20 C293.66,457.46 294.86,455.25 295.05,454.05 C295.33,451.83 293.30,447.90 291.62,446.92 C290.99,446.57 290.14,446.55 288.92,446.73 C288.92,446.73 288.09,448.14 288.09,448.14" fill="none" stroke="rgb(255, 165, 0)" stroke-width="2.80" stroke-opacity="1.00" stroke-linejoin="round"/>
<path d="M259.96,399.16 C260.02,398.92 260.07,398.76 260.09,398.69 C260.17,398.43 260.25,398.23 260.33,398.12 C260.68,397.63 260.86,397.37 260.87,397.32 C261.01,396.74 260.72,395.68 260.48,395.45 C259.54,395.33 256.50,397.65 255.12,400.38 C252.80,405.09 252.34,413.42 252.39,413.92 C252.39,413.92 252.56,412.46 252.56,412.46" fill="none" stroke="rgb(255, 0, 0)" stroke-width="2.80" stroke-opacity="1.00" stroke-linejoin="round"/>
<path d="M261.01,396.84 C261.01,396.67 261.01,396.55 261.00,396.49 C260.99,396.43 260.97,396.33 260.92,396.20 C260.92,396.20 260.48,396.09 260.48,396.09 C263.82,395.48 266.53,395.87 267.72,397.24 C268.31,397.96 268.66,398.73 268.78,399.41 C268.07,400.04 262.11,401.52 260.96,401.82 C260.00,402.11 259.17,402.84 259.01,403.85 C258.83,405.20 259.22,413.88 259.07,414.42 C259.07,414.42 259.01,413.45 259.01,413.45" fill="none" stroke="rgb(255, 0, 0)" stroke-width="2.80" stroke-opacity="1.00" stroke-linejoin="round"/>
<path d="M243.68,416.08 C243.68,416.08 243.60,416.00 243.60,416.00 C243.60,416.00 243.92,414.68 243.92,414.68 C243.92,414.68 244.76,415.28 244.76,415.28 C245.87,428.24 247.99,465.64 248.88,466.48 C248.94,466.52 249.01,466.59 249.09,466.67 C249.89,462.89 263.23,421.37 263.76,417.69 C263.79,417.47 263.82,417.08 263.85,416.52 C262.85,416.67 249.72,415.87 248.54,415.75 C247.83,415.67 243.62,415.14 243.33,415.31 C243.33,415.31 243.45,415.48 243.45,415.48" fill="none" stroke="rgb(255, 0, 0)" stroke-width="2.80" stroke-opacity="1.00" stroke-linejoin="round"/>
<path d="M249.38,422.19 C249.38,422.19 249.42,419.04 249.42,419.04 C249.42,419.04 249.52,454.16 249.52,454.16 C249.73,453.96 249.99,453.56 250.07,453.23 C250.09,453.15 250.09,453.08 250.07,453.00" fill="none" stroke="rgb(255, 0, 0)" stroke-width="2.80" stroke-opacity="1.00" stroke-linejoin="round"/>
<path d="M249.42,420.99 C249.42,420.99 249.10,420.51 249.10,420.51 C249.10,420.51 250.10,453.45 250.10,453.45 C250.10,453.45 249.89,453.62 249.89,453.62 C249.83,453.51 249.80,453.31 249.79,452.97 C249.79,452.90 249.79,452.78 249.78,452.62" fill="none" stroke="rgb(255, 0, 0)" stroke-width="2.80" stroke-opacity="1.00" stroke-linejoin="round"/>
<path d="M256.24,418.93 C256.24,418.93 256.26,418.71 256.26,418.71 C256.26,418.71 253.97,450.24 253.97,450.24 C253.97,450.24 254.07,448.29 254.07,448.29" fill="none" stroke="rgb(255, 0, 0)" stroke-width="2.80" stroke-opacity="1.00" stroke-linejoin="round"/>
<path d="M253.20,419.30 C253.20,419.30 253.10,418.85 253.10,418.85 C253.25,421.73 253.31,426.84 253.25,429.66 C253.09,436.30 252.08,449.06 251.60,450.98 C251.60,450.98 251.54,448.82 251.54,448.82" fill="none" stroke="rgb(255, 0, 0)" stroke-width="2.80" stroke-opacity="1.00" stroke-linejoin="round"/>
<path d="M251.85,422.94 C251.85,422.94 251.70,421.60 251.70,421.60 C251.70,421.60 249.77,454.27 249.77,454.27 C249.77,454.27 250.32,453.33 250.32,453.33" fill="none" stroke="rgb(255, 0, 0)" stroke-width="2.80" stroke-opacity="1.00" stroke-linejoin="round"/>
<path d="M261.08,420.99 C261.08,420.99 260.99,420.26 260.99,420.26 C260.73,421.32 259.51,427.62 258.73,430.87 C257.96,434.10 255.95,442.85 255.70,444.16 C255.35,445.98 255.22,447.08 255.31,447.14 C255.31,447.14 255.45,446.48 255.45,446.48" fill="none" stroke="rgb(255, 0, 0)" stroke-width="2.80" stroke-opacity="1.00" stroke-linejoin="round"/>
<path d="M259.81,419.00 C259.81,419.00 259.81,418.90 259.81,418.90 C259.81,418.87 259.76,418.92 259.75,418.95 C259.60,419.41 258.59,422.98 257.97,425.16 C257.02,428.66 254.98,436.25 253.88,440.32 C253.28,442.56 252.71,444.96 252.29,446.75" fill="none" stroke="rgb(255, 0, 0)" stroke-width="2.80" stroke-opacity="1.00" stroke-linejoin="round"/>
<path d="M248.55,422.87 C248.55,422.87 248.08,423.04 248.08,423.04 C248.09,432.34 249.32,445.12 249.82,448.50 C250.01,449.77 250.35,451.34 250.91,453.68" fill="none" stroke="rgb(255, 0, 0)" stroke-width="2.80" stroke-opacity="1.00" stroke-linejoin="round"/>
<path d="M248.82,453.77 C248.82,453.77 248.78,452.12 248.78,452.12 C248.78,452.12 248.90,465.68 248.90,465.68 C248.90,465.68 249.08,464.95 249.08,464.95" fill="none" stroke="rgb(255, 0, 0)" stroke-width="2.80" stroke-opacity="1.00" stroke-linejoin="round"/>
<path d="M250.43,457.79 C250.43,457.79 250.43,457.09 250.43,457.09 C250.87,457.66 250.97,459.06 250.58,461.31 C250.43,462.19 250.21,463.24 249.94,464.46 C249.92,464.52 249.86,464.69 249.86,464.63 C249.86,464.63 249.95,464.02 249.95,464.02" fill="none" stroke="rgb(255, 0, 0)" stroke-width="2.80" stroke-opacity="1.00" stroke-linejoin="round"/>
<path d="M144.54,261.66 C144.54,261.66 143.81,262.74 143.81,262.74 C143.91,261.77 143.94,260.21 143.84,258.68 C143.70,257.05 143.49,254.67 143.40,253.16 C143.40,253.13 142.43,272.42 142.35,278.09 C142.38,282.00 142.59,285.52 143.01,286.03 C143.01,286.03 143.53,284.32 143.53,284.32" fill="none" stroke="rgb(0, 0, 255)" stroke-width="2.80" stroke-opacity="1.00" stroke-linejoin="round"/>
<path d="M170.80,340.99 C170.80,340.99 171.23,339.65 171.23,339.65 C170.57,341.84 167.60,361.42 167.72,362.92 C167.74,363.14 167.82,363.24 167.96,363.21 C167.96,363.21 168.88,360.29 168.88,360.29" fill="none" stroke="rgb(0, 0, 255)" stroke-width="2.80" stroke-opacity="1.00" stroke-linejoin="round"/>
<path d="M209.21,264.51 C209.21,264.51 210.95,260.30 210.95,260.30 C211.69,261.27 209.97,277.17 209.08,285.31 C207.17,303.99 205.96,328.28 205.65,343.34 C205.59,351.70 205.51,370.81 205.67,372.42 C205.67,372.42 206.02,371.77 206.02,371.77" fill="none" stroke="rgb(0, 0, 255)" stroke-width="2.80" stroke-opacity="1.00" stroke-linejoin="round"/>
<path d="M271.10,243.21 C271.02,242.38 270.97,241.68 270.93,241.12 C270.66,235.86 270.27,234.88 269.64,233.93 C268.47,237.45 265.75,273.62 264.99,288.26 C264.35,307.92 265.04,320.46 265.38,321.51 C265.38,321.51 265.74,318.85 265.74,318.85" fill="none" stroke="rgb(0, 0, 255)" stroke-width="2.80" stroke-opacity="1.00" stroke-linejoin="round"/>
<path d="M338.01,239.60 C338.14,238.73 338.40,237.73 338.46,237.39 C338.48,237.27 338.48,237.15 338.46,237.01 C338.13,238.90 328.80,279.84 325.66,294.68 C323.66,305.05 322.32,315.94 323.06,315.68 C323.06,315.68 324.31,313.69 324.31,313.69" fill="none" stroke="rgb(0, 0, 255)" stroke-width="2.80" stroke-opacity="1.00" stroke-linejoin="round"/>
<path d="M406.61,260.35 C406.61,260.35 405.14,260.04 405.14,260.04 C405.14,260.04 405.00,259.57 405.00,259.57 C404.62,263.32 402.23,273.89 399.97,281.91 C398.16,288.00 393.19,301.71 390.62,308.70 C387.93,316.37 385.04,329.72 385.26,334.41 C385.40,337.06 385.92,338.26 386.11,338.37 C386.11,338.37 386.33,338.22 386.33,338.22" fill="none" stroke="rgb(0, 0, 255)" stroke-width="2.80" stroke-opacity="1.00" stroke-linejoin="round"/>
<path d="M441.24,242.27 C441.24,242.27 440.91,241.81 440.91,241.81 C442.02,242.26 441.90,247.44 441.39,252.44 C440.70,258.78 437.42,272.88 435.46,277.82 C435.27,278.29 434.87,279.24 434.26,280.68" fill="none" stroke="rgb(0, 0, 255)" stroke-width="2.80" stroke-opacity="1.00" stroke-linejoin="round"/>
<path d="M333.40,347.55 C333.40,347.55 331.88,347.55 331.88,347.55 C331.88,347.55 331.08,346.48 331.08,346.48 C332.30,349.13 333.00,354.26 333.00,357.15 C332.94,363.03 327.20,385.74 326.76,391.29 C326.31,398.26 327.60,404.36 327.80,404.61" fill="none" stroke="rgb(0, 0, 255)" stroke-width="2.80" stroke-opacity="1.00" stroke-linejoin="round"/>
<path d="M373.19,351.45 C373.19,351.45 372.39,351.38 372.39,351.38 C372.39,351.38 371.72,351.85 371.72,351.85 C371.60,352.52 372.67,357.89 372.79,360.07 C373.02,364.78 371.68,374.92 369.92,381.24 C368.49,386.29 363.08,399.43 360.34,406.01 C358.94,409.41 357.53,414.22 357.08,416.92 C355.93,424.31 357.35,427.71 357.83,428.62" fill="none" stroke="rgb(0, 0, 255)" stroke-width="2.80" stroke-opacity="1.00" stroke-linejoin="round"/>
<path d="M428.56,369.68 C428.56,369.68 428.17,369.69 428.17,369.69 C428.58,376.46 427.28,389.27 426.53,393.49 C424.28,405.39 411.79,452.94 410.01,462.54 C409.27,466.60 409.28,469.40 409.49,469.59 C409.49,469.59 409.63,469.11 409.63,469.11" fill="none" stroke="rgb(0, 0, 255)" stroke-width="2.80" stroke-opacity="1.00" stroke-linejoin="round"/>
</g>
</svg>
