<?xml version="1.0" encoding="UTF-8" standalone="no"?>
<!DOCTYPE svg PUBLIC "-//W3C//DTD SVG 1.1//EN" "http://www.w3.org/Graphics/SVG/1.1/DTD/svg11.dtd">
<svg width="128.40" height="181.68" viewBox="0.00 0.00 535.00 757.00" xmlns="http://www.w3.org/2000/svg" xmlns:xlink="http://www.w3.org/1999/xlink">
<g stroke-linecap="round" id="90">
<path d="M253.42,245.30 C253.42,245.30 252.97,246.45 252.97,246.45 C252.97,246.45 252.68,246.45 252.68,246.45 C252.30,244.55 253.12,241.34 254.41,238.26 C254.87,237.19 256.64,233.12 256.94,232.61 C258.08,230.69 259.82,230.20 262.23,230.95 C262.58,231.08 264.30,232.02 264.56,232.59 C265.74,235.35 266.63,251.89 266.16,255.31 C266.09,255.80 266.01,256.28 265.94,256.76" fill="none" stroke="rgb(255, 0, 255)" stroke-width="2.69" stroke-opacity="1.00" stroke-linejoin="round"/>
<path d="M255.18,254.09 C255.18,254.09 255.47,254.30 255.47,254.30 C255.47,254.30 255.65,254.28 255.65,254.28 C254.86,253.81 248.49,254.56 244.98,255.29 C239.06,256.55 228.51,260.02 219.15,262.12 C211.61,263.76 194.89,267.49 190.39,268.85 C183.59,270.92 169.33,276.58 162.69,279.88 C148.30,287.07 131.70,298.07 130.08,300.29 C129.61,300.96 129.42,302.28 129.80,302.67 C131.54,304.24 141.42,305.55 144.10,305.89" fill="none" stroke="rgb(255, 0, 255)" stroke-width="2.69" stroke-opacity="1.00" stroke-linejoin="round"/>
<path d="M240.37,254.63 C240.37,254.63 241.77,253.46 241.77,253.46 C241.12,253.28 236.11,254.64 232.97,255.48 C224.82,257.51 208.36,261.59 200.07,263.64 C189.20,266.51 177.35,270.66 171.94,273.66 C169.75,274.90 165.12,278.60 163.08,281.56 C161.01,284.64 158.52,290.74 157.38,294.88 C152.46,313.68 150.50,329.31 150.64,334.71 C150.69,336.37 150.92,339.05 151.07,339.54 C151.11,339.68 151.20,339.82 151.33,339.96" fill="none" stroke="rgb(255, 0, 255)" stroke-width="2.69" stroke-opacity="1.00" stroke-linejoin="round"/>
<path d="M143.21,342.12 C143.21,342.12 141.94,342.82 141.94,342.82 C144.75,340.22 157.89,333.28 164.68,329.71 C170.37,326.81 181.57,321.20 187.20,318.89 C192.16,316.87 215.67,311.17 216.41,310.98 C217.26,310.77 218.42,310.50 219.90,310.19 C220.26,310.11 220.48,310.08 220.57,310.07" fill="none" stroke="rgb(255, 0, 255)" stroke-width="2.69" stroke-opacity="1.00" stroke-linejoin="round"/>
<path d="M232.60,304.60 C232.60,304.60 232.80,303.70 232.80,303.70 C236.83,303.61 241.92,303.33 243.55,303.00 C244.02,302.91 245.09,302.65 246.76,302.24" fill="none" stroke="rgb(255, 0, 255)" stroke-width="2.69" stroke-opacity="1.00" stroke-linejoin="round"/>
<path d="M266.00,255.04 C266.00,255.04 265.62,254.32 265.62,254.32 C271.16,253.24 282.72,252.59 289.42,253.42 C292.26,253.79 298.73,255.27 301.44,256.21 C304.64,257.35 308.85,259.28 312.43,261.79 C316.86,264.92 330.65,275.91 336.27,280.52 C343.81,286.83 350.32,292.94 353.22,296.75 C354.80,298.86 357.83,303.93 358.96,306.61 C361.25,312.14 363.78,323.82 363.37,325.07 C363.37,325.07 362.90,325.11 362.90,325.11 C362.90,325.11 362.33,324.72 362.33,324.72" fill="none" stroke="rgb(255, 0, 255)" stroke-width="2.69" stroke-opacity="1.00" stroke-linejoin="round"/>
<path d="M264.38,306.15 C264.38,306.15 262.96,307.72 262.96,307.72 C264.85,307.40 268.09,306.89 269.43,306.76 C272.29,306.50 275.92,306.72 277.47,306.85" fill="none" stroke="rgb(255, 0, 255)" stroke-width="2.69" stroke-opacity="1.00" stroke-linejoin="round"/>
<path d="M286.08,305.68 C288.30,306.40 291.98,307.00 296.75,307.37 C303.44,307.88 311.51,309.45 322.61,311.89 C333.07,314.30 341.41,316.71 347.64,319.60 C351.29,321.31 355.97,324.10 360.21,326.98 C364.49,329.93 365.41,330.52 367.14,331.58" fill="none" stroke="rgb(255, 0, 255)" stroke-width="2.69" stroke-opacity="1.00" stroke-linejoin="round"/>
<path d="M217.25,308.92 C216.97,308.95 216.79,308.97 216.68,308.98 C216.58,308.99 216.42,309.02 216.20,309.05 C216.14,309.16 216.08,309.31 216.02,309.52 C215.03,312.99 215.16,329.66 215.08,335.22 C214.91,341.17 213.59,363.72 213.57,364.31 C213.34,370.47 214.56,387.48 215.18,395.27 C215.98,404.87 215.60,410.59 215.47,412.22 C215.47,412.22 215.57,411.89 215.57,411.89" fill="none" stroke="rgb(255, 0, 255)" stroke-width="2.69" stroke-opacity="1.00" stroke-linejoin="round"/>
<path d="M217.11,417.58 C217.04,416.76 217.01,416.21 217.02,415.93 C217.03,415.65 217.09,415.25 217.21,414.73 C217.16,414.95 216.98,417.09 216.93,418.44 C216.91,419.17 216.95,428.98 217.15,432.93 C217.34,436.36 219.26,439.48 219.27,439.55 C219.30,439.76 219.44,458.93 220.35,466.98 C220.42,467.62 220.49,468.26 220.57,468.90 C220.57,468.90 220.50,466.78 220.50,466.78" fill="none" stroke="rgb(255, 0, 255)" stroke-width="2.69" stroke-opacity="1.00" stroke-linejoin="round"/>
<path d="M225.70,309.13 C225.70,309.13 226.85,306.00 226.85,306.00 C226.85,306.00 225.81,305.98 225.81,305.98 C225.01,312.85 225.19,327.53 225.31,335.16 C225.97,355.40 227.74,371.84 228.28,387.32 C228.37,395.02 228.50,412.39 228.75,416.51 C229.16,422.91 232.59,438.93 233.07,443.38 C233.21,444.74 235.02,460.62 234.93,460.96 C234.93,460.96 232.31,456.27 232.31,456.27 C231.93,456.56 231.36,460.89 230.98,463.86 C230.25,470.05 230.76,474.72 230.89,476.33 C231.35,481.95 231.92,487.18 232.61,489.22 C233.64,492.20 236.20,495.99 237.96,497.50 C240.64,499.76 244.42,501.18 244.64,501.17" fill="none" stroke="rgb(255, 0, 255)" stroke-width="2.69" stroke-opacity="1.00" stroke-linejoin="round"/>
<path d="M237.26,496.22 C237.26,496.22 237.62,497.57 237.62,497.57 C240.38,498.45 242.42,498.55 244.01,497.54 C246.36,496.02 249.79,491.36 250.39,490.09 C252.90,484.70 254.57,475.47 254.19,474.48 C254.13,474.34 253.96,474.20 253.69,474.05" fill="none" stroke="rgb(255, 0, 255)" stroke-width="2.69" stroke-opacity="1.00" stroke-linejoin="round"/>
<path d="M220.16,469.78 C221.40,472.11 222.06,473.48 222.81,475.39 C224.85,480.64 231.43,499.57 232.66,501.60 C234.26,504.16 236.58,506.20 237.47,506.10 C237.47,506.10 237.93,505.84 237.93,505.84 C237.93,505.84 238.01,505.89 238.01,505.89" fill="none" stroke="rgb(255, 0, 255)" stroke-width="2.69" stroke-opacity="1.00" stroke-linejoin="round"/>
<path d="M248.02,502.51 C248.02,502.51 247.84,502.09 247.84,502.09 C248.71,502.05 251.62,500.20 252.54,499.15 C253.97,497.47 258.56,489.90 259.33,488.19 C260.05,486.58 260.84,483.79 260.98,483.19 C261.01,483.07 261.03,483.05 261.06,483.12 C261.06,483.12 261.32,483.24 261.32,483.24" fill="none" stroke="rgb(255, 0, 255)" stroke-width="2.69" stroke-opacity="1.00" stroke-linejoin="round"/>
<path d="M259.31,329.75 C259.11,329.96 259.06,330.00 259.05,330.04 C259.05,330.09 259.03,330.24 259.00,330.50 C256.06,332.45 239.55,341.42 237.48,342.73 C234.08,344.90 231.52,347.20 229.57,350.01 C228.62,351.41 226.92,353.93 226.17,355.05 C224.45,357.60 224.00,358.32 224.12,358.29 C224.12,358.29 224.33,358.43 224.33,358.43" fill="none" stroke="rgb(0, 0, 255)" stroke-width="2.69" stroke-opacity="1.00" stroke-linejoin="round"/>
<path d="M229.22,375.39 C228.88,375.54 228.57,375.76 228.31,376.04 C228.04,376.32 227.44,377.06 226.51,378.26 C228.58,376.56 233.56,371.75 234.46,370.97 C237.26,368.54 254.72,357.36 256.47,356.54 C256.78,356.39 257.22,356.23 257.77,356.05 C257.77,356.05 253.21,366.28 253.21,366.28 C255.19,365.13 258.39,361.73 260.38,359.85 C262.57,357.82 263.47,357.50 263.97,357.60 C263.97,357.60 263.19,363.90 263.19,363.90 C263.54,363.92 269.12,357.84 271.13,357.29 C271.36,357.23 271.69,357.24 272.11,357.32 C272.11,357.32 272.93,361.28 272.93,361.28 C273.35,361.12 278.23,356.76 279.91,356.68 C280.13,356.67 280.43,356.78 280.80,357.01 C280.80,357.01 280.80,357.56 280.80,357.56" fill="none" stroke="rgb(0, 0, 255)" stroke-width="2.69" stroke-opacity="1.00" stroke-linejoin="round"/>
<path d="M265.66,325.02 C265.66,325.02 263.93,326.06 263.93,326.06 C264.89,326.29 270.21,326.31 273.09,326.33 C275.34,326.36 278.65,327.28 283.26,328.70 C285.29,329.33 294.16,331.76 296.95,333.96 C298.12,334.95 300.84,337.18 302.06,337.86 C302.61,338.17 305.59,339.22 306.16,339.49 C306.43,339.61 306.92,339.99 307.01,340.04" fill="none" stroke="rgb(0, 0, 255)" stroke-width="2.69" stroke-opacity="1.00" stroke-linejoin="round"/>
<path d="M311.03,343.21 C310.98,342.99 310.92,342.83 310.86,342.71 C310.80,342.59 310.64,342.36 310.40,342.01 C310.40,342.01 310.33,342.36 310.33,342.36 C311.75,343.54 315.78,346.13 317.51,347.64 C318.61,348.62 320.10,350.24 321.30,351.75 C322.36,353.14 323.29,355.47 323.41,357.03 C323.47,357.90 322.80,358.75 321.92,359.55" fill="none" stroke="rgb(0, 0, 255)" stroke-width="2.69" stroke-opacity="1.00" stroke-linejoin="round"/>
<path d="M287.30,352.87 C287.30,352.87 283.25,358.74 283.25,358.74 C284.78,358.25 289.30,356.22 291.49,355.58 C292.83,355.20 293.66,355.44 294.61,356.28 C294.61,356.28 294.74,357.30 294.74,357.30 C294.74,357.30 300.04,355.61 300.04,355.61 C300.04,355.61 300.63,356.85 300.63,356.85" fill="none" stroke="rgb(0, 0, 255)" stroke-width="2.69" stroke-opacity="1.00" stroke-linejoin="round"/>
<path d="M312.72,365.86 C312.72,365.86 311.42,365.93 311.42,365.93 C311.42,365.93 311.30,366.64 311.30,366.64 C313.40,366.18 315.02,365.66 317.38,364.66 C319.74,363.66 320.68,363.31 321.13,363.24" fill="none" stroke="rgb(0, 0, 255)" stroke-width="2.69" stroke-opacity="1.00" stroke-linejoin="round"/>
<path d="M241.54,386.23 C241.07,386.73 240.10,387.34 239.78,387.61 C239.62,387.75 239.44,387.99 239.25,388.33 C239.22,388.40 239.12,388.58 238.97,388.89 C240.14,387.74 241.43,386.61 242.32,386.03 C243.41,385.34 244.91,385.02 245.92,385.25 C246.46,385.39 249.08,386.24 249.79,386.62 C250.06,386.77 250.31,387.04 250.54,387.43" fill="none" stroke="rgb(0, 0, 255)" stroke-width="2.69" stroke-opacity="1.00" stroke-linejoin="round"/>
<path d="M249.88,391.90 C248.43,392.16 247.19,392.23 246.79,392.25 C246.18,392.29 245.69,392.80 244.98,393.92 C244.82,394.18 242.29,394.95 241.86,395.39 C241.86,395.39 241.94,399.06 241.94,399.06 C242.74,399.62 253.41,398.93 254.12,398.92 C255.10,398.89 256.20,398.33 256.40,397.65 C256.53,397.11 256.47,394.15 256.50,393.40 C256.50,393.12 256.55,392.79 256.62,392.40" fill="none" stroke="rgb(0, 0, 255)" stroke-width="2.69" stroke-opacity="1.00" stroke-linejoin="round"/>
<path d="M273.89,375.73 C273.89,375.73 274.07,375.31 274.07,375.31 C274.07,375.31 274.19,375.32 274.19,375.32 C274.43,376.19 274.25,380.46 273.35,382.67 C272.33,385.19 271.07,395.28 271.78,400.98 C271.98,402.40 272.45,403.32 273.22,403.53 C273.72,403.66 276.87,403.76 277.42,403.86 C278.52,404.06 279.68,404.62 279.64,404.80" fill="none" stroke="rgb(0, 0, 255)" stroke-width="2.69" stroke-opacity="1.00" stroke-linejoin="round"/>
<path d="M265.51,419.00 C265.51,419.00 265.45,418.81 265.45,418.81 C266.81,418.51 268.14,418.37 268.67,418.63 C268.82,418.71 270.70,421.21 271.28,421.70 C271.64,421.85 276.89,420.01 279.03,419.74 C280.27,419.60 286.23,419.92 288.40,419.24 C290.12,418.68 290.76,418.07 290.76,417.99 C290.76,417.99 290.51,417.98 290.51,417.98" fill="none" stroke="rgb(0, 0, 255)" stroke-width="2.69" stroke-opacity="1.00" stroke-linejoin="round"/>
<path d="M230.11,404.80 C230.11,404.80 229.66,404.28 229.66,404.28 C230.04,405.07 232.72,407.93 234.95,409.85 C235.63,410.42 237.41,411.90 238.20,412.54 C238.90,413.12 239.60,413.70 240.30,414.29" fill="none" stroke="rgb(0, 0, 255)" stroke-width="2.69" stroke-opacity="1.00" stroke-linejoin="round"/>
<path d="M245.49,422.22 C245.49,422.22 245.16,420.90 245.16,420.90 C245.22,420.96 245.87,422.11 246.03,422.35 C247.13,423.92 251.75,428.42 253.51,429.78 C256.92,432.38 262.93,436.23 263.36,436.58 C264.26,437.33 266.19,439.23 266.64,439.76 C266.59,439.74 266.56,439.72 266.54,439.71 C266.51,439.70 266.43,439.64 266.38,439.63" fill="none" stroke="rgb(0, 0, 255)" stroke-width="2.69" stroke-opacity="1.00" stroke-linejoin="round"/>
<path d="M264.29,439.72 C264.20,439.77 264.07,439.82 263.91,439.88 C262.84,440.29 262.46,440.53 262.37,440.84 C262.76,441.30 266.01,441.34 267.29,441.40 C268.36,441.45 269.51,442.19 270.08,442.87 C270.91,444.03 272.26,456.77 271.87,462.01 C271.69,464.22 268.57,479.19 268.80,481.66 C268.82,481.77 268.83,481.80 268.85,481.75 C268.85,481.75 268.85,481.58 268.85,481.58" fill="none" stroke="rgb(0, 0, 255)" stroke-width="2.69" stroke-opacity="1.00" stroke-linejoin="round"/>
<path d="M290.95,374.28 C290.72,374.34 290.52,374.40 290.37,374.47 C290.21,374.55 289.88,374.74 289.37,375.04 C289.64,375.01 293.38,373.09 294.83,373.44 C297.90,374.02 304.82,375.40 305.58,375.57 C306.41,375.76 307.07,376.19 307.24,376.48 C307.24,376.48 307.23,376.59 307.23,376.59" fill="none" stroke="rgb(0, 0, 255)" stroke-width="2.69" stroke-opacity="1.00" stroke-linejoin="round"/>
<path d="M294.97,383.15 C294.97,383.15 294.24,383.17 294.24,383.17 C294.24,383.17 294.02,382.86 294.02,382.86 C294.02,382.86 304.02,384.70 304.02,384.70 C304.49,386.01 304.91,389.60 304.18,391.11 C303.82,391.80 303.23,392.43 302.95,392.53 C302.95,392.53 302.87,392.50 302.87,392.50" fill="none" stroke="rgb(0, 0, 255)" stroke-width="2.69" stroke-opacity="1.00" stroke-linejoin="round"/>
<path d="M293.97,386.33 C293.97,386.33 293.70,386.27 293.70,386.27 C294.48,387.96 297.64,391.90 298.79,392.37 C299.26,392.56 302.23,393.22 302.67,393.34" fill="none" stroke="rgb(0, 0, 255)" stroke-width="2.69" stroke-opacity="1.00" stroke-linejoin="round"/>
<path d="M324.11,359.73 C324.11,359.73 324.19,359.49 324.19,359.49 C324.34,359.58 324.56,360.14 324.64,360.86 C324.81,362.83 321.91,369.75 321.62,370.80 C320.40,375.16 319.33,388.25 320.54,392.44 C320.73,393.09 321.20,394.72 321.18,395.11" fill="none" stroke="rgb(0, 0, 255)" stroke-width="2.69" stroke-opacity="1.00" stroke-linejoin="round"/>
<path d="M317.91,407.41 C317.91,407.41 317.91,406.17 317.91,406.17 C316.83,407.59 315.75,409.68 315.16,411.83 C314.85,412.93 314.58,414.21 314.35,415.67 C314.27,416.18 314.17,417.00 314.05,418.13" fill="none" stroke="rgb(0, 0, 255)" stroke-width="2.69" stroke-opacity="1.00" stroke-linejoin="round"/>
<path d="M310.77,428.25 C310.77,428.25 310.14,428.71 310.14,428.71 C309.71,429.99 308.97,436.39 308.85,440.64 C308.82,441.77 308.80,442.90 308.79,444.05 C308.79,444.73 308.79,445.40 308.79,446.08" fill="none" stroke="rgb(0, 0, 255)" stroke-width="2.69" stroke-opacity="1.00" stroke-linejoin="round"/>
<path d="M318.00,457.42 C317.84,457.28 317.72,457.19 317.66,457.15 C317.59,457.12 317.49,457.09 317.36,457.07 C317.36,457.07 317.07,457.27 317.07,457.27 C316.75,458.04 316.74,459.03 317.26,460.26 C317.57,461.01 321.25,468.75 321.95,471.59 C322.35,473.24 322.98,474.89 323.54,475.36 C324.04,475.78 325.73,476.93 325.95,478.14 C326.03,478.63 326.87,486.27 327.42,488.59 C328.30,492.22 333.35,503.12 334.71,507.85 C335.01,508.92 335.68,511.23 335.96,512.07 C335.98,512.12 336.05,512.27 336.05,512.22 C336.05,512.22 336.01,512.09 336.01,512.09" fill="none" stroke="rgb(0, 0, 255)" stroke-width="2.69" stroke-opacity="1.00" stroke-linejoin="round"/>
<path d="M271.32,482.10 C271.22,482.05 270.79,481.95 270.49,482.12 C268.35,483.39 261.77,494.04 261.90,494.03 C261.90,494.03 268.91,486.25 268.91,486.25 C266.15,488.32 263.89,494.44 263.98,494.65 C264.63,494.74 270.40,490.08 271.04,489.05 C271.07,489.00 271.09,488.93 271.10,488.83 C268.13,491.91 256.28,509.56 256.11,509.79 C255.91,510.07 255.58,510.51 255.12,511.11 C255.12,511.11 257.30,509.62 257.30,509.62" fill="none" stroke="rgb(0, 0, 255)" stroke-width="2.69" stroke-opacity="1.00" stroke-linejoin="round"/>
<path d="M266.89,495.91 C266.46,497.16 266.18,498.00 266.04,498.43 C265.43,500.38 262.30,515.88 262.24,516.67 C262.18,517.61 263.15,519.29 263.17,519.40 C263.34,520.31 260.71,546.44 260.66,547.53 C260.66,547.53 261.01,545.23 261.01,545.23" fill="none" stroke="rgb(0, 0, 255)" stroke-width="2.69" stroke-opacity="1.00" stroke-linejoin="round"/>
<path d="M288.19,476.96 C288.56,478.23 288.64,478.79 288.41,479.40 C287.80,481.05 285.29,487.31 283.79,491.03 C282.31,494.77 280.47,500.53 280.56,502.86 C280.72,506.05 279.99,509.25 279.45,511.58 C277.58,520.37 277.62,522.41 277.77,522.68 C277.77,522.68 279.35,521.19 279.35,521.19" fill="none" stroke="rgb(0, 0, 255)" stroke-width="2.69" stroke-opacity="1.00" stroke-linejoin="round"/>
<path d="M299.82,478.02 C299.82,478.27 299.81,478.46 299.80,478.59 C299.78,479.08 303.06,484.73 303.58,485.07 C304.02,485.33 304.18,485.38 304.35,485.34" fill="none" stroke="rgb(0, 0, 255)" stroke-width="2.69" stroke-opacity="1.00" stroke-linejoin="round"/>
<path d="M308.17,480.71 C308.17,480.71 309.65,479.92 309.65,479.92 C309.35,480.59 305.28,485.15 304.80,487.08 C304.72,487.39 304.71,489.28 304.44,489.62 C304.28,489.81 301.69,491.69 301.05,492.39 C299.01,494.64 298.26,498.21 298.84,499.15 C299.50,500.12 302.89,500.15 303.07,500.29 C303.12,500.92 294.38,512.25 290.28,519.40 C288.68,522.21 286.97,525.21 286.99,525.16 C286.99,525.16 290.08,521.29 290.08,521.29" fill="none" stroke="rgb(0, 0, 255)" stroke-width="2.69" stroke-opacity="1.00" stroke-linejoin="round"/>
<path d="M321.44,481.65 C321.65,481.82 321.81,481.95 321.90,482.02 C322.05,482.15 322.21,482.27 322.37,482.39 C322.37,482.39 314.79,486.76 314.79,486.76 C314.79,486.76 317.32,487.72 317.32,487.72 C317.32,487.72 309.39,500.52 309.39,500.52 C309.39,500.52 309.62,500.48 309.62,500.48" fill="none" stroke="rgb(0, 0, 255)" stroke-width="2.69" stroke-opacity="1.00" stroke-linejoin="round"/>
</g>
</svg>
