<?xml version="1.0" encoding="UTF-8" standalone="no"?>
<!DOCTYPE svg PUBLIC "-//W3C//DTD SVG 1.1//EN" "http://www.w3.org/Graphics/SVG/1.1/DTD/svg11.dtd">
<svg width="128.40" height="181.68" viewBox="0.00 0.00 535.00 757.00" xmlns="http://www.w3.org/2000/svg" xmlns:xlink="http://www.w3.org/1999/xlink">
<g stroke-linecap="round" id="94">
<path d="M194.06,151.59 C194.06,151.59 192.94,151.86 192.94,151.86 C192.89,151.88 193.06,151.86 193.11,151.84 C195.00,151.24 198.09,150.26 198.79,150.13 C201.17,149.70 220.53,148.03 223.91,147.63 C226.64,147.37 245.05,146.93 252.76,146.89 C260.89,146.59 278.37,142.65 283.53,142.29 C285.91,142.15 296.34,143.56 296.41,143.27 C295.23,145.34 294.61,147.47 294.49,150.23 C294.46,150.96 293.89,159.84 293.91,161.97 C293.93,166.96 294.18,172.86 294.15,173.28 C294.04,174.69 293.62,176.26 293.23,176.95 C292.97,177.10 292.66,177.16 292.29,177.15 C291.92,177.13 290.99,177.01 289.48,176.78" fill="none" stroke="rgb(230, 0, 19)" stroke-width="5.39" stroke-opacity="1.00" stroke-linejoin="round"/>
<path d="M189.05,157.59 C189.44,157.10 190.03,156.87 191.38,156.82 C193.07,156.80 194.66,157.42 194.98,158.58 C195.45,160.42 193.98,168.05 193.84,170.31 C193.61,175.11 194.69,178.59 197.19,183.44 C197.86,184.76 198.24,186.64 197.94,187.51 C197.51,188.32 197.02,189.31 196.96,189.31 C196.73,189.31 196.10,189.36 195.09,189.45" fill="none" stroke="rgb(230, 0, 19)" stroke-width="5.39" stroke-opacity="1.00" stroke-linejoin="round"/>
<path d="M192.58,189.59 C192.58,189.59 192.61,189.72 192.61,189.72 C192.61,189.72 192.89,189.73 192.89,189.73 C192.64,189.70 187.98,188.45 185.95,189.26 C180.29,191.62 177.56,196.59 177.30,198.33 C177.97,199.67 179.26,200.76 180.97,201.02 C182.30,201.22 186.72,201.00 187.13,201.40 C186.49,202.34 184.68,204.04 184.04,204.75 C182.68,206.31 181.33,209.01 181.19,210.69 C180.95,214.41 182.41,217.48 183.46,218.81 C184.84,219.47 186.61,219.38 188.60,218.25 C190.16,217.36 192.31,215.59 193.48,214.42 C192.46,213.79 191.64,213.40 190.29,212.95 C188.95,212.50 184.01,210.08 183.39,210.08 C183.39,210.08 187.13,210.15 187.13,210.15 C187.13,210.15 186.84,215.28 186.84,215.28 C187.79,213.27 189.02,207.61 189.46,204.68 C189.56,204.00 189.65,203.32 189.75,202.65" fill="none" stroke="rgb(230, 0, 19)" stroke-width="5.39" stroke-opacity="1.00" stroke-linejoin="round"/>
<path d="M193.28,185.50 C193.28,185.50 195.59,182.44 195.59,182.44 C195.83,183.33 195.38,188.57 195.26,190.68 C195.04,194.80 195.34,199.67 196.16,203.40 C197.24,208.20 200.12,214.86 200.46,215.61 C200.90,216.61 211.36,250.89 211.56,251.50 C212.10,252.97 216.61,254.87 223.20,257.33 C225.78,258.29 230.79,260.15 234.10,262.32 C238.70,265.33 243.56,267.85 247.84,269.41 C251.69,270.78 255.25,271.85 257.44,272.07 C260.00,272.28 264.70,270.55 266.16,269.17 C267.48,267.88 270.31,262.82 270.81,261.95 C271.06,261.54 271.50,260.82 272.13,259.82" fill="none" stroke="rgb(230, 0, 19)" stroke-width="5.39" stroke-opacity="1.00" stroke-linejoin="round"/>
<path d="M293.25,161.19 C293.25,161.19 293.38,161.14 293.38,161.14 C293.50,161.33 293.53,162.10 293.48,164.19 C293.30,171.71 290.49,213.52 289.23,221.28 C288.47,225.65 286.96,234.09 286.13,236.42 C284.67,240.42 273.27,256.53 271.38,259.89 C270.02,262.44 267.55,266.92 267.19,267.21 C267.65,266.42 268.24,265.61 268.91,264.88 C269.02,264.76 269.10,264.67 269.17,264.62" fill="none" stroke="rgb(230, 0, 19)" stroke-width="5.39" stroke-opacity="1.00" stroke-linejoin="round"/>
<path d="M295.44,190.09 C295.44,190.09 295.83,191.35 295.83,191.35 C296.23,190.92 296.50,190.58 296.65,190.32 C296.91,189.85 298.11,186.55 298.45,185.99 C299.08,184.95 300.64,183.43 301.26,183.18 C301.86,182.98 302.93,183.16 303.38,183.59 C304.33,184.58 304.89,190.58 304.65,193.23 C304.35,196.20 303.60,200.98 302.73,205.64 C302.21,208.46 302.73,214.73 301.63,217.79 C300.48,220.88 297.56,225.03 296.11,225.41 C295.22,224.81 294.89,220.97 295.28,219.58 C295.31,219.50 295.33,219.40 295.36,219.29" fill="none" stroke="rgb(230, 0, 19)" stroke-width="5.39" stroke-opacity="1.00" stroke-linejoin="round"/>
<path d="M299.32,191.43 C299.32,191.43 299.59,191.44 299.59,191.44 C299.59,191.44 299.52,190.98 299.52,190.98 C299.52,190.98 295.26,197.74 295.26,197.74 C295.26,197.74 297.84,198.74 297.84,198.74 C297.84,198.74 296.49,204.22 296.49,204.22" fill="none" stroke="rgb(230, 0, 19)" stroke-width="5.39" stroke-opacity="1.00" stroke-linejoin="round"/>
<path d="M243.02,220.53 C243.01,220.13 243.01,219.85 243.02,219.69 C243.02,219.54 243.04,219.30 243.06,218.98 C244.25,220.13 245.62,221.76 246.15,222.87 C247.13,225.01 246.03,228.14 245.76,228.86 C248.59,228.89 250.11,228.68 251.74,227.87 C253.16,227.19 256.20,225.70 256.85,225.59 C257.28,225.52 258.24,225.49 259.73,225.51 C259.73,225.51 259.76,225.66 259.76,225.66" fill="none" stroke="rgb(230, 0, 19)" stroke-width="5.39" stroke-opacity="1.00" stroke-linejoin="round"/>
<path d="M236.52,239.18 C236.52,239.18 235.98,239.53 235.98,239.53 C235.98,239.53 235.74,240.36 235.74,240.36 C237.72,240.75 251.93,238.32 259.10,237.09 C264.50,236.29 266.10,236.64 268.38,237.35 C268.64,239.29 266.91,242.35 263.51,245.52 C260.96,247.84 257.99,249.93 255.17,251.41 C252.16,252.90 246.25,253.42 243.59,252.38 C241.20,251.36 237.52,249.06 235.29,247.14 C232.89,245.03 231.17,242.42 230.91,241.64 C232.36,242.19 237.01,245.28 239.65,246.80 C246.46,250.71 249.52,250.61 249.80,250.35 C249.85,248.71 239.48,244.71 236.06,243.61 C245.43,247.59 249.40,248.16 252.26,248.39 C251.85,247.15 251.16,246.35 249.56,245.52 C246.97,244.19 242.43,242.41 240.47,242.25 C247.22,244.74 251.23,243.98 251.90,243.62 C250.78,239.71 245.39,242.31 244.43,243.26 C244.11,244.50 244.26,245.83 245.05,246.71 C245.75,247.47 247.77,248.17 249.00,248.12 C254.58,247.72 255.10,242.92 254.95,241.94 C253.72,241.62 252.87,241.79 252.52,242.62 C252.25,243.29 252.41,244.62 252.87,245.12 C253.47,245.71 255.11,246.06 256.34,245.83 C262.25,244.59 263.41,240.56 263.33,239.72 C262.05,238.98 258.32,239.86 256.34,241.41 C255.39,242.17 254.73,243.16 254.31,244.19 C255.70,244.90 256.79,244.96 258.28,244.19 C260.73,242.91 264.99,239.67 265.09,238.91 C261.82,239.14 255.89,245.53 255.41,246.87 C260.53,244.16 262.90,239.68 263.12,238.77 C262.16,238.53 257.72,241.94 255.36,244.58 C252.74,247.55 252.22,249.50 252.44,250.18 C253.55,250.43 257.00,248.11 259.15,245.41 C261.50,242.39 262.17,240.27 262.17,239.28 C262.17,239.28 246.66,243.92 246.66,243.92 C246.66,243.92 262.30,240.01 262.30,240.01 C262.30,240.01 242.88,240.91 242.88,240.91 C242.88,240.91 260.30,237.61 260.30,237.61 C260.30,237.61 239.62,240.41 239.62,240.41 C239.62,240.41 249.41,245.77 249.41,245.77 C249.41,245.77 241.86,246.78 241.86,246.78 C242.94,247.93 243.80,248.47 245.21,248.76 C247.95,249.31 251.85,249.02 252.20,248.80 C250.33,248.92 246.67,249.20 245.97,249.17 C243.79,249.04 239.18,245.57 236.75,243.84 C234.30,242.10 233.56,241.44 233.75,241.22 C233.75,241.22 265.65,236.96 265.65,236.96 C264.01,238.33 257.61,240.31 254.27,240.99 C249.17,241.97 248.10,242.12 246.94,242.22" fill="none" stroke="rgb(230, 0, 19)" stroke-width="5.39" stroke-opacity="1.00" stroke-linejoin="round"/>
<path d="M256.51,164.09 C256.51,164.09 256.19,161.85 256.19,161.85 C256.19,161.85 251.80,164.56 251.80,164.56 C251.80,164.56 263.25,155.14 263.25,155.14 C263.25,155.14 252.80,166.61 252.80,166.61 C252.80,166.61 259.08,157.41 259.08,157.41 C259.08,157.41 255.58,162.81 255.58,162.81 C255.22,162.39 259.58,158.39 261.48,157.40 C263.62,156.34 266.43,155.73 268.01,156.13 C269.80,156.63 277.26,162.51 277.54,162.91 C275.00,162.49 273.12,161.83 270.68,160.37 C268.13,158.85 266.12,157.71 265.21,157.37 C263.59,156.81 261.53,158.19 257.44,161.51 C254.37,164.08 253.23,165.84 253.20,166.18 C256.15,165.08 259.16,162.16 261.45,160.20 C262.55,159.30 264.89,158.31 266.14,158.40 C267.71,158.57 273.75,163.92 275.53,165.50 C275.53,165.55 274.99,165.25 274.75,165.23 C274.61,165.21 272.20,165.36 269.55,165.46 C265.03,165.64 259.04,165.88 257.57,165.94" fill="none" stroke="rgb(230, 0, 19)" stroke-width="5.39" stroke-opacity="1.00" stroke-linejoin="round"/>
<path d="M203.46,171.23 C203.50,171.35 203.50,171.52 203.46,171.73 C203.41,171.94 203.27,172.50 203.02,173.39 C203.02,173.39 211.40,167.43 211.40,167.43 C211.40,167.43 204.33,176.50 204.33,176.50 C204.33,176.50 213.81,168.06 213.81,168.06 C213.81,168.06 207.66,172.07 207.66,172.07 C209.16,170.25 212.92,167.61 215.42,166.29 C216.76,165.61 219.77,164.66 221.16,164.58 C223.77,164.49 226.48,167.16 228.77,170.21 C229.68,171.49 230.34,172.53 230.27,172.52 C227.85,170.89 224.73,169.29 222.44,168.93 C217.28,168.21 212.71,170.66 210.58,171.97 C211.54,170.13 214.93,168.11 217.28,167.09 C218.54,166.59 221.45,166.17 222.91,166.42 C224.96,166.81 229.17,170.73 229.44,171.20 C227.82,170.87 221.91,168.66 221.24,169.22 C220.76,169.67 220.43,170.46 220.49,170.82" fill="none" stroke="rgb(230, 0, 19)" stroke-width="5.39" stroke-opacity="1.00" stroke-linejoin="round"/>
<path d="M216.39,184.44 C216.52,184.32 216.71,184.03 216.71,183.85 C216.71,183.77 216.67,183.63 216.58,183.41 C215.82,183.35 214.36,183.82 213.57,184.74 C212.37,186.14 211.84,188.40 212.07,190.04 C213.49,189.62 214.42,189.06 214.89,187.85 C215.78,185.56 216.16,183.33 215.90,182.57 C214.83,182.56 214.19,182.96 213.78,184.16 C213.06,186.39 213.43,189.70 214.82,190.59 C215.99,190.53 217.17,189.98 218.09,188.83 C220.02,186.36 219.91,183.97 219.46,183.13 C217.40,184.57 216.22,185.94 215.95,187.60 C215.68,189.21 216.08,190.55 216.92,191.63 C219.53,191.02 220.82,190.33 221.39,188.96 C222.50,186.20 221.65,184.17 220.91,183.29 C218.50,183.51 217.32,183.95 216.85,185.05 C215.92,187.31 216.79,188.95 217.56,189.64 C218.74,189.91 219.96,189.75 221.04,189.04 C223.11,187.64 223.83,185.31 223.83,184.02 C222.19,182.86 221.07,182.73 219.88,183.83 C217.68,185.90 217.11,188.09 217.17,189.56 C219.26,190.89 220.63,191.11 222.19,190.02 C225.31,187.82 226.26,185.43 226.33,184.27 C224.41,183.01 223.01,182.74 221.49,183.65 C218.59,185.45 217.21,188.40 216.76,190.20 C216.76,190.20 219.03,191.94 219.03,191.94 C220.58,190.94 222.15,189.49 222.95,188.08 C223.73,186.68 223.98,184.72 223.61,183.79 C223.36,183.31 221.92,182.69 221.06,182.82 C219.92,183.00 217.37,184.06 216.42,184.60 C217.76,183.02 221.11,181.39 223.86,181.11 C229.47,180.65 234.85,184.11 235.67,184.80 C235.67,184.80 222.54,180.68 222.54,180.68 C229.44,183.85 231.52,185.94 232.96,187.68 C232.96,187.68 227.72,183.38 227.72,183.38 C227.72,183.38 233.66,185.62 233.66,185.62 C232.84,186.38 224.43,187.96 222.23,189.41 C222.01,189.56 221.88,189.76 221.84,190.02 C221.84,190.02 229.67,187.17 229.67,187.17 C226.59,187.29 222.21,188.80 220.17,190.03 C218.54,191.05 216.29,193.95 215.82,194.63 C215.36,193.33 215.34,191.47 216.00,189.41 C216.28,188.55 219.09,181.66 219.42,180.66 C218.47,180.26 217.28,180.64 215.71,181.98 C212.00,185.20 208.71,192.43 209.30,192.88 C210.80,190.75 212.57,187.05 214.04,184.32 C214.79,182.98 216.71,180.80 218.09,179.88 C219.35,179.06 222.09,178.73 223.52,179.06 C225.14,179.51 229.60,183.16 230.78,184.13 C226.59,183.54 223.45,183.26 220.93,183.75 C220.20,183.91 217.66,184.86 217.03,185.37 C215.71,186.50 213.88,188.98 213.26,190.54 C212.70,192.06 212.98,193.96 213.97,194.57 C214.73,194.99 218.05,195.29 219.18,195.10 C221.95,194.56 225.63,190.64 226.71,188.61 C227.84,186.59 228.69,185.69 229.93,185.64 C230.53,185.63 233.81,186.33 235.42,186.66 C235.42,186.66 235.39,186.13 235.39,186.13" fill="none" stroke="rgb(230, 0, 19)" stroke-width="5.39" stroke-opacity="1.00" stroke-linejoin="round"/>
<path d="M263.36,174.19 C263.36,174.19 263.96,173.34 263.96,173.34 C263.86,173.05 260.00,171.18 257.62,174.82 C256.95,175.87 256.58,177.70 256.82,178.42 C257.14,179.11 258.99,180.27 260.44,180.47 C261.10,180.55 275.73,177.93 279.30,177.50 C275.93,176.85 269.20,175.62 265.84,175.04 C263.59,174.58 259.36,173.85 257.79,174.98 C257.50,175.19 257.00,175.68 256.28,176.44 C257.03,177.44 258.34,178.85 259.16,179.23 C260.54,179.85 268.34,179.39 270.13,178.96 C272.90,178.26 274.41,177.15 275.15,176.31 C274.78,174.57 274.15,173.66 272.69,173.22 C270.08,172.45 264.78,172.42 262.35,173.00 C261.16,173.29 260.43,173.74 259.74,174.46 C260.01,176.23 260.60,177.23 261.91,177.72 C264.26,178.57 269.38,179.28 273.26,179.17 C277.08,178.99 278.59,178.21 280.40,176.81 C279.36,174.74 278.39,173.77 276.56,173.33 C272.92,172.48 266.45,172.51 263.69,173.43 C262.21,173.96 260.32,175.25 259.62,176.17 C259.01,177.02 258.96,178.05 259.26,179.19 C260.30,180.14 261.54,180.84 263.00,181.08 C266.08,181.56 273.32,180.32 275.70,179.06 C276.90,178.41 277.65,177.46 277.90,176.58 C277.49,175.61 276.57,174.74 275.19,174.36 C268.01,172.44 263.88,175.64 263.28,176.56 C263.37,177.54 263.91,178.56 264.96,179.23 C267.03,180.52 272.24,180.91 274.65,180.06 C274.94,178.27 274.42,177.19 272.55,176.74 C263.68,174.69 259.23,178.72 258.92,179.59 C259.51,180.40 260.65,180.94 262.31,180.98 C265.00,181.02 270.50,179.34 272.15,178.01 C271.21,176.63 270.13,176.09 267.85,176.11 C263.78,176.16 260.96,176.99 259.58,177.63 C260.02,179.51 260.78,180.37 262.74,180.67 C267.03,181.30 272.38,180.45 273.88,179.07 C272.23,177.28 270.76,176.52 268.51,176.58 C266.33,176.64 264.73,176.95 263.22,177.50 C264.18,178.87 265.27,179.41 267.52,179.42 C271.45,179.41 273.26,178.65 274.10,177.97 C273.37,176.71 272.15,176.06 270.16,176.11 C264.04,176.27 260.82,178.51 259.48,179.72" fill="none" stroke="rgb(230, 0, 19)" stroke-width="5.39" stroke-opacity="1.00" stroke-linejoin="round"/>
<path d="M239.06,201.32 C239.11,201.32 239.19,201.24 239.28,201.08 C239.37,200.92 239.60,200.47 239.98,199.71 C239.98,199.71 241.27,202.39 241.27,202.39 C242.21,201.04 242.29,199.82 241.32,199.03 C241.13,198.87 240.81,198.72 240.36,198.57 C240.36,198.57 241.19,200.23 241.19,200.23 C241.19,200.23 240.88,198.07 240.88,198.07 C240.88,198.07 241.12,199.81 241.12,199.81" fill="none" stroke="rgb(230, 0, 19)" stroke-width="5.39" stroke-opacity="1.00" stroke-linejoin="round"/>
<path d="M225.57,268.08 C225.57,268.08 226.88,265.78 226.88,265.78 C226.88,265.78 227.23,265.76 227.23,265.76 C229.04,269.29 236.85,278.09 240.38,282.84 C241.78,284.72 251.01,297.21 252.24,298.05 C253.68,298.97 256.06,299.72 257.63,299.64 C259.24,299.50 261.79,298.27 262.89,297.01 C264.86,294.67 267.47,287.97 268.05,285.26 C269.03,280.52 268.93,268.26 268.51,265.10 C268.51,265.10 268.36,265.11 268.36,265.11 C268.36,265.11 268.23,265.52 268.23,265.52" fill="none" stroke="rgb(230, 0, 19)" stroke-width="5.39" stroke-opacity="1.00" stroke-linejoin="round"/>
<path d="M253.54,305.31 C253.54,305.31 254.05,303.00 254.05,303.00 C253.37,304.87 248.20,321.17 246.02,326.85 C244.13,331.60 241.28,336.93 240.11,337.62 C238.70,338.41 236.47,338.71 234.46,338.45 C233.39,338.29 229.33,337.88 228.71,337.75 C226.79,337.31 223.31,335.86 221.91,334.80 C220.54,333.70 218.73,331.24 218.37,329.82 C217.51,326.15 216.40,278.40 216.71,272.40 C216.98,267.55 217.90,261.69 217.90,261.69 C217.90,261.69 217.89,262.03 217.89,262.03" fill="none" stroke="rgb(230, 0, 19)" stroke-width="5.39" stroke-opacity="1.00" stroke-linejoin="round"/>
<path d="M253.40,303.54 C253.40,303.54 252.61,301.61 252.61,301.61 C252.62,301.73 252.82,302.08 253.57,303.30 C256.76,308.46 265.74,321.72 266.99,324.38 C268.37,327.43 272.06,343.81 272.80,345.24 C272.80,345.24 274.62,343.67 274.62,343.67" fill="none" stroke="rgb(230, 0, 19)" stroke-width="5.39" stroke-opacity="1.00" stroke-linejoin="round"/>
<path d="M275.94,268.50 C276.14,267.75 276.25,267.28 276.28,267.06 C276.30,266.91 276.19,266.11 276.21,265.87 C278.73,266.72 282.93,270.01 284.97,271.81 C290.63,276.90 303.24,291.59 305.30,293.65 C305.22,293.42 305.17,293.27 305.14,293.21 C305.12,293.14 305.08,293.08 305.03,293.01" fill="none" stroke="rgb(230, 0, 19)" stroke-width="5.39" stroke-opacity="1.00" stroke-linejoin="round"/>
<path d="M298.19,285.17 C298.19,285.17 298.06,284.68 298.06,284.68 C298.20,285.01 298.12,286.38 297.81,287.74 C297.56,288.87 290.70,304.80 287.77,311.18 C284.85,317.26 279.80,325.88 274.22,336.57 C271.37,342.18 268.84,348.23 268.33,349.04 C268.33,349.04 268.32,348.03 268.32,348.03" fill="none" stroke="rgb(230, 0, 19)" stroke-width="5.39" stroke-opacity="1.00" stroke-linejoin="round"/>
<path d="M202.73,266.81 C202.73,266.81 203.00,266.28 203.00,266.28" fill="none" stroke="rgb(230, 0, 19)" stroke-width="5.39" stroke-opacity="1.00" stroke-linejoin="round"/>
<path d="M204.63,263.92 C204.63,263.92 204.24,264.31 204.24,264.31 C204.24,264.31 204.21,264.17 204.21,264.17 C203.84,264.08 203.30,264.11 201.96,264.36 C197.10,265.26 180.66,269.77 176.55,272.42 C173.48,274.43 159.28,285.89 153.56,291.44 C149.77,295.19 146.63,298.78 145.26,301.40 C142.73,306.48 140.53,311.34 139.33,315.69 C139.00,316.92 136.96,326.58 136.60,330.24 C136.27,333.68 136.16,348.15 135.39,352.04 C135.39,352.04 135.59,352.12 135.59,352.12 C135.59,352.12 135.91,351.84 135.91,351.84" fill="none" stroke="rgb(230, 0, 19)" stroke-width="5.39" stroke-opacity="1.00" stroke-linejoin="round"/>
<path d="M155.04,316.83 C155.04,316.83 154.93,315.91 154.93,315.91 C154.83,315.89 151.25,317.82 146.82,324.49 C143.92,329.13 139.88,340.64 138.57,346.35 C137.77,349.87 135.70,368.23 135.45,372.69 C135.04,380.15 135.89,394.26 136.78,398.18 C137.89,402.87 142.60,411.52 144.63,419.89 C145.47,423.48 147.39,431.48 148.26,433.58 C148.67,434.56 150.33,436.51 151.53,437.70 C153.67,439.75 157.39,440.47 157.70,440.34" fill="none" stroke="rgb(230, 0, 19)" stroke-width="5.39" stroke-opacity="1.00" stroke-linejoin="round"/>
<path d="M201.81,365.36 C201.81,365.36 202.00,365.36 202.00,365.36 C202.30,365.16 202.47,364.60 202.64,362.96 C203.37,355.87 202.88,349.89 200.96,340.90 C199.95,336.37 198.41,332.16 196.82,329.11 C195.11,325.90 190.43,321.85 187.83,321.33 C186.19,321.06 184.16,322.14 182.99,323.78 C181.01,326.69 178.63,335.07 175.77,346.79 C172.54,359.39 170.92,366.33 170.44,372.00 C170.27,374.08 170.32,375.44 170.55,376.70 C170.55,376.70 171.36,377.29 171.36,377.29 C171.36,377.29 172.70,375.79 172.70,375.79" fill="none" stroke="rgb(230, 0, 19)" stroke-width="5.39" stroke-opacity="1.00" stroke-linejoin="round"/>
<path d="M187.40,316.97 C187.40,316.97 187.51,315.76 187.51,315.76 C187.51,315.76 186.46,315.45 186.46,315.45 C183.52,316.61 180.25,318.98 178.69,320.83 C175.79,324.35 171.60,335.63 170.02,343.21 C168.71,349.53 168.54,358.17 169.94,363.54 C172.01,371.57 173.07,388.31 172.94,392.26 C172.89,393.67 172.42,400.61 172.50,405.05 C172.86,417.34 174.18,428.43 174.52,433.34 C174.72,436.56 174.81,440.62 174.82,440.80" fill="none" stroke="rgb(230, 0, 19)" stroke-width="5.39" stroke-opacity="1.00" stroke-linejoin="round"/>
<path d="M147.91,443.70 C147.91,443.70 150.24,440.80 150.24,440.80 C150.29,442.60 144.69,489.56 144.57,491.45 C144.34,495.12 144.62,515.40 145.87,520.37 C147.17,525.36 156.83,548.09 159.19,550.69 C162.77,554.13 166.83,558.05 167.72,558.81 C167.72,558.81 169.04,555.98 169.04,555.98" fill="none" stroke="rgb(230, 0, 19)" stroke-width="5.39" stroke-opacity="1.00" stroke-linejoin="round"/>
<path d="M179.98,443.91 C179.22,445.40 178.21,451.05 177.62,454.23 C176.66,459.88 175.95,472.37 175.74,478.60 C175.60,486.50 175.87,498.70 176.31,503.75 C176.90,510.40 179.42,525.33 179.83,530.01 C180.15,533.88 178.58,550.88 178.55,551.07 C178.28,552.50 172.51,557.59 172.02,560.24 C171.85,561.35 172.47,563.33 173.17,564.21 C174.31,565.58 177.65,567.83 178.54,568.42 C178.75,568.56 179.00,568.71 179.29,568.88 C179.29,568.88 179.21,568.80 179.21,568.80" fill="none" stroke="rgb(230, 0, 19)" stroke-width="5.39" stroke-opacity="1.00" stroke-linejoin="round"/>
<path d="M258.82,371.15 C259.16,370.68 259.50,370.22 259.85,369.75 C259.97,369.58 260.03,369.48 260.02,369.44 C259.98,369.32 259.92,369.19 259.87,369.07 C259.87,369.07 248.02,371.64 248.02,371.64 C250.69,370.95 256.42,369.50 260.06,368.89 C263.71,368.30 265.53,368.77 266.51,369.40 C267.33,370.93 266.37,375.19 264.63,378.29 C262.81,381.43 257.94,386.04 255.60,386.80 C254.38,387.16 252.12,387.06 251.38,386.57 C250.48,385.90 249.77,383.68 249.97,381.94 C250.29,379.44 252.23,374.39 254.15,370.91 C255.45,368.56 256.75,367.33 258.82,366.25 C258.82,366.25 259.70,367.30 259.70,367.30" fill="none" stroke="rgb(230, 0, 19)" stroke-width="5.39" stroke-opacity="1.00" stroke-linejoin="round"/>
<path d="M257.48,406.05 C257.67,405.96 257.80,405.89 257.85,405.84 C258.01,405.70 258.55,403.77 258.65,403.80 C258.67,403.95 258.46,404.71 258.08,405.50 C258.06,405.54 253.68,414.41 252.21,418.71 C250.55,423.62 249.14,430.09 249.21,432.09 C249.27,433.14 250.11,434.48 250.90,434.88 C252.38,435.52 257.41,434.17 259.97,432.37 C262.53,430.52 265.65,426.32 266.52,423.86 C266.87,422.73 265.90,420.59 264.47,419.05 C264.14,418.71 257.90,415.37 252.32,412.30 C246.75,409.24 245.98,408.87 244.94,408.49 C244.94,408.49 244.99,408.76 244.99,408.76" fill="none" stroke="rgb(230, 0, 19)" stroke-width="5.39" stroke-opacity="1.00" stroke-linejoin="round"/>
<path d="M261.79,447.02 C261.79,446.13 261.95,444.84 261.92,444.38 C261.91,444.20 261.84,443.95 261.72,443.63 C260.66,443.32 257.56,445.59 254.77,448.35 C252.34,450.84 244.55,464.19 243.24,468.24 C242.84,469.53 242.39,472.14 242.51,473.24 C242.64,474.39 243.66,475.82 244.34,476.09 C245.71,476.52 250.08,475.40 252.44,473.88 C255.49,471.87 260.34,466.64 261.20,463.52 C261.63,461.79 261.13,458.33 260.21,456.83 C259.39,455.56 257.45,454.02 256.03,453.30 C253.28,452.02 250.49,451.90 249.72,452.16" fill="none" stroke="rgb(230, 0, 19)" stroke-width="5.39" stroke-opacity="1.00" stroke-linejoin="round"/>
<path d="M254.02,482.56 C254.02,482.56 254.77,482.94 254.77,482.94 C254.98,483.40 255.63,484.93 255.88,485.36 C256.30,486.08 257.52,488.18 257.59,489.19 C257.78,492.31 253.35,510.33 252.72,514.04 C251.57,520.86 251.40,533.80 252.22,539.90 C252.82,544.24 253.40,546.25 253.97,547.62 C253.97,547.62 254.65,545.83 254.65,545.83" fill="none" stroke="rgb(230, 0, 19)" stroke-width="5.39" stroke-opacity="1.00" stroke-linejoin="round"/>
<path d="M169.74,425.76 C170.30,425.44 171.06,424.70 171.38,424.47 C171.57,424.35 171.97,424.14 172.57,423.87 C173.69,424.07 176.37,427.50 177.83,430.05 C180.96,435.56 184.75,447.55 185.79,453.87 C188.02,467.66 189.06,491.71 190.54,509.81 C190.86,513.43 191.60,521.01 192.06,523.64 C192.86,528.10 195.07,535.90 194.85,537.49 C194.53,539.43 191.30,544.65 189.45,546.28 C188.89,546.76 188.24,547.28 187.50,547.83 C186.46,548.59 184.44,549.92 184.05,550.24 C182.27,551.65 181.44,553.03 181.38,554.44 C182.18,555.30 184.35,555.49 189.88,555.49 C190.68,555.48 211.53,554.78 219.67,554.47 C229.38,553.94 256.87,550.11 275.66,548.64 C313.52,546.11 344.76,547.80 347.35,547.61 C351.09,547.33 352.06,546.47 352.27,546.09 C352.27,546.09 352.22,545.72 352.22,545.72" fill="none" stroke="rgb(230, 0, 19)" stroke-width="5.39" stroke-opacity="1.00" stroke-linejoin="round"/>
<path d="M340.84,454.44 C340.93,454.14 340.98,453.86 340.98,453.60 C340.99,453.33 340.96,452.72 340.89,451.75 C340.89,451.75 339.86,451.12 339.86,451.12 C338.24,452.00 336.67,456.78 336.15,459.84 C335.50,463.91 335.03,470.16 335.68,473.31 C335.84,474.04 337.87,481.45 338.11,483.79 C338.45,487.30 338.93,504.15 339.26,510.35 C339.78,517.81 345.02,542.87 345.49,544.61 C345.49,544.61 346.07,539.71 346.07,539.71" fill="none" stroke="rgb(230, 0, 19)" stroke-width="5.39" stroke-opacity="1.00" stroke-linejoin="round"/>
<path d="M336.67,450.13 C336.86,449.51 336.94,449.06 336.91,448.77 C336.83,448.04 336.06,446.69 335.70,446.32 C338.16,447.30 339.33,448.85 341.68,454.20 C352.35,480.33 356.44,492.90 357.12,493.98 C357.12,493.98 357.28,491.10 357.28,491.10" fill="none" stroke="rgb(230, 0, 19)" stroke-width="5.39" stroke-opacity="1.00" stroke-linejoin="round"/>
<path d="M280.68,259.36 C280.14,259.27 278.42,258.75 278.33,258.75 C276.42,258.57 271.11,260.73 270.94,260.93 C274.38,260.71 283.93,260.09 285.99,259.91 C289.78,259.56 297.89,258.16 298.73,258.01" fill="none" stroke="rgb(230, 0, 19)" stroke-width="5.39" stroke-opacity="1.00" stroke-linejoin="round"/>
<path d="M331.76,255.40 C331.75,255.45 331.70,255.48 331.62,255.50 C330.93,255.72 330.56,255.98 329.92,256.71 C331.78,257.37 333.22,257.50 335.90,257.10 C343.35,256.02 347.65,255.52 350.94,255.46 C354.26,255.42 359.00,255.98 365.19,257.05 C369.25,257.81 372.77,259.42 375.04,261.19 C378.40,263.90 390.01,278.90 391.63,281.47 C394.79,286.59 399.59,303.33 400.81,309.34 C401.95,315.03 403.36,327.66 405.22,337.48 C406.24,343.00 405.78,355.72 405.59,361.45 C405.54,363.23 405.47,363.95 405.33,364.47 C405.33,364.47 405.09,362.24 405.09,362.24" fill="none" stroke="rgb(230, 0, 19)" stroke-width="5.39" stroke-opacity="1.00" stroke-linejoin="round"/>
<path d="M355.49,269.32 C355.49,269.32 355.31,269.41 355.31,269.41 C355.31,269.41 354.53,265.33 354.53,265.33 C354.53,265.33 355.04,265.25 355.04,265.25 C355.42,266.88 355.40,276.28 355.51,277.84 C355.78,281.74 357.70,287.72 359.03,290.30 C360.05,292.22 363.26,295.82 367.54,300.28 C370.40,303.31 372.44,306.69 374.02,310.16 C376.21,315.21 388.81,341.97 389.39,342.58 C389.39,342.58 388.63,338.57 388.63,338.57" fill="none" stroke="rgb(230, 0, 19)" stroke-width="5.39" stroke-opacity="1.00" stroke-linejoin="round"/>
<path d="M338.40,265.79 C338.40,265.79 337.48,264.69 337.48,264.69 C337.48,264.69 337.54,263.75 337.54,263.75 C338.56,263.53 339.38,263.91 340.44,265.31 C342.72,268.31 366.92,302.30 375.31,313.30 C379.05,318.20 382.38,324.51 384.47,329.03 C385.54,331.29 386.28,332.47 386.55,332.48" fill="none" stroke="rgb(230, 0, 19)" stroke-width="5.39" stroke-opacity="1.00" stroke-linejoin="round"/>
<path d="M400.85,369.07 C400.85,369.07 401.97,366.72 401.97,366.72 C401.97,366.72 403.46,366.57 403.46,366.57 C404.61,368.70 407.97,383.22 408.67,389.91 C409.29,396.10 408.96,409.24 407.74,418.87 C406.61,427.27 404.22,444.87 403.33,447.32 C401.45,452.42 395.81,465.71 393.61,472.80 C391.21,480.59 389.00,496.96 388.99,497.02 C387.56,501.83 382.57,516.47 382.00,516.81 C381.67,515.03 381.68,509.56 381.69,506.67 C381.69,506.30 381.70,505.93 381.70,505.56" fill="none" stroke="rgb(230, 0, 19)" stroke-width="5.39" stroke-opacity="1.00" stroke-linejoin="round"/>
<path d="M379.73,475.88 C379.77,475.19 379.82,474.67 379.87,474.33 C379.97,473.62 380.33,471.83 380.36,471.45 C379.90,478.04 378.80,495.85 378.88,500.11 C378.96,503.21 379.86,512.51 379.87,514.19 C379.88,516.21 377.09,534.74 376.81,541.00 C376.81,541.00 377.04,540.24 377.04,540.24" fill="none" stroke="rgb(230, 0, 19)" stroke-width="5.39" stroke-opacity="1.00" stroke-linejoin="round"/>
<path d="M347.09,552.60 C347.09,552.60 347.49,552.41 347.49,552.41 C347.49,552.41 347.51,551.99 347.51,551.99 C347.51,551.99 347.30,551.83 347.30,551.83 C346.13,552.08 345.68,555.24 345.69,561.62 C345.64,570.87 344.86,584.03 345.35,587.11 C347.20,597.19 348.53,611.01 349.54,615.00 C350.27,617.77 352.57,623.65 354.61,628.14 C356.62,632.62 357.44,635.21 358.14,639.31 C359.17,645.61 360.84,655.99 363.06,664.22 C365.35,672.34 370.25,689.83 370.45,692.94 C370.99,702.28 370.26,727.34 370.07,733.35 C370.07,733.35 369.33,729.10 369.33,729.10" fill="none" stroke="rgb(230, 0, 19)" stroke-width="5.39" stroke-opacity="1.00" stroke-linejoin="round"/>
<path d="M179.80,556.84 C179.80,556.84 178.26,556.42 178.26,556.42 C178.26,556.42 179.48,555.09 179.48,555.09 C178.65,558.78 177.92,563.70 177.74,567.35 C177.48,573.09 178.34,585.17 179.30,594.01 C180.37,602.09 187.47,639.93 189.08,650.57 C189.98,657.49 191.43,672.01 191.93,679.54 C192.25,687.39 193.20,705.96 193.75,711.25 C195.06,722.20 196.51,731.41 198.50,737.85 C199.99,742.62 201.14,746.05 202.10,746.92 C202.10,746.92 203.47,744.77 203.47,744.77" fill="none" stroke="rgb(230, 0, 19)" stroke-width="5.39" stroke-opacity="1.00" stroke-linejoin="round"/>
<path d="M252.78,608.05 C252.28,609.26 252.52,615.04 252.22,617.17 C252.14,617.73 250.19,626.26 249.87,629.77 C249.75,631.13 249.35,640.91 249.40,641.61 C249.59,644.32 250.11,646.01 250.75,646.31 C250.75,646.31 252.00,645.72 252.00,645.72" fill="none" stroke="rgb(230, 0, 19)" stroke-width="5.39" stroke-opacity="1.00" stroke-linejoin="round"/>
<path d="M263.09,606.90 C263.68,608.91 263.84,610.23 263.48,611.49 C262.55,614.75 255.52,632.84 254.21,636.94 C250.05,649.99 247.63,669.32 247.15,673.27 C247.15,673.27 250.62,662.82 250.62,662.82" fill="none" stroke="rgb(230, 0, 19)" stroke-width="5.39" stroke-opacity="1.00" stroke-linejoin="round"/>
<path d="M255.39,645.00 C255.38,644.94 255.40,645.12 255.40,645.17 C255.67,648.35 254.90,664.07 254.96,674.45 C255.38,689.27 257.78,717.29 257.86,719.91 C257.86,719.91 257.94,714.43 257.94,714.43" fill="none" stroke="rgb(230, 0, 19)" stroke-width="5.39" stroke-opacity="1.00" stroke-linejoin="round"/>
<path d="M256.66,621.26 C255.56,619.03 255.03,617.60 254.75,615.99 C254.46,614.38 254.37,613.46 254.35,612.43" fill="none" stroke="rgb(230, 0, 19)" stroke-width="5.39" stroke-opacity="1.00" stroke-linejoin="round"/>
<path d="M256.59,606.22 C256.78,606.05 256.92,605.91 257.03,605.78 C257.15,605.64 257.38,605.34 257.72,604.88 C260.18,605.97 261.43,606.89 262.33,608.57 C270.03,623.28 274.56,637.46 275.59,641.45 C276.11,643.51 276.98,644.98 278.89,647.37 C278.89,647.37 280.37,645.95 280.37,645.95" fill="none" stroke="rgb(230, 0, 19)" stroke-width="5.39" stroke-opacity="1.00" stroke-linejoin="round"/>
<path d="M282.38,595.69 C282.09,596.02 281.94,596.35 281.93,596.70 C282.10,610.53 281.23,639.72 281.97,656.62 C282.44,663.88 283.34,673.99 283.82,674.77 C283.82,674.77 285.48,672.46 285.48,672.46" fill="none" stroke="rgb(230, 0, 19)" stroke-width="5.39" stroke-opacity="1.00" stroke-linejoin="round"/>
<path d="M288.31,655.03 C288.30,655.27 288.33,655.56 288.38,655.89 C289.33,661.42 291.94,671.40 295.46,682.02 C300.65,697.40 314.65,739.66 314.73,739.88 C316.29,743.75 317.19,744.95 318.00,745.67 C318.00,745.67 318.34,745.14 318.34,745.14 C318.34,745.14 318.12,743.64 318.12,743.64" fill="none" stroke="rgb(230, 0, 19)" stroke-width="5.39" stroke-opacity="1.00" stroke-linejoin="round"/>
<path d="M321.59,263.31 C321.47,263.29 321.37,263.25 321.31,263.21 C321.24,263.17 321.10,263.06 320.91,262.88 C320.91,262.88 321.01,262.95 321.01,262.95 C319.76,267.40 317.89,284.61 317.28,292.40 C316.71,303.15 316.68,330.02 316.74,336.96 C316.60,321.86 316.15,281.73 315.79,277.04 C315.23,270.35 313.97,261.94 313.61,260.90 C313.08,264.46 312.27,306.98 312.12,323.27 C312.30,339.86 314.41,357.83 315.13,361.59 C315.07,346.71 315.30,317.21 315.58,302.59 C316.15,286.86 317.56,262.90 319.19,252.83 C317.48,262.16 314.58,296.82 313.41,312.75 C312.74,327.37 311.70,360.52 312.31,367.56 C313.26,353.11 315.40,323.31 316.60,307.96 C318.19,291.12 320.52,266.89 321.25,259.49 C320.29,267.66 317.06,304.20 315.64,320.19 C314.51,332.94 313.10,359.80 312.77,375.59 C312.83,392.47 313.33,416.43 313.81,422.43 C313.09,417.16 312.48,377.31 312.78,361.03 C313.04,351.41 313.60,344.19 313.89,342.55 C314.22,342.63 313.62,382.12 313.29,396.97 C313.30,405.97 313.73,418.60 314.80,429.61 C315.68,438.55 315.99,439.42 316.67,440.69 C317.15,440.72 334.45,436.75 341.28,435.21 C351.87,432.83 364.39,429.00 369.77,428.62 C372.83,428.42 378.98,428.79 380.73,428.75 C382.37,428.71 389.88,427.84 391.22,427.04 C392.48,426.24 394.15,421.45 394.32,418.70 C395.75,394.56 396.09,349.31 395.65,347.50 C394.97,347.46 390.55,350.18 387.95,350.77 C384.82,351.42 373.29,351.43 365.43,351.83 C359.81,352.25 347.04,355.15 340.29,356.72 C336.20,357.65 329.67,358.35 325.92,358.74 C320.81,359.26 316.43,360.24 315.75,362.01 C315.45,362.87 314.87,368.43 313.74,372.20 C315.80,373.16 316.96,373.50 318.32,373.30 C331.06,371.56 390.77,364.43 392.79,363.83 C393.16,362.42 391.11,355.95 390.29,353.99 C389.10,351.28 387.48,349.68 385.57,349.43 C384.30,349.30 365.32,352.33 357.00,353.49 C347.43,354.59 323.66,356.60 318.01,358.05 C316.70,358.43 314.97,359.58 314.48,360.62 C314.07,361.56 313.97,366.18 314.18,367.66 C314.37,368.82 315.44,370.16 316.21,370.50 C317.91,371.15 333.58,370.21 341.46,369.71 C368.19,367.88 383.97,365.83 386.14,365.53 C389.59,365.07 395.67,364.54 397.51,363.56 C398.41,360.53 398.49,355.03 397.74,352.71 C397.28,351.42 395.62,350.88 393.62,350.98 C388.17,351.41 377.49,351.35 368.43,352.23 C355.14,353.54 347.93,354.61 342.06,356.18 C341.56,356.31 340.40,356.64 338.59,357.17" fill="none" stroke="rgb(0, 113, 48)" stroke-width="5.39" stroke-opacity="1.00" stroke-linejoin="round"/>
<path d="M196.20,38.24 C196.20,38.24 196.47,38.12 196.47,38.12 C196.47,38.12 196.82,37.34 196.82,37.34 C196.70,37.12 193.43,38.10 188.08,42.43 C182.16,47.34 170.42,56.69 164.70,61.18 C159.94,65.00 150.82,74.89 147.83,78.84 C142.84,85.49 136.48,96.58 133.13,103.80 C130.54,109.47 127.34,118.07 123.91,128.69 C121.12,137.65 118.74,147.92 117.78,155.82 C117.31,159.73 116.77,167.41 116.71,169.09 C116.56,173.46 116.90,177.15 117.55,180.79" fill="none" stroke="rgb(0, 0, 255)" stroke-width="5.39" stroke-opacity="1.00" stroke-linejoin="round"/>
<path d="M169.21,75.33 C169.74,74.63 170.12,74.10 170.33,73.76 C170.55,73.41 170.92,72.75 171.44,71.79 C171.44,71.79 171.07,71.60 171.07,71.60 C168.36,74.30 165.92,78.13 164.21,80.92 C157.36,92.71 144.33,117.20 139.70,128.37 C136.28,136.87 131.96,148.93 129.95,156.30 C127.95,163.69 125.41,177.91 124.69,185.13 C123.13,201.09 124.81,216.57 124.93,217.61" fill="none" stroke="rgb(0, 0, 255)" stroke-width="5.39" stroke-opacity="1.00" stroke-linejoin="round"/>
<path d="M166.81,109.66 C166.81,109.66 165.95,108.29 165.95,108.29 C164.71,108.04 161.97,110.16 160.32,112.39 C157.30,116.54 151.56,127.98 149.57,133.35 C146.78,140.91 142.88,154.09 141.32,162.74 C139.74,171.98 139.69,183.43 140.10,188.65 C140.40,192.22 141.14,196.13 142.09,200.08" fill="none" stroke="rgb(0, 0, 255)" stroke-width="5.39" stroke-opacity="1.00" stroke-linejoin="round"/>
<path d="M191.68,67.98 C191.68,67.98 191.45,64.51 191.45,64.51 C190.65,64.03 189.79,63.76 188.98,63.94 C187.04,64.40 182.51,68.61 180.74,71.02 C177.53,75.45 171.36,88.23 169.21,94.30 C166.72,101.39 164.59,115.14 164.70,120.79 C164.74,122.71 165.23,124.47 166.14,126.67" fill="none" stroke="rgb(0, 0, 255)" stroke-width="5.39" stroke-opacity="1.00" stroke-linejoin="round"/>
<path d="M213.93,22.28 C213.93,22.28 214.06,22.24 214.06,22.24 C210.91,26.10 207.76,29.84 205.69,32.87 C202.23,37.99 196.09,49.41 191.61,58.80 C188.87,64.84 183.25,77.48 181.73,82.92 C180.38,87.90 179.43,92.62 179.17,95.92 C178.95,99.21 179.40,100.64 180.24,102.35" fill="none" stroke="rgb(0, 0, 255)" stroke-width="5.39" stroke-opacity="1.00" stroke-linejoin="round"/>
<path d="M216.26,62.33 C216.26,62.33 214.58,61.20 214.58,61.20 C212.58,61.70 211.40,62.32 210.28,63.69 C206.85,67.92 198.52,82.09 196.34,86.58 C188.69,102.46 186.52,112.65 186.28,114.16" fill="none" stroke="rgb(0, 0, 255)" stroke-width="5.39" stroke-opacity="1.00" stroke-linejoin="round"/>
<path d="M238.51,24.82 C238.51,24.82 237.90,23.63 237.90,23.63 C236.15,24.78 234.11,28.06 232.60,30.93 C227.74,40.26 223.71,48.53 220.94,55.49 C219.53,59.12 217.79,65.11 217.22,68.65 C216.70,72.01 217.00,73.93 217.47,75.64 C217.47,75.64 218.15,76.18 218.15,76.18" fill="none" stroke="rgb(0, 0, 255)" stroke-width="5.39" stroke-opacity="1.00" stroke-linejoin="round"/>
<path d="M257.66,54.06 C255.45,54.08 253.65,54.64 251.75,56.04 C247.85,58.94 240.06,68.85 236.68,74.86 C234.66,78.47 232.11,84.09 230.41,88.63 C228.88,92.82 227.63,97.90 227.16,101.83 C226.30,109.57 227.45,112.23 227.65,112.47" fill="none" stroke="rgb(0, 0, 255)" stroke-width="5.39" stroke-opacity="1.00" stroke-linejoin="round"/>
<path d="M309.87,22.63 C307.92,21.60 306.50,21.26 305.24,21.83 C302.95,22.89 298.29,26.91 295.86,29.66 C291.57,34.55 283.84,45.42 281.17,50.33 C279.66,53.13 276.55,59.63 275.73,62.20 C273.75,68.43 274.22,76.69 275.11,78.22" fill="none" stroke="rgb(0, 0, 255)" stroke-width="5.39" stroke-opacity="1.00" stroke-linejoin="round"/>
<path d="M309.37,53.78 C309.37,53.78 309.59,52.95 309.59,52.95 C307.83,52.63 304.48,54.07 299.00,56.91 C293.31,59.89 282.90,67.52 278.45,72.04 C273.93,76.67 266.78,86.52 264.09,91.60 C261.88,95.84 258.69,105.11 258.27,107.24 C258.10,108.07 258.07,109.05 258.11,110.15" fill="none" stroke="rgb(0, 0, 255)" stroke-width="5.39" stroke-opacity="1.00" stroke-linejoin="round"/>
<path d="M331.91,35.70 C330.17,35.76 328.49,37.71 325.08,42.99 C308.67,68.94 286.49,104.33 284.80,108.37 C283.58,111.33 282.27,115.85 282.53,117.42 C282.53,117.42 282.94,117.84 282.94,117.84" fill="none" stroke="rgb(0, 0, 255)" stroke-width="5.39" stroke-opacity="1.00" stroke-linejoin="round"/>
<path d="M352.82,55.62 C352.82,55.62 353.57,54.69 353.57,54.69 C350.83,55.75 346.67,58.39 344.24,60.34 C338.55,64.94 329.46,74.06 324.23,80.65 C313.59,94.27 312.11,103.20 312.24,104.18" fill="none" stroke="rgb(0, 0, 255)" stroke-width="5.39" stroke-opacity="1.00" stroke-linejoin="round"/>
<path d="M366.88,75.82 C366.88,75.82 367.45,72.81 367.45,72.81 C364.87,73.63 363.36,74.33 361.88,75.54 C356.45,80.01 346.42,90.88 343.47,95.21 C339.06,101.79 334.58,112.48 334.49,114.88" fill="none" stroke="rgb(0, 0, 255)" stroke-width="5.39" stroke-opacity="1.00" stroke-linejoin="round"/>
<path d="M349.92,120.26 C348.45,121.76 348.05,123.14 348.49,125.69 C350.68,138.32 350.23,158.84 349.36,166.93 C348.49,174.28 347.00,183.14 346.77,184.44" fill="none" stroke="rgb(0, 0, 255)" stroke-width="5.39" stroke-opacity="1.00" stroke-linejoin="round"/>
<path d="M333.18,124.21 C333.17,123.41 333.12,122.87 333.05,122.59 C332.98,122.32 332.78,121.92 332.44,121.40 C332.44,121.40 331.73,121.42 331.73,121.42 C331.21,123.81 331.11,125.29 331.49,127.42 C333.32,138.17 334.39,147.50 334.50,152.84 C334.56,156.54 332.55,173.59 331.55,181.50 C331.27,183.47 330.79,186.69 330.61,187.92" fill="none" stroke="rgb(0, 0, 255)" stroke-width="5.39" stroke-opacity="1.00" stroke-linejoin="round"/>
<path d="M332.61,197.40 C331.54,199.57 331.07,200.79 330.44,203.26 C329.48,206.95 326.97,214.02 325.66,217.07 C322.33,224.80 319.07,229.90 318.49,230.70" fill="none" stroke="rgb(0, 0, 255)" stroke-width="5.39" stroke-opacity="1.00" stroke-linejoin="round"/>
<path d="M313.33,186.73 C313.33,186.73 313.40,185.47 313.40,185.47 C313.30,188.55 313.10,191.57 312.63,196.57 C312.24,200.35 311.41,208.33 310.96,212.52 C310.65,215.44 310.13,220.08 309.93,221.81" fill="none" stroke="rgb(0, 0, 255)" stroke-width="5.39" stroke-opacity="1.00" stroke-linejoin="round"/>
<path d="M155.65,135.80 C155.65,135.80 155.74,135.78 155.74,135.78 C155.17,138.69 154.90,140.14 154.55,142.47 C153.56,149.03 152.74,169.05 152.98,175.04 C153.27,181.90 154.96,193.80 155.90,197.13" fill="none" stroke="rgb(0, 0, 255)" stroke-width="5.39" stroke-opacity="1.00" stroke-linejoin="round"/>
<path d="M177.55,131.77 C178.52,128.25 180.56,124.36 182.01,122.37 C182.63,121.53 184.45,119.31 185.48,118.10 C185.79,117.74 186.26,117.20 186.90,116.48 C184.50,119.65 178.50,131.01 175.28,139.04 C172.61,145.88 167.33,160.33 164.80,167.68 C162.36,175.05 160.24,183.86 160.36,187.56 C160.36,187.56 160.94,188.08 160.94,188.08 C160.94,188.08 162.05,187.45 162.05,187.45" fill="none" stroke="rgb(0, 0, 255)" stroke-width="5.39" stroke-opacity="1.00" stroke-linejoin="round"/>
<path d="M209.27,127.18 C209.27,127.18 208.97,125.13 208.97,125.13 C208.00,125.04 203.70,129.64 200.84,133.80 C197.15,139.24 189.71,152.17 185.86,159.74 C176.23,179.09 175.77,184.63 175.82,185.90 C175.82,185.90 177.26,184.51 177.26,184.51" fill="none" stroke="rgb(0, 0, 255)" stroke-width="5.39" stroke-opacity="1.00" stroke-linejoin="round"/>
<path d="M247.34,103.51 C247.34,103.51 247.99,102.73 247.99,102.73 C246.09,105.34 238.23,119.99 235.87,125.66 C232.80,133.09 229.01,146.95 228.92,151.62 C228.88,154.03 229.18,156.03 229.66,157.09" fill="none" stroke="rgb(0, 0, 255)" stroke-width="5.39" stroke-opacity="1.00" stroke-linejoin="round"/>
<path d="M234.77,101.54 C234.77,101.54 235.03,101.11 235.03,101.11 C234.72,100.97 233.56,102.15 232.01,104.27 C230.61,106.18 221.36,122.47 217.63,129.14 C213.70,136.36 206.48,149.78 205.06,155.16 C204.02,159.26 204.01,160.47 204.26,161.66" fill="none" stroke="rgb(0, 0, 255)" stroke-width="5.39" stroke-opacity="1.00" stroke-linejoin="round"/>
<path d="M277.23,97.30 C277.23,97.30 277.88,95.19 277.88,95.19 C276.68,95.37 273.07,99.60 270.98,102.90 C268.11,107.51 262.48,119.33 260.45,124.87 C257.95,131.74 255.79,142.61 255.93,148.99 C256.01,151.85 256.66,156.10 257.74,158.87" fill="none" stroke="rgb(0, 0, 255)" stroke-width="5.39" stroke-opacity="1.00" stroke-linejoin="round"/>
<path d="M291.92,105.70 C291.90,105.56 291.86,105.45 291.80,105.36 C291.74,105.28 291.58,105.11 291.31,104.86 C289.86,104.80 286.04,108.60 284.02,112.06 C281.66,116.24 277.45,130.55 276.86,136.30 C276.04,144.52 276.49,153.15 277.01,155.99" fill="none" stroke="rgb(0, 0, 255)" stroke-width="5.39" stroke-opacity="1.00" stroke-linejoin="round"/>
<path d="M300.47,117.93 C300.47,117.93 300.28,117.19 300.28,117.19 C300.28,117.19 299.89,117.08 299.89,117.08 C302.96,118.37 305.26,120.83 306.20,123.09 C307.11,125.41 308.22,131.22 308.33,134.33 C308.49,139.60 306.50,153.49 304.98,159.86 C304.37,162.38 301.90,171.33 301.01,174.49" fill="none" stroke="rgb(0, 0, 255)" stroke-width="5.39" stroke-opacity="1.00" stroke-linejoin="round"/>
<path d="M153.88,210.96 C153.88,210.96 152.87,211.01 152.87,211.01 C151.54,211.96 150.02,216.98 149.26,221.38 C148.35,226.94 148.01,244.73 148.11,249.21 C148.30,256.06 149.78,266.22 150.55,269.06" fill="none" stroke="rgb(0, 0, 255)" stroke-width="5.39" stroke-opacity="1.00" stroke-linejoin="round"/>
<path d="M144.70,198.74 C144.70,198.74 144.29,194.26 144.29,194.26 C142.26,195.41 141.19,196.33 140.51,197.76 C138.27,202.59 135.20,213.38 134.18,220.31 C133.26,226.83 134.23,243.89 135.23,249.11 C135.74,251.69 136.90,254.38 137.38,255.28" fill="none" stroke="rgb(0, 0, 255)" stroke-width="5.39" stroke-opacity="1.00" stroke-linejoin="round"/>
<path d="M176.21,223.04 C176.21,223.04 174.78,223.24 174.78,223.24 C172.66,226.40 169.09,241.66 168.32,248.88 C167.66,255.24 167.71,271.45 168.40,277.43 C169.52,286.96 171.27,291.50 172.15,293.28" fill="none" stroke="rgb(0, 0, 255)" stroke-width="5.39" stroke-opacity="1.00" stroke-linejoin="round"/>
<path d="M191.39,237.60 C191.39,237.60 192.34,238.00 192.34,238.00" fill="none" stroke="rgb(0, 0, 255)" stroke-width="5.39" stroke-opacity="1.00" stroke-linejoin="round"/>
<path d="M192.24,232.16 C192.24,232.16 192.02,232.20 192.02,232.20 C191.67,232.76 191.45,233.50 190.93,236.07 C188.96,245.95 186.28,254.93 185.38,256.31 C183.87,258.49 181.90,259.96 180.48,259.63 C178.41,259.09 175.43,254.35 174.97,252.12" fill="none" stroke="rgb(0, 0, 255)" stroke-width="5.39" stroke-opacity="1.00" stroke-linejoin="round"/>
<path d="M182.28,240.70 C182.27,242.00 182.25,242.97 182.22,243.63 C182.13,246.71 182.31,248.78 182.91,250.20 C184.19,253.02 189.03,254.34 190.97,254.47" fill="none" stroke="rgb(0, 0, 255)" stroke-width="5.39" stroke-opacity="1.00" stroke-linejoin="round"/>
<path d="M365.46,85.15 C362.50,84.41 361.22,84.26 360.65,84.75 C359.26,86.02 358.18,89.63 357.68,93.55 C357.30,96.66 357.40,103.45 357.83,107.27 C358.16,110.06 359.24,116.41 359.46,117.68" fill="none" stroke="rgb(0, 0, 255)" stroke-width="5.39" stroke-opacity="1.00" stroke-linejoin="round"/>
<path d="M358.40,107.33 C358.40,107.33 357.73,106.82 357.73,106.82 C358.50,111.37 359.91,115.68 361.47,118.76 C366.25,127.95 368.52,134.15 369.92,141.37 C370.32,143.48 370.30,150.19 370.12,151.35 C369.54,155.11 363.98,175.30 361.70,183.33 C360.51,187.55 359.56,191.71 358.85,196.25 C358.85,196.25 359.02,196.37 359.02,196.37 C359.02,196.37 359.27,195.84 359.27,195.84" fill="none" stroke="rgb(0, 0, 255)" stroke-width="5.39" stroke-opacity="1.00" stroke-linejoin="round"/>
<path d="M378.81,96.17 C378.99,95.44 379.10,94.93 379.15,94.66 C379.19,94.38 379.23,93.95 379.26,93.36 C379.26,93.36 378.96,93.45 378.96,93.45 C378.16,98.44 379.95,114.70 380.92,120.16 C382.23,126.76 384.11,136.07 384.68,138.77" fill="none" stroke="rgb(0, 0, 255)" stroke-width="5.39" stroke-opacity="1.00" stroke-linejoin="round"/>
<path d="M385.46,141.73 C385.14,142.54 384.93,143.13 384.81,143.50 C383.75,146.86 376.63,163.39 374.57,170.30 C373.04,175.58 370.15,187.35 368.30,197.00 C367.14,203.90 364.50,219.22 363.25,224.34 C359.62,239.07 352.69,249.28 349.76,253.06 C347.77,255.74 347.29,256.93 347.41,257.17" fill="none" stroke="rgb(0, 0, 255)" stroke-width="5.39" stroke-opacity="1.00" stroke-linejoin="round"/>
<path d="M344.69,213.01 C343.53,213.90 341.43,223.20 337.86,235.13 C336.89,238.40 335.59,244.32 335.03,247.85 C334.08,254.26 336.19,259.81 336.38,259.86" fill="none" stroke="rgb(0, 0, 255)" stroke-width="5.39" stroke-opacity="1.00" stroke-linejoin="round"/>
<path d="M315.73,233.43 C314.32,234.93 313.47,235.92 313.18,236.40 C312.74,237.14 312.68,239.66 312.65,240.58" fill="none" stroke="rgb(0, 0, 255)" stroke-width="5.39" stroke-opacity="1.00" stroke-linejoin="round"/>
<path d="M381.00,156.92 C381.00,156.92 381.94,155.27 381.94,155.27 C382.22,155.31 384.56,162.16 385.08,177.21 C385.26,182.87 384.20,194.18 382.85,202.29 C382.06,206.81 377.83,225.23 376.04,232.78 C375.72,234.04 375.20,236.06 375.01,236.81" fill="none" stroke="rgb(0, 0, 255)" stroke-width="5.39" stroke-opacity="1.00" stroke-linejoin="round"/>
</g>
</svg>
