<?xml version="1.0" encoding="UTF-8" standalone="no"?>
<!DOCTYPE svg PUBLIC "-//W3C//DTD SVG 1.1//EN" "http://www.w3.org/Graphics/SVG/1.1/DTD/svg11.dtd">
<svg width="128.40" height="181.68" viewBox="0.00 0.00 535.00 757.00" xmlns="http://www.w3.org/2000/svg" xmlns:xlink="http://www.w3.org/1999/xlink">
<g stroke-linecap="round" id="96">
<path d="M97.29,95.49 C97.15,94.95 97.04,94.63 96.81,94.16 C96.77,94.09 96.75,94.04 96.73,93.98 C96.73,93.98 96.91,93.87 96.91,93.87 C100.25,94.67 104.20,95.75 106.46,96.71 C109.81,98.19 114.84,101.68 117.19,104.26 C119.33,106.68 121.66,110.79 123.55,115.13 C124.69,117.82 127.19,132.51 127.99,137.35 C127.99,137.35 128.11,136.42 128.11,136.42" fill="none" stroke="rgb(0, 0, 255)" stroke-width="3.63" stroke-opacity="1.00" stroke-linejoin="round"/>
<path d="M148.50,99.00 C148.50,99.00 144.93,99.00 144.93,99.00 C145.00,98.89 150.00,100.19 152.43,101.16 C154.58,102.04 159.45,105.09 162.53,107.35 C165.13,109.27 169.22,113.13 170.83,115.53 C174.40,120.93 179.56,133.42 178.82,134.63 C178.82,134.63 178.39,134.87 178.39,134.87 C178.39,134.87 177.97,134.67 177.97,134.67" fill="none" stroke="rgb(0, 0, 255)" stroke-width="3.63" stroke-opacity="1.00" stroke-linejoin="round"/>
<path d="M195.72,101.10 C195.72,101.10 195.59,101.48 195.59,101.48 C195.58,101.49 195.61,101.46 195.62,101.45 C196.11,100.86 197.21,99.59 197.86,98.89 C199.67,96.97 203.36,94.25 205.87,93.29 C207.17,92.84 210.26,92.74 211.89,93.24 C214.53,94.10 218.60,98.55 219.00,99.26 C219.82,100.75 221.75,106.81 222.65,109.68 C223.74,113.29 225.62,117.38 226.59,117.43 C226.77,117.43 227.18,117.35 227.82,117.17" fill="none" stroke="rgb(0, 0, 255)" stroke-width="3.63" stroke-opacity="1.00" stroke-linejoin="round"/>
<path d="M241.18,85.67 C241.18,85.67 240.04,85.62 240.04,85.62 C240.04,85.62 239.52,86.17 239.52,86.17 C240.03,86.63 246.83,89.00 248.31,90.00 C249.60,90.91 253.01,95.07 253.51,96.22 C254.22,97.93 256.92,111.94 258.72,116.44 C259.97,119.46 263.60,124.27 265.28,125.35 C265.54,125.51 265.95,125.64 266.51,125.73" fill="none" stroke="rgb(0, 0, 255)" stroke-width="3.63" stroke-opacity="1.00" stroke-linejoin="round"/>
<path d="M279.20,88.05 C278.72,88.41 277.94,88.99 277.86,89.13 C277.81,89.21 277.69,89.45 277.50,89.85 C277.50,91.07 280.70,94.66 283.66,96.77 C284.66,97.48 295.27,104.46 295.61,104.71 C297.03,105.74 298.44,107.75 298.95,109.45 C299.41,111.09 298.84,116.43 298.10,118.37 C297.97,118.72 297.65,119.46 297.14,120.61 C297.23,120.55 297.34,120.11 297.49,119.98 C298.46,119.12 306.20,116.10 309.89,114.88" fill="none" stroke="rgb(0, 0, 255)" stroke-width="3.63" stroke-opacity="1.00" stroke-linejoin="round"/>
<path d="M318.21,108.26 C318.21,108.26 317.58,107.81 317.58,107.81 C317.58,107.81 318.39,107.50 318.39,107.50 C321.58,109.49 326.06,113.43 328.22,115.82 C330.46,118.34 332.17,121.18 333.63,124.79 C335.01,128.32 335.18,132.06 334.44,134.49 C333.92,136.14 333.04,138.01 332.80,138.15 C332.91,138.05 332.99,137.97 333.04,137.88 C333.95,136.50 337.07,133.54 340.64,130.43" fill="none" stroke="rgb(0, 0, 255)" stroke-width="3.63" stroke-opacity="1.00" stroke-linejoin="round"/>
<path d="M344.51,117.31 C344.58,116.12 344.64,115.37 344.69,115.07 C344.78,114.51 345.13,113.96 345.31,113.76 C345.63,114.41 345.96,115.20 346.63,117.03 C348.42,121.85 349.92,125.43 351.19,127.64 C352.42,129.71 355.88,132.87 358.14,134.87 C359.21,135.91 360.31,137.74 360.50,139.10 C360.67,140.38 360.59,146.26 360.69,146.74 C360.78,147.22 361.09,147.87 361.62,148.70 C362.79,149.25 366.12,148.71 367.39,148.85 C368.58,148.99 369.91,150.83 370.68,152.63 C371.99,155.91 374.02,159.36 376.08,160.79 C378.11,162.16 391.87,176.36 393.98,177.51 C393.98,177.51 394.42,177.09 394.42,177.09 C394.42,177.09 394.38,176.60 394.38,176.60" fill="none" stroke="rgb(0, 0, 255)" stroke-width="3.63" stroke-opacity="1.00" stroke-linejoin="round"/>
<path d="M132.37,177.92 C132.37,177.92 132.17,178.51 132.17,178.51 C132.12,178.89 137.91,178.02 140.56,178.35 C144.14,178.83 150.64,181.05 153.37,182.77 C155.94,184.43 159.94,188.84 161.79,191.80 C163.44,194.47 166.19,200.88 166.66,202.67 C167.89,207.45 173.80,248.87 173.44,249.92 C172.89,251.38 171.30,253.32 170.17,253.91 C168.23,254.85 161.79,256.27 160.47,257.48 C159.90,258.03 156.53,262.47 154.56,266.18 C154.56,266.18 154.84,267.58 154.84,267.58 C157.53,268.55 162.85,268.06 166.02,267.76 C167.45,267.66 171.41,271.39 173.37,274.16 C175.01,276.58 176.47,280.49 177.02,285.19 C177.34,287.98 177.89,290.33 178.55,291.56 C178.98,292.32 185.49,299.14 186.34,299.64 C186.78,299.89 188.33,300.30 189.15,301.15 C189.23,301.24 189.43,302.12 189.33,302.41 C188.99,303.27 186.11,304.64 184.19,304.72 C182.65,304.76 180.98,303.81 180.89,303.05 C180.84,301.08 182.79,298.56 183.88,297.79 C184.19,298.68 184.38,299.22 184.44,299.38 C184.46,299.43 184.53,299.56 184.52,299.51" fill="none" stroke="rgb(229, 0, 80)" stroke-width="3.63" stroke-opacity="1.00" stroke-linejoin="round"/>
<path d="M182.74,300.76 C182.74,300.76 182.98,300.47 182.98,300.47 C182.98,300.47 182.47,299.70 182.47,299.70 C182.47,299.70 181.91,299.81 181.91,299.81 C181.12,301.86 180.69,303.56 180.83,304.69 C180.98,305.82 181.86,307.22 182.73,307.75 C183.47,308.15 186.35,308.49 187.86,308.41 C188.75,308.34 190.10,307.43 190.46,306.86 C190.87,306.11 190.99,304.39 190.69,303.59 C190.44,302.91 189.84,302.30 189.55,302.23" fill="none" stroke="rgb(229, 0, 80)" stroke-width="3.63" stroke-opacity="1.00" stroke-linejoin="round"/>
<path d="M184.42,307.91 C184.42,307.91 184.45,308.74 184.45,308.74 C184.45,308.74 184.70,308.82 184.70,308.82 C184.76,309.73 184.72,310.99 184.54,312.35 C184.17,315.09 182.13,319.67 181.97,320.69 C181.85,321.65 182.12,324.33 182.50,325.53 C183.39,328.23 187.16,331.05 189.90,332.21 C192.60,333.28 206.36,335.75 210.67,335.29 C213.01,335.03 224.06,332.97 225.16,332.80 C227.62,332.45 235.53,332.61 236.26,333.24 C236.83,333.75 236.71,339.47 237.68,342.61 C238.16,344.25 238.12,345.72 237.41,346.79 C237.33,346.92 230.09,356.49 229.14,357.91 C227.01,361.15 224.36,367.20 223.58,369.79 C222.89,372.19 223.68,376.80 224.83,379.43 C226.19,382.49 228.71,386.20 230.61,388.51 C236.13,395.16 239.81,397.01 240.23,397.08 C240.23,397.08 240.41,396.53 240.41,396.53" fill="none" stroke="rgb(229, 0, 80)" stroke-width="3.63" stroke-opacity="1.00" stroke-linejoin="round"/>
<path d="M234.58,386.20 C234.58,386.20 234.65,385.63 234.65,385.63 C234.65,385.57 234.30,386.85 234.02,387.94 C232.54,393.58 227.64,405.82 223.02,413.13 C221.05,416.21 207.10,433.87 205.84,435.00 C205.84,435.00 205.49,435.02 205.49,435.02 C205.49,435.02 205.59,434.34 205.59,434.34" fill="none" stroke="rgb(229, 0, 80)" stroke-width="3.63" stroke-opacity="1.00" stroke-linejoin="round"/>
<path d="M258.50,271.97 C259.78,270.23 260.58,269.18 260.87,268.82 C261.58,267.96 262.69,267.49 263.64,267.42 C264.79,267.39 266.86,267.73 267.97,268.17 C269.14,268.68 270.38,270.15 270.54,271.36 C270.66,272.50 270.11,276.21 269.66,277.67 C268.99,279.70 265.23,283.61 263.50,286.46 C261.71,289.45 261.39,291.06 261.56,291.48 C261.56,291.48 262.55,291.83 262.55,291.83" fill="none" stroke="rgb(229, 0, 80)" stroke-width="3.63" stroke-opacity="1.00" stroke-linejoin="round"/>
<path d="M264.88,288.32 C264.90,288.32 264.92,288.32 264.94,288.32 C264.97,288.32 264.93,288.23 264.83,288.02 C264.83,288.13 268.67,291.03 269.04,292.69 C269.12,293.07 269.16,293.87 269.14,295.07 C268.17,296.29 266.73,297.15 265.27,297.08 C264.00,297.02 262.71,296.33 262.36,295.76 C262.36,295.76 262.37,295.47 262.37,295.47" fill="none" stroke="rgb(229, 0, 80)" stroke-width="3.63" stroke-opacity="1.00" stroke-linejoin="round"/>
<path d="M182.38,244.05 C182.38,244.05 182.11,242.97 182.11,242.97 C182.11,242.97 182.45,243.13 182.45,243.13 C182.71,243.04 186.13,239.13 187.72,238.12 C189.16,237.24 194.17,235.69 197.43,235.65 C198.91,235.63 199.98,236.06 200.47,236.58 C200.47,236.58 200.27,237.58 200.27,237.58" fill="none" stroke="rgb(229, 0, 80)" stroke-width="3.63" stroke-opacity="1.00" stroke-linejoin="round"/>
<path d="M189.89,249.60 C189.89,249.60 190.48,248.53 190.48,248.53 C190.48,248.53 188.08,250.78 188.08,250.78 C188.86,251.70 189.59,252.00 190.60,251.61 C192.74,250.75 193.94,249.23 194.32,248.36 C193.46,247.39 192.75,247.03 192.03,247.63 C190.76,248.70 190.11,249.87 190.32,250.48 C191.70,250.85 192.62,250.76 193.41,250.01 C194.20,249.26 194.62,248.49 194.77,247.71 C193.81,246.96 192.15,247.41 190.90,248.95 C190.65,249.25 190.49,249.65 190.42,250.16 C191.23,251.19 192.81,251.23 194.27,250.06 C194.55,249.83 194.78,249.48 194.95,249.01 C194.95,249.01 194.13,247.88 194.13,247.88 C192.49,247.94 191.49,250.11 191.64,251.09 C191.64,251.09 193.39,250.72 193.39,250.72" fill="none" stroke="rgb(229, 0, 80)" stroke-width="3.63" stroke-opacity="1.00" stroke-linejoin="round"/>
<path d="M187.08,245.25 C187.08,245.25 187.56,243.42 187.56,243.42 C187.56,243.42 188.21,243.10 188.21,243.10 C188.21,243.10 191.04,247.26 191.04,247.26 C191.04,247.26 192.01,247.21 192.01,247.21 C192.01,247.21 192.26,246.81 192.26,246.81" fill="none" stroke="rgb(229, 0, 80)" stroke-width="3.63" stroke-opacity="1.00" stroke-linejoin="round"/>
<path d="M191.64,242.93 C191.64,242.93 191.97,242.68 191.97,242.68 C191.97,242.68 192.24,242.71 192.24,242.71 C192.24,242.71 193.60,247.72 193.60,247.72 C194.00,247.50 194.23,247.35 194.31,247.29 C194.39,247.23 194.41,247.16 194.37,247.10" fill="none" stroke="rgb(229, 0, 80)" stroke-width="3.63" stroke-opacity="1.00" stroke-linejoin="round"/>
<path d="M194.38,241.82 C194.32,241.96 194.27,242.24 194.25,242.66 C194.12,244.48 194.10,245.73 194.16,246.44 C194.21,246.89 194.38,247.24 194.68,247.49 C194.68,247.49 195.25,247.70 195.25,247.70" fill="none" stroke="rgb(229, 0, 80)" stroke-width="3.63" stroke-opacity="1.00" stroke-linejoin="round"/>
<path d="M198.44,243.35 C198.44,243.35 198.86,242.99 198.86,242.99 C198.86,242.99 198.96,243.35 198.96,243.35 C198.96,243.35 194.73,249.98 194.73,249.98 C194.73,249.98 195.75,251.05 195.75,251.05" fill="none" stroke="rgb(229, 0, 80)" stroke-width="3.63" stroke-opacity="1.00" stroke-linejoin="round"/>
<path d="M151.72,182.67 C151.72,182.70 151.72,182.61 151.72,182.57 C151.78,181.27 151.57,179.56 151.61,178.94 C151.70,177.68 154.38,172.65 156.50,169.71 C160.58,164.15 172.74,153.63 177.80,150.73 C178.55,150.32 180.44,149.68 181.25,149.65 C184.03,149.58 184.58,151.50 184.62,152.08" fill="none" stroke="rgb(229, 0, 80)" stroke-width="3.63" stroke-opacity="1.00" stroke-linejoin="round"/>
<path d="M155.93,183.72 C155.93,183.72 154.53,183.16 154.53,183.16 C154.46,181.76 154.84,180.57 156.11,179.06 C160.41,173.97 171.35,166.03 178.39,162.07 C184.87,158.44 199.98,151.17 203.40,150.16 C205.36,149.60 208.72,149.02 210.04,149.12 C213.73,149.44 214.70,151.04 214.80,151.35" fill="none" stroke="rgb(229, 0, 80)" stroke-width="3.63" stroke-opacity="1.00" stroke-linejoin="round"/>
<path d="M159.72,196.56 C159.72,196.56 159.38,196.53 159.38,196.53 C158.64,195.78 159.40,192.12 161.58,189.19 C163.86,186.19 173.16,178.50 179.34,174.66 C187.73,169.52 197.26,164.20 205.07,160.46 C214.29,156.18 223.10,152.53 229.04,151.09 C231.58,150.49 235.71,150.09 236.45,150.56 C236.45,150.56 236.54,150.79 236.54,150.79" fill="none" stroke="rgb(229, 0, 80)" stroke-width="3.63" stroke-opacity="1.00" stroke-linejoin="round"/>
<path d="M172.28,201.68 C171.98,201.04 171.76,199.75 172.21,198.88 C173.42,196.61 178.22,192.61 181.24,190.55 C189.98,184.70 200.52,178.28 206.49,174.84 C213.11,171.21 226.05,164.30 232.03,161.36 C237.99,158.59 252.27,152.85 256.65,152.10 C259.67,151.61 261.81,151.77 262.96,152.03 C262.96,152.03 263.35,152.60 263.35,152.60 C263.35,152.60 263.30,152.92 263.30,152.92" fill="none" stroke="rgb(229, 0, 80)" stroke-width="3.63" stroke-opacity="1.00" stroke-linejoin="round"/>
<path d="M185.82,196.56 C185.82,196.56 185.59,196.13 185.59,196.13 C186.53,194.05 190.04,191.03 192.86,189.25 C198.96,185.44 210.36,179.75 218.57,176.26 C224.39,173.93 235.64,169.78 244.97,166.83 C261.25,161.94 274.90,160.82 277.03,160.97 C279.07,161.12 280.43,161.57 281.18,162.21" fill="none" stroke="rgb(229, 0, 80)" stroke-width="3.63" stroke-opacity="1.00" stroke-linejoin="round"/>
<path d="M188.69,202.24 C188.69,202.24 187.84,202.17 187.84,202.17 C189.55,200.48 201.93,193.30 209.54,189.92 C217.86,186.32 225.93,183.32 234.16,180.67 C242.98,177.98 255.34,174.92 259.56,174.09 C266.41,172.85 279.21,170.81 284.14,170.53 C291.87,170.18 303.78,171.13 306.10,171.85 C306.37,171.93 306.95,172.15 307.85,172.49" fill="none" stroke="rgb(229, 0, 80)" stroke-width="3.63" stroke-opacity="1.00" stroke-linejoin="round"/>
<path d="M160.35,235.85 C160.35,235.85 160.31,236.12 160.31,236.12 C160.31,236.12 160.49,236.33 160.49,236.33 C161.93,235.04 171.58,224.59 177.27,220.19 C181.63,216.83 193.75,208.65 200.69,204.70 C209.01,200.18 219.27,195.17 226.97,191.89 C243.45,185.08 261.13,179.82 267.68,178.37 C270.68,177.72 274.95,177.05 275.82,176.92" fill="none" stroke="rgb(229, 0, 80)" stroke-width="3.63" stroke-opacity="1.00" stroke-linejoin="round"/>
<path d="M184.06,229.95 C184.06,229.95 182.93,230.53 182.93,230.53 C188.26,226.37 201.25,216.43 205.58,213.66 C208.18,212.01 222.12,204.07 228.23,200.83 C234.57,197.68 247.57,191.60 254.31,188.70 C259.42,186.60 278.28,179.63 281.87,178.82 C285.75,177.97 292.18,177.93 292.87,178.91 C292.96,179.06 293.07,179.40 293.19,179.94" fill="none" stroke="rgb(229, 0, 80)" stroke-width="3.63" stroke-opacity="1.00" stroke-linejoin="round"/>
<path d="M217.60,217.82 C217.60,217.82 217.50,217.88 217.50,217.88 C236.40,205.67 254.24,195.28 268.20,189.41 C273.83,187.06 291.19,181.29 295.48,180.62 C296.94,180.39 297.55,180.37 298.38,180.44" fill="none" stroke="rgb(229, 0, 80)" stroke-width="3.63" stroke-opacity="1.00" stroke-linejoin="round"/>
<path d="M251.06,199.44 C251.06,199.44 249.60,199.86 249.60,199.86 C258.09,199.94 267.29,201.48 271.72,203.71 C274.43,205.10 278.22,208.29 279.50,210.06 C281.51,212.95 281.74,216.61 281.42,217.59 C281.42,217.59 281.09,217.85 281.09,217.85" fill="none" stroke="rgb(229, 0, 80)" stroke-width="3.63" stroke-opacity="1.00" stroke-linejoin="round"/>
<path d="M253.87,201.40 C253.87,201.40 252.77,200.19 252.77,200.19 C254.41,200.20 258.72,202.94 260.92,204.89 C263.36,207.10 267.52,212.11 269.28,215.12 C270.79,217.74 273.87,224.87 275.09,229.28 C277.15,236.81 279.18,249.03 278.48,251.30 C278.48,251.30 277.85,251.17 277.85,251.17 C277.85,251.17 277.54,250.80 277.54,250.80" fill="none" stroke="rgb(229, 0, 80)" stroke-width="3.63" stroke-opacity="1.00" stroke-linejoin="round"/>
<path d="M247.97,214.73 C247.97,214.73 246.60,212.71 246.60,212.71 C252.88,220.23 259.05,228.14 261.77,232.74 C265.19,238.58 270.37,251.22 272.12,258.83 C272.76,261.64 273.00,262.50 273.59,264.17 C273.73,263.95 273.82,263.81 273.85,263.73 C273.88,263.66 273.91,263.55 273.94,263.42" fill="none" stroke="rgb(229, 0, 80)" stroke-width="3.63" stroke-opacity="1.00" stroke-linejoin="round"/>
<path d="M269.09,229.18 C269.09,229.18 267.41,224.03 267.41,224.03 C269.79,228.56 273.35,240.76 275.55,250.39 C275.97,252.36 276.53,255.35 276.79,256.79 C277.17,259.01 277.54,261.24 277.53,261.24 C277.51,260.96 277.52,260.68 277.57,260.41 C277.94,258.47 280.43,252.58 281.58,249.84" fill="none" stroke="rgb(229, 0, 80)" stroke-width="3.63" stroke-opacity="1.00" stroke-linejoin="round"/>
<path d="M277.30,233.46 C277.30,233.46 277.36,233.43 277.36,233.43 C277.39,233.15 277.44,231.73 277.52,231.41 C277.99,229.59 281.50,224.82 283.40,223.42 C284.51,222.65 286.29,222.31 287.19,222.73 C288.71,223.54 290.26,227.43 291.32,231.94 C291.52,232.86 294.33,249.79 295.13,250.82 C295.37,250.75 296.17,249.15 296.51,248.72 C297.53,247.46 303.53,247.28 307.65,247.65 C310.21,247.91 312.94,248.54 314.15,249.27 C315.41,250.09 316.54,252.49 316.36,254.08 C315.97,256.81 311.67,264.67 309.95,267.21 C309.02,268.55 307.49,270.77 306.88,271.64" fill="none" stroke="rgb(229, 0, 80)" stroke-width="3.63" stroke-opacity="1.00" stroke-linejoin="round"/>
<path d="M297.43,277.31 C297.43,277.31 297.57,278.00 297.57,278.00 C298.22,278.32 302.45,278.28 304.64,279.59 C306.81,280.94 310.55,285.90 311.67,289.37 C312.85,293.21 312.76,297.38 312.10,302.80 C311.82,305.06 311.18,310.05 311.09,310.72 C310.93,311.72 310.77,312.73 310.62,313.74" fill="none" stroke="rgb(229, 0, 80)" stroke-width="3.63" stroke-opacity="1.00" stroke-linejoin="round"/>
<path d="M286.77,285.79 C286.77,285.79 285.61,286.23 285.61,286.23 C294.77,292.00 302.41,297.90 303.30,299.16 C304.61,301.11 304.82,303.32 304.06,306.02 C303.44,308.22 303.52,311.34 304.51,312.64 C304.69,312.86 308.27,315.86 308.96,316.82 C310.39,318.86 310.86,324.88 309.88,326.87 C308.22,330.07 306.45,330.22 305.77,329.97" fill="none" stroke="rgb(229, 0, 80)" stroke-width="3.63" stroke-opacity="1.00" stroke-linejoin="round"/>
<path d="M276.60,267.27 C276.60,267.27 276.60,267.09 276.60,267.09 C276.84,268.65 277.85,284.43 278.85,291.18 C280.01,298.24 283.02,312.95 284.76,320.11 C287.21,329.38 289.87,337.78 291.84,340.54 C291.84,340.54 292.37,339.27 292.37,339.27" fill="none" stroke="rgb(229, 0, 80)" stroke-width="3.63" stroke-opacity="1.00" stroke-linejoin="round"/>
<path d="M273.51,304.88 C273.51,304.88 273.79,303.78 273.79,303.78 C272.86,305.03 269.31,317.43 268.26,324.20 C267.80,327.25 267.70,331.62 268.45,334.36 C268.79,335.52 270.16,337.65 270.98,338.21 C272.06,338.92 275.49,340.27 276.26,340.66 C277.29,341.19 278.19,342.37 278.43,343.41 C278.66,344.55 278.71,349.70 278.62,355.74 C278.57,361.66 278.87,367.22 279.81,369.53 C281.18,372.78 284.07,378.15 286.38,380.34 C287.18,381.10 289.83,383.64 290.62,384.94 C291.02,385.60 294.36,392.25 296.01,393.98 C298.00,396.01 302.29,398.87 306.42,400.42 C312.68,402.74 322.78,409.00 327.84,412.23 C329.77,413.36 334.42,415.45 336.75,415.99 C338.01,416.26 339.51,416.12 340.49,415.65 C341.20,415.30 341.64,414.55 341.84,413.73" fill="none" stroke="rgb(229, 0, 80)" stroke-width="3.63" stroke-opacity="1.00" stroke-linejoin="round"/>
<path d="M291.54,383.17 C291.54,383.17 290.38,381.94 290.38,381.94 C292.72,383.21 305.92,387.90 313.00,389.73 C315.73,390.44 320.65,392.39 322.89,394.32 C323.57,394.91 326.14,398.26 326.85,399.04 C328.08,400.38 330.28,401.80 331.95,402.28 C335.96,403.36 344.93,403.47 347.12,402.74 C348.32,402.28 349.84,399.85 350.05,397.94 C350.11,397.36 349.97,396.49 349.63,395.33" fill="none" stroke="rgb(229, 0, 80)" stroke-width="3.63" stroke-opacity="1.00" stroke-linejoin="round"/>
<path d="M298.41,335.95 C298.41,335.95 297.24,336.20 297.24,336.20 C297.24,336.20 296.85,339.24 296.85,339.24 C298.70,338.36 301.62,333.57 302.94,330.64 C304.93,326.07 305.29,325.07 305.63,323.85" fill="none" stroke="rgb(229, 0, 80)" stroke-width="3.63" stroke-opacity="1.00" stroke-linejoin="round"/>
<path d="M279.05,210.87 C279.05,210.87 278.37,210.48 278.37,210.48 C279.57,210.87 280.50,211.19 282.93,212.09 C288.32,214.09 292.87,216.06 295.84,217.68 C297.20,218.42 298.02,218.95 299.42,219.94" fill="none" stroke="rgb(229, 0, 80)" stroke-width="3.63" stroke-opacity="1.00" stroke-linejoin="round"/>
<path d="M172.70,211.08 C172.70,211.08 172.31,211.89 172.31,211.89 C177.44,203.73 183.33,195.53 189.27,189.71 C196.31,182.84 198.70,181.58 201.53,180.22 C201.53,180.22 201.96,180.50 201.96,180.50" fill="none" stroke="rgb(229, 0, 80)" stroke-width="3.63" stroke-opacity="1.00" stroke-linejoin="round"/>
<path d="M164.91,186.18 C164.91,186.18 165.01,186.65 165.01,186.65 C166.57,184.08 170.72,179.31 172.66,177.48 C175.02,175.27 182.06,169.76 185.40,167.68 C188.60,165.72 192.16,164.26 192.78,164.20" fill="none" stroke="rgb(229, 0, 80)" stroke-width="3.63" stroke-opacity="1.00" stroke-linejoin="round"/>
<path d="M165.75,178.74 C165.34,176.58 165.54,174.85 166.75,173.41 C169.31,170.41 182.58,161.59 188.46,158.55 C200.33,152.44 214.93,147.59 217.04,146.96" fill="none" stroke="rgb(229, 0, 80)" stroke-width="3.63" stroke-opacity="1.00" stroke-linejoin="round"/>
<path d="M182.59,223.99 C182.71,223.52 183.35,222.51 184.75,220.69 C187.93,216.60 200.06,206.40 207.50,201.26 C213.10,197.59 227.42,188.48 230.88,186.53 C233.30,185.17 239.85,181.71 241.09,181.05" fill="none" stroke="rgb(229, 0, 80)" stroke-width="3.63" stroke-opacity="1.00" stroke-linejoin="round"/>
<path d="M199.78,224.06 C199.78,224.06 198.87,223.35 198.87,223.35 C198.59,221.87 201.74,218.67 205.66,215.15 C212.42,209.18 220.09,203.59 229.20,197.59 C236.98,192.59 243.66,188.85 254.38,183.57 C264.69,178.65 268.23,177.30 269.44,176.88" fill="none" stroke="rgb(229, 0, 80)" stroke-width="3.63" stroke-opacity="1.00" stroke-linejoin="round"/>
<path d="M259.83,205.61 C260.85,205.35 263.55,204.66 264.39,204.49 C267.90,203.78 279.02,205.03 282.06,205.81 C283.28,206.13 286.32,207.10 287.44,207.47" fill="none" stroke="rgb(229, 0, 80)" stroke-width="3.63" stroke-opacity="1.00" stroke-linejoin="round"/>
<path d="M284.59,179.09 C284.52,179.09 284.68,179.23 284.75,179.26 C286.31,179.90 289.11,181.08 290.80,181.94 C294.36,183.77 300.21,187.98 302.00,189.75 C302.74,190.51 303.62,191.70 304.97,193.72" fill="none" stroke="rgb(229, 0, 80)" stroke-width="3.63" stroke-opacity="1.00" stroke-linejoin="round"/>
<path d="M303.04,192.91 C303.49,193.54 303.84,194.08 304.08,194.52 C305.14,196.52 306.06,199.14 306.03,200.34 C305.88,203.01 303.63,208.65 301.38,212.19 C301.21,212.45 301.03,212.68 300.84,212.88" fill="none" stroke="rgb(229, 0, 80)" stroke-width="3.63" stroke-opacity="1.00" stroke-linejoin="round"/>
</g>
</svg>
